<svg xmlns="http://www.w3.org/2000/svg" viewBox="0 0 300 263"><defs><style>.cls-1,.cls-2,.cls-3,.cls-4{fill:none;stroke-linecap:round;}.cls-1,.cls-2{stroke:red;}.cls-1,.cls-2,.cls-4{stroke-linejoin:round;}.cls-1,.cls-3,.cls-4{stroke-width:0.6px;}.cls-3,.cls-4{stroke:#000;}.cls-3{stroke-miterlimit:10;}</style></defs><title>2097-30-suspension-sarafatti-flos-A14000_curva_fotometrica-01</title><g id="numeri_esterni_diagramma" data-name="numeri esterni diagramma"><path d="M249.93,137.18h0a1.24,1.24,0,0,1-.37.12,1.84,1.84,0,0,1-.39,0,1.91,1.91,0,0,1-.68-.12,1.58,1.58,0,0,1-.54-.37,1.63,1.63,0,0,1-.36-.56,2.05,2.05,0,0,1-.13-.72,1.79,1.79,0,0,1,.15-.75,1.48,1.48,0,0,1,.4-.55,1.79,1.79,0,0,1,.6-.35,2,2,0,0,1,.75-.13,2.11,2.11,0,0,1,.75.13,1.79,1.79,0,0,1,.6.35,1.59,1.59,0,0,1,.4.55,1.79,1.79,0,0,1,.14.75,2.15,2.15,0,0,1,0,.45,1.68,1.68,0,0,1-.11.4,2.59,2.59,0,0,1-.17.38l-.21.36-1.51,2.39h-.78Zm-.59-.42a1.28,1.28,0,0,0,.48-.09,1,1,0,0,0,.39-.24,1.23,1.23,0,0,0,.26-.37,1.43,1.43,0,0,0,0-1,1.1,1.1,0,0,0-.65-.62,1.48,1.48,0,0,0-1,0,1.28,1.28,0,0,0-.39.24,1.12,1.12,0,0,0-.26.38,1.3,1.3,0,0,0,0,1,1.08,1.08,0,0,0,.26.37,1,1,0,0,0,.39.24A1.28,1.28,0,0,0,249.34,136.76Z"/><path d="M251.82,136.71a7.07,7.07,0,0,1,.08-1,3.19,3.19,0,0,1,.29-1,2,2,0,0,1,.59-.7,1.54,1.54,0,0,1,1-.28,1.49,1.49,0,0,1,.95.28,1.91,1.91,0,0,1,.59.7,2.94,2.94,0,0,1,.3,1,6.29,6.29,0,0,1,0,2,2.94,2.94,0,0,1-.3.95,1.91,1.91,0,0,1-.59.7,1.49,1.49,0,0,1-.95.28,1.54,1.54,0,0,1-1-.28,2,2,0,0,1-.59-.7,3.19,3.19,0,0,1-.29-.95A7.07,7.07,0,0,1,251.82,136.71Zm.67,0c0,.14,0,.29,0,.46a4.6,4.6,0,0,0,.06.52,4.7,4.7,0,0,0,.12.51,2,2,0,0,0,.23.44,1,1,0,0,0,.34.31,1,1,0,0,0,.48.11,1.06,1.06,0,0,0,.48-.11,1.24,1.24,0,0,0,.34-.31,1.65,1.65,0,0,0,.22-.44,3.18,3.18,0,0,0,.13-.51,4.6,4.6,0,0,0,.06-.52c0-.17,0-.32,0-.46s0-.29,0-.46a4.6,4.6,0,0,0-.06-.52,3.18,3.18,0,0,0-.13-.51,1.65,1.65,0,0,0-.22-.44,1.24,1.24,0,0,0-.34-.31,1.06,1.06,0,0,0-.48-.11,1,1,0,0,0-.48.11,1,1,0,0,0-.34.31,2,2,0,0,0-.23.44,4.7,4.7,0,0,0-.12.51,4.6,4.6,0,0,0-.06.52C252.5,136.42,252.49,136.57,252.49,136.71Z"/><path d="M256.42,134.93a1.13,1.13,0,0,1,.09-.45,1.31,1.31,0,0,1,.24-.37,1.18,1.18,0,0,1,.37-.24,1,1,0,0,1,.44-.09,1.13,1.13,0,0,1,.45.09,1.06,1.06,0,0,1,.61.61,1.13,1.13,0,0,1,.09.45,1,1,0,0,1-.09.44,1.06,1.06,0,0,1-.61.61,1.13,1.13,0,0,1-.45.09,1,1,0,0,1-.44-.09,1.18,1.18,0,0,1-.37-.24,1.31,1.31,0,0,1-.24-.37A1,1,0,0,1,256.42,134.93Zm.43,0a.69.69,0,0,0,0,.24,1,1,0,0,0,.15.24.73.73,0,0,0,.51.23.54.54,0,0,0,.29-.07.63.63,0,0,0,.23-.16.72.72,0,0,0,.14-.24.52.52,0,0,0,0-.24.56.56,0,0,0,0-.25.59.59,0,0,0-.14-.23.74.74,0,0,0-.52-.24.73.73,0,0,0-.29.07.62.62,0,0,0-.22.17.76.76,0,0,0-.15.23A.74.74,0,0,0,256.85,134.93Z"/><path d="M41.57,137.18h0a1.34,1.34,0,0,1-.37.12,2,2,0,0,1-.39,0,1.92,1.92,0,0,1-.69-.12,1.58,1.58,0,0,1-.54-.37,1.8,1.8,0,0,1-.36-.56,2.05,2.05,0,0,1-.13-.72,1.79,1.79,0,0,1,.15-.75,1.48,1.48,0,0,1,.4-.55,1.79,1.79,0,0,1,.6-.35,2.23,2.23,0,0,1,1.5,0,1.79,1.79,0,0,1,.6.35,1.48,1.48,0,0,1,.4.55,1.79,1.79,0,0,1,.15.75,3.14,3.14,0,0,1,0,.45,2.34,2.34,0,0,1-.12.4,1.84,1.84,0,0,1-.17.38,3.35,3.35,0,0,1-.21.36l-1.5,2.39h-.79Zm-.59-.42a1.28,1.28,0,0,0,.48-.09,1,1,0,0,0,.39-.24,1.23,1.23,0,0,0,.26-.37,1.3,1.3,0,0,0,0-1,1.1,1.1,0,0,0-.65-.62,1.48,1.48,0,0,0-1,0,1.1,1.1,0,0,0-.65.62,1.43,1.43,0,0,0,0,1,1.23,1.23,0,0,0,.26.37,1,1,0,0,0,.39.24A1.28,1.28,0,0,0,41,136.76Z"/><path d="M43.46,136.71a7.07,7.07,0,0,1,.08-1,2.94,2.94,0,0,1,.3-1,1.91,1.91,0,0,1,.59-.7,1.49,1.49,0,0,1,1-.28,1.54,1.54,0,0,1,1,.28,2,2,0,0,1,.59.7,3.19,3.19,0,0,1,.29,1,6.29,6.29,0,0,1,0,2,3.19,3.19,0,0,1-.29.95,2,2,0,0,1-.59.7,1.54,1.54,0,0,1-1,.28,1.49,1.49,0,0,1-1-.28,1.91,1.91,0,0,1-.59-.7,2.94,2.94,0,0,1-.3-.95A7.07,7.07,0,0,1,43.46,136.71Zm.67,0c0,.14,0,.29,0,.46a4.6,4.6,0,0,0,.06.52,3.18,3.18,0,0,0,.13.51,1.65,1.65,0,0,0,.22.44,1.12,1.12,0,0,0,.34.31,1.1,1.1,0,0,0,1,0,1.12,1.12,0,0,0,.34-.31,2,2,0,0,0,.23-.44,4.7,4.7,0,0,0,.12-.51,4.6,4.6,0,0,0,.06-.52c0-.17,0-.32,0-.46s0-.29,0-.46a4.6,4.6,0,0,0-.06-.52,4.7,4.7,0,0,0-.12-.51,2,2,0,0,0-.23-.44,1.12,1.12,0,0,0-.34-.31,1.1,1.1,0,0,0-1,0,1.12,1.12,0,0,0-.34.31,1.65,1.65,0,0,0-.22.44,3.18,3.18,0,0,0-.13.51,4.6,4.6,0,0,0-.06.52C44.14,136.42,44.13,136.57,44.13,136.71Z"/><path d="M48.06,134.93a1.13,1.13,0,0,1,.09-.45,1.06,1.06,0,0,1,.61-.61,1.13,1.13,0,0,1,.45-.09,1.08,1.08,0,0,1,.44.09,1.06,1.06,0,0,1,.61.61,1.13,1.13,0,0,1,.09.45,1,1,0,0,1-.09.44,1.06,1.06,0,0,1-.61.61,1.08,1.08,0,0,1-.44.09,1.13,1.13,0,0,1-.45-.09,1.06,1.06,0,0,1-.61-.61A1,1,0,0,1,48.06,134.93Zm.43,0a.53.53,0,0,0,.06.24.72.72,0,0,0,.14.24.69.69,0,0,0,.22.16.6.6,0,0,0,.3.07.73.73,0,0,0,.51-.23,1,1,0,0,0,.15-.24.69.69,0,0,0,.05-.24.74.74,0,0,0-.05-.25.76.76,0,0,0-.15-.23.62.62,0,0,0-.22-.17.73.73,0,0,0-.29-.07.73.73,0,0,0-.3.07.72.72,0,0,0-.22.17.59.59,0,0,0-.14.23A.57.57,0,0,0,48.49,134.93Z"/><path d="M148.37,38.51h-.68v-4.8h0l-1,.85-.4-.48,1.52-1.24h.59Z"/><path d="M150.49,34.23a1.48,1.48,0,0,1,.13-.61,1.2,1.2,0,0,1,.34-.46,1.44,1.44,0,0,1,.51-.3,1.92,1.92,0,0,1,1.28,0,1.44,1.44,0,0,1,.51.3,1.2,1.2,0,0,1,.34.46,1.33,1.33,0,0,1,.13.61,1.16,1.16,0,0,1-.07.4,1.41,1.41,0,0,1-.18.37,1.33,1.33,0,0,1-.29.29,1.18,1.18,0,0,1-.39.19h0a1.44,1.44,0,0,1,.46.19,1.35,1.35,0,0,1,.35.32,1.42,1.42,0,0,1,.23.44,1.7,1.7,0,0,1,.08.51,1.74,1.74,0,0,1-.14.69,1.43,1.43,0,0,1-.39.52,1.47,1.47,0,0,1-.57.33,2.35,2.35,0,0,1-1.42,0,1.47,1.47,0,0,1-.57-.33,1.55,1.55,0,0,1-.39-.52,1.74,1.74,0,0,1-.14-.69,1.7,1.7,0,0,1,.08-.51,1.67,1.67,0,0,1,.23-.44,1.35,1.35,0,0,1,.35-.32,1.44,1.44,0,0,1,.46-.19h0a1.18,1.18,0,0,1-.39-.19,1.33,1.33,0,0,1-.29-.29,1.41,1.41,0,0,1-.18-.37A1.46,1.46,0,0,1,150.49,34.23ZM151,36.9a1.18,1.18,0,0,0,.09.46,1.07,1.07,0,0,0,.25.35,1,1,0,0,0,.36.23,1.12,1.12,0,0,0,.88,0,1,1,0,0,0,.36-.23,1.07,1.07,0,0,0,.25-.35,1.18,1.18,0,0,0,.09-.46,1.14,1.14,0,0,0-.09-.46,1.13,1.13,0,0,0-.61-.58,1.12,1.12,0,0,0-.88,0,1.13,1.13,0,0,0-.61.58A1.14,1.14,0,0,0,151,36.9Zm.2-2.64a.88.88,0,0,0,.26.67,1,1,0,0,0,1.36,0,1,1,0,0,0,0-1.34,1,1,0,0,0-1.36,0A.88.88,0,0,0,151.17,34.26Z"/><path d="M154.64,35.68a7,7,0,0,1,.08-1,3.1,3.1,0,0,1,.29-1,2,2,0,0,1,.59-.71,1.6,1.6,0,0,1,1-.27,1.55,1.55,0,0,1,.95.27,1.94,1.94,0,0,1,.59.71,2.86,2.86,0,0,1,.3,1,7,7,0,0,1,.08,1,7.07,7.07,0,0,1-.08,1,2.88,2.88,0,0,1-.3.94,1.94,1.94,0,0,1-.59.71,1.55,1.55,0,0,1-.95.27,1.6,1.6,0,0,1-1-.27,2,2,0,0,1-.59-.71,3.13,3.13,0,0,1-.29-.94A7.07,7.07,0,0,1,154.64,35.68Zm.67,0c0,.13,0,.29,0,.46a4.88,4.88,0,0,0,.06.52,4.05,4.05,0,0,0,.12.5,1.66,1.66,0,0,0,.23.44,1.12,1.12,0,0,0,.34.31,1,1,0,0,0,1,0,1.12,1.12,0,0,0,.34-.31,1.4,1.4,0,0,0,.22-.44,2.83,2.83,0,0,0,.13-.5,4.88,4.88,0,0,0,.06-.52c0-.17,0-.33,0-.46s0-.3,0-.47a4.43,4.43,0,0,0-.06-.51,2.72,2.72,0,0,0-.13-.51,1.51,1.51,0,0,0-.22-.44,1.12,1.12,0,0,0-.34-.31,1,1,0,0,0-1,0,1.12,1.12,0,0,0-.34.31,1.83,1.83,0,0,0-.23.44,3.81,3.81,0,0,0-.12.51,4.43,4.43,0,0,0-.06.51C155.32,35.38,155.31,35.54,155.31,35.68Z"/><path d="M159.24,33.89a1.15,1.15,0,0,1,.33-.81,1,1,0,0,1,.37-.24,1,1,0,0,1,.44-.09,1.15,1.15,0,0,1,.82,2,1.15,1.15,0,0,1-.37.25,1.13,1.13,0,0,1-.45.09,1.15,1.15,0,0,1-.81-.34,1.15,1.15,0,0,1-.33-.81Zm.43,0a.79.79,0,0,0,.05.25,1.14,1.14,0,0,0,.15.23.62.62,0,0,0,.22.17.72.72,0,0,0,.29.06.68.68,0,0,0,.52-.23.79.79,0,0,0,.14-.23.65.65,0,0,0,0-.5.79.79,0,0,0-.14-.23.81.81,0,0,0-.23-.17.65.65,0,0,0-.29-.06.72.72,0,0,0-.29.06.76.76,0,0,0-.22.17,1.14,1.14,0,0,0-.15.23A.79.79,0,0,0,159.67,33.89Z"/><path d="M148.27,239.2a6.85,6.85,0,0,1,.08-1,3.41,3.41,0,0,1,.3-.95,1.94,1.94,0,0,1,.59-.71,1.57,1.57,0,0,1,.95-.27,1.6,1.6,0,0,1,1,.27,2,2,0,0,1,.59.71,3.1,3.1,0,0,1,.29.95,5.7,5.7,0,0,1,.08,1,5.85,5.85,0,0,1-.08,1,3.13,3.13,0,0,1-.29.94,2,2,0,0,1-.59.71,1.6,1.6,0,0,1-1,.27,1.57,1.57,0,0,1-.95-.27,1.94,1.94,0,0,1-.59-.71,3.45,3.45,0,0,1-.3-.94A7.07,7.07,0,0,1,148.27,239.2Zm.68,0c0,.13,0,.29,0,.46a4.88,4.88,0,0,0,.06.52,2.83,2.83,0,0,0,.13.5,1.65,1.65,0,0,0,.22.44,1.24,1.24,0,0,0,.34.31,1,1,0,0,0,.48.12.9.9,0,0,0,.48-.12,1,1,0,0,0,.34-.31,1.41,1.41,0,0,0,.23-.44,4.07,4.07,0,0,0,.13-.5c0-.18,0-.35.06-.52s0-.33,0-.46,0-.3,0-.47,0-.34-.06-.51a3.8,3.8,0,0,0-.13-.51,1.53,1.53,0,0,0-.23-.44,1,1,0,0,0-.34-.31.9.9,0,0,0-.48-.12,1,1,0,0,0-.48.12,1.24,1.24,0,0,0-.34.31,1.81,1.81,0,0,0-.22.44,2.72,2.72,0,0,0-.13.51,4.43,4.43,0,0,0-.06.51C149,238.9,149,239.06,149,239.2Z"/><path d="M152.83,237.41a1.33,1.33,0,0,1,.08-.45,1.11,1.11,0,0,1,.25-.36,1,1,0,0,1,.36-.24,1.17,1.17,0,0,1,.9,0,1,1,0,0,1,.36.24,1.11,1.11,0,0,1,.25.36,1.31,1.31,0,0,1,0,.9,1.23,1.23,0,0,1-.61.61,1.17,1.17,0,0,1-.9,0,1.23,1.23,0,0,1-.61-.61A1.33,1.33,0,0,1,152.83,237.41Zm.43,0a.79.79,0,0,0,.05.25.68.68,0,0,0,.14.23.66.66,0,0,0,.23.17.73.73,0,0,0,.58,0,.76.76,0,0,0,.23-.17.88.88,0,0,0,.14-.23.65.65,0,0,0,0-.5,1.09,1.09,0,0,0-.14-.23,1,1,0,0,0-.23-.17.73.73,0,0,0-.58,0,.81.81,0,0,0-.23.17.75.75,0,0,0-.19.48Z"/><path d="M203.17,238.76h.21l.43,0a1.15,1.15,0,0,0,.42-.13.77.77,0,0,0,.31-.31.94.94,0,0,0,.13-.51.87.87,0,0,0-.27-.68,1,1,0,0,0-.7-.26,1.28,1.28,0,0,0-.63.16,1.14,1.14,0,0,0-.41.48l-.65-.25a1.48,1.48,0,0,1,.65-.72,2.07,2.07,0,0,1,1-.24,2.25,2.25,0,0,1,.64.09,1.72,1.72,0,0,1,.54.28,1.37,1.37,0,0,1,.37.46,1.48,1.48,0,0,1,.14.65,1.29,1.29,0,0,1-.27.8,1.34,1.34,0,0,1-.7.49v0a1.48,1.48,0,0,1,.85.49,1.37,1.37,0,0,1,.23.43,1.69,1.69,0,0,1,.08.5,1.66,1.66,0,0,1-.15.72,1.57,1.57,0,0,1-.41.51,1.71,1.71,0,0,1-.6.31,2.34,2.34,0,0,1-.71.1,2.18,2.18,0,0,1-1.13-.28,1.61,1.61,0,0,1-.7-.91l.68-.22a1.33,1.33,0,0,0,.41.65,1.3,1.3,0,0,0,.74.19,1.33,1.33,0,0,0,.45-.08,1.11,1.11,0,0,0,.36-.23,1.24,1.24,0,0,0,.25-.35,1.13,1.13,0,0,0,.09-.45,1.07,1.07,0,0,0-.12-.53,1,1,0,0,0-.33-.33,1.23,1.23,0,0,0-.46-.18,2.31,2.31,0,0,0-.52-.06h-.21Z"/><path d="M206.24,239.2a6.85,6.85,0,0,1,.08-1,3.11,3.11,0,0,1,.3-.95,1.94,1.94,0,0,1,.59-.71,1.55,1.55,0,0,1,.95-.27,1.6,1.6,0,0,1,1,.27,2,2,0,0,1,.59.71,3.1,3.1,0,0,1,.29.95,5.7,5.7,0,0,1,.08,1,5.85,5.85,0,0,1-.08,1,3.13,3.13,0,0,1-.29.94,2,2,0,0,1-.59.71,1.6,1.6,0,0,1-1,.27,1.55,1.55,0,0,1-.95-.27,1.94,1.94,0,0,1-.59-.71,3.14,3.14,0,0,1-.3-.94A7.07,7.07,0,0,1,206.24,239.2Zm.67,0c0,.13,0,.29,0,.46a4.88,4.88,0,0,0,.06.52,2.83,2.83,0,0,0,.13.5,1.4,1.4,0,0,0,.22.44,1.24,1.24,0,0,0,.34.31,1,1,0,0,0,.48.12.9.9,0,0,0,.48-.12,1,1,0,0,0,.34-.31,1.41,1.41,0,0,0,.23-.44,4.05,4.05,0,0,0,.12-.5,4.88,4.88,0,0,0,.06-.52,3.86,3.86,0,0,0,0-.46,3.94,3.94,0,0,0,0-.47,4.43,4.43,0,0,0-.06-.51,3.81,3.81,0,0,0-.12-.51,1.53,1.53,0,0,0-.23-.44,1,1,0,0,0-.34-.31.9.9,0,0,0-.48-.12,1,1,0,0,0-.48.12,1.24,1.24,0,0,0-.34.31,1.51,1.51,0,0,0-.22.44,2.72,2.72,0,0,0-.13.51,4.43,4.43,0,0,0-.06.51C206.92,238.9,206.91,239.06,206.91,239.2Z"/><path d="M210.84,237.41a1.13,1.13,0,0,1,.09-.45,1.26,1.26,0,0,1,.24-.36,1.2,1.2,0,0,1,.82-.33,1,1,0,0,1,.44.09,1.12,1.12,0,0,1,.37.24,1.26,1.26,0,0,1,.24.36,1.16,1.16,0,0,1-.24,1.26,1.15,1.15,0,0,1-.37.25,1,1,0,0,1-.44.09,1.13,1.13,0,0,1-.45-.09,1.15,1.15,0,0,1-.37-.25,1.15,1.15,0,0,1-.33-.81Zm.43,0a.61.61,0,0,0,.06.25.68.68,0,0,0,.14.23.72.72,0,0,0,.22.17.73.73,0,0,0,.3.06.72.72,0,0,0,.29-.06.62.62,0,0,0,.22-.17.91.91,0,0,0,.15-.23.65.65,0,0,0,0-.5,1.14,1.14,0,0,0-.15-.23.76.76,0,0,0-.22-.17.72.72,0,0,0-.29-.06.73.73,0,0,0-.3.06.92.92,0,0,0-.22.17.79.79,0,0,0-.14.23A.61.61,0,0,0,211.27,237.41Z"/><path d="M93.6,238.76h.21l.44,0a1.1,1.1,0,0,0,.41-.13.86.86,0,0,0,.32-.31.94.94,0,0,0,.12-.51.87.87,0,0,0-.27-.68,1,1,0,0,0-.7-.26,1.21,1.21,0,0,0-.62.16,1.1,1.1,0,0,0-.42.48l-.65-.25a1.45,1.45,0,0,1,.66-.72,2,2,0,0,1,1-.24,2.32,2.32,0,0,1,.65.09,2,2,0,0,1,.54.28,1.67,1.67,0,0,1,.37.46,1.48,1.48,0,0,1,.13.65,1.29,1.29,0,0,1-.27.8,1.34,1.34,0,0,1-.7.49v0a1.31,1.31,0,0,1,.49.18,1.34,1.34,0,0,1,.36.31,1.37,1.37,0,0,1,.23.43,1.42,1.42,0,0,1,.08.5,1.66,1.66,0,0,1-.15.72,1.57,1.57,0,0,1-.41.51,1.75,1.75,0,0,1-.59.31,2.46,2.46,0,0,1-.72.1,2.18,2.18,0,0,1-1.13-.28,1.56,1.56,0,0,1-.69-.91l.68-.22a1.2,1.2,0,0,0,.41.65,1.27,1.27,0,0,0,.73.19,1.33,1.33,0,0,0,.45-.08,1.11,1.11,0,0,0,.36-.23,1.07,1.07,0,0,0,.25-.35,1.13,1.13,0,0,0,.09-.45,1.07,1.07,0,0,0-.12-.53.87.87,0,0,0-.33-.33,1.17,1.17,0,0,0-.46-.18,2.24,2.24,0,0,0-.52-.06H93.6Z"/><path d="M96.68,239.2a5.7,5.7,0,0,1,.08-1,3.1,3.1,0,0,1,.29-.95,2,2,0,0,1,.59-.71,1.6,1.6,0,0,1,1-.27,1.57,1.57,0,0,1,1,.27,1.94,1.94,0,0,1,.59.71,3.41,3.41,0,0,1,.3.95,6.85,6.85,0,0,1,.08,1,7.07,7.07,0,0,1-.08,1,3.45,3.45,0,0,1-.3.94,1.94,1.94,0,0,1-.59.71,1.57,1.57,0,0,1-1,.27,1.6,1.6,0,0,1-1-.27,2,2,0,0,1-.59-.71,3.13,3.13,0,0,1-.29-.94A5.85,5.85,0,0,1,96.68,239.2Zm.67,0c0,.13,0,.29,0,.46a4.88,4.88,0,0,0,.06.52,4.07,4.07,0,0,0,.13.5,1.41,1.41,0,0,0,.23.44,1,1,0,0,0,.34.31.9.9,0,0,0,.48.12,1,1,0,0,0,.48-.12,1.24,1.24,0,0,0,.34-.31,1.65,1.65,0,0,0,.22-.44,2.83,2.83,0,0,0,.13-.5,4.88,4.88,0,0,0,.06-.52c0-.17,0-.33,0-.46s0-.3,0-.47a4.43,4.43,0,0,0-.06-.51,2.72,2.72,0,0,0-.13-.51,1.81,1.81,0,0,0-.22-.44,1.24,1.24,0,0,0-.34-.31,1,1,0,0,0-.48-.12.9.9,0,0,0-.48.12,1,1,0,0,0-.34.31,1.53,1.53,0,0,0-.23.44,3.8,3.8,0,0,0-.13.51,4.43,4.43,0,0,0-.06.51C97.35,238.9,97.35,239.06,97.35,239.2Z"/><path d="M101.28,237.41a1.33,1.33,0,0,1,.08-.45,1.11,1.11,0,0,1,.25-.36,1,1,0,0,1,.36-.24,1.17,1.17,0,0,1,.9,0,1,1,0,0,1,.36.24,1.11,1.11,0,0,1,.25.36,1.31,1.31,0,0,1,0,.9,1.23,1.23,0,0,1-.61.61,1.17,1.17,0,0,1-.9,0,1.23,1.23,0,0,1-.61-.61A1.33,1.33,0,0,1,101.28,237.41Zm.43,0a.79.79,0,0,0,.05.25.68.68,0,0,0,.14.23.76.76,0,0,0,.23.17.73.73,0,0,0,.58,0,.66.66,0,0,0,.23-.17.68.68,0,0,0,.14-.23.71.71,0,0,0-.14-.73.81.81,0,0,0-.23-.17.73.73,0,0,0-.58,0,1,1,0,0,0-.23.17.75.75,0,0,0-.19.48Z"/><path d="M203.18,38.51h-.68v-4.8h0l-1,.85-.4-.48,1.52-1.24h.59Z"/><path d="M208.49,33.47h-2.31l0,1.53a1.08,1.08,0,0,1,.36-.11l.37,0a2,2,0,0,1,.74.14,1.61,1.61,0,0,1,.57.39,1.9,1.9,0,0,1,.37.59,2,2,0,0,1,.13.74,2,2,0,0,1-.15.78,1.74,1.74,0,0,1-.41.59,1.91,1.91,0,0,1-.61.38,2.2,2.2,0,0,1-.78.13,1.73,1.73,0,0,1-1-.28,2,2,0,0,1-.63-.75l.67-.25a1.31,1.31,0,0,0,.42.51,1.1,1.1,0,0,0,.64.2,1.28,1.28,0,0,0,.48-.09,1.26,1.26,0,0,0,.38-.27,1.15,1.15,0,0,0,.26-.41,1.53,1.53,0,0,0,.1-.54,1.38,1.38,0,0,0-.11-.55,1.08,1.08,0,0,0-.3-.4,1.26,1.26,0,0,0-.44-.25,1.67,1.67,0,0,0-.55-.08,1.84,1.84,0,0,0-.6.1,2.58,2.58,0,0,0-.56.25l.06-2.95h3Z"/><path d="M209.45,35.68a7,7,0,0,1,.08-1,3.1,3.1,0,0,1,.29-1,2,2,0,0,1,.59-.71,1.6,1.6,0,0,1,1-.27,1.55,1.55,0,0,1,.95.27,1.94,1.94,0,0,1,.59.71,2.86,2.86,0,0,1,.3,1,7,7,0,0,1,.08,1,7.07,7.07,0,0,1-.08,1,2.88,2.88,0,0,1-.3.94,1.94,1.94,0,0,1-.59.71,1.55,1.55,0,0,1-.95.27,1.6,1.6,0,0,1-1-.27,2,2,0,0,1-.59-.71,3.13,3.13,0,0,1-.29-.94A7.07,7.07,0,0,1,209.45,35.68Zm.67,0c0,.13,0,.29,0,.46a4.88,4.88,0,0,0,.06.52,4.05,4.05,0,0,0,.12.5,1.66,1.66,0,0,0,.23.44,1,1,0,0,0,.34.31.9.9,0,0,0,.48.12,1,1,0,0,0,.48-.12,1.24,1.24,0,0,0,.34-.31,1.4,1.4,0,0,0,.22-.44,2.83,2.83,0,0,0,.13-.5,4.88,4.88,0,0,0,.06-.52c0-.17,0-.33,0-.46s0-.3,0-.47a4.43,4.43,0,0,0-.06-.51,2.72,2.72,0,0,0-.13-.51,1.51,1.51,0,0,0-.22-.44,1.24,1.24,0,0,0-.34-.31,1,1,0,0,0-.48-.12.9.9,0,0,0-.48.12,1,1,0,0,0-.34.31,1.83,1.83,0,0,0-.23.44,3.81,3.81,0,0,0-.12.51,4.43,4.43,0,0,0-.06.51C210.13,35.38,210.12,35.54,210.12,35.68Z"/><path d="M214.05,33.89a1.15,1.15,0,0,1,.33-.81,1,1,0,0,1,.37-.24,1,1,0,0,1,.44-.09,1.13,1.13,0,0,1,.45.09,1,1,0,0,1,.36.24,1,1,0,0,1,.25.36,1.17,1.17,0,0,1,0,.9,1.23,1.23,0,0,1-.61.61,1.13,1.13,0,0,1-.45.09,1.15,1.15,0,0,1-.81-.34,1.15,1.15,0,0,1-.33-.81Zm.43,0a.79.79,0,0,0,.05.25,1.14,1.14,0,0,0,.15.23.62.62,0,0,0,.22.17.72.72,0,0,0,.29.06.68.68,0,0,0,.52-.23.79.79,0,0,0,.14-.23.65.65,0,0,0,0-.5.79.79,0,0,0-.14-.23.81.81,0,0,0-.23-.17.65.65,0,0,0-.29-.06.72.72,0,0,0-.29.06.76.76,0,0,0-.22.17,1.14,1.14,0,0,0-.15.23A.79.79,0,0,0,214.48,33.89Z"/><path d="M93.61,38.51h-.67v-4.8h0l-1,.85-.4-.48L93,32.84h.58Z"/><path d="M98.92,33.47H96.61l0,1.53a1,1,0,0,1,.35-.11l.37,0a1.91,1.91,0,0,1,.74.14,1.65,1.65,0,0,1,.58.39A1.71,1.71,0,0,1,99,36a2,2,0,0,1,.13.74,2,2,0,0,1-.15.78,1.71,1.71,0,0,1-.4.59,2,2,0,0,1-.62.38,2.15,2.15,0,0,1-.77.13,1.78,1.78,0,0,1-1.05-.28,1.85,1.85,0,0,1-.62-.75l.67-.25a1.16,1.16,0,0,0,.42.51,1.05,1.05,0,0,0,.63.2,1.28,1.28,0,0,0,.48-.09,1.23,1.23,0,0,0,.64-.68,1.33,1.33,0,0,0,.1-.54,1.38,1.38,0,0,0-.11-.55,1.18,1.18,0,0,0-.29-.4,1.41,1.41,0,0,0-.45-.25,1.63,1.63,0,0,0-.55-.08,1.78,1.78,0,0,0-.59.1,2.58,2.58,0,0,0-.56.25l0-2.95h3Z"/><path d="M99.88,35.68a7,7,0,0,1,.08-1,3.11,3.11,0,0,1,.3-1,1.94,1.94,0,0,1,.59-.71,1.55,1.55,0,0,1,1-.27,1.6,1.6,0,0,1,1,.27,2,2,0,0,1,.59.71,3.1,3.1,0,0,1,.29,1,5.77,5.77,0,0,1,.08,1,5.85,5.85,0,0,1-.08,1,3.13,3.13,0,0,1-.29.94,2,2,0,0,1-.59.71,1.6,1.6,0,0,1-1,.27,1.55,1.55,0,0,1-1-.27,1.94,1.94,0,0,1-.59-.71,3.14,3.14,0,0,1-.3-.94A7.07,7.07,0,0,1,99.88,35.68Zm.67,0c0,.13,0,.29,0,.46a4.88,4.88,0,0,0,.06.52,2.83,2.83,0,0,0,.13.5,1.4,1.4,0,0,0,.22.44,1.24,1.24,0,0,0,.34.31,1,1,0,0,0,.48.12.9.9,0,0,0,.48-.12,1,1,0,0,0,.34-.31,1.41,1.41,0,0,0,.23-.44,4.05,4.05,0,0,0,.12-.5,4.88,4.88,0,0,0,.06-.52c0-.17,0-.33,0-.46s0-.3,0-.47a4.43,4.43,0,0,0-.06-.51,3.81,3.81,0,0,0-.12-.51,1.53,1.53,0,0,0-.23-.44,1,1,0,0,0-.34-.31.9.9,0,0,0-.48-.12,1,1,0,0,0-.48.12,1.24,1.24,0,0,0-.34.31,1.51,1.51,0,0,0-.22.44,2.72,2.72,0,0,0-.13.51,4.43,4.43,0,0,0-.06.51C100.56,35.38,100.55,35.54,100.55,35.68Z"/><path d="M104.48,33.89a1.15,1.15,0,0,1,1.15-1.14,1,1,0,0,1,.44.09,1.12,1.12,0,0,1,.37.24,1.16,1.16,0,0,1,0,1.62,1.15,1.15,0,0,1-.37.25,1,1,0,0,1-.44.09,1.13,1.13,0,0,1-.45-.09,1.15,1.15,0,0,1-.37-.25,1.15,1.15,0,0,1-.33-.81Zm.43,0a.61.61,0,0,0,.06.25.79.79,0,0,0,.14.23.72.72,0,0,0,.22.17.73.73,0,0,0,.3.06.72.72,0,0,0,.29-.06.62.62,0,0,0,.22-.17,1.14,1.14,0,0,0,.15-.23.65.65,0,0,0,0-.5,1.14,1.14,0,0,0-.15-.23.76.76,0,0,0-.22-.17.72.72,0,0,0-.29-.06.73.73,0,0,0-.3.06.92.92,0,0,0-.22.17.79.79,0,0,0-.14.23A.61.61,0,0,0,104.91,33.89Z"/><path d="M248.75,192.45v0a1.35,1.35,0,0,1,.37-.13,2,2,0,0,1,.39,0,1.73,1.73,0,0,1,.69.13,1.42,1.42,0,0,1,.54.36,1.85,1.85,0,0,1,.36.57,2,2,0,0,1,.12.72,1.78,1.78,0,0,1-.14.74,1.74,1.74,0,0,1-.4.56,2,2,0,0,1-.6.35,2.36,2.36,0,0,1-.75.12,2.27,2.27,0,0,1-.75-.12,2,2,0,0,1-.6-.35,1.6,1.6,0,0,1-.4-.56,1.78,1.78,0,0,1-.15-.74,2.24,2.24,0,0,1,.15-.86,5.28,5.28,0,0,1,.39-.74l1.5-2.39h.79Zm.59.43a1.23,1.23,0,0,0-.87.32,1,1,0,0,0-.26.38,1.31,1.31,0,0,0-.1.5,1.35,1.35,0,0,0,.1.5,1.08,1.08,0,0,0,.26.37,1,1,0,0,0,.39.24,1.32,1.32,0,0,0,1,0,1,1,0,0,0,.39-.24,1.23,1.23,0,0,0,.26-.37,1.35,1.35,0,0,0,.09-.5,1.31,1.31,0,0,0-.09-.5,1.16,1.16,0,0,0-.26-.38,1.23,1.23,0,0,0-.87-.32Z"/><path d="M251.82,192.92a7.07,7.07,0,0,1,.08-1,3.13,3.13,0,0,1,.29-.94,2,2,0,0,1,.59-.71,1.6,1.6,0,0,1,1-.27,1.55,1.55,0,0,1,.95.27,1.94,1.94,0,0,1,.59.71,2.88,2.88,0,0,1,.3.94,7.07,7.07,0,0,1,.08,1,7,7,0,0,1-.08,1,2.86,2.86,0,0,1-.3,1,1.94,1.94,0,0,1-.59.71,1.55,1.55,0,0,1-.95.27,1.6,1.6,0,0,1-1-.27,2,2,0,0,1-.59-.71,3.1,3.1,0,0,1-.29-1A7,7,0,0,1,251.82,192.92Zm.67,0c0,.14,0,.3,0,.47a4.43,4.43,0,0,0,.06.51,3.81,3.81,0,0,0,.12.51,1.83,1.83,0,0,0,.23.44,1,1,0,0,0,.34.31.9.9,0,0,0,.48.12,1,1,0,0,0,.48-.12,1.24,1.24,0,0,0,.34-.31,1.51,1.51,0,0,0,.22-.44,2.72,2.72,0,0,0,.13-.51,4.43,4.43,0,0,0,.06-.51c0-.17,0-.33,0-.47s0-.29,0-.46a4.88,4.88,0,0,0-.06-.52,2.83,2.83,0,0,0-.13-.5,1.4,1.4,0,0,0-.22-.44,1.1,1.1,0,0,0-.34-.31,1,1,0,0,0-.48-.12.9.9,0,0,0-.48.12.92.92,0,0,0-.34.31,1.66,1.66,0,0,0-.23.44,4.05,4.05,0,0,0-.12.5,4.88,4.88,0,0,0-.06.52C252.5,192.63,252.49,192.79,252.49,192.92Z"/><path d="M256.42,191.14a1.15,1.15,0,0,1,.33-.81,1.05,1.05,0,0,1,.37-.25,1.23,1.23,0,0,1,.44-.08,1.33,1.33,0,0,1,.45.08,1.15,1.15,0,0,1,.37.25,1.16,1.16,0,0,1,0,1.62,1.15,1.15,0,0,1-.37.25,1.33,1.33,0,0,1-.45.08,1.23,1.23,0,0,1-.44-.08,1.05,1.05,0,0,1-.37-.25,1.15,1.15,0,0,1-.33-.81Zm.43,0a.79.79,0,0,0,0,.25,1.14,1.14,0,0,0,.15.23.62.62,0,0,0,.22.17.72.72,0,0,0,.29.06.68.68,0,0,0,.52-.23.79.79,0,0,0,.14-.23.65.65,0,0,0,0-.5.79.79,0,0,0-.14-.23.68.68,0,0,0-.52-.23.72.72,0,0,0-.29.06.62.62,0,0,0-.22.17,1.14,1.14,0,0,0-.15.23A.79.79,0,0,0,256.85,191.14Z"/><path d="M250,81.22h-.67v-4.8h0l-1,.86-.4-.49,1.52-1.23H250Z"/><path d="M251.92,80.45l2.13-2.08c.13-.12.25-.24.35-.35a2.16,2.16,0,0,0,.25-.32,1.09,1.09,0,0,0,.15-.33,1.38,1.38,0,0,0,0-.37,1,1,0,0,0-.08-.4.84.84,0,0,0-.22-.3.78.78,0,0,0-.33-.19,1.05,1.05,0,0,0-.4-.07,1,1,0,0,0-.71.25,1.08,1.08,0,0,0-.36.65l-.73-.06a1.83,1.83,0,0,1,.21-.61,1.41,1.41,0,0,1,.39-.45,2,2,0,0,1,.53-.27,2.25,2.25,0,0,1,.64-.09,2.41,2.41,0,0,1,.67.1,1.92,1.92,0,0,1,.55.29,1.44,1.44,0,0,1,.51,1.15,2,2,0,0,1-.09.61,2,2,0,0,1-.25.5,3.47,3.47,0,0,1-.35.43l-.41.4-1.75,1.64v0h2.89v.62h-3.64Z"/><path d="M256.27,78.39a5.85,5.85,0,0,1,.08-1,3.19,3.19,0,0,1,.29-1,2,2,0,0,1,.59-.7,1.54,1.54,0,0,1,1-.28,1.51,1.51,0,0,1,.95.28,1.91,1.91,0,0,1,.59.7,3.2,3.2,0,0,1,.3,1,6.29,6.29,0,0,1,0,2,3.2,3.2,0,0,1-.3,1,1.91,1.91,0,0,1-.59.7,1.51,1.51,0,0,1-.95.28,1.54,1.54,0,0,1-1-.28,2,2,0,0,1-.59-.7,3.19,3.19,0,0,1-.29-1A5.85,5.85,0,0,1,256.27,78.39Zm.67,0a3.78,3.78,0,0,0,0,.46c0,.17,0,.35.05.52a4.77,4.77,0,0,0,.13.51,1.67,1.67,0,0,0,.23.44,1,1,0,0,0,.34.31,1,1,0,0,0,.48.11,1.06,1.06,0,0,0,.48-.11,1.24,1.24,0,0,0,.34-.31,2,2,0,0,0,.22-.44,3.18,3.18,0,0,0,.13-.51,4.6,4.6,0,0,0,.06-.52c0-.17,0-.32,0-.46s0-.29,0-.46a4.35,4.35,0,0,0-.06-.52,3.18,3.18,0,0,0-.13-.51,2,2,0,0,0-.22-.44,1.24,1.24,0,0,0-.34-.31,1.06,1.06,0,0,0-.48-.11,1,1,0,0,0-.48.11,1,1,0,0,0-.34.31,1.67,1.67,0,0,0-.23.44,4.77,4.77,0,0,0-.13.51c0,.17,0,.34-.05.52A3.78,3.78,0,0,0,256.94,78.39Z"/><path d="M260.87,76.61a1.13,1.13,0,0,1,.09-.45,1,1,0,0,1,.24-.37,1.16,1.16,0,0,1,1.62,0,1.15,1.15,0,0,1,.25.37,1.13,1.13,0,0,1,.09.45,1,1,0,0,1-.09.44,1.15,1.15,0,0,1-.25.37,1.16,1.16,0,0,1-1.62,0,1,1,0,0,1-.24-.37A1,1,0,0,1,260.87,76.61Zm.43,0a.69.69,0,0,0,.05.24.75.75,0,0,0,.15.24.6.6,0,0,0,.22.16.64.64,0,0,0,.58,0,.63.63,0,0,0,.23-.16.72.72,0,0,0,.14-.24.52.52,0,0,0,.05-.24.56.56,0,0,0-.05-.25.59.59,0,0,0-.14-.23.66.66,0,0,0-.23-.17.64.64,0,0,0-.58,0,.62.62,0,0,0-.22.17.61.61,0,0,0-.15.23A.74.74,0,0,0,261.3,76.61Z"/><path d="M40.39,192.45v0a1.42,1.42,0,0,1,.38-.13,1.84,1.84,0,0,1,.39,0,1.72,1.72,0,0,1,.68.13,1.42,1.42,0,0,1,.54.36,1.85,1.85,0,0,1,.36.57,2,2,0,0,1,.13.72,1.78,1.78,0,0,1-.15.74,1.6,1.6,0,0,1-.4.56,2,2,0,0,1-.6.35,2.4,2.4,0,0,1-1.5,0,2,2,0,0,1-.6-.35,1.6,1.6,0,0,1-.4-.56,1.78,1.78,0,0,1-.15-.74,2.24,2.24,0,0,1,.16-.86,5.19,5.19,0,0,1,.38-.74l1.5-2.39h.79Zm.59.43a1.23,1.23,0,0,0-.87.32,1.16,1.16,0,0,0-.26.38,1.31,1.31,0,0,0-.09.5,1.35,1.35,0,0,0,.09.5,1.23,1.23,0,0,0,.26.37,1,1,0,0,0,.39.24,1.32,1.32,0,0,0,1,0,1,1,0,0,0,.39-.24,1.23,1.23,0,0,0,.26-.37,1.35,1.35,0,0,0,.1-.5,1.31,1.31,0,0,0-.1-.5,1.16,1.16,0,0,0-.26-.38,1.23,1.23,0,0,0-.87-.32Z"/><path d="M43.46,192.92a7.07,7.07,0,0,1,.08-1,2.88,2.88,0,0,1,.3-.94,1.94,1.94,0,0,1,.59-.71,1.55,1.55,0,0,1,1-.27,1.6,1.6,0,0,1,1,.27,2,2,0,0,1,.59.71,3.13,3.13,0,0,1,.29.94,7.07,7.07,0,0,1,.08,1,7,7,0,0,1-.08,1,3.1,3.1,0,0,1-.29,1,2,2,0,0,1-.59.71,1.6,1.6,0,0,1-1,.27,1.55,1.55,0,0,1-1-.27,1.94,1.94,0,0,1-.59-.71,2.86,2.86,0,0,1-.3-1A7,7,0,0,1,43.46,192.92Zm.67,0c0,.14,0,.3,0,.47a4.43,4.43,0,0,0,.06.51,2.72,2.72,0,0,0,.13.51,1.51,1.51,0,0,0,.22.44,1.12,1.12,0,0,0,.34.31,1,1,0,0,0,1,0,1.12,1.12,0,0,0,.34-.31,1.83,1.83,0,0,0,.23-.44,3.81,3.81,0,0,0,.12-.51,4.43,4.43,0,0,0,.06-.51c0-.17,0-.33,0-.47s0-.29,0-.46a4.88,4.88,0,0,0-.06-.52,4.05,4.05,0,0,0-.12-.5,1.66,1.66,0,0,0-.23-.44,1,1,0,0,0-.34-.31,1,1,0,0,0-1,0,1,1,0,0,0-.34.31,1.4,1.4,0,0,0-.22.44,2.83,2.83,0,0,0-.13.5,4.88,4.88,0,0,0-.06.52C44.14,192.63,44.13,192.79,44.13,192.92Z"/><path d="M48.06,191.14a1.15,1.15,0,0,1,.33-.81,1.15,1.15,0,0,1,.37-.25,1.33,1.33,0,0,1,.45-.08,1.27,1.27,0,0,1,.44.08,1.15,1.15,0,0,1,.37.25A1.16,1.16,0,0,1,50,192a1.15,1.15,0,0,1-.37.25,1.27,1.27,0,0,1-.44.08,1.33,1.33,0,0,1-.45-.08,1.15,1.15,0,0,1-.37-.25,1.15,1.15,0,0,1-.33-.81Zm.43,0a.61.61,0,0,0,.06.25.79.79,0,0,0,.14.23.72.72,0,0,0,.22.17.73.73,0,0,0,.3.06.72.72,0,0,0,.29-.06.62.62,0,0,0,.22-.17,1.14,1.14,0,0,0,.15-.23.65.65,0,0,0,0-.5,1.14,1.14,0,0,0-.15-.23.62.62,0,0,0-.22-.17.72.72,0,0,0-.29-.06.73.73,0,0,0-.3.06.72.72,0,0,0-.22.17.79.79,0,0,0-.14.23A.61.61,0,0,0,48.49,191.14Z"/><path d="M39.15,81.22h-.67v-4.8h0l-1,.86-.4-.49,1.52-1.23h.58Z"/><path d="M41.07,80.45l2.14-2.08c.13-.12.25-.24.35-.35a2.16,2.16,0,0,0,.25-.32,1.09,1.09,0,0,0,.15-.33A1.38,1.38,0,0,0,44,77a1,1,0,0,0-.08-.4.84.84,0,0,0-.22-.3.78.78,0,0,0-.33-.19A1.05,1.05,0,0,0,43,76a1,1,0,0,0-.72.25,1.19,1.19,0,0,0-.36.65l-.72-.06a1.47,1.47,0,0,1,.21-.61,1.41,1.41,0,0,1,.39-.45,2,2,0,0,1,.53-.27,2.2,2.2,0,0,1,.64-.09,2.41,2.41,0,0,1,.67.1,2.06,2.06,0,0,1,.55.29,1.47,1.47,0,0,1,.37.48,1.6,1.6,0,0,1,.14.67,2,2,0,0,1-.09.61,2.34,2.34,0,0,1-.25.5,3.47,3.47,0,0,1-.35.43l-.41.4-1.75,1.64v0h2.89v.62H41.07Z"/><path d="M45.43,78.39a7,7,0,0,1,.07-1,3.52,3.52,0,0,1,.3-1,2,2,0,0,1,.59-.7,1.77,1.77,0,0,1,1.91,0,1.91,1.91,0,0,1,.59.7,3.52,3.52,0,0,1,.3,1,6.29,6.29,0,0,1,0,2,3.52,3.52,0,0,1-.3,1,1.91,1.91,0,0,1-.59.7,1.77,1.77,0,0,1-1.91,0,2,2,0,0,1-.59-.7,3.52,3.52,0,0,1-.3-1A7,7,0,0,1,45.43,78.39Zm.67,0c0,.14,0,.29,0,.46a4.6,4.6,0,0,0,.06.52,4.77,4.77,0,0,0,.13.51,2,2,0,0,0,.22.44,1.15,1.15,0,0,0,.35.31,1,1,0,0,0,.48.11,1.06,1.06,0,0,0,.48-.11,1.24,1.24,0,0,0,.34-.31,2,2,0,0,0,.22-.44,3.18,3.18,0,0,0,.13-.51,4.6,4.6,0,0,0,.06-.52c0-.17,0-.32,0-.46s0-.29,0-.46a4.35,4.35,0,0,0-.06-.52,3.18,3.18,0,0,0-.13-.51,2,2,0,0,0-.22-.44,1.24,1.24,0,0,0-.34-.31,1.06,1.06,0,0,0-.48-.11,1,1,0,0,0-.48.11,1.15,1.15,0,0,0-.35.31,2,2,0,0,0-.22.44,4.77,4.77,0,0,0-.13.51,4.35,4.35,0,0,0-.06.52C46.1,78.1,46.1,78.25,46.1,78.39Z"/><path d="M50,76.61a1.12,1.12,0,0,1,.08-.45,1.15,1.15,0,0,1,.25-.37,1.16,1.16,0,0,1,1.62,0,1.15,1.15,0,0,1,.25.37,1.33,1.33,0,0,1,.08.45,1.23,1.23,0,0,1-.08.44,1.15,1.15,0,0,1-.25.37,1.16,1.16,0,0,1-1.62,0,1.15,1.15,0,0,1-.25-.37A1,1,0,0,1,50,76.61Zm.43,0a.52.52,0,0,0,0,.24.72.72,0,0,0,.14.24.63.63,0,0,0,.23.16.64.64,0,0,0,.58,0,.73.73,0,0,0,.23-.16,1,1,0,0,0,.14-.24.69.69,0,0,0,.05-.24.75.75,0,0,0-.19-.48.76.76,0,0,0-.23-.17.64.64,0,0,0-.58,0,.66.66,0,0,0-.23.17.59.59,0,0,0-.14.23A.56.56,0,0,0,50.46,76.61Z"/></g><g id="numeri_fondo_tabella" data-name="numeri fondo tabella"><path d="M131.83,251.42a1.17,1.17,0,0,0-.43-.35,1.19,1.19,0,0,0-.51-.11,1.35,1.35,0,0,0-.55.11,1.08,1.08,0,0,0-.4.3,1.32,1.32,0,0,0-.23.44,1.76,1.76,0,0,0,0,1.08,1.43,1.43,0,0,0,.26.45,1.31,1.31,0,0,0,.39.3,1.27,1.27,0,0,0,.52.1,1.09,1.09,0,0,0,1-.46l.47.44a1.69,1.69,0,0,1-.64.46,2.29,2.29,0,0,1-.78.14,2.22,2.22,0,0,1-.79-.14,1.75,1.75,0,0,1-1-1,2.27,2.27,0,0,1,0-1.57,1.86,1.86,0,0,1,.39-.63,2,2,0,0,1,.61-.41,2,2,0,0,1,.79-.15,2.09,2.09,0,0,1,.79.15,1.59,1.59,0,0,1,.65.45Z"/><path d="M136.21,253.56h0a1.43,1.43,0,0,1-.55.54,1.7,1.7,0,0,1-.89.22,1.8,1.8,0,0,1-.73-.15,1.78,1.78,0,0,1-.6-.41,1.81,1.81,0,0,1-.39-.62,2.06,2.06,0,0,1-.15-.79,2,2,0,0,1,.15-.78,1.88,1.88,0,0,1,.4-.63,1.81,1.81,0,0,1,.62-.41,2.07,2.07,0,0,1,.8-.15,1.72,1.72,0,0,1,.75.17,1.78,1.78,0,0,1,.59.47h0v-2.84h.62v6h-.62Zm0-1.21a1.63,1.63,0,0,0-.09-.55,1.34,1.34,0,0,0-.27-.44,1.37,1.37,0,0,0-.42-.29,1.35,1.35,0,0,0-.55-.11,1.42,1.42,0,0,0-.55.11,1.22,1.22,0,0,0-.41.29,1.34,1.34,0,0,0-.27.44,1.56,1.56,0,0,0,0,1.1,1.25,1.25,0,0,0,.27.44,1.19,1.19,0,0,0,1,.4,1.35,1.35,0,0,0,.55-.1,1.6,1.6,0,0,0,.42-.3,1.25,1.25,0,0,0,.27-.44A1.63,1.63,0,0,0,136.21,252.35Z"/><path d="M140.1,254.57l-.5-.2,2.4-6.15.51.2Z"/><path d="M147.64,254.22H147v-4.8h0l-1,.86-.4-.49,1.52-1.23h.59Z"/><path d="M149.46,251.39a7.07,7.07,0,0,1,.08-1,3.19,3.19,0,0,1,.29-.95,2,2,0,0,1,.59-.7,1.61,1.61,0,0,1,1-.28,1.55,1.55,0,0,1,1,.28,1.91,1.91,0,0,1,.59.7,2.94,2.94,0,0,1,.3.95,6.29,6.29,0,0,1,0,2,2.94,2.94,0,0,1-.3,1,1.91,1.91,0,0,1-.59.7,1.49,1.49,0,0,1-1,.28,1.54,1.54,0,0,1-1-.28,2,2,0,0,1-.59-.7,3.19,3.19,0,0,1-.29-1A7.07,7.07,0,0,1,149.46,251.39Zm.67,0c0,.14,0,.29,0,.47a4.43,4.43,0,0,0,.06.51,4.7,4.7,0,0,0,.12.51,2,2,0,0,0,.23.44,1.12,1.12,0,0,0,.34.31,1.1,1.1,0,0,0,1,0,1.12,1.12,0,0,0,.34-.31,1.65,1.65,0,0,0,.22-.44,3.18,3.18,0,0,0,.13-.51,4.43,4.43,0,0,0,.06-.51c0-.18,0-.33,0-.47s0-.29,0-.46a4.6,4.6,0,0,0-.06-.52,3.18,3.18,0,0,0-.13-.51,1.65,1.65,0,0,0-.22-.44,1.08,1.08,0,0,0-.34-.3,1,1,0,0,0-1,0,1.08,1.08,0,0,0-.34.3,2,2,0,0,0-.23.44,4.7,4.7,0,0,0-.12.51,4.6,4.6,0,0,0-.06.52C150.14,251.1,150.13,251.25,150.13,251.39Z"/><path d="M153.91,251.39a5.85,5.85,0,0,1,.08-1,3.19,3.19,0,0,1,.29-.95,2,2,0,0,1,.59-.7,1.61,1.61,0,0,1,1-.28,1.55,1.55,0,0,1,.95.28,1.91,1.91,0,0,1,.59.7,3.2,3.2,0,0,1,.3.95,6.29,6.29,0,0,1,0,2,3.2,3.2,0,0,1-.3,1,1.91,1.91,0,0,1-.59.7,1.49,1.49,0,0,1-.95.28,1.54,1.54,0,0,1-1-.28,2,2,0,0,1-.59-.7,3.19,3.19,0,0,1-.29-1A5.85,5.85,0,0,1,153.91,251.39Zm.67,0a4,4,0,0,0,0,.47,4.43,4.43,0,0,0,.06.51,3.14,3.14,0,0,0,.12.51,1.67,1.67,0,0,0,.23.44,1,1,0,0,0,.34.31.9.9,0,0,0,.48.11,1,1,0,0,0,.48-.11,1.24,1.24,0,0,0,.34-.31,1.65,1.65,0,0,0,.22-.44,3.18,3.18,0,0,0,.13-.51,4.43,4.43,0,0,0,.06-.51c0-.18,0-.33,0-.47s0-.29,0-.46a4.6,4.6,0,0,0-.06-.52,3.18,3.18,0,0,0-.13-.51,1.65,1.65,0,0,0-.22-.44,1.21,1.21,0,0,0-.34-.3,1,1,0,0,0-.48-.12.9.9,0,0,0-.48.12,1,1,0,0,0-.34.3,1.67,1.67,0,0,0-.23.44,3.14,3.14,0,0,0-.12.51,4.6,4.6,0,0,0-.06.52A3.78,3.78,0,0,0,154.58,251.39Z"/><path d="M158.31,251.39a5.85,5.85,0,0,1,.08-1,3.19,3.19,0,0,1,.29-.95,2,2,0,0,1,.59-.7,1.61,1.61,0,0,1,1-.28,1.55,1.55,0,0,1,1,.28,1.91,1.91,0,0,1,.59.7,3.2,3.2,0,0,1,.3.95,6.29,6.29,0,0,1,0,2,3.2,3.2,0,0,1-.3,1,1.91,1.91,0,0,1-.59.7,1.49,1.49,0,0,1-1,.28,1.54,1.54,0,0,1-1-.28,2,2,0,0,1-.59-.7,3.19,3.19,0,0,1-.29-1A5.85,5.85,0,0,1,158.31,251.39Zm.67,0c0,.14,0,.29,0,.47a4.43,4.43,0,0,0,.06.51,3.14,3.14,0,0,0,.12.51,1.67,1.67,0,0,0,.23.44,1,1,0,0,0,.34.31.9.9,0,0,0,.48.11,1,1,0,0,0,.48-.11,1.24,1.24,0,0,0,.34-.31,1.65,1.65,0,0,0,.22-.44,3.18,3.18,0,0,0,.13-.51,4.43,4.43,0,0,0,.06-.51c0-.18,0-.33,0-.47s0-.29,0-.46a4.6,4.6,0,0,0-.06-.52,3.18,3.18,0,0,0-.13-.51,1.65,1.65,0,0,0-.22-.44,1.21,1.21,0,0,0-.34-.3,1,1,0,0,0-.48-.12.9.9,0,0,0-.48.12,1,1,0,0,0-.34.3,1.67,1.67,0,0,0-.23.44,3.14,3.14,0,0,0-.12.51,4.6,4.6,0,0,0-.06.52C159,251.1,159,251.25,159,251.39Z"/><path d="M165.32,248.18H166v6h-.63Z"/><path d="M167.19,251.37c0-.17,0-.33,0-.48s0-.29,0-.41h.59c0,.1,0,.2,0,.3v.32h0a.91.91,0,0,1,.18-.27,1.64,1.64,0,0,1,.28-.23,1.5,1.5,0,0,1,.36-.16,1.44,1.44,0,0,1,.43-.06,1.52,1.52,0,0,1,.51.08,1.36,1.36,0,0,1,.34.18.93.93,0,0,1,.21.24,1.64,1.64,0,0,1,.12.22,1.78,1.78,0,0,1,.48-.53,1.27,1.27,0,0,1,.71-.19,1.88,1.88,0,0,1,.67.11,1.1,1.1,0,0,1,.44.31,1.37,1.37,0,0,1,.24.5,2.59,2.59,0,0,1,.07.65v2.27h-.62V252a2.33,2.33,0,0,0,0-.37,1,1,0,0,0-.15-.33.71.71,0,0,0-.28-.23,1,1,0,0,0-.45-.09,1,1,0,0,0-.37.08,1,1,0,0,0-.31.22,1.13,1.13,0,0,0-.21.35,1.33,1.33,0,0,0-.07.45v2.16h-.63V252.1a1.62,1.62,0,0,0-.17-.88A.6.6,0,0,0,169,251a1.18,1.18,0,0,0-.52.1.88.88,0,0,0-.36.3,1.14,1.14,0,0,0-.21.46,2.1,2.1,0,0,0-.07.58v1.82h-.62Z"/><line class="cls-1" x1="38.21" y1="253" x2="46.2" y2="253"/><path d="M235.17,251a1.66,1.66,0,0,0-.63-.52,1.93,1.93,0,0,0-.79-.17,2.13,2.13,0,0,0-.87.19,2.16,2.16,0,0,0-.68.52,2.58,2.58,0,0,0-.45.75,2.69,2.69,0,0,0-.16.89,2.79,2.79,0,0,0,.16.93,2.41,2.41,0,0,0,.45.74,2,2,0,0,0,.68.5,1.92,1.92,0,0,0,.87.19,2,2,0,0,0,1.64-.8l.51.43a2.38,2.38,0,0,1-.93.75,3,3,0,0,1-1.22.24,2.85,2.85,0,0,1-1.13-.22,2.82,2.82,0,0,1-.92-.62,3,3,0,0,1-.61-.94,3.33,3.33,0,0,1-.22-1.2,3.19,3.19,0,0,1,.21-1.16,2.9,2.9,0,0,1,.6-1,3.08,3.08,0,0,1,.91-.63,3,3,0,0,1,2.27,0,2,2,0,0,1,.89.68Z"/><path d="M239,253.1l0,0a1.35,1.35,0,0,1-.37.13,2.87,2.87,0,0,1-.39,0,1.68,1.68,0,0,1-.68-.13,1.5,1.5,0,0,1-.55-.36,1.92,1.92,0,0,1-.36-.56,2.11,2.11,0,0,1-.12-.73,1.75,1.75,0,0,1,.14-.74,1.63,1.63,0,0,1,.4-.56,1.79,1.79,0,0,1,.6-.35,2.36,2.36,0,0,1,.75-.12,2.27,2.27,0,0,1,.75.12,1.94,1.94,0,0,1,.61.35,1.49,1.49,0,0,1,.39.56,1.75,1.75,0,0,1,.15.74,2.19,2.19,0,0,1,0,.46c0,.14-.07.27-.11.4a2.53,2.53,0,0,1-.18.37,3.35,3.35,0,0,1-.21.36l-1.5,2.4h-.79Zm-.6-.43a1.51,1.51,0,0,0,.48-.08,1.28,1.28,0,0,0,.39-.24,1.12,1.12,0,0,0,.26-.38,1.27,1.27,0,0,0,.1-.5,1.26,1.26,0,0,0-.1-.49,1,1,0,0,0-.26-.38,1,1,0,0,0-.39-.24,1.33,1.33,0,0,0-1,0,.88.88,0,0,0-.38.24,1.19,1.19,0,0,0-.27.38,1.26,1.26,0,0,0-.09.49,1.28,1.28,0,0,0,.09.5,1.31,1.31,0,0,0,.27.38,1.12,1.12,0,0,0,.38.24A1.51,1.51,0,0,0,238.35,252.67Z"/><path d="M240.88,252.62a7.07,7.07,0,0,1,.08-1,2.88,2.88,0,0,1,.3-.94,2,2,0,0,1,.58-.71,1.84,1.84,0,0,1,1.92,0,2,2,0,0,1,.58.71,2.88,2.88,0,0,1,.3.94,7.07,7.07,0,0,1,.08,1,7,7,0,0,1-.08,1,2.86,2.86,0,0,1-.3.95,2,2,0,0,1-.58.71,1.84,1.84,0,0,1-1.92,0,2,2,0,0,1-.58-.71,2.86,2.86,0,0,1-.3-.95A7,7,0,0,1,240.88,252.62Zm.67,0c0,.14,0,.3,0,.47a4.43,4.43,0,0,0,.06.51,2.72,2.72,0,0,0,.13.51,1.51,1.51,0,0,0,.22.44,1.12,1.12,0,0,0,.34.31,1,1,0,0,0,1,0,1.12,1.12,0,0,0,.34-.31,1.51,1.51,0,0,0,.22-.44,2.72,2.72,0,0,0,.13-.51,4.43,4.43,0,0,0,.06-.51c0-.17,0-.33,0-.47s0-.29,0-.46a4.88,4.88,0,0,0-.06-.52,2.83,2.83,0,0,0-.13-.5,1.4,1.4,0,0,0-.22-.44,1.12,1.12,0,0,0-.34-.31,1,1,0,0,0-1,0,1.12,1.12,0,0,0-.34.31,1.4,1.4,0,0,0-.22.44,2.83,2.83,0,0,0-.13.5,4.88,4.88,0,0,0-.06.52C241.56,252.33,241.55,252.49,241.55,252.62Z"/><path d="M247.78,255.8l-.51-.2,2.41-6.14.5.19Z"/><path d="M257.1,251a1.66,1.66,0,0,0-.63-.52,1.92,1.92,0,0,0-.78-.17,2.06,2.06,0,0,0-.87.19,2.16,2.16,0,0,0-.68.52,2.21,2.21,0,0,0-.45.75,2.46,2.46,0,0,0-.16.89,2.56,2.56,0,0,0,.16.93,2.2,2.2,0,0,0,.44.74,2.1,2.1,0,0,0,.68.5,2,2,0,0,0,.88.19,2,2,0,0,0,.93-.21,2,2,0,0,0,.71-.59l.5.43a2.29,2.29,0,0,1-.92.75,3,3,0,0,1-1.22.24,2.8,2.8,0,0,1-2.05-.84,2.82,2.82,0,0,1-.61-.94,3.13,3.13,0,0,1-.22-1.2,3.19,3.19,0,0,1,.21-1.16,2.75,2.75,0,0,1,.6-1,3,3,0,0,1,.91-.63,2.93,2.93,0,0,1,1.16-.23,3,3,0,0,1,1.11.21,2,2,0,0,1,.89.68Z"/><path d="M258.46,254.69l2.14-2.08.35-.36a1.75,1.75,0,0,0,.25-.32,1,1,0,0,0,.15-.32,1.46,1.46,0,0,0,0-.38,1,1,0,0,0-.08-.4.93.93,0,0,0-.22-.3,1.13,1.13,0,0,0-.73-.26,1,1,0,0,0-.71.25,1.11,1.11,0,0,0-.36.66l-.73-.07a1.91,1.91,0,0,1,.21-.61,1.28,1.28,0,0,1,.39-.44,1.77,1.77,0,0,1,.53-.27,2.25,2.25,0,0,1,.64-.09,2.09,2.09,0,0,1,.67.1,1.53,1.53,0,0,1,.55.29,1.47,1.47,0,0,1,.37.48,1.39,1.39,0,0,1,.14.66,1.91,1.91,0,0,1-.09.61,1.8,1.8,0,0,1-.25.5,2.86,2.86,0,0,1-.35.43l-.41.41-1.75,1.64h2.89v.63h-3.65Z"/><path d="M266.35,250.42l-2.26,5h-.76l2.3-5H262.9v-.63h3.45Z"/><path d="M267.26,252.62a7.07,7.07,0,0,1,.08-1,3.45,3.45,0,0,1,.3-.94,2,2,0,0,1,.59-.71,1.82,1.82,0,0,1,1.91,0,2,2,0,0,1,.59.71,3.45,3.45,0,0,1,.3.94,7,7,0,0,1,.07,1,6.92,6.92,0,0,1-.07,1,3.41,3.41,0,0,1-.3.95,2,2,0,0,1-.59.71,1.82,1.82,0,0,1-1.91,0,2,2,0,0,1-.59-.71,3.41,3.41,0,0,1-.3-.95A7,7,0,0,1,267.26,252.62Zm.68,0c0,.14,0,.3,0,.47a4.43,4.43,0,0,0,.06.51,2.72,2.72,0,0,0,.13.51,1.53,1.53,0,0,0,.23.44,1,1,0,0,0,.34.31.89.89,0,0,0,.47.12,1,1,0,0,0,.49-.12,1.08,1.08,0,0,0,.33-.31,1.53,1.53,0,0,0,.23-.44,2.72,2.72,0,0,0,.13-.51,4.43,4.43,0,0,0,.06-.51c0-.17,0-.33,0-.47s0-.29,0-.46a4.88,4.88,0,0,0-.06-.52,2.83,2.83,0,0,0-.13-.5,1.41,1.41,0,0,0-.23-.44,1.08,1.08,0,0,0-.33-.31,1,1,0,0,0-.49-.12.89.89,0,0,0-.47.12,1,1,0,0,0-.34.31,1.41,1.41,0,0,0-.23.44,2.83,2.83,0,0,0-.13.5,4.88,4.88,0,0,0-.06.52C267.94,252.33,267.94,252.49,267.94,252.62Z"/><path d="M52.87,251a1.55,1.55,0,0,0-.63-.51,1.82,1.82,0,0,0-.79-.18,2,2,0,0,0-.87.2,2.13,2.13,0,0,0-.68.51,2.58,2.58,0,0,0-.45.75,2.67,2.67,0,0,0,0,1.82,2.29,2.29,0,0,0,.45.74,1.88,1.88,0,0,0,.68.5,1.92,1.92,0,0,0,.87.19,2,2,0,0,0,.93-.21,2.07,2.07,0,0,0,.71-.58l.51.42a2.38,2.38,0,0,1-.93.75,3,3,0,0,1-1.22.24,2.85,2.85,0,0,1-1.13-.22,2.82,2.82,0,0,1-.92-.62,3,3,0,0,1-.61-.94,3.27,3.27,0,0,1-.22-1.19,3.2,3.2,0,0,1,.21-1.17,3,3,0,0,1,.6-.95,3.08,3.08,0,0,1,.91-.63,3,3,0,0,1,2.27,0,2,2,0,0,1,.89.68Z"/><path d="M54.13,252.62a7,7,0,0,1,.08-1,3.11,3.11,0,0,1,.3-1,1.94,1.94,0,0,1,.59-.71,1.55,1.55,0,0,1,.95-.27,1.6,1.6,0,0,1,1,.27,2,2,0,0,1,.59.71,3.1,3.1,0,0,1,.29,1,5.77,5.77,0,0,1,.08,1,5.85,5.85,0,0,1-.08,1,3.13,3.13,0,0,1-.29.94,2,2,0,0,1-.59.71,1.6,1.6,0,0,1-1,.27,1.55,1.55,0,0,1-.95-.27,1.94,1.94,0,0,1-.59-.71,3.14,3.14,0,0,1-.3-.94A7.07,7.07,0,0,1,54.13,252.62Zm.67,0c0,.13,0,.29,0,.46a4.88,4.88,0,0,0,.06.52,2.83,2.83,0,0,0,.13.5,1.4,1.4,0,0,0,.22.44,1.1,1.1,0,0,0,.34.31,1,1,0,0,0,.48.12.9.9,0,0,0,.48-.12.92.92,0,0,0,.34-.31,1.41,1.41,0,0,0,.23-.44,2.8,2.8,0,0,0,.12-.5,4.88,4.88,0,0,0,.06-.52,3.86,3.86,0,0,0,0-.46,3.94,3.94,0,0,0,0-.47,4.43,4.43,0,0,0-.06-.51,2.71,2.71,0,0,0-.12-.51,1.53,1.53,0,0,0-.23-.44,1,1,0,0,0-.34-.31.9.9,0,0,0-.48-.12,1,1,0,0,0-.48.12,1.24,1.24,0,0,0-.34.31,1.51,1.51,0,0,0-.22.44,2.72,2.72,0,0,0-.13.51,4.43,4.43,0,0,0-.06.51C54.81,252.32,54.8,252.48,54.8,252.62Z"/><path d="M61,255.79l-.51-.2,2.41-6.14.51.19Z"/><path d="M70.36,251a1.52,1.52,0,0,0-.64-.51,1.78,1.78,0,0,0-.78-.18,2,2,0,0,0-.87.2,2.13,2.13,0,0,0-.68.51,2.58,2.58,0,0,0-.45.75,2.51,2.51,0,0,0-.16.9,2.54,2.54,0,0,0,.16.92,2.46,2.46,0,0,0,.44.74,2.09,2.09,0,0,0,1.56.69,2,2,0,0,0,.93-.21,2.07,2.07,0,0,0,.71-.58l.5.42a2.29,2.29,0,0,1-.92.75,3,3,0,0,1-1.22.24,2.93,2.93,0,0,1-1.14-.22,2.88,2.88,0,0,1-.91-.62,3,3,0,0,1-.61-.94,3.07,3.07,0,0,1-.22-1.19,3.2,3.2,0,0,1,.21-1.17,2.84,2.84,0,0,1,.6-.95,3,3,0,0,1,.91-.63,2.93,2.93,0,0,1,1.16-.23,3,3,0,0,1,1.11.21,2,2,0,0,1,.89.68Z"/><path d="M74.2,255.45h-.68v-4.8h0l-1,.85-.4-.48,1.52-1.24h.59Z"/><path d="M76.37,251.17a1.33,1.33,0,0,1,.13-.61,1.2,1.2,0,0,1,.34-.46,1.44,1.44,0,0,1,.51-.3,1.92,1.92,0,0,1,1.28,0,1.44,1.44,0,0,1,.51.3,1.32,1.32,0,0,1,.34.46,1.48,1.48,0,0,1,.12.61,1.44,1.44,0,0,1-.06.4,1.41,1.41,0,0,1-.18.37,1.18,1.18,0,0,1-.3.29,1,1,0,0,1-.38.19h0a1.44,1.44,0,0,1,.46.19,1.35,1.35,0,0,1,.35.32,1.67,1.67,0,0,1,.23.44,1.7,1.7,0,0,1,.08.51,1.74,1.74,0,0,1-.14.69,1.46,1.46,0,0,1-.39.52,1.47,1.47,0,0,1-.57.33,2.35,2.35,0,0,1-1.42,0,1.59,1.59,0,0,1-.58-.33,1.43,1.43,0,0,1-.38-.52,1.74,1.74,0,0,1-.14-.69,1.7,1.7,0,0,1,.08-.51,1.65,1.65,0,0,1,.22-.44,1.59,1.59,0,0,1,.36-.32,1.44,1.44,0,0,1,.46-.19h0a1.18,1.18,0,0,1-.39-.19,1.33,1.33,0,0,1-.29-.29,1.41,1.41,0,0,1-.18-.37A1.16,1.16,0,0,1,76.37,251.17Zm.48,2.67a1.14,1.14,0,0,0,.09.46,1.21,1.21,0,0,0,.24.35,1.16,1.16,0,0,0,.36.23A1.13,1.13,0,0,0,78,255a1,1,0,0,0,.44-.09,1,1,0,0,0,.36-.23,1.07,1.07,0,0,0,.25-.35,1.36,1.36,0,0,0,0-.92,1.07,1.07,0,0,0-.25-.35,1,1,0,0,0-.36-.23,1,1,0,0,0-.44-.09,1.13,1.13,0,0,0-.45.09,1.16,1.16,0,0,0-.36.23,1.21,1.21,0,0,0-.24.35A1.14,1.14,0,0,0,76.85,253.84ZM77,251.2a.92.92,0,0,0,.26.67.93.93,0,0,0,.69.27.9.9,0,0,0,.68-.27,1,1,0,0,0,0-1.34.9.9,0,0,0-.68-.27.93.93,0,0,0-.69.27A.92.92,0,0,0,77,251.2Z"/><path d="M80.52,252.62a5.77,5.77,0,0,1,.08-1,3.1,3.1,0,0,1,.29-1,2,2,0,0,1,.59-.71,1.6,1.6,0,0,1,1-.27,1.55,1.55,0,0,1,1,.27,1.94,1.94,0,0,1,.59.71,3.41,3.41,0,0,1,.3,1,7,7,0,0,1,.08,1,7.07,7.07,0,0,1-.08,1,3.45,3.45,0,0,1-.3.94,1.94,1.94,0,0,1-.59.71,1.55,1.55,0,0,1-1,.27,1.6,1.6,0,0,1-1-.27,2,2,0,0,1-.59-.71,3.13,3.13,0,0,1-.29-.94A5.85,5.85,0,0,1,80.52,252.62Zm.67,0a3.86,3.86,0,0,0,0,.46c0,.17,0,.34.05.52a4.07,4.07,0,0,0,.13.5,1.41,1.41,0,0,0,.23.44.92.92,0,0,0,.34.31.9.9,0,0,0,.48.12,1,1,0,0,0,.48-.12,1.1,1.1,0,0,0,.34-.31,1.65,1.65,0,0,0,.22-.44,2.83,2.83,0,0,0,.13-.5,4.88,4.88,0,0,0,.06-.52c0-.17,0-.33,0-.46s0-.3,0-.47a4.43,4.43,0,0,0-.06-.51,2.72,2.72,0,0,0-.13-.51,1.81,1.81,0,0,0-.22-.44,1.24,1.24,0,0,0-.34-.31,1,1,0,0,0-.48-.12.9.9,0,0,0-.48.12,1,1,0,0,0-.34.31,1.53,1.53,0,0,0-.23.44,3.8,3.8,0,0,0-.13.51c0,.17,0,.34-.05.51A3.94,3.94,0,0,0,81.19,252.62Z"/><line class="cls-2" x1="214.49" y1="253.42" x2="215.03" y2="253.42"/><line class="cls-2" x1="217.76" y1="253.42" x2="218.3" y2="253.42"/><line class="cls-2" x1="221.02" y1="253.42" x2="221.56" y2="253.42"/><line class="cls-2" x1="224.29" y1="253.42" x2="224.83" y2="253.42"/><line class="cls-2" x1="227.55" y1="253.42" x2="228.09" y2="253.42"/></g><g id="_2097-30" data-name="2097-30"><path d="M58.65,13.09h.79l3,7.08h-1l-.72-1.74H57.21l-.73,1.74h-.95ZM59,14.17h0l-1.47,3.48h2.89Z"/><path d="M65.89,20.17h-.84v-6h0l-1.27,1.07-.5-.61,1.9-1.54h.73Z"/><path d="M72,17.77h1v.78H72v1.62H71.2V18.55h-3v-.93L71,13.09h1Zm-.84-3.7h0l-2.26,3.7H71.2Z"/><path d="M73.79,16.63a7.88,7.88,0,0,1,.1-1.25,3.71,3.71,0,0,1,.37-1.18,2.41,2.41,0,0,1,.73-.88,2.22,2.22,0,0,1,2.39,0,2.44,2.44,0,0,1,.74.88,4,4,0,0,1,.37,1.18,9.26,9.26,0,0,1,.1,1.25,9.14,9.14,0,0,1-.1,1.25,4,4,0,0,1-.37,1.19,2.53,2.53,0,0,1-.74.88A2.27,2.27,0,0,1,75,20a2.5,2.5,0,0,1-.73-.88,3.77,3.77,0,0,1-.37-1.19A7.79,7.79,0,0,1,73.79,16.63Zm.84,0c0,.18,0,.37,0,.58s0,.43.07.65a4.47,4.47,0,0,0,.16.63,2.19,2.19,0,0,0,.28.55,1.45,1.45,0,0,0,.43.39,1.21,1.21,0,0,0,.6.14,1.27,1.27,0,0,0,.6-.14,1.42,1.42,0,0,0,.42-.39,1.9,1.9,0,0,0,.28-.55,3.42,3.42,0,0,0,.16-.63c0-.22.06-.43.08-.65s0-.4,0-.58,0-.36,0-.58,0-.43-.08-.64a3.53,3.53,0,0,0-.16-.64,2,2,0,0,0-.28-.55,1.27,1.27,0,0,0-.42-.38,1.16,1.16,0,0,0-.6-.15,1.11,1.11,0,0,0-.6.15,1.3,1.3,0,0,0-.43.38,2.37,2.37,0,0,0-.28.55,4.61,4.61,0,0,0-.16.64c0,.21-.06.43-.07.64S74.63,16.46,74.63,16.63Z"/><path d="M79.35,16.63a7.88,7.88,0,0,1,.1-1.25,3.71,3.71,0,0,1,.37-1.18,2.41,2.41,0,0,1,.73-.88,2.22,2.22,0,0,1,2.39,0,2.44,2.44,0,0,1,.74.88,4,4,0,0,1,.37,1.18,9.26,9.26,0,0,1,.1,1.25,9.14,9.14,0,0,1-.1,1.25,4,4,0,0,1-.37,1.19,2.53,2.53,0,0,1-.74.88,2.27,2.27,0,0,1-2.39,0,2.5,2.5,0,0,1-.73-.88,3.77,3.77,0,0,1-.37-1.19A7.79,7.79,0,0,1,79.35,16.63Zm.84,0c0,.18,0,.37,0,.58s0,.43.07.65a4.47,4.47,0,0,0,.16.63,2.19,2.19,0,0,0,.28.55,1.45,1.45,0,0,0,.43.39,1.21,1.21,0,0,0,.6.14,1.27,1.27,0,0,0,.6-.14,1.42,1.42,0,0,0,.42-.39,1.9,1.9,0,0,0,.28-.55,3.42,3.42,0,0,0,.16-.63c0-.22.06-.43.08-.65s0-.4,0-.58,0-.36,0-.58,0-.43-.08-.64a3.53,3.53,0,0,0-.16-.64,2,2,0,0,0-.28-.55,1.27,1.27,0,0,0-.42-.38,1.16,1.16,0,0,0-.6-.15,1.11,1.11,0,0,0-.6.15,1.3,1.3,0,0,0-.43.38,2.37,2.37,0,0,0-.28.55,4.61,4.61,0,0,0-.16.64c0,.21-.06.43-.07.64S80.19,16.46,80.19,16.63Z"/><path d="M84.91,16.63a7.88,7.88,0,0,1,.1-1.25,3.71,3.71,0,0,1,.37-1.18,2.41,2.41,0,0,1,.73-.88,2.22,2.22,0,0,1,2.39,0,2.44,2.44,0,0,1,.74.88,4,4,0,0,1,.37,1.18,9.26,9.26,0,0,1,.1,1.25,9.14,9.14,0,0,1-.1,1.25,4,4,0,0,1-.37,1.19,2.53,2.53,0,0,1-.74.88,2.27,2.27,0,0,1-2.39,0,2.5,2.5,0,0,1-.73-.88A3.77,3.77,0,0,1,85,17.88,7.79,7.79,0,0,1,84.91,16.63Zm.84,0c0,.18,0,.37,0,.58s0,.43.07.65a4.47,4.47,0,0,0,.16.63,2.19,2.19,0,0,0,.28.55,1.45,1.45,0,0,0,.43.39,1.24,1.24,0,0,0,.6.14,1.27,1.27,0,0,0,.6-.14,1.42,1.42,0,0,0,.42-.39,1.9,1.9,0,0,0,.28-.55,3.42,3.42,0,0,0,.16-.63c0-.22.06-.43.08-.65s0-.4,0-.58,0-.36,0-.58,0-.43-.08-.64a3.53,3.53,0,0,0-.16-.64,2,2,0,0,0-.28-.55,1.27,1.27,0,0,0-.42-.38,1.16,1.16,0,0,0-.6-.15,1.14,1.14,0,0,0-.6.15,1.3,1.3,0,0,0-.43.38,2.37,2.37,0,0,0-.28.55,4.61,4.61,0,0,0-.16.64c0,.21-.06.43-.07.64S85.75,16.46,85.75,16.63Z"/><path d="M90.09,20.92h5v.5h-5Z"/><path d="M97.13,16.09h.26a3.44,3.44,0,0,0,.54,0,1.28,1.28,0,0,0,.52-.17,1,1,0,0,0,.39-.37,1.16,1.16,0,0,0,.16-.65,1.09,1.09,0,0,0-.34-.85,1.21,1.21,0,0,0-.87-.32,1.51,1.51,0,0,0-.78.2,1.36,1.36,0,0,0-.52.59l-.81-.31a1.78,1.78,0,0,1,.81-.9,2.56,2.56,0,0,1,1.24-.3,2.63,2.63,0,0,1,.8.12,2.08,2.08,0,0,1,.68.35,1.74,1.74,0,0,1,.46.58,1.85,1.85,0,0,1,.17.8,1.6,1.6,0,0,1-.34,1,1.69,1.69,0,0,1-.87.61v0a1.86,1.86,0,0,1,.6.22,1.77,1.77,0,0,1,.46.4,1.8,1.8,0,0,1,.29.53,2.19,2.19,0,0,1,.1.63,2,2,0,0,1-1.45,1.92,2.9,2.9,0,0,1-.89.13,2.68,2.68,0,0,1-1.41-.35,2,2,0,0,1-.87-1.14l.85-.28a1.3,1.3,0,0,0,1.43,1.05,1.5,1.5,0,0,0,.56-.1,1.31,1.31,0,0,0,.45-.28,1.35,1.35,0,0,0,.31-.44,1.32,1.32,0,0,0,.12-.57,1.18,1.18,0,0,0-.16-.65,1.1,1.1,0,0,0-.41-.42,1.8,1.8,0,0,0-.57-.23,3.59,3.59,0,0,0-.65-.07h-.26Z"/><path d="M101,16.63a7.88,7.88,0,0,1,.1-1.25,3.71,3.71,0,0,1,.37-1.18,2.41,2.41,0,0,1,.73-.88,2,2,0,0,1,1.2-.35,1.93,1.93,0,0,1,1.19.35,2.44,2.44,0,0,1,.74.88,4,4,0,0,1,.37,1.18,9.26,9.26,0,0,1,.1,1.25,9.14,9.14,0,0,1-.1,1.25,4,4,0,0,1-.37,1.19,2.53,2.53,0,0,1-.74.88,1.93,1.93,0,0,1-1.19.34,2,2,0,0,1-1.2-.34,2.5,2.5,0,0,1-.73-.88,3.77,3.77,0,0,1-.37-1.19A7.79,7.79,0,0,1,101,16.63Zm.84,0c0,.18,0,.37,0,.58s0,.43.07.65a4.47,4.47,0,0,0,.16.63,2.19,2.19,0,0,0,.28.55,1.45,1.45,0,0,0,.43.39,1.24,1.24,0,0,0,.6.14,1.27,1.27,0,0,0,.6-.14,1.42,1.42,0,0,0,.42-.39,1.9,1.9,0,0,0,.28-.55,3.42,3.42,0,0,0,.16-.63,4.81,4.81,0,0,0,.08-.65c0-.21,0-.4,0-.58s0-.36,0-.58a4.66,4.66,0,0,0-.08-.64,3.53,3.53,0,0,0-.16-.64,2,2,0,0,0-.28-.55,1.27,1.27,0,0,0-.42-.38,1.16,1.16,0,0,0-.6-.15,1.14,1.14,0,0,0-.6.15,1.3,1.3,0,0,0-.43.38,2.37,2.37,0,0,0-.28.55,4.61,4.61,0,0,0-.16.64c0,.21-.06.43-.07.64S101.87,16.46,101.87,16.63Z"/><path d="M108.76,16.44l-2.38-3.35h1.08l1.91,2.77,1.89-2.77h1l-2.38,3.35,2.61,3.73h-1.11L109.33,17l-2.11,3.14h-1Z"/><path d="M116.05,20.17h-.84v-6h0l-1.27,1.07-.5-.61,1.9-1.54h.73Z"/><path d="M122.75,13.87h-2.89l0,1.91a1.5,1.5,0,0,1,.44-.13,2.63,2.63,0,0,1,.47,0,2.25,2.25,0,0,1,.92.18,2,2,0,0,1,.72.49,2.15,2.15,0,0,1,.46.74,2.51,2.51,0,0,1,.16.92,2.33,2.33,0,0,1-.19,1,2.13,2.13,0,0,1-.51.74,2.21,2.21,0,0,1-.77.47,2.49,2.49,0,0,1-1,.17,2.18,2.18,0,0,1-1.31-.35,2.34,2.34,0,0,1-.78-.94l.84-.32a1.58,1.58,0,0,0,.52.65,1.37,1.37,0,0,0,.8.24,1.63,1.63,0,0,0,.59-.11,1.37,1.37,0,0,0,.48-.33,1.65,1.65,0,0,0,.33-.52,1.78,1.78,0,0,0,.12-.67,1.67,1.67,0,0,0-.14-.69,1.34,1.34,0,0,0-.37-.5,1.49,1.49,0,0,0-.55-.31,2.19,2.19,0,0,0-1.43,0,3.71,3.71,0,0,0-.7.31l.07-3.68h3.71Z"/><path d="M123.63,13.09h.93L126.17,19h0l1.74-5.88h.94L130.6,19h0l1.64-5.88h.88l-2.08,7.08h-.91l-1.75-6h0l-1.76,6h-.92Z"/><path d="M136.85,13.09h.84v3h3.78v-3h.84v7.08h-.84v-3.3h-3.78v3.3h-.84Z"/><path d="M144.14,13.09H145v6.3h3.24v.78h-4.08Z"/><rect class="cls-3" x="55.47" y="41.66" width="189.86" height="189.86"/><circle class="cls-4" cx="150.4" cy="136.54" r="18.95"/><path d="M151.45,160.78l2.13-2.08.36-.36a3.14,3.14,0,0,0,.25-.32,1.87,1.87,0,0,0,.15-.32,1.53,1.53,0,0,0,0-.38.87.87,0,0,0-.08-.4.73.73,0,0,0-.22-.3.94.94,0,0,0-.32-.19,1.1,1.1,0,0,0-.41-.07,1,1,0,0,0-.71.25,1.08,1.08,0,0,0-.36.65l-.73-.06a1.91,1.91,0,0,1,.21-.61,1.58,1.58,0,0,1,.4-.45,2,2,0,0,1,.53-.27,2.15,2.15,0,0,1,.64-.09,2.39,2.39,0,0,1,.66.1,1.92,1.92,0,0,1,.55.29,1.44,1.44,0,0,1,.38.49,1.53,1.53,0,0,1,.14.66,1.7,1.7,0,0,1-.1.61,2.1,2.1,0,0,1-.24.5,4.82,4.82,0,0,1-.36.43,5.18,5.18,0,0,1-.41.4l-1.74,1.64v0h2.89v.62h-3.65Z"/><path d="M155.75,158.71a7.07,7.07,0,0,1,.08-1,3.2,3.2,0,0,1,.3-1,1.91,1.91,0,0,1,.59-.7,1.49,1.49,0,0,1,.95-.28,1.54,1.54,0,0,1,1,.28,2,2,0,0,1,.59.7,3.19,3.19,0,0,1,.29,1,6.29,6.29,0,0,1,0,2,3.19,3.19,0,0,1-.29.95,2,2,0,0,1-.59.7,1.54,1.54,0,0,1-1,.28,1.49,1.49,0,0,1-.95-.28,1.91,1.91,0,0,1-.59-.7,3.2,3.2,0,0,1-.3-.95A7.07,7.07,0,0,1,155.75,158.71Zm.67,0c0,.14,0,.29,0,.46a4.35,4.35,0,0,0,.06.52,3.18,3.18,0,0,0,.13.51,1.65,1.65,0,0,0,.22.44,1.24,1.24,0,0,0,.34.31,1.06,1.06,0,0,0,.48.11,1,1,0,0,0,.48-.11,1,1,0,0,0,.34-.31,1.67,1.67,0,0,0,.23-.44,4.7,4.7,0,0,0,.12-.51,4.35,4.35,0,0,0,.06-.52,5.3,5.3,0,0,0,0-.92,4.6,4.6,0,0,0-.06-.52,4.7,4.7,0,0,0-.12-.51,1.67,1.67,0,0,0-.23-.44,1,1,0,0,0-.34-.3.9.9,0,0,0-.48-.12,1,1,0,0,0-.48.12,1.21,1.21,0,0,0-.34.3,1.65,1.65,0,0,0-.22.44,3.18,3.18,0,0,0-.13.51,4.6,4.6,0,0,0-.06.52C156.43,158.42,156.42,158.57,156.42,158.71Z"/><circle class="cls-4" cx="150.4" cy="136.54" r="37.91"/><path d="M154.4,178.58h.82v.62h-.82v1.3h-.67v-1.3h-2.4v-.74l2.25-3.63h.82Zm-.67-3h0l-1.81,3h1.83Z"/><path d="M155.75,177.67a7,7,0,0,1,.08-1,3.11,3.11,0,0,1,.3-.95,1.94,1.94,0,0,1,.59-.71,1.55,1.55,0,0,1,.95-.27,1.6,1.6,0,0,1,1,.27,2,2,0,0,1,.59.71,3.1,3.1,0,0,1,.29.95,5.77,5.77,0,0,1,.08,1,5.85,5.85,0,0,1-.08,1,3.13,3.13,0,0,1-.29.94,2,2,0,0,1-.59.71,1.6,1.6,0,0,1-1,.27,1.55,1.55,0,0,1-.95-.27,1.94,1.94,0,0,1-.59-.71,3.14,3.14,0,0,1-.3-.94A7.07,7.07,0,0,1,155.75,177.67Zm.67,0c0,.13,0,.29,0,.46a4.88,4.88,0,0,0,.06.52,2.83,2.83,0,0,0,.13.5,1.51,1.51,0,0,0,.22.44,1.24,1.24,0,0,0,.34.31,1,1,0,0,0,.48.12.9.9,0,0,0,.48-.12,1,1,0,0,0,.34-.31,1.53,1.53,0,0,0,.23-.44,4.05,4.05,0,0,0,.12-.5,4.88,4.88,0,0,0,.06-.52,3.86,3.86,0,0,0,0-.46,3.94,3.94,0,0,0,0-.47,4.43,4.43,0,0,0-.06-.51,3.81,3.81,0,0,0-.12-.51,1.53,1.53,0,0,0-.23-.44,1,1,0,0,0-.34-.31.9.9,0,0,0-.48-.12,1,1,0,0,0-.48.12,1.24,1.24,0,0,0-.34.31,1.51,1.51,0,0,0-.22.44,2.72,2.72,0,0,0-.13.51,4.43,4.43,0,0,0-.06.51C156.43,177.37,156.42,177.53,156.42,177.67Z"/><circle class="cls-4" cx="150.4" cy="136.54" r="56.92"/><path d="M152.68,196.2l0,0a1.24,1.24,0,0,1,.37-.13,1.84,1.84,0,0,1,.39,0,1.72,1.72,0,0,1,.68.13,1.42,1.42,0,0,1,.54.36,1.68,1.68,0,0,1,.36.57,2,2,0,0,1,.13.72,1.78,1.78,0,0,1-.15.74,1.48,1.48,0,0,1-.4.55,1.81,1.81,0,0,1-.6.36,2.27,2.27,0,0,1-.75.12,2.31,2.31,0,0,1-.75-.12,1.81,1.81,0,0,1-.6-.36,1.59,1.59,0,0,1-.4-.55,1.78,1.78,0,0,1-.14-.74,2.24,2.24,0,0,1,.15-.86,5.19,5.19,0,0,1,.38-.74l1.51-2.39h.78Zm.59.42a1.28,1.28,0,0,0-.48.09,1,1,0,0,0-.39.24,1.16,1.16,0,0,0-.26.38,1.31,1.31,0,0,0-.09.5,1.35,1.35,0,0,0,.09.5,1.23,1.23,0,0,0,.26.37,1.31,1.31,0,0,0,1.74,0,1.08,1.08,0,0,0,.26-.37,1.35,1.35,0,0,0,.1-.5,1.31,1.31,0,0,0-.1-.5,1,1,0,0,0-.26-.38,1,1,0,0,0-.39-.24A1.28,1.28,0,0,0,153.27,196.62Z"/><path d="M155.75,196.67a7.07,7.07,0,0,1,.08-1,3.14,3.14,0,0,1,.3-.94,1.94,1.94,0,0,1,.59-.71,1.55,1.55,0,0,1,.95-.27,1.6,1.6,0,0,1,1,.27,2,2,0,0,1,.59.71,3.13,3.13,0,0,1,.29.94,5.85,5.85,0,0,1,.08,1,5.77,5.77,0,0,1-.08,1,3.19,3.19,0,0,1-.29,1,2,2,0,0,1-.59.71,1.6,1.6,0,0,1-1,.27,1.55,1.55,0,0,1-.95-.27,1.94,1.94,0,0,1-.59-.71,3.2,3.2,0,0,1-.3-1A7,7,0,0,1,155.75,196.67Zm.67,0c0,.14,0,.3,0,.47a4.43,4.43,0,0,0,.06.51,2.72,2.72,0,0,0,.13.51,1.51,1.51,0,0,0,.22.44,1.24,1.24,0,0,0,.34.31,1,1,0,0,0,.48.11.9.9,0,0,0,.48-.11,1,1,0,0,0,.34-.31,1.53,1.53,0,0,0,.23-.44,3.81,3.81,0,0,0,.12-.51,4.43,4.43,0,0,0,.06-.51,3.94,3.94,0,0,0,0-.47,3.78,3.78,0,0,0,0-.46,4.88,4.88,0,0,0-.06-.52,4.05,4.05,0,0,0-.12-.5,1.41,1.41,0,0,0-.23-.44.92.92,0,0,0-.34-.31.9.9,0,0,0-.48-.12,1,1,0,0,0-.48.12,1.1,1.1,0,0,0-.34.31,1.4,1.4,0,0,0-.22.44,2.83,2.83,0,0,0-.13.5,4.88,4.88,0,0,0-.06.52C156.43,196.38,156.42,196.53,156.42,196.67Z"/><circle class="cls-4" cx="150.4" cy="136.54" r="75.92"/><path d="M151.66,214.23a1.54,1.54,0,0,1,.12-.61,1.41,1.41,0,0,1,.34-.46,1.44,1.44,0,0,1,.51-.3,1.92,1.92,0,0,1,1.28,0,1.44,1.44,0,0,1,.51.3,1.28,1.28,0,0,1,.34.46,1.39,1.39,0,0,1,.13.61,1.09,1.09,0,0,1-.07.4,1.16,1.16,0,0,1-.18.37,1.64,1.64,0,0,1-.29.3,1.38,1.38,0,0,1-.39.18v0a1.34,1.34,0,0,1,.46.18,1.42,1.42,0,0,1,.36.33,1.59,1.59,0,0,1,.22.43,1.81,1.81,0,0,1,.08.51,1.67,1.67,0,0,1-.14.69,1.56,1.56,0,0,1-.38.53,1.94,1.94,0,0,1-.58.33,2.35,2.35,0,0,1-.71.11,2.4,2.4,0,0,1-.71-.11,1.78,1.78,0,0,1-.57-.33,1.74,1.74,0,0,1-.39-.53,1.67,1.67,0,0,1-.14-.69,1.81,1.81,0,0,1,.08-.51,1.61,1.61,0,0,1,.23-.43,1.23,1.23,0,0,1,.35-.33,1.43,1.43,0,0,1,.46-.18v0a1.21,1.21,0,0,1-.38-.18,1.42,1.42,0,0,1-.3-.3,1.16,1.16,0,0,1-.18-.37A1.34,1.34,0,0,1,151.66,214.23Zm.48,2.67a1.34,1.34,0,0,0,.08.46,1,1,0,0,0,.25.36,1.11,1.11,0,0,0,.36.23,1.23,1.23,0,0,0,.44.08,1.33,1.33,0,0,0,.45-.08,1.38,1.38,0,0,0,.36-.23,1.17,1.17,0,0,0,0-1.63,1.38,1.38,0,0,0-.36-.23,1.12,1.12,0,0,0-.45-.08,1,1,0,0,0-.44.08,1.11,1.11,0,0,0-.36.23,1,1,0,0,0-.25.36A1.33,1.33,0,0,0,152.14,216.9Zm.19-2.64a.9.9,0,0,0,.26.68.93.93,0,0,0,.68.26,1,1,0,0,0,.69-.26,1,1,0,0,0,0-1.35,1,1,0,0,0-.69-.26.93.93,0,0,0-.68.26A.9.9,0,0,0,152.33,214.26Z"/><path d="M155.75,215.68a7.07,7.07,0,0,1,.08-1,3.2,3.2,0,0,1,.3-1,1.91,1.91,0,0,1,.59-.7,1.49,1.49,0,0,1,.95-.28,1.54,1.54,0,0,1,1,.28,2,2,0,0,1,.59.7,3.19,3.19,0,0,1,.29,1,6.29,6.29,0,0,1,0,2,3.19,3.19,0,0,1-.29.95,2,2,0,0,1-.59.7,1.54,1.54,0,0,1-1,.28,1.49,1.49,0,0,1-.95-.28,1.91,1.91,0,0,1-.59-.7,3.2,3.2,0,0,1-.3-.95A7.07,7.07,0,0,1,155.75,215.68Zm.67,0c0,.14,0,.29,0,.46a4.35,4.35,0,0,0,.06.52,3.18,3.18,0,0,0,.13.51,1.65,1.65,0,0,0,.22.44,1.24,1.24,0,0,0,.34.31,1.06,1.06,0,0,0,.48.11,1,1,0,0,0,.48-.11,1,1,0,0,0,.34-.31,1.67,1.67,0,0,0,.23-.44,4.7,4.7,0,0,0,.12-.51,4.35,4.35,0,0,0,.06-.52,5.3,5.3,0,0,0,0-.92,4.6,4.6,0,0,0-.06-.52,4.7,4.7,0,0,0-.12-.51,1.67,1.67,0,0,0-.23-.44,1,1,0,0,0-.34-.31,1,1,0,0,0-.48-.11,1.06,1.06,0,0,0-.48.11,1.24,1.24,0,0,0-.34.31,1.65,1.65,0,0,0-.22.44,3.18,3.18,0,0,0-.13.51,4.6,4.6,0,0,0-.06.52C156.43,215.39,156.42,215.54,156.42,215.68Z"/><circle class="cls-4" cx="150.4" cy="136.54" r="94.93"/><line class="cls-4" x1="55.47" y1="136.59" x2="245.39" y2="136.59"/><line class="cls-4" x1="150.4" y1="231.53" x2="150.4" y2="41.61"/><line class="cls-4" x1="95.64" y1="41.61" x2="205.21" y2="231.53"/><line class="cls-4" x1="95.64" y1="231.53" x2="205.21" y2="41.61"/><line class="cls-4" x1="55.47" y1="81.78" x2="245.39" y2="191.35"/><line class="cls-4" x1="55.47" y1="191.35" x2="245.39" y2="81.78"/><line class="cls-1" x1="150.4" y1="136.59" x2="150.4" y2="137.24"/><line class="cls-1" x1="150.4" y1="137.24" x2="150.51" y2="137.94"/><line class="cls-1" x1="150.51" y1="137.94" x2="150.62" y2="138.59"/><line class="cls-1" x1="150.62" y1="138.59" x2="150.72" y2="139.02"/><line class="cls-1" x1="150.72" y1="139.02" x2="150.99" y2="139.94"/><line class="cls-1" x1="150.99" y1="139.94" x2="151.37" y2="141.18"/><line class="cls-1" x1="151.37" y1="141.18" x2="151.91" y2="142.53"/><line class="cls-1" x1="151.91" y1="142.53" x2="152.78" y2="144.8"/><line class="cls-1" x1="152.78" y1="144.8" x2="154.18" y2="148.2"/><line class="cls-1" x1="154.18" y1="148.2" x2="155.69" y2="151.12"/><line class="cls-1" x1="155.69" y1="151.12" x2="157.42" y2="153.93"/><line class="cls-1" x1="157.42" y1="153.93" x2="159.26" y2="156.41"/><line class="cls-1" x1="159.26" y1="156.41" x2="161.52" y2="159.38"/><line class="cls-1" x1="161.52" y1="159.38" x2="164.44" y2="162.95"/><line class="cls-1" x1="164.44" y1="162.95" x2="167.25" y2="165.75"/><line class="cls-1" x1="167.25" y1="165.75" x2="170.11" y2="168.08"/><line class="cls-1" x1="170.11" y1="168.08" x2="172.86" y2="169.86"/><line class="cls-1" x1="172.86" y1="169.86" x2="175.89" y2="171.64"/><line class="cls-1" x1="175.89" y1="171.64" x2="178.8" y2="172.94"/><line class="cls-1" x1="178.8" y1="172.94" x2="182.31" y2="174.56"/><line class="cls-1" x1="182.31" y1="174.56" x2="186.26" y2="176.34"/><line class="cls-1" x1="186.26" y1="176.34" x2="190.9" y2="178.5"/><line class="cls-1" x1="190.9" y1="178.5" x2="195.11" y2="179.69"/><line class="cls-1" x1="195.11" y1="179.69" x2="199.59" y2="180.82"/><line class="cls-1" x1="199.59" y1="180.82" x2="202.94" y2="180.66"/><line class="cls-1" x1="202.94" y1="180.66" x2="205.43" y2="179.52"/><line class="cls-1" x1="205.43" y1="179.52" x2="206.61" y2="177.36"/><line class="cls-1" x1="206.61" y1="177.36" x2="207.86" y2="175.31"/><line class="cls-1" x1="207.86" y1="175.31" x2="207.64" y2="172.29"/><line class="cls-1" x1="207.64" y1="172.29" x2="209.15" y2="170.45"/><line class="cls-1" x1="209.15" y1="170.45" x2="211.74" y2="169.16"/><line class="cls-1" x1="211.74" y1="169.16" x2="216.5" y2="168.78"/><line class="cls-1" x1="216.5" y1="168.78" x2="218.98" y2="167.05"/><line class="cls-1" x1="218.98" y1="167.05" x2="220.01" y2="164.67"/><line class="cls-1" x1="220.01" y1="164.67" x2="221.41" y2="162.41"/><line class="cls-1" x1="221.41" y1="162.41" x2="222.81" y2="160.08"/><line class="cls-1" x1="222.81" y1="160.08" x2="224.49" y2="157.82"/><line class="cls-1" x1="224.49" y1="157.82" x2="225.08" y2="155.17"/><line class="cls-1" x1="225.08" y1="155.17" x2="223.57" y2="152.09"/><line class="cls-1" x1="223.57" y1="152.09" x2="224.33" y2="149.55"/><line class="cls-1" x1="224.33" y1="149.55" x2="226.32" y2="147.23"/><line class="cls-1" x1="226.32" y1="147.23" x2="230.86" y2="145.02"/><line class="cls-1" x1="230.86" y1="145.02" x2="232.59" y2="142.26"/><line class="cls-1" x1="232.59" y1="142.26" x2="232.86" y2="139.4"/><line class="cls-1" x1="232.86" y1="139.4" x2="232.91" y2="136.59"/><line class="cls-1" x1="232.91" y1="136.59" x2="232.48" y2="133.73"/><line class="cls-1" x1="232.48" y1="133.73" x2="231.45" y2="130.92"/><line class="cls-1" x1="231.45" y1="130.92" x2="230.48" y2="128.17"/><line class="cls-1" x1="230.48" y1="128.17" x2="228.86" y2="125.58"/><line class="cls-1" x1="228.86" y1="125.58" x2="228" y2="122.93"/><line class="cls-1" x1="228" y1="122.93" x2="227.51" y2="120.23"/><line class="cls-1" x1="227.51" y1="120.23" x2="228.05" y2="117.21"/><line class="cls-1" x1="228.05" y1="117.21" x2="226.76" y2="114.72"/><line class="cls-1" x1="226.76" y1="114.72" x2="223.79" y2="112.73"/><line class="cls-1" x1="223.79" y1="112.73" x2="221.52" y2="110.73"/><line class="cls-1" x1="221.52" y1="110.73" x2="219.41" y2="108.73"/><line class="cls-1" x1="219.41" y1="108.73" x2="217.41" y2="106.73"/><line class="cls-1" x1="217.41" y1="106.73" x2="215.85" y2="104.68"/><line class="cls-1" x1="215.85" y1="104.68" x2="214.5" y2="102.52"/><line class="cls-1" x1="214.5" y1="102.52" x2="213.58" y2="100.09"/><line class="cls-1" x1="213.58" y1="100.09" x2="212.99" y2="97.5"/><line class="cls-1" x1="212.99" y1="97.5" x2="212.88" y2="94.47"/><line class="cls-1" x1="212.88" y1="94.47" x2="212.39" y2="91.56"/><line class="cls-1" x1="212.39" y1="91.56" x2="212.18" y2="88.32"/><line class="cls-1" x1="212.18" y1="88.32" x2="211.1" y2="85.67"/><line class="cls-1" x1="211.1" y1="85.67" x2="209.48" y2="83.4"/><line class="cls-1" x1="209.48" y1="83.4" x2="206.94" y2="82"/><line class="cls-1" x1="206.94" y1="82" x2="205.26" y2="79.79"/><line class="cls-1" x1="205.26" y1="79.79" x2="204.18" y2="76.87"/><line class="cls-1" x1="204.18" y1="76.87" x2="202.51" y2="74.55"/><line class="cls-1" x1="202.51" y1="74.55" x2="200.51" y2="72.44"/><line class="cls-1" x1="200.51" y1="72.44" x2="198.08" y2="70.93"/><line class="cls-1" x1="198.08" y1="70.93" x2="195.98" y2="69.04"/><line class="cls-1" x1="195.98" y1="69.04" x2="193.87" y2="66.99"/><line class="cls-1" x1="193.87" y1="66.99" x2="191.71" y2="65.04"/><line class="cls-1" x1="191.71" y1="65.04" x2="189.5" y2="63.1"/><line class="cls-1" x1="189.5" y1="63.1" x2="187.17" y2="61.16"/><line class="cls-1" x1="187.17" y1="61.16" x2="184.8" y2="59.37"/><line class="cls-1" x1="184.8" y1="59.37" x2="182.26" y2="57.7"/><line class="cls-1" x1="182.26" y1="57.7" x2="179.72" y2="56.08"/><line class="cls-1" x1="179.72" y1="56.08" x2="177.02" y2="54.57"/><line class="cls-1" x1="177.02" y1="54.57" x2="174.32" y2="53.06"/><line class="cls-1" x1="174.32" y1="53.06" x2="171.51" y2="51.98"/><line class="cls-1" x1="171.51" y1="51.98" x2="168.54" y2="51.22"/><line class="cls-1" x1="168.54" y1="51.22" x2="165.57" y2="50.63"/><line class="cls-1" x1="165.57" y1="50.63" x2="162.55" y2="50.19"/><line class="cls-1" x1="162.55" y1="50.19" x2="159.47" y2="50.25"/><line class="cls-1" x1="159.47" y1="50.25" x2="156.5" y2="49.33"/><line class="cls-1" x1="156.5" y1="49.33" x2="153.48" y2="48.14"/><line class="cls-1" x1="153.48" y1="48.14" x2="150.4" y2="47.12"/><line class="cls-1" x1="150.4" y1="136.59" x2="150.4" y2="138"/><line class="cls-1" x1="150.4" y1="138" x2="150.24" y2="139.46"/><line class="cls-1" x1="150.24" y1="139.46" x2="149.97" y2="140.91"/><line class="cls-1" x1="149.97" y1="140.91" x2="149.64" y2="142.16"/><line class="cls-1" x1="149.64" y1="142.16" x2="149.16" y2="143.78"/><line class="cls-1" x1="149.16" y1="143.78" x2="148.51" y2="145.67"/><line class="cls-1" x1="148.51" y1="145.67" x2="147.7" y2="147.61"/><line class="cls-1" x1="147.7" y1="147.61" x2="146.46" y2="150.53"/><line class="cls-1" x1="146.46" y1="150.53" x2="144.51" y2="154.79"/><line class="cls-1" x1="144.51" y1="154.79" x2="142.57" y2="158.25"/><line class="cls-1" x1="142.57" y1="158.25" x2="140.41" y2="161.43"/><line class="cls-1" x1="140.41" y1="161.43" x2="138.09" y2="164.3"/><line class="cls-1" x1="138.09" y1="164.3" x2="135.77" y2="166.62"/><line class="cls-1" x1="135.77" y1="166.62" x2="133.88" y2="167.7"/><line class="cls-1" x1="133.88" y1="167.7" x2="131.23" y2="169.86"/><line class="cls-1" x1="131.23" y1="169.86" x2="127.99" y2="172.5"/><line class="cls-1" x1="127.99" y1="172.5" x2="123.62" y2="176.34"/><line class="cls-1" x1="123.62" y1="176.34" x2="120.27" y2="178.07"/><line class="cls-1" x1="120.27" y1="178.07" x2="117.84" y2="178.28"/><line class="cls-1" x1="117.84" y1="178.28" x2="115.03" y2="178.77"/><line class="cls-1" x1="115.03" y1="178.77" x2="112.17" y2="179.09"/><line class="cls-1" x1="112.17" y1="179.09" x2="109.14" y2="179.31"/><line class="cls-1" x1="109.14" y1="179.31" x2="106.17" y2="179.31"/><line class="cls-1" x1="106.17" y1="179.31" x2="102.93" y2="179.36"/><line class="cls-1" x1="102.93" y1="179.36" x2="100.13" y2="178.77"/><line class="cls-1" x1="100.13" y1="178.77" x2="97.75" y2="177.69"/><line class="cls-1" x1="97.75" y1="177.69" x2="95.75" y2="176.28"/><line class="cls-1" x1="95.75" y1="176.28" x2="94.29" y2="174.39"/><line class="cls-1" x1="94.29" y1="174.39" x2="94.73" y2="171.37"/><line class="cls-1" x1="94.73" y1="171.37" x2="93.11" y2="169.64"/><line class="cls-1" x1="93.11" y1="169.64" x2="90.24" y2="168.56"/><line class="cls-1" x1="90.24" y1="168.56" x2="84.95" y2="168.51"/><line class="cls-1" x1="84.95" y1="168.51" x2="82.2" y2="166.94"/><line class="cls-1" x1="82.2" y1="166.94" x2="81.06" y2="164.57"/><line class="cls-1" x1="81.06" y1="164.57" x2="79.77" y2="162.3"/><line class="cls-1" x1="79.77" y1="162.3" x2="78.63" y2="159.87"/><line class="cls-1" x1="78.63" y1="159.87" x2="77.77" y2="157.38"/><line class="cls-1" x1="77.77" y1="157.38" x2="77.23" y2="154.79"/><line class="cls-1" x1="77.23" y1="154.79" x2="77.66" y2="151.98"/><line class="cls-1" x1="77.66" y1="151.98" x2="76.91" y2="149.5"/><line class="cls-1" x1="76.91" y1="149.5" x2="75.45" y2="147.07"/><line class="cls-1" x1="75.45" y1="147.07" x2="72.42" y2="144.75"/><line class="cls-1" x1="72.42" y1="144.75" x2="71.45" y2="142.05"/><line class="cls-1" x1="71.45" y1="142.05" x2="72.05" y2="139.29"/><line class="cls-1" x1="72.05" y1="139.29" x2="72.05" y2="136.59"/><line class="cls-1" x1="72.05" y1="136.59" x2="71.94" y2="133.84"/><line class="cls-1" x1="71.94" y1="133.84" x2="71.56" y2="131.09"/><line class="cls-1" x1="71.56" y1="131.09" x2="71.78" y2="128.33"/><line class="cls-1" x1="71.78" y1="128.33" x2="72.53" y2="125.63"/><line class="cls-1" x1="72.53" y1="125.63" x2="73.29" y2="122.99"/><line class="cls-1" x1="73.29" y1="122.99" x2="74.21" y2="120.39"/><line class="cls-1" x1="74.21" y1="120.39" x2="75.23" y2="117.86"/><line class="cls-1" x1="75.23" y1="117.86" x2="76.42" y2="115.37"/><line class="cls-1" x1="76.42" y1="115.37" x2="77.61" y2="112.94"/><line class="cls-1" x1="77.61" y1="112.94" x2="79.12" y2="110.62"/><line class="cls-1" x1="79.12" y1="110.62" x2="80.9" y2="108.46"/><line class="cls-1" x1="80.9" y1="108.46" x2="83.17" y2="106.62"/><line class="cls-1" x1="83.17" y1="106.62" x2="84.63" y2="104.46"/><line class="cls-1" x1="84.63" y1="104.46" x2="85.6" y2="102.09"/><line class="cls-1" x1="85.6" y1="102.09" x2="86.41" y2="99.6"/><line class="cls-1" x1="86.41" y1="99.6" x2="87" y2="96.96"/><line class="cls-1" x1="87" y1="96.96" x2="87.06" y2="93.83"/><line class="cls-1" x1="87.06" y1="93.83" x2="88.08" y2="91.29"/><line class="cls-1" x1="88.08" y1="91.29" x2="89.6" y2="89.07"/><line class="cls-1" x1="89.6" y1="89.07" x2="91.27" y2="86.97"/><line class="cls-1" x1="91.27" y1="86.97" x2="93.16" y2="85.02"/><line class="cls-1" x1="93.16" y1="85.02" x2="95.59" y2="83.62"/><line class="cls-1" x1="95.59" y1="83.62" x2="97.1" y2="81.3"/><line class="cls-1" x1="97.1" y1="81.3" x2="97.8" y2="78.11"/><line class="cls-1" x1="97.8" y1="78.11" x2="98.94" y2="75.2"/><line class="cls-1" x1="98.94" y1="75.2" x2="100.23" y2="72.33"/><line class="cls-1" x1="100.23" y1="72.33" x2="101.64" y2="69.42"/><line class="cls-1" x1="101.64" y1="69.42" x2="103.37" y2="66.77"/><line class="cls-1" x1="103.37" y1="66.77" x2="105.2" y2="64.18"/><line class="cls-1" x1="105.2" y1="64.18" x2="107.36" y2="61.97"/><line class="cls-1" x1="107.36" y1="61.97" x2="109.79" y2="60.13"/><line class="cls-1" x1="109.79" y1="60.13" x2="112.49" y2="58.78"/><line class="cls-1" x1="112.49" y1="58.78" x2="115.14" y2="57.32"/><line class="cls-1" x1="115.14" y1="57.32" x2="117.89" y2="56.03"/><line class="cls-1" x1="117.89" y1="56.03" x2="120.59" y2="54.51"/><line class="cls-1" x1="120.59" y1="54.51" x2="123.24" y2="52.84"/><line class="cls-1" x1="123.24" y1="52.84" x2="125.78" y2="50.52"/><line class="cls-1" x1="125.78" y1="50.52" x2="128.75" y2="49.6"/><line class="cls-1" x1="128.75" y1="49.6" x2="132.04" y2="49.98"/><line class="cls-1" x1="132.04" y1="49.98" x2="135.17" y2="49.92"/><line class="cls-1" x1="135.17" y1="49.92" x2="138.25" y2="49.87"/><line class="cls-1" x1="138.25" y1="49.87" x2="141.33" y2="50.03"/><line class="cls-1" x1="141.33" y1="50.03" x2="144.35" y2="49.22"/><line class="cls-1" x1="144.35" y1="49.22" x2="147.38" y2="48.09"/><line class="cls-1" x1="147.38" y1="48.09" x2="150.4" y2="47.12"/><line class="cls-1" x1="150.4" y1="136.59" x2="150.4" y2="136.86"/><line class="cls-1" x1="150.51" y1="138.16" x2="150.51" y2="138.43"/><line class="cls-1" x1="150.72" y1="139.67" x2="150.78" y2="139.89"/><line class="cls-1" x1="151.05" y1="141.13" x2="151.16" y2="141.35"/><line class="cls-1" x1="151.53" y1="142.59" x2="151.59" y2="142.8"/><line class="cls-1" x1="152.02" y1="143.99" x2="152.13" y2="144.21"/><line class="cls-1" x1="152.61" y1="145.4" x2="152.72" y2="145.61"/><line class="cls-1" x1="153.21" y1="146.8" x2="153.32" y2="147.02"/><line class="cls-1" x1="153.86" y1="148.15" x2="153.91" y2="148.37"/><line class="cls-1" x1="154.45" y1="149.5" x2="154.56" y2="149.72"/><line class="cls-1" x1="155.1" y1="150.85" x2="155.21" y2="151.07"/><line class="cls-1" x1="155.8" y1="152.2" x2="155.96" y2="152.42"/><line class="cls-1" x1="156.56" y1="153.55" x2="156.66" y2="153.71"/><line class="cls-1" x1="156.66" y1="153.71" x2="156.72" y2="153.77"/><line class="cls-1" x1="157.37" y1="154.85" x2="157.53" y2="155.06"/><line class="cls-1" x1="158.18" y1="156.14" x2="158.34" y2="156.36"/><line class="cls-1" x1="159.09" y1="157.38" x2="159.26" y2="157.6"/><line class="cls-1" x1="160.01" y1="158.63" x2="160.17" y2="158.84"/><line class="cls-1" x1="160.98" y1="159.87" x2="161.15" y2="160.08"/><line class="cls-1" x1="161.96" y1="161.11" x2="162.12" y2="161.27"/><line class="cls-1" x1="162.93" y1="162.3" x2="163.04" y2="162.46"/><line class="cls-1" x1="163.04" y1="162.46" x2="163.09" y2="162.51"/><line class="cls-1" x1="163.95" y1="163.54" x2="164.12" y2="163.7"/><line class="cls-1" x1="164.98" y1="164.73" x2="165.14" y2="164.94"/><line class="cls-1" x1="165.95" y1="165.92" x2="166.11" y2="166.08"/><line class="cls-1" x1="167.03" y1="167" x2="167.19" y2="167.16"/><line class="cls-1" x1="168.11" y1="168.13" x2="168.27" y2="168.29"/><line class="cls-1" x1="169.19" y1="169.21" x2="169.3" y2="169.32"/><line class="cls-1" x1="169.3" y1="169.32" x2="169.35" y2="169.37"/><line class="cls-1" x1="170.33" y1="170.24" x2="170.54" y2="170.4"/><line class="cls-1" x1="171.51" y1="171.26" x2="171.68" y2="171.42"/><line class="cls-1" x1="172.7" y1="172.29" x2="172.81" y2="172.4"/><line class="cls-1" x1="172.81" y1="172.4" x2="172.86" y2="172.45"/><line class="cls-1" x1="173.89" y1="173.26" x2="174.05" y2="173.42"/><line class="cls-1" x1="175.08" y1="174.29" x2="175.29" y2="174.45"/><line class="cls-1" x1="176.32" y1="175.26" x2="176.48" y2="175.42"/><line class="cls-1" x1="177.56" y1="176.12" x2="177.78" y2="176.23"/><line class="cls-1" x1="178.91" y1="176.88" x2="179.13" y2="176.99"/><line class="cls-1" x1="180.26" y1="177.63" x2="180.26" y2="177.63"/><line class="cls-1" x1="180.26" y1="177.63" x2="180.48" y2="177.74"/><line class="cls-1" x1="181.67" y1="178.28" x2="181.88" y2="178.34"/><line class="cls-1" x1="183.02" y1="178.88" x2="183.23" y2="178.93"/><line class="cls-1" x1="184.42" y1="179.25" x2="184.64" y2="179.31"/><line class="cls-1" x1="185.93" y1="179.47" x2="186.15" y2="179.52"/><line class="cls-1" x1="187.39" y1="179.42" x2="187.61" y2="179.36"/><line class="cls-1" x1="188.85" y1="179.04" x2="188.9" y2="178.82"/><line class="cls-1" x1="189.39" y1="177.69" x2="189.44" y2="177.47"/><line class="cls-1" x1="190.52" y1="177.15" x2="190.74" y2="177.2"/><line class="cls-1" x1="192.03" y1="177.26" x2="192.25" y2="177.31"/><line class="cls-1" x1="193.49" y1="177.69" x2="193.71" y2="177.8"/><line class="cls-1" x1="194.9" y1="178.28" x2="195.11" y2="178.39"/><line class="cls-1" x1="196.25" y1="178.88" x2="196.46" y2="178.98"/><line class="cls-1" x1="197.6" y1="179.47" x2="197.81" y2="179.58"/><line class="cls-1" x1="199" y1="179.9" x2="199.22" y2="179.96"/><line class="cls-1" x1="200.51" y1="180.01" x2="200.78" y2="180.01"/><line class="cls-1" x1="202.08" y1="180.06" x2="202.29" y2="180.06"/><line class="cls-1" x1="202.29" y1="180.06" x2="202.35" y2="180.06"/><line class="cls-1" x1="203.54" y1="179.58" x2="203.75" y2="179.52"/><line class="cls-1" x1="204.83" y1="178.98" x2="204.89" y2="178.77"/><line class="cls-1" x1="205.21" y1="177.53" x2="205.26" y2="177.31"/><line class="cls-1" x1="205.75" y1="176.12" x2="205.91" y2="175.91"/><line class="cls-1" x1="206.72" y1="174.88" x2="206.88" y2="174.66"/><line class="cls-1" x1="207.53" y1="173.53" x2="207.64" y2="173.31"/><line class="cls-1" x1="208.34" y1="172.23" x2="208.5" y2="172.02"/><line class="cls-1" x1="209.26" y1="170.99" x2="209.42" y2="170.83"/><line class="cls-1" x1="210.23" y1="169.8" x2="210.39" y2="169.59"/><line class="cls-1" x1="211.26" y1="168.62" x2="211.47" y2="168.45"/><line class="cls-1" x1="212.5" y1="167.64" x2="212.72" y2="167.48"/><line class="cls-1" x1="213.42" y1="166.46" x2="213.47" y2="166.24"/><line class="cls-1" x1="213.9" y1="165.05" x2="213.96" y2="164.84"/><line class="cls-1" x1="213.69" y1="163.59" x2="213.63" y2="163.38"/><line class="cls-1" x1="213.42" y1="162.14" x2="213.36" y2="161.97"/><line class="cls-1" x1="213.36" y1="161.97" x2="213.36" y2="161.92"/><line class="cls-1" x1="213.47" y1="160.62" x2="213.53" y2="160.41"/><line class="cls-1" x1="213.69" y1="159.11" x2="213.74" y2="158.9"/><line class="cls-1" x1="213.96" y1="157.65" x2="214.01" y2="157.44"/><line class="cls-1" x1="214.39" y1="156.25" x2="214.5" y2="156.03"/><line class="cls-1" x1="214.93" y1="154.85" x2="215.09" y2="154.63"/><line class="cls-1" x1="215.85" y1="153.6" x2="216.01" y2="153.39"/><line class="cls-1" x1="216.93" y1="152.47" x2="217.14" y2="152.31"/><line class="cls-1" x1="218.17" y1="151.5" x2="218.39" y2="151.34"/><line class="cls-1" x1="219.36" y1="150.47" x2="219.57" y2="150.31"/><line class="cls-1" x1="220.55" y1="149.45" x2="220.71" y2="149.28"/><line class="cls-1" x1="221.68" y1="148.42" x2="221.84" y2="148.26"/><line class="cls-1" x1="222.81" y1="147.39" x2="222.98" y2="147.23"/><line class="cls-1" x1="224" y1="146.42" x2="224.16" y2="146.26"/><line class="cls-1" x1="225.19" y1="145.5" x2="225.41" y2="145.34"/><line class="cls-1" x1="226.43" y1="144.59" x2="226.54" y2="144.53"/><line class="cls-1" x1="226.54" y1="144.53" x2="226.59" y2="144.42"/><line class="cls-1" x1="227.19" y1="143.29" x2="227.3" y2="143.07"/><line class="cls-1" x1="227.89" y1="141.94" x2="227.89" y2="141.94"/><line class="cls-1" x1="227.89" y1="141.94" x2="227.84" y2="141.72"/><line class="cls-1" x1="227.67" y1="140.43" x2="227.62" y2="140.16"/><line class="cls-1" x1="227.57" y1="138.86" x2="227.57" y2="138.59"/><line class="cls-1" x1="227.73" y1="137.35" x2="227.78" y2="137.13"/><line class="cls-1" x1="228" y1="135.84" x2="228.05" y2="135.62"/><line class="cls-1" x1="228.27" y1="134.38" x2="228.32" y2="134.16"/><line class="cls-1" x1="228.75" y1="132.98" x2="228.81" y2="132.76"/><line class="cls-1" x1="229.29" y1="131.57" x2="229.35" y2="131.36"/><line class="cls-1" x1="229.46" y1="130.06" x2="229.46" y2="129.79"/><line class="cls-1" x1="229.4" y1="128.49" x2="229.4" y2="128.28"/><line class="cls-1" x1="229.4" y1="128.28" x2="229.4" y2="128.22"/><line class="cls-1" x1="229.02" y1="126.98" x2="228.97" y2="126.77"/><line class="cls-1" x1="228.65" y1="125.52" x2="228.54" y2="125.31"/><line class="cls-1" x1="228.11" y1="124.12" x2="228" y2="123.9"/><line class="cls-1" x1="227.51" y1="122.72" x2="227.4" y2="122.5"/><line class="cls-1" x1="226.81" y1="121.37" x2="226.7" y2="121.15"/><line class="cls-1" x1="226.05" y1="120.07" x2="225.89" y2="119.91"/><line class="cls-1" x1="225.14" y1="118.88" x2="224.97" y2="118.72"/><line class="cls-1" x1="224.22" y1="117.64" x2="224.11" y2="117.42"/><line class="cls-1" x1="223.41" y1="116.34" x2="223.25" y2="116.13"/><line class="cls-1" x1="222.38" y1="115.1" x2="222.22" y2="114.94"/><line class="cls-1" x1="221.25" y1="114.02" x2="221.09" y2="113.86"/><line class="cls-1" x1="220.55" y1="112.73" x2="220.49" y2="112.51"/><line class="cls-1" x1="220.01" y1="111.32" x2="220.01" y2="111.27"/><line class="cls-1" x1="220.01" y1="111.27" x2="220.01" y2="111.05"/><line class="cls-1" x1="219.9" y1="109.76" x2="219.84" y2="109.54"/><line class="cls-1" x1="219.9" y1="108.24" x2="220.01" y2="108.03"/><line class="cls-1" x1="220.44" y1="106.84" x2="220.55" y2="106.62"/><line class="cls-1" x1="220.98" y1="105.44" x2="221.03" y2="105.22"/><line class="cls-1" x1="220.71" y1="104.03" x2="220.65" y2="103.82"/><line class="cls-1" x1="220.22" y1="102.63" x2="220.22" y2="102.57"/><line class="cls-1" x1="220.22" y1="102.57" x2="220.06" y2="102.47"/><line class="cls-1" x1="218.98" y1="101.82" x2="218.76" y2="101.66"/><line class="cls-1" x1="217.68" y1="101.01" x2="217.52" y2="100.9"/><line class="cls-1" x1="217.52" y1="100.9" x2="217.47" y2="100.85"/><line class="cls-1" x1="216.6" y1="99.87" x2="216.44" y2="99.71"/><line class="cls-1" x1="215.58" y1="98.69" x2="215.42" y2="98.47"/><line class="cls-1" x1="214.66" y1="97.39" x2="214.55" y2="97.17"/><line class="cls-1" x1="213.9" y1="96.09" x2="213.85" y2="95.88"/><line class="cls-1" x1="213.31" y1="94.74" x2="213.2" y2="94.53"/><line class="cls-1" x1="212.61" y1="93.39" x2="212.45" y2="93.18"/><line class="cls-1" x1="211.85" y1="92.04" x2="211.8" y2="91.99"/><line class="cls-1" x1="211.8" y1="91.99" x2="211.69" y2="91.83"/><line class="cls-1" x1="211.04" y1="90.75" x2="210.88" y2="90.53"/><line class="cls-1" x1="210.23" y1="89.45" x2="210.12" y2="89.24"/><line class="cls-1" x1="209.48" y1="88.16" x2="209.37" y2="87.94"/><line class="cls-1" x1="208.72" y1="86.86" x2="208.61" y2="86.64"/><line class="cls-1" x1="207.96" y1="85.56" x2="207.86" y2="85.35"/><line class="cls-1" x1="207.26" y1="84.27" x2="207.15" y2="84.05"/><line class="cls-1" x1="206.56" y1="82.92" x2="206.45" y2="82.7"/><line class="cls-1" x1="205.59" y1="81.68" x2="205.43" y2="81.51"/><line class="cls-1" x1="204.56" y1="80.49" x2="204.56" y2="80.49"/><line class="cls-1" x1="204.56" y1="80.49" x2="204.35" y2="80.33"/><line class="cls-1" x1="203.27" y1="79.57" x2="203.05" y2="79.41"/><line class="cls-1" x1="202.02" y1="78.65" x2="201.81" y2="78.49"/><line class="cls-1" x1="200.78" y1="77.73" x2="200.62" y2="77.57"/><line class="cls-1" x1="199.59" y1="76.82" x2="199.38" y2="76.65"/><line class="cls-1" x1="198.35" y1="75.9" x2="198.14" y2="75.74"/><line class="cls-1" x1="197.06" y1="75.09" x2="196.84" y2="74.98"/><line class="cls-1" x1="195.76" y1="74.33" x2="195.71" y2="74.28"/><line class="cls-1" x1="195.71" y1="74.28" x2="195.6" y2="74.17"/><line class="cls-1" x1="194.63" y1="73.31" x2="194.46" y2="73.14"/><line class="cls-1" x1="193.49" y1="72.23" x2="193.33" y2="72.01"/><line class="cls-1" x1="192.52" y1="70.98" x2="192.36" y2="70.77"/><line class="cls-1" x1="191.49" y1="69.74" x2="191.33" y2="69.58"/><line class="cls-1" x1="190.41" y1="68.66" x2="190.25" y2="68.5"/><line class="cls-1" x1="189.28" y1="67.58" x2="189.12" y2="67.42"/><line class="cls-1" x1="188.15" y1="66.56" x2="187.98" y2="66.39"/><line class="cls-1" x1="186.96" y1="65.58" x2="186.74" y2="65.42"/><line class="cls-1" x1="185.72" y1="64.61" x2="185.55" y2="64.5"/><line class="cls-1" x1="185.55" y1="64.5" x2="185.5" y2="64.45"/><line class="cls-1" x1="184.47" y1="63.64" x2="184.31" y2="63.48"/><line class="cls-1" x1="183.29" y1="62.67" x2="183.29" y2="62.67"/><line class="cls-1" x1="183.29" y1="62.67" x2="183.07" y2="62.51"/><line class="cls-1" x1="182.04" y1="61.75" x2="181.83" y2="61.64"/><line class="cls-1" x1="180.8" y1="60.83" x2="180.59" y2="60.67"/><line class="cls-1" x1="179.61" y1="59.81" x2="179.4" y2="59.64"/><line class="cls-1" x1="178.43" y1="58.78" x2="178.26" y2="58.62"/><line class="cls-1" x1="177.35" y1="57.7" x2="177.18" y2="57.54"/><line class="cls-1" x1="176.27" y1="56.62" x2="176.1" y2="56.4"/><line class="cls-1" x1="175.24" y1="55.38" x2="175.08" y2="55.16"/><line class="cls-1" x1="174.21" y1="54.14" x2="174.11" y2="53.97"/><line class="cls-1" x1="174.11" y1="53.97" x2="174.05" y2="53.92"/><line class="cls-1" x1="173.03" y1="53.11" x2="172.81" y2="52.95"/><line class="cls-1" x1="171.78" y1="52.14" x2="171.57" y2="51.98"/><line class="cls-1" x1="170.54" y1="51.17" x2="170.38" y2="51"/><line class="cls-1" x1="169.35" y1="50.19" x2="169.14" y2="50.03"/><line class="cls-1" x1="168" y1="49.49" x2="167.79" y2="49.44"/><line class="cls-1" x1="166.6" y1="49.01" x2="166.38" y2="48.95"/><line class="cls-1" x1="165.14" y1="48.74" x2="164.93" y2="48.68"/><line class="cls-1" x1="163.63" y1="48.57" x2="163.36" y2="48.57"/><line class="cls-1" x1="162.12" y1="48.79" x2="161.9" y2="48.84"/><line class="cls-1" x1="160.71" y1="49.33" x2="160.5" y2="49.38"/><line class="cls-1" x1="159.31" y1="49.71" x2="159.09" y2="49.65"/><line class="cls-1" x1="157.85" y1="49.38" x2="157.64" y2="49.33"/><line class="cls-1" x1="156.39" y1="49.06" x2="156.18" y2="49.01"/><line class="cls-1" x1="154.99" y1="48.57" x2="154.77" y2="48.52"/><line class="cls-1" x1="153.59" y1="48.09" x2="153.48" y2="48.03"/><line class="cls-1" x1="153.48" y1="48.03" x2="153.37" y2="47.98"/><line class="cls-1" x1="152.13" y1="47.66" x2="151.91" y2="47.55"/><line class="cls-1" x1="150.67" y1="47.17" x2="150.45" y2="47.12"/><line class="cls-1" x1="150.4" y1="137.89" x2="150.35" y2="138.16"/><line class="cls-1" x1="150.24" y1="139.46" x2="150.18" y2="139.67"/><line class="cls-1" x1="149.91" y1="140.91" x2="149.86" y2="141.13"/><line class="cls-1" x1="149.48" y1="142.32" x2="149.43" y2="142.53"/><line class="cls-1" x1="149" y1="143.72" x2="148.94" y2="143.94"/><line class="cls-1" x1="148.46" y1="145.07" x2="148.35" y2="145.29"/><line class="cls-1" x1="147.86" y1="146.42" x2="147.75" y2="146.64"/><line class="cls-1" x1="147.27" y1="147.83" x2="147.16" y2="148.04"/><line class="cls-1" x1="146.67" y1="149.23" x2="146.57" y2="149.45"/><line class="cls-1" x1="146.08" y1="150.58" x2="145.97" y2="150.8"/><line class="cls-1" x1="145.43" y1="151.93" x2="145.43" y2="151.98"/><line class="cls-1" x1="145.43" y1="151.98" x2="145.32" y2="152.15"/><line class="cls-1" x1="144.73" y1="153.28" x2="144.62" y2="153.5"/><line class="cls-1" x1="144.03" y1="154.63" x2="143.87" y2="154.85"/><line class="cls-1" x1="143.27" y1="155.98" x2="143.11" y2="156.2"/><line class="cls-1" x1="142.46" y1="157.28" x2="142.35" y2="157.49"/><line class="cls-1" x1="141.65" y1="158.57" x2="141.54" y2="158.79"/><line class="cls-1" x1="140.79" y1="159.87" x2="140.63" y2="160.08"/><line class="cls-1" x1="139.87" y1="161.11" x2="139.71" y2="161.33"/><line class="cls-1" x1="138.95" y1="162.35" x2="138.9" y2="162.46"/><line class="cls-1" x1="138.9" y1="162.46" x2="138.79" y2="162.57"/><line class="cls-1" x1="138.03" y1="163.59" x2="137.87" y2="163.76"/><line class="cls-1" x1="137.06" y1="164.78" x2="136.9" y2="165"/><line class="cls-1" x1="136.09" y1="166.02" x2="135.98" y2="166.19"/><line class="cls-1" x1="135.98" y1="166.19" x2="135.93" y2="166.24"/><line class="cls-1" x1="135.12" y1="167.27" x2="134.96" y2="167.43"/><line class="cls-1" x1="134.15" y1="168.45" x2="133.98" y2="168.62"/><line class="cls-1" x1="133.17" y1="169.64" x2="133.01" y2="169.8"/><line class="cls-1" x1="132.15" y1="170.83" x2="131.99" y2="170.99"/><line class="cls-1" x1="131.01" y1="171.91" x2="130.85" y2="172.07"/><line class="cls-1" x1="129.88" y1="172.99" x2="129.72" y2="173.15"/><line class="cls-1" x1="128.75" y1="174.07" x2="128.53" y2="174.23"/><line class="cls-1" x1="127.5" y1="175.04" x2="127.29" y2="175.2"/><line class="cls-1" x1="126.26" y1="176.01" x2="126.05" y2="176.18"/><line class="cls-1" x1="124.97" y1="176.93" x2="124.75" y2="177.04"/><line class="cls-1" x1="123.67" y1="177.69" x2="123.45" y2="177.85"/><line class="cls-1" x1="122.37" y1="178.5" x2="122.16" y2="178.61"/><line class="cls-1" x1="121.02" y1="179.15" x2="120.81" y2="179.25"/><line class="cls-1" x1="119.67" y1="179.79" x2="119.46" y2="179.9"/><line class="cls-1" x1="118.32" y1="180.39" x2="118.11" y2="180.44"/><line class="cls-1" x1="116.92" y1="180.87" x2="116.7" y2="180.93"/><line class="cls-1" x1="115.52" y1="181.36" x2="115.46" y2="181.36"/><line class="cls-1" x1="115.46" y1="181.36" x2="115.3" y2="181.41"/><line class="cls-1" x1="114.06" y1="181.63" x2="113.84" y2="181.68"/><line class="cls-1" x1="112.6" y1="181.95" x2="112.38" y2="182.01"/><line class="cls-1" x1="111.09" y1="182.12" x2="110.82" y2="182.12"/><line class="cls-1" x1="109.52" y1="182.22" x2="109.31" y2="182.22"/><line class="cls-1" x1="109.31" y1="182.22" x2="109.25" y2="182.22"/><line class="cls-1" x1="108.01" y1="182.01" x2="107.74" y2="182.01"/><line class="cls-1" x1="106.5" y1="181.85" x2="106.23" y2="181.85"/><line class="cls-1" x1="104.93" y1="181.79" x2="104.66" y2="181.79"/><line class="cls-1" x1="103.37" y1="181.85" x2="103.1" y2="181.85"/><line class="cls-1" x1="101.85" y1="182.06" x2="101.58" y2="182.06"/><line class="cls-1" x1="100.34" y1="182.28" x2="100.07" y2="182.33"/><line class="cls-1" x1="98.78" y1="182.22" x2="98.56" y2="182.17"/><line class="cls-1" x1="97.32" y1="181.85" x2="97.1" y2="181.79"/><line class="cls-1" x1="95.97" y1="181.14" x2="95.81" y2="180.98"/><line class="cls-1" x1="94.78" y1="180.23" x2="94.67" y2="180.12"/><line class="cls-1" x1="94.67" y1="180.12" x2="94.62" y2="180.01"/><line class="cls-1" x1="94.29" y1="178.77" x2="94.24" y2="178.55"/><line class="cls-1" x1="93.86" y1="177.36" x2="93.7" y2="177.15"/><line class="cls-1" x1="93.05" y1="176.07" x2="92.94" y2="175.85"/><line class="cls-1" x1="92.46" y1="174.72" x2="92.4" y2="174.5"/><line class="cls-1" x1="91.97" y1="173.31" x2="91.92" y2="173.1"/><line class="cls-1" x1="91.27" y1="172.02" x2="91.11" y2="171.8"/><line class="cls-1" x1="90.41" y1="170.72" x2="90.24" y2="170.51"/><line class="cls-1" x1="89.43" y1="169.48" x2="89.27" y2="169.32"/><line class="cls-1" x1="88.3" y1="168.4" x2="88.08" y2="168.24"/><line class="cls-1" x1="87.11" y1="167.37" x2="86.95" y2="167.16"/><line class="cls-1" x1="86.14" y1="166.13" x2="85.98" y2="165.92"/><line class="cls-1" x1="85.28" y1="164.89" x2="85.11" y2="164.67"/><line class="cls-1" x1="84.47" y1="163.59" x2="84.3" y2="163.38"/><line class="cls-1" x1="83.66" y1="162.3" x2="83.55" y2="162.08"/><line class="cls-1" x1="82.9" y1="161" x2="82.79" y2="160.79"/><line class="cls-1" x1="82.14" y1="159.71" x2="82.04" y2="159.49"/><line class="cls-1" x1="81.44" y1="158.36" x2="81.33" y2="158.14"/><line class="cls-1" x1="80.79" y1="156.95" x2="80.69" y2="156.74"/><line class="cls-1" x1="80.15" y1="155.6" x2="80.04" y2="155.39"/><line class="cls-1" x1="79.5" y1="154.25" x2="79.5" y2="154.25"/><line class="cls-1" x1="79.5" y1="154.25" x2="79.39" y2="154.04"/><line class="cls-1" x1="78.9" y1="152.9" x2="78.8" y2="152.69"/><line class="cls-1" x1="78.26" y1="151.55" x2="78.09" y2="151.34"/><line class="cls-1" x1="77.45" y1="150.2" x2="77.34" y2="149.99"/><line class="cls-1" x1="76.69" y1="148.91" x2="76.53" y2="148.69"/><line class="cls-1" x1="75.83" y1="147.61" x2="75.72" y2="147.39"/><line class="cls-1" x1="74.96" y1="146.37" x2="74.8" y2="146.21"/><line class="cls-1" x1="73.99" y1="145.18" x2="73.83" y2="144.96"/><line class="cls-1" x1="73.13" y1="143.94" x2="73.02" y2="143.72"/><line class="cls-1" x1="72.37" y1="142.64" x2="72.21" y2="142.43"/><line class="cls-1" x1="71.45" y1="141.35" x2="71.29" y2="141.13"/><line class="cls-1" x1="70.48" y1="140.1" x2="70.32" y2="139.89"/><line class="cls-1" x1="69.78" y1="138.81" x2="69.72" y2="138.54"/><line class="cls-1" x1="69.51" y1="137.24" x2="69.45" y2="137.03"/><line class="cls-1" x1="69.56" y1="135.78" x2="69.62" y2="135.57"/><line class="cls-1" x1="69.89" y1="134.33" x2="69.94" y2="134.11"/><line class="cls-1" x1="70.75" y1="133.03" x2="70.91" y2="132.87"/><line class="cls-1" x1="71.88" y1="131.95" x2="72.05" y2="131.79"/><line class="cls-1" x1="72.75" y1="130.76" x2="72.75" y2="130.49"/><line class="cls-1" x1="72.91" y1="129.2" x2="72.96" y2="128.98"/><line class="cls-1" x1="72.59" y1="127.79" x2="72.48" y2="127.58"/><line class="cls-1" x1="71.78" y1="126.5" x2="71.67" y2="126.28"/><line class="cls-1" x1="71.13" y1="125.15" x2="71.07" y2="124.93"/><line class="cls-1" x1="70.97" y1="123.63" x2="70.91" y2="123.36"/><line class="cls-1" x1="70.97" y1="122.07" x2="71.02" y2="121.85"/><line class="cls-1" x1="71.29" y1="120.61" x2="71.34" y2="120.39"/><line class="cls-1" x1="71.83" y1="119.21" x2="71.99" y2="118.99"/><line class="cls-1" x1="72.75" y1="117.91" x2="72.86" y2="117.69"/><line class="cls-1" x1="73.56" y1="116.61" x2="73.67" y2="116.4"/><line class="cls-1" x1="74.31" y1="115.32" x2="74.42" y2="115.1"/><line class="cls-1" x1="75.34" y1="114.13" x2="75.5" y2="113.97"/><line class="cls-1" x1="76.47" y1="113.05" x2="76.64" y2="112.89"/><line class="cls-1" x1="77.34" y1="111.81" x2="77.45" y2="111.59"/><line class="cls-1" x1="78.04" y1="110.46" x2="78.15" y2="110.3"/><line class="cls-1" x1="78.15" y1="110.3" x2="78.15" y2="110.24"/><line class="cls-1" x1="78.47" y1="109" x2="78.53" y2="108.78"/><line class="cls-1" x1="78.85" y1="107.54" x2="78.8" y2="107.33"/><line class="cls-1" x1="78.58" y1="106.08" x2="78.53" y2="105.87"/><line class="cls-1" x1="78.31" y1="104.57" x2="78.31" y2="104.46"/><line class="cls-1" x1="78.31" y1="104.46" x2="78.36" y2="104.36"/><line class="cls-1" x1="79.12" y1="103.28" x2="79.28" y2="103.06"/><line class="cls-1" x1="80.04" y1="102.09" x2="80.25" y2="102.03"/><line class="cls-1" x1="81.44" y1="101.6" x2="81.66" y2="101.55"/><line class="cls-1" x1="82.85" y1="101.17" x2="83.06" y2="101.06"/><line class="cls-1" x1="84.2" y1="100.41" x2="84.41" y2="100.25"/><line class="cls-1" x1="85.49" y1="99.5" x2="85.71" y2="99.33"/><line class="cls-1" x1="86.63" y1="98.42" x2="86.79" y2="98.25"/><line class="cls-1" x1="87.65" y1="97.28" x2="87.76" y2="97.07"/><line class="cls-1" x1="88.3" y1="95.93" x2="88.41" y2="95.72"/><line class="cls-1" x1="89" y1="94.58" x2="89.16" y2="94.42"/><line class="cls-1" x1="89.92" y1="93.39" x2="90.08" y2="93.18"/><line class="cls-1" x1="91.05" y1="92.31" x2="91.22" y2="92.15"/><line class="cls-1" x1="92.24" y1="91.34" x2="92.4" y2="91.23"/><line class="cls-1" x1="92.4" y1="91.23" x2="92.4" y2="91.18"/><line class="cls-1" x1="93" y1="90.05" x2="93.05" y2="89.83"/><line class="cls-1" x1="93.59" y1="88.7" x2="93.65" y2="88.43"/><line class="cls-1" x1="93.86" y1="87.18" x2="93.92" y2="86.97"/><line class="cls-1" x1="94.13" y1="85.73" x2="94.08" y2="85.51"/><line class="cls-1" x1="93.97" y1="84.21" x2="93.92" y2="84"/><line class="cls-1" x1="93.81" y1="82.7" x2="93.75" y2="82.49"/><line class="cls-1" x1="93.92" y1="81.19" x2="93.97" y2="80.97"/><line class="cls-1" x1="94.35" y1="79.79" x2="94.4" y2="79.57"/><line class="cls-1" x1="95" y1="78.44" x2="95.16" y2="78.27"/><line class="cls-1" x1="96.02" y1="77.3" x2="96.18" y2="77.14"/><line class="cls-1" x1="96.99" y1="76.11" x2="97.1" y2="75.9"/><line class="cls-1" x1="97.86" y1="74.82" x2="98.02" y2="74.6"/><line class="cls-1" x1="98.72" y1="73.52" x2="98.88" y2="73.31"/><line class="cls-1" x1="99.59" y1="72.23" x2="99.75" y2="72.01"/><line class="cls-1" x1="100.45" y1="70.93" x2="100.61" y2="70.71"/><line class="cls-1" x1="101.26" y1="69.63" x2="101.42" y2="69.42"/><line class="cls-1" x1="102.29" y1="68.45" x2="102.45" y2="68.23"/><line class="cls-1" x1="103.31" y1="67.26" x2="103.47" y2="67.1"/><line class="cls-1" x1="104.39" y1="66.18" x2="104.55" y2="66.02"/><line class="cls-1" x1="105.53" y1="65.1" x2="105.69" y2="64.94"/><line class="cls-1" x1="106.71" y1="64.18" x2="106.93" y2="64.02"/><line class="cls-1" x1="107.96" y1="63.26" x2="108.06" y2="63.21"/><line class="cls-1" x1="108.06" y1="63.21" x2="108.17" y2="63.15"/><line class="cls-1" x1="109.31" y1="62.51" x2="109.52" y2="62.4"/><line class="cls-1" x1="110.6" y1="61.8" x2="110.66" y2="61.75"/><line class="cls-1" x1="110.66" y1="61.75" x2="110.82" y2="61.7"/><line class="cls-1" x1="112.06" y1="61.43" x2="112.28" y2="61.37"/><line class="cls-1" x1="113.52" y1="61.1" x2="113.63" y2="61.1"/><line class="cls-1" x1="113.63" y1="61.1" x2="113.73" y2="60.99"/><line class="cls-1" x1="114.76" y1="60.24" x2="114.92" y2="60.08"/><line class="cls-1" x1="115.95" y1="59.32" x2="116" y2="59.27"/><line class="cls-1" x1="116" y1="59.27" x2="116.11" y2="59.1"/><line class="cls-1" x1="116.76" y1="57.97" x2="116.87" y2="57.75"/><line class="cls-1" x1="117.51" y1="56.62" x2="117.62" y2="56.4"/><line class="cls-1" x1="118.49" y1="55.38" x2="118.65" y2="55.22"/><line class="cls-1" x1="119.62" y1="54.3" x2="119.78" y2="54.14"/><line class="cls-1" x1="120.81" y1="53.38" x2="121.02" y2="53.22"/><line class="cls-1" x1="122.1" y1="52.52" x2="122.32" y2="52.41"/><line class="cls-1" x1="123.4" y1="51.81" x2="123.62" y2="51.76"/><line class="cls-1" x1="124.8" y1="51.27" x2="125.02" y2="51.22"/><line class="cls-1" x1="126.21" y1="50.79" x2="126.42" y2="50.73"/><line class="cls-1" x1="127.61" y1="50.36" x2="127.83" y2="50.3"/><line class="cls-1" x1="129.02" y1="49.98" x2="129.29" y2="49.98"/><line class="cls-1" x1="130.58" y1="49.92" x2="130.85" y2="49.92"/><line class="cls-1" x1="132.15" y1="49.87" x2="132.36" y2="49.82"/><line class="cls-1" x1="133.61" y1="49.49" x2="133.82" y2="49.44"/><line class="cls-1" x1="135.06" y1="49.17" x2="135.28" y2="49.06"/><line class="cls-1" x1="136.47" y1="48.68" x2="136.68" y2="48.63"/><line class="cls-1" x1="137.87" y1="48.25" x2="138.03" y2="48.2"/><line class="cls-1" x1="138.03" y1="48.2" x2="138.09" y2="48.14"/><line class="cls-1" x1="139.22" y1="47.55" x2="139.44" y2="47.39"/><line class="cls-1" x1="140.57" y1="46.79" x2="140.79" y2="46.63"/><line class="cls-1" x1="142.03" y1="46.47" x2="142.3" y2="46.47"/><line class="cls-1" x1="143.6" y1="46.41" x2="143.81" y2="46.36"/><line class="cls-1" x1="145.11" y1="46.47" x2="145.38" y2="46.47"/><line class="cls-1" x1="146.67" y1="46.63" x2="146.94" y2="46.63"/><line class="cls-1" x1="148.24" y1="46.79" x2="148.46" y2="46.85"/><line class="cls-1" x1="149.75" y1="47.01" x2="149.97" y2="47.06"/></g></svg>