<svg id="_2097-30" data-name="2097-30" xmlns="http://www.w3.org/2000/svg" xmlns:xlink="http://www.w3.org/1999/xlink" viewBox="0 0 300 263"><defs><style>.cls-1,.cls-3,.cls-4{fill:none;}.cls-2{clip-path:url(#clip-path);}.cls-3,.cls-4{stroke:#000;stroke-width:0.5px;}.cls-3{stroke-miterlimit:3.86;}.cls-5{isolation:isolate;}</style><clipPath id="clip-path"><rect id="SVGID" class="cls-1" x="80.05" y="43.31" width="137.95" height="152.34"/></clipPath></defs><title>2097-30-suspension-sarafatti-flos-A1400057-spech-tech-02-300x263</title><g class="cls-2"><path d="M276,139.56a2.09,2.09,0,1,1,2.08,1.93,2,2,0,0,1-2.08-1.93"/></g><g class="cls-2"><rect x="276.42" y="141.65" width="3.31" height="2.01"/></g><g class="cls-2"><rect x="276.42" y="144.87" width="3.5" height="1.13"/></g><g class="cls-2"><rect x="276.8" y="146.48" width="2.56" height="0.8"/></g><g class="cls-2"><rect x="277.27" y="148.01" width="1.99" height="0.64"/></g><g class="cls-2"><path d="M294.31,139.56a2.09,2.09,0,1,1,2.09,1.93,2,2,0,0,1-2.09-1.93"/></g><g class="cls-2"><rect x="294.69" y="141.65" width="3.31" height="2.01"/></g><g class="cls-2"><rect x="294.69" y="144.87" width="3.5" height="1.13"/></g><g class="cls-2"><rect x="294.98" y="146.48" width="2.65" height="0.8"/></g><g class="cls-2"><rect x="295.55" y="148.01" width="1.99" height="0.64"/></g><g class="cls-2"><path d="M273.77,155.25a2,2,0,0,1,2.08-1.93,2,2,0,0,1,2,1.93,2,2,0,0,1-2,1.94,2,2,0,0,1-2.08-1.94"/></g><g class="cls-2"><rect x="274.15" y="157.35" width="3.31" height="2.01"/></g><g class="cls-2"><rect x="274.15" y="160.65" width="3.5" height="1.13"/></g><g class="cls-2"><rect x="274.53" y="162.18" width="2.56" height="0.8"/></g><g class="cls-2"><rect x="275.09" y="163.7" width="1.99" height="0.64"/></g><g class="cls-2"><path d="M250.85,155.25a2.09,2.09,0,1,1,2.09,1.94,2,2,0,0,1-2.09-1.94"/></g><g class="cls-2"><rect x="251.23" y="157.35" width="3.31" height="2.01"/></g><g class="cls-2"><rect x="251.23" y="160.65" width="3.5" height="1.13"/></g><g class="cls-2"><rect x="251.61" y="162.18" width="2.65" height="0.8"/></g><g class="cls-2"><rect x="252.09" y="163.7" width="1.99" height="0.64"/></g><g class="cls-2"><path d="M294,172.4a2.09,2.09,0,1,1,2.08,1.93A2,2,0,0,1,294,172.4"/></g><g class="cls-2"><rect x="294.41" y="174.57" width="3.31" height="2.01"/></g><g class="cls-2"><rect x="294.41" y="177.79" width="3.5" height="1.13"/></g><g class="cls-2"><rect x="294.79" y="179.4" width="2.65" height="0.8"/></g><g class="cls-2"><rect x="295.26" y="180.85" width="1.99" height="0.64"/></g><g class="cls-2"><path d="M276.8,172.4a2.09,2.09,0,1,1,2.08,1.93,2,2,0,0,1-2.08-1.93"/></g><g class="cls-2"><rect x="277.18" y="174.57" width="3.31" height="2.01"/></g><g class="cls-2"><rect x="277.18" y="177.79" width="3.5" height="1.13"/></g><g class="cls-2"><rect x="277.56" y="179.4" width="2.56" height="0.8"/></g><g class="cls-2"><rect x="278.03" y="180.85" width="1.99" height="0.64"/></g><g class="cls-2"><path class="cls-3" d="M303.5,198.15c1.89,4.83,3.12,12.23,7.76,11.91,4.36-.32,5.3-3.62,6.35-5.47,1.23-2.42,3.12-5,4.92-5.39m27.17-.89c-1.89,4.83-4.92,11.59-9.18,11.83s-4.92-3.7-6-5.55c-1.23-2.42-3.22-5.15-5.11-5.56M316,198.15c-.1,1.29-1.33,7.08,6.53,10.62m13.92-10.62c.09,1.29.94,7.08-6.91,10.62m44.21-27.28c.76,2.09,0,14.33-16.76,15.21-6.81.32-9.18-1.61-15.71-6.76-3.89-3.06-3.89-6.92-12-7.73m-50.18-.72c-.76,2.09,2.84,14,16.76,15.21,6.82.56,9.28-1.29,15.91-6.44,3.88-3.06,2.74-7.24,10.88-8m-69.49-18c-.1,8.05,13.35,20.44,29.25,20C297.72,183.66,304,178,307.1,175c8-8.13,12.4-8.61,15.62-8.85m76.5-1.93c.1,8.05-13.35,20.44-29.26,20-15.33-.49-19.5-6.28-22.72-9.26-8.05-7.72-14.39-8.53-17.61-8.77m44.12-17.46c.76,2.09,0,14.32-16.76,15.21-6.81.32-9.18-1.61-15.71-6.76-3.89-3.06-3.89-6.93-12-7.73m-50.84-.8c-.76,2.09,3.5,14.16,17.32,15.29,6.82.56,9.28-1.29,15.91-6.44,3.88-3.06,2.75-7.25,10.89-8.05m-19.79-17.46c.38,2.65,3.88,11.1,11.27,10.86,2.84-.08,4.92-3.38,5.58-5.47a7.64,7.64,0,0,1,3.13-4m26.51-1.36c-.38,2.65-3.88,11.1-11.27,10.86-2.84-.08-4.92-3.38-5.58-5.47a7.64,7.64,0,0,0-3.13-4m-13.63-1.44c1.51,5,2.27,11.34,6.91,10.94m13.63-10.94c-1.51,5-2.17,11.34-6.91,10.94m-32.76,5.8c1.9,7.4,5,16.41,15.06,17.22,6.81.56,10.51-9.82,11.07-16.42m33.05-.8c-1.9,7.4-5,16.41-15.06,17.22-6.81.56-10.51-9.82-11-16.42m-13.44-.8c-.38,10.3,4.26,16.41,6.34,15.61m13.16-15.61c.38,10.3-4.17,16.41-6.34,15.61m-33.24,17.14c.38,3.78,4.26,15.77,13.16,15.61,6.54-.08,7.86-5.79,9.09-8.13,1.42-2.65,2.84-6.19,4.26-6.68m33.33-.8c-.38,3.78-4.16,15.77-13.16,15.61-6.53-.08-7.86-5.79-9.09-8.13-1.42-2.65-2.84-6.19-4.16-6.68m-13.45-.64c-.47,5.47,1.9,14.65,6.44,15m13.44-15c.48,5.47-1.89,14.65-6.43,15M276,164.19c0,4.75,8.81,19.63,21.21,19.47,9.18-.08,12-3.7,16.28-8.12,3.51-3.71,6.25-7.73,9.09-9.5m54-1.61c0,4.75-9.47,19.48-21.77,19.31-9.19-.08-12-3.7-16.29-8.12-3.5-3.71-6.15-7.73-9.09-9.5m-27-1.85c0,3,2.84,17.06,12.68,19.39,3.41.81,4.45-4.1,4.83-6.51a7.23,7.23,0,0,1,2.65-4.19m27-8.69c0,3-2.84,17.06-12.69,19.39-3.41.81-4.45-4.1-4.83-6.51a7.13,7.13,0,0,0-2.65-4.19m-3.79-66.47V43.87m.67-.16c-1.9,5.15-3.7,9.42-4,15.62-.28,6.68,1.89,9.17,3.22,12a17.89,17.89,0,0,1,2,9.09c0,3.46-1.23,5.31-2,8.77-.95,4-2.08,6.44-2.27,10.47-.1,2.81.75,5.71,2.27,6.92m.38,25.35v12.23"/></g><g class="cls-2"><rect class="cls-3" x="145.95" y="97.79" width="5.68" height="92.31"/></g><g class="cls-2"><path class="cls-3" d="M127.3,115.82H170m-64.67,14.33h86.35m22.06,13.44H84.31m22.25,15H191.3m-21,14.24h-42.7"/></g><g class="cls-2"><path d="M105.71,126.12a1.68,1.68,0,0,1,1.8-1.61,1.75,1.75,0,0,1,1.8,1.61,1.81,1.81,0,0,1-3.6,0"/></g><g class="cls-2"><rect x="106.09" y="127.97" width="2.84" height="1.69"/></g><g class="cls-2"><rect x="106.09" y="130.79" width="3.03" height="0.97"/></g><g class="cls-2"><rect x="106.37" y="132.16" width="2.27" height="0.72"/></g><g class="cls-2"><rect x="106.75" y="133.37" width="1.7" height="0.56"/></g><g class="cls-2"><path d="M121.42,126.12a1.69,1.69,0,0,1,1.8-1.61,1.75,1.75,0,0,1,1.8,1.61,1.68,1.68,0,0,1-1.8,1.61,1.64,1.64,0,0,1-1.8-1.61"/></g><g class="cls-2"><rect x="121.71" y="127.97" width="2.84" height="1.69"/></g><g class="cls-2"><rect x="121.71" y="130.79" width="3.03" height="0.97"/></g><g class="cls-2"><rect x="122.09" y="132.16" width="2.27" height="0.72"/></g><g class="cls-2"><rect x="122.47" y="133.37" width="1.7" height="0.56"/></g><g class="cls-2"><path d="M138.56,126.12a1.81,1.81,0,1,1,1.8,1.61,1.69,1.69,0,0,1-1.8-1.61"/></g><g class="cls-2"><rect x="138.94" y="127.97" width="2.84" height="1.69"/></g><g class="cls-2"><rect x="138.94" y="130.79" width="3.03" height="0.97"/></g><g class="cls-2"><rect x="139.23" y="132.16" width="2.27" height="0.72"/></g><g class="cls-2"><rect x="139.7" y="133.37" width="1.7" height="0.56"/></g><g class="cls-2"><path d="M126.63,139.64a1.69,1.69,0,0,1,1.8-1.61,1.75,1.75,0,0,1,1.8,1.61,1.68,1.68,0,0,1-1.8,1.61,1.64,1.64,0,0,1-1.8-1.61"/></g><g class="cls-2"><rect x="126.92" y="141.49" width="2.84" height="1.69"/></g><g class="cls-2"><rect x="126.92" y="144.31" width="3.03" height="0.97"/></g><g class="cls-2"><rect x="127.3" y="145.68" width="2.27" height="0.72"/></g><g class="cls-2"><rect x="127.67" y="146.89" width="1.7" height="0.56"/></g><g class="cls-2"><path d="M103.81,139.64a1.69,1.69,0,0,1,1.8-1.61,1.75,1.75,0,0,1,1.8,1.61,1.68,1.68,0,0,1-1.8,1.61,1.64,1.64,0,0,1-1.8-1.61"/></g><g class="cls-2"><rect x="104.1" y="141.49" width="2.84" height="1.69"/></g><g class="cls-2"><rect x="104.1" y="144.31" width="3.03" height="0.97"/></g><g class="cls-2"><rect x="104.48" y="145.68" width="2.27" height="0.72"/></g><g class="cls-2"><rect x="104.86" y="146.89" width="1.7" height="0.56"/></g><g class="cls-2"><path d="M84,139.64A1.68,1.68,0,0,1,85.82,138a1.75,1.75,0,0,1,1.8,1.61,1.81,1.81,0,0,1-3.59,0"/></g><g class="cls-2"><rect x="84.4" y="141.49" width="2.84" height="1.69"/></g><g class="cls-2"><rect x="84.4" y="144.31" width="3.03" height="0.97"/></g><g class="cls-2"><rect x="84.69" y="145.68" width="2.27" height="0.72"/></g><g class="cls-2"><rect x="85.16" y="146.89" width="1.7" height="0.56"/></g><g class="cls-2"><path d="M138.37,154.45a1.81,1.81,0,1,1,1.8,1.61,1.69,1.69,0,0,1-1.8-1.61"/></g><g class="cls-2"><rect x="138.66" y="156.22" width="2.84" height="1.69"/></g><g class="cls-2"><rect x="138.66" y="159.04" width="3.03" height="0.97"/></g><g class="cls-2"><rect x="139.04" y="160.41" width="2.27" height="0.72"/></g><g class="cls-2"><rect x="139.41" y="161.69" width="1.7" height="0.56"/></g><g class="cls-2"><path d="M121.24,154.45a1.68,1.68,0,0,1,1.79-1.61,1.75,1.75,0,0,1,1.8,1.61,1.81,1.81,0,0,1-3.59,0"/></g><g class="cls-2"><rect x="121.52" y="156.22" width="2.84" height="1.69"/></g><g class="cls-2"><rect x="121.52" y="159.04" width="3.03" height="0.97"/></g><g class="cls-2"><rect x="121.8" y="160.41" width="2.27" height="0.72"/></g><g class="cls-2"><rect x="122.28" y="161.69" width="1.7" height="0.56"/></g><g class="cls-2"><path d="M106.37,154.45a1.69,1.69,0,0,1,1.8-1.61,1.75,1.75,0,0,1,1.8,1.61,1.81,1.81,0,0,1-3.6,0"/></g><g class="cls-2"><rect x="106.65" y="156.22" width="2.84" height="1.69"/></g><g class="cls-2"><rect x="106.65" y="159.04" width="3.03" height="0.97"/></g><g class="cls-2"><rect x="107.03" y="160.41" width="2.27" height="0.72"/></g><g class="cls-2"><rect x="107.41" y="161.69" width="1.7" height="0.56"/></g><g class="cls-2"><path d="M138.37,168.78a1.81,1.81,0,1,1,1.8,1.61,1.68,1.68,0,0,1-1.8-1.61"/></g><g class="cls-2"><rect x="138.66" y="170.63" width="2.84" height="1.69"/></g><g class="cls-2"><rect x="138.66" y="173.36" width="3.03" height="0.97"/></g><g class="cls-2"><rect x="139.04" y="174.73" width="2.27" height="0.72"/></g><g class="cls-2"><rect x="139.41" y="176.02" width="1.7" height="0.56"/></g><g class="cls-2"><path d="M127.39,168.78a1.68,1.68,0,0,1,1.8-1.61,1.74,1.74,0,0,1,1.8,1.61,1.81,1.81,0,0,1-3.6,0"/></g><g class="cls-2"><rect x="127.67" y="170.63" width="2.84" height="1.69"/></g><g class="cls-2"><rect x="127.67" y="173.36" width="3.03" height="0.97"/></g><g class="cls-2"><rect x="128.05" y="174.73" width="2.27" height="0.72"/></g><g class="cls-2"><rect x="128.43" y="176.02" width="1.7" height="0.56"/></g><g class="cls-2"><path d="M167,168.78a1.68,1.68,0,0,1,1.8-1.61,1.74,1.74,0,0,1,1.79,1.61,1.81,1.81,0,0,1-3.59,0"/></g><g class="cls-2"><rect x="167.25" y="170.63" width="2.84" height="1.69"/></g><g class="cls-2"><rect x="167.25" y="173.36" width="3.03" height="0.97"/></g><g class="cls-2"><rect x="167.63" y="174.73" width="2.27" height="0.72"/></g><g class="cls-2"><rect x="168.01" y="176.02" width="1.7" height="0.56"/></g><g class="cls-2"><path d="M156,168.78a1.81,1.81,0,1,1,1.8,1.61,1.68,1.68,0,0,1-1.8-1.61"/></g><g class="cls-2"><rect x="156.27" y="170.63" width="2.84" height="1.69"/></g><g class="cls-2"><rect x="156.27" y="173.36" width="3.03" height="0.97"/></g><g class="cls-2"><rect x="156.65" y="174.73" width="2.27" height="0.72"/></g><g class="cls-2"><rect x="157.03" y="176.02" width="1.7" height="0.56"/></g><g class="cls-2"><path d="M159.49,154.45a1.69,1.69,0,0,0-1.8-1.61,1.75,1.75,0,0,0-1.8,1.61,1.81,1.81,0,0,0,3.6,0"/></g><g class="cls-2"><rect x="156.27" y="156.22" width="2.84" height="1.69"/></g><g class="cls-2"><rect x="156.17" y="159.04" width="3.03" height="0.97"/></g><g class="cls-2"><rect x="156.65" y="160.41" width="2.27" height="0.72"/></g><g class="cls-2"><rect x="156.74" y="161.69" width="1.7" height="0.56"/></g><g class="cls-2"><path d="M176.72,154.45a1.69,1.69,0,0,0-1.8-1.61,1.75,1.75,0,0,0-1.8,1.61,1.68,1.68,0,0,0,1.8,1.61,1.74,1.74,0,0,0,1.8-1.61"/></g><g class="cls-2"><rect x="173.5" y="156.22" width="2.84" height="1.69"/></g><g class="cls-2"><rect x="173.41" y="159.04" width="3.03" height="0.97"/></g><g class="cls-2"><rect x="173.78" y="160.41" width="2.27" height="0.72"/></g><g class="cls-2"><rect x="173.88" y="161.69" width="1.7" height="0.56"/></g><g class="cls-2"><path d="M191.49,154.45a1.69,1.69,0,0,0-1.8-1.61,1.75,1.75,0,0,0-1.8,1.61,1.81,1.81,0,0,0,3.6,0"/></g><g class="cls-2"><rect x="188.27" y="156.22" width="2.93" height="1.69"/></g><g class="cls-2"><rect x="188.18" y="159.04" width="3.03" height="0.97"/></g><g class="cls-2"><rect x="188.65" y="160.41" width="2.27" height="0.72"/></g><g class="cls-2"><rect x="188.74" y="161.69" width="1.7" height="0.56"/></g><g class="cls-2"><path d="M171.32,139.64a1.69,1.69,0,0,0-1.8-1.61,1.75,1.75,0,0,0-1.8,1.61,1.68,1.68,0,0,0,1.8,1.61,1.64,1.64,0,0,0,1.8-1.61"/></g><g class="cls-2"><rect x="168.2" y="141.49" width="2.84" height="1.69"/></g><g class="cls-2"><rect x="168.01" y="144.31" width="3.03" height="0.97"/></g><g class="cls-2"><rect x="168.48" y="145.68" width="2.27" height="0.72"/></g><g class="cls-2"><rect x="168.58" y="146.89" width="1.71" height="0.56"/></g><g class="cls-2"><path d="M194.14,139.64a1.81,1.81,0,1,0-1.8,1.61,1.69,1.69,0,0,0,1.8-1.61"/></g><g class="cls-2"><rect x="191.02" y="141.49" width="2.84" height="1.69"/></g><g class="cls-2"><rect x="190.92" y="144.31" width="3.03" height="0.97"/></g><g class="cls-2"><rect x="191.3" y="145.68" width="2.27" height="0.72"/></g><g class="cls-2"><rect x="191.39" y="146.89" width="1.7" height="0.56"/></g><g class="cls-2"><path d="M213.93,139.64a1.69,1.69,0,0,0-1.8-1.61,1.75,1.75,0,0,0-1.8,1.61,1.68,1.68,0,0,0,1.8,1.61,1.64,1.64,0,0,0,1.8-1.61"/></g><g class="cls-2"><rect x="210.71" y="141.49" width="2.84" height="1.69"/></g><g class="cls-2"><rect x="210.62" y="144.31" width="3.03" height="0.97"/></g><g class="cls-2"><rect x="210.99" y="145.68" width="2.27" height="0.72"/></g><g class="cls-2"><rect x="211.18" y="146.89" width="1.7" height="0.56"/></g><g class="cls-2"><path d="M192,126.12a1.68,1.68,0,0,0-1.8-1.61,1.75,1.75,0,0,0-1.8,1.61,1.81,1.81,0,0,0,3.6,0"/></g><g class="cls-2"><rect x="188.74" y="127.97" width="2.84" height="1.69"/></g><g class="cls-2"><rect x="188.65" y="130.79" width="3.03" height="0.97"/></g><g class="cls-2"><rect x="189.03" y="132.16" width="2.27" height="0.72"/></g><g class="cls-2"><rect x="189.12" y="133.37" width="1.7" height="0.56"/></g><g class="cls-2"><path d="M176.25,126.12a1.69,1.69,0,0,0-1.8-1.61,1.75,1.75,0,0,0-1.8,1.61,1.68,1.68,0,0,0,1.8,1.61,1.64,1.64,0,0,0,1.8-1.61"/></g><g class="cls-2"><rect x="173.03" y="127.97" width="2.84" height="1.69"/></g><g class="cls-2"><rect x="172.93" y="130.79" width="3.03" height="0.97"/></g><g class="cls-2"><rect x="173.41" y="132.16" width="2.27" height="0.72"/></g><g class="cls-2"><rect x="173.5" y="133.37" width="1.7" height="0.56"/></g><g class="cls-2"><path d="M159.11,126.12a1.81,1.81,0,1,0-1.8,1.61,1.69,1.69,0,0,0,1.8-1.61"/></g><g class="cls-2"><rect x="155.89" y="127.97" width="2.84" height="1.69"/></g><g class="cls-2"><rect x="155.79" y="130.79" width="3.03" height="0.97"/></g><g class="cls-2"><rect x="156.17" y="132.16" width="2.27" height="0.72"/></g><g class="cls-2"><rect x="156.27" y="133.37" width="1.7" height="0.56"/></g><g class="cls-2"><path d="M159.11,111.8a1.81,1.81,0,1,0-1.8,1.61,1.68,1.68,0,0,0,1.8-1.61"/></g><g class="cls-2"><rect x="155.89" y="113.65" width="2.84" height="1.69"/></g><g class="cls-2"><rect x="155.79" y="116.47" width="3.03" height="0.97"/></g><g class="cls-2"><rect x="156.17" y="117.83" width="2.27" height="0.72"/></g><g class="cls-2"><rect x="156.27" y="119.04" width="1.7" height="0.56"/></g><g class="cls-2"><path d="M170.09,111.8a1.68,1.68,0,0,0-1.8-1.61,1.75,1.75,0,0,0-1.8,1.61,1.81,1.81,0,0,0,3.6,0"/></g><g class="cls-2"><rect x="166.87" y="113.65" width="2.84" height="1.69"/></g><g class="cls-2"><rect x="166.78" y="116.47" width="3.03" height="0.97"/></g><g class="cls-2"><rect x="167.16" y="117.83" width="2.27" height="0.72"/></g><g class="cls-2"><rect x="167.35" y="119.04" width="1.7" height="0.56"/></g><g class="cls-2"><path d="M130.51,111.8a1.81,1.81,0,1,0-1.79,1.61,1.67,1.67,0,0,0,1.79-1.61"/></g><g class="cls-2"><rect x="127.3" y="113.65" width="2.84" height="1.69"/></g><g class="cls-2"><rect x="127.2" y="116.47" width="3.03" height="0.97"/></g><g class="cls-2"><rect x="127.58" y="117.83" width="2.27" height="0.72"/></g><g class="cls-2"><rect x="127.67" y="119.04" width="1.7" height="0.56"/></g><g class="cls-2"><path d="M141.5,111.8a1.68,1.68,0,0,0-1.8-1.61,1.74,1.74,0,0,0-1.8,1.61,1.81,1.81,0,0,0,3.6,0"/></g><g class="cls-2"><rect x="138.28" y="113.65" width="2.84" height="1.69"/></g><g class="cls-2"><rect x="138.18" y="116.47" width="3.03" height="0.97"/></g><g class="cls-2"><rect x="138.56" y="117.83" width="2.27" height="0.72"/></g><g class="cls-2"><rect x="138.66" y="119.04" width="1.7" height="0.56"/></g><g class="cls-2"><path d="M147.08,168.78a1.68,1.68,0,0,1,1.8-1.61,1.74,1.74,0,0,1,1.8,1.61,1.69,1.69,0,0,1-1.8,1.61,1.75,1.75,0,0,1-1.8-1.61"/></g><g class="cls-2"><rect x="147.46" y="170.63" width="2.84" height="1.69"/></g><g class="cls-2"><rect x="147.46" y="173.36" width="3.03" height="0.97"/></g><g class="cls-2"><rect x="147.75" y="174.73" width="2.27" height="0.72"/></g><g class="cls-2"><rect x="148.22" y="176.02" width="1.7" height="0.56"/></g><g class="cls-2"><path class="cls-3" d="M129.28,176.58c1.61,4.19,2.65,10.54,6.73,10.22,3.69-.24,4.54-3.06,5.49-4.75,1.13-2.09,2.65-4.26,4.26-4.66m23.38-.65c-1.61,4.19-4.26,10-7.85,10.14-3.79.16-4.26-3.14-5.12-4.83-1.13-2.09-2.74-4.42-4.35-4.82m-11.74-.65c-.1,1.13-1.14,6.12,5.68,9.18m11.93-9.18c.09,1.13.85,6.12-6,9.18m38.07-23.5c.66,1.77,0,12.31-14.4,13-5.87.33-7.86-1.36-13.54-5.79-3.31-2.66-3.31-6-10.32-6.6m-43.27-.64c-.66,1.77,2.47,12.07,14.4,13,5.87.49,8-1,13.63-5.55,3.31-2.65,2.37-6.28,9.37-6.92M86,147.37c-.09,6.92,11.46,17.62,25.19,17.14,13.25-.48,18.56-5.23,21.21-7.89,6.91-7,10.7-7.4,13.44-7.64m65.81-1.61c.09,6.92-11.46,17.62-25.19,17.14-13.25-.48-16.76-5.39-19.5-8-6.92-6.6-12.41-7.32-15.15-7.56m38-15c.66,1.77,0,12.31-14.4,13-5.87.32-7.86-1.37-13.54-5.8-3.31-2.65-3.31-5.95-10.32-6.6m-43.74-.72c-.66,1.77,3,12.15,15,13.12,5.87.48,7.95-1.05,13.63-5.56,3.32-2.57,2.37-6.27,9.38-6.92m-17-15c.28,2.26,3.31,9.58,9.75,9.34,2.46-.08,4.26-2.9,4.83-4.75a6.84,6.84,0,0,1,2.65-3.46m22.72-1.13c-.28,2.26-3.31,9.58-9.75,9.34-2.46-.08-4.26-2.9-4.83-4.75a6.84,6.84,0,0,0-2.65-3.46m-11.65-1.21c1.23,4.27,1.9,9.82,6,9.42m11.74-9.42c-1.23,4.27-1.89,9.82-6,9.42m-28.21,5c1.61,6.36,4.35,14.08,12.87,14.81,5.88.48,9.09-8.45,9.47-14.17m28.6-.64c-1.61,6.36-4.36,14.08-12.88,14.81-5.87.48-9.09-8.45-9.47-14.17m-11.64-.64c-.29,8.85,3.59,14.16,5.49,13.44M157,133.93c.28,8.85-3.6,14.16-5.4,13.44M123,162.1c.29,3.3,3.6,13.52,11.27,13.44,5.68-.08,6.72-5,7.77-7,1.23-2.33,2.46-5.39,3.59-5.71m28.79-.72c-.29,3.3-3.6,13.52-11.27,13.44-5.68-.08-6.72-5-7.76-7-1.24-2.33-2.47-5.39-3.6-5.71m-11.65-.56c-.47,4.75,1.61,12.63,5.59,12.87m11.55-12.87c.47,4.75-1.61,12.63-5.59,12.87m-46-27.76c0,4.1,7.57,16.9,18.27,16.82,7.86-.08,10.32-3.14,14-7,3-3.22,5.31-6.6,7.77-8.13m46.49-1.53c0,4.1-8.15,16.74-18.75,16.58-7.86-.08-10.32-3.14-14-7-3-3.22-5.31-6.6-7.77-8.13m-23.29-1.53c0,2.57,2.46,14.73,10.89,16.66,2.93.72,3.88-3.54,4.17-5.64a6.75,6.75,0,0,1,2.27-3.62m23.29-7.4c0,2.57-2.46,14.73-10.89,16.66-2.93.72-3.88-3.54-4.16-5.64a6.82,6.82,0,0,0-2.28-3.62m-3.31-57.14V43.87m.57-.16c-1.61,4.43-3.22,8-3.41,13.44-.19,5.72,1.61,7.89,2.74,10.3A15.08,15.08,0,0,1,150,75.26c0,3-1,4.59-1.71,7.57-.75,3.46-1.79,5.55-1.89,9-.09,2.41.66,4.91,1.89,6m.29,21.81v10.55"/></g><g class="cls-2"><path d="M150.4,111.8a1.68,1.68,0,0,0-1.8-1.61,1.74,1.74,0,0,0-1.8,1.61,1.69,1.69,0,0,0,1.8,1.61,1.64,1.64,0,0,0,1.8-1.61"/></g><g class="cls-2"><rect x="147.27" y="113.65" width="2.84" height="1.69"/></g><g class="cls-2"><rect x="147.08" y="116.47" width="3.03" height="0.97"/></g><g class="cls-2"><rect x="147.56" y="117.83" width="2.27" height="0.72"/></g><g class="cls-2"><rect x="147.65" y="119.04" width="1.7" height="0.56"/></g><g class="cls-2"><line class="cls-3" x1="149.07" y1="176.58" x2="149.07" y2="185.51"/></g><line class="cls-4" x1="71.83" y1="100.22" x2="75.23" y2="100.22"/><line class="cls-4" x1="73.53" y1="100.22" x2="73.53" y2="46.68"/><line class="cls-4" x1="71.83" y1="46.68" x2="75.23" y2="46.68"/><g class="cls-5"><path d="M54.87,166.84l10.27,4.56v1.3L54.87,168v5.52H53.81v-6.72Z"/><path d="M65.14,157.56v7.2H63.81l-4.59-4.51-.54-.51a6.62,6.62,0,0,0-.61-.47,3.2,3.2,0,0,0-.67-.33,2.06,2.06,0,0,0-.74-.13,2,2,0,0,0-.83.17,1.74,1.74,0,0,0-.63.47,2.18,2.18,0,0,0-.39.7,2.65,2.65,0,0,0-.13.85,2.28,2.28,0,0,0,.48,1.47,2.17,2.17,0,0,0,1.29.79l-.13,1.21a3.14,3.14,0,0,1-2-1.16,3.49,3.49,0,0,1-.72-2.23,4.59,4.59,0,0,1,.18-1.3,3.31,3.31,0,0,1,.56-1.09,2.5,2.5,0,0,1,.92-.75,2.72,2.72,0,0,1,1.28-.28,3.29,3.29,0,0,1,1.2.2,4.33,4.33,0,0,1,1,.52,6.2,6.2,0,0,1,.91.73c.29.27.57.55.85.84l3.53,3.56v-5.95Z"/><path d="M53.62,152.18a3.21,3.21,0,0,1,.56-2,3.76,3.76,0,0,1,1.42-1.17,6.17,6.17,0,0,1,1.9-.56,13.08,13.08,0,0,1,4,0,6.17,6.17,0,0,1,1.9.56,3.76,3.76,0,0,1,1.42,1.17,3.73,3.73,0,0,1,0,3.93,3.86,3.86,0,0,1-1.42,1.17,6.17,6.17,0,0,1-1.9.56,13.08,13.08,0,0,1-4,0,6.17,6.17,0,0,1-1.9-.56,3.86,3.86,0,0,1-1.42-1.17A3.22,3.22,0,0,1,53.62,152.18Zm1.06,0a2.09,2.09,0,0,0,.49,1.47,3.08,3.08,0,0,0,1.23.81,6.27,6.27,0,0,0,1.57.34c.56,0,1.06.07,1.51.07s1,0,1.5-.07a6.18,6.18,0,0,0,1.57-.34,3.08,3.08,0,0,0,1.23-.81,2.4,2.4,0,0,0,0-2.93,3.08,3.08,0,0,0-1.23-.81,6.18,6.18,0,0,0-1.57-.34c-.55,0-1.06-.07-1.5-.07s-.95,0-1.51.07a6.27,6.27,0,0,0-1.57.34,3.08,3.08,0,0,0-1.23.81A2.08,2.08,0,0,0,54.68,152.18Z"/><path d="M59.32,142.14c-.28,0-.56,0-.84,0l-.83.06v-1.14h1.14v0a2.44,2.44,0,0,1-1-1.07,2.94,2.94,0,0,1-.34-1.35,3.83,3.83,0,0,1,.06-.65,2.51,2.51,0,0,1,.24-.66,2.34,2.34,0,0,1,.47-.6,2.65,2.65,0,0,1,.78-.47,2.38,2.38,0,0,1-1.13-1,3.06,3.06,0,0,1,.34-3.57,3.12,3.12,0,0,1,2.17-.69h4.75V132H60.77a3.13,3.13,0,0,0-1.74.41,1.62,1.62,0,0,0-.61,1.48,2,2,0,0,0,.23,1,1.9,1.9,0,0,0,.62.64,2.42,2.42,0,0,0,.87.36,4.25,4.25,0,0,0,1,.12h4v1.05H60.77a3.13,3.13,0,0,0-1.74.4,1.64,1.64,0,0,0-.61,1.49,3.61,3.61,0,0,0,.06.44,1.65,1.65,0,0,0,.36.71,2.55,2.55,0,0,0,.86.67,3.66,3.66,0,0,0,1.6.29h3.84v1.06Z"/><path d="M59.32,128.51c-.28,0-.56,0-.84,0l-.83.06v-1.14h1.14v0a2.44,2.44,0,0,1-1-1.07,2.94,2.94,0,0,1-.34-1.35,3.83,3.83,0,0,1,.06-.65,2.28,2.28,0,0,1,.24-.66,2.34,2.34,0,0,1,.47-.6,2.45,2.45,0,0,1,.78-.47,2.43,2.43,0,0,1-1.13-1,2.76,2.76,0,0,1-.42-1.45,2.69,2.69,0,0,1,.76-2.12,3.12,3.12,0,0,1,2.17-.69h4.75v1H60.77a3.22,3.22,0,0,0-1.74.4,1.65,1.65,0,0,0-.61,1.49,2,2,0,0,0,.23,1,1.84,1.84,0,0,0,.62.65,2.42,2.42,0,0,0,.87.36,4.25,4.25,0,0,0,1,.11h4v1.06H60.77a3.13,3.13,0,0,0-1.74.4,1.64,1.64,0,0,0-.61,1.49,3.61,3.61,0,0,0,.06.44,1.71,1.71,0,0,0,.36.71,2.53,2.53,0,0,0,.86.66,3.51,3.51,0,0,0,1.6.3h3.84v1.06Z"/></g><g class="cls-5"><path d="M63.94,96.86v7.2H62.62L58,99.55,57.48,99a5.5,5.5,0,0,0-.61-.47,3,3,0,0,0-.67-.33,2.06,2.06,0,0,0-.74-.13,1.87,1.87,0,0,0-.83.17,1.79,1.79,0,0,0-.62.47,2.18,2.18,0,0,0-.39.7,2.41,2.41,0,0,0-.14.85,2.28,2.28,0,0,0,.48,1.47,2.17,2.17,0,0,0,1.29.79l-.12,1.21a3.16,3.16,0,0,1-2-1.16,3.51,3.51,0,0,1-.72-2.23,4.26,4.26,0,0,1,.19-1.3A3.11,3.11,0,0,1,53.16,98a2.58,2.58,0,0,1,.92-.75A2.79,2.79,0,0,1,55.37,97a3.32,3.32,0,0,1,1.2.2,4.46,4.46,0,0,1,1,.52,6.26,6.26,0,0,1,.91.72l.85.84,3.54,3.57v-6Z"/><path d="M57.91,93a2.38,2.38,0,0,1-.37.68,2.82,2.82,0,0,1-1.32.88,2.63,2.63,0,0,1-.84.13,2.9,2.9,0,0,1-1.22-.25,2.83,2.83,0,0,1-.94-.69,3.27,3.27,0,0,1-.59-1,3.62,3.62,0,0,1,0-2.43,3.16,3.16,0,0,1,.59-1,2.83,2.83,0,0,1,.94-.69,2.9,2.9,0,0,1,1.22-.25,2.94,2.94,0,0,1,.84.12,3.1,3.1,0,0,1,.73.36,2.49,2.49,0,0,1,.59.53,2.38,2.38,0,0,1,.37.68h0A2.68,2.68,0,0,1,59,88.48a3.15,3.15,0,0,1,1.92-.58,2.92,2.92,0,0,1,1.33.3,3.08,3.08,0,0,1,1,.78,3.29,3.29,0,0,1,.65,1.14,4.09,4.09,0,0,1,.23,1.36,4.15,4.15,0,0,1-.23,1.37,3.3,3.3,0,0,1-1.66,1.92,2.92,2.92,0,0,1-1.33.3A3.15,3.15,0,0,1,59,94.49,2.68,2.68,0,0,1,57.94,93Zm-2.43-3.49a2.07,2.07,0,0,0-.8.15,1.74,1.74,0,0,0-.63.42,2.09,2.09,0,0,0-.42.64,2.15,2.15,0,0,0-.15.8,2.07,2.07,0,0,0,.15.8,1.87,1.87,0,0,0,.42.64,1.65,1.65,0,0,0,.63.43,2.07,2.07,0,0,0,.8.15,2.11,2.11,0,0,0,.8-.15,1.73,1.73,0,0,0,.63-.43,1.87,1.87,0,0,0,.42-.64,2.07,2.07,0,0,0,.15-.8,2.15,2.15,0,0,0-.15-.8,2.09,2.09,0,0,0-.42-.64,1.83,1.83,0,0,0-.63-.42A2.11,2.11,0,0,0,55.48,89.47Zm5.28-.42a2.34,2.34,0,0,0-1.66.67,2.1,2.1,0,0,0-.48.76,2.73,2.73,0,0,0-.18,1,2.67,2.67,0,0,0,.18,1,2.19,2.19,0,0,0,.48.76,2.38,2.38,0,0,0,3.32,0,2.19,2.19,0,0,0,.48-.76,2.67,2.67,0,0,0,.18-1,2.73,2.73,0,0,0-.18-1,2.1,2.1,0,0,0-.48-.76,2.34,2.34,0,0,0-1.66-.67Z"/><path d="M52.42,82.59a3.24,3.24,0,0,1,.56-2,3.89,3.89,0,0,1,1.43-1.17,6.39,6.39,0,0,1,1.89-.56,15.36,15.36,0,0,1,2-.14,15.09,15.09,0,0,1,2,.14,6.37,6.37,0,0,1,1.9.56,3.89,3.89,0,0,1,1.43,1.17,3.75,3.75,0,0,1,0,3.94,3.77,3.77,0,0,1-1.43,1.16,6.09,6.09,0,0,1-1.9.56,13.58,13.58,0,0,1-2,.15,13.82,13.82,0,0,1-2-.15,6.11,6.11,0,0,1-1.89-.56A3.77,3.77,0,0,1,53,84.56,3.26,3.26,0,0,1,52.42,82.59Zm1.06,0a2,2,0,0,0,.5,1.46,3.08,3.08,0,0,0,1.23.81,5.7,5.7,0,0,0,1.57.34c.55,0,1,.08,1.5.08s.95,0,1.5-.08a5.7,5.7,0,0,0,1.57-.34,3.08,3.08,0,0,0,1.23-.81,2.07,2.07,0,0,0,.5-1.46,2.09,2.09,0,0,0-.5-1.47,3.17,3.17,0,0,0-1.23-.8A5.71,5.71,0,0,0,59.78,80c-.55,0-1.05-.07-1.5-.07s-1,0-1.5.07a5.71,5.71,0,0,0-1.57.35,3.17,3.17,0,0,0-1.23.8A2,2,0,0,0,53.48,82.59Z"/><path d="M52.42,73.69a3.26,3.26,0,0,1,.56-2,3.77,3.77,0,0,1,1.43-1.16A6.11,6.11,0,0,1,56.3,70a13.82,13.82,0,0,1,2-.15,13.58,13.58,0,0,1,2,.15,6.09,6.09,0,0,1,1.9.56,3.77,3.77,0,0,1,1.43,1.16,3.75,3.75,0,0,1,0,3.94,3.89,3.89,0,0,1-1.43,1.17,6.37,6.37,0,0,1-1.9.56,15.09,15.09,0,0,1-2,.14,15.36,15.36,0,0,1-2-.14,6.39,6.39,0,0,1-1.89-.56A3.89,3.89,0,0,1,53,75.66,3.24,3.24,0,0,1,52.42,73.69Zm1.06,0a2,2,0,0,0,.5,1.47,3.17,3.17,0,0,0,1.23.8,5.71,5.71,0,0,0,1.57.35c.55,0,1,.07,1.5.07s.95,0,1.5-.07A5.71,5.71,0,0,0,61.35,76a3.17,3.17,0,0,0,1.23-.8,2.09,2.09,0,0,0,.5-1.47,2.07,2.07,0,0,0-.5-1.46,3.08,3.08,0,0,0-1.23-.81,5.7,5.7,0,0,0-1.57-.34c-.55,0-1.05-.08-1.5-.08s-1,0-1.5.08a5.7,5.7,0,0,0-1.57.34,3.08,3.08,0,0,0-1.23.81A2,2,0,0,0,53.48,73.69Z"/><path d="M58.12,63.64c-.28,0-.56,0-.83,0l-.83,0V62.59h1.13v0a2.44,2.44,0,0,1-1-1.07,3.07,3.07,0,0,1-.34-1.35,3.9,3.9,0,0,1,.07-.65,2.25,2.25,0,0,1,.23-.66,2,2,0,0,1,.47-.6,2.33,2.33,0,0,1,.79-.47,2.51,2.51,0,0,1-1.14-1A3.07,3.07,0,0,1,57,53.16a3.17,3.17,0,0,1,2.17-.68h4.75v1.05H59.58a3.26,3.26,0,0,0-1.75.4,1.67,1.67,0,0,0-.61,1.49,1.87,1.87,0,0,0,.85,1.64,2.58,2.58,0,0,0,.87.36,4.9,4.9,0,0,0,1,.11h4v1.06H59.58a3.17,3.17,0,0,0-1.75.4,1.65,1.65,0,0,0-.61,1.49c0,.06,0,.21.07.44a1.67,1.67,0,0,0,.35.71,2.67,2.67,0,0,0,.86.66,3.53,3.53,0,0,0,1.6.3h3.84v1Z"/><path d="M58.12,50c-.28,0-.56,0-.83,0l-.83.05V49h1.13v0a2.41,2.41,0,0,1-1-1.06,3.07,3.07,0,0,1-.34-1.35,3.9,3.9,0,0,1,.07-.65,2.25,2.25,0,0,1,.23-.66,2,2,0,0,1,.47-.6,2.52,2.52,0,0,1,.79-.48,2.43,2.43,0,0,1-1.14-1A3.07,3.07,0,0,1,57,39.53a3.12,3.12,0,0,1,2.17-.69h4.75V39.9H59.58a3.17,3.17,0,0,0-1.75.4,1.67,1.67,0,0,0-.61,1.49,1.87,1.87,0,0,0,.85,1.64,3.07,3.07,0,0,0,.87.36,4.9,4.9,0,0,0,1,.11h4V45H59.58a3.17,3.17,0,0,0-1.75.4,1.65,1.65,0,0,0-.61,1.48,4.26,4.26,0,0,0,.07.44,1.71,1.71,0,0,0,.35.72,2.67,2.67,0,0,0,.86.66,3.53,3.53,0,0,0,1.6.3h3.84v1Z"/></g><line class="cls-4" x1="84.5" y1="199.22" x2="214" y2="199.22"/><line class="cls-4" x1="84.5" y1="197.52" x2="84.5" y2="200.92"/><line class="cls-4" x1="214" y1="197.52" x2="214" y2="200.92"/><g class="cls-5"><path d="M121.54,212.77a3.52,3.52,0,0,1,.68,1.16,4,4,0,0,1,.25,1.44,4.22,4.22,0,0,1-.29,1.57,3.85,3.85,0,0,1-.83,1.25,3.67,3.67,0,0,1-1.25.82,4.23,4.23,0,0,1-1.61.3,4.15,4.15,0,0,1-1.4-.22,4,4,0,0,1-1.11-.61l-1.08,1.09-.51-.5,1.06-1.09a3.62,3.62,0,0,1-.69-1.17,4.23,4.23,0,0,1-.24-1.44,4,4,0,0,1,.3-1.56,3.67,3.67,0,0,1,.82-1.25,3.79,3.79,0,0,1,1.26-.83,4.29,4.29,0,0,1,1.59-.29,4.45,4.45,0,0,1,1.39.21,3.86,3.86,0,0,1,1.15.62l1.06-1.09.51.5Zm-1.24.25a2.7,2.7,0,0,0-1.81-.62,3,3,0,0,0-1.18.23,2.82,2.82,0,0,0-.88.63,3,3,0,0,0-.56,1,3.41,3.41,0,0,0-.2,1.16,3,3,0,0,0,.55,1.83Zm-3.6,4.72a2.72,2.72,0,0,0,.8.45,2.78,2.78,0,0,0,1,.16,2.87,2.87,0,0,0,1.17-.23,2.76,2.76,0,0,0,.89-.63,2.68,2.68,0,0,0,.57-1,3.42,3.42,0,0,0,.2-1.17,3.13,3.13,0,0,0-.54-1.82Z"/><path d="M130.66,213.09a2.41,2.41,0,0,1-.68-.38,2.93,2.93,0,0,1-.53-.58,2.79,2.79,0,0,1-.35-.74,2.57,2.57,0,0,1-.13-.83,2.91,2.91,0,0,1,.25-1.23,2.79,2.79,0,0,1,.69-.93,3.09,3.09,0,0,1,1-.59,3.62,3.62,0,0,1,2.43,0,3,3,0,0,1,1,.59,2.79,2.79,0,0,1,.69.93,2.91,2.91,0,0,1,.25,1.23,2.87,2.87,0,0,1-.12.83,3.17,3.17,0,0,1-.36.74,2.65,2.65,0,0,1-.53.58,2.41,2.41,0,0,1-.68.38v0a2.67,2.67,0,0,1,1.53,1,3.19,3.19,0,0,1,.58,1.92,2.89,2.89,0,0,1-.3,1.33,3.15,3.15,0,0,1-.78,1,3.46,3.46,0,0,1-1.14.65,4.08,4.08,0,0,1-1.36.22,4.14,4.14,0,0,1-1.37-.22,3.56,3.56,0,0,1-1.14-.65,3.15,3.15,0,0,1-.78-1,2.89,2.89,0,0,1-.3-1.33,3.19,3.19,0,0,1,.58-1.92,2.67,2.67,0,0,1,1.53-1Zm3.91,2.84a2.36,2.36,0,0,0-.18-.92,2.29,2.29,0,0,0-.49-.73,2.12,2.12,0,0,0-.76-.49,2.73,2.73,0,0,0-1-.18,2.67,2.67,0,0,0-1,.18,2.21,2.21,0,0,0-.76.49,2.29,2.29,0,0,0-.49.73,2.36,2.36,0,0,0-.18.92,2.32,2.32,0,0,0,.18.92,2.18,2.18,0,0,0,1.25,1.23,2.68,2.68,0,0,0,1,.17,2.73,2.73,0,0,0,1-.17,2.12,2.12,0,0,0,.76-.49,2.22,2.22,0,0,0,.49-.74A2.32,2.32,0,0,0,134.57,215.93Zm-.42-5.28a2.15,2.15,0,0,0-.15-.8,1.93,1.93,0,0,0-.42-.63,2.26,2.26,0,0,0-.64-.41,2.15,2.15,0,0,0-.8-.16,2.08,2.08,0,0,0-.8.16,2,2,0,0,0-.64.41,1.81,1.81,0,0,0-.43.63,2.15,2.15,0,0,0-.15.8,2.07,2.07,0,0,0,.15.8,1.76,1.76,0,0,0,.43.64,2,2,0,0,0,.64.41,2.07,2.07,0,0,0,.8.15,2.15,2.15,0,0,0,.8-.15,2.26,2.26,0,0,0,.64-.41,1.87,1.87,0,0,0,.42-.64A2.07,2.07,0,0,0,134.15,210.65Z"/><path d="M139.56,213.09a2.28,2.28,0,0,1-.68-.38,2.7,2.7,0,0,1-.54-.58,3.14,3.14,0,0,1-.35-.74,2.88,2.88,0,0,1-.13-.83,2.91,2.91,0,0,1,.26-1.23,2.79,2.79,0,0,1,.69-.93,3,3,0,0,1,1-.59,3.46,3.46,0,0,1,1.21-.21,3.56,3.56,0,0,1,1.22.21,3.09,3.09,0,0,1,1,.59,2.87,2.87,0,0,1,.94,2.16,2.57,2.57,0,0,1-.13.83,2.79,2.79,0,0,1-.35.74,2.7,2.7,0,0,1-.54.58,2.16,2.16,0,0,1-.68.38v0a2.69,2.69,0,0,1,1.54,1,3.26,3.26,0,0,1,.58,1.92,2.89,2.89,0,0,1-.3,1.33,3.3,3.3,0,0,1-.78,1,3.56,3.56,0,0,1-1.14.65,4.14,4.14,0,0,1-1.37.22,4.18,4.18,0,0,1-1.37-.22,3.41,3.41,0,0,1-1.13-.65,3.18,3.18,0,0,1-.79-1,3,3,0,0,1-.29-1.33,3.25,3.25,0,0,1,.57-1.92,2.72,2.72,0,0,1,1.54-1Zm3.9,2.84a2.55,2.55,0,0,0-.17-.92,2.29,2.29,0,0,0-.49-.73,2.16,2.16,0,0,0-.77-.49,2.9,2.9,0,0,0-2,0,2.21,2.21,0,0,0-.76.49,2.26,2.26,0,0,0-.48.73,2.36,2.36,0,0,0-.18.92,2.32,2.32,0,0,0,.18.92,2.13,2.13,0,0,0,1.24,1.23,3.06,3.06,0,0,0,2,0,2.16,2.16,0,0,0,.77-.49,2.22,2.22,0,0,0,.49-.74A2.51,2.51,0,0,0,143.46,215.93Zm-.41-5.28a1.92,1.92,0,0,0-.58-1.43,2,2,0,0,0-.64-.41,2.08,2.08,0,0,0-.8-.16,2.13,2.13,0,0,0-1.44.57,1.93,1.93,0,0,0-.42.63,2.15,2.15,0,0,0-.15.8,2.07,2.07,0,0,0,.15.8,1.87,1.87,0,0,0,.42.64,2.06,2.06,0,0,0,1.44.56,2.07,2.07,0,0,0,.8-.15,2,2,0,0,0,.64-.41,2,2,0,0,0,.58-1.44Z"/><path d="M149.93,207.6a3.26,3.26,0,0,1,2,.56,3.74,3.74,0,0,1,1.16,1.42,6.17,6.17,0,0,1,.56,1.9,13.08,13.08,0,0,1,0,4,6.17,6.17,0,0,1-.56,1.9,3.74,3.74,0,0,1-1.16,1.42,3.75,3.75,0,0,1-3.94,0,3.86,3.86,0,0,1-1.17-1.42,6.45,6.45,0,0,1-.56-1.9,14,14,0,0,1,0-4,6.45,6.45,0,0,1,.56-1.9,3.86,3.86,0,0,1,1.17-1.42A3.24,3.24,0,0,1,149.93,207.6Zm0,1.05a2.09,2.09,0,0,0-1.47.5,3.17,3.17,0,0,0-.8,1.23,5.79,5.79,0,0,0-.35,1.57c-.05.55-.07,1.06-.07,1.5s0,1,.07,1.51a5.79,5.79,0,0,0,.35,1.57,3.17,3.17,0,0,0,.8,1.23,2.09,2.09,0,0,0,1.47.49,2.06,2.06,0,0,0,1.46-.49,3.08,3.08,0,0,0,.81-1.23,5.78,5.78,0,0,0,.34-1.57c.05-.56.08-1.06.08-1.51s0-.95-.08-1.5a5.78,5.78,0,0,0-.34-1.57,3.08,3.08,0,0,0-.81-1.23A2.07,2.07,0,0,0,149.93,208.65Z"/><path d="M160,213.29c0-.27,0-.55,0-.83s0-.55-.06-.83H161v1.14h0a2.52,2.52,0,0,1,1.07-1,3.05,3.05,0,0,1,1.35-.33,3.83,3.83,0,0,1,.65.06,2.25,2.25,0,0,1,.66.23,2.39,2.39,0,0,1,.6.48,2.28,2.28,0,0,1,.47.78,2.56,2.56,0,0,1,1-1.14,2.85,2.85,0,0,1,1.45-.41,2.73,2.73,0,0,1,2.13.76,3.17,3.17,0,0,1,.68,2.17v4.75h-1v-4.37a3.2,3.2,0,0,0-.4-1.74,1.65,1.65,0,0,0-1.49-.61,2,2,0,0,0-1,.23,1.84,1.84,0,0,0-.65.62,2.42,2.42,0,0,0-.36.87,4.17,4.17,0,0,0-.11,1v4H165v-4.37a3.11,3.11,0,0,0-.4-1.74,1.64,1.64,0,0,0-1.49-.61l-.44.06a1.67,1.67,0,0,0-.71.35,2.58,2.58,0,0,0-.66.87,3.51,3.51,0,0,0-.3,1.6v3.84H160Z"/><path d="M173.61,213.29c0-.27,0-.55,0-.83s0-.55-.05-.83h1.13v1.14h0a2.5,2.5,0,0,1,1.06-1,3.05,3.05,0,0,1,1.35-.33,3.83,3.83,0,0,1,.65.06,2.25,2.25,0,0,1,.66.23,2.08,2.08,0,0,1,.6.48,2.47,2.47,0,0,1,.48.78,2.48,2.48,0,0,1,1-1.14,2.85,2.85,0,0,1,1.45-.41,2.73,2.73,0,0,1,2.13.76,3.17,3.17,0,0,1,.68,2.17v4.75h-1.05v-4.37a3.2,3.2,0,0,0-.4-1.74,1.64,1.64,0,0,0-1.49-.61,2,2,0,0,0-1,.23,1.93,1.93,0,0,0-.65.62,2.84,2.84,0,0,0-.36.87,4.74,4.74,0,0,0-.11,1v4h-1.06v-4.37a3.11,3.11,0,0,0-.4-1.74,1.63,1.63,0,0,0-1.49-.61l-.44.06a1.73,1.73,0,0,0-.71.35,2.72,2.72,0,0,0-.66.87,3.51,3.51,0,0,0-.3,1.6v3.84h-1Z"/></g><line class="cls-4" x1="73.53" y1="190.58" x2="73.53" y2="99.89"/><line class="cls-4" x1="71.83" y1="99.87" x2="75.23" y2="99.87"/><line class="cls-4" x1="71" y1="190.58" x2="76.06" y2="190.58"/></svg>