<?xml version="1.0" encoding="utf-8"?>
<!-- Generator: Adobe Illustrator 22.0.1, SVG Export Plug-In . SVG Version: 6.00 Build 0)  -->
<!DOCTYPE svg PUBLIC "-//W3C//DTD SVG 1.1//EN" "http://www.w3.org/Graphics/SVG/1.1/DTD/svg11.dtd">
<svg version="1.1" id="_2620" xmlns="http://www.w3.org/2000/svg" xmlns:xlink="http://www.w3.org/1999/xlink" x="0px" y="0px"
	 viewBox="0 0 300 263" style="enable-background:new 0 0 300 263;" xml:space="preserve">
<style type="text/css">
	.st0{fill:none;stroke:#000000;stroke-width:0.5;}
	.st1{fill:none;stroke:#1D1D1B;stroke-width:0.5;stroke-linecap:round;stroke-linejoin:round;stroke-miterlimit:10;}
	
		.st2{clip-path:url(#SVGID_1_);fill:none;stroke:#1D1D1B;stroke-width:0.5;stroke-linecap:round;stroke-linejoin:round;stroke-miterlimit:10;}
	
		.st3{clip-path:url(#SVGID_4_);fill:none;stroke:#1D1D1B;stroke-width:0.5;stroke-linecap:round;stroke-linejoin:round;stroke-miterlimit:10;}
	
		.st4{clip-path:url(#SVGID_9_);fill:none;stroke:#1D1D1B;stroke-width:0.5;stroke-linecap:round;stroke-linejoin:round;stroke-miterlimit:10;}
	
		.st5{clip-path:url(#SVGID_12_);fill:none;stroke:#1D1D1B;stroke-width:0.5;stroke-linecap:round;stroke-linejoin:round;stroke-miterlimit:10;}
	
		.st6{clip-path:url(#SVGID_14_);fill:none;stroke:#1D1D1B;stroke-width:0.5;stroke-linecap:round;stroke-linejoin:round;stroke-miterlimit:10;}
	
		.st7{clip-path:url(#SVGID_17_);fill:none;stroke:#1D1D1B;stroke-width:0.5;stroke-linecap:round;stroke-linejoin:round;stroke-miterlimit:10;}
	
		.st8{clip-path:url(#SVGID_18_);fill:none;stroke:#1D1D1B;stroke-width:0.5;stroke-linecap:round;stroke-linejoin:round;stroke-miterlimit:10;}
	
		.st9{clip-path:url(#SVGID_19_);fill:none;stroke:#1D1D1B;stroke-width:0.5;stroke-linecap:round;stroke-linejoin:round;stroke-miterlimit:10;}
	
		.st10{clip-path:url(#SVGID_20_);fill:none;stroke:#1D1D1B;stroke-width:0.5;stroke-linecap:round;stroke-linejoin:round;stroke-miterlimit:10;}
	
		.st11{clip-path:url(#SVGID_21_);fill:none;stroke:#1D1D1B;stroke-width:0.5;stroke-linecap:round;stroke-linejoin:round;stroke-miterlimit:10;}
	
		.st12{clip-path:url(#SVGID_23_);fill:none;stroke:#1D1D1B;stroke-width:0.5;stroke-linecap:round;stroke-linejoin:round;stroke-miterlimit:10;}
	
		.st13{clip-path:url(#SVGID_24_);fill:none;stroke:#1D1D1B;stroke-width:0.5;stroke-linecap:round;stroke-linejoin:round;stroke-miterlimit:10;}
	
		.st14{clip-path:url(#SVGID_25_);fill:none;stroke:#1D1D1B;stroke-width:0.5;stroke-linecap:round;stroke-linejoin:round;stroke-miterlimit:10;}
	
		.st15{clip-path:url(#SVGID_26_);fill:none;stroke:#1D1D1B;stroke-width:0.5;stroke-linecap:round;stroke-linejoin:round;stroke-miterlimit:10;}
	
		.st16{clip-path:url(#SVGID_27_);fill:none;stroke:#1D1D1B;stroke-width:0.5;stroke-linecap:round;stroke-linejoin:round;stroke-miterlimit:10;}
</style>
<title>2620_prova</title>
<g>
	<line class="st0" x1="73.4" y1="109.5" x2="76.8" y2="109.5"/>
	<g>
		<line class="st0" x1="75.1" y1="109.5" x2="75.1" y2="46.1"/>
		<line class="st0" x1="73.4" y1="46.1" x2="76.8" y2="46.1"/>
	</g>
</g>
<g>
	<path d="M56.4,185.3l10.3,4.6v1.3l-10.3-4.7v5.5h-1.1v-6.7L56.4,185.3z"/>
	<path d="M60.2,180.7v-0.6c0-0.3,0-0.7-0.1-1s-0.2-0.6-0.4-0.8s-0.4-0.4-0.7-0.5s-0.7-0.2-1-0.2c-0.5,0-1,0.2-1.4,0.6
		c-0.4,0.4-0.5,1-0.5,1.5c0,0.4,0.1,0.9,0.3,1.3c0.2,0.4,0.5,0.7,0.9,0.9l-0.5,1c-0.6-0.3-1-0.8-1.3-1.3c-0.3-0.6-0.5-1.2-0.4-1.8
		c0-0.4,0.1-0.9,0.2-1.3c0.1-0.4,0.3-0.7,0.6-1s0.6-0.5,0.9-0.7c0.4-0.2,0.8-0.3,1.2-0.3c0.3,0,0.6,0,0.9,0.1
		c0.3,0.1,0.5,0.2,0.8,0.4c0.2,0.2,0.4,0.4,0.6,0.6c0.2,0.2,0.3,0.5,0.4,0.7l0,0c0.1-0.3,0.2-0.6,0.4-0.9c0.2-0.3,0.4-0.5,0.6-0.7
		c0.3-0.2,0.6-0.3,0.9-0.4c0.3-0.1,0.7-0.2,1-0.2c0.5,0,1,0.1,1.4,0.3c0.4,0.2,0.7,0.5,1,0.8s0.5,0.7,0.6,1.1
		c0.4,1.2,0.3,2.5-0.3,3.6c-0.4,0.6-1,1.1-1.8,1.4l-0.4-1.2c0.5-0.2,0.9-0.5,1.2-0.9c0.3-0.5,0.4-1,0.4-1.6c0-0.3-0.1-0.6-0.2-0.9
		c-0.1-0.3-0.2-0.5-0.4-0.8c-0.2-0.2-0.4-0.4-0.7-0.5c-0.3-0.1-0.6-0.2-0.9-0.2c-0.4,0-0.7,0.1-1.1,0.2c-0.3,0.2-0.5,0.4-0.7,0.6
		c-0.2,0.3-0.3,0.6-0.4,0.9c-0.1,0.4-0.1,0.7-0.1,1.1v0.5L60.2,180.7z"/>
	<path d="M55.2,170.6c0-0.7,0.2-1.4,0.6-2c0.4-0.5,0.9-0.9,1.4-1.2c0.6-0.3,1.2-0.5,1.9-0.6c1.3-0.2,2.6-0.2,4,0
		c0.7,0.1,1.3,0.3,1.9,0.6s1,0.7,1.4,1.2c0.7,1.2,0.7,2.7,0,3.9c-0.4,0.5-0.9,0.9-1.4,1.2c-0.6,0.3-1.2,0.5-1.9,0.6
		c-1.3,0.2-2.6,0.2-4,0c-0.7-0.1-1.3-0.3-1.9-0.6c-0.6-0.3-1.1-0.7-1.4-1.2C55.3,172,55.1,171.3,55.2,170.6z M56.2,170.6
		c0,0.5,0.2,1.1,0.5,1.5s0.8,0.6,1.2,0.8c0.5,0.2,1,0.3,1.6,0.3c0.5,0.1,1.1,0.1,1.5,0.1s1,0,1.5-0.1c0.5,0,1.1-0.2,1.6-0.3
		c0.5-0.2,0.9-0.4,1.2-0.8c0.7-0.9,0.7-2.1,0-2.9c-0.3-0.4-0.8-0.6-1.2-0.8c-0.5-0.2-1-0.3-1.6-0.3c-0.5,0-1.1,0-1.5,0s-1,0-1.5,0.1
		c-0.5,0-1.1,0.2-1.6,0.3c-0.5,0.2-0.9,0.4-1.2,0.8C56.4,169.6,56.2,170.1,56.2,170.6z"/>
	<path d="M60.8,160.6H60l-0.8,0.1v-1.1h1.1l0,0c-0.4-0.2-0.8-0.6-1-1.1c-0.2-0.4-0.3-0.9-0.3-1.4c0-0.2,0-0.4,0.1-0.6
		c0-0.2,0.1-0.5,0.2-0.7c0.1-0.2,0.3-0.4,0.5-0.6c0.2-0.2,0.5-0.4,0.8-0.5c-0.5-0.2-0.9-0.6-1.1-1c-0.3-0.4-0.4-0.9-0.4-1.4
		c-0.1-0.8,0.2-1.6,0.8-2.1s1.4-0.7,2.2-0.7h4.8v1.1h-4.4c-0.6,0-1.2,0.1-1.7,0.4c-0.4,0.4-0.7,0.9-0.6,1.5c0,0.3,0.1,0.7,0.2,1
		c0.2,0.3,0.4,0.5,0.6,0.6c0.3,0.2,0.6,0.3,0.9,0.4c0.3,0.1,0.7,0.1,1,0.1h4v1.1h-4.4c-0.6,0-1.2,0.1-1.7,0.4
		c-0.4,0.4-0.7,0.9-0.6,1.5c0,0.1,0,0.3,0.1,0.4c0.1,0.3,0.2,0.5,0.3,0.7c0.2,0.3,0.5,0.5,0.9,0.7c0.5,0.2,1.1,0.3,1.6,0.3h3.8v1.1
		L60.8,160.6z"/>
	<path d="M60.8,147c-0.3,0-0.5,0-0.8,0l-0.8,0.1v-1.2h1.1l0,0c-0.4-0.2-0.8-0.6-1-1.1c-0.2-0.4-0.3-0.9-0.3-1.4c0-0.2,0-0.4,0.1-0.6
		c0-0.2,0.1-0.5,0.2-0.7c0.1-0.2,0.3-0.4,0.5-0.6c0.2-0.2,0.5-0.4,0.8-0.5c-0.5-0.2-0.9-0.6-1.1-1c-0.3-0.5-0.4-1-0.4-1.5
		c-0.1-0.8,0.2-1.6,0.8-2.1s1.4-0.7,2.2-0.7h4.8v1.1h-4.4c-0.6,0-1.2,0.1-1.7,0.4c-0.4,0.4-0.7,0.9-0.6,1.5c0,0.3,0.1,0.7,0.2,1
		c0.1,0.3,0.4,0.5,0.6,0.6c0.3,0.2,0.6,0.3,0.9,0.4c0.3,0.1,0.7,0.1,1,0.1h4v1.1h-4.4c-0.6,0-1.2,0.1-1.7,0.4
		c-0.4,0.4-0.7,0.9-0.6,1.5c0,0.1,0,0.3,0.1,0.4c0.1,0.3,0.2,0.5,0.3,0.7c0.2,0.3,0.5,0.5,0.9,0.7c0.5,0.2,1.1,0.3,1.6,0.3h3.8v1.1
		H60.8z"/>
</g>
<g>
	<path d="M61.7,104.8v-1.6h1v1.6h2.7v1.2h-2.7v4.9h-1.3l-7.3-4.6v-1.5H61.7z M55.3,105.9L55.3,105.9l6.4,3.9v-3.9H55.3z"/>
	<path d="M54,98.1c0-0.7,0.2-1.4,0.6-2c0.4-0.5,0.9-0.9,1.4-1.2c0.6-0.3,1.2-0.5,1.9-0.6s1.3-0.1,2-0.1s1.3,0,2,0.1s1.3,0.3,1.9,0.6
		c0.5,0.3,1,0.7,1.3,1.2c0.7,1.2,0.7,2.7,0,3.9c-0.4,0.5-0.9,0.9-1.4,1.2c-0.6,0.3-1.2,0.5-1.9,0.6s-1.3,0.1-2,0.2
		c-0.7,0-1.3-0.1-2-0.2s-1.3-0.3-1.9-0.6c-0.6-0.3-1-0.7-1.4-1.2C54.1,99.4,54,98.8,54,98.1z M55.1,98.1c0,0.5,0.1,1.1,0.5,1.5
		c0.3,0.4,0.8,0.6,1.2,0.8c0.5,0.2,1,0.3,1.6,0.3s1.1,0.1,1.5,0.1s1,0,1.5-0.1c0.5,0,1.1-0.2,1.6-0.3c0.5-0.2,0.9-0.4,1.2-0.8
		c0.3-0.4,0.5-0.9,0.5-1.5c0-0.5-0.2-1.1-0.5-1.5c-0.3-0.4-0.8-0.6-1.2-0.8c-0.5-0.2-1-0.3-1.6-0.3c-0.5,0-1-0.1-1.5-0.1
		s-1,0-1.5,0.1c-0.5,0-1.1,0.2-1.6,0.3c-0.5,0.2-0.9,0.5-1.2,0.8C55.2,97,55,97.5,55.1,98.1L55.1,98.1z"/>
	<path d="M54,89.2c0-0.7,0.2-1.4,0.6-2c0.4-0.5,0.8-0.9,1.4-1.2c0.6-0.3,1.2-0.5,1.9-0.6s1.3-0.1,2-0.1s1.3,0,2,0.1s1.3,0.3,1.9,0.6
		c0.5,0.3,1,0.7,1.4,1.2c0.7,1.2,0.7,2.7,0,3.9c-0.4,0.5-0.9,0.9-1.4,1.2c-0.6,0.3-1.2,0.5-1.9,0.6s-1.3,0.1-2,0.1s-1.3,0-2-0.1
		s-1.3-0.3-1.9-0.6c-0.6-0.3-1.1-0.7-1.4-1.2C54.1,90.5,53.9,89.9,54,89.2z M55.1,89.2c0,0.5,0.1,1.1,0.5,1.5
		c0.3,0.4,0.8,0.6,1.2,0.8c0.5,0.2,1,0.3,1.6,0.3s1.1,0.1,1.5,0.1s1,0,1.5-0.1c0.5,0,1.1-0.2,1.6-0.3c0.5-0.2,0.9-0.4,1.2-0.8
		c0.7-0.9,0.7-2.1,0-2.9c-0.3-0.4-0.8-0.6-1.2-0.8c-0.5-0.2-1-0.3-1.6-0.3c-0.5,0-1-0.1-1.5-0.1s-1,0-1.5,0.1
		c-0.5,0-1.1,0.2-1.6,0.3c-0.5,0.2-0.9,0.4-1.2,0.8C55.2,88.1,55,88.6,55.1,89.2L55.1,89.2z"/>
	<path d="M54,80.3c0-0.7,0.2-1.4,0.6-2c0.4-0.5,0.9-0.9,1.4-1.2c0.6-0.3,1.2-0.5,1.9-0.6s1.3-0.1,2-0.2c0.7,0,1.3,0.1,2,0.2
		s1.3,0.3,1.9,0.6c0.6,0.3,1.1,0.7,1.4,1.2c0.7,1.2,0.7,2.7,0,3.9c-0.4,0.5-0.9,0.9-1.4,1.2c-0.6,0.3-1.2,0.5-1.9,0.6
		s-1.3,0.1-2,0.1s-1.3,0-2-0.1s-1.3-0.3-1.9-0.6c-0.6-0.3-1.1-0.7-1.4-1.2C54.2,81.6,54,81,54,80.3z M55.1,80.3
		c0,0.5,0.1,1.1,0.5,1.5c0.3,0.4,0.8,0.6,1.2,0.8c0.5,0.2,1,0.3,1.6,0.3s1.1,0.1,1.5,0.1s1,0,1.5-0.1c0.5,0,1.1-0.2,1.6-0.3
		c0.5-0.2,0.9-0.4,1.2-0.8c0.7-0.9,0.7-2.1,0-2.9c-0.4-0.4-0.8-0.7-1.3-0.8c-0.5-0.2-1-0.3-1.6-0.3c-0.5,0-1-0.1-1.5-0.1
		s-1,0-1.5,0.1c-0.5,0-1.1,0.2-1.6,0.3c-0.5,0.2-0.9,0.4-1.2,0.8C55.2,79.2,55,79.7,55.1,80.3L55.1,80.3z"/>
	<path d="M59.7,70.2c-0.3,0-0.6,0-0.8,0L58,70.3v-1.1h1.1l0,0c-0.4-0.2-0.8-0.6-1-1.1c-0.2-0.4-0.3-0.9-0.3-1.3c0-0.2,0-0.4,0.1-0.7
		c0-0.2,0.1-0.5,0.2-0.7c0.1-0.2,0.3-0.4,0.5-0.6s0.5-0.4,0.8-0.5c-0.5-0.2-0.9-0.6-1.1-1c-0.3-0.4-0.4-0.9-0.4-1.5
		c-0.1-0.8,0.2-1.6,0.8-2.1s1.4-0.7,2.2-0.7h4.8v1h-4.4c-0.6,0-1.2,0.1-1.7,0.4c-0.4,0.4-0.7,0.9-0.6,1.5c0,0.3,0.1,0.7,0.2,1
		c0.1,0.3,0.4,0.5,0.6,0.7c0.3,0.2,0.6,0.3,0.9,0.4c0.3,0.1,0.7,0.1,1,0.1h4v1.1h-4.4c-0.6,0-1.2,0.1-1.7,0.4
		c-0.4,0.4-0.7,0.9-0.6,1.5c0,0.1,0,0.3,0.1,0.4c0.1,0.3,0.2,0.5,0.4,0.7c0.2,0.3,0.5,0.5,0.9,0.7c0.5,0.2,1.1,0.3,1.6,0.3h3.8v1.1
		L59.7,70.2z"/>
	<path d="M59.7,56.6h-0.8h-0.8v-1.1h1.1l0,0c-0.4-0.2-0.8-0.6-1-1.1c-0.2-0.4-0.3-0.9-0.3-1.3c0-0.2,0-0.4,0.1-0.7
		c0-0.2,0.1-0.5,0.2-0.7c0.1-0.2,0.3-0.4,0.5-0.6c0.2-0.2,0.5-0.4,0.8-0.5c-0.5-0.2-0.9-0.6-1.1-1c-0.3-0.4-0.4-0.9-0.4-1.5
		c-0.1-0.8,0.2-1.6,0.8-2.1s1.4-0.7,2.2-0.7h4.8v1h-4.4c-0.6,0-1.2,0.1-1.7,0.4c-0.4,0.4-0.7,0.9-0.6,1.5c0,0.3,0.1,0.7,0.2,1
		c0.2,0.3,0.4,0.5,0.6,0.7c0.3,0.2,0.6,0.3,0.9,0.4c0.3,0.1,0.7,0.1,1,0.1h4v1.1h-4.4c-0.6,0-1.2,0.1-1.7,0.4
		c-0.4,0.4-0.7,0.9-0.6,1.5c0,0.1,0,0.3,0.1,0.4c0.1,0.3,0.2,0.5,0.4,0.7c0.2,0.3,0.5,0.5,0.9,0.7c0.5,0.2,1.1,0.3,1.6,0.3h3.8v1
		L59.7,56.6z"/>
</g>
<g>
	<line class="st0" x1="86.5" y1="229.5" x2="213" y2="229.5"/>
	<line class="st0" x1="86.5" y1="228.7" x2="86.5" y2="230.4"/>
	<line class="st0" x1="213" y1="228.7" x2="213" y2="230.4"/>
</g>
<g>
	<line class="st0" x1="116.7" y1="38.7" x2="183.4" y2="38.7"/>
	<line class="st0" x1="116.7" y1="36.5" x2="116.7" y2="39.9"/>
	<line class="st0" x1="183.4" y1="36.5" x2="183.4" y2="39.9"/>
</g>
<g>
	<path d="M121.4,241.3c0.3,0.3,0.5,0.7,0.7,1.2c0.4,1,0.4,2,0,3c-0.2,0.5-0.5,0.9-0.8,1.2c-0.4,0.4-0.8,0.6-1.3,0.8
		c-1,0.4-2,0.4-3,0.1c-0.4-0.1-0.8-0.3-1.1-0.6l-1.1,1.1l-0.5-0.5l1-1.1c-0.3-0.3-0.5-0.7-0.7-1.2s-0.2-0.9-0.2-1.4s0.1-1.1,0.3-1.6
		c0.2-0.5,0.5-0.9,0.8-1.2c0.4-0.4,0.8-0.6,1.2-0.8c0.5-0.2,1-0.3,1.6-0.3c0.5,0,0.9,0.1,1.4,0.2c0.4,0.1,0.8,0.4,1.2,0.6l1-1.1
		l0.5,0.5L121.4,241.3z M120.1,241.6c-0.5-0.4-1.2-0.6-1.8-0.6c-0.4,0-0.8,0.1-1.2,0.2c-0.3,0.1-0.6,0.4-0.9,0.6
		c-0.2,0.3-0.4,0.6-0.6,0.9c-0.1,0.4-0.2,0.8-0.2,1.2c0,0.7,0.2,1.3,0.5,1.8L120.1,241.6z M116.5,246.3c0.2,0.2,0.5,0.3,0.8,0.4
		c0.3,0.1,0.7,0.2,1,0.2c0.4,0,0.8-0.1,1.2-0.2c0.3-0.2,0.6-0.4,0.9-0.6c0.2-0.3,0.4-0.6,0.6-0.9c0.1-0.4,0.2-0.8,0.2-1.2
		c0-0.6-0.2-1.3-0.6-1.8L116.5,246.3z"/>
	<path d="M133.3,242.8L133.3,242.8c-0.2,0.1-0.5,0.2-0.7,0.3c-0.3,0.1-0.6,0.1-0.8,0.1c-0.9,0-1.8-0.3-2.5-1
		c-0.3-0.3-0.6-0.7-0.7-1.1c-0.4-0.9-0.4-1.9,0-2.8c0.2-0.4,0.4-0.8,0.8-1.1c0.3-0.3,0.7-0.6,1.2-0.7c0.5-0.2,1-0.3,1.5-0.2
		c0.5,0,1,0.1,1.5,0.2c0.4,0.2,0.8,0.4,1.2,0.7c0.3,0.3,0.6,0.7,0.8,1.1c0.2,0.5,0.3,0.9,0.3,1.4c0,0.6-0.1,1.1-0.3,1.6
		s-0.4,0.9-0.7,1.4l-3.1,5h-1.4L133.3,242.8z M134.5,239.6c0-0.3-0.1-0.7-0.2-1c-0.1-0.3-0.3-0.6-0.5-0.8c-0.5-0.5-1.2-0.7-1.8-0.7
		c-0.3,0-0.7,0.1-1,0.2c-0.3,0.1-0.6,0.3-0.8,0.5s-0.4,0.5-0.5,0.8c-0.3,0.6-0.3,1.4,0,2c0.1,0.3,0.3,0.6,0.5,0.8s0.5,0.4,0.8,0.5
		s0.7,0.2,1,0.2s0.7-0.1,1-0.2c0.6-0.2,1.1-0.7,1.3-1.3C134.4,240.3,134.5,240,134.5,239.6L134.5,239.6z"/>
	<path d="M144,237.4l-4.6,10.3h-1.3l4.6-10.3h-5.5v-1h6.7v1H144z"/>
	<path d="M148.4,241.2L148.4,241.2c0.2-0.1,0.5-0.2,0.7-0.3c0.7-0.2,1.5-0.1,2.2,0.2c0.8,0.3,1.5,1,1.8,1.8c0.2,0.4,0.3,0.9,0.3,1.4
		s-0.1,1-0.3,1.4s-0.4,0.8-0.8,1.1c-0.3,0.3-0.7,0.6-1.2,0.7c-1,0.3-2,0.3-2.9,0c-0.4-0.2-0.8-0.4-1.2-0.7c-0.3-0.3-0.6-0.7-0.8-1.1
		c-0.2-0.5-0.3-0.9-0.3-1.4c0-0.6,0.1-1.1,0.3-1.6s0.4-1,0.7-1.4l3.1-5h1.4L148.4,241.2z M147.2,244.3c0,0.3,0.1,0.7,0.2,1
		c0.1,0.3,0.3,0.5,0.5,0.8c0.2,0.2,0.5,0.4,0.8,0.5c0.7,0.2,1.4,0.2,2.1,0c0.6-0.2,1.1-0.7,1.3-1.3s0.2-1.4,0-2
		c-0.1-0.3-0.3-0.6-0.5-0.8s-0.5-0.4-0.8-0.5c-0.7-0.2-1.4-0.2-2.1,0c-0.3,0.1-0.6,0.3-0.8,0.5s-0.4,0.5-0.5,0.8
		C147.3,243.7,147.2,244,147.2,244.3L147.2,244.3z"/>
	<path d="M159.8,241.8c0-0.3,0-0.6,0-0.8l-0.1-0.8h1.1v1.1l0,0c0.3-0.4,0.6-0.8,1.1-1c0.4-0.2,0.9-0.3,1.4-0.3c0.2,0,0.4,0,0.6,0.1
		c0.2,0,0.5,0.1,0.7,0.2c0.2,0.1,0.4,0.3,0.6,0.5c0.2,0.2,0.4,0.5,0.5,0.8c0.2-0.5,0.6-0.9,1-1.1c0.4-0.3,0.9-0.4,1.4-0.4
		c0.8-0.1,1.6,0.2,2.1,0.8s0.7,1.4,0.7,2.2v4.8h-1.1v-4.4c0-0.6-0.1-1.2-0.4-1.8c-0.4-0.4-0.9-0.7-1.5-0.6c-0.3,0-0.7,0.1-1,0.2
		c-0.3,0.1-0.5,0.4-0.6,0.6c-0.2,0.3-0.3,0.6-0.4,0.9c-0.1,0.3-0.1,0.7-0.1,1v4h-1v-4.4c0-0.6-0.1-1.2-0.4-1.8
		c-0.4-0.4-0.9-0.7-1.5-0.6l-0.4,0.1c-0.3,0.1-0.5,0.2-0.7,0.4c-0.3,0.2-0.5,0.5-0.7,0.9c-0.2,0.5-0.3,1.1-0.3,1.6v3.8h-1.1
		L159.8,241.8L159.8,241.8z"/>
	<path d="M173.4,241.8c0-0.3,0-0.6,0-0.8s0-0.6-0.1-0.8h1.1v1.1l0,0c0.3-0.4,0.6-0.8,1.1-1c0.4-0.2,0.9-0.3,1.4-0.3
		c0.2,0,0.4,0,0.6,0.1c0.5,0.1,0.9,0.3,1.3,0.7c0.2,0.2,0.4,0.5,0.5,0.8c0.2-0.5,0.6-0.9,1-1.1c0.4-0.3,0.9-0.4,1.4-0.4
		c0.8-0.1,1.6,0.2,2.1,0.8s0.7,1.4,0.7,2.2v4.8h-1v-4.4c0-0.6-0.1-1.2-0.4-1.8c-0.4-0.4-0.9-0.7-1.5-0.6c-0.3,0-0.7,0.1-1,0.2
		c-0.3,0.1-0.5,0.4-0.6,0.6c-0.2,0.3-0.3,0.6-0.4,0.9c-0.1,0.3-0.1,0.7-0.1,1v4h-1.1v-4.4c0-0.6-0.1-1.2-0.4-1.8
		c-0.4-0.4-0.9-0.7-1.5-0.6l-0.4,0.1c-0.3,0.1-0.5,0.2-0.7,0.4c-0.3,0.2-0.5,0.5-0.7,0.9c-0.2,0.5-0.3,1.1-0.3,1.6v3.8h-1.1
		L173.4,241.8z"/>
</g>
<g>
	<path d="M121.4,21.3c0.3,0.3,0.5,0.7,0.7,1.2s0.3,1,0.2,1.5c0,0.5-0.1,1.1-0.3,1.6c-0.2,0.5-0.5,0.9-0.8,1.2
		c-0.4,0.4-0.8,0.6-1.2,0.8c-0.5,0.2-1.1,0.3-1.6,0.3s-0.9-0.1-1.4-0.2c-0.4-0.1-0.8-0.3-1.1-0.6l-1.1,1.1l-0.5-0.5l1.1-1.1
		c-0.3-0.3-0.5-0.7-0.7-1.2s-0.2-0.9-0.2-1.4s0.1-1.1,0.3-1.6c0.4-0.9,1.1-1.7,2.1-2.1c0.5-0.2,1-0.3,1.6-0.3c0.5,0,0.9,0.1,1.4,0.2
		c0.4,0.1,0.8,0.3,1.2,0.6l1.1-1.1l0.5,0.5L121.4,21.3z M120.2,21.6c-0.5-0.4-1.2-0.6-1.8-0.6c-0.4,0-0.8,0.1-1.2,0.2
		c-0.3,0.1-0.6,0.4-0.9,0.6c-0.2,0.3-0.4,0.6-0.6,0.9c-0.1,0.4-0.2,0.8-0.2,1.2c0,0.7,0.2,1.3,0.6,1.8L120.2,21.6z M116.6,26.3
		c0.2,0.2,0.5,0.3,0.8,0.5c0.3,0.1,0.7,0.2,1,0.2c0.4,0,0.8-0.1,1.2-0.2c0.7-0.3,1.2-0.9,1.4-1.6c0.1-0.4,0.2-0.8,0.2-1.2
		c0-0.6-0.2-1.3-0.5-1.8L116.6,26.3z"/>
	<path d="M135,17.4h-4.6l-0.1,3.4c0.2-0.1,0.5-0.2,0.8-0.2s0.5-0.1,0.8-0.1c0.5,0,1,0.1,1.5,0.3c0.4,0.2,0.8,0.4,1.1,0.8
		c0.3,0.3,0.6,0.7,0.7,1.1c0.4,0.9,0.4,2,0,3c-0.2,0.4-0.5,0.8-0.8,1.2c-0.4,0.3-0.8,0.6-1.2,0.8c-0.5,0.2-1,0.3-1.5,0.3
		c-0.7,0-1.4-0.2-1.9-0.5c-0.6-0.4-1-0.9-1.3-1.5l1.1-0.5c0.2,0.4,0.5,0.8,0.9,1.1c0.4,0.3,0.9,0.4,1.3,0.4c0.3,0,0.7-0.1,1-0.2
		s0.6-0.3,0.8-0.5s0.4-0.5,0.6-0.8c0.1-0.3,0.2-0.7,0.2-1c0-0.4-0.1-0.7-0.2-1.1c-0.1-0.3-0.3-0.6-0.6-0.9c-0.3-0.2-0.6-0.4-0.9-0.5
		c-0.4-0.1-0.7-0.2-1.1-0.2c-0.4,0-0.8,0.1-1.2,0.2s-0.8,0.3-1.1,0.5l0.1-5.9h5.8v0.8C135.2,17.4,135,17.4,135,17.4z"/>
	<path d="M140.9,16.1c0.7,0,1.4,0.2,2,0.6c0.5,0.4,0.9,0.9,1.2,1.4c0.3,0.6,0.5,1.2,0.6,1.9c0.1,0.7,0.1,1.3,0.1,2s0,1.3-0.1,2
		s-0.3,1.3-0.6,1.9s-0.7,1.1-1.2,1.4c-1.2,0.7-2.7,0.7-3.9,0c-0.5-0.4-0.9-0.9-1.2-1.4c-0.3-0.6-0.5-1.2-0.6-1.9
		c-0.1-0.7-0.1-1.3-0.1-2s0.1-1.3,0.1-2c0.1-0.7,0.3-1.3,0.6-1.9s0.7-1.1,1.2-1.4C139.6,16.3,140.2,16.1,140.9,16.1z M140.9,17.2
		c-0.5,0-1.1,0.1-1.5,0.5c-0.4,0.3-0.6,0.8-0.8,1.2c-0.2,0.5-0.3,1-0.3,1.6c-0.1,0.5-0.1,1-0.1,1.5s0,1,0.1,1.5
		c0,0.5,0.2,1.1,0.3,1.6c0.2,0.5,0.4,0.9,0.8,1.2c0.4,0.4,0.9,0.5,1.5,0.5c0.5,0,1.1-0.1,1.5-0.5c0.4-0.3,0.6-0.8,0.8-1.2
		c0.2-0.5,0.3-1,0.4-1.6c0-0.6,0.1-1.1,0.1-1.5s0-1-0.1-1.5c0-0.5-0.2-1.1-0.4-1.6s-0.4-0.9-0.8-1.2C142,17.3,141.5,17.2,140.9,17.2
		z"/>
	<path d="M149.8,16.1c0.7,0,1.4,0.2,2,0.6c0.5,0.4,0.9,0.9,1.2,1.4c0.3,0.6,0.5,1.2,0.6,1.9c0.1,0.7,0.1,1.3,0.1,2s-0.1,1.3-0.1,2
		c-0.1,0.7-0.3,1.3-0.6,1.9s-0.7,1.1-1.2,1.4c-1.2,0.7-2.7,0.7-3.9,0c-0.5-0.4-0.9-0.9-1.2-1.4c-0.3-0.6-0.5-1.2-0.6-1.9
		c-0.1-0.7-0.1-1.3-0.1-2s0-1.3,0.1-2s0.3-1.3,0.6-1.9s0.7-1.1,1.2-1.4C148.5,16.3,149.1,16.1,149.8,16.1z M149.8,17.2
		c-0.5,0-1.1,0.2-1.5,0.5s-0.6,0.8-0.8,1.2c-0.2,0.5-0.3,1-0.3,1.6c0,0.5-0.1,1-0.1,1.5s0,1,0.1,1.5c0,0.5,0.2,1.1,0.3,1.6
		c0.2,0.5,0.5,0.9,0.8,1.2c0.4,0.3,0.9,0.5,1.5,0.5c0.5,0,1.1-0.1,1.5-0.5c0.4-0.3,0.6-0.8,0.8-1.2c0.2-0.5,0.3-1,0.3-1.6
		s0.1-1.1,0.1-1.5s0-1-0.1-1.5c0-0.5-0.2-1.1-0.3-1.6c-0.2-0.5-0.4-0.9-0.8-1.2C150.9,17.3,150.4,17.2,149.8,17.2z"/>
	<path d="M159.9,21.8c0-0.3,0-0.5,0-0.8s0-0.5-0.1-0.8h1.1v1.1l0,0c0.3-0.4,0.6-0.8,1.1-1c0.4-0.2,0.9-0.3,1.4-0.3
		c0.2,0,0.4,0,0.6,0c0.2,0,0.5,0.1,0.7,0.2s0.4,0.3,0.6,0.5c0.2,0.2,0.4,0.5,0.5,0.8c0.2-0.5,0.6-0.9,1-1.1c0.4-0.3,0.9-0.4,1.4-0.4
		c0.8-0.1,1.6,0.2,2.1,0.8c0.5,0.6,0.8,1.4,0.7,2.2v4.8h-1v-4.4c0-0.6-0.1-1.2-0.4-1.8c-0.4-0.4-0.9-0.7-1.5-0.6
		c-0.3,0-0.7,0.1-1,0.2s-0.5,0.4-0.6,0.6c-0.2,0.3-0.3,0.6-0.4,0.9c-0.1,0.3-0.1,0.7-0.1,1v4h-1.1v-4.4c0-0.6-0.1-1.2-0.4-1.8
		c-0.4-0.4-0.9-0.7-1.5-0.6l-0.4,0.1c-0.3,0.1-0.5,0.2-0.7,0.4c-0.3,0.2-0.5,0.5-0.7,0.9c-0.2,0.5-0.3,1.1-0.3,1.6v3.8h-1
		L159.9,21.8z"/>
	<path d="M173.5,21.8c0-0.3,0-0.5,0-0.8s0-0.5-0.1-0.8h1.1v1.1l0,0c0.3-0.4,0.6-0.8,1.1-1c0.4-0.2,0.9-0.3,1.3-0.3
		c0.2,0,0.4,0,0.6,0.1c0.2,0,0.5,0.1,0.7,0.2s0.4,0.3,0.6,0.5c0.2,0.2,0.4,0.5,0.5,0.8c0.2-0.5,0.6-0.9,1-1.1
		c0.4-0.3,0.9-0.4,1.4-0.4c0.8-0.1,1.6,0.2,2.1,0.8c0.5,0.6,0.7,1.4,0.7,2.2v4.8h-1.1v-4.4c0-0.6-0.1-1.2-0.4-1.8
		c-0.4-0.4-0.9-0.7-1.5-0.6c-0.7,0-1.3,0.3-1.6,0.8c-0.2,0.3-0.3,0.6-0.4,0.9c-0.1,0.3-0.1,0.7-0.1,1v4h-1.1v-4.4
		c0-0.6-0.1-1.2-0.4-1.8c-0.4-0.4-0.9-0.7-1.5-0.6l-0.4,0.1c-0.3,0.1-0.5,0.2-0.7,0.4c-0.3,0.2-0.5,0.5-0.7,0.9
		c-0.2,0.5-0.3,1.1-0.3,1.6v3.8h-1v-6C173.3,21.8,173.5,21.8,173.5,21.8z"/>
</g>
<g>
	<line class="st0" x1="75.1" y1="217.4" x2="75.1" y2="110"/>
	<line class="st0" x1="73.2" y1="110" x2="76.8" y2="110"/>
	<line class="st0" x1="72.5" y1="217.4" x2="77.6" y2="217.4"/>
</g>
<g>
	<g>
		<path class="st1" d="M152.2,196L152.2,196"/>
		<g>
			<defs>
				<path id="SVGID_315_" d="M86.4,217.2c1.5,0,3.1,0,4.6,0c4.1,0,8.2,0,12.3,0c5.9,0,11.8,0,17.6,0c6.9,0,13.9,0,20.8,0
					c7.2,0,14.4,0,21.7,0c6.7,0,13.5,0,20.2,0c5.5,0,10.9,0,16.4,0c3.5,0,7,0,10.4,0c0.6,0,1.6,0.2,2.2,0c0.4-0.1,0.1,0.1,0.2-0.3
					c0.1-0.5,0-1.3,0-1.9c0-1.2,0-2.3,0-3.5c0-3.7,0-7.4,0-11.1c0-5.2,0-10.4,0-15.7c0-6.3,0-12.6,0-18.9c0-7,0-14,0-21
					c0-7.2,0-14.4,0-21.6c0-7.1,0-14.2,0-21.2c0-6.5,0-13,0-19.5c0-5.5,0-11,0-16.4c0-4,0-8.1,0-12.1c0-2.2,0-4.4,0-6.6
					c0-0.1,0.1-0.7,0-0.8c-0.1-0.1-1.1,0-1.3,0c-2.9,0-5.9,0-8.8,0c-5.1,0-10.3,0-15.4,0c-6.5,0-13.1,0-19.6,0c-7.2,0-14.4,0-21.5,0
					c-7.1,0-14.1,0-21.2,0c-6.2,0-12.3,0-18.5,0c-4.5,0-9.1,0-13.6,0c-1.4,0-2.8,0-4.2,0c-0.6,0-1.6-0.2-2.1,0
					c-0.3,0.1-0.1-0.1-0.2,0.3c-0.1,0.6,0,1.3,0,1.9c0,2.8,0,5.6,0,8.5c0,4.5,0,9.1,0,13.6c0,5.8,0,11.7,0,17.5c0,6.7,0,13.4,0,20.2
					c0,7.1,0,14.3,0,21.4c0,7.2,0,14.4,0,21.6c0,6.8,0,13.6,0,20.5c0,6,0,12,0,18c0,4.8,0,9.6,0,14.4c0,3.2,0,6.3,0,9.5
					C86.4,215.1,86.4,216.2,86.4,217.2z"/>
			</defs>
			<clipPath id="SVGID_1_">
				<use xlink:href="#SVGID_315_"  style="overflow:visible;"/>
			</clipPath>
			<path class="st2" d="M161.5,207.5c3,0.3,4.8,0.6,5.1,1 M166.5,208.4c0.4,0.4-2.1,0.8-2.2,0.8c-2.2,0.3-4.3,0.5-6.5,0.6
				 M157.8,209.8c-5.7,0.3-11.4,0.3-17-0.1c-1.9-0.1-3.9-0.2-5.8-0.5c-0.2,0-2.5-0.4-2.2-0.8 M132.8,208.4c0.4-0.6,4.8-1.1,11.1-1.3
				 M150.1,53.8v-0.1 M150.1,75.1V54.9 M150.1,78v-2.9 M150.1,80.2V78 M150.1,80.2V83 M150.1,120.6V83 M149.3,53.8v-0.1 M149.3,75.1
				V54.9 M149.3,78v-2.9 M149.3,80.2V78 M149.3,80.2V83 M149.3,120.6V83 M149.8,54.9v65.8 M149.6,54.9v65.8 M147.1,217L147.1,217
				 M152.3,217L152.3,217 M152.3,131.8v-11.2 M152.4,145.4l0-9.5 M152.3,154.8v-7.7 M152.3,162.7v-1.4 M152.3,172v-7.5 M152.3,177.5
				v-3.4 M152.3,189.1v-6.9 M152.3,193.2v-2.1 M152.3,196.2v-1.2 M152.3,200.7v-0.9 M152.3,206.1v-3.3 M152.3,210v-1.8 M152.3,216.9
				v-5.1 M147.1,129.9v-9.3 M147.1,135.4v-3.1 M147.1,144.1v-6.3 M147.1,154.3v-8.1 M147.1,159v-2.4 M147.1,173v-9.2 M147.1,176.6
				v-1.8 M147.1,178.8L147.1,178.8 M147.1,181v-0.1 M147.1,189.8V183 M147.1,193.2v-1.6 M147.1,195.8v-0.8 M147.1,201.2v-1.8
				 M147.1,206.5v-3.2 M147.1,210v-1.5 M147.1,216.9v-5.1 M147.1,120.6L147.1,120.6 M152.3,120.6L152.3,120.6 M152.3,216.9h-2.6
				 M149.7,216.9h-2.6 M149.7,217h-2.6 M152.3,217h-2.6 M149.7,120.6h-2.6 M149.7,120.7h-2.6 M152.3,120.6h-2.6 M152.3,120.7h-2.6"
				/>
		</g>
		<g>
			<defs>
				<path id="SVGID_314_" d="M86.4,217.2c1.5,0,3.1,0,4.6,0c4.1,0,8.2,0,12.3,0c5.9,0,11.8,0,17.6,0c6.9,0,13.9,0,20.8,0
					c7.2,0,14.4,0,21.7,0c6.7,0,13.5,0,20.2,0c5.5,0,10.9,0,16.4,0c3.5,0,7,0,10.4,0c0.6,0,1.6,0.2,2.2,0c0.4-0.1,0.1,0.1,0.2-0.3
					c0.1-0.5,0-1.3,0-1.9c0-1.2,0-2.3,0-3.5c0-3.7,0-7.4,0-11.1c0-5.2,0-10.4,0-15.7c0-6.3,0-12.6,0-18.9c0-7,0-14,0-21
					c0-7.2,0-14.4,0-21.6c0-7.1,0-14.2,0-21.2c0-6.5,0-13,0-19.5c0-5.5,0-11,0-16.4c0-4,0-8.1,0-12.1c0-2.2,0-4.4,0-6.6
					c0-0.1,0.1-0.7,0-0.8c-0.1-0.1-1.1,0-1.3,0c-2.9,0-5.9,0-8.8,0c-5.1,0-10.3,0-15.4,0c-6.5,0-13.1,0-19.6,0c-7.2,0-14.4,0-21.5,0
					c-7.1,0-14.1,0-21.2,0c-6.2,0-12.3,0-18.5,0c-4.5,0-9.1,0-13.6,0c-1.4,0-2.8,0-4.2,0c-0.6,0-1.6-0.2-2.1,0
					c-0.3,0.1-0.1-0.1-0.2,0.3c-0.1,0.6,0,1.3,0,1.9c0,2.8,0,5.6,0,8.5c0,4.5,0,9.1,0,13.6c0,5.8,0,11.7,0,17.5c0,6.7,0,13.4,0,20.2
					c0,7.1,0,14.3,0,21.4c0,7.2,0,14.4,0,21.6c0,6.8,0,13.6,0,20.5c0,6,0,12,0,18c0,4.8,0,9.6,0,14.4c0,3.2,0,6.3,0,9.5
					C86.4,215.1,86.4,216.2,86.4,217.2z"/>
			</defs>
			<clipPath id="SVGID_2_">
				<use xlink:href="#SVGID_314_"  style="overflow:visible;"/>
			</clipPath>
		</g>
		<g>
			<defs>
				<path id="SVGID_313_" d="M86.4,217.2c1.5,0,3.1,0,4.6,0c4.1,0,8.2,0,12.3,0c5.9,0,11.8,0,17.6,0c6.9,0,13.9,0,20.8,0
					c7.2,0,14.4,0,21.7,0c6.7,0,13.5,0,20.2,0c5.5,0,10.9,0,16.4,0c3.5,0,7,0,10.4,0c0.6,0,1.6,0.2,2.2,0c0.4-0.1,0.1,0.1,0.2-0.3
					c0.1-0.5,0-1.3,0-1.9c0-1.2,0-2.3,0-3.5c0-3.7,0-7.4,0-11.1c0-5.2,0-10.4,0-15.7c0-6.3,0-12.6,0-18.9c0-7,0-14,0-21
					c0-7.2,0-14.4,0-21.6c0-7.1,0-14.2,0-21.2c0-6.5,0-13,0-19.5c0-5.5,0-11,0-16.4c0-4,0-8.1,0-12.1c0-2.2,0-4.4,0-6.6
					c0-0.1,0.1-0.7,0-0.8c-0.1-0.1-1.1,0-1.3,0c-2.9,0-5.9,0-8.8,0c-5.1,0-10.3,0-15.4,0c-6.5,0-13.1,0-19.6,0c-7.2,0-14.4,0-21.5,0
					c-7.1,0-14.1,0-21.2,0c-6.2,0-12.3,0-18.5,0c-4.5,0-9.1,0-13.6,0c-1.4,0-2.8,0-4.2,0c-0.6,0-1.6-0.2-2.1,0
					c-0.3,0.1-0.1-0.1-0.2,0.3c-0.1,0.6,0,1.3,0,1.9c0,2.8,0,5.6,0,8.5c0,4.5,0,9.1,0,13.6c0,5.8,0,11.7,0,17.5c0,6.7,0,13.4,0,20.2
					c0,7.1,0,14.3,0,21.4c0,7.2,0,14.4,0,21.6c0,6.8,0,13.6,0,20.5c0,6,0,12,0,18c0,4.8,0,9.6,0,14.4c0,3.2,0,6.3,0,9.5
					C86.4,215.1,86.4,216.2,86.4,217.2z"/>
			</defs>
			<clipPath id="SVGID_3_">
				<use xlink:href="#SVGID_313_"  style="overflow:visible;"/>
			</clipPath>
		</g>
		<g>
			<defs>
				<path id="SVGID_312_" d="M86.4,217.2c1.5,0,3.1,0,4.6,0c4.1,0,8.2,0,12.3,0c5.9,0,11.8,0,17.6,0c6.9,0,13.9,0,20.8,0
					c7.2,0,14.4,0,21.7,0c6.7,0,13.5,0,20.2,0c5.5,0,10.9,0,16.4,0c3.5,0,7,0,10.4,0c0.6,0,1.6,0.2,2.2,0c0.4-0.1,0.1,0.1,0.2-0.3
					c0.1-0.5,0-1.3,0-1.9c0-1.2,0-2.3,0-3.5c0-3.7,0-7.4,0-11.1c0-5.2,0-10.4,0-15.7c0-6.3,0-12.6,0-18.9c0-7,0-14,0-21
					c0-7.2,0-14.4,0-21.6c0-7.1,0-14.2,0-21.2c0-6.5,0-13,0-19.5c0-5.5,0-11,0-16.4c0-4,0-8.1,0-12.1c0-2.2,0-4.4,0-6.6
					c0-0.1,0.1-0.7,0-0.8c-0.1-0.1-1.1,0-1.3,0c-2.9,0-5.9,0-8.8,0c-5.1,0-10.3,0-15.4,0c-6.5,0-13.1,0-19.6,0c-7.2,0-14.4,0-21.5,0
					c-7.1,0-14.1,0-21.2,0c-6.2,0-12.3,0-18.5,0c-4.5,0-9.1,0-13.6,0c-1.4,0-2.8,0-4.2,0c-0.6,0-1.6-0.2-2.1,0
					c-0.3,0.1-0.1-0.1-0.2,0.3c-0.1,0.6,0,1.3,0,1.9c0,2.8,0,5.6,0,8.5c0,4.5,0,9.1,0,13.6c0,5.8,0,11.7,0,17.5c0,6.7,0,13.4,0,20.2
					c0,7.1,0,14.3,0,21.4c0,7.2,0,14.4,0,21.6c0,6.8,0,13.6,0,20.5c0,6,0,12,0,18c0,4.8,0,9.6,0,14.4c0,3.2,0,6.3,0,9.5
					C86.4,215.1,86.4,216.2,86.4,217.2z"/>
			</defs>
			<clipPath id="SVGID_4_">
				<use xlink:href="#SVGID_312_"  style="overflow:visible;"/>
			</clipPath>
			<path class="st3" d="M149.4,206.4c4-0.2,8.1-0.6,12.1-0.9c4-0.3,8.1-0.7,12.1-1.2c0.9-0.1,1.9-0.2,2.8-0.4
				c0.4-0.1,1.1-0.1,1.4-0.3 M144.1,206.5c0.5,0.2,1.3,0.1,1.8,0.1c1.2,0,2.3-0.1,3.5-0.2 M145.8,206.1c-0.5,0.1-1.2,0.1-1.7,0.4
				 M147.1,206c-0.4,0.1-0.9,0.1-1.3,0.2 M177.8,203.7c-0.9-0.3-2.2,0-3.2,0c-1.9,0.1-3.7,0.2-5.6,0.3c-3.6,0.2-7.2,0.5-10.8,0.8
				c-1.9,0.2-3.9,0.3-5.8,0.5 M166.5,208.4c2.3,3.2-8,3.2-9.2,3.3 M157.3,211.7c-4.1,0.2-8.2,0.2-12.3,0.1c-2-0.1-4-0.1-6-0.3
				c-1.7-0.1-3.8-0.1-5.4-0.9c-0.9-0.4-1.4-1.4-0.8-2.2"/>
		</g>
		<g>
			<defs>
				<path id="SVGID_311_" d="M86.4,217.2c1.5,0,3.1,0,4.6,0c4.1,0,8.2,0,12.3,0c5.9,0,11.8,0,17.6,0c6.9,0,13.9,0,20.8,0
					c7.2,0,14.4,0,21.7,0c6.7,0,13.5,0,20.2,0c5.5,0,10.9,0,16.4,0c3.5,0,7,0,10.4,0c0.6,0,1.6,0.2,2.2,0c0.4-0.1,0.1,0.1,0.2-0.3
					c0.1-0.5,0-1.3,0-1.9c0-1.2,0-2.3,0-3.5c0-3.7,0-7.4,0-11.1c0-5.2,0-10.4,0-15.7c0-6.3,0-12.6,0-18.9c0-7,0-14,0-21
					c0-7.2,0-14.4,0-21.6c0-7.1,0-14.2,0-21.2c0-6.5,0-13,0-19.5c0-5.5,0-11,0-16.4c0-4,0-8.1,0-12.1c0-2.2,0-4.4,0-6.6
					c0-0.1,0.1-0.7,0-0.8c-0.1-0.1-1.1,0-1.3,0c-2.9,0-5.9,0-8.8,0c-5.1,0-10.3,0-15.4,0c-6.5,0-13.1,0-19.6,0c-7.2,0-14.4,0-21.5,0
					c-7.1,0-14.1,0-21.2,0c-6.2,0-12.3,0-18.5,0c-4.5,0-9.1,0-13.6,0c-1.4,0-2.8,0-4.2,0c-0.6,0-1.6-0.2-2.1,0
					c-0.3,0.1-0.1-0.1-0.2,0.3c-0.1,0.6,0,1.3,0,1.9c0,2.8,0,5.6,0,8.5c0,4.5,0,9.1,0,13.6c0,5.8,0,11.7,0,17.5c0,6.7,0,13.4,0,20.2
					c0,7.1,0,14.3,0,21.4c0,7.2,0,14.4,0,21.6c0,6.8,0,13.6,0,20.5c0,6,0,12,0,18c0,4.8,0,9.6,0,14.4c0,3.2,0,6.3,0,9.5
					C86.4,215.1,86.4,216.2,86.4,217.2z"/>
			</defs>
			<clipPath id="SVGID_5_">
				<use xlink:href="#SVGID_311_"  style="overflow:visible;"/>
			</clipPath>
		</g>
		<path class="st1" d="M147.1,206.4 M158.4,207.7c-2.7,0.2-5.4,0.4-8.1,0.6 M177.8,203.7c1,1.2-0.5,2.1-1.5,2.2
			c-2.8,0.5-5.6,0.7-8.5,1c-1.6,0.2-3.2,0.3-4.9,0.4 M150.3,208.3c-0.7,0-1.5,0.1-2.2,0.1"/>
		<path class="st1" d="M145.2,205c0.6,0,1.2,0,1.8,0 M145.2,205L145.2,205 M144.1,205c0.3,0,0.7,0,1,0"/>
		<path class="st1" d="M173.5,200.7c-0.4-0.3-1.2-0.3-1.8-0.4c-1.1-0.1-2.3-0.1-3.5-0.2c-2.5,0-4.9,0-7.4,0.1c-5,0.2-9.9,0.4-14.9,1
			c-1.4,0.2-2.7,0.3-4.1,0.6c-0.6,0.1-1.6,0.2-2.1,0.6"/>
		<line class="st1" x1="147.1" y1="203.3" x2="147.1" y2="203.6"/>
		<g>
			<defs>
				<path id="SVGID_310_" d="M86.4,217.2c1.5,0,3.1,0,4.6,0c4.1,0,8.2,0,12.3,0c5.9,0,11.8,0,17.6,0c6.9,0,13.9,0,20.8,0
					c7.2,0,14.4,0,21.7,0c6.7,0,13.5,0,20.2,0c5.5,0,10.9,0,16.4,0c3.5,0,7,0,10.4,0c0.6,0,1.6,0.2,2.2,0c0.4-0.1,0.1,0.1,0.2-0.3
					c0.1-0.5,0-1.3,0-1.9c0-1.2,0-2.3,0-3.5c0-3.7,0-7.4,0-11.1c0-5.2,0-10.4,0-15.7c0-6.3,0-12.6,0-18.9c0-7,0-14,0-21
					c0-7.2,0-14.4,0-21.6c0-7.1,0-14.2,0-21.2c0-6.5,0-13,0-19.5c0-5.5,0-11,0-16.4c0-4,0-8.1,0-12.1c0-2.2,0-4.4,0-6.6
					c0-0.1,0.1-0.7,0-0.8c-0.1-0.1-1.1,0-1.3,0c-2.9,0-5.9,0-8.8,0c-5.1,0-10.3,0-15.4,0c-6.5,0-13.1,0-19.6,0c-7.2,0-14.4,0-21.5,0
					c-7.1,0-14.1,0-21.2,0c-6.2,0-12.3,0-18.5,0c-4.5,0-9.1,0-13.6,0c-1.4,0-2.8,0-4.2,0c-0.6,0-1.6-0.2-2.1,0
					c-0.3,0.1-0.1-0.1-0.2,0.3c-0.1,0.6,0,1.3,0,1.9c0,2.8,0,5.6,0,8.5c0,4.5,0,9.1,0,13.6c0,5.8,0,11.7,0,17.5c0,6.7,0,13.4,0,20.2
					c0,7.1,0,14.3,0,21.4c0,7.2,0,14.4,0,21.6c0,6.8,0,13.6,0,20.5c0,6,0,12,0,18c0,4.8,0,9.6,0,14.4c0,3.2,0,6.3,0,9.5
					C86.4,215.1,86.4,216.2,86.4,217.2z"/>
			</defs>
			<clipPath id="SVGID_6_">
				<use xlink:href="#SVGID_310_"  style="overflow:visible;"/>
			</clipPath>
		</g>
		<path class="st1" d="M147.1,204.5v0.2 M147.1,204.4v0.1 M147.1,204.1v-0.5 M147.1,204.4v-0.3"/>
		<path class="st1" d="M139.8,202.5c-1.1,1.7,1.4,2.2,2.4,2.4 M170.9,202.4c-3.9-0.3-7.9-0.2-11.8,0c-4.1,0.2-8.2,0.4-12.2,0.9
			c-2,0.2-4.1,0.3-5.9,1.2 M152.3,205c3.7-0.1,7.4-0.3,11.1-0.6c1.9-0.2,3.7-0.3,5.6-0.6c1.3-0.2,3-0.2,4.1-1c0.7-0.5,0.9-1.3,0.4-2
			 M147.1,205 M142.3,204.9c0.6,0,1.3,0.1,1.9,0.1 M173,202.8c-0.7-0.1-1.4-0.3-2.2-0.4"/>
		<g>
			<defs>
				<path id="SVGID_309_" d="M86.4,217.2c1.5,0,3.1,0,4.6,0c4.1,0,8.2,0,12.3,0c5.9,0,11.8,0,17.6,0c6.9,0,13.9,0,20.8,0
					c7.2,0,14.4,0,21.7,0c6.7,0,13.5,0,20.2,0c5.5,0,10.9,0,16.4,0c3.5,0,7,0,10.4,0c0.6,0,1.6,0.2,2.2,0c0.4-0.1,0.1,0.1,0.2-0.3
					c0.1-0.5,0-1.3,0-1.9c0-1.2,0-2.3,0-3.5c0-3.7,0-7.4,0-11.1c0-5.2,0-10.4,0-15.7c0-6.3,0-12.6,0-18.9c0-7,0-14,0-21
					c0-7.2,0-14.4,0-21.6c0-7.1,0-14.2,0-21.2c0-6.5,0-13,0-19.5c0-5.5,0-11,0-16.4c0-4,0-8.1,0-12.1c0-2.2,0-4.4,0-6.6
					c0-0.1,0.1-0.7,0-0.8c-0.1-0.1-1.1,0-1.3,0c-2.9,0-5.9,0-8.8,0c-5.1,0-10.3,0-15.4,0c-6.5,0-13.1,0-19.6,0c-7.2,0-14.4,0-21.5,0
					c-7.1,0-14.1,0-21.2,0c-6.2,0-12.3,0-18.5,0c-4.5,0-9.1,0-13.6,0c-1.4,0-2.8,0-4.2,0c-0.6,0-1.6-0.2-2.1,0
					c-0.3,0.1-0.1-0.1-0.2,0.3c-0.1,0.6,0,1.3,0,1.9c0,2.8,0,5.6,0,8.5c0,4.5,0,9.1,0,13.6c0,5.8,0,11.7,0,17.5c0,6.7,0,13.4,0,20.2
					c0,7.1,0,14.3,0,21.4c0,7.2,0,14.4,0,21.6c0,6.8,0,13.6,0,20.5c0,6,0,12,0,18c0,4.8,0,9.6,0,14.4c0,3.2,0,6.3,0,9.5
					C86.4,215.1,86.4,216.2,86.4,217.2z"/>
			</defs>
			<clipPath id="SVGID_7_">
				<use xlink:href="#SVGID_309_"  style="overflow:visible;"/>
			</clipPath>
		</g>
		<path class="st1" d="M159.6,199c-0.4-0.4-1.2-0.5-1.7-0.6c-1.1-0.2-2.2-0.4-3.4-0.5c-2.5-0.3-5-0.5-7.4-0.7
			c-4.9-0.4-9.9-0.6-14.9-0.5c-1.4,0-2.7,0-4.1,0.1c-0.6,0-1.6,0-2.1,0.4"/>
		<line class="st1" x1="152.3" y1="200.1" x2="152.3" y2="199.9"/>
		<path class="st1" d="M152.3,200.7v-0.5 M152.3,200.7L152.3,200.7"/>
		<path class="st1" d="M134.1,194c-3.7-0.1-7.4-0.6-11.1-0.7c-0.4,0-1-0.1-1.4,0.1 M154.9,196.1c-0.9-0.2-1.8-0.3-2.6-0.4
			 M155.2,196.2c-0.1,0-0.2-0.1-0.3-0.1 M121.6,193.4c0.4,0.3,1.2,0.3,1.6,0.3c1.1,0.2,2.2,0.3,3.4,0.4c2.5,0.3,5,0.5,7.5,0.7
			c5,0.5,10.1,0.8,15.1,1.2c1.4,0.1,2.7,0.2,4.1,0.2c0.6,0,1.4,0.2,2-0.1 M125.9,197.3c-1.6,1.9,2.1,2.6,3.1,2.8
			c3.3,0.5,6.8,0.8,10.1,1c1.8,0.1,3.6,0.2,5.4,0.3 M126.6,199.5c2.1-0.8,4.5-0.7,6.8-0.7c2.4,0,4.9,0.1,7.3,0.2 M159.6,200.3
			c0.2-0.4,0.1-0.9-0.1-1.3 M144.6,201.4h0.1 M156.8,200.5c-4.1-0.9-8.5-1-12.7-1.3c-1.2-0.1-2.4-0.2-3.6-0.2"/>
		<g>
			<defs>
				<path id="SVGID_308_" d="M86.4,217.2c1.5,0,3.1,0,4.6,0c4.1,0,8.2,0,12.3,0c5.9,0,11.8,0,17.6,0c6.9,0,13.9,0,20.8,0
					c7.2,0,14.4,0,21.7,0c6.7,0,13.5,0,20.2,0c5.5,0,10.9,0,16.4,0c3.5,0,7,0,10.4,0c0.6,0,1.6,0.2,2.2,0c0.4-0.1,0.1,0.1,0.2-0.3
					c0.1-0.5,0-1.3,0-1.9c0-1.2,0-2.3,0-3.5c0-3.7,0-7.4,0-11.1c0-5.2,0-10.4,0-15.7c0-6.3,0-12.6,0-18.9c0-7,0-14,0-21
					c0-7.2,0-14.4,0-21.6c0-7.1,0-14.2,0-21.2c0-6.5,0-13,0-19.5c0-5.5,0-11,0-16.4c0-4,0-8.1,0-12.1c0-2.2,0-4.4,0-6.6
					c0-0.1,0.1-0.7,0-0.8c-0.1-0.1-1.1,0-1.3,0c-2.9,0-5.9,0-8.8,0c-5.1,0-10.3,0-15.4,0c-6.5,0-13.1,0-19.6,0c-7.2,0-14.4,0-21.5,0
					c-7.1,0-14.1,0-21.2,0c-6.2,0-12.3,0-18.5,0c-4.5,0-9.1,0-13.6,0c-1.4,0-2.8,0-4.2,0c-0.6,0-1.6-0.2-2.1,0
					c-0.3,0.1-0.1-0.1-0.2,0.3c-0.1,0.6,0,1.3,0,1.9c0,2.8,0,5.6,0,8.5c0,4.5,0,9.1,0,13.6c0,5.8,0,11.7,0,17.5c0,6.7,0,13.4,0,20.2
					c0,7.1,0,14.3,0,21.4c0,7.2,0,14.4,0,21.6c0,6.8,0,13.6,0,20.5c0,6,0,12,0,18c0,4.8,0,9.6,0,14.4c0,3.2,0,6.3,0,9.5
					C86.4,215.1,86.4,216.2,86.4,217.2z"/>
			</defs>
			<clipPath id="SVGID_8_">
				<use xlink:href="#SVGID_308_"  style="overflow:visible;"/>
			</clipPath>
		</g>
		<path class="st1" d="M153.7,196.3L153.7,196.3"/>
		<path class="st1" d="M153.6,196.2L153.6,196.2"/>
		<g>
			<defs>
				<path id="SVGID_307_" d="M86.4,217.2c1.5,0,3.1,0,4.6,0c4.1,0,8.2,0,12.3,0c5.9,0,11.8,0,17.6,0c6.9,0,13.9,0,20.8,0
					c7.2,0,14.4,0,21.7,0c6.7,0,13.5,0,20.2,0c5.5,0,10.9,0,16.4,0c3.5,0,7,0,10.4,0c0.6,0,1.6,0.2,2.2,0c0.4-0.1,0.1,0.1,0.2-0.3
					c0.1-0.5,0-1.3,0-1.9c0-1.2,0-2.3,0-3.5c0-3.7,0-7.4,0-11.1c0-5.2,0-10.4,0-15.7c0-6.3,0-12.6,0-18.9c0-7,0-14,0-21
					c0-7.2,0-14.4,0-21.6c0-7.1,0-14.2,0-21.2c0-6.5,0-13,0-19.5c0-5.5,0-11,0-16.4c0-4,0-8.1,0-12.1c0-2.2,0-4.4,0-6.6
					c0-0.1,0.1-0.7,0-0.8c-0.1-0.1-1.1,0-1.3,0c-2.9,0-5.9,0-8.8,0c-5.1,0-10.3,0-15.4,0c-6.5,0-13.1,0-19.6,0c-7.2,0-14.4,0-21.5,0
					c-7.1,0-14.1,0-21.2,0c-6.2,0-12.3,0-18.5,0c-4.5,0-9.1,0-13.6,0c-1.4,0-2.8,0-4.2,0c-0.6,0-1.6-0.2-2.1,0
					c-0.3,0.1-0.1-0.1-0.2,0.3c-0.1,0.6,0,1.3,0,1.9c0,2.8,0,5.6,0,8.5c0,4.5,0,9.1,0,13.6c0,5.8,0,11.7,0,17.5c0,6.7,0,13.4,0,20.2
					c0,7.1,0,14.3,0,21.4c0,7.2,0,14.4,0,21.6c0,6.8,0,13.6,0,20.5c0,6,0,12,0,18c0,4.8,0,9.6,0,14.4c0,3.2,0,6.3,0,9.5
					C86.4,215.1,86.4,216.2,86.4,217.2z"/>
			</defs>
			<clipPath id="SVGID_9_">
				<use xlink:href="#SVGID_307_"  style="overflow:visible;"/>
			</clipPath>
			<path class="st4" d="M172.9,188.7c-0.2-0.3-0.5-0.4-0.7-0.6 M173,188.7c1.8,2.6-11.1,4-12,4.1 M160.9,192.8
				c-6.3,0.6-12.7,0.6-19.1,0.3c-4.4-0.3-9.2-0.5-13.4-2.1c-0.7-0.3-2.8-1.1-2-2.2 M126.4,188.7c0.9-1.2,4.7-2.3,10.5-2.9
				 M123.5,193.7C123.5,193.7,123.4,193.7,123.5,193.7 M122.6,195.5c-1-0.2-1.7-1.3-0.9-2.1 M133.2,196.8c-1.8-0.2-3.5-0.3-5.3-0.5
				c-1.8-0.2-3.6-0.3-5.3-0.7 M155.2,196.2c0.4,0.7,0.1,1.5-0.6,1.8"/>
		</g>
		<g>
			<defs>
				<path id="SVGID_306_" d="M86.4,217.2c1.5,0,3.1,0,4.6,0c4.1,0,8.2,0,12.3,0c5.9,0,11.8,0,17.6,0c6.9,0,13.9,0,20.8,0
					c7.2,0,14.4,0,21.7,0c6.7,0,13.5,0,20.2,0c5.5,0,10.9,0,16.4,0c3.5,0,7,0,10.4,0c0.6,0,1.6,0.2,2.2,0c0.4-0.1,0.1,0.1,0.2-0.3
					c0.1-0.5,0-1.3,0-1.9c0-1.2,0-2.3,0-3.5c0-3.7,0-7.4,0-11.1c0-5.2,0-10.4,0-15.7c0-6.3,0-12.6,0-18.9c0-7,0-14,0-21
					c0-7.2,0-14.4,0-21.6c0-7.1,0-14.2,0-21.2c0-6.5,0-13,0-19.5c0-5.5,0-11,0-16.4c0-4,0-8.1,0-12.1c0-2.2,0-4.4,0-6.6
					c0-0.1,0.1-0.7,0-0.8c-0.1-0.1-1.1,0-1.3,0c-2.9,0-5.9,0-8.8,0c-5.1,0-10.3,0-15.4,0c-6.5,0-13.1,0-19.6,0c-7.2,0-14.4,0-21.5,0
					c-7.1,0-14.1,0-21.2,0c-6.2,0-12.3,0-18.5,0c-4.5,0-9.1,0-13.6,0c-1.4,0-2.8,0-4.2,0c-0.6,0-1.6-0.2-2.1,0
					c-0.3,0.1-0.1-0.1-0.2,0.3c-0.1,0.6,0,1.3,0,1.9c0,2.8,0,5.6,0,8.5c0,4.5,0,9.1,0,13.6c0,5.8,0,11.7,0,17.5c0,6.7,0,13.4,0,20.2
					c0,7.1,0,14.3,0,21.4c0,7.2,0,14.4,0,21.6c0,6.8,0,13.6,0,20.5c0,6,0,12,0,18c0,4.8,0,9.6,0,14.4c0,3.2,0,6.3,0,9.5
					C86.4,215.1,86.4,216.2,86.4,217.2z"/>
			</defs>
			<clipPath id="SVGID_10_">
				<use xlink:href="#SVGID_306_"  style="overflow:visible;"/>
			</clipPath>
		</g>
		<g>
			<defs>
				<path id="SVGID_305_" d="M86.4,217.2c1.5,0,3.1,0,4.6,0c4.1,0,8.2,0,12.3,0c5.9,0,11.8,0,17.6,0c6.9,0,13.9,0,20.8,0
					c7.2,0,14.4,0,21.7,0c6.7,0,13.5,0,20.2,0c5.5,0,10.9,0,16.4,0c3.5,0,7,0,10.4,0c0.6,0,1.6,0.2,2.2,0c0.4-0.1,0.1,0.1,0.2-0.3
					c0.1-0.5,0-1.3,0-1.9c0-1.2,0-2.3,0-3.5c0-3.7,0-7.4,0-11.1c0-5.2,0-10.4,0-15.7c0-6.3,0-12.6,0-18.9c0-7,0-14,0-21
					c0-7.2,0-14.4,0-21.6c0-7.1,0-14.2,0-21.2c0-6.5,0-13,0-19.5c0-5.5,0-11,0-16.4c0-4,0-8.1,0-12.1c0-2.2,0-4.4,0-6.6
					c0-0.1,0.1-0.7,0-0.8c-0.1-0.1-1.1,0-1.3,0c-2.9,0-5.9,0-8.8,0c-5.1,0-10.3,0-15.4,0c-6.5,0-13.1,0-19.6,0c-7.2,0-14.4,0-21.5,0
					c-7.1,0-14.1,0-21.2,0c-6.2,0-12.3,0-18.5,0c-4.5,0-9.1,0-13.6,0c-1.4,0-2.8,0-4.2,0c-0.6,0-1.6-0.2-2.1,0
					c-0.3,0.1-0.1-0.1-0.2,0.3c-0.1,0.6,0,1.3,0,1.9c0,2.8,0,5.6,0,8.5c0,4.5,0,9.1,0,13.6c0,5.8,0,11.7,0,17.5c0,6.7,0,13.4,0,20.2
					c0,7.1,0,14.3,0,21.4c0,7.2,0,14.4,0,21.6c0,6.8,0,13.6,0,20.5c0,6,0,12,0,18c0,4.8,0,9.6,0,14.4c0,3.2,0,6.3,0,9.5
					C86.4,215.1,86.4,216.2,86.4,217.2z"/>
			</defs>
			<clipPath id="SVGID_11_">
				<use xlink:href="#SVGID_305_"  style="overflow:visible;"/>
			</clipPath>
		</g>
		<g>
			<defs>
				<path id="SVGID_304_" d="M86.4,217.2c1.5,0,3.1,0,4.6,0c4.1,0,8.2,0,12.3,0c5.9,0,11.8,0,17.6,0c6.9,0,13.9,0,20.8,0
					c7.2,0,14.4,0,21.7,0c6.7,0,13.5,0,20.2,0c5.5,0,10.9,0,16.4,0c3.5,0,7,0,10.4,0c0.6,0,1.6,0.2,2.2,0c0.4-0.1,0.1,0.1,0.2-0.3
					c0.1-0.5,0-1.3,0-1.9c0-1.2,0-2.3,0-3.5c0-3.7,0-7.4,0-11.1c0-5.2,0-10.4,0-15.7c0-6.3,0-12.6,0-18.9c0-7,0-14,0-21
					c0-7.2,0-14.4,0-21.6c0-7.1,0-14.2,0-21.2c0-6.5,0-13,0-19.5c0-5.5,0-11,0-16.4c0-4,0-8.1,0-12.1c0-2.2,0-4.4,0-6.6
					c0-0.1,0.1-0.7,0-0.8c-0.1-0.1-1.1,0-1.3,0c-2.9,0-5.9,0-8.8,0c-5.1,0-10.3,0-15.4,0c-6.5,0-13.1,0-19.6,0c-7.2,0-14.4,0-21.5,0
					c-7.1,0-14.1,0-21.2,0c-6.2,0-12.3,0-18.5,0c-4.5,0-9.1,0-13.6,0c-1.4,0-2.8,0-4.2,0c-0.6,0-1.6-0.2-2.1,0
					c-0.3,0.1-0.1-0.1-0.2,0.3c-0.1,0.6,0,1.3,0,1.9c0,2.8,0,5.6,0,8.5c0,4.5,0,9.1,0,13.6c0,5.8,0,11.7,0,17.5c0,6.7,0,13.4,0,20.2
					c0,7.1,0,14.3,0,21.4c0,7.2,0,14.4,0,21.6c0,6.8,0,13.6,0,20.5c0,6,0,12,0,18c0,4.8,0,9.6,0,14.4c0,3.2,0,6.3,0,9.5
					C86.4,215.1,86.4,216.2,86.4,217.2z"/>
			</defs>
			<clipPath id="SVGID_12_">
				<use xlink:href="#SVGID_304_"  style="overflow:visible;"/>
			</clipPath>
			<path class="st5" d="M172.9,188.7c2.6,3.7-6,5-7.9,5.3c-1.5,0.2-3,0.5-4.5,0.6 M160.6,194.6c-5.7,0.5-11.4,0.7-17.1,0.3
				c-2.7-0.2-5.4-0.4-8.2-0.7c-2.4-0.3-4.9-0.7-7.2-1.7c-1.5-0.7-2.9-2.1-1.8-3.8 M128.3,190.6c0.6-2,10.4-3.2,10.4-3.2
				 M136.9,185.8 M126.2,189.2L126.2,189.2"/>
		</g>
		<g>
			<defs>
				<path id="SVGID_303_" d="M86.4,217.2c1.5,0,3.1,0,4.6,0c4.1,0,8.2,0,12.3,0c5.9,0,11.8,0,17.6,0c6.9,0,13.9,0,20.8,0
					c7.2,0,14.4,0,21.7,0c6.7,0,13.5,0,20.2,0c5.5,0,10.9,0,16.4,0c3.5,0,7,0,10.4,0c0.6,0,1.6,0.2,2.2,0c0.4-0.1,0.1,0.1,0.2-0.3
					c0.1-0.5,0-1.3,0-1.9c0-1.2,0-2.3,0-3.5c0-3.7,0-7.4,0-11.1c0-5.2,0-10.4,0-15.7c0-6.3,0-12.6,0-18.9c0-7,0-14,0-21
					c0-7.2,0-14.4,0-21.6c0-7.1,0-14.2,0-21.2c0-6.5,0-13,0-19.5c0-5.5,0-11,0-16.4c0-4,0-8.1,0-12.1c0-2.2,0-4.4,0-6.6
					c0-0.1,0.1-0.7,0-0.8c-0.1-0.1-1.1,0-1.3,0c-2.9,0-5.9,0-8.8,0c-5.1,0-10.3,0-15.4,0c-6.5,0-13.1,0-19.6,0c-7.2,0-14.4,0-21.5,0
					c-7.1,0-14.1,0-21.2,0c-6.2,0-12.3,0-18.5,0c-4.5,0-9.1,0-13.6,0c-1.4,0-2.8,0-4.2,0c-0.6,0-1.6-0.2-2.1,0
					c-0.3,0.1-0.1-0.1-0.2,0.3c-0.1,0.6,0,1.3,0,1.9c0,2.8,0,5.6,0,8.5c0,4.5,0,9.1,0,13.6c0,5.8,0,11.7,0,17.5c0,6.7,0,13.4,0,20.2
					c0,7.1,0,14.3,0,21.4c0,7.2,0,14.4,0,21.6c0,6.8,0,13.6,0,20.5c0,6,0,12,0,18c0,4.8,0,9.6,0,14.4c0,3.2,0,6.3,0,9.5
					C86.4,215.1,86.4,216.2,86.4,217.2z"/>
			</defs>
			<clipPath id="SVGID_13_">
				<use xlink:href="#SVGID_303_"  style="overflow:visible;"/>
			</clipPath>
		</g>
		<g>
			<defs>
				<path id="SVGID_302_" d="M86.4,217.2c1.5,0,3.1,0,4.6,0c4.1,0,8.2,0,12.3,0c5.9,0,11.8,0,17.6,0c6.9,0,13.9,0,20.8,0
					c7.2,0,14.4,0,21.7,0c6.7,0,13.5,0,20.2,0c5.5,0,10.9,0,16.4,0c3.5,0,7,0,10.4,0c0.6,0,1.6,0.2,2.2,0c0.4-0.1,0.1,0.1,0.2-0.3
					c0.1-0.5,0-1.3,0-1.9c0-1.2,0-2.3,0-3.5c0-3.7,0-7.4,0-11.1c0-5.2,0-10.4,0-15.7c0-6.3,0-12.6,0-18.9c0-7,0-14,0-21
					c0-7.2,0-14.4,0-21.6c0-7.1,0-14.2,0-21.2c0-6.5,0-13,0-19.5c0-5.5,0-11,0-16.4c0-4,0-8.1,0-12.1c0-2.2,0-4.4,0-6.6
					c0-0.1,0.1-0.7,0-0.8c-0.1-0.1-1.1,0-1.3,0c-2.9,0-5.9,0-8.8,0c-5.1,0-10.3,0-15.4,0c-6.5,0-13.1,0-19.6,0c-7.2,0-14.4,0-21.5,0
					c-7.1,0-14.1,0-21.2,0c-6.2,0-12.3,0-18.5,0c-4.5,0-9.1,0-13.6,0c-1.4,0-2.8,0-4.2,0c-0.6,0-1.6-0.2-2.1,0
					c-0.3,0.1-0.1-0.1-0.2,0.3c-0.1,0.6,0,1.3,0,1.9c0,2.8,0,5.6,0,8.5c0,4.5,0,9.1,0,13.6c0,5.8,0,11.7,0,17.5c0,6.7,0,13.4,0,20.2
					c0,7.1,0,14.3,0,21.4c0,7.2,0,14.4,0,21.6c0,6.8,0,13.6,0,20.5c0,6,0,12,0,18c0,4.8,0,9.6,0,14.4c0,3.2,0,6.3,0,9.5
					C86.4,215.1,86.4,216.2,86.4,217.2z"/>
			</defs>
			<clipPath id="SVGID_14_">
				<use xlink:href="#SVGID_302_"  style="overflow:visible;"/>
			</clipPath>
			<path class="st6" d="M190,181.8c-0.5-0.4-1.7-0.2-2.3-0.1c-1.4,0.1-2.9,0.2-4.3,0.4 M151.1,189.4c5.7-0.6,11.3-1.5,16.9-2.5
				c5.6-1,11.1-1.9,16.6-3.3c0.6-0.1,5.4-1,5.4-1.8 M143.8,189.6c0.2,0.9,6.7-0.2,7.3-0.3 M147.1,188.4c-0.9,0.2-2.7,0.5-3.3,1.2
				 M172.9,189.4L172.9,189.4 M172.9,189.4L172.9,189.4"/>
		</g>
		<path class="st1" d="M145.5,189.8L145.5,189.8"/>
		<path class="st1" d="M183.5,179.6c-0.6-0.6-1.7-0.7-2.5-0.9c-1.6-0.3-3.2-0.4-4.8-0.4c-3.4-0.1-6.9,0-10.3,0.3
			c-6.8,0.5-13.7,1.2-20.4,2.7c-1.9,0.4-3.8,0.9-5.7,1.6c-0.9,0.3-2.2,0.7-2.7,1.6 M190,181.8c1.4,1.3-0.8,2.4-1.7,2.7
			c-2.8,0.9-5.7,1.5-8.5,2.1c-5.8,1.2-11.7,2.2-17.5,3.1c-3.4,0.5-6.8,1-10.2,1.4 M152,191.2c-1.1,0.1-9.9,1.7-8.3-1.5"/>
		<path class="st1" d="M144.7,188.1L144.7,188.1"/>
		<path class="st1" d="M145.9,186c0.2,0,0.5,0,0.7,0"/>
		<line class="st1" x1="147.1" y1="186.3" x2="147.1" y2="186.6"/>
		<g>
			<defs>
				<path id="SVGID_301_" d="M86.4,217.2c1.5,0,3.1,0,4.6,0c4.1,0,8.2,0,12.3,0c5.9,0,11.8,0,17.6,0c6.9,0,13.9,0,20.8,0
					c7.2,0,14.4,0,21.7,0c6.7,0,13.5,0,20.2,0c5.5,0,10.9,0,16.4,0c3.5,0,7,0,10.4,0c0.6,0,1.6,0.2,2.2,0c0.4-0.1,0.1,0.1,0.2-0.3
					c0.1-0.5,0-1.3,0-1.9c0-1.2,0-2.3,0-3.5c0-3.7,0-7.4,0-11.1c0-5.2,0-10.4,0-15.7c0-6.3,0-12.6,0-18.9c0-7,0-14,0-21
					c0-7.2,0-14.4,0-21.6c0-7.1,0-14.2,0-21.2c0-6.5,0-13,0-19.5c0-5.5,0-11,0-16.4c0-4,0-8.1,0-12.1c0-2.2,0-4.4,0-6.6
					c0-0.1,0.1-0.7,0-0.8c-0.1-0.1-1.1,0-1.3,0c-2.9,0-5.9,0-8.8,0c-5.1,0-10.3,0-15.4,0c-6.5,0-13.1,0-19.6,0c-7.2,0-14.4,0-21.5,0
					c-7.1,0-14.1,0-21.2,0c-6.2,0-12.3,0-18.5,0c-4.5,0-9.1,0-13.6,0c-1.4,0-2.8,0-4.2,0c-0.6,0-1.6-0.2-2.1,0
					c-0.3,0.1-0.1-0.1-0.2,0.3c-0.1,0.6,0,1.3,0,1.9c0,2.8,0,5.6,0,8.5c0,4.5,0,9.1,0,13.6c0,5.8,0,11.7,0,17.5c0,6.7,0,13.4,0,20.2
					c0,7.1,0,14.3,0,21.4c0,7.2,0,14.4,0,21.6c0,6.8,0,13.6,0,20.5c0,6,0,12,0,18c0,4.8,0,9.6,0,14.4c0,3.2,0,6.3,0,9.5
					C86.4,215.1,86.4,216.2,86.4,217.2z"/>
			</defs>
			<clipPath id="SVGID_15_">
				<use xlink:href="#SVGID_301_"  style="overflow:visible;"/>
			</clipPath>
		</g>
		<path class="st1" d="M147.1,187.4c0,0.1,0,0.2,0,0.3 M147.1,186.6c0,0.3,0,0.6,0,0.9"/>
		<path class="st1" d="M144.7,188.2c0.8,0,1.5-0.1,2.2-0.2 M144.7,188.1L144.7,188.1 M147.1,187.9l-0.1,0"/>
		<path class="st1" d="M147.1,185.9l-0.4,0.1 M146.7,186L146.7,186 M137.1,184.4c-1.1,2,1.5,3,3,3.3 M152.3,186
			c4.2-0.4,8.4-0.6,12.6-1.1c4.7-0.7,9.4-1.5,14.1-2.6c0.8-0.2,1.5-0.3,2.3-0.6c0.6-0.2,1.7-0.8,0.5-1.1c-1.2-0.3-2.6-0.3-3.8-0.3
			c-1.3,0-2.5,0-3.8,0.1c-2.4,0.1-4.9,0.2-7.3,0.3c-4.9,0.3-9.7,0.8-14.6,1.6c-2.6,0.4-5.1,0.8-7.7,1.3c-0.9,0.2-1.7,0.4-2.6,0.6
			c-0.4,0.1-1.3,0.3-1.4,0.7c-0.4,1.3,3.3,1.2,3.9,1.2c0.5,0,1,0,1.5,0 M152.3,188.1c5.2-0.3,10.4-0.8,15.5-1.5
			c2.5-0.4,5.1-0.8,7.5-1.4c2.3-0.5,4.7-1.1,6.7-2.1c1.3-0.7,2.5-2,1.4-3.4 M140,187.7c1.5,0.3,3.1,0.4,4.7,0.4"/>
		<path class="st1" d="M154.6,184.7L154.6,184.7"/>
		<path class="st1" d="M162.3,181L162.3,181 M158.9,179.2c-2.8-1.1-5.8-1.5-8.7-2.1c-2.9-0.5-5.9-0.9-8.9-1.3
			c-6-0.7-12.2-1.2-18.3-1c-1.6,0.1-3.1,0.1-4.7,0.4c-0.8,0.1-1.8,0.3-2.4,0.9"/>
		<path class="st1" d="M154.2,184.7L154.2,184.7"/>
		<path class="st1" d="M152.3,183.1v-0.2"/>
		<path class="st1" d="M152.3,184c0-0.3,0-0.6,0-0.9"/>
		<g>
			<defs>
				<path id="SVGID_300_" d="M86.4,217.2c1.5,0,3.1,0,4.6,0c4.1,0,8.2,0,12.3,0c5.9,0,11.8,0,17.6,0c6.9,0,13.9,0,20.8,0
					c7.2,0,14.4,0,21.7,0c6.7,0,13.5,0,20.2,0c5.5,0,10.9,0,16.4,0c3.5,0,7,0,10.4,0c0.6,0,1.6,0.2,2.2,0c0.4-0.1,0.1,0.1,0.2-0.3
					c0.1-0.5,0-1.3,0-1.9c0-1.2,0-2.3,0-3.5c0-3.7,0-7.4,0-11.1c0-5.2,0-10.4,0-15.7c0-6.3,0-12.6,0-18.9c0-7,0-14,0-21
					c0-7.2,0-14.4,0-21.6c0-7.1,0-14.2,0-21.2c0-6.5,0-13,0-19.5c0-5.5,0-11,0-16.4c0-4,0-8.1,0-12.1c0-2.2,0-4.4,0-6.6
					c0-0.1,0.1-0.7,0-0.8c-0.1-0.1-1.1,0-1.3,0c-2.9,0-5.9,0-8.8,0c-5.1,0-10.3,0-15.4,0c-6.5,0-13.1,0-19.6,0c-7.2,0-14.4,0-21.5,0
					c-7.1,0-14.1,0-21.2,0c-6.2,0-12.3,0-18.5,0c-4.5,0-9.1,0-13.6,0c-1.4,0-2.8,0-4.2,0c-0.6,0-1.6-0.2-2.1,0
					c-0.3,0.1-0.1-0.1-0.2,0.3c-0.1,0.6,0,1.3,0,1.9c0,2.8,0,5.6,0,8.5c0,4.5,0,9.1,0,13.6c0,5.8,0,11.7,0,17.5c0,6.7,0,13.4,0,20.2
					c0,7.1,0,14.3,0,21.4c0,7.2,0,14.4,0,21.6c0,6.8,0,13.6,0,20.5c0,6,0,12,0,18c0,4.8,0,9.6,0,14.4c0,3.2,0,6.3,0,9.5
					C86.4,215.1,86.4,216.2,86.4,217.2z"/>
			</defs>
			<clipPath id="SVGID_16_">
				<use xlink:href="#SVGID_300_"  style="overflow:visible;"/>
			</clipPath>
		</g>
		<path class="st1" d="M152.3,184c0,0.1,0,0.2,0,0.3"/>
		<path class="st1" d="M116.6,175.7c-2.2-0.5-4.5-0.9-6.6-1.8 M147.4,180.9c-6.4-0.8-12.8-1.8-19.2-2.9c-1.7-0.3-3.4-0.6-5.2-1
			 M109.9,171.9c1,0.5,2.3,0.8,3.4,1c2,0.5,4,0.9,6,1.3c1,0.2,2,0.4,2.9,0.6 M109.5,171.6c0.1,0.1,0.2,0.3,0.4,0.3 M120.9,172.4
			c-2-0.3-4-0.5-6.1-0.7c-0.9-0.1-1.8-0.2-2.7-0.2c-0.7,0-2-0.3-2.6,0.1 M115.9,176.2c-2.1,2.1,2.1,3.8,3.5,4.3
			c3.7,1.3,7.6,2,11.5,2.6c2.2,0.3,4.5,0.6,6.7,0.9 M152.3,184.8h0.6C152.7,184.8,152.5,184.8,152.3,184.8c2.2,0,4.3-0.1,6.5-0.4
			c1.2-0.2,2.9-0.5,3.6-1.6c0.3-0.5,0.3-1.2,0-1.7 M153.2,179.9c-3.8-0.9-7.7-1.3-11.6-1.8c-4.2-0.6-8.4-0.9-12.6-1.1
			c-2-0.1-4.1-0.1-6.1,0c-1.1,0.1-2.2,0.1-3.3,0.3c-0.6,0.1-1.4,0.1-0.5,0.6c0.2,0.1,0.5,0.2,0.8,0.3c3.1,1.3,6.6,1.9,9.9,2.4
			c3.6,0.6,7.2,1.1,10.8,1.4c0.4,0,0.9,0.1,1.3,0.1"/>
		<g>
			<defs>
				<path id="SVGID_299_" d="M86.4,217.2c1.5,0,3.1,0,4.6,0c4.1,0,8.2,0,12.3,0c5.9,0,11.8,0,17.6,0c6.9,0,13.9,0,20.8,0
					c7.2,0,14.4,0,21.7,0c6.7,0,13.5,0,20.2,0c5.5,0,10.9,0,16.4,0c3.5,0,7,0,10.4,0c0.6,0,1.6,0.2,2.2,0c0.4-0.1,0.1,0.1,0.2-0.3
					c0.1-0.5,0-1.3,0-1.9c0-1.2,0-2.3,0-3.5c0-3.7,0-7.4,0-11.1c0-5.2,0-10.4,0-15.7c0-6.3,0-12.6,0-18.9c0-7,0-14,0-21
					c0-7.2,0-14.4,0-21.6c0-7.1,0-14.2,0-21.2c0-6.5,0-13,0-19.5c0-5.5,0-11,0-16.4c0-4,0-8.1,0-12.1c0-2.2,0-4.4,0-6.6
					c0-0.1,0.1-0.7,0-0.8c-0.1-0.1-1.1,0-1.3,0c-2.9,0-5.9,0-8.8,0c-5.1,0-10.3,0-15.4,0c-6.5,0-13.1,0-19.6,0c-7.2,0-14.4,0-21.5,0
					c-7.1,0-14.1,0-21.2,0c-6.2,0-12.3,0-18.5,0c-4.5,0-9.1,0-13.6,0c-1.4,0-2.8,0-4.2,0c-0.6,0-1.6-0.2-2.1,0
					c-0.3,0.1-0.1-0.1-0.2,0.3c-0.1,0.6,0,1.3,0,1.9c0,2.8,0,5.6,0,8.5c0,4.5,0,9.1,0,13.6c0,5.8,0,11.7,0,17.5c0,6.7,0,13.4,0,20.2
					c0,7.1,0,14.3,0,21.4c0,7.2,0,14.4,0,21.6c0,6.8,0,13.6,0,20.5c0,6,0,12,0,18c0,4.8,0,9.6,0,14.4c0,3.2,0,6.3,0,9.5
					C86.4,215.1,86.4,216.2,86.4,217.2z"/>
			</defs>
			<clipPath id="SVGID_17_">
				<use xlink:href="#SVGID_299_"  style="overflow:visible;"/>
			</clipPath>
			<path class="st7" d="M147.1,152v0.2 M165.9,143.9c-3.5,1.5-7,2.8-10.5,4.3 M154.6,156.5c0.3-0.1,0.5-0.1,0.8-0.2 M168.3,145.1
				c4.2-1.6,8.4-3.1,12.6-4.5c4.1-1.4,8.3-2.7,12.5-3.9c2.3-0.6,4.7-1.3,7-1.8 M211.9,131.4c3,2.1-3,5.2-4.3,6
				c-3.9,2.1-8,3.9-12.1,5.6c-4.2,1.7-8.5,3.4-12.8,4.9c-4.3,1.6-8.7,3-13.1,4.4c-4.2,1.3-8.5,2.6-12.8,3.6c-0.5,0.1-1,0.2-1.5,0.4
				 M209.7,133.2c-2.2,0.3-4.4,0.6-6.6,1.1 M200.2,132.8c-4.1,1.2-8.2,2.1-12.2,3.4c-4.2,1.3-8.4,2.6-12.6,4.1
				c-2.4,0.9-4.8,1.7-7.1,2.6 M211.9,131.4c-1-0.7-3-0.3-4.1-0.1c-1.7,0.2-3.4,0.6-5,0.9 M150.2,155.2c2.6-0.3,5.3-1.1,7.9-1.7
				c2.4-0.6,4.7-1.2,7-1.9c5-1.5,10-3.1,15-4.9c4.8-1.7,9.7-3.5,14.4-5.5c4.5-1.9,9.1-3.8,13.3-6.4c0.6-0.4,3.7-2.5,1.8-2.9
				c-1.6-0.4-3.5,0.1-5,0.4c-0.6,0.1-1.1,0.2-1.7,0.3 M180.6,140.7c2.2,1.2,3.8,2.5,4.7,4 M184.4,147.4c0,2.4-2.2,4.8-6.3,6.8
				 M184.4,147.5L184.4,147.5 M112.8,148.4c0-1.7,0.4-3.1,1.5-4.4 M113.7,150.9c-0.4-0.7-0.7-1.6-0.8-2.4 M118.6,155.3
				c-1.1-0.7-2.2-1.4-3.2-2.3 M147.5,161.3c4,0.3,8.1-0.2,12.1-0.4 M163.4,160.4c1.2-0.2,2.4-0.4,3.6-0.6 M128.8,139.4
				c1.3-0.4,2.7-0.6,4.1-0.9 M119.3,143c2-1.1,4-2,6.1-2.7 M116.3,150.3c-1.7-1.9-0.8-4.1,0.8-5.7 M184.4,147.6v-0.2 M178.6,156.4
				c-3.7,1.7-7.7,2.7-11.7,3.5 M186.4,146.7c0.8,3-1.5,5.9-3.8,7.5 M138.9,137.5c-2,0.3-4,0.6-6.1,0.9 M158.9,137.4
				c-2.1-0.3-4.4-0.4-6.6-0.4 M174.7,140.5c-3.4-1.2-6.9-1.9-10.4-2.5 M183.1,145.5c-1.4-1.7-3.4-2.8-5.4-3.8 M153.9,159.6
				c0.8,0,1.7-0.1,2.5-0.1 M147.1,159.1l0.2,0 M147.1,159.1c-11.7-0.3-22.2-2.6-27.9-6.2 M114.5,143.7c-0.1,0.1-0.1,0.2-0.2,0.3
				 M119.1,140.3c-0.9,0.5-1.8,1-2.7,1.7 M121.9,139.1c-1,0.4-2,0.9-2.9,1.4 M116.3,150.3c0.1,0.2,0.2,0.3,0.4,0.4 M184.4,147.8
				c0-0.1,0-0.1,0-0.2 M145.4,134.8c-2.2,0.1-4.4,0.3-6.6,0.5 M147.1,134.7c-0.7,0-1.3,0-2,0.1 M159.7,135.1
				c7.3,0.7,13.8,2.2,18.5,4.2 M174.1,156.6c-3.7,1.1-8.1,2-12.8,2.5"/>
		</g>
		<path class="st1" d="M145.8,151.9c0.2,0,0.4,0,0.6,0"/>
		<path class="st1" d="M145.8,151.9L145.8,151.9 M201.5,130.5c-0.8-0.7-1.7-1.1-2.7-1.5 M152.3,151.8c3.4-0.1,6.9-0.6,10.3-1.2
			c3.6-0.6,7.2-1.3,10.8-2.2c3.4-0.9,6.8-1.9,10.1-3.1c3.3-1.2,6.5-2.5,9.6-4.2c2.5-1.4,5.4-3.1,7-5.6c0.1-0.2,0.2-0.4,0.4-0.6
			 M136.3,140.7c-1.9,1.3-3.9,2.8-4.9,4.9 M186.1,127.6c-6.7,0-13.5,1-20,2.3c-6.7,1.4-13.2,3.2-19.6,5.7c-3.6,1.4-7.2,3-10.3,5.2
			 M186.5,127.5c-0.2,0-0.4,0-0.5,0 M189.4,127.6c-1,0-2.1,0-3.1,0 M198.8,129.1c-3-1.1-6.6-1.6-9.7-1.5 M134.2,149.1
			c2.2,1.8,5.4,2.3,8.2,2.6c1.1,0.1,2.3,0.2,3.4,0.2"/>
		<path class="st1" d="M152.3,148.6v-0.2 M152.3,149.5c0-0.3,0-0.6,0-0.9 M152.3,149.5c0,0.1,0,0.3,0,0.4 M147.1,151.7l-0.6,0.1
			 M202.8,132.2c-0.3-0.6-0.7-1.2-1.2-1.6 M201,138.3c1.3-1.5,2.8-3.8,1.9-5.9 M152.3,154.1c1.6-0.2,3.3-0.3,5-0.4 M200.4,134.9
			c0.9-1.9-1.1-3.1-2.7-3.7 M131.4,145.6c-1.1,2.6,0,5,2.4,6.3 M134.5,145.4c0.1-0.1,0.1-0.2,0.2-0.2c-1,1.2-1.9,2.7-0.5,3.9
			 M173,130.9c-5.4,0.9-10.7,2-16,3.5c-5.2,1.4-10.3,3.3-15.1,5.7c-2.6,1.3-5.3,2.9-7.2,5 M192.1,130.1c-5.1-0.4-10.2-0.2-15.2,0.3
			c-1.4,0.2-2.7,0.4-4.1,0.5 M197.7,131.2c-1.9-0.7-4-1-6-1.2 M146.4,151.9L146.4,151.9"/>
		<path class="st1" d="M129.4,145.7c0.6,0.1,1.2,0.3,1.9,0.4 M99,131.3c1.7,3.5,6.2,5.7,9.5,7.4c4.1,2,8.4,3.6,12.8,4.9
			c2.6,0.8,5.3,1.5,8,2.1 M133.7,146.6c4.4,0.7,8.8,1.4,13.3,1.7"/>
		<path class="st1" d="M163.5,137.5c-1.9-1.2-3.8-2.3-5.7-3.3 M167.9,142c-1-2.1-3-3.5-4.8-4.8 M137,127.1
			c-5.8-1.3-11.6-2.3-17.5-2.8c-5.6-0.4-11.4-0.8-16.9,0.5c-1.7,0.4-3.5,1-4.8,2.1 M154.7,132.8c-4.3-2-9.1-3.4-13.7-4.6
			c-1.4-0.4-2.8-0.7-4.3-1.1 M153.6,148.4c3.2,0,7.1-0.4,10-1.8c0.5-0.3,1.1-0.6,1.6-1 M153.6,148.4L153.6,148.4"/>
		<path class="st1" d="M153.6,148.4c-0.2,0-0.4,0-0.6,0"/>
		<path class="st1" d="M152.9,148.3L152.9,148.3 M152.3,150.7c3.2-0.1,6.4-0.2,9.5-1c2.3-0.6,5.2-1.6,6.3-3.9
			c0.6-1.2,0.4-2.6-0.1-3.8 M135.6,149.2c3.8,0.6,7.6,1,11.5,1.4 M151.3,133.8c-5.6-2.3-11.5-3.9-17.4-5.1c-1.7-0.4-3.5-0.7-5.2-1
			 M165.1,145.5c3.4-2.8-4.6-7.3-6.4-8.2c-1.4-0.8-2.8-1.5-4.3-2.1 M134,148.9c0.5,0.1,1.1,0.2,1.6,0.3 M102.9,138.3
			c6.5,4,14.1,6.6,21.5,8.5c2.2,0.6,4.4,1.1,6.6,1.5 M97.9,127c-3.2,2.8-1,6.5,1.6,8.8c1.1,0.9,2.3,1.7,3.5,2.5 M115.3,126.3
			c4.5,0.2,8.9,0.7,13.4,1.4 M99,131.3c-2.2-4.3,9-4.9,11-5c1.8-0.1,3.5-0.1,5.3,0 M152.3,148.1l0.6,0.2"/>
		<g>
			<defs>
				<path id="SVGID_298_" d="M86.4,217.2c1.5,0,3.1,0,4.6,0c4.1,0,8.2,0,12.3,0c5.9,0,11.8,0,17.6,0c6.9,0,13.9,0,20.8,0
					c7.2,0,14.4,0,21.7,0c6.7,0,13.5,0,20.2,0c5.5,0,10.9,0,16.4,0c3.5,0,7,0,10.4,0c0.6,0,1.6,0.2,2.2,0c0.4-0.1,0.1,0.1,0.2-0.3
					c0.1-0.5,0-1.3,0-1.9c0-1.2,0-2.3,0-3.5c0-3.7,0-7.4,0-11.1c0-5.2,0-10.4,0-15.7c0-6.3,0-12.6,0-18.9c0-7,0-14,0-21
					c0-7.2,0-14.4,0-21.6c0-7.1,0-14.2,0-21.2c0-6.5,0-13,0-19.5c0-5.5,0-11,0-16.4c0-4,0-8.1,0-12.1c0-2.2,0-4.4,0-6.6
					c0-0.1,0.1-0.7,0-0.8c-0.1-0.1-1.1,0-1.3,0c-2.9,0-5.9,0-8.8,0c-5.1,0-10.3,0-15.4,0c-6.5,0-13.1,0-19.6,0c-7.2,0-14.4,0-21.5,0
					c-7.1,0-14.1,0-21.2,0c-6.2,0-12.3,0-18.5,0c-4.5,0-9.1,0-13.6,0c-1.4,0-2.8,0-4.2,0c-0.6,0-1.6-0.2-2.1,0
					c-0.3,0.1-0.1-0.1-0.2,0.3c-0.1,0.6,0,1.3,0,1.9c0,2.8,0,5.6,0,8.5c0,4.5,0,9.1,0,13.6c0,5.8,0,11.7,0,17.5c0,6.7,0,13.4,0,20.2
					c0,7.1,0,14.3,0,21.4c0,7.2,0,14.4,0,21.6c0,6.8,0,13.6,0,20.5c0,6,0,12,0,18c0,4.8,0,9.6,0,14.4c0,3.2,0,6.3,0,9.5
					C86.4,215.1,86.4,216.2,86.4,217.2z"/>
			</defs>
			<clipPath id="SVGID_18_">
				<use xlink:href="#SVGID_298_"  style="overflow:visible;"/>
			</clipPath>
			<path class="st8" d="M143.1,137c-3.5-1.5-7.1-3-10.6-4.3c-3.9-1.5-7.9-2.9-11.9-4.3c-2.2-0.7-4.4-1.5-6.6-2.2 M147.1,138.8
				c-0.4-0.2-0.8-0.4-1.2-0.5"/>
		</g>
		<g>
			<defs>
				<path id="SVGID_297_" d="M86.4,217.2c1.5,0,3.1,0,4.6,0c4.1,0,8.2,0,12.3,0c5.9,0,11.8,0,17.6,0c6.9,0,13.9,0,20.8,0
					c7.2,0,14.4,0,21.7,0c6.7,0,13.5,0,20.2,0c5.5,0,10.9,0,16.4,0c3.5,0,7,0,10.4,0c0.6,0,1.6,0.2,2.2,0c0.4-0.1,0.1,0.1,0.2-0.3
					c0.1-0.5,0-1.3,0-1.9c0-1.2,0-2.3,0-3.5c0-3.7,0-7.4,0-11.1c0-5.2,0-10.4,0-15.7c0-6.3,0-12.6,0-18.9c0-7,0-14,0-21
					c0-7.2,0-14.4,0-21.6c0-7.1,0-14.2,0-21.2c0-6.5,0-13,0-19.5c0-5.5,0-11,0-16.4c0-4,0-8.1,0-12.1c0-2.2,0-4.4,0-6.6
					c0-0.1,0.1-0.7,0-0.8c-0.1-0.1-1.1,0-1.3,0c-2.9,0-5.9,0-8.8,0c-5.1,0-10.3,0-15.4,0c-6.5,0-13.1,0-19.6,0c-7.2,0-14.4,0-21.5,0
					c-7.1,0-14.1,0-21.2,0c-6.2,0-12.3,0-18.5,0c-4.5,0-9.1,0-13.6,0c-1.4,0-2.8,0-4.2,0c-0.6,0-1.6-0.2-2.1,0
					c-0.3,0.1-0.1-0.1-0.2,0.3c-0.1,0.6,0,1.3,0,1.9c0,2.8,0,5.6,0,8.5c0,4.5,0,9.1,0,13.6c0,5.8,0,11.7,0,17.5c0,6.7,0,13.4,0,20.2
					c0,7.1,0,14.3,0,21.4c0,7.2,0,14.4,0,21.6c0,6.8,0,13.6,0,20.5c0,6,0,12,0,18c0,4.8,0,9.6,0,14.4c0,3.2,0,6.3,0,9.5
					C86.4,215.1,86.4,216.2,86.4,217.2z"/>
			</defs>
			<clipPath id="SVGID_19_">
				<use xlink:href="#SVGID_297_"  style="overflow:visible;"/>
			</clipPath>
			<path class="st9" d="M138.3,142.2c5.4,1.1,10.9,3.4,16.5,3.3c0.5,0,1.9,0,1.6-0.8 M99.8,128.6c4.3,2,8.8,3.6,13.2,5.3
				c4.8,1.8,9.6,3.5,14.5,5.1c2.6,0.8,5.2,1.6,7.8,2.4 M89.6,122.6c2.1,2.1,5.3,3.4,8,4.7 M93.3,121.3c-1.6-0.3-3-0.9-4.6-0.9
				c-0.3,0-0.9,0-1.2,0.3 M156.4,144.7c-1-1.3-2.5-2.4-4-3.2 M89.2,121.9c0.1,0.2,0.2,0.4,0.4,0.6 M89.4,121.4
				c-0.2,0.1-0.3,0.3-0.2,0.6 M106.4,124.3c-2.7-0.9-5.5-1.5-8.3-2.1c-2.2-0.5-4.4-0.9-6.6-1c-0.7,0-1.4-0.1-2,0.2"/>
		</g>
		<g>
			<defs>
				<path id="SVGID_296_" d="M86.4,217.2c1.5,0,3.1,0,4.6,0c4.1,0,8.2,0,12.3,0c5.9,0,11.8,0,17.6,0c6.9,0,13.9,0,20.8,0
					c7.2,0,14.4,0,21.7,0c6.7,0,13.5,0,20.2,0c5.5,0,10.9,0,16.4,0c3.5,0,7,0,10.4,0c0.6,0,1.6,0.2,2.2,0c0.4-0.1,0.1,0.1,0.2-0.3
					c0.1-0.5,0-1.3,0-1.9c0-1.2,0-2.3,0-3.5c0-3.7,0-7.4,0-11.1c0-5.2,0-10.4,0-15.7c0-6.3,0-12.6,0-18.9c0-7,0-14,0-21
					c0-7.2,0-14.4,0-21.6c0-7.1,0-14.2,0-21.2c0-6.5,0-13,0-19.5c0-5.5,0-11,0-16.4c0-4,0-8.1,0-12.1c0-2.2,0-4.4,0-6.6
					c0-0.1,0.1-0.7,0-0.8c-0.1-0.1-1.1,0-1.3,0c-2.9,0-5.9,0-8.8,0c-5.1,0-10.3,0-15.4,0c-6.5,0-13.1,0-19.6,0c-7.2,0-14.4,0-21.5,0
					c-7.1,0-14.1,0-21.2,0c-6.2,0-12.3,0-18.5,0c-4.5,0-9.1,0-13.6,0c-1.4,0-2.8,0-4.2,0c-0.6,0-1.6-0.2-2.1,0
					c-0.3,0.1-0.1-0.1-0.2,0.3c-0.1,0.6,0,1.3,0,1.9c0,2.8,0,5.6,0,8.5c0,4.5,0,9.1,0,13.6c0,5.8,0,11.7,0,17.5c0,6.7,0,13.4,0,20.2
					c0,7.1,0,14.3,0,21.4c0,7.2,0,14.4,0,21.6c0,6.8,0,13.6,0,20.5c0,6,0,12,0,18c0,4.8,0,9.6,0,14.4c0,3.2,0,6.3,0,9.5
					C86.4,215.1,86.4,216.2,86.4,217.2z"/>
			</defs>
			<clipPath id="SVGID_20_">
				<use xlink:href="#SVGID_296_"  style="overflow:visible;"/>
			</clipPath>
			<path class="st10" d="M160.8,161.6c-1.6-0.1-3.2-0.2-4.8-0.4 M170.9,163.3c-1.9-0.6-3.9-0.9-5.9-1.2 M179.5,167.9
				c0.1,0.3,0.3,0.6,0.3,0.9 M147.1,161.6h-0.2 M120.2,167.3c0.7-1,2.2-1.9,4.3-2.8 M128.7,163.2c2.3-0.6,4.9-1.1,7.8-1.4
				 M130.3,163.5c2.3-0.6,5-1,7.9-1.4 M147.1,176 M176.4,165.3c-0.6-0.3-1.3-0.6-1.9-0.8 M96.4,129c-3-1.4-6.5-2.9-8.9-5.2
				 M133.6,142.8c-4.7-1.4-9.4-2.9-14-4.5c-4.5-1.6-9-3.2-13.4-5c-2.5-1-5-2.1-7.5-3.2 M156.4,144.7c1.3,4.8-12.4,0.9-14.2,0.5
				c-2-0.5-3.9-1-5.9-1.6 M87.5,123.8c-0.9-0.9-1.2-2.3-0.1-3.1 M147.1,141.2c-1.2-0.6-2.4-1.2-3.7-1.7 M107.5,126.5
				c4.3,1.3,8.7,2.7,12.9,4.1c4.4,1.5,8.7,3.1,13,4.7c2.4,0.9,4.8,1.9,7.1,2.9 M89.7,122.7c4.1,0,8.4,1.3,12.4,2.3"/>
		</g>
		<g>
			<defs>
				<path id="SVGID_295_" d="M86.4,217.2c1.5,0,3.1,0,4.6,0c4.1,0,8.2,0,12.3,0c5.9,0,11.8,0,17.6,0c6.9,0,13.9,0,20.8,0
					c7.2,0,14.4,0,21.7,0c6.7,0,13.5,0,20.2,0c5.5,0,10.9,0,16.4,0c3.5,0,7,0,10.4,0c0.6,0,1.6,0.2,2.2,0c0.4-0.1,0.1,0.1,0.2-0.3
					c0.1-0.5,0-1.3,0-1.9c0-1.2,0-2.3,0-3.5c0-3.7,0-7.4,0-11.1c0-5.2,0-10.4,0-15.7c0-6.3,0-12.6,0-18.9c0-7,0-14,0-21
					c0-7.2,0-14.4,0-21.6c0-7.1,0-14.2,0-21.2c0-6.5,0-13,0-19.5c0-5.5,0-11,0-16.4c0-4,0-8.1,0-12.1c0-2.2,0-4.4,0-6.6
					c0-0.1,0.1-0.7,0-0.8c-0.1-0.1-1.1,0-1.3,0c-2.9,0-5.9,0-8.8,0c-5.1,0-10.3,0-15.4,0c-6.5,0-13.1,0-19.6,0c-7.2,0-14.4,0-21.5,0
					c-7.1,0-14.1,0-21.2,0c-6.2,0-12.3,0-18.5,0c-4.5,0-9.1,0-13.6,0c-1.4,0-2.8,0-4.2,0c-0.6,0-1.6-0.2-2.1,0
					c-0.3,0.1-0.1-0.1-0.2,0.3c-0.1,0.6,0,1.3,0,1.9c0,2.8,0,5.6,0,8.5c0,4.5,0,9.1,0,13.6c0,5.8,0,11.7,0,17.5c0,6.7,0,13.4,0,20.2
					c0,7.1,0,14.3,0,21.4c0,7.2,0,14.4,0,21.6c0,6.8,0,13.6,0,20.5c0,6,0,12,0,18c0,4.8,0,9.6,0,14.4c0,3.2,0,6.3,0,9.5
					C86.4,215.1,86.4,216.2,86.4,217.2z"/>
			</defs>
			<clipPath id="SVGID_21_">
				<use xlink:href="#SVGID_295_"  style="overflow:visible;"/>
			</clipPath>
			<path class="st11" d="M147.1,161.5h-0.1 M177.9,168.9c0-0.2,0-0.4,0-0.5 M177.8,169.2L177.8,169.2"/>
		</g>
		<g>
			<defs>
				<path id="SVGID_294_" d="M86.4,217.2c1.5,0,3.1,0,4.6,0c4.1,0,8.2,0,12.3,0c5.9,0,11.8,0,17.6,0c6.9,0,13.9,0,20.8,0
					c7.2,0,14.4,0,21.7,0c6.7,0,13.5,0,20.2,0c5.5,0,10.9,0,16.4,0c3.5,0,7,0,10.4,0c0.6,0,1.6,0.2,2.2,0c0.4-0.1,0.1,0.1,0.2-0.3
					c0.1-0.5,0-1.3,0-1.9c0-1.2,0-2.3,0-3.5c0-3.7,0-7.4,0-11.1c0-5.2,0-10.4,0-15.7c0-6.3,0-12.6,0-18.9c0-7,0-14,0-21
					c0-7.2,0-14.4,0-21.6c0-7.1,0-14.2,0-21.2c0-6.5,0-13,0-19.5c0-5.5,0-11,0-16.4c0-4,0-8.1,0-12.1c0-2.2,0-4.4,0-6.6
					c0-0.1,0.1-0.7,0-0.8c-0.1-0.1-1.1,0-1.3,0c-2.9,0-5.9,0-8.8,0c-5.1,0-10.3,0-15.4,0c-6.5,0-13.1,0-19.6,0c-7.2,0-14.4,0-21.5,0
					c-7.1,0-14.1,0-21.2,0c-6.2,0-12.3,0-18.5,0c-4.5,0-9.1,0-13.6,0c-1.4,0-2.8,0-4.2,0c-0.6,0-1.6-0.2-2.1,0
					c-0.3,0.1-0.1-0.1-0.2,0.3c-0.1,0.6,0,1.3,0,1.9c0,2.8,0,5.6,0,8.5c0,4.5,0,9.1,0,13.6c0,5.8,0,11.7,0,17.5c0,6.7,0,13.4,0,20.2
					c0,7.1,0,14.3,0,21.4c0,7.2,0,14.4,0,21.6c0,6.8,0,13.6,0,20.5c0,6,0,12,0,18c0,4.8,0,9.6,0,14.4c0,3.2,0,6.3,0,9.5
					C86.4,215.1,86.4,216.2,86.4,217.2z"/>
			</defs>
			<clipPath id="SVGID_22_">
				<use xlink:href="#SVGID_294_"  style="overflow:visible;"/>
			</clipPath>
		</g>
		<g>
			<defs>
				<path id="SVGID_293_" d="M86.4,217.2c1.5,0,3.1,0,4.6,0c4.1,0,8.2,0,12.3,0c5.9,0,11.8,0,17.6,0c6.9,0,13.9,0,20.8,0
					c7.2,0,14.4,0,21.7,0c6.7,0,13.5,0,20.2,0c5.5,0,10.9,0,16.4,0c3.5,0,7,0,10.4,0c0.6,0,1.6,0.2,2.2,0c0.4-0.1,0.1,0.1,0.2-0.3
					c0.1-0.5,0-1.3,0-1.9c0-1.2,0-2.3,0-3.5c0-3.7,0-7.4,0-11.1c0-5.2,0-10.4,0-15.7c0-6.3,0-12.6,0-18.9c0-7,0-14,0-21
					c0-7.2,0-14.4,0-21.6c0-7.1,0-14.2,0-21.2c0-6.5,0-13,0-19.5c0-5.5,0-11,0-16.4c0-4,0-8.1,0-12.1c0-2.2,0-4.4,0-6.6
					c0-0.1,0.1-0.7,0-0.8c-0.1-0.1-1.1,0-1.3,0c-2.9,0-5.9,0-8.8,0c-5.1,0-10.3,0-15.4,0c-6.5,0-13.1,0-19.6,0c-7.2,0-14.4,0-21.5,0
					c-7.1,0-14.1,0-21.2,0c-6.2,0-12.3,0-18.5,0c-4.5,0-9.1,0-13.6,0c-1.4,0-2.8,0-4.2,0c-0.6,0-1.6-0.2-2.1,0
					c-0.3,0.1-0.1-0.1-0.2,0.3c-0.1,0.6,0,1.3,0,1.9c0,2.8,0,5.6,0,8.5c0,4.5,0,9.1,0,13.6c0,5.8,0,11.7,0,17.5c0,6.7,0,13.4,0,20.2
					c0,7.1,0,14.3,0,21.4c0,7.2,0,14.4,0,21.6c0,6.8,0,13.6,0,20.5c0,6,0,12,0,18c0,4.8,0,9.6,0,14.4c0,3.2,0,6.3,0,9.5
					C86.4,215.1,86.4,216.2,86.4,217.2z"/>
			</defs>
			<clipPath id="SVGID_23_">
				<use xlink:href="#SVGID_293_"  style="overflow:visible;"/>
			</clipPath>
			<path class="st12" d="M179.9,168.8c0.4,2-1,3.5-2.5,4.5c-2.4,1.6-5.4,2.4-8.2,3.1c-1.8,0.4-3.6,0.7-5.4,1 M170.4,165.5
				c0.8,0.2,1.5,0.5,2.2,0.7 M166.1,164.6c-0.3-0.1-0.5-0.1-0.8-0.1 M156,163.4c2.1,0.1,4.3,0.3,6.4,0.6 M125.1,174.8
				c-2.3-0.9-6-2.7-5.6-5.7c0.1-0.6,0.4-1.3,0.8-1.8 M163.8,177.3c-2.9,0.4-5.7,0.7-8.6,0.8 M135.6,164.2c-0.3,0-0.6,0.1-0.8,0.1"/>
		</g>
		<g>
			<defs>
				<path id="SVGID_292_" d="M86.4,217.2c1.5,0,3.1,0,4.6,0c4.1,0,8.2,0,12.3,0c5.9,0,11.8,0,17.6,0c6.9,0,13.9,0,20.8,0
					c7.2,0,14.4,0,21.7,0c6.7,0,13.5,0,20.2,0c5.5,0,10.9,0,16.4,0c3.5,0,7,0,10.4,0c0.6,0,1.6,0.2,2.2,0c0.4-0.1,0.1,0.1,0.2-0.3
					c0.1-0.5,0-1.3,0-1.9c0-1.2,0-2.3,0-3.5c0-3.7,0-7.4,0-11.1c0-5.2,0-10.4,0-15.7c0-6.3,0-12.6,0-18.9c0-7,0-14,0-21
					c0-7.2,0-14.4,0-21.6c0-7.1,0-14.2,0-21.2c0-6.5,0-13,0-19.5c0-5.5,0-11,0-16.4c0-4,0-8.1,0-12.1c0-2.2,0-4.4,0-6.6
					c0-0.1,0.1-0.7,0-0.8c-0.1-0.1-1.1,0-1.3,0c-2.9,0-5.9,0-8.8,0c-5.1,0-10.3,0-15.4,0c-6.5,0-13.1,0-19.6,0c-7.2,0-14.4,0-21.5,0
					c-7.1,0-14.1,0-21.2,0c-6.2,0-12.3,0-18.5,0c-4.5,0-9.1,0-13.6,0c-1.4,0-2.8,0-4.2,0c-0.6,0-1.6-0.2-2.1,0
					c-0.3,0.1-0.1-0.1-0.2,0.3c-0.1,0.6,0,1.3,0,1.9c0,2.8,0,5.6,0,8.5c0,4.5,0,9.1,0,13.6c0,5.8,0,11.7,0,17.5c0,6.7,0,13.4,0,20.2
					c0,7.1,0,14.3,0,21.4c0,7.2,0,14.4,0,21.6c0,6.8,0,13.6,0,20.5c0,6,0,12,0,18c0,4.8,0,9.6,0,14.4c0,3.2,0,6.3,0,9.5
					C86.4,215.1,86.4,216.2,86.4,217.2z"/>
			</defs>
			<clipPath id="SVGID_24_">
				<use xlink:href="#SVGID_292_"  style="overflow:visible;"/>
			</clipPath>
			<path class="st13" d="M177.9,168.9c0,3.9-10.5,7.1-25.5,7.3"/>
		</g>
		<g>
			<defs>
				<path id="SVGID_291_" d="M86.4,217.2c1.5,0,3.1,0,4.6,0c4.1,0,8.2,0,12.3,0c5.9,0,11.8,0,17.6,0c6.9,0,13.9,0,20.8,0
					c7.2,0,14.4,0,21.7,0c6.7,0,13.5,0,20.2,0c5.5,0,10.9,0,16.4,0c3.5,0,7,0,10.4,0c0.6,0,1.6,0.2,2.2,0c0.4-0.1,0.1,0.1,0.2-0.3
					c0.1-0.5,0-1.3,0-1.9c0-1.2,0-2.3,0-3.5c0-3.7,0-7.4,0-11.1c0-5.2,0-10.4,0-15.7c0-6.3,0-12.6,0-18.9c0-7,0-14,0-21
					c0-7.2,0-14.4,0-21.6c0-7.1,0-14.2,0-21.2c0-6.5,0-13,0-19.5c0-5.5,0-11,0-16.4c0-4,0-8.1,0-12.1c0-2.2,0-4.4,0-6.6
					c0-0.1,0.1-0.7,0-0.8c-0.1-0.1-1.1,0-1.3,0c-2.9,0-5.9,0-8.8,0c-5.1,0-10.3,0-15.4,0c-6.5,0-13.1,0-19.6,0c-7.2,0-14.4,0-21.5,0
					c-7.1,0-14.1,0-21.2,0c-6.2,0-12.3,0-18.5,0c-4.5,0-9.1,0-13.6,0c-1.4,0-2.8,0-4.2,0c-0.6,0-1.6-0.2-2.1,0
					c-0.3,0.1-0.1-0.1-0.2,0.3c-0.1,0.6,0,1.3,0,1.9c0,2.8,0,5.6,0,8.5c0,4.5,0,9.1,0,13.6c0,5.8,0,11.7,0,17.5c0,6.7,0,13.4,0,20.2
					c0,7.1,0,14.3,0,21.4c0,7.2,0,14.4,0,21.6c0,6.8,0,13.6,0,20.5c0,6,0,12,0,18c0,4.8,0,9.6,0,14.4c0,3.2,0,6.3,0,9.5
					C86.4,215.1,86.4,216.2,86.4,217.2z"/>
			</defs>
			<clipPath id="SVGID_25_">
				<use xlink:href="#SVGID_291_"  style="overflow:visible;"/>
			</clipPath>
			<path class="st14" d="M201.5,157.8c-0.7-0.4-2-0.2-2.8-0.2c-1.6,0.1-3.3,0.4-4.9,0.6 M152.7,172.2c3.4-0.5,6.9-1.3,10.3-2.1
				c3.6-0.8,7.2-1.7,10.8-2.6c3.6-0.9,7.2-1.9,10.7-2.9c3.5-1,7.1-2.1,10.6-3.4c1.4-0.5,2.9-1.1,4.2-1.7c0.5-0.2,2-0.7,2.2-1.4
				c0.1-0.1,0.1-0.2,0-0.3 M143.4,172.7c-0.2,1,5.7,0.1,6.2,0.1c1.1-0.2,2.1-0.3,3.2-0.5 M145.2,171.4c-0.6,0.3-1.6,0.7-1.9,1.3
				 M191.1,158.7c-6.8,1.1-13.5,2.8-20.2,4.5c-1.9,0.5-3.9,1-5.9,1.6"/>
		</g>
		<path class="st1" d="M192.9,156.4c-0.9-0.9-2.3-1.2-3.5-1.5c-2.1-0.5-4.3-0.6-6.4-0.7c-4.3-0.1-8.6,0.2-12.8,0.6
			c-4.5,0.4-8.9,1.2-13.3,2c-4.1,0.8-8.2,1.8-12.2,3.1c-2.2,0.7-4.4,1.5-6.4,2.6c-1.3,0.7-2.7,1.4-3.6,2.5c-0.2,0.2-0.3,0.4-0.4,0.6
			 M152.3,169.1c5.7-0.2,11.5-1.1,17.1-2.2c5.5-1.1,11.1-2.5,16.3-4.7c1.8-0.8,4.6-1.9,5.5-3.7 M201.5,157.8
			c2.1,1.9-2.1,3.7-3.3,4.2c-3.5,1.4-7.1,2.6-10.7,3.7c-7,2.1-14.1,4-21.3,5.7c-4.1,1-8.2,1.8-12.4,2.6 M198.9,159.7
			c-2,0.3-4,0.5-6,0.8 M153.8,173.9c-2.1,0.3-4.2,0.7-6.3,0.9c-1.2,0.1-3.1,0.4-3.9-0.7c-0.3-0.4-0.3-0.9-0.2-1.4 M160.2,168.4
			c6.9-2,13.8-3.8,20.8-5.4c2-0.5,4-0.9,6-1.3"/>
		<path class="st1" d="M147.1,169.3v0.2"/>
		<path class="st1" d="M147,169.1l-0.5,0.1 M134.3,165.6c-1.2,2.6,1.3,4.2,3.5,4.8 M189.2,157.2c-3.2-1-7-0.9-10.3-0.9
			c-3.9,0-7.7,0.4-11.6,0.9c-7.6,0.9-15.3,2.4-22.5,5c-1.8,0.6-3.7,1.3-5.4,2.3c-0.4,0.2-3.7,2-2.9,2.7 M188.4,163.4
			c2-1,6.1-2.8,5.3-5.8c-0.1-0.5-0.4-0.9-0.8-1.3 M152.3,171.3c2.8-0.1,5.6-0.7,8.3-0.6 M137.8,170.4c2.9,1,6.3,1,9.2,1
			 M191.2,158.5c0.4-0.6-1.6-1.2-2-1.3"/>
		<path class="st1" d="M138.8,164.9c2.8,0.3,5.5,0.6,8.3,0.7 M165.1,162.2c-1-1.9-3.5-2.8-5.3-3.8 M156,156.9
			c-3.1-1.3-6.6-2.1-9.8-2.8c-3.5-0.8-6.9-1.4-10.4-2c-6.9-1.1-14-1.8-20.9-1.3c-1.8,0.1-3.6,0.3-5.3,0.7c-1,0.3-2.2,0.6-3,1.4
			 M153.5,165.7c2,0,4.1-0.2,6-0.6c1.1-0.3,2.4-0.6,3.3-1.4 M153.5,165.7L153.5,165.7"/>
		<path class="st1" d="M108.1,155.1c0.6,1.1,1.7,1.8,2.8,2.4c1.8,1,3.7,1.8,5.7,2.5c3.8,1.4,7.7,2.3,11.6,3.2
			c2.3,0.5,4.7,0.9,7.1,1.3"/>
		<path class="st1" d="M153.5,165.7c-0.2,0-0.5,0-0.7,0 M152.3,166.1v-0.2"/>
		<path class="st1" d="M152.3,167c0-0.3,0-0.6,0-0.8"/>
		<path class="st1" d="M119.2,150.7c-1-0.2-2.1-0.5-3.1-0.7 M145.2,157.8c-3.6-1.1-7.1-2.2-10.7-3.2c-1-0.3-2.1-0.6-3.1-0.8
			 M147.1,158.4c-0.6-0.2-1.3-0.4-1.9-0.6 M155.6,161.9c-0.4-0.2-0.7-0.5-1.1-0.6 M156,162.4c-0.1-0.2-0.3-0.3-0.4-0.5 M146.1,161.8
			c1.9,0.3,3.8,0.7,5.8,1c0.4,0,4.4,0.5,4.2-0.4 M111.9,153.4c3.8,1.1,7.6,2.2,11.5,3.2c4,1.1,8.1,2,12.1,3c2,0.5,4.1,1,6.2,1.3
			 M98,147.7c0,0.3,0.2,0.4,0.4,0.6 M152.8,165.7L152.8,165.7 M152.3,165.6l0.5,0.1 M136.5,166.8c0.7,0.1,1.4,0.2,2.1,0.3
			 M106.4,152.9c-2.8,2.9,1.7,5.7,3.9,6.9c4.6,2.4,9.8,3.7,14.9,4.9c2.9,0.7,5.8,1.2,8.8,1.7 M108.1,155.1c-0.7-1.3,7-2,7.8-2.1
			c3.5-0.2,7-0.1,10.5,0.2c1.9,0.2,3.8,0.4,5.7,0.6 M152.3,168c2.8,0,5.7-0.1,8.5-0.8c1.7-0.4,3.9-1.1,4.5-2.9
			c0.2-0.7,0.1-1.4-0.2-2.1 M138.6,167.1c2.8,0.3,5.7,0.5,8.5,0.8 M151.8,157.9c-5-1.5-10.1-2.6-15.2-3.4c-1.5-0.2-3-0.5-4.4-0.6
			 M162.8,163.7c1.1-1-6.3-4.2-7.1-4.5 M152.3,167c0,0.1,0,0.2,0,0.4"/>
		<g>
			<defs>
				<path id="SVGID_288_" d="M86.4,217.2c1.5,0,3.1,0,4.6,0c4.1,0,8.2,0,12.3,0c5.9,0,11.8,0,17.6,0c6.9,0,13.9,0,20.8,0
					c7.2,0,14.4,0,21.7,0c6.7,0,13.5,0,20.2,0c5.5,0,10.9,0,16.4,0c3.5,0,7,0,10.4,0c0.6,0,1.6,0.2,2.2,0c0.4-0.1,0.1,0.1,0.2-0.3
					c0.1-0.5,0-1.3,0-1.9c0-1.2,0-2.3,0-3.5c0-3.7,0-7.4,0-11.1c0-5.2,0-10.4,0-15.7c0-6.3,0-12.6,0-18.9c0-7,0-14,0-21
					c0-7.2,0-14.4,0-21.6c0-7.1,0-14.2,0-21.2c0-6.5,0-13,0-19.5c0-5.5,0-11,0-16.4c0-4,0-8.1,0-12.1c0-2.2,0-4.4,0-6.6
					c0-0.1,0.1-0.7,0-0.8c-0.1-0.1-1.1,0-1.3,0c-2.9,0-5.9,0-8.8,0c-5.1,0-10.3,0-15.4,0c-6.5,0-13.1,0-19.6,0c-7.2,0-14.4,0-21.5,0
					c-7.1,0-14.1,0-21.2,0c-6.2,0-12.3,0-18.5,0c-4.5,0-9.1,0-13.6,0c-1.4,0-2.8,0-4.2,0c-0.6,0-1.6-0.2-2.1,0
					c-0.3,0.1-0.1-0.1-0.2,0.3c-0.1,0.6,0,1.3,0,1.9c0,2.8,0,5.6,0,8.5c0,4.5,0,9.1,0,13.6c0,5.8,0,11.7,0,17.5c0,6.7,0,13.4,0,20.2
					c0,7.1,0,14.3,0,21.4c0,7.2,0,14.4,0,21.6c0,6.8,0,13.6,0,20.5c0,6,0,12,0,18c0,4.8,0,9.6,0,14.4c0,3.2,0,6.3,0,9.5
					C86.4,215.1,86.4,216.2,86.4,217.2z"/>
			</defs>
			<clipPath id="SVGID_26_">
				<use xlink:href="#SVGID_288_"  style="overflow:visible;"/>
			</clipPath>
			<path class="st15" d="M149.7,47h16.6 M149.7,47H133 M149.9,53.7v0.1 M149.4,53.7v0.1 M150.1,54.7v0.2 M150.1,53.8v0.7
				 M149.3,54.7v0.2 M149.3,53.8v0.7 M150,53.8h0.1 M150,54.9h0.1 M149.3,53.8h0.7 M149.3,54.9h0.7 M98.3,150.2
				c-0.8-0.6-1.5-2.2-0.2-2.6c-0.1,0-0.1,0-0.2,0.1 M141.3,158.7c-5.6-1.5-11.1-3.2-16.8-4.6c-1.6-0.4-3.3-0.8-4.9-1.2 M101.3,149.7
				c1.7-0.1,3.3,0.2,5,0.5c1.7,0.3,3.5,0.6,5.2,0.9 M106,153.5c-2.6-0.9-5.4-1.7-7.7-3.3 M138.7,162.3c-7.9-1.7-15.8-3.7-23.5-5.9
				c-2.2-0.6-4.4-1.3-6.5-2 M156,162.4c1.6,3.6-7.9,1.7-9.1,1.5c-1.4-0.2-2.9-0.5-4.3-0.8 M98.4,148.3c1,0.7,2.2,1.2,3.3,1.6
				c2,0.8,4,1.6,6.1,2.2"/>
		</g>
		<path class="st1" d="M165.8,52.5h-16.2 M149.7,52.5h-16.2"/>
		<g>
			<defs>
				<path id="SVGID_287_" d="M86.4,217.2c1.5,0,3.1,0,4.6,0c4.1,0,8.2,0,12.3,0c5.9,0,11.8,0,17.6,0c6.9,0,13.9,0,20.8,0
					c7.2,0,14.4,0,21.7,0c6.7,0,13.5,0,20.2,0c5.5,0,10.9,0,16.4,0c3.5,0,7,0,10.4,0c0.6,0,1.6,0.2,2.2,0c0.4-0.1,0.1,0.1,0.2-0.3
					c0.1-0.5,0-1.3,0-1.9c0-1.2,0-2.3,0-3.5c0-3.7,0-7.4,0-11.1c0-5.2,0-10.4,0-15.7c0-6.3,0-12.6,0-18.9c0-7,0-14,0-21
					c0-7.2,0-14.4,0-21.6c0-7.1,0-14.2,0-21.2c0-6.5,0-13,0-19.5c0-5.5,0-11,0-16.4c0-4,0-8.1,0-12.1c0-2.2,0-4.4,0-6.6
					c0-0.1,0.1-0.7,0-0.8c-0.1-0.1-1.1,0-1.3,0c-2.9,0-5.9,0-8.8,0c-5.1,0-10.3,0-15.4,0c-6.5,0-13.1,0-19.6,0c-7.2,0-14.4,0-21.5,0
					c-7.1,0-14.1,0-21.2,0c-6.2,0-12.3,0-18.5,0c-4.5,0-9.1,0-13.6,0c-1.4,0-2.8,0-4.2,0c-0.6,0-1.6-0.2-2.1,0
					c-0.3,0.1-0.1-0.1-0.2,0.3c-0.1,0.6,0,1.3,0,1.9c0,2.8,0,5.6,0,8.5c0,4.5,0,9.1,0,13.6c0,5.8,0,11.7,0,17.5c0,6.7,0,13.4,0,20.2
					c0,7.1,0,14.3,0,21.4c0,7.2,0,14.4,0,21.6c0,6.8,0,13.6,0,20.5c0,6,0,12,0,18c0,4.8,0,9.6,0,14.4c0,3.2,0,6.3,0,9.5
					C86.4,215.1,86.4,216.2,86.4,217.2z"/>
			</defs>
			<clipPath id="SVGID_27_">
				<use xlink:href="#SVGID_287_"  style="overflow:visible;"/>
			</clipPath>
			<path class="st16" d="M116.8,54.7v-0.2 M182.6,54.7v-0.2 M149.7,54.7h-32.9 M182.6,54.7h-32.9 M149.7,54.5h-32.9 M182.6,54.5
				h-32.9 M160.1,54.1h-3.3 M160.1,54.5v-0.4 M156.9,54.5v-0.4 M142.5,54.1h-3.3 M139.2,54.5v-0.4 M142.5,54.5v-0.4 M160.1,53.7
				h-3.3 M160.1,54.1v-0.4 M160.1,54.1h-3.3 M156.9,54.1v-0.4 M142.5,53.7h-3.3 M142.5,54.1v-0.4 M142.5,54.1h-3.3 M139.2,54.1v-0.4
				 M134.8,53.7c-0.7,0-1.2-0.5-1.3-1.2 M165.8,52.5c-0.1,0.7-0.6,1.2-1.3,1.2 M165.8,52.5l0.5-5.5 M133.5,52.5L133,47 M149.7,53.7
				h-14.9 M164.5,53.7h-14.8"/>
		</g>
	</g>
	<path class="st1" d="M99.2,147.5c-0.4,0-1,0-1.2,0.3"/>
	<path class="st1" d="M113.1,149.5c-3.8-1-7.8-1.6-11.6-2c-0.7-0.1-1.4-0.1-2.1-0.1"/>
	<path class="st1" d="M125.1,138.2c2.9-0.9,6.4-1.7,9.9-2.3"/>
	<path class="st1" d="M146.6,169.1c-2.1,0.1-4.4-0.1-6.5-0.5c-1.1-0.2-2.7-0.5-3.5-1.5"/>
	<path class="st1" d="M135.9,175.3c-2.6-0.4-5.3-0.9-7.8-1.7c-1.7-0.5-3.5-1.2-5-2.3c-0.8-0.6-1.6-1.5-1.6-2.5
		c0.1-2.1,2.8-3.3,4.4-3.9"/>
	<path class="st1" d="M110.1,173.9c-0.6-0.3-1.1-0.8-1.1-1.5c0-0.3,0.2-0.9,0.8-0.9"/>
	<path class="st1" d="M162.9,207.3c-1.5,0.1-3.1,0.3-4.6,0.4"/>
	<path class="st1" d="M144,207.2c0-0.3,0-0.5,0.2-0.7"/>
	<path class="st1" d="M148,208.4c-1.1,0-3.7,0.6-4.1-1"/>
</g>
</svg>
