<svg id="_265" data-name="265" xmlns="http://www.w3.org/2000/svg" viewBox="0 0 300 263"><defs><style>.cls-1,.cls-2{fill:none;stroke:#000;stroke-width:0.5px;}.cls-1{stroke-miterlimit:3.86;}.cls-3{isolation:isolate;}</style></defs><title>265-ceiling-wall-rizzatto-flos-A0300009-spech-tech-02-300x263-01</title><path class="cls-1" d="M145.35,83a2.82,2.82,0,0,1-1.1,5.4l-1.5.2a1.43,1.43,0,0,1,1.6-1.5l.4-.2a1.4,1.4,0,0,0,.5-2.7Zm-2.1.5H57.55v-.7h85.7Zm-88.1-2.1a2.33,2.33,0,0,1,2.3,2.3,2.26,2.26,0,0,1-2.3,2.3,2.33,2.33,0,0,1-2.3-2.3A2.26,2.26,0,0,1,55.15,81.4ZM53.45,86v30.9h-1.2V84.1Zm1.4,30.8a2,2,0,1,1-2,2A2,2,0,0,1,54.85,116.8Zm86.3-30-1.5,3-79.5,29s-2.7.7-3-.3,0-1.5,2.2-2.3Zm-20-42.1s-5.5,1.8-8.3,5.4l20.4,22.1L221.7,207.3s2.85-3.7,4.25-1.5a65.26,65.26,0,0,0-4.4-5.2L134.15,71.5Zm108.1,171.6a9.5,9.5,0,0,1,1.1-5.9,9,9,0,0,1,12.4-3.3,9.19,9.19,0,0,1,4.4,6.3Zm.1.6,18.1-2.9.3,1.1-18.4,3.2Zm3.1-9.7a10.19,10.19,0,0,0-3.7,5.6s-8.6-1.3-6.8-5.9a2.65,2.65,0,0,1,4-1.1,11.81,11.81,0,0,0,4.6.7,2,2,0,0,1,1.6.4ZM136.15,91.1l5.5-2"/><path class="cls-1" d="M143.25,82.8l2,.2"/><path class="cls-1" d="M145.05,84.5l-1.7-.9m-.2,4.9-2.3.9"/><path class="cls-1" d="M140.45,87.1l2.4-.8"/><line class="cls-2" x1="44.79" y1="117.33" x2="44.79" y2="79.69"/><line class="cls-2" x1="43.09" y1="117.33" x2="46.49" y2="117.33"/><line class="cls-2" x1="43.09" y1="79.69" x2="46.49" y2="79.69"/><g class="cls-3"><path d="M29,124.44v-.59a3.74,3.74,0,0,0-.11-.95,2,2,0,0,0-.36-.79,1.73,1.73,0,0,0-.65-.54,2.13,2.13,0,0,0-1-.2,1.84,1.84,0,0,0-1.41.55,2.21,2.21,0,0,0-.51,1.55,2.37,2.37,0,0,0,.33,1.26,2.49,2.49,0,0,0,.92.9l-.51,1a3.35,3.35,0,0,1-1.35-1.31,3.73,3.73,0,0,1-.44-1.83,4,4,0,0,1,.19-1.26,3.09,3.09,0,0,1,.57-1,2.77,2.77,0,0,1,.93-.72,2.91,2.91,0,0,1,1.25-.26,2.54,2.54,0,0,1,.88.15,2.5,2.5,0,0,1,.75.42,2.76,2.76,0,0,1,1,1.35l0,0a2.34,2.34,0,0,1,.36-.88,2.71,2.71,0,0,1,1.51-1.13,3.05,3.05,0,0,1,1-.16,3.12,3.12,0,0,1,1.39.29,2.93,2.93,0,0,1,1,.78,3.3,3.3,0,0,1,.63,1.15,4.6,4.6,0,0,1-.32,3.57,3.35,3.35,0,0,1-1.75,1.39L33,125.88a2.31,2.31,0,0,0,1.21-.85,2.79,2.79,0,0,0,.39-1.59,2.58,2.58,0,0,0-.16-.92,2.12,2.12,0,0,0-.45-.75,2.09,2.09,0,0,0-1.62-.7,2.21,2.21,0,0,0-1.08.24,1.94,1.94,0,0,0-.72.64,2.72,2.72,0,0,0-.39.92A4.83,4.83,0,0,0,30,124v.49Z"/><path d="M25.16,111.37V116l3.4.08a4.17,4.17,0,0,1-.2-.75,4.08,4.08,0,0,1-.07-.77,3.8,3.8,0,0,1,.27-1.46,3.43,3.43,0,0,1,.77-1.13,3.33,3.33,0,0,1,1.15-.73,3.77,3.77,0,0,1,1.44-.27,3.82,3.82,0,0,1,1.5.29,3.53,3.53,0,0,1,1.17.8,3.77,3.77,0,0,1,.76,1.21,4.13,4.13,0,0,1,.27,1.51,3.75,3.75,0,0,1-.51,1.94A3.27,3.27,0,0,1,33.6,118l-.49-1.15a2.58,2.58,0,0,0,1.06-.89,2.28,2.28,0,0,0,.39-1.32,2.4,2.4,0,0,0-.2-1,2.6,2.6,0,0,0-.53-.8,2.65,2.65,0,0,0-.8-.55,2.54,2.54,0,0,0-1-.2,2.75,2.75,0,0,0-1.09.21,2.56,2.56,0,0,0-.86.58,2.48,2.48,0,0,0-.55.88,3.1,3.1,0,0,0-.19,1.12,4.21,4.21,0,0,0,.17,1.21,5.64,5.64,0,0,0,.45,1.14l-5.87-.11v-5.78Z"/><path d="M23.91,105.47a3.24,3.24,0,0,1,.56-2,3.86,3.86,0,0,1,1.42-1.17,6.77,6.77,0,0,1,1.9-.56,14,14,0,0,1,3.95,0,6.77,6.77,0,0,1,1.9.56,3.86,3.86,0,0,1,1.42,1.17,3.75,3.75,0,0,1,0,3.94,3.74,3.74,0,0,1-1.42,1.16,6.46,6.46,0,0,1-1.9.57,14,14,0,0,1-3.95,0,6.46,6.46,0,0,1-1.9-.57,3.74,3.74,0,0,1-1.42-1.16A3.24,3.24,0,0,1,23.91,105.47Zm1.05,0a2.05,2.05,0,0,0,.5,1.46,3.08,3.08,0,0,0,1.23.81,5.78,5.78,0,0,0,1.57.34c.56,0,1.06.08,1.5.08s.95,0,1.51-.08a5.78,5.78,0,0,0,1.57-.34,3.08,3.08,0,0,0,1.23-.81,2,2,0,0,0,.49-1.46,2.09,2.09,0,0,0-.49-1.47,3.17,3.17,0,0,0-1.23-.8,6.19,6.19,0,0,0-1.57-.35c-.56,0-1.06-.07-1.51-.07s-.94,0-1.5.07a6.19,6.19,0,0,0-1.57.35,3.17,3.17,0,0,0-1.23.8A2.09,2.09,0,0,0,25,105.47Z"/><path d="M29.6,95.42l-.83,0-.83,0V94.37h1.14v0a2.5,2.5,0,0,1-1-1.06,3.05,3.05,0,0,1-.33-1.35,3.74,3.74,0,0,1,.06-.65,2.59,2.59,0,0,1,.23-.66,2.08,2.08,0,0,1,.48-.6,2.47,2.47,0,0,1,.78-.48,2.41,2.41,0,0,1-1.13-1,2.79,2.79,0,0,1-.42-1.45,2.73,2.73,0,0,1,.76-2.13,3.12,3.12,0,0,1,2.17-.69h4.75v1.06H31.06a3.11,3.11,0,0,0-1.74.4,1.64,1.64,0,0,0-.61,1.49,2,2,0,0,0,.23,1,1.93,1.93,0,0,0,.62.65,2.84,2.84,0,0,0,.87.36,4.74,4.74,0,0,0,1,.11h4v1.06H31.06a3.11,3.11,0,0,0-1.74.4,1.62,1.62,0,0,0-.61,1.48,3.37,3.37,0,0,0,.06.44,1.84,1.84,0,0,0,.35.72,2.72,2.72,0,0,0,.87.66,3.51,3.51,0,0,0,1.6.3h3.84v1Z"/><path d="M29.6,81.79l-.83,0-.83.06V80.73h1.14v0a2.5,2.5,0,0,1-1-1.06,3.12,3.12,0,0,1-.33-1.35,3.74,3.74,0,0,1,.06-.65A2.8,2.8,0,0,1,28,77a2.39,2.39,0,0,1,.48-.6,2.65,2.65,0,0,1,.78-.47,2.41,2.41,0,0,1-1.13-1,2.79,2.79,0,0,1-.42-1.45,2.73,2.73,0,0,1,.76-2.13,3.12,3.12,0,0,1,2.17-.69h4.75v1.06H31.06a3.11,3.11,0,0,0-1.74.4,1.63,1.63,0,0,0-.61,1.49,1.82,1.82,0,0,0,.85,1.64,2.84,2.84,0,0,0,.87.36,4.74,4.74,0,0,0,1,.11h4v1H31.06a3.2,3.2,0,0,0-1.74.4,1.65,1.65,0,0,0-.61,1.49,3.37,3.37,0,0,0,.06.44,1.74,1.74,0,0,0,.35.71,2.6,2.6,0,0,0,.87.67,3.66,3.66,0,0,0,1.6.29h3.84v1.06Z"/></g><line class="cls-2" x1="145.06" y1="73.92" x2="57.46" y2="73.92"/><line class="cls-2" x1="145.06" y1="75.16" x2="145.06" y2="72.6"/><line class="cls-2" x1="57.46" y1="75.16" x2="57.46" y2="72.6"/><g class="cls-3"><path d="M75,59.41a2.08,2.08,0,0,1-.68-.38,2.48,2.48,0,0,1-.54-.58,3,3,0,0,1-.35-.74,2.83,2.83,0,0,1-.13-.83,2.87,2.87,0,0,1,.26-1.22,2.83,2.83,0,0,1,.69-.94,3.22,3.22,0,0,1,1-.59,3.65,3.65,0,0,1,2.44,0,3.11,3.11,0,0,1,1,.59,2.83,2.83,0,0,1,.69.94,2.87,2.87,0,0,1,.26,1.22,2.53,2.53,0,0,1-.13.83,2.65,2.65,0,0,1-.35.74,2.48,2.48,0,0,1-.54.58,2,2,0,0,1-.68.38v0a2.69,2.69,0,0,1,1.54,1.06,3.21,3.21,0,0,1,.58,1.92,2.92,2.92,0,0,1-.3,1.33,3.38,3.38,0,0,1-.78,1,3.56,3.56,0,0,1-1.14.65,4.14,4.14,0,0,1-1.37.22,4.18,4.18,0,0,1-1.37-.22A3.41,3.41,0,0,1,74,64.76a3.25,3.25,0,0,1-.79-1,3.05,3.05,0,0,1-.29-1.33,3.21,3.21,0,0,1,.57-1.92A2.69,2.69,0,0,1,75,59.44Zm3.9,2.85a2.51,2.51,0,0,0-.17-.92,2.33,2.33,0,0,0-.49-.74,2.26,2.26,0,0,0-.77-.49,3.06,3.06,0,0,0-2,0,2.21,2.21,0,0,0-.76.49,2.47,2.47,0,0,0-.49,2.58,2.34,2.34,0,0,0,.49.73,2.08,2.08,0,0,0,.76.49,2.9,2.9,0,0,0,2,0,2.12,2.12,0,0,0,.77-.49,2.18,2.18,0,0,0,.49-.73A2.51,2.51,0,0,0,78.94,62.26ZM78.53,57a2.07,2.07,0,0,0-.15-.8,1.9,1.9,0,0,0-.43-.63,1.87,1.87,0,0,0-.64-.42,2.07,2.07,0,0,0-.8-.15,2.11,2.11,0,0,0-.8.15,2,2,0,0,0-.64.42,1.74,1.74,0,0,0-.42.63,2.07,2.07,0,0,0-.15.8,2.11,2.11,0,0,0,.15.8,1.93,1.93,0,0,0,.42.63,2,2,0,0,0,.64.42,2.11,2.11,0,0,0,.8.15,2.07,2.07,0,0,0,.8-.15,1.87,1.87,0,0,0,.64-.42,2.13,2.13,0,0,0,.43-.63A2.11,2.11,0,0,0,78.53,57Z"/><path d="M88.4,55.17H83.77l-.08,3.41a3.44,3.44,0,0,1,.76-.21,4.87,4.87,0,0,1,.76-.06,3.8,3.8,0,0,1,1.46.27,3.26,3.26,0,0,1,1.13.76,3.61,3.61,0,0,1,.74,1.15,4,4,0,0,1,.26,1.45,3.81,3.81,0,0,1-.29,1.49,3.34,3.34,0,0,1-.8,1.17,3.51,3.51,0,0,1-1.21.76,4.1,4.1,0,0,1-1.51.27,3.71,3.71,0,0,1-1.93-.51,3.31,3.31,0,0,1-1.33-1.5l1.15-.5a2.67,2.67,0,0,0,.89,1.07,2.31,2.31,0,0,0,1.33.39,2.55,2.55,0,0,0,1-.2,2.5,2.5,0,0,0,.81-.54,2.68,2.68,0,0,0,.54-.8,2.54,2.54,0,0,0,.2-1A2.79,2.79,0,0,0,87.44,61,2.57,2.57,0,0,0,86,59.55a3.33,3.33,0,0,0-1.12-.19,4.65,4.65,0,0,0-1.21.17,5.14,5.14,0,0,0-1.14.46l.11-5.88H88.4Z"/><path d="M94.3,53.92a3.24,3.24,0,0,1,2,.56,3.89,3.89,0,0,1,1.17,1.43A6.3,6.3,0,0,1,98,57.8a13.76,13.76,0,0,1,.14,2,13.53,13.53,0,0,1-.14,2,6.45,6.45,0,0,1-.56,1.9,3.78,3.78,0,0,1-1.17,1.42,3.75,3.75,0,0,1-3.94,0,3.66,3.66,0,0,1-1.16-1.42,6.17,6.17,0,0,1-.56-1.9,13.58,13.58,0,0,1-.15-2,13.82,13.82,0,0,1,.15-2,6,6,0,0,1,.56-1.89,3.77,3.77,0,0,1,1.16-1.43A3.26,3.26,0,0,1,94.3,53.92Zm0,1.06a2.06,2.06,0,0,0-1.46.49A3.11,3.11,0,0,0,92,56.71a5.71,5.71,0,0,0-.34,1.56c0,.56-.08,1.06-.08,1.51s0,.95.08,1.5A5.7,5.7,0,0,0,92,62.85a3.08,3.08,0,0,0,.81,1.23,2.07,2.07,0,0,0,1.46.5,2.09,2.09,0,0,0,1.47-.5,3.3,3.3,0,0,0,.81-1.23,6.09,6.09,0,0,0,.34-1.57c0-.55.07-1.05.07-1.5s0-1-.07-1.51a6.1,6.1,0,0,0-.34-1.56,3.34,3.34,0,0,0-.81-1.24A2.09,2.09,0,0,0,94.3,55Z"/><path d="M104.35,59.62c0-.28,0-.56,0-.83l-.06-.84h1.14v1.14h0a2.41,2.41,0,0,1,1.06-1,2.91,2.91,0,0,1,2-.27,2.42,2.42,0,0,1,.67.23,2.34,2.34,0,0,1,.6.47,2.65,2.65,0,0,1,.47.78,2.45,2.45,0,0,1,1-1.13,3.07,3.07,0,0,1,3.58.34,3.12,3.12,0,0,1,.69,2.17v4.75h-1.06V61.07a3.16,3.16,0,0,0-.4-1.74,1.63,1.63,0,0,0-1.49-.61,1.82,1.82,0,0,0-1.64.85,3.07,3.07,0,0,0-.36.87,4.9,4.9,0,0,0-.11,1v4h-1V61.07a3.25,3.25,0,0,0-.4-1.74,1.65,1.65,0,0,0-1.49-.61,2.52,2.52,0,0,0-.44.07,1.62,1.62,0,0,0-.71.35,2.55,2.55,0,0,0-.67.86,3.69,3.69,0,0,0-.29,1.6v3.84h-1.06Z"/><path d="M118,59.62c0-.28,0-.56,0-.83L117.9,58H119v1.14h0a2.47,2.47,0,0,1,1.06-1,3,3,0,0,1,1.36-.34,2.91,2.91,0,0,1,.64.07,2.42,2.42,0,0,1,.67.23,2.34,2.34,0,0,1,.6.47,2.65,2.65,0,0,1,.47.78,2.42,2.42,0,0,1,1-1.13,2.73,2.73,0,0,1,1.44-.42,2.76,2.76,0,0,1,2.13.76,3.12,3.12,0,0,1,.69,2.17v4.75h-1.06V61.07a3.16,3.16,0,0,0-.4-1.74,1.62,1.62,0,0,0-1.48-.61,2,2,0,0,0-1,.23,1.9,1.9,0,0,0-.64.62,2.58,2.58,0,0,0-.36.87,4.31,4.31,0,0,0-.12,1v4h-1V61.07a3.16,3.16,0,0,0-.4-1.74,1.64,1.64,0,0,0-1.49-.61,2.67,2.67,0,0,0-.44.07,1.62,1.62,0,0,0-.71.35,2.55,2.55,0,0,0-.67.86,3.69,3.69,0,0,0-.29,1.6v3.84H118Z"/></g><line class="cls-2" x1="133.71" y1="37.62" x2="253.58" y2="209.99"/><line class="cls-2" x1="135.09" y1="36.73" x2="132.33" y2="38.61"/><line class="cls-2" x1="254.96" y1="209.1" x2="252.2" y2="210.98"/><g class="cls-3"><path d="M189.18,101.73,185,95.84l1.08-.77,6.35,1.05.74.11c.26,0,.51,0,.77,0a3.09,3.09,0,0,0,.74-.12,2,2,0,0,0,.68-.32,2,2,0,0,0,.58-.61,1.66,1.66,0,0,0,.24-.75,2.22,2.22,0,0,0-.09-.8,2.38,2.38,0,0,0-.37-.77,2.34,2.34,0,0,0-1.24-.93,2.2,2.2,0,0,0-1.51.11l-.6-1.07a3.12,3.12,0,0,1,2.29-.19,3.48,3.48,0,0,1,1.88,1.41,4.29,4.29,0,0,1,.59,1.17,3.18,3.18,0,0,1,.18,1.21,2.75,2.75,0,0,1-.32,1.14,2.8,2.8,0,0,1-.89,1,3.48,3.48,0,0,1-1.1.53,4.81,4.81,0,0,1-1.13.16,6.57,6.57,0,0,1-1.17-.07c-.39,0-.78-.12-1.18-.2l-4.94-.88,3.42,4.87Z"/><path d="M201.7,99.49a3.23,3.23,0,0,1,.67,1.93,3.87,3.87,0,0,1-.49,1.78,6.36,6.36,0,0,1-1.23,1.55,15.28,15.28,0,0,1-1.53,1.25,13.9,13.9,0,0,1-1.7,1,6.48,6.48,0,0,1-1.87.64,3.81,3.81,0,0,1-1.84-.14,3.77,3.77,0,0,1-2.27-3.22,3.72,3.72,0,0,1,.5-1.77,6.36,6.36,0,0,1,1.22-1.55,13.31,13.31,0,0,1,1.54-1.26,14.42,14.42,0,0,1,1.7-1,6.08,6.08,0,0,1,1.87-.63,3.7,3.7,0,0,1,1.84.14A3.21,3.21,0,0,1,201.7,99.49Zm-.87.61a2,2,0,0,0-1.25-.91,3.07,3.07,0,0,0-1.47,0,5.9,5.9,0,0,0-1.48.62c-.48.28-.9.55-1.27.8s-.76.57-1.19.93a6,6,0,0,0-1.08,1.18,3,3,0,0,0-.54,1.37,2.41,2.41,0,0,0,1.68,2.4,3.19,3.19,0,0,0,1.47-.05,6.12,6.12,0,0,0,1.48-.62c.49-.28.91-.55,1.28-.81s.76-.57,1.18-.92a6.09,6.09,0,0,0,1.09-1.19,3.15,3.15,0,0,0,.54-1.37A2.07,2.07,0,0,0,200.83,100.1Z"/><path d="M207.52,109.93l-2.66-3.78-2.84,1.9a3.64,3.64,0,0,1,.61.49,5.47,5.47,0,0,1,.49.59,3.9,3.9,0,0,1,.62,1.35,3.47,3.47,0,0,1,0,1.36,3.55,3.55,0,0,1-.52,1.26,3.84,3.84,0,0,1-1,1.05,3.57,3.57,0,0,1-2.8.65,3.79,3.79,0,0,1-1.32-.55,4.3,4.3,0,0,1-1.09-1.08,3.83,3.83,0,0,1-.7-1.88,3.36,3.36,0,0,1,.47-2l1.07.65a2.76,2.76,0,0,0-.36,1.35,2.39,2.39,0,0,0,.44,1.31,2.64,2.64,0,0,0,1.65,1,2.39,2.39,0,0,0,1,0,2.55,2.55,0,0,0,.93-.4,2.91,2.91,0,0,0,.77-.8,2.7,2.7,0,0,0,.37-1,2.62,2.62,0,0,0-.06-1,3.2,3.2,0,0,0-.48-1,4.72,4.72,0,0,0-.84-.89,5.35,5.35,0,0,0-1-.67l4.87-3.29,3.32,4.72Z"/><path d="M211.94,114a3.16,3.16,0,0,1,.67,1.93,3.75,3.75,0,0,1-.49,1.78,6.36,6.36,0,0,1-1.23,1.55,13.31,13.31,0,0,1-1.53,1.25,14.42,14.42,0,0,1-1.7,1,6.48,6.48,0,0,1-1.87.64,4,4,0,0,1-1.84-.14,3.24,3.24,0,0,1-1.59-1.29,3.14,3.14,0,0,1-.67-1.93,3.71,3.71,0,0,1,.49-1.77,6.18,6.18,0,0,1,1.23-1.55,12.44,12.44,0,0,1,1.53-1.26,14.42,14.42,0,0,1,1.7-1,6.17,6.17,0,0,1,1.87-.63,3.82,3.82,0,0,1,1.84.13A3.29,3.29,0,0,1,211.94,114Zm-.86.61a2.08,2.08,0,0,0-1.25-.91,3.1,3.1,0,0,0-1.48.05,6.06,6.06,0,0,0-1.48.62c-.48.28-.9.55-1.27.8s-.76.57-1.19.93a6.31,6.31,0,0,0-1.08,1.18,3,3,0,0,0-.54,1.37,2.06,2.06,0,0,0,.43,1.48,2.14,2.14,0,0,0,1.25.92,3.24,3.24,0,0,0,1.48,0,6.48,6.48,0,0,0,1.48-.62c.48-.28.9-.55,1.27-.81s.76-.57,1.19-.92A6.36,6.36,0,0,0,211,117.5a3,3,0,0,0,.54-1.37A2.06,2.06,0,0,0,211.08,114.65Z"/><path d="M213.07,125.54l.66-.5.65-.53.65.93-.93.66,0,0a2.54,2.54,0,0,1,1.43.3,3.12,3.12,0,0,1,1,.91,3.85,3.85,0,0,1,.32.57,2.27,2.27,0,0,1,.15,1.44,2.54,2.54,0,0,1-.37.84,2.42,2.42,0,0,1,1.52.17,2.82,2.82,0,0,1,1.17,1,2.74,2.74,0,0,1,.6,2.18,3.16,3.16,0,0,1-1.37,1.81L214.73,138l-.61-.86,3.58-2.52a3.2,3.2,0,0,0,1.19-1.33,1.63,1.63,0,0,0-.36-1.56,1.93,1.93,0,0,0-.76-.68,1.91,1.91,0,0,0-.88-.18,2.84,2.84,0,0,0-.92.21,4.86,4.86,0,0,0-.89.49l-3.26,2.3-.61-.87,3.58-2.51a3.26,3.26,0,0,0,1.19-1.33,1.64,1.64,0,0,0-.36-1.57s-.14-.16-.3-.32a1.61,1.61,0,0,0-.7-.38,2.56,2.56,0,0,0-1.09,0,3.6,3.6,0,0,0-1.48.68l-3.14,2.21-.61-.86Z"/><path d="M220.91,136.68l.67-.49.65-.53.65.93-.93.65,0,0a2.51,2.51,0,0,1,1.42.3,3,3,0,0,1,1.06.91,4.29,4.29,0,0,1,.32.57,2.57,2.57,0,0,1,.19.67,2.26,2.26,0,0,1,0,.77,2.59,2.59,0,0,1-.37.83,2.47,2.47,0,0,1,1.51.18,2.84,2.84,0,0,1,1.18.94,2.76,2.76,0,0,1,.6,2.18,3.1,3.1,0,0,1-1.38,1.81l-3.88,2.74-.61-.87,3.57-2.51a3.23,3.23,0,0,0,1.2-1.33,1.65,1.65,0,0,0-.36-1.57,2,2,0,0,0-.76-.68,2,2,0,0,0-.88-.17,2.61,2.61,0,0,0-.92.21,4.08,4.08,0,0,0-.89.49L219.67,145l-.61-.86,3.57-2.51a3.18,3.18,0,0,0,1.2-1.34,1.65,1.65,0,0,0-.36-1.56,3.61,3.61,0,0,0-.31-.32,1.56,1.56,0,0,0-.7-.38,2.51,2.51,0,0,0-1.08-.05,3.6,3.6,0,0,0-1.48.68l-3.14,2.21-.61-.86Z"/></g></svg>