<svg id="AIM_small_F00950" data-name="AIM small F00950" xmlns="http://www.w3.org/2000/svg" viewBox="0 0 300 263"><defs><style>.cls-1,.cls-2,.cls-3,.cls-5{fill:none;stroke:#000;stroke-width:0.5px;}.cls-1,.cls-2,.cls-3{stroke-linecap:round;stroke-linejoin:round;}.cls-1{stroke-dasharray:0.03 0.01 0.01 0.01;}.cls-2{stroke-dasharray:1.27 0.32 0.05 0.32;}.cls-4{isolation:isolate;}</style></defs><title>aim-small-suspension-bouroullec-flos-F00950-spech-tech-02-300x263</title><g id="LINE"><line class="cls-1" x1="181.46" y1="187.87" x2="181.46" y2="187.92"/></g><g id="LINE-2" data-name="LINE"><line class="cls-1" x1="116.94" y1="187.87" x2="116.94" y2="187.92"/></g><g id="LINE-3" data-name="LINE"><line class="cls-2" x1="162.58" y1="51.09" x2="161.02" y2="51.09"/></g><g id="LINE-4" data-name="LINE"><line class="cls-2" x1="161.8" y1="50.32" x2="161.8" y2="51.87"/></g><g id="LINE-5" data-name="LINE"><line class="cls-3" x1="167.05" y1="54.51" x2="167.05" y2="52.88"/></g><g id="ARC"><path class="cls-3" d="M166.69,55.56a11.56,11.56,0,0,0,.36,2.8"/></g><g id="LINE-6" data-name="LINE"><line class="cls-3" x1="167.05" y1="55.56" x2="166.69" y2="55.56"/></g><g id="LINE-7" data-name="LINE"><line class="cls-3" x1="115.98" y1="187.74" x2="111.34" y2="187.74"/></g><g id="LINE-8" data-name="LINE"><line class="cls-3" x1="143.42" y1="117.7" x2="142.62" y2="117.7"/></g><g id="LINE-9" data-name="LINE"><line class="cls-3" x1="155.77" y1="117.7" x2="143.42" y2="117.7"/></g><g id="LINE-10" data-name="LINE"><line class="cls-3" x1="187.04" y1="187.74" x2="115.98" y2="187.74"/></g><g id="LINE-11" data-name="LINE"><line class="cls-3" x1="191.69" y1="142.36" x2="191.69" y2="142.13"/></g><g id="ARC-2" data-name="ARC"><path class="cls-3" d="M191.69,142.36q0,1.72.12,3.45"/></g><g id="LINE-12" data-name="LINE"><line class="cls-3" x1="191.81" y1="145.8" x2="191.81" y2="145.76"/></g><g id="LWPOLYLINE"><polyline class="cls-3" points="142.62 117.7 141.59 117.74 140.56 117.8 139.53 117.86 138.51 117.94 137.48 118.03 136.46 118.13 135.44 118.24 134.43 118.36 133.41 118.5 132.4 118.65 131.39 118.81 130.37 118.98 129.36 119.17 128.35 119.38 127.34 119.6 126.33 119.83 125.33 120.09 124.33 120.37 123.83 120.52 123.34 120.68 122.85 120.84 122.36 121.01 121.87 121.19 121.39 121.37 120.91 121.56 120.44 121.77 119.97 121.97 119.51 122.19 119.05 122.42 118.59 122.66 118.14 122.9 117.7 123.16 117.26 123.42 116.83 123.69 116.4 123.98 115.98 124.27 115.56 124.57 115.15 124.89 114.75 125.21 114.35 125.53 113.96 125.87 113.58 126.22 113.2 126.57 112.83 126.93 112.46 127.3 112.11 127.68 111.76 128.07 111.42 128.46 111.08 128.86 110.76 129.27 110.45 129.68 110.15 130.1 109.86 130.53 109.58 130.97 109.32 131.41 109.07 131.86 108.83 132.32 108.61 132.78 108.4 133.25 108.21 133.73 108.03 134.21 107.87 134.7 107.72 135.19 107.59 135.69 107.47 136.19 107.36 136.69 107.26 137.19 107.17 137.7 107.09 138.22 107.02 138.73 106.96 139.24 106.9 139.75 106.8 140.78 106.73 141.81 106.67 142.84 106.62 143.87 106.6 144.89 106.58 145.92 106.58 146.94 106.58 147.96 106.6 148.99 106.63 150.01 106.67 151.03 106.72 152.06 106.78 153.09 106.85 154.11 106.92 155.14 107.01 156.16 107.1 157.19 107.31 159.24 107.54 161.29 107.78 163.33 108.04 165.37 108.44 168.43 108.86 171.48 109.3 174.53 109.76 177.58 110.24 180.63 110.88 184.69 111.34 187.74"/></g><g id="LINE-13" data-name="LINE"><line class="cls-3" x1="142.65" y1="117.7" x2="142.62" y2="117.7"/></g><g id="LINE-14" data-name="LINE"><line class="cls-3" x1="142.65" y1="117.7" x2="143.45" y2="117.7"/></g><g id="LINE-15" data-name="LINE"><line class="cls-3" x1="142.65" y1="117.7" x2="144.18" y2="117.7"/></g><g id="LINE-16" data-name="LINE"><line class="cls-3" x1="154.21" y1="117.7" x2="154.94" y2="117.7"/></g><g id="LINE-17" data-name="LINE"><line class="cls-3" x1="155.74" y1="117.7" x2="155.77" y2="117.7"/></g><g id="LINE-18" data-name="LINE"><line class="cls-3" x1="155.74" y1="117.7" x2="154.94" y2="117.7"/></g><g id="LINE-19" data-name="LINE"><line class="cls-3" x1="155.74" y1="117.7" x2="143.45" y2="117.7"/></g><g id="LWPOLYLINE-2" data-name="LWPOLYLINE"><polyline class="cls-3" points="155.77 117.7 156.8 117.74 157.83 117.8 158.86 117.86 159.88 117.94 160.91 118.03 161.93 118.13 162.94 118.24 163.96 118.36 164.97 118.5 165.99 118.65 167 118.81 168.02 118.98 169.03 119.17 170.04 119.38 171.05 119.6 172.06 119.83 173.06 120.09 174.06 120.37 174.56 120.52 175.05 120.68 175.54 120.84 176.03 121.01 176.52 121.19 177 121.37 177.47 121.56 177.95 121.77 178.42 121.97 178.88 122.19 179.34 122.42 179.8 122.66 180.25 122.9 180.69 123.16 181.13 123.42 181.56 123.69 181.99 123.98 182.41 124.27 182.82 124.57 183.24 124.89 183.63 125.21 184.04 125.53 184.43 125.87 184.81 126.22 185.19 126.57 185.56 126.93 185.92 127.3 186.28 127.68 186.63 128.07 186.97 128.46 187.3 128.86 187.63 129.27 187.94 129.68 188.24 130.1 188.53 130.53 188.81 130.97 189.07 131.41 189.32 131.86 189.56 132.32 189.78 132.78 189.99 133.25 190.18 133.73 190.36 134.21 190.52 134.7 190.67 135.19 190.8 135.69 190.92 136.19 191.03 136.69 191.13 137.19 191.22 137.7 191.3 138.22 191.37 138.73 191.47 139.58 191.56 140.43 191.63 141.28 191.69 142.13"/></g><g id="LWPOLYLINE-3" data-name="LWPOLYLINE"><polyline class="cls-3" points="191.81 145.81 191.81 146.94 191.81 147.96 191.79 148.99 191.76 150.01 191.72 151.03 191.67 152.06 191.61 153.09 191.54 154.11 191.47 155.14 191.38 156.16 191.29 157.19 191.08 159.24 190.85 161.29 190.61 163.33 190.35 165.37 189.95 168.43 189.53 171.48 189.09 174.53 188.63 177.58 188.15 180.63 187.51 184.69 187.04 187.74"/></g><g id="LINE-20" data-name="LINE"><line class="cls-3" x1="151.46" y1="117.6" x2="144.47" y2="117.6"/></g><g id="LINE-21" data-name="LINE"><line class="cls-3" x1="153.92" y1="117.6" x2="151.46" y2="117.6"/></g><g id="LINE-22" data-name="LINE"><line class="cls-3" x1="146.51" y1="117.54" x2="150.48" y2="117.54"/></g><g id="LINE-23" data-name="LINE"><line class="cls-3" x1="150.48" y1="117.54" x2="151.88" y2="117.54"/></g><g id="LWPOLYLINE-4" data-name="LWPOLYLINE"><polyline class="cls-3" points="149.47 117.57 148.85 117.57 148.71 117.57 148.63 117.56 148.62 117.56 148.62 117.56 148.62 117.56 148.65 117.56 148.73 117.55 148.92 117.55"/></g><g id="LWPOLYLINE-5" data-name="LWPOLYLINE"><polyline class="cls-3" points="148.92 117.55 149.45 117.55 149.63 117.55 149.71 117.56 149.75 117.56 149.77 117.56 149.77 117.56 149.77 117.56 149.76 117.56 149.66 117.57 149.47 117.57"/></g><g id="ARC-3" data-name="ARC"><path class="cls-3" d="M144.47,117.6a.53.53,0,0,0-.29.1"/></g><g id="ARC-4" data-name="ARC"><path class="cls-3" d="M154.21,117.7a.51.51,0,0,0-.29-.1"/></g><g id="LINE-24" data-name="LINE"><line class="cls-3" x1="146.52" y1="117.54" x2="147.8" y2="117.54"/></g><g id="LINE-25" data-name="LINE"><line class="cls-3" x1="146.52" y1="117.54" x2="146.51" y2="117.54"/></g><g id="LINE-26" data-name="LINE"><line class="cls-3" x1="146.52" y1="117.54" x2="150.48" y2="117.54"/></g><g id="LINE-27" data-name="LINE"><line class="cls-3" x1="151.87" y1="117.54" x2="150.48" y2="117.54"/></g><g id="LINE-28" data-name="LINE"><line class="cls-3" x1="151.87" y1="117.54" x2="151.88" y2="117.54"/></g><g id="LINE-29" data-name="LINE"><line class="cls-3" x1="151.87" y1="117.54" x2="150.6" y2="117.54"/></g><g id="ARC-5" data-name="ARC"><path class="cls-3" d="M153.92,117.6l-2-.06"/></g><g id="ARC-6" data-name="ARC"><path class="cls-3" d="M146.51,117.54l-2,.06"/></g><g id="LWPOLYLINE-6" data-name="LWPOLYLINE"><polyline class="cls-3" points="149.76 117.56 149.5 117.57 149.47 117.57"/></g><g id="LWPOLYLINE-7" data-name="LWPOLYLINE"><polyline class="cls-3" points="148.63 117.56 148.76 117.57 149.2 117.57 149.47 117.57"/></g><g id="LINE-30" data-name="LINE"><line class="cls-3" x1="112.14" y1="187.74" x2="112.14" y2="187.91"/></g><g id="LINE-31" data-name="LINE"><line class="cls-3" x1="181.01" y1="187.91" x2="181.01" y2="187.74"/></g><g id="LINE-32" data-name="LINE"><line class="cls-3" x1="167.25" y1="187.91" x2="167.25" y2="187.74"/></g><g id="LINE-33" data-name="LINE"><line class="cls-3" x1="149.75" y1="187.74" x2="149.75" y2="187.91"/></g><g id="LINE-34" data-name="LINE"><line class="cls-3" x1="112.1" y1="187.74" x2="112.1" y2="187.88"/></g><g id="LINE-35" data-name="LINE"><line class="cls-3" x1="112.1" y1="187.88" x2="112.14" y2="187.91"/></g><g id="LINE-36" data-name="LINE"><line class="cls-3" x1="167.29" y1="187.88" x2="167.29" y2="187.74"/></g><g id="LWPOLYLINE-8" data-name="LWPOLYLINE"><polyline class="cls-3" points="167.29 187.88 167.28 187.89 167.26 187.91 167.25 187.91"/></g><g id="LINE-37" data-name="LINE"><line class="cls-3" x1="181.06" y1="187.88" x2="181.06" y2="187.74"/></g><g id="LWPOLYLINE-9" data-name="LWPOLYLINE"><polyline class="cls-3" points="181.06 187.88 181.03 187.9 181.01 187.91"/></g><g id="LINE-38" data-name="LINE"><line class="cls-3" x1="186.82" y1="187.91" x2="111.57" y2="187.91"/></g><g id="ARC-7" data-name="ARC"><path class="cls-3" d="M111.57,187.91a.05.05,0,0,0,0,.05s0,0,0,0"/></g><g id="LINE-39" data-name="LINE"><line class="cls-3" x1="186.86" y1="187.99" x2="111.53" y2="187.99"/></g><g id="ARC-8" data-name="ARC"><path class="cls-3" d="M186.86,188a0,0,0,0,0,0-.07h0"/></g><g id="LINE-40" data-name="LINE"><line class="cls-3" x1="186.77" y1="187.88" x2="186.76" y2="187.88"/></g><g id="ELLIPSE"><path class="cls-3" d="M186.76,187.88a0,0,0,0,0,0,0"/></g><g id="ELLIPSE-2" data-name="ELLIPSE"><path class="cls-3" d="M186.73,187.91v0"/></g><g id="LINE-41" data-name="LINE"><line class="cls-3" x1="186.76" y1="187.88" x2="186.73" y2="187.88"/></g><g id="LINE-42" data-name="LINE"><line class="cls-3" x1="186.73" y1="187.88" x2="186.29" y2="187.88"/></g><g id="LINE-43" data-name="LINE"><line class="cls-3" x1="186.29" y1="187.88" x2="186.25" y2="187.91"/></g><g id="LINE-44" data-name="LINE"><line class="cls-3" x1="186.25" y1="187.74" x2="186.25" y2="187.91"/></g><g id="ELLIPSE-3" data-name="ELLIPSE"><path class="cls-3" d="M182,187.88l0,0"/></g><g id="LINE-45" data-name="LINE"><line class="cls-3" x1="181.98" y1="187.88" x2="181.97" y2="187.88"/></g><g id="ELLIPSE-4" data-name="ELLIPSE"><path class="cls-3" d="M181.48,187.88l0,0"/></g><g id="LINE-46" data-name="LINE"><line class="cls-3" x1="181.97" y1="187.88" x2="181.48" y2="187.88"/></g><g id="ELLIPSE-5" data-name="ELLIPSE"><path class="cls-3" d="M181.42,187.91s0,0,0,0"/></g><g id="LINE-47" data-name="LINE"><line class="cls-3" x1="181.48" y1="187.88" x2="181.44" y2="187.88"/></g><g id="LINE-48" data-name="LINE"><line class="cls-3" x1="181.44" y1="187.88" x2="181.06" y2="187.88"/></g><g id="ELLIPSE-6" data-name="ELLIPSE"><path class="cls-3" d="M168.4,187.88s0,0,0,0"/></g><g id="LINE-49" data-name="LINE"><line class="cls-3" x1="168.42" y1="187.88" x2="168.4" y2="187.88"/></g><g id="ELLIPSE-7" data-name="ELLIPSE"><path class="cls-3" d="M167.55,187.88s0,0,0,0"/></g><g id="LINE-50" data-name="LINE"><line class="cls-3" x1="168.4" y1="187.88" x2="167.55" y2="187.88"/></g><g id="ELLIPSE-8" data-name="ELLIPSE"><path class="cls-3" d="M167.48,187.91a0,0,0,0,0,0,0"/></g><g id="LINE-51" data-name="LINE"><line class="cls-3" x1="167.55" y1="187.88" x2="167.51" y2="187.88"/></g><g id="LINE-52" data-name="LINE"><line class="cls-3" x1="167.51" y1="187.88" x2="167.29" y2="187.88"/></g><g id="ELLIPSE-9" data-name="ELLIPSE"><path class="cls-3" d="M149.68,187.88v0"/></g><g id="LINE-53" data-name="LINE"><line class="cls-3" x1="149.72" y1="187.88" x2="149.68" y2="187.88"/></g><g id="ELLIPSE-10" data-name="ELLIPSE"><path class="cls-3" d="M148.71,187.91v0"/></g><g id="LINE-54" data-name="LINE"><line class="cls-3" x1="149.68" y1="187.88" x2="148.71" y2="187.88"/></g><g id="LINE-55" data-name="LINE"><line class="cls-3" x1="148.71" y1="187.88" x2="148.67" y2="187.88"/></g><g id="LINE-56" data-name="LINE"><line class="cls-3" x1="148.65" y1="187.91" x2="148.65" y2="187.74"/></g><g id="LINE-57" data-name="LINE"><line class="cls-3" x1="131.15" y1="187.74" x2="131.14" y2="187.91"/></g><g id="ELLIPSE-11" data-name="ELLIPSE"><path class="cls-3" d="M130.88,187.88l0,0"/></g><g id="LINE-58" data-name="LINE"><line class="cls-3" x1="131.1" y1="187.88" x2="130.88" y2="187.88"/></g><g id="LWPOLYLINE-10" data-name="LWPOLYLINE"><polyline class="cls-3" points="131.1 187.88 131.11 187.89 131.13 187.91 131.14 187.91"/></g><g id="ELLIPSE-12" data-name="ELLIPSE"><path class="cls-3" d="M130.82,187.91s0,0,0,0"/></g><g id="LINE-59" data-name="LINE"><line class="cls-3" x1="130.88" y1="187.88" x2="130.84" y2="187.88"/></g><g id="LINE-60" data-name="LINE"><line class="cls-3" x1="130.84" y1="187.88" x2="129.99" y2="187.88"/></g><g id="ELLIPSE-13" data-name="ELLIPSE"><path class="cls-3" d="M130,187.91s0,0,0,0"/></g><g id="LINE-61" data-name="LINE"><line class="cls-3" x1="129.99" y1="187.88" x2="129.97" y2="187.88"/></g><g id="LINE-62" data-name="LINE"><line class="cls-3" x1="117.38" y1="187.74" x2="117.38" y2="187.91"/></g><g id="ELLIPSE-14" data-name="ELLIPSE"><path class="cls-3" d="M117,187.88s0,0,0,0"/></g><g id="LINE-63" data-name="LINE"><line class="cls-3" x1="117.33" y1="187.88" x2="116.95" y2="187.88"/></g><g id="LWPOLYLINE-11" data-name="LWPOLYLINE"><polyline class="cls-3" points="117.33 187.88 117.36 187.9 117.38 187.91"/></g><g id="ELLIPSE-15" data-name="ELLIPSE"><path class="cls-3" d="M116.88,187.91a0,0,0,0,0,0,0"/></g><g id="LINE-64" data-name="LINE"><line class="cls-3" x1="116.95" y1="187.88" x2="116.91" y2="187.88"/></g><g id="ELLIPSE-16" data-name="ELLIPSE"><path class="cls-3" d="M116.39,187.91a0,0,0,0,0,0,0"/></g><g id="LINE-65" data-name="LINE"><line class="cls-3" x1="116.91" y1="187.88" x2="116.42" y2="187.88"/></g><g id="LINE-66" data-name="LINE"><line class="cls-3" x1="116.42" y1="187.88" x2="116.41" y2="187.88"/></g><g id="ELLIPSE-17" data-name="ELLIPSE"><path class="cls-3" d="M111.66,187.88v0"/></g><g id="LINE-67" data-name="LINE"><line class="cls-3" x1="111.66" y1="187.88" x2="112.1" y2="187.88"/></g><g id="ELLIPSE-18" data-name="ELLIPSE"><path class="cls-3" d="M111.59,187.91a0,0,0,0,0,0,0"/></g><g id="LINE-68" data-name="LINE"><line class="cls-3" x1="111.66" y1="187.88" x2="111.63" y2="187.88"/></g><g id="LINE-69" data-name="LINE"><line class="cls-3" x1="111.63" y1="187.88" x2="111.62" y2="187.88"/></g><g id="LINE-70" data-name="LINE"><line class="cls-3" x1="111.66" y1="187.77" x2="111.66" y2="187.88"/></g><g id="LINE-71" data-name="LINE"><line class="cls-3" x1="111.98" y1="187.77" x2="111.66" y2="187.77"/></g><g id="ARC-9" data-name="ARC"><path class="cls-3" d="M112,187.77a.07.07,0,0,0,.06,0"/></g><g id="LINE-72" data-name="LINE"><line class="cls-3" x1="186.28" y1="187.74" x2="186.29" y2="187.88"/></g><g id="LINE-73" data-name="LINE"><line class="cls-3" x1="186.73" y1="187.77" x2="186.73" y2="187.88"/></g><g id="LINE-74" data-name="LINE"><line class="cls-3" x1="186.41" y1="187.77" x2="186.73" y2="187.77"/></g><g id="ARC-10" data-name="ARC"><path class="cls-3" d="M186.35,187.74a.06.06,0,0,0,.06,0"/></g><g id="LINE-75" data-name="LINE"><line class="cls-3" x1="181.44" y1="187.8" x2="181.44" y2="187.88"/></g><g id="LINE-76" data-name="LINE"><line class="cls-3" x1="181.16" y1="187.8" x2="181.44" y2="187.8"/></g><g id="ELLIPSE-19" data-name="ELLIPSE"><path class="cls-3" d="M181.08,187.74a.08.08,0,0,0,.08.06"/></g><g id="LINE-77" data-name="LINE"><line class="cls-3" x1="116.95" y1="187.88" x2="116.95" y2="187.77"/></g><g id="LINE-78" data-name="LINE"><line class="cls-3" x1="116.95" y1="187.77" x2="117.22" y2="187.77"/></g><g id="ARC-11" data-name="ARC"><path class="cls-3" d="M117.22,187.77a.06.06,0,0,0,.06,0"/></g><g id="LINE-79" data-name="LINE"><line class="cls-3" x1="117.33" y1="187.74" x2="117.33" y2="187.88"/></g><g id="LINE-80" data-name="LINE"><line class="cls-3" x1="131.1" y1="187.74" x2="131.1" y2="187.88"/></g><g id="LINE-81" data-name="LINE"><line class="cls-3" x1="130.88" y1="187.88" x2="130.88" y2="187.77"/></g><g id="LINE-82" data-name="LINE"><line class="cls-3" x1="131.04" y1="187.77" x2="130.88" y2="187.77"/></g><g id="ELLIPSE-20" data-name="ELLIPSE"><path class="cls-3" d="M131,187.77s0,0,0,0"/></g><g id="LINE-83" data-name="LINE"><line class="cls-3" x1="167.51" y1="187.77" x2="167.51" y2="187.88"/></g><g id="LINE-84" data-name="LINE"><line class="cls-3" x1="167.36" y1="187.77" x2="167.51" y2="187.77"/></g><g id="ELLIPSE-21" data-name="ELLIPSE"><path class="cls-3" d="M167.33,187.74a0,0,0,0,0,0,0"/></g><g id="LINE-85" data-name="LINE"><line class="cls-3" x1="186.8" y1="188.08" x2="111.59" y2="188.08"/></g><g id="LINE-86" data-name="LINE"><line class="cls-3" x1="111.53" y1="187.99" x2="111.59" y2="188.08"/></g><g id="LINE-87" data-name="LINE"><line class="cls-3" x1="186.86" y1="187.99" x2="186.8" y2="188.08"/></g><g id="LINE-88" data-name="LINE"><line class="cls-3" x1="186.76" y1="187.77" x2="186.76" y2="187.88"/></g><g id="LINE-89" data-name="LINE"><line class="cls-3" x1="186.77" y1="187.77" x2="186.76" y2="187.77"/></g><g id="LINE-90" data-name="LINE"><line class="cls-3" x1="186.73" y1="187.77" x2="186.76" y2="187.77"/></g><g id="LINE-91" data-name="LINE"><line class="cls-3" x1="181.98" y1="187.77" x2="181.97" y2="187.77"/></g><g id="LINE-92" data-name="LINE"><line class="cls-3" x1="181.97" y1="187.88" x2="181.97" y2="187.77"/></g><g id="LINE-93" data-name="LINE"><line class="cls-3" x1="181.48" y1="187.77" x2="181.48" y2="187.88"/></g><g id="LINE-94" data-name="LINE"><line class="cls-3" x1="181.97" y1="187.77" x2="181.48" y2="187.77"/></g><g id="LINE-95" data-name="LINE"><line class="cls-3" x1="181.46" y1="187.77" x2="181.48" y2="187.77"/></g><g id="ARC-12" data-name="ARC"><path class="cls-3" d="M181.46,187.77l0,0"/></g><g id="LINE-96" data-name="LINE"><line class="cls-3" x1="168.4" y1="187.77" x2="168.42" y2="187.77"/></g><g id="LINE-97" data-name="LINE"><line class="cls-3" x1="168.4" y1="187.88" x2="168.4" y2="187.77"/></g><g id="LINE-98" data-name="LINE"><line class="cls-3" x1="168.4" y1="187.77" x2="167.55" y2="187.77"/></g><g id="LINE-99" data-name="LINE"><line class="cls-3" x1="167.55" y1="187.77" x2="167.55" y2="187.88"/></g><g id="LINE-100" data-name="LINE"><line class="cls-3" x1="167.51" y1="187.77" x2="167.55" y2="187.77"/></g><g id="LINE-101" data-name="LINE"><line class="cls-3" x1="149.68" y1="187.77" x2="149.72" y2="187.77"/></g><g id="LINE-102" data-name="LINE"><line class="cls-3" x1="149.68" y1="187.88" x2="149.68" y2="187.77"/></g><g id="LINE-103" data-name="LINE"><line class="cls-3" x1="148.71" y1="187.88" x2="148.71" y2="187.77"/></g><g id="LINE-104" data-name="LINE"><line class="cls-3" x1="149.68" y1="187.77" x2="148.71" y2="187.77"/></g><g id="LINE-105" data-name="LINE"><line class="cls-3" x1="148.71" y1="187.77" x2="148.67" y2="187.77"/></g><g id="LINE-106" data-name="LINE"><line class="cls-3" x1="130.84" y1="187.88" x2="130.84" y2="187.77"/></g><g id="LINE-107" data-name="LINE"><line class="cls-3" x1="130.88" y1="187.77" x2="130.84" y2="187.77"/></g><g id="LINE-108" data-name="LINE"><line class="cls-3" x1="129.99" y1="187.77" x2="129.99" y2="187.88"/></g><g id="LINE-109" data-name="LINE"><line class="cls-3" x1="130.84" y1="187.77" x2="129.99" y2="187.77"/></g><g id="LINE-110" data-name="LINE"><line class="cls-3" x1="129.97" y1="187.77" x2="129.99" y2="187.77"/></g><g id="LINE-111" data-name="LINE"><line class="cls-3" x1="116.95" y1="187.77" x2="116.91" y2="187.77"/></g><g id="LINE-112" data-name="LINE"><line class="cls-3" x1="116.91" y1="187.88" x2="116.91" y2="187.77"/></g><g id="LINE-113" data-name="LINE"><line class="cls-3" x1="116.42" y1="187.77" x2="116.42" y2="187.88"/></g><g id="LINE-114" data-name="LINE"><line class="cls-3" x1="116.91" y1="187.77" x2="116.42" y2="187.77"/></g><g id="LINE-115" data-name="LINE"><line class="cls-3" x1="116.41" y1="187.77" x2="116.42" y2="187.77"/></g><g id="LINE-116" data-name="LINE"><line class="cls-3" x1="111.63" y1="187.77" x2="111.66" y2="187.77"/></g><g id="LINE-117" data-name="LINE"><line class="cls-3" x1="111.63" y1="187.77" x2="111.63" y2="187.88"/></g><g id="LINE-118" data-name="LINE"><line class="cls-3" x1="111.63" y1="187.77" x2="111.62" y2="187.77"/></g><g id="ELLIPSE-22" data-name="ELLIPSE"><path class="cls-3" d="M112,187.77v0"/></g><g id="ELLIPSE-23" data-name="ELLIPSE"><path class="cls-3" d="M111.66,187.77v0"/></g><g id="ARC-13" data-name="ARC"><path class="cls-3" d="M116.43,187.75h0"/></g><g id="ARC-14" data-name="ARC"><path class="cls-3" d="M116.46,187.74h0"/></g><g id="ELLIPSE-24" data-name="ELLIPSE"><path class="cls-3" d="M186.73,187.74v0"/></g><g id="ELLIPSE-25" data-name="ELLIPSE"><path class="cls-3" d="M186.41,187.74v0"/></g><g id="LINE-119" data-name="LINE"><line class="cls-3" x1="181.2" y1="187.74" x2="181.47" y2="187.74"/></g><g id="ELLIPSE-26" data-name="ELLIPSE"><path class="cls-3" d="M181.2,187.74s0,0,0,.06"/></g><g id="ARC-15" data-name="ARC"><path class="cls-3" d="M181.46,187.77v0"/></g><g id="ARC-16" data-name="ARC"><path class="cls-3" d="M181.47,187.75h0"/></g><g id="ELLIPSE-27" data-name="ELLIPSE"><path class="cls-3" d="M117,187.77s0,0,0,0"/></g><g id="ELLIPSE-28" data-name="ELLIPSE"><path class="cls-3" d="M117.22,187.77s0,0,0,0"/></g><g id="LINE-120" data-name="LINE"><line class="cls-3" x1="116.94" y1="187.74" x2="117.21" y2="187.74"/></g><g id="ELLIPSE-29" data-name="ELLIPSE"><path class="cls-3" d="M131,187.77a0,0,0,0,0,0,0"/></g><g id="LINE-121" data-name="LINE"><line class="cls-3" x1="131.01" y1="187.74" x2="130.85" y2="187.74"/></g><g id="ELLIPSE-30" data-name="ELLIPSE"><path class="cls-3" d="M130.88,187.77a0,0,0,0,0,0,0"/></g><g id="ELLIPSE-31" data-name="ELLIPSE"><path class="cls-3" d="M148.71,187.74h0"/></g><g id="ELLIPSE-32" data-name="ELLIPSE"><path class="cls-3" d="M149.7,187.74h0"/></g><g id="ELLIPSE-33" data-name="ELLIPSE"><path class="cls-3" d="M167.54,187.74a0,0,0,0,0,0,0"/></g><g id="LINE-122" data-name="LINE"><line class="cls-3" x1="167.38" y1="187.74" x2="167.54" y2="187.74"/></g><g id="ELLIPSE-34" data-name="ELLIPSE"><path class="cls-3" d="M167.38,187.74s0,0,0,0"/></g><g id="ARC-17" data-name="ARC"><path class="cls-3" d="M186,188.67a1.79,1.79,0,0,0,.82-.59"/></g><g id="LINE-123" data-name="LINE"><line class="cls-3" x1="185.98" y1="188.67" x2="112.41" y2="188.67"/></g><g id="ARC-18" data-name="ARC"><path class="cls-3" d="M111.59,188.08a1.74,1.74,0,0,0,.82.59"/></g><g id="ELLIPSE-35" data-name="ELLIPSE"><path class="cls-3" d="M186.76,187.77a0,0,0,0,0,0,0"/></g><g id="ELLIPSE-36" data-name="ELLIPSE"><path class="cls-3" d="M182,187.77a0,0,0,0,0,0,0"/></g><g id="ELLIPSE-37" data-name="ELLIPSE"><path class="cls-3" d="M181.48,187.77s0,0,0,0"/></g><g id="LINE-124" data-name="LINE"><line class="cls-3" x1="181.94" y1="187.74" x2="181.47" y2="187.74"/></g><g id="ELLIPSE-38" data-name="ELLIPSE"><path class="cls-3" d="M168.4,187.77s0,0,0,0"/></g><g id="LINE-125" data-name="LINE"><line class="cls-3" x1="168.38" y1="187.74" x2="167.54" y2="187.74"/></g><g id="ELLIPSE-39" data-name="ELLIPSE"><path class="cls-3" d="M167.55,187.77s0,0,0,0"/></g><g id="ELLIPSE-40" data-name="ELLIPSE"><path class="cls-3" d="M149.68,187.77v0"/></g><g id="LINE-126" data-name="LINE"><line class="cls-3" x1="149.68" y1="187.74" x2="148.71" y2="187.74"/></g><g id="ELLIPSE-41" data-name="ELLIPSE"><path class="cls-3" d="M148.71,187.74v0"/></g><g id="ELLIPSE-42" data-name="ELLIPSE"><path class="cls-3" d="M130.85,187.74s0,0,0,0"/></g><g id="LINE-127" data-name="LINE"><line class="cls-3" x1="130.85" y1="187.74" x2="130.01" y2="187.74"/></g><g id="ELLIPSE-43" data-name="ELLIPSE"><path class="cls-3" d="M130,187.74s0,0,0,0"/></g><g id="ELLIPSE-44" data-name="ELLIPSE"><path class="cls-3" d="M116.94,187.74a0,0,0,0,0,0,0"/></g><g id="ELLIPSE-45" data-name="ELLIPSE"><path class="cls-3" d="M116.43,187.75s0,0,0,0"/></g><g id="LINE-128" data-name="LINE"><line class="cls-3" x1="116.94" y1="187.74" x2="116.46" y2="187.74"/></g><g id="ELLIPSE-46" data-name="ELLIPSE"><path class="cls-3" d="M111.66,187.74a0,0,0,0,0,0,0"/></g><g id="LWPOLYLINE-12" data-name="LWPOLYLINE"><polyline class="cls-3" points="185.98 188.68 185.71 188.76 185.44 188.85 185.1 188.95 184.73 189.04 184.02 189.21 183.26 189.37 182.46 189.51 181.63 189.66 180.98 189.75 180.32 189.85 178.95 190.02 178.06 190.13 177.16 190.22 175.32 190.4 173.44 190.56 171.53 190.7 169.59 190.83 168.16 190.91 166.73 190.99 165.21 191.06 163.68 191.13 161.43 191.21 159.19 191.28 156.97 191.33 154.53 191.38 152.14 191.4 149.84 191.41"/></g><g id="LWPOLYLINE-13" data-name="LWPOLYLINE"><polyline class="cls-3" points="112.41 188.68 112.67 188.76 112.95 188.85 113.3 188.95 113.66 189.04 114.37 189.21 115.13 189.37 115.93 189.51 116.77 189.66 117.41 189.75 118.08 189.85 119.44 190.02 120.33 190.13 121.22 190.22 123.06 190.4 124.95 190.56 126.86 190.7 128.8 190.83 130.23 190.91 131.66 190.99 133.18 191.06 134.71 191.13 136.97 191.21 139.21 191.28 141.43 191.33 143.9 191.38 146.3 191.41 148.63 191.41"/></g><g id="ARC-19" data-name="ARC"><path class="cls-3" d="M186.77,187.88a0,0,0,0,0,0,0"/></g><g id="ARC-20" data-name="ARC"><path class="cls-3" d="M182,187.88s0,0,0,0"/></g><g id="ARC-21" data-name="ARC"><path class="cls-3" d="M168.42,187.88a0,0,0,0,0,0,0"/></g><g id="ARC-22" data-name="ARC"><path class="cls-3" d="M149.72,187.88l0,0"/></g><g id="ARC-23" data-name="ARC"><path class="cls-3" d="M148.63,187.91s0,0,0,0"/></g><g id="ARC-24" data-name="ARC"><path class="cls-3" d="M129.94,187.91a0,0,0,0,0,0,0"/></g><g id="ARC-25" data-name="ARC"><path class="cls-3" d="M116.38,187.91a0,0,0,0,0,0,0"/></g><g id="ARC-26" data-name="ARC"><path class="cls-3" d="M111.59,187.91a0,0,0,0,0,0,0"/></g><g id="LINE-129" data-name="LINE"><line class="cls-3" x1="186.77" y1="187.88" x2="186.77" y2="187.77"/></g><g id="LINE-130" data-name="LINE"><line class="cls-3" x1="181.98" y1="187.88" x2="181.98" y2="187.77"/></g><g id="LINE-131" data-name="LINE"><line class="cls-3" x1="168.42" y1="187.88" x2="168.42" y2="187.77"/></g><g id="LINE-132" data-name="LINE"><line class="cls-3" x1="149.72" y1="187.88" x2="149.72" y2="187.77"/></g><g id="LINE-133" data-name="LINE"><line class="cls-3" x1="148.67" y1="187.88" x2="148.67" y2="187.77"/></g><g id="LINE-134" data-name="LINE"><line class="cls-3" x1="129.97" y1="187.77" x2="129.97" y2="187.88"/></g><g id="LINE-135" data-name="LINE"><line class="cls-3" x1="116.41" y1="187.77" x2="116.41" y2="187.88"/></g><g id="LINE-136" data-name="LINE"><line class="cls-3" x1="111.62" y1="187.88" x2="111.62" y2="187.77"/></g><g id="LINE-137" data-name="LINE"><line class="cls-3" x1="148.67" y1="187.75" x2="148.67" y2="187.74"/></g><g id="LINE-138" data-name="LINE"><line class="cls-3" x1="149.71" y1="187.75" x2="149.71" y2="187.74"/></g><g id="ARC-27" data-name="ARC"><path class="cls-3" d="M186.77,187.77s0,0,0,0"/></g><g id="ARC-28" data-name="ARC"><path class="cls-3" d="M182,187.77s0,0,0,0"/></g><g id="ARC-29" data-name="ARC"><path class="cls-3" d="M168.42,187.77s0,0,0,0"/></g><g id="ARC-30" data-name="ARC"><path class="cls-3" d="M149.72,187.77s0,0,0,0"/></g><g id="ARC-31" data-name="ARC"><path class="cls-3" d="M148.69,187.74s0,0,0,0"/></g><g id="ARC-32" data-name="ARC"><path class="cls-3" d="M130,187.74s0,0,0,0"/></g><g id="ARC-33" data-name="ARC"><path class="cls-3" d="M116.41,187.76h0"/></g><g id="ARC-34" data-name="ARC"><path class="cls-3" d="M111.66,187.74s0,0,0,0"/></g><g id="LINE-139" data-name="LINE"><line class="cls-3" x1="148.63" y1="191.41" x2="149.84" y2="191.41"/></g><g id="LINE-140" data-name="LINE"><line class="cls-3" x1="202.04" y1="148.42" x2="202.04" y2="146.1"/></g><g id="LINE-141" data-name="LINE"><line class="cls-3" x1="202.04" y1="146.1" x2="202.04" y2="139.52"/></g><g id="LINE-142" data-name="LINE"><line class="cls-3" x1="200.38" y1="149.8" x2="200.38" y2="146.77"/></g><g id="LINE-143" data-name="LINE"><line class="cls-3" x1="200.38" y1="146.77" x2="200.38" y2="138.13"/></g><g id="LINE-144" data-name="LINE"><line class="cls-3" x1="192" y1="146.82" x2="192" y2="138.02"/></g><g id="LINE-145" data-name="LINE"><line class="cls-3" x1="192.18" y1="146.9" x2="192.18" y2="137.85"/></g><g id="LINE-146" data-name="LINE"><line class="cls-3" x1="192" y1="149.91" x2="192" y2="146.82"/></g><g id="LINE-147" data-name="LINE"><line class="cls-3" x1="192.18" y1="150.09" x2="192.18" y2="146.9"/></g><g id="LWPOLYLINE-14" data-name="LWPOLYLINE"><polyline class="cls-3" points="195.59 149.89 195.91 149.82 196.26 149.75 196.63 149.7 197.02 149.66 197.41 149.65 197.8 149.65 198.17 149.67 198.46 149.7"/></g><g id="ARC-35" data-name="ARC"><path class="cls-3" d="M199.27,149.84l-.28-.06"/></g><g id="LWPOLYLINE-15" data-name="LWPOLYLINE"><polyline class="cls-3" points="195.27 149.98 195.61 149.89 195.93 149.82 196.31 149.75 196.53 149.72 196.76 149.69 197.08 149.66 197.4 149.65 197.71 149.65 198.06 149.66 198.4 149.69 198.71 149.74 198.99 149.78"/></g><g id="LWPOLYLINE-16" data-name="LWPOLYLINE"><polyline class="cls-3" points="195.59 138.04 195.93 138.12 196.32 138.19 196.54 138.22 196.78 138.25 197.08 138.28 197.4 138.29 197.72 138.29 198.07 138.27 198.41 138.24 198.65 138.21 199.04 138.15 199.27 138.09"/></g><g id="ARC-36" data-name="ARC"><path class="cls-3" d="M195.27,138l.32.09"/></g><g id="LWPOLYLINE-17" data-name="LWPOLYLINE"><polyline class="cls-3" points="202.04 148.42 202.18 147.68 202.24 147.32 202.33 146.68 202.39 146.15 202.43 145.69 202.47 145.2 202.49 144.68 202.5 144.21 202.5 143.97"/></g><g id="ARC-37" data-name="ARC"><path class="cls-3" d="M202.51,144a21.42,21.42,0,0,0-.47-4.45"/></g><g id="ARC-38" data-name="ARC"><path class="cls-3" d="M200.38,149.8a1.76,1.76,0,0,0,1.66-1.38"/></g><g id="ARC-39" data-name="ARC"><path class="cls-3" d="M202,139.52a1.76,1.76,0,0,0-1.66-1.39"/></g><g id="ARC-40" data-name="ARC"><path class="cls-3" d="M192.18,137.85a.17.17,0,0,0-.18.16h0"/></g><g id="ARC-41" data-name="ARC"><path class="cls-3" d="M192,149.91a.18.18,0,0,0,.17.18h0"/></g><g id="LINE-148" data-name="LINE"><line class="cls-3" x1="191.82" y1="145.77" x2="191.81" y2="145.76"/></g><g id="ARC-42" data-name="ARC"><path class="cls-3" d="M191.65,142.22a.34.34,0,0,0,.17-.05"/></g><g id="LINE-149" data-name="LINE"><line class="cls-3" x1="200.38" y1="149.8" x2="199.27" y2="149.84"/></g><g id="LINE-150" data-name="LINE"><line class="cls-3" x1="195.27" y1="149.98" x2="192.18" y2="150.09"/></g><g id="LINE-151" data-name="LINE"><line class="cls-3" x1="200.38" y1="138.13" x2="199.27" y2="138.1"/></g><g id="LINE-152" data-name="LINE"><line class="cls-3" x1="195.27" y1="137.96" x2="192.18" y2="137.85"/></g><g id="LINE-153" data-name="LINE"><line class="cls-3" x1="191.82" y1="143.97" x2="191.82" y2="140.38"/></g><g id="LINE-154" data-name="LINE"><line class="cls-3" x1="191.82" y1="147.56" x2="191.82" y2="143.97"/></g><g id="LINE-155" data-name="LINE"><line class="cls-3" x1="191.82" y1="140.38" x2="192" y2="140.38"/></g><g id="LINE-156" data-name="LINE"><line class="cls-3" x1="191.82" y1="147.56" x2="192" y2="147.56"/></g><g id="LINE-157" data-name="LINE"><line class="cls-3" x1="167.05" y1="56.96" x2="167.05" y2="55.56"/></g><g id="LINE-158" data-name="LINE"><line class="cls-3" x1="167.05" y1="58.36" x2="167.05" y2="56.96"/></g><g id="LINE-159" data-name="LINE"><line class="cls-3" x1="156.55" y1="56.96" x2="156.55" y2="55.56"/></g><g id="LINE-160" data-name="LINE"><line class="cls-3" x1="156.55" y1="58.36" x2="156.55" y2="56.96"/></g><g id="LINE-161" data-name="LINE"><line class="cls-3" x1="207.67" y1="153.95" x2="207.67" y2="56.36"/></g><g id="LINE-162" data-name="LINE"><line class="cls-3" x1="210.47" y1="153.95" x2="210.47" y2="56.36"/></g><g id="LWPOLYLINE-18" data-name="LWPOLYLINE"><polyline class="cls-3" points="207.67 153.95 207.67 154.02 207.64 154.13 207.6 154.23 207.58 154.28 207.53 154.34 207.47 154.41 207.39 154.49 207.27 154.57 207.12 154.66 206.94 154.76 206.73 154.86 206.49 154.96 206.22 155.05 205.94 155.13 205.64 155.2 205.32 155.27 205 155.32 204.66 155.36 204.32 155.39 203.98 155.42 203.64 155.43 203.29 155.44 202.94 155.43 202.6 155.42 202.26 155.39 201.92 155.36 201.59 155.32 201.26 155.27 200.94 155.2 200.64 155.13 200.36 155.05 200.1 154.96 199.85 154.86 199.64 154.76 199.46 154.66 199.31 154.57 199.2 154.48 199.11 154.4 199.05 154.34 199.01 154.28 198.96 154.18 198.93 154.09 198.92 154.02 198.91 153.95"/></g><g id="LWPOLYLINE-19" data-name="LWPOLYLINE"><polyline class="cls-3" points="210.47 153.95 210.47 154.12 210.46 154.3 210.43 154.47 210.4 154.64 210.37 154.8 210.32 154.96 210.27 155.11 210.21 155.27 210.15 155.41 210.07 155.56 209.99 155.7 209.9 155.84 209.79 155.99 209.69 156.12 209.57 156.26 209.45 156.38 209.32 156.51 209.19 156.63 209.04 156.75 208.88 156.86 208.73 156.97 208.56 157.07 208.39 157.17 208.21 157.26 208.02 157.35 207.84 157.44 207.44 157.59 207.05 157.72 206.65 157.84 206.24 157.94 205.81 158.02 205.4 158.09 204.98 158.14 204.56 158.18 204.14 158.22 203.71 158.23 203.29 158.24 202.87 158.23 202.44 158.21 202.02 158.18 201.6 158.14 201.18 158.09 200.76 158.02 200.34 157.94 199.93 157.84 199.53 157.72 199.14 157.59 198.75 157.44 198.56 157.35 198.37 157.26 198.19 157.16 198.01 157.06 197.85 156.97 197.7 156.86 197.54 156.74 197.4 156.63 197.26 156.51 197.13 156.38 197.01 156.25 196.9 156.12 196.79 155.99 196.69 155.84 196.59 155.7 196.51 155.56 196.44 155.41 196.37 155.27 196.31 155.11 196.26 154.96 196.22 154.8 196.18 154.64 196.15 154.47 196.13 154.3 196.12 154.12 196.12 153.95"/></g><g id="LINE-163" data-name="LINE"><line class="cls-3" x1="198.91" y1="149.77" x2="198.91" y2="153.95"/></g><g id="LINE-164" data-name="LINE"><line class="cls-3" x1="196.12" y1="149.78" x2="196.12" y2="153.95"/></g><g id="LWPOLYLINE-20" data-name="LWPOLYLINE"><polyline class="cls-3" points="199 138.15 199.07 136.85 199.11 135.97 199.14 135.08 199.14 134.62 199.13 134.17 199.12 133.71 199.09 133.25 199.06 132.79 199 132.33 198.94 131.87 198.85 131.41 198.75 130.96 198.63 130.51 198.5 130.06"/></g><g id="LWPOLYLINE-21" data-name="LWPOLYLINE"><polyline class="cls-3" points="196.19 138.17 196.26 136.83 196.31 135.97 196.33 135.12 196.34 134.71 196.34 134.3 196.33 133.9 196.3 133.51 196.27 133.12 196.23 132.74 196.17 132.36 196.11 131.99 196.03 131.63 195.93 131.27 195.83 130.91"/></g><g id="LINE-165" data-name="LINE"><line class="cls-3" x1="180.64" y1="74.04" x2="198.5" y2="130.06"/></g><g id="LINE-166" data-name="LINE"><line class="cls-3" x1="177.97" y1="74.89" x2="195.83" y2="130.91"/></g><g id="LWPOLYLINE-22" data-name="LWPOLYLINE"><polyline class="cls-3" points="180.64 74.04 179.96 71.93 179.5 70.53 179.02 69.14 178.78 68.44 178.52 67.74 178.26 67.03 177.99 66.33 177.71 65.62 177.42 64.92 177.11 64.23 176.79 63.53 176.46 62.85 176.1 62.17 175.71 61.49 175.52 61.15 175.31 60.82 175.09 60.5 174.88 60.17 174.65 59.86 174.42 59.55 174.18 59.24 173.93 58.94 173.67 58.65 173.4 58.36 173.12 58.08 172.83 57.81 172.53 57.55 172.21 57.3 171.89 57.07 171.56 56.85 171.22 56.65 170.87 56.46 170.52 56.29 170.15 56.13 169.78 56 169.41 55.88 169.02 55.78 168.64 55.7 168.24 55.63 167.85 55.59 167.45 55.57 167.05 55.55"/></g><g id="LWPOLYLINE-23" data-name="LWPOLYLINE"><polyline class="cls-3" points="177.97 74.89 177.3 72.79 176.84 71.42 176.38 70.06 176.14 69.38 175.9 68.7 175.65 68.02 175.38 67.35 175.11 66.68 174.84 66.02 174.55 65.38 174.26 64.74 173.96 64.11 173.63 63.5 173.29 62.9 172.94 62.32 172.76 62.05 172.58 61.77 172.39 61.51 172.2 61.25 172 61.01 171.8 60.77 171.6 60.54 171.39 60.31 171.18 60.1 170.96 59.9 170.75 59.72 170.52 59.53 170.29 59.37 170.06 59.22 169.83 59.08 169.6 58.95 169.36 58.84 169.12 58.74 168.88 58.65 168.63 58.57 168.38 58.51 168.13 58.45 167.87 58.41 167.6 58.38 167.33 58.36 167.05 58.36"/></g><g id="LINE-167" data-name="LINE"><line class="cls-3" x1="156.55" y1="55.56" x2="156.84" y2="55.56"/></g><g id="LWPOLYLINE-24" data-name="LWPOLYLINE"><polyline class="cls-3" points="156.55 55.55 156.27 55.56 155.99 55.58 155.7 55.61 155.43 55.66 155.14 55.71 154.86 55.78 154.59 55.86 154.31 55.95 154.04 56.05 153.78 56.16 153.52 56.28 153.26 56.4 153.02 56.54 152.77 56.68 152.52 56.83 152.28 56.99 152.05 57.16 151.82 57.34 151.59 57.52 151.37 57.7 151.15 57.9 150.94 58.09 150.73 58.3 150.53 58.51 150.34 58.72 150.15 58.93 149.96 59.16 149.79 59.38 149.61 59.61 149.45 59.84 149.29 60.08 149.13 60.32 148.98 60.57 148.84 60.83 148.71 61.08 148.58 61.35 148.46 61.61 148.35 61.88 148.25 62.15 148.15 62.42 148.07 62.69 148 62.97 147.94 63.25 147.89 63.53 147.85 63.81 147.82 64.09 147.8 64.38 147.79 64.66"/></g><g id="LWPOLYLINE-25" data-name="LWPOLYLINE"><polyline class="cls-3" points="156.55 58.36 156.39 58.36 156.23 58.37 156.07 58.39 155.91 58.41 155.74 58.45 155.58 58.49 155.41 58.53 155.24 58.59 155.07 58.65 154.9 58.73 154.56 58.89 154.22 59.08 153.87 59.3 153.53 59.55 153.2 59.82 152.88 60.12 152.57 60.43 152.28 60.75 152.01 61.09 151.75 61.44 151.51 61.8 151.3 62.16 151.11 62.54 150.95 62.91 150.82 63.27 150.72 63.63 150.68 63.8 150.65 63.98 150.63 64.15 150.61 64.32 150.6 64.49 150.6 64.66"/></g><g id="LINE-168" data-name="LINE"><line class="cls-3" x1="147.8" y1="68.51" x2="147.8" y2="64.66"/></g><g id="LINE-169" data-name="LINE"><line class="cls-3" x1="150.6" y1="68.51" x2="150.6" y2="64.66"/></g><g id="LINE-170" data-name="LINE"><line class="cls-3" x1="147.8" y1="117.54" x2="147.8" y2="68.51"/></g><g id="LINE-171" data-name="LINE"><line class="cls-3" x1="150.6" y1="117.54" x2="150.6" y2="68.51"/></g><g id="LINE-172" data-name="LINE"><line class="cls-3" x1="163.57" y1="59.93" x2="158.12" y2="59.93"/></g><g id="LINE-173" data-name="LINE"><line class="cls-3" x1="165.48" y1="59.93" x2="163.57" y2="59.93"/></g><g id="LINE-174" data-name="LINE"><line class="cls-3" x1="166.99" y1="52.93" x2="164.29" y2="52.93"/></g><g id="LINE-175" data-name="LINE"><line class="cls-3" x1="161.78" y1="52.93" x2="156.61" y2="52.93"/></g><g id="LWPOLYLINE-26" data-name="LWPOLYLINE"><polyline class="cls-3" points="156.55 58.36 156.66 58.01 156.73 57.78 156.79 57.5 156.85 57.21 156.88 56.97 156.9 56.73 156.91 56.46 156.9 56.18 156.88 55.91 156.86 55.72 156.83 55.52"/></g><g id="LWPOLYLINE-27" data-name="LWPOLYLINE"><polyline class="cls-3" points="156.83 55.52 156.76 55.2 156.71 55 156.61 54.68 156.55 54.51"/></g><g id="LWPOLYLINE-28" data-name="LWPOLYLINE"><polyline class="cls-3" points="156.55 54.51 156.62 54.69 156.71 55.02 156.76 55.22 156.84 55.55"/></g><g id="LWPOLYLINE-29" data-name="LWPOLYLINE"><polyline class="cls-3" points="156.72 54.68 156.78 54.91 156.84 55.16 156.87 55.31 156.91 55.55"/></g><g id="LWPOLYLINE-30" data-name="LWPOLYLINE"><polyline class="cls-3" points="167.05 54.51 166.99 54.69 166.89 55.02 166.84 55.22 166.77 55.55"/></g><g id="LWPOLYLINE-31" data-name="LWPOLYLINE"><polyline class="cls-3" points="166.88 54.68 166.82 54.91 166.76 55.16 166.73 55.31 166.69 55.55"/></g><g id="ARC-43" data-name="ARC"><path class="cls-3" d="M156.55,58.36a1.57,1.57,0,0,0,1.57,1.57"/></g><g id="LINE-176" data-name="LINE"><line class="cls-3" x1="166.99" y1="52.93" x2="167.05" y2="52.99"/></g><g id="ARC-44" data-name="ARC"><path class="cls-3" d="M165.48,59.93a1.57,1.57,0,0,0,1.57-1.57"/></g><g id="LINE-177" data-name="LINE"><line class="cls-3" x1="156.61" y1="52.93" x2="156.55" y2="52.99"/></g><g id="LINE-178" data-name="LINE"><line class="cls-3" x1="156.55" y1="54.51" x2="156.55" y2="52.99"/></g><g id="LINE-179" data-name="LINE"><line class="cls-3" x1="159.3" y1="47.68" x2="167.01" y2="47.68"/></g><g id="LINE-180" data-name="LINE"><line class="cls-3" x1="159.28" y1="47.73" x2="167.05" y2="47.73"/></g><g id="LINE-181" data-name="LINE"><line class="cls-3" x1="156.6" y1="47.68" x2="159.3" y2="47.68"/></g><g id="LINE-182" data-name="LINE"><line class="cls-3" x1="156.55" y1="47.73" x2="159.28" y2="47.73"/></g><g id="LINE-183" data-name="LINE"><line class="cls-3" x1="159.3" y1="52.93" x2="167.01" y2="52.93"/></g><g id="LINE-184" data-name="LINE"><line class="cls-3" x1="156.6" y1="52.93" x2="159.3" y2="52.93"/></g><g id="LINE-185" data-name="LINE"><line class="cls-3" x1="156.55" y1="52.88" x2="159.28" y2="52.88"/></g><g id="LINE-186" data-name="LINE"><line class="cls-3" x1="159.28" y1="52.88" x2="167.05" y2="52.88"/></g><g id="LWPOLYLINE-32" data-name="LWPOLYLINE"><polyline class="cls-3" points="161.14 51.44 161.21 51.54 161.29 51.63 161.37 51.7 161.48 51.76 161.59 51.8 161.71 51.83 161.83 51.83 161.94 51.82 162.06 51.79 162.17 51.74 162.26 51.67 162.35 51.59 162.42 51.49 162.48 51.39 162.52 51.28 162.54 51.16 162.54 51.02 162.53 50.95 162.51 50.88 162.48 50.81 162.46 50.74"/></g><g id="LWPOLYLINE-33" data-name="LWPOLYLINE"><polyline class="cls-3" points="162.46 50.74 162.39 50.65 162.31 50.56 162.22 50.48 162.13 50.42 162.01 50.38 161.9 50.36 161.78 50.35 161.66 50.37 161.54 50.4 161.43 50.45 161.34 50.52 161.25 50.6 161.18 50.69 161.12 50.79 161.09 50.91 161.06 51.02 161.06 51.17 161.07 51.24 161.09 51.31 161.11 51.38 161.14 51.44"/></g><g id="LINE-187" data-name="LINE"><line class="cls-3" x1="167.01" y1="47.68" x2="167.05" y2="47.73"/></g><g id="LINE-188" data-name="LINE"><line class="cls-3" x1="156.6" y1="47.68" x2="156.55" y2="47.73"/></g><g id="LINE-189" data-name="LINE"><line class="cls-3" x1="156.6" y1="52.93" x2="156.55" y2="52.88"/></g><g id="LINE-190" data-name="LINE"><line class="cls-3" x1="167.01" y1="52.93" x2="167.05" y2="52.88"/></g><g id="LINE-191" data-name="LINE"><line class="cls-3" x1="156.55" y1="47.73" x2="156.55" y2="52.88"/></g><g id="LINE-192" data-name="LINE"><line class="cls-3" x1="167.05" y1="47.73" x2="167.05" y2="52.88"/></g><g id="LINE-193" data-name="LINE"><line class="cls-3" x1="162.18" y1="50.96" x2="161.88" y2="50.7"/></g><g id="LINE-194" data-name="LINE"><line class="cls-3" x1="162.1" y1="51.36" x2="162.18" y2="50.96"/></g><g id="LINE-195" data-name="LINE"><line class="cls-3" x1="161.88" y1="50.7" x2="161.5" y2="50.83"/></g><g id="LINE-196" data-name="LINE"><line class="cls-3" x1="161.72" y1="51.49" x2="162.1" y2="51.36"/></g><g id="LINE-197" data-name="LINE"><line class="cls-3" x1="161.5" y1="50.83" x2="161.42" y2="51.22"/></g><g id="LINE-198" data-name="LINE"><line class="cls-3" x1="161.42" y1="51.22" x2="161.72" y2="51.49"/></g><g id="CIRCLE"><path class="cls-3" d="M162.39,51.09a.59.59,0,0,0-.59-.59.58.58,0,0,0-.59.59.59.59,0,0,0,.59.6.6.6,0,0,0,.59-.6Z"/></g><g id="LINE-199" data-name="LINE"><line class="cls-3" x1="197.71" y1="47.68" x2="195.57" y2="47.68"/></g><g id="LINE-200" data-name="LINE"><line class="cls-3" x1="207.01" y1="48.48" x2="206.95" y2="47.68"/></g><g id="LINE-201" data-name="LINE"><line class="cls-3" x1="206.95" y1="47.68" x2="197.71" y2="47.68"/></g><g id="LINE-202" data-name="LINE"><line class="cls-3" x1="212.99" y1="48.48" x2="213.05" y2="47.68"/></g><g id="LINE-203" data-name="LINE"><line class="cls-3" x1="222.57" y1="47.68" x2="213.05" y2="47.68"/></g><g id="LINE-204" data-name="LINE"><line class="cls-3" x1="213.05" y1="47.68" x2="206.95" y2="47.68"/></g><g id="LINE-205" data-name="LINE"><line class="cls-3" x1="195.58" y1="48.48" x2="195.57" y2="47.68"/></g><g id="LINE-206" data-name="LINE"><line class="cls-3" x1="222.55" y1="48.48" x2="222.57" y2="47.68"/></g><g id="LINE-207" data-name="LINE"><line class="cls-3" x1="194.98" y1="56.02" x2="221.88" y2="56.02"/></g><g id="LINE-208" data-name="LINE"><line class="cls-3" x1="221.88" y1="56.02" x2="223.15" y2="56.02"/></g><g id="LINE-209" data-name="LINE"><line class="cls-3" x1="194.72" y1="48.48" x2="222.12" y2="48.48"/></g><g id="LINE-210" data-name="LINE"><line class="cls-3" x1="222.12" y1="48.48" x2="223.42" y2="48.48"/></g><g id="ARC-45" data-name="ARC"><path class="cls-3" d="M195,56a.35.35,0,0,0,.35.34"/></g><g id="LINE-211" data-name="LINE"><line class="cls-3" x1="195.33" y1="56.36" x2="221.56" y2="56.36"/></g><g id="ARC-46" data-name="ARC"><path class="cls-3" d="M222.81,56.36a.34.34,0,0,0,.34-.34"/></g><g id="LINE-212" data-name="LINE"><line class="cls-3" x1="222.81" y1="56.36" x2="221.56" y2="56.36"/></g><g id="LINE-213" data-name="LINE"><line class="cls-3" x1="222.81" y1="56.36" x2="222.81" y2="56.36"/></g><g id="LINE-214" data-name="LINE"><line class="cls-3" x1="194.98" y1="56.02" x2="194.72" y2="48.48"/></g><g id="LINE-215" data-name="LINE"><line class="cls-3" x1="223.15" y1="56.02" x2="223.42" y2="48.48"/></g><g class="cls-4"><path d="M88.86,178.58v1.16H79l1.8,2-.87.72-2.37-2.88v-1Z"/><path d="M85.12,168.6V167h1v1.63h2.69v1.15H86.17v4.9H84.86l-7.33-4.58V168.6Zm-6.43,1.15v0l6.43,3.91v-3.94Z"/><path d="M84,160.54l0,0a1.84,1.84,0,0,1,.29.72,3.82,3.82,0,0,1,.1.84,3.42,3.42,0,0,1-.27,1.37,3.28,3.28,0,0,1-.72,1.1,3.4,3.4,0,0,1-1.11.73,3.71,3.71,0,0,1-1.4.26,3.64,3.64,0,0,1-1.43-.27,3.27,3.27,0,0,1-1.1-.77,3.49,3.49,0,0,1-.72-1.17,4,4,0,0,1-.26-1.47,4.13,4.13,0,0,1,.26-1.47,3.49,3.49,0,0,1,.72-1.17,3.41,3.41,0,0,1,1.1-.77,3.64,3.64,0,0,1,1.43-.27,4.37,4.37,0,0,1,1.64.28,9.62,9.62,0,0,1,1.4.7l5,3v1.36Zm-3.15-1.16a2.66,2.66,0,0,0-1,.19,2.14,2.14,0,0,0-.77.52,2.41,2.41,0,0,0-.5.8,3,3,0,0,0,0,2.05,2.52,2.52,0,0,0,.5.8,2.43,2.43,0,0,0,.77.52,2.84,2.84,0,0,0,2,0,2.43,2.43,0,0,0,.77-.52,2.38,2.38,0,0,0,.51-.8,3.18,3.18,0,0,0,0-2.05,2.29,2.29,0,0,0-.51-.8,2.14,2.14,0,0,0-.77-.52A2.64,2.64,0,0,0,80.85,159.38Z"/><path d="M83,151.86c-.28,0-.56,0-.83,0l-.84.05v-1.13h1.14v0a2.44,2.44,0,0,1-1-1.07,2.94,2.94,0,0,1-.34-1.35,3.07,3.07,0,0,1,.07-.65,2.25,2.25,0,0,1,.23-.66,2,2,0,0,1,.47-.6,2.28,2.28,0,0,1,.78-.47,2.53,2.53,0,0,1-1.13-1,2.76,2.76,0,0,1-.42-1.45,2.73,2.73,0,0,1,.76-2.13,3.17,3.17,0,0,1,2.17-.68h4.75v1.05H84.49a3.16,3.16,0,0,0-1.74.4,1.64,1.64,0,0,0-.61,1.49,2,2,0,0,0,.23,1,1.93,1.93,0,0,0,.62.65,2.8,2.8,0,0,0,.87.36,4.9,4.9,0,0,0,1,.11h4v1.06H84.49a3.16,3.16,0,0,0-1.74.4,1.63,1.63,0,0,0-.61,1.49,2.67,2.67,0,0,0,.07.44,1.67,1.67,0,0,0,.35.71,2.67,2.67,0,0,0,.86.66,3.53,3.53,0,0,0,1.6.3h3.84v1.05Z"/><path d="M83,138.23c-.28,0-.56,0-.83,0l-.84.05v-1.13h1.14v0a2.41,2.41,0,0,1-1-1.06,2.94,2.94,0,0,1-.34-1.35,3.07,3.07,0,0,1,.07-.65,2.25,2.25,0,0,1,.23-.66,2,2,0,0,1,.47-.6,2.47,2.47,0,0,1,.78-.48,2.45,2.45,0,0,1-1.13-1,2.79,2.79,0,0,1-.42-1.45,2.73,2.73,0,0,1,.76-2.13,3.12,3.12,0,0,1,2.17-.69h4.75v1.06H84.49a3.16,3.16,0,0,0-1.74.4,1.64,1.64,0,0,0-.61,1.49,2,2,0,0,0,.23,1,1.93,1.93,0,0,0,.62.65,3.07,3.07,0,0,0,.87.36,4.9,4.9,0,0,0,1,.11h4v1.06H84.49a3.16,3.16,0,0,0-1.74.4,1.62,1.62,0,0,0-.61,1.48,2.52,2.52,0,0,0,.07.44,1.71,1.71,0,0,0,.35.72,2.67,2.67,0,0,0,.86.66,3.53,3.53,0,0,0,1.6.3h3.84v1Z"/></g><line class="cls-5" x1="97.25" y1="190.18" x2="97.25" y2="117.72"/><line class="cls-5" x1="95.41" y1="117.7" x2="98.95" y2="117.7"/><line class="cls-5" x1="94.73" y1="190.18" x2="99.78" y2="190.18"/><g class="cls-4"><path d="M120.2,214.89a3.62,3.62,0,0,1,.68,1.16,4.29,4.29,0,0,1,0,3,3.65,3.65,0,0,1-2.08,2.07,4.43,4.43,0,0,1-3,.07,3.94,3.94,0,0,1-1.11-.6l-1.07,1.08-.51-.49,1-1.09a3.72,3.72,0,0,1-.68-1.18,4.17,4.17,0,0,1-.24-1.43,4.26,4.26,0,0,1,.29-1.57,3.65,3.65,0,0,1,.83-1.24,3.7,3.7,0,0,1,1.25-.83,4.16,4.16,0,0,1,1.59-.29,4.47,4.47,0,0,1,1.4.21,3.76,3.76,0,0,1,1.15.62l1-1.09.52.49Zm-1.25.26a2.64,2.64,0,0,0-1.81-.62,2.78,2.78,0,0,0-1.17.23,2.45,2.45,0,0,0-.88.63,2.86,2.86,0,0,0-.56.94,3.46,3.46,0,0,0-.2,1.17,3,3,0,0,0,.54,1.83Zm-3.6,4.72a2.85,2.85,0,0,0,.8.45,3.11,3.11,0,0,0,1,.16,3,3,0,0,0,1.18-.23,2.74,2.74,0,0,0,.89-.64,3,3,0,0,0,.57-.94,3.42,3.42,0,0,0,.2-1.17,3.06,3.06,0,0,0-.55-1.82Z"/><path d="M131.91,221.25h-1.15v-9.89l-2,1.79-.72-.86,2.88-2.37h1Z"/><path d="M142.82,211l-4.56,10.28H137L141.62,211H136.1v-1.05h6.72Z"/><path d="M148.58,209.73a3.17,3.17,0,0,1,2,.56,3.78,3.78,0,0,1,1.17,1.42,6.45,6.45,0,0,1,.56,1.9,13.53,13.53,0,0,1,.14,2,13.76,13.76,0,0,1-.14,2,6.3,6.3,0,0,1-.56,1.89,3.89,3.89,0,0,1-1.17,1.43,3.73,3.73,0,0,1-3.93,0,3.79,3.79,0,0,1-1.17-1.43,6,6,0,0,1-.56-1.89,13.82,13.82,0,0,1-.15-2,13.58,13.58,0,0,1,.15-2,6.17,6.17,0,0,1,.56-1.9,3.69,3.69,0,0,1,1.17-1.42A3.14,3.14,0,0,1,148.58,209.73Zm0,1.05a2.09,2.09,0,0,0-1.46.5,3.08,3.08,0,0,0-.81,1.23,6.09,6.09,0,0,0-.34,1.57c-.05.55-.07,1-.07,1.5s0,.95.07,1.5a6.09,6.09,0,0,0,.34,1.57,3.08,3.08,0,0,0,.81,1.23,2.4,2.4,0,0,0,2.93,0,3.19,3.19,0,0,0,.81-1.23,6.09,6.09,0,0,0,.34-1.57c.05-.55.07-1.05.07-1.5s0-1-.07-1.5a6.09,6.09,0,0,0-.34-1.57,3.19,3.19,0,0,0-.81-1.23A2.09,2.09,0,0,0,148.58,210.78Z"/><path d="M158.63,215.42c0-.28,0-.55,0-.83l-.06-.83h1.14v1.13h0a2.53,2.53,0,0,1,1.06-1,3.12,3.12,0,0,1,1.36-.33,3.72,3.72,0,0,1,.64.06,2.42,2.42,0,0,1,.67.23,2.34,2.34,0,0,1,.6.47,2.85,2.85,0,0,1,.47.79,2.45,2.45,0,0,1,1-1.14,3.09,3.09,0,0,1,3.57.35,3.08,3.08,0,0,1,.69,2.16v4.76h-1.06v-4.37a3.17,3.17,0,0,0-.4-1.75,1.64,1.64,0,0,0-1.48-.6,1.92,1.92,0,0,0-1,.23,1.87,1.87,0,0,0-.64.61,2.55,2.55,0,0,0-.36.88,4.17,4.17,0,0,0-.12,1v4h-1.05v-4.37a3.26,3.26,0,0,0-.4-1.75,1.66,1.66,0,0,0-1.49-.6l-.44.06a1.62,1.62,0,0,0-.71.35,2.55,2.55,0,0,0-.67.86,3.71,3.71,0,0,0-.29,1.61v3.84h-1.06Z"/><path d="M172.26,215.42c0-.28,0-.55,0-.83s0-.56-.06-.83h1.14v1.13h0a2.5,2.5,0,0,1,1.07-1,3.05,3.05,0,0,1,1.35-.33,3.83,3.83,0,0,1,.65.06,2.25,2.25,0,0,1,.66.23,2.34,2.34,0,0,1,.6.47,2.63,2.63,0,0,1,.47.79,2.5,2.5,0,0,1,1-1.14,2.73,2.73,0,0,1,1.45-.41,2.69,2.69,0,0,1,2.12.76,3.08,3.08,0,0,1,.69,2.16v4.76h-1.05v-4.37a3.26,3.26,0,0,0-.4-1.75,1.67,1.67,0,0,0-1.49-.6,1.86,1.86,0,0,0-1,.23,1.81,1.81,0,0,0-.65.61,2.55,2.55,0,0,0-.36.88,4.17,4.17,0,0,0-.11,1v4h-1.06v-4.37a3.17,3.17,0,0,0-.4-1.75,1.66,1.66,0,0,0-1.49-.6l-.44.06a1.67,1.67,0,0,0-.71.35,2.42,2.42,0,0,0-.66.86,3.55,3.55,0,0,0-.3,1.61v3.84h-1.06Z"/></g><line class="cls-5" x1="111.34" y1="200.94" x2="186.35" y2="200.94"/><line class="cls-5" x1="111.34" y1="200.65" x2="111.34" y2="201.23"/><line class="cls-5" x1="186.35" y1="200.65" x2="186.35" y2="201.23"/><line class="cls-5" x1="111.34" y1="198.41" x2="111.34" y2="203.46"/><line class="cls-5" x1="186.35" y1="198.41" x2="186.35" y2="203.46"/></svg>