<svg xmlns="http://www.w3.org/2000/svg" viewBox="0 0 300 263"><defs><style>.cls-1,.cls-2,.cls-3,.cls-4{fill:none;stroke-linecap:round;}.cls-1,.cls-2{stroke:red;}.cls-1,.cls-2,.cls-4{stroke-linejoin:round;}.cls-1,.cls-3,.cls-4{stroke-width:0.6px;}.cls-3,.cls-4{stroke:#000;}.cls-3{stroke-miterlimit:10;}</style></defs><title>aim-small-suspension-bouroullec-flos-F00950_curva fotometrica</title><g id="numeri_esterni_diagramma" data-name="numeri esterni diagramma"><path d="M249.93,137.18h0a1.24,1.24,0,0,1-.37.12,1.84,1.84,0,0,1-.39,0,1.91,1.91,0,0,1-.68-.12,1.58,1.58,0,0,1-.54-.37,1.63,1.63,0,0,1-.36-.56,2.05,2.05,0,0,1-.13-.72,1.79,1.79,0,0,1,.15-.75,1.48,1.48,0,0,1,.4-.55,1.79,1.79,0,0,1,.6-.35,2,2,0,0,1,.75-.13,2.11,2.11,0,0,1,.75.13,1.79,1.79,0,0,1,.6.35,1.59,1.59,0,0,1,.4.55,1.79,1.79,0,0,1,.14.75,2.15,2.15,0,0,1,0,.45,1.68,1.68,0,0,1-.11.4,2.59,2.59,0,0,1-.17.38l-.21.36-1.51,2.39h-.78Zm-.59-.42a1.28,1.28,0,0,0,.48-.09,1,1,0,0,0,.39-.24,1.23,1.23,0,0,0,.26-.37,1.43,1.43,0,0,0,0-1,1.1,1.1,0,0,0-.65-.62,1.48,1.48,0,0,0-1,0,1.28,1.28,0,0,0-.39.24,1.12,1.12,0,0,0-.26.38,1.3,1.3,0,0,0,0,1,1.08,1.08,0,0,0,.26.37,1,1,0,0,0,.39.24A1.28,1.28,0,0,0,249.34,136.76Z"/><path d="M251.82,136.71a7.07,7.07,0,0,1,.08-1,3.19,3.19,0,0,1,.29-1,2,2,0,0,1,.59-.7,1.54,1.54,0,0,1,1-.28,1.49,1.49,0,0,1,.95.28,1.91,1.91,0,0,1,.59.7,2.94,2.94,0,0,1,.3,1,6.29,6.29,0,0,1,0,2,2.94,2.94,0,0,1-.3.95,1.91,1.91,0,0,1-.59.7,1.49,1.49,0,0,1-.95.28,1.54,1.54,0,0,1-1-.28,2,2,0,0,1-.59-.7,3.19,3.19,0,0,1-.29-.95A7.07,7.07,0,0,1,251.82,136.71Zm.67,0c0,.14,0,.29,0,.46a4.6,4.6,0,0,0,.06.52,4.7,4.7,0,0,0,.12.51,2,2,0,0,0,.23.44,1,1,0,0,0,.34.31,1,1,0,0,0,.48.11,1.06,1.06,0,0,0,.48-.11,1.24,1.24,0,0,0,.34-.31,1.65,1.65,0,0,0,.22-.44,3.18,3.18,0,0,0,.13-.51,4.6,4.6,0,0,0,.06-.52c0-.17,0-.32,0-.46s0-.29,0-.46a4.6,4.6,0,0,0-.06-.52,3.18,3.18,0,0,0-.13-.51,1.65,1.65,0,0,0-.22-.44,1.24,1.24,0,0,0-.34-.31,1.06,1.06,0,0,0-.48-.11,1,1,0,0,0-.48.11,1,1,0,0,0-.34.31,2,2,0,0,0-.23.44,4.7,4.7,0,0,0-.12.51,4.6,4.6,0,0,0-.06.52C252.5,136.42,252.49,136.57,252.49,136.71Z"/><path d="M256.42,134.93a1.13,1.13,0,0,1,.09-.45,1.31,1.31,0,0,1,.24-.37,1.18,1.18,0,0,1,.37-.24,1,1,0,0,1,.44-.09,1.13,1.13,0,0,1,.45.09,1.06,1.06,0,0,1,.61.61,1.13,1.13,0,0,1,.09.45,1,1,0,0,1-.09.44,1.06,1.06,0,0,1-.61.61,1.13,1.13,0,0,1-.45.09,1,1,0,0,1-.44-.09,1.18,1.18,0,0,1-.37-.24,1.31,1.31,0,0,1-.24-.37A1,1,0,0,1,256.42,134.93Zm.43,0a.69.69,0,0,0,0,.24,1,1,0,0,0,.15.24.73.73,0,0,0,.51.23.54.54,0,0,0,.29-.07.63.63,0,0,0,.23-.16.72.72,0,0,0,.14-.24.52.52,0,0,0,0-.24.56.56,0,0,0,0-.25.59.59,0,0,0-.14-.23.74.74,0,0,0-.52-.24.73.73,0,0,0-.29.07.62.62,0,0,0-.22.17.76.76,0,0,0-.15.23A.74.74,0,0,0,256.85,134.93Z"/><path d="M41.57,137.18h0a1.34,1.34,0,0,1-.37.12,2,2,0,0,1-.39,0,1.92,1.92,0,0,1-.69-.12,1.58,1.58,0,0,1-.54-.37,1.8,1.8,0,0,1-.36-.56,2.05,2.05,0,0,1-.13-.72,1.79,1.79,0,0,1,.15-.75,1.48,1.48,0,0,1,.4-.55,1.79,1.79,0,0,1,.6-.35,2.23,2.23,0,0,1,1.5,0,1.79,1.79,0,0,1,.6.35,1.48,1.48,0,0,1,.4.55,1.79,1.79,0,0,1,.15.75,3.14,3.14,0,0,1,0,.45,2.34,2.34,0,0,1-.12.4,1.84,1.84,0,0,1-.17.38,3.35,3.35,0,0,1-.21.36l-1.5,2.39h-.79Zm-.59-.42a1.28,1.28,0,0,0,.48-.09,1,1,0,0,0,.39-.24,1.23,1.23,0,0,0,.26-.37,1.3,1.3,0,0,0,0-1,1.1,1.1,0,0,0-.65-.62,1.48,1.48,0,0,0-1,0,1.1,1.1,0,0,0-.65.62,1.43,1.43,0,0,0,0,1,1.23,1.23,0,0,0,.26.37,1,1,0,0,0,.39.24A1.28,1.28,0,0,0,41,136.76Z"/><path d="M43.46,136.71a7.07,7.07,0,0,1,.08-1,2.94,2.94,0,0,1,.3-1,1.91,1.91,0,0,1,.59-.7,1.49,1.49,0,0,1,1-.28,1.54,1.54,0,0,1,1,.28,2,2,0,0,1,.59.7,3.19,3.19,0,0,1,.29,1,6.29,6.29,0,0,1,0,2,3.19,3.19,0,0,1-.29.95,2,2,0,0,1-.59.7,1.54,1.54,0,0,1-1,.28,1.49,1.49,0,0,1-1-.28,1.91,1.91,0,0,1-.59-.7,2.94,2.94,0,0,1-.3-.95A7.07,7.07,0,0,1,43.46,136.71Zm.67,0c0,.14,0,.29,0,.46a4.6,4.6,0,0,0,.06.52,3.18,3.18,0,0,0,.13.51,1.65,1.65,0,0,0,.22.44,1.12,1.12,0,0,0,.34.31,1.1,1.1,0,0,0,1,0,1.12,1.12,0,0,0,.34-.31,2,2,0,0,0,.23-.44,4.7,4.7,0,0,0,.12-.51,4.6,4.6,0,0,0,.06-.52c0-.17,0-.32,0-.46s0-.29,0-.46a4.6,4.6,0,0,0-.06-.52,4.7,4.7,0,0,0-.12-.51,2,2,0,0,0-.23-.44,1.12,1.12,0,0,0-.34-.31,1.1,1.1,0,0,0-1,0,1.12,1.12,0,0,0-.34.31,1.65,1.65,0,0,0-.22.44,3.18,3.18,0,0,0-.13.51,4.6,4.6,0,0,0-.06.52C44.14,136.42,44.13,136.57,44.13,136.71Z"/><path d="M48.06,134.93a1.13,1.13,0,0,1,.09-.45,1.06,1.06,0,0,1,.61-.61,1.13,1.13,0,0,1,.45-.09,1.08,1.08,0,0,1,.44.09,1.06,1.06,0,0,1,.61.61,1.13,1.13,0,0,1,.09.45,1,1,0,0,1-.09.44,1.06,1.06,0,0,1-.61.61,1.08,1.08,0,0,1-.44.09,1.13,1.13,0,0,1-.45-.09,1.06,1.06,0,0,1-.61-.61A1,1,0,0,1,48.06,134.93Zm.43,0a.53.53,0,0,0,.06.24.72.72,0,0,0,.14.24.69.69,0,0,0,.22.16.6.6,0,0,0,.3.07.73.73,0,0,0,.51-.23,1,1,0,0,0,.15-.24.69.69,0,0,0,.05-.24.74.74,0,0,0-.05-.25.76.76,0,0,0-.15-.23.62.62,0,0,0-.22-.17.73.73,0,0,0-.29-.07.73.73,0,0,0-.3.07.72.72,0,0,0-.22.17.59.59,0,0,0-.14.23A.57.57,0,0,0,48.49,134.93Z"/><path d="M148.37,38.51h-.68v-4.8h0l-1,.85-.4-.48,1.52-1.24h.59Z"/><path d="M150.49,34.23a1.48,1.48,0,0,1,.13-.61,1.2,1.2,0,0,1,.34-.46,1.44,1.44,0,0,1,.51-.3,1.92,1.92,0,0,1,1.28,0,1.44,1.44,0,0,1,.51.3,1.2,1.2,0,0,1,.34.46,1.33,1.33,0,0,1,.13.61,1.16,1.16,0,0,1-.07.4,1.41,1.41,0,0,1-.18.37,1.33,1.33,0,0,1-.29.29,1.18,1.18,0,0,1-.39.19h0a1.44,1.44,0,0,1,.46.19,1.35,1.35,0,0,1,.35.32,1.42,1.42,0,0,1,.23.44,1.7,1.7,0,0,1,.08.51,1.74,1.74,0,0,1-.14.69,1.43,1.43,0,0,1-.39.52,1.47,1.47,0,0,1-.57.33,2.35,2.35,0,0,1-1.42,0,1.47,1.47,0,0,1-.57-.33,1.55,1.55,0,0,1-.39-.52,1.74,1.74,0,0,1-.14-.69,1.7,1.7,0,0,1,.08-.51,1.67,1.67,0,0,1,.23-.44,1.35,1.35,0,0,1,.35-.32,1.44,1.44,0,0,1,.46-.19h0a1.18,1.18,0,0,1-.39-.19,1.33,1.33,0,0,1-.29-.29,1.41,1.41,0,0,1-.18-.37A1.46,1.46,0,0,1,150.49,34.23ZM151,36.9a1.18,1.18,0,0,0,.09.46,1.07,1.07,0,0,0,.25.35,1,1,0,0,0,.36.23,1.12,1.12,0,0,0,.88,0,1,1,0,0,0,.36-.23,1.07,1.07,0,0,0,.25-.35,1.18,1.18,0,0,0,.09-.46,1.14,1.14,0,0,0-.09-.46,1.13,1.13,0,0,0-.61-.58,1.12,1.12,0,0,0-.88,0,1.13,1.13,0,0,0-.61.58A1.14,1.14,0,0,0,151,36.9Zm.2-2.64a.88.88,0,0,0,.26.67,1,1,0,0,0,1.36,0,1,1,0,0,0,0-1.34,1,1,0,0,0-1.36,0A.88.88,0,0,0,151.17,34.26Z"/><path d="M154.64,35.68a7,7,0,0,1,.08-1,3.1,3.1,0,0,1,.29-1,2,2,0,0,1,.59-.71,1.6,1.6,0,0,1,1-.27,1.55,1.55,0,0,1,.95.27,1.94,1.94,0,0,1,.59.71,2.86,2.86,0,0,1,.3,1,7,7,0,0,1,.08,1,7.07,7.07,0,0,1-.08,1,2.88,2.88,0,0,1-.3.94,1.94,1.94,0,0,1-.59.71,1.55,1.55,0,0,1-.95.27,1.6,1.6,0,0,1-1-.27,2,2,0,0,1-.59-.71,3.13,3.13,0,0,1-.29-.94A7.07,7.07,0,0,1,154.64,35.68Zm.67,0c0,.13,0,.29,0,.46a4.88,4.88,0,0,0,.06.52,4.05,4.05,0,0,0,.12.5,1.66,1.66,0,0,0,.23.44,1.12,1.12,0,0,0,.34.31,1,1,0,0,0,1,0,1.12,1.12,0,0,0,.34-.31,1.4,1.4,0,0,0,.22-.44,2.83,2.83,0,0,0,.13-.5,4.88,4.88,0,0,0,.06-.52c0-.17,0-.33,0-.46s0-.3,0-.47a4.43,4.43,0,0,0-.06-.51,2.72,2.72,0,0,0-.13-.51,1.51,1.51,0,0,0-.22-.44,1.12,1.12,0,0,0-.34-.31,1,1,0,0,0-1,0,1.12,1.12,0,0,0-.34.31,1.83,1.83,0,0,0-.23.44,3.81,3.81,0,0,0-.12.51,4.43,4.43,0,0,0-.06.51C155.32,35.38,155.31,35.54,155.31,35.68Z"/><path d="M159.24,33.89a1.15,1.15,0,0,1,.33-.81,1,1,0,0,1,.37-.24,1,1,0,0,1,.44-.09,1.15,1.15,0,0,1,.82,2,1.15,1.15,0,0,1-.37.25,1.13,1.13,0,0,1-.45.09,1.15,1.15,0,0,1-.81-.34,1.15,1.15,0,0,1-.33-.81Zm.43,0a.79.79,0,0,0,.05.25,1.14,1.14,0,0,0,.15.23.62.62,0,0,0,.22.17.72.72,0,0,0,.29.06.68.68,0,0,0,.52-.23.79.79,0,0,0,.14-.23.65.65,0,0,0,0-.5.79.79,0,0,0-.14-.23.81.81,0,0,0-.23-.17.65.65,0,0,0-.29-.06.72.72,0,0,0-.29.06.76.76,0,0,0-.22.17,1.14,1.14,0,0,0-.15.23A.79.79,0,0,0,159.67,33.89Z"/><path d="M148.27,239.2a6.85,6.85,0,0,1,.08-1,3.41,3.41,0,0,1,.3-.95,1.94,1.94,0,0,1,.59-.71,1.57,1.57,0,0,1,.95-.27,1.6,1.6,0,0,1,1,.27,2,2,0,0,1,.59.71,3.1,3.1,0,0,1,.29.95,5.7,5.7,0,0,1,.08,1,5.85,5.85,0,0,1-.08,1,3.13,3.13,0,0,1-.29.94,2,2,0,0,1-.59.71,1.6,1.6,0,0,1-1,.27,1.57,1.57,0,0,1-.95-.27,1.94,1.94,0,0,1-.59-.71,3.45,3.45,0,0,1-.3-.94A7.07,7.07,0,0,1,148.27,239.2Zm.68,0c0,.13,0,.29,0,.46a4.88,4.88,0,0,0,.06.52,2.83,2.83,0,0,0,.13.5,1.65,1.65,0,0,0,.22.44,1.24,1.24,0,0,0,.34.31,1,1,0,0,0,.48.12.9.9,0,0,0,.48-.12,1,1,0,0,0,.34-.31,1.41,1.41,0,0,0,.23-.44,4.07,4.07,0,0,0,.13-.5c0-.18,0-.35.06-.52s0-.33,0-.46,0-.3,0-.47,0-.34-.06-.51a3.8,3.8,0,0,0-.13-.51,1.53,1.53,0,0,0-.23-.44,1,1,0,0,0-.34-.31.9.9,0,0,0-.48-.12,1,1,0,0,0-.48.12,1.24,1.24,0,0,0-.34.31,1.81,1.81,0,0,0-.22.44,2.72,2.72,0,0,0-.13.51,4.43,4.43,0,0,0-.06.51C149,238.9,149,239.06,149,239.2Z"/><path d="M152.83,237.41a1.33,1.33,0,0,1,.08-.45,1.11,1.11,0,0,1,.25-.36,1,1,0,0,1,.36-.24,1.17,1.17,0,0,1,.9,0,1,1,0,0,1,.36.24,1.11,1.11,0,0,1,.25.36,1.31,1.31,0,0,1,0,.9,1.23,1.23,0,0,1-.61.61,1.17,1.17,0,0,1-.9,0,1.23,1.23,0,0,1-.61-.61A1.33,1.33,0,0,1,152.83,237.41Zm.43,0a.79.79,0,0,0,.05.25.68.68,0,0,0,.14.23.66.66,0,0,0,.23.17.73.73,0,0,0,.58,0,.76.76,0,0,0,.23-.17.88.88,0,0,0,.14-.23.65.65,0,0,0,0-.5,1.09,1.09,0,0,0-.14-.23,1,1,0,0,0-.23-.17.73.73,0,0,0-.58,0,.81.81,0,0,0-.23.17.75.75,0,0,0-.19.48Z"/><path d="M203.17,238.76h.21l.43,0a1.15,1.15,0,0,0,.42-.13.77.77,0,0,0,.31-.31.94.94,0,0,0,.13-.51.87.87,0,0,0-.27-.68,1,1,0,0,0-.7-.26,1.28,1.28,0,0,0-.63.16,1.14,1.14,0,0,0-.41.48l-.65-.25a1.48,1.48,0,0,1,.65-.72,2.07,2.07,0,0,1,1-.24,2.25,2.25,0,0,1,.64.09,1.72,1.72,0,0,1,.54.28,1.37,1.37,0,0,1,.37.46,1.48,1.48,0,0,1,.14.65,1.29,1.29,0,0,1-.27.8,1.34,1.34,0,0,1-.7.49v0a1.48,1.48,0,0,1,.85.49,1.37,1.37,0,0,1,.23.43,1.69,1.69,0,0,1,.08.5,1.66,1.66,0,0,1-.15.72,1.57,1.57,0,0,1-.41.51,1.71,1.71,0,0,1-.6.31,2.34,2.34,0,0,1-.71.1,2.18,2.18,0,0,1-1.13-.28,1.61,1.61,0,0,1-.7-.91l.68-.22a1.33,1.33,0,0,0,.41.65,1.3,1.3,0,0,0,.74.19,1.33,1.33,0,0,0,.45-.08,1.11,1.11,0,0,0,.36-.23,1.24,1.24,0,0,0,.25-.35,1.13,1.13,0,0,0,.09-.45,1.07,1.07,0,0,0-.12-.53,1,1,0,0,0-.33-.33,1.23,1.23,0,0,0-.46-.18,2.31,2.31,0,0,0-.52-.06h-.21Z"/><path d="M206.24,239.2a6.85,6.85,0,0,1,.08-1,3.11,3.11,0,0,1,.3-.95,1.94,1.94,0,0,1,.59-.71,1.55,1.55,0,0,1,.95-.27,1.6,1.6,0,0,1,1,.27,2,2,0,0,1,.59.71,3.1,3.1,0,0,1,.29.95,5.7,5.7,0,0,1,.08,1,5.85,5.85,0,0,1-.08,1,3.13,3.13,0,0,1-.29.94,2,2,0,0,1-.59.71,1.6,1.6,0,0,1-1,.27,1.55,1.55,0,0,1-.95-.27,1.94,1.94,0,0,1-.59-.71,3.14,3.14,0,0,1-.3-.94A7.07,7.07,0,0,1,206.24,239.2Zm.67,0c0,.13,0,.29,0,.46a4.88,4.88,0,0,0,.06.52,2.83,2.83,0,0,0,.13.5,1.4,1.4,0,0,0,.22.44,1.24,1.24,0,0,0,.34.31,1,1,0,0,0,.48.12.9.9,0,0,0,.48-.12,1,1,0,0,0,.34-.31,1.41,1.41,0,0,0,.23-.44,4.05,4.05,0,0,0,.12-.5,4.88,4.88,0,0,0,.06-.52,3.86,3.86,0,0,0,0-.46,3.94,3.94,0,0,0,0-.47,4.43,4.43,0,0,0-.06-.51,3.81,3.81,0,0,0-.12-.51,1.53,1.53,0,0,0-.23-.44,1,1,0,0,0-.34-.31.9.9,0,0,0-.48-.12,1,1,0,0,0-.48.12,1.24,1.24,0,0,0-.34.31,1.51,1.51,0,0,0-.22.44,2.72,2.72,0,0,0-.13.51,4.43,4.43,0,0,0-.06.51C206.92,238.9,206.91,239.06,206.91,239.2Z"/><path d="M210.84,237.41a1.13,1.13,0,0,1,.09-.45,1.26,1.26,0,0,1,.24-.36,1.2,1.2,0,0,1,.82-.33,1,1,0,0,1,.44.09,1.12,1.12,0,0,1,.37.24,1.26,1.26,0,0,1,.24.36,1.16,1.16,0,0,1-.24,1.26,1.15,1.15,0,0,1-.37.25,1,1,0,0,1-.44.09,1.13,1.13,0,0,1-.45-.09,1.15,1.15,0,0,1-.37-.25,1.15,1.15,0,0,1-.33-.81Zm.43,0a.61.61,0,0,0,.06.25.68.68,0,0,0,.14.23.72.72,0,0,0,.22.17.73.73,0,0,0,.3.06.72.72,0,0,0,.29-.06.62.62,0,0,0,.22-.17.91.91,0,0,0,.15-.23.65.65,0,0,0,0-.5,1.14,1.14,0,0,0-.15-.23.76.76,0,0,0-.22-.17.72.72,0,0,0-.29-.06.73.73,0,0,0-.3.06.92.92,0,0,0-.22.17.79.79,0,0,0-.14.23A.61.61,0,0,0,211.27,237.41Z"/><path d="M93.6,238.76h.21l.44,0a1.1,1.1,0,0,0,.41-.13.86.86,0,0,0,.32-.31.94.94,0,0,0,.12-.51.87.87,0,0,0-.27-.68,1,1,0,0,0-.7-.26,1.21,1.21,0,0,0-.62.16,1.1,1.1,0,0,0-.42.48l-.65-.25a1.45,1.45,0,0,1,.66-.72,2,2,0,0,1,1-.24,2.32,2.32,0,0,1,.65.09,2,2,0,0,1,.54.28,1.67,1.67,0,0,1,.37.46,1.48,1.48,0,0,1,.13.65,1.29,1.29,0,0,1-.27.8,1.34,1.34,0,0,1-.7.49v0a1.31,1.31,0,0,1,.49.18,1.34,1.34,0,0,1,.36.31,1.37,1.37,0,0,1,.23.43,1.42,1.42,0,0,1,.08.5,1.66,1.66,0,0,1-.15.72,1.57,1.57,0,0,1-.41.51,1.75,1.75,0,0,1-.59.31,2.46,2.46,0,0,1-.72.1,2.18,2.18,0,0,1-1.13-.28,1.56,1.56,0,0,1-.69-.91l.68-.22a1.2,1.2,0,0,0,.41.65,1.27,1.27,0,0,0,.73.19,1.33,1.33,0,0,0,.45-.08,1.11,1.11,0,0,0,.36-.23,1.07,1.07,0,0,0,.25-.35,1.13,1.13,0,0,0,.09-.45,1.07,1.07,0,0,0-.12-.53.87.87,0,0,0-.33-.33,1.17,1.17,0,0,0-.46-.18,2.24,2.24,0,0,0-.52-.06H93.6Z"/><path d="M96.68,239.2a5.7,5.7,0,0,1,.08-1,3.1,3.1,0,0,1,.29-.95,2,2,0,0,1,.59-.71,1.6,1.6,0,0,1,1-.27,1.57,1.57,0,0,1,1,.27,1.94,1.94,0,0,1,.59.71,3.41,3.41,0,0,1,.3.95,6.85,6.85,0,0,1,.08,1,7.07,7.07,0,0,1-.08,1,3.45,3.45,0,0,1-.3.94,1.94,1.94,0,0,1-.59.71,1.57,1.57,0,0,1-1,.27,1.6,1.6,0,0,1-1-.27,2,2,0,0,1-.59-.71,3.13,3.13,0,0,1-.29-.94A5.85,5.85,0,0,1,96.68,239.2Zm.67,0c0,.13,0,.29,0,.46a4.88,4.88,0,0,0,.06.52,4.07,4.07,0,0,0,.13.5,1.41,1.41,0,0,0,.23.44,1,1,0,0,0,.34.31.9.9,0,0,0,.48.12,1,1,0,0,0,.48-.12,1.24,1.24,0,0,0,.34-.31,1.65,1.65,0,0,0,.22-.44,2.83,2.83,0,0,0,.13-.5,4.88,4.88,0,0,0,.06-.52c0-.17,0-.33,0-.46s0-.3,0-.47a4.43,4.43,0,0,0-.06-.51,2.72,2.72,0,0,0-.13-.51,1.81,1.81,0,0,0-.22-.44,1.24,1.24,0,0,0-.34-.31,1,1,0,0,0-.48-.12.9.9,0,0,0-.48.12,1,1,0,0,0-.34.31,1.53,1.53,0,0,0-.23.44,3.8,3.8,0,0,0-.13.51,4.43,4.43,0,0,0-.06.51C97.35,238.9,97.35,239.06,97.35,239.2Z"/><path d="M101.28,237.41a1.33,1.33,0,0,1,.08-.45,1.11,1.11,0,0,1,.25-.36,1,1,0,0,1,.36-.24,1.17,1.17,0,0,1,.9,0,1,1,0,0,1,.36.24,1.11,1.11,0,0,1,.25.36,1.31,1.31,0,0,1,0,.9,1.23,1.23,0,0,1-.61.61,1.17,1.17,0,0,1-.9,0,1.23,1.23,0,0,1-.61-.61A1.33,1.33,0,0,1,101.28,237.41Zm.43,0a.79.79,0,0,0,.05.25.68.68,0,0,0,.14.23.76.76,0,0,0,.23.17.73.73,0,0,0,.58,0,.66.66,0,0,0,.23-.17.68.68,0,0,0,.14-.23.71.71,0,0,0-.14-.73.81.81,0,0,0-.23-.17.73.73,0,0,0-.58,0,1,1,0,0,0-.23.17.75.75,0,0,0-.19.48Z"/><path d="M203.18,38.51h-.68v-4.8h0l-1,.85-.4-.48,1.52-1.24h.59Z"/><path d="M208.49,33.47h-2.31l0,1.53a1.08,1.08,0,0,1,.36-.11l.37,0a2,2,0,0,1,.74.14,1.61,1.61,0,0,1,.57.39,1.9,1.9,0,0,1,.37.59,2,2,0,0,1,.13.74,2,2,0,0,1-.15.78,1.74,1.74,0,0,1-.41.59,1.91,1.91,0,0,1-.61.38,2.2,2.2,0,0,1-.78.13,1.73,1.73,0,0,1-1-.28,2,2,0,0,1-.63-.75l.67-.25a1.31,1.31,0,0,0,.42.51,1.1,1.1,0,0,0,.64.2,1.28,1.28,0,0,0,.48-.09,1.26,1.26,0,0,0,.38-.27,1.15,1.15,0,0,0,.26-.41,1.53,1.53,0,0,0,.1-.54,1.38,1.38,0,0,0-.11-.55,1.08,1.08,0,0,0-.3-.4,1.26,1.26,0,0,0-.44-.25,1.67,1.67,0,0,0-.55-.08,1.84,1.84,0,0,0-.6.1,2.58,2.58,0,0,0-.56.25l.06-2.95h3Z"/><path d="M209.45,35.68a7,7,0,0,1,.08-1,3.1,3.1,0,0,1,.29-1,2,2,0,0,1,.59-.71,1.6,1.6,0,0,1,1-.27,1.55,1.55,0,0,1,.95.27,1.94,1.94,0,0,1,.59.71,2.86,2.86,0,0,1,.3,1,7,7,0,0,1,.08,1,7.07,7.07,0,0,1-.08,1,2.88,2.88,0,0,1-.3.94,1.94,1.94,0,0,1-.59.71,1.55,1.55,0,0,1-.95.27,1.6,1.6,0,0,1-1-.27,2,2,0,0,1-.59-.71,3.13,3.13,0,0,1-.29-.94A7.07,7.07,0,0,1,209.45,35.68Zm.67,0c0,.13,0,.29,0,.46a4.88,4.88,0,0,0,.06.52,4.05,4.05,0,0,0,.12.5,1.66,1.66,0,0,0,.23.44,1,1,0,0,0,.34.31.9.9,0,0,0,.48.12,1,1,0,0,0,.48-.12,1.24,1.24,0,0,0,.34-.31,1.4,1.4,0,0,0,.22-.44,2.83,2.83,0,0,0,.13-.5,4.88,4.88,0,0,0,.06-.52c0-.17,0-.33,0-.46s0-.3,0-.47a4.43,4.43,0,0,0-.06-.51,2.72,2.72,0,0,0-.13-.51,1.51,1.51,0,0,0-.22-.44,1.24,1.24,0,0,0-.34-.31,1,1,0,0,0-.48-.12.9.9,0,0,0-.48.12,1,1,0,0,0-.34.31,1.83,1.83,0,0,0-.23.44,3.81,3.81,0,0,0-.12.51,4.43,4.43,0,0,0-.06.51C210.13,35.38,210.12,35.54,210.12,35.68Z"/><path d="M214.05,33.89a1.15,1.15,0,0,1,.33-.81,1,1,0,0,1,.37-.24,1,1,0,0,1,.44-.09,1.13,1.13,0,0,1,.45.09,1,1,0,0,1,.36.24,1,1,0,0,1,.25.36,1.17,1.17,0,0,1,0,.9,1.23,1.23,0,0,1-.61.61,1.13,1.13,0,0,1-.45.09,1.15,1.15,0,0,1-.81-.34,1.15,1.15,0,0,1-.33-.81Zm.43,0a.79.79,0,0,0,.05.25,1.14,1.14,0,0,0,.15.23.62.62,0,0,0,.22.17.72.72,0,0,0,.29.06.68.68,0,0,0,.52-.23.79.79,0,0,0,.14-.23.65.65,0,0,0,0-.5.79.79,0,0,0-.14-.23.81.81,0,0,0-.23-.17.65.65,0,0,0-.29-.06.72.72,0,0,0-.29.06.76.76,0,0,0-.22.17,1.14,1.14,0,0,0-.15.23A.79.79,0,0,0,214.48,33.89Z"/><path d="M93.61,38.51h-.67v-4.8h0l-1,.85-.4-.48L93,32.84h.58Z"/><path d="M98.92,33.47H96.61l0,1.53a1,1,0,0,1,.35-.11l.37,0a1.91,1.91,0,0,1,.74.14,1.65,1.65,0,0,1,.58.39A1.71,1.71,0,0,1,99,36a2,2,0,0,1,.13.74,2,2,0,0,1-.15.78,1.71,1.71,0,0,1-.4.59,2,2,0,0,1-.62.38,2.15,2.15,0,0,1-.77.13,1.78,1.78,0,0,1-1.05-.28,1.85,1.85,0,0,1-.62-.75l.67-.25a1.16,1.16,0,0,0,.42.51,1.05,1.05,0,0,0,.63.2,1.28,1.28,0,0,0,.48-.09,1.23,1.23,0,0,0,.64-.68,1.33,1.33,0,0,0,.1-.54,1.38,1.38,0,0,0-.11-.55,1.18,1.18,0,0,0-.29-.4,1.41,1.41,0,0,0-.45-.25,1.63,1.63,0,0,0-.55-.08,1.78,1.78,0,0,0-.59.1,2.58,2.58,0,0,0-.56.25l0-2.95h3Z"/><path d="M99.88,35.68a7,7,0,0,1,.08-1,3.11,3.11,0,0,1,.3-1,1.94,1.94,0,0,1,.59-.71,1.55,1.55,0,0,1,1-.27,1.6,1.6,0,0,1,1,.27,2,2,0,0,1,.59.71,3.1,3.1,0,0,1,.29,1,5.77,5.77,0,0,1,.08,1,5.85,5.85,0,0,1-.08,1,3.13,3.13,0,0,1-.29.94,2,2,0,0,1-.59.71,1.6,1.6,0,0,1-1,.27,1.55,1.55,0,0,1-1-.27,1.94,1.94,0,0,1-.59-.71,3.14,3.14,0,0,1-.3-.94A7.07,7.07,0,0,1,99.88,35.68Zm.67,0c0,.13,0,.29,0,.46a4.88,4.88,0,0,0,.06.52,2.83,2.83,0,0,0,.13.5,1.4,1.4,0,0,0,.22.44,1.24,1.24,0,0,0,.34.31,1,1,0,0,0,.48.12.9.9,0,0,0,.48-.12,1,1,0,0,0,.34-.31,1.41,1.41,0,0,0,.23-.44,4.05,4.05,0,0,0,.12-.5,4.88,4.88,0,0,0,.06-.52c0-.17,0-.33,0-.46s0-.3,0-.47a4.43,4.43,0,0,0-.06-.51,3.81,3.81,0,0,0-.12-.51,1.53,1.53,0,0,0-.23-.44,1,1,0,0,0-.34-.31.9.9,0,0,0-.48-.12,1,1,0,0,0-.48.12,1.24,1.24,0,0,0-.34.31,1.51,1.51,0,0,0-.22.44,2.72,2.72,0,0,0-.13.51,4.43,4.43,0,0,0-.06.51C100.56,35.38,100.55,35.54,100.55,35.68Z"/><path d="M104.48,33.89a1.15,1.15,0,0,1,1.15-1.14,1,1,0,0,1,.44.09,1.12,1.12,0,0,1,.37.24,1.16,1.16,0,0,1,0,1.62,1.15,1.15,0,0,1-.37.25,1,1,0,0,1-.44.09,1.13,1.13,0,0,1-.45-.09,1.15,1.15,0,0,1-.37-.25,1.15,1.15,0,0,1-.33-.81Zm.43,0a.61.61,0,0,0,.06.25.79.79,0,0,0,.14.23.72.72,0,0,0,.22.17.73.73,0,0,0,.3.06.72.72,0,0,0,.29-.06.62.62,0,0,0,.22-.17,1.14,1.14,0,0,0,.15-.23.65.65,0,0,0,0-.5,1.14,1.14,0,0,0-.15-.23.76.76,0,0,0-.22-.17.72.72,0,0,0-.29-.06.73.73,0,0,0-.3.06.92.92,0,0,0-.22.17.79.79,0,0,0-.14.23A.61.61,0,0,0,104.91,33.89Z"/><path d="M248.75,192.45v0a1.35,1.35,0,0,1,.37-.13,2,2,0,0,1,.39,0,1.73,1.73,0,0,1,.69.13,1.42,1.42,0,0,1,.54.36,1.85,1.85,0,0,1,.36.57,2,2,0,0,1,.12.72,1.78,1.78,0,0,1-.14.74,1.74,1.74,0,0,1-.4.56,2,2,0,0,1-.6.35,2.36,2.36,0,0,1-.75.12,2.27,2.27,0,0,1-.75-.12,2,2,0,0,1-.6-.35,1.6,1.6,0,0,1-.4-.56,1.78,1.78,0,0,1-.15-.74,2.24,2.24,0,0,1,.15-.86,5.28,5.28,0,0,1,.39-.74l1.5-2.39h.79Zm.59.43a1.23,1.23,0,0,0-.87.32,1,1,0,0,0-.26.38,1.31,1.31,0,0,0-.1.5,1.35,1.35,0,0,0,.1.5,1.08,1.08,0,0,0,.26.37,1,1,0,0,0,.39.24,1.32,1.32,0,0,0,1,0,1,1,0,0,0,.39-.24,1.23,1.23,0,0,0,.26-.37,1.35,1.35,0,0,0,.09-.5,1.31,1.31,0,0,0-.09-.5,1.16,1.16,0,0,0-.26-.38,1.23,1.23,0,0,0-.87-.32Z"/><path d="M251.82,192.92a7.07,7.07,0,0,1,.08-1,3.13,3.13,0,0,1,.29-.94,2,2,0,0,1,.59-.71,1.6,1.6,0,0,1,1-.27,1.55,1.55,0,0,1,.95.27,1.94,1.94,0,0,1,.59.71,2.88,2.88,0,0,1,.3.94,7.07,7.07,0,0,1,.08,1,7,7,0,0,1-.08,1,2.86,2.86,0,0,1-.3,1,1.94,1.94,0,0,1-.59.71,1.55,1.55,0,0,1-.95.27,1.6,1.6,0,0,1-1-.27,2,2,0,0,1-.59-.71,3.1,3.1,0,0,1-.29-1A7,7,0,0,1,251.82,192.92Zm.67,0c0,.14,0,.3,0,.47a4.43,4.43,0,0,0,.06.51,3.81,3.81,0,0,0,.12.51,1.83,1.83,0,0,0,.23.44,1,1,0,0,0,.34.31.9.9,0,0,0,.48.12,1,1,0,0,0,.48-.12,1.24,1.24,0,0,0,.34-.31,1.51,1.51,0,0,0,.22-.44,2.72,2.72,0,0,0,.13-.51,4.43,4.43,0,0,0,.06-.51c0-.17,0-.33,0-.47s0-.29,0-.46a4.88,4.88,0,0,0-.06-.52,2.83,2.83,0,0,0-.13-.5,1.4,1.4,0,0,0-.22-.44,1.1,1.1,0,0,0-.34-.31,1,1,0,0,0-.48-.12.9.9,0,0,0-.48.12.92.92,0,0,0-.34.31,1.66,1.66,0,0,0-.23.44,4.05,4.05,0,0,0-.12.5,4.88,4.88,0,0,0-.06.52C252.5,192.63,252.49,192.79,252.49,192.92Z"/><path d="M256.42,191.14a1.15,1.15,0,0,1,.33-.81,1.05,1.05,0,0,1,.37-.25,1.23,1.23,0,0,1,.44-.08,1.33,1.33,0,0,1,.45.08,1.15,1.15,0,0,1,.37.25,1.16,1.16,0,0,1,0,1.62,1.15,1.15,0,0,1-.37.25,1.33,1.33,0,0,1-.45.08,1.23,1.23,0,0,1-.44-.08,1.05,1.05,0,0,1-.37-.25,1.15,1.15,0,0,1-.33-.81Zm.43,0a.79.79,0,0,0,0,.25,1.14,1.14,0,0,0,.15.23.62.62,0,0,0,.22.17.72.72,0,0,0,.29.06.68.68,0,0,0,.52-.23.79.79,0,0,0,.14-.23.65.65,0,0,0,0-.5.79.79,0,0,0-.14-.23.68.68,0,0,0-.52-.23.72.72,0,0,0-.29.06.62.62,0,0,0-.22.17,1.14,1.14,0,0,0-.15.23A.79.79,0,0,0,256.85,191.14Z"/><path d="M250,81.22h-.67v-4.8h0l-1,.86-.4-.49,1.52-1.23H250Z"/><path d="M251.92,80.45l2.13-2.08c.13-.12.25-.24.35-.35a2.16,2.16,0,0,0,.25-.32,1.09,1.09,0,0,0,.15-.33,1.38,1.38,0,0,0,0-.37,1,1,0,0,0-.08-.4.84.84,0,0,0-.22-.3.78.78,0,0,0-.33-.19,1.05,1.05,0,0,0-.4-.07,1,1,0,0,0-.71.25,1.08,1.08,0,0,0-.36.65l-.73-.06a1.83,1.83,0,0,1,.21-.61,1.41,1.41,0,0,1,.39-.45,2,2,0,0,1,.53-.27,2.25,2.25,0,0,1,.64-.09,2.41,2.41,0,0,1,.67.1,1.92,1.92,0,0,1,.55.29,1.44,1.44,0,0,1,.51,1.15,2,2,0,0,1-.09.61,2,2,0,0,1-.25.5,3.47,3.47,0,0,1-.35.43l-.41.4-1.75,1.64v0h2.89v.62h-3.64Z"/><path d="M256.27,78.39a5.85,5.85,0,0,1,.08-1,3.19,3.19,0,0,1,.29-1,2,2,0,0,1,.59-.7,1.54,1.54,0,0,1,1-.28,1.51,1.51,0,0,1,.95.28,1.91,1.91,0,0,1,.59.7,3.2,3.2,0,0,1,.3,1,6.29,6.29,0,0,1,0,2,3.2,3.2,0,0,1-.3,1,1.91,1.91,0,0,1-.59.7,1.51,1.51,0,0,1-.95.28,1.54,1.54,0,0,1-1-.28,2,2,0,0,1-.59-.7,3.19,3.19,0,0,1-.29-1A5.85,5.85,0,0,1,256.27,78.39Zm.67,0a3.78,3.78,0,0,0,0,.46c0,.17,0,.35.05.52a4.77,4.77,0,0,0,.13.51,1.67,1.67,0,0,0,.23.44,1,1,0,0,0,.34.31,1,1,0,0,0,.48.11,1.06,1.06,0,0,0,.48-.11,1.24,1.24,0,0,0,.34-.31,2,2,0,0,0,.22-.44,3.18,3.18,0,0,0,.13-.51,4.6,4.6,0,0,0,.06-.52c0-.17,0-.32,0-.46s0-.29,0-.46a4.35,4.35,0,0,0-.06-.52,3.18,3.18,0,0,0-.13-.51,2,2,0,0,0-.22-.44,1.24,1.24,0,0,0-.34-.31,1.06,1.06,0,0,0-.48-.11,1,1,0,0,0-.48.11,1,1,0,0,0-.34.31,1.67,1.67,0,0,0-.23.44,4.77,4.77,0,0,0-.13.51c0,.17,0,.34-.05.52A3.78,3.78,0,0,0,256.94,78.39Z"/><path d="M260.87,76.61a1.13,1.13,0,0,1,.09-.45,1,1,0,0,1,.24-.37,1.16,1.16,0,0,1,1.62,0,1.15,1.15,0,0,1,.25.37,1.13,1.13,0,0,1,.09.45,1,1,0,0,1-.09.44,1.15,1.15,0,0,1-.25.37,1.16,1.16,0,0,1-1.62,0,1,1,0,0,1-.24-.37A1,1,0,0,1,260.87,76.61Zm.43,0a.69.69,0,0,0,.05.24.75.75,0,0,0,.15.24.6.6,0,0,0,.22.16.64.64,0,0,0,.58,0,.63.63,0,0,0,.23-.16.72.72,0,0,0,.14-.24.52.52,0,0,0,.05-.24.56.56,0,0,0-.05-.25.59.59,0,0,0-.14-.23.66.66,0,0,0-.23-.17.64.64,0,0,0-.58,0,.62.62,0,0,0-.22.17.61.61,0,0,0-.15.23A.74.74,0,0,0,261.3,76.61Z"/><path d="M40.39,192.45v0a1.42,1.42,0,0,1,.38-.13,1.84,1.84,0,0,1,.39,0,1.72,1.72,0,0,1,.68.13,1.42,1.42,0,0,1,.54.36,1.85,1.85,0,0,1,.36.57,2,2,0,0,1,.13.72,1.78,1.78,0,0,1-.15.74,1.6,1.6,0,0,1-.4.56,2,2,0,0,1-.6.35,2.4,2.4,0,0,1-1.5,0,2,2,0,0,1-.6-.35,1.6,1.6,0,0,1-.4-.56,1.78,1.78,0,0,1-.15-.74,2.24,2.24,0,0,1,.16-.86,5.19,5.19,0,0,1,.38-.74l1.5-2.39h.79Zm.59.43a1.23,1.23,0,0,0-.87.32,1.16,1.16,0,0,0-.26.38,1.31,1.31,0,0,0-.09.5,1.35,1.35,0,0,0,.09.5,1.23,1.23,0,0,0,.26.37,1,1,0,0,0,.39.24,1.32,1.32,0,0,0,1,0,1,1,0,0,0,.39-.24,1.23,1.23,0,0,0,.26-.37,1.35,1.35,0,0,0,.1-.5,1.31,1.31,0,0,0-.1-.5,1.16,1.16,0,0,0-.26-.38,1.23,1.23,0,0,0-.87-.32Z"/><path d="M43.46,192.92a7.07,7.07,0,0,1,.08-1,2.88,2.88,0,0,1,.3-.94,1.94,1.94,0,0,1,.59-.71,1.55,1.55,0,0,1,1-.27,1.6,1.6,0,0,1,1,.27,2,2,0,0,1,.59.71,3.13,3.13,0,0,1,.29.94,7.07,7.07,0,0,1,.08,1,7,7,0,0,1-.08,1,3.1,3.1,0,0,1-.29,1,2,2,0,0,1-.59.71,1.6,1.6,0,0,1-1,.27,1.55,1.55,0,0,1-1-.27,1.94,1.94,0,0,1-.59-.71,2.86,2.86,0,0,1-.3-1A7,7,0,0,1,43.46,192.92Zm.67,0c0,.14,0,.3,0,.47a4.43,4.43,0,0,0,.06.51,2.72,2.72,0,0,0,.13.51,1.51,1.51,0,0,0,.22.44,1.12,1.12,0,0,0,.34.31,1,1,0,0,0,1,0,1.12,1.12,0,0,0,.34-.31,1.83,1.83,0,0,0,.23-.44,3.81,3.81,0,0,0,.12-.51,4.43,4.43,0,0,0,.06-.51c0-.17,0-.33,0-.47s0-.29,0-.46a4.88,4.88,0,0,0-.06-.52,4.05,4.05,0,0,0-.12-.5,1.66,1.66,0,0,0-.23-.44,1,1,0,0,0-.34-.31,1,1,0,0,0-1,0,1,1,0,0,0-.34.31,1.4,1.4,0,0,0-.22.44,2.83,2.83,0,0,0-.13.5,4.88,4.88,0,0,0-.06.52C44.14,192.63,44.13,192.79,44.13,192.92Z"/><path d="M48.06,191.14a1.15,1.15,0,0,1,.33-.81,1.15,1.15,0,0,1,.37-.25,1.33,1.33,0,0,1,.45-.08,1.27,1.27,0,0,1,.44.08,1.15,1.15,0,0,1,.37.25A1.16,1.16,0,0,1,50,192a1.15,1.15,0,0,1-.37.25,1.27,1.27,0,0,1-.44.08,1.33,1.33,0,0,1-.45-.08,1.15,1.15,0,0,1-.37-.25,1.15,1.15,0,0,1-.33-.81Zm.43,0a.61.61,0,0,0,.06.25.79.79,0,0,0,.14.23.72.72,0,0,0,.22.17.73.73,0,0,0,.3.06.72.72,0,0,0,.29-.06.62.62,0,0,0,.22-.17,1.14,1.14,0,0,0,.15-.23.65.65,0,0,0,0-.5,1.14,1.14,0,0,0-.15-.23.62.62,0,0,0-.22-.17.72.72,0,0,0-.29-.06.73.73,0,0,0-.3.06.72.72,0,0,0-.22.17.79.79,0,0,0-.14.23A.61.61,0,0,0,48.49,191.14Z"/><path d="M39.15,81.22h-.67v-4.8h0l-1,.86-.4-.49,1.52-1.23h.58Z"/><path d="M41.07,80.45l2.14-2.08c.13-.12.25-.24.35-.35a2.16,2.16,0,0,0,.25-.32,1.09,1.09,0,0,0,.15-.33A1.38,1.38,0,0,0,44,77a1,1,0,0,0-.08-.4.84.84,0,0,0-.22-.3.78.78,0,0,0-.33-.19A1.05,1.05,0,0,0,43,76a1,1,0,0,0-.72.25,1.19,1.19,0,0,0-.36.65l-.72-.06a1.47,1.47,0,0,1,.21-.61,1.41,1.41,0,0,1,.39-.45,2,2,0,0,1,.53-.27,2.2,2.2,0,0,1,.64-.09,2.41,2.41,0,0,1,.67.1,2.06,2.06,0,0,1,.55.29,1.47,1.47,0,0,1,.37.48,1.6,1.6,0,0,1,.14.67,2,2,0,0,1-.09.61,2.34,2.34,0,0,1-.25.5,3.47,3.47,0,0,1-.35.43l-.41.4-1.75,1.64v0h2.89v.62H41.07Z"/><path d="M45.43,78.39a7,7,0,0,1,.07-1,3.52,3.52,0,0,1,.3-1,2,2,0,0,1,.59-.7,1.77,1.77,0,0,1,1.91,0,1.91,1.91,0,0,1,.59.7,3.52,3.52,0,0,1,.3,1,6.29,6.29,0,0,1,0,2,3.52,3.52,0,0,1-.3,1,1.91,1.91,0,0,1-.59.7,1.77,1.77,0,0,1-1.91,0,2,2,0,0,1-.59-.7,3.52,3.52,0,0,1-.3-1A7,7,0,0,1,45.43,78.39Zm.67,0c0,.14,0,.29,0,.46a4.6,4.6,0,0,0,.06.52,4.77,4.77,0,0,0,.13.51,2,2,0,0,0,.22.44,1.15,1.15,0,0,0,.35.31,1,1,0,0,0,.48.11,1.06,1.06,0,0,0,.48-.11,1.24,1.24,0,0,0,.34-.31,2,2,0,0,0,.22-.44,3.18,3.18,0,0,0,.13-.51,4.6,4.6,0,0,0,.06-.52c0-.17,0-.32,0-.46s0-.29,0-.46a4.35,4.35,0,0,0-.06-.52,3.18,3.18,0,0,0-.13-.51,2,2,0,0,0-.22-.44,1.24,1.24,0,0,0-.34-.31,1.06,1.06,0,0,0-.48-.11,1,1,0,0,0-.48.11,1.15,1.15,0,0,0-.35.31,2,2,0,0,0-.22.44,4.77,4.77,0,0,0-.13.51,4.35,4.35,0,0,0-.06.52C46.1,78.1,46.1,78.25,46.1,78.39Z"/><path d="M50,76.61a1.12,1.12,0,0,1,.08-.45,1.15,1.15,0,0,1,.25-.37,1.16,1.16,0,0,1,1.62,0,1.15,1.15,0,0,1,.25.37,1.33,1.33,0,0,1,.08.45,1.23,1.23,0,0,1-.08.44,1.15,1.15,0,0,1-.25.37,1.16,1.16,0,0,1-1.62,0,1.15,1.15,0,0,1-.25-.37A1,1,0,0,1,50,76.61Zm.43,0a.52.52,0,0,0,0,.24.72.72,0,0,0,.14.24.63.63,0,0,0,.23.16.64.64,0,0,0,.58,0,.73.73,0,0,0,.23-.16,1,1,0,0,0,.14-.24.69.69,0,0,0,.05-.24.75.75,0,0,0-.19-.48.76.76,0,0,0-.23-.17.64.64,0,0,0-.58,0,.66.66,0,0,0-.23.17.59.59,0,0,0-.14.23A.56.56,0,0,0,50.46,76.61Z"/></g><g id="numeri_fondo_tabella" data-name="numeri fondo tabella"><path d="M131.83,251.42a1.17,1.17,0,0,0-.43-.35,1.19,1.19,0,0,0-.51-.11,1.35,1.35,0,0,0-.55.11,1.08,1.08,0,0,0-.4.3,1.32,1.32,0,0,0-.23.44,1.76,1.76,0,0,0,0,1.08,1.43,1.43,0,0,0,.26.45,1.31,1.31,0,0,0,.39.3,1.27,1.27,0,0,0,.52.1,1.09,1.09,0,0,0,1-.46l.47.44a1.69,1.69,0,0,1-.64.46,2.29,2.29,0,0,1-.78.14,2.22,2.22,0,0,1-.79-.14,1.75,1.75,0,0,1-1-1,2.27,2.27,0,0,1,0-1.57,1.86,1.86,0,0,1,.39-.63,2,2,0,0,1,.61-.41,2,2,0,0,1,.79-.15,2.09,2.09,0,0,1,.79.15,1.59,1.59,0,0,1,.65.45Z"/><path d="M136.21,253.56h0a1.43,1.43,0,0,1-.55.54,1.7,1.7,0,0,1-.89.22,1.8,1.8,0,0,1-.73-.15,1.78,1.78,0,0,1-.6-.41,1.81,1.81,0,0,1-.39-.62,2.06,2.06,0,0,1-.15-.79,2,2,0,0,1,.15-.78,1.88,1.88,0,0,1,.4-.63,1.81,1.81,0,0,1,.62-.41,2.07,2.07,0,0,1,.8-.15,1.72,1.72,0,0,1,.75.17,1.78,1.78,0,0,1,.59.47h0v-2.84h.62v6h-.62Zm0-1.21a1.63,1.63,0,0,0-.09-.55,1.34,1.34,0,0,0-.27-.44,1.37,1.37,0,0,0-.42-.29,1.35,1.35,0,0,0-.55-.11,1.42,1.42,0,0,0-.55.11,1.22,1.22,0,0,0-.41.29,1.34,1.34,0,0,0-.27.44,1.56,1.56,0,0,0,0,1.1,1.25,1.25,0,0,0,.27.44,1.19,1.19,0,0,0,1,.4,1.35,1.35,0,0,0,.55-.1,1.6,1.6,0,0,0,.42-.3,1.25,1.25,0,0,0,.27-.44A1.63,1.63,0,0,0,136.21,252.35Z"/><path d="M140.1,254.57l-.5-.2,2.4-6.15.51.2Z"/><path d="M147.64,254.22H147v-4.8h0l-1,.86-.4-.49,1.52-1.23h.59Z"/><path d="M149.46,251.39a7.07,7.07,0,0,1,.08-1,3.19,3.19,0,0,1,.29-.95,2,2,0,0,1,.59-.7,1.61,1.61,0,0,1,1-.28,1.55,1.55,0,0,1,1,.28,1.91,1.91,0,0,1,.59.7,2.94,2.94,0,0,1,.3.95,6.29,6.29,0,0,1,0,2,2.94,2.94,0,0,1-.3,1,1.91,1.91,0,0,1-.59.7,1.49,1.49,0,0,1-1,.28,1.54,1.54,0,0,1-1-.28,2,2,0,0,1-.59-.7,3.19,3.19,0,0,1-.29-1A7.07,7.07,0,0,1,149.46,251.39Zm.67,0c0,.14,0,.29,0,.47a4.43,4.43,0,0,0,.06.51,4.7,4.7,0,0,0,.12.51,2,2,0,0,0,.23.44,1.12,1.12,0,0,0,.34.31,1.1,1.1,0,0,0,1,0,1.12,1.12,0,0,0,.34-.31,1.65,1.65,0,0,0,.22-.44,3.18,3.18,0,0,0,.13-.51,4.43,4.43,0,0,0,.06-.51c0-.18,0-.33,0-.47s0-.29,0-.46a4.6,4.6,0,0,0-.06-.52,3.18,3.18,0,0,0-.13-.51,1.65,1.65,0,0,0-.22-.44,1.08,1.08,0,0,0-.34-.3,1,1,0,0,0-1,0,1.08,1.08,0,0,0-.34.3,2,2,0,0,0-.23.44,4.7,4.7,0,0,0-.12.51,4.6,4.6,0,0,0-.06.52C150.14,251.1,150.13,251.25,150.13,251.39Z"/><path d="M153.91,251.39a5.85,5.85,0,0,1,.08-1,3.19,3.19,0,0,1,.29-.95,2,2,0,0,1,.59-.7,1.61,1.61,0,0,1,1-.28,1.55,1.55,0,0,1,.95.28,1.91,1.91,0,0,1,.59.7,3.2,3.2,0,0,1,.3.95,6.29,6.29,0,0,1,0,2,3.2,3.2,0,0,1-.3,1,1.91,1.91,0,0,1-.59.7,1.49,1.49,0,0,1-.95.28,1.54,1.54,0,0,1-1-.28,2,2,0,0,1-.59-.7,3.19,3.19,0,0,1-.29-1A5.85,5.85,0,0,1,153.91,251.39Zm.67,0a4,4,0,0,0,0,.47,4.43,4.43,0,0,0,.06.51,3.14,3.14,0,0,0,.12.51,1.67,1.67,0,0,0,.23.44,1,1,0,0,0,.34.31.9.9,0,0,0,.48.11,1,1,0,0,0,.48-.11,1.24,1.24,0,0,0,.34-.31,1.65,1.65,0,0,0,.22-.44,3.18,3.18,0,0,0,.13-.51,4.43,4.43,0,0,0,.06-.51c0-.18,0-.33,0-.47s0-.29,0-.46a4.6,4.6,0,0,0-.06-.52,3.18,3.18,0,0,0-.13-.51,1.65,1.65,0,0,0-.22-.44,1.21,1.21,0,0,0-.34-.3,1,1,0,0,0-.48-.12.9.9,0,0,0-.48.12,1,1,0,0,0-.34.3,1.67,1.67,0,0,0-.23.44,3.14,3.14,0,0,0-.12.51,4.6,4.6,0,0,0-.06.52A3.78,3.78,0,0,0,154.58,251.39Z"/><path d="M158.31,251.39a5.85,5.85,0,0,1,.08-1,3.19,3.19,0,0,1,.29-.95,2,2,0,0,1,.59-.7,1.61,1.61,0,0,1,1-.28,1.55,1.55,0,0,1,1,.28,1.91,1.91,0,0,1,.59.7,3.2,3.2,0,0,1,.3.95,6.29,6.29,0,0,1,0,2,3.2,3.2,0,0,1-.3,1,1.91,1.91,0,0,1-.59.7,1.49,1.49,0,0,1-1,.28,1.54,1.54,0,0,1-1-.28,2,2,0,0,1-.59-.7,3.19,3.19,0,0,1-.29-1A5.85,5.85,0,0,1,158.31,251.39Zm.67,0c0,.14,0,.29,0,.47a4.43,4.43,0,0,0,.06.51,3.14,3.14,0,0,0,.12.51,1.67,1.67,0,0,0,.23.44,1,1,0,0,0,.34.31.9.9,0,0,0,.48.11,1,1,0,0,0,.48-.11,1.24,1.24,0,0,0,.34-.31,1.65,1.65,0,0,0,.22-.44,3.18,3.18,0,0,0,.13-.51,4.43,4.43,0,0,0,.06-.51c0-.18,0-.33,0-.47s0-.29,0-.46a4.6,4.6,0,0,0-.06-.52,3.18,3.18,0,0,0-.13-.51,1.65,1.65,0,0,0-.22-.44,1.21,1.21,0,0,0-.34-.3,1,1,0,0,0-.48-.12.9.9,0,0,0-.48.12,1,1,0,0,0-.34.3,1.67,1.67,0,0,0-.23.44,3.14,3.14,0,0,0-.12.51,4.6,4.6,0,0,0-.06.52C159,251.1,159,251.25,159,251.39Z"/><path d="M165.32,248.18H166v6h-.63Z"/><path d="M167.19,251.37c0-.17,0-.33,0-.48s0-.29,0-.41h.59c0,.1,0,.2,0,.3v.32h0a.91.91,0,0,1,.18-.27,1.64,1.64,0,0,1,.28-.23,1.5,1.5,0,0,1,.36-.16,1.44,1.44,0,0,1,.43-.06,1.52,1.52,0,0,1,.51.08,1.36,1.36,0,0,1,.34.18.93.93,0,0,1,.21.24,1.64,1.64,0,0,1,.12.22,1.78,1.78,0,0,1,.48-.53,1.27,1.27,0,0,1,.71-.19,1.88,1.88,0,0,1,.67.11,1.1,1.1,0,0,1,.44.31,1.37,1.37,0,0,1,.24.5,2.59,2.59,0,0,1,.07.65v2.27h-.62V252a2.33,2.33,0,0,0,0-.37,1,1,0,0,0-.15-.33.71.71,0,0,0-.28-.23,1,1,0,0,0-.45-.09,1,1,0,0,0-.37.08,1,1,0,0,0-.31.22,1.13,1.13,0,0,0-.21.35,1.33,1.33,0,0,0-.07.45v2.16h-.63V252.1a1.62,1.62,0,0,0-.17-.88A.6.6,0,0,0,169,251a1.18,1.18,0,0,0-.52.1.88.88,0,0,0-.36.3,1.14,1.14,0,0,0-.21.46,2.1,2.1,0,0,0-.07.58v1.82h-.62Z"/><line class="cls-1" x1="38.21" y1="253" x2="46.2" y2="253"/><path d="M235.17,251a1.66,1.66,0,0,0-.63-.52,1.93,1.93,0,0,0-.79-.17,2.13,2.13,0,0,0-.87.19,2.16,2.16,0,0,0-.68.52,2.58,2.58,0,0,0-.45.75,2.69,2.69,0,0,0-.16.89,2.79,2.79,0,0,0,.16.93,2.41,2.41,0,0,0,.45.74,2,2,0,0,0,.68.5,1.92,1.92,0,0,0,.87.19,2,2,0,0,0,1.64-.8l.51.43a2.38,2.38,0,0,1-.93.75,3,3,0,0,1-1.22.24,2.85,2.85,0,0,1-1.13-.22,2.82,2.82,0,0,1-.92-.62,3,3,0,0,1-.61-.94,3.33,3.33,0,0,1-.22-1.2,3.19,3.19,0,0,1,.21-1.16,2.9,2.9,0,0,1,.6-1,3.08,3.08,0,0,1,.91-.63,3,3,0,0,1,2.27,0,2,2,0,0,1,.89.68Z"/><path d="M239,253.1l0,0a1.35,1.35,0,0,1-.37.13,2.87,2.87,0,0,1-.39,0,1.68,1.68,0,0,1-.68-.13,1.5,1.5,0,0,1-.55-.36,1.92,1.92,0,0,1-.36-.56,2.11,2.11,0,0,1-.12-.73,1.75,1.75,0,0,1,.14-.74,1.63,1.63,0,0,1,.4-.56,1.79,1.79,0,0,1,.6-.35,2.36,2.36,0,0,1,.75-.12,2.27,2.27,0,0,1,.75.12,1.94,1.94,0,0,1,.61.35,1.49,1.49,0,0,1,.39.56,1.75,1.75,0,0,1,.15.74,2.19,2.19,0,0,1,0,.46c0,.14-.07.27-.11.4a2.53,2.53,0,0,1-.18.37,3.35,3.35,0,0,1-.21.36l-1.5,2.4h-.79Zm-.6-.43a1.51,1.51,0,0,0,.48-.08,1.28,1.28,0,0,0,.39-.24,1.12,1.12,0,0,0,.26-.38,1.27,1.27,0,0,0,.1-.5,1.26,1.26,0,0,0-.1-.49,1,1,0,0,0-.26-.38,1,1,0,0,0-.39-.24,1.33,1.33,0,0,0-1,0,.88.88,0,0,0-.38.24,1.19,1.19,0,0,0-.27.38,1.26,1.26,0,0,0-.09.49,1.28,1.28,0,0,0,.09.5,1.31,1.31,0,0,0,.27.38,1.12,1.12,0,0,0,.38.24A1.51,1.51,0,0,0,238.35,252.67Z"/><path d="M240.88,252.62a7.07,7.07,0,0,1,.08-1,2.88,2.88,0,0,1,.3-.94,2,2,0,0,1,.58-.71,1.84,1.84,0,0,1,1.92,0,2,2,0,0,1,.58.71,2.88,2.88,0,0,1,.3.94,7.07,7.07,0,0,1,.08,1,7,7,0,0,1-.08,1,2.86,2.86,0,0,1-.3.95,2,2,0,0,1-.58.71,1.84,1.84,0,0,1-1.92,0,2,2,0,0,1-.58-.71,2.86,2.86,0,0,1-.3-.95A7,7,0,0,1,240.88,252.62Zm.67,0c0,.14,0,.3,0,.47a4.43,4.43,0,0,0,.06.51,2.72,2.72,0,0,0,.13.51,1.51,1.51,0,0,0,.22.44,1.12,1.12,0,0,0,.34.31,1,1,0,0,0,1,0,1.12,1.12,0,0,0,.34-.31,1.51,1.51,0,0,0,.22-.44,2.72,2.72,0,0,0,.13-.51,4.43,4.43,0,0,0,.06-.51c0-.17,0-.33,0-.47s0-.29,0-.46a4.88,4.88,0,0,0-.06-.52,2.83,2.83,0,0,0-.13-.5,1.4,1.4,0,0,0-.22-.44,1.12,1.12,0,0,0-.34-.31,1,1,0,0,0-1,0,1.12,1.12,0,0,0-.34.31,1.4,1.4,0,0,0-.22.44,2.83,2.83,0,0,0-.13.5,4.88,4.88,0,0,0-.06.52C241.56,252.33,241.55,252.49,241.55,252.62Z"/><path d="M247.78,255.8l-.51-.2,2.41-6.14.5.19Z"/><path d="M257.1,251a1.66,1.66,0,0,0-.63-.52,1.92,1.92,0,0,0-.78-.17,2.06,2.06,0,0,0-.87.19,2.16,2.16,0,0,0-.68.52,2.21,2.21,0,0,0-.45.75,2.46,2.46,0,0,0-.16.89,2.56,2.56,0,0,0,.16.93,2.2,2.2,0,0,0,.44.74,2.1,2.1,0,0,0,.68.5,2,2,0,0,0,.88.19,2,2,0,0,0,.93-.21,2,2,0,0,0,.71-.59l.5.43a2.29,2.29,0,0,1-.92.75,3,3,0,0,1-1.22.24,2.8,2.8,0,0,1-2.05-.84,2.82,2.82,0,0,1-.61-.94,3.13,3.13,0,0,1-.22-1.2,3.19,3.19,0,0,1,.21-1.16,2.75,2.75,0,0,1,.6-1,3,3,0,0,1,.91-.63,2.93,2.93,0,0,1,1.16-.23,3,3,0,0,1,1.11.21,2,2,0,0,1,.89.68Z"/><path d="M258.46,254.69l2.14-2.08.35-.36a1.75,1.75,0,0,0,.25-.32,1,1,0,0,0,.15-.32,1.46,1.46,0,0,0,0-.38,1,1,0,0,0-.08-.4.93.93,0,0,0-.22-.3,1.13,1.13,0,0,0-.73-.26,1,1,0,0,0-.71.25,1.11,1.11,0,0,0-.36.66l-.73-.07a1.91,1.91,0,0,1,.21-.61,1.28,1.28,0,0,1,.39-.44,1.77,1.77,0,0,1,.53-.27,2.25,2.25,0,0,1,.64-.09,2.09,2.09,0,0,1,.67.1,1.53,1.53,0,0,1,.55.29,1.47,1.47,0,0,1,.37.48,1.39,1.39,0,0,1,.14.66,1.91,1.91,0,0,1-.09.61,1.8,1.8,0,0,1-.25.5,2.86,2.86,0,0,1-.35.43l-.41.41-1.75,1.64h2.89v.63h-3.65Z"/><path d="M266.35,250.42l-2.26,5h-.76l2.3-5H262.9v-.63h3.45Z"/><path d="M267.26,252.62a7.07,7.07,0,0,1,.08-1,3.45,3.45,0,0,1,.3-.94,2,2,0,0,1,.59-.71,1.82,1.82,0,0,1,1.91,0,2,2,0,0,1,.59.71,3.45,3.45,0,0,1,.3.94,7,7,0,0,1,.07,1,6.92,6.92,0,0,1-.07,1,3.41,3.41,0,0,1-.3.95,2,2,0,0,1-.59.71,1.82,1.82,0,0,1-1.91,0,2,2,0,0,1-.59-.71,3.41,3.41,0,0,1-.3-.95A7,7,0,0,1,267.26,252.62Zm.68,0c0,.14,0,.3,0,.47a4.43,4.43,0,0,0,.06.51,2.72,2.72,0,0,0,.13.51,1.53,1.53,0,0,0,.23.44,1,1,0,0,0,.34.31.89.89,0,0,0,.47.12,1,1,0,0,0,.49-.12,1.08,1.08,0,0,0,.33-.31,1.53,1.53,0,0,0,.23-.44,2.72,2.72,0,0,0,.13-.51,4.43,4.43,0,0,0,.06-.51c0-.17,0-.33,0-.47s0-.29,0-.46a4.88,4.88,0,0,0-.06-.52,2.83,2.83,0,0,0-.13-.5,1.41,1.41,0,0,0-.23-.44,1.08,1.08,0,0,0-.33-.31,1,1,0,0,0-.49-.12.89.89,0,0,0-.47.12,1,1,0,0,0-.34.31,1.41,1.41,0,0,0-.23.44,2.83,2.83,0,0,0-.13.5,4.88,4.88,0,0,0-.06.52C267.94,252.33,267.94,252.49,267.94,252.62Z"/><path d="M52.87,251a1.55,1.55,0,0,0-.63-.51,1.82,1.82,0,0,0-.79-.18,2,2,0,0,0-.87.2,2.13,2.13,0,0,0-.68.51,2.58,2.58,0,0,0-.45.75,2.67,2.67,0,0,0,0,1.82,2.29,2.29,0,0,0,.45.74,1.88,1.88,0,0,0,.68.5,1.92,1.92,0,0,0,.87.19,2,2,0,0,0,.93-.21,2.07,2.07,0,0,0,.71-.58l.51.42a2.38,2.38,0,0,1-.93.75,3,3,0,0,1-1.22.24,2.85,2.85,0,0,1-1.13-.22,2.82,2.82,0,0,1-.92-.62,3,3,0,0,1-.61-.94,3.27,3.27,0,0,1-.22-1.19,3.2,3.2,0,0,1,.21-1.17,3,3,0,0,1,.6-.95,3.08,3.08,0,0,1,.91-.63,3,3,0,0,1,2.27,0,2,2,0,0,1,.89.68Z"/><path d="M54.13,252.62a7,7,0,0,1,.08-1,3.11,3.11,0,0,1,.3-1,1.94,1.94,0,0,1,.59-.71,1.55,1.55,0,0,1,.95-.27,1.6,1.6,0,0,1,1,.27,2,2,0,0,1,.59.71,3.1,3.1,0,0,1,.29,1,5.77,5.77,0,0,1,.08,1,5.85,5.85,0,0,1-.08,1,3.13,3.13,0,0,1-.29.94,2,2,0,0,1-.59.71,1.6,1.6,0,0,1-1,.27,1.55,1.55,0,0,1-.95-.27,1.94,1.94,0,0,1-.59-.71,3.14,3.14,0,0,1-.3-.94A7.07,7.07,0,0,1,54.13,252.62Zm.67,0c0,.13,0,.29,0,.46a4.88,4.88,0,0,0,.06.52,2.83,2.83,0,0,0,.13.5,1.4,1.4,0,0,0,.22.44,1.1,1.1,0,0,0,.34.31,1,1,0,0,0,.48.12.9.9,0,0,0,.48-.12.92.92,0,0,0,.34-.31,1.41,1.41,0,0,0,.23-.44,2.8,2.8,0,0,0,.12-.5,4.88,4.88,0,0,0,.06-.52,3.86,3.86,0,0,0,0-.46,3.94,3.94,0,0,0,0-.47,4.43,4.43,0,0,0-.06-.51,2.71,2.71,0,0,0-.12-.51,1.53,1.53,0,0,0-.23-.44,1,1,0,0,0-.34-.31.9.9,0,0,0-.48-.12,1,1,0,0,0-.48.12,1.24,1.24,0,0,0-.34.31,1.51,1.51,0,0,0-.22.44,2.72,2.72,0,0,0-.13.51,4.43,4.43,0,0,0-.06.51C54.81,252.32,54.8,252.48,54.8,252.62Z"/><path d="M61,255.79l-.51-.2,2.41-6.14.51.19Z"/><path d="M70.36,251a1.52,1.52,0,0,0-.64-.51,1.78,1.78,0,0,0-.78-.18,2,2,0,0,0-.87.2,2.13,2.13,0,0,0-.68.51,2.58,2.58,0,0,0-.45.75,2.51,2.51,0,0,0-.16.9,2.54,2.54,0,0,0,.16.92,2.46,2.46,0,0,0,.44.74,2.09,2.09,0,0,0,1.56.69,2,2,0,0,0,.93-.21,2.07,2.07,0,0,0,.71-.58l.5.42a2.29,2.29,0,0,1-.92.75,3,3,0,0,1-1.22.24,2.93,2.93,0,0,1-1.14-.22,2.88,2.88,0,0,1-.91-.62,3,3,0,0,1-.61-.94,3.07,3.07,0,0,1-.22-1.19,3.2,3.2,0,0,1,.21-1.17,2.84,2.84,0,0,1,.6-.95,3,3,0,0,1,.91-.63,2.93,2.93,0,0,1,1.16-.23,3,3,0,0,1,1.11.21,2,2,0,0,1,.89.68Z"/><path d="M74.2,255.45h-.68v-4.8h0l-1,.85-.4-.48,1.52-1.24h.59Z"/><path d="M76.37,251.17a1.33,1.33,0,0,1,.13-.61,1.2,1.2,0,0,1,.34-.46,1.44,1.44,0,0,1,.51-.3,1.92,1.92,0,0,1,1.28,0,1.44,1.44,0,0,1,.51.3,1.32,1.32,0,0,1,.34.46,1.48,1.48,0,0,1,.12.61,1.44,1.44,0,0,1-.06.4,1.41,1.41,0,0,1-.18.37,1.18,1.18,0,0,1-.3.29,1,1,0,0,1-.38.19h0a1.44,1.44,0,0,1,.46.19,1.35,1.35,0,0,1,.35.32,1.67,1.67,0,0,1,.23.44,1.7,1.7,0,0,1,.08.51,1.74,1.74,0,0,1-.14.69,1.46,1.46,0,0,1-.39.52,1.47,1.47,0,0,1-.57.33,2.35,2.35,0,0,1-1.42,0,1.59,1.59,0,0,1-.58-.33,1.43,1.43,0,0,1-.38-.52,1.74,1.74,0,0,1-.14-.69,1.7,1.7,0,0,1,.08-.51,1.65,1.65,0,0,1,.22-.44,1.59,1.59,0,0,1,.36-.32,1.44,1.44,0,0,1,.46-.19h0a1.18,1.18,0,0,1-.39-.19,1.33,1.33,0,0,1-.29-.29,1.41,1.41,0,0,1-.18-.37A1.16,1.16,0,0,1,76.37,251.17Zm.48,2.67a1.14,1.14,0,0,0,.09.46,1.21,1.21,0,0,0,.24.35,1.16,1.16,0,0,0,.36.23A1.13,1.13,0,0,0,78,255a1,1,0,0,0,.44-.09,1,1,0,0,0,.36-.23,1.07,1.07,0,0,0,.25-.35,1.36,1.36,0,0,0,0-.92,1.07,1.07,0,0,0-.25-.35,1,1,0,0,0-.36-.23,1,1,0,0,0-.44-.09,1.13,1.13,0,0,0-.45.09,1.16,1.16,0,0,0-.36.23,1.21,1.21,0,0,0-.24.35A1.14,1.14,0,0,0,76.85,253.84ZM77,251.2a.92.92,0,0,0,.26.67.93.93,0,0,0,.69.27.9.9,0,0,0,.68-.27,1,1,0,0,0,0-1.34.9.9,0,0,0-.68-.27.93.93,0,0,0-.69.27A.92.92,0,0,0,77,251.2Z"/><path d="M80.52,252.62a5.77,5.77,0,0,1,.08-1,3.1,3.1,0,0,1,.29-1,2,2,0,0,1,.59-.71,1.6,1.6,0,0,1,1-.27,1.55,1.55,0,0,1,1,.27,1.94,1.94,0,0,1,.59.71,3.41,3.41,0,0,1,.3,1,7,7,0,0,1,.08,1,7.07,7.07,0,0,1-.08,1,3.45,3.45,0,0,1-.3.94,1.94,1.94,0,0,1-.59.71,1.55,1.55,0,0,1-1,.27,1.6,1.6,0,0,1-1-.27,2,2,0,0,1-.59-.71,3.13,3.13,0,0,1-.29-.94A5.85,5.85,0,0,1,80.52,252.62Zm.67,0a3.86,3.86,0,0,0,0,.46c0,.17,0,.34.05.52a4.07,4.07,0,0,0,.13.5,1.41,1.41,0,0,0,.23.44.92.92,0,0,0,.34.31.9.9,0,0,0,.48.12,1,1,0,0,0,.48-.12,1.1,1.1,0,0,0,.34-.31,1.65,1.65,0,0,0,.22-.44,2.83,2.83,0,0,0,.13-.5,4.88,4.88,0,0,0,.06-.52c0-.17,0-.33,0-.46s0-.3,0-.47a4.43,4.43,0,0,0-.06-.51,2.72,2.72,0,0,0-.13-.51,1.81,1.81,0,0,0-.22-.44,1.24,1.24,0,0,0-.34-.31,1,1,0,0,0-.48-.12.9.9,0,0,0-.48.12,1,1,0,0,0-.34.31,1.53,1.53,0,0,0-.23.44,3.8,3.8,0,0,0-.13.51c0,.17,0,.34-.05.51A3.94,3.94,0,0,0,81.19,252.62Z"/><line class="cls-2" x1="214.49" y1="253.42" x2="215.03" y2="253.42"/><line class="cls-2" x1="217.76" y1="253.42" x2="218.3" y2="253.42"/><line class="cls-2" x1="221.02" y1="253.42" x2="221.56" y2="253.42"/><line class="cls-2" x1="224.29" y1="253.42" x2="224.83" y2="253.42"/><line class="cls-2" x1="227.55" y1="253.42" x2="228.09" y2="253.42"/></g><g id="AIM_SMALL_F00950" data-name="AIM SMALL F00950"><path d="M55.48,11.87h4.39v.78H56.32V15h3.3v.78h-3.3V19h-.84Z"/><path d="M60.54,15.41a9.14,9.14,0,0,1,.1-1.25A4.14,4.14,0,0,1,61,13a2.53,2.53,0,0,1,.74-.88,2.27,2.27,0,0,1,2.39,0,2.5,2.5,0,0,1,.73.88,3.85,3.85,0,0,1,.37,1.19,7.86,7.86,0,0,1,0,2.5,3.71,3.71,0,0,1-.37,1.18,2.41,2.41,0,0,1-.73.88,2.22,2.22,0,0,1-2.39,0,2.44,2.44,0,0,1-.74-.88,4,4,0,0,1-.37-1.18A9.14,9.14,0,0,1,60.54,15.41Zm.84,0c0,.17,0,.37,0,.58s0,.43.08.64a4.61,4.61,0,0,0,.16.64,1.9,1.9,0,0,0,.28.55,1.37,1.37,0,0,0,.42.38,1.16,1.16,0,0,0,.6.15,1.11,1.11,0,0,0,.6-.15,1.3,1.3,0,0,0,.43-.38,2.19,2.19,0,0,0,.28-.55A4.79,4.79,0,0,0,64.48,16c0-.21,0-.41,0-.58s0-.37,0-.58a5,5,0,0,0-.07-.65,4.85,4.85,0,0,0-.16-.63A2.19,2.19,0,0,0,64,13a1.45,1.45,0,0,0-.43-.39,1.21,1.21,0,0,0-.6-.14,1.27,1.27,0,0,0-.6.14,1.55,1.55,0,0,0-.42.39,1.9,1.9,0,0,0-.28.55,4.85,4.85,0,0,0-.16.63c0,.22-.06.44-.08.65S61.38,15.24,61.38,15.41Z"/><path d="M66.1,15.41a9.14,9.14,0,0,1,.1-1.25A4.14,4.14,0,0,1,66.57,13a2.53,2.53,0,0,1,.74-.88,2.27,2.27,0,0,1,2.39,0,2.5,2.5,0,0,1,.73.88,3.85,3.85,0,0,1,.37,1.19,7.86,7.86,0,0,1,0,2.5,3.71,3.71,0,0,1-.37,1.18,2.41,2.41,0,0,1-.73.88,2.22,2.22,0,0,1-2.39,0,2.44,2.44,0,0,1-.74-.88,4,4,0,0,1-.37-1.18A9.14,9.14,0,0,1,66.1,15.41Zm.84,0c0,.17,0,.37,0,.58s0,.43.08.64a4.61,4.61,0,0,0,.16.64,1.9,1.9,0,0,0,.28.55,1.37,1.37,0,0,0,.42.38,1.16,1.16,0,0,0,.6.15,1.11,1.11,0,0,0,.6-.15,1.3,1.3,0,0,0,.43-.38,1.9,1.9,0,0,0,.28-.55A4.79,4.79,0,0,0,70,16c0-.21,0-.41,0-.58s0-.37,0-.58a5,5,0,0,0-.07-.65,4.85,4.85,0,0,0-.16-.63,1.9,1.9,0,0,0-.28-.55,1.45,1.45,0,0,0-.43-.39,1.21,1.21,0,0,0-.6-.14,1.27,1.27,0,0,0-.6.14,1.55,1.55,0,0,0-.42.39,1.9,1.9,0,0,0-.28.55,4.85,4.85,0,0,0-.16.63c0,.22-.06.44-.08.65S66.94,15.24,66.94,15.41Z"/><path d="M74.8,16l0,0a1.46,1.46,0,0,1-.46.16,3,3,0,0,1-.49.05A2.18,2.18,0,0,1,73,16a2,2,0,0,1-.68-.46,2.11,2.11,0,0,1-.45-.7,2.57,2.57,0,0,1-.16-.9,2.27,2.27,0,0,1,.18-.93,2.08,2.08,0,0,1,.5-.7,2.48,2.48,0,0,1,.76-.44,3,3,0,0,1,1.87,0,2.32,2.32,0,0,1,.75.44,2,2,0,0,1,.5.7,2.27,2.27,0,0,1,.18.93,2.52,2.52,0,0,1-.05.57,2.85,2.85,0,0,1-.14.5,3.82,3.82,0,0,1-.21.46c-.08.15-.17.31-.27.46l-1.88,3h-1Zm-.74-.53a1.64,1.64,0,0,0,.6-.11,1.44,1.44,0,0,0,.49-.3,1.31,1.31,0,0,0,.32-.47,1.52,1.52,0,0,0,.12-.62,1.56,1.56,0,0,0-.12-.62,1.35,1.35,0,0,0-.32-.48,1.44,1.44,0,0,0-.49-.3,1.64,1.64,0,0,0-.6-.1,1.72,1.72,0,0,0-.6.1,1.5,1.5,0,0,0-.48.3,1.37,1.37,0,0,0-.33.48,1.56,1.56,0,0,0-.12.62,1.52,1.52,0,0,0,.12.62,1.33,1.33,0,0,0,.33.47,1.5,1.5,0,0,0,.48.3A1.73,1.73,0,0,0,74.06,15.47Z"/><path d="M81.58,12.65H78.69l0,1.91a1.69,1.69,0,0,1,.45-.14l.46,0a2.52,2.52,0,0,1,.93.17,2.13,2.13,0,0,1,1.17,1.23,2.6,2.6,0,0,1,.16.93,2.49,2.49,0,0,1-.18,1,2,2,0,0,1-.51.74,2.18,2.18,0,0,1-.77.48,2.78,2.78,0,0,1-1,.17,2.22,2.22,0,0,1-1.3-.35,2.52,2.52,0,0,1-.79-.94l.84-.32a1.51,1.51,0,0,0,.53.64,1.28,1.28,0,0,0,.79.25,1.46,1.46,0,0,0,.6-.12,1.29,1.29,0,0,0,.48-.33,1.48,1.48,0,0,0,.32-.51,1.78,1.78,0,0,0,.12-.67,1.67,1.67,0,0,0-.13-.69,1.46,1.46,0,0,0-.37-.51,1.69,1.69,0,0,0-.56-.31,2.17,2.17,0,0,0-.69-.1,2.48,2.48,0,0,0-.74.12,4.05,4.05,0,0,0-.7.32l.07-3.68h3.71Z"/><path d="M82.78,15.41a9.14,9.14,0,0,1,.1-1.25A4.14,4.14,0,0,1,83.25,13a2.53,2.53,0,0,1,.74-.88,2.27,2.27,0,0,1,2.39,0,2.5,2.5,0,0,1,.73.88,3.85,3.85,0,0,1,.37,1.19,7.86,7.86,0,0,1,0,2.5,3.71,3.71,0,0,1-.37,1.18,2.41,2.41,0,0,1-.73.88,2.22,2.22,0,0,1-2.39,0,2.44,2.44,0,0,1-.74-.88,4,4,0,0,1-.37-1.18A9.14,9.14,0,0,1,82.78,15.41Zm.84,0c0,.17,0,.37,0,.58s0,.43.08.64a4.61,4.61,0,0,0,.16.64,1.9,1.9,0,0,0,.28.55,1.37,1.37,0,0,0,.42.38,1.16,1.16,0,0,0,.6.15,1.11,1.11,0,0,0,.6-.15,1.3,1.3,0,0,0,.43-.38,1.9,1.9,0,0,0,.28-.55A4.79,4.79,0,0,0,86.72,16c0-.21,0-.41,0-.58s0-.37,0-.58a5,5,0,0,0-.07-.65,4.85,4.85,0,0,0-.16-.63,1.9,1.9,0,0,0-.28-.55,1.45,1.45,0,0,0-.43-.39,1.21,1.21,0,0,0-.6-.14,1.27,1.27,0,0,0-.6.14,1.55,1.55,0,0,0-.42.39,1.9,1.9,0,0,0-.28.55,4.85,4.85,0,0,0-.16.63c0,.22-.06.44-.08.65S83.62,15.24,83.62,15.41Z"/><path d="M88,19.7h5v.5H88Z"/><path d="M96.56,19h-.84V13h0L94.43,14l-.5-.61,1.9-1.54h.73Z"/><path d="M99,18l2.67-2.6a6,6,0,0,0,.44-.45,2.24,2.24,0,0,0,.32-.4,1.59,1.59,0,0,0,.18-.4,1.73,1.73,0,0,0,.06-.47,1.15,1.15,0,0,0-.1-.5,1,1,0,0,0-.27-.38,1.38,1.38,0,0,0-.41-.24,1.7,1.7,0,0,0-.51-.08,1.29,1.29,0,0,0-.89.31,1.47,1.47,0,0,0-.45.82l-.91-.08a2.34,2.34,0,0,1,.27-.77,1.85,1.85,0,0,1,.49-.55,2.3,2.3,0,0,1,.66-.34,3,3,0,0,1,.8-.11,2.78,2.78,0,0,1,.83.12,2.29,2.29,0,0,1,.69.37,1.74,1.74,0,0,1,.47.6,1.84,1.84,0,0,1,.17.83,2.29,2.29,0,0,1-.11.76,2.57,2.57,0,0,1-.31.62,4.51,4.51,0,0,1-.44.54c-.16.17-.34.34-.52.51l-2.18,2v0h3.61V19H99Z"/><path d="M104.14,11.87h.93l1.61,5.88h0l1.74-5.88h.94l1.73,5.88h0l1.64-5.88h.88L111.57,19h-.91l-1.75-6h0l-1.76,6h-.92Z"/><path d="M117.3,11.87h.84v6.3h3.24V19H117.3Z"/><path d="M122.3,11.87h4.45v.78h-3.61v2.22h3.37v.78h-3.37v2.52h3.79V19H122.3Z"/><path d="M128.1,11.87h2.72a3.57,3.57,0,0,1,2.26.79,3.16,3.16,0,0,1,1,1.58,3.9,3.9,0,0,1,.16,1.17,3.78,3.78,0,0,1-.16,1.16,3.07,3.07,0,0,1-.43.91,3.12,3.12,0,0,1-.62.68,3.77,3.77,0,0,1-1.52.71,3.89,3.89,0,0,1-.74.08H128.1Zm.84,6.3h1.6a3.67,3.67,0,0,0,1.13-.16,2.33,2.33,0,0,0,.9-.5,2.12,2.12,0,0,0,.6-.85,3.14,3.14,0,0,0,.22-1.25,3.14,3.14,0,0,0-.22-1.25,2.22,2.22,0,0,0-.6-.86,2.45,2.45,0,0,0-.9-.49,3.67,3.67,0,0,0-1.13-.16h-1.6Z"/><rect class="cls-3" x="54.69" y="41.84" width="189.86" height="189.86"/><circle class="cls-4" cx="149.62" cy="136.72" r="18.95"/><path d="M152.15,164.72h-.68v-4.8h0l-1,.86-.4-.49,1.52-1.23h.59Z"/><path d="M154,161.89a7.07,7.07,0,0,1,.08-1,3.52,3.52,0,0,1,.3-.95,1.91,1.91,0,0,1,.59-.7,1.51,1.51,0,0,1,1-.28,1.54,1.54,0,0,1,1,.28,2,2,0,0,1,.59.7,3.19,3.19,0,0,1,.29.95,6.29,6.29,0,0,1,0,2,3.19,3.19,0,0,1-.29,1,2,2,0,0,1-.59.7,1.54,1.54,0,0,1-1,.28,1.51,1.51,0,0,1-1-.28,1.91,1.91,0,0,1-.59-.7,3.52,3.52,0,0,1-.3-1A7.07,7.07,0,0,1,154,161.89Zm.67,0c0,.14,0,.29,0,.46a4.6,4.6,0,0,0,.06.52,3.18,3.18,0,0,0,.13.51,2,2,0,0,0,.22.44,1.24,1.24,0,0,0,.34.31,1.06,1.06,0,0,0,.48.11,1,1,0,0,0,.48-.11,1,1,0,0,0,.34-.31,1.67,1.67,0,0,0,.23-.44,4.77,4.77,0,0,0,.13-.51l.06-.52c0-.17,0-.32,0-.46s0-.29,0-.46l-.06-.52a4.77,4.77,0,0,0-.13-.51,1.67,1.67,0,0,0-.23-.44,1,1,0,0,0-.34-.31,1,1,0,0,0-.48-.11,1.06,1.06,0,0,0-.48.11,1.24,1.24,0,0,0-.34.31,2,2,0,0,0-.22.44,3.18,3.18,0,0,0-.13.51,4.35,4.35,0,0,0-.06.52C154.63,161.6,154.62,161.75,154.62,161.89Z"/><path d="M158.34,161.89a7.07,7.07,0,0,1,.08-1,3.19,3.19,0,0,1,.29-.95,2,2,0,0,1,.59-.7,1.54,1.54,0,0,1,1-.28,1.49,1.49,0,0,1,1,.28,1.91,1.91,0,0,1,.59.7,3.2,3.2,0,0,1,.3.95,6.29,6.29,0,0,1,0,2,3.2,3.2,0,0,1-.3,1,1.91,1.91,0,0,1-.59.7,1.49,1.49,0,0,1-1,.28,1.54,1.54,0,0,1-1-.28,2,2,0,0,1-.59-.7,3.19,3.19,0,0,1-.29-1A7.07,7.07,0,0,1,158.34,161.89Zm.67,0c0,.14,0,.29,0,.46a4.6,4.6,0,0,0,.06.52,4.7,4.7,0,0,0,.12.51,1.67,1.67,0,0,0,.23.44,1,1,0,0,0,.34.31,1,1,0,0,0,.48.11,1.06,1.06,0,0,0,.48-.11,1.24,1.24,0,0,0,.34-.31,1.65,1.65,0,0,0,.22-.44,3.18,3.18,0,0,0,.13-.51,4.6,4.6,0,0,0,.06-.52c0-.17,0-.32,0-.46s0-.29,0-.46a4.35,4.35,0,0,0-.06-.52,3.18,3.18,0,0,0-.13-.51,1.65,1.65,0,0,0-.22-.44,1.24,1.24,0,0,0-.34-.31,1.06,1.06,0,0,0-.48-.11,1,1,0,0,0-.48.11,1,1,0,0,0-.34.31,1.67,1.67,0,0,0-.23.44,4.7,4.7,0,0,0-.12.51,4.35,4.35,0,0,0-.06.52C159,161.6,159,161.75,159,161.89Z"/><circle class="cls-4" cx="149.62" cy="136.72" r="37.91"/><path d="M149.67,182.91l2.13-2.08.35-.36a2.44,2.44,0,0,0,.26-.32,1.3,1.3,0,0,0,.14-.32,1.13,1.13,0,0,0,0-.38.87.87,0,0,0-.08-.4.84.84,0,0,0-.22-.3,1.13,1.13,0,0,0-.73-.26,1,1,0,0,0-.71.25,1.11,1.11,0,0,0-.36.66l-.73-.07a1.91,1.91,0,0,1,.21-.61,1.52,1.52,0,0,1,.39-.44,1.71,1.71,0,0,1,.54-.27,2.15,2.15,0,0,1,.64-.09,2.07,2.07,0,0,1,.66.1,1.53,1.53,0,0,1,.55.29,1.35,1.35,0,0,1,.37.48,1.39,1.39,0,0,1,.14.66,1.91,1.91,0,0,1-.09.61,1.8,1.8,0,0,1-.25.5,2.86,2.86,0,0,1-.35.43l-.41.41L150.43,183h2.88v.63h-3.64Z"/><path d="M154,180.84a7.07,7.07,0,0,1,.08-1,3.45,3.45,0,0,1,.3-.94,1.94,1.94,0,0,1,.59-.71,1.57,1.57,0,0,1,1-.27,1.6,1.6,0,0,1,1,.27,2,2,0,0,1,.59.71,3.13,3.13,0,0,1,.29.94,5.85,5.85,0,0,1,.08,1,5.77,5.77,0,0,1-.08,1,3.1,3.1,0,0,1-.29.95,2,2,0,0,1-.59.71,1.6,1.6,0,0,1-1,.27,1.57,1.57,0,0,1-1-.27,1.94,1.94,0,0,1-.59-.71,3.41,3.41,0,0,1-.3-.95A7,7,0,0,1,154,180.84Zm.67,0c0,.14,0,.3,0,.47a4.43,4.43,0,0,0,.06.51,2.72,2.72,0,0,0,.13.51,1.81,1.81,0,0,0,.22.44,1.24,1.24,0,0,0,.34.31,1,1,0,0,0,.48.12.9.9,0,0,0,.48-.12,1,1,0,0,0,.34-.31,1.53,1.53,0,0,0,.23-.44,3.8,3.8,0,0,0,.13-.51l.06-.51c0-.17,0-.33,0-.47s0-.29,0-.46l-.06-.52a4.07,4.07,0,0,0-.13-.5,1.41,1.41,0,0,0-.23-.44,1,1,0,0,0-.34-.31.9.9,0,0,0-.48-.12,1,1,0,0,0-.48.12,1.24,1.24,0,0,0-.34.31,1.65,1.65,0,0,0-.22.44,2.83,2.83,0,0,0-.13.5,4.88,4.88,0,0,0-.06.52C154.63,180.55,154.62,180.71,154.62,180.84Z"/><path d="M158.34,180.84a7.07,7.07,0,0,1,.08-1,3.13,3.13,0,0,1,.29-.94,2,2,0,0,1,.59-.71,1.6,1.6,0,0,1,1-.27,1.55,1.55,0,0,1,1,.27,1.94,1.94,0,0,1,.59.71,3.14,3.14,0,0,1,.3.94,7.07,7.07,0,0,1,.08,1,7,7,0,0,1-.08,1,3.11,3.11,0,0,1-.3.95,1.94,1.94,0,0,1-.59.71,1.55,1.55,0,0,1-1,.27,1.6,1.6,0,0,1-1-.27,2,2,0,0,1-.59-.71,3.1,3.1,0,0,1-.29-.95A7,7,0,0,1,158.34,180.84Zm.67,0c0,.14,0,.3,0,.47a4.43,4.43,0,0,0,.06.51,3.81,3.81,0,0,0,.12.51,1.53,1.53,0,0,0,.23.44,1,1,0,0,0,.34.31.9.9,0,0,0,.48.12,1,1,0,0,0,.48-.12,1.24,1.24,0,0,0,.34-.31,1.51,1.51,0,0,0,.22-.44,2.72,2.72,0,0,0,.13-.51,4.43,4.43,0,0,0,.06-.51c0-.17,0-.33,0-.47s0-.29,0-.46a4.88,4.88,0,0,0-.06-.52,2.83,2.83,0,0,0-.13-.5,1.4,1.4,0,0,0-.22-.44,1.24,1.24,0,0,0-.34-.31,1,1,0,0,0-.48-.12.9.9,0,0,0-.48.12,1,1,0,0,0-.34.31,1.41,1.41,0,0,0-.23.44,4.05,4.05,0,0,0-.12.5,4.88,4.88,0,0,0-.06.52C159,180.55,159,180.71,159,180.84Z"/><circle class="cls-4" cx="149.62" cy="136.72" r="56.92"/><path d="M150.9,199.42h.21l.43,0a1.23,1.23,0,0,0,.42-.14.89.89,0,0,0,.31-.3,1,1,0,0,0,.12-.51.94.94,0,0,0-.26-.69,1,1,0,0,0-.7-.25,1.18,1.18,0,0,0-.63.16,1.12,1.12,0,0,0-.41.47l-.65-.25a1.43,1.43,0,0,1,.65-.72,2,2,0,0,1,1-.24,2.25,2.25,0,0,1,.64.1,1.54,1.54,0,0,1,.54.28,1.28,1.28,0,0,1,.37.46,1.44,1.44,0,0,1,.14.64,1.32,1.32,0,0,1-.27.81,1.34,1.34,0,0,1-.7.49v0a1.44,1.44,0,0,1,.48.17,1.61,1.61,0,0,1,.37.32,1.47,1.47,0,0,1,.23.43,1.64,1.64,0,0,1,.08.5,1.49,1.49,0,0,1-.56,1.22,1.73,1.73,0,0,1-.6.32,2.34,2.34,0,0,1-.71.1,2.15,2.15,0,0,1-1.13-.28,1.65,1.65,0,0,1-.7-.91l.68-.23a1,1,0,0,0,1.15.84,1,1,0,0,0,.44-.08,1.25,1.25,0,0,0,.37-.22,1.36,1.36,0,0,0,.25-.36,1.06,1.06,0,0,0,.09-.45.93.93,0,0,0-.13-.52,1,1,0,0,0-.32-.34,1.7,1.7,0,0,0-.46-.18,2.29,2.29,0,0,0-.52-.05h-.21Z"/><path d="M154,199.85a7.07,7.07,0,0,1,.08-1,3.52,3.52,0,0,1,.3-.95,1.91,1.91,0,0,1,.59-.7,1.57,1.57,0,0,1,1-.28,1.61,1.61,0,0,1,1,.28,2,2,0,0,1,.59.7,3.19,3.19,0,0,1,.29.95,6.29,6.29,0,0,1,0,2,3.19,3.19,0,0,1-.29,1,2,2,0,0,1-.59.7,1.54,1.54,0,0,1-1,.28,1.51,1.51,0,0,1-1-.28,1.91,1.91,0,0,1-.59-.7,3.52,3.52,0,0,1-.3-1A7.07,7.07,0,0,1,154,199.85Zm.67,0c0,.14,0,.3,0,.47a4.43,4.43,0,0,0,.06.51,3.18,3.18,0,0,0,.13.51,2,2,0,0,0,.22.44,1.24,1.24,0,0,0,.34.31,1,1,0,0,0,.48.11.9.9,0,0,0,.48-.11,1,1,0,0,0,.34-.31,1.67,1.67,0,0,0,.23-.44,4.77,4.77,0,0,0,.13-.51l.06-.51c0-.17,0-.33,0-.47s0-.29,0-.46l-.06-.52a4.77,4.77,0,0,0-.13-.51,1.67,1.67,0,0,0-.23-.44,1,1,0,0,0-.34-.3.9.9,0,0,0-.48-.12,1,1,0,0,0-.48.12,1.21,1.21,0,0,0-.34.3,2,2,0,0,0-.22.44,3.18,3.18,0,0,0-.13.51,4.6,4.6,0,0,0-.06.52C154.63,199.56,154.62,199.71,154.62,199.85Z"/><path d="M158.34,199.85a7.07,7.07,0,0,1,.08-1,3.19,3.19,0,0,1,.29-.95,2,2,0,0,1,.59-.7,1.61,1.61,0,0,1,1-.28,1.55,1.55,0,0,1,1,.28,1.91,1.91,0,0,1,.59.7,3.2,3.2,0,0,1,.3.95,6.29,6.29,0,0,1,0,2,3.2,3.2,0,0,1-.3,1,1.91,1.91,0,0,1-.59.7,1.49,1.49,0,0,1-1,.28,1.54,1.54,0,0,1-1-.28,2,2,0,0,1-.59-.7,3.19,3.19,0,0,1-.29-1A7.07,7.07,0,0,1,158.34,199.85Zm.67,0c0,.14,0,.3,0,.47a4.43,4.43,0,0,0,.06.51,4.7,4.7,0,0,0,.12.51,1.67,1.67,0,0,0,.23.44,1,1,0,0,0,.34.31.9.9,0,0,0,.48.11,1,1,0,0,0,.48-.11,1.24,1.24,0,0,0,.34-.31,1.65,1.65,0,0,0,.22-.44,3.18,3.18,0,0,0,.13-.51,4.43,4.43,0,0,0,.06-.51c0-.17,0-.33,0-.47s0-.29,0-.46a4.6,4.6,0,0,0-.06-.52,3.18,3.18,0,0,0-.13-.51,1.65,1.65,0,0,0-.22-.44,1.21,1.21,0,0,0-.34-.3,1,1,0,0,0-.48-.12.9.9,0,0,0-.48.12,1,1,0,0,0-.34.3,1.67,1.67,0,0,0-.23.44,4.7,4.7,0,0,0-.12.51,4.6,4.6,0,0,0-.06.52C159,199.56,159,199.71,159,199.85Z"/><circle class="cls-4" cx="149.62" cy="136.72" r="75.92"/><path d="M152.62,219.77h.81v.63h-.81v1.29H152V220.4h-2.4v-.75l2.24-3.62h.83Zm-.67-3h0l-1.81,3H152Z"/><path d="M154,218.86a7.07,7.07,0,0,1,.08-1,3.52,3.52,0,0,1,.3-1,1.91,1.91,0,0,1,.59-.7,1.51,1.51,0,0,1,1-.28,1.54,1.54,0,0,1,1,.28,2,2,0,0,1,.59.7,3.19,3.19,0,0,1,.29,1,6.29,6.29,0,0,1,0,2,3.19,3.19,0,0,1-.29.95,2,2,0,0,1-.59.7,1.54,1.54,0,0,1-1,.28,1.51,1.51,0,0,1-1-.28,1.91,1.91,0,0,1-.59-.7,3.52,3.52,0,0,1-.3-.95A7.07,7.07,0,0,1,154,218.86Zm.67,0c0,.14,0,.29,0,.46a4.6,4.6,0,0,0,.06.52,3.18,3.18,0,0,0,.13.51,2,2,0,0,0,.22.44,1.24,1.24,0,0,0,.34.31,1.06,1.06,0,0,0,.48.11,1,1,0,0,0,.48-.11,1,1,0,0,0,.34-.31,1.67,1.67,0,0,0,.23-.44,4.77,4.77,0,0,0,.13-.51l.06-.52c0-.17,0-.32,0-.46s0-.29,0-.46l-.06-.52a4.77,4.77,0,0,0-.13-.51,1.67,1.67,0,0,0-.23-.44,1,1,0,0,0-.34-.31,1,1,0,0,0-.48-.11,1.06,1.06,0,0,0-.48.11,1.24,1.24,0,0,0-.34.31,2,2,0,0,0-.22.44,3.18,3.18,0,0,0-.13.51,4.35,4.35,0,0,0-.06.52C154.63,218.57,154.62,218.72,154.62,218.86Z"/><path d="M158.34,218.86a7.07,7.07,0,0,1,.08-1,3.19,3.19,0,0,1,.29-1,2,2,0,0,1,.59-.7,1.54,1.54,0,0,1,1-.28,1.49,1.49,0,0,1,1,.28,1.91,1.91,0,0,1,.59.7,3.2,3.2,0,0,1,.3,1,6.29,6.29,0,0,1,0,2,3.2,3.2,0,0,1-.3.95,1.91,1.91,0,0,1-.59.7,1.49,1.49,0,0,1-1,.28,1.54,1.54,0,0,1-1-.28,2,2,0,0,1-.59-.7,3.19,3.19,0,0,1-.29-.95A7.07,7.07,0,0,1,158.34,218.86Zm.67,0c0,.14,0,.29,0,.46a4.6,4.6,0,0,0,.06.52,4.7,4.7,0,0,0,.12.51,1.67,1.67,0,0,0,.23.44,1,1,0,0,0,.34.31,1,1,0,0,0,.48.11,1.06,1.06,0,0,0,.48-.11,1.24,1.24,0,0,0,.34-.31,1.65,1.65,0,0,0,.22-.44,3.18,3.18,0,0,0,.13-.51,4.6,4.6,0,0,0,.06-.52c0-.17,0-.32,0-.46s0-.29,0-.46a4.35,4.35,0,0,0-.06-.52,3.18,3.18,0,0,0-.13-.51,1.65,1.65,0,0,0-.22-.44,1.24,1.24,0,0,0-.34-.31,1.06,1.06,0,0,0-.48-.11,1,1,0,0,0-.48.11,1,1,0,0,0-.34.31,1.67,1.67,0,0,0-.23.44,4.7,4.7,0,0,0-.12.51,4.35,4.35,0,0,0-.06.52C159,218.57,159,218.72,159,218.86Z"/><circle class="cls-4" cx="149.62" cy="136.72" r="94.93"/><line class="cls-4" x1="54.69" y1="136.77" x2="244.6" y2="136.77"/><line class="cls-4" x1="149.62" y1="231.7" x2="149.62" y2="41.79"/><line class="cls-4" x1="94.86" y1="41.79" x2="204.43" y2="231.7"/><line class="cls-4" x1="94.86" y1="231.7" x2="204.43" y2="41.79"/><line class="cls-4" x1="55.08" y1="81.7" x2="245" y2="191.27"/><line class="cls-4" x1="54.69" y1="191.55" x2="244.6" y2="81.99"/><line class="cls-1" x1="149.62" y1="227.49" x2="151.18" y2="227.44"/><line class="cls-1" x1="151.18" y1="227.44" x2="152.8" y2="227.22"/><line class="cls-1" x1="152.8" y1="227.22" x2="154.37" y2="227.06"/><line class="cls-1" x1="154.37" y1="227.06" x2="155.88" y2="226.63"/><line class="cls-1" x1="155.88" y1="226.63" x2="157.45" y2="226.25"/><line class="cls-1" x1="157.45" y1="226.25" x2="158.96" y2="225.66"/><line class="cls-1" x1="158.96" y1="225.66" x2="160.47" y2="225.06"/><line class="cls-1" x1="160.47" y1="225.06" x2="161.93" y2="224.31"/><line class="cls-1" x1="161.93" y1="224.31" x2="163.39" y2="223.5"/><line class="cls-1" x1="163.39" y1="223.5" x2="164.74" y2="222.63"/><line class="cls-1" x1="164.74" y1="222.63" x2="166.09" y2="221.55"/><line class="cls-1" x1="166.09" y1="221.55" x2="167.44" y2="220.53"/><line class="cls-1" x1="167.44" y1="220.53" x2="168.68" y2="219.34"/><line class="cls-1" x1="168.68" y1="219.34" x2="169.92" y2="218.15"/><line class="cls-1" x1="169.92" y1="218.15" x2="171.06" y2="216.8"/><line class="cls-1" x1="171.06" y1="216.8" x2="172.19" y2="215.45"/><line class="cls-1" x1="172.19" y1="215.45" x2="173.27" y2="214.05"/><line class="cls-1" x1="173.27" y1="214.05" x2="174.24" y2="212.53"/><line class="cls-1" x1="174.24" y1="212.53" x2="175.21" y2="210.97"/><line class="cls-1" x1="175.21" y1="210.97" x2="176.08" y2="209.4"/><line class="cls-1" x1="176.08" y1="209.4" x2="176.89" y2="207.73"/><line class="cls-1" x1="176.89" y1="207.73" x2="177.64" y2="206.05"/><line class="cls-1" x1="177.64" y1="206.05" x2="178.35" y2="204.33"/><line class="cls-1" x1="178.35" y1="204.33" x2="178.94" y2="202.6"/><line class="cls-1" x1="178.94" y1="202.6" x2="179.48" y2="200.76"/><line class="cls-1" x1="179.48" y1="200.76" x2="180.02" y2="199.03"/><line class="cls-1" x1="180.02" y1="199.03" x2="180.45" y2="197.2"/><line class="cls-1" x1="180.45" y1="197.2" x2="180.83" y2="195.36"/><line class="cls-1" x1="180.83" y1="195.36" x2="181.1" y2="193.53"/><line class="cls-1" x1="181.1" y1="193.53" x2="181.37" y2="191.69"/><line class="cls-1" x1="181.37" y1="191.69" x2="181.53" y2="189.85"/><line class="cls-1" x1="181.53" y1="189.85" x2="181.69" y2="188.02"/><line class="cls-1" x1="181.69" y1="188.02" x2="181.75" y2="186.18"/><line class="cls-1" x1="181.75" y1="186.18" x2="181.8" y2="184.4"/><line class="cls-1" x1="181.8" y1="184.4" x2="181.75" y2="182.56"/><line class="cls-1" x1="181.75" y1="182.56" x2="181.64" y2="180.78"/><line class="cls-1" x1="181.64" y1="180.78" x2="181.53" y2="179.05"/><line class="cls-1" x1="181.53" y1="179.05" x2="181.32" y2="177.33"/><line class="cls-1" x1="181.32" y1="177.33" x2="181.1" y2="175.6"/><line class="cls-1" x1="181.1" y1="175.6" x2="180.88" y2="173.92"/><line class="cls-1" x1="180.88" y1="173.92" x2="180.56" y2="172.3"/><line class="cls-1" x1="180.56" y1="172.3" x2="180.24" y2="170.68"/><line class="cls-1" x1="180.24" y1="170.68" x2="179.86" y2="169.12"/><line class="cls-1" x1="179.86" y1="169.12" x2="179.43" y2="167.61"/><line class="cls-1" x1="179.43" y1="167.61" x2="178.99" y2="166.09"/><line class="cls-1" x1="178.99" y1="166.09" x2="178.56" y2="164.64"/><line class="cls-1" x1="178.56" y1="164.64" x2="178.02" y2="163.23"/><line class="cls-1" x1="178.02" y1="163.23" x2="177.54" y2="161.83"/><line class="cls-1" x1="177.54" y1="161.83" x2="177" y2="160.53"/><line class="cls-1" x1="177" y1="160.53" x2="176.46" y2="159.24"/><line class="cls-1" x1="176.46" y1="159.24" x2="175.86" y2="157.94"/><line class="cls-1" x1="175.86" y1="157.94" x2="175.27" y2="156.75"/><line class="cls-1" x1="175.27" y1="156.75" x2="174.62" y2="155.56"/><line class="cls-1" x1="174.62" y1="155.56" x2="174.03" y2="154.43"/><line class="cls-1" x1="174.03" y1="154.43" x2="173.32" y2="153.35"/><line class="cls-1" x1="173.32" y1="153.35" x2="172.68" y2="152.27"/><line class="cls-1" x1="172.68" y1="152.27" x2="172.03" y2="151.3"/><line class="cls-1" x1="172.03" y1="151.3" x2="171.33" y2="150.27"/><line class="cls-1" x1="171.33" y1="150.27" x2="170.62" y2="149.35"/><line class="cls-1" x1="170.62" y1="149.35" x2="169.92" y2="148.44"/><line class="cls-1" x1="169.92" y1="148.44" x2="169.22" y2="147.57"/><line class="cls-1" x1="169.22" y1="147.57" x2="168.52" y2="146.76"/><line class="cls-1" x1="168.52" y1="146.76" x2="167.82" y2="146.01"/><line class="cls-1" x1="167.82" y1="146.01" x2="167.06" y2="145.25"/><line class="cls-1" x1="167.06" y1="145.25" x2="166.36" y2="144.49"/><line class="cls-1" x1="166.36" y1="144.49" x2="165.6" y2="143.85"/><line class="cls-1" x1="165.6" y1="143.85" x2="164.9" y2="143.2"/><line class="cls-1" x1="164.9" y1="143.2" x2="164.14" y2="142.6"/><line class="cls-1" x1="164.14" y1="142.6" x2="163.39" y2="142.01"/><line class="cls-1" x1="163.39" y1="142.01" x2="162.69" y2="141.47"/><line class="cls-1" x1="162.69" y1="141.47" x2="161.93" y2="140.98"/><line class="cls-1" x1="161.93" y1="140.98" x2="161.23" y2="140.5"/><line class="cls-1" x1="161.23" y1="140.5" x2="160.47" y2="140.07"/><line class="cls-1" x1="160.47" y1="140.07" x2="159.77" y2="139.63"/><line class="cls-1" x1="159.77" y1="139.63" x2="159.07" y2="139.26"/><line class="cls-1" x1="159.07" y1="139.26" x2="158.37" y2="138.88"/><line class="cls-1" x1="158.37" y1="138.88" x2="157.72" y2="138.61"/><line class="cls-1" x1="157.72" y1="138.61" x2="157.07" y2="138.28"/><line class="cls-1" x1="157.07" y1="138.28" x2="156.42" y2="138.01"/><line class="cls-1" x1="156.42" y1="138.01" x2="155.77" y2="137.8"/><line class="cls-1" x1="155.77" y1="137.8" x2="155.18" y2="137.58"/><line class="cls-1" x1="155.18" y1="137.58" x2="154.59" y2="137.42"/><line class="cls-1" x1="154.59" y1="137.42" x2="153.99" y2="137.26"/><line class="cls-1" x1="153.99" y1="137.26" x2="153.45" y2="137.1"/><line class="cls-1" x1="153.45" y1="137.1" x2="152.97" y2="136.99"/><line class="cls-1" x1="152.97" y1="136.99" x2="152.48" y2="136.93"/><line class="cls-1" x1="152.48" y1="136.93" x2="152.05" y2="136.83"/><line class="cls-1" x1="152.05" y1="136.83" x2="151.67" y2="136.77"/><line class="cls-1" x1="151.67" y1="136.77" x2="151.35" y2="136.77"/><line class="cls-1" x1="151.35" y1="136.77" x2="151.08" y2="136.77"/><line class="cls-1" x1="151.08" y1="136.77" x2="149.62" y2="136.77"/><line class="cls-1" x1="149.62" y1="136.77" x2="149.62" y2="136.77"/><line class="cls-1" x1="149.62" y1="136.77" x2="149.62" y2="136.77"/><line class="cls-1" x1="149.62" y1="136.77" x2="149.62" y2="136.77"/><line class="cls-1" x1="149.62" y1="136.77" x2="149.62" y2="136.77"/><line class="cls-1" x1="149.62" y1="136.77" x2="149.62" y2="136.77"/><line class="cls-1" x1="149.62" y1="136.77" x2="149.62" y2="136.77"/><line class="cls-1" x1="149.62" y1="136.77" x2="149.62" y2="136.77"/><line class="cls-1" x1="149.62" y1="136.77" x2="149.62" y2="136.77"/><line class="cls-1" x1="149.62" y1="136.77" x2="149.62" y2="136.77"/><line class="cls-1" x1="149.62" y1="136.77" x2="149.62" y2="136.77"/><line class="cls-1" x1="149.62" y1="136.77" x2="149.62" y2="136.77"/><line class="cls-1" x1="149.62" y1="136.77" x2="149.62" y2="136.77"/><line class="cls-1" x1="149.62" y1="136.77" x2="149.62" y2="136.77"/><line class="cls-1" x1="149.62" y1="136.77" x2="149.62" y2="136.77"/><line class="cls-1" x1="149.62" y1="136.77" x2="149.62" y2="136.77"/><line class="cls-1" x1="149.62" y1="136.77" x2="149.62" y2="136.77"/><line class="cls-1" x1="149.62" y1="136.77" x2="149.62" y2="136.77"/><line class="cls-1" x1="149.62" y1="136.77" x2="149.62" y2="136.77"/><line class="cls-1" x1="149.62" y1="136.77" x2="149.62" y2="136.77"/><line class="cls-1" x1="149.62" y1="136.77" x2="149.62" y2="136.77"/><line class="cls-1" x1="149.62" y1="136.77" x2="149.62" y2="136.77"/><line class="cls-1" x1="149.62" y1="136.77" x2="149.62" y2="136.77"/><line class="cls-1" x1="149.62" y1="136.77" x2="149.62" y2="136.77"/><line class="cls-1" x1="149.62" y1="136.77" x2="149.62" y2="136.77"/><line class="cls-1" x1="149.62" y1="136.77" x2="149.62" y2="136.77"/><line class="cls-1" x1="149.62" y1="136.77" x2="149.62" y2="136.77"/><line class="cls-1" x1="149.62" y1="136.77" x2="149.62" y2="136.77"/><line class="cls-1" x1="149.62" y1="136.77" x2="149.62" y2="136.77"/><line class="cls-1" x1="149.62" y1="136.77" x2="149.62" y2="136.77"/><line class="cls-1" x1="149.62" y1="136.77" x2="149.62" y2="136.77"/><line class="cls-1" x1="149.62" y1="136.77" x2="149.62" y2="136.77"/><line class="cls-1" x1="149.62" y1="136.77" x2="149.62" y2="136.77"/><line class="cls-1" x1="149.62" y1="136.77" x2="149.62" y2="136.77"/><line class="cls-1" x1="149.62" y1="136.77" x2="149.62" y2="136.77"/><line class="cls-1" x1="149.62" y1="136.77" x2="149.62" y2="136.77"/><line class="cls-1" x1="149.62" y1="136.77" x2="149.62" y2="136.77"/><line class="cls-1" x1="149.62" y1="136.77" x2="149.62" y2="136.77"/><line class="cls-1" x1="149.62" y1="136.77" x2="149.62" y2="136.77"/><line class="cls-1" x1="149.62" y1="136.77" x2="149.62" y2="136.77"/><line class="cls-1" x1="149.62" y1="136.77" x2="149.62" y2="136.77"/><line class="cls-1" x1="149.62" y1="136.77" x2="149.62" y2="136.77"/><line class="cls-1" x1="149.62" y1="136.77" x2="149.62" y2="136.77"/><line class="cls-1" x1="149.62" y1="136.77" x2="149.62" y2="136.77"/><line class="cls-1" x1="149.62" y1="136.77" x2="149.62" y2="136.77"/><line class="cls-1" x1="149.62" y1="136.77" x2="149.62" y2="136.77"/><line class="cls-1" x1="149.62" y1="136.77" x2="149.62" y2="136.77"/><line class="cls-1" x1="149.62" y1="136.77" x2="149.62" y2="136.77"/><line class="cls-1" x1="149.62" y1="136.77" x2="149.62" y2="136.77"/><line class="cls-1" x1="149.62" y1="136.77" x2="149.62" y2="136.77"/><line class="cls-1" x1="149.62" y1="136.77" x2="149.62" y2="136.77"/><line class="cls-1" x1="149.62" y1="136.77" x2="149.62" y2="136.77"/><line class="cls-1" x1="149.62" y1="136.77" x2="149.62" y2="136.77"/><line class="cls-1" x1="149.62" y1="136.77" x2="149.62" y2="136.77"/><line class="cls-1" x1="149.62" y1="136.77" x2="149.62" y2="136.77"/><line class="cls-1" x1="149.62" y1="136.77" x2="149.62" y2="136.77"/><line class="cls-1" x1="149.62" y1="136.77" x2="149.62" y2="136.77"/><line class="cls-1" x1="149.62" y1="136.77" x2="149.62" y2="136.77"/><line class="cls-1" x1="149.62" y1="136.77" x2="149.62" y2="136.77"/><line class="cls-1" x1="149.62" y1="136.77" x2="149.62" y2="136.77"/><line class="cls-1" x1="149.62" y1="136.77" x2="149.62" y2="136.77"/><line class="cls-1" x1="149.62" y1="136.77" x2="149.62" y2="136.77"/><line class="cls-1" x1="149.62" y1="136.77" x2="149.62" y2="136.77"/><line class="cls-1" x1="149.62" y1="136.77" x2="149.62" y2="136.77"/><line class="cls-1" x1="149.62" y1="136.77" x2="149.62" y2="136.77"/><line class="cls-1" x1="149.62" y1="136.77" x2="149.62" y2="136.77"/><line class="cls-1" x1="149.62" y1="136.77" x2="149.62" y2="136.77"/><line class="cls-1" x1="149.62" y1="136.77" x2="149.62" y2="136.77"/><line class="cls-1" x1="149.62" y1="136.77" x2="149.62" y2="136.77"/><line class="cls-1" x1="149.62" y1="136.77" x2="149.62" y2="136.77"/><line class="cls-1" x1="149.62" y1="136.77" x2="149.62" y2="136.77"/><line class="cls-1" x1="149.62" y1="136.77" x2="149.62" y2="136.77"/><line class="cls-1" x1="149.62" y1="136.77" x2="149.62" y2="136.77"/><line class="cls-1" x1="149.62" y1="136.77" x2="149.62" y2="136.77"/><line class="cls-1" x1="149.62" y1="136.77" x2="149.62" y2="136.77"/><line class="cls-1" x1="149.62" y1="136.77" x2="149.62" y2="136.77"/><line class="cls-1" x1="149.62" y1="136.77" x2="149.62" y2="136.77"/><line class="cls-1" x1="149.62" y1="136.77" x2="149.62" y2="136.77"/><line class="cls-1" x1="149.62" y1="136.77" x2="149.62" y2="136.77"/><line class="cls-1" x1="149.62" y1="136.77" x2="149.62" y2="136.77"/><line class="cls-1" x1="149.62" y1="136.77" x2="149.62" y2="136.77"/><line class="cls-1" x1="149.62" y1="136.77" x2="149.62" y2="136.77"/><line class="cls-1" x1="149.62" y1="136.77" x2="149.62" y2="136.77"/><line class="cls-1" x1="149.62" y1="136.77" x2="149.62" y2="136.77"/><line class="cls-1" x1="149.62" y1="136.77" x2="149.62" y2="136.77"/><line class="cls-1" x1="149.62" y1="136.77" x2="149.62" y2="136.77"/><line class="cls-1" x1="149.62" y1="136.77" x2="149.62" y2="136.77"/><line class="cls-1" x1="149.62" y1="136.77" x2="149.62" y2="136.77"/><line class="cls-1" x1="149.62" y1="136.77" x2="149.62" y2="136.77"/><line class="cls-1" x1="149.62" y1="136.77" x2="149.62" y2="136.77"/><line class="cls-1" x1="149.62" y1="227.49" x2="148.11" y2="227.44"/><line class="cls-1" x1="148.11" y1="227.44" x2="146.49" y2="227.22"/><line class="cls-1" x1="146.49" y1="227.22" x2="144.92" y2="227.06"/><line class="cls-1" x1="144.92" y1="227.06" x2="143.41" y2="226.63"/><line class="cls-1" x1="143.41" y1="226.63" x2="141.84" y2="226.25"/><line class="cls-1" x1="141.84" y1="226.25" x2="140.33" y2="225.66"/><line class="cls-1" x1="140.33" y1="225.66" x2="138.82" y2="225.06"/><line class="cls-1" x1="138.82" y1="225.06" x2="137.36" y2="224.31"/><line class="cls-1" x1="137.36" y1="224.31" x2="135.9" y2="223.5"/><line class="cls-1" x1="135.9" y1="223.5" x2="134.55" y2="222.63"/><line class="cls-1" x1="134.55" y1="222.63" x2="133.2" y2="221.55"/><line class="cls-1" x1="133.2" y1="221.55" x2="131.85" y2="220.53"/><line class="cls-1" x1="131.85" y1="220.53" x2="130.61" y2="219.34"/><line class="cls-1" x1="130.61" y1="219.34" x2="129.37" y2="218.15"/><line class="cls-1" x1="129.37" y1="218.15" x2="128.23" y2="216.8"/><line class="cls-1" x1="128.23" y1="216.8" x2="127.1" y2="215.45"/><line class="cls-1" x1="127.1" y1="215.45" x2="126.02" y2="214.05"/><line class="cls-1" x1="126.02" y1="214.05" x2="125.05" y2="212.53"/><line class="cls-1" x1="125.05" y1="212.53" x2="124.08" y2="210.97"/><line class="cls-1" x1="124.08" y1="210.97" x2="123.21" y2="209.4"/><line class="cls-1" x1="123.21" y1="209.4" x2="122.4" y2="207.73"/><line class="cls-1" x1="122.4" y1="207.73" x2="121.65" y2="206.05"/><line class="cls-1" x1="121.65" y1="206.05" x2="120.94" y2="204.33"/><line class="cls-1" x1="120.94" y1="204.33" x2="120.35" y2="202.6"/><line class="cls-1" x1="120.35" y1="202.6" x2="119.81" y2="200.76"/><line class="cls-1" x1="119.81" y1="200.76" x2="119.27" y2="199.03"/><line class="cls-1" x1="119.27" y1="199.03" x2="118.84" y2="197.2"/><line class="cls-1" x1="118.84" y1="197.2" x2="118.46" y2="195.36"/><line class="cls-1" x1="118.46" y1="195.36" x2="118.19" y2="193.53"/><line class="cls-1" x1="118.19" y1="193.53" x2="117.92" y2="191.69"/><line class="cls-1" x1="117.92" y1="191.69" x2="117.76" y2="189.85"/><line class="cls-1" x1="117.76" y1="189.85" x2="117.6" y2="188.02"/><line class="cls-1" x1="117.6" y1="188.02" x2="117.54" y2="186.18"/><line class="cls-1" x1="117.54" y1="186.18" x2="117.49" y2="184.4"/><line class="cls-1" x1="117.49" y1="184.4" x2="117.54" y2="182.56"/><line class="cls-1" x1="117.54" y1="182.56" x2="117.65" y2="180.78"/><line class="cls-1" x1="117.65" y1="180.78" x2="117.76" y2="179.05"/><line class="cls-1" x1="117.76" y1="179.05" x2="117.97" y2="177.33"/><line class="cls-1" x1="117.97" y1="177.33" x2="118.19" y2="175.6"/><line class="cls-1" x1="118.19" y1="175.6" x2="118.41" y2="173.92"/><line class="cls-1" x1="118.41" y1="173.92" x2="118.73" y2="172.3"/><line class="cls-1" x1="118.73" y1="172.3" x2="119.05" y2="170.68"/><line class="cls-1" x1="119.05" y1="170.68" x2="119.43" y2="169.12"/><line class="cls-1" x1="119.43" y1="169.12" x2="119.86" y2="167.61"/><line class="cls-1" x1="119.86" y1="167.61" x2="120.3" y2="166.09"/><line class="cls-1" x1="120.3" y1="166.09" x2="120.73" y2="164.64"/><line class="cls-1" x1="120.73" y1="164.64" x2="121.27" y2="163.23"/><line class="cls-1" x1="121.27" y1="163.23" x2="121.75" y2="161.83"/><line class="cls-1" x1="121.75" y1="161.83" x2="122.29" y2="160.53"/><line class="cls-1" x1="122.29" y1="160.53" x2="122.83" y2="159.24"/><line class="cls-1" x1="122.83" y1="159.24" x2="123.43" y2="157.94"/><line class="cls-1" x1="123.43" y1="157.94" x2="124.02" y2="156.75"/><line class="cls-1" x1="124.02" y1="156.75" x2="124.67" y2="155.56"/><line class="cls-1" x1="124.67" y1="155.56" x2="125.26" y2="154.43"/><line class="cls-1" x1="125.26" y1="154.43" x2="125.97" y2="153.35"/><line class="cls-1" x1="125.97" y1="153.35" x2="126.61" y2="152.27"/><line class="cls-1" x1="126.61" y1="152.27" x2="127.26" y2="151.3"/><line class="cls-1" x1="127.26" y1="151.3" x2="127.96" y2="150.27"/><line class="cls-1" x1="127.96" y1="150.27" x2="128.67" y2="149.35"/><line class="cls-1" x1="128.67" y1="149.35" x2="129.37" y2="148.44"/><line class="cls-1" x1="129.37" y1="148.44" x2="130.07" y2="147.57"/><line class="cls-1" x1="130.07" y1="147.57" x2="130.77" y2="146.76"/><line class="cls-1" x1="130.77" y1="146.76" x2="131.47" y2="146.01"/><line class="cls-1" x1="131.47" y1="146.01" x2="132.23" y2="145.25"/><line class="cls-1" x1="132.23" y1="145.25" x2="132.93" y2="144.49"/><line class="cls-1" x1="132.93" y1="144.49" x2="133.69" y2="143.85"/><line class="cls-1" x1="133.69" y1="143.85" x2="134.39" y2="143.2"/><line class="cls-1" x1="134.39" y1="143.2" x2="135.15" y2="142.6"/><line class="cls-1" x1="135.15" y1="142.6" x2="135.9" y2="142.01"/><line class="cls-1" x1="135.9" y1="142.01" x2="136.6" y2="141.47"/><line class="cls-1" x1="136.6" y1="141.47" x2="137.36" y2="140.98"/><line class="cls-1" x1="137.36" y1="140.98" x2="138.06" y2="140.5"/><line class="cls-1" x1="138.06" y1="140.5" x2="138.82" y2="140.07"/><line class="cls-1" x1="138.82" y1="140.07" x2="139.52" y2="139.63"/><line class="cls-1" x1="139.52" y1="139.63" x2="140.22" y2="139.26"/><line class="cls-1" x1="140.22" y1="139.26" x2="140.92" y2="138.88"/><line class="cls-1" x1="140.92" y1="138.88" x2="141.57" y2="138.61"/><line class="cls-1" x1="141.57" y1="138.61" x2="142.22" y2="138.28"/><line class="cls-1" x1="142.22" y1="138.28" x2="142.87" y2="138.01"/><line class="cls-1" x1="142.87" y1="138.01" x2="143.52" y2="137.8"/><line class="cls-1" x1="143.52" y1="137.8" x2="144.11" y2="137.58"/><line class="cls-1" x1="144.11" y1="137.58" x2="144.7" y2="137.42"/><line class="cls-1" x1="144.7" y1="137.42" x2="145.3" y2="137.26"/><line class="cls-1" x1="145.3" y1="137.26" x2="145.84" y2="137.1"/><line class="cls-1" x1="145.84" y1="137.1" x2="146.32" y2="136.99"/><line class="cls-1" x1="146.32" y1="136.99" x2="146.81" y2="136.93"/><line class="cls-1" x1="146.81" y1="136.93" x2="147.24" y2="136.83"/><line class="cls-1" x1="147.24" y1="136.83" x2="147.62" y2="136.77"/><line class="cls-1" x1="147.62" y1="136.77" x2="147.94" y2="136.77"/><line class="cls-1" x1="147.94" y1="136.77" x2="148.21" y2="136.77"/><line class="cls-1" x1="148.21" y1="136.77" x2="149.62" y2="136.77"/><line class="cls-1" x1="149.62" y1="136.77" x2="149.62" y2="136.77"/><line class="cls-1" x1="149.62" y1="136.77" x2="149.62" y2="136.77"/><line class="cls-1" x1="149.62" y1="136.77" x2="149.62" y2="136.77"/><line class="cls-1" x1="149.62" y1="136.77" x2="149.62" y2="136.77"/><line class="cls-1" x1="149.62" y1="136.77" x2="149.62" y2="136.77"/><line class="cls-1" x1="149.62" y1="136.77" x2="149.62" y2="136.77"/><line class="cls-1" x1="149.62" y1="136.77" x2="149.62" y2="136.77"/><line class="cls-1" x1="149.62" y1="136.77" x2="149.62" y2="136.77"/><line class="cls-1" x1="149.62" y1="136.77" x2="149.62" y2="136.77"/><line class="cls-1" x1="149.62" y1="136.77" x2="149.62" y2="136.77"/><line class="cls-1" x1="149.62" y1="136.77" x2="149.62" y2="136.77"/><line class="cls-1" x1="149.62" y1="136.77" x2="149.62" y2="136.77"/><line class="cls-1" x1="149.62" y1="136.77" x2="149.62" y2="136.77"/><line class="cls-1" x1="149.62" y1="136.77" x2="149.62" y2="136.77"/><line class="cls-1" x1="149.62" y1="136.77" x2="149.62" y2="136.77"/><line class="cls-1" x1="149.62" y1="136.77" x2="149.62" y2="136.77"/><line class="cls-1" x1="149.62" y1="136.77" x2="149.62" y2="136.77"/><line class="cls-1" x1="149.62" y1="136.77" x2="149.62" y2="136.77"/><line class="cls-1" x1="149.62" y1="136.77" x2="149.62" y2="136.77"/><line class="cls-1" x1="149.62" y1="136.77" x2="149.62" y2="136.77"/><line class="cls-1" x1="149.62" y1="136.77" x2="149.62" y2="136.77"/><line class="cls-1" x1="149.62" y1="136.77" x2="149.62" y2="136.77"/><line class="cls-1" x1="149.62" y1="136.77" x2="149.62" y2="136.77"/><line class="cls-1" x1="149.62" y1="136.77" x2="149.62" y2="136.77"/><line class="cls-1" x1="149.62" y1="136.77" x2="149.62" y2="136.77"/><line class="cls-1" x1="149.62" y1="136.77" x2="149.62" y2="136.77"/><line class="cls-1" x1="149.62" y1="136.77" x2="149.62" y2="136.77"/><line class="cls-1" x1="149.62" y1="136.77" x2="149.62" y2="136.77"/><line class="cls-1" x1="149.62" y1="136.77" x2="149.62" y2="136.77"/><line class="cls-1" x1="149.62" y1="136.77" x2="149.62" y2="136.77"/><line class="cls-1" x1="149.62" y1="136.77" x2="149.62" y2="136.77"/><line class="cls-1" x1="149.62" y1="136.77" x2="149.62" y2="136.77"/><line class="cls-1" x1="149.62" y1="136.77" x2="149.62" y2="136.77"/><line class="cls-1" x1="149.62" y1="136.77" x2="149.62" y2="136.77"/><line class="cls-1" x1="149.62" y1="136.77" x2="149.62" y2="136.77"/><line class="cls-1" x1="149.62" y1="136.77" x2="149.62" y2="136.77"/><line class="cls-1" x1="149.62" y1="136.77" x2="149.62" y2="136.77"/><line class="cls-1" x1="149.62" y1="136.77" x2="149.62" y2="136.77"/><line class="cls-1" x1="149.62" y1="136.77" x2="149.62" y2="136.77"/><line class="cls-1" x1="149.62" y1="136.77" x2="149.62" y2="136.77"/><line class="cls-1" x1="149.62" y1="136.77" x2="149.62" y2="136.77"/><line class="cls-1" x1="149.62" y1="136.77" x2="149.62" y2="136.77"/><line class="cls-1" x1="149.62" y1="136.77" x2="149.62" y2="136.77"/><line class="cls-1" x1="149.62" y1="136.77" x2="149.62" y2="136.77"/><line class="cls-1" x1="149.62" y1="136.77" x2="149.62" y2="136.77"/><line class="cls-1" x1="149.62" y1="136.77" x2="149.62" y2="136.77"/><line class="cls-1" x1="149.62" y1="136.77" x2="149.62" y2="136.77"/><line class="cls-1" x1="149.62" y1="136.77" x2="149.62" y2="136.77"/><line class="cls-1" x1="149.62" y1="136.77" x2="149.62" y2="136.77"/><line class="cls-1" x1="149.62" y1="136.77" x2="149.62" y2="136.77"/><line class="cls-1" x1="149.62" y1="136.77" x2="149.62" y2="136.77"/><line class="cls-1" x1="149.62" y1="136.77" x2="149.62" y2="136.77"/><line class="cls-1" x1="149.62" y1="136.77" x2="149.62" y2="136.77"/><line class="cls-1" x1="149.62" y1="136.77" x2="149.62" y2="136.77"/><line class="cls-1" x1="149.62" y1="136.77" x2="149.62" y2="136.77"/><line class="cls-1" x1="149.62" y1="136.77" x2="149.62" y2="136.77"/><line class="cls-1" x1="149.62" y1="136.77" x2="149.62" y2="136.77"/><line class="cls-1" x1="149.62" y1="136.77" x2="149.62" y2="136.77"/><line class="cls-1" x1="149.62" y1="136.77" x2="149.62" y2="136.77"/><line class="cls-1" x1="149.62" y1="136.77" x2="149.62" y2="136.77"/><line class="cls-1" x1="149.62" y1="136.77" x2="149.62" y2="136.77"/><line class="cls-1" x1="149.62" y1="136.77" x2="149.62" y2="136.77"/><line class="cls-1" x1="149.62" y1="136.77" x2="149.62" y2="136.77"/><line class="cls-1" x1="149.62" y1="136.77" x2="149.62" y2="136.77"/><line class="cls-1" x1="149.62" y1="136.77" x2="149.62" y2="136.77"/><line class="cls-1" x1="149.62" y1="136.77" x2="149.62" y2="136.77"/><line class="cls-1" x1="149.62" y1="136.77" x2="149.62" y2="136.77"/><line class="cls-1" x1="149.62" y1="136.77" x2="149.62" y2="136.77"/><line class="cls-1" x1="149.62" y1="136.77" x2="149.62" y2="136.77"/><line class="cls-1" x1="149.62" y1="136.77" x2="149.62" y2="136.77"/><line class="cls-1" x1="149.62" y1="136.77" x2="149.62" y2="136.77"/><line class="cls-1" x1="149.62" y1="136.77" x2="149.62" y2="136.77"/><line class="cls-1" x1="149.62" y1="136.77" x2="149.62" y2="136.77"/><line class="cls-1" x1="149.62" y1="136.77" x2="149.62" y2="136.77"/><line class="cls-1" x1="149.62" y1="136.77" x2="149.62" y2="136.77"/><line class="cls-1" x1="149.62" y1="136.77" x2="149.62" y2="136.77"/><line class="cls-1" x1="149.62" y1="136.77" x2="149.62" y2="136.77"/><line class="cls-1" x1="149.62" y1="136.77" x2="149.62" y2="136.77"/><line class="cls-1" x1="149.62" y1="136.77" x2="149.62" y2="136.77"/><line class="cls-1" x1="149.62" y1="136.77" x2="149.62" y2="136.77"/><line class="cls-1" x1="149.62" y1="136.77" x2="149.62" y2="136.77"/><line class="cls-1" x1="149.62" y1="136.77" x2="149.62" y2="136.77"/><line class="cls-1" x1="149.62" y1="136.77" x2="149.62" y2="136.77"/><line class="cls-1" x1="149.62" y1="136.77" x2="149.62" y2="136.77"/><line class="cls-1" x1="149.62" y1="136.77" x2="149.62" y2="136.77"/><line class="cls-1" x1="149.62" y1="136.77" x2="149.62" y2="136.77"/><line class="cls-1" x1="149.62" y1="136.77" x2="149.62" y2="136.77"/><line class="cls-1" x1="149.62" y1="136.77" x2="149.62" y2="136.77"/><line class="cls-1" x1="149.62" y1="136.77" x2="149.62" y2="136.77"/><line class="cls-1" x1="149.62" y1="227.49" x2="149.89" y2="227.49"/><line class="cls-1" x1="151.18" y1="227.44" x2="151.18" y2="227.44"/><line class="cls-1" x1="151.18" y1="227.44" x2="151.4" y2="227.38"/><line class="cls-1" x1="152.7" y1="227.22" x2="152.8" y2="227.22"/><line class="cls-1" x1="152.8" y1="227.22" x2="152.97" y2="227.22"/><line class="cls-1" x1="154.26" y1="227.06" x2="154.37" y2="227.06"/><line class="cls-1" x1="154.37" y1="227.06" x2="154.48" y2="227.01"/><line class="cls-1" x1="155.72" y1="226.68" x2="155.88" y2="226.63"/><line class="cls-1" x1="155.88" y1="226.63" x2="155.94" y2="226.63"/><line class="cls-1" x1="157.18" y1="226.3" x2="157.39" y2="226.25"/><line class="cls-1" x1="158.58" y1="225.82" x2="158.8" y2="225.71"/><line class="cls-1" x1="159.99" y1="225.28" x2="160.2" y2="225.17"/><line class="cls-1" x1="161.34" y1="224.63" x2="161.55" y2="224.52"/><line class="cls-1" x1="162.69" y1="223.87" x2="162.9" y2="223.77"/><line class="cls-1" x1="163.98" y1="223.12" x2="164.2" y2="222.96"/><line class="cls-1" x1="165.28" y1="222.2" x2="165.49" y2="222.04"/><line class="cls-1" x1="166.52" y1="221.23" x2="166.74" y2="221.07"/><line class="cls-1" x1="167.76" y1="220.2" x2="167.92" y2="220.04"/><line class="cls-1" x1="168.9" y1="219.12" x2="169.06" y2="218.96"/><line class="cls-1" x1="170.03" y1="218.04" x2="170.19" y2="217.83"/><line class="cls-1" x1="171.06" y1="216.8" x2="171.06" y2="216.8"/><line class="cls-1" x1="171.06" y1="216.8" x2="171.22" y2="216.64"/><line class="cls-1" x1="172.03" y1="215.61" x2="172.19" y2="215.45"/><line class="cls-1" x1="173" y1="214.42" x2="173.16" y2="214.21"/><line class="cls-1" x1="173.86" y1="213.13" x2="174.03" y2="212.91"/><line class="cls-1" x1="174.67" y1="211.83" x2="174.84" y2="211.62"/><line class="cls-1" x1="175.48" y1="210.48" x2="175.59" y2="210.27"/><line class="cls-1" x1="176.19" y1="209.13" x2="176.29" y2="208.92"/><line class="cls-1" x1="176.89" y1="207.78" x2="176.89" y2="207.73"/><line class="cls-1" x1="176.89" y1="207.73" x2="176.94" y2="207.57"/><line class="cls-1" x1="177.48" y1="206.43" x2="177.59" y2="206.22"/><line class="cls-1" x1="178.08" y1="205.03" x2="178.13" y2="204.81"/><line class="cls-1" x1="178.56" y1="203.62" x2="178.67" y2="203.41"/><line class="cls-1" x1="179.05" y1="202.22" x2="179.1" y2="202"/><line class="cls-1" x1="179.48" y1="200.82" x2="179.48" y2="200.76"/><line class="cls-1" x1="179.48" y1="200.76" x2="179.53" y2="200.6"/><line class="cls-1" x1="179.91" y1="199.41" x2="179.97" y2="199.2"/><line class="cls-1" x1="180.29" y1="197.95" x2="180.34" y2="197.74"/><line class="cls-1" x1="180.61" y1="196.5" x2="180.67" y2="196.28"/><line class="cls-1" x1="180.88" y1="195.04" x2="180.94" y2="194.77"/><line class="cls-1" x1="181.1" y1="193.47" x2="181.15" y2="193.26"/><line class="cls-1" x1="181.32" y1="191.96" x2="181.37" y2="191.74"/><line class="cls-1" x1="181.48" y1="190.45" x2="181.48" y2="190.18"/><line class="cls-1" x1="181.64" y1="188.88" x2="181.64" y2="188.61"/><line class="cls-1" x1="181.69" y1="187.32" x2="181.75" y2="187.1"/><line class="cls-1" x1="181.75" y1="185.75" x2="181.75" y2="185.48"/><line class="cls-1" x1="181.8" y1="184.18" x2="181.8" y2="183.91"/><line class="cls-1" x1="181.75" y1="182.62" x2="181.75" y2="182.56"/><line class="cls-1" x1="181.75" y1="182.56" x2="181.75" y2="182.35"/><line class="cls-1" x1="181.64" y1="181.05" x2="181.64" y2="180.78"/><line class="cls-1" x1="181.53" y1="179.49" x2="181.53" y2="179.22"/><line class="cls-1" x1="181.37" y1="177.92" x2="181.37" y2="177.65"/><line class="cls-1" x1="181.21" y1="176.35" x2="181.15" y2="176.14"/><line class="cls-1" x1="180.99" y1="174.84" x2="180.99" y2="174.57"/><line class="cls-1" x1="180.78" y1="173.33" x2="180.72" y2="173.11"/><line class="cls-1" x1="180.45" y1="171.87" x2="180.4" y2="171.6"/><line class="cls-1" x1="180.18" y1="170.36" x2="180.13" y2="170.14"/><line class="cls-1" x1="179.8" y1="168.9" x2="179.75" y2="168.69"/><line class="cls-1" x1="179.37" y1="167.5" x2="179.32" y2="167.28"/><line class="cls-1" x1="178.99" y1="166.04" x2="178.94" y2="165.82"/><line class="cls-1" x1="178.56" y1="164.64" x2="178.56" y2="164.64"/><line class="cls-1" x1="178.56" y1="164.64" x2="178.45" y2="164.42"/><line class="cls-1" x1="178.02" y1="163.23" x2="178.02" y2="163.23"/><line class="cls-1" x1="178.02" y1="163.23" x2="177.97" y2="163.02"/><line class="cls-1" x1="177.54" y1="161.83" x2="177.54" y2="161.83"/><line class="cls-1" x1="177.54" y1="161.83" x2="177.43" y2="161.61"/><line class="cls-1" x1="176.94" y1="160.42" x2="176.83" y2="160.21"/><line class="cls-1" x1="176.35" y1="159.02" x2="176.24" y2="158.8"/><line class="cls-1" x1="175.7" y1="157.67" x2="175.59" y2="157.45"/><line class="cls-1" x1="175.05" y1="156.32" x2="174.89" y2="156.1"/><line class="cls-1" x1="174.3" y1="154.97" x2="174.19" y2="154.75"/><line class="cls-1" x1="173.54" y1="153.67" x2="173.38" y2="153.46"/><line class="cls-1" x1="172.73" y1="152.38" x2="172.68" y2="152.27"/><line class="cls-1" x1="172.68" y1="152.27" x2="172.62" y2="152.16"/><line class="cls-1" x1="171.87" y1="151.08" x2="171.76" y2="150.87"/><line class="cls-1" x1="171" y1="149.84" x2="170.84" y2="149.62"/><line class="cls-1" x1="170.03" y1="148.6" x2="169.92" y2="148.44"/><line class="cls-1" x1="169.92" y1="148.44" x2="169.87" y2="148.38"/><line class="cls-1" x1="169.06" y1="147.36" x2="168.9" y2="147.19"/><line class="cls-1" x1="168.03" y1="146.22" x2="167.87" y2="146.06"/><line class="cls-1" x1="166.95" y1="145.14" x2="166.79" y2="144.98"/><line class="cls-1" x1="165.87" y1="144.06" x2="165.66" y2="143.9"/><line class="cls-1" x1="164.68" y1="143.04" x2="164.52" y2="142.87"/><line class="cls-1" x1="163.5" y1="142.12" x2="163.39" y2="142.01"/><line class="cls-1" x1="163.39" y1="142.01" x2="163.33" y2="141.96"/><line class="cls-1" x1="162.31" y1="141.2" x2="162.09" y2="141.09"/><line class="cls-1" x1="161.01" y1="140.39" x2="160.8" y2="140.23"/><line class="cls-1" x1="159.72" y1="139.58" x2="159.5" y2="139.47"/><line class="cls-1" x1="158.37" y1="138.88" x2="158.37" y2="138.88"/><line class="cls-1" x1="158.37" y1="138.88" x2="158.15" y2="138.77"/><line class="cls-1" x1="157.02" y1="138.28" x2="156.8" y2="138.18"/><line class="cls-1" x1="155.61" y1="137.74" x2="155.4" y2="137.64"/><line class="cls-1" x1="154.15" y1="137.31" x2="153.99" y2="137.26"/><line class="cls-1" x1="153.99" y1="137.26" x2="153.94" y2="137.26"/><line class="cls-1" x1="152.7" y1="136.93" x2="152.48" y2="136.93"/><line class="cls-1" x1="152.48" y1="136.93" x2="152.43" y2="136.93"/><line class="cls-1" x1="151.18" y1="136.77" x2="151.08" y2="136.77"/><line class="cls-1" x1="151.08" y1="136.77" x2="150.91" y2="136.77"/><line class="cls-1" x1="149.56" y1="227.49" x2="149.29" y2="227.49"/><line class="cls-1" x1="148" y1="227.44" x2="147.78" y2="227.38"/><line class="cls-1" x1="146.49" y1="227.22" x2="146.49" y2="227.22"/><line class="cls-1" x1="146.49" y1="227.22" x2="146.22" y2="227.17"/><line class="cls-1" x1="144.92" y1="227.06" x2="144.92" y2="227.06"/><line class="cls-1" x1="144.92" y1="227.06" x2="144.7" y2="227.01"/><line class="cls-1" x1="143.46" y1="226.63" x2="143.41" y2="226.63"/><line class="cls-1" x1="143.41" y1="226.63" x2="143.25" y2="226.57"/><line class="cls-1" x1="142" y1="226.3" x2="141.84" y2="226.25"/><line class="cls-1" x1="141.84" y1="226.25" x2="141.79" y2="226.25"/><line class="cls-1" x1="140.65" y1="225.76" x2="140.44" y2="225.71"/><line class="cls-1" x1="139.25" y1="225.22" x2="139.03" y2="225.17"/><line class="cls-1" x1="137.9" y1="224.58" x2="137.68" y2="224.47"/><line class="cls-1" x1="136.55" y1="223.87" x2="136.33" y2="223.71"/><line class="cls-1" x1="135.25" y1="223.06" x2="135.04" y2="222.96"/><line class="cls-1" x1="134.01" y1="222.2" x2="133.8" y2="222.04"/><line class="cls-1" x1="132.77" y1="221.23" x2="132.55" y2="221.07"/><line class="cls-1" x1="131.53" y1="220.2" x2="131.37" y2="220.04"/><line class="cls-1" x1="130.39" y1="219.12" x2="130.23" y2="218.96"/><line class="cls-1" x1="129.26" y1="218.04" x2="129.1" y2="217.83"/><line class="cls-1" x1="128.23" y1="216.8" x2="128.23" y2="216.8"/><line class="cls-1" x1="128.23" y1="216.8" x2="128.07" y2="216.64"/><line class="cls-1" x1="127.26" y1="215.61" x2="127.1" y2="215.45"/><line class="cls-1" x1="126.29" y1="214.42" x2="126.13" y2="214.21"/><line class="cls-1" x1="125.43" y1="213.13" x2="125.26" y2="212.91"/><line class="cls-1" x1="124.62" y1="211.83" x2="124.45" y2="211.62"/><line class="cls-1" x1="123.81" y1="210.48" x2="123.7" y2="210.27"/><line class="cls-1" x1="123.1" y1="209.13" x2="123" y2="208.92"/><line class="cls-1" x1="122.4" y1="207.78" x2="122.4" y2="207.73"/><line class="cls-1" x1="122.4" y1="207.73" x2="122.35" y2="207.57"/><line class="cls-1" x1="121.81" y1="206.43" x2="121.7" y2="206.22"/><line class="cls-1" x1="121.21" y1="205.03" x2="121.16" y2="204.81"/><line class="cls-1" x1="120.73" y1="203.62" x2="120.62" y2="203.41"/><line class="cls-1" x1="120.24" y1="202.22" x2="120.19" y2="202"/><line class="cls-1" x1="119.81" y1="200.82" x2="119.81" y2="200.76"/><line class="cls-1" x1="119.81" y1="200.76" x2="119.76" y2="200.6"/><line class="cls-1" x1="119.38" y1="199.41" x2="119.32" y2="199.2"/><line class="cls-1" x1="119" y1="197.95" x2="118.95" y2="197.74"/><line class="cls-1" x1="118.68" y1="196.5" x2="118.62" y2="196.28"/><line class="cls-1" x1="118.41" y1="195.04" x2="118.35" y2="194.77"/><line class="cls-1" x1="118.19" y1="193.47" x2="118.14" y2="193.26"/><line class="cls-1" x1="117.97" y1="191.96" x2="117.92" y2="191.74"/><line class="cls-1" x1="117.81" y1="190.45" x2="117.81" y2="190.18"/><line class="cls-1" x1="117.65" y1="188.88" x2="117.65" y2="188.61"/><line class="cls-1" x1="117.6" y1="187.32" x2="117.54" y2="187.1"/><line class="cls-1" x1="117.54" y1="185.75" x2="117.54" y2="185.48"/><line class="cls-1" x1="117.49" y1="184.18" x2="117.49" y2="183.91"/><line class="cls-1" x1="117.54" y1="182.62" x2="117.54" y2="182.56"/><line class="cls-1" x1="117.54" y1="182.56" x2="117.54" y2="182.35"/><line class="cls-1" x1="117.65" y1="181.05" x2="117.65" y2="180.78"/><line class="cls-1" x1="117.76" y1="179.49" x2="117.76" y2="179.22"/><line class="cls-1" x1="117.92" y1="177.92" x2="117.92" y2="177.65"/><line class="cls-1" x1="118.08" y1="176.35" x2="118.14" y2="176.14"/><line class="cls-1" x1="118.3" y1="174.84" x2="118.3" y2="174.57"/><line class="cls-1" x1="118.51" y1="173.33" x2="118.57" y2="173.11"/><line class="cls-1" x1="118.84" y1="171.87" x2="118.89" y2="171.6"/><line class="cls-1" x1="119.11" y1="170.36" x2="119.16" y2="170.14"/><line class="cls-1" x1="119.49" y1="168.9" x2="119.54" y2="168.69"/><line class="cls-1" x1="119.92" y1="167.5" x2="119.97" y2="167.28"/><line class="cls-1" x1="120.3" y1="166.04" x2="120.35" y2="165.82"/><line class="cls-1" x1="120.73" y1="164.64" x2="120.73" y2="164.64"/><line class="cls-1" x1="120.73" y1="164.64" x2="120.84" y2="164.42"/><line class="cls-1" x1="121.27" y1="163.23" x2="121.27" y2="163.23"/><line class="cls-1" x1="121.27" y1="163.23" x2="121.32" y2="163.02"/><line class="cls-1" x1="121.75" y1="161.83" x2="121.75" y2="161.83"/><line class="cls-1" x1="121.75" y1="161.83" x2="121.86" y2="161.61"/><line class="cls-1" x1="122.35" y1="160.42" x2="122.46" y2="160.21"/><line class="cls-1" x1="122.94" y1="159.02" x2="123.05" y2="158.8"/><line class="cls-1" x1="123.59" y1="157.67" x2="123.7" y2="157.45"/><line class="cls-1" x1="124.24" y1="156.32" x2="124.4" y2="156.1"/><line class="cls-1" x1="124.99" y1="154.97" x2="125.1" y2="154.75"/><line class="cls-1" x1="125.75" y1="153.67" x2="125.91" y2="153.46"/><line class="cls-1" x1="126.56" y1="152.38" x2="126.61" y2="152.27"/><line class="cls-1" x1="126.61" y1="152.27" x2="126.67" y2="152.16"/><line class="cls-1" x1="127.42" y1="151.08" x2="127.53" y2="150.87"/><line class="cls-1" x1="128.29" y1="149.84" x2="128.45" y2="149.62"/><line class="cls-1" x1="129.26" y1="148.6" x2="129.37" y2="148.44"/><line class="cls-1" x1="129.37" y1="148.44" x2="129.42" y2="148.38"/><line class="cls-1" x1="130.23" y1="147.36" x2="130.39" y2="147.19"/><line class="cls-1" x1="131.26" y1="146.22" x2="131.42" y2="146.06"/><line class="cls-1" x1="132.34" y1="145.14" x2="132.5" y2="144.98"/><line class="cls-1" x1="133.42" y1="144.06" x2="133.63" y2="143.9"/><line class="cls-1" x1="134.61" y1="143.04" x2="134.77" y2="142.87"/><line class="cls-1" x1="135.79" y1="142.12" x2="135.9" y2="142.01"/><line class="cls-1" x1="135.9" y1="142.01" x2="135.96" y2="141.96"/><line class="cls-1" x1="136.98" y1="141.2" x2="137.2" y2="141.09"/><line class="cls-1" x1="138.28" y1="140.39" x2="138.49" y2="140.23"/><line class="cls-1" x1="139.57" y1="139.58" x2="139.79" y2="139.47"/><line class="cls-1" x1="140.92" y1="138.88" x2="140.92" y2="138.88"/><line class="cls-1" x1="140.92" y1="138.88" x2="141.14" y2="138.77"/><line class="cls-1" x1="142.27" y1="138.28" x2="142.49" y2="138.18"/><line class="cls-1" x1="143.68" y1="137.74" x2="143.89" y2="137.64"/><line class="cls-1" x1="145.14" y1="137.31" x2="145.3" y2="137.26"/><line class="cls-1" x1="145.3" y1="137.26" x2="145.35" y2="137.26"/><line class="cls-1" x1="146.59" y1="136.93" x2="146.81" y2="136.93"/><line class="cls-1" x1="146.81" y1="136.93" x2="146.86" y2="136.93"/><line class="cls-1" x1="148.11" y1="136.77" x2="148.21" y2="136.77"/><line class="cls-1" x1="148.21" y1="136.77" x2="148.38" y2="136.77"/></g></svg>