<svg id="AIM_F00920" data-name="AIM F00920" xmlns="http://www.w3.org/2000/svg" viewBox="0 0 300 263"><defs><style>.cls-1{isolation:isolate;}.cls-2,.cls-3,.cls-4,.cls-5{fill:none;stroke:#000;stroke-width:0.5px;}.cls-3,.cls-4,.cls-5{stroke-linecap:round;stroke-linejoin:round;}.cls-3{stroke-dasharray:0.03 0.01 0.01 0.01;}.cls-4{stroke-dasharray:1.27 0.32 0.05 0.32;}</style></defs><title>aim-cableplug-suspension-bouroullec-flos-F00920-spech-tech-02-300x263</title><g class="cls-1"><path d="M79.27,196.66v7.2H78l-4.6-4.51c-.17-.17-.35-.35-.54-.52a4.64,4.64,0,0,0-.61-.46,3.25,3.25,0,0,0-.67-.34,2.25,2.25,0,0,0-.74-.12,2,2,0,0,0-.83.16,1.82,1.82,0,0,0-.62.48,2.08,2.08,0,0,0-.39.7,2.66,2.66,0,0,0-.14.85,2.32,2.32,0,0,0,.48,1.47,2.11,2.11,0,0,0,1.3.78l-.13,1.22a3.16,3.16,0,0,1-2-1.16,3.45,3.45,0,0,1-.72-2.23,4.71,4.71,0,0,1,.18-1.31,3.24,3.24,0,0,1,.55-1.08,2.72,2.72,0,0,1,.92-.76,2.92,2.92,0,0,1,1.29-.28,3.51,3.51,0,0,1,1.2.2,5.44,5.44,0,0,1,1,.52,7.1,7.1,0,0,1,.91.73c.29.27.58.55.85.84l3.54,3.57v-6Z"/><path d="M79.27,190.16v1.15H69.39l1.79,2-.87.72L68,191.19v-1Z"/><path d="M79.27,181.27v1.15H69.39l1.79,2-.87.72L68,182.29v-1Z"/><path d="M73.45,172.34l-.83,0-.83.06v-1.14h1.13v0a2.53,2.53,0,0,1-1-1.06,3.12,3.12,0,0,1-.33-1.36,3.72,3.72,0,0,1,.06-.64,2.42,2.42,0,0,1,.23-.67,2.34,2.34,0,0,1,.47-.6,2.85,2.85,0,0,1,.79-.47,2.45,2.45,0,0,1-1.14-1A2.72,2.72,0,0,1,71.6,164a2.76,2.76,0,0,1,.75-2.13,3.12,3.12,0,0,1,2.17-.69h4.75v1.06H74.91a3.17,3.17,0,0,0-1.75.4,1.64,1.64,0,0,0-.6,1.48,1.92,1.92,0,0,0,.23,1,1.87,1.87,0,0,0,.61.64,2.58,2.58,0,0,0,.87.36,4.31,4.31,0,0,0,1,.12h4v1.05H74.91a3.26,3.26,0,0,0-1.75.4,1.67,1.67,0,0,0-.6,1.49,3.61,3.61,0,0,0,.06.44,1.62,1.62,0,0,0,.35.71,2.55,2.55,0,0,0,.86.67,3.71,3.71,0,0,0,1.61.29h3.83v1.06Z"/><path d="M73.45,158.71c-.28,0-.55,0-.83,0l-.83.06v-1.14h1.13v0a2.5,2.5,0,0,1-1-1.07,3.05,3.05,0,0,1-.33-1.35,3.83,3.83,0,0,1,.06-.65,2.23,2.23,0,0,1,.7-1.26,2.63,2.63,0,0,1,.79-.47,2.45,2.45,0,0,1-1.14-1,3.11,3.11,0,0,1,.34-3.57,3.12,3.12,0,0,1,2.17-.69h4.75v1.05H74.91a3.26,3.26,0,0,0-1.75.4,1.67,1.67,0,0,0-.6,1.49,1.86,1.86,0,0,0,.23,1,1.81,1.81,0,0,0,.61.65,2.58,2.58,0,0,0,.87.36,4.31,4.31,0,0,0,1,.11h4v1.06H74.91a3.17,3.17,0,0,0-1.75.4,1.66,1.66,0,0,0-.6,1.49,3.61,3.61,0,0,0,.06.44,1.62,1.62,0,0,0,.35.71,2.42,2.42,0,0,0,.86.66,3.55,3.55,0,0,0,1.61.3h3.83v1.06Z"/></g><g class="cls-1"><path d="M119.58,242.15a3.52,3.52,0,0,1,.68,1.16,4,4,0,0,1,.25,1.44,4.22,4.22,0,0,1-.29,1.57,3.85,3.85,0,0,1-.83,1.25,3.67,3.67,0,0,1-1.25.82,4.23,4.23,0,0,1-1.61.3,4.15,4.15,0,0,1-1.4-.22,3.72,3.72,0,0,1-1.11-.61L112.94,249l-.51-.5,1.06-1.09a3.62,3.62,0,0,1-.69-1.17,4.23,4.23,0,0,1-.24-1.44,4,4,0,0,1,.3-1.56,3.67,3.67,0,0,1,.82-1.25,3.62,3.62,0,0,1,1.26-.82,4.09,4.09,0,0,1,1.59-.3,4.18,4.18,0,0,1,1.39.22,3.63,3.63,0,0,1,1.15.61l1.06-1.09.51.5Zm-1.24.25a2.7,2.7,0,0,0-1.81-.62,3,3,0,0,0-1.18.23,2.82,2.82,0,0,0-.88.63,3,3,0,0,0-.56,1,3.41,3.41,0,0,0-.2,1.16,3,3,0,0,0,.55,1.83Zm-3.6,4.72a2.72,2.72,0,0,0,.8.45,2.82,2.82,0,0,0,1,.16,2.87,2.87,0,0,0,1.17-.23,2.76,2.76,0,0,0,.89-.63,2.68,2.68,0,0,0,.57-1,3.42,3.42,0,0,0,.2-1.17,3.13,3.13,0,0,0-.54-1.82Z"/><path d="M133.7,248.5h-7.2v-1.33l4.51-4.59.51-.54a5.13,5.13,0,0,0,.46-.61,3.6,3.6,0,0,0,.34-.68,2.11,2.11,0,0,0,0-1.56,1.74,1.74,0,0,0-.47-.63,2.13,2.13,0,0,0-.71-.39,2.59,2.59,0,0,0-.84-.13,2.38,2.38,0,0,0-1.48.47,2.23,2.23,0,0,0-.78,1.3l-1.22-.13a3.18,3.18,0,0,1,1.16-2,3.54,3.54,0,0,1,2.24-.72,4.64,4.64,0,0,1,1.3.18,3.61,3.61,0,0,1,1.09.55,2.92,2.92,0,0,1,.75.92,2.79,2.79,0,0,1,.28,1.29,3.51,3.51,0,0,1-.2,1.2,5,5,0,0,1-.52,1,6.93,6.93,0,0,1-.73.91c-.27.29-.55.57-.84.85l-3.57,3.53h6Z"/><path d="M141.28,244.75h1.63v1.06h-1.63v2.69h-1.15v-2.69h-4.9V244.5l4.58-7.33h1.47Zm-1.15-6.43h0l-3.91,6.43h3.94Z"/><path d="M146.78,242h.6a3.75,3.75,0,0,0,1-.12,2,2,0,0,0,.79-.36,1.83,1.83,0,0,0,.54-.65,2.12,2.12,0,0,0,.2-.95,1.82,1.82,0,0,0-.56-1.42,2.16,2.16,0,0,0-1.54-.5,2.36,2.36,0,0,0-1.26.32,2.41,2.41,0,0,0-.9.92l-1-.51a3.35,3.35,0,0,1,1.31-1.35,3.59,3.59,0,0,1,1.83-.44,4,4,0,0,1,1.26.19,3.09,3.09,0,0,1,1,.57,2.62,2.62,0,0,1,.71.93,2.8,2.8,0,0,1,.27,1.25,2.54,2.54,0,0,1-.15.88,2.74,2.74,0,0,1-.42.75,2.89,2.89,0,0,1-.62.59,2.79,2.79,0,0,1-.73.37l0,0a2.34,2.34,0,0,1,.88.36,2.76,2.76,0,0,1,.68.64,3,3,0,0,1,.45.87,3.05,3.05,0,0,1,.16,1,3.12,3.12,0,0,1-.29,1.39,3,3,0,0,1-.78,1,3.3,3.3,0,0,1-1.15.63,4.6,4.6,0,0,1-3.57-.32,3.35,3.35,0,0,1-1.39-1.75l1.21-.36a2.4,2.4,0,0,0,.86,1.2,2.79,2.79,0,0,0,1.59.39,2.49,2.49,0,0,0,.91-.16,2.07,2.07,0,0,0,.76-.45,2.29,2.29,0,0,0,.52-.71,2.32,2.32,0,0,0,.18-.92,2.27,2.27,0,0,0-.24-1.08,2,2,0,0,0-.64-.71,2.72,2.72,0,0,0-.92-.39,4.83,4.83,0,0,0-1.08-.12h-.5Z"/><path d="M158,242.67c0-.27,0-.55,0-.83s0-.55-.05-.83h1.13v1.14h0a2.52,2.52,0,0,1,1.07-1,3.05,3.05,0,0,1,1.35-.33,3.83,3.83,0,0,1,.65.06,2.28,2.28,0,0,1,.66.24,2,2,0,0,1,.6.47,2.28,2.28,0,0,1,.47.78,2.56,2.56,0,0,1,1-1.14,2.85,2.85,0,0,1,1.45-.41,2.73,2.73,0,0,1,2.13.76,3.17,3.17,0,0,1,.68,2.17v4.75h-1.05v-4.37a3.2,3.2,0,0,0-.4-1.74,1.65,1.65,0,0,0-1.49-.61,2,2,0,0,0-1,.23,1.93,1.93,0,0,0-.65.62,2.42,2.42,0,0,0-.36.87,4.74,4.74,0,0,0-.11,1v4h-1.06v-4.37a3.11,3.11,0,0,0-.4-1.74,1.64,1.64,0,0,0-1.49-.61l-.44.06a1.59,1.59,0,0,0-.71.36,2.44,2.44,0,0,0-.66.86,3.51,3.51,0,0,0-.3,1.6v3.84h-1Z"/><path d="M171.65,242.67c0-.27,0-.55,0-.83s0-.55-.05-.83h1.13v1.14h0a2.5,2.5,0,0,1,1.06-1,3.05,3.05,0,0,1,1.35-.33,3.83,3.83,0,0,1,.65.06,2.28,2.28,0,0,1,.66.24,1.89,1.89,0,0,1,.6.47,2.47,2.47,0,0,1,.48.78,2.48,2.48,0,0,1,1-1.14,2.87,2.87,0,0,1,1.45-.41,2.73,2.73,0,0,1,2.13.76,3.12,3.12,0,0,1,.69,2.17v4.75h-1.06v-4.37a3.11,3.11,0,0,0-.4-1.74,1.64,1.64,0,0,0-1.49-.61,2,2,0,0,0-1,.23,1.93,1.93,0,0,0-.65.62,2.84,2.84,0,0,0-.36.87,4.74,4.74,0,0,0-.11,1v4H176.7v-4.37a3.11,3.11,0,0,0-.4-1.74,1.62,1.62,0,0,0-1.48-.61l-.44.06a1.62,1.62,0,0,0-.72.36,2.56,2.56,0,0,0-.66.86,3.51,3.51,0,0,0-.3,1.6v3.84h-1Z"/></g><line class="cls-2" x1="89.67" y1="217.6" x2="89.67" y2="133.27"/><line class="cls-2" x1="87.82" y1="133.25" x2="91.37" y2="133.25"/><line class="cls-2" x1="87.14" y1="217.6" x2="92.19" y2="217.6"/><line class="cls-2" x1="105.67" y1="228.19" x2="192.29" y2="228.19"/><line class="cls-2" x1="105.67" y1="227.9" x2="105.67" y2="228.48"/><line class="cls-2" x1="192.29" y1="227.9" x2="192.29" y2="228.48"/><line class="cls-2" x1="105.67" y1="225.66" x2="105.67" y2="230.72"/><line class="cls-2" x1="192.29" y1="225.66" x2="192.29" y2="230.72"/><g id="LINE"><line class="cls-3" x1="188.02" y1="211.69" x2="188.02" y2="211.74"/></g><g id="LINE-2" data-name="LINE"><line class="cls-3" x1="112.24" y1="211.69" x2="112.24" y2="211.74"/></g><g id="LINE-3" data-name="LINE"><line class="cls-4" x1="165.84" y1="51.03" x2="164.02" y2="51.03"/></g><g id="LINE-4" data-name="LINE"><line class="cls-4" x1="164.93" y1="50.13" x2="164.93" y2="51.94"/></g><g id="LINE-5" data-name="LINE"><line class="cls-5" x1="171.1" y1="55.04" x2="171.1" y2="53.13"/></g><g id="ARC"><path class="cls-5" d="M170.67,56.28a14.07,14.07,0,0,0,.43,3.29"/></g><g id="LINE-6" data-name="LINE"><line class="cls-5" x1="171.1" y1="56.28" x2="170.67" y2="56.28"/></g><g id="LINE-7" data-name="LINE"><line class="cls-5" x1="111.11" y1="211.53" x2="105.67" y2="211.53"/></g><g id="LINE-8" data-name="LINE"><line class="cls-5" x1="143.35" y1="129.27" x2="142.41" y2="129.27"/></g><g id="LINE-9" data-name="LINE"><line class="cls-5" x1="157.85" y1="129.27" x2="143.35" y2="129.27"/></g><g id="LINE-10" data-name="LINE"><line class="cls-5" x1="194.58" y1="211.53" x2="111.11" y2="211.53"/></g><g id="LINE-11" data-name="LINE"><line class="cls-5" x1="200.03" y1="158.23" x2="200.03" y2="157.96"/></g><g id="ARC-2" data-name="ARC"><path class="cls-5" d="M200,158.23c0,1.35.07,2.7.14,4.05"/></g><g id="LINE-12" data-name="LINE"><line class="cls-5" x1="200.18" y1="162.27" x2="200.17" y2="162.22"/></g><g id="LWPOLYLINE"><polyline class="cls-5" points="142.41 129.26 141.19 129.31 139.98 129.38 138.78 129.46 137.57 129.55 136.37 129.65 135.17 129.77 133.97 129.9 132.78 130.05 131.59 130.21 130.4 130.38 129.21 130.57 128.02 130.78 126.83 131 125.64 131.24 124.46 131.5 123.27 131.77 122.09 132.07 120.92 132.41 120.34 132.58 119.76 132.76 119.18 132.96 118.61 133.15 118.03 133.36 117.47 133.58 116.91 133.81 116.35 134.04 115.8 134.29 115.25 134.54 114.71 134.81 114.18 135.09 113.65 135.38 113.13 135.68 112.61 135.99 112.11 136.31 111.6 136.64 111.11 136.99 110.62 137.34 110.14 137.71 109.67 138.08 109.2 138.47 108.74 138.86 108.29 139.27 107.85 139.69 107.41 140.11 106.98 140.55 106.56 140.99 106.15 141.44 105.75 141.91 105.36 142.38 104.98 142.85 104.62 143.34 104.26 143.84 103.92 144.34 103.6 144.85 103.28 145.37 102.99 145.91 102.71 146.44 102.45 146.99 102.21 147.54 101.99 148.09 101.78 148.66 101.59 149.24 101.42 149.81 101.26 150.39 101.11 150.98 100.99 151.57 100.87 152.17 100.77 152.76 100.67 153.37 100.59 153.97 100.51 154.57 100.45 155.17 100.33 156.38 100.24 157.59 100.18 158.8 100.12 160 100.09 161.21 100.07 162.41 100.07 163.61 100.08 164.81 100.09 166.02 100.13 167.22 100.18 168.42 100.24 169.63 100.31 170.83 100.39 172.03 100.48 173.24 100.58 174.45 100.69 175.65 100.93 178.06 101.19 180.47 101.48 182.87 101.79 185.26 102.26 188.85 102.75 192.44 103.26 196.02 103.81 199.6 104.37 203.18 105.12 207.95 105.67 211.53"/></g><g id="LINE-13" data-name="LINE"><line class="cls-5" x1="142.44" y1="129.27" x2="142.41" y2="129.27"/></g><g id="LINE-14" data-name="LINE"><line class="cls-5" x1="142.44" y1="129.27" x2="143.38" y2="129.27"/></g><g id="LINE-15" data-name="LINE"><line class="cls-5" x1="142.44" y1="129.27" x2="144.23" y2="129.27"/></g><g id="LINE-16" data-name="LINE"><line class="cls-5" x1="156.02" y1="129.27" x2="156.87" y2="129.27"/></g><g id="LINE-17" data-name="LINE"><line class="cls-5" x1="157.81" y1="129.27" x2="157.85" y2="129.27"/></g><g id="LINE-18" data-name="LINE"><line class="cls-5" x1="157.81" y1="129.27" x2="156.87" y2="129.27"/></g><g id="LINE-19" data-name="LINE"><line class="cls-5" x1="157.81" y1="129.27" x2="143.38" y2="129.27"/></g><g id="LWPOLYLINE-2" data-name="LWPOLYLINE"><polyline class="cls-5" points="157.85 129.26 159.06 129.31 160.27 129.38 161.48 129.46 162.68 129.55 163.88 129.65 165.08 129.77 166.28 129.9 167.47 130.05 168.66 130.21 169.85 130.38 171.04 130.57 172.23 130.78 173.42 131 174.61 131.24 175.8 131.5 176.98 131.77 178.16 132.07 179.33 132.41 179.92 132.58 180.5 132.76 181.07 132.96 181.65 133.15 182.22 133.36 182.78 133.58 183.34 133.81 183.9 134.04 184.45 134.29 185 134.54 185.54 134.81 186.07 135.09 186.6 135.38 187.12 135.68 187.63 135.99 188.14 136.31 188.65 136.64 189.14 136.99 189.63 137.34 190.11 137.71 190.58 138.08 191.05 138.47 191.51 138.86 191.96 139.27 192.41 139.69 192.84 140.11 193.27 140.55 193.69 140.99 194.1 141.44 194.5 141.91 194.89 142.38 195.27 142.85 195.63 143.34 195.99 143.84 196.33 144.34 196.65 144.85 196.96 145.37 197.26 145.91 197.54 146.44 197.79 146.99 198.04 147.54 198.27 148.09 198.47 148.66 198.67 149.24 198.84 149.81 198.99 150.39 199.13 150.98 199.26 151.57 199.38 152.17 199.48 152.76 199.58 153.37 199.66 153.97 199.78 154.96 199.88 155.96 199.97 156.96 200.03 157.96"/></g><g id="LWPOLYLINE-3" data-name="LWPOLYLINE"><polyline class="cls-5" points="200.18 162.28 200.19 163.61 200.17 164.81 200.15 166.02 200.12 167.22 200.07 168.42 200.02 169.63 199.94 170.83 199.87 172.03 199.78 173.24 199.67 174.45 199.57 175.65 199.32 178.06 199.06 180.47 198.77 182.87 198.46 185.26 197.99 188.85 197.5 192.44 196.99 196.02 196.44 199.6 195.88 203.18 195.13 207.95 194.58 211.53"/></g><g id="LINE-20" data-name="LINE"><line class="cls-5" x1="152.78" y1="129.15" x2="144.58" y2="129.15"/></g><g id="LINE-21" data-name="LINE"><line class="cls-5" x1="155.67" y1="129.15" x2="152.78" y2="129.15"/></g><g id="LINE-22" data-name="LINE"><line class="cls-5" x1="146.97" y1="129.09" x2="151.64" y2="129.09"/></g><g id="LINE-23" data-name="LINE"><line class="cls-5" x1="151.64" y1="129.09" x2="153.28" y2="129.09"/></g><g id="LWPOLYLINE-4" data-name="LWPOLYLINE"><polyline class="cls-5" points="150.45 129.12 149.72 129.12 149.55 129.11 149.46 129.1 149.45 129.1 149.45 129.1 149.45 129.1 149.48 129.1 149.58 129.09 149.8 129.09"/></g><g id="LWPOLYLINE-5" data-name="LWPOLYLINE"><polyline class="cls-5" points="149.8 129.09 150.43 129.09 150.64 129.09 150.72 129.1 150.78 129.1 150.8 129.1 150.8 129.1 150.8 129.1 150.79 129.1 150.67 129.11 150.45 129.12"/></g><g id="ARC-3" data-name="ARC"><path class="cls-5" d="M144.58,129.15a.57.57,0,0,0-.35.12"/></g><g id="ARC-4" data-name="ARC"><path class="cls-5" d="M156,129.27a.55.55,0,0,0-.35-.12"/></g><g id="LINE-24" data-name="LINE"><line class="cls-5" x1="146.99" y1="129.09" x2="148.48" y2="129.09"/></g><g id="LINE-25" data-name="LINE"><line class="cls-5" x1="146.99" y1="129.09" x2="146.97" y2="129.09"/></g><g id="LINE-26" data-name="LINE"><line class="cls-5" x1="146.99" y1="129.09" x2="151.63" y2="129.09"/></g><g id="LINE-27" data-name="LINE"><line class="cls-5" x1="153.26" y1="129.09" x2="151.63" y2="129.09"/></g><g id="LINE-28" data-name="LINE"><line class="cls-5" x1="153.26" y1="129.09" x2="153.28" y2="129.09"/></g><g id="LINE-29" data-name="LINE"><line class="cls-5" x1="153.26" y1="129.09" x2="151.77" y2="129.09"/></g><g id="ARC-5" data-name="ARC"><path class="cls-5" d="M155.67,129.15c-.79,0-1.59-.05-2.39-.06"/></g><g id="ARC-6" data-name="ARC"><path class="cls-5" d="M147,129.09c-.8,0-1.59,0-2.39.06"/></g><g id="LWPOLYLINE-6" data-name="LWPOLYLINE"><polyline class="cls-5" points="150.79 129.1 150.48 129.12 150.45 129.12"/></g><g id="LWPOLYLINE-7" data-name="LWPOLYLINE"><polyline class="cls-5" points="149.46 129.1 149.61 129.11 150.14 129.12 150.45 129.12"/></g><g id="LINE-30" data-name="LINE"><line class="cls-5" x1="106.6" y1="211.53" x2="106.6" y2="211.73"/></g><g id="LINE-31" data-name="LINE"><line class="cls-5" x1="187.49" y1="211.73" x2="187.49" y2="211.53"/></g><g id="LINE-32" data-name="LINE"><line class="cls-5" x1="171.33" y1="211.73" x2="171.33" y2="211.53"/></g><g id="LINE-33" data-name="LINE"><line class="cls-5" x1="150.77" y1="211.53" x2="150.77" y2="211.73"/></g><g id="LINE-34" data-name="LINE"><line class="cls-5" x1="106.56" y1="211.53" x2="106.56" y2="211.7"/></g><g id="LINE-35" data-name="LINE"><line class="cls-5" x1="106.56" y1="211.7" x2="106.6" y2="211.73"/></g><g id="LINE-36" data-name="LINE"><line class="cls-5" x1="171.38" y1="211.7" x2="171.38" y2="211.53"/></g><g id="LWPOLYLINE-8" data-name="LWPOLYLINE"><polyline class="cls-5" points="171.38 211.69 171.37 211.71 171.35 211.73 171.33 211.74"/></g><g id="LINE-37" data-name="LINE"><line class="cls-5" x1="187.55" y1="211.7" x2="187.55" y2="211.53"/></g><g id="LWPOLYLINE-9" data-name="LWPOLYLINE"><polyline class="cls-5" points="187.55 211.69 187.52 211.72 187.49 211.74"/></g><g id="LINE-38" data-name="LINE"><line class="cls-5" x1="194.32" y1="211.73" x2="105.94" y2="211.73"/></g><g id="ARC-7" data-name="ARC"><path class="cls-5" d="M105.94,211.73a.08.08,0,0,0-.07.07l0,0"/></g><g id="LINE-39" data-name="LINE"><line class="cls-5" x1="194.36" y1="211.83" x2="105.89" y2="211.83"/></g><g id="ARC-8" data-name="ARC"><path class="cls-5" d="M194.36,211.83s0-.06,0-.08l0,0"/></g><g id="LINE-40" data-name="LINE"><line class="cls-5" x1="194.26" y1="211.7" x2="194.25" y2="211.7"/></g><g id="ELLIPSE"><path class="cls-5" d="M194.25,211.7s0,0,0,0"/></g><g id="ELLIPSE-2" data-name="ELLIPSE"><path class="cls-5" d="M194.21,211.73v0"/></g><g id="LINE-41" data-name="LINE"><line class="cls-5" x1="194.25" y1="211.7" x2="194.21" y2="211.7"/></g><g id="LINE-42" data-name="LINE"><line class="cls-5" x1="194.21" y1="211.7" x2="193.69" y2="211.7"/></g><g id="LINE-43" data-name="LINE"><line class="cls-5" x1="193.69" y1="211.7" x2="193.65" y2="211.73"/></g><g id="LINE-44" data-name="LINE"><line class="cls-5" x1="193.65" y1="211.53" x2="193.65" y2="211.73"/></g><g id="ELLIPSE-3" data-name="ELLIPSE"><path class="cls-5" d="M188.63,211.7a0,0,0,0,0,0,0"/></g><g id="LINE-45" data-name="LINE"><line class="cls-5" x1="188.63" y1="211.7" x2="188.63" y2="211.7"/></g><g id="ELLIPSE-4" data-name="ELLIPSE"><path class="cls-5" d="M188.05,211.7a0,0,0,0,0,0,0"/></g><g id="LINE-46" data-name="LINE"><line class="cls-5" x1="188.63" y1="211.7" x2="188.05" y2="211.7"/></g><g id="ELLIPSE-5" data-name="ELLIPSE"><path class="cls-5" d="M188,211.73s0,0,0,0"/></g><g id="LINE-47" data-name="LINE"><line class="cls-5" x1="188.05" y1="211.7" x2="187.99" y2="211.7"/></g><g id="LINE-48" data-name="LINE"><line class="cls-5" x1="187.99" y1="211.7" x2="187.55" y2="211.7"/></g><g id="ELLIPSE-6" data-name="ELLIPSE"><path class="cls-5" d="M172.68,211.7s0,0,0,0"/></g><g id="LINE-49" data-name="LINE"><line class="cls-5" x1="172.7" y1="211.7" x2="172.68" y2="211.7"/></g><g id="ELLIPSE-7" data-name="ELLIPSE"><path class="cls-5" d="M171.69,211.7s0,0,0,0"/></g><g id="LINE-50" data-name="LINE"><line class="cls-5" x1="172.68" y1="211.7" x2="171.69" y2="211.7"/></g><g id="ELLIPSE-8" data-name="ELLIPSE"><path class="cls-5" d="M171.6,211.73s0,0,0,0"/></g><g id="LINE-51" data-name="LINE"><line class="cls-5" x1="171.69" y1="211.7" x2="171.64" y2="211.7"/></g><g id="LINE-52" data-name="LINE"><line class="cls-5" x1="171.64" y1="211.7" x2="171.38" y2="211.7"/></g><g id="ELLIPSE-9" data-name="ELLIPSE"><path class="cls-5" d="M150.7,211.7v0"/></g><g id="LINE-53" data-name="LINE"><line class="cls-5" x1="150.74" y1="211.7" x2="150.7" y2="211.7"/></g><g id="ELLIPSE-10" data-name="ELLIPSE"><path class="cls-5" d="M149.55,211.73v0"/></g><g id="LINE-54" data-name="LINE"><line class="cls-5" x1="150.7" y1="211.7" x2="149.55" y2="211.7"/></g><g id="LINE-55" data-name="LINE"><line class="cls-5" x1="149.55" y1="211.7" x2="149.51" y2="211.7"/></g><g id="LINE-56" data-name="LINE"><line class="cls-5" x1="149.48" y1="211.73" x2="149.48" y2="211.53"/></g><g id="LINE-57" data-name="LINE"><line class="cls-5" x1="128.93" y1="211.53" x2="128.92" y2="211.73"/></g><g id="ELLIPSE-11" data-name="ELLIPSE"><path class="cls-5" d="M128.62,211.7a0,0,0,0,0,0,0"/></g><g id="LINE-58" data-name="LINE"><line class="cls-5" x1="128.87" y1="211.7" x2="128.62" y2="211.7"/></g><g id="LWPOLYLINE-10" data-name="LWPOLYLINE"><polyline class="cls-5" points="128.87 211.69 128.88 211.71 128.9 211.73 128.92 211.74"/></g><g id="ELLIPSE-12" data-name="ELLIPSE"><path class="cls-5" d="M128.54,211.73s0,0,0,0"/></g><g id="LINE-59" data-name="LINE"><line class="cls-5" x1="128.62" y1="211.7" x2="128.56" y2="211.7"/></g><g id="LINE-60" data-name="LINE"><line class="cls-5" x1="128.56" y1="211.7" x2="127.57" y2="211.7"/></g><g id="ELLIPSE-13" data-name="ELLIPSE"><path class="cls-5" d="M127.54,211.73a0,0,0,0,0,0,0"/></g><g id="LINE-61" data-name="LINE"><line class="cls-5" x1="127.57" y1="211.7" x2="127.55" y2="211.7"/></g><g id="LINE-62" data-name="LINE"><line class="cls-5" x1="112.76" y1="211.53" x2="112.75" y2="211.73"/></g><g id="ELLIPSE-14" data-name="ELLIPSE"><path class="cls-5" d="M112.26,211.7s0,0,0,0"/></g><g id="LINE-63" data-name="LINE"><line class="cls-5" x1="112.7" y1="211.7" x2="112.26" y2="211.7"/></g><g id="LWPOLYLINE-11" data-name="LWPOLYLINE"><polyline class="cls-5" points="112.7 211.69 112.73 211.72 112.75 211.74"/></g><g id="ELLIPSE-15" data-name="ELLIPSE"><path class="cls-5" d="M112.17,211.73a0,0,0,0,0,0,0"/></g><g id="LINE-64" data-name="LINE"><line class="cls-5" x1="112.26" y1="211.7" x2="112.2" y2="211.7"/></g><g id="ELLIPSE-16" data-name="ELLIPSE"><path class="cls-5" d="M111.59,211.73s0,0,0,0"/></g><g id="LINE-65" data-name="LINE"><line class="cls-5" x1="112.2" y1="211.7" x2="111.63" y2="211.7"/></g><g id="LINE-66" data-name="LINE"><line class="cls-5" x1="111.63" y1="211.7" x2="111.62" y2="211.7"/></g><g id="ELLIPSE-17" data-name="ELLIPSE"><path class="cls-5" d="M106,211.7v0"/></g><g id="LINE-67" data-name="LINE"><line class="cls-5" x1="106.04" y1="211.7" x2="106.56" y2="211.7"/></g><g id="ELLIPSE-18" data-name="ELLIPSE"><path class="cls-5" d="M106,211.73s0,0,0,0"/></g><g id="LINE-68" data-name="LINE"><line class="cls-5" x1="106.04" y1="211.7" x2="106" y2="211.7"/></g><g id="LINE-69" data-name="LINE"><line class="cls-5" x1="106" y1="211.7" x2="106" y2="211.7"/></g><g id="LINE-70" data-name="LINE"><line class="cls-5" x1="106.04" y1="211.57" x2="106.04" y2="211.7"/></g><g id="LINE-71" data-name="LINE"><line class="cls-5" x1="106.41" y1="211.57" x2="106.04" y2="211.57"/></g><g id="ARC-9" data-name="ARC"><path class="cls-5" d="M106.41,211.57a.08.08,0,0,0,.07,0"/></g><g id="LINE-72" data-name="LINE"><line class="cls-5" x1="193.69" y1="211.53" x2="193.69" y2="211.7"/></g><g id="LINE-73" data-name="LINE"><line class="cls-5" x1="194.21" y1="211.57" x2="194.21" y2="211.7"/></g><g id="LINE-74" data-name="LINE"><line class="cls-5" x1="193.83" y1="211.57" x2="194.21" y2="211.57"/></g><g id="ARC-10" data-name="ARC"><path class="cls-5" d="M193.77,211.53a.08.08,0,0,0,.06,0"/></g><g id="LINE-75" data-name="LINE"><line class="cls-5" x1="187.99" y1="211.61" x2="187.99" y2="211.7"/></g><g id="LINE-76" data-name="LINE"><line class="cls-5" x1="187.67" y1="211.61" x2="187.99" y2="211.61"/></g><g id="ELLIPSE-19" data-name="ELLIPSE"><path class="cls-5" d="M187.58,211.53a.09.09,0,0,0,.09.08"/></g><g id="LINE-77" data-name="LINE"><line class="cls-5" x1="112.26" y1="211.7" x2="112.26" y2="211.57"/></g><g id="LINE-78" data-name="LINE"><line class="cls-5" x1="112.26" y1="211.57" x2="112.57" y2="211.57"/></g><g id="ARC-11" data-name="ARC"><path class="cls-5" d="M112.57,211.57a.1.1,0,0,0,.07,0"/></g><g id="LINE-79" data-name="LINE"><line class="cls-5" x1="112.7" y1="211.53" x2="112.7" y2="211.7"/></g><g id="LINE-80" data-name="LINE"><line class="cls-5" x1="128.87" y1="211.53" x2="128.87" y2="211.7"/></g><g id="LINE-81" data-name="LINE"><line class="cls-5" x1="128.62" y1="211.7" x2="128.62" y2="211.57"/></g><g id="LINE-82" data-name="LINE"><line class="cls-5" x1="128.8" y1="211.57" x2="128.62" y2="211.57"/></g><g id="ELLIPSE-20" data-name="ELLIPSE"><path class="cls-5" d="M128.8,211.57a0,0,0,0,0,0,0"/></g><g id="LINE-83" data-name="LINE"><line class="cls-5" x1="171.64" y1="211.57" x2="171.64" y2="211.7"/></g><g id="LINE-84" data-name="LINE"><line class="cls-5" x1="171.46" y1="211.57" x2="171.64" y2="211.57"/></g><g id="ELLIPSE-21" data-name="ELLIPSE"><path class="cls-5" d="M171.42,211.53a0,0,0,0,0,0,0"/></g><g id="LINE-85" data-name="LINE"><line class="cls-5" x1="194.3" y1="211.93" x2="105.96" y2="211.93"/></g><g id="LINE-86" data-name="LINE"><line class="cls-5" x1="105.89" y1="211.83" x2="105.96" y2="211.93"/></g><g id="LINE-87" data-name="LINE"><line class="cls-5" x1="194.36" y1="211.83" x2="194.3" y2="211.93"/></g><g id="LINE-88" data-name="LINE"><line class="cls-5" x1="194.25" y1="211.57" x2="194.25" y2="211.7"/></g><g id="LINE-89" data-name="LINE"><line class="cls-5" x1="194.26" y1="211.57" x2="194.25" y2="211.57"/></g><g id="LINE-90" data-name="LINE"><line class="cls-5" x1="194.21" y1="211.57" x2="194.25" y2="211.57"/></g><g id="LINE-91" data-name="LINE"><line class="cls-5" x1="188.63" y1="211.57" x2="188.63" y2="211.57"/></g><g id="LINE-92" data-name="LINE"><line class="cls-5" x1="188.63" y1="211.7" x2="188.63" y2="211.57"/></g><g id="LINE-93" data-name="LINE"><line class="cls-5" x1="188.05" y1="211.57" x2="188.05" y2="211.7"/></g><g id="LINE-94" data-name="LINE"><line class="cls-5" x1="188.63" y1="211.57" x2="188.05" y2="211.57"/></g><g id="LINE-95" data-name="LINE"><line class="cls-5" x1="188.02" y1="211.57" x2="188.05" y2="211.57"/></g><g id="ARC-12" data-name="ARC"><path class="cls-5" d="M188,211.57s0,0,0,0"/></g><g id="LINE-96" data-name="LINE"><line class="cls-5" x1="172.68" y1="211.57" x2="172.7" y2="211.57"/></g><g id="LINE-97" data-name="LINE"><line class="cls-5" x1="172.68" y1="211.7" x2="172.68" y2="211.57"/></g><g id="LINE-98" data-name="LINE"><line class="cls-5" x1="172.68" y1="211.57" x2="171.69" y2="211.57"/></g><g id="LINE-99" data-name="LINE"><line class="cls-5" x1="171.69" y1="211.57" x2="171.69" y2="211.7"/></g><g id="LINE-100" data-name="LINE"><line class="cls-5" x1="171.64" y1="211.57" x2="171.69" y2="211.57"/></g><g id="LINE-101" data-name="LINE"><line class="cls-5" x1="150.7" y1="211.57" x2="150.74" y2="211.57"/></g><g id="LINE-102" data-name="LINE"><line class="cls-5" x1="150.7" y1="211.7" x2="150.7" y2="211.57"/></g><g id="LINE-103" data-name="LINE"><line class="cls-5" x1="149.55" y1="211.7" x2="149.55" y2="211.57"/></g><g id="LINE-104" data-name="LINE"><line class="cls-5" x1="150.7" y1="211.57" x2="149.55" y2="211.57"/></g><g id="LINE-105" data-name="LINE"><line class="cls-5" x1="149.55" y1="211.57" x2="149.51" y2="211.57"/></g><g id="LINE-106" data-name="LINE"><line class="cls-5" x1="128.56" y1="211.7" x2="128.56" y2="211.57"/></g><g id="LINE-107" data-name="LINE"><line class="cls-5" x1="128.62" y1="211.57" x2="128.56" y2="211.57"/></g><g id="LINE-108" data-name="LINE"><line class="cls-5" x1="127.57" y1="211.57" x2="127.57" y2="211.7"/></g><g id="LINE-109" data-name="LINE"><line class="cls-5" x1="128.56" y1="211.57" x2="127.57" y2="211.57"/></g><g id="LINE-110" data-name="LINE"><line class="cls-5" x1="127.55" y1="211.57" x2="127.57" y2="211.57"/></g><g id="LINE-111" data-name="LINE"><line class="cls-5" x1="112.26" y1="211.57" x2="112.2" y2="211.57"/></g><g id="LINE-112" data-name="LINE"><line class="cls-5" x1="112.2" y1="211.7" x2="112.2" y2="211.57"/></g><g id="LINE-113" data-name="LINE"><line class="cls-5" x1="111.63" y1="211.57" x2="111.63" y2="211.7"/></g><g id="LINE-114" data-name="LINE"><line class="cls-5" x1="112.2" y1="211.57" x2="111.63" y2="211.57"/></g><g id="LINE-115" data-name="LINE"><line class="cls-5" x1="111.62" y1="211.57" x2="111.63" y2="211.57"/></g><g id="LINE-116" data-name="LINE"><line class="cls-5" x1="106" y1="211.57" x2="106.04" y2="211.57"/></g><g id="LINE-117" data-name="LINE"><line class="cls-5" x1="106" y1="211.57" x2="106" y2="211.7"/></g><g id="LINE-118" data-name="LINE"><line class="cls-5" x1="106" y1="211.57" x2="106" y2="211.57"/></g><g id="ELLIPSE-22" data-name="ELLIPSE"><path class="cls-5" d="M106.41,211.57v0"/></g><g id="ELLIPSE-23" data-name="ELLIPSE"><path class="cls-5" d="M106,211.57v0"/></g><g id="ARC-13" data-name="ARC"><path class="cls-5" d="M111.64,211.54h0"/></g><g id="ARC-14" data-name="ARC"><path class="cls-5" d="M111.68,211.53h0"/></g><g id="ELLIPSE-24" data-name="ELLIPSE"><path class="cls-5" d="M194.21,211.53v0"/></g><g id="ELLIPSE-25" data-name="ELLIPSE"><path class="cls-5" d="M193.83,211.53v0"/></g><g id="LINE-119" data-name="LINE"><line class="cls-5" x1="187.71" y1="211.53" x2="188.04" y2="211.53"/></g><g id="ELLIPSE-26" data-name="ELLIPSE"><path class="cls-5" d="M187.71,211.53a.1.1,0,0,0,0,.08"/></g><g id="ARC-15" data-name="ARC"><path class="cls-5" d="M188,211.57s0,0,0,0"/></g><g id="ARC-16" data-name="ARC"><path class="cls-5" d="M188,211.54h0"/></g><g id="ELLIPSE-27" data-name="ELLIPSE"><path class="cls-5" d="M112.26,211.57s0,0,0,0"/></g><g id="ELLIPSE-28" data-name="ELLIPSE"><path class="cls-5" d="M112.57,211.57s0,0,0,0"/></g><g id="LINE-120" data-name="LINE"><line class="cls-5" x1="112.24" y1="211.53" x2="112.55" y2="211.53"/></g><g id="ELLIPSE-29" data-name="ELLIPSE"><path class="cls-5" d="M128.8,211.57a0,0,0,0,0,0,0"/></g><g id="LINE-121" data-name="LINE"><line class="cls-5" x1="128.76" y1="211.53" x2="128.58" y2="211.53"/></g><g id="ELLIPSE-30" data-name="ELLIPSE"><path class="cls-5" d="M128.62,211.57a0,0,0,0,0,0,0"/></g><g id="ELLIPSE-31" data-name="ELLIPSE"><path class="cls-5" d="M149.55,211.53h0"/></g><g id="ELLIPSE-32" data-name="ELLIPSE"><path class="cls-5" d="M150.72,211.54h0"/></g><g id="ELLIPSE-33" data-name="ELLIPSE"><path class="cls-5" d="M171.67,211.53s0,0,0,0"/></g><g id="LINE-122" data-name="LINE"><line class="cls-5" x1="171.49" y1="211.53" x2="171.67" y2="211.53"/></g><g id="ELLIPSE-34" data-name="ELLIPSE"><path class="cls-5" d="M171.49,211.53s0,0,0,0"/></g><g id="ARC-17" data-name="ARC"><path class="cls-5" d="M193.33,212.63a2.12,2.12,0,0,0,1-.7"/></g><g id="LINE-123" data-name="LINE"><line class="cls-5" x1="193.33" y1="212.63" x2="106.92" y2="212.63"/></g><g id="ARC-18" data-name="ARC"><path class="cls-5" d="M106,211.93a2,2,0,0,0,1,.7"/></g><g id="ELLIPSE-35" data-name="ELLIPSE"><path class="cls-5" d="M194.25,211.57a0,0,0,0,0,0,0"/></g><g id="ELLIPSE-36" data-name="ELLIPSE"><path class="cls-5" d="M188.63,211.57a0,0,0,0,0,0,0"/></g><g id="ELLIPSE-37" data-name="ELLIPSE"><path class="cls-5" d="M188.05,211.57a0,0,0,0,0,0,0"/></g><g id="LINE-124" data-name="LINE"><line class="cls-5" x1="188.59" y1="211.53" x2="188.04" y2="211.53"/></g><g id="ELLIPSE-38" data-name="ELLIPSE"><path class="cls-5" d="M172.68,211.57s0,0,0,0"/></g><g id="LINE-125" data-name="LINE"><line class="cls-5" x1="172.67" y1="211.53" x2="171.67" y2="211.53"/></g><g id="ELLIPSE-39" data-name="ELLIPSE"><path class="cls-5" d="M171.69,211.57s0,0,0,0"/></g><g id="ELLIPSE-40" data-name="ELLIPSE"><path class="cls-5" d="M150.7,211.57v0"/></g><g id="LINE-126" data-name="LINE"><line class="cls-5" x1="150.7" y1="211.53" x2="149.55" y2="211.53"/></g><g id="ELLIPSE-41" data-name="ELLIPSE"><path class="cls-5" d="M149.55,211.53v0"/></g><g id="ELLIPSE-42" data-name="ELLIPSE"><path class="cls-5" d="M128.58,211.53s0,0,0,0"/></g><g id="LINE-127" data-name="LINE"><line class="cls-5" x1="128.58" y1="211.53" x2="127.59" y2="211.53"/></g><g id="ELLIPSE-43" data-name="ELLIPSE"><path class="cls-5" d="M127.59,211.53s0,0,0,0"/></g><g id="ELLIPSE-44" data-name="ELLIPSE"><path class="cls-5" d="M112.24,211.53a0,0,0,0,0,0,0"/></g><g id="ELLIPSE-45" data-name="ELLIPSE"><path class="cls-5" d="M111.64,211.54a0,0,0,0,0,0,0"/></g><g id="LINE-128" data-name="LINE"><line class="cls-5" x1="112.24" y1="211.53" x2="111.68" y2="211.53"/></g><g id="ELLIPSE-46" data-name="ELLIPSE"><path class="cls-5" d="M106,211.53a0,0,0,0,0,0,0"/></g><g id="LWPOLYLINE-12" data-name="LWPOLYLINE"><polyline class="cls-5" points="193.33 212.63 193.02 212.74 192.69 212.84 192.29 212.96 191.87 213.06 191.03 213.26 190.14 213.45 189.2 213.62 188.22 213.78 187.46 213.9 186.68 214.01 185.07 214.22 184.03 214.34 182.98 214.45 180.82 214.66 178.61 214.85 176.36 215.01 174.08 215.16 172.4 215.26 170.72 215.35 168.93 215.43 167.14 215.51 164.5 215.61 161.87 215.69 159.26 215.75 156.39 215.81 153.59 215.84 150.88 215.85"/></g><g id="LWPOLYLINE-13" data-name="LWPOLYLINE"><polyline class="cls-5" points="106.92 212.63 107.23 212.74 107.56 212.84 107.96 212.96 108.38 213.06 109.22 213.26 110.11 213.45 111.05 213.62 112.03 213.78 112.79 213.9 113.57 214.01 115.18 214.22 116.22 214.34 117.27 214.45 119.43 214.66 121.64 214.85 123.9 215.01 126.17 215.16 127.85 215.26 129.53 215.35 131.32 215.43 133.11 215.51 135.76 215.61 138.39 215.69 141.01 215.75 143.91 215.81 146.73 215.84 149.46 215.85"/></g><g id="ARC-19" data-name="ARC"><path class="cls-5" d="M194.26,211.7s0,0,0,0"/></g><g id="ARC-20" data-name="ARC"><path class="cls-5" d="M188.63,211.7s0,0,.05,0"/></g><g id="ARC-21" data-name="ARC"><path class="cls-5" d="M172.7,211.7s0,0,0,0"/></g><g id="ARC-22" data-name="ARC"><path class="cls-5" d="M150.74,211.7s0,0,0,0"/></g><g id="ARC-23" data-name="ARC"><path class="cls-5" d="M149.47,211.73s0,0,0,0"/></g><g id="ARC-24" data-name="ARC"><path class="cls-5" d="M127.5,211.73s0,0,0,0"/></g><g id="ARC-25" data-name="ARC"><path class="cls-5" d="M111.58,211.73s0,0,0,0"/></g><g id="ARC-26" data-name="ARC"><path class="cls-5" d="M106,211.73s0,0,0,0"/></g><g id="LINE-129" data-name="LINE"><line class="cls-5" x1="194.26" y1="211.7" x2="194.26" y2="211.57"/></g><g id="LINE-130" data-name="LINE"><line class="cls-5" x1="188.63" y1="211.7" x2="188.63" y2="211.57"/></g><g id="LINE-131" data-name="LINE"><line class="cls-5" x1="172.7" y1="211.7" x2="172.7" y2="211.57"/></g><g id="LINE-132" data-name="LINE"><line class="cls-5" x1="150.74" y1="211.7" x2="150.74" y2="211.57"/></g><g id="LINE-133" data-name="LINE"><line class="cls-5" x1="149.51" y1="211.7" x2="149.51" y2="211.57"/></g><g id="LINE-134" data-name="LINE"><line class="cls-5" x1="127.55" y1="211.57" x2="127.55" y2="211.7"/></g><g id="LINE-135" data-name="LINE"><line class="cls-5" x1="111.62" y1="211.57" x2="111.62" y2="211.7"/></g><g id="LINE-136" data-name="LINE"><line class="cls-5" x1="106" y1="211.7" x2="106" y2="211.57"/></g><g id="LINE-137" data-name="LINE"><line class="cls-5" x1="149.51" y1="211.55" x2="149.51" y2="211.53"/></g><g id="LINE-138" data-name="LINE"><line class="cls-5" x1="150.74" y1="211.55" x2="150.74" y2="211.53"/></g><g id="ARC-27" data-name="ARC"><path class="cls-5" d="M194.26,211.57s0,0,0,0"/></g><g id="ARC-28" data-name="ARC"><path class="cls-5" d="M188.63,211.57a0,0,0,0,0,0,0"/></g><g id="ARC-29" data-name="ARC"><path class="cls-5" d="M172.7,211.57s0,0,0,0"/></g><g id="ARC-30" data-name="ARC"><path class="cls-5" d="M150.74,211.57s0,0,0,0"/></g><g id="ARC-31" data-name="ARC"><path class="cls-5" d="M149.53,211.54s0,0,0,0"/></g><g id="ARC-32" data-name="ARC"><path class="cls-5" d="M127.59,211.53a0,0,0,0,0,0,0"/></g><g id="ARC-33" data-name="ARC"><path class="cls-5" d="M111.62,211.55v0"/></g><g id="ARC-34" data-name="ARC"><path class="cls-5" d="M106,211.53a0,0,0,0,0,0,0"/></g><g id="LINE-139" data-name="LINE"><line class="cls-5" x1="149.46" y1="215.85" x2="150.88" y2="215.85"/></g><g id="LINE-140" data-name="LINE"><line class="cls-5" x1="212.19" y1="165.35" x2="212.19" y2="162.63"/></g><g id="LINE-141" data-name="LINE"><line class="cls-5" x1="212.19" y1="162.63" x2="212.19" y2="154.9"/></g><g id="LINE-142" data-name="LINE"><line class="cls-5" x1="210.25" y1="166.98" x2="210.25" y2="163.41"/></g><g id="LINE-143" data-name="LINE"><line class="cls-5" x1="210.25" y1="163.41" x2="210.25" y2="153.27"/></g><g id="LINE-144" data-name="LINE"><line class="cls-5" x1="200.4" y1="163.47" x2="200.4" y2="153.14"/></g><g id="LINE-145" data-name="LINE"><line class="cls-5" x1="200.61" y1="163.57" x2="200.61" y2="152.93"/></g><g id="LINE-146" data-name="LINE"><line class="cls-5" x1="200.4" y1="167.1" x2="200.4" y2="163.47"/></g><g id="LINE-147" data-name="LINE"><line class="cls-5" x1="200.61" y1="167.31" x2="200.61" y2="163.57"/></g><g id="LWPOLYLINE-14" data-name="LWPOLYLINE"><polyline class="cls-5" points="204.62 167.08 204.99 167 205.41 166.92 205.84 166.85 206.3 166.81 206.76 166.79 207.21 166.79 207.65 166.82 207.99 166.85"/></g><g id="ARC-35" data-name="ARC"><path class="cls-5" d="M208.94,167l-.33-.07"/></g><g id="LWPOLYLINE-15" data-name="LWPOLYLINE"><polyline class="cls-5" points="204.24 167.19 204.65 167.08 205.02 166.99 205.46 166.91 205.73 166.87 206 166.84 206.37 166.81 206.74 166.79 207.11 166.79 207.52 166.81 207.91 166.85 208.29 166.9 208.61 166.95"/></g><g id="LWPOLYLINE-16" data-name="LWPOLYLINE"><polyline class="cls-5" points="204.62 153.16 205.02 153.25 205.47 153.34 205.74 153.37 206.01 153.41 206.37 153.44 206.75 153.45 207.12 153.45 207.53 153.43 207.94 153.39 208.21 153.36 208.67 153.28 208.94 153.22"/></g><g id="ARC-36" data-name="ARC"><path class="cls-5" d="M204.24,153.06l.38.1"/></g><g id="LWPOLYLINE-17" data-name="LWPOLYLINE"><polyline class="cls-5" points="212.19 165.35 212.36 164.49 212.43 164.06 212.53 163.31 212.61 162.68 212.66 162.14 212.7 161.57 212.72 160.96 212.74 160.4 212.74 160.12"/></g><g id="ARC-37" data-name="ARC"><path class="cls-5" d="M212.74,160.12a24.68,24.68,0,0,0-.55-5.22"/></g><g id="ARC-38" data-name="ARC"><path class="cls-5" d="M210.25,167a2.08,2.08,0,0,0,1.94-1.63"/></g><g id="ARC-39" data-name="ARC"><path class="cls-5" d="M212.19,154.9a2.06,2.06,0,0,0-1.94-1.63"/></g><g id="ARC-40" data-name="ARC"><path class="cls-5" d="M200.61,152.93a.22.22,0,0,0-.21.2h0"/></g><g id="ARC-41" data-name="ARC"><path class="cls-5" d="M200.4,167.1a.21.21,0,0,0,.21.21h0"/></g><g id="LINE-148" data-name="LINE"><line class="cls-5" x1="200.2" y1="162.23" x2="200.17" y2="162.22"/></g><g id="ARC-42" data-name="ARC"><path class="cls-5" d="M200,158.07a.42.42,0,0,0,.21-.06"/></g><g id="LINE-149" data-name="LINE"><line class="cls-5" x1="210.25" y1="166.98" x2="208.94" y2="167.02"/></g><g id="LINE-150" data-name="LINE"><line class="cls-5" x1="204.24" y1="167.19" x2="200.61" y2="167.31"/></g><g id="LINE-151" data-name="LINE"><line class="cls-5" x1="210.25" y1="153.27" x2="208.94" y2="153.22"/></g><g id="LINE-152" data-name="LINE"><line class="cls-5" x1="204.24" y1="153.06" x2="200.61" y2="152.93"/></g><g id="LINE-153" data-name="LINE"><line class="cls-5" x1="200.2" y1="160.12" x2="200.2" y2="155.91"/></g><g id="LINE-154" data-name="LINE"><line class="cls-5" x1="200.2" y1="164.34" x2="200.2" y2="160.12"/></g><g id="LINE-155" data-name="LINE"><line class="cls-5" x1="200.2" y1="155.91" x2="200.4" y2="155.91"/></g><g id="LINE-156" data-name="LINE"><line class="cls-5" x1="200.2" y1="164.34" x2="200.4" y2="164.34"/></g><g id="LINE-157" data-name="LINE"><line class="cls-5" x1="171.1" y1="57.92" x2="171.1" y2="56.28"/></g><g id="LINE-158" data-name="LINE"><line class="cls-5" x1="171.1" y1="59.57" x2="171.1" y2="57.92"/></g><g id="LINE-159" data-name="LINE"><line class="cls-5" x1="158.76" y1="57.92" x2="158.76" y2="56.28"/></g><g id="LINE-160" data-name="LINE"><line class="cls-5" x1="158.76" y1="59.57" x2="158.76" y2="57.92"/></g><g id="LINE-161" data-name="LINE"><line class="cls-5" x1="208.52" y1="166.94" x2="212.88" y2="243.26"/></g><g id="LINE-162" data-name="LINE"><line class="cls-5" x1="205.24" y1="166.95" x2="209.6" y2="243.26"/></g><g id="LWPOLYLINE-18" data-name="LWPOLYLINE"><polyline class="cls-5" points="208.62 153.29 208.7 151.76 208.75 150.73 208.79 149.68 208.79 149.14 208.78 148.61 208.76 148.08 208.74 147.54 208.69 147 208.63 146.45 208.55 145.91 208.45 145.37 208.33 144.84 208.19 144.31 208.04 143.79"/></g><g id="LWPOLYLINE-19" data-name="LWPOLYLINE"><polyline class="cls-5" points="205.32 153.31 205.41 151.74 205.46 150.72 205.49 149.73 205.5 149.25 205.5 148.77 205.49 148.3 205.46 147.84 205.42 147.38 205.37 146.93 205.31 146.49 205.23 146.05 205.14 145.62 205.02 145.2 204.9 144.79"/></g><g id="LINE-163" data-name="LINE"><line class="cls-5" x1="187.06" y1="77.99" x2="208.04" y2="143.79"/></g><g id="LINE-164" data-name="LINE"><line class="cls-5" x1="183.93" y1="78.98" x2="204.9" y2="144.79"/></g><g id="LWPOLYLINE-20" data-name="LWPOLYLINE"><polyline class="cls-5" points="187.06 77.99 186.26 75.5 185.72 73.87 185.16 72.23 184.87 71.41 184.57 70.58 184.26 69.75 183.94 68.93 183.61 68.1 183.28 67.28 182.91 66.46 182.53 65.65 182.14 64.84 181.72 64.04 181.27 63.24 181.04 62.85 180.79 62.46 180.55 62.08 180.29 61.7 180.02 61.33 179.75 60.96 179.47 60.6 179.17 60.25 178.87 59.91 178.56 59.57 178.22 59.24 177.89 58.93 177.53 58.62 177.16 58.33 176.78 58.05 176.39 57.8 176 57.55 175.59 57.33 175.17 57.13 174.74 56.95 174.31 56.79 173.86 56.66 173.41 56.54 172.96 56.44 172.5 56.37 172.03 56.32 171.56 56.29 171.1 56.27"/></g><g id="LWPOLYLINE-21" data-name="LWPOLYLINE"><polyline class="cls-5" points="183.93 78.98 183.13 76.52 182.6 74.91 182.06 73.31 181.77 72.51 181.49 71.72 181.19 70.92 180.88 70.13 180.57 69.34 180.25 68.57 179.91 67.81 179.57 67.06 179.21 66.33 178.82 65.61 178.43 64.91 178.02 64.23 177.81 63.9 177.59 63.58 177.37 63.27 177.14 62.97 176.91 62.68 176.68 62.4 176.44 62.13 176.2 61.87 175.95 61.62 175.69 61.38 175.44 61.16 175.17 60.95 174.9 60.76 174.63 60.58 174.36 60.41 174.09 60.27 173.81 60.13 173.53 60.01 173.25 59.91 172.96 59.82 172.66 59.74 172.37 59.68 172.06 59.63 171.75 59.59 171.42 59.58 171.1 59.57"/></g><g id="LINE-165" data-name="LINE"><line class="cls-5" x1="158.76" y1="56.28" x2="159.1" y2="56.28"/></g><g id="LWPOLYLINE-22" data-name="LWPOLYLINE"><polyline class="cls-5" points="158.76 56.27 158.43 56.28 158.1 56.31 157.77 56.34 157.44 56.39 157.11 56.46 156.78 56.54 156.46 56.63 156.14 56.73 155.82 56.85 155.51 56.98 155.2 57.12 154.9 57.27 154.61 57.43 154.32 57.6 154.03 57.78 153.75 57.96 153.48 58.16 153.21 58.37 152.94 58.58 152.68 58.8 152.42 59.02 152.18 59.26 151.93 59.5 151.7 59.74 151.47 59.99 151.25 60.24 151.03 60.5 150.82 60.77 150.62 61.04 150.43 61.31 150.24 61.59 150.05 61.88 149.88 62.17 149.71 62.47 149.55 62.77 149.4 63.08 149.26 63.39 149.13 63.7 149.01 64.02 148.9 64.34 148.8 64.66 148.72 64.98 148.65 65.31 148.59 65.64 148.54 65.97 148.51 66.3 148.49 66.64 148.48 66.97"/></g><g id="LWPOLYLINE-23" data-name="LWPOLYLINE"><polyline class="cls-5" points="158.76 59.57 158.58 59.57 158.39 59.58 158.2 59.61 158.01 59.63 157.81 59.67 157.62 59.72 157.42 59.77 157.22 59.84 157.02 59.91 156.82 60 156.42 60.19 156.02 60.41 155.62 60.67 155.22 60.97 154.83 61.29 154.45 61.63 154.09 62 153.75 62.38 153.43 62.78 153.13 63.18 152.85 63.61 152.6 64.04 152.38 64.47 152.19 64.91 152.04 65.34 151.92 65.76 151.87 65.96 151.83 66.17 151.81 66.37 151.79 66.57 151.78 66.77 151.77 66.97"/></g><g id="LINE-166" data-name="LINE"><line class="cls-5" x1="148.48" y1="71.49" x2="148.48" y2="66.97"/></g><g id="LINE-167" data-name="LINE"><line class="cls-5" x1="151.77" y1="71.49" x2="151.77" y2="66.97"/></g><g id="LINE-168" data-name="LINE"><line class="cls-5" x1="148.48" y1="129.09" x2="148.48" y2="71.49"/></g><g id="LINE-169" data-name="LINE"><line class="cls-5" x1="151.77" y1="129.09" x2="151.77" y2="71.49"/></g><g id="LINE-170" data-name="LINE"><line class="cls-5" x1="167.01" y1="61.42" x2="160.61" y2="61.42"/></g><g id="LINE-171" data-name="LINE"><line class="cls-5" x1="169.25" y1="61.42" x2="167.01" y2="61.42"/></g><g id="LINE-172" data-name="LINE"><line class="cls-5" x1="171.03" y1="53.19" x2="167.86" y2="53.19"/></g><g id="LINE-173" data-name="LINE"><line class="cls-5" x1="164.9" y1="53.19" x2="158.84" y2="53.19"/></g><g id="LWPOLYLINE-24" data-name="LWPOLYLINE"><polyline class="cls-5" points="158.76 59.57 158.9 59.16 158.98 58.89 159.05 58.56 159.12 58.22 159.15 57.94 159.18 57.66 159.19 57.33 159.18 57.01 159.15 56.7 159.13 56.46 159.09 56.24"/></g><g id="LWPOLYLINE-25" data-name="LWPOLYLINE"><polyline class="cls-5" points="159.09 56.24 159.01 55.85 158.95 55.62 158.84 55.25 158.76 55.04"/></g><g id="LWPOLYLINE-26" data-name="LWPOLYLINE"><polyline class="cls-5" points="158.76 55.04 158.84 55.26 158.96 55.65 159.01 55.88 159.1 56.27"/></g><g id="LWPOLYLINE-27" data-name="LWPOLYLINE"><polyline class="cls-5" points="158.97 55.25 159.03 55.52 159.11 55.81 159.14 55.99 159.19 56.27"/></g><g id="LWPOLYLINE-28" data-name="LWPOLYLINE"><polyline class="cls-5" points="171.1 55.04 171.03 55.26 170.9 55.65 170.85 55.88 170.76 56.27"/></g><g id="LWPOLYLINE-29" data-name="LWPOLYLINE"><polyline class="cls-5" points="170.89 55.25 170.83 55.52 170.76 55.81 170.72 55.99 170.67 56.27"/></g><g id="ARC-43" data-name="ARC"><path class="cls-5" d="M158.76,59.57a1.85,1.85,0,0,0,1.85,1.85"/></g><g id="LINE-174" data-name="LINE"><line class="cls-5" x1="171.03" y1="53.19" x2="171.1" y2="53.26"/></g><g id="ARC-44" data-name="ARC"><path class="cls-5" d="M169.25,61.42a1.85,1.85,0,0,0,1.85-1.85"/></g><g id="LINE-175" data-name="LINE"><line class="cls-5" x1="158.84" y1="53.19" x2="158.76" y2="53.26"/></g><g id="LINE-176" data-name="LINE"><line class="cls-5" x1="158.76" y1="55.04" x2="158.76" y2="53.26"/></g><g id="LINE-177" data-name="LINE"><line class="cls-5" x1="162" y1="47.02" x2="171.05" y2="47.02"/></g><g id="LINE-178" data-name="LINE"><line class="cls-5" x1="161.98" y1="47.08" x2="171.1" y2="47.08"/></g><g id="LINE-179" data-name="LINE"><line class="cls-5" x1="158.82" y1="47.02" x2="162" y2="47.02"/></g><g id="LINE-180" data-name="LINE"><line class="cls-5" x1="158.76" y1="47.08" x2="161.98" y2="47.08"/></g><g id="LINE-181" data-name="LINE"><line class="cls-5" x1="162" y1="53.19" x2="171.05" y2="53.19"/></g><g id="LINE-182" data-name="LINE"><line class="cls-5" x1="158.82" y1="53.19" x2="162" y2="53.19"/></g><g id="LINE-183" data-name="LINE"><line class="cls-5" x1="158.76" y1="53.13" x2="161.98" y2="53.13"/></g><g id="LINE-184" data-name="LINE"><line class="cls-5" x1="161.98" y1="53.13" x2="171.1" y2="53.13"/></g><g id="LWPOLYLINE-30" data-name="LWPOLYLINE"><polyline class="cls-5" points="164.16 51.44 164.24 51.56 164.33 51.66 164.43 51.75 164.55 51.82 164.68 51.87 164.82 51.9 164.96 51.9 165.1 51.89 165.23 51.85 165.37 51.79 165.48 51.71 165.58 51.62 165.66 51.51 165.73 51.38 165.77 51.26 165.8 51.12 165.8 50.95 165.78 50.86 165.76 50.78 165.73 50.7 165.7 50.62"/></g><g id="LWPOLYLINE-31" data-name="LWPOLYLINE"><polyline class="cls-5" points="165.7 50.62 165.63 50.51 165.53 50.41 165.43 50.32 165.31 50.25 165.18 50.2 165.04 50.17 164.9 50.16 164.76 50.18 164.62 50.22 164.5 50.28 164.38 50.36 164.28 50.45 164.2 50.56 164.13 50.68 164.09 50.81 164.06 50.95 164.06 51.12 164.07 51.2 164.1 51.28 164.13 51.37 164.16 51.44"/></g><g id="LINE-185" data-name="LINE"><line class="cls-5" x1="171.05" y1="47.02" x2="171.1" y2="47.08"/></g><g id="LINE-186" data-name="LINE"><line class="cls-5" x1="158.82" y1="47.02" x2="158.76" y2="47.08"/></g><g id="LINE-187" data-name="LINE"><line class="cls-5" x1="158.82" y1="53.19" x2="158.76" y2="53.13"/></g><g id="LINE-188" data-name="LINE"><line class="cls-5" x1="171.05" y1="53.19" x2="171.1" y2="53.13"/></g><g id="LINE-189" data-name="LINE"><line class="cls-5" x1="158.76" y1="47.08" x2="158.76" y2="53.13"/></g><g id="LINE-190" data-name="LINE"><line class="cls-5" x1="171.1" y1="47.08" x2="171.1" y2="53.13"/></g><g id="LINE-191" data-name="LINE"><line class="cls-5" x1="165.38" y1="50.88" x2="165.03" y2="50.57"/></g><g id="LINE-192" data-name="LINE"><line class="cls-5" x1="165.28" y1="51.35" x2="165.38" y2="50.88"/></g><g id="LINE-193" data-name="LINE"><line class="cls-5" x1="165.03" y1="50.57" x2="164.58" y2="50.72"/></g><g id="LINE-194" data-name="LINE"><line class="cls-5" x1="164.83" y1="51.5" x2="165.28" y2="51.35"/></g><g id="LINE-195" data-name="LINE"><line class="cls-5" x1="164.58" y1="50.72" x2="164.48" y2="51.18"/></g><g id="LINE-196" data-name="LINE"><line class="cls-5" x1="164.48" y1="51.18" x2="164.83" y2="51.5"/></g><g id="CIRCLE"><path class="cls-5" d="M165.63,51a.7.7,0,0,0-1.4,0,.7.7,0,0,0,1.4,0Z"/></g></svg>