<svg xmlns="http://www.w3.org/2000/svg" viewBox="0 0 300 263"><defs><style>.cls-1,.cls-2,.cls-3,.cls-4{fill:none;stroke-linecap:round;}.cls-1,.cls-2{stroke:red;}.cls-1,.cls-2,.cls-4{stroke-linejoin:round;}.cls-1,.cls-3,.cls-4{stroke-width:0.6px;}.cls-3,.cls-4{stroke:#000;}.cls-3{stroke-miterlimit:10;}</style></defs><title>aim-suspension-bouroullec-flos-F00900-curva_fotometrica</title><g id="numeri_esterni_diagramma" data-name="numeri esterni diagramma"><path d="M249.93,137.18h0a1.24,1.24,0,0,1-.37.12,1.84,1.84,0,0,1-.39,0,1.91,1.91,0,0,1-.68-.12,1.58,1.58,0,0,1-.54-.37,1.63,1.63,0,0,1-.36-.56,2.05,2.05,0,0,1-.13-.72,1.79,1.79,0,0,1,.15-.75,1.48,1.48,0,0,1,.4-.55,1.79,1.79,0,0,1,.6-.35,2,2,0,0,1,.75-.13,2.11,2.11,0,0,1,.75.13,1.79,1.79,0,0,1,.6.35,1.59,1.59,0,0,1,.4.55,1.79,1.79,0,0,1,.14.75,2.15,2.15,0,0,1,0,.45,1.68,1.68,0,0,1-.11.4,2.59,2.59,0,0,1-.17.38l-.21.36-1.51,2.39h-.78Zm-.59-.42a1.28,1.28,0,0,0,.48-.09,1,1,0,0,0,.39-.24,1.23,1.23,0,0,0,.26-.37,1.43,1.43,0,0,0,0-1,1.1,1.1,0,0,0-.65-.62,1.48,1.48,0,0,0-1,0,1.28,1.28,0,0,0-.39.24,1.12,1.12,0,0,0-.26.38,1.3,1.3,0,0,0,0,1,1.08,1.08,0,0,0,.26.37,1,1,0,0,0,.39.24A1.28,1.28,0,0,0,249.34,136.76Z"/><path d="M251.82,136.71a7.07,7.07,0,0,1,.08-1,3.19,3.19,0,0,1,.29-1,2,2,0,0,1,.59-.7,1.54,1.54,0,0,1,1-.28,1.49,1.49,0,0,1,.95.28,1.91,1.91,0,0,1,.59.7,2.94,2.94,0,0,1,.3,1,6.29,6.29,0,0,1,0,2,2.94,2.94,0,0,1-.3.95,1.91,1.91,0,0,1-.59.7,1.49,1.49,0,0,1-.95.28,1.54,1.54,0,0,1-1-.28,2,2,0,0,1-.59-.7,3.19,3.19,0,0,1-.29-.95A7.07,7.07,0,0,1,251.82,136.71Zm.67,0c0,.14,0,.29,0,.46a4.6,4.6,0,0,0,.06.52,4.7,4.7,0,0,0,.12.51,2,2,0,0,0,.23.44,1,1,0,0,0,.34.31,1,1,0,0,0,.48.11,1.06,1.06,0,0,0,.48-.11,1.24,1.24,0,0,0,.34-.31,1.65,1.65,0,0,0,.22-.44,3.18,3.18,0,0,0,.13-.51,4.6,4.6,0,0,0,.06-.52c0-.17,0-.32,0-.46s0-.29,0-.46a4.6,4.6,0,0,0-.06-.52,3.18,3.18,0,0,0-.13-.51,1.65,1.65,0,0,0-.22-.44,1.24,1.24,0,0,0-.34-.31,1.06,1.06,0,0,0-.48-.11,1,1,0,0,0-.48.11,1,1,0,0,0-.34.31,2,2,0,0,0-.23.44,4.7,4.7,0,0,0-.12.51,4.6,4.6,0,0,0-.06.52C252.5,136.42,252.49,136.57,252.49,136.71Z"/><path d="M256.42,134.93a1.13,1.13,0,0,1,.09-.45,1.31,1.31,0,0,1,.24-.37,1.18,1.18,0,0,1,.37-.24,1,1,0,0,1,.44-.09,1.13,1.13,0,0,1,.45.09,1.06,1.06,0,0,1,.61.61,1.13,1.13,0,0,1,.09.45,1,1,0,0,1-.09.44,1.06,1.06,0,0,1-.61.61,1.13,1.13,0,0,1-.45.09,1,1,0,0,1-.44-.09,1.18,1.18,0,0,1-.37-.24,1.31,1.31,0,0,1-.24-.37A1,1,0,0,1,256.42,134.93Zm.43,0a.69.69,0,0,0,0,.24,1,1,0,0,0,.15.24.73.73,0,0,0,.51.23.54.54,0,0,0,.29-.07.63.63,0,0,0,.23-.16.72.72,0,0,0,.14-.24.52.52,0,0,0,0-.24.56.56,0,0,0,0-.25.59.59,0,0,0-.14-.23.74.74,0,0,0-.52-.24.73.73,0,0,0-.29.07.62.62,0,0,0-.22.17.76.76,0,0,0-.15.23A.74.74,0,0,0,256.85,134.93Z"/><path d="M41.57,137.18h0a1.34,1.34,0,0,1-.37.12,2,2,0,0,1-.39,0,1.92,1.92,0,0,1-.69-.12,1.58,1.58,0,0,1-.54-.37,1.8,1.8,0,0,1-.36-.56,2.05,2.05,0,0,1-.13-.72,1.79,1.79,0,0,1,.15-.75,1.48,1.48,0,0,1,.4-.55,1.79,1.79,0,0,1,.6-.35,2.23,2.23,0,0,1,1.5,0,1.79,1.79,0,0,1,.6.35,1.48,1.48,0,0,1,.4.55,1.79,1.79,0,0,1,.15.75,3.14,3.14,0,0,1,0,.45,2.34,2.34,0,0,1-.12.4,1.84,1.84,0,0,1-.17.38,3.35,3.35,0,0,1-.21.36l-1.5,2.39h-.79Zm-.59-.42a1.28,1.28,0,0,0,.48-.09,1,1,0,0,0,.39-.24,1.23,1.23,0,0,0,.26-.37,1.3,1.3,0,0,0,0-1,1.1,1.1,0,0,0-.65-.62,1.48,1.48,0,0,0-1,0,1.1,1.1,0,0,0-.65.62,1.43,1.43,0,0,0,0,1,1.23,1.23,0,0,0,.26.37,1,1,0,0,0,.39.24A1.28,1.28,0,0,0,41,136.76Z"/><path d="M43.46,136.71a7.07,7.07,0,0,1,.08-1,2.94,2.94,0,0,1,.3-1,1.91,1.91,0,0,1,.59-.7,1.49,1.49,0,0,1,1-.28,1.54,1.54,0,0,1,1,.28,2,2,0,0,1,.59.7,3.19,3.19,0,0,1,.29,1,6.29,6.29,0,0,1,0,2,3.19,3.19,0,0,1-.29.95,2,2,0,0,1-.59.7,1.54,1.54,0,0,1-1,.28,1.49,1.49,0,0,1-1-.28,1.91,1.91,0,0,1-.59-.7,2.94,2.94,0,0,1-.3-.95A7.07,7.07,0,0,1,43.46,136.71Zm.67,0c0,.14,0,.29,0,.46a4.6,4.6,0,0,0,.06.52,3.18,3.18,0,0,0,.13.51,1.65,1.65,0,0,0,.22.44,1.12,1.12,0,0,0,.34.31,1.1,1.1,0,0,0,1,0,1.12,1.12,0,0,0,.34-.31,2,2,0,0,0,.23-.44,4.7,4.7,0,0,0,.12-.51,4.6,4.6,0,0,0,.06-.52c0-.17,0-.32,0-.46s0-.29,0-.46a4.6,4.6,0,0,0-.06-.52,4.7,4.7,0,0,0-.12-.51,2,2,0,0,0-.23-.44,1.12,1.12,0,0,0-.34-.31,1.1,1.1,0,0,0-1,0,1.12,1.12,0,0,0-.34.31,1.65,1.65,0,0,0-.22.44,3.18,3.18,0,0,0-.13.51,4.6,4.6,0,0,0-.06.52C44.14,136.42,44.13,136.57,44.13,136.71Z"/><path d="M48.06,134.93a1.13,1.13,0,0,1,.09-.45,1.06,1.06,0,0,1,.61-.61,1.13,1.13,0,0,1,.45-.09,1.08,1.08,0,0,1,.44.09,1.06,1.06,0,0,1,.61.61,1.13,1.13,0,0,1,.09.45,1,1,0,0,1-.09.44,1.06,1.06,0,0,1-.61.61,1.08,1.08,0,0,1-.44.09,1.13,1.13,0,0,1-.45-.09,1.06,1.06,0,0,1-.61-.61A1,1,0,0,1,48.06,134.93Zm.43,0a.53.53,0,0,0,.06.24.72.72,0,0,0,.14.24.69.69,0,0,0,.22.16.6.6,0,0,0,.3.07.73.73,0,0,0,.51-.23,1,1,0,0,0,.15-.24.69.69,0,0,0,.05-.24.74.74,0,0,0-.05-.25.76.76,0,0,0-.15-.23.62.62,0,0,0-.22-.17.73.73,0,0,0-.29-.07.73.73,0,0,0-.3.07.72.72,0,0,0-.22.17.59.59,0,0,0-.14.23A.57.57,0,0,0,48.49,134.93Z"/><path d="M148.37,38.51h-.68v-4.8h0l-1,.85-.4-.48,1.52-1.24h.59Z"/><path d="M150.49,34.23a1.48,1.48,0,0,1,.13-.61,1.2,1.2,0,0,1,.34-.46,1.44,1.44,0,0,1,.51-.3,1.92,1.92,0,0,1,1.28,0,1.44,1.44,0,0,1,.51.3,1.2,1.2,0,0,1,.34.46,1.33,1.33,0,0,1,.13.61,1.16,1.16,0,0,1-.07.4,1.41,1.41,0,0,1-.18.37,1.33,1.33,0,0,1-.29.29,1.18,1.18,0,0,1-.39.19h0a1.44,1.44,0,0,1,.46.19,1.35,1.35,0,0,1,.35.32,1.42,1.42,0,0,1,.23.44,1.7,1.7,0,0,1,.08.51,1.74,1.74,0,0,1-.14.69,1.43,1.43,0,0,1-.39.52,1.47,1.47,0,0,1-.57.33,2.35,2.35,0,0,1-1.42,0,1.47,1.47,0,0,1-.57-.33,1.55,1.55,0,0,1-.39-.52,1.74,1.74,0,0,1-.14-.69,1.7,1.7,0,0,1,.08-.51,1.67,1.67,0,0,1,.23-.44,1.35,1.35,0,0,1,.35-.32,1.44,1.44,0,0,1,.46-.19h0a1.18,1.18,0,0,1-.39-.19,1.33,1.33,0,0,1-.29-.29,1.41,1.41,0,0,1-.18-.37A1.46,1.46,0,0,1,150.49,34.23ZM151,36.9a1.18,1.18,0,0,0,.09.46,1.07,1.07,0,0,0,.25.35,1,1,0,0,0,.36.23,1.12,1.12,0,0,0,.88,0,1,1,0,0,0,.36-.23,1.07,1.07,0,0,0,.25-.35,1.18,1.18,0,0,0,.09-.46,1.14,1.14,0,0,0-.09-.46,1.13,1.13,0,0,0-.61-.58,1.12,1.12,0,0,0-.88,0,1.13,1.13,0,0,0-.61.58A1.14,1.14,0,0,0,151,36.9Zm.2-2.64a.88.88,0,0,0,.26.67,1,1,0,0,0,1.36,0,1,1,0,0,0,0-1.34,1,1,0,0,0-1.36,0A.88.88,0,0,0,151.17,34.26Z"/><path d="M154.64,35.68a7,7,0,0,1,.08-1,3.1,3.1,0,0,1,.29-1,2,2,0,0,1,.59-.71,1.6,1.6,0,0,1,1-.27,1.55,1.55,0,0,1,.95.27,1.94,1.94,0,0,1,.59.71,2.86,2.86,0,0,1,.3,1,7,7,0,0,1,.08,1,7.07,7.07,0,0,1-.08,1,2.88,2.88,0,0,1-.3.94,1.94,1.94,0,0,1-.59.71,1.55,1.55,0,0,1-.95.27,1.6,1.6,0,0,1-1-.27,2,2,0,0,1-.59-.71,3.13,3.13,0,0,1-.29-.94A7.07,7.07,0,0,1,154.64,35.68Zm.67,0c0,.13,0,.29,0,.46a4.88,4.88,0,0,0,.06.52,4.05,4.05,0,0,0,.12.5,1.66,1.66,0,0,0,.23.44,1.12,1.12,0,0,0,.34.31,1,1,0,0,0,1,0,1.12,1.12,0,0,0,.34-.31,1.4,1.4,0,0,0,.22-.44,2.83,2.83,0,0,0,.13-.5,4.88,4.88,0,0,0,.06-.52c0-.17,0-.33,0-.46s0-.3,0-.47a4.43,4.43,0,0,0-.06-.51,2.72,2.72,0,0,0-.13-.51,1.51,1.51,0,0,0-.22-.44,1.12,1.12,0,0,0-.34-.31,1,1,0,0,0-1,0,1.12,1.12,0,0,0-.34.31,1.83,1.83,0,0,0-.23.44,3.81,3.81,0,0,0-.12.51,4.43,4.43,0,0,0-.06.51C155.32,35.38,155.31,35.54,155.31,35.68Z"/><path d="M159.24,33.89a1.15,1.15,0,0,1,.33-.81,1,1,0,0,1,.37-.24,1,1,0,0,1,.44-.09,1.15,1.15,0,0,1,.82,2,1.15,1.15,0,0,1-.37.25,1.13,1.13,0,0,1-.45.09,1.15,1.15,0,0,1-.81-.34,1.15,1.15,0,0,1-.33-.81Zm.43,0a.79.79,0,0,0,.05.25,1.14,1.14,0,0,0,.15.23.62.62,0,0,0,.22.17.72.72,0,0,0,.29.06.68.68,0,0,0,.52-.23.79.79,0,0,0,.14-.23.65.65,0,0,0,0-.5.79.79,0,0,0-.14-.23.81.81,0,0,0-.23-.17.65.65,0,0,0-.29-.06.72.72,0,0,0-.29.06.76.76,0,0,0-.22.17,1.14,1.14,0,0,0-.15.23A.79.79,0,0,0,159.67,33.89Z"/><path d="M148.27,239.2a6.85,6.85,0,0,1,.08-1,3.41,3.41,0,0,1,.3-.95,1.94,1.94,0,0,1,.59-.71,1.57,1.57,0,0,1,.95-.27,1.6,1.6,0,0,1,1,.27,2,2,0,0,1,.59.71,3.1,3.1,0,0,1,.29.95,5.7,5.7,0,0,1,.08,1,5.85,5.85,0,0,1-.08,1,3.13,3.13,0,0,1-.29.94,2,2,0,0,1-.59.71,1.6,1.6,0,0,1-1,.27,1.57,1.57,0,0,1-.95-.27,1.94,1.94,0,0,1-.59-.71,3.45,3.45,0,0,1-.3-.94A7.07,7.07,0,0,1,148.27,239.2Zm.68,0c0,.13,0,.29,0,.46a4.88,4.88,0,0,0,.06.52,2.83,2.83,0,0,0,.13.5,1.65,1.65,0,0,0,.22.44,1.24,1.24,0,0,0,.34.31,1,1,0,0,0,.48.12.9.9,0,0,0,.48-.12,1,1,0,0,0,.34-.31,1.41,1.41,0,0,0,.23-.44,4.07,4.07,0,0,0,.13-.5c0-.18,0-.35.06-.52s0-.33,0-.46,0-.3,0-.47,0-.34-.06-.51a3.8,3.8,0,0,0-.13-.51,1.53,1.53,0,0,0-.23-.44,1,1,0,0,0-.34-.31.9.9,0,0,0-.48-.12,1,1,0,0,0-.48.12,1.24,1.24,0,0,0-.34.31,1.81,1.81,0,0,0-.22.44,2.72,2.72,0,0,0-.13.51,4.43,4.43,0,0,0-.06.51C149,238.9,149,239.06,149,239.2Z"/><path d="M152.83,237.41a1.33,1.33,0,0,1,.08-.45,1.11,1.11,0,0,1,.25-.36,1,1,0,0,1,.36-.24,1.17,1.17,0,0,1,.9,0,1,1,0,0,1,.36.24,1.11,1.11,0,0,1,.25.36,1.31,1.31,0,0,1,0,.9,1.23,1.23,0,0,1-.61.61,1.17,1.17,0,0,1-.9,0,1.23,1.23,0,0,1-.61-.61A1.33,1.33,0,0,1,152.83,237.41Zm.43,0a.79.79,0,0,0,.05.25.68.68,0,0,0,.14.23.66.66,0,0,0,.23.17.73.73,0,0,0,.58,0,.76.76,0,0,0,.23-.17.88.88,0,0,0,.14-.23.65.65,0,0,0,0-.5,1.09,1.09,0,0,0-.14-.23,1,1,0,0,0-.23-.17.73.73,0,0,0-.58,0,.81.81,0,0,0-.23.17.75.75,0,0,0-.19.48Z"/><path d="M203.17,238.76h.21l.43,0a1.15,1.15,0,0,0,.42-.13.77.77,0,0,0,.31-.31.94.94,0,0,0,.13-.51.87.87,0,0,0-.27-.68,1,1,0,0,0-.7-.26,1.28,1.28,0,0,0-.63.16,1.14,1.14,0,0,0-.41.48l-.65-.25a1.48,1.48,0,0,1,.65-.72,2.07,2.07,0,0,1,1-.24,2.25,2.25,0,0,1,.64.09,1.72,1.72,0,0,1,.54.28,1.37,1.37,0,0,1,.37.46,1.48,1.48,0,0,1,.14.65,1.29,1.29,0,0,1-.27.8,1.34,1.34,0,0,1-.7.49v0a1.48,1.48,0,0,1,.85.49,1.37,1.37,0,0,1,.23.43,1.69,1.69,0,0,1,.08.5,1.66,1.66,0,0,1-.15.72,1.57,1.57,0,0,1-.41.51,1.71,1.71,0,0,1-.6.31,2.34,2.34,0,0,1-.71.1,2.18,2.18,0,0,1-1.13-.28,1.61,1.61,0,0,1-.7-.91l.68-.22a1.33,1.33,0,0,0,.41.65,1.3,1.3,0,0,0,.74.19,1.33,1.33,0,0,0,.45-.08,1.11,1.11,0,0,0,.36-.23,1.24,1.24,0,0,0,.25-.35,1.13,1.13,0,0,0,.09-.45,1.07,1.07,0,0,0-.12-.53,1,1,0,0,0-.33-.33,1.23,1.23,0,0,0-.46-.18,2.31,2.31,0,0,0-.52-.06h-.21Z"/><path d="M206.24,239.2a6.85,6.85,0,0,1,.08-1,3.11,3.11,0,0,1,.3-.95,1.94,1.94,0,0,1,.59-.71,1.55,1.55,0,0,1,.95-.27,1.6,1.6,0,0,1,1,.27,2,2,0,0,1,.59.71,3.1,3.1,0,0,1,.29.95,5.7,5.7,0,0,1,.08,1,5.85,5.85,0,0,1-.08,1,3.13,3.13,0,0,1-.29.94,2,2,0,0,1-.59.71,1.6,1.6,0,0,1-1,.27,1.55,1.55,0,0,1-.95-.27,1.94,1.94,0,0,1-.59-.71,3.14,3.14,0,0,1-.3-.94A7.07,7.07,0,0,1,206.24,239.2Zm.67,0c0,.13,0,.29,0,.46a4.88,4.88,0,0,0,.06.52,2.83,2.83,0,0,0,.13.5,1.4,1.4,0,0,0,.22.44,1.24,1.24,0,0,0,.34.31,1,1,0,0,0,.48.12.9.9,0,0,0,.48-.12,1,1,0,0,0,.34-.31,1.41,1.41,0,0,0,.23-.44,4.05,4.05,0,0,0,.12-.5,4.88,4.88,0,0,0,.06-.52,3.86,3.86,0,0,0,0-.46,3.94,3.94,0,0,0,0-.47,4.43,4.43,0,0,0-.06-.51,3.81,3.81,0,0,0-.12-.51,1.53,1.53,0,0,0-.23-.44,1,1,0,0,0-.34-.31.9.9,0,0,0-.48-.12,1,1,0,0,0-.48.12,1.24,1.24,0,0,0-.34.31,1.51,1.51,0,0,0-.22.44,2.72,2.72,0,0,0-.13.51,4.43,4.43,0,0,0-.06.51C206.92,238.9,206.91,239.06,206.91,239.2Z"/><path d="M210.84,237.41a1.13,1.13,0,0,1,.09-.45,1.26,1.26,0,0,1,.24-.36,1.2,1.2,0,0,1,.82-.33,1,1,0,0,1,.44.09,1.12,1.12,0,0,1,.37.24,1.26,1.26,0,0,1,.24.36,1.16,1.16,0,0,1-.24,1.26,1.15,1.15,0,0,1-.37.25,1,1,0,0,1-.44.09,1.13,1.13,0,0,1-.45-.09,1.15,1.15,0,0,1-.37-.25,1.15,1.15,0,0,1-.33-.81Zm.43,0a.61.61,0,0,0,.06.25.68.68,0,0,0,.14.23.72.72,0,0,0,.22.17.73.73,0,0,0,.3.06.72.72,0,0,0,.29-.06.62.62,0,0,0,.22-.17.91.91,0,0,0,.15-.23.65.65,0,0,0,0-.5,1.14,1.14,0,0,0-.15-.23.76.76,0,0,0-.22-.17.72.72,0,0,0-.29-.06.73.73,0,0,0-.3.06.92.92,0,0,0-.22.17.79.79,0,0,0-.14.23A.61.61,0,0,0,211.27,237.41Z"/><path d="M93.6,238.76h.21l.44,0a1.1,1.1,0,0,0,.41-.13.86.86,0,0,0,.32-.31.94.94,0,0,0,.12-.51.87.87,0,0,0-.27-.68,1,1,0,0,0-.7-.26,1.21,1.21,0,0,0-.62.16,1.1,1.1,0,0,0-.42.48l-.65-.25a1.45,1.45,0,0,1,.66-.72,2,2,0,0,1,1-.24,2.32,2.32,0,0,1,.65.09,2,2,0,0,1,.54.28,1.67,1.67,0,0,1,.37.46,1.48,1.48,0,0,1,.13.65,1.29,1.29,0,0,1-.27.8,1.34,1.34,0,0,1-.7.49v0a1.31,1.31,0,0,1,.49.18,1.34,1.34,0,0,1,.36.31,1.37,1.37,0,0,1,.23.43,1.42,1.42,0,0,1,.08.5,1.66,1.66,0,0,1-.15.72,1.57,1.57,0,0,1-.41.51,1.75,1.75,0,0,1-.59.31,2.46,2.46,0,0,1-.72.1,2.18,2.18,0,0,1-1.13-.28,1.56,1.56,0,0,1-.69-.91l.68-.22a1.2,1.2,0,0,0,.41.65,1.27,1.27,0,0,0,.73.19,1.33,1.33,0,0,0,.45-.08,1.11,1.11,0,0,0,.36-.23,1.07,1.07,0,0,0,.25-.35,1.13,1.13,0,0,0,.09-.45,1.07,1.07,0,0,0-.12-.53.87.87,0,0,0-.33-.33,1.17,1.17,0,0,0-.46-.18,2.24,2.24,0,0,0-.52-.06H93.6Z"/><path d="M96.68,239.2a5.7,5.7,0,0,1,.08-1,3.1,3.1,0,0,1,.29-.95,2,2,0,0,1,.59-.71,1.6,1.6,0,0,1,1-.27,1.57,1.57,0,0,1,1,.27,1.94,1.94,0,0,1,.59.71,3.41,3.41,0,0,1,.3.95,6.85,6.85,0,0,1,.08,1,7.07,7.07,0,0,1-.08,1,3.45,3.45,0,0,1-.3.94,1.94,1.94,0,0,1-.59.71,1.57,1.57,0,0,1-1,.27,1.6,1.6,0,0,1-1-.27,2,2,0,0,1-.59-.71,3.13,3.13,0,0,1-.29-.94A5.85,5.85,0,0,1,96.68,239.2Zm.67,0c0,.13,0,.29,0,.46a4.88,4.88,0,0,0,.06.52,4.07,4.07,0,0,0,.13.5,1.41,1.41,0,0,0,.23.44,1,1,0,0,0,.34.31.9.9,0,0,0,.48.12,1,1,0,0,0,.48-.12,1.24,1.24,0,0,0,.34-.31,1.65,1.65,0,0,0,.22-.44,2.83,2.83,0,0,0,.13-.5,4.88,4.88,0,0,0,.06-.52c0-.17,0-.33,0-.46s0-.3,0-.47a4.43,4.43,0,0,0-.06-.51,2.72,2.72,0,0,0-.13-.51,1.81,1.81,0,0,0-.22-.44,1.24,1.24,0,0,0-.34-.31,1,1,0,0,0-.48-.12.9.9,0,0,0-.48.12,1,1,0,0,0-.34.31,1.53,1.53,0,0,0-.23.44,3.8,3.8,0,0,0-.13.51,4.43,4.43,0,0,0-.06.51C97.35,238.9,97.35,239.06,97.35,239.2Z"/><path d="M101.28,237.41a1.33,1.33,0,0,1,.08-.45,1.11,1.11,0,0,1,.25-.36,1,1,0,0,1,.36-.24,1.17,1.17,0,0,1,.9,0,1,1,0,0,1,.36.24,1.11,1.11,0,0,1,.25.36,1.31,1.31,0,0,1,0,.9,1.23,1.23,0,0,1-.61.61,1.17,1.17,0,0,1-.9,0,1.23,1.23,0,0,1-.61-.61A1.33,1.33,0,0,1,101.28,237.41Zm.43,0a.79.79,0,0,0,.05.25.68.68,0,0,0,.14.23.76.76,0,0,0,.23.17.73.73,0,0,0,.58,0,.66.66,0,0,0,.23-.17.68.68,0,0,0,.14-.23.71.71,0,0,0-.14-.73.81.81,0,0,0-.23-.17.73.73,0,0,0-.58,0,1,1,0,0,0-.23.17.75.75,0,0,0-.19.48Z"/><path d="M203.18,38.51h-.68v-4.8h0l-1,.85-.4-.48,1.52-1.24h.59Z"/><path d="M208.49,33.47h-2.31l0,1.53a1.08,1.08,0,0,1,.36-.11l.37,0a2,2,0,0,1,.74.14,1.61,1.61,0,0,1,.57.39,1.9,1.9,0,0,1,.37.59,2,2,0,0,1,.13.74,2,2,0,0,1-.15.78,1.74,1.74,0,0,1-.41.59,1.91,1.91,0,0,1-.61.38,2.2,2.2,0,0,1-.78.13,1.73,1.73,0,0,1-1-.28,2,2,0,0,1-.63-.75l.67-.25a1.31,1.31,0,0,0,.42.51,1.1,1.1,0,0,0,.64.2,1.28,1.28,0,0,0,.48-.09,1.26,1.26,0,0,0,.38-.27,1.15,1.15,0,0,0,.26-.41,1.53,1.53,0,0,0,.1-.54,1.38,1.38,0,0,0-.11-.55,1.08,1.08,0,0,0-.3-.4,1.26,1.26,0,0,0-.44-.25,1.67,1.67,0,0,0-.55-.08,1.84,1.84,0,0,0-.6.1,2.58,2.58,0,0,0-.56.25l.06-2.95h3Z"/><path d="M209.45,35.68a7,7,0,0,1,.08-1,3.1,3.1,0,0,1,.29-1,2,2,0,0,1,.59-.71,1.6,1.6,0,0,1,1-.27,1.55,1.55,0,0,1,.95.27,1.94,1.94,0,0,1,.59.71,2.86,2.86,0,0,1,.3,1,7,7,0,0,1,.08,1,7.07,7.07,0,0,1-.08,1,2.88,2.88,0,0,1-.3.94,1.94,1.94,0,0,1-.59.71,1.55,1.55,0,0,1-.95.27,1.6,1.6,0,0,1-1-.27,2,2,0,0,1-.59-.71,3.13,3.13,0,0,1-.29-.94A7.07,7.07,0,0,1,209.45,35.68Zm.67,0c0,.13,0,.29,0,.46a4.88,4.88,0,0,0,.06.52,4.05,4.05,0,0,0,.12.5,1.66,1.66,0,0,0,.23.44,1,1,0,0,0,.34.31.9.9,0,0,0,.48.12,1,1,0,0,0,.48-.12,1.24,1.24,0,0,0,.34-.31,1.4,1.4,0,0,0,.22-.44,2.83,2.83,0,0,0,.13-.5,4.88,4.88,0,0,0,.06-.52c0-.17,0-.33,0-.46s0-.3,0-.47a4.43,4.43,0,0,0-.06-.51,2.72,2.72,0,0,0-.13-.51,1.51,1.51,0,0,0-.22-.44,1.24,1.24,0,0,0-.34-.31,1,1,0,0,0-.48-.12.9.9,0,0,0-.48.12,1,1,0,0,0-.34.31,1.83,1.83,0,0,0-.23.44,3.81,3.81,0,0,0-.12.51,4.43,4.43,0,0,0-.06.51C210.13,35.38,210.12,35.54,210.12,35.68Z"/><path d="M214.05,33.89a1.15,1.15,0,0,1,.33-.81,1,1,0,0,1,.37-.24,1,1,0,0,1,.44-.09,1.13,1.13,0,0,1,.45.09,1,1,0,0,1,.36.24,1,1,0,0,1,.25.36,1.17,1.17,0,0,1,0,.9,1.23,1.23,0,0,1-.61.61,1.13,1.13,0,0,1-.45.09,1.15,1.15,0,0,1-.81-.34,1.15,1.15,0,0,1-.33-.81Zm.43,0a.79.79,0,0,0,.05.25,1.14,1.14,0,0,0,.15.23.62.62,0,0,0,.22.17.72.72,0,0,0,.29.06.68.68,0,0,0,.52-.23.79.79,0,0,0,.14-.23.65.65,0,0,0,0-.5.79.79,0,0,0-.14-.23.81.81,0,0,0-.23-.17.65.65,0,0,0-.29-.06.72.72,0,0,0-.29.06.76.76,0,0,0-.22.17,1.14,1.14,0,0,0-.15.23A.79.79,0,0,0,214.48,33.89Z"/><path d="M93.61,38.51h-.67v-4.8h0l-1,.85-.4-.48L93,32.84h.58Z"/><path d="M98.92,33.47H96.61l0,1.53a1,1,0,0,1,.35-.11l.37,0a1.91,1.91,0,0,1,.74.14,1.65,1.65,0,0,1,.58.39A1.71,1.71,0,0,1,99,36a2,2,0,0,1,.13.74,2,2,0,0,1-.15.78,1.71,1.71,0,0,1-.4.59,2,2,0,0,1-.62.38,2.15,2.15,0,0,1-.77.13,1.78,1.78,0,0,1-1.05-.28,1.85,1.85,0,0,1-.62-.75l.67-.25a1.16,1.16,0,0,0,.42.51,1.05,1.05,0,0,0,.63.2,1.28,1.28,0,0,0,.48-.09,1.23,1.23,0,0,0,.64-.68,1.33,1.33,0,0,0,.1-.54,1.38,1.38,0,0,0-.11-.55,1.18,1.18,0,0,0-.29-.4,1.41,1.41,0,0,0-.45-.25,1.63,1.63,0,0,0-.55-.08,1.78,1.78,0,0,0-.59.1,2.58,2.58,0,0,0-.56.25l0-2.95h3Z"/><path d="M99.88,35.68a7,7,0,0,1,.08-1,3.11,3.11,0,0,1,.3-1,1.94,1.94,0,0,1,.59-.71,1.55,1.55,0,0,1,1-.27,1.6,1.6,0,0,1,1,.27,2,2,0,0,1,.59.71,3.1,3.1,0,0,1,.29,1,5.77,5.77,0,0,1,.08,1,5.85,5.85,0,0,1-.08,1,3.13,3.13,0,0,1-.29.94,2,2,0,0,1-.59.71,1.6,1.6,0,0,1-1,.27,1.55,1.55,0,0,1-1-.27,1.94,1.94,0,0,1-.59-.71,3.14,3.14,0,0,1-.3-.94A7.07,7.07,0,0,1,99.88,35.68Zm.67,0c0,.13,0,.29,0,.46a4.88,4.88,0,0,0,.06.52,2.83,2.83,0,0,0,.13.5,1.4,1.4,0,0,0,.22.44,1.24,1.24,0,0,0,.34.31,1,1,0,0,0,.48.12.9.9,0,0,0,.48-.12,1,1,0,0,0,.34-.31,1.41,1.41,0,0,0,.23-.44,4.05,4.05,0,0,0,.12-.5,4.88,4.88,0,0,0,.06-.52c0-.17,0-.33,0-.46s0-.3,0-.47a4.43,4.43,0,0,0-.06-.51,3.81,3.81,0,0,0-.12-.51,1.53,1.53,0,0,0-.23-.44,1,1,0,0,0-.34-.31.9.9,0,0,0-.48-.12,1,1,0,0,0-.48.12,1.24,1.24,0,0,0-.34.31,1.51,1.51,0,0,0-.22.44,2.72,2.72,0,0,0-.13.51,4.43,4.43,0,0,0-.06.51C100.56,35.38,100.55,35.54,100.55,35.68Z"/><path d="M104.48,33.89a1.15,1.15,0,0,1,1.15-1.14,1,1,0,0,1,.44.09,1.12,1.12,0,0,1,.37.24,1.16,1.16,0,0,1,0,1.62,1.15,1.15,0,0,1-.37.25,1,1,0,0,1-.44.09,1.13,1.13,0,0,1-.45-.09,1.15,1.15,0,0,1-.37-.25,1.15,1.15,0,0,1-.33-.81Zm.43,0a.61.61,0,0,0,.06.25.79.79,0,0,0,.14.23.72.72,0,0,0,.22.17.73.73,0,0,0,.3.06.72.72,0,0,0,.29-.06.62.62,0,0,0,.22-.17,1.14,1.14,0,0,0,.15-.23.65.65,0,0,0,0-.5,1.14,1.14,0,0,0-.15-.23.76.76,0,0,0-.22-.17.72.72,0,0,0-.29-.06.73.73,0,0,0-.3.06.92.92,0,0,0-.22.17.79.79,0,0,0-.14.23A.61.61,0,0,0,104.91,33.89Z"/><path d="M248.75,192.45v0a1.35,1.35,0,0,1,.37-.13,2,2,0,0,1,.39,0,1.73,1.73,0,0,1,.69.13,1.42,1.42,0,0,1,.54.36,1.85,1.85,0,0,1,.36.57,2,2,0,0,1,.12.72,1.78,1.78,0,0,1-.14.74,1.74,1.74,0,0,1-.4.56,2,2,0,0,1-.6.35,2.36,2.36,0,0,1-.75.12,2.27,2.27,0,0,1-.75-.12,2,2,0,0,1-.6-.35,1.6,1.6,0,0,1-.4-.56,1.78,1.78,0,0,1-.15-.74,2.24,2.24,0,0,1,.15-.86,5.28,5.28,0,0,1,.39-.74l1.5-2.39h.79Zm.59.43a1.23,1.23,0,0,0-.87.32,1,1,0,0,0-.26.38,1.31,1.31,0,0,0-.1.5,1.35,1.35,0,0,0,.1.5,1.08,1.08,0,0,0,.26.37,1,1,0,0,0,.39.24,1.32,1.32,0,0,0,1,0,1,1,0,0,0,.39-.24,1.23,1.23,0,0,0,.26-.37,1.35,1.35,0,0,0,.09-.5,1.31,1.31,0,0,0-.09-.5,1.16,1.16,0,0,0-.26-.38,1.23,1.23,0,0,0-.87-.32Z"/><path d="M251.82,192.92a7.07,7.07,0,0,1,.08-1,3.13,3.13,0,0,1,.29-.94,2,2,0,0,1,.59-.71,1.6,1.6,0,0,1,1-.27,1.55,1.55,0,0,1,.95.27,1.94,1.94,0,0,1,.59.71,2.88,2.88,0,0,1,.3.94,7.07,7.07,0,0,1,.08,1,7,7,0,0,1-.08,1,2.86,2.86,0,0,1-.3,1,1.94,1.94,0,0,1-.59.71,1.55,1.55,0,0,1-.95.27,1.6,1.6,0,0,1-1-.27,2,2,0,0,1-.59-.71,3.1,3.1,0,0,1-.29-1A7,7,0,0,1,251.82,192.92Zm.67,0c0,.14,0,.3,0,.47a4.43,4.43,0,0,0,.06.51,3.81,3.81,0,0,0,.12.51,1.83,1.83,0,0,0,.23.44,1,1,0,0,0,.34.31.9.9,0,0,0,.48.12,1,1,0,0,0,.48-.12,1.24,1.24,0,0,0,.34-.31,1.51,1.51,0,0,0,.22-.44,2.72,2.72,0,0,0,.13-.51,4.43,4.43,0,0,0,.06-.51c0-.17,0-.33,0-.47s0-.29,0-.46a4.88,4.88,0,0,0-.06-.52,2.83,2.83,0,0,0-.13-.5,1.4,1.4,0,0,0-.22-.44,1.1,1.1,0,0,0-.34-.31,1,1,0,0,0-.48-.12.9.9,0,0,0-.48.12.92.92,0,0,0-.34.31,1.66,1.66,0,0,0-.23.44,4.05,4.05,0,0,0-.12.5,4.88,4.88,0,0,0-.06.52C252.5,192.63,252.49,192.79,252.49,192.92Z"/><path d="M256.42,191.14a1.15,1.15,0,0,1,.33-.81,1.05,1.05,0,0,1,.37-.25,1.23,1.23,0,0,1,.44-.08,1.33,1.33,0,0,1,.45.08,1.15,1.15,0,0,1,.37.25,1.16,1.16,0,0,1,0,1.62,1.15,1.15,0,0,1-.37.25,1.33,1.33,0,0,1-.45.08,1.23,1.23,0,0,1-.44-.08,1.05,1.05,0,0,1-.37-.25,1.15,1.15,0,0,1-.33-.81Zm.43,0a.79.79,0,0,0,0,.25,1.14,1.14,0,0,0,.15.23.62.62,0,0,0,.22.17.72.72,0,0,0,.29.06.68.68,0,0,0,.52-.23.79.79,0,0,0,.14-.23.65.65,0,0,0,0-.5.79.79,0,0,0-.14-.23.68.68,0,0,0-.52-.23.72.72,0,0,0-.29.06.62.62,0,0,0-.22.17,1.14,1.14,0,0,0-.15.23A.79.79,0,0,0,256.85,191.14Z"/><path d="M250,81.22h-.67v-4.8h0l-1,.86-.4-.49,1.52-1.23H250Z"/><path d="M251.92,80.45l2.13-2.08c.13-.12.25-.24.35-.35a2.16,2.16,0,0,0,.25-.32,1.09,1.09,0,0,0,.15-.33,1.38,1.38,0,0,0,0-.37,1,1,0,0,0-.08-.4.84.84,0,0,0-.22-.3.78.78,0,0,0-.33-.19,1.05,1.05,0,0,0-.4-.07,1,1,0,0,0-.71.25,1.08,1.08,0,0,0-.36.65l-.73-.06a1.83,1.83,0,0,1,.21-.61,1.41,1.41,0,0,1,.39-.45,2,2,0,0,1,.53-.27,2.25,2.25,0,0,1,.64-.09,2.41,2.41,0,0,1,.67.1,1.92,1.92,0,0,1,.55.29,1.44,1.44,0,0,1,.51,1.15,2,2,0,0,1-.09.61,2,2,0,0,1-.25.5,3.47,3.47,0,0,1-.35.43l-.41.4-1.75,1.64v0h2.89v.62h-3.64Z"/><path d="M256.27,78.39a5.85,5.85,0,0,1,.08-1,3.19,3.19,0,0,1,.29-1,2,2,0,0,1,.59-.7,1.54,1.54,0,0,1,1-.28,1.51,1.51,0,0,1,.95.28,1.91,1.91,0,0,1,.59.7,3.2,3.2,0,0,1,.3,1,6.29,6.29,0,0,1,0,2,3.2,3.2,0,0,1-.3,1,1.91,1.91,0,0,1-.59.7,1.51,1.51,0,0,1-.95.28,1.54,1.54,0,0,1-1-.28,2,2,0,0,1-.59-.7,3.19,3.19,0,0,1-.29-1A5.85,5.85,0,0,1,256.27,78.39Zm.67,0a3.78,3.78,0,0,0,0,.46c0,.17,0,.35.05.52a4.77,4.77,0,0,0,.13.51,1.67,1.67,0,0,0,.23.44,1,1,0,0,0,.34.31,1,1,0,0,0,.48.11,1.06,1.06,0,0,0,.48-.11,1.24,1.24,0,0,0,.34-.31,2,2,0,0,0,.22-.44,3.18,3.18,0,0,0,.13-.51,4.6,4.6,0,0,0,.06-.52c0-.17,0-.32,0-.46s0-.29,0-.46a4.35,4.35,0,0,0-.06-.52,3.18,3.18,0,0,0-.13-.51,2,2,0,0,0-.22-.44,1.24,1.24,0,0,0-.34-.31,1.06,1.06,0,0,0-.48-.11,1,1,0,0,0-.48.11,1,1,0,0,0-.34.31,1.67,1.67,0,0,0-.23.44,4.77,4.77,0,0,0-.13.51c0,.17,0,.34-.05.52A3.78,3.78,0,0,0,256.94,78.39Z"/><path d="M260.87,76.61a1.13,1.13,0,0,1,.09-.45,1,1,0,0,1,.24-.37,1.16,1.16,0,0,1,1.62,0,1.15,1.15,0,0,1,.25.37,1.13,1.13,0,0,1,.09.45,1,1,0,0,1-.09.44,1.15,1.15,0,0,1-.25.37,1.16,1.16,0,0,1-1.62,0,1,1,0,0,1-.24-.37A1,1,0,0,1,260.87,76.61Zm.43,0a.69.69,0,0,0,.05.24.75.75,0,0,0,.15.24.6.6,0,0,0,.22.16.64.64,0,0,0,.58,0,.63.63,0,0,0,.23-.16.72.72,0,0,0,.14-.24.52.52,0,0,0,.05-.24.56.56,0,0,0-.05-.25.59.59,0,0,0-.14-.23.66.66,0,0,0-.23-.17.64.64,0,0,0-.58,0,.62.62,0,0,0-.22.17.61.61,0,0,0-.15.23A.74.74,0,0,0,261.3,76.61Z"/><path d="M40.39,192.45v0a1.42,1.42,0,0,1,.38-.13,1.84,1.84,0,0,1,.39,0,1.72,1.72,0,0,1,.68.13,1.42,1.42,0,0,1,.54.36,1.85,1.85,0,0,1,.36.57,2,2,0,0,1,.13.72,1.78,1.78,0,0,1-.15.74,1.6,1.6,0,0,1-.4.56,2,2,0,0,1-.6.35,2.4,2.4,0,0,1-1.5,0,2,2,0,0,1-.6-.35,1.6,1.6,0,0,1-.4-.56,1.78,1.78,0,0,1-.15-.74,2.24,2.24,0,0,1,.16-.86,5.19,5.19,0,0,1,.38-.74l1.5-2.39h.79Zm.59.43a1.23,1.23,0,0,0-.87.32,1.16,1.16,0,0,0-.26.38,1.31,1.31,0,0,0-.09.5,1.35,1.35,0,0,0,.09.5,1.23,1.23,0,0,0,.26.37,1,1,0,0,0,.39.24,1.32,1.32,0,0,0,1,0,1,1,0,0,0,.39-.24,1.23,1.23,0,0,0,.26-.37,1.35,1.35,0,0,0,.1-.5,1.31,1.31,0,0,0-.1-.5,1.16,1.16,0,0,0-.26-.38,1.23,1.23,0,0,0-.87-.32Z"/><path d="M43.46,192.92a7.07,7.07,0,0,1,.08-1,2.88,2.88,0,0,1,.3-.94,1.94,1.94,0,0,1,.59-.71,1.55,1.55,0,0,1,1-.27,1.6,1.6,0,0,1,1,.27,2,2,0,0,1,.59.71,3.13,3.13,0,0,1,.29.94,7.07,7.07,0,0,1,.08,1,7,7,0,0,1-.08,1,3.1,3.1,0,0,1-.29,1,2,2,0,0,1-.59.71,1.6,1.6,0,0,1-1,.27,1.55,1.55,0,0,1-1-.27,1.94,1.94,0,0,1-.59-.71,2.86,2.86,0,0,1-.3-1A7,7,0,0,1,43.46,192.92Zm.67,0c0,.14,0,.3,0,.47a4.43,4.43,0,0,0,.06.51,2.72,2.72,0,0,0,.13.51,1.51,1.51,0,0,0,.22.44,1.12,1.12,0,0,0,.34.31,1,1,0,0,0,1,0,1.12,1.12,0,0,0,.34-.31,1.83,1.83,0,0,0,.23-.44,3.81,3.81,0,0,0,.12-.51,4.43,4.43,0,0,0,.06-.51c0-.17,0-.33,0-.47s0-.29,0-.46a4.88,4.88,0,0,0-.06-.52,4.05,4.05,0,0,0-.12-.5,1.66,1.66,0,0,0-.23-.44,1,1,0,0,0-.34-.31,1,1,0,0,0-1,0,1,1,0,0,0-.34.31,1.4,1.4,0,0,0-.22.44,2.83,2.83,0,0,0-.13.5,4.88,4.88,0,0,0-.06.52C44.14,192.63,44.13,192.79,44.13,192.92Z"/><path d="M48.06,191.14a1.15,1.15,0,0,1,.33-.81,1.15,1.15,0,0,1,.37-.25,1.33,1.33,0,0,1,.45-.08,1.27,1.27,0,0,1,.44.08,1.15,1.15,0,0,1,.37.25A1.16,1.16,0,0,1,50,192a1.15,1.15,0,0,1-.37.25,1.27,1.27,0,0,1-.44.08,1.33,1.33,0,0,1-.45-.08,1.15,1.15,0,0,1-.37-.25,1.15,1.15,0,0,1-.33-.81Zm.43,0a.61.61,0,0,0,.06.25.79.79,0,0,0,.14.23.72.72,0,0,0,.22.17.73.73,0,0,0,.3.06.72.72,0,0,0,.29-.06.62.62,0,0,0,.22-.17,1.14,1.14,0,0,0,.15-.23.65.65,0,0,0,0-.5,1.14,1.14,0,0,0-.15-.23.62.62,0,0,0-.22-.17.72.72,0,0,0-.29-.06.73.73,0,0,0-.3.06.72.72,0,0,0-.22.17.79.79,0,0,0-.14.23A.61.61,0,0,0,48.49,191.14Z"/><path d="M39.15,81.22h-.67v-4.8h0l-1,.86-.4-.49,1.52-1.23h.58Z"/><path d="M41.07,80.45l2.14-2.08c.13-.12.25-.24.35-.35a2.16,2.16,0,0,0,.25-.32,1.09,1.09,0,0,0,.15-.33A1.38,1.38,0,0,0,44,77a1,1,0,0,0-.08-.4.84.84,0,0,0-.22-.3.78.78,0,0,0-.33-.19A1.05,1.05,0,0,0,43,76a1,1,0,0,0-.72.25,1.19,1.19,0,0,0-.36.65l-.72-.06a1.47,1.47,0,0,1,.21-.61,1.41,1.41,0,0,1,.39-.45,2,2,0,0,1,.53-.27,2.2,2.2,0,0,1,.64-.09,2.41,2.41,0,0,1,.67.1,2.06,2.06,0,0,1,.55.29,1.47,1.47,0,0,1,.37.48,1.6,1.6,0,0,1,.14.67,2,2,0,0,1-.09.61,2.34,2.34,0,0,1-.25.5,3.47,3.47,0,0,1-.35.43l-.41.4-1.75,1.64v0h2.89v.62H41.07Z"/><path d="M45.43,78.39a7,7,0,0,1,.07-1,3.52,3.52,0,0,1,.3-1,2,2,0,0,1,.59-.7,1.77,1.77,0,0,1,1.91,0,1.91,1.91,0,0,1,.59.7,3.52,3.52,0,0,1,.3,1,6.29,6.29,0,0,1,0,2,3.52,3.52,0,0,1-.3,1,1.91,1.91,0,0,1-.59.7,1.77,1.77,0,0,1-1.91,0,2,2,0,0,1-.59-.7,3.52,3.52,0,0,1-.3-1A7,7,0,0,1,45.43,78.39Zm.67,0c0,.14,0,.29,0,.46a4.6,4.6,0,0,0,.06.52,4.77,4.77,0,0,0,.13.51,2,2,0,0,0,.22.44,1.15,1.15,0,0,0,.35.31,1,1,0,0,0,.48.11,1.06,1.06,0,0,0,.48-.11,1.24,1.24,0,0,0,.34-.31,2,2,0,0,0,.22-.44,3.18,3.18,0,0,0,.13-.51,4.6,4.6,0,0,0,.06-.52c0-.17,0-.32,0-.46s0-.29,0-.46a4.35,4.35,0,0,0-.06-.52,3.18,3.18,0,0,0-.13-.51,2,2,0,0,0-.22-.44,1.24,1.24,0,0,0-.34-.31,1.06,1.06,0,0,0-.48-.11,1,1,0,0,0-.48.11,1.15,1.15,0,0,0-.35.31,2,2,0,0,0-.22.44,4.77,4.77,0,0,0-.13.51,4.35,4.35,0,0,0-.06.52C46.1,78.1,46.1,78.25,46.1,78.39Z"/><path d="M50,76.61a1.12,1.12,0,0,1,.08-.45,1.15,1.15,0,0,1,.25-.37,1.16,1.16,0,0,1,1.62,0,1.15,1.15,0,0,1,.25.37,1.33,1.33,0,0,1,.08.45,1.23,1.23,0,0,1-.08.44,1.15,1.15,0,0,1-.25.37,1.16,1.16,0,0,1-1.62,0,1.15,1.15,0,0,1-.25-.37A1,1,0,0,1,50,76.61Zm.43,0a.52.52,0,0,0,0,.24.72.72,0,0,0,.14.24.63.63,0,0,0,.23.16.64.64,0,0,0,.58,0,.73.73,0,0,0,.23-.16,1,1,0,0,0,.14-.24.69.69,0,0,0,.05-.24.75.75,0,0,0-.19-.48.76.76,0,0,0-.23-.17.64.64,0,0,0-.58,0,.66.66,0,0,0-.23.17.59.59,0,0,0-.14.23A.56.56,0,0,0,50.46,76.61Z"/></g><g id="numeri_fondo_tabella" data-name="numeri fondo tabella"><path d="M131.83,251.42a1.17,1.17,0,0,0-.43-.35,1.19,1.19,0,0,0-.51-.11,1.35,1.35,0,0,0-.55.11,1.08,1.08,0,0,0-.4.3,1.32,1.32,0,0,0-.23.44,1.76,1.76,0,0,0,0,1.08,1.43,1.43,0,0,0,.26.45,1.31,1.31,0,0,0,.39.3,1.27,1.27,0,0,0,.52.1,1.09,1.09,0,0,0,1-.46l.47.44a1.69,1.69,0,0,1-.64.46,2.29,2.29,0,0,1-.78.14,2.22,2.22,0,0,1-.79-.14,1.75,1.75,0,0,1-1-1,2.27,2.27,0,0,1,0-1.57,1.86,1.86,0,0,1,.39-.63,2,2,0,0,1,.61-.41,2,2,0,0,1,.79-.15,2.09,2.09,0,0,1,.79.15,1.59,1.59,0,0,1,.65.45Z"/><path d="M136.21,253.56h0a1.43,1.43,0,0,1-.55.54,1.7,1.7,0,0,1-.89.22,1.8,1.8,0,0,1-.73-.15,1.78,1.78,0,0,1-.6-.41,1.81,1.81,0,0,1-.39-.62,2.06,2.06,0,0,1-.15-.79,2,2,0,0,1,.15-.78,1.88,1.88,0,0,1,.4-.63,1.81,1.81,0,0,1,.62-.41,2.07,2.07,0,0,1,.8-.15,1.72,1.72,0,0,1,.75.17,1.78,1.78,0,0,1,.59.47h0v-2.84h.62v6h-.62Zm0-1.21a1.63,1.63,0,0,0-.09-.55,1.34,1.34,0,0,0-.27-.44,1.37,1.37,0,0,0-.42-.29,1.35,1.35,0,0,0-.55-.11,1.42,1.42,0,0,0-.55.11,1.22,1.22,0,0,0-.41.29,1.34,1.34,0,0,0-.27.44,1.56,1.56,0,0,0,0,1.1,1.25,1.25,0,0,0,.27.44,1.19,1.19,0,0,0,1,.4,1.35,1.35,0,0,0,.55-.1,1.6,1.6,0,0,0,.42-.3,1.25,1.25,0,0,0,.27-.44A1.63,1.63,0,0,0,136.21,252.35Z"/><path d="M140.1,254.57l-.5-.2,2.4-6.15.51.2Z"/><path d="M147.64,254.22H147v-4.8h0l-1,.86-.4-.49,1.52-1.23h.59Z"/><path d="M149.46,251.39a7.07,7.07,0,0,1,.08-1,3.19,3.19,0,0,1,.29-.95,2,2,0,0,1,.59-.7,1.61,1.61,0,0,1,1-.28,1.55,1.55,0,0,1,1,.28,1.91,1.91,0,0,1,.59.7,2.94,2.94,0,0,1,.3.95,6.29,6.29,0,0,1,0,2,2.94,2.94,0,0,1-.3,1,1.91,1.91,0,0,1-.59.7,1.49,1.49,0,0,1-1,.28,1.54,1.54,0,0,1-1-.28,2,2,0,0,1-.59-.7,3.19,3.19,0,0,1-.29-1A7.07,7.07,0,0,1,149.46,251.39Zm.67,0c0,.14,0,.29,0,.47a4.43,4.43,0,0,0,.06.51,4.7,4.7,0,0,0,.12.51,2,2,0,0,0,.23.44,1.12,1.12,0,0,0,.34.31,1.1,1.1,0,0,0,1,0,1.12,1.12,0,0,0,.34-.31,1.65,1.65,0,0,0,.22-.44,3.18,3.18,0,0,0,.13-.51,4.43,4.43,0,0,0,.06-.51c0-.18,0-.33,0-.47s0-.29,0-.46a4.6,4.6,0,0,0-.06-.52,3.18,3.18,0,0,0-.13-.51,1.65,1.65,0,0,0-.22-.44,1.08,1.08,0,0,0-.34-.3,1,1,0,0,0-1,0,1.08,1.08,0,0,0-.34.3,2,2,0,0,0-.23.44,4.7,4.7,0,0,0-.12.51,4.6,4.6,0,0,0-.06.52C150.14,251.1,150.13,251.25,150.13,251.39Z"/><path d="M153.91,251.39a5.85,5.85,0,0,1,.08-1,3.19,3.19,0,0,1,.29-.95,2,2,0,0,1,.59-.7,1.61,1.61,0,0,1,1-.28,1.55,1.55,0,0,1,.95.28,1.91,1.91,0,0,1,.59.7,3.2,3.2,0,0,1,.3.95,6.29,6.29,0,0,1,0,2,3.2,3.2,0,0,1-.3,1,1.91,1.91,0,0,1-.59.7,1.49,1.49,0,0,1-.95.28,1.54,1.54,0,0,1-1-.28,2,2,0,0,1-.59-.7,3.19,3.19,0,0,1-.29-1A5.85,5.85,0,0,1,153.91,251.39Zm.67,0a4,4,0,0,0,0,.47,4.43,4.43,0,0,0,.06.51,3.14,3.14,0,0,0,.12.51,1.67,1.67,0,0,0,.23.44,1,1,0,0,0,.34.31.9.9,0,0,0,.48.11,1,1,0,0,0,.48-.11,1.24,1.24,0,0,0,.34-.31,1.65,1.65,0,0,0,.22-.44,3.18,3.18,0,0,0,.13-.51,4.43,4.43,0,0,0,.06-.51c0-.18,0-.33,0-.47s0-.29,0-.46a4.6,4.6,0,0,0-.06-.52,3.18,3.18,0,0,0-.13-.51,1.65,1.65,0,0,0-.22-.44,1.21,1.21,0,0,0-.34-.3,1,1,0,0,0-.48-.12.9.9,0,0,0-.48.12,1,1,0,0,0-.34.3,1.67,1.67,0,0,0-.23.44,3.14,3.14,0,0,0-.12.51,4.6,4.6,0,0,0-.06.52A3.78,3.78,0,0,0,154.58,251.39Z"/><path d="M158.31,251.39a5.85,5.85,0,0,1,.08-1,3.19,3.19,0,0,1,.29-.95,2,2,0,0,1,.59-.7,1.61,1.61,0,0,1,1-.28,1.55,1.55,0,0,1,1,.28,1.91,1.91,0,0,1,.59.7,3.2,3.2,0,0,1,.3.95,6.29,6.29,0,0,1,0,2,3.2,3.2,0,0,1-.3,1,1.91,1.91,0,0,1-.59.7,1.49,1.49,0,0,1-1,.28,1.54,1.54,0,0,1-1-.28,2,2,0,0,1-.59-.7,3.19,3.19,0,0,1-.29-1A5.85,5.85,0,0,1,158.31,251.39Zm.67,0c0,.14,0,.29,0,.47a4.43,4.43,0,0,0,.06.51,3.14,3.14,0,0,0,.12.51,1.67,1.67,0,0,0,.23.44,1,1,0,0,0,.34.31.9.9,0,0,0,.48.11,1,1,0,0,0,.48-.11,1.24,1.24,0,0,0,.34-.31,1.65,1.65,0,0,0,.22-.44,3.18,3.18,0,0,0,.13-.51,4.43,4.43,0,0,0,.06-.51c0-.18,0-.33,0-.47s0-.29,0-.46a4.6,4.6,0,0,0-.06-.52,3.18,3.18,0,0,0-.13-.51,1.65,1.65,0,0,0-.22-.44,1.21,1.21,0,0,0-.34-.3,1,1,0,0,0-.48-.12.9.9,0,0,0-.48.12,1,1,0,0,0-.34.3,1.67,1.67,0,0,0-.23.44,3.14,3.14,0,0,0-.12.51,4.6,4.6,0,0,0-.06.52C159,251.1,159,251.25,159,251.39Z"/><path d="M165.32,248.18H166v6h-.63Z"/><path d="M167.19,251.37c0-.17,0-.33,0-.48s0-.29,0-.41h.59c0,.1,0,.2,0,.3v.32h0a.91.91,0,0,1,.18-.27,1.64,1.64,0,0,1,.28-.23,1.5,1.5,0,0,1,.36-.16,1.44,1.44,0,0,1,.43-.06,1.52,1.52,0,0,1,.51.08,1.36,1.36,0,0,1,.34.18.93.93,0,0,1,.21.24,1.64,1.64,0,0,1,.12.22,1.78,1.78,0,0,1,.48-.53,1.27,1.27,0,0,1,.71-.19,1.88,1.88,0,0,1,.67.11,1.1,1.1,0,0,1,.44.31,1.37,1.37,0,0,1,.24.5,2.59,2.59,0,0,1,.07.65v2.27h-.62V252a2.33,2.33,0,0,0,0-.37,1,1,0,0,0-.15-.33.71.71,0,0,0-.28-.23,1,1,0,0,0-.45-.09,1,1,0,0,0-.37.08,1,1,0,0,0-.31.22,1.13,1.13,0,0,0-.21.35,1.33,1.33,0,0,0-.07.45v2.16h-.63V252.1a1.62,1.62,0,0,0-.17-.88A.6.6,0,0,0,169,251a1.18,1.18,0,0,0-.52.1.88.88,0,0,0-.36.3,1.14,1.14,0,0,0-.21.46,2.1,2.1,0,0,0-.07.58v1.82h-.62Z"/><line class="cls-1" x1="38.21" y1="253" x2="46.2" y2="253"/><path d="M235.17,251a1.66,1.66,0,0,0-.63-.52,1.93,1.93,0,0,0-.79-.17,2.13,2.13,0,0,0-.87.19,2.16,2.16,0,0,0-.68.52,2.58,2.58,0,0,0-.45.75,2.69,2.69,0,0,0-.16.89,2.79,2.79,0,0,0,.16.93,2.41,2.41,0,0,0,.45.74,2,2,0,0,0,.68.5,1.92,1.92,0,0,0,.87.19,2,2,0,0,0,1.64-.8l.51.43a2.38,2.38,0,0,1-.93.75,3,3,0,0,1-1.22.24,2.85,2.85,0,0,1-1.13-.22,2.82,2.82,0,0,1-.92-.62,3,3,0,0,1-.61-.94,3.33,3.33,0,0,1-.22-1.2,3.19,3.19,0,0,1,.21-1.16,2.9,2.9,0,0,1,.6-1,3.08,3.08,0,0,1,.91-.63,3,3,0,0,1,2.27,0,2,2,0,0,1,.89.68Z"/><path d="M239,253.1l0,0a1.35,1.35,0,0,1-.37.13,2.87,2.87,0,0,1-.39,0,1.68,1.68,0,0,1-.68-.13,1.5,1.5,0,0,1-.55-.36,1.92,1.92,0,0,1-.36-.56,2.11,2.11,0,0,1-.12-.73,1.75,1.75,0,0,1,.14-.74,1.63,1.63,0,0,1,.4-.56,1.79,1.79,0,0,1,.6-.35,2.36,2.36,0,0,1,.75-.12,2.27,2.27,0,0,1,.75.12,1.94,1.94,0,0,1,.61.35,1.49,1.49,0,0,1,.39.56,1.75,1.75,0,0,1,.15.74,2.19,2.19,0,0,1,0,.46c0,.14-.07.27-.11.4a2.53,2.53,0,0,1-.18.37,3.35,3.35,0,0,1-.21.36l-1.5,2.4h-.79Zm-.6-.43a1.51,1.51,0,0,0,.48-.08,1.28,1.28,0,0,0,.39-.24,1.12,1.12,0,0,0,.26-.38,1.27,1.27,0,0,0,.1-.5,1.26,1.26,0,0,0-.1-.49,1,1,0,0,0-.26-.38,1,1,0,0,0-.39-.24,1.33,1.33,0,0,0-1,0,.88.88,0,0,0-.38.24,1.19,1.19,0,0,0-.27.38,1.26,1.26,0,0,0-.09.49,1.28,1.28,0,0,0,.09.5,1.31,1.31,0,0,0,.27.38,1.12,1.12,0,0,0,.38.24A1.51,1.51,0,0,0,238.35,252.67Z"/><path d="M240.88,252.62a7.07,7.07,0,0,1,.08-1,2.88,2.88,0,0,1,.3-.94,2,2,0,0,1,.58-.71,1.84,1.84,0,0,1,1.92,0,2,2,0,0,1,.58.71,2.88,2.88,0,0,1,.3.94,7.07,7.07,0,0,1,.08,1,7,7,0,0,1-.08,1,2.86,2.86,0,0,1-.3.95,2,2,0,0,1-.58.71,1.84,1.84,0,0,1-1.92,0,2,2,0,0,1-.58-.71,2.86,2.86,0,0,1-.3-.95A7,7,0,0,1,240.88,252.62Zm.67,0c0,.14,0,.3,0,.47a4.43,4.43,0,0,0,.06.51,2.72,2.72,0,0,0,.13.51,1.51,1.51,0,0,0,.22.44,1.12,1.12,0,0,0,.34.31,1,1,0,0,0,1,0,1.12,1.12,0,0,0,.34-.31,1.51,1.51,0,0,0,.22-.44,2.72,2.72,0,0,0,.13-.51,4.43,4.43,0,0,0,.06-.51c0-.17,0-.33,0-.47s0-.29,0-.46a4.88,4.88,0,0,0-.06-.52,2.83,2.83,0,0,0-.13-.5,1.4,1.4,0,0,0-.22-.44,1.12,1.12,0,0,0-.34-.31,1,1,0,0,0-1,0,1.12,1.12,0,0,0-.34.31,1.4,1.4,0,0,0-.22.44,2.83,2.83,0,0,0-.13.5,4.88,4.88,0,0,0-.06.52C241.56,252.33,241.55,252.49,241.55,252.62Z"/><path d="M247.78,255.8l-.51-.2,2.41-6.14.5.19Z"/><path d="M257.1,251a1.66,1.66,0,0,0-.63-.52,1.92,1.92,0,0,0-.78-.17,2.06,2.06,0,0,0-.87.19,2.16,2.16,0,0,0-.68.52,2.21,2.21,0,0,0-.45.75,2.46,2.46,0,0,0-.16.89,2.56,2.56,0,0,0,.16.93,2.2,2.2,0,0,0,.44.74,2.1,2.1,0,0,0,.68.5,2,2,0,0,0,.88.19,2,2,0,0,0,.93-.21,2,2,0,0,0,.71-.59l.5.43a2.29,2.29,0,0,1-.92.75,3,3,0,0,1-1.22.24,2.8,2.8,0,0,1-2.05-.84,2.82,2.82,0,0,1-.61-.94,3.13,3.13,0,0,1-.22-1.2,3.19,3.19,0,0,1,.21-1.16,2.75,2.75,0,0,1,.6-1,3,3,0,0,1,.91-.63,2.93,2.93,0,0,1,1.16-.23,3,3,0,0,1,1.11.21,2,2,0,0,1,.89.68Z"/><path d="M258.46,254.69l2.14-2.08.35-.36a1.75,1.75,0,0,0,.25-.32,1,1,0,0,0,.15-.32,1.46,1.46,0,0,0,0-.38,1,1,0,0,0-.08-.4.93.93,0,0,0-.22-.3,1.13,1.13,0,0,0-.73-.26,1,1,0,0,0-.71.25,1.11,1.11,0,0,0-.36.66l-.73-.07a1.91,1.91,0,0,1,.21-.61,1.28,1.28,0,0,1,.39-.44,1.77,1.77,0,0,1,.53-.27,2.25,2.25,0,0,1,.64-.09,2.09,2.09,0,0,1,.67.1,1.53,1.53,0,0,1,.55.29,1.47,1.47,0,0,1,.37.48,1.39,1.39,0,0,1,.14.66,1.91,1.91,0,0,1-.09.61,1.8,1.8,0,0,1-.25.5,2.86,2.86,0,0,1-.35.43l-.41.41-1.75,1.64h2.89v.63h-3.65Z"/><path d="M266.35,250.42l-2.26,5h-.76l2.3-5H262.9v-.63h3.45Z"/><path d="M267.26,252.62a7.07,7.07,0,0,1,.08-1,3.45,3.45,0,0,1,.3-.94,2,2,0,0,1,.59-.71,1.82,1.82,0,0,1,1.91,0,2,2,0,0,1,.59.71,3.45,3.45,0,0,1,.3.94,7,7,0,0,1,.07,1,6.92,6.92,0,0,1-.07,1,3.41,3.41,0,0,1-.3.95,2,2,0,0,1-.59.71,1.82,1.82,0,0,1-1.91,0,2,2,0,0,1-.59-.71,3.41,3.41,0,0,1-.3-.95A7,7,0,0,1,267.26,252.62Zm.68,0c0,.14,0,.3,0,.47a4.43,4.43,0,0,0,.06.51,2.72,2.72,0,0,0,.13.51,1.53,1.53,0,0,0,.23.44,1,1,0,0,0,.34.31.89.89,0,0,0,.47.12,1,1,0,0,0,.49-.12,1.08,1.08,0,0,0,.33-.31,1.53,1.53,0,0,0,.23-.44,2.72,2.72,0,0,0,.13-.51,4.43,4.43,0,0,0,.06-.51c0-.17,0-.33,0-.47s0-.29,0-.46a4.88,4.88,0,0,0-.06-.52,2.83,2.83,0,0,0-.13-.5,1.41,1.41,0,0,0-.23-.44,1.08,1.08,0,0,0-.33-.31,1,1,0,0,0-.49-.12.89.89,0,0,0-.47.12,1,1,0,0,0-.34.31,1.41,1.41,0,0,0-.23.44,2.83,2.83,0,0,0-.13.5,4.88,4.88,0,0,0-.06.52C267.94,252.33,267.94,252.49,267.94,252.62Z"/><path d="M52.87,251a1.55,1.55,0,0,0-.63-.51,1.82,1.82,0,0,0-.79-.18,2,2,0,0,0-.87.2,2.13,2.13,0,0,0-.68.51,2.58,2.58,0,0,0-.45.75,2.67,2.67,0,0,0,0,1.82,2.29,2.29,0,0,0,.45.74,1.88,1.88,0,0,0,.68.5,1.92,1.92,0,0,0,.87.19,2,2,0,0,0,.93-.21,2.07,2.07,0,0,0,.71-.58l.51.42a2.38,2.38,0,0,1-.93.75,3,3,0,0,1-1.22.24,2.85,2.85,0,0,1-1.13-.22,2.82,2.82,0,0,1-.92-.62,3,3,0,0,1-.61-.94,3.27,3.27,0,0,1-.22-1.19,3.2,3.2,0,0,1,.21-1.17,3,3,0,0,1,.6-.95,3.08,3.08,0,0,1,.91-.63,3,3,0,0,1,2.27,0,2,2,0,0,1,.89.68Z"/><path d="M54.13,252.62a7,7,0,0,1,.08-1,3.11,3.11,0,0,1,.3-1,1.94,1.94,0,0,1,.59-.71,1.55,1.55,0,0,1,.95-.27,1.6,1.6,0,0,1,1,.27,2,2,0,0,1,.59.71,3.1,3.1,0,0,1,.29,1,5.77,5.77,0,0,1,.08,1,5.85,5.85,0,0,1-.08,1,3.13,3.13,0,0,1-.29.94,2,2,0,0,1-.59.71,1.6,1.6,0,0,1-1,.27,1.55,1.55,0,0,1-.95-.27,1.94,1.94,0,0,1-.59-.71,3.14,3.14,0,0,1-.3-.94A7.07,7.07,0,0,1,54.13,252.62Zm.67,0c0,.13,0,.29,0,.46a4.88,4.88,0,0,0,.06.52,2.83,2.83,0,0,0,.13.5,1.4,1.4,0,0,0,.22.44,1.1,1.1,0,0,0,.34.31,1,1,0,0,0,.48.12.9.9,0,0,0,.48-.12.92.92,0,0,0,.34-.31,1.41,1.41,0,0,0,.23-.44,2.8,2.8,0,0,0,.12-.5,4.88,4.88,0,0,0,.06-.52,3.86,3.86,0,0,0,0-.46,3.94,3.94,0,0,0,0-.47,4.43,4.43,0,0,0-.06-.51,2.71,2.71,0,0,0-.12-.51,1.53,1.53,0,0,0-.23-.44,1,1,0,0,0-.34-.31.9.9,0,0,0-.48-.12,1,1,0,0,0-.48.12,1.24,1.24,0,0,0-.34.31,1.51,1.51,0,0,0-.22.44,2.72,2.72,0,0,0-.13.51,4.43,4.43,0,0,0-.06.51C54.81,252.32,54.8,252.48,54.8,252.62Z"/><path d="M61,255.79l-.51-.2,2.41-6.14.51.19Z"/><path d="M70.36,251a1.52,1.52,0,0,0-.64-.51,1.78,1.78,0,0,0-.78-.18,2,2,0,0,0-.87.2,2.13,2.13,0,0,0-.68.51,2.58,2.58,0,0,0-.45.75,2.51,2.51,0,0,0-.16.9,2.54,2.54,0,0,0,.16.92,2.46,2.46,0,0,0,.44.74,2.09,2.09,0,0,0,1.56.69,2,2,0,0,0,.93-.21,2.07,2.07,0,0,0,.71-.58l.5.42a2.29,2.29,0,0,1-.92.75,3,3,0,0,1-1.22.24,2.93,2.93,0,0,1-1.14-.22,2.88,2.88,0,0,1-.91-.62,3,3,0,0,1-.61-.94,3.07,3.07,0,0,1-.22-1.19,3.2,3.2,0,0,1,.21-1.17,2.84,2.84,0,0,1,.6-.95,3,3,0,0,1,.91-.63,2.93,2.93,0,0,1,1.16-.23,3,3,0,0,1,1.11.21,2,2,0,0,1,.89.68Z"/><path d="M74.2,255.45h-.68v-4.8h0l-1,.85-.4-.48,1.52-1.24h.59Z"/><path d="M76.37,251.17a1.33,1.33,0,0,1,.13-.61,1.2,1.2,0,0,1,.34-.46,1.44,1.44,0,0,1,.51-.3,1.92,1.92,0,0,1,1.28,0,1.44,1.44,0,0,1,.51.3,1.32,1.32,0,0,1,.34.46,1.48,1.48,0,0,1,.12.61,1.44,1.44,0,0,1-.06.4,1.41,1.41,0,0,1-.18.37,1.18,1.18,0,0,1-.3.29,1,1,0,0,1-.38.19h0a1.44,1.44,0,0,1,.46.19,1.35,1.35,0,0,1,.35.32,1.67,1.67,0,0,1,.23.44,1.7,1.7,0,0,1,.08.51,1.74,1.74,0,0,1-.14.69,1.46,1.46,0,0,1-.39.52,1.47,1.47,0,0,1-.57.33,2.35,2.35,0,0,1-1.42,0,1.59,1.59,0,0,1-.58-.33,1.43,1.43,0,0,1-.38-.52,1.74,1.74,0,0,1-.14-.69,1.7,1.7,0,0,1,.08-.51,1.65,1.65,0,0,1,.22-.44,1.59,1.59,0,0,1,.36-.32,1.44,1.44,0,0,1,.46-.19h0a1.18,1.18,0,0,1-.39-.19,1.33,1.33,0,0,1-.29-.29,1.41,1.41,0,0,1-.18-.37A1.16,1.16,0,0,1,76.37,251.17Zm.48,2.67a1.14,1.14,0,0,0,.09.46,1.21,1.21,0,0,0,.24.35,1.16,1.16,0,0,0,.36.23A1.13,1.13,0,0,0,78,255a1,1,0,0,0,.44-.09,1,1,0,0,0,.36-.23,1.07,1.07,0,0,0,.25-.35,1.36,1.36,0,0,0,0-.92,1.07,1.07,0,0,0-.25-.35,1,1,0,0,0-.36-.23,1,1,0,0,0-.44-.09,1.13,1.13,0,0,0-.45.09,1.16,1.16,0,0,0-.36.23,1.21,1.21,0,0,0-.24.35A1.14,1.14,0,0,0,76.85,253.84ZM77,251.2a.92.92,0,0,0,.26.67.93.93,0,0,0,.69.27.9.9,0,0,0,.68-.27,1,1,0,0,0,0-1.34.9.9,0,0,0-.68-.27.93.93,0,0,0-.69.27A.92.92,0,0,0,77,251.2Z"/><path d="M80.52,252.62a5.77,5.77,0,0,1,.08-1,3.1,3.1,0,0,1,.29-1,2,2,0,0,1,.59-.71,1.6,1.6,0,0,1,1-.27,1.55,1.55,0,0,1,1,.27,1.94,1.94,0,0,1,.59.71,3.41,3.41,0,0,1,.3,1,7,7,0,0,1,.08,1,7.07,7.07,0,0,1-.08,1,3.45,3.45,0,0,1-.3.94,1.94,1.94,0,0,1-.59.71,1.55,1.55,0,0,1-1,.27,1.6,1.6,0,0,1-1-.27,2,2,0,0,1-.59-.71,3.13,3.13,0,0,1-.29-.94A5.85,5.85,0,0,1,80.52,252.62Zm.67,0a3.86,3.86,0,0,0,0,.46c0,.17,0,.34.05.52a4.07,4.07,0,0,0,.13.5,1.41,1.41,0,0,0,.23.44.92.92,0,0,0,.34.31.9.9,0,0,0,.48.12,1,1,0,0,0,.48-.12,1.1,1.1,0,0,0,.34-.31,1.65,1.65,0,0,0,.22-.44,2.83,2.83,0,0,0,.13-.5,4.88,4.88,0,0,0,.06-.52c0-.17,0-.33,0-.46s0-.3,0-.47a4.43,4.43,0,0,0-.06-.51,2.72,2.72,0,0,0-.13-.51,1.81,1.81,0,0,0-.22-.44,1.24,1.24,0,0,0-.34-.31,1,1,0,0,0-.48-.12.9.9,0,0,0-.48.12,1,1,0,0,0-.34.31,1.53,1.53,0,0,0-.23.44,3.8,3.8,0,0,0-.13.51c0,.17,0,.34-.05.51A3.94,3.94,0,0,0,81.19,252.62Z"/><line class="cls-2" x1="214.49" y1="253.42" x2="215.03" y2="253.42"/><line class="cls-2" x1="217.76" y1="253.42" x2="218.3" y2="253.42"/><line class="cls-2" x1="221.02" y1="253.42" x2="221.56" y2="253.42"/><line class="cls-2" x1="224.29" y1="253.42" x2="224.83" y2="253.42"/><line class="cls-2" x1="227.55" y1="253.42" x2="228.09" y2="253.42"/></g><g id="AIM_F00900"><path d="M56.07,12.53h4.39v.78H56.91v2.34h3.3v.78h-3.3v3.18h-.84Z"/><path d="M61.13,16.07a9.14,9.14,0,0,1,.1-1.25,4,4,0,0,1,.37-1.19,2.53,2.53,0,0,1,.74-.88,2.27,2.27,0,0,1,2.39,0,2.5,2.5,0,0,1,.73.88,3.77,3.77,0,0,1,.37,1.19,7.79,7.79,0,0,1,.1,1.25,7.88,7.88,0,0,1-.1,1.25,3.71,3.71,0,0,1-.37,1.18,2.41,2.41,0,0,1-.73.88,2.22,2.22,0,0,1-2.39,0,2.44,2.44,0,0,1-.74-.88,4,4,0,0,1-.37-1.18A9.26,9.26,0,0,1,61.13,16.07Zm.84,0c0,.17,0,.36,0,.58s0,.43.08.64a3.53,3.53,0,0,0,.16.64,2,2,0,0,0,.28.55,1.27,1.27,0,0,0,.42.38,1.16,1.16,0,0,0,.6.15,1.11,1.11,0,0,0,.6-.15,1.3,1.3,0,0,0,.43-.38,2.37,2.37,0,0,0,.28-.55,4.79,4.79,0,0,0,.23-1.28c0-.22,0-.41,0-.58s0-.37,0-.58a4.78,4.78,0,0,0-.07-.65,4.47,4.47,0,0,0-.16-.63,2.19,2.19,0,0,0-.28-.55,1.45,1.45,0,0,0-.43-.39,1.21,1.21,0,0,0-.6-.14,1.27,1.27,0,0,0-.6.14,1.42,1.42,0,0,0-.42.39,1.9,1.9,0,0,0-.28.55,3.42,3.42,0,0,0-.16.63c0,.22-.06.43-.08.65S62,15.89,62,16.07Z"/><path d="M66.69,16.07a9.14,9.14,0,0,1,.1-1.25,4,4,0,0,1,.37-1.19,2.53,2.53,0,0,1,.74-.88,2.27,2.27,0,0,1,2.39,0,2.5,2.5,0,0,1,.73.88,3.77,3.77,0,0,1,.37,1.19,7.79,7.79,0,0,1,.1,1.25,7.88,7.88,0,0,1-.1,1.25A3.71,3.71,0,0,1,71,18.5a2.41,2.41,0,0,1-.73.88,2.22,2.22,0,0,1-2.39,0,2.44,2.44,0,0,1-.74-.88,4,4,0,0,1-.37-1.18A9.26,9.26,0,0,1,66.69,16.07Zm.84,0c0,.17,0,.36,0,.58s0,.43.08.64a4.61,4.61,0,0,0,.16.64,2,2,0,0,0,.28.55,1.37,1.37,0,0,0,.42.38,1.16,1.16,0,0,0,.6.15,1.11,1.11,0,0,0,.6-.15,1.3,1.3,0,0,0,.43-.38,2.37,2.37,0,0,0,.28-.55,4.79,4.79,0,0,0,.23-1.28c0-.22,0-.41,0-.58s0-.37,0-.58a4.78,4.78,0,0,0-.07-.65,4.47,4.47,0,0,0-.16-.63,2.19,2.19,0,0,0-.28-.55,1.45,1.45,0,0,0-.43-.39,1.21,1.21,0,0,0-.6-.14,1.27,1.27,0,0,0-.6.14,1.55,1.55,0,0,0-.42.39,1.9,1.9,0,0,0-.28.55,4.47,4.47,0,0,0-.16.63c0,.22-.06.43-.08.65S67.53,15.89,67.53,16.07Z"/><path d="M75.39,16.66l0,0a1.91,1.91,0,0,1-.46.16,3,3,0,0,1-.49.05,2.38,2.38,0,0,1-.85-.16,2,2,0,0,1-.68-.46,2.11,2.11,0,0,1-.45-.7,2.57,2.57,0,0,1-.16-.9,2.27,2.27,0,0,1,.18-.93A2,2,0,0,1,73,13a2.48,2.48,0,0,1,.76-.44,3,3,0,0,1,1.87,0,2.32,2.32,0,0,1,.75.44,1.87,1.87,0,0,1,.5.7,2.27,2.27,0,0,1,.18.93,2.63,2.63,0,0,1,0,.57,2.85,2.85,0,0,1-.14.5,3.82,3.82,0,0,1-.21.46c-.08.15-.17.3-.27.46l-1.88,3h-1Zm-.74-.53a1.64,1.64,0,0,0,.6-.11,1.44,1.44,0,0,0,.49-.3,1.31,1.31,0,0,0,.32-.47,1.66,1.66,0,0,0,0-1.24,1.35,1.35,0,0,0-.32-.48,1.44,1.44,0,0,0-.49-.3,1.64,1.64,0,0,0-.6-.1,1.72,1.72,0,0,0-.6.1,1.5,1.5,0,0,0-.48.3,1.37,1.37,0,0,0-.33.48,1.66,1.66,0,0,0,0,1.24,1.33,1.33,0,0,0,.33.47,1.5,1.5,0,0,0,.48.3A1.73,1.73,0,0,0,74.65,16.13Z"/><path d="M77.81,16.07a9.14,9.14,0,0,1,.1-1.25,4,4,0,0,1,.37-1.19,2.53,2.53,0,0,1,.74-.88,2.27,2.27,0,0,1,2.39,0,2.5,2.5,0,0,1,.73.88,3.77,3.77,0,0,1,.37,1.19,7.79,7.79,0,0,1,.1,1.25,7.88,7.88,0,0,1-.1,1.25,3.71,3.71,0,0,1-.37,1.18,2.41,2.41,0,0,1-.73.88,2.22,2.22,0,0,1-2.39,0,2.44,2.44,0,0,1-.74-.88,4,4,0,0,1-.37-1.18A9.26,9.26,0,0,1,77.81,16.07Zm.84,0c0,.17,0,.36,0,.58s0,.43.08.64a4.61,4.61,0,0,0,.16.64,2,2,0,0,0,.28.55,1.37,1.37,0,0,0,.42.38,1.16,1.16,0,0,0,.6.15,1.11,1.11,0,0,0,.6-.15,1.3,1.3,0,0,0,.43-.38,2.37,2.37,0,0,0,.28-.55,4.79,4.79,0,0,0,.23-1.28c0-.22,0-.41,0-.58s0-.37,0-.58a4.78,4.78,0,0,0-.07-.65,4.47,4.47,0,0,0-.16-.63,2.19,2.19,0,0,0-.28-.55,1.45,1.45,0,0,0-.43-.39,1.21,1.21,0,0,0-.6-.14,1.27,1.27,0,0,0-.6.14,1.55,1.55,0,0,0-.42.39,1.9,1.9,0,0,0-.28.55,4.47,4.47,0,0,0-.16.63c0,.22-.06.43-.08.65S78.65,15.89,78.65,16.07Z"/><path d="M83.37,16.07a9.14,9.14,0,0,1,.1-1.25,4,4,0,0,1,.37-1.19,2.53,2.53,0,0,1,.74-.88,2.27,2.27,0,0,1,2.39,0,2.5,2.5,0,0,1,.73.88,3.77,3.77,0,0,1,.37,1.19,7.79,7.79,0,0,1,.1,1.25,7.88,7.88,0,0,1-.1,1.25,3.71,3.71,0,0,1-.37,1.18,2.41,2.41,0,0,1-.73.88,2.22,2.22,0,0,1-2.39,0,2.44,2.44,0,0,1-.74-.88,4,4,0,0,1-.37-1.18A9.26,9.26,0,0,1,83.37,16.07Zm.84,0c0,.17,0,.36,0,.58s0,.43.08.64a4.61,4.61,0,0,0,.16.64,2,2,0,0,0,.28.55,1.37,1.37,0,0,0,.42.38,1.16,1.16,0,0,0,.6.15,1.11,1.11,0,0,0,.6-.15,1.3,1.3,0,0,0,.43-.38,2,2,0,0,0,.28-.55,4.79,4.79,0,0,0,.23-1.28c0-.22,0-.41,0-.58s0-.37,0-.58a4.78,4.78,0,0,0-.07-.65,4.47,4.47,0,0,0-.16-.63,1.9,1.9,0,0,0-.28-.55,1.45,1.45,0,0,0-.43-.39,1.21,1.21,0,0,0-.6-.14,1.27,1.27,0,0,0-.6.14,1.55,1.55,0,0,0-.42.39,1.9,1.9,0,0,0-.28.55,4.47,4.47,0,0,0-.16.63c0,.22-.06.43-.08.65S84.21,15.89,84.21,16.07Z"/><path d="M88.55,20.36h5v.5h-5Z"/><path d="M97.15,19.61h-.84v-6h0L95,14.68l-.5-.61,1.9-1.54h.73Z"/><path d="M101.15,15.48l0,0a1.37,1.37,0,0,1,.47-.16,2.37,2.37,0,0,1,1.34.11,1.93,1.93,0,0,1,1.12,1.16,2.36,2.36,0,0,1,.16.9,2.34,2.34,0,0,1-.18.93,1.92,1.92,0,0,1-.5.69,2.16,2.16,0,0,1-.75.44,2.81,2.81,0,0,1-1.87,0,2.3,2.3,0,0,1-.76-.44,2,2,0,0,1-.5-.69,2.34,2.34,0,0,1-.18-.93,2.88,2.88,0,0,1,.19-1.07,6.22,6.22,0,0,1,.48-.92l1.88-3h1Zm.74.53a1.72,1.72,0,0,0-.6.1,1.5,1.5,0,0,0-.48.3,1.37,1.37,0,0,0-.33.48,1.66,1.66,0,0,0,0,1.24,1.33,1.33,0,0,0,.33.47,1.5,1.5,0,0,0,.48.3,1.73,1.73,0,0,0,.6.11,1.64,1.64,0,0,0,.6-.11,1.44,1.44,0,0,0,.49-.3,1.31,1.31,0,0,0,.32-.47,1.66,1.66,0,0,0,0-1.24,1.35,1.35,0,0,0-.32-.48,1.44,1.44,0,0,0-.49-.3A1.64,1.64,0,0,0,101.89,16Z"/><path d="M104.73,12.53h.93l1.61,5.88h0L109,12.53H110l1.73,5.88h0l1.64-5.88h.88l-2.08,7.08h-.91l-1.75-6h0l-1.76,6h-.92Z"/><path d="M117.89,12.53h.84v6.3H122v.78h-4.08Z"/><path d="M122.89,12.53h4.45v.78h-3.61v2.22h3.37v.78h-3.37v2.52h3.79v.78h-4.63Z"/><path d="M128.69,12.53h2.72a3.22,3.22,0,0,1,.74.08,3.92,3.92,0,0,1,.78.25,3.63,3.63,0,0,1,.74.46,3.07,3.07,0,0,1,.62.67,3.32,3.32,0,0,1,.43.91,3.85,3.85,0,0,1,.16,1.17,3.78,3.78,0,0,1-.16,1.16,3.07,3.07,0,0,1-.43.91,3.12,3.12,0,0,1-.62.68,3.57,3.57,0,0,1-.74.45,4,4,0,0,1-.78.26,3.89,3.89,0,0,1-.74.08h-2.72Zm.84,6.3h1.6a4,4,0,0,0,1.13-.16,2.33,2.33,0,0,0,.9-.5,2.19,2.19,0,0,0,.6-.85,3.17,3.17,0,0,0,.22-1.25,3.11,3.11,0,0,0-.22-1.25,2.22,2.22,0,0,0-.6-.86,2.31,2.31,0,0,0-.9-.49,3.67,3.67,0,0,0-1.13-.16h-1.6Z"/><rect class="cls-3" x="55.19" y="42.2" width="189.86" height="189.86"/><circle class="cls-4" cx="150.13" cy="137.08" r="21.06"/><circle class="cls-4" cx="150.13" cy="137.08" r="42.17"/><circle class="cls-4" cx="150.13" cy="137.08" r="63.23"/><circle class="cls-4" cx="150.13" cy="137.08" r="84.35"/><line class="cls-4" x1="55.19" y1="137.13" x2="245.11" y2="137.13"/><line class="cls-4" x1="150.13" y1="232.06" x2="150.13" y2="42.14"/><line class="cls-4" x1="95.37" y1="42.14" x2="204.94" y2="232.06"/><line class="cls-4" x1="95.37" y1="232.06" x2="204.94" y2="42.14"/><line class="cls-4" x1="55.19" y1="82.32" x2="245.11" y2="191.89"/><line class="cls-4" x1="55.19" y1="191.89" x2="245.11" y2="82.32"/><line class="cls-1" x1="150.13" y1="229.31" x2="151.75" y2="229.25"/><line class="cls-1" x1="151.75" y1="229.25" x2="153.37" y2="229.2"/><line class="cls-1" x1="153.37" y1="229.2" x2="154.93" y2="228.82"/><line class="cls-1" x1="154.93" y1="228.82" x2="156.55" y2="228.61"/><line class="cls-1" x1="156.55" y1="228.61" x2="158.12" y2="228.17"/><line class="cls-1" x1="158.12" y1="228.17" x2="159.63" y2="227.69"/><line class="cls-1" x1="159.63" y1="227.69" x2="161.2" y2="227.09"/><line class="cls-1" x1="161.2" y1="227.09" x2="162.71" y2="226.5"/><line class="cls-1" x1="162.71" y1="226.5" x2="164.17" y2="225.64"/><line class="cls-1" x1="164.17" y1="225.64" x2="165.62" y2="224.88"/><line class="cls-1" x1="165.62" y1="224.88" x2="167.03" y2="223.96"/><line class="cls-1" x1="167.03" y1="223.96" x2="168.38" y2="222.94"/><line class="cls-1" x1="168.38" y1="222.94" x2="169.73" y2="221.91"/><line class="cls-1" x1="169.73" y1="221.91" x2="171.02" y2="220.83"/><line class="cls-1" x1="171.02" y1="220.83" x2="172.27" y2="219.64"/><line class="cls-1" x1="172.27" y1="219.64" x2="173.45" y2="218.35"/><line class="cls-1" x1="173.45" y1="218.35" x2="174.59" y2="217.1"/><line class="cls-1" x1="174.59" y1="217.1" x2="175.61" y2="215.59"/><line class="cls-1" x1="175.61" y1="215.59" x2="176.69" y2="214.24"/><line class="cls-1" x1="176.69" y1="214.24" x2="177.67" y2="212.73"/><line class="cls-1" x1="177.67" y1="212.73" x2="178.58" y2="211.16"/><line class="cls-1" x1="178.58" y1="211.16" x2="179.45" y2="209.65"/><line class="cls-1" x1="179.45" y1="209.65" x2="180.26" y2="208.03"/><line class="cls-1" x1="180.26" y1="208.03" x2="181.01" y2="206.41"/><line class="cls-1" x1="181.01" y1="206.41" x2="181.66" y2="204.74"/><line class="cls-1" x1="181.66" y1="204.74" x2="182.31" y2="203.01"/><line class="cls-1" x1="182.31" y1="203.01" x2="182.85" y2="201.28"/><line class="cls-1" x1="182.85" y1="201.28" x2="183.34" y2="199.55"/><line class="cls-1" x1="183.34" y1="199.55" x2="183.77" y2="197.77"/><line class="cls-1" x1="183.77" y1="197.77" x2="184.15" y2="195.99"/><line class="cls-1" x1="184.15" y1="195.99" x2="184.52" y2="194.32"/><line class="cls-1" x1="184.52" y1="194.32" x2="184.74" y2="192.43"/><line class="cls-1" x1="184.74" y1="192.43" x2="184.9" y2="190.64"/><line class="cls-1" x1="184.9" y1="190.64" x2="185.06" y2="188.86"/><line class="cls-1" x1="185.06" y1="188.86" x2="185.17" y2="187.13"/><line class="cls-1" x1="185.17" y1="187.13" x2="185.17" y2="185.3"/><line class="cls-1" x1="185.17" y1="185.3" x2="185.17" y2="183.57"/><line class="cls-1" x1="185.17" y1="183.57" x2="185.06" y2="181.84"/><line class="cls-1" x1="185.06" y1="181.84" x2="184.96" y2="180.06"/><line class="cls-1" x1="184.96" y1="180.06" x2="184.79" y2="178.39"/><line class="cls-1" x1="184.79" y1="178.39" x2="184.58" y2="176.71"/><line class="cls-1" x1="184.58" y1="176.71" x2="184.36" y2="175.09"/><line class="cls-1" x1="184.36" y1="175.09" x2="184.04" y2="173.42"/><line class="cls-1" x1="184.04" y1="173.42" x2="183.71" y2="171.85"/><line class="cls-1" x1="183.71" y1="171.85" x2="183.34" y2="170.29"/><line class="cls-1" x1="183.34" y1="170.29" x2="182.9" y2="168.72"/><line class="cls-1" x1="182.9" y1="168.72" x2="182.47" y2="167.26"/><line class="cls-1" x1="182.47" y1="167.26" x2="181.93" y2="165.7"/><line class="cls-1" x1="181.93" y1="165.7" x2="181.45" y2="164.29"/><line class="cls-1" x1="181.45" y1="164.29" x2="180.91" y2="162.89"/><line class="cls-1" x1="180.91" y1="162.89" x2="180.31" y2="161.54"/><line class="cls-1" x1="180.31" y1="161.54" x2="179.72" y2="160.19"/><line class="cls-1" x1="179.72" y1="160.19" x2="179.07" y2="158.89"/><line class="cls-1" x1="179.07" y1="158.89" x2="178.42" y2="157.65"/><line class="cls-1" x1="178.42" y1="157.65" x2="177.77" y2="156.41"/><line class="cls-1" x1="177.77" y1="156.41" x2="177.07" y2="155.22"/><line class="cls-1" x1="177.07" y1="155.22" x2="176.37" y2="154.09"/><line class="cls-1" x1="176.37" y1="154.09" x2="175.61" y2="153.01"/><line class="cls-1" x1="175.61" y1="153.01" x2="174.86" y2="151.93"/><line class="cls-1" x1="174.86" y1="151.93" x2="174.1" y2="150.95"/><line class="cls-1" x1="174.1" y1="150.95" x2="173.35" y2="149.93"/><line class="cls-1" x1="173.35" y1="149.93" x2="172.54" y2="149.01"/><line class="cls-1" x1="172.54" y1="149.01" x2="171.73" y2="148.09"/><line class="cls-1" x1="171.73" y1="148.09" x2="170.92" y2="147.23"/><line class="cls-1" x1="170.92" y1="147.23" x2="170.11" y2="146.36"/><line class="cls-1" x1="170.11" y1="146.36" x2="169.24" y2="145.61"/><line class="cls-1" x1="169.24" y1="145.61" x2="168.43" y2="144.85"/><line class="cls-1" x1="168.43" y1="144.85" x2="167.57" y2="144.15"/><line class="cls-1" x1="167.57" y1="144.15" x2="166.76" y2="143.45"/><line class="cls-1" x1="166.76" y1="143.45" x2="165.89" y2="142.8"/><line class="cls-1" x1="165.89" y1="142.8" x2="165.03" y2="142.21"/><line class="cls-1" x1="165.03" y1="142.21" x2="164.22" y2="141.67"/><line class="cls-1" x1="164.22" y1="141.67" x2="163.36" y2="141.13"/><line class="cls-1" x1="163.36" y1="141.13" x2="162.49" y2="140.64"/><line class="cls-1" x1="162.49" y1="140.64" x2="161.63" y2="140.15"/><line class="cls-1" x1="161.63" y1="140.15" x2="160.82" y2="139.72"/><line class="cls-1" x1="160.82" y1="139.72" x2="160.01" y2="139.34"/><line class="cls-1" x1="160.01" y1="139.34" x2="159.25" y2="139.02"/><line class="cls-1" x1="159.25" y1="139.02" x2="158.44" y2="138.7"/><line class="cls-1" x1="158.44" y1="138.7" x2="157.69" y2="138.43"/><line class="cls-1" x1="157.69" y1="138.43" x2="156.98" y2="138.16"/><line class="cls-1" x1="156.98" y1="138.16" x2="156.28" y2="137.94"/><line class="cls-1" x1="156.28" y1="137.94" x2="155.58" y2="137.72"/><line class="cls-1" x1="155.58" y1="137.72" x2="154.93" y2="137.56"/><line class="cls-1" x1="154.93" y1="137.56" x2="154.34" y2="137.45"/><line class="cls-1" x1="154.34" y1="137.45" x2="153.8" y2="137.35"/><line class="cls-1" x1="153.8" y1="137.35" x2="153.26" y2="137.24"/><line class="cls-1" x1="153.26" y1="137.24" x2="152.83" y2="137.18"/><line class="cls-1" x1="152.83" y1="137.18" x2="152.45" y2="137.13"/><line class="cls-1" x1="152.45" y1="137.13" x2="152.07" y2="137.13"/><line class="cls-1" x1="152.07" y1="137.13" x2="150.13" y2="137.13"/><line class="cls-1" x1="150.13" y1="137.13" x2="150.13" y2="137.13"/><line class="cls-1" x1="150.13" y1="137.13" x2="150.13" y2="137.13"/><line class="cls-1" x1="150.13" y1="137.13" x2="150.13" y2="137.13"/><line class="cls-1" x1="150.13" y1="137.13" x2="150.13" y2="137.13"/><line class="cls-1" x1="150.13" y1="137.13" x2="150.13" y2="137.13"/><line class="cls-1" x1="150.13" y1="137.13" x2="150.13" y2="137.13"/><line class="cls-1" x1="150.13" y1="137.13" x2="150.13" y2="137.13"/><line class="cls-1" x1="150.13" y1="137.13" x2="150.13" y2="137.13"/><line class="cls-1" x1="150.13" y1="137.13" x2="150.13" y2="137.13"/><line class="cls-1" x1="150.13" y1="137.13" x2="150.13" y2="137.13"/><line class="cls-1" x1="150.13" y1="137.13" x2="150.13" y2="137.13"/><line class="cls-1" x1="150.13" y1="137.13" x2="150.13" y2="137.13"/><line class="cls-1" x1="150.13" y1="137.13" x2="150.13" y2="137.13"/><line class="cls-1" x1="150.13" y1="137.13" x2="150.13" y2="137.13"/><line class="cls-1" x1="150.13" y1="137.13" x2="150.13" y2="137.13"/><line class="cls-1" x1="150.13" y1="137.13" x2="150.13" y2="137.13"/><line class="cls-1" x1="150.13" y1="137.13" x2="150.13" y2="137.13"/><line class="cls-1" x1="150.13" y1="137.13" x2="150.13" y2="137.13"/><line class="cls-1" x1="150.13" y1="137.13" x2="150.13" y2="137.13"/><line class="cls-1" x1="150.13" y1="137.13" x2="150.13" y2="137.13"/><line class="cls-1" x1="150.13" y1="137.13" x2="150.13" y2="137.13"/><line class="cls-1" x1="150.13" y1="137.13" x2="150.13" y2="137.13"/><line class="cls-1" x1="150.13" y1="137.13" x2="150.13" y2="137.13"/><line class="cls-1" x1="150.13" y1="137.13" x2="150.13" y2="137.13"/><line class="cls-1" x1="150.13" y1="137.13" x2="150.13" y2="137.13"/><line class="cls-1" x1="150.13" y1="137.13" x2="150.13" y2="137.13"/><line class="cls-1" x1="150.13" y1="137.13" x2="150.13" y2="137.13"/><line class="cls-1" x1="150.13" y1="137.13" x2="150.13" y2="137.13"/><line class="cls-1" x1="150.13" y1="137.13" x2="150.13" y2="137.13"/><line class="cls-1" x1="150.13" y1="137.13" x2="150.13" y2="137.13"/><line class="cls-1" x1="150.13" y1="137.13" x2="150.13" y2="137.13"/><line class="cls-1" x1="150.13" y1="137.13" x2="150.13" y2="137.13"/><line class="cls-1" x1="150.13" y1="137.13" x2="150.13" y2="137.13"/><line class="cls-1" x1="150.13" y1="137.13" x2="150.13" y2="137.13"/><line class="cls-1" x1="150.13" y1="137.13" x2="150.13" y2="137.13"/><line class="cls-1" x1="150.13" y1="137.13" x2="150.13" y2="137.13"/><line class="cls-1" x1="150.13" y1="137.13" x2="150.13" y2="137.13"/><line class="cls-1" x1="150.13" y1="137.13" x2="150.13" y2="137.13"/><line class="cls-1" x1="150.13" y1="137.13" x2="150.13" y2="137.13"/><line class="cls-1" x1="150.13" y1="137.13" x2="150.13" y2="137.13"/><line class="cls-1" x1="150.13" y1="137.13" x2="150.13" y2="137.13"/><line class="cls-1" x1="150.13" y1="137.13" x2="150.13" y2="137.13"/><line class="cls-1" x1="150.13" y1="137.13" x2="150.13" y2="137.13"/><line class="cls-1" x1="150.13" y1="137.13" x2="150.13" y2="137.13"/><line class="cls-1" x1="150.13" y1="137.13" x2="150.13" y2="137.13"/><line class="cls-1" x1="150.13" y1="137.13" x2="150.13" y2="137.13"/><line class="cls-1" x1="150.13" y1="137.13" x2="150.13" y2="137.13"/><line class="cls-1" x1="150.13" y1="137.13" x2="150.13" y2="137.13"/><line class="cls-1" x1="150.13" y1="137.13" x2="150.13" y2="137.13"/><line class="cls-1" x1="150.13" y1="137.13" x2="150.13" y2="137.13"/><line class="cls-1" x1="150.13" y1="137.13" x2="150.13" y2="137.13"/><line class="cls-1" x1="150.13" y1="137.13" x2="150.13" y2="137.13"/><line class="cls-1" x1="150.13" y1="137.13" x2="150.13" y2="137.13"/><line class="cls-1" x1="150.13" y1="137.13" x2="150.13" y2="137.13"/><line class="cls-1" x1="150.13" y1="137.13" x2="150.13" y2="137.13"/><line class="cls-1" x1="150.13" y1="137.13" x2="150.13" y2="137.13"/><line class="cls-1" x1="150.13" y1="137.13" x2="150.13" y2="137.13"/><line class="cls-1" x1="150.13" y1="137.13" x2="150.13" y2="137.13"/><line class="cls-1" x1="150.13" y1="137.13" x2="150.13" y2="137.13"/><line class="cls-1" x1="150.13" y1="137.13" x2="150.13" y2="137.13"/><line class="cls-1" x1="150.13" y1="137.13" x2="150.13" y2="137.13"/><line class="cls-1" x1="150.13" y1="137.13" x2="150.13" y2="137.13"/><line class="cls-1" x1="150.13" y1="137.13" x2="150.13" y2="137.13"/><line class="cls-1" x1="150.13" y1="137.13" x2="150.13" y2="137.13"/><line class="cls-1" x1="150.13" y1="137.13" x2="150.13" y2="137.13"/><line class="cls-1" x1="150.13" y1="137.13" x2="150.13" y2="137.13"/><line class="cls-1" x1="150.13" y1="137.13" x2="150.13" y2="137.13"/><line class="cls-1" x1="150.13" y1="137.13" x2="150.13" y2="137.13"/><line class="cls-1" x1="150.13" y1="137.13" x2="150.13" y2="137.13"/><line class="cls-1" x1="150.13" y1="137.13" x2="150.13" y2="137.13"/><line class="cls-1" x1="150.13" y1="137.13" x2="150.13" y2="137.13"/><line class="cls-1" x1="150.13" y1="137.13" x2="150.13" y2="137.13"/><line class="cls-1" x1="150.13" y1="137.13" x2="150.13" y2="137.13"/><line class="cls-1" x1="150.13" y1="137.13" x2="150.13" y2="137.13"/><line class="cls-1" x1="150.13" y1="137.13" x2="150.13" y2="137.13"/><line class="cls-1" x1="150.13" y1="137.13" x2="150.13" y2="137.13"/><line class="cls-1" x1="150.13" y1="137.13" x2="150.13" y2="137.13"/><line class="cls-1" x1="150.13" y1="137.13" x2="150.13" y2="137.13"/><line class="cls-1" x1="150.13" y1="137.13" x2="150.13" y2="137.13"/><line class="cls-1" x1="150.13" y1="137.13" x2="150.13" y2="137.13"/><line class="cls-1" x1="150.13" y1="137.13" x2="150.13" y2="137.13"/><line class="cls-1" x1="150.13" y1="137.13" x2="150.13" y2="137.13"/><line class="cls-1" x1="150.13" y1="137.13" x2="150.13" y2="137.13"/><line class="cls-1" x1="150.13" y1="137.13" x2="150.13" y2="137.13"/><line class="cls-1" x1="150.13" y1="137.13" x2="150.13" y2="137.13"/><line class="cls-1" x1="150.13" y1="137.13" x2="150.13" y2="137.13"/><line class="cls-1" x1="150.13" y1="137.13" x2="150.13" y2="137.13"/><line class="cls-1" x1="150.13" y1="137.13" x2="150.13" y2="137.13"/><line class="cls-1" x1="150.13" y1="137.13" x2="150.13" y2="137.13"/><line class="cls-1" x1="150.13" y1="229.31" x2="148.56" y2="229.25"/><line class="cls-1" x1="148.56" y1="229.25" x2="146.94" y2="229.2"/><line class="cls-1" x1="146.94" y1="229.2" x2="145.37" y2="228.82"/><line class="cls-1" x1="145.37" y1="228.82" x2="143.75" y2="228.61"/><line class="cls-1" x1="143.75" y1="228.61" x2="142.19" y2="228.17"/><line class="cls-1" x1="142.19" y1="228.17" x2="140.68" y2="227.69"/><line class="cls-1" x1="140.68" y1="227.69" x2="139.11" y2="227.09"/><line class="cls-1" x1="139.11" y1="227.09" x2="137.6" y2="226.5"/><line class="cls-1" x1="137.6" y1="226.5" x2="136.14" y2="225.64"/><line class="cls-1" x1="136.14" y1="225.64" x2="134.68" y2="224.88"/><line class="cls-1" x1="134.68" y1="224.88" x2="133.28" y2="223.96"/><line class="cls-1" x1="133.28" y1="223.96" x2="131.93" y2="222.94"/><line class="cls-1" x1="131.93" y1="222.94" x2="130.58" y2="221.91"/><line class="cls-1" x1="130.58" y1="221.91" x2="129.28" y2="220.83"/><line class="cls-1" x1="129.28" y1="220.83" x2="128.04" y2="219.64"/><line class="cls-1" x1="128.04" y1="219.64" x2="126.85" y2="218.35"/><line class="cls-1" x1="126.85" y1="218.35" x2="125.72" y2="217.1"/><line class="cls-1" x1="125.72" y1="217.1" x2="124.69" y2="215.59"/><line class="cls-1" x1="124.69" y1="215.59" x2="123.61" y2="214.24"/><line class="cls-1" x1="123.61" y1="214.24" x2="122.64" y2="212.73"/><line class="cls-1" x1="122.64" y1="212.73" x2="121.72" y2="211.16"/><line class="cls-1" x1="121.72" y1="211.16" x2="120.86" y2="209.65"/><line class="cls-1" x1="120.86" y1="209.65" x2="120.05" y2="208.03"/><line class="cls-1" x1="120.05" y1="208.03" x2="119.29" y2="206.41"/><line class="cls-1" x1="119.29" y1="206.41" x2="118.64" y2="204.74"/><line class="cls-1" x1="118.64" y1="204.74" x2="118" y2="203.01"/><line class="cls-1" x1="118" y1="203.01" x2="117.46" y2="201.28"/><line class="cls-1" x1="117.46" y1="201.28" x2="116.97" y2="199.55"/><line class="cls-1" x1="116.97" y1="199.55" x2="116.54" y2="197.77"/><line class="cls-1" x1="116.54" y1="197.77" x2="116.16" y2="195.99"/><line class="cls-1" x1="116.16" y1="195.99" x2="115.78" y2="194.32"/><line class="cls-1" x1="115.78" y1="194.32" x2="115.57" y2="192.43"/><line class="cls-1" x1="115.57" y1="192.43" x2="115.4" y2="190.64"/><line class="cls-1" x1="115.4" y1="190.64" x2="115.24" y2="188.86"/><line class="cls-1" x1="115.24" y1="188.86" x2="115.13" y2="187.13"/><line class="cls-1" x1="115.13" y1="187.13" x2="115.13" y2="185.3"/><line class="cls-1" x1="115.13" y1="185.3" x2="115.13" y2="183.57"/><line class="cls-1" x1="115.13" y1="183.57" x2="115.24" y2="181.84"/><line class="cls-1" x1="115.24" y1="181.84" x2="115.35" y2="180.06"/><line class="cls-1" x1="115.35" y1="180.06" x2="115.51" y2="178.39"/><line class="cls-1" x1="115.51" y1="178.39" x2="115.73" y2="176.71"/><line class="cls-1" x1="115.73" y1="176.71" x2="115.94" y2="175.09"/><line class="cls-1" x1="115.94" y1="175.09" x2="116.27" y2="173.42"/><line class="cls-1" x1="116.27" y1="173.42" x2="116.59" y2="171.85"/><line class="cls-1" x1="116.59" y1="171.85" x2="116.97" y2="170.29"/><line class="cls-1" x1="116.97" y1="170.29" x2="117.4" y2="168.72"/><line class="cls-1" x1="117.4" y1="168.72" x2="117.83" y2="167.26"/><line class="cls-1" x1="117.83" y1="167.26" x2="118.37" y2="165.7"/><line class="cls-1" x1="118.37" y1="165.7" x2="118.86" y2="164.29"/><line class="cls-1" x1="118.86" y1="164.29" x2="119.4" y2="162.89"/><line class="cls-1" x1="119.4" y1="162.89" x2="119.99" y2="161.54"/><line class="cls-1" x1="119.99" y1="161.54" x2="120.59" y2="160.19"/><line class="cls-1" x1="120.59" y1="160.19" x2="121.24" y2="158.89"/><line class="cls-1" x1="121.24" y1="158.89" x2="121.88" y2="157.65"/><line class="cls-1" x1="121.88" y1="157.65" x2="122.53" y2="156.41"/><line class="cls-1" x1="122.53" y1="156.41" x2="123.23" y2="155.22"/><line class="cls-1" x1="123.23" y1="155.22" x2="123.94" y2="154.09"/><line class="cls-1" x1="123.94" y1="154.09" x2="124.69" y2="153.01"/><line class="cls-1" x1="124.69" y1="153.01" x2="125.45" y2="151.93"/><line class="cls-1" x1="125.45" y1="151.93" x2="126.2" y2="150.95"/><line class="cls-1" x1="126.2" y1="150.95" x2="126.96" y2="149.93"/><line class="cls-1" x1="126.96" y1="149.93" x2="127.77" y2="149.01"/><line class="cls-1" x1="127.77" y1="149.01" x2="128.58" y2="148.09"/><line class="cls-1" x1="128.58" y1="148.09" x2="129.39" y2="147.23"/><line class="cls-1" x1="129.39" y1="147.23" x2="130.2" y2="146.36"/><line class="cls-1" x1="130.2" y1="146.36" x2="131.06" y2="145.61"/><line class="cls-1" x1="131.06" y1="145.61" x2="131.87" y2="144.85"/><line class="cls-1" x1="131.87" y1="144.85" x2="132.74" y2="144.15"/><line class="cls-1" x1="132.74" y1="144.15" x2="133.55" y2="143.45"/><line class="cls-1" x1="133.55" y1="143.45" x2="134.41" y2="142.8"/><line class="cls-1" x1="134.41" y1="142.8" x2="135.28" y2="142.21"/><line class="cls-1" x1="135.28" y1="142.21" x2="136.09" y2="141.67"/><line class="cls-1" x1="136.09" y1="141.67" x2="136.95" y2="141.13"/><line class="cls-1" x1="136.95" y1="141.13" x2="137.81" y2="140.64"/><line class="cls-1" x1="137.81" y1="140.64" x2="138.68" y2="140.15"/><line class="cls-1" x1="138.68" y1="140.15" x2="139.49" y2="139.72"/><line class="cls-1" x1="139.49" y1="139.72" x2="140.3" y2="139.34"/><line class="cls-1" x1="140.3" y1="139.34" x2="141.05" y2="139.02"/><line class="cls-1" x1="141.05" y1="139.02" x2="141.86" y2="138.7"/><line class="cls-1" x1="141.86" y1="138.7" x2="142.62" y2="138.43"/><line class="cls-1" x1="142.62" y1="138.43" x2="143.32" y2="138.16"/><line class="cls-1" x1="143.32" y1="138.16" x2="144.02" y2="137.94"/><line class="cls-1" x1="144.02" y1="137.94" x2="144.73" y2="137.72"/><line class="cls-1" x1="144.73" y1="137.72" x2="145.37" y2="137.56"/><line class="cls-1" x1="145.37" y1="137.56" x2="145.97" y2="137.45"/><line class="cls-1" x1="145.97" y1="137.45" x2="146.51" y2="137.35"/><line class="cls-1" x1="146.51" y1="137.35" x2="147.05" y2="137.24"/><line class="cls-1" x1="147.05" y1="137.24" x2="147.48" y2="137.18"/><line class="cls-1" x1="147.48" y1="137.18" x2="147.86" y2="137.13"/><line class="cls-1" x1="147.86" y1="137.13" x2="148.24" y2="137.13"/><line class="cls-1" x1="148.24" y1="137.13" x2="150.13" y2="137.13"/><line class="cls-1" x1="150.13" y1="137.13" x2="150.13" y2="137.13"/><line class="cls-1" x1="150.13" y1="137.13" x2="150.13" y2="137.13"/><line class="cls-1" x1="150.13" y1="137.13" x2="150.13" y2="137.13"/><line class="cls-1" x1="150.13" y1="137.13" x2="150.13" y2="137.13"/><line class="cls-1" x1="150.13" y1="137.13" x2="150.13" y2="137.13"/><line class="cls-1" x1="150.13" y1="137.13" x2="150.13" y2="137.13"/><line class="cls-1" x1="150.13" y1="137.13" x2="150.13" y2="137.13"/><line class="cls-1" x1="150.13" y1="137.13" x2="150.13" y2="137.13"/><line class="cls-1" x1="150.13" y1="137.13" x2="150.13" y2="137.13"/><line class="cls-1" x1="150.13" y1="137.13" x2="150.13" y2="137.13"/><line class="cls-1" x1="150.13" y1="137.13" x2="150.13" y2="137.13"/><line class="cls-1" x1="150.13" y1="137.13" x2="150.13" y2="137.13"/><line class="cls-1" x1="150.13" y1="137.13" x2="150.13" y2="137.13"/><line class="cls-1" x1="150.13" y1="137.13" x2="150.13" y2="137.13"/><line class="cls-1" x1="150.13" y1="137.13" x2="150.13" y2="137.13"/><line class="cls-1" x1="150.13" y1="137.13" x2="150.13" y2="137.13"/><line class="cls-1" x1="150.13" y1="137.13" x2="150.13" y2="137.13"/><line class="cls-1" x1="150.13" y1="137.13" x2="150.13" y2="137.13"/><line class="cls-1" x1="150.13" y1="137.13" x2="150.13" y2="137.13"/><line class="cls-1" x1="150.13" y1="137.13" x2="150.13" y2="137.13"/><line class="cls-1" x1="150.13" y1="137.13" x2="150.13" y2="137.13"/><line class="cls-1" x1="150.13" y1="137.13" x2="150.13" y2="137.13"/><line class="cls-1" x1="150.13" y1="137.13" x2="150.13" y2="137.13"/><line class="cls-1" x1="150.13" y1="137.13" x2="150.13" y2="137.13"/><line class="cls-1" x1="150.13" y1="137.13" x2="150.13" y2="137.13"/><line class="cls-1" x1="150.13" y1="137.13" x2="150.13" y2="137.13"/><line class="cls-1" x1="150.13" y1="137.13" x2="150.13" y2="137.13"/><line class="cls-1" x1="150.13" y1="137.13" x2="150.13" y2="137.13"/><line class="cls-1" x1="150.13" y1="137.13" x2="150.13" y2="137.13"/><line class="cls-1" x1="150.13" y1="137.13" x2="150.13" y2="137.13"/><line class="cls-1" x1="150.13" y1="137.13" x2="150.13" y2="137.13"/><line class="cls-1" x1="150.13" y1="137.13" x2="150.13" y2="137.13"/><line class="cls-1" x1="150.13" y1="137.13" x2="150.13" y2="137.13"/><line class="cls-1" x1="150.13" y1="137.13" x2="150.13" y2="137.13"/><line class="cls-1" x1="150.13" y1="137.13" x2="150.13" y2="137.13"/><line class="cls-1" x1="150.13" y1="137.13" x2="150.13" y2="137.13"/><line class="cls-1" x1="150.13" y1="137.13" x2="150.13" y2="137.13"/><line class="cls-1" x1="150.13" y1="137.13" x2="150.13" y2="137.13"/><line class="cls-1" x1="150.13" y1="137.13" x2="150.13" y2="137.13"/><line class="cls-1" x1="150.13" y1="137.13" x2="150.13" y2="137.13"/><line class="cls-1" x1="150.13" y1="137.13" x2="150.13" y2="137.13"/><line class="cls-1" x1="150.13" y1="137.13" x2="150.13" y2="137.13"/><line class="cls-1" x1="150.13" y1="137.13" x2="150.13" y2="137.13"/><line class="cls-1" x1="150.13" y1="137.13" x2="150.13" y2="137.13"/><line class="cls-1" x1="150.13" y1="137.13" x2="150.13" y2="137.13"/><line class="cls-1" x1="150.13" y1="137.13" x2="150.13" y2="137.13"/><line class="cls-1" x1="150.13" y1="137.13" x2="150.13" y2="137.13"/><line class="cls-1" x1="150.13" y1="137.13" x2="150.13" y2="137.13"/><line class="cls-1" x1="150.13" y1="137.13" x2="150.13" y2="137.13"/><line class="cls-1" x1="150.13" y1="137.13" x2="150.13" y2="137.13"/><line class="cls-1" x1="150.13" y1="137.13" x2="150.13" y2="137.13"/><line class="cls-1" x1="150.13" y1="137.13" x2="150.13" y2="137.13"/><line class="cls-1" x1="150.13" y1="137.13" x2="150.13" y2="137.13"/><line class="cls-1" x1="150.13" y1="137.13" x2="150.13" y2="137.13"/><line class="cls-1" x1="150.13" y1="137.13" x2="150.13" y2="137.13"/><line class="cls-1" x1="150.13" y1="137.13" x2="150.13" y2="137.13"/><line class="cls-1" x1="150.13" y1="137.13" x2="150.13" y2="137.13"/><line class="cls-1" x1="150.13" y1="137.13" x2="150.13" y2="137.13"/><line class="cls-1" x1="150.13" y1="137.13" x2="150.13" y2="137.13"/><line class="cls-1" x1="150.13" y1="137.13" x2="150.13" y2="137.13"/><line class="cls-1" x1="150.13" y1="137.13" x2="150.13" y2="137.13"/><line class="cls-1" x1="150.13" y1="137.13" x2="150.13" y2="137.13"/><line class="cls-1" x1="150.13" y1="137.13" x2="150.13" y2="137.13"/><line class="cls-1" x1="150.13" y1="137.13" x2="150.13" y2="137.13"/><line class="cls-1" x1="150.13" y1="137.13" x2="150.13" y2="137.13"/><line class="cls-1" x1="150.13" y1="137.13" x2="150.13" y2="137.13"/><line class="cls-1" x1="150.13" y1="137.13" x2="150.13" y2="137.13"/><line class="cls-1" x1="150.13" y1="137.13" x2="150.13" y2="137.13"/><line class="cls-1" x1="150.13" y1="137.13" x2="150.13" y2="137.13"/><line class="cls-1" x1="150.13" y1="137.13" x2="150.13" y2="137.13"/><line class="cls-1" x1="150.13" y1="137.13" x2="150.13" y2="137.13"/><line class="cls-1" x1="150.13" y1="137.13" x2="150.13" y2="137.13"/><line class="cls-1" x1="150.13" y1="137.13" x2="150.13" y2="137.13"/><line class="cls-1" x1="150.13" y1="137.13" x2="150.13" y2="137.13"/><line class="cls-1" x1="150.13" y1="137.13" x2="150.13" y2="137.13"/><line class="cls-1" x1="150.13" y1="137.13" x2="150.13" y2="137.13"/><line class="cls-1" x1="150.13" y1="137.13" x2="150.13" y2="137.13"/><line class="cls-1" x1="150.13" y1="137.13" x2="150.13" y2="137.13"/><line class="cls-1" x1="150.13" y1="137.13" x2="150.13" y2="137.13"/><line class="cls-1" x1="150.13" y1="137.13" x2="150.13" y2="137.13"/><line class="cls-1" x1="150.13" y1="137.13" x2="150.13" y2="137.13"/><line class="cls-1" x1="150.13" y1="137.13" x2="150.13" y2="137.13"/><line class="cls-1" x1="150.13" y1="137.13" x2="150.13" y2="137.13"/><line class="cls-1" x1="150.13" y1="137.13" x2="150.13" y2="137.13"/><line class="cls-1" x1="150.13" y1="137.13" x2="150.13" y2="137.13"/><line class="cls-1" x1="150.13" y1="137.13" x2="150.13" y2="137.13"/><line class="cls-1" x1="150.13" y1="137.13" x2="150.13" y2="137.13"/><line class="cls-1" x1="150.13" y1="137.13" x2="150.13" y2="137.13"/><line class="cls-1" x1="150.13" y1="137.13" x2="150.13" y2="137.13"/><line class="cls-1" x1="150.13" y1="229.31" x2="150.4" y2="229.31"/><line class="cls-1" x1="151.69" y1="229.25" x2="151.75" y2="229.25"/><line class="cls-1" x1="151.75" y1="229.25" x2="151.96" y2="229.25"/><line class="cls-1" x1="153.26" y1="229.2" x2="153.37" y2="229.2"/><line class="cls-1" x1="153.37" y1="229.2" x2="153.53" y2="229.15"/><line class="cls-1" x1="154.77" y1="228.88" x2="154.93" y2="228.82"/><line class="cls-1" x1="154.93" y1="228.82" x2="154.99" y2="228.82"/><line class="cls-1" x1="156.28" y1="228.66" x2="156.5" y2="228.61"/><line class="cls-1" x1="157.74" y1="228.28" x2="157.96" y2="228.23"/><line class="cls-1" x1="159.14" y1="227.85" x2="159.36" y2="227.8"/><line class="cls-1" x1="160.55" y1="227.36" x2="160.76" y2="227.26"/><line class="cls-1" x1="161.95" y1="226.77" x2="162.17" y2="226.72"/><line class="cls-1" x1="163.3" y1="226.12" x2="163.52" y2="226.01"/><line class="cls-1" x1="164.65" y1="225.37" x2="164.87" y2="225.26"/><line class="cls-1" x1="166" y1="224.61" x2="166.22" y2="224.5"/><line class="cls-1" x1="167.3" y1="223.75" x2="167.51" y2="223.58"/><line class="cls-1" x1="168.54" y1="222.83" x2="168.7" y2="222.67"/><line class="cls-1" x1="169.73" y1="221.91" x2="169.73" y2="221.91"/><line class="cls-1" x1="169.73" y1="221.91" x2="169.89" y2="221.75"/><line class="cls-1" x1="170.92" y1="220.94" x2="171.02" y2="220.83"/><line class="cls-1" x1="171.02" y1="220.83" x2="171.08" y2="220.78"/><line class="cls-1" x1="172.05" y1="219.86" x2="172.21" y2="219.7"/><line class="cls-1" x1="173.13" y1="218.72" x2="173.29" y2="218.51"/><line class="cls-1" x1="174.21" y1="217.54" x2="174.37" y2="217.32"/><line class="cls-1" x1="175.13" y1="216.29" x2="175.29" y2="216.08"/><line class="cls-1" x1="176.05" y1="215.05" x2="176.21" y2="214.84"/><line class="cls-1" x1="176.96" y1="213.81" x2="177.13" y2="213.59"/><line class="cls-1" x1="177.77" y1="212.51" x2="177.94" y2="212.3"/><line class="cls-1" x1="178.58" y1="211.16" x2="178.58" y2="211.16"/><line class="cls-1" x1="178.58" y1="211.16" x2="178.69" y2="210.95"/><line class="cls-1" x1="179.34" y1="209.87" x2="179.45" y2="209.65"/><line class="cls-1" x1="180.04" y1="208.52" x2="180.15" y2="208.3"/><line class="cls-1" x1="180.64" y1="207.17" x2="180.74" y2="206.95"/><line class="cls-1" x1="181.23" y1="205.82" x2="181.34" y2="205.6"/><line class="cls-1" x1="181.77" y1="204.41" x2="181.88" y2="204.2"/><line class="cls-1" x1="182.31" y1="203.01" x2="182.31" y2="203.01"/><line class="cls-1" x1="182.31" y1="203.01" x2="182.36" y2="202.79"/><line class="cls-1" x1="182.74" y1="201.61" x2="182.8" y2="201.39"/><line class="cls-1" x1="183.17" y1="200.2" x2="183.23" y2="199.99"/><line class="cls-1" x1="183.55" y1="198.74" x2="183.61" y2="198.53"/><line class="cls-1" x1="183.88" y1="197.29" x2="183.93" y2="197.07"/><line class="cls-1" x1="184.2" y1="195.83" x2="184.25" y2="195.61"/><line class="cls-1" x1="184.52" y1="194.37" x2="184.52" y2="194.32"/><line class="cls-1" x1="184.52" y1="194.32" x2="184.52" y2="194.1"/><line class="cls-1" x1="184.69" y1="192.8" x2="184.74" y2="192.59"/><line class="cls-1" x1="184.85" y1="191.29" x2="184.85" y2="191.02"/><line class="cls-1" x1="185.01" y1="189.73" x2="185.01" y2="189.46"/><line class="cls-1" x1="185.12" y1="188.16" x2="185.12" y2="187.89"/><line class="cls-1" x1="185.17" y1="186.59" x2="185.17" y2="186.32"/><line class="cls-1" x1="185.17" y1="184.97" x2="185.17" y2="184.7"/><line class="cls-1" x1="185.17" y1="183.35" x2="185.12" y2="183.14"/><line class="cls-1" x1="185.06" y1="181.84" x2="185.06" y2="181.84"/><line class="cls-1" x1="185.06" y1="181.84" x2="185.06" y2="181.57"/><line class="cls-1" x1="184.96" y1="180.28" x2="184.96" y2="180.06"/><line class="cls-1" x1="184.96" y1="180.06" x2="184.96" y2="180.01"/><line class="cls-1" x1="184.85" y1="178.71" x2="184.79" y2="178.49"/><line class="cls-1" x1="184.63" y1="177.2" x2="184.63" y2="176.93"/><line class="cls-1" x1="184.42" y1="175.69" x2="184.42" y2="175.42"/><line class="cls-1" x1="184.2" y1="174.17" x2="184.15" y2="173.96"/><line class="cls-1" x1="183.88" y1="172.72" x2="183.82" y2="172.5"/><line class="cls-1" x1="183.55" y1="171.26" x2="183.5" y2="171.04"/><line class="cls-1" x1="183.23" y1="169.8" x2="183.12" y2="169.58"/><line class="cls-1" x1="182.8" y1="168.34" x2="182.74" y2="168.13"/><line class="cls-1" x1="182.36" y1="166.94" x2="182.31" y2="166.72"/><line class="cls-1" x1="181.88" y1="165.53" x2="181.82" y2="165.32"/><line class="cls-1" x1="181.39" y1="164.13" x2="181.28" y2="163.91"/><line class="cls-1" x1="180.85" y1="162.73" x2="180.74" y2="162.51"/><line class="cls-1" x1="180.26" y1="161.38" x2="180.15" y2="161.16"/><line class="cls-1" x1="179.61" y1="160.03" x2="179.5" y2="159.81"/><line class="cls-1" x1="178.96" y1="158.68" x2="178.85" y2="158.46"/><line class="cls-1" x1="178.26" y1="157.33" x2="178.15" y2="157.11"/><line class="cls-1" x1="177.5" y1="155.98" x2="177.4" y2="155.76"/><line class="cls-1" x1="176.75" y1="154.68" x2="176.59" y2="154.46"/><line class="cls-1" x1="175.88" y1="153.38" x2="175.72" y2="153.17"/><line class="cls-1" x1="174.97" y1="152.09" x2="174.86" y2="151.93"/><line class="cls-1" x1="174.86" y1="151.93" x2="174.8" y2="151.87"/><line class="cls-1" x1="174.05" y1="150.85" x2="173.89" y2="150.68"/><line class="cls-1" x1="173.13" y1="149.66" x2="172.97" y2="149.5"/><line class="cls-1" x1="172.1" y1="148.52" x2="171.94" y2="148.36"/><line class="cls-1" x1="171.08" y1="147.39" x2="170.92" y2="147.23"/><line class="cls-1" x1="170" y1="146.26" x2="169.78" y2="146.09"/><line class="cls-1" x1="168.81" y1="145.23" x2="168.65" y2="145.07"/><line class="cls-1" x1="167.68" y1="144.26" x2="167.57" y2="144.15"/><line class="cls-1" x1="167.57" y1="144.15" x2="167.51" y2="144.1"/><line class="cls-1" x1="166.49" y1="143.23" x2="166.27" y2="143.07"/><line class="cls-1" x1="165.19" y1="142.31" x2="165.03" y2="142.21"/><line class="cls-1" x1="165.03" y1="142.21" x2="164.98" y2="142.15"/><line class="cls-1" x1="163.9" y1="141.45" x2="163.68" y2="141.34"/><line class="cls-1" x1="162.6" y1="140.69" x2="162.49" y2="140.64"/><line class="cls-1" x1="162.49" y1="140.64" x2="162.38" y2="140.59"/><line class="cls-1" x1="161.25" y1="139.94" x2="161.03" y2="139.83"/><line class="cls-1" x1="159.9" y1="139.29" x2="159.68" y2="139.18"/><line class="cls-1" x1="158.5" y1="138.7" x2="158.44" y2="138.7"/><line class="cls-1" x1="158.44" y1="138.7" x2="158.28" y2="138.64"/><line class="cls-1" x1="157.09" y1="138.21" x2="156.98" y2="138.16"/><line class="cls-1" x1="156.98" y1="138.16" x2="156.88" y2="138.1"/><line class="cls-1" x1="155.63" y1="137.72" x2="155.58" y2="137.72"/><line class="cls-1" x1="155.58" y1="137.72" x2="155.42" y2="137.67"/><line class="cls-1" x1="154.18" y1="137.4" x2="153.91" y2="137.35"/><line class="cls-1" x1="152.61" y1="137.13" x2="152.45" y2="137.13"/><line class="cls-1" x1="152.45" y1="137.13" x2="152.34" y2="137.13"/><line class="cls-1" x1="150.99" y1="137.13" x2="150.72" y2="137.13"/><line class="cls-1" x1="149.37" y1="229.31" x2="149.15" y2="229.25"/><line class="cls-1" x1="147.8" y1="229.25" x2="147.59" y2="229.2"/><line class="cls-1" x1="146.29" y1="229.04" x2="146.08" y2="228.98"/><line class="cls-1" x1="144.83" y1="228.77" x2="144.62" y2="228.71"/><line class="cls-1" x1="143.32" y1="228.5" x2="143.11" y2="228.44"/><line class="cls-1" x1="141.92" y1="228.07" x2="141.7" y2="228.01"/><line class="cls-1" x1="140.51" y1="227.63" x2="140.3" y2="227.53"/><line class="cls-1" x1="139.11" y1="227.09" x2="139.11" y2="227.09"/><line class="cls-1" x1="139.11" y1="227.09" x2="138.89" y2="226.99"/><line class="cls-1" x1="137.71" y1="226.55" x2="137.6" y2="226.5"/><line class="cls-1" x1="137.6" y1="226.5" x2="137.49" y2="226.45"/><line class="cls-1" x1="136.41" y1="225.8" x2="136.19" y2="225.69"/><line class="cls-1" x1="135.06" y1="225.1" x2="134.84" y2="224.99"/><line class="cls-1" x1="133.76" y1="224.29" x2="133.55" y2="224.12"/><line class="cls-1" x1="132.52" y1="223.37" x2="132.31" y2="223.21"/><line class="cls-1" x1="131.28" y1="222.45" x2="131.06" y2="222.29"/><line class="cls-1" x1="130.04" y1="221.48" x2="129.88" y2="221.32"/><line class="cls-1" x1="128.9" y1="220.45" x2="128.74" y2="220.29"/><line class="cls-1" x1="127.77" y1="219.37" x2="127.61" y2="219.16"/><line class="cls-1" x1="126.69" y1="218.18" x2="126.53" y2="217.97"/><line class="cls-1" x1="125.66" y1="217" x2="125.5" y2="216.78"/><line class="cls-1" x1="124.75" y1="215.7" x2="124.69" y2="215.59"/><line class="cls-1" x1="124.69" y1="215.59" x2="124.58" y2="215.48"/><line class="cls-1" x1="123.77" y1="214.46" x2="123.61" y2="214.24"/><line class="cls-1" x1="122.91" y1="213.16" x2="122.8" y2="212.95"/><line class="cls-1" x1="122.15" y1="211.87" x2="121.99" y2="211.65"/><line class="cls-1" x1="121.34" y1="210.52" x2="121.24" y2="210.3"/><line class="cls-1" x1="120.64" y1="209.22" x2="120.53" y2="209"/><line class="cls-1" x1="119.99" y1="207.87" x2="119.89" y2="207.65"/><line class="cls-1" x1="119.35" y1="206.52" x2="119.29" y2="206.41"/><line class="cls-1" x1="119.29" y1="206.41" x2="119.24" y2="206.3"/><line class="cls-1" x1="118.81" y1="205.12" x2="118.7" y2="204.9"/><line class="cls-1" x1="118.27" y1="203.71" x2="118.16" y2="203.5"/><line class="cls-1" x1="117.78" y1="202.31" x2="117.73" y2="202.09"/><line class="cls-1" x1="117.35" y1="200.9" x2="117.29" y2="200.69"/><line class="cls-1" x1="116.97" y1="199.45" x2="116.92" y2="199.23"/><line class="cls-1" x1="116.59" y1="197.99" x2="116.54" y2="197.77"/><line class="cls-1" x1="116.27" y1="196.53" x2="116.21" y2="196.31"/><line class="cls-1" x1="115.94" y1="195.07" x2="115.89" y2="194.86"/><line class="cls-1" x1="115.73" y1="193.61" x2="115.67" y2="193.4"/><line class="cls-1" x1="115.51" y1="192.1" x2="115.51" y2="191.83"/><line class="cls-1" x1="115.4" y1="190.54" x2="115.35" y2="190.32"/><line class="cls-1" x1="115.24" y1="189.02" x2="115.24" y2="188.86"/><line class="cls-1" x1="115.24" y1="188.86" x2="115.24" y2="188.75"/><line class="cls-1" x1="115.13" y1="187.46" x2="115.13" y2="187.19"/><line class="cls-1" x1="115.13" y1="185.84" x2="115.13" y2="185.57"/><line class="cls-1" x1="115.13" y1="184.22" x2="115.13" y2="183.95"/><line class="cls-1" x1="115.19" y1="182.65" x2="115.19" y2="182.38"/><line class="cls-1" x1="115.3" y1="181.09" x2="115.3" y2="180.82"/><line class="cls-1" x1="115.4" y1="179.52" x2="115.4" y2="179.25"/><line class="cls-1" x1="115.57" y1="177.95" x2="115.62" y2="177.74"/><line class="cls-1" x1="115.78" y1="176.44" x2="115.78" y2="176.17"/><line class="cls-1" x1="116" y1="174.93" x2="116.05" y2="174.66"/><line class="cls-1" x1="116.27" y1="173.42" x2="116.27" y2="173.42"/><line class="cls-1" x1="116.27" y1="173.42" x2="116.32" y2="173.2"/><line class="cls-1" x1="116.59" y1="171.96" x2="116.59" y2="171.85"/><line class="cls-1" x1="116.59" y1="171.85" x2="116.65" y2="171.69"/><line class="cls-1" x1="116.92" y1="170.45" x2="116.97" y2="170.29"/><line class="cls-1" x1="116.97" y1="170.29" x2="116.97" y2="170.23"/><line class="cls-1" x1="117.35" y1="168.99" x2="117.4" y2="168.77"/><line class="cls-1" x1="117.78" y1="167.53" x2="117.83" y2="167.32"/><line class="cls-1" x1="118.21" y1="166.13" x2="118.32" y2="165.91"/><line class="cls-1" x1="118.7" y1="164.72" x2="118.81" y2="164.51"/><line class="cls-1" x1="119.24" y1="163.32" x2="119.29" y2="163.1"/><line class="cls-1" x1="119.78" y1="161.97" x2="119.89" y2="161.75"/><line class="cls-1" x1="120.37" y1="160.62" x2="120.48" y2="160.4"/><line class="cls-1" x1="121.07" y1="159.27" x2="121.18" y2="159.05"/><line class="cls-1" x1="121.72" y1="157.92" x2="121.83" y2="157.7"/><line class="cls-1" x1="122.42" y1="156.57" x2="122.53" y2="156.41"/><line class="cls-1" x1="122.53" y1="156.41" x2="122.59" y2="156.35"/><line class="cls-1" x1="123.23" y1="155.22" x2="123.23" y2="155.22"/><line class="cls-1" x1="123.23" y1="155.22" x2="123.34" y2="155"/><line class="cls-1" x1="124.04" y1="153.92" x2="124.21" y2="153.71"/><line class="cls-1" x1="124.96" y1="152.63" x2="125.12" y2="152.41"/><line class="cls-1" x1="125.88" y1="151.39" x2="126.04" y2="151.17"/><line class="cls-1" x1="126.8" y1="150.14" x2="126.96" y2="149.93"/><line class="cls-1" x1="127.82" y1="148.96" x2="127.99" y2="148.79"/><line class="cls-1" x1="128.85" y1="147.82" x2="129.01" y2="147.66"/><line class="cls-1" x1="129.88" y1="146.69" x2="130.04" y2="146.53"/><line class="cls-1" x1="131.01" y1="145.66" x2="131.06" y2="145.61"/><line class="cls-1" x1="131.06" y1="145.61" x2="131.17" y2="145.5"/><line class="cls-1" x1="132.14" y1="144.64" x2="132.31" y2="144.47"/><line class="cls-1" x1="133.33" y1="143.61" x2="133.55" y2="143.45"/><line class="cls-1" x1="134.57" y1="142.69" x2="134.79" y2="142.53"/><line class="cls-1" x1="135.87" y1="141.83" x2="136.09" y2="141.67"/><line class="cls-1" x1="137.17" y1="141.02" x2="137.38" y2="140.86"/><line class="cls-1" x1="138.52" y1="140.26" x2="138.68" y2="140.15"/><line class="cls-1" x1="138.68" y1="140.15" x2="138.73" y2="140.1"/><line class="cls-1" x1="139.87" y1="139.56" x2="140.08" y2="139.45"/><line class="cls-1" x1="141.22" y1="138.97" x2="141.43" y2="138.86"/><line class="cls-1" x1="142.62" y1="138.43" x2="142.62" y2="138.43"/><line class="cls-1" x1="142.62" y1="138.43" x2="142.84" y2="138.32"/><line class="cls-1" x1="144.02" y1="137.94" x2="144.02" y2="137.94"/><line class="cls-1" x1="144.02" y1="137.94" x2="144.24" y2="137.89"/><line class="cls-1" x1="145.43" y1="137.56" x2="145.64" y2="137.51"/><line class="cls-1" x1="146.89" y1="137.29" x2="147.05" y2="137.24"/><line class="cls-1" x1="147.05" y1="137.24" x2="147.1" y2="137.24"/><line class="cls-1" x1="148.4" y1="137.13" x2="148.67" y2="137.13"/><line class="cls-1" x1="150.02" y1="137.13" x2="150.13" y2="137.13"/><line class="cls-1" x1="150.13" y1="137.13" x2="150.13" y2="137.13"/><line class="cls-1" x1="150.13" y1="137.13" x2="150.13" y2="137.13"/><line class="cls-1" x1="150.13" y1="137.13" x2="150.13" y2="137.13"/><line class="cls-1" x1="150.13" y1="137.13" x2="150.13" y2="137.13"/><line class="cls-1" x1="150.13" y1="137.13" x2="150.13" y2="137.13"/><line class="cls-1" x1="150.13" y1="137.13" x2="150.13" y2="137.13"/><line class="cls-1" x1="150.13" y1="137.13" x2="150.13" y2="137.13"/><line class="cls-1" x1="150.13" y1="137.13" x2="150.13" y2="137.13"/><line class="cls-1" x1="150.13" y1="137.13" x2="150.13" y2="137.13"/><line class="cls-1" x1="150.13" y1="137.13" x2="150.13" y2="137.13"/><line class="cls-1" x1="150.13" y1="137.13" x2="150.13" y2="137.13"/><line class="cls-1" x1="150.13" y1="137.13" x2="150.13" y2="137.13"/><line class="cls-1" x1="150.13" y1="137.13" x2="150.13" y2="137.13"/><line class="cls-1" x1="150.13" y1="137.13" x2="150.13" y2="137.13"/><line class="cls-1" x1="150.13" y1="137.13" x2="150.13" y2="137.13"/><line class="cls-1" x1="150.13" y1="137.13" x2="150.13" y2="137.13"/><line class="cls-1" x1="150.13" y1="137.13" x2="150.13" y2="137.13"/><line class="cls-1" x1="150.13" y1="137.13" x2="150.13" y2="137.13"/><line class="cls-1" x1="150.13" y1="137.13" x2="150.13" y2="137.13"/><line class="cls-1" x1="150.13" y1="137.13" x2="150.13" y2="137.13"/><line class="cls-1" x1="150.13" y1="137.13" x2="150.13" y2="137.13"/><line class="cls-1" x1="150.13" y1="137.13" x2="150.13" y2="137.13"/><line class="cls-1" x1="150.13" y1="137.13" x2="150.13" y2="137.13"/><line class="cls-1" x1="150.13" y1="137.13" x2="150.13" y2="137.13"/><line class="cls-1" x1="150.13" y1="137.13" x2="150.13" y2="137.13"/><line class="cls-1" x1="150.13" y1="137.13" x2="150.13" y2="137.13"/><line class="cls-1" x1="150.13" y1="137.13" x2="150.13" y2="137.13"/><line class="cls-1" x1="150.13" y1="137.13" x2="150.13" y2="137.13"/><line class="cls-1" x1="150.13" y1="137.13" x2="150.13" y2="137.13"/><line class="cls-1" x1="150.13" y1="137.13" x2="150.13" y2="137.13"/><line class="cls-1" x1="150.13" y1="137.13" x2="150.13" y2="137.13"/><line class="cls-1" x1="150.13" y1="137.13" x2="150.13" y2="137.13"/><line class="cls-1" x1="150.13" y1="137.13" x2="150.13" y2="137.13"/><line class="cls-1" x1="150.13" y1="137.13" x2="150.13" y2="137.13"/><line class="cls-1" x1="150.13" y1="137.13" x2="150.13" y2="137.13"/><line class="cls-1" x1="150.13" y1="137.13" x2="150.13" y2="137.13"/><line class="cls-1" x1="150.13" y1="137.13" x2="150.13" y2="137.13"/><line class="cls-1" x1="150.13" y1="137.13" x2="150.13" y2="137.13"/><line class="cls-1" x1="150.13" y1="137.13" x2="150.13" y2="137.13"/><line class="cls-1" x1="150.13" y1="137.13" x2="150.13" y2="137.13"/><line class="cls-1" x1="150.13" y1="137.13" x2="150.13" y2="137.13"/><line class="cls-1" x1="150.13" y1="137.13" x2="150.13" y2="137.13"/><line class="cls-1" x1="150.13" y1="137.13" x2="150.13" y2="137.13"/><line class="cls-1" x1="150.13" y1="137.13" x2="150.13" y2="137.13"/><line class="cls-1" x1="150.13" y1="137.13" x2="150.13" y2="137.13"/><line class="cls-1" x1="150.13" y1="137.13" x2="150.13" y2="137.13"/><line class="cls-1" x1="150.13" y1="137.13" x2="150.13" y2="137.13"/><line class="cls-1" x1="150.13" y1="137.13" x2="150.13" y2="137.13"/><line class="cls-1" x1="150.13" y1="137.13" x2="150.13" y2="137.13"/><line class="cls-1" x1="150.13" y1="137.13" x2="150.13" y2="137.13"/><line class="cls-1" x1="150.13" y1="137.13" x2="150.13" y2="137.13"/><line class="cls-1" x1="150.13" y1="137.13" x2="150.13" y2="137.13"/><line class="cls-1" x1="150.13" y1="137.13" x2="150.13" y2="137.13"/><line class="cls-1" x1="150.13" y1="137.13" x2="150.13" y2="137.13"/><line class="cls-1" x1="150.13" y1="137.13" x2="150.13" y2="137.13"/><line class="cls-1" x1="150.13" y1="137.13" x2="150.13" y2="137.13"/><line class="cls-1" x1="150.13" y1="137.13" x2="150.13" y2="137.13"/><line class="cls-1" x1="150.13" y1="137.13" x2="150.13" y2="137.13"/><line class="cls-1" x1="150.13" y1="137.13" x2="150.13" y2="137.13"/><line class="cls-1" x1="150.13" y1="137.13" x2="150.13" y2="137.13"/><line class="cls-1" x1="150.13" y1="137.13" x2="150.13" y2="137.13"/><line class="cls-1" x1="150.13" y1="137.13" x2="150.13" y2="137.13"/><line class="cls-1" x1="150.13" y1="137.13" x2="150.13" y2="137.13"/><line class="cls-1" x1="150.13" y1="137.13" x2="150.13" y2="137.13"/><line class="cls-1" x1="150.13" y1="137.13" x2="150.13" y2="137.13"/><line class="cls-1" x1="150.13" y1="137.13" x2="150.13" y2="137.13"/><line class="cls-1" x1="150.13" y1="137.13" x2="150.13" y2="137.13"/><line class="cls-1" x1="150.13" y1="137.13" x2="150.13" y2="137.13"/><line class="cls-1" x1="150.13" y1="137.13" x2="150.13" y2="137.13"/><line class="cls-1" x1="150.13" y1="137.13" x2="150.13" y2="137.13"/><line class="cls-1" x1="150.13" y1="137.13" x2="150.13" y2="137.13"/><line class="cls-1" x1="150.13" y1="137.13" x2="150.13" y2="137.13"/><line class="cls-1" x1="150.13" y1="137.13" x2="150.13" y2="137.13"/><line class="cls-1" x1="150.13" y1="137.13" x2="150.13" y2="137.13"/><line class="cls-1" x1="150.13" y1="137.13" x2="150.13" y2="137.13"/><line class="cls-1" x1="150.13" y1="137.13" x2="150.13" y2="137.13"/><line class="cls-1" x1="150.13" y1="137.13" x2="150.13" y2="137.13"/><line class="cls-1" x1="150.13" y1="137.13" x2="150.13" y2="137.13"/><line class="cls-1" x1="150.13" y1="137.13" x2="150.13" y2="137.13"/><line class="cls-1" x1="150.13" y1="137.13" x2="150.13" y2="137.13"/><line class="cls-1" x1="150.13" y1="137.13" x2="150.13" y2="137.13"/><line class="cls-1" x1="150.13" y1="137.13" x2="150.13" y2="137.13"/><line class="cls-1" x1="150.13" y1="137.13" x2="150.13" y2="137.13"/><line class="cls-1" x1="150.13" y1="137.13" x2="150.13" y2="137.13"/><line class="cls-1" x1="150.13" y1="137.13" x2="150.13" y2="137.13"/><line class="cls-1" x1="150.13" y1="137.13" x2="150.13" y2="137.13"/><line class="cls-1" x1="150.13" y1="137.13" x2="150.13" y2="137.13"/><line class="cls-1" x1="150.13" y1="137.13" x2="150.13" y2="137.13"/><line class="cls-1" x1="150.13" y1="137.13" x2="150.13" y2="137.13"/><path d="M153.65,164.89H153v-4.8h0l-1,.86-.4-.49,1.52-1.23h.58Z"/><path d="M155.48,162.06a5.77,5.77,0,0,1,.08-1,3.19,3.19,0,0,1,.29-.95,1.92,1.92,0,0,1,.59-.7,1.54,1.54,0,0,1,1-.28,1.51,1.51,0,0,1,.95.28,1.83,1.83,0,0,1,.59.7,3.52,3.52,0,0,1,.3.95,7,7,0,0,1,.08,1,7.07,7.07,0,0,1-.08,1,3.64,3.64,0,0,1-.3.95,1.91,1.91,0,0,1-.59.7,1.57,1.57,0,0,1-.95.28,1.61,1.61,0,0,1-1-.28,2,2,0,0,1-.59-.7,3.28,3.28,0,0,1-.29-.95A5.85,5.85,0,0,1,155.48,162.06Zm.67,0a3.78,3.78,0,0,0,0,.46c0,.17,0,.34.05.52a4.77,4.77,0,0,0,.13.51,1.67,1.67,0,0,0,.23.44,1,1,0,0,0,.34.3.9.9,0,0,0,.48.12,1,1,0,0,0,.48-.12,1.21,1.21,0,0,0,.34-.3,2,2,0,0,0,.22-.44,3.18,3.18,0,0,0,.13-.51,4.88,4.88,0,0,0,.06-.52c0-.17,0-.32,0-.46s0-.3,0-.47a4.43,4.43,0,0,0-.06-.51,2.93,2.93,0,0,0-.13-.51,1.81,1.81,0,0,0-.22-.44,1.24,1.24,0,0,0-.34-.31,1.06,1.06,0,0,0-.48-.11,1,1,0,0,0-.48.11,1,1,0,0,0-.34.31,1.53,1.53,0,0,0-.23.44,4.23,4.23,0,0,0-.13.51c0,.17,0,.34-.05.51A3.94,3.94,0,0,0,156.15,162.06Z"/><path d="M159.92,162.06a7,7,0,0,1,.08-1,3.52,3.52,0,0,1,.3-.95,1.92,1.92,0,0,1,.59-.7,1.77,1.77,0,0,1,1.91,0,1.83,1.83,0,0,1,.59.7,3.52,3.52,0,0,1,.3.95,6.92,6.92,0,0,1,.07,1,7,7,0,0,1-.07,1,3.64,3.64,0,0,1-.3.95,1.91,1.91,0,0,1-.59.7,1.77,1.77,0,0,1-1.91,0,2,2,0,0,1-.59-.7,3.64,3.64,0,0,1-.3-.95A7.07,7.07,0,0,1,159.92,162.06Zm.68,0c0,.14,0,.29,0,.46a4.88,4.88,0,0,0,.06.52,4.77,4.77,0,0,0,.13.51,1.67,1.67,0,0,0,.23.44,1,1,0,0,0,.34.3.89.89,0,0,0,.47.12,1,1,0,0,0,.49-.12,1.21,1.21,0,0,0,.34-.3,2,2,0,0,0,.22-.44A3.18,3.18,0,0,0,163,163a4.88,4.88,0,0,0,.06-.52c0-.17,0-.32,0-.46s0-.3,0-.47a4.43,4.43,0,0,0-.06-.51,2.93,2.93,0,0,0-.13-.51,1.81,1.81,0,0,0-.22-.44,1.24,1.24,0,0,0-.34-.31,1.07,1.07,0,0,0-.49-.11,1,1,0,0,0-.47.11,1,1,0,0,0-.34.31,1.53,1.53,0,0,0-.23.44,4.23,4.23,0,0,0-.13.51,4.43,4.43,0,0,0-.06.51C160.6,161.76,160.6,161.92,160.6,162.06Z"/><path d="M151.17,185.24l2.14-2.08.35-.36a2.16,2.16,0,0,0,.25-.32,1,1,0,0,0,.15-.32,1.52,1.52,0,0,0,.05-.38,1,1,0,0,0-.08-.4,1,1,0,0,0-.22-.3,1,1,0,0,0-.33-.19,1.05,1.05,0,0,0-.4-.07,1,1,0,0,0-.71.25,1.14,1.14,0,0,0-.37.65l-.72-.06a1.53,1.53,0,0,1,.21-.61,1.41,1.41,0,0,1,.39-.45,1.87,1.87,0,0,1,.53-.26,1.91,1.91,0,0,1,.64-.1,2.41,2.41,0,0,1,.67.1,1.72,1.72,0,0,1,.55.3,1.29,1.29,0,0,1,.37.48,1.53,1.53,0,0,1,.14.66,2,2,0,0,1-.09.61,2.13,2.13,0,0,1-.25.5,3.47,3.47,0,0,1-.35.43c-.13.14-.27.27-.41.4l-1.75,1.64v0h2.89V186h-3.65Z"/><path d="M155.48,183.17a5.85,5.85,0,0,1,.08-1,3.28,3.28,0,0,1,.29-.95,2,2,0,0,1,.59-.7,1.61,1.61,0,0,1,1-.28,1.57,1.57,0,0,1,.95.28,1.91,1.91,0,0,1,.59.7,3.64,3.64,0,0,1,.3.95,7.07,7.07,0,0,1,.08,1,7,7,0,0,1-.08,1,3.52,3.52,0,0,1-.3,1,1.83,1.83,0,0,1-.59.7,1.51,1.51,0,0,1-.95.28,1.54,1.54,0,0,1-1-.28,1.92,1.92,0,0,1-.59-.7,3.19,3.19,0,0,1-.29-1A5.77,5.77,0,0,1,155.48,183.17Zm.67,0a4,4,0,0,0,0,.47c0,.17,0,.34.05.51a3.8,3.8,0,0,0,.13.51,1.53,1.53,0,0,0,.23.44,1,1,0,0,0,.34.31.9.9,0,0,0,.48.11,1,1,0,0,0,.48-.11,1.24,1.24,0,0,0,.34-.31,1.81,1.81,0,0,0,.22-.44,2.72,2.72,0,0,0,.13-.51,4.43,4.43,0,0,0,.06-.51c0-.18,0-.33,0-.47s0-.29,0-.46a4.88,4.88,0,0,0-.06-.52,3.18,3.18,0,0,0-.13-.51,2,2,0,0,0-.22-.44,1.21,1.21,0,0,0-.34-.3,1,1,0,0,0-.48-.12.9.9,0,0,0-.48.12,1,1,0,0,0-.34.3,1.67,1.67,0,0,0-.23.44,4.77,4.77,0,0,0-.13.51c0,.18,0,.35-.05.52A3.78,3.78,0,0,0,156.15,183.17Z"/><path d="M159.92,183.17a7.07,7.07,0,0,1,.08-1,3.64,3.64,0,0,1,.3-.95,2,2,0,0,1,.59-.7,1.77,1.77,0,0,1,1.91,0,1.91,1.91,0,0,1,.59.7,3.64,3.64,0,0,1,.3.95,7,7,0,0,1,.07,1,6.92,6.92,0,0,1-.07,1,3.52,3.52,0,0,1-.3,1,1.83,1.83,0,0,1-.59.7,1.77,1.77,0,0,1-1.91,0,1.92,1.92,0,0,1-.59-.7,3.52,3.52,0,0,1-.3-1A7,7,0,0,1,159.92,183.17Zm.68,0c0,.14,0,.29,0,.47a4.43,4.43,0,0,0,.06.51,3.8,3.8,0,0,0,.13.51,1.53,1.53,0,0,0,.23.44,1,1,0,0,0,.34.31.88.88,0,0,0,.47.11,1,1,0,0,0,.49-.11,1.24,1.24,0,0,0,.34-.31,1.81,1.81,0,0,0,.22-.44,2.72,2.72,0,0,0,.13-.51,4.43,4.43,0,0,0,.06-.51c0-.18,0-.33,0-.47s0-.29,0-.46a4.88,4.88,0,0,0-.06-.52,3.18,3.18,0,0,0-.13-.51,2,2,0,0,0-.22-.44,1.21,1.21,0,0,0-.34-.3,1,1,0,0,0-.49-.12.89.89,0,0,0-.47.12,1,1,0,0,0-.34.3,1.67,1.67,0,0,0-.23.44,4.77,4.77,0,0,0-.13.51,4.88,4.88,0,0,0-.06.52C160.6,182.88,160.6,183,160.6,183.17Z"/><path d="M152.4,203.8h.21l.44,0a1.11,1.11,0,0,0,.41-.14.91.91,0,0,0,.32-.3,1,1,0,0,0,.12-.51.9.9,0,0,0-.27-.69,1,1,0,0,0-.7-.25,1.12,1.12,0,0,0-.62.16,1.07,1.07,0,0,0-.42.47l-.64-.25a1.39,1.39,0,0,1,.65-.72,2,2,0,0,1,1-.24,2.32,2.32,0,0,1,.65.1,1.73,1.73,0,0,1,.54.28,1.39,1.39,0,0,1,.37.46,1.44,1.44,0,0,1,.13.64,1.37,1.37,0,0,1-1,1.3v0a1.44,1.44,0,0,1,.48.17,1.38,1.38,0,0,1,.36.32,1.49,1.49,0,0,1,.24.43,1.64,1.64,0,0,1,.08.5,1.58,1.58,0,0,1-.16.71,1.54,1.54,0,0,1-.4.51,1.73,1.73,0,0,1-.6.32,2.84,2.84,0,0,1-.72.1,2.12,2.12,0,0,1-1.12-.28,1.6,1.6,0,0,1-.7-.91l.68-.23a1.16,1.16,0,0,0,.41.65,1.2,1.2,0,0,0,.73.19,1.12,1.12,0,0,0,.45-.08,1.25,1.25,0,0,0,.37-.22,1.13,1.13,0,0,0,.24-.36,1.06,1.06,0,0,0,.09-.45,1,1,0,0,0-.12-.52.9.9,0,0,0-.33-.34,1.58,1.58,0,0,0-.46-.18,2.24,2.24,0,0,0-.52-.06h-.21Z"/><path d="M155.48,204.23a5.85,5.85,0,0,1,.08-1,3.19,3.19,0,0,1,.29-.95,2,2,0,0,1,.59-.7,1.61,1.61,0,0,1,1-.28,1.57,1.57,0,0,1,.95.28,1.91,1.91,0,0,1,.59.7,3.52,3.52,0,0,1,.3.95,6.29,6.29,0,0,1,0,2,3.52,3.52,0,0,1-.3,1,1.91,1.91,0,0,1-.59.7,1.51,1.51,0,0,1-.95.28,1.54,1.54,0,0,1-1-.28,2,2,0,0,1-.59-.7,3.19,3.19,0,0,1-.29-1A5.85,5.85,0,0,1,155.48,204.23Zm.67,0a4,4,0,0,0,0,.47c0,.17,0,.34.05.51a4.77,4.77,0,0,0,.13.51,1.67,1.67,0,0,0,.23.44,1,1,0,0,0,.34.31,1,1,0,0,0,.48.11,1.06,1.06,0,0,0,.48-.11,1.24,1.24,0,0,0,.34-.31,2,2,0,0,0,.22-.44,3.18,3.18,0,0,0,.13-.51,4.43,4.43,0,0,0,.06-.51c0-.18,0-.33,0-.47s0-.29,0-.46a4.6,4.6,0,0,0-.06-.52,3.18,3.18,0,0,0-.13-.51,2,2,0,0,0-.22-.44,1.21,1.21,0,0,0-.34-.3,1,1,0,0,0-.48-.12.9.9,0,0,0-.48.12,1,1,0,0,0-.34.3,1.67,1.67,0,0,0-.23.44,4.77,4.77,0,0,0-.13.51c0,.17,0,.35-.05.52A3.78,3.78,0,0,0,156.15,204.23Z"/><path d="M159.92,204.23a7.07,7.07,0,0,1,.08-1,3.52,3.52,0,0,1,.3-.95,2,2,0,0,1,.59-.7,1.77,1.77,0,0,1,1.91,0,1.91,1.91,0,0,1,.59.7,3.52,3.52,0,0,1,.3.95,7.18,7.18,0,0,1,0,2,3.52,3.52,0,0,1-.3,1,1.91,1.91,0,0,1-.59.7,1.77,1.77,0,0,1-1.91,0,2,2,0,0,1-.59-.7,3.52,3.52,0,0,1-.3-1A7.07,7.07,0,0,1,159.92,204.23Zm.68,0c0,.14,0,.29,0,.47a4.43,4.43,0,0,0,.06.51,4.77,4.77,0,0,0,.13.51,1.67,1.67,0,0,0,.23.44,1,1,0,0,0,.34.31,1,1,0,0,0,.47.11,1.07,1.07,0,0,0,.49-.11,1.24,1.24,0,0,0,.34-.31,2,2,0,0,0,.22-.44,3.18,3.18,0,0,0,.13-.51,4.43,4.43,0,0,0,.06-.51c0-.18,0-.33,0-.47s0-.29,0-.46a4.6,4.6,0,0,0-.06-.52,3.18,3.18,0,0,0-.13-.51,2,2,0,0,0-.22-.44,1.21,1.21,0,0,0-.34-.3,1,1,0,0,0-.49-.12.89.89,0,0,0-.47.12,1,1,0,0,0-.34.3,1.67,1.67,0,0,0-.23.44,4.77,4.77,0,0,0-.13.51,4.6,4.6,0,0,0-.06.52C160.6,203.94,160.6,204.09,160.6,204.23Z"/><path d="M154.12,226.26h.82v.62h-.82v1.3h-.67v-1.3h-2.4v-.74l2.25-3.63h.82Zm-.67-3h0l-1.81,3h1.82Z"/><path d="M155.48,225.35a5.77,5.77,0,0,1,.08-1,3.1,3.1,0,0,1,.29-.95,2,2,0,0,1,.59-.71,1.6,1.6,0,0,1,1-.27,1.57,1.57,0,0,1,.95.27,1.94,1.94,0,0,1,.59.71,3.41,3.41,0,0,1,.3.95,7,7,0,0,1,.08,1,7.07,7.07,0,0,1-.08,1,3.45,3.45,0,0,1-.3.94,1.94,1.94,0,0,1-.59.71,1.57,1.57,0,0,1-.95.27,1.6,1.6,0,0,1-1-.27,2,2,0,0,1-.59-.71,3.13,3.13,0,0,1-.29-.94A5.85,5.85,0,0,1,155.48,225.35Zm.67,0a3.86,3.86,0,0,0,0,.46c0,.17,0,.34.05.52a4.07,4.07,0,0,0,.13.5,1.41,1.41,0,0,0,.23.44,1,1,0,0,0,.34.31.9.9,0,0,0,.48.12,1,1,0,0,0,.48-.12,1.24,1.24,0,0,0,.34-.31,1.65,1.65,0,0,0,.22-.44,2.83,2.83,0,0,0,.13-.5,4.88,4.88,0,0,0,.06-.52c0-.17,0-.33,0-.46s0-.3,0-.47a4.43,4.43,0,0,0-.06-.51,2.72,2.72,0,0,0-.13-.51,1.81,1.81,0,0,0-.22-.44,1.24,1.24,0,0,0-.34-.31,1,1,0,0,0-.48-.12.9.9,0,0,0-.48.12,1,1,0,0,0-.34.31,1.53,1.53,0,0,0-.23.44,3.8,3.8,0,0,0-.13.51c0,.17,0,.34-.05.51A3.94,3.94,0,0,0,156.15,225.35Z"/><path d="M159.92,225.35a7,7,0,0,1,.08-1,3.41,3.41,0,0,1,.3-.95,2,2,0,0,1,.59-.71,1.82,1.82,0,0,1,1.91,0,1.94,1.94,0,0,1,.59.71,3.41,3.41,0,0,1,.3.95,6.92,6.92,0,0,1,.07,1,7,7,0,0,1-.07,1,3.45,3.45,0,0,1-.3.94,1.94,1.94,0,0,1-.59.71,1.82,1.82,0,0,1-1.91,0,2,2,0,0,1-.59-.71,3.45,3.45,0,0,1-.3-.94A7.07,7.07,0,0,1,159.92,225.35Zm.68,0c0,.13,0,.29,0,.46a4.88,4.88,0,0,0,.06.52,4.07,4.07,0,0,0,.13.5,1.41,1.41,0,0,0,.23.44,1,1,0,0,0,.34.31.89.89,0,0,0,.47.12,1,1,0,0,0,.49-.12,1.24,1.24,0,0,0,.34-.31,1.65,1.65,0,0,0,.22-.44,2.83,2.83,0,0,0,.13-.5,4.88,4.88,0,0,0,.06-.52c0-.17,0-.33,0-.46s0-.3,0-.47a4.43,4.43,0,0,0-.06-.51,2.72,2.72,0,0,0-.13-.51,1.81,1.81,0,0,0-.22-.44,1.24,1.24,0,0,0-.34-.31,1,1,0,0,0-.49-.12.89.89,0,0,0-.47.12,1,1,0,0,0-.34.31,1.53,1.53,0,0,0-.23.44,3.8,3.8,0,0,0-.13.51,4.43,4.43,0,0,0-.06.51C160.6,225.05,160.6,225.21,160.6,225.35Z"/></g></svg>