<svg id="AIM_F00900" data-name="AIM F00900" xmlns="http://www.w3.org/2000/svg" viewBox="0 0 300 263"><defs><style>.cls-1,.cls-2,.cls-3,.cls-5{fill:none;stroke:#000;stroke-width:0.5px;}.cls-1,.cls-2,.cls-3{stroke-linecap:round;stroke-linejoin:round;}.cls-1{stroke-dasharray:0.03 0.01 0.01 0.01;}.cls-2{stroke-dasharray:1.27 0.32 0.05 0.32;}.cls-4{isolation:isolate;}</style></defs><title>aim-suspension-bouroullec-flos-F00900-spech-tech-02-300x263</title><g id="LINE"><line class="cls-1" x1="188.06" y1="212.88" x2="188.06" y2="212.93"/></g><g id="LINE-2" data-name="LINE"><line class="cls-1" x1="112.03" y1="212.88" x2="112.03" y2="212.93"/></g><g id="LINE-3" data-name="LINE"><line class="cls-2" x1="165.81" y1="51.7" x2="163.98" y2="51.7"/></g><g id="LINE-4" data-name="LINE"><line class="cls-2" x1="164.9" y1="50.79" x2="164.9" y2="52.61"/></g><g id="LINE-5" data-name="LINE"><line class="cls-3" x1="171.08" y1="55.72" x2="171.08" y2="53.81"/></g><g id="ARC"><path class="cls-3" d="M170.66,57a13.51,13.51,0,0,0,.42,3.3"/></g><g id="LINE-6" data-name="LINE"><line class="cls-3" x1="171.08" y1="56.96" x2="170.66" y2="56.96"/></g><g id="LINE-7" data-name="LINE"><line class="cls-3" x1="110.9" y1="212.72" x2="105.44" y2="212.72"/></g><g id="LINE-8" data-name="LINE"><line class="cls-3" x1="143.24" y1="130.19" x2="142.3" y2="130.19"/></g><g id="LINE-9" data-name="LINE"><line class="cls-3" x1="157.79" y1="130.19" x2="143.24" y2="130.19"/></g><g id="LINE-10" data-name="LINE"><line class="cls-3" x1="194.65" y1="212.72" x2="110.9" y2="212.72"/></g><g id="LINE-11" data-name="LINE"><line class="cls-3" x1="200.11" y1="159.25" x2="200.11" y2="158.98"/></g><g id="ARC-2" data-name="ARC"><path class="cls-3" d="M200.12,159.25c0,1.35.07,2.71.14,4.06"/></g><g id="LINE-12" data-name="LINE"><line class="cls-3" x1="200.26" y1="163.3" x2="200.26" y2="163.25"/></g><g id="LWPOLYLINE"><polyline class="cls-3" points="142.3 130.19 141.08 130.24 139.87 130.31 138.66 130.38 137.45 130.47 136.24 130.58 135.04 130.7 133.84 130.83 132.64 130.97 131.45 131.14 130.25 131.31 129.06 131.5 127.86 131.7 126.67 131.93 125.48 132.17 124.29 132.43 123.1 132.71 121.92 133.01 120.74 133.34 120.16 133.51 119.58 133.7 119 133.89 118.42 134.09 117.85 134.3 117.28 134.52 116.72 134.74 116.16 134.98 115.61 135.23 115.06 135.48 114.52 135.75 113.98 136.03 113.45 136.32 112.93 136.62 112.41 136.94 111.9 137.26 111.39 137.59 110.9 137.94 110.41 138.29 109.93 138.66 109.45 139.04 108.99 139.42 108.53 139.82 108.07 140.23 107.63 140.64 107.19 141.07 106.76 141.51 106.34 141.95 105.93 142.41 105.53 142.87 105.13 143.34 104.75 143.82 104.39 144.31 104.03 144.81 103.69 145.31 103.36 145.83 103.05 146.35 102.75 146.88 102.48 147.42 102.22 147.97 101.97 148.52 101.75 149.08 101.54 149.65 101.35 150.22 101.17 150.8 101.02 151.39 100.87 151.98 100.75 152.57 100.63 153.16 100.52 153.76 100.43 154.37 100.34 154.97 100.27 155.57 100.2 156.18 100.09 157.39 100 158.6 99.93 159.81 99.88 161.03 99.84 162.24 99.83 163.44 99.82 164.65 99.83 165.85 99.85 167.06 99.88 168.27 99.93 169.47 99.99 170.68 100.06 171.89 100.14 173.1 100.23 174.31 100.33 175.52 100.44 176.73 100.69 179.14 100.95 181.56 101.24 183.97 101.55 186.37 102.02 189.97 102.51 193.57 103.03 197.16 103.57 200.76 104.14 204.35 104.89 209.13 105.44 212.72"/></g><g id="LINE-13" data-name="LINE"><line class="cls-3" x1="142.33" y1="130.19" x2="142.3" y2="130.19"/></g><g id="LINE-14" data-name="LINE"><line class="cls-3" x1="142.33" y1="130.19" x2="143.27" y2="130.19"/></g><g id="LINE-15" data-name="LINE"><line class="cls-3" x1="142.33" y1="130.19" x2="144.13" y2="130.19"/></g><g id="LINE-16" data-name="LINE"><line class="cls-3" x1="155.95" y1="130.19" x2="156.81" y2="130.19"/></g><g id="LINE-17" data-name="LINE"><line class="cls-3" x1="157.76" y1="130.19" x2="157.79" y2="130.19"/></g><g id="LINE-18" data-name="LINE"><line class="cls-3" x1="157.76" y1="130.19" x2="156.81" y2="130.19"/></g><g id="LINE-19" data-name="LINE"><line class="cls-3" x1="157.76" y1="130.19" x2="143.27" y2="130.19"/></g><g id="LWPOLYLINE-2" data-name="LWPOLYLINE"><polyline class="cls-3" points="157.79 130.19 159.01 130.24 160.22 130.31 161.43 130.38 162.64 130.47 163.85 130.58 165.05 130.7 166.25 130.83 167.44 130.97 168.64 131.14 169.84 131.31 171.03 131.5 172.22 131.7 173.41 131.93 174.61 132.17 175.8 132.43 176.99 132.71 178.17 133.01 179.34 133.34 179.93 133.51 180.51 133.7 181.09 133.89 181.67 134.09 182.24 134.3 182.81 134.52 183.37 134.74 183.93 134.98 184.48 135.23 185.03 135.48 185.57 135.75 186.11 136.03 186.64 136.32 187.16 136.62 187.68 136.94 188.18 137.26 188.69 137.59 189.19 137.94 189.67 138.29 190.16 138.66 190.63 139.04 191.1 139.42 191.56 139.82 192.02 140.23 192.46 140.64 192.9 141.07 193.32 141.51 193.75 141.95 194.16 142.41 194.56 142.87 194.95 143.34 195.33 143.82 195.7 144.31 196.06 144.81 196.4 145.31 196.72 145.83 197.03 146.35 197.33 146.88 197.61 147.42 197.87 147.97 198.11 148.52 198.34 149.08 198.55 149.65 198.74 150.22 198.91 150.8 199.07 151.39 199.21 151.98 199.34 152.57 199.46 153.16 199.56 153.76 199.66 154.37 199.74 154.97 199.86 155.97 199.96 156.97 200.05 157.98 200.11 158.98"/></g><g id="LWPOLYLINE-3" data-name="LWPOLYLINE"><polyline class="cls-3" points="200.26 163.31 200.27 164.65 200.26 165.85 200.23 167.06 200.21 168.27 200.15 169.47 200.1 170.68 200.02 171.89 199.94 173.1 199.85 174.31 199.75 175.52 199.65 176.73 199.4 179.14 199.13 181.56 198.84 183.97 198.54 186.37 198.07 189.97 197.57 193.57 197.06 197.16 196.51 200.76 195.94 204.35 195.19 209.13 194.65 212.72"/></g><g id="LINE-20" data-name="LINE"><line class="cls-3" x1="152.71" y1="130.07" x2="144.48" y2="130.07"/></g><g id="LINE-21" data-name="LINE"><line class="cls-3" x1="155.61" y1="130.07" x2="152.71" y2="130.07"/></g><g id="LINE-22" data-name="LINE"><line class="cls-3" x1="146.87" y1="130.01" x2="151.56" y2="130.01"/></g><g id="LINE-23" data-name="LINE"><line class="cls-3" x1="151.56" y1="130.01" x2="153.21" y2="130.01"/></g><g id="LWPOLYLINE-4" data-name="LWPOLYLINE"><polyline class="cls-3" points="150.37 130.04 149.64 130.04 149.47 130.03 149.37 130.03 149.36 130.03 149.36 130.03 149.36 130.03 149.4 130.02 149.49 130.02 149.72 130.01"/></g><g id="LWPOLYLINE-5" data-name="LWPOLYLINE"><polyline class="cls-3" points="149.72 130.01 150.34 130.01 150.56 130.02 150.64 130.02 150.7 130.02 150.72 130.03 150.72 130.03 150.72 130.03 150.71 130.03 150.59 130.04 150.37 130.04"/></g><g id="ARC-3" data-name="ARC"><path class="cls-3" d="M144.48,130.07a.73.73,0,0,0-.35.12"/></g><g id="ARC-4" data-name="ARC"><path class="cls-3" d="M156,130.19a.7.7,0,0,0-.34-.12"/></g><g id="LINE-24" data-name="LINE"><line class="cls-3" x1="146.9" y1="130.01" x2="148.39" y2="130.01"/></g><g id="LINE-25" data-name="LINE"><line class="cls-3" x1="146.9" y1="130.01" x2="146.87" y2="130.01"/></g><g id="LINE-26" data-name="LINE"><line class="cls-3" x1="146.9" y1="130.01" x2="151.55" y2="130.01"/></g><g id="LINE-27" data-name="LINE"><line class="cls-3" x1="153.19" y1="130.01" x2="151.55" y2="130.01"/></g><g id="LINE-28" data-name="LINE"><line class="cls-3" x1="153.19" y1="130.01" x2="153.21" y2="130.01"/></g><g id="LINE-29" data-name="LINE"><line class="cls-3" x1="153.19" y1="130.01" x2="151.69" y2="130.01"/></g><g id="ARC-5" data-name="ARC"><path class="cls-3" d="M155.61,130.07l-2.4-.06"/></g><g id="ARC-6" data-name="ARC"><path class="cls-3" d="M146.87,130l-2.39.06"/></g><g id="LWPOLYLINE-6" data-name="LWPOLYLINE"><polyline class="cls-3" points="150.71 130.03 150.4 130.04 150.37 130.04"/></g><g id="LWPOLYLINE-7" data-name="LWPOLYLINE"><polyline class="cls-3" points="149.38 130.03 149.53 130.04 150.05 130.04 150.37 130.04"/></g><g id="LINE-30" data-name="LINE"><line class="cls-3" x1="106.38" y1="212.72" x2="106.37" y2="212.93"/></g><g id="LINE-31" data-name="LINE"><line class="cls-3" x1="187.53" y1="212.93" x2="187.53" y2="212.72"/></g><g id="LINE-32" data-name="LINE"><line class="cls-3" x1="171.31" y1="212.93" x2="171.31" y2="212.72"/></g><g id="LINE-33" data-name="LINE"><line class="cls-3" x1="150.69" y1="212.72" x2="150.69" y2="212.93"/></g><g id="LINE-34" data-name="LINE"><line class="cls-3" x1="106.34" y1="212.72" x2="106.33" y2="212.89"/></g><g id="LINE-35" data-name="LINE"><line class="cls-3" x1="106.33" y1="212.89" x2="106.37" y2="212.93"/></g><g id="LINE-36" data-name="LINE"><line class="cls-3" x1="171.37" y1="212.89" x2="171.37" y2="212.72"/></g><g id="LWPOLYLINE-8" data-name="LWPOLYLINE"><polyline class="cls-3" points="171.37 212.89 171.36 212.91 171.34 212.92 171.31 212.93"/></g><g id="LINE-37" data-name="LINE"><line class="cls-3" x1="187.59" y1="212.89" x2="187.59" y2="212.72"/></g><g id="LWPOLYLINE-9" data-name="LWPOLYLINE"><polyline class="cls-3" points="187.59 212.89 187.56 212.92 187.53 212.93"/></g><g id="LINE-38" data-name="LINE"><line class="cls-3" x1="194.38" y1="212.93" x2="105.71" y2="212.93"/></g><g id="ARC-7" data-name="ARC"><path class="cls-3" d="M105.71,212.93a.06.06,0,0,0-.06.06.06.06,0,0,0,0,0"/></g><g id="LINE-39" data-name="LINE"><line class="cls-3" x1="194.43" y1="213.03" x2="105.66" y2="213.03"/></g><g id="ARC-8" data-name="ARC"><path class="cls-3" d="M194.43,213a.07.07,0,0,0,0-.09h0"/></g><g id="LINE-40" data-name="LINE"><line class="cls-3" x1="194.32" y1="212.89" x2="194.31" y2="212.89"/></g><g id="ELLIPSE"><path class="cls-3" d="M194.31,212.89a0,0,0,0,0,0,0"/></g><g id="ELLIPSE-2" data-name="ELLIPSE"><path class="cls-3" d="M194.27,212.93v0"/></g><g id="LINE-41" data-name="LINE"><line class="cls-3" x1="194.31" y1="212.89" x2="194.27" y2="212.89"/></g><g id="LINE-42" data-name="LINE"><line class="cls-3" x1="194.27" y1="212.89" x2="193.75" y2="212.89"/></g><g id="LINE-43" data-name="LINE"><line class="cls-3" x1="193.75" y1="212.89" x2="193.71" y2="212.93"/></g><g id="LINE-44" data-name="LINE"><line class="cls-3" x1="193.71" y1="212.72" x2="193.71" y2="212.93"/></g><g id="ELLIPSE-3" data-name="ELLIPSE"><path class="cls-3" d="M188.67,212.89a0,0,0,0,0,0,0"/></g><g id="LINE-45" data-name="LINE"><line class="cls-3" x1="188.67" y1="212.89" x2="188.67" y2="212.89"/></g><g id="ELLIPSE-4" data-name="ELLIPSE"><path class="cls-3" d="M188.09,212.89a0,0,0,0,0,0,0"/></g><g id="LINE-46" data-name="LINE"><line class="cls-3" x1="188.67" y1="212.89" x2="188.09" y2="212.89"/></g><g id="ELLIPSE-5" data-name="ELLIPSE"><path class="cls-3" d="M188,212.93s0,0,0,0"/></g><g id="LINE-47" data-name="LINE"><line class="cls-3" x1="188.09" y1="212.89" x2="188.04" y2="212.89"/></g><g id="LINE-48" data-name="LINE"><line class="cls-3" x1="188.04" y1="212.89" x2="187.59" y2="212.89"/></g><g id="ELLIPSE-6" data-name="ELLIPSE"><path class="cls-3" d="M172.67,212.89a0,0,0,0,0,0,0"/></g><g id="LINE-49" data-name="LINE"><line class="cls-3" x1="172.7" y1="212.89" x2="172.67" y2="212.89"/></g><g id="ELLIPSE-7" data-name="ELLIPSE"><path class="cls-3" d="M171.67,212.89a0,0,0,0,0,0,0"/></g><g id="LINE-50" data-name="LINE"><line class="cls-3" x1="172.67" y1="212.89" x2="171.67" y2="212.89"/></g><g id="ELLIPSE-8" data-name="ELLIPSE"><path class="cls-3" d="M171.59,212.93s0,0,0,0"/></g><g id="LINE-51" data-name="LINE"><line class="cls-3" x1="171.67" y1="212.89" x2="171.62" y2="212.89"/></g><g id="LINE-52" data-name="LINE"><line class="cls-3" x1="171.62" y1="212.89" x2="171.37" y2="212.89"/></g><g id="ELLIPSE-9" data-name="ELLIPSE"><path class="cls-3" d="M150.62,212.89v0"/></g><g id="LINE-53" data-name="LINE"><line class="cls-3" x1="150.66" y1="212.89" x2="150.62" y2="212.89"/></g><g id="ELLIPSE-10" data-name="ELLIPSE"><path class="cls-3" d="M149.47,212.93v0"/></g><g id="LINE-54" data-name="LINE"><line class="cls-3" x1="150.62" y1="212.89" x2="149.47" y2="212.89"/></g><g id="LINE-55" data-name="LINE"><line class="cls-3" x1="149.47" y1="212.89" x2="149.43" y2="212.89"/></g><g id="LINE-56" data-name="LINE"><line class="cls-3" x1="149.4" y1="212.93" x2="149.4" y2="212.72"/></g><g id="LINE-57" data-name="LINE"><line class="cls-3" x1="128.77" y1="212.72" x2="128.77" y2="212.93"/></g><g id="ELLIPSE-11" data-name="ELLIPSE"><path class="cls-3" d="M128.46,212.89a0,0,0,0,0,0,0"/></g><g id="LINE-58" data-name="LINE"><line class="cls-3" x1="128.72" y1="212.89" x2="128.46" y2="212.89"/></g><g id="LWPOLYLINE-10" data-name="LWPOLYLINE"><polyline class="cls-3" points="128.72 212.89 128.73 212.91 128.75 212.92 128.77 212.93"/></g><g id="ELLIPSE-12" data-name="ELLIPSE"><path class="cls-3" d="M128.39,212.93s0,0,0,0"/></g><g id="LINE-59" data-name="LINE"><line class="cls-3" x1="128.46" y1="212.89" x2="128.41" y2="212.89"/></g><g id="LINE-60" data-name="LINE"><line class="cls-3" x1="128.41" y1="212.89" x2="127.41" y2="212.89"/></g><g id="ELLIPSE-13" data-name="ELLIPSE"><path class="cls-3" d="M127.39,212.93s0,0,0,0"/></g><g id="LINE-61" data-name="LINE"><line class="cls-3" x1="127.41" y1="212.89" x2="127.39" y2="212.89"/></g><g id="LINE-62" data-name="LINE"><line class="cls-3" x1="112.55" y1="212.72" x2="112.55" y2="212.93"/></g><g id="ELLIPSE-14" data-name="ELLIPSE"><path class="cls-3" d="M112.05,212.89s0,0,0,0"/></g><g id="LINE-63" data-name="LINE"><line class="cls-3" x1="112.49" y1="212.89" x2="112.05" y2="212.89"/></g><g id="LWPOLYLINE-11" data-name="LWPOLYLINE"><polyline class="cls-3" points="112.49 212.89 112.52 212.92 112.55 212.93"/></g><g id="ELLIPSE-15" data-name="ELLIPSE"><path class="cls-3" d="M112,212.93s0,0,0,0"/></g><g id="LINE-64" data-name="LINE"><line class="cls-3" x1="112.05" y1="212.89" x2="111.99" y2="212.89"/></g><g id="ELLIPSE-16" data-name="ELLIPSE"><path class="cls-3" d="M111.38,212.93a0,0,0,0,0,0,0"/></g><g id="LINE-65" data-name="LINE"><line class="cls-3" x1="111.99" y1="212.89" x2="111.42" y2="212.89"/></g><g id="LINE-66" data-name="LINE"><line class="cls-3" x1="111.42" y1="212.89" x2="111.41" y2="212.89"/></g><g id="ELLIPSE-17" data-name="ELLIPSE"><path class="cls-3" d="M105.82,212.89v0"/></g><g id="LINE-67" data-name="LINE"><line class="cls-3" x1="105.82" y1="212.89" x2="106.33" y2="212.89"/></g><g id="ELLIPSE-18" data-name="ELLIPSE"><path class="cls-3" d="M105.73,212.93a0,0,0,0,0,0,0"/></g><g id="LINE-68" data-name="LINE"><line class="cls-3" x1="105.82" y1="212.89" x2="105.77" y2="212.89"/></g><g id="LINE-69" data-name="LINE"><line class="cls-3" x1="105.77" y1="212.89" x2="105.77" y2="212.89"/></g><g id="LINE-70" data-name="LINE"><line class="cls-3" x1="105.82" y1="212.76" x2="105.82" y2="212.89"/></g><g id="LINE-71" data-name="LINE"><line class="cls-3" x1="106.19" y1="212.76" x2="105.82" y2="212.76"/></g><g id="ARC-9" data-name="ARC"><path class="cls-3" d="M106.19,212.76a.08.08,0,0,0,.07,0"/></g><g id="LINE-72" data-name="LINE"><line class="cls-3" x1="193.75" y1="212.72" x2="193.75" y2="212.89"/></g><g id="LINE-73" data-name="LINE"><line class="cls-3" x1="194.27" y1="212.76" x2="194.27" y2="212.89"/></g><g id="LINE-74" data-name="LINE"><line class="cls-3" x1="193.9" y1="212.76" x2="194.27" y2="212.76"/></g><g id="ARC-10" data-name="ARC"><path class="cls-3" d="M193.83,212.72a.07.07,0,0,0,.07,0"/></g><g id="LINE-75" data-name="LINE"><line class="cls-3" x1="188.04" y1="212.8" x2="188.04" y2="212.89"/></g><g id="LINE-76" data-name="LINE"><line class="cls-3" x1="187.71" y1="212.8" x2="188.04" y2="212.8"/></g><g id="ELLIPSE-19" data-name="ELLIPSE"><path class="cls-3" d="M187.62,212.72a.09.09,0,0,0,.09.08"/></g><g id="LINE-77" data-name="LINE"><line class="cls-3" x1="112.05" y1="212.89" x2="112.05" y2="212.76"/></g><g id="LINE-78" data-name="LINE"><line class="cls-3" x1="112.05" y1="212.76" x2="112.37" y2="212.76"/></g><g id="ARC-11" data-name="ARC"><path class="cls-3" d="M112.37,212.76a.05.05,0,0,0,.06,0"/></g><g id="LINE-79" data-name="LINE"><line class="cls-3" x1="112.5" y1="212.72" x2="112.49" y2="212.89"/></g><g id="LINE-80" data-name="LINE"><line class="cls-3" x1="128.72" y1="212.72" x2="128.72" y2="212.89"/></g><g id="LINE-81" data-name="LINE"><line class="cls-3" x1="128.46" y1="212.89" x2="128.46" y2="212.76"/></g><g id="LINE-82" data-name="LINE"><line class="cls-3" x1="128.65" y1="212.76" x2="128.46" y2="212.76"/></g><g id="ELLIPSE-20" data-name="ELLIPSE"><path class="cls-3" d="M128.65,212.76s0,0,0,0"/></g><g id="LINE-83" data-name="LINE"><line class="cls-3" x1="171.62" y1="212.76" x2="171.62" y2="212.89"/></g><g id="LINE-84" data-name="LINE"><line class="cls-3" x1="171.44" y1="212.76" x2="171.62" y2="212.76"/></g><g id="ELLIPSE-21" data-name="ELLIPSE"><path class="cls-3" d="M171.41,212.72s0,0,0,0"/></g><g id="LINE-85" data-name="LINE"><line class="cls-3" x1="194.36" y1="213.12" x2="105.73" y2="213.12"/></g><g id="LINE-86" data-name="LINE"><line class="cls-3" x1="105.66" y1="213.03" x2="105.73" y2="213.12"/></g><g id="LINE-87" data-name="LINE"><line class="cls-3" x1="194.43" y1="213.03" x2="194.36" y2="213.12"/></g><g id="LINE-88" data-name="LINE"><line class="cls-3" x1="194.31" y1="212.76" x2="194.31" y2="212.89"/></g><g id="LINE-89" data-name="LINE"><line class="cls-3" x1="194.32" y1="212.76" x2="194.31" y2="212.76"/></g><g id="LINE-90" data-name="LINE"><line class="cls-3" x1="194.27" y1="212.76" x2="194.31" y2="212.76"/></g><g id="LINE-91" data-name="LINE"><line class="cls-3" x1="188.67" y1="212.76" x2="188.67" y2="212.76"/></g><g id="LINE-92" data-name="LINE"><line class="cls-3" x1="188.67" y1="212.89" x2="188.67" y2="212.76"/></g><g id="LINE-93" data-name="LINE"><line class="cls-3" x1="188.09" y1="212.76" x2="188.09" y2="212.89"/></g><g id="LINE-94" data-name="LINE"><line class="cls-3" x1="188.67" y1="212.76" x2="188.09" y2="212.76"/></g><g id="LINE-95" data-name="LINE"><line class="cls-3" x1="188.06" y1="212.76" x2="188.09" y2="212.76"/></g><g id="ARC-12" data-name="ARC"><path class="cls-3" d="M188.06,212.76s0,0,0,0"/></g><g id="LINE-96" data-name="LINE"><line class="cls-3" x1="172.67" y1="212.76" x2="172.7" y2="212.76"/></g><g id="LINE-97" data-name="LINE"><line class="cls-3" x1="172.67" y1="212.89" x2="172.67" y2="212.76"/></g><g id="LINE-98" data-name="LINE"><line class="cls-3" x1="172.67" y1="212.76" x2="171.67" y2="212.76"/></g><g id="LINE-99" data-name="LINE"><line class="cls-3" x1="171.67" y1="212.76" x2="171.67" y2="212.89"/></g><g id="LINE-100" data-name="LINE"><line class="cls-3" x1="171.62" y1="212.76" x2="171.67" y2="212.76"/></g><g id="LINE-101" data-name="LINE"><line class="cls-3" x1="150.62" y1="212.76" x2="150.66" y2="212.76"/></g><g id="LINE-102" data-name="LINE"><line class="cls-3" x1="150.62" y1="212.89" x2="150.62" y2="212.76"/></g><g id="LINE-103" data-name="LINE"><line class="cls-3" x1="149.47" y1="212.89" x2="149.47" y2="212.76"/></g><g id="LINE-104" data-name="LINE"><line class="cls-3" x1="150.62" y1="212.76" x2="149.47" y2="212.76"/></g><g id="LINE-105" data-name="LINE"><line class="cls-3" x1="149.47" y1="212.76" x2="149.43" y2="212.76"/></g><g id="LINE-106" data-name="LINE"><line class="cls-3" x1="128.41" y1="212.89" x2="128.41" y2="212.76"/></g><g id="LINE-107" data-name="LINE"><line class="cls-3" x1="128.46" y1="212.76" x2="128.41" y2="212.76"/></g><g id="LINE-108" data-name="LINE"><line class="cls-3" x1="127.41" y1="212.76" x2="127.41" y2="212.89"/></g><g id="LINE-109" data-name="LINE"><line class="cls-3" x1="128.41" y1="212.76" x2="127.41" y2="212.76"/></g><g id="LINE-110" data-name="LINE"><line class="cls-3" x1="127.39" y1="212.76" x2="127.41" y2="212.76"/></g><g id="LINE-111" data-name="LINE"><line class="cls-3" x1="112.05" y1="212.76" x2="111.99" y2="212.76"/></g><g id="LINE-112" data-name="LINE"><line class="cls-3" x1="111.99" y1="212.89" x2="111.99" y2="212.76"/></g><g id="LINE-113" data-name="LINE"><line class="cls-3" x1="111.42" y1="212.76" x2="111.42" y2="212.89"/></g><g id="LINE-114" data-name="LINE"><line class="cls-3" x1="111.99" y1="212.76" x2="111.42" y2="212.76"/></g><g id="LINE-115" data-name="LINE"><line class="cls-3" x1="111.41" y1="212.76" x2="111.42" y2="212.76"/></g><g id="LINE-116" data-name="LINE"><line class="cls-3" x1="105.77" y1="212.76" x2="105.82" y2="212.76"/></g><g id="LINE-117" data-name="LINE"><line class="cls-3" x1="105.77" y1="212.76" x2="105.77" y2="212.89"/></g><g id="LINE-118" data-name="LINE"><line class="cls-3" x1="105.77" y1="212.76" x2="105.77" y2="212.76"/></g><g id="ELLIPSE-22" data-name="ELLIPSE"><path class="cls-3" d="M106.19,212.76v0"/></g><g id="ELLIPSE-23" data-name="ELLIPSE"><path class="cls-3" d="M105.82,212.76v0"/></g><g id="ARC-13" data-name="ARC"><path class="cls-3" d="M111.43,212.73l0,0"/></g><g id="ARC-14" data-name="ARC"><path class="cls-3" d="M111.47,212.72h0"/></g><g id="ELLIPSE-24" data-name="ELLIPSE"><path class="cls-3" d="M194.27,212.72v0"/></g><g id="ELLIPSE-25" data-name="ELLIPSE"><path class="cls-3" d="M193.9,212.72v0"/></g><g id="LINE-119" data-name="LINE"><line class="cls-3" x1="187.75" y1="212.72" x2="188.08" y2="212.72"/></g><g id="ELLIPSE-26" data-name="ELLIPSE"><path class="cls-3" d="M187.75,212.72a.1.1,0,0,0,0,.08"/></g><g id="ARC-15" data-name="ARC"><path class="cls-3" d="M188.06,212.76s0,0,0,0"/></g><g id="ARC-16" data-name="ARC"><path class="cls-3" d="M188.08,212.73h0"/></g><g id="ELLIPSE-27" data-name="ELLIPSE"><path class="cls-3" d="M112.05,212.76s0,0,0,0"/></g><g id="ELLIPSE-28" data-name="ELLIPSE"><path class="cls-3" d="M112.37,212.76s0,0,0,0"/></g><g id="LINE-120" data-name="LINE"><line class="cls-3" x1="112.03" y1="212.72" x2="112.35" y2="212.72"/></g><g id="ELLIPSE-29" data-name="ELLIPSE"><path class="cls-3" d="M128.65,212.76a0,0,0,0,0,0,0"/></g><g id="LINE-121" data-name="LINE"><line class="cls-3" x1="128.61" y1="212.72" x2="128.43" y2="212.72"/></g><g id="ELLIPSE-30" data-name="ELLIPSE"><path class="cls-3" d="M128.46,212.76s0,0,0,0"/></g><g id="ELLIPSE-31" data-name="ELLIPSE"><path class="cls-3" d="M149.47,212.72h0"/></g><g id="ELLIPSE-32" data-name="ELLIPSE"><path class="cls-3" d="M150.64,212.73h0"/></g><g id="ELLIPSE-33" data-name="ELLIPSE"><path class="cls-3" d="M171.66,212.72a0,0,0,0,0,0,0"/></g><g id="LINE-122" data-name="LINE"><line class="cls-3" x1="171.48" y1="212.72" x2="171.66" y2="212.72"/></g><g id="ELLIPSE-34" data-name="ELLIPSE"><path class="cls-3" d="M171.48,212.72a0,0,0,0,0,0,0"/></g><g id="ARC-17" data-name="ARC"><path class="cls-3" d="M193.39,213.83a2.14,2.14,0,0,0,1-.71"/></g><g id="LINE-123" data-name="LINE"><line class="cls-3" x1="193.39" y1="213.83" x2="106.69" y2="213.83"/></g><g id="ARC-18" data-name="ARC"><path class="cls-3" d="M105.73,213.12a2.11,2.11,0,0,0,1,.71"/></g><g id="ELLIPSE-35" data-name="ELLIPSE"><path class="cls-3" d="M194.31,212.76a0,0,0,0,0,0,0"/></g><g id="ELLIPSE-36" data-name="ELLIPSE"><path class="cls-3" d="M188.67,212.76a0,0,0,0,0,0,0"/></g><g id="ELLIPSE-37" data-name="ELLIPSE"><path class="cls-3" d="M188.09,212.76a0,0,0,0,0,0,0"/></g><g id="LINE-124" data-name="LINE"><line class="cls-3" x1="188.63" y1="212.72" x2="188.08" y2="212.72"/></g><g id="ELLIPSE-38" data-name="ELLIPSE"><path class="cls-3" d="M172.67,212.76s0,0,0,0"/></g><g id="LINE-125" data-name="LINE"><line class="cls-3" x1="172.66" y1="212.72" x2="171.66" y2="212.72"/></g><g id="ELLIPSE-39" data-name="ELLIPSE"><path class="cls-3" d="M171.67,212.76s0,0,0,0"/></g><g id="ELLIPSE-40" data-name="ELLIPSE"><path class="cls-3" d="M150.62,212.76v0"/></g><g id="LINE-126" data-name="LINE"><line class="cls-3" x1="150.62" y1="212.72" x2="149.47" y2="212.72"/></g><g id="ELLIPSE-41" data-name="ELLIPSE"><path class="cls-3" d="M149.47,212.72v0"/></g><g id="ELLIPSE-42" data-name="ELLIPSE"><path class="cls-3" d="M128.43,212.72s0,0,0,0"/></g><g id="LINE-127" data-name="LINE"><line class="cls-3" x1="128.43" y1="212.72" x2="127.43" y2="212.72"/></g><g id="ELLIPSE-43" data-name="ELLIPSE"><path class="cls-3" d="M127.43,212.72s0,0,0,0"/></g><g id="ELLIPSE-44" data-name="ELLIPSE"><path class="cls-3" d="M112,212.72a0,0,0,0,0,0,0"/></g><g id="ELLIPSE-45" data-name="ELLIPSE"><path class="cls-3" d="M111.43,212.73a0,0,0,0,0,0,0"/></g><g id="LINE-128" data-name="LINE"><line class="cls-3" x1="112.03" y1="212.72" x2="111.47" y2="212.72"/></g><g id="ELLIPSE-46" data-name="ELLIPSE"><path class="cls-3" d="M105.82,212.72a0,0,0,0,0,0,0"/></g><g id="LWPOLYLINE-12" data-name="LWPOLYLINE"><polyline class="cls-3" points="193.39 213.83 193.08 213.93 192.75 214.04 192.35 214.15 191.92 214.26 191.08 214.46 190.19 214.65 189.24 214.82 188.26 214.99 187.5 215.1 186.72 215.21 185.1 215.42 184.06 215.54 183 215.65 180.84 215.86 178.62 216.05 176.36 216.22 174.07 216.36 172.39 216.46 170.7 216.55 168.91 216.64 167.12 216.72 164.46 216.81 161.83 216.89 159.21 216.96 156.33 217.01 153.52 217.04 150.8 217.05"/></g><g id="LWPOLYLINE-13" data-name="LWPOLYLINE"><polyline class="cls-3" points="106.69 213.83 107.01 213.93 107.34 214.04 107.74 214.15 108.17 214.26 109 214.46 109.9 214.65 110.84 214.82 111.83 214.99 112.59 215.1 113.37 215.21 114.98 215.42 116.02 215.54 117.08 215.65 119.25 215.86 121.47 216.05 123.73 216.22 126.01 216.36 127.7 216.46 129.39 216.55 131.18 216.64 132.97 216.72 135.63 216.81 138.27 216.89 140.9 216.96 143.8 217.01 146.64 217.04 149.38 217.05"/></g><g id="ARC-19" data-name="ARC"><path class="cls-3" d="M194.32,212.89a0,0,0,0,0,0,0"/></g><g id="ARC-20" data-name="ARC"><path class="cls-3" d="M188.67,212.89a0,0,0,0,0,.05,0"/></g><g id="ARC-21" data-name="ARC"><path class="cls-3" d="M172.7,212.89a0,0,0,0,0,0,0"/></g><g id="ARC-22" data-name="ARC"><path class="cls-3" d="M150.66,212.89a0,0,0,0,0,0,0"/></g><g id="ARC-23" data-name="ARC"><path class="cls-3" d="M149.38,212.93a0,0,0,0,0,.05,0"/></g><g id="ARC-24" data-name="ARC"><path class="cls-3" d="M127.35,212.93a0,0,0,0,0,0,0"/></g><g id="ARC-25" data-name="ARC"><path class="cls-3" d="M111.37,212.93a0,0,0,0,0,0,0"/></g><g id="ARC-26" data-name="ARC"><path class="cls-3" d="M105.73,212.93a0,0,0,0,0,0,0"/></g><g id="LINE-129" data-name="LINE"><line class="cls-3" x1="194.32" y1="212.89" x2="194.32" y2="212.76"/></g><g id="LINE-130" data-name="LINE"><line class="cls-3" x1="188.67" y1="212.89" x2="188.67" y2="212.76"/></g><g id="LINE-131" data-name="LINE"><line class="cls-3" x1="172.7" y1="212.89" x2="172.7" y2="212.76"/></g><g id="LINE-132" data-name="LINE"><line class="cls-3" x1="150.66" y1="212.89" x2="150.66" y2="212.76"/></g><g id="LINE-133" data-name="LINE"><line class="cls-3" x1="149.43" y1="212.89" x2="149.43" y2="212.76"/></g><g id="LINE-134" data-name="LINE"><line class="cls-3" x1="127.39" y1="212.76" x2="127.39" y2="212.89"/></g><g id="LINE-135" data-name="LINE"><line class="cls-3" x1="111.41" y1="212.76" x2="111.41" y2="212.89"/></g><g id="LINE-136" data-name="LINE"><line class="cls-3" x1="105.77" y1="212.89" x2="105.77" y2="212.76"/></g><g id="LINE-137" data-name="LINE"><line class="cls-3" x1="149.43" y1="212.74" x2="149.43" y2="212.72"/></g><g id="LINE-138" data-name="LINE"><line class="cls-3" x1="150.66" y1="212.74" x2="150.66" y2="212.72"/></g><g id="ARC-27" data-name="ARC"><path class="cls-3" d="M194.32,212.76a0,0,0,0,0,0,0"/></g><g id="ARC-28" data-name="ARC"><path class="cls-3" d="M188.67,212.76a0,0,0,0,0,0,0"/></g><g id="ARC-29" data-name="ARC"><path class="cls-3" d="M172.7,212.76a0,0,0,0,0,0,0"/></g><g id="ARC-30" data-name="ARC"><path class="cls-3" d="M150.66,212.76s0,0,0,0"/></g><g id="ARC-31" data-name="ARC"><path class="cls-3" d="M149.44,212.73a0,0,0,0,0,0,0"/></g><g id="ARC-32" data-name="ARC"><path class="cls-3" d="M127.43,212.72a0,0,0,0,0,0,0"/></g><g id="ARC-33" data-name="ARC"><path class="cls-3" d="M111.41,212.75h0"/></g><g id="ARC-34" data-name="ARC"><path class="cls-3" d="M105.81,212.72a0,0,0,0,0,0,0"/></g><g id="LINE-139" data-name="LINE"><line class="cls-3" x1="149.38" y1="217.05" x2="150.8" y2="217.05"/></g><g id="LINE-140" data-name="LINE"><line class="cls-3" x1="212.31" y1="166.39" x2="212.31" y2="163.66"/></g><g id="LINE-141" data-name="LINE"><line class="cls-3" x1="212.31" y1="163.66" x2="212.31" y2="155.9"/></g><g id="LINE-142" data-name="LINE"><line class="cls-3" x1="210.36" y1="168.02" x2="210.36" y2="164.44"/></g><g id="LINE-143" data-name="LINE"><line class="cls-3" x1="210.36" y1="164.44" x2="210.36" y2="154.27"/></g><g id="LINE-144" data-name="LINE"><line class="cls-3" x1="200.49" y1="164.51" x2="200.49" y2="154.14"/></g><g id="LINE-145" data-name="LINE"><line class="cls-3" x1="200.7" y1="164.6" x2="200.7" y2="153.93"/></g><g id="LINE-146" data-name="LINE"><line class="cls-3" x1="200.49" y1="168.15" x2="200.49" y2="164.51"/></g><g id="LINE-147" data-name="LINE"><line class="cls-3" x1="200.7" y1="168.36" x2="200.7" y2="164.6"/></g><g id="LWPOLYLINE-14" data-name="LWPOLYLINE"><polyline class="cls-3" points="204.72 168.13 205.09 168.04 205.5 167.97 205.94 167.9 206.4 167.86 206.86 167.84 207.32 167.84 207.76 167.87 208.09 167.9"/></g><g id="ARC-35" data-name="ARC"><path class="cls-3" d="M209.05,168.07l-.33-.07"/></g><g id="LWPOLYLINE-15" data-name="LWPOLYLINE"><polyline class="cls-3" points="204.34 168.23 204.74 168.13 205.12 168.04 205.56 167.96 205.83 167.92 206.1 167.88 206.47 167.85 206.84 167.84 207.21 167.84 207.63 167.85 208.02 167.89 208.39 167.94 208.72 168"/></g><g id="LWPOLYLINE-16" data-name="LWPOLYLINE"><polyline class="cls-3" points="204.72 154.17 205.12 154.25 205.57 154.34 205.84 154.38 206.11 154.41 206.47 154.44 206.85 154.46 207.22 154.46 207.64 154.43 208.04 154.4 208.31 154.36 208.78 154.28 209.06 154.22"/></g><g id="ARC-36" data-name="ARC"><path class="cls-3" d="M204.34,154.06l.38.11"/></g><g id="LWPOLYLINE-17" data-name="LWPOLYLINE"><polyline class="cls-3" points="212.31 166.39 212.48 165.52 212.55 165.09 212.66 164.34 212.73 163.72 212.78 163.17 212.82 162.6 212.84 161.99 212.86 161.43 212.86 161.14"/></g><g id="ARC-37" data-name="ARC"><path class="cls-3" d="M212.86,161.14a25,25,0,0,0-.55-5.24"/></g><g id="ARC-38" data-name="ARC"><path class="cls-3" d="M210.36,168a2.08,2.08,0,0,0,1.95-1.63"/></g><g id="ARC-39" data-name="ARC"><path class="cls-3" d="M212.31,155.9a2.06,2.06,0,0,0-1.95-1.63"/></g><g id="ARC-40" data-name="ARC"><path class="cls-3" d="M200.7,153.93a.2.2,0,0,0-.21.2h0"/></g><g id="ARC-41" data-name="ARC"><path class="cls-3" d="M200.49,168.15a.2.2,0,0,0,.2.21h0"/></g><g id="LINE-148" data-name="LINE"><line class="cls-3" x1="200.28" y1="163.26" x2="200.26" y2="163.25"/></g><g id="ARC-42" data-name="ARC"><path class="cls-3" d="M200.07,159.08a.5.5,0,0,0,.21-.05"/></g><g id="LINE-149" data-name="LINE"><line class="cls-3" x1="210.36" y1="168.02" x2="209.05" y2="168.07"/></g><g id="LINE-150" data-name="LINE"><line class="cls-3" x1="204.34" y1="168.23" x2="200.7" y2="168.36"/></g><g id="LINE-151" data-name="LINE"><line class="cls-3" x1="210.36" y1="154.27" x2="209.05" y2="154.23"/></g><g id="LINE-152" data-name="LINE"><line class="cls-3" x1="204.34" y1="154.06" x2="200.7" y2="153.93"/></g><g id="LINE-153" data-name="LINE"><line class="cls-3" x1="200.28" y1="161.14" x2="200.28" y2="156.92"/></g><g id="LINE-154" data-name="LINE"><line class="cls-3" x1="200.28" y1="165.37" x2="200.28" y2="161.14"/></g><g id="LINE-155" data-name="LINE"><line class="cls-3" x1="200.28" y1="156.92" x2="200.49" y2="156.92"/></g><g id="LINE-156" data-name="LINE"><line class="cls-3" x1="200.28" y1="165.37" x2="200.49" y2="165.37"/></g><g id="LINE-157" data-name="LINE"><line class="cls-3" x1="171.08" y1="58.61" x2="171.08" y2="56.96"/></g><g id="LINE-158" data-name="LINE"><line class="cls-3" x1="171.08" y1="60.26" x2="171.08" y2="58.61"/></g><g id="LINE-159" data-name="LINE"><line class="cls-3" x1="158.71" y1="58.61" x2="158.71" y2="56.96"/></g><g id="LINE-160" data-name="LINE"><line class="cls-3" x1="158.71" y1="60.26" x2="158.71" y2="58.61"/></g><g id="LINE-161" data-name="LINE"><line class="cls-3" x1="218.95" y1="172.9" x2="218.95" y2="57.91"/></g><g id="LINE-162" data-name="LINE"><line class="cls-3" x1="222.25" y1="172.9" x2="222.25" y2="57.91"/></g><g id="LWPOLYLINE-18" data-name="LWPOLYLINE"><polyline class="cls-3" points="218.95 172.9 218.95 172.99 218.92 173.13 218.87 173.24 218.84 173.3 218.78 173.36 218.71 173.44 218.62 173.54 218.48 173.64 218.31 173.75 218.1 173.87 217.84 173.98 217.55 174.1 217.24 174.2 216.91 174.29 216.56 174.38 216.18 174.46 215.8 174.52 215.4 174.57 215.01 174.61 214.6 174.64 214.2 174.65 213.78 174.66 213.38 174.65 212.97 174.64 212.57 174.61 212.17 174.57 211.78 174.52 211.4 174.46 211.02 174.38 210.67 174.29 210.34 174.2 210.03 174.1 209.74 173.98 209.48 173.87 209.27 173.75 209.1 173.64 208.97 173.54 208.87 173.44 208.79 173.36 208.74 173.3 208.68 173.18 208.65 173.07 208.64 172.99 208.63 172.9"/></g><g id="LWPOLYLINE-19" data-name="LWPOLYLINE"><polyline class="cls-3" points="222.25 172.9 222.24 173.11 222.23 173.31 222.21 173.52 222.17 173.72 222.13 173.91 222.07 174.1 222.01 174.28 221.94 174.46 221.87 174.63 221.78 174.8 221.68 174.97 221.57 175.14 221.45 175.31 221.33 175.47 221.19 175.63 221.05 175.78 220.9 175.92 220.74 176.06 220.56 176.2 220.38 176.34 220.2 176.46 220 176.58 219.8 176.7 219.59 176.81 219.37 176.92 219.15 177.01 218.68 177.2 218.22 177.35 217.75 177.49 217.26 177.6 216.76 177.7 216.27 177.78 215.78 177.85 215.28 177.9 214.79 177.94 214.29 177.96 213.78 177.96 213.29 177.96 212.78 177.93 212.29 177.9 211.8 177.85 211.31 177.78 210.81 177.7 210.32 177.6 209.83 177.49 209.36 177.35 208.9 177.2 208.44 177.01 208.21 176.92 207.99 176.81 207.78 176.7 207.57 176.58 207.38 176.46 207.2 176.33 207.02 176.2 206.84 176.06 206.68 175.92 206.53 175.77 206.38 175.62 206.25 175.47 206.13 175.31 206.01 175.14 205.9 174.97 205.8 174.8 205.71 174.63 205.63 174.46 205.57 174.28 205.51 174.1 205.45 173.91 205.41 173.72 205.38 173.52 205.35 173.31 205.34 173.11 205.34 172.9"/></g><g id="LINE-163" data-name="LINE"><line class="cls-3" x1="208.63" y1="167.98" x2="208.63" y2="172.9"/></g><g id="LINE-164" data-name="LINE"><line class="cls-3" x1="205.33" y1="168" x2="205.33" y2="172.9"/></g><g id="LWPOLYLINE-20" data-name="LWPOLYLINE"><polyline class="cls-3" points="208.73 154.29 208.81 152.76 208.86 151.72 208.9 150.67 208.9 150.13 208.89 149.6 208.87 149.06 208.85 148.52 208.8 147.98 208.74 147.43 208.66 146.89 208.56 146.35 208.44 145.81 208.3 145.28 208.15 144.76"/></g><g id="LWPOLYLINE-21" data-name="LWPOLYLINE"><polyline class="cls-3" points="205.42 154.31 205.51 152.74 205.56 151.72 205.59 150.72 205.6 150.24 205.59 149.76 205.58 149.28 205.56 148.82 205.52 148.36 205.47 147.91 205.4 147.47 205.32 147.03 205.23 146.6 205.12 146.18 205 145.76"/></g><g id="LINE-165" data-name="LINE"><line class="cls-3" x1="187.1" y1="78.74" x2="208.15" y2="144.76"/></g><g id="LINE-166" data-name="LINE"><line class="cls-3" x1="183.96" y1="79.74" x2="205" y2="145.76"/></g><g id="LWPOLYLINE-22" data-name="LWPOLYLINE"><polyline class="cls-3" points="187.1 78.74 186.3 76.25 185.76 74.61 185.19 72.97 184.9 72.14 184.6 71.31 184.29 70.48 183.97 69.65 183.64 68.82 183.3 68 182.93 67.18 182.56 66.36 182.17 65.56 181.74 64.75 181.29 63.95 181.06 63.56 180.81 63.17 180.56 62.78 180.31 62.4 180.04 62.03 179.77 61.66 179.48 61.3 179.19 60.95 178.88 60.6 178.57 60.27 178.23 59.94 177.89 59.62 177.54 59.32 177.17 59.02 176.79 58.74 176.39 58.49 176 58.24 175.59 58.02 175.17 57.82 174.74 57.64 174.31 57.48 173.86 57.34 173.41 57.22 172.96 57.13 172.49 57.05 172.03 57 171.55 56.97 171.08 56.96"/></g><g id="LWPOLYLINE-23" data-name="LWPOLYLINE"><polyline class="cls-3" points="183.96 79.74 183.16 77.27 182.62 75.66 182.08 74.05 181.79 73.25 181.51 72.45 181.21 71.65 180.9 70.86 180.59 70.07 180.26 69.3 179.93 68.54 179.58 67.78 179.22 67.05 178.84 66.32 178.44 65.62 178.03 64.94 177.81 64.61 177.59 64.29 177.38 63.98 177.15 63.67 176.92 63.38 176.68 63.1 176.44 62.83 176.2 62.57 175.95 62.32 175.69 62.08 175.44 61.86 175.17 61.65 174.9 61.46 174.63 61.27 174.36 61.11 174.09 60.96 173.81 60.83 173.53 60.71 173.24 60.6 172.95 60.52 172.66 60.44 172.36 60.37 172.05 60.32 171.74 60.29 171.41 60.27 171.08 60.26"/></g><g id="LINE-167" data-name="LINE"><line class="cls-3" x1="158.71" y1="56.96" x2="159.05" y2="56.96"/></g><g id="LWPOLYLINE-24" data-name="LWPOLYLINE"><polyline class="cls-3" points="158.71 56.96 158.38 56.97 158.04 56.99 157.71 57.03 157.38 57.08 157.05 57.15 156.72 57.22 156.4 57.32 156.07 57.42 155.76 57.54 155.44 57.67 155.14 57.81 154.84 57.96 154.55 58.12 154.25 58.29 153.97 58.47 153.68 58.66 153.41 58.85 153.13 59.06 152.87 59.27 152.6 59.49 152.35 59.72 152.1 59.95 151.86 60.19 151.62 60.44 151.39 60.69 151.17 60.94 150.95 61.2 150.74 61.47 150.54 61.74 150.34 62.01 150.15 62.29 149.97 62.58 149.79 62.87 149.62 63.17 149.47 63.47 149.32 63.78 149.17 64.1 149.04 64.41 148.92 64.73 148.82 65.05 148.72 65.37 148.63 65.7 148.56 66.03 148.5 66.35 148.46 66.69 148.42 67.02 148.4 67.36 148.39 67.69"/></g><g id="LWPOLYLINE-25" data-name="LWPOLYLINE"><polyline class="cls-3" points="158.71 60.26 158.52 60.27 158.33 60.28 158.14 60.3 157.96 60.33 157.76 60.37 157.56 60.42 157.36 60.47 157.17 60.54 156.96 60.61 156.76 60.7 156.36 60.89 155.96 61.11 155.56 61.37 155.16 61.67 154.76 61.99 154.38 62.33 154.02 62.7 153.68 63.08 153.36 63.48 153.05 63.89 152.78 64.32 152.52 64.75 152.31 65.19 152.11 65.62 151.96 66.05 151.84 66.47 151.8 66.68 151.76 66.89 151.73 67.09 151.71 67.29 151.7 67.49 151.69 67.69"/></g><g id="LINE-168" data-name="LINE"><line class="cls-3" x1="148.39" y1="72.23" x2="148.39" y2="67.69"/></g><g id="LINE-169" data-name="LINE"><line class="cls-3" x1="151.69" y1="72.23" x2="151.69" y2="67.69"/></g><g id="LINE-170" data-name="LINE"><line class="cls-3" x1="148.39" y1="130.01" x2="148.39" y2="72.23"/></g><g id="LINE-171" data-name="LINE"><line class="cls-3" x1="151.69" y1="130.01" x2="151.69" y2="72.23"/></g><g id="LINE-172" data-name="LINE"><line class="cls-3" x1="166.98" y1="62.12" x2="160.56" y2="62.12"/></g><g id="LINE-173" data-name="LINE"><line class="cls-3" x1="169.23" y1="62.12" x2="166.98" y2="62.12"/></g><g id="LINE-174" data-name="LINE"><line class="cls-3" x1="171.01" y1="53.87" x2="167.83" y2="53.87"/></g><g id="LINE-175" data-name="LINE"><line class="cls-3" x1="164.87" y1="53.87" x2="158.78" y2="53.87"/></g><g id="LWPOLYLINE-26" data-name="LWPOLYLINE"><polyline class="cls-3" points="158.71 60.26 158.85 59.86 158.93 59.58 159 59.26 159.06 58.91 159.1 58.63 159.12 58.35 159.13 58.02 159.13 57.7 159.1 57.38 159.08 57.15 159.04 56.92"/></g><g id="LWPOLYLINE-27" data-name="LWPOLYLINE"><polyline class="cls-3" points="159.04 56.92 158.95 56.54 158.89 56.3 158.78 55.93 158.71 55.73"/></g><g id="LWPOLYLINE-28" data-name="LWPOLYLINE"><polyline class="cls-3" points="158.71 55.73 158.79 55.95 158.9 56.33 158.96 56.57 159.05 56.96"/></g><g id="LWPOLYLINE-29" data-name="LWPOLYLINE"><polyline class="cls-3" points="158.91 55.93 158.98 56.2 159.06 56.5 159.09 56.67 159.14 56.96"/></g><g id="LWPOLYLINE-30" data-name="LWPOLYLINE"><polyline class="cls-3" points="171.08 55.73 171.01 55.95 170.89 56.33 170.83 56.57 170.75 56.96"/></g><g id="LWPOLYLINE-31" data-name="LWPOLYLINE"><polyline class="cls-3" points="170.88 55.93 170.81 56.2 170.74 56.5 170.7 56.67 170.66 56.96"/></g><g id="ARC-43" data-name="ARC"><path class="cls-3" d="M158.71,60.26a1.85,1.85,0,0,0,1.85,1.86"/></g><g id="LINE-176" data-name="LINE"><line class="cls-3" x1="171.01" y1="53.87" x2="171.08" y2="53.94"/></g><g id="ARC-44" data-name="ARC"><path class="cls-3" d="M169.23,62.12a1.85,1.85,0,0,0,1.85-1.86"/></g><g id="LINE-177" data-name="LINE"><line class="cls-3" x1="158.78" y1="53.87" x2="158.71" y2="53.94"/></g><g id="LINE-178" data-name="LINE"><line class="cls-3" x1="158.71" y1="55.72" x2="158.71" y2="53.94"/></g><g id="LINE-179" data-name="LINE"><line class="cls-3" x1="161.96" y1="47.68" x2="171.03" y2="47.68"/></g><g id="LINE-180" data-name="LINE"><line class="cls-3" x1="161.93" y1="47.74" x2="171.08" y2="47.74"/></g><g id="LINE-181" data-name="LINE"><line class="cls-3" x1="158.77" y1="47.68" x2="161.96" y2="47.68"/></g><g id="LINE-182" data-name="LINE"><line class="cls-3" x1="158.71" y1="47.74" x2="161.93" y2="47.74"/></g><g id="LINE-183" data-name="LINE"><line class="cls-3" x1="161.96" y1="53.87" x2="171.03" y2="53.87"/></g><g id="LINE-184" data-name="LINE"><line class="cls-3" x1="158.77" y1="53.87" x2="161.96" y2="53.87"/></g><g id="LINE-185" data-name="LINE"><line class="cls-3" x1="158.71" y1="53.81" x2="161.93" y2="53.81"/></g><g id="LINE-186" data-name="LINE"><line class="cls-3" x1="161.93" y1="53.81" x2="171.08" y2="53.81"/></g><g id="LWPOLYLINE-32" data-name="LWPOLYLINE"><polyline class="cls-3" points="164.12 52.11 164.2 52.23 164.29 52.33 164.39 52.42 164.52 52.49 164.65 52.54 164.79 52.57 164.93 52.58 165.07 52.56 165.2 52.52 165.34 52.46 165.44 52.38 165.55 52.28 165.63 52.17 165.7 52.05 165.74 51.92 165.77 51.79 165.77 51.61 165.75 51.53 165.73 51.45 165.7 51.37 165.67 51.29"/></g><g id="LWPOLYLINE-33" data-name="LWPOLYLINE"><polyline class="cls-3" points="165.67 51.29 165.6 51.18 165.5 51.07 165.39 50.98 165.28 50.91 165.15 50.86 165.01 50.83 164.87 50.83 164.73 50.84 164.59 50.88 164.46 50.94 164.35 51.02 164.25 51.12 164.16 51.23 164.09 51.35 164.06 51.48 164.03 51.62 164.03 51.79 164.04 51.87 164.06 51.95 164.09 52.03 164.12 52.11"/></g><g id="LINE-187" data-name="LINE"><line class="cls-3" x1="171.03" y1="47.68" x2="171.08" y2="47.74"/></g><g id="LINE-188" data-name="LINE"><line class="cls-3" x1="158.77" y1="47.68" x2="158.71" y2="47.74"/></g><g id="LINE-189" data-name="LINE"><line class="cls-3" x1="158.77" y1="53.87" x2="158.71" y2="53.81"/></g><g id="LINE-190" data-name="LINE"><line class="cls-3" x1="171.03" y1="53.87" x2="171.08" y2="53.81"/></g><g id="LINE-191" data-name="LINE"><line class="cls-3" x1="158.71" y1="47.74" x2="158.71" y2="53.81"/></g><g id="LINE-192" data-name="LINE"><line class="cls-3" x1="171.08" y1="47.74" x2="171.08" y2="53.81"/></g><g id="LINE-193" data-name="LINE"><line class="cls-3" x1="165.35" y1="51.55" x2="164.99" y2="51.23"/></g><g id="LINE-194" data-name="LINE"><line class="cls-3" x1="165.25" y1="52.02" x2="165.35" y2="51.55"/></g><g id="LINE-195" data-name="LINE"><line class="cls-3" x1="164.99" y1="51.23" x2="164.54" y2="51.39"/></g><g id="LINE-196" data-name="LINE"><line class="cls-3" x1="164.8" y1="52.17" x2="165.25" y2="52.02"/></g><g id="LINE-197" data-name="LINE"><line class="cls-3" x1="164.54" y1="51.39" x2="164.45" y2="51.85"/></g><g id="LINE-198" data-name="LINE"><line class="cls-3" x1="164.45" y1="51.85" x2="164.8" y2="52.17"/></g><g id="CIRCLE"><path class="cls-3" d="M165.6,51.7a.7.7,0,0,0-1.4,0,.7.7,0,0,0,1.4,0Z"/></g><g id="LINE-199" data-name="LINE"><line class="cls-3" x1="207.21" y1="47.68" x2="204.69" y2="47.68"/></g><g id="LINE-200" data-name="LINE"><line class="cls-3" x1="218.17" y1="48.63" x2="218.1" y2="47.68"/></g><g id="LINE-201" data-name="LINE"><line class="cls-3" x1="218.1" y1="47.68" x2="207.21" y2="47.68"/></g><g id="LINE-202" data-name="LINE"><line class="cls-3" x1="225.22" y1="48.63" x2="225.29" y2="47.68"/></g><g id="LINE-203" data-name="LINE"><line class="cls-3" x1="236.51" y1="47.68" x2="225.29" y2="47.68"/></g><g id="LINE-204" data-name="LINE"><line class="cls-3" x1="225.29" y1="47.68" x2="218.1" y2="47.68"/></g><g id="LINE-205" data-name="LINE"><line class="cls-3" x1="204.71" y1="48.63" x2="204.69" y2="47.68"/></g><g id="LINE-206" data-name="LINE"><line class="cls-3" x1="236.49" y1="48.63" x2="236.51" y2="47.68"/></g><g id="LINE-207" data-name="LINE"><line class="cls-3" x1="204" y1="57.51" x2="235.69" y2="57.51"/></g><g id="LINE-208" data-name="LINE"><line class="cls-3" x1="235.69" y1="57.51" x2="237.19" y2="57.51"/></g><g id="LINE-209" data-name="LINE"><line class="cls-3" x1="203.69" y1="48.63" x2="235.98" y2="48.63"/></g><g id="LINE-210" data-name="LINE"><line class="cls-3" x1="235.98" y1="48.63" x2="237.51" y2="48.63"/></g><g id="ARC-45" data-name="ARC"><path class="cls-3" d="M204,57.51a.41.41,0,0,0,.41.4"/></g><g id="LINE-211" data-name="LINE"><line class="cls-3" x1="204.41" y1="57.91" x2="235.32" y2="57.91"/></g><g id="ARC-46" data-name="ARC"><path class="cls-3" d="M236.79,57.91a.39.39,0,0,0,.4-.4"/></g><g id="LINE-212" data-name="LINE"><line class="cls-3" x1="236.79" y1="57.91" x2="235.32" y2="57.91"/></g><g id="LINE-213" data-name="LINE"><line class="cls-3" x1="236.79" y1="57.91" x2="236.79" y2="57.91"/></g><g id="LINE-214" data-name="LINE"><line class="cls-3" x1="204" y1="57.51" x2="203.69" y2="48.63"/></g><g id="LINE-215" data-name="LINE"><line class="cls-3" x1="237.19" y1="57.51" x2="237.51" y2="48.63"/></g><g class="cls-4"><path d="M80.47,194.86v7.2H79.14l-4.59-4.51L74,197a6.62,6.62,0,0,0-.61-.47,3.2,3.2,0,0,0-.67-.33,2.06,2.06,0,0,0-.74-.13,1.84,1.84,0,0,0-.83.17,1.63,1.63,0,0,0-.63.47,2.08,2.08,0,0,0-.39.7,2.65,2.65,0,0,0-.13.85,2.3,2.3,0,0,0,.48,1.47,2.11,2.11,0,0,0,1.29.78l-.13,1.22a3.18,3.18,0,0,1-2-1.16,3.51,3.51,0,0,1-.72-2.23,4.59,4.59,0,0,1,.18-1.3,3.22,3.22,0,0,1,.56-1.09,2.5,2.5,0,0,1,.92-.75,2.72,2.72,0,0,1,1.28-.28,3.29,3.29,0,0,1,1.2.2,4.33,4.33,0,0,1,1,.52,6.85,6.85,0,0,1,.91.72l.85.84,3.53,3.57v-5.95Z"/><path d="M80.47,188.36v1.16H70.58l1.79,2-.86.72-2.37-2.88v-1Z"/><path d="M80.47,179.47v1.15H70.58l1.79,2-.86.72-2.37-2.88v-1Z"/><path d="M74.65,170.54l-.84,0-.83.06v-1.14h1.14v0a2.41,2.41,0,0,1-1-1.06,3,3,0,0,1-.34-1.35,3.74,3.74,0,0,1,.06-.65,2.45,2.45,0,0,1,.24-.67,2.34,2.34,0,0,1,.47-.6,2.65,2.65,0,0,1,.78-.47,2.38,2.38,0,0,1-1.13-1,3.06,3.06,0,0,1,.34-3.57,3.12,3.12,0,0,1,2.17-.69h4.75v1.06H76.1a3.11,3.11,0,0,0-1.74.4,1.63,1.63,0,0,0-.61,1.49A1.82,1.82,0,0,0,74.6,164a2.84,2.84,0,0,0,.87.36,4.76,4.76,0,0,0,1,.11h4v1H76.1a3.2,3.2,0,0,0-1.74.4,1.65,1.65,0,0,0-.61,1.49,3.37,3.37,0,0,0,.06.44,1.65,1.65,0,0,0,.36.71,2.55,2.55,0,0,0,.86.67,3.66,3.66,0,0,0,1.6.29h3.84v1.06Z"/><path d="M74.65,156.91l-.84,0L73,157v-1.14h1.14v0a2.47,2.47,0,0,1-1-1.06,3,3,0,0,1-.34-1.36,3.63,3.63,0,0,1,.06-.64,2.31,2.31,0,0,1,.71-1.27,2.45,2.45,0,0,1,.78-.47,2.38,2.38,0,0,1-1.13-1,3.06,3.06,0,0,1,.34-3.57,3.12,3.12,0,0,1,2.17-.69h4.75v1H76.1a3.11,3.11,0,0,0-1.74.41,1.62,1.62,0,0,0-.61,1.48,2,2,0,0,0,.23,1,1.9,1.9,0,0,0,.62.64,2.42,2.42,0,0,0,.87.36,4.2,4.2,0,0,0,1,.11h4v1.06H76.1a3.11,3.11,0,0,0-1.74.4,1.64,1.64,0,0,0-.61,1.49,3.61,3.61,0,0,0,.06.44,1.65,1.65,0,0,0,.36.71,2.55,2.55,0,0,0,.86.67,3.66,3.66,0,0,0,1.6.29h3.84v1.06Z"/></g><line class="cls-5" x1="88.86" y1="215.53" x2="88.86" y2="131.75"/><line class="cls-5" x1="87.02" y1="131.73" x2="90.56" y2="131.73"/><line class="cls-5" x1="86.33" y1="215.53" x2="91.39" y2="215.53"/><g class="cls-4"><path d="M123.11,240.73a3.7,3.7,0,0,1,.68,1.16,4.19,4.19,0,0,1,.25,1.44,4,4,0,0,1-.3,1.57,3.65,3.65,0,0,1-2.08,2.07,4.2,4.2,0,0,1-1.61.3,4.15,4.15,0,0,1-1.4-.22,4,4,0,0,1-1.11-.61l-1.07,1.09L116,247l1.05-1.09a3.62,3.62,0,0,1-.69-1.17,4.23,4.23,0,0,1-.24-1.44,4,4,0,0,1,.3-1.56,3.82,3.82,0,0,1,.82-1.25,3.89,3.89,0,0,1,1.26-.83,4.32,4.32,0,0,1,1.59-.29,4.4,4.4,0,0,1,1.39.21,3.86,3.86,0,0,1,1.15.62l1.06-1.09.51.5Zm-1.25.25a2.69,2.69,0,0,0-1.81-.62,2.87,2.87,0,0,0-1.17.23,2.61,2.61,0,0,0-.88.63,2.66,2.66,0,0,0-.56.95,3.19,3.19,0,0,0-.21,1.16,3,3,0,0,0,.55,1.83Zm-3.6,4.72a2.72,2.72,0,0,0,.8.45,2.86,2.86,0,0,0,1,.16,3,3,0,0,0,1.18-.23,2.82,2.82,0,0,0,.88-.63,2.68,2.68,0,0,0,.57-.95,3.2,3.2,0,0,0,.2-1.17,3.13,3.13,0,0,0-.54-1.82Z"/><path d="M137.22,247.08H130v-1.33l4.51-4.59c.17-.17.34-.35.51-.55a5.39,5.39,0,0,0,.47-.6,3,3,0,0,0,.33-.68,2,2,0,0,0,.13-.73,2,2,0,0,0-.17-.83,1.74,1.74,0,0,0-.47-.63,2.18,2.18,0,0,0-.7-.39,2.66,2.66,0,0,0-.85-.14,2.28,2.28,0,0,0-1.47.48,2.2,2.2,0,0,0-.79,1.3l-1.21-.13a3.14,3.14,0,0,1,1.16-2,3.49,3.49,0,0,1,2.23-.72,4.59,4.59,0,0,1,1.3.18,3.49,3.49,0,0,1,1.09.55,2.69,2.69,0,0,1,1,2.21,3.29,3.29,0,0,1-.2,1.2,4.53,4.53,0,0,1-.52,1,6.2,6.2,0,0,1-.73.91c-.27.29-.55.57-.84.85L131.27,246h5.95Z"/><path d="M144.8,243.33h1.63v1.06H144.8v2.69h-1.15v-2.69h-4.9v-1.31l4.58-7.33h1.47Zm-1.15-6.43h0l-3.91,6.43h3.94Z"/><path d="M150.31,240.61h.59a3.69,3.69,0,0,0,.95-.11,2,2,0,0,0,.79-.36,1.73,1.73,0,0,0,.54-.65,2.13,2.13,0,0,0,.2-1,1.84,1.84,0,0,0-.55-1.41,2.21,2.21,0,0,0-1.55-.51,2.46,2.46,0,0,0-1.26.32,2.68,2.68,0,0,0-.9.93l-1-.51a3.41,3.41,0,0,1,1.31-1.35,3.75,3.75,0,0,1,1.83-.44,4,4,0,0,1,1.26.19,3,3,0,0,1,1,.57,2.77,2.77,0,0,1,.72.93,2.91,2.91,0,0,1,.26,1.25,2.58,2.58,0,0,1-.15.88,2.5,2.5,0,0,1-.42.75,2.76,2.76,0,0,1-1.35,1l0,0a2.34,2.34,0,0,1,.88.36,2.63,2.63,0,0,1,.69.64,3,3,0,0,1,.44.87,3.05,3.05,0,0,1,.16,1,3.26,3.26,0,0,1-.28,1.39,3.18,3.18,0,0,1-.79,1,3.3,3.3,0,0,1-1.15.63,4.6,4.6,0,0,1-3.57-.32,3.35,3.35,0,0,1-1.39-1.75l1.22-.37a2.31,2.31,0,0,0,.85,1.21,2.79,2.79,0,0,0,1.59.39,2.58,2.58,0,0,0,.92-.16,2.25,2.25,0,0,0,.76-.45,2.11,2.11,0,0,0,.51-.71,2.32,2.32,0,0,0,.18-.92,2.27,2.27,0,0,0-.24-1.08,2,2,0,0,0-.64-.71,2.64,2.64,0,0,0-.92-.39,4.7,4.7,0,0,0-1.08-.12h-.49Z"/><path d="M161.54,241.25c0-.27,0-.55,0-.83s0-.55,0-.83h1.13v1.14h0a2.5,2.5,0,0,1,1.06-1,3.05,3.05,0,0,1,1.35-.33,3.74,3.74,0,0,1,.65.06,2.25,2.25,0,0,1,.66.23,2.08,2.08,0,0,1,.6.48,2.47,2.47,0,0,1,.48.78,2.48,2.48,0,0,1,1-1.14,2.87,2.87,0,0,1,1.45-.41,2.73,2.73,0,0,1,2.13.76,3.12,3.12,0,0,1,.69,2.17v4.75h-1.06v-4.37a3.11,3.11,0,0,0-.4-1.74,1.64,1.64,0,0,0-1.49-.61,2,2,0,0,0-1,.23,1.93,1.93,0,0,0-.65.62,2.84,2.84,0,0,0-.36.87,4.74,4.74,0,0,0-.11,1v4h-1.06v-4.37a3.11,3.11,0,0,0-.4-1.74,1.62,1.62,0,0,0-1.48-.61l-.44.06a1.71,1.71,0,0,0-.72.35,2.72,2.72,0,0,0-.66.87,3.51,3.51,0,0,0-.3,1.6v3.84h-1.05Z"/><path d="M175.17,241.25c0-.27,0-.55,0-.83l-.06-.83h1.14v1.14h0a2.5,2.5,0,0,1,1.06-1,3.12,3.12,0,0,1,1.35-.33,3.74,3.74,0,0,1,.65.06,2.42,2.42,0,0,1,.67.23,2.39,2.39,0,0,1,.6.48,2.65,2.65,0,0,1,.47.78,2.48,2.48,0,0,1,1-1.14,2.87,2.87,0,0,1,1.45-.41,2.73,2.73,0,0,1,2.13.76,3.12,3.12,0,0,1,.69,2.17v4.75h-1.06v-4.37a3.11,3.11,0,0,0-.4-1.74,1.63,1.63,0,0,0-1.49-.61,1.82,1.82,0,0,0-1.64.85,2.84,2.84,0,0,0-.36.87,4.74,4.74,0,0,0-.11,1v4h-1.05v-4.37a3.2,3.2,0,0,0-.4-1.74,1.65,1.65,0,0,0-1.49-.61l-.44.06a1.62,1.62,0,0,0-.71.35,2.6,2.6,0,0,0-.67.87,3.66,3.66,0,0,0-.29,1.6v3.84h-1.06Z"/></g><line class="cls-5" x1="106.88" y1="226.77" x2="196.09" y2="226.77"/><line class="cls-5" x1="106.88" y1="226.48" x2="106.88" y2="227.06"/><line class="cls-5" x1="196.09" y1="226.48" x2="196.09" y2="227.06"/><line class="cls-5" x1="106.88" y1="224.24" x2="106.88" y2="229.3"/><line class="cls-5" x1="196.09" y1="224.24" x2="196.09" y2="229.3"/></svg>