<svg id="AIM_small_F00970" data-name="AIM small F00970" xmlns="http://www.w3.org/2000/svg" viewBox="0 0 300 263"><defs><style>.cls-1{isolation:isolate;}.cls-2,.cls-3,.cls-4,.cls-5{fill:none;stroke:#000;stroke-width:0.5px;}.cls-3,.cls-4,.cls-5{stroke-linecap:round;stroke-linejoin:round;}.cls-3{stroke-dasharray:0.03 0.01 0.01 0.01;}.cls-4{stroke-dasharray:1.27 0.32 0.05 0.32;}</style></defs><title>aim-small-canleplug-suspension-bouroullec-flos-F00970-spech-tech-02-300x263</title><g class="cls-1"><path d="M87.67,178v1.15H77.78l1.79,2-.86.72L76.34,179v-1Z"/><path d="M83.92,168v-1.64H85V168h2.69v1.15H85v4.89H83.67l-7.33-4.57V168Zm-6.43,1.15v0l6.43,3.9v-3.93Z"/><path d="M82.8,160l0,0a2.14,2.14,0,0,1,.29.73,4.46,4.46,0,0,1,.09.84,3.43,3.43,0,0,1-1,2.47,3.28,3.28,0,0,1-1.1.72,3.84,3.84,0,0,1-2.83,0,3.35,3.35,0,0,1-1.11-.77,3.49,3.49,0,0,1-.72-1.17,4.13,4.13,0,0,1-.25-1.47,4,4,0,0,1,.25-1.47,3.49,3.49,0,0,1,.72-1.17,3.21,3.21,0,0,1,1.11-.77,3.59,3.59,0,0,1,1.42-.27,4.39,4.39,0,0,1,1.65.28,10.56,10.56,0,0,1,1.39.69l5,3.06V163Zm-3.15-1.15a2.64,2.64,0,0,0-1,.18,2.33,2.33,0,0,0-.77.52,2.66,2.66,0,0,0-.69,1.83,2.61,2.61,0,0,0,.19,1,2.41,2.41,0,0,0,.5.8,2.06,2.06,0,0,0,.77.52,2.67,2.67,0,0,0,2,0,2.18,2.18,0,0,0,.78-.52,2.13,2.13,0,0,0,.5-.8,2.8,2.8,0,0,0,.18-1,2.86,2.86,0,0,0-.18-1,2.3,2.3,0,0,0-.5-.8,2.48,2.48,0,0,0-.78-.52A2.64,2.64,0,0,0,79.65,158.8Z"/><path d="M81.84,151.28l-.83,0-.83.06v-1.14h1.13v0a2.53,2.53,0,0,1-1-1.06,3.08,3.08,0,0,1-.33-1.35,3.74,3.74,0,0,1,.06-.65,2.42,2.42,0,0,1,.23-.67,2.14,2.14,0,0,1,.47-.59,2.64,2.64,0,0,1,.79-.48,2.48,2.48,0,0,1-1.14-1,2.87,2.87,0,0,1-.41-1.45,2.73,2.73,0,0,1,.76-2.13,3.1,3.1,0,0,1,2.16-.69h4.76v1.06H83.3a3.17,3.17,0,0,0-1.75.4,1.66,1.66,0,0,0-.6,1.49,1.84,1.84,0,0,0,.84,1.64,3,3,0,0,0,.88.36,4.74,4.74,0,0,0,1,.11h4v1.05H83.3a3.26,3.26,0,0,0-1.75.4,1.67,1.67,0,0,0-.6,1.49,3.37,3.37,0,0,0,.06.44,1.62,1.62,0,0,0,.35.71,2.5,2.5,0,0,0,.87.67,3.49,3.49,0,0,0,1.6.29h3.84v1.06Z"/><path d="M81.84,137.65l-.83,0-.83.06v-1.14h1.13v0a2.59,2.59,0,0,1-1-1.06,3.12,3.12,0,0,1-.33-1.36,3.72,3.72,0,0,1,.06-.64,2.42,2.42,0,0,1,.23-.67,2.34,2.34,0,0,1,.47-.6,2.85,2.85,0,0,1,.79-.47,2.45,2.45,0,0,1-1.14-1A2.81,2.81,0,0,1,80,129.3a2.73,2.73,0,0,1,.76-2.13,3.1,3.1,0,0,1,2.16-.69h4.76v1.06H83.3a3.17,3.17,0,0,0-1.75.4,1.64,1.64,0,0,0-.6,1.48,1.92,1.92,0,0,0,.23,1,1.87,1.87,0,0,0,.61.64,2.55,2.55,0,0,0,.88.36,4.17,4.17,0,0,0,1,.12h4v1.05H83.3a3.26,3.26,0,0,0-1.75.4,1.67,1.67,0,0,0-.6,1.49,3.61,3.61,0,0,0,.06.44,1.62,1.62,0,0,0,.35.71,2.5,2.5,0,0,0,.87.67,3.63,3.63,0,0,0,1.6.29h3.84v1.06Z"/></g><g class="cls-1"><path d="M119.58,213.89a3.62,3.62,0,0,1,.68,1.16,4,4,0,0,1,.25,1.45,4.26,4.26,0,0,1-.29,1.57,4,4,0,0,1-.83,1.25,3.82,3.82,0,0,1-1.25.82,4.23,4.23,0,0,1-1.61.3,4.15,4.15,0,0,1-1.4-.23,3.72,3.72,0,0,1-1.11-.61l-1.08,1.09-.51-.49,1.06-1.09a3.67,3.67,0,0,1-.69-1.18,4.17,4.17,0,0,1-.24-1.43,4,4,0,0,1,.3-1.57,3.65,3.65,0,0,1,2.08-2.07,4.09,4.09,0,0,1,1.59-.3,4.18,4.18,0,0,1,1.39.22,3.65,3.65,0,0,1,1.15.62l1.06-1.09.51.49Zm-1.24.26a2.66,2.66,0,0,0-1.81-.63,3,3,0,0,0-1.18.23,2.7,2.7,0,0,0-.88.64,2.94,2.94,0,0,0-.56.94,3.42,3.42,0,0,0-.2,1.17,2.94,2.94,0,0,0,.55,1.82Zm-3.6,4.72a2.72,2.72,0,0,0,.8.45,3.07,3.07,0,0,0,1,.16,2.72,2.72,0,0,0,1.17-.24,2.48,2.48,0,0,0,.89-.63,2.73,2.73,0,0,0,.57-.94,3.46,3.46,0,0,0,.2-1.17,3.18,3.18,0,0,0-.54-1.83Z"/><path d="M131.3,220.24h-1.16v-9.88l-2,1.79-.72-.87,2.88-2.36h1Z"/><path d="M142.21,210l-4.56,10.27h-1.3L141,210h-5.52v-1.05h6.72Z"/><path d="M148,208.72a3.26,3.26,0,0,1,2,.56,3.77,3.77,0,0,1,1.16,1.43,6.11,6.11,0,0,1,.56,1.89,13.82,13.82,0,0,1,.15,2,13.58,13.58,0,0,1-.15,2,6.17,6.17,0,0,1-.56,1.9,3.66,3.66,0,0,1-1.16,1.42,3.69,3.69,0,0,1-3.94,0,3.78,3.78,0,0,1-1.17-1.42,6.45,6.45,0,0,1-.56-1.9,15.09,15.09,0,0,1-.14-2,15.36,15.36,0,0,1,.14-2,6.39,6.39,0,0,1,.56-1.89,3.89,3.89,0,0,1,1.17-1.43A3.24,3.24,0,0,1,148,208.72Zm0,1.06a2,2,0,0,0-1.47.5,3.17,3.17,0,0,0-.8,1.23,5.71,5.71,0,0,0-.35,1.57c0,.55-.07,1-.07,1.5s0,.95.07,1.5a5.71,5.71,0,0,0,.35,1.57,3.17,3.17,0,0,0,.8,1.23,2.09,2.09,0,0,0,1.47.5,2.07,2.07,0,0,0,1.46-.5,3.08,3.08,0,0,0,.81-1.23,5.7,5.7,0,0,0,.34-1.57c0-.55.08-1.05.08-1.5s0-1-.08-1.5a5.7,5.7,0,0,0-.34-1.57,3.08,3.08,0,0,0-.81-1.23A2,2,0,0,0,148,209.78Z"/><path d="M158,214.42c0-.28,0-.56,0-.83s0-.56-.05-.84h1.13v1.14h0a2.44,2.44,0,0,1,1.07-1,2.94,2.94,0,0,1,1.35-.34,3.07,3.07,0,0,1,.65.07,2.25,2.25,0,0,1,.66.23,2.18,2.18,0,0,1,.6.47,2.24,2.24,0,0,1,.47.79,2.51,2.51,0,0,1,1-1.14,3.07,3.07,0,0,1,3.58.34,3.17,3.17,0,0,1,.68,2.17v4.75h-1.05v-4.37a3.25,3.25,0,0,0-.4-1.74,1.68,1.68,0,0,0-1.49-.61,2,2,0,0,0-1,.23,2,2,0,0,0-.65.62,2.58,2.58,0,0,0-.36.87,4.9,4.9,0,0,0-.11,1v4h-1.06v-4.37a3.16,3.16,0,0,0-.4-1.74,1.67,1.67,0,0,0-1.49-.61,2.67,2.67,0,0,0-.44.07,1.67,1.67,0,0,0-.71.35,2.53,2.53,0,0,0-.66.86,3.53,3.53,0,0,0-.3,1.6v3.84h-1Z"/><path d="M171.65,214.42c0-.28,0-.56,0-.83s0-.56-.05-.84h1.13v1.14h0a2.41,2.41,0,0,1,1.06-1,2.94,2.94,0,0,1,1.35-.34,3.07,3.07,0,0,1,.65.07,2.25,2.25,0,0,1,.66.23,2,2,0,0,1,.6.47,2.41,2.41,0,0,1,.48.79,2.43,2.43,0,0,1,1-1.14,3.07,3.07,0,0,1,3.58.34,3.12,3.12,0,0,1,.69,2.17v4.75h-1.06v-4.37a3.16,3.16,0,0,0-.4-1.74,1.67,1.67,0,0,0-1.49-.61,1.82,1.82,0,0,0-1.64.85,3.07,3.07,0,0,0-.36.87,4.9,4.9,0,0,0-.11,1v4H176.7v-4.37a3.16,3.16,0,0,0-.4-1.74,1.65,1.65,0,0,0-1.48-.61,2.52,2.52,0,0,0-.44.07,1.71,1.71,0,0,0-.72.35,2.67,2.67,0,0,0-.66.86,3.53,3.53,0,0,0-.3,1.6v3.84h-1Z"/></g><line class="cls-2" x1="98.06" y1="190.21" x2="98.06" y2="116.25"/><line class="cls-2" x1="96.21" y1="116.23" x2="99.76" y2="116.23"/><line class="cls-2" x1="95.53" y1="190.21" x2="100.59" y2="190.21"/><line class="cls-2" x1="111.79" y1="199.94" x2="186.78" y2="199.94"/><line class="cls-2" x1="111.79" y1="199.65" x2="111.79" y2="200.23"/><line class="cls-2" x1="186.78" y1="199.65" x2="186.78" y2="200.23"/><line class="cls-2" x1="111.79" y1="197.41" x2="111.79" y2="202.46"/><line class="cls-2" x1="186.78" y1="197.41" x2="186.78" y2="202.46"/><g id="LINE"><line class="cls-3" x1="181.24" y1="185.9" x2="181.24" y2="185.94"/></g><g id="LINE-2" data-name="LINE"><line class="cls-3" x1="117.33" y1="185.9" x2="117.33" y2="185.94"/></g><g id="LINE-3" data-name="LINE"><line class="cls-4" x1="162.54" y1="50.4" x2="161" y2="50.4"/></g><g id="LINE-4" data-name="LINE"><line class="cls-4" x1="161.77" y1="49.64" x2="161.77" y2="51.17"/></g><g id="LINE-5" data-name="LINE"><line class="cls-5" x1="166.97" y1="53.79" x2="166.97" y2="52.18"/></g><g id="ARC"><path class="cls-5" d="M166.62,54.83A11.25,11.25,0,0,0,167,57.6"/></g><g id="LINE-6" data-name="LINE"><line class="cls-5" x1="166.97" y1="54.83" x2="166.62" y2="54.83"/></g><g id="LINE-7" data-name="LINE"><line class="cls-5" x1="116.38" y1="185.77" x2="111.79" y2="185.77"/></g><g id="LINE-8" data-name="LINE"><line class="cls-5" x1="143.57" y1="116.39" x2="142.78" y2="116.39"/></g><g id="LINE-9" data-name="LINE"><line class="cls-5" x1="155.8" y1="116.39" x2="143.57" y2="116.39"/></g><g id="LINE-10" data-name="LINE"><line class="cls-5" x1="186.78" y1="185.77" x2="116.38" y2="185.77"/></g><g id="LINE-11" data-name="LINE"><line class="cls-5" x1="191.38" y1="140.81" x2="191.38" y2="140.59"/></g><g id="ARC-2" data-name="ARC"><path class="cls-5" d="M191.38,140.81q0,1.71.12,3.42"/></g><g id="LINE-12" data-name="LINE"><line class="cls-5" x1="191.5" y1="144.22" x2="191.5" y2="144.18"/></g><g id="LWPOLYLINE"><polyline class="cls-5" points="142.78 116.39 141.75 116.43 140.73 116.48 139.72 116.55 138.7 116.62 137.68 116.71 136.68 116.81 135.66 116.92 134.66 117.05 133.65 117.18 132.65 117.33 131.64 117.48 130.64 117.66 129.64 117.85 128.64 118.05 127.64 118.27 126.64 118.5 125.64 118.75 124.66 119.03 124.16 119.18 123.67 119.34 123.19 119.5 122.7 119.67 122.22 119.84 121.74 120.02 121.27 120.21 120.8 120.42 120.34 120.62 119.88 120.84 119.42 121.06 118.97 121.3 118.52 121.54 118.08 121.79 117.65 122.06 117.22 122.33 116.8 122.61 116.38 122.9 115.97 123.2 115.56 123.5 115.17 123.82 114.77 124.14 114.39 124.48 114 124.82 113.63 125.17 113.26 125.53 112.9 125.9 112.55 126.28 112.2 126.66 111.86 127.05 111.53 127.44 111.21 127.85 110.91 128.26 110.6 128.68 110.32 129.1 110.04 129.53 109.78 129.97 109.53 130.42 109.3 130.87 109.08 131.33 108.88 131.8 108.69 132.26 108.51 132.74 108.35 133.23 108.2 133.71 108.07 134.21 107.95 134.7 107.84 135.2 107.74 135.7 107.66 136.2 107.58 136.71 107.51 137.22 107.44 137.72 107.39 138.24 107.29 139.25 107.22 140.27 107.16 141.29 107.11 142.31 107.09 143.33 107.07 144.34 107.07 145.35 107.08 146.37 107.09 147.38 107.12 148.4 107.16 149.41 107.21 150.43 107.27 151.44 107.34 152.46 107.41 153.47 107.5 154.49 107.59 155.51 107.79 157.54 108.02 159.57 108.26 161.59 108.52 163.61 108.92 166.64 109.33 169.66 109.76 172.69 110.22 175.71 110.7 178.72 111.33 182.75 111.79 185.77"/></g><g id="LINE-13" data-name="LINE"><line class="cls-5" x1="142.8" y1="116.39" x2="142.78" y2="116.39"/></g><g id="LINE-14" data-name="LINE"><line class="cls-5" x1="142.8" y1="116.39" x2="143.6" y2="116.39"/></g><g id="LINE-15" data-name="LINE"><line class="cls-5" x1="142.8" y1="116.39" x2="144.32" y2="116.39"/></g><g id="LINE-16" data-name="LINE"><line class="cls-5" x1="154.25" y1="116.39" x2="154.97" y2="116.39"/></g><g id="LINE-17" data-name="LINE"><line class="cls-5" x1="155.77" y1="116.39" x2="155.8" y2="116.39"/></g><g id="LINE-18" data-name="LINE"><line class="cls-5" x1="155.77" y1="116.39" x2="154.97" y2="116.39"/></g><g id="LINE-19" data-name="LINE"><line class="cls-5" x1="155.77" y1="116.39" x2="143.6" y2="116.39"/></g><g id="LWPOLYLINE-2" data-name="LWPOLYLINE"><polyline class="cls-5" points="155.8 116.39 156.82 116.43 157.84 116.48 158.86 116.55 159.87 116.62 160.89 116.71 161.9 116.81 162.91 116.92 163.91 117.05 164.92 117.18 165.92 117.33 166.93 117.48 167.93 117.66 168.93 117.85 169.94 118.05 170.94 118.27 171.94 118.5 172.93 118.75 173.92 119.03 174.41 119.18 174.9 119.34 175.38 119.5 175.87 119.67 176.35 119.84 176.83 120.02 177.3 120.21 177.77 120.42 178.24 120.62 178.7 120.84 179.15 121.06 179.6 121.3 180.05 121.54 180.49 121.79 180.92 122.06 181.35 122.33 181.78 122.61 182.19 122.9 182.6 123.2 183.01 123.5 183.4 123.82 183.8 124.14 184.19 124.48 184.57 124.82 184.94 125.17 185.31 125.53 185.67 125.9 186.03 126.28 186.37 126.66 186.71 127.05 187.04 127.44 187.36 127.85 187.67 128.26 187.97 128.68 188.26 129.1 188.53 129.53 188.79 129.97 189.04 130.42 189.28 130.87 189.49 131.33 189.69 131.8 189.89 132.26 190.06 132.74 190.22 133.23 190.37 133.71 190.5 134.21 190.62 134.7 190.73 135.2 190.83 135.7 190.91 136.2 190.99 136.71 191.06 137.22 191.16 138.06 191.25 138.9 191.32 139.75 191.38 140.59"/></g><g id="LWPOLYLINE-3" data-name="LWPOLYLINE"><polyline class="cls-5" points="191.5 144.23 191.51 145.35 191.5 146.37 191.48 147.38 191.45 148.4 191.41 149.41 191.36 150.43 191.3 151.44 191.24 152.46 191.16 153.47 191.07 154.49 190.98 155.51 190.78 157.54 190.55 159.57 190.31 161.59 190.05 163.61 189.66 166.64 189.24 169.66 188.81 172.69 188.35 175.71 187.87 178.72 187.24 182.75 186.78 185.77"/></g><g id="LINE-20" data-name="LINE"><line class="cls-5" x1="151.53" y1="116.28" x2="144.61" y2="116.28"/></g><g id="LINE-21" data-name="LINE"><line class="cls-5" x1="153.97" y1="116.28" x2="151.53" y2="116.28"/></g><g id="LINE-22" data-name="LINE"><line class="cls-5" x1="146.62" y1="116.23" x2="150.56" y2="116.23"/></g><g id="LINE-23" data-name="LINE"><line class="cls-5" x1="150.56" y1="116.23" x2="151.95" y2="116.23"/></g><g id="LWPOLYLINE-4" data-name="LWPOLYLINE"><polyline class="cls-5" points="149.56 116.26 148.95 116.26 148.8 116.26 148.72 116.25 148.71 116.25 148.71 116.25 148.72 116.25 148.74 116.24 148.82 116.24 149.01 116.24"/></g><g id="LWPOLYLINE-5" data-name="LWPOLYLINE"><polyline class="cls-5" points="149.01 116.24 149.54 116.24 149.72 116.24 149.79 116.24 149.84 116.24 149.86 116.25 149.86 116.25 149.86 116.25 149.84 116.25 149.75 116.26 149.56 116.26"/></g><g id="ARC-3" data-name="ARC"><path class="cls-5" d="M144.61,116.28a.49.49,0,0,0-.29.11"/></g><g id="ARC-4" data-name="ARC"><path class="cls-5" d="M154.25,116.39a.49.49,0,0,0-.28-.11"/></g><g id="LINE-24" data-name="LINE"><line class="cls-5" x1="146.64" y1="116.23" x2="147.9" y2="116.23"/></g><g id="LINE-25" data-name="LINE"><line class="cls-5" x1="146.64" y1="116.23" x2="146.62" y2="116.23"/></g><g id="LINE-26" data-name="LINE"><line class="cls-5" x1="146.64" y1="116.23" x2="150.55" y2="116.23"/></g><g id="LINE-27" data-name="LINE"><line class="cls-5" x1="151.93" y1="116.23" x2="150.55" y2="116.23"/></g><g id="LINE-28" data-name="LINE"><line class="cls-5" x1="151.93" y1="116.23" x2="151.95" y2="116.23"/></g><g id="LINE-29" data-name="LINE"><line class="cls-5" x1="151.93" y1="116.23" x2="150.67" y2="116.23"/></g><g id="ARC-5" data-name="ARC"><path class="cls-5" d="M154,116.28l-2,0"/></g><g id="ARC-6" data-name="ARC"><path class="cls-5" d="M146.62,116.23l-2,0"/></g><g id="LWPOLYLINE-6" data-name="LWPOLYLINE"><polyline class="cls-5" points="149.84 116.25 149.59 116.26 149.56 116.26"/></g><g id="LWPOLYLINE-7" data-name="LWPOLYLINE"><polyline class="cls-5" points="148.72 116.25 148.85 116.26 149.29 116.26 149.56 116.26"/></g><g id="LINE-30" data-name="LINE"><line class="cls-5" x1="112.58" y1="185.77" x2="112.57" y2="185.94"/></g><g id="LINE-31" data-name="LINE"><line class="cls-5" x1="180.8" y1="185.94" x2="180.8" y2="185.77"/></g><g id="LINE-32" data-name="LINE"><line class="cls-5" x1="167.17" y1="185.94" x2="167.17" y2="185.77"/></g><g id="LINE-33" data-name="LINE"><line class="cls-5" x1="149.83" y1="185.77" x2="149.83" y2="185.94"/></g><g id="LINE-34" data-name="LINE"><line class="cls-5" x1="112.54" y1="185.77" x2="112.54" y2="185.91"/></g><g id="LINE-35" data-name="LINE"><line class="cls-5" x1="112.54" y1="185.91" x2="112.57" y2="185.94"/></g><g id="LINE-36" data-name="LINE"><line class="cls-5" x1="167.21" y1="185.91" x2="167.21" y2="185.77"/></g><g id="LWPOLYLINE-8" data-name="LWPOLYLINE"><polyline class="cls-5" points="167.21 185.91 167.21 185.92 167.19 185.93 167.17 185.94"/></g><g id="LINE-37" data-name="LINE"><line class="cls-5" x1="180.85" y1="185.91" x2="180.85" y2="185.77"/></g><g id="LWPOLYLINE-9" data-name="LWPOLYLINE"><polyline class="cls-5" points="180.85 185.91 180.83 185.93 180.8 185.94"/></g><g id="LINE-38" data-name="LINE"><line class="cls-5" x1="186.56" y1="185.94" x2="112.02" y2="185.94"/></g><g id="ARC-7" data-name="ARC"><path class="cls-5" d="M112,185.94a.05.05,0,0,0,0,.05v0"/></g><g id="LINE-39" data-name="LINE"><line class="cls-5" x1="186.6" y1="186.02" x2="111.97" y2="186.02"/></g><g id="ARC-8" data-name="ARC"><path class="cls-5" d="M186.6,186a.06.06,0,0,0,0-.07h0"/></g><g id="LINE-40" data-name="LINE"><line class="cls-5" x1="186.51" y1="185.91" x2="186.5" y2="185.91"/></g><g id="ELLIPSE"><path class="cls-5" d="M186.5,185.91a0,0,0,0,0,0,0"/></g><g id="ELLIPSE-2" data-name="ELLIPSE"><path class="cls-5" d="M186.47,185.94v0"/></g><g id="LINE-41" data-name="LINE"><line class="cls-5" x1="186.5" y1="185.91" x2="186.47" y2="185.91"/></g><g id="LINE-42" data-name="LINE"><line class="cls-5" x1="186.47" y1="185.91" x2="186.03" y2="185.91"/></g><g id="LINE-43" data-name="LINE"><line class="cls-5" x1="186.03" y1="185.91" x2="186" y2="185.94"/></g><g id="LINE-44" data-name="LINE"><line class="cls-5" x1="185.99" y1="185.77" x2="186" y2="185.94"/></g><g id="ELLIPSE-3" data-name="ELLIPSE"><path class="cls-5" d="M181.76,185.91s0,0,0,0"/></g><g id="LINE-45" data-name="LINE"><line class="cls-5" x1="181.76" y1="185.91" x2="181.76" y2="185.91"/></g><g id="ELLIPSE-4" data-name="ELLIPSE"><path class="cls-5" d="M181.27,185.91a0,0,0,0,0,0,0"/></g><g id="LINE-46" data-name="LINE"><line class="cls-5" x1="181.76" y1="185.91" x2="181.27" y2="185.91"/></g><g id="ELLIPSE-5" data-name="ELLIPSE"><path class="cls-5" d="M181.21,185.94s0,0,0,0"/></g><g id="LINE-47" data-name="LINE"><line class="cls-5" x1="181.27" y1="185.91" x2="181.22" y2="185.91"/></g><g id="LINE-48" data-name="LINE"><line class="cls-5" x1="181.22" y1="185.91" x2="180.85" y2="185.91"/></g><g id="ELLIPSE-6" data-name="ELLIPSE"><path class="cls-5" d="M168.31,185.91s0,0,0,0"/></g><g id="LINE-49" data-name="LINE"><line class="cls-5" x1="168.33" y1="185.91" x2="168.31" y2="185.91"/></g><g id="ELLIPSE-7" data-name="ELLIPSE"><path class="cls-5" d="M167.47,185.91s0,0,0,0"/></g><g id="LINE-50" data-name="LINE"><line class="cls-5" x1="168.31" y1="185.91" x2="167.47" y2="185.91"/></g><g id="ELLIPSE-8" data-name="ELLIPSE"><path class="cls-5" d="M167.4,185.94l0,0"/></g><g id="LINE-51" data-name="LINE"><line class="cls-5" x1="167.47" y1="185.91" x2="167.43" y2="185.91"/></g><g id="LINE-52" data-name="LINE"><line class="cls-5" x1="167.43" y1="185.91" x2="167.21" y2="185.91"/></g><g id="ELLIPSE-9" data-name="ELLIPSE"><path class="cls-5" d="M149.77,185.91v0"/></g><g id="LINE-53" data-name="LINE"><line class="cls-5" x1="149.81" y1="185.91" x2="149.77" y2="185.91"/></g><g id="ELLIPSE-10" data-name="ELLIPSE"><path class="cls-5" d="M148.8,185.94v0"/></g><g id="LINE-54" data-name="LINE"><line class="cls-5" x1="149.77" y1="185.91" x2="148.8" y2="185.91"/></g><g id="LINE-55" data-name="LINE"><line class="cls-5" x1="148.8" y1="185.91" x2="148.77" y2="185.91"/></g><g id="LINE-56" data-name="LINE"><line class="cls-5" x1="148.74" y1="185.94" x2="148.74" y2="185.77"/></g><g id="LINE-57" data-name="LINE"><line class="cls-5" x1="131.41" y1="185.77" x2="131.4" y2="185.94"/></g><g id="ELLIPSE-11" data-name="ELLIPSE"><path class="cls-5" d="M131.14,185.91a0,0,0,0,0,0,0"/></g><g id="LINE-58" data-name="LINE"><line class="cls-5" x1="131.36" y1="185.91" x2="131.14" y2="185.91"/></g><g id="LWPOLYLINE-10" data-name="LWPOLYLINE"><polyline class="cls-5" points="131.36 185.91 131.37 185.92 131.39 185.93 131.4 185.94"/></g><g id="ELLIPSE-12" data-name="ELLIPSE"><path class="cls-5" d="M131.08,185.94s0,0,0,0"/></g><g id="LINE-59" data-name="LINE"><line class="cls-5" x1="131.14" y1="185.91" x2="131.1" y2="185.91"/></g><g id="LINE-60" data-name="LINE"><line class="cls-5" x1="131.1" y1="185.91" x2="130.26" y2="185.91"/></g><g id="ELLIPSE-13" data-name="ELLIPSE"><path class="cls-5" d="M130.24,185.94s0,0,0,0"/></g><g id="LINE-61" data-name="LINE"><line class="cls-5" x1="130.26" y1="185.91" x2="130.24" y2="185.91"/></g><g id="LINE-62" data-name="LINE"><line class="cls-5" x1="117.77" y1="185.77" x2="117.77" y2="185.94"/></g><g id="ELLIPSE-14" data-name="ELLIPSE"><path class="cls-5" d="M117.35,185.91s0,0,0,0"/></g><g id="LINE-63" data-name="LINE"><line class="cls-5" x1="117.72" y1="185.91" x2="117.35" y2="185.91"/></g><g id="LWPOLYLINE-11" data-name="LWPOLYLINE"><polyline class="cls-5" points="117.72 185.91 117.75 185.93 117.77 185.94"/></g><g id="ELLIPSE-15" data-name="ELLIPSE"><path class="cls-5" d="M117.27,185.94a0,0,0,0,0,0,0"/></g><g id="LINE-64" data-name="LINE"><line class="cls-5" x1="117.35" y1="185.91" x2="117.3" y2="185.91"/></g><g id="ELLIPSE-16" data-name="ELLIPSE"><path class="cls-5" d="M116.78,185.94a0,0,0,0,0,0,0"/></g><g id="LINE-65" data-name="LINE"><line class="cls-5" x1="117.3" y1="185.91" x2="116.82" y2="185.91"/></g><g id="LINE-66" data-name="LINE"><line class="cls-5" x1="116.82" y1="185.91" x2="116.81" y2="185.91"/></g><g id="ELLIPSE-17" data-name="ELLIPSE"><path class="cls-5" d="M112.11,185.91v0"/></g><g id="LINE-67" data-name="LINE"><line class="cls-5" x1="112.11" y1="185.91" x2="112.54" y2="185.91"/></g><g id="ELLIPSE-18" data-name="ELLIPSE"><path class="cls-5" d="M112,185.94a0,0,0,0,0,0,0"/></g><g id="LINE-68" data-name="LINE"><line class="cls-5" x1="112.11" y1="185.91" x2="112.07" y2="185.91"/></g><g id="LINE-69" data-name="LINE"><line class="cls-5" x1="112.07" y1="185.91" x2="112.07" y2="185.91"/></g><g id="LINE-70" data-name="LINE"><line class="cls-5" x1="112.11" y1="185.8" x2="112.11" y2="185.91"/></g><g id="LINE-71" data-name="LINE"><line class="cls-5" x1="112.42" y1="185.8" x2="112.11" y2="185.8"/></g><g id="ARC-9" data-name="ARC"><path class="cls-5" d="M112.42,185.8a.07.07,0,0,0,.06,0"/></g><g id="LINE-72" data-name="LINE"><line class="cls-5" x1="186.03" y1="185.77" x2="186.03" y2="185.91"/></g><g id="LINE-73" data-name="LINE"><line class="cls-5" x1="186.47" y1="185.8" x2="186.47" y2="185.91"/></g><g id="LINE-74" data-name="LINE"><line class="cls-5" x1="186.15" y1="185.8" x2="186.47" y2="185.8"/></g><g id="ARC-10" data-name="ARC"><path class="cls-5" d="M186.09,185.77l.06,0"/></g><g id="LINE-75" data-name="LINE"><line class="cls-5" x1="181.22" y1="185.83" x2="181.22" y2="185.91"/></g><g id="LINE-76" data-name="LINE"><line class="cls-5" x1="180.95" y1="185.83" x2="181.22" y2="185.83"/></g><g id="ELLIPSE-19" data-name="ELLIPSE"><path class="cls-5" d="M180.87,185.77a.08.08,0,0,0,.08.06"/></g><g id="LINE-77" data-name="LINE"><line class="cls-5" x1="117.35" y1="185.91" x2="117.35" y2="185.8"/></g><g id="LINE-78" data-name="LINE"><line class="cls-5" x1="117.35" y1="185.8" x2="117.62" y2="185.8"/></g><g id="ARC-11" data-name="ARC"><path class="cls-5" d="M117.62,185.8a.05.05,0,0,0,0,0"/></g><g id="LINE-79" data-name="LINE"><line class="cls-5" x1="117.72" y1="185.77" x2="117.72" y2="185.91"/></g><g id="LINE-80" data-name="LINE"><line class="cls-5" x1="131.36" y1="185.77" x2="131.36" y2="185.91"/></g><g id="LINE-81" data-name="LINE"><line class="cls-5" x1="131.14" y1="185.91" x2="131.14" y2="185.8"/></g><g id="LINE-82" data-name="LINE"><line class="cls-5" x1="131.3" y1="185.8" x2="131.14" y2="185.8"/></g><g id="ELLIPSE-20" data-name="ELLIPSE"><path class="cls-5" d="M131.3,185.8l0,0"/></g><g id="LINE-83" data-name="LINE"><line class="cls-5" x1="167.43" y1="185.8" x2="167.43" y2="185.91"/></g><g id="LINE-84" data-name="LINE"><line class="cls-5" x1="167.28" y1="185.8" x2="167.43" y2="185.8"/></g><g id="ELLIPSE-21" data-name="ELLIPSE"><path class="cls-5" d="M167.25,185.77a0,0,0,0,0,0,0"/></g><g id="LINE-85" data-name="LINE"><line class="cls-5" x1="186.54" y1="186.1" x2="112.04" y2="186.1"/></g><g id="LINE-86" data-name="LINE"><line class="cls-5" x1="111.97" y1="186.02" x2="112.04" y2="186.1"/></g><g id="LINE-87" data-name="LINE"><line class="cls-5" x1="186.6" y1="186.02" x2="186.54" y2="186.1"/></g><g id="LINE-88" data-name="LINE"><line class="cls-5" x1="186.5" y1="185.8" x2="186.5" y2="185.91"/></g><g id="LINE-89" data-name="LINE"><line class="cls-5" x1="186.51" y1="185.8" x2="186.5" y2="185.8"/></g><g id="LINE-90" data-name="LINE"><line class="cls-5" x1="186.47" y1="185.8" x2="186.5" y2="185.8"/></g><g id="LINE-91" data-name="LINE"><line class="cls-5" x1="181.76" y1="185.8" x2="181.76" y2="185.8"/></g><g id="LINE-92" data-name="LINE"><line class="cls-5" x1="181.76" y1="185.91" x2="181.76" y2="185.8"/></g><g id="LINE-93" data-name="LINE"><line class="cls-5" x1="181.27" y1="185.8" x2="181.27" y2="185.91"/></g><g id="LINE-94" data-name="LINE"><line class="cls-5" x1="181.76" y1="185.8" x2="181.27" y2="185.8"/></g><g id="LINE-95" data-name="LINE"><line class="cls-5" x1="181.25" y1="185.8" x2="181.27" y2="185.8"/></g><g id="ARC-12" data-name="ARC"><path class="cls-5" d="M181.25,185.8l0,0"/></g><g id="LINE-96" data-name="LINE"><line class="cls-5" x1="168.31" y1="185.8" x2="168.33" y2="185.8"/></g><g id="LINE-97" data-name="LINE"><line class="cls-5" x1="168.31" y1="185.91" x2="168.31" y2="185.8"/></g><g id="LINE-98" data-name="LINE"><line class="cls-5" x1="168.31" y1="185.8" x2="167.47" y2="185.8"/></g><g id="LINE-99" data-name="LINE"><line class="cls-5" x1="167.47" y1="185.8" x2="167.47" y2="185.91"/></g><g id="LINE-100" data-name="LINE"><line class="cls-5" x1="167.43" y1="185.8" x2="167.47" y2="185.8"/></g><g id="LINE-101" data-name="LINE"><line class="cls-5" x1="149.77" y1="185.8" x2="149.81" y2="185.8"/></g><g id="LINE-102" data-name="LINE"><line class="cls-5" x1="149.77" y1="185.91" x2="149.77" y2="185.8"/></g><g id="LINE-103" data-name="LINE"><line class="cls-5" x1="148.8" y1="185.91" x2="148.8" y2="185.8"/></g><g id="LINE-104" data-name="LINE"><line class="cls-5" x1="149.77" y1="185.8" x2="148.8" y2="185.8"/></g><g id="LINE-105" data-name="LINE"><line class="cls-5" x1="148.8" y1="185.8" x2="148.77" y2="185.8"/></g><g id="LINE-106" data-name="LINE"><line class="cls-5" x1="131.1" y1="185.91" x2="131.1" y2="185.8"/></g><g id="LINE-107" data-name="LINE"><line class="cls-5" x1="131.14" y1="185.8" x2="131.1" y2="185.8"/></g><g id="LINE-108" data-name="LINE"><line class="cls-5" x1="130.26" y1="185.8" x2="130.26" y2="185.91"/></g><g id="LINE-109" data-name="LINE"><line class="cls-5" x1="131.1" y1="185.8" x2="130.26" y2="185.8"/></g><g id="LINE-110" data-name="LINE"><line class="cls-5" x1="130.24" y1="185.8" x2="130.26" y2="185.8"/></g><g id="LINE-111" data-name="LINE"><line class="cls-5" x1="117.35" y1="185.8" x2="117.3" y2="185.8"/></g><g id="LINE-112" data-name="LINE"><line class="cls-5" x1="117.3" y1="185.91" x2="117.3" y2="185.8"/></g><g id="LINE-113" data-name="LINE"><line class="cls-5" x1="116.82" y1="185.8" x2="116.82" y2="185.91"/></g><g id="LINE-114" data-name="LINE"><line class="cls-5" x1="117.3" y1="185.8" x2="116.82" y2="185.8"/></g><g id="LINE-115" data-name="LINE"><line class="cls-5" x1="116.81" y1="185.8" x2="116.82" y2="185.8"/></g><g id="LINE-116" data-name="LINE"><line class="cls-5" x1="112.07" y1="185.8" x2="112.11" y2="185.8"/></g><g id="LINE-117" data-name="LINE"><line class="cls-5" x1="112.07" y1="185.8" x2="112.07" y2="185.91"/></g><g id="LINE-118" data-name="LINE"><line class="cls-5" x1="112.07" y1="185.8" x2="112.07" y2="185.8"/></g><g id="ELLIPSE-22" data-name="ELLIPSE"><path class="cls-5" d="M112.42,185.8v0"/></g><g id="ELLIPSE-23" data-name="ELLIPSE"><path class="cls-5" d="M112.11,185.8v0"/></g><g id="ARC-13" data-name="ARC"><path class="cls-5" d="M116.82,185.78h0"/></g><g id="ARC-14" data-name="ARC"><path class="cls-5" d="M116.86,185.77h0"/></g><g id="ELLIPSE-24" data-name="ELLIPSE"><path class="cls-5" d="M186.47,185.77v0"/></g><g id="ELLIPSE-25" data-name="ELLIPSE"><path class="cls-5" d="M186.15,185.77v0"/></g><g id="LINE-119" data-name="LINE"><line class="cls-5" x1="180.99" y1="185.77" x2="181.26" y2="185.77"/></g><g id="ELLIPSE-26" data-name="ELLIPSE"><path class="cls-5" d="M181,185.77s0,0,0,.06"/></g><g id="ARC-15" data-name="ARC"><path class="cls-5" d="M181.25,185.8v0"/></g><g id="ARC-16" data-name="ARC"><path class="cls-5" d="M181.26,185.78h0"/></g><g id="ELLIPSE-27" data-name="ELLIPSE"><path class="cls-5" d="M117.35,185.8s0,0,0,0"/></g><g id="ELLIPSE-28" data-name="ELLIPSE"><path class="cls-5" d="M117.62,185.8s0,0,0,0"/></g><g id="LINE-120" data-name="LINE"><line class="cls-5" x1="117.33" y1="185.77" x2="117.6" y2="185.77"/></g><g id="ELLIPSE-29" data-name="ELLIPSE"><path class="cls-5" d="M131.3,185.8a0,0,0,0,0,0,0"/></g><g id="LINE-121" data-name="LINE"><line class="cls-5" x1="131.27" y1="185.77" x2="131.12" y2="185.77"/></g><g id="ELLIPSE-30" data-name="ELLIPSE"><path class="cls-5" d="M131.14,185.8s0,0,0,0"/></g><g id="ELLIPSE-31" data-name="ELLIPSE"><path class="cls-5" d="M148.8,185.77h0"/></g><g id="ELLIPSE-32" data-name="ELLIPSE"><path class="cls-5" d="M149.79,185.77h0"/></g><g id="ELLIPSE-33" data-name="ELLIPSE"><path class="cls-5" d="M167.46,185.77a0,0,0,0,0,0,0"/></g><g id="LINE-122" data-name="LINE"><line class="cls-5" x1="167.3" y1="185.77" x2="167.46" y2="185.77"/></g><g id="ELLIPSE-34" data-name="ELLIPSE"><path class="cls-5" d="M167.3,185.77s0,0,0,0"/></g><g id="ARC-17" data-name="ARC"><path class="cls-5" d="M185.73,186.7a1.78,1.78,0,0,0,.81-.6"/></g><g id="LINE-123" data-name="LINE"><line class="cls-5" x1="185.73" y1="186.7" x2="112.85" y2="186.7"/></g><g id="ARC-18" data-name="ARC"><path class="cls-5" d="M112,186.1a1.68,1.68,0,0,0,.81.6"/></g><g id="ELLIPSE-35" data-name="ELLIPSE"><path class="cls-5" d="M186.5,185.8a0,0,0,0,0,0,0"/></g><g id="ELLIPSE-36" data-name="ELLIPSE"><path class="cls-5" d="M181.76,185.8a0,0,0,0,0,0,0"/></g><g id="ELLIPSE-37" data-name="ELLIPSE"><path class="cls-5" d="M181.27,185.8s0,0,0,0"/></g><g id="LINE-124" data-name="LINE"><line class="cls-5" x1="181.73" y1="185.77" x2="181.26" y2="185.77"/></g><g id="ELLIPSE-38" data-name="ELLIPSE"><path class="cls-5" d="M168.31,185.8s0,0,0,0"/></g><g id="LINE-125" data-name="LINE"><line class="cls-5" x1="168.3" y1="185.77" x2="167.46" y2="185.77"/></g><g id="ELLIPSE-39" data-name="ELLIPSE"><path class="cls-5" d="M167.47,185.8s0,0,0,0"/></g><g id="ELLIPSE-40" data-name="ELLIPSE"><path class="cls-5" d="M149.77,185.8v0"/></g><g id="LINE-126" data-name="LINE"><line class="cls-5" x1="149.77" y1="185.77" x2="148.8" y2="185.77"/></g><g id="ELLIPSE-41" data-name="ELLIPSE"><path class="cls-5" d="M148.8,185.77v0"/></g><g id="ELLIPSE-42" data-name="ELLIPSE"><path class="cls-5" d="M131.12,185.77s0,0,0,0"/></g><g id="LINE-127" data-name="LINE"><line class="cls-5" x1="131.12" y1="185.77" x2="130.28" y2="185.77"/></g><g id="ELLIPSE-43" data-name="ELLIPSE"><path class="cls-5" d="M130.28,185.77s0,0,0,0"/></g><g id="ELLIPSE-44" data-name="ELLIPSE"><path class="cls-5" d="M117.33,185.77a0,0,0,0,0,0,0"/></g><g id="ELLIPSE-45" data-name="ELLIPSE"><path class="cls-5" d="M116.82,185.78v0"/></g><g id="LINE-128" data-name="LINE"><line class="cls-5" x1="117.33" y1="185.77" x2="116.86" y2="185.77"/></g><g id="ELLIPSE-46" data-name="ELLIPSE"><path class="cls-5" d="M112.11,185.77s0,0,0,0"/></g><g id="LWPOLYLINE-12" data-name="LWPOLYLINE"><polyline class="cls-5" points="185.73 186.7 185.46 186.78 185.19 186.87 184.85 186.97 184.49 187.06 183.78 187.23 183.03 187.38 182.24 187.53 181.41 187.67 180.77 187.77 180.12 187.86 178.76 188.03 177.88 188.13 176.99 188.23 175.17 188.41 173.31 188.56 171.41 188.7 169.49 188.83 168.07 188.91 166.65 188.99 165.15 189.06 163.64 189.12 161.41 189.21 159.19 189.27 156.99 189.33 154.57 189.37 152.21 189.4 149.92 189.41"/></g><g id="LWPOLYLINE-13" data-name="LWPOLYLINE"><polyline class="cls-5" points="112.84 186.7 113.11 186.78 113.38 186.87 113.72 186.97 114.08 187.06 114.79 187.23 115.54 187.38 116.33 187.53 117.16 187.67 117.8 187.77 118.46 187.86 119.81 188.03 120.69 188.13 121.58 188.23 123.4 188.41 125.27 188.56 127.16 188.7 129.08 188.83 130.5 188.91 131.92 188.99 133.43 189.06 134.94 189.12 137.17 189.21 139.39 189.27 141.6 189.33 144.04 189.37 146.42 189.4 148.73 189.41"/></g><g id="ARC-19" data-name="ARC"><path class="cls-5" d="M186.51,185.91a0,0,0,0,0,0,0"/></g><g id="ARC-20" data-name="ARC"><path class="cls-5" d="M181.76,185.91a0,0,0,0,0,0,0"/></g><g id="ARC-21" data-name="ARC"><path class="cls-5" d="M168.33,185.91a0,0,0,0,0,0,0"/></g><g id="ARC-22" data-name="ARC"><path class="cls-5" d="M149.81,185.91a0,0,0,0,0,0,0"/></g><g id="ARC-23" data-name="ARC"><path class="cls-5" d="M148.73,185.94a0,0,0,0,0,0,0"/></g><g id="ARC-24" data-name="ARC"><path class="cls-5" d="M130.21,185.94a0,0,0,0,0,0,0"/></g><g id="ARC-25" data-name="ARC"><path class="cls-5" d="M116.78,185.94a0,0,0,0,0,0,0"/></g><g id="ARC-26" data-name="ARC"><path class="cls-5" d="M112,185.94a0,0,0,0,0,0,0"/></g><g id="LINE-129" data-name="LINE"><line class="cls-5" x1="186.51" y1="185.91" x2="186.51" y2="185.8"/></g><g id="LINE-130" data-name="LINE"><line class="cls-5" x1="181.76" y1="185.91" x2="181.76" y2="185.8"/></g><g id="LINE-131" data-name="LINE"><line class="cls-5" x1="168.33" y1="185.91" x2="168.33" y2="185.8"/></g><g id="LINE-132" data-name="LINE"><line class="cls-5" x1="149.81" y1="185.91" x2="149.81" y2="185.8"/></g><g id="LINE-133" data-name="LINE"><line class="cls-5" x1="148.77" y1="185.91" x2="148.77" y2="185.8"/></g><g id="LINE-134" data-name="LINE"><line class="cls-5" x1="130.24" y1="185.8" x2="130.24" y2="185.91"/></g><g id="LINE-135" data-name="LINE"><line class="cls-5" x1="116.81" y1="185.8" x2="116.81" y2="185.91"/></g><g id="LINE-136" data-name="LINE"><line class="cls-5" x1="112.07" y1="185.91" x2="112.07" y2="185.8"/></g><g id="LINE-137" data-name="LINE"><line class="cls-5" x1="148.77" y1="185.78" x2="148.77" y2="185.77"/></g><g id="LINE-138" data-name="LINE"><line class="cls-5" x1="149.8" y1="185.78" x2="149.8" y2="185.77"/></g><g id="ARC-27" data-name="ARC"><path class="cls-5" d="M186.51,185.8s0,0,0,0"/></g><g id="ARC-28" data-name="ARC"><path class="cls-5" d="M181.76,185.8a0,0,0,0,0,0,0"/></g><g id="ARC-29" data-name="ARC"><path class="cls-5" d="M168.33,185.8a0,0,0,0,0,0,0"/></g><g id="ARC-30" data-name="ARC"><path class="cls-5" d="M149.81,185.8s0,0,0,0"/></g><g id="ARC-31" data-name="ARC"><path class="cls-5" d="M148.78,185.77a0,0,0,0,0,0,0"/></g><g id="ARC-32" data-name="ARC"><path class="cls-5" d="M130.28,185.77s0,0,0,0"/></g><g id="ARC-33" data-name="ARC"><path class="cls-5" d="M116.81,185.79h0"/></g><g id="ARC-34" data-name="ARC"><path class="cls-5" d="M112.1,185.77a0,0,0,0,0,0,0"/></g><g id="LINE-139" data-name="LINE"><line class="cls-5" x1="148.73" y1="189.41" x2="149.92" y2="189.41"/></g><g id="LINE-140" data-name="LINE"><line class="cls-5" x1="201.63" y1="146.82" x2="201.63" y2="144.52"/></g><g id="LINE-141" data-name="LINE"><line class="cls-5" x1="201.63" y1="144.52" x2="201.63" y2="138"/></g><g id="LINE-142" data-name="LINE"><line class="cls-5" x1="199.99" y1="148.19" x2="199.99" y2="145.18"/></g><g id="LINE-143" data-name="LINE"><line class="cls-5" x1="199.99" y1="145.18" x2="199.99" y2="136.63"/></g><g id="LINE-144" data-name="LINE"><line class="cls-5" x1="191.69" y1="145.23" x2="191.69" y2="136.52"/></g><g id="LINE-145" data-name="LINE"><line class="cls-5" x1="191.87" y1="145.32" x2="191.87" y2="136.35"/></g><g id="LINE-146" data-name="LINE"><line class="cls-5" x1="191.69" y1="148.3" x2="191.69" y2="145.23"/></g><g id="LINE-147" data-name="LINE"><line class="cls-5" x1="191.87" y1="148.47" x2="191.87" y2="145.32"/></g><g id="LWPOLYLINE-14" data-name="LWPOLYLINE"><polyline class="cls-5" points="195.25 148.28 195.56 148.21 195.91 148.14 196.28 148.09 196.66 148.05 197.05 148.03 197.43 148.03 197.8 148.06 198.09 148.09"/></g><g id="ARC-35" data-name="ARC"><path class="cls-5" d="M198.89,148.23l-.28-.06"/></g><g id="LWPOLYLINE-15" data-name="LWPOLYLINE"><polyline class="cls-5" points="194.93 148.37 195.27 148.28 195.59 148.2 195.96 148.13 196.18 148.1 196.41 148.07 196.72 148.05 197.03 148.03 197.35 148.03 197.69 148.05 198.03 148.08 198.34 148.12 198.61 148.17"/></g><g id="LWPOLYLINE-16" data-name="LWPOLYLINE"><polyline class="cls-5" points="195.25 136.54 195.59 136.62 195.97 136.69 196.19 136.72 196.42 136.74 196.72 136.77 197.04 136.78 197.35 136.78 197.7 136.77 198.04 136.74 198.27 136.71 198.66 136.64 198.89 136.59"/></g><g id="ARC-36" data-name="ARC"><path class="cls-5" d="M194.93,136.45l.32.09"/></g><g id="LWPOLYLINE-17" data-name="LWPOLYLINE"><polyline class="cls-5" points="201.63 146.82 201.77 146.09 201.84 145.73 201.92 145.1 201.98 144.57 202.03 144.11 202.06 143.63 202.08 143.12 202.1 142.65 202.1 142.41"/></g><g id="ARC-37" data-name="ARC"><path class="cls-5" d="M202.1,142.41a21.11,21.11,0,0,0-.47-4.41"/></g><g id="ARC-38" data-name="ARC"><path class="cls-5" d="M200,148.19a1.74,1.74,0,0,0,1.64-1.37"/></g><g id="ARC-39" data-name="ARC"><path class="cls-5" d="M201.63,138a1.73,1.73,0,0,0-1.64-1.37"/></g><g id="ARC-40" data-name="ARC"><path class="cls-5" d="M191.87,136.35a.17.17,0,0,0-.18.16h0"/></g><g id="ARC-41" data-name="ARC"><path class="cls-5" d="M191.69,148.3a.17.17,0,0,0,.17.17h0"/></g><g id="LINE-148" data-name="LINE"><line class="cls-5" x1="191.52" y1="144.19" x2="191.5" y2="144.18"/></g><g id="ARC-42" data-name="ARC"><path class="cls-5" d="M191.34,140.68a.41.41,0,0,0,.18-.05"/></g><g id="LINE-149" data-name="LINE"><line class="cls-5" x1="199.99" y1="148.19" x2="198.89" y2="148.23"/></g><g id="LINE-150" data-name="LINE"><line class="cls-5" x1="194.93" y1="148.37" x2="191.87" y2="148.47"/></g><g id="LINE-151" data-name="LINE"><line class="cls-5" x1="199.99" y1="136.63" x2="198.89" y2="136.59"/></g><g id="LINE-152" data-name="LINE"><line class="cls-5" x1="194.93" y1="136.45" x2="191.87" y2="136.35"/></g><g id="LINE-153" data-name="LINE"><line class="cls-5" x1="191.52" y1="142.41" x2="191.52" y2="138.85"/></g><g id="LINE-154" data-name="LINE"><line class="cls-5" x1="191.52" y1="145.96" x2="191.52" y2="142.41"/></g><g id="LINE-155" data-name="LINE"><line class="cls-5" x1="191.52" y1="138.85" x2="191.69" y2="138.85"/></g><g id="LINE-156" data-name="LINE"><line class="cls-5" x1="191.52" y1="145.96" x2="191.69" y2="145.96"/></g><g id="LINE-157" data-name="LINE"><line class="cls-5" x1="166.97" y1="56.22" x2="166.97" y2="54.83"/></g><g id="LINE-158" data-name="LINE"><line class="cls-5" x1="166.97" y1="57.6" x2="166.97" y2="56.22"/></g><g id="LINE-159" data-name="LINE"><line class="cls-5" x1="156.57" y1="56.22" x2="156.57" y2="54.83"/></g><g id="LINE-160" data-name="LINE"><line class="cls-5" x1="156.57" y1="57.6" x2="156.57" y2="56.22"/></g><g id="LINE-161" data-name="LINE"><line class="cls-5" x1="198.54" y1="148.16" x2="202.22" y2="212.52"/></g><g id="LINE-162" data-name="LINE"><line class="cls-5" x1="195.77" y1="148.17" x2="199.44" y2="212.52"/></g><g id="LWPOLYLINE-18" data-name="LWPOLYLINE"><polyline class="cls-5" points="198.62 136.65 198.69 135.36 198.73 134.49 198.76 133.6 198.76 133.15 198.76 132.7 198.74 132.25 198.72 131.8 198.68 131.34 198.63 130.88 198.56 130.43 198.48 129.97 198.38 129.52 198.26 129.08 198.13 128.63"/></g><g id="LWPOLYLINE-19" data-name="LWPOLYLINE"><polyline class="cls-5" points="195.84 136.66 195.91 135.34 195.96 134.48 195.98 133.65 195.99 133.24 195.99 132.84 195.98 132.44 195.95 132.05 195.92 131.66 195.88 131.28 195.82 130.91 195.76 130.54 195.68 130.18 195.59 129.83 195.48 129.48"/></g><g id="LINE-163" data-name="LINE"><line class="cls-5" x1="180.44" y1="73.14" x2="198.13" y2="128.63"/></g><g id="LINE-164" data-name="LINE"><line class="cls-5" x1="177.79" y1="73.98" x2="195.48" y2="129.48"/></g><g id="LWPOLYLINE-20" data-name="LWPOLYLINE"><polyline class="cls-5" points="180.44 73.14 179.76 71.04 179.31 69.66 178.83 68.28 178.59 67.59 178.34 66.89 178.08 66.19 177.81 65.5 177.53 64.8 177.24 64.11 176.94 63.42 176.62 62.73 176.29 62.05 175.94 61.38 175.56 60.7 175.36 60.37 175.15 60.05 174.94 59.72 174.73 59.4 174.5 59.09 174.27 58.78 174.03 58.48 173.78 58.18 173.53 57.89 173.26 57.61 172.98 57.33 172.7 57.06 172.4 56.81 172.09 56.56 171.77 56.33 171.44 56.11 171.1 55.91 170.76 55.72 170.41 55.55 170.05 55.4 169.68 55.26 169.31 55.15 168.93 55.05 168.55 54.97 168.15 54.91 167.76 54.86 167.37 54.84 166.97 54.83"/></g><g id="LWPOLYLINE-21" data-name="LWPOLYLINE"><polyline class="cls-5" points="177.79 73.98 177.13 71.9 176.68 70.54 176.22 69.19 175.98 68.52 175.74 67.85 175.49 67.18 175.23 66.51 174.96 65.85 174.69 65.2 174.41 64.56 174.12 63.92 173.81 63.3 173.49 62.7 173.16 62.1 172.81 61.53 172.63 61.26 172.45 60.99 172.26 60.73 172.07 60.47 171.88 60.23 171.68 59.99 171.48 59.76 171.28 59.54 171.07 59.33 170.85 59.13 170.63 58.95 170.41 58.77 170.18 58.6 169.96 58.45 169.73 58.32 169.5 58.19 169.26 58.08 169.03 57.98 168.78 57.89 168.54 57.81 168.3 57.75 168.04 57.7 167.78 57.65 167.52 57.63 167.25 57.61 166.97 57.6"/></g><g id="LINE-165" data-name="LINE"><line class="cls-5" x1="156.57" y1="54.83" x2="156.85" y2="54.83"/></g><g id="LWPOLYLINE-22" data-name="LWPOLYLINE"><polyline class="cls-5" points="156.57 54.83 156.29 54.83 156.01 54.85 155.73 54.88 155.46 54.93 155.18 54.98 154.9 55.05 154.63 55.13 154.35 55.21 154.09 55.31 153.82 55.42 153.57 55.54 153.32 55.67 153.07 55.8 152.82 55.94 152.58 56.09 152.34 56.25 152.12 56.42 151.88 56.59 151.66 56.77 151.44 56.95 151.22 57.14 151.01 57.34 150.81 57.54 150.61 57.75 150.42 57.96 150.23 58.17 150.05 58.39 149.87 58.61 149.7 58.84 149.54 59.07 149.38 59.31 149.22 59.55 149.07 59.8 148.93 60.05 148.8 60.3 148.68 60.56 148.56 60.83 148.45 61.09 148.34 61.36 148.25 61.63 148.17 61.9 148.1 62.17 148.04 62.45 147.99 62.72 147.95 63 147.92 63.28 147.91 63.57 147.9 63.85"/></g><g id="LWPOLYLINE-23" data-name="LWPOLYLINE"><polyline class="cls-5" points="156.57 57.6 156.41 57.6 156.25 57.62 156.09 57.63 155.94 57.66 155.77 57.69 155.61 57.73 155.44 57.78 155.27 57.83 155.1 57.9 154.93 57.97 154.6 58.13 154.26 58.32 153.92 58.53 153.58 58.78 153.25 59.05 152.93 59.34 152.63 59.65 152.34 59.97 152.07 60.31 151.82 60.65 151.59 61.01 151.37 61.37 151.19 61.74 151.03 62.11 150.9 62.47 150.8 62.82 150.76 62.99 150.73 63.17 150.71 63.34 150.69 63.51 150.68 63.68 150.67 63.85"/></g><g id="LINE-166" data-name="LINE"><line class="cls-5" x1="147.9" y1="67.66" x2="147.9" y2="63.85"/></g><g id="LINE-167" data-name="LINE"><line class="cls-5" x1="150.67" y1="67.66" x2="150.67" y2="63.85"/></g><g id="LINE-168" data-name="LINE"><line class="cls-5" x1="147.9" y1="116.23" x2="147.9" y2="67.66"/></g><g id="LINE-169" data-name="LINE"><line class="cls-5" x1="150.67" y1="116.23" x2="150.67" y2="67.66"/></g><g id="LINE-170" data-name="LINE"><line class="cls-5" x1="163.52" y1="59.16" x2="158.13" y2="59.16"/></g><g id="LINE-171" data-name="LINE"><line class="cls-5" x1="165.42" y1="59.16" x2="163.52" y2="59.16"/></g><g id="LINE-172" data-name="LINE"><line class="cls-5" x1="166.92" y1="52.23" x2="164.24" y2="52.23"/></g><g id="LINE-173" data-name="LINE"><line class="cls-5" x1="161.75" y1="52.23" x2="156.63" y2="52.23"/></g><g id="LWPOLYLINE-24" data-name="LWPOLYLINE"><polyline class="cls-5" points="156.57 57.6 156.69 57.26 156.75 57.03 156.81 56.76 156.87 56.46 156.9 56.23 156.92 55.99 156.93 55.72 156.92 55.45 156.9 55.18 156.88 54.98 156.85 54.8"/></g><g id="LWPOLYLINE-25" data-name="LWPOLYLINE"><polyline class="cls-5" points="156.85 54.8 156.78 54.47 156.73 54.27 156.63 53.96 156.57 53.79"/></g><g id="LWPOLYLINE-26" data-name="LWPOLYLINE"><polyline class="cls-5" points="156.57 53.79 156.64 53.97 156.73 54.3 156.78 54.5 156.85 54.83"/></g><g id="LWPOLYLINE-27" data-name="LWPOLYLINE"><polyline class="cls-5" points="156.74 53.96 156.8 54.19 156.86 54.44 156.89 54.59 156.93 54.83"/></g><g id="LWPOLYLINE-28" data-name="LWPOLYLINE"><polyline class="cls-5" points="166.97 53.79 166.91 53.97 166.81 54.3 166.76 54.5 166.69 54.83"/></g><g id="LWPOLYLINE-29" data-name="LWPOLYLINE"><polyline class="cls-5" points="166.8 53.96 166.74 54.19 166.69 54.44 166.65 54.59 166.62 54.83"/></g><g id="ARC-43" data-name="ARC"><path class="cls-5" d="M156.57,57.6a1.56,1.56,0,0,0,1.56,1.56"/></g><g id="LINE-174" data-name="LINE"><line class="cls-5" x1="166.92" y1="52.23" x2="166.97" y2="52.29"/></g><g id="ARC-44" data-name="ARC"><path class="cls-5" d="M165.42,59.16A1.55,1.55,0,0,0,167,57.6"/></g><g id="LINE-175" data-name="LINE"><line class="cls-5" x1="156.63" y1="52.23" x2="156.57" y2="52.29"/></g><g id="LINE-176" data-name="LINE"><line class="cls-5" x1="156.57" y1="53.79" x2="156.57" y2="52.29"/></g><g id="LINE-177" data-name="LINE"><line class="cls-5" x1="159.3" y1="47.02" x2="166.93" y2="47.02"/></g><g id="LINE-178" data-name="LINE"><line class="cls-5" x1="159.28" y1="47.07" x2="166.97" y2="47.07"/></g><g id="LINE-179" data-name="LINE"><line class="cls-5" x1="156.62" y1="47.02" x2="159.3" y2="47.02"/></g><g id="LINE-180" data-name="LINE"><line class="cls-5" x1="156.57" y1="47.07" x2="159.28" y2="47.07"/></g><g id="LINE-181" data-name="LINE"><line class="cls-5" x1="159.3" y1="52.23" x2="166.93" y2="52.23"/></g><g id="LINE-182" data-name="LINE"><line class="cls-5" x1="156.62" y1="52.23" x2="159.3" y2="52.23"/></g><g id="LINE-183" data-name="LINE"><line class="cls-5" x1="156.57" y1="52.18" x2="159.28" y2="52.18"/></g><g id="LINE-184" data-name="LINE"><line class="cls-5" x1="159.28" y1="52.18" x2="166.97" y2="52.18"/></g><g id="LWPOLYLINE-30" data-name="LWPOLYLINE"><polyline class="cls-5" points="161.12 50.75 161.19 50.85 161.26 50.94 161.35 51.01 161.45 51.07 161.56 51.11 161.68 51.13 161.8 51.14 161.91 51.13 162.03 51.09 162.14 51.05 162.23 50.98 162.32 50.9 162.39 50.8 162.45 50.7 162.48 50.59 162.5 50.48 162.5 50.33 162.49 50.26 162.47 50.19 162.45 50.12 162.42 50.06"/></g><g id="LWPOLYLINE-31" data-name="LWPOLYLINE"><polyline class="cls-5" points="162.42 50.06 162.36 49.96 162.28 49.88 162.19 49.8 162.09 49.74 161.98 49.7 161.87 49.68 161.75 49.67 161.63 49.68 161.51 49.72 161.41 49.77 161.31 49.83 161.23 49.91 161.16 50.01 161.1 50.11 161.06 50.22 161.04 50.33 161.04 50.48 161.05 50.55 161.07 50.62 161.09 50.69 161.12 50.75"/></g><g id="LINE-185" data-name="LINE"><line class="cls-5" x1="166.93" y1="47.02" x2="166.97" y2="47.07"/></g><g id="LINE-186" data-name="LINE"><line class="cls-5" x1="156.62" y1="47.02" x2="156.57" y2="47.07"/></g><g id="LINE-187" data-name="LINE"><line class="cls-5" x1="156.62" y1="52.23" x2="156.57" y2="52.18"/></g><g id="LINE-188" data-name="LINE"><line class="cls-5" x1="166.93" y1="52.23" x2="166.97" y2="52.18"/></g><g id="LINE-189" data-name="LINE"><line class="cls-5" x1="156.57" y1="47.07" x2="156.57" y2="52.18"/></g><g id="LINE-190" data-name="LINE"><line class="cls-5" x1="166.97" y1="47.07" x2="166.97" y2="52.18"/></g><g id="LINE-191" data-name="LINE"><line class="cls-5" x1="162.15" y1="50.28" x2="161.85" y2="50.01"/></g><g id="LINE-192" data-name="LINE"><line class="cls-5" x1="162.07" y1="50.67" x2="162.15" y2="50.28"/></g><g id="LINE-193" data-name="LINE"><line class="cls-5" x1="161.85" y1="50.01" x2="161.47" y2="50.14"/></g><g id="LINE-194" data-name="LINE"><line class="cls-5" x1="161.69" y1="50.8" x2="162.07" y2="50.67"/></g><g id="LINE-195" data-name="LINE"><line class="cls-5" x1="161.47" y1="50.14" x2="161.39" y2="50.53"/></g><g id="LINE-196" data-name="LINE"><line class="cls-5" x1="161.39" y1="50.53" x2="161.69" y2="50.8"/></g><g id="CIRCLE"><path class="cls-5" d="M162.36,50.4a.59.59,0,0,0-.59-.58.59.59,0,1,0,0,1.17.59.59,0,0,0,.59-.59Z"/></g></svg>