<svg id="Aoy" xmlns="http://www.w3.org/2000/svg" viewBox="0 0 300 263"><defs><style>.cls-1,.cls-2{fill:none;stroke:#000;stroke-width:0.5px;}.cls-1{stroke-linecap:round;stroke-linejoin:round;}.cls-3{isolation:isolate;}</style></defs><title>aoy-table-castiglioni-flos-F0200071-spech-tech-02-300x263-01</title><path class="cls-1" d="M107.22,50.12l.07,146.13s4.9,6.19,4.9,20.75h80.28V50.43Z"/><polygon class="cls-1" points="109.25 50.43 114.98 140.94 183.56 140.94 190.85 50.43 109.25 50.43"/><path class="cls-1" d="M143.71,48.11A10.28,10.28,0,0,1,150.07,46a11.72,11.72,0,0,1,6.66,2.11h-13"/><path class="cls-1" d="M192.13,48.12a1.07,1.07,0,0,1,1,1.17,1,1,0,0,1-1,1.15H107.89a1.1,1.1,0,0,1-.7-.29,1.19,1.19,0,0,1-.35-.92A1,1,0,0,1,108,48.12Zm.34,1.11H108"/><line class="cls-2" x1="109.1" y1="226.96" x2="190.9" y2="226.96"/><line class="cls-2" x1="109.1" y1="225.26" x2="109.1" y2="228.66"/><line class="cls-2" x1="190.9" y1="225.26" x2="190.9" y2="228.66"/><line class="cls-2" x1="98.57" y1="216.32" x2="98.57" y2="46.68"/><line class="cls-2" x1="96.87" y1="216.32" x2="100.27" y2="216.32"/><line class="cls-2" x1="96.87" y1="46.68" x2="100.27" y2="46.68"/><g class="cls-3"><path d="M120.54,241a3.67,3.67,0,0,1,.7,1.16,4.15,4.15,0,0,1,0,3,3.7,3.7,0,0,1-.85,1.25,4,4,0,0,1-1.3.82,4.78,4.78,0,0,1-3.13.07,3.82,3.82,0,0,1-1.15-.61l-1.11,1.09-.54-.49,1.1-1.09a3.45,3.45,0,0,1-.71-1.18,4,4,0,0,1-.25-1.43,4,4,0,0,1,.3-1.57,3.88,3.88,0,0,1,.86-1.25,3.94,3.94,0,0,1,1.3-.82,4.49,4.49,0,0,1,1.66-.3,4.72,4.72,0,0,1,1.44.22,4,4,0,0,1,1.2.62l1.09-1.09.54.49Zm-1.3.26a2.8,2.8,0,0,0-1.87-.63,2.92,2.92,0,0,0-1.22.24,2.6,2.6,0,0,0-.92.63,2.91,2.91,0,0,0-.58.94,3.24,3.24,0,0,0-.21,1.17,2.87,2.87,0,0,0,.57,1.82ZM115.51,246a2.88,2.88,0,0,0,.83.45,3.32,3.32,0,0,0,1,.16,3,3,0,0,0,1.22-.24,2.69,2.69,0,0,0,.92-.63,2.83,2.83,0,0,0,.59-.94,3.2,3.2,0,0,0,.21-1.17,3,3,0,0,0-.57-1.82Z"/><path d="M130.31,240.86h.61a4.62,4.62,0,0,0,1-.11,2.46,2.46,0,0,0,.82-.36,1.86,1.86,0,0,0,.56-.65,2.06,2.06,0,0,0,.21-1,1.81,1.81,0,0,0-.58-1.42,2.36,2.36,0,0,0-1.6-.5,2.62,2.62,0,0,0-1.31.32,2.44,2.44,0,0,0-.93.93L128,237.6a3.53,3.53,0,0,1,1.35-1.36,4,4,0,0,1,1.91-.44,4.33,4.33,0,0,1,1.31.2,3.09,3.09,0,0,1,1.08.56,2.8,2.8,0,0,1,.74.93,2.84,2.84,0,0,1,.27,1.26,2.37,2.37,0,0,1-.16.88,2.33,2.33,0,0,1-.43.75,2.74,2.74,0,0,1-.64.58,3,3,0,0,1-.76.38l.05,0a2.74,2.74,0,0,1,1.63,1,3,3,0,0,1,.46.86,3.1,3.1,0,0,1,.17,1,3.06,3.06,0,0,1-.3,1.39,3,3,0,0,1-.82,1,3.48,3.48,0,0,1-1.19.63,4.94,4.94,0,0,1-1.45.22A4.58,4.58,0,0,1,129,247a3.32,3.32,0,0,1-1.44-1.74l1.26-.37a2.41,2.41,0,0,0,.89,1.21,3,3,0,0,0,1.65.39,2.71,2.71,0,0,0,1-.16,2.49,2.49,0,0,0,.79-.46,2,2,0,0,0,.53-.71,2.37,2.37,0,0,0-.06-2,2,2,0,0,0-.66-.71,2.94,2.94,0,0,0-1-.39,5.13,5.13,0,0,0-1.12-.12h-.51Z"/><path d="M140.77,235.8a3.5,3.5,0,0,1,2,.56,3.9,3.9,0,0,1,1.21,1.43,6.13,6.13,0,0,1,.58,1.89,13.14,13.14,0,0,1,0,4,6.13,6.13,0,0,1-.58,1.89,3.9,3.9,0,0,1-1.21,1.43,3.5,3.5,0,0,1-2,.56,3.44,3.44,0,0,1-2-.56,3.8,3.8,0,0,1-1.21-1.43,6.14,6.14,0,0,1-.59-1.89,14.07,14.07,0,0,1,0-4,6.14,6.14,0,0,1,.59-1.89,3.8,3.8,0,0,1,1.21-1.43A3.44,3.44,0,0,1,140.77,235.8Zm0,1.06a2.21,2.21,0,0,0-1.52.5,3.14,3.14,0,0,0-.84,1.23,5.71,5.71,0,0,0-.35,1.57c-.05.55-.08,1.05-.08,1.5s0,1,.08,1.5a5.71,5.71,0,0,0,.35,1.57,3.14,3.14,0,0,0,.84,1.23,2.56,2.56,0,0,0,3,0,3.14,3.14,0,0,0,.84-1.23,5.71,5.71,0,0,0,.36-1.57c0-.55.07-1,.07-1.5s0-.95-.07-1.5a5.71,5.71,0,0,0-.36-1.57,3.14,3.14,0,0,0-.84-1.23A2.21,2.21,0,0,0,140.77,236.86Z"/><path d="M150,235.8a3.44,3.44,0,0,1,2,.56,3.8,3.8,0,0,1,1.21,1.43,6.14,6.14,0,0,1,.59,1.89,13.14,13.14,0,0,1,0,4,6.14,6.14,0,0,1-.59,1.89,3.8,3.8,0,0,1-1.21,1.43,3.44,3.44,0,0,1-2,.56,3.5,3.5,0,0,1-2-.56,3.9,3.9,0,0,1-1.21-1.43,6.13,6.13,0,0,1-.58-1.89,13.14,13.14,0,0,1,0-4,6.13,6.13,0,0,1,.58-1.89,3.9,3.9,0,0,1,1.21-1.43A3.5,3.5,0,0,1,150,235.8Zm0,1.06a2.21,2.21,0,0,0-1.52.5,3.14,3.14,0,0,0-.84,1.23,5.71,5.71,0,0,0-.36,1.57c0,.55-.07,1.05-.07,1.5s0,1,.07,1.5a5.71,5.71,0,0,0,.36,1.57,3.14,3.14,0,0,0,.84,1.23,2.56,2.56,0,0,0,3,0,3.14,3.14,0,0,0,.84-1.23,5.71,5.71,0,0,0,.35-1.57c.05-.55.08-1,.08-1.5s0-.95-.08-1.5a5.71,5.71,0,0,0-.35-1.57,3.14,3.14,0,0,0-.84-1.23A2.21,2.21,0,0,0,150,236.86Z"/><path d="M160.44,241.5c0-.28,0-.55,0-.83l-.06-.83h1.18V241h0a2.57,2.57,0,0,1,1.1-1,3.35,3.35,0,0,1,1.41-.34,4.13,4.13,0,0,1,.67.07,2.44,2.44,0,0,1,.69.23,2.26,2.26,0,0,1,.62.47,2.47,2.47,0,0,1,.49.79,2.59,2.59,0,0,1,1.06-1.14,3.28,3.28,0,0,1,3.71.34,3,3,0,0,1,.72,2.17v4.75h-1.1V243a3.08,3.08,0,0,0-.42-1.75,1.74,1.74,0,0,0-1.54-.61,2,2,0,0,0-1,.24,1.88,1.88,0,0,0-.67.61,2.84,2.84,0,0,0-.38.87,4.9,4.9,0,0,0-.11,1v4h-1.1V243a3.17,3.17,0,0,0-.41-1.75,1.78,1.78,0,0,0-1.55-.61c-.07,0-.22,0-.46.07a1.83,1.83,0,0,0-.74.35,2.71,2.71,0,0,0-.69.86,3.53,3.53,0,0,0-.3,1.6v3.84h-1.1Z"/><path d="M174.59,241.5c0-.28,0-.55,0-.83l-.06-.83h1.18V241h0a2.6,2.6,0,0,1,1.11-1,3.31,3.31,0,0,1,1.4-.34,4,4,0,0,1,.67.07,2.44,2.44,0,0,1,.69.23,2.3,2.3,0,0,1,.63.47,2.88,2.88,0,0,1,.49.79,2.51,2.51,0,0,1,1-1.14,3,3,0,0,1,1.51-.42,2.9,2.9,0,0,1,2.2.76,3,3,0,0,1,.72,2.17v4.75h-1.1V243a3.17,3.17,0,0,0-.41-1.75,1.76,1.76,0,0,0-1.55-.61,2,2,0,0,0-1,.24,2,2,0,0,0-.67.61,2.6,2.6,0,0,0-.37.87,4.31,4.31,0,0,0-.12,1v4h-1.1V243a3.08,3.08,0,0,0-.41-1.75,1.76,1.76,0,0,0-1.55-.61l-.45.07a1.72,1.72,0,0,0-.74.35,2.46,2.46,0,0,0-.69.86,3.4,3.4,0,0,0-.31,1.6v3.84h-1.1Z"/></g><g class="cls-3"><path d="M83.7,160.37l0,0a2,2,0,0,1-.29-.72,4.46,4.46,0,0,1-.09-.84,3.63,3.63,0,0,1,.26-1.37,3.33,3.33,0,0,1,1.83-1.83,3.8,3.8,0,0,1,1.41-.26,3.68,3.68,0,0,1,1.43.27,3.27,3.27,0,0,1,1.1.77,3.49,3.49,0,0,1,.72,1.17,4.29,4.29,0,0,1,0,2.94,3.49,3.49,0,0,1-.72,1.17,3.27,3.27,0,0,1-1.1.77,3.68,3.68,0,0,1-1.43.27,4.39,4.39,0,0,1-1.65-.28,9.53,9.53,0,0,1-1.39-.7l-5-3.05v-1.36Zm3.15,1.15a2.46,2.46,0,0,0,1-.19,2.18,2.18,0,0,0,.78-.52,2.13,2.13,0,0,0,.5-.8,2.8,2.8,0,0,0,.18-1,2.9,2.9,0,0,0-.18-1,2.25,2.25,0,0,0-1.28-1.31,2.67,2.67,0,0,0-2,0,2.06,2.06,0,0,0-.77.52,2.47,2.47,0,0,0-.5.79,2.7,2.7,0,0,0-.19,1,2.61,2.61,0,0,0,.19,1,2.41,2.41,0,0,0,.5.8,2.06,2.06,0,0,0,.77.52A2.46,2.46,0,0,0,86.85,161.52Z"/><path d="M78.64,150.09a3.26,3.26,0,0,1,.56-2A3.77,3.77,0,0,1,80.63,147a6,6,0,0,1,1.89-.56,13.82,13.82,0,0,1,2-.15,13.58,13.58,0,0,1,2,.15,6.17,6.17,0,0,1,1.9.56,3.66,3.66,0,0,1,1.42,1.16,3.69,3.69,0,0,1,0,3.94,3.78,3.78,0,0,1-1.42,1.17,6.45,6.45,0,0,1-1.9.56,13.53,13.53,0,0,1-2,.14,13.76,13.76,0,0,1-2-.14,6.3,6.3,0,0,1-1.89-.56,3.89,3.89,0,0,1-1.43-1.17A3.24,3.24,0,0,1,78.64,150.09Zm1.06,0a2,2,0,0,0,.5,1.47,3.19,3.19,0,0,0,1.23.81,6.09,6.09,0,0,0,1.57.34c.55,0,1,.07,1.5.07s1,0,1.5-.07a6.09,6.09,0,0,0,1.57-.34,3.19,3.19,0,0,0,1.23-.81,2.09,2.09,0,0,0,.5-1.47,2.07,2.07,0,0,0-.5-1.46,3.08,3.08,0,0,0-1.23-.81,6.09,6.09,0,0,0-1.57-.34c-.55,0-1-.07-1.5-.07s-1,0-1.5.07a6.09,6.09,0,0,0-1.57.34,3.08,3.08,0,0,0-1.23.81A2,2,0,0,0,79.7,150.09Z"/><path d="M78.64,141.2a3.24,3.24,0,0,1,.56-2,3.89,3.89,0,0,1,1.43-1.17,6.3,6.3,0,0,1,1.89-.56,15.36,15.36,0,0,1,2-.14,15.09,15.09,0,0,1,2,.14,6.45,6.45,0,0,1,1.9.56,3.78,3.78,0,0,1,1.42,1.17,3.69,3.69,0,0,1,0,3.94,3.66,3.66,0,0,1-1.42,1.16,6.17,6.17,0,0,1-1.9.56,13.58,13.58,0,0,1-2,.15,13.82,13.82,0,0,1-2-.15,6,6,0,0,1-1.89-.56,3.77,3.77,0,0,1-1.43-1.16A3.26,3.26,0,0,1,78.64,141.2Zm1.06,0a2,2,0,0,0,.5,1.46,3.08,3.08,0,0,0,1.23.81,5.7,5.7,0,0,0,1.57.34c.55.05,1,.08,1.5.08s1,0,1.5-.08a5.7,5.7,0,0,0,1.57-.34,3.08,3.08,0,0,0,1.23-.81,2.07,2.07,0,0,0,.5-1.46,2.09,2.09,0,0,0-.5-1.47,3.17,3.17,0,0,0-1.23-.8,5.71,5.71,0,0,0-1.57-.35c-.55-.05-1-.07-1.5-.07s-1,0-1.5.07a5.71,5.71,0,0,0-1.57.35,3.17,3.17,0,0,0-1.23.8A2,2,0,0,0,79.7,141.2Z"/><path d="M84.34,131.15l-.83,0-.84.06v-1.14h1.14v0a2.41,2.41,0,0,1-1-1.06,2.91,2.91,0,0,1-.27-2,2.42,2.42,0,0,1,.23-.67,2.34,2.34,0,0,1,.47-.6,2.58,2.58,0,0,1,.79-.47,2.43,2.43,0,0,1-1.14-1,3.07,3.07,0,0,1,.34-3.58,3.12,3.12,0,0,1,2.17-.69h4.75V121H85.79a3.16,3.16,0,0,0-1.74.4,1.65,1.65,0,0,0-.61,1.49,2,2,0,0,0,.23,1,2.14,2.14,0,0,0,.62.65,3.07,3.07,0,0,0,.87.36,4.9,4.9,0,0,0,1,.11h4v1H85.79a3.25,3.25,0,0,0-1.74.4,1.68,1.68,0,0,0-.61,1.49,2.52,2.52,0,0,0,.07.44,1.62,1.62,0,0,0,.35.71,2.55,2.55,0,0,0,.86.67,3.55,3.55,0,0,0,1.6.29h3.84v1.06Z"/><path d="M84.34,117.52l-.83,0-.84.06v-1.14h1.14v0a2.47,2.47,0,0,1-1-1.06,2.91,2.91,0,0,1-.27-2,2.42,2.42,0,0,1,.23-.67,2.34,2.34,0,0,1,.47-.6,2.58,2.58,0,0,1,.79-.47,2.4,2.4,0,0,1-1.14-1,2.73,2.73,0,0,1-.42-1.44,2.76,2.76,0,0,1,.76-2.13,3.12,3.12,0,0,1,2.17-.69h4.75v1.06H85.79a3.16,3.16,0,0,0-1.74.4,1.65,1.65,0,0,0-.61,1.48,2,2,0,0,0,.23,1,2,2,0,0,0,.62.64,2.58,2.58,0,0,0,.87.36,4.31,4.31,0,0,0,1,.12h4v1H85.79a3.25,3.25,0,0,0-1.74.4,1.67,1.67,0,0,0-.61,1.49,2.67,2.67,0,0,0,.07.44,1.62,1.62,0,0,0,.35.71,2.55,2.55,0,0,0,.86.67,3.69,3.69,0,0,0,1.6.29h3.84v1.06Z"/></g></svg>