<svg xmlns="http://www.w3.org/2000/svg" viewBox="0 0 300 263"><defs><style>.cls-1,.cls-2,.cls-3,.cls-4,.cls-5{fill:none;stroke-linecap:round;}.cls-1,.cls-2,.cls-5{stroke:red;}.cls-1,.cls-2,.cls-4,.cls-5{stroke-linejoin:round;}.cls-1{stroke-width:0.6px;}.cls-3,.cls-4{stroke:#000;}.cls-3{stroke-miterlimit:10;}.cls-3,.cls-4,.cls-5{stroke-width:0.6px;}</style></defs><title>arco-led-floor-castiglioni-flos-F0303000-curva-fotometrica</title><g id="numeri_esterni_diagramma" data-name="numeri esterni diagramma"><path d="M249.93,137.18h0a1.24,1.24,0,0,1-.37.12,1.84,1.84,0,0,1-.39,0,1.91,1.91,0,0,1-.68-.12,1.58,1.58,0,0,1-.54-.37,1.63,1.63,0,0,1-.36-.56,2.05,2.05,0,0,1-.13-.72,1.79,1.79,0,0,1,.15-.75,1.48,1.48,0,0,1,.4-.55,1.79,1.79,0,0,1,.6-.35,2,2,0,0,1,.75-.13,2.11,2.11,0,0,1,.75.13,1.79,1.79,0,0,1,.6.35,1.59,1.59,0,0,1,.4.55,1.79,1.79,0,0,1,.14.75,2.15,2.15,0,0,1,0,.45,1.68,1.68,0,0,1-.11.4,2.59,2.59,0,0,1-.17.38l-.21.36-1.51,2.39h-.78Zm-.59-.42a1.28,1.28,0,0,0,.48-.09,1,1,0,0,0,.39-.24,1.23,1.23,0,0,0,.26-.37,1.43,1.43,0,0,0,0-1,1.1,1.1,0,0,0-.65-.62,1.48,1.48,0,0,0-1,0,1.28,1.28,0,0,0-.39.24,1.12,1.12,0,0,0-.26.38,1.3,1.3,0,0,0,0,1,1.08,1.08,0,0,0,.26.37,1,1,0,0,0,.39.24A1.28,1.28,0,0,0,249.34,136.76Z"/><path d="M251.82,136.71a7.07,7.07,0,0,1,.08-1,3.19,3.19,0,0,1,.29-1,2,2,0,0,1,.59-.7,1.54,1.54,0,0,1,1-.28,1.49,1.49,0,0,1,.95.28,1.91,1.91,0,0,1,.59.7,2.94,2.94,0,0,1,.3,1,6.29,6.29,0,0,1,0,2,2.94,2.94,0,0,1-.3.95,1.91,1.91,0,0,1-.59.7,1.49,1.49,0,0,1-.95.28,1.54,1.54,0,0,1-1-.28,2,2,0,0,1-.59-.7,3.19,3.19,0,0,1-.29-.95A7.07,7.07,0,0,1,251.82,136.71Zm.67,0c0,.14,0,.29,0,.46a4.6,4.6,0,0,0,.06.52,4.7,4.7,0,0,0,.12.51,2,2,0,0,0,.23.44,1,1,0,0,0,.34.31,1,1,0,0,0,.48.11,1.06,1.06,0,0,0,.48-.11,1.24,1.24,0,0,0,.34-.31,1.65,1.65,0,0,0,.22-.44,3.18,3.18,0,0,0,.13-.51,4.6,4.6,0,0,0,.06-.52c0-.17,0-.32,0-.46s0-.29,0-.46a4.6,4.6,0,0,0-.06-.52,3.18,3.18,0,0,0-.13-.51,1.65,1.65,0,0,0-.22-.44,1.24,1.24,0,0,0-.34-.31,1.06,1.06,0,0,0-.48-.11,1,1,0,0,0-.48.11,1,1,0,0,0-.34.31,2,2,0,0,0-.23.44,4.7,4.7,0,0,0-.12.51,4.6,4.6,0,0,0-.06.52C252.5,136.42,252.49,136.57,252.49,136.71Z"/><path d="M256.42,134.93a1.13,1.13,0,0,1,.09-.45,1.31,1.31,0,0,1,.24-.37,1.18,1.18,0,0,1,.37-.24,1,1,0,0,1,.44-.09,1.13,1.13,0,0,1,.45.09,1.06,1.06,0,0,1,.61.61,1.13,1.13,0,0,1,.09.45,1,1,0,0,1-.09.44,1.06,1.06,0,0,1-.61.61,1.13,1.13,0,0,1-.45.09,1,1,0,0,1-.44-.09,1.18,1.18,0,0,1-.37-.24,1.31,1.31,0,0,1-.24-.37A1,1,0,0,1,256.42,134.93Zm.43,0a.69.69,0,0,0,0,.24,1,1,0,0,0,.15.24.73.73,0,0,0,.51.23.54.54,0,0,0,.29-.07.63.63,0,0,0,.23-.16.72.72,0,0,0,.14-.24.52.52,0,0,0,0-.24.56.56,0,0,0,0-.25.59.59,0,0,0-.14-.23.74.74,0,0,0-.52-.24.73.73,0,0,0-.29.07.62.62,0,0,0-.22.17.76.76,0,0,0-.15.23A.74.74,0,0,0,256.85,134.93Z"/><path d="M41.57,137.18h0a1.34,1.34,0,0,1-.37.12,2,2,0,0,1-.39,0,1.92,1.92,0,0,1-.69-.12,1.58,1.58,0,0,1-.54-.37,1.8,1.8,0,0,1-.36-.56,2.05,2.05,0,0,1-.13-.72,1.79,1.79,0,0,1,.15-.75,1.48,1.48,0,0,1,.4-.55,1.79,1.79,0,0,1,.6-.35,2.23,2.23,0,0,1,1.5,0,1.79,1.79,0,0,1,.6.35,1.48,1.48,0,0,1,.4.55,1.79,1.79,0,0,1,.15.75,3.14,3.14,0,0,1,0,.45,2.34,2.34,0,0,1-.12.4,1.84,1.84,0,0,1-.17.38,3.35,3.35,0,0,1-.21.36l-1.5,2.39h-.79Zm-.59-.42a1.28,1.28,0,0,0,.48-.09,1,1,0,0,0,.39-.24,1.23,1.23,0,0,0,.26-.37,1.3,1.3,0,0,0,0-1,1.1,1.1,0,0,0-.65-.62,1.48,1.48,0,0,0-1,0,1.1,1.1,0,0,0-.65.62,1.43,1.43,0,0,0,0,1,1.23,1.23,0,0,0,.26.37,1,1,0,0,0,.39.24A1.28,1.28,0,0,0,41,136.76Z"/><path d="M43.46,136.71a7.07,7.07,0,0,1,.08-1,2.94,2.94,0,0,1,.3-1,1.91,1.91,0,0,1,.59-.7,1.49,1.49,0,0,1,1-.28,1.54,1.54,0,0,1,1,.28,2,2,0,0,1,.59.7,3.19,3.19,0,0,1,.29,1,6.29,6.29,0,0,1,0,2,3.19,3.19,0,0,1-.29.95,2,2,0,0,1-.59.7,1.54,1.54,0,0,1-1,.28,1.49,1.49,0,0,1-1-.28,1.91,1.91,0,0,1-.59-.7,2.94,2.94,0,0,1-.3-.95A7.07,7.07,0,0,1,43.46,136.71Zm.67,0c0,.14,0,.29,0,.46a4.6,4.6,0,0,0,.06.52,3.18,3.18,0,0,0,.13.51,1.65,1.65,0,0,0,.22.44,1.12,1.12,0,0,0,.34.31,1.1,1.1,0,0,0,1,0,1.12,1.12,0,0,0,.34-.31,2,2,0,0,0,.23-.44,4.7,4.7,0,0,0,.12-.51,4.6,4.6,0,0,0,.06-.52c0-.17,0-.32,0-.46s0-.29,0-.46a4.6,4.6,0,0,0-.06-.52,4.7,4.7,0,0,0-.12-.51,2,2,0,0,0-.23-.44,1.12,1.12,0,0,0-.34-.31,1.1,1.1,0,0,0-1,0,1.12,1.12,0,0,0-.34.31,1.65,1.65,0,0,0-.22.44,3.18,3.18,0,0,0-.13.51,4.6,4.6,0,0,0-.06.52C44.14,136.42,44.13,136.57,44.13,136.71Z"/><path d="M48.06,134.93a1.13,1.13,0,0,1,.09-.45,1.06,1.06,0,0,1,.61-.61,1.13,1.13,0,0,1,.45-.09,1.08,1.08,0,0,1,.44.09,1.06,1.06,0,0,1,.61.61,1.13,1.13,0,0,1,.09.45,1,1,0,0,1-.09.44,1.06,1.06,0,0,1-.61.61,1.08,1.08,0,0,1-.44.09,1.13,1.13,0,0,1-.45-.09,1.06,1.06,0,0,1-.61-.61A1,1,0,0,1,48.06,134.93Zm.43,0a.53.53,0,0,0,.06.24.72.72,0,0,0,.14.24.69.69,0,0,0,.22.16.6.6,0,0,0,.3.07.73.73,0,0,0,.51-.23,1,1,0,0,0,.15-.24.69.69,0,0,0,.05-.24.74.74,0,0,0-.05-.25.76.76,0,0,0-.15-.23.62.62,0,0,0-.22-.17.73.73,0,0,0-.29-.07.73.73,0,0,0-.3.07.72.72,0,0,0-.22.17.59.59,0,0,0-.14.23A.57.57,0,0,0,48.49,134.93Z"/><path d="M148.37,38.51h-.68v-4.8h0l-1,.85-.4-.48,1.52-1.24h.59Z"/><path d="M150.49,34.23a1.48,1.48,0,0,1,.13-.61,1.2,1.2,0,0,1,.34-.46,1.44,1.44,0,0,1,.51-.3,1.92,1.92,0,0,1,1.28,0,1.44,1.44,0,0,1,.51.3,1.2,1.2,0,0,1,.34.46,1.33,1.33,0,0,1,.13.61,1.16,1.16,0,0,1-.07.4,1.41,1.41,0,0,1-.18.37,1.33,1.33,0,0,1-.29.29,1.18,1.18,0,0,1-.39.19h0a1.44,1.44,0,0,1,.46.19,1.35,1.35,0,0,1,.35.32,1.42,1.42,0,0,1,.23.44,1.7,1.7,0,0,1,.08.51,1.74,1.74,0,0,1-.14.69,1.43,1.43,0,0,1-.39.52,1.47,1.47,0,0,1-.57.33,2.35,2.35,0,0,1-1.42,0,1.47,1.47,0,0,1-.57-.33,1.55,1.55,0,0,1-.39-.52,1.74,1.74,0,0,1-.14-.69,1.7,1.7,0,0,1,.08-.51,1.67,1.67,0,0,1,.23-.44,1.35,1.35,0,0,1,.35-.32,1.44,1.44,0,0,1,.46-.19h0a1.18,1.18,0,0,1-.39-.19,1.33,1.33,0,0,1-.29-.29,1.41,1.41,0,0,1-.18-.37A1.46,1.46,0,0,1,150.49,34.23ZM151,36.9a1.18,1.18,0,0,0,.09.46,1.07,1.07,0,0,0,.25.35,1,1,0,0,0,.36.23,1.12,1.12,0,0,0,.88,0,1,1,0,0,0,.36-.23,1.07,1.07,0,0,0,.25-.35,1.18,1.18,0,0,0,.09-.46,1.14,1.14,0,0,0-.09-.46,1.13,1.13,0,0,0-.61-.58,1.12,1.12,0,0,0-.88,0,1.13,1.13,0,0,0-.61.58A1.14,1.14,0,0,0,151,36.9Zm.2-2.64a.88.88,0,0,0,.26.67,1,1,0,0,0,1.36,0,1,1,0,0,0,0-1.34,1,1,0,0,0-1.36,0A.88.88,0,0,0,151.17,34.26Z"/><path d="M154.64,35.68a7,7,0,0,1,.08-1,3.1,3.1,0,0,1,.29-1,2,2,0,0,1,.59-.71,1.6,1.6,0,0,1,1-.27,1.55,1.55,0,0,1,.95.27,1.94,1.94,0,0,1,.59.71,2.86,2.86,0,0,1,.3,1,7,7,0,0,1,.08,1,7.07,7.07,0,0,1-.08,1,2.88,2.88,0,0,1-.3.94,1.94,1.94,0,0,1-.59.71,1.55,1.55,0,0,1-.95.27,1.6,1.6,0,0,1-1-.27,2,2,0,0,1-.59-.71,3.13,3.13,0,0,1-.29-.94A7.07,7.07,0,0,1,154.64,35.68Zm.67,0c0,.13,0,.29,0,.46a4.88,4.88,0,0,0,.06.52,4.05,4.05,0,0,0,.12.5,1.66,1.66,0,0,0,.23.44,1.12,1.12,0,0,0,.34.31,1,1,0,0,0,1,0,1.12,1.12,0,0,0,.34-.31,1.4,1.4,0,0,0,.22-.44,2.83,2.83,0,0,0,.13-.5,4.88,4.88,0,0,0,.06-.52c0-.17,0-.33,0-.46s0-.3,0-.47a4.43,4.43,0,0,0-.06-.51,2.72,2.72,0,0,0-.13-.51,1.51,1.51,0,0,0-.22-.44,1.12,1.12,0,0,0-.34-.31,1,1,0,0,0-1,0,1.12,1.12,0,0,0-.34.31,1.83,1.83,0,0,0-.23.44,3.81,3.81,0,0,0-.12.51,4.43,4.43,0,0,0-.06.51C155.32,35.38,155.31,35.54,155.31,35.68Z"/><path d="M159.24,33.89a1.15,1.15,0,0,1,.33-.81,1,1,0,0,1,.37-.24,1,1,0,0,1,.44-.09,1.15,1.15,0,0,1,.82,2,1.15,1.15,0,0,1-.37.25,1.13,1.13,0,0,1-.45.09,1.15,1.15,0,0,1-.81-.34,1.15,1.15,0,0,1-.33-.81Zm.43,0a.79.79,0,0,0,.05.25,1.14,1.14,0,0,0,.15.23.62.62,0,0,0,.22.17.72.72,0,0,0,.29.06.68.68,0,0,0,.52-.23.79.79,0,0,0,.14-.23.65.65,0,0,0,0-.5.79.79,0,0,0-.14-.23.81.81,0,0,0-.23-.17.65.65,0,0,0-.29-.06.72.72,0,0,0-.29.06.76.76,0,0,0-.22.17,1.14,1.14,0,0,0-.15.23A.79.79,0,0,0,159.67,33.89Z"/><path d="M148.27,239.2a6.85,6.85,0,0,1,.08-1,3.41,3.41,0,0,1,.3-.95,1.94,1.94,0,0,1,.59-.71,1.57,1.57,0,0,1,.95-.27,1.6,1.6,0,0,1,1,.27,2,2,0,0,1,.59.71,3.1,3.1,0,0,1,.29.95,5.7,5.7,0,0,1,.08,1,5.85,5.85,0,0,1-.08,1,3.13,3.13,0,0,1-.29.94,2,2,0,0,1-.59.71,1.6,1.6,0,0,1-1,.27,1.57,1.57,0,0,1-.95-.27,1.94,1.94,0,0,1-.59-.71,3.45,3.45,0,0,1-.3-.94A7.07,7.07,0,0,1,148.27,239.2Zm.68,0c0,.13,0,.29,0,.46a4.88,4.88,0,0,0,.06.52,2.83,2.83,0,0,0,.13.5,1.65,1.65,0,0,0,.22.44,1.24,1.24,0,0,0,.34.31,1,1,0,0,0,.48.12.9.9,0,0,0,.48-.12,1,1,0,0,0,.34-.31,1.41,1.41,0,0,0,.23-.44,4.07,4.07,0,0,0,.13-.5c0-.18,0-.35.06-.52s0-.33,0-.46,0-.3,0-.47,0-.34-.06-.51a3.8,3.8,0,0,0-.13-.51,1.53,1.53,0,0,0-.23-.44,1,1,0,0,0-.34-.31.9.9,0,0,0-.48-.12,1,1,0,0,0-.48.12,1.24,1.24,0,0,0-.34.31,1.81,1.81,0,0,0-.22.44,2.72,2.72,0,0,0-.13.51,4.43,4.43,0,0,0-.06.51C149,238.9,149,239.06,149,239.2Z"/><path d="M152.83,237.41a1.33,1.33,0,0,1,.08-.45,1.11,1.11,0,0,1,.25-.36,1,1,0,0,1,.36-.24,1.17,1.17,0,0,1,.9,0,1,1,0,0,1,.36.24,1.11,1.11,0,0,1,.25.36,1.31,1.31,0,0,1,0,.9,1.23,1.23,0,0,1-.61.61,1.17,1.17,0,0,1-.9,0,1.23,1.23,0,0,1-.61-.61A1.33,1.33,0,0,1,152.83,237.41Zm.43,0a.79.79,0,0,0,.05.25.68.68,0,0,0,.14.23.66.66,0,0,0,.23.17.73.73,0,0,0,.58,0,.76.76,0,0,0,.23-.17.88.88,0,0,0,.14-.23.65.65,0,0,0,0-.5,1.09,1.09,0,0,0-.14-.23,1,1,0,0,0-.23-.17.73.73,0,0,0-.58,0,.81.81,0,0,0-.23.17.75.75,0,0,0-.19.48Z"/><path d="M203.17,238.76h.21l.43,0a1.15,1.15,0,0,0,.42-.13.77.77,0,0,0,.31-.31.94.94,0,0,0,.13-.51.87.87,0,0,0-.27-.68,1,1,0,0,0-.7-.26,1.28,1.28,0,0,0-.63.16,1.14,1.14,0,0,0-.41.48l-.65-.25a1.48,1.48,0,0,1,.65-.72,2.07,2.07,0,0,1,1-.24,2.25,2.25,0,0,1,.64.09,1.72,1.72,0,0,1,.54.28,1.37,1.37,0,0,1,.37.46,1.48,1.48,0,0,1,.14.65,1.29,1.29,0,0,1-.27.8,1.34,1.34,0,0,1-.7.49v0a1.48,1.48,0,0,1,.85.49,1.37,1.37,0,0,1,.23.43,1.69,1.69,0,0,1,.08.5,1.66,1.66,0,0,1-.15.72,1.57,1.57,0,0,1-.41.51,1.71,1.71,0,0,1-.6.31,2.34,2.34,0,0,1-.71.1,2.18,2.18,0,0,1-1.13-.28,1.61,1.61,0,0,1-.7-.91l.68-.22a1.33,1.33,0,0,0,.41.65,1.3,1.3,0,0,0,.74.19,1.33,1.33,0,0,0,.45-.08,1.11,1.11,0,0,0,.36-.23,1.24,1.24,0,0,0,.25-.35,1.13,1.13,0,0,0,.09-.45,1.07,1.07,0,0,0-.12-.53,1,1,0,0,0-.33-.33,1.23,1.23,0,0,0-.46-.18,2.31,2.31,0,0,0-.52-.06h-.21Z"/><path d="M206.24,239.2a6.85,6.85,0,0,1,.08-1,3.11,3.11,0,0,1,.3-.95,1.94,1.94,0,0,1,.59-.71,1.55,1.55,0,0,1,.95-.27,1.6,1.6,0,0,1,1,.27,2,2,0,0,1,.59.71,3.1,3.1,0,0,1,.29.95,5.7,5.7,0,0,1,.08,1,5.85,5.85,0,0,1-.08,1,3.13,3.13,0,0,1-.29.94,2,2,0,0,1-.59.71,1.6,1.6,0,0,1-1,.27,1.55,1.55,0,0,1-.95-.27,1.94,1.94,0,0,1-.59-.71,3.14,3.14,0,0,1-.3-.94A7.07,7.07,0,0,1,206.24,239.2Zm.67,0c0,.13,0,.29,0,.46a4.88,4.88,0,0,0,.06.52,2.83,2.83,0,0,0,.13.5,1.4,1.4,0,0,0,.22.44,1.24,1.24,0,0,0,.34.31,1,1,0,0,0,.48.12.9.9,0,0,0,.48-.12,1,1,0,0,0,.34-.31,1.41,1.41,0,0,0,.23-.44,4.05,4.05,0,0,0,.12-.5,4.88,4.88,0,0,0,.06-.52,3.86,3.86,0,0,0,0-.46,3.94,3.94,0,0,0,0-.47,4.43,4.43,0,0,0-.06-.51,3.81,3.81,0,0,0-.12-.51,1.53,1.53,0,0,0-.23-.44,1,1,0,0,0-.34-.31.9.9,0,0,0-.48-.12,1,1,0,0,0-.48.12,1.24,1.24,0,0,0-.34.31,1.51,1.51,0,0,0-.22.44,2.72,2.72,0,0,0-.13.51,4.43,4.43,0,0,0-.06.51C206.92,238.9,206.91,239.06,206.91,239.2Z"/><path d="M210.84,237.41a1.13,1.13,0,0,1,.09-.45,1.26,1.26,0,0,1,.24-.36,1.2,1.2,0,0,1,.82-.33,1,1,0,0,1,.44.09,1.12,1.12,0,0,1,.37.24,1.26,1.26,0,0,1,.24.36,1.16,1.16,0,0,1-.24,1.26,1.15,1.15,0,0,1-.37.25,1,1,0,0,1-.44.09,1.13,1.13,0,0,1-.45-.09,1.15,1.15,0,0,1-.37-.25,1.15,1.15,0,0,1-.33-.81Zm.43,0a.61.61,0,0,0,.06.25.68.68,0,0,0,.14.23.72.72,0,0,0,.22.17.73.73,0,0,0,.3.06.72.72,0,0,0,.29-.06.62.62,0,0,0,.22-.17.91.91,0,0,0,.15-.23.65.65,0,0,0,0-.5,1.14,1.14,0,0,0-.15-.23.76.76,0,0,0-.22-.17.72.72,0,0,0-.29-.06.73.73,0,0,0-.3.06.92.92,0,0,0-.22.17.79.79,0,0,0-.14.23A.61.61,0,0,0,211.27,237.41Z"/><path d="M93.6,238.76h.21l.44,0a1.1,1.1,0,0,0,.41-.13.86.86,0,0,0,.32-.31.94.94,0,0,0,.12-.51.87.87,0,0,0-.27-.68,1,1,0,0,0-.7-.26,1.21,1.21,0,0,0-.62.16,1.1,1.1,0,0,0-.42.48l-.65-.25a1.45,1.45,0,0,1,.66-.72,2,2,0,0,1,1-.24,2.32,2.32,0,0,1,.65.09,2,2,0,0,1,.54.28,1.67,1.67,0,0,1,.37.46,1.48,1.48,0,0,1,.13.65,1.29,1.29,0,0,1-.27.8,1.34,1.34,0,0,1-.7.49v0a1.31,1.31,0,0,1,.49.18,1.34,1.34,0,0,1,.36.31,1.37,1.37,0,0,1,.23.43,1.42,1.42,0,0,1,.08.5,1.66,1.66,0,0,1-.15.72,1.57,1.57,0,0,1-.41.51,1.75,1.75,0,0,1-.59.31,2.46,2.46,0,0,1-.72.1,2.18,2.18,0,0,1-1.13-.28,1.56,1.56,0,0,1-.69-.91l.68-.22a1.2,1.2,0,0,0,.41.65,1.27,1.27,0,0,0,.73.19,1.33,1.33,0,0,0,.45-.08,1.11,1.11,0,0,0,.36-.23,1.07,1.07,0,0,0,.25-.35,1.13,1.13,0,0,0,.09-.45,1.07,1.07,0,0,0-.12-.53.87.87,0,0,0-.33-.33,1.17,1.17,0,0,0-.46-.18,2.24,2.24,0,0,0-.52-.06H93.6Z"/><path d="M96.68,239.2a5.7,5.7,0,0,1,.08-1,3.1,3.1,0,0,1,.29-.95,2,2,0,0,1,.59-.71,1.6,1.6,0,0,1,1-.27,1.57,1.57,0,0,1,1,.27,1.94,1.94,0,0,1,.59.71,3.41,3.41,0,0,1,.3.95,6.85,6.85,0,0,1,.08,1,7.07,7.07,0,0,1-.08,1,3.45,3.45,0,0,1-.3.94,1.94,1.94,0,0,1-.59.71,1.57,1.57,0,0,1-1,.27,1.6,1.6,0,0,1-1-.27,2,2,0,0,1-.59-.71,3.13,3.13,0,0,1-.29-.94A5.85,5.85,0,0,1,96.68,239.2Zm.67,0c0,.13,0,.29,0,.46a4.88,4.88,0,0,0,.06.52,4.07,4.07,0,0,0,.13.5,1.41,1.41,0,0,0,.23.44,1,1,0,0,0,.34.31.9.9,0,0,0,.48.12,1,1,0,0,0,.48-.12,1.24,1.24,0,0,0,.34-.31,1.65,1.65,0,0,0,.22-.44,2.83,2.83,0,0,0,.13-.5,4.88,4.88,0,0,0,.06-.52c0-.17,0-.33,0-.46s0-.3,0-.47a4.43,4.43,0,0,0-.06-.51,2.72,2.72,0,0,0-.13-.51,1.81,1.81,0,0,0-.22-.44,1.24,1.24,0,0,0-.34-.31,1,1,0,0,0-.48-.12.9.9,0,0,0-.48.12,1,1,0,0,0-.34.31,1.53,1.53,0,0,0-.23.44,3.8,3.8,0,0,0-.13.51,4.43,4.43,0,0,0-.06.51C97.35,238.9,97.35,239.06,97.35,239.2Z"/><path d="M101.28,237.41a1.33,1.33,0,0,1,.08-.45,1.11,1.11,0,0,1,.25-.36,1,1,0,0,1,.36-.24,1.17,1.17,0,0,1,.9,0,1,1,0,0,1,.36.24,1.11,1.11,0,0,1,.25.36,1.31,1.31,0,0,1,0,.9,1.23,1.23,0,0,1-.61.61,1.17,1.17,0,0,1-.9,0,1.23,1.23,0,0,1-.61-.61A1.33,1.33,0,0,1,101.28,237.41Zm.43,0a.79.79,0,0,0,.05.25.68.68,0,0,0,.14.23.76.76,0,0,0,.23.17.73.73,0,0,0,.58,0,.66.66,0,0,0,.23-.17.68.68,0,0,0,.14-.23.71.71,0,0,0-.14-.73.81.81,0,0,0-.23-.17.73.73,0,0,0-.58,0,1,1,0,0,0-.23.17.75.75,0,0,0-.19.48Z"/><path d="M203.18,38.51h-.68v-4.8h0l-1,.85-.4-.48,1.52-1.24h.59Z"/><path d="M208.49,33.47h-2.31l0,1.53a1.08,1.08,0,0,1,.36-.11l.37,0a2,2,0,0,1,.74.14,1.61,1.61,0,0,1,.57.39,1.9,1.9,0,0,1,.37.59,2,2,0,0,1,.13.74,2,2,0,0,1-.15.78,1.74,1.74,0,0,1-.41.59,1.91,1.91,0,0,1-.61.38,2.2,2.2,0,0,1-.78.13,1.73,1.73,0,0,1-1-.28,2,2,0,0,1-.63-.75l.67-.25a1.31,1.31,0,0,0,.42.51,1.1,1.1,0,0,0,.64.2,1.28,1.28,0,0,0,.48-.09,1.26,1.26,0,0,0,.38-.27,1.15,1.15,0,0,0,.26-.41,1.53,1.53,0,0,0,.1-.54,1.38,1.38,0,0,0-.11-.55,1.08,1.08,0,0,0-.3-.4,1.26,1.26,0,0,0-.44-.25,1.67,1.67,0,0,0-.55-.08,1.84,1.84,0,0,0-.6.1,2.58,2.58,0,0,0-.56.25l.06-2.95h3Z"/><path d="M209.45,35.68a7,7,0,0,1,.08-1,3.1,3.1,0,0,1,.29-1,2,2,0,0,1,.59-.71,1.6,1.6,0,0,1,1-.27,1.55,1.55,0,0,1,.95.27,1.94,1.94,0,0,1,.59.71,2.86,2.86,0,0,1,.3,1,7,7,0,0,1,.08,1,7.07,7.07,0,0,1-.08,1,2.88,2.88,0,0,1-.3.94,1.94,1.94,0,0,1-.59.71,1.55,1.55,0,0,1-.95.27,1.6,1.6,0,0,1-1-.27,2,2,0,0,1-.59-.71,3.13,3.13,0,0,1-.29-.94A7.07,7.07,0,0,1,209.45,35.68Zm.67,0c0,.13,0,.29,0,.46a4.88,4.88,0,0,0,.06.52,4.05,4.05,0,0,0,.12.5,1.66,1.66,0,0,0,.23.44,1,1,0,0,0,.34.31.9.9,0,0,0,.48.12,1,1,0,0,0,.48-.12,1.24,1.24,0,0,0,.34-.31,1.4,1.4,0,0,0,.22-.44,2.83,2.83,0,0,0,.13-.5,4.88,4.88,0,0,0,.06-.52c0-.17,0-.33,0-.46s0-.3,0-.47a4.43,4.43,0,0,0-.06-.51,2.72,2.72,0,0,0-.13-.51,1.51,1.51,0,0,0-.22-.44,1.24,1.24,0,0,0-.34-.31,1,1,0,0,0-.48-.12.9.9,0,0,0-.48.12,1,1,0,0,0-.34.31,1.83,1.83,0,0,0-.23.44,3.81,3.81,0,0,0-.12.51,4.43,4.43,0,0,0-.06.51C210.13,35.38,210.12,35.54,210.12,35.68Z"/><path d="M214.05,33.89a1.15,1.15,0,0,1,.33-.81,1,1,0,0,1,.37-.24,1,1,0,0,1,.44-.09,1.13,1.13,0,0,1,.45.09,1,1,0,0,1,.36.24,1,1,0,0,1,.25.36,1.17,1.17,0,0,1,0,.9,1.23,1.23,0,0,1-.61.61,1.13,1.13,0,0,1-.45.09,1.15,1.15,0,0,1-.81-.34,1.15,1.15,0,0,1-.33-.81Zm.43,0a.79.79,0,0,0,.05.25,1.14,1.14,0,0,0,.15.23.62.62,0,0,0,.22.17.72.72,0,0,0,.29.06.68.68,0,0,0,.52-.23.79.79,0,0,0,.14-.23.65.65,0,0,0,0-.5.79.79,0,0,0-.14-.23.81.81,0,0,0-.23-.17.65.65,0,0,0-.29-.06.72.72,0,0,0-.29.06.76.76,0,0,0-.22.17,1.14,1.14,0,0,0-.15.23A.79.79,0,0,0,214.48,33.89Z"/><path d="M93.61,38.51h-.67v-4.8h0l-1,.85-.4-.48L93,32.84h.58Z"/><path d="M98.92,33.47H96.61l0,1.53a1,1,0,0,1,.35-.11l.37,0a1.91,1.91,0,0,1,.74.14,1.65,1.65,0,0,1,.58.39A1.71,1.71,0,0,1,99,36a2,2,0,0,1,.13.74,2,2,0,0,1-.15.78,1.71,1.71,0,0,1-.4.59,2,2,0,0,1-.62.38,2.15,2.15,0,0,1-.77.13,1.78,1.78,0,0,1-1.05-.28,1.85,1.85,0,0,1-.62-.75l.67-.25a1.16,1.16,0,0,0,.42.51,1.05,1.05,0,0,0,.63.2,1.28,1.28,0,0,0,.48-.09,1.23,1.23,0,0,0,.64-.68,1.33,1.33,0,0,0,.1-.54,1.38,1.38,0,0,0-.11-.55,1.18,1.18,0,0,0-.29-.4,1.41,1.41,0,0,0-.45-.25,1.63,1.63,0,0,0-.55-.08,1.78,1.78,0,0,0-.59.1,2.58,2.58,0,0,0-.56.25l0-2.95h3Z"/><path d="M99.88,35.68a7,7,0,0,1,.08-1,3.11,3.11,0,0,1,.3-1,1.94,1.94,0,0,1,.59-.71,1.55,1.55,0,0,1,1-.27,1.6,1.6,0,0,1,1,.27,2,2,0,0,1,.59.71,3.1,3.1,0,0,1,.29,1,5.77,5.77,0,0,1,.08,1,5.85,5.85,0,0,1-.08,1,3.13,3.13,0,0,1-.29.94,2,2,0,0,1-.59.71,1.6,1.6,0,0,1-1,.27,1.55,1.55,0,0,1-1-.27,1.94,1.94,0,0,1-.59-.71,3.14,3.14,0,0,1-.3-.94A7.07,7.07,0,0,1,99.88,35.68Zm.67,0c0,.13,0,.29,0,.46a4.88,4.88,0,0,0,.06.52,2.83,2.83,0,0,0,.13.5,1.4,1.4,0,0,0,.22.44,1.24,1.24,0,0,0,.34.31,1,1,0,0,0,.48.12.9.9,0,0,0,.48-.12,1,1,0,0,0,.34-.31,1.41,1.41,0,0,0,.23-.44,4.05,4.05,0,0,0,.12-.5,4.88,4.88,0,0,0,.06-.52c0-.17,0-.33,0-.46s0-.3,0-.47a4.43,4.43,0,0,0-.06-.51,3.81,3.81,0,0,0-.12-.51,1.53,1.53,0,0,0-.23-.44,1,1,0,0,0-.34-.31.9.9,0,0,0-.48-.12,1,1,0,0,0-.48.12,1.24,1.24,0,0,0-.34.31,1.51,1.51,0,0,0-.22.44,2.72,2.72,0,0,0-.13.51,4.43,4.43,0,0,0-.06.51C100.56,35.38,100.55,35.54,100.55,35.68Z"/><path d="M104.48,33.89a1.15,1.15,0,0,1,1.15-1.14,1,1,0,0,1,.44.09,1.12,1.12,0,0,1,.37.24,1.16,1.16,0,0,1,0,1.62,1.15,1.15,0,0,1-.37.25,1,1,0,0,1-.44.09,1.13,1.13,0,0,1-.45-.09,1.15,1.15,0,0,1-.37-.25,1.15,1.15,0,0,1-.33-.81Zm.43,0a.61.61,0,0,0,.06.25.79.79,0,0,0,.14.23.72.72,0,0,0,.22.17.73.73,0,0,0,.3.06.72.72,0,0,0,.29-.06.62.62,0,0,0,.22-.17,1.14,1.14,0,0,0,.15-.23.65.65,0,0,0,0-.5,1.14,1.14,0,0,0-.15-.23.76.76,0,0,0-.22-.17.72.72,0,0,0-.29-.06.73.73,0,0,0-.3.06.92.92,0,0,0-.22.17.79.79,0,0,0-.14.23A.61.61,0,0,0,104.91,33.89Z"/><path d="M248.75,192.45v0a1.35,1.35,0,0,1,.37-.13,2,2,0,0,1,.39,0,1.73,1.73,0,0,1,.69.13,1.42,1.42,0,0,1,.54.36,1.85,1.85,0,0,1,.36.57,2,2,0,0,1,.12.72,1.78,1.78,0,0,1-.14.74,1.74,1.74,0,0,1-.4.56,2,2,0,0,1-.6.35,2.36,2.36,0,0,1-.75.12,2.27,2.27,0,0,1-.75-.12,2,2,0,0,1-.6-.35,1.6,1.6,0,0,1-.4-.56,1.78,1.78,0,0,1-.15-.74,2.24,2.24,0,0,1,.15-.86,5.28,5.28,0,0,1,.39-.74l1.5-2.39h.79Zm.59.43a1.23,1.23,0,0,0-.87.32,1,1,0,0,0-.26.38,1.31,1.31,0,0,0-.1.5,1.35,1.35,0,0,0,.1.5,1.08,1.08,0,0,0,.26.37,1,1,0,0,0,.39.24,1.32,1.32,0,0,0,1,0,1,1,0,0,0,.39-.24,1.23,1.23,0,0,0,.26-.37,1.35,1.35,0,0,0,.09-.5,1.31,1.31,0,0,0-.09-.5,1.16,1.16,0,0,0-.26-.38,1.23,1.23,0,0,0-.87-.32Z"/><path d="M251.82,192.92a7.07,7.07,0,0,1,.08-1,3.13,3.13,0,0,1,.29-.94,2,2,0,0,1,.59-.71,1.6,1.6,0,0,1,1-.27,1.55,1.55,0,0,1,.95.27,1.94,1.94,0,0,1,.59.71,2.88,2.88,0,0,1,.3.94,7.07,7.07,0,0,1,.08,1,7,7,0,0,1-.08,1,2.86,2.86,0,0,1-.3,1,1.94,1.94,0,0,1-.59.71,1.55,1.55,0,0,1-.95.27,1.6,1.6,0,0,1-1-.27,2,2,0,0,1-.59-.71,3.1,3.1,0,0,1-.29-1A7,7,0,0,1,251.82,192.92Zm.67,0c0,.14,0,.3,0,.47a4.43,4.43,0,0,0,.06.51,3.81,3.81,0,0,0,.12.51,1.83,1.83,0,0,0,.23.44,1,1,0,0,0,.34.31.9.9,0,0,0,.48.12,1,1,0,0,0,.48-.12,1.24,1.24,0,0,0,.34-.31,1.51,1.51,0,0,0,.22-.44,2.72,2.72,0,0,0,.13-.51,4.43,4.43,0,0,0,.06-.51c0-.17,0-.33,0-.47s0-.29,0-.46a4.88,4.88,0,0,0-.06-.52,2.83,2.83,0,0,0-.13-.5,1.4,1.4,0,0,0-.22-.44,1.1,1.1,0,0,0-.34-.31,1,1,0,0,0-.48-.12.9.9,0,0,0-.48.12.92.92,0,0,0-.34.31,1.66,1.66,0,0,0-.23.44,4.05,4.05,0,0,0-.12.5,4.88,4.88,0,0,0-.06.52C252.5,192.63,252.49,192.79,252.49,192.92Z"/><path d="M256.42,191.14a1.15,1.15,0,0,1,.33-.81,1.05,1.05,0,0,1,.37-.25,1.23,1.23,0,0,1,.44-.08,1.33,1.33,0,0,1,.45.08,1.15,1.15,0,0,1,.37.25,1.16,1.16,0,0,1,0,1.62,1.15,1.15,0,0,1-.37.25,1.33,1.33,0,0,1-.45.08,1.23,1.23,0,0,1-.44-.08,1.05,1.05,0,0,1-.37-.25,1.15,1.15,0,0,1-.33-.81Zm.43,0a.79.79,0,0,0,0,.25,1.14,1.14,0,0,0,.15.23.62.62,0,0,0,.22.17.72.72,0,0,0,.29.06.68.68,0,0,0,.52-.23.79.79,0,0,0,.14-.23.65.65,0,0,0,0-.5.79.79,0,0,0-.14-.23.68.68,0,0,0-.52-.23.72.72,0,0,0-.29.06.62.62,0,0,0-.22.17,1.14,1.14,0,0,0-.15.23A.79.79,0,0,0,256.85,191.14Z"/><path d="M250,81.22h-.67v-4.8h0l-1,.86-.4-.49,1.52-1.23H250Z"/><path d="M251.92,80.45l2.13-2.08c.13-.12.25-.24.35-.35a2.16,2.16,0,0,0,.25-.32,1.09,1.09,0,0,0,.15-.33,1.38,1.38,0,0,0,0-.37,1,1,0,0,0-.08-.4.84.84,0,0,0-.22-.3.78.78,0,0,0-.33-.19,1.05,1.05,0,0,0-.4-.07,1,1,0,0,0-.71.25,1.08,1.08,0,0,0-.36.65l-.73-.06a1.83,1.83,0,0,1,.21-.61,1.41,1.41,0,0,1,.39-.45,2,2,0,0,1,.53-.27,2.25,2.25,0,0,1,.64-.09,2.41,2.41,0,0,1,.67.1,1.92,1.92,0,0,1,.55.29,1.44,1.44,0,0,1,.51,1.15,2,2,0,0,1-.09.61,2,2,0,0,1-.25.5,3.47,3.47,0,0,1-.35.43l-.41.4-1.75,1.64v0h2.89v.62h-3.64Z"/><path d="M256.27,78.39a5.85,5.85,0,0,1,.08-1,3.19,3.19,0,0,1,.29-1,2,2,0,0,1,.59-.7,1.54,1.54,0,0,1,1-.28,1.51,1.51,0,0,1,.95.28,1.91,1.91,0,0,1,.59.7,3.2,3.2,0,0,1,.3,1,6.29,6.29,0,0,1,0,2,3.2,3.2,0,0,1-.3,1,1.91,1.91,0,0,1-.59.7,1.51,1.51,0,0,1-.95.28,1.54,1.54,0,0,1-1-.28,2,2,0,0,1-.59-.7,3.19,3.19,0,0,1-.29-1A5.85,5.85,0,0,1,256.27,78.39Zm.67,0a3.78,3.78,0,0,0,0,.46c0,.17,0,.35.05.52a4.77,4.77,0,0,0,.13.51,1.67,1.67,0,0,0,.23.44,1,1,0,0,0,.34.31,1,1,0,0,0,.48.11,1.06,1.06,0,0,0,.48-.11,1.24,1.24,0,0,0,.34-.31,2,2,0,0,0,.22-.44,3.18,3.18,0,0,0,.13-.51,4.6,4.6,0,0,0,.06-.52c0-.17,0-.32,0-.46s0-.29,0-.46a4.35,4.35,0,0,0-.06-.52,3.18,3.18,0,0,0-.13-.51,2,2,0,0,0-.22-.44,1.24,1.24,0,0,0-.34-.31,1.06,1.06,0,0,0-.48-.11,1,1,0,0,0-.48.11,1,1,0,0,0-.34.31,1.67,1.67,0,0,0-.23.44,4.77,4.77,0,0,0-.13.51c0,.17,0,.34-.05.52A3.78,3.78,0,0,0,256.94,78.39Z"/><path d="M260.87,76.61a1.13,1.13,0,0,1,.09-.45,1,1,0,0,1,.24-.37,1.16,1.16,0,0,1,1.62,0,1.15,1.15,0,0,1,.25.37,1.13,1.13,0,0,1,.09.45,1,1,0,0,1-.09.44,1.15,1.15,0,0,1-.25.37,1.16,1.16,0,0,1-1.62,0,1,1,0,0,1-.24-.37A1,1,0,0,1,260.87,76.61Zm.43,0a.69.69,0,0,0,.05.24.75.75,0,0,0,.15.24.6.6,0,0,0,.22.16.64.64,0,0,0,.58,0,.63.63,0,0,0,.23-.16.72.72,0,0,0,.14-.24.52.52,0,0,0,.05-.24.56.56,0,0,0-.05-.25.59.59,0,0,0-.14-.23.66.66,0,0,0-.23-.17.64.64,0,0,0-.58,0,.62.62,0,0,0-.22.17.61.61,0,0,0-.15.23A.74.74,0,0,0,261.3,76.61Z"/><path d="M40.39,192.45v0a1.42,1.42,0,0,1,.38-.13,1.84,1.84,0,0,1,.39,0,1.72,1.72,0,0,1,.68.13,1.42,1.42,0,0,1,.54.36,1.85,1.85,0,0,1,.36.57,2,2,0,0,1,.13.72,1.78,1.78,0,0,1-.15.74,1.6,1.6,0,0,1-.4.56,2,2,0,0,1-.6.35,2.4,2.4,0,0,1-1.5,0,2,2,0,0,1-.6-.35,1.6,1.6,0,0,1-.4-.56,1.78,1.78,0,0,1-.15-.74,2.24,2.24,0,0,1,.16-.86,5.19,5.19,0,0,1,.38-.74l1.5-2.39h.79Zm.59.43a1.23,1.23,0,0,0-.87.32,1.16,1.16,0,0,0-.26.38,1.31,1.31,0,0,0-.09.5,1.35,1.35,0,0,0,.09.5,1.23,1.23,0,0,0,.26.37,1,1,0,0,0,.39.24,1.32,1.32,0,0,0,1,0,1,1,0,0,0,.39-.24,1.23,1.23,0,0,0,.26-.37,1.35,1.35,0,0,0,.1-.5,1.31,1.31,0,0,0-.1-.5,1.16,1.16,0,0,0-.26-.38,1.23,1.23,0,0,0-.87-.32Z"/><path d="M43.46,192.92a7.07,7.07,0,0,1,.08-1,2.88,2.88,0,0,1,.3-.94,1.94,1.94,0,0,1,.59-.71,1.55,1.55,0,0,1,1-.27,1.6,1.6,0,0,1,1,.27,2,2,0,0,1,.59.71,3.13,3.13,0,0,1,.29.94,7.07,7.07,0,0,1,.08,1,7,7,0,0,1-.08,1,3.1,3.1,0,0,1-.29,1,2,2,0,0,1-.59.71,1.6,1.6,0,0,1-1,.27,1.55,1.55,0,0,1-1-.27,1.94,1.94,0,0,1-.59-.71,2.86,2.86,0,0,1-.3-1A7,7,0,0,1,43.46,192.92Zm.67,0c0,.14,0,.3,0,.47a4.43,4.43,0,0,0,.06.51,2.72,2.72,0,0,0,.13.51,1.51,1.51,0,0,0,.22.44,1.12,1.12,0,0,0,.34.31,1,1,0,0,0,1,0,1.12,1.12,0,0,0,.34-.31,1.83,1.83,0,0,0,.23-.44,3.81,3.81,0,0,0,.12-.51,4.43,4.43,0,0,0,.06-.51c0-.17,0-.33,0-.47s0-.29,0-.46a4.88,4.88,0,0,0-.06-.52,4.05,4.05,0,0,0-.12-.5,1.66,1.66,0,0,0-.23-.44,1,1,0,0,0-.34-.31,1,1,0,0,0-1,0,1,1,0,0,0-.34.31,1.4,1.4,0,0,0-.22.44,2.83,2.83,0,0,0-.13.5,4.88,4.88,0,0,0-.06.52C44.14,192.63,44.13,192.79,44.13,192.92Z"/><path d="M48.06,191.14a1.15,1.15,0,0,1,.33-.81,1.15,1.15,0,0,1,.37-.25,1.33,1.33,0,0,1,.45-.08,1.27,1.27,0,0,1,.44.08,1.15,1.15,0,0,1,.37.25A1.16,1.16,0,0,1,50,192a1.15,1.15,0,0,1-.37.25,1.27,1.27,0,0,1-.44.08,1.33,1.33,0,0,1-.45-.08,1.15,1.15,0,0,1-.37-.25,1.15,1.15,0,0,1-.33-.81Zm.43,0a.61.61,0,0,0,.06.25.79.79,0,0,0,.14.23.72.72,0,0,0,.22.17.73.73,0,0,0,.3.06.72.72,0,0,0,.29-.06.62.62,0,0,0,.22-.17,1.14,1.14,0,0,0,.15-.23.65.65,0,0,0,0-.5,1.14,1.14,0,0,0-.15-.23.62.62,0,0,0-.22-.17.72.72,0,0,0-.29-.06.73.73,0,0,0-.3.06.72.72,0,0,0-.22.17.79.79,0,0,0-.14.23A.61.61,0,0,0,48.49,191.14Z"/><path d="M39.15,81.22h-.67v-4.8h0l-1,.86-.4-.49,1.52-1.23h.58Z"/><path d="M41.07,80.45l2.14-2.08c.13-.12.25-.24.35-.35a2.16,2.16,0,0,0,.25-.32,1.09,1.09,0,0,0,.15-.33A1.38,1.38,0,0,0,44,77a1,1,0,0,0-.08-.4.84.84,0,0,0-.22-.3.78.78,0,0,0-.33-.19A1.05,1.05,0,0,0,43,76a1,1,0,0,0-.72.25,1.19,1.19,0,0,0-.36.65l-.72-.06a1.47,1.47,0,0,1,.21-.61,1.41,1.41,0,0,1,.39-.45,2,2,0,0,1,.53-.27,2.2,2.2,0,0,1,.64-.09,2.41,2.41,0,0,1,.67.1,2.06,2.06,0,0,1,.55.29,1.47,1.47,0,0,1,.37.48,1.6,1.6,0,0,1,.14.67,2,2,0,0,1-.09.61,2.34,2.34,0,0,1-.25.5,3.47,3.47,0,0,1-.35.43l-.41.4-1.75,1.64v0h2.89v.62H41.07Z"/><path d="M45.43,78.39a7,7,0,0,1,.07-1,3.52,3.52,0,0,1,.3-1,2,2,0,0,1,.59-.7,1.77,1.77,0,0,1,1.91,0,1.91,1.91,0,0,1,.59.7,3.52,3.52,0,0,1,.3,1,6.29,6.29,0,0,1,0,2,3.52,3.52,0,0,1-.3,1,1.91,1.91,0,0,1-.59.7,1.77,1.77,0,0,1-1.91,0,2,2,0,0,1-.59-.7,3.52,3.52,0,0,1-.3-1A7,7,0,0,1,45.43,78.39Zm.67,0c0,.14,0,.29,0,.46a4.6,4.6,0,0,0,.06.52,4.77,4.77,0,0,0,.13.51,2,2,0,0,0,.22.44,1.15,1.15,0,0,0,.35.31,1,1,0,0,0,.48.11,1.06,1.06,0,0,0,.48-.11,1.24,1.24,0,0,0,.34-.31,2,2,0,0,0,.22-.44,3.18,3.18,0,0,0,.13-.51,4.6,4.6,0,0,0,.06-.52c0-.17,0-.32,0-.46s0-.29,0-.46a4.35,4.35,0,0,0-.06-.52,3.18,3.18,0,0,0-.13-.51,2,2,0,0,0-.22-.44,1.24,1.24,0,0,0-.34-.31,1.06,1.06,0,0,0-.48-.11,1,1,0,0,0-.48.11,1.15,1.15,0,0,0-.35.31,2,2,0,0,0-.22.44,4.77,4.77,0,0,0-.13.51,4.35,4.35,0,0,0-.06.52C46.1,78.1,46.1,78.25,46.1,78.39Z"/><path d="M50,76.61a1.12,1.12,0,0,1,.08-.45,1.15,1.15,0,0,1,.25-.37,1.16,1.16,0,0,1,1.62,0,1.15,1.15,0,0,1,.25.37,1.33,1.33,0,0,1,.08.45,1.23,1.23,0,0,1-.08.44,1.15,1.15,0,0,1-.25.37,1.16,1.16,0,0,1-1.62,0,1.15,1.15,0,0,1-.25-.37A1,1,0,0,1,50,76.61Zm.43,0a.52.52,0,0,0,0,.24.72.72,0,0,0,.14.24.63.63,0,0,0,.23.16.64.64,0,0,0,.58,0,.73.73,0,0,0,.23-.16,1,1,0,0,0,.14-.24.69.69,0,0,0,.05-.24.75.75,0,0,0-.19-.48.76.76,0,0,0-.23-.17.64.64,0,0,0-.58,0,.66.66,0,0,0-.23.17.59.59,0,0,0-.14.23A.56.56,0,0,0,50.46,76.61Z"/></g><g id="numeri_fondo_tabella" data-name="numeri fondo tabella"><path d="M131.83,251.42a1.17,1.17,0,0,0-.43-.35,1.19,1.19,0,0,0-.51-.11,1.35,1.35,0,0,0-.55.11,1.08,1.08,0,0,0-.4.3,1.32,1.32,0,0,0-.23.44,1.76,1.76,0,0,0,0,1.08,1.43,1.43,0,0,0,.26.45,1.31,1.31,0,0,0,.39.3,1.27,1.27,0,0,0,.52.1,1.09,1.09,0,0,0,1-.46l.47.44a1.69,1.69,0,0,1-.64.46,2.29,2.29,0,0,1-.78.14,2.22,2.22,0,0,1-.79-.14,1.75,1.75,0,0,1-1-1,2.27,2.27,0,0,1,0-1.57,1.86,1.86,0,0,1,.39-.63,2,2,0,0,1,.61-.41,2,2,0,0,1,.79-.15,2.09,2.09,0,0,1,.79.15,1.59,1.59,0,0,1,.65.45Z"/><path d="M136.21,253.56h0a1.43,1.43,0,0,1-.55.54,1.7,1.7,0,0,1-.89.22,1.8,1.8,0,0,1-.73-.15,1.78,1.78,0,0,1-.6-.41,1.81,1.81,0,0,1-.39-.62,2.06,2.06,0,0,1-.15-.79,2,2,0,0,1,.15-.78,1.88,1.88,0,0,1,.4-.63,1.81,1.81,0,0,1,.62-.41,2.07,2.07,0,0,1,.8-.15,1.72,1.72,0,0,1,.75.17,1.78,1.78,0,0,1,.59.47h0v-2.84h.62v6h-.62Zm0-1.21a1.63,1.63,0,0,0-.09-.55,1.34,1.34,0,0,0-.27-.44,1.37,1.37,0,0,0-.42-.29,1.35,1.35,0,0,0-.55-.11,1.42,1.42,0,0,0-.55.11,1.22,1.22,0,0,0-.41.29,1.34,1.34,0,0,0-.27.44,1.56,1.56,0,0,0,0,1.1,1.25,1.25,0,0,0,.27.44,1.19,1.19,0,0,0,1,.4,1.35,1.35,0,0,0,.55-.1,1.6,1.6,0,0,0,.42-.3,1.25,1.25,0,0,0,.27-.44A1.63,1.63,0,0,0,136.21,252.35Z"/><path d="M140.1,254.57l-.5-.2,2.4-6.15.51.2Z"/><path d="M147.64,254.22H147v-4.8h0l-1,.86-.4-.49,1.52-1.23h.59Z"/><path d="M149.46,251.39a7.07,7.07,0,0,1,.08-1,3.19,3.19,0,0,1,.29-.95,2,2,0,0,1,.59-.7,1.61,1.61,0,0,1,1-.28,1.55,1.55,0,0,1,1,.28,1.91,1.91,0,0,1,.59.7,2.94,2.94,0,0,1,.3.95,6.29,6.29,0,0,1,0,2,2.94,2.94,0,0,1-.3,1,1.91,1.91,0,0,1-.59.7,1.49,1.49,0,0,1-1,.28,1.54,1.54,0,0,1-1-.28,2,2,0,0,1-.59-.7,3.19,3.19,0,0,1-.29-1A7.07,7.07,0,0,1,149.46,251.39Zm.67,0c0,.14,0,.29,0,.47a4.43,4.43,0,0,0,.06.51,4.7,4.7,0,0,0,.12.51,2,2,0,0,0,.23.44,1.12,1.12,0,0,0,.34.31,1.1,1.1,0,0,0,1,0,1.12,1.12,0,0,0,.34-.31,1.65,1.65,0,0,0,.22-.44,3.18,3.18,0,0,0,.13-.51,4.43,4.43,0,0,0,.06-.51c0-.18,0-.33,0-.47s0-.29,0-.46a4.6,4.6,0,0,0-.06-.52,3.18,3.18,0,0,0-.13-.51,1.65,1.65,0,0,0-.22-.44,1.08,1.08,0,0,0-.34-.3,1,1,0,0,0-1,0,1.08,1.08,0,0,0-.34.3,2,2,0,0,0-.23.44,4.7,4.7,0,0,0-.12.51,4.6,4.6,0,0,0-.06.52C150.14,251.1,150.13,251.25,150.13,251.39Z"/><path d="M153.91,251.39a5.85,5.85,0,0,1,.08-1,3.19,3.19,0,0,1,.29-.95,2,2,0,0,1,.59-.7,1.61,1.61,0,0,1,1-.28,1.55,1.55,0,0,1,.95.28,1.91,1.91,0,0,1,.59.7,3.2,3.2,0,0,1,.3.95,6.29,6.29,0,0,1,0,2,3.2,3.2,0,0,1-.3,1,1.91,1.91,0,0,1-.59.7,1.49,1.49,0,0,1-.95.28,1.54,1.54,0,0,1-1-.28,2,2,0,0,1-.59-.7,3.19,3.19,0,0,1-.29-1A5.85,5.85,0,0,1,153.91,251.39Zm.67,0a4,4,0,0,0,0,.47,4.43,4.43,0,0,0,.06.51,3.14,3.14,0,0,0,.12.51,1.67,1.67,0,0,0,.23.44,1,1,0,0,0,.34.31.9.9,0,0,0,.48.11,1,1,0,0,0,.48-.11,1.24,1.24,0,0,0,.34-.31,1.65,1.65,0,0,0,.22-.44,3.18,3.18,0,0,0,.13-.51,4.43,4.43,0,0,0,.06-.51c0-.18,0-.33,0-.47s0-.29,0-.46a4.6,4.6,0,0,0-.06-.52,3.18,3.18,0,0,0-.13-.51,1.65,1.65,0,0,0-.22-.44,1.21,1.21,0,0,0-.34-.3,1,1,0,0,0-.48-.12.9.9,0,0,0-.48.12,1,1,0,0,0-.34.3,1.67,1.67,0,0,0-.23.44,3.14,3.14,0,0,0-.12.51,4.6,4.6,0,0,0-.06.52A3.78,3.78,0,0,0,154.58,251.39Z"/><path d="M158.31,251.39a5.85,5.85,0,0,1,.08-1,3.19,3.19,0,0,1,.29-.95,2,2,0,0,1,.59-.7,1.61,1.61,0,0,1,1-.28,1.55,1.55,0,0,1,1,.28,1.91,1.91,0,0,1,.59.7,3.2,3.2,0,0,1,.3.95,6.29,6.29,0,0,1,0,2,3.2,3.2,0,0,1-.3,1,1.91,1.91,0,0,1-.59.7,1.49,1.49,0,0,1-1,.28,1.54,1.54,0,0,1-1-.28,2,2,0,0,1-.59-.7,3.19,3.19,0,0,1-.29-1A5.85,5.85,0,0,1,158.31,251.39Zm.67,0c0,.14,0,.29,0,.47a4.43,4.43,0,0,0,.06.51,3.14,3.14,0,0,0,.12.51,1.67,1.67,0,0,0,.23.44,1,1,0,0,0,.34.31.9.9,0,0,0,.48.11,1,1,0,0,0,.48-.11,1.24,1.24,0,0,0,.34-.31,1.65,1.65,0,0,0,.22-.44,3.18,3.18,0,0,0,.13-.51,4.43,4.43,0,0,0,.06-.51c0-.18,0-.33,0-.47s0-.29,0-.46a4.6,4.6,0,0,0-.06-.52,3.18,3.18,0,0,0-.13-.51,1.65,1.65,0,0,0-.22-.44,1.21,1.21,0,0,0-.34-.3,1,1,0,0,0-.48-.12.9.9,0,0,0-.48.12,1,1,0,0,0-.34.3,1.67,1.67,0,0,0-.23.44,3.14,3.14,0,0,0-.12.51,4.6,4.6,0,0,0-.06.52C159,251.1,159,251.25,159,251.39Z"/><path d="M165.32,248.18H166v6h-.63Z"/><path d="M167.19,251.37c0-.17,0-.33,0-.48s0-.29,0-.41h.59c0,.1,0,.2,0,.3v.32h0a.91.91,0,0,1,.18-.27,1.64,1.64,0,0,1,.28-.23,1.5,1.5,0,0,1,.36-.16,1.44,1.44,0,0,1,.43-.06,1.52,1.52,0,0,1,.51.08,1.36,1.36,0,0,1,.34.18.93.93,0,0,1,.21.24,1.64,1.64,0,0,1,.12.22,1.78,1.78,0,0,1,.48-.53,1.27,1.27,0,0,1,.71-.19,1.88,1.88,0,0,1,.67.11,1.1,1.1,0,0,1,.44.31,1.37,1.37,0,0,1,.24.5,2.59,2.59,0,0,1,.07.65v2.27h-.62V252a2.33,2.33,0,0,0,0-.37,1,1,0,0,0-.15-.33.71.71,0,0,0-.28-.23,1,1,0,0,0-.45-.09,1,1,0,0,0-.37.08,1,1,0,0,0-.31.22,1.13,1.13,0,0,0-.21.35,1.33,1.33,0,0,0-.07.45v2.16h-.63V252.1a1.62,1.62,0,0,0-.17-.88A.6.6,0,0,0,169,251a1.18,1.18,0,0,0-.52.1.88.88,0,0,0-.36.3,1.14,1.14,0,0,0-.21.46,2.1,2.1,0,0,0-.07.58v1.82h-.62Z"/><line class="cls-1" x1="38.21" y1="253" x2="46.2" y2="253"/><path d="M235.17,251a1.66,1.66,0,0,0-.63-.52,1.93,1.93,0,0,0-.79-.17,2.13,2.13,0,0,0-.87.19,2.16,2.16,0,0,0-.68.52,2.58,2.58,0,0,0-.45.75,2.69,2.69,0,0,0-.16.89,2.79,2.79,0,0,0,.16.93,2.41,2.41,0,0,0,.45.74,2,2,0,0,0,.68.5,1.92,1.92,0,0,0,.87.19,2,2,0,0,0,1.64-.8l.51.43a2.38,2.38,0,0,1-.93.75,3,3,0,0,1-1.22.24,2.85,2.85,0,0,1-1.13-.22,2.82,2.82,0,0,1-.92-.62,3,3,0,0,1-.61-.94,3.33,3.33,0,0,1-.22-1.2,3.19,3.19,0,0,1,.21-1.16,2.9,2.9,0,0,1,.6-1,3.08,3.08,0,0,1,.91-.63,3,3,0,0,1,2.27,0,2,2,0,0,1,.89.68Z"/><path d="M239,253.1l0,0a1.35,1.35,0,0,1-.37.13,2.87,2.87,0,0,1-.39,0,1.68,1.68,0,0,1-.68-.13,1.5,1.5,0,0,1-.55-.36,1.92,1.92,0,0,1-.36-.56,2.11,2.11,0,0,1-.12-.73,1.75,1.75,0,0,1,.14-.74,1.63,1.63,0,0,1,.4-.56,1.79,1.79,0,0,1,.6-.35,2.36,2.36,0,0,1,.75-.12,2.27,2.27,0,0,1,.75.12,1.94,1.94,0,0,1,.61.35,1.49,1.49,0,0,1,.39.56,1.75,1.75,0,0,1,.15.74,2.19,2.19,0,0,1,0,.46c0,.14-.07.27-.11.4a2.53,2.53,0,0,1-.18.37,3.35,3.35,0,0,1-.21.36l-1.5,2.4h-.79Zm-.6-.43a1.51,1.51,0,0,0,.48-.08,1.28,1.28,0,0,0,.39-.24,1.12,1.12,0,0,0,.26-.38,1.27,1.27,0,0,0,.1-.5,1.26,1.26,0,0,0-.1-.49,1,1,0,0,0-.26-.38,1,1,0,0,0-.39-.24,1.33,1.33,0,0,0-1,0,.88.88,0,0,0-.38.24,1.19,1.19,0,0,0-.27.38,1.26,1.26,0,0,0-.09.49,1.28,1.28,0,0,0,.09.5,1.31,1.31,0,0,0,.27.38,1.12,1.12,0,0,0,.38.24A1.51,1.51,0,0,0,238.35,252.67Z"/><path d="M240.88,252.62a7.07,7.07,0,0,1,.08-1,2.88,2.88,0,0,1,.3-.94,2,2,0,0,1,.58-.71,1.84,1.84,0,0,1,1.92,0,2,2,0,0,1,.58.71,2.88,2.88,0,0,1,.3.94,7.07,7.07,0,0,1,.08,1,7,7,0,0,1-.08,1,2.86,2.86,0,0,1-.3.95,2,2,0,0,1-.58.71,1.84,1.84,0,0,1-1.92,0,2,2,0,0,1-.58-.71,2.86,2.86,0,0,1-.3-.95A7,7,0,0,1,240.88,252.62Zm.67,0c0,.14,0,.3,0,.47a4.43,4.43,0,0,0,.06.51,2.72,2.72,0,0,0,.13.51,1.51,1.51,0,0,0,.22.44,1.12,1.12,0,0,0,.34.31,1,1,0,0,0,1,0,1.12,1.12,0,0,0,.34-.31,1.51,1.51,0,0,0,.22-.44,2.72,2.72,0,0,0,.13-.51,4.43,4.43,0,0,0,.06-.51c0-.17,0-.33,0-.47s0-.29,0-.46a4.88,4.88,0,0,0-.06-.52,2.83,2.83,0,0,0-.13-.5,1.4,1.4,0,0,0-.22-.44,1.12,1.12,0,0,0-.34-.31,1,1,0,0,0-1,0,1.12,1.12,0,0,0-.34.31,1.4,1.4,0,0,0-.22.44,2.83,2.83,0,0,0-.13.5,4.88,4.88,0,0,0-.06.52C241.56,252.33,241.55,252.49,241.55,252.62Z"/><path d="M247.78,255.8l-.51-.2,2.41-6.14.5.19Z"/><path d="M257.1,251a1.66,1.66,0,0,0-.63-.52,1.92,1.92,0,0,0-.78-.17,2.06,2.06,0,0,0-.87.19,2.16,2.16,0,0,0-.68.52,2.21,2.21,0,0,0-.45.75,2.46,2.46,0,0,0-.16.89,2.56,2.56,0,0,0,.16.93,2.2,2.2,0,0,0,.44.74,2.1,2.1,0,0,0,.68.5,2,2,0,0,0,.88.19,2,2,0,0,0,.93-.21,2,2,0,0,0,.71-.59l.5.43a2.29,2.29,0,0,1-.92.75,3,3,0,0,1-1.22.24,2.8,2.8,0,0,1-2.05-.84,2.82,2.82,0,0,1-.61-.94,3.13,3.13,0,0,1-.22-1.2,3.19,3.19,0,0,1,.21-1.16,2.75,2.75,0,0,1,.6-1,3,3,0,0,1,.91-.63,2.93,2.93,0,0,1,1.16-.23,3,3,0,0,1,1.11.21,2,2,0,0,1,.89.68Z"/><path d="M258.46,254.69l2.14-2.08.35-.36a1.75,1.75,0,0,0,.25-.32,1,1,0,0,0,.15-.32,1.46,1.46,0,0,0,0-.38,1,1,0,0,0-.08-.4.93.93,0,0,0-.22-.3,1.13,1.13,0,0,0-.73-.26,1,1,0,0,0-.71.25,1.11,1.11,0,0,0-.36.66l-.73-.07a1.91,1.91,0,0,1,.21-.61,1.28,1.28,0,0,1,.39-.44,1.77,1.77,0,0,1,.53-.27,2.25,2.25,0,0,1,.64-.09,2.09,2.09,0,0,1,.67.1,1.53,1.53,0,0,1,.55.29,1.47,1.47,0,0,1,.37.48,1.39,1.39,0,0,1,.14.66,1.91,1.91,0,0,1-.09.61,1.8,1.8,0,0,1-.25.5,2.86,2.86,0,0,1-.35.43l-.41.41-1.75,1.64h2.89v.63h-3.65Z"/><path d="M266.35,250.42l-2.26,5h-.76l2.3-5H262.9v-.63h3.45Z"/><path d="M267.26,252.62a7.07,7.07,0,0,1,.08-1,3.45,3.45,0,0,1,.3-.94,2,2,0,0,1,.59-.71,1.82,1.82,0,0,1,1.91,0,2,2,0,0,1,.59.71,3.45,3.45,0,0,1,.3.94,7,7,0,0,1,.07,1,6.92,6.92,0,0,1-.07,1,3.41,3.41,0,0,1-.3.95,2,2,0,0,1-.59.71,1.82,1.82,0,0,1-1.91,0,2,2,0,0,1-.59-.71,3.41,3.41,0,0,1-.3-.95A7,7,0,0,1,267.26,252.62Zm.68,0c0,.14,0,.3,0,.47a4.43,4.43,0,0,0,.06.51,2.72,2.72,0,0,0,.13.51,1.53,1.53,0,0,0,.23.44,1,1,0,0,0,.34.31.89.89,0,0,0,.47.12,1,1,0,0,0,.49-.12,1.08,1.08,0,0,0,.33-.31,1.53,1.53,0,0,0,.23-.44,2.72,2.72,0,0,0,.13-.51,4.43,4.43,0,0,0,.06-.51c0-.17,0-.33,0-.47s0-.29,0-.46a4.88,4.88,0,0,0-.06-.52,2.83,2.83,0,0,0-.13-.5,1.41,1.41,0,0,0-.23-.44,1.08,1.08,0,0,0-.33-.31,1,1,0,0,0-.49-.12.89.89,0,0,0-.47.12,1,1,0,0,0-.34.31,1.41,1.41,0,0,0-.23.44,2.83,2.83,0,0,0-.13.5,4.88,4.88,0,0,0-.06.52C267.94,252.33,267.94,252.49,267.94,252.62Z"/><path d="M52.87,251a1.55,1.55,0,0,0-.63-.51,1.82,1.82,0,0,0-.79-.18,2,2,0,0,0-.87.2,2.13,2.13,0,0,0-.68.51,2.58,2.58,0,0,0-.45.75,2.67,2.67,0,0,0,0,1.82,2.29,2.29,0,0,0,.45.74,1.88,1.88,0,0,0,.68.5,1.92,1.92,0,0,0,.87.19,2,2,0,0,0,.93-.21,2.07,2.07,0,0,0,.71-.58l.51.42a2.38,2.38,0,0,1-.93.75,3,3,0,0,1-1.22.24,2.85,2.85,0,0,1-1.13-.22,2.82,2.82,0,0,1-.92-.62,3,3,0,0,1-.61-.94,3.27,3.27,0,0,1-.22-1.19,3.2,3.2,0,0,1,.21-1.17,3,3,0,0,1,.6-.95,3.08,3.08,0,0,1,.91-.63,3,3,0,0,1,2.27,0,2,2,0,0,1,.89.68Z"/><path d="M54.13,252.62a7,7,0,0,1,.08-1,3.11,3.11,0,0,1,.3-1,1.94,1.94,0,0,1,.59-.71,1.55,1.55,0,0,1,.95-.27,1.6,1.6,0,0,1,1,.27,2,2,0,0,1,.59.71,3.1,3.1,0,0,1,.29,1,5.77,5.77,0,0,1,.08,1,5.85,5.85,0,0,1-.08,1,3.13,3.13,0,0,1-.29.94,2,2,0,0,1-.59.71,1.6,1.6,0,0,1-1,.27,1.55,1.55,0,0,1-.95-.27,1.94,1.94,0,0,1-.59-.71,3.14,3.14,0,0,1-.3-.94A7.07,7.07,0,0,1,54.13,252.62Zm.67,0c0,.13,0,.29,0,.46a4.88,4.88,0,0,0,.06.52,2.83,2.83,0,0,0,.13.5,1.4,1.4,0,0,0,.22.44,1.1,1.1,0,0,0,.34.31,1,1,0,0,0,.48.12.9.9,0,0,0,.48-.12.92.92,0,0,0,.34-.31,1.41,1.41,0,0,0,.23-.44,2.8,2.8,0,0,0,.12-.5,4.88,4.88,0,0,0,.06-.52,3.86,3.86,0,0,0,0-.46,3.94,3.94,0,0,0,0-.47,4.43,4.43,0,0,0-.06-.51,2.71,2.71,0,0,0-.12-.51,1.53,1.53,0,0,0-.23-.44,1,1,0,0,0-.34-.31.9.9,0,0,0-.48-.12,1,1,0,0,0-.48.12,1.24,1.24,0,0,0-.34.31,1.51,1.51,0,0,0-.22.44,2.72,2.72,0,0,0-.13.51,4.43,4.43,0,0,0-.06.51C54.81,252.32,54.8,252.48,54.8,252.62Z"/><path d="M61,255.79l-.51-.2,2.41-6.14.51.19Z"/><path d="M70.36,251a1.52,1.52,0,0,0-.64-.51,1.78,1.78,0,0,0-.78-.18,2,2,0,0,0-.87.2,2.13,2.13,0,0,0-.68.51,2.58,2.58,0,0,0-.45.75,2.51,2.51,0,0,0-.16.9,2.54,2.54,0,0,0,.16.92,2.46,2.46,0,0,0,.44.74,2.09,2.09,0,0,0,1.56.69,2,2,0,0,0,.93-.21,2.07,2.07,0,0,0,.71-.58l.5.42a2.29,2.29,0,0,1-.92.75,3,3,0,0,1-1.22.24,2.93,2.93,0,0,1-1.14-.22,2.88,2.88,0,0,1-.91-.62,3,3,0,0,1-.61-.94,3.07,3.07,0,0,1-.22-1.19,3.2,3.2,0,0,1,.21-1.17,2.84,2.84,0,0,1,.6-.95,3,3,0,0,1,.91-.63,2.93,2.93,0,0,1,1.16-.23,3,3,0,0,1,1.11.21,2,2,0,0,1,.89.68Z"/><path d="M74.2,255.45h-.68v-4.8h0l-1,.85-.4-.48,1.52-1.24h.59Z"/><path d="M76.37,251.17a1.33,1.33,0,0,1,.13-.61,1.2,1.2,0,0,1,.34-.46,1.44,1.44,0,0,1,.51-.3,1.92,1.92,0,0,1,1.28,0,1.44,1.44,0,0,1,.51.3,1.32,1.32,0,0,1,.34.46,1.48,1.48,0,0,1,.12.61,1.44,1.44,0,0,1-.06.4,1.41,1.41,0,0,1-.18.37,1.18,1.18,0,0,1-.3.29,1,1,0,0,1-.38.19h0a1.44,1.44,0,0,1,.46.19,1.35,1.35,0,0,1,.35.32,1.67,1.67,0,0,1,.23.44,1.7,1.7,0,0,1,.08.51,1.74,1.74,0,0,1-.14.69,1.46,1.46,0,0,1-.39.52,1.47,1.47,0,0,1-.57.33,2.35,2.35,0,0,1-1.42,0,1.59,1.59,0,0,1-.58-.33,1.43,1.43,0,0,1-.38-.52,1.74,1.74,0,0,1-.14-.69,1.7,1.7,0,0,1,.08-.51,1.65,1.65,0,0,1,.22-.44,1.59,1.59,0,0,1,.36-.32,1.44,1.44,0,0,1,.46-.19h0a1.18,1.18,0,0,1-.39-.19,1.33,1.33,0,0,1-.29-.29,1.41,1.41,0,0,1-.18-.37A1.16,1.16,0,0,1,76.37,251.17Zm.48,2.67a1.14,1.14,0,0,0,.09.46,1.21,1.21,0,0,0,.24.35,1.16,1.16,0,0,0,.36.23A1.13,1.13,0,0,0,78,255a1,1,0,0,0,.44-.09,1,1,0,0,0,.36-.23,1.07,1.07,0,0,0,.25-.35,1.36,1.36,0,0,0,0-.92,1.07,1.07,0,0,0-.25-.35,1,1,0,0,0-.36-.23,1,1,0,0,0-.44-.09,1.13,1.13,0,0,0-.45.09,1.16,1.16,0,0,0-.36.23,1.21,1.21,0,0,0-.24.35A1.14,1.14,0,0,0,76.85,253.84ZM77,251.2a.92.92,0,0,0,.26.67.93.93,0,0,0,.69.27.9.9,0,0,0,.68-.27,1,1,0,0,0,0-1.34.9.9,0,0,0-.68-.27.93.93,0,0,0-.69.27A.92.92,0,0,0,77,251.2Z"/><path d="M80.52,252.62a5.77,5.77,0,0,1,.08-1,3.1,3.1,0,0,1,.29-1,2,2,0,0,1,.59-.71,1.6,1.6,0,0,1,1-.27,1.55,1.55,0,0,1,1,.27,1.94,1.94,0,0,1,.59.71,3.41,3.41,0,0,1,.3,1,7,7,0,0,1,.08,1,7.07,7.07,0,0,1-.08,1,3.45,3.45,0,0,1-.3.94,1.94,1.94,0,0,1-.59.71,1.55,1.55,0,0,1-1,.27,1.6,1.6,0,0,1-1-.27,2,2,0,0,1-.59-.71,3.13,3.13,0,0,1-.29-.94A5.85,5.85,0,0,1,80.52,252.62Zm.67,0a3.86,3.86,0,0,0,0,.46c0,.17,0,.34.05.52a4.07,4.07,0,0,0,.13.5,1.41,1.41,0,0,0,.23.44.92.92,0,0,0,.34.31.9.9,0,0,0,.48.12,1,1,0,0,0,.48-.12,1.1,1.1,0,0,0,.34-.31,1.65,1.65,0,0,0,.22-.44,2.83,2.83,0,0,0,.13-.5,4.88,4.88,0,0,0,.06-.52c0-.17,0-.33,0-.46s0-.3,0-.47a4.43,4.43,0,0,0-.06-.51,2.72,2.72,0,0,0-.13-.51,1.81,1.81,0,0,0-.22-.44,1.24,1.24,0,0,0-.34-.31,1,1,0,0,0-.48-.12.9.9,0,0,0-.48.12,1,1,0,0,0-.34.31,1.53,1.53,0,0,0-.23.44,3.8,3.8,0,0,0-.13.51c0,.17,0,.34-.05.51A3.94,3.94,0,0,0,81.19,252.62Z"/><line class="cls-2" x1="214.49" y1="253.42" x2="215.03" y2="253.42"/><line class="cls-2" x1="217.76" y1="253.42" x2="218.3" y2="253.42"/><line class="cls-2" x1="221.02" y1="253.42" x2="221.56" y2="253.42"/><line class="cls-2" x1="224.29" y1="253.42" x2="224.83" y2="253.42"/><line class="cls-2" x1="227.55" y1="253.42" x2="228.09" y2="253.42"/></g><g id="ARCO_LED_F0303000"><path d="M54.55,12.34h4.39v.78H55.39v2.34h3.3v.78h-3.3v3.18h-.84Z"/><path d="M59.61,15.88a9.14,9.14,0,0,1,.1-1.25,4.14,4.14,0,0,1,.37-1.19,2.53,2.53,0,0,1,.74-.88,2.27,2.27,0,0,1,2.39,0,2.5,2.5,0,0,1,.73.88,3.85,3.85,0,0,1,.37,1.19,7.86,7.86,0,0,1,0,2.5,3.71,3.71,0,0,1-.37,1.18,2.41,2.41,0,0,1-.73.88,2.22,2.22,0,0,1-2.39,0,2.44,2.44,0,0,1-.74-.88,4,4,0,0,1-.37-1.18A9.14,9.14,0,0,1,59.61,15.88Zm.84,0c0,.17,0,.37,0,.58s0,.43.08.64a4.61,4.61,0,0,0,.16.64,1.9,1.9,0,0,0,.28.55,1.37,1.37,0,0,0,.42.38,1.16,1.16,0,0,0,.6.15,1.11,1.11,0,0,0,.6-.15,1.3,1.3,0,0,0,.43-.38,1.9,1.9,0,0,0,.28-.55,4.79,4.79,0,0,0,.23-1.28c0-.21,0-.41,0-.58s0-.37,0-.58a5,5,0,0,0-.07-.65,4.85,4.85,0,0,0-.16-.63,1.9,1.9,0,0,0-.28-.55,1.45,1.45,0,0,0-.43-.39,1.21,1.21,0,0,0-.6-.14,1.27,1.27,0,0,0-.6.14,1.55,1.55,0,0,0-.42.39,1.9,1.9,0,0,0-.28.55,4.85,4.85,0,0,0-.16.63c0,.22-.06.44-.08.65S60.45,15.71,60.45,15.88Z"/><path d="M66.83,15.34h.26a3.48,3.48,0,0,0,.55,0,1.52,1.52,0,0,0,.52-.17,1,1,0,0,0,.39-.38,1.19,1.19,0,0,0,.15-.64,1.14,1.14,0,0,0-.33-.86,1.23,1.23,0,0,0-.88-.31,1.51,1.51,0,0,0-.78.2,1.37,1.37,0,0,0-.52.59l-.81-.31a1.85,1.85,0,0,1,.82-.9,2.54,2.54,0,0,1,1.23-.3,2.74,2.74,0,0,1,.81.12,2,2,0,0,1,.67.35,1.51,1.51,0,0,1,.46.57,1.73,1.73,0,0,1,.17.81,1.62,1.62,0,0,1-.33,1,1.68,1.68,0,0,1-.88.62v0a1.7,1.7,0,0,1,1.06.61,1.57,1.57,0,0,1,.29.54,1.89,1.89,0,0,1,.1.63,1.91,1.91,0,0,1-.19.89,1.77,1.77,0,0,1-.51.64,2.27,2.27,0,0,1-.74.39,2.92,2.92,0,0,1-.9.13A2.78,2.78,0,0,1,66,19.19a2,2,0,0,1-.87-1.14l.85-.28a1.3,1.3,0,0,0,1.43,1.05,1.47,1.47,0,0,0,.56-.1,1.29,1.29,0,0,0,.46-.29,1.4,1.4,0,0,0,.31-.44,1.27,1.27,0,0,0,.11-.56,1.34,1.34,0,0,0-.15-.66,1.27,1.27,0,0,0-.41-.42,2,2,0,0,0-.58-.22,2.81,2.81,0,0,0-.65-.07h-.26Z"/><path d="M70.73,15.88a9.14,9.14,0,0,1,.1-1.25,4.14,4.14,0,0,1,.37-1.19,2.53,2.53,0,0,1,.74-.88,2.27,2.27,0,0,1,2.39,0,2.5,2.5,0,0,1,.73.88,3.85,3.85,0,0,1,.37,1.19,7.86,7.86,0,0,1,0,2.5,3.71,3.71,0,0,1-.37,1.18,2.41,2.41,0,0,1-.73.88,2.22,2.22,0,0,1-2.39,0,2.44,2.44,0,0,1-.74-.88,4,4,0,0,1-.37-1.18A9.14,9.14,0,0,1,70.73,15.88Zm.84,0c0,.17,0,.37,0,.58s0,.43.08.64a4.61,4.61,0,0,0,.16.64,1.9,1.9,0,0,0,.28.55,1.37,1.37,0,0,0,.42.38,1.16,1.16,0,0,0,.6.15,1.11,1.11,0,0,0,.6-.15,1.3,1.3,0,0,0,.43-.38,1.9,1.9,0,0,0,.28-.55,4.79,4.79,0,0,0,.23-1.28c0-.21,0-.41,0-.58s0-.37,0-.58a5,5,0,0,0-.07-.65,4.85,4.85,0,0,0-.16-.63,1.9,1.9,0,0,0-.28-.55,1.45,1.45,0,0,0-.43-.39,1.21,1.21,0,0,0-.6-.14,1.27,1.27,0,0,0-.6.14,1.55,1.55,0,0,0-.42.39,1.9,1.9,0,0,0-.28.55,4.85,4.85,0,0,0-.16.63c0,.22-.06.44-.08.65S71.57,15.71,71.57,15.88Z"/><path d="M78,15.34h.26a3.48,3.48,0,0,0,.55,0,1.52,1.52,0,0,0,.52-.17,1,1,0,0,0,.39-.38,1.19,1.19,0,0,0,.15-.64,1.14,1.14,0,0,0-.33-.86,1.23,1.23,0,0,0-.88-.31,1.51,1.51,0,0,0-.78.2,1.37,1.37,0,0,0-.52.59l-.81-.31a1.85,1.85,0,0,1,.82-.9,2.54,2.54,0,0,1,1.23-.3,2.74,2.74,0,0,1,.81.12,2,2,0,0,1,.67.35,1.51,1.51,0,0,1,.46.57,1.73,1.73,0,0,1,.17.81,1.62,1.62,0,0,1-.33,1,1.68,1.68,0,0,1-.88.62v0a1.7,1.7,0,0,1,1.06.61,1.57,1.57,0,0,1,.29.54,1.89,1.89,0,0,1,.1.63,1.91,1.91,0,0,1-.19.89,1.77,1.77,0,0,1-.51.64,2.27,2.27,0,0,1-.74.39,2.92,2.92,0,0,1-.9.13,2.78,2.78,0,0,1-1.41-.35,2,2,0,0,1-.87-1.14l.85-.28a1.3,1.3,0,0,0,1.43,1.05,1.47,1.47,0,0,0,.56-.1,1.29,1.29,0,0,0,.46-.29,1.4,1.4,0,0,0,.31-.44,1.27,1.27,0,0,0,.11-.56,1.34,1.34,0,0,0-.15-.66,1.27,1.27,0,0,0-.41-.42,2,2,0,0,0-.58-.22,2.81,2.81,0,0,0-.65-.07H78Z"/><path d="M81.85,15.88a9.14,9.14,0,0,1,.1-1.25,4.14,4.14,0,0,1,.37-1.19,2.53,2.53,0,0,1,.74-.88,2.27,2.27,0,0,1,2.39,0,2.5,2.5,0,0,1,.73.88,3.85,3.85,0,0,1,.37,1.19,7.86,7.86,0,0,1,0,2.5,3.71,3.71,0,0,1-.37,1.18,2.41,2.41,0,0,1-.73.88,2.22,2.22,0,0,1-2.39,0,2.44,2.44,0,0,1-.74-.88A4,4,0,0,1,82,17.13,9.14,9.14,0,0,1,81.85,15.88Zm.84,0c0,.17,0,.37,0,.58s0,.43.08.64a4.61,4.61,0,0,0,.16.64,1.9,1.9,0,0,0,.28.55,1.37,1.37,0,0,0,.42.38,1.16,1.16,0,0,0,.6.15,1.11,1.11,0,0,0,.6-.15,1.3,1.3,0,0,0,.43-.38,1.9,1.9,0,0,0,.28-.55,4.79,4.79,0,0,0,.23-1.28c0-.21,0-.41,0-.58s0-.37,0-.58a5,5,0,0,0-.07-.65,4.85,4.85,0,0,0-.16-.63,1.9,1.9,0,0,0-.28-.55,1.45,1.45,0,0,0-.43-.39,1.21,1.21,0,0,0-.6-.14,1.27,1.27,0,0,0-.6.14,1.55,1.55,0,0,0-.42.39A1.9,1.9,0,0,0,83,14a4.85,4.85,0,0,0-.16.63c0,.22-.06.44-.08.65S82.69,15.71,82.69,15.88Z"/><path d="M87.41,15.88a9.14,9.14,0,0,1,.1-1.25,4.14,4.14,0,0,1,.37-1.19,2.53,2.53,0,0,1,.74-.88,2.27,2.27,0,0,1,2.39,0,2.5,2.5,0,0,1,.73.88,3.85,3.85,0,0,1,.37,1.19,7.86,7.86,0,0,1,0,2.5,3.71,3.71,0,0,1-.37,1.18,2.41,2.41,0,0,1-.73.88,2.22,2.22,0,0,1-2.39,0,2.44,2.44,0,0,1-.74-.88,4,4,0,0,1-.37-1.18A9.14,9.14,0,0,1,87.41,15.88Zm.84,0c0,.17,0,.37,0,.58s0,.43.08.64a4.61,4.61,0,0,0,.16.64,1.9,1.9,0,0,0,.28.55,1.37,1.37,0,0,0,.42.38,1.16,1.16,0,0,0,.6.15,1.11,1.11,0,0,0,.6-.15,1.3,1.3,0,0,0,.43-.38,1.9,1.9,0,0,0,.28-.55,4.79,4.79,0,0,0,.23-1.28c0-.21,0-.41,0-.58s0-.37,0-.58a5,5,0,0,0-.07-.65,4.85,4.85,0,0,0-.16-.63,1.9,1.9,0,0,0-.28-.55,1.45,1.45,0,0,0-.43-.39,1.21,1.21,0,0,0-.6-.14,1.27,1.27,0,0,0-.6.14,1.55,1.55,0,0,0-.42.39,1.9,1.9,0,0,0-.28.55,4.85,4.85,0,0,0-.16.63c0,.22-.06.44-.08.65S88.25,15.71,88.25,15.88Z"/><path d="M93,15.88a9.14,9.14,0,0,1,.1-1.25,4.14,4.14,0,0,1,.37-1.19,2.53,2.53,0,0,1,.74-.88,2.27,2.27,0,0,1,2.39,0,2.5,2.5,0,0,1,.73.88,3.85,3.85,0,0,1,.37,1.19,7.86,7.86,0,0,1,0,2.5,3.71,3.71,0,0,1-.37,1.18,2.41,2.41,0,0,1-.73.88,2.22,2.22,0,0,1-2.39,0,2.44,2.44,0,0,1-.74-.88,4,4,0,0,1-.37-1.18A9.14,9.14,0,0,1,93,15.88Zm.84,0c0,.17,0,.37,0,.58s0,.43.08.64a4.61,4.61,0,0,0,.16.64,1.9,1.9,0,0,0,.28.55,1.37,1.37,0,0,0,.42.38,1.16,1.16,0,0,0,.6.15,1.11,1.11,0,0,0,.6-.15,1.3,1.3,0,0,0,.43-.38,1.9,1.9,0,0,0,.28-.55,4.79,4.79,0,0,0,.23-1.28c0-.21,0-.41,0-.58s0-.37,0-.58a5,5,0,0,0-.07-.65,4.85,4.85,0,0,0-.16-.63,1.9,1.9,0,0,0-.28-.55,1.45,1.45,0,0,0-.43-.39,1.21,1.21,0,0,0-.6-.14,1.27,1.27,0,0,0-.6.14,1.55,1.55,0,0,0-.42.39,1.9,1.9,0,0,0-.28.55,4.85,4.85,0,0,0-.16.63c0,.22-.06.44-.08.65S93.81,15.71,93.81,15.88Z"/><path d="M98.15,20.17h5v.5h-5Z"/><path d="M103.65,18.46l2.67-2.6a6,6,0,0,0,.44-.45,2.24,2.24,0,0,0,.32-.4,1.59,1.59,0,0,0,.18-.4,1.73,1.73,0,0,0,.06-.47,1.15,1.15,0,0,0-.1-.5,1,1,0,0,0-.27-.38,1.38,1.38,0,0,0-.41-.24,1.7,1.7,0,0,0-.51-.08,1.29,1.29,0,0,0-.89.31,1.47,1.47,0,0,0-.45.82l-.91-.08a2.34,2.34,0,0,1,.27-.77,1.85,1.85,0,0,1,.49-.55,2.3,2.3,0,0,1,.66-.34,3,3,0,0,1,.8-.11,2.78,2.78,0,0,1,.83.12,2.29,2.29,0,0,1,.69.37,1.74,1.74,0,0,1,.47.6,1.84,1.84,0,0,1,.17.83,2.29,2.29,0,0,1-.11.76,2.57,2.57,0,0,1-.31.62,4.51,4.51,0,0,1-.44.54c-.16.17-.34.34-.52.51l-2.18,2.05v0h3.61v.78h-4.56Z"/><path d="M109.47,14.07a1.88,1.88,0,0,1,.16-.76,1.63,1.63,0,0,1,.42-.58,2,2,0,0,1,.64-.38,2.36,2.36,0,0,1,.8-.13,2.28,2.28,0,0,1,.8.13,1.94,1.94,0,0,1,.64.38,1.66,1.66,0,0,1,.43.58,1.87,1.87,0,0,1,.15.76,1.45,1.45,0,0,1-.08.5,1.53,1.53,0,0,1-.23.46,1.8,1.8,0,0,1-.36.37,1.38,1.38,0,0,1-.49.23v0a1.76,1.76,0,0,1,.58.23,1.57,1.57,0,0,1,.44.41,1.73,1.73,0,0,1,.28.54A2,2,0,0,1,113.1,19a2,2,0,0,1-.72.41,2.87,2.87,0,0,1-1.77,0,2,2,0,0,1-.72-.41,2,2,0,0,1-.48-.66,2,2,0,0,1-.18-.86,2.31,2.31,0,0,1,.1-.64,2,2,0,0,1,.28-.54,1.72,1.72,0,0,1,.44-.41,2,2,0,0,1,.58-.23v0a1.34,1.34,0,0,1-.48-.23,1.85,1.85,0,0,1-.37-.37,1.8,1.8,0,0,1-.23-.46A1.74,1.74,0,0,1,109.47,14.07Zm.6,3.34a1.48,1.48,0,0,0,.11.57,1.4,1.4,0,0,0,.31.44,1.34,1.34,0,0,0,.45.29,1.42,1.42,0,0,0,.55.11,1.47,1.47,0,0,0,.56-.11,1.34,1.34,0,0,0,.45-.29,1.23,1.23,0,0,0,.3-.44,1.53,1.53,0,0,0,0-1.14,1.37,1.37,0,0,0-.3-.45,1.51,1.51,0,0,0-.45-.29,1.47,1.47,0,0,0-.56-.1,1.42,1.42,0,0,0-.55.1,1.51,1.51,0,0,0-.45.29,1.57,1.57,0,0,0-.31.45A1.48,1.48,0,0,0,110.07,17.41Zm.24-3.3a1.13,1.13,0,0,0,1.18,1.17,1.15,1.15,0,0,0,.86-.33,1.26,1.26,0,0,0,0-1.68,1.27,1.27,0,0,0-1.71,0A1.14,1.14,0,0,0,110.31,14.11Z"/><path d="M114.33,12.34h.93l1.61,5.88h0l1.74-5.88h.94l1.73,5.88h0L123,12.34h.88l-2.08,7.08h-.91l-1.75-6h0l-1.76,6h-.92Z"/><path d="M127.49,12.34h.84v6.3h3.24v.78h-4.08Z"/><path d="M132.49,12.34h4.45v.78h-3.61v2.22h3.37v.78h-3.37v2.52h3.79v.78h-4.63Z"/><path d="M138.29,12.34H141a3.87,3.87,0,0,1,1.52.33,3.63,3.63,0,0,1,.74.46,3.16,3.16,0,0,1,1,1.58,3.9,3.9,0,0,1,.16,1.17,3.78,3.78,0,0,1-.16,1.16,3.07,3.07,0,0,1-.43.91,3.12,3.12,0,0,1-.62.68,3.19,3.19,0,0,1-.74.45,3.4,3.4,0,0,1-.78.26,3.89,3.89,0,0,1-.74.08h-2.72Zm.84,6.3h1.6a3.67,3.67,0,0,0,1.13-.16,2.33,2.33,0,0,0,.9-.5,2.12,2.12,0,0,0,.6-.85,3.14,3.14,0,0,0,.22-1.25,3.14,3.14,0,0,0-.22-1.25,2.22,2.22,0,0,0-.6-.86,2.45,2.45,0,0,0-.9-.49,3.67,3.67,0,0,0-1.13-.16h-1.6Z"/><rect class="cls-3" x="54.86" y="41.94" width="189.86" height="189.86"/><circle class="cls-4" cx="149.79" cy="136.82" r="21.06"/><path d="M153.32,165.93h-.67v-4.8h0l-1,.86-.4-.49,1.52-1.23h.58Z"/><path d="M155.14,163.1a7.07,7.07,0,0,1,.08-1,3.52,3.52,0,0,1,.3-.95,1.91,1.91,0,0,1,.59-.7,1.51,1.51,0,0,1,.95-.28,1.54,1.54,0,0,1,1,.28,2,2,0,0,1,.59.7,3.19,3.19,0,0,1,.29.95,6.29,6.29,0,0,1,0,2,3.19,3.19,0,0,1-.29,1,2,2,0,0,1-.59.7,1.61,1.61,0,0,1-1,.28,1.57,1.57,0,0,1-.95-.28,1.91,1.91,0,0,1-.59-.7,3.52,3.52,0,0,1-.3-1A7.07,7.07,0,0,1,155.14,163.1Zm.68,0c0,.14,0,.29,0,.46a4.6,4.6,0,0,0,.06.52,3.18,3.18,0,0,0,.13.51,2,2,0,0,0,.22.44,1.21,1.21,0,0,0,.34.3,1,1,0,0,0,.48.12.9.9,0,0,0,.48-.12,1,1,0,0,0,.34-.3,1.67,1.67,0,0,0,.23-.44,4.77,4.77,0,0,0,.13-.51c0-.17,0-.35.06-.52s0-.32,0-.46,0-.29,0-.47,0-.34-.06-.51a4.77,4.77,0,0,0-.13-.51,1.67,1.67,0,0,0-.23-.44,1,1,0,0,0-.34-.31,1,1,0,0,0-.48-.11,1.06,1.06,0,0,0-.48.11,1.24,1.24,0,0,0-.34.31,2,2,0,0,0-.22.44,3.18,3.18,0,0,0-.13.51,4.43,4.43,0,0,0-.06.51C155.82,162.81,155.82,163,155.82,163.1Z"/><path d="M159.59,163.1a7.07,7.07,0,0,1,.08-1,2.94,2.94,0,0,1,.3-.95,2,2,0,0,1,.58-.7,1.79,1.79,0,0,1,1.92,0,2,2,0,0,1,.58.7,2.94,2.94,0,0,1,.3.95,6.29,6.29,0,0,1,0,2,2.94,2.94,0,0,1-.3,1,2,2,0,0,1-.58.7,1.79,1.79,0,0,1-1.92,0,2,2,0,0,1-.58-.7,2.94,2.94,0,0,1-.3-1A7.07,7.07,0,0,1,159.59,163.1Zm.67,0c0,.14,0,.29,0,.46a4.6,4.6,0,0,0,.06.52,3.18,3.18,0,0,0,.13.51,1.65,1.65,0,0,0,.22.44,1.08,1.08,0,0,0,.34.3,1,1,0,0,0,1,0,1.08,1.08,0,0,0,.34-.3,1.65,1.65,0,0,0,.22-.44,3.18,3.18,0,0,0,.13-.51,4.6,4.6,0,0,0,.06-.52c0-.17,0-.32,0-.46s0-.29,0-.47a4.43,4.43,0,0,0-.06-.51,3.18,3.18,0,0,0-.13-.51,1.65,1.65,0,0,0-.22-.44,1.12,1.12,0,0,0-.34-.31,1.1,1.1,0,0,0-1,0,1.12,1.12,0,0,0-.34.31,1.65,1.65,0,0,0-.22.44,3.18,3.18,0,0,0-.13.51,4.43,4.43,0,0,0-.06.51C160.27,162.81,160.26,163,160.26,163.1Z"/><circle class="cls-4" cx="149.79" cy="136.82" r="42.17" transform="translate(-19.98 25.76) rotate(-9.22)"/><path d="M150.84,186.28,153,184.2l.35-.36a3.14,3.14,0,0,0,.25-.32,1,1,0,0,0,.15-.32,1.52,1.52,0,0,0,.05-.38,1,1,0,0,0-.08-.4,1,1,0,0,0-.22-.3,1.09,1.09,0,0,0-.33-.19,1.1,1.1,0,0,0-.41-.07,1,1,0,0,0-.71.25,1.08,1.08,0,0,0-.36.65l-.73-.06a1.71,1.71,0,0,1,.22-.61,1.41,1.41,0,0,1,.39-.45,1.87,1.87,0,0,1,.53-.26,2.2,2.2,0,0,1,.64-.09,2.34,2.34,0,0,1,.66.09,1.72,1.72,0,0,1,.55.3,1.31,1.31,0,0,1,.38.48,1.53,1.53,0,0,1,.14.66,2,2,0,0,1-.09.61,2.59,2.59,0,0,1-.25.5,4.7,4.7,0,0,1-.35.43c-.14.14-.27.27-.42.4l-1.74,1.65h2.89V187h-3.65Z"/><path d="M155.14,184.21a7.07,7.07,0,0,1,.08-1,3.64,3.64,0,0,1,.3-1,2,2,0,0,1,.59-.7,1.57,1.57,0,0,1,.95-.27,1.6,1.6,0,0,1,1,.27,2.1,2.1,0,0,1,.59.7,3.28,3.28,0,0,1,.29,1,5.85,5.85,0,0,1,.08,1,5.77,5.77,0,0,1-.08,1,3.1,3.1,0,0,1-.29.95,2,2,0,0,1-.59.71,1.6,1.6,0,0,1-1,.27,1.57,1.57,0,0,1-.95-.27,1.94,1.94,0,0,1-.59-.71,3.41,3.41,0,0,1-.3-.95A7,7,0,0,1,155.14,184.21Zm.68,0c0,.14,0,.3,0,.47a4.43,4.43,0,0,0,.06.51,2.72,2.72,0,0,0,.13.51,1.81,1.81,0,0,0,.22.44,1.24,1.24,0,0,0,.34.31,1,1,0,0,0,.48.11.9.9,0,0,0,.48-.11,1,1,0,0,0,.34-.31,1.53,1.53,0,0,0,.23-.44,3.8,3.8,0,0,0,.13-.51c0-.17,0-.34.06-.51s0-.33,0-.47,0-.29,0-.46,0-.34-.06-.52a4.77,4.77,0,0,0-.13-.51,1.47,1.47,0,0,0-.23-.43.92.92,0,0,0-.34-.31.9.9,0,0,0-.48-.12,1,1,0,0,0-.48.12,1.1,1.1,0,0,0-.34.31,1.74,1.74,0,0,0-.22.43,3.18,3.18,0,0,0-.13.51,4.88,4.88,0,0,0-.06.52C155.82,183.92,155.82,184.07,155.82,184.21Z"/><path d="M159.59,184.21a7.07,7.07,0,0,1,.08-1,3,3,0,0,1,.3-1,2.07,2.07,0,0,1,.58-.7,1.84,1.84,0,0,1,1.92,0,2.07,2.07,0,0,1,.58.7,3,3,0,0,1,.3,1,7.07,7.07,0,0,1,.08,1,7,7,0,0,1-.08,1,2.86,2.86,0,0,1-.3.95,2,2,0,0,1-.58.71,1.84,1.84,0,0,1-1.92,0,2,2,0,0,1-.58-.71,2.86,2.86,0,0,1-.3-.95A7,7,0,0,1,159.59,184.21Zm.67,0c0,.14,0,.3,0,.47a4.43,4.43,0,0,0,.06.51,2.72,2.72,0,0,0,.13.51,1.51,1.51,0,0,0,.22.44,1.12,1.12,0,0,0,.34.31,1.1,1.1,0,0,0,1,0,1.12,1.12,0,0,0,.34-.31,1.51,1.51,0,0,0,.22-.44,2.72,2.72,0,0,0,.13-.51,4.43,4.43,0,0,0,.06-.51c0-.17,0-.33,0-.47s0-.29,0-.46a4.88,4.88,0,0,0-.06-.52,3.18,3.18,0,0,0-.13-.51,1.45,1.45,0,0,0-.22-.43A1,1,0,0,0,162,182a1,1,0,0,0-1,0,1,1,0,0,0-.34.31,1.45,1.45,0,0,0-.22.43,3.18,3.18,0,0,0-.13.51,4.88,4.88,0,0,0-.06.52C160.27,183.92,160.26,184.07,160.26,184.21Z"/><circle class="cls-4" cx="149.79" cy="136.82" r="63.23"/><path d="M152.07,204.84h.21l.44,0a1.11,1.11,0,0,0,.41-.14.81.81,0,0,0,.31-.3.88.88,0,0,0,.13-.51.9.9,0,0,0-.27-.69,1,1,0,0,0-.7-.25,1.12,1.12,0,0,0-.62.16,1.07,1.07,0,0,0-.42.47l-.65-.25a1.48,1.48,0,0,1,.65-.72,2.07,2.07,0,0,1,1-.24,2.32,2.32,0,0,1,.65.1,1.73,1.73,0,0,1,.54.28,1.37,1.37,0,0,1,.36.46,1.44,1.44,0,0,1,.14.64,1.32,1.32,0,0,1-.27.81,1.34,1.34,0,0,1-.7.49v0a1.58,1.58,0,0,1,.49.17,1.38,1.38,0,0,1,.36.32,1.27,1.27,0,0,1,.23.43,1.64,1.64,0,0,1,.08.5,1.58,1.58,0,0,1-.15.71,1.38,1.38,0,0,1-.41.51,1.77,1.77,0,0,1-.59.32,2.46,2.46,0,0,1-.72.1,2.18,2.18,0,0,1-1.13-.28,1.65,1.65,0,0,1-.7-.91l.69-.23a1.21,1.21,0,0,0,.4.65,1.25,1.25,0,0,0,.74.19,1.12,1.12,0,0,0,.45-.08,1,1,0,0,0,.36-.22,1,1,0,0,0,.25-.36,1.06,1.06,0,0,0,.09-.45,1,1,0,0,0-.12-.52,1.07,1.07,0,0,0-.33-.34,1.7,1.7,0,0,0-.46-.18,3,3,0,0,0-.52-.05h-.21Z"/><path d="M155.14,205.27a7.07,7.07,0,0,1,.08-1,3.64,3.64,0,0,1,.3-1,1.91,1.91,0,0,1,.59-.7,1.57,1.57,0,0,1,.95-.28,1.61,1.61,0,0,1,1,.28,2,2,0,0,1,.59.7,3.28,3.28,0,0,1,.29,1,5.85,5.85,0,0,1,.08,1,5.77,5.77,0,0,1-.08,1,3.1,3.1,0,0,1-.29.95,1.92,1.92,0,0,1-.59.7,1.54,1.54,0,0,1-1,.28,1.51,1.51,0,0,1-.95-.28,1.83,1.83,0,0,1-.59-.7,3.41,3.41,0,0,1-.3-.95A7,7,0,0,1,155.14,205.27Zm.68,0c0,.14,0,.3,0,.47a4.43,4.43,0,0,0,.06.51,2.72,2.72,0,0,0,.13.51,1.81,1.81,0,0,0,.22.44,1.24,1.24,0,0,0,.34.31,1,1,0,0,0,.48.11.9.9,0,0,0,.48-.11,1,1,0,0,0,.34-.31,1.53,1.53,0,0,0,.23-.44,3.8,3.8,0,0,0,.13-.51c0-.17,0-.34.06-.51s0-.33,0-.47,0-.29,0-.46,0-.34-.06-.52a4.77,4.77,0,0,0-.13-.51,1.67,1.67,0,0,0-.23-.44,1,1,0,0,0-.34-.3.9.9,0,0,0-.48-.12,1,1,0,0,0-.48.12,1.21,1.21,0,0,0-.34.3,2,2,0,0,0-.22.44,3.18,3.18,0,0,0-.13.51,4.88,4.88,0,0,0-.06.52C155.82,205,155.82,205.13,155.82,205.27Z"/><path d="M159.59,205.27a7.07,7.07,0,0,1,.08-1,3,3,0,0,1,.3-1,2,2,0,0,1,.58-.7,1.79,1.79,0,0,1,1.92,0,2,2,0,0,1,.58.7,3,3,0,0,1,.3,1,7.07,7.07,0,0,1,.08,1,7,7,0,0,1-.08,1,2.86,2.86,0,0,1-.3.95,1.9,1.9,0,0,1-.58.7,1.79,1.79,0,0,1-1.92,0,1.9,1.9,0,0,1-.58-.7,2.86,2.86,0,0,1-.3-.95A7,7,0,0,1,159.59,205.27Zm.67,0c0,.14,0,.3,0,.47a4.43,4.43,0,0,0,.06.51,2.72,2.72,0,0,0,.13.51,1.51,1.51,0,0,0,.22.44,1.12,1.12,0,0,0,.34.31,1.1,1.1,0,0,0,1,0,1.12,1.12,0,0,0,.34-.31,1.51,1.51,0,0,0,.22-.44,2.72,2.72,0,0,0,.13-.51,4.43,4.43,0,0,0,.06-.51c0-.17,0-.33,0-.47s0-.29,0-.46a4.88,4.88,0,0,0-.06-.52,3.18,3.18,0,0,0-.13-.51,1.65,1.65,0,0,0-.22-.44,1.08,1.08,0,0,0-.34-.3,1,1,0,0,0-1,0,1.08,1.08,0,0,0-.34.3,1.65,1.65,0,0,0-.22.44,3.18,3.18,0,0,0-.13.51,4.88,4.88,0,0,0-.06.52C160.27,205,160.26,205.13,160.26,205.27Z"/><circle class="cls-4" cx="149.79" cy="136.82" r="84.35"/><path d="M153.79,227.3h.82v.62h-.82v1.3h-.67v-1.3h-2.4v-.74l2.25-3.63h.82Zm-.67-3h0l-1.8,3h1.82Z"/><path d="M155.14,226.39a7,7,0,0,1,.08-1,3.41,3.41,0,0,1,.3-.95,1.94,1.94,0,0,1,.59-.71,1.57,1.57,0,0,1,.95-.27,1.6,1.6,0,0,1,1,.27,2,2,0,0,1,.59.71,3.1,3.1,0,0,1,.29.95,5.77,5.77,0,0,1,.08,1,5.85,5.85,0,0,1-.08,1,3.13,3.13,0,0,1-.29.94,2,2,0,0,1-.59.71,1.6,1.6,0,0,1-1,.27,1.57,1.57,0,0,1-.95-.27,1.94,1.94,0,0,1-.59-.71,3.45,3.45,0,0,1-.3-.94A7.07,7.07,0,0,1,155.14,226.39Zm.68,0c0,.14,0,.29,0,.46a4.88,4.88,0,0,0,.06.52,2.83,2.83,0,0,0,.13.5,1.65,1.65,0,0,0,.22.44,1.1,1.1,0,0,0,.34.31,1,1,0,0,0,.48.12.9.9,0,0,0,.48-.12.92.92,0,0,0,.34-.31,1.41,1.41,0,0,0,.23-.44,4.07,4.07,0,0,0,.13-.5c0-.18,0-.35.06-.52s0-.32,0-.46,0-.3,0-.47,0-.34-.06-.51a3.8,3.8,0,0,0-.13-.51,1.53,1.53,0,0,0-.23-.44,1,1,0,0,0-.34-.31.9.9,0,0,0-.48-.11,1,1,0,0,0-.48.11,1.24,1.24,0,0,0-.34.31,1.81,1.81,0,0,0-.22.44,2.72,2.72,0,0,0-.13.51,4.43,4.43,0,0,0-.06.51C155.82,226.09,155.82,226.25,155.82,226.39Z"/><path d="M159.59,226.39a7,7,0,0,1,.08-1,2.86,2.86,0,0,1,.3-.95,2,2,0,0,1,.58-.71,1.84,1.84,0,0,1,1.92,0,2,2,0,0,1,.58.71,2.86,2.86,0,0,1,.3.95,7,7,0,0,1,.08,1,7.07,7.07,0,0,1-.08,1,2.88,2.88,0,0,1-.3.94,2,2,0,0,1-.58.71,1.84,1.84,0,0,1-1.92,0,2,2,0,0,1-.58-.71,2.88,2.88,0,0,1-.3-.94A7.07,7.07,0,0,1,159.59,226.39Zm.67,0c0,.14,0,.29,0,.46a4.88,4.88,0,0,0,.06.52,2.83,2.83,0,0,0,.13.5,1.4,1.4,0,0,0,.22.44,1,1,0,0,0,.34.31,1,1,0,0,0,1,0,1,1,0,0,0,.34-.31,1.4,1.4,0,0,0,.22-.44,2.83,2.83,0,0,0,.13-.5,4.88,4.88,0,0,0,.06-.52c0-.17,0-.32,0-.46s0-.3,0-.47a4.43,4.43,0,0,0-.06-.51,2.72,2.72,0,0,0-.13-.51,1.51,1.51,0,0,0-.22-.44,1.12,1.12,0,0,0-.34-.31,1.1,1.1,0,0,0-1,0,1.12,1.12,0,0,0-.34.31,1.51,1.51,0,0,0-.22.44,2.72,2.72,0,0,0-.13.51,4.43,4.43,0,0,0-.06.51C160.27,226.09,160.26,226.25,160.26,226.39Z"/><line class="cls-4" x1="54.86" y1="136.87" x2="244.78" y2="136.87"/><line class="cls-4" x1="149.79" y1="231.81" x2="149.79" y2="41.89"/><line class="cls-4" x1="95.04" y1="41.89" x2="204.6" y2="231.81"/><line class="cls-4" x1="95.04" y1="231.81" x2="204.6" y2="41.89"/><line class="cls-4" x1="54.86" y1="82.06" x2="244.78" y2="191.63"/><line class="cls-4" x1="54.86" y1="191.63" x2="244.78" y2="82.06"/><line class="cls-5" x1="149.79" y1="220.41" x2="151.25" y2="220.68"/><line class="cls-5" x1="151.25" y1="220.68" x2="152.76" y2="222.03"/><line class="cls-5" x1="152.76" y1="222.03" x2="154.27" y2="221.87"/><line class="cls-5" x1="154.27" y1="221.87" x2="155.73" y2="222.09"/><line class="cls-5" x1="155.73" y1="222.09" x2="157.24" y2="221.92"/><line class="cls-5" x1="157.24" y1="221.92" x2="158.81" y2="222.46"/><line class="cls-5" x1="158.81" y1="222.46" x2="160.38" y2="222.9"/><line class="cls-5" x1="160.38" y1="222.9" x2="161.78" y2="222.03"/><line class="cls-5" x1="161.78" y1="222.03" x2="163.4" y2="222.84"/><line class="cls-5" x1="163.4" y1="222.84" x2="164.75" y2="221.76"/><line class="cls-5" x1="164.75" y1="221.76" x2="166.48" y2="222.52"/><line class="cls-5" x1="166.48" y1="222.52" x2="167.83" y2="221.55"/><line class="cls-5" x1="167.83" y1="221.55" x2="169.29" y2="221.17"/><line class="cls-5" x1="169.29" y1="221.17" x2="170.8" y2="221.11"/><line class="cls-5" x1="170.8" y1="221.11" x2="172.31" y2="220.79"/><line class="cls-5" x1="172.31" y1="220.79" x2="173.61" y2="219.87"/><line class="cls-5" x1="173.61" y1="219.87" x2="174.79" y2="218.58"/><line class="cls-5" x1="174.79" y1="218.58" x2="176.47" y2="218.85"/><line class="cls-5" x1="176.47" y1="218.85" x2="177.55" y2="217.39"/><line class="cls-5" x1="177.55" y1="217.39" x2="179.01" y2="217.06"/><line class="cls-5" x1="179.01" y1="217.06" x2="180.03" y2="215.55"/><line class="cls-5" x1="180.03" y1="215.55" x2="181.11" y2="214.31"/><line class="cls-5" x1="181.11" y1="214.31" x2="182.68" y2="214.26"/><line class="cls-5" x1="182.68" y1="214.26" x2="183.33" y2="212.2"/><line class="cls-5" x1="183.33" y1="212.2" x2="184.68" y2="211.66"/><line class="cls-5" x1="184.68" y1="211.66" x2="185.76" y2="210.53"/><line class="cls-5" x1="185.76" y1="210.53" x2="186.35" y2="208.53"/><line class="cls-5" x1="186.35" y1="208.53" x2="187.65" y2="208.05"/><line class="cls-5" x1="187.65" y1="208.05" x2="188.13" y2="206.05"/><line class="cls-5" x1="188.13" y1="206.05" x2="189.21" y2="205.08"/><line class="cls-5" x1="189.21" y1="205.08" x2="189.81" y2="203.4"/><line class="cls-5" x1="189.81" y1="203.4" x2="190.24" y2="201.57"/><line class="cls-5" x1="190.24" y1="201.57" x2="191.21" y2="200.59"/><line class="cls-5" x1="191.21" y1="200.59" x2="191.48" y2="198.6"/><line class="cls-5" x1="191.48" y1="198.6" x2="192.18" y2="197.35"/><line class="cls-5" x1="192.18" y1="197.35" x2="192.34" y2="195.36"/><line class="cls-5" x1="192.34" y1="195.36" x2="192.78" y2="193.84"/><line class="cls-5" x1="192.78" y1="193.84" x2="193.42" y2="192.66"/><line class="cls-5" x1="193.42" y1="192.66" x2="193.15" y2="190.39"/><line class="cls-5" x1="193.15" y1="190.39" x2="193.69" y2="189.15"/><line class="cls-5" x1="193.69" y1="189.15" x2="193.15" y2="186.72"/><line class="cls-5" x1="193.15" y1="186.72" x2="193.15" y2="184.99"/><line class="cls-5" x1="193.15" y1="184.99" x2="193.53" y2="183.75"/><line class="cls-5" x1="193.53" y1="183.75" x2="192.83" y2="181.37"/><line class="cls-5" x1="192.83" y1="181.37" x2="192.88" y2="179.91"/><line class="cls-5" x1="192.88" y1="179.91" x2="192.24" y2="177.81"/><line class="cls-5" x1="192.24" y1="177.81" x2="191.75" y2="175.92"/><line class="cls-5" x1="191.75" y1="175.92" x2="191.53" y2="174.4"/><line class="cls-5" x1="191.53" y1="174.4" x2="190.56" y2="172.3"/><line class="cls-5" x1="190.56" y1="172.3" x2="190.29" y2="170.84"/><line class="cls-5" x1="190.29" y1="170.84" x2="189" y2="168.57"/><line class="cls-5" x1="189" y1="168.57" x2="188.4" y2="167.01"/><line class="cls-5" x1="188.4" y1="167.01" x2="187.38" y2="165.17"/><line class="cls-5" x1="187.38" y1="165.17" x2="186.13" y2="163.23"/><line class="cls-5" x1="186.13" y1="163.23" x2="185.38" y2="161.77"/><line class="cls-5" x1="185.38" y1="161.77" x2="183.76" y2="159.72"/><line class="cls-5" x1="183.76" y1="159.72" x2="182.79" y2="158.26"/><line class="cls-5" x1="182.79" y1="158.26" x2="181.27" y2="156.48"/><line class="cls-5" x1="181.27" y1="156.48" x2="179.71" y2="154.8"/><line class="cls-5" x1="179.71" y1="154.8" x2="178.2" y2="153.24"/><line class="cls-5" x1="178.2" y1="153.24" x2="176.79" y2="151.78"/><line class="cls-5" x1="176.79" y1="151.78" x2="175.23" y2="150.37"/><line class="cls-5" x1="175.23" y1="150.37" x2="173.44" y2="148.86"/><line class="cls-5" x1="173.44" y1="148.86" x2="171.99" y2="147.62"/><line class="cls-5" x1="171.99" y1="147.62" x2="170.15" y2="146.32"/><line class="cls-5" x1="170.15" y1="146.32" x2="168.64" y2="145.19"/><line class="cls-5" x1="168.64" y1="145.19" x2="167.29" y2="144.27"/><line class="cls-5" x1="167.29" y1="144.27" x2="165.67" y2="143.25"/><line class="cls-5" x1="165.67" y1="143.25" x2="164.48" y2="142.44"/><line class="cls-5" x1="164.48" y1="142.44" x2="162.97" y2="141.63"/><line class="cls-5" x1="162.97" y1="141.63" x2="161.89" y2="140.98"/><line class="cls-5" x1="161.89" y1="140.98" x2="160.81" y2="140.38"/><line class="cls-5" x1="160.81" y1="140.38" x2="159.78" y2="139.84"/><line class="cls-5" x1="159.78" y1="139.84" x2="158.92" y2="139.47"/><line class="cls-5" x1="158.92" y1="139.47" x2="158.11" y2="139.03"/><line class="cls-5" x1="158.11" y1="139.03" x2="157.51" y2="138.76"/><line class="cls-5" x1="157.51" y1="138.76" x2="156.87" y2="138.44"/><line class="cls-5" x1="156.87" y1="138.44" x2="156.49" y2="138.22"/><line class="cls-5" x1="156.49" y1="138.22" x2="156.11" y2="138.06"/><line class="cls-5" x1="156.11" y1="138.06" x2="155.73" y2="137.85"/><line class="cls-5" x1="155.73" y1="137.85" x2="155.41" y2="137.68"/><line class="cls-5" x1="155.41" y1="137.68" x2="154.98" y2="137.52"/><line class="cls-5" x1="154.98" y1="137.52" x2="154.6" y2="137.41"/><line class="cls-5" x1="154.6" y1="137.41" x2="154.22" y2="137.31"/><line class="cls-5" x1="154.22" y1="137.31" x2="153.79" y2="137.14"/><line class="cls-5" x1="153.79" y1="137.14" x2="153.3" y2="137.09"/><line class="cls-5" x1="153.3" y1="137.09" x2="152.87" y2="136.98"/><line class="cls-5" x1="152.87" y1="136.98" x2="152.38" y2="136.93"/><line class="cls-5" x1="152.38" y1="136.93" x2="151.95" y2="136.87"/><line class="cls-5" x1="151.95" y1="136.87" x2="151.47" y2="136.87"/><line class="cls-5" x1="151.47" y1="136.87" x2="150.93" y2="136.87"/><line class="cls-5" x1="150.93" y1="136.87" x2="150.49" y2="136.87"/><line class="cls-5" x1="150.49" y1="136.87" x2="150.17" y2="136.87"/><line class="cls-5" x1="150.17" y1="136.87" x2="150.22" y2="136.82"/><line class="cls-5" x1="150.22" y1="136.82" x2="150.22" y2="136.82"/><line class="cls-5" x1="150.22" y1="136.82" x2="150.33" y2="136.82"/><line class="cls-5" x1="150.33" y1="136.82" x2="150.39" y2="136.82"/><line class="cls-5" x1="150.39" y1="136.82" x2="150.49" y2="136.77"/><line class="cls-5" x1="150.49" y1="136.77" x2="150.49" y2="136.77"/><line class="cls-5" x1="150.49" y1="136.77" x2="150.6" y2="136.71"/><line class="cls-5" x1="150.6" y1="136.71" x2="150.87" y2="136.66"/><line class="cls-5" x1="150.87" y1="136.66" x2="150.76" y2="136.66"/><line class="cls-5" x1="150.76" y1="136.66" x2="150.82" y2="136.66"/><line class="cls-5" x1="150.82" y1="136.66" x2="150.93" y2="136.6"/><line class="cls-5" x1="150.93" y1="136.6" x2="150.98" y2="136.55"/><line class="cls-5" x1="150.98" y1="136.55" x2="151.03" y2="136.5"/><line class="cls-5" x1="151.03" y1="136.5" x2="151.09" y2="136.5"/><line class="cls-5" x1="151.09" y1="136.5" x2="151.2" y2="136.44"/><line class="cls-5" x1="151.2" y1="136.44" x2="151.25" y2="136.39"/><line class="cls-5" x1="151.25" y1="136.39" x2="151.3" y2="136.33"/><line class="cls-5" x1="151.3" y1="136.33" x2="151.52" y2="136.23"/><line class="cls-5" x1="151.52" y1="136.23" x2="151.57" y2="136.17"/><line class="cls-5" x1="151.57" y1="136.17" x2="151.63" y2="136.12"/><line class="cls-5" x1="151.63" y1="136.12" x2="151.74" y2="136.01"/><line class="cls-5" x1="151.74" y1="136.01" x2="151.95" y2="135.85"/><line class="cls-5" x1="151.95" y1="135.85" x2="152.06" y2="135.74"/><line class="cls-5" x1="152.06" y1="135.74" x2="152.11" y2="135.69"/><line class="cls-5" x1="152.11" y1="135.69" x2="152.22" y2="135.58"/><line class="cls-5" x1="152.22" y1="135.58" x2="152.28" y2="135.52"/><line class="cls-5" x1="152.28" y1="135.52" x2="152.44" y2="135.36"/><line class="cls-5" x1="152.44" y1="135.36" x2="152.49" y2="135.25"/><line class="cls-5" x1="152.49" y1="135.25" x2="152.55" y2="135.15"/><line class="cls-5" x1="152.55" y1="135.15" x2="152.6" y2="135.04"/><line class="cls-5" x1="152.6" y1="135.04" x2="152.71" y2="134.88"/><line class="cls-5" x1="152.71" y1="134.88" x2="152.82" y2="134.77"/><line class="cls-5" x1="152.82" y1="134.77" x2="152.98" y2="134.55"/><line class="cls-5" x1="152.98" y1="134.55" x2="153.09" y2="134.39"/><line class="cls-5" x1="153.09" y1="134.39" x2="153.19" y2="134.23"/><line class="cls-5" x1="153.19" y1="134.23" x2="153.36" y2="133.96"/><line class="cls-5" x1="153.36" y1="133.96" x2="153.41" y2="133.8"/><line class="cls-5" x1="153.41" y1="133.8" x2="153.63" y2="133.58"/><line class="cls-5" x1="153.63" y1="133.58" x2="153.73" y2="133.31"/><line class="cls-5" x1="153.73" y1="133.31" x2="153.9" y2="133.04"/><line class="cls-5" x1="153.9" y1="133.04" x2="154.06" y2="132.77"/><line class="cls-5" x1="154.06" y1="132.77" x2="154.17" y2="132.5"/><line class="cls-5" x1="154.17" y1="132.5" x2="154.27" y2="132.23"/><line class="cls-5" x1="154.27" y1="132.23" x2="154.33" y2="132.01"/><line class="cls-5" x1="154.33" y1="132.01" x2="154.44" y2="131.69"/><line class="cls-5" x1="154.44" y1="131.69" x2="154.49" y2="131.47"/><line class="cls-5" x1="154.49" y1="131.47" x2="154.54" y2="131.26"/><line class="cls-5" x1="154.54" y1="131.26" x2="154.54" y2="130.99"/><line class="cls-5" x1="154.54" y1="130.99" x2="154.54" y2="130.77"/><line class="cls-5" x1="154.54" y1="130.77" x2="154.38" y2="130.77"/><line class="cls-5" x1="154.38" y1="130.77" x2="154.33" y2="130.61"/><line class="cls-5" x1="154.33" y1="130.61" x2="154.22" y2="130.56"/><line class="cls-5" x1="154.22" y1="130.56" x2="154.11" y2="130.45"/><line class="cls-5" x1="154.11" y1="130.45" x2="153.95" y2="130.5"/><line class="cls-5" x1="153.95" y1="130.5" x2="153.73" y2="130.56"/><line class="cls-5" x1="153.73" y1="130.56" x2="153.52" y2="130.72"/><line class="cls-5" x1="153.52" y1="130.72" x2="153.25" y2="130.88"/><line class="cls-5" x1="153.25" y1="130.88" x2="152.92" y2="131.26"/><line class="cls-5" x1="152.92" y1="131.26" x2="152.55" y2="131.64"/><line class="cls-5" x1="152.55" y1="131.64" x2="152.28" y2="131.96"/><line class="cls-5" x1="152.28" y1="131.96" x2="152.11" y2="132.12"/><line class="cls-5" x1="152.11" y1="132.12" x2="151.79" y2="132.55"/><line class="cls-5" x1="151.79" y1="132.55" x2="151.52" y2="133.04"/><line class="cls-5" x1="151.52" y1="133.04" x2="151.25" y2="133.42"/><line class="cls-5" x1="151.25" y1="133.42" x2="150.93" y2="134.12"/><line class="cls-5" x1="150.93" y1="134.12" x2="150.71" y2="134.5"/><line class="cls-5" x1="150.71" y1="134.5" x2="150.49" y2="134.93"/><line class="cls-5" x1="150.49" y1="134.93" x2="150.39" y2="135.2"/><line class="cls-5" x1="150.39" y1="135.2" x2="150.17" y2="135.69"/><line class="cls-5" x1="150.17" y1="135.69" x2="150.01" y2="136.12"/><line class="cls-5" x1="150.01" y1="136.12" x2="150.01" y2="136.12"/><line class="cls-5" x1="150.01" y1="136.12" x2="150.01" y2="136.12"/><line class="cls-5" x1="150.01" y1="136.12" x2="149.95" y2="136.12"/><line class="cls-5" x1="149.95" y1="136.12" x2="149.95" y2="136.12"/><line class="cls-5" x1="149.95" y1="136.12" x2="149.95" y2="136.12"/><line class="cls-5" x1="149.95" y1="136.12" x2="149.95" y2="136.12"/><line class="cls-5" x1="149.95" y1="136.12" x2="149.95" y2="136.06"/><line class="cls-5" x1="149.95" y1="136.06" x2="149.9" y2="136.06"/><line class="cls-5" x1="149.9" y1="136.06" x2="149.9" y2="136.06"/><line class="cls-5" x1="149.9" y1="136.06" x2="149.9" y2="136.01"/><line class="cls-5" x1="149.9" y1="136.01" x2="149.9" y2="136.01"/><line class="cls-5" x1="149.9" y1="136.01" x2="149.85" y2="136.01"/><line class="cls-5" x1="149.85" y1="136.01" x2="149.85" y2="136.01"/><line class="cls-5" x1="149.85" y1="136.01" x2="149.85" y2="136.01"/><line class="cls-5" x1="149.85" y1="136.01" x2="149.85" y2="136.01"/><line class="cls-5" x1="149.85" y1="136.01" x2="149.79" y2="136.01"/><line class="cls-5" x1="149.79" y1="136.01" x2="149.79" y2="136.01"/><line class="cls-5" x1="149.79" y1="220.41" x2="148.39" y2="219.76"/><line class="cls-5" x1="148.39" y1="219.76" x2="146.93" y2="220.2"/><line class="cls-5" x1="146.93" y1="220.2" x2="145.53" y2="218.95"/><line class="cls-5" x1="145.53" y1="218.95" x2="144.18" y2="218.2"/><line class="cls-5" x1="144.18" y1="218.2" x2="142.77" y2="217.5"/><line class="cls-5" x1="142.77" y1="217.5" x2="141.37" y2="217.5"/><line class="cls-5" x1="141.37" y1="217.5" x2="140.13" y2="215.82"/><line class="cls-5" x1="140.13" y1="215.82" x2="138.88" y2="214.74"/><line class="cls-5" x1="138.88" y1="214.74" x2="137.53" y2="214.53"/><line class="cls-5" x1="137.53" y1="214.53" x2="136.4" y2="212.91"/><line class="cls-5" x1="136.4" y1="212.91" x2="135.16" y2="212.47"/><line class="cls-5" x1="135.16" y1="212.47" x2="134.02" y2="211.34"/><line class="cls-5" x1="134.02" y1="211.34" x2="132.84" y2="210.53"/><line class="cls-5" x1="132.84" y1="210.53" x2="131.76" y2="209.29"/><line class="cls-5" x1="131.76" y1="209.29" x2="130.89" y2="207.45"/><line class="cls-5" x1="130.89" y1="207.45" x2="129.7" y2="206.97"/><line class="cls-5" x1="129.7" y1="206.97" x2="129" y2="204.91"/><line class="cls-5" x1="129" y1="204.91" x2="128.08" y2="203.78"/><line class="cls-5" x1="128.08" y1="203.78" x2="127.33" y2="202.21"/><line class="cls-5" x1="127.33" y1="202.21" x2="126.19" y2="201.73"/><line class="cls-5" x1="126.19" y1="201.73" x2="125.71" y2="199.73"/><line class="cls-5" x1="125.71" y1="199.73" x2="125.01" y2="198.33"/><line class="cls-5" x1="125.01" y1="198.33" x2="124.25" y2="197.14"/><line class="cls-5" x1="124.25" y1="197.14" x2="123.66" y2="195.57"/><line class="cls-5" x1="123.66" y1="195.57" x2="123.28" y2="193.79"/><line class="cls-5" x1="123.28" y1="193.79" x2="122.95" y2="191.95"/><line class="cls-5" x1="122.95" y1="191.95" x2="122.25" y2="190.98"/><line class="cls-5" x1="122.25" y1="190.98" x2="122.14" y2="188.88"/><line class="cls-5" x1="122.14" y1="188.88" x2="121.87" y2="187.26"/><line class="cls-5" x1="121.87" y1="187.26" x2="121.66" y2="185.64"/><line class="cls-5" x1="121.66" y1="185.64" x2="121.39" y2="184.12"/><line class="cls-5" x1="121.39" y1="184.12" x2="121.5" y2="182.18"/><line class="cls-5" x1="121.5" y1="182.18" x2="121.23" y2="180.94"/><line class="cls-5" x1="121.23" y1="180.94" x2="121.44" y2="178.94"/><line class="cls-5" x1="121.44" y1="178.94" x2="121.28" y2="177.64"/><line class="cls-5" x1="121.28" y1="177.64" x2="121.5" y2="175.86"/><line class="cls-5" x1="121.5" y1="175.86" x2="122.09" y2="173.7"/><line class="cls-5" x1="122.09" y1="173.7" x2="121.98" y2="172.46"/><line class="cls-5" x1="121.98" y1="172.46" x2="122.52" y2="170.57"/><line class="cls-5" x1="122.52" y1="170.57" x2="122.95" y2="168.9"/><line class="cls-5" x1="122.95" y1="168.9" x2="123.66" y2="166.95"/><line class="cls-5" x1="123.66" y1="166.95" x2="124.03" y2="165.49"/><line class="cls-5" x1="124.03" y1="165.49" x2="124.84" y2="163.6"/><line class="cls-5" x1="124.84" y1="163.6" x2="125.33" y2="162.2"/><line class="cls-5" x1="125.33" y1="162.2" x2="126.3" y2="160.36"/><line class="cls-5" x1="126.3" y1="160.36" x2="127.22" y2="158.64"/><line class="cls-5" x1="127.22" y1="158.64" x2="127.87" y2="157.34"/><line class="cls-5" x1="127.87" y1="157.34" x2="129.11" y2="155.5"/><line class="cls-5" x1="129.11" y1="155.5" x2="130.08" y2="154.05"/><line class="cls-5" x1="130.08" y1="154.05" x2="131.16" y2="152.48"/><line class="cls-5" x1="131.16" y1="152.48" x2="132.08" y2="151.18"/><line class="cls-5" x1="132.08" y1="151.18" x2="133.43" y2="149.67"/><line class="cls-5" x1="133.43" y1="149.67" x2="134.4" y2="148.43"/><line class="cls-5" x1="134.4" y1="148.43" x2="135.59" y2="147.19"/><line class="cls-5" x1="135.59" y1="147.19" x2="136.67" y2="146.05"/><line class="cls-5" x1="136.67" y1="146.05" x2="137.53" y2="145.14"/><line class="cls-5" x1="137.53" y1="145.14" x2="138.45" y2="144.22"/><line class="cls-5" x1="138.45" y1="144.22" x2="139.05" y2="143.57"/><line class="cls-5" x1="139.05" y1="143.57" x2="139.48" y2="143.08"/><line class="cls-5" x1="139.48" y1="143.08" x2="139.75" y2="142.65"/><line class="cls-5" x1="139.75" y1="142.65" x2="139.86" y2="142.38"/><line class="cls-5" x1="139.86" y1="142.38" x2="140.07" y2="142"/><line class="cls-5" x1="140.07" y1="142" x2="140.23" y2="141.73"/><line class="cls-5" x1="140.23" y1="141.73" x2="140.56" y2="141.36"/><line class="cls-5" x1="140.56" y1="141.36" x2="140.67" y2="141.09"/><line class="cls-5" x1="140.67" y1="141.09" x2="140.94" y2="140.76"/><line class="cls-5" x1="140.94" y1="140.76" x2="141.37" y2="140.44"/><line class="cls-5" x1="141.37" y1="140.44" x2="141.69" y2="140.11"/><line class="cls-5" x1="141.69" y1="140.11" x2="142.07" y2="139.79"/><line class="cls-5" x1="142.07" y1="139.79" x2="142.45" y2="139.52"/><line class="cls-5" x1="142.45" y1="139.52" x2="142.72" y2="139.25"/><line class="cls-5" x1="142.72" y1="139.25" x2="143.15" y2="138.98"/><line class="cls-5" x1="143.15" y1="138.98" x2="143.53" y2="138.76"/><line class="cls-5" x1="143.53" y1="138.76" x2="144.01" y2="138.49"/><line class="cls-5" x1="144.01" y1="138.49" x2="144.45" y2="138.28"/><line class="cls-5" x1="144.45" y1="138.28" x2="144.93" y2="138.06"/><line class="cls-5" x1="144.93" y1="138.06" x2="145.42" y2="137.85"/><line class="cls-5" x1="145.42" y1="137.85" x2="145.85" y2="137.68"/><line class="cls-5" x1="145.85" y1="137.68" x2="146.39" y2="137.47"/><line class="cls-5" x1="146.39" y1="137.47" x2="146.82" y2="137.36"/><line class="cls-5" x1="146.82" y1="137.36" x2="147.42" y2="137.2"/><line class="cls-5" x1="147.42" y1="137.2" x2="147.85" y2="137.09"/><line class="cls-5" x1="147.85" y1="137.09" x2="148.39" y2="136.98"/><line class="cls-5" x1="148.39" y1="136.98" x2="148.93" y2="136.93"/><line class="cls-5" x1="148.93" y1="136.93" x2="149.41" y2="136.87"/><line class="cls-5" x1="149.41" y1="136.87" x2="149.52" y2="136.87"/><line class="cls-5" x1="149.52" y1="136.87" x2="149.47" y2="136.87"/><line class="cls-5" x1="149.47" y1="136.87" x2="149.47" y2="136.87"/><line class="cls-5" x1="149.47" y1="136.87" x2="149.36" y2="136.87"/><line class="cls-5" x1="149.36" y1="136.87" x2="149.36" y2="136.87"/><line class="cls-5" x1="149.36" y1="136.87" x2="149.31" y2="136.87"/><line class="cls-5" x1="149.31" y1="136.87" x2="149.25" y2="136.87"/><line class="cls-5" x1="149.25" y1="136.87" x2="149.14" y2="136.82"/><line class="cls-5" x1="149.14" y1="136.82" x2="149.14" y2="136.82"/><line class="cls-5" x1="149.14" y1="136.82" x2="149.09" y2="136.82"/><line class="cls-5" x1="149.09" y1="136.82" x2="148.98" y2="136.77"/><line class="cls-5" x1="148.98" y1="136.77" x2="148.93" y2="136.77"/><line class="cls-5" x1="148.93" y1="136.77" x2="148.87" y2="136.71"/><line class="cls-5" x1="148.87" y1="136.71" x2="148.77" y2="136.71"/><line class="cls-5" x1="148.77" y1="136.71" x2="148.71" y2="136.66"/><line class="cls-5" x1="148.71" y1="136.66" x2="148.66" y2="136.66"/><line class="cls-5" x1="148.66" y1="136.66" x2="148.5" y2="136.6"/><line class="cls-5" x1="148.5" y1="136.6" x2="148.5" y2="136.55"/><line class="cls-5" x1="148.5" y1="136.55" x2="148.33" y2="136.5"/><line class="cls-5" x1="148.33" y1="136.5" x2="148.28" y2="136.44"/><line class="cls-5" x1="148.28" y1="136.44" x2="148.23" y2="136.39"/><line class="cls-5" x1="148.23" y1="136.39" x2="148.06" y2="136.33"/><line class="cls-5" x1="148.06" y1="136.33" x2="148.01" y2="136.28"/><line class="cls-5" x1="148.01" y1="136.28" x2="147.9" y2="136.23"/><line class="cls-5" x1="147.9" y1="136.23" x2="147.74" y2="136.12"/><line class="cls-5" x1="147.74" y1="136.12" x2="147.63" y2="136.01"/><line class="cls-5" x1="147.63" y1="136.01" x2="147.52" y2="135.9"/><line class="cls-5" x1="147.52" y1="135.9" x2="147.47" y2="135.85"/><line class="cls-5" x1="147.47" y1="135.85" x2="147.25" y2="135.74"/><line class="cls-5" x1="147.25" y1="135.74" x2="147.2" y2="135.63"/><line class="cls-5" x1="147.2" y1="135.63" x2="147.04" y2="135.47"/><line class="cls-5" x1="147.04" y1="135.47" x2="146.93" y2="135.36"/><line class="cls-5" x1="146.93" y1="135.36" x2="146.82" y2="135.25"/><line class="cls-5" x1="146.82" y1="135.25" x2="146.61" y2="135.09"/><line class="cls-5" x1="146.61" y1="135.09" x2="146.55" y2="134.98"/><line class="cls-5" x1="146.55" y1="134.98" x2="146.34" y2="134.77"/><line class="cls-5" x1="146.34" y1="134.77" x2="146.28" y2="134.66"/><line class="cls-5" x1="146.28" y1="134.66" x2="146.17" y2="134.5"/><line class="cls-5" x1="146.17" y1="134.5" x2="146.01" y2="134.28"/><line class="cls-5" x1="146.01" y1="134.28" x2="145.9" y2="134.12"/><line class="cls-5" x1="145.9" y1="134.12" x2="145.74" y2="133.9"/><line class="cls-5" x1="145.74" y1="133.9" x2="145.69" y2="133.74"/><line class="cls-5" x1="145.69" y1="133.74" x2="145.58" y2="133.53"/><line class="cls-5" x1="145.58" y1="133.53" x2="145.42" y2="133.31"/><line class="cls-5" x1="145.42" y1="133.31" x2="145.36" y2="133.15"/><line class="cls-5" x1="145.36" y1="133.15" x2="145.31" y2="132.93"/><line class="cls-5" x1="145.31" y1="132.93" x2="145.26" y2="132.72"/><line class="cls-5" x1="145.26" y1="132.72" x2="145.2" y2="132.55"/><line class="cls-5" x1="145.2" y1="132.55" x2="145.09" y2="132.28"/><line class="cls-5" x1="145.09" y1="132.28" x2="145.04" y2="132.07"/><line class="cls-5" x1="145.04" y1="132.07" x2="144.99" y2="131.85"/><line class="cls-5" x1="144.99" y1="131.85" x2="144.88" y2="131.53"/><line class="cls-5" x1="144.88" y1="131.53" x2="144.88" y2="131.37"/><line class="cls-5" x1="144.88" y1="131.37" x2="144.82" y2="131.1"/><line class="cls-5" x1="144.82" y1="131.1" x2="144.93" y2="130.99"/><line class="cls-5" x1="144.93" y1="130.99" x2="144.99" y2="130.88"/><line class="cls-5" x1="144.99" y1="130.88" x2="145.04" y2="130.72"/><line class="cls-5" x1="145.04" y1="130.72" x2="145.15" y2="130.61"/><line class="cls-5" x1="145.15" y1="130.61" x2="145.15" y2="130.45"/><line class="cls-5" x1="145.15" y1="130.45" x2="145.2" y2="130.23"/><line class="cls-5" x1="145.2" y1="130.23" x2="144.99" y2="129.69"/><line class="cls-5" x1="144.99" y1="129.69" x2="144.77" y2="129.1"/><line class="cls-5" x1="144.77" y1="129.1" x2="144.72" y2="128.67"/><line class="cls-5" x1="144.72" y1="128.67" x2="144.93" y2="128.67"/><line class="cls-5" x1="144.93" y1="128.67" x2="145.36" y2="129.1"/><line class="cls-5" x1="145.36" y1="129.1" x2="145.85" y2="129.69"/><line class="cls-5" x1="145.85" y1="129.69" x2="146.39" y2="130.39"/><line class="cls-5" x1="146.39" y1="130.39" x2="146.71" y2="130.72"/><line class="cls-5" x1="146.71" y1="130.72" x2="146.88" y2="130.83"/><line class="cls-5" x1="146.88" y1="130.83" x2="146.98" y2="130.77"/><line class="cls-5" x1="146.98" y1="130.77" x2="147.2" y2="130.99"/><line class="cls-5" x1="147.2" y1="130.99" x2="148.01" y2="132.5"/><line class="cls-5" x1="148.01" y1="132.5" x2="148.77" y2="134.17"/><line class="cls-5" x1="148.77" y1="134.17" x2="149.04" y2="134.71"/><line class="cls-5" x1="149.04" y1="134.71" x2="149.14" y2="134.98"/><line class="cls-5" x1="149.14" y1="134.98" x2="149.36" y2="135.42"/><line class="cls-5" x1="149.36" y1="135.42" x2="149.52" y2="135.85"/><line class="cls-5" x1="149.52" y1="135.85" x2="149.58" y2="136.06"/><line class="cls-5" x1="149.58" y1="136.06" x2="149.63" y2="136.06"/><line class="cls-5" x1="149.63" y1="136.06" x2="149.63" y2="136.06"/><line class="cls-5" x1="149.63" y1="136.06" x2="149.63" y2="136.06"/><line class="cls-5" x1="149.63" y1="136.06" x2="149.63" y2="136.06"/><line class="cls-5" x1="149.63" y1="136.06" x2="149.68" y2="136.06"/><line class="cls-5" x1="149.68" y1="136.06" x2="149.68" y2="136.06"/><line class="cls-5" x1="149.68" y1="136.06" x2="149.68" y2="136.06"/><line class="cls-5" x1="149.68" y1="136.06" x2="149.74" y2="136.06"/><line class="cls-5" x1="149.74" y1="136.06" x2="149.74" y2="136.06"/><line class="cls-5" x1="149.74" y1="136.06" x2="149.74" y2="136.01"/><line class="cls-5" x1="149.74" y1="136.01" x2="149.74" y2="136.01"/><line class="cls-5" x1="149.74" y1="136.01" x2="149.79" y2="136.01"/><line class="cls-5" x1="149.79" y1="136.01" x2="149.79" y2="136.01"/><line class="cls-5" x1="149.79" y1="136.01" x2="149.79" y2="136.01"/><line class="cls-5" x1="149.79" y1="136.01" x2="149.79" y2="136.01"/><line class="cls-5" x1="149.79" y1="136.01" x2="149.79" y2="136.01"/><line class="cls-5" x1="149.79" y1="136.01" x2="149.79" y2="136.01"/><line class="cls-5" x1="149.79" y1="220.41" x2="150.01" y2="220.3"/><line class="cls-5" x1="151.14" y1="219.66" x2="151.25" y2="219.6"/><line class="cls-5" x1="151.25" y1="219.6" x2="151.36" y2="219.6"/><line class="cls-5" x1="152.6" y1="219.87" x2="152.71" y2="219.87"/><line class="cls-5" x1="152.71" y1="219.87" x2="152.87" y2="219.87"/><line class="cls-5" x1="154.11" y1="220.09" x2="154.17" y2="220.09"/><line class="cls-5" x1="154.17" y1="220.09" x2="154.38" y2="220.09"/><line class="cls-5" x1="155.68" y1="219.93" x2="155.89" y2="219.76"/><line class="cls-5" x1="156.97" y1="219.01" x2="156.97" y2="219.01"/><line class="cls-5" x1="156.97" y1="219.01" x2="157.24" y2="218.95"/><line class="cls-5" x1="158.54" y1="218.85" x2="158.76" y2="218.79"/><line class="cls-5" x1="160" y1="218.52" x2="160.16" y2="218.36"/><line class="cls-5" x1="161.24" y1="217.66" x2="161.46" y2="217.6"/><line class="cls-5" x1="162.75" y1="217.44" x2="163.02" y2="217.44"/><line class="cls-5" x1="164.26" y1="217.17" x2="164.43" y2="216.96"/><line class="cls-5" x1="165.24" y1="215.98" x2="165.45" y2="215.88"/><line class="cls-5" x1="166.64" y1="215.5" x2="166.86" y2="215.44"/><line class="cls-5" x1="168.1" y1="215.01" x2="168.26" y2="214.8"/><line class="cls-5" x1="169.18" y1="213.88" x2="169.34" y2="213.72"/><line class="cls-5" x1="170.37" y1="212.96" x2="170.58" y2="212.91"/><line class="cls-5" x1="171.72" y1="212.37" x2="171.88" y2="212.2"/><line class="cls-5" x1="172.63" y1="211.12" x2="172.8" y2="210.91"/><line class="cls-5" x1="173.66" y1="209.88" x2="173.82" y2="209.72"/><line class="cls-5" x1="174.79" y1="208.86" x2="174.96" y2="208.69"/><line class="cls-5" x1="175.82" y1="207.72" x2="175.93" y2="207.51"/><line class="cls-5" x1="176.63" y1="206.48" x2="176.79" y2="206.26"/><line class="cls-5" x1="177.49" y1="205.18" x2="177.71" y2="205.08"/><line class="cls-5" x1="178.68" y1="204.32" x2="178.79" y2="204.1"/><line class="cls-5" x1="179.22" y1="202.92" x2="179.33" y2="202.7"/><line class="cls-5" x1="179.71" y1="201.51" x2="179.82" y2="201.3"/><line class="cls-5" x1="180.46" y1="200.16" x2="180.57" y2="199.95"/><line class="cls-5" x1="181.17" y1="198.81" x2="181.27" y2="198.6"/><line class="cls-5" x1="181.98" y1="197.52" x2="182.03" y2="197.41"/><line class="cls-5" x1="182.03" y1="197.41" x2="182.03" y2="197.3"/><line class="cls-5" x1="182.3" y1="196.06" x2="182.3" y2="195.79"/><line class="cls-5" x1="182.62" y1="194.55" x2="182.68" y2="194.33"/><line class="cls-5" x1="183.27" y1="193.2" x2="183.43" y2="192.98"/><line class="cls-5" x1="183.54" y1="191.68" x2="183.6" y2="191.41"/><line class="cls-5" x1="183.65" y1="190.12" x2="183.7" y2="189.9"/><line class="cls-5" x1="183.81" y1="188.61" x2="183.81" y2="188.34"/><line class="cls-5" x1="184.08" y1="187.09" x2="184.24" y2="186.88"/><line class="cls-5" x1="184.41" y1="185.69" x2="184.35" y2="185.47"/><line class="cls-5" x1="184.14" y1="184.23" x2="184.14" y2="184.12"/><line class="cls-5" x1="184.14" y1="184.12" x2="184.14" y2="183.96"/><line class="cls-5" x1="184.35" y1="182.72" x2="184.35" y2="182.67"/><line class="cls-5" x1="184.35" y1="182.67" x2="184.35" y2="182.45"/><line class="cls-5" x1="184.24" y1="181.15" x2="184.19" y2="180.94"/><line class="cls-5" x1="184.24" y1="179.64" x2="184.24" y2="179.37"/><line class="cls-5" x1="183.97" y1="178.13" x2="183.92" y2="177.86"/><line class="cls-5" x1="183.81" y1="176.56" x2="183.81" y2="176.29"/><line class="cls-5" x1="183.54" y1="175.05" x2="183.43" y2="174.84"/><line class="cls-5" x1="183.11" y1="173.59" x2="183.06" y2="173.38"/><line class="cls-5" x1="182.84" y1="172.14" x2="182.79" y2="171.92"/><line class="cls-5" x1="182.41" y1="170.68" x2="182.41" y2="170.62"/><line class="cls-5" x1="182.41" y1="170.62" x2="182.35" y2="170.46"/><line class="cls-5" x1="181.98" y1="169.27" x2="181.87" y2="169.06"/><line class="cls-5" x1="181.49" y1="167.87" x2="181.44" y2="167.65"/><line class="cls-5" x1="180.95" y1="166.47" x2="180.9" y2="166.25"/><line class="cls-5" x1="180.36" y1="165.12" x2="180.25" y2="164.9"/><line class="cls-5" x1="179.65" y1="163.82" x2="179.55" y2="163.66"/><line class="cls-5" x1="179.55" y1="163.66" x2="179.55" y2="163.6"/><line class="cls-5" x1="179.06" y1="162.47" x2="178.95" y2="162.25"/><line class="cls-5" x1="178.36" y1="161.12" x2="178.2" y2="160.9"/><line class="cls-5" x1="177.55" y1="159.77" x2="177.44" y2="159.55"/><line class="cls-5" x1="176.74" y1="158.47" x2="176.58" y2="158.26"/><line class="cls-5" x1="175.82" y1="157.18" x2="175.82" y2="157.18"/><line class="cls-5" x1="175.82" y1="157.18" x2="175.71" y2="156.96"/><line class="cls-5" x1="175.01" y1="155.88" x2="174.96" y2="155.77"/><line class="cls-5" x1="174.96" y1="155.77" x2="174.85" y2="155.67"/><line class="cls-5" x1="174.04" y1="154.64" x2="173.88" y2="154.42"/><line class="cls-5" x1="173.12" y1="153.34" x2="172.96" y2="153.13"/><line class="cls-5" x1="172.09" y1="152.1" x2="171.93" y2="151.94"/><line class="cls-5" x1="171.07" y1="150.91" x2="170.91" y2="150.7"/><line class="cls-5" x1="170.04" y1="149.67" x2="169.88" y2="149.51"/><line class="cls-5" x1="168.96" y1="148.54" x2="168.8" y2="148.38"/><line class="cls-5" x1="167.83" y1="147.46" x2="167.67" y2="147.3"/><line class="cls-5" x1="166.75" y1="146.38" x2="166.59" y2="146.22"/><line class="cls-5" x1="165.61" y1="145.3" x2="165.51" y2="145.19"/><line class="cls-5" x1="165.51" y1="145.19" x2="165.45" y2="145.14"/><line class="cls-5" x1="164.48" y1="144.27" x2="164.26" y2="144.11"/><line class="cls-5" x1="163.24" y1="143.3" x2="163.08" y2="143.14"/><line class="cls-5" x1="162.05" y1="142.33" x2="161.94" y2="142.22"/><line class="cls-5" x1="161.94" y1="142.22" x2="161.89" y2="142.17"/><line class="cls-5" x1="160.81" y1="141.41" x2="160.59" y2="141.25"/><line class="cls-5" x1="159.57" y1="140.49" x2="159.35" y2="140.38"/><line class="cls-5" x1="158.27" y1="139.74" x2="158.05" y2="139.57"/><line class="cls-5" x1="156.97" y1="138.87" x2="156.87" y2="138.82"/><line class="cls-5" x1="156.87" y1="138.82" x2="156.76" y2="138.76"/><line class="cls-5" x1="155.62" y1="138.12" x2="155.41" y2="138.01"/><line class="cls-5" x1="154.22" y1="137.58" x2="154" y2="137.47"/><line class="cls-5" x1="152.76" y1="137.09" x2="152.71" y2="137.09"/><line class="cls-5" x1="152.71" y1="137.09" x2="152.55" y2="137.04"/><line class="cls-5" x1="151.3" y1="136.82" x2="151.14" y2="136.82"/><line class="cls-5" x1="151.14" y1="136.82" x2="151.03" y2="136.82"/><line class="cls-5" x1="151.2" y1="136.44" x2="151.2" y2="136.44"/><line class="cls-5" x1="151.2" y1="136.44" x2="151.36" y2="136.39"/><line class="cls-5" x1="151.36" y1="136.39" x2="151.41" y2="136.33"/><line class="cls-5" x1="152.38" y1="135.52" x2="152.38" y2="135.52"/><line class="cls-5" x1="152.38" y1="135.52" x2="152.49" y2="135.47"/><line class="cls-5" x1="152.49" y1="135.47" x2="152.55" y2="135.36"/><line class="cls-5" x1="153.41" y1="134.39" x2="153.46" y2="134.28"/><line class="cls-5" x1="153.46" y1="134.28" x2="153.52" y2="134.17"/><line class="cls-5" x1="154.11" y1="133.09" x2="154.11" y2="133.09"/><line class="cls-5" x1="154.11" y1="133.09" x2="154.22" y2="132.88"/><line class="cls-5" x1="154.6" y1="131.69" x2="154.6" y2="131.58"/><line class="cls-5" x1="154.6" y1="131.58" x2="154.54" y2="131.47"/><line class="cls-5" x1="153.52" y1="131.1" x2="153.52" y2="131.1"/><line class="cls-5" x1="153.52" y1="131.1" x2="153.46" y2="131.04"/><line class="cls-5" x1="153.46" y1="131.04" x2="153.3" y2="131.1"/><line class="cls-5" x1="152.22" y1="131.91" x2="152.17" y2="131.96"/><line class="cls-5" x1="152.17" y1="131.96" x2="152.06" y2="132.12"/><line class="cls-5" x1="151.3" y1="133.2" x2="151.2" y2="133.42"/><line class="cls-5" x1="150.66" y1="134.55" x2="150.55" y2="134.77"/><line class="cls-5" x1="150.06" y1="135.96" x2="150.06" y2="136.01"/><line class="cls-5" x1="150.06" y1="136.01" x2="150.01" y2="136.12"/><line class="cls-5" x1="150.01" y1="136.12" x2="150.01" y2="136.06"/><line class="cls-5" x1="148.87" y1="219.87" x2="148.66" y2="219.76"/><line class="cls-5" x1="147.47" y1="219.76" x2="147.25" y2="219.82"/><line class="cls-5" x1="146.01" y1="220.03" x2="145.74" y2="220.03"/><line class="cls-5" x1="144.45" y1="220.03" x2="144.23" y2="219.98"/><line class="cls-5" x1="143.1" y1="219.33" x2="142.88" y2="219.17"/><line class="cls-5" x1="141.64" y1="218.9" x2="141.42" y2="218.85"/><line class="cls-5" x1="140.13" y1="218.68" x2="139.91" y2="218.63"/><line class="cls-5" x1="138.83" y1="217.87" x2="138.61" y2="217.71"/><line class="cls-5" x1="137.37" y1="217.5" x2="137.16" y2="217.44"/><line class="cls-5" x1="135.86" y1="217.5" x2="135.64" y2="217.5"/><line class="cls-5" x1="135.64" y1="217.5" x2="135.59" y2="217.44"/><line class="cls-5" x1="134.78" y1="216.42" x2="134.62" y2="216.2"/><line class="cls-5" x1="133.54" y1="215.66" x2="133.32" y2="215.55"/><line class="cls-5" x1="132.08" y1="215.28" x2="131.86" y2="215.23"/><line class="cls-5" x1="130.89" y1="214.31" x2="130.73" y2="214.09"/><line class="cls-5" x1="129.7" y1="213.23" x2="129.49" y2="213.07"/><line class="cls-5" x1="128.3" y1="212.69" x2="128.08" y2="212.64"/><line class="cls-5" x1="127.33" y1="211.56" x2="127.17" y2="211.34"/><line class="cls-5" x1="126.36" y1="210.31" x2="126.19" y2="210.15"/><line class="cls-5" x1="125.28" y1="209.23" x2="125.06" y2="209.07"/><line class="cls-5" x1="124.14" y1="208.1" x2="123.98" y2="207.94"/><line class="cls-5" x1="123.22" y1="206.86" x2="123.12" y2="206.64"/><line class="cls-5" x1="122.41" y1="205.56" x2="122.25" y2="205.35"/><line class="cls-5" x1="121.17" y1="204.64" x2="121.06" y2="204.59"/><line class="cls-5" x1="121.06" y1="204.59" x2="121.01" y2="204.48"/><line class="cls-5" x1="120.52" y1="203.29" x2="120.47" y2="203.08"/><line class="cls-5" x1="120.04" y1="201.89" x2="119.98" y2="201.67"/><line class="cls-5" x1="119.39" y1="200.54" x2="119.28" y2="200.32"/><line class="cls-5" x1="118.69" y1="199.19" x2="118.58" y2="198.97"/><line class="cls-5" x1="117.93" y1="197.89" x2="117.77" y2="197.68"/><line class="cls-5" x1="117.45" y1="196.49" x2="117.39" y2="196.27"/><line class="cls-5" x1="117.12" y1="195.03" x2="117.07" y2="194.82"/><line class="cls-5" x1="116.64" y1="193.63" x2="116.47" y2="193.41"/><line class="cls-5" x1="116.1" y1="192.22" x2="116.1" y2="191.95"/><line class="cls-5" x1="116.04" y1="190.66" x2="115.99" y2="190.44"/><line class="cls-5" x1="115.88" y1="189.15" x2="115.88" y2="189.15"/><line class="cls-5" x1="115.88" y1="189.15" x2="115.88" y2="188.88"/><line class="cls-5" x1="115.72" y1="187.58" x2="115.72" y2="187.42"/><line class="cls-5" x1="115.72" y1="187.42" x2="115.66" y2="187.36"/><line class="cls-5" x1="115.18" y1="186.23" x2="115.18" y2="185.96"/><line class="cls-5" x1="115.39" y1="184.72" x2="115.45" y2="184.5"/><line class="cls-5" x1="115.34" y1="183.21" x2="115.34" y2="182.94"/><line class="cls-5" x1="115.39" y1="181.64" x2="115.39" y2="181.37"/><line class="cls-5" x1="115.39" y1="180.07" x2="115.39" y2="179.8"/><line class="cls-5" x1="115.56" y1="178.51" x2="115.61" y2="178.29"/><line class="cls-5" x1="115.83" y1="177.05" x2="115.83" y2="176.78"/><line class="cls-5" x1="115.99" y1="175.48" x2="116.04" y2="175.27"/><line class="cls-5" x1="116.42" y1="174.08" x2="116.47" y2="173.86"/><line class="cls-5" x1="116.69" y1="172.62" x2="116.74" y2="172.41"/><line class="cls-5" x1="117.07" y1="171.16" x2="117.12" y2="170.95"/><line class="cls-5" x1="117.5" y1="169.76" x2="117.61" y2="169.54"/><line class="cls-5" x1="117.99" y1="168.36" x2="118.04" y2="168.14"/><line class="cls-5" x1="118.47" y1="166.95" x2="118.53" y2="166.74"/><line class="cls-5" x1="119.07" y1="165.6" x2="119.12" y2="165.44"/><line class="cls-5" x1="119.12" y1="165.44" x2="119.17" y2="165.39"/><line class="cls-5" x1="119.77" y1="164.25" x2="119.88" y2="164.04"/><line class="cls-5" x1="120.42" y1="162.9" x2="120.52" y2="162.69"/><line class="cls-5" x1="121.06" y1="161.55" x2="121.17" y2="161.34"/><line class="cls-5" x1="121.82" y1="160.2" x2="121.93" y2="159.99"/><line class="cls-5" x1="122.58" y1="158.91" x2="122.63" y2="158.85"/><line class="cls-5" x1="122.63" y1="158.85" x2="122.74" y2="158.69"/><line class="cls-5" x1="123.49" y1="157.66" x2="123.6" y2="157.45"/><line class="cls-5" x1="124.3" y1="156.37" x2="124.47" y2="156.15"/><line class="cls-5" x1="125.22" y1="155.07" x2="125.38" y2="154.91"/><line class="cls-5" x1="126.14" y1="153.88" x2="126.3" y2="153.67"/><line class="cls-5" x1="127.06" y1="152.64" x2="127.22" y2="152.48"/><line class="cls-5" x1="128.08" y1="151.51" x2="128.08" y2="151.51"/><line class="cls-5" x1="128.08" y1="151.51" x2="128.25" y2="151.29"/><line class="cls-5" x1="129.11" y1="150.27" x2="129.27" y2="150.05"/><line class="cls-5" x1="130.14" y1="149.08" x2="130.3" y2="148.92"/><line class="cls-5" x1="131.22" y1="148" x2="131.38" y2="147.84"/><line class="cls-5" x1="132.35" y1="146.92" x2="132.51" y2="146.76"/><line class="cls-5" x1="133.43" y1="145.84" x2="133.59" y2="145.68"/><line class="cls-5" x1="134.56" y1="144.81" x2="134.73" y2="144.65"/><line class="cls-5" x1="135.75" y1="143.84" x2="135.91" y2="143.68"/><line class="cls-5" x1="136.94" y1="142.81" x2="137.16" y2="142.65"/><line class="cls-5" x1="138.18" y1="141.9" x2="138.34" y2="141.73"/><line class="cls-5" x1="139.37" y1="140.98" x2="139.59" y2="140.82"/><line class="cls-5" x1="140.67" y1="140.17" x2="140.67" y2="140.17"/><line class="cls-5" x1="140.67" y1="140.17" x2="140.88" y2="140.01"/><line class="cls-5" x1="141.96" y1="139.36" x2="142.18" y2="139.2"/><line class="cls-5" x1="143.26" y1="138.55" x2="143.47" y2="138.44"/><line class="cls-5" x1="144.61" y1="137.85" x2="144.82" y2="137.79"/><line class="cls-5" x1="146.01" y1="137.36" x2="146.07" y2="137.36"/><line class="cls-5" x1="146.07" y1="137.36" x2="146.23" y2="137.31"/><line class="cls-5" x1="147.42" y1="136.93" x2="147.58" y2="136.87"/><line class="cls-5" x1="147.58" y1="136.87" x2="147.63" y2="136.87"/><line class="cls-5" x1="148.93" y1="136.82" x2="148.93" y2="136.82"/><line class="cls-5" x1="148.93" y1="136.82" x2="149.14" y2="136.82"/><line class="cls-5" x1="149.14" y1="136.82" x2="149.14" y2="136.82"/><line class="cls-5" x1="149.14" y1="136.82" x2="149.09" y2="136.77"/><line class="cls-5" x1="147.96" y1="136.17" x2="147.96" y2="136.17"/><line class="cls-5" x1="147.96" y1="136.17" x2="147.85" y2="136.06"/><line class="cls-5" x1="147.85" y1="136.06" x2="147.79" y2="136.01"/><line class="cls-5" x1="146.88" y1="135.15" x2="146.88" y2="135.15"/><line class="cls-5" x1="146.88" y1="135.15" x2="146.71" y2="134.98"/><line class="cls-5" x1="145.96" y1="133.96" x2="145.96" y2="133.96"/><line class="cls-5" x1="145.96" y1="133.96" x2="145.85" y2="133.74"/><line class="cls-5" x1="145.31" y1="132.61" x2="145.2" y2="132.39"/><line class="cls-5" x1="145.2" y1="131.15" x2="145.2" y2="131.15"/><line class="cls-5" x1="145.2" y1="131.15" x2="145.36" y2="131.1"/><line class="cls-5" x1="145.36" y1="131.1" x2="145.42" y2="131.04"/><line class="cls-5" x1="146.66" y1="131.26" x2="146.71" y2="131.26"/><line class="cls-5" x1="146.71" y1="131.26" x2="146.88" y2="131.37"/><line class="cls-5" x1="147.69" y1="132.34" x2="147.85" y2="132.55"/><line class="cls-5" x1="148.55" y1="133.63" x2="148.66" y2="133.85"/><line class="cls-5" x1="149.2" y1="134.98" x2="149.2" y2="135.04"/><line class="cls-5" x1="149.2" y1="135.04" x2="149.31" y2="135.2"/></g></svg>