<svg id="Ariette_2" xmlns="http://www.w3.org/2000/svg" viewBox="0 0 300 263"><defs><style>.cls-1,.cls-3{fill:none;stroke-width:0.5px;}.cls-1{stroke:#000;}.cls-2{isolation:isolate;}.cls-3{stroke:#1d1d1b;stroke-miterlimit:3.86;}</style></defs><title>ariette-2-ceiling-wall-scarpa-flos-F0500009-spech-tech-02-300x263-01-01</title><line class="cls-1" x1="226.57" y1="227.18" x2="73.43" y2="227.18"/><line class="cls-1" x1="226.57" y1="229.35" x2="226.57" y2="224.87"/><line class="cls-1" x1="73.43" y1="229.35" x2="73.43" y2="224.87"/><g class="cls-2"><path d="M121.92,246.44h-1.15v-9.89l-2,1.8-.72-.87,2.88-2.37h1Z"/><path d="M129.7,234.92a3.21,3.21,0,0,1,2,.56,3.79,3.79,0,0,1,1.17,1.43,6,6,0,0,1,.56,1.89,13.82,13.82,0,0,1,.15,2,13.58,13.58,0,0,1-.15,2,6.17,6.17,0,0,1-.56,1.9,3.69,3.69,0,0,1-1.17,1.42,3.73,3.73,0,0,1-3.93,0,3.78,3.78,0,0,1-1.17-1.42,6.45,6.45,0,0,1-.56-1.9,13.53,13.53,0,0,1-.14-2,13.76,13.76,0,0,1,.14-2,6.3,6.3,0,0,1,.56-1.89,3.89,3.89,0,0,1,1.17-1.43A3.24,3.24,0,0,1,129.7,234.92Zm0,1.06a2.09,2.09,0,0,0-1.47.49,3.22,3.22,0,0,0-.81,1.24,6.1,6.1,0,0,0-.34,1.56c0,.56-.07,1.06-.07,1.51s0,.95.07,1.5a6.09,6.09,0,0,0,.34,1.57,3.19,3.19,0,0,0,.81,1.23,2.4,2.4,0,0,0,2.93,0,3.08,3.08,0,0,0,.81-1.23,6.09,6.09,0,0,0,.34-1.57c.05-.55.07-1.05.07-1.5s0-.95-.07-1.51a6.1,6.1,0,0,0-.34-1.56,3.11,3.11,0,0,0-.81-1.24A2.08,2.08,0,0,0,129.7,236Z"/><path d="M138.59,234.92a3.24,3.24,0,0,1,2,.56,3.89,3.89,0,0,1,1.17,1.43,6.3,6.3,0,0,1,.56,1.89,15.36,15.36,0,0,1,.14,2,15.09,15.09,0,0,1-.14,2,6.45,6.45,0,0,1-.56,1.9,3.78,3.78,0,0,1-1.17,1.42,3.75,3.75,0,0,1-3.94,0,3.66,3.66,0,0,1-1.16-1.42,6.17,6.17,0,0,1-.56-1.9,13.58,13.58,0,0,1-.15-2,13.82,13.82,0,0,1,.15-2,6,6,0,0,1,.56-1.89,3.77,3.77,0,0,1,1.16-1.43A3.26,3.26,0,0,1,138.59,234.92Zm0,1.06a2.06,2.06,0,0,0-1.46.49,3.11,3.11,0,0,0-.81,1.24,5.71,5.71,0,0,0-.34,1.56c0,.56-.08,1.06-.08,1.51s0,.95.08,1.5a5.7,5.7,0,0,0,.34,1.57,3.08,3.08,0,0,0,.81,1.23,2.07,2.07,0,0,0,1.46.5,2.09,2.09,0,0,0,1.47-.5,3.17,3.17,0,0,0,.8-1.23,5.71,5.71,0,0,0,.35-1.57c0-.55.07-1.05.07-1.5s0-.95-.07-1.51a5.72,5.72,0,0,0-.35-1.56,3.2,3.2,0,0,0-.8-1.24A2.09,2.09,0,0,0,138.59,236Z"/><path d="M147.49,234.92a3.26,3.26,0,0,1,2,.56,3.77,3.77,0,0,1,1.16,1.43,6,6,0,0,1,.56,1.89,13.82,13.82,0,0,1,.15,2,13.58,13.58,0,0,1-.15,2,6.17,6.17,0,0,1-.56,1.9,3.66,3.66,0,0,1-1.16,1.42,3.75,3.75,0,0,1-3.94,0,3.78,3.78,0,0,1-1.17-1.42,6.45,6.45,0,0,1-.56-1.9,15.09,15.09,0,0,1-.14-2,15.36,15.36,0,0,1,.14-2,6.3,6.3,0,0,1,.56-1.89,3.89,3.89,0,0,1,1.17-1.43A3.24,3.24,0,0,1,147.49,234.92Zm0,1.06a2.09,2.09,0,0,0-1.47.49,3.2,3.2,0,0,0-.8,1.24,5.72,5.72,0,0,0-.35,1.56c-.05.56-.07,1.06-.07,1.51s0,.95.07,1.5a5.71,5.71,0,0,0,.35,1.57,3.17,3.17,0,0,0,.8,1.23,2.09,2.09,0,0,0,1.47.5,2.07,2.07,0,0,0,1.46-.5,3.08,3.08,0,0,0,.81-1.23,5.7,5.7,0,0,0,.34-1.57c.05-.55.08-1.05.08-1.5s0-.95-.08-1.51a5.71,5.71,0,0,0-.34-1.56,3.11,3.11,0,0,0-.81-1.24A2.06,2.06,0,0,0,147.49,236Z"/><path d="M157.54,240.62c0-.28,0-.56,0-.83s0-.56,0-.84h1.13v1.14h0a2.44,2.44,0,0,1,1.07-1,2.94,2.94,0,0,1,1.35-.34,3.07,3.07,0,0,1,.65.07,2.25,2.25,0,0,1,.66.23,2,2,0,0,1,.6.47,2.28,2.28,0,0,1,.47.78,2.53,2.53,0,0,1,1-1.13,3.07,3.07,0,0,1,3.58.34,3.17,3.17,0,0,1,.68,2.17v4.75h-1v-4.37a3.25,3.25,0,0,0-.4-1.74,1.64,1.64,0,0,0-1.49-.61,2,2,0,0,0-1,.23,1.93,1.93,0,0,0-.65.62,2.8,2.8,0,0,0-.36.87,4.9,4.9,0,0,0-.11,1v4h-1.06v-4.37a3.16,3.16,0,0,0-.4-1.74,1.63,1.63,0,0,0-1.49-.61,2.67,2.67,0,0,0-.44.07,1.73,1.73,0,0,0-.71.35,2.67,2.67,0,0,0-.66.86,3.53,3.53,0,0,0-.3,1.6v3.84h-1.05Z"/><path d="M171.17,240.62c0-.28,0-.56,0-.83s0-.56,0-.84h1.13v1.14h0a2.41,2.41,0,0,1,1.06-1,2.94,2.94,0,0,1,1.35-.34,3,3,0,0,1,.65.07,2.25,2.25,0,0,1,.66.23,2,2,0,0,1,.6.47,2.47,2.47,0,0,1,.48.78,2.45,2.45,0,0,1,1-1.13,3.07,3.07,0,0,1,3.58.34,3.12,3.12,0,0,1,.69,2.17v4.75h-1.06v-4.37a3.16,3.16,0,0,0-.4-1.74,1.64,1.64,0,0,0-1.49-.61,2,2,0,0,0-1,.23,1.93,1.93,0,0,0-.65.62,3.07,3.07,0,0,0-.36.87,4.9,4.9,0,0,0-.11,1v4h-1.06v-4.37a3.16,3.16,0,0,0-.4-1.74,1.62,1.62,0,0,0-1.48-.61,2.39,2.39,0,0,0-.44.07,1.71,1.71,0,0,0-.72.35,2.67,2.67,0,0,0-.66.86,3.53,3.53,0,0,0-.3,1.6v3.84h-1.05Z"/></g><path class="cls-3" d="M226.4,216.49H73.26V61.22H226.4Zm-.34,0s-76.57-31.15-75.89-76.39,76.57-78.88,76.57-78.88M73.93,216.49s76.57-31.15,75.9-76.39S73.26,61.22,73.26,61.22"/></svg>