<svg id="Ariette_1" xmlns="http://www.w3.org/2000/svg" viewBox="0 0 300 263"><defs><style>.cls-1,.cls-3{fill:none;stroke-width:0.5px;}.cls-1{stroke:#000;}.cls-2{isolation:isolate;}.cls-3{stroke:#1d1d1b;stroke-miterlimit:3.86;}</style></defs><title>ariette-1-ceiling-wall-scarpa-flos-F0400009-spech-tech-02-300x263-01</title><line class="cls-1" x1="216.06" y1="226.88" x2="83.94" y2="226.88"/><line class="cls-1" x1="216.06" y1="228.75" x2="216.06" y2="224.88"/><line class="cls-1" x1="83.94" y1="228.75" x2="83.94" y2="224.88"/><g class="cls-2"><path d="M126,240.41a2,2,0,0,1-.68-.38,2.48,2.48,0,0,1-.54-.58,2.65,2.65,0,0,1-.35-.74,2.53,2.53,0,0,1-.13-.83,2.87,2.87,0,0,1,.26-1.22,3,3,0,0,1,.68-.94,3.27,3.27,0,0,1,1-.59,3.56,3.56,0,0,1,1.22-.21,3.46,3.46,0,0,1,1.21.21,3.16,3.16,0,0,1,1,.59,2.83,2.83,0,0,1,.69.94,2.87,2.87,0,0,1,.26,1.22,2.83,2.83,0,0,1-.13.83,3,3,0,0,1-.35.74,2.48,2.48,0,0,1-.54.58,2.08,2.08,0,0,1-.68.38v0a2.69,2.69,0,0,1,1.54,1.06,3.21,3.21,0,0,1,.57,1.92,3.05,3.05,0,0,1-.29,1.33,3.25,3.25,0,0,1-.79,1,3.41,3.41,0,0,1-1.13.65,4.18,4.18,0,0,1-1.37.22,4.14,4.14,0,0,1-1.37-.22,3.56,3.56,0,0,1-1.14-.65,3.38,3.38,0,0,1-.78-1,2.92,2.92,0,0,1-.3-1.33,3.21,3.21,0,0,1,.58-1.92,2.66,2.66,0,0,1,1.54-1.06Zm3.9,2.85a2.39,2.39,0,0,0-.66-1.66,2.26,2.26,0,0,0-.77-.49,3.06,3.06,0,0,0-2,0,2.21,2.21,0,0,0-.76.49,2.33,2.33,0,0,0-.49.74,2.57,2.57,0,0,0,0,1.84,2.18,2.18,0,0,0,.49.73,2.08,2.08,0,0,0,.76.49,2.9,2.9,0,0,0,2,0,2.12,2.12,0,0,0,.77-.49,2.16,2.16,0,0,0,.48-.73A2.32,2.32,0,0,0,129.88,243.26Zm-.42-5.28a2.07,2.07,0,0,0-.15-.8,1.74,1.74,0,0,0-.42-.63,2,2,0,0,0-.64-.42,2.11,2.11,0,0,0-.8-.15,2.07,2.07,0,0,0-.8.15,1.87,1.87,0,0,0-.64.42,1.9,1.9,0,0,0-.43.63,2.07,2.07,0,0,0-.15.8,2.11,2.11,0,0,0,.15.8,2.13,2.13,0,0,0,.43.63,1.87,1.87,0,0,0,.64.42,2.07,2.07,0,0,0,.8.15,2.11,2.11,0,0,0,.8-.15,2,2,0,0,0,.64-.42,1.93,1.93,0,0,0,.42-.63A2.11,2.11,0,0,0,129.46,238Z"/><path d="M136.34,234.92a3.24,3.24,0,0,1,2,.56,3.89,3.89,0,0,1,1.17,1.43,6.3,6.3,0,0,1,.56,1.89,13.76,13.76,0,0,1,.14,2,13.53,13.53,0,0,1-.14,2,6.45,6.45,0,0,1-.56,1.9,3.78,3.78,0,0,1-1.17,1.42,3.73,3.73,0,0,1-3.93,0,3.78,3.78,0,0,1-1.17-1.42,6.17,6.17,0,0,1-.56-1.9,13.58,13.58,0,0,1-.15-2,13.82,13.82,0,0,1,.15-2,6,6,0,0,1,.56-1.89,3.89,3.89,0,0,1,1.17-1.43A3.21,3.21,0,0,1,136.34,234.92Zm0,1.06a2.08,2.08,0,0,0-1.46.49,3.11,3.11,0,0,0-.81,1.24,6.1,6.1,0,0,0-.34,1.56c0,.56-.07,1.06-.07,1.51s0,.95.07,1.5a6.09,6.09,0,0,0,.34,1.57,3.08,3.08,0,0,0,.81,1.23,2.4,2.4,0,0,0,2.93,0,3.08,3.08,0,0,0,.81-1.23,6.09,6.09,0,0,0,.34-1.57c0-.55.07-1.05.07-1.5s0-.95-.07-1.51a6.1,6.1,0,0,0-.34-1.56,3.11,3.11,0,0,0-.81-1.24A2.09,2.09,0,0,0,136.34,236Z"/><path d="M145.24,234.92a3.24,3.24,0,0,1,2,.56,3.89,3.89,0,0,1,1.17,1.43,6.6,6.6,0,0,1,.56,1.89,15.36,15.36,0,0,1,.14,2,15.09,15.09,0,0,1-.14,2,6.77,6.77,0,0,1-.56,1.9,3.78,3.78,0,0,1-1.17,1.42,3.75,3.75,0,0,1-3.94,0,3.78,3.78,0,0,1-1.17-1.42,6.77,6.77,0,0,1-.56-1.9,15.09,15.09,0,0,1-.14-2,15.36,15.36,0,0,1,.14-2,6.6,6.6,0,0,1,.56-1.89,3.89,3.89,0,0,1,1.17-1.43A3.24,3.24,0,0,1,145.24,234.92Zm0,1.06a2,2,0,0,0-1.46.49,3.11,3.11,0,0,0-.81,1.24,6.11,6.11,0,0,0-.35,1.56c0,.56-.07,1.06-.07,1.51s0,.95.07,1.5a6.09,6.09,0,0,0,.35,1.57,3.08,3.08,0,0,0,.81,1.23,2.38,2.38,0,0,0,2.92,0,3.08,3.08,0,0,0,.81-1.23,6.09,6.09,0,0,0,.35-1.57c0-.55.07-1.05.07-1.5s0-.95-.07-1.51a6.11,6.11,0,0,0-.35-1.56,3.11,3.11,0,0,0-.81-1.24A2,2,0,0,0,145.24,236Z"/><path d="M155.29,240.62c0-.28,0-.56,0-.83s0-.56,0-.84h1.13v1.14h0a2.41,2.41,0,0,1,1.06-1,2.94,2.94,0,0,1,1.35-.34,3.07,3.07,0,0,1,.65.07,2.25,2.25,0,0,1,.66.23,2,2,0,0,1,.6.47,2.47,2.47,0,0,1,.48.78,2.45,2.45,0,0,1,1-1.13,3.07,3.07,0,0,1,3.58.34,3.12,3.12,0,0,1,.69,2.17v4.75H165.4v-4.37a3.16,3.16,0,0,0-.4-1.74,1.64,1.64,0,0,0-1.49-.61,2,2,0,0,0-1,.23,1.93,1.93,0,0,0-.65.62,3.07,3.07,0,0,0-.36.87,4.9,4.9,0,0,0-.11,1v4h-1.06v-4.37a3.16,3.16,0,0,0-.4-1.74,1.62,1.62,0,0,0-1.48-.61,2.52,2.52,0,0,0-.44.07,1.71,1.71,0,0,0-.72.35,2.67,2.67,0,0,0-.66.86,3.53,3.53,0,0,0-.3,1.6v3.84h-1.05Z"/><path d="M168.92,240.62c0-.28,0-.56,0-.83l-.06-.84H170v1.14h0a2.41,2.41,0,0,1,1.06-1,2.91,2.91,0,0,1,2-.27,2.42,2.42,0,0,1,.67.23,2.34,2.34,0,0,1,.6.47,2.65,2.65,0,0,1,.47.78,2.45,2.45,0,0,1,1-1.13,3.07,3.07,0,0,1,3.58.34,3.12,3.12,0,0,1,.69,2.17v4.75H179v-4.37a3.16,3.16,0,0,0-.4-1.74,1.63,1.63,0,0,0-1.49-.61,2,2,0,0,0-1,.23,1.93,1.93,0,0,0-.65.62,3.07,3.07,0,0,0-.36.87,4.9,4.9,0,0,0-.11,1v4H174v-4.37a3.25,3.25,0,0,0-.4-1.74,1.65,1.65,0,0,0-1.49-.61,2.52,2.52,0,0,0-.44.07,1.62,1.62,0,0,0-.71.35,2.55,2.55,0,0,0-.67.86,3.55,3.55,0,0,0-.29,1.6v3.84h-1.06Z"/></g><path class="cls-3" d="M84.23,82.91H216.06V216.58H84.23Zm.29,0s65.92,26.82,65.34,65.76-65.92,67.91-65.92,67.91M215.48,82.91s-65.91,26.82-65.33,65.76,65.91,67.91,65.91,67.91"/></svg>