<svg id="square_small" data-name="square small" xmlns="http://www.w3.org/2000/svg" xmlns:xlink="http://www.w3.org/1999/xlink" viewBox="0 0 300 263"><defs><style>.cls-1,.cls-10,.cls-2,.cls-4,.cls-6{fill:none;}.cls-2,.cls-6{stroke:#000;stroke-width:0.5px;}.cls-3{isolation:isolate;font-size:16px;font-family:Avenir-Book, Avenir;}.cls-10,.cls-4{stroke:#0b0904;stroke-linecap:round;stroke-linejoin:round;}.cls-4{stroke-width:0.29px;}.cls-5{fill:#1d1d1b;}.cls-6,.cls-8{stroke-miterlimit:10;}.cls-7{clip-path:url(#clip-path);}.cls-8{fill:#0b0904;stroke:#e5087e;stroke-width:0px;}.cls-9{clip-path:url(#clip-path-2);}.cls-10{stroke-width:0.25px;}</style><clipPath id="clip-path"><rect id="SVGID" class="cls-1" x="132.45" y="112.56" width="34.8" height="34.8"/></clipPath><clipPath id="clip-path-2"><rect id="SVGID-2" data-name="SVGID" class="cls-1" x="131.87" y="111.98" width="35.96" height="35.96"/></clipPath></defs><title>Arrangements-suspension-Square_S-anastassiades-flos-F0410030-spech-tech-300x263-01-01-01</title><line class="cls-2" x1="123.06" y1="137.7" x2="143.55" y2="157.12"/><line class="cls-2" x1="124.22" y1="136.47" x2="121.89" y2="138.94"/><line class="cls-2" x1="144.72" y1="155.88" x2="142.38" y2="158.35"/><text class="cls-3" transform="matrix(0.73, 0.69, -0.69, 0.73, 98.14, 141.47)">302 mm</text><line class="cls-2" x1="174.8" y1="150.92" x2="174.8" y2="115.48"/><line class="cls-2" x1="173.1" y1="150.92" x2="176.5" y2="150.92"/><line class="cls-2" x1="173.1" y1="115.48" x2="176.5" y2="115.48"/><text class="cls-3" transform="translate(195.31 162.4) rotate(-90)">395 mm</text><polygon points="154.01 143.79 153.25 144.59 154.11 145.41 154.88 144.65 154.01 143.79"/><polygon class="cls-4" points="154.01 143.79 153.25 144.59 154.11 145.41 154.88 144.65 154.01 143.79"/><rect class="cls-5" x="140.23" y="46.68" width="19.64" height="4.88"/><line class="cls-6" x1="147.09" y1="51.56" x2="147.09" y2="114.04"/><line class="cls-6" x1="153.01" y1="51.56" x2="153.01" y2="114.04"/><g class="cls-7"><path class="cls-8" d="M133.32,127.86a3,3,0,0,0,0,4.2l14.42,14.43a3,3,0,0,0,4.21,0l14.42-14.43a3,3,0,0,0,0-4.2L154.54,116l-.38.38L166,128.24a2.43,2.43,0,0,1,0,3.44l-14.43,14.43a2.44,2.44,0,0,1-3.45,0L133.7,131.68a2.43,2.43,0,0,1,0-3.44l14.42-14.43a2.44,2.44,0,0,1,3.45,0l1.73,1.73.38-.38L152,113.43a3,3,0,0,0-4.21,0Z"/></g><g class="cls-9"><path class="cls-10" d="M166.37,127.86,154.54,116m0,0-.38.38m-20.84,15.66,14.42,14.43m4.21,0a3,3,0,0,1-4.21,0m4.21,0,14.42-14.43m0-4.2a3,3,0,0,1,0,4.2m-12.69-16.9-.38.38m.38-.38L152,113.43m-4.21,0a3,3,0,0,1,4.21,0m-4.21,0-14.42,14.43m0,4.2a3,3,0,0,1,0-4.2m21.6-12.22-.38.38m-.48-1.24-.38.38m.48,1.24L166,128.24m-17.88,17.87L133.7,131.69m17.87,14.42a2.44,2.44,0,0,1-3.45,0M166,131.69l-14.43,14.42M166,128.24a2.44,2.44,0,0,1,0,3.45m-14.43-17.88,1.73,1.73m-5.18-1.73a2.44,2.44,0,0,1,3.45,0M133.7,128.24l14.42-14.43M133.7,131.69a2.44,2.44,0,0,1,0-3.45m21.22-12.6,11.84,11.83m-19.4,19.4-14.42-14.42m19.39,14.42a3.52,3.52,0,0,1-5,0m19.4-14.42-14.43,14.42m14.43-19.4a3.53,3.53,0,0,1,0,5m-14.43-19.4,1.73,1.73m-6.7-1.73a3.52,3.52,0,0,1,5,0m-19.39,14.42,14.42-14.42m-14.42,19.4a3.53,3.53,0,0,1,0-5"/></g></svg>