<svg id="round_small" data-name="round small" xmlns="http://www.w3.org/2000/svg" xmlns:xlink="http://www.w3.org/1999/xlink" viewBox="0 0 300 263"><defs><style>.cls-1,.cls-2,.cls-5{fill:none;}.cls-2,.cls-5,.cls-9{stroke:#000;}.cls-2,.cls-5{stroke-width:0.5px;}.cls-3{isolation:isolate;font-size:16px;font-family:Avenir-Book, Avenir;}.cls-4{fill:#1d1d1b;}.cls-5,.cls-9{stroke-miterlimit:10;}.cls-6{clip-path:url(#clip-path);}.cls-7,.cls-9{fill:#0b0904;}.cls-8{clip-path:url(#clip-path-2);}.cls-9{stroke-width:0.05px;}</style><clipPath id="clip-path"><rect id="SVGID" class="cls-1" x="136.43" y="113.61" width="27.02" height="26.73"/></clipPath><clipPath id="clip-path-2"><rect id="SVGID-2" data-name="SVGID" class="cls-1" x="136.11" y="113.29" width="27.36" height="27.36"/></clipPath></defs><title>Arrangements-suspension-Round_S-anastassiades-flos-F0406030-spech-tech-300x263-01-01-01</title><line class="cls-2" x1="132.2" y1="145.9" x2="167.64" y2="145.9"/><line class="cls-2" x1="132.2" y1="144.2" x2="132.2" y2="147.6"/><line class="cls-2" x1="167.64" y1="144.2" x2="167.64" y2="147.6"/><text class="cls-3" transform="translate(113.74 166.41)">ø 398 mm</text><rect class="cls-4" x="140.23" y="46.68" width="19.64" height="4.88"/><line class="cls-5" x1="147.09" y1="51.56" x2="147.09" y2="114.04"/><line class="cls-5" x1="153.01" y1="51.56" x2="153.01" y2="114.04"/><g class="cls-6"><path class="cls-7" d="M162.22,122.05a13.46,13.46,0,0,1,.93,4.69h.3v.48h-.3a13.36,13.36,0,1,1-3.91-9.69,13.57,13.57,0,0,1,3,4.53m.64,4.92A13.07,13.07,0,1,0,149.79,140,13.07,13.07,0,0,0,162.86,127"/></g><g class="cls-8"><path class="cls-9" d="M149.79,140.71h0a13.74,13.74,0,0,1-.24-27.47h.24a13.74,13.74,0,0,1,13.73,13.49.07.07,0,0,1-.07.08s-.08,0-.08-.08a13.6,13.6,0,0,0-13.58-13.34h-.24a13.58,13.58,0,0,0,.24,27.16h0a13.57,13.57,0,0,0,13.58-13.34.09.09,0,0,1,.08-.08.07.07,0,0,1,.07.08,13.73,13.73,0,0,1-13.73,13.5Zm2.3-.78a13.16,13.16,0,1,1,10.65-10.65A13,13,0,0,1,152.09,139.93ZM149.79,114a13,13,0,1,0,13,13A13,13,0,0,0,149.79,114Z"/></g></svg>