<svg id="round_large" data-name="round large" xmlns="http://www.w3.org/2000/svg" xmlns:xlink="http://www.w3.org/1999/xlink" viewBox="0 0 300 263"><defs><style>.cls-1,.cls-2,.cls-6,.cls-8{fill:none;}.cls-2,.cls-8{stroke:#000;stroke-width:0.5px;}.cls-3{isolation:isolate;font-size:16px;font-family:Avenir-Book, Avenir;}.cls-4{fill:#0b0904;}.cls-5{clip-path:url(#clip-path);}.cls-6{stroke:#0b0904;stroke-linecap:round;stroke-linejoin:round;stroke-width:0.4px;}.cls-7{fill:#1d1d1b;}.cls-8{stroke-miterlimit:10;}</style><clipPath id="clip-path"><rect class="cls-1" x="98.4" y="114.04" width="103.2" height="103.2"/></clipPath></defs><title>Arrangements-suspension-Round_L-anastassiades-flos-F0408030-spech-tech-300x263</title><line class="cls-2" x1="98.4" y1="227.11" x2="201.54" y2="227.11"/><line class="cls-2" x1="98.4" y1="225.41" x2="98.4" y2="228.81"/><line class="cls-2" x1="201.54" y1="225.41" x2="201.54" y2="228.81"/><text class="cls-3" transform="translate(113.74 247.62)">ø 1020 mm</text><path class="cls-4" d="M99.24,170.29a50.88,50.88,0,0,1,101.35-9.12,2,2,0,0,0,0,.25v0c0,.08,0,.15,0,.22a.13.13,0,0,0,0,.06V162s0,.05,0,.08,0,.12,0,.18c.06.88.1,1.75.12,2.64l.74,0q0,.9,0,1.8h-.74c0,1-.07,1.93-.14,2.9,0,.06,0,.13,0,.2a.13.13,0,0,0,0,.06c0,.07,0,.15,0,.22v0a2,2,0,0,0,0,.25,50.9,50.9,0,0,1-101.35,0m50.67-54.53a50,50,0,1,0,50.14,50,50.05,50.05,0,0,0-50.14-50"/><g class="cls-5"><path class="cls-6" d="M201.53,166.55c0-.61,0-1.2,0-1.81m0,0-.74,0m.74,1.79-.74,0M150,216.44a50.8,50.8,0,0,0,50.59-46.23m0-.25s0,0,0,0m0-.22a.13.13,0,0,1,0-.06m0-.2c.08-1,.12-1.94.14-2.91M150,217.18a51.54,51.54,0,0,0,51.53-50.63m0-1.81A51.54,51.54,0,1,0,150,217.18m50.79-52.42c0-.89,0-1.76-.12-2.64m0-.19s0-.05,0-.08m0-.2a.13.13,0,0,1,0-.06m0-.22s0,0,0,0m0-.25A50.8,50.8,0,1,0,150,216.44m50.59-46.23a2.29,2.29,0,0,0,0-.25m0,0c0-.07,0-.14,0-.22m0-.06c0-.07,0-.14,0-.2m0-7.32c0-.07,0-.12,0-.19m0-.08v-.2m0-.06c0-.08,0-.15,0-.22m0,0a2.11,2.11,0,0,0,0-.25"/></g><rect class="cls-7" x="140.23" y="46.68" width="19.64" height="4.89"/><line class="cls-8" x1="147.09" y1="51.56" x2="147.09" y2="114.04"/><line class="cls-8" x1="153.01" y1="51.56" x2="153.01" y2="114.04"/></svg>