<svg id="Broken_Line" data-name="Broken Line" xmlns="http://www.w3.org/2000/svg" xmlns:xlink="http://www.w3.org/1999/xlink" viewBox="0 0 300 263"><defs><style>.cls-1,.cls-2,.cls-6,.cls-8{fill:none;}.cls-2,.cls-8{stroke:#000;stroke-width:0.5px;}.cls-3{isolation:isolate;font-size:16px;font-family:Avenir-Book, Avenir;}.cls-4{clip-path:url(#clip-path);}.cls-5{fill:#0b0904;}.cls-6{stroke:#0b0904;stroke-linecap:round;stroke-linejoin:round;stroke-width:0.25px;}.cls-7{fill:#1d1d1b;}.cls-8{stroke-miterlimit:10;}</style><clipPath id="clip-path"><rect class="cls-1" x="109.38" y="112.5" width="80.46" height="39.45"/></clipPath></defs><title>Arrangements-suspension-Broken_Line-anastassiades-flos-F0405030-spech-tech-300x263-01-01</title><line class="cls-2" x1="106.5" y1="162.48" x2="193.5" y2="162.48"/><line class="cls-2" x1="106.5" y1="160.78" x2="106.5" y2="164.18"/><line class="cls-2" x1="193.5" y1="160.78" x2="193.5" y2="164.18"/><text class="cls-3" transform="translate(116.35 182.99)">1020 mm</text><line class="cls-2" x1="199.23" y1="154.2" x2="199.23" y2="108.96"/><line class="cls-2" x1="197.53" y1="154.2" x2="200.93" y2="154.2"/><line class="cls-2" x1="197.53" y1="108.96" x2="200.93" y2="108.96"/><text class="cls-3" transform="translate(219.73 160.78) rotate(-90)">502 mm</text><line class="cls-2" x1="97.64" y1="147.61" x2="140.64" y2="104.61"/><line class="cls-2" x1="97.04" y1="147.01" x2="98.24" y2="148.21"/><line class="cls-2" x1="140.04" y1="104.01" x2="141.24" y2="105.21"/><text class="cls-3" transform="translate(91.27 139.8) rotate(-45)">720 mm</text><g class="cls-4"><path class="cls-5" d="M146.16,113.85a4.58,4.58,0,0,1,6.51,0l36.79,36.83-.59.59-36.78-36.84a3.78,3.78,0,0,0-5.34,0L110,151.27l-.59-.59Z"/></g><path class="cls-6" d="M189,151.22l.58-.58m-36.29-36.42,36.29,36.42m-.58.58L152.68,114.8m.58-.58a5.36,5.36,0,0,0-7.59,0m7,.58a4.54,4.54,0,0,0-6.43,0m-36.87,35.84,36.29-36.42m-36.29,36.42.58.58m36.29-36.42L110,151.22h0m78.43.58.58-.58m-79,0,.58.58m41.56-36.42,36.29,36.42M152.1,115.38a3.74,3.74,0,0,0-5.27,0M110.54,151.8l36.29-36.42"/><rect class="cls-7" x="140.23" y="46.68" width="19.64" height="4.88"/><line class="cls-8" x1="147.09" y1="51.56" x2="147.09" y2="114.04"/><line class="cls-8" x1="153.01" y1="51.56" x2="153.01" y2="114.04"/></svg>