<svg id="LINE" xmlns="http://www.w3.org/2000/svg" viewBox="0 0 300 263"><defs><style>.cls-1,.cls-4,.cls-6{fill:none;}.cls-1,.cls-6{stroke:#000;stroke-width:0.5px;}.cls-2{isolation:isolate;font-size:16px;font-family:Avenir-Book, Avenir;}.cls-3{fill:#0b0904;}.cls-4{stroke:#0b0904;stroke-linecap:round;stroke-linejoin:round;stroke-width:0.48px;}.cls-5{fill:#1d1d1b;}.cls-6{stroke-miterlimit:10;}</style></defs><title>Arrangements-suspension-Line-anastassiades-flos-F0401030-spech-tech-300x263-01</title><line class="cls-1" x1="68.4" y1="124.64" x2="231.68" y2="124.64"/><line class="cls-1" x1="68.4" y1="122.94" x2="68.4" y2="126.34"/><line class="cls-1" x1="231.68" y1="122.94" x2="231.68" y2="126.34"/><text class="cls-2" transform="translate(121.32 145.33)">1706 mm</text><polygon class="cls-3" points="68.4 113.95 68.4 114.85 149.14 114.85 149.14 115.74 150.94 115.74 150.94 114.85 231.68 114.85 231.68 113.95 68.4 113.95"/><path class="cls-4" d="M231.68,115.74v-.89m-80.74,0h80.74m-80.74.89v-.89m-1.8.89v-.89m-80.74,0h80.74m-80.74.89v-.89m163.28,0V114m-163.28.9V114m163.28,1.79H150.94m0,0h-1.8m0,0H68.4M231.68,114H68.4"/><rect class="cls-5" x="140.23" y="46.68" width="19.64" height="4.88"/><line class="cls-6" x1="147.09" y1="51.56" x2="147.09" y2="114.04"/><line class="cls-6" x1="153.01" y1="51.56" x2="153.01" y2="114.04"/></svg>