<svg id="round_medium" data-name="round medium" xmlns="http://www.w3.org/2000/svg" xmlns:xlink="http://www.w3.org/1999/xlink" viewBox="0 0 300 263"><defs><style>.cls-1,.cls-2,.cls-9{fill:none;}.cls-2,.cls-7,.cls-9{stroke:#000;}.cls-2,.cls-9{stroke-width:0.5px;}.cls-3{isolation:isolate;font-size:16px;font-family:Avenir-Book, Avenir;}.cls-4{clip-path:url(#clip-path);}.cls-5,.cls-7{fill:#0b0904;}.cls-6{clip-path:url(#clip-path-2);}.cls-7,.cls-9{stroke-miterlimit:10;}.cls-7{stroke-width:0.05px;}.cls-8{fill:#1d1d1b;}</style><clipPath id="clip-path"><rect class="cls-1" x="119.9" y="114.77" width="61.87" height="61.2"/></clipPath><clipPath id="clip-path-2"><rect class="cls-1" x="119.18" y="114.04" width="62.65" height="62.65"/></clipPath></defs><title>Arrangements-suspension-Round_M-anastassiades-flos-F0407030-spech-tech-300x263-01-01</title><line class="cls-2" x1="132.2" y1="185.81" x2="167.64" y2="185.81"/><line class="cls-2" x1="132.2" y1="184.11" x2="132.2" y2="187.51"/><line class="cls-2" x1="167.64" y1="184.11" x2="167.64" y2="187.51"/><text class="cls-3" transform="translate(113.74 206.31)">ø 665 mm</text><g class="cls-4"><path class="cls-5" d="M179,134.11a30.8,30.8,0,0,1,2.14,10.73l.67,0c0,.37,0,.73,0,1.1h-.67a30.58,30.58,0,1,1-2.14-11.8m1.47,11.26A29.93,29.93,0,1,0,150.5,175.3a29.93,29.93,0,0,0,29.93-29.93"/></g><g class="cls-6"><path class="cls-7" d="M150.5,176.82h0a31.45,31.45,0,0,1-.55-62.9h.55A31.49,31.49,0,0,1,182,144.82a.18.18,0,0,1-.18.18.18.18,0,0,1-.18-.17,31.14,31.14,0,0,0-31.09-30.55H150a31.09,31.09,0,0,0,.54,62.18h0a31.07,31.07,0,0,0,31.09-30.55.18.18,0,0,1,.18-.17.18.18,0,0,1,.18.18,31.45,31.45,0,0,1-31.45,30.9Zm0-1.34a30.11,30.11,0,1,1,30.11-30.11A30.14,30.14,0,0,1,150.5,175.48Zm0-59.86a29.75,29.75,0,1,0,29.75,29.75A29.78,29.78,0,0,0,150.5,115.62Z"/></g><rect class="cls-8" x="140.23" y="46.68" width="19.64" height="4.88"/><line class="cls-9" x1="147.09" y1="51.56" x2="147.09" y2="114.04"/><line class="cls-9" x1="153.01" y1="51.56" x2="153.01" y2="114.04"/></svg>