<svg id="Drop_Up" data-name="Drop Up" xmlns="http://www.w3.org/2000/svg" xmlns:xlink="http://www.w3.org/1999/xlink" viewBox="0 0 300 263"><defs><style>.cls-1,.cls-10,.cls-2,.cls-7{fill:none;}.cls-10,.cls-2{stroke:#000;stroke-width:0.5px;}.cls-3{isolation:isolate;font-size:16px;font-family:Avenir-Book, Avenir;}.cls-4{clip-path:url(#clip-path);}.cls-5,.cls-8{fill:#0b0904;}.cls-5,.cls-7{stroke:#0b0904;}.cls-10,.cls-5{stroke-miterlimit:10;}.cls-5{stroke-width:0px;}.cls-6{clip-path:url(#clip-path-2);}.cls-7{stroke-linecap:round;stroke-linejoin:round;stroke-width:0.25px;}.cls-9{fill:#1d1d1b;}</style><clipPath id="clip-path"><rect class="cls-1" x="129.34" y="114.09" width="41.4" height="57.42"/></clipPath><clipPath id="clip-path-2"><rect class="cls-1" x="128.42" y="113.18" width="43.22" height="59.24"/></clipPath></defs><title>Arrangements-suspension-Drop_Up-anastassiades-flos-F0414030-spech-tech-300x263-01-01</title><line class="cls-2" x1="128.18" y1="182.09" x2="171.4" y2="182.09"/><line class="cls-2" x1="128.18" y1="180.39" x2="128.18" y2="183.79"/><line class="cls-2" x1="171.4" y1="180.39" x2="171.4" y2="183.79"/><text class="cls-3" transform="translate(120.59 202.6)">495 mm</text><line class="cls-2" x1="180.14" y1="171.96" x2="180.14" y2="113.63"/><line class="cls-2" x1="178.44" y1="171.96" x2="181.84" y2="171.96"/><line class="cls-2" x1="178.44" y1="113.63" x2="181.84" y2="113.63"/><text class="cls-3" transform="translate(200.65 171.96) rotate(-90)">697 mm</text><g class="cls-4"><path class="cls-5" d="M154.08,116.42a4.72,4.72,0,0,0-1.71-1.7,4.67,4.67,0,0,0-6.39,1.7l-1.91,3.32.73.43,1.91-3.32a3.83,3.83,0,0,1,5.24-1.4,3.76,3.76,0,0,1,1.4,1.4l13.88,24a19.85,19.85,0,1,1-34.39,0l11-19-.73-.42-11,19.05a20.7,20.7,0,1,0,35.85,0Z"/></g><g class="cls-6"><path class="cls-7" d="M143.84,121.83l-11,19m-.73-.42,11-19.05m.73.42-.73-.42m24.12,19.47-13.88-24m.73-.43,13.88,24M144.8,120.17l-.73-.42m0,0,1.91-3.33m.73.43-1.91,3.32m1.18-3.75a4.69,4.69,0,0,1,8.1,0m-7.37.43a3.83,3.83,0,0,1,5.24-1.4,3.76,3.76,0,0,1,1.4,1.4M168,140.46a20.7,20.7,0,1,1-35.85,0m35.12.42a19.85,19.85,0,1,1-34.39,0m10.27-19.47-.73-.43m1.69-1.23-.73-.43m-1,1.66-11,19.06m37.31,0-13.88-24m13.88,24a21.54,21.54,0,1,1-37.31,0m13.87-24-1.91,3.32m1.91-3.32a5.51,5.51,0,0,1,7.54-2,5.41,5.41,0,0,1,2,2"/></g><polygon class="cls-8" points="144.8 120.17 143.34 119.32 142.38 120.98 143.84 121.83 144.8 120.17"/><rect class="cls-9" x="140.23" y="46.68" width="19.64" height="4.88"/><line class="cls-10" x1="147.09" y1="51.56" x2="147.09" y2="114.04"/><line class="cls-10" x1="153.01" y1="51.56" x2="153.01" y2="114.04"/></svg>