<svg xmlns="http://www.w3.org/2000/svg" viewBox="0 0 300 263"><defs><style>.cls-1,.cls-2,.cls-3,.cls-4{fill:none;stroke-linecap:round;}.cls-1,.cls-2{stroke:red;}.cls-1,.cls-2,.cls-4{stroke-linejoin:round;}.cls-1,.cls-3,.cls-4{stroke-width:0.6px;}.cls-3,.cls-4{stroke:#000;}.cls-3{stroke-miterlimit:10;}</style></defs><title>arrangements-suspension-broken-line-anastassiades-flos-F0405030-curva_fotometrica-06-01</title><g id="numeri_esterni_diagramma" data-name="numeri esterni diagramma"><path d="M249.93,137.18h0a1.24,1.24,0,0,1-.37.12,1.84,1.84,0,0,1-.39,0,1.91,1.91,0,0,1-.68-.12,1.58,1.58,0,0,1-.54-.37,1.63,1.63,0,0,1-.36-.56,2.05,2.05,0,0,1-.13-.72,1.79,1.79,0,0,1,.15-.75,1.48,1.48,0,0,1,.4-.55,1.79,1.79,0,0,1,.6-.35,2,2,0,0,1,.75-.13,2.11,2.11,0,0,1,.75.13,1.79,1.79,0,0,1,.6.35,1.59,1.59,0,0,1,.4.55,1.79,1.79,0,0,1,.14.75,2.15,2.15,0,0,1,0,.45,1.68,1.68,0,0,1-.11.4,2.59,2.59,0,0,1-.17.38l-.21.36-1.51,2.39h-.78Zm-.59-.42a1.28,1.28,0,0,0,.48-.09,1,1,0,0,0,.39-.24,1.23,1.23,0,0,0,.26-.37,1.43,1.43,0,0,0,0-1,1.1,1.1,0,0,0-.65-.62,1.48,1.48,0,0,0-1,0,1.28,1.28,0,0,0-.39.24,1.12,1.12,0,0,0-.26.38,1.3,1.3,0,0,0,0,1,1.08,1.08,0,0,0,.26.37,1,1,0,0,0,.39.24A1.28,1.28,0,0,0,249.34,136.76Z"/><path d="M251.82,136.71a7.07,7.07,0,0,1,.08-1,3.19,3.19,0,0,1,.29-1,2,2,0,0,1,.59-.7,1.54,1.54,0,0,1,1-.28,1.49,1.49,0,0,1,.95.28,1.91,1.91,0,0,1,.59.7,2.94,2.94,0,0,1,.3,1,6.29,6.29,0,0,1,0,2,2.94,2.94,0,0,1-.3.95,1.91,1.91,0,0,1-.59.7,1.49,1.49,0,0,1-.95.28,1.54,1.54,0,0,1-1-.28,2,2,0,0,1-.59-.7,3.19,3.19,0,0,1-.29-.95A7.07,7.07,0,0,1,251.82,136.71Zm.67,0c0,.14,0,.29,0,.46a4.6,4.6,0,0,0,.06.52,4.7,4.7,0,0,0,.12.51,2,2,0,0,0,.23.44,1,1,0,0,0,.34.31,1,1,0,0,0,.48.11,1.06,1.06,0,0,0,.48-.11,1.24,1.24,0,0,0,.34-.31,1.65,1.65,0,0,0,.22-.44,3.18,3.18,0,0,0,.13-.51,4.6,4.6,0,0,0,.06-.52c0-.17,0-.32,0-.46s0-.29,0-.46a4.6,4.6,0,0,0-.06-.52,3.18,3.18,0,0,0-.13-.51,1.65,1.65,0,0,0-.22-.44,1.24,1.24,0,0,0-.34-.31,1.06,1.06,0,0,0-.48-.11,1,1,0,0,0-.48.11,1,1,0,0,0-.34.31,2,2,0,0,0-.23.44,4.7,4.7,0,0,0-.12.51,4.6,4.6,0,0,0-.06.52C252.5,136.42,252.49,136.57,252.49,136.71Z"/><path d="M256.42,134.93a1.13,1.13,0,0,1,.09-.45,1.31,1.31,0,0,1,.24-.37,1.18,1.18,0,0,1,.37-.24,1,1,0,0,1,.44-.09,1.13,1.13,0,0,1,.45.09,1.06,1.06,0,0,1,.61.61,1.13,1.13,0,0,1,.09.45,1,1,0,0,1-.09.44,1.06,1.06,0,0,1-.61.61,1.13,1.13,0,0,1-.45.09,1,1,0,0,1-.44-.09,1.18,1.18,0,0,1-.37-.24,1.31,1.31,0,0,1-.24-.37A1,1,0,0,1,256.42,134.93Zm.43,0a.69.69,0,0,0,0,.24,1,1,0,0,0,.15.24.73.73,0,0,0,.51.23.54.54,0,0,0,.29-.07.63.63,0,0,0,.23-.16.72.72,0,0,0,.14-.24.52.52,0,0,0,0-.24.56.56,0,0,0,0-.25.59.59,0,0,0-.14-.23.74.74,0,0,0-.52-.24.73.73,0,0,0-.29.07.62.62,0,0,0-.22.17.76.76,0,0,0-.15.23A.74.74,0,0,0,256.85,134.93Z"/><path d="M41.57,137.18h0a1.34,1.34,0,0,1-.37.12,2,2,0,0,1-.39,0,1.92,1.92,0,0,1-.69-.12,1.58,1.58,0,0,1-.54-.37,1.8,1.8,0,0,1-.36-.56,2.05,2.05,0,0,1-.13-.72,1.79,1.79,0,0,1,.15-.75,1.48,1.48,0,0,1,.4-.55,1.79,1.79,0,0,1,.6-.35,2.23,2.23,0,0,1,1.5,0,1.79,1.79,0,0,1,.6.35,1.48,1.48,0,0,1,.4.55,1.79,1.79,0,0,1,.15.75,3.14,3.14,0,0,1,0,.45,2.34,2.34,0,0,1-.12.4,1.84,1.84,0,0,1-.17.38,3.35,3.35,0,0,1-.21.36l-1.5,2.39h-.79Zm-.59-.42a1.28,1.28,0,0,0,.48-.09,1,1,0,0,0,.39-.24,1.23,1.23,0,0,0,.26-.37,1.3,1.3,0,0,0,0-1,1.1,1.1,0,0,0-.65-.62,1.48,1.48,0,0,0-1,0,1.1,1.1,0,0,0-.65.62,1.43,1.43,0,0,0,0,1,1.23,1.23,0,0,0,.26.37,1,1,0,0,0,.39.24A1.28,1.28,0,0,0,41,136.76Z"/><path d="M43.46,136.71a7.07,7.07,0,0,1,.08-1,2.94,2.94,0,0,1,.3-1,1.91,1.91,0,0,1,.59-.7,1.49,1.49,0,0,1,1-.28,1.54,1.54,0,0,1,1,.28,2,2,0,0,1,.59.7,3.19,3.19,0,0,1,.29,1,6.29,6.29,0,0,1,0,2,3.19,3.19,0,0,1-.29.95,2,2,0,0,1-.59.7,1.54,1.54,0,0,1-1,.28,1.49,1.49,0,0,1-1-.28,1.91,1.91,0,0,1-.59-.7,2.94,2.94,0,0,1-.3-.95A7.07,7.07,0,0,1,43.46,136.71Zm.67,0c0,.14,0,.29,0,.46a4.6,4.6,0,0,0,.06.52,3.18,3.18,0,0,0,.13.51,1.65,1.65,0,0,0,.22.44,1.12,1.12,0,0,0,.34.31,1.1,1.1,0,0,0,1,0,1.12,1.12,0,0,0,.34-.31,2,2,0,0,0,.23-.44,4.7,4.7,0,0,0,.12-.51,4.6,4.6,0,0,0,.06-.52c0-.17,0-.32,0-.46s0-.29,0-.46a4.6,4.6,0,0,0-.06-.52,4.7,4.7,0,0,0-.12-.51,2,2,0,0,0-.23-.44,1.12,1.12,0,0,0-.34-.31,1.1,1.1,0,0,0-1,0,1.12,1.12,0,0,0-.34.31,1.65,1.65,0,0,0-.22.44,3.18,3.18,0,0,0-.13.51,4.6,4.6,0,0,0-.06.52C44.14,136.42,44.13,136.57,44.13,136.71Z"/><path d="M48.06,134.93a1.13,1.13,0,0,1,.09-.45,1.06,1.06,0,0,1,.61-.61,1.13,1.13,0,0,1,.45-.09,1.08,1.08,0,0,1,.44.09,1.06,1.06,0,0,1,.61.61,1.13,1.13,0,0,1,.09.45,1,1,0,0,1-.09.44,1.06,1.06,0,0,1-.61.61,1.08,1.08,0,0,1-.44.09,1.13,1.13,0,0,1-.45-.09,1.06,1.06,0,0,1-.61-.61A1,1,0,0,1,48.06,134.93Zm.43,0a.53.53,0,0,0,.06.24.72.72,0,0,0,.14.24.69.69,0,0,0,.22.16.6.6,0,0,0,.3.07.73.73,0,0,0,.51-.23,1,1,0,0,0,.15-.24.69.69,0,0,0,.05-.24.74.74,0,0,0-.05-.25.76.76,0,0,0-.15-.23.62.62,0,0,0-.22-.17.73.73,0,0,0-.29-.07.73.73,0,0,0-.3.07.72.72,0,0,0-.22.17.59.59,0,0,0-.14.23A.57.57,0,0,0,48.49,134.93Z"/><path d="M148.37,38.51h-.68v-4.8h0l-1,.85-.4-.48,1.52-1.24h.59Z"/><path d="M150.49,34.23a1.48,1.48,0,0,1,.13-.61,1.2,1.2,0,0,1,.34-.46,1.44,1.44,0,0,1,.51-.3,1.92,1.92,0,0,1,1.28,0,1.44,1.44,0,0,1,.51.3,1.2,1.2,0,0,1,.34.46,1.33,1.33,0,0,1,.13.61,1.16,1.16,0,0,1-.07.4,1.41,1.41,0,0,1-.18.37,1.33,1.33,0,0,1-.29.29,1.18,1.18,0,0,1-.39.19h0a1.44,1.44,0,0,1,.46.19,1.35,1.35,0,0,1,.35.32,1.42,1.42,0,0,1,.23.44,1.7,1.7,0,0,1,.08.51,1.74,1.74,0,0,1-.14.69,1.43,1.43,0,0,1-.39.52,1.47,1.47,0,0,1-.57.33,2.35,2.35,0,0,1-1.42,0,1.47,1.47,0,0,1-.57-.33,1.55,1.55,0,0,1-.39-.52,1.74,1.74,0,0,1-.14-.69,1.7,1.7,0,0,1,.08-.51,1.67,1.67,0,0,1,.23-.44,1.35,1.35,0,0,1,.35-.32,1.44,1.44,0,0,1,.46-.19h0a1.18,1.18,0,0,1-.39-.19,1.33,1.33,0,0,1-.29-.29,1.41,1.41,0,0,1-.18-.37A1.46,1.46,0,0,1,150.49,34.23ZM151,36.9a1.18,1.18,0,0,0,.09.46,1.07,1.07,0,0,0,.25.35,1,1,0,0,0,.36.23,1.12,1.12,0,0,0,.88,0,1,1,0,0,0,.36-.23,1.07,1.07,0,0,0,.25-.35,1.18,1.18,0,0,0,.09-.46,1.14,1.14,0,0,0-.09-.46,1.13,1.13,0,0,0-.61-.58,1.12,1.12,0,0,0-.88,0,1.13,1.13,0,0,0-.61.58A1.14,1.14,0,0,0,151,36.9Zm.2-2.64a.88.88,0,0,0,.26.67,1,1,0,0,0,1.36,0,1,1,0,0,0,0-1.34,1,1,0,0,0-1.36,0A.88.88,0,0,0,151.17,34.26Z"/><path d="M154.64,35.68a7,7,0,0,1,.08-1,3.1,3.1,0,0,1,.29-1,2,2,0,0,1,.59-.71,1.6,1.6,0,0,1,1-.27,1.55,1.55,0,0,1,.95.27,1.94,1.94,0,0,1,.59.71,2.86,2.86,0,0,1,.3,1,7,7,0,0,1,.08,1,7.07,7.07,0,0,1-.08,1,2.88,2.88,0,0,1-.3.94,1.94,1.94,0,0,1-.59.71,1.55,1.55,0,0,1-.95.27,1.6,1.6,0,0,1-1-.27,2,2,0,0,1-.59-.71,3.13,3.13,0,0,1-.29-.94A7.07,7.07,0,0,1,154.64,35.68Zm.67,0c0,.13,0,.29,0,.46a4.88,4.88,0,0,0,.06.52,4.05,4.05,0,0,0,.12.5,1.66,1.66,0,0,0,.23.44,1.12,1.12,0,0,0,.34.31,1,1,0,0,0,1,0,1.12,1.12,0,0,0,.34-.31,1.4,1.4,0,0,0,.22-.44,2.83,2.83,0,0,0,.13-.5,4.88,4.88,0,0,0,.06-.52c0-.17,0-.33,0-.46s0-.3,0-.47a4.43,4.43,0,0,0-.06-.51,2.72,2.72,0,0,0-.13-.51,1.51,1.51,0,0,0-.22-.44,1.12,1.12,0,0,0-.34-.31,1,1,0,0,0-1,0,1.12,1.12,0,0,0-.34.31,1.83,1.83,0,0,0-.23.44,3.81,3.81,0,0,0-.12.51,4.43,4.43,0,0,0-.06.51C155.32,35.38,155.31,35.54,155.31,35.68Z"/><path d="M159.24,33.89a1.15,1.15,0,0,1,.33-.81,1,1,0,0,1,.37-.24,1,1,0,0,1,.44-.09,1.15,1.15,0,0,1,.82,2,1.15,1.15,0,0,1-.37.25,1.13,1.13,0,0,1-.45.09,1.15,1.15,0,0,1-.81-.34,1.15,1.15,0,0,1-.33-.81Zm.43,0a.79.79,0,0,0,.05.25,1.14,1.14,0,0,0,.15.23.62.62,0,0,0,.22.17.72.72,0,0,0,.29.06.68.68,0,0,0,.52-.23.79.79,0,0,0,.14-.23.65.65,0,0,0,0-.5.79.79,0,0,0-.14-.23.81.81,0,0,0-.23-.17.65.65,0,0,0-.29-.06.72.72,0,0,0-.29.06.76.76,0,0,0-.22.17,1.14,1.14,0,0,0-.15.23A.79.79,0,0,0,159.67,33.89Z"/><path d="M148.27,239.2a6.85,6.85,0,0,1,.08-1,3.41,3.41,0,0,1,.3-.95,1.94,1.94,0,0,1,.59-.71,1.57,1.57,0,0,1,.95-.27,1.6,1.6,0,0,1,1,.27,2,2,0,0,1,.59.71,3.1,3.1,0,0,1,.29.95,5.7,5.7,0,0,1,.08,1,5.85,5.85,0,0,1-.08,1,3.13,3.13,0,0,1-.29.94,2,2,0,0,1-.59.71,1.6,1.6,0,0,1-1,.27,1.57,1.57,0,0,1-.95-.27,1.94,1.94,0,0,1-.59-.71,3.45,3.45,0,0,1-.3-.94A7.07,7.07,0,0,1,148.27,239.2Zm.68,0c0,.13,0,.29,0,.46a4.88,4.88,0,0,0,.06.52,2.83,2.83,0,0,0,.13.5,1.65,1.65,0,0,0,.22.44,1.24,1.24,0,0,0,.34.31,1,1,0,0,0,.48.12.9.9,0,0,0,.48-.12,1,1,0,0,0,.34-.31,1.41,1.41,0,0,0,.23-.44,4.07,4.07,0,0,0,.13-.5c0-.18,0-.35.06-.52s0-.33,0-.46,0-.3,0-.47,0-.34-.06-.51a3.8,3.8,0,0,0-.13-.51,1.53,1.53,0,0,0-.23-.44,1,1,0,0,0-.34-.31.9.9,0,0,0-.48-.12,1,1,0,0,0-.48.12,1.24,1.24,0,0,0-.34.31,1.81,1.81,0,0,0-.22.44,2.72,2.72,0,0,0-.13.51,4.43,4.43,0,0,0-.06.51C149,238.9,149,239.06,149,239.2Z"/><path d="M152.83,237.41a1.33,1.33,0,0,1,.08-.45,1.11,1.11,0,0,1,.25-.36,1,1,0,0,1,.36-.24,1.17,1.17,0,0,1,.9,0,1,1,0,0,1,.36.24,1.11,1.11,0,0,1,.25.36,1.31,1.31,0,0,1,0,.9,1.23,1.23,0,0,1-.61.61,1.17,1.17,0,0,1-.9,0,1.23,1.23,0,0,1-.61-.61A1.33,1.33,0,0,1,152.83,237.41Zm.43,0a.79.79,0,0,0,.05.25.68.68,0,0,0,.14.23.66.66,0,0,0,.23.17.73.73,0,0,0,.58,0,.76.76,0,0,0,.23-.17.88.88,0,0,0,.14-.23.65.65,0,0,0,0-.5,1.09,1.09,0,0,0-.14-.23,1,1,0,0,0-.23-.17.73.73,0,0,0-.58,0,.81.81,0,0,0-.23.17.75.75,0,0,0-.19.48Z"/><path d="M203.17,238.76h.21l.43,0a1.15,1.15,0,0,0,.42-.13.77.77,0,0,0,.31-.31.94.94,0,0,0,.13-.51.87.87,0,0,0-.27-.68,1,1,0,0,0-.7-.26,1.28,1.28,0,0,0-.63.16,1.14,1.14,0,0,0-.41.48l-.65-.25a1.48,1.48,0,0,1,.65-.72,2.07,2.07,0,0,1,1-.24,2.25,2.25,0,0,1,.64.09,1.72,1.72,0,0,1,.54.28,1.37,1.37,0,0,1,.37.46,1.48,1.48,0,0,1,.14.65,1.29,1.29,0,0,1-.27.8,1.34,1.34,0,0,1-.7.49v0a1.48,1.48,0,0,1,.85.49,1.37,1.37,0,0,1,.23.43,1.69,1.69,0,0,1,.08.5,1.66,1.66,0,0,1-.15.72,1.57,1.57,0,0,1-.41.51,1.71,1.71,0,0,1-.6.31,2.34,2.34,0,0,1-.71.1,2.18,2.18,0,0,1-1.13-.28,1.61,1.61,0,0,1-.7-.91l.68-.22a1.33,1.33,0,0,0,.41.65,1.3,1.3,0,0,0,.74.19,1.33,1.33,0,0,0,.45-.08,1.11,1.11,0,0,0,.36-.23,1.24,1.24,0,0,0,.25-.35,1.13,1.13,0,0,0,.09-.45,1.07,1.07,0,0,0-.12-.53,1,1,0,0,0-.33-.33,1.23,1.23,0,0,0-.46-.18,2.31,2.31,0,0,0-.52-.06h-.21Z"/><path d="M206.24,239.2a6.85,6.85,0,0,1,.08-1,3.11,3.11,0,0,1,.3-.95,1.94,1.94,0,0,1,.59-.71,1.55,1.55,0,0,1,.95-.27,1.6,1.6,0,0,1,1,.27,2,2,0,0,1,.59.71,3.1,3.1,0,0,1,.29.95,5.7,5.7,0,0,1,.08,1,5.85,5.85,0,0,1-.08,1,3.13,3.13,0,0,1-.29.94,2,2,0,0,1-.59.71,1.6,1.6,0,0,1-1,.27,1.55,1.55,0,0,1-.95-.27,1.94,1.94,0,0,1-.59-.71,3.14,3.14,0,0,1-.3-.94A7.07,7.07,0,0,1,206.24,239.2Zm.67,0c0,.13,0,.29,0,.46a4.88,4.88,0,0,0,.06.52,2.83,2.83,0,0,0,.13.5,1.4,1.4,0,0,0,.22.44,1.24,1.24,0,0,0,.34.31,1,1,0,0,0,.48.12.9.9,0,0,0,.48-.12,1,1,0,0,0,.34-.31,1.41,1.41,0,0,0,.23-.44,4.05,4.05,0,0,0,.12-.5,4.88,4.88,0,0,0,.06-.52,3.86,3.86,0,0,0,0-.46,3.94,3.94,0,0,0,0-.47,4.43,4.43,0,0,0-.06-.51,3.81,3.81,0,0,0-.12-.51,1.53,1.53,0,0,0-.23-.44,1,1,0,0,0-.34-.31.9.9,0,0,0-.48-.12,1,1,0,0,0-.48.12,1.24,1.24,0,0,0-.34.31,1.51,1.51,0,0,0-.22.44,2.72,2.72,0,0,0-.13.51,4.43,4.43,0,0,0-.06.51C206.92,238.9,206.91,239.06,206.91,239.2Z"/><path d="M210.84,237.41a1.13,1.13,0,0,1,.09-.45,1.26,1.26,0,0,1,.24-.36,1.2,1.2,0,0,1,.82-.33,1,1,0,0,1,.44.09,1.12,1.12,0,0,1,.37.24,1.26,1.26,0,0,1,.24.36,1.16,1.16,0,0,1-.24,1.26,1.15,1.15,0,0,1-.37.25,1,1,0,0,1-.44.09,1.13,1.13,0,0,1-.45-.09,1.15,1.15,0,0,1-.37-.25,1.15,1.15,0,0,1-.33-.81Zm.43,0a.61.61,0,0,0,.06.25.68.68,0,0,0,.14.23.72.72,0,0,0,.22.17.73.73,0,0,0,.3.06.72.72,0,0,0,.29-.06.62.62,0,0,0,.22-.17.91.91,0,0,0,.15-.23.65.65,0,0,0,0-.5,1.14,1.14,0,0,0-.15-.23.76.76,0,0,0-.22-.17.72.72,0,0,0-.29-.06.73.73,0,0,0-.3.06.92.92,0,0,0-.22.17.79.79,0,0,0-.14.23A.61.61,0,0,0,211.27,237.41Z"/><path d="M93.6,238.76h.21l.44,0a1.1,1.1,0,0,0,.41-.13.86.86,0,0,0,.32-.31.94.94,0,0,0,.12-.51.87.87,0,0,0-.27-.68,1,1,0,0,0-.7-.26,1.21,1.21,0,0,0-.62.16,1.1,1.1,0,0,0-.42.48l-.65-.25a1.45,1.45,0,0,1,.66-.72,2,2,0,0,1,1-.24,2.32,2.32,0,0,1,.65.09,2,2,0,0,1,.54.28,1.67,1.67,0,0,1,.37.46,1.48,1.48,0,0,1,.13.65,1.29,1.29,0,0,1-.27.8,1.34,1.34,0,0,1-.7.49v0a1.31,1.31,0,0,1,.49.18,1.34,1.34,0,0,1,.36.31,1.37,1.37,0,0,1,.23.43,1.42,1.42,0,0,1,.08.5,1.66,1.66,0,0,1-.15.72,1.57,1.57,0,0,1-.41.51,1.75,1.75,0,0,1-.59.31,2.46,2.46,0,0,1-.72.1,2.18,2.18,0,0,1-1.13-.28,1.56,1.56,0,0,1-.69-.91l.68-.22a1.2,1.2,0,0,0,.41.65,1.27,1.27,0,0,0,.73.19,1.33,1.33,0,0,0,.45-.08,1.11,1.11,0,0,0,.36-.23,1.07,1.07,0,0,0,.25-.35,1.13,1.13,0,0,0,.09-.45,1.07,1.07,0,0,0-.12-.53.87.87,0,0,0-.33-.33,1.17,1.17,0,0,0-.46-.18,2.24,2.24,0,0,0-.52-.06H93.6Z"/><path d="M96.68,239.2a5.7,5.7,0,0,1,.08-1,3.1,3.1,0,0,1,.29-.95,2,2,0,0,1,.59-.71,1.6,1.6,0,0,1,1-.27,1.57,1.57,0,0,1,1,.27,1.94,1.94,0,0,1,.59.71,3.41,3.41,0,0,1,.3.95,6.85,6.85,0,0,1,.08,1,7.07,7.07,0,0,1-.08,1,3.45,3.45,0,0,1-.3.94,1.94,1.94,0,0,1-.59.71,1.57,1.57,0,0,1-1,.27,1.6,1.6,0,0,1-1-.27,2,2,0,0,1-.59-.71,3.13,3.13,0,0,1-.29-.94A5.85,5.85,0,0,1,96.68,239.2Zm.67,0c0,.13,0,.29,0,.46a4.88,4.88,0,0,0,.06.52,4.07,4.07,0,0,0,.13.5,1.41,1.41,0,0,0,.23.44,1,1,0,0,0,.34.31.9.9,0,0,0,.48.12,1,1,0,0,0,.48-.12,1.24,1.24,0,0,0,.34-.31,1.65,1.65,0,0,0,.22-.44,2.83,2.83,0,0,0,.13-.5,4.88,4.88,0,0,0,.06-.52c0-.17,0-.33,0-.46s0-.3,0-.47a4.43,4.43,0,0,0-.06-.51,2.72,2.72,0,0,0-.13-.51,1.81,1.81,0,0,0-.22-.44,1.24,1.24,0,0,0-.34-.31,1,1,0,0,0-.48-.12.9.9,0,0,0-.48.12,1,1,0,0,0-.34.31,1.53,1.53,0,0,0-.23.44,3.8,3.8,0,0,0-.13.51,4.43,4.43,0,0,0-.06.51C97.35,238.9,97.35,239.06,97.35,239.2Z"/><path d="M101.28,237.41a1.33,1.33,0,0,1,.08-.45,1.11,1.11,0,0,1,.25-.36,1,1,0,0,1,.36-.24,1.17,1.17,0,0,1,.9,0,1,1,0,0,1,.36.24,1.11,1.11,0,0,1,.25.36,1.31,1.31,0,0,1,0,.9,1.23,1.23,0,0,1-.61.61,1.17,1.17,0,0,1-.9,0,1.23,1.23,0,0,1-.61-.61A1.33,1.33,0,0,1,101.28,237.41Zm.43,0a.79.79,0,0,0,.05.25.68.68,0,0,0,.14.23.76.76,0,0,0,.23.17.73.73,0,0,0,.58,0,.66.66,0,0,0,.23-.17.68.68,0,0,0,.14-.23.71.71,0,0,0-.14-.73.81.81,0,0,0-.23-.17.73.73,0,0,0-.58,0,1,1,0,0,0-.23.17.75.75,0,0,0-.19.48Z"/><path d="M203.18,38.51h-.68v-4.8h0l-1,.85-.4-.48,1.52-1.24h.59Z"/><path d="M208.49,33.47h-2.31l0,1.53a1.08,1.08,0,0,1,.36-.11l.37,0a2,2,0,0,1,.74.14,1.61,1.61,0,0,1,.57.39,1.9,1.9,0,0,1,.37.59,2,2,0,0,1,.13.74,2,2,0,0,1-.15.78,1.74,1.74,0,0,1-.41.59,1.91,1.91,0,0,1-.61.38,2.2,2.2,0,0,1-.78.13,1.73,1.73,0,0,1-1-.28,2,2,0,0,1-.63-.75l.67-.25a1.31,1.31,0,0,0,.42.51,1.1,1.1,0,0,0,.64.2,1.28,1.28,0,0,0,.48-.09,1.26,1.26,0,0,0,.38-.27,1.15,1.15,0,0,0,.26-.41,1.53,1.53,0,0,0,.1-.54,1.38,1.38,0,0,0-.11-.55,1.08,1.08,0,0,0-.3-.4,1.26,1.26,0,0,0-.44-.25,1.67,1.67,0,0,0-.55-.08,1.84,1.84,0,0,0-.6.1,2.58,2.58,0,0,0-.56.25l.06-2.95h3Z"/><path d="M209.45,35.68a7,7,0,0,1,.08-1,3.1,3.1,0,0,1,.29-1,2,2,0,0,1,.59-.71,1.6,1.6,0,0,1,1-.27,1.55,1.55,0,0,1,.95.27,1.94,1.94,0,0,1,.59.71,2.86,2.86,0,0,1,.3,1,7,7,0,0,1,.08,1,7.07,7.07,0,0,1-.08,1,2.88,2.88,0,0,1-.3.94,1.94,1.94,0,0,1-.59.71,1.55,1.55,0,0,1-.95.27,1.6,1.6,0,0,1-1-.27,2,2,0,0,1-.59-.71,3.13,3.13,0,0,1-.29-.94A7.07,7.07,0,0,1,209.45,35.68Zm.67,0c0,.13,0,.29,0,.46a4.88,4.88,0,0,0,.06.52,4.05,4.05,0,0,0,.12.5,1.66,1.66,0,0,0,.23.44,1,1,0,0,0,.34.31.9.9,0,0,0,.48.12,1,1,0,0,0,.48-.12,1.24,1.24,0,0,0,.34-.31,1.4,1.4,0,0,0,.22-.44,2.83,2.83,0,0,0,.13-.5,4.88,4.88,0,0,0,.06-.52c0-.17,0-.33,0-.46s0-.3,0-.47a4.43,4.43,0,0,0-.06-.51,2.72,2.72,0,0,0-.13-.51,1.51,1.51,0,0,0-.22-.44,1.24,1.24,0,0,0-.34-.31,1,1,0,0,0-.48-.12.9.9,0,0,0-.48.12,1,1,0,0,0-.34.31,1.83,1.83,0,0,0-.23.44,3.81,3.81,0,0,0-.12.51,4.43,4.43,0,0,0-.06.51C210.13,35.38,210.12,35.54,210.12,35.68Z"/><path d="M214.05,33.89a1.15,1.15,0,0,1,.33-.81,1,1,0,0,1,.37-.24,1,1,0,0,1,.44-.09,1.13,1.13,0,0,1,.45.09,1,1,0,0,1,.36.24,1,1,0,0,1,.25.36,1.17,1.17,0,0,1,0,.9,1.23,1.23,0,0,1-.61.61,1.13,1.13,0,0,1-.45.09,1.15,1.15,0,0,1-.81-.34,1.15,1.15,0,0,1-.33-.81Zm.43,0a.79.79,0,0,0,.05.25,1.14,1.14,0,0,0,.15.23.62.62,0,0,0,.22.17.72.72,0,0,0,.29.06.68.68,0,0,0,.52-.23.79.79,0,0,0,.14-.23.65.65,0,0,0,0-.5.79.79,0,0,0-.14-.23.81.81,0,0,0-.23-.17.65.65,0,0,0-.29-.06.72.72,0,0,0-.29.06.76.76,0,0,0-.22.17,1.14,1.14,0,0,0-.15.23A.79.79,0,0,0,214.48,33.89Z"/><path d="M93.61,38.51h-.67v-4.8h0l-1,.85-.4-.48L93,32.84h.58Z"/><path d="M98.92,33.47H96.61l0,1.53a1,1,0,0,1,.35-.11l.37,0a1.91,1.91,0,0,1,.74.14,1.65,1.65,0,0,1,.58.39A1.71,1.71,0,0,1,99,36a2,2,0,0,1,.13.74,2,2,0,0,1-.15.78,1.71,1.71,0,0,1-.4.59,2,2,0,0,1-.62.38,2.15,2.15,0,0,1-.77.13,1.78,1.78,0,0,1-1.05-.28,1.85,1.85,0,0,1-.62-.75l.67-.25a1.16,1.16,0,0,0,.42.51,1.05,1.05,0,0,0,.63.2,1.28,1.28,0,0,0,.48-.09,1.23,1.23,0,0,0,.64-.68,1.33,1.33,0,0,0,.1-.54,1.38,1.38,0,0,0-.11-.55,1.18,1.18,0,0,0-.29-.4,1.41,1.41,0,0,0-.45-.25,1.63,1.63,0,0,0-.55-.08,1.78,1.78,0,0,0-.59.1,2.58,2.58,0,0,0-.56.25l0-2.95h3Z"/><path d="M99.88,35.68a7,7,0,0,1,.08-1,3.11,3.11,0,0,1,.3-1,1.94,1.94,0,0,1,.59-.71,1.55,1.55,0,0,1,1-.27,1.6,1.6,0,0,1,1,.27,2,2,0,0,1,.59.71,3.1,3.1,0,0,1,.29,1,5.77,5.77,0,0,1,.08,1,5.85,5.85,0,0,1-.08,1,3.13,3.13,0,0,1-.29.94,2,2,0,0,1-.59.71,1.6,1.6,0,0,1-1,.27,1.55,1.55,0,0,1-1-.27,1.94,1.94,0,0,1-.59-.71,3.14,3.14,0,0,1-.3-.94A7.07,7.07,0,0,1,99.88,35.68Zm.67,0c0,.13,0,.29,0,.46a4.88,4.88,0,0,0,.06.52,2.83,2.83,0,0,0,.13.5,1.4,1.4,0,0,0,.22.44,1.24,1.24,0,0,0,.34.31,1,1,0,0,0,.48.12.9.9,0,0,0,.48-.12,1,1,0,0,0,.34-.31,1.41,1.41,0,0,0,.23-.44,4.05,4.05,0,0,0,.12-.5,4.88,4.88,0,0,0,.06-.52c0-.17,0-.33,0-.46s0-.3,0-.47a4.43,4.43,0,0,0-.06-.51,3.81,3.81,0,0,0-.12-.51,1.53,1.53,0,0,0-.23-.44,1,1,0,0,0-.34-.31.9.9,0,0,0-.48-.12,1,1,0,0,0-.48.12,1.24,1.24,0,0,0-.34.31,1.51,1.51,0,0,0-.22.44,2.72,2.72,0,0,0-.13.51,4.43,4.43,0,0,0-.06.51C100.56,35.38,100.55,35.54,100.55,35.68Z"/><path d="M104.48,33.89a1.15,1.15,0,0,1,1.15-1.14,1,1,0,0,1,.44.09,1.12,1.12,0,0,1,.37.24,1.16,1.16,0,0,1,0,1.62,1.15,1.15,0,0,1-.37.25,1,1,0,0,1-.44.09,1.13,1.13,0,0,1-.45-.09,1.15,1.15,0,0,1-.37-.25,1.15,1.15,0,0,1-.33-.81Zm.43,0a.61.61,0,0,0,.06.25.79.79,0,0,0,.14.23.72.72,0,0,0,.22.17.73.73,0,0,0,.3.06.72.72,0,0,0,.29-.06.62.62,0,0,0,.22-.17,1.14,1.14,0,0,0,.15-.23.65.65,0,0,0,0-.5,1.14,1.14,0,0,0-.15-.23.76.76,0,0,0-.22-.17.72.72,0,0,0-.29-.06.73.73,0,0,0-.3.06.92.92,0,0,0-.22.17.79.79,0,0,0-.14.23A.61.61,0,0,0,104.91,33.89Z"/><path d="M248.75,192.45v0a1.35,1.35,0,0,1,.37-.13,2,2,0,0,1,.39,0,1.73,1.73,0,0,1,.69.13,1.42,1.42,0,0,1,.54.36,1.85,1.85,0,0,1,.36.57,2,2,0,0,1,.12.72,1.78,1.78,0,0,1-.14.74,1.74,1.74,0,0,1-.4.56,2,2,0,0,1-.6.35,2.36,2.36,0,0,1-.75.12,2.27,2.27,0,0,1-.75-.12,2,2,0,0,1-.6-.35,1.6,1.6,0,0,1-.4-.56,1.78,1.78,0,0,1-.15-.74,2.24,2.24,0,0,1,.15-.86,5.28,5.28,0,0,1,.39-.74l1.5-2.39h.79Zm.59.43a1.23,1.23,0,0,0-.87.32,1,1,0,0,0-.26.38,1.31,1.31,0,0,0-.1.5,1.35,1.35,0,0,0,.1.5,1.08,1.08,0,0,0,.26.37,1,1,0,0,0,.39.24,1.32,1.32,0,0,0,1,0,1,1,0,0,0,.39-.24,1.23,1.23,0,0,0,.26-.37,1.35,1.35,0,0,0,.09-.5,1.31,1.31,0,0,0-.09-.5,1.16,1.16,0,0,0-.26-.38,1.23,1.23,0,0,0-.87-.32Z"/><path d="M251.82,192.92a7.07,7.07,0,0,1,.08-1,3.13,3.13,0,0,1,.29-.94,2,2,0,0,1,.59-.71,1.6,1.6,0,0,1,1-.27,1.55,1.55,0,0,1,.95.27,1.94,1.94,0,0,1,.59.71,2.88,2.88,0,0,1,.3.94,7.07,7.07,0,0,1,.08,1,7,7,0,0,1-.08,1,2.86,2.86,0,0,1-.3,1,1.94,1.94,0,0,1-.59.71,1.55,1.55,0,0,1-.95.27,1.6,1.6,0,0,1-1-.27,2,2,0,0,1-.59-.71,3.1,3.1,0,0,1-.29-1A7,7,0,0,1,251.82,192.92Zm.67,0c0,.14,0,.3,0,.47a4.43,4.43,0,0,0,.06.51,3.81,3.81,0,0,0,.12.51,1.83,1.83,0,0,0,.23.44,1,1,0,0,0,.34.31.9.9,0,0,0,.48.12,1,1,0,0,0,.48-.12,1.24,1.24,0,0,0,.34-.31,1.51,1.51,0,0,0,.22-.44,2.72,2.72,0,0,0,.13-.51,4.43,4.43,0,0,0,.06-.51c0-.17,0-.33,0-.47s0-.29,0-.46a4.88,4.88,0,0,0-.06-.52,2.83,2.83,0,0,0-.13-.5,1.4,1.4,0,0,0-.22-.44,1.1,1.1,0,0,0-.34-.31,1,1,0,0,0-.48-.12.9.9,0,0,0-.48.12.92.92,0,0,0-.34.31,1.66,1.66,0,0,0-.23.44,4.05,4.05,0,0,0-.12.5,4.88,4.88,0,0,0-.06.52C252.5,192.63,252.49,192.79,252.49,192.92Z"/><path d="M256.42,191.14a1.15,1.15,0,0,1,.33-.81,1.05,1.05,0,0,1,.37-.25,1.23,1.23,0,0,1,.44-.08,1.33,1.33,0,0,1,.45.08,1.15,1.15,0,0,1,.37.25,1.16,1.16,0,0,1,0,1.62,1.15,1.15,0,0,1-.37.25,1.33,1.33,0,0,1-.45.08,1.23,1.23,0,0,1-.44-.08,1.05,1.05,0,0,1-.37-.25,1.15,1.15,0,0,1-.33-.81Zm.43,0a.79.79,0,0,0,0,.25,1.14,1.14,0,0,0,.15.23.62.62,0,0,0,.22.17.72.72,0,0,0,.29.06.68.68,0,0,0,.52-.23.79.79,0,0,0,.14-.23.65.65,0,0,0,0-.5.79.79,0,0,0-.14-.23.68.68,0,0,0-.52-.23.72.72,0,0,0-.29.06.62.62,0,0,0-.22.17,1.14,1.14,0,0,0-.15.23A.79.79,0,0,0,256.85,191.14Z"/><path d="M250,81.22h-.67v-4.8h0l-1,.86-.4-.49,1.52-1.23H250Z"/><path d="M251.92,80.45l2.13-2.08c.13-.12.25-.24.35-.35a2.16,2.16,0,0,0,.25-.32,1.09,1.09,0,0,0,.15-.33,1.38,1.38,0,0,0,0-.37,1,1,0,0,0-.08-.4.84.84,0,0,0-.22-.3.78.78,0,0,0-.33-.19,1.05,1.05,0,0,0-.4-.07,1,1,0,0,0-.71.25,1.08,1.08,0,0,0-.36.65l-.73-.06a1.83,1.83,0,0,1,.21-.61,1.41,1.41,0,0,1,.39-.45,2,2,0,0,1,.53-.27,2.25,2.25,0,0,1,.64-.09,2.41,2.41,0,0,1,.67.1,1.92,1.92,0,0,1,.55.29,1.44,1.44,0,0,1,.51,1.15,2,2,0,0,1-.09.61,2,2,0,0,1-.25.5,3.47,3.47,0,0,1-.35.43l-.41.4-1.75,1.64v0h2.89v.62h-3.64Z"/><path d="M256.27,78.39a5.85,5.85,0,0,1,.08-1,3.19,3.19,0,0,1,.29-1,2,2,0,0,1,.59-.7,1.54,1.54,0,0,1,1-.28,1.51,1.51,0,0,1,.95.28,1.91,1.91,0,0,1,.59.7,3.2,3.2,0,0,1,.3,1,6.29,6.29,0,0,1,0,2,3.2,3.2,0,0,1-.3,1,1.91,1.91,0,0,1-.59.7,1.51,1.51,0,0,1-.95.28,1.54,1.54,0,0,1-1-.28,2,2,0,0,1-.59-.7,3.19,3.19,0,0,1-.29-1A5.85,5.85,0,0,1,256.27,78.39Zm.67,0a3.78,3.78,0,0,0,0,.46c0,.17,0,.35.05.52a4.77,4.77,0,0,0,.13.51,1.67,1.67,0,0,0,.23.44,1,1,0,0,0,.34.31,1,1,0,0,0,.48.11,1.06,1.06,0,0,0,.48-.11,1.24,1.24,0,0,0,.34-.31,2,2,0,0,0,.22-.44,3.18,3.18,0,0,0,.13-.51,4.6,4.6,0,0,0,.06-.52c0-.17,0-.32,0-.46s0-.29,0-.46a4.35,4.35,0,0,0-.06-.52,3.18,3.18,0,0,0-.13-.51,2,2,0,0,0-.22-.44,1.24,1.24,0,0,0-.34-.31,1.06,1.06,0,0,0-.48-.11,1,1,0,0,0-.48.11,1,1,0,0,0-.34.31,1.67,1.67,0,0,0-.23.44,4.77,4.77,0,0,0-.13.51c0,.17,0,.34-.05.52A3.78,3.78,0,0,0,256.94,78.39Z"/><path d="M260.87,76.61a1.13,1.13,0,0,1,.09-.45,1,1,0,0,1,.24-.37,1.16,1.16,0,0,1,1.62,0,1.15,1.15,0,0,1,.25.37,1.13,1.13,0,0,1,.09.45,1,1,0,0,1-.09.44,1.15,1.15,0,0,1-.25.37,1.16,1.16,0,0,1-1.62,0,1,1,0,0,1-.24-.37A1,1,0,0,1,260.87,76.61Zm.43,0a.69.69,0,0,0,.05.24.75.75,0,0,0,.15.24.6.6,0,0,0,.22.16.64.64,0,0,0,.58,0,.63.63,0,0,0,.23-.16.72.72,0,0,0,.14-.24.52.52,0,0,0,.05-.24.56.56,0,0,0-.05-.25.59.59,0,0,0-.14-.23.66.66,0,0,0-.23-.17.64.64,0,0,0-.58,0,.62.62,0,0,0-.22.17.61.61,0,0,0-.15.23A.74.74,0,0,0,261.3,76.61Z"/><path d="M40.39,192.45v0a1.42,1.42,0,0,1,.38-.13,1.84,1.84,0,0,1,.39,0,1.72,1.72,0,0,1,.68.13,1.42,1.42,0,0,1,.54.36,1.85,1.85,0,0,1,.36.57,2,2,0,0,1,.13.72,1.78,1.78,0,0,1-.15.74,1.6,1.6,0,0,1-.4.56,2,2,0,0,1-.6.35,2.4,2.4,0,0,1-1.5,0,2,2,0,0,1-.6-.35,1.6,1.6,0,0,1-.4-.56,1.78,1.78,0,0,1-.15-.74,2.24,2.24,0,0,1,.16-.86,5.19,5.19,0,0,1,.38-.74l1.5-2.39h.79Zm.59.43a1.23,1.23,0,0,0-.87.32,1.16,1.16,0,0,0-.26.38,1.31,1.31,0,0,0-.09.5,1.35,1.35,0,0,0,.09.5,1.23,1.23,0,0,0,.26.37,1,1,0,0,0,.39.24,1.32,1.32,0,0,0,1,0,1,1,0,0,0,.39-.24,1.23,1.23,0,0,0,.26-.37,1.35,1.35,0,0,0,.1-.5,1.31,1.31,0,0,0-.1-.5,1.16,1.16,0,0,0-.26-.38,1.23,1.23,0,0,0-.87-.32Z"/><path d="M43.46,192.92a7.07,7.07,0,0,1,.08-1,2.88,2.88,0,0,1,.3-.94,1.94,1.94,0,0,1,.59-.71,1.55,1.55,0,0,1,1-.27,1.6,1.6,0,0,1,1,.27,2,2,0,0,1,.59.71,3.13,3.13,0,0,1,.29.94,7.07,7.07,0,0,1,.08,1,7,7,0,0,1-.08,1,3.1,3.1,0,0,1-.29,1,2,2,0,0,1-.59.71,1.6,1.6,0,0,1-1,.27,1.55,1.55,0,0,1-1-.27,1.94,1.94,0,0,1-.59-.71,2.86,2.86,0,0,1-.3-1A7,7,0,0,1,43.46,192.92Zm.67,0c0,.14,0,.3,0,.47a4.43,4.43,0,0,0,.06.51,2.72,2.72,0,0,0,.13.51,1.51,1.51,0,0,0,.22.44,1.12,1.12,0,0,0,.34.31,1,1,0,0,0,1,0,1.12,1.12,0,0,0,.34-.31,1.83,1.83,0,0,0,.23-.44,3.81,3.81,0,0,0,.12-.51,4.43,4.43,0,0,0,.06-.51c0-.17,0-.33,0-.47s0-.29,0-.46a4.88,4.88,0,0,0-.06-.52,4.05,4.05,0,0,0-.12-.5,1.66,1.66,0,0,0-.23-.44,1,1,0,0,0-.34-.31,1,1,0,0,0-1,0,1,1,0,0,0-.34.31,1.4,1.4,0,0,0-.22.44,2.83,2.83,0,0,0-.13.5,4.88,4.88,0,0,0-.06.52C44.14,192.63,44.13,192.79,44.13,192.92Z"/><path d="M48.06,191.14a1.15,1.15,0,0,1,.33-.81,1.15,1.15,0,0,1,.37-.25,1.33,1.33,0,0,1,.45-.08,1.27,1.27,0,0,1,.44.08,1.15,1.15,0,0,1,.37.25A1.16,1.16,0,0,1,50,192a1.15,1.15,0,0,1-.37.25,1.27,1.27,0,0,1-.44.08,1.33,1.33,0,0,1-.45-.08,1.15,1.15,0,0,1-.37-.25,1.15,1.15,0,0,1-.33-.81Zm.43,0a.61.61,0,0,0,.06.25.79.79,0,0,0,.14.23.72.72,0,0,0,.22.17.73.73,0,0,0,.3.06.72.72,0,0,0,.29-.06.62.62,0,0,0,.22-.17,1.14,1.14,0,0,0,.15-.23.65.65,0,0,0,0-.5,1.14,1.14,0,0,0-.15-.23.62.62,0,0,0-.22-.17.72.72,0,0,0-.29-.06.73.73,0,0,0-.3.06.72.72,0,0,0-.22.17.79.79,0,0,0-.14.23A.61.61,0,0,0,48.49,191.14Z"/><path d="M39.15,81.22h-.67v-4.8h0l-1,.86-.4-.49,1.52-1.23h.58Z"/><path d="M41.07,80.45l2.14-2.08c.13-.12.25-.24.35-.35a2.16,2.16,0,0,0,.25-.32,1.09,1.09,0,0,0,.15-.33A1.38,1.38,0,0,0,44,77a1,1,0,0,0-.08-.4.84.84,0,0,0-.22-.3.78.78,0,0,0-.33-.19A1.05,1.05,0,0,0,43,76a1,1,0,0,0-.72.25,1.19,1.19,0,0,0-.36.65l-.72-.06a1.47,1.47,0,0,1,.21-.61,1.41,1.41,0,0,1,.39-.45,2,2,0,0,1,.53-.27,2.2,2.2,0,0,1,.64-.09,2.41,2.41,0,0,1,.67.1,2.06,2.06,0,0,1,.55.29,1.47,1.47,0,0,1,.37.48,1.6,1.6,0,0,1,.14.67,2,2,0,0,1-.09.61,2.34,2.34,0,0,1-.25.5,3.47,3.47,0,0,1-.35.43l-.41.4-1.75,1.64v0h2.89v.62H41.07Z"/><path d="M45.43,78.39a7,7,0,0,1,.07-1,3.52,3.52,0,0,1,.3-1,2,2,0,0,1,.59-.7,1.77,1.77,0,0,1,1.91,0,1.91,1.91,0,0,1,.59.7,3.52,3.52,0,0,1,.3,1,6.29,6.29,0,0,1,0,2,3.52,3.52,0,0,1-.3,1,1.91,1.91,0,0,1-.59.7,1.77,1.77,0,0,1-1.91,0,2,2,0,0,1-.59-.7,3.52,3.52,0,0,1-.3-1A7,7,0,0,1,45.43,78.39Zm.67,0c0,.14,0,.29,0,.46a4.6,4.6,0,0,0,.06.52,4.77,4.77,0,0,0,.13.51,2,2,0,0,0,.22.44,1.15,1.15,0,0,0,.35.31,1,1,0,0,0,.48.11,1.06,1.06,0,0,0,.48-.11,1.24,1.24,0,0,0,.34-.31,2,2,0,0,0,.22-.44,3.18,3.18,0,0,0,.13-.51,4.6,4.6,0,0,0,.06-.52c0-.17,0-.32,0-.46s0-.29,0-.46a4.35,4.35,0,0,0-.06-.52,3.18,3.18,0,0,0-.13-.51,2,2,0,0,0-.22-.44,1.24,1.24,0,0,0-.34-.31,1.06,1.06,0,0,0-.48-.11,1,1,0,0,0-.48.11,1.15,1.15,0,0,0-.35.31,2,2,0,0,0-.22.44,4.77,4.77,0,0,0-.13.51,4.35,4.35,0,0,0-.06.52C46.1,78.1,46.1,78.25,46.1,78.39Z"/><path d="M50,76.61a1.12,1.12,0,0,1,.08-.45,1.15,1.15,0,0,1,.25-.37,1.16,1.16,0,0,1,1.62,0,1.15,1.15,0,0,1,.25.37,1.33,1.33,0,0,1,.08.45,1.23,1.23,0,0,1-.08.44,1.15,1.15,0,0,1-.25.37,1.16,1.16,0,0,1-1.62,0,1.15,1.15,0,0,1-.25-.37A1,1,0,0,1,50,76.61Zm.43,0a.52.52,0,0,0,0,.24.72.72,0,0,0,.14.24.63.63,0,0,0,.23.16.64.64,0,0,0,.58,0,.73.73,0,0,0,.23-.16,1,1,0,0,0,.14-.24.69.69,0,0,0,.05-.24.75.75,0,0,0-.19-.48.76.76,0,0,0-.23-.17.64.64,0,0,0-.58,0,.66.66,0,0,0-.23.17.59.59,0,0,0-.14.23A.56.56,0,0,0,50.46,76.61Z"/></g><g id="numeri_fondo_tabella" data-name="numeri fondo tabella"><path d="M131.83,251.42a1.17,1.17,0,0,0-.43-.35,1.19,1.19,0,0,0-.51-.11,1.35,1.35,0,0,0-.55.11,1.08,1.08,0,0,0-.4.3,1.32,1.32,0,0,0-.23.44,1.76,1.76,0,0,0,0,1.08,1.43,1.43,0,0,0,.26.45,1.31,1.31,0,0,0,.39.3,1.27,1.27,0,0,0,.52.1,1.09,1.09,0,0,0,1-.46l.47.44a1.69,1.69,0,0,1-.64.46,2.29,2.29,0,0,1-.78.14,2.22,2.22,0,0,1-.79-.14,1.75,1.75,0,0,1-1-1,2.27,2.27,0,0,1,0-1.57,1.86,1.86,0,0,1,.39-.63,2,2,0,0,1,.61-.41,2,2,0,0,1,.79-.15,2.09,2.09,0,0,1,.79.15,1.59,1.59,0,0,1,.65.45Z"/><path d="M136.21,253.56h0a1.43,1.43,0,0,1-.55.54,1.7,1.7,0,0,1-.89.22,1.8,1.8,0,0,1-.73-.15,1.78,1.78,0,0,1-.6-.41,1.81,1.81,0,0,1-.39-.62,2.06,2.06,0,0,1-.15-.79,2,2,0,0,1,.15-.78,1.88,1.88,0,0,1,.4-.63,1.81,1.81,0,0,1,.62-.41,2.07,2.07,0,0,1,.8-.15,1.72,1.72,0,0,1,.75.17,1.78,1.78,0,0,1,.59.47h0v-2.84h.62v6h-.62Zm0-1.21a1.63,1.63,0,0,0-.09-.55,1.34,1.34,0,0,0-.27-.44,1.37,1.37,0,0,0-.42-.29,1.35,1.35,0,0,0-.55-.11,1.42,1.42,0,0,0-.55.11,1.22,1.22,0,0,0-.41.29,1.34,1.34,0,0,0-.27.44,1.56,1.56,0,0,0,0,1.1,1.25,1.25,0,0,0,.27.44,1.19,1.19,0,0,0,1,.4,1.35,1.35,0,0,0,.55-.1,1.6,1.6,0,0,0,.42-.3,1.25,1.25,0,0,0,.27-.44A1.63,1.63,0,0,0,136.21,252.35Z"/><path d="M140.1,254.57l-.5-.2,2.4-6.15.51.2Z"/><path d="M147.64,254.22H147v-4.8h0l-1,.86-.4-.49,1.52-1.23h.59Z"/><path d="M149.46,251.39a7.07,7.07,0,0,1,.08-1,3.19,3.19,0,0,1,.29-.95,2,2,0,0,1,.59-.7,1.61,1.61,0,0,1,1-.28,1.55,1.55,0,0,1,1,.28,1.91,1.91,0,0,1,.59.7,2.94,2.94,0,0,1,.3.95,6.29,6.29,0,0,1,0,2,2.94,2.94,0,0,1-.3,1,1.91,1.91,0,0,1-.59.7,1.49,1.49,0,0,1-1,.28,1.54,1.54,0,0,1-1-.28,2,2,0,0,1-.59-.7,3.19,3.19,0,0,1-.29-1A7.07,7.07,0,0,1,149.46,251.39Zm.67,0c0,.14,0,.29,0,.47a4.43,4.43,0,0,0,.06.51,4.7,4.7,0,0,0,.12.51,2,2,0,0,0,.23.44,1.12,1.12,0,0,0,.34.31,1.1,1.1,0,0,0,1,0,1.12,1.12,0,0,0,.34-.31,1.65,1.65,0,0,0,.22-.44,3.18,3.18,0,0,0,.13-.51,4.43,4.43,0,0,0,.06-.51c0-.18,0-.33,0-.47s0-.29,0-.46a4.6,4.6,0,0,0-.06-.52,3.18,3.18,0,0,0-.13-.51,1.65,1.65,0,0,0-.22-.44,1.08,1.08,0,0,0-.34-.3,1,1,0,0,0-1,0,1.08,1.08,0,0,0-.34.3,2,2,0,0,0-.23.44,4.7,4.7,0,0,0-.12.51,4.6,4.6,0,0,0-.06.52C150.14,251.1,150.13,251.25,150.13,251.39Z"/><path d="M153.91,251.39a5.85,5.85,0,0,1,.08-1,3.19,3.19,0,0,1,.29-.95,2,2,0,0,1,.59-.7,1.61,1.61,0,0,1,1-.28,1.55,1.55,0,0,1,.95.28,1.91,1.91,0,0,1,.59.7,3.2,3.2,0,0,1,.3.95,6.29,6.29,0,0,1,0,2,3.2,3.2,0,0,1-.3,1,1.91,1.91,0,0,1-.59.7,1.49,1.49,0,0,1-.95.28,1.54,1.54,0,0,1-1-.28,2,2,0,0,1-.59-.7,3.19,3.19,0,0,1-.29-1A5.85,5.85,0,0,1,153.91,251.39Zm.67,0a4,4,0,0,0,0,.47,4.43,4.43,0,0,0,.06.51,3.14,3.14,0,0,0,.12.51,1.67,1.67,0,0,0,.23.44,1,1,0,0,0,.34.31.9.9,0,0,0,.48.11,1,1,0,0,0,.48-.11,1.24,1.24,0,0,0,.34-.31,1.65,1.65,0,0,0,.22-.44,3.18,3.18,0,0,0,.13-.51,4.43,4.43,0,0,0,.06-.51c0-.18,0-.33,0-.47s0-.29,0-.46a4.6,4.6,0,0,0-.06-.52,3.18,3.18,0,0,0-.13-.51,1.65,1.65,0,0,0-.22-.44,1.21,1.21,0,0,0-.34-.3,1,1,0,0,0-.48-.12.9.9,0,0,0-.48.12,1,1,0,0,0-.34.3,1.67,1.67,0,0,0-.23.44,3.14,3.14,0,0,0-.12.51,4.6,4.6,0,0,0-.06.52A3.78,3.78,0,0,0,154.58,251.39Z"/><path d="M158.31,251.39a5.85,5.85,0,0,1,.08-1,3.19,3.19,0,0,1,.29-.95,2,2,0,0,1,.59-.7,1.61,1.61,0,0,1,1-.28,1.55,1.55,0,0,1,1,.28,1.91,1.91,0,0,1,.59.7,3.2,3.2,0,0,1,.3.95,6.29,6.29,0,0,1,0,2,3.2,3.2,0,0,1-.3,1,1.91,1.91,0,0,1-.59.7,1.49,1.49,0,0,1-1,.28,1.54,1.54,0,0,1-1-.28,2,2,0,0,1-.59-.7,3.19,3.19,0,0,1-.29-1A5.85,5.85,0,0,1,158.31,251.39Zm.67,0c0,.14,0,.29,0,.47a4.43,4.43,0,0,0,.06.51,3.14,3.14,0,0,0,.12.51,1.67,1.67,0,0,0,.23.44,1,1,0,0,0,.34.31.9.9,0,0,0,.48.11,1,1,0,0,0,.48-.11,1.24,1.24,0,0,0,.34-.31,1.65,1.65,0,0,0,.22-.44,3.18,3.18,0,0,0,.13-.51,4.43,4.43,0,0,0,.06-.51c0-.18,0-.33,0-.47s0-.29,0-.46a4.6,4.6,0,0,0-.06-.52,3.18,3.18,0,0,0-.13-.51,1.65,1.65,0,0,0-.22-.44,1.21,1.21,0,0,0-.34-.3,1,1,0,0,0-.48-.12.9.9,0,0,0-.48.12,1,1,0,0,0-.34.3,1.67,1.67,0,0,0-.23.44,3.14,3.14,0,0,0-.12.51,4.6,4.6,0,0,0-.06.52C159,251.1,159,251.25,159,251.39Z"/><path d="M165.32,248.18H166v6h-.63Z"/><path d="M167.19,251.37c0-.17,0-.33,0-.48s0-.29,0-.41h.59c0,.1,0,.2,0,.3v.32h0a.91.91,0,0,1,.18-.27,1.64,1.64,0,0,1,.28-.23,1.5,1.5,0,0,1,.36-.16,1.44,1.44,0,0,1,.43-.06,1.52,1.52,0,0,1,.51.08,1.36,1.36,0,0,1,.34.18.93.93,0,0,1,.21.24,1.64,1.64,0,0,1,.12.22,1.78,1.78,0,0,1,.48-.53,1.27,1.27,0,0,1,.71-.19,1.88,1.88,0,0,1,.67.11,1.1,1.1,0,0,1,.44.31,1.37,1.37,0,0,1,.24.5,2.59,2.59,0,0,1,.07.65v2.27h-.62V252a2.33,2.33,0,0,0,0-.37,1,1,0,0,0-.15-.33.71.71,0,0,0-.28-.23,1,1,0,0,0-.45-.09,1,1,0,0,0-.37.08,1,1,0,0,0-.31.22,1.13,1.13,0,0,0-.21.35,1.33,1.33,0,0,0-.07.45v2.16h-.63V252.1a1.62,1.62,0,0,0-.17-.88A.6.6,0,0,0,169,251a1.18,1.18,0,0,0-.52.1.88.88,0,0,0-.36.3,1.14,1.14,0,0,0-.21.46,2.1,2.1,0,0,0-.07.58v1.82h-.62Z"/><line class="cls-1" x1="38.21" y1="253" x2="46.2" y2="253"/><path d="M235.17,251a1.66,1.66,0,0,0-.63-.52,1.93,1.93,0,0,0-.79-.17,2.13,2.13,0,0,0-.87.19,2.16,2.16,0,0,0-.68.52,2.58,2.58,0,0,0-.45.75,2.69,2.69,0,0,0-.16.89,2.79,2.79,0,0,0,.16.93,2.41,2.41,0,0,0,.45.74,2,2,0,0,0,.68.5,1.92,1.92,0,0,0,.87.19,2,2,0,0,0,1.64-.8l.51.43a2.38,2.38,0,0,1-.93.75,3,3,0,0,1-1.22.24,2.85,2.85,0,0,1-1.13-.22,2.82,2.82,0,0,1-.92-.62,3,3,0,0,1-.61-.94,3.33,3.33,0,0,1-.22-1.2,3.19,3.19,0,0,1,.21-1.16,2.9,2.9,0,0,1,.6-1,3.08,3.08,0,0,1,.91-.63,3,3,0,0,1,2.27,0,2,2,0,0,1,.89.68Z"/><path d="M239,253.1l0,0a1.35,1.35,0,0,1-.37.13,2.87,2.87,0,0,1-.39,0,1.68,1.68,0,0,1-.68-.13,1.5,1.5,0,0,1-.55-.36,1.92,1.92,0,0,1-.36-.56,2.11,2.11,0,0,1-.12-.73,1.75,1.75,0,0,1,.14-.74,1.63,1.63,0,0,1,.4-.56,1.79,1.79,0,0,1,.6-.35,2.36,2.36,0,0,1,.75-.12,2.27,2.27,0,0,1,.75.12,1.94,1.94,0,0,1,.61.35,1.49,1.49,0,0,1,.39.56,1.75,1.75,0,0,1,.15.74,2.19,2.19,0,0,1,0,.46c0,.14-.07.27-.11.4a2.53,2.53,0,0,1-.18.37,3.35,3.35,0,0,1-.21.36l-1.5,2.4h-.79Zm-.6-.43a1.51,1.51,0,0,0,.48-.08,1.28,1.28,0,0,0,.39-.24,1.12,1.12,0,0,0,.26-.38,1.27,1.27,0,0,0,.1-.5,1.26,1.26,0,0,0-.1-.49,1,1,0,0,0-.26-.38,1,1,0,0,0-.39-.24,1.33,1.33,0,0,0-1,0,.88.88,0,0,0-.38.24,1.19,1.19,0,0,0-.27.38,1.26,1.26,0,0,0-.09.49,1.28,1.28,0,0,0,.09.5,1.31,1.31,0,0,0,.27.38,1.12,1.12,0,0,0,.38.24A1.51,1.51,0,0,0,238.35,252.67Z"/><path d="M240.88,252.62a7.07,7.07,0,0,1,.08-1,2.88,2.88,0,0,1,.3-.94,2,2,0,0,1,.58-.71,1.84,1.84,0,0,1,1.92,0,2,2,0,0,1,.58.71,2.88,2.88,0,0,1,.3.94,7.07,7.07,0,0,1,.08,1,7,7,0,0,1-.08,1,2.86,2.86,0,0,1-.3.95,2,2,0,0,1-.58.71,1.84,1.84,0,0,1-1.92,0,2,2,0,0,1-.58-.71,2.86,2.86,0,0,1-.3-.95A7,7,0,0,1,240.88,252.62Zm.67,0c0,.14,0,.3,0,.47a4.43,4.43,0,0,0,.06.51,2.72,2.72,0,0,0,.13.51,1.51,1.51,0,0,0,.22.44,1.12,1.12,0,0,0,.34.31,1,1,0,0,0,1,0,1.12,1.12,0,0,0,.34-.31,1.51,1.51,0,0,0,.22-.44,2.72,2.72,0,0,0,.13-.51,4.43,4.43,0,0,0,.06-.51c0-.17,0-.33,0-.47s0-.29,0-.46a4.88,4.88,0,0,0-.06-.52,2.83,2.83,0,0,0-.13-.5,1.4,1.4,0,0,0-.22-.44,1.12,1.12,0,0,0-.34-.31,1,1,0,0,0-1,0,1.12,1.12,0,0,0-.34.31,1.4,1.4,0,0,0-.22.44,2.83,2.83,0,0,0-.13.5,4.88,4.88,0,0,0-.06.52C241.56,252.33,241.55,252.49,241.55,252.62Z"/><path d="M247.78,255.8l-.51-.2,2.41-6.14.5.19Z"/><path d="M257.1,251a1.66,1.66,0,0,0-.63-.52,1.92,1.92,0,0,0-.78-.17,2.06,2.06,0,0,0-.87.19,2.16,2.16,0,0,0-.68.52,2.21,2.21,0,0,0-.45.75,2.46,2.46,0,0,0-.16.89,2.56,2.56,0,0,0,.16.93,2.2,2.2,0,0,0,.44.74,2.1,2.1,0,0,0,.68.5,2,2,0,0,0,.88.19,2,2,0,0,0,.93-.21,2,2,0,0,0,.71-.59l.5.43a2.29,2.29,0,0,1-.92.75,3,3,0,0,1-1.22.24,2.8,2.8,0,0,1-2.05-.84,2.82,2.82,0,0,1-.61-.94,3.13,3.13,0,0,1-.22-1.2,3.19,3.19,0,0,1,.21-1.16,2.75,2.75,0,0,1,.6-1,3,3,0,0,1,.91-.63,2.93,2.93,0,0,1,1.16-.23,3,3,0,0,1,1.11.21,2,2,0,0,1,.89.68Z"/><path d="M258.46,254.69l2.14-2.08.35-.36a1.75,1.75,0,0,0,.25-.32,1,1,0,0,0,.15-.32,1.46,1.46,0,0,0,0-.38,1,1,0,0,0-.08-.4.93.93,0,0,0-.22-.3,1.13,1.13,0,0,0-.73-.26,1,1,0,0,0-.71.25,1.11,1.11,0,0,0-.36.66l-.73-.07a1.91,1.91,0,0,1,.21-.61,1.28,1.28,0,0,1,.39-.44,1.77,1.77,0,0,1,.53-.27,2.25,2.25,0,0,1,.64-.09,2.09,2.09,0,0,1,.67.1,1.53,1.53,0,0,1,.55.29,1.47,1.47,0,0,1,.37.48,1.39,1.39,0,0,1,.14.66,1.91,1.91,0,0,1-.09.61,1.8,1.8,0,0,1-.25.5,2.86,2.86,0,0,1-.35.43l-.41.41-1.75,1.64h2.89v.63h-3.65Z"/><path d="M266.35,250.42l-2.26,5h-.76l2.3-5H262.9v-.63h3.45Z"/><path d="M267.26,252.62a7.07,7.07,0,0,1,.08-1,3.45,3.45,0,0,1,.3-.94,2,2,0,0,1,.59-.71,1.82,1.82,0,0,1,1.91,0,2,2,0,0,1,.59.71,3.45,3.45,0,0,1,.3.94,7,7,0,0,1,.07,1,6.92,6.92,0,0,1-.07,1,3.41,3.41,0,0,1-.3.95,2,2,0,0,1-.59.71,1.82,1.82,0,0,1-1.91,0,2,2,0,0,1-.59-.71,3.41,3.41,0,0,1-.3-.95A7,7,0,0,1,267.26,252.62Zm.68,0c0,.14,0,.3,0,.47a4.43,4.43,0,0,0,.06.51,2.72,2.72,0,0,0,.13.51,1.53,1.53,0,0,0,.23.44,1,1,0,0,0,.34.31.89.89,0,0,0,.47.12,1,1,0,0,0,.49-.12,1.08,1.08,0,0,0,.33-.31,1.53,1.53,0,0,0,.23-.44,2.72,2.72,0,0,0,.13-.51,4.43,4.43,0,0,0,.06-.51c0-.17,0-.33,0-.47s0-.29,0-.46a4.88,4.88,0,0,0-.06-.52,2.83,2.83,0,0,0-.13-.5,1.41,1.41,0,0,0-.23-.44,1.08,1.08,0,0,0-.33-.31,1,1,0,0,0-.49-.12.89.89,0,0,0-.47.12,1,1,0,0,0-.34.31,1.41,1.41,0,0,0-.23.44,2.83,2.83,0,0,0-.13.5,4.88,4.88,0,0,0-.06.52C267.94,252.33,267.94,252.49,267.94,252.62Z"/><path d="M52.87,251a1.55,1.55,0,0,0-.63-.51,1.82,1.82,0,0,0-.79-.18,2,2,0,0,0-.87.2,2.13,2.13,0,0,0-.68.51,2.58,2.58,0,0,0-.45.75,2.67,2.67,0,0,0,0,1.82,2.29,2.29,0,0,0,.45.74,1.88,1.88,0,0,0,.68.5,1.92,1.92,0,0,0,.87.19,2,2,0,0,0,.93-.21,2.07,2.07,0,0,0,.71-.58l.51.42a2.38,2.38,0,0,1-.93.75,3,3,0,0,1-1.22.24,2.85,2.85,0,0,1-1.13-.22,2.82,2.82,0,0,1-.92-.62,3,3,0,0,1-.61-.94,3.27,3.27,0,0,1-.22-1.19,3.2,3.2,0,0,1,.21-1.17,3,3,0,0,1,.6-.95,3.08,3.08,0,0,1,.91-.63,3,3,0,0,1,2.27,0,2,2,0,0,1,.89.68Z"/><path d="M54.13,252.62a7,7,0,0,1,.08-1,3.11,3.11,0,0,1,.3-1,1.94,1.94,0,0,1,.59-.71,1.55,1.55,0,0,1,.95-.27,1.6,1.6,0,0,1,1,.27,2,2,0,0,1,.59.71,3.1,3.1,0,0,1,.29,1,5.77,5.77,0,0,1,.08,1,5.85,5.85,0,0,1-.08,1,3.13,3.13,0,0,1-.29.94,2,2,0,0,1-.59.71,1.6,1.6,0,0,1-1,.27,1.55,1.55,0,0,1-.95-.27,1.94,1.94,0,0,1-.59-.71,3.14,3.14,0,0,1-.3-.94A7.07,7.07,0,0,1,54.13,252.62Zm.67,0c0,.13,0,.29,0,.46a4.88,4.88,0,0,0,.06.52,2.83,2.83,0,0,0,.13.5,1.4,1.4,0,0,0,.22.44,1.1,1.1,0,0,0,.34.31,1,1,0,0,0,.48.12.9.9,0,0,0,.48-.12.92.92,0,0,0,.34-.31,1.41,1.41,0,0,0,.23-.44,2.8,2.8,0,0,0,.12-.5,4.88,4.88,0,0,0,.06-.52,3.86,3.86,0,0,0,0-.46,3.94,3.94,0,0,0,0-.47,4.43,4.43,0,0,0-.06-.51,2.71,2.71,0,0,0-.12-.51,1.53,1.53,0,0,0-.23-.44,1,1,0,0,0-.34-.31.9.9,0,0,0-.48-.12,1,1,0,0,0-.48.12,1.24,1.24,0,0,0-.34.31,1.51,1.51,0,0,0-.22.44,2.72,2.72,0,0,0-.13.51,4.43,4.43,0,0,0-.06.51C54.81,252.32,54.8,252.48,54.8,252.62Z"/><path d="M61,255.79l-.51-.2,2.41-6.14.51.19Z"/><path d="M70.36,251a1.52,1.52,0,0,0-.64-.51,1.78,1.78,0,0,0-.78-.18,2,2,0,0,0-.87.2,2.13,2.13,0,0,0-.68.51,2.58,2.58,0,0,0-.45.75,2.51,2.51,0,0,0-.16.9,2.54,2.54,0,0,0,.16.92,2.46,2.46,0,0,0,.44.74,2.09,2.09,0,0,0,1.56.69,2,2,0,0,0,.93-.21,2.07,2.07,0,0,0,.71-.58l.5.42a2.29,2.29,0,0,1-.92.75,3,3,0,0,1-1.22.24,2.93,2.93,0,0,1-1.14-.22,2.88,2.88,0,0,1-.91-.62,3,3,0,0,1-.61-.94,3.07,3.07,0,0,1-.22-1.19,3.2,3.2,0,0,1,.21-1.17,2.84,2.84,0,0,1,.6-.95,3,3,0,0,1,.91-.63,2.93,2.93,0,0,1,1.16-.23,3,3,0,0,1,1.11.21,2,2,0,0,1,.89.68Z"/><path d="M74.2,255.45h-.68v-4.8h0l-1,.85-.4-.48,1.52-1.24h.59Z"/><path d="M76.37,251.17a1.33,1.33,0,0,1,.13-.61,1.2,1.2,0,0,1,.34-.46,1.44,1.44,0,0,1,.51-.3,1.92,1.92,0,0,1,1.28,0,1.44,1.44,0,0,1,.51.3,1.32,1.32,0,0,1,.34.46,1.48,1.48,0,0,1,.12.61,1.44,1.44,0,0,1-.06.4,1.41,1.41,0,0,1-.18.37,1.18,1.18,0,0,1-.3.29,1,1,0,0,1-.38.19h0a1.44,1.44,0,0,1,.46.19,1.35,1.35,0,0,1,.35.32,1.67,1.67,0,0,1,.23.44,1.7,1.7,0,0,1,.08.51,1.74,1.74,0,0,1-.14.69,1.46,1.46,0,0,1-.39.52,1.47,1.47,0,0,1-.57.33,2.35,2.35,0,0,1-1.42,0,1.59,1.59,0,0,1-.58-.33,1.43,1.43,0,0,1-.38-.52,1.74,1.74,0,0,1-.14-.69,1.7,1.7,0,0,1,.08-.51,1.65,1.65,0,0,1,.22-.44,1.59,1.59,0,0,1,.36-.32,1.44,1.44,0,0,1,.46-.19h0a1.18,1.18,0,0,1-.39-.19,1.33,1.33,0,0,1-.29-.29,1.41,1.41,0,0,1-.18-.37A1.16,1.16,0,0,1,76.37,251.17Zm.48,2.67a1.14,1.14,0,0,0,.09.46,1.21,1.21,0,0,0,.24.35,1.16,1.16,0,0,0,.36.23A1.13,1.13,0,0,0,78,255a1,1,0,0,0,.44-.09,1,1,0,0,0,.36-.23,1.07,1.07,0,0,0,.25-.35,1.36,1.36,0,0,0,0-.92,1.07,1.07,0,0,0-.25-.35,1,1,0,0,0-.36-.23,1,1,0,0,0-.44-.09,1.13,1.13,0,0,0-.45.09,1.16,1.16,0,0,0-.36.23,1.21,1.21,0,0,0-.24.35A1.14,1.14,0,0,0,76.85,253.84ZM77,251.2a.92.92,0,0,0,.26.67.93.93,0,0,0,.69.27.9.9,0,0,0,.68-.27,1,1,0,0,0,0-1.34.9.9,0,0,0-.68-.27.93.93,0,0,0-.69.27A.92.92,0,0,0,77,251.2Z"/><path d="M80.52,252.62a5.77,5.77,0,0,1,.08-1,3.1,3.1,0,0,1,.29-1,2,2,0,0,1,.59-.71,1.6,1.6,0,0,1,1-.27,1.55,1.55,0,0,1,1,.27,1.94,1.94,0,0,1,.59.71,3.41,3.41,0,0,1,.3,1,7,7,0,0,1,.08,1,7.07,7.07,0,0,1-.08,1,3.45,3.45,0,0,1-.3.94,1.94,1.94,0,0,1-.59.71,1.55,1.55,0,0,1-1,.27,1.6,1.6,0,0,1-1-.27,2,2,0,0,1-.59-.71,3.13,3.13,0,0,1-.29-.94A5.85,5.85,0,0,1,80.52,252.62Zm.67,0a3.86,3.86,0,0,0,0,.46c0,.17,0,.34.05.52a4.07,4.07,0,0,0,.13.5,1.41,1.41,0,0,0,.23.44.92.92,0,0,0,.34.31.9.9,0,0,0,.48.12,1,1,0,0,0,.48-.12,1.1,1.1,0,0,0,.34-.31,1.65,1.65,0,0,0,.22-.44,2.83,2.83,0,0,0,.13-.5,4.88,4.88,0,0,0,.06-.52c0-.17,0-.33,0-.46s0-.3,0-.47a4.43,4.43,0,0,0-.06-.51,2.72,2.72,0,0,0-.13-.51,1.81,1.81,0,0,0-.22-.44,1.24,1.24,0,0,0-.34-.31,1,1,0,0,0-.48-.12.9.9,0,0,0-.48.12,1,1,0,0,0-.34.31,1.53,1.53,0,0,0-.23.44,3.8,3.8,0,0,0-.13.51c0,.17,0,.34-.05.51A3.94,3.94,0,0,0,81.19,252.62Z"/><line class="cls-2" x1="214.49" y1="253.42" x2="215.03" y2="253.42"/><line class="cls-2" x1="217.76" y1="253.42" x2="218.3" y2="253.42"/><line class="cls-2" x1="221.02" y1="253.42" x2="221.56" y2="253.42"/><line class="cls-2" x1="224.29" y1="253.42" x2="224.83" y2="253.42"/><line class="cls-2" x1="227.55" y1="253.42" x2="228.09" y2="253.42"/></g><g id="Arrangements_Broken_Line_F0405030"><rect class="cls-3" x="55.45" y="41.89" width="189.86" height="189.86"/><circle class="cls-4" cx="150.38" cy="136.77" r="21.06"/><path d="M154.38,163h.82v.62h-.82v1.3h-.67v-1.3h-2.4v-.74l2.25-3.63h.82Zm-.67-3h0l-1.81,3h1.83Z"/><path d="M155.73,162.05a7,7,0,0,1,.08-1,3.11,3.11,0,0,1,.3-1,1.83,1.83,0,0,1,.59-.7,1.49,1.49,0,0,1,1-.28,1.54,1.54,0,0,1,1,.28,1.92,1.92,0,0,1,.59.7,3.1,3.1,0,0,1,.29,1,7,7,0,0,1,.08,1,7.07,7.07,0,0,1-.08,1,3.28,3.28,0,0,1-.29.95,2,2,0,0,1-.59.7,1.61,1.61,0,0,1-1,.28,1.55,1.55,0,0,1-1-.28,1.91,1.91,0,0,1-.59-.7,3.3,3.3,0,0,1-.3-.95A7.07,7.07,0,0,1,155.73,162.05Zm.67,0c0,.14,0,.29,0,.46a4.88,4.88,0,0,0,.06.52,3.18,3.18,0,0,0,.13.51,1.65,1.65,0,0,0,.22.44,1.08,1.08,0,0,0,.34.3,1,1,0,0,0,1,0,1.08,1.08,0,0,0,.34-.3,1.67,1.67,0,0,0,.23-.44,4.7,4.7,0,0,0,.12-.51,4.88,4.88,0,0,0,.06-.52c0-.17,0-.32,0-.46s0-.3,0-.47a4.43,4.43,0,0,0-.06-.51,3.81,3.81,0,0,0-.12-.51,1.53,1.53,0,0,0-.23-.44,1.12,1.12,0,0,0-.34-.31,1.1,1.1,0,0,0-1,0,1.12,1.12,0,0,0-.34.31,1.51,1.51,0,0,0-.22.44,2.72,2.72,0,0,0-.13.51,4.43,4.43,0,0,0-.06.51C156.41,161.75,156.4,161.91,156.4,162.05Z"/><circle class="cls-4" cx="150.38" cy="136.77" r="42.17" transform="translate(-19.97 25.85) rotate(-9.22)"/><path d="M151.64,181.71a1.46,1.46,0,0,1,.12-.6,1.35,1.35,0,0,1,.34-.47,1.44,1.44,0,0,1,.51-.3,1.92,1.92,0,0,1,1.28,0,1.44,1.44,0,0,1,.51.3,1.24,1.24,0,0,1,.34.47,1.32,1.32,0,0,1,.13.6,1.09,1.09,0,0,1-.07.4,1.16,1.16,0,0,1-.18.37,1.64,1.64,0,0,1-.29.3,1.38,1.38,0,0,1-.39.18v0a1.25,1.25,0,0,1,.46.19,1.07,1.07,0,0,1,.35.32,1.37,1.37,0,0,1,.23.43,1.81,1.81,0,0,1,.08.51,1.67,1.67,0,0,1-.14.69,1.56,1.56,0,0,1-.38.53,1.94,1.94,0,0,1-.58.33,2.35,2.35,0,0,1-1.42,0,1.78,1.78,0,0,1-.57-.33,1.59,1.59,0,0,1-.39-.53,1.67,1.67,0,0,1-.14-.69,1.81,1.81,0,0,1,.08-.51,1.61,1.61,0,0,1,.23-.43,1.07,1.07,0,0,1,.35-.32,1.25,1.25,0,0,1,.46-.19v0a1.21,1.21,0,0,1-.38-.18,1.42,1.42,0,0,1-.3-.3,1.16,1.16,0,0,1-.18-.37A1.34,1.34,0,0,1,151.64,181.71Zm.48,2.67a1.14,1.14,0,0,0,.08.46,1,1,0,0,0,.25.36,1.11,1.11,0,0,0,.36.23,1,1,0,0,0,.44.08,1.12,1.12,0,0,0,.45-.08,1.38,1.38,0,0,0,.36-.23,1.17,1.17,0,0,0,0-1.63,1.38,1.38,0,0,0-.36-.23,1.33,1.33,0,0,0-.45-.08,1.23,1.23,0,0,0-.44.08,1.11,1.11,0,0,0-.36.23,1,1,0,0,0-.25.36A1.12,1.12,0,0,0,152.12,184.38Zm.19-2.63a.9.9,0,0,0,.26.67.93.93,0,0,0,.68.26,1,1,0,0,0,.69-.26,1,1,0,0,0,0-1.35,1,1,0,0,0-.69-.26.93.93,0,0,0-.68.26A.9.9,0,0,0,152.31,181.75Z"/><path d="M155.73,183.16a7.07,7.07,0,0,1,.08-1,3.2,3.2,0,0,1,.3-.95,1.91,1.91,0,0,1,.59-.7,1.55,1.55,0,0,1,1-.28,1.61,1.61,0,0,1,1,.28,2,2,0,0,1,.59.7,3.19,3.19,0,0,1,.29.95,6.29,6.29,0,0,1,0,2,3.19,3.19,0,0,1-.29,1,2,2,0,0,1-.59.7,1.54,1.54,0,0,1-1,.28,1.49,1.49,0,0,1-1-.28,1.91,1.91,0,0,1-.59-.7,3.2,3.2,0,0,1-.3-1A7.07,7.07,0,0,1,155.73,183.16Zm.67,0c0,.14,0,.3,0,.46a4.35,4.35,0,0,0,.06.52,3.18,3.18,0,0,0,.13.51,1.65,1.65,0,0,0,.22.44,1.12,1.12,0,0,0,.34.31,1.1,1.1,0,0,0,1,0,1.12,1.12,0,0,0,.34-.31,1.67,1.67,0,0,0,.23-.44,4.7,4.7,0,0,0,.12-.51,4.35,4.35,0,0,0,.06-.52c0-.16,0-.32,0-.46s0-.29,0-.46a4.6,4.6,0,0,0-.06-.52,4.7,4.7,0,0,0-.12-.51,1.67,1.67,0,0,0-.23-.44,1.08,1.08,0,0,0-.34-.3,1,1,0,0,0-1,0,1.08,1.08,0,0,0-.34.3,1.65,1.65,0,0,0-.22.44,3.18,3.18,0,0,0-.13.51,4.6,4.6,0,0,0-.06.52C156.41,182.87,156.4,183,156.4,183.16Z"/><circle class="cls-4" cx="150.38" cy="136.77" r="63.23"/><path d="M153.91,207.05h-.67v-4.8h0l-1,.86-.4-.49,1.52-1.23h.59Z"/><path d="M155.83,206.29l2.13-2.08.36-.36a3.14,3.14,0,0,0,.25-.32,2.3,2.3,0,0,0,.15-.32,1.53,1.53,0,0,0,0-.38.87.87,0,0,0-.08-.4.73.73,0,0,0-.22-.3.94.94,0,0,0-.32-.19,1.1,1.1,0,0,0-.41-.07,1,1,0,0,0-.71.25,1.08,1.08,0,0,0-.36.65l-.73-.06a1.91,1.91,0,0,1,.21-.61,1.58,1.58,0,0,1,.4-.45,2,2,0,0,1,.53-.27,2.15,2.15,0,0,1,.64-.09,2.39,2.39,0,0,1,.66.1,1.92,1.92,0,0,1,.55.29,1.44,1.44,0,0,1,.38.49,1.53,1.53,0,0,1,.14.66,1.7,1.7,0,0,1-.1.61,2.1,2.1,0,0,1-.24.5,4.82,4.82,0,0,1-.36.43c-.13.13-.26.27-.41.4l-1.74,1.64v0h2.89v.62h-3.65Z"/><path d="M160.18,204.22a7.07,7.07,0,0,1,.08-1,2.94,2.94,0,0,1,.3-.95,2,2,0,0,1,.58-.7,1.79,1.79,0,0,1,1.92,0,2,2,0,0,1,.58.7,2.94,2.94,0,0,1,.3.95,6.29,6.29,0,0,1,0,2,2.94,2.94,0,0,1-.3.95,2,2,0,0,1-.58.7,1.79,1.79,0,0,1-1.92,0,2,2,0,0,1-.58-.7,2.94,2.94,0,0,1-.3-.95A7.07,7.07,0,0,1,160.18,204.22Zm.67,0c0,.14,0,.29,0,.46a4.35,4.35,0,0,0,.06.52,3.18,3.18,0,0,0,.13.51,1.65,1.65,0,0,0,.22.44,1.12,1.12,0,0,0,.34.31,1.1,1.1,0,0,0,1,0,1.12,1.12,0,0,0,.34-.31,1.65,1.65,0,0,0,.22-.44,3.18,3.18,0,0,0,.13-.51,4.35,4.35,0,0,0,.06-.52c0-.17,0-.32,0-.46s0-.29,0-.46a4.6,4.6,0,0,0-.06-.52,3.18,3.18,0,0,0-.13-.51,1.65,1.65,0,0,0-.22-.44,1.26,1.26,0,0,0-.34-.31,1.1,1.1,0,0,0-1,0,1.26,1.26,0,0,0-.34.31,1.65,1.65,0,0,0-.22.44,3.18,3.18,0,0,0-.13.51,4.6,4.6,0,0,0-.06.52C160.86,203.93,160.85,204.08,160.85,204.22Z"/><circle class="cls-4" cx="150.38" cy="136.77" r="84.35"/><path d="M153.91,228.17h-.67v-4.8h0l-1,.85-.4-.48,1.52-1.24h.59Z"/><path d="M157.06,224.86l0,0a1.24,1.24,0,0,1,.37-.13,1.84,1.84,0,0,1,.39,0,1.72,1.72,0,0,1,.68.13,1.55,1.55,0,0,1,.54.36,1.68,1.68,0,0,1,.36.57,2.09,2.09,0,0,1,.13.72,1.78,1.78,0,0,1-.15.74,1.6,1.6,0,0,1-.4.56,1.79,1.79,0,0,1-.6.35,2.27,2.27,0,0,1-.75.12,2.31,2.31,0,0,1-.75-.12,1.79,1.79,0,0,1-.6-.35,1.74,1.74,0,0,1-.4-.56,1.78,1.78,0,0,1-.14-.74,2.28,2.28,0,0,1,.15-.86,5.78,5.78,0,0,1,.38-.74l1.51-2.39h.78Zm.59.43a1.51,1.51,0,0,0-.48.08,1.28,1.28,0,0,0-.39.24,1.16,1.16,0,0,0-.26.38,1.43,1.43,0,0,0,0,1,1.23,1.23,0,0,0,.26.37,1,1,0,0,0,.39.24,1.32,1.32,0,0,0,1,0,1,1,0,0,0,.39-.24,1.08,1.08,0,0,0,.26-.37,1.3,1.3,0,0,0,0-1,1,1,0,0,0-.26-.38,1.28,1.28,0,0,0-.39-.24A1.51,1.51,0,0,0,157.65,225.29Z"/><path d="M160.18,225.33a7.07,7.07,0,0,1,.08-1,2.88,2.88,0,0,1,.3-.94,2,2,0,0,1,.58-.71,1.84,1.84,0,0,1,1.92,0,2,2,0,0,1,.58.71,2.88,2.88,0,0,1,.3.94,7.07,7.07,0,0,1,.08,1,6.85,6.85,0,0,1-.08,1,2.86,2.86,0,0,1-.3.95,2,2,0,0,1-.58.71,1.84,1.84,0,0,1-1.92,0,2,2,0,0,1-.58-.71,2.86,2.86,0,0,1-.3-.95A6.85,6.85,0,0,1,160.18,225.33Zm.67,0c0,.14,0,.3,0,.47a4.88,4.88,0,0,0,.06.52,2.83,2.83,0,0,0,.13.5,1.51,1.51,0,0,0,.22.44,1.12,1.12,0,0,0,.34.31,1,1,0,0,0,1,0,1.12,1.12,0,0,0,.34-.31,1.51,1.51,0,0,0,.22-.44,2.83,2.83,0,0,0,.13-.5,4.88,4.88,0,0,0,.06-.52c0-.17,0-.33,0-.47s0-.29,0-.46a4.43,4.43,0,0,0-.06-.51,2.72,2.72,0,0,0-.13-.51,1.51,1.51,0,0,0-.22-.44,1.12,1.12,0,0,0-.34-.31,1,1,0,0,0-1,0,1.12,1.12,0,0,0-.34.31,1.51,1.51,0,0,0-.22.44,2.72,2.72,0,0,0-.13.51,4.43,4.43,0,0,0-.06.51C160.86,225,160.85,225.2,160.85,225.33Z"/><line class="cls-4" x1="55.45" y1="136.82" x2="245.36" y2="136.82"/><line class="cls-4" x1="150.38" y1="231.76" x2="150.38" y2="41.84"/><line class="cls-4" x1="95.62" y1="41.84" x2="205.19" y2="231.76"/><line class="cls-4" x1="95.62" y1="231.76" x2="205.19" y2="41.84"/><line class="cls-4" x1="55.45" y1="82.01" x2="245.36" y2="191.58"/><line class="cls-4" x1="55.45" y1="191.58" x2="245.36" y2="82.01"/><line class="cls-1" x1="150.38" y1="224.14" x2="151.89" y2="224.14"/><line class="cls-1" x1="151.89" y1="224.14" x2="153.4" y2="224.09"/><line class="cls-1" x1="153.4" y1="224.09" x2="154.97" y2="223.98"/><line class="cls-1" x1="154.97" y1="223.98" x2="156.48" y2="223.87"/><line class="cls-1" x1="156.48" y1="223.87" x2="157.99" y2="223.71"/><line class="cls-1" x1="157.99" y1="223.71" x2="159.5" y2="223.55"/><line class="cls-1" x1="159.5" y1="223.55" x2="161.02" y2="223.33"/><line class="cls-1" x1="161.02" y1="223.33" x2="162.53" y2="223.06"/><line class="cls-1" x1="162.53" y1="223.06" x2="163.99" y2="222.79"/><line class="cls-1" x1="163.99" y1="222.79" x2="165.5" y2="222.47"/><line class="cls-1" x1="165.5" y1="222.47" x2="166.96" y2="222.14"/><line class="cls-1" x1="166.96" y1="222.14" x2="168.41" y2="221.77"/><line class="cls-1" x1="168.41" y1="221.77" x2="169.93" y2="221.33"/><line class="cls-1" x1="169.93" y1="221.33" x2="171.33" y2="220.9"/><line class="cls-1" x1="171.33" y1="220.9" x2="172.79" y2="220.42"/><line class="cls-1" x1="172.79" y1="220.42" x2="174.19" y2="219.93"/><line class="cls-1" x1="174.19" y1="219.93" x2="175.65" y2="219.34"/><line class="cls-1" x1="175.65" y1="219.34" x2="177.05" y2="218.8"/><line class="cls-1" x1="177.05" y1="218.8" x2="178.4" y2="218.2"/><line class="cls-1" x1="178.4" y1="218.2" x2="179.75" y2="217.55"/><line class="cls-1" x1="179.75" y1="217.55" x2="181.16" y2="216.91"/><line class="cls-1" x1="181.16" y1="216.91" x2="182.45" y2="216.2"/><line class="cls-1" x1="182.45" y1="216.2" x2="183.8" y2="215.5"/><line class="cls-1" x1="183.8" y1="215.5" x2="185.1" y2="214.75"/><line class="cls-1" x1="185.1" y1="214.75" x2="186.4" y2="213.99"/><line class="cls-1" x1="186.4" y1="213.99" x2="187.64" y2="213.18"/><line class="cls-1" x1="187.64" y1="213.18" x2="188.88" y2="212.37"/><line class="cls-1" x1="188.88" y1="212.37" x2="190.12" y2="211.51"/><line class="cls-1" x1="190.12" y1="211.51" x2="191.31" y2="210.64"/><line class="cls-1" x1="191.31" y1="210.64" x2="192.5" y2="209.72"/><line class="cls-1" x1="192.5" y1="209.72" x2="193.63" y2="208.75"/><line class="cls-1" x1="193.63" y1="208.75" x2="194.77" y2="207.83"/><line class="cls-1" x1="194.77" y1="207.83" x2="195.9" y2="206.86"/><line class="cls-1" x1="195.9" y1="206.86" x2="196.98" y2="205.84"/><line class="cls-1" x1="196.98" y1="205.84" x2="198.01" y2="204.81"/><line class="cls-1" x1="198.01" y1="204.81" x2="199.03" y2="203.78"/><line class="cls-1" x1="199.03" y1="203.78" x2="200.06" y2="202.7"/><line class="cls-1" x1="200.06" y1="202.7" x2="201.03" y2="201.57"/><line class="cls-1" x1="201.03" y1="201.57" x2="201.95" y2="200.49"/><line class="cls-1" x1="201.95" y1="200.49" x2="202.87" y2="199.3"/><line class="cls-1" x1="202.87" y1="199.3" x2="203.73" y2="198.17"/><line class="cls-1" x1="203.73" y1="198.17" x2="204.59" y2="196.98"/><line class="cls-1" x1="204.59" y1="196.98" x2="205.4" y2="195.79"/><line class="cls-1" x1="205.4" y1="195.79" x2="206.16" y2="194.55"/><line class="cls-1" x1="206.16" y1="194.55" x2="206.92" y2="193.31"/><line class="cls-1" x1="206.92" y1="193.31" x2="207.67" y2="192.07"/><line class="cls-1" x1="207.67" y1="192.07" x2="208.32" y2="190.82"/><line class="cls-1" x1="208.32" y1="190.82" x2="208.97" y2="189.53"/><line class="cls-1" x1="208.97" y1="189.53" x2="209.62" y2="188.23"/><line class="cls-1" x1="209.62" y1="188.23" x2="210.16" y2="186.94"/><line class="cls-1" x1="210.16" y1="186.94" x2="210.7" y2="185.59"/><line class="cls-1" x1="210.7" y1="185.59" x2="211.18" y2="184.29"/><line class="cls-1" x1="211.18" y1="184.29" x2="211.67" y2="182.94"/><line class="cls-1" x1="211.67" y1="182.94" x2="212.1" y2="181.59"/><line class="cls-1" x1="212.1" y1="181.59" x2="212.48" y2="180.24"/><line class="cls-1" x1="212.48" y1="180.24" x2="212.8" y2="178.89"/><line class="cls-1" x1="212.8" y1="178.89" x2="213.13" y2="177.54"/><line class="cls-1" x1="213.13" y1="177.54" x2="213.4" y2="176.14"/><line class="cls-1" x1="213.4" y1="176.14" x2="213.61" y2="174.79"/><line class="cls-1" x1="213.61" y1="174.79" x2="213.77" y2="173.38"/><line class="cls-1" x1="213.77" y1="173.38" x2="213.94" y2="171.98"/><line class="cls-1" x1="213.94" y1="171.98" x2="214.04" y2="170.63"/><line class="cls-1" x1="214.04" y1="170.63" x2="214.15" y2="169.28"/><line class="cls-1" x1="214.15" y1="169.28" x2="214.15" y2="167.87"/><line class="cls-1" x1="214.15" y1="167.87" x2="214.15" y2="166.52"/><line class="cls-1" x1="214.15" y1="166.52" x2="214.1" y2="165.17"/><line class="cls-1" x1="214.1" y1="165.17" x2="214.04" y2="163.77"/><line class="cls-1" x1="214.04" y1="163.77" x2="213.94" y2="162.42"/><line class="cls-1" x1="213.94" y1="162.42" x2="213.77" y2="161.12"/><line class="cls-1" x1="213.77" y1="161.12" x2="213.56" y2="159.77"/><line class="cls-1" x1="213.56" y1="159.77" x2="213.34" y2="158.42"/><line class="cls-1" x1="213.34" y1="158.42" x2="213.07" y2="157.13"/><line class="cls-1" x1="213.07" y1="157.13" x2="212.75" y2="155.83"/><line class="cls-1" x1="212.75" y1="155.83" x2="212.42" y2="154.59"/><line class="cls-1" x1="212.42" y1="154.59" x2="212.05" y2="153.29"/><line class="cls-1" x1="212.05" y1="153.29" x2="211.67" y2="152.05"/><line class="cls-1" x1="211.67" y1="152.05" x2="211.24" y2="150.81"/><line class="cls-1" x1="211.24" y1="150.81" x2="210.75" y2="149.62"/><line class="cls-1" x1="210.75" y1="149.62" x2="210.21" y2="148.38"/><line class="cls-1" x1="210.21" y1="148.38" x2="209.67" y2="147.25"/><line class="cls-1" x1="209.67" y1="147.25" x2="209.13" y2="146.06"/><line class="cls-1" x1="209.13" y1="146.06" x2="208.54" y2="144.92"/><line class="cls-1" x1="208.54" y1="144.92" x2="207.89" y2="143.84"/><line class="cls-1" x1="207.89" y1="143.84" x2="207.24" y2="142.76"/><line class="cls-1" x1="207.24" y1="142.76" x2="206.54" y2="141.68"/><line class="cls-1" x1="206.54" y1="141.68" x2="205.78" y2="140.66"/><line class="cls-1" x1="205.78" y1="140.66" x2="205.08" y2="139.63"/><line class="cls-1" x1="205.08" y1="139.63" x2="204.32" y2="138.66"/><line class="cls-1" x1="204.32" y1="138.66" x2="203.51" y2="137.69"/><line class="cls-1" x1="203.51" y1="137.69" x2="202.7" y2="136.82"/><line class="cls-1" x1="202.7" y1="136.82" x2="201.84" y2="135.91"/><line class="cls-1" x1="201.84" y1="135.91" x2="201.03" y2="135.04"/><line class="cls-1" x1="201.03" y1="135.04" x2="200.17" y2="134.23"/><line class="cls-1" x1="200.17" y1="134.23" x2="199.25" y2="133.42"/><line class="cls-1" x1="199.25" y1="133.42" x2="198.33" y2="132.61"/><line class="cls-1" x1="198.33" y1="132.61" x2="197.41" y2="131.86"/><line class="cls-1" x1="197.41" y1="131.86" x2="196.44" y2="131.15"/><line class="cls-1" x1="196.44" y1="131.15" x2="195.52" y2="130.51"/><line class="cls-1" x1="195.52" y1="130.51" x2="194.55" y2="129.8"/><line class="cls-1" x1="194.55" y1="129.8" x2="193.58" y2="129.21"/><line class="cls-1" x1="193.58" y1="129.21" x2="192.61" y2="128.62"/><line class="cls-1" x1="192.61" y1="128.62" x2="191.58" y2="128.08"/><line class="cls-1" x1="191.58" y1="128.08" x2="190.55" y2="127.54"/><line class="cls-1" x1="190.55" y1="127.54" x2="189.53" y2="127.05"/><line class="cls-1" x1="189.53" y1="127.05" x2="188.56" y2="126.62"/><line class="cls-1" x1="188.56" y1="126.62" x2="187.53" y2="126.19"/><line class="cls-1" x1="187.53" y1="126.19" x2="186.5" y2="125.81"/><line class="cls-1" x1="186.5" y1="125.81" x2="185.48" y2="125.43"/><line class="cls-1" x1="185.48" y1="125.43" x2="184.45" y2="125.11"/><line class="cls-1" x1="184.45" y1="125.11" x2="183.43" y2="124.78"/><line class="cls-1" x1="183.43" y1="124.78" x2="182.35" y2="124.57"/><line class="cls-1" x1="182.35" y1="124.57" x2="181.37" y2="124.3"/><line class="cls-1" x1="181.37" y1="124.3" x2="180.35" y2="124.13"/><line class="cls-1" x1="180.35" y1="124.13" x2="179.32" y2="123.92"/><line class="cls-1" x1="179.32" y1="123.92" x2="178.3" y2="123.81"/><line class="cls-1" x1="178.3" y1="123.81" x2="177.32" y2="123.7"/><line class="cls-1" x1="177.32" y1="123.7" x2="176.35" y2="123.59"/><line class="cls-1" x1="176.35" y1="123.59" x2="175.33" y2="123.54"/><line class="cls-1" x1="175.33" y1="123.54" x2="174.41" y2="123.49"/><line class="cls-1" x1="174.41" y1="123.49" x2="173.44" y2="123.49"/><line class="cls-1" x1="173.44" y1="123.49" x2="172.52" y2="123.54"/><line class="cls-1" x1="172.52" y1="123.54" x2="171.55" y2="123.59"/><line class="cls-1" x1="171.55" y1="123.59" x2="170.68" y2="123.65"/><line class="cls-1" x1="170.68" y1="123.65" x2="169.76" y2="123.76"/><line class="cls-1" x1="169.76" y1="123.76" x2="168.9" y2="123.86"/><line class="cls-1" x1="168.9" y1="123.86" x2="167.98" y2="124.03"/><line class="cls-1" x1="167.98" y1="124.03" x2="167.17" y2="124.19"/><line class="cls-1" x1="167.17" y1="124.19" x2="166.31" y2="124.35"/><line class="cls-1" x1="166.31" y1="124.35" x2="165.55" y2="124.57"/><line class="cls-1" x1="165.55" y1="124.57" x2="164.74" y2="124.78"/><line class="cls-1" x1="164.74" y1="124.78" x2="163.93" y2="125.05"/><line class="cls-1" x1="163.93" y1="125.05" x2="163.23" y2="125.27"/><line class="cls-1" x1="163.23" y1="125.27" x2="162.47" y2="125.54"/><line class="cls-1" x1="162.47" y1="125.54" x2="161.77" y2="125.81"/><line class="cls-1" x1="161.77" y1="125.81" x2="161.07" y2="126.13"/><line class="cls-1" x1="161.07" y1="126.13" x2="160.42" y2="126.4"/><line class="cls-1" x1="160.42" y1="126.4" x2="159.77" y2="126.73"/><line class="cls-1" x1="159.77" y1="126.73" x2="159.18" y2="127.05"/><line class="cls-1" x1="159.18" y1="127.05" x2="158.59" y2="127.37"/><line class="cls-1" x1="158.59" y1="127.37" x2="158.05" y2="127.7"/><line class="cls-1" x1="158.05" y1="127.7" x2="157.45" y2="128.08"/><line class="cls-1" x1="157.45" y1="128.08" x2="156.97" y2="128.4"/><line class="cls-1" x1="156.97" y1="128.4" x2="156.43" y2="128.78"/><line class="cls-1" x1="156.43" y1="128.78" x2="155.99" y2="129.1"/><line class="cls-1" x1="155.99" y1="129.1" x2="155.51" y2="129.48"/><line class="cls-1" x1="155.51" y1="129.48" x2="155.08" y2="129.86"/><line class="cls-1" x1="155.08" y1="129.86" x2="154.64" y2="130.24"/><line class="cls-1" x1="154.64" y1="130.24" x2="154.21" y2="130.67"/><line class="cls-1" x1="154.21" y1="130.67" x2="153.78" y2="131.15"/><line class="cls-1" x1="153.78" y1="131.15" x2="153.4" y2="131.59"/><line class="cls-1" x1="153.4" y1="131.59" x2="153.08" y2="131.96"/><line class="cls-1" x1="153.08" y1="131.96" x2="152.75" y2="132.34"/><line class="cls-1" x1="152.75" y1="132.34" x2="152.48" y2="132.67"/><line class="cls-1" x1="152.48" y1="132.67" x2="152.21" y2="133.04"/><line class="cls-1" x1="152.21" y1="133.04" x2="152" y2="133.31"/><line class="cls-1" x1="152" y1="133.31" x2="151.78" y2="133.64"/><line class="cls-1" x1="151.78" y1="133.64" x2="151.62" y2="133.91"/><line class="cls-1" x1="151.62" y1="133.91" x2="151.46" y2="134.18"/><line class="cls-1" x1="151.46" y1="134.18" x2="151.3" y2="134.39"/><line class="cls-1" x1="151.3" y1="134.39" x2="151.19" y2="134.61"/><line class="cls-1" x1="151.19" y1="134.61" x2="151.08" y2="134.83"/><line class="cls-1" x1="151.08" y1="134.83" x2="150.97" y2="134.99"/><line class="cls-1" x1="150.97" y1="134.99" x2="150.92" y2="135.15"/><line class="cls-1" x1="150.92" y1="135.15" x2="150.81" y2="135.26"/><line class="cls-1" x1="150.81" y1="135.26" x2="150.76" y2="135.37"/><line class="cls-1" x1="150.76" y1="135.37" x2="150.7" y2="135.42"/><line class="cls-1" x1="150.7" y1="135.42" x2="150.7" y2="135.47"/><line class="cls-1" x1="150.7" y1="135.47" x2="150.65" y2="135.53"/><line class="cls-1" x1="150.65" y1="135.53" x2="150.65" y2="135.53"/><line class="cls-1" x1="150.65" y1="135.53" x2="150.59" y2="135.53"/><line class="cls-1" x1="150.59" y1="135.53" x2="150.59" y2="135.53"/><line class="cls-1" x1="150.59" y1="135.53" x2="150.54" y2="135.53"/><line class="cls-1" x1="150.54" y1="135.53" x2="150.54" y2="135.53"/><line class="cls-1" x1="150.54" y1="135.53" x2="150.54" y2="135.53"/><line class="cls-1" x1="150.54" y1="135.53" x2="150.49" y2="135.47"/><line class="cls-1" x1="150.49" y1="135.47" x2="150.49" y2="135.47"/><line class="cls-1" x1="150.49" y1="135.47" x2="150.43" y2="135.47"/><line class="cls-1" x1="150.43" y1="135.47" x2="150.43" y2="135.47"/><line class="cls-1" x1="150.43" y1="135.47" x2="150.38" y2="135.47"/><line class="cls-1" x1="150.38" y1="135.47" x2="150.38" y2="135.47"/><line class="cls-1" x1="150.38" y1="224.14" x2="148.92" y2="224.14"/><line class="cls-1" x1="148.92" y1="224.14" x2="147.41" y2="224.09"/><line class="cls-1" x1="147.41" y1="224.09" x2="145.84" y2="223.98"/><line class="cls-1" x1="145.84" y1="223.98" x2="144.33" y2="223.87"/><line class="cls-1" x1="144.33" y1="223.87" x2="142.82" y2="223.71"/><line class="cls-1" x1="142.82" y1="223.71" x2="141.31" y2="223.55"/><line class="cls-1" x1="141.31" y1="223.55" x2="139.79" y2="223.33"/><line class="cls-1" x1="139.79" y1="223.33" x2="138.28" y2="223.06"/><line class="cls-1" x1="138.28" y1="223.06" x2="136.82" y2="222.79"/><line class="cls-1" x1="136.82" y1="222.79" x2="135.31" y2="222.47"/><line class="cls-1" x1="135.31" y1="222.47" x2="133.85" y2="222.14"/><line class="cls-1" x1="133.85" y1="222.14" x2="132.4" y2="221.77"/><line class="cls-1" x1="132.4" y1="221.77" x2="130.88" y2="221.33"/><line class="cls-1" x1="130.88" y1="221.33" x2="129.48" y2="220.9"/><line class="cls-1" x1="129.48" y1="220.9" x2="128.02" y2="220.42"/><line class="cls-1" x1="128.02" y1="220.42" x2="126.62" y2="219.93"/><line class="cls-1" x1="126.62" y1="219.93" x2="125.16" y2="219.34"/><line class="cls-1" x1="125.16" y1="219.34" x2="123.76" y2="218.8"/><line class="cls-1" x1="123.76" y1="218.8" x2="122.41" y2="218.2"/><line class="cls-1" x1="122.41" y1="218.2" x2="121.06" y2="217.55"/><line class="cls-1" x1="121.06" y1="217.55" x2="119.65" y2="216.91"/><line class="cls-1" x1="119.65" y1="216.91" x2="118.36" y2="216.2"/><line class="cls-1" x1="118.36" y1="216.2" x2="117.01" y2="215.5"/><line class="cls-1" x1="117.01" y1="215.5" x2="115.71" y2="214.75"/><line class="cls-1" x1="115.71" y1="214.75" x2="114.41" y2="213.99"/><line class="cls-1" x1="114.41" y1="213.99" x2="113.17" y2="213.18"/><line class="cls-1" x1="113.17" y1="213.18" x2="111.93" y2="212.37"/><line class="cls-1" x1="111.93" y1="212.37" x2="110.69" y2="211.51"/><line class="cls-1" x1="110.69" y1="211.51" x2="109.5" y2="210.64"/><line class="cls-1" x1="109.5" y1="210.64" x2="108.31" y2="209.72"/><line class="cls-1" x1="108.31" y1="209.72" x2="107.18" y2="208.75"/><line class="cls-1" x1="107.18" y1="208.75" x2="106.04" y2="207.83"/><line class="cls-1" x1="106.04" y1="207.83" x2="104.91" y2="206.86"/><line class="cls-1" x1="104.91" y1="206.86" x2="103.83" y2="205.84"/><line class="cls-1" x1="103.83" y1="205.84" x2="102.8" y2="204.81"/><line class="cls-1" x1="102.8" y1="204.81" x2="101.78" y2="203.78"/><line class="cls-1" x1="101.78" y1="203.78" x2="100.75" y2="202.7"/><line class="cls-1" x1="100.75" y1="202.7" x2="99.78" y2="201.57"/><line class="cls-1" x1="99.78" y1="201.57" x2="98.86" y2="200.49"/><line class="cls-1" x1="98.86" y1="200.49" x2="97.94" y2="199.3"/><line class="cls-1" x1="97.94" y1="199.3" x2="97.08" y2="198.17"/><line class="cls-1" x1="97.08" y1="198.17" x2="96.22" y2="196.98"/><line class="cls-1" x1="96.22" y1="196.98" x2="95.41" y2="195.79"/><line class="cls-1" x1="95.41" y1="195.79" x2="94.65" y2="194.55"/><line class="cls-1" x1="94.65" y1="194.55" x2="93.89" y2="193.31"/><line class="cls-1" x1="93.89" y1="193.31" x2="93.14" y2="192.07"/><line class="cls-1" x1="93.14" y1="192.07" x2="92.49" y2="190.82"/><line class="cls-1" x1="92.49" y1="190.82" x2="91.84" y2="189.53"/><line class="cls-1" x1="91.84" y1="189.53" x2="91.19" y2="188.23"/><line class="cls-1" x1="91.19" y1="188.23" x2="90.65" y2="186.94"/><line class="cls-1" x1="90.65" y1="186.94" x2="90.11" y2="185.59"/><line class="cls-1" x1="90.11" y1="185.59" x2="89.63" y2="184.29"/><line class="cls-1" x1="89.63" y1="184.29" x2="89.14" y2="182.94"/><line class="cls-1" x1="89.14" y1="182.94" x2="88.71" y2="181.59"/><line class="cls-1" x1="88.71" y1="181.59" x2="88.33" y2="180.24"/><line class="cls-1" x1="88.33" y1="180.24" x2="88.01" y2="178.89"/><line class="cls-1" x1="88.01" y1="178.89" x2="87.68" y2="177.54"/><line class="cls-1" x1="87.68" y1="177.54" x2="87.41" y2="176.14"/><line class="cls-1" x1="87.41" y1="176.14" x2="87.2" y2="174.79"/><line class="cls-1" x1="87.2" y1="174.79" x2="87.04" y2="173.38"/><line class="cls-1" x1="87.04" y1="173.38" x2="86.87" y2="171.98"/><line class="cls-1" x1="86.87" y1="171.98" x2="86.77" y2="170.63"/><line class="cls-1" x1="86.77" y1="170.63" x2="86.66" y2="169.28"/><line class="cls-1" x1="86.66" y1="169.28" x2="86.66" y2="167.87"/><line class="cls-1" x1="86.66" y1="167.87" x2="86.66" y2="166.52"/><line class="cls-1" x1="86.66" y1="166.52" x2="86.71" y2="165.17"/><line class="cls-1" x1="86.71" y1="165.17" x2="86.77" y2="163.77"/><line class="cls-1" x1="86.77" y1="163.77" x2="86.87" y2="162.42"/><line class="cls-1" x1="86.87" y1="162.42" x2="87.04" y2="161.12"/><line class="cls-1" x1="87.04" y1="161.12" x2="87.25" y2="159.77"/><line class="cls-1" x1="87.25" y1="159.77" x2="87.47" y2="158.42"/><line class="cls-1" x1="87.47" y1="158.42" x2="87.74" y2="157.13"/><line class="cls-1" x1="87.74" y1="157.13" x2="88.06" y2="155.83"/><line class="cls-1" x1="88.06" y1="155.83" x2="88.39" y2="154.59"/><line class="cls-1" x1="88.39" y1="154.59" x2="88.76" y2="153.29"/><line class="cls-1" x1="88.76" y1="153.29" x2="89.14" y2="152.05"/><line class="cls-1" x1="89.14" y1="152.05" x2="89.57" y2="150.81"/><line class="cls-1" x1="89.57" y1="150.81" x2="90.06" y2="149.62"/><line class="cls-1" x1="90.06" y1="149.62" x2="90.6" y2="148.38"/><line class="cls-1" x1="90.6" y1="148.38" x2="91.14" y2="147.25"/><line class="cls-1" x1="91.14" y1="147.25" x2="91.68" y2="146.06"/><line class="cls-1" x1="91.68" y1="146.06" x2="92.27" y2="144.92"/><line class="cls-1" x1="92.27" y1="144.92" x2="92.92" y2="143.84"/><line class="cls-1" x1="92.92" y1="143.84" x2="93.57" y2="142.76"/><line class="cls-1" x1="93.57" y1="142.76" x2="94.27" y2="141.68"/><line class="cls-1" x1="94.27" y1="141.68" x2="95.03" y2="140.66"/><line class="cls-1" x1="95.03" y1="140.66" x2="95.73" y2="139.63"/><line class="cls-1" x1="95.73" y1="139.63" x2="96.49" y2="138.66"/><line class="cls-1" x1="96.49" y1="138.66" x2="97.3" y2="137.69"/><line class="cls-1" x1="97.3" y1="137.69" x2="98.11" y2="136.82"/><line class="cls-1" x1="98.11" y1="136.82" x2="98.97" y2="135.91"/><line class="cls-1" x1="98.97" y1="135.91" x2="99.78" y2="135.04"/><line class="cls-1" x1="99.78" y1="135.04" x2="100.64" y2="134.23"/><line class="cls-1" x1="100.64" y1="134.23" x2="101.56" y2="133.42"/><line class="cls-1" x1="101.56" y1="133.42" x2="102.48" y2="132.61"/><line class="cls-1" x1="102.48" y1="132.61" x2="103.4" y2="131.86"/><line class="cls-1" x1="103.4" y1="131.86" x2="104.37" y2="131.15"/><line class="cls-1" x1="104.37" y1="131.15" x2="105.29" y2="130.51"/><line class="cls-1" x1="105.29" y1="130.51" x2="106.26" y2="129.8"/><line class="cls-1" x1="106.26" y1="129.8" x2="107.23" y2="129.21"/><line class="cls-1" x1="107.23" y1="129.21" x2="108.2" y2="128.62"/><line class="cls-1" x1="108.2" y1="128.62" x2="109.23" y2="128.08"/><line class="cls-1" x1="109.23" y1="128.08" x2="110.26" y2="127.54"/><line class="cls-1" x1="110.26" y1="127.54" x2="111.28" y2="127.05"/><line class="cls-1" x1="111.28" y1="127.05" x2="112.25" y2="126.62"/><line class="cls-1" x1="112.25" y1="126.62" x2="113.28" y2="126.19"/><line class="cls-1" x1="113.28" y1="126.19" x2="114.31" y2="125.81"/><line class="cls-1" x1="114.31" y1="125.81" x2="115.33" y2="125.43"/><line class="cls-1" x1="115.33" y1="125.43" x2="116.36" y2="125.11"/><line class="cls-1" x1="116.36" y1="125.11" x2="117.38" y2="124.78"/><line class="cls-1" x1="117.38" y1="124.78" x2="118.46" y2="124.57"/><line class="cls-1" x1="118.46" y1="124.57" x2="119.44" y2="124.3"/><line class="cls-1" x1="119.44" y1="124.3" x2="120.46" y2="124.13"/><line class="cls-1" x1="120.46" y1="124.13" x2="121.49" y2="123.92"/><line class="cls-1" x1="121.49" y1="123.92" x2="122.51" y2="123.81"/><line class="cls-1" x1="122.51" y1="123.81" x2="123.49" y2="123.7"/><line class="cls-1" x1="123.49" y1="123.7" x2="124.46" y2="123.59"/><line class="cls-1" x1="124.46" y1="123.59" x2="125.48" y2="123.54"/><line class="cls-1" x1="125.48" y1="123.54" x2="126.4" y2="123.49"/><line class="cls-1" x1="126.4" y1="123.49" x2="127.37" y2="123.49"/><line class="cls-1" x1="127.37" y1="123.49" x2="128.29" y2="123.54"/><line class="cls-1" x1="128.29" y1="123.54" x2="129.26" y2="123.59"/><line class="cls-1" x1="129.26" y1="123.59" x2="130.13" y2="123.65"/><line class="cls-1" x1="130.13" y1="123.65" x2="131.05" y2="123.76"/><line class="cls-1" x1="131.05" y1="123.76" x2="131.91" y2="123.86"/><line class="cls-1" x1="131.91" y1="123.86" x2="132.83" y2="124.03"/><line class="cls-1" x1="132.83" y1="124.03" x2="133.64" y2="124.19"/><line class="cls-1" x1="133.64" y1="124.19" x2="134.5" y2="124.35"/><line class="cls-1" x1="134.5" y1="124.35" x2="135.26" y2="124.57"/><line class="cls-1" x1="135.26" y1="124.57" x2="136.07" y2="124.78"/><line class="cls-1" x1="136.07" y1="124.78" x2="136.88" y2="125.05"/><line class="cls-1" x1="136.88" y1="125.05" x2="137.58" y2="125.27"/><line class="cls-1" x1="137.58" y1="125.27" x2="138.34" y2="125.54"/><line class="cls-1" x1="138.34" y1="125.54" x2="139.04" y2="125.81"/><line class="cls-1" x1="139.04" y1="125.81" x2="139.74" y2="126.13"/><line class="cls-1" x1="139.74" y1="126.13" x2="140.39" y2="126.4"/><line class="cls-1" x1="140.39" y1="126.4" x2="141.04" y2="126.73"/><line class="cls-1" x1="141.04" y1="126.73" x2="141.63" y2="127.05"/><line class="cls-1" x1="141.63" y1="127.05" x2="142.22" y2="127.37"/><line class="cls-1" x1="142.22" y1="127.37" x2="142.76" y2="127.7"/><line class="cls-1" x1="142.76" y1="127.7" x2="143.36" y2="128.08"/><line class="cls-1" x1="143.36" y1="128.08" x2="143.84" y2="128.4"/><line class="cls-1" x1="143.84" y1="128.4" x2="144.38" y2="128.78"/><line class="cls-1" x1="144.38" y1="128.78" x2="144.82" y2="129.1"/><line class="cls-1" x1="144.82" y1="129.1" x2="145.3" y2="129.48"/><line class="cls-1" x1="145.3" y1="129.48" x2="145.73" y2="129.86"/><line class="cls-1" x1="145.73" y1="129.86" x2="146.17" y2="130.24"/><line class="cls-1" x1="146.17" y1="130.24" x2="146.6" y2="130.67"/><line class="cls-1" x1="146.6" y1="130.67" x2="147.03" y2="131.15"/><line class="cls-1" x1="147.03" y1="131.15" x2="147.41" y2="131.59"/><line class="cls-1" x1="147.41" y1="131.59" x2="147.73" y2="131.96"/><line class="cls-1" x1="147.73" y1="131.96" x2="148.06" y2="132.34"/><line class="cls-1" x1="148.06" y1="132.34" x2="148.33" y2="132.67"/><line class="cls-1" x1="148.33" y1="132.67" x2="148.6" y2="133.04"/><line class="cls-1" x1="148.6" y1="133.04" x2="148.81" y2="133.31"/><line class="cls-1" x1="148.81" y1="133.31" x2="149.03" y2="133.64"/><line class="cls-1" x1="149.03" y1="133.64" x2="149.19" y2="133.91"/><line class="cls-1" x1="149.19" y1="133.91" x2="149.35" y2="134.18"/><line class="cls-1" x1="149.35" y1="134.18" x2="149.51" y2="134.39"/><line class="cls-1" x1="149.51" y1="134.39" x2="149.62" y2="134.61"/><line class="cls-1" x1="149.62" y1="134.61" x2="149.73" y2="134.83"/><line class="cls-1" x1="149.73" y1="134.83" x2="149.84" y2="134.99"/><line class="cls-1" x1="149.84" y1="134.99" x2="149.89" y2="135.15"/><line class="cls-1" x1="149.89" y1="135.15" x2="150" y2="135.26"/><line class="cls-1" x1="150" y1="135.26" x2="150.05" y2="135.37"/><line class="cls-1" x1="150.05" y1="135.37" x2="150.11" y2="135.42"/><line class="cls-1" x1="150.11" y1="135.42" x2="150.11" y2="135.47"/><line class="cls-1" x1="150.11" y1="135.47" x2="150.16" y2="135.53"/><line class="cls-1" x1="150.16" y1="135.53" x2="150.16" y2="135.53"/><line class="cls-1" x1="150.16" y1="135.53" x2="150.22" y2="135.53"/><line class="cls-1" x1="150.22" y1="135.53" x2="150.22" y2="135.53"/><line class="cls-1" x1="150.22" y1="135.53" x2="150.27" y2="135.53"/><line class="cls-1" x1="150.27" y1="135.53" x2="150.27" y2="135.53"/><line class="cls-1" x1="150.27" y1="135.53" x2="150.27" y2="135.53"/><line class="cls-1" x1="150.27" y1="135.53" x2="150.32" y2="135.47"/><line class="cls-1" x1="150.32" y1="135.47" x2="150.32" y2="135.47"/><line class="cls-1" x1="150.32" y1="135.47" x2="150.38" y2="135.47"/><line class="cls-1" x1="150.38" y1="135.47" x2="150.38" y2="135.47"/><line class="cls-1" x1="150.38" y1="135.47" x2="150.38" y2="135.47"/><line class="cls-1" x1="150.38" y1="135.47" x2="150.38" y2="135.47"/><line class="cls-1" x1="150.38" y1="224.14" x2="150.65" y2="224.14"/><line class="cls-1" x1="151.94" y1="224.09" x2="152.21" y2="224.09"/><line class="cls-1" x1="153.51" y1="223.98" x2="153.78" y2="223.98"/><line class="cls-1" x1="154.97" y1="223.98" x2="155.18" y2="223.93"/><line class="cls-1" x1="156.59" y1="223.6" x2="156.8" y2="223.55"/><line class="cls-1" x1="158.05" y1="223.33" x2="158.26" y2="223.28"/><line class="cls-1" x1="159.5" y1="223.01" x2="159.72" y2="222.95"/><line class="cls-1" x1="160.96" y1="222.63" x2="161.18" y2="222.52"/><line class="cls-1" x1="162.37" y1="222.14" x2="162.37" y2="222.14"/><line class="cls-1" x1="162.37" y1="222.14" x2="162.58" y2="222.09"/><line class="cls-1" x1="163.77" y1="221.66" x2="163.82" y2="221.66"/><line class="cls-1" x1="163.82" y1="221.66" x2="163.99" y2="221.6"/><line class="cls-1" x1="165.12" y1="221.12" x2="165.23" y2="221.06"/><line class="cls-1" x1="165.23" y1="221.06" x2="165.34" y2="221.01"/><line class="cls-1" x1="166.47" y1="220.47" x2="166.63" y2="220.42"/><line class="cls-1" x1="166.63" y1="220.42" x2="166.69" y2="220.42"/><line class="cls-1" x1="167.82" y1="219.88" x2="168.04" y2="219.77"/><line class="cls-1" x1="169.17" y1="219.12" x2="169.39" y2="219.01"/><line class="cls-1" x1="170.47" y1="218.31" x2="170.68" y2="218.2"/><line class="cls-1" x1="171.76" y1="217.5" x2="171.98" y2="217.34"/><line class="cls-1" x1="173.06" y1="216.58" x2="173.22" y2="216.47"/><line class="cls-1" x1="173.22" y1="216.47" x2="173.27" y2="216.42"/><line class="cls-1" x1="174.3" y1="215.61" x2="174.46" y2="215.5"/><line class="cls-1" x1="174.46" y1="215.5" x2="174.52" y2="215.45"/><line class="cls-1" x1="175.54" y1="214.64" x2="175.65" y2="214.53"/><line class="cls-1" x1="175.65" y1="214.53" x2="175.7" y2="214.48"/><line class="cls-1" x1="176.68" y1="213.56" x2="176.78" y2="213.45"/><line class="cls-1" x1="176.78" y1="213.45" x2="176.84" y2="213.4"/><line class="cls-1" x1="177.81" y1="212.48" x2="177.92" y2="212.37"/><line class="cls-1" x1="177.92" y1="212.37" x2="177.97" y2="212.32"/><line class="cls-1" x1="178.84" y1="211.34" x2="178.94" y2="211.24"/><line class="cls-1" x1="178.94" y1="211.24" x2="179" y2="211.18"/><line class="cls-1" x1="179.86" y1="210.16" x2="179.97" y2="210.05"/><line class="cls-1" x1="179.97" y1="210.05" x2="180.02" y2="209.99"/><line class="cls-1" x1="180.83" y1="208.97" x2="180.94" y2="208.86"/><line class="cls-1" x1="180.94" y1="208.86" x2="181" y2="208.81"/><line class="cls-1" x1="181.75" y1="207.78" x2="181.91" y2="207.56"/><line class="cls-1" x1="182.67" y1="206.48" x2="182.78" y2="206.32"/><line class="cls-1" x1="182.78" y1="206.32" x2="182.83" y2="206.27"/><line class="cls-1" x1="183.48" y1="205.19" x2="183.64" y2="204.97"/><line class="cls-1" x1="184.29" y1="203.89" x2="184.4" y2="203.68"/><line class="cls-1" x1="185.05" y1="202.6" x2="185.15" y2="202.38"/><line class="cls-1" x1="185.75" y1="201.25" x2="185.86" y2="201.03"/><line class="cls-1" x1="186.4" y1="199.84" x2="186.5" y2="199.63"/><line class="cls-1" x1="187.04" y1="198.44" x2="187.15" y2="198.22"/><line class="cls-1" x1="187.58" y1="197.03" x2="187.69" y2="196.82"/><line class="cls-1" x1="188.12" y1="195.63" x2="188.18" y2="195.41"/><line class="cls-1" x1="188.66" y1="194.23" x2="188.72" y2="194.01"/><line class="cls-1" x1="189.1" y1="192.82" x2="189.15" y2="192.61"/><line class="cls-1" x1="189.53" y1="191.42" x2="189.58" y2="191.2"/><line class="cls-1" x1="189.96" y1="189.96" x2="190.01" y2="189.74"/><line class="cls-1" x1="190.34" y1="188.5" x2="190.39" y2="188.29"/><line class="cls-1" x1="190.72" y1="187.04" x2="190.77" y2="186.83"/><line class="cls-1" x1="191.09" y1="185.59" x2="191.15" y2="185.37"/><line class="cls-1" x1="191.47" y1="184.13" x2="191.47" y2="184.02"/><line class="cls-1" x1="191.47" y1="184.02" x2="191.53" y2="183.91"/><line class="cls-1" x1="191.85" y1="182.67" x2="191.9" y2="182.45"/><line class="cls-1" x1="192.23" y1="181.21" x2="192.34" y2="181"/><line class="cls-1" x1="192.71" y1="179.81" x2="192.77" y2="179.54"/><line class="cls-1" x1="192.77" y1="178.24" x2="192.77" y2="177.97"/><line class="cls-1" x1="192.71" y1="176.68" x2="192.71" y2="176.41"/><line class="cls-1" x1="192.66" y1="175.11" x2="192.66" y2="174.84"/><line class="cls-1" x1="192.61" y1="173.54" x2="192.61" y2="173.44"/><line class="cls-1" x1="192.61" y1="173.44" x2="192.61" y2="173.27"/><line class="cls-1" x1="192.5" y1="171.98" x2="192.44" y2="171.76"/><line class="cls-1" x1="192.17" y1="170.52" x2="192.12" y2="170.3"/><line class="cls-1" x1="191.69" y1="169.12" x2="191.69" y2="169.06"/><line class="cls-1" x1="191.69" y1="169.06" x2="191.63" y2="168.9"/><line class="cls-1" x1="191.2" y1="167.71" x2="191.09" y2="167.5"/><line class="cls-1" x1="190.66" y1="166.31" x2="190.55" y2="166.09"/><line class="cls-1" x1="190.01" y1="164.96" x2="189.91" y2="164.74"/><line class="cls-1" x1="189.37" y1="163.61" x2="189.26" y2="163.39"/><line class="cls-1" x1="188.72" y1="162.26" x2="188.56" y2="162.04"/><line class="cls-1" x1="187.96" y1="160.91" x2="187.8" y2="160.69"/><line class="cls-1" x1="187.15" y1="159.61" x2="187.04" y2="159.4"/><line class="cls-1" x1="186.34" y1="158.32" x2="186.18" y2="158.1"/><line class="cls-1" x1="185.48" y1="157.02" x2="185.48" y2="157.02"/><line class="cls-1" x1="185.48" y1="157.02" x2="185.32" y2="156.8"/><line class="cls-1" x1="184.56" y1="155.78" x2="184.51" y2="155.67"/><line class="cls-1" x1="184.51" y1="155.67" x2="184.45" y2="155.56"/><line class="cls-1" x1="183.64" y1="154.54" x2="183.59" y2="154.43"/><line class="cls-1" x1="183.59" y1="154.43" x2="183.48" y2="154.32"/><line class="cls-1" x1="182.67" y1="153.29" x2="182.56" y2="153.19"/><line class="cls-1" x1="182.56" y1="153.19" x2="182.51" y2="153.13"/><line class="cls-1" x1="181.64" y1="152.11" x2="181.54" y2="151.94"/><line class="cls-1" x1="181.54" y1="151.94" x2="181.48" y2="151.89"/><line class="cls-1" x1="180.56" y1="150.92" x2="180.46" y2="150.81"/><line class="cls-1" x1="180.46" y1="150.81" x2="180.4" y2="150.76"/><line class="cls-1" x1="179.48" y1="149.84" x2="179.32" y2="149.68"/><line class="cls-1" x1="178.35" y1="148.81" x2="178.19" y2="148.65"/><line class="cls-1" x1="177.22" y1="147.79" x2="177.05" y2="147.62"/><line class="cls-1" x1="176.03" y1="146.81" x2="175.81" y2="146.65"/><line class="cls-1" x1="174.79" y1="145.84" x2="174.57" y2="145.68"/><line class="cls-1" x1="173.49" y1="144.92" x2="173.27" y2="144.76"/><line class="cls-1" x1="172.19" y1="144.06" x2="171.98" y2="143.9"/><line class="cls-1" x1="170.9" y1="143.2" x2="170.68" y2="143.09"/><line class="cls-1" x1="169.6" y1="142.44" x2="169.39" y2="142.28"/><line class="cls-1" x1="168.25" y1="141.68" x2="168.04" y2="141.58"/><line class="cls-1" x1="166.9" y1="141.04" x2="166.69" y2="140.93"/><line class="cls-1" x1="165.55" y1="140.39" x2="165.34" y2="140.33"/><line class="cls-1" x1="164.2" y1="139.79" x2="163.99" y2="139.74"/><line class="cls-1" x1="162.8" y1="139.25" x2="162.58" y2="139.2"/><line class="cls-1" x1="161.39" y1="138.77" x2="161.18" y2="138.71"/><line class="cls-1" x1="159.99" y1="138.34" x2="159.77" y2="138.28"/><line class="cls-1" x1="158.53" y1="137.96" x2="158.32" y2="137.9"/><line class="cls-1" x1="157.07" y1="137.63" x2="156.86" y2="137.58"/><line class="cls-1" x1="155.62" y1="137.36" x2="155.4" y2="137.31"/><line class="cls-1" x1="154.16" y1="137.09" x2="153.94" y2="137.04"/><line class="cls-1" x1="152.65" y1="136.82" x2="152.54" y2="136.82"/><line class="cls-1" x1="152.54" y1="136.82" x2="152.38" y2="136.82"/><line class="cls-1" x1="151.4" y1="136.28" x2="151.4" y2="136.28"/><line class="cls-1" x1="151.4" y1="136.28" x2="151.4" y2="136.28"/><line class="cls-1" x1="151.4" y1="136.28" x2="151.4" y2="136.23"/><line class="cls-1" x1="151.4" y1="136.23" x2="151.4" y2="136.23"/><line class="cls-1" x1="151.4" y1="136.23" x2="151.4" y2="136.23"/><line class="cls-1" x1="151.4" y1="136.23" x2="151.4" y2="136.18"/><line class="cls-1" x1="151.4" y1="136.18" x2="151.4" y2="136.18"/><line class="cls-1" x1="151.4" y1="136.18" x2="151.4" y2="136.12"/><line class="cls-1" x1="151.4" y1="136.12" x2="151.35" y2="136.12"/><line class="cls-1" x1="151.35" y1="136.12" x2="151.35" y2="136.12"/><line class="cls-1" x1="151.35" y1="136.12" x2="151.35" y2="136.07"/><line class="cls-1" x1="150.43" y1="135.47" x2="150.43" y2="135.47"/><line class="cls-1" x1="150.43" y1="135.47" x2="150.43" y2="135.47"/><line class="cls-1" x1="150.43" y1="135.47" x2="150.38" y2="135.47"/><line class="cls-1" x1="150.38" y1="135.47" x2="150.38" y2="135.47"/><line class="cls-1" x1="150.38" y1="224.14" x2="150.16" y2="224.14"/><line class="cls-1" x1="148.87" y1="224.09" x2="148.6" y2="224.09"/><line class="cls-1" x1="147.3" y1="223.98" x2="147.03" y2="223.98"/><line class="cls-1" x1="145.73" y1="223.87" x2="145.52" y2="223.82"/><line class="cls-1" x1="144.22" y1="223.6" x2="144.01" y2="223.55"/><line class="cls-1" x1="142.76" y1="223.33" x2="142.55" y2="223.28"/><line class="cls-1" x1="141.31" y1="223.01" x2="141.09" y2="222.95"/><line class="cls-1" x1="139.85" y1="222.63" x2="139.63" y2="222.52"/><line class="cls-1" x1="138.44" y1="222.14" x2="138.44" y2="222.14"/><line class="cls-1" x1="138.44" y1="222.14" x2="138.23" y2="222.09"/><line class="cls-1" x1="137.04" y1="221.66" x2="136.99" y2="221.66"/><line class="cls-1" x1="136.99" y1="221.66" x2="136.82" y2="221.6"/><line class="cls-1" x1="135.69" y1="221.12" x2="135.58" y2="221.06"/><line class="cls-1" x1="135.58" y1="221.06" x2="135.47" y2="221.01"/><line class="cls-1" x1="134.34" y1="220.47" x2="134.18" y2="220.42"/><line class="cls-1" x1="134.18" y1="220.42" x2="134.12" y2="220.42"/><line class="cls-1" x1="132.99" y1="219.88" x2="132.77" y2="219.77"/><line class="cls-1" x1="131.64" y1="219.12" x2="131.42" y2="219.01"/><line class="cls-1" x1="130.34" y1="218.31" x2="130.13" y2="218.2"/><line class="cls-1" x1="129.05" y1="217.5" x2="128.83" y2="217.34"/><line class="cls-1" x1="127.75" y1="216.58" x2="127.59" y2="216.47"/><line class="cls-1" x1="127.59" y1="216.47" x2="127.54" y2="216.42"/><line class="cls-1" x1="126.51" y1="215.61" x2="126.35" y2="215.5"/><line class="cls-1" x1="126.35" y1="215.5" x2="126.29" y2="215.45"/><line class="cls-1" x1="125.27" y1="214.64" x2="125.16" y2="214.53"/><line class="cls-1" x1="125.16" y1="214.53" x2="125.11" y2="214.48"/><line class="cls-1" x1="124.13" y1="213.56" x2="124.03" y2="213.45"/><line class="cls-1" x1="124.03" y1="213.45" x2="123.97" y2="213.4"/><line class="cls-1" x1="123" y1="212.48" x2="122.89" y2="212.37"/><line class="cls-1" x1="122.89" y1="212.37" x2="122.84" y2="212.32"/><line class="cls-1" x1="121.97" y1="211.34" x2="121.87" y2="211.24"/><line class="cls-1" x1="121.87" y1="211.24" x2="121.81" y2="211.18"/><line class="cls-1" x1="120.95" y1="210.16" x2="120.84" y2="210.05"/><line class="cls-1" x1="120.84" y1="210.05" x2="120.79" y2="209.99"/><line class="cls-1" x1="119.98" y1="208.97" x2="119.87" y2="208.86"/><line class="cls-1" x1="119.87" y1="208.86" x2="119.81" y2="208.81"/><line class="cls-1" x1="119.06" y1="207.78" x2="118.9" y2="207.56"/><line class="cls-1" x1="118.14" y1="206.48" x2="118.03" y2="206.32"/><line class="cls-1" x1="118.03" y1="206.32" x2="117.98" y2="206.27"/><line class="cls-1" x1="117.33" y1="205.19" x2="117.17" y2="204.97"/><line class="cls-1" x1="116.52" y1="203.89" x2="116.41" y2="203.68"/><line class="cls-1" x1="115.76" y1="202.6" x2="115.66" y2="202.38"/><line class="cls-1" x1="115.06" y1="201.25" x2="114.95" y2="201.03"/><line class="cls-1" x1="114.41" y1="199.84" x2="114.31" y2="199.63"/><line class="cls-1" x1="113.77" y1="198.44" x2="113.66" y2="198.22"/><line class="cls-1" x1="113.23" y1="197.03" x2="113.12" y2="196.82"/><line class="cls-1" x1="112.69" y1="195.63" x2="112.63" y2="195.41"/><line class="cls-1" x1="112.15" y1="194.23" x2="112.09" y2="194.01"/><line class="cls-1" x1="111.71" y1="192.82" x2="111.66" y2="192.61"/><line class="cls-1" x1="111.28" y1="191.42" x2="111.23" y2="191.2"/><line class="cls-1" x1="110.85" y1="189.96" x2="110.8" y2="189.74"/><line class="cls-1" x1="110.47" y1="188.5" x2="110.42" y2="188.29"/><line class="cls-1" x1="110.09" y1="187.04" x2="110.04" y2="186.83"/><line class="cls-1" x1="109.72" y1="185.59" x2="109.66" y2="185.37"/><line class="cls-1" x1="109.34" y1="184.13" x2="109.34" y2="184.02"/><line class="cls-1" x1="109.34" y1="184.02" x2="109.28" y2="183.91"/><line class="cls-1" x1="108.96" y1="182.67" x2="108.91" y2="182.45"/><line class="cls-1" x1="108.58" y1="181.21" x2="108.47" y2="181"/><line class="cls-1" x1="108.1" y1="179.81" x2="108.04" y2="179.54"/><line class="cls-1" x1="108.04" y1="178.24" x2="108.04" y2="177.97"/><line class="cls-1" x1="108.1" y1="176.68" x2="108.1" y2="176.41"/><line class="cls-1" x1="108.15" y1="175.11" x2="108.15" y2="174.84"/><line class="cls-1" x1="108.2" y1="173.54" x2="108.2" y2="173.44"/><line class="cls-1" x1="108.2" y1="173.44" x2="108.2" y2="173.27"/><line class="cls-1" x1="108.31" y1="171.98" x2="108.37" y2="171.76"/><line class="cls-1" x1="108.64" y1="170.52" x2="108.69" y2="170.3"/><line class="cls-1" x1="109.12" y1="169.12" x2="109.12" y2="169.06"/><line class="cls-1" x1="109.12" y1="169.06" x2="109.18" y2="168.9"/><line class="cls-1" x1="109.61" y1="167.71" x2="109.72" y2="167.5"/><line class="cls-1" x1="110.15" y1="166.31" x2="110.26" y2="166.09"/><line class="cls-1" x1="110.8" y1="164.96" x2="110.9" y2="164.74"/><line class="cls-1" x1="111.44" y1="163.61" x2="111.55" y2="163.39"/><line class="cls-1" x1="112.09" y1="162.26" x2="112.25" y2="162.04"/><line class="cls-1" x1="112.85" y1="160.91" x2="113.01" y2="160.69"/><line class="cls-1" x1="113.66" y1="159.61" x2="113.77" y2="159.4"/><line class="cls-1" x1="114.47" y1="158.32" x2="114.63" y2="158.1"/><line class="cls-1" x1="115.33" y1="157.02" x2="115.33" y2="157.02"/><line class="cls-1" x1="115.33" y1="157.02" x2="115.49" y2="156.8"/><line class="cls-1" x1="116.25" y1="155.78" x2="116.3" y2="155.67"/><line class="cls-1" x1="116.3" y1="155.67" x2="116.36" y2="155.56"/><line class="cls-1" x1="117.17" y1="154.54" x2="117.22" y2="154.43"/><line class="cls-1" x1="117.22" y1="154.43" x2="117.33" y2="154.32"/><line class="cls-1" x1="118.14" y1="153.29" x2="118.25" y2="153.19"/><line class="cls-1" x1="118.25" y1="153.19" x2="118.3" y2="153.13"/><line class="cls-1" x1="119.17" y1="152.11" x2="119.27" y2="151.94"/><line class="cls-1" x1="119.27" y1="151.94" x2="119.33" y2="151.89"/><line class="cls-1" x1="120.25" y1="150.92" x2="120.35" y2="150.81"/><line class="cls-1" x1="120.35" y1="150.81" x2="120.41" y2="150.76"/><line class="cls-1" x1="121.33" y1="149.84" x2="121.49" y2="149.68"/><line class="cls-1" x1="122.46" y1="148.81" x2="122.62" y2="148.65"/><line class="cls-1" x1="123.59" y1="147.79" x2="123.76" y2="147.62"/><line class="cls-1" x1="124.78" y1="146.81" x2="125" y2="146.65"/><line class="cls-1" x1="126.02" y1="145.84" x2="126.24" y2="145.68"/><line class="cls-1" x1="127.32" y1="144.92" x2="127.54" y2="144.76"/><line class="cls-1" x1="128.62" y1="144.06" x2="128.83" y2="143.9"/><line class="cls-1" x1="129.91" y1="143.2" x2="130.13" y2="143.09"/><line class="cls-1" x1="131.21" y1="142.44" x2="131.42" y2="142.28"/><line class="cls-1" x1="132.56" y1="141.68" x2="132.77" y2="141.58"/><line class="cls-1" x1="133.91" y1="141.04" x2="134.12" y2="140.93"/><line class="cls-1" x1="135.26" y1="140.39" x2="135.47" y2="140.33"/><line class="cls-1" x1="136.61" y1="139.79" x2="136.82" y2="139.74"/><line class="cls-1" x1="138.01" y1="139.25" x2="138.23" y2="139.2"/><line class="cls-1" x1="139.42" y1="138.77" x2="139.63" y2="138.71"/><line class="cls-1" x1="140.82" y1="138.34" x2="141.04" y2="138.28"/><line class="cls-1" x1="142.28" y1="137.96" x2="142.49" y2="137.9"/><line class="cls-1" x1="143.74" y1="137.63" x2="143.95" y2="137.58"/><line class="cls-1" x1="145.19" y1="137.36" x2="145.41" y2="137.31"/><line class="cls-1" x1="146.65" y1="137.09" x2="146.87" y2="137.04"/><line class="cls-1" x1="148.16" y1="136.82" x2="148.27" y2="136.82"/><line class="cls-1" x1="148.27" y1="136.82" x2="148.43" y2="136.82"/><line class="cls-1" x1="149.41" y1="136.28" x2="149.41" y2="136.28"/><line class="cls-1" x1="149.41" y1="136.28" x2="149.41" y2="136.28"/><line class="cls-1" x1="149.41" y1="136.28" x2="149.41" y2="136.23"/><line class="cls-1" x1="149.41" y1="136.23" x2="149.41" y2="136.23"/><line class="cls-1" x1="149.41" y1="136.23" x2="149.41" y2="136.23"/><line class="cls-1" x1="149.41" y1="136.23" x2="149.41" y2="136.18"/><line class="cls-1" x1="149.41" y1="136.18" x2="149.41" y2="136.18"/><line class="cls-1" x1="149.41" y1="136.18" x2="149.41" y2="136.12"/><line class="cls-1" x1="149.41" y1="136.12" x2="149.46" y2="136.12"/><line class="cls-1" x1="149.46" y1="136.12" x2="149.46" y2="136.12"/><line class="cls-1" x1="149.46" y1="136.12" x2="149.46" y2="136.07"/><line class="cls-1" x1="150.38" y1="135.47" x2="150.38" y2="135.47"/><line class="cls-1" x1="150.38" y1="135.47" x2="150.38" y2="135.47"/><line class="cls-1" x1="150.38" y1="135.47" x2="150.38" y2="135.47"/><line class="cls-1" x1="150.38" y1="135.47" x2="150.38" y2="135.47"/><path d="M55.55,13.09h4.39v.78H56.39v2.34h3.3V17h-3.3v3.18h-.84Z"/><path d="M60.61,16.63a9.26,9.26,0,0,1,.1-1.25,4,4,0,0,1,.37-1.18,2.44,2.44,0,0,1,.74-.88,2.22,2.22,0,0,1,2.39,0,2.41,2.41,0,0,1,.73.88,3.71,3.71,0,0,1,.37,1.18,7.88,7.88,0,0,1,.1,1.25,7.79,7.79,0,0,1-.1,1.25,3.77,3.77,0,0,1-.37,1.19,2.5,2.5,0,0,1-.73.88,2.27,2.27,0,0,1-2.39,0,2.53,2.53,0,0,1-.74-.88,4,4,0,0,1-.37-1.19A9.14,9.14,0,0,1,60.61,16.63Zm.84,0c0,.18,0,.37,0,.58s0,.43.08.65a4.47,4.47,0,0,0,.16.63A1.9,1.9,0,0,0,62,19a1.55,1.55,0,0,0,.42.39,1.27,1.27,0,0,0,.6.14,1.21,1.21,0,0,0,.6-.14A1.45,1.45,0,0,0,64,19a1.9,1.9,0,0,0,.28-.55,4.47,4.47,0,0,0,.16-.63,4.78,4.78,0,0,0,.07-.65c0-.21,0-.4,0-.58s0-.36,0-.58a4.79,4.79,0,0,0-.23-1.28,2,2,0,0,0-.28-.55,1.3,1.3,0,0,0-.43-.38,1.11,1.11,0,0,0-.6-.15,1.16,1.16,0,0,0-.6.15,1.37,1.37,0,0,0-.42.38,2,2,0,0,0-.28.55,4.61,4.61,0,0,0-.16.64c0,.21-.06.43-.08.64S61.45,16.46,61.45,16.63Z"/><path d="M70,17.77h1v.78H70v1.62h-.84V18.55h-3v-.93L69,13.09h1Zm-.84-3.7h0l-2.26,3.7h2.28Z"/><path d="M71.73,16.63a9.26,9.26,0,0,1,.1-1.25,4,4,0,0,1,.37-1.18,2.44,2.44,0,0,1,.74-.88,2.22,2.22,0,0,1,2.39,0,2.41,2.41,0,0,1,.73.88,3.71,3.71,0,0,1,.37,1.18,7.88,7.88,0,0,1,.1,1.25,7.79,7.79,0,0,1-.1,1.25,3.77,3.77,0,0,1-.37,1.19,2.5,2.5,0,0,1-.73.88,2.27,2.27,0,0,1-2.39,0,2.53,2.53,0,0,1-.74-.88,4,4,0,0,1-.37-1.19A9.14,9.14,0,0,1,71.73,16.63Zm.84,0c0,.18,0,.37,0,.58s0,.43.08.65a4.47,4.47,0,0,0,.16.63,1.9,1.9,0,0,0,.28.55,1.55,1.55,0,0,0,.42.39,1.27,1.27,0,0,0,.6.14,1.21,1.21,0,0,0,.6-.14,1.45,1.45,0,0,0,.43-.39,1.9,1.9,0,0,0,.28-.55,4.47,4.47,0,0,0,.16-.63,4.78,4.78,0,0,0,.07-.65c0-.21,0-.4,0-.58s0-.36,0-.58a4.79,4.79,0,0,0-.23-1.28,2,2,0,0,0-.28-.55,1.3,1.3,0,0,0-.43-.38,1.11,1.11,0,0,0-.6-.15,1.16,1.16,0,0,0-.6.15,1.37,1.37,0,0,0-.42.38,2,2,0,0,0-.28.55,4.61,4.61,0,0,0-.16.64c0,.21-.06.43-.08.64S72.57,16.46,72.57,16.63Z"/><path d="M81.65,13.87H78.76l0,1.91a1.67,1.67,0,0,1,.45-.13,2.53,2.53,0,0,1,.46,0,2.34,2.34,0,0,1,.93.18,2,2,0,0,1,.71.49,2,2,0,0,1,.46.74,2.71,2.71,0,0,1,0,1.89,2.13,2.13,0,0,1-.51.74,2.31,2.31,0,0,1-.77.47,2.57,2.57,0,0,1-1,.17,2.15,2.15,0,0,1-1.3-.35,2.44,2.44,0,0,1-.79-.94l.84-.32a1.61,1.61,0,0,0,.53.65,1.34,1.34,0,0,0,.79.24,1.64,1.64,0,0,0,.6-.11,1.58,1.58,0,0,0,.48-.33,1.62,1.62,0,0,0,.32-.52,1.78,1.78,0,0,0,.12-.67,1.67,1.67,0,0,0-.13-.69,1.34,1.34,0,0,0-.37-.5,1.53,1.53,0,0,0-.56-.31,2.17,2.17,0,0,0-.69-.11,2.22,2.22,0,0,0-.74.13,4,4,0,0,0-.7.31l.07-3.68h3.71Z"/><path d="M82.85,16.63a9.26,9.26,0,0,1,.1-1.25,4,4,0,0,1,.37-1.18,2.44,2.44,0,0,1,.74-.88,2.22,2.22,0,0,1,2.39,0,2.41,2.41,0,0,1,.73.88,3.71,3.71,0,0,1,.37,1.18,7.88,7.88,0,0,1,.1,1.25,7.79,7.79,0,0,1-.1,1.25,3.77,3.77,0,0,1-.37,1.19,2.5,2.5,0,0,1-.73.88,2.27,2.27,0,0,1-2.39,0,2.53,2.53,0,0,1-.74-.88A4,4,0,0,1,83,17.88,9.14,9.14,0,0,1,82.85,16.63Zm.84,0c0,.18,0,.37,0,.58s0,.43.08.65a4.47,4.47,0,0,0,.16.63,1.9,1.9,0,0,0,.28.55,1.55,1.55,0,0,0,.42.39,1.27,1.27,0,0,0,.6.14,1.21,1.21,0,0,0,.6-.14,1.45,1.45,0,0,0,.43-.39,1.9,1.9,0,0,0,.28-.55,4.47,4.47,0,0,0,.16-.63,4.78,4.78,0,0,0,.07-.65c0-.21,0-.4,0-.58s0-.36,0-.58a4.79,4.79,0,0,0-.23-1.28,2,2,0,0,0-.28-.55,1.3,1.3,0,0,0-.43-.38,1.11,1.11,0,0,0-.6-.15,1.16,1.16,0,0,0-.6.15,1.37,1.37,0,0,0-.42.38,2,2,0,0,0-.28.55,4.61,4.61,0,0,0-.16.64c0,.21-.06.43-.08.64S83.69,16.46,83.69,16.63Z"/><path d="M90.07,16.09h.26a3.48,3.48,0,0,0,.55,0,1.33,1.33,0,0,0,.52-.17,1,1,0,0,0,.39-.37,1.25,1.25,0,0,0,.15-.65,1.11,1.11,0,0,0-.33-.85,1.24,1.24,0,0,0-.88-.32,1.51,1.51,0,0,0-.78.2,1.43,1.43,0,0,0-.52.59l-.81-.31a1.85,1.85,0,0,1,.82-.9,2.54,2.54,0,0,1,1.23-.3,2.74,2.74,0,0,1,.81.12,2,2,0,0,1,.67.35,1.62,1.62,0,0,1,.46.58,1.71,1.71,0,0,1,.17.8,1.65,1.65,0,0,1-.33,1,1.72,1.72,0,0,1-.88.61v0a1.92,1.92,0,0,1,.61.22,1.58,1.58,0,0,1,.45.4,1.44,1.44,0,0,1,.29.53,1.89,1.89,0,0,1,.1.63,1.91,1.91,0,0,1-.19.89,1.69,1.69,0,0,1-.51.64,2,2,0,0,1-.74.39,2.92,2.92,0,0,1-.9.13,2.68,2.68,0,0,1-1.41-.35,2,2,0,0,1-.87-1.14l.85-.28a1.3,1.3,0,0,0,1.43,1.05,1.47,1.47,0,0,0,.56-.1,1.27,1.27,0,0,0,.46-.28,1.52,1.52,0,0,0,.31-.44,1.32,1.32,0,0,0,.11-.57,1.28,1.28,0,0,0-.15-.65,1.1,1.1,0,0,0-.41-.42,1.76,1.76,0,0,0-.58-.23,3.5,3.5,0,0,0-.65-.07h-.26Z"/><path d="M94,16.63a9.26,9.26,0,0,1,.1-1.25,4,4,0,0,1,.37-1.18,2.44,2.44,0,0,1,.74-.88,2.22,2.22,0,0,1,2.39,0,2.41,2.41,0,0,1,.73.88,3.71,3.71,0,0,1,.37,1.18,7.88,7.88,0,0,1,.1,1.25,7.79,7.79,0,0,1-.1,1.25,3.77,3.77,0,0,1-.37,1.19,2.5,2.5,0,0,1-.73.88,2.27,2.27,0,0,1-2.39,0,2.53,2.53,0,0,1-.74-.88,4,4,0,0,1-.37-1.19A9.14,9.14,0,0,1,94,16.63Zm.84,0c0,.18,0,.37,0,.58s0,.43.08.65a4.47,4.47,0,0,0,.16.63,1.9,1.9,0,0,0,.28.55,1.55,1.55,0,0,0,.42.39,1.27,1.27,0,0,0,.6.14,1.21,1.21,0,0,0,.6-.14A1.45,1.45,0,0,0,97.4,19a1.9,1.9,0,0,0,.28-.55,4.47,4.47,0,0,0,.16-.63,4.78,4.78,0,0,0,.07-.65c0-.21,0-.4,0-.58s0-.36,0-.58a4.79,4.79,0,0,0-.23-1.28,2,2,0,0,0-.28-.55,1.3,1.3,0,0,0-.43-.38,1.11,1.11,0,0,0-.6-.15,1.16,1.16,0,0,0-.6.15,1.37,1.37,0,0,0-.42.38,2,2,0,0,0-.28.55,4.61,4.61,0,0,0-.16.64c0,.21-.06.43-.08.64S94.81,16.46,94.81,16.63Z"/><path d="M99.15,20.92h5v.5h-5Z"/><path d="M104.65,19.21l2.67-2.6.44-.44a2.66,2.66,0,0,0,.32-.4,1.65,1.65,0,0,0,.18-.41,1.68,1.68,0,0,0,.06-.47,1.18,1.18,0,0,0-.1-.5A1,1,0,0,0,108,14a1.06,1.06,0,0,0-.41-.24,1.44,1.44,0,0,0-.51-.09,1.34,1.34,0,0,0-.89.31,1.47,1.47,0,0,0-.45.82l-.91-.08a2.29,2.29,0,0,1,.27-.76,1.77,1.77,0,0,1,.49-.56,2.27,2.27,0,0,1,.66-.33A2.63,2.63,0,0,1,107,13a2.49,2.49,0,0,1,.83.13,2.06,2.06,0,0,1,.69.36,1.74,1.74,0,0,1,.47.6,1.84,1.84,0,0,1,.17.83,2.25,2.25,0,0,1-.11.76,2.64,2.64,0,0,1-.31.63,4.51,4.51,0,0,1-.44.54c-.16.17-.34.34-.52.5l-2.18,2.05v0h3.61v.78h-4.56Z"/><path d="M110.47,14.82a1.88,1.88,0,0,1,.16-.76,1.73,1.73,0,0,1,.42-.58,2,2,0,0,1,.64-.37,2.36,2.36,0,0,1,.8-.14,2.28,2.28,0,0,1,.8.14,1.92,1.92,0,0,1,.64.37,1.76,1.76,0,0,1,.43.58,1.87,1.87,0,0,1,.15.76,1.42,1.42,0,0,1-.08.5,1.53,1.53,0,0,1-.23.46,1.58,1.58,0,0,1-.36.37,1.23,1.23,0,0,1-.49.23v0a1.77,1.77,0,0,1,.58.24,1.54,1.54,0,0,1,.44.4,1.68,1.68,0,0,1,.28.55,1.89,1.89,0,0,1,.1.63,2,2,0,0,1-.17.87,2.07,2.07,0,0,1-.48.65,2,2,0,0,1-.72.41,2.87,2.87,0,0,1-1.77,0,2,2,0,0,1-.72-.41,2.07,2.07,0,0,1-.48-.65,2.05,2.05,0,0,1-.18-.87,2.19,2.19,0,0,1,.1-.63,1.9,1.9,0,0,1,.28-.55,1.68,1.68,0,0,1,.44-.4,2,2,0,0,1,.58-.24v0a1.19,1.19,0,0,1-.48-.23,1.62,1.62,0,0,1-.37-.37,1.8,1.8,0,0,1-.23-.46A1.69,1.69,0,0,1,110.47,14.82Zm.6,3.34a1.48,1.48,0,0,0,.11.57,1.44,1.44,0,0,0,.31.45,1.51,1.51,0,0,0,.45.29,1.42,1.42,0,0,0,.55.1,1.47,1.47,0,0,0,.56-.1,1.51,1.51,0,0,0,.45-.29,1.27,1.27,0,0,0,.3-.45,1.32,1.32,0,0,0,.11-.57,1.38,1.38,0,0,0-.11-.57,1.23,1.23,0,0,0-.3-.44,1.34,1.34,0,0,0-.45-.29,1.47,1.47,0,0,0-.56-.11,1.42,1.42,0,0,0-.55.11,1.34,1.34,0,0,0-.45.29,1.4,1.4,0,0,0-.31.44A1.56,1.56,0,0,0,111.07,18.16Zm.24-3.3A1.13,1.13,0,0,0,112.49,16a1.15,1.15,0,0,0,.86-.33,1.26,1.26,0,0,0,0-1.68,1.27,1.27,0,0,0-1.71,0A1.14,1.14,0,0,0,111.31,14.86Z"/><path d="M115.33,13.09h.93L117.87,19h0l1.74-5.88h.94L122.3,19h0L124,13.09h.88l-2.08,7.08h-.91l-1.75-6h0l-1.76,6h-.92Z"/><path d="M128.49,13.09h.84v6.3h3.24v.78h-4.08Z"/><path d="M133.49,13.09h4.45v.78h-3.61v2.22h3.37v.78h-3.37v2.52h3.79v.78h-4.63Z"/><path d="M139.29,13.09H142a3.89,3.89,0,0,1,.74.08,4,4,0,0,1,.78.26,3.57,3.57,0,0,1,.74.45,3.12,3.12,0,0,1,.62.68,3.07,3.07,0,0,1,.43.91,3.78,3.78,0,0,1,.16,1.16,3.85,3.85,0,0,1-.16,1.17,3.32,3.32,0,0,1-.43.91,3.07,3.07,0,0,1-.62.67,3.63,3.63,0,0,1-.74.46,3.92,3.92,0,0,1-.78.25,3.22,3.22,0,0,1-.74.08h-2.72Zm.84,6.3h1.6a3.67,3.67,0,0,0,1.13-.16,2.31,2.31,0,0,0,.9-.49,2.22,2.22,0,0,0,.6-.86,3.11,3.11,0,0,0,.22-1.25,3.17,3.17,0,0,0-.22-1.25,2.19,2.19,0,0,0-.6-.85,2.33,2.33,0,0,0-.9-.5,4,4,0,0,0-1.13-.16h-1.6Z"/></g></svg>