<svg id="Drop_Down" data-name="Drop Down" xmlns="http://www.w3.org/2000/svg" xmlns:xlink="http://www.w3.org/1999/xlink" viewBox="0 0 300 263"><defs><style>.cls-1,.cls-2,.cls-7,.cls-9{fill:none;}.cls-2,.cls-9{stroke:#000;stroke-width:0.5px;}.cls-3{isolation:isolate;font-size:16px;font-family:Avenir-Book, Avenir;}.cls-4{clip-path:url(#clip-path);}.cls-5{fill:#0b0904;}.cls-6{clip-path:url(#clip-path-2);}.cls-7{stroke:#0b0904;stroke-linecap:round;stroke-linejoin:round;stroke-width:0.45px;}.cls-8{fill:#1d1d1b;}.cls-9{stroke-miterlimit:10;}</style><clipPath id="clip-path"><rect class="cls-1" x="129.33" y="113.63" width="41.4" height="57.42"/></clipPath><clipPath id="clip-path-2"><rect class="cls-1" x="128.42" y="112.72" width="43.22" height="59.24"/></clipPath></defs><title>Arrangements-Drop-Down-suspension-anastassiades-flos-F0413030-Thumbnail</title><line class="cls-2" x1="128.18" y1="180.39" x2="171.4" y2="180.39"/><line class="cls-2" x1="128.18" y1="178.69" x2="128.18" y2="182.09"/><line class="cls-2" x1="171.4" y1="178.69" x2="171.4" y2="182.09"/><text class="cls-3" transform="translate(120.59 200.9)">495 mm</text><line class="cls-2" x1="183.23" y1="171.96" x2="183.23" y2="113.63"/><line class="cls-2" x1="181.53" y1="171.96" x2="184.93" y2="171.96"/><line class="cls-2" x1="181.53" y1="113.63" x2="184.93" y2="113.63"/><text class="cls-3" transform="translate(203.74 171.96) rotate(-90)">697 mm</text><g class="cls-4"><path class="cls-5" d="M146,168.71a4.68,4.68,0,0,0,8.1,0l1.92-3.32-.73-.42-1.91,3.32a3.84,3.84,0,0,1-5.24,1.4,3.79,3.79,0,0,1-1.41-1.4l-13.87-24a19.85,19.85,0,1,1,34.39,0l-11,19.05.73.42,11-19a20.7,20.7,0,1,0-35.85,0Z"/></g><g class="cls-6"><path class="cls-7" d="M156.23,163.31l11-19.05m.73.42-11,19m-.73-.42.73.42m-24.12-19.47,13.87,24m-.73.42-13.87-24M155.27,165l.73.42m0,0-1.91,3.32m-.73-.42,1.91-3.32m-1.18,3.74a4.69,4.69,0,0,1-8.11,0m7.38-.42a3.84,3.84,0,0,1-5.24,1.4,3.79,3.79,0,0,1-1.41-1.4m-14.6-23.61a20.7,20.7,0,1,1,35.85,0m-35.12-.42a19.85,19.85,0,1,1,34.39,0M157,163.73l.73.42M156,165.39l.73.42m1-1.66,11-19.05m-37.31,0,13.87,24m-13.87-24a21.54,21.54,0,1,1,37.31,0m-13.87,24,1.91-3.33m-1.91,3.33a5.52,5.52,0,0,1-7.54,2,5.59,5.59,0,0,1-2-2"/></g><rect class="cls-5" x="155.52" y="163.72" width="1.92" height="1.69" transform="translate(-64.3 217.7) rotate(-59.98)"/><rect class="cls-8" x="140.23" y="46.68" width="19.64" height="4.88"/><line class="cls-9" x1="147.09" y1="51.56" x2="147.09" y2="114.04"/><line class="cls-9" x1="153.01" y1="51.56" x2="153.01" y2="114.04"/></svg>