<svg id="square_large" data-name="square large" xmlns="http://www.w3.org/2000/svg" xmlns:xlink="http://www.w3.org/1999/xlink" viewBox="0 0 300 263"><defs><style>.cls-1,.cls-10,.cls-2,.cls-7,.cls-8{fill:none;}.cls-10,.cls-2{stroke:#000;stroke-width:0.5px;}.cls-3{isolation:isolate;font-size:16px;font-family:Avenir-Book, Avenir;}.cls-4{clip-path:url(#clip-path);}.cls-5{fill:#0b0904;stroke:#e5087e;stroke-width:0px;}.cls-10,.cls-5{stroke-miterlimit:10;}.cls-6{clip-path:url(#clip-path-2);}.cls-7,.cls-8{stroke:#0b0904;stroke-linecap:round;stroke-linejoin:round;}.cls-7{stroke-width:0.25px;}.cls-8{stroke-width:0.45px;}.cls-9{fill:#1d1d1b;}</style><clipPath id="clip-path"><rect class="cls-1" x="122.52" y="113.95" width="54.66" height="54.67"/></clipPath><clipPath id="clip-path-2"><rect class="cls-1" x="121.6" y="113.04" width="56.49" height="56.49"/></clipPath></defs><title>Arrangements-suspension-Square_L-anastassiades-flos-F0409030-spech-tech-300x263-01-01-01</title><line class="cls-2" x1="115.77" y1="152.14" x2="141.72" y2="176.72"/><line class="cls-2" x1="116.94" y1="150.9" x2="114.6" y2="153.37"/><line class="cls-2" x1="142.88" y1="175.49" x2="140.55" y2="177.95"/><text class="cls-3" transform="translate(93.36 158.57) rotate(43.45)">512 mm</text><line class="cls-2" x1="187.93" y1="169.53" x2="187.93" y2="113.04"/><line class="cls-2" x1="186.24" y1="169.53" x2="189.63" y2="169.53"/><line class="cls-2" x1="186.24" y1="113.04" x2="189.63" y2="113.04"/><text class="cls-3" transform="translate(208.44 169.53) rotate(-90)">688 mm</text><g class="cls-4"><path class="cls-5" d="M123.88,138a4.68,4.68,0,0,0,0,6.61l22.66,22.66a4.68,4.68,0,0,0,6.61,0l22.66-22.66a4.67,4.67,0,0,0,0-6.61l-18.59-18.59-.6.59,18.6,18.6a3.84,3.84,0,0,1,0,5.42l-22.66,22.65a3.83,3.83,0,0,1-5.42,0L124.48,144a3.84,3.84,0,0,1,0-5.42l22.66-22.66a3.83,3.83,0,0,1,5.42,0l2.71,2.71.59-.6-2.71-2.7a4.67,4.67,0,0,0-6.61,0Z"/></g><g class="cls-6"><path class="cls-7" d="M175.81,138l-18.59-18.59m0,0-.6.59m-32.74,24.61,22.66,22.66m6.61,0a4.68,4.68,0,0,1-6.61,0m6.61,0,22.66-22.66m0-6.61a4.67,4.67,0,0,1,0,6.61M155.86,118l-.59.6m.59-.6-2.71-2.71m-6.61,0a4.67,4.67,0,0,1,6.61,0m-6.61,0L123.88,138m0,6.61a4.68,4.68,0,0,1,0-6.61m33.94-19.19-.6.6m-.76-2-.6.6m.76,2,18.6,18.6m-28.08,28.07L124.48,144m28.08,22.65a3.83,3.83,0,0,1-5.42,0M175.22,144l-22.66,22.65m22.66-28.07a3.84,3.84,0,0,1,0,5.42m-22.66-28.08,2.71,2.71m-8.13-2.71a3.83,3.83,0,0,1,5.42,0m-28.08,22.66,22.66-22.66M124.48,144a3.84,3.84,0,0,1,0-5.42m33.34-19.79,18.59,18.59m-30.47,30.47-22.65-22.66m30.46,22.66a5.53,5.53,0,0,1-7.81,0m30.47-22.66-22.66,22.66m22.66-30.47a5.53,5.53,0,0,1,0,7.81m-22.66-30.47,2.71,2.71m-10.52-2.71a5.53,5.53,0,0,1,7.81,0m-30.46,22.66L146,114.73m-22.66,30.46a5.52,5.52,0,0,1,0-7.81"/></g><polygon points="156.46 118.44 155.27 119.69 156.62 120.98 157.82 119.79 156.46 118.44"/><polygon class="cls-8" points="156.46 118.44 155.27 119.69 156.62 120.98 157.82 119.79 156.46 118.44"/><rect class="cls-9" x="140.23" y="46.68" width="19.64" height="4.88"/><line class="cls-10" x1="147.09" y1="51.56" x2="147.09" y2="114.04"/><line class="cls-10" x1="153.01" y1="51.56" x2="153.01" y2="114.04"/></svg>