<svg id="Guns_Beside_Gun" xmlns="http://www.w3.org/2000/svg" viewBox="0 0 300 263"><defs><style>.cls-1,.cls-3{fill:none;stroke-width:0.5px;}.cls-1{stroke:#000;}.cls-2{isolation:isolate;}.cls-3{stroke:#1a171b;stroke-linecap:round;stroke-linejoin:round;}</style></defs><title>bedside-gun-table-starck-flos-F2953000-spech-tech-02-300x263</title><line class="cls-1" x1="193.08" y1="227.7" x2="139.35" y2="227.7"/><line class="cls-1" x1="193.08" y1="226.33" x2="193.08" y2="229.06"/><line class="cls-1" x1="139.35" y1="226.33" x2="139.35" y2="229.06"/><g class="cls-2"><path d="M135.44,240.51a3.58,3.58,0,0,1,.71,1.16,4,4,0,0,1,.26,1.44,4,4,0,0,1-.31,1.57,3.79,3.79,0,0,1-2.16,2.07,4.47,4.47,0,0,1-1.67.3,4.69,4.69,0,0,1-1.45-.22,4.12,4.12,0,0,1-1.16-.61l-1.11,1.09-.53-.5,1.09-1.09a3.67,3.67,0,0,1-.71-1.17,4,4,0,0,1-.25-1.44,3.85,3.85,0,0,1,.31-1.56,3.75,3.75,0,0,1,.85-1.25,4,4,0,0,1,1.31-.83,4.61,4.61,0,0,1,1.65-.29,4.73,4.73,0,0,1,1.44.21,4,4,0,0,1,1.2.62l1.1-1.09.53.5Zm-1.29.25a2.88,2.88,0,0,0-1.88-.62,3,3,0,0,0-1.22.23,2.6,2.6,0,0,0-.91.63,2.88,2.88,0,0,0-.59.95,3.41,3.41,0,0,0-.2,1.16,2.89,2.89,0,0,0,.56,1.83Zm-3.74,4.72a2.88,2.88,0,0,0,.83.45,3.05,3.05,0,0,0,1,.16,3.16,3.16,0,0,0,1.22-.23,2.89,2.89,0,0,0,.92-.63,2.82,2.82,0,0,0,.59-.95,3.2,3.2,0,0,0,.21-1.17,3.07,3.07,0,0,0-.56-1.82Z"/><path d="M147.6,246.86h-1.19V237l-2.11,1.79-.75-.86,3-2.37h1.06Z"/><path d="M154.25,240.39l0,0a2,2,0,0,1,.76-.29,3.94,3.94,0,0,1,.87-.1,3.7,3.7,0,0,1,1.42.27,3.35,3.35,0,0,1,1.14.72,3.3,3.3,0,0,1,.75,1.11,3.38,3.38,0,0,1,.28,1.41,3.47,3.47,0,0,1-.29,1.42,3.09,3.09,0,0,1-.79,1.1,3.72,3.72,0,0,1-1.22.72,4.6,4.6,0,0,1-3,0,3.72,3.72,0,0,1-1.22-.72,3.22,3.22,0,0,1-.79-1.1,3.46,3.46,0,0,1-.28-1.42,4.19,4.19,0,0,1,.29-1.65,8.35,8.35,0,0,1,.72-1.39l3.17-5h1.41Zm-1.2,3.16a2.64,2.64,0,0,0,.19,1,2.33,2.33,0,0,0,.54.77,2.41,2.41,0,0,0,.83.51,3.42,3.42,0,0,0,2.13,0,2.41,2.41,0,0,0,.83-.51,2.33,2.33,0,0,0,.54-.77,2.7,2.7,0,0,0,0-2,2.19,2.19,0,0,0-.54-.76,2.41,2.41,0,0,0-.83-.51,3.24,3.24,0,0,0-2.13,0,2.41,2.41,0,0,0-.83.51,2.19,2.19,0,0,0-.54.76A2.66,2.66,0,0,0,153.05,243.55Z"/><path d="M164.91,235.34a3.43,3.43,0,0,1,2.05.56,3.86,3.86,0,0,1,1.21,1.42,6.19,6.19,0,0,1,.58,1.9,13.08,13.08,0,0,1,0,3.95,6.19,6.19,0,0,1-.58,1.9,3.86,3.86,0,0,1-1.21,1.42,3.5,3.5,0,0,1-2.05.56,3.44,3.44,0,0,1-2-.56,3.77,3.77,0,0,1-1.21-1.42,6.2,6.2,0,0,1-.59-1.9,14,14,0,0,1,0-3.95,6.2,6.2,0,0,1,.59-1.9,3.77,3.77,0,0,1,1.21-1.42A3.37,3.37,0,0,1,164.91,235.34Zm0,1a2.21,2.21,0,0,0-1.52.5,3.14,3.14,0,0,0-.84,1.23,6.09,6.09,0,0,0-.35,1.57c0,.55-.08,1.06-.08,1.5s0,.95.08,1.51a6.19,6.19,0,0,0,.35,1.57,3.14,3.14,0,0,0,.84,1.23,2.6,2.6,0,0,0,3,0,3.14,3.14,0,0,0,.84-1.23,5.8,5.8,0,0,0,.36-1.57c.05-.56.07-1.06.07-1.51s0-.95-.07-1.5a5.71,5.71,0,0,0-.36-1.57,3.14,3.14,0,0,0-.84-1.23A2.21,2.21,0,0,0,164.91,236.39Z"/><path d="M175.34,241c0-.27,0-.55,0-.83l-.06-.83h1.18v1.14h0a2.62,2.62,0,0,1,1.11-1,3.29,3.29,0,0,1,1.4-.33,4.18,4.18,0,0,1,.68.06,2.48,2.48,0,0,1,.68.23,2.16,2.16,0,0,1,.63.48,2.67,2.67,0,0,1,.49.78,2.51,2.51,0,0,1,1-1.14,3.06,3.06,0,0,1,1.51-.41,2.9,2.9,0,0,1,2.21.76,3.07,3.07,0,0,1,.71,2.17v4.75h-1.1v-4.37a3,3,0,0,0-.41-1.74,1.74,1.74,0,0,0-1.55-.61,2,2,0,0,0-1,.23,1.9,1.9,0,0,0-.67.62,2.44,2.44,0,0,0-.37.87,4.17,4.17,0,0,0-.12,1v4h-1.1v-4.37a3,3,0,0,0-.41-1.74,1.74,1.74,0,0,0-1.55-.61l-.45.06a1.72,1.72,0,0,0-.74.35,2.51,2.51,0,0,0-.69.87,3.34,3.34,0,0,0-.31,1.6v3.84h-1.1Z"/><path d="M189.5,241c0-.27,0-.55,0-.83s0-.55-.06-.83h1.18v1.14h0a2.54,2.54,0,0,1,1.1-1,3.3,3.3,0,0,1,1.41-.33,4.06,4.06,0,0,1,.67.06,2.44,2.44,0,0,1,.69.23,2.12,2.12,0,0,1,.62.48,2.48,2.48,0,0,1,.49.78,2.48,2.48,0,0,1,1.06-1.14,3,3,0,0,1,1.5-.41,2.89,2.89,0,0,1,2.21.76,3,3,0,0,1,.71,2.17v4.75H200v-4.37a3,3,0,0,0-.42-1.74,1.73,1.73,0,0,0-1.54-.61,2,2,0,0,0-1,.23,1.93,1.93,0,0,0-.68.62,2.63,2.63,0,0,0-.37.87,4.17,4.17,0,0,0-.12,1v4h-1.09v-4.37a3,3,0,0,0-.42-1.74,1.73,1.73,0,0,0-1.54-.61l-.46.06a1.77,1.77,0,0,0-.74.35,2.76,2.76,0,0,0-.69.87,3.46,3.46,0,0,0-.31,1.6v3.84H189.5Z"/></g><line class="cls-1" x1="205.32" y1="64.54" x2="125.73" y2="64.54"/><line class="cls-1" x1="205.32" y1="63.34" x2="205.32" y2="65.75"/><line class="cls-1" x1="125.73" y1="63.34" x2="125.73" y2="65.75"/><g class="cls-2"><path d="M136.07,49.54a3.67,3.67,0,0,1,.7,1.16,3.78,3.78,0,0,1,.26,1.45,3.85,3.85,0,0,1-.31,1.56,3.75,3.75,0,0,1-.85,1.25,4.07,4.07,0,0,1-1.3.83,4.76,4.76,0,0,1-1.67.29,4.48,4.48,0,0,1-1.46-.22,3.82,3.82,0,0,1-1.15-.61l-1.12,1.09-.53-.5,1.1-1.09a3.7,3.7,0,0,1-.72-1.17,4.17,4.17,0,0,1-.24-1.43,4,4,0,0,1,.3-1.57,3.79,3.79,0,0,1,2.16-2.07,4.49,4.49,0,0,1,1.66-.3,4.44,4.44,0,0,1,1.44.22,4.24,4.24,0,0,1,1.2.61L136.63,48l.54.49Zm-1.3.25a2.85,2.85,0,0,0-1.87-.62,3.17,3.17,0,0,0-1.23.23,2.85,2.85,0,0,0-.91.63,3,3,0,0,0-.58.95,3.2,3.2,0,0,0-.21,1.17,2.89,2.89,0,0,0,.57,1.82ZM131,54.51a2.47,2.47,0,0,0,.83.45,3.05,3.05,0,0,0,1,.16,3.16,3.16,0,0,0,1.22-.23,2.69,2.69,0,0,0,.92-.63,2.88,2.88,0,0,0,.59-.95,3.19,3.19,0,0,0,.21-1.16,3,3,0,0,0-.57-1.83Z"/><path d="M150.72,55.89h-7.48V54.56L147.93,50c.18-.17.35-.35.53-.54a5.34,5.34,0,0,0,.48-.61,3.06,3.06,0,0,0,.35-.67,2.06,2.06,0,0,0,.13-.74,1.84,1.84,0,0,0-.17-.83,1.67,1.67,0,0,0-.49-.62,2.07,2.07,0,0,0-.73-.4,2.84,2.84,0,0,0-.88-.13,2.45,2.45,0,0,0-1.53.48,2.15,2.15,0,0,0-.81,1.29l-1.27-.13a3.16,3.16,0,0,1,1.21-2,3.73,3.73,0,0,1,2.32-.72,5,5,0,0,1,1.35.18,3.52,3.52,0,0,1,1.13.56,2.58,2.58,0,0,1,.78.92,2.72,2.72,0,0,1,.29,1.28,3.29,3.29,0,0,1-.21,1.2,4.81,4.81,0,0,1-.54,1,7.1,7.1,0,0,1-.75.91l-.87.85-3.71,3.53h6.18Z"/><path d="M155.07,49.43h.62a4.07,4.07,0,0,0,1-.12,2.34,2.34,0,0,0,.82-.35,1.82,1.82,0,0,0,.55-.65,2.06,2.06,0,0,0,.21-1,1.8,1.8,0,0,0-.57-1.42,2.33,2.33,0,0,0-1.6-.5,2.58,2.58,0,0,0-1.32.32,2.64,2.64,0,0,0-.93.92l-1-.51a3.37,3.37,0,0,1,1.35-1.35,4,4,0,0,1,1.9-.44,4.34,4.34,0,0,1,1.32.19,3.49,3.49,0,0,1,1.08.57,2.8,2.8,0,0,1,.73.93,2.7,2.7,0,0,1,.28,1.25,2.33,2.33,0,0,1-.16.88,2.71,2.71,0,0,1-.43.76,3,3,0,0,1-.64.58,2.91,2.91,0,0,1-.77.38l0,0a2.46,2.46,0,0,1,.92.36,2.59,2.59,0,0,1,.71.65,2.87,2.87,0,0,1,.47.86,3.33,3.33,0,0,1-.14,2.4,2.8,2.8,0,0,1-.81,1,3.63,3.63,0,0,1-1.2.64,4.82,4.82,0,0,1-1.44.21,4.55,4.55,0,0,1-2.26-.54,3.34,3.34,0,0,1-1.44-1.75l1.26-.36a2.33,2.33,0,0,0,.89,1.2,2.88,2.88,0,0,0,1.65.4,3,3,0,0,0,.95-.16,2.49,2.49,0,0,0,.79-.46,2.2,2.2,0,0,0,.53-.71,2.28,2.28,0,0,0,.19-.91,2,2,0,0,0-.92-1.8,2.8,2.8,0,0,0-.95-.39,5.13,5.13,0,0,0-1.12-.12h-.52Z"/><path d="M164.11,49.43l0,0a2,2,0,0,1,.76-.29,4.65,4.65,0,0,1,.87-.1,3.7,3.7,0,0,1,1.42.27,3.38,3.38,0,0,1,1.14.73,3.26,3.26,0,0,1,.75,1.1,3.45,3.45,0,0,1,.28,1.41,3.6,3.6,0,0,1-.28,1.42,3.29,3.29,0,0,1-.8,1.11,3.67,3.67,0,0,1-1.21.72,4.81,4.81,0,0,1-3.06,0,3.57,3.57,0,0,1-1.21-.72A3.16,3.16,0,0,1,162,54a3.43,3.43,0,0,1-.28-1.42,4.19,4.19,0,0,1,.29-1.65,8.76,8.76,0,0,1,.72-1.39l3.17-5h1.42Zm-1.2,3.15a2.64,2.64,0,0,0,.19,1,2.37,2.37,0,0,0,.54.78,2.44,2.44,0,0,0,.84.5,3.21,3.21,0,0,0,2.12,0,2.39,2.39,0,0,0,.83-.5,2.23,2.23,0,0,0,.54-.78,2.67,2.67,0,0,0,0-2,2.11,2.11,0,0,0-.54-.77,2.76,2.76,0,0,0-.83-.51,3.21,3.21,0,0,0-2.12,0,2.82,2.82,0,0,0-.84.51,2.23,2.23,0,0,0-.54.77A2.64,2.64,0,0,0,162.91,52.58Z"/><path d="M176,50.07c0-.28,0-.56,0-.84l-.06-.83h1.18v1.14h0a2.48,2.48,0,0,1,1.11-1,3.14,3.14,0,0,1,1.4-.34,4.06,4.06,0,0,1,.67.06,2.46,2.46,0,0,1,.69.24,2.26,2.26,0,0,1,.62.47,2.31,2.31,0,0,1,.49.78,2.52,2.52,0,0,1,1.06-1.13,2.94,2.94,0,0,1,1.5-.42,2.87,2.87,0,0,1,2.21.76,3,3,0,0,1,.72,2.17v4.75h-1.1V51.52a3,3,0,0,0-.42-1.74,1.72,1.72,0,0,0-1.54-.61,2.15,2.15,0,0,0-1,.23,1.9,1.9,0,0,0-.67.62,2.53,2.53,0,0,0-.38.87,4.83,4.83,0,0,0-.11,1v4h-1.1V51.52a3,3,0,0,0-.42-1.74,1.72,1.72,0,0,0-1.54-.61l-.46.06a1.8,1.8,0,0,0-.74.36,2.71,2.71,0,0,0-.69.86,3.51,3.51,0,0,0-.3,1.6v3.84H176Z"/><path d="M190.12,50.07c0-.28,0-.56,0-.84L190,48.4h1.18v1.14h0a2.54,2.54,0,0,1,1.11-1,3.17,3.17,0,0,1,1.4-.34,4,4,0,0,1,.67.06,2.46,2.46,0,0,1,.69.24,2.3,2.3,0,0,1,.63.47,2.67,2.67,0,0,1,.49.78,2.44,2.44,0,0,1,1-1.13,3,3,0,0,1,1.51-.42A2.86,2.86,0,0,1,201,49a3,3,0,0,1,.72,2.17v4.75h-1.1V51.52a3.13,3.13,0,0,0-.41-1.74,1.74,1.74,0,0,0-1.55-.61,2.15,2.15,0,0,0-1,.23A2,2,0,0,0,197,50a2.52,2.52,0,0,0-.37.87,4.25,4.25,0,0,0-.12,1v4h-1.1V51.52a3,3,0,0,0-.41-1.74,1.74,1.74,0,0,0-1.55-.61l-.45.06a1.75,1.75,0,0,0-.74.36,2.46,2.46,0,0,0-.69.86,3.37,3.37,0,0,0-.31,1.6v3.84h-1.1Z"/></g><line class="cls-1" x1="216.41" y1="216.9" x2="216.41" y2="73.52"/><line class="cls-1" x1="217.64" y1="216.9" x2="215.19" y2="216.9"/><line class="cls-1" x1="217.64" y1="73.52" x2="215.19" y2="73.52"/><g class="cls-2"><path d="M232.35,157.85v-1.64h1.05v1.64h2.69V159H233.4v4.89h-1.31l-7.33-4.57v-1.47ZM225.91,159v0l6.44,3.91V159Z"/><path d="M236.09,147.64v7.2h-1.33l-4.59-4.51-.54-.52a6.5,6.5,0,0,0-.61-.46,3.2,3.2,0,0,0-.67-.33,2.06,2.06,0,0,0-.74-.13,2,2,0,0,0-.83.16,1.76,1.76,0,0,0-.63.48,2.08,2.08,0,0,0-.39.7,2.65,2.65,0,0,0-.13.85,2.3,2.3,0,0,0,.48,1.47,2.11,2.11,0,0,0,1.29.78l-.13,1.22a3.18,3.18,0,0,1-2-1.16,3.51,3.51,0,0,1-.72-2.23,4.59,4.59,0,0,1,.18-1.3,3.22,3.22,0,0,1,.56-1.09,2.5,2.5,0,0,1,.92-.75,2.72,2.72,0,0,1,1.28-.29,3.29,3.29,0,0,1,1.2.21,4.33,4.33,0,0,1,1,.52,6.85,6.85,0,0,1,.91.72c.29.28.57.55.85.84l3.53,3.57v-6Z"/><path d="M229.63,143.64l0,0a1.89,1.89,0,0,1-.29-.73,4.54,4.54,0,0,1-.1-.84,3.45,3.45,0,0,1,.27-1.37,3.27,3.27,0,0,1,1.83-1.82,3.62,3.62,0,0,1,1.41-.27,3.43,3.43,0,0,1,1.42.28,3.18,3.18,0,0,1,1.11.76,3.49,3.49,0,0,1,.72,1.17,4.13,4.13,0,0,1,.25,1.47,4,4,0,0,1-.25,1.47,3.49,3.49,0,0,1-.72,1.17,3.21,3.21,0,0,1-1.11.77,3.59,3.59,0,0,1-1.42.27,4.39,4.39,0,0,1-1.65-.28,9.45,9.45,0,0,1-1.39-.69l-5-3.06v-1.36Zm3.15,1.15a2.64,2.64,0,0,0,1-.18,2.48,2.48,0,0,0,.78-.52,2.52,2.52,0,0,0,.5-.8,3,3,0,0,0,0-2,2.41,2.41,0,0,0-.5-.8,2.18,2.18,0,0,0-.78-.52,2.64,2.64,0,0,0-1-.19,2.61,2.61,0,0,0-1,.19,2.06,2.06,0,0,0-.77.52,2.44,2.44,0,0,0-.51.8,3,3,0,0,0,0,2,2.55,2.55,0,0,0,.51.8,2.33,2.33,0,0,0,.77.52A2.61,2.61,0,0,0,232.78,144.79Z"/><path d="M230.27,132.22c-.28,0-.56,0-.84,0l-.83.06v-1.14h1.14v0a2.44,2.44,0,0,1-1-1.07,2.94,2.94,0,0,1-.34-1.35,3.83,3.83,0,0,1,.06-.65,2.28,2.28,0,0,1,.24-.66,2.34,2.34,0,0,1,.47-.6,2.45,2.45,0,0,1,.78-.47,2.43,2.43,0,0,1-1.13-1,2.76,2.76,0,0,1-.42-1.45,2.69,2.69,0,0,1,.76-2.12,3.12,3.12,0,0,1,2.17-.69h4.75v1h-4.37a3.2,3.2,0,0,0-1.74.4,1.65,1.65,0,0,0-.61,1.49,2,2,0,0,0,.23,1,1.84,1.84,0,0,0,.62.65,2.42,2.42,0,0,0,.87.36,4.25,4.25,0,0,0,1,.11h4v1.06h-4.37a3.11,3.11,0,0,0-1.74.4,1.64,1.64,0,0,0-.61,1.49,3.61,3.61,0,0,0,.06.44,1.71,1.71,0,0,0,.36.71,2.53,2.53,0,0,0,.86.66,3.51,3.51,0,0,0,1.6.3h3.84v1.06Z"/><path d="M230.27,118.58q-.42,0-.84,0l-.83,0v-1.13h1.14v0a2.49,2.49,0,0,1-1-1.07,2.94,2.94,0,0,1-.34-1.35,3.83,3.83,0,0,1,.06-.65,2.28,2.28,0,0,1,.24-.66,2,2,0,0,1,.47-.6,2.28,2.28,0,0,1,.78-.47,2.48,2.48,0,0,1-1.13-1,2.76,2.76,0,0,1-.42-1.45,2.73,2.73,0,0,1,.76-2.13,3.17,3.17,0,0,1,2.17-.68h4.75v1h-4.37a3.11,3.11,0,0,0-1.74.4,1.64,1.64,0,0,0-.61,1.49,2,2,0,0,0,.23,1,1.93,1.93,0,0,0,.62.65,2.62,2.62,0,0,0,.87.36,4.83,4.83,0,0,0,1,.11h4v1.06h-4.37a3.11,3.11,0,0,0-1.74.4,1.63,1.63,0,0,0-.61,1.49,3.61,3.61,0,0,0,.06.44,1.77,1.77,0,0,0,.36.71,2.67,2.67,0,0,0,.86.66,3.51,3.51,0,0,0,1.6.3h3.84v1Z"/></g><g class="cls-2"><path d="M108,130v1.16H98.14l1.79,2-.86.72L96.7,131v-1Z"/><path d="M102,123.66a2.41,2.41,0,0,1-.38.68,2.7,2.7,0,0,1-.58.54,3.6,3.6,0,0,1-.74.35,2.9,2.9,0,0,1-2.06-.13,2.79,2.79,0,0,1-.93-.69,2.83,2.83,0,0,1-.59-1,3.5,3.5,0,0,1-.21-1.21,3.56,3.56,0,0,1,.21-1.22,2.85,2.85,0,0,1,1.52-1.69,2.77,2.77,0,0,1,1.23-.26,2.62,2.62,0,0,1,.83.13,2.79,2.79,0,0,1,.74.35,2.7,2.7,0,0,1,.58.54,2.16,2.16,0,0,1,.38.68h0a2.69,2.69,0,0,1,1-1.54,3.26,3.26,0,0,1,1.92-.58,2.89,2.89,0,0,1,1.33.3,3.42,3.42,0,0,1,1,.78,3.56,3.56,0,0,1,.65,1.14,4.42,4.42,0,0,1,.22,1.37,4.47,4.47,0,0,1-.22,1.37,3.41,3.41,0,0,1-.65,1.13,3.29,3.29,0,0,1-1,.79,3,3,0,0,1-1.33.29,3.25,3.25,0,0,1-1.92-.57,2.72,2.72,0,0,1-1-1.54Zm-2.44-3.49a2.15,2.15,0,0,0-.8.15,2,2,0,0,0-.63.43,2,2,0,0,0-.41.64,1.91,1.91,0,0,0-.16.8,1.94,1.94,0,0,0,.16.8,2.13,2.13,0,0,0,.41.64,1.93,1.93,0,0,0,.63.42,2.15,2.15,0,0,0,.8.15,2.07,2.07,0,0,0,.8-.15,1.87,1.87,0,0,0,.64-.42,2.06,2.06,0,0,0,.56-1.44,2.07,2.07,0,0,0-.15-.8,2,2,0,0,0-.41-.64,1.9,1.9,0,0,0-.64-.43A2.07,2.07,0,0,0,99.56,120.17Zm5.28-.41a2.35,2.35,0,0,0-.92.17,2.29,2.29,0,0,0-.73.49,2.16,2.16,0,0,0-.49.77,2.66,2.66,0,0,0-.18,1,2.71,2.71,0,0,0,.18,1,2.31,2.31,0,0,0,.49.76,2.26,2.26,0,0,0,.73.48,2.36,2.36,0,0,0,.92.18,2.32,2.32,0,0,0,.92-.18,2.2,2.2,0,0,0,.74-.48,2.31,2.31,0,0,0,.49-.76,2.93,2.93,0,0,0,.17-1,2.87,2.87,0,0,0-.17-1,2.16,2.16,0,0,0-.49-.77,2.22,2.22,0,0,0-.74-.49A2.32,2.32,0,0,0,104.84,119.76Z"/><path d="M102,114.76a2.16,2.16,0,0,1-.38.68,2.7,2.7,0,0,1-.58.54,2.79,2.79,0,0,1-.74.35,2.62,2.62,0,0,1-.83.13,2.85,2.85,0,0,1-2.75-1.95,3.56,3.56,0,0,1-.21-1.22,3.46,3.46,0,0,1,.21-1.21,2.83,2.83,0,0,1,.59-1,2.79,2.79,0,0,1,.93-.69,2.9,2.9,0,0,1,2.06-.13,3.14,3.14,0,0,1,.74.35,2.7,2.7,0,0,1,.58.54,2.28,2.28,0,0,1,.38.68h0a2.72,2.72,0,0,1,1-1.54,3.25,3.25,0,0,1,1.92-.57,3,3,0,0,1,1.33.29,3.29,3.29,0,0,1,1,.79,3.41,3.41,0,0,1,.65,1.13,4.47,4.47,0,0,1,.22,1.37,4.42,4.42,0,0,1-.22,1.37,3.56,3.56,0,0,1-.65,1.14,3.42,3.42,0,0,1-1,.78,2.89,2.89,0,0,1-1.33.3,3.26,3.26,0,0,1-1.92-.58,2.69,2.69,0,0,1-1-1.54Zm-2.44-3.48a2.15,2.15,0,0,0-.8.15,1.93,1.93,0,0,0-.63.42,2.13,2.13,0,0,0-.41.64,1.94,1.94,0,0,0-.16.8,1.91,1.91,0,0,0,.16.8,2,2,0,0,0,.41.64,1.92,1.92,0,0,0,1.43.58,2,2,0,0,0,1.44-.58,2,2,0,0,0,.41-.64,2.07,2.07,0,0,0,.15-.8,2.06,2.06,0,0,0-.56-1.44,1.87,1.87,0,0,0-.64-.42A2.07,2.07,0,0,0,99.56,111.28Zm5.28-.42a2.36,2.36,0,0,0-.92.18,2.13,2.13,0,0,0-1.22,1.25,2.9,2.9,0,0,0,0,2,2.21,2.21,0,0,0,.49.76,2.29,2.29,0,0,0,.73.49,2.55,2.55,0,0,0,.92.17,2.51,2.51,0,0,0,.92-.17A2.18,2.18,0,0,0,107,114.3a3.06,3.06,0,0,0,0-2,2.26,2.26,0,0,0-.49-.77,2.2,2.2,0,0,0-.74-.48A2.32,2.32,0,0,0,104.84,110.86Z"/><path d="M102.2,103.24l-.83,0-.83,0v-1.13h1.14v0a2.58,2.58,0,0,1-1-1.07,3.05,3.05,0,0,1-.33-1.35,3.83,3.83,0,0,1,.06-.65,2.25,2.25,0,0,1,.23-.66,1.93,1.93,0,0,1,.48-.6,2.28,2.28,0,0,1,.78-.47,2.56,2.56,0,0,1-1.14-1,2.85,2.85,0,0,1-.41-1.45,2.73,2.73,0,0,1,.76-2.13,3.15,3.15,0,0,1,2.17-.68H108v1h-4.37a3.2,3.2,0,0,0-1.74.4,1.64,1.64,0,0,0-.61,1.49,1.89,1.89,0,0,0,.23,1,1.84,1.84,0,0,0,.62.65A2.62,2.62,0,0,0,103,97a4.74,4.74,0,0,0,1,.11h4v1.06h-4.37a3.11,3.11,0,0,0-1.74.4,1.63,1.63,0,0,0-.61,1.49,3.61,3.61,0,0,0,.06.44,1.67,1.67,0,0,0,.35.71,2.72,2.72,0,0,0,.87.66,3.48,3.48,0,0,0,1.6.3H108v1Z"/><path d="M102.2,89.61l-.83,0-.83,0V88.56h1.14v0a2.5,2.5,0,0,1-1-1.06,3.05,3.05,0,0,1-.33-1.35,3.83,3.83,0,0,1,.06-.65,2.25,2.25,0,0,1,.23-.66,1.93,1.93,0,0,1,.48-.6,2.47,2.47,0,0,1,.78-.48,2.48,2.48,0,0,1-1.14-1,2.87,2.87,0,0,1-.41-1.45,2.73,2.73,0,0,1,.76-2.13,3.11,3.11,0,0,1,2.17-.69H108V79.5h-4.37a3.11,3.11,0,0,0-1.74.4,1.64,1.64,0,0,0-.61,1.49,1.91,1.91,0,0,0,.23,1,1.84,1.84,0,0,0,.62.65,2.84,2.84,0,0,0,.87.36,4.74,4.74,0,0,0,1,.11h4v1.06h-4.37a3.11,3.11,0,0,0-1.74.4,1.62,1.62,0,0,0-.61,1.48,3.37,3.37,0,0,0,.06.44,1.71,1.71,0,0,0,.35.72,2.72,2.72,0,0,0,.87.66,3.48,3.48,0,0,0,1.6.3H108v1Z"/></g><line class="cls-1" x1="116.47" y1="136.97" x2="116.47" y2="74.03"/><line class="cls-1" x1="117.91" y1="136.97" x2="115.02" y2="136.97"/><line class="cls-1" x1="117.91" y1="74.03" x2="115.02" y2="74.03"/><rect class="cls-3" x="139.43" y="213.21" width="53.65" height="4.03"/><polyline class="cls-3" points="126.36 212.53 126.36 207.47 124.97 207.53"/><polyline class="cls-3" points="124.97 207.53 124.9 207.52 124.84 207.51 124.78 207.48 124.73 207.45 124.69 207.4 124.66 207.34 124.63 207.29 124.62 207.22"/><line class="cls-3" x1="124.62" y1="207.22" x2="123.55" y2="194.27"/><polyline class="cls-3" points="123.55 194.27 123.55 194.22 123.55 194.15 123.58 194.1 123.61 194.05 123.65 194 123.7 193.97 123.75 193.94 123.81 193.93 123.87 193.92"/><polyline class="cls-3" points="123.87 193.92 125.57 193.92 128.64 194.25"/><polyline class="cls-3" points="128.64 194.25 130.55 194.28 132.43 193.95"/><line class="cls-3" x1="132.43" y1="193.95" x2="141.82" y2="191.41"/><polyline class="cls-3" points="141.82 191.41 142.55 191.13 143.22 190.72 143.79 190.19 144.25 189.57 144.59 188.86 144.78 188.11"/><line class="cls-3" x1="144.78" y1="188.11" x2="144.89" y2="187.47"/><polyline class="cls-3" points="144.89 187.47 144.11 184.69 143.78 181.83 143.92 178.95 144.51 176.13"/><line class="cls-3" x1="144.51" y1="176.13" x2="145.77" y2="172.56"/><polyline class="cls-3" points="145.78 172.56 145.79 172.52 145.82 172.49 145.85 172.46 145.89 172.44 145.93 172.43 145.97 172.42"/><line class="cls-3" x1="145.97" y1="172.42" x2="148.87" y2="172.38"/><polyline class="cls-3" points="148.87 172.38 150.12 172.25 151.31 171.91 152.42 171.35 153.43 170.61 154.28 169.7 154.95 168.65 155.43 167.5"/><polyline class="cls-3" points="155.43 167.51 155.68 166.27 155.76 165.41 155.76 149.42"/><polyline class="cls-3" points="155.75 149.42 155.76 149.33 155.78 149.25 155.82 149.17 155.88 149.09 155.94 149.03 156.01 148.98 156.1 148.94 156.18 148.92 156.27 148.91"/><polyline class="cls-3" points="156.27 148.91 156.36 148.9 156.45 148.88 156.53 148.84 156.61 148.79 156.67 148.73 156.72 148.66 156.76 148.57 156.78 148.49 156.79 148.4"/><line class="cls-3" x1="156.79" y1="148.4" x2="156.79" y2="144.02"/><polyline class="cls-3" points="156.79 144.02 156.8 143.92 156.83 143.82 156.86 143.73 156.93 143.65 156.99 143.58 157.08 143.52 157.17 143.47 157.26 143.45 157.36 143.44"/><polyline class="cls-3" points="157.36 143.44 163.77 143.44 163.77 140.96 163.95 140.96 163.95 137.25 168.58 137.25 168.58 140.96 168.77 140.96 168.77 143.36 168.85 143.45 169.03 143.5 169.13 143.5"/><polyline class="cls-3" points="169.13 143.5 169.2 143.5 169.26 143.52 169.33 143.55"/><polyline class="cls-3" points="169.33 143.55 169.75 144.01 170.11 144.84 170.32 146.34 170.3 146.56"/><polyline class="cls-3" points="170.3 146.56 170.29 146.6 170.27 146.64 170.25 146.68 170.22 146.71 170.19 146.74 170.15 146.75 170.11 146.77"/><line class="cls-3" x1="170.11" y1="146.77" x2="169.89" y2="146.77"/><polyline class="cls-3" points="169.89 146.77 169.83 146.78 169.79 146.79 169.74 146.81 169.7 146.84 169.66 146.87 169.63 146.91"/><polyline class="cls-3" points="169.63 146.91 169.6 147.06 169.55 147.25 169.41 147.38 169.23 147.43 169 147.43 168.85 147.47 168.75 147.57 168.7 147.73 168.7 181.31 168.75 181.47 168.87 181.6 169.04 181.65"/><polyline class="cls-3" points="169.04 181.65 169.08 181.64 169.12 181.65"/><line class="cls-3" x1="169.12" y1="181.65" x2="169.24" y2="181.68"/><polyline class="cls-3" points="169.24 181.68 169.26 181.69 169.28 181.71 169.3 181.73 169.31 181.74 169.32 181.77"/><line class="cls-3" x1="169.32" y1="181.77" x2="169.36" y2="181.89"/><line class="cls-3" x1="169.36" y1="181.89" x2="169.36" y2="197.68"/><polyline class="cls-3" points="169.36 197.68 169.37 197.76 169.39 197.84 169.43 197.92 169.48 197.99 169.54 198.04 169.61 198.09"/><line class="cls-3" x1="169.61" y1="198.08" x2="170.29" y2="198.43"/><polyline class="cls-3" points="170.3 198.43 170.36 198.47 170.42 198.52 170.46 198.58 170.5 198.65 170.52 198.73 170.53 198.8"/><line class="cls-3" x1="170.53" y1="198.8" x2="170.53" y2="199.38"/><polyline class="cls-3" points="170.53 199.38 170.52 199.46 170.5 199.53 170.46 199.6 170.41 199.66 170.36 199.71 170.29 199.75"/><polyline class="cls-3" points="170.29 199.75 169.64 200.03 169.49 200.14 169.39 200.29 169.36 200.47 169.36 202.7 169.34 202.86 169.29 203.02 169.2 203.16 168.45 204.14 168.36 204.28 168.31 204.42 168.3 204.59 168.28 204.76 168.25 204.93 168.19 205.1 167.99 205.54 167.82 206.21 167.86 206.89 168.11 207.54 168.28 207.98"/><polyline class="cls-3" points="168.28 207.98 168.28 208.23 168.23 208.47 168.14 208.7 168.01 208.9 167.84 209.09 167.65 209.23 167.42 209.34 167.19 209.4 166.94 209.42 166.7 209.39 166.46 209.32"/><polyline class="cls-3" points="166.46 209.32 163.97 208.07 163.8 208.02 163.62 208.01 163.45 208.04 160.28 209.22 159.74 209.56 159.39 210.06 159.26 210.69 159.27 212.95"/><polyline class="cls-3" points="159.27 212.95 159.26 213.01 159.25 213.07 159.23 213.12 159.19 213.18 159.14 213.22 159.1 213.25 159.04 213.28 158.98 213.3 158.92 213.3"/><line class="cls-3" x1="158.92" y1="213.3" x2="154.75" y2="213.3"/><polyline class="cls-3" points="154.75 213.3 154.69 213.29 154.63 213.28 154.57 213.25 154.52 213.22 154.48 213.17 154.45 213.12 154.42 213.07 154.4 213.01 154.4 212.95"/><polyline class="cls-3" points="154.4 212.95 154.4 211.71 154.16 209.99 153.31 208.09 151.59 207.04 149.33 207.04 134.45 212.23 132.79 212.71 131.09 213 129.37 213.1 128.24 213.1 126.64 212.86"/><polyline class="cls-3" points="126.64 212.86 126.59 212.84 126.53 212.82 126.48 212.79 126.44 212.75 126.4 212.7 126.38 212.65 126.37 212.59 126.36 212.53"/><line class="cls-3" x1="126.36" y1="212.53" x2="126.36" y2="212.53"/><polyline class="cls-3" points="146.25 175.3 146.67 174.75 147.17 174.28 147.75 173.91 148.38 173.63 149.06 173.48 149.75 173.43"/><polyline class="cls-3" points="149.75 173.43 150.57 173.52 151.37 173.73 152.13 174.06 152.84 174.5"/><polyline class="cls-3" points="152.84 174.5 153.44 175.04 153.92 175.68 154.29 176.4 154.53 177.18"/><line class="cls-3" x1="154.53" y1="177.17" x2="154.65" y2="178.29"/><polyline class="cls-3" points="154.65 178.29 154.65 181.2 153.19 181.67"/><polyline class="cls-3" points="153.19 181.67 152.1 181.71 151.02 181.62"/><polyline class="cls-3" points="151.02 181.62 150.4 181.48 149.81 181.26 149.25 180.94"/><line class="cls-3" x1="149.25" y1="180.94" x2="147.73" y2="179.74"/><polyline class="cls-3" points="147.73 179.74 147.32 179.29 146.98 178.78 146.74 178.21"/><polyline class="cls-3" points="146.74 178.21 146.46 177.17 146.3 176.12"/><line class="cls-3" x1="146.3" y1="176.11" x2="146.25" y2="175.3"/><polyline class="cls-3" points="153.3 183.61 154.56 184.58 154.55 184.89 153.66 186.92 151.99 188.33 149.8 188.86 149.7 188.86 147.01 188.08 146.24 187.13 145.72 186.15 145.33 185.09 145.08 184.01 144.89 182.44 144.84 181.63 144.88 179.99 144.95 179.17 145.07 178.34"/><polyline class="cls-3" points="145.07 178.34 145.09 178.3 145.11 178.25 145.13 178.22 145.16 178.19 145.2 178.16 145.25 178.14 145.29 178.13 145.33 178.13 145.38 178.14 145.42 178.16 145.46 178.18 145.5 178.21 145.53 178.24 145.55 178.28"/><polyline class="cls-3" points="145.55 178.28 145.82 178.86 146.15 179.41"/><line class="cls-3" x1="146.15" y1="179.4" x2="146.71" y2="180.34"/><polyline class="cls-3" points="146.7 180.34 146.88 180.65 147.11 180.93 147.37 181.17"/><line class="cls-3" x1="147.38" y1="181.17" x2="148.15" y2="181.89"/><polyline class="cls-3" points="148.15 181.9 148.41 182.14 148.71 182.34 149.02 182.5"/><line class="cls-3" x1="149.03" y1="182.5" x2="149.97" y2="182.97"/><polyline class="cls-3" points="149.97 182.97 150.3 183.13 150.64 183.24 151 183.31"/><line class="cls-3" x1="150.99" y1="183.3" x2="152.07" y2="183.49"/><polyline class="cls-3" points="152.06 183.49 152.68 183.59 153.3 183.61"/><polyline class="cls-3" points="192.5 74.03 140.03 74.03 126.58 137.25 205.95 137.25 192.5 74.03"/></svg>