<?xml version="1.0" encoding="utf-8"?>
<!-- Generator: Adobe Illustrator 22.1.0, SVG Export Plug-In . SVG Version: 6.00 Build 0)  -->
<svg version="1.1" id="Bellhop_T" xmlns="http://www.w3.org/2000/svg" xmlns:xlink="http://www.w3.org/1999/xlink" x="0px" y="0px"
	 viewBox="0 0 300 263" style="enable-background:new 0 0 300 263;" xml:space="preserve">
<style type="text/css">
	.st0{fill:none;stroke:#000000;stroke-width:0.5;}
	.st1{fill:none;stroke:#000000;stroke-width:0.5;stroke-linecap:round;stroke-linejoin:round;}
	.st2{fill:none;stroke:#181716;stroke-width:0.5;}
</style>
<title>bellhop-table-barber-osgerby-flos-F10600-spech-tech-01-300x263-01</title>
<line class="st0" x1="99" y1="216.7" x2="99" y2="74"/>
<line class="st0" x1="97.3" y1="216.7" x2="100.7" y2="216.7"/>
<line class="st0" x1="97.3" y1="74" x2="100.7" y2="74"/>
<g>
	<path d="M89.6,153.1v7.2h-1.3l-4.6-4.5l-0.5-0.5c-0.2-0.2-0.4-0.3-0.6-0.5c-0.2-0.1-0.4-0.2-0.7-0.3c-0.2-0.1-0.5-0.1-0.7-0.1
		c-0.3,0-0.6,0.1-0.8,0.2c-0.2,0.1-0.5,0.3-0.6,0.5c-0.2,0.2-0.3,0.4-0.4,0.7c-0.1,0.3-0.1,0.6-0.1,0.9c0,0.5,0.2,1.1,0.5,1.5
		c0.3,0.4,0.8,0.7,1.3,0.8l-0.1,1.2c-0.8-0.1-1.5-0.5-2-1.2c-0.5-0.6-0.7-1.4-0.7-2.2c0-0.4,0.1-0.9,0.2-1.3
		c0.1-0.4,0.3-0.8,0.6-1.1c0.2-0.3,0.6-0.6,0.9-0.8c0.4-0.2,0.9-0.3,1.3-0.3c0.4,0,0.8,0.1,1.2,0.2c0.4,0.1,0.7,0.3,1,0.5
		c0.3,0.2,0.6,0.5,0.9,0.7l0.8,0.8l3.5,3.6v-6L89.6,153.1z"/>
	<path d="M89.6,146.6v1.2h-9.9l1.8,2l-0.9,0.7l-2.4-2.9v-1H89.6z"/>
	<path d="M78,138.8c0-0.7,0.2-1.4,0.6-2c0.4-0.5,0.9-0.9,1.4-1.1c0.6-0.3,1.2-0.5,1.9-0.6c0.7-0.1,1.3-0.1,2-0.1c0.7,0,1.3,0,2,0.1
		c0.7,0.1,1.3,0.3,1.9,0.6c0.6,0.3,1.1,0.7,1.4,1.2c0.8,1.2,0.8,2.7,0,3.9c-0.4,0.5-0.9,0.9-1.4,1.2c-0.6,0.3-1.2,0.5-1.9,0.6
		c-0.7,0.1-1.3,0.1-2,0.1c-0.7,0-1.3-0.1-2-0.1c-0.6-0.1-1.3-0.3-1.9-0.6c-0.6-0.3-1.1-0.7-1.4-1.2C78.2,140.3,78,139.5,78,138.8z
		 M79.1,138.8c0,0.5,0.1,1.1,0.5,1.5c0.3,0.4,0.8,0.6,1.2,0.8c0.5,0.2,1,0.3,1.6,0.3c0.6,0.1,1.1,0.1,1.5,0.1s1,0,1.5-0.1
		c0.6,0,1.1-0.1,1.6-0.3c0.5-0.2,0.9-0.4,1.2-0.8c0.4-0.4,0.5-0.9,0.5-1.5c0-0.5-0.2-1.1-0.5-1.5c-0.3-0.4-0.8-0.6-1.2-0.8
		c-0.5-0.2-1-0.3-1.6-0.4c-0.6-0.1-1-0.1-1.5-0.1s-1,0-1.5,0.1c-0.5,0-1.1,0.2-1.6,0.4c-0.5,0.2-0.9,0.4-1.2,0.8
		C79.3,137.8,79.1,138.3,79.1,138.8L79.1,138.8z"/>
	<path d="M83.7,128.8h-0.8l-0.8,0.1v-1.1h1.1l0,0c-0.4-0.2-0.8-0.6-1-1.1c-0.2-0.4-0.3-0.9-0.3-1.3c0-0.2,0-0.4,0.1-0.7
		c0-0.2,0.1-0.5,0.2-0.7c0.1-0.2,0.3-0.4,0.5-0.6c0.2-0.2,0.5-0.4,0.8-0.5c-0.5-0.2-0.9-0.6-1.1-1c-0.7-1.1-0.5-2.6,0.3-3.6
		c0.6-0.5,1.4-0.7,2.2-0.7h4.8v1.1h-4.4c-0.6,0-1.2,0.1-1.7,0.4c-0.4,0.4-0.7,0.9-0.6,1.5c0,0.3,0.1,0.7,0.2,1
		c0.2,0.3,0.4,0.5,0.6,0.7c0.3,0.2,0.6,0.3,0.9,0.4c0.3,0.1,0.7,0.1,1,0.1h4v1h-4.4c-0.6,0-1.2,0.1-1.7,0.4
		c-0.4,0.4-0.7,0.9-0.6,1.5c0,0.1,0,0.3,0.1,0.4c0.1,0.3,0.2,0.5,0.3,0.7c0.2,0.3,0.5,0.5,0.9,0.7c0.5,0.2,1.1,0.3,1.6,0.3h3.8v1.1
		L83.7,128.8z"/>
	<path d="M83.7,115.2h-0.8l-0.8,0.1v-1.1h1.1l0,0c-0.4-0.2-0.8-0.6-1-1.1c-0.3-0.6-0.4-1.3-0.3-2c0-0.2,0.1-0.5,0.2-0.7
		c0.1-0.2,0.3-0.4,0.5-0.6c0.2-0.2,0.5-0.4,0.8-0.5c-0.5-0.2-0.9-0.6-1.1-1c-0.3-0.4-0.4-0.9-0.4-1.4c-0.1-0.8,0.2-1.6,0.8-2.1
		c0.6-0.5,1.4-0.8,2.2-0.7h4.8v1h-4.4c-0.6,0-1.2,0.1-1.7,0.4c-0.4,0.4-0.7,0.9-0.6,1.5c0,0.3,0.1,0.7,0.2,1
		c0.2,0.3,0.4,0.5,0.6,0.6c0.3,0.2,0.6,0.3,0.9,0.4c0.3,0.1,0.7,0.1,1,0.1h4v1h-4.4c-0.6,0-1.2,0.1-1.7,0.4
		c-0.4,0.4-0.7,0.9-0.6,1.5c0,0.1,0,0.3,0.1,0.4c0.1,0.3,0.2,0.5,0.3,0.7c0.2,0.3,0.5,0.5,0.9,0.7c0.5,0.2,1.1,0.3,1.6,0.3h3.8v1.1
		L83.7,115.2z"/>
</g>
<line class="st0" x1="110.9" y1="64.2" x2="190.6" y2="64.2"/>
<line class="st0" x1="110.9" y1="62.5" x2="110.9" y2="65.9"/>
<line class="st0" x1="190.6" y1="62.5" x2="190.6" y2="65.9"/>
<g>
	<path d="M121.3,48.5c0.3,0.3,0.5,0.7,0.7,1.2c0.2,0.5,0.3,1,0.3,1.5c0,0.5-0.1,1.1-0.3,1.6c-0.2,0.5-0.5,0.9-0.8,1.2
		c-0.4,0.4-0.8,0.6-1.3,0.8c-0.5,0.2-1.1,0.3-1.7,0.3c-0.5,0-1-0.1-1.4-0.2c-0.4-0.1-0.8-0.3-1.2-0.6l-1.1,1.1l-0.5-0.5l1.1-1.1
		c-0.3-0.3-0.6-0.7-0.7-1.2c-0.2-0.5-0.3-0.9-0.2-1.4c0-0.5,0.1-1.1,0.3-1.6c0.4-1,1.2-1.7,2.2-2.1c1-0.4,2.1-0.4,3.1-0.1
		c0.4,0.1,0.8,0.3,1.2,0.6l1.1-1.1l0.5,0.5L121.3,48.5z M120,48.7c-0.5-0.4-1.2-0.7-1.9-0.6c-0.4,0-0.8,0.1-1.2,0.2
		c-0.3,0.1-0.7,0.4-0.9,0.6c-0.3,0.3-0.5,0.6-0.6,1c-0.1,0.4-0.2,0.8-0.2,1.2c0,0.7,0.2,1.3,0.6,1.8L120,48.7z M116.3,53.4
		c0.2,0.2,0.5,0.4,0.8,0.5c0.3,0.1,0.7,0.2,1,0.2c0.4,0,0.8-0.1,1.2-0.2c0.3-0.1,0.7-0.4,0.9-0.6c0.3-0.3,0.5-0.6,0.6-1
		c0.1-0.4,0.2-0.8,0.2-1.2c0-0.7-0.2-1.3-0.6-1.8L116.3,53.4z"/>
	<path d="M133.5,54.8h-1.2v-9.9l-2.1,1.8l-0.8-0.9l3-2.4h1.1L133.5,54.8z"/>
	<path d="M145.2,54.8h-7.5v-1.3l4.7-4.6c0.2-0.2,0.4-0.4,0.5-0.5c0.2-0.2,0.3-0.4,0.5-0.6c0.1-0.2,0.3-0.4,0.4-0.7
		c0.1-0.2,0.1-0.5,0.1-0.7c0-0.3-0.1-0.6-0.2-0.8c-0.1-0.2-0.3-0.5-0.5-0.6c-0.2-0.2-0.5-0.3-0.7-0.4c-0.3-0.1-0.6-0.1-0.9-0.1
		c-0.5,0-1.1,0.2-1.5,0.5c-0.4,0.3-0.7,0.8-0.8,1.3L138,46c0.1-0.8,0.6-1.5,1.2-2c0.7-0.5,1.5-0.7,2.3-0.7c0.5,0,0.9,0.1,1.4,0.2
		c0.4,0.1,0.8,0.3,1.1,0.5c0.3,0.2,0.6,0.6,0.8,0.9c0.2,0.4,0.3,0.8,0.3,1.3c0,0.4-0.1,0.8-0.2,1.2c-0.1,0.4-0.3,0.7-0.5,1
		c-0.2,0.3-0.5,0.6-0.8,0.9c-0.3,0.3-0.6,0.6-0.9,0.8l-3.7,3.6h6.2L145.2,54.8z"/>
	<path d="M153.9,44.5h-4.8l-0.1,3.4c0.3-0.1,0.5-0.2,0.8-0.2c0.3,0,0.5-0.1,0.8-0.1c0.5,0,1,0.1,1.5,0.3c0.4,0.2,0.8,0.4,1.2,0.8
		c0.3,0.3,0.6,0.7,0.8,1.2c0.4,0.9,0.4,2,0,2.9c-0.2,0.4-0.5,0.8-0.8,1.2c-0.4,0.3-0.8,0.6-1.3,0.8c-0.5,0.2-1,0.3-1.6,0.3
		c-0.7,0-1.4-0.2-2-0.5c-0.6-0.3-1.1-0.9-1.4-1.5l1.2-0.5c0.2,0.4,0.5,0.8,0.9,1.1c0.4,0.3,0.9,0.4,1.4,0.4c0.3,0,0.7-0.1,1-0.2
		c0.3-0.1,0.6-0.3,0.8-0.5c0.2-0.2,0.4-0.5,0.6-0.8c0.1-0.3,0.2-0.7,0.2-1c0-0.4-0.1-0.7-0.2-1.1c-0.1-0.3-0.3-0.6-0.6-0.9
		c-0.3-0.2-0.6-0.4-0.9-0.5c-0.4-0.1-0.8-0.2-1.2-0.2c-0.4,0-0.8,0.1-1.2,0.2c-0.4,0.1-0.8,0.3-1.2,0.5l0.1-5.9h6L153.9,44.5z"/>
	<path d="M161.2,49c0-0.3,0-0.6,0-0.8c0-0.3,0-0.5-0.1-0.8h1.2v1.1l0,0c0.3-0.4,0.6-0.8,1.1-1c0.4-0.2,0.9-0.3,1.4-0.3
		c0.2,0,0.4,0,0.7,0.1c0.2,0,0.5,0.1,0.7,0.2c0.2,0.1,0.4,0.3,0.6,0.5c0.2,0.2,0.4,0.5,0.5,0.8c0.2-0.5,0.6-0.9,1.1-1.1
		c0.5-0.3,1-0.4,1.5-0.4c0.8-0.1,1.6,0.2,2.2,0.8c0.5,0.6,0.8,1.4,0.7,2.2v4.7h-1.1v-4.4c0-0.6-0.1-1.2-0.4-1.7
		c-0.4-0.5-1-0.7-1.5-0.6c-0.3,0-0.7,0.1-1,0.2c-0.3,0.2-0.5,0.4-0.7,0.6c-0.2,0.3-0.3,0.6-0.4,0.9c-0.1,0.3-0.1,0.7-0.1,1v4h-1.1
		v-4.4c0-0.6-0.1-1.2-0.4-1.7c-0.4-0.5-1-0.7-1.5-0.6l-0.5,0.1c-0.3,0.1-0.5,0.2-0.7,0.4c-0.3,0.2-0.5,0.5-0.7,0.9
		c-0.2,0.5-0.3,1.1-0.3,1.6v3.8h-1.1L161.2,49z"/>
	<path d="M175.4,49c0-0.3,0-0.6,0-0.8l-0.1-0.8h1.2v1.1l0,0c0.3-0.4,0.6-0.8,1.1-1c0.4-0.2,0.9-0.3,1.4-0.3c0.2,0,0.4,0,0.7,0.1
		c0.5,0.1,1,0.3,1.3,0.7c0.2,0.2,0.4,0.5,0.5,0.8c0.2-0.5,0.6-0.9,1-1.1c0.5-0.3,1-0.4,1.5-0.4c0.8-0.1,1.6,0.2,2.2,0.8
		c0.5,0.6,0.8,1.4,0.7,2.2v4.7h-1.1v-4.4c0-0.6-0.1-1.2-0.4-1.7c-0.4-0.5-1-0.7-1.6-0.6c-0.3,0-0.7,0.1-1,0.2
		c-0.3,0.1-0.5,0.4-0.7,0.6c-0.2,0.3-0.3,0.6-0.4,0.9c-0.1,0.3-0.1,0.7-0.1,1v4h-1.1v-4.4c0-0.6-0.1-1.2-0.4-1.7
		c-0.4-0.5-1-0.7-1.6-0.6l-0.4,0.1c-0.3,0.1-0.5,0.2-0.7,0.4c-0.3,0.2-0.5,0.5-0.7,0.9c-0.2,0.5-0.3,1-0.3,1.6v3.8h-1.1L175.4,49z"
		/>
</g>
<path class="st1" d="M190.6,120.4L190.6,120.4h-81.6"/>
<path class="st1" d="M190.6,121.5L190.6,121.5h-81.6"/>
<path class="st1" d="M169.1,213.9l-13.7-0.4l-24.2,0.4"/>
<path class="st1" d="M190.9,121.5v-22c-0.4-9.4-5-17.2-13.6-21.4c-2.3-1-4.8-1.8-7.4-2.1l-0.3-0.1c-6.6-0.8-13.3-1.2-19.9-1.2"/>
<path class="st1" d="M150.3,74.8c-6.7,0-13.3,0.4-19.9,1.2l-0.3,0.1c-2.5,0.4-5,1.1-7.4,2.1c-8.7,4.1-13.2,11.9-13.6,21.3v22"/>
<line class="st2" x1="131.1" y1="121.6" x2="131.1" y2="213.9"/>
<line class="st2" x1="169.1" y1="121.6" x2="169.1" y2="213.5"/>
</svg>
