<svg id="Biagio" xmlns="http://www.w3.org/2000/svg" viewBox="0 0 300 263"><defs><style>.cls-1,.cls-3,.cls-4{fill:none;stroke-width:0.5px;}.cls-1{stroke:#000;}.cls-2{isolation:isolate;}.cls-3,.cls-4{stroke:#1d1d1b;}.cls-4{stroke-linecap:round;stroke-linejoin:round;}</style></defs><title>biagio-table-scarpa-flos-F0700000-spech-tech-02-300x263</title><line class="cls-1" x1="143.25" y1="228.1" x2="197.31" y2="228.1"/><line class="cls-1" x1="143.25" y1="226.71" x2="143.25" y2="229.49"/><line class="cls-1" x1="197.31" y1="226.71" x2="197.31" y2="229.49"/><line class="cls-1" x1="61.67" y1="217.65" x2="61.67" y2="73.76"/><line class="cls-1" x1="59.97" y1="217.65" x2="63.37" y2="217.65"/><line class="cls-1" x1="59.97" y1="73.76" x2="63.37" y2="73.76"/><g class="cls-2"><path d="M145.74,248h-1.19v-9.89l-2.11,1.79-.75-.86,3-2.37h1.06Z"/><path d="M152.59,241.48h.61a4,4,0,0,0,1-.11A2.11,2.11,0,0,0,155,241a1.69,1.69,0,0,0,.56-.65,2,2,0,0,0,.21-1,1.78,1.78,0,0,0-.57-1.41,2.36,2.36,0,0,0-1.61-.51,2.65,2.65,0,0,0-1.31.32,2.59,2.59,0,0,0-.93.93l-1.05-.51a3.45,3.45,0,0,1,1.36-1.35,4,4,0,0,1,1.9-.44,4.32,4.32,0,0,1,1.31.19,3.28,3.28,0,0,1,1.08.57,2.7,2.7,0,0,1,.74.93,2.77,2.77,0,0,1,.27,1.25,2.58,2.58,0,0,1-.15.88,2.55,2.55,0,0,1-.44.75,2.94,2.94,0,0,1-.63.59,3,3,0,0,1-.77.37l.05,0a2.41,2.41,0,0,1,.91.36,2.76,2.76,0,0,1,.72.64,3,3,0,0,1,.46.87,3.06,3.06,0,0,1,.17,1,3,3,0,0,1-1.11,2.41,3.62,3.62,0,0,1-1.2.63,4.93,4.93,0,0,1-3.7-.32,3.35,3.35,0,0,1-1.45-1.75l1.26-.37a2.37,2.37,0,0,0,.89,1.21,3,3,0,0,0,1.65.39,2.71,2.71,0,0,0,1-.16,2.29,2.29,0,0,0,.79-.45,2,2,0,0,0,.53-.71,2.39,2.39,0,0,0-.06-2,2,2,0,0,0-.66-.71,2.94,2.94,0,0,0-1-.39,5.13,5.13,0,0,0-1.12-.12h-.51Z"/><path d="M163.05,236.43a3.45,3.45,0,0,1,2,.56,3.86,3.86,0,0,1,1.21,1.42,6.19,6.19,0,0,1,.58,1.9,13.08,13.08,0,0,1,0,3.95,6.19,6.19,0,0,1-.58,1.9,3.86,3.86,0,0,1-1.21,1.42,4,4,0,0,1-4.09,0,3.86,3.86,0,0,1-1.21-1.42,6.19,6.19,0,0,1-.58-1.9,13.08,13.08,0,0,1,0-3.95,6.19,6.19,0,0,1,.58-1.9A3.86,3.86,0,0,1,161,237,3.44,3.44,0,0,1,163.05,236.43Zm0,1a2.23,2.23,0,0,0-1.52.5,3,3,0,0,0-.83,1.23,5.8,5.8,0,0,0-.36,1.57c-.05.55-.08,1.06-.08,1.5s0,.95.08,1.51a5.8,5.8,0,0,0,.36,1.57,3,3,0,0,0,.83,1.23,2.22,2.22,0,0,0,1.52.49,2.19,2.19,0,0,0,1.52-.49,3,3,0,0,0,.84-1.23,5.8,5.8,0,0,0,.36-1.57c0-.56.07-1.06.07-1.51s0-.95-.07-1.5a5.8,5.8,0,0,0-.36-1.57,3,3,0,0,0-.84-1.23A2.19,2.19,0,0,0,163.05,237.48Z"/><path d="M173.49,242.12c0-.27,0-.55,0-.83s0-.55-.06-.83h1.18v1.14h0a2.54,2.54,0,0,1,1.1-1,3.29,3.29,0,0,1,1.4-.33,4.18,4.18,0,0,1,.68.06,2.55,2.55,0,0,1,.69.23,2.3,2.3,0,0,1,.62.48,2.48,2.48,0,0,1,.49.78,2.51,2.51,0,0,1,1.05-1.14,3.09,3.09,0,0,1,1.51-.41,2.9,2.9,0,0,1,2.21.76,3.08,3.08,0,0,1,.71,2.17V248H184v-4.37a3,3,0,0,0-.42-1.74,1.73,1.73,0,0,0-1.54-.61,2.12,2.12,0,0,0-1,.23,1.93,1.93,0,0,0-.68.62,2.63,2.63,0,0,0-.37.87,4.17,4.17,0,0,0-.12,1v4h-1.09v-4.37a3,3,0,0,0-.42-1.74,1.73,1.73,0,0,0-1.54-.61l-.46.06a1.72,1.72,0,0,0-.74.35,2.51,2.51,0,0,0-.69.87,3.37,3.37,0,0,0-.31,1.6V248h-1.09Z"/><path d="M187.64,242.12c0-.27,0-.55,0-.83l-.06-.83h1.18v1.14h0a2.6,2.6,0,0,1,1.1-1,3.3,3.3,0,0,1,1.41-.33,4.06,4.06,0,0,1,.67.06,2.44,2.44,0,0,1,.69.23,2.44,2.44,0,0,1,1.11,1.26,2.53,2.53,0,0,1,1.06-1.14,3,3,0,0,1,1.5-.41,2.89,2.89,0,0,1,2.21.76,3,3,0,0,1,.72,2.17V248h-1.1v-4.37a3,3,0,0,0-.42-1.74,1.72,1.72,0,0,0-1.54-.61,2.12,2.12,0,0,0-1,.23,1.9,1.9,0,0,0-.67.62,2.45,2.45,0,0,0-.38.87,4.17,4.17,0,0,0-.11,1v4h-1.1v-4.37a3,3,0,0,0-.42-1.74,1.72,1.72,0,0,0-1.54-.61l-.46.06a1.77,1.77,0,0,0-.74.35,2.76,2.76,0,0,0-.69.87,3.51,3.51,0,0,0-.3,1.6V248h-1.1Z"/></g><g class="cls-2"><path d="M45.81,171.64v-.59a3.69,3.69,0,0,0-.12-1,2.09,2.09,0,0,0-.36-.8,1.75,1.75,0,0,0-.64-.53,2.19,2.19,0,0,0-1-.2,1.82,1.82,0,0,0-1.42.55,2.19,2.19,0,0,0-.5,1.55,2.36,2.36,0,0,0,.32,1.26,2.56,2.56,0,0,0,.92.9l-.51,1a3.33,3.33,0,0,1-1.35-1.3,3.75,3.75,0,0,1-.44-1.83,4.07,4.07,0,0,1,.19-1.27,3.18,3.18,0,0,1,.57-1,2.74,2.74,0,0,1,.93-.71,3,3,0,0,1,1.25-.26,2.54,2.54,0,0,1,.88.15,2.69,2.69,0,0,1,.76.42,2.8,2.8,0,0,1,.58.61,2.89,2.89,0,0,1,.38.74l0-.05a2.34,2.34,0,0,1,.36-.88,2.51,2.51,0,0,1,.65-.69,3.06,3.06,0,0,1,.86-.45,3.39,3.39,0,0,1,1-.16,3.23,3.23,0,0,1,1.39.29,2.86,2.86,0,0,1,1,.79,3.49,3.49,0,0,1,.64,1.15,4.54,4.54,0,0,1,.21,1.39,4.27,4.27,0,0,1-.54,2.18,3.36,3.36,0,0,1-1.75,1.39l-.36-1.22a2.34,2.34,0,0,0,1.2-.86,2.67,2.67,0,0,0,.4-1.59,2.76,2.76,0,0,0-.16-.91,2.34,2.34,0,0,0-.46-.76,2,2,0,0,0-.71-.51,2.27,2.27,0,0,0-.91-.18,2.21,2.21,0,0,0-1.08.24,2,2,0,0,0-.72.64,2.64,2.64,0,0,0-.39.92,4.7,4.7,0,0,0-.12,1.08v.49Z"/><path d="M48.53,159.35v-1.63h1v1.63h2.69v1.16H49.58v4.89H48.27l-7.33-4.57v-1.48Zm-6.44,1.16v0l6.44,3.9v-3.93Z"/><path d="M42,149.67v4.63l3.41.08a3.44,3.44,0,0,1-.21-.76,4.88,4.88,0,0,1-.07-.76,3.8,3.8,0,0,1,.28-1.46,3.26,3.26,0,0,1,.76-1.13,3.42,3.42,0,0,1,1.15-.73,4,4,0,0,1,2.94,0,3.34,3.34,0,0,1,1.17.8,3.6,3.6,0,0,1,.76,1.21,4.13,4.13,0,0,1,.27,1.51A3.75,3.75,0,0,1,52,155a3.37,3.37,0,0,1-1.5,1.33l-.5-1.16A2.58,2.58,0,0,0,51,154.3a2.22,2.22,0,0,0,.4-1.32,2.6,2.6,0,0,0-.2-1,2.82,2.82,0,0,0-.54-.8,2.41,2.41,0,0,0-1.79-.74,2.75,2.75,0,0,0-1.09.2,2.5,2.5,0,0,0-1.41,1.46,3.1,3.1,0,0,0-.19,1.12,4.53,4.53,0,0,0,.17,1.21,5.64,5.64,0,0,0,.45,1.14l-5.87-.11v-5.78Z"/><path d="M46.45,142.62c-.28,0-.56,0-.84,0l-.83.06v-1.14h1.14v0a2.44,2.44,0,0,1-1-1.07,2.94,2.94,0,0,1-.34-1.35,3.93,3.93,0,0,1,.06-.65,2.51,2.51,0,0,1,.24-.66,2.34,2.34,0,0,1,.47-.6,2.65,2.65,0,0,1,.78-.47,2.38,2.38,0,0,1-1.13-1,3.06,3.06,0,0,1,.34-3.57,3.12,3.12,0,0,1,2.17-.69h4.75v1.06H47.9a3.13,3.13,0,0,0-1.74.4,1.62,1.62,0,0,0-.61,1.48,2,2,0,0,0,.23,1,1.9,1.9,0,0,0,.62.64,2.5,2.5,0,0,0,.87.36,4.25,4.25,0,0,0,1,.12h4v1.05H47.9a3.22,3.22,0,0,0-1.74.4,1.64,1.64,0,0,0-.61,1.49,3.61,3.61,0,0,0,.06.44,1.65,1.65,0,0,0,.36.71,2.55,2.55,0,0,0,.86.67,3.66,3.66,0,0,0,1.6.29h3.84v1.06Z"/><path d="M46.45,129c-.28,0-.56,0-.84,0l-.83.06v-1.14h1.14v0a2.44,2.44,0,0,1-1-1.07,2.94,2.94,0,0,1-.34-1.35,3.83,3.83,0,0,1,.06-.65,2.28,2.28,0,0,1,.24-.66,2.34,2.34,0,0,1,.47-.6,2.45,2.45,0,0,1,.78-.47,2.43,2.43,0,0,1-1.13-1,2.74,2.74,0,0,1-.42-1.45,2.69,2.69,0,0,1,.76-2.12,3.12,3.12,0,0,1,2.17-.69h4.75v1.05H47.9a3.22,3.22,0,0,0-1.74.4,1.65,1.65,0,0,0-.61,1.49,2,2,0,0,0,.23,1,1.84,1.84,0,0,0,.62.65,2.5,2.5,0,0,0,.87.36,4.25,4.25,0,0,0,1,.11h4v1.06H47.9a3.13,3.13,0,0,0-1.74.4,1.64,1.64,0,0,0-.61,1.49,3.61,3.61,0,0,0,.06.44A1.71,1.71,0,0,0,46,127a2.42,2.42,0,0,0,.86.66,3.51,3.51,0,0,0,1.6.3h3.84V129Z"/></g><line class="cls-1" x1="68.95" y1="65.46" x2="229.53" y2="65.46"/><line class="cls-1" x1="68.95" y1="63.77" x2="68.95" y2="67.16"/><line class="cls-1" x1="229.53" y1="63.77" x2="229.53" y2="67.16"/><g class="cls-2"><path d="M121.83,49.71a3.62,3.62,0,0,1,.68,1.16,4.26,4.26,0,0,1-.05,3,3.67,3.67,0,0,1-.82,1.25,3.79,3.79,0,0,1-1.26.83,4.34,4.34,0,0,1-1.6.29,4.11,4.11,0,0,1-1.4-.22,3.66,3.66,0,0,1-1.12-.61l-1.07,1.09-.51-.5,1.06-1.09a3.62,3.62,0,0,1-.69-1.17,4.17,4.17,0,0,1-.24-1.43,4.22,4.22,0,0,1,.29-1.57,3.85,3.85,0,0,1,.83-1.25,3.67,3.67,0,0,1,1.25-.82,4.46,4.46,0,0,1,3-.08,4,4,0,0,1,1.15.61l1.06-1.09.51.5Zm-1.25.25a2.68,2.68,0,0,0-1.8-.62,3,3,0,0,0-1.18.23,2.71,2.71,0,0,0-.88.63,2.91,2.91,0,0,0-.56.95,3.42,3.42,0,0,0-.2,1.17,3,3,0,0,0,.54,1.82ZM117,54.68a2.54,2.54,0,0,0,.8.45,2.87,2.87,0,0,0,1,.16,2.91,2.91,0,0,0,1.17-.23,2.57,2.57,0,0,0,.89-.63,2.83,2.83,0,0,0,.57-1,3.41,3.41,0,0,0,.2-1.16,3.09,3.09,0,0,0-.55-1.83Z"/><path d="M131.24,49.6h.59a3.69,3.69,0,0,0,.95-.12,2.09,2.09,0,0,0,.8-.36,1.75,1.75,0,0,0,.53-.64,2.19,2.19,0,0,0,.2-1,1.82,1.82,0,0,0-.55-1.42,2.18,2.18,0,0,0-1.54-.5,2.4,2.4,0,0,0-1.27.32,2.46,2.46,0,0,0-.89.92l-1-.51a3.33,3.33,0,0,1,1.3-1.35,3.75,3.75,0,0,1,1.83-.44,4.07,4.07,0,0,1,1.27.19,3.18,3.18,0,0,1,1,.57,2.74,2.74,0,0,1,.71.93,2.83,2.83,0,0,1,.26,1.25,2.54,2.54,0,0,1-.15.88,2.93,2.93,0,0,1-.41.76,3.1,3.1,0,0,1-.62.58,2.89,2.89,0,0,1-.74.38l.05,0a2.28,2.28,0,0,1,.88.36,2.51,2.51,0,0,1,.69.65,3.06,3.06,0,0,1,.45.86,3.39,3.39,0,0,1,.16,1,3.23,3.23,0,0,1-.29,1.39,2.84,2.84,0,0,1-.78,1,3.64,3.64,0,0,1-1.16.64,4.5,4.5,0,0,1-1.39.21,4.21,4.21,0,0,1-2.17-.54,3.33,3.33,0,0,1-1.4-1.75l1.22-.36a2.34,2.34,0,0,0,.86,1.2,2.67,2.67,0,0,0,1.59.4,2.76,2.76,0,0,0,.91-.16,2.34,2.34,0,0,0,.76-.46,2,2,0,0,0,.51-.71,2.28,2.28,0,0,0,.19-.91,2.21,2.21,0,0,0-.24-1.08,2.12,2.12,0,0,0-.64-.72,2.81,2.81,0,0,0-.92-.39,4.83,4.83,0,0,0-1.08-.12h-.5Z"/><path d="M139.85,50a2.28,2.28,0,0,1-.68-.38,2.48,2.48,0,0,1-.54-.58,2.79,2.79,0,0,1-.35-.74,2.53,2.53,0,0,1-.13-.83,2.87,2.87,0,0,1,.95-2.16,2.94,2.94,0,0,1,1-.59,3.65,3.65,0,0,1,2.44,0,2.94,2.94,0,0,1,1,.59,2.87,2.87,0,0,1,.82,3,3.14,3.14,0,0,1-.35.74,2.48,2.48,0,0,1-.54.58,2.28,2.28,0,0,1-.68.38v0a2.69,2.69,0,0,1,1.54,1.06A3.21,3.21,0,0,1,144.9,53a3,3,0,0,1-.29,1.32,3.18,3.18,0,0,1-.79,1,3.41,3.41,0,0,1-1.13.65A4.38,4.38,0,0,1,140,56a3.41,3.41,0,0,1-1.13-.65,3.18,3.18,0,0,1-.79-1,2.85,2.85,0,0,1-.29-1.32,3.21,3.21,0,0,1,.57-1.92,2.69,2.69,0,0,1,1.54-1.06Zm3.9,2.85a2.51,2.51,0,0,0-.17-.92,2.22,2.22,0,0,0-.49-.74,2.26,2.26,0,0,0-.77-.49,3.06,3.06,0,0,0-2,0A2.18,2.18,0,0,0,139.06,52a2.51,2.51,0,0,0-.17.92,2.55,2.55,0,0,0,.17.92,2.29,2.29,0,0,0,.49.73,2.21,2.21,0,0,0,.76.49,2.9,2.9,0,0,0,2,0,2.26,2.26,0,0,0,.77-.49,2.29,2.29,0,0,0,.49-.73A2.55,2.55,0,0,0,143.75,52.88Zm-.41-5.28a2.08,2.08,0,0,0-.16-.8,1.87,1.87,0,0,0-.42-.64,2.06,2.06,0,0,0-1.44-.56,2.07,2.07,0,0,0-.8.15,2,2,0,0,0-.64.41,1.87,1.87,0,0,0-.42.64,1.91,1.91,0,0,0-.16.8,2,2,0,0,0,.16.8,1.93,1.93,0,0,0,.42.63,2,2,0,0,0,.64.41,1.91,1.91,0,0,0,.8.16,1.94,1.94,0,0,0,.8-.16,2.13,2.13,0,0,0,.64-.41,1.93,1.93,0,0,0,.42-.63A2.15,2.15,0,0,0,143.34,47.6Z"/><path d="M153.21,45.79h-4.63l-.08,3.41a3.44,3.44,0,0,1,.76-.21,4.88,4.88,0,0,1,.76-.07,3.8,3.8,0,0,1,1.46.28,3.26,3.26,0,0,1,1.13.76,3.42,3.42,0,0,1,.73,1.15,4,4,0,0,1,0,2.94,3.34,3.34,0,0,1-.8,1.17,3.51,3.51,0,0,1-1.21.76,4.13,4.13,0,0,1-1.51.27,3.75,3.75,0,0,1-1.94-.51,3.29,3.29,0,0,1-1.32-1.5l1.15-.5a2.58,2.58,0,0,0,.89,1.06,2.22,2.22,0,0,0,1.32.4,2.56,2.56,0,0,0,1-.2,2.68,2.68,0,0,0,.8-.54,2.47,2.47,0,0,0,.75-1.79,2.75,2.75,0,0,0-.21-1.09,2.56,2.56,0,0,0-.58-.86,2.48,2.48,0,0,0-.88-.55,3.1,3.1,0,0,0-1.12-.19,4.59,4.59,0,0,0-1.21.17,5.64,5.64,0,0,0-1.14.45l.11-5.87h5.78Z"/><path d="M160.26,50.24c0-.28,0-.56,0-.84s0-.55-.06-.83h1.14v1.14h0a2.44,2.44,0,0,1,1.07-1,2.94,2.94,0,0,1,1.35-.34,3.83,3.83,0,0,1,.65.06,2.39,2.39,0,0,1,.66.24,2.34,2.34,0,0,1,.6.47,2.45,2.45,0,0,1,.47.78,2.43,2.43,0,0,1,1-1.13,2.74,2.74,0,0,1,1.45-.42,2.69,2.69,0,0,1,2.12.76,3.12,3.12,0,0,1,.69,2.17v4.75h-1.05V51.69A3.13,3.13,0,0,0,170,50a1.62,1.62,0,0,0-1.48-.61,2,2,0,0,0-1,.23,1.84,1.84,0,0,0-.65.62,2.5,2.5,0,0,0-.36.87,4.25,4.25,0,0,0-.11,1v4h-1.06V51.69a3.13,3.13,0,0,0-.4-1.74,1.64,1.64,0,0,0-1.49-.61l-.44.06a1.65,1.65,0,0,0-.71.36,2.42,2.42,0,0,0-.66.86,3.51,3.51,0,0,0-.3,1.6v3.84h-1.06Z"/><path d="M173.89,50.24c0-.28,0-.56,0-.84s0-.55-.06-.83H175v1.14h0a2.44,2.44,0,0,1,1.07-1,2.94,2.94,0,0,1,1.35-.34,3.83,3.83,0,0,1,.65.06,2.28,2.28,0,0,1,.66.24,2.34,2.34,0,0,1,.6.47,2.28,2.28,0,0,1,.47.78,2.43,2.43,0,0,1,1-1.13,2.76,2.76,0,0,1,1.45-.42,2.73,2.73,0,0,1,2.13.76,3.17,3.17,0,0,1,.68,2.17v4.75H184V51.69a3.22,3.22,0,0,0-.4-1.74,1.65,1.65,0,0,0-1.49-.61,2,2,0,0,0-1,.23,1.84,1.84,0,0,0-.65.62,2.5,2.5,0,0,0-.36.87,4.25,4.25,0,0,0-.11,1v4H179V51.69a3.13,3.13,0,0,0-.4-1.74,1.64,1.64,0,0,0-1.49-.61l-.44.06a1.71,1.71,0,0,0-.71.36,2.53,2.53,0,0,0-.66.86,3.51,3.51,0,0,0-.3,1.6v3.84h-1.06Z"/></g><path class="cls-3" d="M229.53,165.15c0-49.31-40-90.52-89.29-90.52A89.11,89.11,0,0,0,69.88,109l68.65,0a4.28,4.28,0,1,1,4.28,4.28L142.93,217h52.84l.24-47.46a4.4,4.4,0,1,1,4.41-4.4Z"/><path class="cls-4" d="M142.92,206a41.35,41.35,0,0,0-.09-82.51"/></svg>