<svg xmlns="http://www.w3.org/2000/svg" viewBox="0 0 300 263"><defs><style>.cls-1,.cls-2,.cls-3,.cls-4{fill:none;stroke-linecap:round;}.cls-1,.cls-2{stroke:red;}.cls-1,.cls-2,.cls-4{stroke-linejoin:round;}.cls-1,.cls-3,.cls-4{stroke-width:0.6px;}.cls-3,.cls-4{stroke:#000;}.cls-3{stroke-miterlimit:10;}</style></defs><title>biagio-table-scarpa-flos-F0700000-curva-fotometrica</title><g id="numeri_esterni_diagramma" data-name="numeri esterni diagramma"><path d="M249.93,137.18h0a1.24,1.24,0,0,1-.37.12,1.84,1.84,0,0,1-.39,0,1.91,1.91,0,0,1-.68-.12,1.58,1.58,0,0,1-.54-.37,1.63,1.63,0,0,1-.36-.56,2.05,2.05,0,0,1-.13-.72,1.79,1.79,0,0,1,.15-.75,1.48,1.48,0,0,1,.4-.55,1.79,1.79,0,0,1,.6-.35,2,2,0,0,1,.75-.13,2.11,2.11,0,0,1,.75.13,1.79,1.79,0,0,1,.6.35,1.59,1.59,0,0,1,.4.55,1.79,1.79,0,0,1,.14.75,2.15,2.15,0,0,1,0,.45,1.68,1.68,0,0,1-.11.4,2.59,2.59,0,0,1-.17.38l-.21.36-1.51,2.39h-.78Zm-.59-.42a1.28,1.28,0,0,0,.48-.09,1,1,0,0,0,.39-.24,1.23,1.23,0,0,0,.26-.37,1.43,1.43,0,0,0,0-1,1.1,1.1,0,0,0-.65-.62,1.48,1.48,0,0,0-1,0,1.28,1.28,0,0,0-.39.24,1.12,1.12,0,0,0-.26.38,1.3,1.3,0,0,0,0,1,1.08,1.08,0,0,0,.26.37,1,1,0,0,0,.39.24A1.28,1.28,0,0,0,249.34,136.76Z"/><path d="M251.82,136.71a7.07,7.07,0,0,1,.08-1,3.19,3.19,0,0,1,.29-1,2,2,0,0,1,.59-.7,1.54,1.54,0,0,1,1-.28,1.49,1.49,0,0,1,.95.28,1.91,1.91,0,0,1,.59.7,2.94,2.94,0,0,1,.3,1,6.29,6.29,0,0,1,0,2,2.94,2.94,0,0,1-.3.95,1.91,1.91,0,0,1-.59.7,1.49,1.49,0,0,1-.95.28,1.54,1.54,0,0,1-1-.28,2,2,0,0,1-.59-.7,3.19,3.19,0,0,1-.29-.95A7.07,7.07,0,0,1,251.82,136.71Zm.67,0c0,.14,0,.29,0,.46a4.6,4.6,0,0,0,.06.52,4.7,4.7,0,0,0,.12.51,2,2,0,0,0,.23.44,1,1,0,0,0,.34.31,1,1,0,0,0,.48.11,1.06,1.06,0,0,0,.48-.11,1.24,1.24,0,0,0,.34-.31,1.65,1.65,0,0,0,.22-.44,3.18,3.18,0,0,0,.13-.51,4.6,4.6,0,0,0,.06-.52c0-.17,0-.32,0-.46s0-.29,0-.46a4.6,4.6,0,0,0-.06-.52,3.18,3.18,0,0,0-.13-.51,1.65,1.65,0,0,0-.22-.44,1.24,1.24,0,0,0-.34-.31,1.06,1.06,0,0,0-.48-.11,1,1,0,0,0-.48.11,1,1,0,0,0-.34.31,2,2,0,0,0-.23.44,4.7,4.7,0,0,0-.12.51,4.6,4.6,0,0,0-.06.52C252.5,136.42,252.49,136.57,252.49,136.71Z"/><path d="M256.42,134.93a1.13,1.13,0,0,1,.09-.45,1.31,1.31,0,0,1,.24-.37,1.18,1.18,0,0,1,.37-.24,1,1,0,0,1,.44-.09,1.13,1.13,0,0,1,.45.09,1.06,1.06,0,0,1,.61.61,1.13,1.13,0,0,1,.09.45,1,1,0,0,1-.09.44,1.06,1.06,0,0,1-.61.61,1.13,1.13,0,0,1-.45.09,1,1,0,0,1-.44-.09,1.18,1.18,0,0,1-.37-.24,1.31,1.31,0,0,1-.24-.37A1,1,0,0,1,256.42,134.93Zm.43,0a.69.69,0,0,0,0,.24,1,1,0,0,0,.15.24.73.73,0,0,0,.51.23.54.54,0,0,0,.29-.07.63.63,0,0,0,.23-.16.72.72,0,0,0,.14-.24.52.52,0,0,0,0-.24.56.56,0,0,0,0-.25.59.59,0,0,0-.14-.23.74.74,0,0,0-.52-.24.73.73,0,0,0-.29.07.62.62,0,0,0-.22.17.76.76,0,0,0-.15.23A.74.74,0,0,0,256.85,134.93Z"/><path d="M41.57,137.18h0a1.34,1.34,0,0,1-.37.12,2,2,0,0,1-.39,0,1.92,1.92,0,0,1-.69-.12,1.58,1.58,0,0,1-.54-.37,1.8,1.8,0,0,1-.36-.56,2.05,2.05,0,0,1-.13-.72,1.79,1.79,0,0,1,.15-.75,1.48,1.48,0,0,1,.4-.55,1.79,1.79,0,0,1,.6-.35,2.23,2.23,0,0,1,1.5,0,1.79,1.79,0,0,1,.6.35,1.48,1.48,0,0,1,.4.55,1.79,1.79,0,0,1,.15.75,3.14,3.14,0,0,1,0,.45,2.34,2.34,0,0,1-.12.4,1.84,1.84,0,0,1-.17.38,3.35,3.35,0,0,1-.21.36l-1.5,2.39h-.79Zm-.59-.42a1.28,1.28,0,0,0,.48-.09,1,1,0,0,0,.39-.24,1.23,1.23,0,0,0,.26-.37,1.3,1.3,0,0,0,0-1,1.1,1.1,0,0,0-.65-.62,1.48,1.48,0,0,0-1,0,1.1,1.1,0,0,0-.65.62,1.43,1.43,0,0,0,0,1,1.23,1.23,0,0,0,.26.37,1,1,0,0,0,.39.24A1.28,1.28,0,0,0,41,136.76Z"/><path d="M43.46,136.71a7.07,7.07,0,0,1,.08-1,2.94,2.94,0,0,1,.3-1,1.91,1.91,0,0,1,.59-.7,1.49,1.49,0,0,1,1-.28,1.54,1.54,0,0,1,1,.28,2,2,0,0,1,.59.7,3.19,3.19,0,0,1,.29,1,6.29,6.29,0,0,1,0,2,3.19,3.19,0,0,1-.29.95,2,2,0,0,1-.59.7,1.54,1.54,0,0,1-1,.28,1.49,1.49,0,0,1-1-.28,1.91,1.91,0,0,1-.59-.7,2.94,2.94,0,0,1-.3-.95A7.07,7.07,0,0,1,43.46,136.71Zm.67,0c0,.14,0,.29,0,.46a4.6,4.6,0,0,0,.06.52,3.18,3.18,0,0,0,.13.51,1.65,1.65,0,0,0,.22.44,1.12,1.12,0,0,0,.34.31,1.1,1.1,0,0,0,1,0,1.12,1.12,0,0,0,.34-.31,2,2,0,0,0,.23-.44,4.7,4.7,0,0,0,.12-.51,4.6,4.6,0,0,0,.06-.52c0-.17,0-.32,0-.46s0-.29,0-.46a4.6,4.6,0,0,0-.06-.52,4.7,4.7,0,0,0-.12-.51,2,2,0,0,0-.23-.44,1.12,1.12,0,0,0-.34-.31,1.1,1.1,0,0,0-1,0,1.12,1.12,0,0,0-.34.31,1.65,1.65,0,0,0-.22.44,3.18,3.18,0,0,0-.13.51,4.6,4.6,0,0,0-.06.52C44.14,136.42,44.13,136.57,44.13,136.71Z"/><path d="M48.06,134.93a1.13,1.13,0,0,1,.09-.45,1.06,1.06,0,0,1,.61-.61,1.13,1.13,0,0,1,.45-.09,1.08,1.08,0,0,1,.44.09,1.06,1.06,0,0,1,.61.61,1.13,1.13,0,0,1,.09.45,1,1,0,0,1-.09.44,1.06,1.06,0,0,1-.61.61,1.08,1.08,0,0,1-.44.09,1.13,1.13,0,0,1-.45-.09,1.06,1.06,0,0,1-.61-.61A1,1,0,0,1,48.06,134.93Zm.43,0a.53.53,0,0,0,.06.24.72.72,0,0,0,.14.24.69.69,0,0,0,.22.16.6.6,0,0,0,.3.07.73.73,0,0,0,.51-.23,1,1,0,0,0,.15-.24.69.69,0,0,0,.05-.24.74.74,0,0,0-.05-.25.76.76,0,0,0-.15-.23.62.62,0,0,0-.22-.17.73.73,0,0,0-.29-.07.73.73,0,0,0-.3.07.72.72,0,0,0-.22.17.59.59,0,0,0-.14.23A.57.57,0,0,0,48.49,134.93Z"/><path d="M148.37,38.51h-.68v-4.8h0l-1,.85-.4-.48,1.52-1.24h.59Z"/><path d="M150.49,34.23a1.48,1.48,0,0,1,.13-.61,1.2,1.2,0,0,1,.34-.46,1.44,1.44,0,0,1,.51-.3,1.92,1.92,0,0,1,1.28,0,1.44,1.44,0,0,1,.51.3,1.2,1.2,0,0,1,.34.46,1.33,1.33,0,0,1,.13.61,1.16,1.16,0,0,1-.07.4,1.41,1.41,0,0,1-.18.37,1.33,1.33,0,0,1-.29.29,1.18,1.18,0,0,1-.39.19h0a1.44,1.44,0,0,1,.46.19,1.35,1.35,0,0,1,.35.32,1.42,1.42,0,0,1,.23.44,1.7,1.7,0,0,1,.08.51,1.74,1.74,0,0,1-.14.69,1.43,1.43,0,0,1-.39.52,1.47,1.47,0,0,1-.57.33,2.35,2.35,0,0,1-1.42,0,1.47,1.47,0,0,1-.57-.33,1.55,1.55,0,0,1-.39-.52,1.74,1.74,0,0,1-.14-.69,1.7,1.7,0,0,1,.08-.51,1.67,1.67,0,0,1,.23-.44,1.35,1.35,0,0,1,.35-.32,1.44,1.44,0,0,1,.46-.19h0a1.18,1.18,0,0,1-.39-.19,1.33,1.33,0,0,1-.29-.29,1.41,1.41,0,0,1-.18-.37A1.46,1.46,0,0,1,150.49,34.23ZM151,36.9a1.18,1.18,0,0,0,.09.46,1.07,1.07,0,0,0,.25.35,1,1,0,0,0,.36.23,1.12,1.12,0,0,0,.88,0,1,1,0,0,0,.36-.23,1.07,1.07,0,0,0,.25-.35,1.18,1.18,0,0,0,.09-.46,1.14,1.14,0,0,0-.09-.46,1.13,1.13,0,0,0-.61-.58,1.12,1.12,0,0,0-.88,0,1.13,1.13,0,0,0-.61.58A1.14,1.14,0,0,0,151,36.9Zm.2-2.64a.88.88,0,0,0,.26.67,1,1,0,0,0,1.36,0,1,1,0,0,0,0-1.34,1,1,0,0,0-1.36,0A.88.88,0,0,0,151.17,34.26Z"/><path d="M154.64,35.68a7,7,0,0,1,.08-1,3.1,3.1,0,0,1,.29-1,2,2,0,0,1,.59-.71,1.6,1.6,0,0,1,1-.27,1.55,1.55,0,0,1,.95.27,1.94,1.94,0,0,1,.59.71,2.86,2.86,0,0,1,.3,1,7,7,0,0,1,.08,1,7.07,7.07,0,0,1-.08,1,2.88,2.88,0,0,1-.3.94,1.94,1.94,0,0,1-.59.71,1.55,1.55,0,0,1-.95.27,1.6,1.6,0,0,1-1-.27,2,2,0,0,1-.59-.71,3.13,3.13,0,0,1-.29-.94A7.07,7.07,0,0,1,154.64,35.68Zm.67,0c0,.13,0,.29,0,.46a4.88,4.88,0,0,0,.06.52,4.05,4.05,0,0,0,.12.5,1.66,1.66,0,0,0,.23.44,1.12,1.12,0,0,0,.34.31,1,1,0,0,0,1,0,1.12,1.12,0,0,0,.34-.31,1.4,1.4,0,0,0,.22-.44,2.83,2.83,0,0,0,.13-.5,4.88,4.88,0,0,0,.06-.52c0-.17,0-.33,0-.46s0-.3,0-.47a4.43,4.43,0,0,0-.06-.51,2.72,2.72,0,0,0-.13-.51,1.51,1.51,0,0,0-.22-.44,1.12,1.12,0,0,0-.34-.31,1,1,0,0,0-1,0,1.12,1.12,0,0,0-.34.31,1.83,1.83,0,0,0-.23.44,3.81,3.81,0,0,0-.12.51,4.43,4.43,0,0,0-.06.51C155.32,35.38,155.31,35.54,155.31,35.68Z"/><path d="M159.24,33.89a1.15,1.15,0,0,1,.33-.81,1,1,0,0,1,.37-.24,1,1,0,0,1,.44-.09,1.15,1.15,0,0,1,.82,2,1.15,1.15,0,0,1-.37.25,1.13,1.13,0,0,1-.45.09,1.15,1.15,0,0,1-.81-.34,1.15,1.15,0,0,1-.33-.81Zm.43,0a.79.79,0,0,0,.05.25,1.14,1.14,0,0,0,.15.23.62.62,0,0,0,.22.17.72.72,0,0,0,.29.06.68.68,0,0,0,.52-.23.79.79,0,0,0,.14-.23.65.65,0,0,0,0-.5.79.79,0,0,0-.14-.23.81.81,0,0,0-.23-.17.65.65,0,0,0-.29-.06.72.72,0,0,0-.29.06.76.76,0,0,0-.22.17,1.14,1.14,0,0,0-.15.23A.79.79,0,0,0,159.67,33.89Z"/><path d="M148.27,239.2a6.85,6.85,0,0,1,.08-1,3.41,3.41,0,0,1,.3-.95,1.94,1.94,0,0,1,.59-.71,1.57,1.57,0,0,1,.95-.27,1.6,1.6,0,0,1,1,.27,2,2,0,0,1,.59.71,3.1,3.1,0,0,1,.29.95,5.7,5.7,0,0,1,.08,1,5.85,5.85,0,0,1-.08,1,3.13,3.13,0,0,1-.29.94,2,2,0,0,1-.59.71,1.6,1.6,0,0,1-1,.27,1.57,1.57,0,0,1-.95-.27,1.94,1.94,0,0,1-.59-.71,3.45,3.45,0,0,1-.3-.94A7.07,7.07,0,0,1,148.27,239.2Zm.68,0c0,.13,0,.29,0,.46a4.88,4.88,0,0,0,.06.52,2.83,2.83,0,0,0,.13.5,1.65,1.65,0,0,0,.22.44,1.24,1.24,0,0,0,.34.31,1,1,0,0,0,.48.12.9.9,0,0,0,.48-.12,1,1,0,0,0,.34-.31,1.41,1.41,0,0,0,.23-.44,4.07,4.07,0,0,0,.13-.5c0-.18,0-.35.06-.52s0-.33,0-.46,0-.3,0-.47,0-.34-.06-.51a3.8,3.8,0,0,0-.13-.51,1.53,1.53,0,0,0-.23-.44,1,1,0,0,0-.34-.31.9.9,0,0,0-.48-.12,1,1,0,0,0-.48.12,1.24,1.24,0,0,0-.34.31,1.81,1.81,0,0,0-.22.44,2.72,2.72,0,0,0-.13.51,4.43,4.43,0,0,0-.06.51C149,238.9,149,239.06,149,239.2Z"/><path d="M152.83,237.41a1.33,1.33,0,0,1,.08-.45,1.11,1.11,0,0,1,.25-.36,1,1,0,0,1,.36-.24,1.17,1.17,0,0,1,.9,0,1,1,0,0,1,.36.24,1.11,1.11,0,0,1,.25.36,1.31,1.31,0,0,1,0,.9,1.23,1.23,0,0,1-.61.61,1.17,1.17,0,0,1-.9,0,1.23,1.23,0,0,1-.61-.61A1.33,1.33,0,0,1,152.83,237.41Zm.43,0a.79.79,0,0,0,.05.25.68.68,0,0,0,.14.23.66.66,0,0,0,.23.17.73.73,0,0,0,.58,0,.76.76,0,0,0,.23-.17.88.88,0,0,0,.14-.23.65.65,0,0,0,0-.5,1.09,1.09,0,0,0-.14-.23,1,1,0,0,0-.23-.17.73.73,0,0,0-.58,0,.81.81,0,0,0-.23.17.75.75,0,0,0-.19.48Z"/><path d="M203.17,238.76h.21l.43,0a1.15,1.15,0,0,0,.42-.13.77.77,0,0,0,.31-.31.94.94,0,0,0,.13-.51.87.87,0,0,0-.27-.68,1,1,0,0,0-.7-.26,1.28,1.28,0,0,0-.63.16,1.14,1.14,0,0,0-.41.48l-.65-.25a1.48,1.48,0,0,1,.65-.72,2.07,2.07,0,0,1,1-.24,2.25,2.25,0,0,1,.64.09,1.72,1.72,0,0,1,.54.28,1.37,1.37,0,0,1,.37.46,1.48,1.48,0,0,1,.14.65,1.29,1.29,0,0,1-.27.8,1.34,1.34,0,0,1-.7.49v0a1.48,1.48,0,0,1,.85.49,1.37,1.37,0,0,1,.23.43,1.69,1.69,0,0,1,.08.5,1.66,1.66,0,0,1-.15.72,1.57,1.57,0,0,1-.41.51,1.71,1.71,0,0,1-.6.31,2.34,2.34,0,0,1-.71.1,2.18,2.18,0,0,1-1.13-.28,1.61,1.61,0,0,1-.7-.91l.68-.22a1.33,1.33,0,0,0,.41.65,1.3,1.3,0,0,0,.74.19,1.33,1.33,0,0,0,.45-.08,1.11,1.11,0,0,0,.36-.23,1.24,1.24,0,0,0,.25-.35,1.13,1.13,0,0,0,.09-.45,1.07,1.07,0,0,0-.12-.53,1,1,0,0,0-.33-.33,1.23,1.23,0,0,0-.46-.18,2.31,2.31,0,0,0-.52-.06h-.21Z"/><path d="M206.24,239.2a6.85,6.85,0,0,1,.08-1,3.11,3.11,0,0,1,.3-.95,1.94,1.94,0,0,1,.59-.71,1.55,1.55,0,0,1,.95-.27,1.6,1.6,0,0,1,1,.27,2,2,0,0,1,.59.71,3.1,3.1,0,0,1,.29.95,5.7,5.7,0,0,1,.08,1,5.85,5.85,0,0,1-.08,1,3.13,3.13,0,0,1-.29.94,2,2,0,0,1-.59.71,1.6,1.6,0,0,1-1,.27,1.55,1.55,0,0,1-.95-.27,1.94,1.94,0,0,1-.59-.71,3.14,3.14,0,0,1-.3-.94A7.07,7.07,0,0,1,206.24,239.2Zm.67,0c0,.13,0,.29,0,.46a4.88,4.88,0,0,0,.06.52,2.83,2.83,0,0,0,.13.5,1.4,1.4,0,0,0,.22.44,1.24,1.24,0,0,0,.34.31,1,1,0,0,0,.48.12.9.9,0,0,0,.48-.12,1,1,0,0,0,.34-.31,1.41,1.41,0,0,0,.23-.44,4.05,4.05,0,0,0,.12-.5,4.88,4.88,0,0,0,.06-.52,3.86,3.86,0,0,0,0-.46,3.94,3.94,0,0,0,0-.47,4.43,4.43,0,0,0-.06-.51,3.81,3.81,0,0,0-.12-.51,1.53,1.53,0,0,0-.23-.44,1,1,0,0,0-.34-.31.9.9,0,0,0-.48-.12,1,1,0,0,0-.48.12,1.24,1.24,0,0,0-.34.31,1.51,1.51,0,0,0-.22.44,2.72,2.72,0,0,0-.13.51,4.43,4.43,0,0,0-.06.51C206.92,238.9,206.91,239.06,206.91,239.2Z"/><path d="M210.84,237.41a1.13,1.13,0,0,1,.09-.45,1.26,1.26,0,0,1,.24-.36,1.2,1.2,0,0,1,.82-.33,1,1,0,0,1,.44.09,1.12,1.12,0,0,1,.37.24,1.26,1.26,0,0,1,.24.36,1.16,1.16,0,0,1-.24,1.26,1.15,1.15,0,0,1-.37.25,1,1,0,0,1-.44.09,1.13,1.13,0,0,1-.45-.09,1.15,1.15,0,0,1-.37-.25,1.15,1.15,0,0,1-.33-.81Zm.43,0a.61.61,0,0,0,.06.25.68.68,0,0,0,.14.23.72.72,0,0,0,.22.17.73.73,0,0,0,.3.06.72.72,0,0,0,.29-.06.62.62,0,0,0,.22-.17.91.91,0,0,0,.15-.23.65.65,0,0,0,0-.5,1.14,1.14,0,0,0-.15-.23.76.76,0,0,0-.22-.17.72.72,0,0,0-.29-.06.73.73,0,0,0-.3.06.92.92,0,0,0-.22.17.79.79,0,0,0-.14.23A.61.61,0,0,0,211.27,237.41Z"/><path d="M93.6,238.76h.21l.44,0a1.1,1.1,0,0,0,.41-.13.86.86,0,0,0,.32-.31.94.94,0,0,0,.12-.51.87.87,0,0,0-.27-.68,1,1,0,0,0-.7-.26,1.21,1.21,0,0,0-.62.16,1.1,1.1,0,0,0-.42.48l-.65-.25a1.45,1.45,0,0,1,.66-.72,2,2,0,0,1,1-.24,2.32,2.32,0,0,1,.65.09,2,2,0,0,1,.54.28,1.67,1.67,0,0,1,.37.46,1.48,1.48,0,0,1,.13.65,1.29,1.29,0,0,1-.27.8,1.34,1.34,0,0,1-.7.49v0a1.31,1.31,0,0,1,.49.18,1.34,1.34,0,0,1,.36.31,1.37,1.37,0,0,1,.23.43,1.42,1.42,0,0,1,.08.5,1.66,1.66,0,0,1-.15.72,1.57,1.57,0,0,1-.41.51,1.75,1.75,0,0,1-.59.31,2.46,2.46,0,0,1-.72.1,2.18,2.18,0,0,1-1.13-.28,1.56,1.56,0,0,1-.69-.91l.68-.22a1.2,1.2,0,0,0,.41.65,1.27,1.27,0,0,0,.73.19,1.33,1.33,0,0,0,.45-.08,1.11,1.11,0,0,0,.36-.23,1.07,1.07,0,0,0,.25-.35,1.13,1.13,0,0,0,.09-.45,1.07,1.07,0,0,0-.12-.53.87.87,0,0,0-.33-.33,1.17,1.17,0,0,0-.46-.18,2.24,2.24,0,0,0-.52-.06H93.6Z"/><path d="M96.68,239.2a5.7,5.7,0,0,1,.08-1,3.1,3.1,0,0,1,.29-.95,2,2,0,0,1,.59-.71,1.6,1.6,0,0,1,1-.27,1.57,1.57,0,0,1,1,.27,1.94,1.94,0,0,1,.59.71,3.41,3.41,0,0,1,.3.95,6.85,6.85,0,0,1,.08,1,7.07,7.07,0,0,1-.08,1,3.45,3.45,0,0,1-.3.94,1.94,1.94,0,0,1-.59.71,1.57,1.57,0,0,1-1,.27,1.6,1.6,0,0,1-1-.27,2,2,0,0,1-.59-.71,3.13,3.13,0,0,1-.29-.94A5.85,5.85,0,0,1,96.68,239.2Zm.67,0c0,.13,0,.29,0,.46a4.88,4.88,0,0,0,.06.52,4.07,4.07,0,0,0,.13.5,1.41,1.41,0,0,0,.23.44,1,1,0,0,0,.34.31.9.9,0,0,0,.48.12,1,1,0,0,0,.48-.12,1.24,1.24,0,0,0,.34-.31,1.65,1.65,0,0,0,.22-.44,2.83,2.83,0,0,0,.13-.5,4.88,4.88,0,0,0,.06-.52c0-.17,0-.33,0-.46s0-.3,0-.47a4.43,4.43,0,0,0-.06-.51,2.72,2.72,0,0,0-.13-.51,1.81,1.81,0,0,0-.22-.44,1.24,1.24,0,0,0-.34-.31,1,1,0,0,0-.48-.12.9.9,0,0,0-.48.12,1,1,0,0,0-.34.31,1.53,1.53,0,0,0-.23.44,3.8,3.8,0,0,0-.13.51,4.43,4.43,0,0,0-.06.51C97.35,238.9,97.35,239.06,97.35,239.2Z"/><path d="M101.28,237.41a1.33,1.33,0,0,1,.08-.45,1.11,1.11,0,0,1,.25-.36,1,1,0,0,1,.36-.24,1.17,1.17,0,0,1,.9,0,1,1,0,0,1,.36.24,1.11,1.11,0,0,1,.25.36,1.31,1.31,0,0,1,0,.9,1.23,1.23,0,0,1-.61.61,1.17,1.17,0,0,1-.9,0,1.23,1.23,0,0,1-.61-.61A1.33,1.33,0,0,1,101.28,237.41Zm.43,0a.79.79,0,0,0,.05.25.68.68,0,0,0,.14.23.76.76,0,0,0,.23.17.73.73,0,0,0,.58,0,.66.66,0,0,0,.23-.17.68.68,0,0,0,.14-.23.71.71,0,0,0-.14-.73.81.81,0,0,0-.23-.17.73.73,0,0,0-.58,0,1,1,0,0,0-.23.17.75.75,0,0,0-.19.48Z"/><path d="M203.18,38.51h-.68v-4.8h0l-1,.85-.4-.48,1.52-1.24h.59Z"/><path d="M208.49,33.47h-2.31l0,1.53a1.08,1.08,0,0,1,.36-.11l.37,0a2,2,0,0,1,.74.14,1.61,1.61,0,0,1,.57.39,1.9,1.9,0,0,1,.37.59,2,2,0,0,1,.13.74,2,2,0,0,1-.15.78,1.74,1.74,0,0,1-.41.59,1.91,1.91,0,0,1-.61.38,2.2,2.2,0,0,1-.78.13,1.73,1.73,0,0,1-1-.28,2,2,0,0,1-.63-.75l.67-.25a1.31,1.31,0,0,0,.42.51,1.1,1.1,0,0,0,.64.2,1.28,1.28,0,0,0,.48-.09,1.26,1.26,0,0,0,.38-.27,1.15,1.15,0,0,0,.26-.41,1.53,1.53,0,0,0,.1-.54,1.38,1.38,0,0,0-.11-.55,1.08,1.08,0,0,0-.3-.4,1.26,1.26,0,0,0-.44-.25,1.67,1.67,0,0,0-.55-.08,1.84,1.84,0,0,0-.6.1,2.58,2.58,0,0,0-.56.25l.06-2.95h3Z"/><path d="M209.45,35.68a7,7,0,0,1,.08-1,3.1,3.1,0,0,1,.29-1,2,2,0,0,1,.59-.71,1.6,1.6,0,0,1,1-.27,1.55,1.55,0,0,1,.95.27,1.94,1.94,0,0,1,.59.71,2.86,2.86,0,0,1,.3,1,7,7,0,0,1,.08,1,7.07,7.07,0,0,1-.08,1,2.88,2.88,0,0,1-.3.94,1.94,1.94,0,0,1-.59.71,1.55,1.55,0,0,1-.95.27,1.6,1.6,0,0,1-1-.27,2,2,0,0,1-.59-.71,3.13,3.13,0,0,1-.29-.94A7.07,7.07,0,0,1,209.45,35.68Zm.67,0c0,.13,0,.29,0,.46a4.88,4.88,0,0,0,.06.52,4.05,4.05,0,0,0,.12.5,1.66,1.66,0,0,0,.23.44,1,1,0,0,0,.34.31.9.9,0,0,0,.48.12,1,1,0,0,0,.48-.12,1.24,1.24,0,0,0,.34-.31,1.4,1.4,0,0,0,.22-.44,2.83,2.83,0,0,0,.13-.5,4.88,4.88,0,0,0,.06-.52c0-.17,0-.33,0-.46s0-.3,0-.47a4.43,4.43,0,0,0-.06-.51,2.72,2.72,0,0,0-.13-.51,1.51,1.51,0,0,0-.22-.44,1.24,1.24,0,0,0-.34-.31,1,1,0,0,0-.48-.12.9.9,0,0,0-.48.12,1,1,0,0,0-.34.31,1.83,1.83,0,0,0-.23.44,3.81,3.81,0,0,0-.12.51,4.43,4.43,0,0,0-.06.51C210.13,35.38,210.12,35.54,210.12,35.68Z"/><path d="M214.05,33.89a1.15,1.15,0,0,1,.33-.81,1,1,0,0,1,.37-.24,1,1,0,0,1,.44-.09,1.13,1.13,0,0,1,.45.09,1,1,0,0,1,.36.24,1,1,0,0,1,.25.36,1.17,1.17,0,0,1,0,.9,1.23,1.23,0,0,1-.61.61,1.13,1.13,0,0,1-.45.09,1.15,1.15,0,0,1-.81-.34,1.15,1.15,0,0,1-.33-.81Zm.43,0a.79.79,0,0,0,.05.25,1.14,1.14,0,0,0,.15.23.62.62,0,0,0,.22.17.72.72,0,0,0,.29.06.68.68,0,0,0,.52-.23.79.79,0,0,0,.14-.23.65.65,0,0,0,0-.5.79.79,0,0,0-.14-.23.81.81,0,0,0-.23-.17.65.65,0,0,0-.29-.06.72.72,0,0,0-.29.06.76.76,0,0,0-.22.17,1.14,1.14,0,0,0-.15.23A.79.79,0,0,0,214.48,33.89Z"/><path d="M93.61,38.51h-.67v-4.8h0l-1,.85-.4-.48L93,32.84h.58Z"/><path d="M98.92,33.47H96.61l0,1.53a1,1,0,0,1,.35-.11l.37,0a1.91,1.91,0,0,1,.74.14,1.65,1.65,0,0,1,.58.39A1.71,1.71,0,0,1,99,36a2,2,0,0,1,.13.74,2,2,0,0,1-.15.78,1.71,1.71,0,0,1-.4.59,2,2,0,0,1-.62.38,2.15,2.15,0,0,1-.77.13,1.78,1.78,0,0,1-1.05-.28,1.85,1.85,0,0,1-.62-.75l.67-.25a1.16,1.16,0,0,0,.42.51,1.05,1.05,0,0,0,.63.2,1.28,1.28,0,0,0,.48-.09,1.23,1.23,0,0,0,.64-.68,1.33,1.33,0,0,0,.1-.54,1.38,1.38,0,0,0-.11-.55,1.18,1.18,0,0,0-.29-.4,1.41,1.41,0,0,0-.45-.25,1.63,1.63,0,0,0-.55-.08,1.78,1.78,0,0,0-.59.1,2.58,2.58,0,0,0-.56.25l0-2.95h3Z"/><path d="M99.88,35.68a7,7,0,0,1,.08-1,3.11,3.11,0,0,1,.3-1,1.94,1.94,0,0,1,.59-.71,1.55,1.55,0,0,1,1-.27,1.6,1.6,0,0,1,1,.27,2,2,0,0,1,.59.71,3.1,3.1,0,0,1,.29,1,5.77,5.77,0,0,1,.08,1,5.85,5.85,0,0,1-.08,1,3.13,3.13,0,0,1-.29.94,2,2,0,0,1-.59.71,1.6,1.6,0,0,1-1,.27,1.55,1.55,0,0,1-1-.27,1.94,1.94,0,0,1-.59-.71,3.14,3.14,0,0,1-.3-.94A7.07,7.07,0,0,1,99.88,35.68Zm.67,0c0,.13,0,.29,0,.46a4.88,4.88,0,0,0,.06.52,2.83,2.83,0,0,0,.13.5,1.4,1.4,0,0,0,.22.44,1.24,1.24,0,0,0,.34.31,1,1,0,0,0,.48.12.9.9,0,0,0,.48-.12,1,1,0,0,0,.34-.31,1.41,1.41,0,0,0,.23-.44,4.05,4.05,0,0,0,.12-.5,4.88,4.88,0,0,0,.06-.52c0-.17,0-.33,0-.46s0-.3,0-.47a4.43,4.43,0,0,0-.06-.51,3.81,3.81,0,0,0-.12-.51,1.53,1.53,0,0,0-.23-.44,1,1,0,0,0-.34-.31.9.9,0,0,0-.48-.12,1,1,0,0,0-.48.12,1.24,1.24,0,0,0-.34.31,1.51,1.51,0,0,0-.22.44,2.72,2.72,0,0,0-.13.51,4.43,4.43,0,0,0-.06.51C100.56,35.38,100.55,35.54,100.55,35.68Z"/><path d="M104.48,33.89a1.15,1.15,0,0,1,1.15-1.14,1,1,0,0,1,.44.09,1.12,1.12,0,0,1,.37.24,1.16,1.16,0,0,1,0,1.62,1.15,1.15,0,0,1-.37.25,1,1,0,0,1-.44.09,1.13,1.13,0,0,1-.45-.09,1.15,1.15,0,0,1-.37-.25,1.15,1.15,0,0,1-.33-.81Zm.43,0a.61.61,0,0,0,.06.25.79.79,0,0,0,.14.23.72.72,0,0,0,.22.17.73.73,0,0,0,.3.06.72.72,0,0,0,.29-.06.62.62,0,0,0,.22-.17,1.14,1.14,0,0,0,.15-.23.65.65,0,0,0,0-.5,1.14,1.14,0,0,0-.15-.23.76.76,0,0,0-.22-.17.72.72,0,0,0-.29-.06.73.73,0,0,0-.3.06.92.92,0,0,0-.22.17.79.79,0,0,0-.14.23A.61.61,0,0,0,104.91,33.89Z"/><path d="M248.75,192.45v0a1.35,1.35,0,0,1,.37-.13,2,2,0,0,1,.39,0,1.73,1.73,0,0,1,.69.13,1.42,1.42,0,0,1,.54.36,1.85,1.85,0,0,1,.36.57,2,2,0,0,1,.12.72,1.78,1.78,0,0,1-.14.74,1.74,1.74,0,0,1-.4.56,2,2,0,0,1-.6.35,2.36,2.36,0,0,1-.75.12,2.27,2.27,0,0,1-.75-.12,2,2,0,0,1-.6-.35,1.6,1.6,0,0,1-.4-.56,1.78,1.78,0,0,1-.15-.74,2.24,2.24,0,0,1,.15-.86,5.28,5.28,0,0,1,.39-.74l1.5-2.39h.79Zm.59.43a1.23,1.23,0,0,0-.87.32,1,1,0,0,0-.26.38,1.31,1.31,0,0,0-.1.5,1.35,1.35,0,0,0,.1.5,1.08,1.08,0,0,0,.26.37,1,1,0,0,0,.39.24,1.32,1.32,0,0,0,1,0,1,1,0,0,0,.39-.24,1.23,1.23,0,0,0,.26-.37,1.35,1.35,0,0,0,.09-.5,1.31,1.31,0,0,0-.09-.5,1.16,1.16,0,0,0-.26-.38,1.23,1.23,0,0,0-.87-.32Z"/><path d="M251.82,192.92a7.07,7.07,0,0,1,.08-1,3.13,3.13,0,0,1,.29-.94,2,2,0,0,1,.59-.71,1.6,1.6,0,0,1,1-.27,1.55,1.55,0,0,1,.95.27,1.94,1.94,0,0,1,.59.71,2.88,2.88,0,0,1,.3.94,7.07,7.07,0,0,1,.08,1,7,7,0,0,1-.08,1,2.86,2.86,0,0,1-.3,1,1.94,1.94,0,0,1-.59.71,1.55,1.55,0,0,1-.95.27,1.6,1.6,0,0,1-1-.27,2,2,0,0,1-.59-.71,3.1,3.1,0,0,1-.29-1A7,7,0,0,1,251.82,192.92Zm.67,0c0,.14,0,.3,0,.47a4.43,4.43,0,0,0,.06.51,3.81,3.81,0,0,0,.12.51,1.83,1.83,0,0,0,.23.44,1,1,0,0,0,.34.31.9.9,0,0,0,.48.12,1,1,0,0,0,.48-.12,1.24,1.24,0,0,0,.34-.31,1.51,1.51,0,0,0,.22-.44,2.72,2.72,0,0,0,.13-.51,4.43,4.43,0,0,0,.06-.51c0-.17,0-.33,0-.47s0-.29,0-.46a4.88,4.88,0,0,0-.06-.52,2.83,2.83,0,0,0-.13-.5,1.4,1.4,0,0,0-.22-.44,1.1,1.1,0,0,0-.34-.31,1,1,0,0,0-.48-.12.9.9,0,0,0-.48.12.92.92,0,0,0-.34.31,1.66,1.66,0,0,0-.23.44,4.05,4.05,0,0,0-.12.5,4.88,4.88,0,0,0-.06.52C252.5,192.63,252.49,192.79,252.49,192.92Z"/><path d="M256.42,191.14a1.15,1.15,0,0,1,.33-.81,1.05,1.05,0,0,1,.37-.25,1.23,1.23,0,0,1,.44-.08,1.33,1.33,0,0,1,.45.08,1.15,1.15,0,0,1,.37.25,1.16,1.16,0,0,1,0,1.62,1.15,1.15,0,0,1-.37.25,1.33,1.33,0,0,1-.45.08,1.23,1.23,0,0,1-.44-.08,1.05,1.05,0,0,1-.37-.25,1.15,1.15,0,0,1-.33-.81Zm.43,0a.79.79,0,0,0,0,.25,1.14,1.14,0,0,0,.15.23.62.62,0,0,0,.22.17.72.72,0,0,0,.29.06.68.68,0,0,0,.52-.23.79.79,0,0,0,.14-.23.65.65,0,0,0,0-.5.79.79,0,0,0-.14-.23.68.68,0,0,0-.52-.23.72.72,0,0,0-.29.06.62.62,0,0,0-.22.17,1.14,1.14,0,0,0-.15.23A.79.79,0,0,0,256.85,191.14Z"/><path d="M250,81.22h-.67v-4.8h0l-1,.86-.4-.49,1.52-1.23H250Z"/><path d="M251.92,80.45l2.13-2.08c.13-.12.25-.24.35-.35a2.16,2.16,0,0,0,.25-.32,1.09,1.09,0,0,0,.15-.33,1.38,1.38,0,0,0,0-.37,1,1,0,0,0-.08-.4.84.84,0,0,0-.22-.3.78.78,0,0,0-.33-.19,1.05,1.05,0,0,0-.4-.07,1,1,0,0,0-.71.25,1.08,1.08,0,0,0-.36.65l-.73-.06a1.83,1.83,0,0,1,.21-.61,1.41,1.41,0,0,1,.39-.45,2,2,0,0,1,.53-.27,2.25,2.25,0,0,1,.64-.09,2.41,2.41,0,0,1,.67.1,1.92,1.92,0,0,1,.55.29,1.44,1.44,0,0,1,.51,1.15,2,2,0,0,1-.09.61,2,2,0,0,1-.25.5,3.47,3.47,0,0,1-.35.43l-.41.4-1.75,1.64v0h2.89v.62h-3.64Z"/><path d="M256.27,78.39a5.85,5.85,0,0,1,.08-1,3.19,3.19,0,0,1,.29-1,2,2,0,0,1,.59-.7,1.54,1.54,0,0,1,1-.28,1.51,1.51,0,0,1,.95.28,1.91,1.91,0,0,1,.59.7,3.2,3.2,0,0,1,.3,1,6.29,6.29,0,0,1,0,2,3.2,3.2,0,0,1-.3,1,1.91,1.91,0,0,1-.59.7,1.51,1.51,0,0,1-.95.28,1.54,1.54,0,0,1-1-.28,2,2,0,0,1-.59-.7,3.19,3.19,0,0,1-.29-1A5.85,5.85,0,0,1,256.27,78.39Zm.67,0a3.78,3.78,0,0,0,0,.46c0,.17,0,.35.05.52a4.77,4.77,0,0,0,.13.51,1.67,1.67,0,0,0,.23.44,1,1,0,0,0,.34.31,1,1,0,0,0,.48.11,1.06,1.06,0,0,0,.48-.11,1.24,1.24,0,0,0,.34-.31,2,2,0,0,0,.22-.44,3.18,3.18,0,0,0,.13-.51,4.6,4.6,0,0,0,.06-.52c0-.17,0-.32,0-.46s0-.29,0-.46a4.35,4.35,0,0,0-.06-.52,3.18,3.18,0,0,0-.13-.51,2,2,0,0,0-.22-.44,1.24,1.24,0,0,0-.34-.31,1.06,1.06,0,0,0-.48-.11,1,1,0,0,0-.48.11,1,1,0,0,0-.34.31,1.67,1.67,0,0,0-.23.44,4.77,4.77,0,0,0-.13.51c0,.17,0,.34-.05.52A3.78,3.78,0,0,0,256.94,78.39Z"/><path d="M260.87,76.61a1.13,1.13,0,0,1,.09-.45,1,1,0,0,1,.24-.37,1.16,1.16,0,0,1,1.62,0,1.15,1.15,0,0,1,.25.37,1.13,1.13,0,0,1,.09.45,1,1,0,0,1-.09.44,1.15,1.15,0,0,1-.25.37,1.16,1.16,0,0,1-1.62,0,1,1,0,0,1-.24-.37A1,1,0,0,1,260.87,76.61Zm.43,0a.69.69,0,0,0,.05.24.75.75,0,0,0,.15.24.6.6,0,0,0,.22.16.64.64,0,0,0,.58,0,.63.63,0,0,0,.23-.16.72.72,0,0,0,.14-.24.52.52,0,0,0,.05-.24.56.56,0,0,0-.05-.25.59.59,0,0,0-.14-.23.66.66,0,0,0-.23-.17.64.64,0,0,0-.58,0,.62.62,0,0,0-.22.17.61.61,0,0,0-.15.23A.74.74,0,0,0,261.3,76.61Z"/><path d="M40.39,192.45v0a1.42,1.42,0,0,1,.38-.13,1.84,1.84,0,0,1,.39,0,1.72,1.72,0,0,1,.68.13,1.42,1.42,0,0,1,.54.36,1.85,1.85,0,0,1,.36.57,2,2,0,0,1,.13.72,1.78,1.78,0,0,1-.15.74,1.6,1.6,0,0,1-.4.56,2,2,0,0,1-.6.35,2.4,2.4,0,0,1-1.5,0,2,2,0,0,1-.6-.35,1.6,1.6,0,0,1-.4-.56,1.78,1.78,0,0,1-.15-.74,2.24,2.24,0,0,1,.16-.86,5.19,5.19,0,0,1,.38-.74l1.5-2.39h.79Zm.59.43a1.23,1.23,0,0,0-.87.32,1.16,1.16,0,0,0-.26.38,1.31,1.31,0,0,0-.09.5,1.35,1.35,0,0,0,.09.5,1.23,1.23,0,0,0,.26.37,1,1,0,0,0,.39.24,1.32,1.32,0,0,0,1,0,1,1,0,0,0,.39-.24,1.23,1.23,0,0,0,.26-.37,1.35,1.35,0,0,0,.1-.5,1.31,1.31,0,0,0-.1-.5,1.16,1.16,0,0,0-.26-.38,1.23,1.23,0,0,0-.87-.32Z"/><path d="M43.46,192.92a7.07,7.07,0,0,1,.08-1,2.88,2.88,0,0,1,.3-.94,1.94,1.94,0,0,1,.59-.71,1.55,1.55,0,0,1,1-.27,1.6,1.6,0,0,1,1,.27,2,2,0,0,1,.59.71,3.13,3.13,0,0,1,.29.94,7.07,7.07,0,0,1,.08,1,7,7,0,0,1-.08,1,3.1,3.1,0,0,1-.29,1,2,2,0,0,1-.59.71,1.6,1.6,0,0,1-1,.27,1.55,1.55,0,0,1-1-.27,1.94,1.94,0,0,1-.59-.71,2.86,2.86,0,0,1-.3-1A7,7,0,0,1,43.46,192.92Zm.67,0c0,.14,0,.3,0,.47a4.43,4.43,0,0,0,.06.51,2.72,2.72,0,0,0,.13.51,1.51,1.51,0,0,0,.22.44,1.12,1.12,0,0,0,.34.31,1,1,0,0,0,1,0,1.12,1.12,0,0,0,.34-.31,1.83,1.83,0,0,0,.23-.44,3.81,3.81,0,0,0,.12-.51,4.43,4.43,0,0,0,.06-.51c0-.17,0-.33,0-.47s0-.29,0-.46a4.88,4.88,0,0,0-.06-.52,4.05,4.05,0,0,0-.12-.5,1.66,1.66,0,0,0-.23-.44,1,1,0,0,0-.34-.31,1,1,0,0,0-1,0,1,1,0,0,0-.34.31,1.4,1.4,0,0,0-.22.44,2.83,2.83,0,0,0-.13.5,4.88,4.88,0,0,0-.06.52C44.14,192.63,44.13,192.79,44.13,192.92Z"/><path d="M48.06,191.14a1.15,1.15,0,0,1,.33-.81,1.15,1.15,0,0,1,.37-.25,1.33,1.33,0,0,1,.45-.08,1.27,1.27,0,0,1,.44.08,1.15,1.15,0,0,1,.37.25A1.16,1.16,0,0,1,50,192a1.15,1.15,0,0,1-.37.25,1.27,1.27,0,0,1-.44.08,1.33,1.33,0,0,1-.45-.08,1.15,1.15,0,0,1-.37-.25,1.15,1.15,0,0,1-.33-.81Zm.43,0a.61.61,0,0,0,.06.25.79.79,0,0,0,.14.23.72.72,0,0,0,.22.17.73.73,0,0,0,.3.06.72.72,0,0,0,.29-.06.62.62,0,0,0,.22-.17,1.14,1.14,0,0,0,.15-.23.65.65,0,0,0,0-.5,1.14,1.14,0,0,0-.15-.23.62.62,0,0,0-.22-.17.72.72,0,0,0-.29-.06.73.73,0,0,0-.3.06.72.72,0,0,0-.22.17.79.79,0,0,0-.14.23A.61.61,0,0,0,48.49,191.14Z"/><path d="M39.15,81.22h-.67v-4.8h0l-1,.86-.4-.49,1.52-1.23h.58Z"/><path d="M41.07,80.45l2.14-2.08c.13-.12.25-.24.35-.35a2.16,2.16,0,0,0,.25-.32,1.09,1.09,0,0,0,.15-.33A1.38,1.38,0,0,0,44,77a1,1,0,0,0-.08-.4.84.84,0,0,0-.22-.3.78.78,0,0,0-.33-.19A1.05,1.05,0,0,0,43,76a1,1,0,0,0-.72.25,1.19,1.19,0,0,0-.36.65l-.72-.06a1.47,1.47,0,0,1,.21-.61,1.41,1.41,0,0,1,.39-.45,2,2,0,0,1,.53-.27,2.2,2.2,0,0,1,.64-.09,2.41,2.41,0,0,1,.67.1,2.06,2.06,0,0,1,.55.29,1.47,1.47,0,0,1,.37.48,1.6,1.6,0,0,1,.14.67,2,2,0,0,1-.09.61,2.34,2.34,0,0,1-.25.5,3.47,3.47,0,0,1-.35.43l-.41.4-1.75,1.64v0h2.89v.62H41.07Z"/><path d="M45.43,78.39a7,7,0,0,1,.07-1,3.52,3.52,0,0,1,.3-1,2,2,0,0,1,.59-.7,1.77,1.77,0,0,1,1.91,0,1.91,1.91,0,0,1,.59.7,3.52,3.52,0,0,1,.3,1,6.29,6.29,0,0,1,0,2,3.52,3.52,0,0,1-.3,1,1.91,1.91,0,0,1-.59.7,1.77,1.77,0,0,1-1.91,0,2,2,0,0,1-.59-.7,3.52,3.52,0,0,1-.3-1A7,7,0,0,1,45.43,78.39Zm.67,0c0,.14,0,.29,0,.46a4.6,4.6,0,0,0,.06.52,4.77,4.77,0,0,0,.13.51,2,2,0,0,0,.22.44,1.15,1.15,0,0,0,.35.31,1,1,0,0,0,.48.11,1.06,1.06,0,0,0,.48-.11,1.24,1.24,0,0,0,.34-.31,2,2,0,0,0,.22-.44,3.18,3.18,0,0,0,.13-.51,4.6,4.6,0,0,0,.06-.52c0-.17,0-.32,0-.46s0-.29,0-.46a4.35,4.35,0,0,0-.06-.52,3.18,3.18,0,0,0-.13-.51,2,2,0,0,0-.22-.44,1.24,1.24,0,0,0-.34-.31,1.06,1.06,0,0,0-.48-.11,1,1,0,0,0-.48.11,1.15,1.15,0,0,0-.35.31,2,2,0,0,0-.22.44,4.77,4.77,0,0,0-.13.51,4.35,4.35,0,0,0-.06.52C46.1,78.1,46.1,78.25,46.1,78.39Z"/><path d="M50,76.61a1.12,1.12,0,0,1,.08-.45,1.15,1.15,0,0,1,.25-.37,1.16,1.16,0,0,1,1.62,0,1.15,1.15,0,0,1,.25.37,1.33,1.33,0,0,1,.08.45,1.23,1.23,0,0,1-.08.44,1.15,1.15,0,0,1-.25.37,1.16,1.16,0,0,1-1.62,0,1.15,1.15,0,0,1-.25-.37A1,1,0,0,1,50,76.61Zm.43,0a.52.52,0,0,0,0,.24.72.72,0,0,0,.14.24.63.63,0,0,0,.23.16.64.64,0,0,0,.58,0,.73.73,0,0,0,.23-.16,1,1,0,0,0,.14-.24.69.69,0,0,0,.05-.24.75.75,0,0,0-.19-.48.76.76,0,0,0-.23-.17.64.64,0,0,0-.58,0,.66.66,0,0,0-.23.17.59.59,0,0,0-.14.23A.56.56,0,0,0,50.46,76.61Z"/></g><g id="numeri_fondo_tabella" data-name="numeri fondo tabella"><path d="M131.83,251.42a1.17,1.17,0,0,0-.43-.35,1.19,1.19,0,0,0-.51-.11,1.35,1.35,0,0,0-.55.11,1.08,1.08,0,0,0-.4.3,1.32,1.32,0,0,0-.23.44,1.76,1.76,0,0,0,0,1.08,1.43,1.43,0,0,0,.26.45,1.31,1.31,0,0,0,.39.3,1.27,1.27,0,0,0,.52.1,1.09,1.09,0,0,0,1-.46l.47.44a1.69,1.69,0,0,1-.64.46,2.29,2.29,0,0,1-.78.14,2.22,2.22,0,0,1-.79-.14,1.75,1.75,0,0,1-1-1,2.27,2.27,0,0,1,0-1.57,1.86,1.86,0,0,1,.39-.63,2,2,0,0,1,.61-.41,2,2,0,0,1,.79-.15,2.09,2.09,0,0,1,.79.15,1.59,1.59,0,0,1,.65.45Z"/><path d="M136.21,253.56h0a1.43,1.43,0,0,1-.55.54,1.7,1.7,0,0,1-.89.22,1.8,1.8,0,0,1-.73-.15,1.78,1.78,0,0,1-.6-.41,1.81,1.81,0,0,1-.39-.62,2.06,2.06,0,0,1-.15-.79,2,2,0,0,1,.15-.78,1.88,1.88,0,0,1,.4-.63,1.81,1.81,0,0,1,.62-.41,2.07,2.07,0,0,1,.8-.15,1.72,1.72,0,0,1,.75.17,1.78,1.78,0,0,1,.59.47h0v-2.84h.62v6h-.62Zm0-1.21a1.63,1.63,0,0,0-.09-.55,1.34,1.34,0,0,0-.27-.44,1.37,1.37,0,0,0-.42-.29,1.35,1.35,0,0,0-.55-.11,1.42,1.42,0,0,0-.55.11,1.22,1.22,0,0,0-.41.29,1.34,1.34,0,0,0-.27.44,1.56,1.56,0,0,0,0,1.1,1.25,1.25,0,0,0,.27.44,1.19,1.19,0,0,0,1,.4,1.35,1.35,0,0,0,.55-.1,1.6,1.6,0,0,0,.42-.3,1.25,1.25,0,0,0,.27-.44A1.63,1.63,0,0,0,136.21,252.35Z"/><path d="M140.1,254.57l-.5-.2,2.4-6.15.51.2Z"/><path d="M147.64,254.22H147v-4.8h0l-1,.86-.4-.49,1.52-1.23h.59Z"/><path d="M149.46,251.39a7.07,7.07,0,0,1,.08-1,3.19,3.19,0,0,1,.29-.95,2,2,0,0,1,.59-.7,1.61,1.61,0,0,1,1-.28,1.55,1.55,0,0,1,1,.28,1.91,1.91,0,0,1,.59.7,2.94,2.94,0,0,1,.3.95,6.29,6.29,0,0,1,0,2,2.94,2.94,0,0,1-.3,1,1.91,1.91,0,0,1-.59.7,1.49,1.49,0,0,1-1,.28,1.54,1.54,0,0,1-1-.28,2,2,0,0,1-.59-.7,3.19,3.19,0,0,1-.29-1A7.07,7.07,0,0,1,149.46,251.39Zm.67,0c0,.14,0,.29,0,.47a4.43,4.43,0,0,0,.06.51,4.7,4.7,0,0,0,.12.51,2,2,0,0,0,.23.44,1.12,1.12,0,0,0,.34.31,1.1,1.1,0,0,0,1,0,1.12,1.12,0,0,0,.34-.31,1.65,1.65,0,0,0,.22-.44,3.18,3.18,0,0,0,.13-.51,4.43,4.43,0,0,0,.06-.51c0-.18,0-.33,0-.47s0-.29,0-.46a4.6,4.6,0,0,0-.06-.52,3.18,3.18,0,0,0-.13-.51,1.65,1.65,0,0,0-.22-.44,1.08,1.08,0,0,0-.34-.3,1,1,0,0,0-1,0,1.08,1.08,0,0,0-.34.3,2,2,0,0,0-.23.44,4.7,4.7,0,0,0-.12.51,4.6,4.6,0,0,0-.06.52C150.14,251.1,150.13,251.25,150.13,251.39Z"/><path d="M153.91,251.39a5.85,5.85,0,0,1,.08-1,3.19,3.19,0,0,1,.29-.95,2,2,0,0,1,.59-.7,1.61,1.61,0,0,1,1-.28,1.55,1.55,0,0,1,.95.28,1.91,1.91,0,0,1,.59.7,3.2,3.2,0,0,1,.3.95,6.29,6.29,0,0,1,0,2,3.2,3.2,0,0,1-.3,1,1.91,1.91,0,0,1-.59.7,1.49,1.49,0,0,1-.95.28,1.54,1.54,0,0,1-1-.28,2,2,0,0,1-.59-.7,3.19,3.19,0,0,1-.29-1A5.85,5.85,0,0,1,153.91,251.39Zm.67,0a4,4,0,0,0,0,.47,4.43,4.43,0,0,0,.06.51,3.14,3.14,0,0,0,.12.51,1.67,1.67,0,0,0,.23.44,1,1,0,0,0,.34.31.9.9,0,0,0,.48.11,1,1,0,0,0,.48-.11,1.24,1.24,0,0,0,.34-.31,1.65,1.65,0,0,0,.22-.44,3.18,3.18,0,0,0,.13-.51,4.43,4.43,0,0,0,.06-.51c0-.18,0-.33,0-.47s0-.29,0-.46a4.6,4.6,0,0,0-.06-.52,3.18,3.18,0,0,0-.13-.51,1.65,1.65,0,0,0-.22-.44,1.21,1.21,0,0,0-.34-.3,1,1,0,0,0-.48-.12.9.9,0,0,0-.48.12,1,1,0,0,0-.34.3,1.67,1.67,0,0,0-.23.44,3.14,3.14,0,0,0-.12.51,4.6,4.6,0,0,0-.06.52A3.78,3.78,0,0,0,154.58,251.39Z"/><path d="M158.31,251.39a5.85,5.85,0,0,1,.08-1,3.19,3.19,0,0,1,.29-.95,2,2,0,0,1,.59-.7,1.61,1.61,0,0,1,1-.28,1.55,1.55,0,0,1,1,.28,1.91,1.91,0,0,1,.59.7,3.2,3.2,0,0,1,.3.95,6.29,6.29,0,0,1,0,2,3.2,3.2,0,0,1-.3,1,1.91,1.91,0,0,1-.59.7,1.49,1.49,0,0,1-1,.28,1.54,1.54,0,0,1-1-.28,2,2,0,0,1-.59-.7,3.19,3.19,0,0,1-.29-1A5.85,5.85,0,0,1,158.31,251.39Zm.67,0c0,.14,0,.29,0,.47a4.43,4.43,0,0,0,.06.51,3.14,3.14,0,0,0,.12.51,1.67,1.67,0,0,0,.23.44,1,1,0,0,0,.34.31.9.9,0,0,0,.48.11,1,1,0,0,0,.48-.11,1.24,1.24,0,0,0,.34-.31,1.65,1.65,0,0,0,.22-.44,3.18,3.18,0,0,0,.13-.51,4.43,4.43,0,0,0,.06-.51c0-.18,0-.33,0-.47s0-.29,0-.46a4.6,4.6,0,0,0-.06-.52,3.18,3.18,0,0,0-.13-.51,1.65,1.65,0,0,0-.22-.44,1.21,1.21,0,0,0-.34-.3,1,1,0,0,0-.48-.12.9.9,0,0,0-.48.12,1,1,0,0,0-.34.3,1.67,1.67,0,0,0-.23.44,3.14,3.14,0,0,0-.12.51,4.6,4.6,0,0,0-.06.52C159,251.1,159,251.25,159,251.39Z"/><path d="M165.32,248.18H166v6h-.63Z"/><path d="M167.19,251.37c0-.17,0-.33,0-.48s0-.29,0-.41h.59c0,.1,0,.2,0,.3v.32h0a.91.91,0,0,1,.18-.27,1.64,1.64,0,0,1,.28-.23,1.5,1.5,0,0,1,.36-.16,1.44,1.44,0,0,1,.43-.06,1.52,1.52,0,0,1,.51.08,1.36,1.36,0,0,1,.34.18.93.93,0,0,1,.21.24,1.64,1.64,0,0,1,.12.22,1.78,1.78,0,0,1,.48-.53,1.27,1.27,0,0,1,.71-.19,1.88,1.88,0,0,1,.67.11,1.1,1.1,0,0,1,.44.31,1.37,1.37,0,0,1,.24.5,2.59,2.59,0,0,1,.07.65v2.27h-.62V252a2.33,2.33,0,0,0,0-.37,1,1,0,0,0-.15-.33.71.71,0,0,0-.28-.23,1,1,0,0,0-.45-.09,1,1,0,0,0-.37.08,1,1,0,0,0-.31.22,1.13,1.13,0,0,0-.21.35,1.33,1.33,0,0,0-.07.45v2.16h-.63V252.1a1.62,1.62,0,0,0-.17-.88A.6.6,0,0,0,169,251a1.18,1.18,0,0,0-.52.1.88.88,0,0,0-.36.3,1.14,1.14,0,0,0-.21.46,2.1,2.1,0,0,0-.07.58v1.82h-.62Z"/><line class="cls-1" x1="38.21" y1="253" x2="46.2" y2="253"/><path d="M235.17,251a1.66,1.66,0,0,0-.63-.52,1.93,1.93,0,0,0-.79-.17,2.13,2.13,0,0,0-.87.19,2.16,2.16,0,0,0-.68.52,2.58,2.58,0,0,0-.45.75,2.69,2.69,0,0,0-.16.89,2.79,2.79,0,0,0,.16.93,2.41,2.41,0,0,0,.45.74,2,2,0,0,0,.68.5,1.92,1.92,0,0,0,.87.19,2,2,0,0,0,1.64-.8l.51.43a2.38,2.38,0,0,1-.93.75,3,3,0,0,1-1.22.24,2.85,2.85,0,0,1-1.13-.22,2.82,2.82,0,0,1-.92-.62,3,3,0,0,1-.61-.94,3.33,3.33,0,0,1-.22-1.2,3.19,3.19,0,0,1,.21-1.16,2.9,2.9,0,0,1,.6-1,3.08,3.08,0,0,1,.91-.63,3,3,0,0,1,2.27,0,2,2,0,0,1,.89.68Z"/><path d="M239,253.1l0,0a1.35,1.35,0,0,1-.37.13,2.87,2.87,0,0,1-.39,0,1.68,1.68,0,0,1-.68-.13,1.5,1.5,0,0,1-.55-.36,1.92,1.92,0,0,1-.36-.56,2.11,2.11,0,0,1-.12-.73,1.75,1.75,0,0,1,.14-.74,1.63,1.63,0,0,1,.4-.56,1.79,1.79,0,0,1,.6-.35,2.36,2.36,0,0,1,.75-.12,2.27,2.27,0,0,1,.75.12,1.94,1.94,0,0,1,.61.35,1.49,1.49,0,0,1,.39.56,1.75,1.75,0,0,1,.15.74,2.19,2.19,0,0,1,0,.46c0,.14-.07.27-.11.4a2.53,2.53,0,0,1-.18.37,3.35,3.35,0,0,1-.21.36l-1.5,2.4h-.79Zm-.6-.43a1.51,1.51,0,0,0,.48-.08,1.28,1.28,0,0,0,.39-.24,1.12,1.12,0,0,0,.26-.38,1.27,1.27,0,0,0,.1-.5,1.26,1.26,0,0,0-.1-.49,1,1,0,0,0-.26-.38,1,1,0,0,0-.39-.24,1.33,1.33,0,0,0-1,0,.88.88,0,0,0-.38.24,1.19,1.19,0,0,0-.27.38,1.26,1.26,0,0,0-.09.49,1.28,1.28,0,0,0,.09.5,1.31,1.31,0,0,0,.27.38,1.12,1.12,0,0,0,.38.24A1.51,1.51,0,0,0,238.35,252.67Z"/><path d="M240.88,252.62a7.07,7.07,0,0,1,.08-1,2.88,2.88,0,0,1,.3-.94,2,2,0,0,1,.58-.71,1.84,1.84,0,0,1,1.92,0,2,2,0,0,1,.58.71,2.88,2.88,0,0,1,.3.94,7.07,7.07,0,0,1,.08,1,7,7,0,0,1-.08,1,2.86,2.86,0,0,1-.3.95,2,2,0,0,1-.58.71,1.84,1.84,0,0,1-1.92,0,2,2,0,0,1-.58-.71,2.86,2.86,0,0,1-.3-.95A7,7,0,0,1,240.88,252.62Zm.67,0c0,.14,0,.3,0,.47a4.43,4.43,0,0,0,.06.51,2.72,2.72,0,0,0,.13.51,1.51,1.51,0,0,0,.22.44,1.12,1.12,0,0,0,.34.31,1,1,0,0,0,1,0,1.12,1.12,0,0,0,.34-.31,1.51,1.51,0,0,0,.22-.44,2.72,2.72,0,0,0,.13-.51,4.43,4.43,0,0,0,.06-.51c0-.17,0-.33,0-.47s0-.29,0-.46a4.88,4.88,0,0,0-.06-.52,2.83,2.83,0,0,0-.13-.5,1.4,1.4,0,0,0-.22-.44,1.12,1.12,0,0,0-.34-.31,1,1,0,0,0-1,0,1.12,1.12,0,0,0-.34.31,1.4,1.4,0,0,0-.22.44,2.83,2.83,0,0,0-.13.5,4.88,4.88,0,0,0-.06.52C241.56,252.33,241.55,252.49,241.55,252.62Z"/><path d="M247.78,255.8l-.51-.2,2.41-6.14.5.19Z"/><path d="M257.1,251a1.66,1.66,0,0,0-.63-.52,1.92,1.92,0,0,0-.78-.17,2.06,2.06,0,0,0-.87.19,2.16,2.16,0,0,0-.68.52,2.21,2.21,0,0,0-.45.75,2.46,2.46,0,0,0-.16.89,2.56,2.56,0,0,0,.16.93,2.2,2.2,0,0,0,.44.74,2.1,2.1,0,0,0,.68.5,2,2,0,0,0,.88.19,2,2,0,0,0,.93-.21,2,2,0,0,0,.71-.59l.5.43a2.29,2.29,0,0,1-.92.75,3,3,0,0,1-1.22.24,2.8,2.8,0,0,1-2.05-.84,2.82,2.82,0,0,1-.61-.94,3.13,3.13,0,0,1-.22-1.2,3.19,3.19,0,0,1,.21-1.16,2.75,2.75,0,0,1,.6-1,3,3,0,0,1,.91-.63,2.93,2.93,0,0,1,1.16-.23,3,3,0,0,1,1.11.21,2,2,0,0,1,.89.68Z"/><path d="M258.46,254.69l2.14-2.08.35-.36a1.75,1.75,0,0,0,.25-.32,1,1,0,0,0,.15-.32,1.46,1.46,0,0,0,0-.38,1,1,0,0,0-.08-.4.93.93,0,0,0-.22-.3,1.13,1.13,0,0,0-.73-.26,1,1,0,0,0-.71.25,1.11,1.11,0,0,0-.36.66l-.73-.07a1.91,1.91,0,0,1,.21-.61,1.28,1.28,0,0,1,.39-.44,1.77,1.77,0,0,1,.53-.27,2.25,2.25,0,0,1,.64-.09,2.09,2.09,0,0,1,.67.1,1.53,1.53,0,0,1,.55.29,1.47,1.47,0,0,1,.37.48,1.39,1.39,0,0,1,.14.66,1.91,1.91,0,0,1-.09.61,1.8,1.8,0,0,1-.25.5,2.86,2.86,0,0,1-.35.43l-.41.41-1.75,1.64h2.89v.63h-3.65Z"/><path d="M266.35,250.42l-2.26,5h-.76l2.3-5H262.9v-.63h3.45Z"/><path d="M267.26,252.62a7.07,7.07,0,0,1,.08-1,3.45,3.45,0,0,1,.3-.94,2,2,0,0,1,.59-.71,1.82,1.82,0,0,1,1.91,0,2,2,0,0,1,.59.71,3.45,3.45,0,0,1,.3.94,7,7,0,0,1,.07,1,6.92,6.92,0,0,1-.07,1,3.41,3.41,0,0,1-.3.95,2,2,0,0,1-.59.71,1.82,1.82,0,0,1-1.91,0,2,2,0,0,1-.59-.71,3.41,3.41,0,0,1-.3-.95A7,7,0,0,1,267.26,252.62Zm.68,0c0,.14,0,.3,0,.47a4.43,4.43,0,0,0,.06.51,2.72,2.72,0,0,0,.13.51,1.53,1.53,0,0,0,.23.44,1,1,0,0,0,.34.31.89.89,0,0,0,.47.12,1,1,0,0,0,.49-.12,1.08,1.08,0,0,0,.33-.31,1.53,1.53,0,0,0,.23-.44,2.72,2.72,0,0,0,.13-.51,4.43,4.43,0,0,0,.06-.51c0-.17,0-.33,0-.47s0-.29,0-.46a4.88,4.88,0,0,0-.06-.52,2.83,2.83,0,0,0-.13-.5,1.41,1.41,0,0,0-.23-.44,1.08,1.08,0,0,0-.33-.31,1,1,0,0,0-.49-.12.89.89,0,0,0-.47.12,1,1,0,0,0-.34.31,1.41,1.41,0,0,0-.23.44,2.83,2.83,0,0,0-.13.5,4.88,4.88,0,0,0-.06.52C267.94,252.33,267.94,252.49,267.94,252.62Z"/><path d="M52.87,251a1.55,1.55,0,0,0-.63-.51,1.82,1.82,0,0,0-.79-.18,2,2,0,0,0-.87.2,2.13,2.13,0,0,0-.68.51,2.58,2.58,0,0,0-.45.75,2.67,2.67,0,0,0,0,1.82,2.29,2.29,0,0,0,.45.74,1.88,1.88,0,0,0,.68.5,1.92,1.92,0,0,0,.87.19,2,2,0,0,0,.93-.21,2.07,2.07,0,0,0,.71-.58l.51.42a2.38,2.38,0,0,1-.93.75,3,3,0,0,1-1.22.24,2.85,2.85,0,0,1-1.13-.22,2.82,2.82,0,0,1-.92-.62,3,3,0,0,1-.61-.94,3.27,3.27,0,0,1-.22-1.19,3.2,3.2,0,0,1,.21-1.17,3,3,0,0,1,.6-.95,3.08,3.08,0,0,1,.91-.63,3,3,0,0,1,2.27,0,2,2,0,0,1,.89.68Z"/><path d="M54.13,252.62a7,7,0,0,1,.08-1,3.11,3.11,0,0,1,.3-1,1.94,1.94,0,0,1,.59-.71,1.55,1.55,0,0,1,.95-.27,1.6,1.6,0,0,1,1,.27,2,2,0,0,1,.59.71,3.1,3.1,0,0,1,.29,1,5.77,5.77,0,0,1,.08,1,5.85,5.85,0,0,1-.08,1,3.13,3.13,0,0,1-.29.94,2,2,0,0,1-.59.71,1.6,1.6,0,0,1-1,.27,1.55,1.55,0,0,1-.95-.27,1.94,1.94,0,0,1-.59-.71,3.14,3.14,0,0,1-.3-.94A7.07,7.07,0,0,1,54.13,252.62Zm.67,0c0,.13,0,.29,0,.46a4.88,4.88,0,0,0,.06.52,2.83,2.83,0,0,0,.13.5,1.4,1.4,0,0,0,.22.44,1.1,1.1,0,0,0,.34.31,1,1,0,0,0,.48.12.9.9,0,0,0,.48-.12.92.92,0,0,0,.34-.31,1.41,1.41,0,0,0,.23-.44,2.8,2.8,0,0,0,.12-.5,4.88,4.88,0,0,0,.06-.52,3.86,3.86,0,0,0,0-.46,3.94,3.94,0,0,0,0-.47,4.43,4.43,0,0,0-.06-.51,2.71,2.71,0,0,0-.12-.51,1.53,1.53,0,0,0-.23-.44,1,1,0,0,0-.34-.31.9.9,0,0,0-.48-.12,1,1,0,0,0-.48.12,1.24,1.24,0,0,0-.34.31,1.51,1.51,0,0,0-.22.44,2.72,2.72,0,0,0-.13.51,4.43,4.43,0,0,0-.06.51C54.81,252.32,54.8,252.48,54.8,252.62Z"/><path d="M61,255.79l-.51-.2,2.41-6.14.51.19Z"/><path d="M70.36,251a1.52,1.52,0,0,0-.64-.51,1.78,1.78,0,0,0-.78-.18,2,2,0,0,0-.87.2,2.13,2.13,0,0,0-.68.51,2.58,2.58,0,0,0-.45.75,2.51,2.51,0,0,0-.16.9,2.54,2.54,0,0,0,.16.92,2.46,2.46,0,0,0,.44.74,2.09,2.09,0,0,0,1.56.69,2,2,0,0,0,.93-.21,2.07,2.07,0,0,0,.71-.58l.5.42a2.29,2.29,0,0,1-.92.75,3,3,0,0,1-1.22.24,2.93,2.93,0,0,1-1.14-.22,2.88,2.88,0,0,1-.91-.62,3,3,0,0,1-.61-.94,3.07,3.07,0,0,1-.22-1.19,3.2,3.2,0,0,1,.21-1.17,2.84,2.84,0,0,1,.6-.95,3,3,0,0,1,.91-.63,2.93,2.93,0,0,1,1.16-.23,3,3,0,0,1,1.11.21,2,2,0,0,1,.89.68Z"/><path d="M74.2,255.45h-.68v-4.8h0l-1,.85-.4-.48,1.52-1.24h.59Z"/><path d="M76.37,251.17a1.33,1.33,0,0,1,.13-.61,1.2,1.2,0,0,1,.34-.46,1.44,1.44,0,0,1,.51-.3,1.92,1.92,0,0,1,1.28,0,1.44,1.44,0,0,1,.51.3,1.32,1.32,0,0,1,.34.46,1.48,1.48,0,0,1,.12.61,1.44,1.44,0,0,1-.06.4,1.41,1.41,0,0,1-.18.37,1.18,1.18,0,0,1-.3.29,1,1,0,0,1-.38.19h0a1.44,1.44,0,0,1,.46.19,1.35,1.35,0,0,1,.35.32,1.67,1.67,0,0,1,.23.44,1.7,1.7,0,0,1,.08.51,1.74,1.74,0,0,1-.14.69,1.46,1.46,0,0,1-.39.52,1.47,1.47,0,0,1-.57.33,2.35,2.35,0,0,1-1.42,0,1.59,1.59,0,0,1-.58-.33,1.43,1.43,0,0,1-.38-.52,1.74,1.74,0,0,1-.14-.69,1.7,1.7,0,0,1,.08-.51,1.65,1.65,0,0,1,.22-.44,1.59,1.59,0,0,1,.36-.32,1.44,1.44,0,0,1,.46-.19h0a1.18,1.18,0,0,1-.39-.19,1.33,1.33,0,0,1-.29-.29,1.41,1.41,0,0,1-.18-.37A1.16,1.16,0,0,1,76.37,251.17Zm.48,2.67a1.14,1.14,0,0,0,.09.46,1.21,1.21,0,0,0,.24.35,1.16,1.16,0,0,0,.36.23A1.13,1.13,0,0,0,78,255a1,1,0,0,0,.44-.09,1,1,0,0,0,.36-.23,1.07,1.07,0,0,0,.25-.35,1.36,1.36,0,0,0,0-.92,1.07,1.07,0,0,0-.25-.35,1,1,0,0,0-.36-.23,1,1,0,0,0-.44-.09,1.13,1.13,0,0,0-.45.09,1.16,1.16,0,0,0-.36.23,1.21,1.21,0,0,0-.24.35A1.14,1.14,0,0,0,76.85,253.84ZM77,251.2a.92.92,0,0,0,.26.67.93.93,0,0,0,.69.27.9.9,0,0,0,.68-.27,1,1,0,0,0,0-1.34.9.9,0,0,0-.68-.27.93.93,0,0,0-.69.27A.92.92,0,0,0,77,251.2Z"/><path d="M80.52,252.62a5.77,5.77,0,0,1,.08-1,3.1,3.1,0,0,1,.29-1,2,2,0,0,1,.59-.71,1.6,1.6,0,0,1,1-.27,1.55,1.55,0,0,1,1,.27,1.94,1.94,0,0,1,.59.71,3.41,3.41,0,0,1,.3,1,7,7,0,0,1,.08,1,7.07,7.07,0,0,1-.08,1,3.45,3.45,0,0,1-.3.94,1.94,1.94,0,0,1-.59.71,1.55,1.55,0,0,1-1,.27,1.6,1.6,0,0,1-1-.27,2,2,0,0,1-.59-.71,3.13,3.13,0,0,1-.29-.94A5.85,5.85,0,0,1,80.52,252.62Zm.67,0a3.86,3.86,0,0,0,0,.46c0,.17,0,.34.05.52a4.07,4.07,0,0,0,.13.5,1.41,1.41,0,0,0,.23.44.92.92,0,0,0,.34.31.9.9,0,0,0,.48.12,1,1,0,0,0,.48-.12,1.1,1.1,0,0,0,.34-.31,1.65,1.65,0,0,0,.22-.44,2.83,2.83,0,0,0,.13-.5,4.88,4.88,0,0,0,.06-.52c0-.17,0-.33,0-.46s0-.3,0-.47a4.43,4.43,0,0,0-.06-.51,2.72,2.72,0,0,0-.13-.51,1.81,1.81,0,0,0-.22-.44,1.24,1.24,0,0,0-.34-.31,1,1,0,0,0-.48-.12.9.9,0,0,0-.48.12,1,1,0,0,0-.34.31,1.53,1.53,0,0,0-.23.44,3.8,3.8,0,0,0-.13.51c0,.17,0,.34-.05.51A3.94,3.94,0,0,0,81.19,252.62Z"/><line class="cls-2" x1="214.49" y1="253.42" x2="215.03" y2="253.42"/><line class="cls-2" x1="217.76" y1="253.42" x2="218.3" y2="253.42"/><line class="cls-2" x1="221.02" y1="253.42" x2="221.56" y2="253.42"/><line class="cls-2" x1="224.29" y1="253.42" x2="224.83" y2="253.42"/><line class="cls-2" x1="227.55" y1="253.42" x2="228.09" y2="253.42"/></g><g id="Biagio_F0700000"><rect class="cls-3" x="55" y="41.83" width="189.86" height="189.86"/><circle class="cls-4" cx="149.93" cy="136.7" r="18.95"/><path d="M154.93,160.79h.82v.62h-.82v1.3h-.67v-1.3h-2.4v-.74l2.25-3.63h.82Zm-.67-3h0l-1.8,3h1.82Z"/><path d="M156.28,159.87a7.19,7.19,0,0,1,.08-1,3.45,3.45,0,0,1,.3-.94,1.94,1.94,0,0,1,.59-.71,1.82,1.82,0,0,1,1.91,0,2,2,0,0,1,.59.71,3.13,3.13,0,0,1,.29.94,5.93,5.93,0,0,1,.08,1,5.7,5.7,0,0,1-.08,1,3.1,3.1,0,0,1-.29.95,2,2,0,0,1-.59.71,1.82,1.82,0,0,1-1.91,0,1.94,1.94,0,0,1-.59-.71,3.41,3.41,0,0,1-.3-.95A6.85,6.85,0,0,1,156.28,159.87Zm.68,0c0,.14,0,.3,0,.47a4.88,4.88,0,0,0,.06.52,2.83,2.83,0,0,0,.13.5,1.81,1.81,0,0,0,.22.44,1.24,1.24,0,0,0,.34.31,1,1,0,0,0,.48.12.9.9,0,0,0,.48-.12,1,1,0,0,0,.34-.31,1.53,1.53,0,0,0,.23-.44,4.07,4.07,0,0,0,.13-.5,4.88,4.88,0,0,0,.06-.52c0-.17,0-.33,0-.47s0-.29,0-.46a4.43,4.43,0,0,0-.06-.51,3.8,3.8,0,0,0-.13-.51A1.53,1.53,0,0,0,159,158a1,1,0,0,0-.34-.31.9.9,0,0,0-.48-.12,1,1,0,0,0-.48.12,1.24,1.24,0,0,0-.34.31,1.81,1.81,0,0,0-.22.44,2.72,2.72,0,0,0-.13.51,4.43,4.43,0,0,0-.06.51C157,159.58,157,159.74,157,159.87Z"/><circle class="cls-4" cx="149.93" cy="136.7" r="37.91"/><path d="M152.19,177.38a1.51,1.51,0,0,1,.12-.61,1.41,1.41,0,0,1,.34-.46,1.63,1.63,0,0,1,.51-.3,1.91,1.91,0,0,1,.64-.11,1.87,1.87,0,0,1,.64.11,1.44,1.44,0,0,1,.86.76,1.51,1.51,0,0,1,.12.61,1.39,1.39,0,0,1-.06.4,1.62,1.62,0,0,1-.19.37,1.14,1.14,0,0,1-.29.29,1,1,0,0,1-.39.19h0a1.5,1.5,0,0,1,.47.19,1.56,1.56,0,0,1,.35.33,1.45,1.45,0,0,1,.22.43,1.7,1.7,0,0,1,.08.51,1.52,1.52,0,0,1-.14.69,1.56,1.56,0,0,1-.38.53,1.64,1.64,0,0,1-.58.32,2.08,2.08,0,0,1-.71.12,2,2,0,0,1-.7-.12,1.64,1.64,0,0,1-.58-.32,1.56,1.56,0,0,1-.38-.53,1.52,1.52,0,0,1-.14-.69,1.44,1.44,0,0,1,.08-.51,1.25,1.25,0,0,1,.22-.43,1.37,1.37,0,0,1,.35-.33,1.5,1.5,0,0,1,.47-.19h0a1,1,0,0,1-.39-.19,1.14,1.14,0,0,1-.29-.29,1.3,1.3,0,0,1-.19-.37A1.39,1.39,0,0,1,152.19,177.38Zm.48,2.67a1.14,1.14,0,0,0,.09.46.88.88,0,0,0,.24.35,1.13,1.13,0,0,0,.36.24,1.27,1.27,0,0,0,.44.08,1.33,1.33,0,0,0,.45-.08,1.41,1.41,0,0,0,.36-.24,1,1,0,0,0,.24-.35,1.14,1.14,0,0,0,.09-.46,1.15,1.15,0,0,0-.33-.81,1.16,1.16,0,0,0-.36-.23,1.13,1.13,0,0,0-.45-.09,1.08,1.08,0,0,0-.44.09,1,1,0,0,0-.36.23,1,1,0,0,0-.24.36A1.13,1.13,0,0,0,152.67,180.05Zm.19-2.64a.92.92,0,0,0,.26.67.9.9,0,0,0,.68.27.91.91,0,0,0,.95-.94.94.94,0,0,0-.26-.67.91.91,0,0,0-.69-.26.89.89,0,0,0-.68.26A.94.94,0,0,0,152.86,177.41Z"/><path d="M156.28,178.83a7,7,0,0,1,.08-1,3.52,3.52,0,0,1,.3-1,1.83,1.83,0,0,1,.59-.7,1.77,1.77,0,0,1,1.91,0,1.92,1.92,0,0,1,.59.7,3.19,3.19,0,0,1,.29,1,5.77,5.77,0,0,1,.08,1,5.85,5.85,0,0,1-.08,1,3.28,3.28,0,0,1-.29.95,2,2,0,0,1-.59.7,1.77,1.77,0,0,1-1.91,0,1.91,1.91,0,0,1-.59-.7,3.64,3.64,0,0,1-.3-.95A7.07,7.07,0,0,1,156.28,178.83Zm.68,0c0,.14,0,.29,0,.46a4.88,4.88,0,0,0,.06.52,3.18,3.18,0,0,0,.13.51,2,2,0,0,0,.22.44,1.21,1.21,0,0,0,.34.3,1,1,0,0,0,.48.12.9.9,0,0,0,.48-.12,1,1,0,0,0,.34-.3,1.67,1.67,0,0,0,.23-.44,4.77,4.77,0,0,0,.13-.51,4.88,4.88,0,0,0,.06-.52c0-.17,0-.32,0-.46s0-.29,0-.47a4.43,4.43,0,0,0-.06-.51,4.23,4.23,0,0,0-.13-.51,1.53,1.53,0,0,0-.23-.44,1,1,0,0,0-.34-.31,1,1,0,0,0-.48-.11,1.06,1.06,0,0,0-.48.11,1.24,1.24,0,0,0-.34.31,1.81,1.81,0,0,0-.22.44,2.93,2.93,0,0,0-.13.51,4.43,4.43,0,0,0-.06.51C157,178.54,157,178.69,157,178.83Z"/><circle class="cls-4" cx="149.93" cy="136.7" r="56.92"/><path d="M154.46,200.67h-.67v-4.8h0l-1,.85-.4-.48,1.52-1.24h.58Z"/><path d="M156.38,199.9l2.14-2.08.35-.36a1.85,1.85,0,0,0,.25-.32,1,1,0,0,0,.15-.32,1.44,1.44,0,0,0,0-.37,1.07,1.07,0,0,0-.08-.41,1.06,1.06,0,0,0-.22-.29,1.12,1.12,0,0,0-.33-.2,1.35,1.35,0,0,0-.41-.06,1.07,1.07,0,0,0-.71.24,1.26,1.26,0,0,0-.36.66l-.73-.06a1.76,1.76,0,0,1,.22-.62,1.38,1.38,0,0,1,.39-.44,1.66,1.66,0,0,1,.53-.27,2.2,2.2,0,0,1,.64-.09,2,2,0,0,1,.66.1,1.6,1.6,0,0,1,.55.29,1.5,1.5,0,0,1,.38.48,1.54,1.54,0,0,1,.14.67,1.89,1.89,0,0,1-.09.6,2.59,2.59,0,0,1-.25.5,3.75,3.75,0,0,1-.35.44c-.13.13-.27.27-.42.4L157.14,200H160v.63h-3.65Z"/><path d="M160.73,197.84a7,7,0,0,1,.08-1,3.11,3.11,0,0,1,.3-1,1.94,1.94,0,0,1,.59-.71,1.55,1.55,0,0,1,1-.27,1.6,1.6,0,0,1,1,.27,2,2,0,0,1,.59.71,3.1,3.1,0,0,1,.29,1,5.77,5.77,0,0,1,.08,1,5.85,5.85,0,0,1-.08,1,3.28,3.28,0,0,1-.29.95,2.1,2.1,0,0,1-.59.7,1.6,1.6,0,0,1-1,.27,1.55,1.55,0,0,1-1-.27,2,2,0,0,1-.59-.7,3.3,3.3,0,0,1-.3-.95A7.07,7.07,0,0,1,160.73,197.84Zm.67,0c0,.14,0,.29,0,.46a4.88,4.88,0,0,0,.06.52,3.18,3.18,0,0,0,.13.51,1.74,1.74,0,0,0,.22.43,1.1,1.1,0,0,0,.34.31,1,1,0,0,0,.48.12.9.9,0,0,0,.48-.12.92.92,0,0,0,.34-.31,1.47,1.47,0,0,0,.23-.43c.05-.17.09-.34.13-.51s0-.35,0-.52a3.78,3.78,0,0,0,0-.46,3.94,3.94,0,0,0,0-.47c0-.17,0-.34,0-.51s-.08-.35-.13-.51a1.53,1.53,0,0,0-.23-.44,1,1,0,0,0-.34-.31.9.9,0,0,0-.48-.11,1,1,0,0,0-.48.11,1.24,1.24,0,0,0-.34.31,1.81,1.81,0,0,0-.22.44,2.72,2.72,0,0,0-.13.51,4.43,4.43,0,0,0-.06.51C161.41,197.54,161.4,197.7,161.4,197.84Z"/><circle class="cls-4" cx="149.93" cy="136.7" r="75.92"/><path d="M154.46,219.68h-.67v-4.8h0l-1,.85-.4-.48,1.52-1.24h.58Z"/><path d="M157.61,216.37l0,0a1.35,1.35,0,0,1,.37-.13,1.84,1.84,0,0,1,.39,0,1.72,1.72,0,0,1,.68.13,1.69,1.69,0,0,1,.55.36,1.65,1.65,0,0,1,.35.57,1.88,1.88,0,0,1,.13.72,2,2,0,0,1-.14.74,1.74,1.74,0,0,1-.4.56,1.84,1.84,0,0,1-.61.35,2.37,2.37,0,0,1-1.49,0,1.63,1.63,0,0,1-1-.91,2,2,0,0,1-.14-.74,2.28,2.28,0,0,1,.15-.86,5.78,5.78,0,0,1,.38-.74l1.51-2.39h.78Zm.59.43a1.51,1.51,0,0,0-.48.08,1.36,1.36,0,0,0-.38.24,1,1,0,0,0-.26.38,1.3,1.3,0,0,0,0,1,1.08,1.08,0,0,0,.26.37,1,1,0,0,0,.38.24,1.28,1.28,0,0,0,.48.09,1.21,1.21,0,0,0,.48-.09,1,1,0,0,0,.39-.24,1.08,1.08,0,0,0,.26-.37,1.3,1.3,0,0,0,0-1,1,1,0,0,0-.26-.38,1.28,1.28,0,0,0-.39-.24A1.42,1.42,0,0,0,158.2,216.8Z"/><path d="M160.73,216.84a7.07,7.07,0,0,1,.08-1,3.14,3.14,0,0,1,.3-.94,1.94,1.94,0,0,1,.59-.71,1.55,1.55,0,0,1,1-.27,1.6,1.6,0,0,1,1,.27,2,2,0,0,1,.59.71,3.13,3.13,0,0,1,.29.94,5.85,5.85,0,0,1,.08,1,5.7,5.7,0,0,1-.08,1,3.1,3.1,0,0,1-.29.95,2,2,0,0,1-.59.71,1.6,1.6,0,0,1-1,.27,1.55,1.55,0,0,1-1-.27,1.94,1.94,0,0,1-.59-.71,3.11,3.11,0,0,1-.3-.95A6.85,6.85,0,0,1,160.73,216.84Zm.67,0c0,.14,0,.3,0,.47a4.88,4.88,0,0,0,.06.52,2.83,2.83,0,0,0,.13.5,1.81,1.81,0,0,0,.22.44,1.24,1.24,0,0,0,.34.31,1,1,0,0,0,.48.12.9.9,0,0,0,.48-.12,1,1,0,0,0,.34-.31,1.53,1.53,0,0,0,.23-.44c.05-.16.09-.33.13-.5s0-.35,0-.52a3.94,3.94,0,0,0,0-.47,3.86,3.86,0,0,0,0-.46c0-.17,0-.34,0-.51s-.08-.35-.13-.51a1.41,1.41,0,0,0-.23-.44,1,1,0,0,0-.34-.31.9.9,0,0,0-.48-.12,1,1,0,0,0-.48.12,1.24,1.24,0,0,0-.34.31,1.65,1.65,0,0,0-.22.44,2.72,2.72,0,0,0-.13.51,4.43,4.43,0,0,0-.06.51C161.41,216.55,161.4,216.71,161.4,216.84Z"/><circle class="cls-4" cx="149.93" cy="136.7" r="94.93"/><line class="cls-4" x1="55" y1="136.76" x2="244.92" y2="136.76"/><line class="cls-4" x1="149.93" y1="231.69" x2="149.93" y2="41.77"/><line class="cls-4" x1="95.18" y1="41.77" x2="204.74" y2="231.69"/><line class="cls-4" x1="95.18" y1="231.69" x2="204.74" y2="41.77"/><line class="cls-4" x1="55" y1="81.95" x2="244.92" y2="191.51"/><line class="cls-4" x1="55" y1="191.51" x2="244.92" y2="81.95"/><line class="cls-1" x1="149.93" y1="145.18" x2="150.42" y2="150.85"/><line class="cls-1" x1="150.42" y1="150.85" x2="151.34" y2="157.06"/><line class="cls-1" x1="151.34" y1="157.06" x2="152.47" y2="161.06"/><line class="cls-1" x1="152.47" y1="161.06" x2="153.66" y2="163.05"/><line class="cls-1" x1="153.66" y1="163.05" x2="154.9" y2="164.95"/><line class="cls-1" x1="154.9" y1="164.95" x2="156.25" y2="166.35"/><line class="cls-1" x1="156.25" y1="166.35" x2="157.49" y2="167"/><line class="cls-1" x1="157.49" y1="167" x2="158.84" y2="167.86"/><line class="cls-1" x1="158.84" y1="167.86" x2="160.3" y2="168.67"/><line class="cls-1" x1="160.3" y1="168.67" x2="161.81" y2="169.43"/><line class="cls-1" x1="161.81" y1="169.43" x2="163.43" y2="170.07"/><line class="cls-1" x1="163.43" y1="170.07" x2="165.05" y2="170.67"/><line class="cls-1" x1="165.05" y1="170.67" x2="166.78" y2="171.21"/><line class="cls-1" x1="166.78" y1="171.21" x2="168.51" y2="171.64"/><line class="cls-1" x1="168.51" y1="171.64" x2="170.34" y2="172.07"/><line class="cls-1" x1="170.34" y1="172.07" x2="172.29" y2="172.45"/><line class="cls-1" x1="172.29" y1="172.45" x2="174.29" y2="172.77"/><line class="cls-1" x1="174.29" y1="172.77" x2="176.39" y2="173.1"/><line class="cls-1" x1="176.39" y1="173.1" x2="178.55" y2="173.31"/><line class="cls-1" x1="178.55" y1="173.31" x2="180.87" y2="173.53"/><line class="cls-1" x1="180.87" y1="173.53" x2="183.25" y2="173.69"/><line class="cls-1" x1="183.25" y1="173.69" x2="185.79" y2="173.8"/><line class="cls-1" x1="185.79" y1="173.8" x2="188.38" y2="173.85"/><line class="cls-1" x1="188.38" y1="173.85" x2="191.08" y2="173.75"/><line class="cls-1" x1="191.08" y1="173.75" x2="194" y2="173.64"/><line class="cls-1" x1="194" y1="173.64" x2="197.02" y2="173.48"/><line class="cls-1" x1="197.02" y1="173.48" x2="200.21" y2="173.21"/><line class="cls-1" x1="200.21" y1="173.21" x2="203.45" y2="172.77"/><line class="cls-1" x1="203.45" y1="172.77" x2="206.74" y2="172.18"/><line class="cls-1" x1="206.74" y1="172.18" x2="210.14" y2="171.48"/><line class="cls-1" x1="210.14" y1="171.48" x2="213.6" y2="170.56"/><line class="cls-1" x1="213.6" y1="170.56" x2="217.16" y2="169.48"/><line class="cls-1" x1="217.16" y1="169.48" x2="220.67" y2="168.18"/><line class="cls-1" x1="220.67" y1="168.18" x2="224.61" y2="166.89"/><line class="cls-1" x1="224.61" y1="166.89" x2="227.48" y2="164.95"/><line class="cls-1" x1="227.48" y1="164.95" x2="229.58" y2="162.57"/><line class="cls-1" x1="229.58" y1="162.57" x2="230.82" y2="159.87"/><line class="cls-1" x1="230.82" y1="159.87" x2="231.26" y2="157.01"/><line class="cls-1" x1="231.26" y1="157.01" x2="231.15" y2="153.98"/><line class="cls-1" x1="231.15" y1="153.98" x2="229.74" y2="150.8"/><line class="cls-1" x1="229.74" y1="150.8" x2="227.26" y2="147.56"/><line class="cls-1" x1="227.26" y1="147.56" x2="223.8" y2="144.48"/><line class="cls-1" x1="223.8" y1="144.48" x2="218.51" y2="141.51"/><line class="cls-1" x1="218.51" y1="141.51" x2="212.03" y2="138.86"/><line class="cls-1" x1="212.03" y1="138.86" x2="203.23" y2="136.76"/><line class="cls-1" x1="203.23" y1="136.76" x2="192.43" y2="135.3"/><line class="cls-1" x1="192.43" y1="135.3" x2="177.47" y2="134.81"/><line class="cls-1" x1="177.47" y1="134.81" x2="168.13" y2="134.87"/><line class="cls-1" x1="168.13" y1="134.87" x2="161.49" y2="135.14"/><line class="cls-1" x1="161.49" y1="135.14" x2="156.57" y2="135.57"/><line class="cls-1" x1="156.57" y1="135.57" x2="153.6" y2="135.95"/><line class="cls-1" x1="153.6" y1="135.95" x2="153.28" y2="135.95"/><line class="cls-1" x1="153.28" y1="135.95" x2="152.31" y2="136.05"/><line class="cls-1" x1="152.31" y1="136.05" x2="152.15" y2="136.05"/><line class="cls-1" x1="152.15" y1="136.05" x2="151.88" y2="136.05"/><line class="cls-1" x1="151.88" y1="136.05" x2="151.66" y2="136.05"/><line class="cls-1" x1="151.66" y1="136.05" x2="151.5" y2="136.05"/><line class="cls-1" x1="151.5" y1="136.05" x2="151.39" y2="136.05"/><line class="cls-1" x1="151.39" y1="136.05" x2="151.34" y2="136"/><line class="cls-1" x1="151.34" y1="136" x2="151.34" y2="135.95"/><line class="cls-1" x1="151.34" y1="135.95" x2="151.28" y2="135.89"/><line class="cls-1" x1="151.28" y1="135.89" x2="151.28" y2="135.84"/><line class="cls-1" x1="151.28" y1="135.84" x2="151.34" y2="135.73"/><line class="cls-1" x1="151.34" y1="135.73" x2="151.34" y2="135.68"/><line class="cls-1" x1="151.34" y1="135.68" x2="151.34" y2="135.57"/><line class="cls-1" x1="151.34" y1="135.57" x2="151.39" y2="135.46"/><line class="cls-1" x1="151.39" y1="135.46" x2="151.39" y2="135.35"/><line class="cls-1" x1="151.39" y1="135.35" x2="151.44" y2="135.19"/><line class="cls-1" x1="151.44" y1="135.19" x2="151.44" y2="135.03"/><line class="cls-1" x1="151.44" y1="135.03" x2="151.5" y2="134.87"/><line class="cls-1" x1="151.5" y1="134.87" x2="151.55" y2="134.7"/><line class="cls-1" x1="151.55" y1="134.7" x2="151.55" y2="134.49"/><line class="cls-1" x1="151.55" y1="134.49" x2="151.61" y2="134.33"/><line class="cls-1" x1="151.61" y1="134.33" x2="151.61" y2="134.11"/><line class="cls-1" x1="151.61" y1="134.11" x2="151.61" y2="133.84"/><line class="cls-1" x1="151.61" y1="133.84" x2="151.61" y2="133.63"/><line class="cls-1" x1="151.61" y1="133.63" x2="151.55" y2="133.35"/><line class="cls-1" x1="151.55" y1="133.35" x2="151.55" y2="133.14"/><line class="cls-1" x1="151.55" y1="133.14" x2="151.5" y2="132.87"/><line class="cls-1" x1="151.5" y1="132.87" x2="151.44" y2="132.65"/><line class="cls-1" x1="151.44" y1="132.65" x2="151.34" y2="132.38"/><line class="cls-1" x1="151.34" y1="132.38" x2="151.23" y2="132.17"/><line class="cls-1" x1="151.23" y1="132.17" x2="151.12" y2="131.9"/><line class="cls-1" x1="151.12" y1="131.9" x2="151.01" y2="131.68"/><line class="cls-1" x1="151.01" y1="131.68" x2="150.85" y2="131.46"/><line class="cls-1" x1="150.85" y1="131.46" x2="150.69" y2="131.25"/><line class="cls-1" x1="150.69" y1="131.25" x2="150.53" y2="131.03"/><line class="cls-1" x1="150.53" y1="131.03" x2="150.36" y2="130.87"/><line class="cls-1" x1="150.36" y1="130.87" x2="150.15" y2="130.71"/><line class="cls-1" x1="150.15" y1="130.71" x2="149.93" y2="130.55"/><line class="cls-1" x1="149.93" y1="145.18" x2="149.5" y2="150.36"/><line class="cls-1" x1="149.5" y1="150.36" x2="148.58" y2="156.52"/><line class="cls-1" x1="148.58" y1="156.52" x2="147.61" y2="159.22"/><line class="cls-1" x1="147.61" y1="159.22" x2="146.96" y2="158.36"/><line class="cls-1" x1="146.96" y1="158.36" x2="146.1" y2="158.84"/><line class="cls-1" x1="146.1" y1="158.84" x2="145.13" y2="159.6"/><line class="cls-1" x1="145.13" y1="159.6" x2="143.94" y2="160.9"/><line class="cls-1" x1="143.94" y1="160.9" x2="142.91" y2="161.43"/><line class="cls-1" x1="142.91" y1="161.43" x2="141.89" y2="161.6"/><line class="cls-1" x1="141.89" y1="161.6" x2="140.91" y2="161.6"/><line class="cls-1" x1="140.91" y1="161.6" x2="140" y2="161.38"/><line class="cls-1" x1="140" y1="161.38" x2="139.24" y2="160.9"/><line class="cls-1" x1="139.24" y1="160.9" x2="138.43" y2="160.41"/><line class="cls-1" x1="138.43" y1="160.41" x2="137.57" y2="160.03"/><line class="cls-1" x1="137.57" y1="160.03" x2="136.97" y2="159.22"/><line class="cls-1" x1="136.97" y1="159.22" x2="136.59" y2="158.09"/><line class="cls-1" x1="136.59" y1="158.09" x2="136.38" y2="156.85"/><line class="cls-1" x1="136.38" y1="156.85" x2="136.81" y2="154.79"/><line class="cls-1" x1="136.81" y1="154.79" x2="138.21" y2="151.77"/><line class="cls-1" x1="138.21" y1="151.77" x2="139.46" y2="149.28"/><line class="cls-1" x1="139.46" y1="149.28" x2="140.7" y2="147.02"/><line class="cls-1" x1="140.7" y1="147.02" x2="142.21" y2="144.75"/><line class="cls-1" x1="142.21" y1="144.75" x2="142.8" y2="143.61"/><line class="cls-1" x1="142.8" y1="143.61" x2="142.43" y2="143.51"/><line class="cls-1" x1="142.43" y1="143.51" x2="142.21" y2="143.24"/><line class="cls-1" x1="142.21" y1="143.24" x2="141.78" y2="143.07"/><line class="cls-1" x1="141.78" y1="143.07" x2="141.18" y2="143.07"/><line class="cls-1" x1="141.18" y1="143.07" x2="140.64" y2="142.97"/><line class="cls-1" x1="140.64" y1="142.97" x2="139.83" y2="143.02"/><line class="cls-1" x1="139.83" y1="143.02" x2="139.51" y2="142.75"/><line class="cls-1" x1="139.51" y1="142.75" x2="139.56" y2="142.26"/><line class="cls-1" x1="139.56" y1="142.26" x2="140" y2="141.56"/><line class="cls-1" x1="140" y1="141.56" x2="140.7" y2="140.86"/><line class="cls-1" x1="140.7" y1="140.86" x2="142.16" y2="139.89"/><line class="cls-1" x1="142.16" y1="139.89" x2="143.13" y2="139.19"/><line class="cls-1" x1="143.13" y1="139.19" x2="143.83" y2="138.7"/><line class="cls-1" x1="143.83" y1="138.7" x2="144.15" y2="138.38"/><line class="cls-1" x1="144.15" y1="138.38" x2="144.53" y2="138.05"/><line class="cls-1" x1="144.53" y1="138.05" x2="144.8" y2="137.78"/><line class="cls-1" x1="144.8" y1="137.78" x2="144.96" y2="137.57"/><line class="cls-1" x1="144.96" y1="137.57" x2="145.07" y2="137.4"/><line class="cls-1" x1="145.07" y1="137.4" x2="145.13" y2="137.19"/><line class="cls-1" x1="145.13" y1="137.19" x2="145.18" y2="137.03"/><line class="cls-1" x1="145.18" y1="137.03" x2="145.18" y2="136.86"/><line class="cls-1" x1="145.18" y1="136.86" x2="145.18" y2="136.76"/><line class="cls-1" x1="145.18" y1="136.76" x2="145.13" y2="136.59"/><line class="cls-1" x1="145.13" y1="136.59" x2="145.13" y2="136.43"/><line class="cls-1" x1="145.13" y1="136.43" x2="145.07" y2="136.22"/><line class="cls-1" x1="145.07" y1="136.22" x2="145.02" y2="136.05"/><line class="cls-1" x1="145.02" y1="136.05" x2="144.96" y2="135.89"/><line class="cls-1" x1="144.96" y1="135.89" x2="144.96" y2="135.68"/><line class="cls-1" x1="144.96" y1="135.68" x2="144.96" y2="135.51"/><line class="cls-1" x1="144.96" y1="135.51" x2="144.91" y2="135.3"/><line class="cls-1" x1="144.91" y1="135.3" x2="144.86" y2="135.08"/><line class="cls-1" x1="144.86" y1="135.08" x2="144.86" y2="134.87"/><line class="cls-1" x1="144.86" y1="134.87" x2="144.8" y2="134.65"/><line class="cls-1" x1="144.8" y1="134.65" x2="144.75" y2="134.43"/><line class="cls-1" x1="144.75" y1="134.43" x2="144.75" y2="134.22"/><line class="cls-1" x1="144.75" y1="134.22" x2="144.69" y2="133.95"/><line class="cls-1" x1="144.69" y1="133.95" x2="144.69" y2="133.73"/><line class="cls-1" x1="144.69" y1="133.73" x2="144.69" y2="133.46"/><line class="cls-1" x1="144.69" y1="133.46" x2="144.75" y2="133.19"/><line class="cls-1" x1="144.75" y1="133.19" x2="144.75" y2="132.98"/><line class="cls-1" x1="144.75" y1="132.98" x2="144.8" y2="132.71"/><line class="cls-1" x1="144.8" y1="132.71" x2="144.86" y2="132.49"/><line class="cls-1" x1="144.86" y1="132.49" x2="144.96" y2="132.22"/><line class="cls-1" x1="144.96" y1="132.22" x2="145.07" y2="132"/><line class="cls-1" x1="145.07" y1="132" x2="145.18" y2="131.79"/><line class="cls-1" x1="145.18" y1="131.79" x2="145.29" y2="131.57"/><line class="cls-1" x1="145.29" y1="131.57" x2="145.45" y2="131.36"/><line class="cls-1" x1="145.45" y1="131.36" x2="145.61" y2="131.14"/><line class="cls-1" x1="145.61" y1="131.14" x2="145.77" y2="130.98"/><line class="cls-1" x1="145.77" y1="130.98" x2="145.99" y2="130.82"/><line class="cls-1" x1="145.99" y1="130.82" x2="146.15" y2="130.65"/><line class="cls-1" x1="146.15" y1="130.65" x2="146.37" y2="130.55"/><line class="cls-1" x1="146.37" y1="130.55" x2="146.58" y2="130.38"/><line class="cls-1" x1="146.58" y1="130.38" x2="146.85" y2="130.28"/><line class="cls-1" x1="146.85" y1="130.28" x2="147.07" y2="130.17"/><line class="cls-1" x1="147.07" y1="130.17" x2="147.29" y2="130.11"/><line class="cls-1" x1="147.29" y1="130.11" x2="147.56" y2="130.06"/><line class="cls-1" x1="147.56" y1="130.06" x2="147.77" y2="130.01"/><line class="cls-1" x1="147.77" y1="130.01" x2="148.04" y2="129.95"/><line class="cls-1" x1="148.04" y1="129.95" x2="148.31" y2="129.95"/><line class="cls-1" x1="148.31" y1="129.95" x2="148.53" y2="130.01"/><line class="cls-1" x1="148.53" y1="130.01" x2="148.8" y2="130.01"/><line class="cls-1" x1="148.8" y1="130.01" x2="149.07" y2="130.11"/><line class="cls-1" x1="149.07" y1="130.11" x2="149.28" y2="130.17"/><line class="cls-1" x1="149.28" y1="130.17" x2="149.55" y2="130.28"/><line class="cls-1" x1="149.55" y1="130.28" x2="149.77" y2="130.38"/><line class="cls-1" x1="149.77" y1="130.38" x2="149.93" y2="130.55"/><line class="cls-1" x1="149.93" y1="145.18" x2="149.99" y2="144.91"/><line class="cls-1" x1="150.09" y1="143.61" x2="150.15" y2="143.4"/><line class="cls-1" x1="150.15" y1="142.05" x2="150.15" y2="141.78"/><line class="cls-1" x1="150.15" y1="140.43" x2="150.15" y2="140.16"/><line class="cls-1" x1="150.31" y1="140.7" x2="150.36" y2="140.91"/><line class="cls-1" x1="150.53" y1="142.21" x2="150.58" y2="142.43"/><line class="cls-1" x1="150.8" y1="143.67" x2="150.85" y2="143.94"/><line class="cls-1" x1="151.01" y1="145.23" x2="151.07" y2="145.45"/><line class="cls-1" x1="151.28" y1="146.69" x2="151.34" y2="146.96"/><line class="cls-1" x1="151.5" y1="148.26" x2="151.55" y2="148.47"/><line class="cls-1" x1="151.77" y1="149.72" x2="151.82" y2="149.93"/><line class="cls-1" x1="152.15" y1="151.17" x2="152.2" y2="151.39"/><line class="cls-1" x1="152.58" y1="152.63" x2="152.63" y2="152.85"/><line class="cls-1" x1="152.96" y1="154.09" x2="153.01" y2="154.31"/><line class="cls-1" x1="153.39" y1="155.5" x2="153.5" y2="155.71"/><line class="cls-1" x1="153.93" y1="156.9" x2="153.98" y2="157.11"/><line class="cls-1" x1="154.47" y1="158.3" x2="154.52" y2="158.52"/><line class="cls-1" x1="155.06" y1="159.71" x2="155.12" y2="159.92"/><line class="cls-1" x1="155.66" y1="161.06" x2="155.76" y2="161.27"/><line class="cls-1" x1="156.3" y1="162.41" x2="156.41" y2="162.62"/><line class="cls-1" x1="157.06" y1="163.7" x2="157.17" y2="163.92"/><line class="cls-1" x1="157.82" y1="165" x2="157.98" y2="165.21"/><line class="cls-1" x1="158.73" y1="166.24" x2="158.9" y2="166.46"/><line class="cls-1" x1="159.71" y1="167.48" x2="159.87" y2="167.65"/><line class="cls-1" x1="160.84" y1="168.56" x2="161.06" y2="168.72"/><line class="cls-1" x1="162.08" y1="169.48" x2="162.3" y2="169.53"/><line class="cls-1" x1="163.49" y1="169.91" x2="163.7" y2="169.86"/><line class="cls-1" x1="164.94" y1="169.48" x2="165.16" y2="169.37"/><line class="cls-1" x1="166.02" y1="168.51" x2="166.19" y2="168.29"/><line class="cls-1" x1="166.83" y1="167.16" x2="166.94" y2="166.94"/><line class="cls-1" x1="167.43" y1="165.81" x2="167.54" y2="165.59"/><line class="cls-1" x1="167.86" y1="164.4" x2="167.91" y2="164.19"/><line class="cls-1" x1="168.24" y1="162.95" x2="168.29" y2="162.73"/><line class="cls-1" x1="168.62" y1="161.49" x2="168.67" y2="161.27"/><line class="cls-1" x1="168.94" y1="160.03" x2="168.99" y2="159.81"/><line class="cls-1" x1="169.21" y1="158.57" x2="169.26" y2="158.36"/><line class="cls-1" x1="169.48" y1="157.06" x2="169.48" y2="156.95"/><line class="cls-1" x1="169.48" y1="156.95" x2="169.48" y2="156.79"/><line class="cls-1" x1="169.59" y1="155.5" x2="169.59" y2="155.22"/><line class="cls-1" x1="169.64" y1="153.93" x2="169.64" y2="153.66"/><line class="cls-1" x1="169.59" y1="152.36" x2="169.59" y2="152.09"/><line class="cls-1" x1="169.53" y1="150.8" x2="169.48" y2="150.58"/><line class="cls-1" x1="169.26" y1="149.34" x2="169.21" y2="149.07"/><line class="cls-1" x1="168.89" y1="147.83" x2="168.83" y2="147.61"/><line class="cls-1" x1="168.45" y1="146.42" x2="168.35" y2="146.21"/><line class="cls-1" x1="167.81" y1="145.07" x2="167.7" y2="144.86"/><line class="cls-1" x1="167.05" y1="143.72" x2="167" y2="143.61"/><line class="cls-1" x1="167" y1="143.61" x2="166.94" y2="143.51"/><line class="cls-1" x1="166.19" y1="142.48" x2="166.02" y2="142.26"/><line class="cls-1" x1="165.16" y1="141.24" x2="165" y2="141.08"/><line class="cls-1" x1="164.08" y1="140.16" x2="163.92" y2="140"/><line class="cls-1" x1="162.89" y1="139.13" x2="162.68" y2="138.97"/><line class="cls-1" x1="161.6" y1="138.27" x2="161.38" y2="138.16"/><line class="cls-1" x1="160.3" y1="137.57" x2="160.08" y2="137.46"/><line class="cls-1" x1="158.9" y1="137.08" x2="158.79" y2="137.03"/><line class="cls-1" x1="158.79" y1="137.03" x2="158.68" y2="136.97"/><line class="cls-1" x1="158.03" y1="136.16" x2="158.03" y2="136.16"/><line class="cls-1" x1="158.03" y1="136.16" x2="158.03" y2="135.89"/><line class="cls-1" x1="157.98" y1="134.6" x2="157.92" y2="134.43"/><line class="cls-1" x1="157.92" y1="134.43" x2="157.92" y2="134.38"/><line class="cls-1" x1="157.38" y1="133.19" x2="157.38" y2="133.14"/><line class="cls-1" x1="157.38" y1="133.14" x2="157.28" y2="132.98"/><line class="cls-1" x1="156.41" y1="131.95" x2="156.25" y2="131.84"/><line class="cls-1" x1="156.25" y1="131.84" x2="156.2" y2="131.79"/><line class="cls-1" x1="155.12" y1="131.09" x2="155.06" y2="131.09"/><line class="cls-1" x1="155.06" y1="131.09" x2="154.9" y2="131.03"/><line class="cls-1" x1="153.77" y1="130.55" x2="153.55" y2="130.49"/><line class="cls-1" x1="152.31" y1="130.22" x2="152.31" y2="130.22"/><line class="cls-1" x1="152.31" y1="130.22" x2="152.04" y2="130.22"/><line class="cls-1" x1="150.74" y1="130.33" x2="150.58" y2="130.38"/><line class="cls-1" x1="150.58" y1="130.38" x2="150.53" y2="130.38"/><line class="cls-1" x1="149.88" y1="144.42" x2="149.82" y2="144.21"/><line class="cls-1" x1="149.77" y1="142.91" x2="149.77" y2="142.64"/><line class="cls-1" x1="149.77" y1="141.29" x2="149.77" y2="141.02"/><line class="cls-1" x1="149.77" y1="139.89" x2="149.72" y2="140.1"/><line class="cls-1" x1="149.5" y1="141.35" x2="149.45" y2="141.56"/><line class="cls-1" x1="149.28" y1="142.86" x2="149.23" y2="143.07"/><line class="cls-1" x1="149.01" y1="144.32" x2="148.96" y2="144.59"/><line class="cls-1" x1="148.8" y1="145.88" x2="148.74" y2="146.1"/><line class="cls-1" x1="148.53" y1="147.34" x2="148.47" y2="147.61"/><line class="cls-1" x1="148.31" y1="148.91" x2="148.26" y2="149.12"/><line class="cls-1" x1="147.99" y1="150.36" x2="147.88" y2="150.58"/><line class="cls-1" x1="147.56" y1="151.82" x2="147.5" y2="152.04"/><line class="cls-1" x1="147.18" y1="153.28" x2="147.12" y2="153.5"/><line class="cls-1" x1="146.8" y1="154.74" x2="146.69" y2="154.95"/><line class="cls-1" x1="146.26" y1="156.14" x2="146.21" y2="156.36"/><line class="cls-1" x1="145.77" y1="157.55" x2="145.67" y2="157.76"/><line class="cls-1" x1="145.23" y1="158.95" x2="145.23" y2="158.95"/><line class="cls-1" x1="145.23" y1="158.95" x2="145.13" y2="159.17"/><line class="cls-1" x1="144.59" y1="160.3" x2="144.48" y2="160.52"/><line class="cls-1" x1="143.94" y1="161.65" x2="143.88" y2="161.87"/><line class="cls-1" x1="143.29" y1="163" x2="143.13" y2="163.22"/><line class="cls-1" x1="142.48" y1="164.3" x2="142.37" y2="164.51"/><line class="cls-1" x1="141.72" y1="165.59" x2="141.72" y2="165.59"/><line class="cls-1" x1="141.72" y1="165.59" x2="141.56" y2="165.81"/><line class="cls-1" x1="140.7" y1="166.83" x2="140.54" y2="167.05"/><line class="cls-1" x1="139.67" y1="168.08" x2="139.46" y2="168.24"/><line class="cls-1" x1="138.43" y1="169.1" x2="138.21" y2="169.26"/><line class="cls-1" x1="137.08" y1="169.75" x2="136.86" y2="169.86"/><line class="cls-1" x1="135.62" y1="169.75" x2="135.41" y2="169.7"/><line class="cls-1" x1="134.27" y1="169.1" x2="134.22" y2="169.1"/><line class="cls-1" x1="134.22" y1="169.1" x2="134.11" y2="168.94"/><line class="cls-1" x1="133.46" y1="167.81" x2="133.46" y2="167.81"/><line class="cls-1" x1="133.46" y1="167.81" x2="133.35" y2="167.59"/><line class="cls-1" x1="132.76" y1="166.51" x2="132.65" y2="166.3"/><line class="cls-1" x1="132.22" y1="165.11" x2="132.17" y2="164.89"/><line class="cls-1" x1="131.84" y1="163.65" x2="131.84" y2="163.6"/><line class="cls-1" x1="131.84" y1="163.6" x2="131.79" y2="163.43"/><line class="cls-1" x1="131.46" y1="162.19" x2="131.46" y2="162.19"/><line class="cls-1" x1="131.46" y1="162.19" x2="131.41" y2="161.97"/><line class="cls-1" x1="131.14" y1="160.73" x2="131.09" y2="160.52"/><line class="cls-1" x1="130.82" y1="159.27" x2="130.76" y2="159"/><line class="cls-1" x1="130.55" y1="157.71" x2="130.55" y2="157.44"/><line class="cls-1" x1="130.38" y1="156.2" x2="130.33" y2="155.98"/><line class="cls-1" x1="130.28" y1="154.68" x2="130.28" y2="154.47"/><line class="cls-1" x1="130.28" y1="154.47" x2="130.28" y2="154.41"/><line class="cls-1" x1="130.28" y1="153.06" x2="130.28" y2="152.8"/><line class="cls-1" x1="130.38" y1="151.5" x2="130.38" y2="151.23"/><line class="cls-1" x1="130.55" y1="149.93" x2="130.55" y2="149.82"/><line class="cls-1" x1="130.55" y1="149.82" x2="130.6" y2="149.66"/><line class="cls-1" x1="130.87" y1="148.42" x2="130.92" y2="148.2"/><line class="cls-1" x1="131.3" y1="146.96" x2="131.36" y2="146.75"/><line class="cls-1" x1="131.84" y1="145.56" x2="131.84" y2="145.56"/><line class="cls-1" x1="131.84" y1="145.56" x2="131.95" y2="145.34"/><line class="cls-1" x1="132.6" y1="144.21" x2="132.71" y2="143.99"/><line class="cls-1" x1="133.41" y1="142.91" x2="133.57" y2="142.7"/><line class="cls-1" x1="134.38" y1="141.67" x2="134.54" y2="141.51"/><line class="cls-1" x1="135.46" y1="140.54" x2="135.62" y2="140.37"/><line class="cls-1" x1="136.59" y1="139.46" x2="136.81" y2="139.29"/><line class="cls-1" x1="137.89" y1="138.54" x2="138.11" y2="138.43"/><line class="cls-1" x1="139.19" y1="137.78" x2="139.4" y2="137.68"/><line class="cls-1" x1="140.54" y1="137.19" x2="140.75" y2="137.13"/><line class="cls-1" x1="141.94" y1="136.59" x2="142.05" y2="136.49"/><line class="cls-1" x1="142.05" y1="136.49" x2="141.99" y2="136.43"/><line class="cls-1" x1="141.83" y1="135.19" x2="141.83" y2="135.03"/><line class="cls-1" x1="141.83" y1="135.03" x2="141.83" y2="134.92"/><line class="cls-1" x1="142.21" y1="133.73" x2="142.26" y2="133.63"/><line class="cls-1" x1="142.26" y1="133.63" x2="142.32" y2="133.52"/><line class="cls-1" x1="143.07" y1="132.44" x2="143.07" y2="132.44"/><line class="cls-1" x1="143.07" y1="132.44" x2="143.24" y2="132.28"/><line class="cls-1" x1="144.21" y1="131.46" x2="144.37" y2="131.36"/><line class="cls-1" x1="144.37" y1="131.36" x2="144.42" y2="131.3"/><line class="cls-1" x1="145.56" y1="130.76" x2="145.61" y2="130.76"/><line class="cls-1" x1="145.61" y1="130.76" x2="145.77" y2="130.71"/><line class="cls-1" x1="146.96" y1="130.38" x2="147.12" y2="130.33"/><line class="cls-1" x1="147.12" y1="130.33" x2="147.18" y2="130.33"/><line class="cls-1" x1="148.42" y1="130.17" x2="148.58" y2="130.22"/><line class="cls-1" x1="148.58" y1="130.22" x2="148.64" y2="130.22"/><line class="cls-1" x1="149.88" y1="130.55" x2="149.93" y2="130.55"/><path d="M54.55,12.09h4.39v.78H55.39v2.34h3.3V16h-3.3v3.18h-.84Z"/><path d="M59.61,15.63a9.26,9.26,0,0,1,.1-1.25,4,4,0,0,1,.37-1.18,2.44,2.44,0,0,1,.74-.88,2.22,2.22,0,0,1,2.39,0,2.41,2.41,0,0,1,.73.88,3.71,3.71,0,0,1,.37,1.18,7.88,7.88,0,0,1,.1,1.25,7.79,7.79,0,0,1-.1,1.25,3.77,3.77,0,0,1-.37,1.19,2.5,2.5,0,0,1-.73.88,2.27,2.27,0,0,1-2.39,0,2.53,2.53,0,0,1-.74-.88,4,4,0,0,1-.37-1.19A9.14,9.14,0,0,1,59.61,15.63Zm.84,0c0,.18,0,.37,0,.58s0,.43.08.65a4.47,4.47,0,0,0,.16.63A1.9,1.9,0,0,0,61,18a1.55,1.55,0,0,0,.42.39,1.27,1.27,0,0,0,.6.14,1.21,1.21,0,0,0,.6-.14A1.45,1.45,0,0,0,63,18a1.9,1.9,0,0,0,.28-.55,4.47,4.47,0,0,0,.16-.63,4.78,4.78,0,0,0,.07-.65c0-.21,0-.4,0-.58s0-.36,0-.58a4.79,4.79,0,0,0-.23-1.28,2,2,0,0,0-.28-.55,1.3,1.3,0,0,0-.43-.38,1.11,1.11,0,0,0-.6-.15,1.16,1.16,0,0,0-.6.15,1.37,1.37,0,0,0-.42.38,2,2,0,0,0-.28.55,4.61,4.61,0,0,0-.16.64c0,.21-.06.43-.08.64S60.45,15.46,60.45,15.63Z"/><path d="M69.59,12.87l-2.83,6.3h-1l2.88-6.3H65.27v-.78h4.32Z"/><path d="M70.73,15.63a9.26,9.26,0,0,1,.1-1.25,4,4,0,0,1,.37-1.18,2.44,2.44,0,0,1,.74-.88,2.22,2.22,0,0,1,2.39,0,2.41,2.41,0,0,1,.73.88,3.71,3.71,0,0,1,.37,1.18,7.88,7.88,0,0,1,.1,1.25,7.79,7.79,0,0,1-.1,1.25,3.77,3.77,0,0,1-.37,1.19,2.5,2.5,0,0,1-.73.88,2.27,2.27,0,0,1-2.39,0,2.53,2.53,0,0,1-.74-.88,4,4,0,0,1-.37-1.19A9.14,9.14,0,0,1,70.73,15.63Zm.84,0c0,.18,0,.37,0,.58s0,.43.08.65a4.47,4.47,0,0,0,.16.63,1.9,1.9,0,0,0,.28.55,1.55,1.55,0,0,0,.42.39,1.27,1.27,0,0,0,.6.14,1.21,1.21,0,0,0,.6-.14,1.45,1.45,0,0,0,.43-.39,1.9,1.9,0,0,0,.28-.55,4.47,4.47,0,0,0,.16-.63,4.78,4.78,0,0,0,.07-.65c0-.21,0-.4,0-.58s0-.36,0-.58a4.79,4.79,0,0,0-.23-1.28,2,2,0,0,0-.28-.55,1.3,1.3,0,0,0-.43-.38,1.11,1.11,0,0,0-.6-.15,1.16,1.16,0,0,0-.6.15,1.37,1.37,0,0,0-.42.38,2,2,0,0,0-.28.55,4.61,4.61,0,0,0-.16.64c0,.21-.06.43-.08.64S71.57,15.46,71.57,15.63Z"/><path d="M76.29,15.63a9.26,9.26,0,0,1,.1-1.25,4,4,0,0,1,.37-1.18,2.44,2.44,0,0,1,.74-.88,2.22,2.22,0,0,1,2.39,0,2.41,2.41,0,0,1,.73.88A3.71,3.71,0,0,1,81,14.38a7.88,7.88,0,0,1,.1,1.25,7.79,7.79,0,0,1-.1,1.25,3.77,3.77,0,0,1-.37,1.19,2.5,2.5,0,0,1-.73.88,2.27,2.27,0,0,1-2.39,0,2.53,2.53,0,0,1-.74-.88,4,4,0,0,1-.37-1.19A9.14,9.14,0,0,1,76.29,15.63Zm.84,0c0,.18,0,.37,0,.58s0,.43.08.65a4.47,4.47,0,0,0,.16.63,1.9,1.9,0,0,0,.28.55,1.55,1.55,0,0,0,.42.39,1.27,1.27,0,0,0,.6.14,1.21,1.21,0,0,0,.6-.14,1.45,1.45,0,0,0,.43-.39,1.9,1.9,0,0,0,.28-.55,4.47,4.47,0,0,0,.16-.63,4.78,4.78,0,0,0,.07-.65c0-.21,0-.4,0-.58s0-.36,0-.58A4.79,4.79,0,0,0,80,13.77a2,2,0,0,0-.28-.55,1.3,1.3,0,0,0-.43-.38,1.11,1.11,0,0,0-.6-.15,1.16,1.16,0,0,0-.6.15,1.37,1.37,0,0,0-.42.38,2,2,0,0,0-.28.55,4.61,4.61,0,0,0-.16.64c0,.21-.06.43-.08.64S77.13,15.46,77.13,15.63Z"/><path d="M81.85,15.63a9.26,9.26,0,0,1,.1-1.25,4,4,0,0,1,.37-1.18,2.44,2.44,0,0,1,.74-.88,2.22,2.22,0,0,1,2.39,0,2.41,2.41,0,0,1,.73.88,3.71,3.71,0,0,1,.37,1.18,7.88,7.88,0,0,1,.1,1.25,7.79,7.79,0,0,1-.1,1.25,3.77,3.77,0,0,1-.37,1.19,2.5,2.5,0,0,1-.73.88,2.27,2.27,0,0,1-2.39,0,2.53,2.53,0,0,1-.74-.88A4,4,0,0,1,82,16.88,9.14,9.14,0,0,1,81.85,15.63Zm.84,0c0,.18,0,.37,0,.58s0,.43.08.65a4.47,4.47,0,0,0,.16.63,1.9,1.9,0,0,0,.28.55,1.55,1.55,0,0,0,.42.39,1.27,1.27,0,0,0,.6.14,1.21,1.21,0,0,0,.6-.14,1.45,1.45,0,0,0,.43-.39,1.9,1.9,0,0,0,.28-.55,4.47,4.47,0,0,0,.16-.63,4.78,4.78,0,0,0,.07-.65c0-.21,0-.4,0-.58s0-.36,0-.58a4.79,4.79,0,0,0-.23-1.28,2,2,0,0,0-.28-.55,1.3,1.3,0,0,0-.43-.38,1.11,1.11,0,0,0-.6-.15,1.16,1.16,0,0,0-.6.15,1.37,1.37,0,0,0-.42.38,2,2,0,0,0-.28.55,4.61,4.61,0,0,0-.16.64c0,.21-.06.43-.08.64S82.69,15.46,82.69,15.63Z"/><path d="M87.41,15.63a9.26,9.26,0,0,1,.1-1.25,4,4,0,0,1,.37-1.18,2.44,2.44,0,0,1,.74-.88,2.22,2.22,0,0,1,2.39,0,2.41,2.41,0,0,1,.73.88,3.71,3.71,0,0,1,.37,1.18,7.88,7.88,0,0,1,.1,1.25,7.79,7.79,0,0,1-.1,1.25,3.77,3.77,0,0,1-.37,1.19A2.5,2.5,0,0,1,91,19a2.27,2.27,0,0,1-2.39,0,2.53,2.53,0,0,1-.74-.88,4,4,0,0,1-.37-1.19A9.14,9.14,0,0,1,87.41,15.63Zm.84,0c0,.18,0,.37,0,.58s0,.43.08.65a4.47,4.47,0,0,0,.16.63,1.9,1.9,0,0,0,.28.55,1.55,1.55,0,0,0,.42.39,1.27,1.27,0,0,0,.6.14,1.21,1.21,0,0,0,.6-.14,1.45,1.45,0,0,0,.43-.39,1.9,1.9,0,0,0,.28-.55,4.47,4.47,0,0,0,.16-.63,4.78,4.78,0,0,0,.07-.65c0-.21,0-.4,0-.58s0-.36,0-.58a4.79,4.79,0,0,0-.23-1.28,2,2,0,0,0-.28-.55,1.3,1.3,0,0,0-.43-.38,1.11,1.11,0,0,0-.6-.15,1.16,1.16,0,0,0-.6.15,1.37,1.37,0,0,0-.42.38,2,2,0,0,0-.28.55,4.61,4.61,0,0,0-.16.64c0,.21-.06.43-.08.64S88.25,15.46,88.25,15.63Z"/><path d="M93,15.63a9.26,9.26,0,0,1,.1-1.25,4,4,0,0,1,.37-1.18,2.44,2.44,0,0,1,.74-.88,2.22,2.22,0,0,1,2.39,0,2.41,2.41,0,0,1,.73.88,3.71,3.71,0,0,1,.37,1.18,7.88,7.88,0,0,1,.1,1.25,7.79,7.79,0,0,1-.1,1.25,3.77,3.77,0,0,1-.37,1.19,2.5,2.5,0,0,1-.73.88,2.27,2.27,0,0,1-2.39,0,2.53,2.53,0,0,1-.74-.88,4,4,0,0,1-.37-1.19A9.14,9.14,0,0,1,93,15.63Zm.84,0c0,.18,0,.37,0,.58s0,.43.08.65a4.47,4.47,0,0,0,.16.63,1.9,1.9,0,0,0,.28.55,1.55,1.55,0,0,0,.42.39,1.27,1.27,0,0,0,.6.14,1.21,1.21,0,0,0,.6-.14A1.45,1.45,0,0,0,96.4,18a1.9,1.9,0,0,0,.28-.55,4.47,4.47,0,0,0,.16-.63,4.78,4.78,0,0,0,.07-.65c0-.21,0-.4,0-.58s0-.36,0-.58a4.79,4.79,0,0,0-.23-1.28,2,2,0,0,0-.28-.55,1.3,1.3,0,0,0-.43-.38,1.11,1.11,0,0,0-.6-.15,1.16,1.16,0,0,0-.6.15,1.37,1.37,0,0,0-.42.38,2,2,0,0,0-.28.55,4.61,4.61,0,0,0-.16.64c0,.21-.06.43-.08.64S93.81,15.46,93.81,15.63Z"/><path d="M98.15,19.92h5v.5h-5Z"/><path d="M106.75,19.17h-.84v-6h0l-1.27,1.07-.5-.61,1.9-1.54h.73Z"/><path d="M109.09,15.63a9.26,9.26,0,0,1,.1-1.25,4,4,0,0,1,.37-1.18,2.44,2.44,0,0,1,.74-.88,2.22,2.22,0,0,1,2.39,0,2.41,2.41,0,0,1,.73.88,3.71,3.71,0,0,1,.37,1.18,7.88,7.88,0,0,1,.1,1.25,7.79,7.79,0,0,1-.1,1.25,3.77,3.77,0,0,1-.37,1.19,2.5,2.5,0,0,1-.73.88,2.27,2.27,0,0,1-2.39,0,2.53,2.53,0,0,1-.74-.88,4,4,0,0,1-.37-1.19A9.14,9.14,0,0,1,109.09,15.63Zm.84,0c0,.18,0,.37,0,.58s0,.43.08.65a4.47,4.47,0,0,0,.16.63,1.9,1.9,0,0,0,.28.55,1.55,1.55,0,0,0,.42.39,1.27,1.27,0,0,0,.6.14,1.21,1.21,0,0,0,.6-.14,1.45,1.45,0,0,0,.43-.39,1.9,1.9,0,0,0,.28-.55,4.47,4.47,0,0,0,.16-.63,4.78,4.78,0,0,0,.07-.65c0-.21,0-.4,0-.58s0-.36,0-.58a4.79,4.79,0,0,0-.23-1.28,2,2,0,0,0-.28-.55,1.3,1.3,0,0,0-.43-.38,1.11,1.11,0,0,0-.6-.15,1.16,1.16,0,0,0-.6.15,1.37,1.37,0,0,0-.42.38,2,2,0,0,0-.28.55,4.61,4.61,0,0,0-.16.64c0,.21-.06.43-.08.64S109.93,15.46,109.93,15.63Z"/><path d="M114.65,15.63a9.26,9.26,0,0,1,.1-1.25,4,4,0,0,1,.37-1.18,2.44,2.44,0,0,1,.74-.88,2.22,2.22,0,0,1,2.39,0,2.41,2.41,0,0,1,.73.88,3.71,3.71,0,0,1,.37,1.18,7.88,7.88,0,0,1,.1,1.25,7.79,7.79,0,0,1-.1,1.25,3.77,3.77,0,0,1-.37,1.19,2.5,2.5,0,0,1-.73.88,2.27,2.27,0,0,1-2.39,0,2.53,2.53,0,0,1-.74-.88,4,4,0,0,1-.37-1.19A9.14,9.14,0,0,1,114.65,15.63Zm.84,0c0,.18,0,.37,0,.58s0,.43.08.65a4.47,4.47,0,0,0,.16.63A1.9,1.9,0,0,0,116,18a1.55,1.55,0,0,0,.42.39,1.27,1.27,0,0,0,.6.14,1.21,1.21,0,0,0,.6-.14,1.45,1.45,0,0,0,.43-.39,1.9,1.9,0,0,0,.28-.55,4.47,4.47,0,0,0,.16-.63,4.78,4.78,0,0,0,.07-.65c0-.21,0-.4,0-.58s0-.36,0-.58a4.79,4.79,0,0,0-.23-1.28,2,2,0,0,0-.28-.55,1.3,1.3,0,0,0-.43-.38,1.11,1.11,0,0,0-.6-.15,1.16,1.16,0,0,0-.6.15,1.37,1.37,0,0,0-.42.38,2,2,0,0,0-.28.55,4.61,4.61,0,0,0-.16.64c0,.21-.06.43-.08.64S115.49,15.46,115.49,15.63Z"/><path d="M119.89,12.09h.93L122.43,18h0l1.74-5.88h.94L126.86,18h0l1.64-5.88h.88l-2.08,7.08h-.91l-1.75-6h0l-1.76,6H122Z"/><path d="M133.05,12.09h.84v3h3.78v-3h.84v7.08h-.84v-3.3h-3.78v3.3h-.84Z"/><path d="M140.34,12.09h.84v6.3h3.24v.78h-4.08Z"/></g></svg>