<svg id="Bon_Jour_versailles" data-name="Bon Jour versailles" xmlns="http://www.w3.org/2000/svg" xmlns:xlink="http://www.w3.org/1999/xlink" viewBox="0 0 300 263"><defs><style>.cls-1,.cls-2,.cls-5{fill:none;}.cls-2,.cls-5{stroke:#000;stroke-width:0.5px;}.cls-3{isolation:isolate;}.cls-4{clip-path:url(#clip-path);}.cls-5{stroke-linecap:round;stroke-miterlimit:2;}</style><clipPath id="clip-path"><rect class="cls-1" x="85.11" y="55.68" width="128.8" height="171.25"/></clipPath></defs><title>bon-jour-versailles-table-starck-flos-F1041015-spech-tech-02-300x263-01</title><line class="cls-2" x1="114" y1="235.96" x2="186" y2="235.96"/><line class="cls-2" x1="114" y1="234.26" x2="114" y2="237.66"/><line class="cls-2" x1="186" y1="234.26" x2="186" y2="237.66"/><line class="cls-2" x1="84.35" y1="23.94" x2="215.65" y2="23.94"/><line class="cls-2" x1="84.35" y1="22.24" x2="84.35" y2="25.64"/><line class="cls-2" x1="215.65" y1="22.24" x2="215.65" y2="25.64"/><line class="cls-2" x1="76.92" y1="225.32" x2="76.92" y2="55.68"/><line class="cls-2" x1="75.22" y1="225.32" x2="78.62" y2="225.32"/><line class="cls-2" x1="75.22" y1="55.68" x2="78.62" y2="55.68"/><g class="cls-3"><path d="M120.54,250a3.67,3.67,0,0,1,.7,1.16,4.15,4.15,0,0,1,0,3,3.7,3.7,0,0,1-.85,1.25,4,4,0,0,1-1.3.82,4.78,4.78,0,0,1-3.13.07,3.82,3.82,0,0,1-1.15-.61l-1.11,1.09-.54-.49,1.1-1.09a3.45,3.45,0,0,1-.71-1.18,4,4,0,0,1-.25-1.43,4,4,0,0,1,.3-1.57,3.88,3.88,0,0,1,.86-1.25,3.94,3.94,0,0,1,1.3-.82,4.49,4.49,0,0,1,1.66-.3,4.72,4.72,0,0,1,1.44.22,4,4,0,0,1,1.2.62l1.09-1.09.54.49Zm-1.3.26a2.8,2.8,0,0,0-1.87-.63,2.92,2.92,0,0,0-1.22.24,2.6,2.6,0,0,0-.92.63,2.91,2.91,0,0,0-.58.94,3.24,3.24,0,0,0-.21,1.17,2.87,2.87,0,0,0,.57,1.82ZM115.51,255a2.88,2.88,0,0,0,.83.45,3.32,3.32,0,0,0,1,.16,3,3,0,0,0,1.22-.24,2.69,2.69,0,0,0,.92-.63,2.83,2.83,0,0,0,.59-.94,3.2,3.2,0,0,0,.21-1.17,3,3,0,0,0-.57-1.82Z"/><path d="M132.7,256.32h-1.2v-9.88l-2.11,1.79-.74-.87,3-2.36h1.06Z"/><path d="M144,246.05l-4.74,10.27H138l4.83-10.27h-5.73V245h7Z"/><path d="M153.12,246.05h-4.81l-.08,3.41a3.76,3.76,0,0,1,.78-.21,5.39,5.39,0,0,1,.8-.06,4.06,4.06,0,0,1,1.51.27,3.25,3.25,0,0,1,1.17.76,3.63,3.63,0,0,1,.77,1.15,3.86,3.86,0,0,1,.27,1.45,3.72,3.72,0,0,1-.3,1.5,3.33,3.33,0,0,1-.83,1.16,3.68,3.68,0,0,1-1.25.76,4.25,4.25,0,0,1-1.57.28,3.89,3.89,0,0,1-2-.52,3.35,3.35,0,0,1-1.38-1.5l1.19-.5a2.62,2.62,0,0,0,.93,1.07,2.48,2.48,0,0,0,1.38.39,2.75,2.75,0,0,0,1-.2,2.48,2.48,0,0,0,.83-.54,2.43,2.43,0,0,0,.57-.8,2.34,2.34,0,0,0,.2-1,2.79,2.79,0,0,0-.21-1.09,2.57,2.57,0,0,0-.6-.85,2.47,2.47,0,0,0-.91-.55,3.42,3.42,0,0,0-1.17-.2,4.83,4.83,0,0,0-1.25.17,6.11,6.11,0,0,0-1.19.46l.12-5.87h6Z"/><path d="M160.44,250.5c0-.28,0-.55,0-.83l-.06-.83h1.18V250h0a2.6,2.6,0,0,1,1.11-1,3.27,3.27,0,0,1,1.4-.34,4.13,4.13,0,0,1,.67.07,2.44,2.44,0,0,1,.69.23,2.26,2.26,0,0,1,.62.47,2.47,2.47,0,0,1,.49.79,2.59,2.59,0,0,1,1.06-1.14,3.28,3.28,0,0,1,3.71.34,3,3,0,0,1,.72,2.17v4.75h-1.1V252a3.17,3.17,0,0,0-.41-1.75,1.78,1.78,0,0,0-1.55-.61,2,2,0,0,0-1,.24,1.88,1.88,0,0,0-.67.61,2.84,2.84,0,0,0-.38.87,4.9,4.9,0,0,0-.11,1v4h-1.1V252a3.17,3.17,0,0,0-.41-1.75,1.78,1.78,0,0,0-1.55-.61c-.07,0-.22,0-.46.07a1.83,1.83,0,0,0-.74.35,2.71,2.71,0,0,0-.69.86,3.53,3.53,0,0,0-.3,1.6v3.84h-1.1Z"/><path d="M174.59,250.5c0-.28,0-.55,0-.83l-.06-.83h1.18V250h0a2.6,2.6,0,0,1,1.11-1,3.31,3.31,0,0,1,1.4-.34,4.24,4.24,0,0,1,.68.07,2.48,2.48,0,0,1,.68.23,2.3,2.3,0,0,1,.63.47,2.88,2.88,0,0,1,.49.79,2.51,2.51,0,0,1,1-1.14,3.3,3.3,0,0,1,3.72.34,3.08,3.08,0,0,1,.71,2.17v4.75h-1.1V252a3.08,3.08,0,0,0-.41-1.75,1.76,1.76,0,0,0-1.55-.61,2,2,0,0,0-1,.24,2,2,0,0,0-.67.61,2.6,2.6,0,0,0-.37.87,4.31,4.31,0,0,0-.12,1v4h-1.1V252a3.08,3.08,0,0,0-.41-1.75,1.76,1.76,0,0,0-1.55-.61l-.45.07a1.72,1.72,0,0,0-.74.35,2.46,2.46,0,0,0-.69.86,3.4,3.4,0,0,0-.31,1.6v3.84h-1.1Z"/></g><g class="cls-3"><path d="M120,11.14a3.69,3.69,0,0,1,.71,1.16,4,4,0,0,1,.26,1.45,3.85,3.85,0,0,1-.31,1.56,3.63,3.63,0,0,1-.86,1.25,4,4,0,0,1-1.3.83,4.68,4.68,0,0,1-1.67.29,4.46,4.46,0,0,1-1.45-.22,4,4,0,0,1-1.16-.61l-1.11,1.09-.53-.5,1.1-1.09a3.53,3.53,0,0,1-.72-1.17,4,4,0,0,1-.25-1.43,3.86,3.86,0,0,1,.31-1.57,3.75,3.75,0,0,1,.85-1.25,3.83,3.83,0,0,1,1.31-.82,4.4,4.4,0,0,1,1.65-.3,4.54,4.54,0,0,1,1.45.22,4.06,4.06,0,0,1,1.19.61l1.1-1.09.53.5Zm-1.29.25a2.88,2.88,0,0,0-1.88-.62,3.16,3.16,0,0,0-1.22.23,2.85,2.85,0,0,0-.91.63,2.79,2.79,0,0,0-.58.95,3.2,3.2,0,0,0-.21,1.17,2.94,2.94,0,0,0,.56,1.82Zm-3.74,4.72a2.47,2.47,0,0,0,.83.45,3.05,3.05,0,0,0,1,.16,3.12,3.12,0,0,0,1.22-.23,2.74,2.74,0,0,0,.92-.63,2.58,2.58,0,0,0,.59-.95,3.19,3.19,0,0,0,.21-1.16,3.1,3.1,0,0,0-.56-1.83Z"/><path d="M129.74,11h.62a4.07,4.07,0,0,0,1-.12,2.25,2.25,0,0,0,.82-.36,1.8,1.8,0,0,0,.55-.64,2.06,2.06,0,0,0,.21-1,1.8,1.8,0,0,0-.57-1.42,2.33,2.33,0,0,0-1.6-.5,2.58,2.58,0,0,0-1.32.32,2.64,2.64,0,0,0-.93.92l-1-.51a3.37,3.37,0,0,1,1.35-1.35,4,4,0,0,1,1.9-.44,4.28,4.28,0,0,1,1.31.19,3.28,3.28,0,0,1,1.08.57,2.76,2.76,0,0,1,1,2.18,2.55,2.55,0,0,1-.16.88,3,3,0,0,1-.43.76,3.53,3.53,0,0,1-.64.58,3.06,3.06,0,0,1-.77.38l.05,0a2.46,2.46,0,0,1,.92.36,2.74,2.74,0,0,1,.71.65,2.87,2.87,0,0,1,.47.86,3.33,3.33,0,0,1-.14,2.4,2.91,2.91,0,0,1-.81,1,3.63,3.63,0,0,1-1.2.64,4.82,4.82,0,0,1-1.44.21,4.55,4.55,0,0,1-2.26-.54A3.41,3.41,0,0,1,127,15.39l1.27-.36a2.33,2.33,0,0,0,.89,1.2,2.88,2.88,0,0,0,1.65.4,3,3,0,0,0,1-.16,2.44,2.44,0,0,0,.78-.46,2.1,2.1,0,0,0,.54-.71,2.28,2.28,0,0,0,.19-.91,2.21,2.21,0,0,0-.25-1.08,2.1,2.1,0,0,0-.67-.72,2.8,2.8,0,0,0-1-.39,5.19,5.19,0,0,0-1.12-.12h-.52Z"/><path d="M141.37,17.49h-1.2V7.6l-2.11,1.79-.74-.86,3-2.37h1.06Z"/><path d="M148,11l0,0a2,2,0,0,1,.75-.29,4.84,4.84,0,0,1,.88-.1,3.7,3.7,0,0,1,1.42.27,3.59,3.59,0,0,1,1.14.73,3.26,3.26,0,0,1,.75,1.1,3.62,3.62,0,0,1,.27,1.41A3.43,3.43,0,0,1,153,15.6a3.26,3.26,0,0,1-.79,1.11,3.72,3.72,0,0,1-1.22.72,4.78,4.78,0,0,1-3.05,0,3.72,3.72,0,0,1-1.22-.72,3.13,3.13,0,0,1-.79-1.11,3.43,3.43,0,0,1-.29-1.42,4.38,4.38,0,0,1,.29-1.65,9.76,9.76,0,0,1,.73-1.39l3.17-5h1.41Zm-1.2,3.15a2.46,2.46,0,0,0,.19,1,2.28,2.28,0,0,0,1.37,1.28,3.24,3.24,0,0,0,2.13,0,2.28,2.28,0,0,0,1.37-1.28,2.67,2.67,0,0,0,0-2,2.23,2.23,0,0,0-.54-.77,2.76,2.76,0,0,0-.83-.51,3.24,3.24,0,0,0-2.13,0,2.76,2.76,0,0,0-.83.51,2.23,2.23,0,0,0-.54.77A2.46,2.46,0,0,0,146.82,14.18Z"/><path d="M159.88,11.67q0-.42,0-.84c0-.27,0-.55-.06-.83H161v1.14h0a2.46,2.46,0,0,1,1.1-1,3.17,3.17,0,0,1,1.4-.34,4.18,4.18,0,0,1,.68.06,2.46,2.46,0,0,1,.69.24,2.26,2.26,0,0,1,.62.47,2.48,2.48,0,0,1,.49.78,2.44,2.44,0,0,1,1-1.13,3,3,0,0,1,1.51-.42,2.9,2.9,0,0,1,2.21.76,3.08,3.08,0,0,1,.71,2.17v4.75h-1.09V13.12a3,3,0,0,0-.42-1.74,1.73,1.73,0,0,0-1.54-.61,2.16,2.16,0,0,0-1,.23,2,2,0,0,0-.67.62,2.72,2.72,0,0,0-.37.87,4.25,4.25,0,0,0-.12,1v4h-1.09V13.12a3,3,0,0,0-.42-1.74,1.73,1.73,0,0,0-1.54-.61l-.46.06a1.75,1.75,0,0,0-.74.36,2.58,2.58,0,0,0-.69.86,3.49,3.49,0,0,0-.31,1.6v3.84h-1.09Z"/><path d="M174,11.67q0-.42,0-.84c0-.27,0-.55-.05-.83h1.18v1.14h0a2.46,2.46,0,0,1,1.1-1,3.18,3.18,0,0,1,1.41-.34,4.06,4.06,0,0,1,.67.06,2.46,2.46,0,0,1,.69.24,2.26,2.26,0,0,1,.62.47,2.31,2.31,0,0,1,.49.78,2.46,2.46,0,0,1,1.06-1.13,2.94,2.94,0,0,1,1.5-.42,2.89,2.89,0,0,1,2.21.76,3,3,0,0,1,.71,2.17v4.75h-1.09V13.12a3,3,0,0,0-.42-1.74,1.72,1.72,0,0,0-1.54-.61,2.15,2.15,0,0,0-1,.23,1.9,1.9,0,0,0-.67.62,2.53,2.53,0,0,0-.38.87,4.25,4.25,0,0,0-.11,1v4h-1.1V13.12a3,3,0,0,0-.42-1.74,1.72,1.72,0,0,0-1.54-.61l-.46.06a1.8,1.8,0,0,0-.74.36,2.71,2.71,0,0,0-.69.86,3.51,3.51,0,0,0-.3,1.6v3.84H174Z"/></g><g class="cls-3"><path d="M64.77,165.78v-1.63h1.06v1.63h2.68v1.15H65.83v4.9H64.51l-7.32-4.58v-1.47Zm-6.43,1.15v0l6.43,3.91v-3.94Z"/><path d="M68.51,155.57v7.2H67.19l-4.6-4.51-.54-.51a3.9,3.9,0,0,0-.61-.46,3.25,3.25,0,0,0-.67-.34,2,2,0,0,0-.74-.13,2.05,2.05,0,0,0-.83.17,1.79,1.79,0,0,0-.62.47,2.13,2.13,0,0,0-.39.71,2.55,2.55,0,0,0-.14.84,2.33,2.33,0,0,0,.48,1.48,2.2,2.2,0,0,0,1.3.78l-.13,1.22a3.21,3.21,0,0,1-2-1.16,3.53,3.53,0,0,1-.71-2.24,4.59,4.59,0,0,1,.18-1.3,3.39,3.39,0,0,1,.55-1.09,2.69,2.69,0,0,1,2.21-1,3.51,3.51,0,0,1,1.2.2,4.9,4.9,0,0,1,1,.52,6.33,6.33,0,0,1,.91.73c.29.27.58.55.85.84l3.54,3.57v-6Z"/><path d="M62.05,151.38v-.59a4.19,4.19,0,0,0-.11-.95,2.44,2.44,0,0,0-.36-.8,1.79,1.79,0,0,0-.65-.53,2.19,2.19,0,0,0-1-.2,1.82,1.82,0,0,0-1.42.55,2.24,2.24,0,0,0-.5,1.55,2.46,2.46,0,0,0,.32,1.26,2.52,2.52,0,0,0,.93.9l-.51,1a3.42,3.42,0,0,1-1.36-1.3,3.75,3.75,0,0,1-.43-1.83,4.07,4.07,0,0,1,.19-1.27,3,3,0,0,1,.56-1,2.84,2.84,0,0,1,.93-.71,3,3,0,0,1,1.26-.26,2.58,2.58,0,0,1,.88.15,2.5,2.5,0,0,1,.75.42,2.8,2.8,0,0,1,.58.61,2.6,2.6,0,0,1,.38.74l0-.05a2.72,2.72,0,0,1,.36-.88,2.67,2.67,0,0,1,.65-.69,3.2,3.2,0,0,1,.86-.45,3.39,3.39,0,0,1,1-.16,3.2,3.2,0,0,1,1.39.29,3,3,0,0,1,1,.79,3.3,3.3,0,0,1,.63,1.15,4.55,4.55,0,0,1,.22,1.39,4.18,4.18,0,0,1-.55,2.18A3.33,3.33,0,0,1,66.42,154l-.37-1.22a2.37,2.37,0,0,0,1.21-.86,2.75,2.75,0,0,0,.39-1.59,2.53,2.53,0,0,0-.16-.91,2.34,2.34,0,0,0-.46-.76,1.93,1.93,0,0,0-.71-.51,2.27,2.27,0,0,0-.91-.18,2.21,2.21,0,0,0-1.08.24,2,2,0,0,0-.71.64,2.64,2.64,0,0,0-.39.92,4.7,4.7,0,0,0-.12,1.08v.49Z"/><path d="M62.69,140.15l-.83,0-.83.06v-1.14h1.13v0a2.47,2.47,0,0,1-1-1.06,3.13,3.13,0,0,1-.34-1.35,3.79,3.79,0,0,1,.07-.65,2.42,2.42,0,0,1,.23-.67,2.34,2.34,0,0,1,.47-.6,2.85,2.85,0,0,1,.79-.47,2.48,2.48,0,0,1-1.14-1,3.07,3.07,0,0,1,.34-3.58,3.12,3.12,0,0,1,2.17-.69h4.75V130H64.15a3.17,3.17,0,0,0-1.75.4,1.65,1.65,0,0,0-.61,1.49,1.91,1.91,0,0,0,.24,1,2,2,0,0,0,.61.65,3.07,3.07,0,0,0,.87.36,4.9,4.9,0,0,0,1,.11h4v1.05H64.15a3.26,3.26,0,0,0-1.75.4,1.68,1.68,0,0,0-.61,1.49,4.26,4.26,0,0,0,.07.44,1.62,1.62,0,0,0,.35.71,2.55,2.55,0,0,0,.86.67,3.55,3.55,0,0,0,1.6.29h3.84v1.06Z"/><path d="M62.69,126.52l-.83,0-.83.06v-1.14h1.13v0a2.53,2.53,0,0,1-1-1.06,3.14,3.14,0,0,1-.34-1.36,3.79,3.79,0,0,1,.07-.64,2.42,2.42,0,0,1,.23-.67,2.34,2.34,0,0,1,.47-.6,2.85,2.85,0,0,1,.79-.47,2.45,2.45,0,0,1-1.14-1,2.73,2.73,0,0,1-.42-1.44,2.76,2.76,0,0,1,.76-2.13,3.12,3.12,0,0,1,2.17-.69h4.75v1.06H64.15a3.17,3.17,0,0,0-1.75.4,1.65,1.65,0,0,0-.61,1.48,1.92,1.92,0,0,0,.24,1,1.87,1.87,0,0,0,.61.64,2.58,2.58,0,0,0,.87.36,4.31,4.31,0,0,0,1,.12h4v1H64.15a3.26,3.26,0,0,0-1.75.4,1.67,1.67,0,0,0-.61,1.49c0,.06,0,.21.07.44a1.62,1.62,0,0,0,.35.71,2.55,2.55,0,0,0,.86.67,3.69,3.69,0,0,0,1.6.29h3.84v1.06Z"/></g><g class="cls-4"><path class="cls-5" d="M205.32,56h-78.5m0,0H93.7m32.55,4.87h-34m114.44,0H126.25"/><path class="cls-5" d="M126.21,60.82h-34m34.53-4.73H93.5m113.31,4.73h-80.6m79.31-4.73H126.74"/><path class="cls-5" d="M154,90.49l0,.1,0,.1v.09l0,.1V91l0,.1,0,.1v1.73M142.61,117h3.45m-3.45,0v-1.3m1.21,3.25,2.24-2m0,0h3.45m3.45-1.3h-3.45m3.45,0-.11-.11-.1-.12-.1-.15-.07-.12-.06-.12-.12-.29-.1-.31m-.27-2.06h0v0h0v0h0v0h0v0h0v0h0v0h0v0h0v0h0v0h0v0h0v0h0v0h0v0h0v0h0v0h0v0h.05v0h.1m2.25-2.06H152m2.52,0-.79-19.48m-15.63,26h5.69m-5.69,0,4.48-2m1.21,3.16v-1.21m0,0h5.69m3.45-2h-3.45m3.45,0v-1.3m3.45,0H153m2.14-1.22v.08l0,0v.06l0,0v.06l0,0v0l0,0h0l0,0v0l0,0v0h0v0l0,0v0h0l0,0v0l0,0h0l0,0,0,0h0l0,0h0l0,0,0,0h0l0,0h0v0h0l0,0h0l0,0h0l0,0h0l0,0h0l0,0H156l0,0h0l0,0h.1l0,0h.26m-1.86-3.28v1.78h0v.09l0,0v.15h0m-17,5.68h5.69m-5.69,0v-1.21m7.93,3.16-2.24-2m0,0h5.69m5.69-1.21h-5.69m5.69,0L153,117m3.45,0H153m3.45,0v-1.3m-13.8,6.41h3.45m-3.45,0-4.48-2m7.93,3.25v-1.3m0,0h3.45m5.69-2h-5.69m5.69,0v-1.21m5.69,0H155.2m5.69,0-4.48-2m-10.35,6.41h-3.45m0,0v-1.3m-5.31,94.64.54-.15.27-.08.39-.13.4-.15.39-.17.39-.19.35-.2.34-.21.34-.23L141,215l.31-.25.3-.28.29-.29.28-.3.27-.32.35-.44.32-.46.31-.49.29-.52.24-.49.23-.5.22-.53m0,0,.18-.47.16-.49.16-.51.15-.57.14-.59.13-.62.11-.62.1-.69.09-.71.08-.73.07-.73.05-.85,0-.86,0-1,0-1,0-1.37,0-1.38,0-4.28.15-13.87.27-25.79.16-16.18.06-5.27,0-5.26v-.84l0-.33,0-.24,0-.23,0-.17-.05-.17-.08-.22-.1-.2-.11-.18-.06-.07-.07-.07-.08-.07m0,0h3.45m3.45-1.3h-3.45m3.45,0,2.24-2m5.69,0H155.2m5.69,0v-1.21m-35.77,97.8h12.2m5.3-93.34.21.1.2.12.2.15.17.16.16.18.09.13.07.13.1.2.07.21.05.21,0,.22,0,.3v2l0,1.6-.05,2.41-.07,3.6-.19,9.46-.51,24.86-.46,21.29-.09,4.35-.05,1.73,0,1.36,0,.69,0,.88,0,.88-.08,1,0,.49-.05.49-.07.48-.07.49-.09.51-.1.5-.1.45-.12.45-.12.41-.13.4-.13.38-.15.38-.2.47-.22.46-.24.46-.3.53-.34.52-.36.5-.35.44-.36.42-.38.41-.4.39-.44.4-.44.37-.46.35-.48.33-.52.35-.53.32-.55.3-.55.28-.61.28-.61.26-.65.26-.65.23-.7.22-.71.21-.75.19-.76.17-.81.16-.81.15-.61.09-1.23.17m12.2,1.51v-1.51m12.19,0H137.32M153,123.38h-3.45m3.45,0v-1.3m3.45,0H153m3.45,0,4.48-2m-35.77,98.1h12.2m-12.2,0v-1.51m11.42,2.14.78-.63m0,0h12.19m0-1.51H161.7m0,0-.53-.15-.27-.08-.39-.13-.4-.15-.39-.17-.39-.19-.35-.2-.34-.21-.34-.23L158,215l-.32-.25-.3-.28-.29-.29-.28-.3-.28-.32-.34-.44-.32-.46-.31-.49-.29-.52-.25-.49-.23-.5-.21-.53m0,0-.18-.47-.16-.49-.15-.51-.16-.57-.14-.59-.13-.62-.11-.62-.1-.69-.1-.71-.07-.73-.07-.73-.05-.85,0-.86,0-1,0-1,0-1.37,0-1.38-.05-4.28-.15-13.87-.27-25.79-.16-16.18-.05-5.27,0-5.26v-.84l0-.33,0-.24,0-.23,0-.17.05-.17.08-.22.1-.2.11-.18.07-.07.06-.07.08-.07m0,0h3.45m0,0v-1.3M131.85,223.14H114.18m22.36-4.28h-13m0,0,1.56-.63m6.73,8v-3.07m-17.67,3.07v-3.07m0,3.07.47.4m17.2-.4H114.18m17.67,0,.23.4m17.43-.4H131.85m17.66-3.07H131.85m0,0h.2l.24,0,.27-.08.29-.1.2-.09.21-.09.21-.1.21-.12.28-.17.29-.19.27-.2.34-.28.17-.16.16-.15.23-.25.21-.27.2-.28.19-.3.17-.32.14-.34.12-.36.09-.37m13,0h-13m25.16-.63H149.51m12.19,0v-1.51m12.2,0H161.71m-5.3-93.34-.22.1-.21.12-.19.15-.17.16-.16.18-.08.13-.08.13-.1.2-.07.21,0,.21,0,.22,0,.3v2l0,1.6.05,2.41.07,3.6.19,9.46.51,24.86.46,21.29.1,4.35,0,1.73,0,1.36,0,.69,0,.88.05.88.08,1,.05.49.05.49.06.48.08.49.09.51.1.5.1.45.12.45.12.41.13.4.13.38.15.38.2.47.22.46.23.46.31.53.34.52.36.5.34.44.37.42.38.41.4.39.43.4.45.37.46.35.48.33.52.35.53.32.55.3.55.28.61.28.61.26.65.26.65.23.7.22.71.21.75.19.76.17.8.16.82.15.61.09,1.22.17m-59.71,6.42h.21l.22,0h.21l.39-.05.38-.06.53-.09.53-.11.52-.12.52-.14.51-.15.51-.16.68-.24.34-.13.34-.15.32-.14.31-.14.32-.17.31-.17.29-.18.29-.19.31-.22.3-.25.28-.26.2-.23.19-.23.16-.25.11-.21.1-.21m25.95,7.35h17.66m0,0-.23.4m0,0h17.43m-34.86,0h17.43m-17.43,0H132.08m0,0H114.65m47.83-7.75h-13m0,4.27h17.66m-4.69-4.28-.78-.63m12.2,0H161.7m12.2,0v-1.51m-6.73,9.49v-3.07m0,3.07h17.67m0,0-.47.4m-21.89-7.75h13m-8.29,4.28h17.67m-17.67,0H167l-.24,0-.27-.08-.29-.1-.21-.09-.2-.09-.21-.1-.21-.12-.28-.17-.29-.19-.27-.2-.34-.28-.17-.16-.16-.15-.23-.25-.21-.27-.2-.28-.19-.3-.17-.32-.14-.34-.12-.36-.09-.37m13,0-1.55-.63m10.93,8v-3.07m0,0h-.21l-.21,0h-.22l-.39-.05-.39-.06-.52-.09-.53-.11-.52-.12-.52-.14-.51-.15-.51-.16-.68-.24-.34-.13-.34-.15-.32-.14-.31-.14-.32-.17-.31-.17-.29-.18-.29-.19-.31-.22-.3-.25-.28-.26-.2-.23-.19-.23-.16-.25-.11-.21-.1-.21M93.59,56.15,92.3,60.94m0,0,0,.08.06,0m1.4-5-.09,0-.08.07,0,.06m111.84,0,1.29,4.79m-.08.1.07,0v-.05m-1.29-4.79-.05-.09L205.3,56h-.07"/></g><line class="cls-5" x1="153.77" y1="92.88" x2="151.64" y2="92.88"/><path class="cls-5" d="M151.68,90.52v2.41h0m.1-2.41.07-.21.08-.2.08-.2.09-.19.13-.24.15-.23.16-.21m0,0,.16-.19.17-.16.09-.07.09-.06m0,0,.12-.06.12,0,.1,0h.1m0,0,.06,0,.05,0,.05,0,0,0,.07.11m0,0,0,.09,0,.09,0,.14,0,.14m0,0,0,.2,0,.21,0,.3v.64m-11.24,25.13h3.42m-2.12-1.22v-.1l0,0v-.13l0,0v-1.77h0m-1.84,3.27h.22l0,0h.1l0,0h.06v0h.06l0,0h0l0,0h0l0,0h0l0,0h0l0,0h0v0h0l0,0h0l0,0h0l0,0,0,0h0l0,0v0h0v0l0,0h0l0,0v0h0v0l0,0v0h0v0l0,0v0h0v0l0,0v-.06l0,0v-.06l0,0v-.08m2.12,2.51v-1.29m0,0h3.41m2.5-3.27h-2.5m2.5,0-.39-19.45"/><line class="cls-5" x1="151.64" y1="92.88" x2="149.51" y2="92.88"/><path class="cls-5" d="M149.5,88.45h0m1.47.72.16.19.14.21.12.22.08.16.08.18.07.18.07.2m-1.28-1.8.2.13.19.15.17.18m-1.27-.71.16,0,.17,0,.16.06.11.06.11.06m-.71-.25h-.2m0-.55h.89m0,0h3.49m0,2.61V87.9m-9.34,24.42H147m-2.48,0,.78-19.4m.79,22.67.1-.11.1-.13.1-.14.07-.12.06-.13.11-.28.1-.31m0,0h.08v0h0v0h0v0h0v0H147v0h0v0h0v0h0v0h0v0h0v0h0v0h0v0h0v0h0v0h0m0,0h2.47"/><line class="cls-5" x1="147.38" y1="92.88" x2="149.51" y2="92.88"/><path class="cls-5" d="M145.33,92.87V91.46l0-.1v-.3l0-.1v-.1l0-.1,0-.1v-.1l0-.09v0m1.79,21.91.36-19.49"/><line class="cls-5" x1="145.25" y1="92.88" x2="147.38" y2="92.88"/><path class="cls-5" d="M145.18,87.82V86.25m8.66,1.57V86.25m-2.78,1.57h-5.88m8.66,0h-2.78m-3.64,5V90.54l0-.1h0m2.19-2.07h0m-4.37,2.07V87.82m3.47,0h-3.47m4.37,0h-.9m.9.55h-.2m0,0-.17,0-.16,0-.16.06-.11,0-.11.06m0,0-.2.14-.19.15-.17.18m0,0-.16.19-.14.21-.12.22-.08.17-.08.17-.07.19-.07.2m0,0-.07-.21-.07-.21-.09-.19-.08-.19-.14-.25-.14-.23-.15-.21m0,0-.17-.19-.17-.16-.09-.07-.09,0m0,0-.11-.06-.12,0h-.21m0,0-.05,0,0,0-.05,0-.05.05-.07.11m0,0,0,.09,0,.1,0,.13,0,.15m0,0,0,.2,0,.21v.94m4.37-2.62h0"/><g class="cls-4"><path class="cls-5" d="M170.08,61.16h-78M172.48,86h-87"/><path class="cls-5" d="M172.41,86.17H85.62M170,61.07H92.32"/></g><path class="cls-5" d="M206.9,61.16H170.08M213.59,86H172.48"/><g class="cls-4"><path class="cls-5" d="M213.31,86.16l.09,0,.08-.06,0-.1v-.07m-6.68-24.7,0-.08-.08-.06h-.07m.2.15,6.68,24.7m-128,0V86l0,.09.08.05h.07m6.69-25.1-.1,0-.07.06,0,.06m0,0-6.68,24.7M206,61l.08,0m-113.16,0L93,61M213.31,86.16H172.38m34.24-25.1H170"/></g><line class="cls-2" x1="93.17" y1="48.06" x2="205.15" y2="48.06"/><line class="cls-2" x1="93.17" y1="46.36" x2="93.17" y2="49.76"/><line class="cls-2" x1="205.15" y1="46.36" x2="205.15" y2="49.76"/><g class="cls-3"><path d="M120.41,35.26a3.89,3.89,0,0,1,.71,1.16,4.29,4.29,0,0,1-.05,3,3.88,3.88,0,0,1-.86,1.25,3.94,3.94,0,0,1-1.3.82,4.78,4.78,0,0,1-3.13.07,4.18,4.18,0,0,1-1.15-.6l-1.11,1.08-.54-.49,1.1-1.09a3.45,3.45,0,0,1-.71-1.18,4,4,0,0,1-.25-1.43,4.07,4.07,0,0,1,.3-1.57,3.73,3.73,0,0,1,.86-1.24,3.91,3.91,0,0,1,1.3-.83,4.49,4.49,0,0,1,1.66-.29,4.73,4.73,0,0,1,1.44.21,4,4,0,0,1,1.2.62L121,33.68l.54.49Zm-1.3.26a2.78,2.78,0,0,0-1.87-.62,3,3,0,0,0-1.22.23,2.6,2.6,0,0,0-.92.63,2.91,2.91,0,0,0-.58.94,3.28,3.28,0,0,0-.21,1.17,2.9,2.9,0,0,0,.57,1.83Zm-3.73,4.72a2.88,2.88,0,0,0,.83.45,3.32,3.32,0,0,0,1,.16,3.16,3.16,0,0,0,1.22-.23,2.87,2.87,0,0,0,.92-.64A2.83,2.83,0,0,0,120,39a3.2,3.2,0,0,0,.21-1.17,3,3,0,0,0-.57-1.82Z"/><path d="M135.06,41.62h-7.47V40.29l4.68-4.59.53-.55a4,4,0,0,0,.48-.61,2.85,2.85,0,0,0,.35-.67,2,2,0,0,0,.14-.74,1.9,1.9,0,0,0-.18-.83,1.73,1.73,0,0,0-.49-.62,2.22,2.22,0,0,0-.73-.39,2.84,2.84,0,0,0-.88-.14,2.45,2.45,0,0,0-1.53.48,2.15,2.15,0,0,0-.81,1.3l-1.27-.13a3.13,3.13,0,0,1,1.21-2,3.69,3.69,0,0,1,2.32-.72,5,5,0,0,1,1.35.18,3.5,3.5,0,0,1,1.13.55,2.66,2.66,0,0,1,.78.92A2.79,2.79,0,0,1,135,33a3.29,3.29,0,0,1-.21,1.2,4.17,4.17,0,0,1-.54,1,6.47,6.47,0,0,1-.75.91c-.28.29-.57.58-.87.85l-3.71,3.54h6.18Z"/><path d="M139.12,35.58a2.29,2.29,0,0,1-.71-.37,2.62,2.62,0,0,1-.56-.59,3.1,3.1,0,0,1-.36-.73,2.63,2.63,0,0,1-.14-.83,2.77,2.77,0,0,1,.27-1.23,2.88,2.88,0,0,1,.71-.93,3.2,3.2,0,0,1,1-.6,4.1,4.1,0,0,1,2.53,0,3.25,3.25,0,0,1,1,.6,2.77,2.77,0,0,1,.72.93,2.91,2.91,0,0,1,.26,1.23,2.62,2.62,0,0,1-.13.83,2.79,2.79,0,0,1-.37.73,2.57,2.57,0,0,1-.55.59,2.41,2.41,0,0,1-.71.37v0a2.8,2.8,0,0,1,1.6,1.05,3.11,3.11,0,0,1,.59,1.92,2.92,2.92,0,0,1-.3,1.33,3.36,3.36,0,0,1-2,1.66,4.4,4.4,0,0,1-1.42.23,4.49,4.49,0,0,1-1.42-.23,3.63,3.63,0,0,1-1.18-.64,3.48,3.48,0,0,1-.81-1,2.8,2.8,0,0,1-.31-1.33,3.12,3.12,0,0,1,.6-1.92,2.8,2.8,0,0,1,1.6-1.05Zm4,2.85a2.32,2.32,0,0,0-.18-.92,2.23,2.23,0,0,0-.51-.73,2.16,2.16,0,0,0-.8-.49,3.09,3.09,0,0,0-2.08,0,2.12,2.12,0,0,0-.79.49,2.09,2.09,0,0,0-.51.73,2.44,2.44,0,0,0,0,1.84,2.23,2.23,0,0,0,.51.74,2.41,2.41,0,0,0,.79.49,3.27,3.27,0,0,0,2.08,0,2.46,2.46,0,0,0,.8-.49,2.39,2.39,0,0,0,.51-.74A2.32,2.32,0,0,0,143.17,38.43Zm-.43-5.28a2.11,2.11,0,0,0-.16-.8,2,2,0,0,0-1.11-1.05,2.23,2.23,0,0,0-.83-.15,2.27,2.27,0,0,0-.83.15,2.06,2.06,0,0,0-.66.42,1.84,1.84,0,0,0-.44.63,1.94,1.94,0,0,0-.16.8,1.91,1.91,0,0,0,.16.8,1.67,1.67,0,0,0,.44.63,2.06,2.06,0,0,0,.66.42,2.27,2.27,0,0,0,.83.15,2.23,2.23,0,0,0,.83-.15,2,2,0,0,0,.67-.42,1.79,1.79,0,0,0,.44-.63A2.08,2.08,0,0,0,142.74,33.15Z"/><path d="M148.65,35.15h.62a4.46,4.46,0,0,0,1-.11,2.61,2.61,0,0,0,.83-.36,1.84,1.84,0,0,0,.55-.65,2.06,2.06,0,0,0,.21-1,1.77,1.77,0,0,0-.57-1.41,2.36,2.36,0,0,0-1.61-.51,2.67,2.67,0,0,0-1.31.32,2.51,2.51,0,0,0-.93.93l-1-.51a3.45,3.45,0,0,1,1.36-1.35,3.89,3.89,0,0,1,1.9-.44,4.28,4.28,0,0,1,1.31.19,3.1,3.1,0,0,1,1.08.57,2.76,2.76,0,0,1,.74.92A2.85,2.85,0,0,1,153,33a2.59,2.59,0,0,1-.16.88,2.77,2.77,0,0,1-.43.75,2.93,2.93,0,0,1-.64.58,2.76,2.76,0,0,1-.77.38l.05,0A2.94,2.94,0,0,1,152,36a2.93,2.93,0,0,1,1.18,1.52,3,3,0,0,1,.16,1A3,3,0,0,1,152.24,41a3.44,3.44,0,0,1-1.2.63,4.52,4.52,0,0,1-1.44.22,4.43,4.43,0,0,1-2.26-.55,3.33,3.33,0,0,1-1.45-1.74l1.27-.37a2.3,2.3,0,0,0,.88,1.21,3,3,0,0,0,1.66.39,2.65,2.65,0,0,0,.94-.16,2.38,2.38,0,0,0,.79-.46,1.87,1.87,0,0,0,.53-.71,2.09,2.09,0,0,0,.2-.91,2.21,2.21,0,0,0-.25-1.08,2.07,2.07,0,0,0-.67-.71,2.8,2.8,0,0,0-1-.39,5.19,5.19,0,0,0-1.12-.12h-.52Z"/><path d="M160.31,35.79c0-.28,0-.55,0-.83l-.06-.83h1.18v1.13h0a2.66,2.66,0,0,1,1.11-1,3.29,3.29,0,0,1,1.4-.33,4.06,4.06,0,0,1,.67.06,2.38,2.38,0,0,1,1.32.7,2.88,2.88,0,0,1,.49.79,2.51,2.51,0,0,1,1-1.14,2.92,2.92,0,0,1,1.5-.41,2.87,2.87,0,0,1,2.21.76,3,3,0,0,1,.72,2.16v4.76h-1.1V37.25a3.17,3.17,0,0,0-.41-1.75,1.77,1.77,0,0,0-1.55-.6,2,2,0,0,0-1,.23,1.88,1.88,0,0,0-.67.61,2.79,2.79,0,0,0-.38.88,4.74,4.74,0,0,0-.11,1v4h-1.1V37.25a3.17,3.17,0,0,0-.41-1.75,1.77,1.77,0,0,0-1.55-.6l-.46.06a1.74,1.74,0,0,0-.73.35,2.46,2.46,0,0,0-.69.86,3.41,3.41,0,0,0-.31,1.61v3.84h-1.1Z"/><path d="M174.47,35.79c0-.28,0-.55,0-.83l-.06-.83h1.18v1.13h0a2.66,2.66,0,0,1,1.11-1,3.29,3.29,0,0,1,1.4-.33,4.18,4.18,0,0,1,.68.06,2.67,2.67,0,0,1,.69.23,2.42,2.42,0,0,1,.62.47,2.66,2.66,0,0,1,.49.79,2.51,2.51,0,0,1,1-1.14,3,3,0,0,1,1.51-.41,2.9,2.9,0,0,1,2.21.76,3,3,0,0,1,.71,2.16v4.76H185V37.25a3.08,3.08,0,0,0-.41-1.75,1.76,1.76,0,0,0-1.55-.6,2,2,0,0,0-1,.23,2,2,0,0,0-.67.61,2.57,2.57,0,0,0-.37.88,4.17,4.17,0,0,0-.12,1v4h-1.1V37.25a3.08,3.08,0,0,0-.41-1.75,1.76,1.76,0,0,0-1.55-.6l-.45.06a1.72,1.72,0,0,0-.74.35,2.46,2.46,0,0,0-.69.86,3.41,3.41,0,0,0-.31,1.61v3.84h-1.09Z"/></g></svg>