<svg id="Bon_Jour" data-name="Bon Jour" xmlns="http://www.w3.org/2000/svg" viewBox="0 0 300 263"><defs><style>.cls-1,.cls-3,.cls-4{fill:none;stroke-width:0.5px;}.cls-1{stroke:#000;}.cls-2{isolation:isolate;}.cls-3,.cls-4{stroke:#12110b;}.cls-3{stroke-linecap:round;stroke-linejoin:round;}.cls-4{stroke-miterlimit:2;}</style></defs><title>bon-jour-table-starck-flos-F1032057-spech-tech-02-300x263</title><line class="cls-1" x1="109.1" y1="233.96" x2="190.9" y2="233.96"/><line class="cls-1" x1="109.1" y1="232.26" x2="109.1" y2="235.66"/><line class="cls-1" x1="190.9" y1="232.26" x2="190.9" y2="235.66"/><line class="cls-1" x1="93.42" y1="47.21" x2="205.79" y2="47.21"/><line class="cls-1" x1="93.42" y1="45.51" x2="93.42" y2="48.91"/><line class="cls-1" x1="205.79" y1="45.51" x2="205.79" y2="48.91"/><line class="cls-1" x1="73.57" y1="223.32" x2="73.57" y2="53.68"/><line class="cls-1" x1="71.87" y1="223.32" x2="75.27" y2="223.32"/><line class="cls-1" x1="71.87" y1="53.68" x2="75.27" y2="53.68"/><g class="cls-2"><path d="M120.54,248a3.67,3.67,0,0,1,.7,1.16,4.15,4.15,0,0,1,0,3,3.7,3.7,0,0,1-.85,1.25,4,4,0,0,1-1.3.82,4.78,4.78,0,0,1-3.13.07,3.82,3.82,0,0,1-1.15-.61l-1.11,1.09-.54-.49,1.1-1.09a3.45,3.45,0,0,1-.71-1.18,4,4,0,0,1-.25-1.43,4,4,0,0,1,.3-1.57,3.88,3.88,0,0,1,.86-1.25,3.94,3.94,0,0,1,1.3-.82,4.49,4.49,0,0,1,1.66-.3,4.72,4.72,0,0,1,1.44.22,4,4,0,0,1,1.2.62l1.09-1.09.54.49Zm-1.3.26a2.8,2.8,0,0,0-1.87-.63,2.92,2.92,0,0,0-1.22.24,2.6,2.6,0,0,0-.92.63,2.91,2.91,0,0,0-.58.94,3.24,3.24,0,0,0-.21,1.17,2.87,2.87,0,0,0,.57,1.82ZM115.51,253a2.88,2.88,0,0,0,.83.45,3.32,3.32,0,0,0,1,.16,3,3,0,0,0,1.22-.24,2.69,2.69,0,0,0,.92-.63,2.83,2.83,0,0,0,.59-.94,3.2,3.2,0,0,0,.21-1.17,3,3,0,0,0-.57-1.82Z"/><path d="M135.19,254.32h-7.48V253l4.69-4.6c.18-.17.35-.35.53-.54a4,4,0,0,0,.48-.61,2.85,2.85,0,0,0,.35-.67,2,2,0,0,0,.13-.74,1.9,1.9,0,0,0-.17-.83,1.85,1.85,0,0,0-.49-.62,2.22,2.22,0,0,0-.73-.39,2.84,2.84,0,0,0-.88-.14,2.45,2.45,0,0,0-1.53.48,2.15,2.15,0,0,0-.81,1.3l-1.27-.13a3.18,3.18,0,0,1,1.21-2,3.73,3.73,0,0,1,2.32-.72,5,5,0,0,1,1.35.19,3.31,3.31,0,0,1,1.13.55,2.66,2.66,0,0,1,.78.92,2.79,2.79,0,0,1,.29,1.29,3.29,3.29,0,0,1-.21,1.2,5,5,0,0,1-.54,1,6.47,6.47,0,0,1-.75.91c-.29.29-.58.58-.87.85L129,253.27h6.18Z"/><path d="M141.94,254.32h-1.2v-9.88l-2.11,1.79-.75-.87,3-2.36h1.07Z"/><path d="M153.66,254.32h-7.47V253l4.68-4.6c.18-.17.36-.35.53-.54a4.85,4.85,0,0,0,.49-.61,2.82,2.82,0,0,0,.34-.67,2,2,0,0,0,.14-.74,1.9,1.9,0,0,0-.18-.83,1.73,1.73,0,0,0-.49-.62A2.22,2.22,0,0,0,151,244a2.8,2.8,0,0,0-.88-.14,2.45,2.45,0,0,0-1.53.48,2.15,2.15,0,0,0-.81,1.3l-1.26-.13a3.13,3.13,0,0,1,1.2-2,3.75,3.75,0,0,1,2.32-.72,5,5,0,0,1,1.35.19,3.22,3.22,0,0,1,1.13.55,2.65,2.65,0,0,1,1.07,2.21,3.51,3.51,0,0,1-.2,1.2,5,5,0,0,1-.54,1,7.33,7.33,0,0,1-.76.91c-.28.29-.57.58-.87.85l-3.71,3.54h6.18Z"/><path d="M160.44,248.5c0-.28,0-.55,0-.83l-.06-.83h1.18V248h0a2.6,2.6,0,0,1,1.11-1,3.27,3.27,0,0,1,1.4-.34,4.13,4.13,0,0,1,.67.07,2.44,2.44,0,0,1,.69.23,2.26,2.26,0,0,1,.62.47,2.47,2.47,0,0,1,.49.79,2.59,2.59,0,0,1,1.06-1.14,3.28,3.28,0,0,1,3.71.34,3,3,0,0,1,.72,2.17v4.75h-1.1V250a3.17,3.17,0,0,0-.41-1.75,1.78,1.78,0,0,0-1.55-.61,2,2,0,0,0-1,.24,1.88,1.88,0,0,0-.67.61,2.84,2.84,0,0,0-.38.87,4.9,4.9,0,0,0-.11,1v4h-1.1V250a3.17,3.17,0,0,0-.41-1.75,1.78,1.78,0,0,0-1.55-.61c-.07,0-.22,0-.46.07a1.83,1.83,0,0,0-.74.35,2.71,2.71,0,0,0-.69.86,3.53,3.53,0,0,0-.3,1.6v3.84h-1.1Z"/><path d="M174.59,248.5c0-.28,0-.55,0-.83l-.06-.83h1.18V248h0a2.6,2.6,0,0,1,1.11-1,3.31,3.31,0,0,1,1.4-.34,4.24,4.24,0,0,1,.68.07,2.48,2.48,0,0,1,.68.23,2.3,2.3,0,0,1,.63.47,2.88,2.88,0,0,1,.49.79,2.51,2.51,0,0,1,1-1.14,3.3,3.3,0,0,1,3.72.34,3.08,3.08,0,0,1,.71,2.17v4.75h-1.1V250a3.08,3.08,0,0,0-.41-1.75,1.76,1.76,0,0,0-1.55-.61,2,2,0,0,0-1,.24,2,2,0,0,0-.67.61,2.6,2.6,0,0,0-.37.87,4.31,4.31,0,0,0-.12,1v4h-1.1V250a3.08,3.08,0,0,0-.41-1.75,1.76,1.76,0,0,0-1.55-.61l-.45.07a1.72,1.72,0,0,0-.74.35,2.46,2.46,0,0,0-.69.86,3.4,3.4,0,0,0-.31,1.6v3.84h-1.1Z"/></g><g class="cls-2"><path d="M120.54,35.71a3.67,3.67,0,0,1,.7,1.16,4.15,4.15,0,0,1,0,3,3.7,3.7,0,0,1-.85,1.25A4,4,0,0,1,119,42a4.78,4.78,0,0,1-3.13.07,3.82,3.82,0,0,1-1.15-.61l-1.11,1.09-.54-.49,1.1-1.09a3.45,3.45,0,0,1-.71-1.18,4,4,0,0,1-.25-1.43,4,4,0,0,1,.3-1.57,3.88,3.88,0,0,1,.86-1.25,3.94,3.94,0,0,1,1.3-.82,4.49,4.49,0,0,1,1.66-.3,4.72,4.72,0,0,1,1.44.22,4,4,0,0,1,1.2.62l1.09-1.09.54.49Zm-1.3.26a2.8,2.8,0,0,0-1.87-.63,2.92,2.92,0,0,0-1.22.24,2.6,2.6,0,0,0-.92.63,2.91,2.91,0,0,0-.58.94,3.24,3.24,0,0,0-.21,1.17,2.87,2.87,0,0,0,.57,1.82Zm-3.73,4.72a2.88,2.88,0,0,0,.83.45,3.32,3.32,0,0,0,1,.16,3,3,0,0,0,1.22-.24,2.69,2.69,0,0,0,.92-.63,2.83,2.83,0,0,0,.59-.94,3.2,3.2,0,0,0,.21-1.17,3,3,0,0,0-.57-1.82Z"/><path d="M135.19,42.06h-7.48V40.74l4.69-4.6c.18-.17.35-.35.53-.54a4,4,0,0,0,.48-.61,2.85,2.85,0,0,0,.35-.67,2,2,0,0,0,.13-.74,1.9,1.9,0,0,0-.17-.83,1.85,1.85,0,0,0-.49-.62,2.22,2.22,0,0,0-.73-.39,2.84,2.84,0,0,0-.88-.14,2.45,2.45,0,0,0-1.53.48,2.15,2.15,0,0,0-.81,1.3L128,33.25a3.18,3.18,0,0,1,1.21-2,3.73,3.73,0,0,1,2.32-.72,5,5,0,0,1,1.35.19,3.5,3.5,0,0,1,1.13.55,2.66,2.66,0,0,1,.78.92,2.79,2.79,0,0,1,.29,1.29,3.29,3.29,0,0,1-.21,1.2,5,5,0,0,1-.54,1,6.47,6.47,0,0,1-.75.91c-.29.29-.58.58-.87.85L129,41h6.18Z"/><path d="M139.24,36a2.35,2.35,0,0,1-.7-.37,2.62,2.62,0,0,1-.56-.59,2.76,2.76,0,0,1-.36-.73,2.64,2.64,0,0,1-.14-.84,2.76,2.76,0,0,1,.27-1.22,2.88,2.88,0,0,1,.71-.94,3.36,3.36,0,0,1,1-.59,3.92,3.92,0,0,1,2.53,0,3.43,3.43,0,0,1,1,.59,2.76,2.76,0,0,1,1,2.16,2.63,2.63,0,0,1-.13.84,2.79,2.79,0,0,1-.37.73,2.57,2.57,0,0,1-.55.59,2.41,2.41,0,0,1-.71.37v0a2.87,2.87,0,0,1,1.6,1.06,3.15,3.15,0,0,1,.59,1.92,2.92,2.92,0,0,1-.3,1.33,3.35,3.35,0,0,1-.82,1,3.48,3.48,0,0,1-1.18.65,4.5,4.5,0,0,1-2.84,0,3.48,3.48,0,0,1-1.18-.65,3.17,3.17,0,0,1-.81-1,2.8,2.8,0,0,1-.31-1.33,3.1,3.1,0,0,1,.6-1.92,2.88,2.88,0,0,1,1.59-1.06Zm4.06,2.85a2.17,2.17,0,0,0-.19-.92,2.36,2.36,0,0,0-.5-.74,2.28,2.28,0,0,0-.8-.48,2.87,2.87,0,0,0-1-.18,2.84,2.84,0,0,0-1,.18,2.18,2.18,0,0,0-1.3,1.22,2.44,2.44,0,0,0,0,1.84,2.18,2.18,0,0,0,1.3,1.22,2.84,2.84,0,0,0,1,.18,2.87,2.87,0,0,0,1-.18,2.28,2.28,0,0,0,.8-.48,2.36,2.36,0,0,0,.5-.74A2.17,2.17,0,0,0,143.3,38.88Zm-.43-5.28a2.11,2.11,0,0,0-.16-.8,1.88,1.88,0,0,0-.44-.63,2,2,0,0,0-.67-.42,2.23,2.23,0,0,0-.83-.15,2.27,2.27,0,0,0-.83.15,2.06,2.06,0,0,0-.66.42,1.75,1.75,0,0,0-.44.63,1.94,1.94,0,0,0-.16.8,1.91,1.91,0,0,0,.16.8,1.67,1.67,0,0,0,.44.63,2.06,2.06,0,0,0,.66.42,2.27,2.27,0,0,0,.83.15,2.23,2.23,0,0,0,.83-.15,2,2,0,0,0,.67-.42,1.79,1.79,0,0,0,.44-.63A2.08,2.08,0,0,0,142.87,33.6Z"/><path d="M148.78,35.6h.61a4.48,4.48,0,0,0,1-.11,2.61,2.61,0,0,0,.83-.36,1.84,1.84,0,0,0,.55-.65,2.06,2.06,0,0,0,.21-1,1.8,1.8,0,0,0-.57-1.42,2.4,2.4,0,0,0-1.61-.5,2.65,2.65,0,0,0-1.31.32,2.44,2.44,0,0,0-.93.93l-1.05-.51A3.55,3.55,0,0,1,147.86,31a4,4,0,0,1,1.9-.44,4.33,4.33,0,0,1,1.31.2,3.09,3.09,0,0,1,1.08.56,2.8,2.8,0,0,1,.74.93,2.85,2.85,0,0,1,.28,1.26,2.59,2.59,0,0,1-.16.88,2.77,2.77,0,0,1-.43.75,3.2,3.2,0,0,1-.64.58,2.76,2.76,0,0,1-.77.38l.05,0a2.74,2.74,0,0,1,1.63,1,3,3,0,0,1,.46.86,2.86,2.86,0,0,1,.17,1,3,3,0,0,1-1.11,2.42,3.62,3.62,0,0,1-1.2.63,4.82,4.82,0,0,1-1.44.22,4.43,4.43,0,0,1-2.26-.55A3.29,3.29,0,0,1,146,40l1.26-.37a2.41,2.41,0,0,0,.89,1.21,3,3,0,0,0,1.66.39,2.69,2.69,0,0,0,.94-.16,2.49,2.49,0,0,0,.79-.46,1.87,1.87,0,0,0,.53-.71,2.13,2.13,0,0,0,.2-.91,2.21,2.21,0,0,0-.25-1.08,2.07,2.07,0,0,0-.67-.71,2.88,2.88,0,0,0-1-.39,5.22,5.22,0,0,0-1.13-.12h-.51Z"/><path d="M160.44,36.24c0-.28,0-.55,0-.83l-.06-.83h1.18v1.13h0a2.6,2.6,0,0,1,1.11-1,3.27,3.27,0,0,1,1.4-.34,4.13,4.13,0,0,1,.67.07,2.44,2.44,0,0,1,.69.23,2.26,2.26,0,0,1,.62.47,2.47,2.47,0,0,1,.49.79,2.59,2.59,0,0,1,1.06-1.14,3.28,3.28,0,0,1,3.71.34,3,3,0,0,1,.72,2.17v4.75h-1.1V37.7a3.17,3.17,0,0,0-.41-1.75,1.78,1.78,0,0,0-1.55-.61,2,2,0,0,0-1,.24,1.88,1.88,0,0,0-.67.61,2.84,2.84,0,0,0-.38.87,4.9,4.9,0,0,0-.11,1v4h-1.1V37.7a3.17,3.17,0,0,0-.41-1.75,1.78,1.78,0,0,0-1.55-.61c-.07,0-.22,0-.46.07a1.83,1.83,0,0,0-.74.35,2.71,2.71,0,0,0-.69.86,3.53,3.53,0,0,0-.3,1.6v3.84h-1.1Z"/><path d="M174.59,36.24c0-.28,0-.55,0-.83l-.06-.83h1.18v1.13h0a2.6,2.6,0,0,1,1.11-1,3.31,3.31,0,0,1,1.4-.34,4.24,4.24,0,0,1,.68.07,2.48,2.48,0,0,1,.68.23,2.3,2.3,0,0,1,.63.47,2.88,2.88,0,0,1,.49.79,2.51,2.51,0,0,1,1-1.14,3.3,3.3,0,0,1,3.72.34,3.08,3.08,0,0,1,.71,2.17v4.75h-1.1V37.7a3.08,3.08,0,0,0-.41-1.75,1.76,1.76,0,0,0-1.55-.61,2,2,0,0,0-1,.24,2,2,0,0,0-.67.61,2.6,2.6,0,0,0-.37.87,4.31,4.31,0,0,0-.12,1v4h-1.1V37.7a3.08,3.08,0,0,0-.41-1.75,1.76,1.76,0,0,0-1.55-.61l-.45.07a1.72,1.72,0,0,0-.74.35,2.46,2.46,0,0,0-.69.86,3.4,3.4,0,0,0-.31,1.6v3.84h-1.1Z"/></g><g class="cls-2"><path d="M61.42,163.78v-1.63h1v1.63h2.69v1.15H62.47v4.9H61.16l-7.33-4.58v-1.47ZM55,164.93v0l6.43,3.91v-3.94Z"/><path d="M65.16,156v1.15H55.28l1.79,2-.87.72L53.83,157v-1Z"/><path d="M53.64,148.2a3.24,3.24,0,0,1,.56-2,3.89,3.89,0,0,1,1.43-1.17,6.3,6.3,0,0,1,1.89-.56,15.36,15.36,0,0,1,2-.14,15.09,15.09,0,0,1,2,.14,6.45,6.45,0,0,1,1.9.56,3.78,3.78,0,0,1,1.42,1.17,3.69,3.69,0,0,1,0,3.94,3.66,3.66,0,0,1-1.42,1.16,6.17,6.17,0,0,1-1.9.56,13.58,13.58,0,0,1-2,.15,13.82,13.82,0,0,1-2-.15,6,6,0,0,1-1.89-.56,3.77,3.77,0,0,1-1.43-1.16A3.26,3.26,0,0,1,53.64,148.2Zm1.06,0a2,2,0,0,0,.5,1.46,3.08,3.08,0,0,0,1.23.81,5.7,5.7,0,0,0,1.57.34c.55.05,1,.08,1.5.08s1,0,1.5-.08a5.7,5.7,0,0,0,1.57-.34,3.08,3.08,0,0,0,1.23-.81,2.07,2.07,0,0,0,.5-1.46,2.09,2.09,0,0,0-.5-1.47,3.17,3.17,0,0,0-1.23-.8,5.71,5.71,0,0,0-1.57-.35c-.55-.05-1-.07-1.5-.07s-1,0-1.5.07a5.71,5.71,0,0,0-1.57.35,3.17,3.17,0,0,0-1.23.8A2,2,0,0,0,54.7,148.2Z"/><path d="M59.34,138.15l-.83,0-.84.06v-1.14h1.14v0a2.41,2.41,0,0,1-1-1.06,2.91,2.91,0,0,1-.27-2,2.42,2.42,0,0,1,.23-.67,2.34,2.34,0,0,1,.47-.6,2.58,2.58,0,0,1,.79-.47,2.43,2.43,0,0,1-1.14-1,3.07,3.07,0,0,1,.34-3.58,3.12,3.12,0,0,1,2.17-.69h4.75V128H60.79a3.16,3.16,0,0,0-1.74.4,1.65,1.65,0,0,0-.61,1.49,2,2,0,0,0,.23,1,2.14,2.14,0,0,0,.62.65,3.07,3.07,0,0,0,.87.36,4.9,4.9,0,0,0,1,.11h4v1.05H60.79a3.25,3.25,0,0,0-1.74.4,1.68,1.68,0,0,0-.61,1.49,2.52,2.52,0,0,0,.07.44,1.62,1.62,0,0,0,.35.71,2.55,2.55,0,0,0,.86.67,3.55,3.55,0,0,0,1.6.29h3.84v1.06Z"/><path d="M59.34,124.52l-.83,0-.84.06v-1.14h1.14v0a2.47,2.47,0,0,1-1-1.06,2.91,2.91,0,0,1-.27-2,2.42,2.42,0,0,1,.23-.67,2.34,2.34,0,0,1,.47-.6,2.58,2.58,0,0,1,.79-.47,2.4,2.4,0,0,1-1.14-1,2.73,2.73,0,0,1-.42-1.44,2.76,2.76,0,0,1,.76-2.13,3.12,3.12,0,0,1,2.17-.69h4.75v1.06H60.79a3.16,3.16,0,0,0-1.74.4,1.65,1.65,0,0,0-.61,1.48,2,2,0,0,0,.23,1,2,2,0,0,0,.62.64,2.58,2.58,0,0,0,.87.36,4.31,4.31,0,0,0,1,.12h4v1H60.79a3.25,3.25,0,0,0-1.74.4,1.67,1.67,0,0,0-.61,1.49,2.67,2.67,0,0,0,.07.44,1.62,1.62,0,0,0,.35.71,2.55,2.55,0,0,0,.86.67,3.69,3.69,0,0,0,1.6.29h3.84v1.06Z"/></g><line class="cls-3" x1="153.59" y1="84.85" x2="155.67" y2="199.7"/><line class="cls-3" x1="145.46" y1="84.85" x2="143.37" y2="199.7"/><polyline class="cls-3" points="171.35 218.14 170.06 217.84 169.43 217.69 168.81 217.52 168 217.31 167.21 217.08 166.44 216.84 165.61 216.56 164.8 216.27 164.39 216.11 163.99 215.95 163.63 215.8 163.28 215.64 162.67 215.35 162.09 215.04 161.53 214.72 161.26 214.55 161 214.38 160.58 214.09 160.18 213.78 159.8 213.47 159.44 213.14 159.1 212.8 158.78 212.44 158.46 212.05 158.16 211.64 157.88 211.22 157.62 210.77 157.39 210.31 157.17 209.85 157.01 209.46 156.86 209.06 156.73 208.66 156.63 208.34 156.54 208.02 156.38 207.37 156.3 207 156.23 206.63 156.16 206.22 156.09 205.81 155.98 204.99 155.89 204.15 155.82 203.28 155.76 202.39 155.73 201.71 155.71 201.01 155.67 199.7"/><polyline class="cls-3" points="127.7 218.14 128.99 217.84 129.62 217.69 130.24 217.52 131.05 217.31 131.84 217.08 132.6 216.84 133.44 216.56 134.25 216.27 134.66 216.11 135.06 215.95 135.42 215.8 135.77 215.64 136.38 215.35 136.97 215.04 137.52 214.72 137.79 214.55 138.05 214.38 138.47 214.09 138.87 213.78 139.25 213.47 139.61 213.14 139.95 212.8 140.27 212.44 140.59 212.05 140.89 211.64 141.17 211.22 141.43 210.77 141.66 210.31 141.88 209.85 142.04 209.46 142.19 209.06 142.32 208.66 142.42 208.34 142.51 208.02 142.67 207.37 142.75 207 142.82 206.63 142.89 206.22 142.96 205.81 143.07 204.99 143.15 204.15 143.23 203.28 143.28 202.39 143.32 201.71 143.34 201.01 143.37 199.7"/><line class="cls-3" x1="127.7" y1="218.14" x2="108.55" y2="222.38"/><line class="cls-3" x1="171.35" y1="218.14" x2="184.93" y2="221.15"/><line class="cls-3" x1="108.55" y1="222.38" x2="107.07" y2="222.71"/><line class="cls-3" x1="184.99" y1="221.16" x2="184.93" y2="221.15"/><polyline class="cls-4" points="192 222.87 192.03 222.84 192.03 222.81 192.04 222.78 192.04 222.76 192.03 222.75 192.01 222.73 191.99 222.72 191.94 222.71"/><line class="cls-4" x1="192" y1="222.87" x2="192" y2="222.87"/><line class="cls-3" x1="169.17" y1="223.96" x2="190.46" y2="223.96"/><line class="cls-3" x1="190.46" y1="223.96" x2="190.5" y2="223.96"/><line class="cls-3" x1="190.5" y1="223.96" x2="190.5" y2="223.96"/><line class="cls-3" x1="190.46" y1="223.96" x2="190.5" y2="223.96"/><line class="cls-3" x1="190.46" y1="223.96" x2="149.52" y2="223.96"/><line class="cls-3" x1="149.52" y1="223.96" x2="129.88" y2="223.96"/><line class="cls-3" x1="149.52" y1="223.96" x2="169.17" y2="223.96"/><line class="cls-3" x1="129.88" y1="223.96" x2="120.37" y2="223.96"/><line class="cls-3" x1="108.55" y1="223.96" x2="149.52" y2="223.96"/><line class="cls-3" x1="120.37" y1="223.96" x2="108.55" y2="223.96"/><polyline class="cls-4" points="191.39 223.53 191.52 223.41 191.76 223.15 192 222.87"/><polyline class="cls-4" points="190.46 223.96 190.63 223.94 190.72 223.93 190.81 223.91 190.89 223.88 190.97 223.84 191.11 223.76 191.24 223.67 191.39 223.53"/><line class="cls-3" x1="184.93" y1="221.15" x2="184.94" y2="221.15"/><line class="cls-3" x1="184.93" y1="221.15" x2="184.94" y2="221.15"/><line class="cls-3" x1="190.49" y1="222.38" x2="184.94" y2="221.15"/><polyline class="cls-3" points="107.02 222.87 106.98 222.83 106.97 222.79 106.98 222.76 107 222.73 107.04 222.72 107.07 222.71"/><line class="cls-3" x1="192" y1="222.87" x2="192.03" y2="222.84"/><polyline class="cls-3" points="192 222.87 192.03 222.83 192.04 222.78 192.04 222.75 192.01 222.73 191.96 222.71 191.86 222.68 191.35 222.57 190.52 222.39"/><polyline class="cls-3" points="192 222.87 191.71 223.2 191.49 223.44 191.31 223.61 191.15 223.74 191 223.83 190.84 223.9 190.67 223.94 190.5 223.96 190.46 223.96"/><polyline class="cls-3" points="190.47 223.96 190.73 223.93 190.8 223.91"/><polyline class="cls-3" points="107.02 222.87 107.32 223.23 107.53 223.44 107.71 223.62 107.83 223.71 107.94 223.79 108.06 223.85 108.17 223.9 108.33 223.94 108.48 223.96 108.55 223.96"/><line class="cls-3" x1="190.52" y1="222.39" x2="190.49" y2="222.38"/><line class="cls-3" x1="206.92" y1="58.7" x2="177.04" y2="58.7"/><line class="cls-3" x1="177.04" y1="58.7" x2="92.13" y2="58.7"/><line class="cls-4" x1="176.5" y1="53.97" x2="93.26" y2="53.97"/><line class="cls-4" x1="205.79" y1="53.97" x2="176.5" y2="53.97"/><line class="cls-3" x1="205.62" y1="53.85" x2="176.42" y2="53.85"/><line class="cls-3" x1="176.42" y1="53.85" x2="93.42" y2="53.85"/><polyline class="cls-3" points="206.92 58.7 207.02 58.59 207.02 58.56"/><polyline class="cls-3" points="92.02 58.56 92.1 58.69 92.13 58.7"/><line class="cls-3" x1="93.26" y1="53.97" x2="92.02" y2="58.56"/><line class="cls-3" x1="205.79" y1="53.97" x2="207.02" y2="58.56"/><polyline class="cls-3" points="205.79 53.97 205.63 53.85 205.62 53.85"/><polyline class="cls-3" points="93.42 53.85 93.26 53.97 93.26 53.97"/><line class="cls-3" x1="213.84" y1="84.85" x2="180.36" y2="84.85"/><line class="cls-3" x1="180.36" y1="84.85" x2="85.21" y2="84.85"/><line class="cls-3" x1="207.14" y1="59" x2="214.01" y2="84.64"/><polyline class="cls-3" points="213.84 84.85 214.01 84.73 214.01 84.64"/><line class="cls-3" x1="91.91" y1="59" x2="85.04" y2="84.64"/><polyline class="cls-3" points="85.04 84.64 85.12 84.83 85.21 84.85"/><line class="cls-1" x1="85.04" y1="24.01" x2="214.01" y2="24.01"/><line class="cls-1" x1="85.04" y1="22.31" x2="85.04" y2="25.71"/><line class="cls-1" x1="214.01" y1="22.31" x2="214.01" y2="25.71"/><g class="cls-2"><path d="M121.89,9.81A3.65,3.65,0,0,1,122.6,11a4.15,4.15,0,0,1,0,3,3.79,3.79,0,0,1-2.16,2.07,4.51,4.51,0,0,1-1.67.3,4.41,4.41,0,0,1-1.45-.23,3.86,3.86,0,0,1-1.16-.6L115,16.6l-.53-.49L115.56,15a3.67,3.67,0,0,1-.71-1.17,4,4,0,0,1-.25-1.44,3.81,3.81,0,0,1,.31-1.56,3.65,3.65,0,0,1,.85-1.25,3.85,3.85,0,0,1,1.31-.83,4.61,4.61,0,0,1,1.65-.29,4.73,4.73,0,0,1,1.44.21,4,4,0,0,1,1.2.62l1.1-1.09.53.5Zm-1.29.25a2.88,2.88,0,0,0-1.88-.62,3,3,0,0,0-1.22.23,2.6,2.6,0,0,0-.92.63,3.1,3.1,0,0,0-.58.94,3.27,3.27,0,0,0-.2,1.17,2.89,2.89,0,0,0,.56,1.83Zm-3.74,4.72a2.88,2.88,0,0,0,.83.45,3.05,3.05,0,0,0,1,.16,3.16,3.16,0,0,0,1.22-.23,2.76,2.76,0,0,0,.92-.64,2.68,2.68,0,0,0,.59-.94,3.2,3.2,0,0,0,.21-1.17,3.07,3.07,0,0,0-.56-1.82Z"/><path d="M131.66,9.69h.61a4,4,0,0,0,1-.11,2.23,2.23,0,0,0,.83-.36,1.75,1.75,0,0,0,.55-.65,2,2,0,0,0,.21-1,1.77,1.77,0,0,0-.57-1.41,2.36,2.36,0,0,0-1.61-.51,2.65,2.65,0,0,0-1.31.32,2.59,2.59,0,0,0-.93.93l-1.05-.51a3.45,3.45,0,0,1,1.36-1.35,3.89,3.89,0,0,1,1.9-.44,4.32,4.32,0,0,1,1.31.19A3.28,3.28,0,0,1,135,5.4a2.76,2.76,0,0,1,.74.92,2.85,2.85,0,0,1,.28,1.26,2.59,2.59,0,0,1-.16.88,2.77,2.77,0,0,1-.43.75,3.25,3.25,0,0,1-.64.59,3,3,0,0,1-.77.37l0,0a2.94,2.94,0,0,1,.92.36,3.14,3.14,0,0,1,.71.65,3,3,0,0,1,.46.87,2.8,2.8,0,0,1,.17,1,3,3,0,0,1-1.11,2.42,3.53,3.53,0,0,1-1.2.63,4.93,4.93,0,0,1-3.7-.32,3.4,3.4,0,0,1-1.45-1.75l1.26-.37a2.37,2.37,0,0,0,.89,1.21,3,3,0,0,0,1.66.39,2.69,2.69,0,0,0,.94-.16,2.36,2.36,0,0,0,.79-.45A2,2,0,0,0,135,14a2.09,2.09,0,0,0,.2-.91,2.27,2.27,0,0,0-.25-1.08,2.07,2.07,0,0,0-.67-.71,2.88,2.88,0,0,0-.95-.39,5.22,5.22,0,0,0-1.13-.12h-.51Z"/><path d="M143.29,16.16h-1.2V6.27L140,8.06l-.74-.86,3-2.37h1.06Z"/><path d="M149.93,9.69l0,0a2,2,0,0,1,.75-.29,4.08,4.08,0,0,1,.87-.1A3.86,3.86,0,0,1,153,9.6a3.54,3.54,0,0,1,1.14.73,3.32,3.32,0,0,1,.76,1.11,3.55,3.55,0,0,1,.27,1.41,3.46,3.46,0,0,1-.28,1.42,3.12,3.12,0,0,1-.8,1.1,3.57,3.57,0,0,1-1.21.72,4.63,4.63,0,0,1-3.06,0,3.67,3.67,0,0,1-1.21-.72,3.25,3.25,0,0,1-.8-1.1,3.63,3.63,0,0,1-.28-1.42,4.38,4.38,0,0,1,.29-1.65,10.19,10.19,0,0,1,.72-1.39l3.18-5h1.41Zm-1.19,3.16a2.46,2.46,0,0,0,.19,1,2.33,2.33,0,0,0,.54.77,2.41,2.41,0,0,0,.83.51,3.39,3.39,0,0,0,2.12,0,2.46,2.46,0,0,0,.84-.51,2.33,2.33,0,0,0,.54-.77,2.7,2.7,0,0,0,0-2,2.33,2.33,0,0,0-.54-.77,2.6,2.6,0,0,0-.84-.5,3.21,3.21,0,0,0-2.12,0,2.56,2.56,0,0,0-.83.5,2.33,2.33,0,0,0-.54.77A2.48,2.48,0,0,0,148.74,12.85Z"/><path d="M161.79,10.33c0-.27,0-.55,0-.83l-.06-.83h1.18V9.81h0a2.62,2.62,0,0,1,1.11-1,3.29,3.29,0,0,1,1.4-.33,4.18,4.18,0,0,1,.68.06,2.48,2.48,0,0,1,.68.23,2.3,2.3,0,0,1,.63.47,2.88,2.88,0,0,1,.49.79A2.51,2.51,0,0,1,169,8.89a3.06,3.06,0,0,1,1.51-.41,2.9,2.9,0,0,1,2.21.76,3.06,3.06,0,0,1,.71,2.16v4.76h-1.1V11.79a3.17,3.17,0,0,0-.41-1.75,1.76,1.76,0,0,0-1.55-.6,2,2,0,0,0-1,.23,2,2,0,0,0-.67.61,2.57,2.57,0,0,0-.37.88,4.17,4.17,0,0,0-.12,1v4H167V11.79a3.08,3.08,0,0,0-.41-1.75,1.76,1.76,0,0,0-1.55-.6l-.45.06a1.72,1.72,0,0,0-.74.35,2.42,2.42,0,0,0-.69.87,3.34,3.34,0,0,0-.31,1.6v3.84h-1.1Z"/><path d="M176,10.33c0-.27,0-.55,0-.83s0-.55-.06-.83H177V9.81h0a2.54,2.54,0,0,1,1.1-1,3.3,3.3,0,0,1,1.41-.33,4.06,4.06,0,0,1,.67.06,2.44,2.44,0,0,1,.69.23,2.26,2.26,0,0,1,.62.47,2.66,2.66,0,0,1,.49.79,2.48,2.48,0,0,1,1.06-1.14,3,3,0,0,1,1.5-.41,2.89,2.89,0,0,1,2.21.76,3.06,3.06,0,0,1,.71,2.16v4.76h-1.09V11.79A3.08,3.08,0,0,0,186,10a1.75,1.75,0,0,0-1.54-.6,1.95,1.95,0,0,0-1.71.84,2.78,2.78,0,0,0-.37.88,4.17,4.17,0,0,0-.12,1v4H181.2V11.79a3.08,3.08,0,0,0-.42-1.75,1.75,1.75,0,0,0-1.54-.6l-.46.06a1.77,1.77,0,0,0-.74.35,2.65,2.65,0,0,0-.69.87,3.46,3.46,0,0,0-.31,1.6v3.84H176Z"/></g></svg>