<svg id="Bon_Jour_versailles_small" data-name="Bon Jour versailles small" xmlns="http://www.w3.org/2000/svg" xmlns:xlink="http://www.w3.org/1999/xlink" viewBox="0 0 300 263"><defs><style>.cls-1,.cls-2,.cls-4{fill:none;}.cls-2,.cls-4{stroke:#000;stroke-width:0.5px;}.cls-3{isolation:isolate;}.cls-4{stroke-linecap:round;stroke-miterlimit:2;}.cls-5{clip-path:url(#clip-path);}</style><clipPath id="clip-path"><rect class="cls-1" x="114.93" y="74.21" width="69.14" height="142.07"/></clipPath></defs><title>bon-jour-versailles-small-table-starck-flos-F1042015-spech-tech-02-300x263-01</title><line class="cls-2" x1="121.78" y1="226.96" x2="177.98" y2="226.96"/><line class="cls-2" x1="121.78" y1="225.26" x2="121.78" y2="228.66"/><line class="cls-2" x1="177.98" y1="225.26" x2="177.98" y2="228.66"/><line class="cls-2" x1="103.68" y1="216.32" x2="103.68" y2="74.03"/><line class="cls-2" x1="101.98" y1="216.32" x2="105.38" y2="216.32"/><line class="cls-2" x1="101.98" y1="74.03" x2="105.38" y2="74.03"/><g class="cls-3"><path d="M120.54,241a3.67,3.67,0,0,1,.7,1.16,4.15,4.15,0,0,1,0,3,3.7,3.7,0,0,1-.85,1.25,4,4,0,0,1-1.3.82,4.78,4.78,0,0,1-3.13.07,3.82,3.82,0,0,1-1.15-.61l-1.11,1.09-.54-.49,1.1-1.09a3.45,3.45,0,0,1-.71-1.18,4,4,0,0,1-.25-1.43,4,4,0,0,1,.3-1.57,3.88,3.88,0,0,1,.86-1.25,3.94,3.94,0,0,1,1.3-.82,4.49,4.49,0,0,1,1.66-.3,4.72,4.72,0,0,1,1.44.22,4,4,0,0,1,1.2.62l1.09-1.09.54.49Zm-1.3.26a2.8,2.8,0,0,0-1.87-.63,2.92,2.92,0,0,0-1.22.24,2.6,2.6,0,0,0-.92.63,2.91,2.91,0,0,0-.58.94,3.24,3.24,0,0,0-.21,1.17,2.87,2.87,0,0,0,.57,1.82ZM115.51,246a2.88,2.88,0,0,0,.83.45,3.32,3.32,0,0,0,1,.16,3,3,0,0,0,1.22-.24,2.69,2.69,0,0,0,.92-.63,2.83,2.83,0,0,0,.59-.94,3.2,3.2,0,0,0,.21-1.17,3,3,0,0,0-.57-1.82Z"/><path d="M132.7,247.32h-1.2v-9.88l-2.11,1.79-.74-.87,3-2.36h1.06Z"/><path d="M141.94,247.32h-1.2v-9.88l-2.11,1.79-.75-.87,3-2.36h1.07Z"/><path d="M153.12,237.05h-4.81l-.08,3.41a3.76,3.76,0,0,1,.78-.21,5.39,5.39,0,0,1,.8-.06,4.06,4.06,0,0,1,1.51.27,3.34,3.34,0,0,1,1.17.76,3.63,3.63,0,0,1,.77,1.15,3.86,3.86,0,0,1,.27,1.45,3.72,3.72,0,0,1-.3,1.5,3.47,3.47,0,0,1-.83,1.16,3.68,3.68,0,0,1-1.25.76,4.29,4.29,0,0,1-1.57.28,3.86,3.86,0,0,1-2-.52,3.35,3.35,0,0,1-1.38-1.5l1.19-.5a2.62,2.62,0,0,0,.93,1.07,2.48,2.48,0,0,0,1.38.39,2.75,2.75,0,0,0,1-.2,2.48,2.48,0,0,0,.83-.54,2.43,2.43,0,0,0,.57-.8,2.34,2.34,0,0,0,.2-1,2.79,2.79,0,0,0-.21-1.09,2.73,2.73,0,0,0-.6-.85,2.47,2.47,0,0,0-.91-.55,3.42,3.42,0,0,0-1.17-.2,4.83,4.83,0,0,0-1.25.17,6.11,6.11,0,0,0-1.19.46l.12-5.87h6Z"/><path d="M160.44,241.5c0-.28,0-.55,0-.83l-.06-.83h1.18V241h0a2.57,2.57,0,0,1,1.1-1,3.35,3.35,0,0,1,1.41-.34,4.13,4.13,0,0,1,.67.07,2.44,2.44,0,0,1,.69.23,2.26,2.26,0,0,1,.62.47,2.47,2.47,0,0,1,.49.79,2.59,2.59,0,0,1,1.06-1.14,3.28,3.28,0,0,1,3.71.34,3,3,0,0,1,.72,2.17v4.75h-1.1V243a3.08,3.08,0,0,0-.42-1.75,1.74,1.74,0,0,0-1.54-.61,2,2,0,0,0-1,.24,1.88,1.88,0,0,0-.67.61,2.84,2.84,0,0,0-.38.87,4.9,4.9,0,0,0-.11,1v4h-1.1V243a3.17,3.17,0,0,0-.41-1.75,1.78,1.78,0,0,0-1.55-.61c-.07,0-.22,0-.46.07a1.83,1.83,0,0,0-.74.35,2.71,2.71,0,0,0-.69.86,3.53,3.53,0,0,0-.3,1.6v3.84h-1.1Z"/><path d="M174.59,241.5c0-.28,0-.55,0-.83l-.06-.83h1.18V241h0a2.6,2.6,0,0,1,1.11-1,3.31,3.31,0,0,1,1.4-.34,4,4,0,0,1,.67.07,2.44,2.44,0,0,1,.69.23,2.3,2.3,0,0,1,.63.47,2.88,2.88,0,0,1,.49.79,2.51,2.51,0,0,1,1-1.14,3,3,0,0,1,1.51-.42,2.9,2.9,0,0,1,2.2.76,3,3,0,0,1,.72,2.17v4.75h-1.1V243a3.17,3.17,0,0,0-.41-1.75,1.76,1.76,0,0,0-1.55-.61,2,2,0,0,0-1,.24,2,2,0,0,0-.67.61,2.6,2.6,0,0,0-.37.87,4.31,4.31,0,0,0-.12,1v4h-1.1V243a3.08,3.08,0,0,0-.41-1.75,1.76,1.76,0,0,0-1.55-.61l-.45.07a1.72,1.72,0,0,0-.74.35,2.46,2.46,0,0,0-.69.86,3.4,3.4,0,0,0-.31,1.6v3.84h-1.1Z"/></g><line class="cls-2" x1="115.16" y1="38.6" x2="184.64" y2="38.6"/><line class="cls-2" x1="115.16" y1="36.9" x2="115.16" y2="40.3"/><line class="cls-2" x1="184.64" y1="36.9" x2="184.64" y2="40.3"/><g class="cls-3"><path d="M113.63,22.4a3.69,3.69,0,0,1,.71,1.16A4,4,0,0,1,114.6,25a4.11,4.11,0,0,1-.31,1.57,3.84,3.84,0,0,1-.86,1.24,4,4,0,0,1-1.3.83,4.72,4.72,0,0,1-1.67.29,4.41,4.41,0,0,1-1.45-.22,3.88,3.88,0,0,1-1.16-.61l-1.11,1.09-.53-.5,1.09-1.08a3.65,3.65,0,0,1-.71-1.18,4,4,0,0,1-.25-1.43,3.86,3.86,0,0,1,.31-1.57,3.75,3.75,0,0,1,.85-1.25,3.83,3.83,0,0,1,1.31-.82,4.75,4.75,0,0,1,3.09-.08,4,4,0,0,1,1.2.61l1.1-1.08.53.49Zm-1.29.26a2.83,2.83,0,0,0-1.88-.63,3.12,3.12,0,0,0-1.22.23,2.89,2.89,0,0,0-.92.63,3.15,3.15,0,0,0-.58.95,3.2,3.2,0,0,0-.2,1.17,2.88,2.88,0,0,0,.56,1.82Zm-3.74,4.71a2.47,2.47,0,0,0,.83.45,3.05,3.05,0,0,0,1,.16,3,3,0,0,0,1.22-.23,2.6,2.6,0,0,0,.92-.63,2.72,2.72,0,0,0,.59-.95A3.19,3.19,0,0,0,113.4,25a3,3,0,0,0-.57-1.83Z"/><path d="M125.79,28.75H124.6V18.86l-2.11,1.8-.75-.87,3-2.37h1.06Z"/><path d="M132.64,22.29h.61a4.07,4.07,0,0,0,1-.12,2.26,2.26,0,0,0,.82-.35,2,2,0,0,0,.56-.65,2.06,2.06,0,0,0,.21-1,1.81,1.81,0,0,0-.58-1.42,2.36,2.36,0,0,0-1.6-.5,2.52,2.52,0,0,0-1.31.32,2.44,2.44,0,0,0-.93.93l-1-.52a3.5,3.5,0,0,1,1.35-1.35,4,4,0,0,1,1.91-.44,4.32,4.32,0,0,1,1.31.19A3.28,3.28,0,0,1,136,18a2.7,2.7,0,0,1,.74.93,2.83,2.83,0,0,1,.27,1.25,2.33,2.33,0,0,1-.16.88,2.49,2.49,0,0,1-.43.76,2.74,2.74,0,0,1-.64.58,3,3,0,0,1-.76.38l.05,0a2.41,2.41,0,0,1,.91.36,2.63,2.63,0,0,1,.72.65,2.84,2.84,0,0,1,.46.86,3.25,3.25,0,0,1-.13,2.4,2.83,2.83,0,0,1-.82,1,3.68,3.68,0,0,1-1.19.64,4.94,4.94,0,0,1-1.45.21,4.58,4.58,0,0,1-2.26-.54,3.32,3.32,0,0,1-1.44-1.74l1.26-.37A2.45,2.45,0,0,0,132,27.5a3.36,3.36,0,0,0,2.6.23,2.49,2.49,0,0,0,.79-.46,2.07,2.07,0,0,0,.53-.71,2.37,2.37,0,0,0-.06-2,2.08,2.08,0,0,0-.66-.72,2.94,2.94,0,0,0-1-.39,5.13,5.13,0,0,0-1.12-.12h-.51Z"/><path d="M144.27,28.75h-1.2V18.86L141,20.66l-.75-.87,3-2.37h1.07Z"/><path d="M149.9,31h-1.1l1.11-3.76h1.35Z"/><path d="M160.06,18.48h-4.8l-.08,3.41a3.46,3.46,0,0,1,.78-.21,5.39,5.39,0,0,1,.8-.06,4.1,4.1,0,0,1,1.51.27,3.43,3.43,0,0,1,1.17.76,3.35,3.35,0,0,1,.76,1.15,3.87,3.87,0,0,1,0,2.94,3.41,3.41,0,0,1-.83,1.17,3.73,3.73,0,0,1-1.26.76,4.42,4.42,0,0,1-1.57.27,4,4,0,0,1-2-.51,3.39,3.39,0,0,1-1.37-1.5l1.19-.5a2.69,2.69,0,0,0,.93,1.07,2.44,2.44,0,0,0,1.37.39,2.77,2.77,0,0,0,1.05-.2,2.83,2.83,0,0,0,.83-.54,2.43,2.43,0,0,0,.57-.8,2.54,2.54,0,0,0,.2-1,2.55,2.55,0,0,0-.81-1.94,2.53,2.53,0,0,0-.92-.56,3.57,3.57,0,0,0-1.16-.19,4.83,4.83,0,0,0-1.25.17,6.08,6.08,0,0,0-1.19.45l.12-5.87h6Z"/><path d="M167.39,22.93q0-.42,0-.84c0-.27,0-.55-.05-.83h1.18V22.4h0a2.46,2.46,0,0,1,1.1-1,3.18,3.18,0,0,1,1.41-.34,4.06,4.06,0,0,1,.67.06,2.46,2.46,0,0,1,.69.24,2.26,2.26,0,0,1,.62.47,2.31,2.31,0,0,1,.49.78,2.46,2.46,0,0,1,1.06-1.13,2.94,2.94,0,0,1,1.5-.42,2.89,2.89,0,0,1,2.21.76A3,3,0,0,1,179,24v4.75h-1.09V24.38a3,3,0,0,0-.42-1.74,1.72,1.72,0,0,0-1.54-.61,2.12,2.12,0,0,0-1,.23,2,2,0,0,0-.68.62,2.72,2.72,0,0,0-.37.87,4.31,4.31,0,0,0-.12,1v4h-1.09V24.38a3,3,0,0,0-.42-1.74,1.72,1.72,0,0,0-1.54-.61l-.46.06a1.8,1.8,0,0,0-.74.36,2.71,2.71,0,0,0-.69.86,3.53,3.53,0,0,0-.3,1.6v3.84h-1.1Z"/><path d="M181.54,22.93c0-.28,0-.56,0-.84l-.06-.83h1.18V22.4h0a2.54,2.54,0,0,1,1.11-1,3.14,3.14,0,0,1,1.4-.34,4.06,4.06,0,0,1,.67.06,2.49,2.49,0,0,1,1.32.71,2.67,2.67,0,0,1,.49.78,2.44,2.44,0,0,1,1.05-1.13,2.94,2.94,0,0,1,1.5-.42,2.87,2.87,0,0,1,2.21.76,3,3,0,0,1,.72,2.17v4.75H192V24.38a3.13,3.13,0,0,0-.41-1.74,1.75,1.75,0,0,0-1.55-.61,2.15,2.15,0,0,0-1,.23,1.9,1.9,0,0,0-.67.62,2.74,2.74,0,0,0-.38.87,4.9,4.9,0,0,0-.11,1v4h-1.1V24.38a3.13,3.13,0,0,0-.41-1.74,1.75,1.75,0,0,0-1.55-.61l-.46.06a1.86,1.86,0,0,0-.74.36,2.56,2.56,0,0,0-.68.86,3.4,3.4,0,0,0-.31,1.6v3.84h-1.1Z"/></g><g class="cls-3"><path d="M95.28,155.47v7.2H94l-4.59-4.51c-.17-.17-.36-.34-.55-.51a4,4,0,0,0-.61-.47,2.78,2.78,0,0,0-.67-.33,2,2,0,0,0-.73-.13,1.91,1.91,0,0,0-.84.17,1.68,1.68,0,0,0-.62.47,2.08,2.08,0,0,0-.39.7,2.66,2.66,0,0,0-.14.85,2.28,2.28,0,0,0,.48,1.47,2.17,2.17,0,0,0,1.3.79l-.13,1.21a3.18,3.18,0,0,1-2-1.16,3.51,3.51,0,0,1-.72-2.23,4.59,4.59,0,0,1,.18-1.3,3.29,3.29,0,0,1,.55-1.09,2.58,2.58,0,0,1,.92-.75,2.79,2.79,0,0,1,1.29-.28,3.29,3.29,0,0,1,1.2.2,4.46,4.46,0,0,1,1,.52,6.93,6.93,0,0,1,.92.72l.84.84,3.54,3.57v-5.95Z"/><path d="M85,147l10.28,4.56v1.29L85,148.16v5.52H84V147Z"/><path d="M95.28,137.68v7.2H94l-4.59-4.51-.55-.52a4.64,4.64,0,0,0-.61-.46,3.25,3.25,0,0,0-.67-.34,2.24,2.24,0,0,0-.73-.12,2.06,2.06,0,0,0-.84.16,1.82,1.82,0,0,0-.62.48,2.08,2.08,0,0,0-.39.7,2.66,2.66,0,0,0-.14.85,2.32,2.32,0,0,0,.48,1.47,2.11,2.11,0,0,0,1.3.78l-.13,1.22a3.18,3.18,0,0,1-2-1.16,3.51,3.51,0,0,1-.72-2.23,4.66,4.66,0,0,1,.18-1.31,3.24,3.24,0,0,1,.55-1.08,2.72,2.72,0,0,1,.92-.76,2.92,2.92,0,0,1,1.29-.28,3.51,3.51,0,0,1,1.2.2,5.44,5.44,0,0,1,1,.52,8,8,0,0,1,.92.73c.28.27.57.55.84.84l3.54,3.57v-5.95Z"/><path d="M89.45,131.15l-.83,0-.83.06v-1.14h1.13v0a2.53,2.53,0,0,1-1-1.06,3.12,3.12,0,0,1-.33-1.35,3.74,3.74,0,0,1,.06-.65,2.42,2.42,0,0,1,.23-.67,2.34,2.34,0,0,1,.47-.6,2.85,2.85,0,0,1,.79-.47,2.48,2.48,0,0,1-1.14-1,2.87,2.87,0,0,1-.41-1.45,2.73,2.73,0,0,1,.76-2.13,3.1,3.1,0,0,1,2.16-.69h4.76V121H90.91a3.17,3.17,0,0,0-1.75.4,1.65,1.65,0,0,0-.6,1.49,1.91,1.91,0,0,0,.23,1,2,2,0,0,0,.61.65,3,3,0,0,0,.88.36,4.74,4.74,0,0,0,1,.11h4v1H90.91a3.26,3.26,0,0,0-1.75.4,1.67,1.67,0,0,0-.6,1.49,3.37,3.37,0,0,0,.06.44,1.62,1.62,0,0,0,.35.71,2.5,2.5,0,0,0,.87.67,3.49,3.49,0,0,0,1.6.29h3.84v1.06Z"/><path d="M89.45,117.52l-.83,0-.83.06v-1.14h1.13v0a2.59,2.59,0,0,1-1-1.06A3.12,3.12,0,0,1,87.6,114a3.72,3.72,0,0,1,.06-.64,2.42,2.42,0,0,1,.23-.67,2.34,2.34,0,0,1,.47-.6,2.85,2.85,0,0,1,.79-.47,2.45,2.45,0,0,1-1.14-1,2.81,2.81,0,0,1-.41-1.44,2.73,2.73,0,0,1,.76-2.13,3.1,3.1,0,0,1,2.16-.69h4.76v1.06H90.91a3.17,3.17,0,0,0-1.75.4,1.64,1.64,0,0,0-.6,1.48,1.92,1.92,0,0,0,.23,1,1.87,1.87,0,0,0,.61.64,2.55,2.55,0,0,0,.88.36,4.17,4.17,0,0,0,1,.12h4v1H90.91a3.26,3.26,0,0,0-1.75.4,1.66,1.66,0,0,0-.6,1.49,3.61,3.61,0,0,0,.06.44,1.62,1.62,0,0,0,.35.71,2.5,2.5,0,0,0,.87.67,3.63,3.63,0,0,0,1.6.29h3.84v1.06Z"/></g><path class="cls-4" d="M126.11,79.4h-3.26m51.83-4.78H127.37m0,0h-3.08"/><path class="cls-4" d="M127.15,74.81H124M126,79.2H122.7"/><line class="cls-4" x1="176.13" y1="79.4" x2="126.11" y2="79.4"/><path class="cls-4" d="M174.93,74.81H127.16m49.11,4.39H126"/><g class="cls-5"><path class="cls-4" d="M119.57,103.52h-4.18m59.54-28.71,1.34,4.39m-1.34-4.39-.06-.11-.11-.07h-.08m1.44,4.78.12-.05,0-.11v0M124,74.81,122.7,79.2m1.59-4.58-.12,0-.1.09,0,.07M122.7,79.2v.12l.09.07h0"/><line class="cls-4" x1="119.52" y1="103.46" x2="115.34" y2="103.46"/></g><line class="cls-4" x1="183.58" y1="103.52" x2="119.57" y2="103.52"/><path class="cls-4" d="M176.38,79.74h-50.5m0,0h-3.29m61,23.72H119.52"/><path class="cls-4" d="M176.13,79.56h-50m0,0h-3.26"/><path class="cls-4" d="M175.63,79.46H126.54m0,0h-3.2"/><g class="cls-5"><path class="cls-4" d="M145.34,110.67V110l0-.13,0-.13,0-.12,0-.13,0-.07m2.21,1.23v-1l0-.13v-.06m6.42-2v2m0,0v-.53l0-.31,0-.13,0-.15-.07-.13-.09-.09m0,0-.06,0-.08,0h-.26l-.1,0-.11,0-.12.05-.22.12-.21.17-.21.21-.19.24-.16.27-.14.31m0,0-.08-.19-.1-.17-.08-.14-.09-.12-.1-.12-.11-.1-.15-.13-.17-.12-.19-.1-.19-.09-.2-.06m0,0-.12,0-.13,0-.13,0h-.3m0,0-.28,0-.28,0-.27.08-.26.11-.23.13-.22.17-.19.19-.17.22-.13.23-.11.25m0,0-.08-.18-.09-.18-.16-.24-.18-.23-.13-.14-.13-.12-.21-.14-.2-.11m0,0-.12,0-.11,0-.14,0h-.12l-.11,0-.08,0-.08.08-.06.09,0,.11,0,.12,0,.19v.76m0,0v-2m4.29,0h4.28m-8.57,0h4.29M175.61,79.4l0,.06m-52.27-.06,0,.06m52.29,0,.08.09h0m-52.54,0,.1-.06,0,0m53,.28-.06-.11-.11-.06h-.08m-53.29,0-.12,0-.09.08,0,.07m53.79,0,7.25,23.72m-61-23.72-7.25,23.72m68.24.06,0,0h0m-68.29,0,0,.06h0"/></g><line class="cls-4" x1="147.41" y1="110.67" x2="145.33" y2="110.67"/><polyline class="cls-4" points="151.63 109.44 151.61 109.57 151.6 109.7 151.59 109.83 151.58 109.96 151.57 110.09 151.56 110.22 151.56 110.34 151.56 110.48 151.56 110.61 151.56 110.67"/><line class="cls-4" x1="147.41" y1="110.67" x2="151.56" y2="110.67"/><polyline class="cls-4" points="153.77 109.44 153.74 109.57 153.71 109.69 153.69 109.82 153.67 109.95 153.66 110.08 153.65 110.21 153.64 110.34 153.64 110.47 153.64 110.6 153.64 110.67"/><line class="cls-4" x1="153.64" y1="110.67" x2="151.56" y2="110.67"/><path class="cls-4" d="M144.65,135.17v-.27l0-.27,0-.26-.07-.25-.08-.25-.11-.24-.1-.18-.1-.18-.16-.22-.18-.21-.19-.18-.2-.17-.22-.16-.23-.14-.18-.09-.19-.08m4.5,3.15v-.41l0-.39L147,134l-.08-.37-.1-.36-.12-.33-.14-.29-.16-.24-.16-.22-.09-.09L146,132m6.91,0h3.46m0-1.14V132M146,132h6.91m0,0v-1.14M142.57,132H146m-3.46-1.14V132m3.46-1.14V132m10.37-1.14h-3.46m3.46,0,3.75-1.88m-7.21,1.88H146m6.91,0,1.88-1.88M146,130.88h-3.46m0,0L138.82,129m7.21,1.88L144.15,129m16,0h-5.33m5.33,0v-1.2m-5.33,1.2H144.15m10.67,0v-1.2M144.15,129h-5.33m0,0v-1.2m5.33,1.2v-1.2m16,0h-5.33m5.33,0-3.75-1.88m-1.58,1.88H144.15m10.67,0-1.88-1.88m-8.79,1.88h-5.33m0,0,3.75-1.88m1.58,1.88,1.88-1.88m10.37,0h-3.46m3.46,0v-1.11m-3.46,1.11H146m6.91,0v-1.11M146,125.92h-3.46m0,0v-1.11m3.46,1.11v-1.11m10.37,0-.32-.09-.31-.13-.3-.16-.27-.19-.26-.22-.23-.25-.21-.28-.18-.3-.09-.19-.08-.2-.06-.2-.05-.2,0-.2,0-.2,0-.45v-.48l0-1.1,0-1.53-.23-7.77m2.76,14.14h-3.46m-1.38-14.14.12,8.15,0,1.53v1.53l0,.45,0,.22.05.3.06.3.09.32.12.3.12.28.16.25.17.21.09.1.1.08.1.07.1,0m0,0H146m0,0,.14-.07.13-.11.13-.12.08-.1.09-.12.13-.2.11-.23.11-.27.09-.29.09-.34.06-.35,0-.44,0-.35v-.95l0-1.42.13-8.78M146,124.81h-3.46m2.77-14.14-.25,8.15,0,1.52,0,.77v.76l0,.23,0,.22,0,.24-.08.24-.11.28-.14.26-.16.24-.17.22-.19.21-.26.22-.28.19-.3.17-.31.13-.33.09"/><line class="cls-4" x1="147.07" y1="135.17" x2="144.65" y2="135.17"/><polyline class="cls-4" points="151.9 135.17 151.91 134.77 151.94 134.37 151.99 133.99 152.07 133.63 152.17 133.27 152.3 132.94 152.44 132.65 152.59 132.41 152.75 132.19 152.85 132.09 152.94 132.01"/><line class="cls-4" x1="151.9" y1="135.17" x2="147.07" y2="135.17"/><polyline class="cls-4" points="154.32 135.17 154.33 134.83 154.37 134.49 154.45 134.16 154.56 133.84 154.7 133.54 154.84 133.3 154.99 133.08 155.16 132.88 155.35 132.69 155.54 132.52 155.75 132.36 155.96 132.23 156.18 132.11 156.4 132.01"/><line class="cls-4" x1="154.32" y1="135.17" x2="151.9" y2="135.17"/><g class="cls-5"><path class="cls-4" d="M153.77,107.47v-4m-8.57,4v-4m8.57,4h-8m0,0h-.53m33.63,108.41.6-.52m-.6.52H164.15m.31-.52-.31.52m-29.34,0h29.34m-29.63-.52.29.52m0,0H120.15m0,0-.6-.52m59.88,0h-15m15-3.12v3.12m-15-3.12v3.12m-29.94,0h29.94m-29.94,0h-15m0-3.12v3.12m15-3.12v3.12m38.14-7.11.08.26.11.25.09.16.09.16.21.3.24.29.17.17.18.17.2.16.21.16.41.28.24.14.24.13.49.24.51.22.34.12.35.13.44.13.44.12.8.2.93.2m0,0h-15m-29.94,0h29.94m0,0-.54-.24-.26-.13-.4-.22-.2-.12-.19-.14-.25-.21-.25-.23-.24-.26-.23-.3-.21-.34-.2-.36-.13-.31-.11-.33-.1-.36-.08-.44m-41.52,4,1.07-.24.53-.13.46-.12.45-.14.33-.11.33-.12.51-.21.5-.23.48-.27.39-.24.36-.28.18-.15.17-.15.24-.25.22-.27.2-.29.11-.19.1-.21.07-.19.07-.2m11.58,0,0,.26-.05.25-.07.25-.08.23-.13.33-.15.31-.21.36-.23.32-.24.29-.25.24-.25.22-.27.2-.19.12-.2.12-.26.14-.19.09-.35.17-.22.09m0,0h-15m41.52-4h11.59m0,0-1.21-.78m-10.38.78H137.9m23.17,0-.6-.78m-34.15.78H137.9m-11.58,0,1.21-.78m10.37.78.61-.78m22,0h11m0-1.54v1.54m-32.94,0h22m0-1.54v1.54m-32.94,0h11m-11,0v-1.54m11,0v1.54m32.94-1.54-1.2-.16-.59-.09-.45-.08-.44-.09-.53-.12-.53-.14-.46-.14-.45-.15-.59-.23-.57-.26-.57-.29-.55-.32-.5-.32-.49-.37-.47-.38-.46-.4-.44-.44-.42-.46-.43-.51-.4-.52-.39-.55-.36-.55-.37-.63-.34-.63-.32-.65-.3-.65-.29-.66-.19-.5-.19-.51-.27-.79-.26-.8-.23-.8-.16-.61-.15-.61-.23-1-.2-1-.2-1.13-.17-1.13-.15-1.23-.13-1.22-.11-1.34-.09-1.33-.05-1-.07-2,0-1.07m4.82,27.93h11M152.57,178l0,2.38,0,1.19.05,1.78.08,1.78.06,1.18.08,1.18.09,1.18.11,1.17.15,1.42.18,1.41.2,1.4.2,1.13.22,1.12.24,1.11.24.93.26.91.29.9.16.43.16.43.24.56.26.54.28.52.27.45.28.42.3.39.32.36.32.32.34.28.36.25.32.18.32.17.24.1.24.08.32.11.22.06.43.11m0,0h-22m0,0,.6-.16.29-.09.45-.17.27-.12.26-.14.3-.18.29-.21.28-.24.26-.24.25-.27.25-.29.17-.23.17-.24.17-.26.17-.27.18-.31.16-.32.3-.63.27-.64.25-.66.23-.68.16-.52.15-.52.27-1.06.21-.93.19-.94.19-1.08.18-1.09.17-1.25.15-1.26.15-1.44.12-1.44.11-1.63.09-1.63.07-1.78.05-1.78,0-1.07,0-2.16m-18.87,27.93h11M143.32,178l0,1.59,0,.79-.06,1.19-.06,1.19-.09,1.18-.09,1-.11,1-.12.92-.12.92-.19,1.1-.2,1.1-.23,1.09-.23,1-.26.95-.29,1-.28.83-.3.83-.33.82-.36.81-.4.79-.42.78-.23.38-.24.38-.24.37-.26.36-.38.5-.4.49-.42.47-.45.45-.47.44-.5.4-.51.38-.57.38-.58.33-.6.31-.56.24-.57.22-.59.19-.61.17-.64.15-.66.13-.69.12-.47.07-.93.12M155.65,178l-1.33-42.83M152.57,178l-.66-42.83M143.32,178l1.33-42.83M146.4,178l.67-42.83"/></g><line class="cls-2" x1="124.22" y1="64.6" x2="175.82" y2="64.6"/><line class="cls-2" x1="124.22" y1="62.9" x2="124.22" y2="66.3"/><line class="cls-2" x1="175.82" y1="62.9" x2="175.82" y2="66.3"/><g class="cls-3"><path d="M120.54,49.4a3.67,3.67,0,0,1,.7,1.16A3.78,3.78,0,0,1,121.5,52a3.93,3.93,0,0,1-.31,1.57,3.66,3.66,0,0,1-.85,1.24,4.07,4.07,0,0,1-1.3.83,4.72,4.72,0,0,1-1.67.29,4.48,4.48,0,0,1-1.46-.22,3.82,3.82,0,0,1-1.15-.61l-1.11,1.09-.54-.5,1.1-1.08a3.65,3.65,0,0,1-.71-1.18,4,4,0,0,1-.25-1.43,4,4,0,0,1,.3-1.57,3.79,3.79,0,0,1,2.16-2.07,4.49,4.49,0,0,1,1.66-.3,4.44,4.44,0,0,1,1.44.22,4.24,4.24,0,0,1,1.2.61l1.09-1.08.54.49Zm-1.3.26a2.8,2.8,0,0,0-1.87-.63,3.09,3.09,0,0,0-1.22.23,2.89,2.89,0,0,0-.92.63,3,3,0,0,0-.58,1,3.2,3.2,0,0,0-.21,1.17,2.89,2.89,0,0,0,.57,1.82Zm-3.73,4.71a2.47,2.47,0,0,0,.83.45,3.05,3.05,0,0,0,1,.16,3,3,0,0,0,1.22-.23,2.69,2.69,0,0,0,.92-.63,2.88,2.88,0,0,0,.59-.95,3.19,3.19,0,0,0,.21-1.16,3,3,0,0,0-.57-1.83Z"/><path d="M132.7,55.75h-1.2V45.86l-2.11,1.8-.74-.87,3-2.37h1.06Z"/><path d="M140.77,44.23a3.5,3.5,0,0,1,2,.56A3.86,3.86,0,0,1,144,46.21a6.19,6.19,0,0,1,.58,1.9,13.08,13.08,0,0,1,0,4A6.19,6.19,0,0,1,144,54a3.79,3.79,0,0,1-1.21,1.42,3.43,3.43,0,0,1-2,.56,3.37,3.37,0,0,1-2-.56A3.7,3.7,0,0,1,137.52,54a5.93,5.93,0,0,1-.58-1.9,13.08,13.08,0,0,1,0-4,5.93,5.93,0,0,1,.58-1.9,3.77,3.77,0,0,1,1.21-1.42A3.44,3.44,0,0,1,140.77,44.23Zm0,1.06a2.21,2.21,0,0,0-1.52.49,3.14,3.14,0,0,0-.84,1.23,6.29,6.29,0,0,0-.35,1.57c-.05.56-.08,1.06-.08,1.51s0,.95.08,1.5a6.09,6.09,0,0,0,.35,1.57,3.14,3.14,0,0,0,.84,1.23,2.56,2.56,0,0,0,3,0,3.14,3.14,0,0,0,.84-1.23,5.71,5.71,0,0,0,.36-1.57c0-.55.07-1.05.07-1.5s0-1-.07-1.51a5.89,5.89,0,0,0-.36-1.57,3.14,3.14,0,0,0-.84-1.23A2.21,2.21,0,0,0,140.77,45.29Z"/><path d="M148.78,49.29h.61a4,4,0,0,0,1-.12,2.39,2.39,0,0,0,.83-.35,1.93,1.93,0,0,0,.55-.65,2.06,2.06,0,0,0,.21-1,1.8,1.8,0,0,0-.57-1.42,2.4,2.4,0,0,0-1.61-.5,2.55,2.55,0,0,0-1.31.32,2.44,2.44,0,0,0-.93.93L146.5,46a3.52,3.52,0,0,1,1.36-1.35,4,4,0,0,1,1.9-.44,4.32,4.32,0,0,1,1.31.19,3.28,3.28,0,0,1,1.08.57,2.7,2.7,0,0,1,.74.93,2.83,2.83,0,0,1,.28,1.25,2.55,2.55,0,0,1-.16.88,3,3,0,0,1-.43.76,3.2,3.2,0,0,1-.64.58,3.06,3.06,0,0,1-.77.38l.05,0a2.41,2.41,0,0,1,.91.36,2.63,2.63,0,0,1,.72.65,3.1,3.1,0,0,1,.63,1.87,3.09,3.09,0,0,1-.3,1.39,2.91,2.91,0,0,1-.81,1,3.84,3.84,0,0,1-1.2.64,4.82,4.82,0,0,1-1.44.21,4.53,4.53,0,0,1-2.26-.54A3.29,3.29,0,0,1,146,53.66l1.26-.37a2.45,2.45,0,0,0,.89,1.21,3,3,0,0,0,1.66.39,2.94,2.94,0,0,0,.94-.16,2.49,2.49,0,0,0,.79-.46,2,2,0,0,0,.53-.71,2.13,2.13,0,0,0,.2-.91,2.21,2.21,0,0,0-.25-1.08,2.1,2.1,0,0,0-.67-.72,2.88,2.88,0,0,0-1-.39,5.22,5.22,0,0,0-1.13-.12h-.51Z"/><path d="M160.44,49.93c0-.28,0-.56,0-.84l-.06-.83h1.18V49.4h0a2.54,2.54,0,0,1,1.11-1,3.14,3.14,0,0,1,1.4-.34,4.06,4.06,0,0,1,.67.06,2.46,2.46,0,0,1,.69.24,2.26,2.26,0,0,1,.62.47,2.31,2.31,0,0,1,.49.78,2.52,2.52,0,0,1,1.06-1.13,2.94,2.94,0,0,1,1.5-.42,2.87,2.87,0,0,1,2.21.76A3,3,0,0,1,172,51v4.75h-1.1V51.38a3.13,3.13,0,0,0-.41-1.74A1.75,1.75,0,0,0,169,49a2.15,2.15,0,0,0-1,.23,1.9,1.9,0,0,0-.67.62,2.74,2.74,0,0,0-.38.87,4.9,4.9,0,0,0-.11,1v4h-1.1V51.38a3.13,3.13,0,0,0-.41-1.74,1.75,1.75,0,0,0-1.55-.61l-.46.06a1.86,1.86,0,0,0-.74.36,2.71,2.71,0,0,0-.69.86,3.53,3.53,0,0,0-.3,1.6v3.84h-1.1Z"/><path d="M174.59,49.93c0-.28,0-.56,0-.84l-.06-.83h1.18V49.4h0a2.54,2.54,0,0,1,1.11-1,3.17,3.17,0,0,1,1.4-.34,4.18,4.18,0,0,1,.68.06,2.51,2.51,0,0,1,.68.24,2.3,2.3,0,0,1,.63.47,2.67,2.67,0,0,1,.49.78,2.44,2.44,0,0,1,1-1.13,3,3,0,0,1,1.51-.42,2.9,2.9,0,0,1,2.21.76,3.08,3.08,0,0,1,.71,2.17v4.75h-1.1V51.38a3,3,0,0,0-.41-1.74,1.74,1.74,0,0,0-1.55-.61,2.15,2.15,0,0,0-1,.23,2,2,0,0,0-.67.62,2.52,2.52,0,0,0-.37.87,4.31,4.31,0,0,0-.12,1v4h-1.1V51.38a3,3,0,0,0-.41-1.74,1.74,1.74,0,0,0-1.55-.61l-.45.06a1.75,1.75,0,0,0-.74.36,2.46,2.46,0,0,0-.69.86,3.4,3.4,0,0,0-.31,1.6v3.84h-1.1Z"/></g></svg>