<svg xmlns="http://www.w3.org/2000/svg" viewBox="0 0 300 263"><defs><style>.cls-1,.cls-2,.cls-3,.cls-4{fill:none;stroke-linecap:round;}.cls-1,.cls-2{stroke:red;}.cls-1,.cls-2,.cls-4{stroke-linejoin:round;}.cls-1,.cls-3,.cls-4{stroke-width:0.6px;}.cls-3,.cls-4{stroke:#000;}.cls-3{stroke-miterlimit:10;}</style></defs><title>bon-jour-table-starck-flos-F10320-F1033000-curva_fotometrica-01</title><g id="numeri_esterni_diagramma" data-name="numeri esterni diagramma"><path d="M249.93,137.18h0a1.24,1.24,0,0,1-.37.12,1.84,1.84,0,0,1-.39,0,1.91,1.91,0,0,1-.68-.12,1.58,1.58,0,0,1-.54-.37,1.63,1.63,0,0,1-.36-.56,2.05,2.05,0,0,1-.13-.72,1.79,1.79,0,0,1,.15-.75,1.48,1.48,0,0,1,.4-.55,1.79,1.79,0,0,1,.6-.35,2,2,0,0,1,.75-.13,2.11,2.11,0,0,1,.75.13,1.79,1.79,0,0,1,.6.35,1.59,1.59,0,0,1,.4.55,1.79,1.79,0,0,1,.14.75,2.15,2.15,0,0,1,0,.45,1.68,1.68,0,0,1-.11.4,2.59,2.59,0,0,1-.17.38l-.21.36-1.51,2.39h-.78Zm-.59-.42a1.28,1.28,0,0,0,.48-.09,1,1,0,0,0,.39-.24,1.23,1.23,0,0,0,.26-.37,1.43,1.43,0,0,0,0-1,1.1,1.1,0,0,0-.65-.62,1.48,1.48,0,0,0-1,0,1.28,1.28,0,0,0-.39.24,1.12,1.12,0,0,0-.26.38,1.3,1.3,0,0,0,0,1,1.08,1.08,0,0,0,.26.37,1,1,0,0,0,.39.24A1.28,1.28,0,0,0,249.34,136.76Z"/><path d="M251.82,136.71a7.07,7.07,0,0,1,.08-1,3.19,3.19,0,0,1,.29-1,2,2,0,0,1,.59-.7,1.54,1.54,0,0,1,1-.28,1.49,1.49,0,0,1,.95.28,1.91,1.91,0,0,1,.59.7,2.94,2.94,0,0,1,.3,1,6.29,6.29,0,0,1,0,2,2.94,2.94,0,0,1-.3.95,1.91,1.91,0,0,1-.59.7,1.49,1.49,0,0,1-.95.28,1.54,1.54,0,0,1-1-.28,2,2,0,0,1-.59-.7,3.19,3.19,0,0,1-.29-.95A7.07,7.07,0,0,1,251.82,136.71Zm.67,0c0,.14,0,.29,0,.46a4.6,4.6,0,0,0,.06.52,4.7,4.7,0,0,0,.12.51,2,2,0,0,0,.23.44,1,1,0,0,0,.34.31,1,1,0,0,0,.48.11,1.06,1.06,0,0,0,.48-.11,1.24,1.24,0,0,0,.34-.31,1.65,1.65,0,0,0,.22-.44,3.18,3.18,0,0,0,.13-.51,4.6,4.6,0,0,0,.06-.52c0-.17,0-.32,0-.46s0-.29,0-.46a4.6,4.6,0,0,0-.06-.52,3.18,3.18,0,0,0-.13-.51,1.65,1.65,0,0,0-.22-.44,1.24,1.24,0,0,0-.34-.31,1.06,1.06,0,0,0-.48-.11,1,1,0,0,0-.48.11,1,1,0,0,0-.34.31,2,2,0,0,0-.23.44,4.7,4.7,0,0,0-.12.51,4.6,4.6,0,0,0-.06.52C252.5,136.42,252.49,136.57,252.49,136.71Z"/><path d="M256.42,134.93a1.13,1.13,0,0,1,.09-.45,1.31,1.31,0,0,1,.24-.37,1.18,1.18,0,0,1,.37-.24,1,1,0,0,1,.44-.09,1.13,1.13,0,0,1,.45.09,1.06,1.06,0,0,1,.61.61,1.13,1.13,0,0,1,.09.45,1,1,0,0,1-.09.44,1.06,1.06,0,0,1-.61.61,1.13,1.13,0,0,1-.45.09,1,1,0,0,1-.44-.09,1.18,1.18,0,0,1-.37-.24,1.31,1.31,0,0,1-.24-.37A1,1,0,0,1,256.42,134.93Zm.43,0a.69.69,0,0,0,0,.24,1,1,0,0,0,.15.24.73.73,0,0,0,.51.23.54.54,0,0,0,.29-.07.63.63,0,0,0,.23-.16.72.72,0,0,0,.14-.24.52.52,0,0,0,0-.24.56.56,0,0,0,0-.25.59.59,0,0,0-.14-.23.74.74,0,0,0-.52-.24.73.73,0,0,0-.29.07.62.62,0,0,0-.22.17.76.76,0,0,0-.15.23A.74.74,0,0,0,256.85,134.93Z"/><path d="M41.57,137.18h0a1.34,1.34,0,0,1-.37.12,2,2,0,0,1-.39,0,1.92,1.92,0,0,1-.69-.12,1.58,1.58,0,0,1-.54-.37,1.8,1.8,0,0,1-.36-.56,2.05,2.05,0,0,1-.13-.72,1.79,1.79,0,0,1,.15-.75,1.48,1.48,0,0,1,.4-.55,1.79,1.79,0,0,1,.6-.35,2.23,2.23,0,0,1,1.5,0,1.79,1.79,0,0,1,.6.35,1.48,1.48,0,0,1,.4.55,1.79,1.79,0,0,1,.15.75,3.14,3.14,0,0,1,0,.45,2.34,2.34,0,0,1-.12.4,1.84,1.84,0,0,1-.17.38,3.35,3.35,0,0,1-.21.36l-1.5,2.39h-.79Zm-.59-.42a1.28,1.28,0,0,0,.48-.09,1,1,0,0,0,.39-.24,1.23,1.23,0,0,0,.26-.37,1.3,1.3,0,0,0,0-1,1.1,1.1,0,0,0-.65-.62,1.48,1.48,0,0,0-1,0,1.1,1.1,0,0,0-.65.62,1.43,1.43,0,0,0,0,1,1.23,1.23,0,0,0,.26.37,1,1,0,0,0,.39.24A1.28,1.28,0,0,0,41,136.76Z"/><path d="M43.46,136.71a7.07,7.07,0,0,1,.08-1,2.94,2.94,0,0,1,.3-1,1.91,1.91,0,0,1,.59-.7,1.49,1.49,0,0,1,1-.28,1.54,1.54,0,0,1,1,.28,2,2,0,0,1,.59.7,3.19,3.19,0,0,1,.29,1,6.29,6.29,0,0,1,0,2,3.19,3.19,0,0,1-.29.95,2,2,0,0,1-.59.7,1.54,1.54,0,0,1-1,.28,1.49,1.49,0,0,1-1-.28,1.91,1.91,0,0,1-.59-.7,2.94,2.94,0,0,1-.3-.95A7.07,7.07,0,0,1,43.46,136.71Zm.67,0c0,.14,0,.29,0,.46a4.6,4.6,0,0,0,.06.52,3.18,3.18,0,0,0,.13.51,1.65,1.65,0,0,0,.22.44,1.12,1.12,0,0,0,.34.31,1.1,1.1,0,0,0,1,0,1.12,1.12,0,0,0,.34-.31,2,2,0,0,0,.23-.44,4.7,4.7,0,0,0,.12-.51,4.6,4.6,0,0,0,.06-.52c0-.17,0-.32,0-.46s0-.29,0-.46a4.6,4.6,0,0,0-.06-.52,4.7,4.7,0,0,0-.12-.51,2,2,0,0,0-.23-.44,1.12,1.12,0,0,0-.34-.31,1.1,1.1,0,0,0-1,0,1.12,1.12,0,0,0-.34.31,1.65,1.65,0,0,0-.22.44,3.18,3.18,0,0,0-.13.51,4.6,4.6,0,0,0-.06.52C44.14,136.42,44.13,136.57,44.13,136.71Z"/><path d="M48.06,134.93a1.13,1.13,0,0,1,.09-.45,1.06,1.06,0,0,1,.61-.61,1.13,1.13,0,0,1,.45-.09,1.08,1.08,0,0,1,.44.09,1.06,1.06,0,0,1,.61.61,1.13,1.13,0,0,1,.09.45,1,1,0,0,1-.09.44,1.06,1.06,0,0,1-.61.61,1.08,1.08,0,0,1-.44.09,1.13,1.13,0,0,1-.45-.09,1.06,1.06,0,0,1-.61-.61A1,1,0,0,1,48.06,134.93Zm.43,0a.53.53,0,0,0,.06.24.72.72,0,0,0,.14.24.69.69,0,0,0,.22.16.6.6,0,0,0,.3.07.73.73,0,0,0,.51-.23,1,1,0,0,0,.15-.24.69.69,0,0,0,.05-.24.74.74,0,0,0-.05-.25.76.76,0,0,0-.15-.23.62.62,0,0,0-.22-.17.73.73,0,0,0-.29-.07.73.73,0,0,0-.3.07.72.72,0,0,0-.22.17.59.59,0,0,0-.14.23A.57.57,0,0,0,48.49,134.93Z"/><path d="M148.37,38.51h-.68v-4.8h0l-1,.85-.4-.48,1.52-1.24h.59Z"/><path d="M150.49,34.23a1.48,1.48,0,0,1,.13-.61,1.2,1.2,0,0,1,.34-.46,1.44,1.44,0,0,1,.51-.3,1.92,1.92,0,0,1,1.28,0,1.44,1.44,0,0,1,.51.3,1.2,1.2,0,0,1,.34.46,1.33,1.33,0,0,1,.13.61,1.16,1.16,0,0,1-.07.4,1.41,1.41,0,0,1-.18.37,1.33,1.33,0,0,1-.29.29,1.18,1.18,0,0,1-.39.19h0a1.44,1.44,0,0,1,.46.19,1.35,1.35,0,0,1,.35.32,1.42,1.42,0,0,1,.23.44,1.7,1.7,0,0,1,.08.51,1.74,1.74,0,0,1-.14.69,1.43,1.43,0,0,1-.39.52,1.47,1.47,0,0,1-.57.33,2.35,2.35,0,0,1-1.42,0,1.47,1.47,0,0,1-.57-.33,1.55,1.55,0,0,1-.39-.52,1.74,1.74,0,0,1-.14-.69,1.7,1.7,0,0,1,.08-.51,1.67,1.67,0,0,1,.23-.44,1.35,1.35,0,0,1,.35-.32,1.44,1.44,0,0,1,.46-.19h0a1.18,1.18,0,0,1-.39-.19,1.33,1.33,0,0,1-.29-.29,1.41,1.41,0,0,1-.18-.37A1.46,1.46,0,0,1,150.49,34.23ZM151,36.9a1.18,1.18,0,0,0,.09.46,1.07,1.07,0,0,0,.25.35,1,1,0,0,0,.36.23,1.12,1.12,0,0,0,.88,0,1,1,0,0,0,.36-.23,1.07,1.07,0,0,0,.25-.35,1.18,1.18,0,0,0,.09-.46,1.14,1.14,0,0,0-.09-.46,1.13,1.13,0,0,0-.61-.58,1.12,1.12,0,0,0-.88,0,1.13,1.13,0,0,0-.61.58A1.14,1.14,0,0,0,151,36.9Zm.2-2.64a.88.88,0,0,0,.26.67,1,1,0,0,0,1.36,0,1,1,0,0,0,0-1.34,1,1,0,0,0-1.36,0A.88.88,0,0,0,151.17,34.26Z"/><path d="M154.64,35.68a7,7,0,0,1,.08-1,3.1,3.1,0,0,1,.29-1,2,2,0,0,1,.59-.71,1.6,1.6,0,0,1,1-.27,1.55,1.55,0,0,1,.95.27,1.94,1.94,0,0,1,.59.71,2.86,2.86,0,0,1,.3,1,7,7,0,0,1,.08,1,7.07,7.07,0,0,1-.08,1,2.88,2.88,0,0,1-.3.94,1.94,1.94,0,0,1-.59.71,1.55,1.55,0,0,1-.95.27,1.6,1.6,0,0,1-1-.27,2,2,0,0,1-.59-.71,3.13,3.13,0,0,1-.29-.94A7.07,7.07,0,0,1,154.64,35.68Zm.67,0c0,.13,0,.29,0,.46a4.88,4.88,0,0,0,.06.52,4.05,4.05,0,0,0,.12.5,1.66,1.66,0,0,0,.23.44,1.12,1.12,0,0,0,.34.31,1,1,0,0,0,1,0,1.12,1.12,0,0,0,.34-.31,1.4,1.4,0,0,0,.22-.44,2.83,2.83,0,0,0,.13-.5,4.88,4.88,0,0,0,.06-.52c0-.17,0-.33,0-.46s0-.3,0-.47a4.43,4.43,0,0,0-.06-.51,2.72,2.72,0,0,0-.13-.51,1.51,1.51,0,0,0-.22-.44,1.12,1.12,0,0,0-.34-.31,1,1,0,0,0-1,0,1.12,1.12,0,0,0-.34.31,1.83,1.83,0,0,0-.23.44,3.81,3.81,0,0,0-.12.51,4.43,4.43,0,0,0-.06.51C155.32,35.38,155.31,35.54,155.31,35.68Z"/><path d="M159.24,33.89a1.15,1.15,0,0,1,.33-.81,1,1,0,0,1,.37-.24,1,1,0,0,1,.44-.09,1.15,1.15,0,0,1,.82,2,1.15,1.15,0,0,1-.37.25,1.13,1.13,0,0,1-.45.09,1.15,1.15,0,0,1-.81-.34,1.15,1.15,0,0,1-.33-.81Zm.43,0a.79.79,0,0,0,.05.25,1.14,1.14,0,0,0,.15.23.62.62,0,0,0,.22.17.72.72,0,0,0,.29.06.68.68,0,0,0,.52-.23.79.79,0,0,0,.14-.23.65.65,0,0,0,0-.5.79.79,0,0,0-.14-.23.81.81,0,0,0-.23-.17.65.65,0,0,0-.29-.06.72.72,0,0,0-.29.06.76.76,0,0,0-.22.17,1.14,1.14,0,0,0-.15.23A.79.79,0,0,0,159.67,33.89Z"/><path d="M148.27,239.2a6.85,6.85,0,0,1,.08-1,3.41,3.41,0,0,1,.3-.95,1.94,1.94,0,0,1,.59-.71,1.57,1.57,0,0,1,.95-.27,1.6,1.6,0,0,1,1,.27,2,2,0,0,1,.59.71,3.1,3.1,0,0,1,.29.95,5.7,5.7,0,0,1,.08,1,5.85,5.85,0,0,1-.08,1,3.13,3.13,0,0,1-.29.94,2,2,0,0,1-.59.71,1.6,1.6,0,0,1-1,.27,1.57,1.57,0,0,1-.95-.27,1.94,1.94,0,0,1-.59-.71,3.45,3.45,0,0,1-.3-.94A7.07,7.07,0,0,1,148.27,239.2Zm.68,0c0,.13,0,.29,0,.46a4.88,4.88,0,0,0,.06.52,2.83,2.83,0,0,0,.13.5,1.65,1.65,0,0,0,.22.44,1.24,1.24,0,0,0,.34.31,1,1,0,0,0,.48.12.9.9,0,0,0,.48-.12,1,1,0,0,0,.34-.31,1.41,1.41,0,0,0,.23-.44,4.07,4.07,0,0,0,.13-.5c0-.18,0-.35.06-.52s0-.33,0-.46,0-.3,0-.47,0-.34-.06-.51a3.8,3.8,0,0,0-.13-.51,1.53,1.53,0,0,0-.23-.44,1,1,0,0,0-.34-.31.9.9,0,0,0-.48-.12,1,1,0,0,0-.48.12,1.24,1.24,0,0,0-.34.31,1.81,1.81,0,0,0-.22.44,2.72,2.72,0,0,0-.13.51,4.43,4.43,0,0,0-.06.51C149,238.9,149,239.06,149,239.2Z"/><path d="M152.83,237.41a1.33,1.33,0,0,1,.08-.45,1.11,1.11,0,0,1,.25-.36,1,1,0,0,1,.36-.24,1.17,1.17,0,0,1,.9,0,1,1,0,0,1,.36.24,1.11,1.11,0,0,1,.25.36,1.31,1.31,0,0,1,0,.9,1.23,1.23,0,0,1-.61.61,1.17,1.17,0,0,1-.9,0,1.23,1.23,0,0,1-.61-.61A1.33,1.33,0,0,1,152.83,237.41Zm.43,0a.79.79,0,0,0,.05.25.68.68,0,0,0,.14.23.66.66,0,0,0,.23.17.73.73,0,0,0,.58,0,.76.76,0,0,0,.23-.17.88.88,0,0,0,.14-.23.65.65,0,0,0,0-.5,1.09,1.09,0,0,0-.14-.23,1,1,0,0,0-.23-.17.73.73,0,0,0-.58,0,.81.81,0,0,0-.23.17.75.75,0,0,0-.19.48Z"/><path d="M203.17,238.76h.21l.43,0a1.15,1.15,0,0,0,.42-.13.77.77,0,0,0,.31-.31.94.94,0,0,0,.13-.51.87.87,0,0,0-.27-.68,1,1,0,0,0-.7-.26,1.28,1.28,0,0,0-.63.16,1.14,1.14,0,0,0-.41.48l-.65-.25a1.48,1.48,0,0,1,.65-.72,2.07,2.07,0,0,1,1-.24,2.25,2.25,0,0,1,.64.09,1.72,1.72,0,0,1,.54.28,1.37,1.37,0,0,1,.37.46,1.48,1.48,0,0,1,.14.65,1.29,1.29,0,0,1-.27.8,1.34,1.34,0,0,1-.7.49v0a1.48,1.48,0,0,1,.85.49,1.37,1.37,0,0,1,.23.43,1.69,1.69,0,0,1,.08.5,1.66,1.66,0,0,1-.15.72,1.57,1.57,0,0,1-.41.51,1.71,1.71,0,0,1-.6.31,2.34,2.34,0,0,1-.71.1,2.18,2.18,0,0,1-1.13-.28,1.61,1.61,0,0,1-.7-.91l.68-.22a1.33,1.33,0,0,0,.41.65,1.3,1.3,0,0,0,.74.19,1.33,1.33,0,0,0,.45-.08,1.11,1.11,0,0,0,.36-.23,1.24,1.24,0,0,0,.25-.35,1.13,1.13,0,0,0,.09-.45,1.07,1.07,0,0,0-.12-.53,1,1,0,0,0-.33-.33,1.23,1.23,0,0,0-.46-.18,2.31,2.31,0,0,0-.52-.06h-.21Z"/><path d="M206.24,239.2a6.85,6.85,0,0,1,.08-1,3.11,3.11,0,0,1,.3-.95,1.94,1.94,0,0,1,.59-.71,1.55,1.55,0,0,1,.95-.27,1.6,1.6,0,0,1,1,.27,2,2,0,0,1,.59.71,3.1,3.1,0,0,1,.29.95,5.7,5.7,0,0,1,.08,1,5.85,5.85,0,0,1-.08,1,3.13,3.13,0,0,1-.29.94,2,2,0,0,1-.59.71,1.6,1.6,0,0,1-1,.27,1.55,1.55,0,0,1-.95-.27,1.94,1.94,0,0,1-.59-.71,3.14,3.14,0,0,1-.3-.94A7.07,7.07,0,0,1,206.24,239.2Zm.67,0c0,.13,0,.29,0,.46a4.88,4.88,0,0,0,.06.52,2.83,2.83,0,0,0,.13.5,1.4,1.4,0,0,0,.22.44,1.24,1.24,0,0,0,.34.31,1,1,0,0,0,.48.12.9.9,0,0,0,.48-.12,1,1,0,0,0,.34-.31,1.41,1.41,0,0,0,.23-.44,4.05,4.05,0,0,0,.12-.5,4.88,4.88,0,0,0,.06-.52,3.86,3.86,0,0,0,0-.46,3.94,3.94,0,0,0,0-.47,4.43,4.43,0,0,0-.06-.51,3.81,3.81,0,0,0-.12-.51,1.53,1.53,0,0,0-.23-.44,1,1,0,0,0-.34-.31.9.9,0,0,0-.48-.12,1,1,0,0,0-.48.12,1.24,1.24,0,0,0-.34.31,1.51,1.51,0,0,0-.22.44,2.72,2.72,0,0,0-.13.51,4.43,4.43,0,0,0-.06.51C206.92,238.9,206.91,239.06,206.91,239.2Z"/><path d="M210.84,237.41a1.13,1.13,0,0,1,.09-.45,1.26,1.26,0,0,1,.24-.36,1.2,1.2,0,0,1,.82-.33,1,1,0,0,1,.44.09,1.12,1.12,0,0,1,.37.24,1.26,1.26,0,0,1,.24.36,1.16,1.16,0,0,1-.24,1.26,1.15,1.15,0,0,1-.37.25,1,1,0,0,1-.44.09,1.13,1.13,0,0,1-.45-.09,1.15,1.15,0,0,1-.37-.25,1.15,1.15,0,0,1-.33-.81Zm.43,0a.61.61,0,0,0,.06.25.68.68,0,0,0,.14.23.72.72,0,0,0,.22.17.73.73,0,0,0,.3.06.72.72,0,0,0,.29-.06.62.62,0,0,0,.22-.17.91.91,0,0,0,.15-.23.65.65,0,0,0,0-.5,1.14,1.14,0,0,0-.15-.23.76.76,0,0,0-.22-.17.72.72,0,0,0-.29-.06.73.73,0,0,0-.3.06.92.92,0,0,0-.22.17.79.79,0,0,0-.14.23A.61.61,0,0,0,211.27,237.41Z"/><path d="M93.6,238.76h.21l.44,0a1.1,1.1,0,0,0,.41-.13.86.86,0,0,0,.32-.31.94.94,0,0,0,.12-.51.87.87,0,0,0-.27-.68,1,1,0,0,0-.7-.26,1.21,1.21,0,0,0-.62.16,1.1,1.1,0,0,0-.42.48l-.65-.25a1.45,1.45,0,0,1,.66-.72,2,2,0,0,1,1-.24,2.32,2.32,0,0,1,.65.09,2,2,0,0,1,.54.28,1.67,1.67,0,0,1,.37.46,1.48,1.48,0,0,1,.13.65,1.29,1.29,0,0,1-.27.8,1.34,1.34,0,0,1-.7.49v0a1.31,1.31,0,0,1,.49.18,1.34,1.34,0,0,1,.36.31,1.37,1.37,0,0,1,.23.43,1.42,1.42,0,0,1,.08.5,1.66,1.66,0,0,1-.15.72,1.57,1.57,0,0,1-.41.51,1.75,1.75,0,0,1-.59.31,2.46,2.46,0,0,1-.72.1,2.18,2.18,0,0,1-1.13-.28,1.56,1.56,0,0,1-.69-.91l.68-.22a1.2,1.2,0,0,0,.41.65,1.27,1.27,0,0,0,.73.19,1.33,1.33,0,0,0,.45-.08,1.11,1.11,0,0,0,.36-.23,1.07,1.07,0,0,0,.25-.35,1.13,1.13,0,0,0,.09-.45,1.07,1.07,0,0,0-.12-.53.87.87,0,0,0-.33-.33,1.17,1.17,0,0,0-.46-.18,2.24,2.24,0,0,0-.52-.06H93.6Z"/><path d="M96.68,239.2a5.7,5.7,0,0,1,.08-1,3.1,3.1,0,0,1,.29-.95,2,2,0,0,1,.59-.71,1.6,1.6,0,0,1,1-.27,1.57,1.57,0,0,1,1,.27,1.94,1.94,0,0,1,.59.71,3.41,3.41,0,0,1,.3.95,6.85,6.85,0,0,1,.08,1,7.07,7.07,0,0,1-.08,1,3.45,3.45,0,0,1-.3.94,1.94,1.94,0,0,1-.59.71,1.57,1.57,0,0,1-1,.27,1.6,1.6,0,0,1-1-.27,2,2,0,0,1-.59-.71,3.13,3.13,0,0,1-.29-.94A5.85,5.85,0,0,1,96.68,239.2Zm.67,0c0,.13,0,.29,0,.46a4.88,4.88,0,0,0,.06.52,4.07,4.07,0,0,0,.13.5,1.41,1.41,0,0,0,.23.44,1,1,0,0,0,.34.31.9.9,0,0,0,.48.12,1,1,0,0,0,.48-.12,1.24,1.24,0,0,0,.34-.31,1.65,1.65,0,0,0,.22-.44,2.83,2.83,0,0,0,.13-.5,4.88,4.88,0,0,0,.06-.52c0-.17,0-.33,0-.46s0-.3,0-.47a4.43,4.43,0,0,0-.06-.51,2.72,2.72,0,0,0-.13-.51,1.81,1.81,0,0,0-.22-.44,1.24,1.24,0,0,0-.34-.31,1,1,0,0,0-.48-.12.9.9,0,0,0-.48.12,1,1,0,0,0-.34.31,1.53,1.53,0,0,0-.23.44,3.8,3.8,0,0,0-.13.51,4.43,4.43,0,0,0-.06.51C97.35,238.9,97.35,239.06,97.35,239.2Z"/><path d="M101.28,237.41a1.33,1.33,0,0,1,.08-.45,1.11,1.11,0,0,1,.25-.36,1,1,0,0,1,.36-.24,1.17,1.17,0,0,1,.9,0,1,1,0,0,1,.36.24,1.11,1.11,0,0,1,.25.36,1.31,1.31,0,0,1,0,.9,1.23,1.23,0,0,1-.61.61,1.17,1.17,0,0,1-.9,0,1.23,1.23,0,0,1-.61-.61A1.33,1.33,0,0,1,101.28,237.41Zm.43,0a.79.79,0,0,0,.05.25.68.68,0,0,0,.14.23.76.76,0,0,0,.23.17.73.73,0,0,0,.58,0,.66.66,0,0,0,.23-.17.68.68,0,0,0,.14-.23.71.71,0,0,0-.14-.73.81.81,0,0,0-.23-.17.73.73,0,0,0-.58,0,1,1,0,0,0-.23.17.75.75,0,0,0-.19.48Z"/><path d="M203.18,38.51h-.68v-4.8h0l-1,.85-.4-.48,1.52-1.24h.59Z"/><path d="M208.49,33.47h-2.31l0,1.53a1.08,1.08,0,0,1,.36-.11l.37,0a2,2,0,0,1,.74.14,1.61,1.61,0,0,1,.57.39,1.9,1.9,0,0,1,.37.59,2,2,0,0,1,.13.74,2,2,0,0,1-.15.78,1.74,1.74,0,0,1-.41.59,1.91,1.91,0,0,1-.61.38,2.2,2.2,0,0,1-.78.13,1.73,1.73,0,0,1-1-.28,2,2,0,0,1-.63-.75l.67-.25a1.31,1.31,0,0,0,.42.51,1.1,1.1,0,0,0,.64.2,1.28,1.28,0,0,0,.48-.09,1.26,1.26,0,0,0,.38-.27,1.15,1.15,0,0,0,.26-.41,1.53,1.53,0,0,0,.1-.54,1.38,1.38,0,0,0-.11-.55,1.08,1.08,0,0,0-.3-.4,1.26,1.26,0,0,0-.44-.25,1.67,1.67,0,0,0-.55-.08,1.84,1.84,0,0,0-.6.1,2.58,2.58,0,0,0-.56.25l.06-2.95h3Z"/><path d="M209.45,35.68a7,7,0,0,1,.08-1,3.1,3.1,0,0,1,.29-1,2,2,0,0,1,.59-.71,1.6,1.6,0,0,1,1-.27,1.55,1.55,0,0,1,.95.27,1.94,1.94,0,0,1,.59.71,2.86,2.86,0,0,1,.3,1,7,7,0,0,1,.08,1,7.07,7.07,0,0,1-.08,1,2.88,2.88,0,0,1-.3.94,1.94,1.94,0,0,1-.59.71,1.55,1.55,0,0,1-.95.27,1.6,1.6,0,0,1-1-.27,2,2,0,0,1-.59-.71,3.13,3.13,0,0,1-.29-.94A7.07,7.07,0,0,1,209.45,35.68Zm.67,0c0,.13,0,.29,0,.46a4.88,4.88,0,0,0,.06.52,4.05,4.05,0,0,0,.12.5,1.66,1.66,0,0,0,.23.44,1,1,0,0,0,.34.31.9.9,0,0,0,.48.12,1,1,0,0,0,.48-.12,1.24,1.24,0,0,0,.34-.31,1.4,1.4,0,0,0,.22-.44,2.83,2.83,0,0,0,.13-.5,4.88,4.88,0,0,0,.06-.52c0-.17,0-.33,0-.46s0-.3,0-.47a4.43,4.43,0,0,0-.06-.51,2.72,2.72,0,0,0-.13-.51,1.51,1.51,0,0,0-.22-.44,1.24,1.24,0,0,0-.34-.31,1,1,0,0,0-.48-.12.9.9,0,0,0-.48.12,1,1,0,0,0-.34.31,1.83,1.83,0,0,0-.23.44,3.81,3.81,0,0,0-.12.51,4.43,4.43,0,0,0-.06.51C210.13,35.38,210.12,35.54,210.12,35.68Z"/><path d="M214.05,33.89a1.15,1.15,0,0,1,.33-.81,1,1,0,0,1,.37-.24,1,1,0,0,1,.44-.09,1.13,1.13,0,0,1,.45.09,1,1,0,0,1,.36.24,1,1,0,0,1,.25.36,1.17,1.17,0,0,1,0,.9,1.23,1.23,0,0,1-.61.61,1.13,1.13,0,0,1-.45.09,1.15,1.15,0,0,1-.81-.34,1.15,1.15,0,0,1-.33-.81Zm.43,0a.79.79,0,0,0,.05.25,1.14,1.14,0,0,0,.15.23.62.62,0,0,0,.22.17.72.72,0,0,0,.29.06.68.68,0,0,0,.52-.23.79.79,0,0,0,.14-.23.65.65,0,0,0,0-.5.79.79,0,0,0-.14-.23.81.81,0,0,0-.23-.17.65.65,0,0,0-.29-.06.72.72,0,0,0-.29.06.76.76,0,0,0-.22.17,1.14,1.14,0,0,0-.15.23A.79.79,0,0,0,214.48,33.89Z"/><path d="M93.61,38.51h-.67v-4.8h0l-1,.85-.4-.48L93,32.84h.58Z"/><path d="M98.92,33.47H96.61l0,1.53a1,1,0,0,1,.35-.11l.37,0a1.91,1.91,0,0,1,.74.14,1.65,1.65,0,0,1,.58.39A1.71,1.71,0,0,1,99,36a2,2,0,0,1,.13.74,2,2,0,0,1-.15.78,1.71,1.71,0,0,1-.4.59,2,2,0,0,1-.62.38,2.15,2.15,0,0,1-.77.13,1.78,1.78,0,0,1-1.05-.28,1.85,1.85,0,0,1-.62-.75l.67-.25a1.16,1.16,0,0,0,.42.51,1.05,1.05,0,0,0,.63.2,1.28,1.28,0,0,0,.48-.09,1.23,1.23,0,0,0,.64-.68,1.33,1.33,0,0,0,.1-.54,1.38,1.38,0,0,0-.11-.55,1.18,1.18,0,0,0-.29-.4,1.41,1.41,0,0,0-.45-.25,1.63,1.63,0,0,0-.55-.08,1.78,1.78,0,0,0-.59.1,2.58,2.58,0,0,0-.56.25l0-2.95h3Z"/><path d="M99.88,35.68a7,7,0,0,1,.08-1,3.11,3.11,0,0,1,.3-1,1.94,1.94,0,0,1,.59-.71,1.55,1.55,0,0,1,1-.27,1.6,1.6,0,0,1,1,.27,2,2,0,0,1,.59.71,3.1,3.1,0,0,1,.29,1,5.77,5.77,0,0,1,.08,1,5.85,5.85,0,0,1-.08,1,3.13,3.13,0,0,1-.29.94,2,2,0,0,1-.59.71,1.6,1.6,0,0,1-1,.27,1.55,1.55,0,0,1-1-.27,1.94,1.94,0,0,1-.59-.71,3.14,3.14,0,0,1-.3-.94A7.07,7.07,0,0,1,99.88,35.68Zm.67,0c0,.13,0,.29,0,.46a4.88,4.88,0,0,0,.06.52,2.83,2.83,0,0,0,.13.5,1.4,1.4,0,0,0,.22.44,1.24,1.24,0,0,0,.34.31,1,1,0,0,0,.48.12.9.9,0,0,0,.48-.12,1,1,0,0,0,.34-.31,1.41,1.41,0,0,0,.23-.44,4.05,4.05,0,0,0,.12-.5,4.88,4.88,0,0,0,.06-.52c0-.17,0-.33,0-.46s0-.3,0-.47a4.43,4.43,0,0,0-.06-.51,3.81,3.81,0,0,0-.12-.51,1.53,1.53,0,0,0-.23-.44,1,1,0,0,0-.34-.31.9.9,0,0,0-.48-.12,1,1,0,0,0-.48.12,1.24,1.24,0,0,0-.34.31,1.51,1.51,0,0,0-.22.44,2.72,2.72,0,0,0-.13.51,4.43,4.43,0,0,0-.06.51C100.56,35.38,100.55,35.54,100.55,35.68Z"/><path d="M104.48,33.89a1.15,1.15,0,0,1,1.15-1.14,1,1,0,0,1,.44.09,1.12,1.12,0,0,1,.37.24,1.16,1.16,0,0,1,0,1.62,1.15,1.15,0,0,1-.37.25,1,1,0,0,1-.44.09,1.13,1.13,0,0,1-.45-.09,1.15,1.15,0,0,1-.37-.25,1.15,1.15,0,0,1-.33-.81Zm.43,0a.61.61,0,0,0,.06.25.79.79,0,0,0,.14.23.72.72,0,0,0,.22.17.73.73,0,0,0,.3.06.72.72,0,0,0,.29-.06.62.62,0,0,0,.22-.17,1.14,1.14,0,0,0,.15-.23.65.65,0,0,0,0-.5,1.14,1.14,0,0,0-.15-.23.76.76,0,0,0-.22-.17.72.72,0,0,0-.29-.06.73.73,0,0,0-.3.06.92.92,0,0,0-.22.17.79.79,0,0,0-.14.23A.61.61,0,0,0,104.91,33.89Z"/><path d="M248.75,192.45v0a1.35,1.35,0,0,1,.37-.13,2,2,0,0,1,.39,0,1.73,1.73,0,0,1,.69.13,1.42,1.42,0,0,1,.54.36,1.85,1.85,0,0,1,.36.57,2,2,0,0,1,.12.72,1.78,1.78,0,0,1-.14.74,1.74,1.74,0,0,1-.4.56,2,2,0,0,1-.6.35,2.36,2.36,0,0,1-.75.12,2.27,2.27,0,0,1-.75-.12,2,2,0,0,1-.6-.35,1.6,1.6,0,0,1-.4-.56,1.78,1.78,0,0,1-.15-.74,2.24,2.24,0,0,1,.15-.86,5.28,5.28,0,0,1,.39-.74l1.5-2.39h.79Zm.59.43a1.23,1.23,0,0,0-.87.32,1,1,0,0,0-.26.38,1.31,1.31,0,0,0-.1.5,1.35,1.35,0,0,0,.1.5,1.08,1.08,0,0,0,.26.37,1,1,0,0,0,.39.24,1.32,1.32,0,0,0,1,0,1,1,0,0,0,.39-.24,1.23,1.23,0,0,0,.26-.37,1.35,1.35,0,0,0,.09-.5,1.31,1.31,0,0,0-.09-.5,1.16,1.16,0,0,0-.26-.38,1.23,1.23,0,0,0-.87-.32Z"/><path d="M251.82,192.92a7.07,7.07,0,0,1,.08-1,3.13,3.13,0,0,1,.29-.94,2,2,0,0,1,.59-.71,1.6,1.6,0,0,1,1-.27,1.55,1.55,0,0,1,.95.27,1.94,1.94,0,0,1,.59.71,2.88,2.88,0,0,1,.3.94,7.07,7.07,0,0,1,.08,1,7,7,0,0,1-.08,1,2.86,2.86,0,0,1-.3,1,1.94,1.94,0,0,1-.59.71,1.55,1.55,0,0,1-.95.27,1.6,1.6,0,0,1-1-.27,2,2,0,0,1-.59-.71,3.1,3.1,0,0,1-.29-1A7,7,0,0,1,251.82,192.92Zm.67,0c0,.14,0,.3,0,.47a4.43,4.43,0,0,0,.06.51,3.81,3.81,0,0,0,.12.51,1.83,1.83,0,0,0,.23.44,1,1,0,0,0,.34.31.9.9,0,0,0,.48.12,1,1,0,0,0,.48-.12,1.24,1.24,0,0,0,.34-.31,1.51,1.51,0,0,0,.22-.44,2.72,2.72,0,0,0,.13-.51,4.43,4.43,0,0,0,.06-.51c0-.17,0-.33,0-.47s0-.29,0-.46a4.88,4.88,0,0,0-.06-.52,2.83,2.83,0,0,0-.13-.5,1.4,1.4,0,0,0-.22-.44,1.1,1.1,0,0,0-.34-.31,1,1,0,0,0-.48-.12.9.9,0,0,0-.48.12.92.92,0,0,0-.34.31,1.66,1.66,0,0,0-.23.44,4.05,4.05,0,0,0-.12.5,4.88,4.88,0,0,0-.06.52C252.5,192.63,252.49,192.79,252.49,192.92Z"/><path d="M256.42,191.14a1.15,1.15,0,0,1,.33-.81,1.05,1.05,0,0,1,.37-.25,1.23,1.23,0,0,1,.44-.08,1.33,1.33,0,0,1,.45.08,1.15,1.15,0,0,1,.37.25,1.16,1.16,0,0,1,0,1.62,1.15,1.15,0,0,1-.37.25,1.33,1.33,0,0,1-.45.08,1.23,1.23,0,0,1-.44-.08,1.05,1.05,0,0,1-.37-.25,1.15,1.15,0,0,1-.33-.81Zm.43,0a.79.79,0,0,0,0,.25,1.14,1.14,0,0,0,.15.23.62.62,0,0,0,.22.17.72.72,0,0,0,.29.06.68.68,0,0,0,.52-.23.79.79,0,0,0,.14-.23.65.65,0,0,0,0-.5.79.79,0,0,0-.14-.23.68.68,0,0,0-.52-.23.72.72,0,0,0-.29.06.62.62,0,0,0-.22.17,1.14,1.14,0,0,0-.15.23A.79.79,0,0,0,256.85,191.14Z"/><path d="M250,81.22h-.67v-4.8h0l-1,.86-.4-.49,1.52-1.23H250Z"/><path d="M251.92,80.45l2.13-2.08c.13-.12.25-.24.35-.35a2.16,2.16,0,0,0,.25-.32,1.09,1.09,0,0,0,.15-.33,1.38,1.38,0,0,0,0-.37,1,1,0,0,0-.08-.4.84.84,0,0,0-.22-.3.78.78,0,0,0-.33-.19,1.05,1.05,0,0,0-.4-.07,1,1,0,0,0-.71.25,1.08,1.08,0,0,0-.36.65l-.73-.06a1.83,1.83,0,0,1,.21-.61,1.41,1.41,0,0,1,.39-.45,2,2,0,0,1,.53-.27,2.25,2.25,0,0,1,.64-.09,2.41,2.41,0,0,1,.67.1,1.92,1.92,0,0,1,.55.29,1.44,1.44,0,0,1,.51,1.15,2,2,0,0,1-.09.61,2,2,0,0,1-.25.5,3.47,3.47,0,0,1-.35.43l-.41.4-1.75,1.64v0h2.89v.62h-3.64Z"/><path d="M256.27,78.39a5.85,5.85,0,0,1,.08-1,3.19,3.19,0,0,1,.29-1,2,2,0,0,1,.59-.7,1.54,1.54,0,0,1,1-.28,1.51,1.51,0,0,1,.95.28,1.91,1.91,0,0,1,.59.7,3.2,3.2,0,0,1,.3,1,6.29,6.29,0,0,1,0,2,3.2,3.2,0,0,1-.3,1,1.91,1.91,0,0,1-.59.7,1.51,1.51,0,0,1-.95.28,1.54,1.54,0,0,1-1-.28,2,2,0,0,1-.59-.7,3.19,3.19,0,0,1-.29-1A5.85,5.85,0,0,1,256.27,78.39Zm.67,0a3.78,3.78,0,0,0,0,.46c0,.17,0,.35.05.52a4.77,4.77,0,0,0,.13.51,1.67,1.67,0,0,0,.23.44,1,1,0,0,0,.34.31,1,1,0,0,0,.48.11,1.06,1.06,0,0,0,.48-.11,1.24,1.24,0,0,0,.34-.31,2,2,0,0,0,.22-.44,3.18,3.18,0,0,0,.13-.51,4.6,4.6,0,0,0,.06-.52c0-.17,0-.32,0-.46s0-.29,0-.46a4.35,4.35,0,0,0-.06-.52,3.18,3.18,0,0,0-.13-.51,2,2,0,0,0-.22-.44,1.24,1.24,0,0,0-.34-.31,1.06,1.06,0,0,0-.48-.11,1,1,0,0,0-.48.11,1,1,0,0,0-.34.31,1.67,1.67,0,0,0-.23.44,4.77,4.77,0,0,0-.13.51c0,.17,0,.34-.05.52A3.78,3.78,0,0,0,256.94,78.39Z"/><path d="M260.87,76.61a1.13,1.13,0,0,1,.09-.45,1,1,0,0,1,.24-.37,1.16,1.16,0,0,1,1.62,0,1.15,1.15,0,0,1,.25.37,1.13,1.13,0,0,1,.09.45,1,1,0,0,1-.09.44,1.15,1.15,0,0,1-.25.37,1.16,1.16,0,0,1-1.62,0,1,1,0,0,1-.24-.37A1,1,0,0,1,260.87,76.61Zm.43,0a.69.69,0,0,0,.05.24.75.75,0,0,0,.15.24.6.6,0,0,0,.22.16.64.64,0,0,0,.58,0,.63.63,0,0,0,.23-.16.72.72,0,0,0,.14-.24.52.52,0,0,0,.05-.24.56.56,0,0,0-.05-.25.59.59,0,0,0-.14-.23.66.66,0,0,0-.23-.17.64.64,0,0,0-.58,0,.62.62,0,0,0-.22.17.61.61,0,0,0-.15.23A.74.74,0,0,0,261.3,76.61Z"/><path d="M40.39,192.45v0a1.42,1.42,0,0,1,.38-.13,1.84,1.84,0,0,1,.39,0,1.72,1.72,0,0,1,.68.13,1.42,1.42,0,0,1,.54.36,1.85,1.85,0,0,1,.36.57,2,2,0,0,1,.13.72,1.78,1.78,0,0,1-.15.74,1.6,1.6,0,0,1-.4.56,2,2,0,0,1-.6.35,2.4,2.4,0,0,1-1.5,0,2,2,0,0,1-.6-.35,1.6,1.6,0,0,1-.4-.56,1.78,1.78,0,0,1-.15-.74,2.24,2.24,0,0,1,.16-.86,5.19,5.19,0,0,1,.38-.74l1.5-2.39h.79Zm.59.43a1.23,1.23,0,0,0-.87.32,1.16,1.16,0,0,0-.26.38,1.31,1.31,0,0,0-.09.5,1.35,1.35,0,0,0,.09.5,1.23,1.23,0,0,0,.26.37,1,1,0,0,0,.39.24,1.32,1.32,0,0,0,1,0,1,1,0,0,0,.39-.24,1.23,1.23,0,0,0,.26-.37,1.35,1.35,0,0,0,.1-.5,1.31,1.31,0,0,0-.1-.5,1.16,1.16,0,0,0-.26-.38,1.23,1.23,0,0,0-.87-.32Z"/><path d="M43.46,192.92a7.07,7.07,0,0,1,.08-1,2.88,2.88,0,0,1,.3-.94,1.94,1.94,0,0,1,.59-.71,1.55,1.55,0,0,1,1-.27,1.6,1.6,0,0,1,1,.27,2,2,0,0,1,.59.71,3.13,3.13,0,0,1,.29.94,7.07,7.07,0,0,1,.08,1,7,7,0,0,1-.08,1,3.1,3.1,0,0,1-.29,1,2,2,0,0,1-.59.71,1.6,1.6,0,0,1-1,.27,1.55,1.55,0,0,1-1-.27,1.94,1.94,0,0,1-.59-.71,2.86,2.86,0,0,1-.3-1A7,7,0,0,1,43.46,192.92Zm.67,0c0,.14,0,.3,0,.47a4.43,4.43,0,0,0,.06.51,2.72,2.72,0,0,0,.13.51,1.51,1.51,0,0,0,.22.44,1.12,1.12,0,0,0,.34.31,1,1,0,0,0,1,0,1.12,1.12,0,0,0,.34-.31,1.83,1.83,0,0,0,.23-.44,3.81,3.81,0,0,0,.12-.51,4.43,4.43,0,0,0,.06-.51c0-.17,0-.33,0-.47s0-.29,0-.46a4.88,4.88,0,0,0-.06-.52,4.05,4.05,0,0,0-.12-.5,1.66,1.66,0,0,0-.23-.44,1,1,0,0,0-.34-.31,1,1,0,0,0-1,0,1,1,0,0,0-.34.31,1.4,1.4,0,0,0-.22.44,2.83,2.83,0,0,0-.13.5,4.88,4.88,0,0,0-.06.52C44.14,192.63,44.13,192.79,44.13,192.92Z"/><path d="M48.06,191.14a1.15,1.15,0,0,1,.33-.81,1.15,1.15,0,0,1,.37-.25,1.33,1.33,0,0,1,.45-.08,1.27,1.27,0,0,1,.44.08,1.15,1.15,0,0,1,.37.25A1.16,1.16,0,0,1,50,192a1.15,1.15,0,0,1-.37.25,1.27,1.27,0,0,1-.44.08,1.33,1.33,0,0,1-.45-.08,1.15,1.15,0,0,1-.37-.25,1.15,1.15,0,0,1-.33-.81Zm.43,0a.61.61,0,0,0,.06.25.79.79,0,0,0,.14.23.72.72,0,0,0,.22.17.73.73,0,0,0,.3.06.72.72,0,0,0,.29-.06.62.62,0,0,0,.22-.17,1.14,1.14,0,0,0,.15-.23.65.65,0,0,0,0-.5,1.14,1.14,0,0,0-.15-.23.62.62,0,0,0-.22-.17.72.72,0,0,0-.29-.06.73.73,0,0,0-.3.06.72.72,0,0,0-.22.17.79.79,0,0,0-.14.23A.61.61,0,0,0,48.49,191.14Z"/><path d="M39.15,81.22h-.67v-4.8h0l-1,.86-.4-.49,1.52-1.23h.58Z"/><path d="M41.07,80.45l2.14-2.08c.13-.12.25-.24.35-.35a2.16,2.16,0,0,0,.25-.32,1.09,1.09,0,0,0,.15-.33A1.38,1.38,0,0,0,44,77a1,1,0,0,0-.08-.4.84.84,0,0,0-.22-.3.78.78,0,0,0-.33-.19A1.05,1.05,0,0,0,43,76a1,1,0,0,0-.72.25,1.19,1.19,0,0,0-.36.65l-.72-.06a1.47,1.47,0,0,1,.21-.61,1.41,1.41,0,0,1,.39-.45,2,2,0,0,1,.53-.27,2.2,2.2,0,0,1,.64-.09,2.41,2.41,0,0,1,.67.1,2.06,2.06,0,0,1,.55.29,1.47,1.47,0,0,1,.37.48,1.6,1.6,0,0,1,.14.67,2,2,0,0,1-.09.61,2.34,2.34,0,0,1-.25.5,3.47,3.47,0,0,1-.35.43l-.41.4-1.75,1.64v0h2.89v.62H41.07Z"/><path d="M45.43,78.39a7,7,0,0,1,.07-1,3.52,3.52,0,0,1,.3-1,2,2,0,0,1,.59-.7,1.77,1.77,0,0,1,1.91,0,1.91,1.91,0,0,1,.59.7,3.52,3.52,0,0,1,.3,1,6.29,6.29,0,0,1,0,2,3.52,3.52,0,0,1-.3,1,1.91,1.91,0,0,1-.59.7,1.77,1.77,0,0,1-1.91,0,2,2,0,0,1-.59-.7,3.52,3.52,0,0,1-.3-1A7,7,0,0,1,45.43,78.39Zm.67,0c0,.14,0,.29,0,.46a4.6,4.6,0,0,0,.06.52,4.77,4.77,0,0,0,.13.51,2,2,0,0,0,.22.44,1.15,1.15,0,0,0,.35.31,1,1,0,0,0,.48.11,1.06,1.06,0,0,0,.48-.11,1.24,1.24,0,0,0,.34-.31,2,2,0,0,0,.22-.44,3.18,3.18,0,0,0,.13-.51,4.6,4.6,0,0,0,.06-.52c0-.17,0-.32,0-.46s0-.29,0-.46a4.35,4.35,0,0,0-.06-.52,3.18,3.18,0,0,0-.13-.51,2,2,0,0,0-.22-.44,1.24,1.24,0,0,0-.34-.31,1.06,1.06,0,0,0-.48-.11,1,1,0,0,0-.48.11,1.15,1.15,0,0,0-.35.31,2,2,0,0,0-.22.44,4.77,4.77,0,0,0-.13.51,4.35,4.35,0,0,0-.06.52C46.1,78.1,46.1,78.25,46.1,78.39Z"/><path d="M50,76.61a1.12,1.12,0,0,1,.08-.45,1.15,1.15,0,0,1,.25-.37,1.16,1.16,0,0,1,1.62,0,1.15,1.15,0,0,1,.25.37,1.33,1.33,0,0,1,.08.45,1.23,1.23,0,0,1-.08.44,1.15,1.15,0,0,1-.25.37,1.16,1.16,0,0,1-1.62,0,1.15,1.15,0,0,1-.25-.37A1,1,0,0,1,50,76.61Zm.43,0a.52.52,0,0,0,0,.24.72.72,0,0,0,.14.24.63.63,0,0,0,.23.16.64.64,0,0,0,.58,0,.73.73,0,0,0,.23-.16,1,1,0,0,0,.14-.24.69.69,0,0,0,.05-.24.75.75,0,0,0-.19-.48.76.76,0,0,0-.23-.17.64.64,0,0,0-.58,0,.66.66,0,0,0-.23.17.59.59,0,0,0-.14.23A.56.56,0,0,0,50.46,76.61Z"/></g><g id="numeri_fondo_tabella" data-name="numeri fondo tabella"><path d="M131.83,251.42a1.17,1.17,0,0,0-.43-.35,1.19,1.19,0,0,0-.51-.11,1.35,1.35,0,0,0-.55.11,1.08,1.08,0,0,0-.4.3,1.32,1.32,0,0,0-.23.44,1.76,1.76,0,0,0,0,1.08,1.43,1.43,0,0,0,.26.45,1.31,1.31,0,0,0,.39.3,1.27,1.27,0,0,0,.52.1,1.09,1.09,0,0,0,1-.46l.47.44a1.69,1.69,0,0,1-.64.46,2.29,2.29,0,0,1-.78.14,2.22,2.22,0,0,1-.79-.14,1.75,1.75,0,0,1-1-1,2.27,2.27,0,0,1,0-1.57,1.86,1.86,0,0,1,.39-.63,2,2,0,0,1,.61-.41,2,2,0,0,1,.79-.15,2.09,2.09,0,0,1,.79.15,1.59,1.59,0,0,1,.65.45Z"/><path d="M136.21,253.56h0a1.43,1.43,0,0,1-.55.54,1.7,1.7,0,0,1-.89.22,1.8,1.8,0,0,1-.73-.15,1.78,1.78,0,0,1-.6-.41,1.81,1.81,0,0,1-.39-.62,2.06,2.06,0,0,1-.15-.79,2,2,0,0,1,.15-.78,1.88,1.88,0,0,1,.4-.63,1.81,1.81,0,0,1,.62-.41,2.07,2.07,0,0,1,.8-.15,1.72,1.72,0,0,1,.75.17,1.78,1.78,0,0,1,.59.47h0v-2.84h.62v6h-.62Zm0-1.21a1.63,1.63,0,0,0-.09-.55,1.34,1.34,0,0,0-.27-.44,1.37,1.37,0,0,0-.42-.29,1.35,1.35,0,0,0-.55-.11,1.42,1.42,0,0,0-.55.11,1.22,1.22,0,0,0-.41.29,1.34,1.34,0,0,0-.27.44,1.56,1.56,0,0,0,0,1.1,1.25,1.25,0,0,0,.27.44,1.19,1.19,0,0,0,1,.4,1.35,1.35,0,0,0,.55-.1,1.6,1.6,0,0,0,.42-.3,1.25,1.25,0,0,0,.27-.44A1.63,1.63,0,0,0,136.21,252.35Z"/><path d="M140.1,254.57l-.5-.2,2.4-6.15.51.2Z"/><path d="M147.64,254.22H147v-4.8h0l-1,.86-.4-.49,1.52-1.23h.59Z"/><path d="M149.46,251.39a7.07,7.07,0,0,1,.08-1,3.19,3.19,0,0,1,.29-.95,2,2,0,0,1,.59-.7,1.61,1.61,0,0,1,1-.28,1.55,1.55,0,0,1,1,.28,1.91,1.91,0,0,1,.59.7,2.94,2.94,0,0,1,.3.95,6.29,6.29,0,0,1,0,2,2.94,2.94,0,0,1-.3,1,1.91,1.91,0,0,1-.59.7,1.49,1.49,0,0,1-1,.28,1.54,1.54,0,0,1-1-.28,2,2,0,0,1-.59-.7,3.19,3.19,0,0,1-.29-1A7.07,7.07,0,0,1,149.46,251.39Zm.67,0c0,.14,0,.29,0,.47a4.43,4.43,0,0,0,.06.51,4.7,4.7,0,0,0,.12.51,2,2,0,0,0,.23.44,1.12,1.12,0,0,0,.34.31,1.1,1.1,0,0,0,1,0,1.12,1.12,0,0,0,.34-.31,1.65,1.65,0,0,0,.22-.44,3.18,3.18,0,0,0,.13-.51,4.43,4.43,0,0,0,.06-.51c0-.18,0-.33,0-.47s0-.29,0-.46a4.6,4.6,0,0,0-.06-.52,3.18,3.18,0,0,0-.13-.51,1.65,1.65,0,0,0-.22-.44,1.08,1.08,0,0,0-.34-.3,1,1,0,0,0-1,0,1.08,1.08,0,0,0-.34.3,2,2,0,0,0-.23.44,4.7,4.7,0,0,0-.12.51,4.6,4.6,0,0,0-.06.52C150.14,251.1,150.13,251.25,150.13,251.39Z"/><path d="M153.91,251.39a5.85,5.85,0,0,1,.08-1,3.19,3.19,0,0,1,.29-.95,2,2,0,0,1,.59-.7,1.61,1.61,0,0,1,1-.28,1.55,1.55,0,0,1,.95.28,1.91,1.91,0,0,1,.59.7,3.2,3.2,0,0,1,.3.95,6.29,6.29,0,0,1,0,2,3.2,3.2,0,0,1-.3,1,1.91,1.91,0,0,1-.59.7,1.49,1.49,0,0,1-.95.28,1.54,1.54,0,0,1-1-.28,2,2,0,0,1-.59-.7,3.19,3.19,0,0,1-.29-1A5.85,5.85,0,0,1,153.91,251.39Zm.67,0a4,4,0,0,0,0,.47,4.43,4.43,0,0,0,.06.51,3.14,3.14,0,0,0,.12.51,1.67,1.67,0,0,0,.23.44,1,1,0,0,0,.34.31.9.9,0,0,0,.48.11,1,1,0,0,0,.48-.11,1.24,1.24,0,0,0,.34-.31,1.65,1.65,0,0,0,.22-.44,3.18,3.18,0,0,0,.13-.51,4.43,4.43,0,0,0,.06-.51c0-.18,0-.33,0-.47s0-.29,0-.46a4.6,4.6,0,0,0-.06-.52,3.18,3.18,0,0,0-.13-.51,1.65,1.65,0,0,0-.22-.44,1.21,1.21,0,0,0-.34-.3,1,1,0,0,0-.48-.12.9.9,0,0,0-.48.12,1,1,0,0,0-.34.3,1.67,1.67,0,0,0-.23.44,3.14,3.14,0,0,0-.12.51,4.6,4.6,0,0,0-.06.52A3.78,3.78,0,0,0,154.58,251.39Z"/><path d="M158.31,251.39a5.85,5.85,0,0,1,.08-1,3.19,3.19,0,0,1,.29-.95,2,2,0,0,1,.59-.7,1.61,1.61,0,0,1,1-.28,1.55,1.55,0,0,1,1,.28,1.91,1.91,0,0,1,.59.7,3.2,3.2,0,0,1,.3.95,6.29,6.29,0,0,1,0,2,3.2,3.2,0,0,1-.3,1,1.91,1.91,0,0,1-.59.7,1.49,1.49,0,0,1-1,.28,1.54,1.54,0,0,1-1-.28,2,2,0,0,1-.59-.7,3.19,3.19,0,0,1-.29-1A5.85,5.85,0,0,1,158.31,251.39Zm.67,0c0,.14,0,.29,0,.47a4.43,4.43,0,0,0,.06.51,3.14,3.14,0,0,0,.12.51,1.67,1.67,0,0,0,.23.44,1,1,0,0,0,.34.31.9.9,0,0,0,.48.11,1,1,0,0,0,.48-.11,1.24,1.24,0,0,0,.34-.31,1.65,1.65,0,0,0,.22-.44,3.18,3.18,0,0,0,.13-.51,4.43,4.43,0,0,0,.06-.51c0-.18,0-.33,0-.47s0-.29,0-.46a4.6,4.6,0,0,0-.06-.52,3.18,3.18,0,0,0-.13-.51,1.65,1.65,0,0,0-.22-.44,1.21,1.21,0,0,0-.34-.3,1,1,0,0,0-.48-.12.9.9,0,0,0-.48.12,1,1,0,0,0-.34.3,1.67,1.67,0,0,0-.23.44,3.14,3.14,0,0,0-.12.51,4.6,4.6,0,0,0-.06.52C159,251.1,159,251.25,159,251.39Z"/><path d="M165.32,248.18H166v6h-.63Z"/><path d="M167.19,251.37c0-.17,0-.33,0-.48s0-.29,0-.41h.59c0,.1,0,.2,0,.3v.32h0a.91.91,0,0,1,.18-.27,1.64,1.64,0,0,1,.28-.23,1.5,1.5,0,0,1,.36-.16,1.44,1.44,0,0,1,.43-.06,1.52,1.52,0,0,1,.51.08,1.36,1.36,0,0,1,.34.18.93.93,0,0,1,.21.24,1.64,1.64,0,0,1,.12.22,1.78,1.78,0,0,1,.48-.53,1.27,1.27,0,0,1,.71-.19,1.88,1.88,0,0,1,.67.11,1.1,1.1,0,0,1,.44.31,1.37,1.37,0,0,1,.24.5,2.59,2.59,0,0,1,.07.65v2.27h-.62V252a2.33,2.33,0,0,0,0-.37,1,1,0,0,0-.15-.33.71.71,0,0,0-.28-.23,1,1,0,0,0-.45-.09,1,1,0,0,0-.37.08,1,1,0,0,0-.31.22,1.13,1.13,0,0,0-.21.35,1.33,1.33,0,0,0-.07.45v2.16h-.63V252.1a1.62,1.62,0,0,0-.17-.88A.6.6,0,0,0,169,251a1.18,1.18,0,0,0-.52.1.88.88,0,0,0-.36.3,1.14,1.14,0,0,0-.21.46,2.1,2.1,0,0,0-.07.58v1.82h-.62Z"/><line class="cls-1" x1="38.21" y1="253" x2="46.2" y2="253"/><path d="M235.17,251a1.66,1.66,0,0,0-.63-.52,1.93,1.93,0,0,0-.79-.17,2.13,2.13,0,0,0-.87.19,2.16,2.16,0,0,0-.68.52,2.58,2.58,0,0,0-.45.75,2.69,2.69,0,0,0-.16.89,2.79,2.79,0,0,0,.16.93,2.41,2.41,0,0,0,.45.74,2,2,0,0,0,.68.5,1.92,1.92,0,0,0,.87.19,2,2,0,0,0,1.64-.8l.51.43a2.38,2.38,0,0,1-.93.75,3,3,0,0,1-1.22.24,2.85,2.85,0,0,1-1.13-.22,2.82,2.82,0,0,1-.92-.62,3,3,0,0,1-.61-.94,3.33,3.33,0,0,1-.22-1.2,3.19,3.19,0,0,1,.21-1.16,2.9,2.9,0,0,1,.6-1,3.08,3.08,0,0,1,.91-.63,3,3,0,0,1,2.27,0,2,2,0,0,1,.89.68Z"/><path d="M239,253.1l0,0a1.35,1.35,0,0,1-.37.13,2.87,2.87,0,0,1-.39,0,1.68,1.68,0,0,1-.68-.13,1.5,1.5,0,0,1-.55-.36,1.92,1.92,0,0,1-.36-.56,2.11,2.11,0,0,1-.12-.73,1.75,1.75,0,0,1,.14-.74,1.63,1.63,0,0,1,.4-.56,1.79,1.79,0,0,1,.6-.35,2.36,2.36,0,0,1,.75-.12,2.27,2.27,0,0,1,.75.12,1.94,1.94,0,0,1,.61.35,1.49,1.49,0,0,1,.39.56,1.75,1.75,0,0,1,.15.74,2.19,2.19,0,0,1,0,.46c0,.14-.07.27-.11.4a2.53,2.53,0,0,1-.18.37,3.35,3.35,0,0,1-.21.36l-1.5,2.4h-.79Zm-.6-.43a1.51,1.51,0,0,0,.48-.08,1.28,1.28,0,0,0,.39-.24,1.12,1.12,0,0,0,.26-.38,1.27,1.27,0,0,0,.1-.5,1.26,1.26,0,0,0-.1-.49,1,1,0,0,0-.26-.38,1,1,0,0,0-.39-.24,1.33,1.33,0,0,0-1,0,.88.88,0,0,0-.38.24,1.19,1.19,0,0,0-.27.38,1.26,1.26,0,0,0-.09.49,1.28,1.28,0,0,0,.09.5,1.31,1.31,0,0,0,.27.38,1.12,1.12,0,0,0,.38.24A1.51,1.51,0,0,0,238.35,252.67Z"/><path d="M240.88,252.62a7.07,7.07,0,0,1,.08-1,2.88,2.88,0,0,1,.3-.94,2,2,0,0,1,.58-.71,1.84,1.84,0,0,1,1.92,0,2,2,0,0,1,.58.71,2.88,2.88,0,0,1,.3.94,7.07,7.07,0,0,1,.08,1,7,7,0,0,1-.08,1,2.86,2.86,0,0,1-.3.95,2,2,0,0,1-.58.71,1.84,1.84,0,0,1-1.92,0,2,2,0,0,1-.58-.71,2.86,2.86,0,0,1-.3-.95A7,7,0,0,1,240.88,252.62Zm.67,0c0,.14,0,.3,0,.47a4.43,4.43,0,0,0,.06.51,2.72,2.72,0,0,0,.13.51,1.51,1.51,0,0,0,.22.44,1.12,1.12,0,0,0,.34.31,1,1,0,0,0,1,0,1.12,1.12,0,0,0,.34-.31,1.51,1.51,0,0,0,.22-.44,2.72,2.72,0,0,0,.13-.51,4.43,4.43,0,0,0,.06-.51c0-.17,0-.33,0-.47s0-.29,0-.46a4.88,4.88,0,0,0-.06-.52,2.83,2.83,0,0,0-.13-.5,1.4,1.4,0,0,0-.22-.44,1.12,1.12,0,0,0-.34-.31,1,1,0,0,0-1,0,1.12,1.12,0,0,0-.34.31,1.4,1.4,0,0,0-.22.44,2.83,2.83,0,0,0-.13.5,4.88,4.88,0,0,0-.06.52C241.56,252.33,241.55,252.49,241.55,252.62Z"/><path d="M247.78,255.8l-.51-.2,2.41-6.14.5.19Z"/><path d="M257.1,251a1.66,1.66,0,0,0-.63-.52,1.92,1.92,0,0,0-.78-.17,2.06,2.06,0,0,0-.87.19,2.16,2.16,0,0,0-.68.52,2.21,2.21,0,0,0-.45.75,2.46,2.46,0,0,0-.16.89,2.56,2.56,0,0,0,.16.93,2.2,2.2,0,0,0,.44.74,2.1,2.1,0,0,0,.68.5,2,2,0,0,0,.88.19,2,2,0,0,0,.93-.21,2,2,0,0,0,.71-.59l.5.43a2.29,2.29,0,0,1-.92.75,3,3,0,0,1-1.22.24,2.8,2.8,0,0,1-2.05-.84,2.82,2.82,0,0,1-.61-.94,3.13,3.13,0,0,1-.22-1.2,3.19,3.19,0,0,1,.21-1.16,2.75,2.75,0,0,1,.6-1,3,3,0,0,1,.91-.63,2.93,2.93,0,0,1,1.16-.23,3,3,0,0,1,1.11.21,2,2,0,0,1,.89.68Z"/><path d="M258.46,254.69l2.14-2.08.35-.36a1.75,1.75,0,0,0,.25-.32,1,1,0,0,0,.15-.32,1.46,1.46,0,0,0,0-.38,1,1,0,0,0-.08-.4.93.93,0,0,0-.22-.3,1.13,1.13,0,0,0-.73-.26,1,1,0,0,0-.71.25,1.11,1.11,0,0,0-.36.66l-.73-.07a1.91,1.91,0,0,1,.21-.61,1.28,1.28,0,0,1,.39-.44,1.77,1.77,0,0,1,.53-.27,2.25,2.25,0,0,1,.64-.09,2.09,2.09,0,0,1,.67.1,1.53,1.53,0,0,1,.55.29,1.47,1.47,0,0,1,.37.48,1.39,1.39,0,0,1,.14.66,1.91,1.91,0,0,1-.09.61,1.8,1.8,0,0,1-.25.5,2.86,2.86,0,0,1-.35.43l-.41.41-1.75,1.64h2.89v.63h-3.65Z"/><path d="M266.35,250.42l-2.26,5h-.76l2.3-5H262.9v-.63h3.45Z"/><path d="M267.26,252.62a7.07,7.07,0,0,1,.08-1,3.45,3.45,0,0,1,.3-.94,2,2,0,0,1,.59-.71,1.82,1.82,0,0,1,1.91,0,2,2,0,0,1,.59.71,3.45,3.45,0,0,1,.3.94,7,7,0,0,1,.07,1,6.92,6.92,0,0,1-.07,1,3.41,3.41,0,0,1-.3.95,2,2,0,0,1-.59.71,1.82,1.82,0,0,1-1.91,0,2,2,0,0,1-.59-.71,3.41,3.41,0,0,1-.3-.95A7,7,0,0,1,267.26,252.62Zm.68,0c0,.14,0,.3,0,.47a4.43,4.43,0,0,0,.06.51,2.72,2.72,0,0,0,.13.51,1.53,1.53,0,0,0,.23.44,1,1,0,0,0,.34.31.89.89,0,0,0,.47.12,1,1,0,0,0,.49-.12,1.08,1.08,0,0,0,.33-.31,1.53,1.53,0,0,0,.23-.44,2.72,2.72,0,0,0,.13-.51,4.43,4.43,0,0,0,.06-.51c0-.17,0-.33,0-.47s0-.29,0-.46a4.88,4.88,0,0,0-.06-.52,2.83,2.83,0,0,0-.13-.5,1.41,1.41,0,0,0-.23-.44,1.08,1.08,0,0,0-.33-.31,1,1,0,0,0-.49-.12.89.89,0,0,0-.47.12,1,1,0,0,0-.34.31,1.41,1.41,0,0,0-.23.44,2.83,2.83,0,0,0-.13.5,4.88,4.88,0,0,0-.06.52C267.94,252.33,267.94,252.49,267.94,252.62Z"/><path d="M52.87,251a1.55,1.55,0,0,0-.63-.51,1.82,1.82,0,0,0-.79-.18,2,2,0,0,0-.87.2,2.13,2.13,0,0,0-.68.51,2.58,2.58,0,0,0-.45.75,2.67,2.67,0,0,0,0,1.82,2.29,2.29,0,0,0,.45.74,1.88,1.88,0,0,0,.68.5,1.92,1.92,0,0,0,.87.19,2,2,0,0,0,.93-.21,2.07,2.07,0,0,0,.71-.58l.51.42a2.38,2.38,0,0,1-.93.75,3,3,0,0,1-1.22.24,2.85,2.85,0,0,1-1.13-.22,2.82,2.82,0,0,1-.92-.62,3,3,0,0,1-.61-.94,3.27,3.27,0,0,1-.22-1.19,3.2,3.2,0,0,1,.21-1.17,3,3,0,0,1,.6-.95,3.08,3.08,0,0,1,.91-.63,3,3,0,0,1,2.27,0,2,2,0,0,1,.89.68Z"/><path d="M54.13,252.62a7,7,0,0,1,.08-1,3.11,3.11,0,0,1,.3-1,1.94,1.94,0,0,1,.59-.71,1.55,1.55,0,0,1,.95-.27,1.6,1.6,0,0,1,1,.27,2,2,0,0,1,.59.71,3.1,3.1,0,0,1,.29,1,5.77,5.77,0,0,1,.08,1,5.85,5.85,0,0,1-.08,1,3.13,3.13,0,0,1-.29.94,2,2,0,0,1-.59.71,1.6,1.6,0,0,1-1,.27,1.55,1.55,0,0,1-.95-.27,1.94,1.94,0,0,1-.59-.71,3.14,3.14,0,0,1-.3-.94A7.07,7.07,0,0,1,54.13,252.62Zm.67,0c0,.13,0,.29,0,.46a4.88,4.88,0,0,0,.06.52,2.83,2.83,0,0,0,.13.5,1.4,1.4,0,0,0,.22.44,1.1,1.1,0,0,0,.34.31,1,1,0,0,0,.48.12.9.9,0,0,0,.48-.12.92.92,0,0,0,.34-.31,1.41,1.41,0,0,0,.23-.44,2.8,2.8,0,0,0,.12-.5,4.88,4.88,0,0,0,.06-.52,3.86,3.86,0,0,0,0-.46,3.94,3.94,0,0,0,0-.47,4.43,4.43,0,0,0-.06-.51,2.71,2.71,0,0,0-.12-.51,1.53,1.53,0,0,0-.23-.44,1,1,0,0,0-.34-.31.9.9,0,0,0-.48-.12,1,1,0,0,0-.48.12,1.24,1.24,0,0,0-.34.31,1.51,1.51,0,0,0-.22.44,2.72,2.72,0,0,0-.13.51,4.43,4.43,0,0,0-.06.51C54.81,252.32,54.8,252.48,54.8,252.62Z"/><path d="M61,255.79l-.51-.2,2.41-6.14.51.19Z"/><path d="M70.36,251a1.52,1.52,0,0,0-.64-.51,1.78,1.78,0,0,0-.78-.18,2,2,0,0,0-.87.2,2.13,2.13,0,0,0-.68.51,2.58,2.58,0,0,0-.45.75,2.51,2.51,0,0,0-.16.9,2.54,2.54,0,0,0,.16.92,2.46,2.46,0,0,0,.44.74,2.09,2.09,0,0,0,1.56.69,2,2,0,0,0,.93-.21,2.07,2.07,0,0,0,.71-.58l.5.42a2.29,2.29,0,0,1-.92.75,3,3,0,0,1-1.22.24,2.93,2.93,0,0,1-1.14-.22,2.88,2.88,0,0,1-.91-.62,3,3,0,0,1-.61-.94,3.07,3.07,0,0,1-.22-1.19,3.2,3.2,0,0,1,.21-1.17,2.84,2.84,0,0,1,.6-.95,3,3,0,0,1,.91-.63,2.93,2.93,0,0,1,1.16-.23,3,3,0,0,1,1.11.21,2,2,0,0,1,.89.68Z"/><path d="M74.2,255.45h-.68v-4.8h0l-1,.85-.4-.48,1.52-1.24h.59Z"/><path d="M76.37,251.17a1.33,1.33,0,0,1,.13-.61,1.2,1.2,0,0,1,.34-.46,1.44,1.44,0,0,1,.51-.3,1.92,1.92,0,0,1,1.28,0,1.44,1.44,0,0,1,.51.3,1.32,1.32,0,0,1,.34.46,1.48,1.48,0,0,1,.12.61,1.44,1.44,0,0,1-.06.4,1.41,1.41,0,0,1-.18.37,1.18,1.18,0,0,1-.3.29,1,1,0,0,1-.38.19h0a1.44,1.44,0,0,1,.46.19,1.35,1.35,0,0,1,.35.32,1.67,1.67,0,0,1,.23.44,1.7,1.7,0,0,1,.08.51,1.74,1.74,0,0,1-.14.69,1.46,1.46,0,0,1-.39.52,1.47,1.47,0,0,1-.57.33,2.35,2.35,0,0,1-1.42,0,1.59,1.59,0,0,1-.58-.33,1.43,1.43,0,0,1-.38-.52,1.74,1.74,0,0,1-.14-.69,1.7,1.7,0,0,1,.08-.51,1.65,1.65,0,0,1,.22-.44,1.59,1.59,0,0,1,.36-.32,1.44,1.44,0,0,1,.46-.19h0a1.18,1.18,0,0,1-.39-.19,1.33,1.33,0,0,1-.29-.29,1.41,1.41,0,0,1-.18-.37A1.16,1.16,0,0,1,76.37,251.17Zm.48,2.67a1.14,1.14,0,0,0,.09.46,1.21,1.21,0,0,0,.24.35,1.16,1.16,0,0,0,.36.23A1.13,1.13,0,0,0,78,255a1,1,0,0,0,.44-.09,1,1,0,0,0,.36-.23,1.07,1.07,0,0,0,.25-.35,1.36,1.36,0,0,0,0-.92,1.07,1.07,0,0,0-.25-.35,1,1,0,0,0-.36-.23,1,1,0,0,0-.44-.09,1.13,1.13,0,0,0-.45.09,1.16,1.16,0,0,0-.36.23,1.21,1.21,0,0,0-.24.35A1.14,1.14,0,0,0,76.85,253.84ZM77,251.2a.92.92,0,0,0,.26.67.93.93,0,0,0,.69.27.9.9,0,0,0,.68-.27,1,1,0,0,0,0-1.34.9.9,0,0,0-.68-.27.93.93,0,0,0-.69.27A.92.92,0,0,0,77,251.2Z"/><path d="M80.52,252.62a5.77,5.77,0,0,1,.08-1,3.1,3.1,0,0,1,.29-1,2,2,0,0,1,.59-.71,1.6,1.6,0,0,1,1-.27,1.55,1.55,0,0,1,1,.27,1.94,1.94,0,0,1,.59.71,3.41,3.41,0,0,1,.3,1,7,7,0,0,1,.08,1,7.07,7.07,0,0,1-.08,1,3.45,3.45,0,0,1-.3.94,1.94,1.94,0,0,1-.59.71,1.55,1.55,0,0,1-1,.27,1.6,1.6,0,0,1-1-.27,2,2,0,0,1-.59-.71,3.13,3.13,0,0,1-.29-.94A5.85,5.85,0,0,1,80.52,252.62Zm.67,0a3.86,3.86,0,0,0,0,.46c0,.17,0,.34.05.52a4.07,4.07,0,0,0,.13.5,1.41,1.41,0,0,0,.23.44.92.92,0,0,0,.34.31.9.9,0,0,0,.48.12,1,1,0,0,0,.48-.12,1.1,1.1,0,0,0,.34-.31,1.65,1.65,0,0,0,.22-.44,2.83,2.83,0,0,0,.13-.5,4.88,4.88,0,0,0,.06-.52c0-.17,0-.33,0-.46s0-.3,0-.47a4.43,4.43,0,0,0-.06-.51,2.72,2.72,0,0,0-.13-.51,1.81,1.81,0,0,0-.22-.44,1.24,1.24,0,0,0-.34-.31,1,1,0,0,0-.48-.12.9.9,0,0,0-.48.12,1,1,0,0,0-.34.31,1.53,1.53,0,0,0-.23.44,3.8,3.8,0,0,0-.13.51c0,.17,0,.34-.05.51A3.94,3.94,0,0,0,81.19,252.62Z"/><line class="cls-2" x1="214.49" y1="253.42" x2="215.03" y2="253.42"/><line class="cls-2" x1="217.76" y1="253.42" x2="218.3" y2="253.42"/><line class="cls-2" x1="221.02" y1="253.42" x2="221.56" y2="253.42"/><line class="cls-2" x1="224.29" y1="253.42" x2="224.83" y2="253.42"/><line class="cls-2" x1="227.55" y1="253.42" x2="228.09" y2="253.42"/></g><g id="Bon_Jour_F10320_F1033000"><rect class="cls-3" x="55.29" y="42.49" width="189.86" height="189.86"/><circle class="cls-4" cx="150.22" cy="137.36" r="23.71"/><path d="M154.75,168.12h-.68v-4.8h0l-1,.85-.4-.48,1.52-1.23h.59Z"/><path d="M156.57,165.29a7,7,0,0,1,.08-1,2.86,2.86,0,0,1,.3-.95,2,2,0,0,1,.58-.71,1.84,1.84,0,0,1,1.92,0,2,2,0,0,1,.58.71,2.86,2.86,0,0,1,.3.95,7,7,0,0,1,.08,1,7.07,7.07,0,0,1-.08,1,3,3,0,0,1-.3,1,2.07,2.07,0,0,1-.58.7,1.84,1.84,0,0,1-1.92,0,2.07,2.07,0,0,1-.58-.7,3,3,0,0,1-.3-1A7.07,7.07,0,0,1,156.57,165.29Zm.67,0c0,.14,0,.29,0,.46a4.88,4.88,0,0,0,.06.52,2.83,2.83,0,0,0,.13.5,1.4,1.4,0,0,0,.22.44,1,1,0,0,0,.34.31,1,1,0,0,0,1,0,1,1,0,0,0,.34-.31,1.4,1.4,0,0,0,.22-.44,2.83,2.83,0,0,0,.13-.5,4.88,4.88,0,0,0,.06-.52c0-.17,0-.32,0-.46s0-.3,0-.47a4.43,4.43,0,0,0-.06-.51,2.72,2.72,0,0,0-.13-.51,1.51,1.51,0,0,0-.22-.44,1.12,1.12,0,0,0-.34-.31,1,1,0,0,0-1,0,1.12,1.12,0,0,0-.34.31,1.51,1.51,0,0,0-.22.44,2.72,2.72,0,0,0-.13.51,4.43,4.43,0,0,0-.06.51C157.25,165,157.24,165.15,157.24,165.29Z"/><path d="M161,165.29a7,7,0,0,1,.08-1,3.1,3.1,0,0,1,.29-.95,2,2,0,0,1,.59-.71,1.6,1.6,0,0,1,1-.27,1.55,1.55,0,0,1,.95.27,1.94,1.94,0,0,1,.59.71,2.86,2.86,0,0,1,.3.95,7,7,0,0,1,.08,1,7.07,7.07,0,0,1-.08,1,3,3,0,0,1-.3,1,2,2,0,0,1-.59.7,1.55,1.55,0,0,1-.95.27,1.6,1.6,0,0,1-1-.27,2.1,2.1,0,0,1-.59-.7,3.28,3.28,0,0,1-.29-1A7.07,7.07,0,0,1,161,165.29Zm.67,0c0,.14,0,.29,0,.46a4.88,4.88,0,0,0,.06.52,4.05,4.05,0,0,0,.12.5,1.66,1.66,0,0,0,.23.44,1,1,0,0,0,.34.31.9.9,0,0,0,.48.12.92.92,0,0,0,.48-.12,1,1,0,0,0,.34-.31,1.4,1.4,0,0,0,.22-.44,2.83,2.83,0,0,0,.13-.5,4.88,4.88,0,0,0,.06-.52c0-.17,0-.32,0-.46s0-.3,0-.47a4.43,4.43,0,0,0-.06-.51,2.72,2.72,0,0,0-.13-.51,1.51,1.51,0,0,0-.22-.44,1.12,1.12,0,0,0-.34-.31.92.92,0,0,0-.48-.12.9.9,0,0,0-.48.12,1.12,1.12,0,0,0-.34.31,1.83,1.83,0,0,0-.23.44,3.81,3.81,0,0,0-.12.51,4.43,4.43,0,0,0-.06.51C161.7,165,161.69,165.15,161.69,165.29Z"/><circle class="cls-4" cx="150.22" cy="137.36" r="47.41"/><path d="M152.27,191.06,154.4,189c.14-.13.25-.25.35-.36a1.83,1.83,0,0,0,.26-.32,1.3,1.3,0,0,0,.14-.32,1.13,1.13,0,0,0,0-.38.87.87,0,0,0-.08-.4.73.73,0,0,0-.22-.3.89.89,0,0,0-.33-.19,1.05,1.05,0,0,0-.4-.07,1,1,0,0,0-.71.25,1.08,1.08,0,0,0-.36.65l-.73-.06a1.91,1.91,0,0,1,.21-.61,1.71,1.71,0,0,1,.39-.45,1.93,1.93,0,0,1,.54-.26,2.15,2.15,0,0,1,.64-.09,2.07,2.07,0,0,1,.66.1,1.53,1.53,0,0,1,.55.29,1.27,1.27,0,0,1,.37.48,1.39,1.39,0,0,1,.14.66,1.91,1.91,0,0,1-.09.61,1.8,1.8,0,0,1-.25.5,3.47,3.47,0,0,1-.35.43c-.13.14-.27.27-.41.4L153,191.19h2.88v.63h-3.64Z"/><path d="M156.57,189a7.07,7.07,0,0,1,.08-1,3,3,0,0,1,.3-1,2.07,2.07,0,0,1,.58-.7,1.84,1.84,0,0,1,1.92,0,2.07,2.07,0,0,1,.58.7,3,3,0,0,1,.3,1,7.07,7.07,0,0,1,.08,1,7,7,0,0,1-.08,1,2.86,2.86,0,0,1-.3.95,2,2,0,0,1-.58.71,1.84,1.84,0,0,1-1.92,0,2,2,0,0,1-.58-.71,2.86,2.86,0,0,1-.3-.95A7,7,0,0,1,156.57,189Zm.67,0c0,.14,0,.3,0,.47a4.43,4.43,0,0,0,.06.51,2.72,2.72,0,0,0,.13.51,1.51,1.51,0,0,0,.22.44,1.12,1.12,0,0,0,.34.31,1.1,1.1,0,0,0,1,0,1.12,1.12,0,0,0,.34-.31,1.51,1.51,0,0,0,.22-.44,2.72,2.72,0,0,0,.13-.51,4.43,4.43,0,0,0,.06-.51c0-.17,0-.33,0-.47s0-.29,0-.46a4.88,4.88,0,0,0-.06-.52,3.18,3.18,0,0,0-.13-.51,1.45,1.45,0,0,0-.22-.43,1,1,0,0,0-.34-.31,1,1,0,0,0-1,0,1,1,0,0,0-.34.31,1.45,1.45,0,0,0-.22.43,3.18,3.18,0,0,0-.13.51,4.88,4.88,0,0,0-.06.52C157.25,188.7,157.24,188.85,157.24,189Z"/><path d="M161,189a7.07,7.07,0,0,1,.08-1,3.28,3.28,0,0,1,.29-1,2.1,2.1,0,0,1,.59-.7,1.6,1.6,0,0,1,1-.27,1.55,1.55,0,0,1,.95.27,2,2,0,0,1,.59.7,3,3,0,0,1,.3,1,7.07,7.07,0,0,1,.08,1,7,7,0,0,1-.08,1,2.86,2.86,0,0,1-.3.95,1.94,1.94,0,0,1-.59.71,1.55,1.55,0,0,1-.95.27,1.6,1.6,0,0,1-1-.27,2,2,0,0,1-.59-.71,3.1,3.1,0,0,1-.29-.95A7,7,0,0,1,161,189Zm.67,0c0,.14,0,.3,0,.47a4.43,4.43,0,0,0,.06.51,3.81,3.81,0,0,0,.12.51,1.83,1.83,0,0,0,.23.44,1.12,1.12,0,0,0,.34.31.9.9,0,0,0,.48.11.92.92,0,0,0,.48-.11,1.12,1.12,0,0,0,.34-.31,1.51,1.51,0,0,0,.22-.44,2.72,2.72,0,0,0,.13-.51,4.43,4.43,0,0,0,.06-.51c0-.17,0-.33,0-.47s0-.29,0-.46a4.88,4.88,0,0,0-.06-.52,3.18,3.18,0,0,0-.13-.51,1.45,1.45,0,0,0-.22-.43,1,1,0,0,0-.34-.31.92.92,0,0,0-.48-.12.9.9,0,0,0-.48.12,1,1,0,0,0-.34.31,1.76,1.76,0,0,0-.23.43,4.7,4.7,0,0,0-.12.51,4.88,4.88,0,0,0-.06.52C161.7,188.7,161.69,188.85,161.69,189Z"/><circle class="cls-4" cx="150.22" cy="137.36" r="71.17"/><path d="M153.5,212.32h.21l.43,0a1.23,1.23,0,0,0,.42-.14.89.89,0,0,0,.31-.3,1,1,0,0,0,.12-.51.9.9,0,0,0-.26-.69,1,1,0,0,0-.7-.25,1.07,1.07,0,0,0-1,.63l-.65-.24a1.35,1.35,0,0,1,.65-.72,2.07,2.07,0,0,1,1-.24,2.25,2.25,0,0,1,.64.09,1.72,1.72,0,0,1,.54.28,1.28,1.28,0,0,1,.37.46,1.44,1.44,0,0,1,.14.64,1.32,1.32,0,0,1-.27.81,1.34,1.34,0,0,1-.7.49v0a1.44,1.44,0,0,1,.48.17,1.42,1.42,0,0,1,.37.32,1.47,1.47,0,0,1,.23.43,1.69,1.69,0,0,1,.08.5,1.58,1.58,0,0,1-.15.71,1.49,1.49,0,0,1-.41.51,1.73,1.73,0,0,1-.6.32,2.34,2.34,0,0,1-.71.1,2.15,2.15,0,0,1-1.13-.28,1.65,1.65,0,0,1-.7-.91l.68-.23a1.18,1.18,0,0,0,.41.65,1.49,1.49,0,0,0,1.18.12,1.28,1.28,0,0,0,.37-.23,1.48,1.48,0,0,0,.25-.35,1.14,1.14,0,0,0,.09-.46,1,1,0,0,0-.13-.52,1,1,0,0,0-.32-.34,1.7,1.7,0,0,0-.46-.18,3.05,3.05,0,0,0-.52,0h-.21Z"/><path d="M156.57,212.75a7.07,7.07,0,0,1,.08-1,3,3,0,0,1,.3-.95,2.07,2.07,0,0,1,.58-.7,1.84,1.84,0,0,1,1.92,0,2.07,2.07,0,0,1,.58.7,3,3,0,0,1,.3.95,7.07,7.07,0,0,1,.08,1,7,7,0,0,1-.08,1,2.86,2.86,0,0,1-.3.95,2,2,0,0,1-.58.71,1.84,1.84,0,0,1-1.92,0,2,2,0,0,1-.58-.71,2.86,2.86,0,0,1-.3-.95A7,7,0,0,1,156.57,212.75Zm.67,0c0,.14,0,.3,0,.47a4.43,4.43,0,0,0,.06.51,2.72,2.72,0,0,0,.13.51,1.51,1.51,0,0,0,.22.44,1.12,1.12,0,0,0,.34.31,1.1,1.1,0,0,0,1,0,1.12,1.12,0,0,0,.34-.31,1.51,1.51,0,0,0,.22-.44,2.72,2.72,0,0,0,.13-.51,4.43,4.43,0,0,0,.06-.51c0-.17,0-.33,0-.47s0-.29,0-.46a4.88,4.88,0,0,0-.06-.52,3.18,3.18,0,0,0-.13-.51,1.45,1.45,0,0,0-.22-.43,1,1,0,0,0-.34-.31,1,1,0,0,0-1,0,1,1,0,0,0-.34.31,1.45,1.45,0,0,0-.22.43,3.18,3.18,0,0,0-.13.51,4.88,4.88,0,0,0-.06.52C157.25,212.46,157.24,212.61,157.24,212.75Z"/><path d="M161,212.75a7.07,7.07,0,0,1,.08-1,3.28,3.28,0,0,1,.29-.95,2.1,2.1,0,0,1,.59-.7,1.6,1.6,0,0,1,1-.27,1.55,1.55,0,0,1,.95.27,2,2,0,0,1,.59.7,3,3,0,0,1,.3.95,7.07,7.07,0,0,1,.08,1,7,7,0,0,1-.08,1,2.86,2.86,0,0,1-.3.95,1.94,1.94,0,0,1-.59.71,1.55,1.55,0,0,1-.95.27,1.6,1.6,0,0,1-1-.27,2,2,0,0,1-.59-.71,3.1,3.1,0,0,1-.29-.95A7,7,0,0,1,161,212.75Zm.67,0c0,.14,0,.3,0,.47a4.43,4.43,0,0,0,.06.51,3.81,3.81,0,0,0,.12.51,1.83,1.83,0,0,0,.23.44,1.12,1.12,0,0,0,.34.31.9.9,0,0,0,.48.11.92.92,0,0,0,.48-.11,1.12,1.12,0,0,0,.34-.31,1.51,1.51,0,0,0,.22-.44,2.72,2.72,0,0,0,.13-.51,4.43,4.43,0,0,0,.06-.51c0-.17,0-.33,0-.47s0-.29,0-.46a4.88,4.88,0,0,0-.06-.52,3.18,3.18,0,0,0-.13-.51,1.45,1.45,0,0,0-.22-.43,1,1,0,0,0-.34-.31.92.92,0,0,0-.48-.12.9.9,0,0,0-.48.12,1,1,0,0,0-.34.31,1.76,1.76,0,0,0-.23.43,4.7,4.7,0,0,0-.12.51,4.88,4.88,0,0,0-.06.52C161.7,212.46,161.69,212.61,161.69,212.75Z"/><circle class="cls-4" cx="150.22" cy="137.36" r="94.93"/><line class="cls-4" x1="55.29" y1="137.42" x2="245.2" y2="137.42"/><line class="cls-4" x1="150.22" y1="232.35" x2="150.22" y2="42.43"/><line class="cls-4" x1="95.46" y1="42.43" x2="205.03" y2="232.35"/><line class="cls-4" x1="95.46" y1="232.35" x2="205.03" y2="42.43"/><line class="cls-4" x1="55.29" y1="82.61" x2="245.2" y2="192.17"/><line class="cls-4" x1="55.29" y1="192.17" x2="245.2" y2="82.61"/><line class="cls-1" x1="150.22" y1="220.52" x2="151.68" y2="220.96"/><line class="cls-1" x1="151.68" y1="220.96" x2="153.19" y2="221.87"/><line class="cls-1" x1="153.19" y1="221.87" x2="154.75" y2="224.2"/><line class="cls-1" x1="154.75" y1="224.2" x2="156.48" y2="226.68"/><line class="cls-1" x1="156.48" y1="226.68" x2="158.05" y2="226.57"/><line class="cls-1" x1="158.05" y1="226.57" x2="159.51" y2="225.92"/><line class="cls-1" x1="159.51" y1="225.92" x2="161.02" y2="225.11"/><line class="cls-1" x1="161.02" y1="225.11" x2="162.48" y2="224.74"/><line class="cls-1" x1="162.48" y1="224.74" x2="164.04" y2="224.52"/><line class="cls-1" x1="164.04" y1="224.52" x2="165.55" y2="224.41"/><line class="cls-1" x1="165.55" y1="224.41" x2="167.07" y2="224.09"/><line class="cls-1" x1="167.07" y1="224.09" x2="168.58" y2="223.82"/><line class="cls-1" x1="168.58" y1="223.82" x2="170.09" y2="223.39"/><line class="cls-1" x1="170.09" y1="223.39" x2="171.6" y2="223.06"/><line class="cls-1" x1="171.6" y1="223.06" x2="173.01" y2="222.41"/><line class="cls-1" x1="173.01" y1="222.41" x2="174.19" y2="221.06"/><line class="cls-1" x1="174.19" y1="221.06" x2="175.49" y2="220.09"/><line class="cls-1" x1="175.49" y1="220.09" x2="176.89" y2="219.44"/><line class="cls-1" x1="176.89" y1="219.44" x2="177.97" y2="218.04"/><line class="cls-1" x1="177.97" y1="218.04" x2="179.27" y2="217.18"/><line class="cls-1" x1="179.27" y1="217.18" x2="180.62" y2="216.58"/><line class="cls-1" x1="180.62" y1="216.58" x2="182.13" y2="216.31"/><line class="cls-1" x1="182.13" y1="216.31" x2="183.59" y2="215.93"/><line class="cls-1" x1="183.59" y1="215.93" x2="184.99" y2="215.45"/><line class="cls-1" x1="184.99" y1="215.45" x2="186.29" y2="214.75"/><line class="cls-1" x1="186.29" y1="214.75" x2="187.59" y2="213.99"/><line class="cls-1" x1="187.59" y1="213.99" x2="188.83" y2="213.13"/><line class="cls-1" x1="188.83" y1="213.13" x2="190.07" y2="212.32"/><line class="cls-1" x1="190.07" y1="212.32" x2="191.31" y2="211.51"/><line class="cls-1" x1="191.31" y1="211.51" x2="192.12" y2="209.94"/><line class="cls-1" x1="192.12" y1="209.94" x2="192.88" y2="208.32"/><line class="cls-1" x1="192.88" y1="208.32" x2="193.47" y2="206.65"/><line class="cls-1" x1="193.47" y1="206.65" x2="194.01" y2="204.81"/><line class="cls-1" x1="194.01" y1="204.81" x2="194.44" y2="202.92"/><line class="cls-1" x1="194.44" y1="202.92" x2="194.77" y2="200.98"/><line class="cls-1" x1="194.77" y1="200.98" x2="194.93" y2="198.92"/><line class="cls-1" x1="194.93" y1="198.92" x2="195.04" y2="196.82"/><line class="cls-1" x1="195.04" y1="196.82" x2="194.98" y2="194.66"/><line class="cls-1" x1="194.98" y1="194.66" x2="194.82" y2="192.44"/><line class="cls-1" x1="194.82" y1="192.44" x2="194.5" y2="190.12"/><line class="cls-1" x1="194.5" y1="190.12" x2="194.07" y2="187.8"/><line class="cls-1" x1="194.07" y1="187.8" x2="193.53" y2="185.42"/><line class="cls-1" x1="193.53" y1="185.42" x2="192.82" y2="183.05"/><line class="cls-1" x1="192.82" y1="183.05" x2="192.07" y2="180.73"/><line class="cls-1" x1="192.07" y1="180.73" x2="191.2" y2="178.35"/><line class="cls-1" x1="191.2" y1="178.35" x2="190.23" y2="175.97"/><line class="cls-1" x1="190.23" y1="175.97" x2="189.15" y2="173.65"/><line class="cls-1" x1="189.15" y1="173.65" x2="188.02" y2="171.38"/><line class="cls-1" x1="188.02" y1="171.38" x2="186.83" y2="169.17"/><line class="cls-1" x1="186.83" y1="169.17" x2="185.59" y2="167.01"/><line class="cls-1" x1="185.59" y1="167.01" x2="184.29" y2="164.96"/><line class="cls-1" x1="184.29" y1="164.96" x2="183.05" y2="163.01"/><line class="cls-1" x1="183.05" y1="163.01" x2="181.75" y2="161.12"/><line class="cls-1" x1="181.75" y1="161.12" x2="180.51" y2="159.4"/><line class="cls-1" x1="180.51" y1="159.4" x2="179.27" y2="157.67"/><line class="cls-1" x1="179.27" y1="157.67" x2="178.08" y2="156.16"/><line class="cls-1" x1="178.08" y1="156.16" x2="176.89" y2="154.7"/><line class="cls-1" x1="176.89" y1="154.7" x2="175.81" y2="153.35"/><line class="cls-1" x1="175.81" y1="153.35" x2="174.68" y2="152.05"/><line class="cls-1" x1="174.68" y1="152.05" x2="173.6" y2="150.86"/><line class="cls-1" x1="173.6" y1="150.86" x2="172.52" y2="149.73"/><line class="cls-1" x1="172.52" y1="149.73" x2="171.55" y2="148.7"/><line class="cls-1" x1="171.55" y1="148.7" x2="170.58" y2="147.73"/><line class="cls-1" x1="170.58" y1="147.73" x2="169.66" y2="146.81"/><line class="cls-1" x1="169.66" y1="146.81" x2="168.69" y2="145.95"/><line class="cls-1" x1="168.69" y1="145.95" x2="167.77" y2="145.19"/><line class="cls-1" x1="167.77" y1="145.19" x2="166.85" y2="144.44"/><line class="cls-1" x1="166.85" y1="144.44" x2="165.99" y2="143.74"/><line class="cls-1" x1="165.99" y1="143.74" x2="165.07" y2="143.09"/><line class="cls-1" x1="165.07" y1="143.09" x2="164.2" y2="142.44"/><line class="cls-1" x1="164.2" y1="142.44" x2="163.29" y2="141.85"/><line class="cls-1" x1="163.29" y1="141.85" x2="162.42" y2="141.36"/><line class="cls-1" x1="162.42" y1="141.36" x2="161.56" y2="140.82"/><line class="cls-1" x1="161.56" y1="140.82" x2="160.69" y2="140.39"/><line class="cls-1" x1="160.69" y1="140.39" x2="159.83" y2="139.96"/><line class="cls-1" x1="159.83" y1="139.96" x2="159.02" y2="139.58"/><line class="cls-1" x1="159.02" y1="139.58" x2="158.21" y2="139.2"/><line class="cls-1" x1="158.21" y1="139.2" x2="157.51" y2="138.93"/><line class="cls-1" x1="157.51" y1="138.93" x2="156.7" y2="138.61"/><line class="cls-1" x1="156.7" y1="138.61" x2="155.89" y2="138.39"/><line class="cls-1" x1="155.89" y1="138.39" x2="155.13" y2="138.12"/><line class="cls-1" x1="155.13" y1="138.12" x2="154.43" y2="137.96"/><line class="cls-1" x1="154.43" y1="137.96" x2="153.78" y2="137.8"/><line class="cls-1" x1="153.78" y1="137.8" x2="153.19" y2="137.69"/><line class="cls-1" x1="153.19" y1="137.69" x2="152.7" y2="137.58"/><line class="cls-1" x1="152.7" y1="137.58" x2="152.27" y2="137.53"/><line class="cls-1" x1="152.27" y1="137.53" x2="151.95" y2="137.47"/><line class="cls-1" x1="151.95" y1="137.47" x2="151.68" y2="137.42"/><line class="cls-1" x1="151.68" y1="137.42" x2="151.41" y2="137.42"/><line class="cls-1" x1="151.41" y1="137.42" x2="151.24" y2="137.42"/><line class="cls-1" x1="151.24" y1="137.42" x2="151.08" y2="137.42"/><line class="cls-1" x1="151.08" y1="137.42" x2="151.03" y2="137.36"/><line class="cls-1" x1="151.03" y1="137.36" x2="150.97" y2="137.36"/><line class="cls-1" x1="150.97" y1="137.36" x2="150.92" y2="137.36"/><line class="cls-1" x1="150.92" y1="137.36" x2="150.87" y2="137.36"/><line class="cls-1" x1="150.87" y1="137.36" x2="150.81" y2="137.36"/><line class="cls-1" x1="150.81" y1="137.36" x2="150.81" y2="137.36"/><line class="cls-1" x1="150.81" y1="137.36" x2="150.81" y2="137.31"/><line class="cls-1" x1="150.81" y1="137.31" x2="150.81" y2="137.31"/><line class="cls-1" x1="150.81" y1="137.31" x2="150.81" y2="137.31"/><line class="cls-1" x1="150.81" y1="137.31" x2="150.81" y2="137.31"/><line class="cls-1" x1="150.81" y1="137.31" x2="150.81" y2="137.31"/><line class="cls-1" x1="150.81" y1="137.31" x2="150.87" y2="137.26"/><line class="cls-1" x1="150.87" y1="137.26" x2="150.87" y2="137.26"/><line class="cls-1" x1="150.87" y1="137.26" x2="150.87" y2="137.26"/><line class="cls-1" x1="150.87" y1="137.26" x2="150.87" y2="137.2"/><line class="cls-1" x1="150.87" y1="137.2" x2="150.87" y2="137.2"/><line class="cls-1" x1="150.87" y1="137.2" x2="150.92" y2="137.2"/><line class="cls-1" x1="150.92" y1="137.2" x2="150.92" y2="137.2"/><line class="cls-1" x1="150.92" y1="137.2" x2="150.92" y2="137.15"/><line class="cls-1" x1="150.92" y1="137.15" x2="150.92" y2="137.15"/><line class="cls-1" x1="150.92" y1="137.15" x2="150.92" y2="137.15"/><line class="cls-1" x1="150.92" y1="137.15" x2="150.97" y2="137.09"/><line class="cls-1" x1="150.97" y1="137.09" x2="150.97" y2="137.09"/><line class="cls-1" x1="150.97" y1="137.09" x2="150.97" y2="137.04"/><line class="cls-1" x1="150.97" y1="137.04" x2="150.97" y2="137.04"/><line class="cls-1" x1="150.97" y1="137.04" x2="150.97" y2="137.04"/><line class="cls-1" x1="150.97" y1="137.04" x2="150.97" y2="136.99"/><line class="cls-1" x1="150.97" y1="136.99" x2="150.97" y2="136.99"/><line class="cls-1" x1="150.97" y1="136.99" x2="150.97" y2="136.99"/><line class="cls-1" x1="150.97" y1="136.99" x2="150.97" y2="136.93"/><line class="cls-1" x1="150.97" y1="136.93" x2="151.03" y2="136.93"/><line class="cls-1" x1="151.03" y1="136.93" x2="151.03" y2="136.88"/><line class="cls-1" x1="151.03" y1="136.88" x2="151.03" y2="136.88"/><line class="cls-1" x1="151.03" y1="136.88" x2="151.03" y2="136.82"/><line class="cls-1" x1="151.03" y1="136.82" x2="151.03" y2="136.82"/><line class="cls-1" x1="151.03" y1="136.82" x2="151.08" y2="136.77"/><line class="cls-1" x1="151.08" y1="136.77" x2="151.08" y2="136.77"/><line class="cls-1" x1="151.08" y1="136.77" x2="151.08" y2="136.72"/><line class="cls-1" x1="151.08" y1="136.72" x2="151.08" y2="136.72"/><line class="cls-1" x1="151.08" y1="136.72" x2="151.08" y2="136.66"/><line class="cls-1" x1="151.08" y1="136.66" x2="151.08" y2="136.61"/><line class="cls-1" x1="151.08" y1="136.61" x2="151.08" y2="136.61"/><line class="cls-1" x1="151.08" y1="136.61" x2="151.08" y2="136.55"/><line class="cls-1" x1="151.08" y1="136.55" x2="151.08" y2="136.55"/><line class="cls-1" x1="151.08" y1="136.55" x2="151.08" y2="136.5"/><line class="cls-1" x1="151.08" y1="136.5" x2="151.08" y2="136.5"/><line class="cls-1" x1="151.08" y1="136.5" x2="151.08" y2="136.45"/><line class="cls-1" x1="151.08" y1="136.45" x2="151.08" y2="136.45"/><line class="cls-1" x1="151.08" y1="136.45" x2="151.08" y2="136.39"/><line class="cls-1" x1="151.08" y1="136.39" x2="151.08" y2="136.34"/><line class="cls-1" x1="151.08" y1="136.34" x2="151.08" y2="136.34"/><line class="cls-1" x1="151.08" y1="136.34" x2="151.03" y2="136.34"/><line class="cls-1" x1="151.03" y1="136.34" x2="151.03" y2="136.28"/><line class="cls-1" x1="151.03" y1="136.28" x2="151.03" y2="136.28"/><line class="cls-1" x1="151.03" y1="136.28" x2="151.03" y2="136.23"/><line class="cls-1" x1="151.03" y1="136.23" x2="150.97" y2="136.23"/><line class="cls-1" x1="150.97" y1="136.23" x2="150.97" y2="136.23"/><line class="cls-1" x1="150.97" y1="136.23" x2="150.92" y2="136.23"/><line class="cls-1" x1="150.92" y1="136.23" x2="150.92" y2="136.23"/><line class="cls-1" x1="150.92" y1="136.23" x2="150.92" y2="136.18"/><line class="cls-1" x1="150.92" y1="136.18" x2="150.87" y2="136.18"/><line class="cls-1" x1="150.87" y1="136.18" x2="150.87" y2="136.18"/><line class="cls-1" x1="150.87" y1="136.18" x2="150.81" y2="136.18"/><line class="cls-1" x1="150.81" y1="136.18" x2="150.76" y2="136.23"/><line class="cls-1" x1="150.76" y1="136.23" x2="150.76" y2="136.23"/><line class="cls-1" x1="150.76" y1="136.23" x2="150.7" y2="136.28"/><line class="cls-1" x1="150.7" y1="136.28" x2="150.65" y2="136.28"/><line class="cls-1" x1="150.65" y1="136.28" x2="150.65" y2="136.34"/><line class="cls-1" x1="150.65" y1="136.34" x2="150.6" y2="136.34"/><line class="cls-1" x1="150.6" y1="136.34" x2="150.6" y2="136.34"/><line class="cls-1" x1="150.6" y1="136.34" x2="150.54" y2="136.39"/><line class="cls-1" x1="150.54" y1="136.39" x2="150.54" y2="136.39"/><line class="cls-1" x1="150.54" y1="136.39" x2="150.49" y2="136.39"/><line class="cls-1" x1="150.49" y1="136.39" x2="150.49" y2="136.39"/><line class="cls-1" x1="150.49" y1="136.39" x2="150.49" y2="136.39"/><line class="cls-1" x1="150.49" y1="136.39" x2="150.43" y2="136.45"/><line class="cls-1" x1="150.43" y1="136.45" x2="150.43" y2="136.45"/><line class="cls-1" x1="150.43" y1="136.45" x2="150.43" y2="136.45"/><line class="cls-1" x1="150.43" y1="136.45" x2="150.38" y2="136.45"/><line class="cls-1" x1="150.38" y1="136.45" x2="150.38" y2="136.45"/><line class="cls-1" x1="150.38" y1="136.45" x2="150.38" y2="136.45"/><line class="cls-1" x1="150.38" y1="136.45" x2="150.33" y2="136.45"/><line class="cls-1" x1="150.33" y1="136.45" x2="150.33" y2="136.45"/><line class="cls-1" x1="150.33" y1="136.45" x2="150.33" y2="136.45"/><line class="cls-1" x1="150.33" y1="136.45" x2="150.27" y2="136.45"/><line class="cls-1" x1="150.27" y1="136.45" x2="150.27" y2="136.45"/><line class="cls-1" x1="150.27" y1="136.45" x2="150.27" y2="136.45"/><line class="cls-1" x1="150.27" y1="136.45" x2="150.22" y2="136.45"/><line class="cls-1" x1="150.22" y1="136.45" x2="150.22" y2="136.45"/><line class="cls-1" x1="150.22" y1="220.52" x2="148.81" y2="220.96"/><line class="cls-1" x1="148.81" y1="220.96" x2="147.3" y2="221.87"/><line class="cls-1" x1="147.3" y1="221.87" x2="145.74" y2="224.2"/><line class="cls-1" x1="145.74" y1="224.2" x2="144.01" y2="226.68"/><line class="cls-1" x1="144.01" y1="226.68" x2="142.44" y2="226.57"/><line class="cls-1" x1="142.44" y1="226.57" x2="140.98" y2="225.92"/><line class="cls-1" x1="140.98" y1="225.92" x2="139.47" y2="225.11"/><line class="cls-1" x1="139.47" y1="225.11" x2="138.01" y2="224.74"/><line class="cls-1" x1="138.01" y1="224.74" x2="136.45" y2="224.52"/><line class="cls-1" x1="136.45" y1="224.52" x2="134.94" y2="224.41"/><line class="cls-1" x1="134.94" y1="224.41" x2="133.42" y2="224.09"/><line class="cls-1" x1="133.42" y1="224.09" x2="131.91" y2="223.82"/><line class="cls-1" x1="131.91" y1="223.82" x2="130.4" y2="223.39"/><line class="cls-1" x1="130.4" y1="223.39" x2="128.89" y2="223.06"/><line class="cls-1" x1="128.89" y1="223.06" x2="127.48" y2="222.41"/><line class="cls-1" x1="127.48" y1="222.41" x2="126.3" y2="221.06"/><line class="cls-1" x1="126.3" y1="221.06" x2="125" y2="220.09"/><line class="cls-1" x1="125" y1="220.09" x2="123.6" y2="219.44"/><line class="cls-1" x1="123.6" y1="219.44" x2="122.52" y2="218.04"/><line class="cls-1" x1="122.52" y1="218.04" x2="121.22" y2="217.18"/><line class="cls-1" x1="121.22" y1="217.18" x2="119.87" y2="216.58"/><line class="cls-1" x1="119.87" y1="216.58" x2="118.36" y2="216.31"/><line class="cls-1" x1="118.36" y1="216.31" x2="116.9" y2="215.93"/><line class="cls-1" x1="116.9" y1="215.93" x2="115.5" y2="215.45"/><line class="cls-1" x1="115.5" y1="215.45" x2="114.2" y2="214.75"/><line class="cls-1" x1="114.2" y1="214.75" x2="112.9" y2="213.99"/><line class="cls-1" x1="112.9" y1="213.99" x2="111.66" y2="213.13"/><line class="cls-1" x1="111.66" y1="213.13" x2="110.42" y2="212.32"/><line class="cls-1" x1="110.42" y1="212.32" x2="109.18" y2="211.51"/><line class="cls-1" x1="109.18" y1="211.51" x2="108.37" y2="209.94"/><line class="cls-1" x1="108.37" y1="209.94" x2="107.61" y2="208.32"/><line class="cls-1" x1="107.61" y1="208.32" x2="107.02" y2="206.65"/><line class="cls-1" x1="107.02" y1="206.65" x2="106.48" y2="204.81"/><line class="cls-1" x1="106.48" y1="204.81" x2="106.05" y2="202.92"/><line class="cls-1" x1="106.05" y1="202.92" x2="105.72" y2="200.98"/><line class="cls-1" x1="105.72" y1="200.98" x2="105.56" y2="198.92"/><line class="cls-1" x1="105.56" y1="198.92" x2="105.45" y2="196.82"/><line class="cls-1" x1="105.45" y1="196.82" x2="105.51" y2="194.66"/><line class="cls-1" x1="105.51" y1="194.66" x2="105.67" y2="192.44"/><line class="cls-1" x1="105.67" y1="192.44" x2="105.99" y2="190.12"/><line class="cls-1" x1="105.99" y1="190.12" x2="106.42" y2="187.8"/><line class="cls-1" x1="106.42" y1="187.8" x2="106.96" y2="185.42"/><line class="cls-1" x1="106.96" y1="185.42" x2="107.67" y2="183.05"/><line class="cls-1" x1="107.67" y1="183.05" x2="108.42" y2="180.73"/><line class="cls-1" x1="108.42" y1="180.73" x2="109.29" y2="178.35"/><line class="cls-1" x1="109.29" y1="178.35" x2="110.26" y2="175.97"/><line class="cls-1" x1="110.26" y1="175.97" x2="111.34" y2="173.65"/><line class="cls-1" x1="111.34" y1="173.65" x2="112.47" y2="171.38"/><line class="cls-1" x1="112.47" y1="171.38" x2="113.66" y2="169.17"/><line class="cls-1" x1="113.66" y1="169.17" x2="114.9" y2="167.01"/><line class="cls-1" x1="114.9" y1="167.01" x2="116.2" y2="164.96"/><line class="cls-1" x1="116.2" y1="164.96" x2="117.44" y2="163.01"/><line class="cls-1" x1="117.44" y1="163.01" x2="118.74" y2="161.12"/><line class="cls-1" x1="118.74" y1="161.12" x2="119.98" y2="159.4"/><line class="cls-1" x1="119.98" y1="159.4" x2="121.22" y2="157.67"/><line class="cls-1" x1="121.22" y1="157.67" x2="122.41" y2="156.16"/><line class="cls-1" x1="122.41" y1="156.16" x2="123.6" y2="154.7"/><line class="cls-1" x1="123.6" y1="154.7" x2="124.68" y2="153.35"/><line class="cls-1" x1="124.68" y1="153.35" x2="125.81" y2="152.05"/><line class="cls-1" x1="125.81" y1="152.05" x2="126.89" y2="150.86"/><line class="cls-1" x1="126.89" y1="150.86" x2="127.97" y2="149.73"/><line class="cls-1" x1="127.97" y1="149.73" x2="128.94" y2="148.7"/><line class="cls-1" x1="128.94" y1="148.7" x2="129.91" y2="147.73"/><line class="cls-1" x1="129.91" y1="147.73" x2="130.83" y2="146.81"/><line class="cls-1" x1="130.83" y1="146.81" x2="131.8" y2="145.95"/><line class="cls-1" x1="131.8" y1="145.95" x2="132.72" y2="145.19"/><line class="cls-1" x1="132.72" y1="145.19" x2="133.64" y2="144.44"/><line class="cls-1" x1="133.64" y1="144.44" x2="134.5" y2="143.74"/><line class="cls-1" x1="134.5" y1="143.74" x2="135.42" y2="143.09"/><line class="cls-1" x1="135.42" y1="143.09" x2="136.29" y2="142.44"/><line class="cls-1" x1="136.29" y1="142.44" x2="137.2" y2="141.85"/><line class="cls-1" x1="137.2" y1="141.85" x2="138.07" y2="141.36"/><line class="cls-1" x1="138.07" y1="141.36" x2="138.93" y2="140.82"/><line class="cls-1" x1="138.93" y1="140.82" x2="139.8" y2="140.39"/><line class="cls-1" x1="139.8" y1="140.39" x2="140.66" y2="139.96"/><line class="cls-1" x1="140.66" y1="139.96" x2="141.47" y2="139.58"/><line class="cls-1" x1="141.47" y1="139.58" x2="142.28" y2="139.2"/><line class="cls-1" x1="142.28" y1="139.2" x2="142.98" y2="138.93"/><line class="cls-1" x1="142.98" y1="138.93" x2="143.79" y2="138.61"/><line class="cls-1" x1="143.79" y1="138.61" x2="144.6" y2="138.39"/><line class="cls-1" x1="144.6" y1="138.39" x2="145.36" y2="138.12"/><line class="cls-1" x1="145.36" y1="138.12" x2="146.06" y2="137.96"/><line class="cls-1" x1="146.06" y1="137.96" x2="146.71" y2="137.8"/><line class="cls-1" x1="146.71" y1="137.8" x2="147.3" y2="137.69"/><line class="cls-1" x1="147.3" y1="137.69" x2="147.79" y2="137.58"/><line class="cls-1" x1="147.79" y1="137.58" x2="148.22" y2="137.53"/><line class="cls-1" x1="148.22" y1="137.53" x2="148.54" y2="137.47"/><line class="cls-1" x1="148.54" y1="137.47" x2="148.81" y2="137.42"/><line class="cls-1" x1="148.81" y1="137.42" x2="149.08" y2="137.42"/><line class="cls-1" x1="149.08" y1="137.42" x2="149.25" y2="137.42"/><line class="cls-1" x1="149.25" y1="137.42" x2="149.41" y2="137.42"/><line class="cls-1" x1="149.41" y1="137.42" x2="149.46" y2="137.36"/><line class="cls-1" x1="149.46" y1="137.36" x2="149.52" y2="137.36"/><line class="cls-1" x1="149.52" y1="137.36" x2="149.57" y2="137.36"/><line class="cls-1" x1="149.57" y1="137.36" x2="149.62" y2="137.36"/><line class="cls-1" x1="149.62" y1="137.36" x2="149.68" y2="137.36"/><line class="cls-1" x1="149.68" y1="137.36" x2="149.68" y2="137.36"/><line class="cls-1" x1="149.68" y1="137.36" x2="149.68" y2="137.31"/><line class="cls-1" x1="149.68" y1="137.31" x2="149.68" y2="137.31"/><line class="cls-1" x1="149.68" y1="137.31" x2="149.68" y2="137.31"/><line class="cls-1" x1="149.68" y1="137.31" x2="149.68" y2="137.31"/><line class="cls-1" x1="149.68" y1="137.31" x2="149.68" y2="137.31"/><line class="cls-1" x1="149.68" y1="137.31" x2="149.62" y2="137.26"/><line class="cls-1" x1="149.62" y1="137.26" x2="149.62" y2="137.26"/><line class="cls-1" x1="149.62" y1="137.26" x2="149.62" y2="137.26"/><line class="cls-1" x1="149.62" y1="137.26" x2="149.62" y2="137.2"/><line class="cls-1" x1="149.62" y1="137.2" x2="149.62" y2="137.2"/><line class="cls-1" x1="149.62" y1="137.2" x2="149.57" y2="137.2"/><line class="cls-1" x1="149.57" y1="137.2" x2="149.57" y2="137.2"/><line class="cls-1" x1="149.57" y1="137.2" x2="149.57" y2="137.15"/><line class="cls-1" x1="149.57" y1="137.15" x2="149.57" y2="137.15"/><line class="cls-1" x1="149.57" y1="137.15" x2="149.57" y2="137.15"/><line class="cls-1" x1="149.57" y1="137.15" x2="149.52" y2="137.09"/><line class="cls-1" x1="149.52" y1="137.09" x2="149.52" y2="137.09"/><line class="cls-1" x1="149.52" y1="137.09" x2="149.52" y2="137.04"/><line class="cls-1" x1="149.52" y1="137.04" x2="149.52" y2="137.04"/><line class="cls-1" x1="149.52" y1="137.04" x2="149.52" y2="137.04"/><line class="cls-1" x1="149.52" y1="137.04" x2="149.52" y2="136.99"/><line class="cls-1" x1="149.52" y1="136.99" x2="149.52" y2="136.99"/><line class="cls-1" x1="149.52" y1="136.99" x2="149.52" y2="136.99"/><line class="cls-1" x1="149.52" y1="136.99" x2="149.52" y2="136.93"/><line class="cls-1" x1="149.52" y1="136.93" x2="149.46" y2="136.93"/><line class="cls-1" x1="149.46" y1="136.93" x2="149.46" y2="136.88"/><line class="cls-1" x1="149.46" y1="136.88" x2="149.46" y2="136.88"/><line class="cls-1" x1="149.46" y1="136.88" x2="149.46" y2="136.82"/><line class="cls-1" x1="149.46" y1="136.82" x2="149.46" y2="136.82"/><line class="cls-1" x1="149.46" y1="136.82" x2="149.41" y2="136.77"/><line class="cls-1" x1="149.41" y1="136.77" x2="149.41" y2="136.77"/><line class="cls-1" x1="149.41" y1="136.77" x2="149.41" y2="136.72"/><line class="cls-1" x1="149.41" y1="136.72" x2="149.41" y2="136.72"/><line class="cls-1" x1="149.41" y1="136.72" x2="149.41" y2="136.66"/><line class="cls-1" x1="149.41" y1="136.66" x2="149.41" y2="136.61"/><line class="cls-1" x1="149.41" y1="136.61" x2="149.41" y2="136.61"/><line class="cls-1" x1="149.41" y1="136.61" x2="149.41" y2="136.55"/><line class="cls-1" x1="149.41" y1="136.55" x2="149.41" y2="136.55"/><line class="cls-1" x1="149.41" y1="136.55" x2="149.41" y2="136.5"/><line class="cls-1" x1="149.41" y1="136.5" x2="149.41" y2="136.5"/><line class="cls-1" x1="149.41" y1="136.5" x2="149.41" y2="136.45"/><line class="cls-1" x1="149.41" y1="136.45" x2="149.41" y2="136.45"/><line class="cls-1" x1="149.41" y1="136.45" x2="149.41" y2="136.39"/><line class="cls-1" x1="149.41" y1="136.39" x2="149.41" y2="136.34"/><line class="cls-1" x1="149.41" y1="136.34" x2="149.41" y2="136.34"/><line class="cls-1" x1="149.41" y1="136.34" x2="149.46" y2="136.34"/><line class="cls-1" x1="149.46" y1="136.34" x2="149.46" y2="136.28"/><line class="cls-1" x1="149.46" y1="136.28" x2="149.46" y2="136.28"/><line class="cls-1" x1="149.46" y1="136.28" x2="149.46" y2="136.23"/><line class="cls-1" x1="149.46" y1="136.23" x2="149.52" y2="136.23"/><line class="cls-1" x1="149.52" y1="136.23" x2="149.52" y2="136.23"/><line class="cls-1" x1="149.52" y1="136.23" x2="149.57" y2="136.23"/><line class="cls-1" x1="149.57" y1="136.23" x2="149.57" y2="136.23"/><line class="cls-1" x1="149.57" y1="136.23" x2="149.57" y2="136.18"/><line class="cls-1" x1="149.57" y1="136.18" x2="149.62" y2="136.18"/><line class="cls-1" x1="149.62" y1="136.18" x2="149.62" y2="136.18"/><line class="cls-1" x1="149.62" y1="136.18" x2="149.68" y2="136.18"/><line class="cls-1" x1="149.68" y1="136.18" x2="149.73" y2="136.23"/><line class="cls-1" x1="149.73" y1="136.23" x2="149.73" y2="136.23"/><line class="cls-1" x1="149.73" y1="136.23" x2="149.79" y2="136.28"/><line class="cls-1" x1="149.79" y1="136.28" x2="149.84" y2="136.28"/><line class="cls-1" x1="149.84" y1="136.28" x2="149.84" y2="136.34"/><line class="cls-1" x1="149.84" y1="136.34" x2="149.89" y2="136.34"/><line class="cls-1" x1="149.89" y1="136.34" x2="149.89" y2="136.34"/><line class="cls-1" x1="149.89" y1="136.34" x2="149.95" y2="136.39"/><line class="cls-1" x1="149.95" y1="136.39" x2="149.95" y2="136.39"/><line class="cls-1" x1="149.95" y1="136.39" x2="150" y2="136.39"/><line class="cls-1" x1="150" y1="136.39" x2="150" y2="136.39"/><line class="cls-1" x1="150" y1="136.39" x2="150" y2="136.39"/><line class="cls-1" x1="150" y1="136.39" x2="150.06" y2="136.45"/><line class="cls-1" x1="150.06" y1="136.45" x2="150.06" y2="136.45"/><line class="cls-1" x1="150.06" y1="136.45" x2="150.06" y2="136.45"/><line class="cls-1" x1="150.06" y1="136.45" x2="150.11" y2="136.45"/><line class="cls-1" x1="150.11" y1="136.45" x2="150.11" y2="136.45"/><line class="cls-1" x1="150.11" y1="136.45" x2="150.11" y2="136.45"/><line class="cls-1" x1="150.11" y1="136.45" x2="150.16" y2="136.45"/><line class="cls-1" x1="150.16" y1="136.45" x2="150.16" y2="136.45"/><line class="cls-1" x1="150.16" y1="136.45" x2="150.16" y2="136.45"/><line class="cls-1" x1="150.16" y1="136.45" x2="150.22" y2="136.45"/><line class="cls-1" x1="150.22" y1="136.45" x2="150.22" y2="136.45"/><line class="cls-1" x1="150.22" y1="136.45" x2="150.22" y2="136.45"/><line class="cls-1" x1="150.22" y1="136.45" x2="150.22" y2="136.45"/><line class="cls-1" x1="150.22" y1="136.45" x2="150.22" y2="136.45"/><line class="cls-1" x1="150.22" y1="220.52" x2="150.43" y2="220.58"/><line class="cls-1" x1="151.62" y1="220.96" x2="151.68" y2="220.96"/><line class="cls-1" x1="151.68" y1="220.96" x2="151.84" y2="221.06"/><line class="cls-1" x1="152.92" y1="221.71" x2="153.13" y2="221.82"/><line class="cls-1" x1="153.89" y1="222.9" x2="154.05" y2="223.12"/><line class="cls-1" x1="154.75" y1="224.2" x2="154.75" y2="224.2"/><line class="cls-1" x1="154.75" y1="224.2" x2="154.92" y2="224.41"/><line class="cls-1" x1="155.67" y1="225.49" x2="155.78" y2="225.71"/><line class="cls-1" x1="156.59" y1="226.68" x2="156.86" y2="226.68"/><line class="cls-1" x1="158.16" y1="226.52" x2="158.37" y2="226.41"/><line class="cls-1" x1="159.56" y1="225.87" x2="159.78" y2="225.76"/><line class="cls-1" x1="160.91" y1="225.17" x2="161.02" y2="225.11"/><line class="cls-1" x1="161.02" y1="225.11" x2="161.13" y2="225.06"/><line class="cls-1" x1="162.37" y1="224.79" x2="162.48" y2="224.74"/><line class="cls-1" x1="162.48" y1="224.74" x2="162.58" y2="224.74"/><line class="cls-1" x1="163.88" y1="224.52" x2="164.04" y2="224.52"/><line class="cls-1" x1="164.04" y1="224.52" x2="164.15" y2="224.52"/><line class="cls-1" x1="165.45" y1="224.41" x2="165.55" y2="224.41"/><line class="cls-1" x1="165.55" y1="224.41" x2="165.72" y2="224.36"/><line class="cls-1" x1="166.96" y1="224.09" x2="167.07" y2="224.09"/><line class="cls-1" x1="167.07" y1="224.09" x2="167.23" y2="224.03"/><line class="cls-1" x1="168.52" y1="223.82" x2="168.58" y2="223.82"/><line class="cls-1" x1="168.58" y1="223.82" x2="168.74" y2="223.76"/><line class="cls-1" x1="169.98" y1="223.44" x2="170.09" y2="223.39"/><line class="cls-1" x1="170.09" y1="223.39" x2="170.2" y2="223.39"/><line class="cls-1" x1="171.44" y1="223.12" x2="171.6" y2="223.06"/><line class="cls-1" x1="171.6" y1="223.06" x2="171.66" y2="223.06"/><line class="cls-1" x1="172.79" y1="222.52" x2="173.01" y2="222.41"/><line class="cls-1" x1="173.87" y1="221.44" x2="174.03" y2="221.23"/><line class="cls-1" x1="175.06" y1="220.42" x2="175.27" y2="220.25"/><line class="cls-1" x1="176.41" y1="219.66" x2="176.62" y2="219.55"/><line class="cls-1" x1="177.54" y1="218.63" x2="177.7" y2="218.42"/><line class="cls-1" x1="178.68" y1="217.55" x2="178.89" y2="217.45"/><line class="cls-1" x1="179.97" y1="216.85" x2="180.19" y2="216.8"/><line class="cls-1" x1="181.38" y1="216.42" x2="181.65" y2="216.42"/><line class="cls-1" x1="182.89" y1="216.1" x2="183.1" y2="216.04"/><line class="cls-1" x1="184.35" y1="215.66" x2="184.56" y2="215.61"/><line class="cls-1" x1="185.7" y1="215.07" x2="185.91" y2="214.96"/><line class="cls-1" x1="186.99" y1="214.31" x2="187.21" y2="214.21"/><line class="cls-1" x1="188.29" y1="213.5" x2="188.5" y2="213.34"/><line class="cls-1" x1="189.58" y1="212.64" x2="189.8" y2="212.48"/><line class="cls-1" x1="190.88" y1="211.78" x2="191.1" y2="211.67"/><line class="cls-1" x1="191.8" y1="210.59" x2="191.91" y2="210.37"/><line class="cls-1" x1="192.45" y1="209.24" x2="192.55" y2="209.02"/><line class="cls-1" x1="193.04" y1="207.89" x2="193.09" y2="207.67"/><line class="cls-1" x1="193.53" y1="206.48" x2="193.58" y2="206.27"/><line class="cls-1" x1="193.96" y1="205.08" x2="194.01" y2="204.86"/><line class="cls-1" x1="194.28" y1="203.62" x2="194.34" y2="203.41"/><line class="cls-1" x1="194.55" y1="202.16" x2="194.61" y2="201.95"/><line class="cls-1" x1="194.77" y1="200.71" x2="194.82" y2="200.49"/><line class="cls-1" x1="194.93" y1="199.19" x2="194.93" y2="198.92"/><line class="cls-1" x1="194.98" y1="197.63" x2="194.98" y2="197.36"/><line class="cls-1" x1="195.04" y1="196.06" x2="195.04" y2="195.79"/><line class="cls-1" x1="194.98" y1="194.5" x2="194.93" y2="194.28"/><line class="cls-1" x1="194.88" y1="192.98" x2="194.82" y2="192.77"/><line class="cls-1" x1="194.66" y1="191.47" x2="194.66" y2="191.2"/><line class="cls-1" x1="194.44" y1="189.96" x2="194.44" y2="189.69"/><line class="cls-1" x1="194.17" y1="188.45" x2="194.12" y2="188.23"/><line class="cls-1" x1="193.9" y1="186.99" x2="193.85" y2="186.77"/><line class="cls-1" x1="193.53" y1="185.53" x2="193.53" y2="185.42"/><line class="cls-1" x1="193.53" y1="185.42" x2="193.47" y2="185.32"/><line class="cls-1" x1="193.15" y1="184.07" x2="193.04" y2="183.86"/><line class="cls-1" x1="192.66" y1="182.62" x2="192.61" y2="182.4"/><line class="cls-1" x1="192.23" y1="181.21" x2="192.18" y2="181"/><line class="cls-1" x1="191.74" y1="179.81" x2="191.64" y2="179.59"/><line class="cls-1" x1="191.2" y1="178.4" x2="191.2" y2="178.35"/><line class="cls-1" x1="191.2" y1="178.35" x2="191.15" y2="178.19"/><line class="cls-1" x1="190.66" y1="177.05" x2="190.61" y2="176.84"/><line class="cls-1" x1="190.12" y1="175.7" x2="190.02" y2="175.49"/><line class="cls-1" x1="189.48" y1="174.35" x2="189.37" y2="174.14"/><line class="cls-1" x1="188.83" y1="173" x2="188.72" y2="172.79"/><line class="cls-1" x1="188.13" y1="171.65" x2="188.02" y2="171.44"/><line class="cls-1" x1="187.42" y1="170.3" x2="187.32" y2="170.09"/><line class="cls-1" x1="186.72" y1="168.95" x2="186.56" y2="168.74"/><line class="cls-1" x1="185.91" y1="167.6" x2="185.8" y2="167.39"/><line class="cls-1" x1="185.16" y1="166.31" x2="184.99" y2="166.09"/><line class="cls-1" x1="184.35" y1="165.01" x2="184.29" y2="164.96"/><line class="cls-1" x1="184.29" y1="164.96" x2="184.18" y2="164.8"/><line class="cls-1" x1="183.48" y1="163.72" x2="183.37" y2="163.5"/><line class="cls-1" x1="182.62" y1="162.42" x2="182.51" y2="162.2"/><line class="cls-1" x1="181.75" y1="161.12" x2="181.75" y2="161.12"/><line class="cls-1" x1="181.75" y1="161.12" x2="181.59" y2="160.91"/><line class="cls-1" x1="180.84" y1="159.88" x2="180.73" y2="159.67"/><line class="cls-1" x1="179.97" y1="158.64" x2="179.81" y2="158.42"/><line class="cls-1" x1="179.05" y1="157.4" x2="178.89" y2="157.18"/><line class="cls-1" x1="178.08" y1="156.16" x2="178.08" y2="156.16"/><line class="cls-1" x1="178.08" y1="156.16" x2="177.92" y2="155.94"/><line class="cls-1" x1="177.06" y1="154.91" x2="176.89" y2="154.7"/><line class="cls-1" x1="176.08" y1="153.67" x2="175.92" y2="153.51"/><line class="cls-1" x1="175.06" y1="152.48" x2="174.9" y2="152.32"/><line class="cls-1" x1="174.03" y1="151.35" x2="173.87" y2="151.19"/><line class="cls-1" x1="173.01" y1="150.22" x2="172.84" y2="150.05"/><line class="cls-1" x1="171.93" y1="149.08" x2="171.76" y2="148.92"/><line class="cls-1" x1="170.85" y1="148" x2="170.68" y2="147.84"/><line class="cls-1" x1="169.77" y1="146.92" x2="169.66" y2="146.81"/><line class="cls-1" x1="169.66" y1="146.81" x2="169.6" y2="146.76"/><line class="cls-1" x1="168.63" y1="145.9" x2="168.42" y2="145.73"/><line class="cls-1" x1="167.39" y1="144.87" x2="167.17" y2="144.71"/><line class="cls-1" x1="166.15" y1="143.84" x2="165.99" y2="143.74"/><line class="cls-1" x1="165.99" y1="143.74" x2="165.93" y2="143.68"/><line class="cls-1" x1="164.85" y1="142.93" x2="164.64" y2="142.76"/><line class="cls-1" x1="163.56" y1="142.01" x2="163.34" y2="141.9"/><line class="cls-1" x1="162.26" y1="141.25" x2="162.04" y2="141.14"/><line class="cls-1" x1="160.96" y1="140.5" x2="160.75" y2="140.39"/><line class="cls-1" x1="159.61" y1="139.85" x2="159.4" y2="139.74"/><line class="cls-1" x1="158.26" y1="139.2" x2="158.21" y2="139.2"/><line class="cls-1" x1="158.21" y1="139.2" x2="158.05" y2="139.15"/><line class="cls-1" x1="156.86" y1="138.66" x2="156.7" y2="138.61"/><line class="cls-1" x1="156.7" y1="138.61" x2="156.64" y2="138.61"/><line class="cls-1" x1="155.46" y1="138.23" x2="155.24" y2="138.17"/><line class="cls-1" x1="154" y1="137.85" x2="153.78" y2="137.8"/><line class="cls-1" x1="152.54" y1="137.58" x2="152.32" y2="137.53"/><line class="cls-1" x1="151.03" y1="137.36" x2="151.03" y2="137.36"/><line class="cls-1" x1="151.03" y1="137.36" x2="150.97" y2="137.36"/><line class="cls-1" x1="150.97" y1="137.36" x2="150.92" y2="137.36"/><line class="cls-1" x1="150.92" y1="137.36" x2="150.87" y2="137.36"/><line class="cls-1" x1="150.87" y1="137.36" x2="150.81" y2="137.36"/><line class="cls-1" x1="150.81" y1="137.36" x2="150.81" y2="137.36"/><line class="cls-1" x1="150.81" y1="137.36" x2="150.81" y2="137.31"/><line class="cls-1" x1="150.92" y1="136.23" x2="150.92" y2="136.23"/><line class="cls-1" x1="150.92" y1="136.23" x2="150.92" y2="136.23"/><line class="cls-1" x1="150.92" y1="136.23" x2="150.92" y2="136.18"/><line class="cls-1" x1="150.92" y1="136.18" x2="150.87" y2="136.18"/><line class="cls-1" x1="150.87" y1="136.18" x2="150.87" y2="136.18"/><line class="cls-1" x1="150.87" y1="136.18" x2="150.81" y2="136.18"/><line class="cls-1" x1="150.81" y1="136.18" x2="150.76" y2="136.23"/><line class="cls-1" x1="150.76" y1="136.23" x2="150.76" y2="136.23"/><line class="cls-1" x1="150.76" y1="136.23" x2="150.7" y2="136.28"/><line class="cls-1" x1="149.52" y1="220.74" x2="149.3" y2="220.79"/><line class="cls-1" x1="148.17" y1="221.33" x2="147.95" y2="221.5"/><line class="cls-1" x1="146.98" y1="222.36" x2="146.82" y2="222.58"/><line class="cls-1" x1="146.11" y1="223.66" x2="145.95" y2="223.87"/><line class="cls-1" x1="145.2" y1="224.95" x2="145.03" y2="225.17"/><line class="cls-1" x1="144.33" y1="226.25" x2="144.17" y2="226.41"/><line class="cls-1" x1="142.98" y1="226.63" x2="142.77" y2="226.57"/><line class="cls-1" x1="141.52" y1="226.14" x2="141.31" y2="226.09"/><line class="cls-1" x1="140.17" y1="225.49" x2="139.96" y2="225.38"/><line class="cls-1" x1="138.77" y1="224.95" x2="138.55" y2="224.9"/><line class="cls-1" x1="137.31" y1="224.63" x2="137.04" y2="224.63"/><line class="cls-1" x1="135.8" y1="224.47" x2="135.53" y2="224.47"/><line class="cls-1" x1="134.23" y1="224.25" x2="134.02" y2="224.2"/><line class="cls-1" x1="132.78" y1="223.98" x2="132.56" y2="223.93"/><line class="cls-1" x1="131.32" y1="223.66" x2="131.1" y2="223.6"/><line class="cls-1" x1="129.86" y1="223.28" x2="129.64" y2="223.22"/><line class="cls-1" x1="128.4" y1="222.85" x2="128.19" y2="222.74"/><line class="cls-1" x1="127.11" y1="221.98" x2="126.94" y2="221.82"/><line class="cls-1" x1="126.03" y1="220.85" x2="125.81" y2="220.69"/><line class="cls-1" x1="124.73" y1="219.98" x2="124.51" y2="219.88"/><line class="cls-1" x1="123.43" y1="219.23" x2="123.27" y2="219.01"/><line class="cls-1" x1="122.46" y1="217.99" x2="122.25" y2="217.88"/><line class="cls-1" x1="121.17" y1="217.18" x2="120.95" y2="217.07"/><line class="cls-1" x1="119.82" y1="216.58" x2="119.6" y2="216.53"/><line class="cls-1" x1="118.36" y1="216.31" x2="118.36" y2="216.31"/><line class="cls-1" x1="118.36" y1="216.31" x2="118.14" y2="216.26"/><line class="cls-1" x1="116.9" y1="215.93" x2="116.9" y2="215.93"/><line class="cls-1" x1="116.9" y1="215.93" x2="116.68" y2="215.88"/><line class="cls-1" x1="115.5" y1="215.45" x2="115.5" y2="215.45"/><line class="cls-1" x1="115.5" y1="215.45" x2="115.28" y2="215.34"/><line class="cls-1" x1="114.15" y1="214.69" x2="113.93" y2="214.58"/><line class="cls-1" x1="112.85" y1="213.94" x2="112.63" y2="213.83"/><line class="cls-1" x1="111.61" y1="213.07" x2="111.39" y2="212.96"/><line class="cls-1" x1="110.31" y1="212.26" x2="110.1" y2="212.1"/><line class="cls-1" x1="109.07" y1="211.34" x2="108.96" y2="211.13"/><line class="cls-1" x1="108.42" y1="209.99" x2="108.37" y2="209.94"/><line class="cls-1" x1="108.37" y1="209.94" x2="108.31" y2="209.78"/><line class="cls-1" x1="107.77" y1="208.64" x2="107.67" y2="208.43"/><line class="cls-1" x1="107.23" y1="207.24" x2="107.13" y2="207.02"/><line class="cls-1" x1="106.75" y1="205.78" x2="106.69" y2="205.57"/><line class="cls-1" x1="106.37" y1="204.32" x2="106.32" y2="204.11"/><line class="cls-1" x1="106.05" y1="202.87" x2="105.99" y2="202.65"/><line class="cls-1" x1="105.78" y1="201.41" x2="105.72" y2="201.14"/><line class="cls-1" x1="105.61" y1="199.84" x2="105.61" y2="199.57"/><line class="cls-1" x1="105.51" y1="198.28" x2="105.51" y2="198.01"/><line class="cls-1" x1="105.45" y1="196.71" x2="105.45" y2="196.44"/><line class="cls-1" x1="105.51" y1="195.14" x2="105.51" y2="194.87"/><line class="cls-1" x1="105.56" y1="193.58" x2="105.61" y2="193.36"/><line class="cls-1" x1="105.72" y1="192.07" x2="105.78" y2="191.85"/><line class="cls-1" x1="105.94" y1="190.55" x2="105.99" y2="190.28"/><line class="cls-1" x1="106.21" y1="188.99" x2="106.26" y2="188.77"/><line class="cls-1" x1="106.48" y1="187.53" x2="106.53" y2="187.31"/><line class="cls-1" x1="106.8" y1="186.07" x2="106.86" y2="185.86"/><line class="cls-1" x1="107.18" y1="184.61" x2="107.29" y2="184.4"/><line class="cls-1" x1="107.61" y1="183.16" x2="107.67" y2="183.05"/><line class="cls-1" x1="107.67" y1="183.05" x2="107.72" y2="182.94"/><line class="cls-1" x1="108.1" y1="181.75" x2="108.15" y2="181.54"/><line class="cls-1" x1="108.58" y1="180.35" x2="108.64" y2="180.13"/><line class="cls-1" x1="109.07" y1="178.94" x2="109.12" y2="178.73"/><line class="cls-1" x1="109.61" y1="177.54" x2="109.72" y2="177.32"/><line class="cls-1" x1="110.2" y1="176.14" x2="110.26" y2="175.97"/><line class="cls-1" x1="110.26" y1="175.97" x2="110.26" y2="175.92"/><line class="cls-1" x1="110.8" y1="174.79" x2="110.91" y2="174.57"/><line class="cls-1" x1="111.45" y1="173.44" x2="111.55" y2="173.22"/><line class="cls-1" x1="112.15" y1="172.09" x2="112.26" y2="171.87"/><line class="cls-1" x1="112.8" y1="170.74" x2="112.96" y2="170.52"/><line class="cls-1" x1="113.55" y1="169.39" x2="113.66" y2="169.17"/><line class="cls-1" x1="114.31" y1="168.09" x2="114.42" y2="167.87"/><line class="cls-1" x1="115.06" y1="166.79" x2="115.17" y2="166.58"/><line class="cls-1" x1="115.87" y1="165.5" x2="115.98" y2="165.28"/><line class="cls-1" x1="116.68" y1="164.2" x2="116.85" y2="163.99"/><line class="cls-1" x1="117.49" y1="162.91" x2="117.66" y2="162.69"/><line class="cls-1" x1="118.41" y1="161.61" x2="118.57" y2="161.39"/><line class="cls-1" x1="119.33" y1="160.31" x2="119.49" y2="160.1"/><line class="cls-1" x1="120.25" y1="159.02" x2="120.41" y2="158.8"/><line class="cls-1" x1="121.17" y1="157.78" x2="121.22" y2="157.67"/><line class="cls-1" x1="121.22" y1="157.67" x2="121.33" y2="157.56"/><line class="cls-1" x1="122.14" y1="156.53" x2="122.3" y2="156.32"/><line class="cls-1" x1="123.11" y1="155.29" x2="123.27" y2="155.08"/><line class="cls-1" x1="124.14" y1="154.05" x2="124.3" y2="153.83"/><line class="cls-1" x1="125.16" y1="152.81" x2="125.32" y2="152.59"/><line class="cls-1" x1="126.19" y1="151.62" x2="126.35" y2="151.46"/><line class="cls-1" x1="127.27" y1="150.49" x2="127.43" y2="150.32"/><line class="cls-1" x1="128.35" y1="149.35" x2="128.51" y2="149.14"/><line class="cls-1" x1="129.43" y1="148.22" x2="129.59" y2="148.06"/><line class="cls-1" x1="130.51" y1="147.14" x2="130.67" y2="146.98"/><line class="cls-1" x1="131.64" y1="146.11" x2="131.8" y2="145.95"/><line class="cls-1" x1="132.83" y1="145.09" x2="133.05" y2="144.92"/><line class="cls-1" x1="134.07" y1="144.06" x2="134.29" y2="143.9"/><line class="cls-1" x1="135.31" y1="143.14" x2="135.42" y2="143.09"/><line class="cls-1" x1="135.42" y1="143.09" x2="135.53" y2="142.98"/><line class="cls-1" x1="136.61" y1="142.22" x2="136.83" y2="142.12"/><line class="cls-1" x1="137.91" y1="141.47" x2="138.07" y2="141.36"/><line class="cls-1" x1="138.07" y1="141.36" x2="138.12" y2="141.31"/><line class="cls-1" x1="139.2" y1="140.66" x2="139.42" y2="140.55"/><line class="cls-1" x1="140.55" y1="140.01" x2="140.66" y2="139.96"/><line class="cls-1" x1="140.66" y1="139.96" x2="140.77" y2="139.9"/><line class="cls-1" x1="141.9" y1="139.36" x2="142.12" y2="139.25"/><line class="cls-1" x1="143.31" y1="138.82" x2="143.52" y2="138.71"/><line class="cls-1" x1="144.71" y1="138.34" x2="144.93" y2="138.28"/><line class="cls-1" x1="146.11" y1="137.96" x2="146.33" y2="137.9"/><line class="cls-1" x1="147.57" y1="137.63" x2="147.79" y2="137.58"/><line class="cls-1" x1="149.08" y1="137.42" x2="149.08" y2="137.42"/><line class="cls-1" x1="149.08" y1="137.42" x2="149.25" y2="137.42"/><line class="cls-1" x1="149.25" y1="137.42" x2="149.35" y2="137.42"/><line class="cls-1" x1="149.41" y1="136.45" x2="149.41" y2="136.45"/><line class="cls-1" x1="149.41" y1="136.45" x2="149.41" y2="136.45"/><line class="cls-1" x1="149.41" y1="136.45" x2="149.41" y2="136.39"/><line class="cls-1" x1="149.41" y1="136.39" x2="149.41" y2="136.34"/><line class="cls-1" x1="149.41" y1="136.34" x2="149.41" y2="136.34"/><line class="cls-1" x1="149.41" y1="136.34" x2="149.46" y2="136.34"/><line class="cls-1" x1="149.46" y1="136.34" x2="149.46" y2="136.28"/><line class="cls-1" x1="149.46" y1="136.28" x2="149.46" y2="136.28"/><line class="cls-1" x1="149.46" y1="136.28" x2="149.46" y2="136.23"/><path d="M54.52,12.09h4.39v.78H55.36v2.34h3.3V16h-3.3v3.18h-.84Z"/><path d="M62.8,19.17H62v-6h0l-1.27,1.07-.5-.61,1.9-1.54h.73Z"/><path d="M65.14,15.63a7.88,7.88,0,0,1,.1-1.25,4,4,0,0,1,.37-1.18,2.44,2.44,0,0,1,.74-.88A1.93,1.93,0,0,1,67.54,12a2,2,0,0,1,1.2.35,2.41,2.41,0,0,1,.73.88,4,4,0,0,1,.37,1.18,7.88,7.88,0,0,1,.1,1.25,7.79,7.79,0,0,1-.1,1.25,4,4,0,0,1-.37,1.19,2.5,2.5,0,0,1-.73.88,2,2,0,0,1-1.2.34A1.93,1.93,0,0,1,66.35,19a2.53,2.53,0,0,1-.74-.88,4,4,0,0,1-.37-1.19A7.79,7.79,0,0,1,65.14,15.63Zm.84,0c0,.18,0,.37,0,.58a4.81,4.81,0,0,0,.08.65,3.42,3.42,0,0,0,.16.63,1.9,1.9,0,0,0,.28.55,1.31,1.31,0,0,0,.42.39,1.36,1.36,0,0,0,1.2,0,1.45,1.45,0,0,0,.43-.39,2.19,2.19,0,0,0,.28-.55,4.47,4.47,0,0,0,.16-.63c0-.22.06-.43.07-.65s0-.4,0-.58,0-.36,0-.58,0-.43-.07-.64a4.61,4.61,0,0,0-.16-.64,2.37,2.37,0,0,0-.28-.55,1.3,1.3,0,0,0-.43-.38,1.28,1.28,0,0,0-1.2,0,1.18,1.18,0,0,0-.42.38,2,2,0,0,0-.28.55,3.53,3.53,0,0,0-.16.64,4.66,4.66,0,0,0-.08.64C66,15.27,66,15.46,66,15.63Z"/><path d="M72.36,15.09h.26a3.56,3.56,0,0,0,.55,0,1.33,1.33,0,0,0,.52-.17,1.14,1.14,0,0,0,.39-.37,1.25,1.25,0,0,0,.15-.65A1.11,1.11,0,0,0,73.9,13a1.25,1.25,0,0,0-.88-.32,1.51,1.51,0,0,0-.78.2,1.43,1.43,0,0,0-.52.59l-.81-.31a1.8,1.8,0,0,1,.82-.9A2.54,2.54,0,0,1,73,12a2.74,2.74,0,0,1,.81.12,2.14,2.14,0,0,1,.67.35,1.74,1.74,0,0,1,.46.58,1.85,1.85,0,0,1,.17.8,1.65,1.65,0,0,1-.33,1,1.76,1.76,0,0,1-.88.61v0a1.92,1.92,0,0,1,.61.22,1.9,1.9,0,0,1,.45.4,1.6,1.6,0,0,1,.29.53,1.89,1.89,0,0,1,.1.63,1.89,1.89,0,0,1-.7,1.53,2,2,0,0,1-.74.39,3,3,0,0,1-.9.13,2.68,2.68,0,0,1-1.41-.35,2,2,0,0,1-.87-1.14l.85-.28A1.3,1.3,0,0,0,73,18.57a1.47,1.47,0,0,0,.56-.1,1.36,1.36,0,0,0,.46-.28,1.52,1.52,0,0,0,.31-.44,1.48,1.48,0,0,0,.11-.57,1.28,1.28,0,0,0-.15-.65,1.18,1.18,0,0,0-.41-.42,1.85,1.85,0,0,0-.58-.23,3.5,3.5,0,0,0-.65-.07h-.26Z"/><path d="M76.38,18.21l2.67-2.6c.17-.16.31-.31.44-.44a3.5,3.5,0,0,0,.32-.4,1.65,1.65,0,0,0,.18-.41,1.68,1.68,0,0,0,.06-.47,1.18,1.18,0,0,0-.1-.5,1.26,1.26,0,0,0-.27-.37,1.14,1.14,0,0,0-.41-.24,1.44,1.44,0,0,0-.51-.09,1.32,1.32,0,0,0-.89.31,1.47,1.47,0,0,0-.45.82l-.91-.08a2.29,2.29,0,0,1,.27-.76,1.77,1.77,0,0,1,.49-.56,2,2,0,0,1,.66-.33,2.58,2.58,0,0,1,.8-.12,2.53,2.53,0,0,1,.83.13,2.06,2.06,0,0,1,.69.36,1.87,1.87,0,0,1,.47.6,2,2,0,0,1,.17.83,2.53,2.53,0,0,1-.11.76,2.64,2.64,0,0,1-.31.63,4.51,4.51,0,0,1-.44.54c-.17.17-.34.34-.52.5l-2.18,2.05v0h3.61v.78H76.38Z"/><path d="M81.82,15.63a7.88,7.88,0,0,1,.1-1.25,4,4,0,0,1,.37-1.18,2.41,2.41,0,0,1,.73-.88,2,2,0,0,1,1.2-.35,2,2,0,0,1,1.2.35,2.41,2.41,0,0,1,.73.88,4,4,0,0,1,.37,1.18,7.88,7.88,0,0,1,.1,1.25,7.79,7.79,0,0,1-.1,1.25,4,4,0,0,1-.37,1.19,2.5,2.5,0,0,1-.73.88,2,2,0,0,1-1.2.34A2,2,0,0,1,83,19a2.5,2.5,0,0,1-.73-.88,4,4,0,0,1-.37-1.19A7.79,7.79,0,0,1,81.82,15.63Zm.84,0c0,.18,0,.37,0,.58s0,.43.07.65a3.45,3.45,0,0,0,.17.63,1.88,1.88,0,0,0,.27.55,1.45,1.45,0,0,0,.43.39,1.36,1.36,0,0,0,1.2,0,1.45,1.45,0,0,0,.43-.39,1.88,1.88,0,0,0,.27-.55,4.5,4.5,0,0,0,.17-.63c0-.22.06-.43.07-.65s0-.4,0-.58,0-.36,0-.58,0-.43-.07-.64a4.64,4.64,0,0,0-.17-.64,2,2,0,0,0-.27-.55,1.3,1.3,0,0,0-.43-.38,1.27,1.27,0,0,0-1.2,0,1.3,1.3,0,0,0-.43.38,2,2,0,0,0-.27.55,3.55,3.55,0,0,0-.17.64c0,.21-.06.43-.07.64S82.66,15.46,82.66,15.63Z"/><path d="M90.5,15.81h2.28V13.53h.66v2.28h2.28v.66H93.44v2.28h-.66V16.47H90.5Z"/><path d="M100,12.09h4.39v.78h-3.55v2.34h3.3V16h-3.3v3.18H100Z"/><path d="M108.31,19.17h-.84v-6h0l-1.27,1.07-.5-.61,1.9-1.54h.73Z"/><path d="M110.65,15.63a7.88,7.88,0,0,1,.1-1.25,4,4,0,0,1,.37-1.18,2.41,2.41,0,0,1,.73-.88,2,2,0,0,1,1.2-.35,2,2,0,0,1,1.2.35,2.41,2.41,0,0,1,.73.88,4,4,0,0,1,.37,1.18,7.88,7.88,0,0,1,.1,1.25,7.79,7.79,0,0,1-.1,1.25,4,4,0,0,1-.37,1.19,2.5,2.5,0,0,1-.73.88,2,2,0,0,1-1.2.34,2,2,0,0,1-1.2-.34,2.5,2.5,0,0,1-.73-.88,4,4,0,0,1-.37-1.19A7.79,7.79,0,0,1,110.65,15.63Zm.84,0c0,.18,0,.37,0,.58s0,.43.07.65a3.45,3.45,0,0,0,.17.63A1.88,1.88,0,0,0,112,18a1.45,1.45,0,0,0,.43.39,1.36,1.36,0,0,0,1.2,0,1.45,1.45,0,0,0,.43-.39,1.88,1.88,0,0,0,.27-.55,4.5,4.5,0,0,0,.17-.63c0-.22.06-.43.07-.65s0-.4,0-.58,0-.36,0-.58,0-.43-.07-.64a4.64,4.64,0,0,0-.17-.64,2,2,0,0,0-.27-.55,1.3,1.3,0,0,0-.43-.38,1.27,1.27,0,0,0-1.2,0,1.3,1.3,0,0,0-.43.38,2,2,0,0,0-.27.55,3.55,3.55,0,0,0-.17.64c0,.21-.06.43-.07.64S111.49,15.46,111.49,15.63Z"/><path d="M117.87,15.09h.26a3.65,3.65,0,0,0,.55,0,1.33,1.33,0,0,0,.52-.17,1,1,0,0,0,.38-.37,1.16,1.16,0,0,0,.16-.65,1.11,1.11,0,0,0-.33-.85,1.25,1.25,0,0,0-.88-.32,1.51,1.51,0,0,0-.78.2,1.43,1.43,0,0,0-.52.59l-.81-.31a1.83,1.83,0,0,1,.81-.9,2.58,2.58,0,0,1,1.24-.3,2.63,2.63,0,0,1,.8.12,2.08,2.08,0,0,1,.68.35,1.74,1.74,0,0,1,.46.58,1.85,1.85,0,0,1,.17.8,1.65,1.65,0,0,1-.33,1,1.76,1.76,0,0,1-.88.61v0a1.92,1.92,0,0,1,.61.22,1.9,1.9,0,0,1,.45.4,1.6,1.6,0,0,1,.29.53,1.89,1.89,0,0,1,.1.63,1.89,1.89,0,0,1-.7,1.53,2,2,0,0,1-.74.39,3,3,0,0,1-.9.13,2.68,2.68,0,0,1-1.41-.35,2,2,0,0,1-.87-1.14l.85-.28a1.3,1.3,0,0,0,1.43,1.05,1.47,1.47,0,0,0,.56-.1,1.36,1.36,0,0,0,.46-.28,1.74,1.74,0,0,0,.31-.44,1.48,1.48,0,0,0,.11-.57,1.28,1.28,0,0,0-.15-.65,1.21,1.21,0,0,0-.42-.42,1.71,1.71,0,0,0-.57-.23,3.5,3.5,0,0,0-.65-.07h-.26Z"/><path d="M123.43,15.09h.26a3.65,3.65,0,0,0,.55,0,1.33,1.33,0,0,0,.52-.17,1.14,1.14,0,0,0,.39-.37,1.25,1.25,0,0,0,.15-.65A1.11,1.11,0,0,0,125,13a1.25,1.25,0,0,0-.88-.32,1.51,1.51,0,0,0-.78.2,1.43,1.43,0,0,0-.52.59l-.81-.31a1.83,1.83,0,0,1,.81-.9,2.72,2.72,0,0,1,2-.18,2.08,2.08,0,0,1,.68.35A1.74,1.74,0,0,1,126,13a1.85,1.85,0,0,1,.17.8,1.65,1.65,0,0,1-.33,1,1.76,1.76,0,0,1-.88.61v0a1.92,1.92,0,0,1,.61.22,1.9,1.9,0,0,1,.45.4,1.6,1.6,0,0,1,.29.53,1.89,1.89,0,0,1,.1.63,1.89,1.89,0,0,1-.7,1.53,2,2,0,0,1-.74.39,3,3,0,0,1-.9.13,2.68,2.68,0,0,1-1.41-.35,2,2,0,0,1-.87-1.14l.85-.28A1.3,1.3,0,0,0,124,18.57a1.47,1.47,0,0,0,.56-.1,1.36,1.36,0,0,0,.46-.28,1.52,1.52,0,0,0,.31-.44,1.48,1.48,0,0,0,.11-.57,1.16,1.16,0,0,0-.56-1.07,1.85,1.85,0,0,0-.58-.23,3.5,3.5,0,0,0-.65-.07h-.26Z"/><path d="M127.33,15.63a7.88,7.88,0,0,1,.1-1.25,4,4,0,0,1,.37-1.18,2.44,2.44,0,0,1,.74-.88,1.93,1.93,0,0,1,1.19-.35,2,2,0,0,1,1.2.35,2.41,2.41,0,0,1,.73.88,4,4,0,0,1,.37,1.18,7.88,7.88,0,0,1,.1,1.25,7.79,7.79,0,0,1-.1,1.25,4,4,0,0,1-.37,1.19,2.5,2.5,0,0,1-.73.88,2,2,0,0,1-1.2.34,1.93,1.93,0,0,1-1.19-.34,2.53,2.53,0,0,1-.74-.88,4,4,0,0,1-.37-1.19A7.79,7.79,0,0,1,127.33,15.63Zm.84,0c0,.18,0,.37,0,.58a4.81,4.81,0,0,0,.08.65,2.78,2.78,0,0,0,.16.63,1.9,1.9,0,0,0,.28.55,1.31,1.31,0,0,0,.42.39,1.36,1.36,0,0,0,1.2,0,1.45,1.45,0,0,0,.43-.39,2.19,2.19,0,0,0,.28-.55,6.45,6.45,0,0,0,.16-.63c0-.22.06-.43.07-.65s0-.4,0-.58,0-.36,0-.58,0-.43-.07-.64-.1-.43-.16-.64a2.37,2.37,0,0,0-.28-.55,1.3,1.3,0,0,0-.43-.38,1.28,1.28,0,0,0-1.2,0,1.18,1.18,0,0,0-.42.38,2,2,0,0,0-.28.55,2.86,2.86,0,0,0-.16.64,4.66,4.66,0,0,0-.08.64C128.18,15.27,128.17,15.46,128.17,15.63Z"/><path d="M132.89,15.63a7.88,7.88,0,0,1,.1-1.25,4,4,0,0,1,.37-1.18,2.41,2.41,0,0,1,.73-.88,2,2,0,0,1,1.2-.35,1.93,1.93,0,0,1,1.19.35,2.44,2.44,0,0,1,.74.88,4,4,0,0,1,.37,1.18,7.88,7.88,0,0,1,.1,1.25,7.79,7.79,0,0,1-.1,1.25,4,4,0,0,1-.37,1.19,2.53,2.53,0,0,1-.74.88,1.93,1.93,0,0,1-1.19.34,2,2,0,0,1-1.2-.34,2.5,2.5,0,0,1-.73-.88,4,4,0,0,1-.37-1.19A7.79,7.79,0,0,1,132.89,15.63Zm.84,0c0,.18,0,.37,0,.58s0,.43.07.65a4.47,4.47,0,0,0,.16.63,2.19,2.19,0,0,0,.28.55,1.45,1.45,0,0,0,.43.39,1.36,1.36,0,0,0,1.2,0,1.31,1.31,0,0,0,.42-.39,1.9,1.9,0,0,0,.28-.55,3.42,3.42,0,0,0,.16-.63,4.81,4.81,0,0,0,.08-.65c0-.21,0-.4,0-.58s0-.36,0-.58a4.66,4.66,0,0,0-.08-.64,3.53,3.53,0,0,0-.16-.64,2,2,0,0,0-.28-.55,1.18,1.18,0,0,0-.42-.38,1.28,1.28,0,0,0-1.2,0,1.3,1.3,0,0,0-.43.38,2.37,2.37,0,0,0-.28.55,4.61,4.61,0,0,0-.16.64c0,.21-.06.43-.07.64S133.73,15.46,133.73,15.63Z"/><path d="M138.45,15.63a7.88,7.88,0,0,1,.1-1.25,4,4,0,0,1,.37-1.18,2.41,2.41,0,0,1,.73-.88,2,2,0,0,1,1.2-.35,1.93,1.93,0,0,1,1.19.35,2.44,2.44,0,0,1,.74.88,4,4,0,0,1,.37,1.18,7.88,7.88,0,0,1,.1,1.25,7.79,7.79,0,0,1-.1,1.25,4,4,0,0,1-.37,1.19A2.53,2.53,0,0,1,142,19a1.93,1.93,0,0,1-1.19.34,2,2,0,0,1-1.2-.34,2.5,2.5,0,0,1-.73-.88,4,4,0,0,1-.37-1.19A7.79,7.79,0,0,1,138.45,15.63Zm.84,0c0,.18,0,.37,0,.58s0,.43.07.65a4.47,4.47,0,0,0,.16.63,2.19,2.19,0,0,0,.28.55,1.45,1.45,0,0,0,.43.39,1.36,1.36,0,0,0,1.2,0,1.45,1.45,0,0,0,.43-.39,2.17,2.17,0,0,0,.27-.55,3.42,3.42,0,0,0,.16-.63,4.81,4.81,0,0,0,.08-.65c0-.21,0-.4,0-.58s0-.36,0-.58a4.66,4.66,0,0,0-.08-.64,3.53,3.53,0,0,0-.16-.64,2.35,2.35,0,0,0-.27-.55,1.3,1.3,0,0,0-.43-.38,1.28,1.28,0,0,0-1.2,0,1.3,1.3,0,0,0-.43.38,2.37,2.37,0,0,0-.28.55,4.61,4.61,0,0,0-.16.64c0,.21-.06.43-.07.64S139.29,15.46,139.29,15.63Z"/><path d="M143.63,19.92h5v.5h-5Z"/><path d="M152.23,19.17h-.84v-6h0l-1.27,1.07-.5-.61,1.9-1.54h.73Z"/><path d="M156.23,15.09h.26a3.65,3.65,0,0,0,.55,0,1.28,1.28,0,0,0,.51-.17,1,1,0,0,0,.39-.37,1.16,1.16,0,0,0,.16-.65,1.09,1.09,0,0,0-.34-.85,1.21,1.21,0,0,0-.87-.32,1.51,1.51,0,0,0-.78.2,1.43,1.43,0,0,0-.52.59l-.81-.31a1.78,1.78,0,0,1,.81-.9,2.58,2.58,0,0,1,1.24-.3,2.63,2.63,0,0,1,.8.12,2.08,2.08,0,0,1,.68.35,1.74,1.74,0,0,1,.46.58,1.85,1.85,0,0,1,.17.8,1.6,1.6,0,0,1-.34,1,1.69,1.69,0,0,1-.87.61v0a1.72,1.72,0,0,1,1.06.62,1.6,1.6,0,0,1,.29.53,1.89,1.89,0,0,1,.1.63,2,2,0,0,1-1.45,1.92,2.9,2.9,0,0,1-.89.13,2.68,2.68,0,0,1-1.41-.35,2,2,0,0,1-.87-1.14l.85-.28a1.3,1.3,0,0,0,1.43,1.05,1.47,1.47,0,0,0,.56-.1,1.31,1.31,0,0,0,.45-.28,1.55,1.55,0,0,0,.32-.44,1.48,1.48,0,0,0,.11-.57,1.18,1.18,0,0,0-.16-.65,1.1,1.1,0,0,0-.41-.42,1.8,1.8,0,0,0-.57-.23,3.5,3.5,0,0,0-.65-.07h-.26Z"/><path d="M159.81,12.09h.93L162.35,18h0l1.74-5.88h.94L166.78,18h0l1.64-5.88h.88l-2.08,7.08h-.91l-1.75-6h0l-1.76,6h-.92Z"/></g></svg>