<svg id="Bon_Jour_uplugged" data-name="Bon Jour uplugged" xmlns="http://www.w3.org/2000/svg" viewBox="0 0 300 263"><defs><style>.cls-1,.cls-3{fill:none;stroke-width:0.5px;}.cls-1{stroke:#000;}.cls-2{isolation:isolate;}.cls-3{stroke:#12110b;stroke-linecap:round;stroke-linejoin:round;}</style></defs><title>bon-jour-unplugged-table-starck-flos-F1037009-spech-tech-02-300x263-01</title><line class="cls-1" x1="121.78" y1="226.96" x2="177.98" y2="226.96"/><line class="cls-1" x1="121.78" y1="225.26" x2="121.78" y2="228.66"/><line class="cls-1" x1="177.98" y1="225.26" x2="177.98" y2="228.66"/><line class="cls-1" x1="115.14" y1="64.6" x2="184.62" y2="64.6"/><line class="cls-1" x1="115.14" y1="62.9" x2="115.14" y2="66.3"/><line class="cls-1" x1="184.62" y1="62.9" x2="184.62" y2="66.3"/><line class="cls-1" x1="103.68" y1="216.32" x2="103.68" y2="74.03"/><line class="cls-1" x1="101.98" y1="216.32" x2="105.38" y2="216.32"/><line class="cls-1" x1="101.98" y1="74.03" x2="105.38" y2="74.03"/><g class="cls-2"><path d="M125.16,241a3.67,3.67,0,0,1,.7,1.16,4.06,4.06,0,0,1,.26,1.45A3.89,3.89,0,0,1,125,246.4a4,4,0,0,1-1.31.82,4.75,4.75,0,0,1-3.12.07,3.82,3.82,0,0,1-1.15-.61l-1.12,1.09-.53-.49,1.1-1.09a3.64,3.64,0,0,1-.72-1.18,4.17,4.17,0,0,1-.25-1.43,4,4,0,0,1,.31-1.57,3.88,3.88,0,0,1,.86-1.25,3.94,3.94,0,0,1,1.3-.82,4.44,4.44,0,0,1,1.65-.3,4.79,4.79,0,0,1,1.45.22,4,4,0,0,1,1.2.62l1.09-1.09.53.49Zm-1.3.26a2.81,2.81,0,0,0-1.88-.63,3,3,0,0,0-1.22.24,2.56,2.56,0,0,0-.91.63,2.91,2.91,0,0,0-.58.94,3.24,3.24,0,0,0-.21,1.17,2.92,2.92,0,0,0,.56,1.82ZM120.12,246a3,3,0,0,0,.83.45,3.37,3.37,0,0,0,1,.16,3,3,0,0,0,1.23-.24,2.79,2.79,0,0,0,.92-.63,2.83,2.83,0,0,0,.59-.94,3.42,3.42,0,0,0,.2-1.17,3,3,0,0,0-.56-1.82Z"/><path d="M137.58,242.46l0,0a2.16,2.16,0,0,1-.76.29,4.59,4.59,0,0,1-.87.09,3.9,3.9,0,0,1-1.42-.26,3.54,3.54,0,0,1-1.14-.73,3.36,3.36,0,0,1-.75-1.1,3.45,3.45,0,0,1-.28-1.41,3.51,3.51,0,0,1,.29-1.43,3.19,3.19,0,0,1,.79-1.1,3.72,3.72,0,0,1,1.22-.72,4.6,4.6,0,0,1,3.05,0,3.72,3.72,0,0,1,1.22.72,3.32,3.32,0,0,1,.79,1.1,3.51,3.51,0,0,1,.28,1.43,4.19,4.19,0,0,1-.29,1.65,8.76,8.76,0,0,1-.72,1.39l-3.17,5h-1.41Zm1.2-3.15a2.64,2.64,0,0,0-.19-1,2.23,2.23,0,0,0-.54-.77,2.69,2.69,0,0,0-.83-.51,3.24,3.24,0,0,0-2.13,0,2.58,2.58,0,0,0-.83.51,2.23,2.23,0,0,0-.54.77,2.67,2.67,0,0,0,0,2,2.37,2.37,0,0,0,.54.78,2.56,2.56,0,0,0,.83.5,3.24,3.24,0,0,0,2.13,0,2.67,2.67,0,0,0,.83-.5,2.37,2.37,0,0,0,.54-.78A2.64,2.64,0,0,0,138.78,239.31Z"/><path d="M146.55,247.32h-1.19v-9.88l-2.11,1.79-.75-.87,3-2.36h1.06Z"/><path d="M155.82,241.5c0-.28,0-.55,0-.83l-.06-.83h1.18V241h0a2.6,2.6,0,0,1,1.11-1,3.31,3.31,0,0,1,1.4-.34,4.13,4.13,0,0,1,.67.07,2.38,2.38,0,0,1,1.32.7,2.88,2.88,0,0,1,.49.79,2.51,2.51,0,0,1,1.05-1.14,3.28,3.28,0,0,1,3.71.34,3,3,0,0,1,.72,2.17v4.75h-1.1V243a3.17,3.17,0,0,0-.41-1.75,1.78,1.78,0,0,0-1.55-.61,2,2,0,0,0-1,.24,1.88,1.88,0,0,0-.67.61,2.6,2.6,0,0,0-.37.87,4.31,4.31,0,0,0-.12,1v4h-1.1V243a3.17,3.17,0,0,0-.41-1.75,1.76,1.76,0,0,0-1.55-.61c-.07,0-.22,0-.46.07a1.74,1.74,0,0,0-.73.35,2.46,2.46,0,0,0-.69.86,3.4,3.4,0,0,0-.31,1.6v3.84h-1.1Z"/><path d="M170,241.5c0-.28,0-.55,0-.83s0-.56-.06-.83h1.18V241h0a2.52,2.52,0,0,1,1.1-1,3.31,3.31,0,0,1,1.4-.34,4.24,4.24,0,0,1,.68.07,2.55,2.55,0,0,1,.69.23,2.26,2.26,0,0,1,.62.47,2.66,2.66,0,0,1,.49.79,2.51,2.51,0,0,1,1-1.14,3,3,0,0,1,1.51-.42,2.94,2.94,0,0,1,2.21.76,3.08,3.08,0,0,1,.71,2.17v4.75h-1.1V243a3.08,3.08,0,0,0-.41-1.75,1.76,1.76,0,0,0-1.55-.61,2,2,0,0,0-1,.24,2,2,0,0,0-.67.61,2.82,2.82,0,0,0-.37.87,4.31,4.31,0,0,0-.12,1v4h-1.1V243a3.08,3.08,0,0,0-.41-1.75,1.75,1.75,0,0,0-1.54-.61c-.07,0-.22,0-.46.07a1.72,1.72,0,0,0-.74.35,2.46,2.46,0,0,0-.69.86,3.4,3.4,0,0,0-.31,1.6v3.84H170Z"/></g><g class="cls-2"><path d="M120.54,48.4a3.67,3.67,0,0,1,.7,1.16A3.78,3.78,0,0,1,121.5,51a3.93,3.93,0,0,1-.31,1.57,3.66,3.66,0,0,1-.85,1.24,4.07,4.07,0,0,1-1.3.83,4.72,4.72,0,0,1-1.67.29,4.48,4.48,0,0,1-1.46-.22,3.82,3.82,0,0,1-1.15-.61l-1.11,1.09-.54-.5,1.1-1.08a3.65,3.65,0,0,1-.71-1.18,4,4,0,0,1-.25-1.43,4,4,0,0,1,.3-1.57,3.79,3.79,0,0,1,2.16-2.07,4.49,4.49,0,0,1,1.66-.3,4.44,4.44,0,0,1,1.44.22,4.24,4.24,0,0,1,1.2.61l1.09-1.08.54.49Zm-1.3.26a2.8,2.8,0,0,0-1.87-.63,3.09,3.09,0,0,0-1.22.23,2.89,2.89,0,0,0-.92.63,3,3,0,0,0-.58,1,3.2,3.2,0,0,0-.21,1.17,2.89,2.89,0,0,0,.57,1.82Zm-3.73,4.71a2.47,2.47,0,0,0,.83.45,3.05,3.05,0,0,0,1,.16,3,3,0,0,0,1.22-.23,2.69,2.69,0,0,0,.92-.63,2.88,2.88,0,0,0,.59-.95,3.19,3.19,0,0,0,.21-1.16,3,3,0,0,0-.57-1.83Z"/><path d="M132.7,54.75h-1.2V44.86l-2.11,1.8-.74-.87,3-2.37h1.06Z"/><path d="M140.77,43.23a3.5,3.5,0,0,1,2,.56A3.86,3.86,0,0,1,144,45.21a6.19,6.19,0,0,1,.58,1.9,13.08,13.08,0,0,1,0,4A6.19,6.19,0,0,1,144,53a3.79,3.79,0,0,1-1.21,1.42,3.43,3.43,0,0,1-2,.56,3.37,3.37,0,0,1-2-.56A3.7,3.7,0,0,1,137.52,53a5.93,5.93,0,0,1-.58-1.9,13.08,13.08,0,0,1,0-4,5.93,5.93,0,0,1,.58-1.9,3.77,3.77,0,0,1,1.21-1.42A3.44,3.44,0,0,1,140.77,43.23Zm0,1.06a2.21,2.21,0,0,0-1.52.49,3.14,3.14,0,0,0-.84,1.23,6.29,6.29,0,0,0-.35,1.57c-.05.56-.08,1.06-.08,1.51s0,.95.08,1.5a6.09,6.09,0,0,0,.35,1.57,3.14,3.14,0,0,0,.84,1.23,2.56,2.56,0,0,0,3,0,3.14,3.14,0,0,0,.84-1.23,5.71,5.71,0,0,0,.36-1.57c0-.55.07-1.05.07-1.5s0-1-.07-1.51a5.89,5.89,0,0,0-.36-1.57,3.14,3.14,0,0,0-.84-1.23A2.21,2.21,0,0,0,140.77,44.29Z"/><path d="M148.78,48.29h.61a4,4,0,0,0,1-.12,2.39,2.39,0,0,0,.83-.35,1.93,1.93,0,0,0,.55-.65,2.06,2.06,0,0,0,.21-1,1.8,1.8,0,0,0-.57-1.42,2.4,2.4,0,0,0-1.61-.5,2.55,2.55,0,0,0-1.31.32,2.44,2.44,0,0,0-.93.93L146.5,45a3.52,3.52,0,0,1,1.36-1.35,4,4,0,0,1,1.9-.44,4.32,4.32,0,0,1,1.31.19,3.28,3.28,0,0,1,1.08.57,2.7,2.7,0,0,1,.74.93,2.83,2.83,0,0,1,.28,1.25,2.55,2.55,0,0,1-.16.88,3,3,0,0,1-.43.76,3.2,3.2,0,0,1-.64.58,3.06,3.06,0,0,1-.77.38l.05,0a2.41,2.41,0,0,1,.91.36,2.63,2.63,0,0,1,.72.65,3.1,3.1,0,0,1,.63,1.87,3.09,3.09,0,0,1-.3,1.39,2.91,2.91,0,0,1-.81,1,3.84,3.84,0,0,1-1.2.64,4.82,4.82,0,0,1-1.44.21,4.53,4.53,0,0,1-2.26-.54A3.29,3.29,0,0,1,146,52.66l1.26-.37a2.45,2.45,0,0,0,.89,1.21,3,3,0,0,0,1.66.39,2.94,2.94,0,0,0,.94-.16,2.49,2.49,0,0,0,.79-.46,2,2,0,0,0,.53-.71,2.13,2.13,0,0,0,.2-.91,2.21,2.21,0,0,0-.25-1.08,2.1,2.1,0,0,0-.67-.72,2.88,2.88,0,0,0-1-.39,5.22,5.22,0,0,0-1.13-.12h-.51Z"/><path d="M160.44,48.93c0-.28,0-.56,0-.84l-.06-.83h1.18V48.4h0a2.54,2.54,0,0,1,1.11-1,3.14,3.14,0,0,1,1.4-.34,4.06,4.06,0,0,1,.67.06,2.46,2.46,0,0,1,.69.24,2.26,2.26,0,0,1,.62.47,2.31,2.31,0,0,1,.49.78,2.52,2.52,0,0,1,1.06-1.13,2.94,2.94,0,0,1,1.5-.42,2.87,2.87,0,0,1,2.21.76A3,3,0,0,1,172,50v4.75h-1.1V50.38a3.13,3.13,0,0,0-.41-1.74A1.75,1.75,0,0,0,169,48a2.15,2.15,0,0,0-1,.23,1.9,1.9,0,0,0-.67.62,2.74,2.74,0,0,0-.38.87,4.9,4.9,0,0,0-.11,1v4h-1.1V50.38a3.13,3.13,0,0,0-.41-1.74,1.75,1.75,0,0,0-1.55-.61l-.46.06a1.86,1.86,0,0,0-.74.36,2.71,2.71,0,0,0-.69.86,3.53,3.53,0,0,0-.3,1.6v3.84h-1.1Z"/><path d="M174.59,48.93c0-.28,0-.56,0-.84l-.06-.83h1.18V48.4h0a2.54,2.54,0,0,1,1.11-1,3.17,3.17,0,0,1,1.4-.34,4.18,4.18,0,0,1,.68.06,2.51,2.51,0,0,1,.68.24,2.3,2.3,0,0,1,.63.47,2.67,2.67,0,0,1,.49.78,2.44,2.44,0,0,1,1-1.13,3,3,0,0,1,1.51-.42,2.9,2.9,0,0,1,2.21.76,3.08,3.08,0,0,1,.71,2.17v4.75h-1.1V50.38a3,3,0,0,0-.41-1.74,1.74,1.74,0,0,0-1.55-.61,2.15,2.15,0,0,0-1,.23,2,2,0,0,0-.67.62,2.52,2.52,0,0,0-.37.87,4.31,4.31,0,0,0-.12,1v4h-1.1V50.38a3,3,0,0,0-.41-1.74,1.74,1.74,0,0,0-1.55-.61l-.45.06a1.75,1.75,0,0,0-.74.36,2.46,2.46,0,0,0-.69.86,3.4,3.4,0,0,0-.31,1.6v3.84h-1.1Z"/></g><g class="cls-2"><path d="M95.28,155.47v7.2H94l-4.59-4.51c-.17-.17-.36-.34-.55-.51a4,4,0,0,0-.61-.47,2.78,2.78,0,0,0-.67-.33,2,2,0,0,0-.73-.13,1.91,1.91,0,0,0-.84.17,1.68,1.68,0,0,0-.62.47,2.08,2.08,0,0,0-.39.7,2.66,2.66,0,0,0-.14.85,2.28,2.28,0,0,0,.48,1.47,2.17,2.17,0,0,0,1.3.79l-.13,1.21a3.18,3.18,0,0,1-2-1.16,3.51,3.51,0,0,1-.72-2.23,4.59,4.59,0,0,1,.18-1.3,3.29,3.29,0,0,1,.55-1.09,2.58,2.58,0,0,1,.92-.75,2.79,2.79,0,0,1,1.29-.28,3.29,3.29,0,0,1,1.2.2,4.46,4.46,0,0,1,1,.52,6.93,6.93,0,0,1,.92.72l.84.84,3.54,3.57v-5.95Z"/><path d="M85,147l10.28,4.56v1.29L85,148.16v5.52H84V147Z"/><path d="M83.76,141.2a3.17,3.17,0,0,1,.56-2,3.78,3.78,0,0,1,1.42-1.17,6.45,6.45,0,0,1,1.9-.56,15.09,15.09,0,0,1,2-.14,15.36,15.36,0,0,1,2,.14,6.3,6.3,0,0,1,1.89.56,3.81,3.81,0,0,1,1.43,1.17,3.75,3.75,0,0,1,0,3.94,3.69,3.69,0,0,1-1.43,1.16,6,6,0,0,1-1.89.56,13.82,13.82,0,0,1-2,.15,13.58,13.58,0,0,1-2-.15,6.17,6.17,0,0,1-1.9-.56,3.66,3.66,0,0,1-1.42-1.16A3.19,3.19,0,0,1,83.76,141.2Zm1,0a2.07,2.07,0,0,0,.5,1.46,3.08,3.08,0,0,0,1.23.81,5.7,5.7,0,0,0,1.57.34c.55.05,1,.08,1.5.08s1,0,1.51-.08a5.71,5.71,0,0,0,1.56-.34,3.11,3.11,0,0,0,1.24-.81,2.06,2.06,0,0,0,.49-1.46,2.09,2.09,0,0,0-.49-1.47,3.2,3.2,0,0,0-1.24-.8,5.72,5.72,0,0,0-1.56-.35c-.56-.05-1.06-.07-1.51-.07s-1,0-1.5.07a5.71,5.71,0,0,0-1.57.35,3.17,3.17,0,0,0-1.23.8A2.09,2.09,0,0,0,84.81,141.2Z"/><path d="M89.45,131.15l-.83,0-.83.06v-1.14h1.13v0a2.53,2.53,0,0,1-1-1.06,3.12,3.12,0,0,1-.33-1.35,3.74,3.74,0,0,1,.06-.65,2.42,2.42,0,0,1,.23-.67,2.34,2.34,0,0,1,.47-.6,2.85,2.85,0,0,1,.79-.47,2.48,2.48,0,0,1-1.14-1,2.87,2.87,0,0,1-.41-1.45,2.73,2.73,0,0,1,.76-2.13,3.1,3.1,0,0,1,2.16-.69h4.76V121H90.91a3.17,3.17,0,0,0-1.75.4,1.65,1.65,0,0,0-.6,1.49,1.91,1.91,0,0,0,.23,1,2,2,0,0,0,.61.65,3,3,0,0,0,.88.36,4.74,4.74,0,0,0,1,.11h4v1H90.91a3.26,3.26,0,0,0-1.75.4,1.67,1.67,0,0,0-.6,1.49,3.37,3.37,0,0,0,.06.44,1.62,1.62,0,0,0,.35.71,2.5,2.5,0,0,0,.87.67,3.49,3.49,0,0,0,1.6.29h3.84v1.06Z"/><path d="M89.45,117.52l-.83,0-.83.06v-1.14h1.13v0a2.59,2.59,0,0,1-1-1.06A3.12,3.12,0,0,1,87.6,114a3.72,3.72,0,0,1,.06-.64,2.42,2.42,0,0,1,.23-.67,2.34,2.34,0,0,1,.47-.6,2.85,2.85,0,0,1,.79-.47,2.45,2.45,0,0,1-1.14-1,2.81,2.81,0,0,1-.41-1.44,2.73,2.73,0,0,1,.76-2.13,3.1,3.1,0,0,1,2.16-.69h4.76v1.06H90.91a3.17,3.17,0,0,0-1.75.4,1.64,1.64,0,0,0-.6,1.48,1.92,1.92,0,0,0,.23,1,1.87,1.87,0,0,0,.61.64,2.55,2.55,0,0,0,.88.36,4.17,4.17,0,0,0,1,.12h4v1H90.91a3.26,3.26,0,0,0-1.75.4,1.66,1.66,0,0,0-.6,1.49,3.61,3.61,0,0,0,.06.44,1.62,1.62,0,0,0,.35.71,2.5,2.5,0,0,0,.87.67,3.63,3.63,0,0,0,1.6.29h3.84v1.06Z"/></g><line class="cls-3" x1="175.82" y1="216.29" x2="123.93" y2="216.29"/><line class="cls-3" x1="177.97" y1="204.07" x2="121.78" y2="204.07"/><line class="cls-3" x1="175.82" y1="216.29" x2="175.82" y2="216.29"/><line class="cls-3" x1="177.58" y1="203.47" x2="177.57" y2="203.47"/><line class="cls-3" x1="155.17" y1="177.1" x2="155.17" y2="177.1"/><line class="cls-3" x1="177.57" y1="203.47" x2="122.19" y2="203.47"/><line class="cls-3" x1="177.98" y1="204.07" x2="177.97" y2="204.07"/><line class="cls-3" x1="123.93" y1="216.29" x2="121.78" y2="204.07"/><polyline class="cls-3" points="155.17 177.1 155.2 179.37 155.22 180.46 155.24 181.54 155.27 182.6 155.31 183.63 155.38 184.64 155.46 185.63 155.57 186.6 155.71 187.53 155.78 187.99 155.88 188.45 155.98 188.9 156.09 189.34 156.21 189.78 156.34 190.21 156.49 190.63 156.64 191.06 156.81 191.47 156.99 191.87 157.18 192.28 157.39 192.67 157.61 193.05 157.84 193.44 158.09 193.81 158.36 194.18 158.64 194.54 158.94 194.89 159.25 195.24 159.58 195.58 159.93 195.92 160.28 196.24 160.66 196.57 161.05 196.88 161.46 197.2 161.88 197.49 162.32 197.79 162.77 198.08 163.25 198.37 163.73 198.64 164.24 198.92 164.75 199.18 165.28 199.44 165.82 199.69 166.38 199.94 166.95 200.19 168.13 200.66 169.36 201.11 170.63 201.55 171.95 201.96 173.3 202.36 174.7 202.74 176.12 203.11 177.58 203.47"/><polyline class="cls-3" points="144.58 177.1 144.56 179.37 144.55 180.46 144.53 181.54 144.5 182.6 144.45 183.63 144.39 184.64 144.3 185.63 144.2 186.6 144.06 187.53 143.97 187.99 143.88 188.45 143.78 188.9 143.68 189.34 143.55 189.78 143.42 190.21 143.28 190.63 143.12 191.06 142.96 191.47 142.77 191.87 142.58 192.28 142.38 192.67 142.15 193.05 141.92 193.44 141.66 193.81 141.4 194.18 141.12 194.54 140.82 194.89 140.51 195.24 140.19 195.58 139.84 195.92 139.48 196.24 139.1 196.57 138.71 196.88 138.3 197.2 137.88 197.49 137.44 197.79 136.99 198.08 136.51 198.37 136.03 198.64 135.52 198.92 135.01 199.18 134.48 199.44 133.94 199.69 133.38 199.94 132.82 200.19 131.63 200.66 130.41 201.11 129.13 201.55 127.82 201.96 126.46 202.36 125.07 202.74 123.64 203.11 122.19 203.47"/><polyline class="cls-3" points="177.98 204.07 177.91 203.71 177.62 203.48 177.58 203.47"/><line class="cls-3" x1="145.44" y1="103.41" x2="144.58" y2="177.1"/><line class="cls-3" x1="154.32" y1="103.41" x2="155.17" y2="177.1"/><polyline class="cls-3" points="122.19 203.47 121.87 203.67 121.78 204.03 121.78 204.07"/><line class="cls-3" x1="175.82" y1="216.29" x2="177.98" y2="204.07"/><line class="cls-3" x1="176.93" y1="78.63" x2="162.85" y2="78.63"/><line class="cls-3" x1="162.85" y1="78.63" x2="122.83" y2="78.63"/><line class="cls-3" x1="162.19" y1="74.03" x2="124.22" y2="74.03"/><line class="cls-3" x1="175.54" y1="74.03" x2="162.19" y2="74.03"/><line class="cls-3" x1="162.31" y1="74.21" x2="123.96" y2="74.21"/><line class="cls-3" x1="175.8" y1="74.21" x2="162.31" y2="74.21"/><polyline class="cls-3" points="122.67 78.43 122.78 78.62 122.83 78.63"/><line class="cls-3" x1="124.22" y1="74.03" x2="123.96" y2="74.21"/><line class="cls-3" x1="123.96" y1="74.21" x2="122.67" y2="78.43"/><polyline class="cls-3" points="176.94 78.63 177.1 78.47 177.09 78.43"/><line class="cls-3" x1="175.8" y1="74.21" x2="175.54" y2="74.03"/><line class="cls-3" x1="175.8" y1="74.21" x2="177.08" y2="78.43"/><line class="cls-3" x1="184.62" y1="103.07" x2="184.61" y2="103.07"/><line class="cls-3" x1="177.25" y1="78.98" x2="177.25" y2="78.98"/><line class="cls-3" x1="177" y1="78.79" x2="176.99" y2="78.79"/><line class="cls-3" x1="184.37" y1="103.41" x2="184.36" y2="103.41"/><line class="cls-3" x1="177" y1="78.79" x2="122.76" y2="78.79"/><line class="cls-3" x1="184.36" y1="103.41" x2="115.4" y2="103.41"/><line class="cls-3" x1="176.43" y1="78.63" x2="176.48" y2="78.79"/><line class="cls-3" x1="123.34" y1="78.63" x2="123.28" y2="78.79"/><line class="cls-3" x1="177.25" y1="78.98" x2="184.62" y2="103.07"/><line class="cls-3" x1="177.25" y1="78.98" x2="177" y2="78.79"/><polyline class="cls-3" points="184.37 103.41 184.62 103.22 184.62 103.07"/><line class="cls-3" x1="122.51" y1="78.98" x2="115.14" y2="103.07"/><line class="cls-3" x1="122.76" y1="78.79" x2="122.51" y2="78.98"/><polyline class="cls-3" points="115.14 103.07 115.25 103.37 115.39 103.41"/><line class="cls-3" x1="174.77" y1="217" x2="174.76" y2="217"/><line class="cls-3" x1="174.76" y1="217" x2="124.99" y2="217"/><line class="cls-3" x1="173.75" y1="216.29" x2="173.75" y2="216.31"/><line class="cls-3" x1="167.92" y1="216.29" x2="167.92" y2="216.31"/><line class="cls-3" x1="174.77" y1="217" x2="174.77" y2="216.29"/><line class="cls-3" x1="124.99" y1="217" x2="124.99" y2="216.29"/></svg>