<svg id="Button_HL" xmlns="http://www.w3.org/2000/svg" viewBox="0 0 300 263"><defs><style>.cls-1,.cls-3{fill:none;stroke-width:0.5px;}.cls-1{stroke:#000;}.cls-2{isolation:isolate;}.cls-3{stroke:#1d1d1b;stroke-miterlimit:3.86;}</style></defs><title>button-hl-ceiling-wall-lissoni-flos-F3190009-spech-tech-02-300x263-01</title><line class="cls-1" x1="227.89" y1="226.74" x2="260.84" y2="226.89"/><line class="cls-1" x1="227.9" y1="225.04" x2="227.88" y2="228.44"/><line class="cls-1" x1="260.85" y1="225.19" x2="260.83" y2="228.59"/><g class="cls-2"><path d="M226,247.11h-1.15l0-9.89-2,1.79-.71-.87,2.88-2.36h1Z"/><path d="M233.81,235.62a3.15,3.15,0,0,1,2,.57,3.69,3.69,0,0,1,1.16,1.43,6.08,6.08,0,0,1,.55,1.9,13.53,13.53,0,0,1,.14,2,13.82,13.82,0,0,1-.15,2,6.4,6.4,0,0,1-.57,1.89,3.78,3.78,0,0,1-1.17,1.42,3.26,3.26,0,0,1-2,.55,3.16,3.16,0,0,1-2-.57,3.69,3.69,0,0,1-1.16-1.43,6.08,6.08,0,0,1-.55-1.9,13.53,13.53,0,0,1-.14-2,13.82,13.82,0,0,1,.15-2,6.49,6.49,0,0,1,.57-1.89,3.78,3.78,0,0,1,1.17-1.42A3.27,3.27,0,0,1,233.81,235.62Zm0,1.06a2,2,0,0,0-1.47.49,3.18,3.18,0,0,0-.81,1.22,6.19,6.19,0,0,0-.35,1.57c0,.55-.08,1.06-.08,1.5s0,.95.07,1.51a5.78,5.78,0,0,0,.34,1.57,3,3,0,0,0,.8,1.23,2.06,2.06,0,0,0,1.46.51,2.14,2.14,0,0,0,1.47-.49,3.19,3.19,0,0,0,.81-1.23,6.19,6.19,0,0,0,.35-1.57c.05-.55.08-1.06.08-1.5s0-1-.07-1.51a5.77,5.77,0,0,0-.33-1.57,3.08,3.08,0,0,0-.81-1.23A2,2,0,0,0,233.8,236.68Z"/><path d="M242.7,235.66a3.18,3.18,0,0,1,2,.57,3.83,3.83,0,0,1,1.16,1.42,6.44,6.44,0,0,1,.55,1.9,13.08,13.08,0,0,1,0,3.95,6.45,6.45,0,0,1-.56,1.9,3.88,3.88,0,0,1-1.18,1.42,3.24,3.24,0,0,1-2,.55,3.15,3.15,0,0,1-2-.57,3.81,3.81,0,0,1-1.17-1.43,6.76,6.76,0,0,1-.55-1.9,13.48,13.48,0,0,1-.13-2,13.82,13.82,0,0,1,.15-2,6.31,6.31,0,0,1,.57-1.89,3.78,3.78,0,0,1,1.17-1.42A3.17,3.17,0,0,1,242.7,235.66Zm0,1.05a2.09,2.09,0,0,0-1.47.49,3.08,3.08,0,0,0-.81,1.23,5.71,5.71,0,0,0-.35,1.57c0,.55-.08,1.05-.08,1.5s0,.95.06,1.51a6.27,6.27,0,0,0,.34,1.57,3.17,3.17,0,0,0,.8,1.23,2.09,2.09,0,0,0,1.47.5,2,2,0,0,0,1.46-.49,3.21,3.21,0,0,0,.82-1.23,6,6,0,0,0,.35-1.56c.05-.56.07-1.06.07-1.51s0-.94-.06-1.5a6.18,6.18,0,0,0-.34-1.57,3.17,3.17,0,0,0-.8-1.23A2.07,2.07,0,0,0,242.7,236.71Z"/><path d="M252.72,241.4a7.85,7.85,0,0,0,0-.84c0-.27,0-.55,0-.83h1.14v1.13h0a2.45,2.45,0,0,1,1.06-1,2.87,2.87,0,0,1,1.36-.33,3.63,3.63,0,0,1,.64.06,2.45,2.45,0,0,1,.67.24,2.34,2.34,0,0,1,.6.47,2.61,2.61,0,0,1,.46.79,2.48,2.48,0,0,1,1-1.13,2.69,2.69,0,0,1,1.45-.41,2.76,2.76,0,0,1,2.13.76,3.15,3.15,0,0,1,.68,2.18l0,4.75h-1.06l0-4.36a3.27,3.27,0,0,0-.39-1.75,1.64,1.64,0,0,0-1.49-.61,1.91,1.91,0,0,0-1,.22,1.93,1.93,0,0,0-.65.62,2.42,2.42,0,0,0-.36.87,4.17,4.17,0,0,0-.12,1l0,4h-1.05v-4.37a3.08,3.08,0,0,0-.39-1.74,1.65,1.65,0,0,0-1.48-.62,2.52,2.52,0,0,0-.44.07,1.68,1.68,0,0,0-.72.34,2.58,2.58,0,0,0-.66.87,3.58,3.58,0,0,0-.31,1.59v3.84H252.7Z"/><path d="M266.36,241.45c0-.27,0-.55,0-.83l-.06-.83h1.14v1.14h0a2.56,2.56,0,0,1,1.07-1,3.05,3.05,0,0,1,1.35-.33,3.9,3.9,0,0,1,.65.07,2,2,0,0,1,.66.24,2.34,2.34,0,0,1,.6.47,2.58,2.58,0,0,1,.47.79,2.45,2.45,0,0,1,1-1.14,2.82,2.82,0,0,1,1.45-.41,2.74,2.74,0,0,1,2.12.77,3.14,3.14,0,0,1,.68,2.17l0,4.76h-1.06l0-4.37a3.25,3.25,0,0,0-.39-1.74,1.67,1.67,0,0,0-1.49-.62,2,2,0,0,0-1,.23,1.9,1.9,0,0,0-.65.61,2.58,2.58,0,0,0-.36.87,4.31,4.31,0,0,0-.12,1l0,4h-1.05l0-4.37a3.11,3.11,0,0,0-.4-1.74,1.65,1.65,0,0,0-1.48-.62l-.44.06a1.74,1.74,0,0,0-.71.35,2.55,2.55,0,0,0-.67.86,3.66,3.66,0,0,0-.31,1.6v3.84h-1.06Z"/></g><line class="cls-1" x1="210.22" y1="226.82" x2="39.15" y2="226.82"/><line class="cls-1" x1="210.22" y1="228.36" x2="210.22" y2="225.19"/><line class="cls-1" x1="39.15" y1="228.36" x2="39.15" y2="225.19"/><g class="cls-2"><path d="M99,240.76a3.7,3.7,0,0,1,.68,1.16,4.2,4.2,0,0,1,.25,1.45,4,4,0,0,1-.3,1.56,3.82,3.82,0,0,1-.82,1.25,4,4,0,0,1-1.26.83,4.39,4.39,0,0,1-1.61.29,4.15,4.15,0,0,1-1.4-.22,3.72,3.72,0,0,1-1.11-.61l-1.07,1.09-.51-.5,1-1.09a3.62,3.62,0,0,1-.69-1.17,4.21,4.21,0,0,1-.24-1.43,4,4,0,0,1,.3-1.57,3.82,3.82,0,0,1,.82-1.25,3.71,3.71,0,0,1,1.26-.82,4.43,4.43,0,0,1,3-.08,4,4,0,0,1,1.16.61l1-1.09.51.5Zm-1.25.25a2.69,2.69,0,0,0-1.81-.62,2.87,2.87,0,0,0-1.17.23,2.71,2.71,0,0,0-.88.63,2.81,2.81,0,0,0-.56.95,3.2,3.2,0,0,0-.2,1.17,3,3,0,0,0,.54,1.82Zm-3.6,4.72a2.33,2.33,0,0,0,.8.45,2.86,2.86,0,0,0,1,.16,3,3,0,0,0,1.18-.23,2.62,2.62,0,0,0,1.45-1.58,3.18,3.18,0,0,0,.2-1.16,3.13,3.13,0,0,0-.54-1.83Z"/><path d="M111.81,243.37h1.63v1h-1.63v2.69h-1.16v-2.69h-4.89v-1.31l4.57-7.33h1.48Zm-1.16-6.44h0l-3.9,6.44h3.93Z"/><path d="M121.63,236.84l-4.56,10.27h-1.3l4.66-10.27h-5.52v-1.06h6.72Z"/><path d="M127.39,235.59a3.24,3.24,0,0,1,2,.56,3.86,3.86,0,0,1,1.17,1.42,6.77,6.77,0,0,1,.56,1.9,14,14,0,0,1,0,3.95,6.77,6.77,0,0,1-.56,1.9,3.86,3.86,0,0,1-1.17,1.42,3.75,3.75,0,0,1-3.94,0,3.86,3.86,0,0,1-1.17-1.42,6.77,6.77,0,0,1-.56-1.9,14,14,0,0,1,0-3.95,6.77,6.77,0,0,1,.56-1.9,3.86,3.86,0,0,1,1.17-1.42A3.24,3.24,0,0,1,127.39,235.59Zm0,1.06a2,2,0,0,0-1.46.49,3.08,3.08,0,0,0-.81,1.23,6.19,6.19,0,0,0-.35,1.57c0,.56-.07,1.06-.07,1.51s0,.94.07,1.5a6.19,6.19,0,0,0,.35,1.57,3.08,3.08,0,0,0,.81,1.23,2.38,2.38,0,0,0,2.92,0,3.08,3.08,0,0,0,.81-1.23A6.19,6.19,0,0,0,130,243c0-.56.07-1.06.07-1.5s0-.95-.07-1.51a6.19,6.19,0,0,0-.35-1.57,3.08,3.08,0,0,0-.81-1.23A2,2,0,0,0,127.39,236.65Z"/><path d="M137.44,241.29q0-.42,0-.84c0-.27,0-.55,0-.83h1.13v1.14h0a2.41,2.41,0,0,1,1.06-1,2.94,2.94,0,0,1,1.35-.34,3.74,3.74,0,0,1,.65.06,2.28,2.28,0,0,1,.66.24,2,2,0,0,1,.6.47,2.47,2.47,0,0,1,.48.78,2.41,2.41,0,0,1,1-1.13,2.79,2.79,0,0,1,1.45-.42,2.73,2.73,0,0,1,2.13.76,3.12,3.12,0,0,1,.69,2.17v4.75h-1.06v-4.37a3.11,3.11,0,0,0-.4-1.74,1.64,1.64,0,0,0-1.49-.61,2,2,0,0,0-1,.23,1.93,1.93,0,0,0-.65.62,2.84,2.84,0,0,0-.36.87,4.74,4.74,0,0,0-.11,1v4h-1.06v-4.37a3.11,3.11,0,0,0-.4-1.74,1.62,1.62,0,0,0-1.48-.61l-.44.06a1.74,1.74,0,0,0-.72.36,2.67,2.67,0,0,0-.66.86,3.51,3.51,0,0,0-.3,1.6v3.84h-1.05Z"/><path d="M151.07,241.29c0-.28,0-.56,0-.84l-.06-.83h1.14v1.14h0a2.47,2.47,0,0,1,1.06-1,3,3,0,0,1,1.35-.34,3.74,3.74,0,0,1,.65.06,2.45,2.45,0,0,1,.67.24,2.34,2.34,0,0,1,.6.47,2.65,2.65,0,0,1,.47.78,2.41,2.41,0,0,1,1-1.13,2.79,2.79,0,0,1,1.45-.42,2.73,2.73,0,0,1,2.13.76,3.12,3.12,0,0,1,.69,2.17v4.75h-1.06v-4.37a3.11,3.11,0,0,0-.4-1.74,1.63,1.63,0,0,0-1.49-.61,1.82,1.82,0,0,0-1.64.85,2.84,2.84,0,0,0-.36.87,4.74,4.74,0,0,0-.11,1v4h-1.05v-4.37a3.2,3.2,0,0,0-.4-1.74,1.65,1.65,0,0,0-1.49-.61l-.44.06a1.65,1.65,0,0,0-.71.36,2.55,2.55,0,0,0-.67.86,3.66,3.66,0,0,0-.29,1.6v3.84h-1.06Z"/></g><rect class="cls-3" x="112.42" y="129.09" width="25.96" height="2.25"/><path class="cls-3" d="M124.69,45.43A85.54,85.54,0,1,1,39.15,131,85.53,85.53,0,0,1,124.69,45.43Z"/><path class="cls-3" d="M125.32,116.35a13.87,13.87,0,1,1-13.92,13.86A13.89,13.89,0,0,1,125.32,116.35Z"/><path class="cls-3" d="M260.83,48.12c0,21.51,0,150.52,0,166.83,0,2.83-19.3,2.4-23.1,2-2.23-.22-1.56-8.06-1.56-8.06l-8.29-19.29V70.13L236,53.32s-.41-4.81,1.2-7.34C238.15,44.43,256.58,46.77,260.83,48.12Z"/><line class="cls-3" x1="235.96" y1="53.32" x2="235.96" y2="208.9"/></svg>