<svg xmlns="http://www.w3.org/2000/svg" viewBox="0 0 300 263"><defs><style>.cls-1,.cls-2,.cls-3,.cls-4,.cls-5{fill:none;stroke-linecap:round;}.cls-1,.cls-2,.cls-5{stroke:red;}.cls-1,.cls-2,.cls-4,.cls-5{stroke-linejoin:round;}.cls-1{stroke-width:0.6px;}.cls-3,.cls-4{stroke:#000;}.cls-3{stroke-miterlimit:10;}.cls-3,.cls-4,.cls-5{stroke-width:0.6px;}</style></defs><title>button-hl-ceiling-wall-lissoni-flos-F3190009-curva-fotometrica</title><g id="numeri_esterni_diagramma" data-name="numeri esterni diagramma"><path d="M249.93,137.18h0a1.24,1.24,0,0,1-.37.12,1.84,1.84,0,0,1-.39,0,1.91,1.91,0,0,1-.68-.12,1.58,1.58,0,0,1-.54-.37,1.63,1.63,0,0,1-.36-.56,2.05,2.05,0,0,1-.13-.72,1.79,1.79,0,0,1,.15-.75,1.48,1.48,0,0,1,.4-.55,1.79,1.79,0,0,1,.6-.35,2,2,0,0,1,.75-.13,2.11,2.11,0,0,1,.75.13,1.79,1.79,0,0,1,.6.35,1.59,1.59,0,0,1,.4.55,1.79,1.79,0,0,1,.14.75,2.15,2.15,0,0,1,0,.45,1.68,1.68,0,0,1-.11.4,2.59,2.59,0,0,1-.17.38l-.21.36-1.51,2.39h-.78Zm-.59-.42a1.28,1.28,0,0,0,.48-.09,1,1,0,0,0,.39-.24,1.23,1.23,0,0,0,.26-.37,1.43,1.43,0,0,0,0-1,1.1,1.1,0,0,0-.65-.62,1.48,1.48,0,0,0-1,0,1.28,1.28,0,0,0-.39.24,1.12,1.12,0,0,0-.26.38,1.3,1.3,0,0,0,0,1,1.08,1.08,0,0,0,.26.37,1,1,0,0,0,.39.24A1.28,1.28,0,0,0,249.34,136.76Z"/><path d="M251.82,136.71a7.07,7.07,0,0,1,.08-1,3.19,3.19,0,0,1,.29-1,2,2,0,0,1,.59-.7,1.54,1.54,0,0,1,1-.28,1.49,1.49,0,0,1,.95.28,1.91,1.91,0,0,1,.59.7,2.94,2.94,0,0,1,.3,1,6.29,6.29,0,0,1,0,2,2.94,2.94,0,0,1-.3.95,1.91,1.91,0,0,1-.59.7,1.49,1.49,0,0,1-.95.28,1.54,1.54,0,0,1-1-.28,2,2,0,0,1-.59-.7,3.19,3.19,0,0,1-.29-.95A7.07,7.07,0,0,1,251.82,136.71Zm.67,0c0,.14,0,.29,0,.46a4.6,4.6,0,0,0,.06.52,4.7,4.7,0,0,0,.12.51,2,2,0,0,0,.23.44,1,1,0,0,0,.34.31,1,1,0,0,0,.48.11,1.06,1.06,0,0,0,.48-.11,1.24,1.24,0,0,0,.34-.31,1.65,1.65,0,0,0,.22-.44,3.18,3.18,0,0,0,.13-.51,4.6,4.6,0,0,0,.06-.52c0-.17,0-.32,0-.46s0-.29,0-.46a4.6,4.6,0,0,0-.06-.52,3.18,3.18,0,0,0-.13-.51,1.65,1.65,0,0,0-.22-.44,1.24,1.24,0,0,0-.34-.31,1.06,1.06,0,0,0-.48-.11,1,1,0,0,0-.48.11,1,1,0,0,0-.34.31,2,2,0,0,0-.23.44,4.7,4.7,0,0,0-.12.51,4.6,4.6,0,0,0-.06.52C252.5,136.42,252.49,136.57,252.49,136.71Z"/><path d="M256.42,134.93a1.13,1.13,0,0,1,.09-.45,1.31,1.31,0,0,1,.24-.37,1.18,1.18,0,0,1,.37-.24,1,1,0,0,1,.44-.09,1.13,1.13,0,0,1,.45.09,1.06,1.06,0,0,1,.61.61,1.13,1.13,0,0,1,.09.45,1,1,0,0,1-.09.44,1.06,1.06,0,0,1-.61.61,1.13,1.13,0,0,1-.45.09,1,1,0,0,1-.44-.09,1.18,1.18,0,0,1-.37-.24,1.31,1.31,0,0,1-.24-.37A1,1,0,0,1,256.42,134.93Zm.43,0a.69.69,0,0,0,0,.24,1,1,0,0,0,.15.24.73.73,0,0,0,.51.23.54.54,0,0,0,.29-.07.63.63,0,0,0,.23-.16.72.72,0,0,0,.14-.24.52.52,0,0,0,0-.24.56.56,0,0,0,0-.25.59.59,0,0,0-.14-.23.74.74,0,0,0-.52-.24.73.73,0,0,0-.29.07.62.62,0,0,0-.22.17.76.76,0,0,0-.15.23A.74.74,0,0,0,256.85,134.93Z"/><path d="M41.57,137.18h0a1.34,1.34,0,0,1-.37.12,2,2,0,0,1-.39,0,1.92,1.92,0,0,1-.69-.12,1.58,1.58,0,0,1-.54-.37,1.8,1.8,0,0,1-.36-.56,2.05,2.05,0,0,1-.13-.72,1.79,1.79,0,0,1,.15-.75,1.48,1.48,0,0,1,.4-.55,1.79,1.79,0,0,1,.6-.35,2.23,2.23,0,0,1,1.5,0,1.79,1.79,0,0,1,.6.35,1.48,1.48,0,0,1,.4.55,1.79,1.79,0,0,1,.15.75,3.14,3.14,0,0,1,0,.45,2.34,2.34,0,0,1-.12.4,1.84,1.84,0,0,1-.17.38,3.35,3.35,0,0,1-.21.36l-1.5,2.39h-.79Zm-.59-.42a1.28,1.28,0,0,0,.48-.09,1,1,0,0,0,.39-.24,1.23,1.23,0,0,0,.26-.37,1.3,1.3,0,0,0,0-1,1.1,1.1,0,0,0-.65-.62,1.48,1.48,0,0,0-1,0,1.1,1.1,0,0,0-.65.62,1.43,1.43,0,0,0,0,1,1.23,1.23,0,0,0,.26.37,1,1,0,0,0,.39.24A1.28,1.28,0,0,0,41,136.76Z"/><path d="M43.46,136.71a7.07,7.07,0,0,1,.08-1,2.94,2.94,0,0,1,.3-1,1.91,1.91,0,0,1,.59-.7,1.49,1.49,0,0,1,1-.28,1.54,1.54,0,0,1,1,.28,2,2,0,0,1,.59.7,3.19,3.19,0,0,1,.29,1,6.29,6.29,0,0,1,0,2,3.19,3.19,0,0,1-.29.95,2,2,0,0,1-.59.7,1.54,1.54,0,0,1-1,.28,1.49,1.49,0,0,1-1-.28,1.91,1.91,0,0,1-.59-.7,2.94,2.94,0,0,1-.3-.95A7.07,7.07,0,0,1,43.46,136.71Zm.67,0c0,.14,0,.29,0,.46a4.6,4.6,0,0,0,.06.52,3.18,3.18,0,0,0,.13.51,1.65,1.65,0,0,0,.22.44,1.12,1.12,0,0,0,.34.31,1.1,1.1,0,0,0,1,0,1.12,1.12,0,0,0,.34-.31,2,2,0,0,0,.23-.44,4.7,4.7,0,0,0,.12-.51,4.6,4.6,0,0,0,.06-.52c0-.17,0-.32,0-.46s0-.29,0-.46a4.6,4.6,0,0,0-.06-.52,4.7,4.7,0,0,0-.12-.51,2,2,0,0,0-.23-.44,1.12,1.12,0,0,0-.34-.31,1.1,1.1,0,0,0-1,0,1.12,1.12,0,0,0-.34.31,1.65,1.65,0,0,0-.22.44,3.18,3.18,0,0,0-.13.51,4.6,4.6,0,0,0-.06.52C44.14,136.42,44.13,136.57,44.13,136.71Z"/><path d="M48.06,134.93a1.13,1.13,0,0,1,.09-.45,1.06,1.06,0,0,1,.61-.61,1.13,1.13,0,0,1,.45-.09,1.08,1.08,0,0,1,.44.09,1.06,1.06,0,0,1,.61.61,1.13,1.13,0,0,1,.09.45,1,1,0,0,1-.09.44,1.06,1.06,0,0,1-.61.61,1.08,1.08,0,0,1-.44.09,1.13,1.13,0,0,1-.45-.09,1.06,1.06,0,0,1-.61-.61A1,1,0,0,1,48.06,134.93Zm.43,0a.53.53,0,0,0,.06.24.72.72,0,0,0,.14.24.69.69,0,0,0,.22.16.6.6,0,0,0,.3.07.73.73,0,0,0,.51-.23,1,1,0,0,0,.15-.24.69.69,0,0,0,.05-.24.74.74,0,0,0-.05-.25.76.76,0,0,0-.15-.23.62.62,0,0,0-.22-.17.73.73,0,0,0-.29-.07.73.73,0,0,0-.3.07.72.72,0,0,0-.22.17.59.59,0,0,0-.14.23A.57.57,0,0,0,48.49,134.93Z"/><path d="M148.37,38.51h-.68v-4.8h0l-1,.85-.4-.48,1.52-1.24h.59Z"/><path d="M150.49,34.23a1.48,1.48,0,0,1,.13-.61,1.2,1.2,0,0,1,.34-.46,1.44,1.44,0,0,1,.51-.3,1.92,1.92,0,0,1,1.28,0,1.44,1.44,0,0,1,.51.3,1.2,1.2,0,0,1,.34.46,1.33,1.33,0,0,1,.13.61,1.16,1.16,0,0,1-.07.4,1.41,1.41,0,0,1-.18.37,1.33,1.33,0,0,1-.29.29,1.18,1.18,0,0,1-.39.19h0a1.44,1.44,0,0,1,.46.19,1.35,1.35,0,0,1,.35.32,1.42,1.42,0,0,1,.23.44,1.7,1.7,0,0,1,.08.51,1.74,1.74,0,0,1-.14.69,1.43,1.43,0,0,1-.39.52,1.47,1.47,0,0,1-.57.33,2.35,2.35,0,0,1-1.42,0,1.47,1.47,0,0,1-.57-.33,1.55,1.55,0,0,1-.39-.52,1.74,1.74,0,0,1-.14-.69,1.7,1.7,0,0,1,.08-.51,1.67,1.67,0,0,1,.23-.44,1.35,1.35,0,0,1,.35-.32,1.44,1.44,0,0,1,.46-.19h0a1.18,1.18,0,0,1-.39-.19,1.33,1.33,0,0,1-.29-.29,1.41,1.41,0,0,1-.18-.37A1.46,1.46,0,0,1,150.49,34.23ZM151,36.9a1.18,1.18,0,0,0,.09.46,1.07,1.07,0,0,0,.25.35,1,1,0,0,0,.36.23,1.12,1.12,0,0,0,.88,0,1,1,0,0,0,.36-.23,1.07,1.07,0,0,0,.25-.35,1.18,1.18,0,0,0,.09-.46,1.14,1.14,0,0,0-.09-.46,1.13,1.13,0,0,0-.61-.58,1.12,1.12,0,0,0-.88,0,1.13,1.13,0,0,0-.61.58A1.14,1.14,0,0,0,151,36.9Zm.2-2.64a.88.88,0,0,0,.26.67,1,1,0,0,0,1.36,0,1,1,0,0,0,0-1.34,1,1,0,0,0-1.36,0A.88.88,0,0,0,151.17,34.26Z"/><path d="M154.64,35.68a7,7,0,0,1,.08-1,3.1,3.1,0,0,1,.29-1,2,2,0,0,1,.59-.71,1.6,1.6,0,0,1,1-.27,1.55,1.55,0,0,1,.95.27,1.94,1.94,0,0,1,.59.71,2.86,2.86,0,0,1,.3,1,7,7,0,0,1,.08,1,7.07,7.07,0,0,1-.08,1,2.88,2.88,0,0,1-.3.94,1.94,1.94,0,0,1-.59.71,1.55,1.55,0,0,1-.95.27,1.6,1.6,0,0,1-1-.27,2,2,0,0,1-.59-.71,3.13,3.13,0,0,1-.29-.94A7.07,7.07,0,0,1,154.64,35.68Zm.67,0c0,.13,0,.29,0,.46a4.88,4.88,0,0,0,.06.52,4.05,4.05,0,0,0,.12.5,1.66,1.66,0,0,0,.23.44,1.12,1.12,0,0,0,.34.31,1,1,0,0,0,1,0,1.12,1.12,0,0,0,.34-.31,1.4,1.4,0,0,0,.22-.44,2.83,2.83,0,0,0,.13-.5,4.88,4.88,0,0,0,.06-.52c0-.17,0-.33,0-.46s0-.3,0-.47a4.43,4.43,0,0,0-.06-.51,2.72,2.72,0,0,0-.13-.51,1.51,1.51,0,0,0-.22-.44,1.12,1.12,0,0,0-.34-.31,1,1,0,0,0-1,0,1.12,1.12,0,0,0-.34.31,1.83,1.83,0,0,0-.23.44,3.81,3.81,0,0,0-.12.51,4.43,4.43,0,0,0-.06.51C155.32,35.38,155.31,35.54,155.31,35.68Z"/><path d="M159.24,33.89a1.15,1.15,0,0,1,.33-.81,1,1,0,0,1,.37-.24,1,1,0,0,1,.44-.09,1.15,1.15,0,0,1,.82,2,1.15,1.15,0,0,1-.37.25,1.13,1.13,0,0,1-.45.09,1.15,1.15,0,0,1-.81-.34,1.15,1.15,0,0,1-.33-.81Zm.43,0a.79.79,0,0,0,.05.25,1.14,1.14,0,0,0,.15.23.62.62,0,0,0,.22.17.72.72,0,0,0,.29.06.68.68,0,0,0,.52-.23.79.79,0,0,0,.14-.23.65.65,0,0,0,0-.5.79.79,0,0,0-.14-.23.81.81,0,0,0-.23-.17.65.65,0,0,0-.29-.06.72.72,0,0,0-.29.06.76.76,0,0,0-.22.17,1.14,1.14,0,0,0-.15.23A.79.79,0,0,0,159.67,33.89Z"/><path d="M148.27,239.2a6.85,6.85,0,0,1,.08-1,3.41,3.41,0,0,1,.3-.95,1.94,1.94,0,0,1,.59-.71,1.57,1.57,0,0,1,.95-.27,1.6,1.6,0,0,1,1,.27,2,2,0,0,1,.59.71,3.1,3.1,0,0,1,.29.95,5.7,5.7,0,0,1,.08,1,5.85,5.85,0,0,1-.08,1,3.13,3.13,0,0,1-.29.94,2,2,0,0,1-.59.71,1.6,1.6,0,0,1-1,.27,1.57,1.57,0,0,1-.95-.27,1.94,1.94,0,0,1-.59-.71,3.45,3.45,0,0,1-.3-.94A7.07,7.07,0,0,1,148.27,239.2Zm.68,0c0,.13,0,.29,0,.46a4.88,4.88,0,0,0,.06.52,2.83,2.83,0,0,0,.13.5,1.65,1.65,0,0,0,.22.44,1.24,1.24,0,0,0,.34.31,1,1,0,0,0,.48.12.9.9,0,0,0,.48-.12,1,1,0,0,0,.34-.31,1.41,1.41,0,0,0,.23-.44,4.07,4.07,0,0,0,.13-.5c0-.18,0-.35.06-.52s0-.33,0-.46,0-.3,0-.47,0-.34-.06-.51a3.8,3.8,0,0,0-.13-.51,1.53,1.53,0,0,0-.23-.44,1,1,0,0,0-.34-.31.9.9,0,0,0-.48-.12,1,1,0,0,0-.48.12,1.24,1.24,0,0,0-.34.31,1.81,1.81,0,0,0-.22.44,2.72,2.72,0,0,0-.13.51,4.43,4.43,0,0,0-.06.51C149,238.9,149,239.06,149,239.2Z"/><path d="M152.83,237.41a1.33,1.33,0,0,1,.08-.45,1.11,1.11,0,0,1,.25-.36,1,1,0,0,1,.36-.24,1.17,1.17,0,0,1,.9,0,1,1,0,0,1,.36.24,1.11,1.11,0,0,1,.25.36,1.31,1.31,0,0,1,0,.9,1.23,1.23,0,0,1-.61.61,1.17,1.17,0,0,1-.9,0,1.23,1.23,0,0,1-.61-.61A1.33,1.33,0,0,1,152.83,237.41Zm.43,0a.79.79,0,0,0,.05.25.68.68,0,0,0,.14.23.66.66,0,0,0,.23.17.73.73,0,0,0,.58,0,.76.76,0,0,0,.23-.17.88.88,0,0,0,.14-.23.65.65,0,0,0,0-.5,1.09,1.09,0,0,0-.14-.23,1,1,0,0,0-.23-.17.73.73,0,0,0-.58,0,.81.81,0,0,0-.23.17.75.75,0,0,0-.19.48Z"/><path d="M203.17,238.76h.21l.43,0a1.15,1.15,0,0,0,.42-.13.77.77,0,0,0,.31-.31.94.94,0,0,0,.13-.51.87.87,0,0,0-.27-.68,1,1,0,0,0-.7-.26,1.28,1.28,0,0,0-.63.16,1.14,1.14,0,0,0-.41.48l-.65-.25a1.48,1.48,0,0,1,.65-.72,2.07,2.07,0,0,1,1-.24,2.25,2.25,0,0,1,.64.09,1.72,1.72,0,0,1,.54.28,1.37,1.37,0,0,1,.37.46,1.48,1.48,0,0,1,.14.65,1.29,1.29,0,0,1-.27.8,1.34,1.34,0,0,1-.7.49v0a1.48,1.48,0,0,1,.85.49,1.37,1.37,0,0,1,.23.43,1.69,1.69,0,0,1,.08.5,1.66,1.66,0,0,1-.15.72,1.57,1.57,0,0,1-.41.51,1.71,1.71,0,0,1-.6.31,2.34,2.34,0,0,1-.71.1,2.18,2.18,0,0,1-1.13-.28,1.61,1.61,0,0,1-.7-.91l.68-.22a1.33,1.33,0,0,0,.41.65,1.3,1.3,0,0,0,.74.19,1.33,1.33,0,0,0,.45-.08,1.11,1.11,0,0,0,.36-.23,1.24,1.24,0,0,0,.25-.35,1.13,1.13,0,0,0,.09-.45,1.07,1.07,0,0,0-.12-.53,1,1,0,0,0-.33-.33,1.23,1.23,0,0,0-.46-.18,2.31,2.31,0,0,0-.52-.06h-.21Z"/><path d="M206.24,239.2a6.85,6.85,0,0,1,.08-1,3.11,3.11,0,0,1,.3-.95,1.94,1.94,0,0,1,.59-.71,1.55,1.55,0,0,1,.95-.27,1.6,1.6,0,0,1,1,.27,2,2,0,0,1,.59.71,3.1,3.1,0,0,1,.29.95,5.7,5.7,0,0,1,.08,1,5.85,5.85,0,0,1-.08,1,3.13,3.13,0,0,1-.29.94,2,2,0,0,1-.59.71,1.6,1.6,0,0,1-1,.27,1.55,1.55,0,0,1-.95-.27,1.94,1.94,0,0,1-.59-.71,3.14,3.14,0,0,1-.3-.94A7.07,7.07,0,0,1,206.24,239.2Zm.67,0c0,.13,0,.29,0,.46a4.88,4.88,0,0,0,.06.52,2.83,2.83,0,0,0,.13.5,1.4,1.4,0,0,0,.22.44,1.24,1.24,0,0,0,.34.31,1,1,0,0,0,.48.12.9.9,0,0,0,.48-.12,1,1,0,0,0,.34-.31,1.41,1.41,0,0,0,.23-.44,4.05,4.05,0,0,0,.12-.5,4.88,4.88,0,0,0,.06-.52,3.86,3.86,0,0,0,0-.46,3.94,3.94,0,0,0,0-.47,4.43,4.43,0,0,0-.06-.51,3.81,3.81,0,0,0-.12-.51,1.53,1.53,0,0,0-.23-.44,1,1,0,0,0-.34-.31.9.9,0,0,0-.48-.12,1,1,0,0,0-.48.12,1.24,1.24,0,0,0-.34.31,1.51,1.51,0,0,0-.22.44,2.72,2.72,0,0,0-.13.51,4.43,4.43,0,0,0-.06.51C206.92,238.9,206.91,239.06,206.91,239.2Z"/><path d="M210.84,237.41a1.13,1.13,0,0,1,.09-.45,1.26,1.26,0,0,1,.24-.36,1.2,1.2,0,0,1,.82-.33,1,1,0,0,1,.44.09,1.12,1.12,0,0,1,.37.24,1.26,1.26,0,0,1,.24.36,1.16,1.16,0,0,1-.24,1.26,1.15,1.15,0,0,1-.37.25,1,1,0,0,1-.44.09,1.13,1.13,0,0,1-.45-.09,1.15,1.15,0,0,1-.37-.25,1.15,1.15,0,0,1-.33-.81Zm.43,0a.61.61,0,0,0,.06.25.68.68,0,0,0,.14.23.72.72,0,0,0,.22.17.73.73,0,0,0,.3.06.72.72,0,0,0,.29-.06.62.62,0,0,0,.22-.17.91.91,0,0,0,.15-.23.65.65,0,0,0,0-.5,1.14,1.14,0,0,0-.15-.23.76.76,0,0,0-.22-.17.72.72,0,0,0-.29-.06.73.73,0,0,0-.3.06.92.92,0,0,0-.22.17.79.79,0,0,0-.14.23A.61.61,0,0,0,211.27,237.41Z"/><path d="M93.6,238.76h.21l.44,0a1.1,1.1,0,0,0,.41-.13.86.86,0,0,0,.32-.31.94.94,0,0,0,.12-.51.87.87,0,0,0-.27-.68,1,1,0,0,0-.7-.26,1.21,1.21,0,0,0-.62.16,1.1,1.1,0,0,0-.42.48l-.65-.25a1.45,1.45,0,0,1,.66-.72,2,2,0,0,1,1-.24,2.32,2.32,0,0,1,.65.09,2,2,0,0,1,.54.28,1.67,1.67,0,0,1,.37.46,1.48,1.48,0,0,1,.13.65,1.29,1.29,0,0,1-.27.8,1.34,1.34,0,0,1-.7.49v0a1.31,1.31,0,0,1,.49.18,1.34,1.34,0,0,1,.36.31,1.37,1.37,0,0,1,.23.43,1.42,1.42,0,0,1,.08.5,1.66,1.66,0,0,1-.15.72,1.57,1.57,0,0,1-.41.51,1.75,1.75,0,0,1-.59.31,2.46,2.46,0,0,1-.72.1,2.18,2.18,0,0,1-1.13-.28,1.56,1.56,0,0,1-.69-.91l.68-.22a1.2,1.2,0,0,0,.41.65,1.27,1.27,0,0,0,.73.19,1.33,1.33,0,0,0,.45-.08,1.11,1.11,0,0,0,.36-.23,1.07,1.07,0,0,0,.25-.35,1.13,1.13,0,0,0,.09-.45,1.07,1.07,0,0,0-.12-.53.87.87,0,0,0-.33-.33,1.17,1.17,0,0,0-.46-.18,2.24,2.24,0,0,0-.52-.06H93.6Z"/><path d="M96.68,239.2a5.7,5.7,0,0,1,.08-1,3.1,3.1,0,0,1,.29-.95,2,2,0,0,1,.59-.71,1.6,1.6,0,0,1,1-.27,1.57,1.57,0,0,1,1,.27,1.94,1.94,0,0,1,.59.71,3.41,3.41,0,0,1,.3.95,6.85,6.85,0,0,1,.08,1,7.07,7.07,0,0,1-.08,1,3.45,3.45,0,0,1-.3.94,1.94,1.94,0,0,1-.59.71,1.57,1.57,0,0,1-1,.27,1.6,1.6,0,0,1-1-.27,2,2,0,0,1-.59-.71,3.13,3.13,0,0,1-.29-.94A5.85,5.85,0,0,1,96.68,239.2Zm.67,0c0,.13,0,.29,0,.46a4.88,4.88,0,0,0,.06.52,4.07,4.07,0,0,0,.13.5,1.41,1.41,0,0,0,.23.44,1,1,0,0,0,.34.31.9.9,0,0,0,.48.12,1,1,0,0,0,.48-.12,1.24,1.24,0,0,0,.34-.31,1.65,1.65,0,0,0,.22-.44,2.83,2.83,0,0,0,.13-.5,4.88,4.88,0,0,0,.06-.52c0-.17,0-.33,0-.46s0-.3,0-.47a4.43,4.43,0,0,0-.06-.51,2.72,2.72,0,0,0-.13-.51,1.81,1.81,0,0,0-.22-.44,1.24,1.24,0,0,0-.34-.31,1,1,0,0,0-.48-.12.9.9,0,0,0-.48.12,1,1,0,0,0-.34.31,1.53,1.53,0,0,0-.23.44,3.8,3.8,0,0,0-.13.51,4.43,4.43,0,0,0-.06.51C97.35,238.9,97.35,239.06,97.35,239.2Z"/><path d="M101.28,237.41a1.33,1.33,0,0,1,.08-.45,1.11,1.11,0,0,1,.25-.36,1,1,0,0,1,.36-.24,1.17,1.17,0,0,1,.9,0,1,1,0,0,1,.36.24,1.11,1.11,0,0,1,.25.36,1.31,1.31,0,0,1,0,.9,1.23,1.23,0,0,1-.61.61,1.17,1.17,0,0,1-.9,0,1.23,1.23,0,0,1-.61-.61A1.33,1.33,0,0,1,101.28,237.41Zm.43,0a.79.79,0,0,0,.05.25.68.68,0,0,0,.14.23.76.76,0,0,0,.23.17.73.73,0,0,0,.58,0,.66.66,0,0,0,.23-.17.68.68,0,0,0,.14-.23.71.71,0,0,0-.14-.73.81.81,0,0,0-.23-.17.73.73,0,0,0-.58,0,1,1,0,0,0-.23.17.75.75,0,0,0-.19.48Z"/><path d="M203.18,38.51h-.68v-4.8h0l-1,.85-.4-.48,1.52-1.24h.59Z"/><path d="M208.49,33.47h-2.31l0,1.53a1.08,1.08,0,0,1,.36-.11l.37,0a2,2,0,0,1,.74.14,1.61,1.61,0,0,1,.57.39,1.9,1.9,0,0,1,.37.59,2,2,0,0,1,.13.74,2,2,0,0,1-.15.78,1.74,1.74,0,0,1-.41.59,1.91,1.91,0,0,1-.61.38,2.2,2.2,0,0,1-.78.13,1.73,1.73,0,0,1-1-.28,2,2,0,0,1-.63-.75l.67-.25a1.31,1.31,0,0,0,.42.51,1.1,1.1,0,0,0,.64.2,1.28,1.28,0,0,0,.48-.09,1.26,1.26,0,0,0,.38-.27,1.15,1.15,0,0,0,.26-.41,1.53,1.53,0,0,0,.1-.54,1.38,1.38,0,0,0-.11-.55,1.08,1.08,0,0,0-.3-.4,1.26,1.26,0,0,0-.44-.25,1.67,1.67,0,0,0-.55-.08,1.84,1.84,0,0,0-.6.1,2.58,2.58,0,0,0-.56.25l.06-2.95h3Z"/><path d="M209.45,35.68a7,7,0,0,1,.08-1,3.1,3.1,0,0,1,.29-1,2,2,0,0,1,.59-.71,1.6,1.6,0,0,1,1-.27,1.55,1.55,0,0,1,.95.27,1.94,1.94,0,0,1,.59.71,2.86,2.86,0,0,1,.3,1,7,7,0,0,1,.08,1,7.07,7.07,0,0,1-.08,1,2.88,2.88,0,0,1-.3.94,1.94,1.94,0,0,1-.59.71,1.55,1.55,0,0,1-.95.27,1.6,1.6,0,0,1-1-.27,2,2,0,0,1-.59-.71,3.13,3.13,0,0,1-.29-.94A7.07,7.07,0,0,1,209.45,35.68Zm.67,0c0,.13,0,.29,0,.46a4.88,4.88,0,0,0,.06.52,4.05,4.05,0,0,0,.12.5,1.66,1.66,0,0,0,.23.44,1,1,0,0,0,.34.31.9.9,0,0,0,.48.12,1,1,0,0,0,.48-.12,1.24,1.24,0,0,0,.34-.31,1.4,1.4,0,0,0,.22-.44,2.83,2.83,0,0,0,.13-.5,4.88,4.88,0,0,0,.06-.52c0-.17,0-.33,0-.46s0-.3,0-.47a4.43,4.43,0,0,0-.06-.51,2.72,2.72,0,0,0-.13-.51,1.51,1.51,0,0,0-.22-.44,1.24,1.24,0,0,0-.34-.31,1,1,0,0,0-.48-.12.9.9,0,0,0-.48.12,1,1,0,0,0-.34.31,1.83,1.83,0,0,0-.23.44,3.81,3.81,0,0,0-.12.51,4.43,4.43,0,0,0-.06.51C210.13,35.38,210.12,35.54,210.12,35.68Z"/><path d="M214.05,33.89a1.15,1.15,0,0,1,.33-.81,1,1,0,0,1,.37-.24,1,1,0,0,1,.44-.09,1.13,1.13,0,0,1,.45.09,1,1,0,0,1,.36.24,1,1,0,0,1,.25.36,1.17,1.17,0,0,1,0,.9,1.23,1.23,0,0,1-.61.61,1.13,1.13,0,0,1-.45.09,1.15,1.15,0,0,1-.81-.34,1.15,1.15,0,0,1-.33-.81Zm.43,0a.79.79,0,0,0,.05.25,1.14,1.14,0,0,0,.15.23.62.62,0,0,0,.22.17.72.72,0,0,0,.29.06.68.68,0,0,0,.52-.23.79.79,0,0,0,.14-.23.65.65,0,0,0,0-.5.79.79,0,0,0-.14-.23.81.81,0,0,0-.23-.17.65.65,0,0,0-.29-.06.72.72,0,0,0-.29.06.76.76,0,0,0-.22.17,1.14,1.14,0,0,0-.15.23A.79.79,0,0,0,214.48,33.89Z"/><path d="M93.61,38.51h-.67v-4.8h0l-1,.85-.4-.48L93,32.84h.58Z"/><path d="M98.92,33.47H96.61l0,1.53a1,1,0,0,1,.35-.11l.37,0a1.91,1.91,0,0,1,.74.14,1.65,1.65,0,0,1,.58.39A1.71,1.71,0,0,1,99,36a2,2,0,0,1,.13.74,2,2,0,0,1-.15.78,1.71,1.71,0,0,1-.4.59,2,2,0,0,1-.62.38,2.15,2.15,0,0,1-.77.13,1.78,1.78,0,0,1-1.05-.28,1.85,1.85,0,0,1-.62-.75l.67-.25a1.16,1.16,0,0,0,.42.51,1.05,1.05,0,0,0,.63.2,1.28,1.28,0,0,0,.48-.09,1.23,1.23,0,0,0,.64-.68,1.33,1.33,0,0,0,.1-.54,1.38,1.38,0,0,0-.11-.55,1.18,1.18,0,0,0-.29-.4,1.41,1.41,0,0,0-.45-.25,1.63,1.63,0,0,0-.55-.08,1.78,1.78,0,0,0-.59.1,2.58,2.58,0,0,0-.56.25l0-2.95h3Z"/><path d="M99.88,35.68a7,7,0,0,1,.08-1,3.11,3.11,0,0,1,.3-1,1.94,1.94,0,0,1,.59-.71,1.55,1.55,0,0,1,1-.27,1.6,1.6,0,0,1,1,.27,2,2,0,0,1,.59.71,3.1,3.1,0,0,1,.29,1,5.77,5.77,0,0,1,.08,1,5.85,5.85,0,0,1-.08,1,3.13,3.13,0,0,1-.29.94,2,2,0,0,1-.59.71,1.6,1.6,0,0,1-1,.27,1.55,1.55,0,0,1-1-.27,1.94,1.94,0,0,1-.59-.71,3.14,3.14,0,0,1-.3-.94A7.07,7.07,0,0,1,99.88,35.68Zm.67,0c0,.13,0,.29,0,.46a4.88,4.88,0,0,0,.06.52,2.83,2.83,0,0,0,.13.5,1.4,1.4,0,0,0,.22.44,1.24,1.24,0,0,0,.34.31,1,1,0,0,0,.48.12.9.9,0,0,0,.48-.12,1,1,0,0,0,.34-.31,1.41,1.41,0,0,0,.23-.44,4.05,4.05,0,0,0,.12-.5,4.88,4.88,0,0,0,.06-.52c0-.17,0-.33,0-.46s0-.3,0-.47a4.43,4.43,0,0,0-.06-.51,3.81,3.81,0,0,0-.12-.51,1.53,1.53,0,0,0-.23-.44,1,1,0,0,0-.34-.31.9.9,0,0,0-.48-.12,1,1,0,0,0-.48.12,1.24,1.24,0,0,0-.34.31,1.51,1.51,0,0,0-.22.44,2.72,2.72,0,0,0-.13.51,4.43,4.43,0,0,0-.06.51C100.56,35.38,100.55,35.54,100.55,35.68Z"/><path d="M104.48,33.89a1.15,1.15,0,0,1,1.15-1.14,1,1,0,0,1,.44.09,1.12,1.12,0,0,1,.37.24,1.16,1.16,0,0,1,0,1.62,1.15,1.15,0,0,1-.37.25,1,1,0,0,1-.44.09,1.13,1.13,0,0,1-.45-.09,1.15,1.15,0,0,1-.37-.25,1.15,1.15,0,0,1-.33-.81Zm.43,0a.61.61,0,0,0,.06.25.79.79,0,0,0,.14.23.72.72,0,0,0,.22.17.73.73,0,0,0,.3.06.72.72,0,0,0,.29-.06.62.62,0,0,0,.22-.17,1.14,1.14,0,0,0,.15-.23.65.65,0,0,0,0-.5,1.14,1.14,0,0,0-.15-.23.76.76,0,0,0-.22-.17.72.72,0,0,0-.29-.06.73.73,0,0,0-.3.06.92.92,0,0,0-.22.17.79.79,0,0,0-.14.23A.61.61,0,0,0,104.91,33.89Z"/><path d="M248.75,192.45v0a1.35,1.35,0,0,1,.37-.13,2,2,0,0,1,.39,0,1.73,1.73,0,0,1,.69.13,1.42,1.42,0,0,1,.54.36,1.85,1.85,0,0,1,.36.57,2,2,0,0,1,.12.72,1.78,1.78,0,0,1-.14.74,1.74,1.74,0,0,1-.4.56,2,2,0,0,1-.6.35,2.36,2.36,0,0,1-.75.12,2.27,2.27,0,0,1-.75-.12,2,2,0,0,1-.6-.35,1.6,1.6,0,0,1-.4-.56,1.78,1.78,0,0,1-.15-.74,2.24,2.24,0,0,1,.15-.86,5.28,5.28,0,0,1,.39-.74l1.5-2.39h.79Zm.59.43a1.23,1.23,0,0,0-.87.32,1,1,0,0,0-.26.38,1.31,1.31,0,0,0-.1.5,1.35,1.35,0,0,0,.1.5,1.08,1.08,0,0,0,.26.37,1,1,0,0,0,.39.24,1.32,1.32,0,0,0,1,0,1,1,0,0,0,.39-.24,1.23,1.23,0,0,0,.26-.37,1.35,1.35,0,0,0,.09-.5,1.31,1.31,0,0,0-.09-.5,1.16,1.16,0,0,0-.26-.38,1.23,1.23,0,0,0-.87-.32Z"/><path d="M251.82,192.92a7.07,7.07,0,0,1,.08-1,3.13,3.13,0,0,1,.29-.94,2,2,0,0,1,.59-.71,1.6,1.6,0,0,1,1-.27,1.55,1.55,0,0,1,.95.27,1.94,1.94,0,0,1,.59.71,2.88,2.88,0,0,1,.3.94,7.07,7.07,0,0,1,.08,1,7,7,0,0,1-.08,1,2.86,2.86,0,0,1-.3,1,1.94,1.94,0,0,1-.59.71,1.55,1.55,0,0,1-.95.27,1.6,1.6,0,0,1-1-.27,2,2,0,0,1-.59-.71,3.1,3.1,0,0,1-.29-1A7,7,0,0,1,251.82,192.92Zm.67,0c0,.14,0,.3,0,.47a4.43,4.43,0,0,0,.06.51,3.81,3.81,0,0,0,.12.51,1.83,1.83,0,0,0,.23.44,1,1,0,0,0,.34.31.9.9,0,0,0,.48.12,1,1,0,0,0,.48-.12,1.24,1.24,0,0,0,.34-.31,1.51,1.51,0,0,0,.22-.44,2.72,2.72,0,0,0,.13-.51,4.43,4.43,0,0,0,.06-.51c0-.17,0-.33,0-.47s0-.29,0-.46a4.88,4.88,0,0,0-.06-.52,2.83,2.83,0,0,0-.13-.5,1.4,1.4,0,0,0-.22-.44,1.1,1.1,0,0,0-.34-.31,1,1,0,0,0-.48-.12.9.9,0,0,0-.48.12.92.92,0,0,0-.34.31,1.66,1.66,0,0,0-.23.44,4.05,4.05,0,0,0-.12.5,4.88,4.88,0,0,0-.06.52C252.5,192.63,252.49,192.79,252.49,192.92Z"/><path d="M256.42,191.14a1.15,1.15,0,0,1,.33-.81,1.05,1.05,0,0,1,.37-.25,1.23,1.23,0,0,1,.44-.08,1.33,1.33,0,0,1,.45.08,1.15,1.15,0,0,1,.37.25,1.16,1.16,0,0,1,0,1.62,1.15,1.15,0,0,1-.37.25,1.33,1.33,0,0,1-.45.08,1.23,1.23,0,0,1-.44-.08,1.05,1.05,0,0,1-.37-.25,1.15,1.15,0,0,1-.33-.81Zm.43,0a.79.79,0,0,0,0,.25,1.14,1.14,0,0,0,.15.23.62.62,0,0,0,.22.17.72.72,0,0,0,.29.06.68.68,0,0,0,.52-.23.79.79,0,0,0,.14-.23.65.65,0,0,0,0-.5.79.79,0,0,0-.14-.23.68.68,0,0,0-.52-.23.72.72,0,0,0-.29.06.62.62,0,0,0-.22.17,1.14,1.14,0,0,0-.15.23A.79.79,0,0,0,256.85,191.14Z"/><path d="M250,81.22h-.67v-4.8h0l-1,.86-.4-.49,1.52-1.23H250Z"/><path d="M251.92,80.45l2.13-2.08c.13-.12.25-.24.35-.35a2.16,2.16,0,0,0,.25-.32,1.09,1.09,0,0,0,.15-.33,1.38,1.38,0,0,0,0-.37,1,1,0,0,0-.08-.4.84.84,0,0,0-.22-.3.78.78,0,0,0-.33-.19,1.05,1.05,0,0,0-.4-.07,1,1,0,0,0-.71.25,1.08,1.08,0,0,0-.36.65l-.73-.06a1.83,1.83,0,0,1,.21-.61,1.41,1.41,0,0,1,.39-.45,2,2,0,0,1,.53-.27,2.25,2.25,0,0,1,.64-.09,2.41,2.41,0,0,1,.67.1,1.92,1.92,0,0,1,.55.29,1.44,1.44,0,0,1,.51,1.15,2,2,0,0,1-.09.61,2,2,0,0,1-.25.5,3.47,3.47,0,0,1-.35.43l-.41.4-1.75,1.64v0h2.89v.62h-3.64Z"/><path d="M256.27,78.39a5.85,5.85,0,0,1,.08-1,3.19,3.19,0,0,1,.29-1,2,2,0,0,1,.59-.7,1.54,1.54,0,0,1,1-.28,1.51,1.51,0,0,1,.95.28,1.91,1.91,0,0,1,.59.7,3.2,3.2,0,0,1,.3,1,6.29,6.29,0,0,1,0,2,3.2,3.2,0,0,1-.3,1,1.91,1.91,0,0,1-.59.7,1.51,1.51,0,0,1-.95.28,1.54,1.54,0,0,1-1-.28,2,2,0,0,1-.59-.7,3.19,3.19,0,0,1-.29-1A5.85,5.85,0,0,1,256.27,78.39Zm.67,0a3.78,3.78,0,0,0,0,.46c0,.17,0,.35.05.52a4.77,4.77,0,0,0,.13.51,1.67,1.67,0,0,0,.23.44,1,1,0,0,0,.34.31,1,1,0,0,0,.48.11,1.06,1.06,0,0,0,.48-.11,1.24,1.24,0,0,0,.34-.31,2,2,0,0,0,.22-.44,3.18,3.18,0,0,0,.13-.51,4.6,4.6,0,0,0,.06-.52c0-.17,0-.32,0-.46s0-.29,0-.46a4.35,4.35,0,0,0-.06-.52,3.18,3.18,0,0,0-.13-.51,2,2,0,0,0-.22-.44,1.24,1.24,0,0,0-.34-.31,1.06,1.06,0,0,0-.48-.11,1,1,0,0,0-.48.11,1,1,0,0,0-.34.31,1.67,1.67,0,0,0-.23.44,4.77,4.77,0,0,0-.13.51c0,.17,0,.34-.05.52A3.78,3.78,0,0,0,256.94,78.39Z"/><path d="M260.87,76.61a1.13,1.13,0,0,1,.09-.45,1,1,0,0,1,.24-.37,1.16,1.16,0,0,1,1.62,0,1.15,1.15,0,0,1,.25.37,1.13,1.13,0,0,1,.09.45,1,1,0,0,1-.09.44,1.15,1.15,0,0,1-.25.37,1.16,1.16,0,0,1-1.62,0,1,1,0,0,1-.24-.37A1,1,0,0,1,260.87,76.61Zm.43,0a.69.69,0,0,0,.05.24.75.75,0,0,0,.15.24.6.6,0,0,0,.22.16.64.64,0,0,0,.58,0,.63.63,0,0,0,.23-.16.72.72,0,0,0,.14-.24.52.52,0,0,0,.05-.24.56.56,0,0,0-.05-.25.59.59,0,0,0-.14-.23.66.66,0,0,0-.23-.17.64.64,0,0,0-.58,0,.62.62,0,0,0-.22.17.61.61,0,0,0-.15.23A.74.74,0,0,0,261.3,76.61Z"/><path d="M40.39,192.45v0a1.42,1.42,0,0,1,.38-.13,1.84,1.84,0,0,1,.39,0,1.72,1.72,0,0,1,.68.13,1.42,1.42,0,0,1,.54.36,1.85,1.85,0,0,1,.36.57,2,2,0,0,1,.13.72,1.78,1.78,0,0,1-.15.74,1.6,1.6,0,0,1-.4.56,2,2,0,0,1-.6.35,2.4,2.4,0,0,1-1.5,0,2,2,0,0,1-.6-.35,1.6,1.6,0,0,1-.4-.56,1.78,1.78,0,0,1-.15-.74,2.24,2.24,0,0,1,.16-.86,5.19,5.19,0,0,1,.38-.74l1.5-2.39h.79Zm.59.43a1.23,1.23,0,0,0-.87.32,1.16,1.16,0,0,0-.26.38,1.31,1.31,0,0,0-.09.5,1.35,1.35,0,0,0,.09.5,1.23,1.23,0,0,0,.26.37,1,1,0,0,0,.39.24,1.32,1.32,0,0,0,1,0,1,1,0,0,0,.39-.24,1.23,1.23,0,0,0,.26-.37,1.35,1.35,0,0,0,.1-.5,1.31,1.31,0,0,0-.1-.5,1.16,1.16,0,0,0-.26-.38,1.23,1.23,0,0,0-.87-.32Z"/><path d="M43.46,192.92a7.07,7.07,0,0,1,.08-1,2.88,2.88,0,0,1,.3-.94,1.94,1.94,0,0,1,.59-.71,1.55,1.55,0,0,1,1-.27,1.6,1.6,0,0,1,1,.27,2,2,0,0,1,.59.71,3.13,3.13,0,0,1,.29.94,7.07,7.07,0,0,1,.08,1,7,7,0,0,1-.08,1,3.1,3.1,0,0,1-.29,1,2,2,0,0,1-.59.71,1.6,1.6,0,0,1-1,.27,1.55,1.55,0,0,1-1-.27,1.94,1.94,0,0,1-.59-.71,2.86,2.86,0,0,1-.3-1A7,7,0,0,1,43.46,192.92Zm.67,0c0,.14,0,.3,0,.47a4.43,4.43,0,0,0,.06.51,2.72,2.72,0,0,0,.13.51,1.51,1.51,0,0,0,.22.44,1.12,1.12,0,0,0,.34.31,1,1,0,0,0,1,0,1.12,1.12,0,0,0,.34-.31,1.83,1.83,0,0,0,.23-.44,3.81,3.81,0,0,0,.12-.51,4.43,4.43,0,0,0,.06-.51c0-.17,0-.33,0-.47s0-.29,0-.46a4.88,4.88,0,0,0-.06-.52,4.05,4.05,0,0,0-.12-.5,1.66,1.66,0,0,0-.23-.44,1,1,0,0,0-.34-.31,1,1,0,0,0-1,0,1,1,0,0,0-.34.31,1.4,1.4,0,0,0-.22.44,2.83,2.83,0,0,0-.13.5,4.88,4.88,0,0,0-.06.52C44.14,192.63,44.13,192.79,44.13,192.92Z"/><path d="M48.06,191.14a1.15,1.15,0,0,1,.33-.81,1.15,1.15,0,0,1,.37-.25,1.33,1.33,0,0,1,.45-.08,1.27,1.27,0,0,1,.44.08,1.15,1.15,0,0,1,.37.25A1.16,1.16,0,0,1,50,192a1.15,1.15,0,0,1-.37.25,1.27,1.27,0,0,1-.44.08,1.33,1.33,0,0,1-.45-.08,1.15,1.15,0,0,1-.37-.25,1.15,1.15,0,0,1-.33-.81Zm.43,0a.61.61,0,0,0,.06.25.79.79,0,0,0,.14.23.72.72,0,0,0,.22.17.73.73,0,0,0,.3.06.72.72,0,0,0,.29-.06.62.62,0,0,0,.22-.17,1.14,1.14,0,0,0,.15-.23.65.65,0,0,0,0-.5,1.14,1.14,0,0,0-.15-.23.62.62,0,0,0-.22-.17.72.72,0,0,0-.29-.06.73.73,0,0,0-.3.06.72.72,0,0,0-.22.17.79.79,0,0,0-.14.23A.61.61,0,0,0,48.49,191.14Z"/><path d="M39.15,81.22h-.67v-4.8h0l-1,.86-.4-.49,1.52-1.23h.58Z"/><path d="M41.07,80.45l2.14-2.08c.13-.12.25-.24.35-.35a2.16,2.16,0,0,0,.25-.32,1.09,1.09,0,0,0,.15-.33A1.38,1.38,0,0,0,44,77a1,1,0,0,0-.08-.4.84.84,0,0,0-.22-.3.78.78,0,0,0-.33-.19A1.05,1.05,0,0,0,43,76a1,1,0,0,0-.72.25,1.19,1.19,0,0,0-.36.65l-.72-.06a1.47,1.47,0,0,1,.21-.61,1.41,1.41,0,0,1,.39-.45,2,2,0,0,1,.53-.27,2.2,2.2,0,0,1,.64-.09,2.41,2.41,0,0,1,.67.1,2.06,2.06,0,0,1,.55.29,1.47,1.47,0,0,1,.37.48,1.6,1.6,0,0,1,.14.67,2,2,0,0,1-.09.61,2.34,2.34,0,0,1-.25.5,3.47,3.47,0,0,1-.35.43l-.41.4-1.75,1.64v0h2.89v.62H41.07Z"/><path d="M45.43,78.39a7,7,0,0,1,.07-1,3.52,3.52,0,0,1,.3-1,2,2,0,0,1,.59-.7,1.77,1.77,0,0,1,1.91,0,1.91,1.91,0,0,1,.59.7,3.52,3.52,0,0,1,.3,1,6.29,6.29,0,0,1,0,2,3.52,3.52,0,0,1-.3,1,1.91,1.91,0,0,1-.59.7,1.77,1.77,0,0,1-1.91,0,2,2,0,0,1-.59-.7,3.52,3.52,0,0,1-.3-1A7,7,0,0,1,45.43,78.39Zm.67,0c0,.14,0,.29,0,.46a4.6,4.6,0,0,0,.06.52,4.77,4.77,0,0,0,.13.51,2,2,0,0,0,.22.44,1.15,1.15,0,0,0,.35.31,1,1,0,0,0,.48.11,1.06,1.06,0,0,0,.48-.11,1.24,1.24,0,0,0,.34-.31,2,2,0,0,0,.22-.44,3.18,3.18,0,0,0,.13-.51,4.6,4.6,0,0,0,.06-.52c0-.17,0-.32,0-.46s0-.29,0-.46a4.35,4.35,0,0,0-.06-.52,3.18,3.18,0,0,0-.13-.51,2,2,0,0,0-.22-.44,1.24,1.24,0,0,0-.34-.31,1.06,1.06,0,0,0-.48-.11,1,1,0,0,0-.48.11,1.15,1.15,0,0,0-.35.31,2,2,0,0,0-.22.44,4.77,4.77,0,0,0-.13.51,4.35,4.35,0,0,0-.06.52C46.1,78.1,46.1,78.25,46.1,78.39Z"/><path d="M50,76.61a1.12,1.12,0,0,1,.08-.45,1.15,1.15,0,0,1,.25-.37,1.16,1.16,0,0,1,1.62,0,1.15,1.15,0,0,1,.25.37,1.33,1.33,0,0,1,.08.45,1.23,1.23,0,0,1-.08.44,1.15,1.15,0,0,1-.25.37,1.16,1.16,0,0,1-1.62,0,1.15,1.15,0,0,1-.25-.37A1,1,0,0,1,50,76.61Zm.43,0a.52.52,0,0,0,0,.24.72.72,0,0,0,.14.24.63.63,0,0,0,.23.16.64.64,0,0,0,.58,0,.73.73,0,0,0,.23-.16,1,1,0,0,0,.14-.24.69.69,0,0,0,.05-.24.75.75,0,0,0-.19-.48.76.76,0,0,0-.23-.17.64.64,0,0,0-.58,0,.66.66,0,0,0-.23.17.59.59,0,0,0-.14.23A.56.56,0,0,0,50.46,76.61Z"/></g><g id="numeri_fondo_tabella" data-name="numeri fondo tabella"><path d="M131.83,251.42a1.17,1.17,0,0,0-.43-.35,1.19,1.19,0,0,0-.51-.11,1.35,1.35,0,0,0-.55.11,1.08,1.08,0,0,0-.4.3,1.32,1.32,0,0,0-.23.44,1.76,1.76,0,0,0,0,1.08,1.43,1.43,0,0,0,.26.45,1.31,1.31,0,0,0,.39.3,1.27,1.27,0,0,0,.52.1,1.09,1.09,0,0,0,1-.46l.47.44a1.69,1.69,0,0,1-.64.46,2.29,2.29,0,0,1-.78.14,2.22,2.22,0,0,1-.79-.14,1.75,1.75,0,0,1-1-1,2.27,2.27,0,0,1,0-1.57,1.86,1.86,0,0,1,.39-.63,2,2,0,0,1,.61-.41,2,2,0,0,1,.79-.15,2.09,2.09,0,0,1,.79.15,1.59,1.59,0,0,1,.65.45Z"/><path d="M136.21,253.56h0a1.43,1.43,0,0,1-.55.54,1.7,1.7,0,0,1-.89.22,1.8,1.8,0,0,1-.73-.15,1.78,1.78,0,0,1-.6-.41,1.81,1.81,0,0,1-.39-.62,2.06,2.06,0,0,1-.15-.79,2,2,0,0,1,.15-.78,1.88,1.88,0,0,1,.4-.63,1.81,1.81,0,0,1,.62-.41,2.07,2.07,0,0,1,.8-.15,1.72,1.72,0,0,1,.75.17,1.78,1.78,0,0,1,.59.47h0v-2.84h.62v6h-.62Zm0-1.21a1.63,1.63,0,0,0-.09-.55,1.34,1.34,0,0,0-.27-.44,1.37,1.37,0,0,0-.42-.29,1.35,1.35,0,0,0-.55-.11,1.42,1.42,0,0,0-.55.11,1.22,1.22,0,0,0-.41.29,1.34,1.34,0,0,0-.27.44,1.56,1.56,0,0,0,0,1.1,1.25,1.25,0,0,0,.27.44,1.19,1.19,0,0,0,1,.4,1.35,1.35,0,0,0,.55-.1,1.6,1.6,0,0,0,.42-.3,1.25,1.25,0,0,0,.27-.44A1.63,1.63,0,0,0,136.21,252.35Z"/><path d="M140.1,254.57l-.5-.2,2.4-6.15.51.2Z"/><path d="M147.64,254.22H147v-4.8h0l-1,.86-.4-.49,1.52-1.23h.59Z"/><path d="M149.46,251.39a7.07,7.07,0,0,1,.08-1,3.19,3.19,0,0,1,.29-.95,2,2,0,0,1,.59-.7,1.61,1.61,0,0,1,1-.28,1.55,1.55,0,0,1,1,.28,1.91,1.91,0,0,1,.59.7,2.94,2.94,0,0,1,.3.95,6.29,6.29,0,0,1,0,2,2.94,2.94,0,0,1-.3,1,1.91,1.91,0,0,1-.59.7,1.49,1.49,0,0,1-1,.28,1.54,1.54,0,0,1-1-.28,2,2,0,0,1-.59-.7,3.19,3.19,0,0,1-.29-1A7.07,7.07,0,0,1,149.46,251.39Zm.67,0c0,.14,0,.29,0,.47a4.43,4.43,0,0,0,.06.51,4.7,4.7,0,0,0,.12.51,2,2,0,0,0,.23.44,1.12,1.12,0,0,0,.34.31,1.1,1.1,0,0,0,1,0,1.12,1.12,0,0,0,.34-.31,1.65,1.65,0,0,0,.22-.44,3.18,3.18,0,0,0,.13-.51,4.43,4.43,0,0,0,.06-.51c0-.18,0-.33,0-.47s0-.29,0-.46a4.6,4.6,0,0,0-.06-.52,3.18,3.18,0,0,0-.13-.51,1.65,1.65,0,0,0-.22-.44,1.08,1.08,0,0,0-.34-.3,1,1,0,0,0-1,0,1.08,1.08,0,0,0-.34.3,2,2,0,0,0-.23.44,4.7,4.7,0,0,0-.12.51,4.6,4.6,0,0,0-.06.52C150.14,251.1,150.13,251.25,150.13,251.39Z"/><path d="M153.91,251.39a5.85,5.85,0,0,1,.08-1,3.19,3.19,0,0,1,.29-.95,2,2,0,0,1,.59-.7,1.61,1.61,0,0,1,1-.28,1.55,1.55,0,0,1,.95.28,1.91,1.91,0,0,1,.59.7,3.2,3.2,0,0,1,.3.95,6.29,6.29,0,0,1,0,2,3.2,3.2,0,0,1-.3,1,1.91,1.91,0,0,1-.59.7,1.49,1.49,0,0,1-.95.28,1.54,1.54,0,0,1-1-.28,2,2,0,0,1-.59-.7,3.19,3.19,0,0,1-.29-1A5.85,5.85,0,0,1,153.91,251.39Zm.67,0a4,4,0,0,0,0,.47,4.43,4.43,0,0,0,.06.51,3.14,3.14,0,0,0,.12.51,1.67,1.67,0,0,0,.23.44,1,1,0,0,0,.34.31.9.9,0,0,0,.48.11,1,1,0,0,0,.48-.11,1.24,1.24,0,0,0,.34-.31,1.65,1.65,0,0,0,.22-.44,3.18,3.18,0,0,0,.13-.51,4.43,4.43,0,0,0,.06-.51c0-.18,0-.33,0-.47s0-.29,0-.46a4.6,4.6,0,0,0-.06-.52,3.18,3.18,0,0,0-.13-.51,1.65,1.65,0,0,0-.22-.44,1.21,1.21,0,0,0-.34-.3,1,1,0,0,0-.48-.12.9.9,0,0,0-.48.12,1,1,0,0,0-.34.3,1.67,1.67,0,0,0-.23.44,3.14,3.14,0,0,0-.12.51,4.6,4.6,0,0,0-.06.52A3.78,3.78,0,0,0,154.58,251.39Z"/><path d="M158.31,251.39a5.85,5.85,0,0,1,.08-1,3.19,3.19,0,0,1,.29-.95,2,2,0,0,1,.59-.7,1.61,1.61,0,0,1,1-.28,1.55,1.55,0,0,1,1,.28,1.91,1.91,0,0,1,.59.7,3.2,3.2,0,0,1,.3.95,6.29,6.29,0,0,1,0,2,3.2,3.2,0,0,1-.3,1,1.91,1.91,0,0,1-.59.7,1.49,1.49,0,0,1-1,.28,1.54,1.54,0,0,1-1-.28,2,2,0,0,1-.59-.7,3.19,3.19,0,0,1-.29-1A5.85,5.85,0,0,1,158.31,251.39Zm.67,0c0,.14,0,.29,0,.47a4.43,4.43,0,0,0,.06.51,3.14,3.14,0,0,0,.12.51,1.67,1.67,0,0,0,.23.44,1,1,0,0,0,.34.31.9.9,0,0,0,.48.11,1,1,0,0,0,.48-.11,1.24,1.24,0,0,0,.34-.31,1.65,1.65,0,0,0,.22-.44,3.18,3.18,0,0,0,.13-.51,4.43,4.43,0,0,0,.06-.51c0-.18,0-.33,0-.47s0-.29,0-.46a4.6,4.6,0,0,0-.06-.52,3.18,3.18,0,0,0-.13-.51,1.65,1.65,0,0,0-.22-.44,1.21,1.21,0,0,0-.34-.3,1,1,0,0,0-.48-.12.9.9,0,0,0-.48.12,1,1,0,0,0-.34.3,1.67,1.67,0,0,0-.23.44,3.14,3.14,0,0,0-.12.51,4.6,4.6,0,0,0-.06.52C159,251.1,159,251.25,159,251.39Z"/><path d="M165.32,248.18H166v6h-.63Z"/><path d="M167.19,251.37c0-.17,0-.33,0-.48s0-.29,0-.41h.59c0,.1,0,.2,0,.3v.32h0a.91.91,0,0,1,.18-.27,1.64,1.64,0,0,1,.28-.23,1.5,1.5,0,0,1,.36-.16,1.44,1.44,0,0,1,.43-.06,1.52,1.52,0,0,1,.51.08,1.36,1.36,0,0,1,.34.18.93.93,0,0,1,.21.24,1.64,1.64,0,0,1,.12.22,1.78,1.78,0,0,1,.48-.53,1.27,1.27,0,0,1,.71-.19,1.88,1.88,0,0,1,.67.11,1.1,1.1,0,0,1,.44.31,1.37,1.37,0,0,1,.24.5,2.59,2.59,0,0,1,.07.65v2.27h-.62V252a2.33,2.33,0,0,0,0-.37,1,1,0,0,0-.15-.33.71.71,0,0,0-.28-.23,1,1,0,0,0-.45-.09,1,1,0,0,0-.37.08,1,1,0,0,0-.31.22,1.13,1.13,0,0,0-.21.35,1.33,1.33,0,0,0-.07.45v2.16h-.63V252.1a1.62,1.62,0,0,0-.17-.88A.6.6,0,0,0,169,251a1.18,1.18,0,0,0-.52.1.88.88,0,0,0-.36.3,1.14,1.14,0,0,0-.21.46,2.1,2.1,0,0,0-.07.58v1.82h-.62Z"/><line class="cls-1" x1="38.21" y1="253" x2="46.2" y2="253"/><path d="M235.17,251a1.66,1.66,0,0,0-.63-.52,1.93,1.93,0,0,0-.79-.17,2.13,2.13,0,0,0-.87.19,2.16,2.16,0,0,0-.68.52,2.58,2.58,0,0,0-.45.75,2.69,2.69,0,0,0-.16.89,2.79,2.79,0,0,0,.16.93,2.41,2.41,0,0,0,.45.74,2,2,0,0,0,.68.5,1.92,1.92,0,0,0,.87.19,2,2,0,0,0,1.64-.8l.51.43a2.38,2.38,0,0,1-.93.75,3,3,0,0,1-1.22.24,2.85,2.85,0,0,1-1.13-.22,2.82,2.82,0,0,1-.92-.62,3,3,0,0,1-.61-.94,3.33,3.33,0,0,1-.22-1.2,3.19,3.19,0,0,1,.21-1.16,2.9,2.9,0,0,1,.6-1,3.08,3.08,0,0,1,.91-.63,3,3,0,0,1,2.27,0,2,2,0,0,1,.89.68Z"/><path d="M239,253.1l0,0a1.35,1.35,0,0,1-.37.13,2.87,2.87,0,0,1-.39,0,1.68,1.68,0,0,1-.68-.13,1.5,1.5,0,0,1-.55-.36,1.92,1.92,0,0,1-.36-.56,2.11,2.11,0,0,1-.12-.73,1.75,1.75,0,0,1,.14-.74,1.63,1.63,0,0,1,.4-.56,1.79,1.79,0,0,1,.6-.35,2.36,2.36,0,0,1,.75-.12,2.27,2.27,0,0,1,.75.12,1.94,1.94,0,0,1,.61.35,1.49,1.49,0,0,1,.39.56,1.75,1.75,0,0,1,.15.74,2.19,2.19,0,0,1,0,.46c0,.14-.07.27-.11.4a2.53,2.53,0,0,1-.18.37,3.35,3.35,0,0,1-.21.36l-1.5,2.4h-.79Zm-.6-.43a1.51,1.51,0,0,0,.48-.08,1.28,1.28,0,0,0,.39-.24,1.12,1.12,0,0,0,.26-.38,1.27,1.27,0,0,0,.1-.5,1.26,1.26,0,0,0-.1-.49,1,1,0,0,0-.26-.38,1,1,0,0,0-.39-.24,1.33,1.33,0,0,0-1,0,.88.88,0,0,0-.38.24,1.19,1.19,0,0,0-.27.38,1.26,1.26,0,0,0-.09.49,1.28,1.28,0,0,0,.09.5,1.31,1.31,0,0,0,.27.38,1.12,1.12,0,0,0,.38.24A1.51,1.51,0,0,0,238.35,252.67Z"/><path d="M240.88,252.62a7.07,7.07,0,0,1,.08-1,2.88,2.88,0,0,1,.3-.94,2,2,0,0,1,.58-.71,1.84,1.84,0,0,1,1.92,0,2,2,0,0,1,.58.71,2.88,2.88,0,0,1,.3.94,7.07,7.07,0,0,1,.08,1,7,7,0,0,1-.08,1,2.86,2.86,0,0,1-.3.95,2,2,0,0,1-.58.71,1.84,1.84,0,0,1-1.92,0,2,2,0,0,1-.58-.71,2.86,2.86,0,0,1-.3-.95A7,7,0,0,1,240.88,252.62Zm.67,0c0,.14,0,.3,0,.47a4.43,4.43,0,0,0,.06.51,2.72,2.72,0,0,0,.13.51,1.51,1.51,0,0,0,.22.44,1.12,1.12,0,0,0,.34.31,1,1,0,0,0,1,0,1.12,1.12,0,0,0,.34-.31,1.51,1.51,0,0,0,.22-.44,2.72,2.72,0,0,0,.13-.51,4.43,4.43,0,0,0,.06-.51c0-.17,0-.33,0-.47s0-.29,0-.46a4.88,4.88,0,0,0-.06-.52,2.83,2.83,0,0,0-.13-.5,1.4,1.4,0,0,0-.22-.44,1.12,1.12,0,0,0-.34-.31,1,1,0,0,0-1,0,1.12,1.12,0,0,0-.34.31,1.4,1.4,0,0,0-.22.44,2.83,2.83,0,0,0-.13.5,4.88,4.88,0,0,0-.06.52C241.56,252.33,241.55,252.49,241.55,252.62Z"/><path d="M247.78,255.8l-.51-.2,2.41-6.14.5.19Z"/><path d="M257.1,251a1.66,1.66,0,0,0-.63-.52,1.92,1.92,0,0,0-.78-.17,2.06,2.06,0,0,0-.87.19,2.16,2.16,0,0,0-.68.52,2.21,2.21,0,0,0-.45.75,2.46,2.46,0,0,0-.16.89,2.56,2.56,0,0,0,.16.93,2.2,2.2,0,0,0,.44.74,2.1,2.1,0,0,0,.68.5,2,2,0,0,0,.88.19,2,2,0,0,0,.93-.21,2,2,0,0,0,.71-.59l.5.43a2.29,2.29,0,0,1-.92.75,3,3,0,0,1-1.22.24,2.8,2.8,0,0,1-2.05-.84,2.82,2.82,0,0,1-.61-.94,3.13,3.13,0,0,1-.22-1.2,3.19,3.19,0,0,1,.21-1.16,2.75,2.75,0,0,1,.6-1,3,3,0,0,1,.91-.63,2.93,2.93,0,0,1,1.16-.23,3,3,0,0,1,1.11.21,2,2,0,0,1,.89.68Z"/><path d="M258.46,254.69l2.14-2.08.35-.36a1.75,1.75,0,0,0,.25-.32,1,1,0,0,0,.15-.32,1.46,1.46,0,0,0,0-.38,1,1,0,0,0-.08-.4.93.93,0,0,0-.22-.3,1.13,1.13,0,0,0-.73-.26,1,1,0,0,0-.71.25,1.11,1.11,0,0,0-.36.66l-.73-.07a1.91,1.91,0,0,1,.21-.61,1.28,1.28,0,0,1,.39-.44,1.77,1.77,0,0,1,.53-.27,2.25,2.25,0,0,1,.64-.09,2.09,2.09,0,0,1,.67.1,1.53,1.53,0,0,1,.55.29,1.47,1.47,0,0,1,.37.48,1.39,1.39,0,0,1,.14.66,1.91,1.91,0,0,1-.09.61,1.8,1.8,0,0,1-.25.5,2.86,2.86,0,0,1-.35.43l-.41.41-1.75,1.64h2.89v.63h-3.65Z"/><path d="M266.35,250.42l-2.26,5h-.76l2.3-5H262.9v-.63h3.45Z"/><path d="M267.26,252.62a7.07,7.07,0,0,1,.08-1,3.45,3.45,0,0,1,.3-.94,2,2,0,0,1,.59-.71,1.82,1.82,0,0,1,1.91,0,2,2,0,0,1,.59.71,3.45,3.45,0,0,1,.3.94,7,7,0,0,1,.07,1,6.92,6.92,0,0,1-.07,1,3.41,3.41,0,0,1-.3.95,2,2,0,0,1-.59.71,1.82,1.82,0,0,1-1.91,0,2,2,0,0,1-.59-.71,3.41,3.41,0,0,1-.3-.95A7,7,0,0,1,267.26,252.62Zm.68,0c0,.14,0,.3,0,.47a4.43,4.43,0,0,0,.06.51,2.72,2.72,0,0,0,.13.51,1.53,1.53,0,0,0,.23.44,1,1,0,0,0,.34.31.89.89,0,0,0,.47.12,1,1,0,0,0,.49-.12,1.08,1.08,0,0,0,.33-.31,1.53,1.53,0,0,0,.23-.44,2.72,2.72,0,0,0,.13-.51,4.43,4.43,0,0,0,.06-.51c0-.17,0-.33,0-.47s0-.29,0-.46a4.88,4.88,0,0,0-.06-.52,2.83,2.83,0,0,0-.13-.5,1.41,1.41,0,0,0-.23-.44,1.08,1.08,0,0,0-.33-.31,1,1,0,0,0-.49-.12.89.89,0,0,0-.47.12,1,1,0,0,0-.34.31,1.41,1.41,0,0,0-.23.44,2.83,2.83,0,0,0-.13.5,4.88,4.88,0,0,0-.06.52C267.94,252.33,267.94,252.49,267.94,252.62Z"/><path d="M52.87,251a1.55,1.55,0,0,0-.63-.51,1.82,1.82,0,0,0-.79-.18,2,2,0,0,0-.87.2,2.13,2.13,0,0,0-.68.51,2.58,2.58,0,0,0-.45.75,2.67,2.67,0,0,0,0,1.82,2.29,2.29,0,0,0,.45.74,1.88,1.88,0,0,0,.68.5,1.92,1.92,0,0,0,.87.19,2,2,0,0,0,.93-.21,2.07,2.07,0,0,0,.71-.58l.51.42a2.38,2.38,0,0,1-.93.75,3,3,0,0,1-1.22.24,2.85,2.85,0,0,1-1.13-.22,2.82,2.82,0,0,1-.92-.62,3,3,0,0,1-.61-.94,3.27,3.27,0,0,1-.22-1.19,3.2,3.2,0,0,1,.21-1.17,3,3,0,0,1,.6-.95,3.08,3.08,0,0,1,.91-.63,3,3,0,0,1,2.27,0,2,2,0,0,1,.89.68Z"/><path d="M54.13,252.62a7,7,0,0,1,.08-1,3.11,3.11,0,0,1,.3-1,1.94,1.94,0,0,1,.59-.71,1.55,1.55,0,0,1,.95-.27,1.6,1.6,0,0,1,1,.27,2,2,0,0,1,.59.71,3.1,3.1,0,0,1,.29,1,5.77,5.77,0,0,1,.08,1,5.85,5.85,0,0,1-.08,1,3.13,3.13,0,0,1-.29.94,2,2,0,0,1-.59.71,1.6,1.6,0,0,1-1,.27,1.55,1.55,0,0,1-.95-.27,1.94,1.94,0,0,1-.59-.71,3.14,3.14,0,0,1-.3-.94A7.07,7.07,0,0,1,54.13,252.62Zm.67,0c0,.13,0,.29,0,.46a4.88,4.88,0,0,0,.06.52,2.83,2.83,0,0,0,.13.5,1.4,1.4,0,0,0,.22.44,1.1,1.1,0,0,0,.34.31,1,1,0,0,0,.48.12.9.9,0,0,0,.48-.12.92.92,0,0,0,.34-.31,1.41,1.41,0,0,0,.23-.44,2.8,2.8,0,0,0,.12-.5,4.88,4.88,0,0,0,.06-.52,3.86,3.86,0,0,0,0-.46,3.94,3.94,0,0,0,0-.47,4.43,4.43,0,0,0-.06-.51,2.71,2.71,0,0,0-.12-.51,1.53,1.53,0,0,0-.23-.44,1,1,0,0,0-.34-.31.9.9,0,0,0-.48-.12,1,1,0,0,0-.48.12,1.24,1.24,0,0,0-.34.31,1.51,1.51,0,0,0-.22.44,2.72,2.72,0,0,0-.13.51,4.43,4.43,0,0,0-.06.51C54.81,252.32,54.8,252.48,54.8,252.62Z"/><path d="M61,255.79l-.51-.2,2.41-6.14.51.19Z"/><path d="M70.36,251a1.52,1.52,0,0,0-.64-.51,1.78,1.78,0,0,0-.78-.18,2,2,0,0,0-.87.2,2.13,2.13,0,0,0-.68.51,2.58,2.58,0,0,0-.45.75,2.51,2.51,0,0,0-.16.9,2.54,2.54,0,0,0,.16.92,2.46,2.46,0,0,0,.44.74,2.09,2.09,0,0,0,1.56.69,2,2,0,0,0,.93-.21,2.07,2.07,0,0,0,.71-.58l.5.42a2.29,2.29,0,0,1-.92.75,3,3,0,0,1-1.22.24,2.93,2.93,0,0,1-1.14-.22,2.88,2.88,0,0,1-.91-.62,3,3,0,0,1-.61-.94,3.07,3.07,0,0,1-.22-1.19,3.2,3.2,0,0,1,.21-1.17,2.84,2.84,0,0,1,.6-.95,3,3,0,0,1,.91-.63,2.93,2.93,0,0,1,1.16-.23,3,3,0,0,1,1.11.21,2,2,0,0,1,.89.68Z"/><path d="M74.2,255.45h-.68v-4.8h0l-1,.85-.4-.48,1.52-1.24h.59Z"/><path d="M76.37,251.17a1.33,1.33,0,0,1,.13-.61,1.2,1.2,0,0,1,.34-.46,1.44,1.44,0,0,1,.51-.3,1.92,1.92,0,0,1,1.28,0,1.44,1.44,0,0,1,.51.3,1.32,1.32,0,0,1,.34.46,1.48,1.48,0,0,1,.12.61,1.44,1.44,0,0,1-.06.4,1.41,1.41,0,0,1-.18.37,1.18,1.18,0,0,1-.3.29,1,1,0,0,1-.38.19h0a1.44,1.44,0,0,1,.46.19,1.35,1.35,0,0,1,.35.32,1.67,1.67,0,0,1,.23.44,1.7,1.7,0,0,1,.08.51,1.74,1.74,0,0,1-.14.69,1.46,1.46,0,0,1-.39.52,1.47,1.47,0,0,1-.57.33,2.35,2.35,0,0,1-1.42,0,1.59,1.59,0,0,1-.58-.33,1.43,1.43,0,0,1-.38-.52,1.74,1.74,0,0,1-.14-.69,1.7,1.7,0,0,1,.08-.51,1.65,1.65,0,0,1,.22-.44,1.59,1.59,0,0,1,.36-.32,1.44,1.44,0,0,1,.46-.19h0a1.18,1.18,0,0,1-.39-.19,1.33,1.33,0,0,1-.29-.29,1.41,1.41,0,0,1-.18-.37A1.16,1.16,0,0,1,76.37,251.17Zm.48,2.67a1.14,1.14,0,0,0,.09.46,1.21,1.21,0,0,0,.24.35,1.16,1.16,0,0,0,.36.23A1.13,1.13,0,0,0,78,255a1,1,0,0,0,.44-.09,1,1,0,0,0,.36-.23,1.07,1.07,0,0,0,.25-.35,1.36,1.36,0,0,0,0-.92,1.07,1.07,0,0,0-.25-.35,1,1,0,0,0-.36-.23,1,1,0,0,0-.44-.09,1.13,1.13,0,0,0-.45.09,1.16,1.16,0,0,0-.36.23,1.21,1.21,0,0,0-.24.35A1.14,1.14,0,0,0,76.85,253.84ZM77,251.2a.92.92,0,0,0,.26.67.93.93,0,0,0,.69.27.9.9,0,0,0,.68-.27,1,1,0,0,0,0-1.34.9.9,0,0,0-.68-.27.93.93,0,0,0-.69.27A.92.92,0,0,0,77,251.2Z"/><path d="M80.52,252.62a5.77,5.77,0,0,1,.08-1,3.1,3.1,0,0,1,.29-1,2,2,0,0,1,.59-.71,1.6,1.6,0,0,1,1-.27,1.55,1.55,0,0,1,1,.27,1.94,1.94,0,0,1,.59.71,3.41,3.41,0,0,1,.3,1,7,7,0,0,1,.08,1,7.07,7.07,0,0,1-.08,1,3.45,3.45,0,0,1-.3.94,1.94,1.94,0,0,1-.59.71,1.55,1.55,0,0,1-1,.27,1.6,1.6,0,0,1-1-.27,2,2,0,0,1-.59-.71,3.13,3.13,0,0,1-.29-.94A5.85,5.85,0,0,1,80.52,252.62Zm.67,0a3.86,3.86,0,0,0,0,.46c0,.17,0,.34.05.52a4.07,4.07,0,0,0,.13.5,1.41,1.41,0,0,0,.23.44.92.92,0,0,0,.34.31.9.9,0,0,0,.48.12,1,1,0,0,0,.48-.12,1.1,1.1,0,0,0,.34-.31,1.65,1.65,0,0,0,.22-.44,2.83,2.83,0,0,0,.13-.5,4.88,4.88,0,0,0,.06-.52c0-.17,0-.33,0-.46s0-.3,0-.47a4.43,4.43,0,0,0-.06-.51,2.72,2.72,0,0,0-.13-.51,1.81,1.81,0,0,0-.22-.44,1.24,1.24,0,0,0-.34-.31,1,1,0,0,0-.48-.12.9.9,0,0,0-.48.12,1,1,0,0,0-.34.31,1.53,1.53,0,0,0-.23.44,3.8,3.8,0,0,0-.13.51c0,.17,0,.34-.05.51A3.94,3.94,0,0,0,81.19,252.62Z"/><line class="cls-2" x1="214.49" y1="253.42" x2="215.03" y2="253.42"/><line class="cls-2" x1="217.76" y1="253.42" x2="218.3" y2="253.42"/><line class="cls-2" x1="221.02" y1="253.42" x2="221.56" y2="253.42"/><line class="cls-2" x1="224.29" y1="253.42" x2="224.83" y2="253.42"/><line class="cls-2" x1="227.55" y1="253.42" x2="228.09" y2="253.42"/></g><g id="Button_F3180009_HL"><path d="M54.55,12.58h4.39v.78H55.39V15.7h3.3v.78h-3.3v3.18h-.84Z"/><path d="M61.27,15.58h.26a5.28,5.28,0,0,0,.55,0,1.77,1.77,0,0,0,.52-.17A1.09,1.09,0,0,0,63,15a1.21,1.21,0,0,0,.15-.64,1.14,1.14,0,0,0-.33-.86,1.23,1.23,0,0,0-.88-.31,1.42,1.42,0,0,0-.78.2,1.37,1.37,0,0,0-.52.59l-.81-.31a1.85,1.85,0,0,1,.82-.9,2.54,2.54,0,0,1,1.23-.3,2.74,2.74,0,0,1,.81.12,1.86,1.86,0,0,1,.67.35,1.51,1.51,0,0,1,.46.57,1.73,1.73,0,0,1,.17.81,1.64,1.64,0,0,1-.33,1,1.74,1.74,0,0,1-.88.62v0a1.71,1.71,0,0,1,.61.22,1.41,1.41,0,0,1,.45.39,1.57,1.57,0,0,1,.29.54,1.89,1.89,0,0,1,.1.63,1.94,1.94,0,0,1-.19.89,1.86,1.86,0,0,1-.51.64,2.27,2.27,0,0,1-.74.39,3.26,3.26,0,0,1-.9.13,2.78,2.78,0,0,1-1.41-.35,2,2,0,0,1-.87-1.14l.85-.28a1.3,1.3,0,0,0,1.43,1,1.69,1.69,0,0,0,.56-.1,1.44,1.44,0,0,0,.46-.29,1.4,1.4,0,0,0,.31-.44,1.3,1.3,0,0,0,.11-.56,1.34,1.34,0,0,0-.15-.66,1.1,1.1,0,0,0-.41-.42,1.75,1.75,0,0,0-.58-.22,2.81,2.81,0,0,0-.65-.07h-.26Z"/><path d="M68.39,19.66h-.84v-6h0l-1.27,1.07-.5-.61,1.9-1.54h.73Z"/><path d="M73.87,16.71l0,0a1.77,1.77,0,0,1-.46.16,3,3,0,0,1-.49,0,2.38,2.38,0,0,1-.85-.16,2,2,0,0,1-.68-.46,2.21,2.21,0,0,1-.45-.7,2.57,2.57,0,0,1-.16-.9,2.27,2.27,0,0,1,.18-.93,2,2,0,0,1,.5-.7,2.3,2.3,0,0,1,.76-.44,3,3,0,0,1,1.87,0,2.16,2.16,0,0,1,.75.44,1.87,1.87,0,0,1,.5.7,2.27,2.27,0,0,1,.18.93,2.63,2.63,0,0,1,0,.57,2.85,2.85,0,0,1-.14.5,3.82,3.82,0,0,1-.21.46c-.08.15-.17.3-.27.46l-1.88,3H72Zm-.74-.53a1.64,1.64,0,0,0,.6-.11,1.44,1.44,0,0,0,.49-.3,1.4,1.4,0,0,0,.32-.47,1.66,1.66,0,0,0,0-1.24,1.35,1.35,0,0,0-.32-.48,1.44,1.44,0,0,0-.49-.3,1.64,1.64,0,0,0-.6-.1,1.72,1.72,0,0,0-.6.1,1.5,1.5,0,0,0-.48.3,1.37,1.37,0,0,0-.33.48,1.66,1.66,0,0,0,0,1.24,1.43,1.43,0,0,0,.33.47,1.5,1.5,0,0,0,.48.3A1.73,1.73,0,0,0,73.13,16.18Z"/><path d="M76.29,16.12a9.14,9.14,0,0,1,.1-1.25,4,4,0,0,1,.37-1.19,2.44,2.44,0,0,1,.74-.88,2.27,2.27,0,0,1,2.39,0,2.41,2.41,0,0,1,.73.88A3.77,3.77,0,0,1,81,14.87a7.79,7.79,0,0,1,.1,1.25,7.88,7.88,0,0,1-.1,1.25,3.79,3.79,0,0,1-.37,1.18,2.41,2.41,0,0,1-.73.88,2.22,2.22,0,0,1-2.39,0,2.44,2.44,0,0,1-.74-.88,4.07,4.07,0,0,1-.37-1.18A9.26,9.26,0,0,1,76.29,16.12Zm.84,0c0,.17,0,.36,0,.58s0,.42.08.64a4.61,4.61,0,0,0,.16.64,2,2,0,0,0,.28.55,1.51,1.51,0,0,0,.42.38,1.16,1.16,0,0,0,.6.15,1.11,1.11,0,0,0,.6-.15,1.42,1.42,0,0,0,.43-.38A2,2,0,0,0,80,18a4.61,4.61,0,0,0,.16-.64,4.81,4.81,0,0,0,.07-.64c0-.22,0-.41,0-.58s0-.37,0-.58a4.78,4.78,0,0,0-.07-.65,4.15,4.15,0,0,0-.16-.63,1.9,1.9,0,0,0-.28-.55,1.45,1.45,0,0,0-.43-.39,1.11,1.11,0,0,0-.6-.14,1.16,1.16,0,0,0-.6.14,1.55,1.55,0,0,0-.42.39,1.9,1.9,0,0,0-.28.55,4.15,4.15,0,0,0-.16.63c0,.22-.06.43-.08.65S77.13,15.94,77.13,16.12Z"/><path d="M81.85,16.12a9.14,9.14,0,0,1,.1-1.25,4,4,0,0,1,.37-1.19,2.44,2.44,0,0,1,.74-.88,2.27,2.27,0,0,1,2.39,0,2.41,2.41,0,0,1,.73.88,3.77,3.77,0,0,1,.37,1.19,7.79,7.79,0,0,1,.1,1.25,7.88,7.88,0,0,1-.1,1.25,3.79,3.79,0,0,1-.37,1.18,2.41,2.41,0,0,1-.73.88,2.22,2.22,0,0,1-2.39,0,2.44,2.44,0,0,1-.74-.88A4.07,4.07,0,0,1,82,17.37,9.26,9.26,0,0,1,81.85,16.12Zm.84,0c0,.17,0,.36,0,.58s0,.42.08.64A4.61,4.61,0,0,0,83,18a2,2,0,0,0,.28.55,1.51,1.51,0,0,0,.42.38,1.16,1.16,0,0,0,.6.15,1.11,1.11,0,0,0,.6-.15,1.42,1.42,0,0,0,.43-.38,2,2,0,0,0,.28-.55,4.61,4.61,0,0,0,.16-.64,4.81,4.81,0,0,0,.07-.64c0-.22,0-.41,0-.58s0-.37,0-.58a4.78,4.78,0,0,0-.07-.65,4.15,4.15,0,0,0-.16-.63,1.9,1.9,0,0,0-.28-.55,1.45,1.45,0,0,0-.43-.39,1.11,1.11,0,0,0-.6-.14,1.16,1.16,0,0,0-.6.14,1.55,1.55,0,0,0-.42.39,1.9,1.9,0,0,0-.28.55,4.15,4.15,0,0,0-.16.63c0,.22-.06.43-.08.65S82.69,15.94,82.69,16.12Z"/><path d="M87.41,16.12a9.14,9.14,0,0,1,.1-1.25,4,4,0,0,1,.37-1.19,2.44,2.44,0,0,1,.74-.88,2.27,2.27,0,0,1,2.39,0,2.41,2.41,0,0,1,.73.88,3.77,3.77,0,0,1,.37,1.19,7.79,7.79,0,0,1,.1,1.25,7.88,7.88,0,0,1-.1,1.25,3.79,3.79,0,0,1-.37,1.18,2.41,2.41,0,0,1-.73.88,2.22,2.22,0,0,1-2.39,0,2.44,2.44,0,0,1-.74-.88,4.07,4.07,0,0,1-.37-1.18A9.26,9.26,0,0,1,87.41,16.12Zm.84,0c0,.17,0,.36,0,.58s0,.42.08.64a4.61,4.61,0,0,0,.16.64,2,2,0,0,0,.28.55,1.51,1.51,0,0,0,.42.38,1.16,1.16,0,0,0,.6.15,1.11,1.11,0,0,0,.6-.15,1.42,1.42,0,0,0,.43-.38,2,2,0,0,0,.28-.55,4.61,4.61,0,0,0,.16-.64,4.81,4.81,0,0,0,.07-.64c0-.22,0-.41,0-.58s0-.37,0-.58a4.78,4.78,0,0,0-.07-.65,4.15,4.15,0,0,0-.16-.63,1.9,1.9,0,0,0-.28-.55,1.45,1.45,0,0,0-.43-.39,1.11,1.11,0,0,0-.6-.14,1.16,1.16,0,0,0-.6.14,1.55,1.55,0,0,0-.42.39,1.9,1.9,0,0,0-.28.55,4.15,4.15,0,0,0-.16.63c0,.22-.06.43-.08.65S88.25,15.94,88.25,16.12Z"/><path d="M96.11,16.71l0,0a1.77,1.77,0,0,1-.46.16,3,3,0,0,1-.49,0,2.38,2.38,0,0,1-.85-.16,2,2,0,0,1-.68-.46,2.21,2.21,0,0,1-.45-.7,2.57,2.57,0,0,1-.16-.9,2.27,2.27,0,0,1,.18-.93,2,2,0,0,1,.5-.7,2.3,2.3,0,0,1,.76-.44,3,3,0,0,1,1.87,0,2.16,2.16,0,0,1,.75.44,1.87,1.87,0,0,1,.5.7,2.27,2.27,0,0,1,.18.93,2.63,2.63,0,0,1,0,.57,2.85,2.85,0,0,1-.14.5,3.82,3.82,0,0,1-.21.46c-.08.15-.17.3-.27.46l-1.88,3h-1Zm-.74-.53a1.64,1.64,0,0,0,.6-.11,1.44,1.44,0,0,0,.49-.3,1.4,1.4,0,0,0,.32-.47,1.66,1.66,0,0,0,0-1.24,1.35,1.35,0,0,0-.32-.48,1.44,1.44,0,0,0-.49-.3,1.64,1.64,0,0,0-.6-.1,1.72,1.72,0,0,0-.6.1,1.5,1.5,0,0,0-.48.3,1.37,1.37,0,0,0-.33.48,1.66,1.66,0,0,0,0,1.24,1.43,1.43,0,0,0,.33.47,1.5,1.5,0,0,0,.48.3A1.73,1.73,0,0,0,95.37,16.18Z"/><path d="M98.15,20.41h5v.5h-5Z"/><path d="M107.89,13.36H105l0,1.91a1.39,1.39,0,0,1,.45-.14l.46,0a2.33,2.33,0,0,1,.93.17A2.13,2.13,0,0,1,108,16.5a2.52,2.52,0,0,1,.16.93,2.49,2.49,0,0,1-.18,1,2,2,0,0,1-.51.74,2.51,2.51,0,0,1-.77.48,2.78,2.78,0,0,1-1,.17,2.22,2.22,0,0,1-1.3-.35,2.6,2.6,0,0,1-.79-.94l.84-.32a1.58,1.58,0,0,0,.53.64,1.35,1.35,0,0,0,.79.25,1.46,1.46,0,0,0,.6-.12,1.58,1.58,0,0,0,.48-.33,1.48,1.48,0,0,0,.32-.51,1.81,1.81,0,0,0,.12-.67,1.67,1.67,0,0,0-.13-.69,1.46,1.46,0,0,0-.37-.51,1.53,1.53,0,0,0-.56-.31,2.17,2.17,0,0,0-.69-.1,2.48,2.48,0,0,0-.74.12,3.42,3.42,0,0,0-.7.32l.07-3.68h3.71Z"/><path d="M111.26,15.93l-2.38-3.35H110l1.91,2.77,1.89-2.77h1l-2.38,3.35L115,19.66h-1.11l-2.1-3.14-2.11,3.14h-1Z"/><path d="M119.14,17.26h1V18h-1v1.62h-.84V18h-3v-.93l2.81-4.53h1Zm-.84-3.7h0L116,17.26h2.28Z"/><path d="M120.89,16.12a9.14,9.14,0,0,1,.1-1.25,4,4,0,0,1,.37-1.19,2.44,2.44,0,0,1,.74-.88,2.27,2.27,0,0,1,2.39,0,2.41,2.41,0,0,1,.73.88,3.77,3.77,0,0,1,.37,1.19,7.79,7.79,0,0,1,.1,1.25,7.88,7.88,0,0,1-.1,1.25,3.79,3.79,0,0,1-.37,1.18,2.41,2.41,0,0,1-.73.88,2.22,2.22,0,0,1-2.39,0,2.44,2.44,0,0,1-.74-.88,4.07,4.07,0,0,1-.37-1.18A9.26,9.26,0,0,1,120.89,16.12Zm.84,0c0,.17,0,.36,0,.58s0,.42.08.64A4.61,4.61,0,0,0,122,18a2,2,0,0,0,.28.55,1.51,1.51,0,0,0,.42.38,1.16,1.16,0,0,0,.6.15,1.11,1.11,0,0,0,.6-.15,1.42,1.42,0,0,0,.43-.38,2,2,0,0,0,.28-.55,4.61,4.61,0,0,0,.16-.64,4.81,4.81,0,0,0,.07-.64c0-.22,0-.41,0-.58s0-.37,0-.58a4.78,4.78,0,0,0-.07-.65,4.15,4.15,0,0,0-.16-.63,1.9,1.9,0,0,0-.28-.55,1.45,1.45,0,0,0-.43-.39,1.11,1.11,0,0,0-.6-.14,1.16,1.16,0,0,0-.6.14,1.55,1.55,0,0,0-.42.39,1.9,1.9,0,0,0-.28.55,4.15,4.15,0,0,0-.16.63c0,.22-.06.43-.08.65S121.73,15.94,121.73,16.12Z"/><path d="M126.13,12.58h.93l1.61,5.88h0l1.74-5.88h.94l1.73,5.88h0l1.64-5.88h.88l-2.08,7.08h-.91l-1.75-6h0l-1.76,6h-.92Z"/><path d="M139.35,12.58h.84v3H144v-3h.84v7.08H144v-3.3h-3.78v3.3h-.84Z"/><path d="M146.64,12.58h.84v6.3h3.24v.78h-4.08Z"/><rect class="cls-3" x="54.71" y="41.73" width="189.86" height="189.86"/><circle class="cls-4" cx="149.64" cy="136.61" r="15.77" transform="translate(-19.95 25.73) rotate(-9.22)"/><path d="M151.69,159.66l2.14-2.08.35-.36a1.75,1.75,0,0,0,.25-.32,1,1,0,0,0,.15-.32,1.46,1.46,0,0,0,0-.38,1,1,0,0,0-.08-.4,1,1,0,0,0-.22-.3,1.09,1.09,0,0,0-.33-.19,1.05,1.05,0,0,0-.4-.07,1,1,0,0,0-.72.25,1.22,1.22,0,0,0-.36.66l-.72-.07a1.53,1.53,0,0,1,.21-.61,1.28,1.28,0,0,1,.39-.44,1.66,1.66,0,0,1,.53-.27,2.2,2.2,0,0,1,.64-.09,2.09,2.09,0,0,1,.67.1,1.48,1.48,0,0,1,.54.29,1.37,1.37,0,0,1,.38.48,1.53,1.53,0,0,1,.14.66,1.91,1.91,0,0,1-.09.61,2.13,2.13,0,0,1-.25.5,2.86,2.86,0,0,1-.35.43l-.41.41-1.75,1.64h2.89v.63h-3.65Z"/><path d="M156,157.59a5.85,5.85,0,0,1,.08-1,3.13,3.13,0,0,1,.29-.94,2,2,0,0,1,.59-.71,1.6,1.6,0,0,1,1-.27,1.57,1.57,0,0,1,1,.27,1.94,1.94,0,0,1,.59.71,3.45,3.45,0,0,1,.3.94,7.07,7.07,0,0,1,.08,1,7,7,0,0,1-.08,1,3.41,3.41,0,0,1-.3.95,1.94,1.94,0,0,1-.59.71,1.57,1.57,0,0,1-1,.27,1.6,1.6,0,0,1-1-.27,2,2,0,0,1-.59-.71,3.1,3.1,0,0,1-.29-.95A5.77,5.77,0,0,1,156,157.59Zm.67,0c0,.14,0,.3,0,.47s0,.34.06.51a3.8,3.8,0,0,0,.13.51,1.53,1.53,0,0,0,.23.44,1,1,0,0,0,.34.31.9.9,0,0,0,.48.12,1,1,0,0,0,.48-.12,1.24,1.24,0,0,0,.34-.31,1.81,1.81,0,0,0,.22-.44,2.72,2.72,0,0,0,.13-.51,4.43,4.43,0,0,0,.06-.51c0-.17,0-.33,0-.47s0-.29,0-.46a4.88,4.88,0,0,0-.06-.52,2.83,2.83,0,0,0-.13-.5,1.65,1.65,0,0,0-.22-.44,1.1,1.1,0,0,0-.34-.31,1,1,0,0,0-.48-.12.9.9,0,0,0-.48.12.92.92,0,0,0-.34.31,1.41,1.41,0,0,0-.23.44,4.07,4.07,0,0,0-.13.5c0,.18,0,.35-.06.52S156.67,157.46,156.67,157.59Z"/><circle class="cls-4" cx="149.64" cy="136.61" r="31.59" transform="translate(-25.1 34.04) rotate(-11.98)"/><path d="M154.64,174.33h.82V175h-.82v1.3H154V175h-2.4v-.74l2.25-3.63h.82Zm-.67-3h0l-1.81,3H154Z"/><path d="M156,173.42a5.77,5.77,0,0,1,.08-1,3.1,3.1,0,0,1,.29-.95,2,2,0,0,1,.59-.71,1.6,1.6,0,0,1,1-.27,1.57,1.57,0,0,1,1,.27,1.94,1.94,0,0,1,.59.71,3.41,3.41,0,0,1,.3.95,7,7,0,0,1,.08,1,7.07,7.07,0,0,1-.08,1,3.45,3.45,0,0,1-.3.94,1.94,1.94,0,0,1-.59.71,1.57,1.57,0,0,1-1,.27,1.6,1.6,0,0,1-1-.27,2,2,0,0,1-.59-.71,3.13,3.13,0,0,1-.29-.94A5.85,5.85,0,0,1,156,173.42Zm.67,0c0,.13,0,.29,0,.46s0,.34.06.52a4.07,4.07,0,0,0,.13.5,1.53,1.53,0,0,0,.23.44,1,1,0,0,0,.34.31.9.9,0,0,0,.48.12,1,1,0,0,0,.48-.12,1.24,1.24,0,0,0,.34-.31,1.81,1.81,0,0,0,.22-.44,2.83,2.83,0,0,0,.13-.5,4.88,4.88,0,0,0,.06-.52c0-.17,0-.33,0-.46s0-.3,0-.47a4.43,4.43,0,0,0-.06-.51,2.72,2.72,0,0,0-.13-.51,1.81,1.81,0,0,0-.22-.44,1.24,1.24,0,0,0-.34-.31,1,1,0,0,0-.48-.12.9.9,0,0,0-.48.12,1,1,0,0,0-.34.31,1.53,1.53,0,0,0-.23.44,3.8,3.8,0,0,0-.13.51c0,.17,0,.34-.06.51S156.67,173.28,156.67,173.42Z"/><circle class="cls-4" cx="149.64" cy="136.61" r="47.41"/><path d="M152.92,188.76l0,0a1.35,1.35,0,0,1,.37-.13,2.87,2.87,0,0,1,.39,0,1.87,1.87,0,0,1,.68.13,1.62,1.62,0,0,1,.55.37,1.52,1.52,0,0,1,.35.56,1.88,1.88,0,0,1,.13.72,1.91,1.91,0,0,1-.14.74,1.63,1.63,0,0,1-.4.56,1.74,1.74,0,0,1-.61.35,2.2,2.2,0,0,1-1.49,0,1.84,1.84,0,0,1-.61-.35,1.63,1.63,0,0,1-.4-.56,1.91,1.91,0,0,1-.14-.74,2.28,2.28,0,0,1,.15-.86,4.32,4.32,0,0,1,.39-.73l1.5-2.39h.78Zm.6.43a1.51,1.51,0,0,0-.48.08,1.28,1.28,0,0,0-.39.24,1.12,1.12,0,0,0-.26.38,1.18,1.18,0,0,0-.1.5,1.15,1.15,0,0,0,.1.5,1.13,1.13,0,0,0,.65.61,1.33,1.33,0,0,0,1,0,1,1,0,0,0,.38-.24,1,1,0,0,0,.26-.37,1.15,1.15,0,0,0,.1-.5,1.18,1.18,0,0,0-.1-.5,1.12,1.12,0,0,0-.26-.38,1.23,1.23,0,0,0-.38-.24A1.51,1.51,0,0,0,153.52,189.19Z"/><path d="M156,189.24a5.77,5.77,0,0,1,.08-1,3.1,3.1,0,0,1,.29-1,2,2,0,0,1,.59-.71,1.6,1.6,0,0,1,1-.27,1.57,1.57,0,0,1,1,.27,1.94,1.94,0,0,1,.59.71,3.41,3.41,0,0,1,.3,1,7,7,0,0,1,.08,1,7.07,7.07,0,0,1-.08,1,3.64,3.64,0,0,1-.3.95,1.91,1.91,0,0,1-.59.7,1.57,1.57,0,0,1-1,.28,1.61,1.61,0,0,1-1-.28,2,2,0,0,1-.59-.7,3.28,3.28,0,0,1-.29-.95A5.85,5.85,0,0,1,156,189.24Zm.67,0c0,.14,0,.29,0,.46s0,.34.06.52a4.07,4.07,0,0,0,.13.5,1.59,1.59,0,0,0,.23.45,1,1,0,0,0,.34.3.9.9,0,0,0,.48.12,1,1,0,0,0,.48-.12,1.21,1.21,0,0,0,.34-.3,1.88,1.88,0,0,0,.22-.45,2.83,2.83,0,0,0,.13-.5,4.88,4.88,0,0,0,.06-.52c0-.17,0-.32,0-.46s0-.3,0-.47a4.43,4.43,0,0,0-.06-.51,2.72,2.72,0,0,0-.13-.51,1.81,1.81,0,0,0-.22-.44,1.24,1.24,0,0,0-.34-.31,1,1,0,0,0-.48-.12.9.9,0,0,0-.48.12,1,1,0,0,0-.34.31,1.53,1.53,0,0,0-.23.44,3.8,3.8,0,0,0-.13.51c0,.17,0,.34-.06.51S156.67,189.1,156.67,189.24Z"/><circle class="cls-4" cx="149.64" cy="136.61" r="63.23"/><path d="M151.9,203.61A1.51,1.51,0,0,1,152,203a1.44,1.44,0,0,1,.86-.76,1.87,1.87,0,0,1,.64-.11,1.91,1.91,0,0,1,.64.11,1.63,1.63,0,0,1,.51.3,1.57,1.57,0,0,1,.34.46,1.51,1.51,0,0,1,.12.61,1.34,1.34,0,0,1-.06.4,1.3,1.3,0,0,1-.19.37,1.37,1.37,0,0,1-.29.3,1.17,1.17,0,0,1-.39.18v0a1.39,1.39,0,0,1,.47.18,1.37,1.37,0,0,1,.35.33,1.35,1.35,0,0,1,.22.43,1.72,1.72,0,0,1-.06,1.2,1.56,1.56,0,0,1-.38.53,1.72,1.72,0,0,1-.58.33,2.28,2.28,0,0,1-.7.11,2.35,2.35,0,0,1-.71-.11,1.83,1.83,0,0,1-.58-.33,1.56,1.56,0,0,1-.38-.53,1.72,1.72,0,0,1-.06-1.2,1.59,1.59,0,0,1,.22-.43,1.56,1.56,0,0,1,.35-.33,1.48,1.48,0,0,1,.47-.18v0a1.17,1.17,0,0,1-.39-.18,1.64,1.64,0,0,1-.29-.3A1.62,1.62,0,0,1,152,204,1.34,1.34,0,0,1,151.9,203.61Zm.48,2.67a1.15,1.15,0,0,0,.33.82,1.69,1.69,0,0,0,.36.23,1.33,1.33,0,0,0,.45.08,1.27,1.27,0,0,0,.44-.08,1.31,1.31,0,0,0,.36-.23,1.17,1.17,0,0,0,0-1.63,1.11,1.11,0,0,0-.36-.23,1.08,1.08,0,0,0-.44-.08,1.12,1.12,0,0,0-.45.08,1.38,1.38,0,0,0-.36.23,1.15,1.15,0,0,0-.33.81Zm.19-2.64a.89.89,0,0,0,1,.94.93.93,0,0,0,.68-.26,1,1,0,0,0,0-1.35.95.95,0,0,0-1.63.67Z"/><path d="M156,205.06a5.85,5.85,0,0,1,.08-1,3.19,3.19,0,0,1,.29-.95,2,2,0,0,1,.59-.7,1.54,1.54,0,0,1,1-.28,1.51,1.51,0,0,1,1,.28,1.91,1.91,0,0,1,.59.7,3.52,3.52,0,0,1,.3.95,6.29,6.29,0,0,1,0,2,3.52,3.52,0,0,1-.3.95,1.91,1.91,0,0,1-.59.7,1.51,1.51,0,0,1-1,.28,1.54,1.54,0,0,1-1-.28,2,2,0,0,1-.59-.7,3.19,3.19,0,0,1-.29-.95A5.85,5.85,0,0,1,156,205.06Zm.67,0c0,.14,0,.29,0,.46s0,.35.06.52a4.77,4.77,0,0,0,.13.51,1.67,1.67,0,0,0,.23.44,1,1,0,0,0,.34.31,1,1,0,0,0,.48.11,1.06,1.06,0,0,0,.48-.11,1.24,1.24,0,0,0,.34-.31,2,2,0,0,0,.22-.44,3.18,3.18,0,0,0,.13-.51,4.6,4.6,0,0,0,.06-.52c0-.17,0-.32,0-.46s0-.29,0-.46a4.35,4.35,0,0,0-.06-.52,3.18,3.18,0,0,0-.13-.51,2,2,0,0,0-.22-.44,1.24,1.24,0,0,0-.34-.31,1.06,1.06,0,0,0-.48-.11,1,1,0,0,0-.48.11,1,1,0,0,0-.34.31,1.67,1.67,0,0,0-.23.44,4.77,4.77,0,0,0-.13.51c0,.17,0,.34-.06.52S156.67,204.92,156.67,205.06Z"/><circle class="cls-4" cx="149.64" cy="136.61" r="79.06"/><path d="M154.17,223.71h-.67v-4.8h0l-1,.86-.4-.49,1.52-1.23h.58Z"/><path d="M156,220.88a5.85,5.85,0,0,1,.08-1,3.28,3.28,0,0,1,.29-.95,2,2,0,0,1,.59-.7,1.61,1.61,0,0,1,1-.28,1.57,1.57,0,0,1,1,.28,1.91,1.91,0,0,1,.59.7,3.64,3.64,0,0,1,.3.95,7.07,7.07,0,0,1,.08,1,7,7,0,0,1-.08,1,3.52,3.52,0,0,1-.3,1,1.83,1.83,0,0,1-.59.7,1.51,1.51,0,0,1-1,.28,1.54,1.54,0,0,1-1-.28,1.92,1.92,0,0,1-.59-.7,3.19,3.19,0,0,1-.29-1A5.77,5.77,0,0,1,156,220.88Zm.67,0c0,.14,0,.29,0,.47s0,.34.06.51a3.8,3.8,0,0,0,.13.51,1.53,1.53,0,0,0,.23.44,1,1,0,0,0,.34.31.9.9,0,0,0,.48.11,1,1,0,0,0,.48-.11,1.24,1.24,0,0,0,.34-.31,1.81,1.81,0,0,0,.22-.44,2.72,2.72,0,0,0,.13-.51,4.43,4.43,0,0,0,.06-.51c0-.18,0-.33,0-.47s0-.29,0-.46a4.88,4.88,0,0,0-.06-.52,3.18,3.18,0,0,0-.13-.51,2,2,0,0,0-.22-.44,1.21,1.21,0,0,0-.34-.3,1,1,0,0,0-.48-.12.9.9,0,0,0-.48.12,1,1,0,0,0-.34.3,1.67,1.67,0,0,0-.23.44,4.77,4.77,0,0,0-.13.51c0,.18,0,.35-.06.52S156.67,220.74,156.67,220.88Z"/><path d="M160.44,220.88a7.07,7.07,0,0,1,.08-1,3.64,3.64,0,0,1,.3-.95,1.91,1.91,0,0,1,.59-.7,1.57,1.57,0,0,1,1-.28,1.61,1.61,0,0,1,1,.28,2,2,0,0,1,.59.7,3.28,3.28,0,0,1,.29.95,5.85,5.85,0,0,1,.08,1,5.77,5.77,0,0,1-.08,1,3.19,3.19,0,0,1-.29,1,1.92,1.92,0,0,1-.59.7,1.54,1.54,0,0,1-1,.28,1.51,1.51,0,0,1-1-.28,1.83,1.83,0,0,1-.59-.7,3.52,3.52,0,0,1-.3-1A7,7,0,0,1,160.44,220.88Zm.68,0c0,.14,0,.29,0,.47a4.43,4.43,0,0,0,.06.51,2.72,2.72,0,0,0,.13.51,1.81,1.81,0,0,0,.22.44,1.24,1.24,0,0,0,.34.31,1,1,0,0,0,.48.11.9.9,0,0,0,.48-.11,1,1,0,0,0,.34-.31,1.53,1.53,0,0,0,.23-.44,3.8,3.8,0,0,0,.13-.51l.06-.51c0-.18,0-.33,0-.47s0-.29,0-.46l-.06-.52a4.77,4.77,0,0,0-.13-.51,1.67,1.67,0,0,0-.23-.44,1,1,0,0,0-.34-.3.9.9,0,0,0-.48-.12,1,1,0,0,0-.48.12,1.21,1.21,0,0,0-.34.3,2,2,0,0,0-.22.44,3.18,3.18,0,0,0-.13.51,4.88,4.88,0,0,0-.06.52C161.12,220.59,161.12,220.74,161.12,220.88Z"/><circle class="cls-4" cx="149.64" cy="136.61" r="94.93"/><line class="cls-4" x1="54.71" y1="136.66" x2="244.63" y2="136.66"/><line class="cls-4" x1="149.64" y1="231.59" x2="149.64" y2="41.68"/><line class="cls-4" x1="94.89" y1="41.68" x2="204.45" y2="231.59"/><line class="cls-4" x1="94.89" y1="231.59" x2="204.45" y2="41.68"/><line class="cls-4" x1="54.71" y1="81.85" x2="244.63" y2="191.42"/><line class="cls-4" x1="54.71" y1="191.42" x2="244.63" y2="81.85"/><line class="cls-5" x1="149.64" y1="227.17" x2="151.21" y2="227.22"/><line class="cls-5" x1="151.21" y1="227.22" x2="152.83" y2="227.27"/><line class="cls-5" x1="152.83" y1="227.27" x2="154.4" y2="227.33"/><line class="cls-5" x1="154.4" y1="227.33" x2="155.96" y2="227.33"/><line class="cls-5" x1="155.96" y1="227.33" x2="157.58" y2="227.27"/><line class="cls-5" x1="157.58" y1="227.27" x2="159.15" y2="227.17"/><line class="cls-5" x1="159.15" y1="227.17" x2="160.77" y2="227"/><line class="cls-5" x1="160.77" y1="227" x2="162.33" y2="226.79"/><line class="cls-5" x1="162.33" y1="226.79" x2="163.9" y2="226.46"/><line class="cls-5" x1="163.9" y1="226.46" x2="165.41" y2="226.14"/><line class="cls-5" x1="165.41" y1="226.14" x2="166.98" y2="225.71"/><line class="cls-5" x1="166.98" y1="225.71" x2="168.49" y2="225.28"/><line class="cls-5" x1="168.49" y1="225.28" x2="170" y2="224.79"/><line class="cls-5" x1="170" y1="224.79" x2="171.51" y2="224.25"/><line class="cls-5" x1="171.51" y1="224.25" x2="172.97" y2="223.55"/><line class="cls-5" x1="172.97" y1="223.55" x2="174.38" y2="222.95"/><line class="cls-5" x1="174.38" y1="222.95" x2="175.83" y2="222.2"/><line class="cls-5" x1="175.83" y1="222.2" x2="177.18" y2="221.44"/><line class="cls-5" x1="177.18" y1="221.44" x2="178.59" y2="220.58"/><line class="cls-5" x1="178.59" y1="220.58" x2="179.88" y2="219.71"/><line class="cls-5" x1="179.88" y1="219.71" x2="181.18" y2="218.8"/><line class="cls-5" x1="181.18" y1="218.8" x2="182.48" y2="217.88"/><line class="cls-5" x1="182.48" y1="217.88" x2="183.72" y2="216.85"/><line class="cls-5" x1="183.72" y1="216.85" x2="184.85" y2="215.77"/><line class="cls-5" x1="184.85" y1="215.77" x2="186.04" y2="214.64"/><line class="cls-5" x1="186.04" y1="214.64" x2="187.17" y2="213.56"/><line class="cls-5" x1="187.17" y1="213.56" x2="188.25" y2="212.37"/><line class="cls-5" x1="188.25" y1="212.37" x2="189.28" y2="211.13"/><line class="cls-5" x1="189.28" y1="211.13" x2="190.25" y2="209.89"/><line class="cls-5" x1="190.25" y1="209.89" x2="191.22" y2="208.59"/><line class="cls-5" x1="191.22" y1="208.59" x2="192.14" y2="207.29"/><line class="cls-5" x1="192.14" y1="207.29" x2="192.95" y2="205.94"/><line class="cls-5" x1="192.95" y1="205.94" x2="193.76" y2="204.59"/><line class="cls-5" x1="193.76" y1="204.59" x2="194.57" y2="203.19"/><line class="cls-5" x1="194.57" y1="203.19" x2="195.27" y2="201.73"/><line class="cls-5" x1="195.27" y1="201.73" x2="195.92" y2="200.27"/><line class="cls-5" x1="195.92" y1="200.27" x2="196.52" y2="198.82"/><line class="cls-5" x1="196.52" y1="198.82" x2="197.11" y2="197.36"/><line class="cls-5" x1="197.11" y1="197.36" x2="197.6" y2="195.85"/><line class="cls-5" x1="197.6" y1="195.85" x2="198.08" y2="194.33"/><line class="cls-5" x1="198.08" y1="194.33" x2="198.46" y2="192.77"/><line class="cls-5" x1="198.46" y1="192.77" x2="198.84" y2="191.26"/><line class="cls-5" x1="198.84" y1="191.26" x2="199.16" y2="189.69"/><line class="cls-5" x1="199.16" y1="189.69" x2="199.38" y2="188.12"/><line class="cls-5" x1="199.38" y1="188.12" x2="199.59" y2="186.56"/><line class="cls-5" x1="199.59" y1="186.56" x2="199.76" y2="184.99"/><line class="cls-5" x1="199.76" y1="184.99" x2="199.86" y2="183.43"/><line class="cls-5" x1="199.86" y1="183.43" x2="199.92" y2="181.86"/><line class="cls-5" x1="199.92" y1="181.86" x2="199.92" y2="180.29"/><line class="cls-5" x1="199.92" y1="180.29" x2="199.81" y2="178.73"/><line class="cls-5" x1="199.81" y1="178.73" x2="199.76" y2="177.16"/><line class="cls-5" x1="199.76" y1="177.16" x2="199.59" y2="175.65"/><line class="cls-5" x1="199.59" y1="175.65" x2="199.38" y2="174.08"/><line class="cls-5" x1="199.38" y1="174.08" x2="199.11" y2="172.57"/><line class="cls-5" x1="199.11" y1="172.57" x2="198.84" y2="171.06"/><line class="cls-5" x1="198.84" y1="171.06" x2="198.46" y2="169.55"/><line class="cls-5" x1="198.46" y1="169.55" x2="198.08" y2="168.04"/><line class="cls-5" x1="198.08" y1="168.04" x2="197.6" y2="166.58"/><line class="cls-5" x1="197.6" y1="166.58" x2="197.16" y2="165.17"/><line class="cls-5" x1="197.16" y1="165.17" x2="196.57" y2="163.72"/><line class="cls-5" x1="196.57" y1="163.72" x2="196.03" y2="162.31"/><line class="cls-5" x1="196.03" y1="162.31" x2="195.44" y2="160.96"/><line class="cls-5" x1="195.44" y1="160.96" x2="194.73" y2="159.61"/><line class="cls-5" x1="194.73" y1="159.61" x2="194.09" y2="158.26"/><line class="cls-5" x1="194.09" y1="158.26" x2="193.33" y2="156.97"/><line class="cls-5" x1="193.33" y1="156.97" x2="192.52" y2="155.72"/><line class="cls-5" x1="192.52" y1="155.72" x2="191.76" y2="154.48"/><line class="cls-5" x1="191.76" y1="154.48" x2="190.9" y2="153.29"/><line class="cls-5" x1="190.9" y1="153.29" x2="190.04" y2="152.11"/><line class="cls-5" x1="190.04" y1="152.11" x2="189.12" y2="150.97"/><line class="cls-5" x1="189.12" y1="150.97" x2="188.2" y2="149.89"/><line class="cls-5" x1="188.2" y1="149.89" x2="187.28" y2="148.81"/><line class="cls-5" x1="187.28" y1="148.81" x2="186.31" y2="147.84"/><line class="cls-5" x1="186.31" y1="147.84" x2="185.39" y2="146.87"/><line class="cls-5" x1="185.39" y1="146.87" x2="184.42" y2="145.95"/><line class="cls-5" x1="184.42" y1="145.95" x2="183.5" y2="145.03"/><line class="cls-5" x1="183.5" y1="145.03" x2="182.53" y2="144.22"/><line class="cls-5" x1="182.53" y1="144.22" x2="181.61" y2="143.41"/><line class="cls-5" x1="181.61" y1="143.41" x2="180.64" y2="142.66"/><line class="cls-5" x1="180.64" y1="142.66" x2="179.67" y2="141.9"/><line class="cls-5" x1="179.67" y1="141.9" x2="178.7" y2="141.2"/><line class="cls-5" x1="178.7" y1="141.2" x2="177.72" y2="140.55"/><line class="cls-5" x1="177.72" y1="140.55" x2="176.7" y2="139.96"/><line class="cls-5" x1="176.7" y1="139.96" x2="175.73" y2="139.36"/><line class="cls-5" x1="175.73" y1="139.36" x2="174.7" y2="138.82"/><line class="cls-5" x1="174.7" y1="138.82" x2="173.67" y2="138.28"/><line class="cls-5" x1="173.67" y1="138.28" x2="172.7" y2="137.8"/><line class="cls-5" x1="172.7" y1="137.8" x2="171.89" y2="137.36"/><line class="cls-5" x1="171.89" y1="137.36" x2="171.41" y2="136.99"/><line class="cls-5" x1="171.41" y1="136.99" x2="171.35" y2="136.66"/><line class="cls-5" x1="171.35" y1="136.66" x2="171.57" y2="136.28"/><line class="cls-5" x1="171.57" y1="136.28" x2="171.84" y2="135.91"/><line class="cls-5" x1="171.84" y1="135.91" x2="172.11" y2="135.47"/><line class="cls-5" x1="172.11" y1="135.47" x2="172.38" y2="135.1"/><line class="cls-5" x1="172.38" y1="135.1" x2="172.65" y2="134.66"/><line class="cls-5" x1="172.65" y1="134.66" x2="172.92" y2="134.23"/><line class="cls-5" x1="172.92" y1="134.23" x2="173.19" y2="133.75"/><line class="cls-5" x1="173.19" y1="133.75" x2="173.46" y2="133.31"/><line class="cls-5" x1="173.46" y1="133.31" x2="173.67" y2="132.83"/><line class="cls-5" x1="173.67" y1="132.83" x2="173.94" y2="132.4"/><line class="cls-5" x1="173.94" y1="132.4" x2="174.16" y2="131.91"/><line class="cls-5" x1="174.16" y1="131.91" x2="174.38" y2="131.42"/><line class="cls-5" x1="174.38" y1="131.42" x2="174.65" y2="130.88"/><line class="cls-5" x1="174.65" y1="130.88" x2="174.86" y2="130.4"/><line class="cls-5" x1="174.86" y1="130.4" x2="175.08" y2="129.86"/><line class="cls-5" x1="175.08" y1="129.86" x2="175.24" y2="129.32"/><line class="cls-5" x1="175.24" y1="129.32" x2="175.46" y2="128.78"/><line class="cls-5" x1="175.46" y1="128.78" x2="175.62" y2="128.24"/><line class="cls-5" x1="175.62" y1="128.24" x2="175.78" y2="127.64"/><line class="cls-5" x1="175.78" y1="127.64" x2="175.89" y2="127.1"/><line class="cls-5" x1="175.89" y1="127.1" x2="176" y2="126.56"/><line class="cls-5" x1="176" y1="126.56" x2="176.05" y2="125.97"/><line class="cls-5" x1="176.05" y1="125.97" x2="176.1" y2="125.43"/><line class="cls-5" x1="176.1" y1="125.43" x2="176.1" y2="124.89"/><line class="cls-5" x1="176.1" y1="124.89" x2="176.05" y2="124.35"/><line class="cls-5" x1="176.05" y1="124.35" x2="176" y2="123.81"/><line class="cls-5" x1="176" y1="123.81" x2="175.94" y2="123.27"/><line class="cls-5" x1="175.94" y1="123.27" x2="175.83" y2="122.73"/><line class="cls-5" x1="175.83" y1="122.73" x2="175.73" y2="122.19"/><line class="cls-5" x1="175.73" y1="122.19" x2="175.62" y2="121.65"/><line class="cls-5" x1="175.62" y1="121.65" x2="175.46" y2="121.16"/><line class="cls-5" x1="175.46" y1="121.16" x2="175.29" y2="120.62"/><line class="cls-5" x1="175.29" y1="120.62" x2="175.08" y2="120.14"/><line class="cls-5" x1="175.08" y1="120.14" x2="174.86" y2="119.65"/><line class="cls-5" x1="174.86" y1="119.65" x2="174.65" y2="119.17"/><line class="cls-5" x1="174.65" y1="119.17" x2="174.43" y2="118.68"/><line class="cls-5" x1="174.43" y1="118.68" x2="174.16" y2="118.19"/><line class="cls-5" x1="174.16" y1="118.19" x2="173.89" y2="117.71"/><line class="cls-5" x1="173.89" y1="117.71" x2="173.62" y2="117.28"/><line class="cls-5" x1="173.62" y1="117.28" x2="173.3" y2="116.84"/><line class="cls-5" x1="173.3" y1="116.84" x2="172.97" y2="116.41"/><line class="cls-5" x1="172.97" y1="116.41" x2="172.59" y2="115.98"/><line class="cls-5" x1="172.59" y1="115.98" x2="172.22" y2="115.6"/><line class="cls-5" x1="172.22" y1="115.6" x2="171.84" y2="115.22"/><line class="cls-5" x1="171.84" y1="115.22" x2="171.46" y2="114.85"/><line class="cls-5" x1="171.46" y1="114.85" x2="171.03" y2="114.52"/><line class="cls-5" x1="171.03" y1="114.52" x2="170.54" y2="114.25"/><line class="cls-5" x1="170.54" y1="114.25" x2="170.11" y2="113.93"/><line class="cls-5" x1="170.11" y1="113.93" x2="169.62" y2="113.66"/><line class="cls-5" x1="169.62" y1="113.66" x2="169.19" y2="113.39"/><line class="cls-5" x1="169.19" y1="113.39" x2="168.65" y2="113.17"/><line class="cls-5" x1="168.65" y1="113.17" x2="168.17" y2="112.96"/><line class="cls-5" x1="168.17" y1="112.96" x2="167.68" y2="112.74"/><line class="cls-5" x1="167.68" y1="112.74" x2="167.14" y2="112.58"/><line class="cls-5" x1="167.14" y1="112.58" x2="166.65" y2="112.42"/><line class="cls-5" x1="166.65" y1="112.42" x2="166.11" y2="112.25"/><line class="cls-5" x1="166.11" y1="112.25" x2="165.57" y2="112.15"/><line class="cls-5" x1="165.57" y1="112.15" x2="165.03" y2="112.04"/><line class="cls-5" x1="165.03" y1="112.04" x2="164.49" y2="111.93"/><line class="cls-5" x1="164.49" y1="111.93" x2="163.95" y2="111.88"/><line class="cls-5" x1="163.95" y1="111.88" x2="163.41" y2="111.82"/><line class="cls-5" x1="163.41" y1="111.82" x2="162.87" y2="111.77"/><line class="cls-5" x1="162.87" y1="111.77" x2="162.33" y2="111.77"/><line class="cls-5" x1="162.33" y1="111.77" x2="161.79" y2="111.77"/><line class="cls-5" x1="161.79" y1="111.77" x2="161.2" y2="111.82"/><line class="cls-5" x1="161.2" y1="111.82" x2="160.66" y2="111.88"/><line class="cls-5" x1="160.66" y1="111.88" x2="160.12" y2="111.98"/><line class="cls-5" x1="160.12" y1="111.98" x2="159.58" y2="112.09"/><line class="cls-5" x1="159.58" y1="112.09" x2="158.99" y2="112.25"/><line class="cls-5" x1="158.99" y1="112.25" x2="158.45" y2="112.47"/><line class="cls-5" x1="158.45" y1="112.47" x2="157.91" y2="112.74"/><line class="cls-5" x1="157.91" y1="112.74" x2="157.31" y2="113.01"/><line class="cls-5" x1="157.31" y1="113.01" x2="156.77" y2="113.28"/><line class="cls-5" x1="156.77" y1="113.28" x2="156.29" y2="113.55"/><line class="cls-5" x1="156.29" y1="113.55" x2="155.75" y2="113.87"/><line class="cls-5" x1="155.75" y1="113.87" x2="155.26" y2="114.25"/><line class="cls-5" x1="155.26" y1="114.25" x2="154.77" y2="114.41"/><line class="cls-5" x1="154.77" y1="114.41" x2="154.4" y2="114.31"/><line class="cls-5" x1="154.4" y1="114.31" x2="154.07" y2="114.04"/><line class="cls-5" x1="154.07" y1="114.04" x2="153.69" y2="113.77"/><line class="cls-5" x1="153.69" y1="113.77" x2="153.32" y2="113.6"/><line class="cls-5" x1="153.32" y1="113.6" x2="152.88" y2="113.55"/><line class="cls-5" x1="152.88" y1="113.55" x2="152.51" y2="113.39"/><line class="cls-5" x1="152.51" y1="113.39" x2="152.13" y2="113.23"/><line class="cls-5" x1="152.13" y1="113.23" x2="151.7" y2="113.06"/><line class="cls-5" x1="151.7" y1="113.06" x2="151.32" y2="112.85"/><line class="cls-5" x1="151.32" y1="112.85" x2="150.89" y2="112.63"/><line class="cls-5" x1="150.89" y1="112.63" x2="150.51" y2="112.47"/><line class="cls-5" x1="150.51" y1="112.47" x2="150.08" y2="112.42"/><line class="cls-5" x1="150.08" y1="112.42" x2="149.64" y2="112.42"/><line class="cls-5" x1="149.64" y1="227.17" x2="148.13" y2="227.22"/><line class="cls-5" x1="148.13" y1="227.22" x2="146.51" y2="227.27"/><line class="cls-5" x1="146.51" y1="227.27" x2="144.95" y2="227.33"/><line class="cls-5" x1="144.95" y1="227.33" x2="143.38" y2="227.33"/><line class="cls-5" x1="143.38" y1="227.33" x2="141.76" y2="227.27"/><line class="cls-5" x1="141.76" y1="227.27" x2="140.19" y2="227.17"/><line class="cls-5" x1="140.19" y1="227.17" x2="138.57" y2="227"/><line class="cls-5" x1="138.57" y1="227" x2="137.01" y2="226.79"/><line class="cls-5" x1="137.01" y1="226.79" x2="135.44" y2="226.46"/><line class="cls-5" x1="135.44" y1="226.46" x2="133.93" y2="226.14"/><line class="cls-5" x1="133.93" y1="226.14" x2="132.36" y2="225.71"/><line class="cls-5" x1="132.36" y1="225.71" x2="130.85" y2="225.28"/><line class="cls-5" x1="130.85" y1="225.28" x2="129.34" y2="224.79"/><line class="cls-5" x1="129.34" y1="224.79" x2="127.83" y2="224.25"/><line class="cls-5" x1="127.83" y1="224.25" x2="126.37" y2="223.55"/><line class="cls-5" x1="126.37" y1="223.55" x2="124.97" y2="222.95"/><line class="cls-5" x1="124.97" y1="222.95" x2="123.51" y2="222.2"/><line class="cls-5" x1="123.51" y1="222.2" x2="122.16" y2="221.44"/><line class="cls-5" x1="122.16" y1="221.44" x2="120.75" y2="220.58"/><line class="cls-5" x1="120.75" y1="220.58" x2="119.46" y2="219.71"/><line class="cls-5" x1="119.46" y1="219.71" x2="118.16" y2="218.8"/><line class="cls-5" x1="118.16" y1="218.8" x2="116.87" y2="217.88"/><line class="cls-5" x1="116.87" y1="217.88" x2="115.62" y2="216.85"/><line class="cls-5" x1="115.62" y1="216.85" x2="114.49" y2="215.77"/><line class="cls-5" x1="114.49" y1="215.77" x2="113.3" y2="214.64"/><line class="cls-5" x1="113.3" y1="214.64" x2="112.17" y2="213.56"/><line class="cls-5" x1="112.17" y1="213.56" x2="111.09" y2="212.37"/><line class="cls-5" x1="111.09" y1="212.37" x2="110.06" y2="211.13"/><line class="cls-5" x1="110.06" y1="211.13" x2="109.09" y2="209.89"/><line class="cls-5" x1="109.09" y1="209.89" x2="108.12" y2="208.59"/><line class="cls-5" x1="108.12" y1="208.59" x2="107.2" y2="207.29"/><line class="cls-5" x1="107.2" y1="207.29" x2="106.39" y2="205.94"/><line class="cls-5" x1="106.39" y1="205.94" x2="105.58" y2="204.59"/><line class="cls-5" x1="105.58" y1="204.59" x2="104.77" y2="203.19"/><line class="cls-5" x1="104.77" y1="203.19" x2="104.07" y2="201.73"/><line class="cls-5" x1="104.07" y1="201.73" x2="103.42" y2="200.27"/><line class="cls-5" x1="103.42" y1="200.27" x2="102.83" y2="198.82"/><line class="cls-5" x1="102.83" y1="198.82" x2="102.23" y2="197.36"/><line class="cls-5" x1="102.23" y1="197.36" x2="101.75" y2="195.85"/><line class="cls-5" x1="101.75" y1="195.85" x2="101.26" y2="194.33"/><line class="cls-5" x1="101.26" y1="194.33" x2="100.88" y2="192.77"/><line class="cls-5" x1="100.88" y1="192.77" x2="100.5" y2="191.26"/><line class="cls-5" x1="100.5" y1="191.26" x2="100.18" y2="189.69"/><line class="cls-5" x1="100.18" y1="189.69" x2="99.96" y2="188.12"/><line class="cls-5" x1="99.96" y1="188.12" x2="99.75" y2="186.56"/><line class="cls-5" x1="99.75" y1="186.56" x2="99.59" y2="184.99"/><line class="cls-5" x1="99.59" y1="184.99" x2="99.48" y2="183.43"/><line class="cls-5" x1="99.48" y1="183.43" x2="99.42" y2="181.86"/><line class="cls-5" x1="99.42" y1="181.86" x2="99.42" y2="180.29"/><line class="cls-5" x1="99.42" y1="180.29" x2="99.53" y2="178.73"/><line class="cls-5" x1="99.53" y1="178.73" x2="99.59" y2="177.16"/><line class="cls-5" x1="99.59" y1="177.16" x2="99.75" y2="175.65"/><line class="cls-5" x1="99.75" y1="175.65" x2="99.96" y2="174.08"/><line class="cls-5" x1="99.96" y1="174.08" x2="100.23" y2="172.57"/><line class="cls-5" x1="100.23" y1="172.57" x2="100.5" y2="171.06"/><line class="cls-5" x1="100.5" y1="171.06" x2="100.88" y2="169.55"/><line class="cls-5" x1="100.88" y1="169.55" x2="101.26" y2="168.04"/><line class="cls-5" x1="101.26" y1="168.04" x2="101.75" y2="166.58"/><line class="cls-5" x1="101.75" y1="166.58" x2="102.18" y2="165.17"/><line class="cls-5" x1="102.18" y1="165.17" x2="102.77" y2="163.72"/><line class="cls-5" x1="102.77" y1="163.72" x2="103.31" y2="162.31"/><line class="cls-5" x1="103.31" y1="162.31" x2="103.91" y2="160.96"/><line class="cls-5" x1="103.91" y1="160.96" x2="104.61" y2="159.61"/><line class="cls-5" x1="104.61" y1="159.61" x2="105.26" y2="158.26"/><line class="cls-5" x1="105.26" y1="158.26" x2="106.01" y2="156.97"/><line class="cls-5" x1="106.01" y1="156.97" x2="106.82" y2="155.72"/><line class="cls-5" x1="106.82" y1="155.72" x2="107.58" y2="154.48"/><line class="cls-5" x1="107.58" y1="154.48" x2="108.44" y2="153.29"/><line class="cls-5" x1="108.44" y1="153.29" x2="109.31" y2="152.11"/><line class="cls-5" x1="109.31" y1="152.11" x2="110.22" y2="150.97"/><line class="cls-5" x1="110.22" y1="150.97" x2="111.14" y2="149.89"/><line class="cls-5" x1="111.14" y1="149.89" x2="112.06" y2="148.81"/><line class="cls-5" x1="112.06" y1="148.81" x2="113.03" y2="147.84"/><line class="cls-5" x1="113.03" y1="147.84" x2="113.95" y2="146.87"/><line class="cls-5" x1="113.95" y1="146.87" x2="114.92" y2="145.95"/><line class="cls-5" x1="114.92" y1="145.95" x2="115.84" y2="145.03"/><line class="cls-5" x1="115.84" y1="145.03" x2="116.81" y2="144.22"/><line class="cls-5" x1="116.81" y1="144.22" x2="117.73" y2="143.41"/><line class="cls-5" x1="117.73" y1="143.41" x2="118.7" y2="142.66"/><line class="cls-5" x1="118.7" y1="142.66" x2="119.67" y2="141.9"/><line class="cls-5" x1="119.67" y1="141.9" x2="120.65" y2="141.2"/><line class="cls-5" x1="120.65" y1="141.2" x2="121.62" y2="140.55"/><line class="cls-5" x1="121.62" y1="140.55" x2="122.64" y2="139.96"/><line class="cls-5" x1="122.64" y1="139.96" x2="123.62" y2="139.36"/><line class="cls-5" x1="123.62" y1="139.36" x2="124.64" y2="138.82"/><line class="cls-5" x1="124.64" y1="138.82" x2="125.67" y2="138.28"/><line class="cls-5" x1="125.67" y1="138.28" x2="126.64" y2="137.8"/><line class="cls-5" x1="126.64" y1="137.8" x2="127.45" y2="137.36"/><line class="cls-5" x1="127.45" y1="137.36" x2="127.94" y2="136.99"/><line class="cls-5" x1="127.94" y1="136.99" x2="127.99" y2="136.66"/><line class="cls-5" x1="127.99" y1="136.66" x2="127.77" y2="136.28"/><line class="cls-5" x1="127.77" y1="136.28" x2="127.5" y2="135.91"/><line class="cls-5" x1="127.5" y1="135.91" x2="127.23" y2="135.47"/><line class="cls-5" x1="127.23" y1="135.47" x2="126.96" y2="135.1"/><line class="cls-5" x1="126.96" y1="135.1" x2="126.69" y2="134.66"/><line class="cls-5" x1="126.69" y1="134.66" x2="126.42" y2="134.23"/><line class="cls-5" x1="126.42" y1="134.23" x2="126.15" y2="133.75"/><line class="cls-5" x1="126.15" y1="133.75" x2="125.88" y2="133.31"/><line class="cls-5" x1="125.88" y1="133.31" x2="125.67" y2="132.83"/><line class="cls-5" x1="125.67" y1="132.83" x2="125.4" y2="132.4"/><line class="cls-5" x1="125.4" y1="132.4" x2="125.18" y2="131.91"/><line class="cls-5" x1="125.18" y1="131.91" x2="124.97" y2="131.42"/><line class="cls-5" x1="124.97" y1="131.42" x2="124.7" y2="130.88"/><line class="cls-5" x1="124.7" y1="130.88" x2="124.48" y2="130.4"/><line class="cls-5" x1="124.48" y1="130.4" x2="124.26" y2="129.86"/><line class="cls-5" x1="124.26" y1="129.86" x2="124.1" y2="129.32"/><line class="cls-5" x1="124.1" y1="129.32" x2="123.89" y2="128.78"/><line class="cls-5" x1="123.89" y1="128.78" x2="123.72" y2="128.24"/><line class="cls-5" x1="123.72" y1="128.24" x2="123.56" y2="127.64"/><line class="cls-5" x1="123.56" y1="127.64" x2="123.45" y2="127.1"/><line class="cls-5" x1="123.45" y1="127.1" x2="123.35" y2="126.56"/><line class="cls-5" x1="123.35" y1="126.56" x2="123.29" y2="125.97"/><line class="cls-5" x1="123.29" y1="125.97" x2="123.24" y2="125.43"/><line class="cls-5" x1="123.24" y1="125.43" x2="123.24" y2="124.89"/><line class="cls-5" x1="123.24" y1="124.89" x2="123.29" y2="124.35"/><line class="cls-5" x1="123.29" y1="124.35" x2="123.35" y2="123.81"/><line class="cls-5" x1="123.35" y1="123.81" x2="123.4" y2="123.27"/><line class="cls-5" x1="123.4" y1="123.27" x2="123.51" y2="122.73"/><line class="cls-5" x1="123.51" y1="122.73" x2="123.62" y2="122.19"/><line class="cls-5" x1="123.62" y1="122.19" x2="123.72" y2="121.65"/><line class="cls-5" x1="123.72" y1="121.65" x2="123.89" y2="121.16"/><line class="cls-5" x1="123.89" y1="121.16" x2="124.05" y2="120.62"/><line class="cls-5" x1="124.05" y1="120.62" x2="124.26" y2="120.14"/><line class="cls-5" x1="124.26" y1="120.14" x2="124.48" y2="119.65"/><line class="cls-5" x1="124.48" y1="119.65" x2="124.7" y2="119.17"/><line class="cls-5" x1="124.7" y1="119.17" x2="124.91" y2="118.68"/><line class="cls-5" x1="124.91" y1="118.68" x2="125.18" y2="118.19"/><line class="cls-5" x1="125.18" y1="118.19" x2="125.45" y2="117.71"/><line class="cls-5" x1="125.45" y1="117.71" x2="125.72" y2="117.28"/><line class="cls-5" x1="125.72" y1="117.28" x2="126.05" y2="116.84"/><line class="cls-5" x1="126.05" y1="116.84" x2="126.37" y2="116.41"/><line class="cls-5" x1="126.37" y1="116.41" x2="126.75" y2="115.98"/><line class="cls-5" x1="126.75" y1="115.98" x2="127.13" y2="115.6"/><line class="cls-5" x1="127.13" y1="115.6" x2="127.5" y2="115.22"/><line class="cls-5" x1="127.5" y1="115.22" x2="127.88" y2="114.85"/><line class="cls-5" x1="127.88" y1="114.85" x2="128.31" y2="114.52"/><line class="cls-5" x1="128.31" y1="114.52" x2="128.8" y2="114.25"/><line class="cls-5" x1="128.8" y1="114.25" x2="129.23" y2="113.93"/><line class="cls-5" x1="129.23" y1="113.93" x2="129.72" y2="113.66"/><line class="cls-5" x1="129.72" y1="113.66" x2="130.15" y2="113.39"/><line class="cls-5" x1="130.15" y1="113.39" x2="130.69" y2="113.17"/><line class="cls-5" x1="130.69" y1="113.17" x2="131.18" y2="112.96"/><line class="cls-5" x1="131.18" y1="112.96" x2="131.66" y2="112.74"/><line class="cls-5" x1="131.66" y1="112.74" x2="132.2" y2="112.58"/><line class="cls-5" x1="132.2" y1="112.58" x2="132.69" y2="112.42"/><line class="cls-5" x1="132.69" y1="112.42" x2="133.23" y2="112.25"/><line class="cls-5" x1="133.23" y1="112.25" x2="133.77" y2="112.15"/><line class="cls-5" x1="133.77" y1="112.15" x2="134.31" y2="112.04"/><line class="cls-5" x1="134.31" y1="112.04" x2="134.85" y2="111.93"/><line class="cls-5" x1="134.85" y1="111.93" x2="135.39" y2="111.88"/><line class="cls-5" x1="135.39" y1="111.88" x2="135.93" y2="111.82"/><line class="cls-5" x1="135.93" y1="111.82" x2="136.47" y2="111.77"/><line class="cls-5" x1="136.47" y1="111.77" x2="137.01" y2="111.77"/><line class="cls-5" x1="137.01" y1="111.77" x2="137.55" y2="111.77"/><line class="cls-5" x1="137.55" y1="111.77" x2="138.14" y2="111.82"/><line class="cls-5" x1="138.14" y1="111.82" x2="138.68" y2="111.88"/><line class="cls-5" x1="138.68" y1="111.88" x2="139.22" y2="111.98"/><line class="cls-5" x1="139.22" y1="111.98" x2="139.76" y2="112.09"/><line class="cls-5" x1="139.76" y1="112.09" x2="140.36" y2="112.25"/><line class="cls-5" x1="140.36" y1="112.25" x2="140.9" y2="112.47"/><line class="cls-5" x1="140.9" y1="112.47" x2="141.44" y2="112.74"/><line class="cls-5" x1="141.44" y1="112.74" x2="142.03" y2="113.01"/><line class="cls-5" x1="142.03" y1="113.01" x2="142.57" y2="113.28"/><line class="cls-5" x1="142.57" y1="113.28" x2="143.06" y2="113.55"/><line class="cls-5" x1="143.06" y1="113.55" x2="143.6" y2="113.87"/><line class="cls-5" x1="143.6" y1="113.87" x2="144.08" y2="114.25"/><line class="cls-5" x1="144.08" y1="114.25" x2="144.57" y2="114.41"/><line class="cls-5" x1="144.57" y1="114.41" x2="144.95" y2="114.31"/><line class="cls-5" x1="144.95" y1="114.31" x2="145.27" y2="114.04"/><line class="cls-5" x1="145.27" y1="114.04" x2="145.65" y2="113.77"/><line class="cls-5" x1="145.65" y1="113.77" x2="146.03" y2="113.6"/><line class="cls-5" x1="146.03" y1="113.6" x2="146.46" y2="113.55"/><line class="cls-5" x1="146.46" y1="113.55" x2="146.84" y2="113.39"/><line class="cls-5" x1="146.84" y1="113.39" x2="147.21" y2="113.23"/><line class="cls-5" x1="147.21" y1="113.23" x2="147.65" y2="113.06"/><line class="cls-5" x1="147.65" y1="113.06" x2="148.02" y2="112.85"/><line class="cls-5" x1="148.02" y1="112.85" x2="148.46" y2="112.63"/><line class="cls-5" x1="148.46" y1="112.63" x2="148.83" y2="112.47"/><line class="cls-5" x1="148.83" y1="112.47" x2="149.27" y2="112.42"/><line class="cls-5" x1="149.27" y1="112.42" x2="149.64" y2="112.42"/><line class="cls-5" x1="149.64" y1="227.17" x2="149.91" y2="227.17"/><line class="cls-5" x1="151.21" y1="227.22" x2="151.21" y2="227.22"/><line class="cls-5" x1="151.21" y1="227.22" x2="151.48" y2="227.22"/><line class="cls-5" x1="152.78" y1="227.27" x2="152.83" y2="227.27"/><line class="cls-5" x1="152.83" y1="227.27" x2="153.05" y2="227.27"/><line class="cls-5" x1="154.34" y1="227.33" x2="154.4" y2="227.33"/><line class="cls-5" x1="154.4" y1="227.33" x2="154.61" y2="227.33"/><line class="cls-5" x1="155.96" y1="227.33" x2="155.96" y2="227.33"/><line class="cls-5" x1="155.96" y1="227.33" x2="156.23" y2="227.33"/><line class="cls-5" x1="157.53" y1="227.27" x2="157.58" y2="227.27"/><line class="cls-5" x1="157.58" y1="227.27" x2="157.8" y2="227.27"/><line class="cls-5" x1="159.09" y1="227.17" x2="159.15" y2="227.17"/><line class="cls-5" x1="159.15" y1="227.17" x2="159.36" y2="227.17"/><line class="cls-5" x1="160.66" y1="227" x2="160.77" y2="227"/><line class="cls-5" x1="160.77" y1="227" x2="160.93" y2="227"/><line class="cls-5" x1="162.17" y1="226.79" x2="162.33" y2="226.79"/><line class="cls-5" x1="162.33" y1="226.79" x2="162.44" y2="226.79"/><line class="cls-5" x1="163.68" y1="226.52" x2="163.9" y2="226.46"/><line class="cls-5" x1="165.14" y1="226.19" x2="165.36" y2="226.14"/><line class="cls-5" x1="166.6" y1="225.82" x2="166.82" y2="225.76"/><line class="cls-5" x1="168.06" y1="225.38" x2="168.27" y2="225.33"/><line class="cls-5" x1="169.46" y1="224.95" x2="169.68" y2="224.9"/><line class="cls-5" x1="170.87" y1="224.47" x2="171.08" y2="224.41"/><line class="cls-5" x1="172.27" y1="223.87" x2="172.49" y2="223.76"/><line class="cls-5" x1="173.62" y1="223.28" x2="173.84" y2="223.17"/><line class="cls-5" x1="174.97" y1="222.63" x2="175.19" y2="222.52"/><line class="cls-5" x1="176.32" y1="221.93" x2="176.54" y2="221.82"/><line class="cls-5" x1="177.62" y1="221.17" x2="177.83" y2="221.06"/><line class="cls-5" x1="178.91" y1="220.36" x2="179.13" y2="220.2"/><line class="cls-5" x1="180.21" y1="219.5" x2="180.42" y2="219.34"/><line class="cls-5" x1="181.45" y1="218.58" x2="181.67" y2="218.47"/><line class="cls-5" x1="182.69" y1="217.72" x2="182.85" y2="217.55"/><line class="cls-5" x1="183.88" y1="216.69" x2="184.04" y2="216.53"/><line class="cls-5" x1="185.01" y1="215.61" x2="185.18" y2="215.45"/><line class="cls-5" x1="186.15" y1="214.53" x2="186.31" y2="214.37"/><line class="cls-5" x1="187.28" y1="213.45" x2="187.44" y2="213.29"/><line class="cls-5" x1="188.31" y1="212.32" x2="188.47" y2="212.1"/><line class="cls-5" x1="189.33" y1="211.07" x2="189.5" y2="210.86"/><line class="cls-5" x1="190.31" y1="209.83" x2="190.47" y2="209.62"/><line class="cls-5" x1="191.22" y1="208.59" x2="191.22" y2="208.59"/><line class="cls-5" x1="191.22" y1="208.59" x2="191.39" y2="208.37"/><line class="cls-5" x1="192.14" y1="207.29" x2="192.14" y2="207.29"/><line class="cls-5" x1="192.14" y1="207.29" x2="192.25" y2="207.08"/><line class="cls-5" x1="192.9" y1="206" x2="192.95" y2="205.94"/><line class="cls-5" x1="192.95" y1="205.94" x2="193.06" y2="205.78"/><line class="cls-5" x1="193.71" y1="204.7" x2="193.76" y2="204.59"/><line class="cls-5" x1="193.76" y1="204.59" x2="193.82" y2="204.49"/><line class="cls-5" x1="194.46" y1="203.41" x2="194.57" y2="203.19"/><line class="cls-5" x1="195.11" y1="202.06" x2="195.22" y2="201.84"/><line class="cls-5" x1="195.71" y1="200.71" x2="195.81" y2="200.49"/><line class="cls-5" x1="196.3" y1="199.36" x2="196.41" y2="199.14"/><line class="cls-5" x1="196.89" y1="197.95" x2="196.95" y2="197.74"/><line class="cls-5" x1="197.38" y1="196.55" x2="197.43" y2="196.33"/><line class="cls-5" x1="197.81" y1="195.14" x2="197.87" y2="194.93"/><line class="cls-5" x1="198.24" y1="193.74" x2="198.3" y2="193.52"/><line class="cls-5" x1="198.57" y1="192.28" x2="198.62" y2="192.07"/><line class="cls-5" x1="198.95" y1="190.82" x2="199" y2="190.55"/><line class="cls-5" x1="199.22" y1="189.31" x2="199.27" y2="189.1"/><line class="cls-5" x1="199.43" y1="187.8" x2="199.49" y2="187.53"/><line class="cls-5" x1="199.65" y1="186.23" x2="199.65" y2="185.96"/><line class="cls-5" x1="199.76" y1="184.67" x2="199.81" y2="184.45"/><line class="cls-5" x1="199.86" y1="183.16" x2="199.86" y2="182.89"/><line class="cls-5" x1="199.92" y1="181.59" x2="199.92" y2="181.32"/><line class="cls-5" x1="199.92" y1="179.97" x2="199.86" y2="179.75"/><line class="cls-5" x1="199.81" y1="178.46" x2="199.81" y2="178.19"/><line class="cls-5" x1="199.7" y1="176.89" x2="199.7" y2="176.62"/><line class="cls-5" x1="199.54" y1="175.33" x2="199.49" y2="175.06"/><line class="cls-5" x1="199.32" y1="173.76" x2="199.27" y2="173.54"/><line class="cls-5" x1="199.05" y1="172.3" x2="199" y2="172.09"/><line class="cls-5" x1="198.78" y1="170.84" x2="198.73" y2="170.63"/><line class="cls-5" x1="198.41" y1="169.39" x2="198.35" y2="169.17"/><line class="cls-5" x1="198.03" y1="167.93" x2="197.97" y2="167.71"/><line class="cls-5" x1="197.6" y1="166.52" x2="197.49" y2="166.31"/><line class="cls-5" x1="197.11" y1="165.07" x2="197.06" y2="164.85"/><line class="cls-5" x1="196.57" y1="163.72" x2="196.57" y2="163.72"/><line class="cls-5" x1="196.57" y1="163.72" x2="196.46" y2="163.5"/><line class="cls-5" x1="196.03" y1="162.31" x2="196.03" y2="162.31"/><line class="cls-5" x1="196.03" y1="162.31" x2="195.92" y2="162.1"/><line class="cls-5" x1="195.38" y1="160.91" x2="195.27" y2="160.69"/><line class="cls-5" x1="194.73" y1="159.56" x2="194.63" y2="159.34"/><line class="cls-5" x1="194.03" y1="158.21" x2="193.92" y2="157.99"/><line class="cls-5" x1="193.28" y1="156.91" x2="193.17" y2="156.7"/><line class="cls-5" x1="192.47" y1="155.62" x2="192.3" y2="155.4"/><line class="cls-5" x1="191.66" y1="154.32" x2="191.49" y2="154.1"/><line class="cls-5" x1="190.74" y1="153.08" x2="190.58" y2="152.86"/><line class="cls-5" x1="189.82" y1="151.84" x2="189.66" y2="151.62"/><line class="cls-5" x1="188.79" y1="150.59" x2="188.63" y2="150.43"/><line class="cls-5" x1="187.77" y1="149.41" x2="187.61" y2="149.19"/><line class="cls-5" x1="186.69" y1="148.22" x2="186.53" y2="148.06"/><line class="cls-5" x1="185.61" y1="147.08" x2="185.45" y2="146.92"/><line class="cls-5" x1="184.47" y1="146" x2="184.42" y2="145.95"/><line class="cls-5" x1="184.42" y1="145.95" x2="184.31" y2="145.84"/><line class="cls-5" x1="183.39" y1="144.92" x2="183.18" y2="144.76"/><line class="cls-5" x1="182.15" y1="143.9" x2="181.99" y2="143.74"/><line class="cls-5" x1="180.96" y1="142.93" x2="180.8" y2="142.76"/><line class="cls-5" x1="179.78" y1="142.01" x2="179.67" y2="141.9"/><line class="cls-5" x1="179.67" y1="141.9" x2="179.61" y2="141.85"/><line class="cls-5" x1="178.53" y1="141.09" x2="178.32" y2="140.93"/><line class="cls-5" x1="177.24" y1="140.28" x2="177.02" y2="140.12"/><line class="cls-5" x1="175.94" y1="139.47" x2="175.73" y2="139.36"/><line class="cls-5" x1="174.59" y1="138.77" x2="174.38" y2="138.66"/><line class="cls-5" x1="173.24" y1="138.07" x2="173.03" y2="137.96"/><line class="cls-5" x1="171.89" y1="137.36" x2="171.89" y2="137.36"/><line class="cls-5" x1="171.89" y1="137.36" x2="171.68" y2="137.2"/><line class="cls-5" x1="171.68" y1="136.12" x2="171.84" y2="135.91"/><line class="cls-5" x1="172.54" y1="134.83" x2="172.65" y2="134.66"/><line class="cls-5" x1="172.65" y1="134.66" x2="172.7" y2="134.61"/><line class="cls-5" x1="173.35" y1="133.53" x2="173.46" y2="133.31"/><line class="cls-5" x1="174.05" y1="132.18" x2="174.16" y2="131.96"/><line class="cls-5" x1="174.7" y1="130.78" x2="174.81" y2="130.56"/><line class="cls-5" x1="175.24" y1="129.37" x2="175.24" y2="129.32"/><line class="cls-5" x1="175.24" y1="129.32" x2="175.29" y2="129.16"/><line class="cls-5" x1="175.67" y1="127.97" x2="175.73" y2="127.75"/><line class="cls-5" x1="176" y1="126.51" x2="176.05" y2="126.24"/><line class="cls-5" x1="176.1" y1="124.94" x2="176.1" y2="124.89"/><line class="cls-5" x1="176.1" y1="124.89" x2="176.1" y2="124.67"/><line class="cls-5" x1="175.94" y1="123.38" x2="175.94" y2="123.27"/><line class="cls-5" x1="175.94" y1="123.27" x2="175.89" y2="123.11"/><line class="cls-5" x1="175.67" y1="121.87" x2="175.62" y2="121.65"/><line class="cls-5" x1="175.24" y1="120.46" x2="175.13" y2="120.25"/><line class="cls-5" x1="174.65" y1="119.11" x2="174.54" y2="118.9"/><line class="cls-5" x1="173.94" y1="117.76" x2="173.89" y2="117.71"/><line class="cls-5" x1="173.89" y1="117.71" x2="173.78" y2="117.55"/><line class="cls-5" x1="173.03" y1="116.52" x2="172.97" y2="116.41"/><line class="cls-5" x1="172.97" y1="116.41" x2="172.86" y2="116.3"/><line class="cls-5" x1="171.95" y1="115.33" x2="171.84" y2="115.22"/><line class="cls-5" x1="171.84" y1="115.22" x2="171.78" y2="115.17"/><line class="cls-5" x1="170.76" y1="114.36" x2="170.54" y2="114.25"/><line class="cls-5" x1="169.46" y1="113.55" x2="169.25" y2="113.44"/><line class="cls-5" x1="168.11" y1="112.96" x2="167.9" y2="112.85"/><line class="cls-5" x1="166.71" y1="112.42" x2="166.65" y2="112.42"/><line class="cls-5" x1="166.65" y1="112.42" x2="166.49" y2="112.36"/><line class="cls-5" x1="165.25" y1="112.09" x2="165.03" y2="112.04"/><line class="cls-5" x1="163.79" y1="111.88" x2="163.58" y2="111.82"/><line class="cls-5" x1="162.28" y1="111.77" x2="162.01" y2="111.77"/><line class="cls-5" x1="160.71" y1="111.88" x2="160.66" y2="111.88"/><line class="cls-5" x1="160.66" y1="111.88" x2="160.5" y2="111.93"/><line class="cls-5" x1="159.26" y1="112.2" x2="159.04" y2="112.25"/><line class="cls-5" x1="157.85" y1="112.74" x2="157.64" y2="112.85"/><line class="cls-5" x1="156.5" y1="113.44" x2="156.29" y2="113.55"/><line class="cls-5" x1="155.21" y1="114.25" x2="154.99" y2="114.36"/><line class="cls-5" x1="153.86" y1="113.87" x2="153.69" y2="113.77"/><line class="cls-5" x1="153.69" y1="113.77" x2="153.64" y2="113.77"/><line class="cls-5" x1="152.45" y1="113.39" x2="152.24" y2="113.28"/><line class="cls-5" x1="151.1" y1="112.74" x2="150.89" y2="112.63"/><line class="cls-5" x1="149.64" y1="112.42" x2="149.64" y2="112.42"/><line class="cls-5" x1="149.64" y1="227.17" x2="149.37" y2="227.17"/><line class="cls-5" x1="148.08" y1="227.22" x2="147.81" y2="227.22"/><line class="cls-5" x1="146.51" y1="227.27" x2="146.51" y2="227.27"/><line class="cls-5" x1="146.51" y1="227.27" x2="146.24" y2="227.27"/><line class="cls-5" x1="144.95" y1="227.33" x2="144.95" y2="227.33"/><line class="cls-5" x1="144.95" y1="227.33" x2="144.68" y2="227.33"/><line class="cls-5" x1="143.33" y1="227.33" x2="143.06" y2="227.33"/><line class="cls-5" x1="141.76" y1="227.27" x2="141.76" y2="227.27"/><line class="cls-5" x1="141.76" y1="227.27" x2="141.49" y2="227.27"/><line class="cls-5" x1="140.19" y1="227.17" x2="140.19" y2="227.17"/><line class="cls-5" x1="140.19" y1="227.17" x2="139.92" y2="227.11"/><line class="cls-5" x1="138.63" y1="227" x2="138.57" y2="227"/><line class="cls-5" x1="138.57" y1="227" x2="138.36" y2="226.95"/><line class="cls-5" x1="137.06" y1="226.79" x2="137.01" y2="226.79"/><line class="cls-5" x1="137.01" y1="226.79" x2="136.85" y2="226.73"/><line class="cls-5" x1="135.6" y1="226.52" x2="135.44" y2="226.46"/><line class="cls-5" x1="135.44" y1="226.46" x2="135.39" y2="226.46"/><line class="cls-5" x1="134.15" y1="226.19" x2="133.93" y2="226.14"/><line class="cls-5" x1="132.69" y1="225.82" x2="132.47" y2="225.76"/><line class="cls-5" x1="131.28" y1="225.38" x2="131.07" y2="225.33"/><line class="cls-5" x1="129.88" y1="224.95" x2="129.66" y2="224.9"/><line class="cls-5" x1="128.48" y1="224.47" x2="128.26" y2="224.41"/><line class="cls-5" x1="127.07" y1="223.87" x2="126.86" y2="223.76"/><line class="cls-5" x1="125.72" y1="223.28" x2="125.51" y2="223.17"/><line class="cls-5" x1="124.37" y1="222.63" x2="124.16" y2="222.52"/><line class="cls-5" x1="123.02" y1="221.93" x2="122.81" y2="221.82"/><line class="cls-5" x1="121.73" y1="221.17" x2="121.51" y2="221.06"/><line class="cls-5" x1="120.43" y1="220.36" x2="120.21" y2="220.2"/><line class="cls-5" x1="119.13" y1="219.5" x2="118.92" y2="219.34"/><line class="cls-5" x1="117.89" y1="218.58" x2="117.68" y2="218.47"/><line class="cls-5" x1="116.65" y1="217.72" x2="116.49" y2="217.55"/><line class="cls-5" x1="115.46" y1="216.69" x2="115.3" y2="216.53"/><line class="cls-5" x1="114.33" y1="215.61" x2="114.17" y2="215.45"/><line class="cls-5" x1="113.19" y1="214.53" x2="113.03" y2="214.37"/><line class="cls-5" x1="112.06" y1="213.45" x2="111.9" y2="213.29"/><line class="cls-5" x1="111.03" y1="212.32" x2="110.87" y2="212.1"/><line class="cls-5" x1="110.01" y1="211.07" x2="109.85" y2="210.86"/><line class="cls-5" x1="109.04" y1="209.83" x2="108.87" y2="209.62"/><line class="cls-5" x1="108.12" y1="208.59" x2="108.12" y2="208.59"/><line class="cls-5" x1="108.12" y1="208.59" x2="107.96" y2="208.37"/><line class="cls-5" x1="107.2" y1="207.29" x2="107.2" y2="207.29"/><line class="cls-5" x1="107.2" y1="207.29" x2="107.09" y2="207.08"/><line class="cls-5" x1="106.44" y1="206" x2="106.39" y2="205.94"/><line class="cls-5" x1="106.39" y1="205.94" x2="106.28" y2="205.78"/><line class="cls-5" x1="105.63" y1="204.7" x2="105.58" y2="204.59"/><line class="cls-5" x1="105.58" y1="204.59" x2="105.53" y2="204.49"/><line class="cls-5" x1="104.88" y1="203.41" x2="104.77" y2="203.19"/><line class="cls-5" x1="104.23" y1="202.06" x2="104.12" y2="201.84"/><line class="cls-5" x1="103.64" y1="200.71" x2="103.53" y2="200.49"/><line class="cls-5" x1="103.04" y1="199.36" x2="102.93" y2="199.14"/><line class="cls-5" x1="102.45" y1="197.95" x2="102.39" y2="197.74"/><line class="cls-5" x1="101.96" y1="196.55" x2="101.91" y2="196.33"/><line class="cls-5" x1="101.53" y1="195.14" x2="101.48" y2="194.93"/><line class="cls-5" x1="101.1" y1="193.74" x2="101.04" y2="193.52"/><line class="cls-5" x1="100.77" y1="192.28" x2="100.72" y2="192.07"/><line class="cls-5" x1="100.4" y1="190.82" x2="100.34" y2="190.55"/><line class="cls-5" x1="100.13" y1="189.31" x2="100.07" y2="189.1"/><line class="cls-5" x1="99.91" y1="187.8" x2="99.86" y2="187.53"/><line class="cls-5" x1="99.69" y1="186.23" x2="99.69" y2="185.96"/><line class="cls-5" x1="99.59" y1="184.67" x2="99.53" y2="184.45"/><line class="cls-5" x1="99.48" y1="183.16" x2="99.48" y2="182.89"/><line class="cls-5" x1="99.42" y1="181.59" x2="99.42" y2="181.32"/><line class="cls-5" x1="99.42" y1="179.97" x2="99.48" y2="179.75"/><line class="cls-5" x1="99.53" y1="178.46" x2="99.53" y2="178.19"/><line class="cls-5" x1="99.64" y1="176.89" x2="99.64" y2="176.62"/><line class="cls-5" x1="99.8" y1="175.33" x2="99.86" y2="175.06"/><line class="cls-5" x1="100.02" y1="173.76" x2="100.07" y2="173.54"/><line class="cls-5" x1="100.29" y1="172.3" x2="100.34" y2="172.09"/><line class="cls-5" x1="100.56" y1="170.84" x2="100.61" y2="170.63"/><line class="cls-5" x1="100.94" y1="169.39" x2="100.99" y2="169.17"/><line class="cls-5" x1="101.31" y1="167.93" x2="101.37" y2="167.71"/><line class="cls-5" x1="101.75" y1="166.52" x2="101.85" y2="166.31"/><line class="cls-5" x1="102.23" y1="165.07" x2="102.29" y2="164.85"/><line class="cls-5" x1="102.77" y1="163.72" x2="102.77" y2="163.72"/><line class="cls-5" x1="102.77" y1="163.72" x2="102.88" y2="163.5"/><line class="cls-5" x1="103.31" y1="162.31" x2="103.31" y2="162.31"/><line class="cls-5" x1="103.31" y1="162.31" x2="103.42" y2="162.1"/><line class="cls-5" x1="103.96" y1="160.91" x2="104.07" y2="160.69"/><line class="cls-5" x1="104.61" y1="159.56" x2="104.72" y2="159.34"/><line class="cls-5" x1="105.31" y1="158.21" x2="105.42" y2="157.99"/><line class="cls-5" x1="106.07" y1="156.91" x2="106.17" y2="156.7"/><line class="cls-5" x1="106.88" y1="155.62" x2="107.04" y2="155.4"/><line class="cls-5" x1="107.69" y1="154.32" x2="107.85" y2="154.1"/><line class="cls-5" x1="108.6" y1="153.08" x2="108.77" y2="152.86"/><line class="cls-5" x1="109.52" y1="151.84" x2="109.68" y2="151.62"/><line class="cls-5" x1="110.55" y1="150.59" x2="110.71" y2="150.43"/><line class="cls-5" x1="111.57" y1="149.41" x2="111.74" y2="149.19"/><line class="cls-5" x1="112.65" y1="148.22" x2="112.82" y2="148.06"/><line class="cls-5" x1="113.73" y1="147.08" x2="113.9" y2="146.92"/><line class="cls-5" x1="114.87" y1="146" x2="114.92" y2="145.95"/><line class="cls-5" x1="114.92" y1="145.95" x2="115.03" y2="145.84"/><line class="cls-5" x1="115.95" y1="144.92" x2="116.16" y2="144.76"/><line class="cls-5" x1="117.19" y1="143.9" x2="117.35" y2="143.74"/><line class="cls-5" x1="118.38" y1="142.93" x2="118.54" y2="142.76"/><line class="cls-5" x1="119.57" y1="142.01" x2="119.67" y2="141.9"/><line class="cls-5" x1="119.67" y1="141.9" x2="119.73" y2="141.85"/><line class="cls-5" x1="120.81" y1="141.09" x2="121.02" y2="140.93"/><line class="cls-5" x1="122.1" y1="140.28" x2="122.32" y2="140.12"/><line class="cls-5" x1="123.4" y1="139.47" x2="123.62" y2="139.36"/><line class="cls-5" x1="124.75" y1="138.77" x2="124.97" y2="138.66"/><line class="cls-5" x1="126.1" y1="138.07" x2="126.32" y2="137.96"/><line class="cls-5" x1="127.45" y1="137.36" x2="127.45" y2="137.36"/><line class="cls-5" x1="127.45" y1="137.36" x2="127.67" y2="137.2"/><line class="cls-5" x1="127.67" y1="136.12" x2="127.5" y2="135.91"/><line class="cls-5" x1="126.8" y1="134.83" x2="126.69" y2="134.66"/><line class="cls-5" x1="126.69" y1="134.66" x2="126.64" y2="134.61"/><line class="cls-5" x1="125.99" y1="133.53" x2="125.88" y2="133.31"/><line class="cls-5" x1="125.29" y1="132.18" x2="125.18" y2="131.96"/><line class="cls-5" x1="124.64" y1="130.78" x2="124.53" y2="130.56"/><line class="cls-5" x1="124.1" y1="129.37" x2="124.1" y2="129.32"/><line class="cls-5" x1="124.1" y1="129.32" x2="124.05" y2="129.16"/><line class="cls-5" x1="123.67" y1="127.97" x2="123.62" y2="127.75"/><line class="cls-5" x1="123.35" y1="126.51" x2="123.29" y2="126.24"/><line class="cls-5" x1="123.24" y1="124.94" x2="123.24" y2="124.89"/><line class="cls-5" x1="123.24" y1="124.89" x2="123.24" y2="124.67"/><line class="cls-5" x1="123.4" y1="123.38" x2="123.4" y2="123.27"/><line class="cls-5" x1="123.4" y1="123.27" x2="123.45" y2="123.11"/><line class="cls-5" x1="123.67" y1="121.87" x2="123.72" y2="121.65"/><line class="cls-5" x1="124.1" y1="120.46" x2="124.21" y2="120.25"/><line class="cls-5" x1="124.7" y1="119.11" x2="124.8" y2="118.9"/><line class="cls-5" x1="125.4" y1="117.76" x2="125.45" y2="117.71"/><line class="cls-5" x1="125.45" y1="117.71" x2="125.56" y2="117.55"/><line class="cls-5" x1="126.32" y1="116.52" x2="126.37" y2="116.41"/><line class="cls-5" x1="126.37" y1="116.41" x2="126.48" y2="116.3"/><line class="cls-5" x1="127.4" y1="115.33" x2="127.5" y2="115.22"/><line class="cls-5" x1="127.5" y1="115.22" x2="127.56" y2="115.17"/><line class="cls-5" x1="128.58" y1="114.36" x2="128.8" y2="114.25"/><line class="cls-5" x1="129.88" y1="113.55" x2="130.1" y2="113.44"/><line class="cls-5" x1="131.23" y1="112.96" x2="131.45" y2="112.85"/><line class="cls-5" x1="132.63" y1="112.42" x2="132.69" y2="112.42"/><line class="cls-5" x1="132.69" y1="112.42" x2="132.85" y2="112.36"/><line class="cls-5" x1="134.09" y1="112.09" x2="134.31" y2="112.04"/><line class="cls-5" x1="135.55" y1="111.88" x2="135.77" y2="111.82"/><line class="cls-5" x1="137.06" y1="111.77" x2="137.33" y2="111.77"/><line class="cls-5" x1="138.63" y1="111.88" x2="138.68" y2="111.88"/><line class="cls-5" x1="138.68" y1="111.88" x2="138.84" y2="111.93"/><line class="cls-5" x1="140.09" y1="112.2" x2="140.3" y2="112.25"/><line class="cls-5" x1="141.49" y1="112.74" x2="141.71" y2="112.85"/><line class="cls-5" x1="142.84" y1="113.44" x2="143.06" y2="113.55"/><line class="cls-5" x1="144.14" y1="114.25" x2="144.35" y2="114.36"/><line class="cls-5" x1="145.49" y1="113.87" x2="145.65" y2="113.77"/><line class="cls-5" x1="145.65" y1="113.77" x2="145.7" y2="113.77"/><line class="cls-5" x1="146.89" y1="113.39" x2="147.11" y2="113.28"/><line class="cls-5" x1="148.24" y1="112.74" x2="148.46" y2="112.63"/></g></svg>