<svg id="Button" xmlns="http://www.w3.org/2000/svg" viewBox="0 0 300 263"><defs><style>.cls-1,.cls-3{fill:none;stroke-width:0.5px;}.cls-1{stroke:#000;}.cls-2{isolation:isolate;}.cls-3{stroke:#1d1d1b;stroke-miterlimit:3.86;}</style></defs><title>button-ceiling-wall-lissoni-flos-F3180009-spech-tech-02-300x263-01</title><line class="cls-1" x1="214.94" y1="225.88" x2="244" y2="226.01"/><line class="cls-1" x1="214.94" y1="224.18" x2="214.93" y2="227.58"/><line class="cls-1" x1="244.01" y1="224.31" x2="243.99" y2="227.71"/><g class="cls-2"><path d="M211,241.06a2,2,0,0,1-.68-.38,2.48,2.48,0,0,1-.54-.58,3.12,3.12,0,0,1-.34-.74,2.57,2.57,0,0,1-.13-.83,2.83,2.83,0,0,1,1-2.16,3.27,3.27,0,0,1,1-.59,3.81,3.81,0,0,1,1.22-.2,3.56,3.56,0,0,1,1.22.21,3.14,3.14,0,0,1,1,.6,2.83,2.83,0,0,1,.69.94,3.06,3.06,0,0,1,.25,1.22,2.64,2.64,0,0,1-.14.84,2.73,2.73,0,0,1-.35.73,2.48,2.48,0,0,1-.54.58,2.28,2.28,0,0,1-.68.38v0a2.64,2.64,0,0,1,1.53,1.06,3.25,3.25,0,0,1,.57,1.92,2.89,2.89,0,0,1-.3,1.33,3.25,3.25,0,0,1-.79,1,3.56,3.56,0,0,1-1.14.65,4.14,4.14,0,0,1-1.37.21,4.19,4.19,0,0,1-1.37-.23,3.41,3.41,0,0,1-1.13-.65,3.3,3.3,0,0,1-.78-1,3,3,0,0,1-.29-1.33,3.19,3.19,0,0,1,.59-1.92,2.69,2.69,0,0,1,1.54-1Zm3.89,2.87a2.51,2.51,0,0,0-.17-.92,2.18,2.18,0,0,0-1.25-1.23,2.73,2.73,0,0,0-1-.18,2.68,2.68,0,0,0-1,.17,2.1,2.1,0,0,0-.76.48,2.36,2.36,0,0,0-.5.74,2.74,2.74,0,0,0-.18.92,2.36,2.36,0,0,0,.18.92,2.15,2.15,0,0,0,.48.74,2.37,2.37,0,0,0,.76.49,2.67,2.67,0,0,0,1,.18,3,3,0,0,0,1-.17,2.26,2.26,0,0,0,.77-.49,2.29,2.29,0,0,0,.49-.73A2.36,2.36,0,0,0,214.84,243.93Zm-.4-5.28a1.9,1.9,0,0,0-.14-.8,1.87,1.87,0,0,0-.42-.64,2.09,2.09,0,0,0-.64-.42,2.15,2.15,0,0,0-.8-.15,2.07,2.07,0,0,0-.8.15,2,2,0,0,0-.65.41,1.74,1.74,0,0,0-.42.63,1.91,1.91,0,0,0-.16.8,2.11,2.11,0,0,0,.15.8,1.83,1.83,0,0,0,.42.63,2,2,0,0,0,.64.42,2.14,2.14,0,0,0,1.6,0,2,2,0,0,0,.64-.41,2,2,0,0,0,.43-.63A2.15,2.15,0,0,0,214.44,238.65Z"/><path d="M221.34,235.62a3.15,3.15,0,0,1,2,.57,3.69,3.69,0,0,1,1.16,1.43,6.37,6.37,0,0,1,.56,1.9,13.48,13.48,0,0,1,.13,2,13.82,13.82,0,0,1-.15,2,6.4,6.4,0,0,1-.57,1.89,3.78,3.78,0,0,1-1.17,1.42,3.26,3.26,0,0,1-2,.55,3.18,3.18,0,0,1-2-.57,3.69,3.69,0,0,1-1.16-1.43,6.08,6.08,0,0,1-.55-1.9,13.53,13.53,0,0,1-.14-2,15.43,15.43,0,0,1,.15-2,6.49,6.49,0,0,1,.57-1.89,3.71,3.71,0,0,1,1.18-1.42A3.24,3.24,0,0,1,221.34,235.62Zm0,1.06a2,2,0,0,0-1.46.49,3.1,3.1,0,0,0-.82,1.22,6.19,6.19,0,0,0-.35,1.57c0,.55-.07,1.06-.08,1.5s0,.95.07,1.51a6.18,6.18,0,0,0,.34,1.57,3.06,3.06,0,0,0,.8,1.23,2.07,2.07,0,0,0,1.46.51,2.14,2.14,0,0,0,1.47-.49,3.08,3.08,0,0,0,.81-1.23,6.19,6.19,0,0,0,.35-1.57c.05-.55.08-1.06.08-1.5s0-1-.07-1.51a5.77,5.77,0,0,0-.33-1.57,3.08,3.08,0,0,0-.81-1.23A2,2,0,0,0,221.33,236.68Z"/><path d="M231.36,241.36c0-.28,0-.56,0-.83s0-.56-.05-.84h1.13v1.13h0a2.53,2.53,0,0,1,1.07-1,2.92,2.92,0,0,1,1.35-.33,3.74,3.74,0,0,1,.65.06,2.61,2.61,0,0,1,.66.24,2,2,0,0,1,.6.47,2.63,2.63,0,0,1,.47.79,2.48,2.48,0,0,1,1-1.13,2.78,2.78,0,0,1,1.45-.41,2.73,2.73,0,0,1,2.13.77,3.12,3.12,0,0,1,.67,2.17l0,4.75h-1.05l0-4.37a3.17,3.17,0,0,0-.4-1.75,1.65,1.65,0,0,0-1.48-.61,2,2,0,0,0-1,.22,1.84,1.84,0,0,0-.65.62,2.63,2.63,0,0,0-.37.87,5.47,5.47,0,0,0-.12,1v4h-1.06l0-4.36a3.27,3.27,0,0,0-.39-1.75,1.64,1.64,0,0,0-1.49-.61l-.44.06a1.62,1.62,0,0,0-.71.35,2.45,2.45,0,0,0-.67.86,3.48,3.48,0,0,0-.3,1.6l0,3.84h-1Z"/><path d="M245,241.42c0-.28,0-.56,0-.84s0-.55-.05-.83h1.14v1.13h0a2.53,2.53,0,0,1,1.07-1,2.86,2.86,0,0,1,1.35-.33,3.74,3.74,0,0,1,.65.06,2.45,2.45,0,0,1,.67.24,2.14,2.14,0,0,1,.59.47,2.44,2.44,0,0,1,.47.79,2.48,2.48,0,0,1,1-1.13,2.69,2.69,0,0,1,1.45-.41,2.73,2.73,0,0,1,2.13.77,3.15,3.15,0,0,1,.68,2.17l0,4.75h-1.06l0-4.36a3.27,3.27,0,0,0-.39-1.75,1.64,1.64,0,0,0-1.49-.61,1.91,1.91,0,0,0-1,.22,1.84,1.84,0,0,0-.65.62,2.63,2.63,0,0,0-.37.87,4.74,4.74,0,0,0-.11,1l0,4H250l0-4.37a3.08,3.08,0,0,0-.39-1.74,1.67,1.67,0,0,0-1.49-.62,2.67,2.67,0,0,0-.44.07,1.57,1.57,0,0,0-.71.35,2.45,2.45,0,0,0-.67.86,3.48,3.48,0,0,0-.3,1.6l0,3.84H245Z"/></g><line class="cls-1" x1="200.2" y1="225.88" x2="57.6" y2="225.88"/><line class="cls-1" x1="200.2" y1="227.91" x2="200.2" y2="223.73"/><line class="cls-1" x1="57.6" y1="227.91" x2="57.6" y2="223.73"/><g class="cls-2"><path d="M99,240.76a3.7,3.7,0,0,1,.68,1.16,4.2,4.2,0,0,1,.25,1.45,4,4,0,0,1-.3,1.56,3.82,3.82,0,0,1-.82,1.25,4,4,0,0,1-1.26.83,4.39,4.39,0,0,1-1.61.29,4.15,4.15,0,0,1-1.4-.22,3.72,3.72,0,0,1-1.11-.61l-1.07,1.09-.51-.5,1-1.09a3.62,3.62,0,0,1-.69-1.17,4.21,4.21,0,0,1-.24-1.43,4,4,0,0,1,.3-1.57,3.82,3.82,0,0,1,.82-1.25,3.71,3.71,0,0,1,1.26-.82,4.43,4.43,0,0,1,3-.08,4,4,0,0,1,1.16.61l1-1.09.51.5Zm-1.25.25a2.69,2.69,0,0,0-1.81-.62,2.87,2.87,0,0,0-1.17.23,2.71,2.71,0,0,0-.88.63,2.81,2.81,0,0,0-.56.95,3.2,3.2,0,0,0-.2,1.17,3,3,0,0,0,.54,1.82Zm-3.6,4.72a2.33,2.33,0,0,0,.8.45,2.86,2.86,0,0,0,1,.16,3,3,0,0,0,1.18-.23,2.62,2.62,0,0,0,1.45-1.58,3.18,3.18,0,0,0,.2-1.16,3.13,3.13,0,0,0-.54-1.83Z"/><path d="M111.81,243.37h1.63v1h-1.63v2.69h-1.16v-2.69h-4.89v-1.31l4.57-7.33h1.48Zm-1.16-6.44h0l-3.9,6.44h3.93Z"/><path d="M119.61,247.11h-1.15v-9.89l-2,1.79-.72-.86,2.88-2.37h1Z"/><path d="M127.39,235.59a3.24,3.24,0,0,1,2,.56,3.86,3.86,0,0,1,1.17,1.42,6.77,6.77,0,0,1,.56,1.9,14,14,0,0,1,0,3.95,6.77,6.77,0,0,1-.56,1.9,3.86,3.86,0,0,1-1.17,1.42,3.75,3.75,0,0,1-3.94,0,3.86,3.86,0,0,1-1.17-1.42,6.77,6.77,0,0,1-.56-1.9,14,14,0,0,1,0-3.95,6.77,6.77,0,0,1,.56-1.9,3.86,3.86,0,0,1,1.17-1.42A3.24,3.24,0,0,1,127.39,235.59Zm0,1.06a2,2,0,0,0-1.46.49,3.08,3.08,0,0,0-.81,1.23,6.19,6.19,0,0,0-.35,1.57c0,.56-.07,1.06-.07,1.51s0,.94.07,1.5a6.19,6.19,0,0,0,.35,1.57,3.08,3.08,0,0,0,.81,1.23,2.38,2.38,0,0,0,2.92,0,3.08,3.08,0,0,0,.81-1.23A6.19,6.19,0,0,0,130,243c0-.56.07-1.06.07-1.5s0-.95-.07-1.51a6.19,6.19,0,0,0-.35-1.57,3.08,3.08,0,0,0-.81-1.23A2,2,0,0,0,127.39,236.65Z"/><path d="M137.44,241.29q0-.42,0-.84c0-.27,0-.55,0-.83h1.13v1.14h0a2.41,2.41,0,0,1,1.06-1,2.94,2.94,0,0,1,1.35-.34,3.74,3.74,0,0,1,.65.06,2.28,2.28,0,0,1,.66.24,2,2,0,0,1,.6.47,2.47,2.47,0,0,1,.48.78,2.41,2.41,0,0,1,1-1.13,2.79,2.79,0,0,1,1.45-.42,2.73,2.73,0,0,1,2.13.76,3.12,3.12,0,0,1,.69,2.17v4.75h-1.06v-4.37a3.11,3.11,0,0,0-.4-1.74,1.64,1.64,0,0,0-1.49-.61,2,2,0,0,0-1,.23,1.93,1.93,0,0,0-.65.62,2.84,2.84,0,0,0-.36.87,4.74,4.74,0,0,0-.11,1v4h-1.06v-4.37a3.11,3.11,0,0,0-.4-1.74,1.62,1.62,0,0,0-1.48-.61l-.44.06a1.74,1.74,0,0,0-.72.36,2.67,2.67,0,0,0-.66.86,3.51,3.51,0,0,0-.3,1.6v3.84h-1.05Z"/><path d="M151.07,241.29c0-.28,0-.56,0-.84l-.06-.83h1.14v1.14h0a2.47,2.47,0,0,1,1.06-1,3,3,0,0,1,1.35-.34,3.74,3.74,0,0,1,.65.06,2.45,2.45,0,0,1,.67.24,2.34,2.34,0,0,1,.6.47,2.65,2.65,0,0,1,.47.78,2.41,2.41,0,0,1,1-1.13,2.79,2.79,0,0,1,1.45-.42,2.73,2.73,0,0,1,2.13.76,3.12,3.12,0,0,1,.69,2.17v4.75h-1.06v-4.37a3.11,3.11,0,0,0-.4-1.74,1.63,1.63,0,0,0-1.49-.61,1.82,1.82,0,0,0-1.64.85,2.84,2.84,0,0,0-.36.87,4.74,4.74,0,0,0-.11,1v4h-1.05v-4.37a3.2,3.2,0,0,0-.4-1.74,1.65,1.65,0,0,0-1.49-.61l-.44.06a1.65,1.65,0,0,0-.71.36,2.55,2.55,0,0,0-.67.86,3.66,3.66,0,0,0-.29,1.6v3.84h-1.06Z"/></g><rect class="cls-3" x="118.67" y="143.76" width="21.64" height="1.88"/><path class="cls-3" d="M128.9,74a71.3,71.3,0,1,1-71.3,71.29A71.3,71.3,0,0,1,128.9,74Z"/><path class="cls-3" d="M129.43,133.14a11.56,11.56,0,1,1-11.6,11.56A11.58,11.58,0,0,1,129.43,133.14Z"/><path class="cls-3" d="M242.38,76.27c0,17.93,0,125.47,0,139.06,0,2.36-16.09,2-19.25,1.68-1.87-.19-1.31-6.73-1.31-6.73l-6.91-16.07V94.62l6.72-14s-.34-4,1-6.12C223.47,73.2,238.84,75.15,242.38,76.27Z"/><line class="cls-3" x1="221.65" y1="80.61" x2="221.65" y2="210.28"/></svg>