<svg xmlns="http://www.w3.org/2000/svg" viewBox="0 0 300 263"><defs><style>.cls-1,.cls-2,.cls-3,.cls-4,.cls-5{fill:none;stroke-linecap:round;}.cls-1,.cls-2,.cls-5{stroke:red;}.cls-1,.cls-2,.cls-4,.cls-5{stroke-linejoin:round;}.cls-1{stroke-width:0.6px;}.cls-3,.cls-4{stroke:#000;}.cls-3{stroke-miterlimit:10;}.cls-3,.cls-4,.cls-5{stroke-width:0.6px;}</style></defs><title>captain-flint-floor-anastassiades-flos-F15300-curva-fotometrica</title><g id="numeri_esterni_diagramma" data-name="numeri esterni diagramma"><path d="M249.93,137.18h0a1.24,1.24,0,0,1-.37.12,1.84,1.84,0,0,1-.39,0,1.91,1.91,0,0,1-.68-.12,1.58,1.58,0,0,1-.54-.37,1.63,1.63,0,0,1-.36-.56,2.05,2.05,0,0,1-.13-.72,1.79,1.79,0,0,1,.15-.75,1.48,1.48,0,0,1,.4-.55,1.79,1.79,0,0,1,.6-.35,2,2,0,0,1,.75-.13,2.11,2.11,0,0,1,.75.13,1.79,1.79,0,0,1,.6.35,1.59,1.59,0,0,1,.4.55,1.79,1.79,0,0,1,.14.75,2.15,2.15,0,0,1,0,.45,1.68,1.68,0,0,1-.11.4,2.59,2.59,0,0,1-.17.38l-.21.36-1.51,2.39h-.78Zm-.59-.42a1.28,1.28,0,0,0,.48-.09,1,1,0,0,0,.39-.24,1.23,1.23,0,0,0,.26-.37,1.43,1.43,0,0,0,0-1,1.1,1.1,0,0,0-.65-.62,1.48,1.48,0,0,0-1,0,1.28,1.28,0,0,0-.39.24,1.12,1.12,0,0,0-.26.38,1.3,1.3,0,0,0,0,1,1.08,1.08,0,0,0,.26.37,1,1,0,0,0,.39.24A1.28,1.28,0,0,0,249.34,136.76Z"/><path d="M251.82,136.71a7.07,7.07,0,0,1,.08-1,3.19,3.19,0,0,1,.29-1,2,2,0,0,1,.59-.7,1.54,1.54,0,0,1,1-.28,1.49,1.49,0,0,1,.95.28,1.91,1.91,0,0,1,.59.7,2.94,2.94,0,0,1,.3,1,6.29,6.29,0,0,1,0,2,2.94,2.94,0,0,1-.3.95,1.91,1.91,0,0,1-.59.7,1.49,1.49,0,0,1-.95.28,1.54,1.54,0,0,1-1-.28,2,2,0,0,1-.59-.7,3.19,3.19,0,0,1-.29-.95A7.07,7.07,0,0,1,251.82,136.71Zm.67,0c0,.14,0,.29,0,.46a4.6,4.6,0,0,0,.06.52,4.7,4.7,0,0,0,.12.51,2,2,0,0,0,.23.44,1,1,0,0,0,.34.31,1,1,0,0,0,.48.11,1.06,1.06,0,0,0,.48-.11,1.24,1.24,0,0,0,.34-.31,1.65,1.65,0,0,0,.22-.44,3.18,3.18,0,0,0,.13-.51,4.6,4.6,0,0,0,.06-.52c0-.17,0-.32,0-.46s0-.29,0-.46a4.6,4.6,0,0,0-.06-.52,3.18,3.18,0,0,0-.13-.51,1.65,1.65,0,0,0-.22-.44,1.24,1.24,0,0,0-.34-.31,1.06,1.06,0,0,0-.48-.11,1,1,0,0,0-.48.11,1,1,0,0,0-.34.31,2,2,0,0,0-.23.44,4.7,4.7,0,0,0-.12.51,4.6,4.6,0,0,0-.06.52C252.5,136.42,252.49,136.57,252.49,136.71Z"/><path d="M256.42,134.93a1.13,1.13,0,0,1,.09-.45,1.31,1.31,0,0,1,.24-.37,1.18,1.18,0,0,1,.37-.24,1,1,0,0,1,.44-.09,1.13,1.13,0,0,1,.45.09,1.06,1.06,0,0,1,.61.61,1.13,1.13,0,0,1,.09.45,1,1,0,0,1-.09.44,1.06,1.06,0,0,1-.61.61,1.13,1.13,0,0,1-.45.09,1,1,0,0,1-.44-.09,1.18,1.18,0,0,1-.37-.24,1.31,1.31,0,0,1-.24-.37A1,1,0,0,1,256.42,134.93Zm.43,0a.69.69,0,0,0,0,.24,1,1,0,0,0,.15.24.73.73,0,0,0,.51.23.54.54,0,0,0,.29-.07.63.63,0,0,0,.23-.16.72.72,0,0,0,.14-.24.52.52,0,0,0,0-.24.56.56,0,0,0,0-.25.59.59,0,0,0-.14-.23.74.74,0,0,0-.52-.24.73.73,0,0,0-.29.07.62.62,0,0,0-.22.17.76.76,0,0,0-.15.23A.74.74,0,0,0,256.85,134.93Z"/><path d="M41.57,137.18h0a1.34,1.34,0,0,1-.37.12,2,2,0,0,1-.39,0,1.92,1.92,0,0,1-.69-.12,1.58,1.58,0,0,1-.54-.37,1.8,1.8,0,0,1-.36-.56,2.05,2.05,0,0,1-.13-.72,1.79,1.79,0,0,1,.15-.75,1.48,1.48,0,0,1,.4-.55,1.79,1.79,0,0,1,.6-.35,2.23,2.23,0,0,1,1.5,0,1.79,1.79,0,0,1,.6.35,1.48,1.48,0,0,1,.4.55,1.79,1.79,0,0,1,.15.75,3.14,3.14,0,0,1,0,.45,2.34,2.34,0,0,1-.12.4,1.84,1.84,0,0,1-.17.38,3.35,3.35,0,0,1-.21.36l-1.5,2.39h-.79Zm-.59-.42a1.28,1.28,0,0,0,.48-.09,1,1,0,0,0,.39-.24,1.23,1.23,0,0,0,.26-.37,1.3,1.3,0,0,0,0-1,1.1,1.1,0,0,0-.65-.62,1.48,1.48,0,0,0-1,0,1.1,1.1,0,0,0-.65.62,1.43,1.43,0,0,0,0,1,1.23,1.23,0,0,0,.26.37,1,1,0,0,0,.39.24A1.28,1.28,0,0,0,41,136.76Z"/><path d="M43.46,136.71a7.07,7.07,0,0,1,.08-1,2.94,2.94,0,0,1,.3-1,1.91,1.91,0,0,1,.59-.7,1.49,1.49,0,0,1,1-.28,1.54,1.54,0,0,1,1,.28,2,2,0,0,1,.59.7,3.19,3.19,0,0,1,.29,1,6.29,6.29,0,0,1,0,2,3.19,3.19,0,0,1-.29.95,2,2,0,0,1-.59.7,1.54,1.54,0,0,1-1,.28,1.49,1.49,0,0,1-1-.28,1.91,1.91,0,0,1-.59-.7,2.94,2.94,0,0,1-.3-.95A7.07,7.07,0,0,1,43.46,136.71Zm.67,0c0,.14,0,.29,0,.46a4.6,4.6,0,0,0,.06.52,3.18,3.18,0,0,0,.13.51,1.65,1.65,0,0,0,.22.44,1.12,1.12,0,0,0,.34.31,1.1,1.1,0,0,0,1,0,1.12,1.12,0,0,0,.34-.31,2,2,0,0,0,.23-.44,4.7,4.7,0,0,0,.12-.51,4.6,4.6,0,0,0,.06-.52c0-.17,0-.32,0-.46s0-.29,0-.46a4.6,4.6,0,0,0-.06-.52,4.7,4.7,0,0,0-.12-.51,2,2,0,0,0-.23-.44,1.12,1.12,0,0,0-.34-.31,1.1,1.1,0,0,0-1,0,1.12,1.12,0,0,0-.34.31,1.65,1.65,0,0,0-.22.44,3.18,3.18,0,0,0-.13.51,4.6,4.6,0,0,0-.06.52C44.14,136.42,44.13,136.57,44.13,136.71Z"/><path d="M48.06,134.93a1.13,1.13,0,0,1,.09-.45,1.06,1.06,0,0,1,.61-.61,1.13,1.13,0,0,1,.45-.09,1.08,1.08,0,0,1,.44.09,1.06,1.06,0,0,1,.61.61,1.13,1.13,0,0,1,.09.45,1,1,0,0,1-.09.44,1.06,1.06,0,0,1-.61.61,1.08,1.08,0,0,1-.44.09,1.13,1.13,0,0,1-.45-.09,1.06,1.06,0,0,1-.61-.61A1,1,0,0,1,48.06,134.93Zm.43,0a.53.53,0,0,0,.06.24.72.72,0,0,0,.14.24.69.69,0,0,0,.22.16.6.6,0,0,0,.3.07.73.73,0,0,0,.51-.23,1,1,0,0,0,.15-.24.69.69,0,0,0,.05-.24.74.74,0,0,0-.05-.25.76.76,0,0,0-.15-.23.62.62,0,0,0-.22-.17.73.73,0,0,0-.29-.07.73.73,0,0,0-.3.07.72.72,0,0,0-.22.17.59.59,0,0,0-.14.23A.57.57,0,0,0,48.49,134.93Z"/><path d="M148.37,38.51h-.68v-4.8h0l-1,.85-.4-.48,1.52-1.24h.59Z"/><path d="M150.49,34.23a1.48,1.48,0,0,1,.13-.61,1.2,1.2,0,0,1,.34-.46,1.44,1.44,0,0,1,.51-.3,1.92,1.92,0,0,1,1.28,0,1.44,1.44,0,0,1,.51.3,1.2,1.2,0,0,1,.34.46,1.33,1.33,0,0,1,.13.61,1.16,1.16,0,0,1-.07.4,1.41,1.41,0,0,1-.18.37,1.33,1.33,0,0,1-.29.29,1.18,1.18,0,0,1-.39.19h0a1.44,1.44,0,0,1,.46.19,1.35,1.35,0,0,1,.35.32,1.42,1.42,0,0,1,.23.44,1.7,1.7,0,0,1,.08.51,1.74,1.74,0,0,1-.14.69,1.43,1.43,0,0,1-.39.52,1.47,1.47,0,0,1-.57.33,2.35,2.35,0,0,1-1.42,0,1.47,1.47,0,0,1-.57-.33,1.55,1.55,0,0,1-.39-.52,1.74,1.74,0,0,1-.14-.69,1.7,1.7,0,0,1,.08-.51,1.67,1.67,0,0,1,.23-.44,1.35,1.35,0,0,1,.35-.32,1.44,1.44,0,0,1,.46-.19h0a1.18,1.18,0,0,1-.39-.19,1.33,1.33,0,0,1-.29-.29,1.41,1.41,0,0,1-.18-.37A1.46,1.46,0,0,1,150.49,34.23ZM151,36.9a1.18,1.18,0,0,0,.09.46,1.07,1.07,0,0,0,.25.35,1,1,0,0,0,.36.23,1.12,1.12,0,0,0,.88,0,1,1,0,0,0,.36-.23,1.07,1.07,0,0,0,.25-.35,1.18,1.18,0,0,0,.09-.46,1.14,1.14,0,0,0-.09-.46,1.13,1.13,0,0,0-.61-.58,1.12,1.12,0,0,0-.88,0,1.13,1.13,0,0,0-.61.58A1.14,1.14,0,0,0,151,36.9Zm.2-2.64a.88.88,0,0,0,.26.67,1,1,0,0,0,1.36,0,1,1,0,0,0,0-1.34,1,1,0,0,0-1.36,0A.88.88,0,0,0,151.17,34.26Z"/><path d="M154.64,35.68a7,7,0,0,1,.08-1,3.1,3.1,0,0,1,.29-1,2,2,0,0,1,.59-.71,1.6,1.6,0,0,1,1-.27,1.55,1.55,0,0,1,.95.27,1.94,1.94,0,0,1,.59.71,2.86,2.86,0,0,1,.3,1,7,7,0,0,1,.08,1,7.07,7.07,0,0,1-.08,1,2.88,2.88,0,0,1-.3.94,1.94,1.94,0,0,1-.59.71,1.55,1.55,0,0,1-.95.27,1.6,1.6,0,0,1-1-.27,2,2,0,0,1-.59-.71,3.13,3.13,0,0,1-.29-.94A7.07,7.07,0,0,1,154.64,35.68Zm.67,0c0,.13,0,.29,0,.46a4.88,4.88,0,0,0,.06.52,4.05,4.05,0,0,0,.12.5,1.66,1.66,0,0,0,.23.44,1.12,1.12,0,0,0,.34.31,1,1,0,0,0,1,0,1.12,1.12,0,0,0,.34-.31,1.4,1.4,0,0,0,.22-.44,2.83,2.83,0,0,0,.13-.5,4.88,4.88,0,0,0,.06-.52c0-.17,0-.33,0-.46s0-.3,0-.47a4.43,4.43,0,0,0-.06-.51,2.72,2.72,0,0,0-.13-.51,1.51,1.51,0,0,0-.22-.44,1.12,1.12,0,0,0-.34-.31,1,1,0,0,0-1,0,1.12,1.12,0,0,0-.34.31,1.83,1.83,0,0,0-.23.44,3.81,3.81,0,0,0-.12.51,4.43,4.43,0,0,0-.06.51C155.32,35.38,155.31,35.54,155.31,35.68Z"/><path d="M159.24,33.89a1.15,1.15,0,0,1,.33-.81,1,1,0,0,1,.37-.24,1,1,0,0,1,.44-.09,1.15,1.15,0,0,1,.82,2,1.15,1.15,0,0,1-.37.25,1.13,1.13,0,0,1-.45.09,1.15,1.15,0,0,1-.81-.34,1.15,1.15,0,0,1-.33-.81Zm.43,0a.79.79,0,0,0,.05.25,1.14,1.14,0,0,0,.15.23.62.62,0,0,0,.22.17.72.72,0,0,0,.29.06.68.68,0,0,0,.52-.23.79.79,0,0,0,.14-.23.65.65,0,0,0,0-.5.79.79,0,0,0-.14-.23.81.81,0,0,0-.23-.17.65.65,0,0,0-.29-.06.72.72,0,0,0-.29.06.76.76,0,0,0-.22.17,1.14,1.14,0,0,0-.15.23A.79.79,0,0,0,159.67,33.89Z"/><path d="M148.27,239.2a6.85,6.85,0,0,1,.08-1,3.41,3.41,0,0,1,.3-.95,1.94,1.94,0,0,1,.59-.71,1.57,1.57,0,0,1,.95-.27,1.6,1.6,0,0,1,1,.27,2,2,0,0,1,.59.71,3.1,3.1,0,0,1,.29.95,5.7,5.7,0,0,1,.08,1,5.85,5.85,0,0,1-.08,1,3.13,3.13,0,0,1-.29.94,2,2,0,0,1-.59.71,1.6,1.6,0,0,1-1,.27,1.57,1.57,0,0,1-.95-.27,1.94,1.94,0,0,1-.59-.71,3.45,3.45,0,0,1-.3-.94A7.07,7.07,0,0,1,148.27,239.2Zm.68,0c0,.13,0,.29,0,.46a4.88,4.88,0,0,0,.06.52,2.83,2.83,0,0,0,.13.5,1.65,1.65,0,0,0,.22.44,1.24,1.24,0,0,0,.34.31,1,1,0,0,0,.48.12.9.9,0,0,0,.48-.12,1,1,0,0,0,.34-.31,1.41,1.41,0,0,0,.23-.44,4.07,4.07,0,0,0,.13-.5c0-.18,0-.35.06-.52s0-.33,0-.46,0-.3,0-.47,0-.34-.06-.51a3.8,3.8,0,0,0-.13-.51,1.53,1.53,0,0,0-.23-.44,1,1,0,0,0-.34-.31.9.9,0,0,0-.48-.12,1,1,0,0,0-.48.12,1.24,1.24,0,0,0-.34.31,1.81,1.81,0,0,0-.22.44,2.72,2.72,0,0,0-.13.51,4.43,4.43,0,0,0-.06.51C149,238.9,149,239.06,149,239.2Z"/><path d="M152.83,237.41a1.33,1.33,0,0,1,.08-.45,1.11,1.11,0,0,1,.25-.36,1,1,0,0,1,.36-.24,1.17,1.17,0,0,1,.9,0,1,1,0,0,1,.36.24,1.11,1.11,0,0,1,.25.36,1.31,1.31,0,0,1,0,.9,1.23,1.23,0,0,1-.61.61,1.17,1.17,0,0,1-.9,0,1.23,1.23,0,0,1-.61-.61A1.33,1.33,0,0,1,152.83,237.41Zm.43,0a.79.79,0,0,0,.05.25.68.68,0,0,0,.14.23.66.66,0,0,0,.23.17.73.73,0,0,0,.58,0,.76.76,0,0,0,.23-.17.88.88,0,0,0,.14-.23.65.65,0,0,0,0-.5,1.09,1.09,0,0,0-.14-.23,1,1,0,0,0-.23-.17.73.73,0,0,0-.58,0,.81.81,0,0,0-.23.17.75.75,0,0,0-.19.48Z"/><path d="M203.17,238.76h.21l.43,0a1.15,1.15,0,0,0,.42-.13.77.77,0,0,0,.31-.31.94.94,0,0,0,.13-.51.87.87,0,0,0-.27-.68,1,1,0,0,0-.7-.26,1.28,1.28,0,0,0-.63.16,1.14,1.14,0,0,0-.41.48l-.65-.25a1.48,1.48,0,0,1,.65-.72,2.07,2.07,0,0,1,1-.24,2.25,2.25,0,0,1,.64.09,1.72,1.72,0,0,1,.54.28,1.37,1.37,0,0,1,.37.46,1.48,1.48,0,0,1,.14.65,1.29,1.29,0,0,1-.27.8,1.34,1.34,0,0,1-.7.49v0a1.48,1.48,0,0,1,.85.49,1.37,1.37,0,0,1,.23.43,1.69,1.69,0,0,1,.08.5,1.66,1.66,0,0,1-.15.72,1.57,1.57,0,0,1-.41.51,1.71,1.71,0,0,1-.6.31,2.34,2.34,0,0,1-.71.1,2.18,2.18,0,0,1-1.13-.28,1.61,1.61,0,0,1-.7-.91l.68-.22a1.33,1.33,0,0,0,.41.65,1.3,1.3,0,0,0,.74.19,1.33,1.33,0,0,0,.45-.08,1.11,1.11,0,0,0,.36-.23,1.24,1.24,0,0,0,.25-.35,1.13,1.13,0,0,0,.09-.45,1.07,1.07,0,0,0-.12-.53,1,1,0,0,0-.33-.33,1.23,1.23,0,0,0-.46-.18,2.31,2.31,0,0,0-.52-.06h-.21Z"/><path d="M206.24,239.2a6.85,6.85,0,0,1,.08-1,3.11,3.11,0,0,1,.3-.95,1.94,1.94,0,0,1,.59-.71,1.55,1.55,0,0,1,.95-.27,1.6,1.6,0,0,1,1,.27,2,2,0,0,1,.59.71,3.1,3.1,0,0,1,.29.95,5.7,5.7,0,0,1,.08,1,5.85,5.85,0,0,1-.08,1,3.13,3.13,0,0,1-.29.94,2,2,0,0,1-.59.71,1.6,1.6,0,0,1-1,.27,1.55,1.55,0,0,1-.95-.27,1.94,1.94,0,0,1-.59-.71,3.14,3.14,0,0,1-.3-.94A7.07,7.07,0,0,1,206.24,239.2Zm.67,0c0,.13,0,.29,0,.46a4.88,4.88,0,0,0,.06.52,2.83,2.83,0,0,0,.13.5,1.4,1.4,0,0,0,.22.44,1.24,1.24,0,0,0,.34.31,1,1,0,0,0,.48.12.9.9,0,0,0,.48-.12,1,1,0,0,0,.34-.31,1.41,1.41,0,0,0,.23-.44,4.05,4.05,0,0,0,.12-.5,4.88,4.88,0,0,0,.06-.52,3.86,3.86,0,0,0,0-.46,3.94,3.94,0,0,0,0-.47,4.43,4.43,0,0,0-.06-.51,3.81,3.81,0,0,0-.12-.51,1.53,1.53,0,0,0-.23-.44,1,1,0,0,0-.34-.31.9.9,0,0,0-.48-.12,1,1,0,0,0-.48.12,1.24,1.24,0,0,0-.34.31,1.51,1.51,0,0,0-.22.44,2.72,2.72,0,0,0-.13.51,4.43,4.43,0,0,0-.06.51C206.92,238.9,206.91,239.06,206.91,239.2Z"/><path d="M210.84,237.41a1.13,1.13,0,0,1,.09-.45,1.26,1.26,0,0,1,.24-.36,1.2,1.2,0,0,1,.82-.33,1,1,0,0,1,.44.09,1.12,1.12,0,0,1,.37.24,1.26,1.26,0,0,1,.24.36,1.16,1.16,0,0,1-.24,1.26,1.15,1.15,0,0,1-.37.25,1,1,0,0,1-.44.09,1.13,1.13,0,0,1-.45-.09,1.15,1.15,0,0,1-.37-.25,1.15,1.15,0,0,1-.33-.81Zm.43,0a.61.61,0,0,0,.06.25.68.68,0,0,0,.14.23.72.72,0,0,0,.22.17.73.73,0,0,0,.3.06.72.72,0,0,0,.29-.06.62.62,0,0,0,.22-.17.91.91,0,0,0,.15-.23.65.65,0,0,0,0-.5,1.14,1.14,0,0,0-.15-.23.76.76,0,0,0-.22-.17.72.72,0,0,0-.29-.06.73.73,0,0,0-.3.06.92.92,0,0,0-.22.17.79.79,0,0,0-.14.23A.61.61,0,0,0,211.27,237.41Z"/><path d="M93.6,238.76h.21l.44,0a1.1,1.1,0,0,0,.41-.13.86.86,0,0,0,.32-.31.94.94,0,0,0,.12-.51.87.87,0,0,0-.27-.68,1,1,0,0,0-.7-.26,1.21,1.21,0,0,0-.62.16,1.1,1.1,0,0,0-.42.48l-.65-.25a1.45,1.45,0,0,1,.66-.72,2,2,0,0,1,1-.24,2.32,2.32,0,0,1,.65.09,2,2,0,0,1,.54.28,1.67,1.67,0,0,1,.37.46,1.48,1.48,0,0,1,.13.65,1.29,1.29,0,0,1-.27.8,1.34,1.34,0,0,1-.7.49v0a1.31,1.31,0,0,1,.49.18,1.34,1.34,0,0,1,.36.31,1.37,1.37,0,0,1,.23.43,1.42,1.42,0,0,1,.08.5,1.66,1.66,0,0,1-.15.72,1.57,1.57,0,0,1-.41.51,1.75,1.75,0,0,1-.59.31,2.46,2.46,0,0,1-.72.1,2.18,2.18,0,0,1-1.13-.28,1.56,1.56,0,0,1-.69-.91l.68-.22a1.2,1.2,0,0,0,.41.65,1.27,1.27,0,0,0,.73.19,1.33,1.33,0,0,0,.45-.08,1.11,1.11,0,0,0,.36-.23,1.07,1.07,0,0,0,.25-.35,1.13,1.13,0,0,0,.09-.45,1.07,1.07,0,0,0-.12-.53.87.87,0,0,0-.33-.33,1.17,1.17,0,0,0-.46-.18,2.24,2.24,0,0,0-.52-.06H93.6Z"/><path d="M96.68,239.2a5.7,5.7,0,0,1,.08-1,3.1,3.1,0,0,1,.29-.95,2,2,0,0,1,.59-.71,1.6,1.6,0,0,1,1-.27,1.57,1.57,0,0,1,1,.27,1.94,1.94,0,0,1,.59.71,3.41,3.41,0,0,1,.3.95,6.85,6.85,0,0,1,.08,1,7.07,7.07,0,0,1-.08,1,3.45,3.45,0,0,1-.3.94,1.94,1.94,0,0,1-.59.71,1.57,1.57,0,0,1-1,.27,1.6,1.6,0,0,1-1-.27,2,2,0,0,1-.59-.71,3.13,3.13,0,0,1-.29-.94A5.85,5.85,0,0,1,96.68,239.2Zm.67,0c0,.13,0,.29,0,.46a4.88,4.88,0,0,0,.06.52,4.07,4.07,0,0,0,.13.5,1.41,1.41,0,0,0,.23.44,1,1,0,0,0,.34.31.9.9,0,0,0,.48.12,1,1,0,0,0,.48-.12,1.24,1.24,0,0,0,.34-.31,1.65,1.65,0,0,0,.22-.44,2.83,2.83,0,0,0,.13-.5,4.88,4.88,0,0,0,.06-.52c0-.17,0-.33,0-.46s0-.3,0-.47a4.43,4.43,0,0,0-.06-.51,2.72,2.72,0,0,0-.13-.51,1.81,1.81,0,0,0-.22-.44,1.24,1.24,0,0,0-.34-.31,1,1,0,0,0-.48-.12.9.9,0,0,0-.48.12,1,1,0,0,0-.34.31,1.53,1.53,0,0,0-.23.44,3.8,3.8,0,0,0-.13.51,4.43,4.43,0,0,0-.06.51C97.35,238.9,97.35,239.06,97.35,239.2Z"/><path d="M101.28,237.41a1.33,1.33,0,0,1,.08-.45,1.11,1.11,0,0,1,.25-.36,1,1,0,0,1,.36-.24,1.17,1.17,0,0,1,.9,0,1,1,0,0,1,.36.24,1.11,1.11,0,0,1,.25.36,1.31,1.31,0,0,1,0,.9,1.23,1.23,0,0,1-.61.61,1.17,1.17,0,0,1-.9,0,1.23,1.23,0,0,1-.61-.61A1.33,1.33,0,0,1,101.28,237.41Zm.43,0a.79.79,0,0,0,.05.25.68.68,0,0,0,.14.23.76.76,0,0,0,.23.17.73.73,0,0,0,.58,0,.66.66,0,0,0,.23-.17.68.68,0,0,0,.14-.23.71.71,0,0,0-.14-.73.81.81,0,0,0-.23-.17.73.73,0,0,0-.58,0,1,1,0,0,0-.23.17.75.75,0,0,0-.19.48Z"/><path d="M203.18,38.51h-.68v-4.8h0l-1,.85-.4-.48,1.52-1.24h.59Z"/><path d="M208.49,33.47h-2.31l0,1.53a1.08,1.08,0,0,1,.36-.11l.37,0a2,2,0,0,1,.74.14,1.61,1.61,0,0,1,.57.39,1.9,1.9,0,0,1,.37.59,2,2,0,0,1,.13.74,2,2,0,0,1-.15.78,1.74,1.74,0,0,1-.41.59,1.91,1.91,0,0,1-.61.38,2.2,2.2,0,0,1-.78.13,1.73,1.73,0,0,1-1-.28,2,2,0,0,1-.63-.75l.67-.25a1.31,1.31,0,0,0,.42.51,1.1,1.1,0,0,0,.64.2,1.28,1.28,0,0,0,.48-.09,1.26,1.26,0,0,0,.38-.27,1.15,1.15,0,0,0,.26-.41,1.53,1.53,0,0,0,.1-.54,1.38,1.38,0,0,0-.11-.55,1.08,1.08,0,0,0-.3-.4,1.26,1.26,0,0,0-.44-.25,1.67,1.67,0,0,0-.55-.08,1.84,1.84,0,0,0-.6.1,2.58,2.58,0,0,0-.56.25l.06-2.95h3Z"/><path d="M209.45,35.68a7,7,0,0,1,.08-1,3.1,3.1,0,0,1,.29-1,2,2,0,0,1,.59-.71,1.6,1.6,0,0,1,1-.27,1.55,1.55,0,0,1,.95.27,1.94,1.94,0,0,1,.59.71,2.86,2.86,0,0,1,.3,1,7,7,0,0,1,.08,1,7.07,7.07,0,0,1-.08,1,2.88,2.88,0,0,1-.3.94,1.94,1.94,0,0,1-.59.71,1.55,1.55,0,0,1-.95.27,1.6,1.6,0,0,1-1-.27,2,2,0,0,1-.59-.71,3.13,3.13,0,0,1-.29-.94A7.07,7.07,0,0,1,209.45,35.68Zm.67,0c0,.13,0,.29,0,.46a4.88,4.88,0,0,0,.06.52,4.05,4.05,0,0,0,.12.5,1.66,1.66,0,0,0,.23.44,1,1,0,0,0,.34.31.9.9,0,0,0,.48.12,1,1,0,0,0,.48-.12,1.24,1.24,0,0,0,.34-.31,1.4,1.4,0,0,0,.22-.44,2.83,2.83,0,0,0,.13-.5,4.88,4.88,0,0,0,.06-.52c0-.17,0-.33,0-.46s0-.3,0-.47a4.43,4.43,0,0,0-.06-.51,2.72,2.72,0,0,0-.13-.51,1.51,1.51,0,0,0-.22-.44,1.24,1.24,0,0,0-.34-.31,1,1,0,0,0-.48-.12.9.9,0,0,0-.48.12,1,1,0,0,0-.34.31,1.83,1.83,0,0,0-.23.44,3.81,3.81,0,0,0-.12.51,4.43,4.43,0,0,0-.06.51C210.13,35.38,210.12,35.54,210.12,35.68Z"/><path d="M214.05,33.89a1.15,1.15,0,0,1,.33-.81,1,1,0,0,1,.37-.24,1,1,0,0,1,.44-.09,1.13,1.13,0,0,1,.45.09,1,1,0,0,1,.36.24,1,1,0,0,1,.25.36,1.17,1.17,0,0,1,0,.9,1.23,1.23,0,0,1-.61.61,1.13,1.13,0,0,1-.45.09,1.15,1.15,0,0,1-.81-.34,1.15,1.15,0,0,1-.33-.81Zm.43,0a.79.79,0,0,0,.05.25,1.14,1.14,0,0,0,.15.23.62.62,0,0,0,.22.17.72.72,0,0,0,.29.06.68.68,0,0,0,.52-.23.79.79,0,0,0,.14-.23.65.65,0,0,0,0-.5.79.79,0,0,0-.14-.23.81.81,0,0,0-.23-.17.65.65,0,0,0-.29-.06.72.72,0,0,0-.29.06.76.76,0,0,0-.22.17,1.14,1.14,0,0,0-.15.23A.79.79,0,0,0,214.48,33.89Z"/><path d="M93.61,38.51h-.67v-4.8h0l-1,.85-.4-.48L93,32.84h.58Z"/><path d="M98.92,33.47H96.61l0,1.53a1,1,0,0,1,.35-.11l.37,0a1.91,1.91,0,0,1,.74.14,1.65,1.65,0,0,1,.58.39A1.71,1.71,0,0,1,99,36a2,2,0,0,1,.13.74,2,2,0,0,1-.15.78,1.71,1.71,0,0,1-.4.59,2,2,0,0,1-.62.38,2.15,2.15,0,0,1-.77.13,1.78,1.78,0,0,1-1.05-.28,1.85,1.85,0,0,1-.62-.75l.67-.25a1.16,1.16,0,0,0,.42.51,1.05,1.05,0,0,0,.63.2,1.28,1.28,0,0,0,.48-.09,1.23,1.23,0,0,0,.64-.68,1.33,1.33,0,0,0,.1-.54,1.38,1.38,0,0,0-.11-.55,1.18,1.18,0,0,0-.29-.4,1.41,1.41,0,0,0-.45-.25,1.63,1.63,0,0,0-.55-.08,1.78,1.78,0,0,0-.59.1,2.58,2.58,0,0,0-.56.25l0-2.95h3Z"/><path d="M99.88,35.68a7,7,0,0,1,.08-1,3.11,3.11,0,0,1,.3-1,1.94,1.94,0,0,1,.59-.71,1.55,1.55,0,0,1,1-.27,1.6,1.6,0,0,1,1,.27,2,2,0,0,1,.59.71,3.1,3.1,0,0,1,.29,1,5.77,5.77,0,0,1,.08,1,5.85,5.85,0,0,1-.08,1,3.13,3.13,0,0,1-.29.94,2,2,0,0,1-.59.71,1.6,1.6,0,0,1-1,.27,1.55,1.55,0,0,1-1-.27,1.94,1.94,0,0,1-.59-.71,3.14,3.14,0,0,1-.3-.94A7.07,7.07,0,0,1,99.88,35.68Zm.67,0c0,.13,0,.29,0,.46a4.88,4.88,0,0,0,.06.52,2.83,2.83,0,0,0,.13.5,1.4,1.4,0,0,0,.22.44,1.24,1.24,0,0,0,.34.31,1,1,0,0,0,.48.12.9.9,0,0,0,.48-.12,1,1,0,0,0,.34-.31,1.41,1.41,0,0,0,.23-.44,4.05,4.05,0,0,0,.12-.5,4.88,4.88,0,0,0,.06-.52c0-.17,0-.33,0-.46s0-.3,0-.47a4.43,4.43,0,0,0-.06-.51,3.81,3.81,0,0,0-.12-.51,1.53,1.53,0,0,0-.23-.44,1,1,0,0,0-.34-.31.9.9,0,0,0-.48-.12,1,1,0,0,0-.48.12,1.24,1.24,0,0,0-.34.31,1.51,1.51,0,0,0-.22.44,2.72,2.72,0,0,0-.13.51,4.43,4.43,0,0,0-.06.51C100.56,35.38,100.55,35.54,100.55,35.68Z"/><path d="M104.48,33.89a1.15,1.15,0,0,1,1.15-1.14,1,1,0,0,1,.44.09,1.12,1.12,0,0,1,.37.24,1.16,1.16,0,0,1,0,1.62,1.15,1.15,0,0,1-.37.25,1,1,0,0,1-.44.09,1.13,1.13,0,0,1-.45-.09,1.15,1.15,0,0,1-.37-.25,1.15,1.15,0,0,1-.33-.81Zm.43,0a.61.61,0,0,0,.06.25.79.79,0,0,0,.14.23.72.72,0,0,0,.22.17.73.73,0,0,0,.3.06.72.72,0,0,0,.29-.06.62.62,0,0,0,.22-.17,1.14,1.14,0,0,0,.15-.23.65.65,0,0,0,0-.5,1.14,1.14,0,0,0-.15-.23.76.76,0,0,0-.22-.17.72.72,0,0,0-.29-.06.73.73,0,0,0-.3.06.92.92,0,0,0-.22.17.79.79,0,0,0-.14.23A.61.61,0,0,0,104.91,33.89Z"/><path d="M248.75,192.45v0a1.35,1.35,0,0,1,.37-.13,2,2,0,0,1,.39,0,1.73,1.73,0,0,1,.69.13,1.42,1.42,0,0,1,.54.36,1.85,1.85,0,0,1,.36.57,2,2,0,0,1,.12.72,1.78,1.78,0,0,1-.14.74,1.74,1.74,0,0,1-.4.56,2,2,0,0,1-.6.35,2.36,2.36,0,0,1-.75.12,2.27,2.27,0,0,1-.75-.12,2,2,0,0,1-.6-.35,1.6,1.6,0,0,1-.4-.56,1.78,1.78,0,0,1-.15-.74,2.24,2.24,0,0,1,.15-.86,5.28,5.28,0,0,1,.39-.74l1.5-2.39h.79Zm.59.43a1.23,1.23,0,0,0-.87.32,1,1,0,0,0-.26.38,1.31,1.31,0,0,0-.1.5,1.35,1.35,0,0,0,.1.5,1.08,1.08,0,0,0,.26.37,1,1,0,0,0,.39.24,1.32,1.32,0,0,0,1,0,1,1,0,0,0,.39-.24,1.23,1.23,0,0,0,.26-.37,1.35,1.35,0,0,0,.09-.5,1.31,1.31,0,0,0-.09-.5,1.16,1.16,0,0,0-.26-.38,1.23,1.23,0,0,0-.87-.32Z"/><path d="M251.82,192.92a7.07,7.07,0,0,1,.08-1,3.13,3.13,0,0,1,.29-.94,2,2,0,0,1,.59-.71,1.6,1.6,0,0,1,1-.27,1.55,1.55,0,0,1,.95.27,1.94,1.94,0,0,1,.59.71,2.88,2.88,0,0,1,.3.94,7.07,7.07,0,0,1,.08,1,7,7,0,0,1-.08,1,2.86,2.86,0,0,1-.3,1,1.94,1.94,0,0,1-.59.71,1.55,1.55,0,0,1-.95.27,1.6,1.6,0,0,1-1-.27,2,2,0,0,1-.59-.71,3.1,3.1,0,0,1-.29-1A7,7,0,0,1,251.82,192.92Zm.67,0c0,.14,0,.3,0,.47a4.43,4.43,0,0,0,.06.51,3.81,3.81,0,0,0,.12.51,1.83,1.83,0,0,0,.23.44,1,1,0,0,0,.34.31.9.9,0,0,0,.48.12,1,1,0,0,0,.48-.12,1.24,1.24,0,0,0,.34-.31,1.51,1.51,0,0,0,.22-.44,2.72,2.72,0,0,0,.13-.51,4.43,4.43,0,0,0,.06-.51c0-.17,0-.33,0-.47s0-.29,0-.46a4.88,4.88,0,0,0-.06-.52,2.83,2.83,0,0,0-.13-.5,1.4,1.4,0,0,0-.22-.44,1.1,1.1,0,0,0-.34-.31,1,1,0,0,0-.48-.12.9.9,0,0,0-.48.12.92.92,0,0,0-.34.31,1.66,1.66,0,0,0-.23.44,4.05,4.05,0,0,0-.12.5,4.88,4.88,0,0,0-.06.52C252.5,192.63,252.49,192.79,252.49,192.92Z"/><path d="M256.42,191.14a1.15,1.15,0,0,1,.33-.81,1.05,1.05,0,0,1,.37-.25,1.23,1.23,0,0,1,.44-.08,1.33,1.33,0,0,1,.45.08,1.15,1.15,0,0,1,.37.25,1.16,1.16,0,0,1,0,1.62,1.15,1.15,0,0,1-.37.25,1.33,1.33,0,0,1-.45.08,1.23,1.23,0,0,1-.44-.08,1.05,1.05,0,0,1-.37-.25,1.15,1.15,0,0,1-.33-.81Zm.43,0a.79.79,0,0,0,0,.25,1.14,1.14,0,0,0,.15.23.62.62,0,0,0,.22.17.72.72,0,0,0,.29.06.68.68,0,0,0,.52-.23.79.79,0,0,0,.14-.23.65.65,0,0,0,0-.5.79.79,0,0,0-.14-.23.68.68,0,0,0-.52-.23.72.72,0,0,0-.29.06.62.62,0,0,0-.22.17,1.14,1.14,0,0,0-.15.23A.79.79,0,0,0,256.85,191.14Z"/><path d="M250,81.22h-.67v-4.8h0l-1,.86-.4-.49,1.52-1.23H250Z"/><path d="M251.92,80.45l2.13-2.08c.13-.12.25-.24.35-.35a2.16,2.16,0,0,0,.25-.32,1.09,1.09,0,0,0,.15-.33,1.38,1.38,0,0,0,0-.37,1,1,0,0,0-.08-.4.84.84,0,0,0-.22-.3.78.78,0,0,0-.33-.19,1.05,1.05,0,0,0-.4-.07,1,1,0,0,0-.71.25,1.08,1.08,0,0,0-.36.65l-.73-.06a1.83,1.83,0,0,1,.21-.61,1.41,1.41,0,0,1,.39-.45,2,2,0,0,1,.53-.27,2.25,2.25,0,0,1,.64-.09,2.41,2.41,0,0,1,.67.1,1.92,1.92,0,0,1,.55.29,1.44,1.44,0,0,1,.51,1.15,2,2,0,0,1-.09.61,2,2,0,0,1-.25.5,3.47,3.47,0,0,1-.35.43l-.41.4-1.75,1.64v0h2.89v.62h-3.64Z"/><path d="M256.27,78.39a5.85,5.85,0,0,1,.08-1,3.19,3.19,0,0,1,.29-1,2,2,0,0,1,.59-.7,1.54,1.54,0,0,1,1-.28,1.51,1.51,0,0,1,.95.28,1.91,1.91,0,0,1,.59.7,3.2,3.2,0,0,1,.3,1,6.29,6.29,0,0,1,0,2,3.2,3.2,0,0,1-.3,1,1.91,1.91,0,0,1-.59.7,1.51,1.51,0,0,1-.95.28,1.54,1.54,0,0,1-1-.28,2,2,0,0,1-.59-.7,3.19,3.19,0,0,1-.29-1A5.85,5.85,0,0,1,256.27,78.39Zm.67,0a3.78,3.78,0,0,0,0,.46c0,.17,0,.35.05.52a4.77,4.77,0,0,0,.13.51,1.67,1.67,0,0,0,.23.44,1,1,0,0,0,.34.31,1,1,0,0,0,.48.11,1.06,1.06,0,0,0,.48-.11,1.24,1.24,0,0,0,.34-.31,2,2,0,0,0,.22-.44,3.18,3.18,0,0,0,.13-.51,4.6,4.6,0,0,0,.06-.52c0-.17,0-.32,0-.46s0-.29,0-.46a4.35,4.35,0,0,0-.06-.52,3.18,3.18,0,0,0-.13-.51,2,2,0,0,0-.22-.44,1.24,1.24,0,0,0-.34-.31,1.06,1.06,0,0,0-.48-.11,1,1,0,0,0-.48.11,1,1,0,0,0-.34.31,1.67,1.67,0,0,0-.23.44,4.77,4.77,0,0,0-.13.51c0,.17,0,.34-.05.52A3.78,3.78,0,0,0,256.94,78.39Z"/><path d="M260.87,76.61a1.13,1.13,0,0,1,.09-.45,1,1,0,0,1,.24-.37,1.16,1.16,0,0,1,1.62,0,1.15,1.15,0,0,1,.25.37,1.13,1.13,0,0,1,.09.45,1,1,0,0,1-.09.44,1.15,1.15,0,0,1-.25.37,1.16,1.16,0,0,1-1.62,0,1,1,0,0,1-.24-.37A1,1,0,0,1,260.87,76.61Zm.43,0a.69.69,0,0,0,.05.24.75.75,0,0,0,.15.24.6.6,0,0,0,.22.16.64.64,0,0,0,.58,0,.63.63,0,0,0,.23-.16.72.72,0,0,0,.14-.24.52.52,0,0,0,.05-.24.56.56,0,0,0-.05-.25.59.59,0,0,0-.14-.23.66.66,0,0,0-.23-.17.64.64,0,0,0-.58,0,.62.62,0,0,0-.22.17.61.61,0,0,0-.15.23A.74.74,0,0,0,261.3,76.61Z"/><path d="M40.39,192.45v0a1.42,1.42,0,0,1,.38-.13,1.84,1.84,0,0,1,.39,0,1.72,1.72,0,0,1,.68.13,1.42,1.42,0,0,1,.54.36,1.85,1.85,0,0,1,.36.57,2,2,0,0,1,.13.72,1.78,1.78,0,0,1-.15.74,1.6,1.6,0,0,1-.4.56,2,2,0,0,1-.6.35,2.4,2.4,0,0,1-1.5,0,2,2,0,0,1-.6-.35,1.6,1.6,0,0,1-.4-.56,1.78,1.78,0,0,1-.15-.74,2.24,2.24,0,0,1,.16-.86,5.19,5.19,0,0,1,.38-.74l1.5-2.39h.79Zm.59.43a1.23,1.23,0,0,0-.87.32,1.16,1.16,0,0,0-.26.38,1.31,1.31,0,0,0-.09.5,1.35,1.35,0,0,0,.09.5,1.23,1.23,0,0,0,.26.37,1,1,0,0,0,.39.24,1.32,1.32,0,0,0,1,0,1,1,0,0,0,.39-.24,1.23,1.23,0,0,0,.26-.37,1.35,1.35,0,0,0,.1-.5,1.31,1.31,0,0,0-.1-.5,1.16,1.16,0,0,0-.26-.38,1.23,1.23,0,0,0-.87-.32Z"/><path d="M43.46,192.92a7.07,7.07,0,0,1,.08-1,2.88,2.88,0,0,1,.3-.94,1.94,1.94,0,0,1,.59-.71,1.55,1.55,0,0,1,1-.27,1.6,1.6,0,0,1,1,.27,2,2,0,0,1,.59.71,3.13,3.13,0,0,1,.29.94,7.07,7.07,0,0,1,.08,1,7,7,0,0,1-.08,1,3.1,3.1,0,0,1-.29,1,2,2,0,0,1-.59.71,1.6,1.6,0,0,1-1,.27,1.55,1.55,0,0,1-1-.27,1.94,1.94,0,0,1-.59-.71,2.86,2.86,0,0,1-.3-1A7,7,0,0,1,43.46,192.92Zm.67,0c0,.14,0,.3,0,.47a4.43,4.43,0,0,0,.06.51,2.72,2.72,0,0,0,.13.51,1.51,1.51,0,0,0,.22.44,1.12,1.12,0,0,0,.34.31,1,1,0,0,0,1,0,1.12,1.12,0,0,0,.34-.31,1.83,1.83,0,0,0,.23-.44,3.81,3.81,0,0,0,.12-.51,4.43,4.43,0,0,0,.06-.51c0-.17,0-.33,0-.47s0-.29,0-.46a4.88,4.88,0,0,0-.06-.52,4.05,4.05,0,0,0-.12-.5,1.66,1.66,0,0,0-.23-.44,1,1,0,0,0-.34-.31,1,1,0,0,0-1,0,1,1,0,0,0-.34.31,1.4,1.4,0,0,0-.22.44,2.83,2.83,0,0,0-.13.5,4.88,4.88,0,0,0-.06.52C44.14,192.63,44.13,192.79,44.13,192.92Z"/><path d="M48.06,191.14a1.15,1.15,0,0,1,.33-.81,1.15,1.15,0,0,1,.37-.25,1.33,1.33,0,0,1,.45-.08,1.27,1.27,0,0,1,.44.08,1.15,1.15,0,0,1,.37.25A1.16,1.16,0,0,1,50,192a1.15,1.15,0,0,1-.37.25,1.27,1.27,0,0,1-.44.08,1.33,1.33,0,0,1-.45-.08,1.15,1.15,0,0,1-.37-.25,1.15,1.15,0,0,1-.33-.81Zm.43,0a.61.61,0,0,0,.06.25.79.79,0,0,0,.14.23.72.72,0,0,0,.22.17.73.73,0,0,0,.3.06.72.72,0,0,0,.29-.06.62.62,0,0,0,.22-.17,1.14,1.14,0,0,0,.15-.23.65.65,0,0,0,0-.5,1.14,1.14,0,0,0-.15-.23.62.62,0,0,0-.22-.17.72.72,0,0,0-.29-.06.73.73,0,0,0-.3.06.72.72,0,0,0-.22.17.79.79,0,0,0-.14.23A.61.61,0,0,0,48.49,191.14Z"/><path d="M39.15,81.22h-.67v-4.8h0l-1,.86-.4-.49,1.52-1.23h.58Z"/><path d="M41.07,80.45l2.14-2.08c.13-.12.25-.24.35-.35a2.16,2.16,0,0,0,.25-.32,1.09,1.09,0,0,0,.15-.33A1.38,1.38,0,0,0,44,77a1,1,0,0,0-.08-.4.84.84,0,0,0-.22-.3.78.78,0,0,0-.33-.19A1.05,1.05,0,0,0,43,76a1,1,0,0,0-.72.25,1.19,1.19,0,0,0-.36.65l-.72-.06a1.47,1.47,0,0,1,.21-.61,1.41,1.41,0,0,1,.39-.45,2,2,0,0,1,.53-.27,2.2,2.2,0,0,1,.64-.09,2.41,2.41,0,0,1,.67.1,2.06,2.06,0,0,1,.55.29,1.47,1.47,0,0,1,.37.48,1.6,1.6,0,0,1,.14.67,2,2,0,0,1-.09.61,2.34,2.34,0,0,1-.25.5,3.47,3.47,0,0,1-.35.43l-.41.4-1.75,1.64v0h2.89v.62H41.07Z"/><path d="M45.43,78.39a7,7,0,0,1,.07-1,3.52,3.52,0,0,1,.3-1,2,2,0,0,1,.59-.7,1.77,1.77,0,0,1,1.91,0,1.91,1.91,0,0,1,.59.7,3.52,3.52,0,0,1,.3,1,6.29,6.29,0,0,1,0,2,3.52,3.52,0,0,1-.3,1,1.91,1.91,0,0,1-.59.7,1.77,1.77,0,0,1-1.91,0,2,2,0,0,1-.59-.7,3.52,3.52,0,0,1-.3-1A7,7,0,0,1,45.43,78.39Zm.67,0c0,.14,0,.29,0,.46a4.6,4.6,0,0,0,.06.52,4.77,4.77,0,0,0,.13.51,2,2,0,0,0,.22.44,1.15,1.15,0,0,0,.35.31,1,1,0,0,0,.48.11,1.06,1.06,0,0,0,.48-.11,1.24,1.24,0,0,0,.34-.31,2,2,0,0,0,.22-.44,3.18,3.18,0,0,0,.13-.51,4.6,4.6,0,0,0,.06-.52c0-.17,0-.32,0-.46s0-.29,0-.46a4.35,4.35,0,0,0-.06-.52,3.18,3.18,0,0,0-.13-.51,2,2,0,0,0-.22-.44,1.24,1.24,0,0,0-.34-.31,1.06,1.06,0,0,0-.48-.11,1,1,0,0,0-.48.11,1.15,1.15,0,0,0-.35.31,2,2,0,0,0-.22.44,4.77,4.77,0,0,0-.13.51,4.35,4.35,0,0,0-.06.52C46.1,78.1,46.1,78.25,46.1,78.39Z"/><path d="M50,76.61a1.12,1.12,0,0,1,.08-.45,1.15,1.15,0,0,1,.25-.37,1.16,1.16,0,0,1,1.62,0,1.15,1.15,0,0,1,.25.37,1.33,1.33,0,0,1,.08.45,1.23,1.23,0,0,1-.08.44,1.15,1.15,0,0,1-.25.37,1.16,1.16,0,0,1-1.62,0,1.15,1.15,0,0,1-.25-.37A1,1,0,0,1,50,76.61Zm.43,0a.52.52,0,0,0,0,.24.72.72,0,0,0,.14.24.63.63,0,0,0,.23.16.64.64,0,0,0,.58,0,.73.73,0,0,0,.23-.16,1,1,0,0,0,.14-.24.69.69,0,0,0,.05-.24.75.75,0,0,0-.19-.48.76.76,0,0,0-.23-.17.64.64,0,0,0-.58,0,.66.66,0,0,0-.23.17.59.59,0,0,0-.14.23A.56.56,0,0,0,50.46,76.61Z"/></g><g id="numeri_fondo_tabella" data-name="numeri fondo tabella"><path d="M131.83,251.42a1.17,1.17,0,0,0-.43-.35,1.19,1.19,0,0,0-.51-.11,1.35,1.35,0,0,0-.55.11,1.08,1.08,0,0,0-.4.3,1.32,1.32,0,0,0-.23.44,1.76,1.76,0,0,0,0,1.08,1.43,1.43,0,0,0,.26.45,1.31,1.31,0,0,0,.39.3,1.27,1.27,0,0,0,.52.1,1.09,1.09,0,0,0,1-.46l.47.44a1.69,1.69,0,0,1-.64.46,2.29,2.29,0,0,1-.78.14,2.22,2.22,0,0,1-.79-.14,1.75,1.75,0,0,1-1-1,2.27,2.27,0,0,1,0-1.57,1.86,1.86,0,0,1,.39-.63,2,2,0,0,1,.61-.41,2,2,0,0,1,.79-.15,2.09,2.09,0,0,1,.79.15,1.59,1.59,0,0,1,.65.45Z"/><path d="M136.21,253.56h0a1.43,1.43,0,0,1-.55.54,1.7,1.7,0,0,1-.89.22,1.8,1.8,0,0,1-.73-.15,1.78,1.78,0,0,1-.6-.41,1.81,1.81,0,0,1-.39-.62,2.06,2.06,0,0,1-.15-.79,2,2,0,0,1,.15-.78,1.88,1.88,0,0,1,.4-.63,1.81,1.81,0,0,1,.62-.41,2.07,2.07,0,0,1,.8-.15,1.72,1.72,0,0,1,.75.17,1.78,1.78,0,0,1,.59.47h0v-2.84h.62v6h-.62Zm0-1.21a1.63,1.63,0,0,0-.09-.55,1.34,1.34,0,0,0-.27-.44,1.37,1.37,0,0,0-.42-.29,1.35,1.35,0,0,0-.55-.11,1.42,1.42,0,0,0-.55.11,1.22,1.22,0,0,0-.41.29,1.34,1.34,0,0,0-.27.44,1.56,1.56,0,0,0,0,1.1,1.25,1.25,0,0,0,.27.44,1.19,1.19,0,0,0,1,.4,1.35,1.35,0,0,0,.55-.1,1.6,1.6,0,0,0,.42-.3,1.25,1.25,0,0,0,.27-.44A1.63,1.63,0,0,0,136.21,252.35Z"/><path d="M140.1,254.57l-.5-.2,2.4-6.15.51.2Z"/><path d="M147.64,254.22H147v-4.8h0l-1,.86-.4-.49,1.52-1.23h.59Z"/><path d="M149.46,251.39a7.07,7.07,0,0,1,.08-1,3.19,3.19,0,0,1,.29-.95,2,2,0,0,1,.59-.7,1.61,1.61,0,0,1,1-.28,1.55,1.55,0,0,1,1,.28,1.91,1.91,0,0,1,.59.7,2.94,2.94,0,0,1,.3.95,6.29,6.29,0,0,1,0,2,2.94,2.94,0,0,1-.3,1,1.91,1.91,0,0,1-.59.7,1.49,1.49,0,0,1-1,.28,1.54,1.54,0,0,1-1-.28,2,2,0,0,1-.59-.7,3.19,3.19,0,0,1-.29-1A7.07,7.07,0,0,1,149.46,251.39Zm.67,0c0,.14,0,.29,0,.47a4.43,4.43,0,0,0,.06.51,4.7,4.7,0,0,0,.12.51,2,2,0,0,0,.23.44,1.12,1.12,0,0,0,.34.31,1.1,1.1,0,0,0,1,0,1.12,1.12,0,0,0,.34-.31,1.65,1.65,0,0,0,.22-.44,3.18,3.18,0,0,0,.13-.51,4.43,4.43,0,0,0,.06-.51c0-.18,0-.33,0-.47s0-.29,0-.46a4.6,4.6,0,0,0-.06-.52,3.18,3.18,0,0,0-.13-.51,1.65,1.65,0,0,0-.22-.44,1.08,1.08,0,0,0-.34-.3,1,1,0,0,0-1,0,1.08,1.08,0,0,0-.34.3,2,2,0,0,0-.23.44,4.7,4.7,0,0,0-.12.51,4.6,4.6,0,0,0-.06.52C150.14,251.1,150.13,251.25,150.13,251.39Z"/><path d="M153.91,251.39a5.85,5.85,0,0,1,.08-1,3.19,3.19,0,0,1,.29-.95,2,2,0,0,1,.59-.7,1.61,1.61,0,0,1,1-.28,1.55,1.55,0,0,1,.95.28,1.91,1.91,0,0,1,.59.7,3.2,3.2,0,0,1,.3.95,6.29,6.29,0,0,1,0,2,3.2,3.2,0,0,1-.3,1,1.91,1.91,0,0,1-.59.7,1.49,1.49,0,0,1-.95.28,1.54,1.54,0,0,1-1-.28,2,2,0,0,1-.59-.7,3.19,3.19,0,0,1-.29-1A5.85,5.85,0,0,1,153.91,251.39Zm.67,0a4,4,0,0,0,0,.47,4.43,4.43,0,0,0,.06.51,3.14,3.14,0,0,0,.12.51,1.67,1.67,0,0,0,.23.44,1,1,0,0,0,.34.31.9.9,0,0,0,.48.11,1,1,0,0,0,.48-.11,1.24,1.24,0,0,0,.34-.31,1.65,1.65,0,0,0,.22-.44,3.18,3.18,0,0,0,.13-.51,4.43,4.43,0,0,0,.06-.51c0-.18,0-.33,0-.47s0-.29,0-.46a4.6,4.6,0,0,0-.06-.52,3.18,3.18,0,0,0-.13-.51,1.65,1.65,0,0,0-.22-.44,1.21,1.21,0,0,0-.34-.3,1,1,0,0,0-.48-.12.9.9,0,0,0-.48.12,1,1,0,0,0-.34.3,1.67,1.67,0,0,0-.23.44,3.14,3.14,0,0,0-.12.51,4.6,4.6,0,0,0-.06.52A3.78,3.78,0,0,0,154.58,251.39Z"/><path d="M158.31,251.39a5.85,5.85,0,0,1,.08-1,3.19,3.19,0,0,1,.29-.95,2,2,0,0,1,.59-.7,1.61,1.61,0,0,1,1-.28,1.55,1.55,0,0,1,1,.28,1.91,1.91,0,0,1,.59.7,3.2,3.2,0,0,1,.3.95,6.29,6.29,0,0,1,0,2,3.2,3.2,0,0,1-.3,1,1.91,1.91,0,0,1-.59.7,1.49,1.49,0,0,1-1,.28,1.54,1.54,0,0,1-1-.28,2,2,0,0,1-.59-.7,3.19,3.19,0,0,1-.29-1A5.85,5.85,0,0,1,158.31,251.39Zm.67,0c0,.14,0,.29,0,.47a4.43,4.43,0,0,0,.06.51,3.14,3.14,0,0,0,.12.51,1.67,1.67,0,0,0,.23.44,1,1,0,0,0,.34.31.9.9,0,0,0,.48.11,1,1,0,0,0,.48-.11,1.24,1.24,0,0,0,.34-.31,1.65,1.65,0,0,0,.22-.44,3.18,3.18,0,0,0,.13-.51,4.43,4.43,0,0,0,.06-.51c0-.18,0-.33,0-.47s0-.29,0-.46a4.6,4.6,0,0,0-.06-.52,3.18,3.18,0,0,0-.13-.51,1.65,1.65,0,0,0-.22-.44,1.21,1.21,0,0,0-.34-.3,1,1,0,0,0-.48-.12.9.9,0,0,0-.48.12,1,1,0,0,0-.34.3,1.67,1.67,0,0,0-.23.44,3.14,3.14,0,0,0-.12.51,4.6,4.6,0,0,0-.06.52C159,251.1,159,251.25,159,251.39Z"/><path d="M165.32,248.18H166v6h-.63Z"/><path d="M167.19,251.37c0-.17,0-.33,0-.48s0-.29,0-.41h.59c0,.1,0,.2,0,.3v.32h0a.91.91,0,0,1,.18-.27,1.64,1.64,0,0,1,.28-.23,1.5,1.5,0,0,1,.36-.16,1.44,1.44,0,0,1,.43-.06,1.52,1.52,0,0,1,.51.08,1.36,1.36,0,0,1,.34.18.93.93,0,0,1,.21.24,1.64,1.64,0,0,1,.12.22,1.78,1.78,0,0,1,.48-.53,1.27,1.27,0,0,1,.71-.19,1.88,1.88,0,0,1,.67.11,1.1,1.1,0,0,1,.44.31,1.37,1.37,0,0,1,.24.5,2.59,2.59,0,0,1,.07.65v2.27h-.62V252a2.33,2.33,0,0,0,0-.37,1,1,0,0,0-.15-.33.71.71,0,0,0-.28-.23,1,1,0,0,0-.45-.09,1,1,0,0,0-.37.08,1,1,0,0,0-.31.22,1.13,1.13,0,0,0-.21.35,1.33,1.33,0,0,0-.07.45v2.16h-.63V252.1a1.62,1.62,0,0,0-.17-.88A.6.6,0,0,0,169,251a1.18,1.18,0,0,0-.52.1.88.88,0,0,0-.36.3,1.14,1.14,0,0,0-.21.46,2.1,2.1,0,0,0-.07.58v1.82h-.62Z"/><line class="cls-1" x1="38.21" y1="253" x2="46.2" y2="253"/><path d="M235.17,251a1.66,1.66,0,0,0-.63-.52,1.93,1.93,0,0,0-.79-.17,2.13,2.13,0,0,0-.87.19,2.16,2.16,0,0,0-.68.52,2.58,2.58,0,0,0-.45.75,2.69,2.69,0,0,0-.16.89,2.79,2.79,0,0,0,.16.93,2.41,2.41,0,0,0,.45.74,2,2,0,0,0,.68.5,1.92,1.92,0,0,0,.87.19,2,2,0,0,0,1.64-.8l.51.43a2.38,2.38,0,0,1-.93.75,3,3,0,0,1-1.22.24,2.85,2.85,0,0,1-1.13-.22,2.82,2.82,0,0,1-.92-.62,3,3,0,0,1-.61-.94,3.33,3.33,0,0,1-.22-1.2,3.19,3.19,0,0,1,.21-1.16,2.9,2.9,0,0,1,.6-1,3.08,3.08,0,0,1,.91-.63,3,3,0,0,1,2.27,0,2,2,0,0,1,.89.68Z"/><path d="M239,253.1l0,0a1.35,1.35,0,0,1-.37.13,2.87,2.87,0,0,1-.39,0,1.68,1.68,0,0,1-.68-.13,1.5,1.5,0,0,1-.55-.36,1.92,1.92,0,0,1-.36-.56,2.11,2.11,0,0,1-.12-.73,1.75,1.75,0,0,1,.14-.74,1.63,1.63,0,0,1,.4-.56,1.79,1.79,0,0,1,.6-.35,2.36,2.36,0,0,1,.75-.12,2.27,2.27,0,0,1,.75.12,1.94,1.94,0,0,1,.61.35,1.49,1.49,0,0,1,.39.56,1.75,1.75,0,0,1,.15.74,2.19,2.19,0,0,1,0,.46c0,.14-.07.27-.11.4a2.53,2.53,0,0,1-.18.37,3.35,3.35,0,0,1-.21.36l-1.5,2.4h-.79Zm-.6-.43a1.51,1.51,0,0,0,.48-.08,1.28,1.28,0,0,0,.39-.24,1.12,1.12,0,0,0,.26-.38,1.27,1.27,0,0,0,.1-.5,1.26,1.26,0,0,0-.1-.49,1,1,0,0,0-.26-.38,1,1,0,0,0-.39-.24,1.33,1.33,0,0,0-1,0,.88.88,0,0,0-.38.24,1.19,1.19,0,0,0-.27.38,1.26,1.26,0,0,0-.09.49,1.28,1.28,0,0,0,.09.5,1.31,1.31,0,0,0,.27.38,1.12,1.12,0,0,0,.38.24A1.51,1.51,0,0,0,238.35,252.67Z"/><path d="M240.88,252.62a7.07,7.07,0,0,1,.08-1,2.88,2.88,0,0,1,.3-.94,2,2,0,0,1,.58-.71,1.84,1.84,0,0,1,1.92,0,2,2,0,0,1,.58.71,2.88,2.88,0,0,1,.3.94,7.07,7.07,0,0,1,.08,1,7,7,0,0,1-.08,1,2.86,2.86,0,0,1-.3.95,2,2,0,0,1-.58.71,1.84,1.84,0,0,1-1.92,0,2,2,0,0,1-.58-.71,2.86,2.86,0,0,1-.3-.95A7,7,0,0,1,240.88,252.62Zm.67,0c0,.14,0,.3,0,.47a4.43,4.43,0,0,0,.06.51,2.72,2.72,0,0,0,.13.51,1.51,1.51,0,0,0,.22.44,1.12,1.12,0,0,0,.34.31,1,1,0,0,0,1,0,1.12,1.12,0,0,0,.34-.31,1.51,1.51,0,0,0,.22-.44,2.72,2.72,0,0,0,.13-.51,4.43,4.43,0,0,0,.06-.51c0-.17,0-.33,0-.47s0-.29,0-.46a4.88,4.88,0,0,0-.06-.52,2.83,2.83,0,0,0-.13-.5,1.4,1.4,0,0,0-.22-.44,1.12,1.12,0,0,0-.34-.31,1,1,0,0,0-1,0,1.12,1.12,0,0,0-.34.31,1.4,1.4,0,0,0-.22.44,2.83,2.83,0,0,0-.13.5,4.88,4.88,0,0,0-.06.52C241.56,252.33,241.55,252.49,241.55,252.62Z"/><path d="M247.78,255.8l-.51-.2,2.41-6.14.5.19Z"/><path d="M257.1,251a1.66,1.66,0,0,0-.63-.52,1.92,1.92,0,0,0-.78-.17,2.06,2.06,0,0,0-.87.19,2.16,2.16,0,0,0-.68.52,2.21,2.21,0,0,0-.45.75,2.46,2.46,0,0,0-.16.89,2.56,2.56,0,0,0,.16.93,2.2,2.2,0,0,0,.44.74,2.1,2.1,0,0,0,.68.5,2,2,0,0,0,.88.19,2,2,0,0,0,.93-.21,2,2,0,0,0,.71-.59l.5.43a2.29,2.29,0,0,1-.92.75,3,3,0,0,1-1.22.24,2.8,2.8,0,0,1-2.05-.84,2.82,2.82,0,0,1-.61-.94,3.13,3.13,0,0,1-.22-1.2,3.19,3.19,0,0,1,.21-1.16,2.75,2.75,0,0,1,.6-1,3,3,0,0,1,.91-.63,2.93,2.93,0,0,1,1.16-.23,3,3,0,0,1,1.11.21,2,2,0,0,1,.89.68Z"/><path d="M258.46,254.69l2.14-2.08.35-.36a1.75,1.75,0,0,0,.25-.32,1,1,0,0,0,.15-.32,1.46,1.46,0,0,0,0-.38,1,1,0,0,0-.08-.4.93.93,0,0,0-.22-.3,1.13,1.13,0,0,0-.73-.26,1,1,0,0,0-.71.25,1.11,1.11,0,0,0-.36.66l-.73-.07a1.91,1.91,0,0,1,.21-.61,1.28,1.28,0,0,1,.39-.44,1.77,1.77,0,0,1,.53-.27,2.25,2.25,0,0,1,.64-.09,2.09,2.09,0,0,1,.67.1,1.53,1.53,0,0,1,.55.29,1.47,1.47,0,0,1,.37.48,1.39,1.39,0,0,1,.14.66,1.91,1.91,0,0,1-.09.61,1.8,1.8,0,0,1-.25.5,2.86,2.86,0,0,1-.35.43l-.41.41-1.75,1.64h2.89v.63h-3.65Z"/><path d="M266.35,250.42l-2.26,5h-.76l2.3-5H262.9v-.63h3.45Z"/><path d="M267.26,252.62a7.07,7.07,0,0,1,.08-1,3.45,3.45,0,0,1,.3-.94,2,2,0,0,1,.59-.71,1.82,1.82,0,0,1,1.91,0,2,2,0,0,1,.59.71,3.45,3.45,0,0,1,.3.94,7,7,0,0,1,.07,1,6.92,6.92,0,0,1-.07,1,3.41,3.41,0,0,1-.3.95,2,2,0,0,1-.59.71,1.82,1.82,0,0,1-1.91,0,2,2,0,0,1-.59-.71,3.41,3.41,0,0,1-.3-.95A7,7,0,0,1,267.26,252.62Zm.68,0c0,.14,0,.3,0,.47a4.43,4.43,0,0,0,.06.51,2.72,2.72,0,0,0,.13.51,1.53,1.53,0,0,0,.23.44,1,1,0,0,0,.34.31.89.89,0,0,0,.47.12,1,1,0,0,0,.49-.12,1.08,1.08,0,0,0,.33-.31,1.53,1.53,0,0,0,.23-.44,2.72,2.72,0,0,0,.13-.51,4.43,4.43,0,0,0,.06-.51c0-.17,0-.33,0-.47s0-.29,0-.46a4.88,4.88,0,0,0-.06-.52,2.83,2.83,0,0,0-.13-.5,1.41,1.41,0,0,0-.23-.44,1.08,1.08,0,0,0-.33-.31,1,1,0,0,0-.49-.12.89.89,0,0,0-.47.12,1,1,0,0,0-.34.31,1.41,1.41,0,0,0-.23.44,2.83,2.83,0,0,0-.13.5,4.88,4.88,0,0,0-.06.52C267.94,252.33,267.94,252.49,267.94,252.62Z"/><path d="M52.87,251a1.55,1.55,0,0,0-.63-.51,1.82,1.82,0,0,0-.79-.18,2,2,0,0,0-.87.2,2.13,2.13,0,0,0-.68.51,2.58,2.58,0,0,0-.45.75,2.67,2.67,0,0,0,0,1.82,2.29,2.29,0,0,0,.45.74,1.88,1.88,0,0,0,.68.5,1.92,1.92,0,0,0,.87.19,2,2,0,0,0,.93-.21,2.07,2.07,0,0,0,.71-.58l.51.42a2.38,2.38,0,0,1-.93.75,3,3,0,0,1-1.22.24,2.85,2.85,0,0,1-1.13-.22,2.82,2.82,0,0,1-.92-.62,3,3,0,0,1-.61-.94,3.27,3.27,0,0,1-.22-1.19,3.2,3.2,0,0,1,.21-1.17,3,3,0,0,1,.6-.95,3.08,3.08,0,0,1,.91-.63,3,3,0,0,1,2.27,0,2,2,0,0,1,.89.68Z"/><path d="M54.13,252.62a7,7,0,0,1,.08-1,3.11,3.11,0,0,1,.3-1,1.94,1.94,0,0,1,.59-.71,1.55,1.55,0,0,1,.95-.27,1.6,1.6,0,0,1,1,.27,2,2,0,0,1,.59.71,3.1,3.1,0,0,1,.29,1,5.77,5.77,0,0,1,.08,1,5.85,5.85,0,0,1-.08,1,3.13,3.13,0,0,1-.29.94,2,2,0,0,1-.59.71,1.6,1.6,0,0,1-1,.27,1.55,1.55,0,0,1-.95-.27,1.94,1.94,0,0,1-.59-.71,3.14,3.14,0,0,1-.3-.94A7.07,7.07,0,0,1,54.13,252.62Zm.67,0c0,.13,0,.29,0,.46a4.88,4.88,0,0,0,.06.52,2.83,2.83,0,0,0,.13.5,1.4,1.4,0,0,0,.22.44,1.1,1.1,0,0,0,.34.31,1,1,0,0,0,.48.12.9.9,0,0,0,.48-.12.92.92,0,0,0,.34-.31,1.41,1.41,0,0,0,.23-.44,2.8,2.8,0,0,0,.12-.5,4.88,4.88,0,0,0,.06-.52,3.86,3.86,0,0,0,0-.46,3.94,3.94,0,0,0,0-.47,4.43,4.43,0,0,0-.06-.51,2.71,2.71,0,0,0-.12-.51,1.53,1.53,0,0,0-.23-.44,1,1,0,0,0-.34-.31.9.9,0,0,0-.48-.12,1,1,0,0,0-.48.12,1.24,1.24,0,0,0-.34.31,1.51,1.51,0,0,0-.22.44,2.72,2.72,0,0,0-.13.51,4.43,4.43,0,0,0-.06.51C54.81,252.32,54.8,252.48,54.8,252.62Z"/><path d="M61,255.79l-.51-.2,2.41-6.14.51.19Z"/><path d="M70.36,251a1.52,1.52,0,0,0-.64-.51,1.78,1.78,0,0,0-.78-.18,2,2,0,0,0-.87.2,2.13,2.13,0,0,0-.68.51,2.58,2.58,0,0,0-.45.75,2.51,2.51,0,0,0-.16.9,2.54,2.54,0,0,0,.16.92,2.46,2.46,0,0,0,.44.74,2.09,2.09,0,0,0,1.56.69,2,2,0,0,0,.93-.21,2.07,2.07,0,0,0,.71-.58l.5.42a2.29,2.29,0,0,1-.92.75,3,3,0,0,1-1.22.24,2.93,2.93,0,0,1-1.14-.22,2.88,2.88,0,0,1-.91-.62,3,3,0,0,1-.61-.94,3.07,3.07,0,0,1-.22-1.19,3.2,3.2,0,0,1,.21-1.17,2.84,2.84,0,0,1,.6-.95,3,3,0,0,1,.91-.63,2.93,2.93,0,0,1,1.16-.23,3,3,0,0,1,1.11.21,2,2,0,0,1,.89.68Z"/><path d="M74.2,255.45h-.68v-4.8h0l-1,.85-.4-.48,1.52-1.24h.59Z"/><path d="M76.37,251.17a1.33,1.33,0,0,1,.13-.61,1.2,1.2,0,0,1,.34-.46,1.44,1.44,0,0,1,.51-.3,1.92,1.92,0,0,1,1.28,0,1.44,1.44,0,0,1,.51.3,1.32,1.32,0,0,1,.34.46,1.48,1.48,0,0,1,.12.61,1.44,1.44,0,0,1-.06.4,1.41,1.41,0,0,1-.18.37,1.18,1.18,0,0,1-.3.29,1,1,0,0,1-.38.19h0a1.44,1.44,0,0,1,.46.19,1.35,1.35,0,0,1,.35.32,1.67,1.67,0,0,1,.23.44,1.7,1.7,0,0,1,.08.51,1.74,1.74,0,0,1-.14.69,1.46,1.46,0,0,1-.39.52,1.47,1.47,0,0,1-.57.33,2.35,2.35,0,0,1-1.42,0,1.59,1.59,0,0,1-.58-.33,1.43,1.43,0,0,1-.38-.52,1.74,1.74,0,0,1-.14-.69,1.7,1.7,0,0,1,.08-.51,1.65,1.65,0,0,1,.22-.44,1.59,1.59,0,0,1,.36-.32,1.44,1.44,0,0,1,.46-.19h0a1.18,1.18,0,0,1-.39-.19,1.33,1.33,0,0,1-.29-.29,1.41,1.41,0,0,1-.18-.37A1.16,1.16,0,0,1,76.37,251.17Zm.48,2.67a1.14,1.14,0,0,0,.09.46,1.21,1.21,0,0,0,.24.35,1.16,1.16,0,0,0,.36.23A1.13,1.13,0,0,0,78,255a1,1,0,0,0,.44-.09,1,1,0,0,0,.36-.23,1.07,1.07,0,0,0,.25-.35,1.36,1.36,0,0,0,0-.92,1.07,1.07,0,0,0-.25-.35,1,1,0,0,0-.36-.23,1,1,0,0,0-.44-.09,1.13,1.13,0,0,0-.45.09,1.16,1.16,0,0,0-.36.23,1.21,1.21,0,0,0-.24.35A1.14,1.14,0,0,0,76.85,253.84ZM77,251.2a.92.92,0,0,0,.26.67.93.93,0,0,0,.69.27.9.9,0,0,0,.68-.27,1,1,0,0,0,0-1.34.9.9,0,0,0-.68-.27.93.93,0,0,0-.69.27A.92.92,0,0,0,77,251.2Z"/><path d="M80.52,252.62a5.77,5.77,0,0,1,.08-1,3.1,3.1,0,0,1,.29-1,2,2,0,0,1,.59-.71,1.6,1.6,0,0,1,1-.27,1.55,1.55,0,0,1,1,.27,1.94,1.94,0,0,1,.59.71,3.41,3.41,0,0,1,.3,1,7,7,0,0,1,.08,1,7.07,7.07,0,0,1-.08,1,3.45,3.45,0,0,1-.3.94,1.94,1.94,0,0,1-.59.71,1.55,1.55,0,0,1-1,.27,1.6,1.6,0,0,1-1-.27,2,2,0,0,1-.59-.71,3.13,3.13,0,0,1-.29-.94A5.85,5.85,0,0,1,80.52,252.62Zm.67,0a3.86,3.86,0,0,0,0,.46c0,.17,0,.34.05.52a4.07,4.07,0,0,0,.13.5,1.41,1.41,0,0,0,.23.44.92.92,0,0,0,.34.31.9.9,0,0,0,.48.12,1,1,0,0,0,.48-.12,1.1,1.1,0,0,0,.34-.31,1.65,1.65,0,0,0,.22-.44,2.83,2.83,0,0,0,.13-.5,4.88,4.88,0,0,0,.06-.52c0-.17,0-.33,0-.46s0-.3,0-.47a4.43,4.43,0,0,0-.06-.51,2.72,2.72,0,0,0-.13-.51,1.81,1.81,0,0,0-.22-.44,1.24,1.24,0,0,0-.34-.31,1,1,0,0,0-.48-.12.9.9,0,0,0-.48.12,1,1,0,0,0-.34.31,1.53,1.53,0,0,0-.23.44,3.8,3.8,0,0,0-.13.51c0,.17,0,.34-.05.51A3.94,3.94,0,0,0,81.19,252.62Z"/><line class="cls-2" x1="214.49" y1="253.42" x2="215.03" y2="253.42"/><line class="cls-2" x1="217.76" y1="253.42" x2="218.3" y2="253.42"/><line class="cls-2" x1="221.02" y1="253.42" x2="221.56" y2="253.42"/><line class="cls-2" x1="224.29" y1="253.42" x2="224.83" y2="253.42"/><line class="cls-2" x1="227.55" y1="253.42" x2="228.09" y2="253.42"/></g><g id="Captain_Flint_F15300"><path d="M54.55,12.2h4.39V13H55.39v2.34h3.3v.78h-3.3v3.18h-.84Z"/><path d="M62.83,19.28H62v-6h0L60.7,14.35l-.5-.61,1.9-1.54h.73Z"/><path d="M69.53,13H66.64l0,1.91a1.67,1.67,0,0,1,.45-.13,3.91,3.91,0,0,1,.46,0,2.34,2.34,0,0,1,.93.18,2.13,2.13,0,0,1,1.17,1.23,2.71,2.71,0,0,1,0,1.89,2,2,0,0,1-.51.74,2.31,2.31,0,0,1-.77.47,2.57,2.57,0,0,1-1,.17,2.15,2.15,0,0,1-1.3-.35,2.44,2.44,0,0,1-.79-.94l.84-.32a1.54,1.54,0,0,0,.53.65,1.34,1.34,0,0,0,.79.24,1.46,1.46,0,0,0,.6-.11,1.58,1.58,0,0,0,.48-.33,1.52,1.52,0,0,0,.32-.52,1.78,1.78,0,0,0,.12-.67,1.67,1.67,0,0,0-.13-.69,1.42,1.42,0,0,0-.37-.5,1.53,1.53,0,0,0-.56-.31,2.17,2.17,0,0,0-.69-.11,2.51,2.51,0,0,0-.74.13,4,4,0,0,0-.7.31l.07-3.68h3.71Z"/><path d="M72.39,15.2h.26a3.48,3.48,0,0,0,.55,0,1.33,1.33,0,0,0,.52-.17,1,1,0,0,0,.39-.37,1.23,1.23,0,0,0,.15-.65,1.11,1.11,0,0,0-.33-.85,1.24,1.24,0,0,0-.88-.32,1.51,1.51,0,0,0-.78.2,1.43,1.43,0,0,0-.52.59l-.81-.31a1.85,1.85,0,0,1,.82-.9,2.54,2.54,0,0,1,1.23-.3,2.74,2.74,0,0,1,.81.12,2,2,0,0,1,.67.35,1.62,1.62,0,0,1,.46.58,1.71,1.71,0,0,1,.17.8,1.67,1.67,0,0,1-1.21,1.62v0a1.92,1.92,0,0,1,.61.22,1.58,1.58,0,0,1,.45.4,1.52,1.52,0,0,1,.29.53,1.89,1.89,0,0,1,.1.63,1.91,1.91,0,0,1-.19.89,1.69,1.69,0,0,1-.51.64,2,2,0,0,1-.74.39,2.92,2.92,0,0,1-.9.13,2.68,2.68,0,0,1-1.41-.35,2,2,0,0,1-.87-1.14l.85-.28A1.3,1.3,0,0,0,73,18.68a1.47,1.47,0,0,0,.56-.1A1.27,1.27,0,0,0,74,18.3a1.4,1.4,0,0,0,.31-.44,1.32,1.32,0,0,0,.11-.57,1.3,1.3,0,0,0-.15-.65,1.1,1.1,0,0,0-.41-.42A2,2,0,0,0,73.3,16a3.5,3.5,0,0,0-.65-.07h-.26Z"/><path d="M76.29,15.74a9.26,9.26,0,0,1,.1-1.25,4.07,4.07,0,0,1,.37-1.18,2.44,2.44,0,0,1,.74-.88,2.22,2.22,0,0,1,2.39,0,2.41,2.41,0,0,1,.73.88A3.79,3.79,0,0,1,81,14.49a7.88,7.88,0,0,1,.1,1.25A7.79,7.79,0,0,1,81,17a3.77,3.77,0,0,1-.37,1.19,2.41,2.41,0,0,1-.73.88,2.27,2.27,0,0,1-2.39,0,2.44,2.44,0,0,1-.74-.88A4,4,0,0,1,76.39,17,9.14,9.14,0,0,1,76.29,15.74Zm.84,0c0,.18,0,.37,0,.58s0,.43.08.65a4.15,4.15,0,0,0,.16.63,1.9,1.9,0,0,0,.28.55,1.55,1.55,0,0,0,.42.39,1.16,1.16,0,0,0,.6.14,1.11,1.11,0,0,0,.6-.14,1.45,1.45,0,0,0,.43-.39A1.9,1.9,0,0,0,80,17.6a4.15,4.15,0,0,0,.16-.63,4.78,4.78,0,0,0,.07-.65c0-.21,0-.4,0-.58s0-.36,0-.58a4.81,4.81,0,0,0-.07-.64,4.61,4.61,0,0,0-.16-.64,2,2,0,0,0-.28-.55,1.42,1.42,0,0,0-.43-.38,1.11,1.11,0,0,0-.6-.15,1.16,1.16,0,0,0-.6.15,1.51,1.51,0,0,0-.42.38,2,2,0,0,0-.28.55,4.61,4.61,0,0,0-.16.64c0,.22-.06.43-.08.64S77.13,15.57,77.13,15.74Z"/><path d="M81.85,15.74a9.26,9.26,0,0,1,.1-1.25,4.07,4.07,0,0,1,.37-1.18,2.44,2.44,0,0,1,.74-.88,2.22,2.22,0,0,1,2.39,0,2.41,2.41,0,0,1,.73.88,3.79,3.79,0,0,1,.37,1.18,7.88,7.88,0,0,1,.1,1.25,7.79,7.79,0,0,1-.1,1.25,3.77,3.77,0,0,1-.37,1.19,2.41,2.41,0,0,1-.73.88,2.27,2.27,0,0,1-2.39,0,2.44,2.44,0,0,1-.74-.88A4,4,0,0,1,82,17,9.14,9.14,0,0,1,81.85,15.74Zm.84,0c0,.18,0,.37,0,.58s0,.43.08.65a4.15,4.15,0,0,0,.16.63,1.9,1.9,0,0,0,.28.55,1.55,1.55,0,0,0,.42.39,1.16,1.16,0,0,0,.6.14,1.11,1.11,0,0,0,.6-.14,1.45,1.45,0,0,0,.43-.39,1.9,1.9,0,0,0,.28-.55,4.15,4.15,0,0,0,.16-.63,4.78,4.78,0,0,0,.07-.65c0-.21,0-.4,0-.58s0-.36,0-.58a4.81,4.81,0,0,0-.07-.64,4.61,4.61,0,0,0-.16-.64,2,2,0,0,0-.28-.55,1.42,1.42,0,0,0-.43-.38,1.11,1.11,0,0,0-.6-.15,1.16,1.16,0,0,0-.6.15,1.51,1.51,0,0,0-.42.38,2,2,0,0,0-.28.55,4.61,4.61,0,0,0-.16.64c0,.22-.06.43-.08.64S82.69,15.57,82.69,15.74Z"/><path d="M87,20h5v.5H87Z"/><path d="M92.53,18.32l2.67-2.6a6.07,6.07,0,0,0,.44-.44,2.66,2.66,0,0,0,.32-.4,1.65,1.65,0,0,0,.18-.41A1.68,1.68,0,0,0,96.2,14a1.18,1.18,0,0,0-.1-.5,1,1,0,0,0-.27-.37,1.38,1.38,0,0,0-.41-.24,1.44,1.44,0,0,0-.51-.09,1.34,1.34,0,0,0-.89.31,1.47,1.47,0,0,0-.45.82l-.91-.08a2.29,2.29,0,0,1,.27-.76,1.89,1.89,0,0,1,.49-.56,2.55,2.55,0,0,1,.66-.33,2.63,2.63,0,0,1,.8-.12,2.77,2.77,0,0,1,.83.13,2.06,2.06,0,0,1,.69.36,1.74,1.74,0,0,1,.47.6A1.84,1.84,0,0,1,97,14a2.25,2.25,0,0,1-.11.76,2.64,2.64,0,0,1-.31.63,4.51,4.51,0,0,1-.44.54c-.16.17-.34.34-.52.5l-2.18,2.05v0h3.61v.78H92.53Z"/><path d="M98,15.74a9.26,9.26,0,0,1,.1-1.25,4.07,4.07,0,0,1,.37-1.18,2.44,2.44,0,0,1,.74-.88,2.22,2.22,0,0,1,2.39,0,2.41,2.41,0,0,1,.73.88,3.79,3.79,0,0,1,.37,1.18,7.88,7.88,0,0,1,.1,1.25,7.79,7.79,0,0,1-.1,1.25,3.77,3.77,0,0,1-.37,1.19,2.41,2.41,0,0,1-.73.88,2.27,2.27,0,0,1-2.39,0,2.44,2.44,0,0,1-.74-.88A4,4,0,0,1,98.07,17,9.14,9.14,0,0,1,98,15.74Zm.84,0c0,.18,0,.37,0,.58s0,.43.08.65a4.15,4.15,0,0,0,.16.63,1.9,1.9,0,0,0,.28.55,1.55,1.55,0,0,0,.42.39,1.16,1.16,0,0,0,.6.14,1.11,1.11,0,0,0,.6-.14,1.45,1.45,0,0,0,.43-.39,1.9,1.9,0,0,0,.28-.55,4.15,4.15,0,0,0,.16-.63,4.78,4.78,0,0,0,.07-.65c0-.21,0-.4,0-.58s0-.36,0-.58a4.81,4.81,0,0,0-.07-.64,4.61,4.61,0,0,0-.16-.64,2,2,0,0,0-.28-.55A1.42,1.42,0,0,0,101,13a1.11,1.11,0,0,0-.6-.15,1.16,1.16,0,0,0-.6.15,1.51,1.51,0,0,0-.42.38,2,2,0,0,0-.28.55,4.61,4.61,0,0,0-.16.64c0,.22-.06.43-.08.64S98.81,15.57,98.81,15.74Z"/><path d="M103.21,12.2h.93l1.61,5.88h0l1.74-5.88h.94l1.73,5.88h0l1.64-5.88h.88l-2.08,7.08h-.91l-1.75-6h0l-1.76,6h-.92Z"/><path d="M116.37,12.2h.84v6.3h3.24v.78h-4.08Z"/><path d="M121.37,12.2h4.45V13h-3.61V15.2h3.37V16h-3.37V18.5H126v.78h-4.63Z"/><path d="M127.17,12.2h2.72a3.89,3.89,0,0,1,.74.08,4,4,0,0,1,.78.26,4.07,4.07,0,0,1,.74.45,3.1,3.1,0,0,1,.62.68,3.19,3.19,0,0,1,.43.91,4.32,4.32,0,0,1,0,2.33,3.19,3.19,0,0,1-.43.91,2.84,2.84,0,0,1-.62.67,3.63,3.63,0,0,1-.74.46,3.37,3.37,0,0,1-.78.25,3.22,3.22,0,0,1-.74.08h-2.72Zm.84,6.3h1.6a3.67,3.67,0,0,0,1.13-.16,2.31,2.31,0,0,0,.9-.49,2.15,2.15,0,0,0,.6-.86,3.11,3.11,0,0,0,.22-1.25,3.17,3.17,0,0,0-.22-1.25,2.19,2.19,0,0,0-.6-.85,2.47,2.47,0,0,0-.9-.5,4,4,0,0,0-1.13-.16H128Z"/><rect class="cls-3" x="54.54" y="42.68" width="189.86" height="189.86"/><circle class="cls-4" cx="149.47" cy="137.56" r="27.05"/><path d="M153,171.66h-.67v-4.8h0l-1,.86-.4-.49,1.52-1.23H153Z"/><path d="M154.83,168.83a5.85,5.85,0,0,1,.08-1,3.19,3.19,0,0,1,.29-1,2,2,0,0,1,.59-.7,1.77,1.77,0,0,1,1.91,0,1.91,1.91,0,0,1,.59.7,3.52,3.52,0,0,1,.3,1,6.29,6.29,0,0,1,0,2,3.52,3.52,0,0,1-.3.95,1.91,1.91,0,0,1-.59.7,1.77,1.77,0,0,1-1.91,0,2,2,0,0,1-.59-.7,3.19,3.19,0,0,1-.29-.95A5.85,5.85,0,0,1,154.83,168.83Zm.67,0c0,.14,0,.29,0,.46a4.6,4.6,0,0,0,.06.52,4.77,4.77,0,0,0,.13.51,1.67,1.67,0,0,0,.23.44,1,1,0,0,0,.34.3.9.9,0,0,0,.48.12,1,1,0,0,0,.48-.12,1.21,1.21,0,0,0,.34-.3,2,2,0,0,0,.22-.44,3.18,3.18,0,0,0,.13-.51,4.6,4.6,0,0,0,.06-.52c0-.17,0-.32,0-.46s0-.29,0-.46a4.35,4.35,0,0,0-.06-.52,3.18,3.18,0,0,0-.13-.51,2,2,0,0,0-.22-.44,1.24,1.24,0,0,0-.34-.31,1.06,1.06,0,0,0-.48-.11,1,1,0,0,0-.48.11,1,1,0,0,0-.34.31,1.67,1.67,0,0,0-.23.44,4.77,4.77,0,0,0-.13.51,4.35,4.35,0,0,0-.06.52C155.5,168.54,155.5,168.69,155.5,168.83Z"/><path d="M159.27,168.83a7.07,7.07,0,0,1,.08-1,3.2,3.2,0,0,1,.3-1,1.91,1.91,0,0,1,.59-.7,1.49,1.49,0,0,1,.95-.28,1.54,1.54,0,0,1,1,.28,2,2,0,0,1,.59.7,3.19,3.19,0,0,1,.29,1,6.29,6.29,0,0,1,0,2,3.19,3.19,0,0,1-.29.95,2,2,0,0,1-.59.7,1.54,1.54,0,0,1-1,.28,1.49,1.49,0,0,1-.95-.28,1.91,1.91,0,0,1-.59-.7,3.2,3.2,0,0,1-.3-.95A7.07,7.07,0,0,1,159.27,168.83Zm.67,0c0,.14,0,.29,0,.46a4.6,4.6,0,0,0,.06.52,3.18,3.18,0,0,0,.13.51,2,2,0,0,0,.22.44,1.21,1.21,0,0,0,.34.3,1,1,0,0,0,.48.12.9.9,0,0,0,.48-.12,1,1,0,0,0,.34-.3,1.67,1.67,0,0,0,.23-.44c0-.17.09-.34.13-.51s0-.35,0-.52a5.3,5.3,0,0,0,0-.92c0-.18,0-.35,0-.52s-.08-.34-.13-.51a1.67,1.67,0,0,0-.23-.44,1,1,0,0,0-.34-.31,1,1,0,0,0-.48-.11,1.06,1.06,0,0,0-.48.11,1.24,1.24,0,0,0-.34.31,2,2,0,0,0-.22.44,3.18,3.18,0,0,0-.13.51,4.35,4.35,0,0,0-.06.52C160,168.54,159.94,168.69,159.94,168.83Z"/><circle class="cls-4" cx="149.47" cy="137.56" r="54.22"/><path d="M150.52,198.06l2.14-2.08.35-.36a3.14,3.14,0,0,0,.25-.32,1,1,0,0,0,.15-.33,1.38,1.38,0,0,0,.05-.37,1,1,0,0,0-.08-.4,1,1,0,0,0-.22-.3,1.09,1.09,0,0,0-.33-.19,1.1,1.1,0,0,0-.41-.07,1,1,0,0,0-.71.25,1.19,1.19,0,0,0-.36.65l-.72-.06a1.53,1.53,0,0,1,.21-.61,1.41,1.41,0,0,1,.39-.45,1.87,1.87,0,0,1,.53-.26,1.91,1.91,0,0,1,.64-.1,2.41,2.41,0,0,1,.67.1,1.67,1.67,0,0,1,.54.3,1.26,1.26,0,0,1,.38.47,1.6,1.6,0,0,1,.14.67,2,2,0,0,1-.09.61,2.13,2.13,0,0,1-.25.5,3.47,3.47,0,0,1-.35.43c-.13.14-.27.27-.41.4l-1.75,1.64v0h2.89v.62h-3.65Z"/><path d="M154.83,196a5.85,5.85,0,0,1,.08-1,3.19,3.19,0,0,1,.29-1,2,2,0,0,1,.59-.7,1.77,1.77,0,0,1,1.91,0,1.91,1.91,0,0,1,.59.7,3.52,3.52,0,0,1,.3,1,6.29,6.29,0,0,1,0,2,3.52,3.52,0,0,1-.3.95,1.91,1.91,0,0,1-.59.7,1.77,1.77,0,0,1-1.91,0,2,2,0,0,1-.59-.7,3.19,3.19,0,0,1-.29-.95A5.85,5.85,0,0,1,154.83,196Zm.67,0c0,.14,0,.29,0,.47a4.43,4.43,0,0,0,.06.51,4.77,4.77,0,0,0,.13.51,1.67,1.67,0,0,0,.23.44,1,1,0,0,0,.34.31,1,1,0,0,0,.48.11,1.06,1.06,0,0,0,.48-.11,1.24,1.24,0,0,0,.34-.31,2,2,0,0,0,.22-.44,3.18,3.18,0,0,0,.13-.51,4.43,4.43,0,0,0,.06-.51c0-.18,0-.33,0-.47s0-.29,0-.46a4.6,4.6,0,0,0-.06-.52,3.18,3.18,0,0,0-.13-.51,2,2,0,0,0-.22-.44,1.24,1.24,0,0,0-.34-.31,1.06,1.06,0,0,0-.48-.11,1,1,0,0,0-.48.11,1,1,0,0,0-.34.31,1.67,1.67,0,0,0-.23.44,4.77,4.77,0,0,0-.13.51,4.6,4.6,0,0,0-.06.52C155.5,195.7,155.5,195.85,155.5,196Z"/><path d="M159.27,196a7.07,7.07,0,0,1,.08-1,3.2,3.2,0,0,1,.3-1,1.91,1.91,0,0,1,.59-.7,1.55,1.55,0,0,1,.95-.28,1.61,1.61,0,0,1,1,.28,2,2,0,0,1,.59.7,3.19,3.19,0,0,1,.29,1,6.29,6.29,0,0,1,0,2,3.19,3.19,0,0,1-.29.95,2,2,0,0,1-.59.7,1.54,1.54,0,0,1-1,.28,1.49,1.49,0,0,1-.95-.28,1.91,1.91,0,0,1-.59-.7,3.2,3.2,0,0,1-.3-.95A7.07,7.07,0,0,1,159.27,196Zm.67,0c0,.14,0,.29,0,.47a4.43,4.43,0,0,0,.06.51,3.18,3.18,0,0,0,.13.51,2,2,0,0,0,.22.44,1.24,1.24,0,0,0,.34.31,1.06,1.06,0,0,0,.48.11,1,1,0,0,0,.48-.11,1,1,0,0,0,.34-.31,1.67,1.67,0,0,0,.23-.44c0-.17.09-.34.13-.51s0-.34,0-.51a4,4,0,0,0,0-.47,3.78,3.78,0,0,0,0-.46c0-.17,0-.35,0-.52s-.08-.34-.13-.51a1.67,1.67,0,0,0-.23-.44,1,1,0,0,0-.34-.31,1,1,0,0,0-.48-.11,1.06,1.06,0,0,0-.48.11,1.24,1.24,0,0,0-.34.31,2,2,0,0,0-.22.44,3.18,3.18,0,0,0-.13.51,4.6,4.6,0,0,0-.06.52C160,195.7,159.94,195.85,159.94,196Z"/><circle class="cls-4" cx="149.47" cy="137.56" r="81.32"/><path d="M151.75,222.67H152a2.25,2.25,0,0,0,.44,0,1.1,1.1,0,0,0,.41-.13.81.81,0,0,0,.31-.3.89.89,0,0,0,.13-.52A.88.88,0,0,0,153,221a1,1,0,0,0-.7-.25,1.12,1.12,0,0,0-.62.16,1,1,0,0,0-.42.47l-.65-.25a1.45,1.45,0,0,1,.66-.72,2.14,2.14,0,0,1,1.63-.14,1.55,1.55,0,0,1,.54.28,1.42,1.42,0,0,1,.37.46,1.44,1.44,0,0,1,.13.64,1.32,1.32,0,0,1-.27.81,1.4,1.4,0,0,1-.7.49h0a1.51,1.51,0,0,1,.49.18,1.41,1.41,0,0,1,.59.74,1.44,1.44,0,0,1,.08.51,1.49,1.49,0,0,1-.56,1.22,1.75,1.75,0,0,1-.59.31,2.46,2.46,0,0,1-.72.11,2.28,2.28,0,0,1-1.13-.28,1.58,1.58,0,0,1-.69-.92l.68-.22a1.21,1.21,0,0,0,.4.65,1.25,1.25,0,0,0,.74.19,1.33,1.33,0,0,0,.45-.08,1.13,1.13,0,0,0,.61-.58,1.13,1.13,0,0,0,.09-.45,1.09,1.09,0,0,0-.12-.53.87.87,0,0,0-.33-.33,1.7,1.7,0,0,0-.46-.18,2.24,2.24,0,0,0-.52-.06h-.21Z"/><path d="M154.83,223.1a5.85,5.85,0,0,1,.08-1,3.19,3.19,0,0,1,.29-.95,2,2,0,0,1,.59-.7,1.77,1.77,0,0,1,1.91,0,1.91,1.91,0,0,1,.59.7,3.52,3.52,0,0,1,.3.95,6.29,6.29,0,0,1,0,2,3.52,3.52,0,0,1-.3,1,1.91,1.91,0,0,1-.59.7,1.77,1.77,0,0,1-1.91,0,2,2,0,0,1-.59-.7,3.19,3.19,0,0,1-.29-1A5.85,5.85,0,0,1,154.83,223.1Zm.67,0c0,.14,0,.29,0,.46a4.6,4.6,0,0,0,.06.52,4.77,4.77,0,0,0,.13.51,1.67,1.67,0,0,0,.23.44,1,1,0,0,0,.34.3.9.9,0,0,0,.48.12,1,1,0,0,0,.48-.12,1.21,1.21,0,0,0,.34-.3,2,2,0,0,0,.22-.44,3.18,3.18,0,0,0,.13-.51,4.6,4.6,0,0,0,.06-.52c0-.17,0-.32,0-.46s0-.29,0-.47a4.43,4.43,0,0,0-.06-.51,3.18,3.18,0,0,0-.13-.51,2,2,0,0,0-.22-.44,1.24,1.24,0,0,0-.34-.31,1.06,1.06,0,0,0-.48-.11,1,1,0,0,0-.48.11,1,1,0,0,0-.34.31,1.67,1.67,0,0,0-.23.44,4.77,4.77,0,0,0-.13.51,4.43,4.43,0,0,0-.06.51C155.5,222.81,155.5,223,155.5,223.1Z"/><path d="M159.27,223.1a7.07,7.07,0,0,1,.08-1,3.2,3.2,0,0,1,.3-.95,1.91,1.91,0,0,1,.59-.7,1.49,1.49,0,0,1,.95-.28,1.54,1.54,0,0,1,1,.28,2,2,0,0,1,.59.7,3.19,3.19,0,0,1,.29.95,6.29,6.29,0,0,1,0,2,3.19,3.19,0,0,1-.29,1,2,2,0,0,1-.59.7,1.61,1.61,0,0,1-1,.28,1.55,1.55,0,0,1-.95-.28,1.91,1.91,0,0,1-.59-.7,3.2,3.2,0,0,1-.3-1A7.07,7.07,0,0,1,159.27,223.1Zm.67,0c0,.14,0,.29,0,.46a4.6,4.6,0,0,0,.06.52,3.18,3.18,0,0,0,.13.51,2,2,0,0,0,.22.44,1.21,1.21,0,0,0,.34.3,1,1,0,0,0,.48.12.9.9,0,0,0,.48-.12,1,1,0,0,0,.34-.3,1.67,1.67,0,0,0,.23-.44c0-.17.09-.34.13-.51s0-.35,0-.52a3.78,3.78,0,0,0,0-.46,4,4,0,0,0,0-.47c0-.17,0-.34,0-.51s-.08-.34-.13-.51a1.67,1.67,0,0,0-.23-.44,1,1,0,0,0-.34-.31,1,1,0,0,0-.48-.11,1.06,1.06,0,0,0-.48.11,1.24,1.24,0,0,0-.34.31,2,2,0,0,0-.22.44,3.18,3.18,0,0,0-.13.51,4.43,4.43,0,0,0-.06.51C160,222.81,159.94,223,159.94,223.1Z"/><line class="cls-4" x1="54.54" y1="137.61" x2="244.46" y2="137.61"/><line class="cls-4" x1="149.47" y1="232.54" x2="149.47" y2="42.63"/><line class="cls-4" x1="94.72" y1="42.63" x2="204.28" y2="232.54"/><line class="cls-4" x1="94.72" y1="232.54" x2="204.28" y2="42.63"/><line class="cls-4" x1="54.54" y1="82.8" x2="244.46" y2="192.37"/><line class="cls-4" x1="54.54" y1="192.37" x2="244.46" y2="82.8"/><line class="cls-5" x1="149.47" y1="231.3" x2="151.09" y2="231.25"/><line class="cls-5" x1="151.09" y1="231.25" x2="152.77" y2="231.19"/><line class="cls-5" x1="152.77" y1="231.19" x2="154.39" y2="231.09"/><line class="cls-5" x1="154.39" y1="231.09" x2="156.01" y2="230.82"/><line class="cls-5" x1="156.01" y1="230.82" x2="157.63" y2="230.55"/><line class="cls-5" x1="157.63" y1="230.55" x2="159.19" y2="230.22"/><line class="cls-5" x1="159.19" y1="230.22" x2="160.81" y2="229.84"/><line class="cls-5" x1="160.81" y1="229.84" x2="162.38" y2="229.41"/><line class="cls-5" x1="162.38" y1="229.41" x2="163.94" y2="228.87"/><line class="cls-5" x1="163.94" y1="228.87" x2="165.46" y2="228.28"/><line class="cls-5" x1="165.46" y1="228.28" x2="167.02" y2="227.74"/><line class="cls-5" x1="167.02" y1="227.74" x2="168.48" y2="226.98"/><line class="cls-5" x1="168.48" y1="226.98" x2="169.94" y2="226.28"/><line class="cls-5" x1="169.94" y1="226.28" x2="171.4" y2="225.52"/><line class="cls-5" x1="171.4" y1="225.52" x2="172.8" y2="224.66"/><line class="cls-5" x1="172.8" y1="224.66" x2="174.2" y2="223.8"/><line class="cls-5" x1="174.2" y1="223.8" x2="175.55" y2="222.82"/><line class="cls-5" x1="175.55" y1="222.82" x2="176.85" y2="221.74"/><line class="cls-5" x1="176.85" y1="221.74" x2="178.09" y2="220.77"/><line class="cls-5" x1="178.09" y1="220.77" x2="179.39" y2="219.69"/><line class="cls-5" x1="179.39" y1="219.69" x2="180.58" y2="218.56"/><line class="cls-5" x1="180.58" y1="218.56" x2="181.71" y2="217.37"/><line class="cls-5" x1="181.71" y1="217.37" x2="182.84" y2="216.13"/><line class="cls-5" x1="182.84" y1="216.13" x2="183.93" y2="214.89"/><line class="cls-5" x1="183.93" y1="214.89" x2="184.95" y2="213.59"/><line class="cls-5" x1="184.95" y1="213.59" x2="185.92" y2="212.35"/><line class="cls-5" x1="185.92" y1="212.35" x2="186.84" y2="210.89"/><line class="cls-5" x1="186.84" y1="210.89" x2="187.7" y2="209.49"/><line class="cls-5" x1="187.7" y1="209.49" x2="188.57" y2="208.08"/><line class="cls-5" x1="188.57" y1="208.08" x2="189.33" y2="206.57"/><line class="cls-5" x1="189.33" y1="206.57" x2="190.03" y2="205.11"/><line class="cls-5" x1="190.03" y1="205.11" x2="190.73" y2="203.6"/><line class="cls-5" x1="190.73" y1="203.6" x2="191.32" y2="202.03"/><line class="cls-5" x1="191.32" y1="202.03" x2="191.86" y2="200.41"/><line class="cls-5" x1="191.86" y1="200.41" x2="192.4" y2="198.9"/><line class="cls-5" x1="192.4" y1="198.9" x2="192.84" y2="197.28"/><line class="cls-5" x1="192.84" y1="197.28" x2="193.21" y2="195.61"/><line class="cls-5" x1="193.21" y1="195.61" x2="193.54" y2="193.99"/><line class="cls-5" x1="193.54" y1="193.99" x2="193.81" y2="192.31"/><line class="cls-5" x1="193.81" y1="192.31" x2="194.08" y2="190.69"/><line class="cls-5" x1="194.08" y1="190.69" x2="194.19" y2="189.02"/><line class="cls-5" x1="194.19" y1="189.02" x2="194.29" y2="187.35"/><line class="cls-5" x1="194.29" y1="187.35" x2="194.35" y2="185.67"/><line class="cls-5" x1="194.35" y1="185.67" x2="194.29" y2="183.94"/><line class="cls-5" x1="194.29" y1="183.94" x2="194.19" y2="182.27"/><line class="cls-5" x1="194.19" y1="182.27" x2="194.08" y2="180.6"/><line class="cls-5" x1="194.08" y1="180.6" x2="193.86" y2="178.92"/><line class="cls-5" x1="193.86" y1="178.92" x2="193.59" y2="177.3"/><line class="cls-5" x1="193.59" y1="177.3" x2="193.27" y2="175.63"/><line class="cls-5" x1="193.27" y1="175.63" x2="192.89" y2="173.95"/><line class="cls-5" x1="192.89" y1="173.95" x2="192.4" y2="172.33"/><line class="cls-5" x1="192.4" y1="172.33" x2="191.92" y2="170.71"/><line class="cls-5" x1="191.92" y1="170.71" x2="191.32" y2="169.09"/><line class="cls-5" x1="191.32" y1="169.09" x2="190.73" y2="167.53"/><line class="cls-5" x1="190.73" y1="167.53" x2="190.08" y2="166.02"/><line class="cls-5" x1="190.08" y1="166.02" x2="189.33" y2="164.45"/><line class="cls-5" x1="189.33" y1="164.45" x2="188.51" y2="162.94"/><line class="cls-5" x1="188.51" y1="162.94" x2="187.7" y2="161.43"/><line class="cls-5" x1="187.7" y1="161.43" x2="186.84" y2="160.02"/><line class="cls-5" x1="186.84" y1="160.02" x2="185.92" y2="158.62"/><line class="cls-5" x1="185.92" y1="158.62" x2="184.95" y2="157.21"/><line class="cls-5" x1="184.95" y1="157.21" x2="183.93" y2="155.86"/><line class="cls-5" x1="183.93" y1="155.86" x2="182.9" y2="154.57"/><line class="cls-5" x1="182.9" y1="154.57" x2="181.87" y2="153.33"/><line class="cls-5" x1="181.87" y1="153.33" x2="180.74" y2="152.14"/><line class="cls-5" x1="180.74" y1="152.14" x2="179.55" y2="150.95"/><line class="cls-5" x1="179.55" y1="150.95" x2="178.42" y2="149.87"/><line class="cls-5" x1="178.42" y1="149.87" x2="177.18" y2="148.74"/><line class="cls-5" x1="177.18" y1="148.74" x2="175.93" y2="147.71"/><line class="cls-5" x1="175.93" y1="147.71" x2="174.58" y2="146.68"/><line class="cls-5" x1="174.58" y1="146.68" x2="173.29" y2="145.77"/><line class="cls-5" x1="173.29" y1="145.77" x2="171.94" y2="144.85"/><line class="cls-5" x1="171.94" y1="144.85" x2="170.48" y2="143.98"/><line class="cls-5" x1="170.48" y1="143.98" x2="169.08" y2="143.17"/><line class="cls-5" x1="169.08" y1="143.17" x2="167.56" y2="142.42"/><line class="cls-5" x1="167.56" y1="142.42" x2="166.1" y2="141.72"/><line class="cls-5" x1="166.1" y1="141.72" x2="164.65" y2="141.07"/><line class="cls-5" x1="164.65" y1="141.07" x2="163.13" y2="140.47"/><line class="cls-5" x1="163.13" y1="140.47" x2="161.62" y2="139.93"/><line class="cls-5" x1="161.62" y1="139.93" x2="160.06" y2="139.39"/><line class="cls-5" x1="160.06" y1="139.39" x2="158.44" y2="138.96"/><line class="cls-5" x1="158.44" y1="138.96" x2="156.87" y2="138.58"/><line class="cls-5" x1="156.87" y1="138.58" x2="155.41" y2="138.26"/><line class="cls-5" x1="155.41" y1="138.26" x2="154.12" y2="138.04"/><line class="cls-5" x1="154.12" y1="138.04" x2="152.93" y2="137.88"/><line class="cls-5" x1="152.93" y1="137.88" x2="151.96" y2="137.72"/><line class="cls-5" x1="151.96" y1="137.72" x2="151.15" y2="137.67"/><line class="cls-5" x1="151.15" y1="137.67" x2="150.5" y2="137.61"/><line class="cls-5" x1="150.5" y1="137.61" x2="150.01" y2="137.61"/><line class="cls-5" x1="150.01" y1="137.61" x2="149.8" y2="137.61"/><line class="cls-5" x1="149.8" y1="137.61" x2="149.47" y2="137.61"/><line class="cls-5" x1="149.47" y1="137.61" x2="149.47" y2="137.61"/><line class="cls-5" x1="149.47" y1="137.61" x2="149.47" y2="137.61"/><line class="cls-5" x1="149.47" y1="137.61" x2="149.47" y2="137.61"/><line class="cls-5" x1="149.47" y1="137.61" x2="149.47" y2="137.61"/><line class="cls-5" x1="149.47" y1="137.61" x2="149.47" y2="137.61"/><line class="cls-5" x1="149.47" y1="137.61" x2="149.47" y2="137.61"/><line class="cls-5" x1="149.47" y1="137.61" x2="149.47" y2="137.61"/><line class="cls-5" x1="149.47" y1="137.61" x2="149.47" y2="137.61"/><line class="cls-5" x1="149.47" y1="137.61" x2="149.47" y2="137.61"/><line class="cls-5" x1="149.47" y1="137.61" x2="149.47" y2="137.61"/><line class="cls-5" x1="149.47" y1="137.61" x2="149.47" y2="137.61"/><line class="cls-5" x1="149.47" y1="137.61" x2="149.47" y2="137.61"/><line class="cls-5" x1="149.47" y1="137.61" x2="149.47" y2="137.61"/><line class="cls-5" x1="149.47" y1="137.61" x2="149.47" y2="137.61"/><line class="cls-5" x1="149.47" y1="137.61" x2="149.47" y2="137.61"/><line class="cls-5" x1="149.47" y1="137.61" x2="149.47" y2="137.61"/><line class="cls-5" x1="149.47" y1="137.61" x2="149.47" y2="137.61"/><line class="cls-5" x1="149.47" y1="137.61" x2="149.47" y2="137.61"/><line class="cls-5" x1="149.47" y1="137.61" x2="149.47" y2="137.61"/><line class="cls-5" x1="149.47" y1="137.61" x2="149.47" y2="137.61"/><line class="cls-5" x1="149.47" y1="137.61" x2="149.47" y2="137.61"/><line class="cls-5" x1="149.47" y1="137.61" x2="149.47" y2="137.61"/><line class="cls-5" x1="149.47" y1="137.61" x2="149.47" y2="137.61"/><line class="cls-5" x1="149.47" y1="137.61" x2="149.47" y2="137.61"/><line class="cls-5" x1="149.47" y1="137.61" x2="149.47" y2="137.61"/><line class="cls-5" x1="149.47" y1="137.61" x2="149.47" y2="137.61"/><line class="cls-5" x1="149.47" y1="137.61" x2="149.47" y2="137.61"/><line class="cls-5" x1="149.47" y1="137.61" x2="149.47" y2="137.61"/><line class="cls-5" x1="149.47" y1="137.61" x2="149.47" y2="137.61"/><line class="cls-5" x1="149.47" y1="137.61" x2="149.47" y2="137.61"/><line class="cls-5" x1="149.47" y1="137.61" x2="149.47" y2="137.61"/><line class="cls-5" x1="149.47" y1="137.61" x2="149.47" y2="137.61"/><line class="cls-5" x1="149.47" y1="137.61" x2="149.47" y2="137.61"/><line class="cls-5" x1="149.47" y1="137.61" x2="149.47" y2="137.61"/><line class="cls-5" x1="149.47" y1="137.61" x2="149.47" y2="137.61"/><line class="cls-5" x1="149.47" y1="137.61" x2="149.47" y2="137.61"/><line class="cls-5" x1="149.47" y1="137.61" x2="149.47" y2="137.61"/><line class="cls-5" x1="149.47" y1="137.61" x2="149.47" y2="137.61"/><line class="cls-5" x1="149.47" y1="137.61" x2="149.47" y2="137.61"/><line class="cls-5" x1="149.47" y1="137.61" x2="149.47" y2="137.61"/><line class="cls-5" x1="149.47" y1="137.61" x2="149.47" y2="137.61"/><line class="cls-5" x1="149.47" y1="137.61" x2="149.47" y2="137.61"/><line class="cls-5" x1="149.47" y1="137.61" x2="149.47" y2="137.61"/><line class="cls-5" x1="149.47" y1="137.61" x2="149.47" y2="137.61"/><line class="cls-5" x1="149.47" y1="137.61" x2="149.47" y2="137.61"/><line class="cls-5" x1="149.47" y1="137.61" x2="149.47" y2="137.61"/><line class="cls-5" x1="149.47" y1="137.61" x2="149.47" y2="137.61"/><line class="cls-5" x1="149.47" y1="137.61" x2="149.47" y2="137.61"/><line class="cls-5" x1="149.47" y1="137.61" x2="149.47" y2="137.61"/><line class="cls-5" x1="149.47" y1="137.61" x2="149.47" y2="137.61"/><line class="cls-5" x1="149.47" y1="137.61" x2="149.47" y2="137.61"/><line class="cls-5" x1="149.47" y1="137.61" x2="149.47" y2="137.61"/><line class="cls-5" x1="149.47" y1="137.61" x2="149.47" y2="137.61"/><line class="cls-5" x1="149.47" y1="137.61" x2="149.47" y2="137.61"/><line class="cls-5" x1="149.47" y1="137.61" x2="149.47" y2="137.61"/><line class="cls-5" x1="149.47" y1="137.61" x2="149.47" y2="137.61"/><line class="cls-5" x1="149.47" y1="137.61" x2="149.47" y2="137.61"/><line class="cls-5" x1="149.47" y1="137.61" x2="149.47" y2="137.61"/><line class="cls-5" x1="149.47" y1="137.61" x2="149.47" y2="137.61"/><line class="cls-5" x1="149.47" y1="137.61" x2="149.47" y2="137.61"/><line class="cls-5" x1="149.47" y1="137.61" x2="149.47" y2="137.61"/><line class="cls-5" x1="149.47" y1="137.61" x2="149.47" y2="137.61"/><line class="cls-5" x1="149.47" y1="137.61" x2="149.47" y2="137.61"/><line class="cls-5" x1="149.47" y1="137.61" x2="149.47" y2="137.61"/><line class="cls-5" x1="149.47" y1="137.61" x2="149.47" y2="137.61"/><line class="cls-5" x1="149.47" y1="137.61" x2="149.47" y2="137.61"/><line class="cls-5" x1="149.47" y1="137.61" x2="149.47" y2="137.61"/><line class="cls-5" x1="149.47" y1="137.61" x2="149.47" y2="137.61"/><line class="cls-5" x1="149.47" y1="137.61" x2="149.47" y2="137.61"/><line class="cls-5" x1="149.47" y1="137.61" x2="149.47" y2="137.61"/><line class="cls-5" x1="149.47" y1="137.61" x2="149.47" y2="137.61"/><line class="cls-5" x1="149.47" y1="137.61" x2="149.47" y2="137.61"/><line class="cls-5" x1="149.47" y1="137.61" x2="149.47" y2="137.61"/><line class="cls-5" x1="149.47" y1="137.61" x2="149.47" y2="137.61"/><line class="cls-5" x1="149.47" y1="137.61" x2="149.47" y2="137.61"/><line class="cls-5" x1="149.47" y1="137.61" x2="149.47" y2="137.61"/><line class="cls-5" x1="149.47" y1="137.61" x2="149.47" y2="137.61"/><line class="cls-5" x1="149.47" y1="137.61" x2="149.47" y2="137.61"/><line class="cls-5" x1="149.47" y1="137.61" x2="149.47" y2="137.61"/><line class="cls-5" x1="149.47" y1="137.61" x2="149.47" y2="137.61"/><line class="cls-5" x1="149.47" y1="137.61" x2="149.47" y2="137.61"/><line class="cls-5" x1="149.47" y1="137.61" x2="149.47" y2="137.61"/><line class="cls-5" x1="149.47" y1="137.61" x2="149.47" y2="137.61"/><line class="cls-5" x1="149.47" y1="137.61" x2="149.47" y2="137.61"/><line class="cls-5" x1="149.47" y1="137.61" x2="149.47" y2="137.61"/><line class="cls-5" x1="149.47" y1="137.61" x2="149.47" y2="137.61"/><line class="cls-5" x1="149.47" y1="137.61" x2="149.47" y2="137.61"/><line class="cls-5" x1="149.47" y1="137.61" x2="149.47" y2="137.61"/><line class="cls-5" x1="149.47" y1="137.61" x2="149.47" y2="137.61"/><line class="cls-5" x1="149.47" y1="231.3" x2="147.91" y2="231.25"/><line class="cls-5" x1="147.91" y1="231.25" x2="146.23" y2="231.19"/><line class="cls-5" x1="146.23" y1="231.19" x2="144.61" y2="231.09"/><line class="cls-5" x1="144.61" y1="231.09" x2="142.99" y2="230.82"/><line class="cls-5" x1="142.99" y1="230.82" x2="141.37" y2="230.55"/><line class="cls-5" x1="141.37" y1="230.55" x2="139.81" y2="230.22"/><line class="cls-5" x1="139.81" y1="230.22" x2="138.19" y2="229.84"/><line class="cls-5" x1="138.19" y1="229.84" x2="136.62" y2="229.41"/><line class="cls-5" x1="136.62" y1="229.41" x2="135.05" y2="228.87"/><line class="cls-5" x1="135.05" y1="228.87" x2="133.54" y2="228.28"/><line class="cls-5" x1="133.54" y1="228.28" x2="131.98" y2="227.74"/><line class="cls-5" x1="131.98" y1="227.74" x2="130.52" y2="226.98"/><line class="cls-5" x1="130.52" y1="226.98" x2="129.06" y2="226.28"/><line class="cls-5" x1="129.06" y1="226.28" x2="127.6" y2="225.52"/><line class="cls-5" x1="127.6" y1="225.52" x2="126.2" y2="224.66"/><line class="cls-5" x1="126.2" y1="224.66" x2="124.8" y2="223.8"/><line class="cls-5" x1="124.8" y1="223.8" x2="123.45" y2="222.82"/><line class="cls-5" x1="123.45" y1="222.82" x2="122.15" y2="221.74"/><line class="cls-5" x1="122.15" y1="221.74" x2="120.91" y2="220.77"/><line class="cls-5" x1="120.91" y1="220.77" x2="119.61" y2="219.69"/><line class="cls-5" x1="119.61" y1="219.69" x2="118.42" y2="218.56"/><line class="cls-5" x1="118.42" y1="218.56" x2="117.29" y2="217.37"/><line class="cls-5" x1="117.29" y1="217.37" x2="116.15" y2="216.13"/><line class="cls-5" x1="116.15" y1="216.13" x2="115.08" y2="214.89"/><line class="cls-5" x1="115.08" y1="214.89" x2="114.05" y2="213.59"/><line class="cls-5" x1="114.05" y1="213.59" x2="113.08" y2="212.35"/><line class="cls-5" x1="113.08" y1="212.35" x2="112.16" y2="210.89"/><line class="cls-5" x1="112.16" y1="210.89" x2="111.3" y2="209.49"/><line class="cls-5" x1="111.3" y1="209.49" x2="110.43" y2="208.08"/><line class="cls-5" x1="110.43" y1="208.08" x2="109.68" y2="206.57"/><line class="cls-5" x1="109.68" y1="206.57" x2="108.97" y2="205.11"/><line class="cls-5" x1="108.97" y1="205.11" x2="108.27" y2="203.6"/><line class="cls-5" x1="108.27" y1="203.6" x2="107.68" y2="202.03"/><line class="cls-5" x1="107.68" y1="202.03" x2="107.14" y2="200.41"/><line class="cls-5" x1="107.14" y1="200.41" x2="106.6" y2="198.9"/><line class="cls-5" x1="106.6" y1="198.9" x2="106.17" y2="197.28"/><line class="cls-5" x1="106.17" y1="197.28" x2="105.79" y2="195.61"/><line class="cls-5" x1="105.79" y1="195.61" x2="105.46" y2="193.99"/><line class="cls-5" x1="105.46" y1="193.99" x2="105.19" y2="192.31"/><line class="cls-5" x1="105.19" y1="192.31" x2="104.92" y2="190.69"/><line class="cls-5" x1="104.92" y1="190.69" x2="104.82" y2="189.02"/><line class="cls-5" x1="104.82" y1="189.02" x2="104.71" y2="187.35"/><line class="cls-5" x1="104.71" y1="187.35" x2="104.65" y2="185.67"/><line class="cls-5" x1="104.65" y1="185.67" x2="104.71" y2="183.94"/><line class="cls-5" x1="104.71" y1="183.94" x2="104.82" y2="182.27"/><line class="cls-5" x1="104.82" y1="182.27" x2="104.92" y2="180.6"/><line class="cls-5" x1="104.92" y1="180.6" x2="105.14" y2="178.92"/><line class="cls-5" x1="105.14" y1="178.92" x2="105.41" y2="177.3"/><line class="cls-5" x1="105.41" y1="177.3" x2="105.73" y2="175.63"/><line class="cls-5" x1="105.73" y1="175.63" x2="106.11" y2="173.95"/><line class="cls-5" x1="106.11" y1="173.95" x2="106.6" y2="172.33"/><line class="cls-5" x1="106.6" y1="172.33" x2="107.08" y2="170.71"/><line class="cls-5" x1="107.08" y1="170.71" x2="107.68" y2="169.09"/><line class="cls-5" x1="107.68" y1="169.09" x2="108.27" y2="167.53"/><line class="cls-5" x1="108.27" y1="167.53" x2="108.92" y2="166.02"/><line class="cls-5" x1="108.92" y1="166.02" x2="109.68" y2="164.45"/><line class="cls-5" x1="109.68" y1="164.45" x2="110.48" y2="162.94"/><line class="cls-5" x1="110.48" y1="162.94" x2="111.3" y2="161.43"/><line class="cls-5" x1="111.3" y1="161.43" x2="112.16" y2="160.02"/><line class="cls-5" x1="112.16" y1="160.02" x2="113.08" y2="158.62"/><line class="cls-5" x1="113.08" y1="158.62" x2="114.05" y2="157.21"/><line class="cls-5" x1="114.05" y1="157.21" x2="115.08" y2="155.86"/><line class="cls-5" x1="115.08" y1="155.86" x2="116.1" y2="154.57"/><line class="cls-5" x1="116.1" y1="154.57" x2="117.13" y2="153.33"/><line class="cls-5" x1="117.13" y1="153.33" x2="118.26" y2="152.14"/><line class="cls-5" x1="118.26" y1="152.14" x2="119.45" y2="150.95"/><line class="cls-5" x1="119.45" y1="150.95" x2="120.58" y2="149.87"/><line class="cls-5" x1="120.58" y1="149.87" x2="121.83" y2="148.74"/><line class="cls-5" x1="121.83" y1="148.74" x2="123.07" y2="147.71"/><line class="cls-5" x1="123.07" y1="147.71" x2="124.42" y2="146.68"/><line class="cls-5" x1="124.42" y1="146.68" x2="125.71" y2="145.77"/><line class="cls-5" x1="125.71" y1="145.77" x2="127.06" y2="144.85"/><line class="cls-5" x1="127.06" y1="144.85" x2="128.52" y2="143.98"/><line class="cls-5" x1="128.52" y1="143.98" x2="129.93" y2="143.17"/><line class="cls-5" x1="129.93" y1="143.17" x2="131.44" y2="142.42"/><line class="cls-5" x1="131.44" y1="142.42" x2="132.89" y2="141.72"/><line class="cls-5" x1="132.89" y1="141.72" x2="134.35" y2="141.07"/><line class="cls-5" x1="134.35" y1="141.07" x2="135.86" y2="140.47"/><line class="cls-5" x1="135.86" y1="140.47" x2="137.38" y2="139.93"/><line class="cls-5" x1="137.38" y1="139.93" x2="138.94" y2="139.39"/><line class="cls-5" x1="138.94" y1="139.39" x2="140.56" y2="138.96"/><line class="cls-5" x1="140.56" y1="138.96" x2="142.13" y2="138.58"/><line class="cls-5" x1="142.13" y1="138.58" x2="143.59" y2="138.26"/><line class="cls-5" x1="143.59" y1="138.26" x2="144.88" y2="138.04"/><line class="cls-5" x1="144.88" y1="138.04" x2="146.07" y2="137.88"/><line class="cls-5" x1="146.07" y1="137.88" x2="147.04" y2="137.72"/><line class="cls-5" x1="147.04" y1="137.72" x2="147.85" y2="137.67"/><line class="cls-5" x1="147.85" y1="137.67" x2="148.5" y2="137.61"/><line class="cls-5" x1="148.5" y1="137.61" x2="148.99" y2="137.61"/><line class="cls-5" x1="148.99" y1="137.61" x2="149.2" y2="137.61"/><line class="cls-5" x1="149.2" y1="137.61" x2="149.47" y2="137.61"/><line class="cls-5" x1="149.47" y1="137.61" x2="149.47" y2="137.61"/><line class="cls-5" x1="149.47" y1="137.61" x2="149.47" y2="137.61"/><line class="cls-5" x1="149.47" y1="137.61" x2="149.47" y2="137.61"/><line class="cls-5" x1="149.47" y1="137.61" x2="149.47" y2="137.61"/><line class="cls-5" x1="149.47" y1="137.61" x2="149.47" y2="137.61"/><line class="cls-5" x1="149.47" y1="137.61" x2="149.47" y2="137.61"/><line class="cls-5" x1="149.47" y1="137.61" x2="149.47" y2="137.61"/><line class="cls-5" x1="149.47" y1="137.61" x2="149.47" y2="137.61"/><line class="cls-5" x1="149.47" y1="137.61" x2="149.47" y2="137.61"/><line class="cls-5" x1="149.47" y1="137.61" x2="149.47" y2="137.61"/><line class="cls-5" x1="149.47" y1="137.61" x2="149.47" y2="137.61"/><line class="cls-5" x1="149.47" y1="137.61" x2="149.47" y2="137.61"/><line class="cls-5" x1="149.47" y1="137.61" x2="149.47" y2="137.61"/><line class="cls-5" x1="149.47" y1="137.61" x2="149.47" y2="137.61"/><line class="cls-5" x1="149.47" y1="137.61" x2="149.47" y2="137.61"/><line class="cls-5" x1="149.47" y1="137.61" x2="149.47" y2="137.61"/><line class="cls-5" x1="149.47" y1="137.61" x2="149.47" y2="137.61"/><line class="cls-5" x1="149.47" y1="137.61" x2="149.47" y2="137.61"/><line class="cls-5" x1="149.47" y1="137.61" x2="149.47" y2="137.61"/><line class="cls-5" x1="149.47" y1="137.61" x2="149.47" y2="137.61"/><line class="cls-5" x1="149.47" y1="137.61" x2="149.47" y2="137.61"/><line class="cls-5" x1="149.47" y1="137.61" x2="149.47" y2="137.61"/><line class="cls-5" x1="149.47" y1="137.61" x2="149.47" y2="137.61"/><line class="cls-5" x1="149.47" y1="137.61" x2="149.47" y2="137.61"/><line class="cls-5" x1="149.47" y1="137.61" x2="149.47" y2="137.61"/><line class="cls-5" x1="149.47" y1="137.61" x2="149.47" y2="137.61"/><line class="cls-5" x1="149.47" y1="137.61" x2="149.47" y2="137.61"/><line class="cls-5" x1="149.47" y1="137.61" x2="149.47" y2="137.61"/><line class="cls-5" x1="149.47" y1="137.61" x2="149.47" y2="137.61"/><line class="cls-5" x1="149.47" y1="137.61" x2="149.47" y2="137.61"/><line class="cls-5" x1="149.47" y1="137.61" x2="149.47" y2="137.61"/><line class="cls-5" x1="149.47" y1="137.61" x2="149.47" y2="137.61"/><line class="cls-5" x1="149.47" y1="137.61" x2="149.47" y2="137.61"/><line class="cls-5" x1="149.47" y1="137.61" x2="149.47" y2="137.61"/><line class="cls-5" x1="149.47" y1="137.61" x2="149.47" y2="137.61"/><line class="cls-5" x1="149.47" y1="137.61" x2="149.47" y2="137.61"/><line class="cls-5" x1="149.47" y1="137.61" x2="149.47" y2="137.61"/><line class="cls-5" x1="149.47" y1="137.61" x2="149.47" y2="137.61"/><line class="cls-5" x1="149.47" y1="137.61" x2="149.47" y2="137.61"/><line class="cls-5" x1="149.47" y1="137.61" x2="149.47" y2="137.61"/><line class="cls-5" x1="149.47" y1="137.61" x2="149.47" y2="137.61"/><line class="cls-5" x1="149.47" y1="137.61" x2="149.47" y2="137.61"/><line class="cls-5" x1="149.47" y1="137.61" x2="149.47" y2="137.61"/><line class="cls-5" x1="149.47" y1="137.61" x2="149.47" y2="137.61"/><line class="cls-5" x1="149.47" y1="137.61" x2="149.47" y2="137.61"/><line class="cls-5" x1="149.47" y1="137.61" x2="149.47" y2="137.61"/><line class="cls-5" x1="149.47" y1="137.61" x2="149.47" y2="137.61"/><line class="cls-5" x1="149.47" y1="137.61" x2="149.47" y2="137.61"/><line class="cls-5" x1="149.47" y1="137.61" x2="149.47" y2="137.61"/><line class="cls-5" x1="149.47" y1="137.61" x2="149.47" y2="137.61"/><line class="cls-5" x1="149.47" y1="137.61" x2="149.47" y2="137.61"/><line class="cls-5" x1="149.47" y1="137.61" x2="149.47" y2="137.61"/><line class="cls-5" x1="149.47" y1="137.61" x2="149.47" y2="137.61"/><line class="cls-5" x1="149.47" y1="137.61" x2="149.47" y2="137.61"/><line class="cls-5" x1="149.47" y1="137.61" x2="149.47" y2="137.61"/><line class="cls-5" x1="149.47" y1="137.61" x2="149.47" y2="137.61"/><line class="cls-5" x1="149.47" y1="137.61" x2="149.47" y2="137.61"/><line class="cls-5" x1="149.47" y1="137.61" x2="149.47" y2="137.61"/><line class="cls-5" x1="149.47" y1="137.61" x2="149.47" y2="137.61"/><line class="cls-5" x1="149.47" y1="137.61" x2="149.47" y2="137.61"/><line class="cls-5" x1="149.47" y1="137.61" x2="149.47" y2="137.61"/><line class="cls-5" x1="149.47" y1="137.61" x2="149.47" y2="137.61"/><line class="cls-5" x1="149.47" y1="137.61" x2="149.47" y2="137.61"/><line class="cls-5" x1="149.47" y1="137.61" x2="149.47" y2="137.61"/><line class="cls-5" x1="149.47" y1="137.61" x2="149.47" y2="137.61"/><line class="cls-5" x1="149.47" y1="137.61" x2="149.47" y2="137.61"/><line class="cls-5" x1="149.47" y1="137.61" x2="149.47" y2="137.61"/><line class="cls-5" x1="149.47" y1="137.61" x2="149.47" y2="137.61"/><line class="cls-5" x1="149.47" y1="137.61" x2="149.47" y2="137.61"/><line class="cls-5" x1="149.47" y1="137.61" x2="149.47" y2="137.61"/><line class="cls-5" x1="149.47" y1="137.61" x2="149.47" y2="137.61"/><line class="cls-5" x1="149.47" y1="137.61" x2="149.47" y2="137.61"/><line class="cls-5" x1="149.47" y1="137.61" x2="149.47" y2="137.61"/><line class="cls-5" x1="149.47" y1="137.61" x2="149.47" y2="137.61"/><line class="cls-5" x1="149.47" y1="137.61" x2="149.47" y2="137.61"/><line class="cls-5" x1="149.47" y1="137.61" x2="149.47" y2="137.61"/><line class="cls-5" x1="149.47" y1="137.61" x2="149.47" y2="137.61"/><line class="cls-5" x1="149.47" y1="137.61" x2="149.47" y2="137.61"/><line class="cls-5" x1="149.47" y1="137.61" x2="149.47" y2="137.61"/><line class="cls-5" x1="149.47" y1="137.61" x2="149.47" y2="137.61"/><line class="cls-5" x1="149.47" y1="137.61" x2="149.47" y2="137.61"/><line class="cls-5" x1="149.47" y1="137.61" x2="149.47" y2="137.61"/><line class="cls-5" x1="149.47" y1="137.61" x2="149.47" y2="137.61"/><line class="cls-5" x1="149.47" y1="137.61" x2="149.47" y2="137.61"/><line class="cls-5" x1="149.47" y1="137.61" x2="149.47" y2="137.61"/><line class="cls-5" x1="149.47" y1="137.61" x2="149.47" y2="137.61"/><line class="cls-5" x1="149.47" y1="137.61" x2="149.47" y2="137.61"/><line class="cls-5" x1="149.47" y1="137.61" x2="149.47" y2="137.61"/><line class="cls-5" x1="149.47" y1="137.61" x2="149.47" y2="137.61"/><line class="cls-5" x1="149.47" y1="231.3" x2="149.74" y2="231.3"/><line class="cls-5" x1="151.04" y1="231.25" x2="151.09" y2="231.25"/><line class="cls-5" x1="151.09" y1="231.25" x2="151.31" y2="231.25"/><line class="cls-5" x1="152.6" y1="231.19" x2="152.77" y2="231.19"/><line class="cls-5" x1="152.77" y1="231.19" x2="152.88" y2="231.19"/><line class="cls-5" x1="154.17" y1="231.09" x2="154.39" y2="231.09"/><line class="cls-5" x1="154.39" y1="231.09" x2="154.44" y2="231.09"/><line class="cls-5" x1="155.68" y1="230.87" x2="155.9" y2="230.82"/><line class="cls-5" x1="157.19" y1="230.6" x2="157.46" y2="230.55"/><line class="cls-5" x1="158.71" y1="230.33" x2="158.92" y2="230.28"/><line class="cls-5" x1="160.16" y1="230.01" x2="160.38" y2="229.95"/><line class="cls-5" x1="161.62" y1="229.63" x2="161.84" y2="229.57"/><line class="cls-5" x1="163.03" y1="229.2" x2="163.24" y2="229.09"/><line class="cls-5" x1="164.43" y1="228.66" x2="164.65" y2="228.6"/><line class="cls-5" x1="165.83" y1="228.17" x2="166.05" y2="228.06"/><line class="cls-5" x1="167.24" y1="227.63" x2="167.45" y2="227.52"/><line class="cls-5" x1="168.59" y1="226.93" x2="168.8" y2="226.82"/><line class="cls-5" x1="169.94" y1="226.28" x2="169.94" y2="226.28"/><line class="cls-5" x1="169.94" y1="226.28" x2="170.15" y2="226.17"/><line class="cls-5" x1="171.29" y1="225.58" x2="171.4" y2="225.52"/><line class="cls-5" x1="171.4" y1="225.52" x2="171.5" y2="225.47"/><line class="cls-5" x1="172.58" y1="224.77" x2="172.8" y2="224.66"/><line class="cls-5" x1="173.88" y1="224.01" x2="174.1" y2="223.85"/><line class="cls-5" x1="175.18" y1="223.09" x2="175.39" y2="222.93"/><line class="cls-5" x1="176.42" y1="222.12" x2="176.58" y2="221.96"/><line class="cls-5" x1="177.61" y1="221.15" x2="177.82" y2="220.99"/><line class="cls-5" x1="178.85" y1="220.12" x2="179.06" y2="219.96"/><line class="cls-5" x1="180.04" y1="219.1" x2="180.2" y2="218.94"/><line class="cls-5" x1="181.12" y1="218.02" x2="181.28" y2="217.8"/><line class="cls-5" x1="182.2" y1="216.83" x2="182.36" y2="216.67"/><line class="cls-5" x1="183.22" y1="215.7" x2="183.38" y2="215.53"/><line class="cls-5" x1="184.25" y1="214.51" x2="184.41" y2="214.29"/><line class="cls-5" x1="185.22" y1="213.27" x2="185.38" y2="213.05"/><line class="cls-5" x1="186.14" y1="212.02" x2="186.25" y2="211.81"/><line class="cls-5" x1="186.95" y1="210.73" x2="187.06" y2="210.51"/><line class="cls-5" x1="187.76" y1="209.43" x2="187.87" y2="209.22"/><line class="cls-5" x1="188.51" y1="208.14" x2="188.57" y2="208.08"/><line class="cls-5" x1="188.57" y1="208.08" x2="188.68" y2="207.92"/><line class="cls-5" x1="189.22" y1="206.79" x2="189.33" y2="206.57"/><line class="cls-5" x1="189.86" y1="205.44" x2="189.97" y2="205.22"/><line class="cls-5" x1="190.51" y1="204.09" x2="190.62" y2="203.87"/><line class="cls-5" x1="191.05" y1="202.68" x2="191.16" y2="202.47"/><line class="cls-5" x1="191.59" y1="201.28" x2="191.65" y2="201.06"/><line class="cls-5" x1="192.08" y1="199.87" x2="192.13" y2="199.66"/><line class="cls-5" x1="192.51" y1="198.47" x2="192.56" y2="198.25"/><line class="cls-5" x1="192.89" y1="197.01" x2="192.94" y2="196.8"/><line class="cls-5" x1="193.21" y1="195.55" x2="193.27" y2="195.34"/><line class="cls-5" x1="193.54" y1="194.1" x2="193.54" y2="193.99"/><line class="cls-5" x1="193.54" y1="193.99" x2="193.54" y2="193.83"/><line class="cls-5" x1="193.75" y1="192.58" x2="193.81" y2="192.37"/><line class="cls-5" x1="194.02" y1="191.13" x2="194.08" y2="190.86"/><line class="cls-5" x1="194.13" y1="189.56" x2="194.19" y2="189.34"/><line class="cls-5" x1="194.24" y1="188.05" x2="194.24" y2="187.78"/><line class="cls-5" x1="194.35" y1="186.48" x2="194.35" y2="186.21"/><line class="cls-5" x1="194.35" y1="184.86" x2="194.29" y2="184.65"/><line class="cls-5" x1="194.24" y1="183.35" x2="194.24" y2="183.08"/><line class="cls-5" x1="194.13" y1="181.78" x2="194.13" y2="181.51"/><line class="cls-5" x1="194.02" y1="180.22" x2="193.97" y2="179.95"/><line class="cls-5" x1="193.81" y1="178.65" x2="193.75" y2="178.44"/><line class="cls-5" x1="193.54" y1="177.14" x2="193.48" y2="176.87"/><line class="cls-5" x1="193.27" y1="175.63" x2="193.27" y2="175.63"/><line class="cls-5" x1="193.27" y1="175.63" x2="193.21" y2="175.41"/><line class="cls-5" x1="192.94" y1="174.17" x2="192.89" y2="173.95"/><line class="cls-5" x1="192.51" y1="172.77" x2="192.46" y2="172.55"/><line class="cls-5" x1="192.08" y1="171.31" x2="192.03" y2="171.09"/><line class="cls-5" x1="191.59" y1="169.9" x2="191.54" y2="169.69"/><line class="cls-5" x1="191.11" y1="168.5" x2="191" y2="168.28"/><line class="cls-5" x1="190.57" y1="167.1" x2="190.46" y2="166.88"/><line class="cls-5" x1="189.97" y1="165.75" x2="189.86" y2="165.53"/><line class="cls-5" x1="189.27" y1="164.4" x2="189.16" y2="164.18"/><line class="cls-5" x1="188.57" y1="163.05" x2="188.51" y2="162.94"/><line class="cls-5" x1="188.51" y1="162.94" x2="188.46" y2="162.83"/><line class="cls-5" x1="187.87" y1="161.7" x2="187.76" y2="161.48"/><line class="cls-5" x1="187.06" y1="160.4" x2="186.95" y2="160.18"/><line class="cls-5" x1="186.25" y1="159.1" x2="186.08" y2="158.89"/><line class="cls-5" x1="185.38" y1="157.81" x2="185.22" y2="157.59"/><line class="cls-5" x1="184.46" y1="156.57" x2="184.3" y2="156.35"/><line class="cls-5" x1="183.49" y1="155.32" x2="183.33" y2="155.11"/><line class="cls-5" x1="182.52" y1="154.08" x2="182.36" y2="153.92"/><line class="cls-5" x1="181.49" y1="152.95" x2="181.33" y2="152.79"/><line class="cls-5" x1="180.41" y1="151.81" x2="180.25" y2="151.65"/><line class="cls-5" x1="179.33" y1="150.73" x2="179.17" y2="150.57"/><line class="cls-5" x1="178.2" y1="149.65" x2="177.98" y2="149.49"/><line class="cls-5" x1="177.01" y1="148.63" x2="176.85" y2="148.47"/><line class="cls-5" x1="175.83" y1="147.6" x2="175.61" y2="147.44"/><line class="cls-5" x1="174.58" y1="146.68" x2="174.58" y2="146.68"/><line class="cls-5" x1="174.58" y1="146.68" x2="174.37" y2="146.52"/><line class="cls-5" x1="173.29" y1="145.77" x2="173.29" y2="145.77"/><line class="cls-5" x1="173.29" y1="145.77" x2="173.07" y2="145.6"/><line class="cls-5" x1="171.99" y1="144.9" x2="171.94" y2="144.85"/><line class="cls-5" x1="171.94" y1="144.85" x2="171.78" y2="144.74"/><line class="cls-5" x1="170.69" y1="144.09" x2="170.48" y2="143.98"/><line class="cls-5" x1="169.4" y1="143.34" x2="169.18" y2="143.23"/><line class="cls-5" x1="168.05" y1="142.63" x2="167.83" y2="142.53"/><line class="cls-5" x1="166.7" y1="141.99" x2="166.48" y2="141.88"/><line class="cls-5" x1="165.35" y1="141.39" x2="165.13" y2="141.28"/><line class="cls-5" x1="163.94" y1="140.8" x2="163.73" y2="140.69"/><line class="cls-5" x1="162.54" y1="140.26" x2="162.33" y2="140.2"/><line class="cls-5" x1="161.14" y1="139.77" x2="160.92" y2="139.72"/><line class="cls-5" x1="159.73" y1="139.29" x2="159.52" y2="139.23"/><line class="cls-5" x1="158.28" y1="138.91" x2="158.06" y2="138.85"/><line class="cls-5" x1="156.82" y1="138.58" x2="156.6" y2="138.53"/><line class="cls-5" x1="155.36" y1="138.26" x2="155.14" y2="138.21"/><line class="cls-5" x1="153.9" y1="137.99" x2="153.63" y2="137.99"/><line class="cls-5" x1="152.39" y1="137.77" x2="152.12" y2="137.72"/><line class="cls-5" x1="150.82" y1="137.61" x2="150.55" y2="137.61"/><line class="cls-5" x1="149.2" y1="231.3" x2="148.93" y2="231.3"/><line class="cls-5" x1="147.64" y1="231.25" x2="147.37" y2="231.25"/><line class="cls-5" x1="146.07" y1="231.19" x2="145.8" y2="231.14"/><line class="cls-5" x1="144.5" y1="231.09" x2="144.29" y2="231.03"/><line class="cls-5" x1="143.05" y1="230.82" x2="142.99" y2="230.82"/><line class="cls-5" x1="142.99" y1="230.82" x2="142.83" y2="230.76"/><line class="cls-5" x1="141.53" y1="230.55" x2="141.37" y2="230.55"/><line class="cls-5" x1="141.37" y1="230.55" x2="141.26" y2="230.55"/><line class="cls-5" x1="140.02" y1="230.28" x2="139.81" y2="230.22"/><line class="cls-5" x1="138.56" y1="229.95" x2="138.35" y2="229.9"/><line class="cls-5" x1="137.11" y1="229.52" x2="136.89" y2="229.47"/><line class="cls-5" x1="135.65" y1="229.09" x2="135.43" y2="228.98"/><line class="cls-5" x1="134.24" y1="228.55" x2="134.03" y2="228.49"/><line class="cls-5" x1="132.84" y1="228.06" x2="132.63" y2="227.95"/><line class="cls-5" x1="131.44" y1="227.47" x2="131.22" y2="227.36"/><line class="cls-5" x1="130.09" y1="226.77" x2="129.87" y2="226.66"/><line class="cls-5" x1="128.74" y1="226.12" x2="128.52" y2="226.01"/><line class="cls-5" x1="127.39" y1="225.42" x2="127.17" y2="225.25"/><line class="cls-5" x1="126.09" y1="224.61" x2="125.88" y2="224.44"/><line class="cls-5" x1="124.8" y1="223.8" x2="124.8" y2="223.8"/><line class="cls-5" x1="124.8" y1="223.8" x2="124.58" y2="223.63"/><line class="cls-5" x1="123.55" y1="222.88" x2="123.45" y2="222.82"/><line class="cls-5" x1="123.45" y1="222.82" x2="123.34" y2="222.72"/><line class="cls-5" x1="122.31" y1="221.85" x2="122.15" y2="221.74"/><line class="cls-5" x1="122.15" y1="221.74" x2="122.1" y2="221.69"/><line class="cls-5" x1="121.07" y1="220.88" x2="120.91" y2="220.77"/><line class="cls-5" x1="120.91" y1="220.77" x2="120.85" y2="220.72"/><line class="cls-5" x1="119.83" y1="219.85" x2="119.61" y2="219.69"/><line class="cls-5" x1="118.64" y1="218.77" x2="118.48" y2="218.61"/><line class="cls-5" x1="117.56" y1="217.64" x2="117.4" y2="217.48"/><line class="cls-5" x1="116.48" y1="216.51" x2="116.32" y2="216.29"/><line class="cls-5" x1="115.45" y1="215.32" x2="115.29" y2="215.16"/><line class="cls-5" x1="114.48" y1="214.13" x2="114.32" y2="213.91"/><line class="cls-5" x1="113.51" y1="212.89" x2="113.35" y2="212.73"/><line class="cls-5" x1="112.65" y1="211.65" x2="112.48" y2="211.43"/><line class="cls-5" x1="111.83" y1="210.35" x2="111.67" y2="210.13"/><line class="cls-5" x1="111.03" y1="209.05" x2="110.92" y2="208.84"/><line class="cls-5" x1="110.27" y1="207.76" x2="110.16" y2="207.54"/><line class="cls-5" x1="109.62" y1="206.41" x2="109.51" y2="206.19"/><line class="cls-5" x1="108.97" y1="205.06" x2="108.87" y2="204.84"/><line class="cls-5" x1="108.33" y1="203.71" x2="108.27" y2="203.6"/><line class="cls-5" x1="108.27" y1="203.6" x2="108.22" y2="203.49"/><line class="cls-5" x1="107.78" y1="202.3" x2="107.68" y2="202.09"/><line class="cls-5" x1="107.3" y1="200.9" x2="107.25" y2="200.68"/><line class="cls-5" x1="106.81" y1="199.5" x2="106.7" y2="199.28"/><line class="cls-5" x1="106.38" y1="198.04" x2="106.33" y2="197.82"/><line class="cls-5" x1="106" y1="196.58" x2="105.95" y2="196.36"/><line class="cls-5" x1="105.68" y1="195.12" x2="105.63" y2="194.91"/><line class="cls-5" x1="105.41" y1="193.66" x2="105.35" y2="193.45"/><line class="cls-5" x1="105.14" y1="192.15" x2="105.14" y2="191.88"/><line class="cls-5" x1="104.92" y1="190.64" x2="104.92" y2="190.37"/><line class="cls-5" x1="104.82" y1="189.07" x2="104.82" y2="189.02"/><line class="cls-5" x1="104.82" y1="189.02" x2="104.82" y2="188.8"/><line class="cls-5" x1="104.71" y1="187.51" x2="104.71" y2="187.35"/><line class="cls-5" x1="104.71" y1="187.35" x2="104.71" y2="187.24"/><line class="cls-5" x1="104.65" y1="185.94" x2="104.65" y2="185.67"/><line class="cls-5" x1="104.71" y1="184.38" x2="104.71" y2="184.11"/><line class="cls-5" x1="104.76" y1="182.81" x2="104.82" y2="182.59"/><line class="cls-5" x1="104.87" y1="181.3" x2="104.87" y2="181.03"/><line class="cls-5" x1="105.03" y1="179.73" x2="105.08" y2="179.52"/><line class="cls-5" x1="105.25" y1="178.22" x2="105.3" y2="178"/><line class="cls-5" x1="105.52" y1="176.76" x2="105.57" y2="176.55"/><line class="cls-5" x1="105.79" y1="175.3" x2="105.84" y2="175.09"/><line class="cls-5" x1="106.17" y1="173.85" x2="106.22" y2="173.63"/><line class="cls-5" x1="106.6" y1="172.39" x2="106.6" y2="172.33"/><line class="cls-5" x1="106.6" y1="172.33" x2="106.65" y2="172.17"/><line class="cls-5" x1="107.03" y1="170.98" x2="107.08" y2="170.77"/><line class="cls-5" x1="107.52" y1="169.58" x2="107.57" y2="169.36"/><line class="cls-5" x1="108" y1="168.18" x2="108.11" y2="167.96"/><line class="cls-5" x1="108.6" y1="166.77" x2="108.7" y2="166.56"/><line class="cls-5" x1="109.24" y1="165.37" x2="109.35" y2="165.15"/><line class="cls-5" x1="109.89" y1="164.02" x2="110" y2="163.8"/><line class="cls-5" x1="110.59" y1="162.72" x2="110.7" y2="162.51"/><line class="cls-5" x1="111.35" y1="161.37" x2="111.46" y2="161.16"/><line class="cls-5" x1="112.1" y1="160.08" x2="112.16" y2="160.02"/><line class="cls-5" x1="112.16" y1="160.02" x2="112.27" y2="159.86"/><line class="cls-5" x1="112.97" y1="158.78" x2="113.08" y2="158.62"/><line class="cls-5" x1="113.08" y1="158.62" x2="113.13" y2="158.56"/><line class="cls-5" x1="113.89" y1="157.48" x2="114" y2="157.27"/><line class="cls-5" x1="114.8" y1="156.24" x2="114.97" y2="156.03"/><line class="cls-5" x1="115.78" y1="155" x2="115.94" y2="154.78"/><line class="cls-5" x1="116.75" y1="153.76" x2="116.91" y2="153.6"/><line class="cls-5" x1="117.78" y1="152.62" x2="117.94" y2="152.46"/><line class="cls-5" x1="118.85" y1="151.54" x2="119.02" y2="151.38"/><line class="cls-5" x1="119.93" y1="150.46" x2="120.15" y2="150.3"/><line class="cls-5" x1="121.12" y1="149.38" x2="121.28" y2="149.22"/><line class="cls-5" x1="122.26" y1="148.36" x2="122.47" y2="148.2"/><line class="cls-5" x1="123.5" y1="147.39" x2="123.72" y2="147.22"/><line class="cls-5" x1="124.74" y1="146.47" x2="124.96" y2="146.31"/><line class="cls-5" x1="126.04" y1="145.55" x2="126.25" y2="145.39"/><line class="cls-5" x1="127.33" y1="144.69" x2="127.55" y2="144.58"/><line class="cls-5" x1="128.63" y1="143.93" x2="128.85" y2="143.82"/><line class="cls-5" x1="129.93" y1="143.17" x2="129.93" y2="143.17"/><line class="cls-5" x1="129.93" y1="143.17" x2="130.14" y2="143.07"/><line class="cls-5" x1="131.28" y1="142.47" x2="131.44" y2="142.42"/><line class="cls-5" x1="131.44" y1="142.42" x2="131.49" y2="142.42"/><line class="cls-5" x1="132.63" y1="141.82" x2="132.84" y2="141.72"/><line class="cls-5" x1="134.03" y1="141.23" x2="134.24" y2="141.12"/><line class="cls-5" x1="135.43" y1="140.64" x2="135.65" y2="140.58"/><line class="cls-5" x1="136.84" y1="140.15" x2="137.05" y2="140.04"/><line class="cls-5" x1="138.24" y1="139.61" x2="138.46" y2="139.56"/><line class="cls-5" x1="139.64" y1="139.23" x2="139.86" y2="139.12"/><line class="cls-5" x1="141.1" y1="138.85" x2="141.32" y2="138.8"/><line class="cls-5" x1="142.56" y1="138.48" x2="142.78" y2="138.42"/><line class="cls-5" x1="144.02" y1="138.21" x2="144.23" y2="138.15"/><line class="cls-5" x1="145.48" y1="137.94" x2="145.75" y2="137.94"/><line class="cls-5" x1="146.99" y1="137.72" x2="147.04" y2="137.72"/><line class="cls-5" x1="147.04" y1="137.72" x2="147.26" y2="137.72"/><line class="cls-5" x1="148.55" y1="137.61" x2="148.83" y2="137.61"/></g></svg>