<svg xmlns="http://www.w3.org/2000/svg" viewBox="0 0 300 263"><defs><style>.cls-1,.cls-2,.cls-3,.cls-4,.cls-5{fill:none;stroke-linecap:round;}.cls-1,.cls-2,.cls-5{stroke:red;}.cls-1,.cls-2,.cls-4,.cls-5{stroke-linejoin:round;}.cls-1{stroke-width:0.6px;}.cls-3,.cls-4{stroke:#000;}.cls-3{stroke-miterlimit:10;}.cls-3,.cls-4,.cls-5{stroke-width:0.6px;}</style></defs><title>chapo-table-starck-flos-F1690057-curva-fotometrica</title><g id="numeri_esterni_diagramma" data-name="numeri esterni diagramma"><path d="M249.93,137.18h0a1.24,1.24,0,0,1-.37.12,1.84,1.84,0,0,1-.39,0,1.91,1.91,0,0,1-.68-.12,1.58,1.58,0,0,1-.54-.37,1.63,1.63,0,0,1-.36-.56,2.05,2.05,0,0,1-.13-.72,1.79,1.79,0,0,1,.15-.75,1.48,1.48,0,0,1,.4-.55,1.79,1.79,0,0,1,.6-.35,2,2,0,0,1,.75-.13,2.11,2.11,0,0,1,.75.13,1.79,1.79,0,0,1,.6.35,1.59,1.59,0,0,1,.4.55,1.79,1.79,0,0,1,.14.75,2.15,2.15,0,0,1,0,.45,1.68,1.68,0,0,1-.11.4,2.59,2.59,0,0,1-.17.38l-.21.36-1.51,2.39h-.78Zm-.59-.42a1.28,1.28,0,0,0,.48-.09,1,1,0,0,0,.39-.24,1.23,1.23,0,0,0,.26-.37,1.43,1.43,0,0,0,0-1,1.1,1.1,0,0,0-.65-.62,1.48,1.48,0,0,0-1,0,1.28,1.28,0,0,0-.39.24,1.12,1.12,0,0,0-.26.38,1.3,1.3,0,0,0,0,1,1.08,1.08,0,0,0,.26.37,1,1,0,0,0,.39.24A1.28,1.28,0,0,0,249.34,136.76Z"/><path d="M251.82,136.71a7.07,7.07,0,0,1,.08-1,3.19,3.19,0,0,1,.29-1,2,2,0,0,1,.59-.7,1.54,1.54,0,0,1,1-.28,1.49,1.49,0,0,1,.95.28,1.91,1.91,0,0,1,.59.7,2.94,2.94,0,0,1,.3,1,6.29,6.29,0,0,1,0,2,2.94,2.94,0,0,1-.3.95,1.91,1.91,0,0,1-.59.7,1.49,1.49,0,0,1-.95.28,1.54,1.54,0,0,1-1-.28,2,2,0,0,1-.59-.7,3.19,3.19,0,0,1-.29-.95A7.07,7.07,0,0,1,251.82,136.71Zm.67,0c0,.14,0,.29,0,.46a4.6,4.6,0,0,0,.06.52,4.7,4.7,0,0,0,.12.51,2,2,0,0,0,.23.44,1,1,0,0,0,.34.31,1,1,0,0,0,.48.11,1.06,1.06,0,0,0,.48-.11,1.24,1.24,0,0,0,.34-.31,1.65,1.65,0,0,0,.22-.44,3.18,3.18,0,0,0,.13-.51,4.6,4.6,0,0,0,.06-.52c0-.17,0-.32,0-.46s0-.29,0-.46a4.6,4.6,0,0,0-.06-.52,3.18,3.18,0,0,0-.13-.51,1.65,1.65,0,0,0-.22-.44,1.24,1.24,0,0,0-.34-.31,1.06,1.06,0,0,0-.48-.11,1,1,0,0,0-.48.11,1,1,0,0,0-.34.31,2,2,0,0,0-.23.44,4.7,4.7,0,0,0-.12.51,4.6,4.6,0,0,0-.06.52C252.5,136.42,252.49,136.57,252.49,136.71Z"/><path d="M256.42,134.93a1.13,1.13,0,0,1,.09-.45,1.31,1.31,0,0,1,.24-.37,1.18,1.18,0,0,1,.37-.24,1,1,0,0,1,.44-.09,1.13,1.13,0,0,1,.45.09,1.06,1.06,0,0,1,.61.61,1.13,1.13,0,0,1,.09.45,1,1,0,0,1-.09.44,1.06,1.06,0,0,1-.61.61,1.13,1.13,0,0,1-.45.09,1,1,0,0,1-.44-.09,1.18,1.18,0,0,1-.37-.24,1.31,1.31,0,0,1-.24-.37A1,1,0,0,1,256.42,134.93Zm.43,0a.69.69,0,0,0,0,.24,1,1,0,0,0,.15.24.73.73,0,0,0,.51.23.54.54,0,0,0,.29-.07.63.63,0,0,0,.23-.16.72.72,0,0,0,.14-.24.52.52,0,0,0,0-.24.56.56,0,0,0,0-.25.59.59,0,0,0-.14-.23.74.74,0,0,0-.52-.24.73.73,0,0,0-.29.07.62.62,0,0,0-.22.17.76.76,0,0,0-.15.23A.74.74,0,0,0,256.85,134.93Z"/><path d="M41.57,137.18h0a1.34,1.34,0,0,1-.37.12,2,2,0,0,1-.39,0,1.92,1.92,0,0,1-.69-.12,1.58,1.58,0,0,1-.54-.37,1.8,1.8,0,0,1-.36-.56,2.05,2.05,0,0,1-.13-.72,1.79,1.79,0,0,1,.15-.75,1.48,1.48,0,0,1,.4-.55,1.79,1.79,0,0,1,.6-.35,2.23,2.23,0,0,1,1.5,0,1.79,1.79,0,0,1,.6.35,1.48,1.48,0,0,1,.4.55,1.79,1.79,0,0,1,.15.75,3.14,3.14,0,0,1,0,.45,2.34,2.34,0,0,1-.12.4,1.84,1.84,0,0,1-.17.38,3.35,3.35,0,0,1-.21.36l-1.5,2.39h-.79Zm-.59-.42a1.28,1.28,0,0,0,.48-.09,1,1,0,0,0,.39-.24,1.23,1.23,0,0,0,.26-.37,1.3,1.3,0,0,0,0-1,1.1,1.1,0,0,0-.65-.62,1.48,1.48,0,0,0-1,0,1.1,1.1,0,0,0-.65.62,1.43,1.43,0,0,0,0,1,1.23,1.23,0,0,0,.26.37,1,1,0,0,0,.39.24A1.28,1.28,0,0,0,41,136.76Z"/><path d="M43.46,136.71a7.07,7.07,0,0,1,.08-1,2.94,2.94,0,0,1,.3-1,1.91,1.91,0,0,1,.59-.7,1.49,1.49,0,0,1,1-.28,1.54,1.54,0,0,1,1,.28,2,2,0,0,1,.59.7,3.19,3.19,0,0,1,.29,1,6.29,6.29,0,0,1,0,2,3.19,3.19,0,0,1-.29.95,2,2,0,0,1-.59.7,1.54,1.54,0,0,1-1,.28,1.49,1.49,0,0,1-1-.28,1.91,1.91,0,0,1-.59-.7,2.94,2.94,0,0,1-.3-.95A7.07,7.07,0,0,1,43.46,136.71Zm.67,0c0,.14,0,.29,0,.46a4.6,4.6,0,0,0,.06.52,3.18,3.18,0,0,0,.13.51,1.65,1.65,0,0,0,.22.44,1.12,1.12,0,0,0,.34.31,1.1,1.1,0,0,0,1,0,1.12,1.12,0,0,0,.34-.31,2,2,0,0,0,.23-.44,4.7,4.7,0,0,0,.12-.51,4.6,4.6,0,0,0,.06-.52c0-.17,0-.32,0-.46s0-.29,0-.46a4.6,4.6,0,0,0-.06-.52,4.7,4.7,0,0,0-.12-.51,2,2,0,0,0-.23-.44,1.12,1.12,0,0,0-.34-.31,1.1,1.1,0,0,0-1,0,1.12,1.12,0,0,0-.34.31,1.65,1.65,0,0,0-.22.44,3.18,3.18,0,0,0-.13.51,4.6,4.6,0,0,0-.06.52C44.14,136.42,44.13,136.57,44.13,136.71Z"/><path d="M48.06,134.93a1.13,1.13,0,0,1,.09-.45,1.06,1.06,0,0,1,.61-.61,1.13,1.13,0,0,1,.45-.09,1.08,1.08,0,0,1,.44.09,1.06,1.06,0,0,1,.61.61,1.13,1.13,0,0,1,.09.45,1,1,0,0,1-.09.44,1.06,1.06,0,0,1-.61.61,1.08,1.08,0,0,1-.44.09,1.13,1.13,0,0,1-.45-.09,1.06,1.06,0,0,1-.61-.61A1,1,0,0,1,48.06,134.93Zm.43,0a.53.53,0,0,0,.06.24.72.72,0,0,0,.14.24.69.69,0,0,0,.22.16.6.6,0,0,0,.3.07.73.73,0,0,0,.51-.23,1,1,0,0,0,.15-.24.69.69,0,0,0,.05-.24.74.74,0,0,0-.05-.25.76.76,0,0,0-.15-.23.62.62,0,0,0-.22-.17.73.73,0,0,0-.29-.07.73.73,0,0,0-.3.07.72.72,0,0,0-.22.17.59.59,0,0,0-.14.23A.57.57,0,0,0,48.49,134.93Z"/><path d="M148.37,38.51h-.68v-4.8h0l-1,.85-.4-.48,1.52-1.24h.59Z"/><path d="M150.49,34.23a1.48,1.48,0,0,1,.13-.61,1.2,1.2,0,0,1,.34-.46,1.44,1.44,0,0,1,.51-.3,1.92,1.92,0,0,1,1.28,0,1.44,1.44,0,0,1,.51.3,1.2,1.2,0,0,1,.34.46,1.33,1.33,0,0,1,.13.61,1.16,1.16,0,0,1-.07.4,1.41,1.41,0,0,1-.18.37,1.33,1.33,0,0,1-.29.29,1.18,1.18,0,0,1-.39.19h0a1.44,1.44,0,0,1,.46.19,1.35,1.35,0,0,1,.35.32,1.42,1.42,0,0,1,.23.44,1.7,1.7,0,0,1,.08.51,1.74,1.74,0,0,1-.14.69,1.43,1.43,0,0,1-.39.52,1.47,1.47,0,0,1-.57.33,2.35,2.35,0,0,1-1.42,0,1.47,1.47,0,0,1-.57-.33,1.55,1.55,0,0,1-.39-.52,1.74,1.74,0,0,1-.14-.69,1.7,1.7,0,0,1,.08-.51,1.67,1.67,0,0,1,.23-.44,1.35,1.35,0,0,1,.35-.32,1.44,1.44,0,0,1,.46-.19h0a1.18,1.18,0,0,1-.39-.19,1.33,1.33,0,0,1-.29-.29,1.41,1.41,0,0,1-.18-.37A1.46,1.46,0,0,1,150.49,34.23ZM151,36.9a1.18,1.18,0,0,0,.09.46,1.07,1.07,0,0,0,.25.35,1,1,0,0,0,.36.23,1.12,1.12,0,0,0,.88,0,1,1,0,0,0,.36-.23,1.07,1.07,0,0,0,.25-.35,1.18,1.18,0,0,0,.09-.46,1.14,1.14,0,0,0-.09-.46,1.13,1.13,0,0,0-.61-.58,1.12,1.12,0,0,0-.88,0,1.13,1.13,0,0,0-.61.58A1.14,1.14,0,0,0,151,36.9Zm.2-2.64a.88.88,0,0,0,.26.67,1,1,0,0,0,1.36,0,1,1,0,0,0,0-1.34,1,1,0,0,0-1.36,0A.88.88,0,0,0,151.17,34.26Z"/><path d="M154.64,35.68a7,7,0,0,1,.08-1,3.1,3.1,0,0,1,.29-1,2,2,0,0,1,.59-.71,1.6,1.6,0,0,1,1-.27,1.55,1.55,0,0,1,.95.27,1.94,1.94,0,0,1,.59.71,2.86,2.86,0,0,1,.3,1,7,7,0,0,1,.08,1,7.07,7.07,0,0,1-.08,1,2.88,2.88,0,0,1-.3.94,1.94,1.94,0,0,1-.59.71,1.55,1.55,0,0,1-.95.27,1.6,1.6,0,0,1-1-.27,2,2,0,0,1-.59-.71,3.13,3.13,0,0,1-.29-.94A7.07,7.07,0,0,1,154.64,35.68Zm.67,0c0,.13,0,.29,0,.46a4.88,4.88,0,0,0,.06.52,4.05,4.05,0,0,0,.12.5,1.66,1.66,0,0,0,.23.44,1.12,1.12,0,0,0,.34.31,1,1,0,0,0,1,0,1.12,1.12,0,0,0,.34-.31,1.4,1.4,0,0,0,.22-.44,2.83,2.83,0,0,0,.13-.5,4.88,4.88,0,0,0,.06-.52c0-.17,0-.33,0-.46s0-.3,0-.47a4.43,4.43,0,0,0-.06-.51,2.72,2.72,0,0,0-.13-.51,1.51,1.51,0,0,0-.22-.44,1.12,1.12,0,0,0-.34-.31,1,1,0,0,0-1,0,1.12,1.12,0,0,0-.34.31,1.83,1.83,0,0,0-.23.44,3.81,3.81,0,0,0-.12.51,4.43,4.43,0,0,0-.06.51C155.32,35.38,155.31,35.54,155.31,35.68Z"/><path d="M159.24,33.89a1.15,1.15,0,0,1,.33-.81,1,1,0,0,1,.37-.24,1,1,0,0,1,.44-.09,1.15,1.15,0,0,1,.82,2,1.15,1.15,0,0,1-.37.25,1.13,1.13,0,0,1-.45.09,1.15,1.15,0,0,1-.81-.34,1.15,1.15,0,0,1-.33-.81Zm.43,0a.79.79,0,0,0,.05.25,1.14,1.14,0,0,0,.15.23.62.62,0,0,0,.22.17.72.72,0,0,0,.29.06.68.68,0,0,0,.52-.23.79.79,0,0,0,.14-.23.65.65,0,0,0,0-.5.79.79,0,0,0-.14-.23.81.81,0,0,0-.23-.17.65.65,0,0,0-.29-.06.72.72,0,0,0-.29.06.76.76,0,0,0-.22.17,1.14,1.14,0,0,0-.15.23A.79.79,0,0,0,159.67,33.89Z"/><path d="M148.27,239.2a6.85,6.85,0,0,1,.08-1,3.41,3.41,0,0,1,.3-.95,1.94,1.94,0,0,1,.59-.71,1.57,1.57,0,0,1,.95-.27,1.6,1.6,0,0,1,1,.27,2,2,0,0,1,.59.71,3.1,3.1,0,0,1,.29.95,5.7,5.7,0,0,1,.08,1,5.85,5.85,0,0,1-.08,1,3.13,3.13,0,0,1-.29.94,2,2,0,0,1-.59.71,1.6,1.6,0,0,1-1,.27,1.57,1.57,0,0,1-.95-.27,1.94,1.94,0,0,1-.59-.71,3.45,3.45,0,0,1-.3-.94A7.07,7.07,0,0,1,148.27,239.2Zm.68,0c0,.13,0,.29,0,.46a4.88,4.88,0,0,0,.06.52,2.83,2.83,0,0,0,.13.5,1.65,1.65,0,0,0,.22.44,1.24,1.24,0,0,0,.34.31,1,1,0,0,0,.48.12.9.9,0,0,0,.48-.12,1,1,0,0,0,.34-.31,1.41,1.41,0,0,0,.23-.44,4.07,4.07,0,0,0,.13-.5c0-.18,0-.35.06-.52s0-.33,0-.46,0-.3,0-.47,0-.34-.06-.51a3.8,3.8,0,0,0-.13-.51,1.53,1.53,0,0,0-.23-.44,1,1,0,0,0-.34-.31.9.9,0,0,0-.48-.12,1,1,0,0,0-.48.12,1.24,1.24,0,0,0-.34.31,1.81,1.81,0,0,0-.22.44,2.72,2.72,0,0,0-.13.51,4.43,4.43,0,0,0-.06.51C149,238.9,149,239.06,149,239.2Z"/><path d="M152.83,237.41a1.33,1.33,0,0,1,.08-.45,1.11,1.11,0,0,1,.25-.36,1,1,0,0,1,.36-.24,1.17,1.17,0,0,1,.9,0,1,1,0,0,1,.36.24,1.11,1.11,0,0,1,.25.36,1.31,1.31,0,0,1,0,.9,1.23,1.23,0,0,1-.61.61,1.17,1.17,0,0,1-.9,0,1.23,1.23,0,0,1-.61-.61A1.33,1.33,0,0,1,152.83,237.41Zm.43,0a.79.79,0,0,0,.05.25.68.68,0,0,0,.14.23.66.66,0,0,0,.23.17.73.73,0,0,0,.58,0,.76.76,0,0,0,.23-.17.88.88,0,0,0,.14-.23.65.65,0,0,0,0-.5,1.09,1.09,0,0,0-.14-.23,1,1,0,0,0-.23-.17.73.73,0,0,0-.58,0,.81.81,0,0,0-.23.17.75.75,0,0,0-.19.48Z"/><path d="M203.17,238.76h.21l.43,0a1.15,1.15,0,0,0,.42-.13.77.77,0,0,0,.31-.31.94.94,0,0,0,.13-.51.87.87,0,0,0-.27-.68,1,1,0,0,0-.7-.26,1.28,1.28,0,0,0-.63.16,1.14,1.14,0,0,0-.41.48l-.65-.25a1.48,1.48,0,0,1,.65-.72,2.07,2.07,0,0,1,1-.24,2.25,2.25,0,0,1,.64.09,1.72,1.72,0,0,1,.54.28,1.37,1.37,0,0,1,.37.46,1.48,1.48,0,0,1,.14.65,1.29,1.29,0,0,1-.27.8,1.34,1.34,0,0,1-.7.49v0a1.48,1.48,0,0,1,.85.49,1.37,1.37,0,0,1,.23.43,1.69,1.69,0,0,1,.08.5,1.66,1.66,0,0,1-.15.72,1.57,1.57,0,0,1-.41.51,1.71,1.71,0,0,1-.6.31,2.34,2.34,0,0,1-.71.1,2.18,2.18,0,0,1-1.13-.28,1.61,1.61,0,0,1-.7-.91l.68-.22a1.33,1.33,0,0,0,.41.65,1.3,1.3,0,0,0,.74.19,1.33,1.33,0,0,0,.45-.08,1.11,1.11,0,0,0,.36-.23,1.24,1.24,0,0,0,.25-.35,1.13,1.13,0,0,0,.09-.45,1.07,1.07,0,0,0-.12-.53,1,1,0,0,0-.33-.33,1.23,1.23,0,0,0-.46-.18,2.31,2.31,0,0,0-.52-.06h-.21Z"/><path d="M206.24,239.2a6.85,6.85,0,0,1,.08-1,3.11,3.11,0,0,1,.3-.95,1.94,1.94,0,0,1,.59-.71,1.55,1.55,0,0,1,.95-.27,1.6,1.6,0,0,1,1,.27,2,2,0,0,1,.59.71,3.1,3.1,0,0,1,.29.95,5.7,5.7,0,0,1,.08,1,5.85,5.85,0,0,1-.08,1,3.13,3.13,0,0,1-.29.94,2,2,0,0,1-.59.71,1.6,1.6,0,0,1-1,.27,1.55,1.55,0,0,1-.95-.27,1.94,1.94,0,0,1-.59-.71,3.14,3.14,0,0,1-.3-.94A7.07,7.07,0,0,1,206.24,239.2Zm.67,0c0,.13,0,.29,0,.46a4.88,4.88,0,0,0,.06.52,2.83,2.83,0,0,0,.13.5,1.4,1.4,0,0,0,.22.44,1.24,1.24,0,0,0,.34.31,1,1,0,0,0,.48.12.9.9,0,0,0,.48-.12,1,1,0,0,0,.34-.31,1.41,1.41,0,0,0,.23-.44,4.05,4.05,0,0,0,.12-.5,4.88,4.88,0,0,0,.06-.52,3.86,3.86,0,0,0,0-.46,3.94,3.94,0,0,0,0-.47,4.43,4.43,0,0,0-.06-.51,3.81,3.81,0,0,0-.12-.51,1.53,1.53,0,0,0-.23-.44,1,1,0,0,0-.34-.31.9.9,0,0,0-.48-.12,1,1,0,0,0-.48.12,1.24,1.24,0,0,0-.34.31,1.51,1.51,0,0,0-.22.44,2.72,2.72,0,0,0-.13.51,4.43,4.43,0,0,0-.06.51C206.92,238.9,206.91,239.06,206.91,239.2Z"/><path d="M210.84,237.41a1.13,1.13,0,0,1,.09-.45,1.26,1.26,0,0,1,.24-.36,1.2,1.2,0,0,1,.82-.33,1,1,0,0,1,.44.09,1.12,1.12,0,0,1,.37.24,1.26,1.26,0,0,1,.24.36,1.16,1.16,0,0,1-.24,1.26,1.15,1.15,0,0,1-.37.25,1,1,0,0,1-.44.09,1.13,1.13,0,0,1-.45-.09,1.15,1.15,0,0,1-.37-.25,1.15,1.15,0,0,1-.33-.81Zm.43,0a.61.61,0,0,0,.06.25.68.68,0,0,0,.14.23.72.72,0,0,0,.22.17.73.73,0,0,0,.3.06.72.72,0,0,0,.29-.06.62.62,0,0,0,.22-.17.91.91,0,0,0,.15-.23.65.65,0,0,0,0-.5,1.14,1.14,0,0,0-.15-.23.76.76,0,0,0-.22-.17.72.72,0,0,0-.29-.06.73.73,0,0,0-.3.06.92.92,0,0,0-.22.17.79.79,0,0,0-.14.23A.61.61,0,0,0,211.27,237.41Z"/><path d="M93.6,238.76h.21l.44,0a1.1,1.1,0,0,0,.41-.13.86.86,0,0,0,.32-.31.94.94,0,0,0,.12-.51.87.87,0,0,0-.27-.68,1,1,0,0,0-.7-.26,1.21,1.21,0,0,0-.62.16,1.1,1.1,0,0,0-.42.48l-.65-.25a1.45,1.45,0,0,1,.66-.72,2,2,0,0,1,1-.24,2.32,2.32,0,0,1,.65.09,2,2,0,0,1,.54.28,1.67,1.67,0,0,1,.37.46,1.48,1.48,0,0,1,.13.65,1.29,1.29,0,0,1-.27.8,1.34,1.34,0,0,1-.7.49v0a1.31,1.31,0,0,1,.49.18,1.34,1.34,0,0,1,.36.31,1.37,1.37,0,0,1,.23.43,1.42,1.42,0,0,1,.08.5,1.66,1.66,0,0,1-.15.72,1.57,1.57,0,0,1-.41.51,1.75,1.75,0,0,1-.59.31,2.46,2.46,0,0,1-.72.1,2.18,2.18,0,0,1-1.13-.28,1.56,1.56,0,0,1-.69-.91l.68-.22a1.2,1.2,0,0,0,.41.65,1.27,1.27,0,0,0,.73.19,1.33,1.33,0,0,0,.45-.08,1.11,1.11,0,0,0,.36-.23,1.07,1.07,0,0,0,.25-.35,1.13,1.13,0,0,0,.09-.45,1.07,1.07,0,0,0-.12-.53.87.87,0,0,0-.33-.33,1.17,1.17,0,0,0-.46-.18,2.24,2.24,0,0,0-.52-.06H93.6Z"/><path d="M96.68,239.2a5.7,5.7,0,0,1,.08-1,3.1,3.1,0,0,1,.29-.95,2,2,0,0,1,.59-.71,1.6,1.6,0,0,1,1-.27,1.57,1.57,0,0,1,1,.27,1.94,1.94,0,0,1,.59.71,3.41,3.41,0,0,1,.3.95,6.85,6.85,0,0,1,.08,1,7.07,7.07,0,0,1-.08,1,3.45,3.45,0,0,1-.3.94,1.94,1.94,0,0,1-.59.71,1.57,1.57,0,0,1-1,.27,1.6,1.6,0,0,1-1-.27,2,2,0,0,1-.59-.71,3.13,3.13,0,0,1-.29-.94A5.85,5.85,0,0,1,96.68,239.2Zm.67,0c0,.13,0,.29,0,.46a4.88,4.88,0,0,0,.06.52,4.07,4.07,0,0,0,.13.5,1.41,1.41,0,0,0,.23.44,1,1,0,0,0,.34.31.9.9,0,0,0,.48.12,1,1,0,0,0,.48-.12,1.24,1.24,0,0,0,.34-.31,1.65,1.65,0,0,0,.22-.44,2.83,2.83,0,0,0,.13-.5,4.88,4.88,0,0,0,.06-.52c0-.17,0-.33,0-.46s0-.3,0-.47a4.43,4.43,0,0,0-.06-.51,2.72,2.72,0,0,0-.13-.51,1.81,1.81,0,0,0-.22-.44,1.24,1.24,0,0,0-.34-.31,1,1,0,0,0-.48-.12.9.9,0,0,0-.48.12,1,1,0,0,0-.34.31,1.53,1.53,0,0,0-.23.44,3.8,3.8,0,0,0-.13.51,4.43,4.43,0,0,0-.06.51C97.35,238.9,97.35,239.06,97.35,239.2Z"/><path d="M101.28,237.41a1.33,1.33,0,0,1,.08-.45,1.11,1.11,0,0,1,.25-.36,1,1,0,0,1,.36-.24,1.17,1.17,0,0,1,.9,0,1,1,0,0,1,.36.24,1.11,1.11,0,0,1,.25.36,1.31,1.31,0,0,1,0,.9,1.23,1.23,0,0,1-.61.61,1.17,1.17,0,0,1-.9,0,1.23,1.23,0,0,1-.61-.61A1.33,1.33,0,0,1,101.28,237.41Zm.43,0a.79.79,0,0,0,.05.25.68.68,0,0,0,.14.23.76.76,0,0,0,.23.17.73.73,0,0,0,.58,0,.66.66,0,0,0,.23-.17.68.68,0,0,0,.14-.23.71.71,0,0,0-.14-.73.81.81,0,0,0-.23-.17.73.73,0,0,0-.58,0,1,1,0,0,0-.23.17.75.75,0,0,0-.19.48Z"/><path d="M203.18,38.51h-.68v-4.8h0l-1,.85-.4-.48,1.52-1.24h.59Z"/><path d="M208.49,33.47h-2.31l0,1.53a1.08,1.08,0,0,1,.36-.11l.37,0a2,2,0,0,1,.74.14,1.61,1.61,0,0,1,.57.39,1.9,1.9,0,0,1,.37.59,2,2,0,0,1,.13.74,2,2,0,0,1-.15.78,1.74,1.74,0,0,1-.41.59,1.91,1.91,0,0,1-.61.38,2.2,2.2,0,0,1-.78.13,1.73,1.73,0,0,1-1-.28,2,2,0,0,1-.63-.75l.67-.25a1.31,1.31,0,0,0,.42.51,1.1,1.1,0,0,0,.64.2,1.28,1.28,0,0,0,.48-.09,1.26,1.26,0,0,0,.38-.27,1.15,1.15,0,0,0,.26-.41,1.53,1.53,0,0,0,.1-.54,1.38,1.38,0,0,0-.11-.55,1.08,1.08,0,0,0-.3-.4,1.26,1.26,0,0,0-.44-.25,1.67,1.67,0,0,0-.55-.08,1.84,1.84,0,0,0-.6.1,2.58,2.58,0,0,0-.56.25l.06-2.95h3Z"/><path d="M209.45,35.68a7,7,0,0,1,.08-1,3.1,3.1,0,0,1,.29-1,2,2,0,0,1,.59-.71,1.6,1.6,0,0,1,1-.27,1.55,1.55,0,0,1,.95.27,1.94,1.94,0,0,1,.59.71,2.86,2.86,0,0,1,.3,1,7,7,0,0,1,.08,1,7.07,7.07,0,0,1-.08,1,2.88,2.88,0,0,1-.3.94,1.94,1.94,0,0,1-.59.71,1.55,1.55,0,0,1-.95.27,1.6,1.6,0,0,1-1-.27,2,2,0,0,1-.59-.71,3.13,3.13,0,0,1-.29-.94A7.07,7.07,0,0,1,209.45,35.68Zm.67,0c0,.13,0,.29,0,.46a4.88,4.88,0,0,0,.06.52,4.05,4.05,0,0,0,.12.5,1.66,1.66,0,0,0,.23.44,1,1,0,0,0,.34.31.9.9,0,0,0,.48.12,1,1,0,0,0,.48-.12,1.24,1.24,0,0,0,.34-.31,1.4,1.4,0,0,0,.22-.44,2.83,2.83,0,0,0,.13-.5,4.88,4.88,0,0,0,.06-.52c0-.17,0-.33,0-.46s0-.3,0-.47a4.43,4.43,0,0,0-.06-.51,2.72,2.72,0,0,0-.13-.51,1.51,1.51,0,0,0-.22-.44,1.24,1.24,0,0,0-.34-.31,1,1,0,0,0-.48-.12.9.9,0,0,0-.48.12,1,1,0,0,0-.34.31,1.83,1.83,0,0,0-.23.44,3.81,3.81,0,0,0-.12.51,4.43,4.43,0,0,0-.06.51C210.13,35.38,210.12,35.54,210.12,35.68Z"/><path d="M214.05,33.89a1.15,1.15,0,0,1,.33-.81,1,1,0,0,1,.37-.24,1,1,0,0,1,.44-.09,1.13,1.13,0,0,1,.45.09,1,1,0,0,1,.36.24,1,1,0,0,1,.25.36,1.17,1.17,0,0,1,0,.9,1.23,1.23,0,0,1-.61.61,1.13,1.13,0,0,1-.45.09,1.15,1.15,0,0,1-.81-.34,1.15,1.15,0,0,1-.33-.81Zm.43,0a.79.79,0,0,0,.05.25,1.14,1.14,0,0,0,.15.23.62.62,0,0,0,.22.17.72.72,0,0,0,.29.06.68.68,0,0,0,.52-.23.79.79,0,0,0,.14-.23.65.65,0,0,0,0-.5.79.79,0,0,0-.14-.23.81.81,0,0,0-.23-.17.65.65,0,0,0-.29-.06.72.72,0,0,0-.29.06.76.76,0,0,0-.22.17,1.14,1.14,0,0,0-.15.23A.79.79,0,0,0,214.48,33.89Z"/><path d="M93.61,38.51h-.67v-4.8h0l-1,.85-.4-.48L93,32.84h.58Z"/><path d="M98.92,33.47H96.61l0,1.53a1,1,0,0,1,.35-.11l.37,0a1.91,1.91,0,0,1,.74.14,1.65,1.65,0,0,1,.58.39A1.71,1.71,0,0,1,99,36a2,2,0,0,1,.13.74,2,2,0,0,1-.15.78,1.71,1.71,0,0,1-.4.59,2,2,0,0,1-.62.38,2.15,2.15,0,0,1-.77.13,1.78,1.78,0,0,1-1.05-.28,1.85,1.85,0,0,1-.62-.75l.67-.25a1.16,1.16,0,0,0,.42.51,1.05,1.05,0,0,0,.63.2,1.28,1.28,0,0,0,.48-.09,1.23,1.23,0,0,0,.64-.68,1.33,1.33,0,0,0,.1-.54,1.38,1.38,0,0,0-.11-.55,1.18,1.18,0,0,0-.29-.4,1.41,1.41,0,0,0-.45-.25,1.63,1.63,0,0,0-.55-.08,1.78,1.78,0,0,0-.59.1,2.58,2.58,0,0,0-.56.25l0-2.95h3Z"/><path d="M99.88,35.68a7,7,0,0,1,.08-1,3.11,3.11,0,0,1,.3-1,1.94,1.94,0,0,1,.59-.71,1.55,1.55,0,0,1,1-.27,1.6,1.6,0,0,1,1,.27,2,2,0,0,1,.59.71,3.1,3.1,0,0,1,.29,1,5.77,5.77,0,0,1,.08,1,5.85,5.85,0,0,1-.08,1,3.13,3.13,0,0,1-.29.94,2,2,0,0,1-.59.71,1.6,1.6,0,0,1-1,.27,1.55,1.55,0,0,1-1-.27,1.94,1.94,0,0,1-.59-.71,3.14,3.14,0,0,1-.3-.94A7.07,7.07,0,0,1,99.88,35.68Zm.67,0c0,.13,0,.29,0,.46a4.88,4.88,0,0,0,.06.52,2.83,2.83,0,0,0,.13.5,1.4,1.4,0,0,0,.22.44,1.24,1.24,0,0,0,.34.31,1,1,0,0,0,.48.12.9.9,0,0,0,.48-.12,1,1,0,0,0,.34-.31,1.41,1.41,0,0,0,.23-.44,4.05,4.05,0,0,0,.12-.5,4.88,4.88,0,0,0,.06-.52c0-.17,0-.33,0-.46s0-.3,0-.47a4.43,4.43,0,0,0-.06-.51,3.81,3.81,0,0,0-.12-.51,1.53,1.53,0,0,0-.23-.44,1,1,0,0,0-.34-.31.9.9,0,0,0-.48-.12,1,1,0,0,0-.48.12,1.24,1.24,0,0,0-.34.31,1.51,1.51,0,0,0-.22.44,2.72,2.72,0,0,0-.13.51,4.43,4.43,0,0,0-.06.51C100.56,35.38,100.55,35.54,100.55,35.68Z"/><path d="M104.48,33.89a1.15,1.15,0,0,1,1.15-1.14,1,1,0,0,1,.44.09,1.12,1.12,0,0,1,.37.24,1.16,1.16,0,0,1,0,1.62,1.15,1.15,0,0,1-.37.25,1,1,0,0,1-.44.09,1.13,1.13,0,0,1-.45-.09,1.15,1.15,0,0,1-.37-.25,1.15,1.15,0,0,1-.33-.81Zm.43,0a.61.61,0,0,0,.06.25.79.79,0,0,0,.14.23.72.72,0,0,0,.22.17.73.73,0,0,0,.3.06.72.72,0,0,0,.29-.06.62.62,0,0,0,.22-.17,1.14,1.14,0,0,0,.15-.23.65.65,0,0,0,0-.5,1.14,1.14,0,0,0-.15-.23.76.76,0,0,0-.22-.17.72.72,0,0,0-.29-.06.73.73,0,0,0-.3.06.92.92,0,0,0-.22.17.79.79,0,0,0-.14.23A.61.61,0,0,0,104.91,33.89Z"/><path d="M248.75,192.45v0a1.35,1.35,0,0,1,.37-.13,2,2,0,0,1,.39,0,1.73,1.73,0,0,1,.69.13,1.42,1.42,0,0,1,.54.36,1.85,1.85,0,0,1,.36.57,2,2,0,0,1,.12.72,1.78,1.78,0,0,1-.14.74,1.74,1.74,0,0,1-.4.56,2,2,0,0,1-.6.35,2.36,2.36,0,0,1-.75.12,2.27,2.27,0,0,1-.75-.12,2,2,0,0,1-.6-.35,1.6,1.6,0,0,1-.4-.56,1.78,1.78,0,0,1-.15-.74,2.24,2.24,0,0,1,.15-.86,5.28,5.28,0,0,1,.39-.74l1.5-2.39h.79Zm.59.43a1.23,1.23,0,0,0-.87.32,1,1,0,0,0-.26.38,1.31,1.31,0,0,0-.1.5,1.35,1.35,0,0,0,.1.5,1.08,1.08,0,0,0,.26.37,1,1,0,0,0,.39.24,1.32,1.32,0,0,0,1,0,1,1,0,0,0,.39-.24,1.23,1.23,0,0,0,.26-.37,1.35,1.35,0,0,0,.09-.5,1.31,1.31,0,0,0-.09-.5,1.16,1.16,0,0,0-.26-.38,1.23,1.23,0,0,0-.87-.32Z"/><path d="M251.82,192.92a7.07,7.07,0,0,1,.08-1,3.13,3.13,0,0,1,.29-.94,2,2,0,0,1,.59-.71,1.6,1.6,0,0,1,1-.27,1.55,1.55,0,0,1,.95.27,1.94,1.94,0,0,1,.59.71,2.88,2.88,0,0,1,.3.94,7.07,7.07,0,0,1,.08,1,7,7,0,0,1-.08,1,2.86,2.86,0,0,1-.3,1,1.94,1.94,0,0,1-.59.71,1.55,1.55,0,0,1-.95.27,1.6,1.6,0,0,1-1-.27,2,2,0,0,1-.59-.71,3.1,3.1,0,0,1-.29-1A7,7,0,0,1,251.82,192.92Zm.67,0c0,.14,0,.3,0,.47a4.43,4.43,0,0,0,.06.51,3.81,3.81,0,0,0,.12.51,1.83,1.83,0,0,0,.23.44,1,1,0,0,0,.34.31.9.9,0,0,0,.48.12,1,1,0,0,0,.48-.12,1.24,1.24,0,0,0,.34-.31,1.51,1.51,0,0,0,.22-.44,2.72,2.72,0,0,0,.13-.51,4.43,4.43,0,0,0,.06-.51c0-.17,0-.33,0-.47s0-.29,0-.46a4.88,4.88,0,0,0-.06-.52,2.83,2.83,0,0,0-.13-.5,1.4,1.4,0,0,0-.22-.44,1.1,1.1,0,0,0-.34-.31,1,1,0,0,0-.48-.12.9.9,0,0,0-.48.12.92.92,0,0,0-.34.31,1.66,1.66,0,0,0-.23.44,4.05,4.05,0,0,0-.12.5,4.88,4.88,0,0,0-.06.52C252.5,192.63,252.49,192.79,252.49,192.92Z"/><path d="M256.42,191.14a1.15,1.15,0,0,1,.33-.81,1.05,1.05,0,0,1,.37-.25,1.23,1.23,0,0,1,.44-.08,1.33,1.33,0,0,1,.45.08,1.15,1.15,0,0,1,.37.25,1.16,1.16,0,0,1,0,1.62,1.15,1.15,0,0,1-.37.25,1.33,1.33,0,0,1-.45.08,1.23,1.23,0,0,1-.44-.08,1.05,1.05,0,0,1-.37-.25,1.15,1.15,0,0,1-.33-.81Zm.43,0a.79.79,0,0,0,0,.25,1.14,1.14,0,0,0,.15.23.62.62,0,0,0,.22.17.72.72,0,0,0,.29.06.68.68,0,0,0,.52-.23.79.79,0,0,0,.14-.23.65.65,0,0,0,0-.5.79.79,0,0,0-.14-.23.68.68,0,0,0-.52-.23.72.72,0,0,0-.29.06.62.62,0,0,0-.22.17,1.14,1.14,0,0,0-.15.23A.79.79,0,0,0,256.85,191.14Z"/><path d="M250,81.22h-.67v-4.8h0l-1,.86-.4-.49,1.52-1.23H250Z"/><path d="M251.92,80.45l2.13-2.08c.13-.12.25-.24.35-.35a2.16,2.16,0,0,0,.25-.32,1.09,1.09,0,0,0,.15-.33,1.38,1.38,0,0,0,0-.37,1,1,0,0,0-.08-.4.84.84,0,0,0-.22-.3.78.78,0,0,0-.33-.19,1.05,1.05,0,0,0-.4-.07,1,1,0,0,0-.71.25,1.08,1.08,0,0,0-.36.65l-.73-.06a1.83,1.83,0,0,1,.21-.61,1.41,1.41,0,0,1,.39-.45,2,2,0,0,1,.53-.27,2.25,2.25,0,0,1,.64-.09,2.41,2.41,0,0,1,.67.1,1.92,1.92,0,0,1,.55.29,1.44,1.44,0,0,1,.51,1.15,2,2,0,0,1-.09.61,2,2,0,0,1-.25.5,3.47,3.47,0,0,1-.35.43l-.41.4-1.75,1.64v0h2.89v.62h-3.64Z"/><path d="M256.27,78.39a5.85,5.85,0,0,1,.08-1,3.19,3.19,0,0,1,.29-1,2,2,0,0,1,.59-.7,1.54,1.54,0,0,1,1-.28,1.51,1.51,0,0,1,.95.28,1.91,1.91,0,0,1,.59.7,3.2,3.2,0,0,1,.3,1,6.29,6.29,0,0,1,0,2,3.2,3.2,0,0,1-.3,1,1.91,1.91,0,0,1-.59.7,1.51,1.51,0,0,1-.95.28,1.54,1.54,0,0,1-1-.28,2,2,0,0,1-.59-.7,3.19,3.19,0,0,1-.29-1A5.85,5.85,0,0,1,256.27,78.39Zm.67,0a3.78,3.78,0,0,0,0,.46c0,.17,0,.35.05.52a4.77,4.77,0,0,0,.13.51,1.67,1.67,0,0,0,.23.44,1,1,0,0,0,.34.31,1,1,0,0,0,.48.11,1.06,1.06,0,0,0,.48-.11,1.24,1.24,0,0,0,.34-.31,2,2,0,0,0,.22-.44,3.18,3.18,0,0,0,.13-.51,4.6,4.6,0,0,0,.06-.52c0-.17,0-.32,0-.46s0-.29,0-.46a4.35,4.35,0,0,0-.06-.52,3.18,3.18,0,0,0-.13-.51,2,2,0,0,0-.22-.44,1.24,1.24,0,0,0-.34-.31,1.06,1.06,0,0,0-.48-.11,1,1,0,0,0-.48.11,1,1,0,0,0-.34.31,1.67,1.67,0,0,0-.23.44,4.77,4.77,0,0,0-.13.51c0,.17,0,.34-.05.52A3.78,3.78,0,0,0,256.94,78.39Z"/><path d="M260.87,76.61a1.13,1.13,0,0,1,.09-.45,1,1,0,0,1,.24-.37,1.16,1.16,0,0,1,1.62,0,1.15,1.15,0,0,1,.25.37,1.13,1.13,0,0,1,.09.45,1,1,0,0,1-.09.44,1.15,1.15,0,0,1-.25.37,1.16,1.16,0,0,1-1.62,0,1,1,0,0,1-.24-.37A1,1,0,0,1,260.87,76.61Zm.43,0a.69.69,0,0,0,.05.24.75.75,0,0,0,.15.24.6.6,0,0,0,.22.16.64.64,0,0,0,.58,0,.63.63,0,0,0,.23-.16.72.72,0,0,0,.14-.24.52.52,0,0,0,.05-.24.56.56,0,0,0-.05-.25.59.59,0,0,0-.14-.23.66.66,0,0,0-.23-.17.64.64,0,0,0-.58,0,.62.62,0,0,0-.22.17.61.61,0,0,0-.15.23A.74.74,0,0,0,261.3,76.61Z"/><path d="M40.39,192.45v0a1.42,1.42,0,0,1,.38-.13,1.84,1.84,0,0,1,.39,0,1.72,1.72,0,0,1,.68.13,1.42,1.42,0,0,1,.54.36,1.85,1.85,0,0,1,.36.57,2,2,0,0,1,.13.72,1.78,1.78,0,0,1-.15.74,1.6,1.6,0,0,1-.4.56,2,2,0,0,1-.6.35,2.4,2.4,0,0,1-1.5,0,2,2,0,0,1-.6-.35,1.6,1.6,0,0,1-.4-.56,1.78,1.78,0,0,1-.15-.74,2.24,2.24,0,0,1,.16-.86,5.19,5.19,0,0,1,.38-.74l1.5-2.39h.79Zm.59.43a1.23,1.23,0,0,0-.87.32,1.16,1.16,0,0,0-.26.38,1.31,1.31,0,0,0-.09.5,1.35,1.35,0,0,0,.09.5,1.23,1.23,0,0,0,.26.37,1,1,0,0,0,.39.24,1.32,1.32,0,0,0,1,0,1,1,0,0,0,.39-.24,1.23,1.23,0,0,0,.26-.37,1.35,1.35,0,0,0,.1-.5,1.31,1.31,0,0,0-.1-.5,1.16,1.16,0,0,0-.26-.38,1.23,1.23,0,0,0-.87-.32Z"/><path d="M43.46,192.92a7.07,7.07,0,0,1,.08-1,2.88,2.88,0,0,1,.3-.94,1.94,1.94,0,0,1,.59-.71,1.55,1.55,0,0,1,1-.27,1.6,1.6,0,0,1,1,.27,2,2,0,0,1,.59.71,3.13,3.13,0,0,1,.29.94,7.07,7.07,0,0,1,.08,1,7,7,0,0,1-.08,1,3.1,3.1,0,0,1-.29,1,2,2,0,0,1-.59.71,1.6,1.6,0,0,1-1,.27,1.55,1.55,0,0,1-1-.27,1.94,1.94,0,0,1-.59-.71,2.86,2.86,0,0,1-.3-1A7,7,0,0,1,43.46,192.92Zm.67,0c0,.14,0,.3,0,.47a4.43,4.43,0,0,0,.06.51,2.72,2.72,0,0,0,.13.51,1.51,1.51,0,0,0,.22.44,1.12,1.12,0,0,0,.34.31,1,1,0,0,0,1,0,1.12,1.12,0,0,0,.34-.31,1.83,1.83,0,0,0,.23-.44,3.81,3.81,0,0,0,.12-.51,4.43,4.43,0,0,0,.06-.51c0-.17,0-.33,0-.47s0-.29,0-.46a4.88,4.88,0,0,0-.06-.52,4.05,4.05,0,0,0-.12-.5,1.66,1.66,0,0,0-.23-.44,1,1,0,0,0-.34-.31,1,1,0,0,0-1,0,1,1,0,0,0-.34.31,1.4,1.4,0,0,0-.22.44,2.83,2.83,0,0,0-.13.5,4.88,4.88,0,0,0-.06.52C44.14,192.63,44.13,192.79,44.13,192.92Z"/><path d="M48.06,191.14a1.15,1.15,0,0,1,.33-.81,1.15,1.15,0,0,1,.37-.25,1.33,1.33,0,0,1,.45-.08,1.27,1.27,0,0,1,.44.08,1.15,1.15,0,0,1,.37.25A1.16,1.16,0,0,1,50,192a1.15,1.15,0,0,1-.37.25,1.27,1.27,0,0,1-.44.08,1.33,1.33,0,0,1-.45-.08,1.15,1.15,0,0,1-.37-.25,1.15,1.15,0,0,1-.33-.81Zm.43,0a.61.61,0,0,0,.06.25.79.79,0,0,0,.14.23.72.72,0,0,0,.22.17.73.73,0,0,0,.3.06.72.72,0,0,0,.29-.06.62.62,0,0,0,.22-.17,1.14,1.14,0,0,0,.15-.23.65.65,0,0,0,0-.5,1.14,1.14,0,0,0-.15-.23.62.62,0,0,0-.22-.17.72.72,0,0,0-.29-.06.73.73,0,0,0-.3.06.72.72,0,0,0-.22.17.79.79,0,0,0-.14.23A.61.61,0,0,0,48.49,191.14Z"/><path d="M39.15,81.22h-.67v-4.8h0l-1,.86-.4-.49,1.52-1.23h.58Z"/><path d="M41.07,80.45l2.14-2.08c.13-.12.25-.24.35-.35a2.16,2.16,0,0,0,.25-.32,1.09,1.09,0,0,0,.15-.33A1.38,1.38,0,0,0,44,77a1,1,0,0,0-.08-.4.84.84,0,0,0-.22-.3.78.78,0,0,0-.33-.19A1.05,1.05,0,0,0,43,76a1,1,0,0,0-.72.25,1.19,1.19,0,0,0-.36.65l-.72-.06a1.47,1.47,0,0,1,.21-.61,1.41,1.41,0,0,1,.39-.45,2,2,0,0,1,.53-.27,2.2,2.2,0,0,1,.64-.09,2.41,2.41,0,0,1,.67.1,2.06,2.06,0,0,1,.55.29,1.47,1.47,0,0,1,.37.48,1.6,1.6,0,0,1,.14.67,2,2,0,0,1-.09.61,2.34,2.34,0,0,1-.25.5,3.47,3.47,0,0,1-.35.43l-.41.4-1.75,1.64v0h2.89v.62H41.07Z"/><path d="M45.43,78.39a7,7,0,0,1,.07-1,3.52,3.52,0,0,1,.3-1,2,2,0,0,1,.59-.7,1.77,1.77,0,0,1,1.91,0,1.91,1.91,0,0,1,.59.7,3.52,3.52,0,0,1,.3,1,6.29,6.29,0,0,1,0,2,3.52,3.52,0,0,1-.3,1,1.91,1.91,0,0,1-.59.7,1.77,1.77,0,0,1-1.91,0,2,2,0,0,1-.59-.7,3.52,3.52,0,0,1-.3-1A7,7,0,0,1,45.43,78.39Zm.67,0c0,.14,0,.29,0,.46a4.6,4.6,0,0,0,.06.52,4.77,4.77,0,0,0,.13.51,2,2,0,0,0,.22.44,1.15,1.15,0,0,0,.35.31,1,1,0,0,0,.48.11,1.06,1.06,0,0,0,.48-.11,1.24,1.24,0,0,0,.34-.31,2,2,0,0,0,.22-.44,3.18,3.18,0,0,0,.13-.51,4.6,4.6,0,0,0,.06-.52c0-.17,0-.32,0-.46s0-.29,0-.46a4.35,4.35,0,0,0-.06-.52,3.18,3.18,0,0,0-.13-.51,2,2,0,0,0-.22-.44,1.24,1.24,0,0,0-.34-.31,1.06,1.06,0,0,0-.48-.11,1,1,0,0,0-.48.11,1.15,1.15,0,0,0-.35.31,2,2,0,0,0-.22.44,4.77,4.77,0,0,0-.13.51,4.35,4.35,0,0,0-.06.52C46.1,78.1,46.1,78.25,46.1,78.39Z"/><path d="M50,76.61a1.12,1.12,0,0,1,.08-.45,1.15,1.15,0,0,1,.25-.37,1.16,1.16,0,0,1,1.62,0,1.15,1.15,0,0,1,.25.37,1.33,1.33,0,0,1,.08.45,1.23,1.23,0,0,1-.08.44,1.15,1.15,0,0,1-.25.37,1.16,1.16,0,0,1-1.62,0,1.15,1.15,0,0,1-.25-.37A1,1,0,0,1,50,76.61Zm.43,0a.52.52,0,0,0,0,.24.72.72,0,0,0,.14.24.63.63,0,0,0,.23.16.64.64,0,0,0,.58,0,.73.73,0,0,0,.23-.16,1,1,0,0,0,.14-.24.69.69,0,0,0,.05-.24.75.75,0,0,0-.19-.48.76.76,0,0,0-.23-.17.64.64,0,0,0-.58,0,.66.66,0,0,0-.23.17.59.59,0,0,0-.14.23A.56.56,0,0,0,50.46,76.61Z"/></g><g id="numeri_fondo_tabella" data-name="numeri fondo tabella"><path d="M131.83,251.42a1.17,1.17,0,0,0-.43-.35,1.19,1.19,0,0,0-.51-.11,1.35,1.35,0,0,0-.55.11,1.08,1.08,0,0,0-.4.3,1.32,1.32,0,0,0-.23.44,1.76,1.76,0,0,0,0,1.08,1.43,1.43,0,0,0,.26.45,1.31,1.31,0,0,0,.39.3,1.27,1.27,0,0,0,.52.1,1.09,1.09,0,0,0,1-.46l.47.44a1.69,1.69,0,0,1-.64.46,2.29,2.29,0,0,1-.78.14,2.22,2.22,0,0,1-.79-.14,1.75,1.75,0,0,1-1-1,2.27,2.27,0,0,1,0-1.57,1.86,1.86,0,0,1,.39-.63,2,2,0,0,1,.61-.41,2,2,0,0,1,.79-.15,2.09,2.09,0,0,1,.79.15,1.59,1.59,0,0,1,.65.45Z"/><path d="M136.21,253.56h0a1.43,1.43,0,0,1-.55.54,1.7,1.7,0,0,1-.89.22,1.8,1.8,0,0,1-.73-.15,1.78,1.78,0,0,1-.6-.41,1.81,1.81,0,0,1-.39-.62,2.06,2.06,0,0,1-.15-.79,2,2,0,0,1,.15-.78,1.88,1.88,0,0,1,.4-.63,1.81,1.81,0,0,1,.62-.41,2.07,2.07,0,0,1,.8-.15,1.72,1.72,0,0,1,.75.17,1.78,1.78,0,0,1,.59.47h0v-2.84h.62v6h-.62Zm0-1.21a1.63,1.63,0,0,0-.09-.55,1.34,1.34,0,0,0-.27-.44,1.37,1.37,0,0,0-.42-.29,1.35,1.35,0,0,0-.55-.11,1.42,1.42,0,0,0-.55.11,1.22,1.22,0,0,0-.41.29,1.34,1.34,0,0,0-.27.44,1.56,1.56,0,0,0,0,1.1,1.25,1.25,0,0,0,.27.44,1.19,1.19,0,0,0,1,.4,1.35,1.35,0,0,0,.55-.1,1.6,1.6,0,0,0,.42-.3,1.25,1.25,0,0,0,.27-.44A1.63,1.63,0,0,0,136.21,252.35Z"/><path d="M140.1,254.57l-.5-.2,2.4-6.15.51.2Z"/><path d="M147.64,254.22H147v-4.8h0l-1,.86-.4-.49,1.52-1.23h.59Z"/><path d="M149.46,251.39a7.07,7.07,0,0,1,.08-1,3.19,3.19,0,0,1,.29-.95,2,2,0,0,1,.59-.7,1.61,1.61,0,0,1,1-.28,1.55,1.55,0,0,1,1,.28,1.91,1.91,0,0,1,.59.7,2.94,2.94,0,0,1,.3.95,6.29,6.29,0,0,1,0,2,2.94,2.94,0,0,1-.3,1,1.91,1.91,0,0,1-.59.7,1.49,1.49,0,0,1-1,.28,1.54,1.54,0,0,1-1-.28,2,2,0,0,1-.59-.7,3.19,3.19,0,0,1-.29-1A7.07,7.07,0,0,1,149.46,251.39Zm.67,0c0,.14,0,.29,0,.47a4.43,4.43,0,0,0,.06.51,4.7,4.7,0,0,0,.12.51,2,2,0,0,0,.23.44,1.12,1.12,0,0,0,.34.31,1.1,1.1,0,0,0,1,0,1.12,1.12,0,0,0,.34-.31,1.65,1.65,0,0,0,.22-.44,3.18,3.18,0,0,0,.13-.51,4.43,4.43,0,0,0,.06-.51c0-.18,0-.33,0-.47s0-.29,0-.46a4.6,4.6,0,0,0-.06-.52,3.18,3.18,0,0,0-.13-.51,1.65,1.65,0,0,0-.22-.44,1.08,1.08,0,0,0-.34-.3,1,1,0,0,0-1,0,1.08,1.08,0,0,0-.34.3,2,2,0,0,0-.23.44,4.7,4.7,0,0,0-.12.51,4.6,4.6,0,0,0-.06.52C150.14,251.1,150.13,251.25,150.13,251.39Z"/><path d="M153.91,251.39a5.85,5.85,0,0,1,.08-1,3.19,3.19,0,0,1,.29-.95,2,2,0,0,1,.59-.7,1.61,1.61,0,0,1,1-.28,1.55,1.55,0,0,1,.95.28,1.91,1.91,0,0,1,.59.7,3.2,3.2,0,0,1,.3.95,6.29,6.29,0,0,1,0,2,3.2,3.2,0,0,1-.3,1,1.91,1.91,0,0,1-.59.7,1.49,1.49,0,0,1-.95.28,1.54,1.54,0,0,1-1-.28,2,2,0,0,1-.59-.7,3.19,3.19,0,0,1-.29-1A5.85,5.85,0,0,1,153.91,251.39Zm.67,0a4,4,0,0,0,0,.47,4.43,4.43,0,0,0,.06.51,3.14,3.14,0,0,0,.12.51,1.67,1.67,0,0,0,.23.44,1,1,0,0,0,.34.31.9.9,0,0,0,.48.11,1,1,0,0,0,.48-.11,1.24,1.24,0,0,0,.34-.31,1.65,1.65,0,0,0,.22-.44,3.18,3.18,0,0,0,.13-.51,4.43,4.43,0,0,0,.06-.51c0-.18,0-.33,0-.47s0-.29,0-.46a4.6,4.6,0,0,0-.06-.52,3.18,3.18,0,0,0-.13-.51,1.65,1.65,0,0,0-.22-.44,1.21,1.21,0,0,0-.34-.3,1,1,0,0,0-.48-.12.9.9,0,0,0-.48.12,1,1,0,0,0-.34.3,1.67,1.67,0,0,0-.23.44,3.14,3.14,0,0,0-.12.51,4.6,4.6,0,0,0-.06.52A3.78,3.78,0,0,0,154.58,251.39Z"/><path d="M158.31,251.39a5.85,5.85,0,0,1,.08-1,3.19,3.19,0,0,1,.29-.95,2,2,0,0,1,.59-.7,1.61,1.61,0,0,1,1-.28,1.55,1.55,0,0,1,1,.28,1.91,1.91,0,0,1,.59.7,3.2,3.2,0,0,1,.3.95,6.29,6.29,0,0,1,0,2,3.2,3.2,0,0,1-.3,1,1.91,1.91,0,0,1-.59.7,1.49,1.49,0,0,1-1,.28,1.54,1.54,0,0,1-1-.28,2,2,0,0,1-.59-.7,3.19,3.19,0,0,1-.29-1A5.85,5.85,0,0,1,158.31,251.39Zm.67,0c0,.14,0,.29,0,.47a4.43,4.43,0,0,0,.06.51,3.14,3.14,0,0,0,.12.51,1.67,1.67,0,0,0,.23.44,1,1,0,0,0,.34.31.9.9,0,0,0,.48.11,1,1,0,0,0,.48-.11,1.24,1.24,0,0,0,.34-.31,1.65,1.65,0,0,0,.22-.44,3.18,3.18,0,0,0,.13-.51,4.43,4.43,0,0,0,.06-.51c0-.18,0-.33,0-.47s0-.29,0-.46a4.6,4.6,0,0,0-.06-.52,3.18,3.18,0,0,0-.13-.51,1.65,1.65,0,0,0-.22-.44,1.21,1.21,0,0,0-.34-.3,1,1,0,0,0-.48-.12.9.9,0,0,0-.48.12,1,1,0,0,0-.34.3,1.67,1.67,0,0,0-.23.44,3.14,3.14,0,0,0-.12.51,4.6,4.6,0,0,0-.06.52C159,251.1,159,251.25,159,251.39Z"/><path d="M165.32,248.18H166v6h-.63Z"/><path d="M167.19,251.37c0-.17,0-.33,0-.48s0-.29,0-.41h.59c0,.1,0,.2,0,.3v.32h0a.91.91,0,0,1,.18-.27,1.64,1.64,0,0,1,.28-.23,1.5,1.5,0,0,1,.36-.16,1.44,1.44,0,0,1,.43-.06,1.52,1.52,0,0,1,.51.08,1.36,1.36,0,0,1,.34.18.93.93,0,0,1,.21.24,1.64,1.64,0,0,1,.12.22,1.78,1.78,0,0,1,.48-.53,1.27,1.27,0,0,1,.71-.19,1.88,1.88,0,0,1,.67.11,1.1,1.1,0,0,1,.44.31,1.37,1.37,0,0,1,.24.5,2.59,2.59,0,0,1,.07.65v2.27h-.62V252a2.33,2.33,0,0,0,0-.37,1,1,0,0,0-.15-.33.71.71,0,0,0-.28-.23,1,1,0,0,0-.45-.09,1,1,0,0,0-.37.08,1,1,0,0,0-.31.22,1.13,1.13,0,0,0-.21.35,1.33,1.33,0,0,0-.07.45v2.16h-.63V252.1a1.62,1.62,0,0,0-.17-.88A.6.6,0,0,0,169,251a1.18,1.18,0,0,0-.52.1.88.88,0,0,0-.36.3,1.14,1.14,0,0,0-.21.46,2.1,2.1,0,0,0-.07.58v1.82h-.62Z"/><line class="cls-1" x1="38.21" y1="253" x2="46.2" y2="253"/><path d="M235.17,251a1.66,1.66,0,0,0-.63-.52,1.93,1.93,0,0,0-.79-.17,2.13,2.13,0,0,0-.87.19,2.16,2.16,0,0,0-.68.52,2.58,2.58,0,0,0-.45.75,2.69,2.69,0,0,0-.16.89,2.79,2.79,0,0,0,.16.93,2.41,2.41,0,0,0,.45.74,2,2,0,0,0,.68.5,1.92,1.92,0,0,0,.87.19,2,2,0,0,0,1.64-.8l.51.43a2.38,2.38,0,0,1-.93.75,3,3,0,0,1-1.22.24,2.85,2.85,0,0,1-1.13-.22,2.82,2.82,0,0,1-.92-.62,3,3,0,0,1-.61-.94,3.33,3.33,0,0,1-.22-1.2,3.19,3.19,0,0,1,.21-1.16,2.9,2.9,0,0,1,.6-1,3.08,3.08,0,0,1,.91-.63,3,3,0,0,1,2.27,0,2,2,0,0,1,.89.68Z"/><path d="M239,253.1l0,0a1.35,1.35,0,0,1-.37.13,2.87,2.87,0,0,1-.39,0,1.68,1.68,0,0,1-.68-.13,1.5,1.5,0,0,1-.55-.36,1.92,1.92,0,0,1-.36-.56,2.11,2.11,0,0,1-.12-.73,1.75,1.75,0,0,1,.14-.74,1.63,1.63,0,0,1,.4-.56,1.79,1.79,0,0,1,.6-.35,2.36,2.36,0,0,1,.75-.12,2.27,2.27,0,0,1,.75.12,1.94,1.94,0,0,1,.61.35,1.49,1.49,0,0,1,.39.56,1.75,1.75,0,0,1,.15.74,2.19,2.19,0,0,1,0,.46c0,.14-.07.27-.11.4a2.53,2.53,0,0,1-.18.37,3.35,3.35,0,0,1-.21.36l-1.5,2.4h-.79Zm-.6-.43a1.51,1.51,0,0,0,.48-.08,1.28,1.28,0,0,0,.39-.24,1.12,1.12,0,0,0,.26-.38,1.27,1.27,0,0,0,.1-.5,1.26,1.26,0,0,0-.1-.49,1,1,0,0,0-.26-.38,1,1,0,0,0-.39-.24,1.33,1.33,0,0,0-1,0,.88.88,0,0,0-.38.24,1.19,1.19,0,0,0-.27.38,1.26,1.26,0,0,0-.09.49,1.28,1.28,0,0,0,.09.5,1.31,1.31,0,0,0,.27.38,1.12,1.12,0,0,0,.38.24A1.51,1.51,0,0,0,238.35,252.67Z"/><path d="M240.88,252.62a7.07,7.07,0,0,1,.08-1,2.88,2.88,0,0,1,.3-.94,2,2,0,0,1,.58-.71,1.84,1.84,0,0,1,1.92,0,2,2,0,0,1,.58.71,2.88,2.88,0,0,1,.3.94,7.07,7.07,0,0,1,.08,1,7,7,0,0,1-.08,1,2.86,2.86,0,0,1-.3.95,2,2,0,0,1-.58.71,1.84,1.84,0,0,1-1.92,0,2,2,0,0,1-.58-.71,2.86,2.86,0,0,1-.3-.95A7,7,0,0,1,240.88,252.62Zm.67,0c0,.14,0,.3,0,.47a4.43,4.43,0,0,0,.06.51,2.72,2.72,0,0,0,.13.51,1.51,1.51,0,0,0,.22.44,1.12,1.12,0,0,0,.34.31,1,1,0,0,0,1,0,1.12,1.12,0,0,0,.34-.31,1.51,1.51,0,0,0,.22-.44,2.72,2.72,0,0,0,.13-.51,4.43,4.43,0,0,0,.06-.51c0-.17,0-.33,0-.47s0-.29,0-.46a4.88,4.88,0,0,0-.06-.52,2.83,2.83,0,0,0-.13-.5,1.4,1.4,0,0,0-.22-.44,1.12,1.12,0,0,0-.34-.31,1,1,0,0,0-1,0,1.12,1.12,0,0,0-.34.31,1.4,1.4,0,0,0-.22.44,2.83,2.83,0,0,0-.13.5,4.88,4.88,0,0,0-.06.52C241.56,252.33,241.55,252.49,241.55,252.62Z"/><path d="M247.78,255.8l-.51-.2,2.41-6.14.5.19Z"/><path d="M257.1,251a1.66,1.66,0,0,0-.63-.52,1.92,1.92,0,0,0-.78-.17,2.06,2.06,0,0,0-.87.19,2.16,2.16,0,0,0-.68.52,2.21,2.21,0,0,0-.45.75,2.46,2.46,0,0,0-.16.89,2.56,2.56,0,0,0,.16.93,2.2,2.2,0,0,0,.44.74,2.1,2.1,0,0,0,.68.5,2,2,0,0,0,.88.19,2,2,0,0,0,.93-.21,2,2,0,0,0,.71-.59l.5.43a2.29,2.29,0,0,1-.92.75,3,3,0,0,1-1.22.24,2.8,2.8,0,0,1-2.05-.84,2.82,2.82,0,0,1-.61-.94,3.13,3.13,0,0,1-.22-1.2,3.19,3.19,0,0,1,.21-1.16,2.75,2.75,0,0,1,.6-1,3,3,0,0,1,.91-.63,2.93,2.93,0,0,1,1.16-.23,3,3,0,0,1,1.11.21,2,2,0,0,1,.89.68Z"/><path d="M258.46,254.69l2.14-2.08.35-.36a1.75,1.75,0,0,0,.25-.32,1,1,0,0,0,.15-.32,1.46,1.46,0,0,0,0-.38,1,1,0,0,0-.08-.4.93.93,0,0,0-.22-.3,1.13,1.13,0,0,0-.73-.26,1,1,0,0,0-.71.25,1.11,1.11,0,0,0-.36.66l-.73-.07a1.91,1.91,0,0,1,.21-.61,1.28,1.28,0,0,1,.39-.44,1.77,1.77,0,0,1,.53-.27,2.25,2.25,0,0,1,.64-.09,2.09,2.09,0,0,1,.67.1,1.53,1.53,0,0,1,.55.29,1.47,1.47,0,0,1,.37.48,1.39,1.39,0,0,1,.14.66,1.91,1.91,0,0,1-.09.61,1.8,1.8,0,0,1-.25.5,2.86,2.86,0,0,1-.35.43l-.41.41-1.75,1.64h2.89v.63h-3.65Z"/><path d="M266.35,250.42l-2.26,5h-.76l2.3-5H262.9v-.63h3.45Z"/><path d="M267.26,252.62a7.07,7.07,0,0,1,.08-1,3.45,3.45,0,0,1,.3-.94,2,2,0,0,1,.59-.71,1.82,1.82,0,0,1,1.91,0,2,2,0,0,1,.59.71,3.45,3.45,0,0,1,.3.94,7,7,0,0,1,.07,1,6.92,6.92,0,0,1-.07,1,3.41,3.41,0,0,1-.3.95,2,2,0,0,1-.59.71,1.82,1.82,0,0,1-1.91,0,2,2,0,0,1-.59-.71,3.41,3.41,0,0,1-.3-.95A7,7,0,0,1,267.26,252.62Zm.68,0c0,.14,0,.3,0,.47a4.43,4.43,0,0,0,.06.51,2.72,2.72,0,0,0,.13.51,1.53,1.53,0,0,0,.23.44,1,1,0,0,0,.34.31.89.89,0,0,0,.47.12,1,1,0,0,0,.49-.12,1.08,1.08,0,0,0,.33-.31,1.53,1.53,0,0,0,.23-.44,2.72,2.72,0,0,0,.13-.51,4.43,4.43,0,0,0,.06-.51c0-.17,0-.33,0-.47s0-.29,0-.46a4.88,4.88,0,0,0-.06-.52,2.83,2.83,0,0,0-.13-.5,1.41,1.41,0,0,0-.23-.44,1.08,1.08,0,0,0-.33-.31,1,1,0,0,0-.49-.12.89.89,0,0,0-.47.12,1,1,0,0,0-.34.31,1.41,1.41,0,0,0-.23.44,2.83,2.83,0,0,0-.13.5,4.88,4.88,0,0,0-.06.52C267.94,252.33,267.94,252.49,267.94,252.62Z"/><path d="M52.87,251a1.55,1.55,0,0,0-.63-.51,1.82,1.82,0,0,0-.79-.18,2,2,0,0,0-.87.2,2.13,2.13,0,0,0-.68.51,2.58,2.58,0,0,0-.45.75,2.67,2.67,0,0,0,0,1.82,2.29,2.29,0,0,0,.45.74,1.88,1.88,0,0,0,.68.5,1.92,1.92,0,0,0,.87.19,2,2,0,0,0,.93-.21,2.07,2.07,0,0,0,.71-.58l.51.42a2.38,2.38,0,0,1-.93.75,3,3,0,0,1-1.22.24,2.85,2.85,0,0,1-1.13-.22,2.82,2.82,0,0,1-.92-.62,3,3,0,0,1-.61-.94,3.27,3.27,0,0,1-.22-1.19,3.2,3.2,0,0,1,.21-1.17,3,3,0,0,1,.6-.95,3.08,3.08,0,0,1,.91-.63,3,3,0,0,1,2.27,0,2,2,0,0,1,.89.68Z"/><path d="M54.13,252.62a7,7,0,0,1,.08-1,3.11,3.11,0,0,1,.3-1,1.94,1.94,0,0,1,.59-.71,1.55,1.55,0,0,1,.95-.27,1.6,1.6,0,0,1,1,.27,2,2,0,0,1,.59.71,3.1,3.1,0,0,1,.29,1,5.77,5.77,0,0,1,.08,1,5.85,5.85,0,0,1-.08,1,3.13,3.13,0,0,1-.29.94,2,2,0,0,1-.59.71,1.6,1.6,0,0,1-1,.27,1.55,1.55,0,0,1-.95-.27,1.94,1.94,0,0,1-.59-.71,3.14,3.14,0,0,1-.3-.94A7.07,7.07,0,0,1,54.13,252.62Zm.67,0c0,.13,0,.29,0,.46a4.88,4.88,0,0,0,.06.52,2.83,2.83,0,0,0,.13.5,1.4,1.4,0,0,0,.22.44,1.1,1.1,0,0,0,.34.31,1,1,0,0,0,.48.12.9.9,0,0,0,.48-.12.92.92,0,0,0,.34-.31,1.41,1.41,0,0,0,.23-.44,2.8,2.8,0,0,0,.12-.5,4.88,4.88,0,0,0,.06-.52,3.86,3.86,0,0,0,0-.46,3.94,3.94,0,0,0,0-.47,4.43,4.43,0,0,0-.06-.51,2.71,2.71,0,0,0-.12-.51,1.53,1.53,0,0,0-.23-.44,1,1,0,0,0-.34-.31.9.9,0,0,0-.48-.12,1,1,0,0,0-.48.12,1.24,1.24,0,0,0-.34.31,1.51,1.51,0,0,0-.22.44,2.72,2.72,0,0,0-.13.51,4.43,4.43,0,0,0-.06.51C54.81,252.32,54.8,252.48,54.8,252.62Z"/><path d="M61,255.79l-.51-.2,2.41-6.14.51.19Z"/><path d="M70.36,251a1.52,1.52,0,0,0-.64-.51,1.78,1.78,0,0,0-.78-.18,2,2,0,0,0-.87.2,2.13,2.13,0,0,0-.68.51,2.58,2.58,0,0,0-.45.75,2.51,2.51,0,0,0-.16.9,2.54,2.54,0,0,0,.16.92,2.46,2.46,0,0,0,.44.74,2.09,2.09,0,0,0,1.56.69,2,2,0,0,0,.93-.21,2.07,2.07,0,0,0,.71-.58l.5.42a2.29,2.29,0,0,1-.92.75,3,3,0,0,1-1.22.24,2.93,2.93,0,0,1-1.14-.22,2.88,2.88,0,0,1-.91-.62,3,3,0,0,1-.61-.94,3.07,3.07,0,0,1-.22-1.19,3.2,3.2,0,0,1,.21-1.17,2.84,2.84,0,0,1,.6-.95,3,3,0,0,1,.91-.63,2.93,2.93,0,0,1,1.16-.23,3,3,0,0,1,1.11.21,2,2,0,0,1,.89.68Z"/><path d="M74.2,255.45h-.68v-4.8h0l-1,.85-.4-.48,1.52-1.24h.59Z"/><path d="M76.37,251.17a1.33,1.33,0,0,1,.13-.61,1.2,1.2,0,0,1,.34-.46,1.44,1.44,0,0,1,.51-.3,1.92,1.92,0,0,1,1.28,0,1.44,1.44,0,0,1,.51.3,1.32,1.32,0,0,1,.34.46,1.48,1.48,0,0,1,.12.61,1.44,1.44,0,0,1-.06.4,1.41,1.41,0,0,1-.18.37,1.18,1.18,0,0,1-.3.29,1,1,0,0,1-.38.19h0a1.44,1.44,0,0,1,.46.19,1.35,1.35,0,0,1,.35.32,1.67,1.67,0,0,1,.23.44,1.7,1.7,0,0,1,.08.51,1.74,1.74,0,0,1-.14.69,1.46,1.46,0,0,1-.39.52,1.47,1.47,0,0,1-.57.33,2.35,2.35,0,0,1-1.42,0,1.59,1.59,0,0,1-.58-.33,1.43,1.43,0,0,1-.38-.52,1.74,1.74,0,0,1-.14-.69,1.7,1.7,0,0,1,.08-.51,1.65,1.65,0,0,1,.22-.44,1.59,1.59,0,0,1,.36-.32,1.44,1.44,0,0,1,.46-.19h0a1.18,1.18,0,0,1-.39-.19,1.33,1.33,0,0,1-.29-.29,1.41,1.41,0,0,1-.18-.37A1.16,1.16,0,0,1,76.37,251.17Zm.48,2.67a1.14,1.14,0,0,0,.09.46,1.21,1.21,0,0,0,.24.35,1.16,1.16,0,0,0,.36.23A1.13,1.13,0,0,0,78,255a1,1,0,0,0,.44-.09,1,1,0,0,0,.36-.23,1.07,1.07,0,0,0,.25-.35,1.36,1.36,0,0,0,0-.92,1.07,1.07,0,0,0-.25-.35,1,1,0,0,0-.36-.23,1,1,0,0,0-.44-.09,1.13,1.13,0,0,0-.45.09,1.16,1.16,0,0,0-.36.23,1.21,1.21,0,0,0-.24.35A1.14,1.14,0,0,0,76.85,253.84ZM77,251.2a.92.92,0,0,0,.26.67.93.93,0,0,0,.69.27.9.9,0,0,0,.68-.27,1,1,0,0,0,0-1.34.9.9,0,0,0-.68-.27.93.93,0,0,0-.69.27A.92.92,0,0,0,77,251.2Z"/><path d="M80.52,252.62a5.77,5.77,0,0,1,.08-1,3.1,3.1,0,0,1,.29-1,2,2,0,0,1,.59-.71,1.6,1.6,0,0,1,1-.27,1.55,1.55,0,0,1,1,.27,1.94,1.94,0,0,1,.59.71,3.41,3.41,0,0,1,.3,1,7,7,0,0,1,.08,1,7.07,7.07,0,0,1-.08,1,3.45,3.45,0,0,1-.3.94,1.94,1.94,0,0,1-.59.71,1.55,1.55,0,0,1-1,.27,1.6,1.6,0,0,1-1-.27,2,2,0,0,1-.59-.71,3.13,3.13,0,0,1-.29-.94A5.85,5.85,0,0,1,80.52,252.62Zm.67,0a3.86,3.86,0,0,0,0,.46c0,.17,0,.34.05.52a4.07,4.07,0,0,0,.13.5,1.41,1.41,0,0,0,.23.44.92.92,0,0,0,.34.31.9.9,0,0,0,.48.12,1,1,0,0,0,.48-.12,1.1,1.1,0,0,0,.34-.31,1.65,1.65,0,0,0,.22-.44,2.83,2.83,0,0,0,.13-.5,4.88,4.88,0,0,0,.06-.52c0-.17,0-.33,0-.46s0-.3,0-.47a4.43,4.43,0,0,0-.06-.51,2.72,2.72,0,0,0-.13-.51,1.81,1.81,0,0,0-.22-.44,1.24,1.24,0,0,0-.34-.31,1,1,0,0,0-.48-.12.9.9,0,0,0-.48.12,1,1,0,0,0-.34.31,1.53,1.53,0,0,0-.23.44,3.8,3.8,0,0,0-.13.51c0,.17,0,.34-.05.51A3.94,3.94,0,0,0,81.19,252.62Z"/><line class="cls-2" x1="214.49" y1="253.42" x2="215.03" y2="253.42"/><line class="cls-2" x1="217.76" y1="253.42" x2="218.3" y2="253.42"/><line class="cls-2" x1="221.02" y1="253.42" x2="221.56" y2="253.42"/><line class="cls-2" x1="224.29" y1="253.42" x2="224.83" y2="253.42"/><line class="cls-2" x1="227.55" y1="253.42" x2="228.09" y2="253.42"/></g><g id="Chapo_F1690057"><path d="M54.55,12.65h4.39v.78H55.39v2.34h3.3v.78h-3.3v3.18h-.84Z"/><path d="M62.83,19.73H62v-6h0L60.7,14.8l-.5-.61,1.9-1.54h.73Z"/><path d="M66.83,15.6l0,0a2,2,0,0,1,.47-.16,3,3,0,0,1,.48-.05,2.39,2.39,0,0,1,.86.16,2,2,0,0,1,.68.46,1.94,1.94,0,0,1,.44.7,2.44,2.44,0,0,1,.16.9,2.27,2.27,0,0,1-.18.93,1.87,1.87,0,0,1-.5.7,2.32,2.32,0,0,1-.75.44,3,3,0,0,1-1.87,0,2.48,2.48,0,0,1-.76-.44,2,2,0,0,1-.5-.7,2.27,2.27,0,0,1-.18-.93,3,3,0,0,1,.19-1.07,7.39,7.39,0,0,1,.48-.92l1.88-3h1Zm.74.53a1.73,1.73,0,0,0-.6.11,1.5,1.5,0,0,0-.48.3,1.43,1.43,0,0,0-.33.47,1.59,1.59,0,0,0-.12.62,1.57,1.57,0,0,0,.12.63,1.43,1.43,0,0,0,.33.47A1.5,1.5,0,0,0,67,19a1.72,1.72,0,0,0,.6.1,1.64,1.64,0,0,0,.6-.1,1.44,1.44,0,0,0,.49-.3,1.4,1.4,0,0,0,.32-.47,1.57,1.57,0,0,0,.12-.63A1.59,1.59,0,0,0,69,17a1.4,1.4,0,0,0-.32-.47,1.44,1.44,0,0,0-.49-.3A1.64,1.64,0,0,0,67.57,16.13Z"/><path d="M73.87,16.78l0,0a1.25,1.25,0,0,1-.46.16,2.37,2.37,0,0,1-1.34-.11,2,2,0,0,1-.68-.45,2.21,2.21,0,0,1-.45-.7,2.59,2.59,0,0,1-.16-.91,2.34,2.34,0,0,1,.18-.93,2,2,0,0,1,.5-.69,2.3,2.3,0,0,1,.76-.44,2.81,2.81,0,0,1,1.87,0,2.16,2.16,0,0,1,.75.44,1.92,1.92,0,0,1,.5.69,2.34,2.34,0,0,1,.18.93,2.52,2.52,0,0,1,0,.57,2.63,2.63,0,0,1-.14.5,4,4,0,0,1-.21.47q-.12.23-.27.45l-1.88,3H72Zm-.74-.53a1.64,1.64,0,0,0,.6-.1,1.44,1.44,0,0,0,.49-.3,1.4,1.4,0,0,0,.32-.47,1.57,1.57,0,0,0,.12-.63,1.59,1.59,0,0,0-.12-.62,1.4,1.4,0,0,0-.32-.47,1.44,1.44,0,0,0-.49-.3,1.64,1.64,0,0,0-.6-.11,1.73,1.73,0,0,0-.6.11,1.5,1.5,0,0,0-.48.3,1.43,1.43,0,0,0-.33.47,1.59,1.59,0,0,0-.12.62,1.57,1.57,0,0,0,.12.63,1.43,1.43,0,0,0,.33.47,1.5,1.5,0,0,0,.48.3A1.72,1.72,0,0,0,73.13,16.25Z"/><path d="M76.29,16.19a9.26,9.26,0,0,1,.1-1.25,4,4,0,0,1,.37-1.18,2.44,2.44,0,0,1,.74-.88,2.22,2.22,0,0,1,2.39,0,2.41,2.41,0,0,1,.73.88A3.71,3.71,0,0,1,81,14.94a7.88,7.88,0,0,1,.1,1.25,7.79,7.79,0,0,1-.1,1.25,3.77,3.77,0,0,1-.37,1.19,2.5,2.5,0,0,1-.73.88,2.27,2.27,0,0,1-2.39,0,2.53,2.53,0,0,1-.74-.88,4,4,0,0,1-.37-1.19A9.14,9.14,0,0,1,76.29,16.19Zm.84,0c0,.18,0,.37,0,.58s0,.43.08.65a4.47,4.47,0,0,0,.16.63,1.9,1.9,0,0,0,.28.55,1.55,1.55,0,0,0,.42.39,1.27,1.27,0,0,0,.6.14,1.21,1.21,0,0,0,.6-.14,1.45,1.45,0,0,0,.43-.39,1.9,1.9,0,0,0,.28-.55,4.47,4.47,0,0,0,.16-.63,4.78,4.78,0,0,0,.07-.65c0-.21,0-.4,0-.58s0-.36,0-.58A4.79,4.79,0,0,0,80,14.33a2,2,0,0,0-.28-.55,1.3,1.3,0,0,0-.43-.38,1.11,1.11,0,0,0-.6-.15,1.16,1.16,0,0,0-.6.15,1.37,1.37,0,0,0-.42.38,2,2,0,0,0-.28.55,4.61,4.61,0,0,0-.16.64c0,.21-.06.43-.08.64S77.13,16,77.13,16.19Z"/><path d="M81.85,16.19a9.26,9.26,0,0,1,.1-1.25,4,4,0,0,1,.37-1.18,2.44,2.44,0,0,1,.74-.88,2.22,2.22,0,0,1,2.39,0,2.41,2.41,0,0,1,.73.88,3.71,3.71,0,0,1,.37,1.18,7.88,7.88,0,0,1,.1,1.25,7.79,7.79,0,0,1-.1,1.25,3.77,3.77,0,0,1-.37,1.19,2.5,2.5,0,0,1-.73.88,2.27,2.27,0,0,1-2.39,0,2.53,2.53,0,0,1-.74-.88A4,4,0,0,1,82,17.44,9.14,9.14,0,0,1,81.85,16.19Zm.84,0c0,.18,0,.37,0,.58s0,.43.08.65a4.47,4.47,0,0,0,.16.63,1.9,1.9,0,0,0,.28.55,1.55,1.55,0,0,0,.42.39,1.27,1.27,0,0,0,.6.14,1.21,1.21,0,0,0,.6-.14,1.45,1.45,0,0,0,.43-.39,1.9,1.9,0,0,0,.28-.55,4.47,4.47,0,0,0,.16-.63,4.78,4.78,0,0,0,.07-.65c0-.21,0-.4,0-.58s0-.36,0-.58a4.79,4.79,0,0,0-.23-1.28,2,2,0,0,0-.28-.55,1.3,1.3,0,0,0-.43-.38,1.11,1.11,0,0,0-.6-.15,1.16,1.16,0,0,0-.6.15,1.37,1.37,0,0,0-.42.38,2,2,0,0,0-.28.55,4.61,4.61,0,0,0-.16.64c0,.21-.06.43-.08.64S82.69,16,82.69,16.19Z"/><path d="M91.77,13.43H88.88l0,1.91a1.67,1.67,0,0,1,.45-.13,2.53,2.53,0,0,1,.46,0,2.34,2.34,0,0,1,.93.18,2,2,0,0,1,.71.49,2,2,0,0,1,.46.74,2.71,2.71,0,0,1,0,1.89,2.13,2.13,0,0,1-.51.74,2.31,2.31,0,0,1-.77.47,2.57,2.57,0,0,1-1,.17,2.15,2.15,0,0,1-1.3-.35,2.44,2.44,0,0,1-.79-.94l.84-.32a1.61,1.61,0,0,0,.53.65,1.34,1.34,0,0,0,.79.24,1.64,1.64,0,0,0,.6-.11,1.58,1.58,0,0,0,.48-.33,1.62,1.62,0,0,0,.32-.52,1.78,1.78,0,0,0,.12-.67,1.67,1.67,0,0,0-.13-.69,1.34,1.34,0,0,0-.37-.5,1.53,1.53,0,0,0-.56-.31,2.17,2.17,0,0,0-.69-.11,2.22,2.22,0,0,0-.74.13,4,4,0,0,0-.7.31l.07-3.68h3.71Z"/><path d="M97.39,13.43l-2.83,6.3h-1l2.88-6.3H93.07v-.78h4.32Z"/><path d="M98.15,20.48h5V21h-5Z"/><path d="M103.91,14.38a1.88,1.88,0,0,1,.16-.76,1.73,1.73,0,0,1,.42-.58,2,2,0,0,1,.64-.37,2.36,2.36,0,0,1,.8-.14,2.28,2.28,0,0,1,.8.14,1.92,1.92,0,0,1,.64.37,1.76,1.76,0,0,1,.43.58,1.87,1.87,0,0,1,.15.76,1.42,1.42,0,0,1-.08.5,1.53,1.53,0,0,1-.23.46,1.58,1.58,0,0,1-.36.37,1.23,1.23,0,0,1-.49.23v0a1.77,1.77,0,0,1,.58.24,1.54,1.54,0,0,1,.44.4,1.68,1.68,0,0,1,.28.55,1.89,1.89,0,0,1,.1.63,2,2,0,0,1-.17.87,2.07,2.07,0,0,1-.48.65,2,2,0,0,1-.72.41,2.87,2.87,0,0,1-1.77,0,2,2,0,0,1-.72-.41,2.07,2.07,0,0,1-.48-.65,2.05,2.05,0,0,1-.18-.87,2.19,2.19,0,0,1,.1-.63,1.9,1.9,0,0,1,.28-.55,1.68,1.68,0,0,1,.44-.4,2,2,0,0,1,.58-.24v0a1.19,1.19,0,0,1-.48-.23,1.62,1.62,0,0,1-.37-.37,1.8,1.8,0,0,1-.23-.46A1.69,1.69,0,0,1,103.91,14.38Zm.6,3.34a1.48,1.48,0,0,0,.11.57,1.44,1.44,0,0,0,.31.45,1.51,1.51,0,0,0,.45.29,1.42,1.42,0,0,0,.55.1,1.47,1.47,0,0,0,.56-.1,1.51,1.51,0,0,0,.45-.29,1.27,1.27,0,0,0,.3-.45,1.32,1.32,0,0,0,.11-.57,1.38,1.38,0,0,0-.11-.57,1.23,1.23,0,0,0-.3-.44,1.34,1.34,0,0,0-.45-.29,1.47,1.47,0,0,0-.56-.11,1.42,1.42,0,0,0-.55.11,1.34,1.34,0,0,0-.45.29,1.4,1.4,0,0,0-.31.44A1.56,1.56,0,0,0,104.51,17.72Zm.24-3.3a1.13,1.13,0,0,0,1.18,1.17,1.15,1.15,0,0,0,.86-.33,1.26,1.26,0,0,0,0-1.68,1.27,1.27,0,0,0-1.71,0A1.14,1.14,0,0,0,104.75,14.42Z"/><path d="M108.77,12.65h.93l1.61,5.88h0l1.74-5.88H114l1.73,5.88h0l1.64-5.88h.88l-2.08,7.08h-.91l-1.75-6h0l-1.76,6h-.92Z"/><path d="M121.93,12.65h.84V19H126v.78h-4.08Z"/><path d="M126.93,12.65h4.45v.78h-3.61v2.22h3.37v.78h-3.37V19h3.79v.78h-4.63Z"/><path d="M132.73,12.65h2.72a3.89,3.89,0,0,1,.74.08A4,4,0,0,1,137,13a3.57,3.57,0,0,1,.74.45,2.89,2.89,0,0,1,.62.68,3.07,3.07,0,0,1,.43.91,3.78,3.78,0,0,1,.16,1.16,3.85,3.85,0,0,1-.16,1.17,3.32,3.32,0,0,1-.43.91,2.84,2.84,0,0,1-.62.67,3.63,3.63,0,0,1-.74.46,3.92,3.92,0,0,1-.78.25,3.22,3.22,0,0,1-.74.08h-2.72Zm.84,6.3h1.6a3.67,3.67,0,0,0,1.13-.16,2.31,2.31,0,0,0,.9-.49,2.22,2.22,0,0,0,.6-.86,3.11,3.11,0,0,0,.22-1.25,3.17,3.17,0,0,0-.22-1.25,2.19,2.19,0,0,0-.6-.85,2.33,2.33,0,0,0-.9-.5,4,4,0,0,0-1.13-.16h-1.6Z"/><rect class="cls-3" x="54.76" y="41.63" width="189.86" height="189.86"/><circle class="cls-4" cx="149.69" cy="136.51" r="23.71"/><path d="M151.74,167.5l2.14-2.08.35-.36a1.85,1.85,0,0,0,.25-.32,1,1,0,0,0,.15-.32,1.46,1.46,0,0,0,.05-.38,1.06,1.06,0,0,0-.08-.4,1.29,1.29,0,0,0-.22-.3,1.13,1.13,0,0,0-.74-.26,1.08,1.08,0,0,0-.71.25,1.26,1.26,0,0,0-.36.66l-.73-.07a1.78,1.78,0,0,1,.22-.61,1.38,1.38,0,0,1,.39-.44,1.66,1.66,0,0,1,.53-.27,2.2,2.2,0,0,1,.64-.09,2.09,2.09,0,0,1,.67.1,1.48,1.48,0,0,1,.54.29,1.37,1.37,0,0,1,.38.48,1.53,1.53,0,0,1,.14.66,1.91,1.91,0,0,1-.09.61,2.13,2.13,0,0,1-.25.5,2.86,2.86,0,0,1-.35.43l-.41.41-1.75,1.64h2.89v.63h-3.65Z"/><path d="M155.89,165.44a7,7,0,0,1,.08-1,3.11,3.11,0,0,1,.3-.95,1.94,1.94,0,0,1,.59-.71,1.55,1.55,0,0,1,.95-.27,1.6,1.6,0,0,1,1,.27,2,2,0,0,1,.59.71,3.1,3.1,0,0,1,.29.95,5.77,5.77,0,0,1,.08,1,5.85,5.85,0,0,1-.08,1,3.13,3.13,0,0,1-.29.94,2,2,0,0,1-.59.71,1.6,1.6,0,0,1-1,.27,1.55,1.55,0,0,1-.95-.27,1.94,1.94,0,0,1-.59-.71,3.14,3.14,0,0,1-.3-.94A7.07,7.07,0,0,1,155.89,165.44Zm.67,0c0,.14,0,.29,0,.46a4.88,4.88,0,0,0,.06.52,2.83,2.83,0,0,0,.13.5,1.65,1.65,0,0,0,.22.44,1.24,1.24,0,0,0,.34.31,1,1,0,0,0,.48.12.9.9,0,0,0,.48-.12,1,1,0,0,0,.34-.31,1.41,1.41,0,0,0,.23-.44,4.07,4.07,0,0,0,.13-.5c0-.18,0-.35,0-.52a3.78,3.78,0,0,0,0-.46,3.94,3.94,0,0,0,0-.47c0-.17,0-.34,0-.51a3.8,3.8,0,0,0-.13-.51,1.53,1.53,0,0,0-.23-.44,1,1,0,0,0-.34-.31.9.9,0,0,0-.48-.12,1,1,0,0,0-.48.12,1.24,1.24,0,0,0-.34.31,1.81,1.81,0,0,0-.22.44,2.72,2.72,0,0,0-.13.51,4.43,4.43,0,0,0-.06.51C156.57,165.14,156.56,165.3,156.56,165.44Z"/><path d="M160.14,165.44a7,7,0,0,1,.08-1,2.86,2.86,0,0,1,.3-.95,2,2,0,0,1,.58-.71,1.84,1.84,0,0,1,1.92,0,2,2,0,0,1,.58.71,2.86,2.86,0,0,1,.3.95,7,7,0,0,1,.08,1,7.07,7.07,0,0,1-.08,1,2.88,2.88,0,0,1-.3.94,2,2,0,0,1-.58.71,1.84,1.84,0,0,1-1.92,0,2,2,0,0,1-.58-.71,2.88,2.88,0,0,1-.3-.94A7.07,7.07,0,0,1,160.14,165.44Zm.67,0c0,.14,0,.29,0,.46a4.88,4.88,0,0,0,.06.52,2.83,2.83,0,0,0,.13.5,1.4,1.4,0,0,0,.22.44,1.12,1.12,0,0,0,.34.31,1,1,0,0,0,1,0,1.12,1.12,0,0,0,.34-.31,1.4,1.4,0,0,0,.22-.44,2.83,2.83,0,0,0,.13-.5,4.88,4.88,0,0,0,.06-.52c0-.17,0-.32,0-.46s0-.3,0-.47a4.43,4.43,0,0,0-.06-.51,2.72,2.72,0,0,0-.13-.51,1.51,1.51,0,0,0-.22-.44,1.12,1.12,0,0,0-.34-.31,1,1,0,0,0-1,0,1.12,1.12,0,0,0-.34.31,1.51,1.51,0,0,0-.22.44,2.72,2.72,0,0,0-.13.51,4.43,4.43,0,0,0-.06.51C160.82,165.14,160.81,165.3,160.81,165.44Z"/><circle class="cls-4" cx="149.69" cy="136.51" r="47.41"/><path d="M154.69,190.05h.82v.63h-.82V192H154v-1.29h-2.4v-.75l2.25-3.62h.82Zm-.67-3h0l-1.8,3H154Z"/><path d="M155.89,189.14a7.07,7.07,0,0,1,.08-1,3.3,3.3,0,0,1,.3-.95,1.91,1.91,0,0,1,.59-.7,1.55,1.55,0,0,1,.95-.28,1.61,1.61,0,0,1,1,.28,2,2,0,0,1,.59.7,3.28,3.28,0,0,1,.29.95,5.85,5.85,0,0,1,.08,1,5.77,5.77,0,0,1-.08,1,3.19,3.19,0,0,1-.29,1,1.92,1.92,0,0,1-.59.7,1.54,1.54,0,0,1-1,.28,1.49,1.49,0,0,1-.95-.28,1.83,1.83,0,0,1-.59-.7,3.2,3.2,0,0,1-.3-1A7,7,0,0,1,155.89,189.14Zm.67,0c0,.14,0,.3,0,.47a4.43,4.43,0,0,0,.06.51,2.93,2.93,0,0,0,.13.51,1.81,1.81,0,0,0,.22.44,1.24,1.24,0,0,0,.34.31,1,1,0,0,0,.48.11.9.9,0,0,0,.48-.11,1,1,0,0,0,.34-.31,1.53,1.53,0,0,0,.23-.44,4.23,4.23,0,0,0,.13-.51c0-.17,0-.34,0-.51a3.94,3.94,0,0,0,0-.47,3.78,3.78,0,0,0,0-.46c0-.17,0-.34,0-.52a4.77,4.77,0,0,0-.13-.51,1.67,1.67,0,0,0-.23-.44,1,1,0,0,0-.34-.3.9.9,0,0,0-.48-.12,1,1,0,0,0-.48.12,1.21,1.21,0,0,0-.34.3,2,2,0,0,0-.22.44,3.18,3.18,0,0,0-.13.51,4.88,4.88,0,0,0-.06.52C156.57,188.85,156.56,189,156.56,189.14Z"/><path d="M160.14,189.14a7.07,7.07,0,0,1,.08-1,3,3,0,0,1,.3-.95,2,2,0,0,1,.58-.7,1.79,1.79,0,0,1,1.92,0,2,2,0,0,1,.58.7,3,3,0,0,1,.3.95,7.07,7.07,0,0,1,.08,1,7,7,0,0,1-.08,1,2.94,2.94,0,0,1-.3,1,1.9,1.9,0,0,1-.58.7,1.79,1.79,0,0,1-1.92,0,1.9,1.9,0,0,1-.58-.7,2.94,2.94,0,0,1-.3-1A7,7,0,0,1,160.14,189.14Zm.67,0c0,.14,0,.3,0,.47a4.43,4.43,0,0,0,.06.51,2.93,2.93,0,0,0,.13.51,1.51,1.51,0,0,0,.22.44,1.12,1.12,0,0,0,.34.31,1.1,1.1,0,0,0,1,0,1.12,1.12,0,0,0,.34-.31,1.51,1.51,0,0,0,.22-.44,2.93,2.93,0,0,0,.13-.51,4.43,4.43,0,0,0,.06-.51c0-.17,0-.33,0-.47s0-.29,0-.46a4.88,4.88,0,0,0-.06-.52,3.18,3.18,0,0,0-.13-.51,1.65,1.65,0,0,0-.22-.44,1.08,1.08,0,0,0-.34-.3,1,1,0,0,0-1,0,1.08,1.08,0,0,0-.34.3,1.65,1.65,0,0,0-.22.44,3.18,3.18,0,0,0-.13.51,4.88,4.88,0,0,0-.06.52C160.82,188.85,160.81,189,160.81,189.14Z"/><circle class="cls-4" cx="149.69" cy="136.51" r="71.17"/><path d="M153,212.43l0,0a1.08,1.08,0,0,1,.37-.13,1.84,1.84,0,0,1,.39,0,1.72,1.72,0,0,1,.68.13,1.46,1.46,0,0,1,.55.36,1.71,1.71,0,0,1,.35.56,1.88,1.88,0,0,1,.13.72,2,2,0,0,1-.14.75,1.59,1.59,0,0,1-.4.55,1.86,1.86,0,0,1-.61.36,2.37,2.37,0,0,1-1.49,0,1.76,1.76,0,0,1-.61-.36,1.59,1.59,0,0,1-.4-.55,2,2,0,0,1-.14-.75,2.22,2.22,0,0,1,.15-.85,4.4,4.4,0,0,1,.39-.74l1.5-2.39h.78Zm.59.42a1.28,1.28,0,0,0-.48.09,1.12,1.12,0,0,0-.64.62,1.13,1.13,0,0,0-.1.49,1.12,1.12,0,0,0,.1.5,1,1,0,0,0,.26.38,1.36,1.36,0,0,0,.38.24,1.27,1.27,0,0,0,.48.08,1.21,1.21,0,0,0,.48-.08,1.28,1.28,0,0,0,.39-.24,1,1,0,0,0,.26-.38,1.12,1.12,0,0,0,.1-.5,1.13,1.13,0,0,0-.1-.49,1,1,0,0,0-.26-.38,1,1,0,0,0-.39-.24A1.21,1.21,0,0,0,153.56,212.85Z"/><path d="M155.89,212.9a7.07,7.07,0,0,1,.08-1,3.3,3.3,0,0,1,.3-1,1.91,1.91,0,0,1,.59-.7,1.55,1.55,0,0,1,.95-.28,1.61,1.61,0,0,1,1,.28,2,2,0,0,1,.59.7,3.28,3.28,0,0,1,.29,1,5.85,5.85,0,0,1,.08,1,5.77,5.77,0,0,1-.08,1,3.1,3.1,0,0,1-.29.95,1.92,1.92,0,0,1-.59.7,1.54,1.54,0,0,1-1,.28,1.49,1.49,0,0,1-.95-.28,1.83,1.83,0,0,1-.59-.7,3.11,3.11,0,0,1-.3-.95A7,7,0,0,1,155.89,212.9Zm.67,0c0,.14,0,.3,0,.47a4.43,4.43,0,0,0,.06.51,2.72,2.72,0,0,0,.13.51,1.81,1.81,0,0,0,.22.44,1.24,1.24,0,0,0,.34.31,1,1,0,0,0,.48.11.9.9,0,0,0,.48-.11,1,1,0,0,0,.34-.31,1.53,1.53,0,0,0,.23-.44,3.8,3.8,0,0,0,.13-.51c0-.17,0-.34,0-.51a3.94,3.94,0,0,0,0-.47,3.78,3.78,0,0,0,0-.46c0-.17,0-.34,0-.52a4.77,4.77,0,0,0-.13-.51,1.67,1.67,0,0,0-.23-.44,1,1,0,0,0-.34-.3.9.9,0,0,0-.48-.12,1,1,0,0,0-.48.12,1.21,1.21,0,0,0-.34.3,2,2,0,0,0-.22.44,3.18,3.18,0,0,0-.13.51,4.88,4.88,0,0,0-.06.52C156.57,212.61,156.56,212.76,156.56,212.9Z"/><path d="M160.14,212.9a7.07,7.07,0,0,1,.08-1,3,3,0,0,1,.3-1,2,2,0,0,1,.58-.7,1.79,1.79,0,0,1,1.92,0,2,2,0,0,1,.58.7,3,3,0,0,1,.3,1,7.07,7.07,0,0,1,.08,1,7,7,0,0,1-.08,1,2.86,2.86,0,0,1-.3.95,1.9,1.9,0,0,1-.58.7,1.79,1.79,0,0,1-1.92,0,1.9,1.9,0,0,1-.58-.7,2.86,2.86,0,0,1-.3-.95A7,7,0,0,1,160.14,212.9Zm.67,0c0,.14,0,.3,0,.47a4.43,4.43,0,0,0,.06.51,2.72,2.72,0,0,0,.13.51,1.51,1.51,0,0,0,.22.44,1.12,1.12,0,0,0,.34.31,1.1,1.1,0,0,0,1,0,1.12,1.12,0,0,0,.34-.31,1.51,1.51,0,0,0,.22-.44,2.72,2.72,0,0,0,.13-.51,4.43,4.43,0,0,0,.06-.51c0-.17,0-.33,0-.47s0-.29,0-.46a4.88,4.88,0,0,0-.06-.52,3.18,3.18,0,0,0-.13-.51,1.65,1.65,0,0,0-.22-.44,1.08,1.08,0,0,0-.34-.3,1,1,0,0,0-1,0,1.08,1.08,0,0,0-.34.3,1.65,1.65,0,0,0-.22.44,3.18,3.18,0,0,0-.13.51,4.88,4.88,0,0,0-.06.52C160.82,212.61,160.81,212.76,160.81,212.9Z"/><circle class="cls-4" cx="149.69" cy="136.51" r="94.93"/><line class="cls-4" x1="54.76" y1="136.57" x2="244.68" y2="136.57"/><line class="cls-4" x1="149.69" y1="231.5" x2="149.69" y2="41.58"/><line class="cls-4" x1="94.94" y1="41.58" x2="204.5" y2="231.5"/><line class="cls-4" x1="94.94" y1="231.5" x2="204.5" y2="41.58"/><line class="cls-4" x1="54.76" y1="81.76" x2="244.68" y2="191.32"/><line class="cls-4" x1="54.76" y1="191.32" x2="244.68" y2="81.76"/><line class="cls-5" x1="149.69" y1="189.54" x2="150.61" y2="189.59"/><line class="cls-5" x1="150.61" y1="189.59" x2="151.53" y2="189.7"/><line class="cls-5" x1="151.53" y1="189.7" x2="152.5" y2="189.76"/><line class="cls-5" x1="152.5" y1="189.76" x2="153.42" y2="189.81"/><line class="cls-5" x1="153.42" y1="189.81" x2="154.34" y2="189.86"/><line class="cls-5" x1="154.34" y1="189.86" x2="155.31" y2="189.97"/><line class="cls-5" x1="155.31" y1="189.97" x2="156.28" y2="190.03"/><line class="cls-5" x1="156.28" y1="190.03" x2="157.25" y2="190.19"/><line class="cls-5" x1="157.25" y1="190.19" x2="158.22" y2="190.4"/><line class="cls-5" x1="158.22" y1="190.4" x2="159.25" y2="190.84"/><line class="cls-5" x1="159.25" y1="190.84" x2="160.71" y2="193.21"/><line class="cls-5" x1="160.71" y1="193.21" x2="161.63" y2="192.67"/><line class="cls-5" x1="161.63" y1="192.67" x2="162.87" y2="193.64"/><line class="cls-5" x1="162.87" y1="193.64" x2="163.84" y2="193.32"/><line class="cls-5" x1="163.84" y1="193.32" x2="164.92" y2="193.37"/><line class="cls-5" x1="164.92" y1="193.37" x2="165.89" y2="192.94"/><line class="cls-5" x1="165.89" y1="192.94" x2="166.7" y2="192.13"/><line class="cls-5" x1="166.7" y1="192.13" x2="167.73" y2="192.02"/><line class="cls-5" x1="167.73" y1="192.02" x2="168.7" y2="191.75"/><line class="cls-5" x1="168.7" y1="191.75" x2="169.51" y2="190.94"/><line class="cls-5" x1="169.51" y1="190.94" x2="170.37" y2="190.4"/><line class="cls-5" x1="170.37" y1="190.4" x2="171.24" y2="189.92"/><line class="cls-5" x1="171.24" y1="189.92" x2="172.21" y2="189.59"/><line class="cls-5" x1="172.21" y1="189.59" x2="173.02" y2="188.95"/><line class="cls-5" x1="173.02" y1="188.95" x2="173.72" y2="188.03"/><line class="cls-5" x1="173.72" y1="188.03" x2="174.37" y2="187.11"/><line class="cls-5" x1="174.37" y1="187.11" x2="175.13" y2="186.41"/><line class="cls-5" x1="175.13" y1="186.41" x2="175.83" y2="185.65"/><line class="cls-5" x1="175.83" y1="185.65" x2="176.42" y2="184.73"/><line class="cls-5" x1="176.42" y1="184.73" x2="176.96" y2="183.71"/><line class="cls-5" x1="176.96" y1="183.71" x2="177.5" y2="182.79"/><line class="cls-5" x1="177.5" y1="182.79" x2="177.99" y2="181.82"/><line class="cls-5" x1="177.99" y1="181.82" x2="178.42" y2="180.74"/><line class="cls-5" x1="178.42" y1="180.74" x2="178.85" y2="179.77"/><line class="cls-5" x1="178.85" y1="179.77" x2="179.23" y2="178.69"/><line class="cls-5" x1="179.23" y1="178.69" x2="179.61" y2="177.71"/><line class="cls-5" x1="179.61" y1="177.71" x2="179.88" y2="176.58"/><line class="cls-5" x1="179.88" y1="176.58" x2="180.09" y2="175.39"/><line class="cls-5" x1="180.09" y1="175.39" x2="180.26" y2="174.26"/><line class="cls-5" x1="180.26" y1="174.26" x2="180.42" y2="173.18"/><line class="cls-5" x1="180.42" y1="173.18" x2="180.58" y2="172.04"/><line class="cls-5" x1="180.58" y1="172.04" x2="180.63" y2="170.91"/><line class="cls-5" x1="180.63" y1="170.91" x2="180.69" y2="169.78"/><line class="cls-5" x1="180.69" y1="169.78" x2="180.63" y2="168.59"/><line class="cls-5" x1="180.63" y1="168.59" x2="180.53" y2="167.35"/><line class="cls-5" x1="180.53" y1="167.35" x2="180.36" y2="166.1"/><line class="cls-5" x1="180.36" y1="166.1" x2="180.09" y2="164.86"/><line class="cls-5" x1="180.09" y1="164.86" x2="179.82" y2="163.67"/><line class="cls-5" x1="179.82" y1="163.67" x2="179.55" y2="162.43"/><line class="cls-5" x1="179.55" y1="162.43" x2="179.12" y2="161.19"/><line class="cls-5" x1="179.12" y1="161.19" x2="178.53" y2="159.89"/><line class="cls-5" x1="178.53" y1="159.89" x2="177.93" y2="158.6"/><line class="cls-5" x1="177.93" y1="158.6" x2="177.23" y2="157.25"/><line class="cls-5" x1="177.23" y1="157.25" x2="176.37" y2="155.9"/><line class="cls-5" x1="176.37" y1="155.9" x2="175.4" y2="154.49"/><line class="cls-5" x1="175.4" y1="154.49" x2="174.15" y2="153.04"/><line class="cls-5" x1="174.15" y1="153.04" x2="172.75" y2="151.47"/><line class="cls-5" x1="172.75" y1="151.47" x2="171.02" y2="149.85"/><line class="cls-5" x1="171.02" y1="149.85" x2="169.13" y2="148.18"/><line class="cls-5" x1="169.13" y1="148.18" x2="166.97" y2="146.5"/><line class="cls-5" x1="166.97" y1="146.5" x2="164.65" y2="144.83"/><line class="cls-5" x1="164.65" y1="144.83" x2="162.44" y2="143.32"/><line class="cls-5" x1="162.44" y1="143.32" x2="160.22" y2="141.91"/><line class="cls-5" x1="160.22" y1="141.91" x2="158.17" y2="140.62"/><line class="cls-5" x1="158.17" y1="140.62" x2="156.28" y2="139.59"/><line class="cls-5" x1="156.28" y1="139.59" x2="154.71" y2="138.78"/><line class="cls-5" x1="154.71" y1="138.78" x2="153.53" y2="138.13"/><line class="cls-5" x1="153.53" y1="138.13" x2="152.61" y2="137.7"/><line class="cls-5" x1="152.61" y1="137.7" x2="151.96" y2="137.38"/><line class="cls-5" x1="151.96" y1="137.38" x2="151.58" y2="137.21"/><line class="cls-5" x1="151.58" y1="137.21" x2="151.26" y2="137.05"/><line class="cls-5" x1="151.26" y1="137.05" x2="151.1" y2="136.94"/><line class="cls-5" x1="151.1" y1="136.94" x2="150.93" y2="136.89"/><line class="cls-5" x1="150.93" y1="136.89" x2="150.77" y2="136.84"/><line class="cls-5" x1="150.77" y1="136.84" x2="150.66" y2="136.78"/><line class="cls-5" x1="150.66" y1="136.78" x2="150.5" y2="136.73"/><line class="cls-5" x1="150.5" y1="136.73" x2="150.45" y2="136.67"/><line class="cls-5" x1="150.45" y1="136.67" x2="150.39" y2="136.67"/><line class="cls-5" x1="150.39" y1="136.67" x2="150.29" y2="136.62"/><line class="cls-5" x1="150.29" y1="136.62" x2="150.23" y2="136.62"/><line class="cls-5" x1="150.23" y1="136.62" x2="150.18" y2="136.57"/><line class="cls-5" x1="150.18" y1="136.57" x2="150.12" y2="136.57"/><line class="cls-5" x1="150.12" y1="136.57" x2="150.07" y2="136.57"/><line class="cls-5" x1="150.07" y1="136.57" x2="150.02" y2="136.57"/><line class="cls-5" x1="150.02" y1="136.57" x2="149.96" y2="136.57"/><line class="cls-5" x1="149.96" y1="136.57" x2="149.91" y2="136.57"/><line class="cls-5" x1="149.91" y1="136.57" x2="149.85" y2="136.57"/><line class="cls-5" x1="149.85" y1="136.57" x2="149.85" y2="136.57"/><line class="cls-5" x1="149.85" y1="136.57" x2="149.8" y2="136.57"/><line class="cls-5" x1="149.8" y1="136.57" x2="149.75" y2="136.57"/><line class="cls-5" x1="149.75" y1="136.57" x2="149.91" y2="136.57"/><line class="cls-5" x1="149.91" y1="136.57" x2="149.91" y2="136.57"/><line class="cls-5" x1="149.91" y1="136.57" x2="149.91" y2="136.57"/><line class="cls-5" x1="149.91" y1="136.57" x2="149.91" y2="136.57"/><line class="cls-5" x1="149.91" y1="136.57" x2="149.96" y2="136.57"/><line class="cls-5" x1="149.96" y1="136.57" x2="149.96" y2="136.51"/><line class="cls-5" x1="149.96" y1="136.51" x2="150.07" y2="136.51"/><line class="cls-5" x1="150.07" y1="136.51" x2="150.23" y2="136.51"/><line class="cls-5" x1="150.23" y1="136.51" x2="150.12" y2="136.51"/><line class="cls-5" x1="150.12" y1="136.51" x2="150.07" y2="136.51"/><line class="cls-5" x1="150.07" y1="136.51" x2="150.07" y2="136.51"/><line class="cls-5" x1="150.07" y1="136.51" x2="150.07" y2="136.51"/><line class="cls-5" x1="150.07" y1="136.51" x2="150.07" y2="136.46"/><line class="cls-5" x1="150.07" y1="136.46" x2="150.07" y2="136.46"/><line class="cls-5" x1="150.07" y1="136.46" x2="150.07" y2="136.46"/><line class="cls-5" x1="150.07" y1="136.46" x2="150.07" y2="136.46"/><line class="cls-5" x1="150.07" y1="136.46" x2="150.07" y2="136.46"/><line class="cls-5" x1="150.07" y1="136.46" x2="150.07" y2="136.46"/><line class="cls-5" x1="150.07" y1="136.46" x2="150.07" y2="136.46"/><line class="cls-5" x1="150.07" y1="136.46" x2="150.07" y2="136.46"/><line class="cls-5" x1="150.07" y1="136.46" x2="150.07" y2="136.4"/><line class="cls-5" x1="150.07" y1="136.4" x2="150.07" y2="136.4"/><line class="cls-5" x1="150.07" y1="136.4" x2="150.07" y2="136.4"/><line class="cls-5" x1="150.07" y1="136.4" x2="150.07" y2="136.4"/><line class="cls-5" x1="150.07" y1="136.4" x2="150.07" y2="136.4"/><line class="cls-5" x1="150.07" y1="136.4" x2="150.07" y2="136.4"/><line class="cls-5" x1="150.07" y1="136.4" x2="150.07" y2="136.35"/><line class="cls-5" x1="150.07" y1="136.35" x2="150.07" y2="136.35"/><line class="cls-5" x1="150.07" y1="136.35" x2="150.07" y2="136.35"/><line class="cls-5" x1="150.07" y1="136.35" x2="150.12" y2="136.3"/><line class="cls-5" x1="150.12" y1="136.3" x2="150.12" y2="136.3"/><line class="cls-5" x1="150.12" y1="136.3" x2="150.12" y2="136.3"/><line class="cls-5" x1="150.12" y1="136.3" x2="150.18" y2="136.24"/><line class="cls-5" x1="150.18" y1="136.24" x2="150.18" y2="136.24"/><line class="cls-5" x1="150.18" y1="136.24" x2="150.18" y2="136.24"/><line class="cls-5" x1="150.18" y1="136.24" x2="150.18" y2="136.19"/><line class="cls-5" x1="150.18" y1="136.19" x2="150.23" y2="136.19"/><line class="cls-5" x1="150.23" y1="136.19" x2="150.18" y2="136.19"/><line class="cls-5" x1="150.18" y1="136.19" x2="150.23" y2="136.13"/><line class="cls-5" x1="150.23" y1="136.13" x2="150.23" y2="136.13"/><line class="cls-5" x1="150.23" y1="136.13" x2="150.18" y2="136.13"/><line class="cls-5" x1="150.18" y1="136.13" x2="150.23" y2="136.08"/><line class="cls-5" x1="150.23" y1="136.08" x2="150.23" y2="136.08"/><line class="cls-5" x1="150.23" y1="136.08" x2="150.23" y2="136.08"/><line class="cls-5" x1="150.23" y1="136.08" x2="150.23" y2="136.03"/><line class="cls-5" x1="150.23" y1="136.03" x2="150.23" y2="135.97"/><line class="cls-5" x1="150.23" y1="135.97" x2="150.29" y2="135.97"/><line class="cls-5" x1="150.29" y1="135.97" x2="150.29" y2="135.92"/><line class="cls-5" x1="150.29" y1="135.92" x2="150.34" y2="135.86"/><line class="cls-5" x1="150.34" y1="135.86" x2="150.34" y2="135.81"/><line class="cls-5" x1="150.34" y1="135.81" x2="150.34" y2="135.76"/><line class="cls-5" x1="150.34" y1="135.76" x2="150.39" y2="135.65"/><line class="cls-5" x1="150.39" y1="135.65" x2="150.45" y2="135.59"/><line class="cls-5" x1="150.45" y1="135.59" x2="150.45" y2="135.49"/><line class="cls-5" x1="150.45" y1="135.49" x2="150.5" y2="135.38"/><line class="cls-5" x1="150.5" y1="135.38" x2="150.56" y2="135.27"/><line class="cls-5" x1="150.56" y1="135.27" x2="150.66" y2="135.11"/><line class="cls-5" x1="150.66" y1="135.11" x2="150.77" y2="134.84"/><line class="cls-5" x1="150.77" y1="134.84" x2="150.99" y2="134.41"/><line class="cls-5" x1="150.99" y1="134.41" x2="151.31" y2="133.76"/><line class="cls-5" x1="151.31" y1="133.76" x2="151.91" y2="132.57"/><line class="cls-5" x1="151.91" y1="132.57" x2="152.82" y2="130.68"/><line class="cls-5" x1="152.82" y1="130.68" x2="153.2" y2="129.65"/><line class="cls-5" x1="153.2" y1="129.65" x2="152.66" y2="130.52"/><line class="cls-5" x1="152.66" y1="130.52" x2="152.01" y2="131.6"/><line class="cls-5" x1="152.01" y1="131.6" x2="151.2" y2="133.16"/><line class="cls-5" x1="151.2" y1="133.16" x2="151.15" y2="133.16"/><line class="cls-5" x1="151.15" y1="133.16" x2="151.04" y2="133.16"/><line class="cls-5" x1="151.04" y1="133.16" x2="151.04" y2="133.06"/><line class="cls-5" x1="151.04" y1="133.06" x2="150.99" y2="132.95"/><line class="cls-5" x1="150.99" y1="132.95" x2="151.1" y2="132.46"/><line class="cls-5" x1="151.1" y1="132.46" x2="152.34" y2="128.41"/><line class="cls-5" x1="152.34" y1="128.41" x2="151.64" y2="130.25"/><line class="cls-5" x1="151.64" y1="130.25" x2="151.2" y2="131.22"/><line class="cls-5" x1="151.2" y1="131.22" x2="151.04" y2="131.49"/><line class="cls-5" x1="151.04" y1="131.49" x2="151.04" y2="131.27"/><line class="cls-5" x1="151.04" y1="131.27" x2="151.04" y2="130.63"/><line class="cls-5" x1="151.04" y1="130.63" x2="151.1" y2="130.03"/><line class="cls-5" x1="151.1" y1="130.03" x2="151.2" y2="128.74"/><line class="cls-5" x1="151.2" y1="128.74" x2="152.45" y2="120.85"/><line class="cls-5" x1="152.45" y1="120.85" x2="152.82" y2="116.75"/><line class="cls-5" x1="152.82" y1="116.75" x2="152.5" y2="116.69"/><line class="cls-5" x1="152.5" y1="116.69" x2="152.93" y2="110"/><line class="cls-5" x1="152.93" y1="110" x2="153.15" y2="103.63"/><line class="cls-5" x1="153.15" y1="103.63" x2="152.82" y2="100.98"/><line class="cls-5" x1="152.82" y1="100.98" x2="153.09" y2="87.75"/><line class="cls-5" x1="153.09" y1="87.75" x2="153.42" y2="65.83"/><line class="cls-5" x1="153.42" y1="65.83" x2="152.01" y2="69.39"/><line class="cls-5" x1="152.01" y1="69.39" x2="150.56" y2="88.56"/><line class="cls-5" x1="150.56" y1="88.56" x2="149.69" y2="95.9"/><line class="cls-5" x1="149.69" y1="189.54" x2="148.83" y2="189.49"/><line class="cls-5" x1="148.83" y1="189.49" x2="147.91" y2="189.38"/><line class="cls-5" x1="147.91" y1="189.38" x2="146.99" y2="189.32"/><line class="cls-5" x1="146.99" y1="189.32" x2="146.07" y2="189.22"/><line class="cls-5" x1="146.07" y1="189.22" x2="145.16" y2="189.16"/><line class="cls-5" x1="145.16" y1="189.16" x2="144.24" y2="189.11"/><line class="cls-5" x1="144.24" y1="189.11" x2="143.32" y2="189"/><line class="cls-5" x1="143.32" y1="189" x2="142.56" y2="187.49"/><line class="cls-5" x1="142.56" y1="187.49" x2="141.81" y2="186.52"/><line class="cls-5" x1="141.81" y1="186.52" x2="141.27" y2="184.63"/><line class="cls-5" x1="141.27" y1="184.63" x2="140.89" y2="182.03"/><line class="cls-5" x1="140.89" y1="182.03" x2="140.35" y2="180.68"/><line class="cls-5" x1="140.35" y1="180.68" x2="139.81" y2="179.5"/><line class="cls-5" x1="139.81" y1="179.5" x2="139.43" y2="177.88"/><line class="cls-5" x1="139.43" y1="177.88" x2="139.32" y2="175.39"/><line class="cls-5" x1="139.32" y1="175.39" x2="139.54" y2="172.04"/><line class="cls-5" x1="139.54" y1="172.04" x2="139.92" y2="168.59"/><line class="cls-5" x1="139.92" y1="168.59" x2="140.4" y2="165.19"/><line class="cls-5" x1="140.4" y1="165.19" x2="140.94" y2="162.05"/><line class="cls-5" x1="140.94" y1="162.05" x2="141.48" y2="159.19"/><line class="cls-5" x1="141.48" y1="159.19" x2="141.97" y2="156.71"/><line class="cls-5" x1="141.97" y1="156.71" x2="142.4" y2="154.66"/><line class="cls-5" x1="142.4" y1="154.66" x2="142.89" y2="152.71"/><line class="cls-5" x1="142.89" y1="152.71" x2="143.32" y2="150.93"/><line class="cls-5" x1="143.32" y1="150.93" x2="143.64" y2="149.58"/><line class="cls-5" x1="143.64" y1="149.58" x2="143.91" y2="148.45"/><line class="cls-5" x1="143.91" y1="148.45" x2="144.13" y2="147.58"/><line class="cls-5" x1="144.13" y1="147.58" x2="144.18" y2="146.99"/><line class="cls-5" x1="144.18" y1="146.99" x2="144.18" y2="146.5"/><line class="cls-5" x1="144.18" y1="146.5" x2="144.18" y2="146.12"/><line class="cls-5" x1="144.18" y1="146.12" x2="144.18" y2="145.8"/><line class="cls-5" x1="144.18" y1="145.8" x2="144.18" y2="145.37"/><line class="cls-5" x1="144.18" y1="145.37" x2="144.18" y2="145.04"/><line class="cls-5" x1="144.18" y1="145.04" x2="144.18" y2="144.72"/><line class="cls-5" x1="144.18" y1="144.72" x2="144.24" y2="144.4"/><line class="cls-5" x1="144.24" y1="144.4" x2="144.24" y2="144.07"/><line class="cls-5" x1="144.24" y1="144.07" x2="144.29" y2="143.75"/><line class="cls-5" x1="144.29" y1="143.75" x2="144.35" y2="143.42"/><line class="cls-5" x1="144.35" y1="143.42" x2="144.4" y2="143.1"/><line class="cls-5" x1="144.4" y1="143.1" x2="144.45" y2="142.78"/><line class="cls-5" x1="144.45" y1="142.78" x2="144.56" y2="142.45"/><line class="cls-5" x1="144.56" y1="142.45" x2="144.72" y2="142.07"/><line class="cls-5" x1="144.72" y1="142.07" x2="144.83" y2="141.75"/><line class="cls-5" x1="144.83" y1="141.75" x2="144.99" y2="141.43"/><line class="cls-5" x1="144.99" y1="141.43" x2="145.21" y2="141.05"/><line class="cls-5" x1="145.21" y1="141.05" x2="145.37" y2="140.72"/><line class="cls-5" x1="145.37" y1="140.72" x2="145.59" y2="140.35"/><line class="cls-5" x1="145.59" y1="140.35" x2="145.86" y2="140.02"/><line class="cls-5" x1="145.86" y1="140.02" x2="146.07" y2="139.7"/><line class="cls-5" x1="146.07" y1="139.7" x2="146.34" y2="139.37"/><line class="cls-5" x1="146.34" y1="139.37" x2="146.56" y2="139.1"/><line class="cls-5" x1="146.56" y1="139.1" x2="146.83" y2="138.78"/><line class="cls-5" x1="146.83" y1="138.78" x2="147.1" y2="138.51"/><line class="cls-5" x1="147.1" y1="138.51" x2="147.37" y2="138.24"/><line class="cls-5" x1="147.37" y1="138.24" x2="147.64" y2="137.97"/><line class="cls-5" x1="147.64" y1="137.97" x2="147.96" y2="137.75"/><line class="cls-5" x1="147.96" y1="137.75" x2="148.18" y2="137.54"/><line class="cls-5" x1="148.18" y1="137.54" x2="148.4" y2="137.32"/><line class="cls-5" x1="148.4" y1="137.32" x2="148.61" y2="137.16"/><line class="cls-5" x1="148.61" y1="137.16" x2="148.83" y2="137.05"/><line class="cls-5" x1="148.83" y1="137.05" x2="148.99" y2="136.94"/><line class="cls-5" x1="148.99" y1="136.94" x2="149.15" y2="136.84"/><line class="cls-5" x1="149.15" y1="136.84" x2="149.26" y2="136.78"/><line class="cls-5" x1="149.26" y1="136.78" x2="149.37" y2="136.73"/><line class="cls-5" x1="149.37" y1="136.73" x2="149.42" y2="136.67"/><line class="cls-5" x1="149.42" y1="136.67" x2="149.53" y2="136.62"/><line class="cls-5" x1="149.53" y1="136.62" x2="149.58" y2="136.57"/><line class="cls-5" x1="149.58" y1="136.57" x2="149.64" y2="136.57"/><line class="cls-5" x1="149.64" y1="136.57" x2="149.69" y2="136.57"/><line class="cls-5" x1="149.69" y1="136.57" x2="149.69" y2="136.57"/><line class="cls-5" x1="149.69" y1="136.57" x2="149.69" y2="136.57"/><line class="cls-5" x1="149.69" y1="136.57" x2="149.69" y2="136.57"/><line class="cls-5" x1="149.69" y1="136.57" x2="149.69" y2="136.57"/><line class="cls-5" x1="149.69" y1="136.57" x2="149.69" y2="136.57"/><line class="cls-5" x1="149.69" y1="136.57" x2="149.69" y2="136.57"/><line class="cls-5" x1="149.69" y1="136.57" x2="149.69" y2="136.57"/><line class="cls-5" x1="149.69" y1="136.57" x2="149.69" y2="136.57"/><line class="cls-5" x1="149.69" y1="136.57" x2="149.69" y2="136.57"/><line class="cls-5" x1="149.69" y1="136.57" x2="149.69" y2="136.57"/><line class="cls-5" x1="149.69" y1="136.57" x2="149.69" y2="136.57"/><line class="cls-5" x1="149.69" y1="136.57" x2="149.69" y2="136.57"/><line class="cls-5" x1="149.69" y1="136.57" x2="149.69" y2="136.57"/><line class="cls-5" x1="149.69" y1="136.57" x2="149.69" y2="136.57"/><line class="cls-5" x1="149.69" y1="136.57" x2="149.69" y2="136.57"/><line class="cls-5" x1="149.69" y1="136.57" x2="149.69" y2="136.57"/><line class="cls-5" x1="149.69" y1="136.57" x2="149.69" y2="136.57"/><line class="cls-5" x1="149.69" y1="136.57" x2="149.69" y2="136.57"/><line class="cls-5" x1="149.69" y1="136.57" x2="149.69" y2="136.57"/><line class="cls-5" x1="149.69" y1="136.57" x2="149.64" y2="136.57"/><line class="cls-5" x1="149.64" y1="136.57" x2="149.64" y2="136.57"/><line class="cls-5" x1="149.64" y1="136.57" x2="149.64" y2="136.57"/><line class="cls-5" x1="149.64" y1="136.57" x2="149.58" y2="136.57"/><line class="cls-5" x1="149.58" y1="136.57" x2="149.58" y2="136.57"/><line class="cls-5" x1="149.58" y1="136.57" x2="149.58" y2="136.57"/><line class="cls-5" x1="149.58" y1="136.57" x2="149.58" y2="136.57"/><line class="cls-5" x1="149.58" y1="136.57" x2="149.58" y2="136.57"/><line class="cls-5" x1="149.58" y1="136.57" x2="149.58" y2="136.57"/><line class="cls-5" x1="149.58" y1="136.57" x2="149.53" y2="136.57"/><line class="cls-5" x1="149.53" y1="136.57" x2="149.53" y2="136.51"/><line class="cls-5" x1="149.53" y1="136.51" x2="149.53" y2="136.51"/><line class="cls-5" x1="149.53" y1="136.51" x2="149.53" y2="136.51"/><line class="cls-5" x1="149.53" y1="136.51" x2="149.53" y2="136.51"/><line class="cls-5" x1="149.53" y1="136.51" x2="149.53" y2="136.51"/><line class="cls-5" x1="149.53" y1="136.51" x2="149.53" y2="136.51"/><line class="cls-5" x1="149.53" y1="136.51" x2="149.53" y2="136.51"/><line class="cls-5" x1="149.53" y1="136.51" x2="149.53" y2="136.51"/><line class="cls-5" x1="149.53" y1="136.51" x2="149.48" y2="136.51"/><line class="cls-5" x1="149.48" y1="136.51" x2="149.48" y2="136.46"/><line class="cls-5" x1="149.48" y1="136.46" x2="149.48" y2="136.46"/><line class="cls-5" x1="149.48" y1="136.46" x2="149.48" y2="136.46"/><line class="cls-5" x1="149.48" y1="136.46" x2="149.48" y2="136.46"/><line class="cls-5" x1="149.48" y1="136.46" x2="149.48" y2="136.46"/><line class="cls-5" x1="149.48" y1="136.46" x2="149.48" y2="136.46"/><line class="cls-5" x1="149.48" y1="136.46" x2="149.48" y2="136.46"/><line class="cls-5" x1="149.48" y1="136.46" x2="149.48" y2="136.46"/><line class="cls-5" x1="149.48" y1="136.46" x2="149.48" y2="136.4"/><line class="cls-5" x1="149.48" y1="136.4" x2="149.42" y2="136.4"/><line class="cls-5" x1="149.42" y1="136.4" x2="149.48" y2="136.4"/><line class="cls-5" x1="149.48" y1="136.4" x2="149.42" y2="136.4"/><line class="cls-5" x1="149.42" y1="136.4" x2="149.42" y2="136.4"/><line class="cls-5" x1="149.42" y1="136.4" x2="149.42" y2="136.35"/><line class="cls-5" x1="149.42" y1="136.35" x2="149.42" y2="136.35"/><line class="cls-5" x1="149.42" y1="136.35" x2="149.42" y2="136.35"/><line class="cls-5" x1="149.42" y1="136.35" x2="149.42" y2="136.35"/><line class="cls-5" x1="149.42" y1="136.35" x2="149.42" y2="136.35"/><line class="cls-5" x1="149.42" y1="136.35" x2="149.42" y2="136.3"/><line class="cls-5" x1="149.42" y1="136.3" x2="149.42" y2="136.3"/><line class="cls-5" x1="149.42" y1="136.3" x2="149.42" y2="136.3"/><line class="cls-5" x1="149.42" y1="136.3" x2="149.37" y2="136.3"/><line class="cls-5" x1="149.37" y1="136.3" x2="149.37" y2="136.24"/><line class="cls-5" x1="149.37" y1="136.24" x2="149.37" y2="136.24"/><line class="cls-5" x1="149.37" y1="136.24" x2="149.37" y2="136.24"/><line class="cls-5" x1="149.37" y1="136.24" x2="149.37" y2="136.24"/><line class="cls-5" x1="149.37" y1="136.24" x2="149.37" y2="136.19"/><line class="cls-5" x1="149.37" y1="136.19" x2="149.37" y2="136.19"/><line class="cls-5" x1="149.37" y1="136.19" x2="149.37" y2="136.19"/><line class="cls-5" x1="149.37" y1="136.19" x2="149.37" y2="136.13"/><line class="cls-5" x1="149.37" y1="136.13" x2="149.37" y2="136.13"/><line class="cls-5" x1="149.37" y1="136.13" x2="149.37" y2="136.13"/><line class="cls-5" x1="149.37" y1="136.13" x2="149.37" y2="136.08"/><line class="cls-5" x1="149.37" y1="136.08" x2="149.31" y2="136.08"/><line class="cls-5" x1="149.31" y1="136.08" x2="149.31" y2="136.03"/><line class="cls-5" x1="149.31" y1="136.03" x2="149.31" y2="136.03"/><line class="cls-5" x1="149.31" y1="136.03" x2="149.31" y2="135.97"/><line class="cls-5" x1="149.31" y1="135.97" x2="149.31" y2="135.97"/><line class="cls-5" x1="149.31" y1="135.97" x2="149.31" y2="135.92"/><line class="cls-5" x1="149.31" y1="135.92" x2="149.31" y2="135.86"/><line class="cls-5" x1="149.31" y1="135.86" x2="149.31" y2="135.81"/><line class="cls-5" x1="149.31" y1="135.81" x2="149.26" y2="135.81"/><line class="cls-5" x1="149.26" y1="135.81" x2="149.26" y2="135.76"/><line class="cls-5" x1="149.26" y1="135.76" x2="149.26" y2="135.7"/><line class="cls-5" x1="149.26" y1="135.7" x2="149.26" y2="135.65"/><line class="cls-5" x1="149.26" y1="135.65" x2="149.26" y2="135.59"/><line class="cls-5" x1="149.26" y1="135.59" x2="149.26" y2="135.54"/><line class="cls-5" x1="149.26" y1="135.54" x2="149.26" y2="135.49"/><line class="cls-5" x1="149.26" y1="135.49" x2="149.26" y2="135.43"/><line class="cls-5" x1="149.26" y1="135.43" x2="149.26" y2="135.38"/><line class="cls-5" x1="149.26" y1="135.38" x2="149.26" y2="135.32"/><line class="cls-5" x1="149.26" y1="135.32" x2="149.26" y2="135.27"/><line class="cls-5" x1="149.26" y1="135.27" x2="149.26" y2="135.22"/><line class="cls-5" x1="149.26" y1="135.22" x2="149.26" y2="135.16"/><line class="cls-5" x1="149.26" y1="135.16" x2="149.26" y2="135.11"/><line class="cls-5" x1="149.26" y1="135.11" x2="149.26" y2="135.05"/><line class="cls-5" x1="149.26" y1="135.05" x2="149.31" y2="135"/><line class="cls-5" x1="149.31" y1="135" x2="149.31" y2="134.95"/><line class="cls-5" x1="149.31" y1="134.95" x2="149.31" y2="134.89"/><line class="cls-5" x1="149.31" y1="134.89" x2="149.37" y2="134.89"/><line class="cls-5" x1="149.37" y1="134.89" x2="149.37" y2="134.84"/><line class="cls-5" x1="149.37" y1="134.84" x2="149.37" y2="134.78"/><line class="cls-5" x1="149.37" y1="134.78" x2="149.42" y2="134.68"/><line class="cls-5" x1="149.42" y1="134.68" x2="149.42" y2="134.62"/><line class="cls-5" x1="149.42" y1="134.62" x2="149.48" y2="134.46"/><line class="cls-5" x1="149.48" y1="134.46" x2="149.42" y2="133.87"/><line class="cls-5" x1="149.42" y1="133.87" x2="149.31" y2="132.57"/><line class="cls-5" x1="149.31" y1="132.57" x2="149.15" y2="129.76"/><line class="cls-5" x1="149.15" y1="129.76" x2="147.91" y2="110.48"/><line class="cls-5" x1="147.91" y1="110.48" x2="148.34" y2="109.73"/><line class="cls-5" x1="148.34" y1="109.73" x2="148.5" y2="101.47"/><line class="cls-5" x1="148.5" y1="101.47" x2="149.1" y2="99.36"/><line class="cls-5" x1="149.1" y1="99.36" x2="149.69" y2="95.9"/><line class="cls-5" x1="149.69" y1="189.54" x2="149.96" y2="189.54"/><line class="cls-5" x1="151.26" y1="189.49" x2="151.53" y2="189.49"/><line class="cls-5" x1="152.82" y1="189.43" x2="153.04" y2="189.38"/><line class="cls-5" x1="154.34" y1="189.27" x2="154.34" y2="189.27"/><line class="cls-5" x1="154.34" y1="189.27" x2="154.61" y2="189.27"/><line class="cls-5" x1="155.9" y1="189.27" x2="156.12" y2="189.32"/><line class="cls-5" x1="157.41" y1="189.27" x2="157.63" y2="189.22"/><line class="cls-5" x1="158.93" y1="189.16" x2="158.98" y2="189.16"/><line class="cls-5" x1="158.98" y1="189.16" x2="159.2" y2="189.16"/><line class="cls-5" x1="160.49" y1="189.05" x2="160.71" y2="189"/><line class="cls-5" x1="162" y1="188.95" x2="162.27" y2="188.95"/><line class="cls-5" x1="163.57" y1="188.84" x2="163.73" y2="188.84"/><line class="cls-5" x1="163.73" y1="188.84" x2="163.84" y2="188.84"/><line class="cls-5" x1="165.14" y1="188.68" x2="165.41" y2="188.62"/><line class="cls-5" x1="166.65" y1="188.41" x2="166.86" y2="188.35"/><line class="cls-5" x1="168.11" y1="188.03" x2="168.32" y2="187.92"/><line class="cls-5" x1="169.51" y1="187.49" x2="169.73" y2="187.38"/><line class="cls-5" x1="170.86" y1="186.84" x2="171.02" y2="186.73"/><line class="cls-5" x1="171.02" y1="186.73" x2="171.08" y2="186.68"/><line class="cls-5" x1="172.16" y1="185.98" x2="172.37" y2="185.81"/><line class="cls-5" x1="173.4" y1="184.95" x2="173.56" y2="184.73"/><line class="cls-5" x1="174.37" y1="183.76" x2="174.53" y2="183.6"/><line class="cls-5" x1="175.18" y1="182.52" x2="175.18" y2="182.52"/><line class="cls-5" x1="175.18" y1="182.52" x2="175.29" y2="182.3"/><line class="cls-5" x1="175.83" y1="181.17" x2="175.88" y2="180.95"/><line class="cls-5" x1="176.31" y1="179.77" x2="176.42" y2="179.55"/><line class="cls-5" x1="176.69" y1="178.31" x2="176.75" y2="178.15"/><line class="cls-5" x1="176.75" y1="178.15" x2="176.75" y2="178.09"/><line class="cls-5" x1="177.02" y1="176.85" x2="177.07" y2="176.63"/><line class="cls-5" x1="177.12" y1="175.34" x2="177.12" y2="175.07"/><line class="cls-5" x1="177.18" y1="173.77" x2="177.23" y2="173.56"/><line class="cls-5" x1="177.18" y1="172.26" x2="177.18" y2="171.99"/><line class="cls-5" x1="177.07" y1="170.69" x2="177.02" y2="170.48"/><line class="cls-5" x1="176.85" y1="169.18" x2="176.8" y2="168.97"/><line class="cls-5" x1="176.58" y1="167.72" x2="176.53" y2="167.51"/><line class="cls-5" x1="176.26" y1="166.27" x2="176.21" y2="166.05"/><line class="cls-5" x1="175.83" y1="164.81" x2="175.77" y2="164.59"/><line class="cls-5" x1="175.4" y1="163.4" x2="175.29" y2="163.19"/><line class="cls-5" x1="174.8" y1="162" x2="174.69" y2="161.78"/><line class="cls-5" x1="174.21" y1="160.6" x2="174.1" y2="160.38"/><line class="cls-5" x1="173.56" y1="159.25" x2="173.45" y2="159.03"/><line class="cls-5" x1="172.86" y1="157.9" x2="172.75" y2="157.68"/><line class="cls-5" x1="172.16" y1="156.55" x2="171.99" y2="156.33"/><line class="cls-5" x1="171.35" y1="155.25" x2="171.24" y2="155.03"/><line class="cls-5" x1="170.54" y1="153.95" x2="170.37" y2="153.74"/><line class="cls-5" x1="169.67" y1="152.66" x2="169.67" y2="152.66"/><line class="cls-5" x1="169.67" y1="152.66" x2="169.51" y2="152.44"/><line class="cls-5" x1="168.75" y1="151.42" x2="168.7" y2="151.36"/><line class="cls-5" x1="168.7" y1="151.36" x2="168.59" y2="151.25"/><line class="cls-5" x1="167.84" y1="150.23" x2="167.73" y2="150.12"/><line class="cls-5" x1="167.73" y1="150.12" x2="167.67" y2="150.07"/><line class="cls-5" x1="166.86" y1="149.04" x2="166.76" y2="148.93"/><line class="cls-5" x1="166.76" y1="148.93" x2="166.7" y2="148.88"/><line class="cls-5" x1="165.84" y1="147.85" x2="165.78" y2="147.8"/><line class="cls-5" x1="165.78" y1="147.8" x2="165.68" y2="147.69"/><line class="cls-5" x1="164.81" y1="146.72" x2="164.81" y2="146.72"/><line class="cls-5" x1="164.81" y1="146.72" x2="164.65" y2="146.56"/><line class="cls-5" x1="163.73" y1="145.58" x2="163.57" y2="145.42"/><line class="cls-5" x1="162.65" y1="144.5" x2="162.49" y2="144.34"/><line class="cls-5" x1="161.52" y1="143.48" x2="161.36" y2="143.32"/><line class="cls-5" x1="160.33" y1="142.45" x2="160.22" y2="142.34"/><line class="cls-5" x1="160.22" y1="142.34" x2="160.17" y2="142.29"/><line class="cls-5" x1="159.14" y1="141.48" x2="158.93" y2="141.32"/><line class="cls-5" x1="157.9" y1="140.56" x2="157.74" y2="140.45"/><line class="cls-5" x1="157.74" y1="140.45" x2="157.68" y2="140.4"/><line class="cls-5" x1="156.6" y1="139.64" x2="156.39" y2="139.54"/><line class="cls-5" x1="155.31" y1="138.83" x2="155.09" y2="138.73"/><line class="cls-5" x1="153.96" y1="138.13" x2="153.74" y2="138.02"/><line class="cls-5" x1="152.61" y1="137.48" x2="152.39" y2="137.38"/><line class="cls-5" x1="151.2" y1="136.94" x2="151.04" y2="136.89"/><line class="cls-5" x1="151.04" y1="136.89" x2="150.99" y2="136.89"/><line class="cls-5" x1="149.8" y1="136.57" x2="149.8" y2="136.57"/><line class="cls-5" x1="149.8" y1="136.57" x2="149.8" y2="136.57"/><line class="cls-5" x1="149.8" y1="136.57" x2="149.8" y2="136.57"/><line class="cls-5" x1="149.8" y1="136.57" x2="149.8" y2="136.57"/><line class="cls-5" x1="149.8" y1="136.57" x2="149.8" y2="136.57"/><line class="cls-5" x1="149.8" y1="136.57" x2="149.8" y2="136.57"/><line class="cls-5" x1="149.8" y1="136.57" x2="149.8" y2="136.57"/><line class="cls-5" x1="149.8" y1="136.57" x2="149.8" y2="136.57"/><line class="cls-5" x1="149.8" y1="136.57" x2="149.8" y2="136.57"/><line class="cls-5" x1="149.8" y1="136.57" x2="149.8" y2="136.57"/><line class="cls-5" x1="149.8" y1="136.57" x2="149.85" y2="136.57"/><line class="cls-5" x1="149.85" y1="136.57" x2="149.85" y2="136.57"/><line class="cls-5" x1="149.85" y1="136.57" x2="149.85" y2="136.57"/><line class="cls-5" x1="149.85" y1="136.57" x2="149.85" y2="136.57"/><line class="cls-5" x1="149.85" y1="136.57" x2="149.85" y2="136.51"/><line class="cls-5" x1="149.85" y1="136.51" x2="149.85" y2="136.51"/><line class="cls-5" x1="149.85" y1="136.51" x2="149.91" y2="136.51"/><line class="cls-5" x1="149.91" y1="136.51" x2="149.91" y2="136.51"/><line class="cls-5" x1="149.91" y1="136.51" x2="149.91" y2="136.51"/><line class="cls-5" x1="149.91" y1="136.51" x2="149.91" y2="136.51"/><line class="cls-5" x1="149.91" y1="136.51" x2="149.91" y2="136.51"/><line class="cls-5" x1="149.91" y1="136.51" x2="149.91" y2="136.51"/><line class="cls-5" x1="149.91" y1="136.51" x2="149.91" y2="136.51"/><line class="cls-5" x1="149.91" y1="136.51" x2="149.91" y2="136.51"/><line class="cls-5" x1="149.91" y1="136.51" x2="149.96" y2="136.46"/><line class="cls-5" x1="149.96" y1="136.46" x2="149.96" y2="136.46"/><line class="cls-5" x1="149.96" y1="136.46" x2="149.96" y2="136.46"/><line class="cls-5" x1="149.96" y1="136.46" x2="149.96" y2="136.46"/><line class="cls-5" x1="149.96" y1="136.46" x2="149.96" y2="136.46"/><line class="cls-5" x1="149.96" y1="136.46" x2="149.96" y2="136.46"/><line class="cls-5" x1="149.96" y1="136.46" x2="149.96" y2="136.46"/><line class="cls-5" x1="149.96" y1="136.46" x2="149.96" y2="136.4"/><line class="cls-5" x1="150.23" y1="135.27" x2="150.23" y2="135.27"/><line class="cls-5" x1="150.23" y1="135.27" x2="150.23" y2="135.22"/><line class="cls-5" x1="150.23" y1="135.22" x2="150.23" y2="135.16"/><line class="cls-5" x1="150.23" y1="135.16" x2="150.23" y2="135.11"/><line class="cls-5" x1="150.23" y1="135.11" x2="150.23" y2="135.05"/><line class="cls-5" x1="150.23" y1="135.05" x2="150.18" y2="135"/><line class="cls-5" x1="150.23" y1="133.7" x2="150.29" y2="133.49"/><line class="cls-5" x1="150.45" y1="132.19" x2="150.45" y2="131.98"/><line class="cls-5" x1="150.45" y1="131.98" x2="150.45" y2="131.92"/><line class="cls-5" x1="150.61" y1="130.63" x2="150.66" y2="130.41"/><line class="cls-5" x1="150.83" y1="129.11" x2="150.83" y2="128.84"/><line class="cls-5" x1="150.99" y1="127.55" x2="151.04" y2="127.33"/><line class="cls-5" x1="151.2" y1="126.04" x2="151.2" y2="125.77"/><line class="cls-5" x1="151.37" y1="124.52" x2="151.42" y2="124.31"/><line class="cls-5" x1="151.58" y1="123.01" x2="151.58" y2="122.96"/><line class="cls-5" x1="151.58" y1="122.96" x2="151.58" y2="122.74"/><line class="cls-5" x1="151.64" y1="121.45" x2="151.64" y2="121.18"/><line class="cls-5" x1="151.69" y1="119.88" x2="151.69" y2="119.61"/><line class="cls-5" x1="151.74" y1="118.31" x2="151.74" y2="118.04"/><line class="cls-5" x1="151.74" y1="116.69" x2="151.69" y2="116.48"/><line class="cls-5" x1="151.69" y1="115.13" x2="151.64" y2="114.91"/><line class="cls-5" x1="151.64" y1="113.56" x2="151.58" y2="113.29"/><line class="cls-5" x1="151.58" y1="111.94" x2="151.58" y2="111.67"/><line class="cls-5" x1="151.53" y1="110.38" x2="151.53" y2="110.11"/><line class="cls-5" x1="151.47" y1="108.81" x2="151.47" y2="108.54"/><line class="cls-5" x1="151.42" y1="107.24" x2="151.42" y2="106.97"/><line class="cls-5" x1="151.42" y1="105.62" x2="151.42" y2="105.35"/><line class="cls-5" x1="151.37" y1="104.06" x2="151.37" y2="103.79"/><line class="cls-5" x1="151.31" y1="102.49" x2="151.31" y2="102.22"/><line class="cls-5" x1="151.26" y1="100.93" x2="151.26" y2="100.66"/><line class="cls-5" x1="151.2" y1="99.36" x2="151.2" y2="99.09"/><line class="cls-5" x1="151.15" y1="97.79" x2="151.15" y2="97.52"/><line class="cls-5" x1="151.1" y1="96.23" x2="151.1" y2="96.07"/><line class="cls-5" x1="151.1" y1="96.07" x2="151.1" y2="95.96"/><line class="cls-5" x1="151.04" y1="94.66" x2="151.04" y2="94.39"/><line class="cls-5" x1="151.04" y1="93.04" x2="151.04" y2="92.77"/><line class="cls-5" x1="150.99" y1="91.48" x2="150.99" y2="91.21"/><line class="cls-5" x1="150.99" y1="89.86" x2="150.99" y2="89.59"/><line class="cls-5" x1="150.93" y1="88.29" x2="150.93" y2="88.02"/><line class="cls-5" x1="150.93" y1="86.67" x2="150.88" y2="86.45"/><line class="cls-5" x1="150.88" y1="85.1" x2="150.88" y2="84.83"/><line class="cls-5" x1="150.83" y1="83.54" x2="150.83" y2="83.27"/><line class="cls-5" x1="150.83" y1="81.92" x2="150.83" y2="81.65"/><line class="cls-5" x1="150.77" y1="80.35" x2="150.77" y2="80.08"/><line class="cls-5" x1="150.77" y1="78.73" x2="150.77" y2="78.46"/><line class="cls-5" x1="150.72" y1="77.17" x2="150.72" y2="76.9"/><line class="cls-5" x1="150.66" y1="78.19" x2="150.61" y2="78.41"/><line class="cls-5" x1="150.56" y1="79.7" x2="150.5" y2="79.97"/><line class="cls-5" x1="150.45" y1="81.27" x2="150.45" y2="81.54"/><line class="cls-5" x1="150.34" y1="82.84" x2="150.34" y2="83.11"/><line class="cls-5" x1="150.23" y1="84.4" x2="150.23" y2="84.67"/><line class="cls-5" x1="150.18" y1="85.97" x2="150.12" y2="86.18"/><line class="cls-5" x1="150.07" y1="87.48" x2="150.02" y2="87.75"/><line class="cls-5" x1="149.96" y1="89.05" x2="149.96" y2="89.32"/><line class="cls-5" x1="149.85" y1="90.61" x2="149.85" y2="90.88"/><line class="cls-5" x1="149.75" y1="92.18" x2="149.75" y2="92.45"/><line class="cls-5" x1="149.15" y1="189.54" x2="148.88" y2="189.54"/><line class="cls-5" x1="147.59" y1="189.49" x2="147.37" y2="189.43"/><line class="cls-5" x1="146.07" y1="189.38" x2="146.07" y2="189.38"/><line class="cls-5" x1="146.07" y1="189.38" x2="145.8" y2="189.32"/><line class="cls-5" x1="144.51" y1="189.22" x2="144.24" y2="189.22"/><line class="cls-5" x1="142.94" y1="189.32" x2="142.73" y2="189.27"/><line class="cls-5" x1="141.43" y1="189.22" x2="141.38" y2="189.22"/><line class="cls-5" x1="141.38" y1="189.22" x2="141.16" y2="189.22"/><line class="cls-5" x1="139.86" y1="189.11" x2="139.59" y2="189.11"/><line class="cls-5" x1="138.3" y1="189" x2="138.08" y2="188.95"/><line class="cls-5" x1="136.73" y1="188.95" x2="136.68" y2="188.95"/><line class="cls-5" x1="136.68" y1="188.95" x2="136.46" y2="188.95"/><line class="cls-5" x1="135.17" y1="188.78" x2="134.95" y2="188.73"/><line class="cls-5" x1="133.65" y1="188.57" x2="133.44" y2="188.51"/><line class="cls-5" x1="132.2" y1="188.24" x2="131.98" y2="188.19"/><line class="cls-5" x1="130.79" y1="187.81" x2="130.58" y2="187.76"/><line class="cls-5" x1="129.39" y1="187.27" x2="129.28" y2="187.22"/><line class="cls-5" x1="129.28" y1="187.22" x2="129.17" y2="187.16"/><line class="cls-5" x1="128.09" y1="186.52" x2="127.88" y2="186.41"/><line class="cls-5" x1="126.85" y1="185.65" x2="126.85" y2="185.65"/><line class="cls-5" x1="126.85" y1="185.65" x2="126.69" y2="185.49"/><line class="cls-5" x1="125.72" y1="184.57" x2="125.55" y2="184.36"/><line class="cls-5" x1="124.74" y1="183.33" x2="124.58" y2="183.11"/><line class="cls-5" x1="123.99" y1="181.98" x2="123.88" y2="181.76"/><line class="cls-5" x1="123.39" y1="180.63" x2="123.34" y2="180.47"/><line class="cls-5" x1="123.34" y1="180.47" x2="123.34" y2="180.41"/><line class="cls-5" x1="122.96" y1="179.23" x2="122.91" y2="179.01"/><line class="cls-5" x1="122.58" y1="177.77" x2="122.53" y2="177.55"/><line class="cls-5" x1="122.37" y1="176.26" x2="122.31" y2="176.04"/><line class="cls-5" x1="122.26" y1="174.74" x2="122.26" y2="174.47"/><line class="cls-5" x1="122.21" y1="173.18" x2="122.21" y2="173.02"/><line class="cls-5" x1="122.21" y1="173.02" x2="122.21" y2="172.91"/><line class="cls-5" x1="122.26" y1="171.61" x2="122.31" y2="171.4"/><line class="cls-5" x1="122.42" y1="170.1" x2="122.48" y2="169.88"/><line class="cls-5" x1="122.69" y1="168.64" x2="122.75" y2="168.43"/><line class="cls-5" x1="123.02" y1="167.18" x2="123.07" y2="166.97"/><line class="cls-5" x1="123.34" y1="165.73" x2="123.39" y2="165.51"/><line class="cls-5" x1="123.77" y1="164.27" x2="123.83" y2="164.05"/><line class="cls-5" x1="124.26" y1="162.86" x2="124.26" y2="162.86"/><line class="cls-5" x1="124.26" y1="162.86" x2="124.37" y2="162.65"/><line class="cls-5" x1="124.85" y1="161.46" x2="124.91" y2="161.35"/><line class="cls-5" x1="124.91" y1="161.35" x2="124.96" y2="161.24"/><line class="cls-5" x1="125.45" y1="160.06" x2="125.55" y2="159.84"/><line class="cls-5" x1="126.15" y1="158.71" x2="126.26" y2="158.49"/><line class="cls-5" x1="126.85" y1="157.36" x2="126.96" y2="157.14"/><line class="cls-5" x1="127.61" y1="156.06" x2="127.71" y2="155.84"/><line class="cls-5" x1="128.42" y1="154.76" x2="128.52" y2="154.55"/><line class="cls-5" x1="129.23" y1="153.47" x2="129.39" y2="153.25"/><line class="cls-5" x1="130.14" y1="152.17" x2="130.31" y2="151.96"/><line class="cls-5" x1="131.06" y1="150.93" x2="131.22" y2="150.77"/><line class="cls-5" x1="132.03" y1="149.74" x2="132.2" y2="149.53"/><line class="cls-5" x1="133.06" y1="148.5" x2="133.22" y2="148.28"/><line class="cls-5" x1="134.09" y1="147.31" x2="134.25" y2="147.15"/><line class="cls-5" x1="135.11" y1="146.18" x2="135.27" y2="146.02"/><line class="cls-5" x1="136.19" y1="145.1" x2="136.35" y2="144.94"/><line class="cls-5" x1="137.33" y1="144.02" x2="137.43" y2="143.91"/><line class="cls-5" x1="137.43" y1="143.91" x2="137.49" y2="143.86"/><line class="cls-5" x1="138.46" y1="142.99" x2="138.68" y2="142.83"/><line class="cls-5" x1="139.65" y1="141.97" x2="139.86" y2="141.8"/><line class="cls-5" x1="140.89" y1="141.05" x2="140.89" y2="141.05"/><line class="cls-5" x1="140.89" y1="141.05" x2="141.11" y2="140.89"/><line class="cls-5" x1="142.13" y1="140.13" x2="142.35" y2="139.97"/><line class="cls-5" x1="143.43" y1="139.27" x2="143.64" y2="139.16"/><line class="cls-5" x1="144.72" y1="138.51" x2="144.94" y2="138.4"/><line class="cls-5" x1="146.07" y1="137.86" x2="146.29" y2="137.75"/><line class="cls-5" x1="147.42" y1="137.27" x2="147.64" y2="137.16"/><line class="cls-5" x1="148.83" y1="136.73" x2="148.88" y2="136.73"/><line class="cls-5" x1="148.88" y1="136.73" x2="149.04" y2="136.67"/><line class="cls-5" x1="149.31" y1="136.03" x2="149.31" y2="136.03"/><line class="cls-5" x1="149.31" y1="136.03" x2="149.31" y2="136.03"/><line class="cls-5" x1="149.31" y1="136.03" x2="149.31" y2="135.97"/><line class="cls-5" x1="149.31" y1="135.97" x2="149.26" y2="135.97"/><line class="cls-5" x1="149.26" y1="135.97" x2="149.26" y2="135.92"/><line class="cls-5" x1="149.26" y1="135.92" x2="149.26" y2="135.86"/><line class="cls-5" x1="149.26" y1="135.86" x2="149.26" y2="135.81"/><line class="cls-5" x1="149.26" y1="134.62" x2="149.26" y2="134.62"/><line class="cls-5" x1="149.26" y1="134.62" x2="149.26" y2="134.51"/><line class="cls-5" x1="149.26" y1="134.51" x2="149.26" y2="134.35"/><line class="cls-5" x1="149.1" y1="133.06" x2="149.1" y2="132.79"/><line class="cls-5" x1="148.94" y1="131.49" x2="148.88" y2="131.27"/><line class="cls-5" x1="148.72" y1="129.98" x2="148.72" y2="129.71"/><line class="cls-5" x1="148.56" y1="128.41" x2="148.5" y2="128.2"/><line class="cls-5" x1="148.34" y1="126.9" x2="148.34" y2="126.63"/><line class="cls-5" x1="148.18" y1="125.39" x2="148.13" y2="125.17"/><line class="cls-5" x1="147.96" y1="123.88" x2="147.96" y2="123.61"/><line class="cls-5" x1="147.8" y1="122.31" x2="147.8" y2="122.04"/><line class="cls-5" x1="147.75" y1="120.74" x2="147.75" y2="120.47"/><line class="cls-5" x1="147.75" y1="119.12" x2="147.75" y2="118.85"/><line class="cls-5" x1="147.69" y1="117.56" x2="147.69" y2="117.29"/><line class="cls-5" x1="147.75" y1="115.99" x2="147.75" y2="115.72"/><line class="cls-5" x1="147.8" y1="114.43" x2="147.8" y2="114.21"/><line class="cls-5" x1="147.8" y1="114.21" x2="147.8" y2="114.16"/><line class="cls-5" x1="147.86" y1="112.86" x2="147.86" y2="112.59"/><line class="cls-5" x1="147.91" y1="111.29" x2="147.91" y2="111.02"/><line class="cls-5" x1="147.91" y1="109.67" x2="147.96" y2="109.46"/><line class="cls-5" x1="147.96" y1="108.11" x2="147.96" y2="107.84"/><line class="cls-5" x1="148.02" y1="106.54" x2="148.02" y2="106.27"/><line class="cls-5" x1="148.07" y1="104.98" x2="148.07" y2="104.71"/><line class="cls-5" x1="148.07" y1="103.36" x2="148.13" y2="103.14"/><line class="cls-5" x1="148.13" y1="101.79" x2="148.18" y2="101.57"/><line class="cls-5" x1="148.18" y1="100.22" x2="148.23" y2="100.01"/><line class="cls-5" x1="148.23" y1="98.66" x2="148.29" y2="98.44"/><line class="cls-5" x1="148.29" y1="97.09" x2="148.34" y2="96.82"/><line class="cls-5" x1="148.34" y1="95.47" x2="148.34" y2="95.2"/><line class="cls-5" x1="148.4" y1="93.91" x2="148.4" y2="93.64"/><line class="cls-5" x1="148.4" y1="92.29" x2="148.4" y2="92.02"/><line class="cls-5" x1="148.45" y1="90.72" x2="148.45" y2="90.45"/><line class="cls-5" x1="148.5" y1="89.15" x2="148.5" y2="88.88"/><line class="cls-5" x1="148.5" y1="87.53" x2="148.5" y2="87.26"/><line class="cls-5" x1="148.56" y1="85.97" x2="148.56" y2="85.7"/><line class="cls-5" x1="148.56" y1="84.35" x2="148.56" y2="84.08"/><line class="cls-5" x1="148.61" y1="82.78" x2="148.61" y2="82.51"/><line class="cls-5" x1="148.61" y1="81.16" x2="148.67" y2="80.95"/><line class="cls-5" x1="148.67" y1="79.6" x2="148.67" y2="79.33"/><line class="cls-5" x1="148.72" y1="78.03" x2="148.72" y2="77.76"/><line class="cls-5" x1="148.77" y1="77.38" x2="148.77" y2="77.65"/><line class="cls-5" x1="148.83" y1="78.95" x2="148.88" y2="79.22"/><line class="cls-5" x1="148.94" y1="80.51" x2="148.94" y2="80.78"/><line class="cls-5" x1="149.04" y1="82.08" x2="149.04" y2="82.35"/><line class="cls-5" x1="149.1" y1="83.65" x2="149.15" y2="83.86"/><line class="cls-5" x1="149.21" y1="85.16" x2="149.21" y2="85.43"/><line class="cls-5" x1="149.31" y1="86.72" x2="149.31" y2="86.99"/><line class="cls-5" x1="149.37" y1="88.29" x2="149.42" y2="88.51"/><line class="cls-5" x1="149.48" y1="89.8" x2="149.48" y2="90.07"/><line class="cls-5" x1="149.58" y1="91.37" x2="149.58" y2="91.64"/><line class="cls-5" x1="149.69" y1="92.93" x2="149.69" y2="93.2"/></g></svg>