<svg id="chapo" xmlns="http://www.w3.org/2000/svg" viewBox="0 0 300 263"><defs><style>.cls-1,.cls-3{fill:none;stroke-width:0.5px;}.cls-1{stroke:#000;}.cls-2{isolation:isolate;}.cls-3{stroke:#000100;stroke-linecap:round;stroke-linejoin:round;}</style></defs><title>chapo-table-starck-flos-F1690057-spech-tech-02-300x263-01</title><line class="cls-1" x1="134.89" y1="223.64" x2="182.85" y2="217.88"/><line class="cls-1" x1="134.71" y1="222.09" x2="135.08" y2="225.2"/><line class="cls-1" x1="182.67" y1="216.32" x2="183.04" y2="219.43"/><line class="cls-1" x1="124.61" y1="45.99" x2="173.98" y2="45.99"/><line class="cls-1" x1="124.61" y1="44.29" x2="124.61" y2="47.69"/><line class="cls-1" x1="173.98" y1="44.29" x2="173.98" y2="47.69"/><line class="cls-1" x1="107.4" y1="216.32" x2="107.4" y2="54.49"/><line class="cls-1" x1="105.78" y1="216.32" x2="109.02" y2="216.32"/><line class="cls-1" x1="105.78" y1="54.49" x2="109.02" y2="54.49"/><g class="cls-2"><path d="M120.92,247.26l-1.18.16-1.33-9.8-1.85,2.06-.86-.75,2.65-2.75,1.05-.15Z"/><path d="M130.08,246l-1.19.16-1.33-9.8-1.85,2.06-.86-.76,2.65-2.75,1.05-.14Z"/><path d="M136.53,233.51a3.46,3.46,0,0,1,2.1.28A3.88,3.88,0,0,1,140,235a6.19,6.19,0,0,1,.83,1.8,15.07,15.07,0,0,1,.42,1.94,13.91,13.91,0,0,1,.11,2,5.91,5.91,0,0,1-.32,2,3.83,3.83,0,0,1-1,1.58,3.37,3.37,0,0,1-2,.83,3.46,3.46,0,0,1-2.1-.28,3.88,3.88,0,0,1-1.39-1.25,6.19,6.19,0,0,1-.83-1.8,14.72,14.72,0,0,1-.42-1.94,13.91,13.91,0,0,1-.11-2,6,6,0,0,1,.32-2,3.73,3.73,0,0,1,1-1.58A3.44,3.44,0,0,1,136.53,233.51Zm.14,1.05a2.2,2.2,0,0,0-1.44.7,3.1,3.1,0,0,0-.67,1.33,6,6,0,0,0-.14,1.6c0,.56.07,1.06.13,1.5s.15.94.27,1.48a6.2,6.2,0,0,0,.57,1.51,3.15,3.15,0,0,0,1,1.11,2.6,2.6,0,0,0,3-.41,3.32,3.32,0,0,0,.67-1.34,6,6,0,0,0,.14-1.6c0-.56-.07-1.06-.13-1.5a15,15,0,0,0-.28-1.48,5.73,5.73,0,0,0-.56-1.5,3.08,3.08,0,0,0-1-1.11A2.17,2.17,0,0,0,136.67,234.56Z"/><path d="M145.29,239.91,142,236.84l1.48-.21,2.52,2.49,1.67-3.05,1.35-.19-2.22,3.83,3.77,3.52-1.48.2-3-2.9-2,3.59-1.39.19Z"/><path d="M156.31,242.45l-1.18.16-1.33-9.8L152,234.87l-.86-.75,2.65-2.75,1-.14Z"/><path d="M165.47,241.21l-1.19.16-1.33-9.8-1.85,2.06-.85-.76,2.64-2.74,1.05-.15Z"/><path d="M171.92,228.71a3.39,3.39,0,0,1,2.1.28,3.85,3.85,0,0,1,1.39,1.24,6.37,6.37,0,0,1,.83,1.81,14.59,14.59,0,0,1,.42,1.93,14.08,14.08,0,0,1,.11,2,6,6,0,0,1-.32,2,3.7,3.7,0,0,1-1,1.57,4,4,0,0,1-4.05.55,3.79,3.79,0,0,1-1.39-1.25,6.19,6.19,0,0,1-.83-1.8,14.59,14.59,0,0,1-.42-1.93,14.08,14.08,0,0,1-.11-2,6,6,0,0,1,.32-2,3.8,3.8,0,0,1,1-1.57A3.37,3.37,0,0,1,171.92,228.71Zm.14,1a2.2,2.2,0,0,0-1.44.7,3.16,3.16,0,0,0-.67,1.33,6,6,0,0,0-.14,1.6c0,.56.07,1.06.13,1.5s.15.94.28,1.49a5.73,5.73,0,0,0,.56,1.5,3.15,3.15,0,0,0,1,1.11,2.56,2.56,0,0,0,3-.41,3.28,3.28,0,0,0,.67-1.33,6.12,6.12,0,0,0,.14-1.61c0-.55-.07-1-.13-1.5s-.15-.93-.28-1.48a5.73,5.73,0,0,0-.56-1.5,3.15,3.15,0,0,0-1-1.11A2.21,2.21,0,0,0,172.06,229.75Z"/><path d="M183,233c0-.28-.08-.55-.14-.83s-.11-.54-.17-.81l1.17-.16.16,1.13h0a2.45,2.45,0,0,1,1-1.13,3.18,3.18,0,0,1,1.35-.52,3.59,3.59,0,0,1,.67,0,2.62,2.62,0,0,1,.72.14,2.44,2.44,0,0,1,.68.38,2.66,2.66,0,0,1,.59.71,2.5,2.5,0,0,1,.89-1.27,3.32,3.32,0,0,1,3.73-.16,3.09,3.09,0,0,1,1,2.06l.63,4.71-1.08.14-.59-4.33a3.1,3.1,0,0,0-.65-1.67,1.74,1.74,0,0,0-1.61-.39,2.05,2.05,0,0,0-1,.37,1.87,1.87,0,0,0-.58.7,2.46,2.46,0,0,0-.25.91,4,4,0,0,0,0,1l.53,3.94L189,238l-.59-4.33a3,3,0,0,0-.65-1.67,1.72,1.72,0,0,0-1.61-.39,2.51,2.51,0,0,0-.44.12,1.7,1.7,0,0,0-.69.45,2.47,2.47,0,0,0-.57.95,3.49,3.49,0,0,0-.09,1.63l.52,3.8-1.09.15Z"/><path d="M197.05,231c0-.27-.09-.55-.14-.82s-.11-.55-.17-.82l1.17-.16.15,1.13h0a2.66,2.66,0,0,1,1-1.14,3.47,3.47,0,0,1,1.35-.52,3.75,3.75,0,0,1,.68,0,2.47,2.47,0,0,1,.71.13,2.25,2.25,0,0,1,.68.39,2.35,2.35,0,0,1,.59.71,2.47,2.47,0,0,1,.9-1.27,2.81,2.81,0,0,1,1.43-.61,2.86,2.86,0,0,1,2.29.45,3.06,3.06,0,0,1,1,2l.64,4.71-1.09.15-.59-4.33a3,3,0,0,0-.64-1.67,1.73,1.73,0,0,0-1.61-.4,2.12,2.12,0,0,0-1,.37,2,2,0,0,0-.59.7,2.72,2.72,0,0,0-.25.92,4.37,4.37,0,0,0,0,1l.54,4-1.09.15-.59-4.33a3,3,0,0,0-.64-1.67,1.75,1.75,0,0,0-1.62-.4,3.37,3.37,0,0,0-.44.13,1.7,1.7,0,0,0-.69.45,2.55,2.55,0,0,0-.56.94,3.49,3.49,0,0,0-.09,1.63l.52,3.8-1.09.15Z"/></g><g class="cls-2"><path d="M126,36.14h-1.2V26.25L122.72,28l-.75-.86,3-2.37H126Z"/><path d="M137.76,36.14h-7.48V34.81L135,30.22l.54-.54c.17-.2.33-.4.48-.61a3.9,3.9,0,0,0,.35-.67,2.06,2.06,0,0,0,.13-.74,2,2,0,0,0-.17-.83,1.71,1.71,0,0,0-.5-.63,2.22,2.22,0,0,0-.73-.39,2.8,2.8,0,0,0-.88-.13,2.44,2.44,0,0,0-1.52.48,2.12,2.12,0,0,0-.82,1.29l-1.26-.13a3.19,3.19,0,0,1,1.2-2,3.75,3.75,0,0,1,2.32-.72,4.89,4.89,0,0,1,1.35.18,3.42,3.42,0,0,1,1.13.56,2.58,2.58,0,0,1,.78.92,2.6,2.6,0,0,1,.3,1.28,3.29,3.29,0,0,1-.21,1.2,4.81,4.81,0,0,1-.54,1,7.19,7.19,0,0,1-.76.91c-.28.29-.57.57-.87.85l-3.7,3.53h6.18Z"/><path d="M146.44,25.87h-4.8l-.08,3.41a3.46,3.46,0,0,1,.78-.21,5.4,5.4,0,0,1,.8-.07,3.9,3.9,0,0,1,1.51.28,3.43,3.43,0,0,1,1.17.76,3.35,3.35,0,0,1,.76,1.15,3.66,3.66,0,0,1-.85,4.11,4,4,0,0,1-1.25.76,4.52,4.52,0,0,1-1.58.27,3.94,3.94,0,0,1-2-.51,3.35,3.35,0,0,1-1.38-1.5l1.19-.5a2.59,2.59,0,0,0,.93,1.06,2.37,2.37,0,0,0,1.37.4,2.77,2.77,0,0,0,1.05-.2,2.83,2.83,0,0,0,.83-.54,2.43,2.43,0,0,0,.57-.8,2.54,2.54,0,0,0,.2-1,2.6,2.6,0,0,0-.81-1.95,2.7,2.7,0,0,0-.91-.55,3.42,3.42,0,0,0-1.17-.19,4.83,4.83,0,0,0-1.25.17,6.08,6.08,0,0,0-1.19.45l.12-5.87h6Z"/><path d="M153.77,30.32q0-.42,0-.84c0-.27,0-.55-.05-.83h1.18v1.14h0a2.46,2.46,0,0,1,1.1-1,3.18,3.18,0,0,1,1.41-.34,4.06,4.06,0,0,1,.67.06,2.46,2.46,0,0,1,.69.24,2.26,2.26,0,0,1,.62.47,2.31,2.31,0,0,1,.49.78,2.46,2.46,0,0,1,1.06-1.13,2.94,2.94,0,0,1,1.5-.42,2.89,2.89,0,0,1,2.21.76,3,3,0,0,1,.71,2.17v4.75h-1.09V31.77a3,3,0,0,0-.42-1.74,1.72,1.72,0,0,0-1.54-.61,2.12,2.12,0,0,0-1,.23,2,2,0,0,0-.68.62,2.63,2.63,0,0,0-.37.87,4.2,4.2,0,0,0-.11,1v4H159V31.77A3,3,0,0,0,158.6,30a1.72,1.72,0,0,0-1.54-.61l-.46.06a1.8,1.8,0,0,0-.74.36,2.71,2.71,0,0,0-.69.86,3.51,3.51,0,0,0-.3,1.6v3.84h-1.1Z"/><path d="M167.92,30.32c0-.28,0-.56,0-.84l-.06-.83H169v1.14h0a2.54,2.54,0,0,1,1.11-1,3.17,3.17,0,0,1,1.4-.34,4,4,0,0,1,.67.06,2.49,2.49,0,0,1,1.32.71A2.67,2.67,0,0,1,174,30a2.44,2.44,0,0,1,1.05-1.13,2.94,2.94,0,0,1,1.5-.42,2.87,2.87,0,0,1,2.21.76,3,3,0,0,1,.72,2.17v4.75h-1.1V31.77A3.11,3.11,0,0,0,178,30a1.75,1.75,0,0,0-1.55-.61,2.15,2.15,0,0,0-1,.23,1.9,1.9,0,0,0-.67.62,2.64,2.64,0,0,0-.38.87,4.76,4.76,0,0,0-.11,1v4h-1.1V31.77a3.11,3.11,0,0,0-.41-1.74,1.75,1.75,0,0,0-1.55-.61l-.46.06a1.77,1.77,0,0,0-.73.36,2.46,2.46,0,0,0-.69.86,3.37,3.37,0,0,0-.31,1.6v3.84h-1.1Z"/></g><g class="cls-2"><path d="M95.25,156.78v-1.63h1.06v1.63H99v1.15H96.31v4.9H95l-7.33-4.58v-1.47Zm-6.43,1.15v0l6.43,3.91v-3.94Z"/><path d="M87.48,150.09a3.19,3.19,0,0,1,.56-2A3.66,3.66,0,0,1,89.46,147a6.17,6.17,0,0,1,1.9-.56,13.58,13.58,0,0,1,2-.15,13.82,13.82,0,0,1,2,.15,6,6,0,0,1,1.89.56,3.77,3.77,0,0,1,1.43,1.16,3.75,3.75,0,0,1,0,3.94,3.89,3.89,0,0,1-1.43,1.17,6.3,6.3,0,0,1-1.89.56,13.76,13.76,0,0,1-2,.14,13.53,13.53,0,0,1-2-.14,6.45,6.45,0,0,1-1.9-.56A3.78,3.78,0,0,1,88,152.06,3.17,3.17,0,0,1,87.48,150.09Zm1,0a2.09,2.09,0,0,0,.5,1.47,3.19,3.19,0,0,0,1.23.81,6.09,6.09,0,0,0,1.57.34c.55,0,1,.07,1.5.07s1,0,1.5-.07a6.09,6.09,0,0,0,1.57-.34,3.19,3.19,0,0,0,1.23-.81,2,2,0,0,0,.5-1.47,2,2,0,0,0-.5-1.46,3.08,3.08,0,0,0-1.23-.81,6.09,6.09,0,0,0-1.57-.34c-.55,0-1-.07-1.5-.07s-1,0-1.5.07a6.09,6.09,0,0,0-1.57.34,3.08,3.08,0,0,0-1.23.81A2.07,2.07,0,0,0,88.53,150.09Z"/><path d="M87.48,141.2a3.17,3.17,0,0,1,.56-2,3.78,3.78,0,0,1,1.42-1.17,6.45,6.45,0,0,1,1.9-.56,15.09,15.09,0,0,1,2-.14,15.36,15.36,0,0,1,2,.14,6.3,6.3,0,0,1,1.89.56,3.89,3.89,0,0,1,1.43,1.17,3.75,3.75,0,0,1,0,3.94,3.77,3.77,0,0,1-1.43,1.16,6,6,0,0,1-1.89.56,13.82,13.82,0,0,1-2,.15,13.58,13.58,0,0,1-2-.15,6.17,6.17,0,0,1-1.9-.56A3.66,3.66,0,0,1,88,143.17,3.19,3.19,0,0,1,87.48,141.2Zm1,0a2.07,2.07,0,0,0,.5,1.46,3.08,3.08,0,0,0,1.23.81,5.7,5.7,0,0,0,1.57.34c.55.05,1,.08,1.5.08s1,0,1.5-.08a5.7,5.7,0,0,0,1.57-.34,3.08,3.08,0,0,0,1.23-.81,2,2,0,0,0,.5-1.46,2,2,0,0,0-.5-1.47,3.17,3.17,0,0,0-1.23-.8,5.71,5.71,0,0,0-1.57-.35c-.55-.05-1-.07-1.5-.07s-1,0-1.5.07a5.71,5.71,0,0,0-1.57.35,3.17,3.17,0,0,0-1.23.8A2.09,2.09,0,0,0,88.53,141.2Z"/><path d="M93.17,131.15l-.83,0-.83.06v-1.14h1.13v0a2.53,2.53,0,0,1-1-1.06,3.12,3.12,0,0,1-.33-1.35,3.74,3.74,0,0,1,.06-.65,2.42,2.42,0,0,1,.23-.67,2.34,2.34,0,0,1,.47-.6,2.85,2.85,0,0,1,.79-.47,2.48,2.48,0,0,1-1.14-1,2.78,2.78,0,0,1-.41-1.45,2.73,2.73,0,0,1,.76-2.13,3.08,3.08,0,0,1,2.16-.69H99V121H94.63a3.17,3.17,0,0,0-1.75.4,1.65,1.65,0,0,0-.6,1.49,1.91,1.91,0,0,0,.23,1,2,2,0,0,0,.61.65,3,3,0,0,0,.88.36,4.74,4.74,0,0,0,1,.11h4v1H94.63a3.26,3.26,0,0,0-1.75.4,1.67,1.67,0,0,0-.6,1.49,3.37,3.37,0,0,0,.06.44,1.62,1.62,0,0,0,.35.71,2.55,2.55,0,0,0,.86.67,3.57,3.57,0,0,0,1.61.29H99v1.06Z"/><path d="M93.17,117.52l-.83,0-.83.06v-1.14h1.13v0a2.59,2.59,0,0,1-1-1.06,3.12,3.12,0,0,1-.33-1.36,3.72,3.72,0,0,1,.06-.64,2.42,2.42,0,0,1,.23-.67,2.34,2.34,0,0,1,.47-.6,2.85,2.85,0,0,1,.79-.47,2.45,2.45,0,0,1-1.14-1,3.09,3.09,0,0,1,.35-3.57,3.08,3.08,0,0,1,2.16-.69H99v1.06H94.63a3.17,3.17,0,0,0-1.75.4,1.64,1.64,0,0,0-.6,1.48,1.92,1.92,0,0,0,.23,1,1.87,1.87,0,0,0,.61.64,2.55,2.55,0,0,0,.88.36,4.17,4.17,0,0,0,1,.12h4v1H94.63a3.26,3.26,0,0,0-1.75.4,1.66,1.66,0,0,0-.6,1.49,3.61,3.61,0,0,0,.06.44,1.62,1.62,0,0,0,.35.71,2.55,2.55,0,0,0,.86.67,3.71,3.71,0,0,0,1.61.29H99v1.06Z"/></g><path class="cls-3" d="M125.47,190.9l0,.06M179,211.39v0l0,.06-.06,0-.09,0-.06,0m0-.77.07,0,.09,0,.06,0,.06-.06v-.06m1.36-1v.13m-47.07,6.37,0-.06,0-.06m.31.28h0l-.06-.07v-.06m.34.28h0l0-.06,0-.06m.37.24h0l0,0,0-.09m.4.25h0l0-.07v-.06m.37.22h0l0-.06v-.1m.37.22v0l0,0v-.09m43.66-5h0v-.13m-16.07,2.07h0v-.12m-26.89,3.34h0l0-.06v-.06m39-17.45-.28,1.36-.43,1-.59,1-.71.89-.87.81-1,.74-1.08.62-1.14.53-1.18.43-2.48.59-2.53.37m12.31-11.82-2.1.77-2,.93-1.89,1-1.67,1.08-1.49,1.15-1.2,1.17-1,1.21-.68,1.18-.38,1.14-.09,1.12.19,1.08M131.13,56.53l-.09.09M139.73,75l-.46-.19-.65-.31m14.23-12.47,0,0,0,0-.12.12-.13,0-.18,0-.22,0h-.06l-.06,0m14.26,23.8-.55-.28m5.78,4.3h.1l.09-.06.09,0L172,90l.28-.12M154.9,62.94l-.19-.19m0,0,.22.19m-3.31.37.09-.22m-.37.53.09-.19.28-.34m25.44,26.27h0l0,0v.07M138.15,77l.1-.16m-5.36,138.86,0,0v-.07m47.75-6.25v.1l-.06.06-.09.06-.13,0M125.47,190.9v0m4.61,15.59-2.6-8.69-1.12-3.84-.21-.74-.22-.78-.25-.74-.21-.77M180,196.13H180l.07,0,0,0,.06,0,0,0v0l0,0m-5.45.56v.06l0,.06.09.07.09,0h.16m-.38-.22v1.39l-.09,1.4m-41.84,16.33-.34-.86-.25-.84-.24-.83-.25-.81-.77-2.63-.93-3.19M133.2,216l-.34-.38m.59.53-.25-.15m.5.31-.13-.1-.12-.06m.56.28-.16-.06-.15-.06m.65.24-.19-.06-.15-.06m.68.18-.19,0-.15,0m.68.13-.34-.07m1.05.13h-.34l-.37-.06m27.63-3.16-15,1.83-6.59.8-1.3.16-1.3.15-1.3.15-1.39.13m-5.82-15.69.16,5.41m43-26,.13.46.37,1.21.55,1.95.34,1.14M125.34,185l.06-.19.1-.21m-.19.83v-.06m0,.19v-.07l0-.06m4,13.43-2-6.65-2-6.65m4.21,14.26-.15-.49-.13-.47m.4,1.33-.06-.18-.06-.19m.25.87-.06-.25-.07-.25m.25.84-.06-.19-.06-.15m2.69,9-1.3-4.33-1.27-4.33m2.57,8.73v-.07m.22.44-.13-.19-.09-.18m.56.74-.19-.19-.15-.18m.59.52-.13-.06-.12-.09m.49.31-.12-.06-.12-.1m.55.31-.15-.06-.16-.09m.65.25-.18,0-.16-.06m.68.19-.18,0-.16-.06m.68.15-.18,0-.16,0m1.06.09h-.34l-.38,0m27.64-3.13-13.46,1.61-7.52.9-1.49.19-1.48.18-1.49.16-1.48.12m26.92-3.16v-.21l0-.06v-.13l0-.06v0m12.72-10.89,4.79-.59m-4.79.59,0,1.05,0,1-.13,1.05-.25,1.06-.43,1-.62,1-.74.93-.9.83-1,.74-1.11.69-1.15.52-1.23.43-1,.28-1,.25-1,.16-1,.15-1.08.15m0,0,.15,5.42m16.07-2-16.07,2m16-2.72,0,.77m1.6-1.95-.55.13-.5.21-.25.19-.18.18-.12.22,0,.25M180,196.13l.37,13.49m-47.5-.15-.34-1.18-.34-1.18-.56-1.82-1.2-4.18m2.6,8.7-.1-.19-.06-.15m.5.68-.19-.19-.15-.15m.52.46-.09-.06-.09-.06m.43.28-.12-.07-.13-.09m.53.28-.13-.06-.15-.06m.56.21-.13-.06-.15,0m.59.15-.16,0-.15,0m.65.13-.19,0-.15,0m1,.1h-.31l-.31,0m27.48-3.16L149,209.22l-7.52.93-3.31.37-.87.12-.84.1-.89.06m36.88-31.35.38,1.24.34,1.23.55,1.92.74,2.54m-2.22-7.27.12.18.09.16m-.37-.5.1.1.06.06m-.34-.31.09.06.09.09m-.43-.31.12.1.13.06m-.5-.28.13.06.12.06m-.53-.21.13.06.15,0m-.59-.19.16,0,.15.06m-.62-.16.16,0,.15,0m-.65-.09h.19l.15,0m-1-.06h.31l.31,0m-42.55,5,1.24-.16,1.21-.12,1.23-.16,2.88-.34,5.17-.59,9.25-1.11,11.73-1.45,5.17-.65,1.33-.19,1.36-.15,1.36-.16M127,183.47l.31-.09.28-.09m-.83.31.12-.07.12-.06m-.52.25.12-.06.16-.06m-.5.27.13-.09.09-.06m-.43.31.12-.06.09-.1m-.37.34.09-.09.07-.09m-.28.37.06-.09.06-.1m-.28.56.06-.18.1-.19m-.16.74v-.37m4,13.87-2-6.72-1.11-3.81-.31-1-.31-1-.28-1M130,199.87l-.19-.62-.19-.61m.62,2.1-.12-.43-.12-.44m.24.87.13.37m49.85-5.17h0l0,0v0l0,0-.06,0,0,0-.07,0H180m-4.79.59H175l-.06,0h-.06l-.06-.07,0,0v-.06M172.23,94.87l2.94,101.85m4.79-.59-4.79.59M177,94.28,180,196.13M177,94.28l.06,0h.07l.06,0,0,0,0,0,0,0v-.06m-5.45.62v.06l.07,0,0,0,.06,0,.06,0h.16m0,0,4.79-.59M132,56.1l-.21.06-.44.18-.18.19m36.83-5-.59.09-.71.37-1,.62-1.2.87-1.55,1.14-1.7,1.3-1.89,1.43m9.16-5.61h0v0h0l-.06,0-.19-.06-.15-.06-.06,0h0m1,14.82.4-1,.37-1.24.28-1.42.15-1.52.1-2.35-.07-2.38-.12-1.46-.22-1.26-.34-1L169,52l-.56-.25m0,0-.52.13-.72.4-1,.62-1.17.9L163.62,55,162,56.34l-1.76,1.46m7,10.83.62-.65.71-.84.47-.74m-24.73-7.18-2.51-.83-2.32-.78-2.1-.65-1.77-.55L134.07,56,133,55.88l-.84,0m0,0h0v0l-.06,0-.13.13m-.21.15h0l.06-.06.12-.09m6.66,18.44-.19-.06-.74-.34L137,73.8l-.68-.34-.65-.31-.65-.34-1.15-.62-1-.65-.77-.65m11.48-11.11-2.41-.9-2.29-.83-2.05-.72-1.73-.52-1.45-.4-1.09-.19-.8,0m.34,14.64-.65-.87-.59-1.14-.43-1.36-.34-1.43-.28-2.32-.06-2.35.09-1.61.22-1.39.4-1.09.56-.71.74-.37m45.49,37.94-.09.06-.13,0m.22-.09,0-1.42m-5.26,2-.06-.06,0,0v-.06m.22.21-.06,0-.06,0m0,0,0-1.39m.31,1.45h-.16m0,0,0-1.42M152.64,62l-.37-.1-.72-.24-.86-.28L149.57,61,148,60.46l-1.85-.59-1.89-.65m15.19-1.86h-.09v0m12.91,37.47,0-1.42m4.82.83-4.79.59m4.79-.59,0-1.42m.22-.09,0,0v-.1m-10.8-6.4-.09,0-.07,0M151.71,63.09l.09-.09.06-.06.07-.07.12-.09v-.19l-.06-.12v-.06l0,0m19.8,30.85v.06l0,.07.07.06m.12,0-.06,0h-.06M160.19,57.8l-1.21,1-1.18,1-1,.9-.83.74-.56.5-.4.4-.19.24-.09.16m-3,.34-.19-.12-.31-.16-.65-.31-.8-.34-1-.4-1.55-.62-1.73-.68-1.86-.68m33.64,33-.06,0,0,0-.07,0H177m.22-.09,0-.44v-.46l0-.93,0-.46v-1m-4.86.43-.16.87-.09.8,0,.46,0,.59,0,.84m0,0h.16m0,0,4.79-.59M154.71,62.75l-.15,0-.1.06-.09.1,0,.06,0,.12,0,.12v0l0,0m-.93.52.16-.21.06-.07.09-.09.12,0,.19,0,.19,0,.09,0h0v0m.56-.37.28.15.65.28.77.37,1.05.5,1.55.71,1.76.83,1.83.84m-16.62,2,1.21-1.18,1.17-1.14,1-1,.84-.81L151,64l.4-.41.22-.24M155,84.2l2.47-.19h1.27l1.3.09,1.33.25,1.36.34.93.28,1,.37,1.15.56M153.44,63.83l.34.06.37.1.72.21.86.34,1.08.44,1.65.65,1.82.74,1.92.8m14.92,22.07,0,.12m-32-1.3,1.39-1,1.18-.71,1.17-.59,1.21-.46,1.58-.5,1.61-.34L155,84.2m0,0,0-.59-.1-.9-.09-1.08-.15-1.52-.13-1.64-.28-3.09-.21-3-.16-2.84-.15-2.63-.06-1.06,0-.89-.07-.59-.06-.5m-6.37,5.23,1.3-1.14,1.27-1.09,1.14-1,.93-.78.62-.52.49-.38.31-.21.31-.16m9.38,2.79,2.44,1.14,2.23,1,2,.93,1.61.81,1.24.68.9.62.74.68m0,0,.52.56m-2.22,16.8.31-.06h.18l0,0,.13,0h.55l.59-.06.74-.06,1.09-.13.74-.09.37-.06h.06l0,0h0M165.73,85.9l1.33.62.9.43.77.4.65.37.59.34.46.38.31.24.25.22.25.25.18.21.22.22.21.19.41.12m1.3-17,.8.93.81,1.17.61,1.4.35,1.51.12,1.55,0,1.58-.06,1.76-.31,1.77-.68,1.7-.31.56-.38.55-.4.53-.4.53-.4.49-.43.46-.59.5M162.2,67.17l2.51,1.06,2.29,1,2,.9,1.61.77,1.27.71.89.59.78.68M138.34,92h0v0h.09l.16.06.06,0m-1.33-13.37.12-.37.53-1.12M138.34,92l-.22-.12m.13-15,.24-.4.72-.87.92-1,1.18-1.2,1.49-1.46,1.64-1.58,1.76-1.7M138,77.29l.18-.27m.72,15.19-.41-.25-.37-.62-.31-.92-.18-1.18-.19-2.17-.06-2.35V83.14l.09-1.54.22-1.46.37-1.45.5-1.18m6.65,10.55-.93.72-.65.49-.59.43-.55.41-.5.34-.49.37-.47.34-.87.56-.74.37-.52.12m-.34-14.7.52-.77.71-.84,1-1L142,73.7l1.52-1.42,1.73-1.55,1.86-1.67M125.5,191l.24.87.22.74.19.65.15.56.16.46.21.74.22.78.84,2.75.49,1.8.5,1.61.21.71.28,1,.4,1.33.47,1.61m50.28,3.53v-.34m-1.67,1.95h.07l.06,0,.06,0,0,0,0-.06,0-.06v-.06l0,0m0,0,0-.81m1.36-.83h0l.1,0,0,0,.06-.06,0-.09,0-.09M179,210.58v-.09l.06-.13.1-.12.18-.12.44-.25.58-.12m-50.25-3.19.34,1.17.31,1,.24.81.19.65.12.49.28,1,.4,1.3.16.47.15.52.16.56.18.59.28.65m0,0,.37.4m0,0,.25.19m0,0,.28.12m0,0,.28.15m0,0,.34.1m0,0,.31.09m0,0,.34.06m0,0,.71,0m26.89-3.22,16-1.94m1.92-2.3-.37-13.46m-54.93-10.58.09,2.75.07,2.79m10.3,26,1.49-.12,1.27-.16,1.11-.12,1-.12.8-.1,1.3-.15,1.3-.19,4.8-.55,3.06-.37,2.82-.35.93-.12,1.24-.15,1.61-.19,1.91-.25,2.29-.28m12.07-14.45-.06.34-.09.5-.13.31-.09.28-.12.18-.06.13,0,0M173,180.32l-.18-.65-.38-.59-.49-.37-.65-.31-1-.25h-1.05l-1.06.12-1.08.13-1.11.15-1.12.12-4.08.53-18.17,2.23-4.55.53-4.64.55-2.38.28-2.51.28-1.17.18-1,.38-.41.28-.37.33-.12.22m-.22.62,0,.34m54.93,10.52L177.3,94.07m-5.45.62,2.94,101.84M167.18,68.66l.84-1,.37-.43m.56-.9.3-.68.28-.74.38-1.55.3-2.07.1-1.74V58.26l0-1.27-.13-1.7-.24-1.55-.22-.74-.37-.65-.56-.49-.74-.25m-36.74,4.76-.15.1m1-.53-.56.25-.21.12m-.22.16-.09.06m0,0-.44.46-.31.53-.31.9-.15.77-.09.77-.07,1.61.07,1.64.12,1.67.28,1.64.12.56.13.56.21.62.53,1.2.43.72.56.68M177.3,94.07l0-1.4m-5.48.59.06,1.43m-19-32.59-.37-.12m6.93-4.62-1.36,1-1.11.83-.9.68-.65.5-1.11.83-.56.44-.31.21-.34.19m0,0h-.22m24.39,30.54-.06-1.73,0-1.52m-10.74-3.12,2.78,1.36,1.24.87.43.43.28.43.19.34.09.25.09.25m0,0,.07.31.06.31.09.59.09,1.85m5.3-4-.07-2.2L177,85.19l0-1.27,0-.81v-.86l0-1v-1l0-1.15-.1-1.14-.24-1.3-.4-1.12-.62-1.11-.68-1-.65-.81m0,0-.22-.18v0m0,0-.19-.16M137.5,78.22l-.09.34m0,0-.34,1-.28,1.33-.18,1.83-.07,1.52v1.3l.07,1.26.09,1.09.09,1,.19,1,.25.77.37.71.52.56.68.31m-.55-15.35-.1.16m0,0-.31.49-.09.25m0,0-.25.46M180.24,210h0m0,0-.15-.12-.1-.06"/></svg>