<svg id="chasen" xmlns="http://www.w3.org/2000/svg" xmlns:xlink="http://www.w3.org/1999/xlink" viewBox="0 0 300 263"><defs><style>.cls-1,.cls-3,.cls-4{fill:none;}.cls-2{isolation:isolate;}.cls-3{stroke:#000;}.cls-3,.cls-4{stroke-width:0.5px;}.cls-4{stroke:#231f20;stroke-linecap:round;stroke-linejoin:round;}.cls-5{clip-path:url(#clip-path);}</style><clipPath id="clip-path"><rect id="SVGID" class="cls-1" x="105" y="47.02" width="89.19" height="170.32"/></clipPath></defs><title>chasen-suspension-urquiola-flos-F1636009-spech-tech-02-300x263</title><g class="cls-2"><path d="M74.54,190.46,84.81,195v1.3l-10.27-4.66v5.52H73.48v-6.72Z"/><path d="M78.35,186.08l0,0a2.06,2.06,0,0,1-.29-.73,4.3,4.3,0,0,1-.09-.84,3.63,3.63,0,0,1,.26-1.37A3.42,3.42,0,0,1,79,182a3.31,3.31,0,0,1,1.1-.73A3.62,3.62,0,0,1,81.5,181a3.68,3.68,0,0,1,1.43.28,3.24,3.24,0,0,1,1.1.76,3.49,3.49,0,0,1,.72,1.17,4.31,4.31,0,0,1,0,3,3.54,3.54,0,0,1-.72,1.16,3.27,3.27,0,0,1-1.1.77,3.68,3.68,0,0,1-1.43.27,4.39,4.39,0,0,1-1.65-.28,8.55,8.55,0,0,1-1.39-.69l-5-3.06V183Zm3.15,1.15a2.64,2.64,0,0,0,1-.18,2.32,2.32,0,0,0,.78-.52,2.21,2.21,0,0,0,.5-.8,3,3,0,0,0,0-2,2.13,2.13,0,0,0-.5-.8,2.32,2.32,0,0,0-.78-.52,2.81,2.81,0,0,0-2,0,2.18,2.18,0,0,0-.77.52,2.41,2.41,0,0,0-.5.8,2.86,2.86,0,0,0,0,2,2.52,2.52,0,0,0,.5.8,2.18,2.18,0,0,0,.77.52A2.64,2.64,0,0,0,81.5,187.23Z"/><path d="M73.29,175.81a3.24,3.24,0,0,1,.56-2,3.89,3.89,0,0,1,1.43-1.17,6.3,6.3,0,0,1,1.89-.56,15.36,15.36,0,0,1,2-.14,15.09,15.09,0,0,1,2,.14,6.45,6.45,0,0,1,1.9.56,3.78,3.78,0,0,1,1.42,1.17,3.69,3.69,0,0,1,0,3.94A3.66,3.66,0,0,1,83,178.94a6.17,6.17,0,0,1-1.9.56,13.58,13.58,0,0,1-2,.15,13.82,13.82,0,0,1-2-.15,6,6,0,0,1-1.89-.56,3.77,3.77,0,0,1-1.43-1.16A3.26,3.26,0,0,1,73.29,175.81Zm1.06,0a2,2,0,0,0,.5,1.46,3.08,3.08,0,0,0,1.23.81,5.7,5.7,0,0,0,1.57.34c.55.05,1,.08,1.5.08s.95,0,1.5-.08a5.7,5.7,0,0,0,1.57-.34,3.08,3.08,0,0,0,1.23-.81,2.07,2.07,0,0,0,.5-1.46,2.09,2.09,0,0,0-.5-1.47,3.17,3.17,0,0,0-1.23-.8,5.71,5.71,0,0,0-1.57-.35c-.55-.05-1.05-.07-1.5-.07s-1,0-1.5.07a5.71,5.71,0,0,0-1.57.35,3.17,3.17,0,0,0-1.23.8A2,2,0,0,0,74.35,175.81Z"/><path d="M85.1,170.35l-.3.93-11.6-4.85.32-.91Z"/><path d="M78.78,162.46a2,2,0,0,1-.38.68,2.3,2.3,0,0,1-.58.54,2.73,2.73,0,0,1-.73.35,2.63,2.63,0,0,1-.84.13A2.9,2.9,0,0,1,75,163.9a3,3,0,0,1-.94-.68,3.27,3.27,0,0,1-.59-1,3.56,3.56,0,0,1-.21-1.22,3.5,3.5,0,0,1,.21-1.21,3.16,3.16,0,0,1,.59-1,2.83,2.83,0,0,1,.94-.69,2.9,2.9,0,0,1,1.22-.26,3,3,0,0,1,.84.13,3.07,3.07,0,0,1,.73.35,2.3,2.3,0,0,1,.58.54,2.19,2.19,0,0,1,.38.68h0A2.74,2.74,0,0,1,79.87,158a3.21,3.21,0,0,1,1.92-.57,3.05,3.05,0,0,1,1.33.29,3.38,3.38,0,0,1,1.66,1.92A4.19,4.19,0,0,1,85,161a4.15,4.15,0,0,1-.23,1.37,3.3,3.3,0,0,1-1.66,1.92,2.92,2.92,0,0,1-1.33.3,3.21,3.21,0,0,1-1.92-.58,2.71,2.71,0,0,1-1.06-1.54ZM76.35,159a2.07,2.07,0,0,0-.8.15,1.74,1.74,0,0,0-.63.42,2,2,0,0,0-.42.64,2.11,2.11,0,0,0-.15.8,2.07,2.07,0,0,0,.15.8,1.87,1.87,0,0,0,.42.64,1.9,1.9,0,0,0,.63.43,2.07,2.07,0,0,0,.8.15,2.11,2.11,0,0,0,.8-.15,2.13,2.13,0,0,0,.63-.43,1.87,1.87,0,0,0,.42-.64,2.07,2.07,0,0,0,.15-.8,2.11,2.11,0,0,0-.15-.8,2,2,0,0,0-.42-.64,1.93,1.93,0,0,0-.63-.42A2.11,2.11,0,0,0,76.35,159Zm5.28-.42a2.39,2.39,0,0,0-1.66.66,2.42,2.42,0,0,0-.49.77,3,3,0,0,0-.17,1,2.89,2.89,0,0,0,.17,1,2.37,2.37,0,0,0,.49.76,2.47,2.47,0,0,0,2.58.49,2.18,2.18,0,0,0,.73-.49,2.08,2.08,0,0,0,.49-.76,2.67,2.67,0,0,0,.18-1,2.73,2.73,0,0,0-.18-1,2.12,2.12,0,0,0-.49-.77,2.16,2.16,0,0,0-.73-.48A2.32,2.32,0,0,0,81.63,158.56Z"/><path d="M74.54,149.1v4.63l3.41.08a3.51,3.51,0,0,1-.21-.75,5.09,5.09,0,0,1-.06-.77,3.8,3.8,0,0,1,.27-1.46,3.26,3.26,0,0,1,.76-1.13,3.42,3.42,0,0,1,1.15-.73,3.82,3.82,0,0,1,1.45-.27,3.89,3.89,0,0,1,1.5.29,3.39,3.39,0,0,1,1.16.8,3.6,3.6,0,0,1,.76,1.21,4.14,4.14,0,0,1,.28,1.51,3.75,3.75,0,0,1-.52,1.94,3.37,3.37,0,0,1-1.5,1.33l-.5-1.16a2.61,2.61,0,0,0,1.07-.89,2.28,2.28,0,0,0,.39-1.32,2.6,2.6,0,0,0-.2-1,2.46,2.46,0,0,0-.54-.8,2.52,2.52,0,0,0-1.79-.74,3,3,0,0,0-1.09.2,2.52,2.52,0,0,0-.85.58,2.35,2.35,0,0,0-.55.88,3.1,3.1,0,0,0-.2,1.12,4.59,4.59,0,0,0,.17,1.21,5.14,5.14,0,0,0,.46,1.14l-5.88-.11V149.1Z"/><path d="M73.29,143.2a3.24,3.24,0,0,1,.56-2,3.89,3.89,0,0,1,1.43-1.17,6.6,6.6,0,0,1,1.89-.56,15.36,15.36,0,0,1,2-.14,15.09,15.09,0,0,1,2,.14,6.77,6.77,0,0,1,1.9.56,3.78,3.78,0,0,1,1.42,1.17,3.69,3.69,0,0,1,0,3.94A3.78,3.78,0,0,1,83,146.34a6.77,6.77,0,0,1-1.9.56,15.09,15.09,0,0,1-2,.14,15.36,15.36,0,0,1-2-.14,6.6,6.6,0,0,1-1.89-.56,3.89,3.89,0,0,1-1.43-1.17A3.24,3.24,0,0,1,73.29,143.2Zm1.06,0a2,2,0,0,0,.5,1.46,3.08,3.08,0,0,0,1.23.81,6.09,6.09,0,0,0,1.57.35c.55,0,1,.07,1.5.07s.95,0,1.5-.07a6.09,6.09,0,0,0,1.57-.35,3.08,3.08,0,0,0,1.23-.81,2.38,2.38,0,0,0,0-2.92,3.08,3.08,0,0,0-1.23-.81,6.09,6.09,0,0,0-1.57-.35c-.55,0-1.05-.07-1.5-.07s-1,0-1.5.07a6.09,6.09,0,0,0-1.57.35,3.08,3.08,0,0,0-1.23.81A2,2,0,0,0,74.35,143.2Z"/><path d="M79,133.15c-.28,0-.56,0-.83,0l-.84,0V132.1h1.14v0a2.41,2.41,0,0,1-1-1.06,2.94,2.94,0,0,1-.34-1.35,3.07,3.07,0,0,1,.07-.65,2.25,2.25,0,0,1,.23-.66,2,2,0,0,1,.47-.6,2.41,2.41,0,0,1,.79-.48,2.43,2.43,0,0,1-1.14-1,3.07,3.07,0,0,1,.34-3.58,3.12,3.12,0,0,1,2.17-.69h4.75V123H80.44a3.16,3.16,0,0,0-1.74.4,1.67,1.67,0,0,0-.61,1.49,1.82,1.82,0,0,0,.85,1.64,3.07,3.07,0,0,0,.87.36,4.9,4.9,0,0,0,1,.11h4v1.06H80.44a3.16,3.16,0,0,0-1.74.4,1.65,1.65,0,0,0-.61,1.48,2.52,2.52,0,0,0,.07.44,1.71,1.71,0,0,0,.35.72,2.67,2.67,0,0,0,.86.66,3.53,3.53,0,0,0,1.6.3h3.84v1.05Z"/><path d="M79,119.52l-.83,0-.84.06v-1.14h1.14v0a2.41,2.41,0,0,1-1-1.06,2.91,2.91,0,0,1-.27-2,2.42,2.42,0,0,1,.23-.67,2.34,2.34,0,0,1,.47-.6,2.58,2.58,0,0,1,.79-.47,2.43,2.43,0,0,1-1.14-1,3.07,3.07,0,0,1,.34-3.58,3.12,3.12,0,0,1,2.17-.69h4.75v1.06H80.44a3.16,3.16,0,0,0-1.74.4,1.65,1.65,0,0,0-.61,1.49,2,2,0,0,0,.23,1,2.14,2.14,0,0,0,.62.65,3.07,3.07,0,0,0,.87.36,4.9,4.9,0,0,0,1,.11h4v1H80.44a3.25,3.25,0,0,0-1.74.4,1.68,1.68,0,0,0-.61,1.49,2.52,2.52,0,0,0,.07.44,1.62,1.62,0,0,0,.35.71,2.55,2.55,0,0,0,.86.67,3.55,3.55,0,0,0,1.6.29h3.84v1.06Z"/></g><g class="cls-2"><path d="M78.35,84.17v-.59a4.19,4.19,0,0,0-.11-1,2.3,2.3,0,0,0-.36-.79,1.72,1.72,0,0,0-.65-.54,2.19,2.19,0,0,0-1-.2,1.82,1.82,0,0,0-1.42.55,2.24,2.24,0,0,0-.5,1.55,2.46,2.46,0,0,0,.32,1.26,2.52,2.52,0,0,0,.93.9l-.51,1a3.42,3.42,0,0,1-1.36-1.3,3.75,3.75,0,0,1-.44-1.83A4.38,4.38,0,0,1,73.48,82a3.18,3.18,0,0,1,.57-1,2.74,2.74,0,0,1,.93-.71A3,3,0,0,1,76.24,80a2.58,2.58,0,0,1,.88.15,2.63,2.63,0,0,1,.75.42,2.8,2.8,0,0,1,.58.61,2.89,2.89,0,0,1,.38.74l0-.05a2.72,2.72,0,0,1,.36-.88,2.67,2.67,0,0,1,.65-.69,3.06,3.06,0,0,1,.86-.45,3.39,3.39,0,0,1,1-.16,3.23,3.23,0,0,1,1.39.29,3,3,0,0,1,1,.79,3.46,3.46,0,0,1,.63,1.15A4.55,4.55,0,0,1,85,83.26a4.28,4.28,0,0,1-.55,2.18,3.33,3.33,0,0,1-1.74,1.39l-.37-1.22a2.41,2.41,0,0,0,1.21-.85,2.8,2.8,0,0,0,.39-1.6,2.53,2.53,0,0,0-.16-.91,2.34,2.34,0,0,0-.46-.76,1.93,1.93,0,0,0-.71-.51,2.27,2.27,0,0,0-.91-.18,2.21,2.21,0,0,0-1.08.24,2,2,0,0,0-.71.64,2.65,2.65,0,0,0-.4.92,4.7,4.7,0,0,0-.12,1.08v.49Z"/><path d="M74.54,71l10.27,4.56v1.29L74.54,72.16v5.52H73.48V71Z"/><path d="M73.29,65.2a3.24,3.24,0,0,1,.56-2,3.89,3.89,0,0,1,1.43-1.17,6.3,6.3,0,0,1,1.89-.56,13.76,13.76,0,0,1,2-.14,13.53,13.53,0,0,1,2,.14,6.45,6.45,0,0,1,1.9.56,3.78,3.78,0,0,1,1.42,1.17,3.67,3.67,0,0,1,0,3.93A3.69,3.69,0,0,1,83,68.33a6.17,6.17,0,0,1-1.9.56,13.58,13.58,0,0,1-2,.15,13.82,13.82,0,0,1-2-.15,6,6,0,0,1-1.89-.56,3.79,3.79,0,0,1-1.43-1.17A3.21,3.21,0,0,1,73.29,65.2Zm1.06,0a2,2,0,0,0,.5,1.46,3.08,3.08,0,0,0,1.23.81,6.09,6.09,0,0,0,1.57.34c.55,0,1,.07,1.5.07s.95,0,1.5-.07a6.09,6.09,0,0,0,1.57-.34,3.08,3.08,0,0,0,1.23-.81,2.4,2.4,0,0,0,0-2.93,3.08,3.08,0,0,0-1.23-.81,6.09,6.09,0,0,0-1.57-.34c-.55,0-1.05-.07-1.5-.07s-1,0-1.5.07a6.09,6.09,0,0,0-1.57.34,3.08,3.08,0,0,0-1.23.81A2,2,0,0,0,74.35,65.2Z"/><path d="M73.29,56.3a3.24,3.24,0,0,1,.56-2,3.89,3.89,0,0,1,1.43-1.17,6.6,6.6,0,0,1,1.89-.56,15.36,15.36,0,0,1,2-.14,15.09,15.09,0,0,1,2,.14,6.77,6.77,0,0,1,1.9.56,3.78,3.78,0,0,1,1.42,1.17,3.69,3.69,0,0,1,0,3.94A3.78,3.78,0,0,1,83,59.44a6.77,6.77,0,0,1-1.9.56,15.09,15.09,0,0,1-2,.14,15.36,15.36,0,0,1-2-.14,6.6,6.6,0,0,1-1.89-.56,3.89,3.89,0,0,1-1.43-1.17A3.24,3.24,0,0,1,73.29,56.3Zm1.06,0a2,2,0,0,0,.5,1.46,3.08,3.08,0,0,0,1.23.81,6.09,6.09,0,0,0,1.57.35c.55,0,1,.07,1.5.07s.95,0,1.5-.07a6.09,6.09,0,0,0,1.57-.35,3.08,3.08,0,0,0,1.23-.81,2.38,2.38,0,0,0,0-2.92A3.08,3.08,0,0,0,82.22,54a6.09,6.09,0,0,0-1.57-.35c-.55,0-1.05-.07-1.5-.07s-1,0-1.5.07a6.09,6.09,0,0,0-1.57.35,3.08,3.08,0,0,0-1.23.81A2,2,0,0,0,74.35,56.3Z"/><path d="M79,46.25c-.28,0-.56,0-.83,0l-.84,0V45.2h1.14v0a2.41,2.41,0,0,1-1-1.06,2.94,2.94,0,0,1-.34-1.35,3,3,0,0,1,.07-.65,2.25,2.25,0,0,1,.23-.66,2,2,0,0,1,.47-.6,2.41,2.41,0,0,1,.79-.48,2.43,2.43,0,0,1-1.14-1,3.07,3.07,0,0,1,.34-3.58,3.12,3.12,0,0,1,2.17-.69h4.75v1.06H80.44a3.16,3.16,0,0,0-1.74.4A1.67,1.67,0,0,0,78.09,38a1.82,1.82,0,0,0,.85,1.64,3.07,3.07,0,0,0,.87.36,4.9,4.9,0,0,0,1,.11h4V41.2H80.44a3.16,3.16,0,0,0-1.74.4,1.65,1.65,0,0,0-.61,1.48,2.52,2.52,0,0,0,.07.44,1.71,1.71,0,0,0,.35.72,2.67,2.67,0,0,0,.86.66,3.53,3.53,0,0,0,1.6.3h3.84v1Z"/><path d="M79,32.62l-.83,0-.84.06V31.56h1.14v0a2.41,2.41,0,0,1-1-1.06,2.91,2.91,0,0,1-.27-2,2.42,2.42,0,0,1,.23-.67,2.34,2.34,0,0,1,.47-.6,2.58,2.58,0,0,1,.79-.47,2.43,2.43,0,0,1-1.14-1,3.07,3.07,0,0,1,.34-3.58,3.12,3.12,0,0,1,2.17-.69h4.75v1.06H80.44a3.16,3.16,0,0,0-1.74.4,1.65,1.65,0,0,0-.61,1.49,2,2,0,0,0,.23,1,2.14,2.14,0,0,0,.62.65,3.07,3.07,0,0,0,.87.36,4.9,4.9,0,0,0,1,.11h4v1H80.44a3.25,3.25,0,0,0-1.74.4,1.68,1.68,0,0,0-.61,1.49,2.52,2.52,0,0,0,.07.44,1.62,1.62,0,0,0,.35.71,2.55,2.55,0,0,0,.86.67,3.69,3.69,0,0,0,1.6.29h3.84v1.06Z"/></g><g class="cls-2"><path d="M105,242.31a3.62,3.62,0,0,1,.68,1.16,4.05,4.05,0,0,1,.25,1.45,4.22,4.22,0,0,1-.29,1.57,4,4,0,0,1-.83,1.25,3.82,3.82,0,0,1-1.25.82,4.23,4.23,0,0,1-1.61.3,4.15,4.15,0,0,1-1.4-.23,3.94,3.94,0,0,1-1.11-.6l-1.08,1.08-.51-.49,1.06-1.09a3.56,3.56,0,0,1-.69-1.18,4.17,4.17,0,0,1-.24-1.43,4.07,4.07,0,0,1,.3-1.57,3.73,3.73,0,0,1,2.08-2.07A4.09,4.09,0,0,1,102,241a4.45,4.45,0,0,1,1.39.21,3.65,3.65,0,0,1,1.15.62l1.06-1.09.51.49Zm-1.24.26A2.65,2.65,0,0,0,102,242a2.79,2.79,0,0,0-1.18.23,2.54,2.54,0,0,0-.88.63,3,3,0,0,0-.56.94,3.46,3.46,0,0,0-.2,1.17,3,3,0,0,0,.55,1.83Zm-3.6,4.72a2.72,2.72,0,0,0,.8.45,3,3,0,0,0,1,.16,2.87,2.87,0,0,0,1.17-.23,2.75,2.75,0,0,0,1.46-1.58,3.42,3.42,0,0,0,.2-1.17,3.13,3.13,0,0,0-.54-1.82Z"/><path d="M119.14,248.67h-7.2v-1.33l4.51-4.59.51-.55a4.64,4.64,0,0,0,.46-.61,3.25,3.25,0,0,0,.34-.67,2.26,2.26,0,0,0,.13-.74,2.05,2.05,0,0,0-.17-.83,1.79,1.79,0,0,0-.47-.62,2.23,2.23,0,0,0-.71-.39,2.6,2.6,0,0,0-.84-.14,2.33,2.33,0,0,0-1.48.48,2.2,2.2,0,0,0-.78,1.3l-1.22-.13a3.16,3.16,0,0,1,1.16-2,3.48,3.48,0,0,1,2.24-.72,4.64,4.64,0,0,1,1.3.18,3.39,3.39,0,0,1,1.09.55,2.69,2.69,0,0,1,1,2.21,3.51,3.51,0,0,1-.2,1.2,4.9,4.9,0,0,1-.52,1,6.33,6.33,0,0,1-.73.91c-.27.29-.55.58-.84.85l-3.57,3.54h6Z"/><path d="M123,242.63a2.25,2.25,0,0,1-.68-.37,2.53,2.53,0,0,1-.54-.59,3.07,3.07,0,0,1-.35-.73,2.9,2.9,0,0,1,.13-2.06,2.69,2.69,0,0,1,.69-.93,3,3,0,0,1,1-.6,3.45,3.45,0,0,1,1.21-.2,3.55,3.55,0,0,1,1.22.2,3.11,3.11,0,0,1,1,.6,2.8,2.8,0,0,1,.68.93,2.91,2.91,0,0,1,.26,1.23,2.62,2.62,0,0,1-.13.83,2.73,2.73,0,0,1-.35.73,2.53,2.53,0,0,1-.54.59,2.14,2.14,0,0,1-.68.37v0a2.69,2.69,0,0,1,1.54,1.05,3.21,3.21,0,0,1,.58,1.92,2.92,2.92,0,0,1-.3,1.33,3.21,3.21,0,0,1-1.92,1.66,4.15,4.15,0,0,1-1.37.23,4.19,4.19,0,0,1-1.37-.23,3.29,3.29,0,0,1-1.92-1.66,3.05,3.05,0,0,1-.29-1.33,3.21,3.21,0,0,1,.57-1.92,2.72,2.72,0,0,1,1.54-1.05Zm3.9,2.85a2.51,2.51,0,0,0-.17-.92,2.18,2.18,0,0,0-.49-.73,2,2,0,0,0-.77-.49,2.9,2.9,0,0,0-2,0,2.08,2.08,0,0,0-.76.49,2.16,2.16,0,0,0-.48.73,2.41,2.41,0,0,0,.48,2.58,2.19,2.19,0,0,0,.76.48,2.9,2.9,0,0,0,2,0,2.15,2.15,0,0,0,.77-.48,2.33,2.33,0,0,0,.49-.74A2.51,2.51,0,0,0,126.94,245.48Zm-.41-5.28a2.11,2.11,0,0,0-.15-.8,2.13,2.13,0,0,0-.43-.63,1.87,1.87,0,0,0-.64-.42,2.07,2.07,0,0,0-.8-.15,2.11,2.11,0,0,0-.8.15,2,2,0,0,0-.64.42,1.93,1.93,0,0,0-.42.63,2.11,2.11,0,0,0-.15.8,2.07,2.07,0,0,0,.15.8,1.74,1.74,0,0,0,.42.63,2,2,0,0,0,.64.42,2.11,2.11,0,0,0,.8.15,2.07,2.07,0,0,0,.8-.15,1.87,1.87,0,0,0,.64-.42,1.9,1.9,0,0,0,.43-.63A2.07,2.07,0,0,0,126.53,240.2Z"/><path d="M136.4,238.39h-4.62l-.08,3.41a4.61,4.61,0,0,1,.75-.21,4.9,4.9,0,0,1,.77-.06,3.78,3.78,0,0,1,1.45.27,3.41,3.41,0,0,1,1.13.76,3.72,3.72,0,0,1,.74,1.15,4.06,4.06,0,0,1,.26,1.45,3.86,3.86,0,0,1-.29,1.5,3.53,3.53,0,0,1-.8,1.17,3.64,3.64,0,0,1-1.21.75,3.9,3.9,0,0,1-1.51.28,3.63,3.63,0,0,1-1.93-.52,3.31,3.31,0,0,1-1.33-1.5l1.15-.5a2.61,2.61,0,0,0,.89,1.07,2.31,2.31,0,0,0,1.33.39,2.55,2.55,0,0,0,1-.2,2.64,2.64,0,0,0,.81-.53,2.87,2.87,0,0,0,.54-.81,2.5,2.5,0,0,0,.2-1,2.82,2.82,0,0,0-.21-1.09,2.52,2.52,0,0,0-.58-.85,2.48,2.48,0,0,0-.88-.55,3.1,3.1,0,0,0-1.12-.2,4.52,4.52,0,0,0-1.2.17,6.42,6.42,0,0,0-1.15.46l.11-5.87h5.78Z"/><path d="M138.86,249l-.92-.3,4.84-11.6.92.32Z"/><path d="M150.43,244.92h1.63V246h-1.63v2.69h-1.15V246h-4.9v-1.31l4.58-7.33h1.47Zm-1.15-6.43h0l-3.91,6.43h3.94Z"/><path d="M155.65,242.63a2.25,2.25,0,0,1-.68-.37,2.53,2.53,0,0,1-.54-.59,3.07,3.07,0,0,1-.35-.73,2.62,2.62,0,0,1-.13-.83,2.91,2.91,0,0,1,.26-1.23,2.69,2.69,0,0,1,.69-.93,3,3,0,0,1,1-.6,3.82,3.82,0,0,1,2.44,0,3,3,0,0,1,1,.6,2.69,2.69,0,0,1,.69.93,2.91,2.91,0,0,1,.26,1.23,2.62,2.62,0,0,1-.13.83,3.07,3.07,0,0,1-.35.73,2.53,2.53,0,0,1-.54.59,2.25,2.25,0,0,1-.68.37v0a2.72,2.72,0,0,1,1.54,1.05,3.21,3.21,0,0,1,.57,1.92,3.05,3.05,0,0,1-.29,1.33,3.29,3.29,0,0,1-1.92,1.66,4.2,4.2,0,0,1-2.74,0,3.29,3.29,0,0,1-1.92-1.66,2.92,2.92,0,0,1-.29-1.33,3.21,3.21,0,0,1,.57-1.92,2.72,2.72,0,0,1,1.54-1.05Zm3.9,2.85a2.51,2.51,0,0,0-.17-.92,2.18,2.18,0,0,0-.49-.73,2.12,2.12,0,0,0-.77-.49,2.9,2.9,0,0,0-2,0,2.08,2.08,0,0,0-.76.49,2.18,2.18,0,0,0-.49.73,2.57,2.57,0,0,0,0,1.84,2.33,2.33,0,0,0,.49.74,2.19,2.19,0,0,0,.76.48,2.9,2.9,0,0,0,2,0,2.24,2.24,0,0,0,.77-.48,2.33,2.33,0,0,0,.49-.74A2.51,2.51,0,0,0,159.55,245.48Zm-.41-5.28a2.11,2.11,0,0,0-.16-.8,1.93,1.93,0,0,0-.42-.63,1.87,1.87,0,0,0-.64-.42,2.11,2.11,0,0,0-.8-.15,2.07,2.07,0,0,0-.8.15,1.87,1.87,0,0,0-.64.42,2,2,0,0,0-.58,1.43,1.91,1.91,0,0,0,.16.8,1.74,1.74,0,0,0,.42.63,1.87,1.87,0,0,0,.64.42,2.07,2.07,0,0,0,.8.15,2.11,2.11,0,0,0,.8-.15,1.87,1.87,0,0,0,.64-.42A1.74,1.74,0,0,0,159,241,2.08,2.08,0,0,0,159.14,240.2Z"/><path d="M169,238.39h-4.63l-.08,3.41a5,5,0,0,1,.76-.21,4.87,4.87,0,0,1,.76-.06,3.8,3.8,0,0,1,1.46.27,3.41,3.41,0,0,1,1.13.76,3.52,3.52,0,0,1,.73,1.15,4,4,0,0,1,0,2.95,3.53,3.53,0,0,1-.8,1.17,3.64,3.64,0,0,1-1.21.75,3.94,3.94,0,0,1-1.51.28,3.66,3.66,0,0,1-1.94-.52,3.29,3.29,0,0,1-1.32-1.5l1.15-.5a2.61,2.61,0,0,0,.89,1.07,2.28,2.28,0,0,0,1.32.39,2.56,2.56,0,0,0,1-.2,2.48,2.48,0,0,0,.8-.53,2.7,2.7,0,0,0,.55-.81,2.5,2.5,0,0,0,.2-1,2.82,2.82,0,0,0-.21-1.09,2.52,2.52,0,0,0-.58-.85,2.48,2.48,0,0,0-.88-.55,3.1,3.1,0,0,0-1.12-.2,4.59,4.59,0,0,0-1.21.17,6.32,6.32,0,0,0-1.14.46l.11-5.87H169Z"/><path d="M176.06,242.84c0-.28,0-.55,0-.83l-.06-.83h1.14v1.13h0a2.5,2.5,0,0,1,1.07-1,3.05,3.05,0,0,1,1.35-.33,3.83,3.83,0,0,1,.65.06,2.25,2.25,0,0,1,.66.23,2.34,2.34,0,0,1,.6.47,2.63,2.63,0,0,1,.47.79,2.5,2.5,0,0,1,1-1.14,3.09,3.09,0,0,1,3.57.35,3.08,3.08,0,0,1,.69,2.16v4.76h-1V244.3a3.26,3.26,0,0,0-.4-1.75,1.67,1.67,0,0,0-1.49-.6,1.86,1.86,0,0,0-1,.23,1.81,1.81,0,0,0-.65.61,2.55,2.55,0,0,0-.36.88,4.17,4.17,0,0,0-.11,1v4h-1.06V244.3a3.17,3.17,0,0,0-.4-1.75,1.66,1.66,0,0,0-1.49-.6l-.44.06a1.67,1.67,0,0,0-.71.35,2.42,2.42,0,0,0-.66.86,3.55,3.55,0,0,0-.3,1.61v3.84h-1.06Z"/><path d="M189.7,242.84c0-.28,0-.55,0-.83s0-.56,0-.83h1.13v1.13h0a2.5,2.5,0,0,1,1.07-1,3.05,3.05,0,0,1,1.35-.33,3.83,3.83,0,0,1,.65.06,2.25,2.25,0,0,1,.66.23,2.34,2.34,0,0,1,.6.47,2.44,2.44,0,0,1,.47.79,2.56,2.56,0,0,1,1-1.14,3.1,3.1,0,0,1,3.58.35,3.13,3.13,0,0,1,.68,2.16v4.76h-1.05V244.3a3.26,3.26,0,0,0-.4-1.75,1.67,1.67,0,0,0-1.49-.6,1.84,1.84,0,0,0-1.64.84,2.55,2.55,0,0,0-.36.88,4.17,4.17,0,0,0-.11,1v4h-1.06V244.3a3.17,3.17,0,0,0-.4-1.75,1.66,1.66,0,0,0-1.49-.6l-.44.06a1.67,1.67,0,0,0-.71.35,2.67,2.67,0,0,0-.66.86,3.55,3.55,0,0,0-.3,1.61v3.84H189.7Z"/></g><line class="cls-3" x1="95.7" y1="217.52" x2="95.7" y2="87.61"/><line class="cls-3" x1="93.86" y1="87.57" x2="97.4" y2="87.57"/><line class="cls-3" x1="93.18" y1="217.52" x2="98.23" y2="217.52"/><line class="cls-3" x1="95.7" y1="87.4" x2="95.7" y2="47.04"/><line class="cls-3" x1="93.86" y1="47.03" x2="97.4" y2="47.03"/><line class="cls-3" x1="93.18" y1="87.4" x2="98.23" y2="87.4"/><line class="cls-4" x1="132.62" y1="87.04" x2="163.46" y2="87.04"/><line class="cls-4" x1="132.62" y1="87.04" x2="132.62" y2="145.39"/><line class="cls-4" x1="133.48" y1="116.55" x2="133.48" y2="145.39"/><line class="cls-4" x1="148.04" y1="217.09" x2="135.85" y2="217.09"/><polyline class="cls-4" points="135.85 217.09 129.17 217.04 122.61 215.74 116.42 213.24 110.8 209.63"/><g class="cls-5"><polyline class="cls-4" points="110.8 209.63 108.46 206.62 106.72 203.23 105.64 199.57 105.26 195.78 105.59 191.98"/></g><polyline class="cls-4" points="105.59 191.98 106.96 186.83 109.09 181.94 111.94 177.44"/><line class="cls-4" x1="111.94" y1="177.44" x2="127" y2="158.81"/><polyline class="cls-4" points="127 158.81 129.26 155.88 130.98 152.59 132.12 149.06 132.63 145.39"/><line class="cls-4" x1="148.04" y1="216.23" x2="135.81" y2="216.23"/><polyline class="cls-4" points="135.81 216.23 129.3 216.19 122.91 214.94 116.87 212.51 111.38 208.99"/><polyline class="cls-4" points="111.38 208.99 109.15 206.12 107.5 202.87 106.47 199.38 106.11 195.76 106.44 192.13"/><polyline class="cls-4" points="106.44 192.13 107.77 187.1 109.85 182.34 112.63 177.95"/><line class="cls-4" x1="112.63" y1="177.95" x2="127.64" y2="159.38"/><polyline class="cls-4" points="127.64 159.38 129.99 156.32 131.77 152.92 132.95 149.25 133.48 145.44"/><polyline class="cls-4" points="131.01 216.27 124.28 214.62 117.88 211.97 111.96 208.36"/><polyline class="cls-4" points="111.96 208.36 109.85 205.61 108.28 202.52 107.31 199.19 106.97 195.74 107.28 192.29"/><polyline class="cls-4" points="107.28 192.29 108.57 187.39 110.6 182.74 113.32 178.47"/><line class="cls-4" x1="113.32" y1="178.46" x2="128.28" y2="159.96"/><polyline class="cls-4" points="128.28 159.95 130.71 156.78 132.56 153.24 133.78 149.44 134.34 145.48"/><line class="cls-4" x1="132.62" y1="116.55" x2="163.46" y2="116.55"/><line class="cls-4" x1="163.46" y1="87.04" x2="163.46" y2="145.39"/><line class="cls-4" x1="148.04" y1="217.09" x2="160.23" y2="217.09"/><polyline class="cls-4" points="160.23 217.09 166.91 217.04 173.47 215.74 179.66 213.24 185.28 209.63"/><polyline class="cls-4" points="185.28 209.63 187.63 206.62 189.37 203.23 190.44 199.57 190.82 195.78 190.49 191.98"/><polyline class="cls-4" points="190.49 191.98 189.13 186.83 186.99 181.94 184.14 177.44"/><line class="cls-4" x1="184.14" y1="177.44" x2="169.08" y2="158.81"/><polyline class="cls-4" points="169.08 158.81 166.82 155.88 165.1 152.59 163.97 149.06 163.46 145.39"/><g class="cls-5"><path class="cls-4" d="M131.32,216.34a50.87,50.87,0,0,1-11.82-3.45,21.68,21.68,0,0,1-9.94-9,18.45,18.45,0,0,1-2-9.21,24.42,24.42,0,0,1,2.33-9.22c2-4.38,5-8.23,8-12,2.8-3.54,5.62-7,8.49-10.52a41.39,41.39,0,0,0,5.75-8.31,25.18,25.18,0,0,0,2.14-7.73,62.21,62.21,0,0,0,.26-8.19l-.12-7.47"/><path class="cls-4" d="M131.32,216.34h0l-3.67-1.1c-3.67-1.11-6.62-1.83-9.42-3.79a33.66,33.66,0,0,1-5-4,17.23,17.23,0,0,1-2.79-3.76,17,17,0,0,1-1.94-6.39,18.85,18.85,0,0,1,0-3.68,20.52,20.52,0,0,1,.67-3.63,27.49,27.49,0,0,1,1.67-4.51,50.67,50.67,0,0,1,5.82-9.08c1-1.22,1.92-2.43,2.88-3.64s1.93-2.41,2.9-3.62l3.29-4.06,2.28-2.8c.77-.94,1.52-1.9,2.24-2.9a29.7,29.7,0,0,0,2-3.16,20.86,20.86,0,0,0,1.32-2.88,26.5,26.5,0,0,0,.93-3,30.39,30.39,0,0,0,.68-4.22c.13-1.41.18-2.81.18-4.21s0-2.58,0-3.87l-.06-3.86c0-1,0-1.93-.05-2.91"/><path class="cls-4" d="M134.34,216.29c-1.77-.38-3.54-.77-5.3-1.22a38.51,38.51,0,0,1-10.31-4,19.07,19.07,0,0,1-7.28-7.14,19.91,19.91,0,0,1-1.83-10.12,25.3,25.3,0,0,1,2-9c1.81-4.13,5-7.62,8-11.1,3.24-3.77,6.28-7.51,9.26-11.49,2.37-3.17,4.71-6.48,5.88-10.16,1.11-3.49,1.18-7.31,1.23-11.06.05-3.3.09-6.55.12-9.8"/><path class="cls-4" d="M134.34,216.29h0s-13.49-3.78-15.5-5.59a47.92,47.92,0,0,1-5.13-4.9,14.15,14.15,0,0,1-1.54-2.32,14.49,14.49,0,0,1-1-2.59,21,21,0,0,1-.71-6.08,28.07,28.07,0,0,1,.3-3.79,24.17,24.17,0,0,1,.8-3.63,22.42,22.42,0,0,1,1.19-3,26.08,26.08,0,0,1,1.64-2.84,53,53,0,0,1,4.17-5.33c.91-1.06,1.84-2.11,2.74-3.17s1.81-2.12,2.69-3.18c1.77-2.13,3.48-4.3,5.14-6.57,1-1.34,1.95-2.73,2.85-4.16a33.11,33.11,0,0,0,2.36-4.49,22,22,0,0,0,1-3,24.46,24.46,0,0,0,.6-3.14c.27-2.12.34-4.26.57-10.58l.25-6.62"/><path class="cls-4" d="M135.85,216.27a67.21,67.21,0,0,1-10.22-2.8,24,24,0,0,1-8.95-5.74,19,19,0,0,1-4.76-10.18,22.23,22.23,0,0,1,1-9.77,35.41,35.41,0,0,1,5.31-10.15c2.28-3.14,4.95-6,7.37-9a72,72,0,0,0,6.88-10.37,41.18,41.18,0,0,0,2.56-5.53c2.42-6.73,2.12-14.15,1.82-21.56"/><path class="cls-4" d="M138.43,216.21h0s-7.48-1.94-8.9-2.34a40.32,40.32,0,0,1-4.41-1.53,26.09,26.09,0,0,1-4.13-2.15,19.29,19.29,0,0,1-3.53-2.89,18.08,18.08,0,0,1-4.2-7.45,18.5,18.5,0,0,1-.62-3.68,20.27,20.27,0,0,1,.13-3.73,26.29,26.29,0,0,1,1.34-5.43,33.13,33.13,0,0,1,2.37-5.09,40.68,40.68,0,0,1,2.61-4c1.81-2.46,3.88-4.75,5.88-7.15.91-1.08,1.8-2.19,2.65-3.32s1.66-2.29,2.44-3.47q1.35-2,2.55-4.15c.62-1.09,1.22-2.19,1.78-3.32a32.61,32.61,0,0,0,1.48-3.49c1.28-3.65,1.67-7.5,1.79-15.7l.09-6.11"/><path class="cls-4" d="M138.43,216.21a62,62,0,0,1-12.58-4,19.22,19.22,0,0,1-7.77-6.17c-1.88-2.79-2.59-6.36-2.82-9.81a29.05,29.05,0,0,1,.09-5.28,29.4,29.4,0,0,1,3.45-10.58c2.33-4.28,5.56-7.93,8.5-11.8a66.57,66.57,0,0,0,6.51-10.23,34,34,0,0,0,3.21-8.88,54.3,54.3,0,0,0,.63-10.05c0-2.72.06-5.42.11-8.12"/><path class="cls-4" d="M139.49,216.2h0L135.32,215A51.28,51.28,0,0,1,128,212.2a28.67,28.67,0,0,1-3.35-1.62,21.61,21.61,0,0,1-3-2,14.36,14.36,0,0,1-2.41-2.46,12,12,0,0,1-1.26-2.09,16.22,16.22,0,0,1-.9-2.36,22.76,22.76,0,0,1-.76-4c-.11-.92-.17-1.83-.2-2.73s0-1.79,0-2.68a25,25,0,0,1,.58-3.93,27.53,27.53,0,0,1,1.17-3.85,32,32,0,0,1,1.88-4,43.16,43.16,0,0,1,2.4-3.74c1.72-2.43,3.65-4.75,5.51-7.17A75.94,75.94,0,0,0,132.8,162a54.44,54.44,0,0,0,2.55-4.85,34.93,34.93,0,0,0,1.94-5.17,27.86,27.86,0,0,0,.79-3.6c.18-1.22.29-2.44.35-3.66.08-1.53.09-3.05.08-4.56,0-2.35,0-4.67,0-7.09l0-1.73"/><path class="cls-4" d="M139.49,216.2c-4.88-1.5-9.77-3-13.81-6a19.77,19.77,0,0,1-6.47-8.19c-1.82-4.52-1.52-9.82-.18-14.59,2-7.12,6.31-13.09,10.5-19.06A69.63,69.63,0,0,0,135.4,159a36.65,36.65,0,0,0,3.18-9.59c1.07-5.94.56-12,0-18.13"/><path class="cls-4" d="M140.93,216.23h0l-3.39-1.31c-6.76-2.64-9.3-3.87-11.54-5.6a19.59,19.59,0,0,1-5.44-6.44,16,16,0,0,1-1.3-3.62,19.44,19.44,0,0,1-.47-3.9,25.29,25.29,0,0,1,.47-5.26,32.69,32.69,0,0,1,1.16-4.32,38.1,38.1,0,0,1,1.69-4.08,63.32,63.32,0,0,1,4.51-7.67c1.3-1.94,2.66-3.86,4-5.78s2.69-3.88,3.9-5.92a42.59,42.59,0,0,0,2.12-4,36.2,36.2,0,0,0,1.65-4.27,34.48,34.48,0,0,0,1.14-4.61,53.64,53.64,0,0,0,.42-11.6c-.05-1.1-.12-2.21-.41-6.63"/><path class="cls-4" d="M141.41,216.41a67.35,67.35,0,0,1-8.56-3.66c-3.54-1.91-6.9-4.5-8.89-7.86-3-5.07-2.9-11.88-1.39-17.84a41.79,41.79,0,0,1,4.22-10.29c2.55-4.53,5.73-8.74,8.27-13.35a42.74,42.74,0,0,0,4.4-11.2,50.66,50.66,0,0,0,1-9.85c.09-3.73,0-7.45-.16-11.17"/><path class="cls-4" d="M142.74,216.17l-1.46-.61c-2.92-1.22-4.23-1.74-5.53-2.33a37.47,37.47,0,0,1-3.92-2,25.81,25.81,0,0,1-3.59-2.59,18.19,18.19,0,0,1-2.84-3.06,14.68,14.68,0,0,1-1.68-3.06,17.69,17.69,0,0,1-1-3.44,27.63,27.63,0,0,1,.38-10.58,35.66,35.66,0,0,1,1.9-6.09,48.14,48.14,0,0,1,2.77-5.63c2-3.4,4.27-6.66,6.39-10.12.94-1.52,1.84-3.09,2.65-4.71a45.07,45.07,0,0,0,2.15-5,35.64,35.64,0,0,0,1.34-4.64,52,52,0,0,0,1-9.28c.11-3.09.1-6.16-.08-10.36l-.06-1.39"/><path class="cls-4" d="M142.74,216.17a41.49,41.49,0,0,1-8.81-4.79,21.38,21.38,0,0,1-7.37-10.7,29.07,29.07,0,0,1-.38-11.69,39.39,39.39,0,0,1,3-11.31c1.67-3.65,4.15-6.92,6.23-10.43a44.7,44.7,0,0,0,4.86-11.55,63.22,63.22,0,0,0,1.59-13c.2-4.65.21-9.28.23-13.91"/><path class="cls-4" d="M144.41,216.23c-3.42-1.79-3.42-1.79-3.71-1.91-.58-.27-1.74-.82-2.86-1.43a25,25,0,0,1-3.48-2.26,20.17,20.17,0,0,1-3-2.91,19.77,19.77,0,0,1-4-7.29,23.85,23.85,0,0,1-.67-8.25c.1-1.41.27-2.84.48-4.25s.47-2.81.79-4.17a33.8,33.8,0,0,1,1.22-4,29,29,0,0,1,1.32-3c.5-1,1.05-1.91,1.63-2.85,1.16-1.89,2.45-3.76,3.63-5.73a49.91,49.91,0,0,0,3.17-6.12,41.63,41.63,0,0,0,2.19-6.52,48.16,48.16,0,0,0,1.13-6.76c.22-2.13.34-4.27.42-6.4.16-4,.19-8,.21-11.94,0-.55,0-1.11,0-1.66"/><path class="cls-4" d="M144.57,216.31a40.79,40.79,0,0,1-6.68-3.88,20.48,20.48,0,0,1-6.64-8.68,27.7,27.7,0,0,1-1.55-9.56A40.38,40.38,0,0,1,131,182.7c1.16-4.15,3.25-8,5.22-11.95a64.68,64.68,0,0,0,5.3-13.21,59,59,0,0,0,1.43-9.3c.61-6.65.73-13.29.85-19.94"/><path class="cls-4" d="M146.08,216.23c-1.67-1-2.22-1.23-2.76-1.51-1.08-.55-2.13-1.12-3.14-1.75a21.46,21.46,0,0,1-2.47-1.78,20.19,20.19,0,0,1-2.2-2.14,19.18,19.18,0,0,1-3.27-5.13,18.94,18.94,0,0,1-1.23-4.36,33.76,33.76,0,0,1-.43-4.64c0-1.49,0-3,0-4.46a39.19,39.19,0,0,1,.47-4.37,32.64,32.64,0,0,1,.82-3.55,33.6,33.6,0,0,1,1.23-3.44c.93-2.27,2.07-4.51,3.22-6.78s2.3-4.59,3.32-7a51.36,51.36,0,0,0,2.56-7.27,50.82,50.82,0,0,0,1.19-6.43c.2-1.66.36-3.32.49-5s.23-3.31.32-4.95c.16-3.31.25-6.61.32-9.9,0-1.17,0-2.35.07-3.52"/><path class="cls-4" d="M146.16,216.28a34.09,34.09,0,0,1-7.09-6.23c-3.21-4.14-4.39-9.85-4.62-15.38a51.64,51.64,0,0,1,3.3-20.19c1.37-3.7,3.12-7.28,4.25-11a64.66,64.66,0,0,0,2.18-15.67c.25-5.55.31-11.05.38-16.54"/><path class="cls-4" d="M147.07,216.2a12.12,12.12,0,0,0-1.91-1.71c-1-.74-1.94-1.48-2.83-2.26a20.72,20.72,0,0,1-2.56-2.67,20,20,0,0,1-3.44-7.43,38.35,38.35,0,0,1-1.06-8.65,49.48,49.48,0,0,1,.6-8.55A51.59,51.59,0,0,1,137,179.6c.41-1.51.88-3,1.42-4.48,1.07-3,2.43-5.87,3.54-8.9.4-1.08.76-2.17,1.07-3.28s.56-2.24.78-3.37a65.27,65.27,0,0,0,.89-6.84c.16-1.85.26-3.7.35-5.55s.17-3.68.25-5.51c.14-3.66.25-7.31.13-10.19v-.26"/><path class="cls-4" d="M147.07,216.2a68.42,68.42,0,0,1-5.36-9.35A38.3,38.3,0,0,1,138.65,194a62.08,62.08,0,0,1,2-18.66c1.48-6.18,3.44-12.23,4.51-18.41,1.46-8.41,1.27-17.09,1.09-25.77"/><path class="cls-4" d="M147.93,216.22a23.93,23.93,0,0,0-1.36-2.38c-.81-1.27-1.59-2.54-2.31-3.83a37.94,37.94,0,0,1-2-4,34.83,34.83,0,0,1-1.47-4.28,39.32,39.32,0,0,1-1.36-9,51.12,51.12,0,0,1,.51-9.07,90.39,90.39,0,0,1,1.89-9.4c.79-3.1,1.68-6.2,2.48-9.31.6-2.35,1.16-4.7,1.59-7.08.59-3.27,1.11-26.63,1.11-26.63"/><path class="cls-4" d="M147.93,216.22a103.4,103.4,0,0,1-3.29-11.31c-1.92-9.17-1.28-18.81-.31-28.22.5-4.85,1.08-9.65,1.54-14.47.71-7.43,1.14-14.91,1.22-22.39,0-2.84,0-5.68,0-8.52"/><path class="cls-4" d="M148.74,216c-.27-.81-.53-1.63-.8-2.43-.53-1.62-1-3.24-1.49-4.86s-.89-3.41-1.21-5.14-.55-3.47-.71-5.23a84.19,84.19,0,0,1-.19-10.67c.15-3.73.49-7.48.88-11.21.33-3.14.69-6.27,1-9.4.27-2.5.53-5,.73-7.53s.39-5,.54-7.57c.29-5,.47-10.11.58-15.16s.14-10.07-.05-20.2"/></g><line class="cls-4" x1="134.33" y1="131.24" x2="134.33" y2="116.55"/><line class="cls-4" x1="135.19" y1="131.24" x2="135.19" y2="116.55"/><line class="cls-4" x1="136.05" y1="131.24" x2="136.05" y2="116.55"/><line class="cls-4" x1="136.9" y1="131.24" x2="136.9" y2="116.55"/><line class="cls-4" x1="137.76" y1="131.24" x2="137.76" y2="116.55"/><line class="cls-4" x1="138.61" y1="131.24" x2="138.61" y2="116.55"/><line class="cls-4" x1="139.47" y1="131.24" x2="139.47" y2="116.55"/><line class="cls-4" x1="140.32" y1="131.24" x2="140.32" y2="116.55"/><line class="cls-4" x1="141.18" y1="131.24" x2="141.18" y2="116.55"/><line class="cls-4" x1="142.03" y1="131.24" x2="142.03" y2="116.55"/><line class="cls-4" x1="142.89" y1="131.24" x2="142.89" y2="116.55"/><line class="cls-4" x1="143.74" y1="131.24" x2="143.74" y2="116.55"/><line class="cls-4" x1="144.6" y1="131.24" x2="144.6" y2="116.55"/><line class="cls-4" x1="145.45" y1="131.24" x2="145.45" y2="116.55"/><line class="cls-4" x1="146.31" y1="131.24" x2="146.31" y2="116.55"/><line class="cls-4" x1="147.16" y1="131.24" x2="147.16" y2="116.55"/><line class="cls-4" x1="148.02" y1="131.24" x2="148.02" y2="116.55"/><line class="cls-4" x1="162.6" y1="116.55" x2="162.6" y2="145.39"/><line class="cls-4" x1="148.04" y1="217.09" x2="160.23" y2="217.09"/><polyline class="cls-4" points="160.23 217.09 166.91 217.04 173.47 215.74 179.66 213.24 185.28 209.63"/><polyline class="cls-4" points="185.28 209.63 187.63 206.62 189.37 203.23 190.44 199.57 190.82 195.78 190.49 191.98"/><polyline class="cls-4" points="190.49 191.98 189.13 186.83 186.99 181.94 184.14 177.44"/><line class="cls-4" x1="184.14" y1="177.44" x2="169.08" y2="158.81"/><polyline class="cls-4" points="169.08 158.81 166.82 155.88 165.1 152.59 163.97 149.06 163.46 145.39"/><line class="cls-4" x1="148.04" y1="216.23" x2="160.27" y2="216.23"/><polyline class="cls-4" points="160.27 216.23 166.78 216.19 173.17 214.94 179.22 212.51 184.7 208.99"/><polyline class="cls-4" points="184.7 208.99 186.93 206.12 188.59 202.87 189.61 199.38 189.97 195.76 189.64 192.13"/><polyline class="cls-4" points="189.65 192.13 188.32 187.1 186.23 182.34 183.45 177.95"/><line class="cls-4" x1="183.45" y1="177.95" x2="168.44" y2="159.38"/><polyline class="cls-4" points="168.44 159.38 166.1 156.32 164.31 152.92 163.13 149.25 162.6 145.44"/><polyline class="cls-4" points="165.07 216.27 171.8 214.62 178.2 211.97 184.12 208.36"/><polyline class="cls-4" points="184.12 208.36 186.23 205.61 187.81 202.52 188.78 199.19 189.11 195.74 188.8 192.29"/><polyline class="cls-4" points="188.8 192.29 187.51 187.39 185.48 182.74 182.77 178.47"/><line class="cls-4" x1="182.77" y1="178.46" x2="167.8" y2="159.96"/><polyline class="cls-4" points="167.8 159.95 165.37 156.78 163.51 153.24 162.29 149.44 161.74 145.48"/><g class="cls-5"><path class="cls-4" d="M164.76,216.34a50.73,50.73,0,0,0,11.82-3.45,21.7,21.7,0,0,0,9.95-9,18.55,18.55,0,0,0,2-9.21,24.42,24.42,0,0,0-2.33-9.22c-2-4.38-5-8.23-8-12-2.81-3.54-5.63-7-8.5-10.52a41.81,41.81,0,0,1-5.75-8.31,25.47,25.47,0,0,1-2.14-7.73,60.53,60.53,0,0,1-.25-8.19q0-3.74.12-7.47"/><path class="cls-4" d="M164.76,216.34h0l3.67-1.1c3.67-1.11,6.62-1.83,9.42-3.79a33.12,33.12,0,0,0,5-4,17.23,17.23,0,0,0,2.79-3.76,17,17,0,0,0,1.94-6.39,18.85,18.85,0,0,0,0-3.68A21.45,21.45,0,0,0,187,190a28.48,28.48,0,0,0-1.68-4.51,50.67,50.67,0,0,0-5.82-9.08q-1.42-1.83-2.88-3.64c-1-1.22-1.92-2.41-2.9-3.62l-3.29-4.06-2.28-2.8c-.76-.94-1.52-1.9-2.24-2.9a31.37,31.37,0,0,1-2-3.16,20.86,20.86,0,0,1-1.32-2.88,24.6,24.6,0,0,1-.92-3,29,29,0,0,1-.69-4.22c-.13-1.41-.17-2.81-.18-4.21s0-2.58,0-3.87l.06-3.86c0-1,0-1.93,0-2.91"/><path class="cls-4" d="M161.74,216.29c1.77-.38,3.55-.77,5.3-1.22a38.71,38.71,0,0,0,10.32-4,19,19,0,0,0,7.27-7.14,19.91,19.91,0,0,0,1.83-10.12,25.09,25.09,0,0,0-2-9c-1.8-4.13-5-7.62-8-11.1-3.23-3.77-6.27-7.51-9.26-11.49-2.37-3.17-4.71-6.48-5.88-10.16-1.11-3.49-1.17-7.31-1.23-11.06,0-3.3-.09-6.55-.12-9.8"/><path class="cls-4" d="M161.74,216.29h0s13.49-3.78,15.5-5.59a47,47,0,0,0,5.13-4.9,13.54,13.54,0,0,0,1.54-2.32,14.53,14.53,0,0,0,1-2.59,21.38,21.38,0,0,0,.7-6.08,28.07,28.07,0,0,0-.29-3.79,25.48,25.48,0,0,0-.81-3.63,21.17,21.17,0,0,0-1.19-3,26.08,26.08,0,0,0-1.64-2.84,53,53,0,0,0-4.17-5.33L174.79,173c-.91-1.06-1.81-2.12-2.69-3.18-1.77-2.13-3.48-4.3-5.14-6.57-1-1.34-2-2.73-2.84-4.16a32,32,0,0,1-2.36-4.49,22.07,22.07,0,0,1-1-3,26.32,26.32,0,0,1-.6-3.14c-.27-2.12-.33-4.26-.57-10.58l-.24-6.62"/><path class="cls-4" d="M160.23,216.27a67.21,67.21,0,0,0,10.22-2.8,24,24,0,0,0,9-5.74,19,19,0,0,0,4.77-10.18,22.38,22.38,0,0,0-1-9.77,35.63,35.63,0,0,0-5.3-10.15c-2.29-3.14-5-6-7.38-9a72,72,0,0,1-6.88-10.37,41.12,41.12,0,0,1-2.55-5.53c-2.43-6.73-2.13-14.15-1.82-21.56"/><path class="cls-4" d="M157.65,216.21h0s7.48-1.94,8.9-2.34a40.49,40.49,0,0,0,4.42-1.53,26,26,0,0,0,4.12-2.15,19,19,0,0,0,3.53-2.89,17.86,17.86,0,0,0,4.82-11.13,19.43,19.43,0,0,0-.13-3.73A26.29,26.29,0,0,0,182,187a33.13,33.13,0,0,0-2.37-5.09,40.68,40.68,0,0,0-2.61-4c-1.81-2.46-3.88-4.75-5.88-7.15-.91-1.08-1.79-2.19-2.65-3.32S166.8,165.18,166,164q-1.35-2-2.55-4.15c-.62-1.09-1.22-2.19-1.77-3.32a30.75,30.75,0,0,1-1.49-3.49c-1.28-3.65-1.67-7.5-1.79-15.7l-.09-6.11"/><path class="cls-4" d="M157.65,216.21a61.61,61.61,0,0,0,12.58-4A19.26,19.26,0,0,0,178,206c1.87-2.79,2.58-6.36,2.81-9.81a29.05,29.05,0,0,0-.09-5.28,29.4,29.4,0,0,0-3.45-10.58c-2.33-4.28-5.57-7.93-8.5-11.8a66.57,66.57,0,0,1-6.51-10.23,34.36,34.36,0,0,1-3.21-8.88,54.3,54.3,0,0,1-.63-10.05c0-2.72-.06-5.42-.11-8.12"/><path class="cls-4" d="M156.59,216.2h0l4.17-1.21a50.78,50.78,0,0,0,7.34-2.79,28.67,28.67,0,0,0,3.35-1.62,21,21,0,0,0,3.05-2,14.36,14.36,0,0,0,2.41-2.46,12.66,12.66,0,0,0,1.27-2.09,16.19,16.19,0,0,0,.89-2.36,23.74,23.74,0,0,0,.77-4c.1-.92.16-1.83.19-2.73s0-1.79,0-2.68a25,25,0,0,0-.58-3.93,27.53,27.53,0,0,0-1.17-3.85,30.65,30.65,0,0,0-1.88-4A43.05,43.05,0,0,0,174,176.7c-1.72-2.43-3.66-4.75-5.51-7.17a76,76,0,0,1-5.18-7.57,54.44,54.44,0,0,1-2.55-4.85,36.09,36.09,0,0,1-1.94-5.17,27.86,27.86,0,0,1-.79-3.6c-.18-1.22-.29-2.44-.35-3.66-.08-1.53-.08-3.05-.08-4.56,0-2.35,0-4.67,0-7.09l0-1.73"/><path class="cls-4" d="M156.59,216.2c4.89-1.5,9.77-3,13.81-6a19.69,19.69,0,0,0,6.47-8.19c1.82-4.52,1.53-9.82.19-14.59-2-7.12-6.31-13.09-10.51-19.06a69.63,69.63,0,0,1-5.87-9.37,36.65,36.65,0,0,1-3.18-9.59c-1.07-5.94-.56-12-.05-18.13"/><path class="cls-4" d="M155.16,216.23h0l3.38-1.31c6.77-2.64,9.3-3.87,11.54-5.6a19.47,19.47,0,0,0,5.44-6.44,15.49,15.49,0,0,0,1.3-3.62,19.44,19.44,0,0,0,.47-3.9,25.29,25.29,0,0,0-.47-5.26,31.22,31.22,0,0,0-1.16-4.32A38.1,38.1,0,0,0,174,181.7a63.32,63.32,0,0,0-4.51-7.67c-1.3-1.94-2.66-3.86-4-5.78s-2.69-3.88-3.9-5.92a42.59,42.59,0,0,1-2.12-4,38,38,0,0,1-1.65-4.27,33,33,0,0,1-1.13-4.61,53,53,0,0,1-.43-11.6c.05-1.1.12-2.21.42-6.63"/><path class="cls-4" d="M154.67,216.41a67.35,67.35,0,0,0,8.56-3.66c3.54-1.91,6.9-4.5,8.89-7.86,3-5.07,2.9-11.88,1.39-17.84a41.41,41.41,0,0,0-4.22-10.29c-2.54-4.53-5.72-8.74-8.27-13.35a42.37,42.37,0,0,1-4.39-11.2,50.67,50.67,0,0,1-1-9.85c-.08-3.73,0-7.45.16-11.17"/><path class="cls-4" d="M153.34,216.17l1.46-.61c2.92-1.22,4.24-1.74,5.53-2.33a37.47,37.47,0,0,0,3.92-2,25.81,25.81,0,0,0,3.59-2.59,17.79,17.79,0,0,0,2.84-3.06,14.23,14.23,0,0,0,1.68-3.06,17.69,17.69,0,0,0,1-3.44,27.82,27.82,0,0,0-.37-10.58,36.59,36.59,0,0,0-1.91-6.09,48.14,48.14,0,0,0-2.77-5.63c-1.95-3.4-4.26-6.66-6.39-10.12-.94-1.52-1.84-3.09-2.65-4.71a45.07,45.07,0,0,1-2.15-5,35.64,35.64,0,0,1-1.34-4.64,52.91,52.91,0,0,1-1-9.28c-.11-3.09-.1-6.16.08-10.36l.06-1.39"/><path class="cls-4" d="M153.34,216.17a41.25,41.25,0,0,0,8.81-4.79,21.32,21.32,0,0,0,7.37-10.7A29.07,29.07,0,0,0,169.9,189a39.39,39.39,0,0,0-3-11.31c-1.66-3.65-4.15-6.92-6.22-10.43a44,44,0,0,1-4.86-11.55,62.55,62.55,0,0,1-1.6-13c-.19-4.65-.21-9.28-.23-13.91"/><path class="cls-4" d="M151.67,216.23c3.42-1.79,3.42-1.79,3.71-1.91.58-.27,1.75-.82,2.86-1.43a24.4,24.4,0,0,0,3.48-2.26,20.17,20.17,0,0,0,3-2.91,19.94,19.94,0,0,0,4-7.29,24.09,24.09,0,0,0,.66-8.25c-.09-1.41-.27-2.84-.48-4.25s-.46-2.81-.79-4.17a33.8,33.8,0,0,0-1.22-4,27,27,0,0,0-1.32-3c-.49-1-1.05-1.91-1.63-2.85-1.16-1.89-2.44-3.76-3.63-5.73a49.91,49.91,0,0,1-3.17-6.12,41.63,41.63,0,0,1-2.19-6.52,49.67,49.67,0,0,1-1.13-6.76c-.22-2.13-.33-4.27-.42-6.4-.16-4-.19-8-.21-11.94,0-.55,0-1.11,0-1.66"/><path class="cls-4" d="M151.51,216.31a40.29,40.29,0,0,0,6.67-3.88,20.42,20.42,0,0,0,6.65-8.68,27.7,27.7,0,0,0,1.55-9.56,40.38,40.38,0,0,0-1.27-11.49c-1.16-4.15-3.25-8-5.22-11.95a65.26,65.26,0,0,1-5.3-13.21,61.43,61.43,0,0,1-1.44-9.3c-.6-6.65-.72-13.29-.84-19.94"/><path class="cls-4" d="M150,216.23c1.68-1,2.22-1.23,2.76-1.51,1.08-.55,2.13-1.12,3.14-1.75a21.46,21.46,0,0,0,2.47-1.78,20.19,20.19,0,0,0,2.2-2.14,19.18,19.18,0,0,0,3.27-5.13,19.47,19.47,0,0,0,1.24-4.36,37.21,37.21,0,0,0,.43-4.64c0-1.49,0-3,0-4.46a39.19,39.19,0,0,0-.47-4.37,30.46,30.46,0,0,0-.82-3.55,33.6,33.6,0,0,0-1.23-3.44c-.93-2.27-2.07-4.51-3.22-6.78s-2.3-4.59-3.32-7a51.32,51.32,0,0,1-2.55-7.27,47.5,47.5,0,0,1-1.19-6.43c-.22-1.66-.37-3.32-.5-5s-.23-3.31-.32-4.95c-.16-3.31-.25-6.61-.32-9.9l-.06-3.52"/><path class="cls-4" d="M149.93,216.28a34.28,34.28,0,0,0,7.08-6.23c3.21-4.14,4.39-9.85,4.62-15.38a51.64,51.64,0,0,0-3.3-20.19c-1.37-3.7-3.12-7.28-4.25-11a64.66,64.66,0,0,1-2.17-15.67c-.26-5.55-.32-11.05-.39-16.54"/><path class="cls-4" d="M149,216.2a12.59,12.59,0,0,1,1.91-1.71c1-.74,1.94-1.48,2.83-2.26a18.09,18.09,0,0,0,6-10.1,38.94,38.94,0,0,0,1.07-8.65,50.49,50.49,0,0,0-.6-8.55,54.4,54.4,0,0,0-1.15-5.33c-.41-1.51-.88-3-1.42-4.48-1.07-3-2.43-5.87-3.54-8.9-.39-1.08-.76-2.17-1.06-3.28s-.57-2.24-.79-3.37a65.27,65.27,0,0,1-.89-6.84c-.15-1.85-.26-3.7-.35-5.55s-.17-3.68-.24-5.51c-.15-3.66-.25-7.31-.14-10.19v-.26"/><path class="cls-4" d="M149,216.2a67.39,67.39,0,0,0,5.36-9.35A38.55,38.55,0,0,0,157.44,194a62.41,62.41,0,0,0-2.05-18.66c-1.48-6.18-3.44-12.23-4.51-18.41-1.46-8.41-1.27-17.09-1.08-25.77"/><path class="cls-4" d="M148.15,216.22a23.93,23.93,0,0,1,1.36-2.38c.81-1.27,1.59-2.54,2.31-3.83a40,40,0,0,0,2-4,36.58,36.58,0,0,0,1.47-4.28,39.88,39.88,0,0,0,1.36-9,52.08,52.08,0,0,0-.51-9.07,93.13,93.13,0,0,0-1.9-9.4c-.78-3.1-1.67-6.2-2.48-9.31-.6-2.35-1.16-4.7-1.59-7.08-.59-3.27-1.11-26.63-1.11-26.63"/><path class="cls-4" d="M148.15,216.22a101.23,101.23,0,0,0,3.29-11.31c1.92-9.17,1.27-18.81.31-28.22-.5-4.85-1.08-9.65-1.54-14.47-.71-7.43-1.14-14.91-1.22-22.39,0-2.84,0-5.68,0-8.52"/><path class="cls-4" d="M147.34,216c.27-.81.54-1.63.81-2.43.52-1.62,1-3.24,1.49-4.86s.89-3.41,1.2-5.14.55-3.47.71-5.23a80.62,80.62,0,0,0,.19-10.67c-.15-3.73-.49-7.48-.88-11.21-.33-3.14-.69-6.27-1-9.4-.27-2.5-.52-5-.73-7.53s-.39-5-.54-7.57c-.29-5-.47-10.11-.58-15.16s-.14-10.07,0-20.2"/></g><line class="cls-4" x1="161.75" y1="131.24" x2="161.75" y2="116.55"/><line class="cls-4" x1="160.89" y1="131.24" x2="160.89" y2="116.55"/><line class="cls-4" x1="160.04" y1="131.24" x2="160.04" y2="116.55"/><line class="cls-4" x1="159.18" y1="131.24" x2="159.18" y2="116.55"/><line class="cls-4" x1="158.33" y1="131.24" x2="158.33" y2="116.55"/><line class="cls-4" x1="157.47" y1="131.24" x2="157.47" y2="116.55"/><line class="cls-4" x1="156.61" y1="131.24" x2="156.61" y2="116.55"/><line class="cls-4" x1="155.76" y1="131.24" x2="155.76" y2="116.55"/><line class="cls-4" x1="154.91" y1="131.24" x2="154.91" y2="116.55"/><line class="cls-4" x1="154.05" y1="131.24" x2="154.05" y2="116.55"/><line class="cls-4" x1="153.2" y1="131.24" x2="153.2" y2="116.55"/><line class="cls-4" x1="152.34" y1="131.24" x2="152.34" y2="116.55"/><line class="cls-4" x1="151.49" y1="131.24" x2="151.49" y2="116.55"/><line class="cls-4" x1="150.63" y1="131.24" x2="150.63" y2="116.55"/><line class="cls-4" x1="149.78" y1="131.24" x2="149.78" y2="116.55"/><line class="cls-4" x1="148.92" y1="131.24" x2="148.92" y2="116.55"/><line class="cls-4" x1="148.07" y1="131.24" x2="148.07" y2="116.55"/><line class="cls-4" x1="148.04" y1="87.04" x2="148.04" y2="47.43"/><line class="cls-3" x1="108.29" y1="226.87" x2="191.12" y2="226.87"/><line class="cls-3" x1="108.29" y1="226.58" x2="108.29" y2="227.16"/><line class="cls-3" x1="191.12" y1="226.58" x2="191.12" y2="227.16"/><line class="cls-3" x1="108.29" y1="224.35" x2="108.29" y2="229.4"/><line class="cls-3" x1="191.12" y1="224.35" x2="191.12" y2="229.4"/></svg>