<svg id="Clara" xmlns="http://www.w3.org/2000/svg" viewBox="0 0 300 263"><defs><style>.cls-1,.cls-3{fill:none;stroke-width:0.5px;}.cls-1{stroke:#000;}.cls-2{isolation:isolate;}.cls-3{stroke:#000100;stroke-miterlimit:2;}</style></defs><title>clara-ceiling-wall-lissoni-flos-F1570009-spech-tech-02-300x263</title><line class="cls-1" x1="260.89" y1="226.7" x2="275.71" y2="226.77"/><line class="cls-1" x1="260.9" y1="225.94" x2="260.89" y2="227.47"/><line class="cls-1" x1="275.72" y1="226" x2="275.71" y2="227.53"/><g class="cls-2"><path d="M251,236.84l-4.62,0-.1,3.41a4.08,4.08,0,0,1,.76-.21,4.9,4.9,0,0,1,.77-.06,4,4,0,0,1,1.45.28,3.43,3.43,0,0,1,1.13.77,3.58,3.58,0,0,1,.73,1.15,4.17,4.17,0,0,1,0,3,3.39,3.39,0,0,1-.8,1.16,3.81,3.81,0,0,1-1.22.76,4.09,4.09,0,0,1-1.51.26,3.63,3.63,0,0,1-1.93-.52,3.26,3.26,0,0,1-1.32-1.51l1.15-.49a2.61,2.61,0,0,0,.89,1.07,2.36,2.36,0,0,0,1.32.4,2.6,2.6,0,0,0,1-.2,2.72,2.72,0,0,0,.8-.53,2.65,2.65,0,0,0,.55-.8,2.54,2.54,0,0,0,.2-1,2.75,2.75,0,0,0-.2-1.09,2.69,2.69,0,0,0-.57-.86,2.57,2.57,0,0,0-.88-.55,3.1,3.1,0,0,0-1.12-.2,4.52,4.52,0,0,0-1.21.16,6,6,0,0,0-1.15.45l.14-5.87,5.78,0Z"/><path d="M256.92,235.62a3.18,3.18,0,0,1,2,.57,3.69,3.69,0,0,1,1.16,1.43,6.08,6.08,0,0,1,.55,1.9,13.53,13.53,0,0,1,.14,2,13.88,13.88,0,0,1-.16,2,6.11,6.11,0,0,1-.56,1.89,3.71,3.71,0,0,1-1.18,1.42,3.24,3.24,0,0,1-2,.55,3.15,3.15,0,0,1-2-.57,3.69,3.69,0,0,1-1.16-1.43,6.37,6.37,0,0,1-.56-1.9,13.48,13.48,0,0,1-.13-2,13.82,13.82,0,0,1,.15-2,6.49,6.49,0,0,1,.57-1.89,3.78,3.78,0,0,1,1.17-1.42A3.26,3.26,0,0,1,256.92,235.62Zm0,1.06a2,2,0,0,0-1.47.49,3,3,0,0,0-.81,1.22,6.19,6.19,0,0,0-.35,1.57c0,.55-.08,1.06-.08,1.5s0,.95.07,1.51a5.77,5.77,0,0,0,.33,1.57,3.08,3.08,0,0,0,.81,1.23,2.06,2.06,0,0,0,1.46.51,2.11,2.11,0,0,0,1.46-.49,3.21,3.21,0,0,0,.82-1.23,6.19,6.19,0,0,0,.35-1.57c.05-.55.07-1.06.08-1.5s0-1-.07-1.51a6.18,6.18,0,0,0-.34-1.57,3.06,3.06,0,0,0-.8-1.23A2,2,0,0,0,256.92,236.68Z"/><path d="M267,241.36c0-.28,0-.56,0-.83l-.06-.84H268v1.13h0a2.42,2.42,0,0,1,1.07-1,2.92,2.92,0,0,1,1.35-.33,3.83,3.83,0,0,1,.65.06,2.76,2.76,0,0,1,.66.24,2.34,2.34,0,0,1,.6.47,2.85,2.85,0,0,1,.47.79,2.38,2.38,0,0,1,1-1.13,3.07,3.07,0,0,1,3.57.36,3.12,3.12,0,0,1,.68,2.17l0,4.75H277l0-4.37a3.18,3.18,0,0,0-.39-1.75,1.67,1.67,0,0,0-1.49-.61,2,2,0,0,0-1,.22,1.93,1.93,0,0,0-.65.62,2.42,2.42,0,0,0-.36.87,4.17,4.17,0,0,0-.12,1l0,4h-1l0-4.36a3.17,3.17,0,0,0-.4-1.75,1.62,1.62,0,0,0-1.48-.61l-.44.06a1.71,1.71,0,0,0-.72.35,2.56,2.56,0,0,0-.66.86,3.6,3.6,0,0,0-.31,1.6v3.84h-1.06Z"/><path d="M280.58,241.42c0-.28,0-.56,0-.84s0-.55-.06-.83h1.14v1.13h0a2.47,2.47,0,0,1,1.07-1,2.8,2.8,0,0,1,1.35-.33,3.83,3.83,0,0,1,.65.06,2.28,2.28,0,0,1,.66.24,2.34,2.34,0,0,1,.6.47,2.85,2.85,0,0,1,.47.79,2.38,2.38,0,0,1,1-1.13,2.66,2.66,0,0,1,1.45-.41,2.69,2.69,0,0,1,2.12.77,3.06,3.06,0,0,1,.68,2.17l0,4.75h-1.05v-4.36a3.09,3.09,0,0,0-.39-1.75,1.62,1.62,0,0,0-1.48-.61,1.92,1.92,0,0,0-1,.22,2,2,0,0,0-.65.62,2.84,2.84,0,0,0-.36.87,4.17,4.17,0,0,0-.12,1v4h-1.06l0-4.37a3.25,3.25,0,0,0-.39-1.74,1.67,1.67,0,0,0-1.49-.62,2.67,2.67,0,0,0-.44.07,1.52,1.52,0,0,0-.71.35,2.45,2.45,0,0,0-.67.86,3.48,3.48,0,0,0-.3,1.6l0,3.84h-1.06Z"/></g><line class="cls-1" x1="233.4" y1="226.82" x2="62.33" y2="226.82"/><line class="cls-1" x1="233.4" y1="228.36" x2="233.4" y2="225.19"/><line class="cls-1" x1="62.33" y1="228.36" x2="62.33" y2="225.19"/><g class="cls-2"><path d="M122.18,240.76a3.52,3.52,0,0,1,.68,1.16,4,4,0,0,1,.25,1.45,4.2,4.2,0,0,1-.29,1.56,3.79,3.79,0,0,1-2.08,2.08,4.43,4.43,0,0,1-1.61.29,4.15,4.15,0,0,1-1.4-.22,3.72,3.72,0,0,1-1.11-.61l-1.08,1.09-.51-.5,1.06-1.09a3.62,3.62,0,0,1-.69-1.17,4.21,4.21,0,0,1-.24-1.43,4,4,0,0,1,.3-1.57,3.67,3.67,0,0,1,.82-1.25,3.62,3.62,0,0,1,1.26-.82,4.09,4.09,0,0,1,1.59-.3,4.18,4.18,0,0,1,1.39.22,3.84,3.84,0,0,1,1.15.61l1.06-1.09.51.5Zm-1.24.25a2.7,2.7,0,0,0-1.81-.62,3,3,0,0,0-1.18.23,2.82,2.82,0,0,0-.88.63,3,3,0,0,0-.56.95,3.42,3.42,0,0,0-.2,1.17,2.94,2.94,0,0,0,.55,1.82Zm-3.6,4.72a2.33,2.33,0,0,0,.8.45,2.82,2.82,0,0,0,1,.16,2.87,2.87,0,0,0,1.17-.23,2.61,2.61,0,0,0,.89-.63,2.68,2.68,0,0,0,.57-.95,3.41,3.41,0,0,0,.2-1.16,3.13,3.13,0,0,0-.54-1.83Z"/><path d="M131.4,240.65l0,0a1.89,1.89,0,0,1,.73-.29,4.35,4.35,0,0,1,.84-.1,3.45,3.45,0,0,1,1.37.27,3.26,3.26,0,0,1,1.09.73,3.12,3.12,0,0,1,.73,1.1,3.78,3.78,0,0,1,0,2.83,3.18,3.18,0,0,1-.76,1.11,3.74,3.74,0,0,1-1.17.71,4.31,4.31,0,0,1-2.95,0,3.69,3.69,0,0,1-1.16-.71,3.08,3.08,0,0,1-.77-1.11,3.63,3.63,0,0,1-.27-1.42,4.39,4.39,0,0,1,.28-1.65,8.55,8.55,0,0,1,.69-1.39l3.06-5h1.36Zm-1.15,3.15a2.64,2.64,0,0,0,.18,1,2.32,2.32,0,0,0,.52.78,2.52,2.52,0,0,0,.8.5,3,3,0,0,0,2.05,0,2.41,2.41,0,0,0,.8-.5,2.32,2.32,0,0,0,.52-.78,2.64,2.64,0,0,0,.18-1,2.57,2.57,0,0,0-.18-1,2.18,2.18,0,0,0-.52-.77,2.44,2.44,0,0,0-.8-.51,3,3,0,0,0-2.05,0,2.55,2.55,0,0,0-.8.51,2.18,2.18,0,0,0-.52.77A2.57,2.57,0,0,0,130.25,243.8Z"/><path d="M141.67,235.59a3.24,3.24,0,0,1,2,.56,3.86,3.86,0,0,1,1.17,1.42,6.77,6.77,0,0,1,.56,1.9,14,14,0,0,1,0,3.95,6.77,6.77,0,0,1-.56,1.9,3.86,3.86,0,0,1-1.17,1.42,3.75,3.75,0,0,1-3.94,0,3.74,3.74,0,0,1-1.16-1.42,6.17,6.17,0,0,1-.56-1.9,13.08,13.08,0,0,1,0-3.95,6.17,6.17,0,0,1,.56-1.9,3.74,3.74,0,0,1,1.16-1.42A3.26,3.26,0,0,1,141.67,235.59Zm0,1.06a2,2,0,0,0-1.46.49,3.08,3.08,0,0,0-.81,1.23,5.78,5.78,0,0,0-.34,1.57c-.05.56-.08,1.06-.08,1.51s0,.94.08,1.5a5.78,5.78,0,0,0,.34,1.57,3.08,3.08,0,0,0,.81,1.23,2.05,2.05,0,0,0,1.46.5,2.09,2.09,0,0,0,1.47-.5,3.17,3.17,0,0,0,.8-1.23,6.19,6.19,0,0,0,.35-1.57c.05-.56.07-1.06.07-1.5s0-.95-.07-1.51a6.19,6.19,0,0,0-.35-1.57,3.17,3.17,0,0,0-.8-1.23A2.09,2.09,0,0,0,141.67,236.65Z"/><path d="M150.57,235.59a3.26,3.26,0,0,1,2,.56,3.74,3.74,0,0,1,1.16,1.42,6.17,6.17,0,0,1,.56,1.9,13.08,13.08,0,0,1,0,3.95,6.17,6.17,0,0,1-.56,1.9,3.74,3.74,0,0,1-1.16,1.42,3.75,3.75,0,0,1-3.94,0,3.86,3.86,0,0,1-1.17-1.42,6.45,6.45,0,0,1-.56-1.9,14,14,0,0,1,0-3.95,6.45,6.45,0,0,1,.56-1.9,3.86,3.86,0,0,1,1.17-1.42A3.24,3.24,0,0,1,150.57,235.59Zm0,1.06a2.09,2.09,0,0,0-1.47.49,3.17,3.17,0,0,0-.8,1.23,5.79,5.79,0,0,0-.35,1.57c0,.56-.07,1.06-.07,1.51s0,.94.07,1.5a5.79,5.79,0,0,0,.35,1.57,3.17,3.17,0,0,0,.8,1.23,2.09,2.09,0,0,0,1.47.5,2.07,2.07,0,0,0,1.46-.5,3.08,3.08,0,0,0,.81-1.23,5.78,5.78,0,0,0,.34-1.57c0-.56.08-1.06.08-1.5s0-.95-.08-1.51a5.78,5.78,0,0,0-.34-1.57,3.08,3.08,0,0,0-.81-1.23A2.06,2.06,0,0,0,150.57,236.65Z"/><path d="M160.62,241.29q0-.42,0-.84c0-.27,0-.55-.05-.83h1.13v1.14h0a2.44,2.44,0,0,1,1.07-1,2.94,2.94,0,0,1,1.35-.34,3.83,3.83,0,0,1,.65.06,2.28,2.28,0,0,1,.66.24,2.34,2.34,0,0,1,.6.47,2.28,2.28,0,0,1,.47.78,2.48,2.48,0,0,1,1-1.13,2.76,2.76,0,0,1,1.45-.42,2.73,2.73,0,0,1,2.13.76,3.17,3.17,0,0,1,.68,2.17v4.75h-1.05v-4.37a3.2,3.2,0,0,0-.4-1.74,1.65,1.65,0,0,0-1.49-.61,2,2,0,0,0-1,.23,1.93,1.93,0,0,0-.65.62,2.42,2.42,0,0,0-.36.87,4.17,4.17,0,0,0-.11,1v4h-1.06v-4.37a3.11,3.11,0,0,0-.4-1.74,1.64,1.64,0,0,0-1.49-.61l-.44.06a1.71,1.71,0,0,0-.71.36,2.67,2.67,0,0,0-.66.86,3.51,3.51,0,0,0-.3,1.6v3.84h-1Z"/><path d="M174.25,241.29q0-.42,0-.84c0-.27,0-.55-.05-.83h1.13v1.14h0a2.41,2.41,0,0,1,1.06-1,2.94,2.94,0,0,1,1.35-.34,3.83,3.83,0,0,1,.65.06,2.28,2.28,0,0,1,.66.24,2,2,0,0,1,.6.47,2.47,2.47,0,0,1,.48.78,2.41,2.41,0,0,1,1-1.13,2.79,2.79,0,0,1,1.45-.42,2.73,2.73,0,0,1,2.13.76,3.12,3.12,0,0,1,.69,2.17v4.75h-1.06v-4.37A3.11,3.11,0,0,0,184,241a1.64,1.64,0,0,0-1.49-.61,2,2,0,0,0-1,.23,1.93,1.93,0,0,0-.65.62,2.84,2.84,0,0,0-.36.87,4.74,4.74,0,0,0-.11,1v4H179.3v-4.37a3.11,3.11,0,0,0-.4-1.74,1.62,1.62,0,0,0-1.48-.61l-.44.06a1.74,1.74,0,0,0-.72.36,2.67,2.67,0,0,0-.66.86,3.51,3.51,0,0,0-.3,1.6v3.84h-1.05Z"/></g><polyline class="cls-3" points="192.85 57.23 192.22 56.89 191.59 56.55 190.96 56.22 190.32 55.9 189.69 55.58 189.05 55.27 188.4 54.97 187.76 54.66 187.11 54.36 186.46 54.07 185.81 53.79 185.16 53.51 184.49 53.24 183.84 52.97 183.17 52.7 182.51 52.44 181.84 52.19 181.17 51.94 180.5 51.7 179.82 51.47 179.15 51.23 178.48 51.01 177.8 50.79 177.12 50.58 176.44 50.37 175.75 50.17 175.07 49.97 174.38 49.78 173.7 49.6 173.01 49.41 172.31 49.24 171.62 49.07 170.93 48.91 170.23 48.76 169.54 48.61 168.84 48.46 168.14 48.33 167.44 48.19 166.74 48.07 166.04 47.95 165.33 47.83 164.63 47.72 163.93 47.62 163.22 47.51 162.51 47.42 161.8 47.34 161.1 47.26 160.39 47.18 159.67 47.11 158.97 47.05 158.25 47 157.55 46.95 156.84 46.9 156.12 46.86 155.41 46.83 154.69 46.81 153.99 46.78 153.28 46.77 152.56 46.76 151.85 46.76 151.13 46.76 150.42 46.77 149.71 46.78 149 46.81 148.29 46.83 147.57 46.86 146.86 46.9 146.16 46.95 145.44 47 144.73 47.05 144.02 47.11 143.31 47.18 142.61 47.26 141.89 47.34 141.19 47.42 140.48 47.51 139.77 47.62 139.07 47.72 138.36 47.83 137.66 47.95 136.95 48.07 136.26 48.19 135.56 48.32 134.86 48.46 134.16 48.61 133.47 48.76 132.77 48.91 132.08 49.07 131.38 49.24 130.69 49.41 130 49.6 129.31 49.78 128.63 49.97 127.94 50.17 127.26 50.37 126.58 50.58 125.89 50.79 125.22 51.01 124.55 51.23 123.87 51.47 123.2 51.7 122.52 51.94 121.86 52.19 121.19 52.44 120.52 52.7 119.86 52.97 119.2 53.24 118.54 53.51 117.89 53.79 117.23 54.07 116.59 54.36 115.94 54.66 115.29 54.97 114.65 55.27 114 55.58 113.37 55.9 112.74 56.22 112.11 56.55 111.47 56.89 110.85 57.23 110.22 57.57 109.6 57.92 108.99 58.27 108.37 58.64 107.76 59 107.15 59.37 106.54 59.74 105.94 60.13 105.34 60.51 104.74 60.9 104.15 61.29 103.56 61.69 102.97 62.1 102.39 62.51 101.81 62.92 101.23 63.34 100.66 63.77 100.1 64.2 99.52 64.63 98.96 65.07 98.41 65.52 97.86 65.96 97.3 66.41 96.76 66.87 96.22 67.33 95.67 67.8 95.14 68.26 94.61 68.74 94.08 69.22 93.55 69.7 93.04 70.19 92.53 70.68 92.01 71.18 91.5 71.68 91 72.18 90.5 72.69 90.01 73.21 89.52 73.72 89.03 74.24 88.55 74.78 88.07 75.3 87.6 75.83 87.14 76.38 86.67 76.91 86.21 77.46 85.76 78 85.3 78.56 84.86 79.12 84.42 79.67 83.99 80.24 83.56 80.81 83.12 81.37 82.7 81.96 82.29 82.53 81.88 83.11 81.46 83.7 81.06 84.29 80.67 84.87 80.28 85.47 79.88 86.07 79.5 86.67 79.13 87.28 78.76 87.88 78.39 88.49 78.02 89.11 77.67 89.72 77.32 90.34 76.97 90.97 76.63 91.59 76.29 92.22 75.96 92.85 75.63 93.48 75.31 94.13 75 94.76 74.69 95.4 74.38 96.05 74.08 96.69 73.79 97.34 73.5 98 73.22 98.65 72.94 99.31 72.67 99.97 72.4 100.62 72.14 101.29 71.89 101.95 71.64 102.62 71.4 103.29 71.16 103.96 70.92 104.64 70.69 105.31 70.47 105.98 70.25 106.67 70.04 107.35 69.84 108.03 69.64 108.72 69.44 109.4 69.25 110.08 69.07 110.78 68.9 111.46 68.73 112.16 68.56 112.85 68.41 113.55 68.25 114.24 68.11 114.94 67.97 115.64 67.83 116.34 67.7 117.03 67.58 117.74 67.45 118.44 67.34 119.15 67.23 119.85 67.13 120.55 67.04 121.27 66.95 121.97 66.87 122.68 66.79 123.39 66.72 124.09 66.66 124.81 66.6 125.51 66.54 126.23 66.5 126.94 66.46 127.65 66.42 128.36 66.39 129.07 66.37 129.79 66.35 130.5 66.34 131.21 66.33 131.92 66.33 132.63 66.34 133.35 66.35 134.06 66.37 134.77 66.39 135.49 66.42 136.2 66.46 136.91 66.5 137.62 66.54 138.33 66.6 139.04 66.66 139.75 66.72 140.47 66.79 141.17 66.87 141.88 66.95 142.59 67.04 143.29 67.13 144.01 67.23 144.71 67.34 145.41 67.45 146.12 67.58 146.82 67.7 147.51 67.83 148.22 67.97 148.92 68.11 149.62 68.25 150.31 68.41 151.01 68.56 151.71 68.73 152.4 68.9 153.09 69.07 153.78 69.25 154.47 69.44 155.16 69.64 155.84 69.84 156.53 70.05 157.21 70.26 157.89 70.47 158.57 70.69 159.25 70.92 159.93 71.16 160.6 71.4 161.27 71.64 161.94 71.89 162.61 72.14 163.27 72.4 163.94 72.67 164.59 72.94 165.25 73.22 165.91 73.5 166.56 73.79 167.22 74.08 167.86 74.38 168.51 74.69 169.16 75 169.8 75.32 170.43 75.63 171.08 75.96 171.71 76.29 172.34 76.63 172.97 76.97 173.59 77.32 174.22 77.67 174.83 78.02 175.45 78.39 176.07 78.76 176.68 79.13 177.28 79.5 177.89 79.88 178.49 80.28 179.08 80.67 179.68 81.07 180.27 81.47 180.86 81.88 181.45 82.29 182.03 82.71 182.6 83.12 183.18 83.56 183.75 83.99 184.31 84.42 184.88 84.86 185.44 85.3 186 85.76 186.55 86.21 187.1 86.67 187.64 87.14 188.18 87.61 188.73 88.08 189.26 88.55 189.78 89.03 190.31 89.52 190.83 90.01 191.35 90.5 191.86 91.01 192.37 91.51 192.88 92.01 193.37 92.53 193.88 93.04 194.37 93.56 194.85 94.08 195.33 94.61 195.82 95.14 196.29 95.67 196.76 96.22 197.22 96.76 197.69 97.3 198.15 97.86 198.6 98.41 199.04 98.97 199.49 99.53 199.93 100.1 200.36 100.67 200.79 101.23 201.22 101.82 201.63 102.39 202.05 102.97 202.45 103.57 202.87 104.15 203.26 104.74 203.66 105.35 204.04 105.94 204.44 106.54 204.81 107.16 205.19 107.76 205.56 108.37 205.92 108.99 206.28 109.61 206.64 110.22 206.99 110.85 207.33 111.48 207.67 112.11 208 112.74 208.33 113.37 208.66 114.02 208.97 114.66 209.28 115.29 209.59 115.95 209.9 116.59 210.19 117.24 210.48 117.9 210.77 118.55 211.05 119.2 211.32 119.87 211.59 120.53 211.86 121.2 212.12 121.86 212.37 122.52 212.61 123.2 212.85 123.87 213.09 124.55 213.32 125.22 213.55 125.9 213.77 126.58 213.98 127.26 214.19 127.94 214.39 128.63 214.58 129.32 214.77 130 214.96 130.7 215.13 131.38 215.32 132.08 215.48 132.77 215.64 133.47 215.8 134.17 215.95 134.86 216.09 135.57 216.23 136.26 216.36 136.96 216.49 137.67 216.61 138.37 216.72 139.08 216.83 139.78 216.94 140.48 217.03 141.19 217.13 141.9 217.22 142.61 217.3 143.32 217.37 144.02 217.44 144.74 217.5 145.44 217.56 146.16 217.61 146.87 217.65 147.57 217.69 148.29 217.72 149 217.75 149.72 217.77 150.43 217.78 151.14 217.79 151.85 217.8 152.56 217.79 153.28 217.78 153.99 217.77 154.7 217.75 155.42 217.72 156.12 217.69 156.84 217.65 157.55 217.61 158.26 217.56 158.97 217.5 159.68 217.44 160.39 217.37 161.1 217.3 161.8 217.22 162.52 217.13 163.22 217.03 163.93 216.94 164.63 216.83 165.33 216.72 166.04 216.61 166.74 216.49 167.44 216.36 168.14 216.23 168.84 216.09 169.54 215.95 170.24 215.8 170.94 215.64 171.63 215.48 172.32 215.31 173.01 215.13 173.7 214.95 174.38 214.77 175.08 214.58 175.76 214.38 176.45 214.18 177.13 213.98 177.8 213.76 178.49 213.55 179.16 213.31 179.84 213.08 180.51 212.85 181.17 212.61 181.85 212.36 182.51 212.11 183.17 211.86 183.84 211.59 184.5 211.32 185.16 211.04 185.81 210.76 186.46 210.48 187.12 210.19 187.76 209.88 188.4 209.58 189.05 209.28 189.69 208.97 190.32 208.65 190.97 208.33 191.59 208 192.22 207.66 192.85 207.32 193.47 206.98 194.09 206.63 194.72 206.28 195.33 205.91 195.94 205.55 196.55 205.18 197.16 204.81 197.76 204.43 198.36 204.04 198.95 203.65 199.55 203.26 200.14 202.86 200.72 202.45 201.31 202.04 201.89 201.63 202.46 201.21 203.03 200.78 203.61 200.35 204.17 199.92 204.74 199.49 205.29 199.04 205.85 198.59 206.39 198.14 206.95 197.69 207.49 197.22 208.02 196.75 208.57 196.29 209.09 195.81 209.62 195.33 210.15 194.85 210.67 194.36 211.18 193.87 211.69 193.37 212.2 192.87 212.7 192.37 213.2 191.85 213.69 191.34 214.19 190.83 214.67 190.31 215.15 189.78 215.63 189.25 216.1 188.72 216.57 188.17 217.03 187.64 217.49 187.09 217.95 186.54 218.39 185.99 218.84 185.44 219.28 184.88 219.72 184.31 220.15 183.74 220.57 183.18 221 182.59 221.41 182.02 221.82 181.44 222.23 180.85 222.63 180.27 223.03 179.68 223.43 179.08 223.81 178.48 224.19 177.88 224.58 177.27 224.95 176.67 225.31 176.06 225.67 175.44 226.03 174.83 226.39 174.21 226.73 173.58 227.07 172.96 227.41 172.32 227.74 171.7 228.07 171.07 228.39 170.42 228.7 169.79 229.01 169.15 229.31 168.5 229.61 167.86 229.91 167.21 230.2 166.55 230.48 165.9 230.76 165.25 231.03 164.58 231.29 163.93 231.56 163.26 231.82 162.6 232.06 161.93 232.31 161.26 232.54 160.59 232.78 159.91 233 159.24 233.22 158.56 233.45 157.88 233.66 157.2 233.86 156.52 234.06 155.83 234.25 155.15 234.44 154.46 234.62 153.77 234.79 153.09 234.96 152.39 235.13 151.7 235.3 151 235.45 150.31 235.59 149.61 235.74 148.91 235.87 148.21 236 147.51 236.12 146.81 236.24 146.11 236.35 145.4 236.46 144.7 236.56 144 236.65 143.28 236.74 142.58 236.82 141.87 236.91 141.16 236.98 140.46 237.04 139.74 237.1 139.04 237.16 138.32 237.2 137.61 237.25 136.9 237.28 136.19 237.31 135.48 237.33 134.76 237.35 134.05 237.36 133.34 237.37 132.62 237.37 131.92 237.36 131.2 237.35 130.49 237.33 129.78 237.31 129.06 237.28 128.35 237.24 127.64 237.2 126.93 237.16 126.22 237.1 125.51 237.04 124.8 236.98 124.08 236.91 123.38 236.82 122.67 236.74 121.96 236.65 121.26 236.56 120.54 236.46 119.84 236.35 119.14 236.24 118.43 236.12 117.73 236 117.03 235.87 116.33 235.73 115.63 235.59 114.93 235.45 114.24 235.29 113.53 235.13 112.84 234.96 112.15 234.79 111.46 234.62 110.77 234.43 110.08 234.25 109.39 234.06 108.71 233.86 108.02 233.65 107.34 233.44 106.66 233.22 105.98 233 105.3 232.77 104.63 232.54 103.95 232.3 103.28 232.06 102.61 231.81 101.94 231.56 101.28 231.29 100.61 231.02 99.96 230.75 99.3 230.48 98.64 230.19 97.99 229.91 97.33 229.6 96.69 229.31 96.04 229 95.39 228.7 94.75 228.38 94.12 228.06 93.47 227.73 92.84 227.4 92.22 227.07 91.58 226.73 90.96 226.38 90.33 226.02 89.72 225.67 89.1 225.3 88.48 224.94 87.87 224.57 87.27 224.18 86.66 223.8 86.06 223.42 85.47 223.03 84.87 222.63 84.28 222.22 83.69 221.82 83.1 221.41 82.52 220.99 81.95 220.56 81.37 220.14 80.8 219.71 80.24 219.28 79.67 218.83 79.11 218.38 78.56 217.94 78 217.49 77.45 217.02 76.91 216.56 76.37 216.09 75.83 215.62 75.29 215.14 74.77 214.66 74.24 214.18 73.72 213.69 73.2 213.19 72.69 212.69 72.18 212.19 71.67 211.68 71.18 211.17 70.67 210.66 70.18 210.13 69.7 209.61 69.22 209.08 68.73 208.56 68.26 208.01 67.79 207.48 67.33 206.94 66.86 206.38 66.41 205.84 65.96 205.28 65.5 204.72 65.06 204.16 64.62 203.6 64.19 203.03 63.77 202.45 63.33 201.88 62.92 201.29 62.51 200.71 62.1 200.13 61.69 199.54 61.29 198.94 60.9 198.35 60.51 197.75 60.12 197.14 59.74 196.54 59.36 195.94 59 195.32 58.63 194.7 58.27 194.09 57.91 193.46 57.57 192.85 57.23"/><polyline class="cls-3" points="191.84 59.07 191.22 58.73 190.59 58.4 189.95 58.06 189.32 57.74 188.69 57.42 188.04 57.11 187.4 56.81 186.75 56.5 186.1 56.21 185.46 55.92 184.8 55.64 184.14 55.36 183.49 55.09 182.82 54.81 182.16 54.55 181.49 54.3 180.83 54.05 180.16 53.8 179.48 53.57 178.82 53.33 178.13 53.1 177.46 52.88 176.78 52.66 176.1 52.45 175.42 52.25 174.74 52.05 174.05 51.86 173.36 51.68 172.68 51.5 171.98 51.31 171.29 51.14 170.59 50.98 169.9 50.83 169.21 50.67 168.5 50.53 167.81 50.39 167.1 50.26 166.41 50.13 165.71 50.01 165 49.9 164.3 49.79 163.59 49.69 162.88 49.59 162.18 49.49 161.47 49.41 160.76 49.33 160.05 49.25 159.34 49.19 158.64 49.13 157.92 49.07 157.21 49.02 156.5 48.98 155.79 48.94 155.08 48.91 154.36 48.89 153.65 48.87 152.94 48.86 152.23 48.85 151.52 48.85 150.8 48.86 150.09 48.87 149.37 48.89 148.66 48.91 147.96 48.94 147.24 48.98 146.53 49.02 145.81 49.07 145.11 49.12 144.4 49.18 143.69 49.25 142.98 49.32 142.27 49.41 141.56 49.48 140.86 49.58 140.15 49.68 139.45 49.78 138.74 49.89 138.04 50 137.34 50.13 136.63 50.25 135.94 50.38 135.24 50.52 134.54 50.67 133.84 50.82 133.14 50.97 132.45 51.13 131.75 51.3 131.07 51.48 130.38 51.66 129.69 51.85 129 52.04 128.32 52.24 127.64 52.44 126.96 52.65 126.27 52.86 125.6 53.09 124.93 53.32 124.25 53.55 123.58 53.79 122.91 54.03 122.24 54.28 121.58 54.53 120.91 54.8 120.25 55.07 119.6 55.34 118.94 55.62 118.29 55.9 117.64 56.19 116.98 56.48 116.34 56.79 115.69 57.09 115.05 57.4 114.42 57.72 113.78 58.04 113.15 58.38 112.52 58.71 111.89 59.04 111.27 59.39 110.65 59.73 110.02 60.09 109.41 60.45 108.8 60.82 108.19 61.19 107.59 61.56 106.99 61.95 106.38 62.33 105.79 62.72 105.2 63.11 104.6 63.51 104.02 63.93 103.44 64.34 102.86 64.75 102.29 65.17 101.72 65.59 101.14 66.03 100.58 66.46 100.02 66.9 99.46 67.34 98.91 67.8 98.37 68.25 97.81 68.71 97.28 69.18 96.74 69.65 96.21 70.12 95.68 70.59 95.15 71.08 94.64 71.56 94.11 72.05 93.6 72.54 93.1 73.05 92.59 73.55 92.09 74.06 91.6 74.58 91.11 75.09 90.62 75.61 90.14 76.14 89.66 76.67 89.19 77.2 88.72 77.73 88.26 78.28 87.8 78.82 87.35 79.37 86.89 79.93 86.45 80.48 86.01 81.04 85.58 81.61 85.14 82.18 84.72 82.74 84.3 83.33 83.88 83.9 83.47 84.48 83.06 85.06 82.66 85.66 82.27 86.25 81.88 86.84 81.49 87.45 81.11 88.05 80.74 88.66 80.37 89.27 80 89.87 79.64 90.5 79.29 91.11 78.94 91.73 78.6 92.36 78.25 92.98 77.92 93.61 77.59 94.25 77.27 94.88 76.96 95.52 76.65 96.16 76.34 96.8 76.04 97.45 75.74 98.1 75.46 98.75 75.17 99.41 74.9 100.06 74.62 100.72 74.35 101.38 74.09 102.04 73.84 102.7 73.59 103.38 73.35 104.04 73.11 104.72 72.88 105.39 72.64 106.06 72.42 106.75 72.21 107.42 72 108.1 71.8 108.79 71.6 109.47 71.41 110.16 71.22 110.85 71.04 111.53 70.86 112.23 70.7 112.92 70.54 113.61 70.38 114.31 70.23 115 70.09 115.71 69.95 116.4 69.82 117.11 69.69 117.81 69.57 118.5 69.46 119.21 69.34 119.91 69.24 120.61 69.14 121.33 69.05 122.03 68.97 122.74 68.89 123.45 68.82 124.15 68.75 124.87 68.69 125.57 68.64 126.29 68.59 127 68.55 127.71 68.51 128.42 68.48 129.13 68.46 129.85 68.44 130.56 68.43 131.27 68.42 131.99 68.42 132.69 68.43 133.41 68.44 134.12 68.46 134.83 68.49 135.55 68.52 136.26 68.55 136.97 68.6 137.68 68.65 138.39 68.7 139.1 68.76 139.81 68.83 140.53 68.9 141.23 68.98 141.93 69.07 142.65 69.16 143.35 69.25 144.06 69.36 144.76 69.48 145.46 69.59 146.17 69.71 146.87 69.84 147.58 69.97 148.28 70.11 148.97 70.26 149.67 70.41 150.37 70.56 151.06 70.73 151.76 70.89 152.45 71.07 153.14 71.26 153.83 71.45 154.51 71.64 155.2 71.83 155.88 72.04 156.57 72.25 157.25 72.46 157.93 72.68 158.61 72.92 159.28 73.15 159.96 73.39 160.63 73.63 161.29 73.88 161.97 74.14 162.63 74.4 163.29 74.67 163.95 74.95 164.61 75.22 165.26 75.51 165.92 75.8 166.57 76.09 167.22 76.39 167.86 76.7 168.5 77.01 169.15 77.33 169.78 77.65 170.42 77.98 171.06 78.31 171.68 78.66 172.3 79 172.93 79.35 173.55 79.7 174.18 80.06 174.79 80.43 175.4 80.8 176 81.18 176.61 81.56 177.21 81.95 177.81 82.34 178.41 82.73 179 83.13 179.59 83.54 180.18 83.96 180.75 84.37 181.34 84.79 181.91 85.21 182.48 85.65 183.04 86.09 183.61 86.53 184.17 86.97 184.72 87.43 185.28 87.88 185.83 88.34 186.37 88.8 186.92 89.27 187.45 89.75 187.98 90.22 188.5 90.7 189.04 91.2 189.55 91.68 190.07 92.18 190.58 92.68 191.09 93.19 191.59 93.69 192.09 94.2 192.59 94.73 193.08 95.25 193.56 95.77 194.05 96.3 194.52 96.84 194.99 97.37 195.46 97.92 195.93 98.46 196.38 99.01 196.83 99.56 197.28 100.12 197.73 100.68 198.17 101.24 198.6 101.82 199.03 102.39 199.46 102.96 199.88 103.54 200.29 104.12 200.7 104.71 201.11 105.3 201.51 105.89 201.9 106.49 202.29 107.09 202.68 107.69 203.06 108.29 203.43 108.91 203.8 109.52 204.16 110.13 204.53 110.76 204.88 111.38 205.23 112 205.57 112.63 205.91 113.26 206.25 113.89 206.57 114.53 206.89 115.17 207.2 115.81 207.51 116.45 207.82 117.1 208.13 117.75 208.42 118.4 208.7 119.05 208.99 119.71 209.26 120.37 209.53 121.03 209.81 121.7 210.07 122.36 210.32 123.03 210.57 123.7 210.81 124.37 211.04 125.05 211.28 125.72 211.5 126.39 211.73 127.08 211.94 127.75 212.15 128.44 212.35 129.12 212.55 129.81 212.74 130.5 212.92 131.19 213.1 131.88 213.27 132.57 213.44 133.26 213.61 133.97 213.77 134.66 213.91 135.35 214.06 136.06 214.19 136.75 214.33 137.46 214.45 138.16 214.57 138.87 214.68 139.57 214.79 140.27 214.89 140.98 214.99 141.69 215.09 142.4 215.16 143.1 215.25 143.81 215.32 144.53 215.38 145.23 215.44 145.94 215.5 146.66 215.54 147.36 215.58 148.08 215.62 148.79 215.65 149.5 215.67 150.22 215.69 150.92 215.7 151.64 215.7 152.35 215.7 153.06 215.7 153.78 215.68 154.49 215.66 155.21 215.64 155.91 215.61 156.63 215.57 157.34 215.52 158.04 215.47 158.76 215.42 159.47 215.36 160.18 215.29 160.89 215.22 161.59 215.13 162.31 215.04 163.01 214.95 163.71 214.85 164.42 214.75 165.12 214.64 165.83 214.52 166.53 214.4 167.23 214.27 167.93 214.14 168.63 214 169.33 213.85 170.02 213.7 170.71 213.54 171.41 213.38 172.1 213.2 172.79 213.03 173.48 212.85 174.17 212.66 174.86 212.47 175.54 212.27 176.22 212.06 176.9 211.85 177.58 211.63 178.26 211.41 178.93 211.18 179.6 210.95 180.28 210.71 180.95 210.46 181.62 210.21 182.28 209.96 182.94 209.69 183.6 209.42 184.26 209.15 184.91 208.87 185.57 208.59 186.22 208.3 186.86 208 187.51 207.69 188.15 207.39 188.79 207.08 189.43 206.76 190.06 206.44 190.7 206.1 191.33 205.77 191.95 205.43 192.58 205.09 193.2 204.74 193.81 204.37 194.43 204.01 195.04 203.65 195.65 203.28 196.26 202.91 196.86 202.52 197.45 202.13 198.05 201.74 198.64 201.35 199.23 200.94 199.82 200.53 200.4 200.12 200.97 199.71 201.55 199.29 202.12 198.85 202.68 198.42 203.25 197.99 203.81 197.55 204.36 197.1 204.92 196.65 205.46 196.19 206.01 195.74 206.54 195.26 207.09 194.8 207.61 194.33 208.14 193.84 208.67 193.36 209.19 192.87 209.7 192.38 210.22 191.88 210.72 191.38 211.22 190.88 211.72 190.37 212.22 189.85 212.71 189.34 213.19 188.82 213.68 188.29 214.15 187.76 214.62 187.23 215.08 186.69 215.54 186.14 216.01 185.6 216.46 185.05 216.91 184.49 217.36 183.94 217.79 183.38 218.23 182.81 218.65 182.24 219.07 181.67 219.5 181.09 219.91 180.51 220.32 179.93 220.72 179.34 221.13 178.75 221.52 178.16 221.91 177.56 222.29 176.96 222.68 176.36 223.05 175.75 223.42 175.14 223.78 174.53 224.14 173.91 224.5 173.3 224.84 172.68 225.18 172.05 225.52 171.42 225.85 170.79 226.18 170.15 226.5 169.52 226.82 168.88 227.12 168.24 227.43 167.6 227.72 166.94 228.03 166.3 228.31 165.65 228.59 164.99 228.87 164.34 229.14 163.68 229.4 163.01 229.66 162.35 229.92 161.69 230.17 161.02 230.41 160.35 230.65 159.67 230.88 159 231.1 158.33 231.32 157.65 231.53 156.97 231.75 156.28 231.95 155.6 232.14 154.92 232.33 154.23 232.52 153.54 232.69 152.85 232.87 152.16 233.03 151.47 233.19 150.77 233.35 150.08 233.5 149.39 233.65 148.68 233.78 147.99 233.91 147.28 234.04 146.58 234.16 145.88 234.27 145.17 234.38 144.47 234.48 143.76 234.57 143.06 234.66 142.36 234.74 141.64 234.82 140.94 234.89 140.22 234.95 139.52 235.01 138.81 235.07 138.09 235.12 137.39 235.16 136.67 235.2 135.96 235.22 135.25 235.25 134.54 235.26 133.83 235.27 133.11 235.28 132.4 235.28 131.69 235.27 130.97 235.25 130.26 235.23 129.55 235.21 128.84 235.16 128.13 235.13 127.41 235.09 126.71 235.03 126 234.98 125.28 234.91 124.58 234.84 123.86 234.77 123.16 234.69 122.44 234.6 121.74 234.51 121.04 234.41 120.32 234.31 119.62 234.2 118.92 234.08 118.21 233.96 117.52 233.83 116.81 233.7 116.11 233.55 115.42 233.41 114.72 233.25 114.02 233.09 113.32 232.92 112.63 232.75 111.95 232.58 111.25 232.4 110.56 232.21 109.87 232.02 109.19 231.82 108.51 231.61 107.82 231.39 107.14 231.18 106.47 230.95 105.79 230.73 105.11 230.49 104.44 230.25 103.77 230.01 103.1 229.75 102.43 229.49 101.77 229.23 101.11 228.96 100.45 228.69 99.79 228.41 99.13 228.13 98.48 227.83 97.83 227.53 97.18 227.23 96.54 226.92 95.9 226.61 95.25 226.29 94.62 225.96 93.98 225.63 93.35 225.3 92.72 224.96 92.09 224.62 91.47 224.26 90.86 223.9 90.23 223.54 89.62 223.18 89.01 222.81 88.4 222.42 87.8 222.04 87.2 221.66 86.6 221.27 86 220.87 85.42 220.46 84.82 220.06 84.24 219.65 83.66 219.23 83.08 218.8 82.51 218.37 81.94 217.94 81.37 217.51 80.81 217.06 80.25 216.62 79.69 216.17 79.14 215.71 78.6 215.24 78.06 214.78 77.51 214.31 76.98 213.84 76.45 213.36 75.92 212.87 75.4 212.39 74.88 211.9 74.36 211.4 73.85 210.9 73.34 210.39 72.85 209.88 72.34 209.37 71.85 208.85 71.36 208.32 70.88 207.8 70.39 207.27 69.92 206.74 69.45 206.19 68.98 205.65 68.52 205.11 68.06 204.55 67.61 204 67.16 203.45 66.72 202.88 66.28 202.31 65.85 201.75 65.41 201.18 64.99 200.6 64.58 200.02 64.17 199.44 63.76 198.84 63.35 198.26 62.95 197.66 62.56 197.06 62.17 196.47 61.78 195.87 61.4 195.25 61.03 194.64 60.67 194.03 60.31 193.41 59.94 192.8 59.59 192.17 59.24 191.84 59.07"/><line class="cls-3" x1="264.58" y1="50.74" x2="264.58" y2="133.81"/><line class="cls-3" x1="264.58" y1="133.16" x2="264.58" y2="203.84"/><line class="cls-3" x1="266.64" y1="47.17" x2="266.64" y2="206.98"/><line class="cls-3" x1="264.72" y1="50.49" x2="264.89" y2="50.2"/><line class="cls-3" x1="264.72" y1="50.49" x2="264.58" y2="50.74"/><line class="cls-3" x1="264.21" y1="50.95" x2="264.58" y2="50.74"/><line class="cls-3" x1="266.64" y1="206.98" x2="266.64" y2="217.4"/><line class="cls-3" x1="264.58" y1="203.84" x2="264.58" y2="213.82"/><line class="cls-3" x1="264.72" y1="214.08" x2="264.58" y2="213.82"/><line class="cls-3" x1="264.89" y1="214.36" x2="264.72" y2="214.08"/><line class="cls-3" x1="264.21" y1="50.95" x2="264.15" y2="50.96"/><polyline class="cls-3" points="263.32 50.97 264.03 50.96 264.15 50.96"/><line class="cls-3" x1="262.14" y1="51" x2="262.14" y2="203.61"/><line class="cls-3" x1="264.58" y1="213.82" x2="264.21" y2="213.61"/><line class="cls-3" x1="264.21" y1="213.61" x2="264.15" y2="213.61"/><polyline class="cls-3" points="264.15 213.61 263.44 213.6 263.32 213.59"/><line class="cls-3" x1="262.14" y1="203.61" x2="262.14" y2="213.56"/><line class="cls-3" x1="260.89" y1="189.03" x2="260.89" y2="202.48"/><line class="cls-3" x1="260.89" y1="52.29" x2="260.89" y2="75.54"/><line class="cls-3" x1="260.89" y1="75.9" x2="260.89" y2="189.03"/><line class="cls-3" x1="260.89" y1="202.48" x2="260.89" y2="212.28"/><line class="cls-3" x1="264.89" y1="50.2" x2="266.64" y2="47.17"/><line class="cls-3" x1="264.89" y1="214.36" x2="266.64" y2="217.4"/><line class="cls-3" x1="266.71" y1="47.19" x2="266.64" y2="47.17"/><line class="cls-3" x1="262.14" y1="51" x2="263.32" y2="50.97"/><line class="cls-3" x1="266.71" y1="217.37" x2="266.64" y2="217.4"/><line class="cls-3" x1="262.14" y1="213.56" x2="263.32" y2="213.59"/><polyline class="cls-3" points="262.14 51 261.49 51.2 261.02 51.72 260.89 52.29"/><polyline class="cls-3" points="260.89 212.28 261.07 212.94 261.58 213.41 262.14 213.56"/><line class="cls-3" x1="266.71" y1="207.08" x2="266.71" y2="217.52"/><line class="cls-3" x1="266.71" y1="47.05" x2="266.71" y2="207.08"/><line class="cls-3" x1="272.84" y1="207.08" x2="272.84" y2="217.51"/><line class="cls-3" x1="272.84" y1="47.06" x2="272.84" y2="207.08"/><line class="cls-3" x1="274.59" y1="205.49" x2="274.59" y2="215.71"/><line class="cls-3" x1="274.59" y1="48.86" x2="274.59" y2="205.49"/><line class="cls-3" x1="266.71" y1="217.52" x2="267.23" y2="217.8"/><line class="cls-3" x1="267.23" y1="46.76" x2="266.71" y2="47.05"/><line class="cls-3" x1="272.84" y1="217.51" x2="267.23" y2="217.8"/><line class="cls-3" x1="272.84" y1="47.06" x2="267.23" y2="46.76"/><polyline class="cls-3" points="272.84 217.51 273.51 217.34 274.09 216.94 274.46 216.34 274.59 215.71"/><polyline class="cls-3" points="274.59 48.86 274.44 48.18 274.05 47.59 273.46 47.2 272.84 47.06"/></svg>