<svg xmlns="http://www.w3.org/2000/svg" viewBox="0 0 300 263"><defs><style>.cls-1,.cls-2,.cls-3,.cls-4,.cls-5{fill:none;stroke-linecap:round;}.cls-1,.cls-2,.cls-5{stroke:red;}.cls-1,.cls-2,.cls-4,.cls-5{stroke-linejoin:round;}.cls-1{stroke-width:0.6px;}.cls-3,.cls-4{stroke:#000;}.cls-3{stroke-miterlimit:10;}.cls-3,.cls-4,.cls-5{stroke-width:0.6px;}</style></defs><title>clara-ceiling-wall-lissoni-flos-F1570009-curva-fotometrica</title><g id="numeri_esterni_diagramma" data-name="numeri esterni diagramma"><path d="M249.93,137.18h0a1.24,1.24,0,0,1-.37.12,1.84,1.84,0,0,1-.39,0,1.91,1.91,0,0,1-.68-.12,1.58,1.58,0,0,1-.54-.37,1.63,1.63,0,0,1-.36-.56,2.05,2.05,0,0,1-.13-.72,1.79,1.79,0,0,1,.15-.75,1.48,1.48,0,0,1,.4-.55,1.79,1.79,0,0,1,.6-.35,2,2,0,0,1,.75-.13,2.11,2.11,0,0,1,.75.13,1.79,1.79,0,0,1,.6.35,1.59,1.59,0,0,1,.4.55,1.79,1.79,0,0,1,.14.75,2.15,2.15,0,0,1,0,.45,1.68,1.68,0,0,1-.11.4,2.59,2.59,0,0,1-.17.38l-.21.36-1.51,2.39h-.78Zm-.59-.42a1.28,1.28,0,0,0,.48-.09,1,1,0,0,0,.39-.24,1.23,1.23,0,0,0,.26-.37,1.43,1.43,0,0,0,0-1,1.1,1.1,0,0,0-.65-.62,1.48,1.48,0,0,0-1,0,1.28,1.28,0,0,0-.39.24,1.12,1.12,0,0,0-.26.38,1.3,1.3,0,0,0,0,1,1.08,1.08,0,0,0,.26.37,1,1,0,0,0,.39.24A1.28,1.28,0,0,0,249.34,136.76Z"/><path d="M251.82,136.71a7.07,7.07,0,0,1,.08-1,3.19,3.19,0,0,1,.29-1,2,2,0,0,1,.59-.7,1.54,1.54,0,0,1,1-.28,1.49,1.49,0,0,1,.95.28,1.91,1.91,0,0,1,.59.7,2.94,2.94,0,0,1,.3,1,6.29,6.29,0,0,1,0,2,2.94,2.94,0,0,1-.3.95,1.91,1.91,0,0,1-.59.7,1.49,1.49,0,0,1-.95.28,1.54,1.54,0,0,1-1-.28,2,2,0,0,1-.59-.7,3.19,3.19,0,0,1-.29-.95A7.07,7.07,0,0,1,251.82,136.71Zm.67,0c0,.14,0,.29,0,.46a4.6,4.6,0,0,0,.06.52,4.7,4.7,0,0,0,.12.51,2,2,0,0,0,.23.44,1,1,0,0,0,.34.31,1,1,0,0,0,.48.11,1.06,1.06,0,0,0,.48-.11,1.24,1.24,0,0,0,.34-.31,1.65,1.65,0,0,0,.22-.44,3.18,3.18,0,0,0,.13-.51,4.6,4.6,0,0,0,.06-.52c0-.17,0-.32,0-.46s0-.29,0-.46a4.6,4.6,0,0,0-.06-.52,3.18,3.18,0,0,0-.13-.51,1.65,1.65,0,0,0-.22-.44,1.24,1.24,0,0,0-.34-.31,1.06,1.06,0,0,0-.48-.11,1,1,0,0,0-.48.11,1,1,0,0,0-.34.31,2,2,0,0,0-.23.44,4.7,4.7,0,0,0-.12.51,4.6,4.6,0,0,0-.06.52C252.5,136.42,252.49,136.57,252.49,136.71Z"/><path d="M256.42,134.93a1.13,1.13,0,0,1,.09-.45,1.31,1.31,0,0,1,.24-.37,1.18,1.18,0,0,1,.37-.24,1,1,0,0,1,.44-.09,1.13,1.13,0,0,1,.45.09,1.06,1.06,0,0,1,.61.61,1.13,1.13,0,0,1,.09.45,1,1,0,0,1-.09.44,1.06,1.06,0,0,1-.61.61,1.13,1.13,0,0,1-.45.09,1,1,0,0,1-.44-.09,1.18,1.18,0,0,1-.37-.24,1.31,1.31,0,0,1-.24-.37A1,1,0,0,1,256.42,134.93Zm.43,0a.69.69,0,0,0,0,.24,1,1,0,0,0,.15.24.73.73,0,0,0,.51.23.54.54,0,0,0,.29-.07.63.63,0,0,0,.23-.16.72.72,0,0,0,.14-.24.52.52,0,0,0,0-.24.56.56,0,0,0,0-.25.59.59,0,0,0-.14-.23.74.74,0,0,0-.52-.24.73.73,0,0,0-.29.07.62.62,0,0,0-.22.17.76.76,0,0,0-.15.23A.74.74,0,0,0,256.85,134.93Z"/><path d="M41.57,137.18h0a1.34,1.34,0,0,1-.37.12,2,2,0,0,1-.39,0,1.92,1.92,0,0,1-.69-.12,1.58,1.58,0,0,1-.54-.37,1.8,1.8,0,0,1-.36-.56,2.05,2.05,0,0,1-.13-.72,1.79,1.79,0,0,1,.15-.75,1.48,1.48,0,0,1,.4-.55,1.79,1.79,0,0,1,.6-.35,2.23,2.23,0,0,1,1.5,0,1.79,1.79,0,0,1,.6.35,1.48,1.48,0,0,1,.4.55,1.79,1.79,0,0,1,.15.75,3.14,3.14,0,0,1,0,.45,2.34,2.34,0,0,1-.12.4,1.84,1.84,0,0,1-.17.38,3.35,3.35,0,0,1-.21.36l-1.5,2.39h-.79Zm-.59-.42a1.28,1.28,0,0,0,.48-.09,1,1,0,0,0,.39-.24,1.23,1.23,0,0,0,.26-.37,1.3,1.3,0,0,0,0-1,1.1,1.1,0,0,0-.65-.62,1.48,1.48,0,0,0-1,0,1.1,1.1,0,0,0-.65.62,1.43,1.43,0,0,0,0,1,1.23,1.23,0,0,0,.26.37,1,1,0,0,0,.39.24A1.28,1.28,0,0,0,41,136.76Z"/><path d="M43.46,136.71a7.07,7.07,0,0,1,.08-1,2.94,2.94,0,0,1,.3-1,1.91,1.91,0,0,1,.59-.7,1.49,1.49,0,0,1,1-.28,1.54,1.54,0,0,1,1,.28,2,2,0,0,1,.59.7,3.19,3.19,0,0,1,.29,1,6.29,6.29,0,0,1,0,2,3.19,3.19,0,0,1-.29.95,2,2,0,0,1-.59.7,1.54,1.54,0,0,1-1,.28,1.49,1.49,0,0,1-1-.28,1.91,1.91,0,0,1-.59-.7,2.94,2.94,0,0,1-.3-.95A7.07,7.07,0,0,1,43.46,136.71Zm.67,0c0,.14,0,.29,0,.46a4.6,4.6,0,0,0,.06.52,3.18,3.18,0,0,0,.13.51,1.65,1.65,0,0,0,.22.44,1.12,1.12,0,0,0,.34.31,1.1,1.1,0,0,0,1,0,1.12,1.12,0,0,0,.34-.31,2,2,0,0,0,.23-.44,4.7,4.7,0,0,0,.12-.51,4.6,4.6,0,0,0,.06-.52c0-.17,0-.32,0-.46s0-.29,0-.46a4.6,4.6,0,0,0-.06-.52,4.7,4.7,0,0,0-.12-.51,2,2,0,0,0-.23-.44,1.12,1.12,0,0,0-.34-.31,1.1,1.1,0,0,0-1,0,1.12,1.12,0,0,0-.34.31,1.65,1.65,0,0,0-.22.44,3.18,3.18,0,0,0-.13.51,4.6,4.6,0,0,0-.06.52C44.14,136.42,44.13,136.57,44.13,136.71Z"/><path d="M48.06,134.93a1.13,1.13,0,0,1,.09-.45,1.06,1.06,0,0,1,.61-.61,1.13,1.13,0,0,1,.45-.09,1.08,1.08,0,0,1,.44.09,1.06,1.06,0,0,1,.61.61,1.13,1.13,0,0,1,.09.45,1,1,0,0,1-.09.44,1.06,1.06,0,0,1-.61.61,1.08,1.08,0,0,1-.44.09,1.13,1.13,0,0,1-.45-.09,1.06,1.06,0,0,1-.61-.61A1,1,0,0,1,48.06,134.93Zm.43,0a.53.53,0,0,0,.06.24.72.72,0,0,0,.14.24.69.69,0,0,0,.22.16.6.6,0,0,0,.3.07.73.73,0,0,0,.51-.23,1,1,0,0,0,.15-.24.69.69,0,0,0,.05-.24.74.74,0,0,0-.05-.25.76.76,0,0,0-.15-.23.62.62,0,0,0-.22-.17.73.73,0,0,0-.29-.07.73.73,0,0,0-.3.07.72.72,0,0,0-.22.17.59.59,0,0,0-.14.23A.57.57,0,0,0,48.49,134.93Z"/><path d="M148.37,38.51h-.68v-4.8h0l-1,.85-.4-.48,1.52-1.24h.59Z"/><path d="M150.49,34.23a1.48,1.48,0,0,1,.13-.61,1.2,1.2,0,0,1,.34-.46,1.44,1.44,0,0,1,.51-.3,1.92,1.92,0,0,1,1.28,0,1.44,1.44,0,0,1,.51.3,1.2,1.2,0,0,1,.34.46,1.33,1.33,0,0,1,.13.61,1.16,1.16,0,0,1-.07.4,1.41,1.41,0,0,1-.18.37,1.33,1.33,0,0,1-.29.29,1.18,1.18,0,0,1-.39.19h0a1.44,1.44,0,0,1,.46.19,1.35,1.35,0,0,1,.35.32,1.42,1.42,0,0,1,.23.44,1.7,1.7,0,0,1,.08.51,1.74,1.74,0,0,1-.14.69,1.43,1.43,0,0,1-.39.52,1.47,1.47,0,0,1-.57.33,2.35,2.35,0,0,1-1.42,0,1.47,1.47,0,0,1-.57-.33,1.55,1.55,0,0,1-.39-.52,1.74,1.74,0,0,1-.14-.69,1.7,1.7,0,0,1,.08-.51,1.67,1.67,0,0,1,.23-.44,1.35,1.35,0,0,1,.35-.32,1.44,1.44,0,0,1,.46-.19h0a1.18,1.18,0,0,1-.39-.19,1.33,1.33,0,0,1-.29-.29,1.41,1.41,0,0,1-.18-.37A1.46,1.46,0,0,1,150.49,34.23ZM151,36.9a1.18,1.18,0,0,0,.09.46,1.07,1.07,0,0,0,.25.35,1,1,0,0,0,.36.23,1.12,1.12,0,0,0,.88,0,1,1,0,0,0,.36-.23,1.07,1.07,0,0,0,.25-.35,1.18,1.18,0,0,0,.09-.46,1.14,1.14,0,0,0-.09-.46,1.13,1.13,0,0,0-.61-.58,1.12,1.12,0,0,0-.88,0,1.13,1.13,0,0,0-.61.58A1.14,1.14,0,0,0,151,36.9Zm.2-2.64a.88.88,0,0,0,.26.67,1,1,0,0,0,1.36,0,1,1,0,0,0,0-1.34,1,1,0,0,0-1.36,0A.88.88,0,0,0,151.17,34.26Z"/><path d="M154.64,35.68a7,7,0,0,1,.08-1,3.1,3.1,0,0,1,.29-1,2,2,0,0,1,.59-.71,1.6,1.6,0,0,1,1-.27,1.55,1.55,0,0,1,.95.27,1.94,1.94,0,0,1,.59.71,2.86,2.86,0,0,1,.3,1,7,7,0,0,1,.08,1,7.07,7.07,0,0,1-.08,1,2.88,2.88,0,0,1-.3.94,1.94,1.94,0,0,1-.59.71,1.55,1.55,0,0,1-.95.27,1.6,1.6,0,0,1-1-.27,2,2,0,0,1-.59-.71,3.13,3.13,0,0,1-.29-.94A7.07,7.07,0,0,1,154.64,35.68Zm.67,0c0,.13,0,.29,0,.46a4.88,4.88,0,0,0,.06.52,4.05,4.05,0,0,0,.12.5,1.66,1.66,0,0,0,.23.44,1.12,1.12,0,0,0,.34.31,1,1,0,0,0,1,0,1.12,1.12,0,0,0,.34-.31,1.4,1.4,0,0,0,.22-.44,2.83,2.83,0,0,0,.13-.5,4.88,4.88,0,0,0,.06-.52c0-.17,0-.33,0-.46s0-.3,0-.47a4.43,4.43,0,0,0-.06-.51,2.72,2.72,0,0,0-.13-.51,1.51,1.51,0,0,0-.22-.44,1.12,1.12,0,0,0-.34-.31,1,1,0,0,0-1,0,1.12,1.12,0,0,0-.34.31,1.83,1.83,0,0,0-.23.44,3.81,3.81,0,0,0-.12.51,4.43,4.43,0,0,0-.06.51C155.32,35.38,155.31,35.54,155.31,35.68Z"/><path d="M159.24,33.89a1.15,1.15,0,0,1,.33-.81,1,1,0,0,1,.37-.24,1,1,0,0,1,.44-.09,1.15,1.15,0,0,1,.82,2,1.15,1.15,0,0,1-.37.25,1.13,1.13,0,0,1-.45.09,1.15,1.15,0,0,1-.81-.34,1.15,1.15,0,0,1-.33-.81Zm.43,0a.79.79,0,0,0,.05.25,1.14,1.14,0,0,0,.15.23.62.62,0,0,0,.22.17.72.72,0,0,0,.29.06.68.68,0,0,0,.52-.23.79.79,0,0,0,.14-.23.65.65,0,0,0,0-.5.79.79,0,0,0-.14-.23.81.81,0,0,0-.23-.17.65.65,0,0,0-.29-.06.72.72,0,0,0-.29.06.76.76,0,0,0-.22.17,1.14,1.14,0,0,0-.15.23A.79.79,0,0,0,159.67,33.89Z"/><path d="M148.27,239.2a6.85,6.85,0,0,1,.08-1,3.41,3.41,0,0,1,.3-.95,1.94,1.94,0,0,1,.59-.71,1.57,1.57,0,0,1,.95-.27,1.6,1.6,0,0,1,1,.27,2,2,0,0,1,.59.71,3.1,3.1,0,0,1,.29.95,5.7,5.7,0,0,1,.08,1,5.85,5.85,0,0,1-.08,1,3.13,3.13,0,0,1-.29.94,2,2,0,0,1-.59.71,1.6,1.6,0,0,1-1,.27,1.57,1.57,0,0,1-.95-.27,1.94,1.94,0,0,1-.59-.71,3.45,3.45,0,0,1-.3-.94A7.07,7.07,0,0,1,148.27,239.2Zm.68,0c0,.13,0,.29,0,.46a4.88,4.88,0,0,0,.06.52,2.83,2.83,0,0,0,.13.5,1.65,1.65,0,0,0,.22.44,1.24,1.24,0,0,0,.34.31,1,1,0,0,0,.48.12.9.9,0,0,0,.48-.12,1,1,0,0,0,.34-.31,1.41,1.41,0,0,0,.23-.44,4.07,4.07,0,0,0,.13-.5c0-.18,0-.35.06-.52s0-.33,0-.46,0-.3,0-.47,0-.34-.06-.51a3.8,3.8,0,0,0-.13-.51,1.53,1.53,0,0,0-.23-.44,1,1,0,0,0-.34-.31.9.9,0,0,0-.48-.12,1,1,0,0,0-.48.12,1.24,1.24,0,0,0-.34.31,1.81,1.81,0,0,0-.22.44,2.72,2.72,0,0,0-.13.51,4.43,4.43,0,0,0-.06.51C149,238.9,149,239.06,149,239.2Z"/><path d="M152.83,237.41a1.33,1.33,0,0,1,.08-.45,1.11,1.11,0,0,1,.25-.36,1,1,0,0,1,.36-.24,1.17,1.17,0,0,1,.9,0,1,1,0,0,1,.36.24,1.11,1.11,0,0,1,.25.36,1.31,1.31,0,0,1,0,.9,1.23,1.23,0,0,1-.61.61,1.17,1.17,0,0,1-.9,0,1.23,1.23,0,0,1-.61-.61A1.33,1.33,0,0,1,152.83,237.41Zm.43,0a.79.79,0,0,0,.05.25.68.68,0,0,0,.14.23.66.66,0,0,0,.23.17.73.73,0,0,0,.58,0,.76.76,0,0,0,.23-.17.88.88,0,0,0,.14-.23.65.65,0,0,0,0-.5,1.09,1.09,0,0,0-.14-.23,1,1,0,0,0-.23-.17.73.73,0,0,0-.58,0,.81.81,0,0,0-.23.17.75.75,0,0,0-.19.48Z"/><path d="M203.17,238.76h.21l.43,0a1.15,1.15,0,0,0,.42-.13.77.77,0,0,0,.31-.31.94.94,0,0,0,.13-.51.87.87,0,0,0-.27-.68,1,1,0,0,0-.7-.26,1.28,1.28,0,0,0-.63.16,1.14,1.14,0,0,0-.41.48l-.65-.25a1.48,1.48,0,0,1,.65-.72,2.07,2.07,0,0,1,1-.24,2.25,2.25,0,0,1,.64.09,1.72,1.72,0,0,1,.54.28,1.37,1.37,0,0,1,.37.46,1.48,1.48,0,0,1,.14.65,1.29,1.29,0,0,1-.27.8,1.34,1.34,0,0,1-.7.49v0a1.48,1.48,0,0,1,.85.49,1.37,1.37,0,0,1,.23.43,1.69,1.69,0,0,1,.08.5,1.66,1.66,0,0,1-.15.72,1.57,1.57,0,0,1-.41.51,1.71,1.71,0,0,1-.6.31,2.34,2.34,0,0,1-.71.1,2.18,2.18,0,0,1-1.13-.28,1.61,1.61,0,0,1-.7-.91l.68-.22a1.33,1.33,0,0,0,.41.65,1.3,1.3,0,0,0,.74.19,1.33,1.33,0,0,0,.45-.08,1.11,1.11,0,0,0,.36-.23,1.24,1.24,0,0,0,.25-.35,1.13,1.13,0,0,0,.09-.45,1.07,1.07,0,0,0-.12-.53,1,1,0,0,0-.33-.33,1.23,1.23,0,0,0-.46-.18,2.31,2.31,0,0,0-.52-.06h-.21Z"/><path d="M206.24,239.2a6.85,6.85,0,0,1,.08-1,3.11,3.11,0,0,1,.3-.95,1.94,1.94,0,0,1,.59-.71,1.55,1.55,0,0,1,.95-.27,1.6,1.6,0,0,1,1,.27,2,2,0,0,1,.59.71,3.1,3.1,0,0,1,.29.95,5.7,5.7,0,0,1,.08,1,5.85,5.85,0,0,1-.08,1,3.13,3.13,0,0,1-.29.94,2,2,0,0,1-.59.71,1.6,1.6,0,0,1-1,.27,1.55,1.55,0,0,1-.95-.27,1.94,1.94,0,0,1-.59-.71,3.14,3.14,0,0,1-.3-.94A7.07,7.07,0,0,1,206.24,239.2Zm.67,0c0,.13,0,.29,0,.46a4.88,4.88,0,0,0,.06.52,2.83,2.83,0,0,0,.13.5,1.4,1.4,0,0,0,.22.44,1.24,1.24,0,0,0,.34.31,1,1,0,0,0,.48.12.9.9,0,0,0,.48-.12,1,1,0,0,0,.34-.31,1.41,1.41,0,0,0,.23-.44,4.05,4.05,0,0,0,.12-.5,4.88,4.88,0,0,0,.06-.52,3.86,3.86,0,0,0,0-.46,3.94,3.94,0,0,0,0-.47,4.43,4.43,0,0,0-.06-.51,3.81,3.81,0,0,0-.12-.51,1.53,1.53,0,0,0-.23-.44,1,1,0,0,0-.34-.31.9.9,0,0,0-.48-.12,1,1,0,0,0-.48.12,1.24,1.24,0,0,0-.34.31,1.51,1.51,0,0,0-.22.44,2.72,2.72,0,0,0-.13.51,4.43,4.43,0,0,0-.06.51C206.92,238.9,206.91,239.06,206.91,239.2Z"/><path d="M210.84,237.41a1.13,1.13,0,0,1,.09-.45,1.26,1.26,0,0,1,.24-.36,1.2,1.2,0,0,1,.82-.33,1,1,0,0,1,.44.09,1.12,1.12,0,0,1,.37.24,1.26,1.26,0,0,1,.24.36,1.16,1.16,0,0,1-.24,1.26,1.15,1.15,0,0,1-.37.25,1,1,0,0,1-.44.09,1.13,1.13,0,0,1-.45-.09,1.15,1.15,0,0,1-.37-.25,1.15,1.15,0,0,1-.33-.81Zm.43,0a.61.61,0,0,0,.06.25.68.68,0,0,0,.14.23.72.72,0,0,0,.22.17.73.73,0,0,0,.3.06.72.72,0,0,0,.29-.06.62.62,0,0,0,.22-.17.91.91,0,0,0,.15-.23.65.65,0,0,0,0-.5,1.14,1.14,0,0,0-.15-.23.76.76,0,0,0-.22-.17.72.72,0,0,0-.29-.06.73.73,0,0,0-.3.06.92.92,0,0,0-.22.17.79.79,0,0,0-.14.23A.61.61,0,0,0,211.27,237.41Z"/><path d="M93.6,238.76h.21l.44,0a1.1,1.1,0,0,0,.41-.13.86.86,0,0,0,.32-.31.94.94,0,0,0,.12-.51.87.87,0,0,0-.27-.68,1,1,0,0,0-.7-.26,1.21,1.21,0,0,0-.62.16,1.1,1.1,0,0,0-.42.48l-.65-.25a1.45,1.45,0,0,1,.66-.72,2,2,0,0,1,1-.24,2.32,2.32,0,0,1,.65.09,2,2,0,0,1,.54.28,1.67,1.67,0,0,1,.37.46,1.48,1.48,0,0,1,.13.65,1.29,1.29,0,0,1-.27.8,1.34,1.34,0,0,1-.7.49v0a1.31,1.31,0,0,1,.49.18,1.34,1.34,0,0,1,.36.31,1.37,1.37,0,0,1,.23.43,1.42,1.42,0,0,1,.08.5,1.66,1.66,0,0,1-.15.72,1.57,1.57,0,0,1-.41.51,1.75,1.75,0,0,1-.59.31,2.46,2.46,0,0,1-.72.1,2.18,2.18,0,0,1-1.13-.28,1.56,1.56,0,0,1-.69-.91l.68-.22a1.2,1.2,0,0,0,.41.65,1.27,1.27,0,0,0,.73.19,1.33,1.33,0,0,0,.45-.08,1.11,1.11,0,0,0,.36-.23,1.07,1.07,0,0,0,.25-.35,1.13,1.13,0,0,0,.09-.45,1.07,1.07,0,0,0-.12-.53.87.87,0,0,0-.33-.33,1.17,1.17,0,0,0-.46-.18,2.24,2.24,0,0,0-.52-.06H93.6Z"/><path d="M96.68,239.2a5.7,5.7,0,0,1,.08-1,3.1,3.1,0,0,1,.29-.95,2,2,0,0,1,.59-.71,1.6,1.6,0,0,1,1-.27,1.57,1.57,0,0,1,1,.27,1.94,1.94,0,0,1,.59.71,3.41,3.41,0,0,1,.3.95,6.85,6.85,0,0,1,.08,1,7.07,7.07,0,0,1-.08,1,3.45,3.45,0,0,1-.3.94,1.94,1.94,0,0,1-.59.71,1.57,1.57,0,0,1-1,.27,1.6,1.6,0,0,1-1-.27,2,2,0,0,1-.59-.71,3.13,3.13,0,0,1-.29-.94A5.85,5.85,0,0,1,96.68,239.2Zm.67,0c0,.13,0,.29,0,.46a4.88,4.88,0,0,0,.06.52,4.07,4.07,0,0,0,.13.5,1.41,1.41,0,0,0,.23.44,1,1,0,0,0,.34.31.9.9,0,0,0,.48.12,1,1,0,0,0,.48-.12,1.24,1.24,0,0,0,.34-.31,1.65,1.65,0,0,0,.22-.44,2.83,2.83,0,0,0,.13-.5,4.88,4.88,0,0,0,.06-.52c0-.17,0-.33,0-.46s0-.3,0-.47a4.43,4.43,0,0,0-.06-.51,2.72,2.72,0,0,0-.13-.51,1.81,1.81,0,0,0-.22-.44,1.24,1.24,0,0,0-.34-.31,1,1,0,0,0-.48-.12.9.9,0,0,0-.48.12,1,1,0,0,0-.34.31,1.53,1.53,0,0,0-.23.44,3.8,3.8,0,0,0-.13.51,4.43,4.43,0,0,0-.06.51C97.35,238.9,97.35,239.06,97.35,239.2Z"/><path d="M101.28,237.41a1.33,1.33,0,0,1,.08-.45,1.11,1.11,0,0,1,.25-.36,1,1,0,0,1,.36-.24,1.17,1.17,0,0,1,.9,0,1,1,0,0,1,.36.24,1.11,1.11,0,0,1,.25.36,1.31,1.31,0,0,1,0,.9,1.23,1.23,0,0,1-.61.61,1.17,1.17,0,0,1-.9,0,1.23,1.23,0,0,1-.61-.61A1.33,1.33,0,0,1,101.28,237.41Zm.43,0a.79.79,0,0,0,.05.25.68.68,0,0,0,.14.23.76.76,0,0,0,.23.17.73.73,0,0,0,.58,0,.66.66,0,0,0,.23-.17.68.68,0,0,0,.14-.23.71.71,0,0,0-.14-.73.81.81,0,0,0-.23-.17.73.73,0,0,0-.58,0,1,1,0,0,0-.23.17.75.75,0,0,0-.19.48Z"/><path d="M203.18,38.51h-.68v-4.8h0l-1,.85-.4-.48,1.52-1.24h.59Z"/><path d="M208.49,33.47h-2.31l0,1.53a1.08,1.08,0,0,1,.36-.11l.37,0a2,2,0,0,1,.74.14,1.61,1.61,0,0,1,.57.39,1.9,1.9,0,0,1,.37.59,2,2,0,0,1,.13.74,2,2,0,0,1-.15.78,1.74,1.74,0,0,1-.41.59,1.91,1.91,0,0,1-.61.38,2.2,2.2,0,0,1-.78.13,1.73,1.73,0,0,1-1-.28,2,2,0,0,1-.63-.75l.67-.25a1.31,1.31,0,0,0,.42.51,1.1,1.1,0,0,0,.64.2,1.28,1.28,0,0,0,.48-.09,1.26,1.26,0,0,0,.38-.27,1.15,1.15,0,0,0,.26-.41,1.53,1.53,0,0,0,.1-.54,1.38,1.38,0,0,0-.11-.55,1.08,1.08,0,0,0-.3-.4,1.26,1.26,0,0,0-.44-.25,1.67,1.67,0,0,0-.55-.08,1.84,1.84,0,0,0-.6.1,2.58,2.58,0,0,0-.56.25l.06-2.95h3Z"/><path d="M209.45,35.68a7,7,0,0,1,.08-1,3.1,3.1,0,0,1,.29-1,2,2,0,0,1,.59-.71,1.6,1.6,0,0,1,1-.27,1.55,1.55,0,0,1,.95.27,1.94,1.94,0,0,1,.59.71,2.86,2.86,0,0,1,.3,1,7,7,0,0,1,.08,1,7.07,7.07,0,0,1-.08,1,2.88,2.88,0,0,1-.3.94,1.94,1.94,0,0,1-.59.71,1.55,1.55,0,0,1-.95.27,1.6,1.6,0,0,1-1-.27,2,2,0,0,1-.59-.71,3.13,3.13,0,0,1-.29-.94A7.07,7.07,0,0,1,209.45,35.68Zm.67,0c0,.13,0,.29,0,.46a4.88,4.88,0,0,0,.06.52,4.05,4.05,0,0,0,.12.5,1.66,1.66,0,0,0,.23.44,1,1,0,0,0,.34.31.9.9,0,0,0,.48.12,1,1,0,0,0,.48-.12,1.24,1.24,0,0,0,.34-.31,1.4,1.4,0,0,0,.22-.44,2.83,2.83,0,0,0,.13-.5,4.88,4.88,0,0,0,.06-.52c0-.17,0-.33,0-.46s0-.3,0-.47a4.43,4.43,0,0,0-.06-.51,2.72,2.72,0,0,0-.13-.51,1.51,1.51,0,0,0-.22-.44,1.24,1.24,0,0,0-.34-.31,1,1,0,0,0-.48-.12.9.9,0,0,0-.48.12,1,1,0,0,0-.34.31,1.83,1.83,0,0,0-.23.44,3.81,3.81,0,0,0-.12.51,4.43,4.43,0,0,0-.06.51C210.13,35.38,210.12,35.54,210.12,35.68Z"/><path d="M214.05,33.89a1.15,1.15,0,0,1,.33-.81,1,1,0,0,1,.37-.24,1,1,0,0,1,.44-.09,1.13,1.13,0,0,1,.45.09,1,1,0,0,1,.36.24,1,1,0,0,1,.25.36,1.17,1.17,0,0,1,0,.9,1.23,1.23,0,0,1-.61.61,1.13,1.13,0,0,1-.45.09,1.15,1.15,0,0,1-.81-.34,1.15,1.15,0,0,1-.33-.81Zm.43,0a.79.79,0,0,0,.05.25,1.14,1.14,0,0,0,.15.23.62.62,0,0,0,.22.17.72.72,0,0,0,.29.06.68.68,0,0,0,.52-.23.79.79,0,0,0,.14-.23.65.65,0,0,0,0-.5.79.79,0,0,0-.14-.23.81.81,0,0,0-.23-.17.65.65,0,0,0-.29-.06.72.72,0,0,0-.29.06.76.76,0,0,0-.22.17,1.14,1.14,0,0,0-.15.23A.79.79,0,0,0,214.48,33.89Z"/><path d="M93.61,38.51h-.67v-4.8h0l-1,.85-.4-.48L93,32.84h.58Z"/><path d="M98.92,33.47H96.61l0,1.53a1,1,0,0,1,.35-.11l.37,0a1.91,1.91,0,0,1,.74.14,1.65,1.65,0,0,1,.58.39A1.71,1.71,0,0,1,99,36a2,2,0,0,1,.13.74,2,2,0,0,1-.15.78,1.71,1.71,0,0,1-.4.59,2,2,0,0,1-.62.38,2.15,2.15,0,0,1-.77.13,1.78,1.78,0,0,1-1.05-.28,1.85,1.85,0,0,1-.62-.75l.67-.25a1.16,1.16,0,0,0,.42.51,1.05,1.05,0,0,0,.63.2,1.28,1.28,0,0,0,.48-.09,1.23,1.23,0,0,0,.64-.68,1.33,1.33,0,0,0,.1-.54,1.38,1.38,0,0,0-.11-.55,1.18,1.18,0,0,0-.29-.4,1.41,1.41,0,0,0-.45-.25,1.63,1.63,0,0,0-.55-.08,1.78,1.78,0,0,0-.59.1,2.58,2.58,0,0,0-.56.25l0-2.95h3Z"/><path d="M99.88,35.68a7,7,0,0,1,.08-1,3.11,3.11,0,0,1,.3-1,1.94,1.94,0,0,1,.59-.71,1.55,1.55,0,0,1,1-.27,1.6,1.6,0,0,1,1,.27,2,2,0,0,1,.59.71,3.1,3.1,0,0,1,.29,1,5.77,5.77,0,0,1,.08,1,5.85,5.85,0,0,1-.08,1,3.13,3.13,0,0,1-.29.94,2,2,0,0,1-.59.71,1.6,1.6,0,0,1-1,.27,1.55,1.55,0,0,1-1-.27,1.94,1.94,0,0,1-.59-.71,3.14,3.14,0,0,1-.3-.94A7.07,7.07,0,0,1,99.88,35.68Zm.67,0c0,.13,0,.29,0,.46a4.88,4.88,0,0,0,.06.52,2.83,2.83,0,0,0,.13.5,1.4,1.4,0,0,0,.22.44,1.24,1.24,0,0,0,.34.31,1,1,0,0,0,.48.12.9.9,0,0,0,.48-.12,1,1,0,0,0,.34-.31,1.41,1.41,0,0,0,.23-.44,4.05,4.05,0,0,0,.12-.5,4.88,4.88,0,0,0,.06-.52c0-.17,0-.33,0-.46s0-.3,0-.47a4.43,4.43,0,0,0-.06-.51,3.81,3.81,0,0,0-.12-.51,1.53,1.53,0,0,0-.23-.44,1,1,0,0,0-.34-.31.9.9,0,0,0-.48-.12,1,1,0,0,0-.48.12,1.24,1.24,0,0,0-.34.31,1.51,1.51,0,0,0-.22.44,2.72,2.72,0,0,0-.13.51,4.43,4.43,0,0,0-.06.51C100.56,35.38,100.55,35.54,100.55,35.68Z"/><path d="M104.48,33.89a1.15,1.15,0,0,1,1.15-1.14,1,1,0,0,1,.44.09,1.12,1.12,0,0,1,.37.24,1.16,1.16,0,0,1,0,1.62,1.15,1.15,0,0,1-.37.25,1,1,0,0,1-.44.09,1.13,1.13,0,0,1-.45-.09,1.15,1.15,0,0,1-.37-.25,1.15,1.15,0,0,1-.33-.81Zm.43,0a.61.61,0,0,0,.06.25.79.79,0,0,0,.14.23.72.72,0,0,0,.22.17.73.73,0,0,0,.3.06.72.72,0,0,0,.29-.06.62.62,0,0,0,.22-.17,1.14,1.14,0,0,0,.15-.23.65.65,0,0,0,0-.5,1.14,1.14,0,0,0-.15-.23.76.76,0,0,0-.22-.17.72.72,0,0,0-.29-.06.73.73,0,0,0-.3.06.92.92,0,0,0-.22.17.79.79,0,0,0-.14.23A.61.61,0,0,0,104.91,33.89Z"/><path d="M248.75,192.45v0a1.35,1.35,0,0,1,.37-.13,2,2,0,0,1,.39,0,1.73,1.73,0,0,1,.69.13,1.42,1.42,0,0,1,.54.36,1.85,1.85,0,0,1,.36.57,2,2,0,0,1,.12.72,1.78,1.78,0,0,1-.14.74,1.74,1.74,0,0,1-.4.56,2,2,0,0,1-.6.35,2.36,2.36,0,0,1-.75.12,2.27,2.27,0,0,1-.75-.12,2,2,0,0,1-.6-.35,1.6,1.6,0,0,1-.4-.56,1.78,1.78,0,0,1-.15-.74,2.24,2.24,0,0,1,.15-.86,5.28,5.28,0,0,1,.39-.74l1.5-2.39h.79Zm.59.43a1.23,1.23,0,0,0-.87.32,1,1,0,0,0-.26.38,1.31,1.31,0,0,0-.1.5,1.35,1.35,0,0,0,.1.5,1.08,1.08,0,0,0,.26.37,1,1,0,0,0,.39.24,1.32,1.32,0,0,0,1,0,1,1,0,0,0,.39-.24,1.23,1.23,0,0,0,.26-.37,1.35,1.35,0,0,0,.09-.5,1.31,1.31,0,0,0-.09-.5,1.16,1.16,0,0,0-.26-.38,1.23,1.23,0,0,0-.87-.32Z"/><path d="M251.82,192.92a7.07,7.07,0,0,1,.08-1,3.13,3.13,0,0,1,.29-.94,2,2,0,0,1,.59-.71,1.6,1.6,0,0,1,1-.27,1.55,1.55,0,0,1,.95.27,1.94,1.94,0,0,1,.59.71,2.88,2.88,0,0,1,.3.94,7.07,7.07,0,0,1,.08,1,7,7,0,0,1-.08,1,2.86,2.86,0,0,1-.3,1,1.94,1.94,0,0,1-.59.71,1.55,1.55,0,0,1-.95.27,1.6,1.6,0,0,1-1-.27,2,2,0,0,1-.59-.71,3.1,3.1,0,0,1-.29-1A7,7,0,0,1,251.82,192.92Zm.67,0c0,.14,0,.3,0,.47a4.43,4.43,0,0,0,.06.51,3.81,3.81,0,0,0,.12.51,1.83,1.83,0,0,0,.23.44,1,1,0,0,0,.34.31.9.9,0,0,0,.48.12,1,1,0,0,0,.48-.12,1.24,1.24,0,0,0,.34-.31,1.51,1.51,0,0,0,.22-.44,2.72,2.72,0,0,0,.13-.51,4.43,4.43,0,0,0,.06-.51c0-.17,0-.33,0-.47s0-.29,0-.46a4.88,4.88,0,0,0-.06-.52,2.83,2.83,0,0,0-.13-.5,1.4,1.4,0,0,0-.22-.44,1.1,1.1,0,0,0-.34-.31,1,1,0,0,0-.48-.12.9.9,0,0,0-.48.12.92.92,0,0,0-.34.31,1.66,1.66,0,0,0-.23.44,4.05,4.05,0,0,0-.12.5,4.88,4.88,0,0,0-.06.52C252.5,192.63,252.49,192.79,252.49,192.92Z"/><path d="M256.42,191.14a1.15,1.15,0,0,1,.33-.81,1.05,1.05,0,0,1,.37-.25,1.23,1.23,0,0,1,.44-.08,1.33,1.33,0,0,1,.45.08,1.15,1.15,0,0,1,.37.25,1.16,1.16,0,0,1,0,1.62,1.15,1.15,0,0,1-.37.25,1.33,1.33,0,0,1-.45.08,1.23,1.23,0,0,1-.44-.08,1.05,1.05,0,0,1-.37-.25,1.15,1.15,0,0,1-.33-.81Zm.43,0a.79.79,0,0,0,0,.25,1.14,1.14,0,0,0,.15.23.62.62,0,0,0,.22.17.72.72,0,0,0,.29.06.68.68,0,0,0,.52-.23.79.79,0,0,0,.14-.23.65.65,0,0,0,0-.5.79.79,0,0,0-.14-.23.68.68,0,0,0-.52-.23.72.72,0,0,0-.29.06.62.62,0,0,0-.22.17,1.14,1.14,0,0,0-.15.23A.79.79,0,0,0,256.85,191.14Z"/><path d="M250,81.22h-.67v-4.8h0l-1,.86-.4-.49,1.52-1.23H250Z"/><path d="M251.92,80.45l2.13-2.08c.13-.12.25-.24.35-.35a2.16,2.16,0,0,0,.25-.32,1.09,1.09,0,0,0,.15-.33,1.38,1.38,0,0,0,0-.37,1,1,0,0,0-.08-.4.84.84,0,0,0-.22-.3.78.78,0,0,0-.33-.19,1.05,1.05,0,0,0-.4-.07,1,1,0,0,0-.71.25,1.08,1.08,0,0,0-.36.65l-.73-.06a1.83,1.83,0,0,1,.21-.61,1.41,1.41,0,0,1,.39-.45,2,2,0,0,1,.53-.27,2.25,2.25,0,0,1,.64-.09,2.41,2.41,0,0,1,.67.1,1.92,1.92,0,0,1,.55.29,1.44,1.44,0,0,1,.51,1.15,2,2,0,0,1-.09.61,2,2,0,0,1-.25.5,3.47,3.47,0,0,1-.35.43l-.41.4-1.75,1.64v0h2.89v.62h-3.64Z"/><path d="M256.27,78.39a5.85,5.85,0,0,1,.08-1,3.19,3.19,0,0,1,.29-1,2,2,0,0,1,.59-.7,1.54,1.54,0,0,1,1-.28,1.51,1.51,0,0,1,.95.28,1.91,1.91,0,0,1,.59.7,3.2,3.2,0,0,1,.3,1,6.29,6.29,0,0,1,0,2,3.2,3.2,0,0,1-.3,1,1.91,1.91,0,0,1-.59.7,1.51,1.51,0,0,1-.95.28,1.54,1.54,0,0,1-1-.28,2,2,0,0,1-.59-.7,3.19,3.19,0,0,1-.29-1A5.85,5.85,0,0,1,256.27,78.39Zm.67,0a3.78,3.78,0,0,0,0,.46c0,.17,0,.35.05.52a4.77,4.77,0,0,0,.13.51,1.67,1.67,0,0,0,.23.44,1,1,0,0,0,.34.31,1,1,0,0,0,.48.11,1.06,1.06,0,0,0,.48-.11,1.24,1.24,0,0,0,.34-.31,2,2,0,0,0,.22-.44,3.18,3.18,0,0,0,.13-.51,4.6,4.6,0,0,0,.06-.52c0-.17,0-.32,0-.46s0-.29,0-.46a4.35,4.35,0,0,0-.06-.52,3.18,3.18,0,0,0-.13-.51,2,2,0,0,0-.22-.44,1.24,1.24,0,0,0-.34-.31,1.06,1.06,0,0,0-.48-.11,1,1,0,0,0-.48.11,1,1,0,0,0-.34.31,1.67,1.67,0,0,0-.23.44,4.77,4.77,0,0,0-.13.51c0,.17,0,.34-.05.52A3.78,3.78,0,0,0,256.94,78.39Z"/><path d="M260.87,76.61a1.13,1.13,0,0,1,.09-.45,1,1,0,0,1,.24-.37,1.16,1.16,0,0,1,1.62,0,1.15,1.15,0,0,1,.25.37,1.13,1.13,0,0,1,.09.45,1,1,0,0,1-.09.44,1.15,1.15,0,0,1-.25.37,1.16,1.16,0,0,1-1.62,0,1,1,0,0,1-.24-.37A1,1,0,0,1,260.87,76.61Zm.43,0a.69.69,0,0,0,.05.24.75.75,0,0,0,.15.24.6.6,0,0,0,.22.16.64.64,0,0,0,.58,0,.63.63,0,0,0,.23-.16.72.72,0,0,0,.14-.24.52.52,0,0,0,.05-.24.56.56,0,0,0-.05-.25.59.59,0,0,0-.14-.23.66.66,0,0,0-.23-.17.64.64,0,0,0-.58,0,.62.62,0,0,0-.22.17.61.61,0,0,0-.15.23A.74.74,0,0,0,261.3,76.61Z"/><path d="M40.39,192.45v0a1.42,1.42,0,0,1,.38-.13,1.84,1.84,0,0,1,.39,0,1.72,1.72,0,0,1,.68.13,1.42,1.42,0,0,1,.54.36,1.85,1.85,0,0,1,.36.57,2,2,0,0,1,.13.72,1.78,1.78,0,0,1-.15.74,1.6,1.6,0,0,1-.4.56,2,2,0,0,1-.6.35,2.4,2.4,0,0,1-1.5,0,2,2,0,0,1-.6-.35,1.6,1.6,0,0,1-.4-.56,1.78,1.78,0,0,1-.15-.74,2.24,2.24,0,0,1,.16-.86,5.19,5.19,0,0,1,.38-.74l1.5-2.39h.79Zm.59.43a1.23,1.23,0,0,0-.87.32,1.16,1.16,0,0,0-.26.38,1.31,1.31,0,0,0-.09.5,1.35,1.35,0,0,0,.09.5,1.23,1.23,0,0,0,.26.37,1,1,0,0,0,.39.24,1.32,1.32,0,0,0,1,0,1,1,0,0,0,.39-.24,1.23,1.23,0,0,0,.26-.37,1.35,1.35,0,0,0,.1-.5,1.31,1.31,0,0,0-.1-.5,1.16,1.16,0,0,0-.26-.38,1.23,1.23,0,0,0-.87-.32Z"/><path d="M43.46,192.92a7.07,7.07,0,0,1,.08-1,2.88,2.88,0,0,1,.3-.94,1.94,1.94,0,0,1,.59-.71,1.55,1.55,0,0,1,1-.27,1.6,1.6,0,0,1,1,.27,2,2,0,0,1,.59.71,3.13,3.13,0,0,1,.29.94,7.07,7.07,0,0,1,.08,1,7,7,0,0,1-.08,1,3.1,3.1,0,0,1-.29,1,2,2,0,0,1-.59.71,1.6,1.6,0,0,1-1,.27,1.55,1.55,0,0,1-1-.27,1.94,1.94,0,0,1-.59-.71,2.86,2.86,0,0,1-.3-1A7,7,0,0,1,43.46,192.92Zm.67,0c0,.14,0,.3,0,.47a4.43,4.43,0,0,0,.06.51,2.72,2.72,0,0,0,.13.51,1.51,1.51,0,0,0,.22.44,1.12,1.12,0,0,0,.34.31,1,1,0,0,0,1,0,1.12,1.12,0,0,0,.34-.31,1.83,1.83,0,0,0,.23-.44,3.81,3.81,0,0,0,.12-.51,4.43,4.43,0,0,0,.06-.51c0-.17,0-.33,0-.47s0-.29,0-.46a4.88,4.88,0,0,0-.06-.52,4.05,4.05,0,0,0-.12-.5,1.66,1.66,0,0,0-.23-.44,1,1,0,0,0-.34-.31,1,1,0,0,0-1,0,1,1,0,0,0-.34.31,1.4,1.4,0,0,0-.22.44,2.83,2.83,0,0,0-.13.5,4.88,4.88,0,0,0-.06.52C44.14,192.63,44.13,192.79,44.13,192.92Z"/><path d="M48.06,191.14a1.15,1.15,0,0,1,.33-.81,1.15,1.15,0,0,1,.37-.25,1.33,1.33,0,0,1,.45-.08,1.27,1.27,0,0,1,.44.08,1.15,1.15,0,0,1,.37.25A1.16,1.16,0,0,1,50,192a1.15,1.15,0,0,1-.37.25,1.27,1.27,0,0,1-.44.08,1.33,1.33,0,0,1-.45-.08,1.15,1.15,0,0,1-.37-.25,1.15,1.15,0,0,1-.33-.81Zm.43,0a.61.61,0,0,0,.06.25.79.79,0,0,0,.14.23.72.72,0,0,0,.22.17.73.73,0,0,0,.3.06.72.72,0,0,0,.29-.06.62.62,0,0,0,.22-.17,1.14,1.14,0,0,0,.15-.23.65.65,0,0,0,0-.5,1.14,1.14,0,0,0-.15-.23.62.62,0,0,0-.22-.17.72.72,0,0,0-.29-.06.73.73,0,0,0-.3.06.72.72,0,0,0-.22.17.79.79,0,0,0-.14.23A.61.61,0,0,0,48.49,191.14Z"/><path d="M39.15,81.22h-.67v-4.8h0l-1,.86-.4-.49,1.52-1.23h.58Z"/><path d="M41.07,80.45l2.14-2.08c.13-.12.25-.24.35-.35a2.16,2.16,0,0,0,.25-.32,1.09,1.09,0,0,0,.15-.33A1.38,1.38,0,0,0,44,77a1,1,0,0,0-.08-.4.84.84,0,0,0-.22-.3.78.78,0,0,0-.33-.19A1.05,1.05,0,0,0,43,76a1,1,0,0,0-.72.25,1.19,1.19,0,0,0-.36.65l-.72-.06a1.47,1.47,0,0,1,.21-.61,1.41,1.41,0,0,1,.39-.45,2,2,0,0,1,.53-.27,2.2,2.2,0,0,1,.64-.09,2.41,2.41,0,0,1,.67.1,2.06,2.06,0,0,1,.55.29,1.47,1.47,0,0,1,.37.48,1.6,1.6,0,0,1,.14.67,2,2,0,0,1-.09.61,2.34,2.34,0,0,1-.25.5,3.47,3.47,0,0,1-.35.43l-.41.4-1.75,1.64v0h2.89v.62H41.07Z"/><path d="M45.43,78.39a7,7,0,0,1,.07-1,3.52,3.52,0,0,1,.3-1,2,2,0,0,1,.59-.7,1.77,1.77,0,0,1,1.91,0,1.91,1.91,0,0,1,.59.7,3.52,3.52,0,0,1,.3,1,6.29,6.29,0,0,1,0,2,3.52,3.52,0,0,1-.3,1,1.91,1.91,0,0,1-.59.7,1.77,1.77,0,0,1-1.91,0,2,2,0,0,1-.59-.7,3.52,3.52,0,0,1-.3-1A7,7,0,0,1,45.43,78.39Zm.67,0c0,.14,0,.29,0,.46a4.6,4.6,0,0,0,.06.52,4.77,4.77,0,0,0,.13.51,2,2,0,0,0,.22.44,1.15,1.15,0,0,0,.35.31,1,1,0,0,0,.48.11,1.06,1.06,0,0,0,.48-.11,1.24,1.24,0,0,0,.34-.31,2,2,0,0,0,.22-.44,3.18,3.18,0,0,0,.13-.51,4.6,4.6,0,0,0,.06-.52c0-.17,0-.32,0-.46s0-.29,0-.46a4.35,4.35,0,0,0-.06-.52,3.18,3.18,0,0,0-.13-.51,2,2,0,0,0-.22-.44,1.24,1.24,0,0,0-.34-.31,1.06,1.06,0,0,0-.48-.11,1,1,0,0,0-.48.11,1.15,1.15,0,0,0-.35.31,2,2,0,0,0-.22.44,4.77,4.77,0,0,0-.13.51,4.35,4.35,0,0,0-.06.52C46.1,78.1,46.1,78.25,46.1,78.39Z"/><path d="M50,76.61a1.12,1.12,0,0,1,.08-.45,1.15,1.15,0,0,1,.25-.37,1.16,1.16,0,0,1,1.62,0,1.15,1.15,0,0,1,.25.37,1.33,1.33,0,0,1,.08.45,1.23,1.23,0,0,1-.08.44,1.15,1.15,0,0,1-.25.37,1.16,1.16,0,0,1-1.62,0,1.15,1.15,0,0,1-.25-.37A1,1,0,0,1,50,76.61Zm.43,0a.52.52,0,0,0,0,.24.72.72,0,0,0,.14.24.63.63,0,0,0,.23.16.64.64,0,0,0,.58,0,.73.73,0,0,0,.23-.16,1,1,0,0,0,.14-.24.69.69,0,0,0,.05-.24.75.75,0,0,0-.19-.48.76.76,0,0,0-.23-.17.64.64,0,0,0-.58,0,.66.66,0,0,0-.23.17.59.59,0,0,0-.14.23A.56.56,0,0,0,50.46,76.61Z"/></g><g id="numeri_fondo_tabella" data-name="numeri fondo tabella"><path d="M131.83,251.42a1.17,1.17,0,0,0-.43-.35,1.19,1.19,0,0,0-.51-.11,1.35,1.35,0,0,0-.55.11,1.08,1.08,0,0,0-.4.3,1.32,1.32,0,0,0-.23.44,1.76,1.76,0,0,0,0,1.08,1.43,1.43,0,0,0,.26.45,1.31,1.31,0,0,0,.39.3,1.27,1.27,0,0,0,.52.1,1.09,1.09,0,0,0,1-.46l.47.44a1.69,1.69,0,0,1-.64.46,2.29,2.29,0,0,1-.78.14,2.22,2.22,0,0,1-.79-.14,1.75,1.75,0,0,1-1-1,2.27,2.27,0,0,1,0-1.57,1.86,1.86,0,0,1,.39-.63,2,2,0,0,1,.61-.41,2,2,0,0,1,.79-.15,2.09,2.09,0,0,1,.79.15,1.59,1.59,0,0,1,.65.45Z"/><path d="M136.21,253.56h0a1.43,1.43,0,0,1-.55.54,1.7,1.7,0,0,1-.89.22,1.8,1.8,0,0,1-.73-.15,1.78,1.78,0,0,1-.6-.41,1.81,1.81,0,0,1-.39-.62,2.06,2.06,0,0,1-.15-.79,2,2,0,0,1,.15-.78,1.88,1.88,0,0,1,.4-.63,1.81,1.81,0,0,1,.62-.41,2.07,2.07,0,0,1,.8-.15,1.72,1.72,0,0,1,.75.17,1.78,1.78,0,0,1,.59.47h0v-2.84h.62v6h-.62Zm0-1.21a1.63,1.63,0,0,0-.09-.55,1.34,1.34,0,0,0-.27-.44,1.37,1.37,0,0,0-.42-.29,1.35,1.35,0,0,0-.55-.11,1.42,1.42,0,0,0-.55.11,1.22,1.22,0,0,0-.41.29,1.34,1.34,0,0,0-.27.44,1.56,1.56,0,0,0,0,1.1,1.25,1.25,0,0,0,.27.44,1.19,1.19,0,0,0,1,.4,1.35,1.35,0,0,0,.55-.1,1.6,1.6,0,0,0,.42-.3,1.25,1.25,0,0,0,.27-.44A1.63,1.63,0,0,0,136.21,252.35Z"/><path d="M140.1,254.57l-.5-.2,2.4-6.15.51.2Z"/><path d="M147.64,254.22H147v-4.8h0l-1,.86-.4-.49,1.52-1.23h.59Z"/><path d="M149.46,251.39a7.07,7.07,0,0,1,.08-1,3.19,3.19,0,0,1,.29-.95,2,2,0,0,1,.59-.7,1.61,1.61,0,0,1,1-.28,1.55,1.55,0,0,1,1,.28,1.91,1.91,0,0,1,.59.7,2.94,2.94,0,0,1,.3.95,6.29,6.29,0,0,1,0,2,2.94,2.94,0,0,1-.3,1,1.91,1.91,0,0,1-.59.7,1.49,1.49,0,0,1-1,.28,1.54,1.54,0,0,1-1-.28,2,2,0,0,1-.59-.7,3.19,3.19,0,0,1-.29-1A7.07,7.07,0,0,1,149.46,251.39Zm.67,0c0,.14,0,.29,0,.47a4.43,4.43,0,0,0,.06.51,4.7,4.7,0,0,0,.12.51,2,2,0,0,0,.23.44,1.12,1.12,0,0,0,.34.31,1.1,1.1,0,0,0,1,0,1.12,1.12,0,0,0,.34-.31,1.65,1.65,0,0,0,.22-.44,3.18,3.18,0,0,0,.13-.51,4.43,4.43,0,0,0,.06-.51c0-.18,0-.33,0-.47s0-.29,0-.46a4.6,4.6,0,0,0-.06-.52,3.18,3.18,0,0,0-.13-.51,1.65,1.65,0,0,0-.22-.44,1.08,1.08,0,0,0-.34-.3,1,1,0,0,0-1,0,1.08,1.08,0,0,0-.34.3,2,2,0,0,0-.23.44,4.7,4.7,0,0,0-.12.51,4.6,4.6,0,0,0-.06.52C150.14,251.1,150.13,251.25,150.13,251.39Z"/><path d="M153.91,251.39a5.85,5.85,0,0,1,.08-1,3.19,3.19,0,0,1,.29-.95,2,2,0,0,1,.59-.7,1.61,1.61,0,0,1,1-.28,1.55,1.55,0,0,1,.95.28,1.91,1.91,0,0,1,.59.7,3.2,3.2,0,0,1,.3.95,6.29,6.29,0,0,1,0,2,3.2,3.2,0,0,1-.3,1,1.91,1.91,0,0,1-.59.7,1.49,1.49,0,0,1-.95.28,1.54,1.54,0,0,1-1-.28,2,2,0,0,1-.59-.7,3.19,3.19,0,0,1-.29-1A5.85,5.85,0,0,1,153.91,251.39Zm.67,0a4,4,0,0,0,0,.47,4.43,4.43,0,0,0,.06.51,3.14,3.14,0,0,0,.12.51,1.67,1.67,0,0,0,.23.44,1,1,0,0,0,.34.31.9.9,0,0,0,.48.11,1,1,0,0,0,.48-.11,1.24,1.24,0,0,0,.34-.31,1.65,1.65,0,0,0,.22-.44,3.18,3.18,0,0,0,.13-.51,4.43,4.43,0,0,0,.06-.51c0-.18,0-.33,0-.47s0-.29,0-.46a4.6,4.6,0,0,0-.06-.52,3.18,3.18,0,0,0-.13-.51,1.65,1.65,0,0,0-.22-.44,1.21,1.21,0,0,0-.34-.3,1,1,0,0,0-.48-.12.9.9,0,0,0-.48.12,1,1,0,0,0-.34.3,1.67,1.67,0,0,0-.23.44,3.14,3.14,0,0,0-.12.51,4.6,4.6,0,0,0-.06.52A3.78,3.78,0,0,0,154.58,251.39Z"/><path d="M158.31,251.39a5.85,5.85,0,0,1,.08-1,3.19,3.19,0,0,1,.29-.95,2,2,0,0,1,.59-.7,1.61,1.61,0,0,1,1-.28,1.55,1.55,0,0,1,1,.28,1.91,1.91,0,0,1,.59.7,3.2,3.2,0,0,1,.3.95,6.29,6.29,0,0,1,0,2,3.2,3.2,0,0,1-.3,1,1.91,1.91,0,0,1-.59.7,1.49,1.49,0,0,1-1,.28,1.54,1.54,0,0,1-1-.28,2,2,0,0,1-.59-.7,3.19,3.19,0,0,1-.29-1A5.85,5.85,0,0,1,158.31,251.39Zm.67,0c0,.14,0,.29,0,.47a4.43,4.43,0,0,0,.06.51,3.14,3.14,0,0,0,.12.51,1.67,1.67,0,0,0,.23.44,1,1,0,0,0,.34.31.9.9,0,0,0,.48.11,1,1,0,0,0,.48-.11,1.24,1.24,0,0,0,.34-.31,1.65,1.65,0,0,0,.22-.44,3.18,3.18,0,0,0,.13-.51,4.43,4.43,0,0,0,.06-.51c0-.18,0-.33,0-.47s0-.29,0-.46a4.6,4.6,0,0,0-.06-.52,3.18,3.18,0,0,0-.13-.51,1.65,1.65,0,0,0-.22-.44,1.21,1.21,0,0,0-.34-.3,1,1,0,0,0-.48-.12.9.9,0,0,0-.48.12,1,1,0,0,0-.34.3,1.67,1.67,0,0,0-.23.44,3.14,3.14,0,0,0-.12.51,4.6,4.6,0,0,0-.06.52C159,251.1,159,251.25,159,251.39Z"/><path d="M165.32,248.18H166v6h-.63Z"/><path d="M167.19,251.37c0-.17,0-.33,0-.48s0-.29,0-.41h.59c0,.1,0,.2,0,.3v.32h0a.91.91,0,0,1,.18-.27,1.64,1.64,0,0,1,.28-.23,1.5,1.5,0,0,1,.36-.16,1.44,1.44,0,0,1,.43-.06,1.52,1.52,0,0,1,.51.08,1.36,1.36,0,0,1,.34.18.93.93,0,0,1,.21.24,1.64,1.64,0,0,1,.12.22,1.78,1.78,0,0,1,.48-.53,1.27,1.27,0,0,1,.71-.19,1.88,1.88,0,0,1,.67.11,1.1,1.1,0,0,1,.44.31,1.37,1.37,0,0,1,.24.5,2.59,2.59,0,0,1,.07.65v2.27h-.62V252a2.33,2.33,0,0,0,0-.37,1,1,0,0,0-.15-.33.71.71,0,0,0-.28-.23,1,1,0,0,0-.45-.09,1,1,0,0,0-.37.08,1,1,0,0,0-.31.22,1.13,1.13,0,0,0-.21.35,1.33,1.33,0,0,0-.07.45v2.16h-.63V252.1a1.62,1.62,0,0,0-.17-.88A.6.6,0,0,0,169,251a1.18,1.18,0,0,0-.52.1.88.88,0,0,0-.36.3,1.14,1.14,0,0,0-.21.46,2.1,2.1,0,0,0-.07.58v1.82h-.62Z"/><line class="cls-1" x1="38.21" y1="253" x2="46.2" y2="253"/><path d="M235.17,251a1.66,1.66,0,0,0-.63-.52,1.93,1.93,0,0,0-.79-.17,2.13,2.13,0,0,0-.87.19,2.16,2.16,0,0,0-.68.52,2.58,2.58,0,0,0-.45.75,2.69,2.69,0,0,0-.16.89,2.79,2.79,0,0,0,.16.93,2.41,2.41,0,0,0,.45.74,2,2,0,0,0,.68.5,1.92,1.92,0,0,0,.87.19,2,2,0,0,0,1.64-.8l.51.43a2.38,2.38,0,0,1-.93.75,3,3,0,0,1-1.22.24,2.85,2.85,0,0,1-1.13-.22,2.82,2.82,0,0,1-.92-.62,3,3,0,0,1-.61-.94,3.33,3.33,0,0,1-.22-1.2,3.19,3.19,0,0,1,.21-1.16,2.9,2.9,0,0,1,.6-1,3.08,3.08,0,0,1,.91-.63,3,3,0,0,1,2.27,0,2,2,0,0,1,.89.68Z"/><path d="M239,253.1l0,0a1.35,1.35,0,0,1-.37.13,2.87,2.87,0,0,1-.39,0,1.68,1.68,0,0,1-.68-.13,1.5,1.5,0,0,1-.55-.36,1.92,1.92,0,0,1-.36-.56,2.11,2.11,0,0,1-.12-.73,1.75,1.75,0,0,1,.14-.74,1.63,1.63,0,0,1,.4-.56,1.79,1.79,0,0,1,.6-.35,2.36,2.36,0,0,1,.75-.12,2.27,2.27,0,0,1,.75.12,1.94,1.94,0,0,1,.61.35,1.49,1.49,0,0,1,.39.56,1.75,1.75,0,0,1,.15.74,2.19,2.19,0,0,1,0,.46c0,.14-.07.27-.11.4a2.53,2.53,0,0,1-.18.37,3.35,3.35,0,0,1-.21.36l-1.5,2.4h-.79Zm-.6-.43a1.51,1.51,0,0,0,.48-.08,1.28,1.28,0,0,0,.39-.24,1.12,1.12,0,0,0,.26-.38,1.27,1.27,0,0,0,.1-.5,1.26,1.26,0,0,0-.1-.49,1,1,0,0,0-.26-.38,1,1,0,0,0-.39-.24,1.33,1.33,0,0,0-1,0,.88.88,0,0,0-.38.24,1.19,1.19,0,0,0-.27.38,1.26,1.26,0,0,0-.09.49,1.28,1.28,0,0,0,.09.5,1.31,1.31,0,0,0,.27.38,1.12,1.12,0,0,0,.38.24A1.51,1.51,0,0,0,238.35,252.67Z"/><path d="M240.88,252.62a7.07,7.07,0,0,1,.08-1,2.88,2.88,0,0,1,.3-.94,2,2,0,0,1,.58-.71,1.84,1.84,0,0,1,1.92,0,2,2,0,0,1,.58.71,2.88,2.88,0,0,1,.3.94,7.07,7.07,0,0,1,.08,1,7,7,0,0,1-.08,1,2.86,2.86,0,0,1-.3.95,2,2,0,0,1-.58.71,1.84,1.84,0,0,1-1.92,0,2,2,0,0,1-.58-.71,2.86,2.86,0,0,1-.3-.95A7,7,0,0,1,240.88,252.62Zm.67,0c0,.14,0,.3,0,.47a4.43,4.43,0,0,0,.06.51,2.72,2.72,0,0,0,.13.51,1.51,1.51,0,0,0,.22.44,1.12,1.12,0,0,0,.34.31,1,1,0,0,0,1,0,1.12,1.12,0,0,0,.34-.31,1.51,1.51,0,0,0,.22-.44,2.72,2.72,0,0,0,.13-.51,4.43,4.43,0,0,0,.06-.51c0-.17,0-.33,0-.47s0-.29,0-.46a4.88,4.88,0,0,0-.06-.52,2.83,2.83,0,0,0-.13-.5,1.4,1.4,0,0,0-.22-.44,1.12,1.12,0,0,0-.34-.31,1,1,0,0,0-1,0,1.12,1.12,0,0,0-.34.31,1.4,1.4,0,0,0-.22.44,2.83,2.83,0,0,0-.13.5,4.88,4.88,0,0,0-.06.52C241.56,252.33,241.55,252.49,241.55,252.62Z"/><path d="M247.78,255.8l-.51-.2,2.41-6.14.5.19Z"/><path d="M257.1,251a1.66,1.66,0,0,0-.63-.52,1.92,1.92,0,0,0-.78-.17,2.06,2.06,0,0,0-.87.19,2.16,2.16,0,0,0-.68.52,2.21,2.21,0,0,0-.45.75,2.46,2.46,0,0,0-.16.89,2.56,2.56,0,0,0,.16.93,2.2,2.2,0,0,0,.44.74,2.1,2.1,0,0,0,.68.5,2,2,0,0,0,.88.19,2,2,0,0,0,.93-.21,2,2,0,0,0,.71-.59l.5.43a2.29,2.29,0,0,1-.92.75,3,3,0,0,1-1.22.24,2.8,2.8,0,0,1-2.05-.84,2.82,2.82,0,0,1-.61-.94,3.13,3.13,0,0,1-.22-1.2,3.19,3.19,0,0,1,.21-1.16,2.75,2.75,0,0,1,.6-1,3,3,0,0,1,.91-.63,2.93,2.93,0,0,1,1.16-.23,3,3,0,0,1,1.11.21,2,2,0,0,1,.89.68Z"/><path d="M258.46,254.69l2.14-2.08.35-.36a1.75,1.75,0,0,0,.25-.32,1,1,0,0,0,.15-.32,1.46,1.46,0,0,0,0-.38,1,1,0,0,0-.08-.4.93.93,0,0,0-.22-.3,1.13,1.13,0,0,0-.73-.26,1,1,0,0,0-.71.25,1.11,1.11,0,0,0-.36.66l-.73-.07a1.91,1.91,0,0,1,.21-.61,1.28,1.28,0,0,1,.39-.44,1.77,1.77,0,0,1,.53-.27,2.25,2.25,0,0,1,.64-.09,2.09,2.09,0,0,1,.67.1,1.53,1.53,0,0,1,.55.29,1.47,1.47,0,0,1,.37.48,1.39,1.39,0,0,1,.14.66,1.91,1.91,0,0,1-.09.61,1.8,1.8,0,0,1-.25.5,2.86,2.86,0,0,1-.35.43l-.41.41-1.75,1.64h2.89v.63h-3.65Z"/><path d="M266.35,250.42l-2.26,5h-.76l2.3-5H262.9v-.63h3.45Z"/><path d="M267.26,252.62a7.07,7.07,0,0,1,.08-1,3.45,3.45,0,0,1,.3-.94,2,2,0,0,1,.59-.71,1.82,1.82,0,0,1,1.91,0,2,2,0,0,1,.59.71,3.45,3.45,0,0,1,.3.94,7,7,0,0,1,.07,1,6.92,6.92,0,0,1-.07,1,3.41,3.41,0,0,1-.3.95,2,2,0,0,1-.59.71,1.82,1.82,0,0,1-1.91,0,2,2,0,0,1-.59-.71,3.41,3.41,0,0,1-.3-.95A7,7,0,0,1,267.26,252.62Zm.68,0c0,.14,0,.3,0,.47a4.43,4.43,0,0,0,.06.51,2.72,2.72,0,0,0,.13.51,1.53,1.53,0,0,0,.23.44,1,1,0,0,0,.34.31.89.89,0,0,0,.47.12,1,1,0,0,0,.49-.12,1.08,1.08,0,0,0,.33-.31,1.53,1.53,0,0,0,.23-.44,2.72,2.72,0,0,0,.13-.51,4.43,4.43,0,0,0,.06-.51c0-.17,0-.33,0-.47s0-.29,0-.46a4.88,4.88,0,0,0-.06-.52,2.83,2.83,0,0,0-.13-.5,1.41,1.41,0,0,0-.23-.44,1.08,1.08,0,0,0-.33-.31,1,1,0,0,0-.49-.12.89.89,0,0,0-.47.12,1,1,0,0,0-.34.31,1.41,1.41,0,0,0-.23.44,2.83,2.83,0,0,0-.13.5,4.88,4.88,0,0,0-.06.52C267.94,252.33,267.94,252.49,267.94,252.62Z"/><path d="M52.87,251a1.55,1.55,0,0,0-.63-.51,1.82,1.82,0,0,0-.79-.18,2,2,0,0,0-.87.2,2.13,2.13,0,0,0-.68.51,2.58,2.58,0,0,0-.45.75,2.67,2.67,0,0,0,0,1.82,2.29,2.29,0,0,0,.45.74,1.88,1.88,0,0,0,.68.5,1.92,1.92,0,0,0,.87.19,2,2,0,0,0,.93-.21,2.07,2.07,0,0,0,.71-.58l.51.42a2.38,2.38,0,0,1-.93.75,3,3,0,0,1-1.22.24,2.85,2.85,0,0,1-1.13-.22,2.82,2.82,0,0,1-.92-.62,3,3,0,0,1-.61-.94,3.27,3.27,0,0,1-.22-1.19,3.2,3.2,0,0,1,.21-1.17,3,3,0,0,1,.6-.95,3.08,3.08,0,0,1,.91-.63,3,3,0,0,1,2.27,0,2,2,0,0,1,.89.68Z"/><path d="M54.13,252.62a7,7,0,0,1,.08-1,3.11,3.11,0,0,1,.3-1,1.94,1.94,0,0,1,.59-.71,1.55,1.55,0,0,1,.95-.27,1.6,1.6,0,0,1,1,.27,2,2,0,0,1,.59.71,3.1,3.1,0,0,1,.29,1,5.77,5.77,0,0,1,.08,1,5.85,5.85,0,0,1-.08,1,3.13,3.13,0,0,1-.29.94,2,2,0,0,1-.59.71,1.6,1.6,0,0,1-1,.27,1.55,1.55,0,0,1-.95-.27,1.94,1.94,0,0,1-.59-.71,3.14,3.14,0,0,1-.3-.94A7.07,7.07,0,0,1,54.13,252.62Zm.67,0c0,.13,0,.29,0,.46a4.88,4.88,0,0,0,.06.52,2.83,2.83,0,0,0,.13.5,1.4,1.4,0,0,0,.22.44,1.1,1.1,0,0,0,.34.31,1,1,0,0,0,.48.12.9.9,0,0,0,.48-.12.92.92,0,0,0,.34-.31,1.41,1.41,0,0,0,.23-.44,2.8,2.8,0,0,0,.12-.5,4.88,4.88,0,0,0,.06-.52,3.86,3.86,0,0,0,0-.46,3.94,3.94,0,0,0,0-.47,4.43,4.43,0,0,0-.06-.51,2.71,2.71,0,0,0-.12-.51,1.53,1.53,0,0,0-.23-.44,1,1,0,0,0-.34-.31.9.9,0,0,0-.48-.12,1,1,0,0,0-.48.12,1.24,1.24,0,0,0-.34.31,1.51,1.51,0,0,0-.22.44,2.72,2.72,0,0,0-.13.51,4.43,4.43,0,0,0-.06.51C54.81,252.32,54.8,252.48,54.8,252.62Z"/><path d="M61,255.79l-.51-.2,2.41-6.14.51.19Z"/><path d="M70.36,251a1.52,1.52,0,0,0-.64-.51,1.78,1.78,0,0,0-.78-.18,2,2,0,0,0-.87.2,2.13,2.13,0,0,0-.68.51,2.58,2.58,0,0,0-.45.75,2.51,2.51,0,0,0-.16.9,2.54,2.54,0,0,0,.16.92,2.46,2.46,0,0,0,.44.74,2.09,2.09,0,0,0,1.56.69,2,2,0,0,0,.93-.21,2.07,2.07,0,0,0,.71-.58l.5.42a2.29,2.29,0,0,1-.92.75,3,3,0,0,1-1.22.24,2.93,2.93,0,0,1-1.14-.22,2.88,2.88,0,0,1-.91-.62,3,3,0,0,1-.61-.94,3.07,3.07,0,0,1-.22-1.19,3.2,3.2,0,0,1,.21-1.17,2.84,2.84,0,0,1,.6-.95,3,3,0,0,1,.91-.63,2.93,2.93,0,0,1,1.16-.23,3,3,0,0,1,1.11.21,2,2,0,0,1,.89.68Z"/><path d="M74.2,255.45h-.68v-4.8h0l-1,.85-.4-.48,1.52-1.24h.59Z"/><path d="M76.37,251.17a1.33,1.33,0,0,1,.13-.61,1.2,1.2,0,0,1,.34-.46,1.44,1.44,0,0,1,.51-.3,1.92,1.92,0,0,1,1.28,0,1.44,1.44,0,0,1,.51.3,1.32,1.32,0,0,1,.34.46,1.48,1.48,0,0,1,.12.61,1.44,1.44,0,0,1-.06.4,1.41,1.41,0,0,1-.18.37,1.18,1.18,0,0,1-.3.29,1,1,0,0,1-.38.19h0a1.44,1.44,0,0,1,.46.19,1.35,1.35,0,0,1,.35.32,1.67,1.67,0,0,1,.23.44,1.7,1.7,0,0,1,.08.51,1.74,1.74,0,0,1-.14.69,1.46,1.46,0,0,1-.39.52,1.47,1.47,0,0,1-.57.33,2.35,2.35,0,0,1-1.42,0,1.59,1.59,0,0,1-.58-.33,1.43,1.43,0,0,1-.38-.52,1.74,1.74,0,0,1-.14-.69,1.7,1.7,0,0,1,.08-.51,1.65,1.65,0,0,1,.22-.44,1.59,1.59,0,0,1,.36-.32,1.44,1.44,0,0,1,.46-.19h0a1.18,1.18,0,0,1-.39-.19,1.33,1.33,0,0,1-.29-.29,1.41,1.41,0,0,1-.18-.37A1.16,1.16,0,0,1,76.37,251.17Zm.48,2.67a1.14,1.14,0,0,0,.09.46,1.21,1.21,0,0,0,.24.35,1.16,1.16,0,0,0,.36.23A1.13,1.13,0,0,0,78,255a1,1,0,0,0,.44-.09,1,1,0,0,0,.36-.23,1.07,1.07,0,0,0,.25-.35,1.36,1.36,0,0,0,0-.92,1.07,1.07,0,0,0-.25-.35,1,1,0,0,0-.36-.23,1,1,0,0,0-.44-.09,1.13,1.13,0,0,0-.45.09,1.16,1.16,0,0,0-.36.23,1.21,1.21,0,0,0-.24.35A1.14,1.14,0,0,0,76.85,253.84ZM77,251.2a.92.92,0,0,0,.26.67.93.93,0,0,0,.69.27.9.9,0,0,0,.68-.27,1,1,0,0,0,0-1.34.9.9,0,0,0-.68-.27.93.93,0,0,0-.69.27A.92.92,0,0,0,77,251.2Z"/><path d="M80.52,252.62a5.77,5.77,0,0,1,.08-1,3.1,3.1,0,0,1,.29-1,2,2,0,0,1,.59-.71,1.6,1.6,0,0,1,1-.27,1.55,1.55,0,0,1,1,.27,1.94,1.94,0,0,1,.59.71,3.41,3.41,0,0,1,.3,1,7,7,0,0,1,.08,1,7.07,7.07,0,0,1-.08,1,3.45,3.45,0,0,1-.3.94,1.94,1.94,0,0,1-.59.71,1.55,1.55,0,0,1-1,.27,1.6,1.6,0,0,1-1-.27,2,2,0,0,1-.59-.71,3.13,3.13,0,0,1-.29-.94A5.85,5.85,0,0,1,80.52,252.62Zm.67,0a3.86,3.86,0,0,0,0,.46c0,.17,0,.34.05.52a4.07,4.07,0,0,0,.13.5,1.41,1.41,0,0,0,.23.44.92.92,0,0,0,.34.31.9.9,0,0,0,.48.12,1,1,0,0,0,.48-.12,1.1,1.1,0,0,0,.34-.31,1.65,1.65,0,0,0,.22-.44,2.83,2.83,0,0,0,.13-.5,4.88,4.88,0,0,0,.06-.52c0-.17,0-.33,0-.46s0-.3,0-.47a4.43,4.43,0,0,0-.06-.51,2.72,2.72,0,0,0-.13-.51,1.81,1.81,0,0,0-.22-.44,1.24,1.24,0,0,0-.34-.31,1,1,0,0,0-.48-.12.9.9,0,0,0-.48.12,1,1,0,0,0-.34.31,1.53,1.53,0,0,0-.23.44,3.8,3.8,0,0,0-.13.51c0,.17,0,.34-.05.51A3.94,3.94,0,0,0,81.19,252.62Z"/><line class="cls-2" x1="214.49" y1="253.42" x2="215.03" y2="253.42"/><line class="cls-2" x1="217.76" y1="253.42" x2="218.3" y2="253.42"/><line class="cls-2" x1="221.02" y1="253.42" x2="221.56" y2="253.42"/><line class="cls-2" x1="224.29" y1="253.42" x2="224.83" y2="253.42"/><line class="cls-2" x1="227.55" y1="253.42" x2="228.09" y2="253.42"/></g><g id="Clara_F1570009"><path d="M55.55,12.83h4.39v.78H56.39V16h3.3v.78h-3.3v3.18h-.84Z"/><path d="M63.83,19.91H63v-6h0L61.7,15l-.5-.61,1.9-1.54h.73Z"/><path d="M70.53,13.61H67.64l0,1.91a1.49,1.49,0,0,1,.45-.14l.46,0a2.52,2.52,0,0,1,.93.17,2.2,2.2,0,0,1,.71.49,2.25,2.25,0,0,1,.46.74,2.6,2.6,0,0,1,.16.93,2.49,2.49,0,0,1-.18,1,2.32,2.32,0,0,1-.51.74,2.27,2.27,0,0,1-.77.48,2.78,2.78,0,0,1-1,.17,2.22,2.22,0,0,1-1.3-.35,2.43,2.43,0,0,1-.79-.94l.84-.32a1.51,1.51,0,0,0,.53.64,1.28,1.28,0,0,0,.79.25,1.53,1.53,0,0,0,.6-.12,1.29,1.29,0,0,0,.48-.33,1.64,1.64,0,0,0,.32-.51,1.78,1.78,0,0,0,.12-.67,1.67,1.67,0,0,0-.13-.69,1.59,1.59,0,0,0-.37-.51,1.79,1.79,0,0,0-.56-.31,2.17,2.17,0,0,0-.69-.1,2.43,2.43,0,0,0-.74.12,3.73,3.73,0,0,0-.7.32l.07-3.68h3.71Z"/><path d="M76.15,13.61l-2.83,6.3h-.95l2.88-6.3H71.83v-.78h4.32Z"/><path d="M77.29,16.37a7.79,7.79,0,0,1,.1-1.25,4.14,4.14,0,0,1,.37-1.19,2.53,2.53,0,0,1,.74-.88,1.93,1.93,0,0,1,1.19-.34,2,2,0,0,1,1.2.34,2.5,2.5,0,0,1,.73.88A4.14,4.14,0,0,1,82,15.12a7.86,7.86,0,0,1,0,2.5,4,4,0,0,1-.37,1.18,2.41,2.41,0,0,1-.73.88,2,2,0,0,1-1.2.35,1.93,1.93,0,0,1-1.19-.35,2.44,2.44,0,0,1-.74-.88,4,4,0,0,1-.37-1.18A7.79,7.79,0,0,1,77.29,16.37Zm.84,0c0,.17,0,.37,0,.58a4.66,4.66,0,0,0,.08.64,3.53,3.53,0,0,0,.16.64,1.9,1.9,0,0,0,.28.55,1.18,1.18,0,0,0,.42.38,1.27,1.27,0,0,0,1.2,0,1.3,1.3,0,0,0,.43-.38,2.19,2.19,0,0,0,.28-.55,4.61,4.61,0,0,0,.16-.64c0-.21.06-.43.07-.64s0-.41,0-.58,0-.37,0-.58,0-.43-.07-.65a4.85,4.85,0,0,0-.16-.63,2.19,2.19,0,0,0-.28-.55,1.45,1.45,0,0,0-.43-.39,1.36,1.36,0,0,0-1.2,0,1.31,1.31,0,0,0-.42.39,1.9,1.9,0,0,0-.28.55,3.64,3.64,0,0,0-.16.63,5,5,0,0,0-.08.65C78.14,16,78.13,16.2,78.13,16.37Z"/><path d="M82.85,16.37a7.79,7.79,0,0,1,.1-1.25,4.14,4.14,0,0,1,.37-1.19,2.53,2.53,0,0,1,.74-.88,1.93,1.93,0,0,1,1.19-.34,2,2,0,0,1,1.2.34,2.5,2.5,0,0,1,.73.88,4.14,4.14,0,0,1,.37,1.19,7.86,7.86,0,0,1,0,2.5,4,4,0,0,1-.37,1.18,2.41,2.41,0,0,1-.73.88,2,2,0,0,1-1.2.35,1.93,1.93,0,0,1-1.19-.35,2.44,2.44,0,0,1-.74-.88A4,4,0,0,1,83,17.62,7.79,7.79,0,0,1,82.85,16.37Zm.84,0c0,.17,0,.37,0,.58a4.66,4.66,0,0,0,.08.64,3.53,3.53,0,0,0,.16.64,1.9,1.9,0,0,0,.28.55,1.18,1.18,0,0,0,.42.38,1.27,1.27,0,0,0,1.2,0,1.3,1.3,0,0,0,.43-.38,2.19,2.19,0,0,0,.28-.55c.06-.21.12-.42.16-.64s.06-.43.07-.64,0-.41,0-.58,0-.37,0-.58,0-.43-.07-.65-.1-.42-.16-.63a2.19,2.19,0,0,0-.28-.55,1.45,1.45,0,0,0-.43-.39,1.36,1.36,0,0,0-1.2,0,1.31,1.31,0,0,0-.42.39,1.9,1.9,0,0,0-.28.55,3.64,3.64,0,0,0-.16.63,5,5,0,0,0-.08.65C83.7,16,83.69,16.2,83.69,16.37Z"/><path d="M88.41,16.37a7.79,7.79,0,0,1,.1-1.25,4.14,4.14,0,0,1,.37-1.19,2.53,2.53,0,0,1,.74-.88,1.93,1.93,0,0,1,1.19-.34,2,2,0,0,1,1.2.34,2.5,2.5,0,0,1,.73.88,4.14,4.14,0,0,1,.37,1.19,7.86,7.86,0,0,1,0,2.5,4,4,0,0,1-.37,1.18,2.41,2.41,0,0,1-.73.88,2,2,0,0,1-1.2.35,1.93,1.93,0,0,1-1.19-.35,2.44,2.44,0,0,1-.74-.88,4,4,0,0,1-.37-1.18A7.79,7.79,0,0,1,88.41,16.37Zm.84,0c0,.17,0,.37,0,.58a4.66,4.66,0,0,0,.08.64,3.53,3.53,0,0,0,.16.64,1.9,1.9,0,0,0,.28.55,1.18,1.18,0,0,0,.42.38,1.28,1.28,0,0,0,1.2,0,1.3,1.3,0,0,0,.43-.38,2.19,2.19,0,0,0,.28-.55,4.61,4.61,0,0,0,.16-.64c0-.21.06-.43.07-.64s0-.41,0-.58,0-.37,0-.58,0-.43-.07-.65a4.85,4.85,0,0,0-.16-.63,2.19,2.19,0,0,0-.28-.55,1.45,1.45,0,0,0-.43-.39,1.36,1.36,0,0,0-1.2,0,1.31,1.31,0,0,0-.42.39,1.9,1.9,0,0,0-.28.55,3.64,3.64,0,0,0-.16.63,5,5,0,0,0-.08.65C89.26,16,89.25,16.2,89.25,16.37Z"/><path d="M97.11,17l0,0a1.56,1.56,0,0,1-.46.16,3,3,0,0,1-.49,0,2.15,2.15,0,0,1-.85-.16,1.9,1.9,0,0,1-.68-.46,2.11,2.11,0,0,1-.45-.7,2.36,2.36,0,0,1-.16-.9,2.27,2.27,0,0,1,.18-.93,2.08,2.08,0,0,1,.5-.7,2.37,2.37,0,0,1,.76-.44,2.83,2.83,0,0,1,.93-.15,2.89,2.89,0,0,1,.94.15,2.32,2.32,0,0,1,.75.44,2.08,2.08,0,0,1,.5.7,2.27,2.27,0,0,1,.18.93,3.27,3.27,0,0,1,0,.57,2.85,2.85,0,0,1-.14.5,3.82,3.82,0,0,1-.21.46l-.27.46-1.88,3h-1Zm-.74-.53a1.73,1.73,0,0,0,.6-.11,1.36,1.36,0,0,0,.81-.77,1.52,1.52,0,0,0,.12-.62,1.56,1.56,0,0,0-.12-.62,1.49,1.49,0,0,0-.32-.48,1.44,1.44,0,0,0-.49-.3,1.85,1.85,0,0,0-1.2,0,1.31,1.31,0,0,0-.48.3,1.37,1.37,0,0,0-.33.48,1.56,1.56,0,0,0-.12.62,1.52,1.52,0,0,0,.12.62,1.33,1.33,0,0,0,.33.47,1.31,1.31,0,0,0,.48.3A1.73,1.73,0,0,0,96.37,16.43Z"/><path d="M99.15,20.66h5v.5h-5Z"/><path d="M108.89,13.61H106l0,1.91a1.49,1.49,0,0,1,.45-.14l.46,0a2.52,2.52,0,0,1,.93.17,2.2,2.2,0,0,1,.71.49,2.25,2.25,0,0,1,.46.74,2.6,2.6,0,0,1,.16.93,2.49,2.49,0,0,1-.18,1,2.32,2.32,0,0,1-.51.74,2.27,2.27,0,0,1-.77.48,2.78,2.78,0,0,1-1,.17,2.22,2.22,0,0,1-1.3-.35,2.43,2.43,0,0,1-.79-.94l.84-.32a1.51,1.51,0,0,0,.53.64,1.28,1.28,0,0,0,.79.25,1.53,1.53,0,0,0,.6-.12,1.29,1.29,0,0,0,.48-.33,1.64,1.64,0,0,0,.32-.51,1.78,1.78,0,0,0,.12-.67,1.67,1.67,0,0,0-.13-.69,1.59,1.59,0,0,0-.37-.51,1.79,1.79,0,0,0-.56-.31,2.17,2.17,0,0,0-.69-.1,2.43,2.43,0,0,0-.74.12,3.73,3.73,0,0,0-.7.32l.07-3.68h3.71Z"/><path d="M114.51,13.61l-2.83,6.3h-1l2.88-6.3h-3.42v-.78h4.32Z"/><path d="M115.33,12.83h.93l1.61,5.88h0l1.74-5.88h.94l1.73,5.88h0L124,12.83h.88l-2.08,7.08h-.91l-1.75-6h0l-1.76,6h-.92Z"/><path d="M128.49,12.83h.84v6.3h3.24v.78h-4.08Z"/><path d="M133.49,12.83h4.45v.78h-3.61v2.22h3.37v.78h-3.37v2.52h3.79v.78h-4.63Z"/><path d="M139.29,12.83H142a4,4,0,0,1,.74.08,3.64,3.64,0,0,1,.77.25,3.69,3.69,0,0,1,.75.46,3.31,3.31,0,0,1,.62.67,3.64,3.64,0,0,1,.43.91,3.9,3.9,0,0,1,.16,1.17,3.78,3.78,0,0,1-.16,1.16,3.33,3.33,0,0,1-.43.91,3.12,3.12,0,0,1-.62.68,3.25,3.25,0,0,1-.75.45,3.18,3.18,0,0,1-.77.26,4,4,0,0,1-.74.08h-2.72Zm.84,6.3h1.6a3.72,3.72,0,0,0,1.13-.16,2.32,2.32,0,0,0,1.5-1.35,3.14,3.14,0,0,0,.22-1.25,3.14,3.14,0,0,0-.22-1.25,2.26,2.26,0,0,0-1.5-1.35,3.72,3.72,0,0,0-1.13-.16h-1.6Z"/><rect class="cls-3" x="54.67" y="42.1" width="189.86" height="189.86"/><circle class="cls-4" cx="149.6" cy="136.98" r="29.16"/><path d="M154.13,172.19h-.67v-4.8h0l-1,.85-.4-.49,1.52-1.23h.58Z"/><path d="M155.8,169.35a7.07,7.07,0,0,1,.08-1,3.14,3.14,0,0,1,.3-.94,1.94,1.94,0,0,1,.59-.71,1.55,1.55,0,0,1,.95-.27,1.6,1.6,0,0,1,1,.27,2,2,0,0,1,.59.71,3.13,3.13,0,0,1,.29.94,5.85,5.85,0,0,1,.08,1,5.77,5.77,0,0,1-.08,1,3.1,3.1,0,0,1-.29,1,2,2,0,0,1-.59.71,1.6,1.6,0,0,1-1,.27,1.55,1.55,0,0,1-.95-.27,1.94,1.94,0,0,1-.59-.71,3.11,3.11,0,0,1-.3-1A7,7,0,0,1,155.8,169.35Zm.67,0c0,.14,0,.3,0,.47a4.43,4.43,0,0,0,.06.51,2.72,2.72,0,0,0,.13.51,1.51,1.51,0,0,0,.22.44,1.24,1.24,0,0,0,.34.31,1,1,0,0,0,.48.12.9.9,0,0,0,.48-.12,1.12,1.12,0,0,0,.34-.31,1.53,1.53,0,0,0,.23-.44,3.81,3.81,0,0,0,.12-.51,4.43,4.43,0,0,0,.06-.51c0-.17,0-.33,0-.47s0-.29,0-.46a4.88,4.88,0,0,0-.06-.52,4.05,4.05,0,0,0-.12-.5,1.41,1.41,0,0,0-.23-.44,1.12,1.12,0,0,0-.34-.31.9.9,0,0,0-.48-.12,1,1,0,0,0-.48.12,1.24,1.24,0,0,0-.34.31,1.4,1.4,0,0,0-.22.44,2.83,2.83,0,0,0-.13.5,4.88,4.88,0,0,0-.06.52C156.48,169.06,156.47,169.22,156.47,169.35Z"/><path d="M160.05,169.35a7.07,7.07,0,0,1,.08-1,2.88,2.88,0,0,1,.3-.94,2,2,0,0,1,.58-.71,1.84,1.84,0,0,1,1.92,0,2,2,0,0,1,.58.71,2.88,2.88,0,0,1,.3.94,7.07,7.07,0,0,1,.08,1,7,7,0,0,1-.08,1,2.86,2.86,0,0,1-.3,1,2,2,0,0,1-.58.71,1.84,1.84,0,0,1-1.92,0,2,2,0,0,1-.58-.71,2.86,2.86,0,0,1-.3-1A7,7,0,0,1,160.05,169.35Zm.67,0c0,.14,0,.3,0,.47a4.43,4.43,0,0,0,.06.51,2.72,2.72,0,0,0,.13.51,1.51,1.51,0,0,0,.22.44,1.12,1.12,0,0,0,.34.31,1,1,0,0,0,1,0,1.12,1.12,0,0,0,.34-.31,1.51,1.51,0,0,0,.22-.44,2.72,2.72,0,0,0,.13-.51,4.43,4.43,0,0,0,.06-.51c0-.17,0-.33,0-.47s0-.29,0-.46a4.88,4.88,0,0,0-.06-.52,2.83,2.83,0,0,0-.13-.5,1.4,1.4,0,0,0-.22-.44,1.12,1.12,0,0,0-.34-.31,1,1,0,0,0-1,0,1.12,1.12,0,0,0-.34.31,1.4,1.4,0,0,0-.22.44,2.83,2.83,0,0,0-.13.5,4.88,4.88,0,0,0-.06.52C160.73,169.06,160.72,169.22,160.72,169.35Z"/><circle class="cls-4" cx="149.6" cy="136.98" r="58.37"/><path d="M151.65,200.63l2.14-2.08c.13-.13.25-.24.35-.35a3.14,3.14,0,0,0,.25-.32,1.21,1.21,0,0,0,.15-.33,1.44,1.44,0,0,0,.05-.37,1,1,0,0,0-.08-.4,1,1,0,0,0-.22-.3,1.12,1.12,0,0,0-.33-.2,1.35,1.35,0,0,0-.41-.06,1.07,1.07,0,0,0-.71.24,1.26,1.26,0,0,0-.36.66l-.73-.06a1.76,1.76,0,0,1,.22-.62,1.49,1.49,0,0,1,.39-.44,1.66,1.66,0,0,1,.53-.27,2.2,2.2,0,0,1,.64-.09,2,2,0,0,1,.66.1,1.7,1.7,0,0,1,.55.29,1.5,1.5,0,0,1,.38.48,1.57,1.57,0,0,1,.14.67,1.89,1.89,0,0,1-.09.6,2.34,2.34,0,0,1-.25.5,3.75,3.75,0,0,1-.35.44c-.13.13-.27.27-.42.4l-1.74,1.64v0h2.89v.62h-3.65Z"/><path d="M155.8,198.57a7.07,7.07,0,0,1,.08-1,3.2,3.2,0,0,1,.3-.95,1.83,1.83,0,0,1,.59-.7,1.49,1.49,0,0,1,.95-.28,1.54,1.54,0,0,1,1,.28,1.92,1.92,0,0,1,.59.7,3.19,3.19,0,0,1,.29.95,6.29,6.29,0,0,1,0,2,3.19,3.19,0,0,1-.29,1,2,2,0,0,1-.59.7,1.61,1.61,0,0,1-1,.28,1.55,1.55,0,0,1-.95-.28,1.91,1.91,0,0,1-.59-.7,3.2,3.2,0,0,1-.3-1A7.07,7.07,0,0,1,155.8,198.57Zm.67,0c0,.14,0,.29,0,.46a4.88,4.88,0,0,0,.06.52,3.18,3.18,0,0,0,.13.51,1.65,1.65,0,0,0,.22.44,1.21,1.21,0,0,0,.34.3,1,1,0,0,0,.48.12.9.9,0,0,0,.48-.12,1.08,1.08,0,0,0,.34-.3,1.67,1.67,0,0,0,.23-.44,4.7,4.7,0,0,0,.12-.51A4.88,4.88,0,0,0,159,199c0-.17,0-.32,0-.46s0-.3,0-.47a4.43,4.43,0,0,0-.06-.51,4.7,4.7,0,0,0-.12-.51,1.67,1.67,0,0,0-.23-.44,1.12,1.12,0,0,0-.34-.31.9.9,0,0,0-.48-.11,1,1,0,0,0-.48.11,1.24,1.24,0,0,0-.34.31,1.65,1.65,0,0,0-.22.44,3.18,3.18,0,0,0-.13.51,4.43,4.43,0,0,0-.06.51C156.48,198.27,156.47,198.43,156.47,198.57Z"/><path d="M160.05,198.57a7.07,7.07,0,0,1,.08-1,2.94,2.94,0,0,1,.3-.95,1.9,1.9,0,0,1,.58-.7,1.79,1.79,0,0,1,1.92,0,1.9,1.9,0,0,1,.58.7,2.94,2.94,0,0,1,.3.95,6.29,6.29,0,0,1,0,2,2.94,2.94,0,0,1-.3,1,2,2,0,0,1-.58.7,1.79,1.79,0,0,1-1.92,0,2,2,0,0,1-.58-.7,2.94,2.94,0,0,1-.3-1A7.07,7.07,0,0,1,160.05,198.57Zm.67,0c0,.14,0,.29,0,.46a4.88,4.88,0,0,0,.06.52,3.18,3.18,0,0,0,.13.51,1.65,1.65,0,0,0,.22.44,1.08,1.08,0,0,0,.34.3,1,1,0,0,0,1,0,1.08,1.08,0,0,0,.34-.3,1.65,1.65,0,0,0,.22-.44,3.18,3.18,0,0,0,.13-.51,4.88,4.88,0,0,0,.06-.52c0-.17,0-.32,0-.46s0-.3,0-.47a4.43,4.43,0,0,0-.06-.51,3.18,3.18,0,0,0-.13-.51,1.65,1.65,0,0,0-.22-.44,1.12,1.12,0,0,0-.34-.31,1.1,1.1,0,0,0-1,0,1.12,1.12,0,0,0-.34.31,1.65,1.65,0,0,0-.22.44,3.18,3.18,0,0,0-.13.51,4.43,4.43,0,0,0-.06.51C160.73,198.27,160.72,198.43,160.72,198.57Z"/><circle class="cls-4" cx="149.6" cy="136.98" r="87.59"/><path d="M152.88,227.35h.21l.44,0a1.11,1.11,0,0,0,.41-.14.81.81,0,0,0,.31-.3.88.88,0,0,0,.13-.51.9.9,0,0,0-.27-.69,1,1,0,0,0-.7-.25,1.12,1.12,0,0,0-.62.16,1.07,1.07,0,0,0-.42.47l-.65-.25a1.48,1.48,0,0,1,.65-.72,2.07,2.07,0,0,1,1-.24,2.32,2.32,0,0,1,.65.1,1.73,1.73,0,0,1,.54.28,1.37,1.37,0,0,1,.36.46,1.44,1.44,0,0,1,.14.64,1.32,1.32,0,0,1-.27.81,1.34,1.34,0,0,1-.7.49v0a1.58,1.58,0,0,1,.49.17,1.38,1.38,0,0,1,.36.32,1.27,1.27,0,0,1,.23.43,1.64,1.64,0,0,1,.08.5,1.58,1.58,0,0,1-.15.71,1.38,1.38,0,0,1-.41.51,1.77,1.77,0,0,1-.59.32,2.46,2.46,0,0,1-.72.1,2.18,2.18,0,0,1-1.13-.28,1.59,1.59,0,0,1-.69-.91l.68-.23a1.21,1.21,0,0,0,.4.65,1.25,1.25,0,0,0,.74.19,1.12,1.12,0,0,0,.45-.08,1.09,1.09,0,0,0,.36-.22,1,1,0,0,0,.25-.36,1.06,1.06,0,0,0,.09-.45,1,1,0,0,0-.12-.52,1,1,0,0,0-.33-.34,1.7,1.7,0,0,0-.46-.18,3,3,0,0,0-.52,0h-.21Z"/><path d="M155.8,227.78a7.07,7.07,0,0,1,.08-1,3.3,3.3,0,0,1,.3-.95,1.91,1.91,0,0,1,.59-.7,1.55,1.55,0,0,1,.95-.28,1.61,1.61,0,0,1,1,.28,2,2,0,0,1,.59.7,3.28,3.28,0,0,1,.29.95,5.85,5.85,0,0,1,.08,1,5.77,5.77,0,0,1-.08,1,3.1,3.1,0,0,1-.29.95,1.92,1.92,0,0,1-.59.7,1.54,1.54,0,0,1-1,.28,1.49,1.49,0,0,1-.95-.28,1.83,1.83,0,0,1-.59-.7,3.11,3.11,0,0,1-.3-.95A7,7,0,0,1,155.8,227.78Zm.67,0c0,.14,0,.3,0,.47a4.43,4.43,0,0,0,.06.51,2.72,2.72,0,0,0,.13.51,1.51,1.51,0,0,0,.22.44,1.24,1.24,0,0,0,.34.31,1,1,0,0,0,.48.11.9.9,0,0,0,.48-.11,1.12,1.12,0,0,0,.34-.31,1.53,1.53,0,0,0,.23-.44,3.81,3.81,0,0,0,.12-.51,4.43,4.43,0,0,0,.06-.51c0-.17,0-.33,0-.47s0-.29,0-.46a4.88,4.88,0,0,0-.06-.52,4.7,4.7,0,0,0-.12-.51,1.67,1.67,0,0,0-.23-.44,1.08,1.08,0,0,0-.34-.3.9.9,0,0,0-.48-.12,1,1,0,0,0-.48.12,1.21,1.21,0,0,0-.34.3,1.65,1.65,0,0,0-.22.44,3.18,3.18,0,0,0-.13.51,4.88,4.88,0,0,0-.06.52C156.48,227.49,156.47,227.64,156.47,227.78Z"/><path d="M160.05,227.78a7.07,7.07,0,0,1,.08-1,3,3,0,0,1,.3-.95,2,2,0,0,1,.58-.7,1.79,1.79,0,0,1,1.92,0,2,2,0,0,1,.58.7,3,3,0,0,1,.3.95,7.07,7.07,0,0,1,.08,1,7,7,0,0,1-.08,1,2.86,2.86,0,0,1-.3.95,1.9,1.9,0,0,1-.58.7,1.79,1.79,0,0,1-1.92,0,1.9,1.9,0,0,1-.58-.7,2.86,2.86,0,0,1-.3-.95A7,7,0,0,1,160.05,227.78Zm.67,0c0,.14,0,.3,0,.47a4.43,4.43,0,0,0,.06.51,2.72,2.72,0,0,0,.13.51,1.51,1.51,0,0,0,.22.44,1.12,1.12,0,0,0,.34.31,1.1,1.1,0,0,0,1,0,1.12,1.12,0,0,0,.34-.31,1.51,1.51,0,0,0,.22-.44,2.72,2.72,0,0,0,.13-.51,4.43,4.43,0,0,0,.06-.51c0-.17,0-.33,0-.47s0-.29,0-.46a4.88,4.88,0,0,0-.06-.52,3.18,3.18,0,0,0-.13-.51,1.65,1.65,0,0,0-.22-.44,1.08,1.08,0,0,0-.34-.3,1,1,0,0,0-1,0,1.08,1.08,0,0,0-.34.3,1.65,1.65,0,0,0-.22.44,3.18,3.18,0,0,0-.13.51,4.88,4.88,0,0,0-.06.52C160.73,227.49,160.72,227.64,160.72,227.78Z"/><line class="cls-4" x1="54.67" y1="137.03" x2="244.59" y2="137.03"/><line class="cls-4" x1="149.6" y1="231.96" x2="149.6" y2="42.04"/><line class="cls-4" x1="94.85" y1="42.04" x2="204.41" y2="231.96"/><line class="cls-4" x1="94.85" y1="231.96" x2="204.41" y2="42.04"/><line class="cls-4" x1="54.67" y1="82.22" x2="244.59" y2="191.79"/><line class="cls-4" x1="54.67" y1="191.79" x2="244.59" y2="82.22"/><line class="cls-5" x1="149.6" y1="227.1" x2="151.17" y2="227.05"/><line class="cls-5" x1="151.17" y1="227.05" x2="152.73" y2="226.99"/><line class="cls-5" x1="152.73" y1="226.99" x2="154.3" y2="226.89"/><line class="cls-5" x1="154.3" y1="226.89" x2="155.87" y2="226.67"/><line class="cls-5" x1="155.87" y1="226.67" x2="157.43" y2="226.45"/><line class="cls-5" x1="157.43" y1="226.45" x2="159" y2="226.13"/><line class="cls-5" x1="159" y1="226.13" x2="160.51" y2="225.81"/><line class="cls-5" x1="160.51" y1="225.81" x2="162.02" y2="225.43"/><line class="cls-5" x1="162.02" y1="225.43" x2="163.53" y2="224.94"/><line class="cls-5" x1="163.53" y1="224.94" x2="165.05" y2="224.46"/><line class="cls-5" x1="165.05" y1="224.46" x2="166.5" y2="223.81"/><line class="cls-5" x1="166.5" y1="223.81" x2="167.96" y2="223.27"/><line class="cls-5" x1="167.96" y1="223.27" x2="169.37" y2="222.57"/><line class="cls-5" x1="169.37" y1="222.57" x2="170.77" y2="221.92"/><line class="cls-5" x1="170.77" y1="221.92" x2="172.12" y2="221.11"/><line class="cls-5" x1="172.12" y1="221.11" x2="173.52" y2="220.3"/><line class="cls-5" x1="173.52" y1="220.3" x2="174.82" y2="219.43"/><line class="cls-5" x1="174.82" y1="219.43" x2="176.12" y2="218.52"/><line class="cls-5" x1="176.12" y1="218.52" x2="177.36" y2="217.6"/><line class="cls-5" x1="177.36" y1="217.6" x2="178.55" y2="216.57"/><line class="cls-5" x1="178.55" y1="216.57" x2="179.73" y2="215.49"/><line class="cls-5" x1="179.73" y1="215.49" x2="180.87" y2="214.41"/><line class="cls-5" x1="180.87" y1="214.41" x2="182" y2="213.33"/><line class="cls-5" x1="182" y1="213.33" x2="183.03" y2="212.09"/><line class="cls-5" x1="183.03" y1="212.09" x2="184.11" y2="210.96"/><line class="cls-5" x1="184.11" y1="210.96" x2="185.08" y2="209.71"/><line class="cls-5" x1="185.08" y1="209.71" x2="186" y2="208.36"/><line class="cls-5" x1="186" y1="208.36" x2="186.86" y2="207.07"/><line class="cls-5" x1="186.86" y1="207.07" x2="187.73" y2="205.72"/><line class="cls-5" x1="187.73" y1="205.72" x2="188.48" y2="204.37"/><line class="cls-5" x1="188.48" y1="204.37" x2="189.24" y2="202.91"/><line class="cls-5" x1="189.24" y1="202.91" x2="189.94" y2="201.51"/><line class="cls-5" x1="189.94" y1="201.51" x2="190.53" y2="200.05"/><line class="cls-5" x1="190.53" y1="200.05" x2="191.18" y2="198.59"/><line class="cls-5" x1="191.18" y1="198.59" x2="191.72" y2="197.13"/><line class="cls-5" x1="191.72" y1="197.13" x2="192.15" y2="195.57"/><line class="cls-5" x1="192.15" y1="195.57" x2="192.59" y2="194.05"/><line class="cls-5" x1="192.59" y1="194.05" x2="192.96" y2="192.49"/><line class="cls-5" x1="192.96" y1="192.49" x2="193.29" y2="190.92"/><line class="cls-5" x1="193.29" y1="190.92" x2="193.56" y2="189.36"/><line class="cls-5" x1="193.56" y1="189.36" x2="193.72" y2="187.74"/><line class="cls-5" x1="193.72" y1="187.74" x2="193.94" y2="186.17"/><line class="cls-5" x1="193.94" y1="186.17" x2="193.99" y2="184.55"/><line class="cls-5" x1="193.99" y1="184.55" x2="194.04" y2="182.98"/><line class="cls-5" x1="194.04" y1="182.98" x2="193.99" y2="181.36"/><line class="cls-5" x1="193.99" y1="181.36" x2="193.94" y2="179.74"/><line class="cls-5" x1="193.94" y1="179.74" x2="193.77" y2="178.18"/><line class="cls-5" x1="193.77" y1="178.18" x2="193.61" y2="176.56"/><line class="cls-5" x1="193.61" y1="176.56" x2="193.34" y2="174.99"/><line class="cls-5" x1="193.34" y1="174.99" x2="193.02" y2="173.43"/><line class="cls-5" x1="193.02" y1="173.43" x2="192.64" y2="171.86"/><line class="cls-5" x1="192.64" y1="171.86" x2="192.26" y2="170.29"/><line class="cls-5" x1="192.26" y1="170.29" x2="191.78" y2="168.73"/><line class="cls-5" x1="191.78" y1="168.73" x2="191.24" y2="167.22"/><line class="cls-5" x1="191.24" y1="167.22" x2="190.64" y2="165.7"/><line class="cls-5" x1="190.64" y1="165.7" x2="189.99" y2="164.19"/><line class="cls-5" x1="189.99" y1="164.19" x2="189.29" y2="162.73"/><line class="cls-5" x1="189.29" y1="162.73" x2="188.54" y2="161.33"/><line class="cls-5" x1="188.54" y1="161.33" x2="187.73" y2="159.87"/><line class="cls-5" x1="187.73" y1="159.87" x2="186.86" y2="158.47"/><line class="cls-5" x1="186.86" y1="158.47" x2="185.94" y2="157.12"/><line class="cls-5" x1="185.94" y1="157.12" x2="185.03" y2="155.82"/><line class="cls-5" x1="185.03" y1="155.82" x2="184" y2="154.53"/><line class="cls-5" x1="184" y1="154.53" x2="183.03" y2="153.28"/><line class="cls-5" x1="183.03" y1="153.28" x2="181.89" y2="152.04"/><line class="cls-5" x1="181.89" y1="152.04" x2="180.76" y2="150.85"/><line class="cls-5" x1="180.76" y1="150.85" x2="179.57" y2="149.72"/><line class="cls-5" x1="179.57" y1="149.72" x2="178.38" y2="148.59"/><line class="cls-5" x1="178.38" y1="148.59" x2="177.14" y2="147.56"/><line class="cls-5" x1="177.14" y1="147.56" x2="175.85" y2="146.53"/><line class="cls-5" x1="175.85" y1="146.53" x2="174.55" y2="145.56"/><line class="cls-5" x1="174.55" y1="145.56" x2="173.25" y2="144.64"/><line class="cls-5" x1="173.25" y1="144.64" x2="171.85" y2="143.78"/><line class="cls-5" x1="171.85" y1="143.78" x2="170.5" y2="142.97"/><line class="cls-5" x1="170.5" y1="142.97" x2="169.15" y2="142.21"/><line class="cls-5" x1="169.15" y1="142.21" x2="167.75" y2="141.51"/><line class="cls-5" x1="167.75" y1="141.51" x2="166.4" y2="140.86"/><line class="cls-5" x1="166.4" y1="140.86" x2="165.05" y2="140.27"/><line class="cls-5" x1="165.05" y1="140.27" x2="163.7" y2="139.73"/><line class="cls-5" x1="163.7" y1="139.73" x2="162.4" y2="139.24"/><line class="cls-5" x1="162.4" y1="139.24" x2="161.1" y2="138.81"/><line class="cls-5" x1="161.1" y1="138.81" x2="159.86" y2="138.43"/><line class="cls-5" x1="159.86" y1="138.43" x2="158.67" y2="138.11"/><line class="cls-5" x1="158.67" y1="138.11" x2="157.59" y2="137.84"/><line class="cls-5" x1="157.59" y1="137.84" x2="156.51" y2="137.57"/><line class="cls-5" x1="156.51" y1="137.57" x2="155.6" y2="137.41"/><line class="cls-5" x1="155.6" y1="137.41" x2="154.73" y2="137.25"/><line class="cls-5" x1="154.73" y1="137.25" x2="154.03" y2="137.14"/><line class="cls-5" x1="154.03" y1="137.14" x2="153.6" y2="137.03"/><line class="cls-5" x1="153.6" y1="137.03" x2="153.27" y2="137.03"/><line class="cls-5" x1="153.27" y1="137.03" x2="153.17" y2="136.98"/><line class="cls-5" x1="153.17" y1="136.98" x2="153.11" y2="136.92"/><line class="cls-5" x1="153.11" y1="136.92" x2="153.11" y2="136.87"/><line class="cls-5" x1="153.11" y1="136.87" x2="153.11" y2="136.76"/><line class="cls-5" x1="153.11" y1="136.76" x2="153.11" y2="136.71"/><line class="cls-5" x1="153.11" y1="136.71" x2="153.06" y2="136.65"/><line class="cls-5" x1="153.06" y1="136.65" x2="153.06" y2="136.6"/><line class="cls-5" x1="153.06" y1="136.6" x2="153.06" y2="136.54"/><line class="cls-5" x1="153.06" y1="136.54" x2="153" y2="136.49"/><line class="cls-5" x1="153" y1="136.49" x2="153" y2="136.44"/><line class="cls-5" x1="153" y1="136.44" x2="152.95" y2="136.38"/><line class="cls-5" x1="152.95" y1="136.38" x2="152.95" y2="136.33"/><line class="cls-5" x1="152.95" y1="136.33" x2="152.9" y2="136.27"/><line class="cls-5" x1="152.9" y1="136.27" x2="152.9" y2="136.22"/><line class="cls-5" x1="152.9" y1="136.22" x2="152.84" y2="136.17"/><line class="cls-5" x1="152.84" y1="136.17" x2="152.84" y2="136.11"/><line class="cls-5" x1="152.84" y1="136.11" x2="152.79" y2="136.06"/><line class="cls-5" x1="152.79" y1="136.06" x2="152.73" y2="136"/><line class="cls-5" x1="152.73" y1="136" x2="152.68" y2="135.95"/><line class="cls-5" x1="152.68" y1="135.95" x2="152.68" y2="135.9"/><line class="cls-5" x1="152.68" y1="135.9" x2="152.63" y2="135.9"/><line class="cls-5" x1="152.63" y1="135.9" x2="152.57" y2="135.84"/><line class="cls-5" x1="152.57" y1="135.84" x2="152.52" y2="135.79"/><line class="cls-5" x1="152.52" y1="135.79" x2="152.52" y2="135.73"/><line class="cls-5" x1="152.52" y1="135.73" x2="152.46" y2="135.68"/><line class="cls-5" x1="152.46" y1="135.68" x2="152.41" y2="135.68"/><line class="cls-5" x1="152.41" y1="135.68" x2="152.36" y2="135.63"/><line class="cls-5" x1="152.36" y1="135.63" x2="152.3" y2="135.57"/><line class="cls-5" x1="152.3" y1="135.57" x2="152.25" y2="135.57"/><line class="cls-5" x1="152.25" y1="135.57" x2="152.19" y2="135.52"/><line class="cls-5" x1="152.19" y1="135.52" x2="152.14" y2="135.52"/><line class="cls-5" x1="152.14" y1="135.52" x2="152.09" y2="135.46"/><line class="cls-5" x1="152.09" y1="135.46" x2="152.03" y2="135.46"/><line class="cls-5" x1="152.03" y1="135.46" x2="151.98" y2="135.41"/><line class="cls-5" x1="151.98" y1="135.41" x2="151.92" y2="135.41"/><line class="cls-5" x1="151.92" y1="135.41" x2="151.87" y2="135.36"/><line class="cls-5" x1="151.87" y1="135.36" x2="151.82" y2="135.36"/><line class="cls-5" x1="151.82" y1="135.36" x2="151.76" y2="135.36"/><line class="cls-5" x1="151.76" y1="135.36" x2="151.71" y2="135.3"/><line class="cls-5" x1="151.71" y1="135.3" x2="151.65" y2="135.3"/><line class="cls-5" x1="151.65" y1="135.3" x2="151.6" y2="135.3"/><line class="cls-5" x1="151.6" y1="135.3" x2="151.55" y2="135.3"/><line class="cls-5" x1="151.55" y1="135.3" x2="151.49" y2="135.3"/><line class="cls-5" x1="151.49" y1="135.3" x2="151.44" y2="135.25"/><line class="cls-5" x1="151.44" y1="135.25" x2="151.38" y2="135.25"/><line class="cls-5" x1="151.38" y1="135.25" x2="151.33" y2="135.25"/><line class="cls-5" x1="151.33" y1="135.25" x2="151.28" y2="135.25"/><line class="cls-5" x1="151.28" y1="135.25" x2="151.22" y2="135.25"/><line class="cls-5" x1="151.22" y1="135.25" x2="151.17" y2="135.25"/><line class="cls-5" x1="151.17" y1="135.25" x2="151.06" y2="135.25"/><line class="cls-5" x1="151.06" y1="135.25" x2="151.06" y2="135.25"/><line class="cls-5" x1="151.06" y1="135.25" x2="150.95" y2="135.25"/><line class="cls-5" x1="150.95" y1="135.25" x2="150.95" y2="135.25"/><line class="cls-5" x1="150.95" y1="135.25" x2="150.9" y2="135.3"/><line class="cls-5" x1="150.9" y1="135.3" x2="150.84" y2="135.3"/><line class="cls-5" x1="150.84" y1="135.3" x2="150.79" y2="135.3"/><line class="cls-5" x1="150.79" y1="135.3" x2="150.74" y2="135.3"/><line class="cls-5" x1="150.74" y1="135.3" x2="150.68" y2="135.3"/><line class="cls-5" x1="150.68" y1="135.3" x2="150.63" y2="135.36"/><line class="cls-5" x1="150.63" y1="135.36" x2="150.57" y2="135.36"/><line class="cls-5" x1="150.57" y1="135.36" x2="150.52" y2="135.36"/><line class="cls-5" x1="150.52" y1="135.36" x2="150.47" y2="135.41"/><line class="cls-5" x1="150.47" y1="135.41" x2="150.41" y2="135.41"/><line class="cls-5" x1="150.41" y1="135.41" x2="150.36" y2="135.41"/><line class="cls-5" x1="150.36" y1="135.41" x2="150.36" y2="135.46"/><line class="cls-5" x1="150.36" y1="135.46" x2="150.3" y2="135.46"/><line class="cls-5" x1="150.3" y1="135.46" x2="150.25" y2="135.52"/><line class="cls-5" x1="150.25" y1="135.52" x2="150.2" y2="135.52"/><line class="cls-5" x1="150.2" y1="135.52" x2="150.2" y2="135.52"/><line class="cls-5" x1="150.2" y1="135.52" x2="150.14" y2="135.57"/><line class="cls-5" x1="150.14" y1="135.57" x2="150.09" y2="135.57"/><line class="cls-5" x1="150.09" y1="135.57" x2="150.09" y2="135.63"/><line class="cls-5" x1="150.09" y1="135.63" x2="150.03" y2="135.63"/><line class="cls-5" x1="150.03" y1="135.63" x2="149.98" y2="135.63"/><line class="cls-5" x1="149.98" y1="135.63" x2="149.98" y2="135.68"/><line class="cls-5" x1="149.98" y1="135.68" x2="149.93" y2="135.68"/><line class="cls-5" x1="149.93" y1="135.68" x2="149.93" y2="135.73"/><line class="cls-5" x1="149.93" y1="135.73" x2="149.87" y2="135.73"/><line class="cls-5" x1="149.87" y1="135.73" x2="149.87" y2="135.73"/><line class="cls-5" x1="149.87" y1="135.73" x2="149.82" y2="135.73"/><line class="cls-5" x1="149.82" y1="135.73" x2="149.82" y2="135.79"/><line class="cls-5" x1="149.82" y1="135.79" x2="149.76" y2="135.79"/><line class="cls-5" x1="149.76" y1="135.79" x2="149.76" y2="135.79"/><line class="cls-5" x1="149.76" y1="135.79" x2="149.71" y2="135.79"/><line class="cls-5" x1="149.71" y1="135.79" x2="149.71" y2="135.79"/><line class="cls-5" x1="149.71" y1="135.79" x2="149.71" y2="135.79"/><line class="cls-5" x1="149.71" y1="135.79" x2="149.66" y2="135.79"/><line class="cls-5" x1="149.66" y1="135.79" x2="149.66" y2="135.79"/><line class="cls-5" x1="149.66" y1="135.79" x2="149.6" y2="135.79"/><line class="cls-5" x1="149.6" y1="135.79" x2="149.6" y2="135.79"/><line class="cls-5" x1="149.6" y1="227.1" x2="148.09" y2="227.05"/><line class="cls-5" x1="148.09" y1="227.05" x2="146.52" y2="226.99"/><line class="cls-5" x1="146.52" y1="226.99" x2="144.96" y2="226.89"/><line class="cls-5" x1="144.96" y1="226.89" x2="143.39" y2="226.67"/><line class="cls-5" x1="143.39" y1="226.67" x2="141.83" y2="226.45"/><line class="cls-5" x1="141.83" y1="226.45" x2="140.26" y2="226.13"/><line class="cls-5" x1="140.26" y1="226.13" x2="138.75" y2="225.81"/><line class="cls-5" x1="138.75" y1="225.81" x2="137.24" y2="225.43"/><line class="cls-5" x1="137.24" y1="225.43" x2="135.72" y2="224.94"/><line class="cls-5" x1="135.72" y1="224.94" x2="134.21" y2="224.46"/><line class="cls-5" x1="134.21" y1="224.46" x2="132.75" y2="223.81"/><line class="cls-5" x1="132.75" y1="223.81" x2="131.3" y2="223.27"/><line class="cls-5" x1="131.3" y1="223.27" x2="129.89" y2="222.57"/><line class="cls-5" x1="129.89" y1="222.57" x2="128.49" y2="221.92"/><line class="cls-5" x1="128.49" y1="221.92" x2="127.14" y2="221.11"/><line class="cls-5" x1="127.14" y1="221.11" x2="125.73" y2="220.3"/><line class="cls-5" x1="125.73" y1="220.3" x2="124.44" y2="219.43"/><line class="cls-5" x1="124.44" y1="219.43" x2="123.14" y2="218.52"/><line class="cls-5" x1="123.14" y1="218.52" x2="121.9" y2="217.6"/><line class="cls-5" x1="121.9" y1="217.6" x2="120.71" y2="216.57"/><line class="cls-5" x1="120.71" y1="216.57" x2="119.52" y2="215.49"/><line class="cls-5" x1="119.52" y1="215.49" x2="118.39" y2="214.41"/><line class="cls-5" x1="118.39" y1="214.41" x2="117.26" y2="213.33"/><line class="cls-5" x1="117.26" y1="213.33" x2="116.23" y2="212.09"/><line class="cls-5" x1="116.23" y1="212.09" x2="115.15" y2="210.96"/><line class="cls-5" x1="115.15" y1="210.96" x2="114.18" y2="209.71"/><line class="cls-5" x1="114.18" y1="209.71" x2="113.26" y2="208.36"/><line class="cls-5" x1="113.26" y1="208.36" x2="112.4" y2="207.07"/><line class="cls-5" x1="112.4" y1="207.07" x2="111.53" y2="205.72"/><line class="cls-5" x1="111.53" y1="205.72" x2="110.78" y2="204.37"/><line class="cls-5" x1="110.78" y1="204.37" x2="110.02" y2="202.91"/><line class="cls-5" x1="110.02" y1="202.91" x2="109.32" y2="201.51"/><line class="cls-5" x1="109.32" y1="201.51" x2="108.72" y2="200.05"/><line class="cls-5" x1="108.72" y1="200.05" x2="108.08" y2="198.59"/><line class="cls-5" x1="108.08" y1="198.59" x2="107.54" y2="197.13"/><line class="cls-5" x1="107.54" y1="197.13" x2="107.1" y2="195.57"/><line class="cls-5" x1="107.1" y1="195.57" x2="106.67" y2="194.05"/><line class="cls-5" x1="106.67" y1="194.05" x2="106.29" y2="192.49"/><line class="cls-5" x1="106.29" y1="192.49" x2="105.97" y2="190.92"/><line class="cls-5" x1="105.97" y1="190.92" x2="105.7" y2="189.36"/><line class="cls-5" x1="105.7" y1="189.36" x2="105.54" y2="187.74"/><line class="cls-5" x1="105.54" y1="187.74" x2="105.32" y2="186.17"/><line class="cls-5" x1="105.32" y1="186.17" x2="105.27" y2="184.55"/><line class="cls-5" x1="105.27" y1="184.55" x2="105.21" y2="182.98"/><line class="cls-5" x1="105.21" y1="182.98" x2="105.27" y2="181.36"/><line class="cls-5" x1="105.27" y1="181.36" x2="105.32" y2="179.74"/><line class="cls-5" x1="105.32" y1="179.74" x2="105.48" y2="178.18"/><line class="cls-5" x1="105.48" y1="178.18" x2="105.65" y2="176.56"/><line class="cls-5" x1="105.65" y1="176.56" x2="105.92" y2="174.99"/><line class="cls-5" x1="105.92" y1="174.99" x2="106.24" y2="173.43"/><line class="cls-5" x1="106.24" y1="173.43" x2="106.62" y2="171.86"/><line class="cls-5" x1="106.62" y1="171.86" x2="107" y2="170.29"/><line class="cls-5" x1="107" y1="170.29" x2="107.48" y2="168.73"/><line class="cls-5" x1="107.48" y1="168.73" x2="108.02" y2="167.22"/><line class="cls-5" x1="108.02" y1="167.22" x2="108.62" y2="165.7"/><line class="cls-5" x1="108.62" y1="165.7" x2="109.26" y2="164.19"/><line class="cls-5" x1="109.26" y1="164.19" x2="109.97" y2="162.73"/><line class="cls-5" x1="109.97" y1="162.73" x2="110.72" y2="161.33"/><line class="cls-5" x1="110.72" y1="161.33" x2="111.53" y2="159.87"/><line class="cls-5" x1="111.53" y1="159.87" x2="112.4" y2="158.47"/><line class="cls-5" x1="112.4" y1="158.47" x2="113.31" y2="157.12"/><line class="cls-5" x1="113.31" y1="157.12" x2="114.23" y2="155.82"/><line class="cls-5" x1="114.23" y1="155.82" x2="115.26" y2="154.53"/><line class="cls-5" x1="115.26" y1="154.53" x2="116.23" y2="153.28"/><line class="cls-5" x1="116.23" y1="153.28" x2="117.36" y2="152.04"/><line class="cls-5" x1="117.36" y1="152.04" x2="118.5" y2="150.85"/><line class="cls-5" x1="118.5" y1="150.85" x2="119.69" y2="149.72"/><line class="cls-5" x1="119.69" y1="149.72" x2="120.87" y2="148.59"/><line class="cls-5" x1="120.87" y1="148.59" x2="122.12" y2="147.56"/><line class="cls-5" x1="122.12" y1="147.56" x2="123.41" y2="146.53"/><line class="cls-5" x1="123.41" y1="146.53" x2="124.71" y2="145.56"/><line class="cls-5" x1="124.71" y1="145.56" x2="126" y2="144.64"/><line class="cls-5" x1="126" y1="144.64" x2="127.41" y2="143.78"/><line class="cls-5" x1="127.41" y1="143.78" x2="128.76" y2="142.97"/><line class="cls-5" x1="128.76" y1="142.97" x2="130.11" y2="142.21"/><line class="cls-5" x1="130.11" y1="142.21" x2="131.51" y2="141.51"/><line class="cls-5" x1="131.51" y1="141.51" x2="132.86" y2="140.86"/><line class="cls-5" x1="132.86" y1="140.86" x2="134.21" y2="140.27"/><line class="cls-5" x1="134.21" y1="140.27" x2="135.56" y2="139.73"/><line class="cls-5" x1="135.56" y1="139.73" x2="136.86" y2="139.24"/><line class="cls-5" x1="136.86" y1="139.24" x2="138.15" y2="138.81"/><line class="cls-5" x1="138.15" y1="138.81" x2="139.4" y2="138.43"/><line class="cls-5" x1="139.4" y1="138.43" x2="140.58" y2="138.11"/><line class="cls-5" x1="140.58" y1="138.11" x2="141.66" y2="137.84"/><line class="cls-5" x1="141.66" y1="137.84" x2="142.74" y2="137.57"/><line class="cls-5" x1="142.74" y1="137.57" x2="143.66" y2="137.41"/><line class="cls-5" x1="143.66" y1="137.41" x2="144.53" y2="137.25"/><line class="cls-5" x1="144.53" y1="137.25" x2="145.23" y2="137.14"/><line class="cls-5" x1="145.23" y1="137.14" x2="145.66" y2="137.03"/><line class="cls-5" x1="145.66" y1="137.03" x2="145.98" y2="137.03"/><line class="cls-5" x1="145.98" y1="137.03" x2="146.09" y2="136.98"/><line class="cls-5" x1="146.09" y1="136.98" x2="146.15" y2="136.92"/><line class="cls-5" x1="146.15" y1="136.92" x2="146.15" y2="136.87"/><line class="cls-5" x1="146.15" y1="136.87" x2="146.15" y2="136.76"/><line class="cls-5" x1="146.15" y1="136.76" x2="146.15" y2="136.71"/><line class="cls-5" x1="146.15" y1="136.71" x2="146.2" y2="136.65"/><line class="cls-5" x1="146.2" y1="136.65" x2="146.2" y2="136.6"/><line class="cls-5" x1="146.2" y1="136.6" x2="146.2" y2="136.54"/><line class="cls-5" x1="146.2" y1="136.54" x2="146.25" y2="136.49"/><line class="cls-5" x1="146.25" y1="136.49" x2="146.25" y2="136.44"/><line class="cls-5" x1="146.25" y1="136.44" x2="146.31" y2="136.38"/><line class="cls-5" x1="146.31" y1="136.38" x2="146.31" y2="136.33"/><line class="cls-5" x1="146.31" y1="136.33" x2="146.36" y2="136.27"/><line class="cls-5" x1="146.36" y1="136.27" x2="146.36" y2="136.22"/><line class="cls-5" x1="146.36" y1="136.22" x2="146.42" y2="136.17"/><line class="cls-5" x1="146.42" y1="136.17" x2="146.42" y2="136.11"/><line class="cls-5" x1="146.42" y1="136.11" x2="146.47" y2="136.06"/><line class="cls-5" x1="146.47" y1="136.06" x2="146.52" y2="136"/><line class="cls-5" x1="146.52" y1="136" x2="146.58" y2="135.95"/><line class="cls-5" x1="146.58" y1="135.95" x2="146.58" y2="135.9"/><line class="cls-5" x1="146.58" y1="135.9" x2="146.63" y2="135.9"/><line class="cls-5" x1="146.63" y1="135.9" x2="146.69" y2="135.84"/><line class="cls-5" x1="146.69" y1="135.84" x2="146.74" y2="135.79"/><line class="cls-5" x1="146.74" y1="135.79" x2="146.74" y2="135.73"/><line class="cls-5" x1="146.74" y1="135.73" x2="146.79" y2="135.68"/><line class="cls-5" x1="146.79" y1="135.68" x2="146.85" y2="135.68"/><line class="cls-5" x1="146.85" y1="135.68" x2="146.9" y2="135.63"/><line class="cls-5" x1="146.9" y1="135.63" x2="146.96" y2="135.57"/><line class="cls-5" x1="146.96" y1="135.57" x2="147.01" y2="135.57"/><line class="cls-5" x1="147.01" y1="135.57" x2="147.06" y2="135.52"/><line class="cls-5" x1="147.06" y1="135.52" x2="147.12" y2="135.52"/><line class="cls-5" x1="147.12" y1="135.52" x2="147.17" y2="135.46"/><line class="cls-5" x1="147.17" y1="135.46" x2="147.23" y2="135.46"/><line class="cls-5" x1="147.23" y1="135.46" x2="147.28" y2="135.41"/><line class="cls-5" x1="147.28" y1="135.41" x2="147.33" y2="135.41"/><line class="cls-5" x1="147.33" y1="135.41" x2="147.39" y2="135.36"/><line class="cls-5" x1="147.39" y1="135.36" x2="147.44" y2="135.36"/><line class="cls-5" x1="147.44" y1="135.36" x2="147.5" y2="135.36"/><line class="cls-5" x1="147.5" y1="135.36" x2="147.55" y2="135.3"/><line class="cls-5" x1="147.55" y1="135.3" x2="147.6" y2="135.3"/><line class="cls-5" x1="147.6" y1="135.3" x2="147.66" y2="135.3"/><line class="cls-5" x1="147.66" y1="135.3" x2="147.71" y2="135.3"/><line class="cls-5" x1="147.71" y1="135.3" x2="147.77" y2="135.3"/><line class="cls-5" x1="147.77" y1="135.3" x2="147.82" y2="135.25"/><line class="cls-5" x1="147.82" y1="135.25" x2="147.87" y2="135.25"/><line class="cls-5" x1="147.87" y1="135.25" x2="147.93" y2="135.25"/><line class="cls-5" x1="147.93" y1="135.25" x2="147.98" y2="135.25"/><line class="cls-5" x1="147.98" y1="135.25" x2="148.04" y2="135.25"/><line class="cls-5" x1="148.04" y1="135.25" x2="148.09" y2="135.25"/><line class="cls-5" x1="148.09" y1="135.25" x2="148.2" y2="135.25"/><line class="cls-5" x1="148.2" y1="135.25" x2="148.2" y2="135.25"/><line class="cls-5" x1="148.2" y1="135.25" x2="148.31" y2="135.25"/><line class="cls-5" x1="148.31" y1="135.25" x2="148.31" y2="135.25"/><line class="cls-5" x1="148.31" y1="135.25" x2="148.36" y2="135.3"/><line class="cls-5" x1="148.36" y1="135.3" x2="148.41" y2="135.3"/><line class="cls-5" x1="148.41" y1="135.3" x2="148.47" y2="135.3"/><line class="cls-5" x1="148.47" y1="135.3" x2="148.52" y2="135.3"/><line class="cls-5" x1="148.52" y1="135.3" x2="148.58" y2="135.3"/><line class="cls-5" x1="148.58" y1="135.3" x2="148.63" y2="135.36"/><line class="cls-5" x1="148.63" y1="135.36" x2="148.68" y2="135.36"/><line class="cls-5" x1="148.68" y1="135.36" x2="148.74" y2="135.36"/><line class="cls-5" x1="148.74" y1="135.36" x2="148.79" y2="135.41"/><line class="cls-5" x1="148.79" y1="135.41" x2="148.85" y2="135.41"/><line class="cls-5" x1="148.85" y1="135.41" x2="148.9" y2="135.41"/><line class="cls-5" x1="148.9" y1="135.41" x2="148.9" y2="135.46"/><line class="cls-5" x1="148.9" y1="135.46" x2="148.95" y2="135.46"/><line class="cls-5" x1="148.95" y1="135.46" x2="149.01" y2="135.52"/><line class="cls-5" x1="149.01" y1="135.52" x2="149.06" y2="135.52"/><line class="cls-5" x1="149.06" y1="135.52" x2="149.06" y2="135.52"/><line class="cls-5" x1="149.06" y1="135.52" x2="149.12" y2="135.57"/><line class="cls-5" x1="149.12" y1="135.57" x2="149.17" y2="135.57"/><line class="cls-5" x1="149.17" y1="135.57" x2="149.17" y2="135.63"/><line class="cls-5" x1="149.17" y1="135.63" x2="149.22" y2="135.63"/><line class="cls-5" x1="149.22" y1="135.63" x2="149.28" y2="135.63"/><line class="cls-5" x1="149.28" y1="135.63" x2="149.28" y2="135.68"/><line class="cls-5" x1="149.28" y1="135.68" x2="149.33" y2="135.68"/><line class="cls-5" x1="149.33" y1="135.68" x2="149.33" y2="135.73"/><line class="cls-5" x1="149.33" y1="135.73" x2="149.39" y2="135.73"/><line class="cls-5" x1="149.39" y1="135.73" x2="149.39" y2="135.73"/><line class="cls-5" x1="149.39" y1="135.73" x2="149.44" y2="135.73"/><line class="cls-5" x1="149.44" y1="135.73" x2="149.44" y2="135.79"/><line class="cls-5" x1="149.44" y1="135.79" x2="149.49" y2="135.79"/><line class="cls-5" x1="149.49" y1="135.79" x2="149.49" y2="135.79"/><line class="cls-5" x1="149.49" y1="135.79" x2="149.55" y2="135.79"/><line class="cls-5" x1="149.55" y1="135.79" x2="149.55" y2="135.79"/><line class="cls-5" x1="149.55" y1="135.79" x2="149.55" y2="135.79"/><line class="cls-5" x1="149.55" y1="135.79" x2="149.6" y2="135.79"/><line class="cls-5" x1="149.6" y1="135.79" x2="149.6" y2="135.79"/><line class="cls-5" x1="149.6" y1="135.79" x2="149.6" y2="135.79"/><line class="cls-5" x1="149.6" y1="135.79" x2="149.6" y2="135.79"/><line class="cls-5" x1="149.6" y1="227.1" x2="149.87" y2="227.1"/><line class="cls-5" x1="151.17" y1="227.05" x2="151.17" y2="227.05"/><line class="cls-5" x1="151.17" y1="227.05" x2="151.44" y2="227.05"/><line class="cls-5" x1="152.73" y1="226.99" x2="152.73" y2="226.99"/><line class="cls-5" x1="152.73" y1="226.99" x2="153" y2="226.99"/><line class="cls-5" x1="154.3" y1="226.89" x2="154.3" y2="226.89"/><line class="cls-5" x1="154.3" y1="226.89" x2="154.52" y2="226.83"/><line class="cls-5" x1="155.81" y1="226.67" x2="155.87" y2="226.67"/><line class="cls-5" x1="155.87" y1="226.67" x2="156.08" y2="226.62"/><line class="cls-5" x1="157.38" y1="226.45" x2="157.43" y2="226.45"/><line class="cls-5" x1="157.43" y1="226.45" x2="157.59" y2="226.4"/><line class="cls-5" x1="158.84" y1="226.18" x2="159" y2="226.13"/><line class="cls-5" x1="159" y1="226.13" x2="159.05" y2="226.13"/><line class="cls-5" x1="160.29" y1="225.86" x2="160.51" y2="225.81"/><line class="cls-5" x1="161.75" y1="225.48" x2="161.97" y2="225.43"/><line class="cls-5" x1="163.16" y1="225.05" x2="163.37" y2="225"/><line class="cls-5" x1="164.56" y1="224.62" x2="164.78" y2="224.56"/><line class="cls-5" x1="165.96" y1="224.02" x2="166.18" y2="223.97"/><line class="cls-5" x1="167.31" y1="223.48" x2="167.53" y2="223.43"/><line class="cls-5" x1="168.66" y1="222.89" x2="168.88" y2="222.78"/><line class="cls-5" x1="170.01" y1="222.24" x2="170.23" y2="222.19"/><line class="cls-5" x1="171.36" y1="221.54" x2="171.58" y2="221.43"/><line class="cls-5" x1="172.66" y1="220.78" x2="172.88" y2="220.68"/><line class="cls-5" x1="173.96" y1="220.03" x2="174.17" y2="219.87"/><line class="cls-5" x1="175.25" y1="219.11" x2="175.47" y2="218.95"/><line class="cls-5" x1="176.55" y1="218.19" x2="176.76" y2="218.03"/><line class="cls-5" x1="177.79" y1="217.22" x2="177.95" y2="217.06"/><line class="cls-5" x1="178.98" y1="216.19" x2="179.14" y2="216.03"/><line class="cls-5" x1="180.11" y1="215.11" x2="180.27" y2="214.95"/><line class="cls-5" x1="181.25" y1="214.03" x2="181.41" y2="213.87"/><line class="cls-5" x1="182.33" y1="212.95" x2="182.49" y2="212.74"/><line class="cls-5" x1="183.35" y1="211.77" x2="183.51" y2="211.6"/><line class="cls-5" x1="184.38" y1="210.63" x2="184.54" y2="210.42"/><line class="cls-5" x1="185.3" y1="209.39" x2="185.46" y2="209.17"/><line class="cls-5" x1="186.16" y1="208.09" x2="186.32" y2="207.88"/><line class="cls-5" x1="187.02" y1="206.8" x2="187.19" y2="206.58"/><line class="cls-5" x1="187.83" y1="205.5" x2="187.94" y2="205.29"/><line class="cls-5" x1="188.59" y1="204.21" x2="188.7" y2="203.99"/><line class="cls-5" x1="189.29" y1="202.86" x2="189.4" y2="202.64"/><line class="cls-5" x1="189.94" y1="201.51" x2="189.94" y2="201.51"/><line class="cls-5" x1="189.94" y1="201.51" x2="190.05" y2="201.29"/><line class="cls-5" x1="190.53" y1="200.1" x2="190.53" y2="200.05"/><line class="cls-5" x1="190.53" y1="200.05" x2="190.59" y2="199.89"/><line class="cls-5" x1="191.13" y1="198.75" x2="191.18" y2="198.59"/><line class="cls-5" x1="191.18" y1="198.59" x2="191.18" y2="198.54"/><line class="cls-5" x1="191.67" y1="197.35" x2="191.72" y2="197.13"/><line class="cls-5" x1="192.05" y1="195.89" x2="192.1" y2="195.67"/><line class="cls-5" x1="192.48" y1="194.49" x2="192.53" y2="194.27"/><line class="cls-5" x1="192.86" y1="193.03" x2="192.91" y2="192.81"/><line class="cls-5" x1="193.18" y1="191.57" x2="193.23" y2="191.3"/><line class="cls-5" x1="193.45" y1="190.06" x2="193.5" y2="189.79"/><line class="cls-5" x1="193.67" y1="188.49" x2="193.67" y2="188.22"/><line class="cls-5" x1="193.83" y1="186.93" x2="193.88" y2="186.71"/><line class="cls-5" x1="193.94" y1="185.41" x2="193.99" y2="185.2"/><line class="cls-5" x1="193.99" y1="183.85" x2="194.04" y2="183.63"/><line class="cls-5" x1="194.04" y1="182.28" x2="193.99" y2="182.07"/><line class="cls-5" x1="193.99" y1="180.72" x2="193.94" y2="180.5"/><line class="cls-5" x1="193.88" y1="179.2" x2="193.83" y2="178.93"/><line class="cls-5" x1="193.72" y1="177.64" x2="193.67" y2="177.37"/><line class="cls-5" x1="193.5" y1="176.07" x2="193.5" y2="175.8"/><line class="cls-5" x1="193.23" y1="174.56" x2="193.18" y2="174.29"/><line class="cls-5" x1="192.91" y1="173.05" x2="192.86" y2="172.83"/><line class="cls-5" x1="192.59" y1="171.59" x2="192.53" y2="171.37"/><line class="cls-5" x1="192.21" y1="170.13" x2="192.15" y2="169.92"/><line class="cls-5" x1="191.78" y1="168.73" x2="191.78" y2="168.73"/><line class="cls-5" x1="191.78" y1="168.73" x2="191.72" y2="168.51"/><line class="cls-5" x1="191.29" y1="167.32" x2="191.24" y2="167.22"/><line class="cls-5" x1="191.24" y1="167.22" x2="191.18" y2="167.11"/><line class="cls-5" x1="190.75" y1="165.92" x2="190.64" y2="165.7"/><line class="cls-5" x1="190.16" y1="164.52" x2="190.05" y2="164.3"/><line class="cls-5" x1="189.51" y1="163.17" x2="189.4" y2="162.95"/><line class="cls-5" x1="188.81" y1="161.82" x2="188.7" y2="161.6"/><line class="cls-5" x1="188.05" y1="160.47" x2="187.94" y2="160.25"/><line class="cls-5" x1="187.29" y1="159.17" x2="187.19" y2="158.95"/><line class="cls-5" x1="186.48" y1="157.87" x2="186.32" y2="157.71"/><line class="cls-5" x1="185.62" y1="156.63" x2="185.46" y2="156.47"/><line class="cls-5" x1="184.7" y1="155.44" x2="184.54" y2="155.23"/><line class="cls-5" x1="183.73" y1="154.2" x2="183.57" y2="153.99"/><line class="cls-5" x1="182.76" y1="152.96" x2="182.6" y2="152.8"/><line class="cls-5" x1="181.68" y1="151.83" x2="181.52" y2="151.66"/><line class="cls-5" x1="180.6" y1="150.69" x2="180.44" y2="150.53"/><line class="cls-5" x1="179.46" y1="149.61" x2="179.3" y2="149.45"/><line class="cls-5" x1="178.33" y1="148.53" x2="178.11" y2="148.37"/><line class="cls-5" x1="177.09" y1="147.51" x2="176.87" y2="147.34"/><line class="cls-5" x1="175.85" y1="146.53" x2="175.85" y2="146.53"/><line class="cls-5" x1="175.85" y1="146.53" x2="175.63" y2="146.37"/><line class="cls-5" x1="174.6" y1="145.62" x2="174.55" y2="145.56"/><line class="cls-5" x1="174.55" y1="145.56" x2="174.39" y2="145.45"/><line class="cls-5" x1="173.36" y1="144.7" x2="173.25" y2="144.64"/><line class="cls-5" x1="173.25" y1="144.64" x2="173.15" y2="144.59"/><line class="cls-5" x1="172.07" y1="143.89" x2="171.85" y2="143.78"/><line class="cls-5" x1="170.77" y1="143.13" x2="170.55" y2="143.02"/><line class="cls-5" x1="169.47" y1="142.38" x2="169.26" y2="142.27"/><line class="cls-5" x1="168.12" y1="141.67" x2="167.91" y2="141.57"/><line class="cls-5" x1="166.77" y1="141.03" x2="166.56" y2="140.92"/><line class="cls-5" x1="165.37" y1="140.43" x2="165.15" y2="140.32"/><line class="cls-5" x1="163.97" y1="139.84" x2="163.75" y2="139.73"/><line class="cls-5" x1="162.56" y1="139.3" x2="162.4" y2="139.24"/><line class="cls-5" x1="162.4" y1="139.24" x2="162.35" y2="139.24"/><line class="cls-5" x1="161.16" y1="138.81" x2="161.1" y2="138.81"/><line class="cls-5" x1="161.1" y1="138.81" x2="160.94" y2="138.76"/><line class="cls-5" x1="159.75" y1="138.38" x2="159.54" y2="138.33"/><line class="cls-5" x1="158.3" y1="138" x2="158.08" y2="137.95"/><line class="cls-5" x1="156.84" y1="137.62" x2="156.62" y2="137.57"/><line class="cls-5" x1="155.33" y1="137.35" x2="155.11" y2="137.3"/><line class="cls-5" x1="153.81" y1="137.08" x2="153.6" y2="137.03"/><line class="cls-5" x1="152.84" y1="136.11" x2="152.84" y2="136.11"/><line class="cls-5" x1="152.84" y1="136.11" x2="152.79" y2="136.06"/><line class="cls-5" x1="152.79" y1="136.06" x2="152.73" y2="136"/><line class="cls-5" x1="152.73" y1="136" x2="152.68" y2="135.95"/><line class="cls-5" x1="151.65" y1="135.3" x2="151.65" y2="135.3"/><line class="cls-5" x1="151.65" y1="135.3" x2="151.6" y2="135.3"/><line class="cls-5" x1="151.6" y1="135.3" x2="151.55" y2="135.3"/><line class="cls-5" x1="151.55" y1="135.3" x2="151.49" y2="135.3"/><line class="cls-5" x1="151.49" y1="135.3" x2="151.44" y2="135.25"/><line class="cls-5" x1="150.2" y1="135.52" x2="150.2" y2="135.52"/><line class="cls-5" x1="150.2" y1="135.52" x2="150.2" y2="135.52"/><line class="cls-5" x1="150.2" y1="135.52" x2="150.14" y2="135.57"/><line class="cls-5" x1="150.14" y1="135.57" x2="150.09" y2="135.57"/><line class="cls-5" x1="150.09" y1="135.57" x2="150.09" y2="135.63"/><line class="cls-5" x1="150.09" y1="135.63" x2="150.03" y2="135.63"/><line class="cls-5" x1="148.79" y1="227.05" x2="148.52" y2="227.05"/><line class="cls-5" x1="147.23" y1="226.99" x2="146.96" y2="226.99"/><line class="cls-5" x1="145.66" y1="226.94" x2="145.39" y2="226.94"/><line class="cls-5" x1="144.09" y1="226.78" x2="143.88" y2="226.72"/><line class="cls-5" x1="142.58" y1="226.56" x2="142.37" y2="226.51"/><line class="cls-5" x1="141.07" y1="226.29" x2="140.85" y2="226.24"/><line class="cls-5" x1="139.61" y1="225.97" x2="139.34" y2="225.91"/><line class="cls-5" x1="138.1" y1="225.64" x2="137.88" y2="225.59"/><line class="cls-5" x1="136.64" y1="225.21" x2="136.43" y2="225.16"/><line class="cls-5" x1="135.24" y1="224.78" x2="135.02" y2="224.73"/><line class="cls-5" x1="133.83" y1="224.29" x2="133.62" y2="224.19"/><line class="cls-5" x1="132.43" y1="223.7" x2="132.21" y2="223.59"/><line class="cls-5" x1="131.03" y1="223.11" x2="130.81" y2="223"/><line class="cls-5" x1="129.68" y1="222.46" x2="129.46" y2="222.35"/><line class="cls-5" x1="128.33" y1="221.81" x2="128.11" y2="221.7"/><line class="cls-5" x1="127.03" y1="221.05" x2="126.81" y2="220.95"/><line class="cls-5" x1="125.73" y1="220.3" x2="125.73" y2="220.3"/><line class="cls-5" x1="125.73" y1="220.3" x2="125.52" y2="220.14"/><line class="cls-5" x1="124.44" y1="219.43" x2="124.44" y2="219.43"/><line class="cls-5" x1="124.44" y1="219.43" x2="124.22" y2="219.27"/><line class="cls-5" x1="123.14" y1="218.52" x2="123.14" y2="218.52"/><line class="cls-5" x1="123.14" y1="218.52" x2="122.93" y2="218.35"/><line class="cls-5" x1="121.9" y1="217.6" x2="121.9" y2="217.6"/><line class="cls-5" x1="121.9" y1="217.6" x2="121.74" y2="217.44"/><line class="cls-5" x1="120.71" y1="216.57" x2="120.71" y2="216.57"/><line class="cls-5" x1="120.71" y1="216.57" x2="120.55" y2="216.41"/><line class="cls-5" x1="119.58" y1="215.55" x2="119.52" y2="215.49"/><line class="cls-5" x1="119.52" y1="215.49" x2="119.42" y2="215.38"/><line class="cls-5" x1="118.44" y1="214.47" x2="118.39" y2="214.41"/><line class="cls-5" x1="118.39" y1="214.41" x2="118.28" y2="214.3"/><line class="cls-5" x1="117.31" y1="213.39" x2="117.26" y2="213.33"/><line class="cls-5" x1="117.26" y1="213.33" x2="117.15" y2="213.22"/><line class="cls-5" x1="116.34" y1="212.2" x2="116.23" y2="212.09"/><line class="cls-5" x1="116.23" y1="212.09" x2="116.18" y2="212.04"/><line class="cls-5" x1="115.26" y1="211.06" x2="115.15" y2="210.96"/><line class="cls-5" x1="115.15" y1="210.96" x2="115.1" y2="210.9"/><line class="cls-5" x1="114.29" y1="209.88" x2="114.18" y2="209.71"/><line class="cls-5" x1="114.18" y1="209.71" x2="114.12" y2="209.66"/><line class="cls-5" x1="113.42" y1="208.58" x2="113.26" y2="208.36"/><line class="cls-5" x1="112.56" y1="207.28" x2="112.4" y2="207.07"/><line class="cls-5" x1="111.69" y1="205.99" x2="111.59" y2="205.77"/><line class="cls-5" x1="110.94" y1="204.69" x2="110.83" y2="204.48"/><line class="cls-5" x1="110.24" y1="203.34" x2="110.13" y2="203.13"/><line class="cls-5" x1="109.53" y1="201.99" x2="109.43" y2="201.78"/><line class="cls-5" x1="108.94" y1="200.59" x2="108.83" y2="200.37"/><line class="cls-5" x1="108.35" y1="199.18" x2="108.24" y2="198.97"/><line class="cls-5" x1="107.75" y1="197.78" x2="107.7" y2="197.56"/><line class="cls-5" x1="107.32" y1="196.38" x2="107.27" y2="196.16"/><line class="cls-5" x1="106.94" y1="194.92" x2="106.83" y2="194.7"/><line class="cls-5" x1="106.51" y1="193.46" x2="106.46" y2="193.24"/><line class="cls-5" x1="106.19" y1="192" x2="106.13" y2="191.79"/><line class="cls-5" x1="105.92" y1="190.54" x2="105.86" y2="190.33"/><line class="cls-5" x1="105.65" y1="189.09" x2="105.65" y2="188.82"/><line class="cls-5" x1="105.48" y1="187.52" x2="105.48" y2="187.25"/><line class="cls-5" x1="105.32" y1="185.95" x2="105.32" y2="185.68"/><line class="cls-5" x1="105.27" y1="184.39" x2="105.27" y2="184.12"/><line class="cls-5" x1="105.21" y1="182.82" x2="105.21" y2="182.55"/><line class="cls-5" x1="105.27" y1="181.26" x2="105.27" y2="180.99"/><line class="cls-5" x1="105.32" y1="179.69" x2="105.38" y2="179.47"/><line class="cls-5" x1="105.48" y1="178.18" x2="105.48" y2="178.18"/><line class="cls-5" x1="105.48" y1="178.18" x2="105.54" y2="177.91"/><line class="cls-5" x1="105.65" y1="176.61" x2="105.65" y2="176.56"/><line class="cls-5" x1="105.65" y1="176.56" x2="105.7" y2="176.4"/><line class="cls-5" x1="105.92" y1="175.1" x2="105.92" y2="174.99"/><line class="cls-5" x1="105.92" y1="174.99" x2="105.97" y2="174.83"/><line class="cls-5" x1="106.19" y1="173.59" x2="106.24" y2="173.43"/><line class="cls-5" x1="106.24" y1="173.43" x2="106.24" y2="173.37"/><line class="cls-5" x1="106.56" y1="172.13" x2="106.62" y2="171.91"/><line class="cls-5" x1="106.89" y1="170.67" x2="106.94" y2="170.46"/><line class="cls-5" x1="107.32" y1="169.27" x2="107.37" y2="169.05"/><line class="cls-5" x1="107.81" y1="167.86" x2="107.86" y2="167.65"/><line class="cls-5" x1="108.35" y1="166.46" x2="108.4" y2="166.24"/><line class="cls-5" x1="108.89" y1="165.06" x2="108.99" y2="164.84"/><line class="cls-5" x1="109.53" y1="163.65" x2="109.64" y2="163.44"/><line class="cls-5" x1="110.18" y1="162.3" x2="110.29" y2="162.09"/><line class="cls-5" x1="110.88" y1="161.01" x2="111.05" y2="160.79"/><line class="cls-5" x1="111.64" y1="159.66" x2="111.8" y2="159.44"/><line class="cls-5" x1="112.45" y1="158.36" x2="112.61" y2="158.14"/><line class="cls-5" x1="113.37" y1="157.06" x2="113.53" y2="156.85"/><line class="cls-5" x1="114.29" y1="155.77" x2="114.45" y2="155.55"/><line class="cls-5" x1="115.26" y1="154.53" x2="115.26" y2="154.53"/><line class="cls-5" x1="115.26" y1="154.53" x2="115.42" y2="154.31"/><line class="cls-5" x1="116.23" y1="153.28" x2="116.23" y2="153.28"/><line class="cls-5" x1="116.23" y1="153.28" x2="116.39" y2="153.12"/><line class="cls-5" x1="117.26" y1="152.15" x2="117.36" y2="152.04"/><line class="cls-5" x1="117.36" y1="152.04" x2="117.42" y2="151.99"/><line class="cls-5" x1="118.34" y1="151.02" x2="118.5" y2="150.85"/><line class="cls-5" x1="119.47" y1="149.94" x2="119.63" y2="149.77"/><line class="cls-5" x1="120.6" y1="148.86" x2="120.77" y2="148.69"/><line class="cls-5" x1="121.79" y1="147.83" x2="121.95" y2="147.67"/><line class="cls-5" x1="122.98" y1="146.86" x2="123.2" y2="146.7"/><line class="cls-5" x1="124.22" y1="145.94" x2="124.38" y2="145.78"/><line class="cls-5" x1="125.46" y1="145.02" x2="125.68" y2="144.86"/><line class="cls-5" x1="126.76" y1="144.16" x2="126.98" y2="144.05"/><line class="cls-5" x1="128.06" y1="143.4" x2="128.27" y2="143.24"/><line class="cls-5" x1="129.41" y1="142.59" x2="129.62" y2="142.48"/><line class="cls-5" x1="130.76" y1="141.89" x2="130.97" y2="141.78"/><line class="cls-5" x1="132.11" y1="141.24" x2="132.32" y2="141.13"/><line class="cls-5" x1="133.46" y1="140.59" x2="133.67" y2="140.49"/><line class="cls-5" x1="134.86" y1="140" x2="135.08" y2="139.95"/><line class="cls-5" x1="136.21" y1="139.46" x2="136.43" y2="139.41"/><line class="cls-5" x1="137.61" y1="138.97" x2="137.83" y2="138.92"/><line class="cls-5" x1="139.02" y1="138.54" x2="139.23" y2="138.49"/><line class="cls-5" x1="140.48" y1="138.16" x2="140.58" y2="138.11"/><line class="cls-5" x1="140.58" y1="138.11" x2="140.69" y2="138.06"/><line class="cls-5" x1="141.93" y1="137.79" x2="142.15" y2="137.73"/><line class="cls-5" x1="143.39" y1="137.46" x2="143.61" y2="137.41"/><line class="cls-5" x1="144.85" y1="137.19" x2="145.07" y2="137.14"/><line class="cls-5" x1="146.2" y1="136.65" x2="146.2" y2="136.65"/><line class="cls-5" x1="146.2" y1="136.65" x2="146.2" y2="136.6"/><line class="cls-5" x1="146.2" y1="136.6" x2="146.2" y2="136.54"/><line class="cls-5" x1="146.2" y1="136.54" x2="146.25" y2="136.49"/><line class="cls-5" x1="146.25" y1="136.49" x2="146.25" y2="136.44"/><line class="cls-5" x1="147.12" y1="135.52" x2="147.12" y2="135.52"/><line class="cls-5" x1="147.12" y1="135.52" x2="147.17" y2="135.46"/><line class="cls-5" x1="147.17" y1="135.46" x2="147.23" y2="135.46"/><line class="cls-5" x1="147.23" y1="135.46" x2="147.28" y2="135.41"/><line class="cls-5" x1="147.28" y1="135.41" x2="147.33" y2="135.41"/><line class="cls-5" x1="148.58" y1="135.3" x2="148.58" y2="135.3"/><line class="cls-5" x1="148.58" y1="135.3" x2="148.63" y2="135.36"/><line class="cls-5" x1="148.63" y1="135.36" x2="148.68" y2="135.36"/><line class="cls-5" x1="148.68" y1="135.36" x2="148.74" y2="135.36"/><line class="cls-5" x1="148.74" y1="135.36" x2="148.79" y2="135.41"/></g></svg>