<svg id="Clessidra" xmlns="http://www.w3.org/2000/svg" viewBox="0 0 300 263"><defs><style>.cls-1,.cls-3{fill:none;stroke:#000;stroke-width:0.5px;}.cls-2{isolation:isolate;}.cls-3{stroke-linecap:round;stroke-linejoin:round;}</style></defs><title>clessidra-ceiling-wall-citterio-flos-F1583057-spech-tech-02-300x263</title><line class="cls-1" x1="116.5" y1="216.91" x2="116.5" y2="73.7"/><line class="cls-1" x1="110.03" y1="216.91" x2="122.97" y2="216.91"/><line class="cls-1" x1="110.03" y1="73.7" x2="122.97" y2="73.7"/><g class="cls-2"><path d="M107.6,166.63v7.2h-1.33l-4.59-4.51-.55-.51a4.64,4.64,0,0,0-.61-.46,3.25,3.25,0,0,0-.67-.34,2.24,2.24,0,0,0-.73-.13,2.07,2.07,0,0,0-.84.17,1.79,1.79,0,0,0-.62.47,2.13,2.13,0,0,0-.39.71,2.6,2.6,0,0,0-.14.84,2.33,2.33,0,0,0,.48,1.48,2.2,2.2,0,0,0,1.3.78l-.13,1.22a3.18,3.18,0,0,1-2-1.16,3.54,3.54,0,0,1-.72-2.24,4.64,4.64,0,0,1,.18-1.3,3.39,3.39,0,0,1,.55-1.09,2.69,2.69,0,0,1,2.21-1,3.51,3.51,0,0,1,1.2.2,4.9,4.9,0,0,1,1,.52,7,7,0,0,1,.92.73c.28.27.57.55.84.84l3.54,3.57v-6Z"/><path d="M103.85,159.05v-1.63h1.06v1.63h2.69v1.15h-2.69v4.9H103.6l-7.33-4.58v-1.47Zm-6.43,1.15v0l6.43,3.91V160.2Z"/><path d="M107.6,148.84V156h-1.33l-4.59-4.51-.55-.51a4.71,4.71,0,0,0-.61-.47,3.21,3.21,0,0,0-.67-.33,2,2,0,0,0-.73-.13,2.07,2.07,0,0,0-.84.17,1.79,1.79,0,0,0-.62.47,2.18,2.18,0,0,0-.39.7,2.66,2.66,0,0,0-.14.85,2.28,2.28,0,0,0,.48,1.47,2.17,2.17,0,0,0,1.3.79l-.13,1.21a3.14,3.14,0,0,1-2-1.16,3.49,3.49,0,0,1-.72-2.23,4.59,4.59,0,0,1,.18-1.3,3.39,3.39,0,0,1,.55-1.09,2.69,2.69,0,0,1,2.21-1,3.51,3.51,0,0,1,1.2.2,4.9,4.9,0,0,1,1,.52,7,7,0,0,1,.92.73c.28.27.57.55.84.84l3.54,3.56v-5.95Z"/><path d="M101.77,142.31c-.28,0-.55,0-.83,0l-.83,0v-1.13h1.13v0a2.56,2.56,0,0,1-1-1.07,3.05,3.05,0,0,1-.33-1.35,3.83,3.83,0,0,1,.06-.65,2.25,2.25,0,0,1,.23-.66,2.34,2.34,0,0,1,.47-.6,2.44,2.44,0,0,1,.79-.47,2.56,2.56,0,0,1-1.14-1,3.1,3.1,0,0,1,.35-3.58,3.14,3.14,0,0,1,2.16-.68h4.76v1h-4.37a3.26,3.26,0,0,0-1.75.4,1.67,1.67,0,0,0-.6,1.49,1.86,1.86,0,0,0,.23,1,1.81,1.81,0,0,0,.61.65,2.55,2.55,0,0,0,.88.36,4.17,4.17,0,0,0,1,.11h4v1.06h-4.37a3.17,3.17,0,0,0-1.75.4,1.66,1.66,0,0,0-.6,1.49,3.61,3.61,0,0,0,.06.44,1.67,1.67,0,0,0,.35.71,2.48,2.48,0,0,0,.87.66,3.48,3.48,0,0,0,1.6.3h3.84v1.05Z"/><path d="M101.77,128.68c-.28,0-.55,0-.83,0l-.83,0v-1.13h1.13v0a2.53,2.53,0,0,1-1-1.06,3.05,3.05,0,0,1-.33-1.35,3.83,3.83,0,0,1,.06-.65,2.25,2.25,0,0,1,.23-.66,2,2,0,0,1,.47-.6,2.64,2.64,0,0,1,.79-.48,2.48,2.48,0,0,1-1.14-1,2.78,2.78,0,0,1-.41-1.45,2.73,2.73,0,0,1,.76-2.13,3.09,3.09,0,0,1,2.16-.68h4.76v1h-4.37a3.17,3.17,0,0,0-1.75.4,1.66,1.66,0,0,0-.6,1.49,1.84,1.84,0,0,0,.84,1.64,3,3,0,0,0,.88.36,4.74,4.74,0,0,0,1,.11h4v1.06h-4.37a3.17,3.17,0,0,0-1.75.4,1.65,1.65,0,0,0-.6,1.49,3.61,3.61,0,0,0,.06.44,1.73,1.73,0,0,0,.35.71,2.61,2.61,0,0,0,.87.66,3.48,3.48,0,0,0,1.6.3h3.84v1.05Z"/></g><line class="cls-1" x1="169.33" y1="225.9" x2="131.54" y2="225.9"/><line class="cls-1" x1="169.33" y1="226.44" x2="169.33" y2="225.33"/><line class="cls-1" x1="131.54" y1="226.44" x2="131.54" y2="225.33"/><g class="cls-2"><path d="M135.47,234.37l-4,10.27h-1.13l4.06-10.27h-4.81v-1.05h5.86Z"/><path d="M139.29,238.18l0,0a1.67,1.67,0,0,1,.63-.29,3.39,3.39,0,0,1,.74-.09,2.83,2.83,0,0,1,1.19.26,3,3,0,0,1,1,.73,3.42,3.42,0,0,1,.64,1.1,4.25,4.25,0,0,1,.23,1.41,4.09,4.09,0,0,1-.24,1.43,3.32,3.32,0,0,1-.67,1.1,3.05,3.05,0,0,1-1,.72,3.15,3.15,0,0,1-1.28.26,3.18,3.18,0,0,1-1.28-.26,3.05,3.05,0,0,1-1-.72,3.32,3.32,0,0,1-.67-1.1,4.09,4.09,0,0,1-.24-1.43,4.85,4.85,0,0,1,.25-1.65,9.88,9.88,0,0,1,.6-1.39l2.67-5H142Zm-1,3.15a2.82,2.82,0,0,0,.16,1,2.31,2.31,0,0,0,.45.78,1.92,1.92,0,0,0,.7.5,2.18,2.18,0,0,0,.89.18,2.14,2.14,0,0,0,.89-.18,1.84,1.84,0,0,0,.7-.5,2.16,2.16,0,0,0,.45-.78,2.82,2.82,0,0,0,.16-1,2.86,2.86,0,0,0-.16-1,2.12,2.12,0,0,0-.45-.77,2.08,2.08,0,0,0-.7-.5,2.15,2.15,0,0,0-.89-.19,2.17,2.17,0,0,0-1.59.69,2.27,2.27,0,0,0-.45.77A2.86,2.86,0,0,0,138.29,241.33Z"/><path d="M149.25,238.82c0-.28,0-.55,0-.83s0-.56,0-.83h1v1.13h0a2.23,2.23,0,0,1,.93-1,2.41,2.41,0,0,1,1.18-.34,3,3,0,0,1,.56.07,1.86,1.86,0,0,1,1.1.7,2.44,2.44,0,0,1,.41.79,2.47,2.47,0,0,1,.89-1.14,2.19,2.19,0,0,1,1.26-.42,2.24,2.24,0,0,1,1.86.76,3.44,3.44,0,0,1,.6,2.17v4.75h-.92v-4.36a3.61,3.61,0,0,0-.35-1.75,1.38,1.38,0,0,0-1.3-.61,1.48,1.48,0,0,0-.86.24,1.76,1.76,0,0,0-.57.61,3,3,0,0,0-.31.87,4.9,4.9,0,0,0-.1,1v4h-.92v-4.36a3.61,3.61,0,0,0-.35-1.75,1.37,1.37,0,0,0-1.3-.61l-.38.07a1.36,1.36,0,0,0-.62.35,2.44,2.44,0,0,0-.58.86,4.07,4.07,0,0,0-.26,1.6v3.84h-.92Z"/><path d="M161.14,238.82c0-.28,0-.55,0-.83s0-.56-.05-.83h1v1.13h0a2.35,2.35,0,0,1,.93-1,2.44,2.44,0,0,1,1.18-.34,3,3,0,0,1,.57.07,1.75,1.75,0,0,1,.57.23,1.93,1.93,0,0,1,.53.47,2.66,2.66,0,0,1,.41.79,2.41,2.41,0,0,1,.89-1.14,2.16,2.16,0,0,1,1.26-.42,2.24,2.24,0,0,1,1.85.76,3.44,3.44,0,0,1,.6,2.17v4.75H170v-4.36a3.5,3.5,0,0,0-.35-1.75,1.36,1.36,0,0,0-1.29-.61,1.49,1.49,0,0,0-.87.24,1.73,1.73,0,0,0-.56.61,3,3,0,0,0-.32.87,5.69,5.69,0,0,0-.1,1v4h-.92v-4.36a3.62,3.62,0,0,0-.34-1.75,1.39,1.39,0,0,0-1.3-.61,3.31,3.31,0,0,0-.39.07,1.41,1.41,0,0,0-.62.35,2.57,2.57,0,0,0-.57.86,3.89,3.89,0,0,0-.26,1.6v3.84h-.92Z"/></g><line class="cls-3" x1="164.62" y1="145.3" x2="164.62" y2="145.3"/><line class="cls-3" x1="135.29" y1="141.61" x2="131.1" y2="73.03"/><line class="cls-3" x1="131.1" y1="217.58" x2="131.1" y2="217.58"/><line class="cls-3" x1="135.38" y1="145.3" x2="135.38" y2="145.3"/><line class="cls-3" x1="168.9" y1="217.58" x2="168.9" y2="217.58"/><polyline class="cls-3" points="164.62 145.3 164.66 147.17 164.75 149"/><line class="cls-3" x1="168.9" y1="73.03" x2="164.75" y2="141.61"/><line class="cls-3" x1="131.1" y1="73.03" x2="146.71" y2="73.03"/><polyline class="cls-3" points="135.38 145.3 135.38 143.43 135.29 141.61"/><polyline class="cls-3" points="164.75 141.61 164.66 143.43 164.62 145.3"/><line class="cls-3" x1="168.9" y1="73.03" x2="168.9" y2="73.03"/><line class="cls-3" x1="131.1" y1="217.58" x2="150.02" y2="217.58"/><line class="cls-3" x1="168.9" y1="217.58" x2="153.59" y2="217.58"/><line class="cls-3" x1="164.75" y1="149" x2="168.9" y2="217.58"/><line class="cls-3" x1="150.02" y1="73.03" x2="146.71" y2="73.03"/><line class="cls-3" x1="131.1" y1="217.58" x2="135.29" y2="149"/><line class="cls-3" x1="131.1" y1="73.03" x2="131.1" y2="73.03"/><line class="cls-3" x1="168.9" y1="73.03" x2="150.02" y2="73.03"/><polyline class="cls-3" points="135.29 149 135.38 147.17 135.38 145.3"/><line class="cls-3" x1="150.02" y1="217.58" x2="153.59" y2="217.58"/><line class="cls-3" x1="164.66" y1="148.03" x2="164.66" y2="148.03"/><line class="cls-3" x1="135.38" y1="148.03" x2="135.38" y2="146.26"/></svg>