<svg xmlns="http://www.w3.org/2000/svg" viewBox="0 0 300 263"><defs><style>.cls-1,.cls-2,.cls-3,.cls-4,.cls-5{fill:none;stroke-linecap:round;}.cls-1,.cls-2,.cls-5{stroke:red;}.cls-1,.cls-2,.cls-4,.cls-5{stroke-linejoin:round;}.cls-1{stroke-width:0.6px;}.cls-3,.cls-4{stroke:#000;}.cls-3{stroke-miterlimit:10;}.cls-3,.cls-4,.cls-5{stroke-width:0.5px;}</style></defs><title>copycat-table-anastassiades-flos-F19520-curva_fotometrica-01</title><g id="numeri_esterni_diagramma" data-name="numeri esterni diagramma"><path d="M249.93,137.18h0a1.24,1.24,0,0,1-.37.12,1.84,1.84,0,0,1-.39,0,1.91,1.91,0,0,1-.68-.12,1.58,1.58,0,0,1-.54-.37,1.63,1.63,0,0,1-.36-.56,2.05,2.05,0,0,1-.13-.72,1.79,1.79,0,0,1,.15-.75,1.48,1.48,0,0,1,.4-.55,1.79,1.79,0,0,1,.6-.35,2,2,0,0,1,.75-.13,2.11,2.11,0,0,1,.75.13,1.79,1.79,0,0,1,.6.35,1.59,1.59,0,0,1,.4.55,1.79,1.79,0,0,1,.14.75,2.15,2.15,0,0,1,0,.45,1.68,1.68,0,0,1-.11.4,2.59,2.59,0,0,1-.17.38l-.21.36-1.51,2.39h-.78Zm-.59-.42a1.28,1.28,0,0,0,.48-.09,1,1,0,0,0,.39-.24,1.23,1.23,0,0,0,.26-.37,1.43,1.43,0,0,0,0-1,1.1,1.1,0,0,0-.65-.62,1.48,1.48,0,0,0-1,0,1.28,1.28,0,0,0-.39.24,1.12,1.12,0,0,0-.26.38,1.3,1.3,0,0,0,0,1,1.08,1.08,0,0,0,.26.37,1,1,0,0,0,.39.24A1.28,1.28,0,0,0,249.34,136.76Z"/><path d="M251.82,136.71a7.07,7.07,0,0,1,.08-1,3.19,3.19,0,0,1,.29-1,2,2,0,0,1,.59-.7,1.54,1.54,0,0,1,1-.28,1.49,1.49,0,0,1,.95.28,1.91,1.91,0,0,1,.59.7,2.94,2.94,0,0,1,.3,1,6.29,6.29,0,0,1,0,2,2.94,2.94,0,0,1-.3.95,1.91,1.91,0,0,1-.59.7,1.49,1.49,0,0,1-.95.28,1.54,1.54,0,0,1-1-.28,2,2,0,0,1-.59-.7,3.19,3.19,0,0,1-.29-.95A7.07,7.07,0,0,1,251.82,136.71Zm.67,0c0,.14,0,.29,0,.46a4.6,4.6,0,0,0,.06.52,4.7,4.7,0,0,0,.12.51,2,2,0,0,0,.23.44,1,1,0,0,0,.34.31,1,1,0,0,0,.48.11,1.06,1.06,0,0,0,.48-.11,1.24,1.24,0,0,0,.34-.31,1.65,1.65,0,0,0,.22-.44,3.18,3.18,0,0,0,.13-.51,4.6,4.6,0,0,0,.06-.52c0-.17,0-.32,0-.46s0-.29,0-.46a4.6,4.6,0,0,0-.06-.52,3.18,3.18,0,0,0-.13-.51,1.65,1.65,0,0,0-.22-.44,1.24,1.24,0,0,0-.34-.31,1.06,1.06,0,0,0-.48-.11,1,1,0,0,0-.48.11,1,1,0,0,0-.34.31,2,2,0,0,0-.23.44,4.7,4.7,0,0,0-.12.51,4.6,4.6,0,0,0-.06.52C252.5,136.42,252.49,136.57,252.49,136.71Z"/><path d="M256.42,134.93a1.13,1.13,0,0,1,.09-.45,1.31,1.31,0,0,1,.24-.37,1.18,1.18,0,0,1,.37-.24,1,1,0,0,1,.44-.09,1.13,1.13,0,0,1,.45.09,1.06,1.06,0,0,1,.61.61,1.13,1.13,0,0,1,.09.45,1,1,0,0,1-.09.44,1.06,1.06,0,0,1-.61.61,1.13,1.13,0,0,1-.45.09,1,1,0,0,1-.44-.09,1.18,1.18,0,0,1-.37-.24,1.31,1.31,0,0,1-.24-.37A1,1,0,0,1,256.42,134.93Zm.43,0a.69.69,0,0,0,0,.24,1,1,0,0,0,.15.24.73.73,0,0,0,.51.23.54.54,0,0,0,.29-.07.63.63,0,0,0,.23-.16.72.72,0,0,0,.14-.24.52.52,0,0,0,0-.24.56.56,0,0,0,0-.25.59.59,0,0,0-.14-.23.74.74,0,0,0-.52-.24.73.73,0,0,0-.29.07.62.62,0,0,0-.22.17.76.76,0,0,0-.15.23A.74.74,0,0,0,256.85,134.93Z"/><path d="M41.57,137.18h0a1.34,1.34,0,0,1-.37.12,2,2,0,0,1-.39,0,1.92,1.92,0,0,1-.69-.12,1.58,1.58,0,0,1-.54-.37,1.8,1.8,0,0,1-.36-.56,2.05,2.05,0,0,1-.13-.72,1.79,1.79,0,0,1,.15-.75,1.48,1.48,0,0,1,.4-.55,1.79,1.79,0,0,1,.6-.35,2.23,2.23,0,0,1,1.5,0,1.79,1.79,0,0,1,.6.35,1.48,1.48,0,0,1,.4.55,1.79,1.79,0,0,1,.15.75,3.14,3.14,0,0,1,0,.45,2.34,2.34,0,0,1-.12.4,1.84,1.84,0,0,1-.17.38,3.35,3.35,0,0,1-.21.36l-1.5,2.39h-.79Zm-.59-.42a1.28,1.28,0,0,0,.48-.09,1,1,0,0,0,.39-.24,1.23,1.23,0,0,0,.26-.37,1.3,1.3,0,0,0,0-1,1.1,1.1,0,0,0-.65-.62,1.48,1.48,0,0,0-1,0,1.1,1.1,0,0,0-.65.62,1.43,1.43,0,0,0,0,1,1.23,1.23,0,0,0,.26.37,1,1,0,0,0,.39.24A1.28,1.28,0,0,0,41,136.76Z"/><path d="M43.46,136.71a7.07,7.07,0,0,1,.08-1,2.94,2.94,0,0,1,.3-1,1.91,1.91,0,0,1,.59-.7,1.49,1.49,0,0,1,1-.28,1.54,1.54,0,0,1,1,.28,2,2,0,0,1,.59.7,3.19,3.19,0,0,1,.29,1,6.29,6.29,0,0,1,0,2,3.19,3.19,0,0,1-.29.95,2,2,0,0,1-.59.7,1.54,1.54,0,0,1-1,.28,1.49,1.49,0,0,1-1-.28,1.91,1.91,0,0,1-.59-.7,2.94,2.94,0,0,1-.3-.95A7.07,7.07,0,0,1,43.46,136.71Zm.67,0c0,.14,0,.29,0,.46a4.6,4.6,0,0,0,.06.52,3.18,3.18,0,0,0,.13.51,1.65,1.65,0,0,0,.22.44,1.12,1.12,0,0,0,.34.31,1.1,1.1,0,0,0,1,0,1.12,1.12,0,0,0,.34-.31,2,2,0,0,0,.23-.44,4.7,4.7,0,0,0,.12-.51,4.6,4.6,0,0,0,.06-.52c0-.17,0-.32,0-.46s0-.29,0-.46a4.6,4.6,0,0,0-.06-.52,4.7,4.7,0,0,0-.12-.51,2,2,0,0,0-.23-.44,1.12,1.12,0,0,0-.34-.31,1.1,1.1,0,0,0-1,0,1.12,1.12,0,0,0-.34.31,1.65,1.65,0,0,0-.22.44,3.18,3.18,0,0,0-.13.51,4.6,4.6,0,0,0-.06.52C44.14,136.42,44.13,136.57,44.13,136.71Z"/><path d="M48.06,134.93a1.13,1.13,0,0,1,.09-.45,1.06,1.06,0,0,1,.61-.61,1.13,1.13,0,0,1,.45-.09,1.08,1.08,0,0,1,.44.09,1.06,1.06,0,0,1,.61.61,1.13,1.13,0,0,1,.09.45,1,1,0,0,1-.09.44,1.06,1.06,0,0,1-.61.61,1.08,1.08,0,0,1-.44.09,1.13,1.13,0,0,1-.45-.09,1.06,1.06,0,0,1-.61-.61A1,1,0,0,1,48.06,134.93Zm.43,0a.53.53,0,0,0,.06.24.72.72,0,0,0,.14.24.69.69,0,0,0,.22.16.6.6,0,0,0,.3.07.73.73,0,0,0,.51-.23,1,1,0,0,0,.15-.24.69.69,0,0,0,.05-.24.74.74,0,0,0-.05-.25.76.76,0,0,0-.15-.23.62.62,0,0,0-.22-.17.73.73,0,0,0-.29-.07.73.73,0,0,0-.3.07.72.72,0,0,0-.22.17.59.59,0,0,0-.14.23A.57.57,0,0,0,48.49,134.93Z"/><path d="M148.37,38.51h-.68v-4.8h0l-1,.85-.4-.48,1.52-1.24h.59Z"/><path d="M150.49,34.23a1.48,1.48,0,0,1,.13-.61,1.2,1.2,0,0,1,.34-.46,1.44,1.44,0,0,1,.51-.3,1.92,1.92,0,0,1,1.28,0,1.44,1.44,0,0,1,.51.3,1.2,1.2,0,0,1,.34.46,1.33,1.33,0,0,1,.13.61,1.16,1.16,0,0,1-.07.4,1.41,1.41,0,0,1-.18.37,1.33,1.33,0,0,1-.29.29,1.18,1.18,0,0,1-.39.19h0a1.44,1.44,0,0,1,.46.19,1.35,1.35,0,0,1,.35.32,1.42,1.42,0,0,1,.23.44,1.7,1.7,0,0,1,.08.51,1.74,1.74,0,0,1-.14.69,1.43,1.43,0,0,1-.39.52,1.47,1.47,0,0,1-.57.33,2.35,2.35,0,0,1-1.42,0,1.47,1.47,0,0,1-.57-.33,1.55,1.55,0,0,1-.39-.52,1.74,1.74,0,0,1-.14-.69,1.7,1.7,0,0,1,.08-.51,1.67,1.67,0,0,1,.23-.44,1.35,1.35,0,0,1,.35-.32,1.44,1.44,0,0,1,.46-.19h0a1.18,1.18,0,0,1-.39-.19,1.33,1.33,0,0,1-.29-.29,1.41,1.41,0,0,1-.18-.37A1.46,1.46,0,0,1,150.49,34.23ZM151,36.9a1.18,1.18,0,0,0,.09.46,1.07,1.07,0,0,0,.25.35,1,1,0,0,0,.36.23,1.12,1.12,0,0,0,.88,0,1,1,0,0,0,.36-.23,1.07,1.07,0,0,0,.25-.35,1.18,1.18,0,0,0,.09-.46,1.14,1.14,0,0,0-.09-.46,1.13,1.13,0,0,0-.61-.58,1.12,1.12,0,0,0-.88,0,1.13,1.13,0,0,0-.61.58A1.14,1.14,0,0,0,151,36.9Zm.2-2.64a.88.88,0,0,0,.26.67,1,1,0,0,0,1.36,0,1,1,0,0,0,0-1.34,1,1,0,0,0-1.36,0A.88.88,0,0,0,151.17,34.26Z"/><path d="M154.64,35.68a7,7,0,0,1,.08-1,3.1,3.1,0,0,1,.29-1,2,2,0,0,1,.59-.71,1.6,1.6,0,0,1,1-.27,1.55,1.55,0,0,1,.95.27,1.94,1.94,0,0,1,.59.71,2.86,2.86,0,0,1,.3,1,7,7,0,0,1,.08,1,7.07,7.07,0,0,1-.08,1,2.88,2.88,0,0,1-.3.94,1.94,1.94,0,0,1-.59.71,1.55,1.55,0,0,1-.95.27,1.6,1.6,0,0,1-1-.27,2,2,0,0,1-.59-.71,3.13,3.13,0,0,1-.29-.94A7.07,7.07,0,0,1,154.64,35.68Zm.67,0c0,.13,0,.29,0,.46a4.88,4.88,0,0,0,.06.52,4.05,4.05,0,0,0,.12.5,1.66,1.66,0,0,0,.23.44,1.12,1.12,0,0,0,.34.31,1,1,0,0,0,1,0,1.12,1.12,0,0,0,.34-.31,1.4,1.4,0,0,0,.22-.44,2.83,2.83,0,0,0,.13-.5,4.88,4.88,0,0,0,.06-.52c0-.17,0-.33,0-.46s0-.3,0-.47a4.43,4.43,0,0,0-.06-.51,2.72,2.72,0,0,0-.13-.51,1.51,1.51,0,0,0-.22-.44,1.12,1.12,0,0,0-.34-.31,1,1,0,0,0-1,0,1.12,1.12,0,0,0-.34.31,1.83,1.83,0,0,0-.23.44,3.81,3.81,0,0,0-.12.51,4.43,4.43,0,0,0-.06.51C155.32,35.38,155.31,35.54,155.31,35.68Z"/><path d="M159.24,33.89a1.15,1.15,0,0,1,.33-.81,1,1,0,0,1,.37-.24,1,1,0,0,1,.44-.09,1.15,1.15,0,0,1,.82,2,1.15,1.15,0,0,1-.37.25,1.13,1.13,0,0,1-.45.09,1.15,1.15,0,0,1-.81-.34,1.15,1.15,0,0,1-.33-.81Zm.43,0a.79.79,0,0,0,.05.25,1.14,1.14,0,0,0,.15.23.62.62,0,0,0,.22.17.72.72,0,0,0,.29.06.68.68,0,0,0,.52-.23.79.79,0,0,0,.14-.23.65.65,0,0,0,0-.5.79.79,0,0,0-.14-.23.81.81,0,0,0-.23-.17.65.65,0,0,0-.29-.06.72.72,0,0,0-.29.06.76.76,0,0,0-.22.17,1.14,1.14,0,0,0-.15.23A.79.79,0,0,0,159.67,33.89Z"/><path d="M148.27,239.2a6.85,6.85,0,0,1,.08-1,3.41,3.41,0,0,1,.3-.95,1.94,1.94,0,0,1,.59-.71,1.57,1.57,0,0,1,.95-.27,1.6,1.6,0,0,1,1,.27,2,2,0,0,1,.59.71,3.1,3.1,0,0,1,.29.95,5.7,5.7,0,0,1,.08,1,5.85,5.85,0,0,1-.08,1,3.13,3.13,0,0,1-.29.94,2,2,0,0,1-.59.71,1.6,1.6,0,0,1-1,.27,1.57,1.57,0,0,1-.95-.27,1.94,1.94,0,0,1-.59-.71,3.45,3.45,0,0,1-.3-.94A7.07,7.07,0,0,1,148.27,239.2Zm.68,0c0,.13,0,.29,0,.46a4.88,4.88,0,0,0,.06.52,2.83,2.83,0,0,0,.13.5,1.65,1.65,0,0,0,.22.44,1.24,1.24,0,0,0,.34.31,1,1,0,0,0,.48.12.9.9,0,0,0,.48-.12,1,1,0,0,0,.34-.31,1.41,1.41,0,0,0,.23-.44,4.07,4.07,0,0,0,.13-.5c0-.18,0-.35.06-.52s0-.33,0-.46,0-.3,0-.47,0-.34-.06-.51a3.8,3.8,0,0,0-.13-.51,1.53,1.53,0,0,0-.23-.44,1,1,0,0,0-.34-.31.9.9,0,0,0-.48-.12,1,1,0,0,0-.48.12,1.24,1.24,0,0,0-.34.31,1.81,1.81,0,0,0-.22.44,2.72,2.72,0,0,0-.13.51,4.43,4.43,0,0,0-.06.51C149,238.9,149,239.06,149,239.2Z"/><path d="M152.83,237.41a1.33,1.33,0,0,1,.08-.45,1.11,1.11,0,0,1,.25-.36,1,1,0,0,1,.36-.24,1.17,1.17,0,0,1,.9,0,1,1,0,0,1,.36.24,1.11,1.11,0,0,1,.25.36,1.31,1.31,0,0,1,0,.9,1.23,1.23,0,0,1-.61.61,1.17,1.17,0,0,1-.9,0,1.23,1.23,0,0,1-.61-.61A1.33,1.33,0,0,1,152.83,237.41Zm.43,0a.79.79,0,0,0,.05.25.68.68,0,0,0,.14.23.66.66,0,0,0,.23.17.73.73,0,0,0,.58,0,.76.76,0,0,0,.23-.17.88.88,0,0,0,.14-.23.65.65,0,0,0,0-.5,1.09,1.09,0,0,0-.14-.23,1,1,0,0,0-.23-.17.73.73,0,0,0-.58,0,.81.81,0,0,0-.23.17.75.75,0,0,0-.19.48Z"/><path d="M203.17,238.76h.21l.43,0a1.15,1.15,0,0,0,.42-.13.77.77,0,0,0,.31-.31.94.94,0,0,0,.13-.51.87.87,0,0,0-.27-.68,1,1,0,0,0-.7-.26,1.28,1.28,0,0,0-.63.16,1.14,1.14,0,0,0-.41.48l-.65-.25a1.48,1.48,0,0,1,.65-.72,2.07,2.07,0,0,1,1-.24,2.25,2.25,0,0,1,.64.09,1.72,1.72,0,0,1,.54.28,1.37,1.37,0,0,1,.37.46,1.48,1.48,0,0,1,.14.65,1.29,1.29,0,0,1-.27.8,1.34,1.34,0,0,1-.7.49v0a1.48,1.48,0,0,1,.85.49,1.37,1.37,0,0,1,.23.43,1.69,1.69,0,0,1,.08.5,1.66,1.66,0,0,1-.15.72,1.57,1.57,0,0,1-.41.51,1.71,1.71,0,0,1-.6.31,2.34,2.34,0,0,1-.71.1,2.18,2.18,0,0,1-1.13-.28,1.61,1.61,0,0,1-.7-.91l.68-.22a1.33,1.33,0,0,0,.41.65,1.3,1.3,0,0,0,.74.19,1.33,1.33,0,0,0,.45-.08,1.11,1.11,0,0,0,.36-.23,1.24,1.24,0,0,0,.25-.35,1.13,1.13,0,0,0,.09-.45,1.07,1.07,0,0,0-.12-.53,1,1,0,0,0-.33-.33,1.23,1.23,0,0,0-.46-.18,2.31,2.31,0,0,0-.52-.06h-.21Z"/><path d="M206.24,239.2a6.85,6.85,0,0,1,.08-1,3.11,3.11,0,0,1,.3-.95,1.94,1.94,0,0,1,.59-.71,1.55,1.55,0,0,1,.95-.27,1.6,1.6,0,0,1,1,.27,2,2,0,0,1,.59.71,3.1,3.1,0,0,1,.29.95,5.7,5.7,0,0,1,.08,1,5.85,5.85,0,0,1-.08,1,3.13,3.13,0,0,1-.29.94,2,2,0,0,1-.59.71,1.6,1.6,0,0,1-1,.27,1.55,1.55,0,0,1-.95-.27,1.94,1.94,0,0,1-.59-.71,3.14,3.14,0,0,1-.3-.94A7.07,7.07,0,0,1,206.24,239.2Zm.67,0c0,.13,0,.29,0,.46a4.88,4.88,0,0,0,.06.52,2.83,2.83,0,0,0,.13.5,1.4,1.4,0,0,0,.22.44,1.24,1.24,0,0,0,.34.31,1,1,0,0,0,.48.12.9.9,0,0,0,.48-.12,1,1,0,0,0,.34-.31,1.41,1.41,0,0,0,.23-.44,4.05,4.05,0,0,0,.12-.5,4.88,4.88,0,0,0,.06-.52,3.86,3.86,0,0,0,0-.46,3.94,3.94,0,0,0,0-.47,4.43,4.43,0,0,0-.06-.51,3.81,3.81,0,0,0-.12-.51,1.53,1.53,0,0,0-.23-.44,1,1,0,0,0-.34-.31.9.9,0,0,0-.48-.12,1,1,0,0,0-.48.12,1.24,1.24,0,0,0-.34.31,1.51,1.51,0,0,0-.22.44,2.72,2.72,0,0,0-.13.51,4.43,4.43,0,0,0-.06.51C206.92,238.9,206.91,239.06,206.91,239.2Z"/><path d="M210.84,237.41a1.13,1.13,0,0,1,.09-.45,1.26,1.26,0,0,1,.24-.36,1.2,1.2,0,0,1,.82-.33,1,1,0,0,1,.44.09,1.12,1.12,0,0,1,.37.24,1.26,1.26,0,0,1,.24.36,1.16,1.16,0,0,1-.24,1.26,1.15,1.15,0,0,1-.37.25,1,1,0,0,1-.44.09,1.13,1.13,0,0,1-.45-.09,1.15,1.15,0,0,1-.37-.25,1.15,1.15,0,0,1-.33-.81Zm.43,0a.61.61,0,0,0,.06.25.68.68,0,0,0,.14.23.72.72,0,0,0,.22.17.73.73,0,0,0,.3.06.72.72,0,0,0,.29-.06.62.62,0,0,0,.22-.17.91.91,0,0,0,.15-.23.65.65,0,0,0,0-.5,1.14,1.14,0,0,0-.15-.23.76.76,0,0,0-.22-.17.72.72,0,0,0-.29-.06.73.73,0,0,0-.3.06.92.92,0,0,0-.22.17.79.79,0,0,0-.14.23A.61.61,0,0,0,211.27,237.41Z"/><path d="M93.6,238.76h.21l.44,0a1.1,1.1,0,0,0,.41-.13.86.86,0,0,0,.32-.31.94.94,0,0,0,.12-.51.87.87,0,0,0-.27-.68,1,1,0,0,0-.7-.26,1.21,1.21,0,0,0-.62.16,1.1,1.1,0,0,0-.42.48l-.65-.25a1.45,1.45,0,0,1,.66-.72,2,2,0,0,1,1-.24,2.32,2.32,0,0,1,.65.09,2,2,0,0,1,.54.28,1.67,1.67,0,0,1,.37.46,1.48,1.48,0,0,1,.13.65,1.29,1.29,0,0,1-.27.8,1.34,1.34,0,0,1-.7.49v0a1.31,1.31,0,0,1,.49.18,1.34,1.34,0,0,1,.36.31,1.37,1.37,0,0,1,.23.43,1.42,1.42,0,0,1,.08.5,1.66,1.66,0,0,1-.15.72,1.57,1.57,0,0,1-.41.51,1.75,1.75,0,0,1-.59.31,2.46,2.46,0,0,1-.72.1,2.18,2.18,0,0,1-1.13-.28,1.56,1.56,0,0,1-.69-.91l.68-.22a1.2,1.2,0,0,0,.41.65,1.27,1.27,0,0,0,.73.19,1.33,1.33,0,0,0,.45-.08,1.11,1.11,0,0,0,.36-.23,1.07,1.07,0,0,0,.25-.35,1.13,1.13,0,0,0,.09-.45,1.07,1.07,0,0,0-.12-.53.87.87,0,0,0-.33-.33,1.17,1.17,0,0,0-.46-.18,2.24,2.24,0,0,0-.52-.06H93.6Z"/><path d="M96.68,239.2a5.7,5.7,0,0,1,.08-1,3.1,3.1,0,0,1,.29-.95,2,2,0,0,1,.59-.71,1.6,1.6,0,0,1,1-.27,1.57,1.57,0,0,1,1,.27,1.94,1.94,0,0,1,.59.71,3.41,3.41,0,0,1,.3.95,6.85,6.85,0,0,1,.08,1,7.07,7.07,0,0,1-.08,1,3.45,3.45,0,0,1-.3.94,1.94,1.94,0,0,1-.59.71,1.57,1.57,0,0,1-1,.27,1.6,1.6,0,0,1-1-.27,2,2,0,0,1-.59-.71,3.13,3.13,0,0,1-.29-.94A5.85,5.85,0,0,1,96.68,239.2Zm.67,0c0,.13,0,.29,0,.46a4.88,4.88,0,0,0,.06.52,4.07,4.07,0,0,0,.13.5,1.41,1.41,0,0,0,.23.44,1,1,0,0,0,.34.31.9.9,0,0,0,.48.12,1,1,0,0,0,.48-.12,1.24,1.24,0,0,0,.34-.31,1.65,1.65,0,0,0,.22-.44,2.83,2.83,0,0,0,.13-.5,4.88,4.88,0,0,0,.06-.52c0-.17,0-.33,0-.46s0-.3,0-.47a4.43,4.43,0,0,0-.06-.51,2.72,2.72,0,0,0-.13-.51,1.81,1.81,0,0,0-.22-.44,1.24,1.24,0,0,0-.34-.31,1,1,0,0,0-.48-.12.9.9,0,0,0-.48.12,1,1,0,0,0-.34.31,1.53,1.53,0,0,0-.23.44,3.8,3.8,0,0,0-.13.51,4.43,4.43,0,0,0-.06.51C97.35,238.9,97.35,239.06,97.35,239.2Z"/><path d="M101.28,237.41a1.33,1.33,0,0,1,.08-.45,1.11,1.11,0,0,1,.25-.36,1,1,0,0,1,.36-.24,1.17,1.17,0,0,1,.9,0,1,1,0,0,1,.36.24,1.11,1.11,0,0,1,.25.36,1.31,1.31,0,0,1,0,.9,1.23,1.23,0,0,1-.61.61,1.17,1.17,0,0,1-.9,0,1.23,1.23,0,0,1-.61-.61A1.33,1.33,0,0,1,101.28,237.41Zm.43,0a.79.79,0,0,0,.05.25.68.68,0,0,0,.14.23.76.76,0,0,0,.23.17.73.73,0,0,0,.58,0,.66.66,0,0,0,.23-.17.68.68,0,0,0,.14-.23.71.71,0,0,0-.14-.73.81.81,0,0,0-.23-.17.73.73,0,0,0-.58,0,1,1,0,0,0-.23.17.75.75,0,0,0-.19.48Z"/><path d="M203.18,38.51h-.68v-4.8h0l-1,.85-.4-.48,1.52-1.24h.59Z"/><path d="M208.49,33.47h-2.31l0,1.53a1.08,1.08,0,0,1,.36-.11l.37,0a2,2,0,0,1,.74.14,1.61,1.61,0,0,1,.57.39,1.9,1.9,0,0,1,.37.59,2,2,0,0,1,.13.74,2,2,0,0,1-.15.78,1.74,1.74,0,0,1-.41.59,1.91,1.91,0,0,1-.61.38,2.2,2.2,0,0,1-.78.13,1.73,1.73,0,0,1-1-.28,2,2,0,0,1-.63-.75l.67-.25a1.31,1.31,0,0,0,.42.51,1.1,1.1,0,0,0,.64.2,1.28,1.28,0,0,0,.48-.09,1.26,1.26,0,0,0,.38-.27,1.15,1.15,0,0,0,.26-.41,1.53,1.53,0,0,0,.1-.54,1.38,1.38,0,0,0-.11-.55,1.08,1.08,0,0,0-.3-.4,1.26,1.26,0,0,0-.44-.25,1.67,1.67,0,0,0-.55-.08,1.84,1.84,0,0,0-.6.1,2.58,2.58,0,0,0-.56.25l.06-2.95h3Z"/><path d="M209.45,35.68a7,7,0,0,1,.08-1,3.1,3.1,0,0,1,.29-1,2,2,0,0,1,.59-.71,1.6,1.6,0,0,1,1-.27,1.55,1.55,0,0,1,.95.27,1.94,1.94,0,0,1,.59.71,2.86,2.86,0,0,1,.3,1,7,7,0,0,1,.08,1,7.07,7.07,0,0,1-.08,1,2.88,2.88,0,0,1-.3.94,1.94,1.94,0,0,1-.59.71,1.55,1.55,0,0,1-.95.27,1.6,1.6,0,0,1-1-.27,2,2,0,0,1-.59-.71,3.13,3.13,0,0,1-.29-.94A7.07,7.07,0,0,1,209.45,35.68Zm.67,0c0,.13,0,.29,0,.46a4.88,4.88,0,0,0,.06.52,4.05,4.05,0,0,0,.12.5,1.66,1.66,0,0,0,.23.44,1,1,0,0,0,.34.31.9.9,0,0,0,.48.12,1,1,0,0,0,.48-.12,1.24,1.24,0,0,0,.34-.31,1.4,1.4,0,0,0,.22-.44,2.83,2.83,0,0,0,.13-.5,4.88,4.88,0,0,0,.06-.52c0-.17,0-.33,0-.46s0-.3,0-.47a4.43,4.43,0,0,0-.06-.51,2.72,2.72,0,0,0-.13-.51,1.51,1.51,0,0,0-.22-.44,1.24,1.24,0,0,0-.34-.31,1,1,0,0,0-.48-.12.9.9,0,0,0-.48.12,1,1,0,0,0-.34.31,1.83,1.83,0,0,0-.23.44,3.81,3.81,0,0,0-.12.51,4.43,4.43,0,0,0-.06.51C210.13,35.38,210.12,35.54,210.12,35.68Z"/><path d="M214.05,33.89a1.15,1.15,0,0,1,.33-.81,1,1,0,0,1,.37-.24,1,1,0,0,1,.44-.09,1.13,1.13,0,0,1,.45.09,1,1,0,0,1,.36.24,1,1,0,0,1,.25.36,1.17,1.17,0,0,1,0,.9,1.23,1.23,0,0,1-.61.61,1.13,1.13,0,0,1-.45.09,1.15,1.15,0,0,1-.81-.34,1.15,1.15,0,0,1-.33-.81Zm.43,0a.79.79,0,0,0,.05.25,1.14,1.14,0,0,0,.15.23.62.62,0,0,0,.22.17.72.72,0,0,0,.29.06.68.68,0,0,0,.52-.23.79.79,0,0,0,.14-.23.65.65,0,0,0,0-.5.79.79,0,0,0-.14-.23.81.81,0,0,0-.23-.17.65.65,0,0,0-.29-.06.72.72,0,0,0-.29.06.76.76,0,0,0-.22.17,1.14,1.14,0,0,0-.15.23A.79.79,0,0,0,214.48,33.89Z"/><path d="M93.61,38.51h-.67v-4.8h0l-1,.85-.4-.48L93,32.84h.58Z"/><path d="M98.92,33.47H96.61l0,1.53a1,1,0,0,1,.35-.11l.37,0a1.91,1.91,0,0,1,.74.14,1.65,1.65,0,0,1,.58.39A1.71,1.71,0,0,1,99,36a2,2,0,0,1,.13.74,2,2,0,0,1-.15.78,1.71,1.71,0,0,1-.4.59,2,2,0,0,1-.62.38,2.15,2.15,0,0,1-.77.13,1.78,1.78,0,0,1-1.05-.28,1.85,1.85,0,0,1-.62-.75l.67-.25a1.16,1.16,0,0,0,.42.51,1.05,1.05,0,0,0,.63.2,1.28,1.28,0,0,0,.48-.09,1.23,1.23,0,0,0,.64-.68,1.33,1.33,0,0,0,.1-.54,1.38,1.38,0,0,0-.11-.55,1.18,1.18,0,0,0-.29-.4,1.41,1.41,0,0,0-.45-.25,1.63,1.63,0,0,0-.55-.08,1.78,1.78,0,0,0-.59.1,2.58,2.58,0,0,0-.56.25l0-2.95h3Z"/><path d="M99.88,35.68a7,7,0,0,1,.08-1,3.11,3.11,0,0,1,.3-1,1.94,1.94,0,0,1,.59-.71,1.55,1.55,0,0,1,1-.27,1.6,1.6,0,0,1,1,.27,2,2,0,0,1,.59.71,3.1,3.1,0,0,1,.29,1,5.77,5.77,0,0,1,.08,1,5.85,5.85,0,0,1-.08,1,3.13,3.13,0,0,1-.29.94,2,2,0,0,1-.59.71,1.6,1.6,0,0,1-1,.27,1.55,1.55,0,0,1-1-.27,1.94,1.94,0,0,1-.59-.71,3.14,3.14,0,0,1-.3-.94A7.07,7.07,0,0,1,99.88,35.68Zm.67,0c0,.13,0,.29,0,.46a4.88,4.88,0,0,0,.06.52,2.83,2.83,0,0,0,.13.5,1.4,1.4,0,0,0,.22.44,1.24,1.24,0,0,0,.34.31,1,1,0,0,0,.48.12.9.9,0,0,0,.48-.12,1,1,0,0,0,.34-.31,1.41,1.41,0,0,0,.23-.44,4.05,4.05,0,0,0,.12-.5,4.88,4.88,0,0,0,.06-.52c0-.17,0-.33,0-.46s0-.3,0-.47a4.43,4.43,0,0,0-.06-.51,3.81,3.81,0,0,0-.12-.51,1.53,1.53,0,0,0-.23-.44,1,1,0,0,0-.34-.31.9.9,0,0,0-.48-.12,1,1,0,0,0-.48.12,1.24,1.24,0,0,0-.34.31,1.51,1.51,0,0,0-.22.44,2.72,2.72,0,0,0-.13.51,4.43,4.43,0,0,0-.06.51C100.56,35.38,100.55,35.54,100.55,35.68Z"/><path d="M104.48,33.89a1.15,1.15,0,0,1,1.15-1.14,1,1,0,0,1,.44.09,1.12,1.12,0,0,1,.37.24,1.16,1.16,0,0,1,0,1.62,1.15,1.15,0,0,1-.37.25,1,1,0,0,1-.44.09,1.13,1.13,0,0,1-.45-.09,1.15,1.15,0,0,1-.37-.25,1.15,1.15,0,0,1-.33-.81Zm.43,0a.61.61,0,0,0,.06.25.79.79,0,0,0,.14.23.72.72,0,0,0,.22.17.73.73,0,0,0,.3.06.72.72,0,0,0,.29-.06.62.62,0,0,0,.22-.17,1.14,1.14,0,0,0,.15-.23.65.65,0,0,0,0-.5,1.14,1.14,0,0,0-.15-.23.76.76,0,0,0-.22-.17.72.72,0,0,0-.29-.06.73.73,0,0,0-.3.06.92.92,0,0,0-.22.17.79.79,0,0,0-.14.23A.61.61,0,0,0,104.91,33.89Z"/><path d="M248.75,192.45v0a1.35,1.35,0,0,1,.37-.13,2,2,0,0,1,.39,0,1.73,1.73,0,0,1,.69.13,1.42,1.42,0,0,1,.54.36,1.85,1.85,0,0,1,.36.57,2,2,0,0,1,.12.72,1.78,1.78,0,0,1-.14.74,1.74,1.74,0,0,1-.4.56,2,2,0,0,1-.6.35,2.36,2.36,0,0,1-.75.12,2.27,2.27,0,0,1-.75-.12,2,2,0,0,1-.6-.35,1.6,1.6,0,0,1-.4-.56,1.78,1.78,0,0,1-.15-.74,2.24,2.24,0,0,1,.15-.86,5.28,5.28,0,0,1,.39-.74l1.5-2.39h.79Zm.59.43a1.23,1.23,0,0,0-.87.32,1,1,0,0,0-.26.38,1.31,1.31,0,0,0-.1.5,1.35,1.35,0,0,0,.1.5,1.08,1.08,0,0,0,.26.37,1,1,0,0,0,.39.24,1.32,1.32,0,0,0,1,0,1,1,0,0,0,.39-.24,1.23,1.23,0,0,0,.26-.37,1.35,1.35,0,0,0,.09-.5,1.31,1.31,0,0,0-.09-.5,1.16,1.16,0,0,0-.26-.38,1.23,1.23,0,0,0-.87-.32Z"/><path d="M251.82,192.92a7.07,7.07,0,0,1,.08-1,3.13,3.13,0,0,1,.29-.94,2,2,0,0,1,.59-.71,1.6,1.6,0,0,1,1-.27,1.55,1.55,0,0,1,.95.27,1.94,1.94,0,0,1,.59.71,2.88,2.88,0,0,1,.3.94,7.07,7.07,0,0,1,.08,1,7,7,0,0,1-.08,1,2.86,2.86,0,0,1-.3,1,1.94,1.94,0,0,1-.59.71,1.55,1.55,0,0,1-.95.27,1.6,1.6,0,0,1-1-.27,2,2,0,0,1-.59-.71,3.1,3.1,0,0,1-.29-1A7,7,0,0,1,251.82,192.92Zm.67,0c0,.14,0,.3,0,.47a4.43,4.43,0,0,0,.06.51,3.81,3.81,0,0,0,.12.51,1.83,1.83,0,0,0,.23.44,1,1,0,0,0,.34.31.9.9,0,0,0,.48.12,1,1,0,0,0,.48-.12,1.24,1.24,0,0,0,.34-.31,1.51,1.51,0,0,0,.22-.44,2.72,2.72,0,0,0,.13-.51,4.43,4.43,0,0,0,.06-.51c0-.17,0-.33,0-.47s0-.29,0-.46a4.88,4.88,0,0,0-.06-.52,2.83,2.83,0,0,0-.13-.5,1.4,1.4,0,0,0-.22-.44,1.1,1.1,0,0,0-.34-.31,1,1,0,0,0-.48-.12.9.9,0,0,0-.48.12.92.92,0,0,0-.34.31,1.66,1.66,0,0,0-.23.44,4.05,4.05,0,0,0-.12.5,4.88,4.88,0,0,0-.06.52C252.5,192.63,252.49,192.79,252.49,192.92Z"/><path d="M256.42,191.14a1.15,1.15,0,0,1,.33-.81,1.05,1.05,0,0,1,.37-.25,1.23,1.23,0,0,1,.44-.08,1.33,1.33,0,0,1,.45.08,1.15,1.15,0,0,1,.37.25,1.16,1.16,0,0,1,0,1.62,1.15,1.15,0,0,1-.37.25,1.33,1.33,0,0,1-.45.08,1.23,1.23,0,0,1-.44-.08,1.05,1.05,0,0,1-.37-.25,1.15,1.15,0,0,1-.33-.81Zm.43,0a.79.79,0,0,0,0,.25,1.14,1.14,0,0,0,.15.23.62.62,0,0,0,.22.17.72.72,0,0,0,.29.06.68.68,0,0,0,.52-.23.79.79,0,0,0,.14-.23.65.65,0,0,0,0-.5.79.79,0,0,0-.14-.23.68.68,0,0,0-.52-.23.72.72,0,0,0-.29.06.62.62,0,0,0-.22.17,1.14,1.14,0,0,0-.15.23A.79.79,0,0,0,256.85,191.14Z"/><path d="M250,81.22h-.67v-4.8h0l-1,.86-.4-.49,1.52-1.23H250Z"/><path d="M251.92,80.45l2.13-2.08c.13-.12.25-.24.35-.35a2.16,2.16,0,0,0,.25-.32,1.09,1.09,0,0,0,.15-.33,1.38,1.38,0,0,0,0-.37,1,1,0,0,0-.08-.4.84.84,0,0,0-.22-.3.78.78,0,0,0-.33-.19,1.05,1.05,0,0,0-.4-.07,1,1,0,0,0-.71.25,1.08,1.08,0,0,0-.36.65l-.73-.06a1.83,1.83,0,0,1,.21-.61,1.41,1.41,0,0,1,.39-.45,2,2,0,0,1,.53-.27,2.25,2.25,0,0,1,.64-.09,2.41,2.41,0,0,1,.67.1,1.92,1.92,0,0,1,.55.29,1.44,1.44,0,0,1,.51,1.15,2,2,0,0,1-.09.61,2,2,0,0,1-.25.5,3.47,3.47,0,0,1-.35.43l-.41.4-1.75,1.64v0h2.89v.62h-3.64Z"/><path d="M256.27,78.39a5.85,5.85,0,0,1,.08-1,3.19,3.19,0,0,1,.29-1,2,2,0,0,1,.59-.7,1.54,1.54,0,0,1,1-.28,1.51,1.51,0,0,1,.95.28,1.91,1.91,0,0,1,.59.7,3.2,3.2,0,0,1,.3,1,6.29,6.29,0,0,1,0,2,3.2,3.2,0,0,1-.3,1,1.91,1.91,0,0,1-.59.7,1.51,1.51,0,0,1-.95.28,1.54,1.54,0,0,1-1-.28,2,2,0,0,1-.59-.7,3.19,3.19,0,0,1-.29-1A5.85,5.85,0,0,1,256.27,78.39Zm.67,0a3.78,3.78,0,0,0,0,.46c0,.17,0,.35.05.52a4.77,4.77,0,0,0,.13.51,1.67,1.67,0,0,0,.23.44,1,1,0,0,0,.34.31,1,1,0,0,0,.48.11,1.06,1.06,0,0,0,.48-.11,1.24,1.24,0,0,0,.34-.31,2,2,0,0,0,.22-.44,3.18,3.18,0,0,0,.13-.51,4.6,4.6,0,0,0,.06-.52c0-.17,0-.32,0-.46s0-.29,0-.46a4.35,4.35,0,0,0-.06-.52,3.18,3.18,0,0,0-.13-.51,2,2,0,0,0-.22-.44,1.24,1.24,0,0,0-.34-.31,1.06,1.06,0,0,0-.48-.11,1,1,0,0,0-.48.11,1,1,0,0,0-.34.31,1.67,1.67,0,0,0-.23.44,4.77,4.77,0,0,0-.13.51c0,.17,0,.34-.05.52A3.78,3.78,0,0,0,256.94,78.39Z"/><path d="M260.87,76.61a1.13,1.13,0,0,1,.09-.45,1,1,0,0,1,.24-.37,1.16,1.16,0,0,1,1.62,0,1.15,1.15,0,0,1,.25.37,1.13,1.13,0,0,1,.09.45,1,1,0,0,1-.09.44,1.15,1.15,0,0,1-.25.37,1.16,1.16,0,0,1-1.62,0,1,1,0,0,1-.24-.37A1,1,0,0,1,260.87,76.61Zm.43,0a.69.69,0,0,0,.05.24.75.75,0,0,0,.15.24.6.6,0,0,0,.22.16.64.64,0,0,0,.58,0,.63.63,0,0,0,.23-.16.72.72,0,0,0,.14-.24.52.52,0,0,0,.05-.24.56.56,0,0,0-.05-.25.59.59,0,0,0-.14-.23.66.66,0,0,0-.23-.17.64.64,0,0,0-.58,0,.62.62,0,0,0-.22.17.61.61,0,0,0-.15.23A.74.74,0,0,0,261.3,76.61Z"/><path d="M40.39,192.45v0a1.42,1.42,0,0,1,.38-.13,1.84,1.84,0,0,1,.39,0,1.72,1.72,0,0,1,.68.13,1.42,1.42,0,0,1,.54.36,1.85,1.85,0,0,1,.36.57,2,2,0,0,1,.13.72,1.78,1.78,0,0,1-.15.74,1.6,1.6,0,0,1-.4.56,2,2,0,0,1-.6.35,2.4,2.4,0,0,1-1.5,0,2,2,0,0,1-.6-.35,1.6,1.6,0,0,1-.4-.56,1.78,1.78,0,0,1-.15-.74,2.24,2.24,0,0,1,.16-.86,5.19,5.19,0,0,1,.38-.74l1.5-2.39h.79Zm.59.43a1.23,1.23,0,0,0-.87.32,1.16,1.16,0,0,0-.26.38,1.31,1.31,0,0,0-.09.5,1.35,1.35,0,0,0,.09.5,1.23,1.23,0,0,0,.26.37,1,1,0,0,0,.39.24,1.32,1.32,0,0,0,1,0,1,1,0,0,0,.39-.24,1.23,1.23,0,0,0,.26-.37,1.35,1.35,0,0,0,.1-.5,1.31,1.31,0,0,0-.1-.5,1.16,1.16,0,0,0-.26-.38,1.23,1.23,0,0,0-.87-.32Z"/><path d="M43.46,192.92a7.07,7.07,0,0,1,.08-1,2.88,2.88,0,0,1,.3-.94,1.94,1.94,0,0,1,.59-.71,1.55,1.55,0,0,1,1-.27,1.6,1.6,0,0,1,1,.27,2,2,0,0,1,.59.71,3.13,3.13,0,0,1,.29.94,7.07,7.07,0,0,1,.08,1,7,7,0,0,1-.08,1,3.1,3.1,0,0,1-.29,1,2,2,0,0,1-.59.71,1.6,1.6,0,0,1-1,.27,1.55,1.55,0,0,1-1-.27,1.94,1.94,0,0,1-.59-.71,2.86,2.86,0,0,1-.3-1A7,7,0,0,1,43.46,192.92Zm.67,0c0,.14,0,.3,0,.47a4.43,4.43,0,0,0,.06.51,2.72,2.72,0,0,0,.13.51,1.51,1.51,0,0,0,.22.44,1.12,1.12,0,0,0,.34.31,1,1,0,0,0,1,0,1.12,1.12,0,0,0,.34-.31,1.83,1.83,0,0,0,.23-.44,3.81,3.81,0,0,0,.12-.51,4.43,4.43,0,0,0,.06-.51c0-.17,0-.33,0-.47s0-.29,0-.46a4.88,4.88,0,0,0-.06-.52,4.05,4.05,0,0,0-.12-.5,1.66,1.66,0,0,0-.23-.44,1,1,0,0,0-.34-.31,1,1,0,0,0-1,0,1,1,0,0,0-.34.31,1.4,1.4,0,0,0-.22.44,2.83,2.83,0,0,0-.13.5,4.88,4.88,0,0,0-.06.52C44.14,192.63,44.13,192.79,44.13,192.92Z"/><path d="M48.06,191.14a1.15,1.15,0,0,1,.33-.81,1.15,1.15,0,0,1,.37-.25,1.33,1.33,0,0,1,.45-.08,1.27,1.27,0,0,1,.44.08,1.15,1.15,0,0,1,.37.25A1.16,1.16,0,0,1,50,192a1.15,1.15,0,0,1-.37.25,1.27,1.27,0,0,1-.44.08,1.33,1.33,0,0,1-.45-.08,1.15,1.15,0,0,1-.37-.25,1.15,1.15,0,0,1-.33-.81Zm.43,0a.61.61,0,0,0,.06.25.79.79,0,0,0,.14.23.72.72,0,0,0,.22.17.73.73,0,0,0,.3.06.72.72,0,0,0,.29-.06.62.62,0,0,0,.22-.17,1.14,1.14,0,0,0,.15-.23.65.65,0,0,0,0-.5,1.14,1.14,0,0,0-.15-.23.62.62,0,0,0-.22-.17.72.72,0,0,0-.29-.06.73.73,0,0,0-.3.06.72.72,0,0,0-.22.17.79.79,0,0,0-.14.23A.61.61,0,0,0,48.49,191.14Z"/><path d="M39.15,81.22h-.67v-4.8h0l-1,.86-.4-.49,1.52-1.23h.58Z"/><path d="M41.07,80.45l2.14-2.08c.13-.12.25-.24.35-.35a2.16,2.16,0,0,0,.25-.32,1.09,1.09,0,0,0,.15-.33A1.38,1.38,0,0,0,44,77a1,1,0,0,0-.08-.4.84.84,0,0,0-.22-.3.78.78,0,0,0-.33-.19A1.05,1.05,0,0,0,43,76a1,1,0,0,0-.72.25,1.19,1.19,0,0,0-.36.65l-.72-.06a1.47,1.47,0,0,1,.21-.61,1.41,1.41,0,0,1,.39-.45,2,2,0,0,1,.53-.27,2.2,2.2,0,0,1,.64-.09,2.41,2.41,0,0,1,.67.1,2.06,2.06,0,0,1,.55.29,1.47,1.47,0,0,1,.37.48,1.6,1.6,0,0,1,.14.67,2,2,0,0,1-.09.61,2.34,2.34,0,0,1-.25.5,3.47,3.47,0,0,1-.35.43l-.41.4-1.75,1.64v0h2.89v.62H41.07Z"/><path d="M45.43,78.39a7,7,0,0,1,.07-1,3.52,3.52,0,0,1,.3-1,2,2,0,0,1,.59-.7,1.77,1.77,0,0,1,1.91,0,1.91,1.91,0,0,1,.59.7,3.52,3.52,0,0,1,.3,1,6.29,6.29,0,0,1,0,2,3.52,3.52,0,0,1-.3,1,1.91,1.91,0,0,1-.59.7,1.77,1.77,0,0,1-1.91,0,2,2,0,0,1-.59-.7,3.52,3.52,0,0,1-.3-1A7,7,0,0,1,45.43,78.39Zm.67,0c0,.14,0,.29,0,.46a4.6,4.6,0,0,0,.06.52,4.77,4.77,0,0,0,.13.51,2,2,0,0,0,.22.44,1.15,1.15,0,0,0,.35.31,1,1,0,0,0,.48.11,1.06,1.06,0,0,0,.48-.11,1.24,1.24,0,0,0,.34-.31,2,2,0,0,0,.22-.44,3.18,3.18,0,0,0,.13-.51,4.6,4.6,0,0,0,.06-.52c0-.17,0-.32,0-.46s0-.29,0-.46a4.35,4.35,0,0,0-.06-.52,3.18,3.18,0,0,0-.13-.51,2,2,0,0,0-.22-.44,1.24,1.24,0,0,0-.34-.31,1.06,1.06,0,0,0-.48-.11,1,1,0,0,0-.48.11,1.15,1.15,0,0,0-.35.31,2,2,0,0,0-.22.44,4.77,4.77,0,0,0-.13.51,4.35,4.35,0,0,0-.06.52C46.1,78.1,46.1,78.25,46.1,78.39Z"/><path d="M50,76.61a1.12,1.12,0,0,1,.08-.45,1.15,1.15,0,0,1,.25-.37,1.16,1.16,0,0,1,1.62,0,1.15,1.15,0,0,1,.25.37,1.33,1.33,0,0,1,.08.45,1.23,1.23,0,0,1-.08.44,1.15,1.15,0,0,1-.25.37,1.16,1.16,0,0,1-1.62,0,1.15,1.15,0,0,1-.25-.37A1,1,0,0,1,50,76.61Zm.43,0a.52.52,0,0,0,0,.24.72.72,0,0,0,.14.24.63.63,0,0,0,.23.16.64.64,0,0,0,.58,0,.73.73,0,0,0,.23-.16,1,1,0,0,0,.14-.24.69.69,0,0,0,.05-.24.75.75,0,0,0-.19-.48.76.76,0,0,0-.23-.17.64.64,0,0,0-.58,0,.66.66,0,0,0-.23.17.59.59,0,0,0-.14.23A.56.56,0,0,0,50.46,76.61Z"/></g><g id="numeri_fondo_tabella" data-name="numeri fondo tabella"><path d="M131.83,251.42a1.17,1.17,0,0,0-.43-.35,1.19,1.19,0,0,0-.51-.11,1.35,1.35,0,0,0-.55.11,1.08,1.08,0,0,0-.4.3,1.32,1.32,0,0,0-.23.44,1.76,1.76,0,0,0,0,1.08,1.43,1.43,0,0,0,.26.45,1.31,1.31,0,0,0,.39.3,1.27,1.27,0,0,0,.52.1,1.09,1.09,0,0,0,1-.46l.47.44a1.69,1.69,0,0,1-.64.46,2.29,2.29,0,0,1-.78.14,2.22,2.22,0,0,1-.79-.14,1.75,1.75,0,0,1-1-1,2.27,2.27,0,0,1,0-1.57,1.86,1.86,0,0,1,.39-.63,2,2,0,0,1,.61-.41,2,2,0,0,1,.79-.15,2.09,2.09,0,0,1,.79.15,1.59,1.59,0,0,1,.65.45Z"/><path d="M136.21,253.56h0a1.43,1.43,0,0,1-.55.54,1.7,1.7,0,0,1-.89.22,1.8,1.8,0,0,1-.73-.15,1.78,1.78,0,0,1-.6-.41,1.81,1.81,0,0,1-.39-.62,2.06,2.06,0,0,1-.15-.79,2,2,0,0,1,.15-.78,1.88,1.88,0,0,1,.4-.63,1.81,1.81,0,0,1,.62-.41,2.07,2.07,0,0,1,.8-.15,1.72,1.72,0,0,1,.75.17,1.78,1.78,0,0,1,.59.47h0v-2.84h.62v6h-.62Zm0-1.21a1.63,1.63,0,0,0-.09-.55,1.34,1.34,0,0,0-.27-.44,1.37,1.37,0,0,0-.42-.29,1.35,1.35,0,0,0-.55-.11,1.42,1.42,0,0,0-.55.11,1.22,1.22,0,0,0-.41.29,1.34,1.34,0,0,0-.27.44,1.56,1.56,0,0,0,0,1.1,1.25,1.25,0,0,0,.27.44,1.19,1.19,0,0,0,1,.4,1.35,1.35,0,0,0,.55-.1,1.6,1.6,0,0,0,.42-.3,1.25,1.25,0,0,0,.27-.44A1.63,1.63,0,0,0,136.21,252.35Z"/><path d="M140.1,254.57l-.5-.2,2.4-6.15.51.2Z"/><path d="M147.64,254.22H147v-4.8h0l-1,.86-.4-.49,1.52-1.23h.59Z"/><path d="M149.46,251.39a7.07,7.07,0,0,1,.08-1,3.19,3.19,0,0,1,.29-.95,2,2,0,0,1,.59-.7,1.61,1.61,0,0,1,1-.28,1.55,1.55,0,0,1,1,.28,1.91,1.91,0,0,1,.59.7,2.94,2.94,0,0,1,.3.95,6.29,6.29,0,0,1,0,2,2.94,2.94,0,0,1-.3,1,1.91,1.91,0,0,1-.59.7,1.49,1.49,0,0,1-1,.28,1.54,1.54,0,0,1-1-.28,2,2,0,0,1-.59-.7,3.19,3.19,0,0,1-.29-1A7.07,7.07,0,0,1,149.46,251.39Zm.67,0c0,.14,0,.29,0,.47a4.43,4.43,0,0,0,.06.51,4.7,4.7,0,0,0,.12.51,2,2,0,0,0,.23.44,1.12,1.12,0,0,0,.34.31,1.1,1.1,0,0,0,1,0,1.12,1.12,0,0,0,.34-.31,1.65,1.65,0,0,0,.22-.44,3.18,3.18,0,0,0,.13-.51,4.43,4.43,0,0,0,.06-.51c0-.18,0-.33,0-.47s0-.29,0-.46a4.6,4.6,0,0,0-.06-.52,3.18,3.18,0,0,0-.13-.51,1.65,1.65,0,0,0-.22-.44,1.08,1.08,0,0,0-.34-.3,1,1,0,0,0-1,0,1.08,1.08,0,0,0-.34.3,2,2,0,0,0-.23.44,4.7,4.7,0,0,0-.12.51,4.6,4.6,0,0,0-.06.52C150.14,251.1,150.13,251.25,150.13,251.39Z"/><path d="M153.91,251.39a5.85,5.85,0,0,1,.08-1,3.19,3.19,0,0,1,.29-.95,2,2,0,0,1,.59-.7,1.61,1.61,0,0,1,1-.28,1.55,1.55,0,0,1,.95.28,1.91,1.91,0,0,1,.59.7,3.2,3.2,0,0,1,.3.95,6.29,6.29,0,0,1,0,2,3.2,3.2,0,0,1-.3,1,1.91,1.91,0,0,1-.59.7,1.49,1.49,0,0,1-.95.28,1.54,1.54,0,0,1-1-.28,2,2,0,0,1-.59-.7,3.19,3.19,0,0,1-.29-1A5.85,5.85,0,0,1,153.91,251.39Zm.67,0a4,4,0,0,0,0,.47,4.43,4.43,0,0,0,.06.51,3.14,3.14,0,0,0,.12.51,1.67,1.67,0,0,0,.23.44,1,1,0,0,0,.34.31.9.9,0,0,0,.48.11,1,1,0,0,0,.48-.11,1.24,1.24,0,0,0,.34-.31,1.65,1.65,0,0,0,.22-.44,3.18,3.18,0,0,0,.13-.51,4.43,4.43,0,0,0,.06-.51c0-.18,0-.33,0-.47s0-.29,0-.46a4.6,4.6,0,0,0-.06-.52,3.18,3.18,0,0,0-.13-.51,1.65,1.65,0,0,0-.22-.44,1.21,1.21,0,0,0-.34-.3,1,1,0,0,0-.48-.12.9.9,0,0,0-.48.12,1,1,0,0,0-.34.3,1.67,1.67,0,0,0-.23.44,3.14,3.14,0,0,0-.12.51,4.6,4.6,0,0,0-.06.52A3.78,3.78,0,0,0,154.58,251.39Z"/><path d="M158.31,251.39a5.85,5.85,0,0,1,.08-1,3.19,3.19,0,0,1,.29-.95,2,2,0,0,1,.59-.7,1.61,1.61,0,0,1,1-.28,1.55,1.55,0,0,1,1,.28,1.91,1.91,0,0,1,.59.7,3.2,3.2,0,0,1,.3.95,6.29,6.29,0,0,1,0,2,3.2,3.2,0,0,1-.3,1,1.91,1.91,0,0,1-.59.7,1.49,1.49,0,0,1-1,.28,1.54,1.54,0,0,1-1-.28,2,2,0,0,1-.59-.7,3.19,3.19,0,0,1-.29-1A5.85,5.85,0,0,1,158.31,251.39Zm.67,0c0,.14,0,.29,0,.47a4.43,4.43,0,0,0,.06.51,3.14,3.14,0,0,0,.12.51,1.67,1.67,0,0,0,.23.44,1,1,0,0,0,.34.31.9.9,0,0,0,.48.11,1,1,0,0,0,.48-.11,1.24,1.24,0,0,0,.34-.31,1.65,1.65,0,0,0,.22-.44,3.18,3.18,0,0,0,.13-.51,4.43,4.43,0,0,0,.06-.51c0-.18,0-.33,0-.47s0-.29,0-.46a4.6,4.6,0,0,0-.06-.52,3.18,3.18,0,0,0-.13-.51,1.65,1.65,0,0,0-.22-.44,1.21,1.21,0,0,0-.34-.3,1,1,0,0,0-.48-.12.9.9,0,0,0-.48.12,1,1,0,0,0-.34.3,1.67,1.67,0,0,0-.23.44,3.14,3.14,0,0,0-.12.51,4.6,4.6,0,0,0-.06.52C159,251.1,159,251.25,159,251.39Z"/><path d="M165.32,248.18H166v6h-.63Z"/><path d="M167.19,251.37c0-.17,0-.33,0-.48s0-.29,0-.41h.59c0,.1,0,.2,0,.3v.32h0a.91.91,0,0,1,.18-.27,1.64,1.64,0,0,1,.28-.23,1.5,1.5,0,0,1,.36-.16,1.44,1.44,0,0,1,.43-.06,1.52,1.52,0,0,1,.51.08,1.36,1.36,0,0,1,.34.18.93.93,0,0,1,.21.24,1.64,1.64,0,0,1,.12.22,1.78,1.78,0,0,1,.48-.53,1.27,1.27,0,0,1,.71-.19,1.88,1.88,0,0,1,.67.11,1.1,1.1,0,0,1,.44.31,1.37,1.37,0,0,1,.24.5,2.59,2.59,0,0,1,.07.65v2.27h-.62V252a2.33,2.33,0,0,0,0-.37,1,1,0,0,0-.15-.33.71.71,0,0,0-.28-.23,1,1,0,0,0-.45-.09,1,1,0,0,0-.37.08,1,1,0,0,0-.31.22,1.13,1.13,0,0,0-.21.35,1.33,1.33,0,0,0-.07.45v2.16h-.63V252.1a1.62,1.62,0,0,0-.17-.88A.6.6,0,0,0,169,251a1.18,1.18,0,0,0-.52.1.88.88,0,0,0-.36.3,1.14,1.14,0,0,0-.21.46,2.1,2.1,0,0,0-.07.58v1.82h-.62Z"/><line class="cls-1" x1="38.21" y1="253" x2="46.2" y2="253"/><path d="M235.17,251a1.66,1.66,0,0,0-.63-.52,1.93,1.93,0,0,0-.79-.17,2.13,2.13,0,0,0-.87.19,2.16,2.16,0,0,0-.68.52,2.58,2.58,0,0,0-.45.75,2.69,2.69,0,0,0-.16.89,2.79,2.79,0,0,0,.16.93,2.41,2.41,0,0,0,.45.74,2,2,0,0,0,.68.5,1.92,1.92,0,0,0,.87.19,2,2,0,0,0,1.64-.8l.51.43a2.38,2.38,0,0,1-.93.75,3,3,0,0,1-1.22.24,2.85,2.85,0,0,1-1.13-.22,2.82,2.82,0,0,1-.92-.62,3,3,0,0,1-.61-.94,3.33,3.33,0,0,1-.22-1.2,3.19,3.19,0,0,1,.21-1.16,2.9,2.9,0,0,1,.6-1,3.08,3.08,0,0,1,.91-.63,3,3,0,0,1,2.27,0,2,2,0,0,1,.89.68Z"/><path d="M239,253.1l0,0a1.35,1.35,0,0,1-.37.13,2.87,2.87,0,0,1-.39,0,1.68,1.68,0,0,1-.68-.13,1.5,1.5,0,0,1-.55-.36,1.92,1.92,0,0,1-.36-.56,2.11,2.11,0,0,1-.12-.73,1.75,1.75,0,0,1,.14-.74,1.63,1.63,0,0,1,.4-.56,1.79,1.79,0,0,1,.6-.35,2.36,2.36,0,0,1,.75-.12,2.27,2.27,0,0,1,.75.12,1.94,1.94,0,0,1,.61.35,1.49,1.49,0,0,1,.39.56,1.75,1.75,0,0,1,.15.74,2.19,2.19,0,0,1,0,.46c0,.14-.07.27-.11.4a2.53,2.53,0,0,1-.18.37,3.35,3.35,0,0,1-.21.36l-1.5,2.4h-.79Zm-.6-.43a1.51,1.51,0,0,0,.48-.08,1.28,1.28,0,0,0,.39-.24,1.12,1.12,0,0,0,.26-.38,1.27,1.27,0,0,0,.1-.5,1.26,1.26,0,0,0-.1-.49,1,1,0,0,0-.26-.38,1,1,0,0,0-.39-.24,1.33,1.33,0,0,0-1,0,.88.88,0,0,0-.38.24,1.19,1.19,0,0,0-.27.38,1.26,1.26,0,0,0-.09.49,1.28,1.28,0,0,0,.09.5,1.31,1.31,0,0,0,.27.38,1.12,1.12,0,0,0,.38.24A1.51,1.51,0,0,0,238.35,252.67Z"/><path d="M240.88,252.62a7.07,7.07,0,0,1,.08-1,2.88,2.88,0,0,1,.3-.94,2,2,0,0,1,.58-.71,1.84,1.84,0,0,1,1.92,0,2,2,0,0,1,.58.71,2.88,2.88,0,0,1,.3.94,7.07,7.07,0,0,1,.08,1,7,7,0,0,1-.08,1,2.86,2.86,0,0,1-.3.95,2,2,0,0,1-.58.71,1.84,1.84,0,0,1-1.92,0,2,2,0,0,1-.58-.71,2.86,2.86,0,0,1-.3-.95A7,7,0,0,1,240.88,252.62Zm.67,0c0,.14,0,.3,0,.47a4.43,4.43,0,0,0,.06.51,2.72,2.72,0,0,0,.13.51,1.51,1.51,0,0,0,.22.44,1.12,1.12,0,0,0,.34.31,1,1,0,0,0,1,0,1.12,1.12,0,0,0,.34-.31,1.51,1.51,0,0,0,.22-.44,2.72,2.72,0,0,0,.13-.51,4.43,4.43,0,0,0,.06-.51c0-.17,0-.33,0-.47s0-.29,0-.46a4.88,4.88,0,0,0-.06-.52,2.83,2.83,0,0,0-.13-.5,1.4,1.4,0,0,0-.22-.44,1.12,1.12,0,0,0-.34-.31,1,1,0,0,0-1,0,1.12,1.12,0,0,0-.34.31,1.4,1.4,0,0,0-.22.44,2.83,2.83,0,0,0-.13.5,4.88,4.88,0,0,0-.06.52C241.56,252.33,241.55,252.49,241.55,252.62Z"/><path d="M247.78,255.8l-.51-.2,2.41-6.14.5.19Z"/><path d="M257.1,251a1.66,1.66,0,0,0-.63-.52,1.92,1.92,0,0,0-.78-.17,2.06,2.06,0,0,0-.87.19,2.16,2.16,0,0,0-.68.52,2.21,2.21,0,0,0-.45.75,2.46,2.46,0,0,0-.16.89,2.56,2.56,0,0,0,.16.93,2.2,2.2,0,0,0,.44.74,2.1,2.1,0,0,0,.68.5,2,2,0,0,0,.88.19,2,2,0,0,0,.93-.21,2,2,0,0,0,.71-.59l.5.43a2.29,2.29,0,0,1-.92.75,3,3,0,0,1-1.22.24,2.8,2.8,0,0,1-2.05-.84,2.82,2.82,0,0,1-.61-.94,3.13,3.13,0,0,1-.22-1.2,3.19,3.19,0,0,1,.21-1.16,2.75,2.75,0,0,1,.6-1,3,3,0,0,1,.91-.63,2.93,2.93,0,0,1,1.16-.23,3,3,0,0,1,1.11.21,2,2,0,0,1,.89.68Z"/><path d="M258.46,254.69l2.14-2.08.35-.36a1.75,1.75,0,0,0,.25-.32,1,1,0,0,0,.15-.32,1.46,1.46,0,0,0,0-.38,1,1,0,0,0-.08-.4.93.93,0,0,0-.22-.3,1.13,1.13,0,0,0-.73-.26,1,1,0,0,0-.71.25,1.11,1.11,0,0,0-.36.66l-.73-.07a1.91,1.91,0,0,1,.21-.61,1.28,1.28,0,0,1,.39-.44,1.77,1.77,0,0,1,.53-.27,2.25,2.25,0,0,1,.64-.09,2.09,2.09,0,0,1,.67.1,1.53,1.53,0,0,1,.55.29,1.47,1.47,0,0,1,.37.48,1.39,1.39,0,0,1,.14.66,1.91,1.91,0,0,1-.09.61,1.8,1.8,0,0,1-.25.5,2.86,2.86,0,0,1-.35.43l-.41.41-1.75,1.64h2.89v.63h-3.65Z"/><path d="M266.35,250.42l-2.26,5h-.76l2.3-5H262.9v-.63h3.45Z"/><path d="M267.26,252.62a7.07,7.07,0,0,1,.08-1,3.45,3.45,0,0,1,.3-.94,2,2,0,0,1,.59-.71,1.82,1.82,0,0,1,1.91,0,2,2,0,0,1,.59.71,3.45,3.45,0,0,1,.3.94,7,7,0,0,1,.07,1,6.92,6.92,0,0,1-.07,1,3.41,3.41,0,0,1-.3.95,2,2,0,0,1-.59.71,1.82,1.82,0,0,1-1.91,0,2,2,0,0,1-.59-.71,3.41,3.41,0,0,1-.3-.95A7,7,0,0,1,267.26,252.62Zm.68,0c0,.14,0,.3,0,.47a4.43,4.43,0,0,0,.06.51,2.72,2.72,0,0,0,.13.51,1.53,1.53,0,0,0,.23.44,1,1,0,0,0,.34.31.89.89,0,0,0,.47.12,1,1,0,0,0,.49-.12,1.08,1.08,0,0,0,.33-.31,1.53,1.53,0,0,0,.23-.44,2.72,2.72,0,0,0,.13-.51,4.43,4.43,0,0,0,.06-.51c0-.17,0-.33,0-.47s0-.29,0-.46a4.88,4.88,0,0,0-.06-.52,2.83,2.83,0,0,0-.13-.5,1.41,1.41,0,0,0-.23-.44,1.08,1.08,0,0,0-.33-.31,1,1,0,0,0-.49-.12.89.89,0,0,0-.47.12,1,1,0,0,0-.34.31,1.41,1.41,0,0,0-.23.44,2.83,2.83,0,0,0-.13.5,4.88,4.88,0,0,0-.06.52C267.94,252.33,267.94,252.49,267.94,252.62Z"/><path d="M52.87,251a1.55,1.55,0,0,0-.63-.51,1.82,1.82,0,0,0-.79-.18,2,2,0,0,0-.87.2,2.13,2.13,0,0,0-.68.51,2.58,2.58,0,0,0-.45.75,2.67,2.67,0,0,0,0,1.82,2.29,2.29,0,0,0,.45.74,1.88,1.88,0,0,0,.68.5,1.92,1.92,0,0,0,.87.19,2,2,0,0,0,.93-.21,2.07,2.07,0,0,0,.71-.58l.51.42a2.38,2.38,0,0,1-.93.75,3,3,0,0,1-1.22.24,2.85,2.85,0,0,1-1.13-.22,2.82,2.82,0,0,1-.92-.62,3,3,0,0,1-.61-.94,3.27,3.27,0,0,1-.22-1.19,3.2,3.2,0,0,1,.21-1.17,3,3,0,0,1,.6-.95,3.08,3.08,0,0,1,.91-.63,3,3,0,0,1,2.27,0,2,2,0,0,1,.89.68Z"/><path d="M54.13,252.62a7,7,0,0,1,.08-1,3.11,3.11,0,0,1,.3-1,1.94,1.94,0,0,1,.59-.71,1.55,1.55,0,0,1,.95-.27,1.6,1.6,0,0,1,1,.27,2,2,0,0,1,.59.71,3.1,3.1,0,0,1,.29,1,5.77,5.77,0,0,1,.08,1,5.85,5.85,0,0,1-.08,1,3.13,3.13,0,0,1-.29.94,2,2,0,0,1-.59.71,1.6,1.6,0,0,1-1,.27,1.55,1.55,0,0,1-.95-.27,1.94,1.94,0,0,1-.59-.71,3.14,3.14,0,0,1-.3-.94A7.07,7.07,0,0,1,54.13,252.62Zm.67,0c0,.13,0,.29,0,.46a4.88,4.88,0,0,0,.06.52,2.83,2.83,0,0,0,.13.5,1.4,1.4,0,0,0,.22.44,1.1,1.1,0,0,0,.34.31,1,1,0,0,0,.48.12.9.9,0,0,0,.48-.12.92.92,0,0,0,.34-.31,1.41,1.41,0,0,0,.23-.44,2.8,2.8,0,0,0,.12-.5,4.88,4.88,0,0,0,.06-.52,3.86,3.86,0,0,0,0-.46,3.94,3.94,0,0,0,0-.47,4.43,4.43,0,0,0-.06-.51,2.71,2.71,0,0,0-.12-.51,1.53,1.53,0,0,0-.23-.44,1,1,0,0,0-.34-.31.9.9,0,0,0-.48-.12,1,1,0,0,0-.48.12,1.24,1.24,0,0,0-.34.31,1.51,1.51,0,0,0-.22.44,2.72,2.72,0,0,0-.13.51,4.43,4.43,0,0,0-.06.51C54.81,252.32,54.8,252.48,54.8,252.62Z"/><path d="M61,255.79l-.51-.2,2.41-6.14.51.19Z"/><path d="M70.36,251a1.52,1.52,0,0,0-.64-.51,1.78,1.78,0,0,0-.78-.18,2,2,0,0,0-.87.2,2.13,2.13,0,0,0-.68.51,2.58,2.58,0,0,0-.45.75,2.51,2.51,0,0,0-.16.9,2.54,2.54,0,0,0,.16.92,2.46,2.46,0,0,0,.44.74,2.09,2.09,0,0,0,1.56.69,2,2,0,0,0,.93-.21,2.07,2.07,0,0,0,.71-.58l.5.42a2.29,2.29,0,0,1-.92.75,3,3,0,0,1-1.22.24,2.93,2.93,0,0,1-1.14-.22,2.88,2.88,0,0,1-.91-.62,3,3,0,0,1-.61-.94,3.07,3.07,0,0,1-.22-1.19,3.2,3.2,0,0,1,.21-1.17,2.84,2.84,0,0,1,.6-.95,3,3,0,0,1,.91-.63,2.93,2.93,0,0,1,1.16-.23,3,3,0,0,1,1.11.21,2,2,0,0,1,.89.68Z"/><path d="M74.2,255.45h-.68v-4.8h0l-1,.85-.4-.48,1.52-1.24h.59Z"/><path d="M76.37,251.17a1.33,1.33,0,0,1,.13-.61,1.2,1.2,0,0,1,.34-.46,1.44,1.44,0,0,1,.51-.3,1.92,1.92,0,0,1,1.28,0,1.44,1.44,0,0,1,.51.3,1.32,1.32,0,0,1,.34.46,1.48,1.48,0,0,1,.12.61,1.44,1.44,0,0,1-.06.4,1.41,1.41,0,0,1-.18.37,1.18,1.18,0,0,1-.3.29,1,1,0,0,1-.38.19h0a1.44,1.44,0,0,1,.46.19,1.35,1.35,0,0,1,.35.32,1.67,1.67,0,0,1,.23.44,1.7,1.7,0,0,1,.08.51,1.74,1.74,0,0,1-.14.69,1.46,1.46,0,0,1-.39.52,1.47,1.47,0,0,1-.57.33,2.35,2.35,0,0,1-1.42,0,1.59,1.59,0,0,1-.58-.33,1.43,1.43,0,0,1-.38-.52,1.74,1.74,0,0,1-.14-.69,1.7,1.7,0,0,1,.08-.51,1.65,1.65,0,0,1,.22-.44,1.59,1.59,0,0,1,.36-.32,1.44,1.44,0,0,1,.46-.19h0a1.18,1.18,0,0,1-.39-.19,1.33,1.33,0,0,1-.29-.29,1.41,1.41,0,0,1-.18-.37A1.16,1.16,0,0,1,76.37,251.17Zm.48,2.67a1.14,1.14,0,0,0,.09.46,1.21,1.21,0,0,0,.24.35,1.16,1.16,0,0,0,.36.23A1.13,1.13,0,0,0,78,255a1,1,0,0,0,.44-.09,1,1,0,0,0,.36-.23,1.07,1.07,0,0,0,.25-.35,1.36,1.36,0,0,0,0-.92,1.07,1.07,0,0,0-.25-.35,1,1,0,0,0-.36-.23,1,1,0,0,0-.44-.09,1.13,1.13,0,0,0-.45.09,1.16,1.16,0,0,0-.36.23,1.21,1.21,0,0,0-.24.35A1.14,1.14,0,0,0,76.85,253.84ZM77,251.2a.92.92,0,0,0,.26.67.93.93,0,0,0,.69.27.9.9,0,0,0,.68-.27,1,1,0,0,0,0-1.34.9.9,0,0,0-.68-.27.93.93,0,0,0-.69.27A.92.92,0,0,0,77,251.2Z"/><path d="M80.52,252.62a5.77,5.77,0,0,1,.08-1,3.1,3.1,0,0,1,.29-1,2,2,0,0,1,.59-.71,1.6,1.6,0,0,1,1-.27,1.55,1.55,0,0,1,1,.27,1.94,1.94,0,0,1,.59.71,3.41,3.41,0,0,1,.3,1,7,7,0,0,1,.08,1,7.07,7.07,0,0,1-.08,1,3.45,3.45,0,0,1-.3.94,1.94,1.94,0,0,1-.59.71,1.55,1.55,0,0,1-1,.27,1.6,1.6,0,0,1-1-.27,2,2,0,0,1-.59-.71,3.13,3.13,0,0,1-.29-.94A5.85,5.85,0,0,1,80.52,252.62Zm.67,0a3.86,3.86,0,0,0,0,.46c0,.17,0,.34.05.52a4.07,4.07,0,0,0,.13.5,1.41,1.41,0,0,0,.23.44.92.92,0,0,0,.34.31.9.9,0,0,0,.48.12,1,1,0,0,0,.48-.12,1.1,1.1,0,0,0,.34-.31,1.65,1.65,0,0,0,.22-.44,2.83,2.83,0,0,0,.13-.5,4.88,4.88,0,0,0,.06-.52c0-.17,0-.33,0-.46s0-.3,0-.47a4.43,4.43,0,0,0-.06-.51,2.72,2.72,0,0,0-.13-.51,1.81,1.81,0,0,0-.22-.44,1.24,1.24,0,0,0-.34-.31,1,1,0,0,0-.48-.12.9.9,0,0,0-.48.12,1,1,0,0,0-.34.31,1.53,1.53,0,0,0-.23.44,3.8,3.8,0,0,0-.13.51c0,.17,0,.34-.05.51A3.94,3.94,0,0,0,81.19,252.62Z"/><line class="cls-2" x1="214.49" y1="253.42" x2="215.03" y2="253.42"/><line class="cls-2" x1="217.76" y1="253.42" x2="218.3" y2="253.42"/><line class="cls-2" x1="221.02" y1="253.42" x2="221.56" y2="253.42"/><line class="cls-2" x1="224.29" y1="253.42" x2="224.83" y2="253.42"/><line class="cls-2" x1="227.55" y1="253.42" x2="228.09" y2="253.42"/></g><g id="COPYCAT"><path d="M56.07,12.53h4.39v.78H56.91v2.34h3.3v.78h-3.3v3.18h-.84Z"/><path d="M64.35,19.61h-.84v-6h0l-1.27,1.07-.5-.61,1.9-1.54h.73Z"/><path d="M69.83,16.66l0,0a1.91,1.91,0,0,1-.46.16,3,3,0,0,1-.49.05,2.38,2.38,0,0,1-.85-.16,2,2,0,0,1-.68-.46,2.11,2.11,0,0,1-.45-.7,2.57,2.57,0,0,1-.16-.9,2.27,2.27,0,0,1,.18-.93,2,2,0,0,1,.5-.7,2.48,2.48,0,0,1,.76-.44,3,3,0,0,1,1.87,0,2.32,2.32,0,0,1,.75.44,1.87,1.87,0,0,1,.5.7,2.27,2.27,0,0,1,.18.93,2.63,2.63,0,0,1,0,.57,2.85,2.85,0,0,1-.14.5,3.82,3.82,0,0,1-.21.46c-.08.15-.17.3-.27.46l-1.88,3h-1Zm-.74-.53a1.64,1.64,0,0,0,.6-.11,1.36,1.36,0,0,0,.81-.77,1.66,1.66,0,0,0,0-1.24,1.49,1.49,0,0,0-.32-.48,1.44,1.44,0,0,0-.49-.3,1.64,1.64,0,0,0-.6-.1,1.72,1.72,0,0,0-.6.1,1.5,1.5,0,0,0-.48.3,1.37,1.37,0,0,0-.33.48,1.66,1.66,0,0,0,0,1.24,1.33,1.33,0,0,0,.33.47,1.5,1.5,0,0,0,.48.3A1.73,1.73,0,0,0,69.09,16.13Z"/><path d="M76.61,13.31H73.72l0,1.91a1.69,1.69,0,0,1,.45-.14l.46,0a2.52,2.52,0,0,1,.93.17,2.13,2.13,0,0,1,1.17,1.23,2.56,2.56,0,0,1,.16.93,2.49,2.49,0,0,1-.18,1,2,2,0,0,1-.51.74,2.33,2.33,0,0,1-.77.48,2.78,2.78,0,0,1-1,.17,2.22,2.22,0,0,1-1.3-.35,2.6,2.6,0,0,1-.79-.94l.84-.32a1.58,1.58,0,0,0,.53.64,1.28,1.28,0,0,0,.79.25,1.46,1.46,0,0,0,.6-.12,1.29,1.29,0,0,0,.48-.33,1.48,1.48,0,0,0,.32-.51,1.81,1.81,0,0,0,.12-.67,1.67,1.67,0,0,0-.13-.69,1.46,1.46,0,0,0-.37-.51,1.69,1.69,0,0,0-.56-.31,2.17,2.17,0,0,0-.69-.1,2.48,2.48,0,0,0-.74.12,4.05,4.05,0,0,0-.7.32l.07-3.68h3.71Z"/><path d="M77.93,18.65l2.67-2.6A6,6,0,0,0,81,15.6a2.24,2.24,0,0,0,.32-.4,1.59,1.59,0,0,0,.18-.4,1.73,1.73,0,0,0,.06-.47,1.12,1.12,0,0,0-.1-.5,1,1,0,0,0-.27-.38,1.38,1.38,0,0,0-.41-.24,1.7,1.7,0,0,0-.51-.08,1.29,1.29,0,0,0-.89.31,1.44,1.44,0,0,0-.45.82l-.91-.08a2.34,2.34,0,0,1,.27-.77,1.73,1.73,0,0,1,.49-.55,2.3,2.3,0,0,1,.66-.34,3,3,0,0,1,.8-.11,2.78,2.78,0,0,1,.83.12,2.29,2.29,0,0,1,.69.37,1.74,1.74,0,0,1,.47.6,1.81,1.81,0,0,1,.17.83,2.29,2.29,0,0,1-.11.76,2.77,2.77,0,0,1-.31.62,4.51,4.51,0,0,1-.44.54c-.16.17-.34.34-.52.51l-2.18,2v0h3.61v.78H77.93Z"/><path d="M83.37,16.07a9.14,9.14,0,0,1,.1-1.25,4,4,0,0,1,.37-1.19,2.53,2.53,0,0,1,.74-.88,2.27,2.27,0,0,1,2.39,0,2.5,2.5,0,0,1,.73.88,3.77,3.77,0,0,1,.37,1.19,7.79,7.79,0,0,1,.1,1.25,7.88,7.88,0,0,1-.1,1.25,3.71,3.71,0,0,1-.37,1.18,2.41,2.41,0,0,1-.73.88,2.22,2.22,0,0,1-2.39,0,2.44,2.44,0,0,1-.74-.88,4,4,0,0,1-.37-1.18A9.26,9.26,0,0,1,83.37,16.07Zm.84,0c0,.17,0,.36,0,.58s0,.43.08.64a4.61,4.61,0,0,0,.16.64,2,2,0,0,0,.28.55,1.37,1.37,0,0,0,.42.38,1.16,1.16,0,0,0,.6.15,1.11,1.11,0,0,0,.6-.15,1.3,1.3,0,0,0,.43-.38,2,2,0,0,0,.28-.55,4.79,4.79,0,0,0,.23-1.28c0-.22,0-.41,0-.58s0-.37,0-.58a4.78,4.78,0,0,0-.07-.65,4.47,4.47,0,0,0-.16-.63,1.9,1.9,0,0,0-.28-.55,1.45,1.45,0,0,0-.43-.39,1.21,1.21,0,0,0-.6-.14,1.27,1.27,0,0,0-.6.14,1.55,1.55,0,0,0-.42.39,1.9,1.9,0,0,0-.28.55,4.47,4.47,0,0,0-.16.63c0,.22-.06.43-.08.65S84.21,15.89,84.21,16.07Z"/><path d="M88.55,20.36h5v.5h-5Z"/><path d="M97.15,19.61h-.84v-6h0L95,14.68l-.5-.61,1.9-1.54h.73Z"/><path d="M101.15,15.48l0,0a1.37,1.37,0,0,1,.47-.16,2.37,2.37,0,0,1,1.34.11,1.93,1.93,0,0,1,1.12,1.16,2.36,2.36,0,0,1,.16.9,2.34,2.34,0,0,1-.18.93,1.92,1.92,0,0,1-.5.69,2.16,2.16,0,0,1-.75.44,2.81,2.81,0,0,1-1.87,0,2.3,2.3,0,0,1-.76-.44,2,2,0,0,1-.5-.69,2.34,2.34,0,0,1-.18-.93,2.88,2.88,0,0,1,.19-1.07,6.22,6.22,0,0,1,.48-.92l1.88-3h1Zm.74.53a1.72,1.72,0,0,0-.6.1,1.5,1.5,0,0,0-.48.3,1.37,1.37,0,0,0-.33.48,1.66,1.66,0,0,0,0,1.24,1.33,1.33,0,0,0,.33.47,1.5,1.5,0,0,0,.48.3,1.73,1.73,0,0,0,.6.11,1.64,1.64,0,0,0,.6-.11,1.44,1.44,0,0,0,.49-.3,1.31,1.31,0,0,0,.32-.47,1.66,1.66,0,0,0,0-1.24,1.35,1.35,0,0,0-.32-.48,1.44,1.44,0,0,0-.49-.3A1.64,1.64,0,0,0,101.89,16Z"/><path d="M104.73,12.53h.93l1.61,5.88h0L109,12.53H110l1.73,5.88h0l1.64-5.88h.88l-2.08,7.08h-.91l-1.75-6h0l-1.76,6h-.92Z"/><path d="M117.89,12.53h.84v6.3H122v.78h-4.08Z"/><path d="M122.89,12.53h4.45v.78h-3.61v2.22h3.37v.78h-3.37v2.52h3.79v.78h-4.63Z"/><path d="M128.69,12.53h2.72a3.22,3.22,0,0,1,.74.08,3.92,3.92,0,0,1,.78.25,3.63,3.63,0,0,1,.74.46,3.07,3.07,0,0,1,.62.67,3.32,3.32,0,0,1,.43.91,3.85,3.85,0,0,1,.16,1.17,3.78,3.78,0,0,1-.16,1.16,3.07,3.07,0,0,1-.43.91,3.12,3.12,0,0,1-.62.68,3.57,3.57,0,0,1-.74.45,4,4,0,0,1-.78.26,3.89,3.89,0,0,1-.74.08h-2.72Zm.84,6.3h1.6a4,4,0,0,0,1.13-.16,2.33,2.33,0,0,0,.9-.5,2.19,2.19,0,0,0,.6-.85,3.17,3.17,0,0,0,.22-1.25,3.11,3.11,0,0,0-.22-1.25,2.22,2.22,0,0,0-.6-.86,2.31,2.31,0,0,0-.9-.49,3.67,3.67,0,0,0-1.13-.16h-1.6Z"/><rect class="cls-3" x="55.17" y="42.33" width="189.86" height="189.86"/><circle class="cls-4" cx="150.11" cy="137.21" r="17.23"/><path d="M151.15,160.72l2.14-2.08.35-.36a2.16,2.16,0,0,0,.25-.32,1,1,0,0,0,.15-.32,1.52,1.52,0,0,0,.05-.38,1,1,0,0,0-.08-.4.84.84,0,0,0-.22-.3.89.89,0,0,0-.33-.19,1.05,1.05,0,0,0-.4-.07,1,1,0,0,0-.71.25,1.08,1.08,0,0,0-.36.65l-.73-.06a1.7,1.7,0,0,1,.21-.61,1.55,1.55,0,0,1,.39-.45,2,2,0,0,1,.53-.26,1.91,1.91,0,0,1,.64-.1,2.41,2.41,0,0,1,.67.1,1.72,1.72,0,0,1,.55.3,1.29,1.29,0,0,1,.37.48,1.39,1.39,0,0,1,.14.66,2,2,0,0,1-.09.61,1.8,1.8,0,0,1-.25.5,3.47,3.47,0,0,1-.35.43c-.13.14-.27.27-.41.4l-1.75,1.64v0h2.89v.62h-3.65Z"/><path d="M155.46,158.65a5.85,5.85,0,0,1,.08-1,3.28,3.28,0,0,1,.29-1,2,2,0,0,1,.59-.7,1.61,1.61,0,0,1,1-.28,1.55,1.55,0,0,1,1,.28,1.91,1.91,0,0,1,.59.7,3,3,0,0,1,.3,1,7.07,7.07,0,0,1,.08,1,7,7,0,0,1-.08,1,2.86,2.86,0,0,1-.3.95,1.83,1.83,0,0,1-.59.7,1.49,1.49,0,0,1-1,.28,1.54,1.54,0,0,1-1-.28,1.92,1.92,0,0,1-.59-.7,3.1,3.1,0,0,1-.29-.95A5.77,5.77,0,0,1,155.46,158.65Zm.67,0c0,.14,0,.3,0,.47a4.43,4.43,0,0,0,.06.51,3.81,3.81,0,0,0,.12.51,1.53,1.53,0,0,0,.23.44,1,1,0,0,0,.34.31.9.9,0,0,0,.48.11,1,1,0,0,0,.48-.11,1.24,1.24,0,0,0,.34-.31,1.51,1.51,0,0,0,.22-.44,2.72,2.72,0,0,0,.13-.51,4.43,4.43,0,0,0,.06-.51c0-.17,0-.33,0-.47s0-.29,0-.46a4.88,4.88,0,0,0-.06-.52,3.18,3.18,0,0,0-.13-.51,1.65,1.65,0,0,0-.22-.44,1.21,1.21,0,0,0-.34-.3,1,1,0,0,0-.48-.12.9.9,0,0,0-.48.12,1,1,0,0,0-.34.3,1.67,1.67,0,0,0-.23.44,4.7,4.7,0,0,0-.12.51,4.88,4.88,0,0,0-.06.52C156.14,158.36,156.13,158.51,156.13,158.65Z"/><circle class="cls-4" cx="150.11" cy="137.21" r="34.45"/><path d="M154.11,176.79h.81v.63h-.81v1.29h-.68v-1.29H151v-.75l2.25-3.62h.83Zm-.68-3h0l-1.81,3h1.82Z"/><path d="M155.46,175.88a5.85,5.85,0,0,1,.08-1,3.19,3.19,0,0,1,.29-.95,2,2,0,0,1,.59-.7,1.54,1.54,0,0,1,1-.28,1.49,1.49,0,0,1,1,.28,1.91,1.91,0,0,1,.59.7,2.94,2.94,0,0,1,.3.95,6.29,6.29,0,0,1,0,2,2.94,2.94,0,0,1-.3,1,1.91,1.91,0,0,1-.59.7,1.55,1.55,0,0,1-1,.28,1.61,1.61,0,0,1-1-.28,2,2,0,0,1-.59-.7,3.19,3.19,0,0,1-.29-1A5.85,5.85,0,0,1,155.46,175.88Zm.67,0c0,.14,0,.29,0,.46a4.6,4.6,0,0,0,.06.52,4.7,4.7,0,0,0,.12.51,1.67,1.67,0,0,0,.23.44,1.13,1.13,0,0,0,.34.31,1,1,0,0,0,.48.11,1.06,1.06,0,0,0,.48-.11,1.43,1.43,0,0,0,.34-.31,1.65,1.65,0,0,0,.22-.44,3.18,3.18,0,0,0,.13-.51,4.6,4.6,0,0,0,.06-.52c0-.17,0-.32,0-.46s0-.29,0-.46a4.35,4.35,0,0,0-.06-.52,3.18,3.18,0,0,0-.13-.51,1.65,1.65,0,0,0-.22-.44,1.24,1.24,0,0,0-.34-.31,1.06,1.06,0,0,0-.48-.11,1,1,0,0,0-.48.11,1,1,0,0,0-.34.31,1.67,1.67,0,0,0-.23.44,4.7,4.7,0,0,0-.12.51,4.35,4.35,0,0,0-.06.52C156.14,175.59,156.13,175.74,156.13,175.88Z"/><circle class="cls-4" cx="150.11" cy="137.21" r="51.73"/><path d="M152.39,192.69h0a1.07,1.07,0,0,1,.37-.12,2,2,0,0,1,1.08.08,1.58,1.58,0,0,1,.54.37,1.69,1.69,0,0,1,.36.56,2.09,2.09,0,0,1,.12.72,1.79,1.79,0,0,1-.14.75,1.69,1.69,0,0,1-.4.55,1.79,1.79,0,0,1-.6.35,2.08,2.08,0,0,1-.75.13,2,2,0,0,1-.75-.13,1.79,1.79,0,0,1-.6-.35,1.56,1.56,0,0,1-.4-.55,1.79,1.79,0,0,1-.15-.75,2.22,2.22,0,0,1,.15-.85,4,4,0,0,1,.39-.74l1.5-2.39h.79Zm.59.42a1.28,1.28,0,0,0-.48.09,1,1,0,0,0-.39.24,1,1,0,0,0-.26.38,1.26,1.26,0,0,0-.1.49,1.27,1.27,0,0,0,.1.5,1.12,1.12,0,0,0,.26.38,1.28,1.28,0,0,0,.39.24,1.48,1.48,0,0,0,1,0,1.14,1.14,0,0,0,.74-1.12,1.26,1.26,0,0,0-.09-.49,1.16,1.16,0,0,0-.26-.38,1,1,0,0,0-.39-.24A1.28,1.28,0,0,0,153,193.11Z"/><path d="M155.46,193.16a5.85,5.85,0,0,1,.08-1,3.19,3.19,0,0,1,.29-.95,2,2,0,0,1,.59-.7,1.54,1.54,0,0,1,1-.28,1.49,1.49,0,0,1,1,.28,1.91,1.91,0,0,1,.59.7,2.94,2.94,0,0,1,.3.95,6.29,6.29,0,0,1,0,2,2.94,2.94,0,0,1-.3,1,1.91,1.91,0,0,1-.59.7,1.49,1.49,0,0,1-1,.28,1.54,1.54,0,0,1-1-.28,2,2,0,0,1-.59-.7,3.19,3.19,0,0,1-.29-1A5.85,5.85,0,0,1,155.46,193.16Zm.67,0c0,.14,0,.29,0,.46a4.6,4.6,0,0,0,.06.52,4.7,4.7,0,0,0,.12.51,1.67,1.67,0,0,0,.23.44,1.13,1.13,0,0,0,.34.31,1,1,0,0,0,.48.11,1.06,1.06,0,0,0,.48-.11,1.43,1.43,0,0,0,.34-.31,1.65,1.65,0,0,0,.22-.44,3.18,3.18,0,0,0,.13-.51,4.6,4.6,0,0,0,.06-.52c0-.17,0-.32,0-.46s0-.29,0-.46a4.35,4.35,0,0,0-.06-.52,3.18,3.18,0,0,0-.13-.51,1.65,1.65,0,0,0-.22-.44,1.24,1.24,0,0,0-.34-.31,1.06,1.06,0,0,0-.48-.11,1,1,0,0,0-.48.11,1,1,0,0,0-.34.31,1.67,1.67,0,0,0-.23.44,4.7,4.7,0,0,0-.12.51,4.35,4.35,0,0,0-.06.52C156.14,192.87,156.13,193,156.13,193.16Z"/><circle class="cls-4" cx="150.11" cy="137.21" r="69.01"/><path d="M151.36,209a1.36,1.36,0,0,1,.13-.61,1.28,1.28,0,0,1,.34-.46,1.44,1.44,0,0,1,.51-.3,1.92,1.92,0,0,1,1.28,0,1.44,1.44,0,0,1,.51.3,1.41,1.41,0,0,1,.34.46,1.51,1.51,0,0,1,.12.61,1.39,1.39,0,0,1-.06.4,1.27,1.27,0,0,1-.18.37,1.42,1.42,0,0,1-.3.3,1.21,1.21,0,0,1-.38.18v0a1.43,1.43,0,0,1,.46.18,1.23,1.23,0,0,1,.35.33,1.61,1.61,0,0,1,.23.43,1.81,1.81,0,0,1,.08.51,1.67,1.67,0,0,1-.14.69,1.74,1.74,0,0,1-.39.53,1.78,1.78,0,0,1-.57.33,2.4,2.4,0,0,1-.71.11,2.35,2.35,0,0,1-.71-.11,1.94,1.94,0,0,1-.58-.33,1.56,1.56,0,0,1-.38-.53,1.67,1.67,0,0,1-.14-.69,1.81,1.81,0,0,1,.08-.51,1.59,1.59,0,0,1,.22-.43,1.42,1.42,0,0,1,.36-.33,1.34,1.34,0,0,1,.46-.18v0a1.38,1.38,0,0,1-.39-.18,1.64,1.64,0,0,1-.29-.3,1.27,1.27,0,0,1-.18-.37A1.12,1.12,0,0,1,151.36,209Zm.48,2.67a1.15,1.15,0,0,0,.33.82,1.69,1.69,0,0,0,.36.23,1.33,1.33,0,0,0,.45.08,1.23,1.23,0,0,0,.44-.08,1.31,1.31,0,0,0,.36-.23,1,1,0,0,0,.25-.36,1.34,1.34,0,0,0,.08-.46,1.33,1.33,0,0,0-.08-.45,1,1,0,0,0-.25-.36,1.11,1.11,0,0,0-.36-.23,1,1,0,0,0-.44-.08,1.12,1.12,0,0,0-.45.08,1.38,1.38,0,0,0-.36.23,1.15,1.15,0,0,0-.33.81ZM152,209a.94.94,0,0,0,.26.68,1,1,0,0,0,.69.26.93.93,0,0,0,.68-.26,1,1,0,0,0,0-1.35.93.93,0,0,0-.68-.26,1,1,0,0,0-.69.26A.94.94,0,0,0,152,209Z"/><path d="M155.46,210.44a5.85,5.85,0,0,1,.08-1,3.19,3.19,0,0,1,.29-.95,2,2,0,0,1,.59-.7,1.54,1.54,0,0,1,1-.28,1.49,1.49,0,0,1,1,.28,1.91,1.91,0,0,1,.59.7,2.94,2.94,0,0,1,.3.95,6.29,6.29,0,0,1,0,2,2.94,2.94,0,0,1-.3.95,1.91,1.91,0,0,1-.59.7,1.49,1.49,0,0,1-1,.28,1.54,1.54,0,0,1-1-.28,2,2,0,0,1-.59-.7,3.19,3.19,0,0,1-.29-.95A5.85,5.85,0,0,1,155.46,210.44Zm.67,0c0,.14,0,.29,0,.46a4.6,4.6,0,0,0,.06.52,4.7,4.7,0,0,0,.12.51,1.67,1.67,0,0,0,.23.44,1,1,0,0,0,.34.31,1,1,0,0,0,.48.11,1.06,1.06,0,0,0,.48-.11,1.24,1.24,0,0,0,.34-.31,1.65,1.65,0,0,0,.22-.44,3.18,3.18,0,0,0,.13-.51,4.6,4.6,0,0,0,.06-.52c0-.17,0-.32,0-.46s0-.29,0-.46a4.35,4.35,0,0,0-.06-.52,3.18,3.18,0,0,0-.13-.51,1.65,1.65,0,0,0-.22-.44,1.24,1.24,0,0,0-.34-.31,1.06,1.06,0,0,0-.48-.11,1,1,0,0,0-.48.11,1,1,0,0,0-.34.31,1.67,1.67,0,0,0-.23.44,4.7,4.7,0,0,0-.12.51,4.35,4.35,0,0,0-.06.52C156.14,210.15,156.13,210.3,156.13,210.44Z"/><circle class="cls-4" cx="150.11" cy="137.21" r="86.29"/><path d="M153.63,230.55H153v-4.8h0l-1,.86-.4-.49,1.52-1.23h.58Z"/><path d="M155.46,227.72a5.85,5.85,0,0,1,.08-1,3.19,3.19,0,0,1,.29-.95,2,2,0,0,1,.59-.7,1.54,1.54,0,0,1,1-.28,1.49,1.49,0,0,1,1,.28,1.91,1.91,0,0,1,.59.7,2.94,2.94,0,0,1,.3.95,6.29,6.29,0,0,1,0,2,2.94,2.94,0,0,1-.3.95,1.91,1.91,0,0,1-.59.7,1.55,1.55,0,0,1-1,.28,1.61,1.61,0,0,1-1-.28,2,2,0,0,1-.59-.7,3.19,3.19,0,0,1-.29-.95A5.85,5.85,0,0,1,155.46,227.72Zm.67,0c0,.14,0,.29,0,.46a4.6,4.6,0,0,0,.06.52,4.7,4.7,0,0,0,.12.51,1.67,1.67,0,0,0,.23.44,1.13,1.13,0,0,0,.34.31,1,1,0,0,0,.48.11,1.06,1.06,0,0,0,.48-.11,1.43,1.43,0,0,0,.34-.31,1.65,1.65,0,0,0,.22-.44,3.18,3.18,0,0,0,.13-.51,4.6,4.6,0,0,0,.06-.52c0-.17,0-.32,0-.46s0-.29,0-.47a4.43,4.43,0,0,0-.06-.51,3.18,3.18,0,0,0-.13-.51,1.65,1.65,0,0,0-.22-.44,1.24,1.24,0,0,0-.34-.31,1.06,1.06,0,0,0-.48-.11,1,1,0,0,0-.48.11,1,1,0,0,0-.34.31,1.67,1.67,0,0,0-.23.44,4.7,4.7,0,0,0-.12.51,4.43,4.43,0,0,0-.06.51C156.14,227.43,156.13,227.58,156.13,227.72Z"/><path d="M159.91,227.72a5.85,5.85,0,0,1,.08-1,3.19,3.19,0,0,1,.29-.95,2,2,0,0,1,.59-.7,1.54,1.54,0,0,1,1-.28,1.51,1.51,0,0,1,.95.28,1.91,1.91,0,0,1,.59.7,3.52,3.52,0,0,1,.3.95,6.29,6.29,0,0,1,0,2,3.52,3.52,0,0,1-.3.95,1.91,1.91,0,0,1-.59.7,1.57,1.57,0,0,1-.95.28,1.61,1.61,0,0,1-1-.28,2,2,0,0,1-.59-.7,3.19,3.19,0,0,1-.29-.95A5.85,5.85,0,0,1,159.91,227.72Zm.67,0c0,.14,0,.29,0,.46a4.6,4.6,0,0,0,.06.52,4.77,4.77,0,0,0,.13.51,1.67,1.67,0,0,0,.23.44,1.13,1.13,0,0,0,.34.31,1,1,0,0,0,.48.11,1.06,1.06,0,0,0,.48-.11,1.43,1.43,0,0,0,.34-.31,2,2,0,0,0,.22-.44,3.18,3.18,0,0,0,.13-.51,4.6,4.6,0,0,0,.06-.52c0-.17,0-.32,0-.46s0-.29,0-.47a4.43,4.43,0,0,0-.06-.51,3.18,3.18,0,0,0-.13-.51,2,2,0,0,0-.22-.44,1.24,1.24,0,0,0-.34-.31,1.06,1.06,0,0,0-.48-.11,1,1,0,0,0-.48.11,1,1,0,0,0-.34.31,1.67,1.67,0,0,0-.23.44,4.77,4.77,0,0,0-.13.51,4.43,4.43,0,0,0-.06.51C160.58,227.43,160.58,227.58,160.58,227.72Z"/><line class="cls-4" x1="55.17" y1="137.26" x2="245.09" y2="137.26"/><line class="cls-4" x1="150.11" y1="232.19" x2="150.11" y2="42.28"/><line class="cls-4" x1="95.35" y1="42.28" x2="204.92" y2="232.19"/><line class="cls-4" x1="95.35" y1="232.19" x2="204.92" y2="42.28"/><line class="cls-4" x1="55.17" y1="82.45" x2="245.09" y2="192.02"/><line class="cls-4" x1="55.17" y1="192.02" x2="245.09" y2="82.45"/><line class="cls-5" x1="150.11" y1="200.39" x2="151.19" y2="200.28"/><line class="cls-5" x1="151.19" y1="200.28" x2="152.32" y2="200.17"/><line class="cls-5" x1="152.32" y1="200.17" x2="153.4" y2="200.01"/><line class="cls-5" x1="153.4" y1="200.01" x2="154.48" y2="199.85"/><line class="cls-5" x1="154.48" y1="199.85" x2="155.56" y2="199.63"/><line class="cls-5" x1="155.56" y1="199.63" x2="156.64" y2="199.42"/><line class="cls-5" x1="156.64" y1="199.42" x2="157.72" y2="199.15"/><line class="cls-5" x1="157.72" y1="199.15" x2="158.8" y2="198.88"/><line class="cls-5" x1="158.8" y1="198.88" x2="159.83" y2="198.61"/><line class="cls-5" x1="159.83" y1="198.61" x2="160.85" y2="198.28"/><line class="cls-5" x1="160.85" y1="198.28" x2="161.93" y2="197.96"/><line class="cls-5" x1="161.93" y1="197.96" x2="162.96" y2="197.58"/><line class="cls-5" x1="162.96" y1="197.58" x2="163.98" y2="197.2"/><line class="cls-5" x1="163.98" y1="197.2" x2="164.96" y2="196.82"/><line class="cls-5" x1="164.96" y1="196.82" x2="165.98" y2="196.45"/><line class="cls-5" x1="165.98" y1="196.45" x2="166.95" y2="196.01"/><line class="cls-5" x1="166.95" y1="196.01" x2="167.93" y2="195.58"/><line class="cls-5" x1="167.93" y1="195.58" x2="168.95" y2="195.15"/><line class="cls-5" x1="168.95" y1="195.15" x2="169.92" y2="194.66"/><line class="cls-5" x1="169.92" y1="194.66" x2="170.84" y2="194.18"/><line class="cls-5" x1="170.84" y1="194.18" x2="171.81" y2="193.69"/><line class="cls-5" x1="171.81" y1="193.69" x2="172.73" y2="193.21"/><line class="cls-5" x1="172.73" y1="193.21" x2="173.65" y2="192.72"/><line class="cls-5" x1="173.65" y1="192.72" x2="174.57" y2="192.18"/><line class="cls-5" x1="174.57" y1="192.18" x2="175.54" y2="191.69"/><line class="cls-5" x1="175.54" y1="191.69" x2="176.4" y2="191.15"/><line class="cls-5" x1="176.4" y1="191.15" x2="177.32" y2="190.61"/><line class="cls-5" x1="177.32" y1="190.61" x2="178.19" y2="190.07"/><line class="cls-5" x1="178.19" y1="190.07" x2="179.1" y2="189.53"/><line class="cls-5" x1="179.1" y1="189.53" x2="179.97" y2="188.94"/><line class="cls-5" x1="179.97" y1="188.94" x2="180.83" y2="188.35"/><line class="cls-5" x1="180.83" y1="188.35" x2="181.7" y2="187.81"/><line class="cls-5" x1="181.7" y1="187.81" x2="182.56" y2="187.21"/><line class="cls-5" x1="182.56" y1="187.21" x2="183.42" y2="186.62"/><line class="cls-5" x1="183.42" y1="186.62" x2="184.29" y2="186.02"/><line class="cls-5" x1="184.29" y1="186.02" x2="185.1" y2="185.38"/><line class="cls-5" x1="185.1" y1="185.38" x2="185.96" y2="184.78"/><line class="cls-5" x1="185.96" y1="184.78" x2="186.77" y2="184.13"/><line class="cls-5" x1="186.77" y1="184.13" x2="187.58" y2="183.49"/><line class="cls-5" x1="187.58" y1="183.49" x2="188.45" y2="182.89"/><line class="cls-5" x1="188.45" y1="182.89" x2="189.2" y2="182.19"/><line class="cls-5" x1="189.2" y1="182.19" x2="190.01" y2="181.54"/><line class="cls-5" x1="190.01" y1="181.54" x2="190.82" y2="180.89"/><line class="cls-5" x1="190.82" y1="180.89" x2="191.63" y2="180.19"/><line class="cls-5" x1="191.63" y1="180.19" x2="192.39" y2="179.49"/><line class="cls-5" x1="192.39" y1="179.49" x2="193.2" y2="178.79"/><line class="cls-5" x1="193.2" y1="178.79" x2="193.95" y2="178.09"/><line class="cls-5" x1="193.95" y1="178.09" x2="194.71" y2="177.38"/><line class="cls-5" x1="194.71" y1="177.38" x2="195.47" y2="176.63"/><line class="cls-5" x1="195.47" y1="176.63" x2="196.17" y2="175.87"/><line class="cls-5" x1="196.17" y1="175.87" x2="196.87" y2="175.12"/><line class="cls-5" x1="196.87" y1="175.12" x2="197.63" y2="174.31"/><line class="cls-5" x1="197.63" y1="174.31" x2="198.33" y2="173.55"/><line class="cls-5" x1="198.33" y1="173.55" x2="198.98" y2="172.69"/><line class="cls-5" x1="198.98" y1="172.69" x2="199.62" y2="171.88"/><line class="cls-5" x1="199.62" y1="171.88" x2="200.33" y2="171.07"/><line class="cls-5" x1="200.33" y1="171.07" x2="200.97" y2="170.26"/><line class="cls-5" x1="200.97" y1="170.26" x2="201.57" y2="169.39"/><line class="cls-5" x1="201.57" y1="169.39" x2="202.22" y2="168.53"/><line class="cls-5" x1="202.22" y1="168.53" x2="202.86" y2="167.66"/><line class="cls-5" x1="202.86" y1="167.66" x2="203.46" y2="166.8"/><line class="cls-5" x1="203.46" y1="166.8" x2="204.05" y2="165.88"/><line class="cls-5" x1="204.05" y1="165.88" x2="204.65" y2="165.02"/><line class="cls-5" x1="204.65" y1="165.02" x2="205.24" y2="164.1"/><line class="cls-5" x1="205.24" y1="164.1" x2="205.83" y2="163.18"/><line class="cls-5" x1="205.83" y1="163.18" x2="206.43" y2="162.26"/><line class="cls-5" x1="206.43" y1="162.26" x2="207.02" y2="161.35"/><line class="cls-5" x1="207.02" y1="161.35" x2="207.62" y2="160.43"/><line class="cls-5" x1="207.62" y1="160.43" x2="208.21" y2="159.51"/><line class="cls-5" x1="208.21" y1="159.51" x2="208.75" y2="158.54"/><line class="cls-5" x1="208.75" y1="158.54" x2="209.29" y2="157.57"/><line class="cls-5" x1="209.29" y1="157.57" x2="209.88" y2="156.65"/><line class="cls-5" x1="209.88" y1="156.65" x2="210.37" y2="155.62"/><line class="cls-5" x1="210.37" y1="155.62" x2="210.86" y2="154.65"/><line class="cls-5" x1="210.86" y1="154.65" x2="211.34" y2="153.62"/><line class="cls-5" x1="211.34" y1="153.62" x2="211.83" y2="152.6"/><line class="cls-5" x1="211.83" y1="152.6" x2="212.26" y2="151.57"/><line class="cls-5" x1="212.26" y1="151.57" x2="212.69" y2="150.49"/><line class="cls-5" x1="212.69" y1="150.49" x2="213.12" y2="149.47"/><line class="cls-5" x1="213.12" y1="149.47" x2="213.5" y2="148.39"/><line class="cls-5" x1="213.5" y1="148.39" x2="213.88" y2="147.31"/><line class="cls-5" x1="213.88" y1="147.31" x2="214.2" y2="146.23"/><line class="cls-5" x1="214.2" y1="146.23" x2="214.58" y2="145.15"/><line class="cls-5" x1="214.58" y1="145.15" x2="214.91" y2="144.01"/><line class="cls-5" x1="214.91" y1="144.01" x2="215.18" y2="142.88"/><line class="cls-5" x1="215.18" y1="142.88" x2="215.45" y2="141.8"/><line class="cls-5" x1="215.45" y1="141.8" x2="215.66" y2="140.66"/><line class="cls-5" x1="215.66" y1="140.66" x2="215.93" y2="139.53"/><line class="cls-5" x1="215.93" y1="139.53" x2="216.09" y2="138.34"/><line class="cls-5" x1="216.09" y1="138.34" x2="216.31" y2="137.26"/><line class="cls-5" x1="216.31" y1="137.26" x2="216.47" y2="136.13"/><line class="cls-5" x1="216.47" y1="136.13" x2="216.58" y2="134.94"/><line class="cls-5" x1="216.58" y1="134.94" x2="216.69" y2="133.75"/><line class="cls-5" x1="216.69" y1="133.75" x2="216.74" y2="132.62"/><line class="cls-5" x1="216.74" y1="132.62" x2="216.8" y2="131.43"/><line class="cls-5" x1="216.8" y1="131.43" x2="216.8" y2="130.24"/><line class="cls-5" x1="216.8" y1="130.24" x2="216.85" y2="129.05"/><line class="cls-5" x1="216.85" y1="129.05" x2="216.74" y2="127.92"/><line class="cls-5" x1="216.74" y1="127.92" x2="216.69" y2="126.73"/><line class="cls-5" x1="216.69" y1="126.73" x2="216.53" y2="125.54"/><line class="cls-5" x1="216.53" y1="125.54" x2="216.36" y2="124.36"/><line class="cls-5" x1="216.36" y1="124.36" x2="216.2" y2="123.22"/><line class="cls-5" x1="216.2" y1="123.22" x2="215.99" y2="122.03"/><line class="cls-5" x1="215.99" y1="122.03" x2="215.77" y2="120.9"/><line class="cls-5" x1="215.77" y1="120.9" x2="215.55" y2="119.71"/><line class="cls-5" x1="215.55" y1="119.71" x2="215.28" y2="118.58"/><line class="cls-5" x1="215.28" y1="118.58" x2="215.01" y2="117.44"/><line class="cls-5" x1="215.01" y1="117.44" x2="214.69" y2="116.26"/><line class="cls-5" x1="214.69" y1="116.26" x2="214.37" y2="115.12"/><line class="cls-5" x1="214.37" y1="115.12" x2="213.99" y2="113.99"/><line class="cls-5" x1="213.99" y1="113.99" x2="213.56" y2="112.91"/><line class="cls-5" x1="213.56" y1="112.91" x2="213.18" y2="111.77"/><line class="cls-5" x1="213.18" y1="111.77" x2="212.75" y2="110.69"/><line class="cls-5" x1="212.75" y1="110.69" x2="212.26" y2="109.56"/><line class="cls-5" x1="212.26" y1="109.56" x2="211.77" y2="108.48"/><line class="cls-5" x1="211.77" y1="108.48" x2="211.29" y2="107.4"/><line class="cls-5" x1="211.29" y1="107.4" x2="210.8" y2="106.32"/><line class="cls-5" x1="210.8" y1="106.32" x2="210.32" y2="105.24"/><line class="cls-5" x1="210.32" y1="105.24" x2="209.78" y2="104.21"/><line class="cls-5" x1="209.78" y1="104.21" x2="209.24" y2="103.13"/><line class="cls-5" x1="209.24" y1="103.13" x2="208.7" y2="102.05"/><line class="cls-5" x1="208.7" y1="102.05" x2="208.1" y2="101.03"/><line class="cls-5" x1="208.1" y1="101.03" x2="207.56" y2="99.95"/><line class="cls-5" x1="207.56" y1="99.95" x2="206.97" y2="98.92"/><line class="cls-5" x1="206.97" y1="98.92" x2="206.32" y2="97.9"/><line class="cls-5" x1="206.32" y1="97.9" x2="205.73" y2="96.82"/><line class="cls-5" x1="205.73" y1="96.82" x2="205.13" y2="95.79"/><line class="cls-5" x1="205.13" y1="95.79" x2="204.48" y2="94.76"/><line class="cls-5" x1="204.48" y1="94.76" x2="203.78" y2="93.79"/><line class="cls-5" x1="203.78" y1="93.79" x2="203.13" y2="92.77"/><line class="cls-5" x1="203.13" y1="92.77" x2="202.43" y2="91.74"/><line class="cls-5" x1="202.43" y1="91.74" x2="201.73" y2="90.77"/><line class="cls-5" x1="201.73" y1="90.77" x2="201.03" y2="89.8"/><line class="cls-5" x1="201.03" y1="89.8" x2="200.22" y2="88.88"/><line class="cls-5" x1="200.22" y1="88.88" x2="199.46" y2="87.91"/><line class="cls-5" x1="199.46" y1="87.91" x2="198.65" y2="86.99"/><line class="cls-5" x1="198.65" y1="86.99" x2="197.84" y2="86.07"/><line class="cls-5" x1="197.84" y1="86.07" x2="196.98" y2="85.21"/><line class="cls-5" x1="196.98" y1="85.21" x2="196.11" y2="84.34"/><line class="cls-5" x1="196.11" y1="84.34" x2="195.25" y2="83.48"/><line class="cls-5" x1="195.25" y1="83.48" x2="194.33" y2="82.61"/><line class="cls-5" x1="194.33" y1="82.61" x2="193.47" y2="81.75"/><line class="cls-5" x1="193.47" y1="81.75" x2="192.55" y2="80.94"/><line class="cls-5" x1="192.55" y1="80.94" x2="191.63" y2="80.13"/><line class="cls-5" x1="191.63" y1="80.13" x2="190.66" y2="79.32"/><line class="cls-5" x1="190.66" y1="79.32" x2="189.69" y2="78.56"/><line class="cls-5" x1="189.69" y1="78.56" x2="188.66" y2="77.86"/><line class="cls-5" x1="188.66" y1="77.86" x2="187.64" y2="77.16"/><line class="cls-5" x1="187.64" y1="77.16" x2="186.61" y2="76.46"/><line class="cls-5" x1="186.61" y1="76.46" x2="185.58" y2="75.81"/><line class="cls-5" x1="185.58" y1="75.81" x2="184.5" y2="75.16"/><line class="cls-5" x1="184.5" y1="75.16" x2="183.42" y2="74.57"/><line class="cls-5" x1="183.42" y1="74.57" x2="182.34" y2="73.97"/><line class="cls-5" x1="182.34" y1="73.97" x2="181.26" y2="73.38"/><line class="cls-5" x1="181.26" y1="73.38" x2="180.13" y2="72.84"/><line class="cls-5" x1="180.13" y1="72.84" x2="179.05" y2="72.25"/><line class="cls-5" x1="179.05" y1="72.25" x2="177.92" y2="71.76"/><line class="cls-5" x1="177.92" y1="71.76" x2="176.78" y2="71.22"/><line class="cls-5" x1="176.78" y1="71.22" x2="175.65" y2="70.73"/><line class="cls-5" x1="175.65" y1="70.73" x2="174.51" y2="70.25"/><line class="cls-5" x1="174.51" y1="70.25" x2="173.33" y2="69.82"/><line class="cls-5" x1="173.33" y1="69.82" x2="172.19" y2="69.33"/><line class="cls-5" x1="172.19" y1="69.33" x2="171" y2="68.95"/><line class="cls-5" x1="171" y1="68.95" x2="169.82" y2="68.52"/><line class="cls-5" x1="169.82" y1="68.52" x2="168.63" y2="68.14"/><line class="cls-5" x1="168.63" y1="68.14" x2="167.44" y2="67.76"/><line class="cls-5" x1="167.44" y1="67.76" x2="166.25" y2="67.39"/><line class="cls-5" x1="166.25" y1="67.39" x2="165.01" y2="67.12"/><line class="cls-5" x1="165.01" y1="67.12" x2="163.82" y2="66.79"/><line class="cls-5" x1="163.82" y1="66.79" x2="162.58" y2="66.47"/><line class="cls-5" x1="162.58" y1="66.47" x2="161.39" y2="66.2"/><line class="cls-5" x1="161.39" y1="66.2" x2="160.15" y2="65.93"/><line class="cls-5" x1="160.15" y1="65.93" x2="158.91" y2="65.66"/><line class="cls-5" x1="158.91" y1="65.66" x2="157.67" y2="65.44"/><line class="cls-5" x1="157.67" y1="65.44" x2="156.42" y2="65.23"/><line class="cls-5" x1="156.42" y1="65.23" x2="155.13" y2="65.06"/><line class="cls-5" x1="155.13" y1="65.06" x2="153.89" y2="64.9"/><line class="cls-5" x1="153.89" y1="64.9" x2="152.64" y2="64.69"/><line class="cls-5" x1="152.64" y1="64.69" x2="151.4" y2="64.52"/><line class="cls-5" x1="151.4" y1="64.52" x2="150.11" y2="64.36"/><line class="cls-5" x1="150.11" y1="200.39" x2="149.08" y2="200.5"/><line class="cls-5" x1="149.08" y1="200.5" x2="147.95" y2="200.55"/><line class="cls-5" x1="147.95" y1="200.55" x2="146.87" y2="200.55"/><line class="cls-5" x1="146.87" y1="200.55" x2="145.73" y2="200.55"/><line class="cls-5" x1="145.73" y1="200.55" x2="144.6" y2="200.55"/><line class="cls-5" x1="144.6" y1="200.55" x2="143.52" y2="200.44"/><line class="cls-5" x1="143.52" y1="200.44" x2="142.38" y2="200.39"/><line class="cls-5" x1="142.38" y1="200.39" x2="141.3" y2="200.28"/><line class="cls-5" x1="141.3" y1="200.28" x2="140.17" y2="200.12"/><line class="cls-5" x1="140.17" y1="200.12" x2="139.09" y2="200.01"/><line class="cls-5" x1="139.09" y1="200.01" x2="138.01" y2="199.79"/><line class="cls-5" x1="138.01" y1="199.79" x2="136.93" y2="199.58"/><line class="cls-5" x1="136.93" y1="199.58" x2="135.8" y2="199.31"/><line class="cls-5" x1="135.8" y1="199.31" x2="134.72" y2="199.09"/><line class="cls-5" x1="134.72" y1="199.09" x2="133.69" y2="198.77"/><line class="cls-5" x1="133.69" y1="198.77" x2="132.61" y2="198.44"/><line class="cls-5" x1="132.61" y1="198.44" x2="131.64" y2="197.85"/><line class="cls-5" x1="131.64" y1="197.85" x2="130.72" y2="197.09"/><line class="cls-5" x1="130.72" y1="197.09" x2="129.86" y2="196.12"/><line class="cls-5" x1="129.86" y1="196.12" x2="129.15" y2="194.88"/><line class="cls-5" x1="129.15" y1="194.88" x2="128.61" y2="193.31"/><line class="cls-5" x1="128.61" y1="193.31" x2="128.13" y2="191.69"/><line class="cls-5" x1="128.13" y1="191.69" x2="127.91" y2="189.59"/><line class="cls-5" x1="127.91" y1="189.59" x2="127.8" y2="187.43"/><line class="cls-5" x1="127.8" y1="187.43" x2="127.97" y2="184.78"/><line class="cls-5" x1="127.97" y1="184.78" x2="128.34" y2="181.97"/><line class="cls-5" x1="128.34" y1="181.97" x2="128.83" y2="179"/><line class="cls-5" x1="128.83" y1="179" x2="129.53" y2="176.03"/><line class="cls-5" x1="129.53" y1="176.03" x2="130.23" y2="173.17"/><line class="cls-5" x1="130.23" y1="173.17" x2="130.94" y2="170.47"/><line class="cls-5" x1="130.94" y1="170.47" x2="131.8" y2="167.77"/><line class="cls-5" x1="131.8" y1="167.77" x2="132.56" y2="165.4"/><line class="cls-5" x1="132.56" y1="165.4" x2="133.42" y2="162.97"/><line class="cls-5" x1="133.42" y1="162.97" x2="134.23" y2="160.81"/><line class="cls-5" x1="134.23" y1="160.81" x2="135.2" y2="158.54"/><line class="cls-5" x1="135.2" y1="158.54" x2="136.12" y2="156.54"/><line class="cls-5" x1="136.12" y1="156.54" x2="137.09" y2="154.54"/><line class="cls-5" x1="137.09" y1="154.54" x2="138.17" y2="152.6"/><line class="cls-5" x1="138.17" y1="152.6" x2="139.09" y2="150.92"/><line class="cls-5" x1="139.09" y1="150.92" x2="140.06" y2="149.2"/><line class="cls-5" x1="140.06" y1="149.2" x2="141.2" y2="147.47"/><line class="cls-5" x1="141.2" y1="147.47" x2="142.17" y2="146.12"/><line class="cls-5" x1="142.17" y1="146.12" x2="143.19" y2="144.71"/><line class="cls-5" x1="143.19" y1="144.71" x2="144.06" y2="143.53"/><line class="cls-5" x1="144.06" y1="143.53" x2="144.98" y2="142.39"/><line class="cls-5" x1="144.98" y1="142.39" x2="145.79" y2="141.42"/><line class="cls-5" x1="145.79" y1="141.42" x2="146.6" y2="140.5"/><line class="cls-5" x1="146.6" y1="140.5" x2="147.35" y2="139.75"/><line class="cls-5" x1="147.35" y1="139.75" x2="148" y2="139.1"/><line class="cls-5" x1="148" y1="139.1" x2="148.65" y2="138.5"/><line class="cls-5" x1="148.65" y1="138.5" x2="149.13" y2="138.07"/><line class="cls-5" x1="149.13" y1="138.07" x2="149.24" y2="137.96"/><line class="cls-5" x1="149.24" y1="137.96" x2="149.19" y2="137.91"/><line class="cls-5" x1="149.19" y1="137.91" x2="149.19" y2="137.91"/><line class="cls-5" x1="149.19" y1="137.91" x2="149.19" y2="137.91"/><line class="cls-5" x1="149.19" y1="137.91" x2="149.19" y2="137.86"/><line class="cls-5" x1="149.19" y1="137.86" x2="149.19" y2="137.86"/><line class="cls-5" x1="149.19" y1="137.86" x2="149.13" y2="137.86"/><line class="cls-5" x1="149.13" y1="137.86" x2="149.13" y2="137.8"/><line class="cls-5" x1="149.13" y1="137.8" x2="149.13" y2="137.8"/><line class="cls-5" x1="149.13" y1="137.8" x2="149.13" y2="137.8"/><line class="cls-5" x1="149.13" y1="137.8" x2="149.13" y2="137.75"/><line class="cls-5" x1="149.13" y1="137.75" x2="149.08" y2="137.75"/><line class="cls-5" x1="149.08" y1="137.75" x2="149.08" y2="137.75"/><line class="cls-5" x1="149.08" y1="137.75" x2="148.59" y2="137.91"/><line class="cls-5" x1="148.59" y1="137.91" x2="147.51" y2="138.4"/><line class="cls-5" x1="147.51" y1="138.4" x2="146" y2="138.99"/><line class="cls-5" x1="146" y1="138.99" x2="144.27" y2="139.58"/><line class="cls-5" x1="144.27" y1="139.58" x2="142.28" y2="140.23"/><line class="cls-5" x1="142.28" y1="140.23" x2="140.17" y2="140.83"/><line class="cls-5" x1="140.17" y1="140.83" x2="137.74" y2="141.47"/><line class="cls-5" x1="137.74" y1="141.47" x2="135.53" y2="141.96"/><line class="cls-5" x1="135.53" y1="141.96" x2="132.88" y2="142.5"/><line class="cls-5" x1="132.88" y1="142.5" x2="130.4" y2="142.88"/><line class="cls-5" x1="130.4" y1="142.88" x2="127.59" y2="143.26"/><line class="cls-5" x1="127.59" y1="143.26" x2="124.89" y2="143.53"/><line class="cls-5" x1="124.89" y1="143.53" x2="122.08" y2="143.69"/><line class="cls-5" x1="122.08" y1="143.69" x2="119" y2="143.85"/><line class="cls-5" x1="119" y1="143.85" x2="116.09" y2="143.85"/><line class="cls-5" x1="116.09" y1="143.85" x2="113.06" y2="143.74"/><line class="cls-5" x1="113.06" y1="143.74" x2="109.77" y2="143.58"/><line class="cls-5" x1="109.77" y1="143.58" x2="106.8" y2="143.31"/><line class="cls-5" x1="106.8" y1="143.31" x2="103.5" y2="142.93"/><line class="cls-5" x1="103.5" y1="142.93" x2="100.26" y2="142.45"/><line class="cls-5" x1="100.26" y1="142.45" x2="96.86" y2="141.85"/><line class="cls-5" x1="96.86" y1="141.85" x2="93.51" y2="141.15"/><line class="cls-5" x1="93.51" y1="141.15" x2="90.11" y2="140.34"/><line class="cls-5" x1="90.11" y1="140.34" x2="86.66" y2="139.42"/><line class="cls-5" x1="86.66" y1="139.42" x2="83.2" y2="138.4"/><line class="cls-5" x1="83.2" y1="138.4" x2="79.96" y2="137.26"/><line class="cls-5" x1="79.96" y1="137.26" x2="76.72" y2="135.97"/><line class="cls-5" x1="76.72" y1="135.97" x2="74.4" y2="134.62"/><line class="cls-5" x1="74.4" y1="134.62" x2="72.29" y2="133.16"/><line class="cls-5" x1="72.29" y1="133.16" x2="70.67" y2="131.7"/><line class="cls-5" x1="70.67" y1="131.7" x2="69.27" y2="130.19"/><line class="cls-5" x1="69.27" y1="130.19" x2="68.24" y2="128.68"/><line class="cls-5" x1="68.24" y1="128.68" x2="67.43" y2="127.11"/><line class="cls-5" x1="67.43" y1="127.11" x2="66.89" y2="125.54"/><line class="cls-5" x1="66.89" y1="125.54" x2="66.57" y2="124.03"/><line class="cls-5" x1="66.57" y1="124.03" x2="66.46" y2="122.52"/><line class="cls-5" x1="66.46" y1="122.52" x2="66.46" y2="121.01"/><line class="cls-5" x1="66.46" y1="121.01" x2="66.62" y2="119.5"/><line class="cls-5" x1="66.62" y1="119.5" x2="66.73" y2="117.98"/><line class="cls-5" x1="66.73" y1="117.98" x2="66.95" y2="116.53"/><line class="cls-5" x1="66.95" y1="116.53" x2="67.22" y2="115.01"/><line class="cls-5" x1="67.22" y1="115.01" x2="67.49" y2="113.56"/><line class="cls-5" x1="67.49" y1="113.56" x2="67.81" y2="112.1"/><line class="cls-5" x1="67.81" y1="112.1" x2="68.19" y2="110.64"/><line class="cls-5" x1="68.19" y1="110.64" x2="68.57" y2="109.18"/><line class="cls-5" x1="68.57" y1="109.18" x2="69" y2="107.72"/><line class="cls-5" x1="69" y1="107.72" x2="69.48" y2="106.32"/><line class="cls-5" x1="69.48" y1="106.32" x2="70.08" y2="104.92"/><line class="cls-5" x1="70.08" y1="104.92" x2="70.62" y2="103.51"/><line class="cls-5" x1="70.62" y1="103.51" x2="71.27" y2="102.11"/><line class="cls-5" x1="71.27" y1="102.11" x2="71.86" y2="100.76"/><line class="cls-5" x1="71.86" y1="100.76" x2="72.56" y2="99.41"/><line class="cls-5" x1="72.56" y1="99.41" x2="73.32" y2="98.11"/><line class="cls-5" x1="73.32" y1="98.11" x2="74.07" y2="96.82"/><line class="cls-5" x1="74.07" y1="96.82" x2="74.83" y2="95.52"/><line class="cls-5" x1="74.83" y1="95.52" x2="75.64" y2="94.22"/><line class="cls-5" x1="75.64" y1="94.22" x2="76.5" y2="93.04"/><line class="cls-5" x1="76.5" y1="93.04" x2="77.42" y2="91.79"/><line class="cls-5" x1="77.42" y1="91.79" x2="78.34" y2="90.61"/><line class="cls-5" x1="78.34" y1="90.61" x2="79.26" y2="89.42"/><line class="cls-5" x1="79.26" y1="89.42" x2="80.28" y2="88.34"/><line class="cls-5" x1="80.28" y1="88.34" x2="81.26" y2="87.2"/><line class="cls-5" x1="81.26" y1="87.2" x2="82.28" y2="86.12"/><line class="cls-5" x1="82.28" y1="86.12" x2="83.36" y2="85.1"/><line class="cls-5" x1="83.36" y1="85.1" x2="84.44" y2="84.02"/><line class="cls-5" x1="84.44" y1="84.02" x2="85.52" y2="83.05"/><line class="cls-5" x1="85.52" y1="83.05" x2="86.66" y2="82.07"/><line class="cls-5" x1="86.66" y1="82.07" x2="87.79" y2="81.1"/><line class="cls-5" x1="87.79" y1="81.1" x2="88.98" y2="80.18"/><line class="cls-5" x1="88.98" y1="80.18" x2="90.17" y2="79.32"/><line class="cls-5" x1="90.17" y1="79.32" x2="91.35" y2="78.46"/><line class="cls-5" x1="91.35" y1="78.46" x2="92.54" y2="77.59"/><line class="cls-5" x1="92.54" y1="77.59" x2="93.78" y2="76.84"/><line class="cls-5" x1="93.78" y1="76.84" x2="95.03" y2="76.03"/><line class="cls-5" x1="95.03" y1="76.03" x2="96.27" y2="75.27"/><line class="cls-5" x1="96.27" y1="75.27" x2="97.51" y2="74.51"/><line class="cls-5" x1="97.51" y1="74.51" x2="98.81" y2="73.81"/><line class="cls-5" x1="98.81" y1="73.81" x2="100.1" y2="73.16"/><line class="cls-5" x1="100.1" y1="73.16" x2="101.4" y2="72.52"/><line class="cls-5" x1="101.4" y1="72.52" x2="102.64" y2="71.87"/><line class="cls-5" x1="102.64" y1="71.87" x2="103.94" y2="71.27"/><line class="cls-5" x1="103.94" y1="71.27" x2="105.29" y2="70.73"/><line class="cls-5" x1="105.29" y1="70.73" x2="106.58" y2="70.14"/><line class="cls-5" x1="106.58" y1="70.14" x2="107.88" y2="69.6"/><line class="cls-5" x1="107.88" y1="69.6" x2="109.23" y2="69.11"/><line class="cls-5" x1="109.23" y1="69.11" x2="110.52" y2="68.63"/><line class="cls-5" x1="110.52" y1="68.63" x2="111.82" y2="68.14"/><line class="cls-5" x1="111.82" y1="68.14" x2="113.17" y2="67.66"/><line class="cls-5" x1="113.17" y1="67.66" x2="114.52" y2="67.28"/><line class="cls-5" x1="114.52" y1="67.28" x2="115.82" y2="66.9"/><line class="cls-5" x1="115.82" y1="66.9" x2="117.17" y2="66.52"/><line class="cls-5" x1="117.17" y1="66.52" x2="118.52" y2="66.14"/><line class="cls-5" x1="118.52" y1="66.14" x2="119.81" y2="65.82"/><line class="cls-5" x1="119.81" y1="65.82" x2="121.16" y2="65.5"/><line class="cls-5" x1="121.16" y1="65.5" x2="122.51" y2="65.23"/><line class="cls-5" x1="122.51" y1="65.23" x2="123.86" y2="64.96"/><line class="cls-5" x1="123.86" y1="64.96" x2="125.16" y2="64.69"/><line class="cls-5" x1="125.16" y1="64.69" x2="126.51" y2="64.47"/><line class="cls-5" x1="126.51" y1="64.47" x2="127.86" y2="64.25"/><line class="cls-5" x1="127.86" y1="64.25" x2="129.15" y2="64.09"/><line class="cls-5" x1="129.15" y1="64.09" x2="130.5" y2="63.93"/><line class="cls-5" x1="130.5" y1="63.93" x2="131.85" y2="63.77"/><line class="cls-5" x1="131.85" y1="63.77" x2="133.15" y2="63.66"/><line class="cls-5" x1="133.15" y1="63.66" x2="134.5" y2="63.55"/><line class="cls-5" x1="134.5" y1="63.55" x2="135.85" y2="63.5"/><line class="cls-5" x1="135.85" y1="63.5" x2="137.15" y2="63.44"/><line class="cls-5" x1="137.15" y1="63.44" x2="138.44" y2="63.44"/><line class="cls-5" x1="138.44" y1="63.44" x2="139.79" y2="63.44"/><line class="cls-5" x1="139.79" y1="63.44" x2="141.09" y2="63.5"/><line class="cls-5" x1="141.09" y1="63.5" x2="142.44" y2="63.55"/><line class="cls-5" x1="142.44" y1="63.55" x2="143.73" y2="63.66"/><line class="cls-5" x1="143.73" y1="63.66" x2="145.03" y2="63.77"/><line class="cls-5" x1="145.03" y1="63.77" x2="146.33" y2="63.88"/><line class="cls-5" x1="146.33" y1="63.88" x2="147.62" y2="63.98"/><line class="cls-5" x1="147.62" y1="63.98" x2="148.86" y2="64.15"/><line class="cls-5" x1="148.86" y1="64.15" x2="150.11" y2="64.36"/><line class="cls-5" x1="150.11" y1="200.39" x2="150.38" y2="200.39"/><line class="cls-5" x1="151.73" y1="200.39" x2="151.94" y2="200.44"/><line class="cls-5" x1="153.24" y1="200.5" x2="153.4" y2="200.5"/><line class="cls-5" x1="153.4" y1="200.5" x2="153.51" y2="200.5"/><line class="cls-5" x1="154.86" y1="200.5" x2="155.07" y2="200.44"/><line class="cls-5" x1="156.37" y1="200.39" x2="156.64" y2="200.39"/><line class="cls-5" x1="157.94" y1="200.28" x2="158.15" y2="200.23"/><line class="cls-5" x1="159.45" y1="200.12" x2="159.72" y2="200.12"/><line class="cls-5" x1="161.01" y1="199.9" x2="161.18" y2="199.9"/><line class="cls-5" x1="161.18" y1="199.9" x2="161.28" y2="199.9"/><line class="cls-5" x1="162.58" y1="199.74" x2="162.85" y2="199.69"/><line class="cls-5" x1="164.15" y1="199.52" x2="164.36" y2="199.47"/><line class="cls-5" x1="165.66" y1="199.31" x2="165.87" y2="199.25"/><line class="cls-5" x1="167.12" y1="198.98" x2="167.39" y2="198.93"/><line class="cls-5" x1="168.63" y1="198.71" x2="168.84" y2="198.66"/><line class="cls-5" x1="170.09" y1="198.39" x2="170.3" y2="198.34"/><line class="cls-5" x1="171.54" y1="198.07" x2="171.76" y2="198.01"/><line class="cls-5" x1="173" y1="197.63" x2="173.22" y2="197.58"/><line class="cls-5" x1="174.46" y1="197.31" x2="174.68" y2="197.2"/><line class="cls-5" x1="175.92" y1="196.88" x2="176.13" y2="196.77"/><line class="cls-5" x1="177.32" y1="196.39" x2="177.54" y2="196.34"/><line class="cls-5" x1="178.73" y1="195.91" x2="178.73" y2="195.91"/><line class="cls-5" x1="178.73" y1="195.91" x2="178.94" y2="195.85"/><line class="cls-5" x1="180.13" y1="195.42" x2="180.35" y2="195.31"/><line class="cls-5" x1="181.53" y1="194.88" x2="181.75" y2="194.83"/><line class="cls-5" x1="182.94" y1="194.39" x2="183.1" y2="194.34"/><line class="cls-5" x1="183.1" y1="194.34" x2="183.15" y2="194.34"/><line class="cls-5" x1="184.29" y1="193.8" x2="184.5" y2="193.69"/><line class="cls-5" x1="185.69" y1="193.21" x2="185.91" y2="193.1"/><line class="cls-5" x1="187.04" y1="192.61" x2="187.26" y2="192.5"/><line class="cls-5" x1="188.39" y1="191.91" x2="188.39" y2="191.91"/><line class="cls-5" x1="188.39" y1="191.91" x2="188.61" y2="191.8"/><line class="cls-5" x1="189.74" y1="191.21" x2="189.96" y2="191.1"/><line class="cls-5" x1="191.09" y1="190.51" x2="191.31" y2="190.34"/><line class="cls-5" x1="192.44" y1="189.7" x2="192.55" y2="189.64"/><line class="cls-5" x1="192.55" y1="189.64" x2="192.66" y2="189.59"/><line class="cls-5" x1="193.74" y1="188.94" x2="193.95" y2="188.83"/><line class="cls-5" x1="195.03" y1="188.13" x2="195.25" y2="187.97"/><line class="cls-5" x1="196.33" y1="187.27" x2="196.55" y2="187.16"/><line class="cls-5" x1="197.63" y1="186.4" x2="197.63" y2="186.4"/><line class="cls-5" x1="197.63" y1="186.4" x2="197.84" y2="186.24"/><line class="cls-5" x1="198.87" y1="185.48" x2="199.03" y2="185.32"/><line class="cls-5" x1="200.06" y1="184.51" x2="200.27" y2="184.35"/><line class="cls-5" x1="201.3" y1="183.54" x2="201.41" y2="183.43"/><line class="cls-5" x1="201.41" y1="183.43" x2="201.46" y2="183.38"/><line class="cls-5" x1="202.49" y1="182.51" x2="202.7" y2="182.35"/><line class="cls-5" x1="203.67" y1="181.43" x2="203.89" y2="181.27"/><line class="cls-5" x1="204.86" y1="180.35" x2="205.02" y2="180.19"/><line class="cls-5" x1="205.94" y1="179.27" x2="205.94" y2="179.27"/><line class="cls-5" x1="205.94" y1="179.27" x2="206.1" y2="179.11"/><line class="cls-5" x1="207.02" y1="178.19" x2="207.18" y2="178.03"/><line class="cls-5" x1="208.1" y1="177.11" x2="208.26" y2="176.9"/><line class="cls-5" x1="209.13" y1="175.93" x2="209.29" y2="175.71"/><line class="cls-5" x1="210.1" y1="174.68" x2="210.1" y2="174.68"/><line class="cls-5" x1="210.1" y1="174.68" x2="210.26" y2="174.52"/><line class="cls-5" x1="211.07" y1="173.5" x2="211.23" y2="173.28"/><line class="cls-5" x1="212.04" y1="172.25" x2="212.21" y2="172.04"/><line class="cls-5" x1="212.96" y1="171.01" x2="213.07" y2="170.8"/><line class="cls-5" x1="213.83" y1="169.77" x2="213.88" y2="169.72"/><line class="cls-5" x1="213.88" y1="169.72" x2="213.99" y2="169.55"/><line class="cls-5" x1="214.69" y1="168.47" x2="214.85" y2="168.26"/><line class="cls-5" x1="215.55" y1="167.18" x2="215.66" y2="166.96"/><line class="cls-5" x1="216.31" y1="165.88" x2="216.47" y2="165.67"/><line class="cls-5" x1="217.07" y1="164.53" x2="217.17" y2="164.32"/><line class="cls-5" x1="217.77" y1="163.18" x2="217.77" y2="163.18"/><line class="cls-5" x1="217.77" y1="163.18" x2="217.88" y2="162.97"/><line class="cls-5" x1="218.42" y1="161.83" x2="218.52" y2="161.62"/><line class="cls-5" x1="219.06" y1="160.48" x2="219.17" y2="160.27"/><line class="cls-5" x1="219.66" y1="159.08" x2="219.77" y2="158.86"/><line class="cls-5" x1="220.25" y1="157.67" x2="220.31" y2="157.46"/><line class="cls-5" x1="220.79" y1="156.27" x2="220.85" y2="156.16"/><line class="cls-5" x1="220.85" y1="156.16" x2="220.9" y2="156.05"/><line class="cls-5" x1="221.33" y1="154.87" x2="221.39" y2="154.65"/><line class="cls-5" x1="221.82" y1="153.46" x2="221.87" y2="153.25"/><line class="cls-5" x1="222.2" y1="152" x2="222.25" y2="151.79"/><line class="cls-5" x1="222.57" y1="150.55" x2="222.63" y2="150.33"/><line class="cls-5" x1="222.95" y1="149.09" x2="223.01" y2="148.87"/><line class="cls-5" x1="223.22" y1="147.63" x2="223.28" y2="147.47"/><line class="cls-5" x1="223.28" y1="147.47" x2="223.28" y2="147.41"/><line class="cls-5" x1="223.55" y1="146.17" x2="223.6" y2="145.96"/><line class="cls-5" x1="223.82" y1="144.71" x2="223.87" y2="144.44"/><line class="cls-5" x1="224.09" y1="143.15" x2="224.14" y2="142.88"/><line class="cls-5" x1="224.3" y1="141.58" x2="224.36" y2="141.31"/><line class="cls-5" x1="224.52" y1="140.02" x2="224.52" y2="139.8"/><line class="cls-5" x1="224.52" y1="139.8" x2="224.52" y2="139.75"/><line class="cls-5" x1="224.68" y1="138.45" x2="224.68" y2="138.18"/><line class="cls-5" x1="224.73" y1="136.88" x2="224.79" y2="136.61"/><line class="cls-5" x1="224.79" y1="135.26" x2="224.79" y2="134.99"/><line class="cls-5" x1="224.79" y1="133.64" x2="224.79" y2="133.37"/><line class="cls-5" x1="224.73" y1="132.08" x2="224.73" y2="132.02"/><line class="cls-5" x1="224.73" y1="132.02" x2="224.73" y2="131.81"/><line class="cls-5" x1="224.63" y1="130.51" x2="224.57" y2="130.3"/><line class="cls-5" x1="224.46" y1="129" x2="224.41" y2="128.78"/><line class="cls-5" x1="224.25" y1="127.49" x2="224.25" y2="127.22"/><line class="cls-5" x1="224.09" y1="125.92" x2="224.03" y2="125.71"/><line class="cls-5" x1="223.82" y1="124.41" x2="223.82" y2="124.25"/><line class="cls-5" x1="223.82" y1="124.25" x2="223.82" y2="124.14"/><line class="cls-5" x1="223.6" y1="122.9" x2="223.55" y2="122.68"/><line class="cls-5" x1="223.28" y1="121.44" x2="223.22" y2="121.22"/><line class="cls-5" x1="222.9" y1="119.98" x2="222.84" y2="119.77"/><line class="cls-5" x1="222.52" y1="118.52" x2="222.47" y2="118.31"/><line class="cls-5" x1="222.09" y1="117.07" x2="222.03" y2="116.85"/><line class="cls-5" x1="221.66" y1="115.61" x2="221.6" y2="115.39"/><line class="cls-5" x1="221.17" y1="114.2" x2="221.17" y2="114.15"/><line class="cls-5" x1="221.17" y1="114.15" x2="221.12" y2="113.99"/><line class="cls-5" x1="220.68" y1="112.8" x2="220.63" y2="112.58"/><line class="cls-5" x1="220.2" y1="111.4" x2="220.09" y2="111.18"/><line class="cls-5" x1="219.6" y1="109.99" x2="219.55" y2="109.78"/><line class="cls-5" x1="219.06" y1="108.64" x2="218.96" y2="108.43"/><line class="cls-5" x1="218.42" y1="107.29" x2="218.31" y2="107.08"/><line class="cls-5" x1="217.77" y1="105.94" x2="217.66" y2="105.73"/><line class="cls-5" x1="217.12" y1="104.59" x2="217.12" y2="104.59"/><line class="cls-5" x1="217.12" y1="104.59" x2="217.01" y2="104.38"/><line class="cls-5" x1="216.36" y1="103.3" x2="216.26" y2="103.08"/><line class="cls-5" x1="215.72" y1="101.95" x2="215.55" y2="101.73"/><line class="cls-5" x1="214.91" y1="100.6" x2="214.8" y2="100.38"/><line class="cls-5" x1="214.1" y1="99.3" x2="213.99" y2="99.08"/><line class="cls-5" x1="213.29" y1="98" x2="213.18" y2="97.84"/><line class="cls-5" x1="213.18" y1="97.84" x2="213.12" y2="97.79"/><line class="cls-5" x1="212.42" y1="96.71" x2="212.26" y2="96.49"/><line class="cls-5" x1="211.5" y1="95.41" x2="211.34" y2="95.2"/><line class="cls-5" x1="210.59" y1="94.17" x2="210.42" y2="93.95"/><line class="cls-5" x1="209.61" y1="92.93" x2="209.45" y2="92.77"/><line class="cls-5" x1="208.64" y1="91.74" x2="208.53" y2="91.58"/><line class="cls-5" x1="208.53" y1="91.58" x2="208.48" y2="91.52"/><line class="cls-5" x1="207.62" y1="90.5" x2="207.45" y2="90.28"/><line class="cls-5" x1="206.59" y1="89.31" x2="206.43" y2="89.15"/><line class="cls-5" x1="205.51" y1="88.18" x2="205.35" y2="88.01"/><line class="cls-5" x1="204.43" y1="87.1" x2="204.27" y2="86.93"/><line class="cls-5" x1="203.35" y1="86.02" x2="203.24" y2="85.91"/><line class="cls-5" x1="203.24" y1="85.91" x2="203.19" y2="85.85"/><line class="cls-5" x1="202.22" y1="84.94" x2="202.05" y2="84.77"/><line class="cls-5" x1="201.08" y1="83.91" x2="200.92" y2="83.75"/><line class="cls-5" x1="199.95" y1="82.94" x2="199.73" y2="82.78"/><line class="cls-5" x1="198.76" y1="81.91" x2="198.54" y2="81.75"/><line class="cls-5" x1="197.57" y1="80.94" x2="197.46" y2="80.83"/><line class="cls-5" x1="197.46" y1="80.83" x2="197.41" y2="80.78"/><line class="cls-5" x1="196.38" y1="80.02" x2="196.17" y2="79.86"/><line class="cls-5" x1="195.14" y1="79.1" x2="194.93" y2="78.94"/><line class="cls-5" x1="193.85" y1="78.19" x2="193.63" y2="78.02"/><line class="cls-5" x1="192.55" y1="77.32" x2="192.33" y2="77.16"/><line class="cls-5" x1="191.25" y1="76.46" x2="191.15" y2="76.4"/><line class="cls-5" x1="191.15" y1="76.4" x2="191.04" y2="76.35"/><line class="cls-5" x1="189.96" y1="75.7" x2="189.74" y2="75.54"/><line class="cls-5" x1="188.61" y1="74.89" x2="188.39" y2="74.78"/><line class="cls-5" x1="187.31" y1="74.14" x2="187.1" y2="74.03"/><line class="cls-5" x1="185.96" y1="73.38" x2="185.75" y2="73.27"/><line class="cls-5" x1="184.61" y1="72.68" x2="184.45" y2="72.62"/><line class="cls-5" x1="184.45" y1="72.62" x2="184.4" y2="72.62"/><line class="cls-5" x1="183.26" y1="72.03" x2="183.05" y2="71.92"/><line class="cls-5" x1="181.91" y1="71.38" x2="181.7" y2="71.27"/><line class="cls-5" x1="180.51" y1="70.79" x2="180.29" y2="70.68"/><line class="cls-5" x1="179.16" y1="70.19" x2="178.94" y2="70.09"/><line class="cls-5" x1="177.75" y1="69.65" x2="177.54" y2="69.55"/><line class="cls-5" x1="176.35" y1="69.11" x2="176.3" y2="69.11"/><line class="cls-5" x1="176.3" y1="69.11" x2="176.13" y2="69.06"/><line class="cls-5" x1="174.95" y1="68.63" x2="174.73" y2="68.57"/><line class="cls-5" x1="173.54" y1="68.14" x2="173.33" y2="68.03"/><line class="cls-5" x1="172.14" y1="67.66" x2="171.92" y2="67.6"/><line class="cls-5" x1="170.73" y1="67.22" x2="170.52" y2="67.17"/><line class="cls-5" x1="169.28" y1="66.85" x2="169.06" y2="66.79"/><line class="cls-5" x1="167.82" y1="66.47" x2="167.76" y2="66.47"/><line class="cls-5" x1="167.76" y1="66.47" x2="167.6" y2="66.41"/><line class="cls-5" x1="166.36" y1="66.14" x2="166.09" y2="66.14"/><line class="cls-5" x1="164.85" y1="65.93" x2="164.63" y2="65.87"/><line class="cls-5" x1="163.34" y1="65.66" x2="163.07" y2="65.66"/><line class="cls-5" x1="161.82" y1="65.44" x2="161.61" y2="65.39"/><line class="cls-5" x1="160.31" y1="65.28" x2="160.2" y2="65.28"/><line class="cls-5" x1="160.2" y1="65.28" x2="160.04" y2="65.28"/><line class="cls-5" x1="158.8" y1="65.12" x2="158.58" y2="65.06"/><line class="cls-5" x1="157.29" y1="64.9" x2="157.07" y2="64.85"/><line class="cls-5" x1="155.78" y1="64.74" x2="155.51" y2="64.74"/><line class="cls-5" x1="154.21" y1="64.58" x2="153.94" y2="64.58"/><line class="cls-5" x1="152.64" y1="64.47" x2="152.64" y2="64.47"/><line class="cls-5" x1="152.64" y1="64.47" x2="152.37" y2="64.47"/><line class="cls-5" x1="151.08" y1="64.42" x2="150.81" y2="64.42"/><line class="cls-5" x1="149.51" y1="200.39" x2="149.24" y2="200.39"/><line class="cls-5" x1="147.95" y1="200.44" x2="147.95" y2="200.44"/><line class="cls-5" x1="147.95" y1="200.44" x2="147.68" y2="200.44"/><line class="cls-5" x1="146.38" y1="200.5" x2="146.11" y2="200.5"/><line class="cls-5" x1="144.81" y1="200.44" x2="144.65" y2="200.44"/><line class="cls-5" x1="144.65" y1="200.44" x2="144.54" y2="200.44"/><line class="cls-5" x1="143.25" y1="200.33" x2="142.98" y2="200.33"/><line class="cls-5" x1="141.68" y1="200.23" x2="141.47" y2="200.17"/><line class="cls-5" x1="140.17" y1="200.06" x2="139.95" y2="200.01"/><line class="cls-5" x1="138.66" y1="199.85" x2="138.39" y2="199.85"/><line class="cls-5" x1="137.09" y1="199.69" x2="136.88" y2="199.63"/><line class="cls-5" x1="135.58" y1="199.42" x2="135.31" y2="199.42"/><line class="cls-5" x1="134.07" y1="199.2" x2="133.85" y2="199.15"/><line class="cls-5" x1="132.61" y1="198.88" x2="132.5" y2="198.88"/><line class="cls-5" x1="132.5" y1="198.88" x2="132.34" y2="198.82"/><line class="cls-5" x1="131.1" y1="198.61" x2="130.88" y2="198.55"/><line class="cls-5" x1="129.64" y1="198.28" x2="129.42" y2="198.23"/><line class="cls-5" x1="128.18" y1="197.9" x2="128.07" y2="197.9"/><line class="cls-5" x1="128.07" y1="197.9" x2="127.97" y2="197.85"/><line class="cls-5" x1="126.72" y1="197.53" x2="126.51" y2="197.47"/><line class="cls-5" x1="125.27" y1="197.15" x2="125.05" y2="197.04"/><line class="cls-5" x1="123.81" y1="196.72" x2="123.7" y2="196.66"/><line class="cls-5" x1="123.7" y1="196.66" x2="123.59" y2="196.61"/><line class="cls-5" x1="122.4" y1="196.23" x2="122.19" y2="196.12"/><line class="cls-5" x1="121" y1="195.69" x2="120.78" y2="195.64"/><line class="cls-5" x1="119.6" y1="195.2" x2="119.38" y2="195.15"/><line class="cls-5" x1="118.19" y1="194.72" x2="117.98" y2="194.61"/><line class="cls-5" x1="116.79" y1="194.18" x2="116.57" y2="194.07"/><line class="cls-5" x1="115.44" y1="193.58" x2="115.22" y2="193.48"/><line class="cls-5" x1="114.03" y1="192.94" x2="113.98" y2="192.94"/><line class="cls-5" x1="113.98" y1="192.94" x2="113.82" y2="192.88"/><line class="cls-5" x1="112.68" y1="192.34" x2="112.47" y2="192.23"/><line class="cls-5" x1="111.33" y1="191.64" x2="111.12" y2="191.53"/><line class="cls-5" x1="109.98" y1="190.94" x2="109.77" y2="190.83"/><line class="cls-5" x1="108.69" y1="190.18" x2="108.47" y2="190.07"/><line class="cls-5" x1="107.34" y1="189.43" x2="107.12" y2="189.32"/><line class="cls-5" x1="106.04" y1="188.62" x2="105.83" y2="188.51"/><line class="cls-5" x1="104.75" y1="187.81" x2="104.64" y2="187.75"/><line class="cls-5" x1="104.64" y1="187.75" x2="104.53" y2="187.7"/><line class="cls-5" x1="103.45" y1="186.94" x2="103.23" y2="186.83"/><line class="cls-5" x1="102.21" y1="186.08" x2="101.99" y2="185.92"/><line class="cls-5" x1="100.97" y1="185.11" x2="100.75" y2="184.94"/><line class="cls-5" x1="99.72" y1="184.13" x2="99.51" y2="183.97"/><line class="cls-5" x1="98.48" y1="183.11" x2="98.27" y2="182.95"/><line class="cls-5" x1="97.29" y1="182.08" x2="97.08" y2="181.92"/><line class="cls-5" x1="96.11" y1="181" x2="96.11" y2="181"/><line class="cls-5" x1="96.11" y1="181" x2="95.94" y2="180.84"/><line class="cls-5" x1="94.97" y1="179.92" x2="94.81" y2="179.76"/><line class="cls-5" x1="93.89" y1="178.84" x2="93.73" y2="178.68"/><line class="cls-5" x1="92.81" y1="177.76" x2="92.65" y2="177.6"/><line class="cls-5" x1="91.73" y1="176.63" x2="91.73" y2="176.63"/><line class="cls-5" x1="91.73" y1="176.63" x2="91.57" y2="176.47"/><line class="cls-5" x1="90.76" y1="175.44" x2="90.6" y2="175.22"/><line class="cls-5" x1="89.73" y1="174.2" x2="89.57" y2="173.98"/><line class="cls-5" x1="88.76" y1="172.96" x2="88.6" y2="172.74"/><line class="cls-5" x1="87.79" y1="171.71" x2="87.68" y2="171.5"/><line class="cls-5" x1="86.93" y1="170.47" x2="86.76" y2="170.26"/><line class="cls-5" x1="86.01" y1="169.18" x2="85.9" y2="168.96"/><line class="cls-5" x1="85.14" y1="167.88" x2="85.04" y2="167.66"/><line class="cls-5" x1="84.39" y1="166.58" x2="84.33" y2="166.53"/><line class="cls-5" x1="84.33" y1="166.53" x2="84.23" y2="166.37"/><line class="cls-5" x1="83.58" y1="165.29" x2="83.47" y2="165.07"/><line class="cls-5" x1="82.88" y1="163.94" x2="82.77" y2="163.72"/><line class="cls-5" x1="82.23" y1="162.59" x2="82.12" y2="162.37"/><line class="cls-5" x1="81.53" y1="161.24" x2="81.42" y2="161.02"/><line class="cls-5" x1="80.93" y1="159.83" x2="80.88" y2="159.73"/><line class="cls-5" x1="80.88" y1="159.73" x2="80.82" y2="159.62"/><line class="cls-5" x1="80.34" y1="158.43" x2="80.28" y2="158.21"/><line class="cls-5" x1="79.8" y1="157.08" x2="79.69" y2="156.86"/><line class="cls-5" x1="79.26" y1="155.68" x2="79.15" y2="155.46"/><line class="cls-5" x1="78.72" y1="154.27" x2="78.66" y2="154.06"/><line class="cls-5" x1="78.29" y1="152.87" x2="78.23" y2="152.65"/><line class="cls-5" x1="77.91" y1="151.41" x2="77.85" y2="151.25"/><line class="cls-5" x1="77.85" y1="151.25" x2="77.85" y2="151.19"/><line class="cls-5" x1="77.53" y1="149.95" x2="77.48" y2="149.74"/><line class="cls-5" x1="77.21" y1="148.49" x2="77.15" y2="148.28"/><line class="cls-5" x1="76.88" y1="147.04" x2="76.83" y2="146.82"/><line class="cls-5" x1="76.61" y1="145.58" x2="76.56" y2="145.36"/><line class="cls-5" x1="76.34" y1="144.07" x2="76.29" y2="143.8"/><line class="cls-5" x1="76.07" y1="142.5" x2="76.07" y2="142.39"/><line class="cls-5" x1="76.07" y1="142.39" x2="76.07" y2="142.23"/><line class="cls-5" x1="75.91" y1="140.99" x2="75.86" y2="140.77"/><line class="cls-5" x1="75.69" y1="139.48" x2="75.69" y2="139.21"/><line class="cls-5" x1="75.59" y1="137.91" x2="75.53" y2="137.69"/><line class="cls-5" x1="75.48" y1="136.4" x2="75.48" y2="136.13"/><line class="cls-5" x1="75.48" y1="134.78" x2="75.48" y2="134.67"/><line class="cls-5" x1="75.48" y1="134.67" x2="75.48" y2="134.51"/><line class="cls-5" x1="75.48" y1="133.16" x2="75.48" y2="132.89"/><line class="cls-5" x1="75.59" y1="131.59" x2="75.59" y2="131.32"/><line class="cls-5" x1="75.69" y1="130.03" x2="75.75" y2="129.76"/><line class="cls-5" x1="75.86" y1="128.46" x2="75.91" y2="128.24"/><line class="cls-5" x1="76.07" y1="126.95" x2="76.07" y2="126.84"/><line class="cls-5" x1="76.07" y1="126.84" x2="76.07" y2="126.68"/><line class="cls-5" x1="76.23" y1="125.44" x2="76.29" y2="125.22"/><line class="cls-5" x1="76.5" y1="123.98" x2="76.56" y2="123.76"/><line class="cls-5" x1="76.77" y1="122.47" x2="76.83" y2="122.25"/><line class="cls-5" x1="77.1" y1="121.01" x2="77.15" y2="120.79"/><line class="cls-5" x1="77.48" y1="119.55" x2="77.53" y2="119.33"/><line class="cls-5" x1="77.85" y1="118.09" x2="77.91" y2="117.93"/><line class="cls-5" x1="77.91" y1="117.93" x2="77.91" y2="117.88"/><line class="cls-5" x1="78.29" y1="116.69" x2="78.29" y2="116.63"/><line class="cls-5" x1="78.29" y1="116.63" x2="78.34" y2="116.47"/><line class="cls-5" x1="78.72" y1="115.28" x2="78.77" y2="115.07"/><line class="cls-5" x1="79.2" y1="113.88" x2="79.26" y2="113.66"/><line class="cls-5" x1="79.69" y1="112.48" x2="79.8" y2="112.26"/><line class="cls-5" x1="80.23" y1="111.07" x2="80.28" y2="110.86"/><line class="cls-5" x1="80.77" y1="109.67" x2="80.88" y2="109.45"/><line class="cls-5" x1="81.42" y1="108.26" x2="81.47" y2="108.1"/><line class="cls-5" x1="81.47" y1="108.1" x2="81.47" y2="108.05"/><line class="cls-5" x1="82.01" y1="106.91" x2="82.01" y2="106.91"/><line class="cls-5" x1="82.01" y1="106.91" x2="82.12" y2="106.7"/><line class="cls-5" x1="82.66" y1="105.56" x2="82.77" y2="105.35"/><line class="cls-5" x1="83.36" y1="104.21" x2="83.47" y2="104"/><line class="cls-5" x1="84.06" y1="102.92" x2="84.17" y2="102.7"/><line class="cls-5" x1="84.77" y1="101.57" x2="84.93" y2="101.35"/><line class="cls-5" x1="85.58" y1="100.27" x2="85.68" y2="100.06"/><line class="cls-5" x1="86.33" y1="98.98" x2="86.39" y2="98.92"/><line class="cls-5" x1="86.39" y1="98.92" x2="86.49" y2="98.76"/><line class="cls-5" x1="87.2" y1="97.68" x2="87.36" y2="97.46"/><line class="cls-5" x1="88.06" y1="96.38" x2="88.22" y2="96.17"/><line class="cls-5" x1="88.98" y1="95.09" x2="89.14" y2="94.87"/><line class="cls-5" x1="89.95" y1="93.85" x2="90.11" y2="93.63"/><line class="cls-5" x1="90.92" y1="92.6" x2="90.92" y2="92.6"/><line class="cls-5" x1="90.92" y1="92.6" x2="91.08" y2="92.39"/><line class="cls-5" x1="91.89" y1="91.36" x2="92.06" y2="91.2"/><line class="cls-5" x1="92.92" y1="90.17" x2="93.08" y2="90.01"/><line class="cls-5" x1="93.95" y1="89.04" x2="94.11" y2="88.82"/><line class="cls-5" x1="95.03" y1="87.91" x2="95.19" y2="87.74"/><line class="cls-5" x1="96.11" y1="86.83" x2="96.11" y2="86.83"/><line class="cls-5" x1="96.11" y1="86.83" x2="96.27" y2="86.66"/><line class="cls-5" x1="97.19" y1="85.75" x2="97.35" y2="85.58"/><line class="cls-5" x1="98.32" y1="84.67" x2="98.54" y2="84.5"/><line class="cls-5" x1="99.51" y1="83.59" x2="99.72" y2="83.42"/><line class="cls-5" x1="100.75" y1="82.61" x2="100.86" y2="82.51"/><line class="cls-5" x1="100.86" y1="82.51" x2="100.91" y2="82.45"/><line class="cls-5" x1="101.88" y1="81.59" x2="102.1" y2="81.43"/><line class="cls-5" x1="103.13" y1="80.62" x2="103.29" y2="80.45"/><line class="cls-5" x1="104.31" y1="79.7" x2="104.53" y2="79.54"/><line class="cls-5" x1="105.56" y1="78.83" x2="105.77" y2="78.67"/><line class="cls-5" x1="106.8" y1="77.92" x2="106.96" y2="77.81"/><line class="cls-5" x1="106.96" y1="77.81" x2="107.01" y2="77.75"/><line class="cls-5" x1="108.09" y1="77.05" x2="108.31" y2="76.94"/><line class="cls-5" x1="109.39" y1="76.24" x2="109.61" y2="76.13"/><line class="cls-5" x1="110.69" y1="75.49" x2="110.9" y2="75.38"/><line class="cls-5" x1="111.98" y1="74.73" x2="112.2" y2="74.57"/><line class="cls-5" x1="113.33" y1="73.92" x2="113.55" y2="73.81"/><line class="cls-5" x1="114.68" y1="73.16" x2="114.9" y2="73.06"/><line class="cls-5" x1="116.03" y1="72.52" x2="116.25" y2="72.41"/><line class="cls-5" x1="117.38" y1="71.87" x2="117.6" y2="71.76"/><line class="cls-5" x1="118.73" y1="71.22" x2="118.95" y2="71.11"/><line class="cls-5" x1="120.14" y1="70.57" x2="120.35" y2="70.46"/><line class="cls-5" x1="121.54" y1="69.98" x2="121.59" y2="69.98"/><line class="cls-5" x1="121.59" y1="69.98" x2="121.76" y2="69.92"/><line class="cls-5" x1="122.94" y1="69.49" x2="123.16" y2="69.38"/><line class="cls-5" x1="124.35" y1="69.01" x2="124.56" y2="68.9"/><line class="cls-5" x1="125.75" y1="68.47" x2="125.97" y2="68.41"/><line class="cls-5" x1="127.16" y1="67.98" x2="127.37" y2="67.87"/><line class="cls-5" x1="128.61" y1="67.49" x2="128.83" y2="67.44"/><line class="cls-5" x1="130.07" y1="67.12" x2="130.29" y2="67.06"/><line class="cls-5" x1="131.53" y1="66.74" x2="131.75" y2="66.68"/><line class="cls-5" x1="132.99" y1="66.36" x2="133.2" y2="66.31"/><line class="cls-5" x1="134.45" y1="66.09" x2="134.66" y2="66.04"/><line class="cls-5" x1="135.9" y1="65.77" x2="136.12" y2="65.71"/><line class="cls-5" x1="137.42" y1="65.5" x2="137.52" y2="65.5"/><line class="cls-5" x1="137.52" y1="65.5" x2="137.69" y2="65.44"/><line class="cls-5" x1="138.98" y1="65.23" x2="139.25" y2="65.23"/><line class="cls-5" x1="140.55" y1="65.06" x2="140.76" y2="65.01"/><line class="cls-5" x1="142.06" y1="64.85" x2="142.33" y2="64.85"/><line class="cls-5" x1="143.63" y1="64.69" x2="143.79" y2="64.69"/><line class="cls-5" x1="143.79" y1="64.69" x2="143.9" y2="64.69"/><line class="cls-5" x1="145.19" y1="64.58" x2="145.41" y2="64.52"/><line class="cls-5" x1="146.7" y1="64.47" x2="146.97" y2="64.42"/><line class="cls-5" x1="148.27" y1="64.36" x2="148.54" y2="64.36"/><line class="cls-5" x1="149.89" y1="64.36" x2="150.11" y2="64.36"/></g></svg>