<svg id="copy_cat" data-name="copy cat" xmlns="http://www.w3.org/2000/svg" viewBox="0 0 300 263"><defs><style>.cls-1,.cls-3{fill:none;stroke:#000;stroke-width:0.5px;}.cls-2{isolation:isolate;}.cls-3{stroke-linecap:round;stroke-linejoin:round;}</style></defs><title>copycat-table-anastassiades-flos-F1952044-spech-tech-02-300x263</title><line class="cls-1" x1="193.81" y1="226.53" x2="240.57" y2="226.53"/><line class="cls-1" x1="193.81" y1="224.83" x2="193.81" y2="228.23"/><line class="cls-1" x1="240.57" y1="224.83" x2="240.57" y2="228.23"/><line class="cls-1" x1="69.59" y1="65.73" x2="203.95" y2="65.73"/><line class="cls-1" x1="69.59" y1="64.03" x2="69.59" y2="67.43"/><line class="cls-1" x1="203.95" y1="64.03" x2="203.95" y2="67.43"/><line class="cls-1" x1="60.23" y1="217.3" x2="60.23" y2="74.79"/><line class="cls-1" x1="58.53" y1="217.3" x2="61.93" y2="217.3"/><line class="cls-1" x1="58.53" y1="74.79" x2="61.93" y2="74.79"/><g class="cls-2"><path d="M196.54,240.54a3.69,3.69,0,0,1,.71,1.16,4,4,0,0,1,.26,1.45,3.89,3.89,0,0,1-.31,1.57,3.85,3.85,0,0,1-.85,1.25,4.1,4.1,0,0,1-1.31.82,4.75,4.75,0,0,1-3.12.07,4,4,0,0,1-1.16-.61l-1.11,1.09-.53-.49,1.1-1.09a3.74,3.74,0,0,1-.72-1.18,4,4,0,0,1-.25-1.43,3.86,3.86,0,0,1,.31-1.57,3.73,3.73,0,0,1,.86-1.25,3.84,3.84,0,0,1,1.3-.82,4.4,4.4,0,0,1,1.65-.3,4.84,4.84,0,0,1,1.45.22,3.85,3.85,0,0,1,1.19.62l1.1-1.09.53.49Zm-1.29.26a2.83,2.83,0,0,0-1.88-.63,3,3,0,0,0-1.22.24,2.56,2.56,0,0,0-.91.63,2.66,2.66,0,0,0-.58.94,3.2,3.2,0,0,0-.21,1.17A2.94,2.94,0,0,0,191,245Zm-3.74,4.72a2.88,2.88,0,0,0,.83.45,3.37,3.37,0,0,0,1,.16,3,3,0,0,0,1.22-.24,2.6,2.6,0,0,0,.92-.63,2.54,2.54,0,0,0,.59-.94,3.2,3.2,0,0,0,.21-1.17,3.07,3.07,0,0,0-.56-1.82Z"/><path d="M209,242l0,0a2.16,2.16,0,0,1-.76.29,4.59,4.59,0,0,1-.87.09,3.9,3.9,0,0,1-1.42-.26,3.54,3.54,0,0,1-1.14-.73,3.36,3.36,0,0,1-.75-1.1,3.45,3.45,0,0,1-.28-1.41,3.51,3.51,0,0,1,.28-1.43,3.35,3.35,0,0,1,.8-1.1,3.67,3.67,0,0,1,1.21-.72,4.63,4.63,0,0,1,3.06,0,3.57,3.57,0,0,1,1.21.72,3.21,3.21,0,0,1,.8,1.1,3.51,3.51,0,0,1,.28,1.43,4.19,4.19,0,0,1-.29,1.65,8.76,8.76,0,0,1-.72,1.39l-3.17,5h-1.42Zm1.2-3.15a2.57,2.57,0,0,0-.19-1,2.23,2.23,0,0,0-.54-.77,2.63,2.63,0,0,0-.84-.51,3.21,3.21,0,0,0-2.12,0,2.58,2.58,0,0,0-.83.51,2.23,2.23,0,0,0-.54.77,2.4,2.4,0,0,0-.19,1,2.46,2.46,0,0,0,.19,1,2.37,2.37,0,0,0,.54.78,2.56,2.56,0,0,0,.83.5,3.21,3.21,0,0,0,2.12,0,2.6,2.6,0,0,0,.84-.5,2.37,2.37,0,0,0,.54-.78A2.64,2.64,0,0,0,210.17,238.88Z"/><path d="M215.25,240.86a2.54,2.54,0,0,1-.71-.37,2.57,2.57,0,0,1-.55-.59,2.79,2.79,0,0,1-.37-.73,2.63,2.63,0,0,1-.13-.84,2.76,2.76,0,0,1,1-2.16,3.36,3.36,0,0,1,1.05-.59,3.7,3.7,0,0,1,1.26-.21,3.79,3.79,0,0,1,1.26.21,3.36,3.36,0,0,1,1.05.59,2.88,2.88,0,0,1,.71.94,2.76,2.76,0,0,1,.27,1.22,2.64,2.64,0,0,1-.14.84,2.76,2.76,0,0,1-.36.73,2.62,2.62,0,0,1-.56.59,2.35,2.35,0,0,1-.7.37v0A2.83,2.83,0,0,1,219.9,242a3.1,3.1,0,0,1,.6,1.92,2.8,2.8,0,0,1-.31,1.33,3.17,3.17,0,0,1-.81,1,3.48,3.48,0,0,1-1.18.65,4.5,4.5,0,0,1-2.84,0,3.48,3.48,0,0,1-1.18-.65,3.35,3.35,0,0,1-.82-1,2.92,2.92,0,0,1-.3-1.33,3.1,3.1,0,0,1,.6-1.92,2.76,2.76,0,0,1,1.59-1.06Zm4.05,2.85a2.32,2.32,0,0,0-.18-.92,2.18,2.18,0,0,0-1.3-1.22,3,3,0,0,0-1-.18,2.89,2.89,0,0,0-1.05.18,2.33,2.33,0,0,0-.79.48,2.36,2.36,0,0,0-.5.74,2.32,2.32,0,0,0,0,1.84,2.36,2.36,0,0,0,.5.74,2.33,2.33,0,0,0,.79.48,2.89,2.89,0,0,0,1.05.18,3,3,0,0,0,1-.18,2.18,2.18,0,0,0,1.3-1.22A2.32,2.32,0,0,0,219.3,243.71Zm-.43-5.28a1.91,1.91,0,0,0-.16-.8,1.67,1.67,0,0,0-.44-.63,2.06,2.06,0,0,0-.66-.42,2.27,2.27,0,0,0-.83-.15,2.23,2.23,0,0,0-.83.15,2,2,0,0,0-.67.42,1.79,1.79,0,0,0-.44.63,2.08,2.08,0,0,0-.16.8,2.11,2.11,0,0,0,.16.8,1.88,1.88,0,0,0,.44.63,2,2,0,0,0,.67.42,2.23,2.23,0,0,0,.83.15,2.27,2.27,0,0,0,.83-.15,2.06,2.06,0,0,0,.66-.42,1.75,1.75,0,0,0,.44-.63A1.94,1.94,0,0,0,218.87,238.43Z"/><path d="M227.21,241.07c0-.28,0-.56,0-.83l-.06-.83h1.18v1.13h0a2.51,2.51,0,0,1,1.1-1,3.35,3.35,0,0,1,1.41-.34,4.13,4.13,0,0,1,.67.07,2.44,2.44,0,0,1,.69.23,2.26,2.26,0,0,1,.62.47,2.36,2.36,0,0,1,.49.79,2.53,2.53,0,0,1,1.06-1.14,3.28,3.28,0,0,1,3.71.34,3,3,0,0,1,.72,2.17v4.75h-1.1v-4.36a3.08,3.08,0,0,0-.42-1.75,1.74,1.74,0,0,0-1.54-.61,2,2,0,0,0-1,.24,1.88,1.88,0,0,0-.67.61,2.84,2.84,0,0,0-.38.87,4.31,4.31,0,0,0-.11,1v4h-1.1v-4.36a3.08,3.08,0,0,0-.42-1.75,1.74,1.74,0,0,0-1.54-.61c-.07,0-.22,0-.46.07a1.77,1.77,0,0,0-.74.35,2.71,2.71,0,0,0-.69.86,3.53,3.53,0,0,0-.3,1.6v3.84h-1.1Z"/><path d="M241.36,241.07c0-.28,0-.56,0-.83l-.06-.83h1.18v1.13h0a2.54,2.54,0,0,1,1.11-1,3.31,3.31,0,0,1,1.4-.34,4,4,0,0,1,.67.07,2.44,2.44,0,0,1,.69.23,2.3,2.3,0,0,1,.63.47,2.73,2.73,0,0,1,.49.79,2.51,2.51,0,0,1,1.05-1.14,3.3,3.3,0,0,1,3.72.34,3.08,3.08,0,0,1,.71,2.17v4.75h-1.1v-4.36a3.17,3.17,0,0,0-.41-1.75,1.76,1.76,0,0,0-1.55-.61,2,2,0,0,0-1,.24,2,2,0,0,0-.67.61,2.6,2.6,0,0,0-.37.87,4.31,4.31,0,0,0-.12,1v4h-1.1v-4.36a3.17,3.17,0,0,0-.41-1.75,1.76,1.76,0,0,0-1.55-.61l-.45.07a1.72,1.72,0,0,0-.74.35,2.46,2.46,0,0,0-.69.86,3.4,3.4,0,0,0-.31,1.6v3.84h-1.1Z"/></g><g class="cls-2"><path d="M109.25,49.53a3.56,3.56,0,0,1,.7,1.16,4,4,0,0,1,.26,1.44,3.86,3.86,0,0,1-.31,1.57,3.75,3.75,0,0,1-.85,1.25,4,4,0,0,1-1.31.83,4.68,4.68,0,0,1-1.67.29,4.46,4.46,0,0,1-1.45-.22,3.82,3.82,0,0,1-1.15-.61l-1.12,1.09-.53-.5,1.1-1.09a3.7,3.7,0,0,1-.72-1.17,4.23,4.23,0,0,1-.25-1.44,4,4,0,0,1,.31-1.56,3.79,3.79,0,0,1,2.16-2.07,4.78,4.78,0,0,1,3.1-.08,4,4,0,0,1,1.2.61l1.09-1.09.53.5Zm-1.3.25a2.86,2.86,0,0,0-1.88-.62,3.16,3.16,0,0,0-1.22.23A2.68,2.68,0,0,0,103.36,51a3.19,3.19,0,0,0-.21,1.16,2.9,2.9,0,0,0,.57,1.83Zm-3.74,4.72A2.78,2.78,0,0,0,105,55a3.09,3.09,0,0,0,1,.16,3.17,3.17,0,0,0,1.23-.23,3,3,0,0,0,.92-.63,2.88,2.88,0,0,0,.59-1,3.2,3.2,0,0,0,.2-1.17,3,3,0,0,0-.56-1.82Z"/><path d="M119,49.42h.62a4.07,4.07,0,0,0,1-.12,2.18,2.18,0,0,0,.82-.36,1.78,1.78,0,0,0,.56-.65,2,2,0,0,0,.2-1,1.78,1.78,0,0,0-.57-1.41,2.33,2.33,0,0,0-1.6-.5,2.52,2.52,0,0,0-1.31.32,2.49,2.49,0,0,0-.93.92l-1.05-.51a3.37,3.37,0,0,1,1.35-1.35,4,4,0,0,1,1.91-.44,4.32,4.32,0,0,1,1.31.19,3.28,3.28,0,0,1,1.08.57,2.71,2.71,0,0,1,1,2.18,2.33,2.33,0,0,1-.16.88,2.53,2.53,0,0,1-.43.75,3,3,0,0,1-1.4,1l0,0a2.48,2.48,0,0,1,.91.36,2.57,2.57,0,0,1,.71.64,3,3,0,0,1,.47.87,3.25,3.25,0,0,1-.13,2.4,2.92,2.92,0,0,1-.82,1,3.48,3.48,0,0,1-1.19.63,4.63,4.63,0,0,1-1.45.22,4.55,4.55,0,0,1-2.26-.54,3.38,3.38,0,0,1-1.44-1.75l1.26-.36a2.38,2.38,0,0,0,.89,1.2,3,3,0,0,0,1.65.39,2.75,2.75,0,0,0,1-.16,2.29,2.29,0,0,0,.79-.45,2.32,2.32,0,0,0,.53-.71,2.37,2.37,0,0,0-.06-2,2.08,2.08,0,0,0-.66-.72,2.94,2.94,0,0,0-1-.39,5.13,5.13,0,0,0-1.12-.12H119Z"/><path d="M129.48,44.36a3.44,3.44,0,0,1,2,.56,3.89,3.89,0,0,1,1.22,1.42,6.48,6.48,0,0,1,.58,1.9,13.08,13.08,0,0,1,0,3.95,6.48,6.48,0,0,1-.58,1.9,3.89,3.89,0,0,1-1.22,1.42,4,4,0,0,1-4.08,0,3.89,3.89,0,0,1-1.22-1.42,6.48,6.48,0,0,1-.58-1.9,13.08,13.08,0,0,1,0-3.95,6.48,6.48,0,0,1,.58-1.9,3.89,3.89,0,0,1,1.22-1.42A3.44,3.44,0,0,1,129.48,44.36Zm0,1.06a2.21,2.21,0,0,0-1.52.49,3.14,3.14,0,0,0-.84,1.23,5.8,5.8,0,0,0-.36,1.57c-.05.56-.07,1.06-.07,1.5s0,.95.07,1.51a5.8,5.8,0,0,0,.36,1.57,3.14,3.14,0,0,0,.84,1.23,2.6,2.6,0,0,0,3,0,3.14,3.14,0,0,0,.84-1.23,5.8,5.8,0,0,0,.36-1.57c.05-.56.07-1.06.07-1.51s0-.94-.07-1.5a5.8,5.8,0,0,0-.36-1.57,3.14,3.14,0,0,0-.84-1.23A2.21,2.21,0,0,0,129.48,45.42Z"/><path d="M138.72,44.36a3.44,3.44,0,0,1,2,.56A3.86,3.86,0,0,1,142,46.34a6.19,6.19,0,0,1,.58,1.9,13.08,13.08,0,0,1,0,3.95,6.19,6.19,0,0,1-.58,1.9,3.86,3.86,0,0,1-1.21,1.42,4,4,0,0,1-4.09,0,3.86,3.86,0,0,1-1.21-1.42,6.19,6.19,0,0,1-.58-1.9,13.08,13.08,0,0,1,0-3.95,6.19,6.19,0,0,1,.58-1.9,3.86,3.86,0,0,1,1.21-1.42A3.48,3.48,0,0,1,138.72,44.36Zm0,1.06a2.19,2.19,0,0,0-1.52.49,3.14,3.14,0,0,0-.84,1.23,5.8,5.8,0,0,0-.36,1.57c-.05.56-.07,1.06-.07,1.5s0,.95.07,1.51a5.8,5.8,0,0,0,.36,1.57,3.14,3.14,0,0,0,.84,1.23,2.6,2.6,0,0,0,3,0,3.14,3.14,0,0,0,.84-1.23,6.19,6.19,0,0,0,.35-1.57c0-.56.08-1.06.08-1.51s0-.94-.08-1.5a6.19,6.19,0,0,0-.35-1.57,3.14,3.14,0,0,0-.84-1.23A2.21,2.21,0,0,0,138.72,45.42Z"/><path d="M149.15,50.05c0-.27,0-.55,0-.83s0-.55-.05-.83h1.18v1.14h0a2.46,2.46,0,0,1,1.1-1,3.18,3.18,0,0,1,1.41-.34,4.06,4.06,0,0,1,.67.06,2.46,2.46,0,0,1,.69.24,2.08,2.08,0,0,1,.62.47,2.31,2.31,0,0,1,.49.78,2.46,2.46,0,0,1,1.06-1.13,2.94,2.94,0,0,1,1.5-.42A2.89,2.89,0,0,1,160,49a3,3,0,0,1,.72,2.17v4.75h-1.1V51.51a3,3,0,0,0-.42-1.74,1.72,1.72,0,0,0-1.54-.61,2.12,2.12,0,0,0-1,.23A1.9,1.9,0,0,0,156,50a2.45,2.45,0,0,0-.38.87,4.17,4.17,0,0,0-.11,1v4h-1.1V51.51a3,3,0,0,0-.42-1.74,1.72,1.72,0,0,0-1.54-.61l-.46.06a1.8,1.8,0,0,0-.74.36,2.6,2.6,0,0,0-.69.86,3.51,3.51,0,0,0-.3,1.6v3.84h-1.1Z"/><path d="M163.3,50.05c0-.27,0-.55,0-.83l-.06-.83h1.18v1.14h0a2.54,2.54,0,0,1,1.11-1,3.17,3.17,0,0,1,1.4-.34,4,4,0,0,1,.67.06,2.46,2.46,0,0,1,.69.24,2.25,2.25,0,0,1,.63.47,2.67,2.67,0,0,1,.49.78,2.44,2.44,0,0,1,1.05-1.13,2.94,2.94,0,0,1,1.5-.42,2.87,2.87,0,0,1,2.21.76,3,3,0,0,1,.72,2.17v4.75h-1.1V51.51a3.11,3.11,0,0,0-.41-1.74,1.75,1.75,0,0,0-1.55-.61,2.15,2.15,0,0,0-1,.23,1.9,1.9,0,0,0-.67.62,2.64,2.64,0,0,0-.38.87,4.74,4.74,0,0,0-.11,1v4h-1.1V51.51a3.11,3.11,0,0,0-.41-1.74,1.75,1.75,0,0,0-1.55-.61l-.46.06a1.77,1.77,0,0,0-.73.36,2.37,2.37,0,0,0-.69.86,3.37,3.37,0,0,0-.31,1.6v3.84h-1.1Z"/></g><g class="cls-2"><path d="M51.83,174v7.2H50.5l-4.59-4.51-.54-.51a6.62,6.62,0,0,0-.61-.47,3,3,0,0,0-.68-.33,2,2,0,0,0-.73-.13,1.84,1.84,0,0,0-.83.17,1.74,1.74,0,0,0-.63.47,2.18,2.18,0,0,0-.39.7,2.65,2.65,0,0,0-.13.85,2.33,2.33,0,0,0,.47,1.47,2.23,2.23,0,0,0,1.3.79L43,180.86a3.14,3.14,0,0,1-2-1.16,3.49,3.49,0,0,1-.72-2.23,4.59,4.59,0,0,1,.18-1.3,3.49,3.49,0,0,1,.55-1.09,2.67,2.67,0,0,1,.92-.75,2.79,2.79,0,0,1,1.29-.28,3.29,3.29,0,0,1,1.2.2,4.33,4.33,0,0,1,1,.52,6.2,6.2,0,0,1,.91.73c.29.27.57.55.85.83l3.53,3.57v-6Z"/><path d="M47,167.2l0,0a1.83,1.83,0,0,1,.29.73,3.69,3.69,0,0,1,.1.84,3.45,3.45,0,0,1-.27,1.37A3.27,3.27,0,0,1,45.22,172a3.58,3.58,0,0,1-1.41.26,3.63,3.63,0,0,1-1.42-.27,3,3,0,0,1-1.1-.77,3.44,3.44,0,0,1-.72-1.16,4.31,4.31,0,0,1,0-3,3.44,3.44,0,0,1,.72-1.16,3,3,0,0,1,1.1-.77,3.63,3.63,0,0,1,1.42-.28,4.6,4.6,0,0,1,1.65.28,9.53,9.53,0,0,1,1.39.7l5,3.06v1.36Zm-3.15-1.15a2.64,2.64,0,0,0-1,.18,2.28,2.28,0,0,0-.77.52,2.41,2.41,0,0,0-.5.8,3,3,0,0,0,0,2,2.52,2.52,0,0,0,.5.8,2.28,2.28,0,0,0,.77.52,2.64,2.64,0,0,0,1,.18,2.57,2.57,0,0,0,1-.18,2.32,2.32,0,0,0,.78-.52,2.21,2.21,0,0,0,.5-.8,3,3,0,0,0,0-2,2.13,2.13,0,0,0-.5-.8,2.32,2.32,0,0,0-.78-.52A2.57,2.57,0,0,0,43.81,166.05Z"/><path d="M45.8,161.15a2.28,2.28,0,0,1-.38.68,2.48,2.48,0,0,1-.58.54,3.14,3.14,0,0,1-.74.35,2.88,2.88,0,0,1-.83.13,2.87,2.87,0,0,1-2.75-2,3.46,3.46,0,0,1-.21-1.21,3.56,3.56,0,0,1,.21-1.22,2.94,2.94,0,0,1,.59-1,2.83,2.83,0,0,1,2.16-1,2.57,2.57,0,0,1,.83.13,2.79,2.79,0,0,1,.74.35,2.48,2.48,0,0,1,.58.54,2.16,2.16,0,0,1,.38.68h0a2.69,2.69,0,0,1,1.05-1.54,3.26,3.26,0,0,1,1.92-.58,2.86,2.86,0,0,1,1.33.3,3.3,3.3,0,0,1,1,.78,3.56,3.56,0,0,1,.65,1.14,4.38,4.38,0,0,1,0,2.74,3.41,3.41,0,0,1-.65,1.13,3.18,3.18,0,0,1-1,.79,3,3,0,0,1-1.33.29,3.25,3.25,0,0,1-1.92-.57,2.72,2.72,0,0,1-1.05-1.54Zm-2.43-3.49a2,2,0,0,0-1.44.58,2,2,0,0,0-.41.64,2.07,2.07,0,0,0-.15.8,2.06,2.06,0,0,0,.56,1.44,1.87,1.87,0,0,0,.64.42,2.08,2.08,0,0,0,.8.16,2.15,2.15,0,0,0,.8-.16,1.93,1.93,0,0,0,.63-.42,2.13,2.13,0,0,0,.57-1.44,2.08,2.08,0,0,0-.16-.8,2,2,0,0,0-.41-.64,1.92,1.92,0,0,0-1.43-.58Zm5.28-.41a2.47,2.47,0,0,0-.92.17,2.22,2.22,0,0,0-.74.49,2.16,2.16,0,0,0-.49.77,3.06,3.06,0,0,0,0,2,2.21,2.21,0,0,0,.49.76,2.39,2.39,0,0,0,.74.49,2.47,2.47,0,0,0,.92.17,2.55,2.55,0,0,0,.92-.17,2.46,2.46,0,0,0,.73-.49,2.21,2.21,0,0,0,.49-.76,3.06,3.06,0,0,0,0-2,2.16,2.16,0,0,0-.49-.77,2.29,2.29,0,0,0-.73-.49A2.55,2.55,0,0,0,48.65,157.25Z"/><path d="M54.07,153.13v1.06l-3.76-1.07v-1.3Z"/><path d="M41.56,143.34V148l3.4.08a4.05,4.05,0,0,1-.2-.76,3.91,3.91,0,0,1-.07-.76,3.8,3.8,0,0,1,.27-1.46,3.43,3.43,0,0,1,.77-1.13,3.33,3.33,0,0,1,1.15-.73,4,4,0,0,1,2.94,0A3.53,3.53,0,0,1,51,144a3.77,3.77,0,0,1,.76,1.21,4.13,4.13,0,0,1,.27,1.51,3.75,3.75,0,0,1-.51,1.94A3.34,3.34,0,0,1,50,150l-.49-1.16a2.58,2.58,0,0,0,1.06-.89,2.28,2.28,0,0,0,.39-1.32,2.43,2.43,0,0,0-.2-1,2.6,2.6,0,0,0-.53-.8,2.65,2.65,0,0,0-.8-.55,2.53,2.53,0,0,0-1-.19,2.75,2.75,0,0,0-1.09.2,2.56,2.56,0,0,0-.86.58,2.48,2.48,0,0,0-.55.88,3.1,3.1,0,0,0-.19,1.12,4.16,4.16,0,0,0,.17,1.21,5.64,5.64,0,0,0,.45,1.14l-5.87-.11v-5.78Z"/><path d="M46,136.29c-.27,0-.55,0-.83,0l-.83.06v-1.14h1.14v0a2.44,2.44,0,0,1-1-1.07,2.94,2.94,0,0,1-.34-1.35,3.63,3.63,0,0,1,.06-.64,2.45,2.45,0,0,1,.24-.67,2.14,2.14,0,0,1,.47-.6,2.65,2.65,0,0,1,.78-.47,2.38,2.38,0,0,1-1.13-1,3.06,3.06,0,0,1,.34-3.57,3.12,3.12,0,0,1,2.17-.69h4.75v1.06H47.46a3.11,3.11,0,0,0-1.74.4,1.62,1.62,0,0,0-.61,1.48,2,2,0,0,0,.23,1,1.9,1.9,0,0,0,.62.64,2.42,2.42,0,0,0,.87.36,4.17,4.17,0,0,0,1,.12h4v1H47.46a3.11,3.11,0,0,0-1.74.4,1.64,1.64,0,0,0-.61,1.49,3.61,3.61,0,0,0,.06.44,1.65,1.65,0,0,0,.36.71,2.45,2.45,0,0,0,.86.67,3.66,3.66,0,0,0,1.6.29h3.84v1.06Z"/><path d="M46,122.66c-.27,0-.55,0-.83,0l-.83.06V121.6h1.14v0a2.44,2.44,0,0,1-1-1.07,2.94,2.94,0,0,1-.34-1.35,3.83,3.83,0,0,1,.06-.65,2.28,2.28,0,0,1,.24-.66,2.14,2.14,0,0,1,.47-.6,2.45,2.45,0,0,1,.78-.47,2.43,2.43,0,0,1-1.13-1,2.74,2.74,0,0,1-.42-1.45,2.69,2.69,0,0,1,.76-2.12,3.12,3.12,0,0,1,2.17-.69h4.75v1.05H47.46a3.2,3.2,0,0,0-1.74.4,1.65,1.65,0,0,0-.61,1.49,2,2,0,0,0,.23,1,1.84,1.84,0,0,0,.62.65,2.42,2.42,0,0,0,.87.36,4.17,4.17,0,0,0,1,.11h4v1.06H47.46a3.11,3.11,0,0,0-1.74.4,1.64,1.64,0,0,0-.61,1.49,3.61,3.61,0,0,0,.06.44,1.71,1.71,0,0,0,.36.71,2.33,2.33,0,0,0,.86.66,3.51,3.51,0,0,0,1.6.3h3.84v1.06Z"/></g><g id="POINT"><line class="cls-3" x1="69.56" y1="146.23" x2="69.56" y2="146.23"/></g><g id="POINT-2" data-name="POINT"><line class="cls-3" x1="240.57" y1="193.71" x2="240.57" y2="193.71"/></g><g id="LINE"><line class="cls-3" x1="124.5" y1="216.08" x2="124.5" y2="216.16"/></g><g id="LINE-2" data-name="LINE"><line class="cls-3" x1="124.5" y1="216.16" x2="125.01" y2="216.55"/></g><g id="LINE-3" data-name="LINE"><line class="cls-3" x1="125.01" y1="216.55" x2="141.2" y2="216.55"/></g><g id="LINE-4" data-name="LINE"><line class="cls-3" x1="157.89" y1="216.08" x2="157.89" y2="216.16"/></g><g id="LINE-5" data-name="LINE"><line class="cls-3" x1="157.89" y1="216.16" x2="157.38" y2="216.55"/></g><g id="LINE-6" data-name="LINE"><line class="cls-3" x1="157.38" y1="216.55" x2="141.2" y2="216.55"/></g><g id="LINE-7" data-name="LINE"><line class="cls-3" x1="141.2" y1="216.96" x2="127.35" y2="216.96"/></g><g id="ARC"><path class="cls-3" d="M127.33,217a.41.41,0,0,1-.4-.41"/></g><g id="LINE-8" data-name="LINE"><line class="cls-3" x1="127.33" y1="216.96" x2="127.35" y2="216.96"/></g><g id="ARC-2" data-name="ARC"><path class="cls-3" d="M155.46,216.55a.41.41,0,0,1-.4.41"/></g><g id="LINE-9" data-name="LINE"><line class="cls-3" x1="155.06" y1="216.96" x2="155.04" y2="216.96"/></g><g id="LINE-10" data-name="LINE"><line class="cls-3" x1="141.2" y1="216.96" x2="155.04" y2="216.96"/></g><g id="ARC-3" data-name="ARC"><path class="cls-3" d="M200.48,210.11a23,23,0,0,1-1.84-2.11"/></g><g id="ARC-4" data-name="ARC"><path class="cls-3" d="M125.29,216.08A71.63,71.63,0,0,1,141.2,74.6"/></g><g id="ARC-5" data-name="ARC"><path class="cls-3" d="M194.21,194.41a71.65,71.65,0,0,1-37.11,21.67"/></g><g id="ARC-6" data-name="ARC"><path class="cls-3" d="M141.2,74.6a71.62,71.62,0,0,1,66.53,98.16"/></g><g id="LINE-11" data-name="LINE"><line class="cls-3" x1="155.85" y1="216.08" x2="124.5" y2="216.08"/></g><g id="LINE-12" data-name="LINE"><line class="cls-3" x1="155.85" y1="216.08" x2="157.89" y2="216.08"/></g><g id="LINE-13" data-name="LINE"><line class="cls-3" x1="197.76" y1="206.71" x2="201.22" y2="210.83"/></g><g id="LINE-14" data-name="LINE"><line class="cls-3" x1="200.99" y1="210.56" x2="200.61" y2="210.1"/></g><g id="LINE-15" data-name="LINE"><line class="cls-3" x1="198.15" y1="207.17" x2="197.54" y2="206.44"/></g><g id="LINE-16" data-name="LINE"><line class="cls-3" x1="208.13" y1="172.12" x2="193.81" y2="195.05"/></g><g id="ARC-7" data-name="ARC"><path class="cls-3" d="M217,217.11a23.43,23.43,0,0,1-15.74-6.28"/></g><g id="ARC-8" data-name="ARC"><path class="cls-3" d="M197.54,206.44a23.4,23.4,0,0,1-3.73-11.39"/></g><g id="ARC-9" data-name="ARC"><path class="cls-3" d="M208.13,172.12a23.46,23.46,0,0,1,9.24-1.81"/></g><g id="ARC-10" data-name="ARC"><path class="cls-3" d="M217.37,170.31a23.4,23.4,0,1,1-.41,46.8"/></g><g id="LINE-17" data-name="LINE"><line class="cls-3" x1="198.71" y1="207.93" x2="199.34" y2="208.67"/></g><g id="LINE-18" data-name="LINE"><line class="cls-3" x1="198.63" y1="207.82" x2="198.71" y2="207.93"/></g><g id="LINE-19" data-name="LINE"><line class="cls-3" x1="199.34" y1="208.67" x2="200.05" y2="209.52"/></g><g id="LINE-20" data-name="LINE"><line class="cls-3" x1="198.36" y1="207.46" x2="198.15" y2="207.17"/></g><g id="LINE-21" data-name="LINE"><line class="cls-3" x1="200.35" y1="209.84" x2="200.6" y2="210.1"/></g><g id="LINE-22" data-name="LINE"><line class="cls-3" x1="199.34" y1="208.67" x2="198.72" y2="207.93"/></g><g id="LINE-23" data-name="LINE"><line class="cls-3" x1="198.63" y1="207.83" x2="198.91" y2="208.16"/></g><g id="LINE-24" data-name="LINE"><line class="cls-3" x1="198.63" y1="207.82" x2="198.63" y2="207.83"/></g><g id="LINE-25" data-name="LINE"><line class="cls-3" x1="198.72" y1="207.93" x2="198.63" y2="207.83"/></g><g id="LINE-26" data-name="LINE"><line class="cls-3" x1="199.77" y1="209.18" x2="199.96" y2="209.41"/></g><g id="LINE-27" data-name="LINE"><line class="cls-3" x1="200.04" y1="209.51" x2="199.34" y2="208.67"/></g><g id="LINE-28" data-name="LINE"><line class="cls-3" x1="200.05" y1="209.52" x2="200.04" y2="209.51"/></g><g id="LINE-29" data-name="LINE"><line class="cls-3" x1="199.96" y1="209.41" x2="200.04" y2="209.51"/></g><g id="ARC-11" data-name="ARC"><path class="cls-3" d="M198.63,207.82l-.27-.36"/></g><g id="ARC-12" data-name="ARC"><path class="cls-3" d="M200.35,209.84l-.3-.32"/></g></svg>