<svg id="DElight" xmlns="http://www.w3.org/2000/svg" viewBox="0 0 300 263"><defs><style>.cls-1,.cls-3{fill:none;stroke-width:0.5px;}.cls-1{stroke:#000;}.cls-2{isolation:isolate;}.cls-3{stroke:#000100;stroke-linecap:round;stroke-linejoin:round;}</style></defs><title>de-light-table-starck-flos-F0028057-spech-tech-02-300x263</title><line class="cls-1" x1="92.19" y1="226.53" x2="164.98" y2="226.53"/><line class="cls-1" x1="92.19" y1="224.83" x2="92.19" y2="228.23"/><line class="cls-1" x1="164.98" y1="224.83" x2="164.98" y2="228.23"/><line class="cls-1" x1="91.99" y1="38.34" x2="208.01" y2="38.34"/><line class="cls-1" x1="91.99" y1="36.64" x2="91.99" y2="40.04"/><line class="cls-1" x1="208.01" y1="36.64" x2="208.01" y2="40.04"/><line class="cls-1" x1="80.86" y1="217.3" x2="80.86" y2="46.68"/><line class="cls-1" x1="79.16" y1="217.3" x2="82.56" y2="217.3"/><line class="cls-1" x1="79.16" y1="46.68" x2="82.56" y2="46.68"/><g class="cls-2"><path d="M103.9,246.89h-1.2V237l-2.11,1.79-.75-.87,3-2.36h1.07Z"/><path d="M110.74,240.43h.62a4.62,4.62,0,0,0,1-.11,2.55,2.55,0,0,0,.82-.36,1.74,1.74,0,0,0,.55-.65,2.06,2.06,0,0,0,.21-1,1.8,1.8,0,0,0-.57-1.42,2.38,2.38,0,0,0-1.6-.5,2.69,2.69,0,0,0-1.32.32,2.59,2.59,0,0,0-.93.93l-1-.51a3.46,3.46,0,0,1,1.35-1.36,4,4,0,0,1,1.9-.44,4.28,4.28,0,0,1,1.31.2,3.09,3.09,0,0,1,1.08.56,2.76,2.76,0,0,1,1,2.19,2.37,2.37,0,0,1-.16.88,2.76,2.76,0,0,1-1.07,1.33,3.06,3.06,0,0,1-.77.38l.05,0a2.85,2.85,0,0,1,.92.36,2.93,2.93,0,0,1,.71.65,3,3,0,0,1,.47.86,3.33,3.33,0,0,1-.14,2.4,2.92,2.92,0,0,1-.81,1,3.61,3.61,0,0,1-1.2.63,4.82,4.82,0,0,1-1.44.22,4.56,4.56,0,0,1-2.26-.55A3.38,3.38,0,0,1,108,244.8l1.27-.37a2.35,2.35,0,0,0,.89,1.21,3,3,0,0,0,1.65.39,2.75,2.75,0,0,0,.95-.16,2.44,2.44,0,0,0,.78-.46,2,2,0,0,0,.54-.71,2.28,2.28,0,0,0,.19-.91,2.21,2.21,0,0,0-.25-1.08,2.07,2.07,0,0,0-.67-.71,2.8,2.8,0,0,0-1-.39,5.13,5.13,0,0,0-1.12-.12h-.52Z"/><path d="M119.78,240.43l0,0a2.16,2.16,0,0,1,.76-.29,4.59,4.59,0,0,1,.87-.09,3.9,3.9,0,0,1,1.42.26,3.54,3.54,0,0,1,1.14.73,3.36,3.36,0,0,1,.75,1.1,3.45,3.45,0,0,1,.28,1.41,3.68,3.68,0,0,1-.28,1.43,3.35,3.35,0,0,1-.8,1.1,3.67,3.67,0,0,1-1.21.72,4.63,4.63,0,0,1-3.06,0,3.57,3.57,0,0,1-1.21-.72,3.21,3.21,0,0,1-.8-1.1,3.51,3.51,0,0,1-.28-1.43,4.19,4.19,0,0,1,.29-1.65,8.76,8.76,0,0,1,.72-1.39l3.17-5H123Zm-1.2,3.15a2.61,2.61,0,0,0,.19,1,2.37,2.37,0,0,0,.54.78,2.29,2.29,0,0,0,.84.5,3.21,3.21,0,0,0,2.12,0,2.25,2.25,0,0,0,.83-.5,2.37,2.37,0,0,0,.54-.78,2.43,2.43,0,0,0,.19-1,2.46,2.46,0,0,0-.19-1,2.33,2.33,0,0,0-.54-.77,2.56,2.56,0,0,0-.83-.5,3.05,3.05,0,0,0-2.12,0,2.6,2.6,0,0,0-.84.5,2.33,2.33,0,0,0-.54.77A2.64,2.64,0,0,0,118.58,243.58Z"/><path d="M131.64,241.07c0-.28,0-.56,0-.83l-.06-.83h1.18v1.13h0a2.51,2.51,0,0,1,1.1-1,3.35,3.35,0,0,1,1.41-.34,4.13,4.13,0,0,1,.67.07,2.44,2.44,0,0,1,.69.23,2.26,2.26,0,0,1,.62.47,2.36,2.36,0,0,1,.49.79,2.59,2.59,0,0,1,1.06-1.14,3.28,3.28,0,0,1,3.71.34,3,3,0,0,1,.72,2.17v4.75h-1.1v-4.36a3.08,3.08,0,0,0-.42-1.75,1.74,1.74,0,0,0-1.54-.61,2,2,0,0,0-1,.24,1.88,1.88,0,0,0-.67.61,2.62,2.62,0,0,0-.38.87,4.31,4.31,0,0,0-.11,1v4h-1.1v-4.36a3.08,3.08,0,0,0-.42-1.75,1.74,1.74,0,0,0-1.54-.61c-.07,0-.22,0-.46.07a1.77,1.77,0,0,0-.74.35,2.71,2.71,0,0,0-.69.86,3.53,3.53,0,0,0-.3,1.6v3.84h-1.1Z"/><path d="M145.79,241.07c0-.28,0-.56,0-.83l-.06-.83h1.18v1.13h0a2.54,2.54,0,0,1,1.11-1,3.31,3.31,0,0,1,1.4-.34,4,4,0,0,1,.67.07,2.44,2.44,0,0,1,.69.23,2.3,2.3,0,0,1,.63.47,2.73,2.73,0,0,1,.49.79,2.51,2.51,0,0,1,1.05-1.14,3.28,3.28,0,0,1,3.71.34,3,3,0,0,1,.72,2.17v4.75h-1.1v-4.36a3.17,3.17,0,0,0-.41-1.75,1.78,1.78,0,0,0-1.55-.61,2,2,0,0,0-1,.24,2,2,0,0,0-.67.61,2.6,2.6,0,0,0-.37.87,4.31,4.31,0,0,0-.12,1v4H151v-4.36a3.17,3.17,0,0,0-.41-1.75,1.76,1.76,0,0,0-1.55-.61l-.45.07a1.72,1.72,0,0,0-.74.35,2.46,2.46,0,0,0-.69.86,3.4,3.4,0,0,0-.31,1.6v3.84h-1.1Z"/></g><g class="cls-2"><path d="M127.46,29.5H120V28.17l4.68-4.59.54-.55a5.87,5.87,0,0,0,.48-.61,3.28,3.28,0,0,0,.35-.67,2,2,0,0,0,.13-.74,2.05,2.05,0,0,0-.17-.83,1.85,1.85,0,0,0-.49-.62,2.38,2.38,0,0,0-.74-.39,2.8,2.8,0,0,0-.88-.14,2.44,2.44,0,0,0-1.52.48,2.12,2.12,0,0,0-.82,1.3l-1.26-.13a3.16,3.16,0,0,1,1.2-2A3.69,3.69,0,0,1,123.8,18a4.89,4.89,0,0,1,1.35.18,3.4,3.4,0,0,1,1.13.55,2.69,2.69,0,0,1,1.08,2.21,3.29,3.29,0,0,1-.21,1.2,5,5,0,0,1-.54,1,6.55,6.55,0,0,1-.76.91c-.28.29-.57.58-.87.85l-3.7,3.54h6.18Z"/><path d="M134.2,29.5H133V19.61l-2.11,1.79-.74-.86,3-2.37h1.06Z"/><path d="M140.84,23l0,0a2.18,2.18,0,0,1,.75-.28,4.09,4.09,0,0,1,.88-.1,3.9,3.9,0,0,1,1.42.26,3.6,3.6,0,0,1,1.13.73,3.18,3.18,0,0,1,.76,1.11,3.53,3.53,0,0,1,.27,1.4,3.48,3.48,0,0,1-.28,1.43,3.21,3.21,0,0,1-.8,1.1,3.57,3.57,0,0,1-1.21.72,4.6,4.6,0,0,1-3.05,0,3.72,3.72,0,0,1-1.22-.72,3.35,3.35,0,0,1-.8-1.1,3.65,3.65,0,0,1-.28-1.43,4.29,4.29,0,0,1,.29-1.64,9.86,9.86,0,0,1,.73-1.4l3.17-5h1.41Zm-1.19,3.15a2.4,2.4,0,0,0,.19,1,2.37,2.37,0,0,0,.54.78,2.41,2.41,0,0,0,.83.51,3.42,3.42,0,0,0,2.13,0,2.51,2.51,0,0,0,.83-.51,2.37,2.37,0,0,0,.54-.78,2.57,2.57,0,0,0,.19-1,2.64,2.64,0,0,0-.19-1,2.33,2.33,0,0,0-.54-.77,2.67,2.67,0,0,0-.83-.5,3.24,3.24,0,0,0-2.13,0,2.56,2.56,0,0,0-.83.5,2.33,2.33,0,0,0-.54.77A2.46,2.46,0,0,0,139.65,26.18Z"/><path d="M152.71,23.67c0-.28,0-.55,0-.83l-.06-.83h1.18v1.13h0a2.6,2.6,0,0,1,1.11-1,3.29,3.29,0,0,1,1.4-.33,4.18,4.18,0,0,1,.68.06,2.67,2.67,0,0,1,.69.23,2.42,2.42,0,0,1,.62.47,2.66,2.66,0,0,1,.49.79,2.51,2.51,0,0,1,1.05-1.14,3,3,0,0,1,1.51-.41,2.9,2.9,0,0,1,2.21.76,3,3,0,0,1,.71,2.16V29.5h-1.1V25.13a3.08,3.08,0,0,0-.41-1.75,1.76,1.76,0,0,0-1.55-.6,2,2,0,0,0-1,.23,2,2,0,0,0-.67.61,2.78,2.78,0,0,0-.37.88,4.17,4.17,0,0,0-.12,1v4H158V25.13a3.08,3.08,0,0,0-.42-1.75,1.75,1.75,0,0,0-1.54-.6l-.46.06a1.72,1.72,0,0,0-.74.35,2.46,2.46,0,0,0-.69.86,3.41,3.41,0,0,0-.31,1.61V29.5h-1.09Z"/><path d="M166.86,23.67c0-.28,0-.55,0-.83s0-.56-.05-.83H168v1.13h0a2.52,2.52,0,0,1,1.1-1,3.3,3.3,0,0,1,1.41-.33,4.06,4.06,0,0,1,.67.06,2.44,2.44,0,0,1,.69.23,2.26,2.26,0,0,1,.62.47,2.47,2.47,0,0,1,.49.79A2.48,2.48,0,0,1,174,22.23a2.92,2.92,0,0,1,1.5-.41,2.89,2.89,0,0,1,2.21.76,3,3,0,0,1,.71,2.16V29.5h-1.09V25.13a3.08,3.08,0,0,0-.42-1.75,1.74,1.74,0,0,0-1.54-.6,1.95,1.95,0,0,0-1.71.84,2.78,2.78,0,0,0-.37.88,4.17,4.17,0,0,0-.11,1v4h-1.1V25.13a3.08,3.08,0,0,0-.42-1.75,1.74,1.74,0,0,0-1.54-.6l-.46.06a1.77,1.77,0,0,0-.74.35,2.71,2.71,0,0,0-.69.86,3.55,3.55,0,0,0-.3,1.61V29.5h-1.1Z"/></g><g class="cls-2"><path d="M66,157.3v-.59a4.19,4.19,0,0,0-.11-1,2.39,2.39,0,0,0-.36-.79,1.81,1.81,0,0,0-.65-.54,2.19,2.19,0,0,0-1-.2,1.82,1.82,0,0,0-1.41.55,2.21,2.21,0,0,0-.51,1.55,2.38,2.38,0,0,0,1.25,2.16l-.51,1a3.35,3.35,0,0,1-1.35-1.31,3.65,3.65,0,0,1-.44-1.83,4,4,0,0,1,.19-1.26,2.78,2.78,0,0,1,.57-1,2.73,2.73,0,0,1,.92-.72,3,3,0,0,1,1.26-.26,2.58,2.58,0,0,1,.88.15,2.5,2.5,0,0,1,.75.42,2.94,2.94,0,0,1,1,1.35l0-.05a2.72,2.72,0,0,1,.36-.88,3,3,0,0,1,.65-.69,2.85,2.85,0,0,1,.87-.44,3,3,0,0,1,1-.16,3.27,3.27,0,0,1,1.4.28,3.18,3.18,0,0,1,1,.79,3.3,3.3,0,0,1,.63,1.15,4.26,4.26,0,0,1,.22,1.39,4.18,4.18,0,0,1-.55,2.18A3.29,3.29,0,0,1,70.36,160L70,158.74a2.31,2.31,0,0,0,1.21-.85,2.79,2.79,0,0,0,.39-1.59,2.58,2.58,0,0,0-.16-.92,2.45,2.45,0,0,0-.46-.76,2.19,2.19,0,0,0-.71-.51,2.24,2.24,0,0,0-.91-.18,2.21,2.21,0,0,0-1.08.24,2,2,0,0,0-.71.64,2.72,2.72,0,0,0-.39.92,4.83,4.83,0,0,0-.12,1.08v.49Z"/><path d="M72.46,146.1v1.16H62.57l1.79,2-.86.72-2.37-2.88v-1Z"/><path d="M72.46,137.21v1.15H62.57l1.79,2-.86.72-2.37-2.88v-1Z"/><path d="M66.63,128.28l-.83,0-.83.06v-1.14H66.1v0a2.47,2.47,0,0,1-1-1.06,3.08,3.08,0,0,1-.33-1.35,3.74,3.74,0,0,1,.06-.65,2.42,2.42,0,0,1,.23-.67,2.34,2.34,0,0,1,.47-.6,2.85,2.85,0,0,1,.79-.47,2.48,2.48,0,0,1-1.14-1,2.78,2.78,0,0,1-.41-1.45,2.73,2.73,0,0,1,.76-2.13,3.08,3.08,0,0,1,2.16-.69h4.76v1.06H68.09a3.17,3.17,0,0,0-1.75.4,1.66,1.66,0,0,0-.6,1.49,1.84,1.84,0,0,0,.84,1.64,3,3,0,0,0,.88.36,4.74,4.74,0,0,0,1,.11h4v1H68.09a3.26,3.26,0,0,0-1.75.4,1.67,1.67,0,0,0-.6,1.49,3.37,3.37,0,0,0,.06.44,1.62,1.62,0,0,0,.35.71,2.55,2.55,0,0,0,.86.67,3.57,3.57,0,0,0,1.61.29h3.84v1.06Z"/><path d="M66.63,114.65l-.83,0-.83.06v-1.14H66.1v0a2.53,2.53,0,0,1-1-1.06,3.12,3.12,0,0,1-.33-1.35,3.74,3.74,0,0,1,.06-.65,2.42,2.42,0,0,1,.23-.67,2.34,2.34,0,0,1,.47-.6,2.85,2.85,0,0,1,.79-.47,2.45,2.45,0,0,1-1.14-1,3.09,3.09,0,0,1,.35-3.57,3.08,3.08,0,0,1,2.16-.69h4.76v1.06H68.09a3.17,3.17,0,0,0-1.75.4,1.64,1.64,0,0,0-.6,1.48,1.92,1.92,0,0,0,.23,1,1.87,1.87,0,0,0,.61.64,2.55,2.55,0,0,0,.88.36,4.17,4.17,0,0,0,1,.12h4v1H68.09a3.26,3.26,0,0,0-1.75.4,1.67,1.67,0,0,0-.6,1.49,3.61,3.61,0,0,0,.06.44,1.62,1.62,0,0,0,.35.71,2.55,2.55,0,0,0,.86.67,3.71,3.71,0,0,0,1.61.29h3.84v1.06Z"/></g><path class="cls-3" d="M92,110.47l.83,0,.83.12.76.22.72.27.61.38.45.42.35.45.22.46.08.45M165,216.72H92m73-3.22v3.22m0-3.22H92m0,0v3.22m0-8.08h4.85M92,114.49h4.85m-4.85,0v94.15m9-99h-.64m-8.38.79v4m4.85,0H92m0-8.68v4.66m9-.79h-1l-.87.19-.83.41-.31.23m3.3-1.13.23-.35.07-.34,0-.34-.23-.34-.34-.34-.49-.34-.61-.27-.72-.3-.84-.23-.94-.23-1-.15-1.1-.15-1.14-.11-1.17,0M208,103v6.64m-1.06-.3H101.35m-.34.3.11-.12.12-.11.11-.07m106.66.3H101M92,103v2.77m1.06,0-.34,0H92m1.06,0v-2.5m0,0H207m0,0v6M208,96V103M92,96V103m116,0H92M208,96H92m9.48,13.27h14.1m0,0v-5.87m-14.22,5.87.23-.34.07-.34,0-.38-.23-.34-.34-.3-.49-.34-.61-.27-.72-.3-.84-.23-.94-.23-1-.15-1.1-.15-1.14-.12-1.17,0m22.52,3.52v-5.87M207,109.22H115.57m3.22-62.94V96M92,46.28h26.8m-26.8,0V96M92,213.5v-4.86m0,0h4.85m0,0V114.49m1.4-4.13,1.1-.53,1-.15m-3.53,4.81v-1.21m4.81-4.63v-.15m-4.81,4.78V113l.11-.72.23-.61.27-.46.26-.37.23-.23.15-.15m3.56,103.06-.94-.12-.91-.26-.84-.46-.72-.57-.6-.75-.46-.84-.27-.91-.07-1"/></svg>