<svg id="ExtraT" xmlns="http://www.w3.org/2000/svg" viewBox="0 0 300 263"><defs><style>.cls-1,.cls-3{fill:none;stroke-width:0.5px;}.cls-1{stroke:#000;}.cls-2{isolation:isolate;}.cls-3{stroke:#12110b;stroke-miterlimit:2;}</style></defs><title>extra-table-anastassiades-flos-F2130004-spech-tech-02-300x263</title><line class="cls-1" x1="66.07" y1="217.67" x2="66.07" y2="47.05"/><line class="cls-1" x1="64.37" y1="217.67" x2="67.77" y2="217.67"/><line class="cls-1" x1="64.37" y1="47.05" x2="67.77" y2="47.05"/><line class="cls-1" x1="76.76" y1="226.5" x2="222.24" y2="226.5"/><line class="cls-1" x1="76.76" y1="224.8" x2="76.76" y2="228.2"/><line class="cls-1" x1="222.24" y1="224.8" x2="222.24" y2="228.2"/><g class="cls-2"><path d="M127.46,246.86H120v-1.33l4.68-4.59c.18-.17.36-.36.54-.55a7,7,0,0,0,.48-.6,3.65,3.65,0,0,0,.35-.68,2,2,0,0,0,.13-.73,2,2,0,0,0-.17-.83,1.79,1.79,0,0,0-.49-.63,2.38,2.38,0,0,0-.74-.39,2.8,2.8,0,0,0-.88-.14,2.44,2.44,0,0,0-1.52.48,2.12,2.12,0,0,0-.82,1.3l-1.26-.13a3.19,3.19,0,0,1,1.2-2,3.75,3.75,0,0,1,2.32-.72,4.89,4.89,0,0,1,1.35.18,3.4,3.4,0,0,1,1.13.55,2.69,2.69,0,0,1,1.08,2.21,3.29,3.29,0,0,1-.21,1.2,5.06,5.06,0,0,1-.54,1,7.19,7.19,0,0,1-.76.91c-.28.29-.57.57-.87.85l-3.7,3.53h6.18Z"/><path d="M134.47,242l0,0a2,2,0,0,1-.75.29,4.84,4.84,0,0,1-.88.1,3.7,3.7,0,0,1-1.42-.27,3.44,3.44,0,0,1-1.13-.73,3.15,3.15,0,0,1-.76-1.1,3.62,3.62,0,0,1-.27-1.41,3.43,3.43,0,0,1,.28-1.42,3.16,3.16,0,0,1,.8-1.11,3.57,3.57,0,0,1,1.21-.72,4.39,4.39,0,0,1,1.53-.25,4.47,4.47,0,0,1,1.53.25,3.78,3.78,0,0,1,1.21.72,3.29,3.29,0,0,1,.8,1.11,3.6,3.6,0,0,1,.28,1.42,4.38,4.38,0,0,1-.29,1.65,9.76,9.76,0,0,1-.73,1.39l-3.17,5h-1.41Zm1.19-3.15a2.46,2.46,0,0,0-.19-1,2.23,2.23,0,0,0-.54-.77,2.56,2.56,0,0,0-.83-.5,3.08,3.08,0,0,0-2.13,0,2.67,2.67,0,0,0-.83.5,2.23,2.23,0,0,0-.54.77,2.64,2.64,0,0,0-.19,1,2.61,2.61,0,0,0,.19,1,2.37,2.37,0,0,0,.54.78,2.33,2.33,0,0,0,.83.5,3.24,3.24,0,0,0,2.13,0,2.25,2.25,0,0,0,.83-.5,2.37,2.37,0,0,0,.54-.78A2.43,2.43,0,0,0,135.66,238.84Z"/><path d="M145.93,246.86h-7.48v-1.33l4.69-4.59.53-.55a4.51,4.51,0,0,0,.48-.6,3.65,3.65,0,0,0,.35-.68,2,2,0,0,0,.13-.73,2,2,0,0,0-.17-.83,1.79,1.79,0,0,0-.49-.63,2.33,2.33,0,0,0-.73-.39,2.84,2.84,0,0,0-.88-.14,2.45,2.45,0,0,0-1.53.48,2.21,2.21,0,0,0-.82,1.3l-1.26-.13a3.16,3.16,0,0,1,1.21-2,3.72,3.72,0,0,1,2.31-.72,5,5,0,0,1,1.36.18,3.6,3.6,0,0,1,1.13.55,2.9,2.9,0,0,1,.78.92,2.79,2.79,0,0,1,.29,1.29,3.29,3.29,0,0,1-.21,1.2,5.06,5.06,0,0,1-.54,1,7.1,7.1,0,0,1-.75.91l-.88.85-3.7,3.53h6.18Z"/><path d="M152.71,241c0-.27,0-.55,0-.83l-.06-.83h1.18v1.14h0a2.62,2.62,0,0,1,1.11-1,3.29,3.29,0,0,1,1.4-.33,4.18,4.18,0,0,1,.68.06,2.67,2.67,0,0,1,.69.23,2.26,2.26,0,0,1,.62.48,2.48,2.48,0,0,1,.49.78,2.51,2.51,0,0,1,1.05-1.14,3.09,3.09,0,0,1,1.51-.41,2.9,2.9,0,0,1,2.21.76,3.07,3.07,0,0,1,.71,2.17v4.75h-1.1v-4.37a3,3,0,0,0-.41-1.74,1.74,1.74,0,0,0-1.55-.61,2,2,0,0,0-1,.23,1.9,1.9,0,0,0-.67.62,2.63,2.63,0,0,0-.37.87,4.17,4.17,0,0,0-.12,1v4H158v-4.37a3,3,0,0,0-.42-1.74,1.73,1.73,0,0,0-1.54-.61l-.46.06a1.72,1.72,0,0,0-.74.35,2.51,2.51,0,0,0-.69.87,3.34,3.34,0,0,0-.31,1.6v3.84h-1.09Z"/><path d="M166.86,241c0-.27,0-.55,0-.83s0-.55-.05-.83H168v1.14h0a2.54,2.54,0,0,1,1.1-1,3.3,3.3,0,0,1,1.41-.33,4.06,4.06,0,0,1,.67.06,2.44,2.44,0,0,1,.69.23,2.12,2.12,0,0,1,.62.48,2.31,2.31,0,0,1,.49.78,2.48,2.48,0,0,1,1.06-1.14,3,3,0,0,1,1.5-.41,2.89,2.89,0,0,1,2.21.76,3,3,0,0,1,.71,2.17v4.75h-1.09v-4.37a3,3,0,0,0-.42-1.74,1.72,1.72,0,0,0-1.54-.61,2,2,0,0,0-1,.23,1.93,1.93,0,0,0-.68.62,2.63,2.63,0,0,0-.37.87,4.17,4.17,0,0,0-.11,1v4h-1.1v-4.37a3,3,0,0,0-.42-1.74,1.72,1.72,0,0,0-1.54-.61l-.46.06a1.77,1.77,0,0,0-.74.35,2.76,2.76,0,0,0-.69.87,3.48,3.48,0,0,0-.3,1.6v3.84h-1.1Z"/></g><line class="cls-1" x1="113.38" y1="97.49" x2="222.74" y2="97.49"/><line class="cls-1" x1="113.38" y1="95.79" x2="113.38" y2="99.19"/><line class="cls-1" x1="222.74" y1="95.79" x2="222.74" y2="99.19"/><g class="cls-2"><path d="M141.44,82.29a3.74,3.74,0,0,1,.7,1.16,4,4,0,0,1,.26,1.44,3.86,3.86,0,0,1-.31,1.57,3.75,3.75,0,0,1-.85,1.25,4,4,0,0,1-1.31.83,4.68,4.68,0,0,1-1.67.29,4.46,4.46,0,0,1-1.45-.22,4.26,4.26,0,0,1-1.16-.61l-1.11,1.09-.53-.5,1.1-1.09a3.7,3.7,0,0,1-.72-1.17,4.23,4.23,0,0,1-.25-1.44,3.85,3.85,0,0,1,.31-1.56,3.63,3.63,0,0,1,.86-1.25,4,4,0,0,1,1.3-.83,4.61,4.61,0,0,1,1.65-.29,4.84,4.84,0,0,1,1.45.21,4.08,4.08,0,0,1,1.19.62L142,80.7l.53.5Zm-1.3.25a2.86,2.86,0,0,0-1.88-.62,3.16,3.16,0,0,0-1.22.23,2.85,2.85,0,0,0-.91.63,2.7,2.7,0,0,0-.58,1,3.19,3.19,0,0,0-.21,1.16,3,3,0,0,0,.56,1.83Zm-3.74,4.72a2.78,2.78,0,0,0,.83.45,3.37,3.37,0,0,0,2.25-.07,3.05,3.05,0,0,0,.93-.63,2.88,2.88,0,0,0,.59-1,3.42,3.42,0,0,0,.2-1.17,3.07,3.07,0,0,0-.56-1.82Z"/><path d="M156.09,88.64h-7.48V87.31l4.69-4.59c.17-.17.35-.35.53-.55a5.49,5.49,0,0,0,.48-.6,3.65,3.65,0,0,0,.35-.68,2.11,2.11,0,0,0,0-1.56,1.79,1.79,0,0,0-.49-.63,2.33,2.33,0,0,0-.73-.39,2.86,2.86,0,0,0-.89-.14,2.44,2.44,0,0,0-1.52.48,2.19,2.19,0,0,0-.82,1.3l-1.26-.13a3.19,3.19,0,0,1,1.2-2,3.75,3.75,0,0,1,2.32-.72,5,5,0,0,1,1.36.18,3.83,3.83,0,0,1,1.13.55,3,3,0,0,1,.78.92,2.79,2.79,0,0,1,.29,1.29,3.29,3.29,0,0,1-.21,1.2,5.06,5.06,0,0,1-.54,1,6.43,6.43,0,0,1-.76.91c-.28.29-.57.57-.87.85l-3.7,3.53h6.18Z"/><path d="M165.32,88.64h-7.47V87.31l4.68-4.59a6.94,6.94,0,0,0,.53-.55,4.51,4.51,0,0,0,.48-.6,2.74,2.74,0,0,0,.35-.68,2,2,0,0,0,.14-.73,1.84,1.84,0,0,0-.18-.83,1.68,1.68,0,0,0-.49-.63,2.22,2.22,0,0,0-.73-.39,2.84,2.84,0,0,0-.88-.14,2.45,2.45,0,0,0-1.53.48,2.18,2.18,0,0,0-.81,1.3l-1.26-.13a3.1,3.1,0,0,1,1.2-2,3.75,3.75,0,0,1,2.32-.72,5,5,0,0,1,1.35.18,3.6,3.6,0,0,1,1.13.55,2.76,2.76,0,0,1,.78.92,2.67,2.67,0,0,1,.29,1.29,3.51,3.51,0,0,1-.2,1.2,5.06,5.06,0,0,1-.54,1,8.14,8.14,0,0,1-.76.91c-.28.29-.57.57-.87.85l-3.71,3.53h6.18Z"/><path d="M170.9,77.12a3.45,3.45,0,0,1,2,.56,3.86,3.86,0,0,1,1.21,1.42,6.19,6.19,0,0,1,.58,1.9,13.08,13.08,0,0,1,0,4,6.19,6.19,0,0,1-.58,1.9A3.86,3.86,0,0,1,173,88.27a4,4,0,0,1-4.09,0,3.86,3.86,0,0,1-1.21-1.42,6.19,6.19,0,0,1-.58-1.9,13.08,13.08,0,0,1,0-4,6.19,6.19,0,0,1,.58-1.9,3.86,3.86,0,0,1,1.21-1.42A3.44,3.44,0,0,1,170.9,77.12Zm0,1a2.23,2.23,0,0,0-1.52.5,3,3,0,0,0-.83,1.23,5.8,5.8,0,0,0-.36,1.57c-.05.56-.08,1.06-.08,1.5s0,1,.08,1.51a5.8,5.8,0,0,0,.36,1.57,3,3,0,0,0,.83,1.23,2.22,2.22,0,0,0,1.52.49,2.19,2.19,0,0,0,1.52-.49,2.94,2.94,0,0,0,.84-1.23,5.8,5.8,0,0,0,.36-1.57c0-.56.08-1.06.08-1.51s0-.94-.08-1.5a5.8,5.8,0,0,0-.36-1.57,2.94,2.94,0,0,0-.84-1.23A2.19,2.19,0,0,0,170.9,78.17Z"/><path d="M181.34,82.81c0-.27,0-.55,0-.83s0-.55-.06-.83h1.18v1.14h0a2.54,2.54,0,0,1,1.1-1A3.29,3.29,0,0,1,185,81a4.08,4.08,0,0,1,.68.06,2.8,2.8,0,0,1,.69.23,2.3,2.3,0,0,1,.62.48,2.48,2.48,0,0,1,.49.78,2.51,2.51,0,0,1,1.05-1.14A3.09,3.09,0,0,1,190,81a2.9,2.9,0,0,1,2.21.76,3.08,3.08,0,0,1,.71,2.17v4.75h-1.09V84.27a3,3,0,0,0-.42-1.74,1.73,1.73,0,0,0-1.54-.61,2.12,2.12,0,0,0-1,.23,1.93,1.93,0,0,0-.68.62,2.63,2.63,0,0,0-.37.87,4.17,4.17,0,0,0-.12,1v4h-1.09V84.27a3,3,0,0,0-.42-1.74,1.73,1.73,0,0,0-1.54-.61l-.46.06a1.84,1.84,0,0,0-.74.35,2.63,2.63,0,0,0-.69.87,3.49,3.49,0,0,0-.31,1.6v3.84h-1.09Z"/><path d="M195.49,82.81c0-.27,0-.55,0-.83l-.06-.83h1.18v1.14h0a2.6,2.6,0,0,1,1.1-1,3.33,3.33,0,0,1,1.41-.33,4.06,4.06,0,0,1,.67.06,2.8,2.8,0,0,1,.69.23,2.44,2.44,0,0,1,1.11,1.26,2.59,2.59,0,0,1,1.06-1.14,3,3,0,0,1,1.5-.41,2.89,2.89,0,0,1,2.21.76,3,3,0,0,1,.72,2.17v4.75H206V84.27a3,3,0,0,0-.42-1.74,1.72,1.72,0,0,0-1.54-.61,2.15,2.15,0,0,0-1,.23,1.9,1.9,0,0,0-.67.62,2.45,2.45,0,0,0-.38.87,4.74,4.74,0,0,0-.11,1v4h-1.1V84.27a3,3,0,0,0-.42-1.74,1.72,1.72,0,0,0-1.54-.61l-.46.06a1.91,1.91,0,0,0-.74.35,2.76,2.76,0,0,0-.69.87,3.51,3.51,0,0,0-.3,1.6v3.84h-1.1Z"/></g><g class="cls-2"><path d="M51.21,157.67v-.59a3.69,3.69,0,0,0-.12-1,2,2,0,0,0-.36-.79,1.73,1.73,0,0,0-.65-.54,2.13,2.13,0,0,0-1-.2,1.84,1.84,0,0,0-1.41.55,2.21,2.21,0,0,0-.5,1.55,2.36,2.36,0,0,0,.32,1.26,2.56,2.56,0,0,0,.92.9l-.51,1a3.41,3.41,0,0,1-1.35-1.31,3.75,3.75,0,0,1-.44-1.83,4.07,4.07,0,0,1,.19-1.27,3,3,0,0,1,.57-1,2.77,2.77,0,0,1,.93-.72,2.94,2.94,0,0,1,1.25-.26,2.54,2.54,0,0,1,.88.15,2.5,2.5,0,0,1,.75.42,2.76,2.76,0,0,1,1,1.35l0-.05a2.34,2.34,0,0,1,.36-.88,2.8,2.8,0,0,1,.64-.69,3,3,0,0,1,.87-.44,3.1,3.1,0,0,1,1-.16,3.26,3.26,0,0,1,1.39.28,3,3,0,0,1,1,.79,3.3,3.3,0,0,1,.63,1.15,4.6,4.6,0,0,1-.32,3.57,3.35,3.35,0,0,1-1.75,1.39l-.36-1.22a2.33,2.33,0,0,0,1.2-.85,2.79,2.79,0,0,0,.39-1.59,2.58,2.58,0,0,0-.16-.92,2.16,2.16,0,0,0-.45-.76,2.12,2.12,0,0,0-1.62-.69,2.21,2.21,0,0,0-1.08.24,1.94,1.94,0,0,0-.72.64,2.64,2.64,0,0,0-.39.92,4.7,4.7,0,0,0-.12,1.08v.49Z"/><path d="M47.4,144.6v4.63l3.4.08a4.05,4.05,0,0,1-.2-.76,3.91,3.91,0,0,1-.07-.76,3.8,3.8,0,0,1,.27-1.46,3.43,3.43,0,0,1,.77-1.13,3.5,3.5,0,0,1,1.15-.74,4,4,0,0,1,1.45-.26,3.81,3.81,0,0,1,1.49.29,3.53,3.53,0,0,1,1.17.8,3.66,3.66,0,0,1,.76,1.21,4.1,4.1,0,0,1,.27,1.51,3.77,3.77,0,0,1-.51,1.94,3.32,3.32,0,0,1-1.51,1.32l-.49-1.15a2.58,2.58,0,0,0,1.06-.89,2.31,2.31,0,0,0,.39-1.33,2.38,2.38,0,0,0-.2-1,2.48,2.48,0,0,0-.53-.8,2.65,2.65,0,0,0-.8-.55,2.54,2.54,0,0,0-1-.2,2.75,2.75,0,0,0-1.09.21,2.56,2.56,0,0,0-.86.58,2.48,2.48,0,0,0-.55.88,3.1,3.1,0,0,0-.19,1.12,4.21,4.21,0,0,0,.17,1.21,5.64,5.64,0,0,0,.45,1.14l-5.87-.11V144.6Z"/><path d="M46.15,138.7a3.24,3.24,0,0,1,.56-2,3.86,3.86,0,0,1,1.42-1.17A6.45,6.45,0,0,1,50,135,14,14,0,0,1,54,135a6.45,6.45,0,0,1,1.9.56,3.86,3.86,0,0,1,1.42,1.17,3.75,3.75,0,0,1,0,3.94,3.74,3.74,0,0,1-1.42,1.16,6.17,6.17,0,0,1-1.9.56,13.08,13.08,0,0,1-3.95,0,6.17,6.17,0,0,1-1.9-.56,3.74,3.74,0,0,1-1.42-1.16A3.26,3.26,0,0,1,46.15,138.7Zm1.06,0a2.06,2.06,0,0,0,.49,1.46,3.08,3.08,0,0,0,1.23.81,5.78,5.78,0,0,0,1.57.34c.56.05,1.06.08,1.5.08s1,0,1.51-.08a5.78,5.78,0,0,0,1.57-.34,3.08,3.08,0,0,0,1.23-.81,2.06,2.06,0,0,0,.49-1.46,2.09,2.09,0,0,0-.49-1.47,3.17,3.17,0,0,0-1.23-.8,5.79,5.79,0,0,0-1.57-.35C53,136,52.45,136,52,136s-.94,0-1.5.07a5.79,5.79,0,0,0-1.57.35,3.17,3.17,0,0,0-1.23.8A2.09,2.09,0,0,0,47.21,138.7Z"/><path d="M51.84,128.65l-.83,0-.83.06v-1.14h1.14v0a2.41,2.41,0,0,1-1-1.06,3,3,0,0,1-.34-1.35,3.74,3.74,0,0,1,.06-.65,2.45,2.45,0,0,1,.24-.67,2.14,2.14,0,0,1,.47-.6,2.65,2.65,0,0,1,.78-.47,2.41,2.41,0,0,1-1.13-1A2.79,2.79,0,0,1,50,120.3a2.73,2.73,0,0,1,.76-2.13,3.12,3.12,0,0,1,2.17-.69h4.75v1.06H53.3a3.11,3.11,0,0,0-1.74.4,1.63,1.63,0,0,0-.61,1.49,1.82,1.82,0,0,0,.85,1.64,2.84,2.84,0,0,0,.87.36,4.74,4.74,0,0,0,1,.11h4v1H53.3a3.2,3.2,0,0,0-1.74.4,1.65,1.65,0,0,0-.61,1.49,3.37,3.37,0,0,0,.06.44,1.65,1.65,0,0,0,.36.71,2.45,2.45,0,0,0,.86.67,3.52,3.52,0,0,0,1.6.29h3.84v1.06Z"/><path d="M51.84,115,51,115l-.83.06V114h1.14v0a2.47,2.47,0,0,1-1-1.06,3,3,0,0,1-.34-1.36,3.72,3.72,0,0,1,.06-.64,2.45,2.45,0,0,1,.24-.67,2.14,2.14,0,0,1,.47-.6,2.65,2.65,0,0,1,.78-.47,2.38,2.38,0,0,1-1.13-1,3.06,3.06,0,0,1,.34-3.57,3.12,3.12,0,0,1,2.17-.69h4.75v1.06H53.3a3.11,3.11,0,0,0-1.74.4,1.62,1.62,0,0,0-.61,1.48,2,2,0,0,0,.23,1,1.9,1.9,0,0,0,.62.64,2.42,2.42,0,0,0,.87.36,4.17,4.17,0,0,0,1,.12h4v1H53.3a3.2,3.2,0,0,0-1.74.4,1.64,1.64,0,0,0-.61,1.49,3.61,3.61,0,0,0,.06.44,1.65,1.65,0,0,0,.36.71,2.45,2.45,0,0,0,.86.67,3.66,3.66,0,0,0,1.6.29h3.84V115Z"/></g><line class="cls-3" x1="77.26" y1="48.3" x2="82.07" y2="47.01"/><line class="cls-3" x1="122.41" y1="216.81" x2="77.26" y2="48.3"/><line class="cls-3" x1="122.41" y1="216.81" x2="127.23" y2="215.53"/><line class="cls-3" x1="127.23" y1="215.53" x2="82.07" y2="47.01"/><polyline class="cls-3" points="220.87 147.81 220.7 147.2 220.53 146.6 220.36 146.01 220.18 145.42 219.98 144.82 219.78 144.23 219.58 143.64 219.37 143.05 219.14 142.48 218.92 141.89 218.69 141.31 218.45 140.74 218.21 140.17 217.95 139.6 217.69 139.03 217.43 138.46 217.16 137.9 216.89 137.35 216.6 136.79 216.31 136.24 216.02 135.69 215.72 135.15 215.4 134.6 215.09 134.07 214.77 133.53 214.44 133.01 214.11 132.48 213.78 131.95 213.43 131.43 213.08 130.92 212.72 130.4 212.36 129.9 211.99 129.39 211.62 128.9 211.24 128.4 210.85 127.92 210.47 127.42 210.07 126.95 209.67 126.47 209.26 126 208.85 125.53 208.44 125.06 208.02 124.61 207.59 124.15 207.16 123.7 206.71 123.27 206.28 122.82 205.83 122.39 205.37 121.96 204.91 121.54 204.45 121.12 203.99 120.7 203.51 120.3 203.04 119.9 202.56 119.5 202.07 119.11 201.58 118.73 201.09 118.35 200.59 117.97 200.09 117.6 199.58 117.24 199.07 116.88 198.56 116.54 198.04 116.19 197.52 115.85 196.99 115.52 196.45 115.19 195.93 114.87 195.39 114.55 194.85 114.24 194.3 113.94 193.76 113.65 193.2 113.35 192.65 113.06 192.09 112.79 191.53 112.52 190.97 112.25 190.39 111.99 189.84 111.74 189.25 111.5 188.68 111.25 188.1 111.03 187.52 110.8 186.94 110.58 186.35 110.36 185.76 110.15 185.17 109.96 184.59 109.77 183.99 109.58 183.39 109.4 182.79 109.23 182.19 109.06 181.59 108.91 180.99 108.75 180.38 108.61 179.77 108.47 179.16 108.33 178.55 108.21 177.94 108.1 177.33 107.98 176.71 107.88 176.1 107.78 175.49 107.69 174.86 107.61 174.25 107.53 173.63 107.46 173.01 107.4 172.39 107.35 171.77 107.31 171.14 107.26 170.52 107.24 169.9 107.21 169.28 107.18 168.65 107.17 168.03 107.16 167.4 107.17 166.78 107.18 166.17 107.2 165.54 107.22 164.92 107.25 164.29 107.29 163.67 107.33 163.05 107.39 162.43 107.45 161.81 107.51 161.19 107.58 160.57 107.67 159.96 107.75 159.34 107.84 158.73 107.95 158.11 108.05 157.5 108.17 156.89 108.29 156.28 108.41 155.68 108.55 155.07 108.69 154.46 108.84 153.86 109 153.26 109.16 152.66 109.34 152.06 109.51 151.47 109.7 150.87 109.88 150.28 110.08 149.69 110.28 149.11 110.5 148.52 110.71 147.94 110.94 147.36 111.17 146.79 111.4 146.21 111.65 145.63 111.9 145.07 112.15 144.51 112.42 143.95 112.69 143.38 112.96 142.83 113.24 142.28 113.53 141.73 113.82 141.19 114.13 140.64 114.43 140.11 114.74 139.57 115.06 139.03 115.38 138.5 115.72 137.99 116.05 137.46 116.4 136.95 116.75 136.44 117.1 135.93 117.46 135.42 117.83 134.93 118.2 134.43 118.58 133.93 118.96 133.45 119.35 132.96 119.75 132.49 120.14 132.01 120.55 131.55 120.96 131.08 121.37 130.63 121.8 130.17 122.23 129.72 122.66 129.27 123.1 128.83 123.54 128.4 123.98 127.97 124.43 127.55 124.89 127.13 125.35 126.71 125.81 126.3 126.29 125.91 126.76 125.5 127.24 125.11 127.72 124.73 128.21 124.34 128.71 123.97 129.21 123.6 129.71 123.23 130.21 122.88 130.72 122.52 131.23 122.18 131.75 121.83 132.28 121.5 132.79 121.17 133.33 120.85 133.86 120.53 134.4 120.22 134.94 119.92 135.49 119.62 136.03 119.33 136.58 119.04 137.13 118.77 137.69 118.49 138.25 118.22 138.81 117.97 139.38 117.71 139.95 117.47 140.52 117.22 141.09 116.99 141.68 116.76 142.25 116.54 142.84 116.32 143.41 116.12 144 115.92 144.59 115.72 145.19 115.53 145.78 115.36 146.38 115.18 146.97 115.01 147.57 114.85 148.18 114.69 148.78 114.55 149.38 114.41 149.99 114.27 150.61 114.15 151.21 114.03 151.82 113.92 152.44 113.82 153.05 113.72 153.67 113.62 154.28 113.54 154.9 113.46 155.52 113.39 156.14 113.33 156.76 113.27 157.38 113.23 158 113.18 158.63 113.15 159.24 113.12 159.86 113.1 160.49 113.09 161.11 113.08 161.74 113.08 162.35 113.09 162.76"/><polyline class="cls-3" points="120.05 188.76 120.36 189.3 120.67 189.84 120.99 190.38 121.32 190.9 121.65 191.43 121.98 191.96 122.33 192.48 122.68 192.98 123.03 193.51 123.39 194 123.76 194.52 124.13 195.02 124.51 195.51 124.89 196 125.28 196.48 125.68 196.97 126.08 197.44 126.49 197.92 126.89 198.38 127.31 198.85 127.74 199.31 128.16 199.76 128.59 200.21 129.03 200.66 129.47 201.1 129.91 201.53 130.36 201.96 130.82 202.38 131.29 202.81 131.75 203.22 132.22 203.63 132.69 204.03 133.18 204.42 133.66 204.82 134.15 205.21 134.64 205.58 135.14 205.96 135.64 206.33 136.15 206.69 136.66 207.05 137.17 207.41 137.69 207.75 138.21 208.09 138.73 208.43 139.27 208.75 139.8 209.08 140.33 209.39 140.88 209.7 141.43 210.01 141.97 210.31 142.51 210.6 143.07 210.88 143.63 211.16 144.19 211.43 144.75 211.69 145.32 211.96 145.89 212.22 146.46 212.46 147.03 212.7 147.61 212.94 148.19 213.16 148.78 213.38 149.36 213.59 149.95 213.8 150.54 214.01 151.13 214.2 151.73 214.39 152.32 214.57 152.92 214.74 153.52 214.91 154.12 215.06 154.73 215.22 155.33 215.37 155.94 215.5 156.55 215.64 157.15 215.77 157.77 215.88 158.38 215.99 159 216.1 159.61 216.2 160.23 216.28 160.85 216.37 161.46 216.45 162.09 216.52 162.7 216.59 163.32 216.64 163.94 216.69 164.56 216.73 165.19 216.76 165.81 216.79 166.43 216.81 167.05 216.82 167.68 216.83 168.3 216.83 168.93 216.82 169.55 216.81 170.18 216.79 170.79 216.75 171.41 216.72 172.04 216.67 172.65 216.62 173.28 216.57 173.89 216.5 174.52 216.43 175.13 216.35 175.75 216.27 176.36 216.17 176.98 216.07 177.59 215.97 178.21 215.85 178.82 215.73 179.43 215.61 180.04 215.47 180.65 215.32 181.25 215.18 181.85 215.03 182.46 214.86 183.06 214.69 183.65 214.52 184.25 214.34 184.84 214.15 185.44 213.96 186.03 213.75 186.6 213.54 187.19 213.32 187.78 213.1 188.35 212.87 188.94 212.64 189.51 212.4 190.08 212.15 190.65 211.89 191.21 211.63 191.78 211.36 192.33 211.09 192.89 210.81 193.44 210.52 193.99 210.23 194.54 209.93 195.08 209.62 195.62 209.31 196.16 209 196.69 208.67 197.22 208.34 197.75 208 198.26 207.66 198.78 207.31 199.29 206.96 199.8 206.6 200.31 206.24 200.81 205.87 201.31 205.49 201.8 205.1 202.28 204.72 202.77 204.32 203.24 203.92 203.72 203.52 204.19 203.1 204.66 202.69 205.11 202.28 205.57 201.85 206.02 201.42 206.47 200.99 206.91 200.55 207.34 200.1 207.77 199.65 208.2 199.19 208.61 198.73 209.04 198.27 209.44 197.8 209.84 197.32 210.24 196.84 210.64 196.36 211.02 195.87 211.41 195.38 211.79 194.89 212.16 194.38 212.52 193.88 212.88 193.37 213.23 192.85 213.58 192.34 213.92 191.82 214.26 191.3 214.58 190.76 214.91 190.23 215.23 189.7 215.54 189.16 215.85 188.62 216.15 188.07 216.44 187.52 216.73 186.96 217.01 186.41 217.28 185.85 217.55 185.28 217.81 184.72 218.07 184.15 218.31 183.58 218.56 183.01 218.79 182.42 219.02 181.85 219.24 181.27 219.45 180.69 219.66 180.1 219.87 179.51 220.06 178.92 220.25 178.32 220.44 177.72 220.62 177.12 220.78 176.53 220.94 175.93 221.1 175.32 221.25 174.72 221.39 174.11 221.52 173.5 221.64 172.89 221.76 172.28 221.88 171.67 221.99 171.06 222.08 170.44 222.18 169.82 222.27 169.2 222.34 168.59 222.42 167.97 222.48 167.35 222.53 166.73 222.58 166.11 222.63 165.48 222.66 164.87 222.69 164.24 222.72 163.62 222.74 163 222.74 162.37 222.74 161.75 222.74 161.13 222.72 160.51 222.7 159.88 222.67 159.26 222.64 158.63 222.59 158.02 222.55 157.4 222.49 156.77 222.42 156.16 222.35 155.54 222.28 154.91 222.2 154.3 222.1 153.69 222 153.07 221.9 152.45 221.79 151.84 221.67 151.23 221.55 150.62 221.42 150.01 221.28 149.4 221.12 148.79 220.97 148.19 220.87 147.81"/></svg>