<svg id="Fantasma" xmlns="http://www.w3.org/2000/svg" viewBox="0 0 300 263"><defs><style>.cls-1,.cls-3{fill:none;}.cls-1{stroke:#1a171b;stroke-linecap:round;stroke-linejoin:round;stroke-width:0.36px;}.cls-2{isolation:isolate;}.cls-3{stroke:#000;stroke-width:0.5px;}</style></defs><title>fantasma-scarpa-flos-F2201009-spech-tech-02-300x263</title><polyline class="cls-1" points="166.63 47.02 169.04 74.97 176.19 102.1"/><polyline class="cls-1" points="176.19 102.1 172.38 116.9 171.1 132.13 172.38 147.36 176.19 162.16"/><polyline class="cls-1" points="176.19 162.16 169.33 189.34 166.63 217.24"/><line class="cls-1" x1="150" y1="47.02" x2="150" y2="217.24"/><line class="cls-1" x1="158.32" y1="47.02" x2="164.7" y2="132.13"/><line class="cls-1" x1="164.7" y1="132.13" x2="158.32" y2="217.24"/><polyline class="cls-1" points="133.37 47.02 130.96 74.97 123.81 102.1"/><polyline class="cls-1" points="123.81 102.1 127.62 116.9 128.9 132.13 127.62 147.36 123.81 162.16"/><polyline class="cls-1" points="123.81 162.16 130.67 189.34 133.37 217.24"/><line class="cls-1" x1="141.68" y1="47.02" x2="135.3" y2="132.13"/><line class="cls-1" x1="135.3" y1="132.13" x2="141.69" y2="217.24"/><line class="cls-1" x1="166.63" y1="47.02" x2="133.37" y2="47.02"/><line class="cls-1" x1="166.63" y1="217.24" x2="133.37" y2="217.24"/><g class="cls-2"><path d="M95.55,159.87V161H85.66l1.79,2-.86.72-2.37-2.88v-1Z"/><path d="M90.68,150.72l0,0a2,2,0,0,1,.29.73,4.3,4.3,0,0,1,.09.84,3.4,3.4,0,0,1-.26,1.36,3.36,3.36,0,0,1-.73,1.1,3.47,3.47,0,0,1-1.1.73,3.8,3.8,0,0,1-1.41.26,3.59,3.59,0,0,1-1.42-.27,3.21,3.21,0,0,1-1.11-.77,3.49,3.49,0,0,1-.72-1.17,4,4,0,0,1-.25-1.47,4.13,4.13,0,0,1,.25-1.47,3.49,3.49,0,0,1,.72-1.17,3.35,3.35,0,0,1,1.11-.77,3.59,3.59,0,0,1,1.42-.27,4.6,4.6,0,0,1,1.65.28,9.53,9.53,0,0,1,1.39.7l5,3.05v1.36Zm-3.15-1.16a2.64,2.64,0,0,0-1,.19,2.06,2.06,0,0,0-.77.52,2.41,2.41,0,0,0-.5.8,2.86,2.86,0,0,0,0,2.05,2.52,2.52,0,0,0,.5.8,2.33,2.33,0,0,0,.77.52,2.81,2.81,0,0,0,2,0,2.48,2.48,0,0,0,.78-.52,2.21,2.21,0,0,0,.5-.8,3,3,0,0,0,0-2.05,2.13,2.13,0,0,0-.5-.8,2.18,2.18,0,0,0-.78-.52A2.64,2.64,0,0,0,87.53,149.56Z"/><path d="M85.27,140.21v4.62l3.41.08a5.26,5.26,0,0,1-.21-.75,5.09,5.09,0,0,1-.06-.77,3.83,3.83,0,0,1,.27-1.46,3.32,3.32,0,0,1,1.91-1.86,4,4,0,0,1,3,0,3.69,3.69,0,0,1,1.17.8,3.94,3.94,0,0,1,.76,1.21,4.13,4.13,0,0,1,.27,1.51,3.75,3.75,0,0,1-.51,1.94,3.39,3.39,0,0,1-1.51,1.33l-.49-1.16a2.64,2.64,0,0,0,1.06-.89,2.28,2.28,0,0,0,.39-1.32,2.43,2.43,0,0,0-.2-1,2.72,2.72,0,0,0-.53-.8,2.46,2.46,0,0,0-.8-.54,2.38,2.38,0,0,0-1-.2,2.92,2.92,0,0,0-1.08.2,2.72,2.72,0,0,0-.86.58,2.57,2.57,0,0,0-.55.88,3.14,3.14,0,0,0-.19,1.12,4.52,4.52,0,0,0,.16,1.21,6.32,6.32,0,0,0,.46,1.14L84.22,146v-5.77Z"/><path d="M84,134.3a3.17,3.17,0,0,1,.56-2A3.78,3.78,0,0,1,86,131.16a6.77,6.77,0,0,1,1.9-.56,15.09,15.09,0,0,1,2-.14,15.36,15.36,0,0,1,2,.14,6.6,6.6,0,0,1,1.89.56,3.81,3.81,0,0,1,1.43,1.17,3.75,3.75,0,0,1,0,3.94,3.81,3.81,0,0,1-1.43,1.17,6.6,6.6,0,0,1-1.89.56,15.36,15.36,0,0,1-2,.14,15.09,15.09,0,0,1-2-.14,6.77,6.77,0,0,1-1.9-.56,3.78,3.78,0,0,1-1.42-1.17A3.17,3.17,0,0,1,84,134.3Zm1,0a2.05,2.05,0,0,0,.5,1.46,3.08,3.08,0,0,0,1.23.81,6.09,6.09,0,0,0,1.57.35c.55,0,1.05.07,1.5.07s1,0,1.51-.07a6.11,6.11,0,0,0,1.56-.35,3.11,3.11,0,0,0,1.24-.81,2.42,2.42,0,0,0,0-2.92A3.11,3.11,0,0,0,93,132a6.11,6.11,0,0,0-1.56-.35c-.56,0-1.06-.07-1.51-.07s-.95,0-1.5.07a6.09,6.09,0,0,0-1.57.35,3.08,3.08,0,0,0-1.23.81A2.05,2.05,0,0,0,85.08,134.3Z"/><path d="M89.72,124.25c-.28,0-.55,0-.83,0l-.83,0V123.2h1.13v0a2.53,2.53,0,0,1-1-1.06,3.05,3.05,0,0,1-.33-1.35,3.83,3.83,0,0,1,.06-.65,2.25,2.25,0,0,1,.23-.66,2,2,0,0,1,.47-.6,2.64,2.64,0,0,1,.79-.48,2.48,2.48,0,0,1-1.14-1,2.87,2.87,0,0,1-.41-1.45,2.73,2.73,0,0,1,.76-2.13,3.1,3.1,0,0,1,2.16-.69h4.76v1.06H91.18a3.17,3.17,0,0,0-1.75.4,1.66,1.66,0,0,0-.6,1.49,1.84,1.84,0,0,0,.84,1.64,3,3,0,0,0,.88.36,4.74,4.74,0,0,0,1,.11h4v1.06H91.18a3.17,3.17,0,0,0-1.75.4,1.64,1.64,0,0,0-.6,1.48,3.37,3.37,0,0,0,.06.44,1.71,1.71,0,0,0,.35.72,2.61,2.61,0,0,0,.87.66,3.48,3.48,0,0,0,1.6.3h3.84v1Z"/><path d="M89.72,110.62l-.83,0-.83.06v-1.14h1.13v0a2.53,2.53,0,0,1-1-1.06,3.08,3.08,0,0,1-.33-1.35,3.74,3.74,0,0,1,.06-.65,2.42,2.42,0,0,1,.23-.67,2.34,2.34,0,0,1,.47-.6,2.85,2.85,0,0,1,.79-.47,2.48,2.48,0,0,1-1.14-1,2.87,2.87,0,0,1-.41-1.45,2.73,2.73,0,0,1,.76-2.13,3.1,3.1,0,0,1,2.16-.69h4.76v1.06H91.18a3.17,3.17,0,0,0-1.75.4,1.66,1.66,0,0,0-.6,1.49,1.84,1.84,0,0,0,.84,1.64,3,3,0,0,0,.88.36,4.74,4.74,0,0,0,1,.11h4v1H91.18a3.26,3.26,0,0,0-1.75.4,1.67,1.67,0,0,0-.6,1.49,3.37,3.37,0,0,0,.06.44,1.62,1.62,0,0,0,.35.71,2.5,2.5,0,0,0,.87.67,3.49,3.49,0,0,0,1.6.29h3.84v1.06Z"/></g><line class="cls-3" x1="103.92" y1="46.63" x2="103.92" y2="216.95"/><line class="cls-3" x1="104.98" y1="46.63" x2="101.61" y2="46.63"/><line class="cls-3" x1="105.67" y1="216.95" x2="101.3" y2="216.95"/><line class="cls-3" x1="133.87" y1="226.86" x2="166.71" y2="226.86"/><line class="cls-3" x1="133.86" y1="225.57" x2="133.86" y2="228.16"/><line class="cls-3" x1="166.71" y1="225.57" x2="166.71" y2="228.16"/><g class="cls-2"><path d="M121.91,241.14a4,4,0,0,1,.68,1.16,4.24,4.24,0,0,1,.24,1.45,4.06,4.06,0,0,1-.29,1.57,3.65,3.65,0,0,1-.83,1.24,3.7,3.7,0,0,1-1.25.83,4.39,4.39,0,0,1-1.61.29,4.15,4.15,0,0,1-1.4-.22,3.72,3.72,0,0,1-1.11-.61l-1.07,1.09-.52-.5,1.06-1.08a3.78,3.78,0,0,1-.69-1.18,4.17,4.17,0,0,1-.24-1.43,4,4,0,0,1,.3-1.57,3.82,3.82,0,0,1,.82-1.25,3.76,3.76,0,0,1,1.26-.82,4.43,4.43,0,0,1,3-.08,3.84,3.84,0,0,1,1.15.61l1.06-1.08.51.49Zm-1.25.26a2.64,2.64,0,0,0-1.81-.63,3,3,0,0,0-1.18.23,2.7,2.7,0,0,0-.88.64,2.94,2.94,0,0,0-.56.94,3.42,3.42,0,0,0-.2,1.17,3,3,0,0,0,.55,1.82Zm-3.6,4.72a2.49,2.49,0,0,0,.8.44,2.86,2.86,0,0,0,1,.16,2.79,2.79,0,0,0,1.18-.23,2.54,2.54,0,0,0,.88-.63,2.73,2.73,0,0,0,.57-.94,3.27,3.27,0,0,0,.2-1.17,3.16,3.16,0,0,0-.54-1.83Z"/><path d="M131.12,241l0,0a2.14,2.14,0,0,1,.73-.29,4.46,4.46,0,0,1,.84-.09,3.43,3.43,0,0,1,2.47,1,3.28,3.28,0,0,1,.72,1.1,3.84,3.84,0,0,1,0,2.83,3.35,3.35,0,0,1-.77,1.11,3.49,3.49,0,0,1-1.17.72,4.13,4.13,0,0,1-1.47.25,4,4,0,0,1-1.47-.25,3.49,3.49,0,0,1-1.17-.72,3.21,3.21,0,0,1-.77-1.11,3.59,3.59,0,0,1-.27-1.42,4.39,4.39,0,0,1,.28-1.65,9.45,9.45,0,0,1,.69-1.39l3.06-5h1.36ZM130,244.18a2.64,2.64,0,0,0,.18,1,2.48,2.48,0,0,0,.52.78,2.36,2.36,0,0,0,.8.5,3,3,0,0,0,2.05,0,2.26,2.26,0,0,0,.8-.5,2.18,2.18,0,0,0,.52-.78,2.67,2.67,0,0,0,0-2,2.06,2.06,0,0,0-.52-.77,2.41,2.41,0,0,0-.8-.5,2.86,2.86,0,0,0-2.05,0,2.52,2.52,0,0,0-.8.5,2.33,2.33,0,0,0-.52.77A2.64,2.64,0,0,0,130,244.18Z"/><path d="M141.4,236a3.21,3.21,0,0,1,2,.56,3.89,3.89,0,0,1,1.17,1.43,6.3,6.3,0,0,1,.56,1.89,13.76,13.76,0,0,1,.14,2,13.53,13.53,0,0,1-.14,2,6.45,6.45,0,0,1-.56,1.9,3.78,3.78,0,0,1-1.17,1.42,3.73,3.73,0,0,1-3.93,0,3.78,3.78,0,0,1-1.17-1.42,6.17,6.17,0,0,1-.56-1.9,13.58,13.58,0,0,1-.15-2,13.82,13.82,0,0,1,.15-2,6,6,0,0,1,.56-1.89,3.89,3.89,0,0,1,1.17-1.43A3.22,3.22,0,0,1,141.4,236Zm0,1.06a2.09,2.09,0,0,0-1.47.49,3.11,3.11,0,0,0-.81,1.24,6.1,6.1,0,0,0-.34,1.56c-.05.56-.07,1.06-.07,1.51s0,.95.07,1.5a6.09,6.09,0,0,0,.34,1.57,3.08,3.08,0,0,0,.81,1.23,2.4,2.4,0,0,0,2.93,0,3.08,3.08,0,0,0,.81-1.23,6.09,6.09,0,0,0,.34-1.57c.05-.55.07-1.05.07-1.5s0-1-.07-1.51a6.1,6.1,0,0,0-.34-1.56,3.11,3.11,0,0,0-.81-1.24A2.08,2.08,0,0,0,141.4,237Z"/><path d="M150.29,236a3.24,3.24,0,0,1,2,.56,3.89,3.89,0,0,1,1.17,1.43,6.6,6.6,0,0,1,.56,1.89,15.36,15.36,0,0,1,.14,2,15.09,15.09,0,0,1-.14,2,6.77,6.77,0,0,1-.56,1.9,3.78,3.78,0,0,1-1.17,1.42,3.75,3.75,0,0,1-3.94,0,3.78,3.78,0,0,1-1.17-1.42,6.77,6.77,0,0,1-.56-1.9,15.09,15.09,0,0,1-.14-2,15.36,15.36,0,0,1,.14-2,6.6,6.6,0,0,1,.56-1.89,3.89,3.89,0,0,1,1.17-1.43A3.24,3.24,0,0,1,150.29,236Zm0,1.06a2,2,0,0,0-1.46.49,3.11,3.11,0,0,0-.81,1.24,6.11,6.11,0,0,0-.35,1.56c0,.56-.07,1.06-.07,1.51s0,.95.07,1.5a6.09,6.09,0,0,0,.35,1.57,3.08,3.08,0,0,0,.81,1.23,2.38,2.38,0,0,0,2.92,0,3.08,3.08,0,0,0,.81-1.23,6.09,6.09,0,0,0,.35-1.57c0-.55.07-1.05.07-1.5s0-1-.07-1.51a6.11,6.11,0,0,0-.35-1.56,3.11,3.11,0,0,0-.81-1.24A2,2,0,0,0,150.29,237Z"/><path d="M160.34,241.67c0-.28,0-.56,0-.83s0-.56-.05-.84h1.13v1.14h0a2.41,2.41,0,0,1,1.06-1,2.94,2.94,0,0,1,1.35-.34,3.07,3.07,0,0,1,.65.07,2.25,2.25,0,0,1,.66.23,2,2,0,0,1,.6.47,2.47,2.47,0,0,1,.48.78,2.45,2.45,0,0,1,1-1.13,3.07,3.07,0,0,1,3.58.34,3.12,3.12,0,0,1,.69,2.17v4.75h-1.06v-4.37a3.16,3.16,0,0,0-.4-1.74,1.64,1.64,0,0,0-1.49-.61,2,2,0,0,0-1,.23,1.93,1.93,0,0,0-.65.62,3.07,3.07,0,0,0-.36.87,4.9,4.9,0,0,0-.11,1v4h-1.06v-4.37a3.25,3.25,0,0,0-.39-1.74,1.65,1.65,0,0,0-1.49-.61,2.52,2.52,0,0,0-.44.07,1.71,1.71,0,0,0-.72.35,2.67,2.67,0,0,0-.66.86,3.53,3.53,0,0,0-.3,1.6v3.84h-1Z"/><path d="M174,241.67c0-.28,0-.56,0-.83l-.06-.84H175v1.14h0a2.41,2.41,0,0,1,1.06-1,2.91,2.91,0,0,1,2-.27,2.42,2.42,0,0,1,.67.23,2.34,2.34,0,0,1,.6.47,2.65,2.65,0,0,1,.47.78,2.42,2.42,0,0,1,1-1.13,2.73,2.73,0,0,1,1.44-.42,2.76,2.76,0,0,1,2.13.76,3.12,3.12,0,0,1,.69,2.17v4.75h-1.06v-4.37a3.16,3.16,0,0,0-.4-1.74,1.63,1.63,0,0,0-1.49-.61,1.82,1.82,0,0,0-1.64.85,3.07,3.07,0,0,0-.36.87,4.9,4.9,0,0,0-.11,1v4H179v-4.37a3.25,3.25,0,0,0-.4-1.74,1.65,1.65,0,0,0-1.49-.61,2.52,2.52,0,0,0-.44.07,1.62,1.62,0,0,0-.71.35,2.55,2.55,0,0,0-.67.86,3.55,3.55,0,0,0-.29,1.6v3.84H174Z"/></g></svg>