<svg id="Fantasma_piccolo" data-name="Fantasma piccolo" xmlns="http://www.w3.org/2000/svg" viewBox="0 0 300 263"><defs><style>.cls-1,.cls-2,.cls-3,.cls-5{fill:none;}.cls-1,.cls-2,.cls-3{stroke:#1d1d1b;stroke-miterlimit:3.86;}.cls-1{stroke-width:0.25px;}.cls-2{stroke-width:0.32px;}.cls-3{stroke-width:0.2px;}.cls-4{isolation:isolate;}.cls-5{stroke:#000;stroke-width:0.5px;}</style></defs><title>fantasma-piccolo-scarpa-flos-F2101009-spech-tech-02-300x263</title><path class="cls-1" d="M142.6,208.62c.35.36.56.26.42,1.56-.09.86.21.19-.45,1a1.71,1.71,0,0,1-1.55.66c-5.53,0-5.67-1.82-5.67-1.82,0-2.37,7-1.89,7-1.89Z"/><path class="cls-1" d="M148.75,209.69c.7.42.66,2,.66,2-.34,2.2-2.7,4.28-5.42,4.79s-6,.42-6.44-.54.58-1.73.58-1.73,3.17-.88,4.07-1.82c1.51-1.61,1.06-.53,1-3.5l.56-.25"/><path class="cls-1" d="M151.06,208.62l-.59.43-.31.29a5.22,5.22,0,0,0,.59,3c.69,1,4.4,1.92,7,2s3.32-.67,3.36-.82a1.19,1.19,0,0,0-.27-.23,2.15,2.15,0,0,0-.94-.3,12,12,0,0,1-2.85-.53,7.12,7.12,0,0,1-1.67-.71,2.27,2.27,0,0,1-1.14-1.42A12.45,12.45,0,0,1,154,208l-.41,0h-.62l-.89.17Z"/><path class="cls-2" d="M150.51,46.32a3.38,3.38,0,0,1-2.87,1.44,4.12,4.12,0,0,1-2.87-.87s-.63-.49-.83-.12a4.26,4.26,0,0,1-2.79,1.4,4,4,0,0,1-2.25-.65c-.62-.63-.86-.2-.9,0a1.37,1.37,0,0,0,.28,1.06,54.25,54.25,0,0,1,2.63,11c.28,3.52.49,11.74-.08,14.48s-3.67,12.37-6.17,15.07c0,0-.77.16-.28.85,0,0,3.42,7.66,3.42,12.33s-1.63,9.66-5.31,15.86c0,0-.49.19-.53.51a1,1,0,0,0,.37,1,60.82,60.82,0,0,1,.92,8.2,74.72,74.72,0,0,1-.64,7.83s-.58.86.14,1.29c0,0,4.95,8.33,4.95,14.79s-3,15.81-3,15.81-1.3,1.05,0,1.67c0,0,6,7.66,6,17s-2,16.88-4,20.47c0,0-.29,1.07.43.79a6,6,0,0,1,5.39.64s.07,1.25.93.44a8.54,8.54,0,0,1,5.52,1.16s.12.46.28.46.37,0,.43-.3a4.29,4.29,0,0,1,4.53-1.92.46.46,0,0,0,.63.34l.1-.58a4.41,4.41,0,0,1,4.37-1.79s.76.28.69-.27a1.66,1.66,0,0,0-.42-.77c-.34-.3-2.94-5.59-3.17-12.12s.1-13.42.66-15.82,4.26-13.79,4.26-13.79,1.15-.93.15-1.36c0,0-1.66-2.52-2.09-8.19a64.64,64.64,0,0,1,6.25-14.15s1.37-.28.72-1.22c0,0-2.44-7.61.21-18.6,0,0,.8-.64-.21-1.22A52.17,52.17,0,0,1,159.68,103,57.73,57.73,0,0,1,162,91.88s1.58-1.07.28-1.29c0,0-5.38-6.89-5.38-21.61s4-19.47,4-19.47,0-1.36-.71-.72a3,3,0,0,1-3.74-.64c-.79-1.22-.79-.79-.93-.5s-3.17.71-4.1-.65C151.28,46.29,151,46.06,150.51,46.32Z"/><path class="cls-2" d="M149.63,210.06a14,14,0,0,0-.22-1.43c-.18-.91-.56-21-.43-27.58m5.83,26.76s-.8-16-.63-21.8a119.44,119.44,0,0,1,4.65-31.51m-15.71,53a108.93,108.93,0,0,0-1.55-20.44M159.2,102A68.56,68.56,0,0,1,156,83m-21,6.81s.88.12,1.71-1.17M135,169l.79-.29a2.87,2.87,0,0,1,1.42,1.63M151.1,47.54A194.17,194.17,0,0,0,150.43,68m5.68-19.26a103,103,0,0,0-1.5,20.52M144.45,48.88s1.8,23.69-5.26,35.85"/><path class="cls-3" d="M143.71,208.64c2.1,0,1.63-.07,2.23.07"/><g class="cls-4"><path d="M112.3,159.87V161h-9.89l1.79,2-.86.72L101,160.89v-1Z"/><path d="M106.27,153.56a2.16,2.16,0,0,1-.38.68,2.7,2.7,0,0,1-.58.54,2.79,2.79,0,0,1-.74.35,2.57,2.57,0,0,1-.83.13,2.77,2.77,0,0,1-1.23-.26,2.85,2.85,0,0,1-1.52-1.69,3.56,3.56,0,0,1-.21-1.22,3.5,3.5,0,0,1,.21-1.21,2.83,2.83,0,0,1,.59-1,2.79,2.79,0,0,1,.93-.69,2.91,2.91,0,0,1,1.23-.26,2.88,2.88,0,0,1,.83.13,3.6,3.6,0,0,1,.74.35,2.7,2.7,0,0,1,.58.54,2.28,2.28,0,0,1,.38.68h0a2.72,2.72,0,0,1,1-1.54,3.25,3.25,0,0,1,1.92-.57,3,3,0,0,1,1.33.29,3.29,3.29,0,0,1,1,.79,3.41,3.41,0,0,1,.65,1.13,4.18,4.18,0,0,1,.22,1.37,4.14,4.14,0,0,1-.22,1.37,3.56,3.56,0,0,1-.65,1.14,3.42,3.42,0,0,1-1,.78,2.89,2.89,0,0,1-1.33.3,3.26,3.26,0,0,1-1.92-.58,2.66,2.66,0,0,1-1-1.54Zm-2.44-3.48a2.15,2.15,0,0,0-.8.15,1.93,1.93,0,0,0-.63.42,2.13,2.13,0,0,0-.41.64,1.94,1.94,0,0,0-.16.8,1.91,1.91,0,0,0,.16.8,2,2,0,0,0,.41.64,2,2,0,0,0,.63.43,2.15,2.15,0,0,0,.8.15,2.07,2.07,0,0,0,.8-.15,1.9,1.9,0,0,0,.64-.43,2,2,0,0,0,.41-.64,2.07,2.07,0,0,0,.15-.8,2.06,2.06,0,0,0-.56-1.44,1.87,1.87,0,0,0-.64-.42A2.07,2.07,0,0,0,103.83,150.08Zm5.28-.42a2.36,2.36,0,0,0-.92.18,2.13,2.13,0,0,0-1.22,1.25,2.73,2.73,0,0,0-.18,1,2.67,2.67,0,0,0,.18,1,2.21,2.21,0,0,0,.49.76,2.29,2.29,0,0,0,.73.49,2.35,2.35,0,0,0,.92.17,2.32,2.32,0,0,0,.92-.17,2.18,2.18,0,0,0,1.23-1.25,2.68,2.68,0,0,0,.17-1,2.73,2.73,0,0,0-.17-1,2.26,2.26,0,0,0-.49-.77,2.2,2.2,0,0,0-.74-.48A2.32,2.32,0,0,0,109.11,149.66Z"/><path d="M105.83,144.38v-.59a3.69,3.69,0,0,0-.11-.95,2.09,2.09,0,0,0-.36-.8,1.71,1.71,0,0,0-.65-.53,2,2,0,0,0-1-.2,1.8,1.8,0,0,0-1.41.55,2.18,2.18,0,0,0-.51,1.54,2.49,2.49,0,0,0,.32,1.27,2.57,2.57,0,0,0,.93.89l-.51,1a3.33,3.33,0,0,1-1.35-1.3,3.65,3.65,0,0,1-.44-1.83,4.07,4.07,0,0,1,.19-1.27,3.18,3.18,0,0,1,.57-1,2.76,2.76,0,0,1,2.18-1,2.58,2.58,0,0,1,.88.15,2.72,2.72,0,0,1,.75.41,3.15,3.15,0,0,1,.59.62,2.85,2.85,0,0,1,.37.74l0-.05a2.34,2.34,0,0,1,.36-.88,2.63,2.63,0,0,1,.64-.69,3.26,3.26,0,0,1,.87-.45,3.34,3.34,0,0,1,1-.16,3.26,3.26,0,0,1,1.39.29,3,3,0,0,1,1,.78,3.43,3.43,0,0,1,.63,1.16,4.58,4.58,0,0,1-.32,3.56,3.37,3.37,0,0,1-1.75,1.4l-.37-1.22A2.33,2.33,0,0,0,111,145a2.77,2.77,0,0,0,.39-1.59,2.53,2.53,0,0,0-.16-.91,2.16,2.16,0,0,0-.45-.76,2.11,2.11,0,0,0-.71-.51,2.33,2.33,0,0,0-.92-.19,2.27,2.27,0,0,0-1.08.24,2.09,2.09,0,0,0-.71.64,2.81,2.81,0,0,0-.39.92,4.83,4.83,0,0,0-.12,1.08v.5Z"/><path d="M100.78,134.3a3.17,3.17,0,0,1,.56-2,3.86,3.86,0,0,1,1.42-1.17,6.77,6.77,0,0,1,1.9-.56,14,14,0,0,1,4,0,6.77,6.77,0,0,1,1.9.56,3.86,3.86,0,0,1,1.42,1.17,3.75,3.75,0,0,1,0,3.94,3.86,3.86,0,0,1-1.42,1.17,6.77,6.77,0,0,1-1.9.56,14,14,0,0,1-4,0,6.77,6.77,0,0,1-1.9-.56,3.86,3.86,0,0,1-1.42-1.17A3.17,3.17,0,0,1,100.78,134.3Zm1,0a2.05,2.05,0,0,0,.5,1.46,3.08,3.08,0,0,0,1.23.81,6.19,6.19,0,0,0,1.57.35c.55,0,1.06.07,1.5.07s1,0,1.51-.07a6.19,6.19,0,0,0,1.57-.35,3.08,3.08,0,0,0,1.23-.81,2.42,2.42,0,0,0,0-2.92,3.08,3.08,0,0,0-1.23-.81,6.19,6.19,0,0,0-1.57-.35c-.56,0-1.06-.07-1.51-.07s-.95,0-1.5.07a6.19,6.19,0,0,0-1.57.35,3.08,3.08,0,0,0-1.23.81A2.05,2.05,0,0,0,101.83,134.3Z"/><path d="M106.47,124.25l-.83,0-.83,0V123.2H106v0a2.5,2.5,0,0,1-1-1.06,3.05,3.05,0,0,1-.33-1.35,3.83,3.83,0,0,1,.06-.65,2.25,2.25,0,0,1,.23-.66,2.08,2.08,0,0,1,.48-.6,2.47,2.47,0,0,1,.78-.48,2.48,2.48,0,0,1-1.14-1,2.87,2.87,0,0,1-.41-1.45,2.73,2.73,0,0,1,.76-2.13,3.11,3.11,0,0,1,2.17-.69h4.75v1.06h-4.37a3.11,3.11,0,0,0-1.74.4,1.64,1.64,0,0,0-.61,1.49,2,2,0,0,0,.23,1,1.84,1.84,0,0,0,.62.65,2.84,2.84,0,0,0,.87.36,4.74,4.74,0,0,0,1,.11h4v1.06h-4.37a3.11,3.11,0,0,0-1.74.4,1.62,1.62,0,0,0-.61,1.48,3.37,3.37,0,0,0,.06.44,1.71,1.71,0,0,0,.35.72,2.72,2.72,0,0,0,.87.66,3.51,3.51,0,0,0,1.6.3h3.84v1Z"/><path d="M106.47,110.62l-.83,0-.83.06v-1.14H106v0a2.5,2.5,0,0,1-1-1.06,3.08,3.08,0,0,1-.33-1.35,3.74,3.74,0,0,1,.06-.65,2.42,2.42,0,0,1,.23-.67,2.39,2.39,0,0,1,.48-.6,2.65,2.65,0,0,1,.78-.47,2.48,2.48,0,0,1-1.14-1,2.87,2.87,0,0,1-.41-1.45,2.73,2.73,0,0,1,.76-2.13,3.11,3.11,0,0,1,2.17-.69h4.75v1.06h-4.37a3.11,3.11,0,0,0-1.74.4,1.64,1.64,0,0,0-.61,1.49,2,2,0,0,0,.23,1,1.84,1.84,0,0,0,.62.65,2.84,2.84,0,0,0,.87.36,4.74,4.74,0,0,0,1,.11h4v1h-4.37a3.2,3.2,0,0,0-1.74.4,1.65,1.65,0,0,0-.61,1.49,3.37,3.37,0,0,0,.06.44,1.62,1.62,0,0,0,.35.71,2.6,2.6,0,0,0,.87.67,3.52,3.52,0,0,0,1.6.29h3.84v1.06Z"/></g><line class="cls-5" x1="120.67" y1="46.63" x2="120.67" y2="216.95"/><line class="cls-5" x1="121.74" y1="46.63" x2="118.36" y2="46.63"/><line class="cls-5" x1="122.42" y1="216.95" x2="118.05" y2="216.95"/><line class="cls-5" x1="136.4" y1="226.86" x2="163.61" y2="226.86"/><line class="cls-5" x1="136.39" y1="225.57" x2="136.39" y2="228.16"/><line class="cls-5" x1="163.61" y1="225.57" x2="163.61" y2="228.16"/><g class="cls-4"><path d="M121.62,241.14a3.62,3.62,0,0,1,.68,1.16,4,4,0,0,1,.25,1.45,4.26,4.26,0,0,1-.29,1.57,3.8,3.8,0,0,1-.83,1.24,3.7,3.7,0,0,1-1.25.83,4.43,4.43,0,0,1-1.61.29,4.15,4.15,0,0,1-1.4-.22,3.72,3.72,0,0,1-1.11-.61L115,247.94l-.51-.5,1.06-1.08a3.78,3.78,0,0,1-.69-1.18,4.17,4.17,0,0,1-.24-1.43,4,4,0,0,1,.3-1.57,3.67,3.67,0,0,1,.82-1.25,3.76,3.76,0,0,1,1.26-.82,4.09,4.09,0,0,1,1.59-.3A4.18,4.18,0,0,1,120,240a3.84,3.84,0,0,1,1.15.61l1.06-1.08.51.49Zm-1.24.26a2.66,2.66,0,0,0-1.81-.63,3,3,0,0,0-1.18.23,2.7,2.7,0,0,0-.88.64,2.94,2.94,0,0,0-.56.94,3.42,3.42,0,0,0-.2,1.17,2.94,2.94,0,0,0,.55,1.82Zm-3.6,4.72a2.49,2.49,0,0,0,.8.44,2.86,2.86,0,0,0,1,.16,2.72,2.72,0,0,0,1.17-.23,2.48,2.48,0,0,0,.89-.63,2.73,2.73,0,0,0,.57-.94,3.51,3.51,0,0,0,.2-1.17,3.16,3.16,0,0,0-.54-1.83Z"/><path d="M134.42,243.75h1.64v1.05h-1.64v2.69h-1.15V244.8h-4.89v-1.31l4.57-7.33h1.47Zm-1.15-6.43h0l-3.9,6.43h3.93Z"/><path d="M144.25,237.22l-4.56,10.27h-1.3l4.66-10.27h-5.52v-1.06h6.72Z"/><path d="M150,236a3.26,3.26,0,0,1,2,.56,3.77,3.77,0,0,1,1.16,1.43,6,6,0,0,1,.56,1.89,13.82,13.82,0,0,1,.15,2,13.58,13.58,0,0,1-.15,2,6.17,6.17,0,0,1-.56,1.9,3.66,3.66,0,0,1-1.16,1.42,3.75,3.75,0,0,1-3.94,0,3.78,3.78,0,0,1-1.17-1.42,6.45,6.45,0,0,1-.56-1.9,15.09,15.09,0,0,1-.14-2,15.36,15.36,0,0,1,.14-2,6.3,6.3,0,0,1,.56-1.89,3.89,3.89,0,0,1,1.17-1.43A3.24,3.24,0,0,1,150,236Zm0,1.06a2.09,2.09,0,0,0-1.47.49,3.2,3.2,0,0,0-.8,1.24,5.72,5.72,0,0,0-.35,1.56c0,.56-.07,1.06-.07,1.51s0,.95.07,1.5a5.71,5.71,0,0,0,.35,1.57,3.17,3.17,0,0,0,.8,1.23,2.09,2.09,0,0,0,1.47.5,2.07,2.07,0,0,0,1.46-.5,3.08,3.08,0,0,0,.81-1.23,5.7,5.7,0,0,0,.34-1.57c0-.55.08-1.05.08-1.5s0-1-.08-1.51a5.71,5.71,0,0,0-.34-1.56,3.11,3.11,0,0,0-.81-1.24A2.06,2.06,0,0,0,150,237Z"/><path d="M160.06,241.67c0-.28,0-.56,0-.83s0-.56-.05-.84h1.13v1.14h0a2.44,2.44,0,0,1,1.07-1,2.94,2.94,0,0,1,1.35-.34,3.07,3.07,0,0,1,.65.07,2.25,2.25,0,0,1,.66.23,2.18,2.18,0,0,1,.6.47,2.28,2.28,0,0,1,.47.78,2.53,2.53,0,0,1,1-1.13,3.07,3.07,0,0,1,3.58.34,3.17,3.17,0,0,1,.68,2.17v4.75h-1.05v-4.37a3.25,3.25,0,0,0-.4-1.74,1.65,1.65,0,0,0-1.49-.61,2,2,0,0,0-1,.23,1.84,1.84,0,0,0-.65.62,2.58,2.58,0,0,0-.36.87,4.9,4.9,0,0,0-.11,1v4h-1.06v-4.37a3.16,3.16,0,0,0-.4-1.74,1.64,1.64,0,0,0-1.49-.61,2.67,2.67,0,0,0-.44.07,1.67,1.67,0,0,0-.71.35,2.53,2.53,0,0,0-.66.86,3.53,3.53,0,0,0-.3,1.6v3.84h-1.05Z"/><path d="M173.69,241.67c0-.28,0-.56,0-.83s0-.56,0-.84h1.13v1.14h0a2.41,2.41,0,0,1,1.06-1,2.94,2.94,0,0,1,1.35-.34,3.07,3.07,0,0,1,.65.07,2.25,2.25,0,0,1,.66.23,2,2,0,0,1,.6.47,2.47,2.47,0,0,1,.48.78,2.45,2.45,0,0,1,1-1.13,3.07,3.07,0,0,1,3.58.34,3.12,3.12,0,0,1,.69,2.17v4.75H183.8v-4.37a3.16,3.16,0,0,0-.4-1.74,1.64,1.64,0,0,0-1.49-.61,2,2,0,0,0-1,.23,1.93,1.93,0,0,0-.65.62,3.07,3.07,0,0,0-.36.87,4.9,4.9,0,0,0-.11,1v4h-1.06v-4.37a3.16,3.16,0,0,0-.4-1.74,1.62,1.62,0,0,0-1.48-.61,2.39,2.39,0,0,0-.44.07,1.71,1.71,0,0,0-.72.35,2.67,2.67,0,0,0-.66.86,3.53,3.53,0,0,0-.3,1.6v3.84h-1.05Z"/></g></svg>