<svg xmlns="http://www.w3.org/2000/svg" viewBox="0 0 300 263"><defs><style>.cls-1,.cls-2,.cls-3,.cls-4,.cls-5{fill:none;stroke-linecap:round;}.cls-1,.cls-2,.cls-5{stroke:red;}.cls-1,.cls-2,.cls-4,.cls-5{stroke-linejoin:round;}.cls-1{stroke-width:0.6px;}.cls-3,.cls-4{stroke:#000;}.cls-3{stroke-miterlimit:10;}.cls-3,.cls-4,.cls-5{stroke-width:0.6px;}</style></defs><title>fantasma-scarpa-flos-F2201009-curva-fotometrica</title><g id="numeri_esterni_diagramma" data-name="numeri esterni diagramma"><path d="M249.93,137.18h0a1.24,1.24,0,0,1-.37.12,1.84,1.84,0,0,1-.39,0,1.91,1.91,0,0,1-.68-.12,1.58,1.58,0,0,1-.54-.37,1.63,1.63,0,0,1-.36-.56,2.05,2.05,0,0,1-.13-.72,1.79,1.79,0,0,1,.15-.75,1.48,1.48,0,0,1,.4-.55,1.79,1.79,0,0,1,.6-.35,2,2,0,0,1,.75-.13,2.11,2.11,0,0,1,.75.13,1.79,1.79,0,0,1,.6.35,1.59,1.59,0,0,1,.4.55,1.79,1.79,0,0,1,.14.75,2.15,2.15,0,0,1,0,.45,1.68,1.68,0,0,1-.11.4,2.59,2.59,0,0,1-.17.38l-.21.36-1.51,2.39h-.78Zm-.59-.42a1.28,1.28,0,0,0,.48-.09,1,1,0,0,0,.39-.24,1.23,1.23,0,0,0,.26-.37,1.43,1.43,0,0,0,0-1,1.1,1.1,0,0,0-.65-.62,1.48,1.48,0,0,0-1,0,1.28,1.28,0,0,0-.39.24,1.12,1.12,0,0,0-.26.38,1.3,1.3,0,0,0,0,1,1.08,1.08,0,0,0,.26.37,1,1,0,0,0,.39.24A1.28,1.28,0,0,0,249.34,136.76Z"/><path d="M251.82,136.71a7.07,7.07,0,0,1,.08-1,3.19,3.19,0,0,1,.29-1,2,2,0,0,1,.59-.7,1.54,1.54,0,0,1,1-.28,1.49,1.49,0,0,1,.95.28,1.91,1.91,0,0,1,.59.7,2.94,2.94,0,0,1,.3,1,6.29,6.29,0,0,1,0,2,2.94,2.94,0,0,1-.3.95,1.91,1.91,0,0,1-.59.7,1.49,1.49,0,0,1-.95.28,1.54,1.54,0,0,1-1-.28,2,2,0,0,1-.59-.7,3.19,3.19,0,0,1-.29-.95A7.07,7.07,0,0,1,251.82,136.71Zm.67,0c0,.14,0,.29,0,.46a4.6,4.6,0,0,0,.06.52,4.7,4.7,0,0,0,.12.51,2,2,0,0,0,.23.44,1,1,0,0,0,.34.31,1,1,0,0,0,.48.11,1.06,1.06,0,0,0,.48-.11,1.24,1.24,0,0,0,.34-.31,1.65,1.65,0,0,0,.22-.44,3.18,3.18,0,0,0,.13-.51,4.6,4.6,0,0,0,.06-.52c0-.17,0-.32,0-.46s0-.29,0-.46a4.6,4.6,0,0,0-.06-.52,3.18,3.18,0,0,0-.13-.51,1.65,1.65,0,0,0-.22-.44,1.24,1.24,0,0,0-.34-.31,1.06,1.06,0,0,0-.48-.11,1,1,0,0,0-.48.11,1,1,0,0,0-.34.31,2,2,0,0,0-.23.44,4.7,4.7,0,0,0-.12.51,4.6,4.6,0,0,0-.06.52C252.5,136.42,252.49,136.57,252.49,136.71Z"/><path d="M256.42,134.93a1.13,1.13,0,0,1,.09-.45,1.31,1.31,0,0,1,.24-.37,1.18,1.18,0,0,1,.37-.24,1,1,0,0,1,.44-.09,1.13,1.13,0,0,1,.45.09,1.06,1.06,0,0,1,.61.61,1.13,1.13,0,0,1,.09.45,1,1,0,0,1-.09.44,1.06,1.06,0,0,1-.61.61,1.13,1.13,0,0,1-.45.09,1,1,0,0,1-.44-.09,1.18,1.18,0,0,1-.37-.24,1.31,1.31,0,0,1-.24-.37A1,1,0,0,1,256.42,134.93Zm.43,0a.69.69,0,0,0,0,.24,1,1,0,0,0,.15.24.73.73,0,0,0,.51.23.54.54,0,0,0,.29-.07.63.63,0,0,0,.23-.16.72.72,0,0,0,.14-.24.52.52,0,0,0,0-.24.56.56,0,0,0,0-.25.59.59,0,0,0-.14-.23.74.74,0,0,0-.52-.24.73.73,0,0,0-.29.07.62.62,0,0,0-.22.17.76.76,0,0,0-.15.23A.74.74,0,0,0,256.85,134.93Z"/><path d="M41.57,137.18h0a1.34,1.34,0,0,1-.37.12,2,2,0,0,1-.39,0,1.92,1.92,0,0,1-.69-.12,1.58,1.58,0,0,1-.54-.37,1.8,1.8,0,0,1-.36-.56,2.05,2.05,0,0,1-.13-.72,1.79,1.79,0,0,1,.15-.75,1.48,1.48,0,0,1,.4-.55,1.79,1.79,0,0,1,.6-.35,2.23,2.23,0,0,1,1.5,0,1.79,1.79,0,0,1,.6.35,1.48,1.48,0,0,1,.4.55,1.79,1.79,0,0,1,.15.75,3.14,3.14,0,0,1,0,.45,2.34,2.34,0,0,1-.12.4,1.84,1.84,0,0,1-.17.38,3.35,3.35,0,0,1-.21.36l-1.5,2.39h-.79Zm-.59-.42a1.28,1.28,0,0,0,.48-.09,1,1,0,0,0,.39-.24,1.23,1.23,0,0,0,.26-.37,1.3,1.3,0,0,0,0-1,1.1,1.1,0,0,0-.65-.62,1.48,1.48,0,0,0-1,0,1.1,1.1,0,0,0-.65.62,1.43,1.43,0,0,0,0,1,1.23,1.23,0,0,0,.26.37,1,1,0,0,0,.39.24A1.28,1.28,0,0,0,41,136.76Z"/><path d="M43.46,136.71a7.07,7.07,0,0,1,.08-1,2.94,2.94,0,0,1,.3-1,1.91,1.91,0,0,1,.59-.7,1.49,1.49,0,0,1,1-.28,1.54,1.54,0,0,1,1,.28,2,2,0,0,1,.59.7,3.19,3.19,0,0,1,.29,1,6.29,6.29,0,0,1,0,2,3.19,3.19,0,0,1-.29.95,2,2,0,0,1-.59.7,1.54,1.54,0,0,1-1,.28,1.49,1.49,0,0,1-1-.28,1.91,1.91,0,0,1-.59-.7,2.94,2.94,0,0,1-.3-.95A7.07,7.07,0,0,1,43.46,136.71Zm.67,0c0,.14,0,.29,0,.46a4.6,4.6,0,0,0,.06.52,3.18,3.18,0,0,0,.13.51,1.65,1.65,0,0,0,.22.44,1.12,1.12,0,0,0,.34.31,1.1,1.1,0,0,0,1,0,1.12,1.12,0,0,0,.34-.31,2,2,0,0,0,.23-.44,4.7,4.7,0,0,0,.12-.51,4.6,4.6,0,0,0,.06-.52c0-.17,0-.32,0-.46s0-.29,0-.46a4.6,4.6,0,0,0-.06-.52,4.7,4.7,0,0,0-.12-.51,2,2,0,0,0-.23-.44,1.12,1.12,0,0,0-.34-.31,1.1,1.1,0,0,0-1,0,1.12,1.12,0,0,0-.34.31,1.65,1.65,0,0,0-.22.44,3.18,3.18,0,0,0-.13.51,4.6,4.6,0,0,0-.06.52C44.14,136.42,44.13,136.57,44.13,136.71Z"/><path d="M48.06,134.93a1.13,1.13,0,0,1,.09-.45,1.06,1.06,0,0,1,.61-.61,1.13,1.13,0,0,1,.45-.09,1.08,1.08,0,0,1,.44.09,1.06,1.06,0,0,1,.61.61,1.13,1.13,0,0,1,.09.45,1,1,0,0,1-.09.44,1.06,1.06,0,0,1-.61.61,1.08,1.08,0,0,1-.44.09,1.13,1.13,0,0,1-.45-.09,1.06,1.06,0,0,1-.61-.61A1,1,0,0,1,48.06,134.93Zm.43,0a.53.53,0,0,0,.06.24.72.72,0,0,0,.14.24.69.69,0,0,0,.22.16.6.6,0,0,0,.3.07.73.73,0,0,0,.51-.23,1,1,0,0,0,.15-.24.69.69,0,0,0,.05-.24.74.74,0,0,0-.05-.25.76.76,0,0,0-.15-.23.62.62,0,0,0-.22-.17.73.73,0,0,0-.29-.07.73.73,0,0,0-.3.07.72.72,0,0,0-.22.17.59.59,0,0,0-.14.23A.57.57,0,0,0,48.49,134.93Z"/><path d="M148.37,38.51h-.68v-4.8h0l-1,.85-.4-.48,1.52-1.24h.59Z"/><path d="M150.49,34.23a1.48,1.48,0,0,1,.13-.61,1.2,1.2,0,0,1,.34-.46,1.44,1.44,0,0,1,.51-.3,1.92,1.92,0,0,1,1.28,0,1.44,1.44,0,0,1,.51.3,1.2,1.2,0,0,1,.34.46,1.33,1.33,0,0,1,.13.61,1.16,1.16,0,0,1-.07.4,1.41,1.41,0,0,1-.18.37,1.33,1.33,0,0,1-.29.29,1.18,1.18,0,0,1-.39.19h0a1.44,1.44,0,0,1,.46.19,1.35,1.35,0,0,1,.35.32,1.42,1.42,0,0,1,.23.44,1.7,1.7,0,0,1,.08.51,1.74,1.74,0,0,1-.14.69,1.43,1.43,0,0,1-.39.52,1.47,1.47,0,0,1-.57.33,2.35,2.35,0,0,1-1.42,0,1.47,1.47,0,0,1-.57-.33,1.55,1.55,0,0,1-.39-.52,1.74,1.74,0,0,1-.14-.69,1.7,1.7,0,0,1,.08-.51,1.67,1.67,0,0,1,.23-.44,1.35,1.35,0,0,1,.35-.32,1.44,1.44,0,0,1,.46-.19h0a1.18,1.18,0,0,1-.39-.19,1.33,1.33,0,0,1-.29-.29,1.41,1.41,0,0,1-.18-.37A1.46,1.46,0,0,1,150.49,34.23ZM151,36.9a1.18,1.18,0,0,0,.09.46,1.07,1.07,0,0,0,.25.35,1,1,0,0,0,.36.23,1.12,1.12,0,0,0,.88,0,1,1,0,0,0,.36-.23,1.07,1.07,0,0,0,.25-.35,1.18,1.18,0,0,0,.09-.46,1.14,1.14,0,0,0-.09-.46,1.13,1.13,0,0,0-.61-.58,1.12,1.12,0,0,0-.88,0,1.13,1.13,0,0,0-.61.58A1.14,1.14,0,0,0,151,36.9Zm.2-2.64a.88.88,0,0,0,.26.67,1,1,0,0,0,1.36,0,1,1,0,0,0,0-1.34,1,1,0,0,0-1.36,0A.88.88,0,0,0,151.17,34.26Z"/><path d="M154.64,35.68a7,7,0,0,1,.08-1,3.1,3.1,0,0,1,.29-1,2,2,0,0,1,.59-.71,1.6,1.6,0,0,1,1-.27,1.55,1.55,0,0,1,.95.27,1.94,1.94,0,0,1,.59.71,2.86,2.86,0,0,1,.3,1,7,7,0,0,1,.08,1,7.07,7.07,0,0,1-.08,1,2.88,2.88,0,0,1-.3.94,1.94,1.94,0,0,1-.59.71,1.55,1.55,0,0,1-.95.27,1.6,1.6,0,0,1-1-.27,2,2,0,0,1-.59-.71,3.13,3.13,0,0,1-.29-.94A7.07,7.07,0,0,1,154.64,35.68Zm.67,0c0,.13,0,.29,0,.46a4.88,4.88,0,0,0,.06.52,4.05,4.05,0,0,0,.12.5,1.66,1.66,0,0,0,.23.44,1.12,1.12,0,0,0,.34.31,1,1,0,0,0,1,0,1.12,1.12,0,0,0,.34-.31,1.4,1.4,0,0,0,.22-.44,2.83,2.83,0,0,0,.13-.5,4.88,4.88,0,0,0,.06-.52c0-.17,0-.33,0-.46s0-.3,0-.47a4.43,4.43,0,0,0-.06-.51,2.72,2.72,0,0,0-.13-.51,1.51,1.51,0,0,0-.22-.44,1.12,1.12,0,0,0-.34-.31,1,1,0,0,0-1,0,1.12,1.12,0,0,0-.34.31,1.83,1.83,0,0,0-.23.44,3.81,3.81,0,0,0-.12.51,4.43,4.43,0,0,0-.06.51C155.32,35.38,155.31,35.54,155.31,35.68Z"/><path d="M159.24,33.89a1.15,1.15,0,0,1,.33-.81,1,1,0,0,1,.37-.24,1,1,0,0,1,.44-.09,1.15,1.15,0,0,1,.82,2,1.15,1.15,0,0,1-.37.25,1.13,1.13,0,0,1-.45.09,1.15,1.15,0,0,1-.81-.34,1.15,1.15,0,0,1-.33-.81Zm.43,0a.79.79,0,0,0,.05.25,1.14,1.14,0,0,0,.15.23.62.62,0,0,0,.22.17.72.72,0,0,0,.29.06.68.68,0,0,0,.52-.23.79.79,0,0,0,.14-.23.65.65,0,0,0,0-.5.79.79,0,0,0-.14-.23.81.81,0,0,0-.23-.17.65.65,0,0,0-.29-.06.72.72,0,0,0-.29.06.76.76,0,0,0-.22.17,1.14,1.14,0,0,0-.15.23A.79.79,0,0,0,159.67,33.89Z"/><path d="M148.27,239.2a6.85,6.85,0,0,1,.08-1,3.41,3.41,0,0,1,.3-.95,1.94,1.94,0,0,1,.59-.71,1.57,1.57,0,0,1,.95-.27,1.6,1.6,0,0,1,1,.27,2,2,0,0,1,.59.71,3.1,3.1,0,0,1,.29.95,5.7,5.7,0,0,1,.08,1,5.85,5.85,0,0,1-.08,1,3.13,3.13,0,0,1-.29.94,2,2,0,0,1-.59.71,1.6,1.6,0,0,1-1,.27,1.57,1.57,0,0,1-.95-.27,1.94,1.94,0,0,1-.59-.71,3.45,3.45,0,0,1-.3-.94A7.07,7.07,0,0,1,148.27,239.2Zm.68,0c0,.13,0,.29,0,.46a4.88,4.88,0,0,0,.06.52,2.83,2.83,0,0,0,.13.5,1.65,1.65,0,0,0,.22.44,1.24,1.24,0,0,0,.34.31,1,1,0,0,0,.48.12.9.9,0,0,0,.48-.12,1,1,0,0,0,.34-.31,1.41,1.41,0,0,0,.23-.44,4.07,4.07,0,0,0,.13-.5c0-.18,0-.35.06-.52s0-.33,0-.46,0-.3,0-.47,0-.34-.06-.51a3.8,3.8,0,0,0-.13-.51,1.53,1.53,0,0,0-.23-.44,1,1,0,0,0-.34-.31.9.9,0,0,0-.48-.12,1,1,0,0,0-.48.12,1.24,1.24,0,0,0-.34.31,1.81,1.81,0,0,0-.22.44,2.72,2.72,0,0,0-.13.51,4.43,4.43,0,0,0-.06.51C149,238.9,149,239.06,149,239.2Z"/><path d="M152.83,237.41a1.33,1.33,0,0,1,.08-.45,1.11,1.11,0,0,1,.25-.36,1,1,0,0,1,.36-.24,1.17,1.17,0,0,1,.9,0,1,1,0,0,1,.36.24,1.11,1.11,0,0,1,.25.36,1.31,1.31,0,0,1,0,.9,1.23,1.23,0,0,1-.61.61,1.17,1.17,0,0,1-.9,0,1.23,1.23,0,0,1-.61-.61A1.33,1.33,0,0,1,152.83,237.41Zm.43,0a.79.79,0,0,0,.05.25.68.68,0,0,0,.14.23.66.66,0,0,0,.23.17.73.73,0,0,0,.58,0,.76.76,0,0,0,.23-.17.88.88,0,0,0,.14-.23.65.65,0,0,0,0-.5,1.09,1.09,0,0,0-.14-.23,1,1,0,0,0-.23-.17.73.73,0,0,0-.58,0,.81.81,0,0,0-.23.17.75.75,0,0,0-.19.48Z"/><path d="M203.17,238.76h.21l.43,0a1.15,1.15,0,0,0,.42-.13.77.77,0,0,0,.31-.31.94.94,0,0,0,.13-.51.87.87,0,0,0-.27-.68,1,1,0,0,0-.7-.26,1.28,1.28,0,0,0-.63.16,1.14,1.14,0,0,0-.41.48l-.65-.25a1.48,1.48,0,0,1,.65-.72,2.07,2.07,0,0,1,1-.24,2.25,2.25,0,0,1,.64.09,1.72,1.72,0,0,1,.54.28,1.37,1.37,0,0,1,.37.46,1.48,1.48,0,0,1,.14.65,1.29,1.29,0,0,1-.27.8,1.34,1.34,0,0,1-.7.49v0a1.48,1.48,0,0,1,.85.49,1.37,1.37,0,0,1,.23.43,1.69,1.69,0,0,1,.08.5,1.66,1.66,0,0,1-.15.72,1.57,1.57,0,0,1-.41.51,1.71,1.71,0,0,1-.6.31,2.34,2.34,0,0,1-.71.1,2.18,2.18,0,0,1-1.13-.28,1.61,1.61,0,0,1-.7-.91l.68-.22a1.33,1.33,0,0,0,.41.65,1.3,1.3,0,0,0,.74.19,1.33,1.33,0,0,0,.45-.08,1.11,1.11,0,0,0,.36-.23,1.24,1.24,0,0,0,.25-.35,1.13,1.13,0,0,0,.09-.45,1.07,1.07,0,0,0-.12-.53,1,1,0,0,0-.33-.33,1.23,1.23,0,0,0-.46-.18,2.31,2.31,0,0,0-.52-.06h-.21Z"/><path d="M206.24,239.2a6.85,6.85,0,0,1,.08-1,3.11,3.11,0,0,1,.3-.95,1.94,1.94,0,0,1,.59-.71,1.55,1.55,0,0,1,.95-.27,1.6,1.6,0,0,1,1,.27,2,2,0,0,1,.59.71,3.1,3.1,0,0,1,.29.95,5.7,5.7,0,0,1,.08,1,5.85,5.85,0,0,1-.08,1,3.13,3.13,0,0,1-.29.94,2,2,0,0,1-.59.71,1.6,1.6,0,0,1-1,.27,1.55,1.55,0,0,1-.95-.27,1.94,1.94,0,0,1-.59-.71,3.14,3.14,0,0,1-.3-.94A7.07,7.07,0,0,1,206.24,239.2Zm.67,0c0,.13,0,.29,0,.46a4.88,4.88,0,0,0,.06.52,2.83,2.83,0,0,0,.13.5,1.4,1.4,0,0,0,.22.44,1.24,1.24,0,0,0,.34.31,1,1,0,0,0,.48.12.9.9,0,0,0,.48-.12,1,1,0,0,0,.34-.31,1.41,1.41,0,0,0,.23-.44,4.05,4.05,0,0,0,.12-.5,4.88,4.88,0,0,0,.06-.52,3.86,3.86,0,0,0,0-.46,3.94,3.94,0,0,0,0-.47,4.43,4.43,0,0,0-.06-.51,3.81,3.81,0,0,0-.12-.51,1.53,1.53,0,0,0-.23-.44,1,1,0,0,0-.34-.31.9.9,0,0,0-.48-.12,1,1,0,0,0-.48.12,1.24,1.24,0,0,0-.34.31,1.51,1.51,0,0,0-.22.44,2.72,2.72,0,0,0-.13.51,4.43,4.43,0,0,0-.06.51C206.92,238.9,206.91,239.06,206.91,239.2Z"/><path d="M210.84,237.41a1.13,1.13,0,0,1,.09-.45,1.26,1.26,0,0,1,.24-.36,1.2,1.2,0,0,1,.82-.33,1,1,0,0,1,.44.09,1.12,1.12,0,0,1,.37.24,1.26,1.26,0,0,1,.24.36,1.16,1.16,0,0,1-.24,1.26,1.15,1.15,0,0,1-.37.25,1,1,0,0,1-.44.09,1.13,1.13,0,0,1-.45-.09,1.15,1.15,0,0,1-.37-.25,1.15,1.15,0,0,1-.33-.81Zm.43,0a.61.61,0,0,0,.06.25.68.68,0,0,0,.14.23.72.72,0,0,0,.22.17.73.73,0,0,0,.3.06.72.72,0,0,0,.29-.06.62.62,0,0,0,.22-.17.91.91,0,0,0,.15-.23.65.65,0,0,0,0-.5,1.14,1.14,0,0,0-.15-.23.76.76,0,0,0-.22-.17.72.72,0,0,0-.29-.06.73.73,0,0,0-.3.06.92.92,0,0,0-.22.17.79.79,0,0,0-.14.23A.61.61,0,0,0,211.27,237.41Z"/><path d="M93.6,238.76h.21l.44,0a1.1,1.1,0,0,0,.41-.13.86.86,0,0,0,.32-.31.94.94,0,0,0,.12-.51.87.87,0,0,0-.27-.68,1,1,0,0,0-.7-.26,1.21,1.21,0,0,0-.62.16,1.1,1.1,0,0,0-.42.48l-.65-.25a1.45,1.45,0,0,1,.66-.72,2,2,0,0,1,1-.24,2.32,2.32,0,0,1,.65.09,2,2,0,0,1,.54.28,1.67,1.67,0,0,1,.37.46,1.48,1.48,0,0,1,.13.65,1.29,1.29,0,0,1-.27.8,1.34,1.34,0,0,1-.7.49v0a1.31,1.31,0,0,1,.49.18,1.34,1.34,0,0,1,.36.31,1.37,1.37,0,0,1,.23.43,1.42,1.42,0,0,1,.08.5,1.66,1.66,0,0,1-.15.72,1.57,1.57,0,0,1-.41.51,1.75,1.75,0,0,1-.59.31,2.46,2.46,0,0,1-.72.1,2.18,2.18,0,0,1-1.13-.28,1.56,1.56,0,0,1-.69-.91l.68-.22a1.2,1.2,0,0,0,.41.65,1.27,1.27,0,0,0,.73.19,1.33,1.33,0,0,0,.45-.08,1.11,1.11,0,0,0,.36-.23,1.07,1.07,0,0,0,.25-.35,1.13,1.13,0,0,0,.09-.45,1.07,1.07,0,0,0-.12-.53.87.87,0,0,0-.33-.33,1.17,1.17,0,0,0-.46-.18,2.24,2.24,0,0,0-.52-.06H93.6Z"/><path d="M96.68,239.2a5.7,5.7,0,0,1,.08-1,3.1,3.1,0,0,1,.29-.95,2,2,0,0,1,.59-.71,1.6,1.6,0,0,1,1-.27,1.57,1.57,0,0,1,1,.27,1.94,1.94,0,0,1,.59.71,3.41,3.41,0,0,1,.3.95,6.85,6.85,0,0,1,.08,1,7.07,7.07,0,0,1-.08,1,3.45,3.45,0,0,1-.3.94,1.94,1.94,0,0,1-.59.71,1.57,1.57,0,0,1-1,.27,1.6,1.6,0,0,1-1-.27,2,2,0,0,1-.59-.71,3.13,3.13,0,0,1-.29-.94A5.85,5.85,0,0,1,96.68,239.2Zm.67,0c0,.13,0,.29,0,.46a4.88,4.88,0,0,0,.06.52,4.07,4.07,0,0,0,.13.5,1.41,1.41,0,0,0,.23.44,1,1,0,0,0,.34.31.9.9,0,0,0,.48.12,1,1,0,0,0,.48-.12,1.24,1.24,0,0,0,.34-.31,1.65,1.65,0,0,0,.22-.44,2.83,2.83,0,0,0,.13-.5,4.88,4.88,0,0,0,.06-.52c0-.17,0-.33,0-.46s0-.3,0-.47a4.43,4.43,0,0,0-.06-.51,2.72,2.72,0,0,0-.13-.51,1.81,1.81,0,0,0-.22-.44,1.24,1.24,0,0,0-.34-.31,1,1,0,0,0-.48-.12.9.9,0,0,0-.48.12,1,1,0,0,0-.34.31,1.53,1.53,0,0,0-.23.44,3.8,3.8,0,0,0-.13.51,4.43,4.43,0,0,0-.06.51C97.35,238.9,97.35,239.06,97.35,239.2Z"/><path d="M101.28,237.41a1.33,1.33,0,0,1,.08-.45,1.11,1.11,0,0,1,.25-.36,1,1,0,0,1,.36-.24,1.17,1.17,0,0,1,.9,0,1,1,0,0,1,.36.24,1.11,1.11,0,0,1,.25.36,1.31,1.31,0,0,1,0,.9,1.23,1.23,0,0,1-.61.61,1.17,1.17,0,0,1-.9,0,1.23,1.23,0,0,1-.61-.61A1.33,1.33,0,0,1,101.28,237.41Zm.43,0a.79.79,0,0,0,.05.25.68.68,0,0,0,.14.23.76.76,0,0,0,.23.17.73.73,0,0,0,.58,0,.66.66,0,0,0,.23-.17.68.68,0,0,0,.14-.23.71.71,0,0,0-.14-.73.81.81,0,0,0-.23-.17.73.73,0,0,0-.58,0,1,1,0,0,0-.23.17.75.75,0,0,0-.19.48Z"/><path d="M203.18,38.51h-.68v-4.8h0l-1,.85-.4-.48,1.52-1.24h.59Z"/><path d="M208.49,33.47h-2.31l0,1.53a1.08,1.08,0,0,1,.36-.11l.37,0a2,2,0,0,1,.74.14,1.61,1.61,0,0,1,.57.39,1.9,1.9,0,0,1,.37.59,2,2,0,0,1,.13.74,2,2,0,0,1-.15.78,1.74,1.74,0,0,1-.41.59,1.91,1.91,0,0,1-.61.38,2.2,2.2,0,0,1-.78.13,1.73,1.73,0,0,1-1-.28,2,2,0,0,1-.63-.75l.67-.25a1.31,1.31,0,0,0,.42.51,1.1,1.1,0,0,0,.64.2,1.28,1.28,0,0,0,.48-.09,1.26,1.26,0,0,0,.38-.27,1.15,1.15,0,0,0,.26-.41,1.53,1.53,0,0,0,.1-.54,1.38,1.38,0,0,0-.11-.55,1.08,1.08,0,0,0-.3-.4,1.26,1.26,0,0,0-.44-.25,1.67,1.67,0,0,0-.55-.08,1.84,1.84,0,0,0-.6.1,2.58,2.58,0,0,0-.56.25l.06-2.95h3Z"/><path d="M209.45,35.68a7,7,0,0,1,.08-1,3.1,3.1,0,0,1,.29-1,2,2,0,0,1,.59-.71,1.6,1.6,0,0,1,1-.27,1.55,1.55,0,0,1,.95.27,1.94,1.94,0,0,1,.59.71,2.86,2.86,0,0,1,.3,1,7,7,0,0,1,.08,1,7.07,7.07,0,0,1-.08,1,2.88,2.88,0,0,1-.3.94,1.94,1.94,0,0,1-.59.71,1.55,1.55,0,0,1-.95.27,1.6,1.6,0,0,1-1-.27,2,2,0,0,1-.59-.71,3.13,3.13,0,0,1-.29-.94A7.07,7.07,0,0,1,209.45,35.68Zm.67,0c0,.13,0,.29,0,.46a4.88,4.88,0,0,0,.06.52,4.05,4.05,0,0,0,.12.5,1.66,1.66,0,0,0,.23.44,1,1,0,0,0,.34.31.9.9,0,0,0,.48.12,1,1,0,0,0,.48-.12,1.24,1.24,0,0,0,.34-.31,1.4,1.4,0,0,0,.22-.44,2.83,2.83,0,0,0,.13-.5,4.88,4.88,0,0,0,.06-.52c0-.17,0-.33,0-.46s0-.3,0-.47a4.43,4.43,0,0,0-.06-.51,2.72,2.72,0,0,0-.13-.51,1.51,1.51,0,0,0-.22-.44,1.24,1.24,0,0,0-.34-.31,1,1,0,0,0-.48-.12.9.9,0,0,0-.48.12,1,1,0,0,0-.34.31,1.83,1.83,0,0,0-.23.44,3.81,3.81,0,0,0-.12.51,4.43,4.43,0,0,0-.06.51C210.13,35.38,210.12,35.54,210.12,35.68Z"/><path d="M214.05,33.89a1.15,1.15,0,0,1,.33-.81,1,1,0,0,1,.37-.24,1,1,0,0,1,.44-.09,1.13,1.13,0,0,1,.45.09,1,1,0,0,1,.36.24,1,1,0,0,1,.25.36,1.17,1.17,0,0,1,0,.9,1.23,1.23,0,0,1-.61.61,1.13,1.13,0,0,1-.45.09,1.15,1.15,0,0,1-.81-.34,1.15,1.15,0,0,1-.33-.81Zm.43,0a.79.79,0,0,0,.05.25,1.14,1.14,0,0,0,.15.23.62.62,0,0,0,.22.17.72.72,0,0,0,.29.06.68.68,0,0,0,.52-.23.79.79,0,0,0,.14-.23.65.65,0,0,0,0-.5.79.79,0,0,0-.14-.23.81.81,0,0,0-.23-.17.65.65,0,0,0-.29-.06.72.72,0,0,0-.29.06.76.76,0,0,0-.22.17,1.14,1.14,0,0,0-.15.23A.79.79,0,0,0,214.48,33.89Z"/><path d="M93.61,38.51h-.67v-4.8h0l-1,.85-.4-.48L93,32.84h.58Z"/><path d="M98.92,33.47H96.61l0,1.53a1,1,0,0,1,.35-.11l.37,0a1.91,1.91,0,0,1,.74.14,1.65,1.65,0,0,1,.58.39A1.71,1.71,0,0,1,99,36a2,2,0,0,1,.13.74,2,2,0,0,1-.15.78,1.71,1.71,0,0,1-.4.59,2,2,0,0,1-.62.38,2.15,2.15,0,0,1-.77.13,1.78,1.78,0,0,1-1.05-.28,1.85,1.85,0,0,1-.62-.75l.67-.25a1.16,1.16,0,0,0,.42.51,1.05,1.05,0,0,0,.63.2,1.28,1.28,0,0,0,.48-.09,1.23,1.23,0,0,0,.64-.68,1.33,1.33,0,0,0,.1-.54,1.38,1.38,0,0,0-.11-.55,1.18,1.18,0,0,0-.29-.4,1.41,1.41,0,0,0-.45-.25,1.63,1.63,0,0,0-.55-.08,1.78,1.78,0,0,0-.59.1,2.58,2.58,0,0,0-.56.25l0-2.95h3Z"/><path d="M99.88,35.68a7,7,0,0,1,.08-1,3.11,3.11,0,0,1,.3-1,1.94,1.94,0,0,1,.59-.71,1.55,1.55,0,0,1,1-.27,1.6,1.6,0,0,1,1,.27,2,2,0,0,1,.59.71,3.1,3.1,0,0,1,.29,1,5.77,5.77,0,0,1,.08,1,5.85,5.85,0,0,1-.08,1,3.13,3.13,0,0,1-.29.94,2,2,0,0,1-.59.71,1.6,1.6,0,0,1-1,.27,1.55,1.55,0,0,1-1-.27,1.94,1.94,0,0,1-.59-.71,3.14,3.14,0,0,1-.3-.94A7.07,7.07,0,0,1,99.88,35.68Zm.67,0c0,.13,0,.29,0,.46a4.88,4.88,0,0,0,.06.52,2.83,2.83,0,0,0,.13.5,1.4,1.4,0,0,0,.22.44,1.24,1.24,0,0,0,.34.31,1,1,0,0,0,.48.12.9.9,0,0,0,.48-.12,1,1,0,0,0,.34-.31,1.41,1.41,0,0,0,.23-.44,4.05,4.05,0,0,0,.12-.5,4.88,4.88,0,0,0,.06-.52c0-.17,0-.33,0-.46s0-.3,0-.47a4.43,4.43,0,0,0-.06-.51,3.81,3.81,0,0,0-.12-.51,1.53,1.53,0,0,0-.23-.44,1,1,0,0,0-.34-.31.9.9,0,0,0-.48-.12,1,1,0,0,0-.48.12,1.24,1.24,0,0,0-.34.31,1.51,1.51,0,0,0-.22.44,2.72,2.72,0,0,0-.13.51,4.43,4.43,0,0,0-.06.51C100.56,35.38,100.55,35.54,100.55,35.68Z"/><path d="M104.48,33.89a1.15,1.15,0,0,1,1.15-1.14,1,1,0,0,1,.44.09,1.12,1.12,0,0,1,.37.24,1.16,1.16,0,0,1,0,1.62,1.15,1.15,0,0,1-.37.25,1,1,0,0,1-.44.09,1.13,1.13,0,0,1-.45-.09,1.15,1.15,0,0,1-.37-.25,1.15,1.15,0,0,1-.33-.81Zm.43,0a.61.61,0,0,0,.06.25.79.79,0,0,0,.14.23.72.72,0,0,0,.22.17.73.73,0,0,0,.3.06.72.72,0,0,0,.29-.06.62.62,0,0,0,.22-.17,1.14,1.14,0,0,0,.15-.23.65.65,0,0,0,0-.5,1.14,1.14,0,0,0-.15-.23.76.76,0,0,0-.22-.17.72.72,0,0,0-.29-.06.73.73,0,0,0-.3.06.92.92,0,0,0-.22.17.79.79,0,0,0-.14.23A.61.61,0,0,0,104.91,33.89Z"/><path d="M248.75,192.45v0a1.35,1.35,0,0,1,.37-.13,2,2,0,0,1,.39,0,1.73,1.73,0,0,1,.69.13,1.42,1.42,0,0,1,.54.36,1.85,1.85,0,0,1,.36.57,2,2,0,0,1,.12.72,1.78,1.78,0,0,1-.14.74,1.74,1.74,0,0,1-.4.56,2,2,0,0,1-.6.35,2.36,2.36,0,0,1-.75.12,2.27,2.27,0,0,1-.75-.12,2,2,0,0,1-.6-.35,1.6,1.6,0,0,1-.4-.56,1.78,1.78,0,0,1-.15-.74,2.24,2.24,0,0,1,.15-.86,5.28,5.28,0,0,1,.39-.74l1.5-2.39h.79Zm.59.43a1.23,1.23,0,0,0-.87.32,1,1,0,0,0-.26.38,1.31,1.31,0,0,0-.1.5,1.35,1.35,0,0,0,.1.5,1.08,1.08,0,0,0,.26.37,1,1,0,0,0,.39.24,1.32,1.32,0,0,0,1,0,1,1,0,0,0,.39-.24,1.23,1.23,0,0,0,.26-.37,1.35,1.35,0,0,0,.09-.5,1.31,1.31,0,0,0-.09-.5,1.16,1.16,0,0,0-.26-.38,1.23,1.23,0,0,0-.87-.32Z"/><path d="M251.82,192.92a7.07,7.07,0,0,1,.08-1,3.13,3.13,0,0,1,.29-.94,2,2,0,0,1,.59-.71,1.6,1.6,0,0,1,1-.27,1.55,1.55,0,0,1,.95.27,1.94,1.94,0,0,1,.59.71,2.88,2.88,0,0,1,.3.94,7.07,7.07,0,0,1,.08,1,7,7,0,0,1-.08,1,2.86,2.86,0,0,1-.3,1,1.94,1.94,0,0,1-.59.71,1.55,1.55,0,0,1-.95.27,1.6,1.6,0,0,1-1-.27,2,2,0,0,1-.59-.71,3.1,3.1,0,0,1-.29-1A7,7,0,0,1,251.82,192.92Zm.67,0c0,.14,0,.3,0,.47a4.43,4.43,0,0,0,.06.51,3.81,3.81,0,0,0,.12.51,1.83,1.83,0,0,0,.23.44,1,1,0,0,0,.34.31.9.9,0,0,0,.48.12,1,1,0,0,0,.48-.12,1.24,1.24,0,0,0,.34-.31,1.51,1.51,0,0,0,.22-.44,2.72,2.72,0,0,0,.13-.51,4.43,4.43,0,0,0,.06-.51c0-.17,0-.33,0-.47s0-.29,0-.46a4.88,4.88,0,0,0-.06-.52,2.83,2.83,0,0,0-.13-.5,1.4,1.4,0,0,0-.22-.44,1.1,1.1,0,0,0-.34-.31,1,1,0,0,0-.48-.12.9.9,0,0,0-.48.12.92.92,0,0,0-.34.31,1.66,1.66,0,0,0-.23.44,4.05,4.05,0,0,0-.12.5,4.88,4.88,0,0,0-.06.52C252.5,192.63,252.49,192.79,252.49,192.92Z"/><path d="M256.42,191.14a1.15,1.15,0,0,1,.33-.81,1.05,1.05,0,0,1,.37-.25,1.23,1.23,0,0,1,.44-.08,1.33,1.33,0,0,1,.45.08,1.15,1.15,0,0,1,.37.25,1.16,1.16,0,0,1,0,1.62,1.15,1.15,0,0,1-.37.25,1.33,1.33,0,0,1-.45.08,1.23,1.23,0,0,1-.44-.08,1.05,1.05,0,0,1-.37-.25,1.15,1.15,0,0,1-.33-.81Zm.43,0a.79.79,0,0,0,0,.25,1.14,1.14,0,0,0,.15.23.62.62,0,0,0,.22.17.72.72,0,0,0,.29.06.68.68,0,0,0,.52-.23.79.79,0,0,0,.14-.23.65.65,0,0,0,0-.5.79.79,0,0,0-.14-.23.68.68,0,0,0-.52-.23.72.72,0,0,0-.29.06.62.62,0,0,0-.22.17,1.14,1.14,0,0,0-.15.23A.79.79,0,0,0,256.85,191.14Z"/><path d="M250,81.22h-.67v-4.8h0l-1,.86-.4-.49,1.52-1.23H250Z"/><path d="M251.92,80.45l2.13-2.08c.13-.12.25-.24.35-.35a2.16,2.16,0,0,0,.25-.32,1.09,1.09,0,0,0,.15-.33,1.38,1.38,0,0,0,0-.37,1,1,0,0,0-.08-.4.84.84,0,0,0-.22-.3.78.78,0,0,0-.33-.19,1.05,1.05,0,0,0-.4-.07,1,1,0,0,0-.71.25,1.08,1.08,0,0,0-.36.65l-.73-.06a1.83,1.83,0,0,1,.21-.61,1.41,1.41,0,0,1,.39-.45,2,2,0,0,1,.53-.27,2.25,2.25,0,0,1,.64-.09,2.41,2.41,0,0,1,.67.1,1.92,1.92,0,0,1,.55.29,1.44,1.44,0,0,1,.51,1.15,2,2,0,0,1-.09.61,2,2,0,0,1-.25.5,3.47,3.47,0,0,1-.35.43l-.41.4-1.75,1.64v0h2.89v.62h-3.64Z"/><path d="M256.27,78.39a5.85,5.85,0,0,1,.08-1,3.19,3.19,0,0,1,.29-1,2,2,0,0,1,.59-.7,1.54,1.54,0,0,1,1-.28,1.51,1.51,0,0,1,.95.28,1.91,1.91,0,0,1,.59.7,3.2,3.2,0,0,1,.3,1,6.29,6.29,0,0,1,0,2,3.2,3.2,0,0,1-.3,1,1.91,1.91,0,0,1-.59.7,1.51,1.51,0,0,1-.95.28,1.54,1.54,0,0,1-1-.28,2,2,0,0,1-.59-.7,3.19,3.19,0,0,1-.29-1A5.85,5.85,0,0,1,256.27,78.39Zm.67,0a3.78,3.78,0,0,0,0,.46c0,.17,0,.35.05.52a4.77,4.77,0,0,0,.13.51,1.67,1.67,0,0,0,.23.44,1,1,0,0,0,.34.31,1,1,0,0,0,.48.11,1.06,1.06,0,0,0,.48-.11,1.24,1.24,0,0,0,.34-.31,2,2,0,0,0,.22-.44,3.18,3.18,0,0,0,.13-.51,4.6,4.6,0,0,0,.06-.52c0-.17,0-.32,0-.46s0-.29,0-.46a4.35,4.35,0,0,0-.06-.52,3.18,3.18,0,0,0-.13-.51,2,2,0,0,0-.22-.44,1.24,1.24,0,0,0-.34-.31,1.06,1.06,0,0,0-.48-.11,1,1,0,0,0-.48.11,1,1,0,0,0-.34.31,1.67,1.67,0,0,0-.23.44,4.77,4.77,0,0,0-.13.51c0,.17,0,.34-.05.52A3.78,3.78,0,0,0,256.94,78.39Z"/><path d="M260.87,76.61a1.13,1.13,0,0,1,.09-.45,1,1,0,0,1,.24-.37,1.16,1.16,0,0,1,1.62,0,1.15,1.15,0,0,1,.25.37,1.13,1.13,0,0,1,.09.45,1,1,0,0,1-.09.44,1.15,1.15,0,0,1-.25.37,1.16,1.16,0,0,1-1.62,0,1,1,0,0,1-.24-.37A1,1,0,0,1,260.87,76.61Zm.43,0a.69.69,0,0,0,.05.24.75.75,0,0,0,.15.24.6.6,0,0,0,.22.16.64.64,0,0,0,.58,0,.63.63,0,0,0,.23-.16.72.72,0,0,0,.14-.24.52.52,0,0,0,.05-.24.56.56,0,0,0-.05-.25.59.59,0,0,0-.14-.23.66.66,0,0,0-.23-.17.64.64,0,0,0-.58,0,.62.62,0,0,0-.22.17.61.61,0,0,0-.15.23A.74.74,0,0,0,261.3,76.61Z"/><path d="M40.39,192.45v0a1.42,1.42,0,0,1,.38-.13,1.84,1.84,0,0,1,.39,0,1.72,1.72,0,0,1,.68.13,1.42,1.42,0,0,1,.54.36,1.85,1.85,0,0,1,.36.57,2,2,0,0,1,.13.72,1.78,1.78,0,0,1-.15.74,1.6,1.6,0,0,1-.4.56,2,2,0,0,1-.6.35,2.4,2.4,0,0,1-1.5,0,2,2,0,0,1-.6-.35,1.6,1.6,0,0,1-.4-.56,1.78,1.78,0,0,1-.15-.74,2.24,2.24,0,0,1,.16-.86,5.19,5.19,0,0,1,.38-.74l1.5-2.39h.79Zm.59.43a1.23,1.23,0,0,0-.87.32,1.16,1.16,0,0,0-.26.38,1.31,1.31,0,0,0-.09.5,1.35,1.35,0,0,0,.09.5,1.23,1.23,0,0,0,.26.37,1,1,0,0,0,.39.24,1.32,1.32,0,0,0,1,0,1,1,0,0,0,.39-.24,1.23,1.23,0,0,0,.26-.37,1.35,1.35,0,0,0,.1-.5,1.31,1.31,0,0,0-.1-.5,1.16,1.16,0,0,0-.26-.38,1.23,1.23,0,0,0-.87-.32Z"/><path d="M43.46,192.92a7.07,7.07,0,0,1,.08-1,2.88,2.88,0,0,1,.3-.94,1.94,1.94,0,0,1,.59-.71,1.55,1.55,0,0,1,1-.27,1.6,1.6,0,0,1,1,.27,2,2,0,0,1,.59.71,3.13,3.13,0,0,1,.29.94,7.07,7.07,0,0,1,.08,1,7,7,0,0,1-.08,1,3.1,3.1,0,0,1-.29,1,2,2,0,0,1-.59.71,1.6,1.6,0,0,1-1,.27,1.55,1.55,0,0,1-1-.27,1.94,1.94,0,0,1-.59-.71,2.86,2.86,0,0,1-.3-1A7,7,0,0,1,43.46,192.92Zm.67,0c0,.14,0,.3,0,.47a4.43,4.43,0,0,0,.06.51,2.72,2.72,0,0,0,.13.51,1.51,1.51,0,0,0,.22.44,1.12,1.12,0,0,0,.34.31,1,1,0,0,0,1,0,1.12,1.12,0,0,0,.34-.31,1.83,1.83,0,0,0,.23-.44,3.81,3.81,0,0,0,.12-.51,4.43,4.43,0,0,0,.06-.51c0-.17,0-.33,0-.47s0-.29,0-.46a4.88,4.88,0,0,0-.06-.52,4.05,4.05,0,0,0-.12-.5,1.66,1.66,0,0,0-.23-.44,1,1,0,0,0-.34-.31,1,1,0,0,0-1,0,1,1,0,0,0-.34.31,1.4,1.4,0,0,0-.22.44,2.83,2.83,0,0,0-.13.5,4.88,4.88,0,0,0-.06.52C44.14,192.63,44.13,192.79,44.13,192.92Z"/><path d="M48.06,191.14a1.15,1.15,0,0,1,.33-.81,1.15,1.15,0,0,1,.37-.25,1.33,1.33,0,0,1,.45-.08,1.27,1.27,0,0,1,.44.08,1.15,1.15,0,0,1,.37.25A1.16,1.16,0,0,1,50,192a1.15,1.15,0,0,1-.37.25,1.27,1.27,0,0,1-.44.08,1.33,1.33,0,0,1-.45-.08,1.15,1.15,0,0,1-.37-.25,1.15,1.15,0,0,1-.33-.81Zm.43,0a.61.61,0,0,0,.06.25.79.79,0,0,0,.14.23.72.72,0,0,0,.22.17.73.73,0,0,0,.3.06.72.72,0,0,0,.29-.06.62.62,0,0,0,.22-.17,1.14,1.14,0,0,0,.15-.23.65.65,0,0,0,0-.5,1.14,1.14,0,0,0-.15-.23.62.62,0,0,0-.22-.17.72.72,0,0,0-.29-.06.73.73,0,0,0-.3.06.72.72,0,0,0-.22.17.79.79,0,0,0-.14.23A.61.61,0,0,0,48.49,191.14Z"/><path d="M39.15,81.22h-.67v-4.8h0l-1,.86-.4-.49,1.52-1.23h.58Z"/><path d="M41.07,80.45l2.14-2.08c.13-.12.25-.24.35-.35a2.16,2.16,0,0,0,.25-.32,1.09,1.09,0,0,0,.15-.33A1.38,1.38,0,0,0,44,77a1,1,0,0,0-.08-.4.84.84,0,0,0-.22-.3.78.78,0,0,0-.33-.19A1.05,1.05,0,0,0,43,76a1,1,0,0,0-.72.25,1.19,1.19,0,0,0-.36.65l-.72-.06a1.47,1.47,0,0,1,.21-.61,1.41,1.41,0,0,1,.39-.45,2,2,0,0,1,.53-.27,2.2,2.2,0,0,1,.64-.09,2.41,2.41,0,0,1,.67.1,2.06,2.06,0,0,1,.55.29,1.47,1.47,0,0,1,.37.48,1.6,1.6,0,0,1,.14.67,2,2,0,0,1-.09.61,2.34,2.34,0,0,1-.25.5,3.47,3.47,0,0,1-.35.43l-.41.4-1.75,1.64v0h2.89v.62H41.07Z"/><path d="M45.43,78.39a7,7,0,0,1,.07-1,3.52,3.52,0,0,1,.3-1,2,2,0,0,1,.59-.7,1.77,1.77,0,0,1,1.91,0,1.91,1.91,0,0,1,.59.7,3.52,3.52,0,0,1,.3,1,6.29,6.29,0,0,1,0,2,3.52,3.52,0,0,1-.3,1,1.91,1.91,0,0,1-.59.7,1.77,1.77,0,0,1-1.91,0,2,2,0,0,1-.59-.7,3.52,3.52,0,0,1-.3-1A7,7,0,0,1,45.43,78.39Zm.67,0c0,.14,0,.29,0,.46a4.6,4.6,0,0,0,.06.52,4.77,4.77,0,0,0,.13.51,2,2,0,0,0,.22.44,1.15,1.15,0,0,0,.35.31,1,1,0,0,0,.48.11,1.06,1.06,0,0,0,.48-.11,1.24,1.24,0,0,0,.34-.31,2,2,0,0,0,.22-.44,3.18,3.18,0,0,0,.13-.51,4.6,4.6,0,0,0,.06-.52c0-.17,0-.32,0-.46s0-.29,0-.46a4.35,4.35,0,0,0-.06-.52,3.18,3.18,0,0,0-.13-.51,2,2,0,0,0-.22-.44,1.24,1.24,0,0,0-.34-.31,1.06,1.06,0,0,0-.48-.11,1,1,0,0,0-.48.11,1.15,1.15,0,0,0-.35.31,2,2,0,0,0-.22.44,4.77,4.77,0,0,0-.13.51,4.35,4.35,0,0,0-.06.52C46.1,78.1,46.1,78.25,46.1,78.39Z"/><path d="M50,76.61a1.12,1.12,0,0,1,.08-.45,1.15,1.15,0,0,1,.25-.37,1.16,1.16,0,0,1,1.62,0,1.15,1.15,0,0,1,.25.37,1.33,1.33,0,0,1,.08.45,1.23,1.23,0,0,1-.08.44,1.15,1.15,0,0,1-.25.37,1.16,1.16,0,0,1-1.62,0,1.15,1.15,0,0,1-.25-.37A1,1,0,0,1,50,76.61Zm.43,0a.52.52,0,0,0,0,.24.72.72,0,0,0,.14.24.63.63,0,0,0,.23.16.64.64,0,0,0,.58,0,.73.73,0,0,0,.23-.16,1,1,0,0,0,.14-.24.69.69,0,0,0,.05-.24.75.75,0,0,0-.19-.48.76.76,0,0,0-.23-.17.64.64,0,0,0-.58,0,.66.66,0,0,0-.23.17.59.59,0,0,0-.14.23A.56.56,0,0,0,50.46,76.61Z"/></g><g id="numeri_fondo_tabella" data-name="numeri fondo tabella"><path d="M131.83,251.42a1.17,1.17,0,0,0-.43-.35,1.19,1.19,0,0,0-.51-.11,1.35,1.35,0,0,0-.55.11,1.08,1.08,0,0,0-.4.3,1.32,1.32,0,0,0-.23.44,1.76,1.76,0,0,0,0,1.08,1.43,1.43,0,0,0,.26.45,1.31,1.31,0,0,0,.39.3,1.27,1.27,0,0,0,.52.1,1.09,1.09,0,0,0,1-.46l.47.44a1.69,1.69,0,0,1-.64.46,2.29,2.29,0,0,1-.78.14,2.22,2.22,0,0,1-.79-.14,1.75,1.75,0,0,1-1-1,2.27,2.27,0,0,1,0-1.57,1.86,1.86,0,0,1,.39-.63,2,2,0,0,1,.61-.41,2,2,0,0,1,.79-.15,2.09,2.09,0,0,1,.79.15,1.59,1.59,0,0,1,.65.45Z"/><path d="M136.21,253.56h0a1.43,1.43,0,0,1-.55.54,1.7,1.7,0,0,1-.89.22,1.8,1.8,0,0,1-.73-.15,1.78,1.78,0,0,1-.6-.41,1.81,1.81,0,0,1-.39-.62,2.06,2.06,0,0,1-.15-.79,2,2,0,0,1,.15-.78,1.88,1.88,0,0,1,.4-.63,1.81,1.81,0,0,1,.62-.41,2.07,2.07,0,0,1,.8-.15,1.72,1.72,0,0,1,.75.17,1.78,1.78,0,0,1,.59.47h0v-2.84h.62v6h-.62Zm0-1.21a1.63,1.63,0,0,0-.09-.55,1.34,1.34,0,0,0-.27-.44,1.37,1.37,0,0,0-.42-.29,1.35,1.35,0,0,0-.55-.11,1.42,1.42,0,0,0-.55.11,1.22,1.22,0,0,0-.41.29,1.34,1.34,0,0,0-.27.44,1.56,1.56,0,0,0,0,1.1,1.25,1.25,0,0,0,.27.44,1.19,1.19,0,0,0,1,.4,1.35,1.35,0,0,0,.55-.1,1.6,1.6,0,0,0,.42-.3,1.25,1.25,0,0,0,.27-.44A1.63,1.63,0,0,0,136.21,252.35Z"/><path d="M140.1,254.57l-.5-.2,2.4-6.15.51.2Z"/><path d="M147.64,254.22H147v-4.8h0l-1,.86-.4-.49,1.52-1.23h.59Z"/><path d="M149.46,251.39a7.07,7.07,0,0,1,.08-1,3.19,3.19,0,0,1,.29-.95,2,2,0,0,1,.59-.7,1.61,1.61,0,0,1,1-.28,1.55,1.55,0,0,1,1,.28,1.91,1.91,0,0,1,.59.7,2.94,2.94,0,0,1,.3.95,6.29,6.29,0,0,1,0,2,2.94,2.94,0,0,1-.3,1,1.91,1.91,0,0,1-.59.7,1.49,1.49,0,0,1-1,.28,1.54,1.54,0,0,1-1-.28,2,2,0,0,1-.59-.7,3.19,3.19,0,0,1-.29-1A7.07,7.07,0,0,1,149.46,251.39Zm.67,0c0,.14,0,.29,0,.47a4.43,4.43,0,0,0,.06.51,4.7,4.7,0,0,0,.12.51,2,2,0,0,0,.23.44,1.12,1.12,0,0,0,.34.31,1.1,1.1,0,0,0,1,0,1.12,1.12,0,0,0,.34-.31,1.65,1.65,0,0,0,.22-.44,3.18,3.18,0,0,0,.13-.51,4.43,4.43,0,0,0,.06-.51c0-.18,0-.33,0-.47s0-.29,0-.46a4.6,4.6,0,0,0-.06-.52,3.18,3.18,0,0,0-.13-.51,1.65,1.65,0,0,0-.22-.44,1.08,1.08,0,0,0-.34-.3,1,1,0,0,0-1,0,1.08,1.08,0,0,0-.34.3,2,2,0,0,0-.23.44,4.7,4.7,0,0,0-.12.51,4.6,4.6,0,0,0-.06.52C150.14,251.1,150.13,251.25,150.13,251.39Z"/><path d="M153.91,251.39a5.85,5.85,0,0,1,.08-1,3.19,3.19,0,0,1,.29-.95,2,2,0,0,1,.59-.7,1.61,1.61,0,0,1,1-.28,1.55,1.55,0,0,1,.95.28,1.91,1.91,0,0,1,.59.7,3.2,3.2,0,0,1,.3.95,6.29,6.29,0,0,1,0,2,3.2,3.2,0,0,1-.3,1,1.91,1.91,0,0,1-.59.7,1.49,1.49,0,0,1-.95.28,1.54,1.54,0,0,1-1-.28,2,2,0,0,1-.59-.7,3.19,3.19,0,0,1-.29-1A5.85,5.85,0,0,1,153.91,251.39Zm.67,0a4,4,0,0,0,0,.47,4.43,4.43,0,0,0,.06.51,3.14,3.14,0,0,0,.12.51,1.67,1.67,0,0,0,.23.44,1,1,0,0,0,.34.31.9.9,0,0,0,.48.11,1,1,0,0,0,.48-.11,1.24,1.24,0,0,0,.34-.31,1.65,1.65,0,0,0,.22-.44,3.18,3.18,0,0,0,.13-.51,4.43,4.43,0,0,0,.06-.51c0-.18,0-.33,0-.47s0-.29,0-.46a4.6,4.6,0,0,0-.06-.52,3.18,3.18,0,0,0-.13-.51,1.65,1.65,0,0,0-.22-.44,1.21,1.21,0,0,0-.34-.3,1,1,0,0,0-.48-.12.9.9,0,0,0-.48.12,1,1,0,0,0-.34.3,1.67,1.67,0,0,0-.23.44,3.14,3.14,0,0,0-.12.51,4.6,4.6,0,0,0-.06.52A3.78,3.78,0,0,0,154.58,251.39Z"/><path d="M158.31,251.39a5.85,5.85,0,0,1,.08-1,3.19,3.19,0,0,1,.29-.95,2,2,0,0,1,.59-.7,1.61,1.61,0,0,1,1-.28,1.55,1.55,0,0,1,1,.28,1.91,1.91,0,0,1,.59.7,3.2,3.2,0,0,1,.3.95,6.29,6.29,0,0,1,0,2,3.2,3.2,0,0,1-.3,1,1.91,1.91,0,0,1-.59.7,1.49,1.49,0,0,1-1,.28,1.54,1.54,0,0,1-1-.28,2,2,0,0,1-.59-.7,3.19,3.19,0,0,1-.29-1A5.85,5.85,0,0,1,158.31,251.39Zm.67,0c0,.14,0,.29,0,.47a4.43,4.43,0,0,0,.06.51,3.14,3.14,0,0,0,.12.51,1.67,1.67,0,0,0,.23.44,1,1,0,0,0,.34.31.9.9,0,0,0,.48.11,1,1,0,0,0,.48-.11,1.24,1.24,0,0,0,.34-.31,1.65,1.65,0,0,0,.22-.44,3.18,3.18,0,0,0,.13-.51,4.43,4.43,0,0,0,.06-.51c0-.18,0-.33,0-.47s0-.29,0-.46a4.6,4.6,0,0,0-.06-.52,3.18,3.18,0,0,0-.13-.51,1.65,1.65,0,0,0-.22-.44,1.21,1.21,0,0,0-.34-.3,1,1,0,0,0-.48-.12.9.9,0,0,0-.48.12,1,1,0,0,0-.34.3,1.67,1.67,0,0,0-.23.44,3.14,3.14,0,0,0-.12.51,4.6,4.6,0,0,0-.06.52C159,251.1,159,251.25,159,251.39Z"/><path d="M165.32,248.18H166v6h-.63Z"/><path d="M167.19,251.37c0-.17,0-.33,0-.48s0-.29,0-.41h.59c0,.1,0,.2,0,.3v.32h0a.91.91,0,0,1,.18-.27,1.64,1.64,0,0,1,.28-.23,1.5,1.5,0,0,1,.36-.16,1.44,1.44,0,0,1,.43-.06,1.52,1.52,0,0,1,.51.08,1.36,1.36,0,0,1,.34.18.93.93,0,0,1,.21.24,1.64,1.64,0,0,1,.12.22,1.78,1.78,0,0,1,.48-.53,1.27,1.27,0,0,1,.71-.19,1.88,1.88,0,0,1,.67.11,1.1,1.1,0,0,1,.44.31,1.37,1.37,0,0,1,.24.5,2.59,2.59,0,0,1,.07.65v2.27h-.62V252a2.33,2.33,0,0,0,0-.37,1,1,0,0,0-.15-.33.71.71,0,0,0-.28-.23,1,1,0,0,0-.45-.09,1,1,0,0,0-.37.08,1,1,0,0,0-.31.22,1.13,1.13,0,0,0-.21.35,1.33,1.33,0,0,0-.07.45v2.16h-.63V252.1a1.62,1.62,0,0,0-.17-.88A.6.6,0,0,0,169,251a1.18,1.18,0,0,0-.52.1.88.88,0,0,0-.36.3,1.14,1.14,0,0,0-.21.46,2.1,2.1,0,0,0-.07.58v1.82h-.62Z"/><line class="cls-1" x1="38.21" y1="253" x2="46.2" y2="253"/><path d="M235.17,251a1.66,1.66,0,0,0-.63-.52,1.93,1.93,0,0,0-.79-.17,2.13,2.13,0,0,0-.87.19,2.16,2.16,0,0,0-.68.52,2.58,2.58,0,0,0-.45.75,2.69,2.69,0,0,0-.16.89,2.79,2.79,0,0,0,.16.93,2.41,2.41,0,0,0,.45.74,2,2,0,0,0,.68.5,1.92,1.92,0,0,0,.87.19,2,2,0,0,0,1.64-.8l.51.43a2.38,2.38,0,0,1-.93.75,3,3,0,0,1-1.22.24,2.85,2.85,0,0,1-1.13-.22,2.82,2.82,0,0,1-.92-.62,3,3,0,0,1-.61-.94,3.33,3.33,0,0,1-.22-1.2,3.19,3.19,0,0,1,.21-1.16,2.9,2.9,0,0,1,.6-1,3.08,3.08,0,0,1,.91-.63,3,3,0,0,1,2.27,0,2,2,0,0,1,.89.68Z"/><path d="M239,253.1l0,0a1.35,1.35,0,0,1-.37.13,2.87,2.87,0,0,1-.39,0,1.68,1.68,0,0,1-.68-.13,1.5,1.5,0,0,1-.55-.36,1.92,1.92,0,0,1-.36-.56,2.11,2.11,0,0,1-.12-.73,1.75,1.75,0,0,1,.14-.74,1.63,1.63,0,0,1,.4-.56,1.79,1.79,0,0,1,.6-.35,2.36,2.36,0,0,1,.75-.12,2.27,2.27,0,0,1,.75.12,1.94,1.94,0,0,1,.61.35,1.49,1.49,0,0,1,.39.56,1.75,1.75,0,0,1,.15.74,2.19,2.19,0,0,1,0,.46c0,.14-.07.27-.11.4a2.53,2.53,0,0,1-.18.37,3.35,3.35,0,0,1-.21.36l-1.5,2.4h-.79Zm-.6-.43a1.51,1.51,0,0,0,.48-.08,1.28,1.28,0,0,0,.39-.24,1.12,1.12,0,0,0,.26-.38,1.27,1.27,0,0,0,.1-.5,1.26,1.26,0,0,0-.1-.49,1,1,0,0,0-.26-.38,1,1,0,0,0-.39-.24,1.33,1.33,0,0,0-1,0,.88.88,0,0,0-.38.24,1.19,1.19,0,0,0-.27.38,1.26,1.26,0,0,0-.09.49,1.28,1.28,0,0,0,.09.5,1.31,1.31,0,0,0,.27.38,1.12,1.12,0,0,0,.38.24A1.51,1.51,0,0,0,238.35,252.67Z"/><path d="M240.88,252.62a7.07,7.07,0,0,1,.08-1,2.88,2.88,0,0,1,.3-.94,2,2,0,0,1,.58-.71,1.84,1.84,0,0,1,1.92,0,2,2,0,0,1,.58.71,2.88,2.88,0,0,1,.3.94,7.07,7.07,0,0,1,.08,1,7,7,0,0,1-.08,1,2.86,2.86,0,0,1-.3.95,2,2,0,0,1-.58.71,1.84,1.84,0,0,1-1.92,0,2,2,0,0,1-.58-.71,2.86,2.86,0,0,1-.3-.95A7,7,0,0,1,240.88,252.62Zm.67,0c0,.14,0,.3,0,.47a4.43,4.43,0,0,0,.06.51,2.72,2.72,0,0,0,.13.51,1.51,1.51,0,0,0,.22.44,1.12,1.12,0,0,0,.34.31,1,1,0,0,0,1,0,1.12,1.12,0,0,0,.34-.31,1.51,1.51,0,0,0,.22-.44,2.72,2.72,0,0,0,.13-.51,4.43,4.43,0,0,0,.06-.51c0-.17,0-.33,0-.47s0-.29,0-.46a4.88,4.88,0,0,0-.06-.52,2.83,2.83,0,0,0-.13-.5,1.4,1.4,0,0,0-.22-.44,1.12,1.12,0,0,0-.34-.31,1,1,0,0,0-1,0,1.12,1.12,0,0,0-.34.31,1.4,1.4,0,0,0-.22.44,2.83,2.83,0,0,0-.13.5,4.88,4.88,0,0,0-.06.52C241.56,252.33,241.55,252.49,241.55,252.62Z"/><path d="M247.78,255.8l-.51-.2,2.41-6.14.5.19Z"/><path d="M257.1,251a1.66,1.66,0,0,0-.63-.52,1.92,1.92,0,0,0-.78-.17,2.06,2.06,0,0,0-.87.19,2.16,2.16,0,0,0-.68.52,2.21,2.21,0,0,0-.45.75,2.46,2.46,0,0,0-.16.89,2.56,2.56,0,0,0,.16.93,2.2,2.2,0,0,0,.44.74,2.1,2.1,0,0,0,.68.5,2,2,0,0,0,.88.19,2,2,0,0,0,.93-.21,2,2,0,0,0,.71-.59l.5.43a2.29,2.29,0,0,1-.92.75,3,3,0,0,1-1.22.24,2.8,2.8,0,0,1-2.05-.84,2.82,2.82,0,0,1-.61-.94,3.13,3.13,0,0,1-.22-1.2,3.19,3.19,0,0,1,.21-1.16,2.75,2.75,0,0,1,.6-1,3,3,0,0,1,.91-.63,2.93,2.93,0,0,1,1.16-.23,3,3,0,0,1,1.11.21,2,2,0,0,1,.89.68Z"/><path d="M258.46,254.69l2.14-2.08.35-.36a1.75,1.75,0,0,0,.25-.32,1,1,0,0,0,.15-.32,1.46,1.46,0,0,0,0-.38,1,1,0,0,0-.08-.4.93.93,0,0,0-.22-.3,1.13,1.13,0,0,0-.73-.26,1,1,0,0,0-.71.25,1.11,1.11,0,0,0-.36.66l-.73-.07a1.91,1.91,0,0,1,.21-.61,1.28,1.28,0,0,1,.39-.44,1.77,1.77,0,0,1,.53-.27,2.25,2.25,0,0,1,.64-.09,2.09,2.09,0,0,1,.67.1,1.53,1.53,0,0,1,.55.29,1.47,1.47,0,0,1,.37.48,1.39,1.39,0,0,1,.14.66,1.91,1.91,0,0,1-.09.61,1.8,1.8,0,0,1-.25.5,2.86,2.86,0,0,1-.35.43l-.41.41-1.75,1.64h2.89v.63h-3.65Z"/><path d="M266.35,250.42l-2.26,5h-.76l2.3-5H262.9v-.63h3.45Z"/><path d="M267.26,252.62a7.07,7.07,0,0,1,.08-1,3.45,3.45,0,0,1,.3-.94,2,2,0,0,1,.59-.71,1.82,1.82,0,0,1,1.91,0,2,2,0,0,1,.59.71,3.45,3.45,0,0,1,.3.94,7,7,0,0,1,.07,1,6.92,6.92,0,0,1-.07,1,3.41,3.41,0,0,1-.3.95,2,2,0,0,1-.59.71,1.82,1.82,0,0,1-1.91,0,2,2,0,0,1-.59-.71,3.41,3.41,0,0,1-.3-.95A7,7,0,0,1,267.26,252.62Zm.68,0c0,.14,0,.3,0,.47a4.43,4.43,0,0,0,.06.51,2.72,2.72,0,0,0,.13.51,1.53,1.53,0,0,0,.23.44,1,1,0,0,0,.34.31.89.89,0,0,0,.47.12,1,1,0,0,0,.49-.12,1.08,1.08,0,0,0,.33-.31,1.53,1.53,0,0,0,.23-.44,2.72,2.72,0,0,0,.13-.51,4.43,4.43,0,0,0,.06-.51c0-.17,0-.33,0-.47s0-.29,0-.46a4.88,4.88,0,0,0-.06-.52,2.83,2.83,0,0,0-.13-.5,1.41,1.41,0,0,0-.23-.44,1.08,1.08,0,0,0-.33-.31,1,1,0,0,0-.49-.12.89.89,0,0,0-.47.12,1,1,0,0,0-.34.31,1.41,1.41,0,0,0-.23.44,2.83,2.83,0,0,0-.13.5,4.88,4.88,0,0,0-.06.52C267.94,252.33,267.94,252.49,267.94,252.62Z"/><path d="M52.87,251a1.55,1.55,0,0,0-.63-.51,1.82,1.82,0,0,0-.79-.18,2,2,0,0,0-.87.2,2.13,2.13,0,0,0-.68.51,2.58,2.58,0,0,0-.45.75,2.67,2.67,0,0,0,0,1.82,2.29,2.29,0,0,0,.45.74,1.88,1.88,0,0,0,.68.5,1.92,1.92,0,0,0,.87.19,2,2,0,0,0,.93-.21,2.07,2.07,0,0,0,.71-.58l.51.42a2.38,2.38,0,0,1-.93.75,3,3,0,0,1-1.22.24,2.85,2.85,0,0,1-1.13-.22,2.82,2.82,0,0,1-.92-.62,3,3,0,0,1-.61-.94,3.27,3.27,0,0,1-.22-1.19,3.2,3.2,0,0,1,.21-1.17,3,3,0,0,1,.6-.95,3.08,3.08,0,0,1,.91-.63,3,3,0,0,1,2.27,0,2,2,0,0,1,.89.68Z"/><path d="M54.13,252.62a7,7,0,0,1,.08-1,3.11,3.11,0,0,1,.3-1,1.94,1.94,0,0,1,.59-.71,1.55,1.55,0,0,1,.95-.27,1.6,1.6,0,0,1,1,.27,2,2,0,0,1,.59.71,3.1,3.1,0,0,1,.29,1,5.77,5.77,0,0,1,.08,1,5.85,5.85,0,0,1-.08,1,3.13,3.13,0,0,1-.29.94,2,2,0,0,1-.59.71,1.6,1.6,0,0,1-1,.27,1.55,1.55,0,0,1-.95-.27,1.94,1.94,0,0,1-.59-.71,3.14,3.14,0,0,1-.3-.94A7.07,7.07,0,0,1,54.13,252.62Zm.67,0c0,.13,0,.29,0,.46a4.88,4.88,0,0,0,.06.52,2.83,2.83,0,0,0,.13.5,1.4,1.4,0,0,0,.22.44,1.1,1.1,0,0,0,.34.31,1,1,0,0,0,.48.12.9.9,0,0,0,.48-.12.92.92,0,0,0,.34-.31,1.41,1.41,0,0,0,.23-.44,2.8,2.8,0,0,0,.12-.5,4.88,4.88,0,0,0,.06-.52,3.86,3.86,0,0,0,0-.46,3.94,3.94,0,0,0,0-.47,4.43,4.43,0,0,0-.06-.51,2.71,2.71,0,0,0-.12-.51,1.53,1.53,0,0,0-.23-.44,1,1,0,0,0-.34-.31.9.9,0,0,0-.48-.12,1,1,0,0,0-.48.12,1.24,1.24,0,0,0-.34.31,1.51,1.51,0,0,0-.22.44,2.72,2.72,0,0,0-.13.51,4.43,4.43,0,0,0-.06.51C54.81,252.32,54.8,252.48,54.8,252.62Z"/><path d="M61,255.79l-.51-.2,2.41-6.14.51.19Z"/><path d="M70.36,251a1.52,1.52,0,0,0-.64-.51,1.78,1.78,0,0,0-.78-.18,2,2,0,0,0-.87.2,2.13,2.13,0,0,0-.68.51,2.58,2.58,0,0,0-.45.75,2.51,2.51,0,0,0-.16.9,2.54,2.54,0,0,0,.16.92,2.46,2.46,0,0,0,.44.74,2.09,2.09,0,0,0,1.56.69,2,2,0,0,0,.93-.21,2.07,2.07,0,0,0,.71-.58l.5.42a2.29,2.29,0,0,1-.92.75,3,3,0,0,1-1.22.24,2.93,2.93,0,0,1-1.14-.22,2.88,2.88,0,0,1-.91-.62,3,3,0,0,1-.61-.94,3.07,3.07,0,0,1-.22-1.19,3.2,3.2,0,0,1,.21-1.17,2.84,2.84,0,0,1,.6-.95,3,3,0,0,1,.91-.63,2.93,2.93,0,0,1,1.16-.23,3,3,0,0,1,1.11.21,2,2,0,0,1,.89.68Z"/><path d="M74.2,255.45h-.68v-4.8h0l-1,.85-.4-.48,1.52-1.24h.59Z"/><path d="M76.37,251.17a1.33,1.33,0,0,1,.13-.61,1.2,1.2,0,0,1,.34-.46,1.44,1.44,0,0,1,.51-.3,1.92,1.92,0,0,1,1.28,0,1.44,1.44,0,0,1,.51.3,1.32,1.32,0,0,1,.34.46,1.48,1.48,0,0,1,.12.61,1.44,1.44,0,0,1-.06.4,1.41,1.41,0,0,1-.18.37,1.18,1.18,0,0,1-.3.29,1,1,0,0,1-.38.19h0a1.44,1.44,0,0,1,.46.19,1.35,1.35,0,0,1,.35.32,1.67,1.67,0,0,1,.23.44,1.7,1.7,0,0,1,.08.51,1.74,1.74,0,0,1-.14.69,1.46,1.46,0,0,1-.39.52,1.47,1.47,0,0,1-.57.33,2.35,2.35,0,0,1-1.42,0,1.59,1.59,0,0,1-.58-.33,1.43,1.43,0,0,1-.38-.52,1.74,1.74,0,0,1-.14-.69,1.7,1.7,0,0,1,.08-.51,1.65,1.65,0,0,1,.22-.44,1.59,1.59,0,0,1,.36-.32,1.44,1.44,0,0,1,.46-.19h0a1.18,1.18,0,0,1-.39-.19,1.33,1.33,0,0,1-.29-.29,1.41,1.41,0,0,1-.18-.37A1.16,1.16,0,0,1,76.37,251.17Zm.48,2.67a1.14,1.14,0,0,0,.09.46,1.21,1.21,0,0,0,.24.35,1.16,1.16,0,0,0,.36.23A1.13,1.13,0,0,0,78,255a1,1,0,0,0,.44-.09,1,1,0,0,0,.36-.23,1.07,1.07,0,0,0,.25-.35,1.36,1.36,0,0,0,0-.92,1.07,1.07,0,0,0-.25-.35,1,1,0,0,0-.36-.23,1,1,0,0,0-.44-.09,1.13,1.13,0,0,0-.45.09,1.16,1.16,0,0,0-.36.23,1.21,1.21,0,0,0-.24.35A1.14,1.14,0,0,0,76.85,253.84ZM77,251.2a.92.92,0,0,0,.26.67.93.93,0,0,0,.69.27.9.9,0,0,0,.68-.27,1,1,0,0,0,0-1.34.9.9,0,0,0-.68-.27.93.93,0,0,0-.69.27A.92.92,0,0,0,77,251.2Z"/><path d="M80.52,252.62a5.77,5.77,0,0,1,.08-1,3.1,3.1,0,0,1,.29-1,2,2,0,0,1,.59-.71,1.6,1.6,0,0,1,1-.27,1.55,1.55,0,0,1,1,.27,1.94,1.94,0,0,1,.59.71,3.41,3.41,0,0,1,.3,1,7,7,0,0,1,.08,1,7.07,7.07,0,0,1-.08,1,3.45,3.45,0,0,1-.3.94,1.94,1.94,0,0,1-.59.71,1.55,1.55,0,0,1-1,.27,1.6,1.6,0,0,1-1-.27,2,2,0,0,1-.59-.71,3.13,3.13,0,0,1-.29-.94A5.85,5.85,0,0,1,80.52,252.62Zm.67,0a3.86,3.86,0,0,0,0,.46c0,.17,0,.34.05.52a4.07,4.07,0,0,0,.13.5,1.41,1.41,0,0,0,.23.44.92.92,0,0,0,.34.31.9.9,0,0,0,.48.12,1,1,0,0,0,.48-.12,1.1,1.1,0,0,0,.34-.31,1.65,1.65,0,0,0,.22-.44,2.83,2.83,0,0,0,.13-.5,4.88,4.88,0,0,0,.06-.52c0-.17,0-.33,0-.46s0-.3,0-.47a4.43,4.43,0,0,0-.06-.51,2.72,2.72,0,0,0-.13-.51,1.81,1.81,0,0,0-.22-.44,1.24,1.24,0,0,0-.34-.31,1,1,0,0,0-.48-.12.9.9,0,0,0-.48.12,1,1,0,0,0-.34.31,1.53,1.53,0,0,0-.23.44,3.8,3.8,0,0,0-.13.51c0,.17,0,.34-.05.51A3.94,3.94,0,0,0,81.19,252.62Z"/><line class="cls-2" x1="214.49" y1="253.42" x2="215.03" y2="253.42"/><line class="cls-2" x1="217.76" y1="253.42" x2="218.3" y2="253.42"/><line class="cls-2" x1="221.02" y1="253.42" x2="221.56" y2="253.42"/><line class="cls-2" x1="224.29" y1="253.42" x2="224.83" y2="253.42"/><line class="cls-2" x1="227.55" y1="253.42" x2="228.09" y2="253.42"/></g><g id="Fantasma_F2201009"><rect class="cls-3" x="54.75" y="41.89" width="189.86" height="189.86"/><circle class="cls-4" cx="149.69" cy="136.77" r="15.77" transform="translate(-19.98 25.74) rotate(-9.22)"/><path d="M150.73,158.82l2.14-2.08.35-.36a1.75,1.75,0,0,0,.25-.32,1,1,0,0,0,.15-.32,1.46,1.46,0,0,0,0-.38,1,1,0,0,0-.08-.4.91.91,0,0,0-.55-.49,1.29,1.29,0,0,0-.4-.07,1,1,0,0,0-.71.25,1.13,1.13,0,0,0-.36.66l-.73-.07a1.91,1.91,0,0,1,.21-.61,1.28,1.28,0,0,1,.39-.44,1.77,1.77,0,0,1,.53-.27,2.2,2.2,0,0,1,.64-.09,2.09,2.09,0,0,1,.67.1,1.53,1.53,0,0,1,.55.29,1.47,1.47,0,0,1,.37.48,1.53,1.53,0,0,1,.14.66,1.91,1.91,0,0,1-.09.61,1.8,1.8,0,0,1-.25.5,2.86,2.86,0,0,1-.35.43l-.41.41L151.49,159h2.89v.63h-3.65Z"/><path d="M155,156.75a7.19,7.19,0,0,1,.08-1,3.13,3.13,0,0,1,.29-.94,2,2,0,0,1,.59-.71,1.6,1.6,0,0,1,1-.27,1.55,1.55,0,0,1,.95.27,1.94,1.94,0,0,1,.59.71,2.88,2.88,0,0,1,.3.94,7.19,7.19,0,0,1,.08,1,6.85,6.85,0,0,1-.08,1,2.86,2.86,0,0,1-.3.95,1.94,1.94,0,0,1-.59.71,1.55,1.55,0,0,1-.95.27,1.6,1.6,0,0,1-1-.27,2,2,0,0,1-.59-.71,3.1,3.1,0,0,1-.29-.95A6.85,6.85,0,0,1,155,156.75Zm.67,0c0,.14,0,.3,0,.47a4.88,4.88,0,0,0,.06.52,4.05,4.05,0,0,0,.12.5,1.53,1.53,0,0,0,.23.44,1,1,0,0,0,.34.31.9.9,0,0,0,.48.12,1,1,0,0,0,.48-.12,1.24,1.24,0,0,0,.34-.31,1.51,1.51,0,0,0,.22-.44,2.83,2.83,0,0,0,.13-.5,4.88,4.88,0,0,0,.06-.52c0-.17,0-.33,0-.47s0-.29,0-.46a4.43,4.43,0,0,0-.06-.51,2.72,2.72,0,0,0-.13-.51,1.51,1.51,0,0,0-.22-.44,1.24,1.24,0,0,0-.34-.31,1,1,0,0,0-.48-.12.9.9,0,0,0-.48.12,1,1,0,0,0-.34.31,1.53,1.53,0,0,0-.23.44,3.81,3.81,0,0,0-.12.51,4.43,4.43,0,0,0-.06.51C155.72,156.46,155.71,156.62,155.71,156.75Z"/><circle class="cls-4" cx="149.69" cy="136.77" r="31.59" transform="translate(-25.13 34.05) rotate(-11.98)"/><path d="M153.69,173.49h.81v.62h-.81v1.3H153v-1.3h-2.4v-.74l2.25-3.62h.83Zm-.68-3h0l-1.81,3H153Z"/><path d="M155,172.58a7,7,0,0,1,.08-1,3.19,3.19,0,0,1,.29-1,1.92,1.92,0,0,1,.59-.7,1.54,1.54,0,0,1,1-.28,1.49,1.49,0,0,1,.95.28,1.83,1.83,0,0,1,.59.7,2.94,2.94,0,0,1,.3,1,7,7,0,0,1,.08,1,7.07,7.07,0,0,1-.08,1,3,3,0,0,1-.3.95,1.91,1.91,0,0,1-.59.7,1.55,1.55,0,0,1-.95.28,1.61,1.61,0,0,1-1-.28,2,2,0,0,1-.59-.7,3.28,3.28,0,0,1-.29-.95A7.07,7.07,0,0,1,155,172.58Zm.67,0c0,.14,0,.29,0,.46a4.88,4.88,0,0,0,.06.52,4.7,4.7,0,0,0,.12.51,1.67,1.67,0,0,0,.23.44,1,1,0,0,0,.34.3.9.9,0,0,0,.48.12,1,1,0,0,0,.48-.12,1.21,1.21,0,0,0,.34-.3,1.65,1.65,0,0,0,.22-.44,3.18,3.18,0,0,0,.13-.51,4.88,4.88,0,0,0,.06-.52c0-.17,0-.32,0-.46s0-.3,0-.47a4.43,4.43,0,0,0-.06-.51,2.72,2.72,0,0,0-.13-.51,1.51,1.51,0,0,0-.22-.44,1.24,1.24,0,0,0-.34-.31,1,1,0,0,0-.48-.11.9.9,0,0,0-.48.11,1,1,0,0,0-.34.31,1.53,1.53,0,0,0-.23.44,3.81,3.81,0,0,0-.12.51,4.43,4.43,0,0,0-.06.51C155.72,172.28,155.71,172.44,155.71,172.58Z"/><circle class="cls-4" cx="149.69" cy="136.77" r="47.41"/><path d="M152,187.93h0a1.07,1.07,0,0,1,.37-.12,1.91,1.91,0,0,1,.39,0,2,2,0,0,1,.69.12,1.58,1.58,0,0,1,.54.37,1.69,1.69,0,0,1,.36.56,2.09,2.09,0,0,1,.12.72,1.79,1.79,0,0,1-.14.75,1.69,1.69,0,0,1-.4.55,1.79,1.79,0,0,1-.6.35,2.11,2.11,0,0,1-.75.13,2,2,0,0,1-.75-.13,1.79,1.79,0,0,1-.6-.35,1.56,1.56,0,0,1-.4-.55,1.79,1.79,0,0,1-.15-.75,2.22,2.22,0,0,1,.15-.85,5.28,5.28,0,0,1,.39-.74l1.5-2.39h.79Zm.59.42a1.28,1.28,0,0,0-.48.09,1,1,0,0,0-.39.24,1,1,0,0,0-.26.38,1.3,1.3,0,0,0-.1.49,1.27,1.27,0,0,0,.1.5,1.12,1.12,0,0,0,.26.38,1.28,1.28,0,0,0,.39.24,1.48,1.48,0,0,0,1,0,1.14,1.14,0,0,0,.74-1.12,1.3,1.3,0,0,0-.09-.49,1.16,1.16,0,0,0-.26-.38,1,1,0,0,0-.39-.24A1.28,1.28,0,0,0,152.56,188.35Z"/><path d="M155,188.4a7.07,7.07,0,0,1,.08-1,3.19,3.19,0,0,1,.29-1,2,2,0,0,1,.59-.7,1.54,1.54,0,0,1,1-.28,1.49,1.49,0,0,1,.95.28,1.91,1.91,0,0,1,.59.7,2.94,2.94,0,0,1,.3,1,6.29,6.29,0,0,1,0,2,2.94,2.94,0,0,1-.3.95,1.91,1.91,0,0,1-.59.7,1.49,1.49,0,0,1-.95.28,1.54,1.54,0,0,1-1-.28,2,2,0,0,1-.59-.7,3.19,3.19,0,0,1-.29-.95A7.07,7.07,0,0,1,155,188.4Zm.67,0c0,.14,0,.29,0,.46a4.6,4.6,0,0,0,.06.52,4.7,4.7,0,0,0,.12.51,1.67,1.67,0,0,0,.23.44,1,1,0,0,0,.34.31,1,1,0,0,0,.48.11,1.06,1.06,0,0,0,.48-.11,1.24,1.24,0,0,0,.34-.31,1.65,1.65,0,0,0,.22-.44,3.18,3.18,0,0,0,.13-.51,4.6,4.6,0,0,0,.06-.52c0-.17,0-.32,0-.46s0-.29,0-.46a4.35,4.35,0,0,0-.06-.52,3.18,3.18,0,0,0-.13-.51,1.65,1.65,0,0,0-.22-.44,1.24,1.24,0,0,0-.34-.31,1.06,1.06,0,0,0-.48-.11,1,1,0,0,0-.48.11,1,1,0,0,0-.34.31,1.67,1.67,0,0,0-.23.44,4.7,4.7,0,0,0-.12.51,4.35,4.35,0,0,0-.06.52C155.72,188.11,155.71,188.26,155.71,188.4Z"/><circle class="cls-4" cx="149.69" cy="136.77" r="63.23"/><path d="M150.94,202.77a1.32,1.32,0,0,1,.13-.6,1.24,1.24,0,0,1,.34-.47,1.44,1.44,0,0,1,.51-.3,1.92,1.92,0,0,1,1.28,0,1.44,1.44,0,0,1,.51.3,1.35,1.35,0,0,1,.34.47,1.46,1.46,0,0,1,.12.6,1.34,1.34,0,0,1-.06.4,1.16,1.16,0,0,1-.18.37,1.42,1.42,0,0,1-.3.3,1.21,1.21,0,0,1-.38.18v0a1.43,1.43,0,0,1,.46.18,1.23,1.23,0,0,1,.35.33,1.61,1.61,0,0,1,.23.43,1.81,1.81,0,0,1,.08.51,1.67,1.67,0,0,1-.14.69,1.74,1.74,0,0,1-.39.53,1.78,1.78,0,0,1-.57.33,2.4,2.4,0,0,1-.71.11,2.35,2.35,0,0,1-.71-.11,1.94,1.94,0,0,1-.58-.33,1.56,1.56,0,0,1-.38-.53,1.67,1.67,0,0,1-.14-.69,1.81,1.81,0,0,1,.08-.51,1.59,1.59,0,0,1,.22-.43,1.42,1.42,0,0,1,.36-.33,1.34,1.34,0,0,1,.46-.18v0a1.38,1.38,0,0,1-.39-.18,1.64,1.64,0,0,1-.29-.3,1.16,1.16,0,0,1-.18-.37A1.09,1.09,0,0,1,150.94,202.77Zm.48,2.67a1.15,1.15,0,0,0,.33.82,1.38,1.38,0,0,0,.36.23,1.33,1.33,0,0,0,.45.08,1.23,1.23,0,0,0,.44-.08,1.11,1.11,0,0,0,.36-.23,1,1,0,0,0,.25-.36,1.14,1.14,0,0,0,.08-.46,1.12,1.12,0,0,0-.08-.45,1,1,0,0,0-.25-.36,1.11,1.11,0,0,0-.36-.23,1,1,0,0,0-.44-.08,1.12,1.12,0,0,0-.45.08,1.38,1.38,0,0,0-.36.23,1.15,1.15,0,0,0-.33.81Zm.19-2.64a.94.94,0,0,0,.26.68,1,1,0,0,0,.69.26.93.93,0,0,0,.68-.26,1,1,0,0,0,0-1.35.93.93,0,0,0-.68-.26,1,1,0,0,0-.69.26A.94.94,0,0,0,151.61,202.8Z"/><path d="M155,204.22a7.07,7.07,0,0,1,.08-1,3.19,3.19,0,0,1,.29-.95,2,2,0,0,1,.59-.7,1.54,1.54,0,0,1,1-.28,1.49,1.49,0,0,1,.95.28,1.91,1.91,0,0,1,.59.7,2.94,2.94,0,0,1,.3.95,6.29,6.29,0,0,1,0,2,2.94,2.94,0,0,1-.3.95,1.91,1.91,0,0,1-.59.7,1.49,1.49,0,0,1-.95.28,1.54,1.54,0,0,1-1-.28,2,2,0,0,1-.59-.7,3.19,3.19,0,0,1-.29-.95A7.07,7.07,0,0,1,155,204.22Zm.67,0c0,.14,0,.29,0,.46a4.35,4.35,0,0,0,.06.52,4.7,4.7,0,0,0,.12.51,1.67,1.67,0,0,0,.23.44,1,1,0,0,0,.34.31,1,1,0,0,0,.48.11,1.06,1.06,0,0,0,.48-.11,1.24,1.24,0,0,0,.34-.31,1.65,1.65,0,0,0,.22-.44,3.18,3.18,0,0,0,.13-.51,4.35,4.35,0,0,0,.06-.52c0-.17,0-.32,0-.46s0-.29,0-.46a4.6,4.6,0,0,0-.06-.52,3.18,3.18,0,0,0-.13-.51,1.65,1.65,0,0,0-.22-.44,1.43,1.43,0,0,0-.34-.31,1.06,1.06,0,0,0-.48-.11,1,1,0,0,0-.48.11,1.13,1.13,0,0,0-.34.31,1.67,1.67,0,0,0-.23.44,4.7,4.7,0,0,0-.12.51,4.6,4.6,0,0,0-.06.52C155.72,203.93,155.71,204.08,155.71,204.22Z"/><circle class="cls-4" cx="149.69" cy="136.77" r="79.06"/><path d="M153.21,222.88h-.67v-4.8h0l-1,.85-.4-.49,1.52-1.23h.58Z"/><path d="M155,220a7.07,7.07,0,0,1,.08-1,3.13,3.13,0,0,1,.29-.94,2,2,0,0,1,.59-.71,1.6,1.6,0,0,1,1-.27,1.55,1.55,0,0,1,.95.27,1.94,1.94,0,0,1,.59.71,2.88,2.88,0,0,1,.3.94,7.07,7.07,0,0,1,.08,1,7,7,0,0,1-.08,1,2.86,2.86,0,0,1-.3,1,1.94,1.94,0,0,1-.59.71,1.55,1.55,0,0,1-.95.27,1.6,1.6,0,0,1-1-.27,2,2,0,0,1-.59-.71,3.1,3.1,0,0,1-.29-1A7,7,0,0,1,155,220Zm.67,0c0,.14,0,.3,0,.47a4.43,4.43,0,0,0,.06.51,3.81,3.81,0,0,0,.12.51,1.53,1.53,0,0,0,.23.44,1,1,0,0,0,.34.31.9.9,0,0,0,.48.12,1,1,0,0,0,.48-.12,1.24,1.24,0,0,0,.34-.31,1.51,1.51,0,0,0,.22-.44,2.72,2.72,0,0,0,.13-.51,4.43,4.43,0,0,0,.06-.51c0-.17,0-.33,0-.47s0-.29,0-.46a4.88,4.88,0,0,0-.06-.52,2.83,2.83,0,0,0-.13-.5,1.4,1.4,0,0,0-.22-.44,1.24,1.24,0,0,0-.34-.31,1,1,0,0,0-.48-.12.9.9,0,0,0-.48.12,1,1,0,0,0-.34.31,1.41,1.41,0,0,0-.23.44,4.05,4.05,0,0,0-.12.5,4.88,4.88,0,0,0-.06.52C155.72,219.75,155.71,219.91,155.71,220Z"/><path d="M159.49,220a5.85,5.85,0,0,1,.08-1,3.13,3.13,0,0,1,.29-.94,2,2,0,0,1,.59-.71,1.82,1.82,0,0,1,1.91,0,1.94,1.94,0,0,1,.59.71,3.45,3.45,0,0,1,.3.94,7.07,7.07,0,0,1,.08,1,7,7,0,0,1-.08,1,3.41,3.41,0,0,1-.3,1,1.94,1.94,0,0,1-.59.71,1.82,1.82,0,0,1-1.91,0,2,2,0,0,1-.59-.71,3.1,3.1,0,0,1-.29-1A5.77,5.77,0,0,1,159.49,220Zm.67,0c0,.14,0,.3,0,.47a4.43,4.43,0,0,0,.06.51,3.8,3.8,0,0,0,.13.51,1.53,1.53,0,0,0,.23.44,1,1,0,0,0,.34.31.9.9,0,0,0,.48.12,1,1,0,0,0,.48-.12,1.24,1.24,0,0,0,.34-.31,1.81,1.81,0,0,0,.22-.44,2.72,2.72,0,0,0,.13-.51,4.43,4.43,0,0,0,.06-.51c0-.17,0-.33,0-.47s0-.29,0-.46a4.88,4.88,0,0,0-.06-.52,2.83,2.83,0,0,0-.13-.5,1.65,1.65,0,0,0-.22-.44,1.24,1.24,0,0,0-.34-.31,1,1,0,0,0-.48-.12.9.9,0,0,0-.48.12,1,1,0,0,0-.34.31,1.41,1.41,0,0,0-.23.44,4.07,4.07,0,0,0-.13.5,4.88,4.88,0,0,0-.06.52C160.16,219.75,160.16,219.91,160.16,220Z"/><circle class="cls-4" cx="149.69" cy="136.77" r="94.93"/><line class="cls-4" x1="54.75" y1="136.82" x2="244.67" y2="136.82"/><line class="cls-4" x1="149.69" y1="231.76" x2="149.69" y2="41.84"/><line class="cls-4" x1="94.93" y1="41.84" x2="204.5" y2="231.76"/><line class="cls-4" x1="94.93" y1="231.76" x2="204.5" y2="41.84"/><line class="cls-4" x1="54.75" y1="82.01" x2="244.67" y2="191.58"/><line class="cls-4" x1="54.75" y1="191.58" x2="244.67" y2="82.01"/><line class="cls-5" x1="149.69" y1="157.45" x2="150.44" y2="157.72"/><line class="cls-5" x1="150.44" y1="157.72" x2="151.14" y2="157.29"/><line class="cls-5" x1="151.14" y1="157.29" x2="151.79" y2="156.8"/><line class="cls-5" x1="151.79" y1="156.8" x2="152.44" y2="156.43"/><line class="cls-5" x1="152.44" y1="156.43" x2="153.3" y2="157.18"/><line class="cls-5" x1="153.3" y1="157.18" x2="154.6" y2="159.83"/><line class="cls-5" x1="154.6" y1="159.83" x2="155.84" y2="161.34"/><line class="cls-5" x1="155.84" y1="161.34" x2="156.92" y2="161.99"/><line class="cls-5" x1="156.92" y1="161.99" x2="157.89" y2="162.04"/><line class="cls-5" x1="157.89" y1="162.04" x2="159.14" y2="162.74"/><line class="cls-5" x1="159.14" y1="162.74" x2="159.89" y2="162.1"/><line class="cls-5" x1="159.89" y1="162.1" x2="161.51" y2="163.34"/><line class="cls-5" x1="161.51" y1="163.34" x2="163.29" y2="164.69"/><line class="cls-5" x1="163.29" y1="164.69" x2="165.13" y2="165.82"/><line class="cls-5" x1="165.13" y1="165.82" x2="167.02" y2="166.79"/><line class="cls-5" x1="167.02" y1="166.79" x2="168.05" y2="166.15"/><line class="cls-5" x1="168.05" y1="166.15" x2="169.5" y2="166.15"/><line class="cls-5" x1="169.5" y1="166.15" x2="171.07" y2="166.2"/><line class="cls-5" x1="171.07" y1="166.2" x2="172.64" y2="166.09"/><line class="cls-5" x1="172.64" y1="166.09" x2="174.04" y2="165.82"/><line class="cls-5" x1="174.04" y1="165.82" x2="175.5" y2="165.44"/><line class="cls-5" x1="175.5" y1="165.44" x2="177.01" y2="165.07"/><line class="cls-5" x1="177.01" y1="165.07" x2="178.52" y2="164.63"/><line class="cls-5" x1="178.52" y1="164.63" x2="180.2" y2="164.2"/><line class="cls-5" x1="180.2" y1="164.2" x2="181.82" y2="163.77"/><line class="cls-5" x1="181.82" y1="163.77" x2="183.6" y2="163.23"/><line class="cls-5" x1="183.6" y1="163.23" x2="185.27" y2="162.64"/><line class="cls-5" x1="185.27" y1="162.64" x2="186.89" y2="161.88"/><line class="cls-5" x1="186.89" y1="161.88" x2="188.57" y2="161.07"/><line class="cls-5" x1="188.57" y1="161.07" x2="190.24" y2="160.21"/><line class="cls-5" x1="190.24" y1="160.21" x2="191.86" y2="159.18"/><line class="cls-5" x1="191.86" y1="159.18" x2="193.43" y2="158.1"/><line class="cls-5" x1="193.43" y1="158.1" x2="194.94" y2="156.91"/><line class="cls-5" x1="194.94" y1="156.91" x2="196.4" y2="155.67"/><line class="cls-5" x1="196.4" y1="155.67" x2="197.8" y2="154.27"/><line class="cls-5" x1="197.8" y1="154.27" x2="199.04" y2="152.81"/><line class="cls-5" x1="199.04" y1="152.81" x2="200.23" y2="151.24"/><line class="cls-5" x1="200.23" y1="151.24" x2="201.31" y2="149.62"/><line class="cls-5" x1="201.31" y1="149.62" x2="202.23" y2="147.95"/><line class="cls-5" x1="202.23" y1="147.95" x2="203.04" y2="146.17"/><line class="cls-5" x1="203.04" y1="146.17" x2="203.74" y2="144.38"/><line class="cls-5" x1="203.74" y1="144.38" x2="204.33" y2="142.49"/><line class="cls-5" x1="204.33" y1="142.49" x2="204.82" y2="140.6"/><line class="cls-5" x1="204.82" y1="140.6" x2="205.14" y2="138.71"/><line class="cls-5" x1="205.14" y1="138.71" x2="205.31" y2="136.82"/><line class="cls-5" x1="205.31" y1="136.82" x2="205.36" y2="134.88"/><line class="cls-5" x1="205.36" y1="134.88" x2="205.2" y2="132.94"/><line class="cls-5" x1="205.2" y1="132.94" x2="204.93" y2="130.99"/><line class="cls-5" x1="204.93" y1="130.99" x2="204.55" y2="129.1"/><line class="cls-5" x1="204.55" y1="129.1" x2="204.06" y2="127.27"/><line class="cls-5" x1="204.06" y1="127.27" x2="203.42" y2="125.43"/><line class="cls-5" x1="203.42" y1="125.43" x2="202.66" y2="123.59"/><line class="cls-5" x1="202.66" y1="123.59" x2="201.8" y2="121.87"/><line class="cls-5" x1="201.8" y1="121.87" x2="200.82" y2="120.19"/><line class="cls-5" x1="200.82" y1="120.19" x2="199.69" y2="118.63"/><line class="cls-5" x1="199.69" y1="118.63" x2="198.39" y2="117.11"/><line class="cls-5" x1="198.39" y1="117.11" x2="197.1" y2="115.71"/><line class="cls-5" x1="197.1" y1="115.71" x2="195.64" y2="114.41"/><line class="cls-5" x1="195.64" y1="114.41" x2="194.13" y2="113.23"/><line class="cls-5" x1="194.13" y1="113.23" x2="192.51" y2="112.09"/><line class="cls-5" x1="192.51" y1="112.09" x2="190.83" y2="111.12"/><line class="cls-5" x1="190.83" y1="111.12" x2="189.16" y2="110.2"/><line class="cls-5" x1="189.16" y1="110.2" x2="187.38" y2="109.45"/><line class="cls-5" x1="187.38" y1="109.45" x2="185.54" y2="108.8"/><line class="cls-5" x1="185.54" y1="108.8" x2="183.71" y2="108.26"/><line class="cls-5" x1="183.71" y1="108.26" x2="181.92" y2="107.83"/><line class="cls-5" x1="181.92" y1="107.83" x2="180.09" y2="107.45"/><line class="cls-5" x1="180.09" y1="107.45" x2="178.25" y2="107.23"/><line class="cls-5" x1="178.25" y1="107.23" x2="176.42" y2="107.12"/><line class="cls-5" x1="176.42" y1="107.12" x2="174.69" y2="107.02"/><line class="cls-5" x1="174.69" y1="107.02" x2="172.96" y2="107.02"/><line class="cls-5" x1="172.96" y1="107.02" x2="171.29" y2="107.07"/><line class="cls-5" x1="171.29" y1="107.07" x2="169.61" y2="107.29"/><line class="cls-5" x1="169.61" y1="107.29" x2="167.88" y2="107.66"/><line class="cls-5" x1="167.88" y1="107.66" x2="166.21" y2="108.26"/><line class="cls-5" x1="166.21" y1="108.26" x2="164.7" y2="108.58"/><line class="cls-5" x1="164.7" y1="108.58" x2="164.16" y2="107.18"/><line class="cls-5" x1="164.16" y1="107.18" x2="163.46" y2="105.88"/><line class="cls-5" x1="163.46" y1="105.88" x2="162.38" y2="105.4"/><line class="cls-5" x1="162.38" y1="105.4" x2="160.54" y2="106.96"/><line class="cls-5" x1="160.54" y1="106.96" x2="158.97" y2="108.26"/><line class="cls-5" x1="158.97" y1="108.26" x2="157.79" y2="108.47"/><line class="cls-5" x1="157.79" y1="108.47" x2="156.92" y2="107.88"/><line class="cls-5" x1="156.92" y1="107.88" x2="156.06" y2="106.91"/><line class="cls-5" x1="156.06" y1="106.91" x2="154.76" y2="108.04"/><line class="cls-5" x1="154.76" y1="108.04" x2="153.03" y2="113.01"/><line class="cls-5" x1="153.03" y1="113.01" x2="151.9" y2="115.98"/><line class="cls-5" x1="151.9" y1="115.98" x2="151.09" y2="116.79"/><line class="cls-5" x1="151.09" y1="116.79" x2="150.44" y2="115.55"/><line class="cls-5" x1="150.44" y1="115.55" x2="149.69" y2="114.04"/><line class="cls-5" x1="149.69" y1="157.45" x2="148.98" y2="157.72"/><line class="cls-5" x1="148.98" y1="157.72" x2="148.28" y2="157.29"/><line class="cls-5" x1="148.28" y1="157.29" x2="147.63" y2="156.8"/><line class="cls-5" x1="147.63" y1="156.8" x2="146.99" y2="156.43"/><line class="cls-5" x1="146.99" y1="156.43" x2="146.12" y2="157.18"/><line class="cls-5" x1="146.12" y1="157.18" x2="144.83" y2="159.83"/><line class="cls-5" x1="144.83" y1="159.83" x2="143.58" y2="161.34"/><line class="cls-5" x1="143.58" y1="161.34" x2="142.5" y2="161.99"/><line class="cls-5" x1="142.5" y1="161.99" x2="141.53" y2="162.04"/><line class="cls-5" x1="141.53" y1="162.04" x2="140.29" y2="162.74"/><line class="cls-5" x1="140.29" y1="162.74" x2="139.53" y2="162.1"/><line class="cls-5" x1="139.53" y1="162.1" x2="137.91" y2="163.34"/><line class="cls-5" x1="137.91" y1="163.34" x2="136.13" y2="164.69"/><line class="cls-5" x1="136.13" y1="164.69" x2="134.3" y2="165.82"/><line class="cls-5" x1="134.3" y1="165.82" x2="132.41" y2="166.79"/><line class="cls-5" x1="132.41" y1="166.79" x2="131.38" y2="166.15"/><line class="cls-5" x1="131.38" y1="166.15" x2="129.92" y2="166.15"/><line class="cls-5" x1="129.92" y1="166.15" x2="128.36" y2="166.2"/><line class="cls-5" x1="128.36" y1="166.2" x2="126.79" y2="166.09"/><line class="cls-5" x1="126.79" y1="166.09" x2="125.39" y2="165.82"/><line class="cls-5" x1="125.39" y1="165.82" x2="123.93" y2="165.44"/><line class="cls-5" x1="123.93" y1="165.44" x2="122.42" y2="165.07"/><line class="cls-5" x1="122.42" y1="165.07" x2="120.9" y2="164.63"/><line class="cls-5" x1="120.9" y1="164.63" x2="119.23" y2="164.2"/><line class="cls-5" x1="119.23" y1="164.2" x2="117.61" y2="163.77"/><line class="cls-5" x1="117.61" y1="163.77" x2="115.83" y2="163.23"/><line class="cls-5" x1="115.83" y1="163.23" x2="114.15" y2="162.64"/><line class="cls-5" x1="114.15" y1="162.64" x2="112.53" y2="161.88"/><line class="cls-5" x1="112.53" y1="161.88" x2="110.86" y2="161.07"/><line class="cls-5" x1="110.86" y1="161.07" x2="109.19" y2="160.21"/><line class="cls-5" x1="109.19" y1="160.21" x2="107.57" y2="159.18"/><line class="cls-5" x1="107.57" y1="159.18" x2="106" y2="158.1"/><line class="cls-5" x1="106" y1="158.1" x2="104.49" y2="156.91"/><line class="cls-5" x1="104.49" y1="156.91" x2="103.03" y2="155.67"/><line class="cls-5" x1="103.03" y1="155.67" x2="101.63" y2="154.27"/><line class="cls-5" x1="101.63" y1="154.27" x2="100.38" y2="152.81"/><line class="cls-5" x1="100.38" y1="152.81" x2="99.2" y2="151.24"/><line class="cls-5" x1="99.2" y1="151.24" x2="98.12" y2="149.62"/><line class="cls-5" x1="98.12" y1="149.62" x2="97.2" y2="147.95"/><line class="cls-5" x1="97.2" y1="147.95" x2="96.39" y2="146.17"/><line class="cls-5" x1="96.39" y1="146.17" x2="95.69" y2="144.38"/><line class="cls-5" x1="95.69" y1="144.38" x2="95.09" y2="142.49"/><line class="cls-5" x1="95.09" y1="142.49" x2="94.61" y2="140.6"/><line class="cls-5" x1="94.61" y1="140.6" x2="94.28" y2="138.71"/><line class="cls-5" x1="94.28" y1="138.71" x2="94.12" y2="136.82"/><line class="cls-5" x1="94.12" y1="136.82" x2="94.07" y2="134.88"/><line class="cls-5" x1="94.07" y1="134.88" x2="94.23" y2="132.94"/><line class="cls-5" x1="94.23" y1="132.94" x2="94.5" y2="130.99"/><line class="cls-5" x1="94.5" y1="130.99" x2="94.88" y2="129.1"/><line class="cls-5" x1="94.88" y1="129.1" x2="95.36" y2="127.27"/><line class="cls-5" x1="95.36" y1="127.27" x2="96.01" y2="125.43"/><line class="cls-5" x1="96.01" y1="125.43" x2="96.77" y2="123.59"/><line class="cls-5" x1="96.77" y1="123.59" x2="97.63" y2="121.87"/><line class="cls-5" x1="97.63" y1="121.87" x2="98.6" y2="120.19"/><line class="cls-5" x1="98.6" y1="120.19" x2="99.74" y2="118.63"/><line class="cls-5" x1="99.74" y1="118.63" x2="101.03" y2="117.11"/><line class="cls-5" x1="101.03" y1="117.11" x2="102.33" y2="115.71"/><line class="cls-5" x1="102.33" y1="115.71" x2="103.79" y2="114.41"/><line class="cls-5" x1="103.79" y1="114.41" x2="105.3" y2="113.23"/><line class="cls-5" x1="105.3" y1="113.23" x2="106.92" y2="112.09"/><line class="cls-5" x1="106.92" y1="112.09" x2="108.59" y2="111.12"/><line class="cls-5" x1="108.59" y1="111.12" x2="110.27" y2="110.2"/><line class="cls-5" x1="110.27" y1="110.2" x2="112.05" y2="109.45"/><line class="cls-5" x1="112.05" y1="109.45" x2="113.88" y2="108.8"/><line class="cls-5" x1="113.88" y1="108.8" x2="115.72" y2="108.26"/><line class="cls-5" x1="115.72" y1="108.26" x2="117.5" y2="107.83"/><line class="cls-5" x1="117.5" y1="107.83" x2="119.34" y2="107.45"/><line class="cls-5" x1="119.34" y1="107.45" x2="121.17" y2="107.23"/><line class="cls-5" x1="121.17" y1="107.23" x2="123.01" y2="107.12"/><line class="cls-5" x1="123.01" y1="107.12" x2="124.74" y2="107.02"/><line class="cls-5" x1="124.74" y1="107.02" x2="126.47" y2="107.02"/><line class="cls-5" x1="126.47" y1="107.02" x2="128.14" y2="107.07"/><line class="cls-5" x1="128.14" y1="107.07" x2="129.81" y2="107.29"/><line class="cls-5" x1="129.81" y1="107.29" x2="131.54" y2="107.66"/><line class="cls-5" x1="131.54" y1="107.66" x2="133.22" y2="108.26"/><line class="cls-5" x1="133.22" y1="108.26" x2="134.73" y2="108.58"/><line class="cls-5" x1="134.73" y1="108.58" x2="135.27" y2="107.18"/><line class="cls-5" x1="135.27" y1="107.18" x2="135.97" y2="105.88"/><line class="cls-5" x1="135.97" y1="105.88" x2="137.05" y2="105.4"/><line class="cls-5" x1="137.05" y1="105.4" x2="138.89" y2="106.96"/><line class="cls-5" x1="138.89" y1="106.96" x2="140.45" y2="108.26"/><line class="cls-5" x1="140.45" y1="108.26" x2="141.64" y2="108.47"/><line class="cls-5" x1="141.64" y1="108.47" x2="142.5" y2="107.88"/><line class="cls-5" x1="142.5" y1="107.88" x2="143.37" y2="106.91"/><line class="cls-5" x1="143.37" y1="106.91" x2="144.66" y2="108.04"/><line class="cls-5" x1="144.66" y1="108.04" x2="146.39" y2="113.01"/><line class="cls-5" x1="146.39" y1="113.01" x2="147.53" y2="115.98"/><line class="cls-5" x1="147.53" y1="115.98" x2="148.34" y2="116.79"/><line class="cls-5" x1="148.34" y1="116.79" x2="148.98" y2="115.55"/><line class="cls-5" x1="148.98" y1="115.55" x2="149.69" y2="114.04"/><line class="cls-5" x1="149.69" y1="157.45" x2="149.9" y2="157.51"/><line class="cls-5" x1="151.09" y1="157.94" x2="151.14" y2="157.94"/><line class="cls-5" x1="151.14" y1="157.94" x2="151.31" y2="157.99"/><line class="cls-5" x1="152.22" y1="158.8" x2="152.33" y2="159.02"/><line class="cls-5" x1="152.93" y1="160.15" x2="152.98" y2="160.26"/><line class="cls-5" x1="152.98" y1="160.26" x2="152.98" y2="160.37"/><line class="cls-5" x1="153.3" y1="161.61" x2="153.36" y2="161.83"/><line class="cls-5" x1="153.68" y1="163.07" x2="153.74" y2="163.28"/><line class="cls-5" x1="154.01" y1="164.53" x2="154.06" y2="164.74"/><line class="cls-5" x1="154.38" y1="165.98" x2="154.44" y2="166.2"/><line class="cls-5" x1="154.76" y1="167.44" x2="154.82" y2="167.66"/><line class="cls-5" x1="155.09" y1="168.9" x2="155.14" y2="169.12"/><line class="cls-5" x1="155.46" y1="170.36" x2="155.52" y2="170.57"/><line class="cls-5" x1="155.84" y1="171.82" x2="155.9" y2="172.03"/><line class="cls-5" x1="156.38" y1="173.22" x2="156.49" y2="173.44"/><line class="cls-5" x1="157.14" y1="174.52" x2="157.25" y2="174.73"/><line class="cls-5" x1="157.89" y1="175.81" x2="158" y2="176.03"/><line class="cls-5" x1="158.65" y1="175.16" x2="158.76" y2="174.95"/><line class="cls-5" x1="159.14" y1="173.76" x2="159.14" y2="173.49"/><line class="cls-5" x1="159.19" y1="172.19" x2="159.19" y2="171.92"/><line class="cls-5" x1="159.3" y1="170.63" x2="159.3" y2="170.36"/><line class="cls-5" x1="159.24" y1="169.06" x2="159.24" y2="168.79"/><line class="cls-5" x1="159.19" y1="167.5" x2="159.14" y2="167.28"/><line class="cls-5" x1="159.08" y1="165.98" x2="159.08" y2="165.71"/><line class="cls-5" x1="159.84" y1="166.58" x2="160" y2="166.74"/><line class="cls-5" x1="160.81" y1="167.77" x2="160.97" y2="167.98"/><line class="cls-5" x1="161.78" y1="169.01" x2="161.94" y2="169.22"/><line class="cls-5" x1="162.75" y1="170.25" x2="162.92" y2="170.41"/><line class="cls-5" x1="163.73" y1="171.44" x2="163.89" y2="171.6"/><line class="cls-5" x1="164.81" y1="172.57" x2="164.97" y2="172.73"/><line class="cls-5" x1="165.89" y1="173.71" x2="166.05" y2="173.92"/><line class="cls-5" x1="167.02" y1="174.79" x2="167.18" y2="174.95"/><line class="cls-5" x1="168.21" y1="175.76" x2="168.37" y2="175.92"/><line class="cls-5" x1="169.4" y1="176.68" x2="169.61" y2="176.78"/><line class="cls-5" x1="170.69" y1="177.43" x2="170.91" y2="177.54"/><line class="cls-5" x1="171.99" y1="178.13" x2="172.2" y2="178.19"/><line class="cls-5" x1="173.39" y1="178.62" x2="173.61" y2="178.73"/><line class="cls-5" x1="174.85" y1="179.05" x2="175.07" y2="179.11"/><line class="cls-5" x1="176.31" y1="179.32" x2="176.58" y2="179.32"/><line class="cls-5" x1="177.87" y1="179.43" x2="178.14" y2="179.48"/><line class="cls-5" x1="179.49" y1="179.48" x2="179.71" y2="179.54"/><line class="cls-5" x1="181.06" y1="179.54" x2="181.33" y2="179.54"/><line class="cls-5" x1="182.63" y1="179.59" x2="182.9" y2="179.59"/><line class="cls-5" x1="184.19" y1="179.65" x2="184.46" y2="179.65"/><line class="cls-5" x1="185.76" y1="179.7" x2="186.03" y2="179.7"/><line class="cls-5" x1="187.32" y1="179.65" x2="187.59" y2="179.65"/><line class="cls-5" x1="188.89" y1="179.59" x2="189.16" y2="179.59"/><line class="cls-5" x1="190.46" y1="179.54" x2="190.73" y2="179.54"/><line class="cls-5" x1="192.02" y1="179.43" x2="192.29" y2="179.43"/><line class="cls-5" x1="193.59" y1="179.27" x2="193.7" y2="179.27"/><line class="cls-5" x1="193.7" y1="179.27" x2="193.86" y2="179.27"/><line class="cls-5" x1="195.1" y1="179.05" x2="195.32" y2="179"/><line class="cls-5" x1="196.61" y1="178.78" x2="196.88" y2="178.73"/><line class="cls-5" x1="198.18" y1="178.51" x2="198.45" y2="178.46"/><line class="cls-5" x1="199.69" y1="178.24" x2="199.91" y2="178.19"/><line class="cls-5" x1="201.15" y1="177.86" x2="201.36" y2="177.81"/><line class="cls-5" x1="202.61" y1="177.49" x2="202.82" y2="177.43"/><line class="cls-5" x1="204.06" y1="177.11" x2="204.28" y2="177.05"/><line class="cls-5" x1="205.47" y1="176.68" x2="205.68" y2="176.62"/><line class="cls-5" x1="206.87" y1="176.19" x2="207.09" y2="176.14"/><line class="cls-5" x1="208.28" y1="175.7" x2="208.49" y2="175.6"/><line class="cls-5" x1="209.68" y1="175.11" x2="209.9" y2="175.06"/><line class="cls-5" x1="211.03" y1="174.52" x2="211.25" y2="174.41"/><line class="cls-5" x1="212.38" y1="173.81" x2="212.6" y2="173.71"/><line class="cls-5" x1="213.73" y1="173.17" x2="213.95" y2="173"/><line class="cls-5" x1="215.08" y1="172.41" x2="215.3" y2="172.3"/><line class="cls-5" x1="216.38" y1="171.65" x2="216.59" y2="171.55"/><line class="cls-5" x1="217.67" y1="170.84" x2="217.89" y2="170.68"/><line class="cls-5" x1="218.97" y1="169.98" x2="219.13" y2="169.82"/><line class="cls-5" x1="220.21" y1="169.06" x2="220.43" y2="168.9"/><line class="cls-5" x1="221.45" y1="168.09" x2="221.67" y2="167.93"/><line class="cls-5" x1="222.64" y1="167.06" x2="222.86" y2="166.9"/><line class="cls-5" x1="223.83" y1="165.98" x2="223.99" y2="165.77"/><line class="cls-5" x1="224.91" y1="164.8" x2="225.07" y2="164.63"/><line class="cls-5" x1="225.99" y1="163.66" x2="226.15" y2="163.45"/><line class="cls-5" x1="227.01" y1="162.47" x2="227.18" y2="162.31"/><line class="cls-5" x1="227.99" y1="161.29" x2="228.15" y2="161.12"/><line class="cls-5" x1="228.96" y1="160.1" x2="229.12" y2="159.88"/><line class="cls-5" x1="229.82" y1="158.86" x2="229.98" y2="158.64"/><line class="cls-5" x1="230.69" y1="157.56" x2="230.85" y2="157.34"/><line class="cls-5" x1="231.5" y1="156.21" x2="231.6" y2="155.99"/><line class="cls-5" x1="232.25" y1="154.86" x2="232.36" y2="154.64"/><line class="cls-5" x1="232.9" y1="153.51" x2="233.01" y2="153.29"/><line class="cls-5" x1="233.49" y1="152.16" x2="233.6" y2="151.94"/><line class="cls-5" x1="234.09" y1="150.81" x2="234.2" y2="150.59"/><line class="cls-5" x1="234.63" y1="149.41" x2="234.74" y2="149.19"/><line class="cls-5" x1="235.11" y1="148" x2="235.22" y2="147.79"/><line class="cls-5" x1="235.6" y1="146.6" x2="235.65" y2="146.38"/><line class="cls-5" x1="235.98" y1="145.14" x2="236.03" y2="144.92"/><line class="cls-5" x1="236.3" y1="143.68" x2="236.36" y2="143.47"/><line class="cls-5" x1="236.63" y1="142.22" x2="236.68" y2="142.01"/><line class="cls-5" x1="236.9" y1="140.77" x2="236.95" y2="140.55"/><line class="cls-5" x1="237.11" y1="139.25" x2="237.11" y2="138.98"/><line class="cls-5" x1="237.27" y1="137.69" x2="237.27" y2="137.42"/><line class="cls-5" x1="237.33" y1="136.12" x2="237.33" y2="135.85"/><line class="cls-5" x1="237.33" y1="134.5" x2="237.33" y2="134.23"/><line class="cls-5" x1="237.27" y1="132.94" x2="237.27" y2="132.67"/><line class="cls-5" x1="237.17" y1="131.37" x2="237.11" y2="131.1"/><line class="cls-5" x1="236.95" y1="129.8" x2="236.9" y2="129.53"/><line class="cls-5" x1="236.73" y1="128.24" x2="236.68" y2="128.02"/><line class="cls-5" x1="236.41" y1="126.78" x2="236.36" y2="126.56"/><line class="cls-5" x1="236.14" y1="125.32" x2="236.09" y2="125.11"/><line class="cls-5" x1="235.76" y1="123.86" x2="235.71" y2="123.65"/><line class="cls-5" x1="235.33" y1="122.41" x2="235.28" y2="122.19"/><line class="cls-5" x1="234.9" y1="121" x2="234.79" y2="120.79"/><line class="cls-5" x1="234.36" y1="119.6" x2="234.25" y2="119.38"/><line class="cls-5" x1="233.76" y1="118.19" x2="233.66" y2="117.98"/><line class="cls-5" x1="233.17" y1="116.79" x2="233.06" y2="116.57"/><line class="cls-5" x1="232.52" y1="115.44" x2="232.36" y2="115.22"/><line class="cls-5" x1="231.77" y1="114.09" x2="231.66" y2="113.87"/><line class="cls-5" x1="231.01" y1="112.79" x2="230.85" y2="112.58"/><line class="cls-5" x1="230.15" y1="111.5" x2="229.98" y2="111.28"/><line class="cls-5" x1="229.23" y1="110.2" x2="229.07" y2="109.99"/><line class="cls-5" x1="228.26" y1="108.96" x2="228.09" y2="108.74"/><line class="cls-5" x1="227.28" y1="107.72" x2="227.12" y2="107.56"/><line class="cls-5" x1="226.26" y1="106.53" x2="226.1" y2="106.37"/><line class="cls-5" x1="225.18" y1="105.4" x2="225.02" y2="105.23"/><line class="cls-5" x1="224.04" y1="104.32" x2="223.88" y2="104.15"/><line class="cls-5" x1="222.91" y1="103.29" x2="222.69" y2="103.13"/><line class="cls-5" x1="221.67" y1="102.32" x2="221.51" y2="102.16"/><line class="cls-5" x1="220.48" y1="101.4" x2="220.32" y2="101.24"/><line class="cls-5" x1="219.29" y1="100.48" x2="219.08" y2="100.32"/><line class="cls-5" x1="218" y1="99.62" x2="217.78" y2="99.46"/><line class="cls-5" x1="216.7" y1="98.75" x2="216.48" y2="98.65"/><line class="cls-5" x1="215.4" y1="98" x2="215.19" y2="97.89"/><line class="cls-5" x1="214.05" y1="97.3" x2="213.84" y2="97.19"/><line class="cls-5" x1="212.7" y1="96.65" x2="212.49" y2="96.54"/><line class="cls-5" x1="211.35" y1="96.05" x2="211.14" y2="95.95"/><line class="cls-5" x1="209.95" y1="95.46" x2="209.73" y2="95.35"/><line class="cls-5" x1="208.55" y1="94.92" x2="208.33" y2="94.81"/><line class="cls-5" x1="207.14" y1="94.38" x2="206.93" y2="94.33"/><line class="cls-5" x1="205.74" y1="93.95" x2="205.52" y2="93.89"/><line class="cls-5" x1="204.33" y1="93.52" x2="204.12" y2="93.46"/><line class="cls-5" x1="202.88" y1="93.19" x2="202.66" y2="93.14"/><line class="cls-5" x1="201.42" y1="92.87" x2="201.2" y2="92.81"/><line class="cls-5" x1="199.96" y1="92.54" x2="199.69" y2="92.49"/><line class="cls-5" x1="198.39" y1="92.27" x2="198.12" y2="92.27"/><line class="cls-5" x1="196.83" y1="92.11" x2="196.61" y2="92.06"/><line class="cls-5" x1="195.32" y1="91.95" x2="195.1" y2="91.9"/><line class="cls-5" x1="193.8" y1="91.79" x2="193.53" y2="91.79"/><line class="cls-5" x1="192.24" y1="91.73" x2="191.97" y2="91.73"/><line class="cls-5" x1="190.67" y1="91.68" x2="190.4" y2="91.68"/><line class="cls-5" x1="189.11" y1="91.79" x2="188.84" y2="91.84"/><line class="cls-5" x1="187.54" y1="91.95" x2="187.32" y2="91.95"/><line class="cls-5" x1="187.32" y1="91.95" x2="187.27" y2="91.95"/><line class="cls-5" x1="185.97" y1="92.06" x2="185.76" y2="92.11"/><line class="cls-5" x1="184.46" y1="92.22" x2="184.25" y2="92.27"/><line class="cls-5" x1="182.95" y1="92.49" x2="182.68" y2="92.49"/><line class="cls-5" x1="181.44" y1="92.71" x2="181.22" y2="92.76"/><line class="cls-5" x1="179.98" y1="92.98" x2="179.76" y2="93.03"/><line class="cls-5" x1="178.52" y1="93.25" x2="178.31" y2="93.3"/><line class="cls-5" x1="177.06" y1="93.57" x2="176.79" y2="93.62"/><line class="cls-5" x1="175.55" y1="93.89" x2="175.34" y2="93.95"/><line class="cls-5" x1="174.09" y1="94.22" x2="173.88" y2="94.27"/><line class="cls-5" x1="172.64" y1="94.6" x2="172.42" y2="94.65"/><line class="cls-5" x1="171.23" y1="95.14" x2="171.02" y2="95.19"/><line class="cls-5" x1="169.88" y1="95.73" x2="169.72" y2="95.78"/><line class="cls-5" x1="169.72" y1="95.78" x2="169.67" y2="95.84"/><line class="cls-5" x1="168.59" y1="96.49" x2="168.37" y2="96.65"/><line class="cls-5" x1="167.29" y1="97.3" x2="167.29" y2="97.3"/><line class="cls-5" x1="167.29" y1="97.3" x2="167.07" y2="97.46"/><line class="cls-5" x1="166.05" y1="98.32" x2="165.83" y2="98.48"/><line class="cls-5" x1="164.81" y1="99.35" x2="164.64" y2="99.51"/><line class="cls-5" x1="163.73" y1="100.43" x2="163.56" y2="100.59"/><line class="cls-5" x1="162.65" y1="101.51" x2="162.48" y2="101.67"/><line class="cls-5" x1="161.73" y1="102.7" x2="161.57" y2="102.86"/><line class="cls-5" x1="160.81" y1="103.88" x2="160.65" y2="104.1"/><line class="cls-5" x1="159.78" y1="105.13" x2="159.62" y2="105.29"/><line class="cls-5" x1="158.7" y1="106.26" x2="158.54" y2="106.42"/><line class="cls-5" x1="157.35" y1="106.58" x2="157.25" y2="106.58"/><line class="cls-5" x1="157.25" y1="106.58" x2="157.14" y2="106.42"/><line class="cls-5" x1="156.6" y1="105.29" x2="156.49" y2="105.07"/><line class="cls-5" x1="155.3" y1="104.64" x2="155.14" y2="104.42"/><line class="cls-5" x1="154.28" y1="103.51" x2="154.01" y2="103.51"/><line class="cls-5" x1="152.93" y1="104.05" x2="152.82" y2="104.26"/><line class="cls-5" x1="152.28" y1="105.4" x2="152.17" y2="105.61"/><line class="cls-5" x1="151.74" y1="106.75" x2="151.68" y2="106.96"/><line class="cls-5" x1="151.36" y1="108.2" x2="151.31" y2="108.42"/><line class="cls-5" x1="150.98" y1="109.66" x2="150.93" y2="109.88"/><line class="cls-5" x1="150.6" y1="111.12" x2="150.5" y2="111.34"/><line class="cls-5" x1="150.12" y1="112.58" x2="150.06" y2="112.79"/><line class="cls-5" x1="149.69" y1="113.98" x2="149.69" y2="114.04"/><line class="cls-5" x1="149.69" y1="157.45" x2="149.47" y2="157.51"/><line class="cls-5" x1="148.28" y1="157.94" x2="148.28" y2="157.94"/><line class="cls-5" x1="148.28" y1="157.94" x2="148.07" y2="158.05"/><line class="cls-5" x1="147.15" y1="158.86" x2="147.04" y2="159.07"/><line class="cls-5" x1="146.5" y1="160.21" x2="146.45" y2="160.26"/><line class="cls-5" x1="146.45" y1="160.26" x2="146.39" y2="160.42"/><line class="cls-5" x1="146.12" y1="161.66" x2="146.07" y2="161.88"/><line class="cls-5" x1="145.74" y1="163.12" x2="145.69" y2="163.34"/><line class="cls-5" x1="145.37" y1="164.58" x2="145.31" y2="164.8"/><line class="cls-5" x1="145.04" y1="166.04" x2="144.99" y2="166.25"/><line class="cls-5" x1="144.66" y1="167.5" x2="144.61" y2="167.71"/><line class="cls-5" x1="144.29" y1="168.95" x2="144.23" y2="169.17"/><line class="cls-5" x1="143.96" y1="170.41" x2="143.91" y2="170.63"/><line class="cls-5" x1="143.58" y1="171.87" x2="143.53" y2="172.09"/><line class="cls-5" x1="143.04" y1="173.27" x2="142.88" y2="173.49"/><line class="cls-5" x1="142.23" y1="174.62" x2="142.13" y2="174.84"/><line class="cls-5" x1="141.48" y1="175.92" x2="141.37" y2="176.14"/><line class="cls-5" x1="140.72" y1="175.06" x2="140.56" y2="174.84"/><line class="cls-5" x1="140.29" y1="173.6" x2="140.29" y2="173.33"/><line class="cls-5" x1="140.24" y1="172.03" x2="140.18" y2="171.82"/><line class="cls-5" x1="140.13" y1="170.52" x2="140.13" y2="170.25"/><line class="cls-5" x1="140.18" y1="168.95" x2="140.18" y2="168.68"/><line class="cls-5" x1="140.24" y1="167.39" x2="140.29" y2="167.17"/><line class="cls-5" x1="140.34" y1="165.88" x2="140.34" y2="165.61"/><line class="cls-5" x1="139.53" y1="166.63" x2="139.37" y2="166.85"/><line class="cls-5" x1="138.56" y1="167.87" x2="138.4" y2="168.04"/><line class="cls-5" x1="137.59" y1="169.06" x2="137.43" y2="169.28"/><line class="cls-5" x1="136.62" y1="170.3" x2="136.46" y2="170.52"/><line class="cls-5" x1="135.59" y1="171.55" x2="135.43" y2="171.71"/><line class="cls-5" x1="134.51" y1="172.68" x2="134.35" y2="172.9"/><line class="cls-5" x1="133.43" y1="173.87" x2="133.27" y2="174.03"/><line class="cls-5" x1="132.3" y1="174.89" x2="132.08" y2="175.06"/><line class="cls-5" x1="131.06" y1="175.92" x2="130.84" y2="176.08"/><line class="cls-5" x1="129.81" y1="176.78" x2="129.6" y2="176.95"/><line class="cls-5" x1="128.46" y1="177.59" x2="128.25" y2="177.7"/><line class="cls-5" x1="127.11" y1="178.24" x2="126.9" y2="178.3"/><line class="cls-5" x1="125.71" y1="178.78" x2="125.49" y2="178.84"/><line class="cls-5" x1="124.25" y1="179.11" x2="124.04" y2="179.16"/><line class="cls-5" x1="122.79" y1="179.38" x2="122.52" y2="179.38"/><line class="cls-5" x1="121.23" y1="179.48" x2="120.96" y2="179.48"/><line class="cls-5" x1="119.66" y1="179.54" x2="119.39" y2="179.54"/><line class="cls-5" x1="118.04" y1="179.54" x2="117.77" y2="179.54"/><line class="cls-5" x1="116.48" y1="179.59" x2="116.26" y2="179.59"/><line class="cls-5" x1="116.26" y1="179.59" x2="116.21" y2="179.59"/><line class="cls-5" x1="114.91" y1="179.65" x2="114.64" y2="179.65"/><line class="cls-5" x1="113.34" y1="179.7" x2="113.07" y2="179.65"/><line class="cls-5" x1="111.78" y1="179.59" x2="111.51" y2="179.59"/><line class="cls-5" x1="110.16" y1="179.59" x2="109.89" y2="179.59"/><line class="cls-5" x1="108.59" y1="179.54" x2="108.48" y2="179.54"/><line class="cls-5" x1="108.48" y1="179.54" x2="108.32" y2="179.54"/><line class="cls-5" x1="107.03" y1="179.38" x2="106.76" y2="179.38"/><line class="cls-5" x1="105.46" y1="179.21" x2="105.19" y2="179.16"/><line class="cls-5" x1="103.89" y1="179" x2="103.68" y2="178.94"/><line class="cls-5" x1="102.44" y1="178.73" x2="102.22" y2="178.67"/><line class="cls-5" x1="100.92" y1="178.46" x2="100.65" y2="178.4"/><line class="cls-5" x1="99.41" y1="178.13" x2="99.2" y2="178.08"/><line class="cls-5" x1="97.95" y1="177.76" x2="97.74" y2="177.7"/><line class="cls-5" x1="96.5" y1="177.43" x2="96.28" y2="177.32"/><line class="cls-5" x1="95.04" y1="177" x2="94.82" y2="176.95"/><line class="cls-5" x1="93.58" y1="176.57" x2="93.36" y2="176.51"/><line class="cls-5" x1="92.18" y1="176.08" x2="91.96" y2="176.03"/><line class="cls-5" x1="90.77" y1="175.54" x2="90.56" y2="175.43"/><line class="cls-5" x1="89.37" y1="174.95" x2="89.15" y2="174.89"/><line class="cls-5" x1="88.02" y1="174.3" x2="87.8" y2="174.19"/><line class="cls-5" x1="86.67" y1="173.65" x2="86.45" y2="173.54"/><line class="cls-5" x1="85.32" y1="172.95" x2="85.1" y2="172.84"/><line class="cls-5" x1="83.97" y1="172.19" x2="83.75" y2="172.09"/><line class="cls-5" x1="82.67" y1="171.44" x2="82.46" y2="171.28"/><line class="cls-5" x1="81.38" y1="170.57" x2="81.16" y2="170.47"/><line class="cls-5" x1="80.13" y1="169.71" x2="79.92" y2="169.55"/><line class="cls-5" x1="78.84" y1="168.79" x2="78.62" y2="168.63"/><line class="cls-5" x1="77.6" y1="167.77" x2="77.38" y2="167.6"/><line class="cls-5" x1="76.41" y1="166.74" x2="76.19" y2="166.58"/><line class="cls-5" x1="75.27" y1="165.61" x2="75.11" y2="165.44"/><line class="cls-5" x1="74.19" y1="164.47" x2="74.03" y2="164.31"/><line class="cls-5" x1="73.17" y1="163.34" x2="73.01" y2="163.18"/><line class="cls-5" x1="72.14" y1="162.15" x2="72.03" y2="162.04"/><line class="cls-5" x1="72.03" y1="162.04" x2="71.98" y2="161.99"/><line class="cls-5" x1="71.17" y1="160.96" x2="71.01" y2="160.75"/><line class="cls-5" x1="70.2" y1="159.72" x2="70.09" y2="159.61"/><line class="cls-5" x1="70.09" y1="159.61" x2="70.04" y2="159.56"/><line class="cls-5" x1="69.33" y1="158.48" x2="69.23" y2="158.26"/><line class="cls-5" x1="68.47" y1="157.18" x2="68.42" y2="157.07"/><line class="cls-5" x1="68.42" y1="157.07" x2="68.36" y2="156.97"/><line class="cls-5" x1="67.71" y1="155.83" x2="67.61" y2="155.62"/><line class="cls-5" x1="66.96" y1="154.48" x2="66.9" y2="154.37"/><line class="cls-5" x1="66.9" y1="154.37" x2="66.85" y2="154.27"/><line class="cls-5" x1="66.36" y1="153.13" x2="66.26" y2="152.92"/><line class="cls-5" x1="65.72" y1="151.78" x2="65.66" y2="151.62"/><line class="cls-5" x1="65.66" y1="151.62" x2="65.66" y2="151.57"/><line class="cls-5" x1="65.18" y1="150.43" x2="65.12" y2="150.22"/><line class="cls-5" x1="64.64" y1="149.03" x2="64.53" y2="148.81"/><line class="cls-5" x1="64.15" y1="147.62" x2="64.1" y2="147.41"/><line class="cls-5" x1="63.72" y1="146.22" x2="63.66" y2="146"/><line class="cls-5" x1="63.34" y1="144.76" x2="63.29" y2="144.55"/><line class="cls-5" x1="63.02" y1="143.3" x2="62.96" y2="143.09"/><line class="cls-5" x1="62.75" y1="141.85" x2="62.69" y2="141.63"/><line class="cls-5" x1="62.48" y1="140.39" x2="62.42" y2="140.17"/><line class="cls-5" x1="62.26" y1="138.88" x2="62.26" y2="138.61"/><line class="cls-5" x1="62.15" y1="137.31" x2="62.1" y2="137.09"/><line class="cls-5" x1="62.1" y1="135.74" x2="62.1" y2="135.47"/><line class="cls-5" x1="62.1" y1="134.12" x2="62.1" y2="133.85"/><line class="cls-5" x1="62.21" y1="132.56" x2="62.21" y2="132.29"/><line class="cls-5" x1="62.31" y1="130.99" x2="62.31" y2="130.72"/><line class="cls-5" x1="62.53" y1="129.48" x2="62.58" y2="129.21"/><line class="cls-5" x1="62.75" y1="127.91" x2="62.8" y2="127.7"/><line class="cls-5" x1="63.07" y1="126.46" x2="63.12" y2="126.24"/><line class="cls-5" x1="63.39" y1="125" x2="63.45" y2="124.78"/><line class="cls-5" x1="63.77" y1="123.54" x2="63.83" y2="123.32"/><line class="cls-5" x1="64.15" y1="122.08" x2="64.2" y2="121.87"/><line class="cls-5" x1="64.69" y1="120.68" x2="64.74" y2="120.46"/><line class="cls-5" x1="65.18" y1="119.27" x2="65.28" y2="119.06"/><line class="cls-5" x1="65.77" y1="117.87" x2="65.88" y2="117.65"/><line class="cls-5" x1="66.36" y1="116.52" x2="66.47" y2="116.3"/><line class="cls-5" x1="67.07" y1="115.17" x2="67.17" y2="114.95"/><line class="cls-5" x1="67.82" y1="113.82" x2="67.93" y2="113.6"/><line class="cls-5" x1="68.63" y1="112.52" x2="68.74" y2="112.31"/><line class="cls-5" x1="69.44" y1="111.23" x2="69.6" y2="111.01"/><line class="cls-5" x1="70.36" y1="109.99" x2="70.52" y2="109.77"/><line class="cls-5" x1="71.33" y1="108.74" x2="71.49" y2="108.53"/><line class="cls-5" x1="72.36" y1="107.5" x2="72.52" y2="107.29"/><line class="cls-5" x1="73.38" y1="106.31" x2="73.55" y2="106.1"/><line class="cls-5" x1="74.46" y1="105.18" x2="74.63" y2="105.02"/><line class="cls-5" x1="75.6" y1="104.1" x2="75.76" y2="103.94"/><line class="cls-5" x1="76.79" y1="103.07" x2="77" y2="102.91"/><line class="cls-5" x1="78.03" y1="102.05" x2="78.19" y2="101.94"/><line class="cls-5" x1="78.19" y1="101.94" x2="78.24" y2="101.89"/><line class="cls-5" x1="79.27" y1="101.13" x2="79.49" y2="100.97"/><line class="cls-5" x1="80.51" y1="100.21" x2="80.67" y2="100.1"/><line class="cls-5" x1="80.67" y1="100.1" x2="80.73" y2="100.05"/><line class="cls-5" x1="81.81" y1="99.35" x2="82.02" y2="99.24"/><line class="cls-5" x1="83.1" y1="98.54" x2="83.27" y2="98.43"/><line class="cls-5" x1="83.27" y1="98.43" x2="83.32" y2="98.38"/><line class="cls-5" x1="84.45" y1="97.78" x2="84.67" y2="97.67"/><line class="cls-5" x1="85.8" y1="97.08" x2="85.97" y2="96.97"/><line class="cls-5" x1="85.97" y1="96.97" x2="86.02" y2="96.97"/><line class="cls-5" x1="87.15" y1="96.43" x2="87.37" y2="96.32"/><line class="cls-5" x1="88.56" y1="95.84" x2="88.77" y2="95.73"/><line class="cls-5" x1="89.96" y1="95.24" x2="90.18" y2="95.19"/><line class="cls-5" x1="91.37" y1="94.7" x2="91.58" y2="94.6"/><line class="cls-5" x1="92.77" y1="94.22" x2="92.99" y2="94.16"/><line class="cls-5" x1="94.17" y1="93.79" x2="94.39" y2="93.73"/><line class="cls-5" x1="95.63" y1="93.41" x2="95.85" y2="93.35"/><line class="cls-5" x1="97.09" y1="93.08" x2="97.31" y2="93.03"/><line class="cls-5" x1="98.55" y1="92.76" x2="98.76" y2="92.71"/><line class="cls-5" x1="100.01" y1="92.44" x2="100.28" y2="92.38"/><line class="cls-5" x1="101.57" y1="92.22" x2="101.84" y2="92.17"/><line class="cls-5" x1="103.14" y1="92" x2="103.3" y2="92"/><line class="cls-5" x1="103.3" y1="92" x2="103.41" y2="92"/><line class="cls-5" x1="104.7" y1="91.9" x2="104.92" y2="91.84"/><line class="cls-5" x1="106.22" y1="91.73" x2="106.22" y2="91.73"/><line class="cls-5" x1="106.22" y1="91.73" x2="106.49" y2="91.73"/><line class="cls-5" x1="107.78" y1="91.68" x2="108.05" y2="91.68"/><line class="cls-5" x1="109.4" y1="91.73" x2="109.67" y2="91.73"/><line class="cls-5" x1="110.97" y1="91.84" x2="111.24" y2="91.9"/><line class="cls-5" x1="112.53" y1="92" x2="112.8" y2="92"/><line class="cls-5" x1="114.1" y1="92.17" x2="114.37" y2="92.17"/><line class="cls-5" x1="115.67" y1="92.33" x2="115.88" y2="92.38"/><line class="cls-5" x1="117.18" y1="92.6" x2="117.45" y2="92.6"/><line class="cls-5" x1="118.69" y1="92.87" x2="118.96" y2="92.92"/><line class="cls-5" x1="120.26" y1="93.14" x2="120.26" y2="93.14"/><line class="cls-5" x1="120.26" y1="93.14" x2="120.47" y2="93.19"/><line class="cls-5" x1="121.71" y1="93.41" x2="121.93" y2="93.46"/><line class="cls-5" x1="123.17" y1="93.73" x2="123.39" y2="93.79"/><line class="cls-5" x1="124.63" y1="94.06" x2="124.85" y2="94.11"/><line class="cls-5" x1="126.09" y1="94.43" x2="126.3" y2="94.49"/><line class="cls-5" x1="127.55" y1="94.81" x2="127.76" y2="94.92"/><line class="cls-5" x1="128.9" y1="95.41" x2="129.11" y2="95.51"/><line class="cls-5" x1="130.25" y1="96.11" x2="130.46" y2="96.27"/><line class="cls-5" x1="131.54" y1="96.92" x2="131.76" y2="97.08"/><line class="cls-5" x1="132.78" y1="97.84" x2="133" y2="98"/><line class="cls-5" x1="134.03" y1="98.86" x2="134.24" y2="99.02"/><line class="cls-5" x1="135.21" y1="99.94" x2="135.38" y2="100.1"/><line class="cls-5" x1="136.29" y1="101.02" x2="136.46" y2="101.18"/><line class="cls-5" x1="137.32" y1="102.16" x2="137.48" y2="102.37"/><line class="cls-5" x1="138.24" y1="103.4" x2="138.4" y2="103.56"/><line class="cls-5" x1="139.16" y1="104.59" x2="139.32" y2="104.8"/><line class="cls-5" x1="140.24" y1="105.72" x2="140.4" y2="105.94"/><line class="cls-5" x1="141.42" y1="106.64" x2="141.64" y2="106.58"/><line class="cls-5" x1="142.56" y1="105.83" x2="142.67" y2="105.61"/><line class="cls-5" x1="143.53" y1="104.8" x2="143.75" y2="104.75"/><line class="cls-5" x1="144.72" y1="103.88" x2="144.88" y2="103.72"/><line class="cls-5" x1="146.07" y1="103.51" x2="146.23" y2="103.51"/><line class="cls-5" x1="146.23" y1="103.51" x2="146.28" y2="103.61"/><line class="cls-5" x1="146.82" y1="104.75" x2="146.93" y2="104.96"/><line class="cls-5" x1="147.53" y1="106.1" x2="147.58" y2="106.26"/><line class="cls-5" x1="147.58" y1="106.26" x2="147.58" y2="106.31"/><line class="cls-5" x1="147.9" y1="107.56" x2="147.96" y2="107.77"/><line class="cls-5" x1="148.28" y1="109.01" x2="148.34" y2="109.23"/><line class="cls-5" x1="148.66" y1="110.47" x2="148.71" y2="110.69"/><line class="cls-5" x1="149.09" y1="111.93" x2="149.15" y2="112.15"/><line class="cls-5" x1="149.52" y1="113.39" x2="149.58" y2="113.6"/><path d="M54.19,13.09h4.39v.78H55v2.34h3.3V17H55v3.18h-.84Z"/><path d="M59.37,19.21,62,16.61l.44-.44a3.35,3.35,0,0,0,.31-.4,1.38,1.38,0,0,0,.19-.41,1.68,1.68,0,0,0,.06-.47,1.35,1.35,0,0,0-.1-.5,1.13,1.13,0,0,0-.28-.37,1.06,1.06,0,0,0-.41-.24,1.35,1.35,0,0,0-.5-.09,1.32,1.32,0,0,0-.89.31,1.36,1.36,0,0,0-.45.82l-.91-.08a2.07,2.07,0,0,1,.26-.76,1.9,1.9,0,0,1,.49-.56,2.21,2.21,0,0,1,.67-.33,2.72,2.72,0,0,1,1.63,0,1.93,1.93,0,0,1,.68.36,1.74,1.74,0,0,1,.47.6,1.84,1.84,0,0,1,.18.83,2.24,2.24,0,0,1-.12.76,2.31,2.31,0,0,1-.31.63,4.51,4.51,0,0,1-.44.54c-.16.17-.33.34-.51.5l-2.18,2.05v0h3.61v.78H59.37Z"/><path d="M64.93,19.21l2.67-2.6.44-.44a3.35,3.35,0,0,0,.31-.4,1.38,1.38,0,0,0,.19-.41,1.68,1.68,0,0,0,.06-.47,1.35,1.35,0,0,0-.1-.5,1.13,1.13,0,0,0-.28-.37,1.06,1.06,0,0,0-.41-.24,1.35,1.35,0,0,0-.5-.09,1.32,1.32,0,0,0-.89.31,1.36,1.36,0,0,0-.45.82l-.91-.08a2.07,2.07,0,0,1,.26-.76,1.9,1.9,0,0,1,.49-.56,2.21,2.21,0,0,1,.67-.33,2.72,2.72,0,0,1,1.63,0,1.93,1.93,0,0,1,.68.36,1.63,1.63,0,0,1,.47.6,1.84,1.84,0,0,1,.18.83,2.24,2.24,0,0,1-.12.76,2.31,2.31,0,0,1-.31.63,4.51,4.51,0,0,1-.44.54c-.16.17-.33.34-.51.5l-2.18,2.05v0h3.61v.78H64.93Z"/><path d="M70.37,16.63a7.88,7.88,0,0,1,.1-1.25,3.71,3.71,0,0,1,.37-1.18,2.41,2.41,0,0,1,.73-.88,2.22,2.22,0,0,1,2.39,0,2.44,2.44,0,0,1,.74.88,4,4,0,0,1,.37,1.18,9.26,9.26,0,0,1,.1,1.25,9.14,9.14,0,0,1-.1,1.25,4,4,0,0,1-.37,1.19A2.53,2.53,0,0,1,74,20a2.27,2.27,0,0,1-2.39,0,2.5,2.5,0,0,1-.73-.88,3.77,3.77,0,0,1-.37-1.19A7.79,7.79,0,0,1,70.37,16.63Zm.84,0c0,.18,0,.37,0,.58s0,.43.07.65a4.47,4.47,0,0,0,.16.63,1.9,1.9,0,0,0,.28.55,1.45,1.45,0,0,0,.43.39,1.21,1.21,0,0,0,.6.14,1.27,1.27,0,0,0,.6-.14,1.42,1.42,0,0,0,.42-.39,1.9,1.9,0,0,0,.28-.55,3.42,3.42,0,0,0,.16-.63c0-.22.06-.43.08-.65s0-.4,0-.58,0-.36,0-.58,0-.43-.08-.64a3.53,3.53,0,0,0-.16-.64,2,2,0,0,0-.28-.55,1.27,1.27,0,0,0-.42-.38,1.16,1.16,0,0,0-.6-.15,1.11,1.11,0,0,0-.6.15,1.3,1.3,0,0,0-.43.38,2,2,0,0,0-.28.55,4.61,4.61,0,0,0-.16.64c0,.21-.06.43-.07.64S71.21,16.46,71.21,16.63Z"/><path d="M79.15,20.17h-.84v-6h0L77,15.24l-.5-.61,1.9-1.54h.73Z"/><path d="M81.49,16.63a7.88,7.88,0,0,1,.1-1.25A3.71,3.71,0,0,1,82,14.2a2.41,2.41,0,0,1,.73-.88,2.22,2.22,0,0,1,2.39,0,2.44,2.44,0,0,1,.74.88,4,4,0,0,1,.37,1.18,9.26,9.26,0,0,1,.1,1.25,9.14,9.14,0,0,1-.1,1.25,4,4,0,0,1-.37,1.19,2.53,2.53,0,0,1-.74.88,2.27,2.27,0,0,1-2.39,0,2.5,2.5,0,0,1-.73-.88,3.77,3.77,0,0,1-.37-1.19A7.79,7.79,0,0,1,81.49,16.63Zm.84,0c0,.18,0,.37,0,.58a4.78,4.78,0,0,0,.07.65,4.47,4.47,0,0,0,.16.63,1.9,1.9,0,0,0,.28.55,1.45,1.45,0,0,0,.43.39,1.21,1.21,0,0,0,.6.14,1.27,1.27,0,0,0,.6-.14,1.55,1.55,0,0,0,.42-.39,1.9,1.9,0,0,0,.28-.55,4.47,4.47,0,0,0,.16-.63c0-.22.06-.43.08-.65s0-.4,0-.58,0-.36,0-.58,0-.43-.08-.64a4.61,4.61,0,0,0-.16-.64,2,2,0,0,0-.28-.55,1.37,1.37,0,0,0-.42-.38,1.16,1.16,0,0,0-.6-.15,1.11,1.11,0,0,0-.6.15,1.3,1.3,0,0,0-.43.38,2,2,0,0,0-.28.55,4.79,4.79,0,0,0-.23,1.28C82.33,16.27,82.33,16.46,82.33,16.63Z"/><path d="M87.05,16.63a7.88,7.88,0,0,1,.1-1.25,3.71,3.71,0,0,1,.37-1.18,2.41,2.41,0,0,1,.73-.88,2.22,2.22,0,0,1,2.39,0,2.44,2.44,0,0,1,.74.88,4,4,0,0,1,.37,1.18,9.26,9.26,0,0,1,.1,1.25,9.14,9.14,0,0,1-.1,1.25,4,4,0,0,1-.37,1.19,2.53,2.53,0,0,1-.74.88,2.27,2.27,0,0,1-2.39,0,2.5,2.5,0,0,1-.73-.88,3.77,3.77,0,0,1-.37-1.19A7.79,7.79,0,0,1,87.05,16.63Zm.84,0c0,.18,0,.37,0,.58a4.78,4.78,0,0,0,.07.65,4.47,4.47,0,0,0,.16.63,1.9,1.9,0,0,0,.28.55,1.45,1.45,0,0,0,.43.39,1.21,1.21,0,0,0,.6.14,1.27,1.27,0,0,0,.6-.14,1.55,1.55,0,0,0,.42-.39,1.9,1.9,0,0,0,.28-.55,3.42,3.42,0,0,0,.16-.63c0-.22.06-.43.08-.65s0-.4,0-.58,0-.36,0-.58,0-.43-.08-.64a3.53,3.53,0,0,0-.16-.64,2,2,0,0,0-.28-.55,1.37,1.37,0,0,0-.42-.38,1.16,1.16,0,0,0-.6-.15,1.11,1.11,0,0,0-.6.15,1.3,1.3,0,0,0-.43.38,2,2,0,0,0-.28.55,4.79,4.79,0,0,0-.23,1.28C87.89,16.27,87.89,16.46,87.89,16.63Z"/><path d="M95.75,17.22l0,0a1.37,1.37,0,0,1-.47.16,2.17,2.17,0,0,1-.48.05,2.23,2.23,0,0,1-.86-.16,2,2,0,0,1-.68-.45,2,2,0,0,1-.44-.7,2.38,2.38,0,0,1-.16-.91,2.34,2.34,0,0,1,.18-.93,1.92,1.92,0,0,1,.5-.69,2.16,2.16,0,0,1,.75-.44,2.81,2.81,0,0,1,1.87,0,2.3,2.3,0,0,1,.76.44,2,2,0,0,1,.5.69,2.34,2.34,0,0,1,.18.93,3.27,3.27,0,0,1,0,.57,3.65,3.65,0,0,1-.14.5,4,4,0,0,1-.22.47c-.08.15-.17.3-.26.45l-1.88,3h-1ZM95,16.69a1.72,1.72,0,0,0,.6-.1,1.39,1.39,0,0,0,.48-.3,1.43,1.43,0,0,0,.33-.47,1.57,1.57,0,0,0,.12-.63,1.59,1.59,0,0,0-.12-.62,1.43,1.43,0,0,0-.33-.47,1.39,1.39,0,0,0-.48-.3,1.73,1.73,0,0,0-.6-.11,1.64,1.64,0,0,0-.6.11,1.44,1.44,0,0,0-.49.3,1.4,1.4,0,0,0-.32.47,1.59,1.59,0,0,0-.12.62,1.57,1.57,0,0,0,.12.63,1.4,1.4,0,0,0,.32.47,1.44,1.44,0,0,0,.49.3A1.64,1.64,0,0,0,95,16.69Z"/><path d="M97.79,20.92h5v.5h-5Z"/><path d="M107,17.77h1v.78h-1v1.62h-.84V18.55h-3v-.93L106,13.09h1Zm-.84-3.7h0l-2.26,3.7h2.28Z"/><path d="M110.9,16.44l-2.38-3.35h1.08l1.91,2.77,1.89-2.77h1l-2.38,3.35,2.61,3.73h-1.11L111.47,17l-2.11,3.14h-1Z"/><path d="M116.63,16l0,0a1.77,1.77,0,0,1,.46-.16,3,3,0,0,1,.49-.05,2.38,2.38,0,0,1,.85.16,2,2,0,0,1,.68.46,2.11,2.11,0,0,1,.45.7,2.66,2.66,0,0,1,.16.9,2.27,2.27,0,0,1-.18.93,2,2,0,0,1-.5.7,2.48,2.48,0,0,1-.76.44,3,3,0,0,1-1.87,0,2.32,2.32,0,0,1-.75-.44,1.87,1.87,0,0,1-.5-.7,2.27,2.27,0,0,1-.18-.93,2.76,2.76,0,0,1,.19-1.07,5.42,5.42,0,0,1,.48-.92l1.88-3h1Zm.74.53a1.64,1.64,0,0,0-.6.11,1.44,1.44,0,0,0-.49.3,1.4,1.4,0,0,0-.32.47,1.59,1.59,0,0,0-.12.62,1.57,1.57,0,0,0,.12.63,1.4,1.4,0,0,0,.32.47,1.44,1.44,0,0,0,.49.3,1.64,1.64,0,0,0,.6.1,1.72,1.72,0,0,0,.6-.1,1.5,1.5,0,0,0,.48-.3,1.43,1.43,0,0,0,.33-.47,1.57,1.57,0,0,0,.12-.63,1.59,1.59,0,0,0-.12-.62,1.43,1.43,0,0,0-.33-.47,1.5,1.5,0,0,0-.48-.3A1.73,1.73,0,0,0,117.37,16.57Z"/><path d="M120.53,16.63a7.88,7.88,0,0,1,.1-1.25A3.71,3.71,0,0,1,121,14.2a2.41,2.41,0,0,1,.73-.88,2.22,2.22,0,0,1,2.39,0,2.44,2.44,0,0,1,.74.88,4,4,0,0,1,.37,1.18,9.26,9.26,0,0,1,.1,1.25,9.14,9.14,0,0,1-.1,1.25,4,4,0,0,1-.37,1.19,2.53,2.53,0,0,1-.74.88,2.27,2.27,0,0,1-2.39,0,2.5,2.5,0,0,1-.73-.88,3.77,3.77,0,0,1-.37-1.19A7.79,7.79,0,0,1,120.53,16.63Zm.84,0c0,.18,0,.37,0,.58a4.78,4.78,0,0,0,.07.65,4.47,4.47,0,0,0,.16.63,1.9,1.9,0,0,0,.28.55,1.45,1.45,0,0,0,.43.39,1.21,1.21,0,0,0,.6.14,1.27,1.27,0,0,0,.6-.14A1.55,1.55,0,0,0,124,19a1.9,1.9,0,0,0,.28-.55,4.47,4.47,0,0,0,.16-.63c0-.22.06-.43.08-.65s0-.4,0-.58,0-.36,0-.58,0-.43-.08-.64a4.61,4.61,0,0,0-.16-.64,2,2,0,0,0-.28-.55,1.37,1.37,0,0,0-.42-.38,1.16,1.16,0,0,0-.6-.15,1.11,1.11,0,0,0-.6.15,1.3,1.3,0,0,0-.43.38,2,2,0,0,0-.28.55,4.79,4.79,0,0,0-.23,1.28C121.37,16.27,121.37,16.46,121.37,16.63Z"/><path d="M125.77,13.09h.93L128.31,19h0l1.74-5.88H131L132.74,19h0l1.64-5.88h.88l-2.08,7.08h-.91l-1.75-6h0l-1.76,6h-.92Z"/><path d="M139,13.09h.84v3h3.78v-3h.84v7.08h-.84v-3.3h-3.78v3.3H139Z"/><path d="M146.28,13.09h.84v6.3h3.24v.78h-4.08Z"/></g></svg>