<svg id="Foglio" xmlns="http://www.w3.org/2000/svg" viewBox="0 0 300 263"><defs><style>.cls-1,.cls-3{fill:none;stroke-width:0.5px;}.cls-1{stroke:#000;}.cls-2{isolation:isolate;}.cls-3{stroke:#1d1d1b;stroke-miterlimit:3.86;}</style></defs><title>foglio-ceiling-wall-scarpa-flos-F2400057-spech-tech-02-300x263-01</title><line class="cls-1" x1="245.95" y1="226.64" x2="291.86" y2="226.84"/><line class="cls-1" x1="245.95" y1="225.88" x2="245.94" y2="227.41"/><line class="cls-1" x1="291.86" y1="226.08" x2="291.85" y2="227.6"/><g class="cls-2"><path d="M250,242.24l0,0a2,2,0,0,1-.73.29,4.3,4.3,0,0,1-.84.09,3.45,3.45,0,0,1-2.46-1,3.23,3.23,0,0,1-.72-1.11,3.61,3.61,0,0,1-.26-1.41,3.43,3.43,0,0,1,.28-1.42,3.08,3.08,0,0,1,.77-1.1,3.49,3.49,0,0,1,1.17-.72,4.39,4.39,0,0,1,2.95,0,3.74,3.74,0,0,1,1.16.73,3.18,3.18,0,0,1,.76,1.11,3.59,3.59,0,0,1,.27,1.42,4.38,4.38,0,0,1-.29,1.65,9.53,9.53,0,0,1-.7,1.39l-3.08,5h-1.36Zm1.17-3.14a2.66,2.66,0,0,0-.18-1,2.28,2.28,0,0,0-.52-.77,2.41,2.41,0,0,0-.8-.5,2.61,2.61,0,0,0-1-.19,2.8,2.8,0,0,0-1,.18,2.57,2.57,0,0,0-.81.5,2.24,2.24,0,0,0-.52.76,2.77,2.77,0,0,0,0,2,2.18,2.18,0,0,0,.52.78,2.26,2.26,0,0,0,.8.5,2.76,2.76,0,0,0,1,.18,2.8,2.8,0,0,0,1-.17,2.25,2.25,0,0,0,.81-.5,2.38,2.38,0,0,0,.52-.77A2.64,2.64,0,0,0,251.14,239.1Z"/><path d="M260.65,236.88l-4.6,10.25h-1.3l4.7-10.26-5.52,0v-1l6.72,0Z"/><path d="M267.54,241.36c0-.28,0-.56,0-.83s0-.56,0-.84h1.14v1.13h0a2.53,2.53,0,0,1,1.07-1,3,3,0,0,1,1.36-.33,3.72,3.72,0,0,1,.64.06,2.83,2.83,0,0,1,.67.24,2.14,2.14,0,0,1,.59.47,2.44,2.44,0,0,1,.47.79,2.48,2.48,0,0,1,1-1.13,2.78,2.78,0,0,1,1.45-.41,2.73,2.73,0,0,1,2.13.77,3.12,3.12,0,0,1,.68,2.17l0,4.75h-1.06l0-4.37a3.27,3.27,0,0,0-.39-1.75,1.67,1.67,0,0,0-1.49-.61,2,2,0,0,0-1,.22,1.84,1.84,0,0,0-.65.62,2.63,2.63,0,0,0-.37.87,4.74,4.74,0,0,0-.11,1l0,4h-1.05v-4.36a3.09,3.09,0,0,0-.39-1.75,1.62,1.62,0,0,0-1.48-.61l-.44.06a1.71,1.71,0,0,0-.72.35,2.57,2.57,0,0,0-.67.86,3.61,3.61,0,0,0-.3,1.6v3.84h-1.06Z"/><path d="M281.18,241.42c0-.28,0-.56,0-.84l-.06-.83h1.14v1.13h0a2.45,2.45,0,0,1,1.06-1,2.87,2.87,0,0,1,1.36-.33,3.83,3.83,0,0,1,.65.06,2.39,2.39,0,0,1,.66.24,2.34,2.34,0,0,1,.6.47,2.85,2.85,0,0,1,.47.79,2.38,2.38,0,0,1,1-1.13,2.64,2.64,0,0,1,1.45-.41,2.71,2.71,0,0,1,2.12.77,3.1,3.1,0,0,1,.68,2.17l0,4.75h-1.06l0-4.36a3.18,3.18,0,0,0-.39-1.75,1.64,1.64,0,0,0-1.49-.61,1.91,1.91,0,0,0-1,.22,1.93,1.93,0,0,0-.65.62,2.42,2.42,0,0,0-.36.87,4.17,4.17,0,0,0-.12,1l0,4h-1.05l0-4.37a3.16,3.16,0,0,0-.4-1.74,1.65,1.65,0,0,0-1.48-.62,2.52,2.52,0,0,0-.44.07,1.6,1.6,0,0,0-.72.35,2.56,2.56,0,0,0-.66.86,3.6,3.6,0,0,0-.31,1.6v3.84h-1.06Z"/></g><line class="cls-1" x1="233.53" y1="226.82" x2="28.23" y2="226.82"/><line class="cls-1" x1="233.53" y1="228.36" x2="233.53" y2="225.19"/><line class="cls-1" x1="28.23" y1="228.36" x2="28.23" y2="225.19"/><g class="cls-2"><path d="M100.78,240.76a3.7,3.7,0,0,1,.68,1.16,4.2,4.2,0,0,1,.25,1.45,4,4,0,0,1-.3,1.56A3.71,3.71,0,0,1,99.33,247a4.35,4.35,0,0,1-1.61.29,4.2,4.2,0,0,1-1.4-.22,3.72,3.72,0,0,1-1.11-.61l-1.07,1.09-.51-.5L94.68,246A3.78,3.78,0,0,1,94,244.8a4.21,4.21,0,0,1-.24-1.43,4,4,0,0,1,.29-1.57,3.73,3.73,0,0,1,2.08-2.07,4.45,4.45,0,0,1,3-.08,4,4,0,0,1,1.15.61l1-1.09.52.5Zm-1.25.25a2.69,2.69,0,0,0-1.81-.62,2.91,2.91,0,0,0-1.17.23,2.71,2.71,0,0,0-.88.63,2.81,2.81,0,0,0-.56.95,3.2,3.2,0,0,0-.2,1.17,3,3,0,0,0,.54,1.82Zm-3.6,4.72a2.43,2.43,0,0,0,.8.45,2.86,2.86,0,0,0,1,.16,3,3,0,0,0,1.18-.23,2.71,2.71,0,0,0,.89-.63,3,3,0,0,0,.57-.95,3.41,3.41,0,0,0,.2-1.16,3.14,3.14,0,0,0-.55-1.83Z"/><path d="M110.19,240.65h.59a3.69,3.69,0,0,0,1-.12,2,2,0,0,0,.79-.36,1.68,1.68,0,0,0,.54-.64,2.19,2.19,0,0,0,.2-1,1.82,1.82,0,0,0-.55-1.42,2.21,2.21,0,0,0-1.55-.5,2.36,2.36,0,0,0-1.26.32,2.56,2.56,0,0,0-.9.92l-1-.51a3.33,3.33,0,0,1,1.3-1.35,3.75,3.75,0,0,1,1.83-.44,4.07,4.07,0,0,1,1.27.19,3.18,3.18,0,0,1,1,.57,2.88,2.88,0,0,1,.71.93,2.94,2.94,0,0,1,.26,1.25,2.54,2.54,0,0,1-.15.88,2.69,2.69,0,0,1-.42.76,3.06,3.06,0,0,1-.61.58,2.57,2.57,0,0,1-.74.37l.05,0a2.34,2.34,0,0,1,.88.36,2.51,2.51,0,0,1,.69.65,3.06,3.06,0,0,1,.45.86,3.39,3.39,0,0,1,.16,1,3.26,3.26,0,0,1-.29,1.39,3,3,0,0,1-.79,1,3.3,3.3,0,0,1-1.15.63,4.6,4.6,0,0,1-3.57-.32,3.35,3.35,0,0,1-1.39-1.75l1.22-.36a2.33,2.33,0,0,0,.85,1.2,2.72,2.72,0,0,0,1.6.4,2.53,2.53,0,0,0,.91-.17,2.16,2.16,0,0,0,.76-.45,2,2,0,0,0,.51-.71,2.27,2.27,0,0,0,.18-.91,2.21,2.21,0,0,0-.24-1.08,1.94,1.94,0,0,0-.64-.72,2.64,2.64,0,0,0-.92-.39,4.7,4.7,0,0,0-1.08-.12h-.49Z"/><path d="M123.4,236.84l-4.56,10.27h-1.29l4.65-10.27h-5.52v-1.06h6.72Z"/><path d="M129.16,235.59a3.24,3.24,0,0,1,2,.56,3.86,3.86,0,0,1,1.17,1.42,6.45,6.45,0,0,1,.56,1.9,14,14,0,0,1,0,3.95,6.45,6.45,0,0,1-.56,1.9,3.86,3.86,0,0,1-1.17,1.42,3.73,3.73,0,0,1-3.93,0,3.67,3.67,0,0,1-1.17-1.42,6.17,6.17,0,0,1-.56-1.9,13.08,13.08,0,0,1,0-3.95,6.17,6.17,0,0,1,.56-1.9,3.67,3.67,0,0,1,1.17-1.42A3.21,3.21,0,0,1,129.16,235.59Zm0,1.06a2.06,2.06,0,0,0-1.46.49,3.08,3.08,0,0,0-.81,1.23,6.18,6.18,0,0,0-.34,1.57c0,.56-.07,1.06-.07,1.51s0,.94.07,1.5a6.18,6.18,0,0,0,.34,1.57,3.08,3.08,0,0,0,.81,1.23,2.07,2.07,0,0,0,1.46.5,2.09,2.09,0,0,0,1.47-.5,3.3,3.3,0,0,0,.81-1.23,6.18,6.18,0,0,0,.34-1.57c.05-.56.07-1.06.07-1.5s0-.95-.07-1.51a6.18,6.18,0,0,0-.34-1.57,3.3,3.3,0,0,0-.81-1.23A2.09,2.09,0,0,0,129.16,236.65Z"/><path d="M139.21,241.29c0-.28,0-.56,0-.84l-.06-.83h1.14v1.14h0a2.47,2.47,0,0,1,1.06-1,3,3,0,0,1,1.35-.34,3.74,3.74,0,0,1,.65.06,2.45,2.45,0,0,1,.67.24,2.34,2.34,0,0,1,.6.47,2.65,2.65,0,0,1,.47.78,2.38,2.38,0,0,1,1-1.13,3.06,3.06,0,0,1,3.57.34,3.12,3.12,0,0,1,.69,2.17v4.75h-1.06v-4.37a3.11,3.11,0,0,0-.4-1.74,1.62,1.62,0,0,0-1.48-.61,1.82,1.82,0,0,0-1.65.85,2.6,2.6,0,0,0-.35.87,4.17,4.17,0,0,0-.12,1v4h-1v-4.37a3.2,3.2,0,0,0-.4-1.74,1.65,1.65,0,0,0-1.49-.61l-.44.06a1.65,1.65,0,0,0-.71.36,2.55,2.55,0,0,0-.67.86,3.66,3.66,0,0,0-.29,1.6v3.84h-1.06Z"/><path d="M152.84,241.29c0-.28,0-.56,0-.84l-.06-.83h1.14v1.14h0a2.44,2.44,0,0,1,1.07-1,2.94,2.94,0,0,1,1.35-.34,3.83,3.83,0,0,1,.65.06,2.39,2.39,0,0,1,.66.24,2.34,2.34,0,0,1,.6.47,2.45,2.45,0,0,1,.47.78,2.38,2.38,0,0,1,1-1.13,3.06,3.06,0,0,1,3.57.34,3.12,3.12,0,0,1,.69,2.17v4.75h-1v-4.37a3.11,3.11,0,0,0-.41-1.74,1.62,1.62,0,0,0-1.48-.61,2,2,0,0,0-1,.23,1.9,1.9,0,0,0-.64.62,2.42,2.42,0,0,0-.36.87,4.17,4.17,0,0,0-.11,1v4H157.9v-4.37a3.11,3.11,0,0,0-.4-1.74,1.64,1.64,0,0,0-1.49-.61l-.44.06a1.65,1.65,0,0,0-.71.36,2.55,2.55,0,0,0-.67.86,3.66,3.66,0,0,0-.29,1.6v3.84h-1.06Z"/></g><path class="cls-3" d="M28.33,101.67h205.2V217.1H28.33Z"/><path class="cls-3" d="M233.53,217.1h-44.4c-29.55,0-55-21-54.72-55.1.28-29.89,12-41.84,17.2-46.45,3.73-3.34,18.89-14.23,48.67-13.88,26.34.31,33.25,0,33.25,0Z"/><path class="cls-3" d="M28.23,102s28.42-.8,44.34-.29c29.54,1,55.47,22,55.15,56.08-.27,29.89-12.47,41.38-17.19,46.45-3.85,4.13-18.68,13.2-48.47,12.9-26-.25-33.83.14-33.83.14Z"/><rect class="cls-3" x="246.55" y="101.5" width="45.91" height="115.74"/><line class="cls-1" x1="19.61" y1="101.67" x2="19.73" y2="217.1"/><line class="cls-1" x1="21.15" y1="101.67" x2="17.98" y2="101.67"/><line class="cls-1" x1="21.27" y1="217.1" x2="18.1" y2="217.1"/><g class="cls-2"><path d="M15.93,185l0,7.2H14.56L10,187.64c-.17-.17-.35-.35-.54-.52a4.35,4.35,0,0,0-.6-.46,3.25,3.25,0,0,0-.67-.34,2.07,2.07,0,0,0-.74-.14,2,2,0,0,0-.83.17,1.71,1.71,0,0,0-.63.46,2.46,2.46,0,0,0-.4.71,2.9,2.9,0,0,0-.14.84,2.33,2.33,0,0,0,.48,1.48,2.12,2.12,0,0,0,1.29.79l-.14,1.22a3.16,3.16,0,0,1-2-1.18,3.44,3.44,0,0,1-.71-2.23,4.32,4.32,0,0,1,.19-1.31,3.09,3.09,0,0,1,.56-1.08,2.71,2.71,0,0,1,.92-.75A2.92,2.92,0,0,1,7.35,185a3.29,3.29,0,0,1,1.2.21,4.9,4.9,0,0,1,1,.52,7,7,0,0,1,.91.74l.84.84,3.52,3.59,0-6Z"/><path d="M16,178.49v1.15l-9.89-.06,1.78,2-.87.72-2.35-2.89v-1Z"/><path d="M4.49,170.65a3.18,3.18,0,0,1,.57-2,3.78,3.78,0,0,1,1.43-1.16,6.44,6.44,0,0,1,1.9-.55,15.25,15.25,0,0,1,2-.13,13.82,13.82,0,0,1,2,.15,6.61,6.61,0,0,1,1.89.57,3.9,3.9,0,0,1,1.42,1.18,3.24,3.24,0,0,1,.55,2,3.31,3.31,0,0,1-.57,2,3.94,3.94,0,0,1-1.43,1.16,6.76,6.76,0,0,1-1.9.55,15.29,15.29,0,0,1-2,.13,13.63,13.63,0,0,1-2-.16,6.46,6.46,0,0,1-1.9-.57A3.82,3.82,0,0,1,5,172.62,3.19,3.19,0,0,1,4.49,170.65Zm1,0A2.09,2.09,0,0,0,6,172.12a3.08,3.08,0,0,0,1.23.81,5.73,5.73,0,0,0,1.56.36c.56.05,1.06.08,1.51.08s.95,0,1.5-.07A5.69,5.69,0,0,0,13.4,173a3.2,3.2,0,0,0,1.24-.8,2.07,2.07,0,0,0,.5-1.46,2,2,0,0,0-.49-1.47,3.1,3.1,0,0,0-1.22-.82,6.09,6.09,0,0,0-1.57-.35c-.55,0-1-.08-1.5-.08s-.95,0-1.51.06a6.27,6.27,0,0,0-1.57.34,3.17,3.17,0,0,0-1.23.8A2.07,2.07,0,0,0,5.54,170.65Z"/><path d="M10.24,160.63l-.83,0-.84,0v-1.13H9.72v0a2.49,2.49,0,0,1-1-1.07,3.08,3.08,0,0,1-.33-1.35,3.79,3.79,0,0,1,.07-.65,2,2,0,0,1,.24-.66,2,2,0,0,1,.47-.6,2.63,2.63,0,0,1,.79-.47,2.43,2.43,0,0,1-1.13-1,3.09,3.09,0,0,1,.36-3.58,3.14,3.14,0,0,1,2.17-.67l4.75,0v1.05l-4.37,0a3,3,0,0,0-1.74.39,1.63,1.63,0,0,0-.62,1.48,1.86,1.86,0,0,0,.23,1,1.84,1.84,0,0,0,.61.66,2.84,2.84,0,0,0,.87.36,4.17,4.17,0,0,0,1,.12l4,0v1.06l-4.37,0A3.23,3.23,0,0,0,10,156a1.67,1.67,0,0,0-.62,1.49,3.61,3.61,0,0,0,.06.44,1.62,1.62,0,0,0,.35.71,2.55,2.55,0,0,0,.86.67,3.63,3.63,0,0,0,1.6.31l3.84,0v1Z"/><path d="M10.32,147c-.28,0-.56,0-.84,0l-.83,0v-1.14H9.79v0a2.53,2.53,0,0,1-1-1.07,3.12,3.12,0,0,1-.33-1.35,3,3,0,0,1,.07-.65,2.42,2.42,0,0,1,.23-.67,2.19,2.19,0,0,1,.48-.59,2.45,2.45,0,0,1,.78-.47,2.51,2.51,0,0,1-1.12-1,2.69,2.69,0,0,1-.41-1.45,2.73,2.73,0,0,1,.77-2.13,3.12,3.12,0,0,1,2.17-.67l4.75,0v1.06l-4.37,0a3.09,3.09,0,0,0-1.75.39,1.61,1.61,0,0,0-.61,1.48,1.86,1.86,0,0,0,.22,1,2,2,0,0,0,.61.66,3.07,3.07,0,0,0,.87.36,4.31,4.31,0,0,0,1,.12l4,0V142l-4.37,0a3.27,3.27,0,0,0-1.75.39,1.67,1.67,0,0,0-.61,1.49,3.61,3.61,0,0,0,.06.44,1.67,1.67,0,0,0,.35.71,2.45,2.45,0,0,0,.86.67,3.58,3.58,0,0,0,1.59.31l3.84,0V147Z"/></g></svg>