<svg id="frisbi" xmlns="http://www.w3.org/2000/svg" xmlns:xlink="http://www.w3.org/1999/xlink" viewBox="0 0 300 263"><defs><style>.cls-1,.cls-3,.cls-5{fill:none;}.cls-2{isolation:isolate;}.cls-3{stroke:#000;}.cls-3,.cls-5{stroke-width:0.5px;}.cls-4{clip-path:url(#clip-path);}.cls-5{stroke:#1d1d1b;stroke-miterlimit:3.86;}</style><clipPath id="clip-path"><rect id="SVGID" class="cls-1" x="98.7" y="44.6" width="102.05" height="172.74"/></clipPath></defs><title>frisbi-suspension-castiglioni-flos-F2500000-spech-tech-02-300x263</title><g class="cls-2"><path d="M69.54,175.28l10.27,4.56v1.29l-10.27-4.65V182H68.48v-6.72Z"/><path d="M73.35,170.7v-.59a4.19,4.19,0,0,0-.11-1,2.3,2.3,0,0,0-.36-.79,1.72,1.72,0,0,0-.65-.54,2.19,2.19,0,0,0-1-.2,1.82,1.82,0,0,0-1.42.55,2.23,2.23,0,0,0-.5,1.54,2.47,2.47,0,0,0,.32,1.27,2.42,2.42,0,0,0,.93.89l-.52,1a3.46,3.46,0,0,1-1.35-1.3,3.75,3.75,0,0,1-.44-1.83,4.38,4.38,0,0,1,.19-1.27,3.18,3.18,0,0,1,.57-1,2.74,2.74,0,0,1,.93-.71,3,3,0,0,1,1.26-.26,2.58,2.58,0,0,1,.88.15,3,3,0,0,1,.75.41,3.1,3.1,0,0,1,.58.62,2.89,2.89,0,0,1,.38.74l0-.05a2.34,2.34,0,0,1,.36-.88,2.67,2.67,0,0,1,.65-.69,3.06,3.06,0,0,1,.86-.45,3.39,3.39,0,0,1,1-.16,3.23,3.23,0,0,1,1.39.29,3,3,0,0,1,1,.79,3.65,3.65,0,0,1,.63,1.15,4.5,4.5,0,0,1,.21,1.39,4.21,4.21,0,0,1-.54,2.17,3.3,3.3,0,0,1-1.74,1.4l-.37-1.22a2.46,2.46,0,0,0,1.21-.85,2.8,2.8,0,0,0,.39-1.6,2.53,2.53,0,0,0-.16-.91,2.34,2.34,0,0,0-.46-.76,2,2,0,0,0-.71-.51,2.27,2.27,0,0,0-.91-.18,2.21,2.21,0,0,0-1.08.24,1.83,1.83,0,0,0-.71.64,2.68,2.68,0,0,0-.4.91,4.86,4.86,0,0,0-.12,1.09v.49Z"/><path d="M68.29,160.62a3.24,3.24,0,0,1,.56-2,3.77,3.77,0,0,1,1.43-1.16,6,6,0,0,1,1.89-.56,13.82,13.82,0,0,1,2-.15,13.58,13.58,0,0,1,2,.15,6.17,6.17,0,0,1,1.9.56,3.66,3.66,0,0,1,1.42,1.16,3.75,3.75,0,0,1,0,3.94A3.78,3.78,0,0,1,78,163.76a6.45,6.45,0,0,1-1.9.56,15.09,15.09,0,0,1-2,.14,15.36,15.36,0,0,1-2-.14,6.3,6.3,0,0,1-1.89-.56,3.89,3.89,0,0,1-1.43-1.17A3.24,3.24,0,0,1,68.29,160.62Zm1.06,0a2.09,2.09,0,0,0,.49,1.47,3.2,3.2,0,0,0,1.24.8,6.11,6.11,0,0,0,1.56.35c.56,0,1.06.07,1.51.07s.95,0,1.5-.07a6.09,6.09,0,0,0,1.57-.35,3.17,3.17,0,0,0,1.23-.8,2.09,2.09,0,0,0,.5-1.47,2.05,2.05,0,0,0-.5-1.46,3.08,3.08,0,0,0-1.23-.81,5.7,5.7,0,0,0-1.57-.34c-.55,0-1.05-.08-1.5-.08s-1,0-1.51.08a5.71,5.71,0,0,0-1.56.34,3.11,3.11,0,0,0-1.24.81A2,2,0,0,0,69.35,160.62Z"/><path d="M74,150.57c-.28,0-.56,0-.83,0l-.84.05v-1.13h1.14v0a2.49,2.49,0,0,1-1-1.07,2.94,2.94,0,0,1-.34-1.35,3.07,3.07,0,0,1,.07-.65,2.25,2.25,0,0,1,.23-.66,2,2,0,0,1,.47-.6,2.28,2.28,0,0,1,.78-.47,2.53,2.53,0,0,1-1.13-1,3.07,3.07,0,0,1,.34-3.58,3.12,3.12,0,0,1,2.17-.68h4.75v1.05H75.44a3.25,3.25,0,0,0-1.74.4,1.64,1.64,0,0,0-.61,1.49,2,2,0,0,0,.23,1,1.93,1.93,0,0,0,.62.65,2.58,2.58,0,0,0,.87.36,4.9,4.9,0,0,0,1,.11h4v1.06H75.44a3.16,3.16,0,0,0-1.74.4,1.63,1.63,0,0,0-.61,1.49,2.67,2.67,0,0,0,.07.44,1.67,1.67,0,0,0,.35.71,2.67,2.67,0,0,0,.86.66,3.53,3.53,0,0,0,1.6.3h3.84v1Z"/><path d="M74,136.94c-.28,0-.56,0-.83,0l-.84.05v-1.13h1.14v0a2.41,2.41,0,0,1-1-1.06,2.94,2.94,0,0,1-.34-1.35,3.07,3.07,0,0,1,.07-.65,2.25,2.25,0,0,1,.23-.66,2,2,0,0,1,.47-.6,2.47,2.47,0,0,1,.78-.48,2.45,2.45,0,0,1-1.13-1,3.07,3.07,0,0,1,.34-3.58,3.12,3.12,0,0,1,2.17-.69h4.75v1.06H75.44a3.16,3.16,0,0,0-1.74.4,1.64,1.64,0,0,0-.61,1.49,2,2,0,0,0,.23,1,1.93,1.93,0,0,0,.62.65,3.07,3.07,0,0,0,.87.36,4.9,4.9,0,0,0,1,.11h4v1.06H75.44a3.16,3.16,0,0,0-1.74.4,1.62,1.62,0,0,0-.61,1.48,2.52,2.52,0,0,0,.07.44,1.71,1.71,0,0,0,.35.72,2.67,2.67,0,0,0,.86.66,3.53,3.53,0,0,0,1.6.3h3.84v1.05Z"/></g><g class="cls-2"><path d="M73.35,84.17v-.59a4.19,4.19,0,0,0-.11-1,2.3,2.3,0,0,0-.36-.79,1.72,1.72,0,0,0-.65-.54,2.19,2.19,0,0,0-1-.2,1.82,1.82,0,0,0-1.42.55,2.24,2.24,0,0,0-.5,1.55,2.46,2.46,0,0,0,.32,1.26,2.52,2.52,0,0,0,.93.9l-.52,1a3.46,3.46,0,0,1-1.35-1.3,3.75,3.75,0,0,1-.44-1.83A4.38,4.38,0,0,1,68.48,82a3.18,3.18,0,0,1,.57-1,2.74,2.74,0,0,1,.93-.71A3,3,0,0,1,71.24,80a2.58,2.58,0,0,1,.88.15,2.85,2.85,0,0,1,1.33,1,2.89,2.89,0,0,1,.38.74l0-.05a2.34,2.34,0,0,1,.36-.88,2.67,2.67,0,0,1,.65-.69,3.06,3.06,0,0,1,.86-.45,3.39,3.39,0,0,1,1-.16,3.23,3.23,0,0,1,1.39.29,3,3,0,0,1,1,.79,3.65,3.65,0,0,1,.63,1.15A4.54,4.54,0,0,1,80,83.26a4.27,4.27,0,0,1-.54,2.18,3.33,3.33,0,0,1-1.74,1.39l-.37-1.22a2.46,2.46,0,0,0,1.21-.85,2.8,2.8,0,0,0,.39-1.6,2.53,2.53,0,0,0-.16-.91,2.34,2.34,0,0,0-.46-.76,2,2,0,0,0-.71-.51,2.27,2.27,0,0,0-.91-.18,2.21,2.21,0,0,0-1.08.24,1.91,1.91,0,0,0-.71.64,2.65,2.65,0,0,0-.4.92,4.7,4.7,0,0,0-.12,1.08v.49Z"/><path d="M75,72.72l0,0a2,2,0,0,1,.28.73,3.69,3.69,0,0,1,.1.84A3.58,3.58,0,0,1,75,75.68a3.47,3.47,0,0,1-.73,1.1,3.4,3.4,0,0,1-1.11.73,3.71,3.71,0,0,1-1.4.26,3.64,3.64,0,0,1-1.43-.27,3.27,3.27,0,0,1-1.1-.77,3.49,3.49,0,0,1-.72-1.17,4.29,4.29,0,0,1,0-2.94,3.49,3.49,0,0,1,.72-1.17,3.41,3.41,0,0,1,1.1-.77,3.64,3.64,0,0,1,1.43-.27,4.3,4.3,0,0,1,1.64.28,9.62,9.62,0,0,1,1.4.7l5,3V75.8ZM71.8,71.56a2.48,2.48,0,0,0-1,.19,2.1,2.1,0,0,0-.76.52,2.44,2.44,0,0,0-.51.8,2.8,2.8,0,0,0-.18,1,2.86,2.86,0,0,0,.18,1,2.55,2.55,0,0,0,.51.8,2.39,2.39,0,0,0,.76.52,2.84,2.84,0,0,0,2,0,2.33,2.33,0,0,0,.77-.52,2.38,2.38,0,0,0,.51-.8,2.86,2.86,0,0,0,.17-1,2.8,2.8,0,0,0-.17-1,2.29,2.29,0,0,0-.51-.8,2.06,2.06,0,0,0-.77-.52A2.46,2.46,0,0,0,71.8,71.56Z"/><path d="M68.29,65.2a3.24,3.24,0,0,1,.56-2,3.89,3.89,0,0,1,1.43-1.17,6.3,6.3,0,0,1,1.89-.56,13.76,13.76,0,0,1,2-.14,13.53,13.53,0,0,1,2,.14,6.45,6.45,0,0,1,1.9.56,3.78,3.78,0,0,1,1.42,1.17,3.73,3.73,0,0,1,0,3.93A3.69,3.69,0,0,1,78,68.33a6.17,6.17,0,0,1-1.9.56,13.58,13.58,0,0,1-2,.15,13.82,13.82,0,0,1-2-.15,6,6,0,0,1-1.89-.56,3.79,3.79,0,0,1-1.43-1.17A3.21,3.21,0,0,1,68.29,65.2Zm1.06,0a2.08,2.08,0,0,0,.49,1.46,3.11,3.11,0,0,0,1.24.81,6.1,6.1,0,0,0,1.56.34c.56,0,1.06.07,1.51.07s.95,0,1.5-.07a6.09,6.09,0,0,0,1.57-.34,3.08,3.08,0,0,0,1.23-.81,2.4,2.4,0,0,0,0-2.93,3.08,3.08,0,0,0-1.23-.81,6.09,6.09,0,0,0-1.57-.34c-.55,0-1.05-.07-1.5-.07s-1,0-1.51.07a6.1,6.1,0,0,0-1.56.34,3.11,3.11,0,0,0-1.24.81A2.09,2.09,0,0,0,69.35,65.2Z"/><path d="M68.29,56.3a3.24,3.24,0,0,1,.56-2,3.89,3.89,0,0,1,1.43-1.17,6.6,6.6,0,0,1,1.89-.56,15.36,15.36,0,0,1,2-.14,15.09,15.09,0,0,1,2,.14,6.77,6.77,0,0,1,1.9.56,3.78,3.78,0,0,1,1.42,1.17,3.75,3.75,0,0,1,0,3.94A3.78,3.78,0,0,1,78,59.44a6.77,6.77,0,0,1-1.9.56,15.09,15.09,0,0,1-2,.14,15.36,15.36,0,0,1-2-.14,6.6,6.6,0,0,1-1.89-.56,3.89,3.89,0,0,1-1.43-1.17A3.24,3.24,0,0,1,68.29,56.3Zm1.06,0a2,2,0,0,0,.49,1.46,3.11,3.11,0,0,0,1.24.81,6.11,6.11,0,0,0,1.56.35c.56,0,1.06.07,1.51.07s.95,0,1.5-.07a6.09,6.09,0,0,0,1.57-.35,3.08,3.08,0,0,0,1.23-.81,2.38,2.38,0,0,0,0-2.92A3.08,3.08,0,0,0,77.22,54a6.09,6.09,0,0,0-1.57-.35c-.55,0-1.05-.07-1.5-.07s-1,0-1.51.07a6.11,6.11,0,0,0-1.56.35,3.11,3.11,0,0,0-1.24.81A2,2,0,0,0,69.35,56.3Z"/><path d="M74,46.25c-.28,0-.56,0-.83,0l-.84,0V45.2h1.14v0a2.41,2.41,0,0,1-1-1.06,2.94,2.94,0,0,1-.34-1.35,3,3,0,0,1,.07-.65,2.25,2.25,0,0,1,.23-.66,2,2,0,0,1,.47-.6,2.47,2.47,0,0,1,.78-.48,2.45,2.45,0,0,1-1.13-1,3.07,3.07,0,0,1,.34-3.58,3.12,3.12,0,0,1,2.17-.69h4.75v1.06H75.44a3.16,3.16,0,0,0-1.74.4A1.64,1.64,0,0,0,73.09,38a2,2,0,0,0,.23,1,1.93,1.93,0,0,0,.62.65,3.07,3.07,0,0,0,.87.36,4.9,4.9,0,0,0,1,.11h4V41.2H75.44a3.16,3.16,0,0,0-1.74.4,1.62,1.62,0,0,0-.61,1.48,2.52,2.52,0,0,0,.07.44,1.71,1.71,0,0,0,.35.72,2.67,2.67,0,0,0,.86.66,3.53,3.53,0,0,0,1.6.3h3.84v1Z"/><path d="M74,32.62l-.83,0-.84.06V31.56h1.14v0a2.41,2.41,0,0,1-1-1.06,2.91,2.91,0,0,1-.27-2,2.42,2.42,0,0,1,.23-.67,2.34,2.34,0,0,1,.47-.6,2.65,2.65,0,0,1,.78-.47,2.45,2.45,0,0,1-1.13-1,3.07,3.07,0,0,1,.34-3.58,3.12,3.12,0,0,1,2.17-.69h4.75v1.06H75.44a3.16,3.16,0,0,0-1.74.4,1.63,1.63,0,0,0-.61,1.49A1.82,1.82,0,0,0,73.94,26a3.07,3.07,0,0,0,.87.36,4.9,4.9,0,0,0,1,.11h4v1H75.44a3.25,3.25,0,0,0-1.74.4,1.65,1.65,0,0,0-.61,1.49,2.52,2.52,0,0,0,.07.44,1.62,1.62,0,0,0,.35.71,2.55,2.55,0,0,0,.86.67,3.69,3.69,0,0,0,1.6.29h3.84v1.06Z"/></g><g class="cls-2"><path d="M121.25,241.28a3.72,3.72,0,0,1,.69,1.16,4.42,4.42,0,0,1,0,3,3.7,3.7,0,0,1-.83,1.25,3.85,3.85,0,0,1-1.25.83,4.39,4.39,0,0,1-1.61.29,4.15,4.15,0,0,1-1.4-.22,3.72,3.72,0,0,1-1.11-.61l-1.07,1.09-.52-.5,1.06-1.09a3.62,3.62,0,0,1-.69-1.17,4.23,4.23,0,0,1-.24-1.44,4,4,0,0,1,.3-1.56,3.67,3.67,0,0,1,.82-1.25,3.62,3.62,0,0,1,1.26-.82,4.09,4.09,0,0,1,1.59-.3,4.18,4.18,0,0,1,1.39.22,3.63,3.63,0,0,1,1.15.61l1.06-1.09.51.5Zm-1.24.25a2.7,2.7,0,0,0-1.81-.62,3,3,0,0,0-1.18.23,2.82,2.82,0,0,0-.88.63,3,3,0,0,0-.56.95,3.41,3.41,0,0,0-.2,1.16,3,3,0,0,0,.55,1.83Zm-3.6,4.72a2.51,2.51,0,0,0,.8.45,2.86,2.86,0,0,0,1,.16,3,3,0,0,0,1.18-.23,2.82,2.82,0,0,0,.88-.63,2.68,2.68,0,0,0,.57-.95,3.42,3.42,0,0,0,.2-1.17,3.13,3.13,0,0,0-.54-1.82Z"/><path d="M130.47,241.17l0,0a1.89,1.89,0,0,1,.73-.29,3.75,3.75,0,0,1,.84-.1,3.54,3.54,0,0,1,2.47,1,3.38,3.38,0,0,1,.72,1.11,3.58,3.58,0,0,1,.27,1.41,3.46,3.46,0,0,1-.28,1.42,3.06,3.06,0,0,1-.76,1.1,3.49,3.49,0,0,1-1.17.72,3.92,3.92,0,0,1-1.47.26,3.85,3.85,0,0,1-1.47-.26,3.49,3.49,0,0,1-1.17-.72,3.08,3.08,0,0,1-.77-1.1,3.63,3.63,0,0,1-.27-1.42,4.39,4.39,0,0,1,.28-1.65,9.45,9.45,0,0,1,.69-1.39l3.06-5h1.36Zm-1.15,3.15a2.64,2.64,0,0,0,.18,1,2.18,2.18,0,0,0,.52.77,2.38,2.38,0,0,0,.8.51,3.18,3.18,0,0,0,2.05,0,2.29,2.29,0,0,0,.8-.51,2.18,2.18,0,0,0,.52-.77,2.64,2.64,0,0,0,.19-1,2.57,2.57,0,0,0-.19-1,2.18,2.18,0,0,0-.52-.77,2.44,2.44,0,0,0-.8-.51,3,3,0,0,0-2.05,0,2.55,2.55,0,0,0-.8.51,2.18,2.18,0,0,0-.52.77A2.57,2.57,0,0,0,129.32,244.32Z"/><path d="M140.74,236.11a3.24,3.24,0,0,1,2,.56,3.86,3.86,0,0,1,1.17,1.42,6.45,6.45,0,0,1,.56,1.9,14,14,0,0,1,0,3.95,6.45,6.45,0,0,1-.56,1.9,3.86,3.86,0,0,1-1.17,1.42,3.75,3.75,0,0,1-3.94,0,3.74,3.74,0,0,1-1.16-1.42,6.17,6.17,0,0,1-.56-1.9,13.08,13.08,0,0,1,0-3.95,6.17,6.17,0,0,1,.56-1.9,3.74,3.74,0,0,1,1.16-1.42A3.26,3.26,0,0,1,140.74,236.11Zm0,1.06a2.06,2.06,0,0,0-1.46.49,3.08,3.08,0,0,0-.81,1.23,5.78,5.78,0,0,0-.34,1.57c0,.56-.08,1.06-.08,1.5s0,.95.08,1.51a5.78,5.78,0,0,0,.34,1.57,3.08,3.08,0,0,0,.81,1.23,2.06,2.06,0,0,0,1.46.49,2.09,2.09,0,0,0,1.47-.49A3.17,3.17,0,0,0,143,245a5.79,5.79,0,0,0,.35-1.57c0-.56.07-1.06.07-1.51s0-.94-.07-1.5a5.79,5.79,0,0,0-.35-1.57,3.17,3.17,0,0,0-.8-1.23A2.09,2.09,0,0,0,140.74,237.17Z"/><path d="M149.64,236.11a3.24,3.24,0,0,1,2,.56,3.74,3.74,0,0,1,1.16,1.42,6.17,6.17,0,0,1,.56,1.9,13.08,13.08,0,0,1,0,3.95,6.17,6.17,0,0,1-.56,1.9,3.74,3.74,0,0,1-1.16,1.42,3.75,3.75,0,0,1-3.94,0,3.86,3.86,0,0,1-1.17-1.42,6.77,6.77,0,0,1-.56-1.9,14,14,0,0,1,0-3.95,6.77,6.77,0,0,1,.56-1.9,3.86,3.86,0,0,1,1.17-1.42A3.24,3.24,0,0,1,149.64,236.11Zm0,1.06a2.09,2.09,0,0,0-1.47.49,3.17,3.17,0,0,0-.8,1.23,6.19,6.19,0,0,0-.35,1.57c-.05.56-.07,1.06-.07,1.5s0,.95.07,1.51a6.19,6.19,0,0,0,.35,1.57,3.17,3.17,0,0,0,.8,1.23,2.09,2.09,0,0,0,1.47.49,2,2,0,0,0,1.46-.49,3.08,3.08,0,0,0,.81-1.23,5.78,5.78,0,0,0,.34-1.57c.05-.56.08-1.06.08-1.51s0-.94-.08-1.5a5.78,5.78,0,0,0-.34-1.57,3.08,3.08,0,0,0-.81-1.23A2,2,0,0,0,149.64,237.17Z"/><path d="M159.69,241.8c0-.27,0-.55,0-.83s0-.55,0-.83h1.13v1.14h0a2.44,2.44,0,0,1,1.07-1,2.94,2.94,0,0,1,1.35-.34,3.83,3.83,0,0,1,.65.06,2.28,2.28,0,0,1,.66.24,1.89,1.89,0,0,1,.6.47,2.28,2.28,0,0,1,.47.78,2.48,2.48,0,0,1,1-1.13A2.76,2.76,0,0,1,168,240a2.73,2.73,0,0,1,2.13.76,3.17,3.17,0,0,1,.68,2.17v4.75h-1v-4.37a3.11,3.11,0,0,0-.4-1.74,1.64,1.64,0,0,0-1.49-.61,2,2,0,0,0-1,.23,1.93,1.93,0,0,0-.65.62,2.62,2.62,0,0,0-.36.87,4.74,4.74,0,0,0-.11,1v4h-1.06v-4.37a3.11,3.11,0,0,0-.4-1.74,1.63,1.63,0,0,0-1.49-.61l-.44.06a1.71,1.71,0,0,0-.71.36,2.56,2.56,0,0,0-.66.86,3.51,3.51,0,0,0-.3,1.6v3.84h-1.05Z"/><path d="M173.32,241.8c0-.27,0-.55,0-.83s0-.55,0-.83h1.13v1.14h0a2.41,2.41,0,0,1,1.06-1,2.94,2.94,0,0,1,1.35-.34,3.83,3.83,0,0,1,.65.06,2.28,2.28,0,0,1,.66.24,1.89,1.89,0,0,1,.6.47,2.47,2.47,0,0,1,.48.78,2.41,2.41,0,0,1,1-1.13,2.79,2.79,0,0,1,1.45-.42,2.73,2.73,0,0,1,2.13.76,3.12,3.12,0,0,1,.69,2.17v4.75h-1.06v-4.37a3.11,3.11,0,0,0-.4-1.74,1.64,1.64,0,0,0-1.49-.61,2,2,0,0,0-1,.23,1.93,1.93,0,0,0-.65.62,2.84,2.84,0,0,0-.36.87,4.74,4.74,0,0,0-.11,1v4h-1.06v-4.37a3.11,3.11,0,0,0-.4-1.74,1.62,1.62,0,0,0-1.48-.61l-.44.06a1.74,1.74,0,0,0-.72.36,2.56,2.56,0,0,0-.66.86,3.51,3.51,0,0,0-.3,1.6v3.84h-1.05Z"/></g><line class="cls-3" x1="90.7" y1="216.7" x2="90.7" y2="90.66"/><line class="cls-3" x1="88.86" y1="90.62" x2="92.4" y2="90.62"/><line class="cls-3" x1="88.18" y1="216.7" x2="93.23" y2="216.7"/><line class="cls-3" x1="90.7" y1="90.66" x2="90.7" y2="47.04"/><line class="cls-3" x1="88.86" y1="47.03" x2="92.4" y2="47.03"/><line class="cls-3" x1="88.18" y1="90.66" x2="93.23" y2="90.66"/><line class="cls-3" x1="100.9" y1="226.88" x2="198.37" y2="226.88"/><line class="cls-3" x1="100.9" y1="226.8" x2="100.9" y2="226.96"/><line class="cls-3" x1="198.37" y1="226.8" x2="198.37" y2="226.96"/><line class="cls-3" x1="100.9" y1="226.16" x2="100.9" y2="227.6"/><line class="cls-3" x1="198.37" y1="226.16" x2="198.37" y2="227.6"/><g class="cls-4"><path class="cls-5" d="M141.52,46.2H157v1.68H141.52Zm4.34,1.68h6.87V61.82a3.44,3.44,0,1,1-6.87,0Zm2.68,17.42V90.7h1.58V65.3m-2.6,25.4h3.23v2.84a1.62,1.62,0,1,1-3.23,0Zm.79,4.24v74.62h1.89V94.78m-5.13,78c0-1.35,1.63-3.11,4.22-3.11s4.46,1.52,4.55,3.11Zm0,0h8.77v13.66h-8.77Zm8.77,13.54a17.82,17.82,0,0,1,13.27,14.91l-35,.07A17.81,17.81,0,0,1,145,186.39M100.29,214.7c0-.58.8-1,1.79-1h95.3c1,0,1.79.46,1.79,1s-.8,1-1.79,1h-95.3C101.09,215.73,100.29,215.27,100.29,214.7ZM147.67,94.22l-45.8,119.36m97.19,1-48.31-121m-.63,1.24,13.58,98.11M165,201.2l1.82,12.38"/></g></svg>