<svg xmlns="http://www.w3.org/2000/svg" viewBox="0 0 300 263"><defs><style>.cls-1,.cls-2,.cls-3,.cls-4,.cls-7{fill:none;stroke-linecap:round;}.cls-1,.cls-2,.cls-7{stroke:red;}.cls-1,.cls-2,.cls-4,.cls-7{stroke-linejoin:round;}.cls-1{stroke-width:0.6px;}.cls-3,.cls-4{stroke:#000;}.cls-3{stroke-miterlimit:10;}.cls-3,.cls-4,.cls-7{stroke-width:0.6px;}.cls-5{font-size:8px;letter-spacing:-0.01em;}.cls-5,.cls-8{font-family:Avenir-Roman, Avenir;}.cls-6{letter-spacing:0em;}.cls-8{font-size:10px;}.cls-9{letter-spacing:-0.01em;}.cls-10{letter-spacing:0.01em;}</style></defs><title>frisbi-suspension-castiglioni-flos-F25000-curva-fotometrica</title><g id="numeri_esterni_diagramma" data-name="numeri esterni diagramma"><path d="M249.93,137.18h0a1.24,1.24,0,0,1-.37.12,1.84,1.84,0,0,1-.39,0,1.91,1.91,0,0,1-.68-.12,1.58,1.58,0,0,1-.54-.37,1.63,1.63,0,0,1-.36-.56,2.05,2.05,0,0,1-.13-.72,1.79,1.79,0,0,1,.15-.75,1.48,1.48,0,0,1,.4-.55,1.79,1.79,0,0,1,.6-.35,2,2,0,0,1,.75-.13,2.11,2.11,0,0,1,.75.13,1.79,1.79,0,0,1,.6.35,1.59,1.59,0,0,1,.4.55,1.79,1.79,0,0,1,.14.75,2.15,2.15,0,0,1,0,.45,1.68,1.68,0,0,1-.11.4,2.59,2.59,0,0,1-.17.38l-.21.36-1.51,2.39h-.78Zm-.59-.42a1.28,1.28,0,0,0,.48-.09,1,1,0,0,0,.39-.24,1.23,1.23,0,0,0,.26-.37,1.43,1.43,0,0,0,0-1,1.1,1.1,0,0,0-.65-.62,1.48,1.48,0,0,0-1,0,1.28,1.28,0,0,0-.39.24,1.12,1.12,0,0,0-.26.38,1.3,1.3,0,0,0,0,1,1.08,1.08,0,0,0,.26.37,1,1,0,0,0,.39.24A1.28,1.28,0,0,0,249.34,136.76Z"/><path d="M251.82,136.71a7.07,7.07,0,0,1,.08-1,3.19,3.19,0,0,1,.29-1,2,2,0,0,1,.59-.7,1.54,1.54,0,0,1,1-.28,1.49,1.49,0,0,1,.95.28,1.91,1.91,0,0,1,.59.7,2.94,2.94,0,0,1,.3,1,6.29,6.29,0,0,1,0,2,2.94,2.94,0,0,1-.3.95,1.91,1.91,0,0,1-.59.7,1.49,1.49,0,0,1-.95.28,1.54,1.54,0,0,1-1-.28,2,2,0,0,1-.59-.7,3.19,3.19,0,0,1-.29-.95A7.07,7.07,0,0,1,251.82,136.71Zm.67,0c0,.14,0,.29,0,.46a4.6,4.6,0,0,0,.06.52,4.7,4.7,0,0,0,.12.51,2,2,0,0,0,.23.44,1,1,0,0,0,.34.31,1,1,0,0,0,.48.11,1.06,1.06,0,0,0,.48-.11,1.24,1.24,0,0,0,.34-.31,1.65,1.65,0,0,0,.22-.44,3.18,3.18,0,0,0,.13-.51,4.6,4.6,0,0,0,.06-.52c0-.17,0-.32,0-.46s0-.29,0-.46a4.6,4.6,0,0,0-.06-.52,3.18,3.18,0,0,0-.13-.51,1.65,1.65,0,0,0-.22-.44,1.24,1.24,0,0,0-.34-.31,1.06,1.06,0,0,0-.48-.11,1,1,0,0,0-.48.11,1,1,0,0,0-.34.31,2,2,0,0,0-.23.44,4.7,4.7,0,0,0-.12.51,4.6,4.6,0,0,0-.06.52C252.5,136.42,252.49,136.57,252.49,136.71Z"/><path d="M256.42,134.93a1.13,1.13,0,0,1,.09-.45,1.31,1.31,0,0,1,.24-.37,1.18,1.18,0,0,1,.37-.24,1,1,0,0,1,.44-.09,1.13,1.13,0,0,1,.45.09,1.06,1.06,0,0,1,.61.61,1.13,1.13,0,0,1,.09.45,1,1,0,0,1-.09.44,1.06,1.06,0,0,1-.61.61,1.13,1.13,0,0,1-.45.09,1,1,0,0,1-.44-.09,1.18,1.18,0,0,1-.37-.24,1.31,1.31,0,0,1-.24-.37A1,1,0,0,1,256.42,134.93Zm.43,0a.69.69,0,0,0,0,.24,1,1,0,0,0,.15.24.73.73,0,0,0,.51.23.54.54,0,0,0,.29-.07.63.63,0,0,0,.23-.16.72.72,0,0,0,.14-.24.52.52,0,0,0,0-.24.56.56,0,0,0,0-.25.59.59,0,0,0-.14-.23.74.74,0,0,0-.52-.24.73.73,0,0,0-.29.07.62.62,0,0,0-.22.17.76.76,0,0,0-.15.23A.74.74,0,0,0,256.85,134.93Z"/><path d="M41.57,137.18h0a1.34,1.34,0,0,1-.37.12,2,2,0,0,1-.39,0,1.92,1.92,0,0,1-.69-.12,1.58,1.58,0,0,1-.54-.37,1.8,1.8,0,0,1-.36-.56,2.05,2.05,0,0,1-.13-.72,1.79,1.79,0,0,1,.15-.75,1.48,1.48,0,0,1,.4-.55,1.79,1.79,0,0,1,.6-.35,2.23,2.23,0,0,1,1.5,0,1.79,1.79,0,0,1,.6.35,1.48,1.48,0,0,1,.4.55,1.79,1.79,0,0,1,.15.75,3.14,3.14,0,0,1,0,.45,2.34,2.34,0,0,1-.12.4,1.84,1.84,0,0,1-.17.38,3.35,3.35,0,0,1-.21.36l-1.5,2.39h-.79Zm-.59-.42a1.28,1.28,0,0,0,.48-.09,1,1,0,0,0,.39-.24,1.23,1.23,0,0,0,.26-.37,1.3,1.3,0,0,0,0-1,1.1,1.1,0,0,0-.65-.62,1.48,1.48,0,0,0-1,0,1.1,1.1,0,0,0-.65.62,1.43,1.43,0,0,0,0,1,1.23,1.23,0,0,0,.26.37,1,1,0,0,0,.39.24A1.28,1.28,0,0,0,41,136.76Z"/><path d="M43.46,136.71a7.07,7.07,0,0,1,.08-1,2.94,2.94,0,0,1,.3-1,1.91,1.91,0,0,1,.59-.7,1.49,1.49,0,0,1,1-.28,1.54,1.54,0,0,1,1,.28,2,2,0,0,1,.59.7,3.19,3.19,0,0,1,.29,1,6.29,6.29,0,0,1,0,2,3.19,3.19,0,0,1-.29.95,2,2,0,0,1-.59.7,1.54,1.54,0,0,1-1,.28,1.49,1.49,0,0,1-1-.28,1.91,1.91,0,0,1-.59-.7,2.94,2.94,0,0,1-.3-.95A7.07,7.07,0,0,1,43.46,136.71Zm.67,0c0,.14,0,.29,0,.46a4.6,4.6,0,0,0,.06.52,3.18,3.18,0,0,0,.13.51,1.65,1.65,0,0,0,.22.44,1.12,1.12,0,0,0,.34.31,1.1,1.1,0,0,0,1,0,1.12,1.12,0,0,0,.34-.31,2,2,0,0,0,.23-.44,4.7,4.7,0,0,0,.12-.51,4.6,4.6,0,0,0,.06-.52c0-.17,0-.32,0-.46s0-.29,0-.46a4.6,4.6,0,0,0-.06-.52,4.7,4.7,0,0,0-.12-.51,2,2,0,0,0-.23-.44,1.12,1.12,0,0,0-.34-.31,1.1,1.1,0,0,0-1,0,1.12,1.12,0,0,0-.34.31,1.65,1.65,0,0,0-.22.44,3.18,3.18,0,0,0-.13.51,4.6,4.6,0,0,0-.06.52C44.14,136.42,44.13,136.57,44.13,136.71Z"/><path d="M48.06,134.93a1.13,1.13,0,0,1,.09-.45,1.06,1.06,0,0,1,.61-.61,1.13,1.13,0,0,1,.45-.09,1.08,1.08,0,0,1,.44.09,1.06,1.06,0,0,1,.61.61,1.13,1.13,0,0,1,.09.45,1,1,0,0,1-.09.44,1.06,1.06,0,0,1-.61.61,1.08,1.08,0,0,1-.44.09,1.13,1.13,0,0,1-.45-.09,1.06,1.06,0,0,1-.61-.61A1,1,0,0,1,48.06,134.93Zm.43,0a.53.53,0,0,0,.06.24.72.72,0,0,0,.14.24.69.69,0,0,0,.22.16.6.6,0,0,0,.3.07.73.73,0,0,0,.51-.23,1,1,0,0,0,.15-.24.69.69,0,0,0,.05-.24.74.74,0,0,0-.05-.25.76.76,0,0,0-.15-.23.62.62,0,0,0-.22-.17.73.73,0,0,0-.29-.07.73.73,0,0,0-.3.07.72.72,0,0,0-.22.17.59.59,0,0,0-.14.23A.57.57,0,0,0,48.49,134.93Z"/><path d="M148.37,38.51h-.68v-4.8h0l-1,.85-.4-.48,1.52-1.24h.59Z"/><path d="M150.49,34.23a1.48,1.48,0,0,1,.13-.61,1.2,1.2,0,0,1,.34-.46,1.44,1.44,0,0,1,.51-.3,1.92,1.92,0,0,1,1.28,0,1.44,1.44,0,0,1,.51.3,1.2,1.2,0,0,1,.34.46,1.33,1.33,0,0,1,.13.61,1.16,1.16,0,0,1-.07.4,1.41,1.41,0,0,1-.18.37,1.33,1.33,0,0,1-.29.29,1.18,1.18,0,0,1-.39.19h0a1.44,1.44,0,0,1,.46.19,1.35,1.35,0,0,1,.35.32,1.42,1.42,0,0,1,.23.44,1.7,1.7,0,0,1,.08.51,1.74,1.74,0,0,1-.14.69,1.43,1.43,0,0,1-.39.52,1.47,1.47,0,0,1-.57.33,2.35,2.35,0,0,1-1.42,0,1.47,1.47,0,0,1-.57-.33,1.55,1.55,0,0,1-.39-.52,1.74,1.74,0,0,1-.14-.69,1.7,1.7,0,0,1,.08-.51,1.67,1.67,0,0,1,.23-.44,1.35,1.35,0,0,1,.35-.32,1.44,1.44,0,0,1,.46-.19h0a1.18,1.18,0,0,1-.39-.19,1.33,1.33,0,0,1-.29-.29,1.41,1.41,0,0,1-.18-.37A1.46,1.46,0,0,1,150.49,34.23ZM151,36.9a1.18,1.18,0,0,0,.09.46,1.07,1.07,0,0,0,.25.35,1,1,0,0,0,.36.23,1.12,1.12,0,0,0,.88,0,1,1,0,0,0,.36-.23,1.07,1.07,0,0,0,.25-.35,1.18,1.18,0,0,0,.09-.46,1.14,1.14,0,0,0-.09-.46,1.13,1.13,0,0,0-.61-.58,1.12,1.12,0,0,0-.88,0,1.13,1.13,0,0,0-.61.58A1.14,1.14,0,0,0,151,36.9Zm.2-2.64a.88.88,0,0,0,.26.67,1,1,0,0,0,1.36,0,1,1,0,0,0,0-1.34,1,1,0,0,0-1.36,0A.88.88,0,0,0,151.17,34.26Z"/><path d="M154.64,35.68a7,7,0,0,1,.08-1,3.1,3.1,0,0,1,.29-1,2,2,0,0,1,.59-.71,1.6,1.6,0,0,1,1-.27,1.55,1.55,0,0,1,.95.27,1.94,1.94,0,0,1,.59.71,2.86,2.86,0,0,1,.3,1,7,7,0,0,1,.08,1,7.07,7.07,0,0,1-.08,1,2.88,2.88,0,0,1-.3.94,1.94,1.94,0,0,1-.59.71,1.55,1.55,0,0,1-.95.27,1.6,1.6,0,0,1-1-.27,2,2,0,0,1-.59-.71,3.13,3.13,0,0,1-.29-.94A7.07,7.07,0,0,1,154.64,35.68Zm.67,0c0,.13,0,.29,0,.46a4.88,4.88,0,0,0,.06.52,4.05,4.05,0,0,0,.12.5,1.66,1.66,0,0,0,.23.44,1.12,1.12,0,0,0,.34.31,1,1,0,0,0,1,0,1.12,1.12,0,0,0,.34-.31,1.4,1.4,0,0,0,.22-.44,2.83,2.83,0,0,0,.13-.5,4.88,4.88,0,0,0,.06-.52c0-.17,0-.33,0-.46s0-.3,0-.47a4.43,4.43,0,0,0-.06-.51,2.72,2.72,0,0,0-.13-.51,1.51,1.51,0,0,0-.22-.44,1.12,1.12,0,0,0-.34-.31,1,1,0,0,0-1,0,1.12,1.12,0,0,0-.34.31,1.83,1.83,0,0,0-.23.44,3.81,3.81,0,0,0-.12.51,4.43,4.43,0,0,0-.06.51C155.32,35.38,155.31,35.54,155.31,35.68Z"/><path d="M159.24,33.89a1.15,1.15,0,0,1,.33-.81,1,1,0,0,1,.37-.24,1,1,0,0,1,.44-.09,1.15,1.15,0,0,1,.82,2,1.15,1.15,0,0,1-.37.25,1.13,1.13,0,0,1-.45.09,1.15,1.15,0,0,1-.81-.34,1.15,1.15,0,0,1-.33-.81Zm.43,0a.79.79,0,0,0,.05.25,1.14,1.14,0,0,0,.15.23.62.62,0,0,0,.22.17.72.72,0,0,0,.29.06.68.68,0,0,0,.52-.23.79.79,0,0,0,.14-.23.65.65,0,0,0,0-.5.79.79,0,0,0-.14-.23.81.81,0,0,0-.23-.17.65.65,0,0,0-.29-.06.72.72,0,0,0-.29.06.76.76,0,0,0-.22.17,1.14,1.14,0,0,0-.15.23A.79.79,0,0,0,159.67,33.89Z"/><path d="M148.27,239.2a6.85,6.85,0,0,1,.08-1,3.41,3.41,0,0,1,.3-.95,1.94,1.94,0,0,1,.59-.71,1.57,1.57,0,0,1,.95-.27,1.6,1.6,0,0,1,1,.27,2,2,0,0,1,.59.71,3.1,3.1,0,0,1,.29.95,5.7,5.7,0,0,1,.08,1,5.85,5.85,0,0,1-.08,1,3.13,3.13,0,0,1-.29.94,2,2,0,0,1-.59.71,1.6,1.6,0,0,1-1,.27,1.57,1.57,0,0,1-.95-.27,1.94,1.94,0,0,1-.59-.71,3.45,3.45,0,0,1-.3-.94A7.07,7.07,0,0,1,148.27,239.2Zm.68,0c0,.13,0,.29,0,.46a4.88,4.88,0,0,0,.06.52,2.83,2.83,0,0,0,.13.5,1.65,1.65,0,0,0,.22.44,1.24,1.24,0,0,0,.34.31,1,1,0,0,0,.48.12.9.9,0,0,0,.48-.12,1,1,0,0,0,.34-.31,1.41,1.41,0,0,0,.23-.44,4.07,4.07,0,0,0,.13-.5c0-.18,0-.35.06-.52s0-.33,0-.46,0-.3,0-.47,0-.34-.06-.51a3.8,3.8,0,0,0-.13-.51,1.53,1.53,0,0,0-.23-.44,1,1,0,0,0-.34-.31.9.9,0,0,0-.48-.12,1,1,0,0,0-.48.12,1.24,1.24,0,0,0-.34.31,1.81,1.81,0,0,0-.22.44,2.72,2.72,0,0,0-.13.51,4.43,4.43,0,0,0-.06.51C149,238.9,149,239.06,149,239.2Z"/><path d="M152.83,237.41a1.33,1.33,0,0,1,.08-.45,1.11,1.11,0,0,1,.25-.36,1,1,0,0,1,.36-.24,1.17,1.17,0,0,1,.9,0,1,1,0,0,1,.36.24,1.11,1.11,0,0,1,.25.36,1.31,1.31,0,0,1,0,.9,1.23,1.23,0,0,1-.61.61,1.17,1.17,0,0,1-.9,0,1.23,1.23,0,0,1-.61-.61A1.33,1.33,0,0,1,152.83,237.41Zm.43,0a.79.79,0,0,0,.05.25.68.68,0,0,0,.14.23.66.66,0,0,0,.23.17.73.73,0,0,0,.58,0,.76.76,0,0,0,.23-.17.88.88,0,0,0,.14-.23.65.65,0,0,0,0-.5,1.09,1.09,0,0,0-.14-.23,1,1,0,0,0-.23-.17.73.73,0,0,0-.58,0,.81.81,0,0,0-.23.17.75.75,0,0,0-.19.48Z"/><path d="M203.17,238.76h.21l.43,0a1.15,1.15,0,0,0,.42-.13.77.77,0,0,0,.31-.31.94.94,0,0,0,.13-.51.87.87,0,0,0-.27-.68,1,1,0,0,0-.7-.26,1.28,1.28,0,0,0-.63.16,1.14,1.14,0,0,0-.41.48l-.65-.25a1.48,1.48,0,0,1,.65-.72,2.07,2.07,0,0,1,1-.24,2.25,2.25,0,0,1,.64.09,1.72,1.72,0,0,1,.54.28,1.37,1.37,0,0,1,.37.46,1.48,1.48,0,0,1,.14.65,1.29,1.29,0,0,1-.27.8,1.34,1.34,0,0,1-.7.49v0a1.48,1.48,0,0,1,.85.49,1.37,1.37,0,0,1,.23.43,1.69,1.69,0,0,1,.08.5,1.66,1.66,0,0,1-.15.72,1.57,1.57,0,0,1-.41.51,1.71,1.71,0,0,1-.6.31,2.34,2.34,0,0,1-.71.1,2.18,2.18,0,0,1-1.13-.28,1.61,1.61,0,0,1-.7-.91l.68-.22a1.33,1.33,0,0,0,.41.65,1.3,1.3,0,0,0,.74.19,1.33,1.33,0,0,0,.45-.08,1.11,1.11,0,0,0,.36-.23,1.24,1.24,0,0,0,.25-.35,1.13,1.13,0,0,0,.09-.45,1.07,1.07,0,0,0-.12-.53,1,1,0,0,0-.33-.33,1.23,1.23,0,0,0-.46-.18,2.31,2.31,0,0,0-.52-.06h-.21Z"/><path d="M206.24,239.2a6.85,6.85,0,0,1,.08-1,3.11,3.11,0,0,1,.3-.95,1.94,1.94,0,0,1,.59-.71,1.55,1.55,0,0,1,.95-.27,1.6,1.6,0,0,1,1,.27,2,2,0,0,1,.59.71,3.1,3.1,0,0,1,.29.95,5.7,5.7,0,0,1,.08,1,5.85,5.85,0,0,1-.08,1,3.13,3.13,0,0,1-.29.94,2,2,0,0,1-.59.71,1.6,1.6,0,0,1-1,.27,1.55,1.55,0,0,1-.95-.27,1.94,1.94,0,0,1-.59-.71,3.14,3.14,0,0,1-.3-.94A7.07,7.07,0,0,1,206.24,239.2Zm.67,0c0,.13,0,.29,0,.46a4.88,4.88,0,0,0,.06.52,2.83,2.83,0,0,0,.13.5,1.4,1.4,0,0,0,.22.44,1.24,1.24,0,0,0,.34.31,1,1,0,0,0,.48.12.9.9,0,0,0,.48-.12,1,1,0,0,0,.34-.31,1.41,1.41,0,0,0,.23-.44,4.05,4.05,0,0,0,.12-.5,4.88,4.88,0,0,0,.06-.52,3.86,3.86,0,0,0,0-.46,3.94,3.94,0,0,0,0-.47,4.43,4.43,0,0,0-.06-.51,3.81,3.81,0,0,0-.12-.51,1.53,1.53,0,0,0-.23-.44,1,1,0,0,0-.34-.31.9.9,0,0,0-.48-.12,1,1,0,0,0-.48.12,1.24,1.24,0,0,0-.34.31,1.51,1.51,0,0,0-.22.44,2.72,2.72,0,0,0-.13.51,4.43,4.43,0,0,0-.06.51C206.92,238.9,206.91,239.06,206.91,239.2Z"/><path d="M210.84,237.41a1.13,1.13,0,0,1,.09-.45,1.26,1.26,0,0,1,.24-.36,1.2,1.2,0,0,1,.82-.33,1,1,0,0,1,.44.09,1.12,1.12,0,0,1,.37.24,1.26,1.26,0,0,1,.24.36,1.16,1.16,0,0,1-.24,1.26,1.15,1.15,0,0,1-.37.25,1,1,0,0,1-.44.09,1.13,1.13,0,0,1-.45-.09,1.15,1.15,0,0,1-.37-.25,1.15,1.15,0,0,1-.33-.81Zm.43,0a.61.61,0,0,0,.06.25.68.68,0,0,0,.14.23.72.72,0,0,0,.22.17.73.73,0,0,0,.3.06.72.72,0,0,0,.29-.06.62.62,0,0,0,.22-.17.91.91,0,0,0,.15-.23.65.65,0,0,0,0-.5,1.14,1.14,0,0,0-.15-.23.76.76,0,0,0-.22-.17.72.72,0,0,0-.29-.06.73.73,0,0,0-.3.06.92.92,0,0,0-.22.17.79.79,0,0,0-.14.23A.61.61,0,0,0,211.27,237.41Z"/><path d="M93.6,238.76h.21l.44,0a1.1,1.1,0,0,0,.41-.13.86.86,0,0,0,.32-.31.94.94,0,0,0,.12-.51.87.87,0,0,0-.27-.68,1,1,0,0,0-.7-.26,1.21,1.21,0,0,0-.62.16,1.1,1.1,0,0,0-.42.48l-.65-.25a1.45,1.45,0,0,1,.66-.72,2,2,0,0,1,1-.24,2.32,2.32,0,0,1,.65.09,2,2,0,0,1,.54.28,1.67,1.67,0,0,1,.37.46,1.48,1.48,0,0,1,.13.65,1.29,1.29,0,0,1-.27.8,1.34,1.34,0,0,1-.7.49v0a1.31,1.31,0,0,1,.49.18,1.34,1.34,0,0,1,.36.31,1.37,1.37,0,0,1,.23.43,1.42,1.42,0,0,1,.08.5,1.66,1.66,0,0,1-.15.72,1.57,1.57,0,0,1-.41.51,1.75,1.75,0,0,1-.59.31,2.46,2.46,0,0,1-.72.1,2.18,2.18,0,0,1-1.13-.28,1.56,1.56,0,0,1-.69-.91l.68-.22a1.2,1.2,0,0,0,.41.65,1.27,1.27,0,0,0,.73.19,1.33,1.33,0,0,0,.45-.08,1.11,1.11,0,0,0,.36-.23,1.07,1.07,0,0,0,.25-.35,1.13,1.13,0,0,0,.09-.45,1.07,1.07,0,0,0-.12-.53.87.87,0,0,0-.33-.33,1.17,1.17,0,0,0-.46-.18,2.24,2.24,0,0,0-.52-.06H93.6Z"/><path d="M96.68,239.2a5.7,5.7,0,0,1,.08-1,3.1,3.1,0,0,1,.29-.95,2,2,0,0,1,.59-.71,1.6,1.6,0,0,1,1-.27,1.57,1.57,0,0,1,1,.27,1.94,1.94,0,0,1,.59.71,3.41,3.41,0,0,1,.3.95,6.85,6.85,0,0,1,.08,1,7.07,7.07,0,0,1-.08,1,3.45,3.45,0,0,1-.3.94,1.94,1.94,0,0,1-.59.71,1.57,1.57,0,0,1-1,.27,1.6,1.6,0,0,1-1-.27,2,2,0,0,1-.59-.71,3.13,3.13,0,0,1-.29-.94A5.85,5.85,0,0,1,96.68,239.2Zm.67,0c0,.13,0,.29,0,.46a4.88,4.88,0,0,0,.06.52,4.07,4.07,0,0,0,.13.5,1.41,1.41,0,0,0,.23.44,1,1,0,0,0,.34.31.9.9,0,0,0,.48.12,1,1,0,0,0,.48-.12,1.24,1.24,0,0,0,.34-.31,1.65,1.65,0,0,0,.22-.44,2.83,2.83,0,0,0,.13-.5,4.88,4.88,0,0,0,.06-.52c0-.17,0-.33,0-.46s0-.3,0-.47a4.43,4.43,0,0,0-.06-.51,2.72,2.72,0,0,0-.13-.51,1.81,1.81,0,0,0-.22-.44,1.24,1.24,0,0,0-.34-.31,1,1,0,0,0-.48-.12.9.9,0,0,0-.48.12,1,1,0,0,0-.34.31,1.53,1.53,0,0,0-.23.44,3.8,3.8,0,0,0-.13.51,4.43,4.43,0,0,0-.06.51C97.35,238.9,97.35,239.06,97.35,239.2Z"/><path d="M101.28,237.41a1.33,1.33,0,0,1,.08-.45,1.11,1.11,0,0,1,.25-.36,1,1,0,0,1,.36-.24,1.17,1.17,0,0,1,.9,0,1,1,0,0,1,.36.24,1.11,1.11,0,0,1,.25.36,1.31,1.31,0,0,1,0,.9,1.23,1.23,0,0,1-.61.61,1.17,1.17,0,0,1-.9,0,1.23,1.23,0,0,1-.61-.61A1.33,1.33,0,0,1,101.28,237.41Zm.43,0a.79.79,0,0,0,.05.25.68.68,0,0,0,.14.23.76.76,0,0,0,.23.17.73.73,0,0,0,.58,0,.66.66,0,0,0,.23-.17.68.68,0,0,0,.14-.23.71.71,0,0,0-.14-.73.81.81,0,0,0-.23-.17.73.73,0,0,0-.58,0,1,1,0,0,0-.23.17.75.75,0,0,0-.19.48Z"/><path d="M203.18,38.51h-.68v-4.8h0l-1,.85-.4-.48,1.52-1.24h.59Z"/><path d="M208.49,33.47h-2.31l0,1.53a1.08,1.08,0,0,1,.36-.11l.37,0a2,2,0,0,1,.74.14,1.61,1.61,0,0,1,.57.39,1.9,1.9,0,0,1,.37.59,2,2,0,0,1,.13.74,2,2,0,0,1-.15.78,1.74,1.74,0,0,1-.41.59,1.91,1.91,0,0,1-.61.38,2.2,2.2,0,0,1-.78.13,1.73,1.73,0,0,1-1-.28,2,2,0,0,1-.63-.75l.67-.25a1.31,1.31,0,0,0,.42.51,1.1,1.1,0,0,0,.64.2,1.28,1.28,0,0,0,.48-.09,1.26,1.26,0,0,0,.38-.27,1.15,1.15,0,0,0,.26-.41,1.53,1.53,0,0,0,.1-.54,1.38,1.38,0,0,0-.11-.55,1.08,1.08,0,0,0-.3-.4,1.26,1.26,0,0,0-.44-.25,1.67,1.67,0,0,0-.55-.08,1.84,1.84,0,0,0-.6.1,2.58,2.58,0,0,0-.56.25l.06-2.95h3Z"/><path d="M209.45,35.68a7,7,0,0,1,.08-1,3.1,3.1,0,0,1,.29-1,2,2,0,0,1,.59-.71,1.6,1.6,0,0,1,1-.27,1.55,1.55,0,0,1,.95.27,1.94,1.94,0,0,1,.59.71,2.86,2.86,0,0,1,.3,1,7,7,0,0,1,.08,1,7.07,7.07,0,0,1-.08,1,2.88,2.88,0,0,1-.3.94,1.94,1.94,0,0,1-.59.71,1.55,1.55,0,0,1-.95.27,1.6,1.6,0,0,1-1-.27,2,2,0,0,1-.59-.71,3.13,3.13,0,0,1-.29-.94A7.07,7.07,0,0,1,209.45,35.68Zm.67,0c0,.13,0,.29,0,.46a4.88,4.88,0,0,0,.06.52,4.05,4.05,0,0,0,.12.5,1.66,1.66,0,0,0,.23.44,1,1,0,0,0,.34.31.9.9,0,0,0,.48.12,1,1,0,0,0,.48-.12,1.24,1.24,0,0,0,.34-.31,1.4,1.4,0,0,0,.22-.44,2.83,2.83,0,0,0,.13-.5,4.88,4.88,0,0,0,.06-.52c0-.17,0-.33,0-.46s0-.3,0-.47a4.43,4.43,0,0,0-.06-.51,2.72,2.72,0,0,0-.13-.51,1.51,1.51,0,0,0-.22-.44,1.24,1.24,0,0,0-.34-.31,1,1,0,0,0-.48-.12.9.9,0,0,0-.48.12,1,1,0,0,0-.34.31,1.83,1.83,0,0,0-.23.44,3.81,3.81,0,0,0-.12.51,4.43,4.43,0,0,0-.06.51C210.13,35.38,210.12,35.54,210.12,35.68Z"/><path d="M214.05,33.89a1.15,1.15,0,0,1,.33-.81,1,1,0,0,1,.37-.24,1,1,0,0,1,.44-.09,1.13,1.13,0,0,1,.45.09,1,1,0,0,1,.36.24,1,1,0,0,1,.25.36,1.17,1.17,0,0,1,0,.9,1.23,1.23,0,0,1-.61.61,1.13,1.13,0,0,1-.45.09,1.15,1.15,0,0,1-.81-.34,1.15,1.15,0,0,1-.33-.81Zm.43,0a.79.79,0,0,0,.05.25,1.14,1.14,0,0,0,.15.23.62.62,0,0,0,.22.17.72.72,0,0,0,.29.06.68.68,0,0,0,.52-.23.79.79,0,0,0,.14-.23.65.65,0,0,0,0-.5.79.79,0,0,0-.14-.23.81.81,0,0,0-.23-.17.65.65,0,0,0-.29-.06.72.72,0,0,0-.29.06.76.76,0,0,0-.22.17,1.14,1.14,0,0,0-.15.23A.79.79,0,0,0,214.48,33.89Z"/><path d="M93.61,38.51h-.67v-4.8h0l-1,.85-.4-.48L93,32.84h.58Z"/><path d="M98.92,33.47H96.61l0,1.53a1,1,0,0,1,.35-.11l.37,0a1.91,1.91,0,0,1,.74.14,1.65,1.65,0,0,1,.58.39A1.71,1.71,0,0,1,99,36a2,2,0,0,1,.13.74,2,2,0,0,1-.15.78,1.71,1.71,0,0,1-.4.59,2,2,0,0,1-.62.38,2.15,2.15,0,0,1-.77.13,1.78,1.78,0,0,1-1.05-.28,1.85,1.85,0,0,1-.62-.75l.67-.25a1.16,1.16,0,0,0,.42.51,1.05,1.05,0,0,0,.63.2,1.28,1.28,0,0,0,.48-.09,1.23,1.23,0,0,0,.64-.68,1.33,1.33,0,0,0,.1-.54,1.38,1.38,0,0,0-.11-.55,1.18,1.18,0,0,0-.29-.4,1.41,1.41,0,0,0-.45-.25,1.63,1.63,0,0,0-.55-.08,1.78,1.78,0,0,0-.59.1,2.58,2.58,0,0,0-.56.25l0-2.95h3Z"/><path d="M99.88,35.68a7,7,0,0,1,.08-1,3.11,3.11,0,0,1,.3-1,1.94,1.94,0,0,1,.59-.71,1.55,1.55,0,0,1,1-.27,1.6,1.6,0,0,1,1,.27,2,2,0,0,1,.59.71,3.1,3.1,0,0,1,.29,1,5.77,5.77,0,0,1,.08,1,5.85,5.85,0,0,1-.08,1,3.13,3.13,0,0,1-.29.94,2,2,0,0,1-.59.71,1.6,1.6,0,0,1-1,.27,1.55,1.55,0,0,1-1-.27,1.94,1.94,0,0,1-.59-.71,3.14,3.14,0,0,1-.3-.94A7.07,7.07,0,0,1,99.88,35.68Zm.67,0c0,.13,0,.29,0,.46a4.88,4.88,0,0,0,.06.52,2.83,2.83,0,0,0,.13.5,1.4,1.4,0,0,0,.22.44,1.24,1.24,0,0,0,.34.31,1,1,0,0,0,.48.12.9.9,0,0,0,.48-.12,1,1,0,0,0,.34-.31,1.41,1.41,0,0,0,.23-.44,4.05,4.05,0,0,0,.12-.5,4.88,4.88,0,0,0,.06-.52c0-.17,0-.33,0-.46s0-.3,0-.47a4.43,4.43,0,0,0-.06-.51,3.81,3.81,0,0,0-.12-.51,1.53,1.53,0,0,0-.23-.44,1,1,0,0,0-.34-.31.9.9,0,0,0-.48-.12,1,1,0,0,0-.48.12,1.24,1.24,0,0,0-.34.31,1.51,1.51,0,0,0-.22.44,2.72,2.72,0,0,0-.13.51,4.43,4.43,0,0,0-.06.51C100.56,35.38,100.55,35.54,100.55,35.68Z"/><path d="M104.48,33.89a1.15,1.15,0,0,1,1.15-1.14,1,1,0,0,1,.44.09,1.12,1.12,0,0,1,.37.24,1.16,1.16,0,0,1,0,1.62,1.15,1.15,0,0,1-.37.25,1,1,0,0,1-.44.09,1.13,1.13,0,0,1-.45-.09,1.15,1.15,0,0,1-.37-.25,1.15,1.15,0,0,1-.33-.81Zm.43,0a.61.61,0,0,0,.06.25.79.79,0,0,0,.14.23.72.72,0,0,0,.22.17.73.73,0,0,0,.3.06.72.72,0,0,0,.29-.06.62.62,0,0,0,.22-.17,1.14,1.14,0,0,0,.15-.23.65.65,0,0,0,0-.5,1.14,1.14,0,0,0-.15-.23.76.76,0,0,0-.22-.17.72.72,0,0,0-.29-.06.73.73,0,0,0-.3.06.92.92,0,0,0-.22.17.79.79,0,0,0-.14.23A.61.61,0,0,0,104.91,33.89Z"/><path d="M248.75,192.45v0a1.35,1.35,0,0,1,.37-.13,2,2,0,0,1,.39,0,1.73,1.73,0,0,1,.69.13,1.42,1.42,0,0,1,.54.36,1.85,1.85,0,0,1,.36.57,2,2,0,0,1,.12.72,1.78,1.78,0,0,1-.14.74,1.74,1.74,0,0,1-.4.56,2,2,0,0,1-.6.35,2.36,2.36,0,0,1-.75.12,2.27,2.27,0,0,1-.75-.12,2,2,0,0,1-.6-.35,1.6,1.6,0,0,1-.4-.56,1.78,1.78,0,0,1-.15-.74,2.24,2.24,0,0,1,.15-.86,5.28,5.28,0,0,1,.39-.74l1.5-2.39h.79Zm.59.43a1.23,1.23,0,0,0-.87.32,1,1,0,0,0-.26.38,1.31,1.31,0,0,0-.1.5,1.35,1.35,0,0,0,.1.5,1.08,1.08,0,0,0,.26.37,1,1,0,0,0,.39.24,1.32,1.32,0,0,0,1,0,1,1,0,0,0,.39-.24,1.23,1.23,0,0,0,.26-.37,1.35,1.35,0,0,0,.09-.5,1.31,1.31,0,0,0-.09-.5,1.16,1.16,0,0,0-.26-.38,1.23,1.23,0,0,0-.87-.32Z"/><path d="M251.82,192.92a7.07,7.07,0,0,1,.08-1,3.13,3.13,0,0,1,.29-.94,2,2,0,0,1,.59-.71,1.6,1.6,0,0,1,1-.27,1.55,1.55,0,0,1,.95.27,1.94,1.94,0,0,1,.59.71,2.88,2.88,0,0,1,.3.94,7.07,7.07,0,0,1,.08,1,7,7,0,0,1-.08,1,2.86,2.86,0,0,1-.3,1,1.94,1.94,0,0,1-.59.71,1.55,1.55,0,0,1-.95.27,1.6,1.6,0,0,1-1-.27,2,2,0,0,1-.59-.71,3.1,3.1,0,0,1-.29-1A7,7,0,0,1,251.82,192.92Zm.67,0c0,.14,0,.3,0,.47a4.43,4.43,0,0,0,.06.51,3.81,3.81,0,0,0,.12.51,1.83,1.83,0,0,0,.23.44,1,1,0,0,0,.34.31.9.9,0,0,0,.48.12,1,1,0,0,0,.48-.12,1.24,1.24,0,0,0,.34-.31,1.51,1.51,0,0,0,.22-.44,2.72,2.72,0,0,0,.13-.51,4.43,4.43,0,0,0,.06-.51c0-.17,0-.33,0-.47s0-.29,0-.46a4.88,4.88,0,0,0-.06-.52,2.83,2.83,0,0,0-.13-.5,1.4,1.4,0,0,0-.22-.44,1.1,1.1,0,0,0-.34-.31,1,1,0,0,0-.48-.12.9.9,0,0,0-.48.12.92.92,0,0,0-.34.31,1.66,1.66,0,0,0-.23.44,4.05,4.05,0,0,0-.12.5,4.88,4.88,0,0,0-.06.52C252.5,192.63,252.49,192.79,252.49,192.92Z"/><path d="M256.42,191.14a1.15,1.15,0,0,1,.33-.81,1.05,1.05,0,0,1,.37-.25,1.23,1.23,0,0,1,.44-.08,1.33,1.33,0,0,1,.45.08,1.15,1.15,0,0,1,.37.25,1.16,1.16,0,0,1,0,1.62,1.15,1.15,0,0,1-.37.25,1.33,1.33,0,0,1-.45.08,1.23,1.23,0,0,1-.44-.08,1.05,1.05,0,0,1-.37-.25,1.15,1.15,0,0,1-.33-.81Zm.43,0a.79.79,0,0,0,0,.25,1.14,1.14,0,0,0,.15.23.62.62,0,0,0,.22.17.72.72,0,0,0,.29.06.68.68,0,0,0,.52-.23.79.79,0,0,0,.14-.23.65.65,0,0,0,0-.5.79.79,0,0,0-.14-.23.68.68,0,0,0-.52-.23.72.72,0,0,0-.29.06.62.62,0,0,0-.22.17,1.14,1.14,0,0,0-.15.23A.79.79,0,0,0,256.85,191.14Z"/><path d="M250,81.22h-.67v-4.8h0l-1,.86-.4-.49,1.52-1.23H250Z"/><path d="M251.92,80.45l2.13-2.08c.13-.12.25-.24.35-.35a2.16,2.16,0,0,0,.25-.32,1.09,1.09,0,0,0,.15-.33,1.38,1.38,0,0,0,0-.37,1,1,0,0,0-.08-.4.84.84,0,0,0-.22-.3.78.78,0,0,0-.33-.19,1.05,1.05,0,0,0-.4-.07,1,1,0,0,0-.71.25,1.08,1.08,0,0,0-.36.65l-.73-.06a1.83,1.83,0,0,1,.21-.61,1.41,1.41,0,0,1,.39-.45,2,2,0,0,1,.53-.27,2.25,2.25,0,0,1,.64-.09,2.41,2.41,0,0,1,.67.1,1.92,1.92,0,0,1,.55.29,1.44,1.44,0,0,1,.51,1.15,2,2,0,0,1-.09.61,2,2,0,0,1-.25.5,3.47,3.47,0,0,1-.35.43l-.41.4-1.75,1.64v0h2.89v.62h-3.64Z"/><path d="M256.27,78.39a5.85,5.85,0,0,1,.08-1,3.19,3.19,0,0,1,.29-1,2,2,0,0,1,.59-.7,1.54,1.54,0,0,1,1-.28,1.51,1.51,0,0,1,.95.28,1.91,1.91,0,0,1,.59.7,3.2,3.2,0,0,1,.3,1,6.29,6.29,0,0,1,0,2,3.2,3.2,0,0,1-.3,1,1.91,1.91,0,0,1-.59.7,1.51,1.51,0,0,1-.95.28,1.54,1.54,0,0,1-1-.28,2,2,0,0,1-.59-.7,3.19,3.19,0,0,1-.29-1A5.85,5.85,0,0,1,256.27,78.39Zm.67,0a3.78,3.78,0,0,0,0,.46c0,.17,0,.35.05.52a4.77,4.77,0,0,0,.13.51,1.67,1.67,0,0,0,.23.44,1,1,0,0,0,.34.31,1,1,0,0,0,.48.11,1.06,1.06,0,0,0,.48-.11,1.24,1.24,0,0,0,.34-.31,2,2,0,0,0,.22-.44,3.18,3.18,0,0,0,.13-.51,4.6,4.6,0,0,0,.06-.52c0-.17,0-.32,0-.46s0-.29,0-.46a4.35,4.35,0,0,0-.06-.52,3.18,3.18,0,0,0-.13-.51,2,2,0,0,0-.22-.44,1.24,1.24,0,0,0-.34-.31,1.06,1.06,0,0,0-.48-.11,1,1,0,0,0-.48.11,1,1,0,0,0-.34.31,1.67,1.67,0,0,0-.23.44,4.77,4.77,0,0,0-.13.51c0,.17,0,.34-.05.52A3.78,3.78,0,0,0,256.94,78.39Z"/><path d="M260.87,76.61a1.13,1.13,0,0,1,.09-.45,1,1,0,0,1,.24-.37,1.16,1.16,0,0,1,1.62,0,1.15,1.15,0,0,1,.25.37,1.13,1.13,0,0,1,.09.45,1,1,0,0,1-.09.44,1.15,1.15,0,0,1-.25.37,1.16,1.16,0,0,1-1.62,0,1,1,0,0,1-.24-.37A1,1,0,0,1,260.87,76.61Zm.43,0a.69.69,0,0,0,.05.24.75.75,0,0,0,.15.24.6.6,0,0,0,.22.16.64.64,0,0,0,.58,0,.63.63,0,0,0,.23-.16.72.72,0,0,0,.14-.24.52.52,0,0,0,.05-.24.56.56,0,0,0-.05-.25.59.59,0,0,0-.14-.23.66.66,0,0,0-.23-.17.64.64,0,0,0-.58,0,.62.62,0,0,0-.22.17.61.61,0,0,0-.15.23A.74.74,0,0,0,261.3,76.61Z"/><path d="M40.39,192.45v0a1.42,1.42,0,0,1,.38-.13,1.84,1.84,0,0,1,.39,0,1.72,1.72,0,0,1,.68.13,1.42,1.42,0,0,1,.54.36,1.85,1.85,0,0,1,.36.57,2,2,0,0,1,.13.72,1.78,1.78,0,0,1-.15.74,1.6,1.6,0,0,1-.4.56,2,2,0,0,1-.6.35,2.4,2.4,0,0,1-1.5,0,2,2,0,0,1-.6-.35,1.6,1.6,0,0,1-.4-.56,1.78,1.78,0,0,1-.15-.74,2.24,2.24,0,0,1,.16-.86,5.19,5.19,0,0,1,.38-.74l1.5-2.39h.79Zm.59.43a1.23,1.23,0,0,0-.87.32,1.16,1.16,0,0,0-.26.38,1.31,1.31,0,0,0-.09.5,1.35,1.35,0,0,0,.09.5,1.23,1.23,0,0,0,.26.37,1,1,0,0,0,.39.24,1.32,1.32,0,0,0,1,0,1,1,0,0,0,.39-.24,1.23,1.23,0,0,0,.26-.37,1.35,1.35,0,0,0,.1-.5,1.31,1.31,0,0,0-.1-.5,1.16,1.16,0,0,0-.26-.38,1.23,1.23,0,0,0-.87-.32Z"/><path d="M43.46,192.92a7.07,7.07,0,0,1,.08-1,2.88,2.88,0,0,1,.3-.94,1.94,1.94,0,0,1,.59-.71,1.55,1.55,0,0,1,1-.27,1.6,1.6,0,0,1,1,.27,2,2,0,0,1,.59.71,3.13,3.13,0,0,1,.29.94,7.07,7.07,0,0,1,.08,1,7,7,0,0,1-.08,1,3.1,3.1,0,0,1-.29,1,2,2,0,0,1-.59.71,1.6,1.6,0,0,1-1,.27,1.55,1.55,0,0,1-1-.27,1.94,1.94,0,0,1-.59-.71,2.86,2.86,0,0,1-.3-1A7,7,0,0,1,43.46,192.92Zm.67,0c0,.14,0,.3,0,.47a4.43,4.43,0,0,0,.06.51,2.72,2.72,0,0,0,.13.51,1.51,1.51,0,0,0,.22.44,1.12,1.12,0,0,0,.34.31,1,1,0,0,0,1,0,1.12,1.12,0,0,0,.34-.31,1.83,1.83,0,0,0,.23-.44,3.81,3.81,0,0,0,.12-.51,4.43,4.43,0,0,0,.06-.51c0-.17,0-.33,0-.47s0-.29,0-.46a4.88,4.88,0,0,0-.06-.52,4.05,4.05,0,0,0-.12-.5,1.66,1.66,0,0,0-.23-.44,1,1,0,0,0-.34-.31,1,1,0,0,0-1,0,1,1,0,0,0-.34.31,1.4,1.4,0,0,0-.22.44,2.83,2.83,0,0,0-.13.5,4.88,4.88,0,0,0-.06.52C44.14,192.63,44.13,192.79,44.13,192.92Z"/><path d="M48.06,191.14a1.15,1.15,0,0,1,.33-.81,1.15,1.15,0,0,1,.37-.25,1.33,1.33,0,0,1,.45-.08,1.27,1.27,0,0,1,.44.08,1.15,1.15,0,0,1,.37.25A1.16,1.16,0,0,1,50,192a1.15,1.15,0,0,1-.37.25,1.27,1.27,0,0,1-.44.08,1.33,1.33,0,0,1-.45-.08,1.15,1.15,0,0,1-.37-.25,1.15,1.15,0,0,1-.33-.81Zm.43,0a.61.61,0,0,0,.06.25.79.79,0,0,0,.14.23.72.72,0,0,0,.22.17.73.73,0,0,0,.3.06.72.72,0,0,0,.29-.06.62.62,0,0,0,.22-.17,1.14,1.14,0,0,0,.15-.23.65.65,0,0,0,0-.5,1.14,1.14,0,0,0-.15-.23.62.62,0,0,0-.22-.17.72.72,0,0,0-.29-.06.73.73,0,0,0-.3.06.72.72,0,0,0-.22.17.79.79,0,0,0-.14.23A.61.61,0,0,0,48.49,191.14Z"/><path d="M39.15,81.22h-.67v-4.8h0l-1,.86-.4-.49,1.52-1.23h.58Z"/><path d="M41.07,80.45l2.14-2.08c.13-.12.25-.24.35-.35a2.16,2.16,0,0,0,.25-.32,1.09,1.09,0,0,0,.15-.33A1.38,1.38,0,0,0,44,77a1,1,0,0,0-.08-.4.84.84,0,0,0-.22-.3.78.78,0,0,0-.33-.19A1.05,1.05,0,0,0,43,76a1,1,0,0,0-.72.25,1.19,1.19,0,0,0-.36.65l-.72-.06a1.47,1.47,0,0,1,.21-.61,1.41,1.41,0,0,1,.39-.45,2,2,0,0,1,.53-.27,2.2,2.2,0,0,1,.64-.09,2.41,2.41,0,0,1,.67.1,2.06,2.06,0,0,1,.55.29,1.47,1.47,0,0,1,.37.48,1.6,1.6,0,0,1,.14.67,2,2,0,0,1-.09.61,2.34,2.34,0,0,1-.25.5,3.47,3.47,0,0,1-.35.43l-.41.4-1.75,1.64v0h2.89v.62H41.07Z"/><path d="M45.43,78.39a7,7,0,0,1,.07-1,3.52,3.52,0,0,1,.3-1,2,2,0,0,1,.59-.7,1.77,1.77,0,0,1,1.91,0,1.91,1.91,0,0,1,.59.7,3.52,3.52,0,0,1,.3,1,6.29,6.29,0,0,1,0,2,3.52,3.52,0,0,1-.3,1,1.91,1.91,0,0,1-.59.7,1.77,1.77,0,0,1-1.91,0,2,2,0,0,1-.59-.7,3.52,3.52,0,0,1-.3-1A7,7,0,0,1,45.43,78.39Zm.67,0c0,.14,0,.29,0,.46a4.6,4.6,0,0,0,.06.52,4.77,4.77,0,0,0,.13.51,2,2,0,0,0,.22.44,1.15,1.15,0,0,0,.35.31,1,1,0,0,0,.48.11,1.06,1.06,0,0,0,.48-.11,1.24,1.24,0,0,0,.34-.31,2,2,0,0,0,.22-.44,3.18,3.18,0,0,0,.13-.51,4.6,4.6,0,0,0,.06-.52c0-.17,0-.32,0-.46s0-.29,0-.46a4.35,4.35,0,0,0-.06-.52,3.18,3.18,0,0,0-.13-.51,2,2,0,0,0-.22-.44,1.24,1.24,0,0,0-.34-.31,1.06,1.06,0,0,0-.48-.11,1,1,0,0,0-.48.11,1.15,1.15,0,0,0-.35.31,2,2,0,0,0-.22.44,4.77,4.77,0,0,0-.13.51,4.35,4.35,0,0,0-.06.52C46.1,78.1,46.1,78.25,46.1,78.39Z"/><path d="M50,76.61a1.12,1.12,0,0,1,.08-.45,1.15,1.15,0,0,1,.25-.37,1.16,1.16,0,0,1,1.62,0,1.15,1.15,0,0,1,.25.37,1.33,1.33,0,0,1,.08.45,1.23,1.23,0,0,1-.08.44,1.15,1.15,0,0,1-.25.37,1.16,1.16,0,0,1-1.62,0,1.15,1.15,0,0,1-.25-.37A1,1,0,0,1,50,76.61Zm.43,0a.52.52,0,0,0,0,.24.72.72,0,0,0,.14.24.63.63,0,0,0,.23.16.64.64,0,0,0,.58,0,.73.73,0,0,0,.23-.16,1,1,0,0,0,.14-.24.69.69,0,0,0,.05-.24.75.75,0,0,0-.19-.48.76.76,0,0,0-.23-.17.64.64,0,0,0-.58,0,.66.66,0,0,0-.23.17.59.59,0,0,0-.14.23A.56.56,0,0,0,50.46,76.61Z"/></g><g id="numeri_fondo_tabella" data-name="numeri fondo tabella"><path d="M131.83,251.42a1.17,1.17,0,0,0-.43-.35,1.19,1.19,0,0,0-.51-.11,1.35,1.35,0,0,0-.55.11,1.08,1.08,0,0,0-.4.3,1.32,1.32,0,0,0-.23.44,1.76,1.76,0,0,0,0,1.08,1.43,1.43,0,0,0,.26.45,1.31,1.31,0,0,0,.39.3,1.27,1.27,0,0,0,.52.1,1.09,1.09,0,0,0,1-.46l.47.44a1.69,1.69,0,0,1-.64.46,2.29,2.29,0,0,1-.78.14,2.22,2.22,0,0,1-.79-.14,1.75,1.75,0,0,1-1-1,2.27,2.27,0,0,1,0-1.57,1.86,1.86,0,0,1,.39-.63,2,2,0,0,1,.61-.41,2,2,0,0,1,.79-.15,2.09,2.09,0,0,1,.79.15,1.59,1.59,0,0,1,.65.45Z"/><path d="M136.21,253.56h0a1.43,1.43,0,0,1-.55.54,1.7,1.7,0,0,1-.89.22,1.8,1.8,0,0,1-.73-.15,1.78,1.78,0,0,1-.6-.41,1.81,1.81,0,0,1-.39-.62,2.06,2.06,0,0,1-.15-.79,2,2,0,0,1,.15-.78,1.88,1.88,0,0,1,.4-.63,1.81,1.81,0,0,1,.62-.41,2.07,2.07,0,0,1,.8-.15,1.72,1.72,0,0,1,.75.17,1.78,1.78,0,0,1,.59.47h0v-2.84h.62v6h-.62Zm0-1.21a1.63,1.63,0,0,0-.09-.55,1.34,1.34,0,0,0-.27-.44,1.37,1.37,0,0,0-.42-.29,1.35,1.35,0,0,0-.55-.11,1.42,1.42,0,0,0-.55.11,1.22,1.22,0,0,0-.41.29,1.34,1.34,0,0,0-.27.44,1.56,1.56,0,0,0,0,1.1,1.25,1.25,0,0,0,.27.44,1.19,1.19,0,0,0,1,.4,1.35,1.35,0,0,0,.55-.1,1.6,1.6,0,0,0,.42-.3,1.25,1.25,0,0,0,.27-.44A1.63,1.63,0,0,0,136.21,252.35Z"/><path d="M140.1,254.57l-.5-.2,2.4-6.15.51.2Z"/><path d="M147.64,254.22H147v-4.8h0l-1,.86-.4-.49,1.52-1.23h.59Z"/><path d="M149.46,251.39a7.07,7.07,0,0,1,.08-1,3.19,3.19,0,0,1,.29-.95,2,2,0,0,1,.59-.7,1.61,1.61,0,0,1,1-.28,1.55,1.55,0,0,1,1,.28,1.91,1.91,0,0,1,.59.7,2.94,2.94,0,0,1,.3.95,6.29,6.29,0,0,1,0,2,2.94,2.94,0,0,1-.3,1,1.91,1.91,0,0,1-.59.7,1.49,1.49,0,0,1-1,.28,1.54,1.54,0,0,1-1-.28,2,2,0,0,1-.59-.7,3.19,3.19,0,0,1-.29-1A7.07,7.07,0,0,1,149.46,251.39Zm.67,0c0,.14,0,.29,0,.47a4.43,4.43,0,0,0,.06.51,4.7,4.7,0,0,0,.12.51,2,2,0,0,0,.23.44,1.12,1.12,0,0,0,.34.31,1.1,1.1,0,0,0,1,0,1.12,1.12,0,0,0,.34-.31,1.65,1.65,0,0,0,.22-.44,3.18,3.18,0,0,0,.13-.51,4.43,4.43,0,0,0,.06-.51c0-.18,0-.33,0-.47s0-.29,0-.46a4.6,4.6,0,0,0-.06-.52,3.18,3.18,0,0,0-.13-.51,1.65,1.65,0,0,0-.22-.44,1.08,1.08,0,0,0-.34-.3,1,1,0,0,0-1,0,1.08,1.08,0,0,0-.34.3,2,2,0,0,0-.23.44,4.7,4.7,0,0,0-.12.51,4.6,4.6,0,0,0-.06.52C150.14,251.1,150.13,251.25,150.13,251.39Z"/><path d="M153.91,251.39a5.85,5.85,0,0,1,.08-1,3.19,3.19,0,0,1,.29-.95,2,2,0,0,1,.59-.7,1.61,1.61,0,0,1,1-.28,1.55,1.55,0,0,1,.95.28,1.91,1.91,0,0,1,.59.7,3.2,3.2,0,0,1,.3.95,6.29,6.29,0,0,1,0,2,3.2,3.2,0,0,1-.3,1,1.91,1.91,0,0,1-.59.7,1.49,1.49,0,0,1-.95.28,1.54,1.54,0,0,1-1-.28,2,2,0,0,1-.59-.7,3.19,3.19,0,0,1-.29-1A5.85,5.85,0,0,1,153.91,251.39Zm.67,0a4,4,0,0,0,0,.47,4.43,4.43,0,0,0,.06.51,3.14,3.14,0,0,0,.12.51,1.67,1.67,0,0,0,.23.44,1,1,0,0,0,.34.31.9.9,0,0,0,.48.11,1,1,0,0,0,.48-.11,1.24,1.24,0,0,0,.34-.31,1.65,1.65,0,0,0,.22-.44,3.18,3.18,0,0,0,.13-.51,4.43,4.43,0,0,0,.06-.51c0-.18,0-.33,0-.47s0-.29,0-.46a4.6,4.6,0,0,0-.06-.52,3.18,3.18,0,0,0-.13-.51,1.65,1.65,0,0,0-.22-.44,1.21,1.21,0,0,0-.34-.3,1,1,0,0,0-.48-.12.9.9,0,0,0-.48.12,1,1,0,0,0-.34.3,1.67,1.67,0,0,0-.23.44,3.14,3.14,0,0,0-.12.51,4.6,4.6,0,0,0-.06.52A3.78,3.78,0,0,0,154.58,251.39Z"/><path d="M158.31,251.39a5.85,5.85,0,0,1,.08-1,3.19,3.19,0,0,1,.29-.95,2,2,0,0,1,.59-.7,1.61,1.61,0,0,1,1-.28,1.55,1.55,0,0,1,1,.28,1.91,1.91,0,0,1,.59.7,3.2,3.2,0,0,1,.3.95,6.29,6.29,0,0,1,0,2,3.2,3.2,0,0,1-.3,1,1.91,1.91,0,0,1-.59.7,1.49,1.49,0,0,1-1,.28,1.54,1.54,0,0,1-1-.28,2,2,0,0,1-.59-.7,3.19,3.19,0,0,1-.29-1A5.85,5.85,0,0,1,158.31,251.39Zm.67,0c0,.14,0,.29,0,.47a4.43,4.43,0,0,0,.06.51,3.14,3.14,0,0,0,.12.51,1.67,1.67,0,0,0,.23.44,1,1,0,0,0,.34.31.9.9,0,0,0,.48.11,1,1,0,0,0,.48-.11,1.24,1.24,0,0,0,.34-.31,1.65,1.65,0,0,0,.22-.44,3.18,3.18,0,0,0,.13-.51,4.43,4.43,0,0,0,.06-.51c0-.18,0-.33,0-.47s0-.29,0-.46a4.6,4.6,0,0,0-.06-.52,3.18,3.18,0,0,0-.13-.51,1.65,1.65,0,0,0-.22-.44,1.21,1.21,0,0,0-.34-.3,1,1,0,0,0-.48-.12.9.9,0,0,0-.48.12,1,1,0,0,0-.34.3,1.67,1.67,0,0,0-.23.44,3.14,3.14,0,0,0-.12.51,4.6,4.6,0,0,0-.06.52C159,251.1,159,251.25,159,251.39Z"/><path d="M165.32,248.18H166v6h-.63Z"/><path d="M167.19,251.37c0-.17,0-.33,0-.48s0-.29,0-.41h.59c0,.1,0,.2,0,.3v.32h0a.91.91,0,0,1,.18-.27,1.64,1.64,0,0,1,.28-.23,1.5,1.5,0,0,1,.36-.16,1.44,1.44,0,0,1,.43-.06,1.52,1.52,0,0,1,.51.08,1.36,1.36,0,0,1,.34.18.93.93,0,0,1,.21.24,1.64,1.64,0,0,1,.12.22,1.78,1.78,0,0,1,.48-.53,1.27,1.27,0,0,1,.71-.19,1.88,1.88,0,0,1,.67.11,1.1,1.1,0,0,1,.44.31,1.37,1.37,0,0,1,.24.5,2.59,2.59,0,0,1,.07.65v2.27h-.62V252a2.33,2.33,0,0,0,0-.37,1,1,0,0,0-.15-.33.71.71,0,0,0-.28-.23,1,1,0,0,0-.45-.09,1,1,0,0,0-.37.08,1,1,0,0,0-.31.22,1.13,1.13,0,0,0-.21.35,1.33,1.33,0,0,0-.07.45v2.16h-.63V252.1a1.62,1.62,0,0,0-.17-.88A.6.6,0,0,0,169,251a1.18,1.18,0,0,0-.52.1.88.88,0,0,0-.36.3,1.14,1.14,0,0,0-.21.46,2.1,2.1,0,0,0-.07.58v1.82h-.62Z"/><line class="cls-1" x1="38.21" y1="253" x2="46.2" y2="253"/><path d="M235.17,251a1.66,1.66,0,0,0-.63-.52,1.93,1.93,0,0,0-.79-.17,2.13,2.13,0,0,0-.87.19,2.16,2.16,0,0,0-.68.52,2.58,2.58,0,0,0-.45.75,2.69,2.69,0,0,0-.16.89,2.79,2.79,0,0,0,.16.93,2.41,2.41,0,0,0,.45.74,2,2,0,0,0,.68.5,1.92,1.92,0,0,0,.87.19,2,2,0,0,0,1.64-.8l.51.43a2.38,2.38,0,0,1-.93.75,3,3,0,0,1-1.22.24,2.85,2.85,0,0,1-1.13-.22,2.82,2.82,0,0,1-.92-.62,3,3,0,0,1-.61-.94,3.33,3.33,0,0,1-.22-1.2,3.19,3.19,0,0,1,.21-1.16,2.9,2.9,0,0,1,.6-1,3.08,3.08,0,0,1,.91-.63,3,3,0,0,1,2.27,0,2,2,0,0,1,.89.68Z"/><path d="M239,253.1l0,0a1.35,1.35,0,0,1-.37.13,2.87,2.87,0,0,1-.39,0,1.68,1.68,0,0,1-.68-.13,1.5,1.5,0,0,1-.55-.36,1.92,1.92,0,0,1-.36-.56,2.11,2.11,0,0,1-.12-.73,1.75,1.75,0,0,1,.14-.74,1.63,1.63,0,0,1,.4-.56,1.79,1.79,0,0,1,.6-.35,2.36,2.36,0,0,1,.75-.12,2.27,2.27,0,0,1,.75.12,1.94,1.94,0,0,1,.61.35,1.49,1.49,0,0,1,.39.56,1.75,1.75,0,0,1,.15.74,2.19,2.19,0,0,1,0,.46c0,.14-.07.27-.11.4a2.53,2.53,0,0,1-.18.37,3.35,3.35,0,0,1-.21.36l-1.5,2.4h-.79Zm-.6-.43a1.51,1.51,0,0,0,.48-.08,1.28,1.28,0,0,0,.39-.24,1.12,1.12,0,0,0,.26-.38,1.27,1.27,0,0,0,.1-.5,1.26,1.26,0,0,0-.1-.49,1,1,0,0,0-.26-.38,1,1,0,0,0-.39-.24,1.33,1.33,0,0,0-1,0,.88.88,0,0,0-.38.24,1.19,1.19,0,0,0-.27.38,1.26,1.26,0,0,0-.09.49,1.28,1.28,0,0,0,.09.5,1.31,1.31,0,0,0,.27.38,1.12,1.12,0,0,0,.38.24A1.51,1.51,0,0,0,238.35,252.67Z"/><path d="M240.88,252.62a7.07,7.07,0,0,1,.08-1,2.88,2.88,0,0,1,.3-.94,2,2,0,0,1,.58-.71,1.84,1.84,0,0,1,1.92,0,2,2,0,0,1,.58.71,2.88,2.88,0,0,1,.3.94,7.07,7.07,0,0,1,.08,1,7,7,0,0,1-.08,1,2.86,2.86,0,0,1-.3.95,2,2,0,0,1-.58.71,1.84,1.84,0,0,1-1.92,0,2,2,0,0,1-.58-.71,2.86,2.86,0,0,1-.3-.95A7,7,0,0,1,240.88,252.62Zm.67,0c0,.14,0,.3,0,.47a4.43,4.43,0,0,0,.06.51,2.72,2.72,0,0,0,.13.51,1.51,1.51,0,0,0,.22.44,1.12,1.12,0,0,0,.34.31,1,1,0,0,0,1,0,1.12,1.12,0,0,0,.34-.31,1.51,1.51,0,0,0,.22-.44,2.72,2.72,0,0,0,.13-.51,4.43,4.43,0,0,0,.06-.51c0-.17,0-.33,0-.47s0-.29,0-.46a4.88,4.88,0,0,0-.06-.52,2.83,2.83,0,0,0-.13-.5,1.4,1.4,0,0,0-.22-.44,1.12,1.12,0,0,0-.34-.31,1,1,0,0,0-1,0,1.12,1.12,0,0,0-.34.31,1.4,1.4,0,0,0-.22.44,2.83,2.83,0,0,0-.13.5,4.88,4.88,0,0,0-.06.52C241.56,252.33,241.55,252.49,241.55,252.62Z"/><path d="M247.78,255.8l-.51-.2,2.41-6.14.5.19Z"/><path d="M257.1,251a1.66,1.66,0,0,0-.63-.52,1.92,1.92,0,0,0-.78-.17,2.06,2.06,0,0,0-.87.19,2.16,2.16,0,0,0-.68.52,2.21,2.21,0,0,0-.45.75,2.46,2.46,0,0,0-.16.89,2.56,2.56,0,0,0,.16.93,2.2,2.2,0,0,0,.44.74,2.1,2.1,0,0,0,.68.5,2,2,0,0,0,.88.19,2,2,0,0,0,.93-.21,2,2,0,0,0,.71-.59l.5.43a2.29,2.29,0,0,1-.92.75,3,3,0,0,1-1.22.24,2.8,2.8,0,0,1-2.05-.84,2.82,2.82,0,0,1-.61-.94,3.13,3.13,0,0,1-.22-1.2,3.19,3.19,0,0,1,.21-1.16,2.75,2.75,0,0,1,.6-1,3,3,0,0,1,.91-.63,2.93,2.93,0,0,1,1.16-.23,3,3,0,0,1,1.11.21,2,2,0,0,1,.89.68Z"/><path d="M258.46,254.69l2.14-2.08.35-.36a1.75,1.75,0,0,0,.25-.32,1,1,0,0,0,.15-.32,1.46,1.46,0,0,0,0-.38,1,1,0,0,0-.08-.4.93.93,0,0,0-.22-.3,1.13,1.13,0,0,0-.73-.26,1,1,0,0,0-.71.25,1.11,1.11,0,0,0-.36.66l-.73-.07a1.91,1.91,0,0,1,.21-.61,1.28,1.28,0,0,1,.39-.44,1.77,1.77,0,0,1,.53-.27,2.25,2.25,0,0,1,.64-.09,2.09,2.09,0,0,1,.67.1,1.53,1.53,0,0,1,.55.29,1.47,1.47,0,0,1,.37.48,1.39,1.39,0,0,1,.14.66,1.91,1.91,0,0,1-.09.61,1.8,1.8,0,0,1-.25.5,2.86,2.86,0,0,1-.35.43l-.41.41-1.75,1.64h2.89v.63h-3.65Z"/><path d="M266.35,250.42l-2.26,5h-.76l2.3-5H262.9v-.63h3.45Z"/><path d="M267.26,252.62a7.07,7.07,0,0,1,.08-1,3.45,3.45,0,0,1,.3-.94,2,2,0,0,1,.59-.71,1.82,1.82,0,0,1,1.91,0,2,2,0,0,1,.59.71,3.45,3.45,0,0,1,.3.94,7,7,0,0,1,.07,1,6.92,6.92,0,0,1-.07,1,3.41,3.41,0,0,1-.3.95,2,2,0,0,1-.59.71,1.82,1.82,0,0,1-1.91,0,2,2,0,0,1-.59-.71,3.41,3.41,0,0,1-.3-.95A7,7,0,0,1,267.26,252.62Zm.68,0c0,.14,0,.3,0,.47a4.43,4.43,0,0,0,.06.51,2.72,2.72,0,0,0,.13.51,1.53,1.53,0,0,0,.23.44,1,1,0,0,0,.34.31.89.89,0,0,0,.47.12,1,1,0,0,0,.49-.12,1.08,1.08,0,0,0,.33-.31,1.53,1.53,0,0,0,.23-.44,2.72,2.72,0,0,0,.13-.51,4.43,4.43,0,0,0,.06-.51c0-.17,0-.33,0-.47s0-.29,0-.46a4.88,4.88,0,0,0-.06-.52,2.83,2.83,0,0,0-.13-.5,1.41,1.41,0,0,0-.23-.44,1.08,1.08,0,0,0-.33-.31,1,1,0,0,0-.49-.12.89.89,0,0,0-.47.12,1,1,0,0,0-.34.31,1.41,1.41,0,0,0-.23.44,2.83,2.83,0,0,0-.13.5,4.88,4.88,0,0,0-.06.52C267.94,252.33,267.94,252.49,267.94,252.62Z"/><path d="M52.87,251a1.55,1.55,0,0,0-.63-.51,1.82,1.82,0,0,0-.79-.18,2,2,0,0,0-.87.2,2.13,2.13,0,0,0-.68.51,2.58,2.58,0,0,0-.45.75,2.67,2.67,0,0,0,0,1.82,2.29,2.29,0,0,0,.45.74,1.88,1.88,0,0,0,.68.5,1.92,1.92,0,0,0,.87.19,2,2,0,0,0,.93-.21,2.07,2.07,0,0,0,.71-.58l.51.42a2.38,2.38,0,0,1-.93.75,3,3,0,0,1-1.22.24,2.85,2.85,0,0,1-1.13-.22,2.82,2.82,0,0,1-.92-.62,3,3,0,0,1-.61-.94,3.27,3.27,0,0,1-.22-1.19,3.2,3.2,0,0,1,.21-1.17,3,3,0,0,1,.6-.95,3.08,3.08,0,0,1,.91-.63,3,3,0,0,1,2.27,0,2,2,0,0,1,.89.68Z"/><path d="M54.13,252.62a7,7,0,0,1,.08-1,3.11,3.11,0,0,1,.3-1,1.94,1.94,0,0,1,.59-.71,1.55,1.55,0,0,1,.95-.27,1.6,1.6,0,0,1,1,.27,2,2,0,0,1,.59.71,3.1,3.1,0,0,1,.29,1,5.77,5.77,0,0,1,.08,1,5.85,5.85,0,0,1-.08,1,3.13,3.13,0,0,1-.29.94,2,2,0,0,1-.59.71,1.6,1.6,0,0,1-1,.27,1.55,1.55,0,0,1-.95-.27,1.94,1.94,0,0,1-.59-.71,3.14,3.14,0,0,1-.3-.94A7.07,7.07,0,0,1,54.13,252.62Zm.67,0c0,.13,0,.29,0,.46a4.88,4.88,0,0,0,.06.52,2.83,2.83,0,0,0,.13.5,1.4,1.4,0,0,0,.22.44,1.1,1.1,0,0,0,.34.31,1,1,0,0,0,.48.12.9.9,0,0,0,.48-.12.92.92,0,0,0,.34-.31,1.41,1.41,0,0,0,.23-.44,2.8,2.8,0,0,0,.12-.5,4.88,4.88,0,0,0,.06-.52,3.86,3.86,0,0,0,0-.46,3.94,3.94,0,0,0,0-.47,4.43,4.43,0,0,0-.06-.51,2.71,2.71,0,0,0-.12-.51,1.53,1.53,0,0,0-.23-.44,1,1,0,0,0-.34-.31.9.9,0,0,0-.48-.12,1,1,0,0,0-.48.12,1.24,1.24,0,0,0-.34.31,1.51,1.51,0,0,0-.22.44,2.72,2.72,0,0,0-.13.51,4.43,4.43,0,0,0-.06.51C54.81,252.32,54.8,252.48,54.8,252.62Z"/><path d="M61,255.79l-.51-.2,2.41-6.14.51.19Z"/><path d="M70.36,251a1.52,1.52,0,0,0-.64-.51,1.78,1.78,0,0,0-.78-.18,2,2,0,0,0-.87.2,2.13,2.13,0,0,0-.68.51,2.58,2.58,0,0,0-.45.75,2.51,2.51,0,0,0-.16.9,2.54,2.54,0,0,0,.16.92,2.46,2.46,0,0,0,.44.74,2.09,2.09,0,0,0,1.56.69,2,2,0,0,0,.93-.21,2.07,2.07,0,0,0,.71-.58l.5.42a2.29,2.29,0,0,1-.92.75,3,3,0,0,1-1.22.24,2.93,2.93,0,0,1-1.14-.22,2.88,2.88,0,0,1-.91-.62,3,3,0,0,1-.61-.94,3.07,3.07,0,0,1-.22-1.19,3.2,3.2,0,0,1,.21-1.17,2.84,2.84,0,0,1,.6-.95,3,3,0,0,1,.91-.63,2.93,2.93,0,0,1,1.16-.23,3,3,0,0,1,1.11.21,2,2,0,0,1,.89.68Z"/><path d="M74.2,255.45h-.68v-4.8h0l-1,.85-.4-.48,1.52-1.24h.59Z"/><path d="M76.37,251.17a1.33,1.33,0,0,1,.13-.61,1.2,1.2,0,0,1,.34-.46,1.44,1.44,0,0,1,.51-.3,1.92,1.92,0,0,1,1.28,0,1.44,1.44,0,0,1,.51.3,1.32,1.32,0,0,1,.34.46,1.48,1.48,0,0,1,.12.61,1.44,1.44,0,0,1-.06.4,1.41,1.41,0,0,1-.18.37,1.18,1.18,0,0,1-.3.29,1,1,0,0,1-.38.19h0a1.44,1.44,0,0,1,.46.19,1.35,1.35,0,0,1,.35.32,1.67,1.67,0,0,1,.23.44,1.7,1.7,0,0,1,.08.51,1.74,1.74,0,0,1-.14.69,1.46,1.46,0,0,1-.39.52,1.47,1.47,0,0,1-.57.33,2.35,2.35,0,0,1-1.42,0,1.59,1.59,0,0,1-.58-.33,1.43,1.43,0,0,1-.38-.52,1.74,1.74,0,0,1-.14-.69,1.7,1.7,0,0,1,.08-.51,1.65,1.65,0,0,1,.22-.44,1.59,1.59,0,0,1,.36-.32,1.44,1.44,0,0,1,.46-.19h0a1.18,1.18,0,0,1-.39-.19,1.33,1.33,0,0,1-.29-.29,1.41,1.41,0,0,1-.18-.37A1.16,1.16,0,0,1,76.37,251.17Zm.48,2.67a1.14,1.14,0,0,0,.09.46,1.21,1.21,0,0,0,.24.35,1.16,1.16,0,0,0,.36.23A1.13,1.13,0,0,0,78,255a1,1,0,0,0,.44-.09,1,1,0,0,0,.36-.23,1.07,1.07,0,0,0,.25-.35,1.36,1.36,0,0,0,0-.92,1.07,1.07,0,0,0-.25-.35,1,1,0,0,0-.36-.23,1,1,0,0,0-.44-.09,1.13,1.13,0,0,0-.45.09,1.16,1.16,0,0,0-.36.23,1.21,1.21,0,0,0-.24.35A1.14,1.14,0,0,0,76.85,253.84ZM77,251.2a.92.92,0,0,0,.26.67.93.93,0,0,0,.69.27.9.9,0,0,0,.68-.27,1,1,0,0,0,0-1.34.9.9,0,0,0-.68-.27.93.93,0,0,0-.69.27A.92.92,0,0,0,77,251.2Z"/><path d="M80.52,252.62a5.77,5.77,0,0,1,.08-1,3.1,3.1,0,0,1,.29-1,2,2,0,0,1,.59-.71,1.6,1.6,0,0,1,1-.27,1.55,1.55,0,0,1,1,.27,1.94,1.94,0,0,1,.59.71,3.41,3.41,0,0,1,.3,1,7,7,0,0,1,.08,1,7.07,7.07,0,0,1-.08,1,3.45,3.45,0,0,1-.3.94,1.94,1.94,0,0,1-.59.71,1.55,1.55,0,0,1-1,.27,1.6,1.6,0,0,1-1-.27,2,2,0,0,1-.59-.71,3.13,3.13,0,0,1-.29-.94A5.85,5.85,0,0,1,80.52,252.62Zm.67,0a3.86,3.86,0,0,0,0,.46c0,.17,0,.34.05.52a4.07,4.07,0,0,0,.13.5,1.41,1.41,0,0,0,.23.44.92.92,0,0,0,.34.31.9.9,0,0,0,.48.12,1,1,0,0,0,.48-.12,1.1,1.1,0,0,0,.34-.31,1.65,1.65,0,0,0,.22-.44,2.83,2.83,0,0,0,.13-.5,4.88,4.88,0,0,0,.06-.52c0-.17,0-.33,0-.46s0-.3,0-.47a4.43,4.43,0,0,0-.06-.51,2.72,2.72,0,0,0-.13-.51,1.81,1.81,0,0,0-.22-.44,1.24,1.24,0,0,0-.34-.31,1,1,0,0,0-.48-.12.9.9,0,0,0-.48.12,1,1,0,0,0-.34.31,1.53,1.53,0,0,0-.23.44,3.8,3.8,0,0,0-.13.51c0,.17,0,.34-.05.51A3.94,3.94,0,0,0,81.19,252.62Z"/><line class="cls-2" x1="214.49" y1="253.42" x2="215.03" y2="253.42"/><line class="cls-2" x1="217.76" y1="253.42" x2="218.3" y2="253.42"/><line class="cls-2" x1="221.02" y1="253.42" x2="221.56" y2="253.42"/><line class="cls-2" x1="224.29" y1="253.42" x2="224.83" y2="253.42"/><line class="cls-2" x1="227.55" y1="253.42" x2="228.09" y2="253.42"/></g><g id="Frisbi_F2500"><rect class="cls-3" x="54.41" y="42.39" width="189.86" height="189.86"/><circle class="cls-4" cx="149.34" cy="137.27" r="17.23"/><text class="cls-5" transform="translate(150.99 161.54)">5<tspan class="cls-6" x="4.4" y="0">0</tspan></text><circle class="cls-4" cx="149.34" cy="137.27" r="34.45"/><text class="cls-5" transform="translate(150.99 178.77)">1<tspan class="cls-6" x="4.4" y="0">00</tspan></text><circle class="cls-4" cx="149.34" cy="137.27" r="51.73"/><text class="cls-5" transform="translate(150.99 196.05)">1<tspan class="cls-6" x="4.4" y="0">50</tspan></text><circle class="cls-4" cx="149.34" cy="137.27" r="69.01"/><text class="cls-5" transform="translate(150.99 213.33)">2<tspan class="cls-6" x="4.4" y="0">00</tspan></text><circle class="cls-4" cx="149.34" cy="137.27" r="86.29"/><text class="cls-5" transform="translate(150.99 230.61)">2<tspan class="cls-6" x="4.4" y="0">50</tspan></text><line class="cls-4" x1="54.41" y1="137.32" x2="244.33" y2="137.32"/><line class="cls-4" x1="149.34" y1="232.25" x2="149.34" y2="42.33"/><line class="cls-4" x1="94.58" y1="42.33" x2="204.15" y2="232.25"/><line class="cls-4" x1="94.58" y1="232.25" x2="204.15" y2="42.33"/><line class="cls-4" x1="54.41" y1="82.51" x2="244.33" y2="192.08"/><line class="cls-4" x1="54.41" y1="192.08" x2="244.33" y2="82.51"/><line class="cls-7" x1="149.34" y1="230.25" x2="152.58" y2="230.15"/><line class="cls-7" x1="152.58" y1="230.15" x2="155.82" y2="230.04"/><line class="cls-7" x1="155.82" y1="230.04" x2="159.06" y2="229.5"/><line class="cls-7" x1="159.06" y1="229.5" x2="162.19" y2="228.8"/><line class="cls-7" x1="162.19" y1="228.8" x2="165.27" y2="227.61"/><line class="cls-7" x1="165.27" y1="227.61" x2="168.24" y2="226.1"/><line class="cls-7" x1="168.24" y1="226.1" x2="170.99" y2="224.15"/><line class="cls-7" x1="170.99" y1="224.15" x2="173.64" y2="222.05"/><line class="cls-7" x1="173.64" y1="222.05" x2="176.12" y2="219.78"/><line class="cls-7" x1="176.12" y1="219.78" x2="178.34" y2="217.02"/><line class="cls-7" x1="178.34" y1="217.02" x2="180.28" y2="213.84"/><line class="cls-7" x1="180.28" y1="213.84" x2="182.28" y2="211.25"/><line class="cls-7" x1="182.28" y1="211.25" x2="182.44" y2="205.09"/><line class="cls-7" x1="182.44" y1="205.09" x2="180.23" y2="195.37"/><line class="cls-7" x1="180.23" y1="195.37" x2="177.96" y2="186.78"/><line class="cls-7" x1="177.96" y1="186.78" x2="174.99" y2="178.36"/><line class="cls-7" x1="174.99" y1="178.36" x2="170.72" y2="168.96"/><line class="cls-7" x1="170.72" y1="168.96" x2="168.51" y2="163.67"/><line class="cls-7" x1="168.51" y1="163.67" x2="168.73" y2="162.05"/><line class="cls-7" x1="168.73" y1="162.05" x2="168.13" y2="159.68"/><line class="cls-7" x1="168.13" y1="159.68" x2="167.54" y2="157.52"/><line class="cls-7" x1="167.54" y1="157.52" x2="167.05" y2="155.63"/><line class="cls-7" x1="167.05" y1="155.63" x2="166.3" y2="153.63"/><line class="cls-7" x1="166.3" y1="153.63" x2="165.22" y2="151.58"/><line class="cls-7" x1="165.22" y1="151.58" x2="164.19" y2="149.74"/><line class="cls-7" x1="164.19" y1="149.74" x2="163.11" y2="148.01"/><line class="cls-7" x1="163.11" y1="148.01" x2="161.98" y2="146.45"/><line class="cls-7" x1="161.98" y1="146.45" x2="160.73" y2="144.93"/><line class="cls-7" x1="160.73" y1="144.93" x2="157.55" y2="142.4"/><line class="cls-7" x1="157.55" y1="142.4" x2="157.98" y2="142.29"/><line class="cls-7" x1="157.98" y1="142.29" x2="161.06" y2="143.48"/><line class="cls-7" x1="161.06" y1="143.48" x2="169.54" y2="147.15"/><line class="cls-7" x1="169.54" y1="147.15" x2="171.16" y2="146.99"/><line class="cls-7" x1="171.16" y1="146.99" x2="167.05" y2="144.45"/><line class="cls-7" x1="167.05" y1="144.45" x2="165.27" y2="143.04"/><line class="cls-7" x1="165.27" y1="143.04" x2="164.08" y2="142.07"/><line class="cls-7" x1="164.08" y1="142.07" x2="163.97" y2="141.48"/><line class="cls-7" x1="163.97" y1="141.48" x2="162.62" y2="140.56"/><line class="cls-7" x1="162.62" y1="140.56" x2="160.46" y2="139.64"/><line class="cls-7" x1="160.46" y1="139.64" x2="158.52" y2="138.89"/><line class="cls-7" x1="158.52" y1="138.89" x2="156.52" y2="138.29"/><line class="cls-7" x1="156.52" y1="138.29" x2="154.42" y2="137.81"/><line class="cls-7" x1="154.42" y1="137.81" x2="152.69" y2="137.48"/><line class="cls-7" x1="152.69" y1="137.48" x2="150.85" y2="137.32"/><line class="cls-7" x1="150.85" y1="137.32" x2="150.1" y2="137.32"/><line class="cls-7" x1="150.1" y1="137.32" x2="150.2" y2="137.27"/><line class="cls-7" x1="150.2" y1="137.27" x2="151.5" y2="137.16"/><line class="cls-7" x1="151.5" y1="137.16" x2="152.36" y2="137"/><line class="cls-7" x1="152.36" y1="137" x2="153.34" y2="136.78"/><line class="cls-7" x1="153.34" y1="136.78" x2="154.52" y2="136.4"/><line class="cls-7" x1="154.52" y1="136.4" x2="155.82" y2="135.97"/><line class="cls-7" x1="155.82" y1="135.97" x2="157.33" y2="135.32"/><line class="cls-7" x1="157.33" y1="135.32" x2="158.68" y2="134.62"/><line class="cls-7" x1="158.68" y1="134.62" x2="159.87" y2="133.92"/><line class="cls-7" x1="159.87" y1="133.92" x2="161.17" y2="133"/><line class="cls-7" x1="161.17" y1="133" x2="162.46" y2="132.03"/><line class="cls-7" x1="162.46" y1="132.03" x2="164.08" y2="130.79"/><line class="cls-7" x1="164.08" y1="130.79" x2="164.78" y2="129.76"/><line class="cls-7" x1="164.78" y1="129.76" x2="164.73" y2="129.11"/><line class="cls-7" x1="164.73" y1="129.11" x2="164.84" y2="128.36"/><line class="cls-7" x1="164.84" y1="128.36" x2="164.89" y2="127.6"/><line class="cls-7" x1="164.89" y1="127.6" x2="164.84" y2="126.9"/><line class="cls-7" x1="164.84" y1="126.9" x2="164.78" y2="126.09"/><line class="cls-7" x1="164.78" y1="126.09" x2="164.78" y2="125.22"/><line class="cls-7" x1="164.78" y1="125.22" x2="164.73" y2="124.41"/><line class="cls-7" x1="164.73" y1="124.41" x2="164.57" y2="123.6"/><line class="cls-7" x1="164.57" y1="123.6" x2="164.41" y2="122.79"/><line class="cls-7" x1="164.41" y1="122.79" x2="164.19" y2="121.93"/><line class="cls-7" x1="164.19" y1="121.93" x2="163.97" y2="121.01"/><line class="cls-7" x1="163.97" y1="121.01" x2="163.7" y2="120.2"/><line class="cls-7" x1="163.7" y1="120.2" x2="163.27" y2="119.5"/><line class="cls-7" x1="163.27" y1="119.5" x2="162.79" y2="118.8"/><line class="cls-7" x1="162.79" y1="118.8" x2="162.3" y2="118.15"/><line class="cls-7" x1="162.3" y1="118.15" x2="161.76" y2="117.45"/><line class="cls-7" x1="161.76" y1="117.45" x2="161.22" y2="116.75"/><line class="cls-7" x1="161.22" y1="116.75" x2="160.68" y2="115.99"/><line class="cls-7" x1="160.68" y1="115.99" x2="160.14" y2="115.18"/><line class="cls-7" x1="160.14" y1="115.18" x2="159.49" y2="114.53"/><line class="cls-7" x1="159.49" y1="114.53" x2="158.84" y2="113.83"/><line class="cls-7" x1="158.84" y1="113.83" x2="158.03" y2="113.51"/><line class="cls-7" x1="158.03" y1="113.51" x2="157.12" y2="113.34"/><line class="cls-7" x1="157.12" y1="113.34" x2="156.2" y2="113.34"/><line class="cls-7" x1="156.2" y1="113.34" x2="155.12" y2="114.1"/><line class="cls-7" x1="155.12" y1="114.1" x2="153.93" y2="115.72"/><line class="cls-7" x1="153.93" y1="115.72" x2="152.85" y2="117.34"/><line class="cls-7" x1="152.85" y1="117.34" x2="151.88" y2="119.12"/><line class="cls-7" x1="151.88" y1="119.12" x2="151.01" y2="121.23"/><line class="cls-7" x1="151.01" y1="121.23" x2="150.37" y2="122.96"/><line class="cls-7" x1="150.37" y1="122.96" x2="149.77" y2="124.52"/><line class="cls-7" x1="149.77" y1="124.52" x2="149.34" y2="126.14"/><line class="cls-7" x1="149.34" y1="230.25" x2="146.15" y2="230.15"/><line class="cls-7" x1="146.15" y1="230.15" x2="142.91" y2="230.04"/><line class="cls-7" x1="142.91" y1="230.04" x2="139.67" y2="229.5"/><line class="cls-7" x1="139.67" y1="229.5" x2="136.54" y2="228.8"/><line class="cls-7" x1="136.54" y1="228.8" x2="133.46" y2="227.61"/><line class="cls-7" x1="133.46" y1="227.61" x2="130.49" y2="226.1"/><line class="cls-7" x1="130.49" y1="226.1" x2="127.74" y2="224.15"/><line class="cls-7" x1="127.74" y1="224.15" x2="125.09" y2="222.05"/><line class="cls-7" x1="125.09" y1="222.05" x2="122.61" y2="219.78"/><line class="cls-7" x1="122.61" y1="219.78" x2="120.4" y2="217.02"/><line class="cls-7" x1="120.4" y1="217.02" x2="118.45" y2="213.84"/><line class="cls-7" x1="118.45" y1="213.84" x2="116.45" y2="211.25"/><line class="cls-7" x1="116.45" y1="211.25" x2="116.29" y2="205.09"/><line class="cls-7" x1="116.29" y1="205.09" x2="118.51" y2="195.37"/><line class="cls-7" x1="118.51" y1="195.37" x2="120.77" y2="186.78"/><line class="cls-7" x1="120.77" y1="186.78" x2="123.74" y2="178.36"/><line class="cls-7" x1="123.74" y1="178.36" x2="128.01" y2="168.96"/><line class="cls-7" x1="128.01" y1="168.96" x2="130.22" y2="163.67"/><line class="cls-7" x1="130.22" y1="163.67" x2="130.01" y2="162.05"/><line class="cls-7" x1="130.01" y1="162.05" x2="130.6" y2="159.68"/><line class="cls-7" x1="130.6" y1="159.68" x2="131.2" y2="157.52"/><line class="cls-7" x1="131.2" y1="157.52" x2="131.68" y2="155.63"/><line class="cls-7" x1="131.68" y1="155.63" x2="132.44" y2="153.63"/><line class="cls-7" x1="132.44" y1="153.63" x2="133.52" y2="151.58"/><line class="cls-7" x1="133.52" y1="151.58" x2="134.54" y2="149.74"/><line class="cls-7" x1="134.54" y1="149.74" x2="135.62" y2="148.01"/><line class="cls-7" x1="135.62" y1="148.01" x2="136.76" y2="146.45"/><line class="cls-7" x1="136.76" y1="146.45" x2="138" y2="144.93"/><line class="cls-7" x1="138" y1="144.93" x2="141.19" y2="142.4"/><line class="cls-7" x1="141.19" y1="142.4" x2="140.75" y2="142.29"/><line class="cls-7" x1="140.75" y1="142.29" x2="137.68" y2="143.48"/><line class="cls-7" x1="137.68" y1="143.48" x2="129.2" y2="147.15"/><line class="cls-7" x1="129.2" y1="147.15" x2="127.58" y2="146.99"/><line class="cls-7" x1="127.58" y1="146.99" x2="131.68" y2="144.45"/><line class="cls-7" x1="131.68" y1="144.45" x2="133.46" y2="143.04"/><line class="cls-7" x1="133.46" y1="143.04" x2="134.65" y2="142.07"/><line class="cls-7" x1="134.65" y1="142.07" x2="134.76" y2="141.48"/><line class="cls-7" x1="134.76" y1="141.48" x2="136.11" y2="140.56"/><line class="cls-7" x1="136.11" y1="140.56" x2="138.27" y2="139.64"/><line class="cls-7" x1="138.27" y1="139.64" x2="140.21" y2="138.89"/><line class="cls-7" x1="140.21" y1="138.89" x2="142.21" y2="138.29"/><line class="cls-7" x1="142.21" y1="138.29" x2="144.32" y2="137.81"/><line class="cls-7" x1="144.32" y1="137.81" x2="146.05" y2="137.48"/><line class="cls-7" x1="146.05" y1="137.48" x2="147.88" y2="137.32"/><line class="cls-7" x1="147.88" y1="137.32" x2="148.64" y2="137.32"/><line class="cls-7" x1="148.64" y1="137.32" x2="148.53" y2="137.27"/><line class="cls-7" x1="148.53" y1="137.27" x2="147.23" y2="137.16"/><line class="cls-7" x1="147.23" y1="137.16" x2="146.37" y2="137"/><line class="cls-7" x1="146.37" y1="137" x2="145.4" y2="136.78"/><line class="cls-7" x1="145.4" y1="136.78" x2="144.21" y2="136.4"/><line class="cls-7" x1="144.21" y1="136.4" x2="142.91" y2="135.97"/><line class="cls-7" x1="142.91" y1="135.97" x2="141.4" y2="135.32"/><line class="cls-7" x1="141.4" y1="135.32" x2="140.05" y2="134.62"/><line class="cls-7" x1="140.05" y1="134.62" x2="138.86" y2="133.92"/><line class="cls-7" x1="138.86" y1="133.92" x2="137.57" y2="133"/><line class="cls-7" x1="137.57" y1="133" x2="136.27" y2="132.03"/><line class="cls-7" x1="136.27" y1="132.03" x2="134.65" y2="130.79"/><line class="cls-7" x1="134.65" y1="130.79" x2="133.95" y2="129.76"/><line class="cls-7" x1="133.95" y1="129.76" x2="134" y2="129.11"/><line class="cls-7" x1="134" y1="129.11" x2="133.9" y2="128.36"/><line class="cls-7" x1="133.9" y1="128.36" x2="133.84" y2="127.6"/><line class="cls-7" x1="133.84" y1="127.6" x2="133.9" y2="126.9"/><line class="cls-7" x1="133.9" y1="126.9" x2="133.95" y2="126.09"/><line class="cls-7" x1="133.95" y1="126.09" x2="133.95" y2="125.22"/><line class="cls-7" x1="133.95" y1="125.22" x2="134" y2="124.41"/><line class="cls-7" x1="134" y1="124.41" x2="134.17" y2="123.6"/><line class="cls-7" x1="134.17" y1="123.6" x2="134.33" y2="122.79"/><line class="cls-7" x1="134.33" y1="122.79" x2="134.54" y2="121.93"/><line class="cls-7" x1="134.54" y1="121.93" x2="134.76" y2="121.01"/><line class="cls-7" x1="134.76" y1="121.01" x2="135.03" y2="120.2"/><line class="cls-7" x1="135.03" y1="120.2" x2="135.46" y2="119.5"/><line class="cls-7" x1="135.46" y1="119.5" x2="135.95" y2="118.8"/><line class="cls-7" x1="135.95" y1="118.8" x2="136.43" y2="118.15"/><line class="cls-7" x1="136.43" y1="118.15" x2="136.97" y2="117.45"/><line class="cls-7" x1="136.97" y1="117.45" x2="137.51" y2="116.75"/><line class="cls-7" x1="137.51" y1="116.75" x2="138.05" y2="115.99"/><line class="cls-7" x1="138.05" y1="115.99" x2="138.59" y2="115.18"/><line class="cls-7" x1="138.59" y1="115.18" x2="139.24" y2="114.53"/><line class="cls-7" x1="139.24" y1="114.53" x2="139.89" y2="113.83"/><line class="cls-7" x1="139.89" y1="113.83" x2="140.7" y2="113.51"/><line class="cls-7" x1="140.7" y1="113.51" x2="141.62" y2="113.34"/><line class="cls-7" x1="141.62" y1="113.34" x2="142.54" y2="113.34"/><line class="cls-7" x1="142.54" y1="113.34" x2="143.62" y2="114.1"/><line class="cls-7" x1="143.62" y1="114.1" x2="144.8" y2="115.72"/><line class="cls-7" x1="144.8" y1="115.72" x2="145.88" y2="117.34"/><line class="cls-7" x1="145.88" y1="117.34" x2="146.86" y2="119.12"/><line class="cls-7" x1="146.86" y1="119.12" x2="147.72" y2="121.23"/><line class="cls-7" x1="147.72" y1="121.23" x2="148.37" y2="122.96"/><line class="cls-7" x1="148.37" y1="122.96" x2="148.96" y2="124.52"/><line class="cls-7" x1="148.96" y1="124.52" x2="149.34" y2="126.14"/><line class="cls-7" x1="149.34" y1="230.25" x2="149.61" y2="230.25"/><line class="cls-7" x1="150.91" y1="230.2" x2="151.18" y2="230.2"/><line class="cls-7" x1="152.47" y1="230.15" x2="152.58" y2="230.15"/><line class="cls-7" x1="152.58" y1="230.15" x2="152.74" y2="230.15"/><line class="cls-7" x1="154.04" y1="230.09" x2="154.31" y2="230.09"/><line class="cls-7" x1="155.6" y1="230.04" x2="155.82" y2="230.04"/><line class="cls-7" x1="155.82" y1="230.04" x2="155.87" y2="230.04"/><line class="cls-7" x1="157.12" y1="229.82" x2="157.33" y2="229.77"/><line class="cls-7" x1="158.63" y1="229.55" x2="158.9" y2="229.5"/><line class="cls-7" x1="160.14" y1="229.28" x2="160.36" y2="229.23"/><line class="cls-7" x1="161.6" y1="228.9" x2="161.87" y2="228.85"/><line class="cls-7" x1="163.11" y1="228.42" x2="163.33" y2="228.36"/><line class="cls-7" x1="164.51" y1="227.88" x2="164.73" y2="227.82"/><line class="cls-7" x1="165.86" y1="227.28" x2="166.08" y2="227.18"/><line class="cls-7" x1="167.21" y1="226.64" x2="167.43" y2="226.53"/><line class="cls-7" x1="168.51" y1="225.88" x2="168.73" y2="225.77"/><line class="cls-7" x1="169.75" y1="225.02" x2="169.97" y2="224.85"/><line class="cls-7" x1="171.05" y1="224.1" x2="171.26" y2="223.94"/><line class="cls-7" x1="172.29" y1="223.13" x2="172.51" y2="222.96"/><line class="cls-7" x1="173.53" y1="222.15" x2="173.64" y2="222.05"/><line class="cls-7" x1="173.64" y1="222.05" x2="173.69" y2="221.99"/><line class="cls-7" x1="174.67" y1="221.13" x2="174.83" y2="220.97"/><line class="cls-7" x1="175.8" y1="220.05" x2="176.02" y2="219.89"/><line class="cls-7" x1="176.88" y1="218.86" x2="177.04" y2="218.64"/><line class="cls-7" x1="177.85" y1="217.62" x2="178.01" y2="217.46"/><line class="cls-7" x1="178.72" y1="216.38" x2="178.88" y2="216.16"/><line class="cls-7" x1="179.53" y1="215.08" x2="179.63" y2="214.86"/><line class="cls-7" x1="180.34" y1="213.78" x2="180.5" y2="213.57"/><line class="cls-7" x1="181.31" y1="212.54" x2="181.47" y2="212.33"/><line class="cls-7" x1="182.23" y1="211.3" x2="182.28" y2="211.25"/><line class="cls-7" x1="182.28" y1="211.25" x2="182.28" y2="211.08"/><line class="cls-7" x1="182.33" y1="209.79" x2="182.33" y2="209.52"/><line class="cls-7" x1="182.39" y1="208.17" x2="182.39" y2="207.9"/><line class="cls-7" x1="182.39" y1="206.55" x2="182.39" y2="206.28"/><line class="cls-7" x1="182.44" y1="204.98" x2="182.39" y2="204.77"/><line class="cls-7" x1="182.06" y1="203.52" x2="182.01" y2="203.31"/><line class="cls-7" x1="181.74" y1="202.07" x2="181.69" y2="201.85"/><line class="cls-7" x1="181.42" y1="200.61" x2="181.36" y2="200.39"/><line class="cls-7" x1="181.09" y1="199.15" x2="181.04" y2="198.93"/><line class="cls-7" x1="180.77" y1="197.69" x2="180.71" y2="197.48"/><line class="cls-7" x1="180.44" y1="196.23" x2="180.39" y2="196.02"/><line class="cls-7" x1="180.07" y1="194.78" x2="180.01" y2="194.56"/><line class="cls-7" x1="179.69" y1="193.32" x2="179.63" y2="193.1"/><line class="cls-7" x1="179.31" y1="191.86" x2="179.26" y2="191.64"/><line class="cls-7" x1="178.93" y1="190.4" x2="178.88" y2="190.19"/><line class="cls-7" x1="178.55" y1="188.94" x2="178.5" y2="188.73"/><line class="cls-7" x1="178.18" y1="187.54" x2="178.12" y2="187.32"/><line class="cls-7" x1="177.74" y1="186.14" x2="177.64" y2="185.92"/><line class="cls-7" x1="177.26" y1="184.73" x2="177.15" y2="184.52"/><line class="cls-7" x1="176.72" y1="183.33" x2="176.66" y2="183.11"/><line class="cls-7" x1="176.23" y1="181.92" x2="176.18" y2="181.71"/><line class="cls-7" x1="175.75" y1="180.52" x2="175.69" y2="180.3"/><line class="cls-7" x1="175.26" y1="179.12" x2="175.21" y2="178.9"/><line class="cls-7" x1="174.72" y1="177.71" x2="174.61" y2="177.5"/><line class="cls-7" x1="174.07" y1="176.36" x2="173.96" y2="176.15"/><line class="cls-7" x1="173.42" y1="174.96" x2="173.37" y2="174.74"/><line class="cls-7" x1="172.83" y1="173.61" x2="172.72" y2="173.39"/><line class="cls-7" x1="172.18" y1="172.2" x2="172.07" y2="171.99"/><line class="cls-7" x1="171.53" y1="170.8" x2="171.48" y2="170.58"/><line class="cls-7" x1="170.94" y1="169.45" x2="170.83" y2="169.23"/><line class="cls-7" x1="170.35" y1="168.05" x2="170.24" y2="167.83"/><line class="cls-7" x1="169.75" y1="166.64" x2="169.64" y2="166.43"/><line class="cls-7" x1="169.16" y1="165.24" x2="169.05" y2="165.02"/><line class="cls-7" x1="168.56" y1="163.83" x2="168.51" y2="163.67"/><line class="cls-7" x1="168.51" y1="163.67" x2="168.51" y2="163.62"/><line class="cls-7" x1="168.67" y1="162.32" x2="168.73" y2="162.11"/><line class="cls-7" x1="168.4" y1="160.86" x2="168.35" y2="160.65"/><line class="cls-7" x1="168.08" y1="159.41" x2="168.02" y2="159.19"/><line class="cls-7" x1="167.65" y1="158" x2="167.59" y2="157.79"/><line class="cls-7" x1="167.27" y1="156.54" x2="167.21" y2="156.33"/><line class="cls-7" x1="166.84" y1="155.09" x2="166.78" y2="154.87"/><line class="cls-7" x1="166.3" y1="153.68" x2="166.3" y2="153.63"/><line class="cls-7" x1="166.3" y1="153.63" x2="166.19" y2="153.47"/><line class="cls-7" x1="165.59" y1="152.33" x2="165.49" y2="152.12"/><line class="cls-7" x1="164.89" y1="150.98" x2="164.78" y2="150.77"/><line class="cls-7" x1="164.14" y1="149.69" x2="164.03" y2="149.47"/><line class="cls-7" x1="163.33" y1="148.39" x2="163.22" y2="148.17"/><line class="cls-7" x1="162.46" y1="147.15" x2="162.35" y2="146.93"/><line class="cls-7" x1="161.54" y1="145.91" x2="161.38" y2="145.74"/><line class="cls-7" x1="160.52" y1="144.77" x2="160.36" y2="144.61"/><line class="cls-7" x1="159.33" y1="143.8" x2="159.11" y2="143.64"/><line class="cls-7" x1="158.09" y1="142.83" x2="157.87" y2="142.67"/><line class="cls-7" x1="158.36" y1="142.45" x2="158.57" y2="142.5"/><line class="cls-7" x1="159.76" y1="142.99" x2="159.98" y2="143.04"/><line class="cls-7" x1="161.17" y1="143.53" x2="161.38" y2="143.64"/><line class="cls-7" x1="162.57" y1="144.12" x2="162.79" y2="144.23"/><line class="cls-7" x1="163.97" y1="144.72" x2="164.19" y2="144.83"/><line class="cls-7" x1="165.32" y1="145.31" x2="165.54" y2="145.42"/><line class="cls-7" x1="166.73" y1="145.91" x2="166.94" y2="146.01"/><line class="cls-7" x1="168.08" y1="146.5" x2="168.29" y2="146.61"/><line class="cls-7" x1="169.43" y1="147.09" x2="169.54" y2="147.15"/><line class="cls-7" x1="169.54" y1="147.15" x2="169.64" y2="147.15"/><line class="cls-7" x1="170.94" y1="146.99" x2="171.16" y2="146.99"/><line class="cls-7" x1="171.16" y1="146.99" x2="171.1" y2="146.93"/><line class="cls-7" x1="170.02" y1="146.28" x2="169.81" y2="146.18"/><line class="cls-7" x1="168.73" y1="145.47" x2="168.51" y2="145.37"/><line class="cls-7" x1="167.43" y1="144.66" x2="167.21" y2="144.56"/><line class="cls-7" x1="166.19" y1="143.75" x2="165.97" y2="143.58"/><line class="cls-7" x1="164.95" y1="142.77" x2="164.73" y2="142.61"/><line class="cls-7" x1="164.03" y1="141.64" x2="163.97" y2="141.48"/><line class="cls-7" x1="163.97" y1="141.48" x2="163.92" y2="141.42"/><line class="cls-7" x1="162.84" y1="140.72" x2="162.62" y2="140.56"/><line class="cls-7" x1="161.44" y1="140.07" x2="161.22" y2="139.97"/><line class="cls-7" x1="160.03" y1="139.48" x2="159.82" y2="139.37"/><line class="cls-7" x1="158.63" y1="138.94" x2="158.52" y2="138.89"/><line class="cls-7" x1="158.52" y1="138.89" x2="158.41" y2="138.83"/><line class="cls-7" x1="157.17" y1="138.51" x2="156.95" y2="138.4"/><line class="cls-7" x1="155.71" y1="138.13" x2="155.5" y2="138.08"/><line class="cls-7" x1="154.25" y1="137.75" x2="153.98" y2="137.7"/><line class="cls-7" x1="152.69" y1="137.48" x2="152.69" y2="137.48"/><line class="cls-7" x1="152.69" y1="137.48" x2="152.42" y2="137.48"/><line class="cls-7" x1="151.12" y1="137.32" x2="150.85" y2="137.32"/><line class="cls-7" x1="150.64" y1="137.21" x2="150.91" y2="137.21"/><line class="cls-7" x1="152.2" y1="137.05" x2="152.36" y2="137"/><line class="cls-7" x1="152.36" y1="137" x2="152.42" y2="137"/><line class="cls-7" x1="153.66" y1="136.67" x2="153.88" y2="136.62"/><line class="cls-7" x1="155.06" y1="136.24" x2="155.28" y2="136.13"/><line class="cls-7" x1="156.47" y1="135.7" x2="156.68" y2="135.59"/><line class="cls-7" x1="157.82" y1="135.05" x2="158.03" y2="134.94"/><line class="cls-7" x1="159.17" y1="134.35" x2="159.38" y2="134.19"/><line class="cls-7" x1="160.46" y1="133.49" x2="160.68" y2="133.32"/><line class="cls-7" x1="161.71" y1="132.57" x2="161.92" y2="132.41"/><line class="cls-7" x1="162.95" y1="131.65" x2="163.16" y2="131.49"/><line class="cls-7" x1="164.14" y1="130.68" x2="164.3" y2="130.46"/><line class="cls-7" x1="164.73" y1="129.33" x2="164.73" y2="129.11"/><line class="cls-7" x1="164.73" y1="129.11" x2="164.73" y2="129.06"/><line class="cls-7" x1="164.89" y1="127.76" x2="164.89" y2="127.6"/><line class="cls-7" x1="164.89" y1="127.6" x2="164.89" y2="127.49"/><line class="cls-7" x1="164.78" y1="126.2" x2="164.78" y2="126.09"/><line class="cls-7" x1="164.78" y1="126.09" x2="164.78" y2="125.93"/><line class="cls-7" x1="164.73" y1="124.63" x2="164.73" y2="124.41"/><line class="cls-7" x1="164.73" y1="124.41" x2="164.73" y2="124.36"/><line class="cls-7" x1="164.46" y1="123.12" x2="164.41" y2="122.9"/><line class="cls-7" x1="164.14" y1="121.66" x2="164.08" y2="121.44"/><line class="cls-7" x1="163.7" y1="120.26" x2="163.7" y2="120.2"/><line class="cls-7" x1="163.7" y1="120.2" x2="163.6" y2="120.04"/><line class="cls-7" x1="162.89" y1="118.96" x2="162.79" y2="118.8"/><line class="cls-7" x1="162.79" y1="118.8" x2="162.73" y2="118.74"/><line class="cls-7" x1="161.98" y1="117.72" x2="161.81" y2="117.5"/><line class="cls-7" x1="161" y1="116.48" x2="160.9" y2="116.26"/><line class="cls-7" x1="160.19" y1="115.23" x2="160.14" y2="115.18"/><line class="cls-7" x1="160.14" y1="115.18" x2="160.03" y2="115.07"/><line class="cls-7" x1="159.11" y1="114.1" x2="158.95" y2="113.94"/><line class="cls-7" x1="157.82" y1="113.45" x2="157.55" y2="113.4"/><line class="cls-7" x1="156.25" y1="113.34" x2="156.2" y2="113.34"/><line class="cls-7" x1="156.2" y1="113.34" x2="156.04" y2="113.45"/><line class="cls-7" x1="155.01" y1="114.26" x2="154.85" y2="114.48"/><line class="cls-7" x1="154.09" y1="115.5" x2="153.93" y2="115.72"/><line class="cls-7" x1="153.23" y1="116.8" x2="153.07" y2="117.02"/><line class="cls-7" x1="152.42" y1="118.1" x2="152.31" y2="118.31"/><line class="cls-7" x1="151.77" y1="119.45" x2="151.66" y2="119.66"/><line class="cls-7" x1="151.18" y1="120.85" x2="151.07" y2="121.07"/><line class="cls-7" x1="150.64" y1="122.25" x2="150.53" y2="122.47"/><line class="cls-7" x1="150.1" y1="123.66" x2="150.04" y2="123.87"/><line class="cls-7" x1="149.61" y1="125.06" x2="149.56" y2="125.28"/><line class="cls-7" x1="148.85" y1="230.25" x2="148.58" y2="230.25"/><line class="cls-7" x1="147.29" y1="230.2" x2="147.02" y2="230.2"/><line class="cls-7" x1="145.72" y1="230.15" x2="145.45" y2="230.15"/><line class="cls-7" x1="144.16" y1="230.09" x2="143.89" y2="230.09"/><line class="cls-7" x1="142.59" y1="229.98" x2="142.37" y2="229.93"/><line class="cls-7" x1="141.08" y1="229.71" x2="140.81" y2="229.66"/><line class="cls-7" x1="139.51" y1="229.44" x2="139.3" y2="229.39"/><line class="cls-7" x1="138.05" y1="229.12" x2="137.84" y2="229.07"/><line class="cls-7" x1="136.6" y1="228.8" x2="136.54" y2="228.8"/><line class="cls-7" x1="136.54" y1="228.8" x2="136.38" y2="228.74"/><line class="cls-7" x1="135.19" y1="228.26" x2="134.98" y2="228.2"/><line class="cls-7" x1="133.79" y1="227.72" x2="133.57" y2="227.66"/><line class="cls-7" x1="132.44" y1="227.07" x2="132.22" y2="226.96"/><line class="cls-7" x1="131.09" y1="226.42" x2="130.87" y2="226.31"/><line class="cls-7" x1="129.79" y1="225.61" x2="129.58" y2="225.45"/><line class="cls-7" x1="128.5" y1="224.69" x2="128.28" y2="224.53"/><line class="cls-7" x1="127.25" y1="223.77" x2="127.09" y2="223.61"/><line class="cls-7" x1="126.07" y1="222.8" x2="125.85" y2="222.64"/><line class="cls-7" x1="124.82" y1="221.78" x2="124.61" y2="221.61"/><line class="cls-7" x1="123.64" y1="220.7" x2="123.42" y2="220.53"/><line class="cls-7" x1="122.5" y1="219.62" x2="122.34" y2="219.45"/><line class="cls-7" x1="121.53" y1="218.43" x2="121.37" y2="218.27"/><line class="cls-7" x1="120.56" y1="217.24" x2="120.4" y2="217.02"/><line class="cls-7" x1="119.75" y1="215.94" x2="119.59" y2="215.73"/><line class="cls-7" x1="118.94" y1="214.65" x2="118.83" y2="214.43"/><line class="cls-7" x1="118.07" y1="213.35" x2="117.91" y2="213.14"/><line class="cls-7" x1="117.1" y1="212.11" x2="116.94" y2="211.89"/><line class="cls-7" x1="116.45" y1="210.76" x2="116.45" y2="210.49"/><line class="cls-7" x1="116.4" y1="209.19" x2="116.4" y2="208.92"/><line class="cls-7" x1="116.35" y1="207.63" x2="116.35" y2="207.36"/><line class="cls-7" x1="116.29" y1="206.06" x2="116.29" y2="205.79"/><line class="cls-7" x1="116.45" y1="204.5" x2="116.51" y2="204.23"/><line class="cls-7" x1="116.78" y1="202.98" x2="116.83" y2="202.77"/><line class="cls-7" x1="117.1" y1="201.53" x2="117.16" y2="201.31"/><line class="cls-7" x1="117.43" y1="200.07" x2="117.48" y2="199.85"/><line class="cls-7" x1="117.75" y1="198.61" x2="117.8" y2="198.39"/><line class="cls-7" x1="118.07" y1="197.15" x2="118.13" y2="196.94"/><line class="cls-7" x1="118.45" y1="195.69" x2="118.51" y2="195.48"/><line class="cls-7" x1="118.83" y1="194.24" x2="118.88" y2="194.02"/><line class="cls-7" x1="119.21" y1="192.78" x2="119.26" y2="192.56"/><line class="cls-7" x1="119.59" y1="191.32" x2="119.64" y2="191.1"/><line class="cls-7" x1="119.96" y1="189.86" x2="120.02" y2="189.65"/><line class="cls-7" x1="120.34" y1="188.4" x2="120.4" y2="188.19"/><line class="cls-7" x1="120.72" y1="186.95" x2="120.77" y2="186.78"/><line class="cls-7" x1="120.77" y1="186.78" x2="120.77" y2="186.73"/><line class="cls-7" x1="121.21" y1="185.54" x2="121.31" y2="185.33"/><line class="cls-7" x1="121.69" y1="184.14" x2="121.8" y2="183.92"/><line class="cls-7" x1="122.18" y1="182.73" x2="122.29" y2="182.52"/><line class="cls-7" x1="122.72" y1="181.33" x2="122.77" y2="181.11"/><line class="cls-7" x1="123.2" y1="179.93" x2="123.26" y2="179.71"/><line class="cls-7" x1="123.69" y1="178.52" x2="123.74" y2="178.36"/><line class="cls-7" x1="123.74" y1="178.36" x2="123.74" y2="178.31"/><line class="cls-7" x1="124.28" y1="177.17" x2="124.39" y2="176.96"/><line class="cls-7" x1="124.88" y1="175.82" x2="124.99" y2="175.61"/><line class="cls-7" x1="125.53" y1="174.47" x2="125.63" y2="174.26"/><line class="cls-7" x1="126.12" y1="173.07" x2="126.23" y2="172.85"/><line class="cls-7" x1="126.77" y1="171.72" x2="126.88" y2="171.5"/><line class="cls-7" x1="127.42" y1="170.31" x2="127.47" y2="170.1"/><line class="cls-7" x1="128.01" y1="168.96" x2="128.01" y2="168.96"/><line class="cls-7" x1="128.01" y1="168.96" x2="128.12" y2="168.75"/><line class="cls-7" x1="128.6" y1="167.56" x2="128.71" y2="167.34"/><line class="cls-7" x1="129.2" y1="166.16" x2="129.25" y2="165.94"/><line class="cls-7" x1="129.74" y1="164.81" x2="129.85" y2="164.59"/><line class="cls-7" x1="130.17" y1="163.4" x2="130.17" y2="163.13"/><line class="cls-7" x1="130.06" y1="161.89" x2="130.12" y2="161.67"/><line class="cls-7" x1="130.44" y1="160.43" x2="130.49" y2="160.22"/><line class="cls-7" x1="130.82" y1="158.97" x2="130.87" y2="158.76"/><line class="cls-7" x1="131.2" y1="157.52" x2="131.2" y2="157.52"/><line class="cls-7" x1="131.2" y1="157.52" x2="131.25" y2="157.3"/><line class="cls-7" x1="131.57" y1="156.06" x2="131.63" y2="155.84"/><line class="cls-7" x1="132.06" y1="154.65" x2="132.11" y2="154.44"/><line class="cls-7" x1="132.65" y1="153.25" x2="132.76" y2="153.03"/><line class="cls-7" x1="133.36" y1="151.9" x2="133.46" y2="151.68"/><line class="cls-7" x1="134.11" y1="150.55" x2="134.22" y2="150.33"/><line class="cls-7" x1="134.87" y1="149.25" x2="134.98" y2="149.04"/><line class="cls-7" x1="135.68" y1="147.96" x2="135.84" y2="147.74"/><line class="cls-7" x1="136.6" y1="146.66" x2="136.76" y2="146.45"/><line class="cls-7" x1="137.62" y1="145.42" x2="137.78" y2="145.2"/><line class="cls-7" x1="138.76" y1="144.34" x2="138.92" y2="144.18"/><line class="cls-7" x1="139.94" y1="143.37" x2="140.16" y2="143.21"/><line class="cls-7" x1="141.19" y1="142.4" x2="141.19" y2="142.4"/><line class="cls-7" x1="141.19" y1="142.4" x2="140.97" y2="142.34"/><line class="cls-7" x1="139.78" y1="142.67" x2="139.57" y2="142.72"/><line class="cls-7" x1="138.43" y1="143.21" x2="138.22" y2="143.26"/><line class="cls-7" x1="137.03" y1="143.75" x2="136.81" y2="143.85"/><line class="cls-7" x1="135.62" y1="144.34" x2="135.41" y2="144.45"/><line class="cls-7" x1="134.27" y1="144.93" x2="134.06" y2="145.04"/><line class="cls-7" x1="132.92" y1="145.53" x2="132.71" y2="145.64"/><line class="cls-7" x1="131.52" y1="146.12" x2="131.3" y2="146.23"/><line class="cls-7" x1="130.17" y1="146.72" x2="129.95" y2="146.82"/><line class="cls-7" x1="128.77" y1="147.09" x2="128.5" y2="147.09"/><line class="cls-7" x1="127.9" y1="146.77" x2="128.12" y2="146.66"/><line class="cls-7" x1="129.2" y1="145.96" x2="129.41" y2="145.85"/><line class="cls-7" x1="130.49" y1="145.2" x2="130.71" y2="145.04"/><line class="cls-7" x1="131.79" y1="144.34" x2="132.01" y2="144.18"/><line class="cls-7" x1="133.03" y1="143.37" x2="133.25" y2="143.21"/><line class="cls-7" x1="134.27" y1="142.4" x2="134.44" y2="142.23"/><line class="cls-7" x1="135.14" y1="141.21" x2="135.35" y2="141.1"/><line class="cls-7" x1="136.43" y1="140.4" x2="136.65" y2="140.34"/><line class="cls-7" x1="137.78" y1="139.86" x2="138" y2="139.75"/><line class="cls-7" x1="139.19" y1="139.26" x2="139.4" y2="139.21"/><line class="cls-7" x1="140.59" y1="138.78" x2="140.81" y2="138.72"/><line class="cls-7" x1="142" y1="138.35" x2="142.21" y2="138.29"/><line class="cls-7" x1="143.45" y1="138.02" x2="143.67" y2="137.97"/><line class="cls-7" x1="144.91" y1="137.7" x2="145.13" y2="137.64"/><line class="cls-7" x1="146.37" y1="137.43" x2="146.64" y2="137.43"/><line class="cls-7" x1="147.94" y1="137.32" x2="148.21" y2="137.32"/><line class="cls-7" x1="147.77" y1="137.21" x2="147.56" y2="137.16"/><line class="cls-7" x1="146.26" y1="137" x2="146.05" y2="136.94"/><line class="cls-7" x1="144.8" y1="136.56" x2="144.59" y2="136.51"/><line class="cls-7" x1="143.4" y1="136.13" x2="143.18" y2="136.08"/><line class="cls-7" x1="142" y1="135.59" x2="141.78" y2="135.48"/><line class="cls-7" x1="140.65" y1="134.94" x2="140.43" y2="134.84"/><line class="cls-7" x1="139.35" y1="134.19" x2="139.13" y2="134.08"/><line class="cls-7" x1="138.05" y1="133.32" x2="137.84" y2="133.22"/><line class="cls-7" x1="136.81" y1="132.41" x2="136.6" y2="132.24"/><line class="cls-7" x1="135.57" y1="131.49" x2="135.35" y2="131.33"/><line class="cls-7" x1="134.44" y1="130.46" x2="134.27" y2="130.25"/><line class="cls-7" x1="134" y1="129.06" x2="133.95" y2="128.84"/><line class="cls-7" x1="133.84" y1="127.55" x2="133.84" y2="127.28"/><line class="cls-7" x1="133.95" y1="125.98" x2="133.95" y2="125.71"/><line class="cls-7" x1="134" y1="124.41" x2="134" y2="124.41"/><line class="cls-7" x1="134" y1="124.41" x2="134.06" y2="124.2"/><line class="cls-7" x1="134.27" y1="122.96" x2="134.33" y2="122.79"/><line class="cls-7" x1="134.33" y1="122.79" x2="134.33" y2="122.74"/><line class="cls-7" x1="134.65" y1="121.5" x2="134.71" y2="121.28"/><line class="cls-7" x1="135.08" y1="120.09" x2="135.25" y2="119.88"/><line class="cls-7" x1="135.95" y1="118.8" x2="135.95" y2="118.8"/><line class="cls-7" x1="135.95" y1="118.8" x2="136.11" y2="118.58"/><line class="cls-7" x1="136.87" y1="117.56" x2="136.97" y2="117.45"/><line class="cls-7" x1="136.97" y1="117.45" x2="137.03" y2="117.39"/><line class="cls-7" x1="137.78" y1="116.37" x2="137.95" y2="116.15"/><line class="cls-7" x1="138.7" y1="115.07" x2="138.86" y2="114.91"/><line class="cls-7" x1="139.78" y1="113.94" x2="139.89" y2="113.83"/><line class="cls-7" x1="139.89" y1="113.83" x2="140" y2="113.78"/><line class="cls-7" x1="141.19" y1="113.4" x2="141.46" y2="113.4"/><line class="cls-7" x1="142.75" y1="113.51" x2="142.97" y2="113.67"/><line class="cls-7" x1="143.94" y1="114.53" x2="144.1" y2="114.75"/><line class="cls-7" x1="144.86" y1="115.77" x2="144.97" y2="115.99"/><line class="cls-7" x1="145.72" y1="117.07" x2="145.83" y2="117.29"/><line class="cls-7" x1="146.42" y1="118.37" x2="146.59" y2="118.58"/><line class="cls-7" x1="147.13" y1="119.72" x2="147.18" y2="119.93"/><line class="cls-7" x1="147.67" y1="121.12" x2="147.72" y2="121.23"/><line class="cls-7" x1="147.72" y1="121.23" x2="147.77" y2="121.34"/><line class="cls-7" x1="148.21" y1="122.52" x2="148.31" y2="122.74"/><line class="cls-7" x1="148.75" y1="123.93" x2="148.8" y2="124.14"/><line class="cls-7" x1="149.18" y1="125.33" x2="149.23" y2="125.6"/><text class="cls-8" transform="translate(54.22 20.17)">F25000_150W<tspan class="cls-9" x="64.67" y="0"> </tspan><tspan class="cls-10" x="67.38" y="0">H</tspan><tspan x="74.67" y="0">L</tspan></text></g></svg>