<svg id="fucsia_8" data-name="fucsia 8" xmlns="http://www.w3.org/2000/svg" viewBox="0 0 300 263"><defs><style>.cls-1,.cls-4{fill:none;}.cls-1,.cls-2{stroke:#1d1d1b;stroke-miterlimit:3.86;}.cls-1,.cls-2,.cls-4{stroke-width:0.5px;}.cls-2{fill:#fff;}.cls-3{isolation:isolate;}.cls-4{stroke:#000;}</style></defs><title>fucsia-8-suspension-castiglioni-flos-F2412000-spech-tech-02-300x263</title><path class="cls-1" d="M27.55,194a5.84,5.84,0,1,0-5.83-5.84A5.83,5.83,0,0,0,27.55,194"/><path class="cls-1" d="M27.55,194a5.84,5.84,0,1,0-5.83-5.84A5.83,5.83,0,0,0,27.55,194Z"/><path class="cls-1" d="M40,194a5.84,5.84,0,1,0-5.83-5.84A5.83,5.83,0,0,0,40,194"/><path class="cls-1" d="M40,194a5.84,5.84,0,1,0-5.83-5.84A5.83,5.83,0,0,0,40,194Z"/><path class="cls-1" d="M27.55,206.45a5.84,5.84,0,1,0-5.83-5.84,5.84,5.84,0,0,0,5.83,5.84"/><path class="cls-1" d="M27.55,206.45a5.84,5.84,0,1,0-5.83-5.84A5.84,5.84,0,0,0,27.55,206.45Z"/><path class="cls-1" d="M40,206.45a5.84,5.84,0,1,0-5.83-5.84A5.84,5.84,0,0,0,40,206.45"/><path class="cls-1" d="M40,206.45a5.84,5.84,0,1,0-5.83-5.84A5.84,5.84,0,0,0,40,206.45Z"/><path class="cls-1" d="M50.83,200.24A5.84,5.84,0,1,0,45,194.41a5.83,5.83,0,0,0,5.83,5.83"/><path class="cls-1" d="M50.83,200.24A5.84,5.84,0,1,0,45,194.41,5.83,5.83,0,0,0,50.83,200.24Z"/><path class="cls-1" d="M16.78,200.2A5.84,5.84,0,1,0,11,194.36a5.83,5.83,0,0,0,5.83,5.84"/><path class="cls-1" d="M16.78,200.2A5.84,5.84,0,1,0,11,194.36,5.83,5.83,0,0,0,16.78,200.2Z"/><path class="cls-1" d="M33.91,183.2a5.84,5.84,0,1,0-5.84-5.84,5.84,5.84,0,0,0,5.84,5.84"/><path class="cls-1" d="M33.91,183.2a5.84,5.84,0,1,0-5.84-5.84A5.84,5.84,0,0,0,33.91,183.2Z"/><path class="cls-1" d="M33.76,217.23a5.84,5.84,0,1,0-5.83-5.84,5.83,5.83,0,0,0,5.83,5.84"/><path class="cls-1" d="M33.76,217.23a5.84,5.84,0,1,0-5.83-5.84A5.83,5.83,0,0,0,33.76,217.23Z"/><polygon class="cls-2" points="177.72 120.68 156.91 217.82 198.54 217.82 177.72 120.68"/><polygon class="cls-2" points="172.14 120.68 151.32 217.82 192.96 217.82 172.14 120.68"/><polygon class="cls-2" points="127.44 120.68 106.62 217.82 148.25 217.82 127.44 120.68"/><polygon class="cls-2" points="149.79 120.68 128.97 217.82 170.6 217.82 149.79 120.68"/><path class="cls-1" d="M198.54,217.82l-20.82-97.14Z"/><line class="cls-1" x1="177.72" y1="122.06" x2="177.72" y2="47.04"/><path class="cls-1" d="M156.91,213.66h41.63M156.91,213h41.63"/><path class="cls-1" d="M153.84,217.82,133,120.68Z"/><line class="cls-1" x1="133.02" y1="122.06" x2="133.02" y2="47.04"/><polygon class="cls-2" points="133.02 120.68 112.21 217.82 153.84 217.82 133.02 120.68"/><path class="cls-1" d="M112.21,213.66h41.63M112.21,213h41.63"/><path class="cls-1" d="M176.19,217.82l-20.81-97.14Z"/><line class="cls-1" x1="155.37" y1="122.06" x2="155.37" y2="47.04"/><path class="cls-1" d="M134.56,213.66h41.63M134.56,213h41.63"/><path class="cls-1" d="M215.31,217.82l-20.82-97.14Z"/><line class="cls-1" x1="194.49" y1="122.06" x2="194.49" y2="47.04"/><path class="cls-1" d="M125.9,217.82l-20.81-97.14Z"/><line class="cls-1" x1="105.09" y1="122.06" x2="105.09" y2="47.04"/><path class="cls-1" d="M193,217.82l-20.82-97.14Z"/><line class="cls-1" x1="172.14" y1="122.06" x2="172.14" y2="47.04"/><path class="cls-1" d="M151.32,213.66H193M151.32,213H193"/><line class="cls-1" x1="127.44" y1="122.06" x2="127.44" y2="47.04"/><path class="cls-1" d="M106.62,213.66h41.64M106.62,213h41.64"/><path class="cls-1" d="M170.6,217.82l-20.81-97.14Z"/><line class="cls-1" x1="149.79" y1="122.06" x2="149.79" y2="47.04"/><path class="cls-1" d="M129,213.66h41.64M129,213h41.64"/><polygon class="cls-2" points="155.37 120.68 134.56 217.82 176.19 217.82 155.37 120.68"/><polygon class="cls-2" points="194.49 120.68 173.67 217.82 215.31 217.82 194.49 120.68"/><polygon class="cls-2" points="105.09 120.68 84.27 217.82 125.9 217.82 105.09 120.68"/><path class="cls-1" d="M84.27,213.66H125.9M84.27,213H125.9"/><path class="cls-1" d="M134.72,213.66h41.63M134.72,213h41.63"/><path class="cls-1" d="M173.67,213.66h41.64M173.67,213h41.64"/><g class="cls-3"><path d="M126.26,241.74a4,4,0,0,1,.68,1.16,4.28,4.28,0,0,1,.24,1.45,4.22,4.22,0,0,1-.29,1.57,3.7,3.7,0,0,1-.83,1.25,3.82,3.82,0,0,1-1.25.82,4.2,4.2,0,0,1-1.61.3,4.15,4.15,0,0,1-1.4-.23,3.94,3.94,0,0,1-1.11-.6l-1.07,1.08-.52-.49,1.06-1.09a3.56,3.56,0,0,1-.69-1.18,4.17,4.17,0,0,1-.24-1.43,4.07,4.07,0,0,1,.3-1.57,3.73,3.73,0,0,1,2.08-2.07,4.09,4.09,0,0,1,1.59-.29,4.45,4.45,0,0,1,1.39.21,3.86,3.86,0,0,1,1.15.62l1.06-1.09.51.5ZM125,242a2.65,2.65,0,0,0-1.81-.62,2.79,2.79,0,0,0-1.18.23,2.54,2.54,0,0,0-.88.63,3,3,0,0,0-.56.94,3.51,3.51,0,0,0-.2,1.17,3,3,0,0,0,.55,1.83Zm-3.6,4.72a2.72,2.72,0,0,0,.8.45,3.11,3.11,0,0,0,1,.16,3,3,0,0,0,1.18-.23,2.7,2.7,0,0,0,.88-.64,2.64,2.64,0,0,0,.57-.94,3.42,3.42,0,0,0,.2-1.17,3.13,3.13,0,0,0-.54-1.82Z"/><path d="M138,248.1h-1.16v-9.89l-2,1.79-.72-.86,2.88-2.37h1Z"/><path d="M144.37,241.63l0,0a2,2,0,0,1,.73-.28,3.69,3.69,0,0,1,.84-.1,3.58,3.58,0,0,1,1.36.26,3.36,3.36,0,0,1,1.1.73,3.4,3.4,0,0,1,.73,1.11,3.71,3.71,0,0,1,.26,1.4,3.64,3.64,0,0,1-.27,1.43,3.27,3.27,0,0,1-.77,1.1,3.49,3.49,0,0,1-1.17.72,4,4,0,0,1-1.47.26,4.13,4.13,0,0,1-1.47-.26,3.49,3.49,0,0,1-1.17-.72,3.41,3.41,0,0,1-.77-1.1,3.64,3.64,0,0,1-.27-1.43,4.54,4.54,0,0,1,.28-1.64,9.62,9.62,0,0,1,.7-1.4l3.05-5h1.37Zm-1.16,3.15a2.66,2.66,0,0,0,.19,1,2.23,2.23,0,0,0,.52.77,2.29,2.29,0,0,0,.8.51,3.18,3.18,0,0,0,2.05,0,2.38,2.38,0,0,0,.8-.51,2.55,2.55,0,0,0,.52-.77,2.84,2.84,0,0,0,0-2,2.43,2.43,0,0,0-.52-.77,2.52,2.52,0,0,0-.8-.5,3,3,0,0,0-2.05,0,2.41,2.41,0,0,0-.8.5,2.14,2.14,0,0,0-.52.77A2.64,2.64,0,0,0,143.21,244.78Z"/><path d="M154.64,236.58a3.17,3.17,0,0,1,2,.56,3.78,3.78,0,0,1,1.17,1.42,6.44,6.44,0,0,1,.55,1.9,13.58,13.58,0,0,1,.15,2,13.82,13.82,0,0,1-.15,2,6.29,6.29,0,0,1-.55,1.89,3.89,3.89,0,0,1-1.17,1.43,3.75,3.75,0,0,1-3.94,0,3.89,3.89,0,0,1-1.17-1.43,6.6,6.6,0,0,1-.56-1.89,15.36,15.36,0,0,1-.14-2,15.09,15.09,0,0,1,.14-2,6.77,6.77,0,0,1,.56-1.9,3.78,3.78,0,0,1,1.17-1.42A3.17,3.17,0,0,1,154.64,236.58Zm0,1a2.09,2.09,0,0,0-1.47.5,3.17,3.17,0,0,0-.8,1.23,6.09,6.09,0,0,0-.35,1.57c0,.55-.07,1-.07,1.5s0,.95.07,1.51a6.11,6.11,0,0,0,.35,1.56,3.2,3.2,0,0,0,.8,1.24,2.09,2.09,0,0,0,1.47.49,2,2,0,0,0,1.46-.49,3.11,3.11,0,0,0,.81-1.24,5.71,5.71,0,0,0,.34-1.56c.05-.56.08-1.06.08-1.51s0-1-.08-1.5a5.7,5.7,0,0,0-.34-1.57,3.08,3.08,0,0,0-.81-1.23A2.05,2.05,0,0,0,154.64,237.63Z"/><path d="M164.69,242.27c0-.28,0-.55,0-.83s0-.56,0-.83h1.13v1.13h0a2.53,2.53,0,0,1,1.06-1,3.05,3.05,0,0,1,1.35-.33,3.83,3.83,0,0,1,.65.06,2.25,2.25,0,0,1,.66.23,2,2,0,0,1,.6.47,2.64,2.64,0,0,1,.48.79,2.48,2.48,0,0,1,1-1.14,3.1,3.1,0,0,1,3.58.35,3.14,3.14,0,0,1,.68,2.16v4.76h-1v-4.37a3.17,3.17,0,0,0-.4-1.75,1.66,1.66,0,0,0-1.49-.6,1.84,1.84,0,0,0-1.64.84,3,3,0,0,0-.36.88,4.74,4.74,0,0,0-.11,1v4h-1.06v-4.37a3.17,3.17,0,0,0-.4-1.75,1.65,1.65,0,0,0-1.49-.6l-.43.06a1.71,1.71,0,0,0-.72.35,2.61,2.61,0,0,0-.66.87,3.48,3.48,0,0,0-.3,1.6v3.84h-1.05Z"/><path d="M178.32,242.27c0-.28,0-.55,0-.83s0-.56,0-.83h1.14v1.13h0a2.53,2.53,0,0,1,1.06-1,3.08,3.08,0,0,1,1.35-.33,3.74,3.74,0,0,1,.65.06,2.25,2.25,0,0,1,.66.23,2,2,0,0,1,.6.47,2.64,2.64,0,0,1,.48.79,2.48,2.48,0,0,1,1-1.14,2.78,2.78,0,0,1,1.45-.41,2.73,2.73,0,0,1,2.13.76,3.1,3.1,0,0,1,.69,2.16v4.76h-1.06v-4.37A3.17,3.17,0,0,0,188,242a1.66,1.66,0,0,0-1.49-.6,1.84,1.84,0,0,0-1.64.84,3,3,0,0,0-.36.88,4.74,4.74,0,0,0-.11,1v4h-1.05v-4.37A3.17,3.17,0,0,0,183,242a1.64,1.64,0,0,0-1.48-.6l-.44.06a1.71,1.71,0,0,0-.72.35,2.61,2.61,0,0,0-.66.87,3.49,3.49,0,0,0-.29,1.6v3.84h-1.06Z"/></g><line class="cls-4" x1="134.72" y1="227.97" x2="173.67" y2="227.97"/><line class="cls-4" x1="134.72" y1="227.91" x2="134.72" y2="228.02"/><line class="cls-4" x1="173.67" y1="227.91" x2="173.67" y2="228.02"/><line class="cls-4" x1="134.72" y1="227.49" x2="134.72" y2="228.44"/><line class="cls-4" x1="173.67" y1="227.49" x2="173.67" y2="228.44"/><g class="cls-3"><path d="M240,191.51v-.59a4.35,4.35,0,0,0-.11-1,2.11,2.11,0,0,0-.36-.79,1.79,1.79,0,0,0-.65-.53,2,2,0,0,0-1-.2,1.79,1.79,0,0,0-1.41.55,2.18,2.18,0,0,0-.51,1.54,2.52,2.52,0,0,0,.32,1.27,2.49,2.49,0,0,0,.93.89l-.51,1a3.39,3.39,0,0,1-1.35-1.3,3.66,3.66,0,0,1-.44-1.84,4,4,0,0,1,.19-1.26,3.18,3.18,0,0,1,.57-1,2.68,2.68,0,0,1,.92-.71,2.84,2.84,0,0,1,1.26-.26,2.58,2.58,0,0,1,.88.15,2.72,2.72,0,0,1,.75.41,2.89,2.89,0,0,1,.59.62,2.7,2.7,0,0,1,.37.74l0-.05a2.64,2.64,0,0,1,.36-.88,2.85,2.85,0,0,1,.65-.69,3.26,3.26,0,0,1,.87-.45,3,3,0,0,1,1-.16,3.27,3.27,0,0,1,1.4.29,3,3,0,0,1,1,.78,3.34,3.34,0,0,1,.63,1.16,4.22,4.22,0,0,1,.22,1.39,4.14,4.14,0,0,1-.55,2.17,3.24,3.24,0,0,1-1.74,1.39L244,193a2.33,2.33,0,0,0,1.21-.86,2.79,2.79,0,0,0,.39-1.59,2.52,2.52,0,0,0-.61-1.67,2.05,2.05,0,0,0-.72-.51,2.09,2.09,0,0,0-.91-.19,2.27,2.27,0,0,0-1.08.24,2.09,2.09,0,0,0-.71.64,2.81,2.81,0,0,0-.39.92,4.83,4.83,0,0,0-.12,1.08v.5Z"/><path d="M236.19,178.44v4.62l3.41.08a5.26,5.26,0,0,1-.21-.75,5,5,0,0,1-.06-.77,3.83,3.83,0,0,1,.27-1.46,3.37,3.37,0,0,1,.76-1.12,3.55,3.55,0,0,1,1.15-.74,4.17,4.17,0,0,1,3,0,3.69,3.69,0,0,1,1.17.8,4.07,4.07,0,0,1,.76,1.21,4.17,4.17,0,0,1,.27,1.51,3.72,3.72,0,0,1-.51,1.94,3.39,3.39,0,0,1-1.51,1.33l-.49-1.15a2.66,2.66,0,0,0,1.06-.9,2.28,2.28,0,0,0,.39-1.32,2.35,2.35,0,0,0-.2-1,2.64,2.64,0,0,0-.53-.81,2.46,2.46,0,0,0-.8-.54,2.38,2.38,0,0,0-1-.2,2.74,2.74,0,0,0-1.08.21,2.69,2.69,0,0,0-.86.57,2.57,2.57,0,0,0-.55.88,3.14,3.14,0,0,0-.19,1.12,4.52,4.52,0,0,0,.16,1.21,6.32,6.32,0,0,0,.46,1.14l-5.87-.11v-5.77Z"/><path d="M236.19,169.54v4.62l3.41.08a4.61,4.61,0,0,1-.21-.75,4.9,4.9,0,0,1-.06-.77,3.78,3.78,0,0,1,.27-1.45,3.41,3.41,0,0,1,.76-1.13,3.72,3.72,0,0,1,1.15-.74,4.06,4.06,0,0,1,1.45-.26,3.86,3.86,0,0,1,1.5.29,3.53,3.53,0,0,1,1.17.8,3.83,3.83,0,0,1,.76,1.21,4.1,4.1,0,0,1,.27,1.51,3.71,3.71,0,0,1-.51,1.93,3.39,3.39,0,0,1-1.51,1.33l-.49-1.15a2.64,2.64,0,0,0,1.06-.89,2.31,2.31,0,0,0,.39-1.33,2.38,2.38,0,0,0-.2-1,2.45,2.45,0,0,0-1.33-1.35,2.55,2.55,0,0,0-1-.2,2.74,2.74,0,0,0-1.08.21,2.56,2.56,0,0,0-.86.58,2.48,2.48,0,0,0-.55.88,3.1,3.1,0,0,0-.19,1.12,4.63,4.63,0,0,0,.16,1.21,6.63,6.63,0,0,0,.46,1.14l-5.87-.11v-5.78Z"/><path d="M240.64,162.48c-.28,0-.55,0-.83,0l-.83.05v-1.13h1.13v0a2.56,2.56,0,0,1-1-1.07,3.05,3.05,0,0,1-.33-1.35,3.83,3.83,0,0,1,.06-.65,2.25,2.25,0,0,1,.23-.66,2.34,2.34,0,0,1,.47-.6,2.44,2.44,0,0,1,.79-.47,2.56,2.56,0,0,1-1.14-1,3.1,3.1,0,0,1,.35-3.58,3.14,3.14,0,0,1,2.16-.68h4.76v1.05H242.1a3.26,3.26,0,0,0-1.75.4,1.67,1.67,0,0,0-.6,1.49,1.86,1.86,0,0,0,.23,1,1.81,1.81,0,0,0,.61.65,2.55,2.55,0,0,0,.88.36,4.17,4.17,0,0,0,1,.11h4v1.06H242.1a3.17,3.17,0,0,0-1.75.4,1.66,1.66,0,0,0-.6,1.49,3.61,3.61,0,0,0,.06.44,1.67,1.67,0,0,0,.35.71,2.48,2.48,0,0,0,.87.66,3.48,3.48,0,0,0,1.6.3h3.84v1Z"/><path d="M240.64,148.85c-.28,0-.55,0-.83,0l-.83.05V147.8h1.13v0a2.53,2.53,0,0,1-1-1.06,3.05,3.05,0,0,1-.33-1.35,3.83,3.83,0,0,1,.06-.65,2.25,2.25,0,0,1,.23-.66,2,2,0,0,1,.47-.6,2.64,2.64,0,0,1,.79-.48,2.48,2.48,0,0,1-1.14-1,2.78,2.78,0,0,1-.41-1.45,2.73,2.73,0,0,1,.76-2.13,3.09,3.09,0,0,1,2.16-.68h4.76v1.05H242.1a3.17,3.17,0,0,0-1.75.4,1.66,1.66,0,0,0-.6,1.49,1.84,1.84,0,0,0,.84,1.64,3,3,0,0,0,.88.36,4.74,4.74,0,0,0,1,.11h4v1.06H242.1a3.17,3.17,0,0,0-1.75.4,1.65,1.65,0,0,0-.6,1.49,3.31,3.31,0,0,0,.06.43,1.71,1.71,0,0,0,.35.72,2.61,2.61,0,0,0,.87.66,3.48,3.48,0,0,0,1.6.3h3.84v1Z"/></g><g class="cls-3"><path d="M246.47,104.83V112h-1.33l-4.59-4.51c-.17-.17-.36-.34-.55-.51a4.64,4.64,0,0,0-.61-.46,3.25,3.25,0,0,0-.67-.34,2.24,2.24,0,0,0-.73-.13,2.07,2.07,0,0,0-.84.17,1.79,1.79,0,0,0-.62.47,2.23,2.23,0,0,0-.39.71,2.61,2.61,0,0,0-.14.85,2.32,2.32,0,0,0,.48,1.47,2.2,2.2,0,0,0,1.3.78l-.13,1.22a3.18,3.18,0,0,1-2-1.16,3.54,3.54,0,0,1-.72-2.24,4.64,4.64,0,0,1,.18-1.3,3.39,3.39,0,0,1,.55-1.09,2.69,2.69,0,0,1,2.21-1,3.51,3.51,0,0,1,1.2.2,4.9,4.9,0,0,1,1,.52,7,7,0,0,1,.92.73c.28.27.57.55.84.84l3.54,3.57v-6Z"/><path d="M240,100.83l0,0a2,2,0,0,1-.28-.73,3.67,3.67,0,0,1-.1-.83,3.59,3.59,0,0,1,.26-1.37,3.47,3.47,0,0,1,.73-1.1,3.4,3.4,0,0,1,1.11-.73,3.71,3.71,0,0,1,1.4-.26,3.64,3.64,0,0,1,1.43.27,3.27,3.27,0,0,1,1.1.77A3.49,3.49,0,0,1,246.4,98a4.29,4.29,0,0,1,0,2.94,3.49,3.49,0,0,1-.72,1.17,3.27,3.27,0,0,1-1.1.77,3.64,3.64,0,0,1-1.43.27,4.33,4.33,0,0,1-1.64-.28,9.62,9.62,0,0,1-1.4-.7l-5-3.05V97.74Zm3.15,1.15a2.48,2.48,0,0,0,1-.19,2.23,2.23,0,0,0,.77-.52,2.29,2.29,0,0,0,.51-.8,3,3,0,0,0,.17-1,3.09,3.09,0,0,0-.17-1,2.48,2.48,0,0,0-.51-.8,2.55,2.55,0,0,0-.77-.52,2.84,2.84,0,0,0-2,0,2.43,2.43,0,0,0-.77.52,2.64,2.64,0,0,0-.5.8,2.86,2.86,0,0,0-.18,1,2.8,2.8,0,0,0,.18,1,2.41,2.41,0,0,0,.5.8,2.14,2.14,0,0,0,.77.52A2.46,2.46,0,0,0,243.15,102Z"/><path d="M240,91.93l0,0a2.06,2.06,0,0,1-.28-.73,3.82,3.82,0,0,1-.1-.84,3.63,3.63,0,0,1,.26-1.37,3.47,3.47,0,0,1,.73-1.1,3.38,3.38,0,0,1,1.11-.72,3.53,3.53,0,0,1,1.4-.27,3.48,3.48,0,0,1,1.43.28,3.24,3.24,0,0,1,1.1.76,3.49,3.49,0,0,1,.72,1.17,4.13,4.13,0,0,1,.26,1.47A4,4,0,0,1,246.4,92a3.49,3.49,0,0,1-.72,1.17,3.27,3.27,0,0,1-1.1.77,3.64,3.64,0,0,1-1.43.27,4.33,4.33,0,0,1-1.64-.28,9.55,9.55,0,0,1-1.4-.69l-5-3.06V88.84Zm3.15,1.15a2.66,2.66,0,0,0,1-.18,2.55,2.55,0,0,0,.77-.52,2.38,2.38,0,0,0,.51-.8,3.18,3.18,0,0,0,0-2,2.29,2.29,0,0,0-.51-.8,2.23,2.23,0,0,0-.77-.52,2.7,2.7,0,0,0-2,0,2.14,2.14,0,0,0-.77.52,2.41,2.41,0,0,0-.5.8,3,3,0,0,0,0,2,2.52,2.52,0,0,0,.5.8,2.43,2.43,0,0,0,.77.52A2.64,2.64,0,0,0,243.15,93.08Z"/><path d="M235,81.66a3.17,3.17,0,0,1,.56-2,3.78,3.78,0,0,1,1.42-1.17,6.45,6.45,0,0,1,1.9-.56,13.53,13.53,0,0,1,2-.14,13.76,13.76,0,0,1,2,.14,6.3,6.3,0,0,1,1.89.56,3.89,3.89,0,0,1,1.43,1.17,3.73,3.73,0,0,1,0,3.93,3.7,3.7,0,0,1-1.43,1.17,6,6,0,0,1-1.89.56,13.82,13.82,0,0,1-2,.15,13.58,13.58,0,0,1-2-.15,6.17,6.17,0,0,1-1.9-.56,3.6,3.6,0,0,1-1.42-1.17A3.14,3.14,0,0,1,235,81.66Zm1.05,0a2.07,2.07,0,0,0,.5,1.46,3.08,3.08,0,0,0,1.23.81,5.7,5.7,0,0,0,1.57.34c.55,0,1,.08,1.5.08s.95,0,1.51-.08a5.71,5.71,0,0,0,1.56-.34,3.11,3.11,0,0,0,1.24-.81,2.06,2.06,0,0,0,.49-1.46,2.09,2.09,0,0,0-.49-1.47,3.34,3.34,0,0,0-1.24-.81,6.1,6.1,0,0,0-1.56-.34c-.56-.05-1.06-.07-1.51-.07s-1,0-1.5.07a6.09,6.09,0,0,0-1.57.34,3.3,3.3,0,0,0-1.23.81A2.09,2.09,0,0,0,236,81.66Z"/><path d="M240.64,71.61l-.83,0-.83.06V70.55h1.13v0a2.59,2.59,0,0,1-1-1.06,3.12,3.12,0,0,1-.33-1.36,3.72,3.72,0,0,1,.06-.64,2.42,2.42,0,0,1,.23-.67,2.34,2.34,0,0,1,.47-.6,2.85,2.85,0,0,1,.79-.47,2.45,2.45,0,0,1-1.14-1,3.09,3.09,0,0,1,.35-3.57,3.1,3.1,0,0,1,2.16-.69h4.76V61.5H242.1a3.17,3.17,0,0,0-1.75.4,1.64,1.64,0,0,0-.6,1.48,1.92,1.92,0,0,0,.23,1,1.87,1.87,0,0,0,.61.64,2.55,2.55,0,0,0,.88.36,4.17,4.17,0,0,0,1,.12h4v1H242.1a3.26,3.26,0,0,0-1.75.4,1.67,1.67,0,0,0-.6,1.49,3.61,3.61,0,0,0,.06.44,1.62,1.62,0,0,0,.35.71,2.5,2.5,0,0,0,.87.67,3.63,3.63,0,0,0,1.6.29h3.84v1.06Z"/><path d="M240.64,58c-.28,0-.55,0-.83,0l-.83.06V56.92h1.13v0a2.56,2.56,0,0,1-1-1.07,3.05,3.05,0,0,1-.33-1.35,3.83,3.83,0,0,1,.06-.65,2.23,2.23,0,0,1,.7-1.26,2.63,2.63,0,0,1,.79-.47,2.45,2.45,0,0,1-1.14-1,3.09,3.09,0,0,1,.35-3.57,3.1,3.1,0,0,1,2.16-.69h4.76v1H242.1a3.17,3.17,0,0,0-1.75.41,1.64,1.64,0,0,0-.6,1.48,1.92,1.92,0,0,0,.23,1,1.87,1.87,0,0,0,.61.64,2.55,2.55,0,0,0,.88.36,4.17,4.17,0,0,0,1,.11h4v1.06H242.1a3.17,3.17,0,0,0-1.75.4,1.66,1.66,0,0,0-.6,1.49,3.61,3.61,0,0,0,.06.44,1.62,1.62,0,0,0,.35.71,2.37,2.37,0,0,0,.87.66,3.48,3.48,0,0,0,1.6.3h3.84V58Z"/></g><line class="cls-4" x1="224.86" y1="217.23" x2="224.86" y2="120.7"/><line class="cls-4" x1="223.02" y1="120.68" x2="226.56" y2="120.68"/><line class="cls-4" x1="222.33" y1="217.23" x2="227.39" y2="217.23"/><line class="cls-4" x1="224.86" y1="120.68" x2="224.86" y2="46.7"/><line class="cls-4" x1="223.02" y1="46.68" x2="226.56" y2="46.68"/><line class="cls-4" x1="222.33" y1="120.68" x2="227.39" y2="120.68"/><g class="cls-3"><path d="M36.8,237l1.33-1,.62.86-1.33.95L39,240.07l-.94.67-1.56-2.19-4,2.84-.76-1.07-.52-8.62,1.2-.86Zm-4.66-4.57,0,0,.55,7.5,3.21-2.28Z"/><path d="M39.73,232.13a2.5,2.5,0,0,1-.77.09,2.32,2.32,0,0,1-.78-.17,2.84,2.84,0,0,1-1.3-1,2.9,2.9,0,0,1-.49-2.31,3.21,3.21,0,0,1,.48-1.07,3.43,3.43,0,0,1,.87-.87,3.57,3.57,0,0,1,1.11-.54,3.12,3.12,0,0,1,1.17-.1,2.8,2.8,0,0,1,1.1.36,3,3,0,0,1,.92.85,2.79,2.79,0,0,1,.38.75,3.28,3.28,0,0,1,.14.81,2.53,2.53,0,0,1-.1.78,2.17,2.17,0,0,1-.34.7l0,0a2.73,2.73,0,0,1,1.87,0,3.17,3.17,0,0,1,1.58,1.23,2.86,2.86,0,0,1,.53,1.25,3.24,3.24,0,0,1,0,1.28,3.3,3.3,0,0,1-.55,1.19,4.14,4.14,0,0,1-1,1,4.39,4.39,0,0,1-1.25.61,3.41,3.41,0,0,1-1.3.13,3.37,3.37,0,0,1-1.23-.37,3,3,0,0,1-1-.91,3.17,3.17,0,0,1-.64-1.9,2.63,2.63,0,0,1,.64-1.75Zm1.43-4a2.12,2.12,0,0,0-.59-.57,1.93,1.93,0,0,0-.71-.27,2.23,2.23,0,0,0-.77,0,2.06,2.06,0,0,0-.74.34,2,2,0,0,0-.56.59,2.1,2.1,0,0,0-.28.7,1.82,1.82,0,0,0,0,.77,2.34,2.34,0,0,0,.34.74,2.23,2.23,0,0,0,.59.56,1.93,1.93,0,0,0,.71.27,2,2,0,0,0,.77,0,2.34,2.34,0,0,0,.74-.34,2.07,2.07,0,0,0,.84-1.3,2,2,0,0,0,0-.76A2.16,2.16,0,0,0,41.16,228.13Zm3.4,4.06a2.33,2.33,0,0,0-.68-.65,2.3,2.3,0,0,0-.82-.32,2.17,2.17,0,0,0-.91.05,3,3,0,0,0-1.64,1.17,2.19,2.19,0,0,0-.33.83,2.23,2.23,0,0,0,0,.89,2.54,2.54,0,0,0,1.06,1.5,2.33,2.33,0,0,0,.83.31,2.12,2.12,0,0,0,.9,0,2.87,2.87,0,0,0,.92-.44,2.77,2.77,0,0,0,.72-.73A2.15,2.15,0,0,0,45,233,2.42,2.42,0,0,0,44.56,232.19Z"/><path d="M45,221.65a3.23,3.23,0,0,1,1.92-.69,3.74,3.74,0,0,1,1.78.48,6.61,6.61,0,0,1,1.56,1.22,14.14,14.14,0,0,1,1.26,1.53,13.07,13.07,0,0,1,1,1.69,6.51,6.51,0,0,1,.65,1.87,4,4,0,0,1-.13,1.84,3.28,3.28,0,0,1-1.28,1.6,3.22,3.22,0,0,1-1.93.68,3.73,3.73,0,0,1-1.77-.48,6.61,6.61,0,0,1-1.56-1.22,13.24,13.24,0,0,1-1.26-1.53,13.07,13.07,0,0,1-1-1.69,6.51,6.51,0,0,1-.65-1.87,3.82,3.82,0,0,1,.13-1.84A3.21,3.21,0,0,1,45,221.65Zm.61.86a2,2,0,0,0-.9,1.25,3.19,3.19,0,0,0,0,1.47,6.16,6.16,0,0,0,.63,1.48A13.17,13.17,0,0,0,46.2,228c.26.37.57.76.93,1.19a6.06,6.06,0,0,0,1.19,1.08,3.14,3.14,0,0,0,1.37.53,2.08,2.08,0,0,0,1.48-.45,2,2,0,0,0,.9-1.25,3.19,3.19,0,0,0,0-1.47,6.34,6.34,0,0,0-.63-1.48c-.28-.48-.56-.9-.82-1.26s-.57-.76-.93-1.19a6.36,6.36,0,0,0-1.19-1.08,3.14,3.14,0,0,0-1.37-.53A2.08,2.08,0,0,0,45.6,222.51Z"/><path d="M56.47,220.46c-.16-.23-.32-.45-.5-.67s-.35-.43-.53-.64l.93-.66.66.92,0,0a2.42,2.42,0,0,1,.29-1.42,2.94,2.94,0,0,1,.9-1.06,3.85,3.85,0,0,1,.57-.32,2.14,2.14,0,0,1,1.43-.16,2.51,2.51,0,0,1,.84.36,2.54,2.54,0,0,1,.17-1.51,3.1,3.1,0,0,1,3.12-1.8,3.11,3.11,0,0,1,1.81,1.37L69,218.72l-.86.61-2.53-3.56a3.18,3.18,0,0,0-1.34-1.18,1.64,1.64,0,0,0-1.57.36,2,2,0,0,0-.67.77,1.9,1.9,0,0,0-.17.88,2.61,2.61,0,0,0,.21.92,5.28,5.28,0,0,0,.5.89l2.31,3.24-.86.62-2.53-3.56a3.21,3.21,0,0,0-1.34-1.19,1.63,1.63,0,0,0-1.56.37,2.35,2.35,0,0,0-.33.31,1.67,1.67,0,0,0-.37.69,2.58,2.58,0,0,0,0,1.09,3.51,3.51,0,0,0,.69,1.48l2.22,3.13-.86.61Z"/><path d="M67.58,212.55c-.16-.23-.33-.45-.5-.67l-.53-.64.92-.66.66.92,0,0a2.42,2.42,0,0,1,.29-1.42,3,3,0,0,1,.91-1.06,3.29,3.29,0,0,1,.56-.32,2.18,2.18,0,0,1,1.44-.16,2.73,2.73,0,0,1,.84.36,2.39,2.39,0,0,1,.17-1.51,3.07,3.07,0,0,1,3.11-1.8,3.2,3.2,0,0,1,1.82,1.37l2.75,3.87-.86.61-2.53-3.55a3.14,3.14,0,0,0-1.34-1.19,1.63,1.63,0,0,0-1.56.36,1.83,1.83,0,0,0-.85,1.65,3.13,3.13,0,0,0,.21.92,5.28,5.28,0,0,0,.5.89l2.32,3.24-.87.62-2.53-3.56a3.15,3.15,0,0,0-1.34-1.19,1.63,1.63,0,0,0-1.56.37,3.61,3.61,0,0,0-.32.31,1.56,1.56,0,0,0-.38.7,2.53,2.53,0,0,0,0,1.08,3.51,3.51,0,0,0,.69,1.48l2.23,3.13-.86.61Z"/></g><g class="cls-3"><path d="M11.94,148.24l0,0a1.84,1.84,0,0,1,.72-.29,3.82,3.82,0,0,1,.84-.1,3.54,3.54,0,0,1,2.47,1,3.4,3.4,0,0,1,.73,1.11A3.77,3.77,0,0,1,17,151.4a3.63,3.63,0,0,1-.27,1.42,3.08,3.08,0,0,1-.77,1.1,3.49,3.49,0,0,1-1.17.72,4.29,4.29,0,0,1-2.94,0,3.49,3.49,0,0,1-1.17-.72,3.08,3.08,0,0,1-.77-1.1,3.63,3.63,0,0,1-.27-1.42,4.39,4.39,0,0,1,.28-1.65,9,9,0,0,1,.7-1.39l3.05-5H15Zm-1.15,3.16a2.46,2.46,0,0,0,.19,1,2.06,2.06,0,0,0,.52.77,2.29,2.29,0,0,0,.8.51,3.14,3.14,0,0,0,2,0,2.29,2.29,0,0,0,.8-.51,2.06,2.06,0,0,0,.52-.77,2.7,2.7,0,0,0,0-2,2.1,2.1,0,0,0-.52-.76,2.29,2.29,0,0,0-.8-.51,3,3,0,0,0-2,0,2.29,2.29,0,0,0-.8.51,2.1,2.1,0,0,0-.52.76A2.48,2.48,0,0,0,10.79,151.4Z"/><path d="M21,148.24h.59a3.82,3.82,0,0,0,1-.11,2.11,2.11,0,0,0,.79-.36,1.71,1.71,0,0,0,.53-.65,2,2,0,0,0,.2-1,1.8,1.8,0,0,0-.55-1.41,2.18,2.18,0,0,0-1.54-.51,2.52,2.52,0,0,0-1.27.32,2.57,2.57,0,0,0-.89.93l-1-.51a3.39,3.39,0,0,1,1.3-1.35,3.66,3.66,0,0,1,1.84-.44,4,4,0,0,1,1.26.19,3.18,3.18,0,0,1,1,.57,2.62,2.62,0,0,1,.71.93,2.77,2.77,0,0,1,.27,1.25,2.37,2.37,0,0,1-.16.88,2.72,2.72,0,0,1-.41.75,2.89,2.89,0,0,1-.62.59,2.79,2.79,0,0,1-.73.37l0,0a2.28,2.28,0,0,1,.88.36,2.63,2.63,0,0,1,.69.64,3.26,3.26,0,0,1,.45.87,3.05,3.05,0,0,1,.16,1,3.26,3.26,0,0,1-.29,1.39,3,3,0,0,1-.78,1,3.39,3.39,0,0,1-1.15.63,4.32,4.32,0,0,1-1.4.22,4.24,4.24,0,0,1-2.17-.54,3.35,3.35,0,0,1-1.39-1.75l1.21-.37a2.33,2.33,0,0,0,.86,1.21,2.79,2.79,0,0,0,1.59.39,2.53,2.53,0,0,0,.91-.16,2.16,2.16,0,0,0,.76-.45,2.11,2.11,0,0,0,.51-.71,2.17,2.17,0,0,0,.19-.92,2.27,2.27,0,0,0-.24-1.08,2.09,2.09,0,0,0-.64-.71,2.81,2.81,0,0,0-.92-.39,4.83,4.83,0,0,0-1.08-.12H21Z"/><path d="M31.11,143.19a3.17,3.17,0,0,1,2,.56,3.86,3.86,0,0,1,1.17,1.42,6.45,6.45,0,0,1,.56,1.9,14,14,0,0,1,0,4,6.45,6.45,0,0,1-.56,1.9,3.86,3.86,0,0,1-1.17,1.42,3.75,3.75,0,0,1-3.94,0A3.74,3.74,0,0,1,28,152.92a6.17,6.17,0,0,1-.56-1.9,13.08,13.08,0,0,1,0-4,6.17,6.17,0,0,1,.56-1.9,3.74,3.74,0,0,1,1.16-1.42A3.19,3.19,0,0,1,31.11,143.19Zm0,1.05a2.07,2.07,0,0,0-1.46.5,3.08,3.08,0,0,0-.81,1.23,5.78,5.78,0,0,0-.34,1.57c-.05.55-.08,1.06-.08,1.5s0,1,.08,1.51a5.78,5.78,0,0,0,.34,1.57,3.08,3.08,0,0,0,.81,1.23,2.06,2.06,0,0,0,1.46.49,2.09,2.09,0,0,0,1.47-.49,3.17,3.17,0,0,0,.8-1.23,5.79,5.79,0,0,0,.35-1.57c.05-.56.07-1.06.07-1.51s0-.95-.07-1.5a5.79,5.79,0,0,0-.35-1.57,3.17,3.17,0,0,0-.8-1.23A2.09,2.09,0,0,0,31.11,144.24Z"/><path d="M41.16,148.88c0-.27,0-.55,0-.83l-.06-.83h1.14v1.14h0a2.5,2.5,0,0,1,1.06-1,3.12,3.12,0,0,1,1.35-.33,3.74,3.74,0,0,1,.65.06,2.42,2.42,0,0,1,.67.23,2.39,2.39,0,0,1,.6.48,2.65,2.65,0,0,1,.47.78,2.48,2.48,0,0,1,1-1.14,2.87,2.87,0,0,1,1.45-.41,2.73,2.73,0,0,1,2.13.76,3.11,3.11,0,0,1,.69,2.17v4.75H51.27v-4.37a3.11,3.11,0,0,0-.4-1.74,1.64,1.64,0,0,0-1.49-.61,2,2,0,0,0-1,.23,1.84,1.84,0,0,0-.65.62,2.84,2.84,0,0,0-.36.87,4.74,4.74,0,0,0-.11,1v4H46.22v-4.37a3.2,3.2,0,0,0-.4-1.74,1.65,1.65,0,0,0-1.49-.61l-.44.06a1.62,1.62,0,0,0-.71.35,2.6,2.6,0,0,0-.67.87,3.52,3.52,0,0,0-.29,1.6v3.84H41.16Z"/><path d="M54.79,148.88c0-.27,0-.55,0-.83l-.06-.83h1.14v1.14h0a2.55,2.55,0,0,1,1.06-1A3.12,3.12,0,0,1,58.3,147a3.72,3.72,0,0,1,.64.06,2.42,2.42,0,0,1,.67.23,2.39,2.39,0,0,1,.6.48,2.65,2.65,0,0,1,.47.78,2.45,2.45,0,0,1,1-1.14,2.81,2.81,0,0,1,1.44-.41,2.73,2.73,0,0,1,2.13.76A3.11,3.11,0,0,1,66,150v4.75H64.9v-4.37a3.11,3.11,0,0,0-.4-1.74A1.62,1.62,0,0,0,63,148a2,2,0,0,0-1,.23,1.81,1.81,0,0,0-.64.62,2.42,2.42,0,0,0-.36.87,4.17,4.17,0,0,0-.12,1v4h-1v-4.37a3.2,3.2,0,0,0-.4-1.74A1.64,1.64,0,0,0,58,148l-.44.06a1.62,1.62,0,0,0-.71.35,2.6,2.6,0,0,0-.67.87,3.66,3.66,0,0,0-.29,1.6v3.84H54.79Z"/></g><line class="cls-4" x1="37.65" y1="221.83" x2="69.98" y2="197.64"/><line class="cls-4" x1="37.55" y1="221.69" x2="37.74" y2="221.97"/><line class="cls-4" x1="69.89" y1="197.51" x2="70.08" y2="197.78"/><line class="cls-4" x1="36.84" y1="220.64" x2="38.45" y2="223.02"/><line class="cls-4" x1="69.18" y1="196.45" x2="70.79" y2="198.83"/><line class="cls-4" x1="12.17" y1="164.22" x2="55.35" y2="164.22"/><line class="cls-4" x1="12.17" y1="164.05" x2="12.17" y2="164.39"/><line class="cls-4" x1="55.35" y1="164.05" x2="55.35" y2="164.39"/><line class="cls-4" x1="12.17" y1="162.76" x2="12.17" y2="165.68"/><line class="cls-4" x1="55.35" y1="162.76" x2="55.35" y2="165.68"/></svg>