<svg id="fucsia_3" data-name="fucsia 3" xmlns="http://www.w3.org/2000/svg" viewBox="0 0 300 263"><defs><style>.cls-1{isolation:isolate;}.cls-2,.cls-3{fill:none;stroke-width:0.5px;}.cls-2{stroke:#000;}.cls-3{stroke:#1d1d1b;stroke-miterlimit:3.86;}</style></defs><title>fucsia-3-suspension-castiglioni-flos-F2411000-spech-tech-02-300x263</title><g class="cls-1"><path d="M33.08,241.17h.59a3.69,3.69,0,0,0,.95-.12,2.09,2.09,0,0,0,.8-.36A1.71,1.71,0,0,0,36,240a2,2,0,0,0,.2-1,1.8,1.8,0,0,0-.55-1.41,2.18,2.18,0,0,0-1.54-.5,2.42,2.42,0,0,0-1.27.32,2.46,2.46,0,0,0-.89.92l-1-.51a3.39,3.39,0,0,1,1.3-1.35,3.75,3.75,0,0,1,1.83-.44,4.07,4.07,0,0,1,1.27.19,3.18,3.18,0,0,1,1,.57,2.74,2.74,0,0,1,.71.93,2.8,2.8,0,0,1,.26,1.25,2.54,2.54,0,0,1-.15.88,2.72,2.72,0,0,1-.41.75,2.89,2.89,0,0,1-.62.59,2.7,2.7,0,0,1-.74.37l0,0a2.28,2.28,0,0,1,.88.36,2.63,2.63,0,0,1,.69.64,3.26,3.26,0,0,1,.45.87,3.1,3.1,0,0,1,.16,1,3.26,3.26,0,0,1-.29,1.39,2.93,2.93,0,0,1-.78,1,3.34,3.34,0,0,1-1.16.63,4.58,4.58,0,0,1-3.56-.32,3.37,3.37,0,0,1-1.4-1.75l1.22-.36a2.34,2.34,0,0,0,.86,1.2,2.79,2.79,0,0,0,1.59.39,2.53,2.53,0,0,0,.91-.16,2.16,2.16,0,0,0,.76-.45,2.18,2.18,0,0,0,.7-1.62,2.21,2.21,0,0,0-.24-1.08,2,2,0,0,0-.64-.72,2.81,2.81,0,0,0-.92-.39,4.83,4.83,0,0,0-1.08-.12h-.5Z"/><path d="M44.28,247.63H43.13v-9.89l-2,1.79-.72-.86,2.88-2.37h1Z"/><path d="M52.06,236.11a3.21,3.21,0,0,1,2,.56,3.67,3.67,0,0,1,1.17,1.42,6.17,6.17,0,0,1,.56,1.9,13.08,13.08,0,0,1,0,3.95,6.17,6.17,0,0,1-.56,1.9A3.67,3.67,0,0,1,54,247.26a3.73,3.73,0,0,1-3.93,0,3.86,3.86,0,0,1-1.17-1.42,6.45,6.45,0,0,1-.56-1.9,14,14,0,0,1,0-3.95,6.45,6.45,0,0,1,.56-1.9,3.86,3.86,0,0,1,1.17-1.42A3.24,3.24,0,0,1,52.06,236.11Zm0,1.06a2.09,2.09,0,0,0-1.47.49,3.3,3.3,0,0,0-.81,1.23,6.18,6.18,0,0,0-.34,1.57c0,.56-.07,1.06-.07,1.5s0,.95.07,1.51a6.18,6.18,0,0,0,.34,1.57,3.3,3.3,0,0,0,.81,1.23,2.09,2.09,0,0,0,1.47.49,2.06,2.06,0,0,0,1.46-.49,3.08,3.08,0,0,0,.81-1.23,6.18,6.18,0,0,0,.34-1.57c0-.56.08-1.06.08-1.51s0-.94-.08-1.5a6.18,6.18,0,0,0-.34-1.57,3.08,3.08,0,0,0-.81-1.23A2.06,2.06,0,0,0,52.06,237.17Z"/><path d="M62.1,241.8c0-.27,0-.55,0-.83s0-.55-.06-.83h1.14v1.14h0a2.44,2.44,0,0,1,1.07-1,2.94,2.94,0,0,1,1.35-.34,3.83,3.83,0,0,1,.65.06,2.28,2.28,0,0,1,.66.24,2.14,2.14,0,0,1,.6.47,2.45,2.45,0,0,1,.47.78,2.43,2.43,0,0,1,1-1.13,2.76,2.76,0,0,1,1.45-.42,2.69,2.69,0,0,1,2.12.76,3.12,3.12,0,0,1,.69,2.17v4.75h-1v-4.37a3.2,3.2,0,0,0-.4-1.74,1.65,1.65,0,0,0-1.49-.61,2,2,0,0,0-1,.23,1.84,1.84,0,0,0-.65.62,2.42,2.42,0,0,0-.36.87,4.17,4.17,0,0,0-.11,1v4H67.16v-4.37a3.11,3.11,0,0,0-.4-1.74,1.64,1.64,0,0,0-1.49-.61l-.44.06a1.71,1.71,0,0,0-.71.36,2.44,2.44,0,0,0-.66.86,3.51,3.51,0,0,0-.3,1.6v3.84H62.1Z"/><path d="M75.74,241.8c0-.27,0-.55,0-.83s0-.55,0-.83h1.13v1.14h0a2.49,2.49,0,0,1,1.07-1,2.94,2.94,0,0,1,1.35-.34,3.83,3.83,0,0,1,.65.06,2.28,2.28,0,0,1,.66.24,1.89,1.89,0,0,1,.6.47,2.28,2.28,0,0,1,.47.78,2.48,2.48,0,0,1,1-1.13,2.76,2.76,0,0,1,1.45-.42,2.73,2.73,0,0,1,2.13.76,3.17,3.17,0,0,1,.68,2.17v4.75H85.85v-4.37a3.2,3.2,0,0,0-.4-1.74,1.64,1.64,0,0,0-1.49-.61,2,2,0,0,0-1,.23,1.93,1.93,0,0,0-.65.62,2.62,2.62,0,0,0-.36.87,4.74,4.74,0,0,0-.11,1v4H80.79v-4.37a3.11,3.11,0,0,0-.4-1.74,1.63,1.63,0,0,0-1.49-.61l-.44.06a1.71,1.71,0,0,0-.71.36,2.56,2.56,0,0,0-.66.86,3.51,3.51,0,0,0-.3,1.6v3.84H75.74Z"/></g><g class="cls-1"><path d="M19.29,230.68v-.6a3.75,3.75,0,0,0-.12-1,2,2,0,0,0-.36-.79,1.88,1.88,0,0,0-.64-.54,2.19,2.19,0,0,0-1-.2,1.83,1.83,0,0,0-1.42.56,2.16,2.16,0,0,0-.5,1.54,2.36,2.36,0,0,0,.32,1.26,2.49,2.49,0,0,0,.92.9l-.51,1a3.35,3.35,0,0,1-1.35-1.31,3.73,3.73,0,0,1-.44-1.83,4,4,0,0,1,.19-1.26,3.09,3.09,0,0,1,.57-1,2.77,2.77,0,0,1,.93-.72,2.94,2.94,0,0,1,1.25-.26,2.54,2.54,0,0,1,.88.15,3,3,0,0,1,.76.42,3.35,3.35,0,0,1,.58.61,3.06,3.06,0,0,1,.38.74l0-.05a2.34,2.34,0,0,1,.36-.88,2.95,2.95,0,0,1,1.51-1.13,3.39,3.39,0,0,1,2.4.13,2.84,2.84,0,0,1,1,.78,3.49,3.49,0,0,1,.64,1.15,4.54,4.54,0,0,1,.21,1.39,4.25,4.25,0,0,1-.54,2.18,3.35,3.35,0,0,1-1.75,1.39l-.36-1.21a2.4,2.4,0,0,0,1.2-.86,3.08,3.08,0,0,0,.24-2.5,2.24,2.24,0,0,0-.46-.76,2.18,2.18,0,0,0-.71-.52,2.27,2.27,0,0,0-.91-.18,2.21,2.21,0,0,0-1.08.24,1.94,1.94,0,0,0-.72.64,2.72,2.72,0,0,0-.39.92,4.83,4.83,0,0,0-.12,1.08v.5Z"/><path d="M19.29,221.78v-.59a3.69,3.69,0,0,0-.12-.95,2.09,2.09,0,0,0-.36-.8,1.75,1.75,0,0,0-.64-.53,2.06,2.06,0,0,0-1-.2,1.82,1.82,0,0,0-1.42.55,2.18,2.18,0,0,0-.5,1.54,2.4,2.4,0,0,0,.32,1.27,2.46,2.46,0,0,0,.92.89L16,224a3.33,3.33,0,0,1-1.35-1.3,3.75,3.75,0,0,1-.44-1.83,4.07,4.07,0,0,1,.19-1.27,3.18,3.18,0,0,1,.57-1,2.74,2.74,0,0,1,.93-.71,2.8,2.8,0,0,1,1.25-.26,2.54,2.54,0,0,1,.88.15,2.93,2.93,0,0,1,.76.41,3.11,3.11,0,0,1,.58.62,2.73,2.73,0,0,1,.38.74l0,0a2.28,2.28,0,0,1,.36-.88,2.51,2.51,0,0,1,.65-.69,3.06,3.06,0,0,1,.86-.45,3.1,3.1,0,0,1,1-.16,3.26,3.26,0,0,1,1.39.29,2.84,2.84,0,0,1,1,.78,3.53,3.53,0,0,1,.64,1.16,4.5,4.5,0,0,1,.21,1.39A4.24,4.24,0,0,1,25.4,223a3.37,3.37,0,0,1-1.75,1.4l-.36-1.22a2.34,2.34,0,0,0,1.2-.86,2.71,2.71,0,0,0,.4-1.59,2.76,2.76,0,0,0-.16-.91,2.34,2.34,0,0,0-.46-.76,2,2,0,0,0-.71-.51,2.12,2.12,0,0,0-.91-.19,2.21,2.21,0,0,0-1.08.24,2,2,0,0,0-.72.64,2.81,2.81,0,0,0-.39.92,4.83,4.83,0,0,0-.12,1.08v.5Z"/><path d="M14.23,211.7a3.24,3.24,0,0,1,.56-2,3.86,3.86,0,0,1,1.42-1.17,6.77,6.77,0,0,1,1.9-.56,14,14,0,0,1,3.95,0,6.77,6.77,0,0,1,1.9.56,3.86,3.86,0,0,1,1.42,1.17,3.75,3.75,0,0,1,0,3.94A3.86,3.86,0,0,1,24,214.84a6.77,6.77,0,0,1-1.9.56,14,14,0,0,1-3.95,0,6.77,6.77,0,0,1-1.9-.56,3.86,3.86,0,0,1-1.42-1.17A3.24,3.24,0,0,1,14.23,211.7Zm1.06,0a2,2,0,0,0,.49,1.46A3.08,3.08,0,0,0,17,214a6.19,6.19,0,0,0,1.57.35c.56,0,1.06.07,1.51.07s.94,0,1.5-.07a6.19,6.19,0,0,0,1.57-.35,3.08,3.08,0,0,0,1.23-.81,2.38,2.38,0,0,0,0-2.92,3.08,3.08,0,0,0-1.23-.81,6.19,6.19,0,0,0-1.57-.35c-.56,0-1.06-.07-1.5-.07s-.95,0-1.51.07a6.19,6.19,0,0,0-1.57.35,3.08,3.08,0,0,0-1.23.81A2,2,0,0,0,15.29,211.7Z"/><path d="M19.93,201.65q-.42,0-.84,0l-.83,0V200.6H19.4v0a2.41,2.41,0,0,1-1-1.06,2.94,2.94,0,0,1-.34-1.35,3.83,3.83,0,0,1,.06-.65,2.28,2.28,0,0,1,.24-.66,2,2,0,0,1,.47-.6,2.47,2.47,0,0,1,.78-.48,2.41,2.41,0,0,1-1.13-1,2.79,2.79,0,0,1-.42-1.45,2.73,2.73,0,0,1,.76-2.13,3.12,3.12,0,0,1,2.17-.69h4.75v1.06H21.38a3.11,3.11,0,0,0-1.74.4,1.64,1.64,0,0,0-.61,1.49,2,2,0,0,0,.23,1,1.93,1.93,0,0,0,.62.65,2.84,2.84,0,0,0,.87.36,4.76,4.76,0,0,0,1,.11h4v1.06H21.38a3.11,3.11,0,0,0-1.74.4,1.62,1.62,0,0,0-.61,1.48,3.37,3.37,0,0,0,.06.44,1.74,1.74,0,0,0,.36.72,2.67,2.67,0,0,0,.86.66,3.51,3.51,0,0,0,1.6.3h3.84v1.05Z"/><path d="M19.93,188l-.84,0-.83.06V187H19.4v0a2.41,2.41,0,0,1-1-1.06,3,3,0,0,1-.34-1.35,3.74,3.74,0,0,1,.06-.65,2.45,2.45,0,0,1,.24-.67,2.34,2.34,0,0,1,.47-.6,2.65,2.65,0,0,1,.78-.47,2.41,2.41,0,0,1-1.13-1,2.79,2.79,0,0,1-.42-1.45,2.73,2.73,0,0,1,.76-2.13,3.12,3.12,0,0,1,2.17-.69h4.75v1.06H21.38a3.11,3.11,0,0,0-1.74.4A1.63,1.63,0,0,0,19,179.8a1.82,1.82,0,0,0,.85,1.64,2.84,2.84,0,0,0,.87.36,4.76,4.76,0,0,0,1,.11h4V183H21.38a3.2,3.2,0,0,0-1.74.4,1.65,1.65,0,0,0-.61,1.49,3.37,3.37,0,0,0,.06.44,1.65,1.65,0,0,0,.36.71,2.55,2.55,0,0,0,.86.67,3.52,3.52,0,0,0,1.6.29h3.84V188Z"/></g><line class="cls-2" x1="46.85" y1="227.45" x2="71.18" y2="227.45"/><line class="cls-2" x1="46.85" y1="227.28" x2="46.85" y2="227.61"/><line class="cls-2" x1="71.18" y1="227.28" x2="71.18" y2="227.61"/><line class="cls-2" x1="46.85" y1="225.99" x2="46.85" y2="228.91"/><line class="cls-2" x1="71.18" y1="225.99" x2="71.18" y2="228.91"/><line class="cls-2" x1="35.26" y1="216.9" x2="35.26" y2="192.58"/><line class="cls-2" x1="35.09" y1="216.9" x2="35.43" y2="216.9"/><line class="cls-2" x1="35.09" y1="192.58" x2="35.43" y2="192.58"/><line class="cls-2" x1="33.8" y1="216.9" x2="36.72" y2="216.9"/><line class="cls-2" x1="33.8" y1="192.58" x2="36.72" y2="192.58"/><path class="cls-3" d="M198.09,217.19,174.83,108.61Z"/><path class="cls-3" d="M174.83,110.16V46.45M151.56,212.53h46.53m-46.53-.77h46.53m-73.22-101.6V46.45M101.6,212.53h46.53m-46.53-.77h46.53"/><path class="cls-3" d="M173.12,217.19,149.85,108.61Z"/><path class="cls-3" d="M149.85,110.16V46.45m0,62.16L126.58,217.19h46.54ZM126.58,212.53h46.54m-46.54-.77h46.54M124.91,108.61,101.6,217.19h46.53m-10.78-50.5-.16-.57m.11.11-12.43-57.62m26.69,108.58h46.53L174.83,108.61l-12.44,58"/><path class="cls-3" d="M57.44,206.09a5.84,5.84,0,1,0-5.83-5.83A5.83,5.83,0,0,0,57.44,206.09Z"/><path class="cls-3" d="M63.78,217.26A5.84,5.84,0,1,0,58,211.42,5.84,5.84,0,0,0,63.78,217.26Z"/><path class="cls-3" d="M51.11,217.26a5.84,5.84,0,1,0-5.83-5.84A5.85,5.85,0,0,0,51.11,217.26Z"/><g class="cls-1"><path d="M122,241.72a3.7,3.7,0,0,1,.68,1.16,4.2,4.2,0,0,1,.25,1.45,4,4,0,0,1-.3,1.56,3.71,3.71,0,0,1-2.08,2.08,4.35,4.35,0,0,1-1.61.29,4.15,4.15,0,0,1-1.4-.22,3.72,3.72,0,0,1-1.11-.61l-1.07,1.09-.51-.5,1.05-1.09a3.6,3.6,0,0,1-.68-1.17,4.21,4.21,0,0,1-.24-1.43,4,4,0,0,1,.29-1.57,3.73,3.73,0,0,1,2.08-2.07,4.17,4.17,0,0,1,1.59-.3,4.24,4.24,0,0,1,1.4.22,4,4,0,0,1,1.15.61l1-1.09.52.5Zm-1.25.25a2.69,2.69,0,0,0-1.81-.62,2.91,2.91,0,0,0-1.17.23,2.71,2.71,0,0,0-.88.63,2.81,2.81,0,0,0-.56.95,3.2,3.2,0,0,0-.2,1.17,3,3,0,0,0,.54,1.82Zm-3.6,4.72a2.43,2.43,0,0,0,.8.45,2.86,2.86,0,0,0,1,.16,3,3,0,0,0,1.18-.23,2.71,2.71,0,0,0,.89-.63,3,3,0,0,0,.57-.95,3.41,3.41,0,0,0,.2-1.16,3.14,3.14,0,0,0-.55-1.83Z"/><path d="M133.74,248.07h-1.15v-9.89l-2,1.79-.72-.86,2.88-2.37h1Z"/><path d="M140.14,241.61l0,0a1.89,1.89,0,0,1,.73-.29,4.44,4.44,0,0,1,.84-.1,3.45,3.45,0,0,1,1.37.27,3.31,3.31,0,0,1,1.1.73,3.23,3.23,0,0,1,.72,1.1,3.62,3.62,0,0,1,.27,1.41,3.46,3.46,0,0,1-.28,1.42,3.18,3.18,0,0,1-.76,1.11A3.63,3.63,0,0,1,143,248a4.31,4.31,0,0,1-3,0,3.69,3.69,0,0,1-1.16-.71,3.21,3.21,0,0,1-.77-1.11,3.63,3.63,0,0,1-.27-1.42,4.39,4.39,0,0,1,.28-1.65,9.45,9.45,0,0,1,.69-1.39l3.06-5h1.36ZM139,244.76a2.64,2.64,0,0,0,.18,1,2.48,2.48,0,0,0,.52.78,2.52,2.52,0,0,0,.8.5,3,3,0,0,0,2,0,2.41,2.41,0,0,0,.8-.5,2.32,2.32,0,0,0,.52-.78,2.64,2.64,0,0,0,.18-1,2.57,2.57,0,0,0-.18-1,2.18,2.18,0,0,0-.52-.77,2.44,2.44,0,0,0-.8-.51,3,3,0,0,0-2,0,2.55,2.55,0,0,0-.8.51,2.33,2.33,0,0,0-.52.77A2.57,2.57,0,0,0,139,244.76Z"/><path d="M150.41,236.55a3.24,3.24,0,0,1,2,.56,3.86,3.86,0,0,1,1.17,1.42,6.45,6.45,0,0,1,.56,1.9,14,14,0,0,1,0,3.95,6.45,6.45,0,0,1-.56,1.9,3.86,3.86,0,0,1-1.17,1.42,3.75,3.75,0,0,1-3.94,0,3.74,3.74,0,0,1-1.16-1.42,6.17,6.17,0,0,1-.56-1.9,13.08,13.08,0,0,1,0-3.95,6.17,6.17,0,0,1,.56-1.9,3.74,3.74,0,0,1,1.16-1.42A3.26,3.26,0,0,1,150.41,236.55Zm0,1.06a2.06,2.06,0,0,0-1.46.49,3.08,3.08,0,0,0-.81,1.23,5.78,5.78,0,0,0-.34,1.57c-.05.56-.08,1.06-.08,1.51s0,.94.08,1.5a5.78,5.78,0,0,0,.34,1.57,3.08,3.08,0,0,0,.81,1.23,2.07,2.07,0,0,0,1.46.5,2.09,2.09,0,0,0,1.47-.5,3.3,3.3,0,0,0,.81-1.23,6.18,6.18,0,0,0,.34-1.57c.05-.56.07-1.06.07-1.5s0-.95-.07-1.51a6.18,6.18,0,0,0-.34-1.57,3.3,3.3,0,0,0-.81-1.23A2.09,2.09,0,0,0,150.41,237.61Z"/><path d="M160.46,242.25c0-.28,0-.56,0-.84l-.06-.83h1.14v1.14h0a2.41,2.41,0,0,1,1.06-1,3,3,0,0,1,1.35-.34,3.74,3.74,0,0,1,.65.06,2.45,2.45,0,0,1,.67.24,2.34,2.34,0,0,1,.6.47,2.65,2.65,0,0,1,.47.78,2.38,2.38,0,0,1,1-1.13,3.06,3.06,0,0,1,3.57.34,3.12,3.12,0,0,1,.69,2.17v4.75h-1.06V243.7a3.11,3.11,0,0,0-.4-1.74,1.63,1.63,0,0,0-1.49-.61,1.82,1.82,0,0,0-1.64.85,2.84,2.84,0,0,0-.36.87,4.74,4.74,0,0,0-.11,1v4h-1V243.7a3.2,3.2,0,0,0-.4-1.74,1.65,1.65,0,0,0-1.49-.61l-.44.06a1.65,1.65,0,0,0-.71.36,2.55,2.55,0,0,0-.67.86,3.66,3.66,0,0,0-.29,1.6v3.84h-1.06Z"/><path d="M174.09,242.25c0-.28,0-.56,0-.84l-.06-.83h1.14v1.14h0a2.47,2.47,0,0,1,1.06-1,3,3,0,0,1,1.36-.34,3.63,3.63,0,0,1,.64.06,2.31,2.31,0,0,1,1.27.71,2.45,2.45,0,0,1,.47.78,2.38,2.38,0,0,1,1-1.13,3.06,3.06,0,0,1,3.57.34,3.12,3.12,0,0,1,.69,2.17v4.75h-1V243.7a3.11,3.11,0,0,0-.41-1.74,1.62,1.62,0,0,0-1.48-.61,2,2,0,0,0-1,.23,1.9,1.9,0,0,0-.64.62,2.42,2.42,0,0,0-.36.87,4.17,4.17,0,0,0-.11,1v4h-1.06V243.7a3.11,3.11,0,0,0-.4-1.74,1.64,1.64,0,0,0-1.49-.61l-.44.06a1.65,1.65,0,0,0-.71.36,2.55,2.55,0,0,0-.67.86,3.66,3.66,0,0,0-.29,1.6v3.84h-1.06Z"/></g><line class="cls-2" x1="126.58" y1="228.16" x2="173.12" y2="228.16"/><line class="cls-2" x1="126.58" y1="228.08" x2="126.58" y2="228.25"/><line class="cls-2" x1="173.12" y1="228.08" x2="173.12" y2="228.25"/><line class="cls-2" x1="126.58" y1="227.45" x2="126.58" y2="228.88"/><line class="cls-2" x1="173.12" y1="227.45" x2="173.12" y2="228.88"/><g class="cls-1"><path d="M222.05,189.31v-.59a3.69,3.69,0,0,0-.11-.95,2,2,0,0,0-.36-.79,1.64,1.64,0,0,0-.65-.54,2.13,2.13,0,0,0-1-.2,1.8,1.8,0,0,0-1.41.55,2.19,2.19,0,0,0-.51,1.55,2.46,2.46,0,0,0,.32,1.26,2.68,2.68,0,0,0,.93.9l-.51,1a3.33,3.33,0,0,1-1.35-1.3,3.65,3.65,0,0,1-.44-1.83,4.07,4.07,0,0,1,.19-1.27,3.18,3.18,0,0,1,.57-1,2.88,2.88,0,0,1,.93-.71,2.91,2.91,0,0,1,1.25-.26,2.58,2.58,0,0,1,.88.15,2.5,2.5,0,0,1,.75.42,2.76,2.76,0,0,1,1,1.35l0,0a2.34,2.34,0,0,1,.36-.88,2.63,2.63,0,0,1,.64-.69,3.26,3.26,0,0,1,.87-.45,3.34,3.34,0,0,1,1-.16,3.26,3.26,0,0,1,1.39.29,3,3,0,0,1,1,.79,3.3,3.3,0,0,1,.63,1.15,4.6,4.6,0,0,1-.32,3.57,3.35,3.35,0,0,1-1.75,1.39l-.37-1.22a2.31,2.31,0,0,0,1.21-.85,2.8,2.8,0,0,0,.39-1.6,2.53,2.53,0,0,0-.16-.91,2.16,2.16,0,0,0-.45-.76,2.11,2.11,0,0,0-.71-.51,2.32,2.32,0,0,0-.92-.18,2.27,2.27,0,0,0-1.08.24,2,2,0,0,0-.71.64,2.64,2.64,0,0,0-.39.92,4.7,4.7,0,0,0-.12,1.08v.49Z"/><path d="M218.25,176.24v4.62l3.4.08a3.77,3.77,0,0,1-.2-.75,3.94,3.94,0,0,1-.07-.77,3.78,3.78,0,0,1,.27-1.45,3.31,3.31,0,0,1,.76-1.13,3.66,3.66,0,0,1,1.16-.74,4,4,0,0,1,1.44-.26,3.82,3.82,0,0,1,1.5.29,3.53,3.53,0,0,1,1.17.8,3.66,3.66,0,0,1,.76,1.21,4.1,4.1,0,0,1,.27,1.51,3.71,3.71,0,0,1-.51,1.93,3.28,3.28,0,0,1-1.51,1.33l-.49-1.15a2.58,2.58,0,0,0,1.06-.89,2.34,2.34,0,0,0,.39-1.33,2.38,2.38,0,0,0-.2-1,2.45,2.45,0,0,0-1.33-1.35,2.54,2.54,0,0,0-1-.2,2.75,2.75,0,0,0-1.09.21,2.56,2.56,0,0,0-.86.58,2.4,2.4,0,0,0-.55.88,3.1,3.1,0,0,0-.19,1.12,4.14,4.14,0,0,0,.17,1.2,5.72,5.72,0,0,0,.45,1.15l-5.87-.11v-5.78Z"/><path d="M218.25,167.34V172l3.4.08a4.17,4.17,0,0,1-.2-.75,4.08,4.08,0,0,1-.07-.77,3.83,3.83,0,0,1,.27-1.46,3.41,3.41,0,0,1,.76-1.13,3.47,3.47,0,0,1,1.16-.73,3.77,3.77,0,0,1,1.44-.27,3.82,3.82,0,0,1,1.5.29,3.53,3.53,0,0,1,1.17.8,3.77,3.77,0,0,1,.76,1.21,4.13,4.13,0,0,1,.27,1.51,3.75,3.75,0,0,1-.51,1.94,3.34,3.34,0,0,1-1.51,1.33l-.49-1.16a2.58,2.58,0,0,0,1.06-.89,2.28,2.28,0,0,0,.39-1.32,2.43,2.43,0,0,0-.2-1,2.6,2.6,0,0,0-.53-.8,2.46,2.46,0,0,0-.8-.54,2.37,2.37,0,0,0-1-.2,2.94,2.94,0,0,0-1.09.2,2.56,2.56,0,0,0-.86.58,2.48,2.48,0,0,0-.55.88,3.1,3.1,0,0,0-.19,1.12,4.16,4.16,0,0,0,.17,1.21,5.64,5.64,0,0,0,.45,1.14l-5.87-.11v-5.78Z"/><path d="M222.69,160.29l-.83,0-.83.06v-1.14h1.14v0a2.55,2.55,0,0,1-1-1.06,3.12,3.12,0,0,1-.33-1.35,3.74,3.74,0,0,1,.06-.65,2.42,2.42,0,0,1,.23-.67,2.39,2.39,0,0,1,.48-.6,2.65,2.65,0,0,1,.78-.47,2.45,2.45,0,0,1-1.14-1,2.81,2.81,0,0,1-.41-1.44,2.73,2.73,0,0,1,.76-2.13,3.11,3.11,0,0,1,2.17-.69h4.75v1.06h-4.37a3.11,3.11,0,0,0-1.74.4,1.62,1.62,0,0,0-.61,1.48,2,2,0,0,0,.23,1,1.92,1.92,0,0,0,.62.65,2.6,2.6,0,0,0,.87.35,4.17,4.17,0,0,0,1,.12h4v1h-4.37a3.2,3.2,0,0,0-1.74.4,1.64,1.64,0,0,0-.61,1.49,3.61,3.61,0,0,0,.06.44,1.62,1.62,0,0,0,.35.71,2.6,2.6,0,0,0,.87.67,3.66,3.66,0,0,0,1.6.29h3.84v1.06Z"/><path d="M222.69,146.66c-.27,0-.55,0-.83,0l-.83.06V145.6h1.14v0a2.52,2.52,0,0,1-1-1.07,3.05,3.05,0,0,1-.33-1.35,3.83,3.83,0,0,1,.06-.65,2.36,2.36,0,0,1,.23-.66,2.39,2.39,0,0,1,.48-.6,2.45,2.45,0,0,1,.78-.47,2.5,2.5,0,0,1-1.14-1,2.82,2.82,0,0,1-.41-1.45,2.69,2.69,0,0,1,.76-2.12,3.11,3.11,0,0,1,2.17-.69h4.75v1h-4.37a3.11,3.11,0,0,0-1.74.41,1.62,1.62,0,0,0-.61,1.48,2,2,0,0,0,.23,1,1.76,1.76,0,0,0,.62.65,2.42,2.42,0,0,0,.87.36,4.17,4.17,0,0,0,1,.11h4v1.06h-4.37a3.11,3.11,0,0,0-1.74.4,1.64,1.64,0,0,0-.61,1.49,3.61,3.61,0,0,0,.06.44,1.62,1.62,0,0,0,.35.71,2.46,2.46,0,0,0,.87.66,3.51,3.51,0,0,0,1.6.3h3.84v1.06Z"/></g><g class="cls-1"><path d="M228.52,102.2v7.2h-1.33l-4.59-4.52c-.17-.17-.35-.34-.55-.51a5.3,5.3,0,0,0-.6-.46,3.6,3.6,0,0,0-.68-.34,2.24,2.24,0,0,0-.73-.13,2,2,0,0,0-.83.17,1.74,1.74,0,0,0-.63.47,2.23,2.23,0,0,0-.39.71,2.61,2.61,0,0,0-.14.85,2.32,2.32,0,0,0,.48,1.47,2.23,2.23,0,0,0,1.3.78l-.13,1.22a3.18,3.18,0,0,1-2-1.16,3.54,3.54,0,0,1-.72-2.24,4.64,4.64,0,0,1,.18-1.3,3.39,3.39,0,0,1,.55-1.09,2.92,2.92,0,0,1,.92-.75,2.79,2.79,0,0,1,1.29-.28,3.51,3.51,0,0,1,1.2.2,5,5,0,0,1,1,.52,6.93,6.93,0,0,1,.91.73c.29.27.57.55.85.84l3.53,3.57v-6Z"/><path d="M222.05,98.2l0,0a1.84,1.84,0,0,1-.29-.72,3.82,3.82,0,0,1-.1-.84,3.42,3.42,0,0,1,.27-1.37,3.28,3.28,0,0,1,.72-1.1,3.4,3.4,0,0,1,1.11-.73,3.73,3.73,0,0,1,1.41-.26,3.63,3.63,0,0,1,1.42.27,3.17,3.17,0,0,1,1.1.77,3.49,3.49,0,0,1,.72,1.17,4.29,4.29,0,0,1,0,2.94,3.49,3.49,0,0,1-.72,1.17,3.17,3.17,0,0,1-1.1.77,3.63,3.63,0,0,1-1.42.27,4.39,4.39,0,0,1-1.65-.28,9,9,0,0,1-1.39-.7l-5-3V95.11Zm3.16,1.15a2.46,2.46,0,0,0,1-.19,2.14,2.14,0,0,0,.77-.52,2.29,2.29,0,0,0,.51-.8,3,3,0,0,0,.17-1,3.09,3.09,0,0,0-.17-1A2.34,2.34,0,0,0,227,95a2.14,2.14,0,0,0-.77-.52,2.7,2.7,0,0,0-2,0,2.1,2.1,0,0,0-.76.52,2.34,2.34,0,0,0-.51.79,2.86,2.86,0,0,0-.18,1,2.8,2.8,0,0,0,.18,1,2.29,2.29,0,0,0,.51.8,2.1,2.1,0,0,0,.76.52A2.48,2.48,0,0,0,225.21,99.35Z"/><path d="M222.05,89.3l0,0a1.89,1.89,0,0,1-.29-.73,3.75,3.75,0,0,1-.1-.84,3.45,3.45,0,0,1,.27-1.37,3.28,3.28,0,0,1,.72-1.1,3.38,3.38,0,0,1,1.11-.72,3.55,3.55,0,0,1,1.41-.27,3.46,3.46,0,0,1,1.42.28,3.15,3.15,0,0,1,1.1.76,3.49,3.49,0,0,1,.72,1.17,4.31,4.31,0,0,1,0,3,3.54,3.54,0,0,1-.72,1.16,3.17,3.17,0,0,1-1.1.77,3.63,3.63,0,0,1-1.42.27,4.39,4.39,0,0,1-1.65-.28,9,9,0,0,1-1.39-.69l-5-3.06V86.21Zm3.16,1.15a2.64,2.64,0,0,0,1-.18,2.43,2.43,0,0,0,.77-.52,2.38,2.38,0,0,0,.51-.8,3.18,3.18,0,0,0,0-2,2.29,2.29,0,0,0-.51-.8,2.14,2.14,0,0,0-.77-.52,2.84,2.84,0,0,0-2,0,2.1,2.1,0,0,0-.76.52,2.29,2.29,0,0,0-.51.8,3,3,0,0,0,0,2,2.33,2.33,0,0,0,1.27,1.32A2.66,2.66,0,0,0,225.21,90.45Z"/><path d="M217,79a3.17,3.17,0,0,1,.56-2A3.86,3.86,0,0,1,219,75.89a6.45,6.45,0,0,1,1.9-.56,14,14,0,0,1,4,0,6.45,6.45,0,0,1,1.9.56,3.86,3.86,0,0,1,1.42,1.17,3.75,3.75,0,0,1,0,3.94,3.74,3.74,0,0,1-1.42,1.16,6.17,6.17,0,0,1-1.9.56,13.08,13.08,0,0,1-4,0,6.17,6.17,0,0,1-1.9-.56A3.74,3.74,0,0,1,217.56,81,3.19,3.19,0,0,1,217,79Zm1.05,0a2.07,2.07,0,0,0,.5,1.46,3.08,3.08,0,0,0,1.23.81,5.7,5.7,0,0,0,1.57.34c.55,0,1.06.08,1.5.08s1,0,1.51-.08a5.78,5.78,0,0,0,1.57-.34,3.08,3.08,0,0,0,1.23-.81,2.06,2.06,0,0,0,.49-1.46,2.09,2.09,0,0,0-.49-1.47,3.3,3.3,0,0,0-1.23-.81,6.18,6.18,0,0,0-1.57-.34c-.56,0-1.06-.07-1.51-.07s-.95,0-1.5.07a6.09,6.09,0,0,0-1.57.34,3.3,3.3,0,0,0-1.23.81A2.09,2.09,0,0,0,218.05,79Z"/><path d="M222.69,69l-.83,0-.83.06V67.92h1.14v0a2.55,2.55,0,0,1-1-1.06,3.12,3.12,0,0,1-.33-1.35,3.74,3.74,0,0,1,.06-.65,2.42,2.42,0,0,1,.23-.67,2.39,2.39,0,0,1,.48-.6,2.65,2.65,0,0,1,.78-.47,2.45,2.45,0,0,1-1.14-1,2.81,2.81,0,0,1-.41-1.44,2.73,2.73,0,0,1,.76-2.13,3.11,3.11,0,0,1,2.17-.69h4.75v1.06h-4.37a3.11,3.11,0,0,0-1.74.4,1.62,1.62,0,0,0-.61,1.48,2,2,0,0,0,.23,1,1.92,1.92,0,0,0,.62.65,2.6,2.6,0,0,0,.87.35,4.17,4.17,0,0,0,1,.12h4v1.05h-4.37a3.2,3.2,0,0,0-1.74.4,1.65,1.65,0,0,0-.61,1.49,3.61,3.61,0,0,0,.06.44,1.62,1.62,0,0,0,.35.71,2.6,2.6,0,0,0,.87.67,3.66,3.66,0,0,0,1.6.29h3.84V69Z"/><path d="M222.69,55.35c-.27,0-.55,0-.83,0l-.83.06V54.29h1.14v0a2.52,2.52,0,0,1-1-1.07,3.05,3.05,0,0,1-.33-1.35,3.83,3.83,0,0,1,.06-.65,2.36,2.36,0,0,1,.23-.66,2.39,2.39,0,0,1,.48-.6,2.45,2.45,0,0,1,.78-.47,2.45,2.45,0,0,1-1.14-1,2.81,2.81,0,0,1-.41-1.44,2.73,2.73,0,0,1,.76-2.13,3.11,3.11,0,0,1,2.17-.69h4.75v1h-4.37a3.11,3.11,0,0,0-1.74.41,1.62,1.62,0,0,0-.61,1.48,2,2,0,0,0,.23,1,1.81,1.81,0,0,0,.62.64,2.42,2.42,0,0,0,.87.36,4.17,4.17,0,0,0,1,.11h4v1.06h-4.37a3.11,3.11,0,0,0-1.74.4,1.64,1.64,0,0,0-.61,1.49,3.61,3.61,0,0,0,.06.44,1.62,1.62,0,0,0,.35.71,2.6,2.6,0,0,0,.87.67,3.66,3.66,0,0,0,1.6.29h3.84v1.06Z"/></g><line class="cls-2" x1="206.91" y1="217.23" x2="206.91" y2="110.19"/><line class="cls-2" x1="205.07" y1="110.16" x2="208.61" y2="110.16"/><line class="cls-2" x1="204.38" y1="217.23" x2="209.44" y2="217.23"/><line class="cls-2" x1="206.91" y1="110.16" x2="206.91" y2="47.38"/><line class="cls-2" x1="205.07" y1="47.37" x2="208.61" y2="47.37"/><line class="cls-2" x1="204.38" y1="110.16" x2="209.44" y2="110.16"/></svg>