<svg id="fucsia_12" data-name="fucsia 12" xmlns="http://www.w3.org/2000/svg" viewBox="0 0 300 263"><defs><style>.cls-1,.cls-3{fill:none;stroke-width:0.5px;}.cls-1{stroke:#1d1d1b;stroke-miterlimit:3.86;}.cls-2{isolation:isolate;}.cls-3{stroke:#000;}</style></defs><title>fucsia-12-suspension-castiglioni-flos-F2413000-spech-tech-02-300x263</title><path class="cls-1" d="M57.48,200.65a5.87,5.87,0,1,0-5.87,5.87,5.87,5.87,0,0,0,5.87-5.87"/><path class="cls-1" d="M57.48,200.65a5.87,5.87,0,1,0-5.87,5.87A5.87,5.87,0,0,0,57.48,200.65Z"/><path class="cls-1" d="M57.48,188.23a5.87,5.87,0,1,0-5.87,5.87,5.87,5.87,0,0,0,5.87-5.87"/><path class="cls-1" d="M57.48,188.23a5.87,5.87,0,1,0-5.87,5.87A5.87,5.87,0,0,0,57.48,188.23Z"/><path class="cls-1" d="M57.48,175.81a5.87,5.87,0,1,0-5.87,5.88,5.87,5.87,0,0,0,5.87-5.88"/><path class="cls-1" d="M57.48,175.81a5.87,5.87,0,1,0-5.87,5.88A5.87,5.87,0,0,0,57.48,175.81Z"/><path class="cls-1" d="M57.48,163.4a5.87,5.87,0,1,0-5.87,5.87,5.87,5.87,0,0,0,5.87-5.87"/><path class="cls-1" d="M57.48,163.4a5.87,5.87,0,1,0-5.87,5.87A5.87,5.87,0,0,0,57.48,163.4Z"/><path class="cls-1" d="M57.48,151a5.87,5.87,0,1,0-5.87,5.87A5.87,5.87,0,0,0,57.48,151"/><path class="cls-1" d="M57.48,151a5.87,5.87,0,1,0-5.87,5.87A5.87,5.87,0,0,0,57.48,151Z"/><path class="cls-1" d="M69.89,200.65A5.87,5.87,0,1,0,64,206.52a5.87,5.87,0,0,0,5.87-5.87"/><path class="cls-1" d="M69.89,200.65A5.87,5.87,0,1,0,64,206.52,5.87,5.87,0,0,0,69.89,200.65Z"/><path class="cls-1" d="M69.89,188.23A5.87,5.87,0,1,0,64,194.1a5.87,5.87,0,0,0,5.87-5.87"/><path class="cls-1" d="M69.89,188.23A5.87,5.87,0,1,0,64,194.1,5.87,5.87,0,0,0,69.89,188.23Z"/><path class="cls-1" d="M69.89,175.81A5.87,5.87,0,1,0,64,181.69a5.87,5.87,0,0,0,5.87-5.88"/><path class="cls-1" d="M69.89,175.81A5.87,5.87,0,1,0,64,181.69,5.87,5.87,0,0,0,69.89,175.81Z"/><path class="cls-1" d="M69.89,163.4A5.87,5.87,0,1,0,64,169.27a5.87,5.87,0,0,0,5.87-5.87"/><path class="cls-1" d="M69.89,163.4A5.87,5.87,0,1,0,64,169.27,5.87,5.87,0,0,0,69.89,163.4Z"/><path class="cls-1" d="M69.89,151A5.87,5.87,0,1,0,64,156.85,5.87,5.87,0,0,0,69.89,151"/><path class="cls-1" d="M69.89,151A5.87,5.87,0,1,0,64,156.85,5.87,5.87,0,0,0,69.89,151Z"/><path class="cls-1" d="M63.72,140.23a5.87,5.87,0,1,0-5.87,5.87,5.87,5.87,0,0,0,5.87-5.87"/><path class="cls-1" d="M63.72,140.23a5.87,5.87,0,1,0-5.87,5.87A5.87,5.87,0,0,0,63.72,140.23Z"/><path class="cls-1" d="M63.69,211.39a5.87,5.87,0,1,0-5.87,5.87,5.87,5.87,0,0,0,5.87-5.87"/><path class="cls-1" d="M63.69,211.39a5.87,5.87,0,1,0-5.87,5.87A5.87,5.87,0,0,0,63.69,211.39Z"/><path class="cls-1" d="M91.71,217.26l24.56-114.59Z"/><path class="cls-1" d="M116.27,46.68v57.63m-24.56,108h49.11m-49.11-.81h49.11M169,46.68v57.63m-24.56,108h49.12m-49.12-.81h49.12M142.63,46.68v57.63m-31.14,108h49.1m-49.1-.81h49.1"/><path class="cls-1" d="M98.3,217.26l24.56-114.59Z"/><path class="cls-1" d="M122.86,46.68v57.63m-24.56,108h49.11m-49.11-.81h49.11M175.58,46.68v57.63M151,212.34h49.11M151,211.53h49.11M149.22,46.68v57.63m-24.55,108h49.11m-49.11-.81h49.11m-18-164.85v57.63m-24.55,108h49.1m-49.1-.81h49.1M129.45,102.67,104.9,217.26Zm0-56v57.63m-24.55,108H154m-49.1-.81H154M182.17,46.68v57.63m-24.55,108h49.11m-49.11-.81h49.11"/><path class="cls-1" d="M137.85,217.26,162.4,102.67Z"/><path class="cls-1" d="M162.4,46.68v57.63m-24.55,113H187L162.4,102.67Zm0-4.92H187m-49.11-.81H187m-67.25-93.47-3.44-15.39L91.71,217.26h49.11M126.2,118.11l-3.34-15.44L98.3,217.26h49.11m-4.84-53.49,13.2-61.1m1.85,114.59h49.11L182.18,102.67l-9.89,45.74M159.08,118l-3.36-15.3m23,15.87-3.17-15.87L169,133.48m3.3-14.94L169,102.67l-3.45,15.15m-19.52,62-16.57-77.19L104.9,217.26H154m-1.39-99.44-3.39-15.15-10,45.31M146,117.82l-3.39-15.15L136,133.76"/><g class="cls-2"><path d="M133.42,240a4,4,0,0,1,.68,1.16,4.28,4.28,0,0,1,.24,1.45,4.22,4.22,0,0,1-.29,1.57,3.73,3.73,0,0,1-2.08,2.07,4.2,4.2,0,0,1-1.61.3,4.15,4.15,0,0,1-1.4-.23,3.94,3.94,0,0,1-1.11-.6l-1.08,1.08-.51-.49,1.06-1.09a3.56,3.56,0,0,1-.69-1.18,4.17,4.17,0,0,1-.24-1.43,4.07,4.07,0,0,1,.3-1.57,3.73,3.73,0,0,1,2.08-2.07,4.09,4.09,0,0,1,1.59-.29,4.45,4.45,0,0,1,1.39.21,3.65,3.65,0,0,1,1.15.62L134,238.4l.51.49Zm-1.25.26a2.65,2.65,0,0,0-1.81-.62,2.79,2.79,0,0,0-1.18.23,2.54,2.54,0,0,0-.88.63,3,3,0,0,0-.56.94,3.46,3.46,0,0,0-.2,1.17,3,3,0,0,0,.55,1.83Zm-3.6,4.72a2.72,2.72,0,0,0,.8.45,3.11,3.11,0,0,0,1,.16,2.8,2.8,0,0,0,1.18-.24,2.54,2.54,0,0,0,.88-.63,2.64,2.64,0,0,0,.57-.94,3.42,3.42,0,0,0,.2-1.17,3.13,3.13,0,0,0-.54-1.82Z"/><path d="M145.13,246.33H144v-9.88l-2,1.79-.72-.87L144.1,235h1Z"/><path d="M151.53,239.87l0,0a2,2,0,0,1,.73-.28,3.69,3.69,0,0,1,.84-.1,3.58,3.58,0,0,1,1.36.26,3.36,3.36,0,0,1,1.1.73,3.4,3.4,0,0,1,.73,1.11,3.71,3.71,0,0,1,.26,1.4,3.64,3.64,0,0,1-.27,1.43,3.27,3.27,0,0,1-.77,1.1,3.54,3.54,0,0,1-1.16.72,4.31,4.31,0,0,1-2.95,0,3.49,3.49,0,0,1-1.17-.72,3.41,3.41,0,0,1-.77-1.1,3.64,3.64,0,0,1-.27-1.43,4.6,4.6,0,0,1,.28-1.65,10.06,10.06,0,0,1,.7-1.39l3.05-5h1.37ZM150.37,243a2.57,2.57,0,0,0,.19,1,2.18,2.18,0,0,0,.52.78,2.13,2.13,0,0,0,.8.5,3,3,0,0,0,2.05,0,2.21,2.21,0,0,0,.8-.5,2.48,2.48,0,0,0,.52-.78,2.57,2.57,0,0,0,.18-1,2.64,2.64,0,0,0-.18-1,2.43,2.43,0,0,0-.52-.77,2.52,2.52,0,0,0-.8-.5,3,3,0,0,0-2.05,0,2.41,2.41,0,0,0-.8.5,2.14,2.14,0,0,0-.52.77A2.64,2.64,0,0,0,150.37,243Z"/><path d="M161.8,234.82a3.24,3.24,0,0,1,2,.55,3.77,3.77,0,0,1,1.16,1.43,6.09,6.09,0,0,1,.56,1.9,13.58,13.58,0,0,1,.15,2,13.82,13.82,0,0,1-.15,2,6.11,6.11,0,0,1-.56,1.89,3.77,3.77,0,0,1-1.16,1.43,3.75,3.75,0,0,1-3.94,0,3.89,3.89,0,0,1-1.17-1.43,6.39,6.39,0,0,1-.56-1.89,15.36,15.36,0,0,1-.14-2,15.09,15.09,0,0,1,.14-2,6.37,6.37,0,0,1,.56-1.9,3.89,3.89,0,0,1,1.17-1.43A3.24,3.24,0,0,1,161.8,234.82Zm0,1.05a2.09,2.09,0,0,0-1.47.5,3.17,3.17,0,0,0-.8,1.23,6.09,6.09,0,0,0-.35,1.57c-.05.55-.07,1.05-.07,1.5s0,1,.07,1.5a6.09,6.09,0,0,0,.35,1.57,3.17,3.17,0,0,0,.8,1.23,2,2,0,0,0,1.47.5,2,2,0,0,0,1.46-.5,3.08,3.08,0,0,0,.81-1.23,5.7,5.7,0,0,0,.34-1.57c.05-.55.08-1,.08-1.5s0-.95-.08-1.5a5.7,5.7,0,0,0-.34-1.57,3.08,3.08,0,0,0-.81-1.23A2.05,2.05,0,0,0,161.8,235.87Z"/><path d="M171.85,240.51c0-.28,0-.55,0-.83s0-.56,0-.83h1.13V240h0a2.5,2.5,0,0,1,1.07-1,3.05,3.05,0,0,1,1.35-.33,3.83,3.83,0,0,1,.65.06,2.25,2.25,0,0,1,.66.23,2,2,0,0,1,.6.47,2.44,2.44,0,0,1,.47.79,2.56,2.56,0,0,1,1-1.14,3.1,3.1,0,0,1,3.58.35,3.08,3.08,0,0,1,.68,2.16v4.75h-1V242a3.26,3.26,0,0,0-.4-1.75,1.67,1.67,0,0,0-1.49-.6,1.84,1.84,0,0,0-1.64.84,2.58,2.58,0,0,0-.36.87,4.9,4.9,0,0,0-.11,1v4H176.9V242a3.17,3.17,0,0,0-.4-1.75,1.65,1.65,0,0,0-1.49-.6l-.44.06a1.67,1.67,0,0,0-.71.35,2.67,2.67,0,0,0-.66.86,3.55,3.55,0,0,0-.3,1.61v3.83h-1.05Z"/><path d="M185.48,240.51c0-.28,0-.55,0-.83s0-.56,0-.83h1.13V240h0a2.47,2.47,0,0,1,1.06-1,3.05,3.05,0,0,1,1.35-.33,3.83,3.83,0,0,1,.65.06,2.25,2.25,0,0,1,.66.23,2,2,0,0,1,.6.47,2.64,2.64,0,0,1,.48.79,2.48,2.48,0,0,1,1-1.14,2.78,2.78,0,0,1,1.45-.41,2.73,2.73,0,0,1,2.13.76,3.08,3.08,0,0,1,.69,2.16v4.75h-1.06V242a3.17,3.17,0,0,0-.4-1.75,1.66,1.66,0,0,0-1.49-.6,1.84,1.84,0,0,0-1.64.84,3.07,3.07,0,0,0-.36.87,4.9,4.9,0,0,0-.11,1v4h-1.06V242a3.17,3.17,0,0,0-.4-1.75,1.64,1.64,0,0,0-1.48-.6l-.44.06a1.71,1.71,0,0,0-.72.35,2.67,2.67,0,0,0-.66.86,3.55,3.55,0,0,0-.3,1.61v3.83h-1.05Z"/></g><line class="cls-3" x1="137.24" y1="227.43" x2="186.34" y2="227.43"/><line class="cls-3" x1="137.24" y1="227.35" x2="137.24" y2="227.51"/><line class="cls-3" x1="186.34" y1="227.35" x2="186.34" y2="227.51"/><line class="cls-3" x1="137.24" y1="226.71" x2="137.24" y2="228.15"/><line class="cls-3" x1="186.34" y1="226.71" x2="186.34" y2="228.15"/><g class="cls-2"><path d="M229.74,181.14v-.59a3.69,3.69,0,0,0-.11-1,2,2,0,0,0-.36-.79,1.72,1.72,0,0,0-.65-.54,2.13,2.13,0,0,0-1-.2,1.82,1.82,0,0,0-1.41.55,2.21,2.21,0,0,0-.51,1.55,2.46,2.46,0,0,0,.32,1.26,2.6,2.6,0,0,0,.93.9l-.51,1a3.41,3.41,0,0,1-1.35-1.31,3.65,3.65,0,0,1-.44-1.83,4,4,0,0,1,.19-1.26,3.13,3.13,0,0,1,.57-1.05,3,3,0,0,1,.92-.71,3,3,0,0,1,1.26-.26,2.58,2.58,0,0,1,.88.15,2.5,2.5,0,0,1,.75.42,2.76,2.76,0,0,1,1,1.35l0-.05a2.72,2.72,0,0,1,.36-.88,3,3,0,0,1,.65-.69,3,3,0,0,1,.87-.44,3,3,0,0,1,1-.16,3.27,3.27,0,0,1,1.4.28,3.18,3.18,0,0,1,1,.79,3.3,3.3,0,0,1,.63,1.15,4.26,4.26,0,0,1,.22,1.39,4.18,4.18,0,0,1-.55,2.18,3.29,3.29,0,0,1-1.74,1.39l-.37-1.22a2.31,2.31,0,0,0,1.21-.85,2.8,2.8,0,0,0,.39-1.6,2.57,2.57,0,0,0-.16-.91,2.43,2.43,0,0,0-.45-.76A2.05,2.05,0,0,0,234,178a2.24,2.24,0,0,0-.91-.18A2.27,2.27,0,0,0,232,178a2,2,0,0,0-.71.64,2.64,2.64,0,0,0-.39.92,4.7,4.7,0,0,0-.12,1.08v.49Z"/><path d="M225.93,168.07v4.63l3.41.08a5,5,0,0,1-.21-.76,4.87,4.87,0,0,1-.06-.76,3.8,3.8,0,0,1,.27-1.46,3.41,3.41,0,0,1,.76-1.13,3.52,3.52,0,0,1,1.15-.73,4,4,0,0,1,2.95,0,3.53,3.53,0,0,1,1.17.8,3.83,3.83,0,0,1,.76,1.21,4.13,4.13,0,0,1,.27,1.51,3.77,3.77,0,0,1-.51,1.94,3.43,3.43,0,0,1-1.51,1.32l-.49-1.15a2.64,2.64,0,0,0,1.06-.89,2.31,2.31,0,0,0,.39-1.33,2.38,2.38,0,0,0-.2-1,2.64,2.64,0,0,0-.53-.81,2.82,2.82,0,0,0-.8-.54,2.55,2.55,0,0,0-1-.2,2.74,2.74,0,0,0-1.08.21,2.56,2.56,0,0,0-.86.58,2.48,2.48,0,0,0-.55.88,3.1,3.1,0,0,0-.19,1.12,4.57,4.57,0,0,0,.16,1.21,6.63,6.63,0,0,0,.46,1.14l-5.87-.11v-5.78Z"/><path d="M225.93,159.18v4.62l3.41.08a5.26,5.26,0,0,1-.21-.75,5,5,0,0,1-.06-.77,3.83,3.83,0,0,1,.27-1.46,3.4,3.4,0,0,1,1.91-1.86,4.17,4.17,0,0,1,2.95,0,3.69,3.69,0,0,1,1.17.8,4.07,4.07,0,0,1,.76,1.21,4.17,4.17,0,0,1,.27,1.51,3.75,3.75,0,0,1-.51,1.94,3.39,3.39,0,0,1-1.51,1.33l-.49-1.15a2.66,2.66,0,0,0,1.06-.9,2.28,2.28,0,0,0,.39-1.32,2.43,2.43,0,0,0-.2-1,2.72,2.72,0,0,0-.53-.8,2.46,2.46,0,0,0-.8-.54,2.38,2.38,0,0,0-1-.2,2.92,2.92,0,0,0-1.08.2,2.72,2.72,0,0,0-.86.58,2.57,2.57,0,0,0-.55.88,3.14,3.14,0,0,0-.19,1.12,4.52,4.52,0,0,0,.16,1.21,6.32,6.32,0,0,0,.46,1.14l-5.87-.11v-5.77Z"/><path d="M230.38,152.12l-.83,0-.83.06v-1.14h1.13v0a2.53,2.53,0,0,1-1-1.06,3.12,3.12,0,0,1-.33-1.35,3.74,3.74,0,0,1,.06-.65,2.42,2.42,0,0,1,.23-.67,2.34,2.34,0,0,1,.47-.6,2.85,2.85,0,0,1,.79-.47,2.45,2.45,0,0,1-1.14-1,2.81,2.81,0,0,1-.41-1.44,2.73,2.73,0,0,1,.76-2.13,3.1,3.1,0,0,1,2.16-.69h4.76V142h-4.37a3.17,3.17,0,0,0-1.75.4,1.65,1.65,0,0,0-.6,1.49,1.91,1.91,0,0,0,.23,1,2,2,0,0,0,.61.65,3,3,0,0,0,.88.36,4.74,4.74,0,0,0,1,.11h4v1.05h-4.37a3.26,3.26,0,0,0-1.75.4,1.67,1.67,0,0,0-.6,1.49,3.37,3.37,0,0,0,.06.44,1.62,1.62,0,0,0,.35.71,2.5,2.5,0,0,0,.87.67,3.63,3.63,0,0,0,1.6.29h3.84v1.06Z"/><path d="M230.38,138.49l-.83,0-.83.06v-1.14h1.13v0a2.59,2.59,0,0,1-1-1.06,3.12,3.12,0,0,1-.33-1.36,3.63,3.63,0,0,1,.06-.64,2.31,2.31,0,0,1,.23-.67,2.34,2.34,0,0,1,.47-.6,2.63,2.63,0,0,1,.79-.47,2.45,2.45,0,0,1-1.14-1,2.81,2.81,0,0,1-.41-1.44,2.73,2.73,0,0,1,.76-2.13,3.1,3.1,0,0,1,2.16-.69h4.76v1.06h-4.37a3.17,3.17,0,0,0-1.75.4,1.64,1.64,0,0,0-.6,1.48,1.92,1.92,0,0,0,.23,1,1.87,1.87,0,0,0,.61.64,2.55,2.55,0,0,0,.88.36,4.17,4.17,0,0,0,1,.12h4v1.05h-4.37a3.17,3.17,0,0,0-1.75.4,1.66,1.66,0,0,0-.6,1.49,3.61,3.61,0,0,0,.06.44,1.62,1.62,0,0,0,.35.71,2.5,2.5,0,0,0,.87.67,3.63,3.63,0,0,0,1.6.29h3.84v1.06Z"/></g><g class="cls-2"><path d="M236.21,96.34v7.2h-1.33L230.29,99c-.17-.17-.36-.34-.55-.51a4.71,4.71,0,0,0-.61-.47,2.78,2.78,0,0,0-.67-.33,2,2,0,0,0-.73-.13,1.91,1.91,0,0,0-.84.17,1.68,1.68,0,0,0-.62.47,2.18,2.18,0,0,0-.39.7,2.66,2.66,0,0,0-.14.85,2.28,2.28,0,0,0,.48,1.47,2.17,2.17,0,0,0,1.3.79l-.13,1.21a3.14,3.14,0,0,1-2-1.16,3.51,3.51,0,0,1-.72-2.23,4.59,4.59,0,0,1,.18-1.3,3.29,3.29,0,0,1,.55-1.09,2.58,2.58,0,0,1,.92-.75,2.79,2.79,0,0,1,1.29-.28,3.29,3.29,0,0,1,1.2.2,4.46,4.46,0,0,1,1,.52,6.93,6.93,0,0,1,.92.72l.84.84,3.54,3.57v-6Z"/><path d="M229.74,92.34l0,0a2.06,2.06,0,0,1-.28-.73,3.69,3.69,0,0,1-.1-.84,3.63,3.63,0,0,1,.26-1.37,3.31,3.31,0,0,1,.73-1.09,3.25,3.25,0,0,1,1.11-.73,3.53,3.53,0,0,1,1.4-.27,3.48,3.48,0,0,1,1.43.28,3.15,3.15,0,0,1,1.1.76,3.49,3.49,0,0,1,.72,1.17,4.31,4.31,0,0,1,0,3,3.54,3.54,0,0,1-.72,1.16,3.17,3.17,0,0,1-1.1.77,3.64,3.64,0,0,1-1.43.27,4.33,4.33,0,0,1-1.64-.28,8.64,8.64,0,0,1-1.4-.69l-5-3.06V89.25Zm3.15,1.15a2.66,2.66,0,0,0,1-.18A2.31,2.31,0,0,0,235.17,92a3.18,3.18,0,0,0,0-2,2.29,2.29,0,0,0-.51-.8,2.38,2.38,0,0,0-.77-.52,2.84,2.84,0,0,0-2,0,2.28,2.28,0,0,0-.77.52,2.41,2.41,0,0,0-.5.8,3,3,0,0,0,0,2,2.52,2.52,0,0,0,.5.8,2.28,2.28,0,0,0,.77.52A2.64,2.64,0,0,0,232.89,93.49Z"/><path d="M229.74,83.44l0,0a2,2,0,0,1-.28-.73,3.69,3.69,0,0,1-.1-.84,3.58,3.58,0,0,1,.26-1.36,3.36,3.36,0,0,1,.73-1.1,3.4,3.4,0,0,1,1.11-.73,3.71,3.71,0,0,1,1.4-.26,3.64,3.64,0,0,1,1.43.27,3.17,3.17,0,0,1,1.1.77,3.49,3.49,0,0,1,.72,1.17,4,4,0,0,1,.26,1.47,4.13,4.13,0,0,1-.26,1.47,3.49,3.49,0,0,1-.72,1.17,3.31,3.31,0,0,1-1.1.77,3.64,3.64,0,0,1-1.43.27,4.54,4.54,0,0,1-1.64-.28,9.62,9.62,0,0,1-1.4-.7l-5-3V80.36Zm3.15,1.16a2.66,2.66,0,0,0,1-.19,2.23,2.23,0,0,0,.77-.52,2.29,2.29,0,0,0,.51-.8,3.18,3.18,0,0,0,0-2,2.38,2.38,0,0,0-.51-.8,2.55,2.55,0,0,0-.77-.52,2.84,2.84,0,0,0-2,0,2.43,2.43,0,0,0-.77.52,2.52,2.52,0,0,0-.5.8,3,3,0,0,0,0,2,2.41,2.41,0,0,0,.5.8,2.14,2.14,0,0,0,.77.52A2.64,2.64,0,0,0,232.89,84.6Z"/><path d="M224.69,73.17a3.19,3.19,0,0,1,.56-2A3.66,3.66,0,0,1,226.67,70a6.17,6.17,0,0,1,1.9-.56,13.58,13.58,0,0,1,2-.15,13.82,13.82,0,0,1,2,.15,6,6,0,0,1,1.89.56,3.77,3.77,0,0,1,1.43,1.16,3.75,3.75,0,0,1,0,3.94,3.89,3.89,0,0,1-1.43,1.17,6.6,6.6,0,0,1-1.89.56,15.36,15.36,0,0,1-2,.14,15.09,15.09,0,0,1-2-.14,6.77,6.77,0,0,1-1.9-.56,3.78,3.78,0,0,1-1.42-1.17A3.17,3.17,0,0,1,224.69,73.17Zm1.05,0a2.09,2.09,0,0,0,.5,1.47,3.17,3.17,0,0,0,1.23.8,6.09,6.09,0,0,0,1.57.35c.55,0,1.05.07,1.5.07s1,0,1.51-.07a6.11,6.11,0,0,0,1.56-.35,3.2,3.2,0,0,0,1.24-.8,2.09,2.09,0,0,0,.49-1.47,2,2,0,0,0-.49-1.46,3.11,3.11,0,0,0-1.24-.81,5.71,5.71,0,0,0-1.56-.34c-.56,0-1.06-.08-1.51-.08s-.95,0-1.5.08a5.7,5.7,0,0,0-1.57.34,3.08,3.08,0,0,0-1.23.81A2.05,2.05,0,0,0,225.74,73.17Z"/><path d="M230.38,63.12c-.28,0-.55,0-.83,0l-.83.05V62.07h1.13v0a2.62,2.62,0,0,1-1-1.07,3.05,3.05,0,0,1-.33-1.35,3.83,3.83,0,0,1,.06-.65,2.25,2.25,0,0,1,.23-.66,2,2,0,0,1,.47-.6,2.44,2.44,0,0,1,.79-.47,2.56,2.56,0,0,1-1.14-1,2.85,2.85,0,0,1-.41-1.45,2.73,2.73,0,0,1,.76-2.13,3.14,3.14,0,0,1,2.16-.68h4.76v1h-4.37a3.26,3.26,0,0,0-1.75.4,1.66,1.66,0,0,0-.6,1.49,1.84,1.84,0,0,0,.84,1.64,2.76,2.76,0,0,0,.88.36,4.74,4.74,0,0,0,1,.11h4v1.06h-4.37a3.17,3.17,0,0,0-1.75.4,1.65,1.65,0,0,0-.6,1.49,3.61,3.61,0,0,0,.06.44,1.73,1.73,0,0,0,.35.71,2.61,2.61,0,0,0,.87.66,3.48,3.48,0,0,0,1.6.3h3.84v1Z"/><path d="M230.38,49.49c-.28,0-.55,0-.83,0l-.83,0V48.44h1.13v0a2.53,2.53,0,0,1-1-1.06,3.05,3.05,0,0,1-.33-1.35,3.83,3.83,0,0,1,.06-.65,2.25,2.25,0,0,1,.23-.66,2,2,0,0,1,.47-.6,2.64,2.64,0,0,1,.79-.48,2.48,2.48,0,0,1-1.14-1,2.87,2.87,0,0,1-.41-1.45,2.73,2.73,0,0,1,.76-2.13,3.1,3.1,0,0,1,2.16-.69h4.76v1.06h-4.37a3.17,3.17,0,0,0-1.75.4,1.66,1.66,0,0,0-.6,1.49,1.84,1.84,0,0,0,.84,1.64,3,3,0,0,0,.88.36,4.74,4.74,0,0,0,1,.11h4v1.06h-4.37a3.17,3.17,0,0,0-1.75.4,1.64,1.64,0,0,0-.6,1.48,3.37,3.37,0,0,0,.06.44,1.71,1.71,0,0,0,.35.72,2.61,2.61,0,0,0,.87.66,3.48,3.48,0,0,0,1.6.3h3.84v1.05Z"/></g><line class="cls-3" x1="215.6" y1="217.23" x2="215.6" y2="101.44"/><line class="cls-3" x1="213.76" y1="101.4" x2="217.3" y2="101.4"/><line class="cls-3" x1="213.07" y1="217.23" x2="218.13" y2="217.23"/><line class="cls-3" x1="215.6" y1="101.4" x2="215.6" y2="46.69"/><line class="cls-3" x1="213.76" y1="46.68" x2="217.3" y2="46.68"/><line class="cls-3" x1="213.07" y1="101.4" x2="218.13" y2="101.4"/><g class="cls-2"><path d="M25.93,200.94v1.15H16l1.79,2-.86.72L14.6,202v-1Z"/><path d="M25.93,192v1.15H16l1.79,2-.86.72-2.37-2.88v-1Z"/><path d="M22.19,182.06v-1.64h1v1.64h2.69v1.15H23.24v4.89H21.93l-7.33-4.57v-1.47Zm-6.44,1.15v0l6.44,3.9v-3.93Z"/><path d="M14.41,175.37a3.24,3.24,0,0,1,.56-2,3.86,3.86,0,0,1,1.42-1.17,6.77,6.77,0,0,1,1.9-.56,14,14,0,0,1,3.95,0,6.77,6.77,0,0,1,1.9.56,3.86,3.86,0,0,1,1.42,1.17,3.75,3.75,0,0,1,0,3.94,3.74,3.74,0,0,1-1.42,1.16,6.17,6.17,0,0,1-1.9.56,13.08,13.08,0,0,1-3.95,0,6.17,6.17,0,0,1-1.9-.56A3.74,3.74,0,0,1,15,177.34,3.26,3.26,0,0,1,14.41,175.37Zm1.06,0a2.06,2.06,0,0,0,.49,1.46,3.08,3.08,0,0,0,1.23.81,5.78,5.78,0,0,0,1.57.34c.56.05,1.06.08,1.51.08s.94,0,1.5-.08a5.78,5.78,0,0,0,1.57-.34,3.08,3.08,0,0,0,1.23-.81,2.07,2.07,0,0,0,.5-1.46,2.09,2.09,0,0,0-.5-1.47,3.17,3.17,0,0,0-1.23-.8,5.79,5.79,0,0,0-1.57-.35c-.56-.05-1.06-.07-1.5-.07s-.95,0-1.51.07a5.79,5.79,0,0,0-1.57.35,3.17,3.17,0,0,0-1.23.8A2.09,2.09,0,0,0,15.47,175.37Z"/><path d="M20.11,169.77l-.84,0-.83.06v-1.14h1.14v0a2.47,2.47,0,0,1-1-1.06,3,3,0,0,1-.34-1.36,3.72,3.72,0,0,1,.06-.64,2.45,2.45,0,0,1,.24-.67,2.34,2.34,0,0,1,.47-.6,2.65,2.65,0,0,1,.78-.47,2.38,2.38,0,0,1-1.13-1,3.06,3.06,0,0,1,.34-3.57,3.12,3.12,0,0,1,2.17-.69h4.75v1.06H21.56a3.11,3.11,0,0,0-1.74.4,1.62,1.62,0,0,0-.61,1.48,2,2,0,0,0,.23,1,1.9,1.9,0,0,0,.62.64,2.42,2.42,0,0,0,.87.36,4.19,4.19,0,0,0,1,.12h4v1.05H21.56a3.2,3.2,0,0,0-1.74.4,1.64,1.64,0,0,0-.61,1.49,3.61,3.61,0,0,0,.06.44,1.65,1.65,0,0,0,.36.71,2.55,2.55,0,0,0,.86.67,3.66,3.66,0,0,0,1.6.29h3.84v1.06Z"/><path d="M20.11,156.14c-.28,0-.56,0-.84,0l-.83.06v-1.14h1.14v0a2.44,2.44,0,0,1-1-1.07,2.94,2.94,0,0,1-.34-1.35,3.83,3.83,0,0,1,.06-.65,2.28,2.28,0,0,1,.24-.66,2.34,2.34,0,0,1,.47-.6,2.45,2.45,0,0,1,.78-.47,2.38,2.38,0,0,1-1.13-1,2.74,2.74,0,0,1-.42-1.45,2.7,2.7,0,0,1,.76-2.12,3.12,3.12,0,0,1,2.17-.69h4.75V146H21.56a3.2,3.2,0,0,0-1.74.4,1.65,1.65,0,0,0-.61,1.49,2,2,0,0,0,.23,1,1.84,1.84,0,0,0,.62.65,2.42,2.42,0,0,0,.87.36,4.2,4.2,0,0,0,1,.11h4v1.06H21.56a3.11,3.11,0,0,0-1.74.4,1.64,1.64,0,0,0-.61,1.49,3.61,3.61,0,0,0,.06.44,1.71,1.71,0,0,0,.36.71,2.42,2.42,0,0,0,.86.66,3.51,3.51,0,0,0,1.6.3h3.84v1.06Z"/></g><line class="cls-3" x1="35.44" y1="216.95" x2="35.44" y2="134.05"/><line class="cls-3" x1="35.28" y1="216.95" x2="35.61" y2="216.95"/><line class="cls-3" x1="35.28" y1="134.05" x2="35.61" y2="134.05"/><line class="cls-3" x1="33.98" y1="216.95" x2="36.9" y2="216.95"/><line class="cls-3" x1="33.98" y1="134.05" x2="36.9" y2="134.05"/><g class="cls-2"><path d="M34.53,241.13h.59a3.69,3.69,0,0,0,1-.11,2,2,0,0,0,.79-.36,1.64,1.64,0,0,0,.54-.65,2.13,2.13,0,0,0,.2-1,1.79,1.79,0,0,0-.55-1.41,2.19,2.19,0,0,0-1.55-.51,2.46,2.46,0,0,0-1.26.32,2.68,2.68,0,0,0-.9.93l-1-.51a3.33,3.33,0,0,1,1.3-1.35,3.65,3.65,0,0,1,1.83-.44,4.07,4.07,0,0,1,1.27.19,3.18,3.18,0,0,1,1,.57,2.81,2.81,0,0,1,.71.92,3,3,0,0,1,.26,1.26,2.58,2.58,0,0,1-.15.88,2.5,2.5,0,0,1-.42.75,2.76,2.76,0,0,1-1.35,1l.05,0a2.72,2.72,0,0,1,.88.36,2.85,2.85,0,0,1,.69.65,3.26,3.26,0,0,1,.45.87,3.32,3.32,0,0,1,.16,1,3.27,3.27,0,0,1-.29,1.4,3,3,0,0,1-.79,1,3.3,3.3,0,0,1-1.15.63,4.22,4.22,0,0,1-1.39.22,4.27,4.27,0,0,1-2.18-.54,3.4,3.4,0,0,1-1.39-1.75l1.22-.37a2.37,2.37,0,0,0,.85,1.21,2.8,2.8,0,0,0,1.6.39,2.53,2.53,0,0,0,.91-.16,2.32,2.32,0,0,0,.76-.45,2.05,2.05,0,0,0,.51-.72,2.24,2.24,0,0,0,.18-.91,2.27,2.27,0,0,0-.24-1.08,2,2,0,0,0-.64-.71,2.64,2.64,0,0,0-.92-.39,4.7,4.7,0,0,0-1.08-.12h-.49Z"/><path d="M43.42,241.13H44A3.74,3.74,0,0,0,45,241a2,2,0,0,0,.79-.36,1.83,1.83,0,0,0,.54-.65,2.13,2.13,0,0,0,.2-1,1.79,1.79,0,0,0-.56-1.41,2.17,2.17,0,0,0-1.54-.51,2.46,2.46,0,0,0-1.26.32,2.59,2.59,0,0,0-.9.93l-1-.51a3.35,3.35,0,0,1,1.31-1.35,3.62,3.62,0,0,1,1.83-.44,4,4,0,0,1,1.26.19,3.09,3.09,0,0,1,1,.57,2.68,2.68,0,0,1,.71.92,2.84,2.84,0,0,1,.27,1.26,2.58,2.58,0,0,1-.15.88,2.5,2.5,0,0,1-.42.75,2.89,2.89,0,0,1-.62.59,2.79,2.79,0,0,1-.73.37l.05,0a2.72,2.72,0,0,1,.88.36,3,3,0,0,1,.68.65,2.77,2.77,0,0,1,.45.87,3,3,0,0,1,.16,1,3.13,3.13,0,0,1-.29,1.4,3,3,0,0,1-.78,1,3.3,3.3,0,0,1-1.15.63,4.6,4.6,0,0,1-3.57-.32,3.35,3.35,0,0,1-1.39-1.75l1.21-.37a2.38,2.38,0,0,0,.86,1.21,2.79,2.79,0,0,0,1.59.39,2.49,2.49,0,0,0,.91-.16,2.14,2.14,0,0,0,1.46-2.08,2.27,2.27,0,0,0-.24-1.08,2,2,0,0,0-.64-.71,2.72,2.72,0,0,0-.92-.39,4.83,4.83,0,0,0-1.08-.12h-.5Z"/><path d="M53.5,236.08a3.17,3.17,0,0,1,2,.56,3.78,3.78,0,0,1,1.17,1.42,6.45,6.45,0,0,1,.56,1.9,13.53,13.53,0,0,1,.14,2,13.76,13.76,0,0,1-.14,2,6.3,6.3,0,0,1-.56,1.89,3.81,3.81,0,0,1-1.17,1.43,3.73,3.73,0,0,1-3.93,0,3.81,3.81,0,0,1-1.17-1.43,6,6,0,0,1-.56-1.89,13.82,13.82,0,0,1-.15-2,13.58,13.58,0,0,1,.15-2,6.17,6.17,0,0,1,.56-1.9,3.78,3.78,0,0,1,1.17-1.42A3.14,3.14,0,0,1,53.5,236.08Zm0,1a2.09,2.09,0,0,0-1.46.5,3.08,3.08,0,0,0-.81,1.23,6.09,6.09,0,0,0-.34,1.57c0,.55-.07,1-.07,1.5s0,.95.07,1.51a6.1,6.1,0,0,0,.34,1.56,3,3,0,0,0,.81,1.24,2.44,2.44,0,0,0,2.93,0,3,3,0,0,0,.81-1.24,6.1,6.1,0,0,0,.34-1.56c.05-.56.07-1.06.07-1.51s0-1-.07-1.5a6.09,6.09,0,0,0-.34-1.57,3.08,3.08,0,0,0-.81-1.23A2.09,2.09,0,0,0,53.5,237.13Z"/><path d="M63.55,241.77c0-.27,0-.55,0-.83l-.06-.83h1.14v1.14h0a2.55,2.55,0,0,1,1.06-1,3.12,3.12,0,0,1,1.36-.33,3.63,3.63,0,0,1,.64.06,2.42,2.42,0,0,1,.67.23,2.34,2.34,0,0,1,.6.47,2.85,2.85,0,0,1,.47.79,2.45,2.45,0,0,1,1-1.14,2.81,2.81,0,0,1,1.44-.41,2.73,2.73,0,0,1,2.13.76,3.1,3.1,0,0,1,.69,2.16v4.76H73.66v-4.37a3.17,3.17,0,0,0-.4-1.75,1.64,1.64,0,0,0-1.48-.6,1.92,1.92,0,0,0-1,.23,1.87,1.87,0,0,0-.64.61,2.55,2.55,0,0,0-.36.88,4.17,4.17,0,0,0-.12,1v4h-1v-4.37a3.17,3.17,0,0,0-.4-1.75,1.66,1.66,0,0,0-1.49-.6l-.44.06a1.62,1.62,0,0,0-.71.35,2.5,2.5,0,0,0-.67.87,3.63,3.63,0,0,0-.29,1.6v3.84H63.55Z"/><path d="M77.18,241.77c0-.27,0-.55,0-.83s0-.55-.06-.83h1.14v1.14h0a2.52,2.52,0,0,1,1.07-1,3.05,3.05,0,0,1,1.35-.33,3.83,3.83,0,0,1,.65.06,2.25,2.25,0,0,1,.66.23,2.34,2.34,0,0,1,.6.47,2.63,2.63,0,0,1,.47.79,2.5,2.5,0,0,1,1-1.14,2.82,2.82,0,0,1,1.45-.41,2.69,2.69,0,0,1,2.12.76,3.1,3.1,0,0,1,.69,2.16v4.76h-1v-4.37a3.26,3.26,0,0,0-.4-1.75,1.67,1.67,0,0,0-1.49-.6,1.86,1.86,0,0,0-1,.23,1.81,1.81,0,0,0-.65.61,2.55,2.55,0,0,0-.36.88,4.17,4.17,0,0,0-.11,1v4H82.24v-4.37a3.17,3.17,0,0,0-.4-1.75,1.66,1.66,0,0,0-1.49-.6l-.44.06a1.67,1.67,0,0,0-.71.35,2.37,2.37,0,0,0-.66.87,3.48,3.48,0,0,0-.3,1.6v3.84H77.18Z"/></g><line class="cls-3" x1="45.69" y1="226.88" x2="70.02" y2="226.88"/><line class="cls-3" x1="45.69" y1="226.71" x2="45.69" y2="227.05"/><line class="cls-3" x1="70.02" y1="226.71" x2="70.02" y2="227.05"/><line class="cls-3" x1="45.69" y1="225.42" x2="45.69" y2="228.34"/><line class="cls-3" x1="70.02" y1="225.42" x2="70.02" y2="228.34"/></svg>