<svg id="fucsia_1" data-name="fucsia 1" xmlns="http://www.w3.org/2000/svg" viewBox="0 0 300 263"><defs><style>.cls-1{isolation:isolate;}.cls-2,.cls-3{fill:none;}.cls-2{stroke:#000;stroke-width:0.5px;}.cls-3{stroke:#1d1d1b;stroke-miterlimit:3.86;stroke-width:0.4px;}</style></defs><title>fucsia-1-suspension-castiglioni-flos-F2410000-spech-tech-02-300x263</title><g class="cls-1"><path d="M99.5,197.86v-.59a4.35,4.35,0,0,0-.11-1,2.48,2.48,0,0,0-.36-.79,1.79,1.79,0,0,0-.65-.53,2.06,2.06,0,0,0-1-.2,1.82,1.82,0,0,0-1.42.55,2.23,2.23,0,0,0-.5,1.54,2.52,2.52,0,0,0,.32,1.27,2.42,2.42,0,0,0,.93.89l-.51,1a3.49,3.49,0,0,1-1.36-1.3,3.76,3.76,0,0,1-.44-1.84,4,4,0,0,1,.2-1.26,3,3,0,0,1,.56-1,2.62,2.62,0,0,1,.93-.71,2.84,2.84,0,0,1,1.26-.27,2.59,2.59,0,0,1,.88.16,2.69,2.69,0,0,1,1.33,1,2.83,2.83,0,0,1,.38.73l0,0a2.64,2.64,0,0,1,.36-.88,2.67,2.67,0,0,1,.65-.69,3.06,3.06,0,0,1,.86-.45,3.1,3.1,0,0,1,1-.16,3.23,3.23,0,0,1,1.39.29,3,3,0,0,1,1,.78,3.57,3.57,0,0,1,.63,1.15,4.61,4.61,0,0,1,.22,1.4,4.24,4.24,0,0,1-.55,2.17,3.24,3.24,0,0,1-1.74,1.39l-.37-1.21a2.37,2.37,0,0,0,1.21-.86,2.79,2.79,0,0,0,.39-1.59,2.53,2.53,0,0,0-.16-.91,2.34,2.34,0,0,0-.46-.76,1.93,1.93,0,0,0-.71-.51,2.12,2.12,0,0,0-.91-.19,2.21,2.21,0,0,0-1.08.24,2.09,2.09,0,0,0-.71.64,2.81,2.81,0,0,0-.39.92,4.83,4.83,0,0,0-.12,1.08v.5Z"/><path d="M95.69,184.79v4.62l3.41.08a3.51,3.51,0,0,1-.21-.75,5,5,0,0,1-.06-.77,3.83,3.83,0,0,1,.27-1.46,3.22,3.22,0,0,1,.76-1.12,3.55,3.55,0,0,1,1.15-.74,3.82,3.82,0,0,1,1.45-.26,3.89,3.89,0,0,1,1.5.28,3.54,3.54,0,0,1,1.16.8,3.7,3.7,0,0,1,.76,1.21,4.18,4.18,0,0,1,.28,1.51,3.75,3.75,0,0,1-.52,1.94,3.31,3.31,0,0,1-1.5,1.33l-.5-1.15a2.63,2.63,0,0,0,1.07-.9,2.28,2.28,0,0,0,.39-1.32,2.6,2.6,0,0,0-.2-1,2.57,2.57,0,0,0-.54-.8,2.52,2.52,0,0,0-1.79-.74,2.79,2.79,0,0,0-1.09.21,2.49,2.49,0,0,0-.85.57,2.43,2.43,0,0,0-.55.88,3.14,3.14,0,0,0-.2,1.12,4.53,4.53,0,0,0,.17,1.21,5.14,5.14,0,0,0,.46,1.14l-5.87-.11v-5.77Z"/><path d="M95.69,175.89v4.62l3.41.08a3.21,3.21,0,0,1-.21-.75,4.9,4.9,0,0,1-.06-.77,3.78,3.78,0,0,1,.27-1.45,3.17,3.17,0,0,1,.76-1.13,3.72,3.72,0,0,1,1.15-.74,4,4,0,0,1,1.45-.26,3.89,3.89,0,0,1,1.5.29,3.39,3.39,0,0,1,1.16.8,3.51,3.51,0,0,1,.76,1.21,4.1,4.1,0,0,1,.28,1.51,3.72,3.72,0,0,1-.52,1.93,3.31,3.31,0,0,1-1.5,1.33l-.5-1.15a2.61,2.61,0,0,0,1.07-.89,2.34,2.34,0,0,0,.39-1.33,2.55,2.55,0,0,0-.2-1,2.51,2.51,0,0,0-1.34-1.35,2.54,2.54,0,0,0-1-.2,2.79,2.79,0,0,0-1.09.21,2.52,2.52,0,0,0-.85.58,2.27,2.27,0,0,0-.55.88,3.1,3.1,0,0,0-.2,1.12,4.52,4.52,0,0,0,.17,1.2,5.21,5.21,0,0,0,.46,1.15l-5.87-.11v-5.78Z"/><path d="M100.14,168.83c-.28,0-.56,0-.83,0l-.83,0v-1.13h1.13v0a2.44,2.44,0,0,1-1-1.07,3.07,3.07,0,0,1-.34-1.35,3.9,3.9,0,0,1,.07-.65,2.25,2.25,0,0,1,.23-.66,2.18,2.18,0,0,1,.47-.6,2.33,2.33,0,0,1,.79-.47,2.51,2.51,0,0,1-1.14-1,3.07,3.07,0,0,1,.34-3.58,3.17,3.17,0,0,1,2.17-.68H106v1.05H101.6a3.26,3.26,0,0,0-1.75.4,1.67,1.67,0,0,0-.61,1.49,1.87,1.87,0,0,0,.85,1.64,2.58,2.58,0,0,0,.87.36,4.31,4.31,0,0,0,1,.11h4v1.06H101.6a3.17,3.17,0,0,0-1.75.4,1.67,1.67,0,0,0-.61,1.49c0,.06,0,.21.07.44a1.67,1.67,0,0,0,.35.71,2.53,2.53,0,0,0,.86.66,3.53,3.53,0,0,0,1.6.3H106v1.05Z"/><path d="M100.14,155.2c-.28,0-.56,0-.83,0l-.83.05v-1.13h1.13v0a2.41,2.41,0,0,1-1-1.06,3.07,3.07,0,0,1-.34-1.35,3.9,3.9,0,0,1,.07-.65,2.25,2.25,0,0,1,.23-.66,2,2,0,0,1,.47-.6,2.52,2.52,0,0,1,.79-.48,2.43,2.43,0,0,1-1.14-1,3.07,3.07,0,0,1,.34-3.58,3.12,3.12,0,0,1,2.17-.68H106v1.05H101.6a3.17,3.17,0,0,0-1.75.4,1.67,1.67,0,0,0-.61,1.49,1.87,1.87,0,0,0,.85,1.64,3.07,3.07,0,0,0,.87.36,4.9,4.9,0,0,0,1,.11h4v1.06H101.6a3.17,3.17,0,0,0-1.75.4,1.65,1.65,0,0,0-.61,1.49,4.23,4.23,0,0,0,.07.43,1.71,1.71,0,0,0,.35.72,2.67,2.67,0,0,0,.86.66,3.53,3.53,0,0,0,1.6.3H106v1Z"/></g><g class="cls-1"><path d="M106,114.88v7.2h-1.32l-4.6-4.52-.54-.51a5.41,5.41,0,0,0-.61-.46,3.52,3.52,0,0,0-.67-.34,2.3,2.3,0,0,0-.74-.13,2,2,0,0,0-.83.17,1.79,1.79,0,0,0-.62.47,2.23,2.23,0,0,0-.39.71,2.37,2.37,0,0,0-.14.85,2.32,2.32,0,0,0,.48,1.47,2.21,2.21,0,0,0,1.29.78l-.12,1.22a3.21,3.21,0,0,1-2-1.16,3.53,3.53,0,0,1-.72-2.23,4.32,4.32,0,0,1,.19-1.31,3.2,3.2,0,0,1,.55-1.09,2.81,2.81,0,0,1,.92-.75,2.92,2.92,0,0,1,1.29-.28,3.55,3.55,0,0,1,1.2.2,5.44,5.44,0,0,1,1,.52,7.1,7.1,0,0,1,.91.73c.29.27.57.55.85.84l3.54,3.57v-6Z"/><path d="M99.5,110.88l0,0a2,2,0,0,1-.29-.72,4.46,4.46,0,0,1-.09-.84,3.63,3.63,0,0,1,.26-1.37,3.33,3.33,0,0,1,1.83-1.83,3.8,3.8,0,0,1,1.41-.26,3.68,3.68,0,0,1,1.43.27,3.27,3.27,0,0,1,1.1.77,3.49,3.49,0,0,1,.72,1.17,4.29,4.29,0,0,1,0,2.94,3.49,3.49,0,0,1-.72,1.17,3.27,3.27,0,0,1-1.1.77,3.68,3.68,0,0,1-1.43.27,4.39,4.39,0,0,1-1.65-.28,9.53,9.53,0,0,1-1.39-.7l-5-3v-1.36Zm3.15,1.15a2.43,2.43,0,0,0,1-.19,2.18,2.18,0,0,0,.78-.52,2.13,2.13,0,0,0,.5-.8,3,3,0,0,0,0-2,2.13,2.13,0,0,0-.5-.8,2.18,2.18,0,0,0-.78-.52,2.43,2.43,0,0,0-1-.19,2.46,2.46,0,0,0-1,.19,2.06,2.06,0,0,0-.77.52,2.41,2.41,0,0,0-.5.8,2.83,2.83,0,0,0,0,2,2.41,2.41,0,0,0,.5.8,2.06,2.06,0,0,0,.77.52A2.46,2.46,0,0,0,102.65,112Z"/><path d="M99.5,102l0,0a2.06,2.06,0,0,1-.29-.73,4.3,4.3,0,0,1-.09-.84A3.63,3.63,0,0,1,99.41,99a3.42,3.42,0,0,1,.73-1.09,3.31,3.31,0,0,1,1.1-.73,3.62,3.62,0,0,1,1.41-.27,3.51,3.51,0,0,1,1.43.28,3.24,3.24,0,0,1,1.1.76,3.49,3.49,0,0,1,.72,1.17,4.31,4.31,0,0,1,0,3,3.54,3.54,0,0,1-.72,1.16,3.27,3.27,0,0,1-1.1.77,3.68,3.68,0,0,1-1.43.27A4.39,4.39,0,0,1,101,104a8.55,8.55,0,0,1-1.39-.69l-5-3.06V98.89Zm3.15,1.15a2.61,2.61,0,0,0,1-.18,2.32,2.32,0,0,0,.78-.52,2.21,2.21,0,0,0,.5-.8,3,3,0,0,0,0-2,2.13,2.13,0,0,0-.5-.8,2.32,2.32,0,0,0-.78-.52,2.61,2.61,0,0,0-1-.18,2.64,2.64,0,0,0-1,.18,2.18,2.18,0,0,0-.77.52,2.41,2.41,0,0,0-.5.8,2.86,2.86,0,0,0,0,2,2.52,2.52,0,0,0,.5.8,2.18,2.18,0,0,0,.77.52A2.64,2.64,0,0,0,102.65,103.13Z"/><path d="M94.44,91.71a3.24,3.24,0,0,1,.56-2,3.89,3.89,0,0,1,1.43-1.17A6.39,6.39,0,0,1,98.32,88a15.36,15.36,0,0,1,2-.14,15.09,15.09,0,0,1,2,.14,6.37,6.37,0,0,1,1.9.56,3.89,3.89,0,0,1,1.43,1.17,3.75,3.75,0,0,1,0,3.94,3.77,3.77,0,0,1-1.43,1.16,6.09,6.09,0,0,1-1.9.56,13.58,13.58,0,0,1-2,.15,13.82,13.82,0,0,1-2-.15,6.11,6.11,0,0,1-1.89-.56A3.77,3.77,0,0,1,95,93.68,3.26,3.26,0,0,1,94.44,91.71Zm1.06,0a2,2,0,0,0,.5,1.46,3.08,3.08,0,0,0,1.23.81,5.7,5.7,0,0,0,1.57.34c.55.05,1,.08,1.5.08s1,0,1.5-.08a5.7,5.7,0,0,0,1.57-.34,3.08,3.08,0,0,0,1.23-.81,2.07,2.07,0,0,0,.5-1.46,2.09,2.09,0,0,0-.5-1.47,3.17,3.17,0,0,0-1.23-.8,5.71,5.71,0,0,0-1.57-.35c-.55,0-1-.07-1.5-.07s-1,0-1.5.07a5.71,5.71,0,0,0-1.57.35,3.17,3.17,0,0,0-1.23.8A2,2,0,0,0,95.5,91.71Z"/><path d="M100.14,81.66l-.83,0-.83.06V80.6h1.13v0a2.41,2.41,0,0,1-1-1.06,3.13,3.13,0,0,1-.34-1.35,3.79,3.79,0,0,1,.07-.65,2.42,2.42,0,0,1,.23-.67,2.34,2.34,0,0,1,.47-.6,2.71,2.71,0,0,1,.79-.47,2.43,2.43,0,0,1-1.14-1A3.07,3.07,0,0,1,99,71.18a3.12,3.12,0,0,1,2.17-.69H106v1.06H101.6a3.17,3.17,0,0,0-1.75.4,1.65,1.65,0,0,0-.61,1.49,1.91,1.91,0,0,0,.24,1,2,2,0,0,0,.61.65,3.07,3.07,0,0,0,.87.36,4.9,4.9,0,0,0,1,.11h4v1H101.6a3.26,3.26,0,0,0-1.75.4,1.68,1.68,0,0,0-.61,1.49,4.26,4.26,0,0,0,.07.44,1.62,1.62,0,0,0,.35.71,2.55,2.55,0,0,0,.86.67,3.69,3.69,0,0,0,1.6.29H106v1.06Z"/><path d="M100.14,68l-.83,0-.83.06V67h1.13v0a2.47,2.47,0,0,1-1-1.06,3.14,3.14,0,0,1-.34-1.36,3.68,3.68,0,0,1,.07-.64,2.42,2.42,0,0,1,.23-.67,2.34,2.34,0,0,1,.47-.6,2.71,2.71,0,0,1,.79-.47,2.4,2.4,0,0,1-1.14-1,2.73,2.73,0,0,1-.42-1.44A2.76,2.76,0,0,1,99,57.55a3.12,3.12,0,0,1,2.17-.69H106v1.06H101.6a3.17,3.17,0,0,0-1.75.4,1.65,1.65,0,0,0-.61,1.48,1.92,1.92,0,0,0,.24,1,1.87,1.87,0,0,0,.61.64,2.58,2.58,0,0,0,.87.36,4.31,4.31,0,0,0,1,.12h4v1H101.6a3.17,3.17,0,0,0-1.75.4,1.67,1.67,0,0,0-.61,1.49c0,.06,0,.21.07.44a1.62,1.62,0,0,0,.35.71,2.55,2.55,0,0,0,.86.67,3.69,3.69,0,0,0,1.6.29H106V68Z"/></g><g class="cls-1"><path d="M121.25,242.15a3.72,3.72,0,0,1,.69,1.16,4.42,4.42,0,0,1,0,3,3.7,3.7,0,0,1-.83,1.25,3.85,3.85,0,0,1-1.25.83,4.39,4.39,0,0,1-1.61.29,4.15,4.15,0,0,1-1.4-.22,3.72,3.72,0,0,1-1.11-.61L114.62,249l-.52-.5,1.06-1.09a3.62,3.62,0,0,1-.69-1.17,4.23,4.23,0,0,1-.24-1.44,4,4,0,0,1,.3-1.56,3.67,3.67,0,0,1,.82-1.25,3.62,3.62,0,0,1,1.26-.82,4.09,4.09,0,0,1,1.59-.3,4.18,4.18,0,0,1,1.39.22,3.63,3.63,0,0,1,1.15.61l1.06-1.09.51.5Zm-1.24.25a2.7,2.7,0,0,0-1.81-.62A3,3,0,0,0,117,242a2.82,2.82,0,0,0-.88.63,3,3,0,0,0-.56,1,3.41,3.41,0,0,0-.2,1.16,3,3,0,0,0,.55,1.83Zm-3.6,4.72a2.51,2.51,0,0,0,.8.45,2.86,2.86,0,0,0,1,.16,3,3,0,0,0,1.18-.23,2.82,2.82,0,0,0,.88-.63,2.68,2.68,0,0,0,.57-1,3.42,3.42,0,0,0,.2-1.17,3.13,3.13,0,0,0-.54-1.82Z"/><path d="M133,248.5h-1.16v-9.89l-2,1.79-.72-.86,2.88-2.37h1Z"/><path d="M139.37,242l0,0a1.83,1.83,0,0,1,.73-.29,3.69,3.69,0,0,1,.84-.1,3.4,3.4,0,0,1,1.36.27,3.33,3.33,0,0,1,1.1.72,3.4,3.4,0,0,1,.73,1.11,3.77,3.77,0,0,1,.26,1.41,3.63,3.63,0,0,1-.27,1.42,3.08,3.08,0,0,1-.77,1.1,3.49,3.49,0,0,1-1.17.72,3.85,3.85,0,0,1-1.47.26,3.92,3.92,0,0,1-1.47-.26,3.49,3.49,0,0,1-1.17-.72,3.21,3.21,0,0,1-.77-1.1,3.63,3.63,0,0,1-.27-1.42,4.6,4.6,0,0,1,.28-1.65,9.53,9.53,0,0,1,.7-1.39l3.05-5h1.37Zm-1.16,3.15a2.64,2.64,0,0,0,.19,1,2.18,2.18,0,0,0,.52.78,2.41,2.41,0,0,0,.8.5,3.18,3.18,0,0,0,2.05,0,2.52,2.52,0,0,0,.8-.5,2.48,2.48,0,0,0,.52-.78,2.64,2.64,0,0,0,.18-1,2.57,2.57,0,0,0-.18-1,2.33,2.33,0,0,0-.52-.77,2.55,2.55,0,0,0-.8-.51,3,3,0,0,0-2.05,0,2.44,2.44,0,0,0-.8.51,2.06,2.06,0,0,0-.52.77A2.57,2.57,0,0,0,138.21,245.19Z"/><path d="M149.64,237a3.24,3.24,0,0,1,2,.56,3.74,3.74,0,0,1,1.16,1.42,6.17,6.17,0,0,1,.56,1.9,13.08,13.08,0,0,1,0,3.95,6.17,6.17,0,0,1-.56,1.9,3.74,3.74,0,0,1-1.16,1.42,3.75,3.75,0,0,1-3.94,0,3.86,3.86,0,0,1-1.17-1.42,6.77,6.77,0,0,1-.56-1.9,14,14,0,0,1,0-3.95,6.77,6.77,0,0,1,.56-1.9,3.86,3.86,0,0,1,1.17-1.42A3.24,3.24,0,0,1,149.64,237Zm0,1.06a2.09,2.09,0,0,0-1.47.49,3.17,3.17,0,0,0-.8,1.23,6.19,6.19,0,0,0-.35,1.57c-.05.56-.07,1.06-.07,1.5s0,.95.07,1.51a6.19,6.19,0,0,0,.35,1.57,3.17,3.17,0,0,0,.8,1.23,2.09,2.09,0,0,0,1.47.49,2,2,0,0,0,1.46-.49,3.08,3.08,0,0,0,.81-1.23,5.78,5.78,0,0,0,.34-1.57c.05-.56.08-1.06.08-1.51s0-.94-.08-1.5a5.78,5.78,0,0,0-.34-1.57,3.08,3.08,0,0,0-.81-1.23A2,2,0,0,0,149.64,238Z"/><path d="M159.69,242.67c0-.27,0-.55,0-.83s0-.55,0-.83h1.13v1.14h0a2.44,2.44,0,0,1,1.07-1,2.94,2.94,0,0,1,1.35-.34,3.83,3.83,0,0,1,.65.06,2.28,2.28,0,0,1,.66.24,1.89,1.89,0,0,1,.6.47,2.28,2.28,0,0,1,.47.78,2.48,2.48,0,0,1,1-1.13,2.76,2.76,0,0,1,1.45-.42,2.73,2.73,0,0,1,2.13.76,3.17,3.17,0,0,1,.68,2.17v4.75h-1v-4.37a3.11,3.11,0,0,0-.4-1.74,1.64,1.64,0,0,0-1.49-.61,2,2,0,0,0-1,.23,1.93,1.93,0,0,0-.65.62,2.62,2.62,0,0,0-.36.87,4.74,4.74,0,0,0-.11,1v4h-1.06v-4.37a3.11,3.11,0,0,0-.4-1.74,1.63,1.63,0,0,0-1.49-.61l-.44.06a1.71,1.71,0,0,0-.71.36,2.56,2.56,0,0,0-.66.86,3.51,3.51,0,0,0-.3,1.6v3.84h-1.05Z"/><path d="M173.32,242.67c0-.27,0-.55,0-.83s0-.55,0-.83h1.13v1.14h0a2.41,2.41,0,0,1,1.06-1,2.94,2.94,0,0,1,1.35-.34,3.83,3.83,0,0,1,.65.06,2.28,2.28,0,0,1,.66.24,1.89,1.89,0,0,1,.6.47,2.47,2.47,0,0,1,.48.78,2.41,2.41,0,0,1,1-1.13,2.79,2.79,0,0,1,1.45-.42,2.73,2.73,0,0,1,2.13.76,3.12,3.12,0,0,1,.69,2.17v4.75h-1.06v-4.37a3.11,3.11,0,0,0-.4-1.74,1.64,1.64,0,0,0-1.49-.61,2,2,0,0,0-1,.23,1.93,1.93,0,0,0-.65.62,2.84,2.84,0,0,0-.36.87,4.74,4.74,0,0,0-.11,1v4h-1.06v-4.37a3.11,3.11,0,0,0-.4-1.74,1.62,1.62,0,0,0-1.48-.61l-.44.06a1.74,1.74,0,0,0-.72.36,2.56,2.56,0,0,0-.66.86,3.51,3.51,0,0,0-.3,1.6v3.84h-1.05Z"/></g><line class="cls-2" x1="116.86" y1="217.23" x2="116.86" y2="130.98"/><line class="cls-2" x1="115.01" y1="130.95" x2="118.56" y2="130.95"/><line class="cls-2" x1="114.33" y1="217.23" x2="119.38" y2="217.23"/><line class="cls-2" x1="116.86" y1="130.95" x2="116.86" y2="47.39"/><line class="cls-2" x1="115.01" y1="47.37" x2="118.56" y2="47.37"/><line class="cls-2" x1="114.33" y1="130.95" x2="119.38" y2="130.95"/><line class="cls-2" x1="129.24" y1="227" x2="170.76" y2="227"/><line class="cls-2" x1="129.24" y1="226.92" x2="129.24" y2="227.08"/><line class="cls-2" x1="170.76" y1="226.92" x2="170.76" y2="227.08"/><line class="cls-2" x1="129.24" y1="226.28" x2="129.24" y2="227.72"/><line class="cls-2" x1="170.76" y1="226.28" x2="170.76" y2="227.72"/><path class="cls-3" d="M170.76,217.55,150,120.66Z"/><line class="cls-3" x1="150" y1="122.04" x2="150" y2="47.37"/><polygon class="cls-3" points="150 120.66 129.24 217.55 170.76 217.55 150 120.66"/><path class="cls-3" d="M129.24,213.4h41.52m-41.52-.69h41.52"/></svg>