<svg id="Gaku_Wireless" data-name="Gaku Wireless" xmlns="http://www.w3.org/2000/svg" xmlns:xlink="http://www.w3.org/1999/xlink" viewBox="0 0 300 263"><defs><style>.cls-1,.cls-2,.cls-6{fill:none;}.cls-2,.cls-6{stroke:#2b2b2a;stroke-width:0.5px;}.cls-2{stroke-miterlimit:10;}.cls-3{clip-path:url(#clip-path);}.cls-4{fill:#2b2b2a;}.cls-5{clip-path:url(#clip-path-2);}.cls-6{stroke-linecap:round;stroke-linejoin:round;}</style><clipPath id="clip-path"><rect class="cls-1" x="9.56" y="47.18" width="282.29" height="195.05"/></clipPath><clipPath id="clip-path-2"><rect class="cls-1" x="26.32" y="47.18" width="265.54" height="168.93"/></clipPath></defs><title>gaku-wireless-table-nendo-flos-F25200-spech-tech-01-300x263-01</title><line class="cls-2" x1="124.05" y1="223.54" x2="291.66" y2="223.54"/><line class="cls-2" x1="124.05" y1="222.75" x2="124.05" y2="224.33"/><line class="cls-2" x1="291.66" y1="222.75" x2="291.66" y2="224.33"/><g class="cls-3"><line class="cls-2" x1="18.9" y1="215.46" x2="18.9" y2="47.46"/></g><line class="cls-2" x1="18.11" y1="215.46" x2="19.69" y2="215.46"/><line class="cls-2" x1="18.11" y1="47.46" x2="19.69" y2="47.46"/><path class="cls-4" d="M8.32,155.05v-.59a3.69,3.69,0,0,0-.11-1,2.09,2.09,0,0,0-.36-.8,1.71,1.71,0,0,0-.65-.53,2,2,0,0,0-1-.2,1.8,1.8,0,0,0-1.41.55,2.18,2.18,0,0,0-.51,1.54,2.52,2.52,0,0,0,.32,1.27,2.57,2.57,0,0,0,.93.89l-.51,1a3.33,3.33,0,0,1-1.35-1.3,3.65,3.65,0,0,1-.44-1.83,4.07,4.07,0,0,1,.19-1.27,3.18,3.18,0,0,1,.57-1,2.76,2.76,0,0,1,2.18-1,2.58,2.58,0,0,1,.88.15,2.72,2.72,0,0,1,.75.41,3.15,3.15,0,0,1,.59.62,2.7,2.7,0,0,1,.37.74l0-.05a2.28,2.28,0,0,1,.36-.88,2.63,2.63,0,0,1,.64-.69,3.26,3.26,0,0,1,.87-.45,3.34,3.34,0,0,1,1-.16,3.26,3.26,0,0,1,1.39.29,3,3,0,0,1,1,.78,3.34,3.34,0,0,1,.63,1.16,4.58,4.58,0,0,1-.32,3.56,3.37,3.37,0,0,1-1.75,1.4l-.37-1.22a2.33,2.33,0,0,0,1.21-.86,2.79,2.79,0,0,0,.39-1.59,2.53,2.53,0,0,0-.16-.91,2.32,2.32,0,0,0-.45-.76,2.11,2.11,0,0,0-.71-.51,2.33,2.33,0,0,0-.92-.19,2.27,2.27,0,0,0-1.08.24,2.09,2.09,0,0,0-.71.64,2.81,2.81,0,0,0-.39.92,4.83,4.83,0,0,0-.12,1.08v.5Z"/><path class="cls-4" d="M4.52,141.5v4.62l3.4.08a3.77,3.77,0,0,1-.2-.75,4,4,0,0,1-.07-.77,3.75,3.75,0,0,1,.27-1.45,3.31,3.31,0,0,1,.76-1.13,3.49,3.49,0,0,1,1.16-.74,4,4,0,0,1,1.44-.26,3.65,3.65,0,0,1,1.5.29,3.39,3.39,0,0,1,1.17.8,3.72,3.72,0,0,1,.76,1.2,4.19,4.19,0,0,1,.27,1.52,3.71,3.71,0,0,1-.51,1.93A3.34,3.34,0,0,1,13,148.17L12.47,147a2.6,2.6,0,0,0,1.06-.9,2.28,2.28,0,0,0,.39-1.32,2.35,2.35,0,0,0-.2-1,2.64,2.64,0,0,0-.53-.81,2.46,2.46,0,0,0-.8-.54,2.54,2.54,0,0,0-1-.2,2.75,2.75,0,0,0-1.09.21,2.69,2.69,0,0,0-.86.57,2.57,2.57,0,0,0-.55.88A3.14,3.14,0,0,0,8.71,145a4.16,4.16,0,0,0,.17,1.21,6,6,0,0,0,.45,1.15l-5.87-.12V141.5Z"/><path class="cls-4" d="M3.27,135.11a3.14,3.14,0,0,1,.56-2A3.67,3.67,0,0,1,5.25,132a6.17,6.17,0,0,1,1.9-.56,13.68,13.68,0,0,1,2-.15,13.82,13.82,0,0,1,2,.15A6.17,6.17,0,0,1,13,132a3.67,3.67,0,0,1,1.42,1.17,3.73,3.73,0,0,1,0,3.93A3.86,3.86,0,0,1,13,138.25a6.45,6.45,0,0,1-1.9.56,14,14,0,0,1-3.95,0,6.45,6.45,0,0,1-1.9-.56,3.86,3.86,0,0,1-1.42-1.17A3.17,3.17,0,0,1,3.27,135.11Zm1.05,0a2.09,2.09,0,0,0,.5,1.47,3.3,3.3,0,0,0,1.23.81,6.09,6.09,0,0,0,1.57.34c.55.05,1.06.07,1.5.07s1,0,1.51-.07a6.18,6.18,0,0,0,1.57-.34,3.3,3.3,0,0,0,1.23-.81,2.44,2.44,0,0,0,0-2.93,3.08,3.08,0,0,0-1.23-.81,6.18,6.18,0,0,0-1.57-.34c-.56-.05-1.06-.07-1.51-.07s-.95,0-1.5.07a6.09,6.09,0,0,0-1.57.34,3.08,3.08,0,0,0-1.23.81A2.09,2.09,0,0,0,4.32,135.11Z"/><path class="cls-4" d="M9,124.11c-.27,0-.55,0-.83,0l-.83.06v-1.14H8.44v0a2.52,2.52,0,0,1-1-1.07,3.05,3.05,0,0,1-.33-1.35,3.83,3.83,0,0,1,.06-.65,2.25,2.25,0,0,1,.23-.66,2.39,2.39,0,0,1,.48-.6,2.45,2.45,0,0,1,.78-.47,2.5,2.5,0,0,1-1.14-1,2.82,2.82,0,0,1-.41-1.45,2.69,2.69,0,0,1,.76-2.12,3.11,3.11,0,0,1,2.17-.69h4.75v1H10.42a3.2,3.2,0,0,0-1.74.4,1.65,1.65,0,0,0-.61,1.49,2,2,0,0,0,.23,1,1.76,1.76,0,0,0,.62.65,2.42,2.42,0,0,0,.87.36,4.17,4.17,0,0,0,1,.11h4v1.06H10.42a3.11,3.11,0,0,0-1.74.4,1.64,1.64,0,0,0-.61,1.49,3.61,3.61,0,0,0,.06.44,1.67,1.67,0,0,0,.35.71,2.46,2.46,0,0,0,.87.66,3.51,3.51,0,0,0,1.6.3h3.84v1.06Z"/><path class="cls-4" d="M9,110l-.83,0-.83,0v-1.13H8.44v0a2.52,2.52,0,0,1-1-1.07,3.05,3.05,0,0,1-.33-1.35,3.83,3.83,0,0,1,.06-.65,2.25,2.25,0,0,1,.23-.66,2.08,2.08,0,0,1,.48-.6,2.28,2.28,0,0,1,.78-.47,2.56,2.56,0,0,1-1.14-1,2.85,2.85,0,0,1-.41-1.45,2.73,2.73,0,0,1,.76-2.13A3.15,3.15,0,0,1,10,98.83h4.75v1H10.42a3.2,3.2,0,0,0-1.74.4,1.64,1.64,0,0,0-.61,1.49,2,2,0,0,0,.23,1,1.84,1.84,0,0,0,.62.65,2.42,2.42,0,0,0,.87.36,4.74,4.74,0,0,0,1,.11h4v1.06H10.42a3.11,3.11,0,0,0-1.74.4,1.63,1.63,0,0,0-.61,1.49,3.61,3.61,0,0,0,.06.44,1.67,1.67,0,0,0,.35.71,2.72,2.72,0,0,0,.87.66,3.51,3.51,0,0,0,1.6.3h3.84v1Z"/><line class="cls-2" x1="26.5" y1="223.54" x2="84.07" y2="223.54"/><line class="cls-2" x1="26.5" y1="222.75" x2="26.5" y2="224.33"/><line class="cls-2" x1="84.07" y1="222.75" x2="84.07" y2="224.33"/><path class="cls-4" d="M28.79,245.87H27.64V236l-2,1.79-.72-.86,2.88-2.37h1Z"/><path class="cls-4" d="M41.85,245.87h-7.2v-1.33L39.16,240l.51-.55a4,4,0,0,0,.47-.61,2.78,2.78,0,0,0,.33-.67,2,2,0,0,0,.13-.74,1.9,1.9,0,0,0-.17-.83,1.68,1.68,0,0,0-.47-.62,2.08,2.08,0,0,0-.7-.39,2.66,2.66,0,0,0-.85-.14,2.28,2.28,0,0,0-1.47.48,2.17,2.17,0,0,0-.79,1.3l-1.21-.13a3.16,3.16,0,0,1,1.16-2,3.45,3.45,0,0,1,2.23-.72,4.59,4.59,0,0,1,1.3.18,3.2,3.2,0,0,1,1.09.55,2.58,2.58,0,0,1,.75.92,2.79,2.79,0,0,1,.28,1.29,3.29,3.29,0,0,1-.2,1.2,4.46,4.46,0,0,1-.52,1,6.26,6.26,0,0,1-.72.91c-.28.29-.56.58-.84.85l-3.57,3.54h6Z"/><path class="cls-4" d="M49,234.35a3.19,3.19,0,0,1,2,.56,3.66,3.66,0,0,1,1.16,1.42,6.17,6.17,0,0,1,.56,1.9,13.58,13.58,0,0,1,.15,2,13.82,13.82,0,0,1-.15,2,6,6,0,0,1-.56,1.89A3.77,3.77,0,0,1,51,245.5a3.75,3.75,0,0,1-3.94,0,3.89,3.89,0,0,1-1.17-1.43,6.3,6.3,0,0,1-.56-1.89,13.76,13.76,0,0,1-.14-2,13.53,13.53,0,0,1,.14-2,6.45,6.45,0,0,1,.56-1.9A3.78,3.78,0,0,1,47,234.91,3.17,3.17,0,0,1,49,234.35Zm0,1.05a2.09,2.09,0,0,0-1.47.5,3.3,3.3,0,0,0-.81,1.23,6.09,6.09,0,0,0-.34,1.57c0,.55-.07,1.05-.07,1.5s0,1,.07,1.51a6.1,6.1,0,0,0,.34,1.56,3.3,3.3,0,0,0,.81,1.23A2,2,0,0,0,49,245a2,2,0,0,0,1.46-.5,3.08,3.08,0,0,0,.81-1.23,5.71,5.71,0,0,0,.34-1.56c0-.56.08-1.06.08-1.51s0-.95-.08-1.5a5.7,5.7,0,0,0-.34-1.57,3.08,3.08,0,0,0-.81-1.23A2.07,2.07,0,0,0,49,235.4Z"/><path class="cls-4" d="M56.35,240c0-.28,0-.55,0-.83s0-.56,0-.83H57.4v1.13h0a2.53,2.53,0,0,1,1.06-1,3.05,3.05,0,0,1,1.35-.33,3.83,3.83,0,0,1,.65.06,2.25,2.25,0,0,1,.66.23,2,2,0,0,1,.6.47,2.44,2.44,0,0,1,.47.79,2.56,2.56,0,0,1,1-1.14,3.1,3.1,0,0,1,3.58.35,3.08,3.08,0,0,1,.68,2.16v4.76H66.46V241.5a3.17,3.17,0,0,0-.4-1.75,1.66,1.66,0,0,0-1.49-.6,1.84,1.84,0,0,0-1.64.84,3,3,0,0,0-.36.88,4.74,4.74,0,0,0-.11,1v4H61.4V241.5a3.17,3.17,0,0,0-.4-1.75,1.65,1.65,0,0,0-1.49-.6l-.44.06a1.73,1.73,0,0,0-.71.35,2.67,2.67,0,0,0-.66.86,3.55,3.55,0,0,0-.3,1.61v3.84h-1Z"/><path class="cls-4" d="M71.74,240c0-.28,0-.55,0-.83s0-.56,0-.83h1.13v1.13h0a2.53,2.53,0,0,1,1.06-1,3.05,3.05,0,0,1,1.35-.33,3.74,3.74,0,0,1,.65.06,2.25,2.25,0,0,1,.66.23,2,2,0,0,1,.6.47,2.64,2.64,0,0,1,.48.79,2.48,2.48,0,0,1,1-1.14,2.78,2.78,0,0,1,1.45-.41,2.73,2.73,0,0,1,2.13.76,3.08,3.08,0,0,1,.69,2.16v4.76H81.85V241.5a3.17,3.17,0,0,0-.4-1.75,1.66,1.66,0,0,0-1.49-.6,1.84,1.84,0,0,0-1.64.84,3,3,0,0,0-.36.88,4.74,4.74,0,0,0-.11,1v4H76.79V241.5a3.27,3.27,0,0,0-.39-1.75,1.67,1.67,0,0,0-1.49-.6l-.44.06a1.71,1.71,0,0,0-.72.35,2.67,2.67,0,0,0-.66.86,3.55,3.55,0,0,0-.3,1.61v3.84H71.74Z"/><g class="cls-5"><line class="cls-6" x1="40.22" y1="215.93" x2="48.05" y2="215.93"/><line class="cls-6" x1="48.05" y1="215.93" x2="70.31" y2="215.93"/><line class="cls-6" x1="40.22" y1="215.93" x2="40.21" y2="215.19"/><line class="cls-6" x1="70.31" y1="215.93" x2="70.33" y2="215.19"/><rect class="cls-6" x="26.5" y="47.35" width="57.54" height="167.84"/></g><line class="cls-6" x1="84.04" y1="51.67" x2="84.04" y2="51.67"/><g class="cls-5"><line class="cls-6" x1="26.5" y1="51.67" x2="26.5" y2="51.67"/></g><line class="cls-6" x1="84.04" y1="210.87" x2="84.04" y2="210.87"/><g class="cls-5"><polyline class="cls-6" points="26.5 210.88 28.89 210.88 28.41 213.75 36.32 213.75 35.84 210.88 44.24 210.88 43.76 213.75 51.67 213.75 51.19 210.88 59.34 210.88 58.86 213.75 66.78 213.75 66.3 210.88 74.69 210.88 74.21 213.75 82.12 213.75 81.64 210.88 84.04 210.88"/><polyline class="cls-6" points="26.5 51.67 28.89 51.67 28.41 48.79 36.32 48.79 35.84 51.67 44.24 51.67 43.76 48.79 51.67 48.79 51.19 51.67 59.34 51.67 58.86 48.79 66.78 48.79 66.3 51.67 74.69 51.67 74.21 48.79 82.12 48.79 81.64 51.67 84.04 51.67"/><rect class="cls-6" x="123.85" y="47.35" width="167.83" height="4.58"/></g><rect class="cls-6" x="123.85" y="211.01" width="167.83" height="4.58"/><rect class="cls-6" x="123.85" y="51.94" width="4.58" height="159.07"/><rect class="cls-6" x="287.1" y="51.94" width="4.58" height="159.07"/><line class="cls-6" x1="183.34" y1="200.15" x2="195.86" y2="200.15"/><line class="cls-6" x1="147.73" y1="200.15" x2="183.34" y2="200.15"/><line class="cls-6" x1="195.68" y1="199.98" x2="150.84" y2="199.98"/><line class="cls-6" x1="184.99" y1="211.01" x2="178.12" y2="211.01"/><line class="cls-6" x1="178.12" y1="211.01" x2="158.61" y2="211.01"/><polyline class="cls-6" points="169.83 203.84 169.83 203.97 169.86 204.09 169.91 204.21 169.99 204.32 170.11 204.43 170.18 204.48 170.26 204.52 170.35 204.55 170.44 204.58 170.6 204.6"/><polyline class="cls-6" points="170.6 203.18 170.46 203.19 170.32 203.22 170.19 203.27 170.12 203.32 170.06 203.37 170 203.43 169.94 203.49 169.87 203.63 169.83 203.76 169.83 203.84"/><polyline class="cls-6" points="170.6 204.6 170.84 204.6 171.08 204.6 171.32 204.61 171.56 204.61 171.8 204.61 172.04 204.61 172.28 204.61 172.52 204.6 172.76 204.6 173 204.6"/><polyline class="cls-6" points="173 203.18 173.15 203.19 173.28 203.22 173.41 203.27 173.48 203.32 173.54 203.37 173.61 203.43 173.66 203.49 173.73 203.63 173.76 203.76 173.78 203.84"/><polyline class="cls-6" points="173.78 203.84 173.77 203.97 173.74 204.09 173.68 204.21 173.6 204.32 173.49 204.43 173.42 204.48 173.34 204.52 173.25 204.55 173.16 204.58 173 204.6"/><polyline class="cls-6" points="170.6 203.18 170.84 203.18 171.08 203.18 171.32 203.19 171.56 203.19 171.8 203.19 172.04 203.19 172.28 203.19 172.52 203.18 172.76 203.18 173 203.18"/><polyline class="cls-6" points="192.85 206.96 193.13 206.55 193.41 206.12 193.67 205.68 193.93 205.21 194.19 204.71 194.44 204.19 194.68 203.62 194.93 203.02 195.17 202.38 195.41 201.68 195.64 200.94 195.87 200.15"/><line class="cls-6" x1="195.68" y1="200.15" x2="195.68" y2="199.98"/><line class="cls-6" x1="147.92" y1="200.15" x2="147.92" y2="199.98"/><polyline class="cls-6" points="192.85 206.96 192.61 207.27 192.36 207.58 192.11 207.87 191.85 208.15 191.58 208.42 191.31 208.68 191.03 208.92 190.74 209.16 190.44 209.37 190.13 209.58 189.82 209.77 189.5 209.95 189.17 210.12 188.83 210.27 188.49 210.41 188.13 210.53 187.77 210.64 187.4 210.74 187.02 210.82 186.63 210.88 186.24 210.94 185.83 210.97 185.41 211 184.99 211.01"/><polyline class="cls-6" points="150.75 206.96 150.99 207.27 151.24 207.58 151.49 207.87 151.75 208.15 152.02 208.42 152.29 208.68 152.57 208.92 152.86 209.16 153.16 209.37 153.46 209.58 153.78 209.77 154.1 209.95 154.43 210.12 154.77 210.27 155.11 210.41 155.46 210.53 155.83 210.64 156.2 210.74 156.58 210.82 156.97 210.88 157.36 210.94 157.77 210.97 158.19 211 158.61 211.01"/><polyline class="cls-6" points="150.75 206.96 150.47 206.55 150.19 206.12 149.93 205.68 149.67 205.21 149.41 204.71 149.16 204.19 148.92 203.62 148.67 203.02 148.43 202.38 148.19 201.68 147.96 200.94 147.73 200.15"/><line class="cls-6" x1="195.91" y1="199.98" x2="183.36" y2="199.98"/><line class="cls-6" x1="183.36" y1="199.98" x2="147.69" y2="199.98"/><line class="cls-6" x1="198.17" y1="163.2" x2="184.44" y2="163.2"/><line class="cls-6" x1="198.03" y1="163.05" x2="184.37" y2="163.05"/><line class="cls-6" x1="184.44" y1="163.2" x2="145.43" y2="163.2"/><line class="cls-6" x1="184.37" y1="163.05" x2="145.57" y2="163.05"/><polyline class="cls-6" points="195.91 199.98 195.93 199.9 196.02 199.57 196.13 199.09 196.39 197.94 196.63 196.71 196.86 195.39 197.06 193.94 197.25 192.41 197.41 190.74 197.55 188.95 197.66 186.99 197.75 184.81 197.83 182.26 197.88 179.55 197.9 178.88"/><polyline class="cls-6" points="147.69 199.98 147.67 199.9 147.58 199.57 147.46 199.09 147.21 197.94 146.97 196.71 146.75 195.39 146.53 193.94 146.35 192.41 146.19 190.74 146.05 188.95 145.94 186.99 145.84 184.81 145.77 182.26 145.71 179.55 145.7 178.88"/><line class="cls-6" x1="197.9" y1="178.88" x2="198.17" y2="163.2"/><polyline class="cls-6" points="198.17 163.2 198.06 163.06 198.03 163.05"/><line class="cls-6" x1="145.7" y1="178.88" x2="145.43" y2="163.2"/><polyline class="cls-6" points="145.57 163.05 145.43 163.17 145.43 163.2"/><line class="cls-6" x1="197.6" y1="163.05" x2="184.17" y2="163.05"/><line class="cls-6" x1="184.17" y1="163.05" x2="146" y2="163.05"/><path class="cls-6" d="M171.8,196.22v1.23m0-8.9v6.71m0-17.26v-1.23m0,8.9V179m0,8.63v-1"/><line class="cls-2" x1="145.5" y1="155.51" x2="198.23" y2="155.51"/><line class="cls-2" x1="145.5" y1="154.72" x2="145.5" y2="156.3"/><line class="cls-2" x1="198.23" y1="154.72" x2="198.23" y2="156.3"/><path class="cls-4" d="M146.09,136.24a5.37,5.37,0,0,1,1.13,1.83,6.65,6.65,0,0,1,0,4.65,5.6,5.6,0,0,1-3.12,3.12,6,6,0,0,1-2.34.45,6.27,6.27,0,0,1-2.06-.34,5.91,5.91,0,0,1-1.72-1l-1.21,1.3-.59-.54,1.21-1.32a5.42,5.42,0,0,1-1.13-1.82,6.19,6.19,0,0,1-.4-2.27,6.39,6.39,0,0,1,.44-2.39,5.6,5.6,0,0,1,3.12-3.12,6.07,6.07,0,0,1,6.12.85l1.21-1.29.59.54Zm-1.36.27a4.34,4.34,0,0,0-1.33-.79,4.93,4.93,0,0,0-1.68-.28,4.65,4.65,0,0,0-1.95.4,4.57,4.57,0,0,0-1.47,1.07,4.88,4.88,0,0,0-.92,1.56,5.59,5.59,0,0,0,0,3.61,4.88,4.88,0,0,0,.81,1.49Zm-6,7.65A4.15,4.15,0,0,0,140,145a4.7,4.7,0,0,0,1.68.28,4.5,4.5,0,0,0,1.95-.4,4.29,4.29,0,0,0,1.47-1.07,4.88,4.88,0,0,0,.92-1.56,5.56,5.56,0,0,0,0-3.6,5,5,0,0,0-.81-1.49Z"/><path class="cls-4" d="M155.7,146h-1.15v-9.89l-2,1.8-.72-.87,2.88-2.37h1Z"/><path class="cls-4" d="M163.34,146h-1.16v-9.89l-2,1.8-.72-.87,2.88-2.37h1Z"/><path class="cls-4" d="M169.85,134.48a3.26,3.26,0,0,1,2,.56,3.77,3.77,0,0,1,1.16,1.43,6,6,0,0,1,.56,1.89,13.82,13.82,0,0,1,.15,2,13.58,13.58,0,0,1-.15,2,6.17,6.17,0,0,1-.56,1.9,3.66,3.66,0,0,1-1.16,1.42,3.75,3.75,0,0,1-3.94,0,3.78,3.78,0,0,1-1.17-1.42,6.45,6.45,0,0,1-.56-1.9,15.09,15.09,0,0,1-.14-2,15.36,15.36,0,0,1,.14-2,6.3,6.3,0,0,1,.56-1.89,3.89,3.89,0,0,1,1.17-1.43A3.24,3.24,0,0,1,169.85,134.48Zm0,1.06a2.09,2.09,0,0,0-1.47.49,3.28,3.28,0,0,0-.8,1.24,5.72,5.72,0,0,0-.35,1.56c0,.56-.07,1.06-.07,1.51s0,.95.07,1.5a5.71,5.71,0,0,0,.35,1.57,3.17,3.17,0,0,0,.8,1.23,2.09,2.09,0,0,0,1.47.5,2.07,2.07,0,0,0,1.46-.5,3.08,3.08,0,0,0,.81-1.23,5.7,5.7,0,0,0,.34-1.57c0-.55.08-1.05.08-1.5s0-1-.08-1.51a5.71,5.71,0,0,0-.34-1.56,3.19,3.19,0,0,0-.81-1.24A2.06,2.06,0,0,0,169.85,135.54Z"/><path class="cls-4" d="M177.19,140.18c0-.28,0-.56,0-.83l-.06-.84h1.14v1.14h0a2.47,2.47,0,0,1,1.06-1,2.91,2.91,0,0,1,2-.27,2.42,2.42,0,0,1,.67.23,2.34,2.34,0,0,1,.6.47,2.65,2.65,0,0,1,.47.78,2.42,2.42,0,0,1,1-1.13,2.73,2.73,0,0,1,1.44-.42,2.76,2.76,0,0,1,2.13.76,3.12,3.12,0,0,1,.69,2.17V146H187.3v-4.37a3.16,3.16,0,0,0-.4-1.74,1.65,1.65,0,0,0-1.48-.61,2,2,0,0,0-1,.23,1.9,1.9,0,0,0-.64.62,2.58,2.58,0,0,0-.36.87,4.31,4.31,0,0,0-.12,1v4h-1.05v-4.37a3.25,3.25,0,0,0-.4-1.74,1.68,1.68,0,0,0-1.49-.61,2.67,2.67,0,0,0-.44.07,1.62,1.62,0,0,0-.71.35,2.55,2.55,0,0,0-.67.86,3.69,3.69,0,0,0-.29,1.6V146h-1.06Z"/><path class="cls-4" d="M191.3,140.18c0-.28,0-.56,0-.83s0-.56-.06-.84h1.14v1.14h0a2.44,2.44,0,0,1,1.07-1,2.94,2.94,0,0,1,1.35-.34,3.07,3.07,0,0,1,.65.07,2.25,2.25,0,0,1,.66.23,2.34,2.34,0,0,1,.6.47,2.45,2.45,0,0,1,.47.78,2.48,2.48,0,0,1,1-1.13,2.76,2.76,0,0,1,1.45-.42,2.73,2.73,0,0,1,2.12.76,3.12,3.12,0,0,1,.69,2.17V146h-1.05v-4.37a3.25,3.25,0,0,0-.4-1.74,1.68,1.68,0,0,0-1.49-.61,2,2,0,0,0-1,.23,1.84,1.84,0,0,0-.65.62,2.58,2.58,0,0,0-.36.87,4.31,4.31,0,0,0-.11,1v4h-1.06v-4.37a3.16,3.16,0,0,0-.4-1.74,1.67,1.67,0,0,0-1.49-.61,2.67,2.67,0,0,0-.44.07,1.67,1.67,0,0,0-.71.35,2.53,2.53,0,0,0-.66.86,3.53,3.53,0,0,0-.3,1.6V146H191.3Z"/><line class="cls-2" x1="205.83" y1="210.74" x2="205.83" y2="163.14"/><line class="cls-2" x1="205.04" y1="210.74" x2="206.62" y2="210.74"/><line class="cls-2" x1="205.04" y1="163.14" x2="206.62" y2="163.14"/><path class="cls-4" d="M228.05,206.16v1.15h-9.89l1.79,2-.86.72-2.37-2.88v-1Z"/><path class="cls-4" d="M216.53,199.5a3.14,3.14,0,0,1,.56-2,3.78,3.78,0,0,1,1.42-1.17,6.17,6.17,0,0,1,1.9-.56,13.58,13.58,0,0,1,2-.15,13.82,13.82,0,0,1,2,.15,6,6,0,0,1,1.89.56,3.89,3.89,0,0,1,1.43,1.17,3.73,3.73,0,0,1,0,3.93,3.89,3.89,0,0,1-1.43,1.17,6.3,6.3,0,0,1-1.89.56,13.76,13.76,0,0,1-2,.14,13.53,13.53,0,0,1-2-.14,6.45,6.45,0,0,1-1.9-.56,3.78,3.78,0,0,1-1.42-1.17A3.17,3.17,0,0,1,216.53,199.5Zm1.05,0a2.09,2.09,0,0,0,.5,1.47,3.19,3.19,0,0,0,1.23.81,6.09,6.09,0,0,0,1.57.34c.55,0,1.05.07,1.5.07s1,0,1.51-.07a6.1,6.1,0,0,0,1.56-.34,3.22,3.22,0,0,0,1.24-.81,2.44,2.44,0,0,0,0-2.93,3.11,3.11,0,0,0-1.24-.81,6.1,6.1,0,0,0-1.56-.34c-.56,0-1.06-.07-1.51-.07s-.95,0-1.5.07a6.09,6.09,0,0,0-1.57.34,3.08,3.08,0,0,0-1.23.81A2.09,2.09,0,0,0,217.58,199.5Z"/><path class="cls-4" d="M216.53,190.13a3.17,3.17,0,0,1,.56-2,3.78,3.78,0,0,1,1.42-1.17,6.45,6.45,0,0,1,1.9-.56,13.53,13.53,0,0,1,2-.14,13.76,13.76,0,0,1,2,.14,6.3,6.3,0,0,1,1.89.56,3.89,3.89,0,0,1,1.43,1.17,3.73,3.73,0,0,1,0,3.93,3.7,3.7,0,0,1-1.43,1.17,6,6,0,0,1-1.89.56,13.82,13.82,0,0,1-2,.15,13.58,13.58,0,0,1-2-.15,6.17,6.17,0,0,1-1.9-.56,3.6,3.6,0,0,1-1.42-1.17A3.14,3.14,0,0,1,216.53,190.13Zm1.05,0a2.07,2.07,0,0,0,.5,1.46,3.08,3.08,0,0,0,1.23.81,5.7,5.7,0,0,0,1.57.34c.55,0,1.05.08,1.5.08s1,0,1.51-.08a5.71,5.71,0,0,0,1.56-.34,3.11,3.11,0,0,0,1.24-.81,2.06,2.06,0,0,0,.49-1.46,2.09,2.09,0,0,0-.49-1.47,3.2,3.2,0,0,0-1.24-.8,5.72,5.72,0,0,0-1.56-.35c-.56,0-1.06-.07-1.51-.07s-.95,0-1.5.07a5.71,5.71,0,0,0-1.57.35,3.17,3.17,0,0,0-1.23.8A2.09,2.09,0,0,0,217.58,190.13Z"/><path class="cls-4" d="M222.22,182.77l-.83,0-.83.06v-1.14h1.13v0a2.59,2.59,0,0,1-1-1.06,3.12,3.12,0,0,1-.33-1.36,3.63,3.63,0,0,1,.06-.64,2.31,2.31,0,0,1,.23-.67,2.34,2.34,0,0,1,.47-.6,2.63,2.63,0,0,1,.79-.47,2.45,2.45,0,0,1-1.14-1,3.09,3.09,0,0,1,.35-3.57,3.1,3.1,0,0,1,2.16-.69h4.76v1.06h-4.37a3.27,3.27,0,0,0-1.75.39,1.67,1.67,0,0,0-.6,1.49,1.92,1.92,0,0,0,.23,1,1.87,1.87,0,0,0,.61.64,2.55,2.55,0,0,0,.88.36,4.17,4.17,0,0,0,1,.12h4v1.05h-4.37a3.17,3.17,0,0,0-1.75.4,1.66,1.66,0,0,0-.6,1.49,3.61,3.61,0,0,0,.06.44,1.62,1.62,0,0,0,.35.71,2.5,2.5,0,0,0,.87.67,3.63,3.63,0,0,0,1.6.29h3.84v1.06Z"/><path class="cls-4" d="M222.22,168.67c-.28,0-.55,0-.83,0l-.83.05v-1.13h1.13v0a2.53,2.53,0,0,1-1-1.06,3.05,3.05,0,0,1-.33-1.35,3.74,3.74,0,0,1,.06-.65,2.25,2.25,0,0,1,.23-.66,2.22,2.22,0,0,1,.47-.61,2.85,2.85,0,0,1,.79-.47,2.48,2.48,0,0,1-1.14-1,2.78,2.78,0,0,1-.41-1.45,2.73,2.73,0,0,1,.76-2.13,3.1,3.1,0,0,1,2.16-.69h4.76v1.06h-4.37a3.17,3.17,0,0,0-1.75.4,1.66,1.66,0,0,0-.6,1.49,1.84,1.84,0,0,0,.84,1.64,3,3,0,0,0,.88.36,4.74,4.74,0,0,0,1,.11h4v1.06h-4.37a3.17,3.17,0,0,0-1.75.4,1.64,1.64,0,0,0-.6,1.48,3.37,3.37,0,0,0,.06.44,1.71,1.71,0,0,0,.35.72,2.61,2.61,0,0,0,.87.66,3.48,3.48,0,0,0,1.6.3h3.84v1Z"/><line class="cls-2" x1="116.45" y1="210.93" x2="116.45" y2="215.61"/><line class="cls-2" x1="117.24" y1="210.93" x2="115.66" y2="210.93"/><line class="cls-2" x1="117.24" y1="215.61" x2="115.66" y2="215.61"/><path class="cls-4" d="M185.65,239.29h.6a3.75,3.75,0,0,0,.95-.12,2.11,2.11,0,0,0,.79-.36,1.75,1.75,0,0,0,.53-.64,2.06,2.06,0,0,0,.2-1,1.82,1.82,0,0,0-.55-1.42,2.18,2.18,0,0,0-1.54-.5,2.42,2.42,0,0,0-1.27.32,2.46,2.46,0,0,0-.89.92l-1-.51a3.39,3.39,0,0,1,1.3-1.35,3.76,3.76,0,0,1,1.84-.44,4,4,0,0,1,1.26.19,3.18,3.18,0,0,1,1,.57,2.62,2.62,0,0,1,.71.93,2.83,2.83,0,0,1,.27,1.25,2.33,2.33,0,0,1-.16.88,2.93,2.93,0,0,1-.41.76,3.11,3.11,0,0,1-.62.58,2.83,2.83,0,0,1-.73.38l0,0a2.28,2.28,0,0,1,.88.36,2.51,2.51,0,0,1,.69.65,3.06,3.06,0,0,1,.45.86,3.1,3.1,0,0,1,.16,1,3.23,3.23,0,0,1-.29,1.39,2.84,2.84,0,0,1-.78,1,3.59,3.59,0,0,1-1.15.64,4.61,4.61,0,0,1-1.4.21,4.24,4.24,0,0,1-2.17-.54,3.31,3.31,0,0,1-1.39-1.75l1.21-.36a2.34,2.34,0,0,0,.86,1.2,3.08,3.08,0,0,0,2.5.24,2.34,2.34,0,0,0,.76-.46,2,2,0,0,0,.51-.71,2.12,2.12,0,0,0,.19-.91,2.21,2.21,0,0,0-.24-1.08,2,2,0,0,0-.64-.72,2.72,2.72,0,0,0-.92-.39,4.83,4.83,0,0,0-1.08-.12h-.5Z"/><path class="cls-4" d="M199.19,235.48h-4.62l-.08,3.41a3.21,3.21,0,0,1,.75-.21,4.88,4.88,0,0,1,.76-.07,3.8,3.8,0,0,1,1.46.28,3.26,3.26,0,0,1,1.13.76,3.61,3.61,0,0,1,.74,1.15,4,4,0,0,1,.26,1.45,3.81,3.81,0,0,1-.29,1.49,3.43,3.43,0,0,1-.8,1.17,3.51,3.51,0,0,1-1.21.76,4.1,4.1,0,0,1-1.51.27,3.77,3.77,0,0,1-1.94-.51,3.35,3.35,0,0,1-1.32-1.5l1.15-.5a2.58,2.58,0,0,0,.89,1.06,2.25,2.25,0,0,0,1.33.4,2.55,2.55,0,0,0,1-.2,2.87,2.87,0,0,0,.81-.54,2.68,2.68,0,0,0,.54-.8,2.54,2.54,0,0,0,.2-1,2.75,2.75,0,0,0-.21-1.09,2.56,2.56,0,0,0-.58-.86,2.48,2.48,0,0,0-.88-.55,3.1,3.1,0,0,0-1.12-.19,4.46,4.46,0,0,0-1.2.17,5.5,5.5,0,0,0-1.15.45l.11-5.87h5.78Z"/><path class="cls-4" d="M205.57,234.23a3.24,3.24,0,0,1,2,.56,3.86,3.86,0,0,1,1.17,1.42,6.45,6.45,0,0,1,.56,1.9,14,14,0,0,1,0,3.95,6.45,6.45,0,0,1-.56,1.9,3.86,3.86,0,0,1-1.17,1.42,3.73,3.73,0,0,1-3.93,0,3.67,3.67,0,0,1-1.17-1.42,6.17,6.17,0,0,1-.56-1.9,13.08,13.08,0,0,1,0-3.95,6.17,6.17,0,0,1,.56-1.9,3.67,3.67,0,0,1,1.17-1.42A3.21,3.21,0,0,1,205.57,234.23Zm0,1.06a2.08,2.08,0,0,0-1.46.49,3.08,3.08,0,0,0-.81,1.23,6.18,6.18,0,0,0-.34,1.57c-.05.56-.07,1.06-.07,1.51s0,.95.07,1.5a6.18,6.18,0,0,0,.34,1.57,3.08,3.08,0,0,0,.81,1.23,2.4,2.4,0,0,0,2.93,0,3.19,3.19,0,0,0,.81-1.23,6.18,6.18,0,0,0,.34-1.57c.05-.55.07-1.06.07-1.5s0-1-.07-1.51a6.18,6.18,0,0,0-.34-1.57,3.19,3.19,0,0,0-.81-1.23A2.09,2.09,0,0,0,205.57,235.29Z"/><path class="cls-4" d="M212.93,239.93c0-.28,0-.56,0-.84s0-.55-.06-.83H214v1.14h0a2.44,2.44,0,0,1,1.07-1,2.94,2.94,0,0,1,1.35-.34,3.83,3.83,0,0,1,.65.06,2.28,2.28,0,0,1,.66.24,2.34,2.34,0,0,1,.6.47,2.45,2.45,0,0,1,.47.78,2.43,2.43,0,0,1,1-1.13,2.76,2.76,0,0,1,1.45-.42,2.69,2.69,0,0,1,2.12.76,3.12,3.12,0,0,1,.69,2.17v4.75h-1v-4.37a3.2,3.2,0,0,0-.4-1.74,1.65,1.65,0,0,0-1.49-.61,2,2,0,0,0-1,.23,1.84,1.84,0,0,0-.65.62,2.42,2.42,0,0,0-.36.87,4.25,4.25,0,0,0-.11,1v4H218v-4.37a3.11,3.11,0,0,0-.4-1.74,1.64,1.64,0,0,0-1.49-.61l-.44.06a1.71,1.71,0,0,0-.71.36,2.53,2.53,0,0,0-.66.86,3.51,3.51,0,0,0-.3,1.6v3.84h-1.06Z"/><path class="cls-4" d="M227,239.93c0-.28,0-.56,0-.84l-.06-.83h1.14v1.14h0a2.41,2.41,0,0,1,1.06-1,3,3,0,0,1,1.35-.34,3.74,3.74,0,0,1,.65.06,2.45,2.45,0,0,1,.67.24,2.34,2.34,0,0,1,.6.47,2.65,2.65,0,0,1,.47.78,2.41,2.41,0,0,1,1-1.13,2.79,2.79,0,0,1,1.45-.42,2.73,2.73,0,0,1,2.13.76,3.12,3.12,0,0,1,.69,2.17v4.75h-1.06v-4.37a3.11,3.11,0,0,0-.4-1.74,1.63,1.63,0,0,0-1.49-.61,1.82,1.82,0,0,0-1.64.85,2.84,2.84,0,0,0-.36.87,4.83,4.83,0,0,0-.11,1v4h-1v-4.37a3.2,3.2,0,0,0-.4-1.74,1.65,1.65,0,0,0-1.49-.61l-.44.06a1.65,1.65,0,0,0-.71.36,2.55,2.55,0,0,0-.67.86,3.52,3.52,0,0,0-.29,1.6v3.84H227Z"/><path class="cls-4" d="M104.19,221.87l0,0a1.82,1.82,0,0,1,.3.7,4.12,4.12,0,0,1,.11.81,3.42,3.42,0,0,1-.25,1.33,3.33,3.33,0,0,1-.71,1.08,3.54,3.54,0,0,1-2.5,1,3.68,3.68,0,0,1-1.43-.24,3.11,3.11,0,0,1-1.11-.73,3.42,3.42,0,0,1-.74-1.12,3.72,3.72,0,0,1-.27-1.43,3.9,3.9,0,0,1,.23-1.43,3.33,3.33,0,0,1,.71-1.14,3.11,3.11,0,0,1,1.09-.76,3.6,3.6,0,0,1,1.42-.29,4.62,4.62,0,0,1,1.65.25,10.43,10.43,0,0,1,1.4.66l5,2.9,0,1.31ZM101,220.8a2.77,2.77,0,0,0-1,.19,2.33,2.33,0,0,0-.77.52,2.4,2.4,0,0,0-.49.78,2.77,2.77,0,0,0,0,2,2.58,2.58,0,0,0,.51.77,2.25,2.25,0,0,0,.78.49,2.64,2.64,0,0,0,1,.17,2.57,2.57,0,0,0,1-.2,2.16,2.16,0,0,0,.77-.51,2.11,2.11,0,0,0,.49-.78,2.73,2.73,0,0,0,.17-1,2.86,2.86,0,0,0-.19-1,2.18,2.18,0,0,0-.52-.77A2.25,2.25,0,0,0,102,221,2.46,2.46,0,0,0,101,220.8Z"/><path class="cls-4" d="M103.15,216.08l-.83,0-.83.06,0-1.1,1.14,0v0a2.42,2.42,0,0,1-1-1,2.88,2.88,0,0,1-.35-1.3,3.52,3.52,0,0,1,.06-.63,2.17,2.17,0,0,1,.22-.65,2.25,2.25,0,0,1,.46-.59,2.65,2.65,0,0,1,.78-.47,2.42,2.42,0,0,1-1.15-1,2.93,2.93,0,0,1,.3-3.47,3.18,3.18,0,0,1,2.16-.7l4.75-.06v1l-4.37.06a3.27,3.27,0,0,0-1.73.41,1.57,1.57,0,0,0-.59,1.45,1.75,1.75,0,0,0,.24,1,1.78,1.78,0,0,0,.63.62,2.68,2.68,0,0,0,.87.34,4.9,4.9,0,0,0,1,.1l4-.06,0,1-4.37.06a3.22,3.22,0,0,0-1.74.41,1.6,1.6,0,0,0-.59,1.45c0,.06,0,.2.07.43a1.59,1.59,0,0,0,.37.68,2.33,2.33,0,0,0,.87.63,3.57,3.57,0,0,0,1.6.27L109,215l0,1Z"/><path class="cls-4" d="M103,202.4l-.83,0-.83.06v-1.1h1.13v0a2.52,2.52,0,0,1-1-1,3,3,0,0,1-.36-1.31,3.52,3.52,0,0,1,.06-.63,2.15,2.15,0,0,1,.68-1.24,2.55,2.55,0,0,1,.78-.46,2.49,2.49,0,0,1-1.15-1,2.58,2.58,0,0,1-.43-1.39,2.62,2.62,0,0,1,.73-2.08,3.23,3.23,0,0,1,2.16-.7l4.75-.06v1l-4.36.06a3.28,3.28,0,0,0-1.74.41,1.6,1.6,0,0,0-.59,1.46,1.9,1.9,0,0,0,.24,1,2,2,0,0,0,.63.62,2.72,2.72,0,0,0,.88.33,4.74,4.74,0,0,0,1,.1l4-.06v1l-4.37.06a3.33,3.33,0,0,0-1.74.41,1.58,1.58,0,0,0-.58,1.45,2.46,2.46,0,0,0,.07.43,1.46,1.46,0,0,0,.36.68,2.46,2.46,0,0,0,.87.64,3.76,3.76,0,0,0,1.61.26l3.83,0,0,1Z"/></svg>