<svg id="Gaku_Wire" data-name="Gaku Wire" xmlns="http://www.w3.org/2000/svg" xmlns:xlink="http://www.w3.org/1999/xlink" viewBox="0 0 300 263"><defs><style>.cls-1,.cls-2,.cls-6,.cls-7{fill:none;}.cls-2,.cls-6{stroke:#2b2b2a;}.cls-2{stroke-miterlimit:10;}.cls-2,.cls-6,.cls-7{stroke-width:0.5px;}.cls-3{clip-path:url(#clip-path);}.cls-4{fill:#2b2b2a;}.cls-5{clip-path:url(#clip-path-2);}.cls-6,.cls-7{stroke-linecap:round;stroke-linejoin:round;}.cls-7{stroke:#1d1d1b;}</style><clipPath id="clip-path"><rect class="cls-1" x="9.56" y="47.18" width="282.29" height="195.05"/></clipPath><clipPath id="clip-path-2"><rect class="cls-1" x="26.32" y="47.18" width="265.54" height="168.93"/></clipPath></defs><title>gaku-wire-table-nendo-flos-F25210-spech-tech-01-300x263-01-01</title><line class="cls-2" x1="124.05" y1="223.54" x2="291.66" y2="223.54"/><line class="cls-2" x1="124.05" y1="222.75" x2="124.05" y2="224.33"/><line class="cls-2" x1="291.66" y1="222.75" x2="291.66" y2="224.33"/><g class="cls-3"><line class="cls-2" x1="18.9" y1="215.46" x2="18.9" y2="47.46"/></g><line class="cls-2" x1="18.11" y1="215.46" x2="19.69" y2="215.46"/><line class="cls-2" x1="18.11" y1="47.46" x2="19.69" y2="47.46"/><path class="cls-4" d="M8.32,155.05v-.59a3.69,3.69,0,0,0-.11-1,2.09,2.09,0,0,0-.36-.8,1.71,1.71,0,0,0-.65-.53,2,2,0,0,0-1-.2,1.8,1.8,0,0,0-1.41.55,2.18,2.18,0,0,0-.51,1.54,2.52,2.52,0,0,0,.32,1.27,2.57,2.57,0,0,0,.93.89l-.51,1a3.33,3.33,0,0,1-1.35-1.3,3.65,3.65,0,0,1-.44-1.83,4.07,4.07,0,0,1,.19-1.27,3.18,3.18,0,0,1,.57-1,2.76,2.76,0,0,1,2.18-1,2.58,2.58,0,0,1,.88.15,2.72,2.72,0,0,1,.75.41,3.15,3.15,0,0,1,.59.62,2.7,2.7,0,0,1,.37.74l0-.05a2.28,2.28,0,0,1,.36-.88,2.63,2.63,0,0,1,.64-.69,3.26,3.26,0,0,1,.87-.45,3.34,3.34,0,0,1,1-.16,3.26,3.26,0,0,1,1.39.29,3,3,0,0,1,1,.78,3.34,3.34,0,0,1,.63,1.16,4.58,4.58,0,0,1-.32,3.56,3.37,3.37,0,0,1-1.75,1.4l-.37-1.22a2.33,2.33,0,0,0,1.21-.86,2.79,2.79,0,0,0,.39-1.59,2.53,2.53,0,0,0-.16-.91,2.32,2.32,0,0,0-.45-.76,2.11,2.11,0,0,0-.71-.51,2.33,2.33,0,0,0-.92-.19,2.27,2.27,0,0,0-1.08.24,2.09,2.09,0,0,0-.71.64,2.81,2.81,0,0,0-.39.92,4.83,4.83,0,0,0-.12,1.08v.5Z"/><path class="cls-4" d="M4.52,141.5v4.62l3.4.08a3.77,3.77,0,0,1-.2-.75,4,4,0,0,1-.07-.77,3.75,3.75,0,0,1,.27-1.45,3.31,3.31,0,0,1,.76-1.13,3.49,3.49,0,0,1,1.16-.74,4,4,0,0,1,1.44-.26,3.65,3.65,0,0,1,1.5.29,3.39,3.39,0,0,1,1.17.8,3.72,3.72,0,0,1,.76,1.2,4.19,4.19,0,0,1,.27,1.52,3.71,3.71,0,0,1-.51,1.93A3.34,3.34,0,0,1,13,148.17L12.47,147a2.6,2.6,0,0,0,1.06-.9,2.28,2.28,0,0,0,.39-1.32,2.35,2.35,0,0,0-.2-1,2.64,2.64,0,0,0-.53-.81,2.46,2.46,0,0,0-.8-.54,2.54,2.54,0,0,0-1-.2,2.75,2.75,0,0,0-1.09.21,2.69,2.69,0,0,0-.86.57,2.57,2.57,0,0,0-.55.88A3.14,3.14,0,0,0,8.71,145a4.16,4.16,0,0,0,.17,1.21,6,6,0,0,0,.45,1.15l-5.87-.12V141.5Z"/><path class="cls-4" d="M3.27,135.11a3.14,3.14,0,0,1,.56-2A3.67,3.67,0,0,1,5.25,132a6.17,6.17,0,0,1,1.9-.56,13.68,13.68,0,0,1,2-.15,13.82,13.82,0,0,1,2,.15A6.17,6.17,0,0,1,13,132a3.67,3.67,0,0,1,1.42,1.17,3.73,3.73,0,0,1,0,3.93A3.86,3.86,0,0,1,13,138.25a6.45,6.45,0,0,1-1.9.56,14,14,0,0,1-3.95,0,6.45,6.45,0,0,1-1.9-.56,3.86,3.86,0,0,1-1.42-1.17A3.17,3.17,0,0,1,3.27,135.11Zm1.05,0a2.09,2.09,0,0,0,.5,1.47,3.3,3.3,0,0,0,1.23.81,6.09,6.09,0,0,0,1.57.34c.55.05,1.06.07,1.5.07s1,0,1.51-.07a6.18,6.18,0,0,0,1.57-.34,3.3,3.3,0,0,0,1.23-.81,2.44,2.44,0,0,0,0-2.93,3.08,3.08,0,0,0-1.23-.81,6.18,6.18,0,0,0-1.57-.34c-.56-.05-1.06-.07-1.51-.07s-.95,0-1.5.07a6.09,6.09,0,0,0-1.57.34,3.08,3.08,0,0,0-1.23.81A2.09,2.09,0,0,0,4.32,135.11Z"/><path class="cls-4" d="M9,124.11c-.27,0-.55,0-.83,0l-.83.06v-1.14H8.44v0a2.52,2.52,0,0,1-1-1.07,3.05,3.05,0,0,1-.33-1.35,3.83,3.83,0,0,1,.06-.65,2.25,2.25,0,0,1,.23-.66,2.39,2.39,0,0,1,.48-.6,2.45,2.45,0,0,1,.78-.47,2.5,2.5,0,0,1-1.14-1,2.85,2.85,0,0,1-.41-1.45,2.69,2.69,0,0,1,.76-2.12,3.11,3.11,0,0,1,2.17-.69h4.75v1H10.42a3.2,3.2,0,0,0-1.74.4,1.65,1.65,0,0,0-.61,1.49,2,2,0,0,0,.23,1,1.76,1.76,0,0,0,.62.65,2.42,2.42,0,0,0,.87.36,4.17,4.17,0,0,0,1,.11h4v1.06H10.42a3.11,3.11,0,0,0-1.74.4,1.64,1.64,0,0,0-.61,1.49,3.61,3.61,0,0,0,.06.44,1.67,1.67,0,0,0,.35.71,2.58,2.58,0,0,0,.87.66,3.51,3.51,0,0,0,1.6.3h3.84v1.06Z"/><path class="cls-4" d="M9,110l-.83,0-.83,0v-1.13H8.44v0a2.58,2.58,0,0,1-1-1.07,3.05,3.05,0,0,1-.33-1.35,3.83,3.83,0,0,1,.06-.65,2.25,2.25,0,0,1,.23-.66,2.08,2.08,0,0,1,.48-.6,2.28,2.28,0,0,1,.78-.47,2.56,2.56,0,0,1-1.14-1,2.85,2.85,0,0,1-.41-1.45,2.73,2.73,0,0,1,.76-2.13A3.15,3.15,0,0,1,10,98.83h4.75v1H10.42a3.2,3.2,0,0,0-1.74.4,1.64,1.64,0,0,0-.61,1.49,2,2,0,0,0,.23,1,1.84,1.84,0,0,0,.62.65,2.62,2.62,0,0,0,.87.36,4.74,4.74,0,0,0,1,.11h4v1.06H10.42a3.11,3.11,0,0,0-1.74.4,1.63,1.63,0,0,0-.61,1.49,3.61,3.61,0,0,0,.06.44,1.67,1.67,0,0,0,.35.71,2.72,2.72,0,0,0,.87.66,3.51,3.51,0,0,0,1.6.3h3.84v1Z"/><line class="cls-2" x1="26.5" y1="223.54" x2="84.07" y2="223.54"/><line class="cls-2" x1="26.5" y1="222.75" x2="26.5" y2="224.33"/><line class="cls-2" x1="84.07" y1="222.75" x2="84.07" y2="224.33"/><path class="cls-4" d="M28.79,245.87H27.64V236l-2,1.79-.72-.86,2.88-2.37h1Z"/><path class="cls-4" d="M41.85,245.87h-7.2v-1.33L39.16,240l.51-.55a4,4,0,0,0,.47-.61,2.78,2.78,0,0,0,.33-.67,2,2,0,0,0,.13-.74,1.9,1.9,0,0,0-.17-.83,1.68,1.68,0,0,0-.47-.62,2.08,2.08,0,0,0-.7-.39,2.66,2.66,0,0,0-.85-.14,2.28,2.28,0,0,0-1.47.48,2.17,2.17,0,0,0-.79,1.3l-1.21-.13a3.16,3.16,0,0,1,1.16-2,3.45,3.45,0,0,1,2.23-.72,4.59,4.59,0,0,1,1.3.18,3.2,3.2,0,0,1,1.09.55,2.58,2.58,0,0,1,.75.92,2.79,2.79,0,0,1,.28,1.29,3.29,3.29,0,0,1-.2,1.2,4.46,4.46,0,0,1-.52,1,6.26,6.26,0,0,1-.72.91c-.28.29-.56.58-.84.85l-3.57,3.54h6Z"/><path class="cls-4" d="M49,234.35a3.19,3.19,0,0,1,2,.56,3.66,3.66,0,0,1,1.16,1.42,6.17,6.17,0,0,1,.56,1.9,13.58,13.58,0,0,1,.15,2,13.82,13.82,0,0,1-.15,2,6,6,0,0,1-.56,1.89A3.77,3.77,0,0,1,51,245.5a3.75,3.75,0,0,1-3.94,0,3.89,3.89,0,0,1-1.17-1.43,6.3,6.3,0,0,1-.56-1.89,13.76,13.76,0,0,1-.14-2,13.53,13.53,0,0,1,.14-2,6.45,6.45,0,0,1,.56-1.9A3.78,3.78,0,0,1,47,234.91,3.17,3.17,0,0,1,49,234.35Zm0,1.05a2.09,2.09,0,0,0-1.47.5,3.3,3.3,0,0,0-.81,1.23,6.09,6.09,0,0,0-.34,1.57c0,.55-.07,1.05-.07,1.5s0,1,.07,1.51a6.1,6.1,0,0,0,.34,1.56,3.3,3.3,0,0,0,.81,1.23A2,2,0,0,0,49,245a2,2,0,0,0,1.46-.5,3.08,3.08,0,0,0,.81-1.23,5.71,5.71,0,0,0,.34-1.56c0-.56.08-1.06.08-1.51s0-.95-.08-1.5a5.7,5.7,0,0,0-.34-1.57,3.08,3.08,0,0,0-.81-1.23A2.07,2.07,0,0,0,49,235.4Z"/><path class="cls-4" d="M56.35,240c0-.28,0-.55,0-.83s0-.56,0-.83H57.4v1.13h0a2.53,2.53,0,0,1,1.06-1,3.05,3.05,0,0,1,1.35-.33,3.83,3.83,0,0,1,.65.06,2.25,2.25,0,0,1,.66.23,2,2,0,0,1,.6.47,2.44,2.44,0,0,1,.47.79,2.56,2.56,0,0,1,1-1.14,3.1,3.1,0,0,1,3.58.35,3.08,3.08,0,0,1,.68,2.16v4.76H66.46V241.5a3.17,3.17,0,0,0-.4-1.75,1.66,1.66,0,0,0-1.49-.6,1.84,1.84,0,0,0-1.64.84,3,3,0,0,0-.36.88,4.74,4.74,0,0,0-.11,1v4H61.4V241.5a3.17,3.17,0,0,0-.4-1.75,1.65,1.65,0,0,0-1.49-.6l-.44.06a1.73,1.73,0,0,0-.71.35,2.67,2.67,0,0,0-.66.86,3.55,3.55,0,0,0-.3,1.61v3.84h-1Z"/><path class="cls-4" d="M71.74,240c0-.28,0-.55,0-.83s0-.56,0-.83h1.13v1.13h0a2.53,2.53,0,0,1,1.06-1,3.05,3.05,0,0,1,1.35-.33,3.74,3.74,0,0,1,.65.06,2.25,2.25,0,0,1,.66.23,2,2,0,0,1,.6.47,2.64,2.64,0,0,1,.48.79,2.48,2.48,0,0,1,1-1.14,2.78,2.78,0,0,1,1.45-.41,2.73,2.73,0,0,1,2.13.76,3.08,3.08,0,0,1,.69,2.16v4.76H81.85V241.5a3.17,3.17,0,0,0-.4-1.75,1.66,1.66,0,0,0-1.49-.6,1.84,1.84,0,0,0-1.64.84,3,3,0,0,0-.36.88,4.74,4.74,0,0,0-.11,1v4H76.79V241.5a3.27,3.27,0,0,0-.39-1.75,1.67,1.67,0,0,0-1.49-.6l-.44.06a1.71,1.71,0,0,0-.72.35,2.67,2.67,0,0,0-.66.86,3.55,3.55,0,0,0-.3,1.61v3.84H71.74Z"/><g class="cls-5"><line class="cls-6" x1="40.22" y1="215.93" x2="48.05" y2="215.93"/><line class="cls-6" x1="48.05" y1="215.93" x2="70.31" y2="215.93"/><line class="cls-6" x1="40.22" y1="215.93" x2="40.21" y2="215.19"/><line class="cls-6" x1="70.31" y1="215.93" x2="70.33" y2="215.19"/><rect class="cls-6" x="26.5" y="47.35" width="57.54" height="167.84"/></g><line class="cls-6" x1="84.04" y1="51.67" x2="84.04" y2="51.67"/><g class="cls-5"><line class="cls-6" x1="26.5" y1="51.67" x2="26.5" y2="51.67"/></g><line class="cls-6" x1="84.04" y1="210.87" x2="84.04" y2="210.87"/><g class="cls-5"><polyline class="cls-6" points="26.5 210.88 28.89 210.88 28.41 213.75 36.32 213.75 35.84 210.88 44.24 210.88 43.76 213.75 51.67 213.75 51.19 210.88 59.34 210.88 58.86 213.75 66.78 213.75 66.3 210.88 74.69 210.88 74.21 213.75 82.12 213.75 81.64 210.88 84.04 210.88"/><polyline class="cls-6" points="26.5 51.67 28.89 51.67 28.41 48.79 36.32 48.79 35.84 51.67 44.24 51.67 43.76 48.79 51.67 48.79 51.19 51.67 59.34 51.67 58.86 48.79 66.78 48.79 66.3 51.67 74.69 51.67 74.21 48.79 82.12 48.79 81.64 51.67 84.04 51.67"/></g><line class="cls-2" x1="146.01" y1="128.98" x2="198.74" y2="128.98"/><line class="cls-2" x1="146.01" y1="128.19" x2="146.01" y2="129.77"/><line class="cls-2" x1="198.74" y1="128.19" x2="198.74" y2="129.77"/><path class="cls-4" d="M148.64,134.71a5.37,5.37,0,0,1,1.13,1.83,6.5,6.5,0,0,1,0,4.65,5.6,5.6,0,0,1-3.12,3.12,6,6,0,0,1-2.34.45,6.31,6.31,0,0,1-2.06-.34,5.73,5.73,0,0,1-1.71-1l-1.22,1.3-.59-.54,1.21-1.32a5.42,5.42,0,0,1-1.13-1.82,6.19,6.19,0,0,1-.4-2.27,6.39,6.39,0,0,1,.44-2.39,5.69,5.69,0,0,1,3.12-3.12,6.07,6.07,0,0,1,6.12.85l1.21-1.29.59.54Zm-1.36.27a4.23,4.23,0,0,0-1.33-.79,4.93,4.93,0,0,0-1.68-.28,4.72,4.72,0,0,0-2,.4,4.57,4.57,0,0,0-1.47,1.07,4.85,4.85,0,0,0-.91,1.56,5.37,5.37,0,0,0-.32,1.87,5.29,5.29,0,0,0,.28,1.74,4.65,4.65,0,0,0,.8,1.49Zm-6,7.65a4.15,4.15,0,0,0,1.33.79,4.7,4.7,0,0,0,1.68.28,4.5,4.5,0,0,0,1.95-.4,4.29,4.29,0,0,0,1.47-1.07,4.88,4.88,0,0,0,.92-1.56,5.56,5.56,0,0,0,0-3.6,5,5,0,0,0-.81-1.49Z"/><path class="cls-4" d="M158.26,144.47H157.1v-9.89l-2,1.8-.72-.87,2.88-2.37h1Z"/><path class="cls-4" d="M165.89,144.47h-1.15v-9.89l-2,1.8-.72-.87,2.88-2.37h1Z"/><path class="cls-4" d="M172.4,133a3.24,3.24,0,0,1,2,.56,3.89,3.89,0,0,1,1.17,1.43,6.29,6.29,0,0,1,.55,1.89,13.82,13.82,0,0,1,.15,2,13.58,13.58,0,0,1-.15,2,6.44,6.44,0,0,1-.55,1.9,3.78,3.78,0,0,1-1.17,1.42,3.75,3.75,0,0,1-3.94,0,3.78,3.78,0,0,1-1.17-1.42,6.77,6.77,0,0,1-.56-1.9,15.09,15.09,0,0,1-.14-2,15.36,15.36,0,0,1,.14-2,6.6,6.6,0,0,1,.56-1.89,3.89,3.89,0,0,1,1.17-1.43A3.24,3.24,0,0,1,172.4,133Zm0,1.06a2,2,0,0,0-1.46.49,3.11,3.11,0,0,0-.81,1.24,6.11,6.11,0,0,0-.35,1.56c0,.56-.07,1.06-.07,1.51s0,.95.07,1.5a6.09,6.09,0,0,0,.35,1.57,3.08,3.08,0,0,0,.81,1.23,2.38,2.38,0,0,0,2.92,0,3.08,3.08,0,0,0,.81-1.23,6.09,6.09,0,0,0,.35-1.57c0-.55.07-1.05.07-1.5s0-.95-.07-1.51a6.11,6.11,0,0,0-.35-1.56,3.11,3.11,0,0,0-.81-1.24A2,2,0,0,0,172.4,134Z"/><path class="cls-4" d="M179.74,138.65c0-.28,0-.56,0-.83l-.06-.84h1.14v1.14h0a2.44,2.44,0,0,1,1.07-1,2.94,2.94,0,0,1,1.35-.34,3.07,3.07,0,0,1,.65.07,2.23,2.23,0,0,1,1.26.7,2.45,2.45,0,0,1,.47.78,2.42,2.42,0,0,1,1-1.13,3.06,3.06,0,0,1,3.57.34,3.12,3.12,0,0,1,.69,2.17v4.75h-1V140.1a3.25,3.25,0,0,0-.4-1.74,1.68,1.68,0,0,0-1.49-.61,2,2,0,0,0-1,.23,1.84,1.84,0,0,0-.65.62,2.58,2.58,0,0,0-.36.87,4.31,4.31,0,0,0-.11,1v4H184.8V140.1a3.16,3.16,0,0,0-.4-1.74,1.67,1.67,0,0,0-1.49-.61,2.67,2.67,0,0,0-.44.07,1.62,1.62,0,0,0-.71.35,2.42,2.42,0,0,0-.66.86,3.53,3.53,0,0,0-.3,1.6v3.84h-1.06Z"/><path class="cls-4" d="M193.86,138.65c0-.28,0-.56,0-.83s0-.56-.05-.84h1.13v1.14h0a2.44,2.44,0,0,1,1.07-1,2.94,2.94,0,0,1,1.35-.34,3.07,3.07,0,0,1,.65.07,2.25,2.25,0,0,1,.66.23,2.34,2.34,0,0,1,.6.47,2.28,2.28,0,0,1,.47.78,2.48,2.48,0,0,1,1-1.13,2.76,2.76,0,0,1,1.45-.42,2.73,2.73,0,0,1,2.12.76,3.12,3.12,0,0,1,.69,2.17v4.75H204V140.1a3.25,3.25,0,0,0-.4-1.74,1.68,1.68,0,0,0-1.49-.61,2,2,0,0,0-1,.23,1.84,1.84,0,0,0-.65.62,2.58,2.58,0,0,0-.36.87,4.31,4.31,0,0,0-.11,1v4h-1.06V140.1a3.16,3.16,0,0,0-.4-1.74,1.67,1.67,0,0,0-1.49-.61,2.67,2.67,0,0,0-.44.07,1.67,1.67,0,0,0-.71.35,2.53,2.53,0,0,0-.66.86,3.53,3.53,0,0,0-.3,1.6v3.84h-1Z"/><path class="cls-4" d="M222.94,120.34v1.16h-9.88l1.79,2-.87.72-2.36-2.88v-1Z"/><path class="cls-4" d="M211.42,113.69a3.24,3.24,0,0,1,.56-2,3.89,3.89,0,0,1,1.43-1.17,6.39,6.39,0,0,1,1.89-.56,15.36,15.36,0,0,1,2-.14,15.09,15.09,0,0,1,2,.14,6.37,6.37,0,0,1,1.9.56,3.89,3.89,0,0,1,1.43,1.17,3.75,3.75,0,0,1,0,3.94,3.77,3.77,0,0,1-1.43,1.16,6.09,6.09,0,0,1-1.9.56,13.58,13.58,0,0,1-2,.15,13.82,13.82,0,0,1-2-.15,6.11,6.11,0,0,1-1.89-.56,3.77,3.77,0,0,1-1.43-1.16A3.26,3.26,0,0,1,211.42,113.69Zm1.06,0a2,2,0,0,0,.5,1.46,3.08,3.08,0,0,0,1.23.81,5.7,5.7,0,0,0,1.57.34c.55,0,1.05.08,1.5.08s.95,0,1.5-.08a5.7,5.7,0,0,0,1.57-.34,3.08,3.08,0,0,0,1.23-.81,2.07,2.07,0,0,0,.5-1.46,2.09,2.09,0,0,0-.5-1.47,3.17,3.17,0,0,0-1.23-.8,5.71,5.71,0,0,0-1.57-.35c-.55,0-1.05-.07-1.5-.07s-.95,0-1.5.07a5.71,5.71,0,0,0-1.57.35,3.17,3.17,0,0,0-1.23.8A2,2,0,0,0,212.48,113.69Z"/><path class="cls-4" d="M211.42,104.31a3.26,3.26,0,0,1,.56-2,3.77,3.77,0,0,1,1.43-1.16,6.11,6.11,0,0,1,1.89-.56,13.82,13.82,0,0,1,2-.15,13.58,13.58,0,0,1,2,.15,6.09,6.09,0,0,1,1.9.56,3.77,3.77,0,0,1,1.43,1.16,3.75,3.75,0,0,1,0,3.94,3.89,3.89,0,0,1-1.43,1.17,6.37,6.37,0,0,1-1.9.56,15.09,15.09,0,0,1-2,.14,15.36,15.36,0,0,1-2-.14,6.39,6.39,0,0,1-1.89-.56,3.89,3.89,0,0,1-1.43-1.17A3.24,3.24,0,0,1,211.42,104.31Zm1.06,0a2,2,0,0,0,.5,1.47,3.17,3.17,0,0,0,1.23.8,5.71,5.71,0,0,0,1.57.35c.55,0,1.05.07,1.5.07s.95,0,1.5-.07a5.71,5.71,0,0,0,1.57-.35,3.17,3.17,0,0,0,1.23-.8,2.09,2.09,0,0,0,.5-1.47,2.07,2.07,0,0,0-.5-1.46,3.08,3.08,0,0,0-1.23-.81,5.7,5.7,0,0,0-1.57-.34c-.55,0-1.05-.08-1.5-.08s-.95,0-1.5.08a5.7,5.7,0,0,0-1.57.34,3.08,3.08,0,0,0-1.23.81A2,2,0,0,0,212.48,104.31Z"/><path class="cls-4" d="M217.12,97c-.28,0-.56,0-.83,0l-.83,0V95.9h1.13v0a2.41,2.41,0,0,1-1-1.06,3.07,3.07,0,0,1-.34-1.35,3.9,3.9,0,0,1,.07-.65,2.25,2.25,0,0,1,.23-.66,2,2,0,0,1,.47-.6,2.52,2.52,0,0,1,.79-.48,2.43,2.43,0,0,1-1.14-1,3.07,3.07,0,0,1,.34-3.58,3.12,3.12,0,0,1,2.17-.69h4.75v1.06h-4.36a3.17,3.17,0,0,0-1.75.4,1.67,1.67,0,0,0-.61,1.49,1.87,1.87,0,0,0,.85,1.64,3.07,3.07,0,0,0,.87.36,4.9,4.9,0,0,0,1,.11h4V91.9h-4.36a3.17,3.17,0,0,0-1.75.4,1.65,1.65,0,0,0-.61,1.48,3.87,3.87,0,0,0,.07.44,1.71,1.71,0,0,0,.35.72,2.67,2.67,0,0,0,.86.66,3.53,3.53,0,0,0,1.6.3h3.84v1Z"/><path class="cls-4" d="M217.12,82.86c-.28,0-.56,0-.83,0l-.83.06V81.8h1.13v0a2.44,2.44,0,0,1-1-1.07,3.07,3.07,0,0,1-.34-1.35,3.9,3.9,0,0,1,.07-.65,2.25,2.25,0,0,1,.23-.66,2.34,2.34,0,0,1,.47-.6,2.51,2.51,0,0,1,.79-.47,2.45,2.45,0,0,1-1.14-1,2.76,2.76,0,0,1-.42-1.45,2.73,2.73,0,0,1,.76-2.12,3.12,3.12,0,0,1,2.17-.69h4.75v1h-4.36a3.26,3.26,0,0,0-1.75.4,1.68,1.68,0,0,0-.61,1.49,1.86,1.86,0,0,0,.24,1,1.81,1.81,0,0,0,.61.65,2.58,2.58,0,0,0,.87.36,4.31,4.31,0,0,0,1,.11h4V77.8h-4.36a3.17,3.17,0,0,0-1.75.4,1.67,1.67,0,0,0-.61,1.49c0,.06,0,.21.07.44a1.67,1.67,0,0,0,.35.71,2.53,2.53,0,0,0,.86.66,3.53,3.53,0,0,0,1.6.3h3.84v1.06Z"/><line class="cls-2" x1="116.45" y1="210.93" x2="116.45" y2="215.61"/><line class="cls-2" x1="117.24" y1="210.93" x2="115.66" y2="210.93"/><line class="cls-2" x1="117.24" y1="215.61" x2="115.66" y2="215.61"/><path class="cls-4" d="M185.65,239.29h.6a3.75,3.75,0,0,0,.95-.12,2.11,2.11,0,0,0,.79-.36,1.75,1.75,0,0,0,.53-.64,2.06,2.06,0,0,0,.2-1,1.82,1.82,0,0,0-.55-1.42,2.18,2.18,0,0,0-1.54-.5,2.42,2.42,0,0,0-1.27.32,2.46,2.46,0,0,0-.89.92l-1-.51a3.39,3.39,0,0,1,1.3-1.35,3.76,3.76,0,0,1,1.84-.44,4,4,0,0,1,1.26.19,3.18,3.18,0,0,1,1,.57,2.62,2.62,0,0,1,.71.93,2.83,2.83,0,0,1,.27,1.25,2.33,2.33,0,0,1-.16.88,2.93,2.93,0,0,1-.41.76,3.11,3.11,0,0,1-.62.58,2.83,2.83,0,0,1-.73.38l0,0a2.28,2.28,0,0,1,.88.36,2.51,2.51,0,0,1,.69.65,3.06,3.06,0,0,1,.45.86,3.1,3.1,0,0,1,.16,1,3.23,3.23,0,0,1-.29,1.39,2.84,2.84,0,0,1-.78,1,3.59,3.59,0,0,1-1.15.64,4.61,4.61,0,0,1-1.4.21,4.24,4.24,0,0,1-2.17-.54,3.31,3.31,0,0,1-1.39-1.75l1.21-.36a2.34,2.34,0,0,0,.86,1.2,3.08,3.08,0,0,0,2.5.24,2.34,2.34,0,0,0,.76-.46,2,2,0,0,0,.51-.71,2.12,2.12,0,0,0,.19-.91,2.21,2.21,0,0,0-.24-1.08,2,2,0,0,0-.64-.72,2.72,2.72,0,0,0-.92-.39,4.83,4.83,0,0,0-1.08-.12h-.5Z"/><path class="cls-4" d="M199.19,235.48h-4.62l-.08,3.41a3.21,3.21,0,0,1,.75-.21,4.88,4.88,0,0,1,.76-.07,3.8,3.8,0,0,1,1.46.28,3.26,3.26,0,0,1,1.13.76,3.61,3.61,0,0,1,.74,1.15,4,4,0,0,1,.26,1.45,3.81,3.81,0,0,1-.29,1.49,3.43,3.43,0,0,1-.8,1.17,3.51,3.51,0,0,1-1.21.76,4.1,4.1,0,0,1-1.51.27,3.77,3.77,0,0,1-1.94-.51,3.35,3.35,0,0,1-1.32-1.5l1.15-.5a2.58,2.58,0,0,0,.89,1.06,2.25,2.25,0,0,0,1.33.4,2.55,2.55,0,0,0,1-.2,2.87,2.87,0,0,0,.81-.54,2.68,2.68,0,0,0,.54-.8,2.54,2.54,0,0,0,.2-1,2.75,2.75,0,0,0-.21-1.09,2.56,2.56,0,0,0-.58-.86,2.48,2.48,0,0,0-.88-.55,3.1,3.1,0,0,0-1.12-.19,4.46,4.46,0,0,0-1.2.17,5.5,5.5,0,0,0-1.15.45l.11-5.87h5.78Z"/><path class="cls-4" d="M205.57,234.23a3.24,3.24,0,0,1,2,.56,3.86,3.86,0,0,1,1.17,1.42,6.45,6.45,0,0,1,.56,1.9,14,14,0,0,1,0,3.95,6.45,6.45,0,0,1-.56,1.9,3.86,3.86,0,0,1-1.17,1.42,3.73,3.73,0,0,1-3.93,0,3.67,3.67,0,0,1-1.17-1.42,6.17,6.17,0,0,1-.56-1.9,13.08,13.08,0,0,1,0-3.95,6.17,6.17,0,0,1,.56-1.9,3.67,3.67,0,0,1,1.17-1.42A3.21,3.21,0,0,1,205.57,234.23Zm0,1.06a2.06,2.06,0,0,0-1.46.49,3.08,3.08,0,0,0-.81,1.23,5.78,5.78,0,0,0-.34,1.57c-.05.56-.08,1.06-.08,1.51s0,.95.08,1.5a5.78,5.78,0,0,0,.34,1.57,3.08,3.08,0,0,0,.81,1.23,2.07,2.07,0,0,0,1.46.5,2.09,2.09,0,0,0,1.47-.5,3.17,3.17,0,0,0,.8-1.23,5.79,5.79,0,0,0,.35-1.57c.05-.55.07-1.06.07-1.5s0-1-.07-1.51a5.79,5.79,0,0,0-.35-1.57,3.17,3.17,0,0,0-.8-1.23A2.09,2.09,0,0,0,205.57,235.29Z"/><path class="cls-4" d="M212.93,239.93c0-.28,0-.56,0-.84l-.06-.83H214v1.14h0a2.47,2.47,0,0,1,1.06-1,3,3,0,0,1,1.36-.34,3.72,3.72,0,0,1,.64.06,2.31,2.31,0,0,1,1.27.71,2.45,2.45,0,0,1,.47.78,2.38,2.38,0,0,1,1-1.13,3.06,3.06,0,0,1,3.57.34,3.12,3.12,0,0,1,.69,2.17v4.75H223v-4.37a3.11,3.11,0,0,0-.4-1.74,1.62,1.62,0,0,0-1.48-.61,2,2,0,0,0-1,.23,1.9,1.9,0,0,0-.64.62,2.42,2.42,0,0,0-.36.87,4.25,4.25,0,0,0-.12,1v4h-1v-4.37a3.2,3.2,0,0,0-.4-1.74,1.64,1.64,0,0,0-1.49-.61l-.44.06a1.65,1.65,0,0,0-.71.36,2.55,2.55,0,0,0-.67.86,3.66,3.66,0,0,0-.29,1.6v3.84h-1.06Z"/><path class="cls-4" d="M227,239.93q0-.42,0-.84c0-.27,0-.55-.05-.83h1.13v1.14h0a2.41,2.41,0,0,1,1.06-1,2.94,2.94,0,0,1,1.35-.34,3.74,3.74,0,0,1,.65.06,2.28,2.28,0,0,1,.66.24,2.22,2.22,0,0,1,.61.47,2.65,2.65,0,0,1,.47.78,2.41,2.41,0,0,1,1-1.13,2.79,2.79,0,0,1,1.45-.42,2.73,2.73,0,0,1,2.13.76,3.12,3.12,0,0,1,.69,2.17v4.75h-1.06v-4.37a3.11,3.11,0,0,0-.4-1.74,1.64,1.64,0,0,0-1.49-.61,2,2,0,0,0-1,.23,1.93,1.93,0,0,0-.65.62,2.84,2.84,0,0,0-.36.87,4.83,4.83,0,0,0-.11,1v4h-1.06v-4.37a3.11,3.11,0,0,0-.4-1.74,1.62,1.62,0,0,0-1.48-.61l-.44.06a1.74,1.74,0,0,0-.72.36,2.67,2.67,0,0,0-.66.86,3.51,3.51,0,0,0-.3,1.6v3.84H227Z"/><path class="cls-4" d="M104.19,221.87l0,0a1.82,1.82,0,0,1,.3.7,4.12,4.12,0,0,1,.11.81,3.42,3.42,0,0,1-.25,1.33,3.33,3.33,0,0,1-.71,1.08,3.54,3.54,0,0,1-2.5,1,3.68,3.68,0,0,1-1.43-.24,3.11,3.11,0,0,1-1.11-.73,3.42,3.42,0,0,1-.74-1.12,3.72,3.72,0,0,1-.27-1.43,3.9,3.9,0,0,1,.23-1.43,3.33,3.33,0,0,1,.71-1.14,3.11,3.11,0,0,1,1.09-.76,3.6,3.6,0,0,1,1.42-.29,4.62,4.62,0,0,1,1.65.25,10.43,10.43,0,0,1,1.4.66l5,2.9,0,1.31ZM101,220.8a2.77,2.77,0,0,0-1,.19,2.33,2.33,0,0,0-.77.52,2.4,2.4,0,0,0-.49.78,2.77,2.77,0,0,0,0,2,2.58,2.58,0,0,0,.51.77,2.25,2.25,0,0,0,.78.49,2.64,2.64,0,0,0,1,.17,2.57,2.57,0,0,0,1-.2,2.16,2.16,0,0,0,.77-.51,2.11,2.11,0,0,0,.49-.78,2.73,2.73,0,0,0,.17-1,2.86,2.86,0,0,0-.19-1,2.18,2.18,0,0,0-.52-.77A2.25,2.25,0,0,0,102,221,2.46,2.46,0,0,0,101,220.8Z"/><path class="cls-4" d="M103.15,216.08l-.83,0-.83.06,0-1.1,1.14,0v0a2.46,2.46,0,0,1-1-1,3,3,0,0,1-.35-1.31,3.52,3.52,0,0,1,.06-.63,2.17,2.17,0,0,1,.22-.65,2.25,2.25,0,0,1,.46-.59,2.65,2.65,0,0,1,.78-.47,2.42,2.42,0,0,1-1.15-1,2.93,2.93,0,0,1,.3-3.47,3.18,3.18,0,0,1,2.16-.7l4.75-.06v1l-4.37.06a3.27,3.27,0,0,0-1.73.41,1.57,1.57,0,0,0-.59,1.45,1.75,1.75,0,0,0,.24,1,1.78,1.78,0,0,0,.63.62,2.68,2.68,0,0,0,.87.34,4.9,4.9,0,0,0,1,.1l4-.06,0,1-4.37.06a3.22,3.22,0,0,0-1.74.41,1.6,1.6,0,0,0-.59,1.45c0,.06,0,.2.07.43a1.59,1.59,0,0,0,.37.68,2.46,2.46,0,0,0,.87.64,3.73,3.73,0,0,0,1.6.26L109,215l0,1Z"/><path class="cls-4" d="M103,202.41l-.83,0-.83.07V201.4h1.13v0a2.52,2.52,0,0,1-1-1,3,3,0,0,1-.36-1.31,3.52,3.52,0,0,1,.06-.63,2.15,2.15,0,0,1,.68-1.24,2.55,2.55,0,0,1,.78-.46,2.52,2.52,0,0,1-1.15-1,2.94,2.94,0,0,1,.3-3.48,3.23,3.23,0,0,1,2.16-.7l4.75-.06v1l-4.36.06a3.19,3.19,0,0,0-1.74.42,1.57,1.57,0,0,0-.59,1.45,2,2,0,0,0,.24,1,2,2,0,0,0,.63.62,2.72,2.72,0,0,0,.88.33,4.74,4.74,0,0,0,1,.1l4-.06v1l-4.37.06a3.33,3.33,0,0,0-1.74.41,1.59,1.59,0,0,0-.58,1.45,2.33,2.33,0,0,0,.07.43,1.54,1.54,0,0,0,.36.69,2.57,2.57,0,0,0,.87.63,3.76,3.76,0,0,0,1.61.26l3.83,0,0,1Z"/><rect class="cls-7" x="124.14" y="47.62" width="167.72" height="4.58"/><rect class="cls-7" x="124.14" y="211.16" width="167.72" height="4.58"/><rect class="cls-7" x="46.95" y="129.39" width="158.96" height="4.58" transform="translate(-5.25 258.11) rotate(-90)"/><rect class="cls-7" x="210.09" y="129.39" width="158.96" height="4.58" transform="translate(157.89 421.24) rotate(-90)"/><rect class="cls-7" x="171.39" y="52.2" width="1.34" height="21.18"/><line class="cls-7" x1="158.88" y1="73.37" x2="185.24" y2="73.37"/><line class="cls-7" x1="145.7" y1="121.15" x2="198.41" y2="121.15"/><line class="cls-7" x1="145.85" y1="121.29" x2="198.27" y2="121.29"/><polyline class="cls-7" points="151.02 77.42 151.26 77.11 151.51 76.8 151.76 76.51 152.02 76.23 152.29 75.96 152.56 75.7 152.84 75.46 153.13 75.23 153.43 75.01 153.73 74.8 154.04 74.61 154.37 74.43 154.7 74.26 155.03 74.11 155.38 73.98 155.73 73.85 156.09 73.74 156.47 73.64 156.84 73.56 157.23 73.5 157.63 73.44 158.04 73.41 158.45 73.38 158.88 73.37"/><polyline class="cls-7" points="193.09 77.42 192.85 77.11 192.61 76.8 192.35 76.51 192.09 76.23 191.82 75.96 191.55 75.7 191.27 75.46 190.98 75.23 190.68 75.01 190.38 74.8 190.07 74.61 189.75 74.43 189.41 74.26 189.08 74.11 188.74 73.98 188.38 73.85 188.02 73.74 187.65 73.64 187.27 73.56 186.88 73.5 186.48 73.44 186.07 73.41 185.66 73.38 185.24 73.37"/><polyline class="cls-7" points="151.02 77.42 150.77 77.79 150.52 78.17 150.28 78.56 150.05 78.97 149.82 79.4 149.6 79.85 149.37 80.33 149.15 80.84 148.93 81.38 148.72 81.96 148.51 82.57 148.3 83.23 148.09 83.92 147.89 84.66 147.7 85.44 147.51 86.27 147.33 87.15 147.16 88.08 147.01 89.05 146.86 90.07 146.72 91.14 146.59 92.26 146.48 93.43 146.38 94.64 146.3 95.89 146.22 97.18 146.16 98.5 146.11 99.86 146.06 101.24 146 104.06 145.97 105.48"/><polyline class="cls-7" points="193.09 77.42 193.35 77.79 193.59 78.17 193.83 78.56 194.06 78.97 194.29 79.4 194.52 79.85 194.74 80.33 194.96 80.84 195.18 81.38 195.39 81.96 195.6 82.57 195.81 83.23 196.02 83.92 196.22 84.66 196.41 85.44 196.6 86.27 196.78 87.15 196.95 88.08 197.11 89.05 197.25 90.07 197.39 91.14 197.52 92.26 197.63 93.43 197.73 94.64 197.82 95.89 197.89 97.18 197.96 98.5 198 99.86 198.05 101.24 198.11 104.06 198.14 105.48"/><line class="cls-7" x1="145.97" y1="105.48" x2="145.7" y2="121.15"/><line class="cls-7" x1="198.14" y1="105.48" x2="198.41" y2="121.15"/><polyline class="cls-7" points="145.7 121.15 145.82 121.29 145.85 121.29"/><polyline class="cls-7" points="198.27 121.29 198.41 121.18 198.41 121.15"/><line class="cls-7" x1="194.68" y1="121.29" x2="197.84" y2="121.29"/><line class="cls-7" x1="146.28" y1="121.29" x2="194.68" y2="121.29"/><line class="cls-7" x1="171.39" y1="52.2" x2="171.39" y2="73.37"/><line class="cls-7" x1="172.73" y1="52.2" x2="172.73" y2="73.37"/><line class="cls-2" x1="207.49" y1="121.04" x2="207.49" y2="73.45"/><line class="cls-2" x1="205.91" y1="73.45" x2="207.49" y2="73.45"/><line class="cls-2" x1="205.91" y1="121.04" x2="207.49" y2="121.04"/></svg>