<svg id="glo-ball_S1" data-name="glo-ball S1" xmlns="http://www.w3.org/2000/svg" viewBox="0 0 300 263">
  <defs>
    <style>
      .cls-1 {
        isolation: isolate;
      }

      .cls-2, .cls-3, .cls-4 {
        fill: none;
        stroke-width: 0.5px;
      }

      .cls-2 {
        stroke: #000;
      }

      .cls-3, .cls-4 {
        stroke: #1d1d1b;
      }

      .cls-3 {
        stroke-miterlimit: 3.86;
      }
    </style>
  </defs>
  <title>glo-ball-suspension-1-morrison-flos-F3005061-spech-tech-02-300x263</title>
  <g class="cls-1">
    <path d="M92,184.45v7.2H90.67l-4.59-4.51-.55-.52a4.64,4.64,0,0,0-.61-.46,3.25,3.25,0,0,0-.67-.34,2.25,2.25,0,0,0-.74-.12,2,2,0,0,0-.83.16,1.82,1.82,0,0,0-.62.48,2.08,2.08,0,0,0-.39.7,2.66,2.66,0,0,0-.14.85,2.3,2.3,0,0,0,.48,1.47,2.11,2.11,0,0,0,1.3.78l-.13,1.22a3.16,3.16,0,0,1-2-1.16,3.45,3.45,0,0,1-.72-2.23,4.66,4.66,0,0,1,.18-1.31,3.24,3.24,0,0,1,.55-1.08,2.72,2.72,0,0,1,.92-.76,2.92,2.92,0,0,1,1.29-.28,3.51,3.51,0,0,1,1.2.2,5.44,5.44,0,0,1,1,.52,7.1,7.1,0,0,1,.91.73c.29.27.58.55.85.84l3.54,3.57v-6Z"/>
    <path d="M81.72,175.94,92,180.5v1.29l-10.28-4.65v5.52h-1v-6.72Z"/>
    <path d="M80.48,170.18a3.17,3.17,0,0,1,.56-2A3.78,3.78,0,0,1,82.46,167a6.45,6.45,0,0,1,1.9-.56,13.53,13.53,0,0,1,2-.14,13.76,13.76,0,0,1,2,.14,6.3,6.3,0,0,1,1.89.56,3.89,3.89,0,0,1,1.43,1.17,3.73,3.73,0,0,1,0,3.93,3.7,3.7,0,0,1-1.43,1.17,6,6,0,0,1-1.89.56,13.82,13.82,0,0,1-2,.15,13.58,13.58,0,0,1-2-.15,6.17,6.17,0,0,1-1.9-.56A3.6,3.6,0,0,1,81,172.14,3.14,3.14,0,0,1,80.48,170.18Zm1,0a2.09,2.09,0,0,0,.5,1.46,3.08,3.08,0,0,0,1.23.81,6.09,6.09,0,0,0,1.57.34c.55.05,1,.07,1.5.07s1,0,1.5-.07a6.09,6.09,0,0,0,1.57-.34,3.08,3.08,0,0,0,1.23-.81,2.4,2.4,0,0,0,0-2.93,3.3,3.3,0,0,0-1.23-.81,6.09,6.09,0,0,0-1.57-.34c-.55-.05-1-.07-1.5-.07s-1,0-1.5.07a6.09,6.09,0,0,0-1.57.34,3.3,3.3,0,0,0-1.23.81A2.09,2.09,0,0,0,81.53,170.18Z"/>
    <path d="M86.17,160.13l-.83,0-.83.06v-1.14h1.13v0a2.59,2.59,0,0,1-1-1.06,3.12,3.12,0,0,1-.33-1.36,3.72,3.72,0,0,1,.06-.64,2.42,2.42,0,0,1,.23-.67,2.34,2.34,0,0,1,.47-.6,2.85,2.85,0,0,1,.79-.47,2.45,2.45,0,0,1-1.14-1,3.09,3.09,0,0,1,.35-3.57,3.08,3.08,0,0,1,2.16-.69H92V150H87.63a3.17,3.17,0,0,0-1.75.4,1.64,1.64,0,0,0-.6,1.48,1.92,1.92,0,0,0,.23,1,1.87,1.87,0,0,0,.61.64,2.55,2.55,0,0,0,.88.36,4.17,4.17,0,0,0,1,.12h4v1H87.63a3.26,3.26,0,0,0-1.75.4,1.66,1.66,0,0,0-.6,1.49,3.61,3.61,0,0,0,.06.44,1.62,1.62,0,0,0,.35.71,2.55,2.55,0,0,0,.86.67,3.71,3.71,0,0,0,1.61.29H92v1.06Z"/>
    <path d="M86.17,146.5c-.28,0-.55,0-.83,0s-.56,0-.83.06v-1.14h1.13v0a2.56,2.56,0,0,1-1-1.07,3.05,3.05,0,0,1-.33-1.35,3.83,3.83,0,0,1,.06-.65,2.23,2.23,0,0,1,.7-1.26,2.63,2.63,0,0,1,.79-.47,2.5,2.5,0,0,1-1.14-1,2.73,2.73,0,0,1-.41-1.45,2.69,2.69,0,0,1,.76-2.12,3.08,3.08,0,0,1,2.16-.69H92v1H87.63a3.17,3.17,0,0,0-1.75.41,1.64,1.64,0,0,0-.6,1.48,1.86,1.86,0,0,0,.23,1,1.81,1.81,0,0,0,.61.65,2.55,2.55,0,0,0,.88.36,4.17,4.17,0,0,0,1,.11h4v1.06H87.63a3.17,3.17,0,0,0-1.75.4,1.66,1.66,0,0,0-.6,1.49,3.61,3.61,0,0,0,.06.44,1.62,1.62,0,0,0,.35.71,2.42,2.42,0,0,0,.86.66,3.55,3.55,0,0,0,1.61.3H92v1.06Z"/>
  </g>
  <g class="cls-1">
    <path d="M85.53,121.21v-.59a4.19,4.19,0,0,0-.11-1,2.44,2.44,0,0,0-.36-.8,1.79,1.79,0,0,0-.65-.53,2.06,2.06,0,0,0-1-.2,1.79,1.79,0,0,0-1.41.55,2.18,2.18,0,0,0-.51,1.54,2.49,2.49,0,0,0,.32,1.27,2.42,2.42,0,0,0,.93.89l-.51,1a3.33,3.33,0,0,1-1.35-1.3,3.65,3.65,0,0,1-.44-1.83,4.07,4.07,0,0,1,.19-1.27,2.85,2.85,0,0,1,.57-1,2.71,2.71,0,0,1,.92-.71,2.84,2.84,0,0,1,1.26-.26,2.58,2.58,0,0,1,.88.15,2.72,2.72,0,0,1,.75.41,2.83,2.83,0,0,1,.58.62,2.48,2.48,0,0,1,.38.74l0,0a2.64,2.64,0,0,1,.36-.88,2.67,2.67,0,0,1,.65-.69,3.12,3.12,0,0,1,.87-.45,3.32,3.32,0,0,1,1-.16,3.27,3.27,0,0,1,1.4.29,3,3,0,0,1,1,.78,3.34,3.34,0,0,1,.63,1.16,4.22,4.22,0,0,1,.22,1.39,4.14,4.14,0,0,1-.55,2.17,3.3,3.3,0,0,1-1.74,1.4l-.37-1.22a2.33,2.33,0,0,0,1.21-.86,2.77,2.77,0,0,0,.39-1.59,2.53,2.53,0,0,0-.16-.91,2.34,2.34,0,0,0-.46-.76,1.93,1.93,0,0,0-.71-.51,2.24,2.24,0,0,0-.91-.19,2.21,2.21,0,0,0-1.08.24,2.09,2.09,0,0,0-.71.64,2.81,2.81,0,0,0-.39.92,4.83,4.83,0,0,0-.12,1.08v.5Z"/>
    <path d="M81.72,108,92,112.55v1.3l-10.28-4.66v5.52h-1V108Z"/>
    <path d="M80.48,102.23a3.14,3.14,0,0,1,.56-2,3.6,3.6,0,0,1,1.42-1.17,6.17,6.17,0,0,1,1.9-.56,13.58,13.58,0,0,1,2-.15,13.82,13.82,0,0,1,2,.15,6,6,0,0,1,1.89.56,3.7,3.7,0,0,1,1.43,1.17,3.73,3.73,0,0,1,0,3.93,3.89,3.89,0,0,1-1.43,1.17,6.3,6.3,0,0,1-1.89.56,13.76,13.76,0,0,1-2,.14,13.53,13.53,0,0,1-2-.14,6.45,6.45,0,0,1-1.9-.56A3.78,3.78,0,0,1,81,104.2,3.17,3.17,0,0,1,80.48,102.23Zm1,0a2.09,2.09,0,0,0,.5,1.47,3.19,3.19,0,0,0,1.23.81,6.09,6.09,0,0,0,1.57.34c.55.05,1,.07,1.5.07s1,0,1.5-.07a6.09,6.09,0,0,0,1.57-.34,3.19,3.19,0,0,0,1.23-.81,2.4,2.4,0,0,0,0-2.93A3.08,3.08,0,0,0,89.4,100a6.09,6.09,0,0,0-1.57-.34c-.55-.05-1-.07-1.5-.07s-1,0-1.5.07a6.09,6.09,0,0,0-1.57.34,3.08,3.08,0,0,0-1.23.81A2.09,2.09,0,0,0,81.53,102.23Z"/>
    <path d="M80.48,93.34a3.17,3.17,0,0,1,.56-2,3.78,3.78,0,0,1,1.42-1.17,6.45,6.45,0,0,1,1.9-.56,15.09,15.09,0,0,1,2-.14,15.36,15.36,0,0,1,2,.14,6.3,6.3,0,0,1,1.89.56,3.89,3.89,0,0,1,1.43,1.17,3.75,3.75,0,0,1,0,3.94,3.77,3.77,0,0,1-1.43,1.16,6,6,0,0,1-1.89.56,13.82,13.82,0,0,1-2,.15,13.58,13.58,0,0,1-2-.15,6.17,6.17,0,0,1-1.9-.56A3.66,3.66,0,0,1,81,95.31,3.19,3.19,0,0,1,80.48,93.34Zm1,0A2.07,2.07,0,0,0,82,94.8a3.08,3.08,0,0,0,1.23.81,5.7,5.7,0,0,0,1.57.34c.55,0,1,.08,1.5.08s1,0,1.5-.08a5.7,5.7,0,0,0,1.57-.34,3.08,3.08,0,0,0,1.23-.81,2,2,0,0,0,.5-1.46,2,2,0,0,0-.5-1.47,3.17,3.17,0,0,0-1.23-.8,5.71,5.71,0,0,0-1.57-.35c-.55,0-1-.07-1.5-.07s-1,0-1.5.07a5.71,5.71,0,0,0-1.57.35,3.17,3.17,0,0,0-1.23.8A2.09,2.09,0,0,0,81.53,93.34Z"/>
    <path d="M86.17,83.29l-.83,0-.83.06V82.23h1.13v0a2.53,2.53,0,0,1-1-1.06,3.12,3.12,0,0,1-.33-1.35,3.74,3.74,0,0,1,.06-.65,2.42,2.42,0,0,1,.23-.67,2.34,2.34,0,0,1,.47-.6,2.85,2.85,0,0,1,.79-.47,2.48,2.48,0,0,1-1.14-1,2.78,2.78,0,0,1-.41-1.45,2.73,2.73,0,0,1,.76-2.13,3.08,3.08,0,0,1,2.16-.69H92v1.06H87.63a3.17,3.17,0,0,0-1.75.4,1.65,1.65,0,0,0-.6,1.49,1.91,1.91,0,0,0,.23,1,2,2,0,0,0,.61.65,3,3,0,0,0,.88.36,4.74,4.74,0,0,0,1,.11h4v1H87.63a3.26,3.26,0,0,0-1.75.4,1.67,1.67,0,0,0-.6,1.49,3.37,3.37,0,0,0,.06.44,1.62,1.62,0,0,0,.35.71,2.55,2.55,0,0,0,.86.67,3.71,3.71,0,0,0,1.61.29H92v1.06Z"/>
    <path d="M86.17,69.66l-.83,0-.83.06V68.6h1.13v0a2.59,2.59,0,0,1-1-1.06,3.12,3.12,0,0,1-.33-1.36,3.63,3.63,0,0,1,.06-.64,2.42,2.42,0,0,1,.23-.67,2.34,2.34,0,0,1,.47-.6,2.85,2.85,0,0,1,.79-.47,2.45,2.45,0,0,1-1.14-1,3.09,3.09,0,0,1,.35-3.57,3.08,3.08,0,0,1,2.16-.69H92v1.06H87.63a3.17,3.17,0,0,0-1.75.4,1.64,1.64,0,0,0-.6,1.48,1.92,1.92,0,0,0,.23,1,1.87,1.87,0,0,0,.61.64,2.55,2.55,0,0,0,.88.36,4.17,4.17,0,0,0,1,.12h4v1H87.63a3.17,3.17,0,0,0-1.75.4,1.66,1.66,0,0,0-.6,1.49,3.61,3.61,0,0,0,.06.44,1.62,1.62,0,0,0,.35.71,2.55,2.55,0,0,0,.86.67,3.71,3.71,0,0,0,1.61.29H92v1.06Z"/>
  </g>
  <g class="cls-1">
    <path d="M121.56,214.83a3.7,3.7,0,0,1,.68,1.16,4.2,4.2,0,0,1,.25,1.45,4,4,0,0,1-.3,1.56,3.82,3.82,0,0,1-.82,1.25,3.89,3.89,0,0,1-1.26.83,4.39,4.39,0,0,1-1.61.29,4.15,4.15,0,0,1-1.4-.22,3.72,3.72,0,0,1-1.11-.61l-1.07,1.09-.51-.5,1-1.09a3.62,3.62,0,0,1-.69-1.17,4.21,4.21,0,0,1-.24-1.43,4,4,0,0,1,.3-1.57,3.65,3.65,0,0,1,2.08-2.07,4.43,4.43,0,0,1,3-.08,3.89,3.89,0,0,1,1.16.61l1-1.09.51.5Zm-1.25.25a2.69,2.69,0,0,0-1.81-.62,2.87,2.87,0,0,0-1.17.23,2.71,2.71,0,0,0-.88.63,2.91,2.91,0,0,0-.56,1,3.2,3.2,0,0,0-.2,1.17,3,3,0,0,0,.54,1.82Zm-3.6,4.72a2.43,2.43,0,0,0,.8.45,2.86,2.86,0,0,0,1,.16,3,3,0,0,0,1.18-.23,2.62,2.62,0,0,0,1.45-1.58,3.18,3.18,0,0,0,.2-1.16,3.13,3.13,0,0,0-.54-1.83Z"/>
    <path d="M131,214.72h.59a3.69,3.69,0,0,0,.95-.12,2,2,0,0,0,.79-.36,1.78,1.78,0,0,0,.54-.64,2.19,2.19,0,0,0,.2-1,1.86,1.86,0,0,0-.55-1.42,2.21,2.21,0,0,0-1.55-.5,2.36,2.36,0,0,0-1.26.32,2.56,2.56,0,0,0-.9.92l-1-.51a3.41,3.41,0,0,1,1.31-1.35,3.75,3.75,0,0,1,1.83-.44,4,4,0,0,1,1.26.19,3,3,0,0,1,1,.57,2.77,2.77,0,0,1,.72.93,2.94,2.94,0,0,1,.26,1.25,2.54,2.54,0,0,1-.15.88,2.69,2.69,0,0,1-.42.76,3.06,3.06,0,0,1-.61.58,2.89,2.89,0,0,1-.74.38l0,0a2.34,2.34,0,0,1,.88.36,2.83,2.83,0,0,1,.69.65,2.8,2.8,0,0,1,.44.86,3.1,3.1,0,0,1,.16,1,3.26,3.26,0,0,1-.28,1.39,3,3,0,0,1-.79,1,3.49,3.49,0,0,1-1.15.64,4.54,4.54,0,0,1-1.39.21,4.27,4.27,0,0,1-2.18-.54,3.35,3.35,0,0,1-1.39-1.75l1.22-.36a2.33,2.33,0,0,0,.85,1.2,2.71,2.71,0,0,0,1.59.4,2.82,2.82,0,0,0,.92-.16,2.45,2.45,0,0,0,.76-.46,2.15,2.15,0,0,0,.51-.71,2.27,2.27,0,0,0,.18-.91,2.21,2.21,0,0,0-.24-1.08,1.94,1.94,0,0,0-.64-.72,2.64,2.64,0,0,0-.92-.39,4.7,4.7,0,0,0-1.08-.12H131Z"/>
    <path d="M139.86,214.72h.59a3.83,3.83,0,0,0,1-.12,2.11,2.11,0,0,0,.79-.36,1.75,1.75,0,0,0,.53-.64,2.06,2.06,0,0,0,.2-1,1.82,1.82,0,0,0-.55-1.42,2.18,2.18,0,0,0-1.54-.5,2.42,2.42,0,0,0-1.27.32,2.46,2.46,0,0,0-.89.92l-1-.51a3.39,3.39,0,0,1,1.3-1.35,3.76,3.76,0,0,1,1.84-.44,4,4,0,0,1,1.26.19,3.18,3.18,0,0,1,1,.57,2.62,2.62,0,0,1,.71.93,2.8,2.8,0,0,1,.27,1.25,2.33,2.33,0,0,1-.16.88,2.93,2.93,0,0,1-.41.76,3.11,3.11,0,0,1-.62.58,2.83,2.83,0,0,1-.73.38l0,0a2.28,2.28,0,0,1,.88.36,2.51,2.51,0,0,1,.69.65,3.06,3.06,0,0,1,.45.86,3.1,3.1,0,0,1,.16,1,3.26,3.26,0,0,1-.29,1.39,2.84,2.84,0,0,1-.78,1,3.59,3.59,0,0,1-1.15.64,4.61,4.61,0,0,1-1.4.21,4.24,4.24,0,0,1-2.17-.54,3.35,3.35,0,0,1-1.39-1.75l1.21-.36a2.34,2.34,0,0,0,.86,1.2,2.71,2.71,0,0,0,1.59.4,2.76,2.76,0,0,0,.91-.16,2.34,2.34,0,0,0,.76-.46,2,2,0,0,0,.51-.71,2.12,2.12,0,0,0,.19-.91A2.21,2.21,0,0,0,143,217a2,2,0,0,0-.64-.72,2.81,2.81,0,0,0-.92-.39,4.83,4.83,0,0,0-1.08-.12h-.5Z"/>
    <path d="M149.94,209.66a3.24,3.24,0,0,1,2,.56,3.86,3.86,0,0,1,1.17,1.42,6.45,6.45,0,0,1,.56,1.9,14,14,0,0,1,0,4,6.45,6.45,0,0,1-.56,1.9,3.86,3.86,0,0,1-1.17,1.42,3.75,3.75,0,0,1-3.94,0,3.74,3.74,0,0,1-1.16-1.42,6.17,6.17,0,0,1-.56-1.9,13.08,13.08,0,0,1,0-4,6.17,6.17,0,0,1,.56-1.9,3.74,3.74,0,0,1,1.16-1.42A3.26,3.26,0,0,1,149.94,209.66Zm0,1.06a2.06,2.06,0,0,0-1.46.49,3.08,3.08,0,0,0-.81,1.23,5.78,5.78,0,0,0-.34,1.57c-.05.56-.08,1.06-.08,1.51s0,.94.08,1.5a5.78,5.78,0,0,0,.34,1.57,3.08,3.08,0,0,0,.81,1.23,2.07,2.07,0,0,0,1.46.5,2.09,2.09,0,0,0,1.47-.5,3.17,3.17,0,0,0,.8-1.23,5.79,5.79,0,0,0,.35-1.57c.05-.56.07-1.06.07-1.5s0-1-.07-1.51a5.79,5.79,0,0,0-.35-1.57,3.17,3.17,0,0,0-.8-1.23A2.09,2.09,0,0,0,149.94,210.72Z"/>
    <path d="M160,215.36c0-.28,0-.56,0-.84l-.06-.83h1.14v1.14h0a2.41,2.41,0,0,1,1.06-1,3,3,0,0,1,1.35-.34,3.74,3.74,0,0,1,.65.06,2.45,2.45,0,0,1,.67.24,2.34,2.34,0,0,1,.6.47,2.65,2.65,0,0,1,.47.78,2.41,2.41,0,0,1,1-1.13,2.79,2.79,0,0,1,1.45-.42,2.73,2.73,0,0,1,2.13.76,3.12,3.12,0,0,1,.69,2.17v4.75H170.1v-4.37a3.11,3.11,0,0,0-.4-1.74,1.64,1.64,0,0,0-1.49-.61,1.82,1.82,0,0,0-1.64.85,2.84,2.84,0,0,0-.36.87,4.76,4.76,0,0,0-.11,1v4h-1v-4.37a3.2,3.2,0,0,0-.4-1.74,1.65,1.65,0,0,0-1.49-.61l-.44.06a1.65,1.65,0,0,0-.71.36,2.55,2.55,0,0,0-.67.86,3.52,3.52,0,0,0-.29,1.6v3.84H160Z"/>
    <path d="M173.62,215.36c0-.28,0-.56,0-.84l-.06-.83h1.14v1.14h0a2.47,2.47,0,0,1,1.06-1,3,3,0,0,1,1.35-.34,3.74,3.74,0,0,1,.65.06,2.45,2.45,0,0,1,.67.24,2.34,2.34,0,0,1,.6.47,2.65,2.65,0,0,1,.47.78,2.38,2.38,0,0,1,1-1.13,3.06,3.06,0,0,1,3.57.34,3.12,3.12,0,0,1,.69,2.17v4.75h-1.06v-4.37a3.11,3.11,0,0,0-.4-1.74,1.62,1.62,0,0,0-1.48-.61,2,2,0,0,0-1,.23,1.9,1.9,0,0,0-.64.62,2.42,2.42,0,0,0-.36.87,4.19,4.19,0,0,0-.12,1v4h-1v-4.37a3.2,3.2,0,0,0-.4-1.74,1.65,1.65,0,0,0-1.49-.61l-.44.06a1.65,1.65,0,0,0-.71.36,2.55,2.55,0,0,0-.67.86,3.66,3.66,0,0,0-.29,1.6v3.84h-1.06Z"/>
  </g>
  <g>
    <line class="cls-2" x1="102.89" y1="190.85" x2="102.89" y2="135.33"/>
    <line class="cls-2" x1="101.04" y1="135.32" x2="104.59" y2="135.32"/>
    <line class="cls-2" x1="100.36" y1="190.85" x2="105.41" y2="190.85"/>
  </g>
  <g>
    <line class="cls-2" x1="102.89" y1="135.32" x2="102.89" y2="47.06"/>
    <line class="cls-2" x1="101.04" y1="47.03" x2="104.59" y2="47.03"/>
    <line class="cls-2" x1="100.36" y1="135.32" x2="105.41" y2="135.32"/>
  </g>
  <g>
    <g>
      <line class="cls-2" x1="115.49" y1="199.39" x2="184.38" y2="199.39"/>
      <line class="cls-2" x1="115.49" y1="199.1" x2="115.49" y2="199.68"/>
      <line class="cls-2" x1="184.38" y1="199.1" x2="184.38" y2="199.68"/>
    </g>
    <line class="cls-2" x1="115.49" y1="196.86" x2="115.49" y2="201.92"/>
    <line class="cls-2" x1="184.38" y1="196.86" x2="184.38" y2="201.92"/>
  </g>
  <g>
    <line class="cls-3" x1="150.03" y1="137.01" x2="150.03" y2="46.68"/>
    <g>
      <path class="cls-3" d="M150,137a56.48,56.48,0,0,0,2.67-18c0-10.8-8-6.64-8-21,0-8.3,9.13-8.86,9.13-19.65,0-8-8.86-11.08-8.86-21.6v-10"/>
      <path class="cls-3" d="M149.87,137.1A54.52,54.52,0,0,0,152.7,119c0-10.8-8-6.64-8-21,0-8.3,9.13-8.86,9.13-19.65,0-8-8.86-11.08-8.86-21.6v-10"/>
      <path class="cls-3" d="M149.38,138.54c-9.51,0-17.27.9-24.35,6s-10.09,10.7-10.09,20.21,3.39,15,10.09,20.21c6.86,5.33,14.84,5.94,24.35,5.94s17.24-1.14,24.36-5.94,10.09-10.7,10.09-20.21-2.83-14.86-10.09-20.21C166.74,139.32,158.9,138.54,149.38,138.54Z"/>
    </g>
    <path class="cls-4" d="M159.28,139l-2.48-1.91a.2.2,0,0,0-.11,0H142.26a.2.2,0,0,0-.11,0l-2.65,2h0s3.16-.34,3.72-.36,6.18-.22,7-.18l7.66.35A8.17,8.17,0,0,1,159.28,139Z"/>
  </g>
</svg>
