<svg id="Glo_Ball_C2" xmlns="http://www.w3.org/2000/svg" viewBox="0 0 300 263"><defs><style>.cls-1,.cls-3{fill:none;stroke-width:0.5px;}.cls-1{stroke:#000;}.cls-2{isolation:isolate;}.cls-3{stroke:#1d1d1b;stroke-miterlimit:3.86;}</style></defs><title>glo-ball-ceiling-wall-2-morrison-flos-F3028000-spech-tech-02-300x263-01</title><line class="cls-1" x1="123.93" y1="37.21" x2="176.07" y2="37.43"/><line class="cls-1" x1="123.93" y1="36.44" x2="123.92" y2="37.97"/><line class="cls-1" x1="176.08" y1="36.67" x2="176.07" y2="38.19"/><g class="cls-2"><path d="M123.77,21.83a3.5,3.5,0,0,1,.67,1.16,4,4,0,0,1,.25,1.45,4.21,4.21,0,0,1-.31,1.56,3.7,3.7,0,0,1-.83,1.25,3.76,3.76,0,0,1-1.26.82,4.47,4.47,0,0,1-3,.06,4,4,0,0,1-1.11-.62L117.1,28.6l-.51-.5L117.65,27a3.75,3.75,0,0,1-.68-1.18,4.24,4.24,0,0,1,.07-3,3.7,3.7,0,0,1,.83-1.25,3.76,3.76,0,0,1,1.26-.82,4.29,4.29,0,0,1,1.59-.29,4.45,4.45,0,0,1,1.39.23,3.65,3.65,0,0,1,1.15.62l1.06-1.09.51.5Zm-1.25.25a2.7,2.7,0,0,0-1.81-.64,2.94,2.94,0,0,0-1.17.23,2.45,2.45,0,0,0-.88.63,2.89,2.89,0,0,0-.57.94,3.42,3.42,0,0,0-.2,1.17,2.93,2.93,0,0,0,.53,1.82Zm-3.62,4.7a2.72,2.72,0,0,0,.8.45,3.11,3.11,0,0,0,1,.17,3,3,0,0,0,1.18-.23,2.67,2.67,0,0,0,.89-.63,3,3,0,0,0,.57-.94,3.42,3.42,0,0,0,.2-1.17,3,3,0,0,0-.53-1.82Z"/><path d="M131,28.21h-1.16l.05-9.88-2,1.78-.72-.87L130,16.88h1Z"/><path d="M141,24.51h1.64v1.06H141v2.69h-1.15V25.56l-4.9,0V24.22l4.61-7.3H141Zm-1.12-6.44h0l-3.93,6.41,3.93,0Z"/><path d="M150.71,18l-4.62,0-.1,3.41a4.08,4.08,0,0,1,.76-.21,4.9,4.9,0,0,1,.77-.06,3.78,3.78,0,0,1,1.45.28,3.29,3.29,0,0,1,1.13.77,3.58,3.58,0,0,1,.73,1.15,4.14,4.14,0,0,1,0,2.94,3.32,3.32,0,0,1-.81,1.17,3.64,3.64,0,0,1-1.21.75,4.13,4.13,0,0,1-1.51.27,3.72,3.72,0,0,1-1.93-.52A3.26,3.26,0,0,1,144,26.44l1.15-.49a2.67,2.67,0,0,0,.89,1.07,2.28,2.28,0,0,0,1.32.39,2.42,2.42,0,0,0,1-.19,2.72,2.72,0,0,0,.8-.53,2.65,2.65,0,0,0,.55-.8,2.54,2.54,0,0,0,.2-1,2.75,2.75,0,0,0-.2-1.09,2.69,2.69,0,0,0-.57-.86,2.6,2.6,0,0,0-.88-.56,3.14,3.14,0,0,0-1.12-.19,4.52,4.52,0,0,0-1.21.16,6,6,0,0,0-1.15.45l.14-5.87,5.78,0Z"/><path d="M157.75,22.5c0-.28,0-.56,0-.83s0-.56,0-.84h1.13V22h0a2.49,2.49,0,0,1,1.07-1,2.92,2.92,0,0,1,1.35-.33,3.83,3.83,0,0,1,.65.06,2.61,2.61,0,0,1,.66.24,2,2,0,0,1,.6.47,2.63,2.63,0,0,1,.47.79,2.48,2.48,0,0,1,1-1.13,2.78,2.78,0,0,1,1.45-.41,2.73,2.73,0,0,1,2.13.77,3.12,3.12,0,0,1,.67,2.17l0,4.75h-1l0-4.37a3.17,3.17,0,0,0-.4-1.75,1.62,1.62,0,0,0-1.48-.61,1.81,1.81,0,0,0-1.65.84,2.84,2.84,0,0,0-.36.87,5.47,5.47,0,0,0-.12,1v4h-1.06l0-4.36a3.27,3.27,0,0,0-.39-1.75,1.64,1.64,0,0,0-1.49-.61l-.44.06a1.62,1.62,0,0,0-.71.35,2.45,2.45,0,0,0-.67.86,3.48,3.48,0,0,0-.3,1.6l0,3.84h-1.05Z"/><path d="M171.38,22.56c0-.28,0-.56,0-.84s0-.55-.05-.83h1.14V22h0a2.53,2.53,0,0,1,1.07-1,2.86,2.86,0,0,1,1.35-.33,3.74,3.74,0,0,1,.65.06,2.28,2.28,0,0,1,.66.24,2,2,0,0,1,.6.47,2.63,2.63,0,0,1,.47.79,2.48,2.48,0,0,1,1-1.13,2.69,2.69,0,0,1,1.45-.41,2.76,2.76,0,0,1,2.13.76,3.15,3.15,0,0,1,.67,2.18v4.75h-1.06l0-4.36a3.17,3.17,0,0,0-.4-1.75,1.62,1.62,0,0,0-1.48-.61,1.86,1.86,0,0,0-1,.22,1.84,1.84,0,0,0-.65.62,2.63,2.63,0,0,0-.37.87,4.74,4.74,0,0,0-.11,1l0,4h-1.06l0-4.37a3.25,3.25,0,0,0-.39-1.74,1.67,1.67,0,0,0-1.49-.62,2.67,2.67,0,0,0-.44.07,1.64,1.64,0,0,0-.71.34,2.6,2.6,0,0,0-.67.87,3.46,3.46,0,0,0-.3,1.59l0,3.84h-1Z"/></g><line class="cls-1" x1="259.45" y1="226.49" x2="40.55" y2="226.49"/><line class="cls-1" x1="259.45" y1="228.03" x2="259.45" y2="224.85"/><line class="cls-1" x1="40.55" y1="228.03" x2="40.55" y2="224.85"/><g class="cls-2"><path d="M121.12,240.42a3.62,3.62,0,0,1,.68,1.16,4.05,4.05,0,0,1,.25,1.45,4.22,4.22,0,0,1-.29,1.57,3.85,3.85,0,0,1-.83,1.25,3.67,3.67,0,0,1-1.25.82,4.23,4.23,0,0,1-1.61.3,4.15,4.15,0,0,1-1.4-.23,3.94,3.94,0,0,1-1.11-.6l-1.08,1.08-.51-.49,1.06-1.09a3.56,3.56,0,0,1-.69-1.18,4.17,4.17,0,0,1-.24-1.43,4.07,4.07,0,0,1,.3-1.57,3.73,3.73,0,0,1,2.08-2.07,4.29,4.29,0,0,1,1.59-.29,4.45,4.45,0,0,1,1.39.21,3.86,3.86,0,0,1,1.15.62l1.06-1.09.51.5Zm-1.24.26a2.65,2.65,0,0,0-1.81-.62,2.79,2.79,0,0,0-1.18.23,2.54,2.54,0,0,0-.88.63,3,3,0,0,0-.56.94,3.51,3.51,0,0,0-.2,1.17,3,3,0,0,0,.55,1.83Zm-3.6,4.72a2.72,2.72,0,0,0,.8.45,2.82,2.82,0,0,0,1,.16,2.87,2.87,0,0,0,1.17-.23,2.75,2.75,0,0,0,1.46-1.58,3.42,3.42,0,0,0,.2-1.17,3.13,3.13,0,0,0-.54-1.82Z"/><path d="M133.92,243h1.64v1.06h-1.64v2.69h-1.15v-2.69h-4.89v-1.31l4.57-7.33h1.47Zm-1.15-6.43h0l-3.9,6.43h3.93Z"/><path d="M143.6,236.5H139l-.08,3.41a5.26,5.26,0,0,1,.75-.21,5,5,0,0,1,.77-.06,3.83,3.83,0,0,1,1.46.27,3.37,3.37,0,0,1,1.12.76,3.55,3.55,0,0,1,.74,1.15,4.17,4.17,0,0,1,0,3,3.69,3.69,0,0,1-.8,1.17,4.07,4.07,0,0,1-1.21.76,4.17,4.17,0,0,1-1.51.27,3.75,3.75,0,0,1-1.94-.51,3.34,3.34,0,0,1-1.33-1.51l1.15-.49a2.66,2.66,0,0,0,.9,1.06,2.28,2.28,0,0,0,1.32.39,2.35,2.35,0,0,0,1-.2,2.64,2.64,0,0,0,.81-.53,2.46,2.46,0,0,0,.54-.8,2.38,2.38,0,0,0,.2-1,2.74,2.74,0,0,0-.21-1.08,2.69,2.69,0,0,0-.57-.86,2.57,2.57,0,0,0-.88-.55,3.14,3.14,0,0,0-1.12-.19,4.52,4.52,0,0,0-1.21.16,6.32,6.32,0,0,0-1.14.46l.11-5.87h5.77Z"/><path d="M149.51,235.26a3.19,3.19,0,0,1,2,.56,3.66,3.66,0,0,1,1.16,1.42,6.17,6.17,0,0,1,.56,1.9,13.58,13.58,0,0,1,.15,2,13.82,13.82,0,0,1-.15,2,6,6,0,0,1-.56,1.89,3.69,3.69,0,0,1-1.16,1.43,3.75,3.75,0,0,1-3.94,0,3.81,3.81,0,0,1-1.17-1.43,6.3,6.3,0,0,1-.56-1.89,15.36,15.36,0,0,1-.14-2,15.09,15.09,0,0,1,.14-2,6.45,6.45,0,0,1,.56-1.9,3.78,3.78,0,0,1,1.17-1.42A3.17,3.17,0,0,1,149.51,235.26Zm0,1.05a2.09,2.09,0,0,0-1.47.5,3.17,3.17,0,0,0-.8,1.23,5.71,5.71,0,0,0-.35,1.57c0,.55-.07,1-.07,1.5s0,.95.07,1.51a5.72,5.72,0,0,0,.35,1.56,3.2,3.2,0,0,0,.8,1.24,2.09,2.09,0,0,0,1.47.49,2.06,2.06,0,0,0,1.46-.49,3.11,3.11,0,0,0,.81-1.24,5.71,5.71,0,0,0,.34-1.56c0-.56.08-1.06.08-1.51s0-1-.08-1.5a5.7,5.7,0,0,0-.34-1.57,3.08,3.08,0,0,0-.81-1.23A2.07,2.07,0,0,0,149.51,236.31Z"/><path d="M159.56,241c0-.28,0-.55,0-.83s0-.55-.05-.83h1.13v1.13h0a2.56,2.56,0,0,1,1.07-1,3.05,3.05,0,0,1,1.35-.33,3.83,3.83,0,0,1,.65.06,2.25,2.25,0,0,1,.66.23,2.18,2.18,0,0,1,.6.47,2.44,2.44,0,0,1,.47.79,2.56,2.56,0,0,1,1-1.14,2.85,2.85,0,0,1,1.45-.41,2.73,2.73,0,0,1,2.13.76,3.14,3.14,0,0,1,.68,2.16v4.76h-1.05v-4.37a3.26,3.26,0,0,0-.4-1.75,1.67,1.67,0,0,0-1.49-.6,1.86,1.86,0,0,0-1,.23,1.81,1.81,0,0,0-.65.61,2.55,2.55,0,0,0-.36.88,4.74,4.74,0,0,0-.11,1v4h-1.06v-4.37a3.17,3.17,0,0,0-.4-1.75,1.66,1.66,0,0,0-1.49-.6l-.44.06a1.67,1.67,0,0,0-.71.35,2.48,2.48,0,0,0-.66.87,3.48,3.48,0,0,0-.3,1.6v3.84h-1.05Z"/><path d="M173.19,241c0-.28,0-.55,0-.83s0-.55,0-.83h1.13v1.13h0a2.53,2.53,0,0,1,1.06-1,3.05,3.05,0,0,1,1.35-.33,3.83,3.83,0,0,1,.65.06,2.25,2.25,0,0,1,.66.23,2,2,0,0,1,.6.47,2.64,2.64,0,0,1,.48.79,2.48,2.48,0,0,1,1-1.14,2.87,2.87,0,0,1,1.45-.41,2.73,2.73,0,0,1,2.13.76,3.1,3.1,0,0,1,.69,2.16v4.76H183.3v-4.37a3.17,3.17,0,0,0-.4-1.75,1.66,1.66,0,0,0-1.49-.6,1.84,1.84,0,0,0-1.64.84,3,3,0,0,0-.36.88,4.74,4.74,0,0,0-.11,1v4h-1.06v-4.37a3.17,3.17,0,0,0-.4-1.75,1.64,1.64,0,0,0-1.48-.6l-.44.06a1.71,1.71,0,0,0-.72.35,2.61,2.61,0,0,0-.66.87,3.48,3.48,0,0,0-.3,1.6v3.84h-1.05Z"/></g><line class="cls-1" x1="33.36" y1="46.23" x2="33.54" y2="216.77"/><line class="cls-1" x1="34.9" y1="46.23" x2="31.73" y2="46.23"/><line class="cls-1" x1="35.08" y1="216.77" x2="31.9" y2="216.77"/><g class="cls-2"><path d="M18.24,157.43v-.59a3.82,3.82,0,0,0-.1-1,2.2,2.2,0,0,0-.36-.79,1.88,1.88,0,0,0-.64-.54,2.19,2.19,0,0,0-1-.2,1.78,1.78,0,0,0-1.42.54,2.18,2.18,0,0,0-.51,1.54,2.42,2.42,0,0,0,.31,1.27,2.56,2.56,0,0,0,.92.9l-.52,1a3.38,3.38,0,0,1-1.34-1.31,3.75,3.75,0,0,1-.43-1.83,4.07,4.07,0,0,1,.2-1.27,3,3,0,0,1,.57-1,2.81,2.81,0,0,1,.93-.71,3,3,0,0,1,1.26-.26,2.86,2.86,0,0,1,.88.16,2.5,2.5,0,0,1,.75.42,2.85,2.85,0,0,1,.58.62,2.45,2.45,0,0,1,.37.74l0,0a2.34,2.34,0,0,1,.36-.88,2.8,2.8,0,0,1,.65-.68,3.26,3.26,0,0,1,.87-.45,3.33,3.33,0,0,1,1-.15,3.26,3.26,0,0,1,1.39.29,3.18,3.18,0,0,1,1,.79,3.59,3.59,0,0,1,.62,1.16,4.54,4.54,0,0,1,.21,1.39,4.16,4.16,0,0,1-.56,2.18,3.35,3.35,0,0,1-1.75,1.38l-.36-1.22a2.31,2.31,0,0,0,1.21-.85,2.71,2.71,0,0,0,.4-1.59,2.45,2.45,0,0,0-.6-1.67,2,2,0,0,0-.71-.52,2.28,2.28,0,0,0-.91-.19,2.21,2.21,0,0,0-1.08.24,1.92,1.92,0,0,0-.72.63,2.72,2.72,0,0,0-.39.92,4.32,4.32,0,0,0-.13,1.08v.49Z"/><path d="M18.29,148.72l0,0A2,2,0,0,1,18,148a3.65,3.65,0,0,1-.09-.84,3.4,3.4,0,0,1,.27-1.36,3.47,3.47,0,0,1,.73-1.1,3.55,3.55,0,0,1,1.11-.72,3.61,3.61,0,0,1,1.41-.25,3.43,3.43,0,0,1,1.42.28,3.17,3.17,0,0,1,1.1.77,3.31,3.31,0,0,1,.71,1.17,3.93,3.93,0,0,1,.25,1.48,4.13,4.13,0,0,1-.26,1.47A3.74,3.74,0,0,1,24,150a3.18,3.18,0,0,1-1.11.76,3.59,3.59,0,0,1-1.42.27,4.59,4.59,0,0,1-1.65-.29,9.6,9.6,0,0,1-1.39-.71l-5-3.08v-1.36Zm3.14,1.17a2.47,2.47,0,0,0,1-.17,2.32,2.32,0,0,0,.78-.52,2.13,2.13,0,0,0,.5-.8,3,3,0,0,0,0-2,2.46,2.46,0,0,0-.5-.81,2.32,2.32,0,0,0-.78-.52,2.4,2.4,0,0,0-1-.19,2.64,2.64,0,0,0-1,.18,2.16,2.16,0,0,0-.77.51,2.55,2.55,0,0,0-.51.8,2.93,2.93,0,0,0,0,2,2.41,2.41,0,0,0,.5.8,2.26,2.26,0,0,0,.76.53A2.64,2.64,0,0,0,21.43,149.89Z"/><path d="M13.29,138.42a3.3,3.3,0,0,1,.57-2,3.77,3.77,0,0,1,1.43-1.16,6.44,6.44,0,0,1,1.9-.55,14,14,0,0,1,3.95,0,6.46,6.46,0,0,1,1.9.57,3.85,3.85,0,0,1,1.41,1.18,3.75,3.75,0,0,1,0,3.94A3.86,3.86,0,0,1,23,141.62a6.43,6.43,0,0,1-1.9.54,13.76,13.76,0,0,1-2,.14,15.5,15.5,0,0,1-2-.16,6.31,6.31,0,0,1-1.89-.57,3.78,3.78,0,0,1-1.42-1.17A3.27,3.27,0,0,1,13.29,138.42Zm1.06,0a2.09,2.09,0,0,0,.48,1.47,3.08,3.08,0,0,0,1.23.81,6.1,6.1,0,0,0,1.57.36c.55.05,1.05.07,1.5.08s.95,0,1.5-.07a5.84,5.84,0,0,0,1.58-.33,3.17,3.17,0,0,0,1.23-.8,2.15,2.15,0,0,0,.51-1.47,2.08,2.08,0,0,0-.49-1.46,3.21,3.21,0,0,0-1.23-.82,6.09,6.09,0,0,0-1.57-.35c-.55,0-1.05-.08-1.5-.08s-.95,0-1.5.06a6.09,6.09,0,0,0-1.57.34,3.09,3.09,0,0,0-1.24.8A2.07,2.07,0,0,0,14.35,138.43Z"/><path d="M19,128.41c-.27,0-.55,0-.83,0l-.83,0v-1.14h1.14v0a2.53,2.53,0,0,1-1-1.07,2.86,2.86,0,0,1-.33-1.35,3.74,3.74,0,0,1,.06-.65,2.83,2.83,0,0,1,.24-.67A2,2,0,0,1,18,123a2.45,2.45,0,0,1,.78-.47,2.53,2.53,0,0,1-1.13-1,2.87,2.87,0,0,1-.41-1.45,2.77,2.77,0,0,1,.78-2.13,3.12,3.12,0,0,1,2.17-.67l4.75,0v1.06l-4.37,0a3.08,3.08,0,0,0-1.74.39,1.65,1.65,0,0,0-.62,1.48,2,2,0,0,0,.23,1,1.81,1.81,0,0,0,.61.65,2.82,2.82,0,0,0,.87.37,4.25,4.25,0,0,0,1,.12l4,0v1.06l-4.36,0a3.27,3.27,0,0,0-1.75.39,1.64,1.64,0,0,0-.61,1.49,3.61,3.61,0,0,0,.06.44,1.57,1.57,0,0,0,.35.71,2.41,2.41,0,0,0,.85.67,3.53,3.53,0,0,0,1.6.3l3.84,0v1Z"/><path d="M19.12,114.78c-.28,0-.56,0-.83,0l-.83,0v-1.14H18.6v0a2.49,2.49,0,0,1-1-1.07,3.12,3.12,0,0,1-.33-1.36,3.68,3.68,0,0,1,.07-.64,2.24,2.24,0,0,1,.71-1.26,2.44,2.44,0,0,1,.79-.47,2.48,2.48,0,0,1-1.13-1,3.09,3.09,0,0,1,.36-3.58,3.14,3.14,0,0,1,2.17-.67l4.75,0v1.06l-4.37,0a3.2,3.2,0,0,0-1.74.39,1.65,1.65,0,0,0-.62,1.49,1.91,1.91,0,0,0,.23,1,1.73,1.73,0,0,0,.61.65,2.63,2.63,0,0,0,.87.37,5.47,5.47,0,0,0,1,.12l4,0v1l-4.37,0a3.23,3.23,0,0,0-1.74.39,1.65,1.65,0,0,0-.62,1.48,3.17,3.17,0,0,0,.06.44,1.71,1.71,0,0,0,.35.72,2.55,2.55,0,0,0,.86.67,3.51,3.51,0,0,0,1.6.3l3.84,0v1.06Z"/></g><path class="cls-3" d="M125.17,52.77c-19.41,2-36.44,6.91-52.57,17.79-22.83,15.43-32,34-32,64.22S49.55,182,72.6,199c22.24,16.42,47.18,18.88,77.4,18.88S204.88,215,227.4,199s32-34,32-64.23-10.8-47.72-32-64.22c-15.52-12-32.82-16.5-52.4-18.08Z"/><polygon class="cls-3" points="176.07 52.48 167.84 44.8 132.16 44.8 123.93 52.48 176.07 52.48"/></svg>