<svg id="Glo_Ball_T2" xmlns="http://www.w3.org/2000/svg" viewBox="0 0 300 263"><defs><style>.cls-1,.cls-3{fill:none;stroke-width:0.5px;}.cls-1{stroke:#000;}.cls-2{isolation:isolate;}.cls-3{stroke:#1d1d1b;stroke-linecap:round;stroke-linejoin:round;}</style></defs><title>glo-ball-table-2-morrison-flos-F3025000-spech-tech-02-300x263</title><line class="cls-1" x1="116.15" y1="227.2" x2="183.85" y2="227.2"/><line class="cls-1" x1="116.15" y1="225.52" x2="116.15" y2="228.88"/><line class="cls-1" x1="183.85" y1="225.52" x2="183.85" y2="228.88"/><g class="cls-2"><path d="M120.22,240.51a3.58,3.58,0,0,1,.71,1.16,4,4,0,0,1,.25,1.44,4,4,0,0,1-.3,1.57,3.79,3.79,0,0,1-2.16,2.07,4.51,4.51,0,0,1-1.67.3,4.81,4.81,0,0,1-1.46-.22,4.2,4.2,0,0,1-1.15-.61l-1.11,1.09-.53-.5,1.09-1.09a3.5,3.5,0,0,1-.71-1.17,4,4,0,0,1-.25-1.44,3.85,3.85,0,0,1,.31-1.56,3.75,3.75,0,0,1,.85-1.25,4,4,0,0,1,1.31-.83,4.61,4.61,0,0,1,1.65-.29,4.73,4.73,0,0,1,1.44.21,4.14,4.14,0,0,1,1.2.62l1.1-1.09.53.5Zm-1.29.25a2.88,2.88,0,0,0-1.88-.62,3,3,0,0,0-1.22.23,2.74,2.74,0,0,0-.92.63,2.86,2.86,0,0,0-.58.95,3.19,3.19,0,0,0-.21,1.16,2.9,2.9,0,0,0,.57,1.83Zm-3.74,4.72a2.88,2.88,0,0,0,.83.45,3.05,3.05,0,0,0,1,.16,3.16,3.16,0,0,0,1.22-.23,2.89,2.89,0,0,0,.92-.63,2.82,2.82,0,0,0,.59-.95,3.2,3.2,0,0,0,.21-1.17,3,3,0,0,0-.57-1.82Z"/><path d="M130,240.39h.61a4,4,0,0,0,1-.11,2.11,2.11,0,0,0,.82-.36,1.69,1.69,0,0,0,.56-.65,2,2,0,0,0,.21-1,1.76,1.76,0,0,0-.58-1.41,2.31,2.31,0,0,0-1.6-.51,2.65,2.65,0,0,0-1.31.32,2.59,2.59,0,0,0-.93.93l-1-.51a3.45,3.45,0,0,1,1.36-1.35,3.86,3.86,0,0,1,1.9-.44,4.32,4.32,0,0,1,1.31.19,3.28,3.28,0,0,1,1.08.57,2.7,2.7,0,0,1,.74.93,2.77,2.77,0,0,1,.27,1.25,2.58,2.58,0,0,1-.15.88,2.55,2.55,0,0,1-.44.75,2.94,2.94,0,0,1-.63.59,3,3,0,0,1-.77.37l.05,0a2.41,2.41,0,0,1,.91.36,2.76,2.76,0,0,1,.72.64,3,3,0,0,1,.46.87,3.06,3.06,0,0,1,.17,1,3,3,0,0,1-1.11,2.41,3.62,3.62,0,0,1-1.2.63,4.93,4.93,0,0,1-3.7-.32,3.35,3.35,0,0,1-1.45-1.75l1.26-.37a2.37,2.37,0,0,0,.89,1.21A3,3,0,0,0,131,246a2.69,2.69,0,0,0,.94-.16,2.29,2.29,0,0,0,.79-.45,2,2,0,0,0,.53-.71,2.39,2.39,0,0,0-.06-2,2,2,0,0,0-.66-.71,2.94,2.94,0,0,0-1-.39,5.13,5.13,0,0,0-1.12-.12H130Z"/><path d="M139.22,240.39h.62a4.06,4.06,0,0,0,1-.11,2.18,2.18,0,0,0,.82-.36,1.78,1.78,0,0,0,.56-.65,2,2,0,0,0,.2-1,1.78,1.78,0,0,0-.57-1.41,2.33,2.33,0,0,0-1.6-.51,2.62,2.62,0,0,0-1.31.32,2.59,2.59,0,0,0-.93.93l-1.05-.51a3.37,3.37,0,0,1,1.35-1.35,3.9,3.9,0,0,1,1.91-.44,4.32,4.32,0,0,1,1.31.19,3.28,3.28,0,0,1,1.08.57,2.82,2.82,0,0,1,.74.93,2.77,2.77,0,0,1,.27,1.25,2.37,2.37,0,0,1-.16.88,2.53,2.53,0,0,1-.43.75,3,3,0,0,1-1.4,1l0,0a2.48,2.48,0,0,1,.91.36,2.57,2.57,0,0,1,.71.64,3.08,3.08,0,0,1,.64,1.88,3.12,3.12,0,0,1-.3,1.39,3,3,0,0,1-.82,1,3.48,3.48,0,0,1-1.19.63,4.63,4.63,0,0,1-1.45.22,4.55,4.55,0,0,1-2.26-.54,3.38,3.38,0,0,1-1.44-1.75l1.26-.37a2.37,2.37,0,0,0,.89,1.21,3,3,0,0,0,1.65.39,2.75,2.75,0,0,0,.95-.16,2.29,2.29,0,0,0,.79-.45,2.32,2.32,0,0,0,.53-.71,2.39,2.39,0,0,0-.06-2,2.14,2.14,0,0,0-.66-.71,2.94,2.94,0,0,0-1-.39,5.13,5.13,0,0,0-1.12-.12h-.52Z"/><path d="M149.69,235.34a3.37,3.37,0,0,1,2,.56,3.89,3.89,0,0,1,1.22,1.42,6.48,6.48,0,0,1,.58,1.9,13.08,13.08,0,0,1,0,3.95,6.48,6.48,0,0,1-.58,1.9,3.89,3.89,0,0,1-1.22,1.42,4,4,0,0,1-4.08,0,3.89,3.89,0,0,1-1.22-1.42,6.48,6.48,0,0,1-.58-1.9,13.08,13.08,0,0,1,0-3.95,6.48,6.48,0,0,1,.58-1.9,3.89,3.89,0,0,1,1.22-1.42A3.37,3.37,0,0,1,149.69,235.34Zm0,1a2.21,2.21,0,0,0-1.52.5,3.14,3.14,0,0,0-.84,1.23,5.71,5.71,0,0,0-.36,1.57c-.05.55-.07,1.06-.07,1.5s0,.95.07,1.51a5.8,5.8,0,0,0,.36,1.57,3.14,3.14,0,0,0,.84,1.23,2.6,2.6,0,0,0,3,0,3.14,3.14,0,0,0,.84-1.23,5.8,5.8,0,0,0,.36-1.57c.05-.56.07-1.06.07-1.51s0-.95-.07-1.5a5.71,5.71,0,0,0-.36-1.57,3.14,3.14,0,0,0-.84-1.23A2.21,2.21,0,0,0,149.69,236.39Z"/><path d="M160.12,241c0-.27,0-.55,0-.83l-.06-.83h1.18v1.14h0a2.62,2.62,0,0,1,1.11-1,3.29,3.29,0,0,1,1.4-.33,4,4,0,0,1,.67.06,2.44,2.44,0,0,1,.69.23,2.29,2.29,0,0,1,.63.48,2.67,2.67,0,0,1,.49.78,2.51,2.51,0,0,1,1-1.14,3,3,0,0,1,1.5-.41,2.87,2.87,0,0,1,2.21.76,3,3,0,0,1,.72,2.17v4.75h-1.1v-4.37a3.11,3.11,0,0,0-.41-1.74,1.75,1.75,0,0,0-1.55-.61,2,2,0,0,0-1,.23,1.82,1.82,0,0,0-.67.62,2.64,2.64,0,0,0-.38.87,4.74,4.74,0,0,0-.11,1v4h-1.1v-4.37a3.11,3.11,0,0,0-.41-1.74,1.74,1.74,0,0,0-1.55-.61l-.45.06a1.72,1.72,0,0,0-.74.35,2.51,2.51,0,0,0-.69.87,3.34,3.34,0,0,0-.31,1.6v3.84h-1.1Z"/><path d="M174.28,241c0-.27,0-.55,0-.83l-.06-.83h1.18v1.14h0a2.54,2.54,0,0,1,1.1-1,3.29,3.29,0,0,1,1.4-.33,4.18,4.18,0,0,1,.68.06,2.55,2.55,0,0,1,.69.23,2.12,2.12,0,0,1,.62.48,2.48,2.48,0,0,1,.49.78,2.51,2.51,0,0,1,1.05-1.14,3.09,3.09,0,0,1,1.51-.41,2.9,2.9,0,0,1,2.21.76,3.07,3.07,0,0,1,.71,2.17v4.75h-1.09v-4.37a3,3,0,0,0-.42-1.74,1.74,1.74,0,0,0-1.55-.61,2,2,0,0,0-1,.23,1.85,1.85,0,0,0-.68.62,2.63,2.63,0,0,0-.37.87,4.17,4.17,0,0,0-.12,1v4h-1.09v-4.37a3,3,0,0,0-.42-1.74,1.73,1.73,0,0,0-1.54-.61l-.46.06a1.72,1.72,0,0,0-.74.35,2.51,2.51,0,0,0-.69.87,3.34,3.34,0,0,0-.31,1.6v3.84h-1.09Z"/></g><line class="cls-1" x1="101.28" y1="38.27" x2="198.72" y2="38.27"/><line class="cls-1" x1="101.28" y1="37.06" x2="101.28" y2="39.47"/><line class="cls-1" x1="198.72" y1="37.06" x2="198.72" y2="39.47"/><g class="cls-2"><path d="M119.47,23.21a3.62,3.62,0,0,1,.7,1.15,4.15,4.15,0,0,1,0,3,3.6,3.6,0,0,1-.85,1.25,3.89,3.89,0,0,1-1.3.82,4.78,4.78,0,0,1-3.13.07,4,4,0,0,1-1.15-.6L112.58,30l-.54-.49,1.1-1.09a3.5,3.5,0,0,1-.71-1.17,4,4,0,0,1-.25-1.44,4,4,0,0,1,.3-1.56,3.67,3.67,0,0,1,.86-1.25,3.81,3.81,0,0,1,1.3-.83,5,5,0,0,1,3.1-.08,4.27,4.27,0,0,1,1.2.62L120,21.62l.54.5Zm-1.3.25a2.8,2.8,0,0,0-1.87-.62,3,3,0,0,0-1.22.23,2.6,2.6,0,0,0-.92.63,2.91,2.91,0,0,0-.58.94,3.28,3.28,0,0,0-.21,1.17,2.9,2.9,0,0,0,.57,1.83Zm-3.73,4.72a2.88,2.88,0,0,0,.83.45,3.05,3.05,0,0,0,1,.16,3.16,3.16,0,0,0,1.22-.23,2.87,2.87,0,0,0,.92-.64A2.83,2.83,0,0,0,119,27a3.2,3.2,0,0,0,.21-1.17,3,3,0,0,0-.57-1.82Z"/><path d="M132.76,25.81h1.69v1.06h-1.69v2.69h-1.2V26.87h-5.08V25.56l4.75-7.33h1.53Zm-1.2-6.43h0l-4,6.43h4.08Z"/><path d="M142.81,19.28H138l-.09,3.41a5.41,5.41,0,0,1,.79-.21,5.25,5.25,0,0,1,.79-.06,4,4,0,0,1,1.51.27,3.53,3.53,0,0,1,1.18.76A3.6,3.6,0,0,1,143,24.6a3.86,3.86,0,0,1,.27,1.45,3.65,3.65,0,0,1-.3,1.5,3.34,3.34,0,0,1-.83,1.17,4,4,0,0,1-1.25.76,4.46,4.46,0,0,1-1.57.27,4,4,0,0,1-2-.51,3.38,3.38,0,0,1-1.38-1.51l1.2-.49A2.71,2.71,0,0,0,138,28.3a2.48,2.48,0,0,0,1.38.39,2.57,2.57,0,0,0,1-.2,2.79,2.79,0,0,0,.84-.53,2.51,2.51,0,0,0,.56-.8,2.38,2.38,0,0,0,.21-1,2.59,2.59,0,0,0-.22-1.09,2.47,2.47,0,0,0-.6-.86,2.61,2.61,0,0,0-.91-.55,3.32,3.32,0,0,0-1.16-.19,5,5,0,0,0-1.26.16,6.72,6.72,0,0,0-1.18.46l.11-5.87h6Z"/><path d="M148.94,18a3.37,3.37,0,0,1,2,.56A3.7,3.7,0,0,1,152.19,20a6.2,6.2,0,0,1,.59,1.9,13.58,13.58,0,0,1,.15,2,13.82,13.82,0,0,1-.15,2,6.06,6.06,0,0,1-.59,1.89A3.73,3.73,0,0,1,151,29.19a4,4,0,0,1-4.08,0,3.75,3.75,0,0,1-1.22-1.43,6,6,0,0,1-.58-1.89,13.82,13.82,0,0,1-.15-2,13.58,13.58,0,0,1,.15-2,6.19,6.19,0,0,1,.58-1.9,3.72,3.72,0,0,1,1.22-1.42A3.37,3.37,0,0,1,148.94,18Zm0,1.05a2.21,2.21,0,0,0-1.52.5,3.14,3.14,0,0,0-.84,1.23,5.71,5.71,0,0,0-.36,1.57c-.05.55-.07,1.05-.07,1.5s0,.95.07,1.51a5.73,5.73,0,0,0,.36,1.56,3.1,3.1,0,0,0,.84,1.24,2.6,2.6,0,0,0,3,0A3.1,3.1,0,0,0,151.3,27a5.73,5.73,0,0,0,.36-1.56c.05-.56.07-1.06.07-1.51s0-.95-.07-1.5a5.71,5.71,0,0,0-.36-1.57,3.14,3.14,0,0,0-.84-1.23A2.21,2.21,0,0,0,148.94,19.09Z"/><path d="M159.37,23.73c0-.27,0-.55,0-.83l-.06-.83h1.18v1.14h0a2.56,2.56,0,0,1,1.11-1,3.26,3.26,0,0,1,1.4-.33,4.06,4.06,0,0,1,.67.06,2.44,2.44,0,0,1,.69.23,2.26,2.26,0,0,1,.62.47,2.47,2.47,0,0,1,.49.79,2.59,2.59,0,0,1,1.06-1.14,3,3,0,0,1,1.5-.41,2.87,2.87,0,0,1,2.21.76A3,3,0,0,1,171,24.8v4.76h-1.1V25.19a3.17,3.17,0,0,0-.41-1.75,1.77,1.77,0,0,0-1.55-.6,2,2,0,0,0-1,.23,1.88,1.88,0,0,0-.67.61,2.79,2.79,0,0,0-.38.88,4.74,4.74,0,0,0-.11,1v4h-1.1V25.19a3.17,3.17,0,0,0-.41-1.75,1.77,1.77,0,0,0-1.55-.6l-.46.06a1.77,1.77,0,0,0-.74.35,2.65,2.65,0,0,0-.69.87,3.48,3.48,0,0,0-.3,1.6v3.84h-1.1Z"/><path d="M173.52,23.73c0-.27,0-.55,0-.83l-.06-.83h1.18v1.14h0a2.62,2.62,0,0,1,1.11-1,3.29,3.29,0,0,1,1.4-.33,4,4,0,0,1,.67.06,2.44,2.44,0,0,1,.69.23,2.3,2.3,0,0,1,.63.47,2.88,2.88,0,0,1,.49.79,2.51,2.51,0,0,1,1.05-1.14,3.06,3.06,0,0,1,1.51-.41,2.9,2.9,0,0,1,2.21.76,3.06,3.06,0,0,1,.71,2.16v4.76H184V25.19a3.17,3.17,0,0,0-.41-1.75,1.76,1.76,0,0,0-1.55-.6,2,2,0,0,0-1,.23,2,2,0,0,0-.67.61,2.57,2.57,0,0,0-.37.88,4.17,4.17,0,0,0-.12,1v4h-1.1V25.19a3.08,3.08,0,0,0-.41-1.75,1.76,1.76,0,0,0-1.55-.6l-.45.06a1.72,1.72,0,0,0-.74.35,2.42,2.42,0,0,0-.69.87,3.34,3.34,0,0,0-.31,1.6v3.84h-1.1Z"/></g><line class="cls-1" x1="90.63" y1="217.61" x2="90.63" y2="47.39"/><line class="cls-1" x1="89.4" y1="217.61" x2="91.85" y2="217.61"/><line class="cls-1" x1="89.4" y1="47.39" x2="91.85" y2="47.39"/><g class="cls-2"><path d="M71.38,159.72l10.28,4.56v1.3l-10.28-4.66v5.52h-1v-6.72Z"/><path d="M76.79,152.59l0,0a1.83,1.83,0,0,1,.29.73,4.35,4.35,0,0,1,.1.84,3.4,3.4,0,0,1-.27,1.36,3.31,3.31,0,0,1-.73,1.1,3.36,3.36,0,0,1-1.1.73,3.8,3.8,0,0,1-1.41.26,3.59,3.59,0,0,1-1.42-.27,3.21,3.21,0,0,1-1.11-.77,3.49,3.49,0,0,1-.72-1.17,4,4,0,0,1-.25-1.47,4.13,4.13,0,0,1,.25-1.47,3.49,3.49,0,0,1,.72-1.17,3.35,3.35,0,0,1,1.11-.77,3.59,3.59,0,0,1,1.42-.27,4.39,4.39,0,0,1,1.65.28,9.53,9.53,0,0,1,1.39.7l5,3.05v1.36Zm-3.15-1.16a2.64,2.64,0,0,0-1,.19,2.06,2.06,0,0,0-.77.52,2.41,2.41,0,0,0-.5.8,2.61,2.61,0,0,0-.19,1,2.66,2.66,0,0,0,.69,1.83,2.33,2.33,0,0,0,.77.52,2.81,2.81,0,0,0,2,0,2.48,2.48,0,0,0,.78-.52,2.3,2.3,0,0,0,.5-.8,2.86,2.86,0,0,0,.18-1,2.8,2.8,0,0,0-.18-1,2.13,2.13,0,0,0-.5-.8,2.18,2.18,0,0,0-.78-.52A2.64,2.64,0,0,0,73.64,151.43Z"/><path d="M70.14,145.07a3.17,3.17,0,0,1,.56-2,3.78,3.78,0,0,1,1.42-1.17,6.45,6.45,0,0,1,1.9-.56,14,14,0,0,1,4,0,6.45,6.45,0,0,1,1.9.56,3.86,3.86,0,0,1,1.42,1.17,3.73,3.73,0,0,1,0,3.93,3.76,3.76,0,0,1-1.42,1.17,6.17,6.17,0,0,1-1.9.56,13.08,13.08,0,0,1-4,0,6.17,6.17,0,0,1-1.9-.56A3.69,3.69,0,0,1,70.7,147,3.14,3.14,0,0,1,70.14,145.07Zm1,0a2.09,2.09,0,0,0,.5,1.46,3.08,3.08,0,0,0,1.23.81,6.09,6.09,0,0,0,1.57.34c.55,0,1.05.07,1.5.07s1,0,1.51-.07a6.18,6.18,0,0,0,1.57-.34,3.08,3.08,0,0,0,1.23-.81,2.44,2.44,0,0,0,0-2.93,3.08,3.08,0,0,0-1.23-.81,6.18,6.18,0,0,0-1.57-.34c-.56,0-1.06-.07-1.51-.07s-.95,0-1.5.07a6.09,6.09,0,0,0-1.57.34,3.08,3.08,0,0,0-1.23.81A2.09,2.09,0,0,0,71.19,145.07Z"/><path d="M75.83,135,75,135l-.83.06V134h1.14v0a2.55,2.55,0,0,1-1-1.06,3.12,3.12,0,0,1-.33-1.36,3.72,3.72,0,0,1,.06-.64,2.42,2.42,0,0,1,.23-.67,2.19,2.19,0,0,1,.48-.6,2.65,2.65,0,0,1,.78-.47,2.45,2.45,0,0,1-1.14-1,2.81,2.81,0,0,1-.41-1.44,2.73,2.73,0,0,1,.76-2.13,3.11,3.11,0,0,1,2.17-.69h4.75v1.06H77.29a3.17,3.17,0,0,0-1.75.4,1.64,1.64,0,0,0-.6,1.48,1.92,1.92,0,0,0,.23,1,1.81,1.81,0,0,0,.62.64,2.42,2.42,0,0,0,.87.36,4.17,4.17,0,0,0,1,.12h4V130H77.29a3.26,3.26,0,0,0-1.75.4,1.66,1.66,0,0,0-.6,1.49,3.61,3.61,0,0,0,.06.44,1.62,1.62,0,0,0,.35.71,2.5,2.5,0,0,0,.87.67,3.63,3.63,0,0,0,1.6.29h3.84V135Z"/><path d="M75.83,121.39c-.27,0-.55,0-.83,0l-.83.06v-1.14h1.14v0a2.52,2.52,0,0,1-1-1.07,3.05,3.05,0,0,1-.33-1.35,3.83,3.83,0,0,1,.06-.65,2.25,2.25,0,0,1,.23-.66,2.19,2.19,0,0,1,.48-.6,2.45,2.45,0,0,1,.78-.47,2.5,2.5,0,0,1-1.14-1A2.82,2.82,0,0,1,74,113a2.69,2.69,0,0,1,.76-2.12,3.11,3.11,0,0,1,2.17-.69h4.75v1H77.29a3.26,3.26,0,0,0-1.75.4,1.67,1.67,0,0,0-.6,1.49,1.86,1.86,0,0,0,.23,1,1.76,1.76,0,0,0,.62.65,2.42,2.42,0,0,0,.87.36,4.17,4.17,0,0,0,1,.11h4v1.06H77.29a3.17,3.17,0,0,0-1.75.4,1.66,1.66,0,0,0-.6,1.49,3.61,3.61,0,0,0,.06.44,1.67,1.67,0,0,0,.35.71,2.37,2.37,0,0,0,.87.66,3.48,3.48,0,0,0,1.6.3h3.84v1.06Z"/></g><polygon class="cls-3" points="155.62 214.51 151.82 203.92 151.82 120.43 147.42 120.43 147.42 203.92 144.21 214.51 155.62 214.51"/><path class="cls-3" d="M161,119.17c8.67-.86,16.28-3.07,23.49-7.93,10.15-6.86,14.26-15.13,14.26-28.58s-4-21-14.26-28.59c-9.9-7.31-21-8.41-34.46-8.41s-24.43,1.28-34.45,8.41S101.28,69.2,101.28,82.66s4.81,21.24,14.27,28.58c7,5.46,14.88,7.42,23.77,8.09Z"/><rect class="cls-3" x="116.15" y="214.55" width="67.7" height="2.94"/><polygon class="cls-3" points="138.39 118.29 142.06 121.71 157.94 121.71 161.61 118.29 138.39 118.29"/><g class="cls-2"><path d="M220.26,108.52v-.59a3.83,3.83,0,0,0-.12-1,2.11,2.11,0,0,0-.36-.79,1.75,1.75,0,0,0-.64-.53,2.06,2.06,0,0,0-1-.2,1.82,1.82,0,0,0-1.42.55,2.18,2.18,0,0,0-.5,1.54,2.42,2.42,0,0,0,.32,1.27,2.46,2.46,0,0,0,.92.89l-.51,1a3.39,3.39,0,0,1-1.35-1.3,3.76,3.76,0,0,1-.44-1.84,4,4,0,0,1,.19-1.26,3.18,3.18,0,0,1,.57-1,2.62,2.62,0,0,1,.93-.71,2.8,2.8,0,0,1,1.25-.27,2.55,2.55,0,0,1,.88.16,2.93,2.93,0,0,1,.76.41,3.11,3.11,0,0,1,.58.62,2.83,2.83,0,0,1,.38.73l0,0a2.28,2.28,0,0,1,.36-.88,2.51,2.51,0,0,1,.65-.69,3.06,3.06,0,0,1,.86-.45,3.1,3.1,0,0,1,1-.16,3.26,3.26,0,0,1,1.39.29,2.84,2.84,0,0,1,1,.78,3.59,3.59,0,0,1,.64,1.15,4.61,4.61,0,0,1,.21,1.4,4.24,4.24,0,0,1-.54,2.17,3.35,3.35,0,0,1-1.75,1.39l-.36-1.21a2.34,2.34,0,0,0,1.2-.86,2.71,2.71,0,0,0,.4-1.59,2.76,2.76,0,0,0-.16-.91,2.34,2.34,0,0,0-.46-.76,2,2,0,0,0-.71-.51,2.12,2.12,0,0,0-.91-.19,2.21,2.21,0,0,0-1.08.24,2,2,0,0,0-.72.64,2.81,2.81,0,0,0-.39.92,4.83,4.83,0,0,0-.12,1.08v.5Z"/><path d="M220.26,99.81l0,0a1.83,1.83,0,0,1-.29-.73,4.35,4.35,0,0,1-.1-.84,3.4,3.4,0,0,1,.27-1.36,3.21,3.21,0,0,1,.73-1.1A3.36,3.36,0,0,1,222,95a3.8,3.8,0,0,1,1.41-.26,3.59,3.59,0,0,1,1.42.27,3.21,3.21,0,0,1,1.11.77,3.49,3.49,0,0,1,.72,1.17,4,4,0,0,1,.25,1.47,4.13,4.13,0,0,1-.25,1.47,3.49,3.49,0,0,1-.72,1.17,3.21,3.21,0,0,1-1.11.77,3.59,3.59,0,0,1-1.42.27,4.6,4.6,0,0,1-1.65-.28,9.53,9.53,0,0,1-1.39-.7l-5-3V96.73Zm3.15,1.16a2.64,2.64,0,0,0,1-.19,2.18,2.18,0,0,0,.78-.52,2.41,2.41,0,0,0,.5-.8,3,3,0,0,0,0-2,2.52,2.52,0,0,0-.5-.8,2.48,2.48,0,0,0-.78-.52,2.64,2.64,0,0,0-1-.18,2.57,2.57,0,0,0-1,.18,2.33,2.33,0,0,0-.77.52,2.55,2.55,0,0,0-.51.8,3,3,0,0,0,0,2,2.44,2.44,0,0,0,.51.8,2.06,2.06,0,0,0,.77.52A2.57,2.57,0,0,0,223.41,101Z"/><path d="M215.2,89.54a3.26,3.26,0,0,1,.56-2,3.74,3.74,0,0,1,1.42-1.16,6.17,6.17,0,0,1,1.9-.56,13.08,13.08,0,0,1,3.95,0,6.17,6.17,0,0,1,1.9.56,3.74,3.74,0,0,1,1.42,1.16,3.75,3.75,0,0,1,0,3.94,3.86,3.86,0,0,1-1.42,1.17,6.45,6.45,0,0,1-1.9.56,14,14,0,0,1-3.95,0,6.45,6.45,0,0,1-1.9-.56,3.86,3.86,0,0,1-1.42-1.17A3.24,3.24,0,0,1,215.2,89.54Zm1.06,0a2.09,2.09,0,0,0,.49,1.47,3.17,3.17,0,0,0,1.23.8,5.79,5.79,0,0,0,1.57.35c.56,0,1.06.07,1.51.07s.94,0,1.5-.07a5.79,5.79,0,0,0,1.57-.35,3.17,3.17,0,0,0,1.23-.8,2.09,2.09,0,0,0,.5-1.47,2.07,2.07,0,0,0-.5-1.46,3.08,3.08,0,0,0-1.23-.81,5.78,5.78,0,0,0-1.57-.34c-.56-.05-1.06-.08-1.5-.08s-.95,0-1.51.08a5.78,5.78,0,0,0-1.57.34,3.08,3.08,0,0,0-1.23.81A2.06,2.06,0,0,0,216.26,89.54Z"/><path d="M220.9,79.49q-.42,0-.84,0l-.83,0V78.44h1.14v0a2.44,2.44,0,0,1-1-1.07A2.94,2.94,0,0,1,219,76a3.83,3.83,0,0,1,.06-.65,2.28,2.28,0,0,1,.24-.66,2.34,2.34,0,0,1,.47-.6,2.28,2.28,0,0,1,.78-.47,2.48,2.48,0,0,1-1.13-1,2.76,2.76,0,0,1-.42-1.45A2.73,2.73,0,0,1,219.8,69a3.17,3.17,0,0,1,2.17-.68h4.75v1h-4.37a3.2,3.2,0,0,0-1.74.4,1.65,1.65,0,0,0-.61,1.49,2,2,0,0,0,.23,1,1.84,1.84,0,0,0,.62.65,2.42,2.42,0,0,0,.87.36,4.2,4.2,0,0,0,1,.11h4v1.06h-4.37a3.11,3.11,0,0,0-1.74.4,1.64,1.64,0,0,0-.61,1.49,3.61,3.61,0,0,0,.06.44,1.71,1.71,0,0,0,.36.71,2.53,2.53,0,0,0,.86.66,3.51,3.51,0,0,0,1.6.3h3.84v1Z"/><path d="M220.9,65.86q-.42,0-.84,0l-.83,0V64.81h1.14v0a2.41,2.41,0,0,1-1-1.06,2.94,2.94,0,0,1-.34-1.35,3.83,3.83,0,0,1,.06-.65,2.28,2.28,0,0,1,.24-.66,2,2,0,0,1,.47-.6,2.47,2.47,0,0,1,.78-.48,2.41,2.41,0,0,1-1.13-1,2.79,2.79,0,0,1-.42-1.45,2.73,2.73,0,0,1,.76-2.13,3.12,3.12,0,0,1,2.17-.69h4.75v1.06h-4.37a3.11,3.11,0,0,0-1.74.4,1.64,1.64,0,0,0-.61,1.49,2,2,0,0,0,.23,1,1.93,1.93,0,0,0,.62.65,2.84,2.84,0,0,0,.87.36,4.76,4.76,0,0,0,1,.11h4v1.06h-4.37a3.11,3.11,0,0,0-1.74.4,1.62,1.62,0,0,0-.61,1.48,3.17,3.17,0,0,0,.06.44,1.74,1.74,0,0,0,.36.72,2.67,2.67,0,0,0,.86.66,3.51,3.51,0,0,0,1.6.3h3.84v1Z"/></g><line class="cls-1" x1="206.8" y1="121.01" x2="206.8" y2="45.98"/><line class="cls-1" x1="205.36" y1="121.01" x2="208.25" y2="121.01"/><line class="cls-1" x1="205.36" y1="45.98" x2="208.25" y2="45.98"/></svg>