<svg id="mini_glo-ball_S" data-name="mini glo-ball S" xmlns="http://www.w3.org/2000/svg" xmlns:xlink="http://www.w3.org/1999/xlink" viewBox="0 0 300 263"><defs><style>.cls-1,.cls-3,.cls-5{fill:none;}.cls-2{isolation:isolate;}.cls-3{stroke:#000;}.cls-3,.cls-5{stroke-width:0.5px;}.cls-4{clip-path:url(#clip-path);}.cls-5{stroke:#1a171b;stroke-miterlimit:3.86;}</style><clipPath id="clip-path"><rect id="SVGID" class="cls-1" x="131.54" y="46.68" width="35.56" height="116.41"/></clipPath></defs><title>glo-ball-suspension-mini-morrison-flos-F4159009-spech-tech-02-300x263</title><g class="cls-2"><path d="M107.73,175.44a2.25,2.25,0,0,1-.37.68,2.53,2.53,0,0,1-.59.54,2.9,2.9,0,0,1-.73.35,2.9,2.9,0,0,1-2.06-.13,2.69,2.69,0,0,1-.93-.69,2.83,2.83,0,0,1-.59-1,3.5,3.5,0,0,1-.21-1.21,3.56,3.56,0,0,1,.21-1.22,2.92,2.92,0,0,1,.59-1,2.8,2.8,0,0,1,.93-.68,2.91,2.91,0,0,1,1.23-.26,2.84,2.84,0,0,1,1.56.48,2.53,2.53,0,0,1,.59.54,2.14,2.14,0,0,1,.37.68h0a2.69,2.69,0,0,1,1-1.54,3.26,3.26,0,0,1,1.92-.58,2.89,2.89,0,0,1,1.33.3,3.42,3.42,0,0,1,1,.78,3.54,3.54,0,0,1,.64,1.14A4.15,4.15,0,0,1,114,174a4.19,4.19,0,0,1-.23,1.37,3.39,3.39,0,0,1-.64,1.13,3.29,3.29,0,0,1-1,.79,3,3,0,0,1-1.33.29,3.25,3.25,0,0,1-1.92-.57,2.72,2.72,0,0,1-1-1.54ZM105.3,172a2.11,2.11,0,0,0-.8.15,2.13,2.13,0,0,0-.63.43,1.85,1.85,0,0,0-.41.64,1.91,1.91,0,0,0-.16.8,1.94,1.94,0,0,0,1.2,1.86,2.11,2.11,0,0,0,.8.15,2.07,2.07,0,0,0,.8-.15,1.74,1.74,0,0,0,.63-.42,2,2,0,0,0,.42-.64,2.11,2.11,0,0,0,.15-.8,2.07,2.07,0,0,0-.15-.8,1.87,1.87,0,0,0-.42-.64,1.9,1.9,0,0,0-.63-.43A2.07,2.07,0,0,0,105.3,172Zm5.28-.41a2.35,2.35,0,0,0-.92.17,2.19,2.19,0,0,0-1.22,1.26,2.9,2.9,0,0,0,0,2,2.21,2.21,0,0,0,.49.76,2.16,2.16,0,0,0,.73.48,2.36,2.36,0,0,0,.92.18,2.32,2.32,0,0,0,.92-.18,2.13,2.13,0,0,0,1.23-1.24,3.06,3.06,0,0,0,0-2,2.16,2.16,0,0,0-.49-.77,2.22,2.22,0,0,0-.74-.49A2.32,2.32,0,0,0,110.58,171.54Z"/><path d="M103.49,162.08v4.62l3.41.08a4.61,4.61,0,0,1-.21-.75,4.9,4.9,0,0,1-.06-.77,3.78,3.78,0,0,1,.27-1.45,3.31,3.31,0,0,1,.76-1.13,3.72,3.72,0,0,1,1.15-.74,4.06,4.06,0,0,1,1.45-.26,3.82,3.82,0,0,1,1.5.29,3.53,3.53,0,0,1,1.17.8,3.83,3.83,0,0,1,.76,1.21,4.1,4.1,0,0,1,.27,1.51,3.71,3.71,0,0,1-.51,1.93,3.34,3.34,0,0,1-1.51,1.33l-.49-1.15a2.64,2.64,0,0,0,1.06-.89,2.34,2.34,0,0,0,.39-1.33,2.38,2.38,0,0,0-.2-1,2.45,2.45,0,0,0-1.33-1.35,2.54,2.54,0,0,0-1-.2,2.75,2.75,0,0,0-1.09.21,2.56,2.56,0,0,0-.86.58,2.4,2.4,0,0,0-.55.88,3.1,3.1,0,0,0-.19,1.12,4.5,4.5,0,0,0,.16,1.2,6.42,6.42,0,0,0,.46,1.15l-5.87-.11v-5.78Z"/><path d="M107.94,155l-.83,0-.83,0V154h1.14v0a2.52,2.52,0,0,1-1-1.07,3.05,3.05,0,0,1-.33-1.35,3.83,3.83,0,0,1,.06-.65,2.25,2.25,0,0,1,.23-.66,2,2,0,0,1,.47-.6,2.44,2.44,0,0,1,.79-.47,2.56,2.56,0,0,1-1.14-1,2.85,2.85,0,0,1-.41-1.45,2.73,2.73,0,0,1,.76-2.13,3.14,3.14,0,0,1,2.16-.68h4.76v1H109.4a3.17,3.17,0,0,0-1.75.4,1.66,1.66,0,0,0-.6,1.49,1.84,1.84,0,0,0,.84,1.64,2.76,2.76,0,0,0,.88.36,4.74,4.74,0,0,0,1,.11h4V150H109.4a3.17,3.17,0,0,0-1.75.4,1.65,1.65,0,0,0-.6,1.49,3.61,3.61,0,0,0,.06.44,1.67,1.67,0,0,0,.35.71,2.61,2.61,0,0,0,.87.66,3.48,3.48,0,0,0,1.6.3h3.84V155Z"/><path d="M107.94,141.39l-.83,0-.83.05v-1.13h1.14v0a2.5,2.5,0,0,1-1-1.06,3.05,3.05,0,0,1-.33-1.35,3.83,3.83,0,0,1,.06-.65,2.25,2.25,0,0,1,.23-.66,2,2,0,0,1,.47-.6,2.64,2.64,0,0,1,.79-.48,2.48,2.48,0,0,1-1.14-1,2.87,2.87,0,0,1-.41-1.45,2.73,2.73,0,0,1,.76-2.13,3.1,3.1,0,0,1,2.16-.69h4.76v1.06H109.4a3.17,3.17,0,0,0-1.75.4,1.66,1.66,0,0,0-.6,1.49,1.84,1.84,0,0,0,.84,1.64,3,3,0,0,0,.88.36,4.74,4.74,0,0,0,1,.11h4v1.06H109.4a3.17,3.17,0,0,0-1.75.4,1.64,1.64,0,0,0-.6,1.48,3.37,3.37,0,0,0,.06.44,1.71,1.71,0,0,0,.35.72,2.61,2.61,0,0,0,.87.66,3.48,3.48,0,0,0,1.6.3h3.84v1Z"/></g><g class="cls-2"><path d="M110,117.82v-1.63h1.06v1.63h2.69V119h-2.69v4.9h-1.31l-7.33-4.58v-1.47ZM103.59,119v0l6.43,3.91V119Z"/><path d="M102.25,111.13a3.17,3.17,0,0,1,.56-2,3.78,3.78,0,0,1,1.42-1.17,6.77,6.77,0,0,1,1.9-.56,15.09,15.09,0,0,1,2-.14,15.36,15.36,0,0,1,2,.14A6.6,6.6,0,0,1,112,108a3.81,3.81,0,0,1,1.43,1.17,3.75,3.75,0,0,1,0,3.94,3.81,3.81,0,0,1-1.43,1.17,6.6,6.6,0,0,1-1.89.56,15.36,15.36,0,0,1-2,.14,15.09,15.09,0,0,1-2-.14,6.77,6.77,0,0,1-1.9-.56,3.78,3.78,0,0,1-1.42-1.17A3.17,3.17,0,0,1,102.25,111.13Zm1,0a2.05,2.05,0,0,0,.5,1.46,3.08,3.08,0,0,0,1.23.81,6.09,6.09,0,0,0,1.57.35c.55,0,1.05.07,1.5.07s1,0,1.51-.07a6.11,6.11,0,0,0,1.56-.35,3,3,0,0,0,1.24-.81,2.42,2.42,0,0,0,0-2.92,3,3,0,0,0-1.24-.81,6.11,6.11,0,0,0-1.56-.35c-.56,0-1.06-.07-1.51-.07s-.95,0-1.5.07a6.09,6.09,0,0,0-1.57.35,3.08,3.08,0,0,0-1.23.81A2.05,2.05,0,0,0,103.3,111.13Z"/><path d="M102.25,102.23a3.14,3.14,0,0,1,.56-2,3.6,3.6,0,0,1,1.42-1.17,6.17,6.17,0,0,1,1.9-.56,13.58,13.58,0,0,1,2-.15,13.82,13.82,0,0,1,2,.15,6,6,0,0,1,1.89.56,3.63,3.63,0,0,1,1.43,1.17,3.73,3.73,0,0,1,0,3.93,3.81,3.81,0,0,1-1.43,1.17,6.3,6.3,0,0,1-1.89.56,13.76,13.76,0,0,1-2,.14,13.53,13.53,0,0,1-2-.14,6.45,6.45,0,0,1-1.9-.56,3.78,3.78,0,0,1-1.42-1.17A3.17,3.17,0,0,1,102.25,102.23Zm1,0a2.09,2.09,0,0,0,.5,1.47,3.19,3.19,0,0,0,1.23.81,6.09,6.09,0,0,0,1.57.34c.55.05,1.05.07,1.5.07s1,0,1.51-.07a6.1,6.1,0,0,0,1.56-.34,3.15,3.15,0,0,0,1.24-.81,2.44,2.44,0,0,0,0-2.93,3,3,0,0,0-1.24-.81,6.1,6.1,0,0,0-1.56-.34c-.56-.05-1.06-.07-1.51-.07s-.95,0-1.5.07A6.09,6.09,0,0,0,105,100a3.08,3.08,0,0,0-1.23.81A2.09,2.09,0,0,0,103.3,102.23Z"/><path d="M102.25,93.34a3.17,3.17,0,0,1,.56-2,3.78,3.78,0,0,1,1.42-1.17,6.45,6.45,0,0,1,1.9-.56,15.09,15.09,0,0,1,2-.14,15.36,15.36,0,0,1,2,.14,6.3,6.3,0,0,1,1.89.56,3.81,3.81,0,0,1,1.43,1.17,3.75,3.75,0,0,1,0,3.94A3.69,3.69,0,0,1,112,96.47a6,6,0,0,1-1.89.56,13.82,13.82,0,0,1-2,.15,13.58,13.58,0,0,1-2-.15,6.17,6.17,0,0,1-1.9-.56,3.66,3.66,0,0,1-1.42-1.16A3.19,3.19,0,0,1,102.25,93.34Zm1,0a2.07,2.07,0,0,0,.5,1.46,3.08,3.08,0,0,0,1.23.81,5.7,5.7,0,0,0,1.57.34c.55,0,1.05.08,1.5.08s1,0,1.51-.08a5.71,5.71,0,0,0,1.56-.34,3,3,0,0,0,1.24-.81,2.06,2.06,0,0,0,.49-1.46,2.09,2.09,0,0,0-.49-1.47,3.13,3.13,0,0,0-1.24-.8,5.72,5.72,0,0,0-1.56-.35c-.56,0-1.06-.07-1.51-.07s-.95,0-1.5.07a5.71,5.71,0,0,0-1.57.35,3.17,3.17,0,0,0-1.23.8A2.09,2.09,0,0,0,103.3,93.34Z"/><path d="M107.94,83.29l-.83,0-.83.06V82.23h1.14v0a2.5,2.5,0,0,1-1-1.06,3.12,3.12,0,0,1-.33-1.35,3.74,3.74,0,0,1,.06-.65,2.42,2.42,0,0,1,.23-.67,2.34,2.34,0,0,1,.47-.6,2.85,2.85,0,0,1,.79-.47,2.48,2.48,0,0,1-1.14-1,2.87,2.87,0,0,1-.41-1.45,2.73,2.73,0,0,1,.76-2.13,3.1,3.1,0,0,1,2.16-.69h4.76v1.06H109.4a3.17,3.17,0,0,0-1.75.4,1.65,1.65,0,0,0-.6,1.49,1.91,1.91,0,0,0,.23,1,2,2,0,0,0,.61.65,3,3,0,0,0,.88.36,4.74,4.74,0,0,0,1,.11h4v1H109.4a3.26,3.26,0,0,0-1.75.4,1.67,1.67,0,0,0-.6,1.49,3.37,3.37,0,0,0,.06.44,1.62,1.62,0,0,0,.35.71,2.5,2.5,0,0,0,.87.67,3.63,3.63,0,0,0,1.6.29h3.84v1.06Z"/><path d="M107.94,69.66l-.83,0-.83.06V68.6h1.14v0a2.55,2.55,0,0,1-1-1.06,3.12,3.12,0,0,1-.33-1.36,3.63,3.63,0,0,1,.06-.64,2.42,2.42,0,0,1,.23-.67,2.34,2.34,0,0,1,.47-.6,2.85,2.85,0,0,1,.79-.47,2.45,2.45,0,0,1-1.14-1,2.81,2.81,0,0,1-.41-1.44,2.73,2.73,0,0,1,.76-2.13,3.1,3.1,0,0,1,2.16-.69h4.76v1.06H109.4a3.17,3.17,0,0,0-1.75.4,1.64,1.64,0,0,0-.6,1.48,1.92,1.92,0,0,0,.23,1,1.87,1.87,0,0,0,.61.64,2.55,2.55,0,0,0,.88.36,4.17,4.17,0,0,0,1,.12h4v1H109.4a3.17,3.17,0,0,0-1.75.4,1.66,1.66,0,0,0-.6,1.49,3.61,3.61,0,0,0,.06.44,1.62,1.62,0,0,0,.35.71,2.5,2.5,0,0,0,.87.67,3.63,3.63,0,0,0,1.6.29h3.84v1.06Z"/></g><g class="cls-2"><path d="M121.56,188.67a3.7,3.7,0,0,1,.68,1.16,4.2,4.2,0,0,1,.25,1.45,4,4,0,0,1-.3,1.56,3.82,3.82,0,0,1-.82,1.25,3.89,3.89,0,0,1-1.26.83,4.39,4.39,0,0,1-1.61.29,4.15,4.15,0,0,1-1.4-.22,3.72,3.72,0,0,1-1.11-.61l-1.07,1.09-.51-.5,1-1.09a3.62,3.62,0,0,1-.69-1.17,4.21,4.21,0,0,1-.24-1.43,4,4,0,0,1,.3-1.57,3.65,3.65,0,0,1,2.08-2.07,4.43,4.43,0,0,1,3-.08,3.89,3.89,0,0,1,1.16.61l1-1.09.51.5Zm-1.25.25a2.69,2.69,0,0,0-1.81-.62,2.87,2.87,0,0,0-1.17.23,2.71,2.71,0,0,0-.88.63,2.91,2.91,0,0,0-.56,1,3.2,3.2,0,0,0-.2,1.17,3,3,0,0,0,.54,1.82Zm-3.6,4.72a2.43,2.43,0,0,0,.8.45,2.86,2.86,0,0,0,1,.16,3,3,0,0,0,1.18-.23,2.62,2.62,0,0,0,1.45-1.58,3.18,3.18,0,0,0,.2-1.16,3.13,3.13,0,0,0-.54-1.83Z"/><path d="M133.27,195h-1.15v-9.89l-2,1.79-.72-.86,2.88-2.37h1Z"/><path d="M142.17,195H141v-9.89l-2,1.79-.72-.86,2.88-2.37h1Z"/><path d="M153.46,195h-7.2v-1.33l4.51-4.59c.17-.17.35-.35.52-.54a6.5,6.5,0,0,0,.46-.61,3.84,3.84,0,0,0,.34-.67,2.3,2.3,0,0,0,.12-.74,2,2,0,0,0-.16-.83,1.76,1.76,0,0,0-.48-.63,2.08,2.08,0,0,0-.7-.39,2.65,2.65,0,0,0-.85-.13,2.32,2.32,0,0,0-1.47.48,2.11,2.11,0,0,0-.78,1.29l-1.22-.13a3.18,3.18,0,0,1,1.16-2,3.51,3.51,0,0,1,2.23-.72,4.66,4.66,0,0,1,1.31.18,3.26,3.26,0,0,1,1.08.56,2.63,2.63,0,0,1,.76.92,2.84,2.84,0,0,1,.28,1.28,3.51,3.51,0,0,1-.2,1.2,5.24,5.24,0,0,1-.52,1,7.86,7.86,0,0,1-.73.91c-.27.29-.55.57-.84.85L147.51,194h6Z"/><path d="M160,189.2c0-.28,0-.56,0-.84l-.06-.83h1.14v1.14h0a2.41,2.41,0,0,1,1.06-1,3,3,0,0,1,1.35-.34,3.74,3.74,0,0,1,.65.06,2.45,2.45,0,0,1,.67.24,2.34,2.34,0,0,1,.6.47,2.65,2.65,0,0,1,.47.78,2.41,2.41,0,0,1,1-1.13,2.79,2.79,0,0,1,1.45-.42,2.73,2.73,0,0,1,2.13.76,3.12,3.12,0,0,1,.69,2.17V195H170.1v-4.37a3.11,3.11,0,0,0-.4-1.74,1.64,1.64,0,0,0-1.49-.61,1.82,1.82,0,0,0-1.64.85,2.84,2.84,0,0,0-.36.87,4.76,4.76,0,0,0-.11,1v4h-1v-4.37a3.2,3.2,0,0,0-.4-1.74,1.65,1.65,0,0,0-1.49-.61l-.44.06a1.65,1.65,0,0,0-.71.36,2.55,2.55,0,0,0-.67.86,3.52,3.52,0,0,0-.29,1.6V195H160Z"/><path d="M173.62,189.2c0-.28,0-.56,0-.84l-.06-.83h1.14v1.14h0a2.47,2.47,0,0,1,1.06-1,3,3,0,0,1,1.35-.34,3.74,3.74,0,0,1,.65.06,2.45,2.45,0,0,1,.67.24,2.34,2.34,0,0,1,.6.47,2.65,2.65,0,0,1,.47.78,2.38,2.38,0,0,1,1-1.13,3.06,3.06,0,0,1,3.57.34,3.12,3.12,0,0,1,.69,2.17V195h-1.06v-4.37a3.11,3.11,0,0,0-.4-1.74,1.62,1.62,0,0,0-1.48-.61,2,2,0,0,0-1,.23,1.9,1.9,0,0,0-.64.62,2.42,2.42,0,0,0-.36.87,4.19,4.19,0,0,0-.12,1v4h-1v-4.37a3.2,3.2,0,0,0-.4-1.74,1.65,1.65,0,0,0-1.49-.61l-.44.06a1.65,1.65,0,0,0-.71.36,2.55,2.55,0,0,0-.67.86,3.66,3.66,0,0,0-.29,1.6V195h-1.06Z"/></g><line class="cls-3" x1="124.66" y1="163.09" x2="124.66" y2="135.33"/><line class="cls-3" x1="122.81" y1="135.32" x2="126.36" y2="135.32"/><line class="cls-3" x1="122.13" y1="163.09" x2="127.19" y2="163.09"/><line class="cls-3" x1="124.66" y1="135.32" x2="124.66" y2="47.06"/><line class="cls-3" x1="122.81" y1="47.03" x2="126.36" y2="47.03"/><line class="cls-3" x1="122.13" y1="135.32" x2="127.19" y2="135.32"/><line class="cls-3" x1="131.54" y1="173.23" x2="167.1" y2="173.23"/><line class="cls-3" x1="131.54" y1="172.94" x2="131.54" y2="173.52"/><line class="cls-3" x1="167.1" y1="172.94" x2="167.1" y2="173.52"/><line class="cls-3" x1="131.54" y1="170.7" x2="131.54" y2="175.76"/><line class="cls-3" x1="167.1" y1="170.7" x2="167.1" y2="175.76"/><g class="cls-4"><path class="cls-5" d="M145.84,162.28h0m8.18-.1a12.91,12.91,0,0,0,3.63-24.81m0,0H141m0,0a12.9,12.9,0,0,0,3.62,24.81m13-24.81H141m0,0a12.9,12.9,0,0,0,3.62,24.81m0,0c1.62.15,3.08.22,4.7.22m-8.32-25a12.9,12.9,0,0,0,3.62,24.81m0,0c1.62.15,3.08.22,4.7.22m0,0c1.62,0,3.08-.07,4.69-.22m-4.69.22c1.62,0,3.08-.07,4.69-.22m-4.69.22c1.62,0,3.08-.07,4.69-.22m3.63-24.81H141m0,0h16.64m-16.35,0v-.88a.29.29,0,0,1,.09-.2.27.27,0,0,1,.21-.09m15.76,1.16v-.87c0-.16,0-.26-.13-.28h-.16m.09,0H141.59m7.41,0s3.26-41.46,3.26-53.12-5.95-65.59-5.95-75.26S149-14.66,149-14.66m.87,150.86s3.26-41.46,3.26-53.12-5.95-65.59-5.95-75.26,2.69-22.48,2.69-22.48"/></g></svg>