<svg id="Glo_Ball_C1" xmlns="http://www.w3.org/2000/svg" viewBox="0 0 300 263"><defs><style>.cls-1,.cls-3{fill:none;stroke-width:0.5px;}.cls-1{stroke:#000;}.cls-2{isolation:isolate;}.cls-3{stroke:#1d1d1b;stroke-miterlimit:3.86;}</style></defs><title>glo-ball-ceiling-wall-1-morrison-flos-F3023000-spech-tech-02-300x263-01</title><line class="cls-1" x1="128.04" y1="64.21" x2="171.96" y2="64.4"/><line class="cls-1" x1="128.05" y1="63.45" x2="128.04" y2="64.98"/><line class="cls-1" x1="171.96" y1="63.64" x2="171.95" y2="65.17"/><g class="cls-2"><path d="M124,48.82a3.82,3.82,0,0,1,.68,1.16,4.28,4.28,0,0,1,.24,1.45,4,4,0,0,1-.3,1.57,3.73,3.73,0,0,1-2.09,2.06,4.19,4.19,0,0,1-1.61.29,4.15,4.15,0,0,1-1.4-.23,3.72,3.72,0,0,1-1.11-.61l-1.08,1.08-.51-.5L117.92,54a3.83,3.83,0,0,1-.68-1.18A4.17,4.17,0,0,1,117,51.4a4,4,0,0,1,.3-1.57,3.8,3.8,0,0,1,.83-1.24,3.62,3.62,0,0,1,1.26-.82,4.5,4.5,0,0,1,3-.07,3.86,3.86,0,0,1,1.15.62l1.06-1.08.51.5Zm-1.25.25a2.62,2.62,0,0,0-1.8-.63,2.79,2.79,0,0,0-1.18.23,2.55,2.55,0,0,0-.88.62,2.81,2.81,0,0,0-.56,1,3.19,3.19,0,0,0-.21,1.16,3,3,0,0,0,.54,1.83Zm-3.62,4.71a2.85,2.85,0,0,0,.8.45,3.11,3.11,0,0,0,1,.16,2.79,2.79,0,0,0,1.18-.23,2.62,2.62,0,0,0,1.46-1.57,3.19,3.19,0,0,0,.21-1.16,3.13,3.13,0,0,0-.54-1.83Z"/><path d="M131.28,55.2h-1.15l0-9.89-2,1.78-.72-.86,2.89-2.36h1Z"/><path d="M140.18,55.24H139l0-9.89-2,1.78-.72-.87,2.89-2.35h1Z"/><path d="M148,43.75a3.31,3.31,0,0,1,2,.57,3.86,3.86,0,0,1,1.16,1.43,6.44,6.44,0,0,1,.55,1.9,13.08,13.08,0,0,1,0,4,6.18,6.18,0,0,1-.57,1.9,3.82,3.82,0,0,1-1.17,1.41,3.17,3.17,0,0,1-2,.56,3.31,3.31,0,0,1-2-.57,3.86,3.86,0,0,1-1.16-1.43,6.44,6.44,0,0,1-.55-1.9,14,14,0,0,1,0-4,6.46,6.46,0,0,1,.57-1.9A3.82,3.82,0,0,1,146,44.31,3.17,3.17,0,0,1,148,43.75Zm0,1.06a2.09,2.09,0,0,0-1.47.49,3.08,3.08,0,0,0-.81,1.23,5.72,5.72,0,0,0-.35,1.56c-.05.56-.08,1.06-.08,1.51s0,.95.06,1.5a6.09,6.09,0,0,0,.34,1.57,3.2,3.2,0,0,0,.8,1.24,2.42,2.42,0,0,0,2.93,0,3.08,3.08,0,0,0,.81-1.23,5.71,5.71,0,0,0,.35-1.57,13.75,13.75,0,0,0,.08-1.5c0-.45,0-.95-.06-1.5a6.09,6.09,0,0,0-.34-1.57,3.2,3.2,0,0,0-.8-1.24A2.09,2.09,0,0,0,148,44.81Z"/><path d="M158,49.49a7.73,7.73,0,0,0,0-.83c0-.28,0-.55-.05-.83h1.14V49h0a2.41,2.41,0,0,1,1.06-1,3.12,3.12,0,0,1,1.36-.33,3.68,3.68,0,0,1,.64.07,2.42,2.42,0,0,1,.67.23,2.64,2.64,0,0,1,.6.48,2.44,2.44,0,0,1,.46.78,2.59,2.59,0,0,1,1-1.13,2.87,2.87,0,0,1,1.45-.41,2.77,2.77,0,0,1,2.13.77,3.12,3.12,0,0,1,.68,2.17l0,4.76h-1.06l0-4.37a3.23,3.23,0,0,0-.39-1.74,1.67,1.67,0,0,0-1.49-.62,2,2,0,0,0-1,.23,1.9,1.9,0,0,0-.65.61,2.58,2.58,0,0,0-.36.87,4.31,4.31,0,0,0-.12,1l0,4h-1.05V51a3.09,3.09,0,0,0-.39-1.75,1.65,1.65,0,0,0-1.48-.61l-.44.06A1.71,1.71,0,0,0,160,49a2.53,2.53,0,0,0-.66.86,3.66,3.66,0,0,0-.31,1.6v3.84H158Z"/><path d="M171.66,49.55c0-.28,0-.55,0-.83l-.06-.83h1.14V49h0a2.41,2.41,0,0,1,1.06-1,3.12,3.12,0,0,1,1.36-.33,3.07,3.07,0,0,1,.65.07,2.36,2.36,0,0,1,.66.23,2.19,2.19,0,0,1,.6.48,2.44,2.44,0,0,1,.46.78,2.5,2.5,0,0,1,1-1.13,2.82,2.82,0,0,1,1.45-.41,2.74,2.74,0,0,1,2.12.77,3.12,3.12,0,0,1,.68,2.17l0,4.75h-1.06l0-4.37a3.27,3.27,0,0,0-.39-1.75,1.67,1.67,0,0,0-1.49-.61,1.84,1.84,0,0,0-1.64.84,2.58,2.58,0,0,0-.36.87,4.31,4.31,0,0,0-.12,1l0,4h-1.05l0-4.37a3.17,3.17,0,0,0-.4-1.75,1.65,1.65,0,0,0-1.48-.61l-.44.06a1.71,1.71,0,0,0-.72.35,2.67,2.67,0,0,0-.66.86,3.63,3.63,0,0,0-.31,1.6v3.84h-1.06Z"/></g><line class="cls-1" x1="241.67" y1="226.49" x2="57.33" y2="226.49"/><line class="cls-1" x1="241.67" y1="228.03" x2="241.67" y2="224.85"/><line class="cls-1" x1="57.33" y1="228.03" x2="57.33" y2="224.85"/><g class="cls-2"><path d="M121.12,240.42a3.62,3.62,0,0,1,.68,1.16,4.05,4.05,0,0,1,.25,1.45,4.22,4.22,0,0,1-.29,1.57,3.85,3.85,0,0,1-.83,1.25,3.67,3.67,0,0,1-1.25.82,4.23,4.23,0,0,1-1.61.3,4.15,4.15,0,0,1-1.4-.23,3.94,3.94,0,0,1-1.11-.6l-1.08,1.08-.51-.49,1.06-1.09a3.56,3.56,0,0,1-.69-1.18,4.17,4.17,0,0,1-.24-1.43,4.07,4.07,0,0,1,.3-1.57,3.73,3.73,0,0,1,2.08-2.07,4.29,4.29,0,0,1,1.59-.29,4.45,4.45,0,0,1,1.39.21,3.86,3.86,0,0,1,1.15.62l1.06-1.09.51.5Zm-1.24.26a2.65,2.65,0,0,0-1.81-.62,2.79,2.79,0,0,0-1.18.23,2.54,2.54,0,0,0-.88.63,3,3,0,0,0-.56.94,3.51,3.51,0,0,0-.2,1.17,3,3,0,0,0,.55,1.83Zm-3.6,4.72a2.72,2.72,0,0,0,.8.45,2.82,2.82,0,0,0,1,.16,2.87,2.87,0,0,0,1.17-.23,2.75,2.75,0,0,0,1.46-1.58,3.42,3.42,0,0,0,.2-1.17,3.13,3.13,0,0,0-.54-1.82Z"/><path d="M130.53,240.31h.59a3.82,3.82,0,0,0,1-.11,2.11,2.11,0,0,0,.79-.36,1.79,1.79,0,0,0,.53-.65,2,2,0,0,0,.2-1,1.79,1.79,0,0,0-.55-1.41,2.18,2.18,0,0,0-1.54-.51,2.52,2.52,0,0,0-1.27.32,2.57,2.57,0,0,0-.89.93l-1-.51a3.39,3.39,0,0,1,1.3-1.35,3.66,3.66,0,0,1,1.84-.44,4,4,0,0,1,1.26.19,3.18,3.18,0,0,1,1,.57,2.68,2.68,0,0,1,.71.92,2.84,2.84,0,0,1,.27,1.26,2.59,2.59,0,0,1-.16.88,2.72,2.72,0,0,1-.41.75,2.89,2.89,0,0,1-.62.59,2.79,2.79,0,0,1-.73.37l0,0a2.64,2.64,0,0,1,.88.36,2.85,2.85,0,0,1,.69.65,3.26,3.26,0,0,1,.45.87,3,3,0,0,1,.16,1,3.27,3.27,0,0,1-.29,1.4,3,3,0,0,1-.78,1,3.39,3.39,0,0,1-1.15.63,4.32,4.32,0,0,1-1.4.22,4.14,4.14,0,0,1-2.17-.55,3.29,3.29,0,0,1-1.39-1.74l1.21-.37a2.33,2.33,0,0,0,.86,1.21,2.79,2.79,0,0,0,1.59.39,2.53,2.53,0,0,0,.91-.16,2.32,2.32,0,0,0,.76-.45,2.05,2.05,0,0,0,.51-.72,2.09,2.09,0,0,0,.19-.91,2.27,2.27,0,0,0-.24-1.08,2.09,2.09,0,0,0-.64-.71,2.81,2.81,0,0,0-.92-.39,4.83,4.83,0,0,0-1.08-.12h-.5Z"/><path d="M139.43,240.31H140a3.69,3.69,0,0,0,.95-.11,2,2,0,0,0,.79-.36,1.72,1.72,0,0,0,.54-.65,2.13,2.13,0,0,0,.2-1,1.79,1.79,0,0,0-.55-1.41,2.21,2.21,0,0,0-1.55-.51,2.46,2.46,0,0,0-1.26.32,2.68,2.68,0,0,0-.9.93l-1-.51a3.33,3.33,0,0,1,1.3-1.35,3.65,3.65,0,0,1,1.83-.44,4.07,4.07,0,0,1,1.27.19,3.18,3.18,0,0,1,1,.57,3,3,0,0,1,.71.92,3,3,0,0,1,.26,1.26,2.58,2.58,0,0,1-.15.88,2.5,2.5,0,0,1-.42.75,2.76,2.76,0,0,1-1.35,1l.05,0a2.72,2.72,0,0,1,.88.36,2.85,2.85,0,0,1,.69.65,3.26,3.26,0,0,1,.45.87,3.32,3.32,0,0,1,.16,1,3.27,3.27,0,0,1-.29,1.4,3,3,0,0,1-.79,1,3.3,3.3,0,0,1-1.15.63,4.26,4.26,0,0,1-1.39.22,4.18,4.18,0,0,1-2.18-.55,3.29,3.29,0,0,1-1.39-1.74l1.22-.37a2.31,2.31,0,0,0,.85,1.21,2.8,2.8,0,0,0,1.6.39,2.53,2.53,0,0,0,.91-.16,2.32,2.32,0,0,0,.76-.45,2.05,2.05,0,0,0,.51-.72,2.24,2.24,0,0,0,.18-.91,2.27,2.27,0,0,0-.24-1.08,2,2,0,0,0-.64-.71,2.64,2.64,0,0,0-.92-.39,4.7,4.7,0,0,0-1.08-.12h-.49Z"/><path d="M149.51,235.26a3.19,3.19,0,0,1,2,.56,3.66,3.66,0,0,1,1.16,1.42,6.17,6.17,0,0,1,.56,1.9,13.58,13.58,0,0,1,.15,2,13.82,13.82,0,0,1-.15,2,6,6,0,0,1-.56,1.89,3.69,3.69,0,0,1-1.16,1.43,3.75,3.75,0,0,1-3.94,0,3.81,3.81,0,0,1-1.17-1.43,6.3,6.3,0,0,1-.56-1.89,15.36,15.36,0,0,1-.14-2,15.09,15.09,0,0,1,.14-2,6.45,6.45,0,0,1,.56-1.9,3.78,3.78,0,0,1,1.17-1.42A3.17,3.17,0,0,1,149.51,235.26Zm0,1.05a2.09,2.09,0,0,0-1.47.5,3.17,3.17,0,0,0-.8,1.23,5.71,5.71,0,0,0-.35,1.57c0,.55-.07,1-.07,1.5s0,.95.07,1.51a5.72,5.72,0,0,0,.35,1.56,3.2,3.2,0,0,0,.8,1.24,2.09,2.09,0,0,0,1.47.49,2.06,2.06,0,0,0,1.46-.49,3.11,3.11,0,0,0,.81-1.24,5.71,5.71,0,0,0,.34-1.56c0-.56.08-1.06.08-1.51s0-1-.08-1.5a5.7,5.7,0,0,0-.34-1.57,3.08,3.08,0,0,0-.81-1.23A2.07,2.07,0,0,0,149.51,236.31Z"/><path d="M159.56,241c0-.28,0-.55,0-.83s0-.55-.05-.83h1.13v1.13h0a2.56,2.56,0,0,1,1.07-1,3.05,3.05,0,0,1,1.35-.33,3.83,3.83,0,0,1,.65.06,2.25,2.25,0,0,1,.66.23,2.18,2.18,0,0,1,.6.47,2.44,2.44,0,0,1,.47.79,2.56,2.56,0,0,1,1-1.14,2.85,2.85,0,0,1,1.45-.41,2.73,2.73,0,0,1,2.13.76,3.14,3.14,0,0,1,.68,2.16v4.76h-1.05v-4.37a3.26,3.26,0,0,0-.4-1.75,1.67,1.67,0,0,0-1.49-.6,1.86,1.86,0,0,0-1,.23,1.81,1.81,0,0,0-.65.61,2.55,2.55,0,0,0-.36.88,4.74,4.74,0,0,0-.11,1v4h-1.06v-4.37a3.17,3.17,0,0,0-.4-1.75,1.66,1.66,0,0,0-1.49-.6l-.44.06a1.67,1.67,0,0,0-.71.35,2.48,2.48,0,0,0-.66.87,3.48,3.48,0,0,0-.3,1.6v3.84h-1.05Z"/><path d="M173.19,241c0-.28,0-.55,0-.83s0-.55,0-.83h1.13v1.13h0a2.53,2.53,0,0,1,1.06-1,3.05,3.05,0,0,1,1.35-.33,3.83,3.83,0,0,1,.65.06,2.25,2.25,0,0,1,.66.23,2,2,0,0,1,.6.47,2.64,2.64,0,0,1,.48.79,2.48,2.48,0,0,1,1-1.14,2.87,2.87,0,0,1,1.45-.41,2.73,2.73,0,0,1,2.13.76,3.1,3.1,0,0,1,.69,2.16v4.76H183.3v-4.37a3.17,3.17,0,0,0-.4-1.75,1.66,1.66,0,0,0-1.49-.6,1.84,1.84,0,0,0-1.64.84,3,3,0,0,0-.36.88,4.74,4.74,0,0,0-.11,1v4h-1.06v-4.37a3.17,3.17,0,0,0-.4-1.75,1.64,1.64,0,0,0-1.48-.6l-.44.06a1.71,1.71,0,0,0-.72.35,2.61,2.61,0,0,0-.66.87,3.48,3.48,0,0,0-.3,1.6v3.84h-1.05Z"/></g><line class="cls-1" x1="50.89" y1="74.19" x2="51.04" y2="217.26"/><line class="cls-1" x1="52.43" y1="74.19" x2="49.26" y2="74.19"/><line class="cls-1" x1="52.58" y1="217.26" x2="49.41" y2="217.26"/><g class="cls-2"><path d="M43.23,167l0,7.2H41.87l-4.57-4.54-.54-.51a4.71,4.71,0,0,0-.61-.47,3.25,3.25,0,0,0-.67-.34,2,2,0,0,0-.73-.13,2,2,0,0,0-.83.16,1.74,1.74,0,0,0-.63.47,2.2,2.2,0,0,0-.4.7,2.66,2.66,0,0,0-.14.85,2.33,2.33,0,0,0,.47,1.47,2.19,2.19,0,0,0,1.29.8l-.13,1.21a3.15,3.15,0,0,1-2-1.17,3.52,3.52,0,0,1-.7-2.24,4.31,4.31,0,0,1,.19-1.3,3.24,3.24,0,0,1,.55-1.08,2.62,2.62,0,0,1,.93-.75,2.66,2.66,0,0,1,1.29-.27,3.51,3.51,0,0,1,1.2.2,4.94,4.94,0,0,1,1,.53,6.93,6.93,0,0,1,.91.73l.84.85,3.51,3.58,0-6Z"/><path d="M33,158.42,43.26,163v1.29L33,159.62l0,5.52h-1l0-6.72Z"/><path d="M31.79,152.65a3.21,3.21,0,0,1,.58-2,3.69,3.69,0,0,1,1.43-1.16,6.08,6.08,0,0,1,1.9-.55,13.48,13.48,0,0,1,2-.13,13.82,13.82,0,0,1,2,.15,6.49,6.49,0,0,1,1.89.57A3.79,3.79,0,0,1,43,150.75a3.7,3.7,0,0,1,0,3.93,3.69,3.69,0,0,1-1.43,1.16,6.08,6.08,0,0,1-1.9.55,15.09,15.09,0,0,1-2,.14,15.5,15.5,0,0,1-2-.16,6.49,6.49,0,0,1-1.89-.57,3.79,3.79,0,0,1-1.42-1.18A3.24,3.24,0,0,1,31.79,152.65Zm1.06,0a2,2,0,0,0,.49,1.46,3.1,3.1,0,0,0,1.23.82,6.11,6.11,0,0,0,1.56.35c.56.05,1.06.08,1.51.08s.94,0,1.5-.06a6.18,6.18,0,0,0,1.57-.34,3.06,3.06,0,0,0,1.24-.8,2.4,2.4,0,0,0,0-2.92,3.21,3.21,0,0,0-1.23-.82,6,6,0,0,0-1.56-.35c-.56-.05-1.06-.08-1.5-.08s-1,0-1.51.06a6.18,6.18,0,0,0-1.57.34,3,3,0,0,0-1.23.8A2,2,0,0,0,32.85,152.66Z"/><path d="M37.55,142.64a7.85,7.85,0,0,0-.84,0l-.83.05v-1.14H37v0a2.41,2.41,0,0,1-1-1.06,3.12,3.12,0,0,1-.33-1.36,3.07,3.07,0,0,1,.07-.65,2.47,2.47,0,0,1,.23-.66,2.64,2.64,0,0,1,.48-.6,2.49,2.49,0,0,1,.79-.46,2.45,2.45,0,0,1-1.13-1,3.07,3.07,0,0,1,.36-3.57,3.12,3.12,0,0,1,2.17-.67l4.75,0v1.06l-4.37,0a3.27,3.27,0,0,0-1.75.39,1.67,1.67,0,0,0-.61,1.49,2,2,0,0,0,.22,1,1.93,1.93,0,0,0,.62.65,2.63,2.63,0,0,0,.87.37,5.47,5.47,0,0,0,1,.12l4,0v1.05l-4.37,0a3,3,0,0,0-1.74.39,1.63,1.63,0,0,0-.62,1.48,3.37,3.37,0,0,0,.06.44,1.71,1.71,0,0,0,.35.72,2.55,2.55,0,0,0,.86.67,3.48,3.48,0,0,0,1.6.3l3.84,0v1.06Z"/><path d="M37.62,129c-.27,0-.55,0-.83,0l-.83.06v-1.14H37.1v0a2.42,2.42,0,0,1-1-1.07,2.92,2.92,0,0,1-.33-1.35,3.83,3.83,0,0,1,.06-.65,2.61,2.61,0,0,1,.24-.66,2.19,2.19,0,0,1,.48-.6,2.44,2.44,0,0,1,.78-.46,2.5,2.5,0,0,1-1.13-1,2.85,2.85,0,0,1-.41-1.45,2.75,2.75,0,0,1,.78-2.12,3.12,3.12,0,0,1,2.17-.68l4.75,0v1.06l-4.37,0a3.25,3.25,0,0,0-1.74.39,1.67,1.67,0,0,0-.62,1.49,2,2,0,0,0,.23,1,1.9,1.9,0,0,0,.61.65,2.82,2.82,0,0,0,.87.37,4.83,4.83,0,0,0,1,.11l4,0v1l-4.36,0a3.09,3.09,0,0,0-1.75.39,1.62,1.62,0,0,0-.61,1.48,3.37,3.37,0,0,0,.06.44,1.6,1.6,0,0,0,.35.72,2.52,2.52,0,0,0,.85.67,3.68,3.68,0,0,0,1.6.3l3.84,0V129Z"/></g><path class="cls-3" d="M129.09,78.85c-16.34,1.64-30.69,5.82-44.26,15-19.23,13-27,28.63-27,54.08s7.58,39.75,27,54.08c18.72,13.83,39.72,15.9,65.17,15.9s46.21-2.41,65.17-15.9,27-28.63,27-54.08-9.1-40.19-27-54.08c-13.07-10.13-27.63-13.9-44.12-15.22Z"/><polygon class="cls-3" points="171.96 78.61 165.02 72.13 134.98 72.13 128.05 78.61 171.96 78.61"/></svg>