<svg id="Glo_Ball_CW_ZERO" xmlns="http://www.w3.org/2000/svg" viewBox="0 0 300 263"><defs><style>.cls-1,.cls-3{fill:none;stroke-width:0.5px;}.cls-1{stroke:#000;}.cls-2{isolation:isolate;}.cls-3{stroke:#1d1d1b;stroke-miterlimit:3.86;}</style></defs><title>glo-ball-ceiling-wall-zero-morrison-flos-F3335009-spech-tech-02-300x263-01</title><line class="cls-1" x1="131.14" y1="83.12" x2="168.86" y2="83.28"/><line class="cls-1" x1="131.14" y1="82.35" x2="131.14" y2="83.88"/><line class="cls-1" x1="168.86" y1="82.51" x2="168.85" y2="84.04"/><g class="cls-2"><path d="M124,67.71a3.82,3.82,0,0,1,.68,1.16,4.28,4.28,0,0,1,.24,1.45,4,4,0,0,1-.3,1.57A3.73,3.73,0,0,1,122.57,74a4.19,4.19,0,0,1-1.61.29,4.15,4.15,0,0,1-1.4-.23,4,4,0,0,1-1.11-.61l-1.08,1.08-.51-.5,1.06-1.08a3.83,3.83,0,0,1-.68-1.18,4.17,4.17,0,0,1-.23-1.43,4,4,0,0,1,.3-1.57,3.8,3.8,0,0,1,.83-1.24,3.48,3.48,0,0,1,1.26-.82,4.5,4.5,0,0,1,3-.07,3.86,3.86,0,0,1,1.15.62l1.06-1.08.51.49Zm-1.25.25a2.62,2.62,0,0,0-1.8-.63,3,3,0,0,0-1.18.22,2.71,2.71,0,0,0-.88.63,2.86,2.86,0,0,0-.56.94,3.28,3.28,0,0,0-.21,1.17,3,3,0,0,0,.54,1.83Zm-3.62,4.7a2.65,2.65,0,0,0,.8.46,3.11,3.11,0,0,0,1,.16,2.79,2.79,0,0,0,1.18-.23,2.69,2.69,0,0,0,1.46-1.57,3.19,3.19,0,0,0,.21-1.16,3.13,3.13,0,0,0-.54-1.83Z"/><path d="M137.79,63.85,133.18,74.1h-1.29l4.7-10.25-5.52,0V62.76l6.72,0Z"/><path d="M146.54,63.88l-4.63,0-.09,3.41a4.17,4.17,0,0,1,.75-.2,5.09,5.09,0,0,1,.77-.06,3.65,3.65,0,0,1,1.46.28,3.22,3.22,0,0,1,1.12.76,3.47,3.47,0,0,1,.73,1.16,3.76,3.76,0,0,1,.26,1.44,3.82,3.82,0,0,1-.29,1.5,3.56,3.56,0,0,1-.81,1.16,3.6,3.6,0,0,1-1.21.76,4,4,0,0,1-1.51.26,3.66,3.66,0,0,1-1.94-.52,3.32,3.32,0,0,1-1.32-1.51l1.15-.49a2.69,2.69,0,0,0,.89,1.07,2.32,2.32,0,0,0,1.33.4,2.55,2.55,0,0,0,1-.2,2.64,2.64,0,0,0,.81-.53,2.59,2.59,0,0,0,.75-1.79,2.79,2.79,0,0,0-.21-1.09,2.44,2.44,0,0,0-1.45-1.41,3.1,3.1,0,0,0-1.12-.2,4.5,4.5,0,0,0-1.2.16,5.21,5.21,0,0,0-1.15.46l.14-5.88,5.77,0Z"/><path d="M153.58,68.36c0-.28,0-.55,0-.83l-.06-.83h1.14v1.14h0a2.41,2.41,0,0,1,1.06-1,3.12,3.12,0,0,1,1.36-.33,3.9,3.9,0,0,1,.65.07,2.36,2.36,0,0,1,.66.23,2.39,2.39,0,0,1,.6.48,2.44,2.44,0,0,1,.46.78,2.5,2.5,0,0,1,1-1.13,2.82,2.82,0,0,1,1.45-.41,2.74,2.74,0,0,1,2.12.77,3.12,3.12,0,0,1,.68,2.17l0,4.75h-1.06l0-4.37a3.23,3.23,0,0,0-.39-1.74,1.67,1.67,0,0,0-1.49-.62,2,2,0,0,0-1,.23,1.9,1.9,0,0,0-.65.61,2.58,2.58,0,0,0-.36.87,4.31,4.31,0,0,0-.12,1l0,4h-1l0-4.37a3.17,3.17,0,0,0-.4-1.75,1.65,1.65,0,0,0-1.48-.61l-.44.06a1.71,1.71,0,0,0-.72.35,2.53,2.53,0,0,0-.66.86,3.66,3.66,0,0,0-.31,1.6v3.84h-1.06Z"/><path d="M167.21,68.42c0-.28,0-.55,0-.83s0-.56-.06-.83h1.14V67.9h0a2.44,2.44,0,0,1,1.07-1,3,3,0,0,1,2-.26,2.25,2.25,0,0,1,.66.23,2.19,2.19,0,0,1,.6.48,2.65,2.65,0,0,1,.47.78,2.42,2.42,0,0,1,1-1.13,2.85,2.85,0,0,1,1.45-.41,2.73,2.73,0,0,1,2.12.77,3.12,3.12,0,0,1,.68,2.17l0,4.75h-1.06l0-4.37a3.09,3.09,0,0,0-.39-1.75,1.65,1.65,0,0,0-1.49-.61,1.84,1.84,0,0,0-1.64.84,2.58,2.58,0,0,0-.36.87,4.31,4.31,0,0,0-.12,1l0,4h-1l0-4.37a3.17,3.17,0,0,0-.4-1.75,1.65,1.65,0,0,0-1.48-.61l-.44.06a1.62,1.62,0,0,0-.71.35,2.55,2.55,0,0,0-.67.86,3.63,3.63,0,0,0-.31,1.6v3.84h-1.06Z"/></g><line class="cls-1" x1="229.17" y1="226.49" x2="72.28" y2="226.49"/><line class="cls-1" x1="229.17" y1="228.03" x2="229.17" y2="224.85"/><line class="cls-1" x1="72.28" y1="228.03" x2="72.28" y2="224.85"/><g class="cls-2"><path d="M121.12,240.42a3.62,3.62,0,0,1,.68,1.16,4.05,4.05,0,0,1,.25,1.45,4.22,4.22,0,0,1-.29,1.57,3.85,3.85,0,0,1-.83,1.25,3.67,3.67,0,0,1-1.25.82,4.23,4.23,0,0,1-1.61.3,4.15,4.15,0,0,1-1.4-.23,3.94,3.94,0,0,1-1.11-.6l-1.08,1.08-.51-.49,1.06-1.09a3.56,3.56,0,0,1-.69-1.18,4.17,4.17,0,0,1-.24-1.43,4.07,4.07,0,0,1,.3-1.57,3.73,3.73,0,0,1,2.08-2.07,4.29,4.29,0,0,1,1.59-.29,4.45,4.45,0,0,1,1.39.21,3.86,3.86,0,0,1,1.15.62l1.06-1.09.51.5Zm-1.24.26a2.65,2.65,0,0,0-1.81-.62,2.79,2.79,0,0,0-1.18.23,2.54,2.54,0,0,0-.88.63,3,3,0,0,0-.56.94,3.51,3.51,0,0,0-.2,1.17,3,3,0,0,0,.55,1.83Zm-3.6,4.72a2.72,2.72,0,0,0,.8.45,2.82,2.82,0,0,0,1,.16,2.87,2.87,0,0,0,1.17-.23,2.75,2.75,0,0,0,1.46-1.58,3.42,3.42,0,0,0,.2-1.17,3.13,3.13,0,0,0-.54-1.82Z"/><path d="M132.84,246.78h-1.16v-9.89l-2,1.79-.72-.86,2.88-2.37h1Z"/><path d="M142,241.91l0,0a2.14,2.14,0,0,1-.73.29,4.46,4.46,0,0,1-.84.09,3.43,3.43,0,0,1-2.47-1,3.28,3.28,0,0,1-.72-1.1,3.84,3.84,0,0,1,0-2.83,3.21,3.21,0,0,1,.77-1.11,3.49,3.49,0,0,1,1.17-.72,4.13,4.13,0,0,1,1.47-.25,4,4,0,0,1,1.47.25,3.49,3.49,0,0,1,1.17.72,3.21,3.21,0,0,1,.77,1.11,3.59,3.59,0,0,1,.27,1.42,4.39,4.39,0,0,1-.28,1.65,10.56,10.56,0,0,1-.69,1.39l-3.06,5H138.9Zm1.15-3.15a2.64,2.64,0,0,0-.18-1,2.33,2.33,0,0,0-.52-.77,2.66,2.66,0,0,0-1.83-.69,2.61,2.61,0,0,0-1,.19,2.41,2.41,0,0,0-.8.5,2.06,2.06,0,0,0-.52.77,2.67,2.67,0,0,0,0,2,2.18,2.18,0,0,0,.52.78,2.13,2.13,0,0,0,.8.5,2.8,2.8,0,0,0,1,.18,2.86,2.86,0,0,0,1-.18,2.3,2.3,0,0,0,.8-.5,2.48,2.48,0,0,0,.52-.78A2.64,2.64,0,0,0,143.14,238.76Z"/><path d="M149.51,235.26a3.19,3.19,0,0,1,2,.56,3.66,3.66,0,0,1,1.16,1.42,6.17,6.17,0,0,1,.56,1.9,13.58,13.58,0,0,1,.15,2,13.82,13.82,0,0,1-.15,2,6,6,0,0,1-.56,1.89,3.69,3.69,0,0,1-1.16,1.43,3.75,3.75,0,0,1-3.94,0,3.81,3.81,0,0,1-1.17-1.43,6.3,6.3,0,0,1-.56-1.89,15.36,15.36,0,0,1-.14-2,15.09,15.09,0,0,1,.14-2,6.45,6.45,0,0,1,.56-1.9,3.78,3.78,0,0,1,1.17-1.42A3.17,3.17,0,0,1,149.51,235.26Zm0,1.05a2.09,2.09,0,0,0-1.47.5,3.17,3.17,0,0,0-.8,1.23,5.71,5.71,0,0,0-.35,1.57c0,.55-.07,1-.07,1.5s0,.95.07,1.51a5.72,5.72,0,0,0,.35,1.56,3.2,3.2,0,0,0,.8,1.24,2.09,2.09,0,0,0,1.47.49,2.06,2.06,0,0,0,1.46-.49,3.11,3.11,0,0,0,.81-1.24,5.71,5.71,0,0,0,.34-1.56c0-.56.08-1.06.08-1.51s0-1-.08-1.5a5.7,5.7,0,0,0-.34-1.57,3.08,3.08,0,0,0-.81-1.23A2.07,2.07,0,0,0,149.51,236.31Z"/><path d="M159.56,241c0-.28,0-.55,0-.83s0-.55-.05-.83h1.13v1.13h0a2.56,2.56,0,0,1,1.07-1,3.05,3.05,0,0,1,1.35-.33,3.83,3.83,0,0,1,.65.06,2.25,2.25,0,0,1,.66.23,2.18,2.18,0,0,1,.6.47,2.44,2.44,0,0,1,.47.79,2.56,2.56,0,0,1,1-1.14,2.85,2.85,0,0,1,1.45-.41,2.73,2.73,0,0,1,2.13.76,3.14,3.14,0,0,1,.68,2.16v4.76h-1.05v-4.37a3.26,3.26,0,0,0-.4-1.75,1.67,1.67,0,0,0-1.49-.6,1.86,1.86,0,0,0-1,.23,1.81,1.81,0,0,0-.65.61,2.55,2.55,0,0,0-.36.88,4.74,4.74,0,0,0-.11,1v4h-1.06v-4.37a3.17,3.17,0,0,0-.4-1.75,1.66,1.66,0,0,0-1.49-.6l-.44.06a1.67,1.67,0,0,0-.71.35,2.48,2.48,0,0,0-.66.87,3.48,3.48,0,0,0-.3,1.6v3.84h-1.05Z"/><path d="M173.19,241c0-.28,0-.55,0-.83s0-.55,0-.83h1.13v1.13h0a2.53,2.53,0,0,1,1.06-1,3.05,3.05,0,0,1,1.35-.33,3.83,3.83,0,0,1,.65.06,2.25,2.25,0,0,1,.66.23,2,2,0,0,1,.6.47,2.64,2.64,0,0,1,.48.79,2.48,2.48,0,0,1,1-1.14,2.87,2.87,0,0,1,1.45-.41,2.73,2.73,0,0,1,2.13.76,3.1,3.1,0,0,1,.69,2.16v4.76H183.3v-4.37a3.17,3.17,0,0,0-.4-1.75,1.66,1.66,0,0,0-1.49-.6,1.84,1.84,0,0,0-1.64.84,3,3,0,0,0-.36.88,4.74,4.74,0,0,0-.11,1v4h-1.06v-4.37a3.17,3.17,0,0,0-.4-1.75,1.64,1.64,0,0,0-1.48-.6l-.44.06a1.71,1.71,0,0,0-.72.35,2.61,2.61,0,0,0-.66.87,3.48,3.48,0,0,0-.3,1.6v3.84h-1.05Z"/></g><line class="cls-1" x1="62.32" y1="92.69" x2="62.45" y2="217.26"/><line class="cls-1" x1="63.66" y1="92.69" x2="60.9" y2="92.69"/><line class="cls-1" x1="63.79" y1="217.26" x2="61.03" y2="217.27"/><g class="cls-2"><path d="M54.63,178.64v1.15l-9.89-.06,1.78,2.05-.87.71L43.3,179.6v-1Z"/><path d="M48.21,172.2l0,0a1.89,1.89,0,0,1-.28-.73,3.6,3.6,0,0,1,.17-2.21,3.45,3.45,0,0,1,.74-1.09,3.23,3.23,0,0,1,1.11-.72,3.54,3.54,0,0,1,1.41-.26,3.82,3.82,0,0,1,1.42.28,3.29,3.29,0,0,1,1.1.78,3.46,3.46,0,0,1,.71,1.17,4.13,4.13,0,0,1,.25,1.47,3.92,3.92,0,0,1-.27,1.47,3.49,3.49,0,0,1-.72,1.17,3.18,3.18,0,0,1-1.11.76,3.47,3.47,0,0,1-1.43.26,4.33,4.33,0,0,1-1.64-.29,9.53,9.53,0,0,1-1.39-.7l-5-3.08v-1.37Zm3.14,1.17a2.64,2.64,0,0,0,1-.18,2.29,2.29,0,0,0,.78-.51,2.38,2.38,0,0,0,.51-.8,3.09,3.09,0,0,0,0-2,2.13,2.13,0,0,0-.5-.8,2.21,2.21,0,0,0-.77-.53,2.86,2.86,0,0,0-1-.19,2.64,2.64,0,0,0-1,.18,2.18,2.18,0,0,0-.77.52,2.34,2.34,0,0,0-.51.79,2.66,2.66,0,0,0-.19,1,2.8,2.8,0,0,0,.18,1,2.54,2.54,0,0,0,.49.81,2.28,2.28,0,0,0,.77.52A2.64,2.64,0,0,0,51.35,173.37Z"/><path d="M43.21,161.9a3.15,3.15,0,0,1,.57-2,3.69,3.69,0,0,1,1.43-1.16,6.16,6.16,0,0,1,1.9-.55,13.72,13.72,0,0,1,2-.14,15.5,15.5,0,0,1,2,.16,6.31,6.31,0,0,1,1.89.57A3.71,3.71,0,0,1,54.37,160a3.73,3.73,0,0,1,0,3.93,3.77,3.77,0,0,1-1.43,1.16,6.16,6.16,0,0,1-1.9.55,14,14,0,0,1-4,0,6.46,6.46,0,0,1-1.9-.57,3.85,3.85,0,0,1-1.41-1.18A3.17,3.17,0,0,1,43.21,161.9Zm1,0a2.06,2.06,0,0,0,.49,1.46,3.21,3.21,0,0,0,1.23.82,6.11,6.11,0,0,0,1.56.35c.56.05,1.06.08,1.51.08s1,0,1.5-.06a6.09,6.09,0,0,0,1.57-.34,3.09,3.09,0,0,0,1.24-.8,2.05,2.05,0,0,0,.5-1.46,2.09,2.09,0,0,0-.48-1.47,3.08,3.08,0,0,0-1.23-.81,5.71,5.71,0,0,0-1.57-.35c-.55-.05-1-.08-1.5-.08a13.66,13.66,0,0,0-1.51.06,5.85,5.85,0,0,0-1.57.33,3.08,3.08,0,0,0-1.23.81A2.1,2.1,0,0,0,44.26,161.91Z"/><path d="M49,151.88l-.83,0-.84.06v-1.14h1.14v0a2.39,2.39,0,0,1-1-1.07,3.05,3.05,0,0,1-.33-1.35,3.9,3.9,0,0,1,.07-.65,2.28,2.28,0,0,1,.24-.66,2.34,2.34,0,0,1,.47-.6,2.85,2.85,0,0,1,.79-.47,2.38,2.38,0,0,1-1.13-1,3.07,3.07,0,0,1,.36-3.57,3.14,3.14,0,0,1,2.17-.68l4.76,0v1.05l-4.37,0a3.2,3.2,0,0,0-1.74.39,1.65,1.65,0,0,0-.62,1.49,1.91,1.91,0,0,0,.23,1,1.81,1.81,0,0,0,.61.65,2.63,2.63,0,0,0,.87.37,4.74,4.74,0,0,0,1,.11l4,0v1.06l-4.37,0a3.08,3.08,0,0,0-1.74.39,1.65,1.65,0,0,0-.62,1.48,3.37,3.37,0,0,0,.06.44,1.71,1.71,0,0,0,.35.72,2.68,2.68,0,0,0,.86.67,3.64,3.64,0,0,0,1.6.3l3.84,0v1.06Z"/><path d="M49,138.25l-.84,0-.83,0v-1.13h1.13v0a2.47,2.47,0,0,1-1-1.07,3,3,0,0,1-.26-2,2.25,2.25,0,0,1,.23-.66,2.64,2.64,0,0,1,.48-.6,2.58,2.58,0,0,1,.79-.47,2.38,2.38,0,0,1-1.13-1,2.66,2.66,0,0,1-.41-1.45,2.69,2.69,0,0,1,.77-2.12,3.12,3.12,0,0,1,2.17-.68l4.75,0v1l-4.37,0a3.27,3.27,0,0,0-1.75.39,1.65,1.65,0,0,0-.61,1.48,1.79,1.79,0,0,0,.84,1.65,2.45,2.45,0,0,0,.86.36,4.31,4.31,0,0,0,1,.12l4,0v1.06l-4.37,0a3.09,3.09,0,0,0-1.75.39,1.65,1.65,0,0,0-.61,1.48,3.61,3.61,0,0,0,.06.44,1.62,1.62,0,0,0,.35.71,2.45,2.45,0,0,0,.86.67,3.46,3.46,0,0,0,1.6.31l3.84,0v1.06Z"/></g><path class="cls-3" d="M132,98.45c-14,1.42-26.36,5-38,12.87-16.52,11.16-23.19,24.6-23.19,46.46S77.34,191.92,94,204.23c16.08,11.88,34.12,13.66,56,13.66s39.69-2.07,56-13.66,23.19-24.59,23.19-46.45-7.81-34.52-23.19-46.46c-11.22-8.7-23.74-11.93-37.9-13.07Z"/><polygon class="cls-3" points="168.86 98.25 162.91 92.69 137.1 92.69 131.14 98.25 168.86 98.25"/></svg>