<svg id="Glo_Ball_Basic_1" xmlns="http://www.w3.org/2000/svg" viewBox="0 0 300 263"><defs><style>.cls-1,.cls-3{fill:none;stroke-width:0.5px;}.cls-1{stroke:#000;}.cls-2{isolation:isolate;}.cls-3{stroke:#1d1d1b;stroke-miterlimit:3.86;}</style></defs><title>glo-ball-basic-1-table-morrison-flos-F3021000-spech-tech-02-300x263</title><line class="cls-1" x1="127.94" y1="227.2" x2="170.92" y2="227.2"/><line class="cls-1" x1="127.94" y1="225.89" x2="127.94" y2="228.52"/><line class="cls-1" x1="170.92" y1="225.89" x2="170.92" y2="228.52"/><g class="cls-2"><path d="M122.28,240.51a3.56,3.56,0,0,1,.7,1.16,3.76,3.76,0,0,1,.26,1.44,4,4,0,0,1-.3,1.57,3.77,3.77,0,0,1-.86,1.25,3.89,3.89,0,0,1-1.3.82,4.51,4.51,0,0,1-1.67.3,4.76,4.76,0,0,1-1.46-.22,4.06,4.06,0,0,1-1.15-.61l-1.11,1.09-.54-.5,1.1-1.09a3.5,3.5,0,0,1-.71-1.17,4.24,4.24,0,0,1,.05-3,3.77,3.77,0,0,1,.86-1.25,4,4,0,0,1,1.3-.83,5,5,0,0,1,3.1-.08,4.27,4.27,0,0,1,1.2.62l1.09-1.09.54.5Zm-1.3.25a2.85,2.85,0,0,0-1.87-.62,3,3,0,0,0-1.22.23,2.74,2.74,0,0,0-.92.63,2.86,2.86,0,0,0-.58.95,3.19,3.19,0,0,0-.21,1.16,2.9,2.9,0,0,0,.57,1.83Zm-3.73,4.72a2.88,2.88,0,0,0,.83.45,3.05,3.05,0,0,0,1,.16,3.16,3.16,0,0,0,1.22-.23,2.71,2.71,0,0,0,1.51-1.58,3.2,3.2,0,0,0,.21-1.17,3,3,0,0,0-.57-1.82Z"/><path d="M129.82,246.86h-1.2V237l-2.11,1.79-.74-.86,3-2.37h1.06Z"/><path d="M139.06,246.86h-1.2V237l-2.11,1.79-.75-.86,3-2.37h1.07Z"/><path d="M147.13,235.34a3.37,3.37,0,0,1,2,.56,3.89,3.89,0,0,1,1.22,1.42,6.48,6.48,0,0,1,.58,1.9,13.08,13.08,0,0,1,0,3.95,6.48,6.48,0,0,1-.58,1.9,3.89,3.89,0,0,1-1.22,1.42,4,4,0,0,1-4.08,0,3.89,3.89,0,0,1-1.22-1.42,6.48,6.48,0,0,1-.58-1.9,13.08,13.08,0,0,1,0-3.95,6.48,6.48,0,0,1,.58-1.9,3.89,3.89,0,0,1,1.22-1.42A3.37,3.37,0,0,1,147.13,235.34Zm0,1a2.21,2.21,0,0,0-1.52.5,3.14,3.14,0,0,0-.84,1.23,5.71,5.71,0,0,0-.36,1.57c0,.55-.07,1.06-.07,1.5s0,.95.07,1.51a5.8,5.8,0,0,0,.36,1.57,3.14,3.14,0,0,0,.84,1.23,2.6,2.6,0,0,0,3,0,3.14,3.14,0,0,0,.84-1.23,5.8,5.8,0,0,0,.36-1.57c.05-.56.07-1.06.07-1.51s0-.95-.07-1.5a5.71,5.71,0,0,0-.36-1.57,3.14,3.14,0,0,0-.84-1.23A2.21,2.21,0,0,0,147.13,236.39Z"/><path d="M157.56,241c0-.27,0-.55,0-.83l-.06-.83h1.18v1.14h0a2.62,2.62,0,0,1,1.11-1,3.29,3.29,0,0,1,1.4-.33,4.06,4.06,0,0,1,.67.06,2.44,2.44,0,0,1,.69.23,2.29,2.29,0,0,1,.63.48,2.67,2.67,0,0,1,.49.78,2.51,2.51,0,0,1,1-1.14,3,3,0,0,1,1.5-.41,2.87,2.87,0,0,1,2.21.76,3,3,0,0,1,.72,2.17v4.75h-1.1v-4.37a3.11,3.11,0,0,0-.41-1.74,1.75,1.75,0,0,0-1.55-.61,2,2,0,0,0-1,.23,1.82,1.82,0,0,0-.67.62,2.64,2.64,0,0,0-.38.87,4.74,4.74,0,0,0-.11,1v4h-1.1v-4.37a3.11,3.11,0,0,0-.41-1.74,1.75,1.75,0,0,0-1.55-.61l-.46.06a1.74,1.74,0,0,0-.73.35,2.51,2.51,0,0,0-.69.87,3.34,3.34,0,0,0-.31,1.6v3.84h-1.1Z"/><path d="M171.72,241c0-.27,0-.55,0-.83s0-.55-.06-.83h1.18v1.14h0a2.54,2.54,0,0,1,1.1-1,3.29,3.29,0,0,1,1.4-.33,4.18,4.18,0,0,1,.68.06,2.67,2.67,0,0,1,.69.23,2.12,2.12,0,0,1,.62.48,2.48,2.48,0,0,1,.49.78,2.51,2.51,0,0,1,1-1.14,3.09,3.09,0,0,1,1.51-.41,2.9,2.9,0,0,1,2.21.76,3.07,3.07,0,0,1,.71,2.17v4.75h-1.1v-4.37a3,3,0,0,0-.41-1.74,1.74,1.74,0,0,0-1.55-.61,2,2,0,0,0-1,.23,1.9,1.9,0,0,0-.67.62,2.44,2.44,0,0,0-.37.87,4.17,4.17,0,0,0-.12,1v4H177v-4.37a3,3,0,0,0-.41-1.74,1.74,1.74,0,0,0-1.55-.61l-.45.06a1.72,1.72,0,0,0-.74.35,2.51,2.51,0,0,0-.69.87,3.34,3.34,0,0,0-.31,1.6v3.84h-1.09Z"/></g><line class="cls-1" x1="58.25" y1="64.1" x2="241.75" y2="64.1"/><line class="cls-1" x1="58.25" y1="62.4" x2="58.25" y2="65.8"/><line class="cls-1" x1="241.75" y1="62.4" x2="241.75" y2="65.8"/><g class="cls-2"><path d="M120,48.9a3.67,3.67,0,0,1,.7,1.16,3.78,3.78,0,0,1,.26,1.45,3.93,3.93,0,0,1-.31,1.57,3.81,3.81,0,0,1-.85,1.24,4,4,0,0,1-1.31.83,4.68,4.68,0,0,1-1.67.29,4.46,4.46,0,0,1-1.45-.22,3.82,3.82,0,0,1-1.15-.61l-1.12,1.09-.53-.5,1.1-1.08a3.86,3.86,0,0,1-.72-1.18,4.17,4.17,0,0,1-.24-1.43,4,4,0,0,1,.3-1.57,3.79,3.79,0,0,1,2.16-2.07,4.78,4.78,0,0,1,3.1-.08,4.24,4.24,0,0,1,1.2.61l1.09-1.08.53.49Zm-1.3.26a2.81,2.81,0,0,0-1.88-.63,3.16,3.16,0,0,0-1.22.23,2.85,2.85,0,0,0-.91.63,3,3,0,0,0-.58,1,3.2,3.2,0,0,0-.21,1.17,2.89,2.89,0,0,0,.57,1.82ZM115,53.87a2.57,2.57,0,0,0,.83.45,3.13,3.13,0,0,0,1,.16,3,3,0,0,0,1.23-.23,2.69,2.69,0,0,0,.92-.63,2.88,2.88,0,0,0,.59-.95,3.19,3.19,0,0,0,.21-1.16,3,3,0,0,0-.57-1.83Z"/><path d="M129.81,48.79h.61a4.07,4.07,0,0,0,1-.12,2.34,2.34,0,0,0,.82-.35,2,2,0,0,0,.56-.65,2.06,2.06,0,0,0,.21-1,1.81,1.81,0,0,0-.58-1.42,2.36,2.36,0,0,0-1.6-.5,2.52,2.52,0,0,0-1.31.32,2.44,2.44,0,0,0-.93.93l-1.05-.52a3.5,3.5,0,0,1,1.35-1.35,4,4,0,0,1,1.91-.44,4.32,4.32,0,0,1,1.31.19,3.28,3.28,0,0,1,1.08.57,2.71,2.71,0,0,1,1,2.18,2.33,2.33,0,0,1-.16.88A2.73,2.73,0,0,1,133,48.89a3,3,0,0,1-.76.38l.05,0a2.48,2.48,0,0,1,.91.36,2.63,2.63,0,0,1,.72.65,3.2,3.2,0,0,1,.33,3.26,2.83,2.83,0,0,1-.82,1,3.68,3.68,0,0,1-1.19.64,4.94,4.94,0,0,1-1.45.21,4.58,4.58,0,0,1-2.26-.54,3.32,3.32,0,0,1-1.44-1.74l1.26-.37A2.45,2.45,0,0,0,129.2,54a3,3,0,0,0,1.65.39,3,3,0,0,0,1-.16,2.49,2.49,0,0,0,.79-.46,2.2,2.2,0,0,0,.53-.71,2.37,2.37,0,0,0-.06-2,2.08,2.08,0,0,0-.66-.72,2.94,2.94,0,0,0-1-.39,5.13,5.13,0,0,0-1.12-.12h-.51Z"/><path d="M139,48.79h.62a4.07,4.07,0,0,0,1-.12,2.42,2.42,0,0,0,.82-.35,1.93,1.93,0,0,0,.55-.65,2.06,2.06,0,0,0,.21-1,1.8,1.8,0,0,0-.57-1.42,2.38,2.38,0,0,0-1.6-.5A2.47,2.47,0,0,0,137.81,46l-1-.52a3.43,3.43,0,0,1,1.35-1.35,4,4,0,0,1,1.9-.44,4.28,4.28,0,0,1,1.31.19,3.28,3.28,0,0,1,1.08.57,2.76,2.76,0,0,1,1,2.18,2.55,2.55,0,0,1-.16.88,3,3,0,0,1-.43.76,3.2,3.2,0,0,1-.64.58,3.06,3.06,0,0,1-.77.38l0,0a2.46,2.46,0,0,1,.92.36,2.74,2.74,0,0,1,.71.65,2.87,2.87,0,0,1,.47.86,3.33,3.33,0,0,1-.14,2.4,2.91,2.91,0,0,1-.81,1,3.63,3.63,0,0,1-1.2.64,4.82,4.82,0,0,1-1.44.21,4.53,4.53,0,0,1-2.26-.54,3.33,3.33,0,0,1-1.45-1.74l1.27-.37a2.4,2.4,0,0,0,.89,1.21,3,3,0,0,0,1.65.39,3,3,0,0,0,.95-.16,2.44,2.44,0,0,0,.78-.46,2.1,2.1,0,0,0,.54-.71,2.28,2.28,0,0,0,.19-.91,2.21,2.21,0,0,0-.25-1.08,2.1,2.1,0,0,0-.67-.72,2.8,2.8,0,0,0-.95-.39,5.19,5.19,0,0,0-1.12-.12H139Z"/><path d="M149.51,43.73a3.44,3.44,0,0,1,2,.56,3.86,3.86,0,0,1,1.21,1.42,5.93,5.93,0,0,1,.58,1.9,13.08,13.08,0,0,1,0,4,5.93,5.93,0,0,1-.58,1.9,3.79,3.79,0,0,1-1.21,1.42,4,4,0,0,1-4.09,0,3.79,3.79,0,0,1-1.21-1.42,6.19,6.19,0,0,1-.58-1.9,13.08,13.08,0,0,1,0-4,6.19,6.19,0,0,1,.58-1.9,3.86,3.86,0,0,1,1.21-1.42A3.48,3.48,0,0,1,149.51,43.73Zm0,1.06a2.19,2.19,0,0,0-1.52.49,3.14,3.14,0,0,0-.84,1.23,5.89,5.89,0,0,0-.36,1.57c0,.56-.07,1.06-.07,1.51s0,.95.07,1.5a5.71,5.71,0,0,0,.36,1.57,3.14,3.14,0,0,0,.84,1.23,2.56,2.56,0,0,0,3,0,3.14,3.14,0,0,0,.84-1.23,6.09,6.09,0,0,0,.35-1.57c.05-.55.08-1.05.08-1.5s0-1-.08-1.51a6.29,6.29,0,0,0-.35-1.57,3.14,3.14,0,0,0-.84-1.23A2.21,2.21,0,0,0,149.51,44.79Z"/><path d="M159.94,49.43c0-.28,0-.56,0-.84l-.06-.83H161V48.9h0a2.46,2.46,0,0,1,1.1-1,3.18,3.18,0,0,1,1.41-.34,4.06,4.06,0,0,1,.67.06,2.46,2.46,0,0,1,.69.24,2.26,2.26,0,0,1,.62.47,2.31,2.31,0,0,1,.49.78A2.46,2.46,0,0,1,167.11,48a2.94,2.94,0,0,1,1.5-.42,2.89,2.89,0,0,1,2.21.76,3,3,0,0,1,.72,2.17v4.75h-1.1V50.88a3,3,0,0,0-.42-1.74,1.72,1.72,0,0,0-1.54-.61,2.12,2.12,0,0,0-1,.23,1.9,1.9,0,0,0-.67.62,2.53,2.53,0,0,0-.38.87,4.31,4.31,0,0,0-.11,1v4h-1.1V50.88a3,3,0,0,0-.42-1.74,1.72,1.72,0,0,0-1.54-.61l-.46.06A1.8,1.8,0,0,0,162,49a2.71,2.71,0,0,0-.69.86,3.53,3.53,0,0,0-.3,1.6v3.84h-1.1Z"/><path d="M174.09,49.43c0-.28,0-.56,0-.84l-.06-.83h1.18V48.9h0a2.54,2.54,0,0,1,1.11-1,3.17,3.17,0,0,1,1.4-.34,4,4,0,0,1,.67.06,2.49,2.49,0,0,1,1.32.71,2.67,2.67,0,0,1,.49.78,2.44,2.44,0,0,1,1-1.13,2.94,2.94,0,0,1,1.5-.42,2.87,2.87,0,0,1,2.21.76,3,3,0,0,1,.72,2.17v4.75h-1.1V50.88a3.13,3.13,0,0,0-.41-1.74,1.75,1.75,0,0,0-1.55-.61,2.15,2.15,0,0,0-1,.23,1.9,1.9,0,0,0-.67.62,2.74,2.74,0,0,0-.38.87,4.9,4.9,0,0,0-.11,1v4h-1.1V50.88a3.13,3.13,0,0,0-.41-1.74,1.75,1.75,0,0,0-1.55-.61l-.46.06a1.77,1.77,0,0,0-.73.36,2.46,2.46,0,0,0-.69.86,3.4,3.4,0,0,0-.31,1.6v3.84h-1.1Z"/></g><line class="cls-1" x1="50.44" y1="217.75" x2="50.44" y2="74.03"/><line class="cls-1" x1="48.74" y1="217.75" x2="52.14" y2="217.75"/><line class="cls-1" x1="48.74" y1="74.03" x2="52.14" y2="74.03"/><g class="cls-2"><path d="M42,167.12v7.2H40.71l-4.59-4.51-.54-.51a6.62,6.62,0,0,0-.61-.47,3.2,3.2,0,0,0-.67-.33,2.06,2.06,0,0,0-.74-.13,1.84,1.84,0,0,0-.83.17,1.74,1.74,0,0,0-.63.47,2.18,2.18,0,0,0-.39.7,2.65,2.65,0,0,0-.13.85,2.28,2.28,0,0,0,.48,1.47,2.17,2.17,0,0,0,1.29.79L33.22,174a3.14,3.14,0,0,1-2-1.16,3.49,3.49,0,0,1-.72-2.23,4.59,4.59,0,0,1,.18-1.3,3.31,3.31,0,0,1,.56-1.09,2.5,2.5,0,0,1,.92-.75,2.72,2.72,0,0,1,1.28-.28,3.29,3.29,0,0,1,1.2.2,4.33,4.33,0,0,1,1,.52,6.2,6.2,0,0,1,.91.73c.29.27.57.55.85.83L41,173.07v-5.95Z"/><path d="M31.77,158.61,42,163.17v1.29l-10.27-4.65v5.52H30.71v-6.72Z"/><path d="M30.52,152.85a3.24,3.24,0,0,1,.56-2,3.86,3.86,0,0,1,1.42-1.17,6.77,6.77,0,0,1,1.9-.56,14,14,0,0,1,4,0,6.77,6.77,0,0,1,1.9.56,3.86,3.86,0,0,1,1.42,1.17,3.75,3.75,0,0,1,0,3.94A3.74,3.74,0,0,1,40.25,156a6.17,6.17,0,0,1-1.9.56,13.08,13.08,0,0,1-4,0,6.17,6.17,0,0,1-1.9-.56,3.74,3.74,0,0,1-1.42-1.16A3.24,3.24,0,0,1,30.52,152.85Zm1.06,0a2,2,0,0,0,.49,1.46,3.08,3.08,0,0,0,1.23.81,5.78,5.78,0,0,0,1.57.34c.56,0,1.06.08,1.51.08s.95,0,1.5-.08a5.78,5.78,0,0,0,1.57-.34,3.08,3.08,0,0,0,1.23-.81,2.05,2.05,0,0,0,.5-1.46,2.09,2.09,0,0,0-.5-1.47,3.17,3.17,0,0,0-1.23-.8,6.19,6.19,0,0,0-1.57-.35c-.55,0-1.06-.07-1.5-.07s-1,0-1.51.07a6.19,6.19,0,0,0-1.57.35,3.17,3.17,0,0,0-1.23.8A2.09,2.09,0,0,0,31.58,152.85Z"/><path d="M36.22,142.8q-.42,0-.84,0l-.83,0v-1.13h1.14v0a2.41,2.41,0,0,1-1-1.06,2.94,2.94,0,0,1-.34-1.35,3.74,3.74,0,0,1,.06-.65,2.28,2.28,0,0,1,.24-.66,2.22,2.22,0,0,1,.47-.61,2.65,2.65,0,0,1,.78-.47,2.41,2.41,0,0,1-1.13-1,2.79,2.79,0,0,1-.42-1.45,2.73,2.73,0,0,1,.76-2.13,3.12,3.12,0,0,1,2.17-.69H42v1.06H37.67a3.13,3.13,0,0,0-1.74.4,1.64,1.64,0,0,0-.61,1.49,2,2,0,0,0,.23,1,1.93,1.93,0,0,0,.62.65,2.84,2.84,0,0,0,.87.36,4.83,4.83,0,0,0,1,.11h4v1.06H37.67a3.23,3.23,0,0,0-1.74.39,1.65,1.65,0,0,0-.61,1.49,3.37,3.37,0,0,0,.06.44,1.74,1.74,0,0,0,.36.72,2.67,2.67,0,0,0,.86.66,3.51,3.51,0,0,0,1.6.3H42v1.05Z"/><path d="M36.22,129.17l-.84,0-.83.06v-1.14h1.14v0a2.41,2.41,0,0,1-1-1.06,3,3,0,0,1-.34-1.35,3.74,3.74,0,0,1,.06-.65,2.45,2.45,0,0,1,.24-.67,2.34,2.34,0,0,1,.47-.6,2.65,2.65,0,0,1,.78-.47,2.41,2.41,0,0,1-1.13-1,2.79,2.79,0,0,1-.42-1.45,2.73,2.73,0,0,1,.76-2.13,3.12,3.12,0,0,1,2.17-.69H42v1.06H37.67a3.13,3.13,0,0,0-1.74.4,1.63,1.63,0,0,0-.61,1.49,1.82,1.82,0,0,0,.85,1.64A2.84,2.84,0,0,0,37,123a4.83,4.83,0,0,0,1,.11h4v1H37.67a3.22,3.22,0,0,0-1.74.4,1.65,1.65,0,0,0-.61,1.49,3.37,3.37,0,0,0,.06.44,1.65,1.65,0,0,0,.36.71,2.55,2.55,0,0,0,.86.67,3.66,3.66,0,0,0,1.6.29H42v1.06Z"/></g><path class="cls-3" d="M170.82,212.45c16.27-1.64,30.55-5.8,44.06-14.92C234,184.6,241.75,169,241.75,143.69s-7.54-39.56-26.87-53.83C196.24,76.1,175.33,74,150,74s-46,2.4-64.88,15.83-26.87,28.49-26.87,53.83,9,40,26.87,53.84c13,10.09,27.51,13.84,43.92,15.16Z"/><polygon class="cls-3" points="128.14 210.8 135.05 217.24 164.95 217.24 171.86 210.8 128.14 210.8"/></svg>