<svg id="Glo_Ball_Basic_Zero" xmlns="http://www.w3.org/2000/svg" viewBox="0 0 300 263"><defs><style>.cls-1,.cls-3{fill:none;stroke-width:0.5px;}.cls-1{stroke:#000;}.cls-2{isolation:isolate;}.cls-3{stroke:#1d1d1b;stroke-miterlimit:3.86;}</style></defs><title>glo-ball-basic-0-table-morrison-flos-F3330009-spech-tech-02-300x263</title><line class="cls-1" x1="122.25" y1="227.2" x2="177.12" y2="227.2"/><line class="cls-1" x1="122.25" y1="225.52" x2="122.25" y2="228.88"/><line class="cls-1" x1="177.12" y1="225.52" x2="177.12" y2="228.88"/><g class="cls-2"><path d="M124.84,240.51a3.56,3.56,0,0,1,.7,1.16,3.76,3.76,0,0,1,.26,1.44,4,4,0,0,1-.3,1.57,3.77,3.77,0,0,1-.86,1.25,3.89,3.89,0,0,1-1.3.82,4.51,4.51,0,0,1-1.67.3,4.76,4.76,0,0,1-1.46-.22,4.06,4.06,0,0,1-1.15-.61L118,247.31l-.54-.5,1.1-1.09a3.5,3.5,0,0,1-.71-1.17,4.24,4.24,0,0,1,0-3,3.77,3.77,0,0,1,.86-1.25,4,4,0,0,1,1.3-.83,5,5,0,0,1,3.1-.08,4.27,4.27,0,0,1,1.2.62l1.09-1.09.54.5Zm-1.3.25a2.85,2.85,0,0,0-1.87-.62,3,3,0,0,0-1.22.23,2.74,2.74,0,0,0-.92.63,2.86,2.86,0,0,0-.58.95,3.19,3.19,0,0,0-.21,1.16,2.9,2.9,0,0,0,.57,1.83Zm-3.73,4.72a2.88,2.88,0,0,0,.83.45,3.05,3.05,0,0,0,1,.16,3.16,3.16,0,0,0,1.22-.23,2.71,2.71,0,0,0,1.51-1.58,3.2,3.2,0,0,0,.21-1.17,3,3,0,0,0-.57-1.82Z"/><path d="M139.09,236.58l-4.73,10.28H133l4.84-10.28h-5.74v-1.05h7Z"/><path d="M148.18,236.58h-4.8l-.09,3.41a4.36,4.36,0,0,1,.79-.2,4.22,4.22,0,0,1,.79-.07,4,4,0,0,1,1.51.27,3.36,3.36,0,0,1,1.94,1.92,3.77,3.77,0,0,1,.27,1.44,3.65,3.65,0,0,1-.3,1.5,3.34,3.34,0,0,1-.83,1.17,3.85,3.85,0,0,1-1.25.76,4.42,4.42,0,0,1-1.57.27,4,4,0,0,1-2-.51,3.33,3.33,0,0,1-1.38-1.51l1.2-.49a2.64,2.64,0,0,0,.92,1.06,2.48,2.48,0,0,0,1.38.39,2.57,2.57,0,0,0,1-.2,2.79,2.79,0,0,0,.84-.53,2.51,2.51,0,0,0,.56-.8,2.38,2.38,0,0,0,.21-1,2.59,2.59,0,0,0-.22-1.09,2.47,2.47,0,0,0-.6-.86,2.61,2.61,0,0,0-.91-.55,3.32,3.32,0,0,0-1.16-.19,4.55,4.55,0,0,0-1.26.17,6,6,0,0,0-1.18.45l.11-5.87h6Z"/><path d="M155.5,241c0-.27,0-.55,0-.83l-.06-.83h1.18v1.14h0a2.62,2.62,0,0,1,1.11-1,3.29,3.29,0,0,1,1.4-.33,4.18,4.18,0,0,1,.68.06,2.48,2.48,0,0,1,.68.23,2.16,2.16,0,0,1,.63.48,2.67,2.67,0,0,1,.49.78,2.51,2.51,0,0,1,1-1.14,3.06,3.06,0,0,1,1.51-.41,2.9,2.9,0,0,1,2.21.76,3.07,3.07,0,0,1,.71,2.17v4.75H166v-4.37a3,3,0,0,0-.41-1.74,1.74,1.74,0,0,0-1.55-.61,2,2,0,0,0-1,.23,1.9,1.9,0,0,0-.67.62,2.44,2.44,0,0,0-.37.87,4.17,4.17,0,0,0-.12,1v4h-1.1v-4.37a3,3,0,0,0-.41-1.74,1.74,1.74,0,0,0-1.55-.61l-.45.06a1.72,1.72,0,0,0-.74.35,2.51,2.51,0,0,0-.69.87,3.34,3.34,0,0,0-.31,1.6v3.84h-1.1Z"/><path d="M169.66,241c0-.27,0-.55,0-.83s0-.55-.06-.83h1.18v1.14h0a2.54,2.54,0,0,1,1.1-1,3.3,3.3,0,0,1,1.41-.33,4.06,4.06,0,0,1,.67.06,2.44,2.44,0,0,1,.69.23,2.12,2.12,0,0,1,.62.48,2.48,2.48,0,0,1,.49.78,2.48,2.48,0,0,1,1.06-1.14,3,3,0,0,1,1.5-.41,2.89,2.89,0,0,1,2.21.76,3,3,0,0,1,.71,2.17v4.75h-1.09v-4.37a3,3,0,0,0-.42-1.74,1.73,1.73,0,0,0-1.54-.61,2,2,0,0,0-1,.23,1.93,1.93,0,0,0-.68.62,2.63,2.63,0,0,0-.37.87,4.17,4.17,0,0,0-.12,1v4h-1.09v-4.37a3,3,0,0,0-.42-1.74,1.73,1.73,0,0,0-1.54-.61l-.46.06a1.77,1.77,0,0,0-.74.35,2.76,2.76,0,0,0-.69.87,3.46,3.46,0,0,0-.31,1.6v3.84h-1.09Z"/></g><line class="cls-1" x1="71.73" y1="82.73" x2="221.52" y2="82.73"/><line class="cls-1" x1="71.73" y1="81.52" x2="71.73" y2="83.93"/><line class="cls-1" x1="221.52" y1="81.52" x2="221.52" y2="83.93"/><g class="cls-2"><path d="M117.16,67.68a3.65,3.65,0,0,1,.71,1.15,4.15,4.15,0,0,1-.05,3,3.79,3.79,0,0,1-2.16,2.07,4.51,4.51,0,0,1-1.67.3,4.69,4.69,0,0,1-1.45-.22,4.12,4.12,0,0,1-1.16-.61l-1.11,1.09-.53-.5,1.09-1.09a3.5,3.5,0,0,1-.71-1.17,4,4,0,0,1-.25-1.44,3.85,3.85,0,0,1,.31-1.56,3.75,3.75,0,0,1,.85-1.25,4,4,0,0,1,1.31-.83,4.61,4.61,0,0,1,1.65-.29,4.73,4.73,0,0,1,1.44.21,4,4,0,0,1,1.2.62l1.1-1.09.53.5Zm-1.29.25a2.88,2.88,0,0,0-1.88-.62,3,3,0,0,0-1.22.23,2.74,2.74,0,0,0-.92.63,2.86,2.86,0,0,0-.58,1,3.18,3.18,0,0,0-.2,1.16,2.89,2.89,0,0,0,.56,1.83Zm-3.74,4.72a2.88,2.88,0,0,0,.83.45,3.05,3.05,0,0,0,1,.16,3.16,3.16,0,0,0,1.22-.23,2.89,2.89,0,0,0,.92-.63,2.82,2.82,0,0,0,.59-1,3.2,3.2,0,0,0,.21-1.17,3,3,0,0,0-.57-1.82Z"/><path d="M129.32,74h-1.19V64.14L126,65.93l-.75-.86,3-2.37h1.06Z"/><path d="M138.82,69.16l0,0a2,2,0,0,1-.76.29,4.65,4.65,0,0,1-.87.1,3.7,3.7,0,0,1-1.42-.27,3.48,3.48,0,0,1-1.14-.73,3.26,3.26,0,0,1-.75-1.1,3.62,3.62,0,0,1-.28-1.41,3.43,3.43,0,0,1,.29-1.42,3.13,3.13,0,0,1,.79-1.11,3.72,3.72,0,0,1,1.22-.72,4.78,4.78,0,0,1,3,0,3.72,3.72,0,0,1,1.22.72,3.13,3.13,0,0,1,.79,1.11,3.43,3.43,0,0,1,.29,1.42,4.38,4.38,0,0,1-.29,1.65,9.76,9.76,0,0,1-.73,1.39L137,74h-1.41ZM140,66a2.46,2.46,0,0,0-.19-1,2.23,2.23,0,0,0-.54-.77,2.56,2.56,0,0,0-.83-.5,3.08,3.08,0,0,0-2.13,0,2.56,2.56,0,0,0-.83.5A2.23,2.23,0,0,0,135,65a2.46,2.46,0,0,0-.19,1,2.43,2.43,0,0,0,.19,1,2.37,2.37,0,0,0,.54.78,2.25,2.25,0,0,0,.83.5,3.24,3.24,0,0,0,2.13,0,2.25,2.25,0,0,0,.83-.5,2.37,2.37,0,0,0,.54-.78A2.43,2.43,0,0,0,140,66Z"/><path d="M146.63,62.51a3.37,3.37,0,0,1,2,.56,3.8,3.8,0,0,1,1.22,1.42,6.19,6.19,0,0,1,.58,1.9,13.08,13.08,0,0,1,0,4,6.19,6.19,0,0,1-.58,1.9,3.8,3.8,0,0,1-1.22,1.42,4,4,0,0,1-4.08,0,3.77,3.77,0,0,1-1.21-1.42,6.2,6.2,0,0,1-.59-1.9,13.08,13.08,0,0,1,0-4,6.2,6.2,0,0,1,.59-1.9,3.77,3.77,0,0,1,1.21-1.42A3.37,3.37,0,0,1,146.63,62.51Zm0,1.05a2.21,2.21,0,0,0-1.52.5,3.14,3.14,0,0,0-.84,1.23,5.71,5.71,0,0,0-.35,1.57c0,.55-.08,1.06-.08,1.5s0,1,.08,1.51a5.79,5.79,0,0,0,.35,1.57,3.14,3.14,0,0,0,.84,1.23,2.6,2.6,0,0,0,3,0,3.14,3.14,0,0,0,.84-1.23,5.8,5.8,0,0,0,.36-1.57c.05-.56.07-1.06.07-1.51s0-1-.07-1.5a5.71,5.71,0,0,0-.36-1.57,3.14,3.14,0,0,0-.84-1.23A2.21,2.21,0,0,0,146.63,63.56Z"/><path d="M157.06,68.2c0-.27,0-.55,0-.83l-.06-.83h1.18v1.14h0a2.62,2.62,0,0,1,1.11-1,3.29,3.29,0,0,1,1.4-.33,4.18,4.18,0,0,1,.68.06,2.48,2.48,0,0,1,.68.23,2.16,2.16,0,0,1,.63.48,2.67,2.67,0,0,1,.49.78,2.51,2.51,0,0,1,1-1.14,3,3,0,0,1,1.51-.41,2.9,2.9,0,0,1,2.21.76,3.07,3.07,0,0,1,.71,2.17V74h-1.1V69.66a3.11,3.11,0,0,0-.41-1.74,1.74,1.74,0,0,0-1.55-.61,2,2,0,0,0-1,.23,1.9,1.9,0,0,0-.67.62,2.44,2.44,0,0,0-.37.87,4.17,4.17,0,0,0-.12,1v4h-1.1V69.66a3.11,3.11,0,0,0-.41-1.74,1.74,1.74,0,0,0-1.55-.61l-.45.06a1.72,1.72,0,0,0-.74.35,2.51,2.51,0,0,0-.69.87,3.34,3.34,0,0,0-.31,1.6V74h-1.1Z"/><path d="M171.22,68.2c0-.27,0-.55,0-.83s0-.55-.06-.83h1.18v1.14h0a2.54,2.54,0,0,1,1.1-1,3.3,3.3,0,0,1,1.41-.33,4.06,4.06,0,0,1,.67.06,2.44,2.44,0,0,1,.69.23,2.12,2.12,0,0,1,.62.48,2.48,2.48,0,0,1,.49.78,2.48,2.48,0,0,1,1.06-1.14,3,3,0,0,1,1.5-.41,2.89,2.89,0,0,1,2.21.76,3.07,3.07,0,0,1,.71,2.17V74h-1.09V69.66a3,3,0,0,0-.42-1.74,1.73,1.73,0,0,0-1.54-.61,2,2,0,0,0-1,.23,1.85,1.85,0,0,0-.68.62,2.63,2.63,0,0,0-.37.87,4.17,4.17,0,0,0-.12,1v4h-1.09V69.66a3,3,0,0,0-.42-1.74,1.73,1.73,0,0,0-1.54-.61l-.46.06a1.77,1.77,0,0,0-.74.35,2.76,2.76,0,0,0-.69.87,3.46,3.46,0,0,0-.31,1.6V74h-1.09Z"/></g><line class="cls-1" x1="63.82" y1="204.77" x2="63.82" y2="82.4"/><line class="cls-1" x1="62.6" y1="204.77" x2="65.05" y2="204.77"/><line class="cls-1" x1="62.6" y1="82.4" x2="65.05" y2="82.4"/><g class="cls-2"><path d="M55.42,165v1.15H45.53l1.79,2-.86.72L44.09,166v-1Z"/><path d="M49,158.6l0,0a1.84,1.84,0,0,1-.29-.72,4.54,4.54,0,0,1-.1-.84,3.42,3.42,0,0,1,.27-1.37,3.31,3.31,0,0,1,.73-1.1,3.36,3.36,0,0,1,1.1-.73,3.8,3.8,0,0,1,1.41-.26,3.59,3.59,0,0,1,1.42.27,3.21,3.21,0,0,1,1.11.77,3.49,3.49,0,0,1,.72,1.17,4.45,4.45,0,0,1,0,2.94,3.49,3.49,0,0,1-.72,1.17,3.21,3.21,0,0,1-1.11.77,3.59,3.59,0,0,1-1.42.27,4.39,4.39,0,0,1-1.65-.28,9.53,9.53,0,0,1-1.39-.7l-5-3v-1.36Zm3.15,1.15a2.46,2.46,0,0,0,1-.19,2.18,2.18,0,0,0,.78-.52,2.41,2.41,0,0,0,.5-.8,2.8,2.8,0,0,0,.18-1,2.76,2.76,0,0,0-.18-1,2.41,2.41,0,0,0-.5-.8,2.35,2.35,0,0,0-.78-.53,2.81,2.81,0,0,0-2,0,2.21,2.21,0,0,0-.77.53,2.44,2.44,0,0,0-.51.8,2.76,2.76,0,0,0-.18,1,2.8,2.8,0,0,0,.18,1,2.44,2.44,0,0,0,.51.8,2.06,2.06,0,0,0,.77.52A2.46,2.46,0,0,0,52.11,159.75Z"/><path d="M43.9,148.32a3.21,3.21,0,0,1,.56-2,3.67,3.67,0,0,1,1.42-1.17,6.17,6.17,0,0,1,1.9-.56,13.08,13.08,0,0,1,3.95,0,6.17,6.17,0,0,1,1.9.56,3.67,3.67,0,0,1,1.42,1.17,3.73,3.73,0,0,1,0,3.93,3.86,3.86,0,0,1-1.42,1.17,6.45,6.45,0,0,1-1.9.56,14,14,0,0,1-3.95,0,6.45,6.45,0,0,1-1.9-.56,3.86,3.86,0,0,1-1.42-1.17A3.24,3.24,0,0,1,43.9,148.32Zm1.06,0a2.09,2.09,0,0,0,.49,1.47,3.3,3.3,0,0,0,1.23.81,6.18,6.18,0,0,0,1.57.34c.56.05,1.06.07,1.51.07s1,0,1.5-.07a6.18,6.18,0,0,0,1.57-.34,3.3,3.3,0,0,0,1.23-.81,2.4,2.4,0,0,0,0-2.93,3.08,3.08,0,0,0-1.23-.81,6.18,6.18,0,0,0-1.57-.34c-.55-.05-1.06-.08-1.5-.08s-.95,0-1.51.08a6.18,6.18,0,0,0-1.57.34,3.08,3.08,0,0,0-1.23.81A2.08,2.08,0,0,0,45,148.32Z"/><path d="M49.6,138.28c-.28,0-.56,0-.84,0l-.83.06v-1.14h1.14v0a2.44,2.44,0,0,1-1-1.07,2.94,2.94,0,0,1-.34-1.35,3.83,3.83,0,0,1,.06-.65,2.28,2.28,0,0,1,.24-.66,2.34,2.34,0,0,1,.47-.6,2.45,2.45,0,0,1,.78-.47,2.43,2.43,0,0,1-1.13-1,2.74,2.74,0,0,1-.42-1.45,2.69,2.69,0,0,1,.76-2.12,3.12,3.12,0,0,1,2.17-.69h4.75v1H51.05a3.2,3.2,0,0,0-1.74.4,1.65,1.65,0,0,0-.61,1.49,2,2,0,0,0,.23,1,1.84,1.84,0,0,0,.62.65,2.42,2.42,0,0,0,.87.36,4.25,4.25,0,0,0,1,.11h4v1.06H51.05a3.11,3.11,0,0,0-1.74.4,1.64,1.64,0,0,0-.61,1.49,3.61,3.61,0,0,0,.06.44,1.71,1.71,0,0,0,.36.71,2.42,2.42,0,0,0,.86.66,3.51,3.51,0,0,0,1.6.3h3.84v1.06Z"/><path d="M49.6,124.64q-.42,0-.84,0l-.83,0v-1.13h1.14v0a2.44,2.44,0,0,1-1-1.07,2.94,2.94,0,0,1-.34-1.35,3.83,3.83,0,0,1,.06-.65,2.28,2.28,0,0,1,.24-.66,2,2,0,0,1,.47-.6,2.28,2.28,0,0,1,.78-.47,2.48,2.48,0,0,1-1.13-1,2.76,2.76,0,0,1-.42-1.45,2.73,2.73,0,0,1,.76-2.13,3.17,3.17,0,0,1,2.17-.68h4.75v1H51.05a3.2,3.2,0,0,0-1.74.4,1.64,1.64,0,0,0-.61,1.49,2,2,0,0,0,.23,1,1.93,1.93,0,0,0,.62.65,2.42,2.42,0,0,0,.87.36,4.83,4.83,0,0,0,1,.11h4v1.06H51.05a3.11,3.11,0,0,0-1.74.4,1.63,1.63,0,0,0-.61,1.49,3.61,3.61,0,0,0,.06.44,1.71,1.71,0,0,0,.36.71,2.67,2.67,0,0,0,.86.66,3.51,3.51,0,0,0,1.6.3h3.84v1Z"/></g><rect class="cls-3" x="122.5" y="206.14" width="55" height="11.36"/><path class="cls-3" d="M167,209.41c13.27-1.4,24.93-4.93,36-12.7,15.62-11,21.93-24.26,21.93-45.83S218.73,117.2,203,105.05c-15.21-11.71-32.28-13.47-53-13.47s-37.55,2-53,13.47-21.93,24.26-21.93,45.83S82.5,184.94,97,196.71c10.62,8.59,22.46,11.78,35.85,12.91Z"/><line class="cls-3" x1="122.5" y1="212.89" x2="177.37" y2="212.89"/></svg>