<?xml version="1.0" encoding="utf-8"?>
<!-- Generator: Adobe Illustrator 22.1.0, SVG Export Plug-In . SVG Version: 6.00 Build 0)  -->
<svg version="1.1" id="glo-ball_S2" xmlns="http://www.w3.org/2000/svg" xmlns:xlink="http://www.w3.org/1999/xlink" x="0px"
	 y="0px" viewBox="0 0 300 263" style="enable-background:new 0 0 300 263;" xml:space="preserve">
<style type="text/css">
	.st0{fill:none;stroke:#000000;stroke-width:0.5;}
	.st1{fill:none;}
	.st2{fill:none;stroke:#1D1D1B;stroke-width:0.5;stroke-miterlimit:3.86;}
	.st3{fill:none;stroke:#1D1D1B;stroke-width:0.5;}
</style>
<title>glo-ball-suspension-2-morrison-flos-F3011061-spech-tech-02-300x263</title>
<g>
	<path d="M81.3,210.4v-0.6c0-0.3,0-0.7-0.1-1s-0.2-0.6-0.4-0.8c-0.2-0.2-0.4-0.4-0.7-0.5c-0.3-0.1-0.7-0.2-1-0.2
		c-0.5,0-1,0.2-1.4,0.6c-0.4,0.4-0.5,1-0.5,1.6c0,0.9,0.5,1.7,1.2,2.2l-0.5,1c-0.6-0.3-1-0.8-1.4-1.3c-0.3-0.6-0.5-1.2-0.4-1.8
		c0-0.4,0.1-0.9,0.2-1.3c0.1-0.4,0.3-0.7,0.6-1c0.3-0.3,0.6-0.5,0.9-0.7c0.4-0.2,0.8-0.3,1.3-0.3c0.3,0,0.6,0,0.9,0.1
		s0.5,0.2,0.8,0.4c0.2,0.2,0.4,0.4,0.6,0.6c0.2,0.2,0.3,0.5,0.4,0.7V208c0.1-0.3,0.2-0.6,0.4-0.9c0.2-0.3,0.4-0.5,0.7-0.7
		c0.3-0.2,0.6-0.3,0.9-0.4c0.8-0.3,1.6-0.2,2.4,0.1c0.4,0.2,0.7,0.5,1,0.8s0.5,0.7,0.6,1.1c0.1,0.4,0.2,0.9,0.2,1.4
		c0,0.8-0.2,1.5-0.6,2.2s-1,1.1-1.7,1.4l-0.4-1.2c0.5-0.1,0.9-0.4,1.2-0.9c0.3-0.5,0.4-1,0.4-1.6c0-0.3-0.1-0.6-0.2-0.9
		c-0.1-0.3-0.3-0.5-0.5-0.8c-0.2-0.2-0.4-0.4-0.7-0.5c-0.3-0.1-0.6-0.2-0.9-0.2c-0.4,0-0.7,0.1-1.1,0.2c-0.3,0.2-0.5,0.4-0.7,0.6
		c-0.2,0.3-0.3,0.6-0.4,0.9c-0.1,0.4-0.1,0.7-0.1,1.1v0.5L81.3,210.4z"/>
	<path d="M81.3,201.7L81.3,201.7c-0.1-0.2-0.2-0.5-0.3-0.7c-0.1-0.3-0.1-0.6-0.1-0.8c0-0.5,0.1-0.9,0.3-1.4c0.2-0.4,0.4-0.8,0.7-1.1
		c0.3-0.3,0.7-0.6,1.1-0.7c0.4-0.2,0.9-0.3,1.4-0.3s1,0.1,1.4,0.3s0.8,0.4,1.1,0.8c0.3,0.3,0.6,0.7,0.7,1.2c0.3,1,0.3,2,0,2.9
		c-0.2,0.4-0.4,0.8-0.7,1.2c-0.3,0.3-0.7,0.6-1.1,0.8c-0.5,0.2-0.9,0.3-1.4,0.3c-0.6,0-1.1-0.1-1.7-0.3c-0.5-0.2-0.9-0.4-1.4-0.7
		l-5-3.1v-1.4L81.3,201.7z M84.5,202.8c0.3,0,0.7-0.1,1-0.2c0.3-0.1,0.6-0.3,0.8-0.5c0.2-0.2,0.4-0.5,0.5-0.8c0.2-0.7,0.2-1.4,0-2.1
		c-0.1-0.3-0.3-0.6-0.5-0.8s-0.5-0.4-0.8-0.5c-0.6-0.2-1.4-0.2-2,0c-0.3,0.1-0.6,0.3-0.8,0.5c-0.2,0.2-0.4,0.5-0.5,0.8
		c-0.3,0.7-0.3,1.4,0,2.1c0.1,0.3,0.3,0.6,0.5,0.8s0.5,0.4,0.8,0.5C83.8,202.8,84.2,202.8,84.5,202.8z"/>
	<path d="M76.3,191.4c0-0.7,0.2-1.4,0.6-2c0.4-0.5,0.9-0.9,1.4-1.2c0.6-0.3,1.2-0.5,1.9-0.6c0.7-0.1,1.3-0.1,2-0.1s1.3,0,2,0.1
		s1.3,0.3,1.9,0.6s1.1,0.7,1.4,1.2c0.8,1.2,0.8,2.7,0,3.9c-0.4,0.5-0.9,0.9-1.5,1.2s-1.2,0.5-1.9,0.6c-0.7,0.1-1.3,0.1-2,0.1
		s-1.3,0-2-0.1s-1.3-0.3-1.9-0.6s-1.1-0.7-1.4-1.2C76.4,192.8,76.2,192.1,76.3,191.4z M77.3,191.4c0,0.5,0.1,1.1,0.5,1.5
		c0.3,0.4,0.8,0.6,1.2,0.8c0.5,0.2,1,0.3,1.6,0.4c0.6,0,1,0.1,1.5,0.1s0.9,0,1.5-0.1c0.5,0,1.1-0.2,1.6-0.4s0.9-0.4,1.2-0.8
		c0.7-0.9,0.7-2.1,0-2.9c-0.3-0.4-0.8-0.6-1.2-0.8c-0.5-0.2-1-0.3-1.6-0.4c-0.6,0-1.1-0.1-1.5-0.1s-1,0-1.5,0.1
		c-0.5,0-1.1,0.2-1.6,0.4s-0.9,0.4-1.2,0.8C77.5,190.4,77.3,190.9,77.3,191.4z"/>
	<path d="M82,181.4c-0.3,0-0.6,0-0.8,0h-0.8v-1.1h1.1l0,0c-0.4-0.2-0.8-0.6-1-1.1c-0.2-0.4-0.3-0.9-0.3-1.4c0-0.2,0-0.4,0.1-0.6
		c0-0.2,0.1-0.5,0.2-0.7s0.3-0.4,0.5-0.6c0.2-0.2,0.5-0.4,0.8-0.5c-0.5-0.2-0.9-0.6-1.1-1c-0.7-1.1-0.5-2.6,0.3-3.6
		c0.6-0.5,1.4-0.7,2.2-0.7H88v1.1h-4.4c-0.6,0-1.2,0.1-1.7,0.4c-0.4,0.4-0.7,0.9-0.6,1.5c0,0.7,0.3,1.3,0.8,1.6
		c0.3,0.2,0.6,0.3,0.9,0.4c0.3,0.1,0.7,0.1,1,0.1h4v1.1h-4.4c-0.6,0-1.2,0.1-1.7,0.4c-0.4,0.4-0.7,0.9-0.6,1.5c0,0.1,0,0.3,0.1,0.4
		c0.1,0.3,0.2,0.5,0.3,0.7c0.2,0.3,0.5,0.5,0.9,0.7c0.5,0.2,1.1,0.3,1.6,0.3H88v1.1L82,181.4z"/>
	<path d="M82,167.7h-0.8l-0.8,0.1v-1.1h1.1l0,0c-0.4-0.2-0.8-0.6-1-1.1c-0.3-0.6-0.4-1.3-0.3-2c0-0.2,0.1-0.5,0.2-0.7
		s0.3-0.4,0.5-0.6c0.2-0.2,0.5-0.4,0.8-0.5c-0.5-0.2-0.9-0.6-1.1-1c-0.7-1.1-0.5-2.6,0.3-3.6c0.6-0.5,1.4-0.7,2.2-0.7h4.8v1.1h-4.4
		c-0.6,0-1.2,0.1-1.7,0.4c-0.4,0.4-0.7,0.9-0.6,1.5c0,0.3,0.1,0.7,0.2,1c0.2,0.3,0.4,0.5,0.6,0.6c0.3,0.2,0.6,0.3,0.9,0.4
		c0.3,0.1,0.7,0.1,1,0.1h4v1.1h-4.4c-0.6,0-1.2,0.1-1.7,0.4c-0.4,0.4-0.7,0.9-0.6,1.5c0,0.1,0,0.3,0.1,0.4c0.1,0.3,0.2,0.5,0.3,0.7
		c0.2,0.3,0.5,0.5,0.9,0.7c0.5,0.2,1.1,0.3,1.6,0.3h3.8v1.1L82,167.7z"/>
</g>
<g>
	<path d="M81.3,130.2v-0.6c0-0.3,0-0.7-0.1-1s-0.2-0.6-0.4-0.8c-0.2-0.2-0.4-0.4-0.7-0.5c-0.3-0.1-0.7-0.2-1-0.2
		c-0.5,0-1,0.2-1.4,0.6s-0.5,1-0.5,1.5c0,0.4,0.1,0.9,0.3,1.3c0.2,0.4,0.5,0.7,0.9,0.9l-0.5,1c-0.6-0.3-1-0.7-1.4-1.3
		c-0.3-0.6-0.5-1.2-0.4-1.8c0-0.4,0.1-0.9,0.2-1.3c0.1-0.4,0.3-0.7,0.6-1c0.3-0.3,0.6-0.5,0.9-0.7c0.4-0.2,0.8-0.3,1.3-0.3
		c0.3,0,0.6,0,0.9,0.2c0.3,0.1,0.5,0.2,0.8,0.4c0.2,0.2,0.4,0.4,0.6,0.6s0.3,0.5,0.4,0.7l0,0c0.1-0.3,0.2-0.6,0.4-0.9
		c0.2-0.3,0.4-0.5,0.7-0.7c0.3-0.2,0.6-0.3,0.9-0.4s0.7-0.2,1-0.2c0.5,0,1,0.1,1.4,0.3c0.4,0.2,0.7,0.5,1,0.8s0.5,0.7,0.6,1.2
		c0.1,0.4,0.2,0.9,0.2,1.4c0,0.8-0.2,1.5-0.6,2.2s-1,1.1-1.7,1.4l-0.4-1.2c0.5-0.1,0.9-0.5,1.2-0.9c0.3-0.5,0.4-1,0.4-1.6
		c0-0.3-0.1-0.6-0.2-0.9c-0.1-0.3-0.3-0.5-0.5-0.8c-0.2-0.2-0.4-0.4-0.7-0.5c-0.3-0.1-0.6-0.2-0.9-0.2c-0.4,0-0.7,0.1-1.1,0.2
		c-0.3,0.2-0.5,0.4-0.7,0.6c-0.2,0.3-0.3,0.6-0.4,0.9c-0.1,0.4-0.1,0.7-0.1,1.1v0.5L81.3,130.2z"/>
	<path d="M77.5,117l10.3,4.6v1.3l-10.3-4.7v5.5h-1.1V117H77.5z"/>
	<path d="M76.3,111.2c0-0.7,0.2-1.4,0.6-2c0.4-0.5,0.9-0.9,1.4-1.2c0.6-0.3,1.2-0.5,1.9-0.6c0.7-0.1,1.3-0.1,2-0.2
		c0.7,0,1.3,0.1,2,0.2s1.3,0.3,1.9,0.6c0.6,0.3,1.1,0.7,1.4,1.2c0.8,1.2,0.8,2.7,0,3.9c-0.4,0.5-0.9,0.9-1.5,1.2
		c-0.6,0.3-1.2,0.5-1.9,0.6c-0.7,0.1-1.3,0.1-2,0.1s-1.3,0-2-0.1s-1.3-0.3-1.9-0.6c-0.6-0.3-1.1-0.7-1.4-1.2
		C76.4,112.6,76.2,111.9,76.3,111.2z M77.3,111.2c0,0.5,0.1,1.1,0.5,1.5c0.3,0.4,0.8,0.6,1.2,0.8c0.5,0.2,1,0.3,1.6,0.3
		c0.6,0.1,1,0.1,1.5,0.1s0.9,0,1.5-0.1c0.5,0,1.1-0.2,1.6-0.3c0.5-0.2,0.9-0.4,1.2-0.8c0.7-0.9,0.7-2.1,0-2.9
		c-0.3-0.4-0.8-0.6-1.2-0.8c-0.5-0.2-1-0.3-1.6-0.3s-1.1-0.1-1.5-0.1s-1,0-1.5,0.1c-0.5,0-1.1,0.2-1.6,0.3c-0.5,0.2-0.9,0.4-1.2,0.8
		C77.5,110.1,77.3,110.7,77.3,111.2z"/>
	<path d="M76.3,102.3c0-0.7,0.2-1.4,0.6-2c0.4-0.5,0.9-0.9,1.4-1.2c0.6-0.3,1.2-0.5,1.9-0.6c0.7-0.1,1.3-0.1,2-0.1s1.3,0,2,0.1
		s1.3,0.3,1.9,0.6c0.6,0.3,1.1,0.7,1.4,1.2c0.8,1.2,0.8,2.7,0,3.9c-0.4,0.5-0.9,0.9-1.5,1.2c-0.6,0.3-1.2,0.5-1.9,0.6
		c-0.7,0.1-1.3,0.1-2,0.2c-0.7,0-1.3-0.1-2-0.2s-1.3-0.3-1.9-0.6c-0.6-0.3-1.1-0.7-1.4-1.2C76.4,103.7,76.2,103,76.3,102.3z
		 M77.3,102.3c0,0.5,0.1,1.1,0.5,1.5c0.3,0.4,0.8,0.6,1.2,0.8c0.5,0.2,1,0.3,1.6,0.3s1,0.1,1.5,0.1s0.9,0,1.5-0.1
		c0.5,0,1.1-0.2,1.6-0.3c0.5-0.2,0.9-0.4,1.2-0.8c0.4-0.4,0.5-0.9,0.5-1.5c0-0.5-0.2-1.1-0.5-1.5s-0.8-0.6-1.2-0.8
		c-0.5-0.2-1-0.3-1.6-0.3s-1.1-0.1-1.5-0.1s-1,0-1.5,0.1c-0.5,0-1.1,0.2-1.6,0.3c-0.5,0.2-0.9,0.4-1.2,0.8
		C77.5,101.2,77.3,101.8,77.3,102.3z"/>
	<path d="M82,92.3h-0.8l-0.8,0.1v-1.1h1.1l0,0c-0.4-0.2-0.8-0.6-1-1.1c-0.3-0.6-0.4-1.3-0.3-2c0-0.2,0.1-0.5,0.2-0.7
		s0.3-0.4,0.5-0.6s0.5-0.4,0.8-0.5c-0.5-0.2-0.9-0.6-1.1-1c-0.7-1.1-0.5-2.6,0.3-3.6c0.6-0.5,1.4-0.7,2.2-0.7h4.8v1.1h-4.4
		c-0.6,0-1.2,0.1-1.7,0.4c-0.4,0.3-0.7,0.9-0.6,1.4c0,0.3,0.1,0.7,0.2,1c0.2,0.3,0.4,0.5,0.6,0.7c0.3,0.2,0.6,0.3,0.9,0.4
		s0.7,0.1,1,0.1h4v1h-4.4c-0.6,0-1.2,0.1-1.7,0.4c-0.4,0.4-0.7,0.9-0.6,1.5c0,0.1,0,0.3,0.1,0.4c0.1,0.3,0.2,0.5,0.3,0.7
		c0.2,0.3,0.5,0.5,0.9,0.7c0.5,0.2,1.1,0.3,1.6,0.3h3.8v1.1L82,92.3z"/>
	<path d="M82,78.6h-0.8l-0.8,0.1v-1.1h1.1l0,0c-0.4-0.2-0.8-0.6-1-1.1c-0.3-0.6-0.4-1.3-0.3-2c0-0.2,0.1-0.5,0.2-0.7
		s0.3-0.4,0.5-0.6s0.5-0.4,0.8-0.5c-0.5-0.2-0.9-0.6-1.1-1c-0.3-0.4-0.4-0.9-0.4-1.4c-0.1-0.8,0.2-1.6,0.8-2.1
		c0.6-0.5,1.4-0.7,2.2-0.7H88v1.1h-4.4c-0.6,0-1.2,0.1-1.7,0.4c-0.4,0.4-0.7,0.9-0.6,1.5c0,0.3,0.1,0.7,0.2,1
		c0.2,0.3,0.4,0.5,0.6,0.6c0.3,0.2,0.6,0.3,0.9,0.4s0.7,0.1,1,0.1h4v1h-4.4c-0.6,0-1.2,0.1-1.7,0.4c-0.4,0.4-0.7,0.9-0.6,1.5
		c0,0.1,0,0.3,0.1,0.4c0.1,0.3,0.2,0.5,0.3,0.7c0.2,0.3,0.5,0.5,0.9,0.7c0.5,0.2,1.1,0.3,1.6,0.3H88v1.1L82,78.6z"/>
</g>
<g>
	<path d="M121.2,242.3c0.3,0.3,0.5,0.7,0.7,1.2s0.2,1,0.2,1.4c0,0.5-0.1,1.1-0.3,1.6c-0.4,0.9-1.1,1.7-2.1,2.1
		c-0.5,0.2-1.1,0.3-1.6,0.3s-0.9-0.1-1.4-0.2c-0.4-0.1-0.8-0.3-1.1-0.6l-1.1,1.1l-0.5-0.5l1.1-1.1c-0.3-0.3-0.5-0.7-0.7-1.2
		s-0.2-0.9-0.2-1.4s0.1-1.1,0.3-1.6c0.2-0.5,0.5-0.9,0.8-1.2c0.4-0.4,0.8-0.6,1.3-0.8s1-0.3,1.6-0.3c0.5,0,0.9,0.1,1.4,0.2
		c0.4,0.1,0.8,0.3,1.2,0.6l1.1-1.1l0.5,0.5L121.2,242.3z M119.9,242.6c-0.5-0.4-1.2-0.6-1.8-0.6c-0.4,0-0.8,0.1-1.2,0.2
		c-0.3,0.1-0.6,0.4-0.9,0.6c-0.2,0.3-0.4,0.6-0.6,0.9c-0.1,0.4-0.2,0.8-0.2,1.2c0,0.7,0.2,1.3,0.6,1.8L119.9,242.6z M116.3,247.3
		c0.2,0.2,0.5,0.3,0.8,0.4c0.3,0.1,0.7,0.2,1,0.2c0.4,0,0.8-0.1,1.2-0.2c0.3-0.2,0.6-0.4,0.9-0.6c0.3-0.3,0.4-0.6,0.6-0.9
		c0.1-0.4,0.2-0.8,0.2-1.2c0-0.6-0.2-1.3-0.5-1.8L116.3,247.3z"/>
	<path d="M134,244.9h1.6v1.1H134v2.7h-1.2V246h-4.9v-1.3l4.6-7.3h1.5V244.9z M132.8,238.5L132.8,238.5l-3.9,6.4h3.9V238.5z"/>
	<path d="M143.7,238.4H139v3.4c0.2-0.1,0.5-0.2,0.8-0.2s0.5-0.1,0.8-0.1c0.5,0,1,0.1,1.5,0.3c0.4,0.2,0.8,0.4,1.1,0.8
		c0.3,0.3,0.6,0.7,0.7,1.1c0.4,0.9,0.4,2,0,2.9c-0.2,0.4-0.5,0.8-0.8,1.2c-0.4,0.3-0.8,0.6-1.2,0.8c-0.5,0.2-1,0.3-1.5,0.3
		c-0.7,0-1.4-0.2-1.9-0.5c-0.6-0.4-1-0.9-1.3-1.5l1.2-0.5c0.2,0.4,0.5,0.8,0.9,1.1s0.9,0.4,1.3,0.4c0.7,0,1.3-0.3,1.8-0.7
		c0.2-0.2,0.4-0.5,0.5-0.8s0.2-0.7,0.2-1c0-0.4-0.1-0.7-0.2-1.1c-0.1-0.3-0.3-0.6-0.6-0.9c-0.3-0.2-0.6-0.4-0.9-0.6
		c-0.4-0.1-0.7-0.2-1.1-0.2c-0.4,0-0.8,0.1-1.2,0.2c-0.4,0.1-0.8,0.3-1.1,0.5l0.1-5.9h5.8L143.7,238.4z"/>
	<path d="M149.6,237.1c0.7,0,1.4,0.2,2,0.6c0.5,0.4,0.9,0.9,1.2,1.4c0.3,0.6,0.5,1.2,0.6,1.9s0.1,1.3,0.1,2s0,1.3-0.1,2
		s-0.3,1.3-0.6,1.9c-0.3,0.6-0.7,1.1-1.2,1.4c-1.2,0.7-2.7,0.7-3.9,0c-0.5-0.4-0.9-0.9-1.2-1.4c-0.3-0.6-0.5-1.2-0.6-1.9
		s-0.1-1.3-0.1-2s0-1.3,0.1-2s0.3-1.3,0.6-1.9c0.3-0.6,0.7-1.1,1.2-1.4C148.2,237.3,148.9,237.1,149.6,237.1z M149.6,238.1
		c-0.5,0-1.1,0.1-1.5,0.5c-0.4,0.3-0.6,0.8-0.8,1.2c-0.2,0.5-0.3,1-0.4,1.6c0,0.6-0.1,1.1-0.1,1.5s0,0.9,0.1,1.5
		c0,0.5,0.2,1.1,0.4,1.6s0.4,0.9,0.8,1.2c0.9,0.7,2.1,0.7,2.9,0c0.4-0.3,0.6-0.8,0.8-1.2c0.2-0.5,0.3-1,0.4-1.6
		c0-0.6,0.1-1.1,0.1-1.5s0-0.9-0.1-1.5c0-0.5-0.2-1.1-0.4-1.6s-0.4-0.9-0.8-1.2C150.6,238.3,150.1,238.2,149.6,238.1L149.6,238.1z"
		/>
	<path d="M159.6,242.8c0-0.3,0-0.6,0-0.8s0-0.6-0.1-0.8h1.1v1.1l0,0c0.2-0.4,0.6-0.8,1.1-1c0.4-0.2,0.9-0.3,1.4-0.3
		c0.2,0,0.4,0,0.6,0.1c0.2,0,0.5,0.1,0.7,0.2c0.2,0.1,0.4,0.3,0.6,0.5c0.2,0.2,0.4,0.5,0.5,0.8c0.2-0.5,0.6-0.9,1-1.1
		c0.5-0.3,1-0.4,1.5-0.4c0.8-0.1,1.6,0.2,2.1,0.8s0.7,1.4,0.7,2.2v4.8h-1.1v-4.4c0-0.6-0.1-1.2-0.4-1.8c-0.4-0.4-0.9-0.7-1.5-0.6
		c-0.7,0-1.3,0.3-1.6,0.8c-0.2,0.3-0.3,0.6-0.4,0.9c-0.1,0.3-0.1,0.7-0.1,1v4h-1.1v-4.4c0-0.6-0.1-1.2-0.4-1.8
		c-0.4-0.4-0.9-0.7-1.5-0.6l-0.4,0.1c-0.3,0.1-0.5,0.2-0.7,0.4c-0.3,0.2-0.5,0.5-0.7,0.9c-0.2,0.5-0.3,1.1-0.3,1.6v3.8h-1
		L159.6,242.8z"/>
	<path d="M173.2,242.8c0-0.3,0-0.6,0-0.8l-0.1-0.8h1.1v1.1l0,0c0.2-0.4,0.6-0.8,1.1-1c0.4-0.2,0.9-0.3,1.4-0.3c0.2,0,0.4,0,0.6,0.1
		c0.2,0,0.5,0.1,0.7,0.2c0.2,0.1,0.4,0.3,0.6,0.5c0.2,0.2,0.4,0.5,0.5,0.8c0.2-0.5,0.6-0.9,1-1.1c0.4-0.3,0.9-0.4,1.4-0.4
		c0.8-0.1,1.6,0.2,2.1,0.8s0.7,1.4,0.7,2.2v4.8h-1.1v-4.4c0-0.6-0.1-1.2-0.4-1.8c-0.4-0.4-0.9-0.7-1.5-0.6c-0.3,0-0.7,0.1-1,0.2
		c-0.3,0.2-0.5,0.4-0.6,0.6c-0.2,0.3-0.3,0.6-0.4,0.9c-0.1,0.3-0.1,0.7-0.1,1v4h-1v-4.4c0-0.6-0.1-1.2-0.4-1.8
		c-0.4-0.4-0.9-0.7-1.5-0.6H176c-0.3,0.1-0.5,0.2-0.7,0.4c-0.3,0.2-0.5,0.5-0.7,0.9c-0.2,0.5-0.3,1.1-0.3,1.6v3.8h-1.1V242.8z"/>
</g>
<line class="st0" x1="98.7" y1="217.5" x2="98.7" y2="152.6"/>
<line class="st0" x1="96.9" y1="152.6" x2="100.4" y2="152.6"/>
<line class="st0" x1="96.2" y1="217.5" x2="101.2" y2="217.5"/>
<line class="st0" x1="98.7" y1="152.6" x2="98.7" y2="47.1"/>
<line class="st0" x1="96.9" y1="47" x2="100.4" y2="47"/>
<line class="st0" x1="96.2" y1="152.6" x2="101.2" y2="152.6"/>
<line class="st0" x1="108.1" y1="226.9" x2="191" y2="226.9"/>
<line class="st0" x1="108.1" y1="226.6" x2="108.1" y2="227.2"/>
<line class="st0" x1="191" y1="226.6" x2="191" y2="227.2"/>
<line class="st0" x1="108.1" y1="224.4" x2="108.1" y2="229.4"/>
<line class="st0" x1="191" y1="224.4" x2="191" y2="229.4"/>
<polygon class="st1" points="141,153.1 137.3,155.9 161.8,155.9 158.1,153.1 "/>
<line class="st2" x1="150.2" y1="153.1" x2="150.2" y2="46.7"/>
<path class="st2" d="M150.2,152.4c2.6-7.4,3.1-12.8,3.2-20.7c0-12.7-9.4-7.8-9.4-24.8c0-9.8,10.8-10.4,10.8-23.1
	c0-9.4-10.4-13-10.4-25.4V46.8"/>
<path class="st2" d="M150.2,152.4c2.6-7.4,3.1-12.8,3.2-20.7c0-12.7-9.4-7.8-9.4-24.8c0-9.8,10.8-10.4,10.8-23.1
	c0-9.4-10.4-13-10.4-25.4V46.8"/>
<g>
	<path class="st2" d="M149.5,155.8c-11.2,0-20.3,1.1-28.7,7s-11.9,12.6-11.9,23.8s4,17.7,11.9,23.8c8.1,6.3,17.5,7,28.7,7
		s20.3-1.3,28.6-7s11.9-12.6,11.9-23.8s-3.3-17.5-11.9-23.8C169.9,156.7,160.6,155.8,149.5,155.8z"/>
</g>
<polygon class="st1" points="141,153.1 137.3,155.9 161.8,155.9 158.1,153.1 "/>
<polygon class="st3" points="161.8,155.9 158.1,153.1 141,153.1 137.3,155.9 "/>
</svg>
