<svg xmlns="http://www.w3.org/2000/svg" viewBox="0 0 300 263"><defs><style>.cls-1,.cls-2,.cls-3,.cls-4,.cls-5{fill:none;stroke-linecap:round;}.cls-1,.cls-2,.cls-5{stroke:red;}.cls-1,.cls-2,.cls-4,.cls-5{stroke-linejoin:round;}.cls-1{stroke-width:0.6px;}.cls-3,.cls-4{stroke:#000;}.cls-3{stroke-miterlimit:10;}.cls-3,.cls-4,.cls-5{stroke-width:0.6px;}</style></defs><title>glo-ball-basic-2-table-morrison-flos-F3026000-curva-fotometrica</title><g id="numeri_esterni_diagramma" data-name="numeri esterni diagramma"><path d="M148.27,239.2a6.85,6.85,0,0,1,.08-1,3.41,3.41,0,0,1,.3-.95,1.94,1.94,0,0,1,.59-.71,1.57,1.57,0,0,1,.95-.27,1.6,1.6,0,0,1,1,.27,2,2,0,0,1,.59.71,3.1,3.1,0,0,1,.29.95,5.7,5.7,0,0,1,.08,1,5.85,5.85,0,0,1-.08,1,3.13,3.13,0,0,1-.29.94,2,2,0,0,1-.59.71,1.6,1.6,0,0,1-1,.27,1.57,1.57,0,0,1-.95-.27,1.94,1.94,0,0,1-.59-.71,3.45,3.45,0,0,1-.3-.94A7.07,7.07,0,0,1,148.27,239.2Zm.68,0c0,.13,0,.29,0,.46a4.88,4.88,0,0,0,.06.52,2.83,2.83,0,0,0,.13.5,1.65,1.65,0,0,0,.22.44,1.24,1.24,0,0,0,.34.31,1,1,0,0,0,.48.12.9.9,0,0,0,.48-.12,1,1,0,0,0,.34-.31,1.41,1.41,0,0,0,.23-.44,4.07,4.07,0,0,0,.13-.5c0-.18,0-.35.06-.52s0-.33,0-.46,0-.3,0-.47,0-.34-.06-.51a3.8,3.8,0,0,0-.13-.51,1.53,1.53,0,0,0-.23-.44,1,1,0,0,0-.34-.31.9.9,0,0,0-.48-.12,1,1,0,0,0-.48.12,1.24,1.24,0,0,0-.34.31,1.81,1.81,0,0,0-.22.44,2.72,2.72,0,0,0-.13.51,4.43,4.43,0,0,0-.06.51C149,238.9,149,239.06,149,239.2Z"/><path d="M152.83,237.41a1.33,1.33,0,0,1,.08-.45,1.11,1.11,0,0,1,.25-.36,1,1,0,0,1,.36-.24,1.17,1.17,0,0,1,.9,0,1,1,0,0,1,.36.24,1.11,1.11,0,0,1,.25.36,1.31,1.31,0,0,1,0,.9,1.23,1.23,0,0,1-.61.61,1.17,1.17,0,0,1-.9,0,1.23,1.23,0,0,1-.61-.61A1.33,1.33,0,0,1,152.83,237.41Zm.43,0a.79.79,0,0,0,.05.25.68.68,0,0,0,.14.23.66.66,0,0,0,.23.17.73.73,0,0,0,.58,0,.76.76,0,0,0,.23-.17.88.88,0,0,0,.14-.23.65.65,0,0,0,0-.5,1.09,1.09,0,0,0-.14-.23,1,1,0,0,0-.23-.17.73.73,0,0,0-.58,0,.81.81,0,0,0-.23.17.75.75,0,0,0-.19.48Z"/><path d="M203.17,238.76h.21l.43,0a1.15,1.15,0,0,0,.42-.13.77.77,0,0,0,.31-.31.94.94,0,0,0,.13-.51.87.87,0,0,0-.27-.68,1,1,0,0,0-.7-.26,1.28,1.28,0,0,0-.63.16,1.14,1.14,0,0,0-.41.48l-.65-.25a1.48,1.48,0,0,1,.65-.72,2.07,2.07,0,0,1,1-.24,2.25,2.25,0,0,1,.64.09,1.72,1.72,0,0,1,.54.28,1.37,1.37,0,0,1,.37.46,1.48,1.48,0,0,1,.14.65,1.29,1.29,0,0,1-.27.8,1.34,1.34,0,0,1-.7.49v0a1.48,1.48,0,0,1,.85.49,1.37,1.37,0,0,1,.23.43,1.69,1.69,0,0,1,.08.5,1.66,1.66,0,0,1-.15.72,1.57,1.57,0,0,1-.41.51,1.71,1.71,0,0,1-.6.31,2.34,2.34,0,0,1-.71.1,2.18,2.18,0,0,1-1.13-.28,1.61,1.61,0,0,1-.7-.91l.68-.22a1.33,1.33,0,0,0,.41.65,1.3,1.3,0,0,0,.74.19,1.33,1.33,0,0,0,.45-.08,1.11,1.11,0,0,0,.36-.23,1.24,1.24,0,0,0,.25-.35,1.13,1.13,0,0,0,.09-.45,1.07,1.07,0,0,0-.12-.53,1,1,0,0,0-.33-.33,1.23,1.23,0,0,0-.46-.18,2.31,2.31,0,0,0-.52-.06h-.21Z"/><path d="M206.24,239.2a6.85,6.85,0,0,1,.08-1,3.11,3.11,0,0,1,.3-.95,1.94,1.94,0,0,1,.59-.71,1.55,1.55,0,0,1,.95-.27,1.6,1.6,0,0,1,1,.27,2,2,0,0,1,.59.71,3.1,3.1,0,0,1,.29.95,5.7,5.7,0,0,1,.08,1,5.85,5.85,0,0,1-.08,1,3.13,3.13,0,0,1-.29.94,2,2,0,0,1-.59.71,1.6,1.6,0,0,1-1,.27,1.55,1.55,0,0,1-.95-.27,1.94,1.94,0,0,1-.59-.71,3.14,3.14,0,0,1-.3-.94A7.07,7.07,0,0,1,206.24,239.2Zm.67,0c0,.13,0,.29,0,.46a4.88,4.88,0,0,0,.06.52,2.83,2.83,0,0,0,.13.5,1.4,1.4,0,0,0,.22.44,1.24,1.24,0,0,0,.34.31,1,1,0,0,0,.48.12.9.9,0,0,0,.48-.12,1,1,0,0,0,.34-.31,1.41,1.41,0,0,0,.23-.44,4.05,4.05,0,0,0,.12-.5,4.88,4.88,0,0,0,.06-.52,3.86,3.86,0,0,0,0-.46,3.94,3.94,0,0,0,0-.47,4.43,4.43,0,0,0-.06-.51,3.81,3.81,0,0,0-.12-.51,1.53,1.53,0,0,0-.23-.44,1,1,0,0,0-.34-.31.9.9,0,0,0-.48-.12,1,1,0,0,0-.48.12,1.24,1.24,0,0,0-.34.31,1.51,1.51,0,0,0-.22.44,2.72,2.72,0,0,0-.13.51,4.43,4.43,0,0,0-.06.51C206.92,238.9,206.91,239.06,206.91,239.2Z"/><path d="M210.84,237.41a1.13,1.13,0,0,1,.09-.45,1.26,1.26,0,0,1,.24-.36,1.2,1.2,0,0,1,.82-.33,1,1,0,0,1,.44.09,1.12,1.12,0,0,1,.37.24,1.26,1.26,0,0,1,.24.36,1.16,1.16,0,0,1-.24,1.26,1.15,1.15,0,0,1-.37.25,1,1,0,0,1-.44.09,1.13,1.13,0,0,1-.45-.09,1.15,1.15,0,0,1-.37-.25,1.15,1.15,0,0,1-.33-.81Zm.43,0a.61.61,0,0,0,.06.25.68.68,0,0,0,.14.23.72.72,0,0,0,.22.17.73.73,0,0,0,.3.06.72.72,0,0,0,.29-.06.62.62,0,0,0,.22-.17.91.91,0,0,0,.15-.23.65.65,0,0,0,0-.5,1.14,1.14,0,0,0-.15-.23.76.76,0,0,0-.22-.17.72.72,0,0,0-.29-.06.73.73,0,0,0-.3.06.92.92,0,0,0-.22.17.79.79,0,0,0-.14.23A.61.61,0,0,0,211.27,237.41Z"/><path d="M93.6,238.76h.21l.44,0a1.1,1.1,0,0,0,.41-.13.86.86,0,0,0,.32-.31.94.94,0,0,0,.12-.51.87.87,0,0,0-.27-.68,1,1,0,0,0-.7-.26,1.21,1.21,0,0,0-.62.16,1.1,1.1,0,0,0-.42.48l-.65-.25a1.45,1.45,0,0,1,.66-.72,2,2,0,0,1,1-.24,2.32,2.32,0,0,1,.65.09,2,2,0,0,1,.54.28,1.67,1.67,0,0,1,.37.46,1.48,1.48,0,0,1,.13.65,1.29,1.29,0,0,1-.27.8,1.34,1.34,0,0,1-.7.49v0a1.31,1.31,0,0,1,.49.18,1.34,1.34,0,0,1,.36.31,1.37,1.37,0,0,1,.23.43,1.42,1.42,0,0,1,.08.5,1.66,1.66,0,0,1-.15.72,1.57,1.57,0,0,1-.41.51,1.75,1.75,0,0,1-.59.31,2.46,2.46,0,0,1-.72.1,2.18,2.18,0,0,1-1.13-.28,1.56,1.56,0,0,1-.69-.91l.68-.22a1.2,1.2,0,0,0,.41.65,1.27,1.27,0,0,0,.73.19,1.33,1.33,0,0,0,.45-.08,1.11,1.11,0,0,0,.36-.23,1.07,1.07,0,0,0,.25-.35,1.13,1.13,0,0,0,.09-.45,1.07,1.07,0,0,0-.12-.53.87.87,0,0,0-.33-.33,1.17,1.17,0,0,0-.46-.18,2.24,2.24,0,0,0-.52-.06H93.6Z"/><path d="M96.68,239.2a5.7,5.7,0,0,1,.08-1,3.1,3.1,0,0,1,.29-.95,2,2,0,0,1,.59-.71,1.6,1.6,0,0,1,1-.27,1.57,1.57,0,0,1,1,.27,1.94,1.94,0,0,1,.59.71,3.41,3.41,0,0,1,.3.95,6.85,6.85,0,0,1,.08,1,7.07,7.07,0,0,1-.08,1,3.45,3.45,0,0,1-.3.94,1.94,1.94,0,0,1-.59.71,1.57,1.57,0,0,1-1,.27,1.6,1.6,0,0,1-1-.27,2,2,0,0,1-.59-.71,3.13,3.13,0,0,1-.29-.94A5.85,5.85,0,0,1,96.68,239.2Zm.67,0c0,.13,0,.29,0,.46a4.88,4.88,0,0,0,.06.52,4.07,4.07,0,0,0,.13.5,1.41,1.41,0,0,0,.23.44,1,1,0,0,0,.34.31.9.9,0,0,0,.48.12,1,1,0,0,0,.48-.12,1.24,1.24,0,0,0,.34-.31,1.65,1.65,0,0,0,.22-.44,2.83,2.83,0,0,0,.13-.5,4.88,4.88,0,0,0,.06-.52c0-.17,0-.33,0-.46s0-.3,0-.47a4.43,4.43,0,0,0-.06-.51,2.72,2.72,0,0,0-.13-.51,1.81,1.81,0,0,0-.22-.44,1.24,1.24,0,0,0-.34-.31,1,1,0,0,0-.48-.12.9.9,0,0,0-.48.12,1,1,0,0,0-.34.31,1.53,1.53,0,0,0-.23.44,3.8,3.8,0,0,0-.13.51,4.43,4.43,0,0,0-.06.51C97.35,238.9,97.35,239.06,97.35,239.2Z"/><path d="M101.28,237.41a1.33,1.33,0,0,1,.08-.45,1.11,1.11,0,0,1,.25-.36,1,1,0,0,1,.36-.24,1.17,1.17,0,0,1,.9,0,1,1,0,0,1,.36.24,1.11,1.11,0,0,1,.25.36,1.31,1.31,0,0,1,0,.9,1.23,1.23,0,0,1-.61.61,1.17,1.17,0,0,1-.9,0,1.23,1.23,0,0,1-.61-.61A1.33,1.33,0,0,1,101.28,237.41Zm.43,0a.79.79,0,0,0,.05.25.68.68,0,0,0,.14.23.76.76,0,0,0,.23.17.73.73,0,0,0,.58,0,.66.66,0,0,0,.23-.17.68.68,0,0,0,.14-.23.71.71,0,0,0-.14-.73.81.81,0,0,0-.23-.17.73.73,0,0,0-.58,0,1,1,0,0,0-.23.17.75.75,0,0,0-.19.48Z"/><path d="M249.93,137.18h0a1.24,1.24,0,0,1-.37.12,1.84,1.84,0,0,1-.39,0,1.91,1.91,0,0,1-.68-.12,1.58,1.58,0,0,1-.54-.37,1.63,1.63,0,0,1-.36-.56,2.05,2.05,0,0,1-.13-.72,1.79,1.79,0,0,1,.15-.75,1.48,1.48,0,0,1,.4-.55,1.79,1.79,0,0,1,.6-.35,2,2,0,0,1,.75-.13,2.11,2.11,0,0,1,.75.13,1.79,1.79,0,0,1,.6.35,1.59,1.59,0,0,1,.4.55,1.79,1.79,0,0,1,.14.75,2.15,2.15,0,0,1,0,.45,1.68,1.68,0,0,1-.11.4,2.59,2.59,0,0,1-.17.38l-.21.36-1.51,2.39h-.78Zm-.59-.42a1.28,1.28,0,0,0,.48-.09,1,1,0,0,0,.39-.24,1.23,1.23,0,0,0,.26-.37,1.43,1.43,0,0,0,0-1,1.1,1.1,0,0,0-.65-.62,1.48,1.48,0,0,0-1,0,1.28,1.28,0,0,0-.39.24,1.12,1.12,0,0,0-.26.38,1.3,1.3,0,0,0,0,1,1.08,1.08,0,0,0,.26.37,1,1,0,0,0,.39.24A1.28,1.28,0,0,0,249.34,136.76Z"/><path d="M251.82,136.71a7.07,7.07,0,0,1,.08-1,3.19,3.19,0,0,1,.29-1,2,2,0,0,1,.59-.7,1.54,1.54,0,0,1,1-.28,1.49,1.49,0,0,1,.95.28,1.91,1.91,0,0,1,.59.7,2.94,2.94,0,0,1,.3,1,6.29,6.29,0,0,1,0,2,2.94,2.94,0,0,1-.3.95,1.91,1.91,0,0,1-.59.7,1.49,1.49,0,0,1-.95.28,1.54,1.54,0,0,1-1-.28,2,2,0,0,1-.59-.7,3.19,3.19,0,0,1-.29-.95A7.07,7.07,0,0,1,251.82,136.71Zm.67,0c0,.14,0,.29,0,.46a4.6,4.6,0,0,0,.06.52,4.7,4.7,0,0,0,.12.51,2,2,0,0,0,.23.44,1,1,0,0,0,.34.31,1,1,0,0,0,.48.11,1.06,1.06,0,0,0,.48-.11,1.24,1.24,0,0,0,.34-.31,1.65,1.65,0,0,0,.22-.44,3.18,3.18,0,0,0,.13-.51,4.6,4.6,0,0,0,.06-.52c0-.17,0-.32,0-.46s0-.29,0-.46a4.6,4.6,0,0,0-.06-.52,3.18,3.18,0,0,0-.13-.51,1.65,1.65,0,0,0-.22-.44,1.24,1.24,0,0,0-.34-.31,1.06,1.06,0,0,0-.48-.11,1,1,0,0,0-.48.11,1,1,0,0,0-.34.31,2,2,0,0,0-.23.44,4.7,4.7,0,0,0-.12.51,4.6,4.6,0,0,0-.06.52C252.5,136.42,252.49,136.57,252.49,136.71Z"/><path d="M256.42,134.93a1.13,1.13,0,0,1,.09-.45,1.31,1.31,0,0,1,.24-.37,1.18,1.18,0,0,1,.37-.24,1,1,0,0,1,.44-.09,1.13,1.13,0,0,1,.45.09,1.06,1.06,0,0,1,.61.61,1.13,1.13,0,0,1,.09.45,1,1,0,0,1-.09.44,1.06,1.06,0,0,1-.61.61,1.13,1.13,0,0,1-.45.09,1,1,0,0,1-.44-.09,1.18,1.18,0,0,1-.37-.24,1.31,1.31,0,0,1-.24-.37A1,1,0,0,1,256.42,134.93Zm.43,0a.69.69,0,0,0,0,.24,1,1,0,0,0,.15.24.73.73,0,0,0,.51.23.54.54,0,0,0,.29-.07.63.63,0,0,0,.23-.16.72.72,0,0,0,.14-.24.52.52,0,0,0,0-.24.56.56,0,0,0,0-.25.59.59,0,0,0-.14-.23.74.74,0,0,0-.52-.24.73.73,0,0,0-.29.07.62.62,0,0,0-.22.17.76.76,0,0,0-.15.23A.74.74,0,0,0,256.85,134.93Z"/><path d="M41.57,137.18h0a1.34,1.34,0,0,1-.37.12,2,2,0,0,1-.39,0,1.92,1.92,0,0,1-.69-.12,1.58,1.58,0,0,1-.54-.37,1.8,1.8,0,0,1-.36-.56,2.05,2.05,0,0,1-.13-.72,1.79,1.79,0,0,1,.15-.75,1.48,1.48,0,0,1,.4-.55,1.79,1.79,0,0,1,.6-.35,2.23,2.23,0,0,1,1.5,0,1.79,1.79,0,0,1,.6.35,1.48,1.48,0,0,1,.4.55,1.79,1.79,0,0,1,.15.75,3.14,3.14,0,0,1,0,.45,2.34,2.34,0,0,1-.12.4,1.84,1.84,0,0,1-.17.38,3.35,3.35,0,0,1-.21.36l-1.5,2.39h-.79Zm-.59-.42a1.28,1.28,0,0,0,.48-.09,1,1,0,0,0,.39-.24,1.23,1.23,0,0,0,.26-.37,1.3,1.3,0,0,0,0-1,1.1,1.1,0,0,0-.65-.62,1.48,1.48,0,0,0-1,0,1.1,1.1,0,0,0-.65.62,1.43,1.43,0,0,0,0,1,1.23,1.23,0,0,0,.26.37,1,1,0,0,0,.39.24A1.28,1.28,0,0,0,41,136.76Z"/><path d="M43.46,136.71a7.07,7.07,0,0,1,.08-1,2.94,2.94,0,0,1,.3-1,1.91,1.91,0,0,1,.59-.7,1.49,1.49,0,0,1,1-.28,1.54,1.54,0,0,1,1,.28,2,2,0,0,1,.59.7,3.19,3.19,0,0,1,.29,1,6.29,6.29,0,0,1,0,2,3.19,3.19,0,0,1-.29.95,2,2,0,0,1-.59.7,1.54,1.54,0,0,1-1,.28,1.49,1.49,0,0,1-1-.28,1.91,1.91,0,0,1-.59-.7,2.94,2.94,0,0,1-.3-.95A7.07,7.07,0,0,1,43.46,136.71Zm.67,0c0,.14,0,.29,0,.46a4.6,4.6,0,0,0,.06.52,3.18,3.18,0,0,0,.13.51,1.65,1.65,0,0,0,.22.44,1.12,1.12,0,0,0,.34.31,1.1,1.1,0,0,0,1,0,1.12,1.12,0,0,0,.34-.31,2,2,0,0,0,.23-.44,4.7,4.7,0,0,0,.12-.51,4.6,4.6,0,0,0,.06-.52c0-.17,0-.32,0-.46s0-.29,0-.46a4.6,4.6,0,0,0-.06-.52,4.7,4.7,0,0,0-.12-.51,2,2,0,0,0-.23-.44,1.12,1.12,0,0,0-.34-.31,1.1,1.1,0,0,0-1,0,1.12,1.12,0,0,0-.34.31,1.65,1.65,0,0,0-.22.44,3.18,3.18,0,0,0-.13.51,4.6,4.6,0,0,0-.06.52C44.14,136.42,44.13,136.57,44.13,136.71Z"/><path d="M48.06,134.93a1.13,1.13,0,0,1,.09-.45,1.06,1.06,0,0,1,.61-.61,1.13,1.13,0,0,1,.45-.09,1.08,1.08,0,0,1,.44.09,1.06,1.06,0,0,1,.61.61,1.13,1.13,0,0,1,.09.45,1,1,0,0,1-.09.44,1.06,1.06,0,0,1-.61.61,1.08,1.08,0,0,1-.44.09,1.13,1.13,0,0,1-.45-.09,1.06,1.06,0,0,1-.61-.61A1,1,0,0,1,48.06,134.93Zm.43,0a.53.53,0,0,0,.06.24.72.72,0,0,0,.14.24.69.69,0,0,0,.22.16.6.6,0,0,0,.3.07.73.73,0,0,0,.51-.23,1,1,0,0,0,.15-.24.69.69,0,0,0,.05-.24.74.74,0,0,0-.05-.25.76.76,0,0,0-.15-.23.62.62,0,0,0-.22-.17.73.73,0,0,0-.29-.07.73.73,0,0,0-.3.07.72.72,0,0,0-.22.17.59.59,0,0,0-.14.23A.57.57,0,0,0,48.49,134.93Z"/><path d="M148.37,38.51h-.68v-4.8h0l-1,.85-.4-.48,1.52-1.24h.59Z"/><path d="M150.49,34.23a1.48,1.48,0,0,1,.13-.61,1.2,1.2,0,0,1,.34-.46,1.44,1.44,0,0,1,.51-.3,1.92,1.92,0,0,1,1.28,0,1.44,1.44,0,0,1,.51.3,1.2,1.2,0,0,1,.34.46,1.33,1.33,0,0,1,.13.61,1.16,1.16,0,0,1-.07.4,1.41,1.41,0,0,1-.18.37,1.33,1.33,0,0,1-.29.29,1.18,1.18,0,0,1-.39.19h0a1.44,1.44,0,0,1,.46.19,1.35,1.35,0,0,1,.35.32,1.42,1.42,0,0,1,.23.44,1.7,1.7,0,0,1,.08.51,1.74,1.74,0,0,1-.14.69,1.43,1.43,0,0,1-.39.52,1.47,1.47,0,0,1-.57.33,2.35,2.35,0,0,1-1.42,0,1.47,1.47,0,0,1-.57-.33,1.55,1.55,0,0,1-.39-.52,1.74,1.74,0,0,1-.14-.69,1.7,1.7,0,0,1,.08-.51,1.67,1.67,0,0,1,.23-.44,1.35,1.35,0,0,1,.35-.32,1.44,1.44,0,0,1,.46-.19h0a1.18,1.18,0,0,1-.39-.19,1.33,1.33,0,0,1-.29-.29,1.41,1.41,0,0,1-.18-.37A1.46,1.46,0,0,1,150.49,34.23ZM151,36.9a1.18,1.18,0,0,0,.09.46,1.07,1.07,0,0,0,.25.35,1,1,0,0,0,.36.23,1.12,1.12,0,0,0,.88,0,1,1,0,0,0,.36-.23,1.07,1.07,0,0,0,.25-.35,1.18,1.18,0,0,0,.09-.46,1.14,1.14,0,0,0-.09-.46,1.13,1.13,0,0,0-.61-.58,1.12,1.12,0,0,0-.88,0,1.13,1.13,0,0,0-.61.58A1.14,1.14,0,0,0,151,36.9Zm.2-2.64a.88.88,0,0,0,.26.67,1,1,0,0,0,1.36,0,1,1,0,0,0,0-1.34,1,1,0,0,0-1.36,0A.88.88,0,0,0,151.17,34.26Z"/><path d="M154.64,35.68a7,7,0,0,1,.08-1,3.1,3.1,0,0,1,.29-1,2,2,0,0,1,.59-.71,1.6,1.6,0,0,1,1-.27,1.55,1.55,0,0,1,.95.27,1.94,1.94,0,0,1,.59.71,2.86,2.86,0,0,1,.3,1,7,7,0,0,1,.08,1,7.07,7.07,0,0,1-.08,1,2.88,2.88,0,0,1-.3.94,1.94,1.94,0,0,1-.59.71,1.55,1.55,0,0,1-.95.27,1.6,1.6,0,0,1-1-.27,2,2,0,0,1-.59-.71,3.13,3.13,0,0,1-.29-.94A7.07,7.07,0,0,1,154.64,35.68Zm.67,0c0,.13,0,.29,0,.46a4.88,4.88,0,0,0,.06.52,4.05,4.05,0,0,0,.12.5,1.66,1.66,0,0,0,.23.44,1.12,1.12,0,0,0,.34.31,1,1,0,0,0,1,0,1.12,1.12,0,0,0,.34-.31,1.4,1.4,0,0,0,.22-.44,2.83,2.83,0,0,0,.13-.5,4.88,4.88,0,0,0,.06-.52c0-.17,0-.33,0-.46s0-.3,0-.47a4.43,4.43,0,0,0-.06-.51,2.72,2.72,0,0,0-.13-.51,1.51,1.51,0,0,0-.22-.44,1.12,1.12,0,0,0-.34-.31,1,1,0,0,0-1,0,1.12,1.12,0,0,0-.34.31,1.83,1.83,0,0,0-.23.44,3.81,3.81,0,0,0-.12.51,4.43,4.43,0,0,0-.06.51C155.32,35.38,155.31,35.54,155.31,35.68Z"/><path d="M159.24,33.89a1.15,1.15,0,0,1,.33-.81,1,1,0,0,1,.37-.24,1,1,0,0,1,.44-.09,1.15,1.15,0,0,1,.82,2,1.15,1.15,0,0,1-.37.25,1.13,1.13,0,0,1-.45.09,1.15,1.15,0,0,1-.81-.34,1.15,1.15,0,0,1-.33-.81Zm.43,0a.79.79,0,0,0,.05.25,1.14,1.14,0,0,0,.15.23.62.62,0,0,0,.22.17.72.72,0,0,0,.29.06.68.68,0,0,0,.52-.23.79.79,0,0,0,.14-.23.65.65,0,0,0,0-.5.79.79,0,0,0-.14-.23.81.81,0,0,0-.23-.17.65.65,0,0,0-.29-.06.72.72,0,0,0-.29.06.76.76,0,0,0-.22.17,1.14,1.14,0,0,0-.15.23A.79.79,0,0,0,159.67,33.89Z"/><path d="M203.18,38.51h-.68v-4.8h0l-1,.85-.4-.48,1.52-1.24h.59Z"/><path d="M208.49,33.47h-2.31l0,1.53a1.08,1.08,0,0,1,.36-.11l.37,0a2,2,0,0,1,.74.14,1.61,1.61,0,0,1,.57.39,1.9,1.9,0,0,1,.37.59,2,2,0,0,1,.13.74,2,2,0,0,1-.15.78,1.74,1.74,0,0,1-.41.59,1.91,1.91,0,0,1-.61.38,2.2,2.2,0,0,1-.78.13,1.73,1.73,0,0,1-1-.28,2,2,0,0,1-.63-.75l.67-.25a1.31,1.31,0,0,0,.42.51,1.1,1.1,0,0,0,.64.2,1.28,1.28,0,0,0,.48-.09,1.26,1.26,0,0,0,.38-.27,1.15,1.15,0,0,0,.26-.41,1.53,1.53,0,0,0,.1-.54,1.38,1.38,0,0,0-.11-.55,1.08,1.08,0,0,0-.3-.4,1.26,1.26,0,0,0-.44-.25,1.67,1.67,0,0,0-.55-.08,1.84,1.84,0,0,0-.6.1,2.58,2.58,0,0,0-.56.25l.06-2.95h3Z"/><path d="M209.45,35.68a7,7,0,0,1,.08-1,3.1,3.1,0,0,1,.29-1,2,2,0,0,1,.59-.71,1.6,1.6,0,0,1,1-.27,1.55,1.55,0,0,1,.95.27,1.94,1.94,0,0,1,.59.71,2.86,2.86,0,0,1,.3,1,7,7,0,0,1,.08,1,7.07,7.07,0,0,1-.08,1,2.88,2.88,0,0,1-.3.94,1.94,1.94,0,0,1-.59.71,1.55,1.55,0,0,1-.95.27,1.6,1.6,0,0,1-1-.27,2,2,0,0,1-.59-.71,3.13,3.13,0,0,1-.29-.94A7.07,7.07,0,0,1,209.45,35.68Zm.67,0c0,.13,0,.29,0,.46a4.88,4.88,0,0,0,.06.52,4.05,4.05,0,0,0,.12.5,1.66,1.66,0,0,0,.23.44,1,1,0,0,0,.34.31.9.9,0,0,0,.48.12,1,1,0,0,0,.48-.12,1.24,1.24,0,0,0,.34-.31,1.4,1.4,0,0,0,.22-.44,2.83,2.83,0,0,0,.13-.5,4.88,4.88,0,0,0,.06-.52c0-.17,0-.33,0-.46s0-.3,0-.47a4.43,4.43,0,0,0-.06-.51,2.72,2.72,0,0,0-.13-.51,1.51,1.51,0,0,0-.22-.44,1.24,1.24,0,0,0-.34-.31,1,1,0,0,0-.48-.12.9.9,0,0,0-.48.12,1,1,0,0,0-.34.31,1.83,1.83,0,0,0-.23.44,3.81,3.81,0,0,0-.12.51,4.43,4.43,0,0,0-.06.51C210.13,35.38,210.12,35.54,210.12,35.68Z"/><path d="M214.05,33.89a1.15,1.15,0,0,1,.33-.81,1,1,0,0,1,.37-.24,1,1,0,0,1,.44-.09,1.13,1.13,0,0,1,.45.09,1,1,0,0,1,.36.24,1,1,0,0,1,.25.36,1.17,1.17,0,0,1,0,.9,1.23,1.23,0,0,1-.61.61,1.13,1.13,0,0,1-.45.09,1.15,1.15,0,0,1-.81-.34,1.15,1.15,0,0,1-.33-.81Zm.43,0a.79.79,0,0,0,.05.25,1.14,1.14,0,0,0,.15.23.62.62,0,0,0,.22.17.72.72,0,0,0,.29.06.68.68,0,0,0,.52-.23.79.79,0,0,0,.14-.23.65.65,0,0,0,0-.5.79.79,0,0,0-.14-.23.81.81,0,0,0-.23-.17.65.65,0,0,0-.29-.06.72.72,0,0,0-.29.06.76.76,0,0,0-.22.17,1.14,1.14,0,0,0-.15.23A.79.79,0,0,0,214.48,33.89Z"/><path d="M93.61,38.51h-.67v-4.8h0l-1,.85-.4-.48L93,32.84h.58Z"/><path d="M98.92,33.47H96.61l0,1.53a1,1,0,0,1,.35-.11l.37,0a1.91,1.91,0,0,1,.74.14,1.65,1.65,0,0,1,.58.39A1.71,1.71,0,0,1,99,36a2,2,0,0,1,.13.74,2,2,0,0,1-.15.78,1.71,1.71,0,0,1-.4.59,2,2,0,0,1-.62.38,2.15,2.15,0,0,1-.77.13,1.78,1.78,0,0,1-1.05-.28,1.85,1.85,0,0,1-.62-.75l.67-.25a1.16,1.16,0,0,0,.42.51,1.05,1.05,0,0,0,.63.2,1.28,1.28,0,0,0,.48-.09,1.23,1.23,0,0,0,.64-.68,1.33,1.33,0,0,0,.1-.54,1.38,1.38,0,0,0-.11-.55,1.18,1.18,0,0,0-.29-.4,1.41,1.41,0,0,0-.45-.25,1.63,1.63,0,0,0-.55-.08,1.78,1.78,0,0,0-.59.1,2.58,2.58,0,0,0-.56.25l0-2.95h3Z"/><path d="M99.88,35.68a7,7,0,0,1,.08-1,3.11,3.11,0,0,1,.3-1,1.94,1.94,0,0,1,.59-.71,1.55,1.55,0,0,1,1-.27,1.6,1.6,0,0,1,1,.27,2,2,0,0,1,.59.71,3.1,3.1,0,0,1,.29,1,5.77,5.77,0,0,1,.08,1,5.85,5.85,0,0,1-.08,1,3.13,3.13,0,0,1-.29.94,2,2,0,0,1-.59.71,1.6,1.6,0,0,1-1,.27,1.55,1.55,0,0,1-1-.27,1.94,1.94,0,0,1-.59-.71,3.14,3.14,0,0,1-.3-.94A7.07,7.07,0,0,1,99.88,35.68Zm.67,0c0,.13,0,.29,0,.46a4.88,4.88,0,0,0,.06.52,2.83,2.83,0,0,0,.13.5,1.4,1.4,0,0,0,.22.44,1.24,1.24,0,0,0,.34.31,1,1,0,0,0,.48.12.9.9,0,0,0,.48-.12,1,1,0,0,0,.34-.31,1.41,1.41,0,0,0,.23-.44,4.05,4.05,0,0,0,.12-.5,4.88,4.88,0,0,0,.06-.52c0-.17,0-.33,0-.46s0-.3,0-.47a4.43,4.43,0,0,0-.06-.51,3.81,3.81,0,0,0-.12-.51,1.53,1.53,0,0,0-.23-.44,1,1,0,0,0-.34-.31.9.9,0,0,0-.48-.12,1,1,0,0,0-.48.12,1.24,1.24,0,0,0-.34.31,1.51,1.51,0,0,0-.22.44,2.72,2.72,0,0,0-.13.51,4.43,4.43,0,0,0-.06.51C100.56,35.38,100.55,35.54,100.55,35.68Z"/><path d="M104.48,33.89a1.15,1.15,0,0,1,1.15-1.14,1,1,0,0,1,.44.09,1.12,1.12,0,0,1,.37.24,1.16,1.16,0,0,1,0,1.62,1.15,1.15,0,0,1-.37.25,1,1,0,0,1-.44.09,1.13,1.13,0,0,1-.45-.09,1.15,1.15,0,0,1-.37-.25,1.15,1.15,0,0,1-.33-.81Zm.43,0a.61.61,0,0,0,.06.25.79.79,0,0,0,.14.23.72.72,0,0,0,.22.17.73.73,0,0,0,.3.06.72.72,0,0,0,.29-.06.62.62,0,0,0,.22-.17,1.14,1.14,0,0,0,.15-.23.65.65,0,0,0,0-.5,1.14,1.14,0,0,0-.15-.23.76.76,0,0,0-.22-.17.72.72,0,0,0-.29-.06.73.73,0,0,0-.3.06.92.92,0,0,0-.22.17.79.79,0,0,0-.14.23A.61.61,0,0,0,104.91,33.89Z"/><path d="M248.75,192.45v0a1.35,1.35,0,0,1,.37-.13,2,2,0,0,1,.39,0,1.73,1.73,0,0,1,.69.13,1.42,1.42,0,0,1,.54.36,1.85,1.85,0,0,1,.36.57,2,2,0,0,1,.12.72,1.78,1.78,0,0,1-.14.74,1.74,1.74,0,0,1-.4.56,2,2,0,0,1-.6.35,2.36,2.36,0,0,1-.75.12,2.27,2.27,0,0,1-.75-.12,2,2,0,0,1-.6-.35,1.6,1.6,0,0,1-.4-.56,1.78,1.78,0,0,1-.15-.74,2.24,2.24,0,0,1,.15-.86,5.28,5.28,0,0,1,.39-.74l1.5-2.39h.79Zm.59.43a1.23,1.23,0,0,0-.87.32,1,1,0,0,0-.26.38,1.31,1.31,0,0,0-.1.5,1.35,1.35,0,0,0,.1.5,1.08,1.08,0,0,0,.26.37,1,1,0,0,0,.39.24,1.32,1.32,0,0,0,1,0,1,1,0,0,0,.39-.24,1.23,1.23,0,0,0,.26-.37,1.35,1.35,0,0,0,.09-.5,1.31,1.31,0,0,0-.09-.5,1.16,1.16,0,0,0-.26-.38,1.23,1.23,0,0,0-.87-.32Z"/><path d="M251.82,192.92a7.07,7.07,0,0,1,.08-1,3.13,3.13,0,0,1,.29-.94,2,2,0,0,1,.59-.71,1.6,1.6,0,0,1,1-.27,1.55,1.55,0,0,1,.95.27,1.94,1.94,0,0,1,.59.71,2.88,2.88,0,0,1,.3.94,7.07,7.07,0,0,1,.08,1,7,7,0,0,1-.08,1,2.86,2.86,0,0,1-.3,1,1.94,1.94,0,0,1-.59.71,1.55,1.55,0,0,1-.95.27,1.6,1.6,0,0,1-1-.27,2,2,0,0,1-.59-.71,3.1,3.1,0,0,1-.29-1A7,7,0,0,1,251.82,192.92Zm.67,0c0,.14,0,.3,0,.47a4.43,4.43,0,0,0,.06.51,3.81,3.81,0,0,0,.12.51,1.83,1.83,0,0,0,.23.44,1,1,0,0,0,.34.31.9.9,0,0,0,.48.12,1,1,0,0,0,.48-.12,1.24,1.24,0,0,0,.34-.31,1.51,1.51,0,0,0,.22-.44,2.72,2.72,0,0,0,.13-.51,4.43,4.43,0,0,0,.06-.51c0-.17,0-.33,0-.47s0-.29,0-.46a4.88,4.88,0,0,0-.06-.52,2.83,2.83,0,0,0-.13-.5,1.4,1.4,0,0,0-.22-.44,1.1,1.1,0,0,0-.34-.31,1,1,0,0,0-.48-.12.9.9,0,0,0-.48.12.92.92,0,0,0-.34.31,1.66,1.66,0,0,0-.23.44,4.05,4.05,0,0,0-.12.5,4.88,4.88,0,0,0-.06.52C252.5,192.63,252.49,192.79,252.49,192.92Z"/><path d="M256.42,191.14a1.15,1.15,0,0,1,.33-.81,1.05,1.05,0,0,1,.37-.25,1.23,1.23,0,0,1,.44-.08,1.33,1.33,0,0,1,.45.08,1.15,1.15,0,0,1,.37.25,1.16,1.16,0,0,1,0,1.62,1.15,1.15,0,0,1-.37.25,1.33,1.33,0,0,1-.45.08,1.23,1.23,0,0,1-.44-.08,1.05,1.05,0,0,1-.37-.25,1.15,1.15,0,0,1-.33-.81Zm.43,0a.79.79,0,0,0,0,.25,1.14,1.14,0,0,0,.15.23.62.62,0,0,0,.22.17.72.72,0,0,0,.29.06.68.68,0,0,0,.52-.23.79.79,0,0,0,.14-.23.65.65,0,0,0,0-.5.79.79,0,0,0-.14-.23.68.68,0,0,0-.52-.23.72.72,0,0,0-.29.06.62.62,0,0,0-.22.17,1.14,1.14,0,0,0-.15.23A.79.79,0,0,0,256.85,191.14Z"/><path d="M250,81.22h-.67v-4.8h0l-1,.86-.4-.49,1.52-1.23H250Z"/><path d="M251.92,80.45l2.13-2.08c.13-.12.25-.24.35-.35a2.16,2.16,0,0,0,.25-.32,1.09,1.09,0,0,0,.15-.33,1.38,1.38,0,0,0,0-.37,1,1,0,0,0-.08-.4.84.84,0,0,0-.22-.3.78.78,0,0,0-.33-.19,1.05,1.05,0,0,0-.4-.07,1,1,0,0,0-.71.25,1.08,1.08,0,0,0-.36.65l-.73-.06a1.83,1.83,0,0,1,.21-.61,1.41,1.41,0,0,1,.39-.45,2,2,0,0,1,.53-.27,2.25,2.25,0,0,1,.64-.09,2.41,2.41,0,0,1,.67.1,1.92,1.92,0,0,1,.55.29,1.44,1.44,0,0,1,.51,1.15,2,2,0,0,1-.09.61,2,2,0,0,1-.25.5,3.47,3.47,0,0,1-.35.43l-.41.4-1.75,1.64v0h2.89v.62h-3.64Z"/><path d="M256.27,78.39a5.85,5.85,0,0,1,.08-1,3.19,3.19,0,0,1,.29-1,2,2,0,0,1,.59-.7,1.54,1.54,0,0,1,1-.28,1.51,1.51,0,0,1,.95.28,1.91,1.91,0,0,1,.59.7,3.2,3.2,0,0,1,.3,1,6.29,6.29,0,0,1,0,2,3.2,3.2,0,0,1-.3,1,1.91,1.91,0,0,1-.59.7,1.51,1.51,0,0,1-.95.28,1.54,1.54,0,0,1-1-.28,2,2,0,0,1-.59-.7,3.19,3.19,0,0,1-.29-1A5.85,5.85,0,0,1,256.27,78.39Zm.67,0a3.78,3.78,0,0,0,0,.46c0,.17,0,.35.05.52a4.77,4.77,0,0,0,.13.51,1.67,1.67,0,0,0,.23.44,1,1,0,0,0,.34.31,1,1,0,0,0,.48.11,1.06,1.06,0,0,0,.48-.11,1.24,1.24,0,0,0,.34-.31,2,2,0,0,0,.22-.44,3.18,3.18,0,0,0,.13-.51,4.6,4.6,0,0,0,.06-.52c0-.17,0-.32,0-.46s0-.29,0-.46a4.35,4.35,0,0,0-.06-.52,3.18,3.18,0,0,0-.13-.51,2,2,0,0,0-.22-.44,1.24,1.24,0,0,0-.34-.31,1.06,1.06,0,0,0-.48-.11,1,1,0,0,0-.48.11,1,1,0,0,0-.34.31,1.67,1.67,0,0,0-.23.44,4.77,4.77,0,0,0-.13.51c0,.17,0,.34-.05.52A3.78,3.78,0,0,0,256.94,78.39Z"/><path d="M260.87,76.61a1.13,1.13,0,0,1,.09-.45,1,1,0,0,1,.24-.37,1.16,1.16,0,0,1,1.62,0,1.15,1.15,0,0,1,.25.37,1.13,1.13,0,0,1,.09.45,1,1,0,0,1-.09.44,1.15,1.15,0,0,1-.25.37,1.16,1.16,0,0,1-1.62,0,1,1,0,0,1-.24-.37A1,1,0,0,1,260.87,76.61Zm.43,0a.69.69,0,0,0,.05.24.75.75,0,0,0,.15.24.6.6,0,0,0,.22.16.64.64,0,0,0,.58,0,.63.63,0,0,0,.23-.16.72.72,0,0,0,.14-.24.52.52,0,0,0,.05-.24.56.56,0,0,0-.05-.25.59.59,0,0,0-.14-.23.66.66,0,0,0-.23-.17.64.64,0,0,0-.58,0,.62.62,0,0,0-.22.17.61.61,0,0,0-.15.23A.74.74,0,0,0,261.3,76.61Z"/><path d="M40.39,192.45v0a1.42,1.42,0,0,1,.38-.13,1.84,1.84,0,0,1,.39,0,1.72,1.72,0,0,1,.68.13,1.42,1.42,0,0,1,.54.36,1.85,1.85,0,0,1,.36.57,2,2,0,0,1,.13.72,1.78,1.78,0,0,1-.15.74,1.6,1.6,0,0,1-.4.56,2,2,0,0,1-.6.35,2.4,2.4,0,0,1-1.5,0,2,2,0,0,1-.6-.35,1.6,1.6,0,0,1-.4-.56,1.78,1.78,0,0,1-.15-.74,2.24,2.24,0,0,1,.16-.86,5.19,5.19,0,0,1,.38-.74l1.5-2.39h.79Zm.59.43a1.23,1.23,0,0,0-.87.32,1.16,1.16,0,0,0-.26.38,1.31,1.31,0,0,0-.09.5,1.35,1.35,0,0,0,.09.5,1.23,1.23,0,0,0,.26.37,1,1,0,0,0,.39.24,1.32,1.32,0,0,0,1,0,1,1,0,0,0,.39-.24,1.23,1.23,0,0,0,.26-.37,1.35,1.35,0,0,0,.1-.5,1.31,1.31,0,0,0-.1-.5,1.16,1.16,0,0,0-.26-.38,1.23,1.23,0,0,0-.87-.32Z"/><path d="M43.46,192.92a7.07,7.07,0,0,1,.08-1,2.88,2.88,0,0,1,.3-.94,1.94,1.94,0,0,1,.59-.71,1.55,1.55,0,0,1,1-.27,1.6,1.6,0,0,1,1,.27,2,2,0,0,1,.59.71,3.13,3.13,0,0,1,.29.94,7.07,7.07,0,0,1,.08,1,7,7,0,0,1-.08,1,3.1,3.1,0,0,1-.29,1,2,2,0,0,1-.59.71,1.6,1.6,0,0,1-1,.27,1.55,1.55,0,0,1-1-.27,1.94,1.94,0,0,1-.59-.71,2.86,2.86,0,0,1-.3-1A7,7,0,0,1,43.46,192.92Zm.67,0c0,.14,0,.3,0,.47a4.43,4.43,0,0,0,.06.51,2.72,2.72,0,0,0,.13.51,1.51,1.51,0,0,0,.22.44,1.12,1.12,0,0,0,.34.31,1,1,0,0,0,1,0,1.12,1.12,0,0,0,.34-.31,1.83,1.83,0,0,0,.23-.44,3.81,3.81,0,0,0,.12-.51,4.43,4.43,0,0,0,.06-.51c0-.17,0-.33,0-.47s0-.29,0-.46a4.88,4.88,0,0,0-.06-.52,4.05,4.05,0,0,0-.12-.5,1.66,1.66,0,0,0-.23-.44,1,1,0,0,0-.34-.31,1,1,0,0,0-1,0,1,1,0,0,0-.34.31,1.4,1.4,0,0,0-.22.44,2.83,2.83,0,0,0-.13.5,4.88,4.88,0,0,0-.06.52C44.14,192.63,44.13,192.79,44.13,192.92Z"/><path d="M48.06,191.14a1.15,1.15,0,0,1,.33-.81,1.15,1.15,0,0,1,.37-.25,1.33,1.33,0,0,1,.45-.08,1.27,1.27,0,0,1,.44.08,1.15,1.15,0,0,1,.37.25A1.16,1.16,0,0,1,50,192a1.15,1.15,0,0,1-.37.25,1.27,1.27,0,0,1-.44.08,1.33,1.33,0,0,1-.45-.08,1.15,1.15,0,0,1-.37-.25,1.15,1.15,0,0,1-.33-.81Zm.43,0a.61.61,0,0,0,.06.25.79.79,0,0,0,.14.23.72.72,0,0,0,.22.17.73.73,0,0,0,.3.06.72.72,0,0,0,.29-.06.62.62,0,0,0,.22-.17,1.14,1.14,0,0,0,.15-.23.65.65,0,0,0,0-.5,1.14,1.14,0,0,0-.15-.23.62.62,0,0,0-.22-.17.72.72,0,0,0-.29-.06.73.73,0,0,0-.3.06.72.72,0,0,0-.22.17.79.79,0,0,0-.14.23A.61.61,0,0,0,48.49,191.14Z"/><path d="M39.15,81.22h-.67v-4.8h0l-1,.86-.4-.49,1.52-1.23h.58Z"/><path d="M41.07,80.45l2.14-2.08c.13-.12.25-.24.35-.35a2.16,2.16,0,0,0,.25-.32,1.09,1.09,0,0,0,.15-.33A1.38,1.38,0,0,0,44,77a1,1,0,0,0-.08-.4.84.84,0,0,0-.22-.3.78.78,0,0,0-.33-.19A1.05,1.05,0,0,0,43,76a1,1,0,0,0-.72.25,1.19,1.19,0,0,0-.36.65l-.72-.06a1.47,1.47,0,0,1,.21-.61,1.41,1.41,0,0,1,.39-.45,2,2,0,0,1,.53-.27,2.2,2.2,0,0,1,.64-.09,2.41,2.41,0,0,1,.67.1,2.06,2.06,0,0,1,.55.29,1.47,1.47,0,0,1,.37.48,1.6,1.6,0,0,1,.14.67,2,2,0,0,1-.09.61,2.34,2.34,0,0,1-.25.5,3.47,3.47,0,0,1-.35.43l-.41.4-1.75,1.64v0h2.89v.62H41.07Z"/><path d="M45.43,78.39a7,7,0,0,1,.07-1,3.52,3.52,0,0,1,.3-1,2,2,0,0,1,.59-.7,1.77,1.77,0,0,1,1.91,0,1.91,1.91,0,0,1,.59.7,3.52,3.52,0,0,1,.3,1,6.29,6.29,0,0,1,0,2,3.52,3.52,0,0,1-.3,1,1.91,1.91,0,0,1-.59.7,1.77,1.77,0,0,1-1.91,0,2,2,0,0,1-.59-.7,3.52,3.52,0,0,1-.3-1A7,7,0,0,1,45.43,78.39Zm.67,0c0,.14,0,.29,0,.46a4.6,4.6,0,0,0,.06.52,4.77,4.77,0,0,0,.13.51,2,2,0,0,0,.22.44,1.15,1.15,0,0,0,.35.31,1,1,0,0,0,.48.11,1.06,1.06,0,0,0,.48-.11,1.24,1.24,0,0,0,.34-.31,2,2,0,0,0,.22-.44,3.18,3.18,0,0,0,.13-.51,4.6,4.6,0,0,0,.06-.52c0-.17,0-.32,0-.46s0-.29,0-.46a4.35,4.35,0,0,0-.06-.52,3.18,3.18,0,0,0-.13-.51,2,2,0,0,0-.22-.44,1.24,1.24,0,0,0-.34-.31,1.06,1.06,0,0,0-.48-.11,1,1,0,0,0-.48.11,1.15,1.15,0,0,0-.35.31,2,2,0,0,0-.22.44,4.77,4.77,0,0,0-.13.51,4.35,4.35,0,0,0-.06.52C46.1,78.1,46.1,78.25,46.1,78.39Z"/><path d="M50,76.61a1.12,1.12,0,0,1,.08-.45,1.15,1.15,0,0,1,.25-.37,1.16,1.16,0,0,1,1.62,0,1.15,1.15,0,0,1,.25.37,1.33,1.33,0,0,1,.08.45,1.23,1.23,0,0,1-.08.44,1.15,1.15,0,0,1-.25.37,1.16,1.16,0,0,1-1.62,0,1.15,1.15,0,0,1-.25-.37A1,1,0,0,1,50,76.61Zm.43,0a.52.52,0,0,0,0,.24.72.72,0,0,0,.14.24.63.63,0,0,0,.23.16.64.64,0,0,0,.58,0,.73.73,0,0,0,.23-.16,1,1,0,0,0,.14-.24.69.69,0,0,0,.05-.24.75.75,0,0,0-.19-.48.76.76,0,0,0-.23-.17.64.64,0,0,0-.58,0,.66.66,0,0,0-.23.17.59.59,0,0,0-.14.23A.56.56,0,0,0,50.46,76.61Z"/></g><g id="numeri_fondo_tabella" data-name="numeri fondo tabella"><path d="M131.83,251.42a1.17,1.17,0,0,0-.43-.35,1.19,1.19,0,0,0-.51-.11,1.35,1.35,0,0,0-.55.11,1.08,1.08,0,0,0-.4.3,1.32,1.32,0,0,0-.23.44,1.76,1.76,0,0,0,0,1.08,1.43,1.43,0,0,0,.26.45,1.31,1.31,0,0,0,.39.3,1.27,1.27,0,0,0,.52.1,1.09,1.09,0,0,0,1-.46l.47.44a1.69,1.69,0,0,1-.64.46,2.29,2.29,0,0,1-.78.14,2.22,2.22,0,0,1-.79-.14,1.75,1.75,0,0,1-1-1,2.27,2.27,0,0,1,0-1.57,1.86,1.86,0,0,1,.39-.63,2,2,0,0,1,.61-.41,2,2,0,0,1,.79-.15,2.09,2.09,0,0,1,.79.15,1.59,1.59,0,0,1,.65.45Z"/><path d="M136.21,253.56h0a1.43,1.43,0,0,1-.55.54,1.7,1.7,0,0,1-.89.22,1.8,1.8,0,0,1-.73-.15,1.78,1.78,0,0,1-.6-.41,1.81,1.81,0,0,1-.39-.62,2.06,2.06,0,0,1-.15-.79,2,2,0,0,1,.15-.78,1.88,1.88,0,0,1,.4-.63,1.81,1.81,0,0,1,.62-.41,2.07,2.07,0,0,1,.8-.15,1.72,1.72,0,0,1,.75.17,1.78,1.78,0,0,1,.59.47h0v-2.84h.62v6h-.62Zm0-1.21a1.63,1.63,0,0,0-.09-.55,1.34,1.34,0,0,0-.27-.44,1.37,1.37,0,0,0-.42-.29,1.35,1.35,0,0,0-.55-.11,1.42,1.42,0,0,0-.55.11,1.22,1.22,0,0,0-.41.29,1.34,1.34,0,0,0-.27.44,1.56,1.56,0,0,0,0,1.1,1.25,1.25,0,0,0,.27.44,1.19,1.19,0,0,0,1,.4,1.35,1.35,0,0,0,.55-.1,1.6,1.6,0,0,0,.42-.3,1.25,1.25,0,0,0,.27-.44A1.63,1.63,0,0,0,136.21,252.35Z"/><path d="M140.1,254.57l-.5-.2,2.4-6.15.51.2Z"/><path d="M147.64,254.22H147v-4.8h0l-1,.86-.4-.49,1.52-1.23h.59Z"/><path d="M149.46,251.39a7.07,7.07,0,0,1,.08-1,3.19,3.19,0,0,1,.29-.95,2,2,0,0,1,.59-.7,1.61,1.61,0,0,1,1-.28,1.55,1.55,0,0,1,1,.28,1.91,1.91,0,0,1,.59.7,2.94,2.94,0,0,1,.3.95,6.29,6.29,0,0,1,0,2,2.94,2.94,0,0,1-.3,1,1.91,1.91,0,0,1-.59.7,1.49,1.49,0,0,1-1,.28,1.54,1.54,0,0,1-1-.28,2,2,0,0,1-.59-.7,3.19,3.19,0,0,1-.29-1A7.07,7.07,0,0,1,149.46,251.39Zm.67,0c0,.14,0,.29,0,.47a4.43,4.43,0,0,0,.06.51,4.7,4.7,0,0,0,.12.51,2,2,0,0,0,.23.44,1.12,1.12,0,0,0,.34.31,1.1,1.1,0,0,0,1,0,1.12,1.12,0,0,0,.34-.31,1.65,1.65,0,0,0,.22-.44,3.18,3.18,0,0,0,.13-.51,4.43,4.43,0,0,0,.06-.51c0-.18,0-.33,0-.47s0-.29,0-.46a4.6,4.6,0,0,0-.06-.52,3.18,3.18,0,0,0-.13-.51,1.65,1.65,0,0,0-.22-.44,1.08,1.08,0,0,0-.34-.3,1,1,0,0,0-1,0,1.08,1.08,0,0,0-.34.3,2,2,0,0,0-.23.44,4.7,4.7,0,0,0-.12.51,4.6,4.6,0,0,0-.06.52C150.14,251.1,150.13,251.25,150.13,251.39Z"/><path d="M153.91,251.39a5.85,5.85,0,0,1,.08-1,3.19,3.19,0,0,1,.29-.95,2,2,0,0,1,.59-.7,1.61,1.61,0,0,1,1-.28,1.55,1.55,0,0,1,.95.28,1.91,1.91,0,0,1,.59.7,3.2,3.2,0,0,1,.3.95,6.29,6.29,0,0,1,0,2,3.2,3.2,0,0,1-.3,1,1.91,1.91,0,0,1-.59.7,1.49,1.49,0,0,1-.95.28,1.54,1.54,0,0,1-1-.28,2,2,0,0,1-.59-.7,3.19,3.19,0,0,1-.29-1A5.85,5.85,0,0,1,153.91,251.39Zm.67,0a4,4,0,0,0,0,.47,4.43,4.43,0,0,0,.06.51,3.14,3.14,0,0,0,.12.51,1.67,1.67,0,0,0,.23.44,1,1,0,0,0,.34.31.9.9,0,0,0,.48.11,1,1,0,0,0,.48-.11,1.24,1.24,0,0,0,.34-.31,1.65,1.65,0,0,0,.22-.44,3.18,3.18,0,0,0,.13-.51,4.43,4.43,0,0,0,.06-.51c0-.18,0-.33,0-.47s0-.29,0-.46a4.6,4.6,0,0,0-.06-.52,3.18,3.18,0,0,0-.13-.51,1.65,1.65,0,0,0-.22-.44,1.21,1.21,0,0,0-.34-.3,1,1,0,0,0-.48-.12.9.9,0,0,0-.48.12,1,1,0,0,0-.34.3,1.67,1.67,0,0,0-.23.44,3.14,3.14,0,0,0-.12.51,4.6,4.6,0,0,0-.06.52A3.78,3.78,0,0,0,154.58,251.39Z"/><path d="M158.31,251.39a5.85,5.85,0,0,1,.08-1,3.19,3.19,0,0,1,.29-.95,2,2,0,0,1,.59-.7,1.61,1.61,0,0,1,1-.28,1.55,1.55,0,0,1,1,.28,1.91,1.91,0,0,1,.59.7,3.2,3.2,0,0,1,.3.95,6.29,6.29,0,0,1,0,2,3.2,3.2,0,0,1-.3,1,1.91,1.91,0,0,1-.59.7,1.49,1.49,0,0,1-1,.28,1.54,1.54,0,0,1-1-.28,2,2,0,0,1-.59-.7,3.19,3.19,0,0,1-.29-1A5.85,5.85,0,0,1,158.31,251.39Zm.67,0c0,.14,0,.29,0,.47a4.43,4.43,0,0,0,.06.51,3.14,3.14,0,0,0,.12.51,1.67,1.67,0,0,0,.23.44,1,1,0,0,0,.34.31.9.9,0,0,0,.48.11,1,1,0,0,0,.48-.11,1.24,1.24,0,0,0,.34-.31,1.65,1.65,0,0,0,.22-.44,3.18,3.18,0,0,0,.13-.51,4.43,4.43,0,0,0,.06-.51c0-.18,0-.33,0-.47s0-.29,0-.46a4.6,4.6,0,0,0-.06-.52,3.18,3.18,0,0,0-.13-.51,1.65,1.65,0,0,0-.22-.44,1.21,1.21,0,0,0-.34-.3,1,1,0,0,0-.48-.12.9.9,0,0,0-.48.12,1,1,0,0,0-.34.3,1.67,1.67,0,0,0-.23.44,3.14,3.14,0,0,0-.12.51,4.6,4.6,0,0,0-.06.52C159,251.1,159,251.25,159,251.39Z"/><path d="M165.32,248.18H166v6h-.63Z"/><path d="M167.19,251.37c0-.17,0-.33,0-.48s0-.29,0-.41h.59c0,.1,0,.2,0,.3v.32h0a.91.91,0,0,1,.18-.27,1.64,1.64,0,0,1,.28-.23,1.5,1.5,0,0,1,.36-.16,1.44,1.44,0,0,1,.43-.06,1.52,1.52,0,0,1,.51.08,1.36,1.36,0,0,1,.34.18.93.93,0,0,1,.21.24,1.64,1.64,0,0,1,.12.22,1.78,1.78,0,0,1,.48-.53,1.27,1.27,0,0,1,.71-.19,1.88,1.88,0,0,1,.67.11,1.1,1.1,0,0,1,.44.31,1.37,1.37,0,0,1,.24.5,2.59,2.59,0,0,1,.07.65v2.27h-.62V252a2.33,2.33,0,0,0,0-.37,1,1,0,0,0-.15-.33.71.71,0,0,0-.28-.23,1,1,0,0,0-.45-.09,1,1,0,0,0-.37.08,1,1,0,0,0-.31.22,1.13,1.13,0,0,0-.21.35,1.33,1.33,0,0,0-.07.45v2.16h-.63V252.1a1.62,1.62,0,0,0-.17-.88A.6.6,0,0,0,169,251a1.18,1.18,0,0,0-.52.1.88.88,0,0,0-.36.3,1.14,1.14,0,0,0-.21.46,2.1,2.1,0,0,0-.07.58v1.82h-.62Z"/><line class="cls-1" x1="38.21" y1="253" x2="46.2" y2="253"/><path d="M235.17,251a1.66,1.66,0,0,0-.63-.52,1.93,1.93,0,0,0-.79-.17,2.13,2.13,0,0,0-.87.19,2.16,2.16,0,0,0-.68.52,2.58,2.58,0,0,0-.45.75,2.69,2.69,0,0,0-.16.89,2.79,2.79,0,0,0,.16.93,2.41,2.41,0,0,0,.45.74,2,2,0,0,0,.68.5,1.92,1.92,0,0,0,.87.19,2,2,0,0,0,1.64-.8l.51.43a2.38,2.38,0,0,1-.93.75,3,3,0,0,1-1.22.24,2.85,2.85,0,0,1-1.13-.22,2.82,2.82,0,0,1-.92-.62,3,3,0,0,1-.61-.94,3.33,3.33,0,0,1-.22-1.2,3.19,3.19,0,0,1,.21-1.16,2.9,2.9,0,0,1,.6-1,3.08,3.08,0,0,1,.91-.63,3,3,0,0,1,2.27,0,2,2,0,0,1,.89.68Z"/><path d="M239,253.1l0,0a1.35,1.35,0,0,1-.37.13,2.87,2.87,0,0,1-.39,0,1.68,1.68,0,0,1-.68-.13,1.5,1.5,0,0,1-.55-.36,1.92,1.92,0,0,1-.36-.56,2.11,2.11,0,0,1-.12-.73,1.75,1.75,0,0,1,.14-.74,1.63,1.63,0,0,1,.4-.56,1.79,1.79,0,0,1,.6-.35,2.36,2.36,0,0,1,.75-.12,2.27,2.27,0,0,1,.75.12,1.94,1.94,0,0,1,.61.35,1.49,1.49,0,0,1,.39.56,1.75,1.75,0,0,1,.15.74,2.19,2.19,0,0,1,0,.46c0,.14-.07.27-.11.4a2.53,2.53,0,0,1-.18.37,3.35,3.35,0,0,1-.21.36l-1.5,2.4h-.79Zm-.6-.43a1.51,1.51,0,0,0,.48-.08,1.28,1.28,0,0,0,.39-.24,1.12,1.12,0,0,0,.26-.38,1.27,1.27,0,0,0,.1-.5,1.26,1.26,0,0,0-.1-.49,1,1,0,0,0-.26-.38,1,1,0,0,0-.39-.24,1.33,1.33,0,0,0-1,0,.88.88,0,0,0-.38.24,1.19,1.19,0,0,0-.27.38,1.26,1.26,0,0,0-.09.49,1.28,1.28,0,0,0,.09.5,1.31,1.31,0,0,0,.27.38,1.12,1.12,0,0,0,.38.24A1.51,1.51,0,0,0,238.35,252.67Z"/><path d="M240.88,252.62a7.07,7.07,0,0,1,.08-1,2.88,2.88,0,0,1,.3-.94,2,2,0,0,1,.58-.71,1.84,1.84,0,0,1,1.92,0,2,2,0,0,1,.58.71,2.88,2.88,0,0,1,.3.94,7.07,7.07,0,0,1,.08,1,7,7,0,0,1-.08,1,2.86,2.86,0,0,1-.3.95,2,2,0,0,1-.58.71,1.84,1.84,0,0,1-1.92,0,2,2,0,0,1-.58-.71,2.86,2.86,0,0,1-.3-.95A7,7,0,0,1,240.88,252.62Zm.67,0c0,.14,0,.3,0,.47a4.43,4.43,0,0,0,.06.51,2.72,2.72,0,0,0,.13.51,1.51,1.51,0,0,0,.22.44,1.12,1.12,0,0,0,.34.31,1,1,0,0,0,1,0,1.12,1.12,0,0,0,.34-.31,1.51,1.51,0,0,0,.22-.44,2.72,2.72,0,0,0,.13-.51,4.43,4.43,0,0,0,.06-.51c0-.17,0-.33,0-.47s0-.29,0-.46a4.88,4.88,0,0,0-.06-.52,2.83,2.83,0,0,0-.13-.5,1.4,1.4,0,0,0-.22-.44,1.12,1.12,0,0,0-.34-.31,1,1,0,0,0-1,0,1.12,1.12,0,0,0-.34.31,1.4,1.4,0,0,0-.22.44,2.83,2.83,0,0,0-.13.5,4.88,4.88,0,0,0-.06.52C241.56,252.33,241.55,252.49,241.55,252.62Z"/><path d="M247.78,255.8l-.51-.2,2.41-6.14.5.19Z"/><path d="M257.1,251a1.66,1.66,0,0,0-.63-.52,1.92,1.92,0,0,0-.78-.17,2.06,2.06,0,0,0-.87.19,2.16,2.16,0,0,0-.68.52,2.21,2.21,0,0,0-.45.75,2.46,2.46,0,0,0-.16.89,2.56,2.56,0,0,0,.16.93,2.2,2.2,0,0,0,.44.74,2.1,2.1,0,0,0,.68.5,2,2,0,0,0,.88.19,2,2,0,0,0,.93-.21,2,2,0,0,0,.71-.59l.5.43a2.29,2.29,0,0,1-.92.75,3,3,0,0,1-1.22.24,2.8,2.8,0,0,1-2.05-.84,2.82,2.82,0,0,1-.61-.94,3.13,3.13,0,0,1-.22-1.2,3.19,3.19,0,0,1,.21-1.16,2.75,2.75,0,0,1,.6-1,3,3,0,0,1,.91-.63,2.93,2.93,0,0,1,1.16-.23,3,3,0,0,1,1.11.21,2,2,0,0,1,.89.68Z"/><path d="M258.46,254.69l2.14-2.08.35-.36a1.75,1.75,0,0,0,.25-.32,1,1,0,0,0,.15-.32,1.46,1.46,0,0,0,0-.38,1,1,0,0,0-.08-.4.93.93,0,0,0-.22-.3,1.13,1.13,0,0,0-.73-.26,1,1,0,0,0-.71.25,1.11,1.11,0,0,0-.36.66l-.73-.07a1.91,1.91,0,0,1,.21-.61,1.28,1.28,0,0,1,.39-.44,1.77,1.77,0,0,1,.53-.27,2.25,2.25,0,0,1,.64-.09,2.09,2.09,0,0,1,.67.1,1.53,1.53,0,0,1,.55.29,1.47,1.47,0,0,1,.37.48,1.39,1.39,0,0,1,.14.66,1.91,1.91,0,0,1-.09.61,1.8,1.8,0,0,1-.25.5,2.86,2.86,0,0,1-.35.43l-.41.41-1.75,1.64h2.89v.63h-3.65Z"/><path d="M266.35,250.42l-2.26,5h-.76l2.3-5H262.9v-.63h3.45Z"/><path d="M267.26,252.62a7.07,7.07,0,0,1,.08-1,3.45,3.45,0,0,1,.3-.94,2,2,0,0,1,.59-.71,1.82,1.82,0,0,1,1.91,0,2,2,0,0,1,.59.71,3.45,3.45,0,0,1,.3.94,7,7,0,0,1,.07,1,6.92,6.92,0,0,1-.07,1,3.41,3.41,0,0,1-.3.95,2,2,0,0,1-.59.71,1.82,1.82,0,0,1-1.91,0,2,2,0,0,1-.59-.71,3.41,3.41,0,0,1-.3-.95A7,7,0,0,1,267.26,252.62Zm.68,0c0,.14,0,.3,0,.47a4.43,4.43,0,0,0,.06.51,2.72,2.72,0,0,0,.13.51,1.53,1.53,0,0,0,.23.44,1,1,0,0,0,.34.31.89.89,0,0,0,.47.12,1,1,0,0,0,.49-.12,1.08,1.08,0,0,0,.33-.31,1.53,1.53,0,0,0,.23-.44,2.72,2.72,0,0,0,.13-.51,4.43,4.43,0,0,0,.06-.51c0-.17,0-.33,0-.47s0-.29,0-.46a4.88,4.88,0,0,0-.06-.52,2.83,2.83,0,0,0-.13-.5,1.41,1.41,0,0,0-.23-.44,1.08,1.08,0,0,0-.33-.31,1,1,0,0,0-.49-.12.89.89,0,0,0-.47.12,1,1,0,0,0-.34.31,1.41,1.41,0,0,0-.23.44,2.83,2.83,0,0,0-.13.5,4.88,4.88,0,0,0-.06.52C267.94,252.33,267.94,252.49,267.94,252.62Z"/><path d="M52.87,251a1.55,1.55,0,0,0-.63-.51,1.82,1.82,0,0,0-.79-.18,2,2,0,0,0-.87.2,2.13,2.13,0,0,0-.68.51,2.58,2.58,0,0,0-.45.75,2.67,2.67,0,0,0,0,1.82,2.29,2.29,0,0,0,.45.74,1.88,1.88,0,0,0,.68.5,1.92,1.92,0,0,0,.87.19,2,2,0,0,0,.93-.21,2.07,2.07,0,0,0,.71-.58l.51.42a2.38,2.38,0,0,1-.93.75,3,3,0,0,1-1.22.24,2.85,2.85,0,0,1-1.13-.22,2.82,2.82,0,0,1-.92-.62,3,3,0,0,1-.61-.94,3.27,3.27,0,0,1-.22-1.19,3.2,3.2,0,0,1,.21-1.17,3,3,0,0,1,.6-.95,3.08,3.08,0,0,1,.91-.63,3,3,0,0,1,2.27,0,2,2,0,0,1,.89.68Z"/><path d="M54.13,252.62a7,7,0,0,1,.08-1,3.11,3.11,0,0,1,.3-1,1.94,1.94,0,0,1,.59-.71,1.55,1.55,0,0,1,.95-.27,1.6,1.6,0,0,1,1,.27,2,2,0,0,1,.59.71,3.1,3.1,0,0,1,.29,1,5.77,5.77,0,0,1,.08,1,5.85,5.85,0,0,1-.08,1,3.13,3.13,0,0,1-.29.94,2,2,0,0,1-.59.71,1.6,1.6,0,0,1-1,.27,1.55,1.55,0,0,1-.95-.27,1.94,1.94,0,0,1-.59-.71,3.14,3.14,0,0,1-.3-.94A7.07,7.07,0,0,1,54.13,252.62Zm.67,0c0,.13,0,.29,0,.46a4.88,4.88,0,0,0,.06.52,2.83,2.83,0,0,0,.13.5,1.4,1.4,0,0,0,.22.44,1.1,1.1,0,0,0,.34.31,1,1,0,0,0,.48.12.9.9,0,0,0,.48-.12.92.92,0,0,0,.34-.31,1.41,1.41,0,0,0,.23-.44,2.8,2.8,0,0,0,.12-.5,4.88,4.88,0,0,0,.06-.52,3.86,3.86,0,0,0,0-.46,3.94,3.94,0,0,0,0-.47,4.43,4.43,0,0,0-.06-.51,2.71,2.71,0,0,0-.12-.51,1.53,1.53,0,0,0-.23-.44,1,1,0,0,0-.34-.31.9.9,0,0,0-.48-.12,1,1,0,0,0-.48.12,1.24,1.24,0,0,0-.34.31,1.51,1.51,0,0,0-.22.44,2.72,2.72,0,0,0-.13.51,4.43,4.43,0,0,0-.06.51C54.81,252.32,54.8,252.48,54.8,252.62Z"/><path d="M61,255.79l-.51-.2,2.41-6.14.51.19Z"/><path d="M70.36,251a1.52,1.52,0,0,0-.64-.51,1.78,1.78,0,0,0-.78-.18,2,2,0,0,0-.87.2,2.13,2.13,0,0,0-.68.51,2.58,2.58,0,0,0-.45.75,2.51,2.51,0,0,0-.16.9,2.54,2.54,0,0,0,.16.92,2.46,2.46,0,0,0,.44.74,2.09,2.09,0,0,0,1.56.69,2,2,0,0,0,.93-.21,2.07,2.07,0,0,0,.71-.58l.5.42a2.29,2.29,0,0,1-.92.75,3,3,0,0,1-1.22.24,2.93,2.93,0,0,1-1.14-.22,2.88,2.88,0,0,1-.91-.62,3,3,0,0,1-.61-.94,3.07,3.07,0,0,1-.22-1.19,3.2,3.2,0,0,1,.21-1.17,2.84,2.84,0,0,1,.6-.95,3,3,0,0,1,.91-.63,2.93,2.93,0,0,1,1.16-.23,3,3,0,0,1,1.11.21,2,2,0,0,1,.89.68Z"/><path d="M74.2,255.45h-.68v-4.8h0l-1,.85-.4-.48,1.52-1.24h.59Z"/><path d="M76.37,251.17a1.33,1.33,0,0,1,.13-.61,1.2,1.2,0,0,1,.34-.46,1.44,1.44,0,0,1,.51-.3,1.92,1.92,0,0,1,1.28,0,1.44,1.44,0,0,1,.51.3,1.32,1.32,0,0,1,.34.46,1.48,1.48,0,0,1,.12.61,1.44,1.44,0,0,1-.06.4,1.41,1.41,0,0,1-.18.37,1.18,1.18,0,0,1-.3.29,1,1,0,0,1-.38.19h0a1.44,1.44,0,0,1,.46.19,1.35,1.35,0,0,1,.35.32,1.67,1.67,0,0,1,.23.44,1.7,1.7,0,0,1,.08.51,1.74,1.74,0,0,1-.14.69,1.46,1.46,0,0,1-.39.52,1.47,1.47,0,0,1-.57.33,2.35,2.35,0,0,1-1.42,0,1.59,1.59,0,0,1-.58-.33,1.43,1.43,0,0,1-.38-.52,1.74,1.74,0,0,1-.14-.69,1.7,1.7,0,0,1,.08-.51,1.65,1.65,0,0,1,.22-.44,1.59,1.59,0,0,1,.36-.32,1.44,1.44,0,0,1,.46-.19h0a1.18,1.18,0,0,1-.39-.19,1.33,1.33,0,0,1-.29-.29,1.41,1.41,0,0,1-.18-.37A1.16,1.16,0,0,1,76.37,251.17Zm.48,2.67a1.14,1.14,0,0,0,.09.46,1.21,1.21,0,0,0,.24.35,1.16,1.16,0,0,0,.36.23A1.13,1.13,0,0,0,78,255a1,1,0,0,0,.44-.09,1,1,0,0,0,.36-.23,1.07,1.07,0,0,0,.25-.35,1.36,1.36,0,0,0,0-.92,1.07,1.07,0,0,0-.25-.35,1,1,0,0,0-.36-.23,1,1,0,0,0-.44-.09,1.13,1.13,0,0,0-.45.09,1.16,1.16,0,0,0-.36.23,1.21,1.21,0,0,0-.24.35A1.14,1.14,0,0,0,76.85,253.84ZM77,251.2a.92.92,0,0,0,.26.67.93.93,0,0,0,.69.27.9.9,0,0,0,.68-.27,1,1,0,0,0,0-1.34.9.9,0,0,0-.68-.27.93.93,0,0,0-.69.27A.92.92,0,0,0,77,251.2Z"/><path d="M80.52,252.62a5.77,5.77,0,0,1,.08-1,3.1,3.1,0,0,1,.29-1,2,2,0,0,1,.59-.71,1.6,1.6,0,0,1,1-.27,1.55,1.55,0,0,1,1,.27,1.94,1.94,0,0,1,.59.71,3.41,3.41,0,0,1,.3,1,7,7,0,0,1,.08,1,7.07,7.07,0,0,1-.08,1,3.45,3.45,0,0,1-.3.94,1.94,1.94,0,0,1-.59.71,1.55,1.55,0,0,1-1,.27,1.6,1.6,0,0,1-1-.27,2,2,0,0,1-.59-.71,3.13,3.13,0,0,1-.29-.94A5.85,5.85,0,0,1,80.52,252.62Zm.67,0a3.86,3.86,0,0,0,0,.46c0,.17,0,.34.05.52a4.07,4.07,0,0,0,.13.5,1.41,1.41,0,0,0,.23.44.92.92,0,0,0,.34.31.9.9,0,0,0,.48.12,1,1,0,0,0,.48-.12,1.1,1.1,0,0,0,.34-.31,1.65,1.65,0,0,0,.22-.44,2.83,2.83,0,0,0,.13-.5,4.88,4.88,0,0,0,.06-.52c0-.17,0-.33,0-.46s0-.3,0-.47a4.43,4.43,0,0,0-.06-.51,2.72,2.72,0,0,0-.13-.51,1.81,1.81,0,0,0-.22-.44,1.24,1.24,0,0,0-.34-.31,1,1,0,0,0-.48-.12.9.9,0,0,0-.48.12,1,1,0,0,0-.34.31,1.53,1.53,0,0,0-.23.44,3.8,3.8,0,0,0-.13.51c0,.17,0,.34-.05.51A3.94,3.94,0,0,0,81.19,252.62Z"/><line class="cls-2" x1="214.49" y1="253.42" x2="215.03" y2="253.42"/><line class="cls-2" x1="217.76" y1="253.42" x2="218.3" y2="253.42"/><line class="cls-2" x1="221.02" y1="253.42" x2="221.56" y2="253.42"/><line class="cls-2" x1="224.29" y1="253.42" x2="224.83" y2="253.42"/><line class="cls-2" x1="227.55" y1="253.42" x2="228.09" y2="253.42"/></g><g id="GLO_BALL"><g id="Glo_Ball_Basic2_F3026000"><path d="M54.48,12.24h4.39V13H55.32v2.34h3.3v.78h-3.3v3.18h-.84Z"/><path d="M61.2,15.24h.26a3.44,3.44,0,0,0,.54,0,1.28,1.28,0,0,0,.52-.17,1,1,0,0,0,.39-.37,1.14,1.14,0,0,0,.16-.65,1.09,1.09,0,0,0-.34-.85,1.21,1.21,0,0,0-.87-.32,1.51,1.51,0,0,0-.78.2,1.36,1.36,0,0,0-.52.59l-.81-.31a1.78,1.78,0,0,1,.81-.9,2.56,2.56,0,0,1,1.24-.3,2.63,2.63,0,0,1,.8.12,2.19,2.19,0,0,1,.68.35,1.88,1.88,0,0,1,.46.58,1.85,1.85,0,0,1,.17.8,1.6,1.6,0,0,1-.34,1,1.69,1.69,0,0,1-.87.61v0a1.86,1.86,0,0,1,.6.22,1.77,1.77,0,0,1,.46.4,1.8,1.8,0,0,1,.29.53,2.19,2.19,0,0,1,.1.63,2,2,0,0,1-.19.89,1.9,1.9,0,0,1-.51.64,2,2,0,0,1-.75.39,2.9,2.9,0,0,1-.89.13,2.68,2.68,0,0,1-1.41-.35A2,2,0,0,1,59.53,18l.85-.28a1.3,1.3,0,0,0,1.43,1,1.5,1.5,0,0,0,.56-.1,1.31,1.31,0,0,0,.45-.28,1.35,1.35,0,0,0,.31-.44,1.32,1.32,0,0,0,.12-.57,1.18,1.18,0,0,0-.16-.65,1.1,1.1,0,0,0-.41-.42,1.8,1.8,0,0,0-.57-.23,3.59,3.59,0,0,0-.65-.07H61.2Z"/><path d="M65.1,15.78a7.88,7.88,0,0,1,.1-1.25,3.79,3.79,0,0,1,.37-1.18,2.41,2.41,0,0,1,.73-.88,2.22,2.22,0,0,1,2.39,0,2.44,2.44,0,0,1,.74.88,4.07,4.07,0,0,1,.37,1.18,9.26,9.26,0,0,1,.1,1.25A9.14,9.14,0,0,1,69.8,17a4,4,0,0,1-.37,1.19,2.44,2.44,0,0,1-.74.88,2.27,2.27,0,0,1-2.39,0,2.41,2.41,0,0,1-.73-.88A3.77,3.77,0,0,1,65.2,17,7.79,7.79,0,0,1,65.1,15.78Zm.84,0c0,.18,0,.37,0,.58s0,.43.07.65a4.15,4.15,0,0,0,.16.63,2.19,2.19,0,0,0,.28.55,1.45,1.45,0,0,0,.43.39,1.21,1.21,0,0,0,.6.14,1.27,1.27,0,0,0,.6-.14,1.42,1.42,0,0,0,.42-.39,1.9,1.9,0,0,0,.28-.55A3.23,3.23,0,0,0,69,17c0-.22.06-.43.08-.65s0-.4,0-.58,0-.36,0-.58,0-.43-.08-.64a3.53,3.53,0,0,0-.16-.64,2,2,0,0,0-.28-.55A1.27,1.27,0,0,0,68.1,13a1.16,1.16,0,0,0-.6-.15,1.11,1.11,0,0,0-.6.15,1.3,1.3,0,0,0-.43.38,2.37,2.37,0,0,0-.28.55,4.61,4.61,0,0,0-.16.64c0,.21-.06.43-.07.64S65.94,15.61,65.94,15.78Z"/><path d="M70.78,18.36l2.67-2.6c.16-.16.31-.3.44-.44a3.35,3.35,0,0,0,.31-.4,1.38,1.38,0,0,0,.19-.41,1.68,1.68,0,0,0,.06-.47,1.18,1.18,0,0,0-.1-.5,1.13,1.13,0,0,0-.28-.37,1,1,0,0,0-.41-.24,1.35,1.35,0,0,0-.5-.09,1.32,1.32,0,0,0-.89.31,1.36,1.36,0,0,0-.45.82l-.91-.08a2.28,2.28,0,0,1,.26-.76,1.9,1.9,0,0,1,.49-.56,2.21,2.21,0,0,1,.67-.33,2.53,2.53,0,0,1,.8-.12,2.83,2.83,0,0,1,.83.13,1.93,1.93,0,0,1,.68.36,1.63,1.63,0,0,1,.47.6,1.84,1.84,0,0,1,.18.83,2.24,2.24,0,0,1-.12.76,2.31,2.31,0,0,1-.31.63,3.71,3.71,0,0,1-.44.54c-.16.17-.33.34-.51.5l-2.18,2.05v0h3.61v.78H70.78Z"/><path d="M77.88,15.19l0,0a1.91,1.91,0,0,1,.46-.16,3,3,0,0,1,.49-.05,2.38,2.38,0,0,1,.85.16,1.9,1.9,0,0,1,.68.46,2.11,2.11,0,0,1,.45.7,2.44,2.44,0,0,1,.16.9,2.27,2.27,0,0,1-.18.93,2,2,0,0,1-.5.7,2.3,2.3,0,0,1-.76.44,2.83,2.83,0,0,1-.93.15,2.89,2.89,0,0,1-.94-.15,2.16,2.16,0,0,1-.75-.44,1.87,1.87,0,0,1-.5-.7,2.27,2.27,0,0,1-.18-.93,2.76,2.76,0,0,1,.19-1.07,6.25,6.25,0,0,1,.48-.92l1.88-3h1Zm.74.53a1.68,1.68,0,0,0-.6.11,1.44,1.44,0,0,0-.49.3,1.56,1.56,0,0,0-.32.47,1.59,1.59,0,0,0-.12.62,1.54,1.54,0,0,0,.12.63,1.56,1.56,0,0,0,.32.47,1.44,1.44,0,0,0,.49.3,1.68,1.68,0,0,0,.6.1,1.72,1.72,0,0,0,.6-.1,1.39,1.39,0,0,0,.48-.3,1.43,1.43,0,0,0,.33-.47,1.54,1.54,0,0,0,.12-.63A1.59,1.59,0,0,0,80,16.6a1.43,1.43,0,0,0-.33-.47,1.39,1.39,0,0,0-.48-.3A1.73,1.73,0,0,0,78.62,15.72Z"/><path d="M81.78,15.78a7.88,7.88,0,0,1,.1-1.25,3.79,3.79,0,0,1,.37-1.18,2.41,2.41,0,0,1,.73-.88,2.22,2.22,0,0,1,2.39,0,2.44,2.44,0,0,1,.74.88,4.07,4.07,0,0,1,.37,1.18,9.26,9.26,0,0,1,.1,1.25,9.14,9.14,0,0,1-.1,1.25,4,4,0,0,1-.37,1.19,2.44,2.44,0,0,1-.74.88,2.27,2.27,0,0,1-2.39,0,2.41,2.41,0,0,1-.73-.88A3.77,3.77,0,0,1,81.88,17,7.79,7.79,0,0,1,81.78,15.78Zm.84,0c0,.18,0,.37,0,.58s0,.43.07.65a4.15,4.15,0,0,0,.16.63,2.19,2.19,0,0,0,.28.55,1.45,1.45,0,0,0,.43.39,1.21,1.21,0,0,0,.6.14,1.27,1.27,0,0,0,.6-.14,1.42,1.42,0,0,0,.42-.39,1.9,1.9,0,0,0,.28-.55,3.23,3.23,0,0,0,.16-.63c0-.22.06-.43.08-.65s0-.4,0-.58,0-.36,0-.58,0-.43-.08-.64a3.53,3.53,0,0,0-.16-.64,2,2,0,0,0-.28-.55,1.27,1.27,0,0,0-.42-.38,1.16,1.16,0,0,0-.6-.15,1.11,1.11,0,0,0-.6.15,1.3,1.3,0,0,0-.43.38,2.37,2.37,0,0,0-.28.55,4.61,4.61,0,0,0-.16.64c0,.21-.06.43-.07.64S82.62,15.61,82.62,15.78Z"/><path d="M87.34,15.78a7.88,7.88,0,0,1,.1-1.25,3.79,3.79,0,0,1,.37-1.18,2.41,2.41,0,0,1,.73-.88,2.22,2.22,0,0,1,2.39,0,2.44,2.44,0,0,1,.74.88A4.07,4.07,0,0,1,92,14.53a9.26,9.26,0,0,1,.1,1.25A9.14,9.14,0,0,1,92,17a4,4,0,0,1-.37,1.19,2.44,2.44,0,0,1-.74.88,2.27,2.27,0,0,1-2.39,0,2.41,2.41,0,0,1-.73-.88A3.77,3.77,0,0,1,87.44,17,7.79,7.79,0,0,1,87.34,15.78Zm.84,0c0,.18,0,.37,0,.58s0,.43.07.65a4.15,4.15,0,0,0,.16.63,2.19,2.19,0,0,0,.28.55,1.45,1.45,0,0,0,.43.39,1.21,1.21,0,0,0,.6.14,1.27,1.27,0,0,0,.6-.14,1.42,1.42,0,0,0,.42-.39,1.9,1.9,0,0,0,.28-.55A3.23,3.23,0,0,0,91.2,17c0-.22.06-.43.08-.65s0-.4,0-.58,0-.36,0-.58,0-.43-.08-.64a3.53,3.53,0,0,0-.16-.64,2,2,0,0,0-.28-.55,1.27,1.27,0,0,0-.42-.38,1.16,1.16,0,0,0-.6-.15,1.11,1.11,0,0,0-.6.15,1.3,1.3,0,0,0-.43.38,2.37,2.37,0,0,0-.28.55,4.61,4.61,0,0,0-.16.64c0,.21-.06.43-.07.64S88.18,15.61,88.18,15.78Z"/><path d="M92.9,15.78a7.88,7.88,0,0,1,.1-1.25,3.79,3.79,0,0,1,.37-1.18,2.41,2.41,0,0,1,.73-.88,2.22,2.22,0,0,1,2.39,0,2.44,2.44,0,0,1,.74.88,4.07,4.07,0,0,1,.37,1.18,9.26,9.26,0,0,1,.1,1.25A9.14,9.14,0,0,1,97.6,17a4,4,0,0,1-.37,1.19,2.44,2.44,0,0,1-.74.88,2.27,2.27,0,0,1-2.39,0,2.41,2.41,0,0,1-.73-.88A3.77,3.77,0,0,1,93,17,7.79,7.79,0,0,1,92.9,15.78Zm.84,0c0,.18,0,.37,0,.58s0,.43.07.65a4.15,4.15,0,0,0,.16.63,2.19,2.19,0,0,0,.28.55,1.45,1.45,0,0,0,.43.39,1.21,1.21,0,0,0,.6.14,1.27,1.27,0,0,0,.6-.14,1.42,1.42,0,0,0,.42-.39,1.9,1.9,0,0,0,.28-.55,3.23,3.23,0,0,0,.16-.63c0-.22.06-.43.08-.65s0-.4,0-.58,0-.36,0-.58,0-.43-.08-.64a3.53,3.53,0,0,0-.16-.64,2,2,0,0,0-.28-.55A1.27,1.27,0,0,0,95.9,13a1.16,1.16,0,0,0-.6-.15,1.11,1.11,0,0,0-.6.15,1.3,1.3,0,0,0-.43.38,2.37,2.37,0,0,0-.28.55,4.61,4.61,0,0,0-.16.64c0,.21-.06.43-.07.64S93.74,15.61,93.74,15.78Z"/><path d="M98.08,20.07h5v.5h-5Z"/><path d="M103.58,18.36l2.67-2.6c.16-.16.31-.3.44-.44a3.35,3.35,0,0,0,.31-.4,1.38,1.38,0,0,0,.19-.41,1.68,1.68,0,0,0,.06-.47,1.35,1.35,0,0,0-.1-.5,1.13,1.13,0,0,0-.28-.37,1,1,0,0,0-.41-.24,1.35,1.35,0,0,0-.5-.09,1.32,1.32,0,0,0-.89.31,1.36,1.36,0,0,0-.45.82l-.91-.08a2.07,2.07,0,0,1,.26-.76,1.9,1.9,0,0,1,.49-.56,2.21,2.21,0,0,1,.67-.33,2.53,2.53,0,0,1,.8-.12,2.83,2.83,0,0,1,.83.13,1.93,1.93,0,0,1,.68.36,1.63,1.63,0,0,1,.47.6,1.84,1.84,0,0,1,.18.83,2.24,2.24,0,0,1-.12.76,2.31,2.31,0,0,1-.31.63,3.71,3.71,0,0,1-.44.54c-.16.17-.33.34-.51.5l-2.18,2.05v0h3.61v.78h-4.56Z"/><path d="M113.38,13h-2.89l0,1.91a1.5,1.5,0,0,1,.44-.13,2.63,2.63,0,0,1,.47,0,2.25,2.25,0,0,1,.92.18,2.1,2.1,0,0,1,1.18,1.23,2.73,2.73,0,0,1,.16.92,2.33,2.33,0,0,1-.19,1,2.13,2.13,0,0,1-.51.74,2.21,2.21,0,0,1-.77.47,2.52,2.52,0,0,1-1,.17,2.18,2.18,0,0,1-1.31-.35,2.34,2.34,0,0,1-.78-.94l.84-.32a1.58,1.58,0,0,0,.52.65,1.37,1.37,0,0,0,.8.24,1.44,1.44,0,0,0,.59-.11,1.37,1.37,0,0,0,.48-.33,1.65,1.65,0,0,0,.33-.52,1.78,1.78,0,0,0,.12-.67,1.67,1.67,0,0,0-.14-.69,1.42,1.42,0,0,0-.37-.5,1.49,1.49,0,0,0-.55-.31,2.26,2.26,0,0,0-.69-.11,2.18,2.18,0,0,0-.74.13,3.45,3.45,0,0,0-.7.31l.07-3.68h3.71Z"/><path d="M114.58,15.78a7.88,7.88,0,0,1,.1-1.25,3.79,3.79,0,0,1,.37-1.18,2.41,2.41,0,0,1,.73-.88,2.22,2.22,0,0,1,2.39,0,2.44,2.44,0,0,1,.74.88,4.07,4.07,0,0,1,.37,1.18,9.26,9.26,0,0,1,.1,1.25,9.14,9.14,0,0,1-.1,1.25,4,4,0,0,1-.37,1.19,2.44,2.44,0,0,1-.74.88,2.27,2.27,0,0,1-2.39,0,2.41,2.41,0,0,1-.73-.88,3.77,3.77,0,0,1-.37-1.19A7.79,7.79,0,0,1,114.58,15.78Zm.84,0c0,.18,0,.37,0,.58s0,.43.07.65a4.15,4.15,0,0,0,.16.63,2.19,2.19,0,0,0,.28.55,1.45,1.45,0,0,0,.43.39,1.21,1.21,0,0,0,.6.14,1.27,1.27,0,0,0,.6-.14,1.42,1.42,0,0,0,.42-.39,1.9,1.9,0,0,0,.28-.55,3.23,3.23,0,0,0,.16-.63c0-.22.06-.43.08-.65s0-.4,0-.58,0-.36,0-.58,0-.43-.08-.64a3.53,3.53,0,0,0-.16-.64,2,2,0,0,0-.28-.55,1.27,1.27,0,0,0-.42-.38,1.16,1.16,0,0,0-.6-.15,1.11,1.11,0,0,0-.6.15,1.3,1.3,0,0,0-.43.38,2.37,2.37,0,0,0-.28.55,4.61,4.61,0,0,0-.16.64c0,.21-.06.43-.07.64S115.42,15.61,115.42,15.78Z"/><path d="M119.82,12.24h.93l1.61,5.88h0l1.74-5.88h.94l1.73,5.88h0l1.64-5.88h.88l-2.08,7.08h-.91l-1.75-6h0l-1.76,6h-.92Z"/><path d="M133,12.24h.84v3h3.78v-3h.84v7.08h-.84V16h-3.78v3.3H133Z"/><path d="M140.27,12.24h.84v6.3h3.24v.78h-4.08Z"/><rect class="cls-3" x="54.6" y="42.06" width="189.86" height="189.86"/><circle class="cls-4" cx="149.53" cy="136.94" r="21.06"/><path d="M151.58,164.28l2.13-2.08a4,4,0,0,0,.36-.35,3.14,3.14,0,0,0,.25-.32,1.16,1.16,0,0,0,.19-.7.84.84,0,0,0-.08-.4.73.73,0,0,0-.22-.3,1,1,0,0,0-.32-.2,1.35,1.35,0,0,0-.41-.06,1,1,0,0,0-.71.25,1.08,1.08,0,0,0-.36.65l-.73-.06a2,2,0,0,1,.21-.62,1.68,1.68,0,0,1,.4-.44,1.56,1.56,0,0,1,.53-.27,2.2,2.2,0,0,1,.64-.09,2,2,0,0,1,.66.1,1.7,1.7,0,0,1,.55.29,1.5,1.5,0,0,1,.38.48,1.6,1.6,0,0,1,.14.67,1.64,1.64,0,0,1-.1.6,1.93,1.93,0,0,1-.24.5,5.2,5.2,0,0,1-.35.44c-.14.13-.27.27-.42.4l-1.74,1.64v0h2.89v.62h-3.65Z"/><path d="M155.88,162.22a7.07,7.07,0,0,1,.08-1,3.52,3.52,0,0,1,.3-.95,1.91,1.91,0,0,1,.59-.7,1.49,1.49,0,0,1,1-.28,1.54,1.54,0,0,1,1,.28,2,2,0,0,1,.59.7,3.19,3.19,0,0,1,.29.95,6.29,6.29,0,0,1,0,2,3.19,3.19,0,0,1-.29.95,2,2,0,0,1-.59.7,1.61,1.61,0,0,1-1,.28,1.55,1.55,0,0,1-1-.28,1.91,1.91,0,0,1-.59-.7,3.52,3.52,0,0,1-.3-.95A7.07,7.07,0,0,1,155.88,162.22Zm.67,0c0,.14,0,.29,0,.46a4.6,4.6,0,0,0,.06.52,3.18,3.18,0,0,0,.13.51,2,2,0,0,0,.22.44,1.24,1.24,0,0,0,.34.31,1.06,1.06,0,0,0,.48.11,1,1,0,0,0,.48-.11,1,1,0,0,0,.34-.31,1.67,1.67,0,0,0,.23-.44,4.77,4.77,0,0,0,.13-.51l.06-.52c0-.17,0-.32,0-.46s0-.29,0-.47l-.06-.51a4.77,4.77,0,0,0-.13-.51,1.67,1.67,0,0,0-.23-.44,1,1,0,0,0-.34-.31,1,1,0,0,0-.48-.11,1.06,1.06,0,0,0-.48.11,1.24,1.24,0,0,0-.34.31,2,2,0,0,0-.22.44,3.18,3.18,0,0,0-.13.51,4.43,4.43,0,0,0-.06.51C156.56,161.93,156.55,162.08,156.55,162.22Z"/><circle class="cls-4" cx="149.53" cy="136.94" r="42.17" transform="translate(-20 25.72) rotate(-9.22)"/><path d="M154.53,184.25h.82v.62h-.82v1.3h-.67v-1.3h-2.4v-.75l2.25-3.62h.82Zm-.67-3h0l-1.8,3h1.82Z"/><path d="M155.88,183.33a7.07,7.07,0,0,1,.08-1,3.64,3.64,0,0,1,.3-1,2,2,0,0,1,.59-.7,1.55,1.55,0,0,1,1-.27,1.6,1.6,0,0,1,1,.27,2.1,2.1,0,0,1,.59.7,3.28,3.28,0,0,1,.29,1,5.85,5.85,0,0,1,.08,1,5.77,5.77,0,0,1-.08,1,3.1,3.1,0,0,1-.29.95,1.92,1.92,0,0,1-.59.7,1.54,1.54,0,0,1-1,.28,1.49,1.49,0,0,1-1-.28,1.83,1.83,0,0,1-.59-.7,3.41,3.41,0,0,1-.3-.95A7,7,0,0,1,155.88,183.33Zm.67,0c0,.14,0,.3,0,.47a4.43,4.43,0,0,0,.06.51,2.72,2.72,0,0,0,.13.51,1.81,1.81,0,0,0,.22.44,1.24,1.24,0,0,0,.34.31,1,1,0,0,0,.48.11.9.9,0,0,0,.48-.11,1,1,0,0,0,.34-.31,1.53,1.53,0,0,0,.23-.44,3.8,3.8,0,0,0,.13-.51l.06-.51c0-.17,0-.33,0-.47s0-.29,0-.46l-.06-.52a4.77,4.77,0,0,0-.13-.51,1.47,1.47,0,0,0-.23-.43.92.92,0,0,0-.34-.31.9.9,0,0,0-.48-.12,1,1,0,0,0-.48.12,1.1,1.1,0,0,0-.34.31,1.74,1.74,0,0,0-.22.43,3.18,3.18,0,0,0-.13.51,4.88,4.88,0,0,0-.06.52C156.56,183,156.55,183.19,156.55,183.33Z"/><circle class="cls-4" cx="149.53" cy="136.94" r="63.23"/><path d="M152.81,203.92l0,0a1.24,1.24,0,0,1,.37-.13,1.84,1.84,0,0,1,.39,0,1.72,1.72,0,0,1,.68.13,1.42,1.42,0,0,1,.54.36,1.68,1.68,0,0,1,.36.57,1.81,1.81,0,0,1,.13.72,1.78,1.78,0,0,1-.15.74,1.48,1.48,0,0,1-.4.56,1.79,1.79,0,0,1-.6.35,2.27,2.27,0,0,1-.75.12,2.36,2.36,0,0,1-.75-.12,1.79,1.79,0,0,1-.6-.35,1.74,1.74,0,0,1-.4-.56,1.78,1.78,0,0,1-.14-.74,2.24,2.24,0,0,1,.15-.86A5.19,5.19,0,0,1,152,204l1.51-2.39h.78Zm.59.43a1.27,1.27,0,0,0-.48.08,1.12,1.12,0,0,0-.38.24,1.19,1.19,0,0,0-.27.38,1.31,1.31,0,0,0-.09.5,1.35,1.35,0,0,0,.09.5,1.26,1.26,0,0,0,.27.37.88.88,0,0,0,.38.24,1.33,1.33,0,0,0,1,0,1,1,0,0,0,.39-.24,1.08,1.08,0,0,0,.26-.37,1.35,1.35,0,0,0,.1-.5,1.31,1.31,0,0,0-.1-.5,1,1,0,0,0-.26-.38,1.23,1.23,0,0,0-.87-.32Z"/><path d="M155.88,204.39a7.07,7.07,0,0,1,.08-1,3.45,3.45,0,0,1,.3-.94,1.94,1.94,0,0,1,.59-.71,1.55,1.55,0,0,1,1-.27,1.6,1.6,0,0,1,1,.27,2,2,0,0,1,.59.71,3.13,3.13,0,0,1,.29.94,5.85,5.85,0,0,1,.08,1,5.77,5.77,0,0,1-.08,1,3.1,3.1,0,0,1-.29,1,2,2,0,0,1-.59.71,1.6,1.6,0,0,1-1,.27,1.55,1.55,0,0,1-1-.27,1.94,1.94,0,0,1-.59-.71,3.41,3.41,0,0,1-.3-1A7,7,0,0,1,155.88,204.39Zm.67,0c0,.14,0,.3,0,.47a4.43,4.43,0,0,0,.06.51,2.72,2.72,0,0,0,.13.51,1.81,1.81,0,0,0,.22.44,1.24,1.24,0,0,0,.34.31,1,1,0,0,0,.48.12.9.9,0,0,0,.48-.12,1,1,0,0,0,.34-.31,1.53,1.53,0,0,0,.23-.44,3.8,3.8,0,0,0,.13-.51l.06-.51c0-.17,0-.33,0-.47s0-.29,0-.46l-.06-.52a4.07,4.07,0,0,0-.13-.5,1.41,1.41,0,0,0-.23-.44,1,1,0,0,0-.34-.31.9.9,0,0,0-.48-.12,1,1,0,0,0-.48.12,1.24,1.24,0,0,0-.34.31,1.65,1.65,0,0,0-.22.44,2.83,2.83,0,0,0-.13.5,4.88,4.88,0,0,0-.06.52C156.56,204.1,156.55,204.25,156.55,204.39Z"/><circle class="cls-4" cx="149.53" cy="136.94" r="84.35"/><path d="M151.79,224.06a1.48,1.48,0,0,1,.12-.61,1.41,1.41,0,0,1,.34-.46,1.53,1.53,0,0,1,.51-.3,1.91,1.91,0,0,1,.64-.11,1.87,1.87,0,0,1,.64.11,1.44,1.44,0,0,1,.51.3,1.28,1.28,0,0,1,.34.46,1.33,1.33,0,0,1,.13.61,1.39,1.39,0,0,1-.06.4,1.85,1.85,0,0,1-.19.37,1.33,1.33,0,0,1-.29.29,1.18,1.18,0,0,1-.39.19h0a1.35,1.35,0,0,1,.46.19,1.59,1.59,0,0,1,.36.32,1.65,1.65,0,0,1,.22.44,1.7,1.7,0,0,1,.08.51,1.67,1.67,0,0,1-.14.69,1.56,1.56,0,0,1-.38.53,1.73,1.73,0,0,1-.58.32,2.07,2.07,0,0,1-.71.11,2.11,2.11,0,0,1-.71-.11,1.59,1.59,0,0,1-.57-.32,1.74,1.74,0,0,1-.39-.53,1.67,1.67,0,0,1-.14-.69,1.7,1.7,0,0,1,.08-.51,1.67,1.67,0,0,1,.23-.44,1.53,1.53,0,0,1,.35-.32,1.44,1.44,0,0,1,.46-.19h0a1,1,0,0,1-.38-.19,1,1,0,0,1-.29-.29,1.44,1.44,0,0,1-.19-.37A1.39,1.39,0,0,1,151.79,224.06Zm.48,2.67a1.34,1.34,0,0,0,.08.46,1.12,1.12,0,0,0,.25.35,1,1,0,0,0,.36.23,1,1,0,0,0,.44.09,1.13,1.13,0,0,0,.45-.09,1.16,1.16,0,0,0,.36-.23,1.09,1.09,0,0,0,.24-.35,1.14,1.14,0,0,0,.09-.46,1.18,1.18,0,0,0-.09-.46,1.21,1.21,0,0,0-.24-.35,1.16,1.16,0,0,0-.36-.23,1.13,1.13,0,0,0-.45-.09,1,1,0,0,0-.44.09,1,1,0,0,0-.36.23,1.24,1.24,0,0,0-.25.35A1.39,1.39,0,0,0,152.27,226.73Zm.19-2.64a.88.88,0,0,0,.26.67.9.9,0,0,0,.68.27.94.94,0,1,0,0-1.87.89.89,0,0,0-.94.93Z"/><path d="M155.88,225.51a7,7,0,0,1,.08-1,3.41,3.41,0,0,1,.3-.95,1.94,1.94,0,0,1,.59-.71,1.55,1.55,0,0,1,1-.27,1.6,1.6,0,0,1,1,.27,2,2,0,0,1,.59.71,3.1,3.1,0,0,1,.29.95,5.77,5.77,0,0,1,.08,1,5.85,5.85,0,0,1-.08,1,3.28,3.28,0,0,1-.29,1,2.1,2.1,0,0,1-.59.7,1.6,1.6,0,0,1-1,.27,1.55,1.55,0,0,1-1-.27,2,2,0,0,1-.59-.7,3.64,3.64,0,0,1-.3-1A7.07,7.07,0,0,1,155.88,225.51Zm.67,0c0,.14,0,.29,0,.46a4.88,4.88,0,0,0,.06.52,3.18,3.18,0,0,0,.13.51,1.74,1.74,0,0,0,.22.43,1.1,1.1,0,0,0,.34.31,1,1,0,0,0,.48.12.9.9,0,0,0,.48-.12.92.92,0,0,0,.34-.31,1.47,1.47,0,0,0,.23-.43,4.77,4.77,0,0,0,.13-.51L159,226c0-.17,0-.32,0-.46s0-.3,0-.47l-.06-.51a3.8,3.8,0,0,0-.13-.51,1.53,1.53,0,0,0-.23-.44,1,1,0,0,0-.34-.31.9.9,0,0,0-.48-.11,1,1,0,0,0-.48.11,1.24,1.24,0,0,0-.34.31,1.81,1.81,0,0,0-.22.44,2.72,2.72,0,0,0-.13.51,4.43,4.43,0,0,0-.06.51C156.56,225.21,156.55,225.37,156.55,225.51Z"/><line class="cls-4" x1="54.6" y1="137" x2="244.52" y2="137"/><line class="cls-4" x1="149.53" y1="231.93" x2="149.53" y2="42.01"/><line class="cls-4" x1="94.77" y1="42.01" x2="204.34" y2="231.93"/><line class="cls-4" x1="94.77" y1="231.93" x2="204.34" y2="42.01"/><line class="cls-4" x1="54.6" y1="82.19" x2="244.52" y2="191.75"/><line class="cls-4" x1="54.6" y1="191.75" x2="244.52" y2="82.19"/><line class="cls-5" x1="149.53" y1="169.67" x2="150.72" y2="170.64"/><line class="cls-5" x1="150.72" y1="170.64" x2="151.96" y2="171.39"/><line class="cls-5" x1="151.96" y1="171.39" x2="153.31" y2="172.69"/><line class="cls-5" x1="153.31" y1="172.69" x2="154.71" y2="173.82"/><line class="cls-5" x1="154.71" y1="173.82" x2="156.44" y2="175.98"/><line class="cls-5" x1="156.44" y1="175.98" x2="158.44" y2="178.9"/><line class="cls-5" x1="158.44" y1="178.9" x2="161.03" y2="183.06"/><line class="cls-5" x1="161.03" y1="183.06" x2="163.57" y2="185.81"/><line class="cls-5" x1="163.57" y1="185.81" x2="166.22" y2="188.24"/><line class="cls-5" x1="166.22" y1="188.24" x2="168.81" y2="189.92"/><line class="cls-5" x1="168.81" y1="189.92" x2="171.35" y2="190.89"/><line class="cls-5" x1="171.35" y1="190.89" x2="173.61" y2="191.05"/><line class="cls-5" x1="173.61" y1="191.05" x2="175.94" y2="191.05"/><line class="cls-5" x1="175.94" y1="191.05" x2="178.04" y2="190.62"/><line class="cls-5" x1="178.04" y1="190.62" x2="180.15" y2="189.97"/><line class="cls-5" x1="180.15" y1="189.97" x2="182.09" y2="189.05"/><line class="cls-5" x1="182.09" y1="189.05" x2="183.87" y2="187.81"/><line class="cls-5" x1="183.87" y1="187.81" x2="185.66" y2="186.68"/><line class="cls-5" x1="185.66" y1="186.68" x2="187.44" y2="185.43"/><line class="cls-5" x1="187.44" y1="185.43" x2="189.17" y2="184.19"/><line class="cls-5" x1="189.17" y1="184.19" x2="190.84" y2="182.84"/><line class="cls-5" x1="190.84" y1="182.84" x2="192.46" y2="181.38"/><line class="cls-5" x1="192.46" y1="181.38" x2="194.03" y2="179.93"/><line class="cls-5" x1="194.03" y1="179.93" x2="195.59" y2="178.41"/><line class="cls-5" x1="195.59" y1="178.41" x2="197.05" y2="176.79"/><line class="cls-5" x1="197.05" y1="176.79" x2="198.51" y2="175.17"/><line class="cls-5" x1="198.51" y1="175.17" x2="199.86" y2="173.5"/><line class="cls-5" x1="199.86" y1="173.5" x2="201.15" y2="171.77"/><line class="cls-5" x1="201.15" y1="171.77" x2="202.45" y2="169.99"/><line class="cls-5" x1="202.45" y1="169.99" x2="203.64" y2="168.15"/><line class="cls-5" x1="203.64" y1="168.15" x2="204.77" y2="166.32"/><line class="cls-5" x1="204.77" y1="166.32" x2="205.8" y2="164.37"/><line class="cls-5" x1="205.8" y1="164.37" x2="206.82" y2="162.43"/><line class="cls-5" x1="206.82" y1="162.43" x2="207.74" y2="160.49"/><line class="cls-5" x1="207.74" y1="160.49" x2="208.66" y2="158.43"/><line class="cls-5" x1="208.66" y1="158.43" x2="209.47" y2="156.44"/><line class="cls-5" x1="209.47" y1="156.44" x2="210.23" y2="154.33"/><line class="cls-5" x1="210.23" y1="154.33" x2="210.93" y2="152.22"/><line class="cls-5" x1="210.93" y1="152.22" x2="211.52" y2="150.12"/><line class="cls-5" x1="211.52" y1="150.12" x2="212.06" y2="147.96"/><line class="cls-5" x1="212.06" y1="147.96" x2="212.6" y2="145.8"/><line class="cls-5" x1="212.6" y1="145.8" x2="213.09" y2="143.64"/><line class="cls-5" x1="213.09" y1="143.64" x2="213.47" y2="141.42"/><line class="cls-5" x1="213.47" y1="141.42" x2="213.79" y2="139.21"/><line class="cls-5" x1="213.79" y1="139.21" x2="214.11" y2="137"/><line class="cls-5" x1="214.11" y1="137" x2="214.38" y2="134.73"/><line class="cls-5" x1="214.38" y1="134.73" x2="214.6" y2="132.46"/><line class="cls-5" x1="214.6" y1="132.46" x2="214.87" y2="130.14"/><line class="cls-5" x1="214.87" y1="130.14" x2="215.09" y2="127.76"/><line class="cls-5" x1="215.09" y1="127.76" x2="215.3" y2="125.39"/><line class="cls-5" x1="215.3" y1="125.39" x2="215.36" y2="123.01"/><line class="cls-5" x1="215.36" y1="123.01" x2="215.41" y2="120.58"/><line class="cls-5" x1="215.41" y1="120.58" x2="215.36" y2="118.1"/><line class="cls-5" x1="215.36" y1="118.1" x2="215.3" y2="115.61"/><line class="cls-5" x1="215.3" y1="115.61" x2="215.09" y2="113.13"/><line class="cls-5" x1="215.09" y1="113.13" x2="214.82" y2="110.59"/><line class="cls-5" x1="214.82" y1="110.59" x2="214.49" y2="108.05"/><line class="cls-5" x1="214.49" y1="108.05" x2="214.01" y2="105.51"/><line class="cls-5" x1="214.01" y1="105.51" x2="213.47" y2="102.98"/><line class="cls-5" x1="213.47" y1="102.98" x2="212.82" y2="100.44"/><line class="cls-5" x1="212.82" y1="100.44" x2="212.06" y2="97.9"/><line class="cls-5" x1="212.06" y1="97.9" x2="211.25" y2="95.36"/><line class="cls-5" x1="211.25" y1="95.36" x2="210.28" y2="92.82"/><line class="cls-5" x1="210.28" y1="92.82" x2="209.25" y2="90.34"/><line class="cls-5" x1="209.25" y1="90.34" x2="208.07" y2="87.86"/><line class="cls-5" x1="208.07" y1="87.86" x2="206.82" y2="85.43"/><line class="cls-5" x1="206.82" y1="85.43" x2="205.42" y2="83"/><line class="cls-5" x1="205.42" y1="83" x2="203.96" y2="80.67"/><line class="cls-5" x1="203.96" y1="80.67" x2="202.34" y2="78.35"/><line class="cls-5" x1="202.34" y1="78.35" x2="200.67" y2="76.08"/><line class="cls-5" x1="200.67" y1="76.08" x2="198.83" y2="73.87"/><line class="cls-5" x1="198.83" y1="73.87" x2="197" y2="71.71"/><line class="cls-5" x1="197" y1="71.71" x2="194.94" y2="69.66"/><line class="cls-5" x1="194.94" y1="69.66" x2="192.84" y2="67.66"/><line class="cls-5" x1="192.84" y1="67.66" x2="190.62" y2="65.82"/><line class="cls-5" x1="190.62" y1="65.82" x2="188.3" y2="64.04"/><line class="cls-5" x1="188.3" y1="64.04" x2="185.93" y2="62.37"/><line class="cls-5" x1="185.93" y1="62.37" x2="183.44" y2="60.8"/><line class="cls-5" x1="183.44" y1="60.8" x2="180.9" y2="59.34"/><line class="cls-5" x1="180.9" y1="59.34" x2="178.26" y2="57.99"/><line class="cls-5" x1="178.26" y1="57.99" x2="175.61" y2="56.81"/><line class="cls-5" x1="175.61" y1="56.81" x2="172.86" y2="55.67"/><line class="cls-5" x1="172.86" y1="55.67" x2="170.05" y2="54.7"/><line class="cls-5" x1="170.05" y1="54.7" x2="167.19" y2="53.84"/><line class="cls-5" x1="167.19" y1="53.84" x2="164.33" y2="53.13"/><line class="cls-5" x1="164.33" y1="53.13" x2="161.41" y2="52.59"/><line class="cls-5" x1="161.41" y1="52.59" x2="158.44" y2="52.16"/><line class="cls-5" x1="158.44" y1="52.16" x2="155.47" y2="51.84"/><line class="cls-5" x1="155.47" y1="51.84" x2="152.5" y2="51.73"/><line class="cls-5" x1="152.5" y1="51.73" x2="149.53" y2="51.68"/><line class="cls-5" x1="149.53" y1="169.67" x2="148.4" y2="170.85"/><line class="cls-5" x1="148.4" y1="170.85" x2="147.15" y2="171.83"/><line class="cls-5" x1="147.15" y1="171.83" x2="145.75" y2="173.34"/><line class="cls-5" x1="145.75" y1="173.34" x2="144.24" y2="174.8"/><line class="cls-5" x1="144.24" y1="174.8" x2="142.51" y2="177.12"/><line class="cls-5" x1="142.51" y1="177.12" x2="140.46" y2="179.98"/><line class="cls-5" x1="140.46" y1="179.98" x2="137.87" y2="183.98"/><line class="cls-5" x1="137.87" y1="183.98" x2="135.33" y2="186.62"/><line class="cls-5" x1="135.33" y1="186.62" x2="132.68" y2="188.94"/><line class="cls-5" x1="132.68" y1="188.94" x2="130.09" y2="190.46"/><line class="cls-5" x1="130.09" y1="190.46" x2="127.61" y2="191.32"/><line class="cls-5" x1="127.61" y1="191.32" x2="125.34" y2="191.37"/><line class="cls-5" x1="125.34" y1="191.37" x2="123.07" y2="191.27"/><line class="cls-5" x1="123.07" y1="191.27" x2="121.02" y2="190.73"/><line class="cls-5" x1="121.02" y1="190.73" x2="118.97" y2="189.97"/><line class="cls-5" x1="118.97" y1="189.97" x2="117.02" y2="189"/><line class="cls-5" x1="117.02" y1="189" x2="115.29" y2="187.76"/><line class="cls-5" x1="115.29" y1="187.76" x2="113.51" y2="186.57"/><line class="cls-5" x1="113.51" y1="186.57" x2="111.78" y2="185.33"/><line class="cls-5" x1="111.78" y1="185.33" x2="110.11" y2="183.98"/><line class="cls-5" x1="110.11" y1="183.98" x2="108.49" y2="182.57"/><line class="cls-5" x1="108.49" y1="182.57" x2="106.92" y2="181.11"/><line class="cls-5" x1="106.92" y1="181.11" x2="105.41" y2="179.6"/><line class="cls-5" x1="105.41" y1="179.6" x2="103.95" y2="178.04"/><line class="cls-5" x1="103.95" y1="178.04" x2="102.55" y2="176.42"/><line class="cls-5" x1="102.55" y1="176.42" x2="101.2" y2="174.74"/><line class="cls-5" x1="101.2" y1="174.74" x2="99.9" y2="173.07"/><line class="cls-5" x1="99.9" y1="173.07" x2="98.66" y2="171.29"/><line class="cls-5" x1="98.66" y1="171.29" x2="97.53" y2="169.45"/><line class="cls-5" x1="97.53" y1="169.45" x2="96.45" y2="167.61"/><line class="cls-5" x1="96.45" y1="167.61" x2="95.42" y2="165.72"/><line class="cls-5" x1="95.42" y1="165.72" x2="94.45" y2="163.83"/><line class="cls-5" x1="94.45" y1="163.83" x2="93.53" y2="161.89"/><line class="cls-5" x1="93.53" y1="161.89" x2="92.72" y2="159.89"/><line class="cls-5" x1="92.72" y1="159.89" x2="91.97" y2="157.95"/><line class="cls-5" x1="91.97" y1="157.95" x2="91.21" y2="155.9"/><line class="cls-5" x1="91.21" y1="155.9" x2="90.56" y2="153.84"/><line class="cls-5" x1="90.56" y1="153.84" x2="89.97" y2="151.79"/><line class="cls-5" x1="89.97" y1="151.79" x2="89.37" y2="149.74"/><line class="cls-5" x1="89.37" y1="149.74" x2="88.89" y2="147.63"/><line class="cls-5" x1="88.89" y1="147.63" x2="88.46" y2="145.53"/><line class="cls-5" x1="88.46" y1="145.53" x2="88.08" y2="143.42"/><line class="cls-5" x1="88.08" y1="143.42" x2="87.75" y2="141.26"/><line class="cls-5" x1="87.75" y1="141.26" x2="87.43" y2="139.1"/><line class="cls-5" x1="87.43" y1="139.1" x2="87.16" y2="137"/><line class="cls-5" x1="87.16" y1="137" x2="86.89" y2="134.78"/><line class="cls-5" x1="86.89" y1="134.78" x2="86.62" y2="132.57"/><line class="cls-5" x1="86.62" y1="132.57" x2="86.4" y2="130.35"/><line class="cls-5" x1="86.4" y1="130.35" x2="86.13" y2="128.09"/><line class="cls-5" x1="86.13" y1="128.09" x2="85.97" y2="125.76"/><line class="cls-5" x1="85.97" y1="125.76" x2="85.86" y2="123.44"/><line class="cls-5" x1="85.86" y1="123.44" x2="85.86" y2="121.12"/><line class="cls-5" x1="85.86" y1="121.12" x2="85.86" y2="118.74"/><line class="cls-5" x1="85.86" y1="118.74" x2="85.97" y2="116.31"/><line class="cls-5" x1="85.97" y1="116.31" x2="86.13" y2="113.88"/><line class="cls-5" x1="86.13" y1="113.88" x2="86.4" y2="111.45"/><line class="cls-5" x1="86.4" y1="111.45" x2="86.67" y2="108.97"/><line class="cls-5" x1="86.67" y1="108.97" x2="87.05" y2="106.49"/><line class="cls-5" x1="87.05" y1="106.49" x2="87.54" y2="104"/><line class="cls-5" x1="87.54" y1="104" x2="88.13" y2="101.52"/><line class="cls-5" x1="88.13" y1="101.52" x2="88.78" y2="98.98"/><line class="cls-5" x1="88.78" y1="98.98" x2="89.54" y2="96.5"/><line class="cls-5" x1="89.54" y1="96.5" x2="90.45" y2="94.01"/><line class="cls-5" x1="90.45" y1="94.01" x2="91.37" y2="91.53"/><line class="cls-5" x1="91.37" y1="91.53" x2="92.45" y2="89.1"/><line class="cls-5" x1="92.45" y1="89.1" x2="93.64" y2="86.61"/><line class="cls-5" x1="93.64" y1="86.61" x2="94.94" y2="84.24"/><line class="cls-5" x1="94.94" y1="84.24" x2="96.34" y2="81.86"/><line class="cls-5" x1="96.34" y1="81.86" x2="97.85" y2="79.54"/><line class="cls-5" x1="97.85" y1="79.54" x2="99.47" y2="77.27"/><line class="cls-5" x1="99.47" y1="77.27" x2="101.2" y2="75.06"/><line class="cls-5" x1="101.2" y1="75.06" x2="102.98" y2="72.9"/><line class="cls-5" x1="102.98" y1="72.9" x2="104.93" y2="70.79"/><line class="cls-5" x1="104.93" y1="70.79" x2="106.98" y2="68.79"/><line class="cls-5" x1="106.98" y1="68.79" x2="109.08" y2="66.85"/><line class="cls-5" x1="109.08" y1="66.85" x2="111.3" y2="65.01"/><line class="cls-5" x1="111.3" y1="65.01" x2="113.62" y2="63.29"/><line class="cls-5" x1="113.62" y1="63.29" x2="116.05" y2="61.67"/><line class="cls-5" x1="116.05" y1="61.67" x2="118.53" y2="60.15"/><line class="cls-5" x1="118.53" y1="60.15" x2="121.07" y2="58.7"/><line class="cls-5" x1="121.07" y1="58.7" x2="123.72" y2="57.45"/><line class="cls-5" x1="123.72" y1="57.45" x2="126.47" y2="56.32"/><line class="cls-5" x1="126.47" y1="56.32" x2="129.23" y2="55.29"/><line class="cls-5" x1="129.23" y1="55.29" x2="132.03" y2="54.32"/><line class="cls-5" x1="132.03" y1="54.32" x2="134.84" y2="53.51"/><line class="cls-5" x1="134.84" y1="53.51" x2="137.76" y2="52.86"/><line class="cls-5" x1="137.76" y1="52.86" x2="140.67" y2="52.32"/><line class="cls-5" x1="140.67" y1="52.32" x2="143.64" y2="52"/><line class="cls-5" x1="143.64" y1="52" x2="146.61" y2="51.78"/><line class="cls-5" x1="146.61" y1="51.78" x2="149.53" y2="51.68"/><line class="cls-5" x1="149.53" y1="169.67" x2="149.75" y2="169.72"/><line class="cls-5" x1="150.93" y1="170.1" x2="151.15" y2="170.15"/><line class="cls-5" x1="152.34" y1="170.58" x2="152.55" y2="170.69"/><line class="cls-5" x1="153.69" y1="171.23" x2="153.9" y2="171.34"/><line class="cls-5" x1="154.93" y1="172.1" x2="155.09" y2="172.31"/><line class="cls-5" x1="155.96" y1="173.28" x2="155.96" y2="173.28"/><line class="cls-5" x1="155.96" y1="173.28" x2="156.12" y2="173.5"/><line class="cls-5" x1="156.87" y1="174.58" x2="157.04" y2="174.8"/><line class="cls-5" x1="157.79" y1="175.82" x2="157.85" y2="175.93"/><line class="cls-5" x1="157.85" y1="175.93" x2="157.9" y2="176.04"/><line class="cls-5" x1="158.55" y1="177.12" x2="158.66" y2="177.33"/><line class="cls-5" x1="159.3" y1="178.41" x2="159.41" y2="178.63"/><line class="cls-5" x1="160.06" y1="179.71" x2="160.17" y2="179.93"/><line class="cls-5" x1="160.98" y1="180.95" x2="161.14" y2="181.11"/><line class="cls-5" x1="162" y1="182.09" x2="162.17" y2="182.3"/><line class="cls-5" x1="163.08" y1="183.27" x2="163.25" y2="183.44"/><line class="cls-5" x1="164.22" y1="184.35" x2="164.38" y2="184.52"/><line class="cls-5" x1="165.35" y1="185.38" x2="165.57" y2="185.54"/><line class="cls-5" x1="166.65" y1="186.19" x2="166.86" y2="186.35"/><line class="cls-5" x1="167.94" y1="186.95" x2="168.16" y2="187.05"/><line class="cls-5" x1="169.35" y1="187.49" x2="169.56" y2="187.59"/><line class="cls-5" x1="170.81" y1="187.81" x2="171.08" y2="187.81"/><line class="cls-5" x1="172.37" y1="187.86" x2="172.59" y2="187.81"/><line class="cls-5" x1="173.88" y1="187.76" x2="174.1" y2="187.7"/><line class="cls-5" x1="175.34" y1="187.38" x2="175.56" y2="187.32"/><line class="cls-5" x1="176.75" y1="186.89" x2="176.96" y2="186.78"/><line class="cls-5" x1="178.15" y1="186.3" x2="178.37" y2="186.14"/><line class="cls-5" x1="179.5" y1="185.49" x2="179.72" y2="185.38"/><line class="cls-5" x1="180.69" y1="184.52" x2="180.85" y2="184.35"/><line class="cls-5" x1="181.88" y1="183.54" x2="182.04" y2="183.38"/><line class="cls-5" x1="183.06" y1="182.57" x2="183.28" y2="182.41"/><line class="cls-5" x1="184.25" y1="181.55" x2="184.31" y2="181.49"/><line class="cls-5" x1="184.31" y1="181.49" x2="184.41" y2="181.38"/><line class="cls-5" x1="185.39" y1="180.52" x2="185.55" y2="180.36"/><line class="cls-5" x1="186.52" y1="179.44" x2="186.74" y2="179.28"/><line class="cls-5" x1="187.65" y1="178.36" x2="187.82" y2="178.2"/><line class="cls-5" x1="188.73" y1="177.23" x2="188.9" y2="177.06"/><line class="cls-5" x1="189.76" y1="176.09" x2="189.92" y2="175.93"/><line class="cls-5" x1="190.79" y1="174.9" x2="190.95" y2="174.74"/><line class="cls-5" x1="191.81" y1="173.72" x2="191.97" y2="173.5"/><line class="cls-5" x1="192.78" y1="172.47" x2="192.95" y2="172.26"/><line class="cls-5" x1="193.7" y1="171.23" x2="193.86" y2="171.07"/><line class="cls-5" x1="194.62" y1="170.04" x2="194.78" y2="169.83"/><line class="cls-5" x1="195.48" y1="168.75" x2="195.65" y2="168.53"/><line class="cls-5" x1="196.35" y1="167.45" x2="196.51" y2="167.24"/><line class="cls-5" x1="197.21" y1="166.16" x2="197.32" y2="165.94"/><line class="cls-5" x1="198.02" y1="164.86" x2="198.13" y2="164.64"/><line class="cls-5" x1="198.78" y1="163.56" x2="198.89" y2="163.35"/><line class="cls-5" x1="199.53" y1="162.21" x2="199.64" y2="162"/><line class="cls-5" x1="200.24" y1="160.86" x2="200.34" y2="160.65"/><line class="cls-5" x1="200.88" y1="159.51" x2="200.99" y2="159.3"/><line class="cls-5" x1="201.59" y1="158.16" x2="201.64" y2="158"/><line class="cls-5" x1="201.64" y1="158" x2="201.64" y2="157.95"/><line class="cls-5" x1="202.13" y1="156.81" x2="202.23" y2="156.6"/><line class="cls-5" x1="202.72" y1="155.41" x2="202.83" y2="155.19"/><line class="cls-5" x1="203.31" y1="154.01" x2="203.37" y2="153.79"/><line class="cls-5" x1="203.8" y1="152.6" x2="203.85" y2="152.49"/><line class="cls-5" x1="203.85" y1="152.49" x2="203.91" y2="152.39"/><line class="cls-5" x1="204.29" y1="151.2" x2="204.39" y2="150.98"/><line class="cls-5" x1="204.77" y1="149.79" x2="204.88" y2="149.58"/><line class="cls-5" x1="205.26" y1="148.39" x2="205.31" y2="148.17"/><line class="cls-5" x1="205.69" y1="146.99" x2="205.74" y2="146.88"/><line class="cls-5" x1="205.74" y1="146.88" x2="205.8" y2="146.77"/><line class="cls-5" x1="206.18" y1="145.53" x2="206.23" y2="145.31"/><line class="cls-5" x1="206.55" y1="144.07" x2="206.66" y2="143.85"/><line class="cls-5" x1="206.99" y1="142.61" x2="207.04" y2="142.4"/><line class="cls-5" x1="207.31" y1="141.15" x2="207.36" y2="140.99"/><line class="cls-5" x1="207.36" y1="140.99" x2="207.36" y2="140.94"/><line class="cls-5" x1="207.63" y1="139.7" x2="207.69" y2="139.48"/><line class="cls-5" x1="207.96" y1="138.24" x2="208.01" y2="138.02"/><line class="cls-5" x1="208.28" y1="136.78" x2="208.34" y2="136.56"/><line class="cls-5" x1="208.61" y1="135.32" x2="208.66" y2="135.05"/><line class="cls-5" x1="208.88" y1="133.81" x2="208.93" y2="133.59"/><line class="cls-5" x1="209.2" y1="132.35" x2="209.25" y2="132.14"/><line class="cls-5" x1="209.47" y1="130.89" x2="209.52" y2="130.68"/><line class="cls-5" x1="209.74" y1="129.44" x2="209.79" y2="129.22"/><line class="cls-5" x1="210.01" y1="127.98" x2="210.06" y2="127.71"/><line class="cls-5" x1="210.28" y1="126.41" x2="210.28" y2="126.3"/><line class="cls-5" x1="210.28" y1="126.3" x2="210.28" y2="126.14"/><line class="cls-5" x1="210.44" y1="124.85" x2="210.5" y2="124.63"/><line class="cls-5" x1="210.66" y1="123.33" x2="210.66" y2="123.06"/><line class="cls-5" x1="210.82" y1="121.77" x2="210.82" y2="121.71"/><line class="cls-5" x1="210.82" y1="121.71" x2="210.82" y2="121.5"/><line class="cls-5" x1="210.93" y1="120.2" x2="210.93" y2="119.93"/><line class="cls-5" x1="211.04" y1="118.64" x2="211.04" y2="118.37"/><line class="cls-5" x1="211.09" y1="117.07" x2="211.09" y2="117.02"/><line class="cls-5" x1="211.09" y1="117.02" x2="211.09" y2="116.8"/><line class="cls-5" x1="211.14" y1="115.5" x2="211.14" y2="115.23"/><line class="cls-5" x1="211.14" y1="113.88" x2="211.14" y2="113.61"/><line class="cls-5" x1="211.09" y1="112.32" x2="211.09" y2="112.1"/><line class="cls-5" x1="211.09" y1="112.1" x2="211.09" y2="112.05"/><line class="cls-5" x1="211.04" y1="110.75" x2="211.04" y2="110.48"/><line class="cls-5" x1="210.93" y1="109.19" x2="210.93" y2="108.92"/><line class="cls-5" x1="210.82" y1="107.62" x2="210.77" y2="107.4"/><line class="cls-5" x1="210.66" y1="106.11" x2="210.6" y2="105.89"/><line class="cls-5" x1="210.44" y1="104.6" x2="210.44" y2="104.6"/><line class="cls-5" x1="210.44" y1="104.6" x2="210.39" y2="104.38"/><line class="cls-5" x1="210.17" y1="103.08" x2="210.12" y2="102.81"/><line class="cls-5" x1="209.9" y1="101.52" x2="209.85" y2="101.3"/><line class="cls-5" x1="209.63" y1="100.06" x2="209.58" y2="99.84"/><line class="cls-5" x1="209.31" y1="98.6" x2="209.25" y2="98.39"/><line class="cls-5" x1="208.93" y1="97.14" x2="208.88" y2="96.98"/><line class="cls-5" x1="208.88" y1="96.98" x2="208.88" y2="96.93"/><line class="cls-5" x1="208.5" y1="95.74" x2="208.44" y2="95.52"/><line class="cls-5" x1="208.07" y1="94.34" x2="208.01" y2="94.12"/><line class="cls-5" x1="207.58" y1="92.93" x2="207.53" y2="92.72"/><line class="cls-5" x1="207.09" y1="91.53" x2="207.04" y2="91.31"/><line class="cls-5" x1="206.55" y1="90.12" x2="206.5" y2="89.91"/><line class="cls-5" x1="206.01" y1="88.72" x2="205.91" y2="88.5"/><line class="cls-5" x1="205.37" y1="87.32" x2="205.31" y2="87.1"/><line class="cls-5" x1="204.77" y1="85.97" x2="204.66" y2="85.75"/><line class="cls-5" x1="204.12" y1="84.62" x2="204.02" y2="84.4"/><line class="cls-5" x1="203.42" y1="83.27" x2="203.31" y2="83.05"/><line class="cls-5" x1="202.72" y1="81.92" x2="202.72" y2="81.92"/><line class="cls-5" x1="202.72" y1="81.92" x2="202.61" y2="81.7"/><line class="cls-5" x1="201.91" y1="80.62" x2="201.8" y2="80.4"/><line class="cls-5" x1="201.1" y1="79.32" x2="200.99" y2="79.11"/><line class="cls-5" x1="200.24" y1="78.03" x2="200.07" y2="77.81"/><line class="cls-5" x1="199.32" y1="76.73" x2="199.16" y2="76.52"/><line class="cls-5" x1="198.4" y1="75.49" x2="198.24" y2="75.27"/><line class="cls-5" x1="197.48" y1="74.25" x2="197.32" y2="74.09"/><line class="cls-5" x1="196.51" y1="73.06" x2="196.35" y2="72.84"/><line class="cls-5" x1="195.48" y1="71.82" x2="195.32" y2="71.66"/><line class="cls-5" x1="194.46" y1="70.68" x2="194.35" y2="70.58"/><line class="cls-5" x1="194.35" y1="70.58" x2="194.3" y2="70.52"/><line class="cls-5" x1="193.38" y1="69.55" x2="193.22" y2="69.39"/><line class="cls-5" x1="192.3" y1="68.42" x2="192.14" y2="68.25"/><line class="cls-5" x1="191.16" y1="67.39" x2="191" y2="67.23"/><line class="cls-5" x1="190.03" y1="66.36" x2="189.87" y2="66.2"/><line class="cls-5" x1="188.84" y1="65.34" x2="188.63" y2="65.18"/><line class="cls-5" x1="187.6" y1="64.37" x2="187.44" y2="64.2"/><line class="cls-5" x1="186.41" y1="63.45" x2="186.25" y2="63.29"/><line class="cls-5" x1="185.17" y1="62.53" x2="184.95" y2="62.37"/><line class="cls-5" x1="183.87" y1="61.61" x2="183.66" y2="61.5"/><line class="cls-5" x1="182.58" y1="60.8" x2="182.36" y2="60.69"/><line class="cls-5" x1="181.28" y1="60.05" x2="181.07" y2="59.94"/><line class="cls-5" x1="179.99" y1="59.29" x2="179.77" y2="59.18"/><line class="cls-5" x1="178.64" y1="58.59" x2="178.42" y2="58.48"/><line class="cls-5" x1="177.29" y1="57.89" x2="177.07" y2="57.83"/><line class="cls-5" x1="175.94" y1="57.29" x2="175.72" y2="57.18"/><line class="cls-5" x1="174.59" y1="56.7" x2="174.37" y2="56.59"/><line class="cls-5" x1="173.18" y1="56.1" x2="172.97" y2="56.05"/><line class="cls-5" x1="171.78" y1="55.56" x2="171.56" y2="55.51"/><line class="cls-5" x1="170.37" y1="55.08" x2="170.16" y2="54.97"/><line class="cls-5" x1="168.97" y1="54.59" x2="168.75" y2="54.48"/><line class="cls-5" x1="167.51" y1="54.11" x2="167.3" y2="54.05"/><line class="cls-5" x1="166.05" y1="53.73" x2="165.84" y2="53.67"/><line class="cls-5" x1="164.6" y1="53.35" x2="164.38" y2="53.3"/><line class="cls-5" x1="163.14" y1="53.03" x2="162.92" y2="52.97"/><line class="cls-5" x1="161.68" y1="52.7" x2="161.46" y2="52.65"/><line class="cls-5" x1="160.17" y1="52.43" x2="159.9" y2="52.38"/><line class="cls-5" x1="158.6" y1="52.16" x2="158.44" y2="52.16"/><line class="cls-5" x1="158.44" y1="52.16" x2="158.33" y2="52.16"/><line class="cls-5" x1="157.04" y1="52.05" x2="156.82" y2="52"/><line class="cls-5" x1="155.52" y1="51.89" x2="155.47" y2="51.89"/><line class="cls-5" x1="155.47" y1="51.89" x2="155.25" y2="51.89"/><line class="cls-5" x1="153.96" y1="51.78" x2="153.69" y2="51.78"/><line class="cls-5" x1="152.39" y1="51.73" x2="152.12" y2="51.73"/><line class="cls-5" x1="150.83" y1="51.68" x2="150.56" y2="51.68"/><line class="cls-5" x1="149.26" y1="169.88" x2="149.04" y2="169.99"/><line class="cls-5" x1="147.96" y1="170.58" x2="147.75" y2="170.64"/><line class="cls-5" x1="146.78" y1="171.45" x2="146.61" y2="171.61"/><line class="cls-5" x1="145.86" y1="172.69" x2="145.8" y2="172.8"/><line class="cls-5" x1="145.8" y1="172.8" x2="145.75" y2="172.91"/><line class="cls-5" x1="145.16" y1="174.04" x2="145.05" y2="174.26"/><line class="cls-5" x1="144.51" y1="175.39" x2="144.4" y2="175.61"/><line class="cls-5" x1="143.81" y1="176.74" x2="143.64" y2="176.96"/><line class="cls-5" x1="143" y1="178.04" x2="142.89" y2="178.25"/><line class="cls-5" x1="142.19" y1="179.33" x2="142.08" y2="179.55"/><line class="cls-5" x1="141.32" y1="180.63" x2="141.21" y2="180.84"/><line class="cls-5" x1="140.51" y1="181.87" x2="140.35" y2="182.09"/><line class="cls-5" x1="139.59" y1="183.17" x2="139.43" y2="183.38"/><line class="cls-5" x1="138.68" y1="184.41" x2="138.51" y2="184.62"/><line class="cls-5" x1="137.76" y1="185.65" x2="137.65" y2="185.87"/><line class="cls-5" x1="136.79" y1="186.84" x2="136.62" y2="187"/><line class="cls-5" x1="135.71" y1="187.97" x2="135.54" y2="188.13"/><line class="cls-5" x1="134.63" y1="189.05" x2="134.41" y2="189.21"/><line class="cls-5" x1="133.38" y1="190.02" x2="133.22" y2="190.19"/><line class="cls-5" x1="132.2" y1="191" x2="131.98" y2="191.16"/><line class="cls-5" x1="130.9" y1="191.81" x2="130.68" y2="191.97"/><line class="cls-5" x1="129.55" y1="192.62" x2="129.33" y2="192.72"/><line class="cls-5" x1="128.15" y1="193.16" x2="127.93" y2="193.21"/><line class="cls-5" x1="126.74" y1="193.64" x2="126.69" y2="193.64"/><line class="cls-5" x1="126.69" y1="193.64" x2="126.47" y2="193.64"/><line class="cls-5" x1="125.18" y1="193.75" x2="124.96" y2="193.8"/><line class="cls-5" x1="123.66" y1="193.86" x2="123.39" y2="193.86"/><line class="cls-5" x1="122.1" y1="193.8" x2="121.83" y2="193.8"/><line class="cls-5" x1="120.59" y1="193.53" x2="120.37" y2="193.48"/><line class="cls-5" x1="119.13" y1="193.16" x2="118.91" y2="193.1"/><line class="cls-5" x1="117.67" y1="192.72" x2="117.45" y2="192.67"/><line class="cls-5" x1="116.27" y1="192.18" x2="116.05" y2="192.08"/><line class="cls-5" x1="114.92" y1="191.48" x2="114.7" y2="191.37"/><line class="cls-5" x1="113.62" y1="190.73" x2="113.4" y2="190.62"/><line class="cls-5" x1="112.32" y1="189.97" x2="112.11" y2="189.81"/><line class="cls-5" x1="111.03" y1="189.16" x2="110.81" y2="189"/><line class="cls-5" x1="109.73" y1="188.35" x2="109.52" y2="188.19"/><line class="cls-5" x1="108.44" y1="187.43" x2="108.22" y2="187.27"/><line class="cls-5" x1="107.19" y1="186.51" x2="106.98" y2="186.35"/><line class="cls-5" x1="105.95" y1="185.54" x2="105.9" y2="185.49"/><line class="cls-5" x1="105.9" y1="185.49" x2="105.79" y2="185.38"/><line class="cls-5" x1="104.76" y1="184.57" x2="104.6" y2="184.41"/><line class="cls-5" x1="103.58" y1="183.54" x2="103.41" y2="183.38"/><line class="cls-5" x1="102.44" y1="182.46" x2="102.44" y2="182.46"/><line class="cls-5" x1="102.44" y1="182.46" x2="102.28" y2="182.3"/><line class="cls-5" x1="101.31" y1="181.38" x2="101.09" y2="181.22"/><line class="cls-5" x1="100.17" y1="180.25" x2="100.01" y2="180.09"/><line class="cls-5" x1="99.09" y1="179.12" x2="98.93" y2="178.9"/><line class="cls-5" x1="98.07" y1="177.93" x2="97.91" y2="177.77"/><line class="cls-5" x1="97.1" y1="176.74" x2="96.93" y2="176.52"/><line class="cls-5" x1="96.18" y1="175.5" x2="96.02" y2="175.28"/><line class="cls-5" x1="95.26" y1="174.26" x2="95.1" y2="174.04"/><line class="cls-5" x1="94.34" y1="172.96" x2="94.23" y2="172.74"/><line class="cls-5" x1="93.53" y1="171.66" x2="93.37" y2="171.45"/><line class="cls-5" x1="92.72" y1="170.37" x2="92.56" y2="170.15"/><line class="cls-5" x1="91.91" y1="169.02" x2="91.8" y2="168.8"/><line class="cls-5" x1="91.16" y1="167.67" x2="91.05" y2="167.45"/><line class="cls-5" x1="90.51" y1="166.32" x2="90.4" y2="166.1"/><line class="cls-5" x1="89.86" y1="164.97" x2="89.75" y2="164.75"/><line class="cls-5" x1="89.27" y1="163.62" x2="89.16" y2="163.4"/><line class="cls-5" x1="88.67" y1="162.27" x2="88.56" y2="162.05"/><line class="cls-5" x1="88.08" y1="160.86" x2="88.02" y2="160.65"/><line class="cls-5" x1="87.59" y1="159.46" x2="87.48" y2="159.24"/><line class="cls-5" x1="87.11" y1="158.06" x2="87" y2="157.84"/><line class="cls-5" x1="86.62" y1="156.65" x2="86.57" y2="156.44"/><line class="cls-5" x1="86.19" y1="155.25" x2="86.13" y2="155.14"/><line class="cls-5" x1="86.13" y1="155.14" x2="86.08" y2="155.03"/><line class="cls-5" x1="85.76" y1="153.79" x2="85.7" y2="153.57"/><line class="cls-5" x1="85.38" y1="152.33" x2="85.32" y2="152.12"/><line class="cls-5" x1="85.05" y1="150.87" x2="85" y2="150.66"/><line class="cls-5" x1="84.73" y1="149.42" x2="84.68" y2="149.2"/><line class="cls-5" x1="84.46" y1="147.96" x2="84.41" y2="147.74"/><line class="cls-5" x1="84.19" y1="146.5" x2="84.14" y2="146.28"/><line class="cls-5" x1="83.97" y1="144.99" x2="83.97" y2="144.72"/><line class="cls-5" x1="83.81" y1="143.42" x2="83.76" y2="143.15"/><line class="cls-5" x1="83.65" y1="141.86" x2="83.6" y2="141.64"/><line class="cls-5" x1="83.49" y1="140.34" x2="83.43" y2="140.07"/><line class="cls-5" x1="83.33" y1="138.78" x2="83.33" y2="138.51"/><line class="cls-5" x1="83.22" y1="137.21" x2="83.22" y2="137"/><line class="cls-5" x1="83.22" y1="137" x2="83.22" y2="136.94"/><line class="cls-5" x1="83.16" y1="135.65" x2="83.16" y2="135.38"/><line class="cls-5" x1="83.06" y1="134.08" x2="83.06" y2="133.81"/><line class="cls-5" x1="83" y1="132.51" x2="83" y2="132.35"/><line class="cls-5" x1="83" y1="132.35" x2="83" y2="132.24"/><line class="cls-5" x1="82.95" y1="130.95" x2="82.95" y2="130.68"/><line class="cls-5" x1="82.89" y1="129.38" x2="82.89" y2="129.11"/><line class="cls-5" x1="82.84" y1="127.82" x2="82.84" y2="127.6"/><line class="cls-5" x1="82.84" y1="127.6" x2="82.84" y2="127.55"/><line class="cls-5" x1="82.84" y1="126.2" x2="82.84" y2="125.93"/><line class="cls-5" x1="82.84" y1="124.58" x2="82.84" y2="124.31"/><line class="cls-5" x1="82.89" y1="123.01" x2="82.89" y2="122.79"/><line class="cls-5" x1="82.89" y1="122.79" x2="82.89" y2="122.74"/><line class="cls-5" x1="82.95" y1="121.44" x2="82.95" y2="121.17"/><line class="cls-5" x1="83" y1="119.88" x2="83" y2="119.61"/><line class="cls-5" x1="83.11" y1="118.31" x2="83.11" y2="118.04"/><line class="cls-5" x1="83.22" y1="116.75" x2="83.27" y2="116.53"/><line class="cls-5" x1="83.43" y1="115.23" x2="83.43" y2="114.96"/><line class="cls-5" x1="83.6" y1="113.67" x2="83.65" y2="113.45"/><line class="cls-5" x1="83.81" y1="112.16" x2="83.87" y2="111.94"/><line class="cls-5" x1="84.08" y1="110.7" x2="84.08" y2="110.54"/><line class="cls-5" x1="84.08" y1="110.54" x2="84.08" y2="110.43"/><line class="cls-5" x1="84.35" y1="109.19" x2="84.41" y2="108.97"/><line class="cls-5" x1="84.62" y1="107.73" x2="84.68" y2="107.51"/><line class="cls-5" x1="85" y1="106.27" x2="85.05" y2="106.05"/><line class="cls-5" x1="85.32" y1="104.81" x2="85.38" y2="104.6"/><line class="cls-5" x1="85.7" y1="103.35" x2="85.76" y2="103.14"/><line class="cls-5" x1="86.13" y1="101.9" x2="86.19" y2="101.68"/><line class="cls-5" x1="86.57" y1="100.49" x2="86.62" y2="100.28"/><line class="cls-5" x1="87" y1="99.09" x2="87.05" y2="98.87"/><line class="cls-5" x1="87.48" y1="97.68" x2="87.54" y2="97.47"/><line class="cls-5" x1="88.02" y1="96.28" x2="88.08" y2="96.06"/><line class="cls-5" x1="88.56" y1="94.88" x2="88.62" y2="94.66"/><line class="cls-5" x1="89.1" y1="93.53" x2="89.21" y2="93.31"/><line class="cls-5" x1="89.7" y1="92.12" x2="89.81" y2="91.91"/><line class="cls-5" x1="90.35" y1="90.77" x2="90.35" y2="90.72"/><line class="cls-5" x1="90.35" y1="90.72" x2="90.4" y2="90.56"/><line class="cls-5" x1="90.99" y1="89.42" x2="91.1" y2="89.21"/><line class="cls-5" x1="91.64" y1="88.07" x2="91.75" y2="87.86"/><line class="cls-5" x1="92.34" y1="86.78" x2="92.45" y2="86.56"/><line class="cls-5" x1="93.1" y1="85.48" x2="93.26" y2="85.26"/><line class="cls-5" x1="93.91" y1="84.18" x2="94.07" y2="83.97"/><line class="cls-5" x1="94.72" y1="82.89" x2="94.88" y2="82.67"/><line class="cls-5" x1="95.53" y1="81.59" x2="95.69" y2="81.38"/><line class="cls-5" x1="96.45" y1="80.3" x2="96.61" y2="80.08"/><line class="cls-5" x1="97.37" y1="79" x2="97.37" y2="79"/><line class="cls-5" x1="97.37" y1="79" x2="97.53" y2="78.78"/><line class="cls-5" x1="98.28" y1="77.76" x2="98.45" y2="77.6"/><line class="cls-5" x1="99.2" y1="76.57" x2="99.36" y2="76.41"/><line class="cls-5" x1="100.17" y1="75.38" x2="100.34" y2="75.22"/><line class="cls-5" x1="101.2" y1="74.19" x2="101.36" y2="74.03"/><line class="cls-5" x1="102.23" y1="73.01" x2="102.39" y2="72.84"/><line class="cls-5" x1="103.31" y1="71.87" x2="103.47" y2="71.71"/><line class="cls-5" x1="104.39" y1="70.79" x2="104.55" y2="70.63"/><line class="cls-5" x1="105.47" y1="69.71" x2="105.63" y2="69.55"/><line class="cls-5" x1="106.6" y1="68.63" x2="106.76" y2="68.47"/><line class="cls-5" x1="107.73" y1="67.61" x2="107.95" y2="67.44"/><line class="cls-5" x1="108.92" y1="66.58" x2="108.92" y2="66.58"/><line class="cls-5" x1="108.92" y1="66.58" x2="109.14" y2="66.42"/><line class="cls-5" x1="110.16" y1="65.55" x2="110.38" y2="65.39"/><line class="cls-5" x1="111.41" y1="64.58" x2="111.62" y2="64.42"/><line class="cls-5" x1="112.7" y1="63.66" x2="112.92" y2="63.5"/><line class="cls-5" x1="114" y1="62.75" x2="114.21" y2="62.58"/><line class="cls-5" x1="115.29" y1="61.88" x2="115.51" y2="61.72"/><line class="cls-5" x1="116.59" y1="61.07" x2="116.81" y2="60.96"/><line class="cls-5" x1="117.89" y1="60.32" x2="118.1" y2="60.21"/><line class="cls-5" x1="119.24" y1="59.61" x2="119.45" y2="59.51"/><line class="cls-5" x1="120.59" y1="58.91" x2="120.8" y2="58.8"/><line class="cls-5" x1="121.94" y1="58.21" x2="122.15" y2="58.16"/><line class="cls-5" x1="123.29" y1="57.62" x2="123.5" y2="57.51"/><line class="cls-5" x1="124.64" y1="57.02" x2="124.85" y2="56.91"/><line class="cls-5" x1="126.04" y1="56.43" x2="126.26" y2="56.32"/><line class="cls-5" x1="127.44" y1="55.89" x2="127.66" y2="55.78"/><line class="cls-5" x1="128.85" y1="55.35" x2="129.06" y2="55.29"/><line class="cls-5" x1="130.25" y1="54.92" x2="130.47" y2="54.81"/><line class="cls-5" x1="131.66" y1="54.43" x2="131.87" y2="54.38"/><line class="cls-5" x1="133.11" y1="54.05" x2="133.33" y2="54"/><line class="cls-5" x1="134.57" y1="53.67" x2="134.79" y2="53.62"/><line class="cls-5" x1="136.03" y1="53.3" x2="136.25" y2="53.24"/><line class="cls-5" x1="137.49" y1="52.97" x2="137.7" y2="52.92"/><line class="cls-5" x1="138.95" y1="52.7" x2="139.16" y2="52.65"/><line class="cls-5" x1="140.4" y1="52.43" x2="140.62" y2="52.38"/><line class="cls-5" x1="141.92" y1="52.22" x2="142.19" y2="52.22"/><line class="cls-5" x1="143.48" y1="52.05" x2="143.64" y2="52.05"/><line class="cls-5" x1="143.64" y1="52.05" x2="143.75" y2="52.05"/><line class="cls-5" x1="145.05" y1="51.95" x2="145.26" y2="51.89"/><line class="cls-5" x1="146.56" y1="51.78" x2="146.61" y2="51.78"/><line class="cls-5" x1="146.61" y1="51.78" x2="146.83" y2="51.78"/><line class="cls-5" x1="148.13" y1="51.73" x2="148.4" y2="51.73"/></g></g></svg>