<svg id="Glo_Ball_T1" xmlns="http://www.w3.org/2000/svg" viewBox="0 0 300 263"><defs><style>.cls-1,.cls-3{fill:none;stroke-width:0.5px;}.cls-1{stroke:#000;}.cls-2{isolation:isolate;}.cls-3{stroke:#1d1d1b;stroke-linecap:round;stroke-linejoin:round;}</style></defs><title>glo-ball-table-1-morrison-flos-F3020000-spech-tech-02-300x263</title><line class="cls-1" x1="122.25" y1="227.2" x2="177.11" y2="227.2"/><line class="cls-1" x1="122.25" y1="225.52" x2="122.25" y2="228.88"/><line class="cls-1" x1="177.11" y1="225.52" x2="177.11" y2="228.88"/><g class="cls-2"><path d="M120.22,240.51a3.58,3.58,0,0,1,.71,1.16,4,4,0,0,1,.25,1.44,4,4,0,0,1-.3,1.57,3.79,3.79,0,0,1-2.16,2.07,4.51,4.51,0,0,1-1.67.3,4.81,4.81,0,0,1-1.46-.22,4.2,4.2,0,0,1-1.15-.61l-1.11,1.09-.53-.5,1.09-1.09a3.5,3.5,0,0,1-.71-1.17,4,4,0,0,1-.25-1.44,3.85,3.85,0,0,1,.31-1.56,3.75,3.75,0,0,1,.85-1.25,4,4,0,0,1,1.31-.83,4.61,4.61,0,0,1,1.65-.29,4.73,4.73,0,0,1,1.44.21,4.14,4.14,0,0,1,1.2.62l1.1-1.09.53.5Zm-1.29.25a2.88,2.88,0,0,0-1.88-.62,3,3,0,0,0-1.22.23,2.74,2.74,0,0,0-.92.63,2.86,2.86,0,0,0-.58.95,3.19,3.19,0,0,0-.21,1.16,2.9,2.9,0,0,0,.57,1.83Zm-3.74,4.72a2.88,2.88,0,0,0,.83.45,3.05,3.05,0,0,0,1,.16,3.16,3.16,0,0,0,1.22-.23,2.89,2.89,0,0,0,.92-.63,2.82,2.82,0,0,0,.59-.95,3.2,3.2,0,0,0,.21-1.17,3,3,0,0,0-.57-1.82Z"/><path d="M134.87,246.86H127.4v-1.33l4.68-4.59c.18-.17.36-.36.53-.55a4.51,4.51,0,0,0,.48-.6,3.13,3.13,0,0,0,.35-.68,2,2,0,0,0,.14-.73,1.84,1.84,0,0,0-.18-.83,1.68,1.68,0,0,0-.49-.63,2.22,2.22,0,0,0-.73-.39,2.84,2.84,0,0,0-.88-.14,2.45,2.45,0,0,0-1.53.48,2.15,2.15,0,0,0-.81,1.3L127.7,238a3.1,3.1,0,0,1,1.2-2,3.75,3.75,0,0,1,2.32-.72,5,5,0,0,1,1.35.18,3.5,3.5,0,0,1,1.13.55,2.65,2.65,0,0,1,1.07,2.21,3.29,3.29,0,0,1-.21,1.2,4.57,4.57,0,0,1-.53,1,8.14,8.14,0,0,1-.76.91c-.28.29-.57.57-.87.85l-3.71,3.53h6.18Z"/><path d="M142.75,243.11h1.69v1.06h-1.69v2.69h-1.2v-2.69h-5.08v-1.31l4.75-7.33h1.53Zm-1.2-6.43h0l-4.06,6.43h4.09Z"/><path d="M149.69,235.34a3.37,3.37,0,0,1,2,.56,3.89,3.89,0,0,1,1.22,1.42,6.48,6.48,0,0,1,.58,1.9,13.08,13.08,0,0,1,0,3.95,6.48,6.48,0,0,1-.58,1.9,3.89,3.89,0,0,1-1.22,1.42,4,4,0,0,1-4.08,0,3.89,3.89,0,0,1-1.22-1.42,6.48,6.48,0,0,1-.58-1.9,13.08,13.08,0,0,1,0-3.95,6.48,6.48,0,0,1,.58-1.9,3.89,3.89,0,0,1,1.22-1.42A3.37,3.37,0,0,1,149.69,235.34Zm0,1a2.21,2.21,0,0,0-1.52.5,3.14,3.14,0,0,0-.84,1.23,5.71,5.71,0,0,0-.36,1.57c-.05.55-.07,1.06-.07,1.5s0,.95.07,1.51a5.8,5.8,0,0,0,.36,1.57,3.14,3.14,0,0,0,.84,1.23,2.6,2.6,0,0,0,3,0,3.14,3.14,0,0,0,.84-1.23,5.8,5.8,0,0,0,.36-1.57c.05-.56.07-1.06.07-1.51s0-.95-.07-1.5a5.71,5.71,0,0,0-.36-1.57,3.14,3.14,0,0,0-.84-1.23A2.21,2.21,0,0,0,149.69,236.39Z"/><path d="M160.12,241c0-.27,0-.55,0-.83l-.06-.83h1.18v1.14h0a2.62,2.62,0,0,1,1.11-1,3.29,3.29,0,0,1,1.4-.33,4,4,0,0,1,.67.06,2.44,2.44,0,0,1,.69.23,2.29,2.29,0,0,1,.63.48,2.67,2.67,0,0,1,.49.78,2.51,2.51,0,0,1,1-1.14,3,3,0,0,1,1.5-.41,2.87,2.87,0,0,1,2.21.76,3,3,0,0,1,.72,2.17v4.75h-1.1v-4.37a3.11,3.11,0,0,0-.41-1.74,1.75,1.75,0,0,0-1.55-.61,2,2,0,0,0-1,.23,1.82,1.82,0,0,0-.67.62,2.64,2.64,0,0,0-.38.87,4.74,4.74,0,0,0-.11,1v4h-1.1v-4.37a3.11,3.11,0,0,0-.41-1.74,1.74,1.74,0,0,0-1.55-.61l-.45.06a1.72,1.72,0,0,0-.74.35,2.51,2.51,0,0,0-.69.87,3.34,3.34,0,0,0-.31,1.6v3.84h-1.1Z"/><path d="M174.28,241c0-.27,0-.55,0-.83l-.06-.83h1.18v1.14h0a2.54,2.54,0,0,1,1.1-1,3.29,3.29,0,0,1,1.4-.33,4.18,4.18,0,0,1,.68.06,2.55,2.55,0,0,1,.69.23,2.12,2.12,0,0,1,.62.48,2.48,2.48,0,0,1,.49.78,2.51,2.51,0,0,1,1.05-1.14,3.09,3.09,0,0,1,1.51-.41,2.9,2.9,0,0,1,2.21.76,3.07,3.07,0,0,1,.71,2.17v4.75h-1.09v-4.37a3,3,0,0,0-.42-1.74,1.74,1.74,0,0,0-1.55-.61,2,2,0,0,0-1,.23,1.85,1.85,0,0,0-.68.62,2.63,2.63,0,0,0-.37.87,4.17,4.17,0,0,0-.12,1v4h-1.09v-4.37a3,3,0,0,0-.42-1.74,1.73,1.73,0,0,0-1.54-.61l-.46.06a1.72,1.72,0,0,0-.74.35,2.51,2.51,0,0,0-.69.87,3.34,3.34,0,0,0-.31,1.6v3.84h-1.09Z"/></g><line class="cls-1" x1="108.47" y1="64.73" x2="189.39" y2="64.73"/><line class="cls-1" x1="108.47" y1="63.52" x2="108.47" y2="65.93"/><line class="cls-1" x1="189.39" y1="63.52" x2="189.39" y2="65.93"/><g class="cls-2"><path d="M119.47,49.67a3.84,3.84,0,0,1,.71,1.15,4.29,4.29,0,0,1-.05,3,3.77,3.77,0,0,1-.86,1.25,3.89,3.89,0,0,1-1.3.82,4.78,4.78,0,0,1-3.13.07,4.18,4.18,0,0,1-1.15-.6l-1.11,1.08L112,56l1.1-1.09a3.5,3.5,0,0,1-.71-1.17,4,4,0,0,1-.25-1.44,4,4,0,0,1,.3-1.56,3.67,3.67,0,0,1,.86-1.25,3.91,3.91,0,0,1,1.3-.83,5,5,0,0,1,3.1-.08,4.27,4.27,0,0,1,1.2.62L120,48.08l.54.5Zm-1.3.25a2.78,2.78,0,0,0-1.87-.62,3,3,0,0,0-1.22.23,2.6,2.6,0,0,0-.92.63,2.91,2.91,0,0,0-.58.94,3.28,3.28,0,0,0-.21,1.17,2.9,2.9,0,0,0,.57,1.83Zm-3.73,4.72a2.88,2.88,0,0,0,.83.45,3.05,3.05,0,0,0,1,.16,3.16,3.16,0,0,0,1.22-.23,2.87,2.87,0,0,0,.92-.64,2.83,2.83,0,0,0,.59-.94,3.2,3.2,0,0,0,.21-1.17,3,3,0,0,0-.57-1.82Z"/><path d="M129.24,49.55h.61a4.06,4.06,0,0,0,1-.11,2.11,2.11,0,0,0,.82-.36,1.69,1.69,0,0,0,.56-.65,2,2,0,0,0,.21-1,1.74,1.74,0,0,0-.58-1.41,2.31,2.31,0,0,0-1.6-.51,2.62,2.62,0,0,0-1.31.32,2.59,2.59,0,0,0-.93.93l-1-.51a3.5,3.5,0,0,1,1.35-1.35,3.93,3.93,0,0,1,1.91-.44,4.32,4.32,0,0,1,1.31.19,3.28,3.28,0,0,1,1.08.57,2.76,2.76,0,0,1,.74.92,2.84,2.84,0,0,1,.27,1.26,2.37,2.37,0,0,1-.16.88,2.33,2.33,0,0,1-.43.75,2.78,2.78,0,0,1-.64.59,2.82,2.82,0,0,1-.76.37l.05,0a2.8,2.8,0,0,1,.91.36,2.81,2.81,0,0,1,1.18,1.52,3,3,0,0,1,.17,1,3,3,0,0,1-1.11,2.42,3.62,3.62,0,0,1-1.2.63,4.63,4.63,0,0,1-1.45.22,4.58,4.58,0,0,1-2.26-.54,3.38,3.38,0,0,1-1.44-1.75l1.26-.37a2.37,2.37,0,0,0,.89,1.21,3,3,0,0,0,1.65.39,2.71,2.71,0,0,0,.95-.16,2.46,2.46,0,0,0,.79-.45,2.14,2.14,0,0,0,.72-1.63,2.16,2.16,0,0,0-.25-1.08,2,2,0,0,0-.66-.71,2.94,2.94,0,0,0-1-.39,5.13,5.13,0,0,0-1.12-.12h-.51Z"/><path d="M138.47,49.55h.62a4.06,4.06,0,0,0,1-.11,2.18,2.18,0,0,0,.82-.36,1.78,1.78,0,0,0,.56-.65,2.13,2.13,0,0,0,.2-1,1.77,1.77,0,0,0-.57-1.41,2.33,2.33,0,0,0-1.6-.51,2.69,2.69,0,0,0-1.32.32,2.76,2.76,0,0,0-.93.93l-1-.51a3.37,3.37,0,0,1,1.35-1.35,3.89,3.89,0,0,1,1.9-.44,4.34,4.34,0,0,1,1.32.19,3.28,3.28,0,0,1,1.08.57,2.75,2.75,0,0,1,1,2.18,2.37,2.37,0,0,1-.16.88,2.53,2.53,0,0,1-.43.75,3,3,0,0,1-1.4,1l0,0a2.89,2.89,0,0,1,.91.36,2.94,2.94,0,0,1,.71.65,3,3,0,0,1,.63,1.87,3.27,3.27,0,0,1-.29,1.4,3.13,3.13,0,0,1-.82,1,3.48,3.48,0,0,1-1.19.63,4.63,4.63,0,0,1-1.45.22,4.55,4.55,0,0,1-2.26-.54,3.38,3.38,0,0,1-1.44-1.75l1.26-.37a2.31,2.31,0,0,0,.89,1.21,3,3,0,0,0,1.65.39,2.75,2.75,0,0,0,.95-.16,2.46,2.46,0,0,0,.79-.45,2.14,2.14,0,0,0,.72-1.63,2.16,2.16,0,0,0-.25-1.08,2.07,2.07,0,0,0-.67-.71,2.8,2.8,0,0,0-.95-.39,5.13,5.13,0,0,0-1.12-.12h-.52Z"/><path d="M148.94,44.5a3.37,3.37,0,0,1,2,.56,3.7,3.7,0,0,1,1.21,1.42,6.2,6.2,0,0,1,.59,1.9,13.58,13.58,0,0,1,.15,2,13.82,13.82,0,0,1-.15,2,6.06,6.06,0,0,1-.59,1.89A3.73,3.73,0,0,1,151,55.65a4,4,0,0,1-4.08,0,3.84,3.84,0,0,1-1.22-1.43,6.32,6.32,0,0,1-.58-1.89,13.82,13.82,0,0,1-.15-2,13.58,13.58,0,0,1,.15-2,6.48,6.48,0,0,1,.58-1.9,3.81,3.81,0,0,1,1.22-1.42A3.37,3.37,0,0,1,148.94,44.5Zm0,1a2.21,2.21,0,0,0-1.52.5,3.14,3.14,0,0,0-.84,1.23,5.71,5.71,0,0,0-.36,1.57c-.05.55-.07,1-.07,1.5s0,.95.07,1.51a5.73,5.73,0,0,0,.36,1.56,3.1,3.1,0,0,0,.84,1.24,2.6,2.6,0,0,0,3,0,3.1,3.1,0,0,0,.84-1.24,5.73,5.73,0,0,0,.36-1.56c.05-.56.07-1.06.07-1.51s0-1-.07-1.5a5.71,5.71,0,0,0-.36-1.57,3.14,3.14,0,0,0-.84-1.23A2.21,2.21,0,0,0,148.94,45.55Z"/><path d="M159.37,50.19c0-.27,0-.55,0-.83l-.06-.83h1.18v1.14h0a2.56,2.56,0,0,1,1.11-1,3.26,3.26,0,0,1,1.4-.33,4.06,4.06,0,0,1,.67.06,2.44,2.44,0,0,1,.69.23,2.26,2.26,0,0,1,.62.47,2.47,2.47,0,0,1,.49.79,2.59,2.59,0,0,1,1.06-1.14,3,3,0,0,1,1.5-.41,2.87,2.87,0,0,1,2.21.76,3,3,0,0,1,.72,2.16V56h-1.1V51.65a3.17,3.17,0,0,0-.41-1.75,1.77,1.77,0,0,0-1.55-.6,2,2,0,0,0-1,.23,1.88,1.88,0,0,0-.67.61,2.79,2.79,0,0,0-.38.88,4.74,4.74,0,0,0-.11,1v4h-1.1V51.65a3.17,3.17,0,0,0-.41-1.75,1.77,1.77,0,0,0-1.55-.6l-.46.06a1.77,1.77,0,0,0-.74.35,2.65,2.65,0,0,0-.69.87,3.48,3.48,0,0,0-.3,1.6V56h-1.1Z"/><path d="M173.52,50.19c0-.27,0-.55,0-.83l-.06-.83h1.18v1.14h0a2.62,2.62,0,0,1,1.11-1,3.29,3.29,0,0,1,1.4-.33,4,4,0,0,1,.67.06,2.44,2.44,0,0,1,.69.23,2.3,2.3,0,0,1,.63.47,2.88,2.88,0,0,1,.49.79,2.51,2.51,0,0,1,1.05-1.14,3.06,3.06,0,0,1,1.51-.41,2.9,2.9,0,0,1,2.21.76,3.06,3.06,0,0,1,.71,2.16V56H184V51.65a3.17,3.17,0,0,0-.41-1.75,1.76,1.76,0,0,0-1.55-.6,2,2,0,0,0-1,.23,2,2,0,0,0-.67.61A2.57,2.57,0,0,0,180,51a4.17,4.17,0,0,0-.12,1v4h-1.1V51.65a3.08,3.08,0,0,0-.41-1.75,1.76,1.76,0,0,0-1.55-.6l-.45.06a1.72,1.72,0,0,0-.74.35,2.42,2.42,0,0,0-.69.87,3.34,3.34,0,0,0-.31,1.6V56h-1.1Z"/></g><line class="cls-1" x1="98.63" y1="216.95" x2="98.63" y2="74.72"/><line class="cls-1" x1="97.41" y1="216.95" x2="99.85" y2="216.95"/><line class="cls-1" x1="97.41" y1="74.72" x2="99.85" y2="74.72"/><g class="cls-2"><path d="M83.2,172l0,0a1.83,1.83,0,0,1-.29-.73,4.35,4.35,0,0,1-.1-.84,3.4,3.4,0,0,1,.27-1.36,3.33,3.33,0,0,1,1.83-1.83,3.8,3.8,0,0,1,1.41-.26,3.59,3.59,0,0,1,1.42.27,3.21,3.21,0,0,1,1.11.77,3.49,3.49,0,0,1,.72,1.17,4,4,0,0,1,.25,1.47,4.13,4.13,0,0,1-.25,1.47,3.49,3.49,0,0,1-.72,1.17,3.35,3.35,0,0,1-1.11.77,3.59,3.59,0,0,1-1.42.27A4.6,4.6,0,0,1,84.7,174a9.53,9.53,0,0,1-1.39-.7l-5-3v-1.36Zm3.15,1.16a2.64,2.64,0,0,0,1-.19,2.18,2.18,0,0,0,.78-.52,2.26,2.26,0,0,0,.5-.8,3,3,0,0,0,0-2.05,2.36,2.36,0,0,0-.5-.8,2.48,2.48,0,0,0-.78-.52,2.81,2.81,0,0,0-2,0,2.33,2.33,0,0,0-.77.52,2.74,2.74,0,0,0-.51.8,3,3,0,0,0,0,2.05,2.61,2.61,0,0,0,.51.8,2.06,2.06,0,0,0,.77.52A2.64,2.64,0,0,0,86.35,173.12Z"/><path d="M78.14,161.69a3.26,3.26,0,0,1,.56-2,3.74,3.74,0,0,1,1.42-1.16A6.17,6.17,0,0,1,82,158a13.82,13.82,0,0,1,2-.15,13.58,13.58,0,0,1,2,.15,6.17,6.17,0,0,1,1.9.56,3.66,3.66,0,0,1,1.42,1.16,3.75,3.75,0,0,1,0,3.94,3.78,3.78,0,0,1-1.42,1.17,6.45,6.45,0,0,1-1.9.56,15.09,15.09,0,0,1-2,.14,15.36,15.36,0,0,1-2-.14,6.45,6.45,0,0,1-1.9-.56,3.86,3.86,0,0,1-1.42-1.17A3.24,3.24,0,0,1,78.14,161.69Zm1.06,0a2.09,2.09,0,0,0,.49,1.47,3.17,3.17,0,0,0,1.23.8,5.87,5.87,0,0,0,1.57.35c.56.05,1.06.07,1.51.07s1,0,1.5-.07a5.71,5.71,0,0,0,1.57-.35,3.17,3.17,0,0,0,1.23-.8,2.09,2.09,0,0,0,.5-1.47,2.07,2.07,0,0,0-.5-1.46,3.08,3.08,0,0,0-1.23-.81,5.7,5.7,0,0,0-1.57-.34c-.55-.05-1-.08-1.5-.08s-1,0-1.51.08a5.86,5.86,0,0,0-1.57.34,3.08,3.08,0,0,0-1.23.81A2.06,2.06,0,0,0,79.2,161.69Z"/><path d="M78.14,152.8a3.24,3.24,0,0,1,.56-2,3.86,3.86,0,0,1,1.42-1.17,6.45,6.45,0,0,1,1.9-.56,13.76,13.76,0,0,1,2-.14,13.53,13.53,0,0,1,2,.14,6.45,6.45,0,0,1,1.9.56,3.78,3.78,0,0,1,1.42,1.17,3.73,3.73,0,0,1,0,3.93,3.69,3.69,0,0,1-1.42,1.17,6.17,6.17,0,0,1-1.9.56,13.58,13.58,0,0,1-2,.15,13.82,13.82,0,0,1-2-.15,6.17,6.17,0,0,1-1.9-.56,3.76,3.76,0,0,1-1.42-1.17A3.21,3.21,0,0,1,78.14,152.8Zm1.06,0a2.06,2.06,0,0,0,.49,1.46,3.08,3.08,0,0,0,1.23.81,6.27,6.27,0,0,0,1.57.34c.56.05,1.06.07,1.51.07s1,0,1.5-.07a6.09,6.09,0,0,0,1.57-.34,3.08,3.08,0,0,0,1.23-.81,2.07,2.07,0,0,0,.5-1.46,2.09,2.09,0,0,0-.5-1.47,3.19,3.19,0,0,0-1.23-.81,6.09,6.09,0,0,0-1.57-.34c-.55-.05-1-.07-1.5-.07s-1,0-1.51.07a6.27,6.27,0,0,0-1.57.34,3.19,3.19,0,0,0-1.23.81A2.09,2.09,0,0,0,79.2,152.8Z"/><path d="M83.84,142.75l-.84,0-.83.06v-1.14h1.14v0a2.47,2.47,0,0,1-1-1.06,3,3,0,0,1-.34-1.36,3.72,3.72,0,0,1,.06-.64,2.83,2.83,0,0,1,.24-.67,2.34,2.34,0,0,1,.47-.6,2.65,2.65,0,0,1,.78-.47,2.38,2.38,0,0,1-1.13-1,3.06,3.06,0,0,1,.34-3.57,3.12,3.12,0,0,1,2.17-.69h4.75v1.06H85.29a3.16,3.16,0,0,0-1.74.4,1.62,1.62,0,0,0-.61,1.48,2,2,0,0,0,.23,1,1.9,1.9,0,0,0,.62.64,2.5,2.5,0,0,0,.87.36,4.31,4.31,0,0,0,1,.12h4v1.05H85.29a3.25,3.25,0,0,0-1.74.4,1.65,1.65,0,0,0-.61,1.49A3.61,3.61,0,0,0,83,140a1.77,1.77,0,0,0,.36.71,2.55,2.55,0,0,0,.86.67,3.69,3.69,0,0,0,1.6.29h3.84v1.06Z"/><path d="M83.84,129.12c-.28,0-.56,0-.84,0l-.83.06v-1.14h1.14v0a2.44,2.44,0,0,1-1-1.07,2.94,2.94,0,0,1-.34-1.35A3.83,3.83,0,0,1,82,125a2.76,2.76,0,0,1,.24-.66,2.34,2.34,0,0,1,.47-.6,2.45,2.45,0,0,1,.78-.47,2.38,2.38,0,0,1-1.13-1,2.74,2.74,0,0,1-.42-1.45,2.7,2.7,0,0,1,.76-2.12,3.12,3.12,0,0,1,2.17-.69h4.75v1H85.29a3.25,3.25,0,0,0-1.74.4,1.65,1.65,0,0,0-.61,1.49,2,2,0,0,0,.23,1,1.84,1.84,0,0,0,.62.65,2.5,2.5,0,0,0,.87.36,4.31,4.31,0,0,0,1,.11h4v1.06H85.29a3.16,3.16,0,0,0-1.74.4,1.64,1.64,0,0,0-.61,1.49,3.61,3.61,0,0,0,.06.44,1.77,1.77,0,0,0,.36.71,2.42,2.42,0,0,0,.86.66,3.53,3.53,0,0,0,1.6.3h3.84v1.06Z"/></g><polygon class="cls-3" points="154.69 215 151.52 206.16 151.52 136.45 147.85 136.45 147.85 206.16 145.17 215 154.69 215"/><path class="cls-3" d="M159.16,135.4c7.24-.72,13.59-2.56,19.61-6.62,8.48-5.73,11.91-12.63,11.91-23.87s-3.35-17.54-11.91-23.86C170.5,75,161.23,74,150,74s-20.4,1.06-28.77,7-11.91,12.63-11.91,23.86,4,17.74,11.91,23.87c5.87,4.56,12.43,6.19,19.86,6.75Z"/><rect class="cls-3" x="121.74" y="215.04" width="56.52" height="2.45"/><polygon class="cls-3" points="140.31 134.67 143.37 137.52 156.63 137.52 159.69 134.67 140.31 134.67"/><g class="cls-2"><path d="M218.94,125.7v7.2h-1.33L213,128.39c-.17-.17-.35-.35-.55-.52a5.3,5.3,0,0,0-.6-.46,3.6,3.6,0,0,0-.68-.34,2.24,2.24,0,0,0-.73-.12,2,2,0,0,0-.83.16,1.76,1.76,0,0,0-.63.48,2.08,2.08,0,0,0-.39.7,2.66,2.66,0,0,0-.14.85,2.32,2.32,0,0,0,.48,1.47,2.14,2.14,0,0,0,1.3.78l-.13,1.22a3.18,3.18,0,0,1-2-1.16,3.51,3.51,0,0,1-.72-2.23,4.66,4.66,0,0,1,.18-1.31,3.24,3.24,0,0,1,.55-1.08,2.82,2.82,0,0,1,.92-.76,2.92,2.92,0,0,1,1.29-.28,3.51,3.51,0,0,1,1.2.2,5.53,5.53,0,0,1,1,.52,7.86,7.86,0,0,1,.91.73c.29.27.57.55.85.84l3.53,3.57v-6Z"/><path d="M208.67,117.19l10.27,4.56V123l-10.27-4.65v5.52h-1.06v-6.72Z"/><path d="M207.42,111.43a3.17,3.17,0,0,1,.56-2,3.86,3.86,0,0,1,1.42-1.17,6.45,6.45,0,0,1,1.9-.56,14,14,0,0,1,3.95,0,6.45,6.45,0,0,1,1.9.56,3.86,3.86,0,0,1,1.42,1.17,3.73,3.73,0,0,1,0,3.93,3.76,3.76,0,0,1-1.42,1.17,6.17,6.17,0,0,1-1.9.56,13.08,13.08,0,0,1-3.95,0,6.17,6.17,0,0,1-1.9-.56,3.76,3.76,0,0,1-1.42-1.17A3.14,3.14,0,0,1,207.42,111.43Zm1.05,0a2.09,2.09,0,0,0,.5,1.46,3.08,3.08,0,0,0,1.23.81,6.09,6.09,0,0,0,1.57.34c.55,0,1.06.07,1.5.07s.95,0,1.51-.07a6.18,6.18,0,0,0,1.57-.34,3.08,3.08,0,0,0,1.23-.81,2.44,2.44,0,0,0,0-2.93,3.19,3.19,0,0,0-1.23-.81,6.18,6.18,0,0,0-1.57-.34c-.56,0-1.06-.07-1.51-.07s-1,0-1.5.07a6.09,6.09,0,0,0-1.57.34A3.19,3.19,0,0,0,209,110,2.09,2.09,0,0,0,208.47,111.43Z"/><path d="M213.11,101.38l-.83,0-.83.06v-1.14h1.14v0a2.55,2.55,0,0,1-1-1.06,3.12,3.12,0,0,1-.33-1.36,3.72,3.72,0,0,1,.06-.64,2.42,2.42,0,0,1,.23-.67A2.39,2.39,0,0,1,212,96a2.65,2.65,0,0,1,.78-.47,2.45,2.45,0,0,1-1.14-1,2.81,2.81,0,0,1-.41-1.44A2.73,2.73,0,0,1,212,90.9a3.11,3.11,0,0,1,2.17-.69h4.75v1.06h-4.37a3.11,3.11,0,0,0-1.74.4,1.62,1.62,0,0,0-.61,1.48,1.92,1.92,0,0,0,.23,1,1.81,1.81,0,0,0,.62.64,2.42,2.42,0,0,0,.87.36,4.17,4.17,0,0,0,1,.12h4v1h-4.37a3.2,3.2,0,0,0-1.74.4,1.64,1.64,0,0,0-.61,1.49,3.61,3.61,0,0,0,.06.44,1.62,1.62,0,0,0,.35.71,2.6,2.6,0,0,0,.87.67,3.66,3.66,0,0,0,1.6.29h3.84v1.06Z"/><path d="M213.11,87.75c-.27,0-.55,0-.83,0l-.83.06V86.69h1.14v0a2.52,2.52,0,0,1-1-1.07,3.05,3.05,0,0,1-.33-1.35,3.83,3.83,0,0,1,.06-.65,2.36,2.36,0,0,1,.23-.66,2.39,2.39,0,0,1,.48-.6,2.45,2.45,0,0,1,.78-.47,2.45,2.45,0,0,1-1.14-1,2.82,2.82,0,0,1-.41-1.45,2.7,2.7,0,0,1,.76-2.12,3.11,3.11,0,0,1,2.17-.69h4.75v1h-4.37a3.2,3.2,0,0,0-1.74.4,1.65,1.65,0,0,0-.61,1.49,1.86,1.86,0,0,0,.23,1,1.76,1.76,0,0,0,.62.65,2.42,2.42,0,0,0,.87.36,4.17,4.17,0,0,0,1,.11h4v1.06h-4.37a3.11,3.11,0,0,0-1.74.4,1.64,1.64,0,0,0-.61,1.49,3.61,3.61,0,0,0,.06.44,1.62,1.62,0,0,0,.35.71,2.46,2.46,0,0,0,.87.66,3.51,3.51,0,0,0,1.6.3h3.84v1.06Z"/></g><line class="cls-1" x1="198.24" y1="136.21" x2="198.24" y2="72.72"/><line class="cls-1" x1="197.02" y1="136.21" x2="199.46" y2="136.21"/><line class="cls-1" x1="197.02" y1="72.72" x2="199.46" y2="72.72"/></svg>