<svg id="Glo_Ball_W" xmlns="http://www.w3.org/2000/svg" xmlns:xlink="http://www.w3.org/1999/xlink" viewBox="0 0 300 263"><defs><style>.cls-1,.cls-2,.cls-5{fill:none;}.cls-2{stroke:#000;}.cls-2,.cls-5{stroke-width:0.5px;}.cls-3{isolation:isolate;}.cls-4{clip-path:url(#clip-path);}.cls-5{stroke:#1d1d1b;stroke-miterlimit:3.86;}</style><clipPath id="clip-path"><rect class="cls-1" x="28.35" y="79.19" width="270.24" height="136.96"/></clipPath></defs><title>glo-ball-ceiling-wall-w-morrison-flos-F3022000-spech-tech-02-300x263-01</title><line class="cls-2" x1="26.35" y1="226.26" x2="110.5" y2="226.62"/><line class="cls-2" x1="26.35" y1="224.8" x2="26.34" y2="227.73"/><line class="cls-2" x1="110.5" y1="225.16" x2="110.49" y2="228.09"/><g class="cls-3"><path d="M43.34,245.21H42.19l0-9.88-2,1.78-.71-.87,2.89-2.35h1Z"/><path d="M49.77,238.77l0,0a2.06,2.06,0,0,1,.73-.28,3.76,3.76,0,0,1,.84-.09,3.45,3.45,0,0,1,1.37.27,3.26,3.26,0,0,1,1.09.73,3.23,3.23,0,0,1,.72,1.11,3.54,3.54,0,0,1,.26,1.41,3.46,3.46,0,0,1-.28,1.42,3.27,3.27,0,0,1-.77,1.1,3.31,3.31,0,0,1-1.17.71,3.92,3.92,0,0,1-1.47.25,4,4,0,0,1-1.47-.26,3.49,3.49,0,0,1-1.17-.72,3.18,3.18,0,0,1-.76-1.11,3.64,3.64,0,0,1-.27-1.43,4.53,4.53,0,0,1,.29-1.64,9,9,0,0,1,.7-1.39l3.08-5h1.36Zm-1.17,3.15a2.64,2.64,0,0,0,.18,1,2.48,2.48,0,0,0,.52.78,2.29,2.29,0,0,0,.8.51,2.8,2.8,0,0,0,1,.18,3,3,0,0,0,1-.17,2.52,2.52,0,0,0,.8-.5,2.32,2.32,0,0,0,.52-.78,2.46,2.46,0,0,0,.19-1,2.64,2.64,0,0,0-.18-1,2.06,2.06,0,0,0-.52-.77,2.24,2.24,0,0,0-.79-.51,2.93,2.93,0,0,0-2.05,0,2.41,2.41,0,0,0-.8.5,2.21,2.21,0,0,0-.53.77A2.86,2.86,0,0,0,48.6,241.92Z"/><path d="M60.06,233.76a3.18,3.18,0,0,1,2,.57,3.69,3.69,0,0,1,1.16,1.43,6.08,6.08,0,0,1,.55,1.9,13.53,13.53,0,0,1,.14,2,13.82,13.82,0,0,1-.15,2,6.4,6.4,0,0,1-.57,1.89A3.71,3.71,0,0,1,62,244.92a3.73,3.73,0,0,1-3.93,0,3.69,3.69,0,0,1-1.16-1.43,6.39,6.39,0,0,1-.56-1.89,15.29,15.29,0,0,1-.13-2,13.82,13.82,0,0,1,.15-2,6.4,6.4,0,0,1,.57-1.89,3.86,3.86,0,0,1,1.17-1.42A3.26,3.26,0,0,1,60.06,233.76Zm0,1.06a2,2,0,0,0-1.47.49,3,3,0,0,0-.81,1.22,6.19,6.19,0,0,0-.35,1.57c0,.56-.08,1.06-.08,1.5s0,1,.07,1.51a5.77,5.77,0,0,0,.33,1.57,3.08,3.08,0,0,0,.81,1.23,2.06,2.06,0,0,0,1.46.51,2.09,2.09,0,0,0,1.46-.49,3.21,3.21,0,0,0,.82-1.23,6.09,6.09,0,0,0,.35-1.57c.05-.55.08-1,.08-1.5s0-.95-.07-1.51a5.78,5.78,0,0,0-.34-1.57,3.06,3.06,0,0,0-.8-1.23A2.05,2.05,0,0,0,60.06,234.82Z"/><path d="M70.09,239.5c0-.28,0-.56,0-.83l-.06-.84h1.14V239h0a2.44,2.44,0,0,1,1.07-1,3.05,3.05,0,0,1,1.35-.33,3.83,3.83,0,0,1,.65.06,2.61,2.61,0,0,1,.66.24,2.34,2.34,0,0,1,.6.47,2.85,2.85,0,0,1,.47.79,2.38,2.38,0,0,1,1-1.13,2.75,2.75,0,0,1,1.45-.41,2.69,2.69,0,0,1,2.12.77,3.12,3.12,0,0,1,.68,2.17l0,4.75H80.17l0-4.37a3.09,3.09,0,0,0-.39-1.75,1.65,1.65,0,0,0-1.49-.61,1.91,1.91,0,0,0-1,.23,1.81,1.81,0,0,0-.65.61,2.42,2.42,0,0,0-.36.87,4.17,4.17,0,0,0-.12,1l0,4h-1l0-4.36a3.17,3.17,0,0,0-.4-1.75,1.62,1.62,0,0,0-1.48-.61l-.44.06a1.62,1.62,0,0,0-.71.35,2.45,2.45,0,0,0-.67.86,3.6,3.6,0,0,0-.31,1.6v3.84H70.06Z"/><path d="M83.72,239.56c0-.28,0-.56,0-.84s0-.55,0-.83h1.13V239h0a2.47,2.47,0,0,1,1.07-1,2.8,2.8,0,0,1,1.35-.33,3.83,3.83,0,0,1,.65.06,2.28,2.28,0,0,1,.66.24,2.34,2.34,0,0,1,.6.47,2.63,2.63,0,0,1,.47.79,2.38,2.38,0,0,1,1-1.13,2.66,2.66,0,0,1,1.45-.41,2.69,2.69,0,0,1,2.12.77,3.06,3.06,0,0,1,.68,2.17l0,4.75h-1v-4.36a3.09,3.09,0,0,0-.39-1.75A1.62,1.62,0,0,0,92,238.7a1.92,1.92,0,0,0-1,.22,2,2,0,0,0-.65.62,2.84,2.84,0,0,0-.36.87,4.73,4.73,0,0,0-.12,1v4H88.75l0-4.37a3.25,3.25,0,0,0-.39-1.74,1.67,1.67,0,0,0-1.49-.62l-.44.07a1.52,1.52,0,0,0-.71.35,2.45,2.45,0,0,0-.67.86,3.48,3.48,0,0,0-.3,1.6l0,3.84H83.69Z"/></g><line class="cls-2" x1="291.81" y1="226.49" x2="128.11" y2="226.49"/><line class="cls-2" x1="291.81" y1="228.03" x2="291.81" y2="224.85"/><line class="cls-2" x1="128.11" y1="228.03" x2="128.11" y2="224.85"/><g class="cls-3"><path d="M181.58,238.83a3.62,3.62,0,0,1,.68,1.16,4.05,4.05,0,0,1,.25,1.45,4.22,4.22,0,0,1-.29,1.57,3.73,3.73,0,0,1-2.08,2.07,4.2,4.2,0,0,1-1.61.3,4.15,4.15,0,0,1-1.4-.23,3.72,3.72,0,0,1-1.11-.61l-1.08,1.09-.51-.49,1.06-1.09a3.56,3.56,0,0,1-.69-1.18,4.17,4.17,0,0,1-.24-1.43,4,4,0,0,1,.3-1.57,3.65,3.65,0,0,1,2.08-2.07,4.09,4.09,0,0,1,1.59-.3,4.45,4.45,0,0,1,1.39.22,3.65,3.65,0,0,1,1.15.62l1.06-1.09.51.49Zm-1.24.26a2.66,2.66,0,0,0-1.81-.63,2.8,2.8,0,0,0-1.18.24,2.54,2.54,0,0,0-.88.63,3,3,0,0,0-.56.94,3.46,3.46,0,0,0-.2,1.17,2.92,2.92,0,0,0,.55,1.82Zm-3.6,4.72a2.72,2.72,0,0,0,.8.45,3.07,3.07,0,0,0,1,.16,2.8,2.8,0,0,0,1.18-.24,2.54,2.54,0,0,0,.88-.63,2.64,2.64,0,0,0,.57-.94,3.42,3.42,0,0,0,.2-1.17,3.13,3.13,0,0,0-.54-1.82Z"/><path d="M191,238.72h.59a4.28,4.28,0,0,0,1-.11,2.48,2.48,0,0,0,.79-.36,1.79,1.79,0,0,0,.53-.65,2.06,2.06,0,0,0,.2-1,1.82,1.82,0,0,0-.55-1.42,2.23,2.23,0,0,0-1.54-.5,2.52,2.52,0,0,0-1.27.32,2.42,2.42,0,0,0-.89.93l-1-.51a3.49,3.49,0,0,1,1.3-1.36,3.76,3.76,0,0,1,1.84-.43,4,4,0,0,1,1.26.19,3,3,0,0,1,1,.56,2.71,2.71,0,0,1,.71.93,2.84,2.84,0,0,1,.27,1.26,2.37,2.37,0,0,1-.16.88,2.72,2.72,0,0,1-.41.75,2.85,2.85,0,0,1-.62.58,2.55,2.55,0,0,1-.73.38l0,0a2.64,2.64,0,0,1,.88.36,2.67,2.67,0,0,1,.69.65,3.2,3.2,0,0,1,.45.86,3.1,3.1,0,0,1,.16,1,3.2,3.2,0,0,1-.29,1.39,3,3,0,0,1-.78,1,3.39,3.39,0,0,1-1.15.63,4.61,4.61,0,0,1-1.4.22,4.14,4.14,0,0,1-2.17-.55,3.29,3.29,0,0,1-1.39-1.74l1.21-.37a2.37,2.37,0,0,0,.86,1.21,2.79,2.79,0,0,0,1.59.39,2.53,2.53,0,0,0,.91-.16,2.34,2.34,0,0,0,.76-.46,1.93,1.93,0,0,0,.51-.71,2.12,2.12,0,0,0,.19-.91,2.21,2.21,0,0,0-.24-1.08,2.09,2.09,0,0,0-.64-.71,2.72,2.72,0,0,0-.92-.39,4.83,4.83,0,0,0-1.08-.12H191Z"/><path d="M199.89,238.72h.59a4.19,4.19,0,0,0,1-.11,2.3,2.3,0,0,0,.79-.36,1.72,1.72,0,0,0,.54-.65,2.19,2.19,0,0,0,.2-1,1.82,1.82,0,0,0-.55-1.42,2.24,2.24,0,0,0-1.55-.5,2.46,2.46,0,0,0-1.26.32,2.52,2.52,0,0,0-.9.93l-1-.51a3.42,3.42,0,0,1,1.3-1.36,3.75,3.75,0,0,1,1.83-.43,4.07,4.07,0,0,1,1.27.19,2.77,2.77,0,0,1,2,2.75,2.58,2.58,0,0,1-.15.88,2.5,2.5,0,0,1-.42.75,2.8,2.8,0,0,1-.61.58,2.6,2.6,0,0,1-.74.38l.05,0a2.72,2.72,0,0,1,.88.36,2.67,2.67,0,0,1,.69.65,3.2,3.2,0,0,1,.45.86,3.39,3.39,0,0,1,.16,1,3.2,3.2,0,0,1-.29,1.39,3,3,0,0,1-.79,1,3.3,3.3,0,0,1-1.15.63,4.55,4.55,0,0,1-1.39.22,4.18,4.18,0,0,1-2.18-.55,3.33,3.33,0,0,1-1.39-1.74l1.22-.37a2.41,2.41,0,0,0,.85,1.21,2.8,2.8,0,0,0,1.6.39,2.53,2.53,0,0,0,.91-.16,2.34,2.34,0,0,0,.76-.46,1.93,1.93,0,0,0,.51-.71,2.27,2.27,0,0,0,.18-.91A2.21,2.21,0,0,0,203,241a2,2,0,0,0-.64-.71,2.64,2.64,0,0,0-.92-.39,4.7,4.7,0,0,0-1.08-.12h-.49Z"/><path d="M210,233.67a3.26,3.26,0,0,1,2,.55,3.77,3.77,0,0,1,1.16,1.43,6.11,6.11,0,0,1,.56,1.89,13.14,13.14,0,0,1,0,4,6.11,6.11,0,0,1-.56,1.89,3.77,3.77,0,0,1-1.16,1.43,3.75,3.75,0,0,1-3.94,0,3.89,3.89,0,0,1-1.17-1.43,6.39,6.39,0,0,1-.56-1.89,14.07,14.07,0,0,1,0-4,6.39,6.39,0,0,1,.56-1.89,3.89,3.89,0,0,1,1.17-1.43A3.24,3.24,0,0,1,210,233.67Zm0,1.05a2.09,2.09,0,0,0-1.47.5,3.17,3.17,0,0,0-.8,1.23,5.71,5.71,0,0,0-.35,1.57c0,.55-.07,1-.07,1.5s0,.95.07,1.5a5.71,5.71,0,0,0,.35,1.57,3.17,3.17,0,0,0,.8,1.23,2,2,0,0,0,1.47.5,2,2,0,0,0,1.46-.5,3.08,3.08,0,0,0,.81-1.23,5.7,5.7,0,0,0,.34-1.57c0-.55.08-1.05.08-1.5s0-1-.08-1.5a5.7,5.7,0,0,0-.34-1.57,3.08,3.08,0,0,0-.81-1.23A2.05,2.05,0,0,0,210,234.72Z"/><path d="M220,239.36c0-.28,0-.55,0-.83s0-.56-.05-.83h1.13v1.13h0a2.5,2.5,0,0,1,1.07-1,3.07,3.07,0,0,1,1.35-.34,3.9,3.9,0,0,1,.65.07,2.25,2.25,0,0,1,.66.23,2.18,2.18,0,0,1,.6.47,2.44,2.44,0,0,1,.47.79,2.56,2.56,0,0,1,1-1.14,3.07,3.07,0,0,1,3.58.34,3.17,3.17,0,0,1,.68,2.17v4.75h-1.05v-4.36a3.26,3.26,0,0,0-.4-1.75,1.68,1.68,0,0,0-1.49-.61,1.87,1.87,0,0,0-1.64.85,2.58,2.58,0,0,0-.36.87,4.9,4.9,0,0,0-.11,1v4h-1.06v-4.36a3.17,3.17,0,0,0-.4-1.75,1.65,1.65,0,0,0-1.49-.61l-.44.07a1.67,1.67,0,0,0-.71.35,2.67,2.67,0,0,0-.66.86,3.53,3.53,0,0,0-.3,1.6v3.84h-1Z"/><path d="M233.65,239.36c0-.28,0-.55,0-.83s0-.56-.05-.83h1.13v1.13h0a2.47,2.47,0,0,1,1.06-1,3.07,3.07,0,0,1,1.35-.34,3.9,3.9,0,0,1,.65.07,2.25,2.25,0,0,1,.66.23,2,2,0,0,1,.6.47,2.64,2.64,0,0,1,.48.79,2.48,2.48,0,0,1,1-1.14,3.07,3.07,0,0,1,3.58.34,3.12,3.12,0,0,1,.69,2.17v4.75h-1.06v-4.36a3.17,3.17,0,0,0-.4-1.75,1.67,1.67,0,0,0-1.49-.61,1.87,1.87,0,0,0-1.64.85,3.07,3.07,0,0,0-.36.87,4.9,4.9,0,0,0-.11,1v4H238.7v-4.36a3.17,3.17,0,0,0-.4-1.75,1.65,1.65,0,0,0-1.48-.61,4.26,4.26,0,0,0-.44.07,1.71,1.71,0,0,0-.72.35,2.67,2.67,0,0,0-.66.86,3.53,3.53,0,0,0-.3,1.6v3.84h-1Z"/></g><line class="cls-2" x1="22.24" y1="82.18" x2="22.38" y2="214.34"/><line class="cls-2" x1="23.75" y1="82.17" x2="20.63" y2="82.18"/><line class="cls-2" x1="23.89" y1="214.34" x2="20.77" y2="214.34"/><g class="cls-3"><path d="M14.57,167l0,7.2H13.2l-4.56-4.54-.54-.52a6.5,6.5,0,0,0-.61-.46,2.82,2.82,0,0,0-.67-.34,2,2,0,0,0-.74-.14,2.05,2.05,0,0,0-.83.17,1.68,1.68,0,0,0-.62.47,1.94,1.94,0,0,0-.4.7,2.6,2.6,0,0,0-.14.84,2.32,2.32,0,0,0,.47,1.48,2.17,2.17,0,0,0,1.29.79l-.13,1.22a3.21,3.21,0,0,1-2-1.18A3.5,3.5,0,0,1,3,170.41a5,5,0,0,1,.19-1.3A3.31,3.31,0,0,1,3.78,168a2.85,2.85,0,0,1,.93-.75A2.89,2.89,0,0,1,6,167a3.27,3.27,0,0,1,1.19.21,4.74,4.74,0,0,1,1,.52,6.93,6.93,0,0,1,.9.74c.29.27.57.55.85.84l3.51,3.59,0-6Z"/><path d="M8.13,162.92l0,0a2,2,0,0,1-.28-.72,4.46,4.46,0,0,1-.09-.84A3.42,3.42,0,0,1,8.06,160a3.31,3.31,0,0,1,.73-1.09,3.4,3.4,0,0,1,1.11-.73,3.8,3.8,0,0,1,1.41-.25,3.43,3.43,0,0,1,1.42.28,3.17,3.17,0,0,1,1.1.77,3.64,3.64,0,0,1,.72,1.18,4.05,4.05,0,0,1,.24,1.47,4.13,4.13,0,0,1-.26,1.47,3.47,3.47,0,0,1-.73,1.16,3.06,3.06,0,0,1-1.11.76,3.59,3.59,0,0,1-1.42.27A4.38,4.38,0,0,1,9.62,165a9,9,0,0,1-1.38-.7l-5-3.09V159.8Zm3.15,1.17a2.64,2.64,0,0,0,1-.18,2.18,2.18,0,0,0,.78-.52,2.34,2.34,0,0,0,.51-.79,3.31,3.31,0,0,0,.18-1,3,3,0,0,0-.17-1,2.57,2.57,0,0,0-.5-.81,2.32,2.32,0,0,0-.78-.52,2.57,2.57,0,0,0-1-.19,2.64,2.64,0,0,0-1,.18,2.16,2.16,0,0,0-.77.51,2.74,2.74,0,0,0-.51.8,2.93,2.93,0,0,0,0,2,2.41,2.41,0,0,0,.5.8,2.26,2.26,0,0,0,.76.53A2.87,2.87,0,0,0,11.28,164.09Z"/><path d="M3.13,152.62a3.31,3.31,0,0,1,.57-2,3.94,3.94,0,0,1,1.43-1.16,6.76,6.76,0,0,1,1.9-.55,15.29,15.29,0,0,1,2-.13,15.15,15.15,0,0,1,2,.15,6.48,6.48,0,0,1,1.9.58,3.82,3.82,0,0,1,1.41,1.17,3.75,3.75,0,0,1,0,3.94,3.78,3.78,0,0,1-1.43,1.16,6.76,6.76,0,0,1-1.9.55,15.14,15.14,0,0,1-2,.13,12.56,12.56,0,0,1-2-.16,6.31,6.31,0,0,1-1.89-.57,3.78,3.78,0,0,1-1.42-1.17A3.26,3.26,0,0,1,3.13,152.62Zm1.06,0a2.09,2.09,0,0,0,.49,1.47,3.1,3.1,0,0,0,1.22.82,6.19,6.19,0,0,0,1.57.35c.55.05,1,.08,1.5.08s.95,0,1.51-.07a5.77,5.77,0,0,0,1.57-.33,3.17,3.17,0,0,0,1.23-.8,2.4,2.4,0,0,0,0-2.93,3.21,3.21,0,0,0-1.23-.82,6.11,6.11,0,0,0-1.56-.35C10,150,9.45,150,9,150s-.95,0-1.5.07a5.69,5.69,0,0,0-1.57.33,3.2,3.2,0,0,0-1.24.8A2.07,2.07,0,0,0,4.19,152.62Z"/><path d="M8.88,142.6l-.83,0-.83,0v-1.13H8.36v0a2.47,2.47,0,0,1-1-1.07,2.92,2.92,0,0,1-.33-1.35,3,3,0,0,1,.07-.65,2.25,2.25,0,0,1,.23-.66,2,2,0,0,1,.48-.6,2.45,2.45,0,0,1,.78-.47,2.42,2.42,0,0,1-1.13-1,2.76,2.76,0,0,1-.4-1.45,2.69,2.69,0,0,1,.77-2.12,3.07,3.07,0,0,1,2.17-.68l4.75,0v1.05l-4.36,0a3.09,3.09,0,0,0-1.75.39A1.65,1.65,0,0,0,8,134.37a2,2,0,0,0,.23,1,2,2,0,0,0,.61.65,2.8,2.8,0,0,0,.87.36,4.31,4.31,0,0,0,1,.12l4,0v1.06l-4.37,0a3.27,3.27,0,0,0-1.75.39A1.67,1.67,0,0,0,8,139.43a3.61,3.61,0,0,0,.06.44,1.62,1.62,0,0,0,.35.71,2.45,2.45,0,0,0,.86.67,3.58,3.58,0,0,0,1.59.31l3.84,0v1Z"/><path d="M9,129l-.83,0-.83,0V127.9H8.44v0a2.49,2.49,0,0,1-1-1.07,3.12,3.12,0,0,1-.33-1.35,5.15,5.15,0,0,1,.07-.65,2.28,2.28,0,0,1,.24-.66,2,2,0,0,1,.47-.6,2.63,2.63,0,0,1,.79-.47,2.48,2.48,0,0,1-1.13-1,3.09,3.09,0,0,1,.36-3.58,3.14,3.14,0,0,1,2.17-.67l4.76,0v1.06l-4.37,0a3.06,3.06,0,0,0-1.74.39,1.63,1.63,0,0,0-.62,1.48,1.86,1.86,0,0,0,.23,1,1.84,1.84,0,0,0,.61.66,2.84,2.84,0,0,0,.87.36,4.17,4.17,0,0,0,1,.12l4,0V124l-4.37,0a3.25,3.25,0,0,0-1.74.39,1.67,1.67,0,0,0-.62,1.49,3.61,3.61,0,0,0,.06.44,1.74,1.74,0,0,0,.35.71,2.55,2.55,0,0,0,.86.67,3.63,3.63,0,0,0,1.6.31l3.84,0v1Z"/></g><g class="cls-4"><path class="cls-5" d="M194.09,214.36c-14.59-1.56-27.41-5.51-39.52-14.18-17.17-12.3-24.11-27.1-24.11-51.2s6.77-37.63,24.11-51.2c16.72-13.09,35.46-15.06,58.2-15.06S254,85,271,97.78s24.1,27.1,24.1,51.2-8.12,38-24.1,51.2c-11.67,9.6-24.68,13.16-39.39,14.41Z"/><path class="cls-5" d="M31.88,214.48l19,.11c14.72-1.25,27.73-4.81,39.39-14.42,16-13.15,24.11-27.09,24.11-51.19s-7.08-38.36-24.11-51.2S54.8,82.72,32.07,82.72Z"/></g></svg>