<svg id="Mini__Glo_Ball_Mirror" data-name="Mini _Glo_Ball Mirror" xmlns="http://www.w3.org/2000/svg" viewBox="0 0 300 263"><defs><style>.cls-1,.cls-3{fill:none;}.cls-1{stroke:#000;stroke-width:0.5px;}.cls-2{isolation:isolate;}.cls-3{stroke:#1d1d1b;stroke-miterlimit:3.86;stroke-width:0.43px;}</style></defs><title>glo-ball-ceiling-wall-mini-morrison-flos-F4190009-spech-tech-02-300x263-01</title><line class="cls-1" x1="91.54" y1="161.35" x2="92.06" y2="110.24"/><line class="cls-1" x1="90.5" y1="161.34" x2="92.58" y2="161.36"/><line class="cls-1" x1="91.02" y1="110.23" x2="93.09" y2="110.25"/><g class="cls-2"><path d="M76.16,160a3.79,3.79,0,0,1,1.16-.67,4,4,0,0,1,1.45-.23,4.22,4.22,0,0,1,1.57.31,3.73,3.73,0,0,1,2,2.1,4.43,4.43,0,0,1,.28,1.61,4.36,4.36,0,0,1-.24,1.4,3.75,3.75,0,0,1-.62,1.11l1.08,1.08-.5.51-1.08-1.07a3.83,3.83,0,0,1-1.18.68,4.26,4.26,0,0,1-1.44.22,4,4,0,0,1-1.56-.31,3.68,3.68,0,0,1-1.24-.84,3.6,3.6,0,0,1-.81-1.26,4,4,0,0,1-.28-1.6,4.18,4.18,0,0,1,.23-1.39,3.54,3.54,0,0,1,.63-1.14l-1.08-1.07.5-.51Zm.24,1.25a2.64,2.64,0,0,0-.64,1.8,2.79,2.79,0,0,0,.22,1.18,2.59,2.59,0,0,0,.62.89,3,3,0,0,0,.94.57,3.19,3.19,0,0,0,1.16.21,2.94,2.94,0,0,0,1.83-.53Zm4.68,3.65a2.53,2.53,0,0,0,.46-.8,2.78,2.78,0,0,0,.17-1,2.91,2.91,0,0,0-.22-1.17,2.73,2.73,0,0,0-.62-.9,2.91,2.91,0,0,0-.94-.58,3.68,3.68,0,0,0-1.17-.21,3.17,3.17,0,0,0-1.83.53Z"/><path d="M76.14,150.83l0,0a1.83,1.83,0,0,1-.28-.73,4.3,4.3,0,0,1-.09-.84,3.59,3.59,0,0,1,.28-1.36,3.34,3.34,0,0,1,.74-1.09,3.23,3.23,0,0,1,1.11-.72,3.8,3.8,0,0,1,1.41-.25,3.6,3.6,0,0,1,1.42.29,3.07,3.07,0,0,1,1.1.78,3.63,3.63,0,0,1,.71,1.17,4.39,4.39,0,0,1,0,3,3.59,3.59,0,0,1-.74,1.16,3.16,3.16,0,0,1-1.11.75,3.46,3.46,0,0,1-1.42.26,4.38,4.38,0,0,1-1.65-.3,8.2,8.2,0,0,1-1.38-.71l-4.95-3.1v-1.36ZM79.28,152a2.64,2.64,0,0,0,1-.17,2.32,2.32,0,0,0,.78-.52,2.24,2.24,0,0,0,.51-.79,2.61,2.61,0,0,0,.19-1,3.05,3.05,0,0,0-.16-1,2.26,2.26,0,0,0-.5-.8,2.17,2.17,0,0,0-.77-.53,2.65,2.65,0,0,0-1-.2,2.73,2.73,0,0,0-1,.18,2.35,2.35,0,0,0-.77.51,2.68,2.68,0,0,0-.51.79,3,3,0,0,0,0,2,2.54,2.54,0,0,0,.49.81,2.46,2.46,0,0,0,.77.53A2.61,2.61,0,0,0,79.28,152Z"/><path d="M71.19,140.5a3.15,3.15,0,0,1,.58-2,3.67,3.67,0,0,1,1.43-1.15,6.43,6.43,0,0,1,1.9-.54,13.07,13.07,0,0,1,4,0,6.46,6.46,0,0,1,1.9.57,3.87,3.87,0,0,1,1.41,1.19,3.73,3.73,0,0,1,0,3.93,3.9,3.9,0,0,1-1.44,1.16,6.43,6.43,0,0,1-1.9.54,13.65,13.65,0,0,1-2,.12,15.21,15.21,0,0,1-2-.16,6.62,6.62,0,0,1-1.89-.58,3.78,3.78,0,0,1-1.41-1.18A3.22,3.22,0,0,1,71.19,140.5Zm1,0a2.13,2.13,0,0,0,.48,1.47,3.1,3.1,0,0,0,1.23.82,5.73,5.73,0,0,0,1.56.36,14.24,14.24,0,0,0,1.5.09c.45,0,.95,0,1.51-.06a6.17,6.17,0,0,0,1.57-.32,3.2,3.2,0,0,0,1.24-.8,2.42,2.42,0,0,0,0-2.93,3.25,3.25,0,0,0-1.22-.82,5.71,5.71,0,0,0-1.57-.36q-.82-.08-1.5-.09c-.45,0-.95,0-1.51.06a5.85,5.85,0,0,0-1.57.33,3.26,3.26,0,0,0-1.24.79A2.12,2.12,0,0,0,72.24,140.51Z"/><path d="M77,130.51c-.27,0-.55,0-.83,0l-.83.05v-1.14h1.14v0a2.38,2.38,0,0,1-1-1.08,3.05,3.05,0,0,1-.33-1.35,5.35,5.35,0,0,1,.07-.65,2.61,2.61,0,0,1,.24-.66,2.39,2.39,0,0,1,.48-.59,2.63,2.63,0,0,1,.79-.47,2.5,2.5,0,0,1-1.13-1,2.83,2.83,0,0,1-.4-1.45A2.75,2.75,0,0,1,76,120a3.14,3.14,0,0,1,2.18-.66l4.75,0v1.06l-4.37,0a3.2,3.2,0,0,0-1.75.38,1.66,1.66,0,0,0-.62,1.48,2,2,0,0,0,.22,1,1.93,1.93,0,0,0,.61.66,2.82,2.82,0,0,0,.87.37,4.81,4.81,0,0,0,1,.12l4,0v1.06l-4.37,0a3.18,3.18,0,0,0-1.75.38,1.67,1.67,0,0,0-.62,1.49,3.61,3.61,0,0,0,.06.44,1.64,1.64,0,0,0,.34.71,2.55,2.55,0,0,0,.86.67,3.48,3.48,0,0,0,1.6.32l3.84,0v1Z"/><path d="M77.12,116.88c-.28,0-.55,0-.83,0l-.83,0v-1.13H76.6v0a2.46,2.46,0,0,1-1-1.08,3,3,0,0,1-.32-1.35,3.9,3.9,0,0,1,.07-.65,2.61,2.61,0,0,1,.24-.66,2.19,2.19,0,0,1,.48-.6,2.7,2.7,0,0,1,.79-.46,2.45,2.45,0,0,1-1.13-1,2.83,2.83,0,0,1-.4-1.45,2.73,2.73,0,0,1,.78-2.12,3.2,3.2,0,0,1,2.18-.67l4.75,0v1.06l-4.37,0a3.18,3.18,0,0,0-1.75.39,1.64,1.64,0,0,0-.62,1.48,2,2,0,0,0,.22,1,1.93,1.93,0,0,0,.61.66,2.63,2.63,0,0,0,.87.37,5.47,5.47,0,0,0,1,.12l4,0v1l-4.37,0a3.18,3.18,0,0,0-1.75.38,1.66,1.66,0,0,0-.62,1.48,3.44,3.44,0,0,0,.06.45,1.7,1.7,0,0,0,.34.71,2.55,2.55,0,0,0,.86.67,3.59,3.59,0,0,0,1.6.32l3.84,0v1.06Z"/></g><line class="cls-1" x1="194.63" y1="197.4" x2="100.69" y2="197.4"/><line class="cls-1" x1="194.63" y1="198.52" x2="194.63" y2="196.21"/><line class="cls-1" x1="100.69" y1="198.52" x2="100.69" y2="196.21"/><g class="cls-2"><path d="M125.88,211.67a2.41,2.41,0,0,1-.68-.38,2.65,2.65,0,0,1-.53-.58,3.17,3.17,0,0,1-.36-.74,2.82,2.82,0,0,1-.12-.83,2.91,2.91,0,0,1,.25-1.23,2.79,2.79,0,0,1,.69-.93,3,3,0,0,1,1-.59,3.62,3.62,0,0,1,2.43,0,3.09,3.09,0,0,1,1,.59,2.79,2.79,0,0,1,.69.93,2.91,2.91,0,0,1,.25,1.23,2.53,2.53,0,0,1-.13.83,2.79,2.79,0,0,1-.35.74,2.93,2.93,0,0,1-.53.58,2.41,2.41,0,0,1-.68.38v0a2.67,2.67,0,0,1,1.53,1.05,3.19,3.19,0,0,1,.58,1.92,2.86,2.86,0,0,1-.3,1.33,3.15,3.15,0,0,1-.78,1,3.56,3.56,0,0,1-1.14.65,4.14,4.14,0,0,1-1.37.22,4.08,4.08,0,0,1-1.36-.22,3.46,3.46,0,0,1-1.14-.65,3.15,3.15,0,0,1-.78-1,2.86,2.86,0,0,1-.3-1.33,3.19,3.19,0,0,1,.58-1.92,2.67,2.67,0,0,1,1.53-1.05Zm3.91,2.85a2.29,2.29,0,0,0-.18-.92,2.22,2.22,0,0,0-.49-.74,2.16,2.16,0,0,0-.77-.49,3,3,0,0,0-2,0,2.12,2.12,0,0,0-.76.49,2.22,2.22,0,0,0-.49.74,2.29,2.29,0,0,0-.18.92,2.36,2.36,0,0,0,.18.92,2.29,2.29,0,0,0,.49.73,2.12,2.12,0,0,0,.76.49,3,3,0,0,0,2,0,2.16,2.16,0,0,0,.77-.49,2.29,2.29,0,0,0,.49-.73A2.36,2.36,0,0,0,129.79,214.52Zm-.42-5.29a2.06,2.06,0,0,0-.15-.79,1.76,1.76,0,0,0-.43-.64,2,2,0,0,0-.64-.41,2.08,2.08,0,0,0-.8-.16,2.15,2.15,0,0,0-.8.16,2.26,2.26,0,0,0-.64.41,1.87,1.87,0,0,0-.42.64,2.06,2.06,0,0,0-.15.79,2.16,2.16,0,0,0,.15.81,1.93,1.93,0,0,0,.42.63,2.26,2.26,0,0,0,.64.41,2.15,2.15,0,0,0,.8.15,2.07,2.07,0,0,0,.8-.15,2,2,0,0,0,.64-.41,1.81,1.81,0,0,0,.43-.63A2.16,2.16,0,0,0,129.37,209.23Z"/><path d="M139.24,207.43h-4.62l-.08,3.4a3.77,3.77,0,0,1,.75-.2,4,4,0,0,1,.77-.07,3.75,3.75,0,0,1,1.45.27,3.43,3.43,0,0,1,1.87,1.92,4,4,0,0,1,.26,1.45,3.64,3.64,0,0,1-.29,1.49,3.39,3.39,0,0,1-.8,1.17,3.72,3.72,0,0,1-1.2.76,4.19,4.19,0,0,1-1.52.27,3.71,3.71,0,0,1-1.93-.51,3.28,3.28,0,0,1-1.33-1.51l1.15-.49a2.6,2.6,0,0,0,.9,1.06,2.21,2.21,0,0,0,1.32.39,2.35,2.35,0,0,0,1-.2,2.64,2.64,0,0,0,.81-.53,2.46,2.46,0,0,0,.54-.8,2.54,2.54,0,0,0,.2-1,2.75,2.75,0,0,0-.21-1.09,2.69,2.69,0,0,0-.57-.86,2.57,2.57,0,0,0-.88-.55,3.14,3.14,0,0,0-1.12-.19,4.16,4.16,0,0,0-1.21.17,6,6,0,0,0-1.15.45l.12-5.87h5.77Z"/><path d="M146.3,211.87c0-.27,0-.55,0-.83s0-.55-.05-.83h1.13v1.14h0a2.41,2.41,0,0,1,1.06-1,2.94,2.94,0,0,1,1.35-.34,3.74,3.74,0,0,1,.65.06,2.42,2.42,0,0,1,.67.23,2.19,2.19,0,0,1,.59.48,2.47,2.47,0,0,1,.48.78,2.41,2.41,0,0,1,1-1.13,2.79,2.79,0,0,1,1.45-.42,2.73,2.73,0,0,1,2.13.76,3.12,3.12,0,0,1,.69,2.17v4.75h-1.06v-4.37a3.11,3.11,0,0,0-.4-1.74,1.64,1.64,0,0,0-1.49-.61,2,2,0,0,0-1,.23,1.93,1.93,0,0,0-.65.62,2.84,2.84,0,0,0-.36.87,4.74,4.74,0,0,0-.11,1v4h-1v-4.37a3.2,3.2,0,0,0-.4-1.74,1.65,1.65,0,0,0-1.49-.61L149,211a1.84,1.84,0,0,0-.72.35,2.72,2.72,0,0,0-.66.87,3.51,3.51,0,0,0-.3,1.6v3.84h-1Z"/><path d="M159.93,211.87c0-.27,0-.55,0-.83l-.06-.83H161v1.14h0a2.47,2.47,0,0,1,1.06-1,3,3,0,0,1,1.35-.34,3.74,3.74,0,0,1,.65.06,2.42,2.42,0,0,1,.67.23,2.39,2.39,0,0,1,.6.48,2.65,2.65,0,0,1,.47.78,2.41,2.41,0,0,1,1-1.13,2.79,2.79,0,0,1,1.45-.42,2.73,2.73,0,0,1,2.13.76,3.12,3.12,0,0,1,.69,2.17v4.75H170v-4.37a3.11,3.11,0,0,0-.4-1.74,1.63,1.63,0,0,0-1.49-.61,1.82,1.82,0,0,0-1.64.85,2.84,2.84,0,0,0-.36.87,4.74,4.74,0,0,0-.11,1v4h-1v-4.37a3.2,3.2,0,0,0-.4-1.74,1.65,1.65,0,0,0-1.49-.61l-.44.06a1.74,1.74,0,0,0-.71.35,2.6,2.6,0,0,0-.67.87,3.66,3.66,0,0,0-.29,1.6v3.84h-1.06Z"/></g><line class="cls-1" x1="205.95" y1="83.12" x2="206.06" y2="187.56"/><line class="cls-1" x1="207.07" y1="83.12" x2="204.76" y2="83.13"/><line class="cls-1" x1="207.18" y1="187.56" x2="204.86" y2="187.57"/><g class="cls-2"><path d="M221,163.7a3.79,3.79,0,0,1,1.16-.67,4.28,4.28,0,0,1,1.45-.24,4,4,0,0,1,1.57.3,3.73,3.73,0,0,1,2.06,2.09,4.43,4.43,0,0,1,.29,1.61,4.11,4.11,0,0,1-.23,1.4,4,4,0,0,1-.62,1.11l1.08,1.08-.5.51-1.08-1.06a3.72,3.72,0,0,1-1.18.68,4.17,4.17,0,0,1-1.43.23,4.22,4.22,0,0,1-1.57-.3,3.94,3.94,0,0,1-1.24-.84,3.76,3.76,0,0,1-.82-1.26,4.09,4.09,0,0,1-.28-1.59,4.18,4.18,0,0,1,.22-1.39,4.1,4.1,0,0,1,.62-1.15l-1.08-1.06.5-.51Zm.25,1.25a2.64,2.64,0,0,0-.63,1.81,2.78,2.78,0,0,0,.22,1.17,2.64,2.64,0,0,0,1.57,1.45,3.2,3.2,0,0,0,1.17.21,3,3,0,0,0,1.82-.54Zm4.7,3.63a2.82,2.82,0,0,0,.62-1.79,2.79,2.79,0,0,0-.23-1.18,2.62,2.62,0,0,0-1.57-1.46,3.19,3.19,0,0,0-1.16-.21,3.15,3.15,0,0,0-1.83.53Z"/><path d="M227.38,152v1.15l-9.88-.06,1.78,2-.87.72L216.05,153v-1Z"/><path d="M227.43,143.13v1.15l-9.88-.05,1.78,2-.87.71-2.35-2.89v-1Z"/><path d="M227.49,131.83l0,7.2h-1.33l-4.56-4.54L221,134a5.41,5.41,0,0,0-.61-.46,2.82,2.82,0,0,0-.67-.34A2.26,2.26,0,0,0,219,133a2.05,2.05,0,0,0-.83.17,1.68,1.68,0,0,0-.62.47,1.94,1.94,0,0,0-.4.7,2.6,2.6,0,0,0-.14.84,2.32,2.32,0,0,0,.47,1.48,2.17,2.17,0,0,0,1.29.79l-.13,1.22a3.24,3.24,0,0,1-2-1.17,3.55,3.55,0,0,1-.71-2.24,5,5,0,0,1,.19-1.3,3.51,3.51,0,0,1,.56-1.09,2.85,2.85,0,0,1,.93-.75,2.92,2.92,0,0,1,1.29-.27,3.36,3.36,0,0,1,1.2.21,4.9,4.9,0,0,1,1,.52,6.32,6.32,0,0,1,.9.74c.29.27.57.55.85.84l3.51,3.59,0-5.95Z"/><path d="M221.71,125.27l-.84,0-.83,0v-1.13h1.13v0a2.47,2.47,0,0,1-1-1.07,3,3,0,0,1-.26-2,2.25,2.25,0,0,1,.23-.66,2.39,2.39,0,0,1,.48-.6,2.65,2.65,0,0,1,.78-.47,2.47,2.47,0,0,1-1.13-1,2.74,2.74,0,0,1-.4-1.45,2.69,2.69,0,0,1,.77-2.12,3.12,3.12,0,0,1,2.17-.68l4.75,0v1l-4.36,0a3.27,3.27,0,0,0-1.75.39,1.62,1.62,0,0,0-.61,1.48,1.92,1.92,0,0,0,.22,1,2,2,0,0,0,.61.65,2.58,2.58,0,0,0,.87.36,4.31,4.31,0,0,0,1,.12l4,0v1.06l-4.37,0a3.09,3.09,0,0,0-1.75.39,1.65,1.65,0,0,0-.61,1.48,3.37,3.37,0,0,0,.06.44,1.62,1.62,0,0,0,.35.71,2.45,2.45,0,0,0,.86.67,3.45,3.45,0,0,0,1.59.31l3.84,0v1.06Z"/><path d="M221.78,111.64l-.83,0-.83,0v-1.13h1.14v0a2.5,2.5,0,0,1-1-1.07,2.91,2.91,0,0,1-.32-1.35,3.83,3.83,0,0,1,.06-.65,2.28,2.28,0,0,1,.24-.66,2.18,2.18,0,0,1,.47-.6,2.63,2.63,0,0,1,.79-.47,2.42,2.42,0,0,1-1.13-1,2.87,2.87,0,0,1-.41-1.45,2.73,2.73,0,0,1,.77-2.12,3.15,3.15,0,0,1,2.18-.68l4.75,0v1l-4.37,0a3.08,3.08,0,0,0-1.74.39,1.65,1.65,0,0,0-.62,1.48,1.92,1.92,0,0,0,.23,1,2,2,0,0,0,.61.65,2.8,2.8,0,0,0,.87.36,4.17,4.17,0,0,0,1,.12l4,0v1.06l-4.37,0a3.25,3.25,0,0,0-1.74.39,1.67,1.67,0,0,0-.62,1.49,3.61,3.61,0,0,0,.06.44,1.74,1.74,0,0,0,.35.71,2.55,2.55,0,0,0,.86.67,3.66,3.66,0,0,0,1.6.31l3.84,0v1Z"/></g><path class="cls-3" d="M193.73,147.22l0,0m-.18-26.06a41.13,41.13,0,0,0-79-12m0,0-.27,53m0,0a41.12,41.12,0,0,0,79.11-11.15m-78.84-41.88-.27,53m0,0a41.12,41.12,0,0,0,79.11-11.15m0,0a149.4,149.4,0,0,0,.79-15m-79.9,26.1a41.12,41.12,0,0,0,79.11-11.15m0,0a149.4,149.4,0,0,0,.79-15m0,0c0-5.17-.17-9.83-.63-15m.63,15c0-5.17-.17-9.83-.63-15m.63,15c0-5.17-.17-9.83-.63-15m-79-12-.27,53M100.54,110l-.27,51.29m14,.91.27-53m-14.29,52,2.81,0c.51,0,.83,0,.91-.41l0-.52,0-9.21h6.57l-.05,9.27m3.72.95-2.8,0a.93.93,0,0,1-.65-.27,1,1,0,0,1-.27-.66m4-50.23h-2.76c-.52,0-.84,0-.91.41l0,.52,0,9.17-6.52-.06V111a.9.9,0,0,0-.27-.66.88.88,0,0,0-.65-.28l-2.79,0m10.28,9.71L110.66,151m-6.43-30.56-.16,31.25"/><line class="cls-1" x1="91.54" y1="161.35" x2="92.06" y2="110.24"/><line class="cls-1" x1="90.5" y1="161.34" x2="92.58" y2="161.36"/><line class="cls-1" x1="91.02" y1="110.23" x2="93.09" y2="110.25"/><g class="cls-2"><path d="M76.16,160a3.79,3.79,0,0,1,1.16-.67,4,4,0,0,1,1.45-.23,4.22,4.22,0,0,1,1.57.31,3.73,3.73,0,0,1,2,2.1,4.43,4.43,0,0,1,.28,1.61,4.36,4.36,0,0,1-.24,1.4,3.75,3.75,0,0,1-.62,1.11l1.08,1.08-.5.51-1.08-1.07a3.83,3.83,0,0,1-1.18.68,4.26,4.26,0,0,1-1.44.22,4,4,0,0,1-1.56-.31,3.68,3.68,0,0,1-1.24-.84,3.6,3.6,0,0,1-.81-1.26,4,4,0,0,1-.28-1.6,4.18,4.18,0,0,1,.23-1.39,3.54,3.54,0,0,1,.63-1.14l-1.08-1.07.5-.51Zm.24,1.25a2.64,2.64,0,0,0-.64,1.8,2.79,2.79,0,0,0,.22,1.18,2.59,2.59,0,0,0,.62.89,3,3,0,0,0,.94.57,3.19,3.19,0,0,0,1.16.21,2.94,2.94,0,0,0,1.83-.53Zm4.68,3.65a2.53,2.53,0,0,0,.46-.8,2.78,2.78,0,0,0,.17-1,2.91,2.91,0,0,0-.22-1.17,2.73,2.73,0,0,0-.62-.9,2.91,2.91,0,0,0-.94-.58,3.68,3.68,0,0,0-1.17-.21,3.17,3.17,0,0,0-1.83.53Z"/><path d="M76.14,150.83l0,0a1.83,1.83,0,0,1-.28-.73,4.3,4.3,0,0,1-.09-.84,3.59,3.59,0,0,1,.28-1.36,3.34,3.34,0,0,1,.74-1.09,3.23,3.23,0,0,1,1.11-.72,3.8,3.8,0,0,1,1.41-.25,3.6,3.6,0,0,1,1.42.29,3.07,3.07,0,0,1,1.1.78,3.63,3.63,0,0,1,.71,1.17,4.39,4.39,0,0,1,0,3,3.59,3.59,0,0,1-.74,1.16,3.16,3.16,0,0,1-1.11.75,3.46,3.46,0,0,1-1.42.26,4.38,4.38,0,0,1-1.65-.3,8.2,8.2,0,0,1-1.38-.71l-4.95-3.1v-1.36ZM79.28,152a2.64,2.64,0,0,0,1-.17,2.32,2.32,0,0,0,.78-.52,2.24,2.24,0,0,0,.51-.79,2.61,2.61,0,0,0,.19-1,3.05,3.05,0,0,0-.16-1,2.26,2.26,0,0,0-.5-.8,2.17,2.17,0,0,0-.77-.53,2.65,2.65,0,0,0-1-.2,2.73,2.73,0,0,0-1,.18,2.35,2.35,0,0,0-.77.51,2.68,2.68,0,0,0-.51.79,3,3,0,0,0,0,2,2.54,2.54,0,0,0,.49.81,2.46,2.46,0,0,0,.77.53A2.61,2.61,0,0,0,79.28,152Z"/><path d="M71.19,140.5a3.15,3.15,0,0,1,.58-2,3.67,3.67,0,0,1,1.43-1.15,6.43,6.43,0,0,1,1.9-.54,13.07,13.07,0,0,1,4,0,6.46,6.46,0,0,1,1.9.57,3.87,3.87,0,0,1,1.41,1.19,3.73,3.73,0,0,1,0,3.93,3.9,3.9,0,0,1-1.44,1.16,6.43,6.43,0,0,1-1.9.54,13.65,13.65,0,0,1-2,.12,15.21,15.21,0,0,1-2-.16,6.62,6.62,0,0,1-1.89-.58,3.78,3.78,0,0,1-1.41-1.18A3.22,3.22,0,0,1,71.19,140.5Zm1,0a2.13,2.13,0,0,0,.48,1.47,3.1,3.1,0,0,0,1.23.82,5.73,5.73,0,0,0,1.56.36,14.24,14.24,0,0,0,1.5.09c.45,0,.95,0,1.51-.06a6.17,6.17,0,0,0,1.57-.32,3.2,3.2,0,0,0,1.24-.8,2.42,2.42,0,0,0,0-2.93,3.25,3.25,0,0,0-1.22-.82,5.71,5.71,0,0,0-1.57-.36q-.82-.08-1.5-.09c-.45,0-.95,0-1.51.06a5.85,5.85,0,0,0-1.57.33,3.26,3.26,0,0,0-1.24.79A2.12,2.12,0,0,0,72.24,140.51Z"/><path d="M77,130.51c-.27,0-.55,0-.83,0l-.83.05v-1.14h1.14v0a2.38,2.38,0,0,1-1-1.08,3.05,3.05,0,0,1-.33-1.35,5.35,5.35,0,0,1,.07-.65,2.61,2.61,0,0,1,.24-.66,2.39,2.39,0,0,1,.48-.59,2.63,2.63,0,0,1,.79-.47,2.5,2.5,0,0,1-1.13-1,2.83,2.83,0,0,1-.4-1.45A2.75,2.75,0,0,1,76,120a3.14,3.14,0,0,1,2.18-.66l4.75,0v1.06l-4.37,0a3.2,3.2,0,0,0-1.75.38,1.66,1.66,0,0,0-.62,1.48,2,2,0,0,0,.22,1,1.93,1.93,0,0,0,.61.66,2.82,2.82,0,0,0,.87.37,4.81,4.81,0,0,0,1,.12l4,0v1.06l-4.37,0a3.18,3.18,0,0,0-1.75.38,1.67,1.67,0,0,0-.62,1.49,3.61,3.61,0,0,0,.06.44,1.64,1.64,0,0,0,.34.71,2.55,2.55,0,0,0,.86.67,3.48,3.48,0,0,0,1.6.32l3.84,0v1Z"/><path d="M77.12,116.88c-.28,0-.55,0-.83,0l-.83,0v-1.13H76.6v0a2.46,2.46,0,0,1-1-1.08,3,3,0,0,1-.32-1.35,3.9,3.9,0,0,1,.07-.65,2.61,2.61,0,0,1,.24-.66,2.19,2.19,0,0,1,.48-.6,2.7,2.7,0,0,1,.79-.46,2.45,2.45,0,0,1-1.13-1,2.83,2.83,0,0,1-.4-1.45,2.73,2.73,0,0,1,.78-2.12,3.2,3.2,0,0,1,2.18-.67l4.75,0v1.06l-4.37,0a3.18,3.18,0,0,0-1.75.39,1.64,1.64,0,0,0-.62,1.48,2,2,0,0,0,.22,1,1.93,1.93,0,0,0,.61.66,2.63,2.63,0,0,0,.87.37,5.47,5.47,0,0,0,1,.12l4,0v1l-4.37,0a3.18,3.18,0,0,0-1.75.38,1.66,1.66,0,0,0-.62,1.48,3.44,3.44,0,0,0,.06.45,1.7,1.7,0,0,0,.34.71,2.55,2.55,0,0,0,.86.67,3.59,3.59,0,0,0,1.6.32l3.84,0v1.06Z"/></g><line class="cls-1" x1="194.63" y1="197.4" x2="100.69" y2="197.4"/><line class="cls-1" x1="194.63" y1="198.52" x2="194.63" y2="196.21"/><line class="cls-1" x1="100.69" y1="198.52" x2="100.69" y2="196.21"/><g class="cls-2"><path d="M125.88,211.67a2.41,2.41,0,0,1-.68-.38,2.65,2.65,0,0,1-.53-.58,3.17,3.17,0,0,1-.36-.74,2.82,2.82,0,0,1-.12-.83,2.91,2.91,0,0,1,.25-1.23,2.79,2.79,0,0,1,.69-.93,3,3,0,0,1,1-.59,3.62,3.62,0,0,1,2.43,0,3.09,3.09,0,0,1,1,.59,2.79,2.79,0,0,1,.69.93,2.91,2.91,0,0,1,.25,1.23,2.53,2.53,0,0,1-.13.83,2.79,2.79,0,0,1-.35.74,2.93,2.93,0,0,1-.53.58,2.41,2.41,0,0,1-.68.38v0a2.67,2.67,0,0,1,1.53,1.05,3.19,3.19,0,0,1,.58,1.92,2.86,2.86,0,0,1-.3,1.33,3.15,3.15,0,0,1-.78,1,3.56,3.56,0,0,1-1.14.65,4.14,4.14,0,0,1-1.37.22,4.08,4.08,0,0,1-1.36-.22,3.46,3.46,0,0,1-1.14-.65,3.15,3.15,0,0,1-.78-1,2.86,2.86,0,0,1-.3-1.33,3.19,3.19,0,0,1,.58-1.92,2.67,2.67,0,0,1,1.53-1.05Zm3.91,2.85a2.29,2.29,0,0,0-.18-.92,2.22,2.22,0,0,0-.49-.74,2.16,2.16,0,0,0-.77-.49,3,3,0,0,0-2,0,2.12,2.12,0,0,0-.76.49,2.22,2.22,0,0,0-.49.74,2.29,2.29,0,0,0-.18.92,2.36,2.36,0,0,0,.18.92,2.29,2.29,0,0,0,.49.73,2.12,2.12,0,0,0,.76.49,3,3,0,0,0,2,0,2.16,2.16,0,0,0,.77-.49,2.29,2.29,0,0,0,.49-.73A2.36,2.36,0,0,0,129.79,214.52Zm-.42-5.29a2.06,2.06,0,0,0-.15-.79,1.76,1.76,0,0,0-.43-.64,2,2,0,0,0-.64-.41,2.08,2.08,0,0,0-.8-.16,2.15,2.15,0,0,0-.8.16,2.26,2.26,0,0,0-.64.41,1.87,1.87,0,0,0-.42.64,2.06,2.06,0,0,0-.15.79,2.16,2.16,0,0,0,.15.81,1.93,1.93,0,0,0,.42.63,2.26,2.26,0,0,0,.64.41,2.15,2.15,0,0,0,.8.15,2.07,2.07,0,0,0,.8-.15,2,2,0,0,0,.64-.41,1.81,1.81,0,0,0,.43-.63A2.16,2.16,0,0,0,129.37,209.23Z"/><path d="M139.24,207.43h-4.62l-.08,3.4a3.77,3.77,0,0,1,.75-.2,4,4,0,0,1,.77-.07,3.75,3.75,0,0,1,1.45.27,3.43,3.43,0,0,1,1.87,1.92,4,4,0,0,1,.26,1.45,3.64,3.64,0,0,1-.29,1.49,3.39,3.39,0,0,1-.8,1.17,3.72,3.72,0,0,1-1.2.76,4.19,4.19,0,0,1-1.52.27,3.71,3.71,0,0,1-1.93-.51,3.28,3.28,0,0,1-1.33-1.51l1.15-.49a2.6,2.6,0,0,0,.9,1.06,2.21,2.21,0,0,0,1.32.39,2.35,2.35,0,0,0,1-.2,2.64,2.64,0,0,0,.81-.53,2.46,2.46,0,0,0,.54-.8,2.54,2.54,0,0,0,.2-1,2.75,2.75,0,0,0-.21-1.09,2.69,2.69,0,0,0-.57-.86,2.57,2.57,0,0,0-.88-.55,3.14,3.14,0,0,0-1.12-.19,4.16,4.16,0,0,0-1.21.17,6,6,0,0,0-1.15.45l.12-5.87h5.77Z"/><path d="M146.3,211.87c0-.27,0-.55,0-.83s0-.55-.05-.83h1.13v1.14h0a2.41,2.41,0,0,1,1.06-1,2.94,2.94,0,0,1,1.35-.34,3.74,3.74,0,0,1,.65.06,2.42,2.42,0,0,1,.67.23,2.19,2.19,0,0,1,.59.48,2.47,2.47,0,0,1,.48.78,2.41,2.41,0,0,1,1-1.13,2.79,2.79,0,0,1,1.45-.42,2.73,2.73,0,0,1,2.13.76,3.12,3.12,0,0,1,.69,2.17v4.75h-1.06v-4.37a3.11,3.11,0,0,0-.4-1.74,1.64,1.64,0,0,0-1.49-.61,2,2,0,0,0-1,.23,1.93,1.93,0,0,0-.65.62,2.84,2.84,0,0,0-.36.87,4.74,4.74,0,0,0-.11,1v4h-1v-4.37a3.2,3.2,0,0,0-.4-1.74,1.65,1.65,0,0,0-1.49-.61L149,211a1.84,1.84,0,0,0-.72.35,2.72,2.72,0,0,0-.66.87,3.51,3.51,0,0,0-.3,1.6v3.84h-1Z"/><path d="M159.93,211.87c0-.27,0-.55,0-.83l-.06-.83H161v1.14h0a2.47,2.47,0,0,1,1.06-1,3,3,0,0,1,1.35-.34,3.74,3.74,0,0,1,.65.06,2.42,2.42,0,0,1,.67.23,2.39,2.39,0,0,1,.6.48,2.65,2.65,0,0,1,.47.78,2.41,2.41,0,0,1,1-1.13,2.79,2.79,0,0,1,1.45-.42,2.73,2.73,0,0,1,2.13.76,3.12,3.12,0,0,1,.69,2.17v4.75H170v-4.37a3.11,3.11,0,0,0-.4-1.74,1.63,1.63,0,0,0-1.49-.61,1.82,1.82,0,0,0-1.64.85,2.84,2.84,0,0,0-.36.87,4.74,4.74,0,0,0-.11,1v4h-1v-4.37a3.2,3.2,0,0,0-.4-1.74,1.65,1.65,0,0,0-1.49-.61l-.44.06a1.74,1.74,0,0,0-.71.35,2.6,2.6,0,0,0-.67.87,3.66,3.66,0,0,0-.29,1.6v3.84h-1.06Z"/></g><line class="cls-1" x1="205.95" y1="83.12" x2="206.06" y2="187.56"/><line class="cls-1" x1="207.07" y1="83.12" x2="204.76" y2="83.13"/><line class="cls-1" x1="207.18" y1="187.56" x2="204.86" y2="187.57"/><g class="cls-2"><path d="M221,163.7a3.79,3.79,0,0,1,1.16-.67,4.28,4.28,0,0,1,1.45-.24,4,4,0,0,1,1.57.3,3.73,3.73,0,0,1,2.06,2.09,4.43,4.43,0,0,1,.29,1.61,4.11,4.11,0,0,1-.23,1.4,4,4,0,0,1-.62,1.11l1.08,1.08-.5.51-1.08-1.06a3.72,3.72,0,0,1-1.18.68,4.17,4.17,0,0,1-1.43.23,4.22,4.22,0,0,1-1.57-.3,3.94,3.94,0,0,1-1.24-.84,3.76,3.76,0,0,1-.82-1.26,4.09,4.09,0,0,1-.28-1.59,4.18,4.18,0,0,1,.22-1.39,4.1,4.1,0,0,1,.62-1.15l-1.08-1.06.5-.51Zm.25,1.25a2.64,2.64,0,0,0-.63,1.81,2.78,2.78,0,0,0,.22,1.17,2.64,2.64,0,0,0,1.57,1.45,3.2,3.2,0,0,0,1.17.21,3,3,0,0,0,1.82-.54Zm4.7,3.63a2.82,2.82,0,0,0,.62-1.79,2.79,2.79,0,0,0-.23-1.18,2.62,2.62,0,0,0-1.57-1.46,3.19,3.19,0,0,0-1.16-.21,3.15,3.15,0,0,0-1.83.53Z"/><path d="M227.38,152v1.15l-9.88-.06,1.78,2-.87.72L216.05,153v-1Z"/><path d="M227.43,143.13v1.15l-9.88-.05,1.78,2-.87.71-2.35-2.89v-1Z"/><path d="M227.49,131.83l0,7.2h-1.33l-4.56-4.54L221,134a5.41,5.41,0,0,0-.61-.46,2.82,2.82,0,0,0-.67-.34A2.26,2.26,0,0,0,219,133a2.05,2.05,0,0,0-.83.17,1.68,1.68,0,0,0-.62.47,1.94,1.94,0,0,0-.4.7,2.6,2.6,0,0,0-.14.84,2.32,2.32,0,0,0,.47,1.48,2.17,2.17,0,0,0,1.29.79l-.13,1.22a3.24,3.24,0,0,1-2-1.17,3.55,3.55,0,0,1-.71-2.24,5,5,0,0,1,.19-1.3,3.51,3.51,0,0,1,.56-1.09,2.85,2.85,0,0,1,.93-.75,2.92,2.92,0,0,1,1.29-.27,3.36,3.36,0,0,1,1.2.21,4.9,4.9,0,0,1,1,.52,6.32,6.32,0,0,1,.9.74c.29.27.57.55.85.84l3.51,3.59,0-5.95Z"/><path d="M221.71,125.27l-.84,0-.83,0v-1.13h1.13v0a2.47,2.47,0,0,1-1-1.07,3,3,0,0,1-.26-2,2.25,2.25,0,0,1,.23-.66,2.39,2.39,0,0,1,.48-.6,2.65,2.65,0,0,1,.78-.47,2.47,2.47,0,0,1-1.13-1,2.74,2.74,0,0,1-.4-1.45,2.69,2.69,0,0,1,.77-2.12,3.12,3.12,0,0,1,2.17-.68l4.75,0v1l-4.36,0a3.27,3.27,0,0,0-1.75.39,1.62,1.62,0,0,0-.61,1.48,1.92,1.92,0,0,0,.22,1,2,2,0,0,0,.61.65,2.58,2.58,0,0,0,.87.36,4.31,4.31,0,0,0,1,.12l4,0v1.06l-4.37,0a3.09,3.09,0,0,0-1.75.39,1.65,1.65,0,0,0-.61,1.48,3.37,3.37,0,0,0,.06.44,1.62,1.62,0,0,0,.35.71,2.45,2.45,0,0,0,.86.67,3.45,3.45,0,0,0,1.59.31l3.84,0v1.06Z"/><path d="M221.78,111.64l-.83,0-.83,0v-1.13h1.14v0a2.5,2.5,0,0,1-1-1.07,2.91,2.91,0,0,1-.32-1.35,3.83,3.83,0,0,1,.06-.65,2.28,2.28,0,0,1,.24-.66,2.18,2.18,0,0,1,.47-.6,2.63,2.63,0,0,1,.79-.47,2.42,2.42,0,0,1-1.13-1,2.87,2.87,0,0,1-.41-1.45,2.73,2.73,0,0,1,.77-2.12,3.15,3.15,0,0,1,2.18-.68l4.75,0v1l-4.37,0a3.08,3.08,0,0,0-1.74.39,1.65,1.65,0,0,0-.62,1.48,1.92,1.92,0,0,0,.23,1,2,2,0,0,0,.61.65,2.8,2.8,0,0,0,.87.36,4.17,4.17,0,0,0,1,.12l4,0v1.06l-4.37,0a3.25,3.25,0,0,0-1.74.39,1.67,1.67,0,0,0-.62,1.49,3.61,3.61,0,0,0,.06.44,1.74,1.74,0,0,0,.35.71,2.55,2.55,0,0,0,.86.67,3.66,3.66,0,0,0,1.6.31l3.84,0v1Z"/></g><path class="cls-3" d="M193.73,147.22l0,0m-.18-26.06a41.13,41.13,0,0,0-79-12m0,0-.27,53m0,0a41.12,41.12,0,0,0,79.11-11.15m-78.84-41.88-.27,53m0,0a41.12,41.12,0,0,0,79.11-11.15m0,0a149.4,149.4,0,0,0,.79-15m-79.9,26.1a41.12,41.12,0,0,0,79.11-11.15m0,0a149.4,149.4,0,0,0,.79-15m0,0c0-5.17-.17-9.83-.63-15m.63,15c0-5.17-.17-9.83-.63-15m.63,15c0-5.17-.17-9.83-.63-15m-79-12-.27,53M100.54,110l-.27,51.29m14,.91.27-53m-14.29,52,2.81,0c.51,0,.83,0,.91-.41l0-.52,0-9.21h6.57l-.05,9.27m3.72.95-2.8,0a.93.93,0,0,1-.65-.27,1,1,0,0,1-.27-.66m4-50.23h-2.76c-.52,0-.84,0-.91.41l0,.52,0,9.17-6.52-.06V111a.9.9,0,0,0-.27-.66.88.88,0,0,0-.65-.28l-2.79,0m10.28,9.71L110.66,151m-6.43-30.56-.16,31.25"/></svg>