<svg id="Mini_Glo_Ball_T" xmlns="http://www.w3.org/2000/svg" viewBox="0 0 300 263"><defs><style>.cls-1,.cls-3{fill:none;stroke-width:0.5px;}.cls-1{stroke:#000;}.cls-2{isolation:isolate;}.cls-3{stroke:#1d1d1b;stroke-miterlimit:3.86;}</style></defs><title>glo-ball-mini--table-morrison-flos-F4191009-spech-tech-02-300x263</title><line class="cls-1" x1="94.75" y1="227.2" x2="205.25" y2="227.2"/><line class="cls-1" x1="94.75" y1="223.82" x2="94.75" y2="230.58"/><line class="cls-1" x1="205.25" y1="223.82" x2="205.25" y2="230.58"/><g class="cls-2"><path d="M120.22,240.51a3.58,3.58,0,0,1,.71,1.16,4,4,0,0,1,.25,1.44,4,4,0,0,1-.3,1.57,3.79,3.79,0,0,1-2.16,2.07,4.51,4.51,0,0,1-1.67.3,4.81,4.81,0,0,1-1.46-.22,4.2,4.2,0,0,1-1.15-.61l-1.11,1.09-.53-.5,1.09-1.09a3.5,3.5,0,0,1-.71-1.17,4,4,0,0,1-.25-1.44,3.85,3.85,0,0,1,.31-1.56,3.75,3.75,0,0,1,.85-1.25,4,4,0,0,1,1.31-.83,4.61,4.61,0,0,1,1.65-.29,4.73,4.73,0,0,1,1.44.21,4.14,4.14,0,0,1,1.2.62l1.1-1.09.53.5Zm-1.29.25a2.88,2.88,0,0,0-1.88-.62,3,3,0,0,0-1.22.23,2.74,2.74,0,0,0-.92.63,2.86,2.86,0,0,0-.58.95,3.19,3.19,0,0,0-.21,1.16,2.9,2.9,0,0,0,.57,1.83Zm-3.74,4.72a2.88,2.88,0,0,0,.83.45,3.05,3.05,0,0,0,1,.16,3.16,3.16,0,0,0,1.22-.23,2.89,2.89,0,0,0,.92-.63,2.82,2.82,0,0,0,.59-.95,3.2,3.2,0,0,0,.21-1.17,3,3,0,0,0-.57-1.82Z"/><path d="M132.38,246.86h-1.2V237l-2.11,1.79-.74-.86,3-2.37h1.06Z"/><path d="M141.62,246.86h-1.2V237l-2.11,1.79-.75-.86,3-2.37h1.07Z"/><path d="M153.35,246.86h-7.48v-1.33l4.68-4.59c.18-.17.36-.36.54-.55a7,7,0,0,0,.48-.6,3.65,3.65,0,0,0,.35-.68,2.24,2.24,0,0,0,.13-.73,2,2,0,0,0-.17-.83,1.71,1.71,0,0,0-.5-.63,2.22,2.22,0,0,0-.73-.39,2.8,2.8,0,0,0-.88-.14,2.44,2.44,0,0,0-1.52.48,2.12,2.12,0,0,0-.82,1.3l-1.26-.13a3.15,3.15,0,0,1,1.2-2,3.75,3.75,0,0,1,2.32-.72,4.89,4.89,0,0,1,1.35.18,3.4,3.4,0,0,1,1.13.55,2.62,2.62,0,0,1,1.08,2.21,3.29,3.29,0,0,1-.21,1.2,5.06,5.06,0,0,1-.54,1,7.19,7.19,0,0,1-.76.91c-.28.29-.57.57-.87.85l-3.7,3.53h6.18Z"/><path d="M160.12,241c0-.27,0-.55,0-.83l-.06-.83h1.18v1.14h0a2.62,2.62,0,0,1,1.11-1,3.29,3.29,0,0,1,1.4-.33,4,4,0,0,1,.67.06,2.44,2.44,0,0,1,.69.23,2.29,2.29,0,0,1,.63.48,2.67,2.67,0,0,1,.49.78,2.51,2.51,0,0,1,1-1.14,3,3,0,0,1,1.5-.41,2.87,2.87,0,0,1,2.21.76,3,3,0,0,1,.72,2.17v4.75h-1.1v-4.37a3.11,3.11,0,0,0-.41-1.74,1.75,1.75,0,0,0-1.55-.61,2,2,0,0,0-1,.23,1.82,1.82,0,0,0-.67.62,2.64,2.64,0,0,0-.38.87,4.74,4.74,0,0,0-.11,1v4h-1.1v-4.37a3.11,3.11,0,0,0-.41-1.74,1.74,1.74,0,0,0-1.55-.61l-.45.06a1.72,1.72,0,0,0-.74.35,2.51,2.51,0,0,0-.69.87,3.34,3.34,0,0,0-.31,1.6v3.84h-1.1Z"/><path d="M174.28,241c0-.27,0-.55,0-.83l-.06-.83h1.18v1.14h0a2.54,2.54,0,0,1,1.1-1,3.29,3.29,0,0,1,1.4-.33,4.18,4.18,0,0,1,.68.06,2.55,2.55,0,0,1,.69.23,2.12,2.12,0,0,1,.62.48,2.48,2.48,0,0,1,.49.78,2.51,2.51,0,0,1,1.05-1.14,3.09,3.09,0,0,1,1.51-.41,2.9,2.9,0,0,1,2.21.76,3.07,3.07,0,0,1,.71,2.17v4.75h-1.09v-4.37a3,3,0,0,0-.42-1.74,1.74,1.74,0,0,0-1.55-.61,2,2,0,0,0-1,.23,1.85,1.85,0,0,0-.68.62,2.63,2.63,0,0,0-.37.87,4.17,4.17,0,0,0-.12,1v4h-1.09v-4.37a3,3,0,0,0-.42-1.74,1.73,1.73,0,0,0-1.54-.61l-.46.06a1.72,1.72,0,0,0-.74.35,2.51,2.51,0,0,0-.69.87,3.34,3.34,0,0,0-.31,1.6v3.84h-1.09Z"/></g><line class="cls-1" x1="216" y1="218.37" x2="216" y2="126.99"/><line class="cls-1" x1="215.09" y1="218.37" x2="216.91" y2="218.37"/><line class="cls-1" x1="215.09" y1="126.99" x2="216.91" y2="126.99"/><g class="cls-2"><path d="M230.56,191.61l0,0a1.83,1.83,0,0,1,.29.73,3.69,3.69,0,0,1,.1.84,3.45,3.45,0,0,1-.27,1.37,3.24,3.24,0,0,1-.72,1.09,3.4,3.4,0,0,1-1.11.73,3.54,3.54,0,0,1-1.41.26,3.63,3.63,0,0,1-1.42-.27,3,3,0,0,1-1.1-.77,3.54,3.54,0,0,1-.72-1.16,4.31,4.31,0,0,1,0-3,3.59,3.59,0,0,1,.72-1.17,3.15,3.15,0,0,1,1.1-.76,3.63,3.63,0,0,1,1.42-.28,4.6,4.6,0,0,1,1.65.28,9,9,0,0,1,1.39.7l5,3.06v1.36Zm-3.16-1.15a2.64,2.64,0,0,0-1,.18,2.28,2.28,0,0,0-.77.52,2.41,2.41,0,0,0-.5.8,3,3,0,0,0,0,2,2.52,2.52,0,0,0,.5.8,2.28,2.28,0,0,0,.77.52,2.84,2.84,0,0,0,2,0,2.31,2.31,0,0,0,1.28-1.32,3.18,3.18,0,0,0,0-2,2.29,2.29,0,0,0-.51-.8,2.38,2.38,0,0,0-.77-.52A2.66,2.66,0,0,0,227.4,190.46Z"/><path d="M223.9,184.09a3.24,3.24,0,0,1,.56-2,3.86,3.86,0,0,1,1.42-1.17,6.77,6.77,0,0,1,1.9-.56,14,14,0,0,1,3.95,0,6.77,6.77,0,0,1,1.9.56,3.86,3.86,0,0,1,1.42,1.17,3.75,3.75,0,0,1,0,3.94,3.74,3.74,0,0,1-1.42,1.16,6.46,6.46,0,0,1-1.9.57,14,14,0,0,1-3.95,0,6.46,6.46,0,0,1-1.9-.57,3.74,3.74,0,0,1-1.42-1.16A3.26,3.26,0,0,1,223.9,184.09Zm1.06,0a2,2,0,0,0,.49,1.46,3.08,3.08,0,0,0,1.23.81,6.19,6.19,0,0,0,1.57.35c.56,0,1.06.07,1.51.07s1,0,1.5-.07a6.19,6.19,0,0,0,1.57-.35,3.08,3.08,0,0,0,1.23-.81,2.05,2.05,0,0,0,.5-1.46,2.09,2.09,0,0,0-.5-1.47,3.17,3.17,0,0,0-1.23-.8,5.79,5.79,0,0,0-1.57-.35c-.55-.05-1.06-.07-1.5-.07s-.95,0-1.51.07a5.79,5.79,0,0,0-1.57.35,3.17,3.17,0,0,0-1.23.8A2.09,2.09,0,0,0,225,184.09Z"/><path d="M229.6,174l-.84,0-.83.06V173h1.14v0a2.41,2.41,0,0,1-1-1.06,3,3,0,0,1-.34-1.35,3.74,3.74,0,0,1,.06-.65,2.45,2.45,0,0,1,.24-.67,2.34,2.34,0,0,1,.47-.6,2.65,2.65,0,0,1,.78-.47,2.41,2.41,0,0,1-1.13-1,2.79,2.79,0,0,1-.42-1.45,2.73,2.73,0,0,1,.76-2.13,3.12,3.12,0,0,1,2.17-.69h4.75v1.06h-4.37a3.11,3.11,0,0,0-1.74.4,1.64,1.64,0,0,0-.61,1.49,2,2,0,0,0,.23,1,1.93,1.93,0,0,0,.62.65,2.84,2.84,0,0,0,.87.36,4.83,4.83,0,0,0,1,.11h4v1h-4.37a3.2,3.2,0,0,0-1.74.4,1.65,1.65,0,0,0-.61,1.49,3.37,3.37,0,0,0,.06.44,1.65,1.65,0,0,0,.36.71,2.55,2.55,0,0,0,.86.67,3.52,3.52,0,0,0,1.6.29h3.84V174Z"/><path d="M229.6,160.41l-.84,0-.83.06v-1.14h1.14v0a2.47,2.47,0,0,1-1-1.06,3,3,0,0,1-.34-1.36,3.72,3.72,0,0,1,.06-.64,2.45,2.45,0,0,1,.24-.67,2.34,2.34,0,0,1,.47-.6,2.65,2.65,0,0,1,.78-.47,2.38,2.38,0,0,1-1.13-1,3.06,3.06,0,0,1,.34-3.57,3.12,3.12,0,0,1,2.17-.69h4.75v1.06h-4.37a3.11,3.11,0,0,0-1.74.4,1.62,1.62,0,0,0-.61,1.48,2,2,0,0,0,.23,1,1.9,1.9,0,0,0,.62.64,2.42,2.42,0,0,0,.87.36,4.25,4.25,0,0,0,1,.12h4v1h-4.37a3.2,3.2,0,0,0-1.74.4,1.65,1.65,0,0,0-.61,1.49,3.61,3.61,0,0,0,.06.44,1.65,1.65,0,0,0,.36.71,2.55,2.55,0,0,0,.86.67,3.66,3.66,0,0,0,1.6.29h3.84v1.06Z"/></g><path class="cls-3" d="M122.84,210.11s-28.09-7.5-28.09-40.64c0-31.34,25.87-43.61,53.21-43.61H152c27.34,0,53.21,12.27,53.21,43.61,0,33.14-28,40.32-28,40.32Z"/><polygon class="cls-3" points="122.2 210.28 122.2 214.36 177.79 214.36 177.79 209.95 122.2 210.28"/></svg>