<svg id="Glo-ball_F2" data-name="Glo-ball F2" xmlns="http://www.w3.org/2000/svg" viewBox="0 0 300 263"><defs><style>.cls-1,.cls-3{fill:none;stroke-width:0.5px;}.cls-1{stroke:#1a171b;stroke-linecap:round;stroke-linejoin:round;}.cls-2{isolation:isolate;}.cls-3{stroke:#000;}</style></defs><title>glo-ball-floor-2-morrison-flos-F3032020-spech-tech-02-300x263</title><path class="cls-1" d="M155.81,94.64c9.74-2.78,14.88-11.47,11.47-19.41s-14.07-12.13-23.81-9.35S128.59,77.35,132,85.29c1.41,4,6.58,8.2,11.48,9.35"/><rect class="cls-1" x="143.41" y="94.64" width="12.46" height="0.41"/><polyline class="cls-1" points="148.79 208.18 148.79 95.05 150.49 95.05 150.49 208.18"/><line class="cls-1" x1="148.79" y1="208.18" x2="148.22" y2="216.11"/><line class="cls-1" x1="150.49" y1="208.18" x2="151.05" y2="216.11"/><rect class="cls-1" x="130.95" y="216.11" width="37.38" height="1.13"/><g class="cls-2"><path d="M108.77,159.87V161H98.88l1.79,2-.86.72-2.37-2.88v-1Z"/><path d="M98.5,149l10.27,4.56v1.29L98.5,150.16v5.52H97.44V149Z"/><path d="M98.5,140.21v4.62l3.41.08a3.51,3.51,0,0,1-.21-.75,5.12,5.12,0,0,1-.07-.77,3.84,3.84,0,0,1,.28-1.46,3.36,3.36,0,0,1,.76-1.13,3.42,3.42,0,0,1,1.15-.73,4,4,0,0,1,2.94,0,3.49,3.49,0,0,1,1.93,2,4.13,4.13,0,0,1,.27,1.51,3.75,3.75,0,0,1-.51,1.94,3.37,3.37,0,0,1-1.5,1.33l-.5-1.16a2.58,2.58,0,0,0,1.06-.89,2.22,2.22,0,0,0,.4-1.32,2.6,2.6,0,0,0-.2-1,3,3,0,0,0-.54-.8,2.52,2.52,0,0,0-1.79-.74,2.94,2.94,0,0,0-1.09.2,2.72,2.72,0,0,0-.86.58,2.57,2.57,0,0,0-.55.88,3.14,3.14,0,0,0-.19,1.12,4.53,4.53,0,0,0,.17,1.21,5.64,5.64,0,0,0,.45,1.14L97.44,146v-5.77Z"/><path d="M97.25,134.3a3.24,3.24,0,0,1,.56-2,3.86,3.86,0,0,1,1.42-1.17,6.77,6.77,0,0,1,1.9-.56,14,14,0,0,1,4,0,6.77,6.77,0,0,1,1.9.56,3.86,3.86,0,0,1,1.42,1.17,3.75,3.75,0,0,1,0,3.94,3.86,3.86,0,0,1-1.42,1.17,6.77,6.77,0,0,1-1.9.56,14,14,0,0,1-4,0,6.77,6.77,0,0,1-1.9-.56,3.86,3.86,0,0,1-1.42-1.17A3.24,3.24,0,0,1,97.25,134.3Zm1.06,0a2,2,0,0,0,.49,1.46,3.08,3.08,0,0,0,1.23.81,6.19,6.19,0,0,0,1.57.35c.56,0,1.06.07,1.51.07s1,0,1.5-.07a6.19,6.19,0,0,0,1.57-.35,3.08,3.08,0,0,0,1.23-.81,2.38,2.38,0,0,0,0-2.92,3.08,3.08,0,0,0-1.23-.81,6.19,6.19,0,0,0-1.57-.35c-.55,0-1.06-.07-1.5-.07s-1,0-1.51.07A6.19,6.19,0,0,0,100,132a3.08,3.08,0,0,0-1.23.81A2,2,0,0,0,98.31,134.3Z"/><path d="M103,124.25q-.42,0-.84,0l-.83,0V123.2h1.14v0a2.41,2.41,0,0,1-1-1.06,2.94,2.94,0,0,1-.34-1.35,3.83,3.83,0,0,1,.06-.65,2.28,2.28,0,0,1,.24-.66,2,2,0,0,1,.47-.6,2.47,2.47,0,0,1,.78-.48,2.41,2.41,0,0,1-1.13-1,2.79,2.79,0,0,1-.42-1.45,2.73,2.73,0,0,1,.76-2.13,3.12,3.12,0,0,1,2.17-.69h4.75v1.06H104.4a3.13,3.13,0,0,0-1.74.4,1.64,1.64,0,0,0-.61,1.49,2,2,0,0,0,.23,1,1.93,1.93,0,0,0,.62.65,2.84,2.84,0,0,0,.87.36,4.83,4.83,0,0,0,1,.11h4v1.06H104.4a3.13,3.13,0,0,0-1.74.4,1.62,1.62,0,0,0-.61,1.48,3.37,3.37,0,0,0,.06.44,1.74,1.74,0,0,0,.36.72,2.67,2.67,0,0,0,.86.66,3.51,3.51,0,0,0,1.6.3h3.84v1Z"/><path d="M103,110.62l-.84,0-.83.06v-1.14h1.14v0a2.41,2.41,0,0,1-1-1.06,3,3,0,0,1-.34-1.35,3.74,3.74,0,0,1,.06-.65,2.45,2.45,0,0,1,.24-.67,2.34,2.34,0,0,1,.47-.6,2.65,2.65,0,0,1,.78-.47,2.41,2.41,0,0,1-1.13-1,2.79,2.79,0,0,1-.42-1.45,2.73,2.73,0,0,1,.76-2.13,3.12,3.12,0,0,1,2.17-.69h4.75v1.06H104.4a3.13,3.13,0,0,0-1.74.4,1.64,1.64,0,0,0-.61,1.49,2,2,0,0,0,.23,1,1.93,1.93,0,0,0,.62.65,2.84,2.84,0,0,0,.87.36,4.83,4.83,0,0,0,1,.11h4v1H104.4a3.22,3.22,0,0,0-1.74.4,1.65,1.65,0,0,0-.61,1.49,3.37,3.37,0,0,0,.06.44,1.65,1.65,0,0,0,.36.71,2.55,2.55,0,0,0,.86.67,3.52,3.52,0,0,0,1.6.29h3.84v1.06Z"/></g><line class="cls-3" x1="117.14" y1="65.02" x2="117.14" y2="216.95"/><line class="cls-3" x1="118.21" y1="65.02" x2="114.84" y2="65.02"/><line class="cls-3" x1="118.89" y1="216.95" x2="114.52" y2="216.95"/><line class="cls-3" x1="128.96" y1="226.86" x2="170.76" y2="226.86"/><line class="cls-3" x1="128.94" y1="225.57" x2="128.94" y2="228.16"/><line class="cls-3" x1="170.76" y1="225.57" x2="170.76" y2="228.16"/><g class="cls-2"><path d="M121.62,241.14a3.62,3.62,0,0,1,.68,1.16,4,4,0,0,1,.25,1.45,4.26,4.26,0,0,1-.29,1.57,3.8,3.8,0,0,1-.83,1.24,3.7,3.7,0,0,1-1.25.83,4.43,4.43,0,0,1-1.61.29,4.15,4.15,0,0,1-1.4-.22,3.72,3.72,0,0,1-1.11-.61L115,247.94l-.51-.5,1.06-1.08a3.78,3.78,0,0,1-.69-1.18,4.17,4.17,0,0,1-.24-1.43,4,4,0,0,1,.3-1.57,3.67,3.67,0,0,1,.82-1.25,3.76,3.76,0,0,1,1.26-.82,4.09,4.09,0,0,1,1.59-.3A4.18,4.18,0,0,1,120,240a3.84,3.84,0,0,1,1.15.61l1.06-1.08.51.49Zm-1.24.26a2.66,2.66,0,0,0-1.81-.63,3,3,0,0,0-1.18.23,2.7,2.7,0,0,0-.88.64,2.94,2.94,0,0,0-.56.94,3.42,3.42,0,0,0-.2,1.17,2.94,2.94,0,0,0,.55,1.82Zm-3.6,4.72a2.49,2.49,0,0,0,.8.44,2.86,2.86,0,0,0,1,.16,2.72,2.72,0,0,0,1.17-.23,2.48,2.48,0,0,0,.89-.63,2.73,2.73,0,0,0,.57-.94,3.51,3.51,0,0,0,.2-1.17,3.16,3.16,0,0,0-.54-1.83Z"/><path d="M131,241h.59a4.35,4.35,0,0,0,1-.11,2.48,2.48,0,0,0,.79-.36,1.88,1.88,0,0,0,.53-.65,2.06,2.06,0,0,0,.2-1,1.82,1.82,0,0,0-.55-1.42A2.23,2.23,0,0,0,132,237a2.35,2.35,0,0,0-2.16,1.25l-1-.52a3.53,3.53,0,0,1,1.3-1.35A3.76,3.76,0,0,1,132,236a4.31,4.31,0,0,1,1.26.19,3.18,3.18,0,0,1,1,.57,2.62,2.62,0,0,1,.71.93,2.84,2.84,0,0,1,.27,1.26,2.37,2.37,0,0,1-.16.88,3,3,0,0,1-.41.75,3.08,3.08,0,0,1-1.35,1l0,0a2.28,2.28,0,0,1,.88.36,2.67,2.67,0,0,1,.69.65,3.06,3.06,0,0,1,.45.86,3.1,3.1,0,0,1,.16,1,3.23,3.23,0,0,1-.29,1.39,3,3,0,0,1-.78,1,3.77,3.77,0,0,1-1.15.63,4.61,4.61,0,0,1-1.4.21,4.24,4.24,0,0,1-2.17-.54,3.29,3.29,0,0,1-1.39-1.74l1.21-.37a2.41,2.41,0,0,0,.86,1.21,2.79,2.79,0,0,0,1.59.39,2.53,2.53,0,0,0,.91-.16,2.34,2.34,0,0,0,.76-.46,2,2,0,0,0,.51-.71,2.12,2.12,0,0,0,.19-.91,2.21,2.21,0,0,0-.24-1.08,2,2,0,0,0-.64-.71,2.83,2.83,0,0,0-.92-.4,4.83,4.83,0,0,0-1.08-.12H131Z"/><path d="M139.93,241h.59a4.19,4.19,0,0,0,.95-.11,2.3,2.3,0,0,0,.79-.36,1.8,1.8,0,0,0,.54-.65,2.19,2.19,0,0,0,.2-1,1.82,1.82,0,0,0-.55-1.42,2.24,2.24,0,0,0-1.55-.5,2.36,2.36,0,0,0-1.26.32,2.52,2.52,0,0,0-.9.93l-1-.52a3.46,3.46,0,0,1,1.3-1.35,3.75,3.75,0,0,1,1.83-.44,4.38,4.38,0,0,1,1.27.19,3.18,3.18,0,0,1,1,.57,2.74,2.74,0,0,1,.71.93,3,3,0,0,1,.26,1.26,2.58,2.58,0,0,1-.15.88,2.85,2.85,0,0,1-1,1.33,2.89,2.89,0,0,1-.74.38l.05,0a2.34,2.34,0,0,1,.88.36,2.67,2.67,0,0,1,.69.65,3.06,3.06,0,0,1,.45.86,3.39,3.39,0,0,1,.16,1,3.23,3.23,0,0,1-.29,1.39,3,3,0,0,1-.79,1,3.65,3.65,0,0,1-1.15.63,4.54,4.54,0,0,1-1.39.21,4.27,4.27,0,0,1-2.18-.54,3.33,3.33,0,0,1-1.39-1.74l1.22-.37a2.46,2.46,0,0,0,.85,1.21,2.8,2.8,0,0,0,1.6.39,2.53,2.53,0,0,0,.91-.16,2.34,2.34,0,0,0,.76-.46,2,2,0,0,0,.51-.71,2.27,2.27,0,0,0,.18-.91,2.21,2.21,0,0,0-.24-1.08,1.91,1.91,0,0,0-.64-.71,2.65,2.65,0,0,0-.92-.4,4.7,4.7,0,0,0-1.08-.12h-.49Z"/><path d="M150,236a3.26,3.26,0,0,1,2,.56,3.77,3.77,0,0,1,1.16,1.43,6,6,0,0,1,.56,1.89,13.82,13.82,0,0,1,.15,2,13.58,13.58,0,0,1-.15,2,6.17,6.17,0,0,1-.56,1.9,3.66,3.66,0,0,1-1.16,1.42,3.75,3.75,0,0,1-3.94,0,3.78,3.78,0,0,1-1.17-1.42,6.45,6.45,0,0,1-.56-1.9,15.09,15.09,0,0,1-.14-2,15.36,15.36,0,0,1,.14-2,6.3,6.3,0,0,1,.56-1.89,3.89,3.89,0,0,1,1.17-1.43A3.24,3.24,0,0,1,150,236Zm0,1.06a2.09,2.09,0,0,0-1.47.49,3.2,3.2,0,0,0-.8,1.24,5.72,5.72,0,0,0-.35,1.56c0,.56-.07,1.06-.07,1.51s0,.95.07,1.5a5.71,5.71,0,0,0,.35,1.57,3.17,3.17,0,0,0,.8,1.23,2.09,2.09,0,0,0,1.47.5,2.07,2.07,0,0,0,1.46-.5,3.08,3.08,0,0,0,.81-1.23,5.7,5.7,0,0,0,.34-1.57c0-.55.08-1.05.08-1.5s0-1-.08-1.51a5.71,5.71,0,0,0-.34-1.56,3.11,3.11,0,0,0-.81-1.24A2.06,2.06,0,0,0,150,237Z"/><path d="M160.06,241.67c0-.28,0-.56,0-.83s0-.56-.05-.84h1.13v1.14h0a2.44,2.44,0,0,1,1.07-1,2.94,2.94,0,0,1,1.35-.34,3.07,3.07,0,0,1,.65.07,2.25,2.25,0,0,1,.66.23,2.18,2.18,0,0,1,.6.47,2.28,2.28,0,0,1,.47.78,2.53,2.53,0,0,1,1-1.13,3.07,3.07,0,0,1,3.58.34,3.17,3.17,0,0,1,.68,2.17v4.75h-1.05v-4.37a3.25,3.25,0,0,0-.4-1.74,1.65,1.65,0,0,0-1.49-.61,2,2,0,0,0-1,.23,1.93,1.93,0,0,0-.65.62,2.58,2.58,0,0,0-.36.87,4.9,4.9,0,0,0-.11,1v4h-1.06v-4.37a3.16,3.16,0,0,0-.4-1.74,1.63,1.63,0,0,0-1.49-.61,2.67,2.67,0,0,0-.44.07,1.67,1.67,0,0,0-.71.35,2.67,2.67,0,0,0-.66.86,3.53,3.53,0,0,0-.3,1.6v3.84h-1.05Z"/><path d="M173.69,241.67c0-.28,0-.56,0-.83s0-.56,0-.84h1.13v1.14h0a2.41,2.41,0,0,1,1.06-1,2.94,2.94,0,0,1,1.35-.34,3.07,3.07,0,0,1,.65.07,2.25,2.25,0,0,1,.66.23,2,2,0,0,1,.6.47,2.47,2.47,0,0,1,.48.78,2.45,2.45,0,0,1,1-1.13,3.07,3.07,0,0,1,3.58.34,3.12,3.12,0,0,1,.69,2.17v4.75H183.8v-4.37a3.16,3.16,0,0,0-.4-1.74,1.64,1.64,0,0,0-1.49-.61,2,2,0,0,0-1,.23,1.93,1.93,0,0,0-.65.62,3.07,3.07,0,0,0-.36.87,4.9,4.9,0,0,0-.11,1v4h-1.06v-4.37a3.16,3.16,0,0,0-.4-1.74,1.62,1.62,0,0,0-1.48-.61,2.52,2.52,0,0,0-.44.07,1.71,1.71,0,0,0-.72.35,2.67,2.67,0,0,0-.66.86,3.53,3.53,0,0,0-.3,1.6v3.84h-1.05Z"/></g><line class="cls-3" x1="128.96" y1="55.05" x2="170.76" y2="55.05"/><line class="cls-3" x1="128.94" y1="53.75" x2="128.94" y2="56.35"/><line class="cls-3" x1="170.76" y1="53.75" x2="170.76" y2="56.35"/><g class="cls-2"><path d="M122.6,39.33a3.52,3.52,0,0,1,.68,1.16,4,4,0,0,1,.25,1.44,4.22,4.22,0,0,1-.29,1.57,3.85,3.85,0,0,1-.83,1.25,3.67,3.67,0,0,1-1.25.82,4.23,4.23,0,0,1-1.61.3,4.42,4.42,0,0,1-1.4-.22A4,4,0,0,1,117,45L116,46.13l-.51-.5,1.06-1.09a3.62,3.62,0,0,1-.69-1.17,4.23,4.23,0,0,1-.24-1.44,4,4,0,0,1,.3-1.56,3.67,3.67,0,0,1,.82-1.25,3.79,3.79,0,0,1,1.26-.83,4.29,4.29,0,0,1,1.59-.29,4.45,4.45,0,0,1,1.39.21,3.86,3.86,0,0,1,1.15.62l1.06-1.09.51.5Zm-1.24.25a2.7,2.7,0,0,0-1.81-.62,3,3,0,0,0-1.18.23,2.67,2.67,0,0,0-.88.63,3,3,0,0,0-.56,1,3.41,3.41,0,0,0-.2,1.16,3,3,0,0,0,.55,1.83Zm-3.6,4.72a2.72,2.72,0,0,0,.8.45,2.82,2.82,0,0,0,1,.16,2.87,2.87,0,0,0,1.17-.23,2.67,2.67,0,0,0,1.46-1.58,3.42,3.42,0,0,0,.2-1.17,3.13,3.13,0,0,0-.54-1.82Z"/><path d="M132,39.21h.59a3.82,3.82,0,0,0,1-.11,2.11,2.11,0,0,0,.79-.36,1.71,1.71,0,0,0,.53-.65,2,2,0,0,0,.2-1,1.8,1.8,0,0,0-.55-1.41,2.18,2.18,0,0,0-1.54-.51,2.52,2.52,0,0,0-1.27.32,2.57,2.57,0,0,0-.89.93l-1-.51a3.39,3.39,0,0,1,1.3-1.35,3.66,3.66,0,0,1,1.84-.44,4,4,0,0,1,1.26.19,3.18,3.18,0,0,1,1,.57,2.62,2.62,0,0,1,.71.93,2.77,2.77,0,0,1,.27,1.25,2.37,2.37,0,0,1-.16.88,2.72,2.72,0,0,1-.41.75,2.89,2.89,0,0,1-.62.59,2.79,2.79,0,0,1-.73.37l0,0a2.28,2.28,0,0,1,.88.36,2.63,2.63,0,0,1,.69.64,3.26,3.26,0,0,1,.45.87,3.05,3.05,0,0,1,.16,1,3.26,3.26,0,0,1-.29,1.39,3,3,0,0,1-.78,1,3.39,3.39,0,0,1-1.15.63,4.32,4.32,0,0,1-1.4.22,4.24,4.24,0,0,1-2.17-.54,3.35,3.35,0,0,1-1.39-1.75l1.21-.37a2.33,2.33,0,0,0,.86,1.21,2.79,2.79,0,0,0,1.59.39,2.53,2.53,0,0,0,.91-.16,2.16,2.16,0,0,0,.76-.45,2.11,2.11,0,0,0,.51-.71,2.17,2.17,0,0,0,.19-.92,2.27,2.27,0,0,0-.24-1.08,2.09,2.09,0,0,0-.64-.71,2.81,2.81,0,0,0-.92-.39,4.83,4.83,0,0,0-1.08-.12H132Z"/><path d="M140.91,39.21h.59a3.69,3.69,0,0,0,.95-.11,2,2,0,0,0,.79-.36,1.64,1.64,0,0,0,.54-.65,2.13,2.13,0,0,0,.2-1,1.8,1.8,0,0,0-.55-1.41,2.19,2.19,0,0,0-1.55-.51,2.46,2.46,0,0,0-1.26.32,2.68,2.68,0,0,0-.9.93l-1-.51A3.33,3.33,0,0,1,140,34.6a3.65,3.65,0,0,1,1.83-.44,4.07,4.07,0,0,1,1.27.19,3.18,3.18,0,0,1,1,.57,2.74,2.74,0,0,1,.71.93,2.91,2.91,0,0,1,.26,1.25A2.58,2.58,0,0,1,145,38a2.5,2.5,0,0,1-.42.75,2.76,2.76,0,0,1-1.35,1l0,0a2.34,2.34,0,0,1,.88.36,2.63,2.63,0,0,1,.69.64,3.26,3.26,0,0,1,.45.87,3.34,3.34,0,0,1,.16,1,3.26,3.26,0,0,1-.29,1.39,3,3,0,0,1-.79,1,3.3,3.3,0,0,1-1.15.63,4.6,4.6,0,0,1-3.57-.32,3.4,3.4,0,0,1-1.39-1.75l1.22-.37a2.37,2.37,0,0,0,.85,1.21,2.8,2.8,0,0,0,1.6.39,2.53,2.53,0,0,0,.91-.16,2.16,2.16,0,0,0,.76-.45,2.11,2.11,0,0,0,.51-.71,2.32,2.32,0,0,0,.18-.92,2.27,2.27,0,0,0-.24-1.08,2,2,0,0,0-.64-.71,2.64,2.64,0,0,0-.92-.39,4.7,4.7,0,0,0-1.08-.12h-.49Z"/><path d="M151,34.16a3.19,3.19,0,0,1,2,.56,3.74,3.74,0,0,1,1.16,1.42,6.17,6.17,0,0,1,.56,1.9,13.08,13.08,0,0,1,0,4,6.17,6.17,0,0,1-.56,1.9A3.74,3.74,0,0,1,153,45.31a3.75,3.75,0,0,1-3.94,0,3.86,3.86,0,0,1-1.17-1.42,6.45,6.45,0,0,1-.56-1.9,14,14,0,0,1,0-4,6.45,6.45,0,0,1,.56-1.9A3.86,3.86,0,0,1,149,34.72,3.17,3.17,0,0,1,151,34.16Zm0,1.05a2.09,2.09,0,0,0-1.47.5,3.17,3.17,0,0,0-.8,1.23,5.79,5.79,0,0,0-.35,1.57c-.05.55-.07,1.06-.07,1.5s0,1,.07,1.51a5.79,5.79,0,0,0,.35,1.57,3.17,3.17,0,0,0,.8,1.23,2.09,2.09,0,0,0,1.47.49,2.06,2.06,0,0,0,1.46-.49,3.08,3.08,0,0,0,.81-1.23,5.78,5.78,0,0,0,.34-1.57c.05-.56.08-1.06.08-1.51s0-.95-.08-1.5a5.78,5.78,0,0,0-.34-1.57,3.08,3.08,0,0,0-.81-1.23A2.07,2.07,0,0,0,151,35.21Z"/><path d="M161,39.85c0-.27,0-.55,0-.83s0-.55,0-.83h1.13v1.14h0a2.52,2.52,0,0,1,1.07-1,3.05,3.05,0,0,1,1.35-.33,3.83,3.83,0,0,1,.65.06,2.25,2.25,0,0,1,.66.23,2.08,2.08,0,0,1,.6.48,2.28,2.28,0,0,1,.47.78,2.56,2.56,0,0,1,1-1.14,2.85,2.85,0,0,1,1.45-.41,2.73,2.73,0,0,1,2.13.76,3.15,3.15,0,0,1,.68,2.17v4.75h-1V41.31a3.2,3.2,0,0,0-.4-1.74,1.64,1.64,0,0,0-1.49-.61,2,2,0,0,0-1,.23,1.84,1.84,0,0,0-.65.62,2.42,2.42,0,0,0-.36.87,4.74,4.74,0,0,0-.11,1v4h-1.06V41.31a3.11,3.11,0,0,0-.4-1.74A1.64,1.64,0,0,0,164.2,39l-.44.06a1.67,1.67,0,0,0-.71.35,2.58,2.58,0,0,0-.66.87,3.51,3.51,0,0,0-.3,1.6v3.84H161Z"/><path d="M174.67,39.85c0-.27,0-.55,0-.83s0-.55,0-.83h1.13v1.14h0a2.5,2.5,0,0,1,1.06-1,3.05,3.05,0,0,1,1.35-.33,3.83,3.83,0,0,1,.65.06,2.25,2.25,0,0,1,.66.23,2.08,2.08,0,0,1,.6.48,2.47,2.47,0,0,1,.48.78,2.48,2.48,0,0,1,1-1.14A2.87,2.87,0,0,1,183,38a2.73,2.73,0,0,1,2.13.76,3.11,3.11,0,0,1,.69,2.17v4.75h-1.06V41.31a3.11,3.11,0,0,0-.4-1.74,1.64,1.64,0,0,0-1.49-.61,2,2,0,0,0-1,.23,1.84,1.84,0,0,0-.65.62,2.84,2.84,0,0,0-.36.87,4.74,4.74,0,0,0-.11,1v4h-1.06V41.31a3.11,3.11,0,0,0-.4-1.74,1.62,1.62,0,0,0-1.48-.61,3.17,3.17,0,0,0-.44.06,1.71,1.71,0,0,0-.72.35,2.72,2.72,0,0,0-.66.87,3.51,3.51,0,0,0-.3,1.6v3.84h-1.05Z"/></g><line class="cls-3" x1="179.78" y1="65.46" x2="179.78" y2="94.64"/><line class="cls-3" x1="181.07" y1="65.44" x2="178.48" y2="65.44"/><line class="cls-3" x1="181.07" y1="94.64" x2="178.48" y2="94.64"/><g class="cls-2"><path d="M200.21,84.7v7.2h-1.33l-4.59-4.51-.55-.52a4.64,4.64,0,0,0-.61-.46,3.25,3.25,0,0,0-.67-.34,2.24,2.24,0,0,0-.73-.12,2.06,2.06,0,0,0-.84.16,1.82,1.82,0,0,0-.62.48,2.08,2.08,0,0,0-.39.7,2.66,2.66,0,0,0-.14.85,2.32,2.32,0,0,0,.48,1.47,2.11,2.11,0,0,0,1.3.78l-.13,1.22a3.18,3.18,0,0,1-2-1.16,3.51,3.51,0,0,1-.72-2.23,4.66,4.66,0,0,1,.18-1.31,3.24,3.24,0,0,1,.55-1.08,2.72,2.72,0,0,1,.92-.76,2.92,2.92,0,0,1,1.29-.28,3.51,3.51,0,0,1,1.2.2,5.44,5.44,0,0,1,1,.52,8,8,0,0,1,.92.73c.28.27.57.55.84.84l3.54,3.57v-6Z"/><path d="M189.93,76.19l10.28,4.56V82l-10.28-4.65v5.52h-1.05V76.19Z"/><path d="M188.69,70.43a3.17,3.17,0,0,1,.56-2,3.78,3.78,0,0,1,1.42-1.17,6.45,6.45,0,0,1,1.9-.56,13.53,13.53,0,0,1,2-.14,13.76,13.76,0,0,1,2,.14,6.3,6.3,0,0,1,1.89.56,3.89,3.89,0,0,1,1.43,1.17,3.73,3.73,0,0,1,0,3.93,3.79,3.79,0,0,1-1.43,1.17,6,6,0,0,1-1.89.56,13.82,13.82,0,0,1-2,.15,13.58,13.58,0,0,1-2-.15,6.17,6.17,0,0,1-1.9-.56,3.69,3.69,0,0,1-1.42-1.17A3.14,3.14,0,0,1,188.69,70.43Zm1.05,0a2.09,2.09,0,0,0,.5,1.46,3.08,3.08,0,0,0,1.23.81A6.09,6.09,0,0,0,193,73c.55,0,1.05.07,1.5.07s1,0,1.51-.07a6.1,6.1,0,0,0,1.56-.34,3.11,3.11,0,0,0,1.24-.81,2.44,2.44,0,0,0,0-2.93,3.22,3.22,0,0,0-1.24-.81,6.1,6.1,0,0,0-1.56-.34c-.56,0-1.06-.07-1.51-.07s-.95,0-1.5.07a6.09,6.09,0,0,0-1.57.34,3.19,3.19,0,0,0-1.23.81A2.09,2.09,0,0,0,189.74,70.43Z"/><path d="M194.38,60.38l-.83,0-.83.06V59.32h1.13v0a2.59,2.59,0,0,1-1-1.06,3.12,3.12,0,0,1-.33-1.36,3.72,3.72,0,0,1,.06-.64,2.42,2.42,0,0,1,.23-.67,2.34,2.34,0,0,1,.47-.6,2.85,2.85,0,0,1,.79-.47,2.45,2.45,0,0,1-1.14-1,2.81,2.81,0,0,1-.41-1.44,2.73,2.73,0,0,1,.76-2.13,3.1,3.1,0,0,1,2.16-.69h4.76v1.06h-4.37a3.17,3.17,0,0,0-1.75.4,1.64,1.64,0,0,0-.6,1.48,1.92,1.92,0,0,0,.23,1,1.87,1.87,0,0,0,.61.64,2.55,2.55,0,0,0,.88.36,4.17,4.17,0,0,0,1,.12h4v1h-4.37a3.26,3.26,0,0,0-1.75.4,1.66,1.66,0,0,0-.6,1.49,3.61,3.61,0,0,0,.06.44,1.62,1.62,0,0,0,.35.71,2.5,2.5,0,0,0,.87.67,3.63,3.63,0,0,0,1.6.29h3.84v1.06Z"/><path d="M194.38,46.75c-.28,0-.55,0-.83,0l-.83.06V45.69h1.13v0a2.56,2.56,0,0,1-1-1.07,3.05,3.05,0,0,1-.33-1.35,3.83,3.83,0,0,1,.06-.65,2.23,2.23,0,0,1,.7-1.26,2.63,2.63,0,0,1,.79-.47,2.45,2.45,0,0,1-1.14-1,2.82,2.82,0,0,1-.41-1.45,2.7,2.7,0,0,1,.76-2.12,3.1,3.1,0,0,1,2.16-.69h4.76v1.05h-4.37a3.26,3.26,0,0,0-1.75.4,1.67,1.67,0,0,0-.6,1.49,1.86,1.86,0,0,0,.23,1,1.81,1.81,0,0,0,.61.65,2.55,2.55,0,0,0,.88.36,4.17,4.17,0,0,0,1,.11h4v1.06h-4.37a3.17,3.17,0,0,0-1.75.4,1.66,1.66,0,0,0-.6,1.49,3.61,3.61,0,0,0,.06.44,1.62,1.62,0,0,0,.35.71,2.37,2.37,0,0,0,.87.66,3.48,3.48,0,0,0,1.6.3h3.84v1.06Z"/></g></svg>