<svg xmlns="http://www.w3.org/2000/svg" viewBox="0 0 300 263"><defs><style>.cls-1,.cls-2,.cls-3,.cls-4,.cls-5{fill:none;stroke-linecap:round;}.cls-1,.cls-2,.cls-5{stroke:red;}.cls-1,.cls-2,.cls-4,.cls-5{stroke-linejoin:round;}.cls-1{stroke-width:0.6px;}.cls-3,.cls-4{stroke:#000;}.cls-3{stroke-miterlimit:10;}.cls-3,.cls-4,.cls-5{stroke-width:0.6px;}</style></defs><title>glo-ball-floor-2-morrison-flos-F3032020-curva-fotometrica</title><g id="numeri_esterni_diagramma" data-name="numeri esterni diagramma"><path d="M148.27,239.2a6.85,6.85,0,0,1,.08-1,3.41,3.41,0,0,1,.3-.95,1.94,1.94,0,0,1,.59-.71,1.57,1.57,0,0,1,.95-.27,1.6,1.6,0,0,1,1,.27,2,2,0,0,1,.59.71,3.1,3.1,0,0,1,.29.95,5.7,5.7,0,0,1,.08,1,5.85,5.85,0,0,1-.08,1,3.13,3.13,0,0,1-.29.94,2,2,0,0,1-.59.71,1.6,1.6,0,0,1-1,.27,1.57,1.57,0,0,1-.95-.27,1.94,1.94,0,0,1-.59-.71,3.45,3.45,0,0,1-.3-.94A7.07,7.07,0,0,1,148.27,239.2Zm.68,0c0,.13,0,.29,0,.46a4.88,4.88,0,0,0,.06.52,2.83,2.83,0,0,0,.13.5,1.65,1.65,0,0,0,.22.44,1.24,1.24,0,0,0,.34.31,1,1,0,0,0,.48.12.9.9,0,0,0,.48-.12,1,1,0,0,0,.34-.31,1.41,1.41,0,0,0,.23-.44,4.07,4.07,0,0,0,.13-.5c0-.18,0-.35.06-.52s0-.33,0-.46,0-.3,0-.47,0-.34-.06-.51a3.8,3.8,0,0,0-.13-.51,1.53,1.53,0,0,0-.23-.44,1,1,0,0,0-.34-.31.9.9,0,0,0-.48-.12,1,1,0,0,0-.48.12,1.24,1.24,0,0,0-.34.31,1.81,1.81,0,0,0-.22.44,2.72,2.72,0,0,0-.13.51,4.43,4.43,0,0,0-.06.51C149,238.9,149,239.06,149,239.2Z"/><path d="M152.83,237.41a1.33,1.33,0,0,1,.08-.45,1.11,1.11,0,0,1,.25-.36,1,1,0,0,1,.36-.24,1.17,1.17,0,0,1,.9,0,1,1,0,0,1,.36.24,1.11,1.11,0,0,1,.25.36,1.31,1.31,0,0,1,0,.9,1.23,1.23,0,0,1-.61.61,1.17,1.17,0,0,1-.9,0,1.23,1.23,0,0,1-.61-.61A1.33,1.33,0,0,1,152.83,237.41Zm.43,0a.79.79,0,0,0,.05.25.68.68,0,0,0,.14.23.66.66,0,0,0,.23.17.73.73,0,0,0,.58,0,.76.76,0,0,0,.23-.17.88.88,0,0,0,.14-.23.65.65,0,0,0,0-.5,1.09,1.09,0,0,0-.14-.23,1,1,0,0,0-.23-.17.73.73,0,0,0-.58,0,.81.81,0,0,0-.23.17.75.75,0,0,0-.19.48Z"/><path d="M203.17,238.76h.21l.43,0a1.15,1.15,0,0,0,.42-.13.77.77,0,0,0,.31-.31.94.94,0,0,0,.13-.51.87.87,0,0,0-.27-.68,1,1,0,0,0-.7-.26,1.28,1.28,0,0,0-.63.16,1.14,1.14,0,0,0-.41.48l-.65-.25a1.48,1.48,0,0,1,.65-.72,2.07,2.07,0,0,1,1-.24,2.25,2.25,0,0,1,.64.09,1.72,1.72,0,0,1,.54.28,1.37,1.37,0,0,1,.37.46,1.48,1.48,0,0,1,.14.65,1.29,1.29,0,0,1-.27.8,1.34,1.34,0,0,1-.7.49v0a1.48,1.48,0,0,1,.85.49,1.37,1.37,0,0,1,.23.43,1.69,1.69,0,0,1,.08.5,1.66,1.66,0,0,1-.15.72,1.57,1.57,0,0,1-.41.51,1.71,1.71,0,0,1-.6.31,2.34,2.34,0,0,1-.71.1,2.18,2.18,0,0,1-1.13-.28,1.61,1.61,0,0,1-.7-.91l.68-.22a1.33,1.33,0,0,0,.41.65,1.3,1.3,0,0,0,.74.19,1.33,1.33,0,0,0,.45-.08,1.11,1.11,0,0,0,.36-.23,1.24,1.24,0,0,0,.25-.35,1.13,1.13,0,0,0,.09-.45,1.07,1.07,0,0,0-.12-.53,1,1,0,0,0-.33-.33,1.23,1.23,0,0,0-.46-.18,2.31,2.31,0,0,0-.52-.06h-.21Z"/><path d="M206.24,239.2a6.85,6.85,0,0,1,.08-1,3.11,3.11,0,0,1,.3-.95,1.94,1.94,0,0,1,.59-.71,1.55,1.55,0,0,1,.95-.27,1.6,1.6,0,0,1,1,.27,2,2,0,0,1,.59.71,3.1,3.1,0,0,1,.29.95,5.7,5.7,0,0,1,.08,1,5.85,5.85,0,0,1-.08,1,3.13,3.13,0,0,1-.29.94,2,2,0,0,1-.59.71,1.6,1.6,0,0,1-1,.27,1.55,1.55,0,0,1-.95-.27,1.94,1.94,0,0,1-.59-.71,3.14,3.14,0,0,1-.3-.94A7.07,7.07,0,0,1,206.24,239.2Zm.67,0c0,.13,0,.29,0,.46a4.88,4.88,0,0,0,.06.52,2.83,2.83,0,0,0,.13.5,1.4,1.4,0,0,0,.22.44,1.24,1.24,0,0,0,.34.31,1,1,0,0,0,.48.12.9.9,0,0,0,.48-.12,1,1,0,0,0,.34-.31,1.41,1.41,0,0,0,.23-.44,4.05,4.05,0,0,0,.12-.5,4.88,4.88,0,0,0,.06-.52,3.86,3.86,0,0,0,0-.46,3.94,3.94,0,0,0,0-.47,4.43,4.43,0,0,0-.06-.51,3.81,3.81,0,0,0-.12-.51,1.53,1.53,0,0,0-.23-.44,1,1,0,0,0-.34-.31.9.9,0,0,0-.48-.12,1,1,0,0,0-.48.12,1.24,1.24,0,0,0-.34.31,1.51,1.51,0,0,0-.22.44,2.72,2.72,0,0,0-.13.51,4.43,4.43,0,0,0-.06.51C206.92,238.9,206.91,239.06,206.91,239.2Z"/><path d="M210.84,237.41a1.13,1.13,0,0,1,.09-.45,1.26,1.26,0,0,1,.24-.36,1.2,1.2,0,0,1,.82-.33,1,1,0,0,1,.44.09,1.12,1.12,0,0,1,.37.24,1.26,1.26,0,0,1,.24.36,1.16,1.16,0,0,1-.24,1.26,1.15,1.15,0,0,1-.37.25,1,1,0,0,1-.44.09,1.13,1.13,0,0,1-.45-.09,1.15,1.15,0,0,1-.37-.25,1.15,1.15,0,0,1-.33-.81Zm.43,0a.61.61,0,0,0,.06.25.68.68,0,0,0,.14.23.72.72,0,0,0,.22.17.73.73,0,0,0,.3.06.72.72,0,0,0,.29-.06.62.62,0,0,0,.22-.17.91.91,0,0,0,.15-.23.65.65,0,0,0,0-.5,1.14,1.14,0,0,0-.15-.23.76.76,0,0,0-.22-.17.72.72,0,0,0-.29-.06.73.73,0,0,0-.3.06.92.92,0,0,0-.22.17.79.79,0,0,0-.14.23A.61.61,0,0,0,211.27,237.41Z"/><path d="M93.6,238.76h.21l.44,0a1.1,1.1,0,0,0,.41-.13.86.86,0,0,0,.32-.31.94.94,0,0,0,.12-.51.87.87,0,0,0-.27-.68,1,1,0,0,0-.7-.26,1.21,1.21,0,0,0-.62.16,1.1,1.1,0,0,0-.42.48l-.65-.25a1.45,1.45,0,0,1,.66-.72,2,2,0,0,1,1-.24,2.32,2.32,0,0,1,.65.09,2,2,0,0,1,.54.28,1.67,1.67,0,0,1,.37.46,1.48,1.48,0,0,1,.13.65,1.29,1.29,0,0,1-.27.8,1.34,1.34,0,0,1-.7.49v0a1.31,1.31,0,0,1,.49.18,1.34,1.34,0,0,1,.36.31,1.37,1.37,0,0,1,.23.43,1.42,1.42,0,0,1,.08.5,1.66,1.66,0,0,1-.15.72,1.57,1.57,0,0,1-.41.51,1.75,1.75,0,0,1-.59.31,2.46,2.46,0,0,1-.72.1,2.18,2.18,0,0,1-1.13-.28,1.56,1.56,0,0,1-.69-.91l.68-.22a1.2,1.2,0,0,0,.41.65,1.27,1.27,0,0,0,.73.19,1.33,1.33,0,0,0,.45-.08,1.11,1.11,0,0,0,.36-.23,1.07,1.07,0,0,0,.25-.35,1.13,1.13,0,0,0,.09-.45,1.07,1.07,0,0,0-.12-.53.87.87,0,0,0-.33-.33,1.17,1.17,0,0,0-.46-.18,2.24,2.24,0,0,0-.52-.06H93.6Z"/><path d="M96.68,239.2a5.7,5.7,0,0,1,.08-1,3.1,3.1,0,0,1,.29-.95,2,2,0,0,1,.59-.71,1.6,1.6,0,0,1,1-.27,1.57,1.57,0,0,1,1,.27,1.94,1.94,0,0,1,.59.71,3.41,3.41,0,0,1,.3.95,6.85,6.85,0,0,1,.08,1,7.07,7.07,0,0,1-.08,1,3.45,3.45,0,0,1-.3.94,1.94,1.94,0,0,1-.59.71,1.57,1.57,0,0,1-1,.27,1.6,1.6,0,0,1-1-.27,2,2,0,0,1-.59-.71,3.13,3.13,0,0,1-.29-.94A5.85,5.85,0,0,1,96.68,239.2Zm.67,0c0,.13,0,.29,0,.46a4.88,4.88,0,0,0,.06.52,4.07,4.07,0,0,0,.13.5,1.41,1.41,0,0,0,.23.44,1,1,0,0,0,.34.31.9.9,0,0,0,.48.12,1,1,0,0,0,.48-.12,1.24,1.24,0,0,0,.34-.31,1.65,1.65,0,0,0,.22-.44,2.83,2.83,0,0,0,.13-.5,4.88,4.88,0,0,0,.06-.52c0-.17,0-.33,0-.46s0-.3,0-.47a4.43,4.43,0,0,0-.06-.51,2.72,2.72,0,0,0-.13-.51,1.81,1.81,0,0,0-.22-.44,1.24,1.24,0,0,0-.34-.31,1,1,0,0,0-.48-.12.9.9,0,0,0-.48.12,1,1,0,0,0-.34.31,1.53,1.53,0,0,0-.23.44,3.8,3.8,0,0,0-.13.51,4.43,4.43,0,0,0-.06.51C97.35,238.9,97.35,239.06,97.35,239.2Z"/><path d="M101.28,237.41a1.33,1.33,0,0,1,.08-.45,1.11,1.11,0,0,1,.25-.36,1,1,0,0,1,.36-.24,1.17,1.17,0,0,1,.9,0,1,1,0,0,1,.36.24,1.11,1.11,0,0,1,.25.36,1.31,1.31,0,0,1,0,.9,1.23,1.23,0,0,1-.61.61,1.17,1.17,0,0,1-.9,0,1.23,1.23,0,0,1-.61-.61A1.33,1.33,0,0,1,101.28,237.41Zm.43,0a.79.79,0,0,0,.05.25.68.68,0,0,0,.14.23.76.76,0,0,0,.23.17.73.73,0,0,0,.58,0,.66.66,0,0,0,.23-.17.68.68,0,0,0,.14-.23.71.71,0,0,0-.14-.73.81.81,0,0,0-.23-.17.73.73,0,0,0-.58,0,1,1,0,0,0-.23.17.75.75,0,0,0-.19.48Z"/><path d="M249.93,137.18h0a1.24,1.24,0,0,1-.37.12,1.84,1.84,0,0,1-.39,0,1.91,1.91,0,0,1-.68-.12,1.58,1.58,0,0,1-.54-.37,1.63,1.63,0,0,1-.36-.56,2.05,2.05,0,0,1-.13-.72,1.79,1.79,0,0,1,.15-.75,1.48,1.48,0,0,1,.4-.55,1.79,1.79,0,0,1,.6-.35,2,2,0,0,1,.75-.13,2.11,2.11,0,0,1,.75.13,1.79,1.79,0,0,1,.6.35,1.59,1.59,0,0,1,.4.55,1.79,1.79,0,0,1,.14.75,2.15,2.15,0,0,1,0,.45,1.68,1.68,0,0,1-.11.4,2.59,2.59,0,0,1-.17.38l-.21.36-1.51,2.39h-.78Zm-.59-.42a1.28,1.28,0,0,0,.48-.09,1,1,0,0,0,.39-.24,1.23,1.23,0,0,0,.26-.37,1.43,1.43,0,0,0,0-1,1.1,1.1,0,0,0-.65-.62,1.48,1.48,0,0,0-1,0,1.28,1.28,0,0,0-.39.24,1.12,1.12,0,0,0-.26.38,1.3,1.3,0,0,0,0,1,1.08,1.08,0,0,0,.26.37,1,1,0,0,0,.39.24A1.28,1.28,0,0,0,249.34,136.76Z"/><path d="M251.82,136.71a7.07,7.07,0,0,1,.08-1,3.19,3.19,0,0,1,.29-1,2,2,0,0,1,.59-.7,1.54,1.54,0,0,1,1-.28,1.49,1.49,0,0,1,.95.28,1.91,1.91,0,0,1,.59.7,2.94,2.94,0,0,1,.3,1,6.29,6.29,0,0,1,0,2,2.94,2.94,0,0,1-.3.95,1.91,1.91,0,0,1-.59.7,1.49,1.49,0,0,1-.95.28,1.54,1.54,0,0,1-1-.28,2,2,0,0,1-.59-.7,3.19,3.19,0,0,1-.29-.95A7.07,7.07,0,0,1,251.82,136.71Zm.67,0c0,.14,0,.29,0,.46a4.6,4.6,0,0,0,.06.52,4.7,4.7,0,0,0,.12.51,2,2,0,0,0,.23.44,1,1,0,0,0,.34.31,1,1,0,0,0,.48.11,1.06,1.06,0,0,0,.48-.11,1.24,1.24,0,0,0,.34-.31,1.65,1.65,0,0,0,.22-.44,3.18,3.18,0,0,0,.13-.51,4.6,4.6,0,0,0,.06-.52c0-.17,0-.32,0-.46s0-.29,0-.46a4.6,4.6,0,0,0-.06-.52,3.18,3.18,0,0,0-.13-.51,1.65,1.65,0,0,0-.22-.44,1.24,1.24,0,0,0-.34-.31,1.06,1.06,0,0,0-.48-.11,1,1,0,0,0-.48.11,1,1,0,0,0-.34.31,2,2,0,0,0-.23.44,4.7,4.7,0,0,0-.12.51,4.6,4.6,0,0,0-.06.52C252.5,136.42,252.49,136.57,252.49,136.71Z"/><path d="M256.42,134.93a1.13,1.13,0,0,1,.09-.45,1.31,1.31,0,0,1,.24-.37,1.18,1.18,0,0,1,.37-.24,1,1,0,0,1,.44-.09,1.13,1.13,0,0,1,.45.09,1.06,1.06,0,0,1,.61.61,1.13,1.13,0,0,1,.09.45,1,1,0,0,1-.09.44,1.06,1.06,0,0,1-.61.61,1.13,1.13,0,0,1-.45.09,1,1,0,0,1-.44-.09,1.18,1.18,0,0,1-.37-.24,1.31,1.31,0,0,1-.24-.37A1,1,0,0,1,256.42,134.93Zm.43,0a.69.69,0,0,0,0,.24,1,1,0,0,0,.15.24.73.73,0,0,0,.51.23.54.54,0,0,0,.29-.07.63.63,0,0,0,.23-.16.72.72,0,0,0,.14-.24.52.52,0,0,0,0-.24.56.56,0,0,0,0-.25.59.59,0,0,0-.14-.23.74.74,0,0,0-.52-.24.73.73,0,0,0-.29.07.62.62,0,0,0-.22.17.76.76,0,0,0-.15.23A.74.74,0,0,0,256.85,134.93Z"/><path d="M41.57,137.18h0a1.34,1.34,0,0,1-.37.12,2,2,0,0,1-.39,0,1.92,1.92,0,0,1-.69-.12,1.58,1.58,0,0,1-.54-.37,1.8,1.8,0,0,1-.36-.56,2.05,2.05,0,0,1-.13-.72,1.79,1.79,0,0,1,.15-.75,1.48,1.48,0,0,1,.4-.55,1.79,1.79,0,0,1,.6-.35,2.23,2.23,0,0,1,1.5,0,1.79,1.79,0,0,1,.6.35,1.48,1.48,0,0,1,.4.55,1.79,1.79,0,0,1,.15.75,3.14,3.14,0,0,1,0,.45,2.34,2.34,0,0,1-.12.4,1.84,1.84,0,0,1-.17.38,3.35,3.35,0,0,1-.21.36l-1.5,2.39h-.79Zm-.59-.42a1.28,1.28,0,0,0,.48-.09,1,1,0,0,0,.39-.24,1.23,1.23,0,0,0,.26-.37,1.3,1.3,0,0,0,0-1,1.1,1.1,0,0,0-.65-.62,1.48,1.48,0,0,0-1,0,1.1,1.1,0,0,0-.65.62,1.43,1.43,0,0,0,0,1,1.23,1.23,0,0,0,.26.37,1,1,0,0,0,.39.24A1.28,1.28,0,0,0,41,136.76Z"/><path d="M43.46,136.71a7.07,7.07,0,0,1,.08-1,2.94,2.94,0,0,1,.3-1,1.91,1.91,0,0,1,.59-.7,1.49,1.49,0,0,1,1-.28,1.54,1.54,0,0,1,1,.28,2,2,0,0,1,.59.7,3.19,3.19,0,0,1,.29,1,6.29,6.29,0,0,1,0,2,3.19,3.19,0,0,1-.29.95,2,2,0,0,1-.59.7,1.54,1.54,0,0,1-1,.28,1.49,1.49,0,0,1-1-.28,1.91,1.91,0,0,1-.59-.7,2.94,2.94,0,0,1-.3-.95A7.07,7.07,0,0,1,43.46,136.71Zm.67,0c0,.14,0,.29,0,.46a4.6,4.6,0,0,0,.06.52,3.18,3.18,0,0,0,.13.51,1.65,1.65,0,0,0,.22.44,1.12,1.12,0,0,0,.34.31,1.1,1.1,0,0,0,1,0,1.12,1.12,0,0,0,.34-.31,2,2,0,0,0,.23-.44,4.7,4.7,0,0,0,.12-.51,4.6,4.6,0,0,0,.06-.52c0-.17,0-.32,0-.46s0-.29,0-.46a4.6,4.6,0,0,0-.06-.52,4.7,4.7,0,0,0-.12-.51,2,2,0,0,0-.23-.44,1.12,1.12,0,0,0-.34-.31,1.1,1.1,0,0,0-1,0,1.12,1.12,0,0,0-.34.31,1.65,1.65,0,0,0-.22.44,3.18,3.18,0,0,0-.13.51,4.6,4.6,0,0,0-.06.52C44.14,136.42,44.13,136.57,44.13,136.71Z"/><path d="M48.06,134.93a1.13,1.13,0,0,1,.09-.45,1.06,1.06,0,0,1,.61-.61,1.13,1.13,0,0,1,.45-.09,1.08,1.08,0,0,1,.44.09,1.06,1.06,0,0,1,.61.61,1.13,1.13,0,0,1,.09.45,1,1,0,0,1-.09.44,1.06,1.06,0,0,1-.61.61,1.08,1.08,0,0,1-.44.09,1.13,1.13,0,0,1-.45-.09,1.06,1.06,0,0,1-.61-.61A1,1,0,0,1,48.06,134.93Zm.43,0a.53.53,0,0,0,.06.24.72.72,0,0,0,.14.24.69.69,0,0,0,.22.16.6.6,0,0,0,.3.07.73.73,0,0,0,.51-.23,1,1,0,0,0,.15-.24.69.69,0,0,0,.05-.24.74.74,0,0,0-.05-.25.76.76,0,0,0-.15-.23.62.62,0,0,0-.22-.17.73.73,0,0,0-.29-.07.73.73,0,0,0-.3.07.72.72,0,0,0-.22.17.59.59,0,0,0-.14.23A.57.57,0,0,0,48.49,134.93Z"/><path d="M148.37,38.51h-.68v-4.8h0l-1,.85-.4-.48,1.52-1.24h.59Z"/><path d="M150.49,34.23a1.48,1.48,0,0,1,.13-.61,1.2,1.2,0,0,1,.34-.46,1.44,1.44,0,0,1,.51-.3,1.92,1.92,0,0,1,1.28,0,1.44,1.44,0,0,1,.51.3,1.2,1.2,0,0,1,.34.46,1.33,1.33,0,0,1,.13.61,1.16,1.16,0,0,1-.07.4,1.41,1.41,0,0,1-.18.37,1.33,1.33,0,0,1-.29.29,1.18,1.18,0,0,1-.39.19h0a1.44,1.44,0,0,1,.46.19,1.35,1.35,0,0,1,.35.32,1.42,1.42,0,0,1,.23.44,1.7,1.7,0,0,1,.08.51,1.74,1.74,0,0,1-.14.69,1.43,1.43,0,0,1-.39.52,1.47,1.47,0,0,1-.57.33,2.35,2.35,0,0,1-1.42,0,1.47,1.47,0,0,1-.57-.33,1.55,1.55,0,0,1-.39-.52,1.74,1.74,0,0,1-.14-.69,1.7,1.7,0,0,1,.08-.51,1.67,1.67,0,0,1,.23-.44,1.35,1.35,0,0,1,.35-.32,1.44,1.44,0,0,1,.46-.19h0a1.18,1.18,0,0,1-.39-.19,1.33,1.33,0,0,1-.29-.29,1.41,1.41,0,0,1-.18-.37A1.46,1.46,0,0,1,150.49,34.23ZM151,36.9a1.18,1.18,0,0,0,.09.46,1.07,1.07,0,0,0,.25.35,1,1,0,0,0,.36.23,1.12,1.12,0,0,0,.88,0,1,1,0,0,0,.36-.23,1.07,1.07,0,0,0,.25-.35,1.18,1.18,0,0,0,.09-.46,1.14,1.14,0,0,0-.09-.46,1.13,1.13,0,0,0-.61-.58,1.12,1.12,0,0,0-.88,0,1.13,1.13,0,0,0-.61.58A1.14,1.14,0,0,0,151,36.9Zm.2-2.64a.88.88,0,0,0,.26.67,1,1,0,0,0,1.36,0,1,1,0,0,0,0-1.34,1,1,0,0,0-1.36,0A.88.88,0,0,0,151.17,34.26Z"/><path d="M154.64,35.68a7,7,0,0,1,.08-1,3.1,3.1,0,0,1,.29-1,2,2,0,0,1,.59-.71,1.6,1.6,0,0,1,1-.27,1.55,1.55,0,0,1,.95.27,1.94,1.94,0,0,1,.59.71,2.86,2.86,0,0,1,.3,1,7,7,0,0,1,.08,1,7.07,7.07,0,0,1-.08,1,2.88,2.88,0,0,1-.3.94,1.94,1.94,0,0,1-.59.71,1.55,1.55,0,0,1-.95.27,1.6,1.6,0,0,1-1-.27,2,2,0,0,1-.59-.71,3.13,3.13,0,0,1-.29-.94A7.07,7.07,0,0,1,154.64,35.68Zm.67,0c0,.13,0,.29,0,.46a4.88,4.88,0,0,0,.06.52,4.05,4.05,0,0,0,.12.5,1.66,1.66,0,0,0,.23.44,1.12,1.12,0,0,0,.34.31,1,1,0,0,0,1,0,1.12,1.12,0,0,0,.34-.31,1.4,1.4,0,0,0,.22-.44,2.83,2.83,0,0,0,.13-.5,4.88,4.88,0,0,0,.06-.52c0-.17,0-.33,0-.46s0-.3,0-.47a4.43,4.43,0,0,0-.06-.51,2.72,2.72,0,0,0-.13-.51,1.51,1.51,0,0,0-.22-.44,1.12,1.12,0,0,0-.34-.31,1,1,0,0,0-1,0,1.12,1.12,0,0,0-.34.31,1.83,1.83,0,0,0-.23.44,3.81,3.81,0,0,0-.12.51,4.43,4.43,0,0,0-.06.51C155.32,35.38,155.31,35.54,155.31,35.68Z"/><path d="M159.24,33.89a1.15,1.15,0,0,1,.33-.81,1,1,0,0,1,.37-.24,1,1,0,0,1,.44-.09,1.15,1.15,0,0,1,.82,2,1.15,1.15,0,0,1-.37.25,1.13,1.13,0,0,1-.45.09,1.15,1.15,0,0,1-.81-.34,1.15,1.15,0,0,1-.33-.81Zm.43,0a.79.79,0,0,0,.05.25,1.14,1.14,0,0,0,.15.23.62.62,0,0,0,.22.17.72.72,0,0,0,.29.06.68.68,0,0,0,.52-.23.79.79,0,0,0,.14-.23.65.65,0,0,0,0-.5.79.79,0,0,0-.14-.23.81.81,0,0,0-.23-.17.65.65,0,0,0-.29-.06.72.72,0,0,0-.29.06.76.76,0,0,0-.22.17,1.14,1.14,0,0,0-.15.23A.79.79,0,0,0,159.67,33.89Z"/><path d="M203.18,38.51h-.68v-4.8h0l-1,.85-.4-.48,1.52-1.24h.59Z"/><path d="M208.49,33.47h-2.31l0,1.53a1.08,1.08,0,0,1,.36-.11l.37,0a2,2,0,0,1,.74.14,1.61,1.61,0,0,1,.57.39,1.9,1.9,0,0,1,.37.59,2,2,0,0,1,.13.74,2,2,0,0,1-.15.78,1.74,1.74,0,0,1-.41.59,1.91,1.91,0,0,1-.61.38,2.2,2.2,0,0,1-.78.13,1.73,1.73,0,0,1-1-.28,2,2,0,0,1-.63-.75l.67-.25a1.31,1.31,0,0,0,.42.51,1.1,1.1,0,0,0,.64.2,1.28,1.28,0,0,0,.48-.09,1.26,1.26,0,0,0,.38-.27,1.15,1.15,0,0,0,.26-.41,1.53,1.53,0,0,0,.1-.54,1.38,1.38,0,0,0-.11-.55,1.08,1.08,0,0,0-.3-.4,1.26,1.26,0,0,0-.44-.25,1.67,1.67,0,0,0-.55-.08,1.84,1.84,0,0,0-.6.1,2.58,2.58,0,0,0-.56.25l.06-2.95h3Z"/><path d="M209.45,35.68a7,7,0,0,1,.08-1,3.1,3.1,0,0,1,.29-1,2,2,0,0,1,.59-.71,1.6,1.6,0,0,1,1-.27,1.55,1.55,0,0,1,.95.27,1.94,1.94,0,0,1,.59.71,2.86,2.86,0,0,1,.3,1,7,7,0,0,1,.08,1,7.07,7.07,0,0,1-.08,1,2.88,2.88,0,0,1-.3.94,1.94,1.94,0,0,1-.59.71,1.55,1.55,0,0,1-.95.27,1.6,1.6,0,0,1-1-.27,2,2,0,0,1-.59-.71,3.13,3.13,0,0,1-.29-.94A7.07,7.07,0,0,1,209.45,35.68Zm.67,0c0,.13,0,.29,0,.46a4.88,4.88,0,0,0,.06.52,4.05,4.05,0,0,0,.12.5,1.66,1.66,0,0,0,.23.44,1,1,0,0,0,.34.31.9.9,0,0,0,.48.12,1,1,0,0,0,.48-.12,1.24,1.24,0,0,0,.34-.31,1.4,1.4,0,0,0,.22-.44,2.83,2.83,0,0,0,.13-.5,4.88,4.88,0,0,0,.06-.52c0-.17,0-.33,0-.46s0-.3,0-.47a4.43,4.43,0,0,0-.06-.51,2.72,2.72,0,0,0-.13-.51,1.51,1.51,0,0,0-.22-.44,1.24,1.24,0,0,0-.34-.31,1,1,0,0,0-.48-.12.9.9,0,0,0-.48.12,1,1,0,0,0-.34.31,1.83,1.83,0,0,0-.23.44,3.81,3.81,0,0,0-.12.51,4.43,4.43,0,0,0-.06.51C210.13,35.38,210.12,35.54,210.12,35.68Z"/><path d="M214.05,33.89a1.15,1.15,0,0,1,.33-.81,1,1,0,0,1,.37-.24,1,1,0,0,1,.44-.09,1.13,1.13,0,0,1,.45.09,1,1,0,0,1,.36.24,1,1,0,0,1,.25.36,1.17,1.17,0,0,1,0,.9,1.23,1.23,0,0,1-.61.61,1.13,1.13,0,0,1-.45.09,1.15,1.15,0,0,1-.81-.34,1.15,1.15,0,0,1-.33-.81Zm.43,0a.79.79,0,0,0,.05.25,1.14,1.14,0,0,0,.15.23.62.62,0,0,0,.22.17.72.72,0,0,0,.29.06.68.68,0,0,0,.52-.23.79.79,0,0,0,.14-.23.65.65,0,0,0,0-.5.79.79,0,0,0-.14-.23.81.81,0,0,0-.23-.17.65.65,0,0,0-.29-.06.72.72,0,0,0-.29.06.76.76,0,0,0-.22.17,1.14,1.14,0,0,0-.15.23A.79.79,0,0,0,214.48,33.89Z"/><path d="M93.61,38.51h-.67v-4.8h0l-1,.85-.4-.48L93,32.84h.58Z"/><path d="M98.92,33.47H96.61l0,1.53a1,1,0,0,1,.35-.11l.37,0a1.91,1.91,0,0,1,.74.14,1.65,1.65,0,0,1,.58.39A1.71,1.71,0,0,1,99,36a2,2,0,0,1,.13.74,2,2,0,0,1-.15.78,1.71,1.71,0,0,1-.4.59,2,2,0,0,1-.62.38,2.15,2.15,0,0,1-.77.13,1.78,1.78,0,0,1-1.05-.28,1.85,1.85,0,0,1-.62-.75l.67-.25a1.16,1.16,0,0,0,.42.51,1.05,1.05,0,0,0,.63.2,1.28,1.28,0,0,0,.48-.09,1.23,1.23,0,0,0,.64-.68,1.33,1.33,0,0,0,.1-.54,1.38,1.38,0,0,0-.11-.55,1.18,1.18,0,0,0-.29-.4,1.41,1.41,0,0,0-.45-.25,1.63,1.63,0,0,0-.55-.08,1.78,1.78,0,0,0-.59.1,2.58,2.58,0,0,0-.56.25l0-2.95h3Z"/><path d="M99.88,35.68a7,7,0,0,1,.08-1,3.11,3.11,0,0,1,.3-1,1.94,1.94,0,0,1,.59-.71,1.55,1.55,0,0,1,1-.27,1.6,1.6,0,0,1,1,.27,2,2,0,0,1,.59.71,3.1,3.1,0,0,1,.29,1,5.77,5.77,0,0,1,.08,1,5.85,5.85,0,0,1-.08,1,3.13,3.13,0,0,1-.29.94,2,2,0,0,1-.59.71,1.6,1.6,0,0,1-1,.27,1.55,1.55,0,0,1-1-.27,1.94,1.94,0,0,1-.59-.71,3.14,3.14,0,0,1-.3-.94A7.07,7.07,0,0,1,99.88,35.68Zm.67,0c0,.13,0,.29,0,.46a4.88,4.88,0,0,0,.06.52,2.83,2.83,0,0,0,.13.5,1.4,1.4,0,0,0,.22.44,1.24,1.24,0,0,0,.34.31,1,1,0,0,0,.48.12.9.9,0,0,0,.48-.12,1,1,0,0,0,.34-.31,1.41,1.41,0,0,0,.23-.44,4.05,4.05,0,0,0,.12-.5,4.88,4.88,0,0,0,.06-.52c0-.17,0-.33,0-.46s0-.3,0-.47a4.43,4.43,0,0,0-.06-.51,3.81,3.81,0,0,0-.12-.51,1.53,1.53,0,0,0-.23-.44,1,1,0,0,0-.34-.31.9.9,0,0,0-.48-.12,1,1,0,0,0-.48.12,1.24,1.24,0,0,0-.34.31,1.51,1.51,0,0,0-.22.44,2.72,2.72,0,0,0-.13.51,4.43,4.43,0,0,0-.06.51C100.56,35.38,100.55,35.54,100.55,35.68Z"/><path d="M104.48,33.89a1.15,1.15,0,0,1,1.15-1.14,1,1,0,0,1,.44.09,1.12,1.12,0,0,1,.37.24,1.16,1.16,0,0,1,0,1.62,1.15,1.15,0,0,1-.37.25,1,1,0,0,1-.44.09,1.13,1.13,0,0,1-.45-.09,1.15,1.15,0,0,1-.37-.25,1.15,1.15,0,0,1-.33-.81Zm.43,0a.61.61,0,0,0,.06.25.79.79,0,0,0,.14.23.72.72,0,0,0,.22.17.73.73,0,0,0,.3.06.72.72,0,0,0,.29-.06.62.62,0,0,0,.22-.17,1.14,1.14,0,0,0,.15-.23.65.65,0,0,0,0-.5,1.14,1.14,0,0,0-.15-.23.76.76,0,0,0-.22-.17.72.72,0,0,0-.29-.06.73.73,0,0,0-.3.06.92.92,0,0,0-.22.17.79.79,0,0,0-.14.23A.61.61,0,0,0,104.91,33.89Z"/><path d="M248.75,192.45v0a1.35,1.35,0,0,1,.37-.13,2,2,0,0,1,.39,0,1.73,1.73,0,0,1,.69.13,1.42,1.42,0,0,1,.54.36,1.85,1.85,0,0,1,.36.57,2,2,0,0,1,.12.72,1.78,1.78,0,0,1-.14.74,1.74,1.74,0,0,1-.4.56,2,2,0,0,1-.6.35,2.36,2.36,0,0,1-.75.12,2.27,2.27,0,0,1-.75-.12,2,2,0,0,1-.6-.35,1.6,1.6,0,0,1-.4-.56,1.78,1.78,0,0,1-.15-.74,2.24,2.24,0,0,1,.15-.86,5.28,5.28,0,0,1,.39-.74l1.5-2.39h.79Zm.59.43a1.23,1.23,0,0,0-.87.32,1,1,0,0,0-.26.38,1.31,1.31,0,0,0-.1.5,1.35,1.35,0,0,0,.1.5,1.08,1.08,0,0,0,.26.37,1,1,0,0,0,.39.24,1.32,1.32,0,0,0,1,0,1,1,0,0,0,.39-.24,1.23,1.23,0,0,0,.26-.37,1.35,1.35,0,0,0,.09-.5,1.31,1.31,0,0,0-.09-.5,1.16,1.16,0,0,0-.26-.38,1.23,1.23,0,0,0-.87-.32Z"/><path d="M251.82,192.92a7.07,7.07,0,0,1,.08-1,3.13,3.13,0,0,1,.29-.94,2,2,0,0,1,.59-.71,1.6,1.6,0,0,1,1-.27,1.55,1.55,0,0,1,.95.27,1.94,1.94,0,0,1,.59.71,2.88,2.88,0,0,1,.3.94,7.07,7.07,0,0,1,.08,1,7,7,0,0,1-.08,1,2.86,2.86,0,0,1-.3,1,1.94,1.94,0,0,1-.59.71,1.55,1.55,0,0,1-.95.27,1.6,1.6,0,0,1-1-.27,2,2,0,0,1-.59-.71,3.1,3.1,0,0,1-.29-1A7,7,0,0,1,251.82,192.92Zm.67,0c0,.14,0,.3,0,.47a4.43,4.43,0,0,0,.06.51,3.81,3.81,0,0,0,.12.51,1.83,1.83,0,0,0,.23.44,1,1,0,0,0,.34.31.9.9,0,0,0,.48.12,1,1,0,0,0,.48-.12,1.24,1.24,0,0,0,.34-.31,1.51,1.51,0,0,0,.22-.44,2.72,2.72,0,0,0,.13-.51,4.43,4.43,0,0,0,.06-.51c0-.17,0-.33,0-.47s0-.29,0-.46a4.88,4.88,0,0,0-.06-.52,2.83,2.83,0,0,0-.13-.5,1.4,1.4,0,0,0-.22-.44,1.1,1.1,0,0,0-.34-.31,1,1,0,0,0-.48-.12.9.9,0,0,0-.48.12.92.92,0,0,0-.34.31,1.66,1.66,0,0,0-.23.44,4.05,4.05,0,0,0-.12.5,4.88,4.88,0,0,0-.06.52C252.5,192.63,252.49,192.79,252.49,192.92Z"/><path d="M256.42,191.14a1.15,1.15,0,0,1,.33-.81,1.05,1.05,0,0,1,.37-.25,1.23,1.23,0,0,1,.44-.08,1.33,1.33,0,0,1,.45.08,1.15,1.15,0,0,1,.37.25,1.16,1.16,0,0,1,0,1.62,1.15,1.15,0,0,1-.37.25,1.33,1.33,0,0,1-.45.08,1.23,1.23,0,0,1-.44-.08,1.05,1.05,0,0,1-.37-.25,1.15,1.15,0,0,1-.33-.81Zm.43,0a.79.79,0,0,0,0,.25,1.14,1.14,0,0,0,.15.23.62.62,0,0,0,.22.17.72.72,0,0,0,.29.06.68.68,0,0,0,.52-.23.79.79,0,0,0,.14-.23.65.65,0,0,0,0-.5.79.79,0,0,0-.14-.23.68.68,0,0,0-.52-.23.72.72,0,0,0-.29.06.62.62,0,0,0-.22.17,1.14,1.14,0,0,0-.15.23A.79.79,0,0,0,256.85,191.14Z"/><path d="M250,81.22h-.67v-4.8h0l-1,.86-.4-.49,1.52-1.23H250Z"/><path d="M251.92,80.45l2.13-2.08c.13-.12.25-.24.35-.35a2.16,2.16,0,0,0,.25-.32,1.09,1.09,0,0,0,.15-.33,1.38,1.38,0,0,0,0-.37,1,1,0,0,0-.08-.4.84.84,0,0,0-.22-.3.78.78,0,0,0-.33-.19,1.05,1.05,0,0,0-.4-.07,1,1,0,0,0-.71.25,1.08,1.08,0,0,0-.36.65l-.73-.06a1.83,1.83,0,0,1,.21-.61,1.41,1.41,0,0,1,.39-.45,2,2,0,0,1,.53-.27,2.25,2.25,0,0,1,.64-.09,2.41,2.41,0,0,1,.67.1,1.92,1.92,0,0,1,.55.29,1.44,1.44,0,0,1,.51,1.15,2,2,0,0,1-.09.61,2,2,0,0,1-.25.5,3.47,3.47,0,0,1-.35.43l-.41.4-1.75,1.64v0h2.89v.62h-3.64Z"/><path d="M256.27,78.39a5.85,5.85,0,0,1,.08-1,3.19,3.19,0,0,1,.29-1,2,2,0,0,1,.59-.7,1.54,1.54,0,0,1,1-.28,1.51,1.51,0,0,1,.95.28,1.91,1.91,0,0,1,.59.7,3.2,3.2,0,0,1,.3,1,6.29,6.29,0,0,1,0,2,3.2,3.2,0,0,1-.3,1,1.91,1.91,0,0,1-.59.7,1.51,1.51,0,0,1-.95.28,1.54,1.54,0,0,1-1-.28,2,2,0,0,1-.59-.7,3.19,3.19,0,0,1-.29-1A5.85,5.85,0,0,1,256.27,78.39Zm.67,0a3.78,3.78,0,0,0,0,.46c0,.17,0,.35.05.52a4.77,4.77,0,0,0,.13.51,1.67,1.67,0,0,0,.23.44,1,1,0,0,0,.34.31,1,1,0,0,0,.48.11,1.06,1.06,0,0,0,.48-.11,1.24,1.24,0,0,0,.34-.31,2,2,0,0,0,.22-.44,3.18,3.18,0,0,0,.13-.51,4.6,4.6,0,0,0,.06-.52c0-.17,0-.32,0-.46s0-.29,0-.46a4.35,4.35,0,0,0-.06-.52,3.18,3.18,0,0,0-.13-.51,2,2,0,0,0-.22-.44,1.24,1.24,0,0,0-.34-.31,1.06,1.06,0,0,0-.48-.11,1,1,0,0,0-.48.11,1,1,0,0,0-.34.31,1.67,1.67,0,0,0-.23.44,4.77,4.77,0,0,0-.13.51c0,.17,0,.34-.05.52A3.78,3.78,0,0,0,256.94,78.39Z"/><path d="M260.87,76.61a1.13,1.13,0,0,1,.09-.45,1,1,0,0,1,.24-.37,1.16,1.16,0,0,1,1.62,0,1.15,1.15,0,0,1,.25.37,1.13,1.13,0,0,1,.09.45,1,1,0,0,1-.09.44,1.15,1.15,0,0,1-.25.37,1.16,1.16,0,0,1-1.62,0,1,1,0,0,1-.24-.37A1,1,0,0,1,260.87,76.61Zm.43,0a.69.69,0,0,0,.05.24.75.75,0,0,0,.15.24.6.6,0,0,0,.22.16.64.64,0,0,0,.58,0,.63.63,0,0,0,.23-.16.72.72,0,0,0,.14-.24.52.52,0,0,0,.05-.24.56.56,0,0,0-.05-.25.59.59,0,0,0-.14-.23.66.66,0,0,0-.23-.17.64.64,0,0,0-.58,0,.62.62,0,0,0-.22.17.61.61,0,0,0-.15.23A.74.74,0,0,0,261.3,76.61Z"/><path d="M40.39,192.45v0a1.42,1.42,0,0,1,.38-.13,1.84,1.84,0,0,1,.39,0,1.72,1.72,0,0,1,.68.13,1.42,1.42,0,0,1,.54.36,1.85,1.85,0,0,1,.36.57,2,2,0,0,1,.13.72,1.78,1.78,0,0,1-.15.74,1.6,1.6,0,0,1-.4.56,2,2,0,0,1-.6.35,2.4,2.4,0,0,1-1.5,0,2,2,0,0,1-.6-.35,1.6,1.6,0,0,1-.4-.56,1.78,1.78,0,0,1-.15-.74,2.24,2.24,0,0,1,.16-.86,5.19,5.19,0,0,1,.38-.74l1.5-2.39h.79Zm.59.43a1.23,1.23,0,0,0-.87.32,1.16,1.16,0,0,0-.26.38,1.31,1.31,0,0,0-.09.5,1.35,1.35,0,0,0,.09.5,1.23,1.23,0,0,0,.26.37,1,1,0,0,0,.39.24,1.32,1.32,0,0,0,1,0,1,1,0,0,0,.39-.24,1.23,1.23,0,0,0,.26-.37,1.35,1.35,0,0,0,.1-.5,1.31,1.31,0,0,0-.1-.5,1.16,1.16,0,0,0-.26-.38,1.23,1.23,0,0,0-.87-.32Z"/><path d="M43.46,192.92a7.07,7.07,0,0,1,.08-1,2.88,2.88,0,0,1,.3-.94,1.94,1.94,0,0,1,.59-.71,1.55,1.55,0,0,1,1-.27,1.6,1.6,0,0,1,1,.27,2,2,0,0,1,.59.71,3.13,3.13,0,0,1,.29.94,7.07,7.07,0,0,1,.08,1,7,7,0,0,1-.08,1,3.1,3.1,0,0,1-.29,1,2,2,0,0,1-.59.71,1.6,1.6,0,0,1-1,.27,1.55,1.55,0,0,1-1-.27,1.94,1.94,0,0,1-.59-.71,2.86,2.86,0,0,1-.3-1A7,7,0,0,1,43.46,192.92Zm.67,0c0,.14,0,.3,0,.47a4.43,4.43,0,0,0,.06.51,2.72,2.72,0,0,0,.13.51,1.51,1.51,0,0,0,.22.44,1.12,1.12,0,0,0,.34.31,1,1,0,0,0,1,0,1.12,1.12,0,0,0,.34-.31,1.83,1.83,0,0,0,.23-.44,3.81,3.81,0,0,0,.12-.51,4.43,4.43,0,0,0,.06-.51c0-.17,0-.33,0-.47s0-.29,0-.46a4.88,4.88,0,0,0-.06-.52,4.05,4.05,0,0,0-.12-.5,1.66,1.66,0,0,0-.23-.44,1,1,0,0,0-.34-.31,1,1,0,0,0-1,0,1,1,0,0,0-.34.31,1.4,1.4,0,0,0-.22.44,2.83,2.83,0,0,0-.13.5,4.88,4.88,0,0,0-.06.52C44.14,192.63,44.13,192.79,44.13,192.92Z"/><path d="M48.06,191.14a1.15,1.15,0,0,1,.33-.81,1.15,1.15,0,0,1,.37-.25,1.33,1.33,0,0,1,.45-.08,1.27,1.27,0,0,1,.44.08,1.15,1.15,0,0,1,.37.25A1.16,1.16,0,0,1,50,192a1.15,1.15,0,0,1-.37.25,1.27,1.27,0,0,1-.44.08,1.33,1.33,0,0,1-.45-.08,1.15,1.15,0,0,1-.37-.25,1.15,1.15,0,0,1-.33-.81Zm.43,0a.61.61,0,0,0,.06.25.79.79,0,0,0,.14.23.72.72,0,0,0,.22.17.73.73,0,0,0,.3.06.72.72,0,0,0,.29-.06.62.62,0,0,0,.22-.17,1.14,1.14,0,0,0,.15-.23.65.65,0,0,0,0-.5,1.14,1.14,0,0,0-.15-.23.62.62,0,0,0-.22-.17.72.72,0,0,0-.29-.06.73.73,0,0,0-.3.06.72.72,0,0,0-.22.17.79.79,0,0,0-.14.23A.61.61,0,0,0,48.49,191.14Z"/><path d="M39.15,81.22h-.67v-4.8h0l-1,.86-.4-.49,1.52-1.23h.58Z"/><path d="M41.07,80.45l2.14-2.08c.13-.12.25-.24.35-.35a2.16,2.16,0,0,0,.25-.32,1.09,1.09,0,0,0,.15-.33A1.38,1.38,0,0,0,44,77a1,1,0,0,0-.08-.4.84.84,0,0,0-.22-.3.78.78,0,0,0-.33-.19A1.05,1.05,0,0,0,43,76a1,1,0,0,0-.72.25,1.19,1.19,0,0,0-.36.65l-.72-.06a1.47,1.47,0,0,1,.21-.61,1.41,1.41,0,0,1,.39-.45,2,2,0,0,1,.53-.27,2.2,2.2,0,0,1,.64-.09,2.41,2.41,0,0,1,.67.1,2.06,2.06,0,0,1,.55.29,1.47,1.47,0,0,1,.37.48,1.6,1.6,0,0,1,.14.67,2,2,0,0,1-.09.61,2.34,2.34,0,0,1-.25.5,3.47,3.47,0,0,1-.35.43l-.41.4-1.75,1.64v0h2.89v.62H41.07Z"/><path d="M45.43,78.39a7,7,0,0,1,.07-1,3.52,3.52,0,0,1,.3-1,2,2,0,0,1,.59-.7,1.77,1.77,0,0,1,1.91,0,1.91,1.91,0,0,1,.59.7,3.52,3.52,0,0,1,.3,1,6.29,6.29,0,0,1,0,2,3.52,3.52,0,0,1-.3,1,1.91,1.91,0,0,1-.59.7,1.77,1.77,0,0,1-1.91,0,2,2,0,0,1-.59-.7,3.52,3.52,0,0,1-.3-1A7,7,0,0,1,45.43,78.39Zm.67,0c0,.14,0,.29,0,.46a4.6,4.6,0,0,0,.06.52,4.77,4.77,0,0,0,.13.51,2,2,0,0,0,.22.44,1.15,1.15,0,0,0,.35.31,1,1,0,0,0,.48.11,1.06,1.06,0,0,0,.48-.11,1.24,1.24,0,0,0,.34-.31,2,2,0,0,0,.22-.44,3.18,3.18,0,0,0,.13-.51,4.6,4.6,0,0,0,.06-.52c0-.17,0-.32,0-.46s0-.29,0-.46a4.35,4.35,0,0,0-.06-.52,3.18,3.18,0,0,0-.13-.51,2,2,0,0,0-.22-.44,1.24,1.24,0,0,0-.34-.31,1.06,1.06,0,0,0-.48-.11,1,1,0,0,0-.48.11,1.15,1.15,0,0,0-.35.31,2,2,0,0,0-.22.44,4.77,4.77,0,0,0-.13.51,4.35,4.35,0,0,0-.06.52C46.1,78.1,46.1,78.25,46.1,78.39Z"/><path d="M50,76.61a1.12,1.12,0,0,1,.08-.45,1.15,1.15,0,0,1,.25-.37,1.16,1.16,0,0,1,1.62,0,1.15,1.15,0,0,1,.25.37,1.33,1.33,0,0,1,.08.45,1.23,1.23,0,0,1-.08.44,1.15,1.15,0,0,1-.25.37,1.16,1.16,0,0,1-1.62,0,1.15,1.15,0,0,1-.25-.37A1,1,0,0,1,50,76.61Zm.43,0a.52.52,0,0,0,0,.24.72.72,0,0,0,.14.24.63.63,0,0,0,.23.16.64.64,0,0,0,.58,0,.73.73,0,0,0,.23-.16,1,1,0,0,0,.14-.24.69.69,0,0,0,.05-.24.75.75,0,0,0-.19-.48.76.76,0,0,0-.23-.17.64.64,0,0,0-.58,0,.66.66,0,0,0-.23.17.59.59,0,0,0-.14.23A.56.56,0,0,0,50.46,76.61Z"/></g><g id="numeri_fondo_tabella" data-name="numeri fondo tabella"><path d="M131.83,251.42a1.17,1.17,0,0,0-.43-.35,1.19,1.19,0,0,0-.51-.11,1.35,1.35,0,0,0-.55.11,1.08,1.08,0,0,0-.4.3,1.32,1.32,0,0,0-.23.44,1.76,1.76,0,0,0,0,1.08,1.43,1.43,0,0,0,.26.45,1.31,1.31,0,0,0,.39.3,1.27,1.27,0,0,0,.52.1,1.09,1.09,0,0,0,1-.46l.47.44a1.69,1.69,0,0,1-.64.46,2.29,2.29,0,0,1-.78.14,2.22,2.22,0,0,1-.79-.14,1.75,1.75,0,0,1-1-1,2.27,2.27,0,0,1,0-1.57,1.86,1.86,0,0,1,.39-.63,2,2,0,0,1,.61-.41,2,2,0,0,1,.79-.15,2.09,2.09,0,0,1,.79.15,1.59,1.59,0,0,1,.65.45Z"/><path d="M136.21,253.56h0a1.43,1.43,0,0,1-.55.54,1.7,1.7,0,0,1-.89.22,1.8,1.8,0,0,1-.73-.15,1.78,1.78,0,0,1-.6-.41,1.81,1.81,0,0,1-.39-.62,2.06,2.06,0,0,1-.15-.79,2,2,0,0,1,.15-.78,1.88,1.88,0,0,1,.4-.63,1.81,1.81,0,0,1,.62-.41,2.07,2.07,0,0,1,.8-.15,1.72,1.72,0,0,1,.75.17,1.78,1.78,0,0,1,.59.47h0v-2.84h.62v6h-.62Zm0-1.21a1.63,1.63,0,0,0-.09-.55,1.34,1.34,0,0,0-.27-.44,1.37,1.37,0,0,0-.42-.29,1.35,1.35,0,0,0-.55-.11,1.42,1.42,0,0,0-.55.11,1.22,1.22,0,0,0-.41.29,1.34,1.34,0,0,0-.27.44,1.56,1.56,0,0,0,0,1.1,1.25,1.25,0,0,0,.27.44,1.19,1.19,0,0,0,1,.4,1.35,1.35,0,0,0,.55-.1,1.6,1.6,0,0,0,.42-.3,1.25,1.25,0,0,0,.27-.44A1.63,1.63,0,0,0,136.21,252.35Z"/><path d="M140.1,254.57l-.5-.2,2.4-6.15.51.2Z"/><path d="M147.64,254.22H147v-4.8h0l-1,.86-.4-.49,1.52-1.23h.59Z"/><path d="M149.46,251.39a7.07,7.07,0,0,1,.08-1,3.19,3.19,0,0,1,.29-.95,2,2,0,0,1,.59-.7,1.61,1.61,0,0,1,1-.28,1.55,1.55,0,0,1,1,.28,1.91,1.91,0,0,1,.59.7,2.94,2.94,0,0,1,.3.95,6.29,6.29,0,0,1,0,2,2.94,2.94,0,0,1-.3,1,1.91,1.91,0,0,1-.59.7,1.49,1.49,0,0,1-1,.28,1.54,1.54,0,0,1-1-.28,2,2,0,0,1-.59-.7,3.19,3.19,0,0,1-.29-1A7.07,7.07,0,0,1,149.46,251.39Zm.67,0c0,.14,0,.29,0,.47a4.43,4.43,0,0,0,.06.51,4.7,4.7,0,0,0,.12.51,2,2,0,0,0,.23.44,1.12,1.12,0,0,0,.34.31,1.1,1.1,0,0,0,1,0,1.12,1.12,0,0,0,.34-.31,1.65,1.65,0,0,0,.22-.44,3.18,3.18,0,0,0,.13-.51,4.43,4.43,0,0,0,.06-.51c0-.18,0-.33,0-.47s0-.29,0-.46a4.6,4.6,0,0,0-.06-.52,3.18,3.18,0,0,0-.13-.51,1.65,1.65,0,0,0-.22-.44,1.08,1.08,0,0,0-.34-.3,1,1,0,0,0-1,0,1.08,1.08,0,0,0-.34.3,2,2,0,0,0-.23.44,4.7,4.7,0,0,0-.12.51,4.6,4.6,0,0,0-.06.52C150.14,251.1,150.13,251.25,150.13,251.39Z"/><path d="M153.91,251.39a5.85,5.85,0,0,1,.08-1,3.19,3.19,0,0,1,.29-.95,2,2,0,0,1,.59-.7,1.61,1.61,0,0,1,1-.28,1.55,1.55,0,0,1,.95.28,1.91,1.91,0,0,1,.59.7,3.2,3.2,0,0,1,.3.95,6.29,6.29,0,0,1,0,2,3.2,3.2,0,0,1-.3,1,1.91,1.91,0,0,1-.59.7,1.49,1.49,0,0,1-.95.28,1.54,1.54,0,0,1-1-.28,2,2,0,0,1-.59-.7,3.19,3.19,0,0,1-.29-1A5.85,5.85,0,0,1,153.91,251.39Zm.67,0a4,4,0,0,0,0,.47,4.43,4.43,0,0,0,.06.51,3.14,3.14,0,0,0,.12.51,1.67,1.67,0,0,0,.23.44,1,1,0,0,0,.34.31.9.9,0,0,0,.48.11,1,1,0,0,0,.48-.11,1.24,1.24,0,0,0,.34-.31,1.65,1.65,0,0,0,.22-.44,3.18,3.18,0,0,0,.13-.51,4.43,4.43,0,0,0,.06-.51c0-.18,0-.33,0-.47s0-.29,0-.46a4.6,4.6,0,0,0-.06-.52,3.18,3.18,0,0,0-.13-.51,1.65,1.65,0,0,0-.22-.44,1.21,1.21,0,0,0-.34-.3,1,1,0,0,0-.48-.12.9.9,0,0,0-.48.12,1,1,0,0,0-.34.3,1.67,1.67,0,0,0-.23.44,3.14,3.14,0,0,0-.12.51,4.6,4.6,0,0,0-.06.52A3.78,3.78,0,0,0,154.58,251.39Z"/><path d="M158.31,251.39a5.85,5.85,0,0,1,.08-1,3.19,3.19,0,0,1,.29-.95,2,2,0,0,1,.59-.7,1.61,1.61,0,0,1,1-.28,1.55,1.55,0,0,1,1,.28,1.91,1.91,0,0,1,.59.7,3.2,3.2,0,0,1,.3.95,6.29,6.29,0,0,1,0,2,3.2,3.2,0,0,1-.3,1,1.91,1.91,0,0,1-.59.7,1.49,1.49,0,0,1-1,.28,1.54,1.54,0,0,1-1-.28,2,2,0,0,1-.59-.7,3.19,3.19,0,0,1-.29-1A5.85,5.85,0,0,1,158.31,251.39Zm.67,0c0,.14,0,.29,0,.47a4.43,4.43,0,0,0,.06.51,3.14,3.14,0,0,0,.12.51,1.67,1.67,0,0,0,.23.44,1,1,0,0,0,.34.31.9.9,0,0,0,.48.11,1,1,0,0,0,.48-.11,1.24,1.24,0,0,0,.34-.31,1.65,1.65,0,0,0,.22-.44,3.18,3.18,0,0,0,.13-.51,4.43,4.43,0,0,0,.06-.51c0-.18,0-.33,0-.47s0-.29,0-.46a4.6,4.6,0,0,0-.06-.52,3.18,3.18,0,0,0-.13-.51,1.65,1.65,0,0,0-.22-.44,1.21,1.21,0,0,0-.34-.3,1,1,0,0,0-.48-.12.9.9,0,0,0-.48.12,1,1,0,0,0-.34.3,1.67,1.67,0,0,0-.23.44,3.14,3.14,0,0,0-.12.51,4.6,4.6,0,0,0-.06.52C159,251.1,159,251.25,159,251.39Z"/><path d="M165.32,248.18H166v6h-.63Z"/><path d="M167.19,251.37c0-.17,0-.33,0-.48s0-.29,0-.41h.59c0,.1,0,.2,0,.3v.32h0a.91.91,0,0,1,.18-.27,1.64,1.64,0,0,1,.28-.23,1.5,1.5,0,0,1,.36-.16,1.44,1.44,0,0,1,.43-.06,1.52,1.52,0,0,1,.51.08,1.36,1.36,0,0,1,.34.18.93.93,0,0,1,.21.24,1.64,1.64,0,0,1,.12.22,1.78,1.78,0,0,1,.48-.53,1.27,1.27,0,0,1,.71-.19,1.88,1.88,0,0,1,.67.11,1.1,1.1,0,0,1,.44.31,1.37,1.37,0,0,1,.24.5,2.59,2.59,0,0,1,.07.65v2.27h-.62V252a2.33,2.33,0,0,0,0-.37,1,1,0,0,0-.15-.33.71.71,0,0,0-.28-.23,1,1,0,0,0-.45-.09,1,1,0,0,0-.37.08,1,1,0,0,0-.31.22,1.13,1.13,0,0,0-.21.35,1.33,1.33,0,0,0-.07.45v2.16h-.63V252.1a1.62,1.62,0,0,0-.17-.88A.6.6,0,0,0,169,251a1.18,1.18,0,0,0-.52.1.88.88,0,0,0-.36.3,1.14,1.14,0,0,0-.21.46,2.1,2.1,0,0,0-.07.58v1.82h-.62Z"/><line class="cls-1" x1="38.21" y1="253" x2="46.2" y2="253"/><path d="M235.17,251a1.66,1.66,0,0,0-.63-.52,1.93,1.93,0,0,0-.79-.17,2.13,2.13,0,0,0-.87.19,2.16,2.16,0,0,0-.68.52,2.58,2.58,0,0,0-.45.75,2.69,2.69,0,0,0-.16.89,2.79,2.79,0,0,0,.16.93,2.41,2.41,0,0,0,.45.74,2,2,0,0,0,.68.5,1.92,1.92,0,0,0,.87.19,2,2,0,0,0,1.64-.8l.51.43a2.38,2.38,0,0,1-.93.75,3,3,0,0,1-1.22.24,2.85,2.85,0,0,1-1.13-.22,2.82,2.82,0,0,1-.92-.62,3,3,0,0,1-.61-.94,3.33,3.33,0,0,1-.22-1.2,3.19,3.19,0,0,1,.21-1.16,2.9,2.9,0,0,1,.6-1,3.08,3.08,0,0,1,.91-.63,3,3,0,0,1,2.27,0,2,2,0,0,1,.89.68Z"/><path d="M239,253.1l0,0a1.35,1.35,0,0,1-.37.13,2.87,2.87,0,0,1-.39,0,1.68,1.68,0,0,1-.68-.13,1.5,1.5,0,0,1-.55-.36,1.92,1.92,0,0,1-.36-.56,2.11,2.11,0,0,1-.12-.73,1.75,1.75,0,0,1,.14-.74,1.63,1.63,0,0,1,.4-.56,1.79,1.79,0,0,1,.6-.35,2.36,2.36,0,0,1,.75-.12,2.27,2.27,0,0,1,.75.12,1.94,1.94,0,0,1,.61.35,1.49,1.49,0,0,1,.39.56,1.75,1.75,0,0,1,.15.74,2.19,2.19,0,0,1,0,.46c0,.14-.07.27-.11.4a2.53,2.53,0,0,1-.18.37,3.35,3.35,0,0,1-.21.36l-1.5,2.4h-.79Zm-.6-.43a1.51,1.51,0,0,0,.48-.08,1.28,1.28,0,0,0,.39-.24,1.12,1.12,0,0,0,.26-.38,1.27,1.27,0,0,0,.1-.5,1.26,1.26,0,0,0-.1-.49,1,1,0,0,0-.26-.38,1,1,0,0,0-.39-.24,1.33,1.33,0,0,0-1,0,.88.88,0,0,0-.38.24,1.19,1.19,0,0,0-.27.38,1.26,1.26,0,0,0-.09.49,1.28,1.28,0,0,0,.09.5,1.31,1.31,0,0,0,.27.38,1.12,1.12,0,0,0,.38.24A1.51,1.51,0,0,0,238.35,252.67Z"/><path d="M240.88,252.62a7.07,7.07,0,0,1,.08-1,2.88,2.88,0,0,1,.3-.94,2,2,0,0,1,.58-.71,1.84,1.84,0,0,1,1.92,0,2,2,0,0,1,.58.71,2.88,2.88,0,0,1,.3.94,7.07,7.07,0,0,1,.08,1,7,7,0,0,1-.08,1,2.86,2.86,0,0,1-.3.95,2,2,0,0,1-.58.71,1.84,1.84,0,0,1-1.92,0,2,2,0,0,1-.58-.71,2.86,2.86,0,0,1-.3-.95A7,7,0,0,1,240.88,252.62Zm.67,0c0,.14,0,.3,0,.47a4.43,4.43,0,0,0,.06.51,2.72,2.72,0,0,0,.13.51,1.51,1.51,0,0,0,.22.44,1.12,1.12,0,0,0,.34.31,1,1,0,0,0,1,0,1.12,1.12,0,0,0,.34-.31,1.51,1.51,0,0,0,.22-.44,2.72,2.72,0,0,0,.13-.51,4.43,4.43,0,0,0,.06-.51c0-.17,0-.33,0-.47s0-.29,0-.46a4.88,4.88,0,0,0-.06-.52,2.83,2.83,0,0,0-.13-.5,1.4,1.4,0,0,0-.22-.44,1.12,1.12,0,0,0-.34-.31,1,1,0,0,0-1,0,1.12,1.12,0,0,0-.34.31,1.4,1.4,0,0,0-.22.44,2.83,2.83,0,0,0-.13.5,4.88,4.88,0,0,0-.06.52C241.56,252.33,241.55,252.49,241.55,252.62Z"/><path d="M247.78,255.8l-.51-.2,2.41-6.14.5.19Z"/><path d="M257.1,251a1.66,1.66,0,0,0-.63-.52,1.92,1.92,0,0,0-.78-.17,2.06,2.06,0,0,0-.87.19,2.16,2.16,0,0,0-.68.52,2.21,2.21,0,0,0-.45.75,2.46,2.46,0,0,0-.16.89,2.56,2.56,0,0,0,.16.93,2.2,2.2,0,0,0,.44.74,2.1,2.1,0,0,0,.68.5,2,2,0,0,0,.88.19,2,2,0,0,0,.93-.21,2,2,0,0,0,.71-.59l.5.43a2.29,2.29,0,0,1-.92.75,3,3,0,0,1-1.22.24,2.8,2.8,0,0,1-2.05-.84,2.82,2.82,0,0,1-.61-.94,3.13,3.13,0,0,1-.22-1.2,3.19,3.19,0,0,1,.21-1.16,2.75,2.75,0,0,1,.6-1,3,3,0,0,1,.91-.63,2.93,2.93,0,0,1,1.16-.23,3,3,0,0,1,1.11.21,2,2,0,0,1,.89.68Z"/><path d="M258.46,254.69l2.14-2.08.35-.36a1.75,1.75,0,0,0,.25-.32,1,1,0,0,0,.15-.32,1.46,1.46,0,0,0,0-.38,1,1,0,0,0-.08-.4.93.93,0,0,0-.22-.3,1.13,1.13,0,0,0-.73-.26,1,1,0,0,0-.71.25,1.11,1.11,0,0,0-.36.66l-.73-.07a1.91,1.91,0,0,1,.21-.61,1.28,1.28,0,0,1,.39-.44,1.77,1.77,0,0,1,.53-.27,2.25,2.25,0,0,1,.64-.09,2.09,2.09,0,0,1,.67.1,1.53,1.53,0,0,1,.55.29,1.47,1.47,0,0,1,.37.48,1.39,1.39,0,0,1,.14.66,1.91,1.91,0,0,1-.09.61,1.8,1.8,0,0,1-.25.5,2.86,2.86,0,0,1-.35.43l-.41.41-1.75,1.64h2.89v.63h-3.65Z"/><path d="M266.35,250.42l-2.26,5h-.76l2.3-5H262.9v-.63h3.45Z"/><path d="M267.26,252.62a7.07,7.07,0,0,1,.08-1,3.45,3.45,0,0,1,.3-.94,2,2,0,0,1,.59-.71,1.82,1.82,0,0,1,1.91,0,2,2,0,0,1,.59.71,3.45,3.45,0,0,1,.3.94,7,7,0,0,1,.07,1,6.92,6.92,0,0,1-.07,1,3.41,3.41,0,0,1-.3.95,2,2,0,0,1-.59.71,1.82,1.82,0,0,1-1.91,0,2,2,0,0,1-.59-.71,3.41,3.41,0,0,1-.3-.95A7,7,0,0,1,267.26,252.62Zm.68,0c0,.14,0,.3,0,.47a4.43,4.43,0,0,0,.06.51,2.72,2.72,0,0,0,.13.51,1.53,1.53,0,0,0,.23.44,1,1,0,0,0,.34.31.89.89,0,0,0,.47.12,1,1,0,0,0,.49-.12,1.08,1.08,0,0,0,.33-.31,1.53,1.53,0,0,0,.23-.44,2.72,2.72,0,0,0,.13-.51,4.43,4.43,0,0,0,.06-.51c0-.17,0-.33,0-.47s0-.29,0-.46a4.88,4.88,0,0,0-.06-.52,2.83,2.83,0,0,0-.13-.5,1.41,1.41,0,0,0-.23-.44,1.08,1.08,0,0,0-.33-.31,1,1,0,0,0-.49-.12.89.89,0,0,0-.47.12,1,1,0,0,0-.34.31,1.41,1.41,0,0,0-.23.44,2.83,2.83,0,0,0-.13.5,4.88,4.88,0,0,0-.06.52C267.94,252.33,267.94,252.49,267.94,252.62Z"/><path d="M52.87,251a1.55,1.55,0,0,0-.63-.51,1.82,1.82,0,0,0-.79-.18,2,2,0,0,0-.87.2,2.13,2.13,0,0,0-.68.51,2.58,2.58,0,0,0-.45.75,2.67,2.67,0,0,0,0,1.82,2.29,2.29,0,0,0,.45.74,1.88,1.88,0,0,0,.68.5,1.92,1.92,0,0,0,.87.19,2,2,0,0,0,.93-.21,2.07,2.07,0,0,0,.71-.58l.51.42a2.38,2.38,0,0,1-.93.75,3,3,0,0,1-1.22.24,2.85,2.85,0,0,1-1.13-.22,2.82,2.82,0,0,1-.92-.62,3,3,0,0,1-.61-.94,3.27,3.27,0,0,1-.22-1.19,3.2,3.2,0,0,1,.21-1.17,3,3,0,0,1,.6-.95,3.08,3.08,0,0,1,.91-.63,3,3,0,0,1,2.27,0,2,2,0,0,1,.89.68Z"/><path d="M54.13,252.62a7,7,0,0,1,.08-1,3.11,3.11,0,0,1,.3-1,1.94,1.94,0,0,1,.59-.71,1.55,1.55,0,0,1,.95-.27,1.6,1.6,0,0,1,1,.27,2,2,0,0,1,.59.71,3.1,3.1,0,0,1,.29,1,5.77,5.77,0,0,1,.08,1,5.85,5.85,0,0,1-.08,1,3.13,3.13,0,0,1-.29.94,2,2,0,0,1-.59.71,1.6,1.6,0,0,1-1,.27,1.55,1.55,0,0,1-.95-.27,1.94,1.94,0,0,1-.59-.71,3.14,3.14,0,0,1-.3-.94A7.07,7.07,0,0,1,54.13,252.62Zm.67,0c0,.13,0,.29,0,.46a4.88,4.88,0,0,0,.06.52,2.83,2.83,0,0,0,.13.5,1.4,1.4,0,0,0,.22.44,1.1,1.1,0,0,0,.34.31,1,1,0,0,0,.48.12.9.9,0,0,0,.48-.12.92.92,0,0,0,.34-.31,1.41,1.41,0,0,0,.23-.44,2.8,2.8,0,0,0,.12-.5,4.88,4.88,0,0,0,.06-.52,3.86,3.86,0,0,0,0-.46,3.94,3.94,0,0,0,0-.47,4.43,4.43,0,0,0-.06-.51,2.71,2.71,0,0,0-.12-.51,1.53,1.53,0,0,0-.23-.44,1,1,0,0,0-.34-.31.9.9,0,0,0-.48-.12,1,1,0,0,0-.48.12,1.24,1.24,0,0,0-.34.31,1.51,1.51,0,0,0-.22.44,2.72,2.72,0,0,0-.13.51,4.43,4.43,0,0,0-.06.51C54.81,252.32,54.8,252.48,54.8,252.62Z"/><path d="M61,255.79l-.51-.2,2.41-6.14.51.19Z"/><path d="M70.36,251a1.52,1.52,0,0,0-.64-.51,1.78,1.78,0,0,0-.78-.18,2,2,0,0,0-.87.2,2.13,2.13,0,0,0-.68.51,2.58,2.58,0,0,0-.45.75,2.51,2.51,0,0,0-.16.9,2.54,2.54,0,0,0,.16.92,2.46,2.46,0,0,0,.44.74,2.09,2.09,0,0,0,1.56.69,2,2,0,0,0,.93-.21,2.07,2.07,0,0,0,.71-.58l.5.42a2.29,2.29,0,0,1-.92.75,3,3,0,0,1-1.22.24,2.93,2.93,0,0,1-1.14-.22,2.88,2.88,0,0,1-.91-.62,3,3,0,0,1-.61-.94,3.07,3.07,0,0,1-.22-1.19,3.2,3.2,0,0,1,.21-1.17,2.84,2.84,0,0,1,.6-.95,3,3,0,0,1,.91-.63,2.93,2.93,0,0,1,1.16-.23,3,3,0,0,1,1.11.21,2,2,0,0,1,.89.68Z"/><path d="M74.2,255.45h-.68v-4.8h0l-1,.85-.4-.48,1.52-1.24h.59Z"/><path d="M76.37,251.17a1.33,1.33,0,0,1,.13-.61,1.2,1.2,0,0,1,.34-.46,1.44,1.44,0,0,1,.51-.3,1.92,1.92,0,0,1,1.28,0,1.44,1.44,0,0,1,.51.3,1.32,1.32,0,0,1,.34.46,1.48,1.48,0,0,1,.12.61,1.44,1.44,0,0,1-.06.4,1.41,1.41,0,0,1-.18.37,1.18,1.18,0,0,1-.3.29,1,1,0,0,1-.38.19h0a1.44,1.44,0,0,1,.46.19,1.35,1.35,0,0,1,.35.32,1.67,1.67,0,0,1,.23.44,1.7,1.7,0,0,1,.08.51,1.74,1.74,0,0,1-.14.69,1.46,1.46,0,0,1-.39.52,1.47,1.47,0,0,1-.57.33,2.35,2.35,0,0,1-1.42,0,1.59,1.59,0,0,1-.58-.33,1.43,1.43,0,0,1-.38-.52,1.74,1.74,0,0,1-.14-.69,1.7,1.7,0,0,1,.08-.51,1.65,1.65,0,0,1,.22-.44,1.59,1.59,0,0,1,.36-.32,1.44,1.44,0,0,1,.46-.19h0a1.18,1.18,0,0,1-.39-.19,1.33,1.33,0,0,1-.29-.29,1.41,1.41,0,0,1-.18-.37A1.16,1.16,0,0,1,76.37,251.17Zm.48,2.67a1.14,1.14,0,0,0,.09.46,1.21,1.21,0,0,0,.24.35,1.16,1.16,0,0,0,.36.23A1.13,1.13,0,0,0,78,255a1,1,0,0,0,.44-.09,1,1,0,0,0,.36-.23,1.07,1.07,0,0,0,.25-.35,1.36,1.36,0,0,0,0-.92,1.07,1.07,0,0,0-.25-.35,1,1,0,0,0-.36-.23,1,1,0,0,0-.44-.09,1.13,1.13,0,0,0-.45.09,1.16,1.16,0,0,0-.36.23,1.21,1.21,0,0,0-.24.35A1.14,1.14,0,0,0,76.85,253.84ZM77,251.2a.92.92,0,0,0,.26.67.93.93,0,0,0,.69.27.9.9,0,0,0,.68-.27,1,1,0,0,0,0-1.34.9.9,0,0,0-.68-.27.93.93,0,0,0-.69.27A.92.92,0,0,0,77,251.2Z"/><path d="M80.52,252.62a5.77,5.77,0,0,1,.08-1,3.1,3.1,0,0,1,.29-1,2,2,0,0,1,.59-.71,1.6,1.6,0,0,1,1-.27,1.55,1.55,0,0,1,1,.27,1.94,1.94,0,0,1,.59.71,3.41,3.41,0,0,1,.3,1,7,7,0,0,1,.08,1,7.07,7.07,0,0,1-.08,1,3.45,3.45,0,0,1-.3.94,1.94,1.94,0,0,1-.59.71,1.55,1.55,0,0,1-1,.27,1.6,1.6,0,0,1-1-.27,2,2,0,0,1-.59-.71,3.13,3.13,0,0,1-.29-.94A5.85,5.85,0,0,1,80.52,252.62Zm.67,0a3.86,3.86,0,0,0,0,.46c0,.17,0,.34.05.52a4.07,4.07,0,0,0,.13.5,1.41,1.41,0,0,0,.23.44.92.92,0,0,0,.34.31.9.9,0,0,0,.48.12,1,1,0,0,0,.48-.12,1.1,1.1,0,0,0,.34-.31,1.65,1.65,0,0,0,.22-.44,2.83,2.83,0,0,0,.13-.5,4.88,4.88,0,0,0,.06-.52c0-.17,0-.33,0-.46s0-.3,0-.47a4.43,4.43,0,0,0-.06-.51,2.72,2.72,0,0,0-.13-.51,1.81,1.81,0,0,0-.22-.44,1.24,1.24,0,0,0-.34-.31,1,1,0,0,0-.48-.12.9.9,0,0,0-.48.12,1,1,0,0,0-.34.31,1.53,1.53,0,0,0-.23.44,3.8,3.8,0,0,0-.13.51c0,.17,0,.34-.05.51A3.94,3.94,0,0,0,81.19,252.62Z"/><line class="cls-2" x1="214.49" y1="253.42" x2="215.03" y2="253.42"/><line class="cls-2" x1="217.76" y1="253.42" x2="218.3" y2="253.42"/><line class="cls-2" x1="221.02" y1="253.42" x2="221.56" y2="253.42"/><line class="cls-2" x1="224.29" y1="253.42" x2="224.83" y2="253.42"/><line class="cls-2" x1="227.55" y1="253.42" x2="228.09" y2="253.42"/></g><g id="GLO_BALL"><g id="Glo_Ball_F2_F3032020"><path d="M55,11.6H59.4v.78H55.85v2.34h3.3v.78h-3.3v3.18H55Z"/><path d="M61.73,14.6H62a3.48,3.48,0,0,0,.55,0,1.33,1.33,0,0,0,.52-.17,1.14,1.14,0,0,0,.39-.37,1.25,1.25,0,0,0,.15-.65,1.11,1.11,0,0,0-.33-.85,1.25,1.25,0,0,0-.88-.32,1.51,1.51,0,0,0-.78.2,1.43,1.43,0,0,0-.52.59l-.81-.31a1.85,1.85,0,0,1,.82-.9,2.54,2.54,0,0,1,1.23-.3,2.74,2.74,0,0,1,.81.12,2.14,2.14,0,0,1,.67.35,1.62,1.62,0,0,1,.46.58,1.71,1.71,0,0,1,.17.8,1.65,1.65,0,0,1-.33,1,1.76,1.76,0,0,1-.88.61v0a1.92,1.92,0,0,1,.61.22,1.72,1.72,0,0,1,.45.4,1.44,1.44,0,0,1,.29.53,1.89,1.89,0,0,1,.1.63,1.91,1.91,0,0,1-.19.89,1.69,1.69,0,0,1-.51.64,2,2,0,0,1-.74.39,3,3,0,0,1-.9.13,2.68,2.68,0,0,1-1.41-.35,2,2,0,0,1-.87-1.14l.85-.28a1.3,1.3,0,0,0,1.43,1,1.47,1.47,0,0,0,.56-.1,1.27,1.27,0,0,0,.46-.28,1.52,1.52,0,0,0,.31-.44,1.48,1.48,0,0,0,.11-.57,1.28,1.28,0,0,0-.15-.65,1.18,1.18,0,0,0-.41-.42,1.76,1.76,0,0,0-.58-.23,3.5,3.5,0,0,0-.65-.07h-.26Z"/><path d="M65.63,15.14a9.26,9.26,0,0,1,.1-1.25,4,4,0,0,1,.37-1.18,2.44,2.44,0,0,1,.74-.88,2.22,2.22,0,0,1,2.39,0,2.41,2.41,0,0,1,.73.88,3.71,3.71,0,0,1,.37,1.18,7.88,7.88,0,0,1,.1,1.25,7.79,7.79,0,0,1-.1,1.25A3.77,3.77,0,0,1,70,17.58a2.5,2.5,0,0,1-.73.88,2.27,2.27,0,0,1-2.39,0,2.53,2.53,0,0,1-.74-.88,4,4,0,0,1-.37-1.19A9.14,9.14,0,0,1,65.63,15.14Zm.84,0c0,.18,0,.37,0,.58s0,.43.08.65a3.42,3.42,0,0,0,.16.63,1.9,1.9,0,0,0,.28.55,1.42,1.42,0,0,0,.42.39,1.27,1.27,0,0,0,.6.14,1.21,1.21,0,0,0,.6-.14,1.45,1.45,0,0,0,.43-.39,2.19,2.19,0,0,0,.28-.55,4.47,4.47,0,0,0,.16-.63c0-.22.06-.43.07-.65s0-.4,0-.58,0-.36,0-.58,0-.43-.07-.64a4.61,4.61,0,0,0-.16-.64,2.37,2.37,0,0,0-.28-.55,1.3,1.3,0,0,0-.43-.38,1.11,1.11,0,0,0-.6-.15,1.16,1.16,0,0,0-.6.15,1.27,1.27,0,0,0-.42.38,2,2,0,0,0-.28.55,3.53,3.53,0,0,0-.16.64c0,.21-.06.43-.08.64S66.47,15,66.47,15.14Z"/><path d="M72.85,14.6h.26a3.48,3.48,0,0,0,.55,0,1.33,1.33,0,0,0,.52-.17,1.14,1.14,0,0,0,.39-.37,1.25,1.25,0,0,0,.15-.65,1.11,1.11,0,0,0-.33-.85,1.25,1.25,0,0,0-.88-.32,1.51,1.51,0,0,0-.78.2,1.43,1.43,0,0,0-.52.59l-.81-.31a1.85,1.85,0,0,1,.82-.9,2.54,2.54,0,0,1,1.23-.3,2.74,2.74,0,0,1,.81.12,2.14,2.14,0,0,1,.67.35,1.62,1.62,0,0,1,.46.58,1.71,1.71,0,0,1,.17.8,1.65,1.65,0,0,1-.33,1,1.76,1.76,0,0,1-.88.61v0a1.92,1.92,0,0,1,.61.22,1.72,1.72,0,0,1,.45.4,1.44,1.44,0,0,1,.29.53,1.89,1.89,0,0,1,.1.63,1.91,1.91,0,0,1-.19.89,1.69,1.69,0,0,1-.51.64,2,2,0,0,1-.74.39,3,3,0,0,1-.9.13,2.68,2.68,0,0,1-1.41-.35,2,2,0,0,1-.87-1.14L72,17a1.3,1.3,0,0,0,1.43,1A1.47,1.47,0,0,0,74,18a1.27,1.27,0,0,0,.46-.28,1.52,1.52,0,0,0,.31-.44,1.48,1.48,0,0,0,.11-.57,1.28,1.28,0,0,0-.15-.65,1.18,1.18,0,0,0-.41-.42,1.76,1.76,0,0,0-.58-.23,3.5,3.5,0,0,0-.65-.07h-.26Z"/><path d="M76.87,17.72l2.67-2.6.44-.44a3.5,3.5,0,0,0,.32-.4,1.65,1.65,0,0,0,.18-.41,1.68,1.68,0,0,0,.06-.47,1.18,1.18,0,0,0-.1-.5,1.11,1.11,0,0,0-.27-.37,1.14,1.14,0,0,0-.41-.24,1.44,1.44,0,0,0-.51-.09,1.34,1.34,0,0,0-.89.31,1.47,1.47,0,0,0-.45.82L77,13.25a2.29,2.29,0,0,1,.27-.76,1.77,1.77,0,0,1,.49-.56,2.15,2.15,0,0,1,.66-.33,2.63,2.63,0,0,1,.8-.12,2.49,2.49,0,0,1,.83.13,2.06,2.06,0,0,1,.69.36,1.87,1.87,0,0,1,.47.6,2,2,0,0,1,.17.83,2.53,2.53,0,0,1-.11.76,2.64,2.64,0,0,1-.31.63,4.51,4.51,0,0,1-.44.54c-.17.17-.34.34-.52.5l-2.18,2v0h3.61v.78H76.87Z"/><path d="M82.31,15.14a9.26,9.26,0,0,1,.1-1.25,4,4,0,0,1,.37-1.18,2.44,2.44,0,0,1,.74-.88,2.22,2.22,0,0,1,2.39,0,2.41,2.41,0,0,1,.73.88A3.71,3.71,0,0,1,87,13.89a7.88,7.88,0,0,1,.1,1.25,7.79,7.79,0,0,1-.1,1.25,3.77,3.77,0,0,1-.37,1.19,2.5,2.5,0,0,1-.73.88,2.27,2.27,0,0,1-2.39,0,2.53,2.53,0,0,1-.74-.88,4,4,0,0,1-.37-1.19A9.14,9.14,0,0,1,82.31,15.14Zm.84,0c0,.18,0,.37,0,.58s0,.43.08.65a3.42,3.42,0,0,0,.16.63,1.9,1.9,0,0,0,.28.55,1.42,1.42,0,0,0,.42.39,1.27,1.27,0,0,0,.6.14,1.21,1.21,0,0,0,.6-.14,1.45,1.45,0,0,0,.43-.39A2.19,2.19,0,0,0,86,17a4.47,4.47,0,0,0,.16-.63c0-.22.06-.43.07-.65s0-.4,0-.58,0-.36,0-.58,0-.43-.07-.64a4.61,4.61,0,0,0-.16-.64,2.37,2.37,0,0,0-.28-.55,1.3,1.3,0,0,0-.43-.38,1.11,1.11,0,0,0-.6-.15,1.16,1.16,0,0,0-.6.15,1.27,1.27,0,0,0-.42.38,2,2,0,0,0-.28.55,3.53,3.53,0,0,0-.16.64c0,.21-.06.43-.08.64S83.15,15,83.15,15.14Z"/><path d="M88,17.72l2.67-2.6c.17-.16.32-.31.44-.44a3.5,3.5,0,0,0,.32-.4,1.65,1.65,0,0,0,.18-.41,1.68,1.68,0,0,0,.06-.47,1.18,1.18,0,0,0-.1-.5,1.11,1.11,0,0,0-.27-.37,1.14,1.14,0,0,0-.41-.24,1.44,1.44,0,0,0-.51-.09,1.34,1.34,0,0,0-.89.31,1.47,1.47,0,0,0-.45.82l-.91-.08a2.29,2.29,0,0,1,.27-.76,1.77,1.77,0,0,1,.49-.56,2.15,2.15,0,0,1,.66-.33,2.63,2.63,0,0,1,.8-.12,2.49,2.49,0,0,1,.83.13,2.06,2.06,0,0,1,.69.36,1.87,1.87,0,0,1,.47.6,2,2,0,0,1,.17.83,2.53,2.53,0,0,1-.11.76,2.64,2.64,0,0,1-.31.63,4.51,4.51,0,0,1-.44.54c-.17.17-.34.34-.52.5l-2.18,2v0h3.61v.78H88Z"/><path d="M93.43,15.14a9.26,9.26,0,0,1,.1-1.25,4,4,0,0,1,.37-1.18,2.44,2.44,0,0,1,.74-.88,2.22,2.22,0,0,1,2.39,0,2.41,2.41,0,0,1,.73.88,3.71,3.71,0,0,1,.37,1.18,7.88,7.88,0,0,1,.1,1.25,7.79,7.79,0,0,1-.1,1.25,3.77,3.77,0,0,1-.37,1.19,2.5,2.5,0,0,1-.73.88,2.27,2.27,0,0,1-2.39,0,2.53,2.53,0,0,1-.74-.88,4,4,0,0,1-.37-1.19A9.14,9.14,0,0,1,93.43,15.14Zm.84,0c0,.18,0,.37,0,.58s0,.43.08.65a3.42,3.42,0,0,0,.16.63,1.9,1.9,0,0,0,.28.55,1.42,1.42,0,0,0,.42.39,1.27,1.27,0,0,0,.6.14,1.21,1.21,0,0,0,.6-.14,1.45,1.45,0,0,0,.43-.39,2.19,2.19,0,0,0,.28-.55,4.47,4.47,0,0,0,.16-.63c0-.22.06-.43.07-.65s0-.4,0-.58,0-.36,0-.58,0-.43-.07-.64a4.61,4.61,0,0,0-.16-.64,2.37,2.37,0,0,0-.28-.55,1.3,1.3,0,0,0-.43-.38,1.11,1.11,0,0,0-.6-.15,1.16,1.16,0,0,0-.6.15,1.27,1.27,0,0,0-.42.38,2,2,0,0,0-.28.55,3.53,3.53,0,0,0-.16.64c0,.21-.06.43-.08.64S94.27,15,94.27,15.14Z"/><path d="M98.61,19.43h5v.5h-5Z"/><path d="M107.21,18.68h-.84v-6h0l-1.27,1.07-.5-.61,1.9-1.54h.73Z"/><path d="M113.91,12.38H111l0,1.91a1.57,1.57,0,0,1,.45-.13,2.53,2.53,0,0,1,.46,0,2.34,2.34,0,0,1,.93.18,2.06,2.06,0,0,1,.71.49,2,2,0,0,1,.46.74,2.71,2.71,0,0,1,0,1.89,2.44,2.44,0,0,1-.51.74,2.42,2.42,0,0,1-.77.47,2.57,2.57,0,0,1-1,.17,2.15,2.15,0,0,1-1.3-.35,2.44,2.44,0,0,1-.79-.94l.84-.32a1.61,1.61,0,0,0,.53.65,1.34,1.34,0,0,0,.79.24,1.68,1.68,0,0,0,.6-.11,1.58,1.58,0,0,0,.48-.33,1.82,1.82,0,0,0,.32-.52,1.78,1.78,0,0,0,.12-.67,1.67,1.67,0,0,0-.13-.69,1.45,1.45,0,0,0-.37-.5,1.53,1.53,0,0,0-.56-.31,2.17,2.17,0,0,0-.69-.11,2.22,2.22,0,0,0-.74.13,4,4,0,0,0-.7.31l.07-3.68h3.71Z"/><path d="M115.11,15.14a9.26,9.26,0,0,1,.1-1.25,4,4,0,0,1,.37-1.18,2.44,2.44,0,0,1,.74-.88,2.22,2.22,0,0,1,2.39,0,2.41,2.41,0,0,1,.73.88,3.71,3.71,0,0,1,.37,1.18,7.88,7.88,0,0,1,.1,1.25,7.79,7.79,0,0,1-.1,1.25,3.77,3.77,0,0,1-.37,1.19,2.5,2.5,0,0,1-.73.88,2.27,2.27,0,0,1-2.39,0,2.53,2.53,0,0,1-.74-.88,4,4,0,0,1-.37-1.19A9.14,9.14,0,0,1,115.11,15.14Zm.84,0c0,.18,0,.37,0,.58s0,.43.08.65a3.42,3.42,0,0,0,.16.63,1.9,1.9,0,0,0,.28.55,1.42,1.42,0,0,0,.42.39,1.27,1.27,0,0,0,.6.14,1.21,1.21,0,0,0,.6-.14,1.45,1.45,0,0,0,.43-.39,2.19,2.19,0,0,0,.28-.55,4.47,4.47,0,0,0,.16-.63c0-.22.06-.43.07-.65s0-.4,0-.58,0-.36,0-.58,0-.43-.07-.64a4.61,4.61,0,0,0-.16-.64,2.37,2.37,0,0,0-.28-.55,1.3,1.3,0,0,0-.43-.38,1.11,1.11,0,0,0-.6-.15,1.16,1.16,0,0,0-.6.15,1.27,1.27,0,0,0-.42.38,2,2,0,0,0-.28.55,3.53,3.53,0,0,0-.16.64c0,.21-.06.43-.08.64S116,15,116,15.14Z"/><path d="M120.35,11.6h.93l1.61,5.88h0l1.74-5.88h.94l1.73,5.88h0L129,11.6h.88l-2.08,7.08h-.91l-1.75-6h0l-1.76,6h-.92Z"/><rect class="cls-3" x="54.45" y="41.94" width="189.86" height="189.86"/><circle class="cls-4" cx="149.38" cy="136.82" r="23.71"/><path d="M152.43,166.8l2.14-2.08.35-.35a2.16,2.16,0,0,0,.25-.32,1,1,0,0,0,.15-.33,1.38,1.38,0,0,0,.05-.37,1,1,0,0,0-.08-.4,1,1,0,0,0-.22-.3,1,1,0,0,0-.33-.19,1.05,1.05,0,0,0-.4-.07,1,1,0,0,0-.72.25,1.19,1.19,0,0,0-.36.65l-.72-.06a1.53,1.53,0,0,1,.21-.61,1.41,1.41,0,0,1,.39-.45,1.87,1.87,0,0,1,.53-.26,1.91,1.91,0,0,1,.64-.1,2.41,2.41,0,0,1,.67.1,1.67,1.67,0,0,1,.54.3,1.26,1.26,0,0,1,.38.47,1.6,1.6,0,0,1,.14.67,2,2,0,0,1-.09.61,2.34,2.34,0,0,1-.25.5,3.47,3.47,0,0,1-.35.43c-.13.14-.27.27-.41.4l-1.75,1.64v0h2.89v.62h-3.65Z"/><path d="M156.74,164.74a5.85,5.85,0,0,1,.08-1,3.19,3.19,0,0,1,.29-1,2,2,0,0,1,.59-.7,1.61,1.61,0,0,1,1-.28,1.57,1.57,0,0,1,1,.28,1.91,1.91,0,0,1,.59.7,3.52,3.52,0,0,1,.3,1,6.29,6.29,0,0,1,0,2,3.52,3.52,0,0,1-.3.95,1.91,1.91,0,0,1-.59.7,1.51,1.51,0,0,1-1,.28,1.54,1.54,0,0,1-1-.28,2,2,0,0,1-.59-.7,3.19,3.19,0,0,1-.29-.95A5.85,5.85,0,0,1,156.74,164.74Zm.67,0c0,.14,0,.29,0,.47l.06.51a4.77,4.77,0,0,0,.13.51,1.67,1.67,0,0,0,.23.44,1,1,0,0,0,.34.31,1,1,0,0,0,.48.11,1.06,1.06,0,0,0,.48-.11,1.24,1.24,0,0,0,.34-.31,2,2,0,0,0,.22-.44,3.18,3.18,0,0,0,.13-.51,4.43,4.43,0,0,0,.06-.51c0-.18,0-.33,0-.47s0-.29,0-.46a4.6,4.6,0,0,0-.06-.52,3.18,3.18,0,0,0-.13-.51,2,2,0,0,0-.22-.44,1.24,1.24,0,0,0-.34-.31,1.06,1.06,0,0,0-.48-.11,1,1,0,0,0-.48.11,1,1,0,0,0-.34.31,1.67,1.67,0,0,0-.23.44,4.77,4.77,0,0,0-.13.51l-.06.52C157.41,164.45,157.41,164.6,157.41,164.74Z"/><circle class="cls-4" cx="149.38" cy="136.82" r="47.41"/><path d="M155.38,189.36h.82V190h-.82v1.3h-.67V190h-2.4v-.74l2.25-3.62h.82Zm-.67-3h0l-1.81,3h1.82Z"/><path d="M156.74,188.45a5.77,5.77,0,0,1,.08-1,3.1,3.1,0,0,1,.29-.95,2,2,0,0,1,.59-.71,1.6,1.6,0,0,1,1-.27,1.57,1.57,0,0,1,1,.27,1.94,1.94,0,0,1,.59.71,3.41,3.41,0,0,1,.3.95,7,7,0,0,1,.08,1,7.07,7.07,0,0,1-.08,1,3.64,3.64,0,0,1-.3,1,1.91,1.91,0,0,1-.59.7,1.57,1.57,0,0,1-1,.27,1.6,1.6,0,0,1-1-.27,2,2,0,0,1-.59-.7,3.28,3.28,0,0,1-.29-1A5.85,5.85,0,0,1,156.74,188.45Zm.67,0c0,.14,0,.29,0,.46l.06.52a4.07,4.07,0,0,0,.13.5,1.41,1.41,0,0,0,.23.44.92.92,0,0,0,.34.31.9.9,0,0,0,.48.12,1,1,0,0,0,.48-.12,1.1,1.1,0,0,0,.34-.31,1.65,1.65,0,0,0,.22-.44,2.83,2.83,0,0,0,.13-.5,4.88,4.88,0,0,0,.06-.52c0-.17,0-.32,0-.46s0-.3,0-.47a4.43,4.43,0,0,0-.06-.51,2.72,2.72,0,0,0-.13-.51,1.81,1.81,0,0,0-.22-.44,1.24,1.24,0,0,0-.34-.31,1,1,0,0,0-.48-.12.9.9,0,0,0-.48.12,1,1,0,0,0-.34.31,1.53,1.53,0,0,0-.23.44,3.8,3.8,0,0,0-.13.51l-.06.51C157.41,188.15,157.41,188.31,157.41,188.45Z"/><circle class="cls-4" cx="149.38" cy="136.82" r="71.17"/><path d="M153.66,211.74h0a1.35,1.35,0,0,1,.37-.13,2.87,2.87,0,0,1,.39,0,1.87,1.87,0,0,1,.68.13,1.62,1.62,0,0,1,.55.37,1.52,1.52,0,0,1,.35.56,1.88,1.88,0,0,1,.13.72,1.91,1.91,0,0,1-.14.74,1.63,1.63,0,0,1-.4.56,1.74,1.74,0,0,1-.61.35,2.37,2.37,0,0,1-1.49,0,1.94,1.94,0,0,1-.61-.35,1.63,1.63,0,0,1-.4-.56,1.91,1.91,0,0,1-.14-.74,2.28,2.28,0,0,1,.15-.86,4.32,4.32,0,0,1,.39-.73l1.5-2.4h.78Zm.6.42a1.51,1.51,0,0,0-.48.08,1.28,1.28,0,0,0-.39.24,1.12,1.12,0,0,0-.26.38,1.18,1.18,0,0,0-.1.5,1.15,1.15,0,0,0,.1.5,1.12,1.12,0,0,0,.26.38,1.09,1.09,0,0,0,.39.23,1.32,1.32,0,0,0,1,0,1,1,0,0,0,.38-.23,1.12,1.12,0,0,0,.26-.38,1.15,1.15,0,0,0,.1-.5,1.18,1.18,0,0,0-.1-.5,1.12,1.12,0,0,0-.26-.38,1.23,1.23,0,0,0-.38-.24A1.51,1.51,0,0,0,154.26,212.16Z"/><path d="M156.74,212.21a5.77,5.77,0,0,1,.08-1,3.1,3.1,0,0,1,.29-1,2,2,0,0,1,.59-.71,1.6,1.6,0,0,1,1-.27,1.57,1.57,0,0,1,1,.27,1.94,1.94,0,0,1,.59.71,3.41,3.41,0,0,1,.3,1,7,7,0,0,1,.08,1,7.07,7.07,0,0,1-.08,1,3.64,3.64,0,0,1-.3.95,2,2,0,0,1-.59.7,1.57,1.57,0,0,1-1,.27,1.6,1.6,0,0,1-1-.27,2.1,2.1,0,0,1-.59-.7,3.28,3.28,0,0,1-.29-.95A5.85,5.85,0,0,1,156.74,212.21Zm.67,0c0,.14,0,.29,0,.46l.06.52a4.77,4.77,0,0,0,.13.51,1.47,1.47,0,0,0,.23.43.92.92,0,0,0,.34.31.9.9,0,0,0,.48.12,1,1,0,0,0,.48-.12,1.1,1.1,0,0,0,.34-.31,1.74,1.74,0,0,0,.22-.43,3.18,3.18,0,0,0,.13-.51,4.88,4.88,0,0,0,.06-.52c0-.17,0-.32,0-.46s0-.3,0-.47a4.43,4.43,0,0,0-.06-.51,2.72,2.72,0,0,0-.13-.51,1.81,1.81,0,0,0-.22-.44,1.24,1.24,0,0,0-.34-.31,1,1,0,0,0-.48-.11.9.9,0,0,0-.48.11,1,1,0,0,0-.34.31,1.53,1.53,0,0,0-.23.44,3.8,3.8,0,0,0-.13.51l-.06.51C157.41,211.91,157.41,212.07,157.41,212.21Z"/><circle class="cls-4" cx="149.38" cy="136.82" r="94.93"/><line class="cls-4" x1="54.45" y1="136.87" x2="244.37" y2="136.87"/><line class="cls-4" x1="149.38" y1="231.8" x2="149.38" y2="41.89"/><line class="cls-4" x1="94.63" y1="41.89" x2="204.19" y2="231.8"/><line class="cls-4" x1="94.63" y1="231.8" x2="204.19" y2="41.89"/><line class="cls-4" x1="54.45" y1="82.06" x2="244.37" y2="191.63"/><line class="cls-4" x1="54.45" y1="191.63" x2="244.37" y2="82.06"/><line class="cls-5" x1="149.38" y1="136.87" x2="149.71" y2="146.21"/><line class="cls-5" x1="149.71" y1="146.21" x2="150.68" y2="155.45"/><line class="cls-5" x1="150.68" y1="155.45" x2="152.35" y2="165.22"/><line class="cls-5" x1="152.35" y1="165.22" x2="155" y2="176.89"/><line class="cls-5" x1="155" y1="176.89" x2="158.02" y2="185.69"/><line class="cls-5" x1="158.02" y1="185.69" x2="161.26" y2="192.71"/><line class="cls-5" x1="161.26" y1="192.71" x2="164.72" y2="198.27"/><line class="cls-5" x1="164.72" y1="198.27" x2="167.69" y2="200.7"/><line class="cls-5" x1="167.69" y1="200.7" x2="169.58" y2="198.97"/><line class="cls-5" x1="169.58" y1="198.97" x2="171.79" y2="198.32"/><line class="cls-5" x1="171.79" y1="198.32" x2="173.95" y2="197.62"/><line class="cls-5" x1="173.95" y1="197.62" x2="176.06" y2="196.76"/><line class="cls-5" x1="176.06" y1="196.76" x2="178.17" y2="195.89"/><line class="cls-5" x1="178.17" y1="195.89" x2="180.27" y2="194.87"/><line class="cls-5" x1="180.27" y1="194.87" x2="182.27" y2="193.84"/><line class="cls-5" x1="182.27" y1="193.84" x2="184.27" y2="192.65"/><line class="cls-5" x1="184.27" y1="192.65" x2="186.21" y2="191.47"/><line class="cls-5" x1="186.21" y1="191.47" x2="188.16" y2="190.17"/><line class="cls-5" x1="188.16" y1="190.17" x2="189.99" y2="188.82"/><line class="cls-5" x1="189.99" y1="188.82" x2="191.83" y2="187.36"/><line class="cls-5" x1="191.83" y1="187.36" x2="193.56" y2="185.9"/><line class="cls-5" x1="193.56" y1="185.9" x2="195.28" y2="184.34"/><line class="cls-5" x1="195.28" y1="184.34" x2="196.96" y2="182.77"/><line class="cls-5" x1="196.96" y1="182.77" x2="198.58" y2="181.1"/><line class="cls-5" x1="198.58" y1="181.1" x2="200.09" y2="179.37"/><line class="cls-5" x1="200.09" y1="179.37" x2="201.6" y2="177.59"/><line class="cls-5" x1="201.6" y1="177.59" x2="203.01" y2="175.75"/><line class="cls-5" x1="203.01" y1="175.75" x2="204.36" y2="173.86"/><line class="cls-5" x1="204.36" y1="173.86" x2="205.65" y2="171.97"/><line class="cls-5" x1="205.65" y1="171.97" x2="206.84" y2="169.97"/><line class="cls-5" x1="206.84" y1="169.97" x2="208.03" y2="167.98"/><line class="cls-5" x1="208.03" y1="167.98" x2="209.11" y2="165.92"/><line class="cls-5" x1="209.11" y1="165.92" x2="210.13" y2="163.87"/><line class="cls-5" x1="210.13" y1="163.87" x2="211.05" y2="161.77"/><line class="cls-5" x1="211.05" y1="161.77" x2="211.97" y2="159.61"/><line class="cls-5" x1="211.97" y1="159.61" x2="212.78" y2="157.45"/><line class="cls-5" x1="212.78" y1="157.45" x2="213.54" y2="155.23"/><line class="cls-5" x1="213.54" y1="155.23" x2="214.29" y2="153.02"/><line class="cls-5" x1="214.29" y1="153.02" x2="214.94" y2="150.75"/><line class="cls-5" x1="214.94" y1="150.75" x2="215.53" y2="148.48"/><line class="cls-5" x1="215.53" y1="148.48" x2="216.07" y2="146.21"/><line class="cls-5" x1="216.07" y1="146.21" x2="216.51" y2="143.89"/><line class="cls-5" x1="216.51" y1="143.89" x2="216.94" y2="141.52"/><line class="cls-5" x1="216.94" y1="141.52" x2="217.32" y2="139.19"/><line class="cls-5" x1="217.32" y1="139.19" x2="217.64" y2="136.87"/><line class="cls-5" x1="217.64" y1="136.87" x2="217.86" y2="134.5"/><line class="cls-5" x1="217.86" y1="134.5" x2="218.07" y2="132.07"/><line class="cls-5" x1="218.07" y1="132.07" x2="218.23" y2="129.64"/><line class="cls-5" x1="218.23" y1="129.64" x2="218.34" y2="127.21"/><line class="cls-5" x1="218.34" y1="127.21" x2="218.4" y2="124.72"/><line class="cls-5" x1="218.4" y1="124.72" x2="218.34" y2="122.18"/><line class="cls-5" x1="218.34" y1="122.18" x2="218.29" y2="119.7"/><line class="cls-5" x1="218.29" y1="119.7" x2="218.18" y2="117.16"/><line class="cls-5" x1="218.18" y1="117.16" x2="217.96" y2="114.57"/><line class="cls-5" x1="217.96" y1="114.57" x2="217.69" y2="112.03"/><line class="cls-5" x1="217.69" y1="112.03" x2="217.32" y2="109.44"/><line class="cls-5" x1="217.32" y1="109.44" x2="216.94" y2="106.79"/><line class="cls-5" x1="216.94" y1="106.79" x2="216.4" y2="104.2"/><line class="cls-5" x1="216.4" y1="104.2" x2="215.8" y2="101.56"/><line class="cls-5" x1="215.8" y1="101.56" x2="215.1" y2="98.96"/><line class="cls-5" x1="215.1" y1="98.96" x2="214.29" y2="96.32"/><line class="cls-5" x1="214.29" y1="96.32" x2="213.37" y2="93.73"/><line class="cls-5" x1="213.37" y1="93.73" x2="212.35" y2="91.13"/><line class="cls-5" x1="212.35" y1="91.13" x2="211.27" y2="88.54"/><line class="cls-5" x1="211.27" y1="88.54" x2="210.03" y2="85.95"/><line class="cls-5" x1="210.03" y1="85.95" x2="208.73" y2="83.41"/><line class="cls-5" x1="208.73" y1="83.41" x2="207.33" y2="80.93"/><line class="cls-5" x1="207.33" y1="80.93" x2="205.76" y2="78.5"/><line class="cls-5" x1="205.76" y1="78.5" x2="204.14" y2="76.07"/><line class="cls-5" x1="204.14" y1="76.07" x2="202.36" y2="73.75"/><line class="cls-5" x1="202.36" y1="73.75" x2="200.52" y2="71.42"/><line class="cls-5" x1="200.52" y1="71.42" x2="198.58" y2="69.21"/><line class="cls-5" x1="198.58" y1="69.21" x2="196.53" y2="67"/><line class="cls-5" x1="196.53" y1="67" x2="194.37" y2="64.94"/><line class="cls-5" x1="194.37" y1="64.94" x2="192.1" y2="62.89"/><line class="cls-5" x1="192.1" y1="62.89" x2="189.72" y2="61"/><line class="cls-5" x1="189.72" y1="61" x2="187.29" y2="59.17"/><line class="cls-5" x1="187.29" y1="59.17" x2="184.75" y2="57.44"/><line class="cls-5" x1="184.75" y1="57.44" x2="182.11" y2="55.82"/><line class="cls-5" x1="182.11" y1="55.82" x2="179.41" y2="54.36"/><line class="cls-5" x1="179.41" y1="54.36" x2="176.65" y2="52.96"/><line class="cls-5" x1="176.65" y1="52.96" x2="173.79" y2="51.66"/><line class="cls-5" x1="173.79" y1="51.66" x2="170.88" y2="50.63"/><line class="cls-5" x1="170.88" y1="50.63" x2="167.91" y2="49.72"/><line class="cls-5" x1="167.91" y1="49.72" x2="164.88" y2="49.01"/><line class="cls-5" x1="164.88" y1="49.01" x2="161.8" y2="48.53"/><line class="cls-5" x1="161.8" y1="48.53" x2="158.67" y2="48.26"/><line class="cls-5" x1="158.67" y1="48.26" x2="155.59" y2="48.15"/><line class="cls-5" x1="155.59" y1="48.15" x2="152.46" y2="48.15"/><line class="cls-5" x1="152.46" y1="48.15" x2="149.38" y2="48.26"/><line class="cls-5" x1="149.38" y1="136.87" x2="149.11" y2="146.21"/><line class="cls-5" x1="149.11" y1="146.21" x2="148.14" y2="155.45"/><line class="cls-5" x1="148.14" y1="155.45" x2="146.47" y2="165.22"/><line class="cls-5" x1="146.47" y1="165.22" x2="143.82" y2="176.89"/><line class="cls-5" x1="143.82" y1="176.89" x2="140.8" y2="185.69"/><line class="cls-5" x1="140.8" y1="185.69" x2="137.56" y2="192.71"/><line class="cls-5" x1="137.56" y1="192.71" x2="134.1" y2="198.27"/><line class="cls-5" x1="134.1" y1="198.27" x2="131.13" y2="200.7"/><line class="cls-5" x1="131.13" y1="200.7" x2="129.24" y2="198.97"/><line class="cls-5" x1="129.24" y1="198.97" x2="127.03" y2="198.32"/><line class="cls-5" x1="127.03" y1="198.32" x2="124.87" y2="197.62"/><line class="cls-5" x1="124.87" y1="197.62" x2="122.76" y2="196.76"/><line class="cls-5" x1="122.76" y1="196.76" x2="120.66" y2="195.89"/><line class="cls-5" x1="120.66" y1="195.89" x2="118.55" y2="194.87"/><line class="cls-5" x1="118.55" y1="194.87" x2="116.55" y2="193.84"/><line class="cls-5" x1="116.55" y1="193.84" x2="114.55" y2="192.65"/><line class="cls-5" x1="114.55" y1="192.65" x2="112.61" y2="191.47"/><line class="cls-5" x1="112.61" y1="191.47" x2="110.67" y2="190.17"/><line class="cls-5" x1="110.67" y1="190.17" x2="108.83" y2="188.82"/><line class="cls-5" x1="108.83" y1="188.82" x2="106.99" y2="187.36"/><line class="cls-5" x1="106.99" y1="187.36" x2="105.27" y2="185.9"/><line class="cls-5" x1="105.27" y1="185.9" x2="103.54" y2="184.34"/><line class="cls-5" x1="103.54" y1="184.34" x2="101.86" y2="182.77"/><line class="cls-5" x1="101.86" y1="182.77" x2="100.24" y2="181.1"/><line class="cls-5" x1="100.24" y1="181.1" x2="98.73" y2="179.37"/><line class="cls-5" x1="98.73" y1="179.37" x2="97.22" y2="177.59"/><line class="cls-5" x1="97.22" y1="177.59" x2="95.82" y2="175.75"/><line class="cls-5" x1="95.82" y1="175.75" x2="94.47" y2="173.86"/><line class="cls-5" x1="94.47" y1="173.86" x2="93.17" y2="171.97"/><line class="cls-5" x1="93.17" y1="171.97" x2="91.98" y2="169.97"/><line class="cls-5" x1="91.98" y1="169.97" x2="90.79" y2="167.98"/><line class="cls-5" x1="90.79" y1="167.98" x2="89.71" y2="165.92"/><line class="cls-5" x1="89.71" y1="165.92" x2="88.69" y2="163.87"/><line class="cls-5" x1="88.69" y1="163.87" x2="87.77" y2="161.77"/><line class="cls-5" x1="87.77" y1="161.77" x2="86.85" y2="159.61"/><line class="cls-5" x1="86.85" y1="159.61" x2="86.04" y2="157.45"/><line class="cls-5" x1="86.04" y1="157.45" x2="85.29" y2="155.23"/><line class="cls-5" x1="85.29" y1="155.23" x2="84.53" y2="153.02"/><line class="cls-5" x1="84.53" y1="153.02" x2="83.88" y2="150.75"/><line class="cls-5" x1="83.88" y1="150.75" x2="83.29" y2="148.48"/><line class="cls-5" x1="83.29" y1="148.48" x2="82.75" y2="146.21"/><line class="cls-5" x1="82.75" y1="146.21" x2="82.32" y2="143.89"/><line class="cls-5" x1="82.32" y1="143.89" x2="81.88" y2="141.52"/><line class="cls-5" x1="81.88" y1="141.52" x2="81.51" y2="139.19"/><line class="cls-5" x1="81.51" y1="139.19" x2="81.18" y2="136.87"/><line class="cls-5" x1="81.18" y1="136.87" x2="80.97" y2="134.5"/><line class="cls-5" x1="80.97" y1="134.5" x2="80.75" y2="132.07"/><line class="cls-5" x1="80.75" y1="132.07" x2="80.59" y2="129.64"/><line class="cls-5" x1="80.59" y1="129.64" x2="80.48" y2="127.21"/><line class="cls-5" x1="80.48" y1="127.21" x2="80.43" y2="124.72"/><line class="cls-5" x1="80.43" y1="124.72" x2="80.48" y2="122.18"/><line class="cls-5" x1="80.48" y1="122.18" x2="80.53" y2="119.7"/><line class="cls-5" x1="80.53" y1="119.7" x2="80.64" y2="117.16"/><line class="cls-5" x1="80.64" y1="117.16" x2="80.86" y2="114.57"/><line class="cls-5" x1="80.86" y1="114.57" x2="81.13" y2="112.03"/><line class="cls-5" x1="81.13" y1="112.03" x2="81.51" y2="109.44"/><line class="cls-5" x1="81.51" y1="109.44" x2="81.88" y2="106.79"/><line class="cls-5" x1="81.88" y1="106.79" x2="82.42" y2="104.2"/><line class="cls-5" x1="82.42" y1="104.2" x2="83.02" y2="101.56"/><line class="cls-5" x1="83.02" y1="101.56" x2="83.72" y2="98.96"/><line class="cls-5" x1="83.72" y1="98.96" x2="84.53" y2="96.32"/><line class="cls-5" x1="84.53" y1="96.32" x2="85.45" y2="93.73"/><line class="cls-5" x1="85.45" y1="93.73" x2="86.47" y2="91.13"/><line class="cls-5" x1="86.47" y1="91.13" x2="87.55" y2="88.54"/><line class="cls-5" x1="87.55" y1="88.54" x2="88.8" y2="85.95"/><line class="cls-5" x1="88.8" y1="85.95" x2="90.09" y2="83.41"/><line class="cls-5" x1="90.09" y1="83.41" x2="91.5" y2="80.93"/><line class="cls-5" x1="91.5" y1="80.93" x2="93.06" y2="78.5"/><line class="cls-5" x1="93.06" y1="78.5" x2="94.68" y2="76.07"/><line class="cls-5" x1="94.68" y1="76.07" x2="96.46" y2="73.75"/><line class="cls-5" x1="96.46" y1="73.75" x2="98.3" y2="71.42"/><line class="cls-5" x1="98.3" y1="71.42" x2="100.24" y2="69.21"/><line class="cls-5" x1="100.24" y1="69.21" x2="102.3" y2="67"/><line class="cls-5" x1="102.3" y1="67" x2="104.46" y2="64.94"/><line class="cls-5" x1="104.46" y1="64.94" x2="106.72" y2="62.89"/><line class="cls-5" x1="106.72" y1="62.89" x2="109.1" y2="61"/><line class="cls-5" x1="109.1" y1="61" x2="111.53" y2="59.17"/><line class="cls-5" x1="111.53" y1="59.17" x2="114.07" y2="57.44"/><line class="cls-5" x1="114.07" y1="57.44" x2="116.71" y2="55.82"/><line class="cls-5" x1="116.71" y1="55.82" x2="119.41" y2="54.36"/><line class="cls-5" x1="119.41" y1="54.36" x2="122.17" y2="52.96"/><line class="cls-5" x1="122.17" y1="52.96" x2="125.03" y2="51.66"/><line class="cls-5" x1="125.03" y1="51.66" x2="127.95" y2="50.63"/><line class="cls-5" x1="127.95" y1="50.63" x2="130.92" y2="49.72"/><line class="cls-5" x1="130.92" y1="49.72" x2="133.94" y2="49.01"/><line class="cls-5" x1="133.94" y1="49.01" x2="137.02" y2="48.53"/><line class="cls-5" x1="137.02" y1="48.53" x2="140.15" y2="48.26"/><line class="cls-5" x1="140.15" y1="48.26" x2="143.23" y2="48.15"/><line class="cls-5" x1="143.23" y1="48.15" x2="146.36" y2="48.15"/><line class="cls-5" x1="146.36" y1="48.15" x2="149.38" y2="48.26"/><line class="cls-5" x1="149.38" y1="136.87" x2="149.38" y2="137.14"/><line class="cls-5" x1="149.44" y1="138.44" x2="149.44" y2="138.71"/><line class="cls-5" x1="149.49" y1="140" x2="149.49" y2="140.27"/><line class="cls-5" x1="149.55" y1="141.57" x2="149.55" y2="141.84"/><line class="cls-5" x1="149.6" y1="143.14" x2="149.6" y2="143.41"/><line class="cls-5" x1="149.65" y1="144.7" x2="149.65" y2="144.97"/><line class="cls-5" x1="149.71" y1="146.27" x2="149.76" y2="146.48"/><line class="cls-5" x1="149.87" y1="147.78" x2="149.92" y2="148.05"/><line class="cls-5" x1="150.03" y1="149.35" x2="150.09" y2="149.56"/><line class="cls-5" x1="150.19" y1="150.86" x2="150.25" y2="151.13"/><line class="cls-5" x1="150.36" y1="152.42" x2="150.41" y2="152.64"/><line class="cls-5" x1="150.52" y1="153.94" x2="150.57" y2="154.21"/><line class="cls-5" x1="150.68" y1="155.5" x2="150.73" y2="155.72"/><line class="cls-5" x1="150.95" y1="156.96" x2="151" y2="157.23"/><line class="cls-5" x1="151.22" y1="158.53" x2="151.27" y2="158.8"/><line class="cls-5" x1="151.49" y1="160.09" x2="151.54" y2="160.36"/><line class="cls-5" x1="151.76" y1="161.66" x2="151.81" y2="161.93"/><line class="cls-5" x1="152.03" y1="163.22" x2="152.08" y2="163.49"/><line class="cls-5" x1="152.3" y1="164.79" x2="152.3" y2="165.06"/><line class="cls-5" x1="152.62" y1="166.3" x2="152.68" y2="166.57"/><line class="cls-5" x1="152.95" y1="167.81" x2="153" y2="168.03"/><line class="cls-5" x1="153.27" y1="169.27" x2="153.33" y2="169.49"/><line class="cls-5" x1="153.6" y1="170.73" x2="153.65" y2="170.95"/><line class="cls-5" x1="153.92" y1="172.19" x2="153.97" y2="172.4"/><line class="cls-5" x1="154.24" y1="173.65" x2="154.3" y2="173.86"/><line class="cls-5" x1="154.62" y1="175.1" x2="154.68" y2="175.37"/><line class="cls-5" x1="154.95" y1="176.62" x2="155" y2="176.83"/><line class="cls-5" x1="155.38" y1="178.02" x2="155.49" y2="178.24"/><line class="cls-5" x1="155.86" y1="179.42" x2="155.97" y2="179.64"/><line class="cls-5" x1="156.35" y1="180.83" x2="156.4" y2="181.04"/><line class="cls-5" x1="156.84" y1="182.23" x2="156.89" y2="182.45"/><line class="cls-5" x1="157.32" y1="183.64" x2="157.38" y2="183.85"/><line class="cls-5" x1="157.81" y1="185.04" x2="157.86" y2="185.26"/><line class="cls-5" x1="158.35" y1="186.44" x2="158.46" y2="186.66"/><line class="cls-5" x1="159" y1="187.79" x2="159.1" y2="188.01"/><line class="cls-5" x1="159.64" y1="189.14" x2="159.7" y2="189.36"/><line class="cls-5" x1="160.24" y1="190.49" x2="160.35" y2="190.71"/><line class="cls-5" x1="160.89" y1="191.84" x2="160.94" y2="192.06"/><line class="cls-5" x1="161.59" y1="193.19" x2="161.7" y2="193.41"/><line class="cls-5" x1="162.4" y1="194.49" x2="162.51" y2="194.71"/><line class="cls-5" x1="163.15" y1="195.79" x2="163.32" y2="196"/><line class="cls-5" x1="163.96" y1="197.08" x2="164.13" y2="197.3"/><line class="cls-5" x1="164.83" y1="198.38" x2="165.04" y2="198.54"/><line class="cls-5" x1="166.07" y1="199.35" x2="166.23" y2="199.51"/><line class="cls-5" x1="167.26" y1="200.32" x2="167.42" y2="200.48"/><line class="cls-5" x1="168.39" y1="200.05" x2="168.55" y2="199.89"/><line class="cls-5" x1="169.53" y1="199.03" x2="169.58" y2="198.97"/><line class="cls-5" x1="169.58" y1="198.97" x2="169.74" y2="198.92"/><line class="cls-5" x1="170.98" y1="198.54" x2="171.2" y2="198.49"/><line class="cls-5" x1="172.39" y1="198.11" x2="172.6" y2="198.05"/><line class="cls-5" x1="173.79" y1="197.68" x2="173.95" y2="197.62"/><line class="cls-5" x1="173.95" y1="197.62" x2="174.01" y2="197.62"/><line class="cls-5" x1="175.14" y1="197.14" x2="175.36" y2="197.03"/><line class="cls-5" x1="176.55" y1="196.54" x2="176.76" y2="196.49"/><line class="cls-5" x1="177.9" y1="196" x2="178.11" y2="195.89"/><line class="cls-5" x1="179.25" y1="195.35" x2="179.46" y2="195.25"/><line class="cls-5" x1="180.6" y1="194.71" x2="180.81" y2="194.6"/><line class="cls-5" x1="181.95" y1="194" x2="182.16" y2="193.9"/><line class="cls-5" x1="183.24" y1="193.25" x2="183.46" y2="193.14"/><line class="cls-5" x1="184.54" y1="192.49" x2="184.75" y2="192.33"/><line class="cls-5" x1="185.83" y1="191.68" x2="186.05" y2="191.57"/><line class="cls-5" x1="187.13" y1="190.87" x2="187.35" y2="190.71"/><line class="cls-5" x1="188.43" y1="189.95" x2="188.64" y2="189.79"/><line class="cls-5" x1="189.67" y1="189.04" x2="189.88" y2="188.87"/><line class="cls-5" x1="190.91" y1="188.06" x2="191.13" y2="187.9"/><line class="cls-5" x1="192.15" y1="187.09" x2="192.31" y2="186.93"/><line class="cls-5" x1="193.34" y1="186.07" x2="193.56" y2="185.9"/><line class="cls-5" x1="194.53" y1="185.04" x2="194.69" y2="184.88"/><line class="cls-5" x1="195.66" y1="183.96" x2="195.88" y2="183.8"/><line class="cls-5" x1="196.85" y1="182.88" x2="196.96" y2="182.77"/><line class="cls-5" x1="196.96" y1="182.77" x2="197.01" y2="182.72"/><line class="cls-5" x1="197.93" y1="181.75" x2="198.09" y2="181.58"/><line class="cls-5" x1="199.01" y1="180.61" x2="199.17" y2="180.45"/><line class="cls-5" x1="200.04" y1="179.42" x2="200.09" y2="179.37"/><line class="cls-5" x1="200.09" y1="179.37" x2="200.2" y2="179.26"/><line class="cls-5" x1="201.06" y1="178.24" x2="201.22" y2="178.02"/><line class="cls-5" x1="202.03" y1="176.99" x2="202.2" y2="176.83"/><line class="cls-5" x1="202.95" y1="175.81" x2="203.01" y2="175.75"/><line class="cls-5" x1="203.01" y1="175.75" x2="203.11" y2="175.59"/><line class="cls-5" x1="203.87" y1="174.56" x2="204.03" y2="174.35"/><line class="cls-5" x1="204.79" y1="173.27" x2="204.9" y2="173.05"/><line class="cls-5" x1="205.65" y1="171.97" x2="205.65" y2="171.97"/><line class="cls-5" x1="205.65" y1="171.97" x2="205.76" y2="171.76"/><line class="cls-5" x1="206.41" y1="170.68" x2="206.57" y2="170.46"/><line class="cls-5" x1="207.22" y1="169.38" x2="207.33" y2="169.16"/><line class="cls-5" x1="207.97" y1="168.08" x2="208.03" y2="167.98"/><line class="cls-5" x1="208.03" y1="167.98" x2="208.08" y2="167.87"/><line class="cls-5" x1="208.68" y1="166.73" x2="208.78" y2="166.52"/><line class="cls-5" x1="209.38" y1="165.38" x2="209.49" y2="165.17"/><line class="cls-5" x1="210.08" y1="164.03" x2="210.13" y2="163.87"/><line class="cls-5" x1="210.13" y1="163.87" x2="210.13" y2="163.82"/><line class="cls-5" x1="210.67" y1="162.68" x2="210.73" y2="162.47"/><line class="cls-5" x1="211.21" y1="161.33" x2="211.32" y2="161.12"/><line class="cls-5" x1="211.81" y1="159.98" x2="211.92" y2="159.77"/><line class="cls-5" x1="212.35" y1="158.58" x2="212.46" y2="158.36"/><line class="cls-5" x1="212.89" y1="157.18" x2="212.94" y2="156.96"/><line class="cls-5" x1="213.37" y1="155.77" x2="213.43" y2="155.56"/><line class="cls-5" x1="213.81" y1="154.37" x2="213.91" y2="154.15"/><line class="cls-5" x1="214.29" y1="152.96" x2="214.35" y2="152.75"/><line class="cls-5" x1="214.72" y1="151.56" x2="214.78" y2="151.34"/><line class="cls-5" x1="215.1" y1="150.1" x2="215.16" y2="149.89"/><line class="cls-5" x1="215.48" y1="148.64" x2="215.53" y2="148.48"/><line class="cls-5" x1="215.53" y1="148.48" x2="215.53" y2="148.43"/><line class="cls-5" x1="215.86" y1="147.19" x2="215.91" y2="146.97"/><line class="cls-5" x1="216.18" y1="145.73" x2="216.24" y2="145.46"/><line class="cls-5" x1="216.45" y1="144.22" x2="216.51" y2="144"/><line class="cls-5" x1="216.72" y1="142.76" x2="216.78" y2="142.54"/><line class="cls-5" x1="216.99" y1="141.25" x2="217.05" y2="140.98"/><line class="cls-5" x1="217.26" y1="139.68" x2="217.26" y2="139.41"/><line class="cls-5" x1="217.48" y1="138.17" x2="217.48" y2="137.9"/><line class="cls-5" x1="217.64" y1="136.66" x2="217.69" y2="136.44"/><line class="cls-5" x1="217.8" y1="135.14" x2="217.8" y2="134.87"/><line class="cls-5" x1="217.96" y1="133.58" x2="217.96" y2="133.31"/><line class="cls-5" x1="218.07" y1="132.01" x2="218.07" y2="131.74"/><line class="cls-5" x1="218.18" y1="130.45" x2="218.18" y2="130.18"/><line class="cls-5" x1="218.29" y1="128.88" x2="218.29" y2="128.61"/><line class="cls-5" x1="218.34" y1="127.31" x2="218.34" y2="127.21"/><line class="cls-5" x1="218.34" y1="127.21" x2="218.34" y2="127.04"/><line class="cls-5" x1="218.4" y1="125.75" x2="218.4" y2="125.48"/><line class="cls-5" x1="218.4" y1="124.13" x2="218.4" y2="123.86"/><line class="cls-5" x1="218.34" y1="122.56" x2="218.34" y2="122.29"/><line class="cls-5" x1="218.29" y1="120.94" x2="218.29" y2="120.67"/><line class="cls-5" x1="218.29" y1="119.32" x2="218.23" y2="119.05"/><line class="cls-5" x1="218.18" y1="117.76" x2="218.18" y2="117.49"/><line class="cls-5" x1="218.07" y1="116.19" x2="218.07" y2="115.92"/><line class="cls-5" x1="217.96" y1="114.62" x2="217.96" y2="114.57"/><line class="cls-5" x1="217.96" y1="114.57" x2="217.96" y2="114.35"/><line class="cls-5" x1="217.8" y1="113.06" x2="217.75" y2="112.79"/><line class="cls-5" x1="217.64" y1="111.49" x2="217.59" y2="111.28"/><line class="cls-5" x1="217.37" y1="109.98" x2="217.37" y2="109.71"/><line class="cls-5" x1="217.15" y1="108.47" x2="217.15" y2="108.2"/><line class="cls-5" x1="216.94" y1="106.96" x2="216.94" y2="106.79"/><line class="cls-5" x1="216.94" y1="106.79" x2="216.94" y2="106.69"/><line class="cls-5" x1="216.67" y1="105.44" x2="216.61" y2="105.23"/><line class="cls-5" x1="216.34" y1="103.99" x2="216.29" y2="103.77"/><line class="cls-5" x1="216.02" y1="102.53" x2="215.97" y2="102.31"/><line class="cls-5" x1="215.7" y1="101.07" x2="215.59" y2="100.85"/><line class="cls-5" x1="215.26" y1="99.61" x2="215.21" y2="99.4"/><line class="cls-5" x1="214.83" y1="98.15" x2="214.78" y2="97.94"/><line class="cls-5" x1="214.4" y1="96.75" x2="214.35" y2="96.53"/><line class="cls-5" x1="213.97" y1="95.35" x2="213.86" y2="95.13"/><line class="cls-5" x1="213.43" y1="93.94" x2="213.37" y2="93.73"/><line class="cls-5" x1="212.89" y1="92.54" x2="212.83" y2="92.32"/><line class="cls-5" x1="212.35" y1="91.13" x2="212.35" y2="91.13"/><line class="cls-5" x1="212.35" y1="91.13" x2="212.24" y2="90.92"/><line class="cls-5" x1="211.75" y1="89.73" x2="211.65" y2="89.51"/><line class="cls-5" x1="211.16" y1="88.33" x2="211.05" y2="88.11"/><line class="cls-5" x1="210.51" y1="86.98" x2="210.4" y2="86.76"/><line class="cls-5" x1="209.86" y1="85.63" x2="209.76" y2="85.41"/><line class="cls-5" x1="209.16" y1="84.28" x2="209.05" y2="84.06"/><line class="cls-5" x1="208.46" y1="82.93" x2="208.35" y2="82.71"/><line class="cls-5" x1="207.7" y1="81.63" x2="207.6" y2="81.41"/><line class="cls-5" x1="206.95" y1="80.33" x2="206.79" y2="80.12"/><line class="cls-5" x1="206.08" y1="79.04" x2="205.98" y2="78.82"/><line class="cls-5" x1="205.27" y1="77.74" x2="205.11" y2="77.53"/><line class="cls-5" x1="204.41" y1="76.45" x2="204.25" y2="76.23"/><line class="cls-5" x1="203.49" y1="75.2" x2="203.33" y2="75.04"/><line class="cls-5" x1="202.57" y1="74.02" x2="202.41" y2="73.8"/><line class="cls-5" x1="201.6" y1="72.77" x2="201.44" y2="72.61"/><line class="cls-5" x1="200.63" y1="71.59" x2="200.52" y2="71.42"/><line class="cls-5" x1="200.52" y1="71.42" x2="200.47" y2="71.37"/><line class="cls-5" x1="199.6" y1="70.4" x2="199.44" y2="70.18"/><line class="cls-5" x1="198.58" y1="69.21" x2="198.58" y2="69.21"/><line class="cls-5" x1="198.58" y1="69.21" x2="198.42" y2="69.05"/><line class="cls-5" x1="197.55" y1="68.08" x2="197.39" y2="67.91"/><line class="cls-5" x1="196.47" y1="66.94" x2="196.31" y2="66.78"/><line class="cls-5" x1="195.34" y1="65.86" x2="195.18" y2="65.7"/><line class="cls-5" x1="194.2" y1="64.78" x2="193.99" y2="64.62"/><line class="cls-5" x1="193.02" y1="63.7" x2="192.8" y2="63.54"/><line class="cls-5" x1="191.83" y1="62.68" x2="191.61" y2="62.51"/><line class="cls-5" x1="190.59" y1="61.7" x2="190.42" y2="61.54"/><line class="cls-5" x1="189.4" y1="60.73" x2="189.18" y2="60.57"/><line class="cls-5" x1="188.16" y1="59.81" x2="187.94" y2="59.65"/><line class="cls-5" x1="186.91" y1="58.9" x2="186.7" y2="58.79"/><line class="cls-5" x1="185.67" y1="58.09" x2="185.46" y2="57.92"/><line class="cls-5" x1="184.38" y1="57.22" x2="184.16" y2="57.06"/><line class="cls-5" x1="183.08" y1="56.41" x2="182.86" y2="56.3"/><line class="cls-5" x1="181.78" y1="55.66" x2="181.57" y2="55.55"/><line class="cls-5" x1="180.49" y1="54.95" x2="180.27" y2="54.85"/><line class="cls-5" x1="179.14" y1="54.2" x2="178.92" y2="54.09"/><line class="cls-5" x1="177.79" y1="53.55" x2="177.57" y2="53.44"/><line class="cls-5" x1="176.44" y1="52.85" x2="176.22" y2="52.74"/><line class="cls-5" x1="175.03" y1="52.2" x2="174.82" y2="52.15"/><line class="cls-5" x1="173.68" y1="51.61" x2="173.47" y2="51.55"/><line class="cls-5" x1="172.28" y1="51.12" x2="172.06" y2="51.07"/><line class="cls-5" x1="170.88" y1="50.63" x2="170.88" y2="50.63"/><line class="cls-5" x1="170.88" y1="50.63" x2="170.66" y2="50.58"/><line class="cls-5" x1="169.47" y1="50.2" x2="169.26" y2="50.15"/><line class="cls-5" x1="168.07" y1="49.77" x2="167.91" y2="49.72"/><line class="cls-5" x1="167.91" y1="49.72" x2="167.85" y2="49.72"/><line class="cls-5" x1="166.61" y1="49.39" x2="166.39" y2="49.34"/><line class="cls-5" x1="165.15" y1="49.07" x2="164.94" y2="49.01"/><line class="cls-5" x1="163.64" y1="48.8" x2="163.37" y2="48.8"/><line class="cls-5" x1="162.13" y1="48.58" x2="161.91" y2="48.53"/><line class="cls-5" x1="160.62" y1="48.42" x2="160.35" y2="48.42"/><line class="cls-5" x1="159.05" y1="48.31" x2="158.83" y2="48.26"/><line class="cls-5" x1="157.54" y1="48.2" x2="157.27" y2="48.2"/><line class="cls-5" x1="155.97" y1="48.15" x2="155.7" y2="48.15"/><line class="cls-5" x1="154.35" y1="48.15" x2="154.08" y2="48.15"/><line class="cls-5" x1="152.73" y1="48.15" x2="152.46" y2="48.15"/><line class="cls-5" x1="151.17" y1="48.2" x2="150.9" y2="48.2"/><line class="cls-5" x1="149.6" y1="48.26" x2="149.38" y2="48.26"/><line class="cls-5" x1="149.38" y1="136.87" x2="149.38" y2="136.93"/><line class="cls-5" x1="149.33" y1="138.22" x2="149.33" y2="138.49"/><line class="cls-5" x1="149.28" y1="139.79" x2="149.28" y2="140.06"/><line class="cls-5" x1="149.28" y1="141.41" x2="149.22" y2="141.62"/><line class="cls-5" x1="149.22" y1="142.97" x2="149.22" y2="143.24"/><line class="cls-5" x1="149.17" y1="144.54" x2="149.17" y2="144.81"/><line class="cls-5" x1="149.11" y1="146.11" x2="149.11" y2="146.21"/><line class="cls-5" x1="149.11" y1="146.21" x2="149.11" y2="146.38"/><line class="cls-5" x1="148.95" y1="147.67" x2="148.95" y2="147.94"/><line class="cls-5" x1="148.79" y1="149.24" x2="148.79" y2="149.51"/><line class="cls-5" x1="148.63" y1="150.8" x2="148.63" y2="151.07"/><line class="cls-5" x1="148.47" y1="152.37" x2="148.41" y2="152.64"/><line class="cls-5" x1="148.3" y1="153.94" x2="148.25" y2="154.21"/><line class="cls-5" x1="148.14" y1="155.5" x2="148.09" y2="155.72"/><line class="cls-5" x1="147.87" y1="156.96" x2="147.82" y2="157.23"/><line class="cls-5" x1="147.6" y1="158.53" x2="147.55" y2="158.8"/><line class="cls-5" x1="147.33" y1="160.09" x2="147.28" y2="160.36"/><line class="cls-5" x1="147.06" y1="161.66" x2="147.01" y2="161.93"/><line class="cls-5" x1="146.79" y1="163.22" x2="146.74" y2="163.49"/><line class="cls-5" x1="146.52" y1="164.79" x2="146.52" y2="165.06"/><line class="cls-5" x1="146.2" y1="166.3" x2="146.14" y2="166.57"/><line class="cls-5" x1="145.87" y1="167.81" x2="145.82" y2="168.03"/><line class="cls-5" x1="145.55" y1="169.27" x2="145.5" y2="169.49"/><line class="cls-5" x1="145.23" y1="170.73" x2="145.17" y2="170.95"/><line class="cls-5" x1="144.9" y1="172.19" x2="144.85" y2="172.4"/><line class="cls-5" x1="144.58" y1="173.65" x2="144.52" y2="173.86"/><line class="cls-5" x1="144.2" y1="175.1" x2="144.15" y2="175.37"/><line class="cls-5" x1="143.88" y1="176.62" x2="143.82" y2="176.83"/><line class="cls-5" x1="143.44" y1="178.02" x2="143.34" y2="178.24"/><line class="cls-5" x1="142.96" y1="179.42" x2="142.85" y2="179.64"/><line class="cls-5" x1="142.47" y1="180.83" x2="142.42" y2="181.04"/><line class="cls-5" x1="141.99" y1="182.23" x2="141.93" y2="182.45"/><line class="cls-5" x1="141.5" y1="183.64" x2="141.45" y2="183.85"/><line class="cls-5" x1="141.01" y1="185.04" x2="140.96" y2="185.26"/><line class="cls-5" x1="140.47" y1="186.44" x2="140.37" y2="186.66"/><line class="cls-5" x1="139.83" y1="187.79" x2="139.72" y2="188.01"/><line class="cls-5" x1="139.18" y1="189.14" x2="139.12" y2="189.36"/><line class="cls-5" x1="138.58" y1="190.49" x2="138.48" y2="190.71"/><line class="cls-5" x1="137.94" y1="191.84" x2="137.88" y2="192.06"/><line class="cls-5" x1="137.23" y1="193.19" x2="137.13" y2="193.41"/><line class="cls-5" x1="136.42" y1="194.49" x2="136.32" y2="194.71"/><line class="cls-5" x1="135.67" y1="195.79" x2="135.51" y2="196"/><line class="cls-5" x1="134.86" y1="197.08" x2="134.7" y2="197.3"/><line class="cls-5" x1="133.99" y1="198.38" x2="133.78" y2="198.54"/><line class="cls-5" x1="132.75" y1="199.35" x2="132.59" y2="199.51"/><line class="cls-5" x1="131.56" y1="200.32" x2="131.4" y2="200.48"/><line class="cls-5" x1="130.43" y1="200.05" x2="130.27" y2="199.89"/><line class="cls-5" x1="129.3" y1="199.03" x2="129.24" y2="198.97"/><line class="cls-5" x1="129.24" y1="198.97" x2="129.08" y2="198.92"/><line class="cls-5" x1="127.84" y1="198.54" x2="127.62" y2="198.49"/><line class="cls-5" x1="126.43" y1="198.11" x2="126.22" y2="198.05"/><line class="cls-5" x1="125.03" y1="197.68" x2="124.87" y2="197.62"/><line class="cls-5" x1="124.87" y1="197.62" x2="124.81" y2="197.62"/><line class="cls-5" x1="123.68" y1="197.14" x2="123.46" y2="197.03"/><line class="cls-5" x1="122.28" y1="196.54" x2="122.06" y2="196.49"/><line class="cls-5" x1="120.93" y1="196" x2="120.71" y2="195.89"/><line class="cls-5" x1="119.58" y1="195.35" x2="119.36" y2="195.25"/><line class="cls-5" x1="118.23" y1="194.71" x2="118.01" y2="194.6"/><line class="cls-5" x1="116.88" y1="194" x2="116.66" y2="193.9"/><line class="cls-5" x1="115.58" y1="193.25" x2="115.36" y2="193.14"/><line class="cls-5" x1="114.28" y1="192.49" x2="114.07" y2="192.33"/><line class="cls-5" x1="112.99" y1="191.68" x2="112.77" y2="191.57"/><line class="cls-5" x1="111.69" y1="190.87" x2="111.48" y2="190.71"/><line class="cls-5" x1="110.4" y1="189.95" x2="110.18" y2="189.79"/><line class="cls-5" x1="109.15" y1="189.04" x2="108.94" y2="188.87"/><line class="cls-5" x1="107.91" y1="188.06" x2="107.7" y2="187.9"/><line class="cls-5" x1="106.67" y1="187.09" x2="106.51" y2="186.93"/><line class="cls-5" x1="105.48" y1="186.07" x2="105.27" y2="185.9"/><line class="cls-5" x1="104.29" y1="185.04" x2="104.13" y2="184.88"/><line class="cls-5" x1="103.16" y1="183.96" x2="102.94" y2="183.8"/><line class="cls-5" x1="101.97" y1="182.88" x2="101.86" y2="182.77"/><line class="cls-5" x1="101.86" y1="182.77" x2="101.81" y2="182.72"/><line class="cls-5" x1="100.89" y1="181.75" x2="100.73" y2="181.58"/><line class="cls-5" x1="99.81" y1="180.61" x2="99.65" y2="180.45"/><line class="cls-5" x1="98.79" y1="179.42" x2="98.73" y2="179.37"/><line class="cls-5" x1="98.73" y1="179.37" x2="98.62" y2="179.26"/><line class="cls-5" x1="97.76" y1="178.24" x2="97.6" y2="178.02"/><line class="cls-5" x1="96.79" y1="176.99" x2="96.63" y2="176.83"/><line class="cls-5" x1="95.87" y1="175.81" x2="95.82" y2="175.75"/><line class="cls-5" x1="95.82" y1="175.75" x2="95.71" y2="175.59"/><line class="cls-5" x1="94.95" y1="174.56" x2="94.79" y2="174.35"/><line class="cls-5" x1="94.03" y1="173.27" x2="93.93" y2="173.05"/><line class="cls-5" x1="93.17" y1="171.97" x2="93.17" y2="171.97"/><line class="cls-5" x1="93.17" y1="171.97" x2="93.06" y2="171.76"/><line class="cls-5" x1="92.41" y1="170.68" x2="92.25" y2="170.46"/><line class="cls-5" x1="91.6" y1="169.38" x2="91.5" y2="169.16"/><line class="cls-5" x1="90.85" y1="168.08" x2="90.79" y2="167.98"/><line class="cls-5" x1="90.79" y1="167.98" x2="90.74" y2="167.87"/><line class="cls-5" x1="90.15" y1="166.73" x2="90.04" y2="166.52"/><line class="cls-5" x1="89.44" y1="165.38" x2="89.34" y2="165.17"/><line class="cls-5" x1="88.74" y1="164.03" x2="88.69" y2="163.87"/><line class="cls-5" x1="88.69" y1="163.87" x2="88.69" y2="163.82"/><line class="cls-5" x1="88.15" y1="162.68" x2="88.09" y2="162.47"/><line class="cls-5" x1="87.61" y1="161.33" x2="87.5" y2="161.12"/><line class="cls-5" x1="87.01" y1="159.98" x2="86.91" y2="159.77"/><line class="cls-5" x1="86.47" y1="158.58" x2="86.37" y2="158.36"/><line class="cls-5" x1="85.93" y1="157.18" x2="85.88" y2="156.96"/><line class="cls-5" x1="85.45" y1="155.77" x2="85.39" y2="155.56"/><line class="cls-5" x1="85.02" y1="154.37" x2="84.91" y2="154.15"/><line class="cls-5" x1="84.53" y1="152.96" x2="84.48" y2="152.75"/><line class="cls-5" x1="84.1" y1="151.56" x2="84.04" y2="151.34"/><line class="cls-5" x1="83.72" y1="150.1" x2="83.67" y2="149.89"/><line class="cls-5" x1="83.34" y1="148.64" x2="83.29" y2="148.48"/><line class="cls-5" x1="83.29" y1="148.48" x2="83.29" y2="148.43"/><line class="cls-5" x1="82.96" y1="147.19" x2="82.91" y2="146.97"/><line class="cls-5" x1="82.64" y1="145.73" x2="82.59" y2="145.46"/><line class="cls-5" x1="82.37" y1="144.22" x2="82.32" y2="144"/><line class="cls-5" x1="82.1" y1="142.76" x2="82.05" y2="142.54"/><line class="cls-5" x1="81.83" y1="141.25" x2="81.78" y2="140.98"/><line class="cls-5" x1="81.56" y1="139.68" x2="81.56" y2="139.41"/><line class="cls-5" x1="81.34" y1="138.17" x2="81.34" y2="137.9"/><line class="cls-5" x1="81.18" y1="136.66" x2="81.13" y2="136.44"/><line class="cls-5" x1="81.02" y1="135.14" x2="81.02" y2="134.87"/><line class="cls-5" x1="80.86" y1="133.58" x2="80.86" y2="133.31"/><line class="cls-5" x1="80.75" y1="132.01" x2="80.75" y2="131.74"/><line class="cls-5" x1="80.64" y1="130.45" x2="80.64" y2="130.18"/><line class="cls-5" x1="80.53" y1="128.88" x2="80.53" y2="128.61"/><line class="cls-5" x1="80.48" y1="127.31" x2="80.48" y2="127.21"/><line class="cls-5" x1="80.48" y1="127.21" x2="80.48" y2="127.04"/><line class="cls-5" x1="80.43" y1="125.75" x2="80.43" y2="125.48"/><line class="cls-5" x1="80.43" y1="124.13" x2="80.43" y2="123.86"/><line class="cls-5" x1="80.48" y1="122.56" x2="80.48" y2="122.29"/><line class="cls-5" x1="80.53" y1="120.94" x2="80.53" y2="120.67"/><line class="cls-5" x1="80.53" y1="119.32" x2="80.59" y2="119.05"/><line class="cls-5" x1="80.64" y1="117.76" x2="80.64" y2="117.49"/><line class="cls-5" x1="80.75" y1="116.19" x2="80.75" y2="115.92"/><line class="cls-5" x1="80.86" y1="114.62" x2="80.86" y2="114.57"/><line class="cls-5" x1="80.86" y1="114.57" x2="80.86" y2="114.35"/><line class="cls-5" x1="81.02" y1="113.06" x2="81.07" y2="112.79"/><line class="cls-5" x1="81.18" y1="111.49" x2="81.24" y2="111.28"/><line class="cls-5" x1="81.45" y1="109.98" x2="81.45" y2="109.71"/><line class="cls-5" x1="81.67" y1="108.47" x2="81.67" y2="108.2"/><line class="cls-5" x1="81.88" y1="106.96" x2="81.88" y2="106.79"/><line class="cls-5" x1="81.88" y1="106.79" x2="81.88" y2="106.69"/><line class="cls-5" x1="82.15" y1="105.44" x2="82.21" y2="105.23"/><line class="cls-5" x1="82.48" y1="103.99" x2="82.53" y2="103.77"/><line class="cls-5" x1="82.8" y1="102.53" x2="82.86" y2="102.31"/><line class="cls-5" x1="83.13" y1="101.07" x2="83.23" y2="100.85"/><line class="cls-5" x1="83.56" y1="99.61" x2="83.61" y2="99.4"/><line class="cls-5" x1="83.99" y1="98.15" x2="84.04" y2="97.94"/><line class="cls-5" x1="84.42" y1="96.75" x2="84.48" y2="96.53"/><line class="cls-5" x1="84.85" y1="95.35" x2="84.96" y2="95.13"/><line class="cls-5" x1="85.39" y1="93.94" x2="85.45" y2="93.73"/><line class="cls-5" x1="85.93" y1="92.54" x2="85.99" y2="92.32"/><line class="cls-5" x1="86.47" y1="91.13" x2="86.47" y2="91.13"/><line class="cls-5" x1="86.47" y1="91.13" x2="86.58" y2="90.92"/><line class="cls-5" x1="87.07" y1="89.73" x2="87.18" y2="89.51"/><line class="cls-5" x1="87.66" y1="88.33" x2="87.77" y2="88.11"/><line class="cls-5" x1="88.31" y1="86.98" x2="88.42" y2="86.76"/><line class="cls-5" x1="88.96" y1="85.63" x2="89.07" y2="85.41"/><line class="cls-5" x1="89.66" y1="84.28" x2="89.77" y2="84.06"/><line class="cls-5" x1="90.36" y1="82.93" x2="90.47" y2="82.71"/><line class="cls-5" x1="91.12" y1="81.63" x2="91.23" y2="81.41"/><line class="cls-5" x1="91.87" y1="80.33" x2="92.04" y2="80.12"/><line class="cls-5" x1="92.74" y1="79.04" x2="92.85" y2="78.82"/><line class="cls-5" x1="93.55" y1="77.74" x2="93.71" y2="77.53"/><line class="cls-5" x1="94.41" y1="76.45" x2="94.57" y2="76.23"/><line class="cls-5" x1="95.33" y1="75.2" x2="95.49" y2="75.04"/><line class="cls-5" x1="96.25" y1="74.02" x2="96.41" y2="73.8"/><line class="cls-5" x1="97.22" y1="72.77" x2="97.38" y2="72.61"/><line class="cls-5" x1="98.19" y1="71.59" x2="98.3" y2="71.42"/><line class="cls-5" x1="98.3" y1="71.42" x2="98.35" y2="71.37"/><line class="cls-5" x1="99.22" y1="70.4" x2="99.38" y2="70.18"/><line class="cls-5" x1="100.24" y1="69.21" x2="100.24" y2="69.21"/><line class="cls-5" x1="100.24" y1="69.21" x2="100.41" y2="69.05"/><line class="cls-5" x1="101.27" y1="68.08" x2="101.43" y2="67.91"/><line class="cls-5" x1="102.35" y1="66.94" x2="102.51" y2="66.78"/><line class="cls-5" x1="103.48" y1="65.86" x2="103.65" y2="65.7"/><line class="cls-5" x1="104.62" y1="64.78" x2="104.83" y2="64.62"/><line class="cls-5" x1="105.81" y1="63.7" x2="106.02" y2="63.54"/><line class="cls-5" x1="106.99" y1="62.68" x2="107.21" y2="62.51"/><line class="cls-5" x1="108.24" y1="61.7" x2="108.4" y2="61.54"/><line class="cls-5" x1="109.42" y1="60.73" x2="109.64" y2="60.57"/><line class="cls-5" x1="110.67" y1="59.81" x2="110.88" y2="59.65"/><line class="cls-5" x1="111.91" y1="58.9" x2="112.12" y2="58.79"/><line class="cls-5" x1="113.15" y1="58.09" x2="113.37" y2="57.92"/><line class="cls-5" x1="114.45" y1="57.22" x2="114.66" y2="57.06"/><line class="cls-5" x1="115.74" y1="56.41" x2="115.96" y2="56.3"/><line class="cls-5" x1="117.04" y1="55.66" x2="117.25" y2="55.55"/><line class="cls-5" x1="118.33" y1="54.95" x2="118.55" y2="54.85"/><line class="cls-5" x1="119.68" y1="54.2" x2="119.9" y2="54.09"/><line class="cls-5" x1="121.03" y1="53.55" x2="121.25" y2="53.44"/><line class="cls-5" x1="122.38" y1="52.85" x2="122.6" y2="52.74"/><line class="cls-5" x1="123.79" y1="52.2" x2="124" y2="52.15"/><line class="cls-5" x1="125.14" y1="51.61" x2="125.35" y2="51.55"/><line class="cls-5" x1="126.54" y1="51.12" x2="126.76" y2="51.07"/><line class="cls-5" x1="127.95" y1="50.63" x2="127.95" y2="50.63"/><line class="cls-5" x1="127.95" y1="50.63" x2="128.16" y2="50.58"/><line class="cls-5" x1="129.35" y1="50.2" x2="129.57" y2="50.15"/><line class="cls-5" x1="130.75" y1="49.77" x2="130.92" y2="49.72"/><line class="cls-5" x1="130.92" y1="49.72" x2="130.97" y2="49.72"/><line class="cls-5" x1="132.21" y1="49.39" x2="132.43" y2="49.34"/><line class="cls-5" x1="133.67" y1="49.07" x2="133.89" y2="49.01"/><line class="cls-5" x1="135.18" y1="48.8" x2="135.45" y2="48.8"/><line class="cls-5" x1="136.69" y1="48.58" x2="136.91" y2="48.53"/><line class="cls-5" x1="138.21" y1="48.42" x2="138.48" y2="48.42"/><line class="cls-5" x1="139.77" y1="48.31" x2="139.99" y2="48.26"/><line class="cls-5" x1="141.28" y1="48.2" x2="141.55" y2="48.2"/><line class="cls-5" x1="142.85" y1="48.15" x2="143.12" y2="48.15"/><line class="cls-5" x1="144.47" y1="48.15" x2="144.74" y2="48.15"/><line class="cls-5" x1="146.09" y1="48.15" x2="146.36" y2="48.15"/><line class="cls-5" x1="147.66" y1="48.2" x2="147.93" y2="48.2"/><line class="cls-5" x1="149.22" y1="48.26" x2="149.38" y2="48.26"/></g></g></svg>