<svg id="Glo-ball_F3" data-name="Glo-ball F3" xmlns="http://www.w3.org/2000/svg" viewBox="0 0 300 263"><defs><style>.cls-1,.cls-3{fill:none;stroke-width:0.5px;}.cls-1{stroke:#1a171b;stroke-linecap:round;stroke-linejoin:round;}.cls-2{isolation:isolate;font-size:16px;font-family:Avenir-Book, Avenir;}.cls-3{stroke:#000;}</style></defs><title>glo-ball-floor-3-morrison-flos-F3030000-spech-tech-02-300x263</title><path class="cls-1" d="M156.75,80.14c10.89-3.1,16.64-12.82,12.83-21.7S153.84,44.88,143,48s-16.64,12.83-12.83,21.71c1.58,4.46,7.35,9.17,12.83,10.45"/><rect class="cls-1" x="142.88" y="80.14" width="13.93" height="0.45"/><polyline class="cls-1" points="148.9 207.11 148.9 80.6 150.8 80.6 150.8 207.11"/><line class="cls-1" x1="148.9" y1="207.11" x2="148.27" y2="215.98"/><line class="cls-1" x1="150.8" y1="207.11" x2="151.43" y2="215.98"/><rect class="cls-1" x="128.95" y="215.98" width="41.8" height="1.26"/><text class="cls-2" transform="translate(108.77 165.44) rotate(-90)">1850 mm</text><line class="cls-3" x1="117.14" y1="46.63" x2="117.14" y2="216.95"/><line class="cls-3" x1="118.21" y1="46.63" x2="114.84" y2="46.63"/><line class="cls-3" x1="118.89" y1="216.95" x2="114.52" y2="216.95"/><line class="cls-3" x1="128.96" y1="226.86" x2="170.76" y2="226.86"/><line class="cls-3" x1="128.94" y1="225.57" x2="128.94" y2="228.16"/><line class="cls-3" x1="170.76" y1="225.57" x2="170.76" y2="228.16"/><text class="cls-2" transform="translate(113.83 247.49)">ø 400 mm</text><line class="cls-3" x1="128.96" y1="37.73" x2="170.76" y2="37.73"/><line class="cls-3" x1="128.94" y1="36.43" x2="128.94" y2="39.02"/><line class="cls-3" x1="170.76" y1="36.43" x2="170.76" y2="39.02"/><text class="cls-2" transform="translate(114.81 28.35)">ø 450 mm</text><line class="cls-3" x1="179.78" y1="46.9" x2="179.78" y2="80.05"/><line class="cls-3" x1="181.07" y1="46.88" x2="178.48" y2="46.88"/><line class="cls-3" x1="181.07" y1="80.05" x2="178.48" y2="80.05"/><text class="cls-2" transform="translate(200.21 92.67) rotate(-90)">360 mm</text></svg>