<svg id="Glo_Ball_Basic_2" xmlns="http://www.w3.org/2000/svg" viewBox="0 0 300 263"><defs><style>.cls-1,.cls-3,.cls-4{fill:none;}.cls-1{stroke:#000;}.cls-1,.cls-3{stroke-width:0.5px;}.cls-2{isolation:isolate;}.cls-3{stroke:#1d1d1b;stroke-miterlimit:3.86;}</style></defs><title>glo-ball-basic-2-table-morrison-flos-F3026000-spech-tech-02-300x263</title><line class="cls-1" x1="127.94" y1="228.2" x2="170.92" y2="228.2"/><line class="cls-1" x1="127.94" y1="226.89" x2="127.94" y2="229.52"/><line class="cls-1" x1="170.92" y1="226.89" x2="170.92" y2="229.52"/><g class="cls-2"><path d="M122.28,242.51a3.56,3.56,0,0,1,.7,1.16,3.76,3.76,0,0,1,.26,1.44,4,4,0,0,1-.3,1.57,3.77,3.77,0,0,1-.86,1.25,3.89,3.89,0,0,1-1.3.82,4.51,4.51,0,0,1-1.67.3,4.76,4.76,0,0,1-1.46-.22,4.06,4.06,0,0,1-1.15-.61l-1.11,1.09-.54-.5,1.1-1.09a3.5,3.5,0,0,1-.71-1.17,4.24,4.24,0,0,1,.05-3,3.77,3.77,0,0,1,.86-1.25,4,4,0,0,1,1.3-.83,5,5,0,0,1,3.1-.08,4.27,4.27,0,0,1,1.2.62l1.09-1.09.54.5Zm-1.3.25a2.85,2.85,0,0,0-1.87-.62,3,3,0,0,0-1.22.23,2.74,2.74,0,0,0-.92.63,2.86,2.86,0,0,0-.58.95,3.19,3.19,0,0,0-.21,1.16,2.9,2.9,0,0,0,.57,1.83Zm-3.73,4.72a2.88,2.88,0,0,0,.83.45,3.05,3.05,0,0,0,1,.16,3.16,3.16,0,0,0,1.22-.23,2.71,2.71,0,0,0,1.51-1.58,3.2,3.2,0,0,0,.21-1.17,3,3,0,0,0-.57-1.82Z"/><path d="M129.82,248.86h-1.2V239l-2.11,1.79-.74-.86,3-2.37h1.06Z"/><path d="M140.19,245.11h1.69v1.06h-1.69v2.69H139v-2.69h-5.08v-1.31l4.75-7.33h1.53Zm-1.2-6.43h0l-4.06,6.43H139Z"/><path d="M150.24,238.58h-4.8l-.09,3.41a4.47,4.47,0,0,1,.78-.2,4.4,4.4,0,0,1,.8-.07,4,4,0,0,1,1.51.27,3.43,3.43,0,0,1,1.94,1.92,3.77,3.77,0,0,1,.27,1.44,3.65,3.65,0,0,1-.3,1.5,3.47,3.47,0,0,1-.83,1.17,3.85,3.85,0,0,1-1.25.76,4.46,4.46,0,0,1-1.57.27,4,4,0,0,1-2-.51,3.33,3.33,0,0,1-1.38-1.51l1.2-.49a2.64,2.64,0,0,0,.92,1.06,2.48,2.48,0,0,0,1.38.39,2.57,2.57,0,0,0,1-.2,2.79,2.79,0,0,0,.84-.53,2.68,2.68,0,0,0,.56-.8,2.38,2.38,0,0,0,.21-1,2.75,2.75,0,0,0-.22-1.09,2.47,2.47,0,0,0-.6-.86,2.61,2.61,0,0,0-.91-.55,3.36,3.36,0,0,0-1.16-.19,4.55,4.55,0,0,0-1.26.17,6.33,6.33,0,0,0-1.19.45l.12-5.87h6Z"/><path d="M157.56,243c0-.27,0-.55,0-.83l-.06-.83h1.18v1.14h0a2.62,2.62,0,0,1,1.11-1,3.29,3.29,0,0,1,1.4-.33,4,4,0,0,1,.67.06,2.44,2.44,0,0,1,.69.23,2.16,2.16,0,0,1,.63.48,2.67,2.67,0,0,1,.49.78,2.51,2.51,0,0,1,1-1.14,3,3,0,0,1,1.5-.41,2.87,2.87,0,0,1,2.21.76,3,3,0,0,1,.72,2.17v4.75h-1.1v-4.37a3.11,3.11,0,0,0-.41-1.74,1.75,1.75,0,0,0-1.55-.61,2,2,0,0,0-1,.23,1.82,1.82,0,0,0-.67.62,2.44,2.44,0,0,0-.37.87,4.17,4.17,0,0,0-.12,1v4h-1.1v-4.37a3.11,3.11,0,0,0-.41-1.74,1.74,1.74,0,0,0-1.55-.61l-.45.06a1.72,1.72,0,0,0-.74.35,2.51,2.51,0,0,0-.69.87,3.34,3.34,0,0,0-.31,1.6v3.84h-1.1Z"/><path d="M171.72,243c0-.27,0-.55,0-.83s0-.55-.06-.83h1.18v1.14h0a2.54,2.54,0,0,1,1.1-1,3.29,3.29,0,0,1,1.4-.33,4.18,4.18,0,0,1,.68.06,2.44,2.44,0,0,1,.69.23,2.12,2.12,0,0,1,.62.48,2.48,2.48,0,0,1,.49.78,2.51,2.51,0,0,1,1-1.14,3.09,3.09,0,0,1,1.51-.41,2.9,2.9,0,0,1,2.21.76,3.07,3.07,0,0,1,.71,2.17v4.75h-1.1v-4.37a3,3,0,0,0-.41-1.74,1.74,1.74,0,0,0-1.55-.61,2,2,0,0,0-1,.23,1.9,1.9,0,0,0-.67.62,2.63,2.63,0,0,0-.37.87,4.17,4.17,0,0,0-.12,1v4H177v-4.37a3,3,0,0,0-.42-1.74,1.73,1.73,0,0,0-1.54-.61l-.46.06a1.72,1.72,0,0,0-.74.35,2.63,2.63,0,0,0-.69.87,3.46,3.46,0,0,0-.31,1.6v3.84h-1.09Z"/></g><line class="cls-1" x1="44.61" y1="37.49" x2="255.89" y2="37.49"/><line class="cls-1" x1="44.61" y1="35.79" x2="44.61" y2="39.19"/><line class="cls-1" x1="255.89" y1="35.79" x2="255.89" y2="39.19"/><g class="cls-2"><path d="M120.79,22.44a3.67,3.67,0,0,1,.7,1.16,3.78,3.78,0,0,1,.26,1.45,3.93,3.93,0,0,1-.31,1.57,3.66,3.66,0,0,1-.85,1.24,4.07,4.07,0,0,1-1.3.83,4.72,4.72,0,0,1-1.67.29,4.48,4.48,0,0,1-1.46-.22,3.82,3.82,0,0,1-1.15-.61l-1.11,1.09-.54-.5,1.1-1.08a3.65,3.65,0,0,1-.71-1.18,4,4,0,0,1-.25-1.43,4,4,0,0,1,.3-1.57A3.79,3.79,0,0,1,116,21.41a4.49,4.49,0,0,1,1.66-.3,4.44,4.44,0,0,1,1.44.22,4.24,4.24,0,0,1,1.2.61l1.09-1.08.54.49Zm-1.3.26a2.8,2.8,0,0,0-1.87-.63,3.09,3.09,0,0,0-1.22.23,2.89,2.89,0,0,0-.92.63,3,3,0,0,0-.58.95,3.2,3.2,0,0,0-.21,1.17,2.89,2.89,0,0,0,.57,1.82Zm-3.73,4.72a2.64,2.64,0,0,0,.83.44,3.05,3.05,0,0,0,1,.16,3,3,0,0,0,1.22-.23,2.69,2.69,0,0,0,.92-.63,2.88,2.88,0,0,0,.59-.95,3.19,3.19,0,0,0,.21-1.16,3,3,0,0,0-.57-1.83Z"/><path d="M134.08,25.05h1.69V26.1h-1.69v2.69h-1.2V26.1H127.8V24.79l4.75-7.33h1.53Zm-1.2-6.43h0l-4,6.43h4.08Z"/><path d="M144.13,18.52h-4.8l-.09,3.41a3.69,3.69,0,0,1,.79-.21,5.25,5.25,0,0,1,.79-.06,4,4,0,0,1,1.51.27,3.38,3.38,0,0,1,1.18.76,3.5,3.5,0,0,1,.76,1.15,3.78,3.78,0,0,1,.27,1.45,3.64,3.64,0,0,1-.3,1.49,3.16,3.16,0,0,1-.83,1.17,3.68,3.68,0,0,1-1.25.76,4.46,4.46,0,0,1-1.57.27,4,4,0,0,1-2-.51A3.35,3.35,0,0,1,137.2,27l1.2-.5a2.74,2.74,0,0,0,.92,1.07,2.48,2.48,0,0,0,1.38.39,2.75,2.75,0,0,0,1-.2,2.82,2.82,0,0,0,.84-.54,2.56,2.56,0,0,0,.56-.8,2.38,2.38,0,0,0,.21-1,2.59,2.59,0,0,0-.22-1.09,2.43,2.43,0,0,0-.6-.85,2.49,2.49,0,0,0-.91-.56,3.57,3.57,0,0,0-1.16-.19,5,5,0,0,0-1.26.17,6,6,0,0,0-1.18.45l.11-5.87h6Z"/><path d="M150.26,17.27a3.44,3.44,0,0,1,2,.56,3.77,3.77,0,0,1,1.21,1.42,6.2,6.2,0,0,1,.59,1.9,13.82,13.82,0,0,1,.15,2,13.58,13.58,0,0,1-.15,2,6.2,6.2,0,0,1-.59,1.9,3.7,3.7,0,0,1-1.21,1.42,3.37,3.37,0,0,1-2,.56,3.43,3.43,0,0,1-2-.56A3.79,3.79,0,0,1,147,27a6.19,6.19,0,0,1-.58-1.9,13.58,13.58,0,0,1-.15-2,13.82,13.82,0,0,1,.15-2,6.19,6.19,0,0,1,.58-1.9,3.86,3.86,0,0,1,1.21-1.42A3.5,3.5,0,0,1,150.26,17.27Zm0,1.06a2.21,2.21,0,0,0-1.52.49,3.14,3.14,0,0,0-.84,1.23,5.89,5.89,0,0,0-.36,1.57c0,.56-.07,1.06-.07,1.51s0,.95.07,1.5a5.71,5.71,0,0,0,.36,1.57,3.14,3.14,0,0,0,.84,1.23,2.56,2.56,0,0,0,3,0,3.14,3.14,0,0,0,.84-1.23,5.71,5.71,0,0,0,.35-1.57c.05-.55.08-1.05.08-1.5s0-.95-.08-1.51a5.87,5.87,0,0,0-.35-1.57,3.14,3.14,0,0,0-.84-1.23A2.21,2.21,0,0,0,150.26,18.33Z"/><path d="M160.69,23c0-.28,0-.56,0-.84l-.06-.83h1.18v1.14h0a2.51,2.51,0,0,1,1.1-1,3.21,3.21,0,0,1,1.41-.34,4.06,4.06,0,0,1,.67.06,2.46,2.46,0,0,1,.69.24,2.26,2.26,0,0,1,.62.47,2.31,2.31,0,0,1,.49.78,2.52,2.52,0,0,1,1.06-1.13,2.94,2.94,0,0,1,1.5-.42,2.87,2.87,0,0,1,2.21.76,3,3,0,0,1,.72,2.17v4.75h-1.1V24.42a3,3,0,0,0-.42-1.74,1.72,1.72,0,0,0-1.54-.61,2.15,2.15,0,0,0-1,.23,1.9,1.9,0,0,0-.67.62,2.74,2.74,0,0,0-.38.87,4.9,4.9,0,0,0-.11,1v4h-1.1V24.42a3.13,3.13,0,0,0-.41-1.74,1.75,1.75,0,0,0-1.55-.61l-.46.06a1.86,1.86,0,0,0-.74.36,2.71,2.71,0,0,0-.69.86,3.53,3.53,0,0,0-.3,1.6v3.84h-1.1Z"/><path d="M174.84,23c0-.28,0-.56,0-.84l-.06-.83h1.18v1.14h0a2.54,2.54,0,0,1,1.11-1,3.17,3.17,0,0,1,1.4-.34,4,4,0,0,1,.67.06,2.46,2.46,0,0,1,.69.24,2.3,2.3,0,0,1,.63.47,2.67,2.67,0,0,1,.49.78,2.44,2.44,0,0,1,1-1.13,3,3,0,0,1,1.51-.42,2.86,2.86,0,0,1,2.2.76,3,3,0,0,1,.72,2.17v4.75h-1.1V24.42a3.13,3.13,0,0,0-.41-1.74,1.74,1.74,0,0,0-1.55-.61,2.15,2.15,0,0,0-1,.23,2,2,0,0,0-.67.62,2.52,2.52,0,0,0-.37.87,4.31,4.31,0,0,0-.12,1v4h-1.1V24.42a3,3,0,0,0-.41-1.74,1.74,1.74,0,0,0-1.55-.61l-.45.06a1.75,1.75,0,0,0-.74.36,2.46,2.46,0,0,0-.69.86,3.4,3.4,0,0,0-.31,1.6v3.84h-1.1Z"/></g><line class="cls-1" x1="35.42" y1="216.68" x2="35.42" y2="46.7"/><line class="cls-1" x1="33.72" y1="216.68" x2="37.12" y2="216.68"/><line class="cls-1" x1="33.72" y1="46.7" x2="37.12" y2="46.7"/><g class="cls-2"><path d="M20.55,155.4v-.59a4.35,4.35,0,0,0-.11-1,2.11,2.11,0,0,0-.36-.79,1.79,1.79,0,0,0-.65-.53,2,2,0,0,0-1-.2,1.79,1.79,0,0,0-1.41.55,2.18,2.18,0,0,0-.51,1.54,2.52,2.52,0,0,0,.32,1.27,2.42,2.42,0,0,0,.93.89l-.51,1a3.39,3.39,0,0,1-1.35-1.3,3.66,3.66,0,0,1-.44-1.84,4,4,0,0,1,.19-1.26,2.92,2.92,0,0,1,.57-1,2.68,2.68,0,0,1,.92-.71,2.84,2.84,0,0,1,1.26-.27,2.37,2.37,0,0,1,.88.16,2.72,2.72,0,0,1,.75.41,2.89,2.89,0,0,1,.59.62,2.79,2.79,0,0,1,.37.73l0,0a2.64,2.64,0,0,1,.36-.88,2.85,2.85,0,0,1,.65-.69,3.26,3.26,0,0,1,.87-.45,3,3,0,0,1,1-.16,3.27,3.27,0,0,1,1.4.29,3,3,0,0,1,1,.78,3.39,3.39,0,0,1,.63,1.15,4.32,4.32,0,0,1,.22,1.4,4.14,4.14,0,0,1-.55,2.17,3.29,3.29,0,0,1-1.74,1.39l-.37-1.21a2.33,2.33,0,0,0,1.21-.86,2.79,2.79,0,0,0,.39-1.59,2.52,2.52,0,0,0-.61-1.67,2.05,2.05,0,0,0-.72-.51,2.09,2.09,0,0,0-.91-.19,2.24,2.24,0,0,0-1.08.24,2.09,2.09,0,0,0-.71.64,2.81,2.81,0,0,0-.39.92,4.83,4.83,0,0,0-.12,1.08v.5Z"/><path d="M20.55,146.69l0,0a2,2,0,0,1-.28-.73,3.69,3.69,0,0,1-.1-.84,3.58,3.58,0,0,1,.26-1.36,3.36,3.36,0,0,1,.73-1.1,3.4,3.4,0,0,1,1.11-.73,3.71,3.71,0,0,1,1.4-.26,3.64,3.64,0,0,1,1.43.27,3.27,3.27,0,0,1,1.1.77,3.49,3.49,0,0,1,.72,1.17,4.29,4.29,0,0,1,0,2.94,3.49,3.49,0,0,1-.72,1.17,3.41,3.41,0,0,1-1.1.77,3.64,3.64,0,0,1-1.43.27,4.54,4.54,0,0,1-1.64-.28,9.62,9.62,0,0,1-1.4-.7l-5-3.05v-1.36Zm3.15,1.16a2.48,2.48,0,0,0,1-.19,2.23,2.23,0,0,0,.77-.52,2.29,2.29,0,0,0,.51-.8,3,3,0,0,0,.17-1,3.09,3.09,0,0,0-.17-1,2.38,2.38,0,0,0-.51-.8,2.55,2.55,0,0,0-.77-.52,2.84,2.84,0,0,0-2,0,2.43,2.43,0,0,0-.77.52,2.52,2.52,0,0,0-.5.8,2.86,2.86,0,0,0-.18,1,2.8,2.8,0,0,0,.18,1,2.41,2.41,0,0,0,.5.8,2.14,2.14,0,0,0,.77.52A2.46,2.46,0,0,0,23.7,147.85Z"/><path d="M15.5,136.42a3.19,3.19,0,0,1,.56-2,3.66,3.66,0,0,1,1.42-1.16,6.17,6.17,0,0,1,1.9-.56,13.58,13.58,0,0,1,2-.15,13.82,13.82,0,0,1,2,.15,6,6,0,0,1,1.89.56,3.77,3.77,0,0,1,1.43,1.16,3.75,3.75,0,0,1,0,3.94,3.89,3.89,0,0,1-1.43,1.17,6.3,6.3,0,0,1-1.89.56,15.36,15.36,0,0,1-2,.14,15.09,15.09,0,0,1-2-.14,6.45,6.45,0,0,1-1.9-.56,3.78,3.78,0,0,1-1.42-1.17A3.17,3.17,0,0,1,15.5,136.42Zm1.05,0a2.09,2.09,0,0,0,.5,1.47,3.17,3.17,0,0,0,1.23.8,6.09,6.09,0,0,0,1.57.35c.55.05,1,.07,1.5.07s.95,0,1.51-.07a6.11,6.11,0,0,0,1.56-.35,3.2,3.2,0,0,0,1.24-.8,2.09,2.09,0,0,0,.49-1.47,2.06,2.06,0,0,0-.49-1.46,3.11,3.11,0,0,0-1.24-.81,5.71,5.71,0,0,0-1.56-.34c-.56-.05-1.06-.08-1.51-.08s-1,0-1.5.08a5.7,5.7,0,0,0-1.57.34,3.08,3.08,0,0,0-1.23.81A2.07,2.07,0,0,0,16.55,136.42Z"/><path d="M21.19,126.37c-.28,0-.55,0-.83,0l-.83,0v-1.13h1.13v0a2.56,2.56,0,0,1-1-1.07,3.05,3.05,0,0,1-.33-1.35,3.83,3.83,0,0,1,.06-.65,2.25,2.25,0,0,1,.23-.66,2.34,2.34,0,0,1,.47-.6,2.44,2.44,0,0,1,.79-.47,2.56,2.56,0,0,1-1.14-1,3.1,3.1,0,0,1,.35-3.58,3.14,3.14,0,0,1,2.16-.68H27v1.05H22.65a3.26,3.26,0,0,0-1.75.4,1.67,1.67,0,0,0-.6,1.49,1.84,1.84,0,0,0,.84,1.64,2.55,2.55,0,0,0,.88.36,4.17,4.17,0,0,0,1,.11h4v1.06H22.65a3.17,3.17,0,0,0-1.75.4,1.66,1.66,0,0,0-.6,1.49,3.61,3.61,0,0,0,.06.44,1.67,1.67,0,0,0,.35.71,2.48,2.48,0,0,0,.87.66,3.48,3.48,0,0,0,1.6.3H27v1.05Z"/><path d="M21.19,112.74c-.28,0-.55,0-.83,0l-.83,0v-1.13h1.13v0a2.53,2.53,0,0,1-1-1.06,3.05,3.05,0,0,1-.33-1.35,3.83,3.83,0,0,1,.06-.65,2.25,2.25,0,0,1,.23-.66,2,2,0,0,1,.47-.6,2.64,2.64,0,0,1,.79-.48,2.48,2.48,0,0,1-1.14-1,2.78,2.78,0,0,1-.41-1.45,2.73,2.73,0,0,1,.76-2.13,3.1,3.1,0,0,1,2.16-.69H27v1.06H22.65a3.17,3.17,0,0,0-1.75.4,1.66,1.66,0,0,0-.6,1.49,1.84,1.84,0,0,0,.84,1.64,3,3,0,0,0,.88.36,4.74,4.74,0,0,0,1,.11h4v1.06H22.65a3.17,3.17,0,0,0-1.75.4,1.64,1.64,0,0,0-.6,1.48,3.17,3.17,0,0,0,.06.44,1.71,1.71,0,0,0,.35.72,2.61,2.61,0,0,0,.87.66,3.48,3.48,0,0,0,1.6.3H27v1Z"/></g><path class="cls-3" d="M174,211.28c18.73-1.95,35.17-6.91,50.73-17.78,22-15.41,30.94-34,30.94-64.17S247,82.16,224.7,65.15c-21.45-16.4-45.53-18.87-74.7-18.87S97,49.14,75.3,65.15s-30.94,34-30.94,64.18S54.79,177,75.3,193.5c15,12,31.68,16.5,50.57,18.07Z"/><polygon class="cls-4" points="124.84 209.32 132.78 217 167.22 217 175.16 209.32 124.84 209.32"/><polygon class="cls-3" points="124.84 211.32 132.78 219 167.22 219 175.16 211.32 124.84 211.32"/></svg>