<svg xmlns="http://www.w3.org/2000/svg" viewBox="0 0 300 263"><defs><style>.cls-1,.cls-2,.cls-3,.cls-4,.cls-5{fill:none;stroke-linecap:round;}.cls-1,.cls-2,.cls-5{stroke:red;}.cls-1,.cls-2,.cls-4,.cls-5{stroke-linejoin:round;}.cls-1{stroke-width:0.6px;}.cls-3,.cls-4{stroke:#000;}.cls-3{stroke-miterlimit:10;}.cls-3,.cls-4,.cls-5{stroke-width:0.6px;}</style></defs><title>glo-ball-ceiling-wall-2-morrison-flos-F3028000-curva-fotometrica</title><g id="numeri_esterni_diagramma" data-name="numeri esterni diagramma"><path d="M148.27,239.2a6.85,6.85,0,0,1,.08-1,3.41,3.41,0,0,1,.3-.95,1.94,1.94,0,0,1,.59-.71,1.57,1.57,0,0,1,.95-.27,1.6,1.6,0,0,1,1,.27,2,2,0,0,1,.59.71,3.1,3.1,0,0,1,.29.95,5.7,5.7,0,0,1,.08,1,5.85,5.85,0,0,1-.08,1,3.13,3.13,0,0,1-.29.94,2,2,0,0,1-.59.71,1.6,1.6,0,0,1-1,.27,1.57,1.57,0,0,1-.95-.27,1.94,1.94,0,0,1-.59-.71,3.45,3.45,0,0,1-.3-.94A7.07,7.07,0,0,1,148.27,239.2Zm.68,0c0,.13,0,.29,0,.46a4.88,4.88,0,0,0,.06.52,2.83,2.83,0,0,0,.13.5,1.65,1.65,0,0,0,.22.44,1.24,1.24,0,0,0,.34.31,1,1,0,0,0,.48.12.9.9,0,0,0,.48-.12,1,1,0,0,0,.34-.31,1.41,1.41,0,0,0,.23-.44,4.07,4.07,0,0,0,.13-.5c0-.18,0-.35.06-.52s0-.33,0-.46,0-.3,0-.47,0-.34-.06-.51a3.8,3.8,0,0,0-.13-.51,1.53,1.53,0,0,0-.23-.44,1,1,0,0,0-.34-.31.9.9,0,0,0-.48-.12,1,1,0,0,0-.48.12,1.24,1.24,0,0,0-.34.31,1.81,1.81,0,0,0-.22.44,2.72,2.72,0,0,0-.13.51,4.43,4.43,0,0,0-.06.51C149,238.9,149,239.06,149,239.2Z"/><path d="M152.83,237.41a1.33,1.33,0,0,1,.08-.45,1.11,1.11,0,0,1,.25-.36,1,1,0,0,1,.36-.24,1.17,1.17,0,0,1,.9,0,1,1,0,0,1,.36.24,1.11,1.11,0,0,1,.25.36,1.31,1.31,0,0,1,0,.9,1.23,1.23,0,0,1-.61.61,1.17,1.17,0,0,1-.9,0,1.23,1.23,0,0,1-.61-.61A1.33,1.33,0,0,1,152.83,237.41Zm.43,0a.79.79,0,0,0,.05.25.68.68,0,0,0,.14.23.66.66,0,0,0,.23.17.73.73,0,0,0,.58,0,.76.76,0,0,0,.23-.17.88.88,0,0,0,.14-.23.65.65,0,0,0,0-.5,1.09,1.09,0,0,0-.14-.23,1,1,0,0,0-.23-.17.73.73,0,0,0-.58,0,.81.81,0,0,0-.23.17.75.75,0,0,0-.19.48Z"/><path d="M203.17,238.76h.21l.43,0a1.15,1.15,0,0,0,.42-.13.77.77,0,0,0,.31-.31.94.94,0,0,0,.13-.51.87.87,0,0,0-.27-.68,1,1,0,0,0-.7-.26,1.28,1.28,0,0,0-.63.16,1.14,1.14,0,0,0-.41.48l-.65-.25a1.48,1.48,0,0,1,.65-.72,2.07,2.07,0,0,1,1-.24,2.25,2.25,0,0,1,.64.09,1.72,1.72,0,0,1,.54.28,1.37,1.37,0,0,1,.37.46,1.48,1.48,0,0,1,.14.65,1.29,1.29,0,0,1-.27.8,1.34,1.34,0,0,1-.7.49v0a1.48,1.48,0,0,1,.85.49,1.37,1.37,0,0,1,.23.43,1.69,1.69,0,0,1,.08.5,1.66,1.66,0,0,1-.15.72,1.57,1.57,0,0,1-.41.51,1.71,1.71,0,0,1-.6.31,2.34,2.34,0,0,1-.71.1,2.18,2.18,0,0,1-1.13-.28,1.61,1.61,0,0,1-.7-.91l.68-.22a1.33,1.33,0,0,0,.41.65,1.3,1.3,0,0,0,.74.19,1.33,1.33,0,0,0,.45-.08,1.11,1.11,0,0,0,.36-.23,1.24,1.24,0,0,0,.25-.35,1.13,1.13,0,0,0,.09-.45,1.07,1.07,0,0,0-.12-.53,1,1,0,0,0-.33-.33,1.23,1.23,0,0,0-.46-.18,2.31,2.31,0,0,0-.52-.06h-.21Z"/><path d="M206.24,239.2a6.85,6.85,0,0,1,.08-1,3.11,3.11,0,0,1,.3-.95,1.94,1.94,0,0,1,.59-.71,1.55,1.55,0,0,1,.95-.27,1.6,1.6,0,0,1,1,.27,2,2,0,0,1,.59.71,3.1,3.1,0,0,1,.29.95,5.7,5.7,0,0,1,.08,1,5.85,5.85,0,0,1-.08,1,3.13,3.13,0,0,1-.29.94,2,2,0,0,1-.59.71,1.6,1.6,0,0,1-1,.27,1.55,1.55,0,0,1-.95-.27,1.94,1.94,0,0,1-.59-.71,3.14,3.14,0,0,1-.3-.94A7.07,7.07,0,0,1,206.24,239.2Zm.67,0c0,.13,0,.29,0,.46a4.88,4.88,0,0,0,.06.52,2.83,2.83,0,0,0,.13.5,1.4,1.4,0,0,0,.22.44,1.24,1.24,0,0,0,.34.31,1,1,0,0,0,.48.12.9.9,0,0,0,.48-.12,1,1,0,0,0,.34-.31,1.41,1.41,0,0,0,.23-.44,4.05,4.05,0,0,0,.12-.5,4.88,4.88,0,0,0,.06-.52,3.86,3.86,0,0,0,0-.46,3.94,3.94,0,0,0,0-.47,4.43,4.43,0,0,0-.06-.51,3.81,3.81,0,0,0-.12-.51,1.53,1.53,0,0,0-.23-.44,1,1,0,0,0-.34-.31.9.9,0,0,0-.48-.12,1,1,0,0,0-.48.12,1.24,1.24,0,0,0-.34.31,1.51,1.51,0,0,0-.22.44,2.72,2.72,0,0,0-.13.51,4.43,4.43,0,0,0-.06.51C206.92,238.9,206.91,239.06,206.91,239.2Z"/><path d="M210.84,237.41a1.13,1.13,0,0,1,.09-.45,1.26,1.26,0,0,1,.24-.36,1.2,1.2,0,0,1,.82-.33,1,1,0,0,1,.44.09,1.12,1.12,0,0,1,.37.24,1.26,1.26,0,0,1,.24.36,1.16,1.16,0,0,1-.24,1.26,1.15,1.15,0,0,1-.37.25,1,1,0,0,1-.44.09,1.13,1.13,0,0,1-.45-.09,1.15,1.15,0,0,1-.37-.25,1.15,1.15,0,0,1-.33-.81Zm.43,0a.61.61,0,0,0,.06.25.68.68,0,0,0,.14.23.72.72,0,0,0,.22.17.73.73,0,0,0,.3.06.72.72,0,0,0,.29-.06.62.62,0,0,0,.22-.17.91.91,0,0,0,.15-.23.65.65,0,0,0,0-.5,1.14,1.14,0,0,0-.15-.23.76.76,0,0,0-.22-.17.72.72,0,0,0-.29-.06.73.73,0,0,0-.3.06.92.92,0,0,0-.22.17.79.79,0,0,0-.14.23A.61.61,0,0,0,211.27,237.41Z"/><path d="M93.6,238.76h.21l.44,0a1.1,1.1,0,0,0,.41-.13.86.86,0,0,0,.32-.31.94.94,0,0,0,.12-.51.87.87,0,0,0-.27-.68,1,1,0,0,0-.7-.26,1.21,1.21,0,0,0-.62.16,1.1,1.1,0,0,0-.42.48l-.65-.25a1.45,1.45,0,0,1,.66-.72,2,2,0,0,1,1-.24,2.32,2.32,0,0,1,.65.09,2,2,0,0,1,.54.28,1.67,1.67,0,0,1,.37.46,1.48,1.48,0,0,1,.13.65,1.29,1.29,0,0,1-.27.8,1.34,1.34,0,0,1-.7.49v0a1.31,1.31,0,0,1,.49.18,1.34,1.34,0,0,1,.36.31,1.37,1.37,0,0,1,.23.43,1.42,1.42,0,0,1,.08.5,1.66,1.66,0,0,1-.15.72,1.57,1.57,0,0,1-.41.51,1.75,1.75,0,0,1-.59.31,2.46,2.46,0,0,1-.72.1,2.18,2.18,0,0,1-1.13-.28,1.56,1.56,0,0,1-.69-.91l.68-.22a1.2,1.2,0,0,0,.41.65,1.27,1.27,0,0,0,.73.19,1.33,1.33,0,0,0,.45-.08,1.11,1.11,0,0,0,.36-.23,1.07,1.07,0,0,0,.25-.35,1.13,1.13,0,0,0,.09-.45,1.07,1.07,0,0,0-.12-.53.87.87,0,0,0-.33-.33,1.17,1.17,0,0,0-.46-.18,2.24,2.24,0,0,0-.52-.06H93.6Z"/><path d="M96.68,239.2a5.7,5.7,0,0,1,.08-1,3.1,3.1,0,0,1,.29-.95,2,2,0,0,1,.59-.71,1.6,1.6,0,0,1,1-.27,1.57,1.57,0,0,1,1,.27,1.94,1.94,0,0,1,.59.71,3.41,3.41,0,0,1,.3.95,6.85,6.85,0,0,1,.08,1,7.07,7.07,0,0,1-.08,1,3.45,3.45,0,0,1-.3.94,1.94,1.94,0,0,1-.59.71,1.57,1.57,0,0,1-1,.27,1.6,1.6,0,0,1-1-.27,2,2,0,0,1-.59-.71,3.13,3.13,0,0,1-.29-.94A5.85,5.85,0,0,1,96.68,239.2Zm.67,0c0,.13,0,.29,0,.46a4.88,4.88,0,0,0,.06.52,4.07,4.07,0,0,0,.13.5,1.41,1.41,0,0,0,.23.44,1,1,0,0,0,.34.31.9.9,0,0,0,.48.12,1,1,0,0,0,.48-.12,1.24,1.24,0,0,0,.34-.31,1.65,1.65,0,0,0,.22-.44,2.83,2.83,0,0,0,.13-.5,4.88,4.88,0,0,0,.06-.52c0-.17,0-.33,0-.46s0-.3,0-.47a4.43,4.43,0,0,0-.06-.51,2.72,2.72,0,0,0-.13-.51,1.81,1.81,0,0,0-.22-.44,1.24,1.24,0,0,0-.34-.31,1,1,0,0,0-.48-.12.9.9,0,0,0-.48.12,1,1,0,0,0-.34.31,1.53,1.53,0,0,0-.23.44,3.8,3.8,0,0,0-.13.51,4.43,4.43,0,0,0-.06.51C97.35,238.9,97.35,239.06,97.35,239.2Z"/><path d="M101.28,237.41a1.33,1.33,0,0,1,.08-.45,1.11,1.11,0,0,1,.25-.36,1,1,0,0,1,.36-.24,1.17,1.17,0,0,1,.9,0,1,1,0,0,1,.36.24,1.11,1.11,0,0,1,.25.36,1.31,1.31,0,0,1,0,.9,1.23,1.23,0,0,1-.61.61,1.17,1.17,0,0,1-.9,0,1.23,1.23,0,0,1-.61-.61A1.33,1.33,0,0,1,101.28,237.41Zm.43,0a.79.79,0,0,0,.05.25.68.68,0,0,0,.14.23.76.76,0,0,0,.23.17.73.73,0,0,0,.58,0,.66.66,0,0,0,.23-.17.68.68,0,0,0,.14-.23.71.71,0,0,0-.14-.73.81.81,0,0,0-.23-.17.73.73,0,0,0-.58,0,1,1,0,0,0-.23.17.75.75,0,0,0-.19.48Z"/><path d="M249.93,137.18h0a1.24,1.24,0,0,1-.37.12,1.84,1.84,0,0,1-.39,0,1.91,1.91,0,0,1-.68-.12,1.58,1.58,0,0,1-.54-.37,1.63,1.63,0,0,1-.36-.56,2.05,2.05,0,0,1-.13-.72,1.79,1.79,0,0,1,.15-.75,1.48,1.48,0,0,1,.4-.55,1.79,1.79,0,0,1,.6-.35,2,2,0,0,1,.75-.13,2.11,2.11,0,0,1,.75.13,1.79,1.79,0,0,1,.6.35,1.59,1.59,0,0,1,.4.55,1.79,1.79,0,0,1,.14.75,2.15,2.15,0,0,1,0,.45,1.68,1.68,0,0,1-.11.4,2.59,2.59,0,0,1-.17.38l-.21.36-1.51,2.39h-.78Zm-.59-.42a1.28,1.28,0,0,0,.48-.09,1,1,0,0,0,.39-.24,1.23,1.23,0,0,0,.26-.37,1.43,1.43,0,0,0,0-1,1.1,1.1,0,0,0-.65-.62,1.48,1.48,0,0,0-1,0,1.28,1.28,0,0,0-.39.24,1.12,1.12,0,0,0-.26.38,1.3,1.3,0,0,0,0,1,1.08,1.08,0,0,0,.26.37,1,1,0,0,0,.39.24A1.28,1.28,0,0,0,249.34,136.76Z"/><path d="M251.82,136.71a7.07,7.07,0,0,1,.08-1,3.19,3.19,0,0,1,.29-1,2,2,0,0,1,.59-.7,1.54,1.54,0,0,1,1-.28,1.49,1.49,0,0,1,.95.28,1.91,1.91,0,0,1,.59.7,2.94,2.94,0,0,1,.3,1,6.29,6.29,0,0,1,0,2,2.94,2.94,0,0,1-.3.95,1.91,1.91,0,0,1-.59.7,1.49,1.49,0,0,1-.95.28,1.54,1.54,0,0,1-1-.28,2,2,0,0,1-.59-.7,3.19,3.19,0,0,1-.29-.95A7.07,7.07,0,0,1,251.82,136.71Zm.67,0c0,.14,0,.29,0,.46a4.6,4.6,0,0,0,.06.52,4.7,4.7,0,0,0,.12.51,2,2,0,0,0,.23.44,1,1,0,0,0,.34.31,1,1,0,0,0,.48.11,1.06,1.06,0,0,0,.48-.11,1.24,1.24,0,0,0,.34-.31,1.65,1.65,0,0,0,.22-.44,3.18,3.18,0,0,0,.13-.51,4.6,4.6,0,0,0,.06-.52c0-.17,0-.32,0-.46s0-.29,0-.46a4.6,4.6,0,0,0-.06-.52,3.18,3.18,0,0,0-.13-.51,1.65,1.65,0,0,0-.22-.44,1.24,1.24,0,0,0-.34-.31,1.06,1.06,0,0,0-.48-.11,1,1,0,0,0-.48.11,1,1,0,0,0-.34.31,2,2,0,0,0-.23.44,4.7,4.7,0,0,0-.12.51,4.6,4.6,0,0,0-.06.52C252.5,136.42,252.49,136.57,252.49,136.71Z"/><path d="M256.42,134.93a1.13,1.13,0,0,1,.09-.45,1.31,1.31,0,0,1,.24-.37,1.18,1.18,0,0,1,.37-.24,1,1,0,0,1,.44-.09,1.13,1.13,0,0,1,.45.09,1.06,1.06,0,0,1,.61.61,1.13,1.13,0,0,1,.09.45,1,1,0,0,1-.09.44,1.06,1.06,0,0,1-.61.61,1.13,1.13,0,0,1-.45.09,1,1,0,0,1-.44-.09,1.18,1.18,0,0,1-.37-.24,1.31,1.31,0,0,1-.24-.37A1,1,0,0,1,256.42,134.93Zm.43,0a.69.69,0,0,0,0,.24,1,1,0,0,0,.15.24.73.73,0,0,0,.51.23.54.54,0,0,0,.29-.07.63.63,0,0,0,.23-.16.72.72,0,0,0,.14-.24.52.52,0,0,0,0-.24.56.56,0,0,0,0-.25.59.59,0,0,0-.14-.23.74.74,0,0,0-.52-.24.73.73,0,0,0-.29.07.62.62,0,0,0-.22.17.76.76,0,0,0-.15.23A.74.74,0,0,0,256.85,134.93Z"/><path d="M41.57,137.18h0a1.34,1.34,0,0,1-.37.12,2,2,0,0,1-.39,0,1.92,1.92,0,0,1-.69-.12,1.58,1.58,0,0,1-.54-.37,1.8,1.8,0,0,1-.36-.56,2.05,2.05,0,0,1-.13-.72,1.79,1.79,0,0,1,.15-.75,1.48,1.48,0,0,1,.4-.55,1.79,1.79,0,0,1,.6-.35,2.23,2.23,0,0,1,1.5,0,1.79,1.79,0,0,1,.6.35,1.48,1.48,0,0,1,.4.55,1.79,1.79,0,0,1,.15.75,3.14,3.14,0,0,1,0,.45,2.34,2.34,0,0,1-.12.4,1.84,1.84,0,0,1-.17.38,3.35,3.35,0,0,1-.21.36l-1.5,2.39h-.79Zm-.59-.42a1.28,1.28,0,0,0,.48-.09,1,1,0,0,0,.39-.24,1.23,1.23,0,0,0,.26-.37,1.3,1.3,0,0,0,0-1,1.1,1.1,0,0,0-.65-.62,1.48,1.48,0,0,0-1,0,1.1,1.1,0,0,0-.65.62,1.43,1.43,0,0,0,0,1,1.23,1.23,0,0,0,.26.37,1,1,0,0,0,.39.24A1.28,1.28,0,0,0,41,136.76Z"/><path d="M43.46,136.71a7.07,7.07,0,0,1,.08-1,2.94,2.94,0,0,1,.3-1,1.91,1.91,0,0,1,.59-.7,1.49,1.49,0,0,1,1-.28,1.54,1.54,0,0,1,1,.28,2,2,0,0,1,.59.7,3.19,3.19,0,0,1,.29,1,6.29,6.29,0,0,1,0,2,3.19,3.19,0,0,1-.29.95,2,2,0,0,1-.59.7,1.54,1.54,0,0,1-1,.28,1.49,1.49,0,0,1-1-.28,1.91,1.91,0,0,1-.59-.7,2.94,2.94,0,0,1-.3-.95A7.07,7.07,0,0,1,43.46,136.71Zm.67,0c0,.14,0,.29,0,.46a4.6,4.6,0,0,0,.06.52,3.18,3.18,0,0,0,.13.51,1.65,1.65,0,0,0,.22.44,1.12,1.12,0,0,0,.34.31,1.1,1.1,0,0,0,1,0,1.12,1.12,0,0,0,.34-.31,2,2,0,0,0,.23-.44,4.7,4.7,0,0,0,.12-.51,4.6,4.6,0,0,0,.06-.52c0-.17,0-.32,0-.46s0-.29,0-.46a4.6,4.6,0,0,0-.06-.52,4.7,4.7,0,0,0-.12-.51,2,2,0,0,0-.23-.44,1.12,1.12,0,0,0-.34-.31,1.1,1.1,0,0,0-1,0,1.12,1.12,0,0,0-.34.31,1.65,1.65,0,0,0-.22.44,3.18,3.18,0,0,0-.13.51,4.6,4.6,0,0,0-.06.52C44.14,136.42,44.13,136.57,44.13,136.71Z"/><path d="M48.06,134.93a1.13,1.13,0,0,1,.09-.45,1.06,1.06,0,0,1,.61-.61,1.13,1.13,0,0,1,.45-.09,1.08,1.08,0,0,1,.44.09,1.06,1.06,0,0,1,.61.61,1.13,1.13,0,0,1,.09.45,1,1,0,0,1-.09.44,1.06,1.06,0,0,1-.61.61,1.08,1.08,0,0,1-.44.09,1.13,1.13,0,0,1-.45-.09,1.06,1.06,0,0,1-.61-.61A1,1,0,0,1,48.06,134.93Zm.43,0a.53.53,0,0,0,.06.24.72.72,0,0,0,.14.24.69.69,0,0,0,.22.16.6.6,0,0,0,.3.07.73.73,0,0,0,.51-.23,1,1,0,0,0,.15-.24.69.69,0,0,0,.05-.24.74.74,0,0,0-.05-.25.76.76,0,0,0-.15-.23.62.62,0,0,0-.22-.17.73.73,0,0,0-.29-.07.73.73,0,0,0-.3.07.72.72,0,0,0-.22.17.59.59,0,0,0-.14.23A.57.57,0,0,0,48.49,134.93Z"/><path d="M148.37,38.51h-.68v-4.8h0l-1,.85-.4-.48,1.52-1.24h.59Z"/><path d="M150.49,34.23a1.48,1.48,0,0,1,.13-.61,1.2,1.2,0,0,1,.34-.46,1.44,1.44,0,0,1,.51-.3,1.92,1.92,0,0,1,1.28,0,1.44,1.44,0,0,1,.51.3,1.2,1.2,0,0,1,.34.46,1.33,1.33,0,0,1,.13.61,1.16,1.16,0,0,1-.07.4,1.41,1.41,0,0,1-.18.37,1.33,1.33,0,0,1-.29.29,1.18,1.18,0,0,1-.39.19h0a1.44,1.44,0,0,1,.46.19,1.35,1.35,0,0,1,.35.32,1.42,1.42,0,0,1,.23.44,1.7,1.7,0,0,1,.08.51,1.74,1.74,0,0,1-.14.69,1.43,1.43,0,0,1-.39.52,1.47,1.47,0,0,1-.57.33,2.35,2.35,0,0,1-1.42,0,1.47,1.47,0,0,1-.57-.33,1.55,1.55,0,0,1-.39-.52,1.74,1.74,0,0,1-.14-.69,1.7,1.7,0,0,1,.08-.51,1.67,1.67,0,0,1,.23-.44,1.35,1.35,0,0,1,.35-.32,1.44,1.44,0,0,1,.46-.19h0a1.18,1.18,0,0,1-.39-.19,1.33,1.33,0,0,1-.29-.29,1.41,1.41,0,0,1-.18-.37A1.46,1.46,0,0,1,150.49,34.23ZM151,36.9a1.18,1.18,0,0,0,.09.46,1.07,1.07,0,0,0,.25.35,1,1,0,0,0,.36.23,1.12,1.12,0,0,0,.88,0,1,1,0,0,0,.36-.23,1.07,1.07,0,0,0,.25-.35,1.18,1.18,0,0,0,.09-.46,1.14,1.14,0,0,0-.09-.46,1.13,1.13,0,0,0-.61-.58,1.12,1.12,0,0,0-.88,0,1.13,1.13,0,0,0-.61.58A1.14,1.14,0,0,0,151,36.9Zm.2-2.64a.88.88,0,0,0,.26.67,1,1,0,0,0,1.36,0,1,1,0,0,0,0-1.34,1,1,0,0,0-1.36,0A.88.88,0,0,0,151.17,34.26Z"/><path d="M154.64,35.68a7,7,0,0,1,.08-1,3.1,3.1,0,0,1,.29-1,2,2,0,0,1,.59-.71,1.6,1.6,0,0,1,1-.27,1.55,1.55,0,0,1,.95.27,1.94,1.94,0,0,1,.59.71,2.86,2.86,0,0,1,.3,1,7,7,0,0,1,.08,1,7.07,7.07,0,0,1-.08,1,2.88,2.88,0,0,1-.3.94,1.94,1.94,0,0,1-.59.71,1.55,1.55,0,0,1-.95.27,1.6,1.6,0,0,1-1-.27,2,2,0,0,1-.59-.71,3.13,3.13,0,0,1-.29-.94A7.07,7.07,0,0,1,154.64,35.68Zm.67,0c0,.13,0,.29,0,.46a4.88,4.88,0,0,0,.06.52,4.05,4.05,0,0,0,.12.5,1.66,1.66,0,0,0,.23.44,1.12,1.12,0,0,0,.34.31,1,1,0,0,0,1,0,1.12,1.12,0,0,0,.34-.31,1.4,1.4,0,0,0,.22-.44,2.83,2.83,0,0,0,.13-.5,4.88,4.88,0,0,0,.06-.52c0-.17,0-.33,0-.46s0-.3,0-.47a4.43,4.43,0,0,0-.06-.51,2.72,2.72,0,0,0-.13-.51,1.51,1.51,0,0,0-.22-.44,1.12,1.12,0,0,0-.34-.31,1,1,0,0,0-1,0,1.12,1.12,0,0,0-.34.31,1.83,1.83,0,0,0-.23.44,3.81,3.81,0,0,0-.12.51,4.43,4.43,0,0,0-.06.51C155.32,35.38,155.31,35.54,155.31,35.68Z"/><path d="M159.24,33.89a1.15,1.15,0,0,1,.33-.81,1,1,0,0,1,.37-.24,1,1,0,0,1,.44-.09,1.15,1.15,0,0,1,.82,2,1.15,1.15,0,0,1-.37.25,1.13,1.13,0,0,1-.45.09,1.15,1.15,0,0,1-.81-.34,1.15,1.15,0,0,1-.33-.81Zm.43,0a.79.79,0,0,0,.05.25,1.14,1.14,0,0,0,.15.23.62.62,0,0,0,.22.17.72.72,0,0,0,.29.06.68.68,0,0,0,.52-.23.79.79,0,0,0,.14-.23.65.65,0,0,0,0-.5.79.79,0,0,0-.14-.23.81.81,0,0,0-.23-.17.65.65,0,0,0-.29-.06.72.72,0,0,0-.29.06.76.76,0,0,0-.22.17,1.14,1.14,0,0,0-.15.23A.79.79,0,0,0,159.67,33.89Z"/><path d="M203.18,38.51h-.68v-4.8h0l-1,.85-.4-.48,1.52-1.24h.59Z"/><path d="M208.49,33.47h-2.31l0,1.53a1.08,1.08,0,0,1,.36-.11l.37,0a2,2,0,0,1,.74.14,1.61,1.61,0,0,1,.57.39,1.9,1.9,0,0,1,.37.59,2,2,0,0,1,.13.74,2,2,0,0,1-.15.78,1.74,1.74,0,0,1-.41.59,1.91,1.91,0,0,1-.61.38,2.2,2.2,0,0,1-.78.13,1.73,1.73,0,0,1-1-.28,2,2,0,0,1-.63-.75l.67-.25a1.31,1.31,0,0,0,.42.51,1.1,1.1,0,0,0,.64.2,1.28,1.28,0,0,0,.48-.09,1.26,1.26,0,0,0,.38-.27,1.15,1.15,0,0,0,.26-.41,1.53,1.53,0,0,0,.1-.54,1.38,1.38,0,0,0-.11-.55,1.08,1.08,0,0,0-.3-.4,1.26,1.26,0,0,0-.44-.25,1.67,1.67,0,0,0-.55-.08,1.84,1.84,0,0,0-.6.1,2.58,2.58,0,0,0-.56.25l.06-2.95h3Z"/><path d="M209.45,35.68a7,7,0,0,1,.08-1,3.1,3.1,0,0,1,.29-1,2,2,0,0,1,.59-.71,1.6,1.6,0,0,1,1-.27,1.55,1.55,0,0,1,.95.27,1.94,1.94,0,0,1,.59.71,2.86,2.86,0,0,1,.3,1,7,7,0,0,1,.08,1,7.07,7.07,0,0,1-.08,1,2.88,2.88,0,0,1-.3.94,1.94,1.94,0,0,1-.59.71,1.55,1.55,0,0,1-.95.27,1.6,1.6,0,0,1-1-.27,2,2,0,0,1-.59-.71,3.13,3.13,0,0,1-.29-.94A7.07,7.07,0,0,1,209.45,35.68Zm.67,0c0,.13,0,.29,0,.46a4.88,4.88,0,0,0,.06.52,4.05,4.05,0,0,0,.12.5,1.66,1.66,0,0,0,.23.44,1,1,0,0,0,.34.31.9.9,0,0,0,.48.12,1,1,0,0,0,.48-.12,1.24,1.24,0,0,0,.34-.31,1.4,1.4,0,0,0,.22-.44,2.83,2.83,0,0,0,.13-.5,4.88,4.88,0,0,0,.06-.52c0-.17,0-.33,0-.46s0-.3,0-.47a4.43,4.43,0,0,0-.06-.51,2.72,2.72,0,0,0-.13-.51,1.51,1.51,0,0,0-.22-.44,1.24,1.24,0,0,0-.34-.31,1,1,0,0,0-.48-.12.9.9,0,0,0-.48.12,1,1,0,0,0-.34.31,1.83,1.83,0,0,0-.23.44,3.81,3.81,0,0,0-.12.51,4.43,4.43,0,0,0-.06.51C210.13,35.38,210.12,35.54,210.12,35.68Z"/><path d="M214.05,33.89a1.15,1.15,0,0,1,.33-.81,1,1,0,0,1,.37-.24,1,1,0,0,1,.44-.09,1.13,1.13,0,0,1,.45.09,1,1,0,0,1,.36.24,1,1,0,0,1,.25.36,1.17,1.17,0,0,1,0,.9,1.23,1.23,0,0,1-.61.61,1.13,1.13,0,0,1-.45.09,1.15,1.15,0,0,1-.81-.34,1.15,1.15,0,0,1-.33-.81Zm.43,0a.79.79,0,0,0,.05.25,1.14,1.14,0,0,0,.15.23.62.62,0,0,0,.22.17.72.72,0,0,0,.29.06.68.68,0,0,0,.52-.23.79.79,0,0,0,.14-.23.65.65,0,0,0,0-.5.79.79,0,0,0-.14-.23.81.81,0,0,0-.23-.17.65.65,0,0,0-.29-.06.72.72,0,0,0-.29.06.76.76,0,0,0-.22.17,1.14,1.14,0,0,0-.15.23A.79.79,0,0,0,214.48,33.89Z"/><path d="M93.61,38.51h-.67v-4.8h0l-1,.85-.4-.48L93,32.84h.58Z"/><path d="M98.92,33.47H96.61l0,1.53a1,1,0,0,1,.35-.11l.37,0a1.91,1.91,0,0,1,.74.14,1.65,1.65,0,0,1,.58.39A1.71,1.71,0,0,1,99,36a2,2,0,0,1,.13.74,2,2,0,0,1-.15.78,1.71,1.71,0,0,1-.4.59,2,2,0,0,1-.62.38,2.15,2.15,0,0,1-.77.13,1.78,1.78,0,0,1-1.05-.28,1.85,1.85,0,0,1-.62-.75l.67-.25a1.16,1.16,0,0,0,.42.51,1.05,1.05,0,0,0,.63.2,1.28,1.28,0,0,0,.48-.09,1.23,1.23,0,0,0,.64-.68,1.33,1.33,0,0,0,.1-.54,1.38,1.38,0,0,0-.11-.55,1.18,1.18,0,0,0-.29-.4,1.41,1.41,0,0,0-.45-.25,1.63,1.63,0,0,0-.55-.08,1.78,1.78,0,0,0-.59.1,2.58,2.58,0,0,0-.56.25l0-2.95h3Z"/><path d="M99.88,35.68a7,7,0,0,1,.08-1,3.11,3.11,0,0,1,.3-1,1.94,1.94,0,0,1,.59-.71,1.55,1.55,0,0,1,1-.27,1.6,1.6,0,0,1,1,.27,2,2,0,0,1,.59.71,3.1,3.1,0,0,1,.29,1,5.77,5.77,0,0,1,.08,1,5.85,5.85,0,0,1-.08,1,3.13,3.13,0,0,1-.29.94,2,2,0,0,1-.59.71,1.6,1.6,0,0,1-1,.27,1.55,1.55,0,0,1-1-.27,1.94,1.94,0,0,1-.59-.71,3.14,3.14,0,0,1-.3-.94A7.07,7.07,0,0,1,99.88,35.68Zm.67,0c0,.13,0,.29,0,.46a4.88,4.88,0,0,0,.06.52,2.83,2.83,0,0,0,.13.5,1.4,1.4,0,0,0,.22.44,1.24,1.24,0,0,0,.34.31,1,1,0,0,0,.48.12.9.9,0,0,0,.48-.12,1,1,0,0,0,.34-.31,1.41,1.41,0,0,0,.23-.44,4.05,4.05,0,0,0,.12-.5,4.88,4.88,0,0,0,.06-.52c0-.17,0-.33,0-.46s0-.3,0-.47a4.43,4.43,0,0,0-.06-.51,3.81,3.81,0,0,0-.12-.51,1.53,1.53,0,0,0-.23-.44,1,1,0,0,0-.34-.31.9.9,0,0,0-.48-.12,1,1,0,0,0-.48.12,1.24,1.24,0,0,0-.34.31,1.51,1.51,0,0,0-.22.44,2.72,2.72,0,0,0-.13.51,4.43,4.43,0,0,0-.06.51C100.56,35.38,100.55,35.54,100.55,35.68Z"/><path d="M104.48,33.89a1.15,1.15,0,0,1,1.15-1.14,1,1,0,0,1,.44.09,1.12,1.12,0,0,1,.37.24,1.16,1.16,0,0,1,0,1.62,1.15,1.15,0,0,1-.37.25,1,1,0,0,1-.44.09,1.13,1.13,0,0,1-.45-.09,1.15,1.15,0,0,1-.37-.25,1.15,1.15,0,0,1-.33-.81Zm.43,0a.61.61,0,0,0,.06.25.79.79,0,0,0,.14.23.72.72,0,0,0,.22.17.73.73,0,0,0,.3.06.72.72,0,0,0,.29-.06.62.62,0,0,0,.22-.17,1.14,1.14,0,0,0,.15-.23.65.65,0,0,0,0-.5,1.14,1.14,0,0,0-.15-.23.76.76,0,0,0-.22-.17.72.72,0,0,0-.29-.06.73.73,0,0,0-.3.06.92.92,0,0,0-.22.17.79.79,0,0,0-.14.23A.61.61,0,0,0,104.91,33.89Z"/><path d="M248.75,192.45v0a1.35,1.35,0,0,1,.37-.13,2,2,0,0,1,.39,0,1.73,1.73,0,0,1,.69.13,1.42,1.42,0,0,1,.54.36,1.85,1.85,0,0,1,.36.57,2,2,0,0,1,.12.72,1.78,1.78,0,0,1-.14.74,1.74,1.74,0,0,1-.4.56,2,2,0,0,1-.6.35,2.36,2.36,0,0,1-.75.12,2.27,2.27,0,0,1-.75-.12,2,2,0,0,1-.6-.35,1.6,1.6,0,0,1-.4-.56,1.78,1.78,0,0,1-.15-.74,2.24,2.24,0,0,1,.15-.86,5.28,5.28,0,0,1,.39-.74l1.5-2.39h.79Zm.59.43a1.23,1.23,0,0,0-.87.32,1,1,0,0,0-.26.38,1.31,1.31,0,0,0-.1.5,1.35,1.35,0,0,0,.1.5,1.08,1.08,0,0,0,.26.37,1,1,0,0,0,.39.24,1.32,1.32,0,0,0,1,0,1,1,0,0,0,.39-.24,1.23,1.23,0,0,0,.26-.37,1.35,1.35,0,0,0,.09-.5,1.31,1.31,0,0,0-.09-.5,1.16,1.16,0,0,0-.26-.38,1.23,1.23,0,0,0-.87-.32Z"/><path d="M251.82,192.92a7.07,7.07,0,0,1,.08-1,3.13,3.13,0,0,1,.29-.94,2,2,0,0,1,.59-.71,1.6,1.6,0,0,1,1-.27,1.55,1.55,0,0,1,.95.27,1.94,1.94,0,0,1,.59.71,2.88,2.88,0,0,1,.3.94,7.07,7.07,0,0,1,.08,1,7,7,0,0,1-.08,1,2.86,2.86,0,0,1-.3,1,1.94,1.94,0,0,1-.59.71,1.55,1.55,0,0,1-.95.27,1.6,1.6,0,0,1-1-.27,2,2,0,0,1-.59-.71,3.1,3.1,0,0,1-.29-1A7,7,0,0,1,251.82,192.92Zm.67,0c0,.14,0,.3,0,.47a4.43,4.43,0,0,0,.06.51,3.81,3.81,0,0,0,.12.51,1.83,1.83,0,0,0,.23.44,1,1,0,0,0,.34.31.9.9,0,0,0,.48.12,1,1,0,0,0,.48-.12,1.24,1.24,0,0,0,.34-.31,1.51,1.51,0,0,0,.22-.44,2.72,2.72,0,0,0,.13-.51,4.43,4.43,0,0,0,.06-.51c0-.17,0-.33,0-.47s0-.29,0-.46a4.88,4.88,0,0,0-.06-.52,2.83,2.83,0,0,0-.13-.5,1.4,1.4,0,0,0-.22-.44,1.1,1.1,0,0,0-.34-.31,1,1,0,0,0-.48-.12.9.9,0,0,0-.48.12.92.92,0,0,0-.34.31,1.66,1.66,0,0,0-.23.44,4.05,4.05,0,0,0-.12.5,4.88,4.88,0,0,0-.06.52C252.5,192.63,252.49,192.79,252.49,192.92Z"/><path d="M256.42,191.14a1.15,1.15,0,0,1,.33-.81,1.05,1.05,0,0,1,.37-.25,1.23,1.23,0,0,1,.44-.08,1.33,1.33,0,0,1,.45.08,1.15,1.15,0,0,1,.37.25,1.16,1.16,0,0,1,0,1.62,1.15,1.15,0,0,1-.37.25,1.33,1.33,0,0,1-.45.08,1.23,1.23,0,0,1-.44-.08,1.05,1.05,0,0,1-.37-.25,1.15,1.15,0,0,1-.33-.81Zm.43,0a.79.79,0,0,0,0,.25,1.14,1.14,0,0,0,.15.23.62.62,0,0,0,.22.17.72.72,0,0,0,.29.06.68.68,0,0,0,.52-.23.79.79,0,0,0,.14-.23.65.65,0,0,0,0-.5.79.79,0,0,0-.14-.23.68.68,0,0,0-.52-.23.72.72,0,0,0-.29.06.62.62,0,0,0-.22.17,1.14,1.14,0,0,0-.15.23A.79.79,0,0,0,256.85,191.14Z"/><path d="M250,81.22h-.67v-4.8h0l-1,.86-.4-.49,1.52-1.23H250Z"/><path d="M251.92,80.45l2.13-2.08c.13-.12.25-.24.35-.35a2.16,2.16,0,0,0,.25-.32,1.09,1.09,0,0,0,.15-.33,1.38,1.38,0,0,0,0-.37,1,1,0,0,0-.08-.4.84.84,0,0,0-.22-.3.78.78,0,0,0-.33-.19,1.05,1.05,0,0,0-.4-.07,1,1,0,0,0-.71.25,1.08,1.08,0,0,0-.36.65l-.73-.06a1.83,1.83,0,0,1,.21-.61,1.41,1.41,0,0,1,.39-.45,2,2,0,0,1,.53-.27,2.25,2.25,0,0,1,.64-.09,2.41,2.41,0,0,1,.67.1,1.92,1.92,0,0,1,.55.29,1.44,1.44,0,0,1,.51,1.15,2,2,0,0,1-.09.61,2,2,0,0,1-.25.5,3.47,3.47,0,0,1-.35.43l-.41.4-1.75,1.64v0h2.89v.62h-3.64Z"/><path d="M256.27,78.39a5.85,5.85,0,0,1,.08-1,3.19,3.19,0,0,1,.29-1,2,2,0,0,1,.59-.7,1.54,1.54,0,0,1,1-.28,1.51,1.51,0,0,1,.95.28,1.91,1.91,0,0,1,.59.7,3.2,3.2,0,0,1,.3,1,6.29,6.29,0,0,1,0,2,3.2,3.2,0,0,1-.3,1,1.91,1.91,0,0,1-.59.7,1.51,1.51,0,0,1-.95.28,1.54,1.54,0,0,1-1-.28,2,2,0,0,1-.59-.7,3.19,3.19,0,0,1-.29-1A5.85,5.85,0,0,1,256.27,78.39Zm.67,0a3.78,3.78,0,0,0,0,.46c0,.17,0,.35.05.52a4.77,4.77,0,0,0,.13.51,1.67,1.67,0,0,0,.23.44,1,1,0,0,0,.34.31,1,1,0,0,0,.48.11,1.06,1.06,0,0,0,.48-.11,1.24,1.24,0,0,0,.34-.31,2,2,0,0,0,.22-.44,3.18,3.18,0,0,0,.13-.51,4.6,4.6,0,0,0,.06-.52c0-.17,0-.32,0-.46s0-.29,0-.46a4.35,4.35,0,0,0-.06-.52,3.18,3.18,0,0,0-.13-.51,2,2,0,0,0-.22-.44,1.24,1.24,0,0,0-.34-.31,1.06,1.06,0,0,0-.48-.11,1,1,0,0,0-.48.11,1,1,0,0,0-.34.31,1.67,1.67,0,0,0-.23.44,4.77,4.77,0,0,0-.13.51c0,.17,0,.34-.05.52A3.78,3.78,0,0,0,256.94,78.39Z"/><path d="M260.87,76.61a1.13,1.13,0,0,1,.09-.45,1,1,0,0,1,.24-.37,1.16,1.16,0,0,1,1.62,0,1.15,1.15,0,0,1,.25.37,1.13,1.13,0,0,1,.09.45,1,1,0,0,1-.09.44,1.15,1.15,0,0,1-.25.37,1.16,1.16,0,0,1-1.62,0,1,1,0,0,1-.24-.37A1,1,0,0,1,260.87,76.61Zm.43,0a.69.69,0,0,0,.05.24.75.75,0,0,0,.15.24.6.6,0,0,0,.22.16.64.64,0,0,0,.58,0,.63.63,0,0,0,.23-.16.72.72,0,0,0,.14-.24.52.52,0,0,0,.05-.24.56.56,0,0,0-.05-.25.59.59,0,0,0-.14-.23.66.66,0,0,0-.23-.17.64.64,0,0,0-.58,0,.62.62,0,0,0-.22.17.61.61,0,0,0-.15.23A.74.74,0,0,0,261.3,76.61Z"/><path d="M40.39,192.45v0a1.42,1.42,0,0,1,.38-.13,1.84,1.84,0,0,1,.39,0,1.72,1.72,0,0,1,.68.13,1.42,1.42,0,0,1,.54.36,1.85,1.85,0,0,1,.36.57,2,2,0,0,1,.13.72,1.78,1.78,0,0,1-.15.74,1.6,1.6,0,0,1-.4.56,2,2,0,0,1-.6.35,2.4,2.4,0,0,1-1.5,0,2,2,0,0,1-.6-.35,1.6,1.6,0,0,1-.4-.56,1.78,1.78,0,0,1-.15-.74,2.24,2.24,0,0,1,.16-.86,5.19,5.19,0,0,1,.38-.74l1.5-2.39h.79Zm.59.43a1.23,1.23,0,0,0-.87.32,1.16,1.16,0,0,0-.26.38,1.31,1.31,0,0,0-.09.5,1.35,1.35,0,0,0,.09.5,1.23,1.23,0,0,0,.26.37,1,1,0,0,0,.39.24,1.32,1.32,0,0,0,1,0,1,1,0,0,0,.39-.24,1.23,1.23,0,0,0,.26-.37,1.35,1.35,0,0,0,.1-.5,1.31,1.31,0,0,0-.1-.5,1.16,1.16,0,0,0-.26-.38,1.23,1.23,0,0,0-.87-.32Z"/><path d="M43.46,192.92a7.07,7.07,0,0,1,.08-1,2.88,2.88,0,0,1,.3-.94,1.94,1.94,0,0,1,.59-.71,1.55,1.55,0,0,1,1-.27,1.6,1.6,0,0,1,1,.27,2,2,0,0,1,.59.71,3.13,3.13,0,0,1,.29.94,7.07,7.07,0,0,1,.08,1,7,7,0,0,1-.08,1,3.1,3.1,0,0,1-.29,1,2,2,0,0,1-.59.71,1.6,1.6,0,0,1-1,.27,1.55,1.55,0,0,1-1-.27,1.94,1.94,0,0,1-.59-.71,2.86,2.86,0,0,1-.3-1A7,7,0,0,1,43.46,192.92Zm.67,0c0,.14,0,.3,0,.47a4.43,4.43,0,0,0,.06.51,2.72,2.72,0,0,0,.13.51,1.51,1.51,0,0,0,.22.44,1.12,1.12,0,0,0,.34.31,1,1,0,0,0,1,0,1.12,1.12,0,0,0,.34-.31,1.83,1.83,0,0,0,.23-.44,3.81,3.81,0,0,0,.12-.51,4.43,4.43,0,0,0,.06-.51c0-.17,0-.33,0-.47s0-.29,0-.46a4.88,4.88,0,0,0-.06-.52,4.05,4.05,0,0,0-.12-.5,1.66,1.66,0,0,0-.23-.44,1,1,0,0,0-.34-.31,1,1,0,0,0-1,0,1,1,0,0,0-.34.31,1.4,1.4,0,0,0-.22.44,2.83,2.83,0,0,0-.13.5,4.88,4.88,0,0,0-.06.52C44.14,192.63,44.13,192.79,44.13,192.92Z"/><path d="M48.06,191.14a1.15,1.15,0,0,1,.33-.81,1.15,1.15,0,0,1,.37-.25,1.33,1.33,0,0,1,.45-.08,1.27,1.27,0,0,1,.44.08,1.15,1.15,0,0,1,.37.25A1.16,1.16,0,0,1,50,192a1.15,1.15,0,0,1-.37.25,1.27,1.27,0,0,1-.44.08,1.33,1.33,0,0,1-.45-.08,1.15,1.15,0,0,1-.37-.25,1.15,1.15,0,0,1-.33-.81Zm.43,0a.61.61,0,0,0,.06.25.79.79,0,0,0,.14.23.72.72,0,0,0,.22.17.73.73,0,0,0,.3.06.72.72,0,0,0,.29-.06.62.62,0,0,0,.22-.17,1.14,1.14,0,0,0,.15-.23.65.65,0,0,0,0-.5,1.14,1.14,0,0,0-.15-.23.62.62,0,0,0-.22-.17.72.72,0,0,0-.29-.06.73.73,0,0,0-.3.06.72.72,0,0,0-.22.17.79.79,0,0,0-.14.23A.61.61,0,0,0,48.49,191.14Z"/><path d="M39.15,81.22h-.67v-4.8h0l-1,.86-.4-.49,1.52-1.23h.58Z"/><path d="M41.07,80.45l2.14-2.08c.13-.12.25-.24.35-.35a2.16,2.16,0,0,0,.25-.32,1.09,1.09,0,0,0,.15-.33A1.38,1.38,0,0,0,44,77a1,1,0,0,0-.08-.4.84.84,0,0,0-.22-.3.78.78,0,0,0-.33-.19A1.05,1.05,0,0,0,43,76a1,1,0,0,0-.72.25,1.19,1.19,0,0,0-.36.65l-.72-.06a1.47,1.47,0,0,1,.21-.61,1.41,1.41,0,0,1,.39-.45,2,2,0,0,1,.53-.27,2.2,2.2,0,0,1,.64-.09,2.41,2.41,0,0,1,.67.1,2.06,2.06,0,0,1,.55.29,1.47,1.47,0,0,1,.37.48,1.6,1.6,0,0,1,.14.67,2,2,0,0,1-.09.61,2.34,2.34,0,0,1-.25.5,3.47,3.47,0,0,1-.35.43l-.41.4-1.75,1.64v0h2.89v.62H41.07Z"/><path d="M45.43,78.39a7,7,0,0,1,.07-1,3.52,3.52,0,0,1,.3-1,2,2,0,0,1,.59-.7,1.77,1.77,0,0,1,1.91,0,1.91,1.91,0,0,1,.59.7,3.52,3.52,0,0,1,.3,1,6.29,6.29,0,0,1,0,2,3.52,3.52,0,0,1-.3,1,1.91,1.91,0,0,1-.59.7,1.77,1.77,0,0,1-1.91,0,2,2,0,0,1-.59-.7,3.52,3.52,0,0,1-.3-1A7,7,0,0,1,45.43,78.39Zm.67,0c0,.14,0,.29,0,.46a4.6,4.6,0,0,0,.06.52,4.77,4.77,0,0,0,.13.51,2,2,0,0,0,.22.44,1.15,1.15,0,0,0,.35.31,1,1,0,0,0,.48.11,1.06,1.06,0,0,0,.48-.11,1.24,1.24,0,0,0,.34-.31,2,2,0,0,0,.22-.44,3.18,3.18,0,0,0,.13-.51,4.6,4.6,0,0,0,.06-.52c0-.17,0-.32,0-.46s0-.29,0-.46a4.35,4.35,0,0,0-.06-.52,3.18,3.18,0,0,0-.13-.51,2,2,0,0,0-.22-.44,1.24,1.24,0,0,0-.34-.31,1.06,1.06,0,0,0-.48-.11,1,1,0,0,0-.48.11,1.15,1.15,0,0,0-.35.31,2,2,0,0,0-.22.44,4.77,4.77,0,0,0-.13.51,4.35,4.35,0,0,0-.06.52C46.1,78.1,46.1,78.25,46.1,78.39Z"/><path d="M50,76.61a1.12,1.12,0,0,1,.08-.45,1.15,1.15,0,0,1,.25-.37,1.16,1.16,0,0,1,1.62,0,1.15,1.15,0,0,1,.25.37,1.33,1.33,0,0,1,.08.45,1.23,1.23,0,0,1-.08.44,1.15,1.15,0,0,1-.25.37,1.16,1.16,0,0,1-1.62,0,1.15,1.15,0,0,1-.25-.37A1,1,0,0,1,50,76.61Zm.43,0a.52.52,0,0,0,0,.24.72.72,0,0,0,.14.24.63.63,0,0,0,.23.16.64.64,0,0,0,.58,0,.73.73,0,0,0,.23-.16,1,1,0,0,0,.14-.24.69.69,0,0,0,.05-.24.75.75,0,0,0-.19-.48.76.76,0,0,0-.23-.17.64.64,0,0,0-.58,0,.66.66,0,0,0-.23.17.59.59,0,0,0-.14.23A.56.56,0,0,0,50.46,76.61Z"/></g><g id="numeri_fondo_tabella" data-name="numeri fondo tabella"><path d="M131.83,251.42a1.17,1.17,0,0,0-.43-.35,1.19,1.19,0,0,0-.51-.11,1.35,1.35,0,0,0-.55.11,1.08,1.08,0,0,0-.4.3,1.32,1.32,0,0,0-.23.44,1.76,1.76,0,0,0,0,1.08,1.43,1.43,0,0,0,.26.45,1.31,1.31,0,0,0,.39.3,1.27,1.27,0,0,0,.52.1,1.09,1.09,0,0,0,1-.46l.47.44a1.69,1.69,0,0,1-.64.46,2.29,2.29,0,0,1-.78.14,2.22,2.22,0,0,1-.79-.14,1.75,1.75,0,0,1-1-1,2.27,2.27,0,0,1,0-1.57,1.86,1.86,0,0,1,.39-.63,2,2,0,0,1,.61-.41,2,2,0,0,1,.79-.15,2.09,2.09,0,0,1,.79.15,1.59,1.59,0,0,1,.65.45Z"/><path d="M136.21,253.56h0a1.43,1.43,0,0,1-.55.54,1.7,1.7,0,0,1-.89.22,1.8,1.8,0,0,1-.73-.15,1.78,1.78,0,0,1-.6-.41,1.81,1.81,0,0,1-.39-.62,2.06,2.06,0,0,1-.15-.79,2,2,0,0,1,.15-.78,1.88,1.88,0,0,1,.4-.63,1.81,1.81,0,0,1,.62-.41,2.07,2.07,0,0,1,.8-.15,1.72,1.72,0,0,1,.75.17,1.78,1.78,0,0,1,.59.47h0v-2.84h.62v6h-.62Zm0-1.21a1.63,1.63,0,0,0-.09-.55,1.34,1.34,0,0,0-.27-.44,1.37,1.37,0,0,0-.42-.29,1.35,1.35,0,0,0-.55-.11,1.42,1.42,0,0,0-.55.11,1.22,1.22,0,0,0-.41.29,1.34,1.34,0,0,0-.27.44,1.56,1.56,0,0,0,0,1.1,1.25,1.25,0,0,0,.27.44,1.19,1.19,0,0,0,1,.4,1.35,1.35,0,0,0,.55-.1,1.6,1.6,0,0,0,.42-.3,1.25,1.25,0,0,0,.27-.44A1.63,1.63,0,0,0,136.21,252.35Z"/><path d="M140.1,254.57l-.5-.2,2.4-6.15.51.2Z"/><path d="M147.64,254.22H147v-4.8h0l-1,.86-.4-.49,1.52-1.23h.59Z"/><path d="M149.46,251.39a7.07,7.07,0,0,1,.08-1,3.19,3.19,0,0,1,.29-.95,2,2,0,0,1,.59-.7,1.61,1.61,0,0,1,1-.28,1.55,1.55,0,0,1,1,.28,1.91,1.91,0,0,1,.59.7,2.94,2.94,0,0,1,.3.95,6.29,6.29,0,0,1,0,2,2.94,2.94,0,0,1-.3,1,1.91,1.91,0,0,1-.59.7,1.49,1.49,0,0,1-1,.28,1.54,1.54,0,0,1-1-.28,2,2,0,0,1-.59-.7,3.19,3.19,0,0,1-.29-1A7.07,7.07,0,0,1,149.46,251.39Zm.67,0c0,.14,0,.29,0,.47a4.43,4.43,0,0,0,.06.51,4.7,4.7,0,0,0,.12.51,2,2,0,0,0,.23.44,1.12,1.12,0,0,0,.34.31,1.1,1.1,0,0,0,1,0,1.12,1.12,0,0,0,.34-.31,1.65,1.65,0,0,0,.22-.44,3.18,3.18,0,0,0,.13-.51,4.43,4.43,0,0,0,.06-.51c0-.18,0-.33,0-.47s0-.29,0-.46a4.6,4.6,0,0,0-.06-.52,3.18,3.18,0,0,0-.13-.51,1.65,1.65,0,0,0-.22-.44,1.08,1.08,0,0,0-.34-.3,1,1,0,0,0-1,0,1.08,1.08,0,0,0-.34.3,2,2,0,0,0-.23.44,4.7,4.7,0,0,0-.12.51,4.6,4.6,0,0,0-.06.52C150.14,251.1,150.13,251.25,150.13,251.39Z"/><path d="M153.91,251.39a5.85,5.85,0,0,1,.08-1,3.19,3.19,0,0,1,.29-.95,2,2,0,0,1,.59-.7,1.61,1.61,0,0,1,1-.28,1.55,1.55,0,0,1,.95.28,1.91,1.91,0,0,1,.59.7,3.2,3.2,0,0,1,.3.95,6.29,6.29,0,0,1,0,2,3.2,3.2,0,0,1-.3,1,1.91,1.91,0,0,1-.59.7,1.49,1.49,0,0,1-.95.28,1.54,1.54,0,0,1-1-.28,2,2,0,0,1-.59-.7,3.19,3.19,0,0,1-.29-1A5.85,5.85,0,0,1,153.91,251.39Zm.67,0a4,4,0,0,0,0,.47,4.43,4.43,0,0,0,.06.51,3.14,3.14,0,0,0,.12.51,1.67,1.67,0,0,0,.23.44,1,1,0,0,0,.34.31.9.9,0,0,0,.48.11,1,1,0,0,0,.48-.11,1.24,1.24,0,0,0,.34-.31,1.65,1.65,0,0,0,.22-.44,3.18,3.18,0,0,0,.13-.51,4.43,4.43,0,0,0,.06-.51c0-.18,0-.33,0-.47s0-.29,0-.46a4.6,4.6,0,0,0-.06-.52,3.18,3.18,0,0,0-.13-.51,1.65,1.65,0,0,0-.22-.44,1.21,1.21,0,0,0-.34-.3,1,1,0,0,0-.48-.12.9.9,0,0,0-.48.12,1,1,0,0,0-.34.3,1.67,1.67,0,0,0-.23.44,3.14,3.14,0,0,0-.12.51,4.6,4.6,0,0,0-.06.52A3.78,3.78,0,0,0,154.58,251.39Z"/><path d="M158.31,251.39a5.85,5.85,0,0,1,.08-1,3.19,3.19,0,0,1,.29-.95,2,2,0,0,1,.59-.7,1.61,1.61,0,0,1,1-.28,1.55,1.55,0,0,1,1,.28,1.91,1.91,0,0,1,.59.7,3.2,3.2,0,0,1,.3.95,6.29,6.29,0,0,1,0,2,3.2,3.2,0,0,1-.3,1,1.91,1.91,0,0,1-.59.7,1.49,1.49,0,0,1-1,.28,1.54,1.54,0,0,1-1-.28,2,2,0,0,1-.59-.7,3.19,3.19,0,0,1-.29-1A5.85,5.85,0,0,1,158.31,251.39Zm.67,0c0,.14,0,.29,0,.47a4.43,4.43,0,0,0,.06.51,3.14,3.14,0,0,0,.12.51,1.67,1.67,0,0,0,.23.44,1,1,0,0,0,.34.31.9.9,0,0,0,.48.11,1,1,0,0,0,.48-.11,1.24,1.24,0,0,0,.34-.31,1.65,1.65,0,0,0,.22-.44,3.18,3.18,0,0,0,.13-.51,4.43,4.43,0,0,0,.06-.51c0-.18,0-.33,0-.47s0-.29,0-.46a4.6,4.6,0,0,0-.06-.52,3.18,3.18,0,0,0-.13-.51,1.65,1.65,0,0,0-.22-.44,1.21,1.21,0,0,0-.34-.3,1,1,0,0,0-.48-.12.9.9,0,0,0-.48.12,1,1,0,0,0-.34.3,1.67,1.67,0,0,0-.23.44,3.14,3.14,0,0,0-.12.51,4.6,4.6,0,0,0-.06.52C159,251.1,159,251.25,159,251.39Z"/><path d="M165.32,248.18H166v6h-.63Z"/><path d="M167.19,251.37c0-.17,0-.33,0-.48s0-.29,0-.41h.59c0,.1,0,.2,0,.3v.32h0a.91.91,0,0,1,.18-.27,1.64,1.64,0,0,1,.28-.23,1.5,1.5,0,0,1,.36-.16,1.44,1.44,0,0,1,.43-.06,1.52,1.52,0,0,1,.51.08,1.36,1.36,0,0,1,.34.18.93.93,0,0,1,.21.24,1.64,1.64,0,0,1,.12.22,1.78,1.78,0,0,1,.48-.53,1.27,1.27,0,0,1,.71-.19,1.88,1.88,0,0,1,.67.11,1.1,1.1,0,0,1,.44.31,1.37,1.37,0,0,1,.24.5,2.59,2.59,0,0,1,.07.65v2.27h-.62V252a2.33,2.33,0,0,0,0-.37,1,1,0,0,0-.15-.33.71.71,0,0,0-.28-.23,1,1,0,0,0-.45-.09,1,1,0,0,0-.37.08,1,1,0,0,0-.31.22,1.13,1.13,0,0,0-.21.35,1.33,1.33,0,0,0-.07.45v2.16h-.63V252.1a1.62,1.62,0,0,0-.17-.88A.6.6,0,0,0,169,251a1.18,1.18,0,0,0-.52.1.88.88,0,0,0-.36.3,1.14,1.14,0,0,0-.21.46,2.1,2.1,0,0,0-.07.58v1.82h-.62Z"/><line class="cls-1" x1="38.21" y1="253" x2="46.2" y2="253"/><path d="M235.17,251a1.66,1.66,0,0,0-.63-.52,1.93,1.93,0,0,0-.79-.17,2.13,2.13,0,0,0-.87.19,2.16,2.16,0,0,0-.68.52,2.58,2.58,0,0,0-.45.75,2.69,2.69,0,0,0-.16.89,2.79,2.79,0,0,0,.16.93,2.41,2.41,0,0,0,.45.74,2,2,0,0,0,.68.5,1.92,1.92,0,0,0,.87.19,2,2,0,0,0,1.64-.8l.51.43a2.38,2.38,0,0,1-.93.75,3,3,0,0,1-1.22.24,2.85,2.85,0,0,1-1.13-.22,2.82,2.82,0,0,1-.92-.62,3,3,0,0,1-.61-.94,3.33,3.33,0,0,1-.22-1.2,3.19,3.19,0,0,1,.21-1.16,2.9,2.9,0,0,1,.6-1,3.08,3.08,0,0,1,.91-.63,3,3,0,0,1,2.27,0,2,2,0,0,1,.89.68Z"/><path d="M239,253.1l0,0a1.35,1.35,0,0,1-.37.13,2.87,2.87,0,0,1-.39,0,1.68,1.68,0,0,1-.68-.13,1.5,1.5,0,0,1-.55-.36,1.92,1.92,0,0,1-.36-.56,2.11,2.11,0,0,1-.12-.73,1.75,1.75,0,0,1,.14-.74,1.63,1.63,0,0,1,.4-.56,1.79,1.79,0,0,1,.6-.35,2.36,2.36,0,0,1,.75-.12,2.27,2.27,0,0,1,.75.12,1.94,1.94,0,0,1,.61.35,1.49,1.49,0,0,1,.39.56,1.75,1.75,0,0,1,.15.74,2.19,2.19,0,0,1,0,.46c0,.14-.07.27-.11.4a2.53,2.53,0,0,1-.18.37,3.35,3.35,0,0,1-.21.36l-1.5,2.4h-.79Zm-.6-.43a1.51,1.51,0,0,0,.48-.08,1.28,1.28,0,0,0,.39-.24,1.12,1.12,0,0,0,.26-.38,1.27,1.27,0,0,0,.1-.5,1.26,1.26,0,0,0-.1-.49,1,1,0,0,0-.26-.38,1,1,0,0,0-.39-.24,1.33,1.33,0,0,0-1,0,.88.88,0,0,0-.38.24,1.19,1.19,0,0,0-.27.38,1.26,1.26,0,0,0-.09.49,1.28,1.28,0,0,0,.09.5,1.31,1.31,0,0,0,.27.38,1.12,1.12,0,0,0,.38.24A1.51,1.51,0,0,0,238.35,252.67Z"/><path d="M240.88,252.62a7.07,7.07,0,0,1,.08-1,2.88,2.88,0,0,1,.3-.94,2,2,0,0,1,.58-.71,1.84,1.84,0,0,1,1.92,0,2,2,0,0,1,.58.71,2.88,2.88,0,0,1,.3.94,7.07,7.07,0,0,1,.08,1,7,7,0,0,1-.08,1,2.86,2.86,0,0,1-.3.95,2,2,0,0,1-.58.71,1.84,1.84,0,0,1-1.92,0,2,2,0,0,1-.58-.71,2.86,2.86,0,0,1-.3-.95A7,7,0,0,1,240.88,252.62Zm.67,0c0,.14,0,.3,0,.47a4.43,4.43,0,0,0,.06.51,2.72,2.72,0,0,0,.13.51,1.51,1.51,0,0,0,.22.44,1.12,1.12,0,0,0,.34.31,1,1,0,0,0,1,0,1.12,1.12,0,0,0,.34-.31,1.51,1.51,0,0,0,.22-.44,2.72,2.72,0,0,0,.13-.51,4.43,4.43,0,0,0,.06-.51c0-.17,0-.33,0-.47s0-.29,0-.46a4.88,4.88,0,0,0-.06-.52,2.83,2.83,0,0,0-.13-.5,1.4,1.4,0,0,0-.22-.44,1.12,1.12,0,0,0-.34-.31,1,1,0,0,0-1,0,1.12,1.12,0,0,0-.34.31,1.4,1.4,0,0,0-.22.44,2.83,2.83,0,0,0-.13.5,4.88,4.88,0,0,0-.06.52C241.56,252.33,241.55,252.49,241.55,252.62Z"/><path d="M247.78,255.8l-.51-.2,2.41-6.14.5.19Z"/><path d="M257.1,251a1.66,1.66,0,0,0-.63-.52,1.92,1.92,0,0,0-.78-.17,2.06,2.06,0,0,0-.87.19,2.16,2.16,0,0,0-.68.52,2.21,2.21,0,0,0-.45.75,2.46,2.46,0,0,0-.16.89,2.56,2.56,0,0,0,.16.93,2.2,2.2,0,0,0,.44.74,2.1,2.1,0,0,0,.68.5,2,2,0,0,0,.88.19,2,2,0,0,0,.93-.21,2,2,0,0,0,.71-.59l.5.43a2.29,2.29,0,0,1-.92.75,3,3,0,0,1-1.22.24,2.8,2.8,0,0,1-2.05-.84,2.82,2.82,0,0,1-.61-.94,3.13,3.13,0,0,1-.22-1.2,3.19,3.19,0,0,1,.21-1.16,2.75,2.75,0,0,1,.6-1,3,3,0,0,1,.91-.63,2.93,2.93,0,0,1,1.16-.23,3,3,0,0,1,1.11.21,2,2,0,0,1,.89.68Z"/><path d="M258.46,254.69l2.14-2.08.35-.36a1.75,1.75,0,0,0,.25-.32,1,1,0,0,0,.15-.32,1.46,1.46,0,0,0,0-.38,1,1,0,0,0-.08-.4.93.93,0,0,0-.22-.3,1.13,1.13,0,0,0-.73-.26,1,1,0,0,0-.71.25,1.11,1.11,0,0,0-.36.66l-.73-.07a1.91,1.91,0,0,1,.21-.61,1.28,1.28,0,0,1,.39-.44,1.77,1.77,0,0,1,.53-.27,2.25,2.25,0,0,1,.64-.09,2.09,2.09,0,0,1,.67.1,1.53,1.53,0,0,1,.55.29,1.47,1.47,0,0,1,.37.48,1.39,1.39,0,0,1,.14.66,1.91,1.91,0,0,1-.09.61,1.8,1.8,0,0,1-.25.5,2.86,2.86,0,0,1-.35.43l-.41.41-1.75,1.64h2.89v.63h-3.65Z"/><path d="M266.35,250.42l-2.26,5h-.76l2.3-5H262.9v-.63h3.45Z"/><path d="M267.26,252.62a7.07,7.07,0,0,1,.08-1,3.45,3.45,0,0,1,.3-.94,2,2,0,0,1,.59-.71,1.82,1.82,0,0,1,1.91,0,2,2,0,0,1,.59.71,3.45,3.45,0,0,1,.3.94,7,7,0,0,1,.07,1,6.92,6.92,0,0,1-.07,1,3.41,3.41,0,0,1-.3.95,2,2,0,0,1-.59.71,1.82,1.82,0,0,1-1.91,0,2,2,0,0,1-.59-.71,3.41,3.41,0,0,1-.3-.95A7,7,0,0,1,267.26,252.62Zm.68,0c0,.14,0,.3,0,.47a4.43,4.43,0,0,0,.06.51,2.72,2.72,0,0,0,.13.51,1.53,1.53,0,0,0,.23.44,1,1,0,0,0,.34.31.89.89,0,0,0,.47.12,1,1,0,0,0,.49-.12,1.08,1.08,0,0,0,.33-.31,1.53,1.53,0,0,0,.23-.44,2.72,2.72,0,0,0,.13-.51,4.43,4.43,0,0,0,.06-.51c0-.17,0-.33,0-.47s0-.29,0-.46a4.88,4.88,0,0,0-.06-.52,2.83,2.83,0,0,0-.13-.5,1.41,1.41,0,0,0-.23-.44,1.08,1.08,0,0,0-.33-.31,1,1,0,0,0-.49-.12.89.89,0,0,0-.47.12,1,1,0,0,0-.34.31,1.41,1.41,0,0,0-.23.44,2.83,2.83,0,0,0-.13.5,4.88,4.88,0,0,0-.06.52C267.94,252.33,267.94,252.49,267.94,252.62Z"/><path d="M52.87,251a1.55,1.55,0,0,0-.63-.51,1.82,1.82,0,0,0-.79-.18,2,2,0,0,0-.87.2,2.13,2.13,0,0,0-.68.51,2.58,2.58,0,0,0-.45.75,2.67,2.67,0,0,0,0,1.82,2.29,2.29,0,0,0,.45.74,1.88,1.88,0,0,0,.68.5,1.92,1.92,0,0,0,.87.19,2,2,0,0,0,.93-.21,2.07,2.07,0,0,0,.71-.58l.51.42a2.38,2.38,0,0,1-.93.75,3,3,0,0,1-1.22.24,2.85,2.85,0,0,1-1.13-.22,2.82,2.82,0,0,1-.92-.62,3,3,0,0,1-.61-.94,3.27,3.27,0,0,1-.22-1.19,3.2,3.2,0,0,1,.21-1.17,3,3,0,0,1,.6-.95,3.08,3.08,0,0,1,.91-.63,3,3,0,0,1,2.27,0,2,2,0,0,1,.89.68Z"/><path d="M54.13,252.62a7,7,0,0,1,.08-1,3.11,3.11,0,0,1,.3-1,1.94,1.94,0,0,1,.59-.71,1.55,1.55,0,0,1,.95-.27,1.6,1.6,0,0,1,1,.27,2,2,0,0,1,.59.71,3.1,3.1,0,0,1,.29,1,5.77,5.77,0,0,1,.08,1,5.85,5.85,0,0,1-.08,1,3.13,3.13,0,0,1-.29.94,2,2,0,0,1-.59.71,1.6,1.6,0,0,1-1,.27,1.55,1.55,0,0,1-.95-.27,1.94,1.94,0,0,1-.59-.71,3.14,3.14,0,0,1-.3-.94A7.07,7.07,0,0,1,54.13,252.62Zm.67,0c0,.13,0,.29,0,.46a4.88,4.88,0,0,0,.06.52,2.83,2.83,0,0,0,.13.5,1.4,1.4,0,0,0,.22.44,1.1,1.1,0,0,0,.34.31,1,1,0,0,0,.48.12.9.9,0,0,0,.48-.12.92.92,0,0,0,.34-.31,1.41,1.41,0,0,0,.23-.44,2.8,2.8,0,0,0,.12-.5,4.88,4.88,0,0,0,.06-.52,3.86,3.86,0,0,0,0-.46,3.94,3.94,0,0,0,0-.47,4.43,4.43,0,0,0-.06-.51,2.71,2.71,0,0,0-.12-.51,1.53,1.53,0,0,0-.23-.44,1,1,0,0,0-.34-.31.9.9,0,0,0-.48-.12,1,1,0,0,0-.48.12,1.24,1.24,0,0,0-.34.31,1.51,1.51,0,0,0-.22.44,2.72,2.72,0,0,0-.13.51,4.43,4.43,0,0,0-.06.51C54.81,252.32,54.8,252.48,54.8,252.62Z"/><path d="M61,255.79l-.51-.2,2.41-6.14.51.19Z"/><path d="M70.36,251a1.52,1.52,0,0,0-.64-.51,1.78,1.78,0,0,0-.78-.18,2,2,0,0,0-.87.2,2.13,2.13,0,0,0-.68.51,2.58,2.58,0,0,0-.45.75,2.51,2.51,0,0,0-.16.9,2.54,2.54,0,0,0,.16.92,2.46,2.46,0,0,0,.44.74,2.09,2.09,0,0,0,1.56.69,2,2,0,0,0,.93-.21,2.07,2.07,0,0,0,.71-.58l.5.42a2.29,2.29,0,0,1-.92.75,3,3,0,0,1-1.22.24,2.93,2.93,0,0,1-1.14-.22,2.88,2.88,0,0,1-.91-.62,3,3,0,0,1-.61-.94,3.07,3.07,0,0,1-.22-1.19,3.2,3.2,0,0,1,.21-1.17,2.84,2.84,0,0,1,.6-.95,3,3,0,0,1,.91-.63,2.93,2.93,0,0,1,1.16-.23,3,3,0,0,1,1.11.21,2,2,0,0,1,.89.68Z"/><path d="M74.2,255.45h-.68v-4.8h0l-1,.85-.4-.48,1.52-1.24h.59Z"/><path d="M76.37,251.17a1.33,1.33,0,0,1,.13-.61,1.2,1.2,0,0,1,.34-.46,1.44,1.44,0,0,1,.51-.3,1.92,1.92,0,0,1,1.28,0,1.44,1.44,0,0,1,.51.3,1.32,1.32,0,0,1,.34.46,1.48,1.48,0,0,1,.12.61,1.44,1.44,0,0,1-.06.4,1.41,1.41,0,0,1-.18.37,1.18,1.18,0,0,1-.3.29,1,1,0,0,1-.38.19h0a1.44,1.44,0,0,1,.46.19,1.35,1.35,0,0,1,.35.32,1.67,1.67,0,0,1,.23.44,1.7,1.7,0,0,1,.08.51,1.74,1.74,0,0,1-.14.69,1.46,1.46,0,0,1-.39.52,1.47,1.47,0,0,1-.57.33,2.35,2.35,0,0,1-1.42,0,1.59,1.59,0,0,1-.58-.33,1.43,1.43,0,0,1-.38-.52,1.74,1.74,0,0,1-.14-.69,1.7,1.7,0,0,1,.08-.51,1.65,1.65,0,0,1,.22-.44,1.59,1.59,0,0,1,.36-.32,1.44,1.44,0,0,1,.46-.19h0a1.18,1.18,0,0,1-.39-.19,1.33,1.33,0,0,1-.29-.29,1.41,1.41,0,0,1-.18-.37A1.16,1.16,0,0,1,76.37,251.17Zm.48,2.67a1.14,1.14,0,0,0,.09.46,1.21,1.21,0,0,0,.24.35,1.16,1.16,0,0,0,.36.23A1.13,1.13,0,0,0,78,255a1,1,0,0,0,.44-.09,1,1,0,0,0,.36-.23,1.07,1.07,0,0,0,.25-.35,1.36,1.36,0,0,0,0-.92,1.07,1.07,0,0,0-.25-.35,1,1,0,0,0-.36-.23,1,1,0,0,0-.44-.09,1.13,1.13,0,0,0-.45.09,1.16,1.16,0,0,0-.36.23,1.21,1.21,0,0,0-.24.35A1.14,1.14,0,0,0,76.85,253.84ZM77,251.2a.92.92,0,0,0,.26.67.93.93,0,0,0,.69.27.9.9,0,0,0,.68-.27,1,1,0,0,0,0-1.34.9.9,0,0,0-.68-.27.93.93,0,0,0-.69.27A.92.92,0,0,0,77,251.2Z"/><path d="M80.52,252.62a5.77,5.77,0,0,1,.08-1,3.1,3.1,0,0,1,.29-1,2,2,0,0,1,.59-.71,1.6,1.6,0,0,1,1-.27,1.55,1.55,0,0,1,1,.27,1.94,1.94,0,0,1,.59.71,3.41,3.41,0,0,1,.3,1,7,7,0,0,1,.08,1,7.07,7.07,0,0,1-.08,1,3.45,3.45,0,0,1-.3.94,1.94,1.94,0,0,1-.59.71,1.55,1.55,0,0,1-1,.27,1.6,1.6,0,0,1-1-.27,2,2,0,0,1-.59-.71,3.13,3.13,0,0,1-.29-.94A5.85,5.85,0,0,1,80.52,252.62Zm.67,0a3.86,3.86,0,0,0,0,.46c0,.17,0,.34.05.52a4.07,4.07,0,0,0,.13.5,1.41,1.41,0,0,0,.23.44.92.92,0,0,0,.34.31.9.9,0,0,0,.48.12,1,1,0,0,0,.48-.12,1.1,1.1,0,0,0,.34-.31,1.65,1.65,0,0,0,.22-.44,2.83,2.83,0,0,0,.13-.5,4.88,4.88,0,0,0,.06-.52c0-.17,0-.33,0-.46s0-.3,0-.47a4.43,4.43,0,0,0-.06-.51,2.72,2.72,0,0,0-.13-.51,1.81,1.81,0,0,0-.22-.44,1.24,1.24,0,0,0-.34-.31,1,1,0,0,0-.48-.12.9.9,0,0,0-.48.12,1,1,0,0,0-.34.31,1.53,1.53,0,0,0-.23.44,3.8,3.8,0,0,0-.13.51c0,.17,0,.34-.05.51A3.94,3.94,0,0,0,81.19,252.62Z"/><line class="cls-2" x1="214.49" y1="253.42" x2="215.03" y2="253.42"/><line class="cls-2" x1="217.76" y1="253.42" x2="218.3" y2="253.42"/><line class="cls-2" x1="221.02" y1="253.42" x2="221.56" y2="253.42"/><line class="cls-2" x1="224.29" y1="253.42" x2="224.83" y2="253.42"/><line class="cls-2" x1="227.55" y1="253.42" x2="228.09" y2="253.42"/></g><g id="GLO_BALL"><g id="Glo-Ball-C2_F3028000"><path d="M54.79,11.41h4.39v.78H55.63v2.34h3.3v.78h-3.3v3.18h-.84Z"/><path d="M61.51,14.41h.26a3.44,3.44,0,0,0,.54,0,1.45,1.45,0,0,0,.52-.17,1.06,1.06,0,0,0,.39-.37,1.16,1.16,0,0,0,.16-.65,1.09,1.09,0,0,0-.34-.85,1.21,1.21,0,0,0-.87-.32,1.51,1.51,0,0,0-.78.2,1.37,1.37,0,0,0-.52.59l-.81-.31a1.78,1.78,0,0,1,.81-.9,2.58,2.58,0,0,1,1.24-.3,2.63,2.63,0,0,1,.8.12,2.08,2.08,0,0,1,.68.35,1.65,1.65,0,0,1,.46.58,1.81,1.81,0,0,1,.17.8,1.62,1.62,0,0,1-.34,1,1.69,1.69,0,0,1-.87.61v0a1.59,1.59,0,0,1,.6.22,1.77,1.77,0,0,1,.46.4,1.6,1.6,0,0,1,.29.53,1.89,1.89,0,0,1,.1.63,1.91,1.91,0,0,1-.19.89,2,2,0,0,1-.51.64,2.23,2.23,0,0,1-.75.39,2.9,2.9,0,0,1-.89.13,2.78,2.78,0,0,1-1.41-.35,2,2,0,0,1-.87-1.14l.85-.28a1.3,1.3,0,0,0,1.43,1.05,1.47,1.47,0,0,0,.56-.1,1.48,1.48,0,0,0,.45-.28,1.35,1.35,0,0,0,.31-.44,1.32,1.32,0,0,0,.12-.57,1.18,1.18,0,0,0-.16-.65,1.1,1.1,0,0,0-.41-.42,1.8,1.8,0,0,0-.57-.23,2.81,2.81,0,0,0-.65-.07h-.26Z"/><path d="M65.41,15a7.79,7.79,0,0,1,.1-1.25,4,4,0,0,1,.37-1.18,2.41,2.41,0,0,1,.73-.88,2,2,0,0,1,1.2-.35,1.93,1.93,0,0,1,1.19.35,2.44,2.44,0,0,1,.74.88,4,4,0,0,1,.37,1.18,7.86,7.86,0,0,1,0,2.5,4.14,4.14,0,0,1-.37,1.19,2.53,2.53,0,0,1-.74.88,1.93,1.93,0,0,1-1.19.34,2,2,0,0,1-1.2-.34,2.5,2.5,0,0,1-.73-.88,4.14,4.14,0,0,1-.37-1.19A7.79,7.79,0,0,1,65.41,15Zm.84,0c0,.17,0,.37,0,.58s0,.43.07.65a4.85,4.85,0,0,0,.16.63,2.19,2.19,0,0,0,.28.55,1.45,1.45,0,0,0,.43.39,1.36,1.36,0,0,0,1.2,0,1.31,1.31,0,0,0,.42-.39,1.9,1.9,0,0,0,.28-.55,3.64,3.64,0,0,0,.16-.63,5,5,0,0,0,.08-.65c0-.21,0-.41,0-.58s0-.37,0-.58a4.66,4.66,0,0,0-.08-.64,3.53,3.53,0,0,0-.16-.64,1.9,1.9,0,0,0-.28-.55,1.18,1.18,0,0,0-.42-.38,1.28,1.28,0,0,0-1.2,0,1.3,1.3,0,0,0-.43.38,2.19,2.19,0,0,0-.28.55,4.61,4.61,0,0,0-.16.64c0,.21-.06.43-.07.64S66.25,14.78,66.25,15Z"/><path d="M71.09,17.53l2.67-2.6c.17-.16.31-.31.44-.44a2.55,2.55,0,0,0,.31-.4,1.38,1.38,0,0,0,.19-.41,1.73,1.73,0,0,0,.06-.47,1.15,1.15,0,0,0-.1-.5,1,1,0,0,0-.28-.37A1,1,0,0,0,74,12.1a1.35,1.35,0,0,0-.5-.09,1.27,1.27,0,0,0-.89.31,1.47,1.47,0,0,0-.45.82l-.91-.08a2.2,2.2,0,0,1,.26-.76,1.9,1.9,0,0,1,.49-.56,2,2,0,0,1,.67-.33,2.58,2.58,0,0,1,.8-.12,2.53,2.53,0,0,1,.83.13,1.93,1.93,0,0,1,.68.36,1.63,1.63,0,0,1,.47.6,1.84,1.84,0,0,1,.18.83,2.29,2.29,0,0,1-.12.76,2.31,2.31,0,0,1-.31.63,3.71,3.71,0,0,1-.44.54c-.16.17-.33.33-.51.5L72,17.69v0h3.61v.78H71.09Z"/><path d="M76.91,13.14a1.87,1.87,0,0,1,.15-.76,1.79,1.79,0,0,1,.43-.58,1.92,1.92,0,0,1,.64-.37,2.36,2.36,0,0,1,1.6,0,1.92,1.92,0,0,1,.64.37,1.63,1.63,0,0,1,.42.58,1.76,1.76,0,0,1,.08,1.26,1.53,1.53,0,0,1-.23.46,1.62,1.62,0,0,1-.37.37,1.34,1.34,0,0,1-.48.23v0a1.87,1.87,0,0,1,.58.24,1.68,1.68,0,0,1,.44.4,2,2,0,0,1,.38,1.18,2.05,2.05,0,0,1-.18.87,1.81,1.81,0,0,1-.48.65,2,2,0,0,1-.72.41,2.8,2.8,0,0,1-.88.14,2.91,2.91,0,0,1-.89-.14,2.14,2.14,0,0,1-.72-.41,2.07,2.07,0,0,1-.48-.65,2.21,2.21,0,0,1-.17-.87,2,2,0,0,1,.38-1.18,1.68,1.68,0,0,1,.44-.4,1.87,1.87,0,0,1,.58-.24v0a1.47,1.47,0,0,1-.49-.23,1.8,1.8,0,0,1-.36-.37,1.53,1.53,0,0,1-.23-.46A1.74,1.74,0,0,1,76.91,13.14Zm.6,3.34a1.48,1.48,0,0,0,.11.57,1.37,1.37,0,0,0,.3.45,1.51,1.51,0,0,0,.45.29,1.47,1.47,0,0,0,.56.1,1.42,1.42,0,0,0,.55-.1,1.51,1.51,0,0,0,.45-.29,1.39,1.39,0,0,0,.31-.45,1.53,1.53,0,0,0,0-1.14,1.25,1.25,0,0,0-.31-.44,1.34,1.34,0,0,0-.45-.29,1.42,1.42,0,0,0-.55-.11,1.47,1.47,0,0,0-.56.11,1.34,1.34,0,0,0-.45.29,1.23,1.23,0,0,0-.3.44A1.48,1.48,0,0,0,77.51,16.48Zm.24-3.3a1.12,1.12,0,0,0,1.18,1.17,1.17,1.17,0,1,0,0-2.34,1.12,1.12,0,0,0-1.18,1.17Z"/><path d="M82.09,15a7.79,7.79,0,0,1,.1-1.25,4,4,0,0,1,.37-1.18,2.41,2.41,0,0,1,.73-.88,2,2,0,0,1,1.2-.35,1.93,1.93,0,0,1,1.19.35,2.44,2.44,0,0,1,.74.88,4,4,0,0,1,.37,1.18,7.86,7.86,0,0,1,0,2.5,4.14,4.14,0,0,1-.37,1.19,2.53,2.53,0,0,1-.74.88,1.93,1.93,0,0,1-1.19.34,2,2,0,0,1-1.2-.34,2.5,2.5,0,0,1-.73-.88,4.14,4.14,0,0,1-.37-1.19A7.79,7.79,0,0,1,82.09,15Zm.84,0c0,.17,0,.37,0,.58s0,.43.07.65a4.85,4.85,0,0,0,.16.63,2.19,2.19,0,0,0,.28.55,1.45,1.45,0,0,0,.43.39,1.36,1.36,0,0,0,1.2,0,1.31,1.31,0,0,0,.42-.39,1.9,1.9,0,0,0,.28-.55,3.64,3.64,0,0,0,.16-.63,5,5,0,0,0,.08-.65c0-.21,0-.41,0-.58s0-.37,0-.58a4.66,4.66,0,0,0-.08-.64,3.53,3.53,0,0,0-.16-.64,1.9,1.9,0,0,0-.28-.55,1.18,1.18,0,0,0-.42-.38,1.27,1.27,0,0,0-1.2,0,1.3,1.3,0,0,0-.43.38,2.19,2.19,0,0,0-.28.55,4.61,4.61,0,0,0-.16.64c0,.21-.06.43-.07.64S82.93,14.78,82.93,15Z"/><path d="M87.65,15a7.79,7.79,0,0,1,.1-1.25,4,4,0,0,1,.37-1.18,2.41,2.41,0,0,1,.73-.88,2,2,0,0,1,1.2-.35,1.93,1.93,0,0,1,1.19.35,2.44,2.44,0,0,1,.74.88,4,4,0,0,1,.37,1.18,7.86,7.86,0,0,1,0,2.5A4.14,4.14,0,0,1,92,17.39a2.53,2.53,0,0,1-.74.88,1.93,1.93,0,0,1-1.19.34,2,2,0,0,1-1.2-.34,2.5,2.5,0,0,1-.73-.88,4.14,4.14,0,0,1-.37-1.19A7.79,7.79,0,0,1,87.65,15Zm.84,0c0,.17,0,.37,0,.58s0,.43.07.65a4.85,4.85,0,0,0,.16.63,2.19,2.19,0,0,0,.28.55,1.45,1.45,0,0,0,.43.39,1.36,1.36,0,0,0,1.2,0,1.31,1.31,0,0,0,.42-.39,1.9,1.9,0,0,0,.28-.55,3.64,3.64,0,0,0,.16-.63,5,5,0,0,0,.08-.65c0-.21,0-.41,0-.58s0-.37,0-.58a4.66,4.66,0,0,0-.08-.64,3.53,3.53,0,0,0-.16-.64,1.9,1.9,0,0,0-.28-.55,1.18,1.18,0,0,0-.42-.38,1.27,1.27,0,0,0-1.2,0,1.3,1.3,0,0,0-.43.38,2.19,2.19,0,0,0-.28.55,4.61,4.61,0,0,0-.16.64c0,.21-.06.43-.07.64S88.49,14.78,88.49,15Z"/><path d="M93.21,15a7.79,7.79,0,0,1,.1-1.25,4,4,0,0,1,.37-1.18,2.41,2.41,0,0,1,.73-.88,2,2,0,0,1,1.2-.35,1.93,1.93,0,0,1,1.19.35,2.44,2.44,0,0,1,.74.88,4,4,0,0,1,.37,1.18,7.86,7.86,0,0,1,0,2.5,4.14,4.14,0,0,1-.37,1.19,2.53,2.53,0,0,1-.74.88,1.93,1.93,0,0,1-1.19.34,2,2,0,0,1-1.2-.34,2.5,2.5,0,0,1-.73-.88,4.14,4.14,0,0,1-.37-1.19A7.79,7.79,0,0,1,93.21,15Zm.84,0c0,.17,0,.37,0,.58s0,.43.07.65a4.85,4.85,0,0,0,.16.63,2.19,2.19,0,0,0,.28.55,1.45,1.45,0,0,0,.43.39,1.36,1.36,0,0,0,1.2,0,1.31,1.31,0,0,0,.42-.39,1.9,1.9,0,0,0,.28-.55,3.64,3.64,0,0,0,.16-.63,5,5,0,0,0,.08-.65c0-.21,0-.41,0-.58s0-.37,0-.58a4.66,4.66,0,0,0-.08-.64,3.53,3.53,0,0,0-.16-.64,1.9,1.9,0,0,0-.28-.55,1.18,1.18,0,0,0-.42-.38,1.27,1.27,0,0,0-1.2,0,1.3,1.3,0,0,0-.43.38,2.19,2.19,0,0,0-.28.55,4.61,4.61,0,0,0-.16.64c0,.21-.06.43-.07.64S94.05,14.78,94.05,15Z"/><path d="M98.39,19.24h5v.5h-5Z"/><path d="M103.89,17.53l2.67-2.6c.17-.16.31-.31.44-.44a2.55,2.55,0,0,0,.31-.4,1.38,1.38,0,0,0,.19-.41,1.73,1.73,0,0,0,.06-.47,1.15,1.15,0,0,0-.1-.5,1,1,0,0,0-.28-.37,1,1,0,0,0-.41-.24,1.35,1.35,0,0,0-.5-.09,1.27,1.27,0,0,0-.89.31,1.47,1.47,0,0,0-.45.82l-.91-.08a2.2,2.2,0,0,1,.26-.76,1.9,1.9,0,0,1,.49-.56,2,2,0,0,1,.67-.33,2.58,2.58,0,0,1,.8-.12,2.53,2.53,0,0,1,.83.13,1.93,1.93,0,0,1,.68.36,1.63,1.63,0,0,1,.47.6,1.84,1.84,0,0,1,.18.83,2.29,2.29,0,0,1-.12.76,2.31,2.31,0,0,1-.31.63,3.71,3.71,0,0,1-.44.54c-.16.17-.33.33-.51.5l-2.18,2.05v0h3.61v.78h-4.56Z"/><path d="M113.69,12.19H110.8l0,1.91a1.25,1.25,0,0,1,.44-.13,2.63,2.63,0,0,1,.47,0,2.25,2.25,0,0,1,.92.18,2,2,0,0,1,.72.49,2.15,2.15,0,0,1,.46.74,2.51,2.51,0,0,1,.16.92,2.37,2.37,0,0,1-.19,1,2.13,2.13,0,0,1-.51.74,2.21,2.21,0,0,1-.77.47,2.69,2.69,0,0,1-1,.17,2.26,2.26,0,0,1-1.31-.35,2.41,2.41,0,0,1-.78-.94l.84-.32a1.58,1.58,0,0,0,.52.65,1.37,1.37,0,0,0,.8.24,1.63,1.63,0,0,0,.59-.11,1.37,1.37,0,0,0,.48-.33,1.65,1.65,0,0,0,.33-.52,1.78,1.78,0,0,0,.12-.67,1.67,1.67,0,0,0-.14-.69,1.34,1.34,0,0,0-.37-.5,1.49,1.49,0,0,0-.55-.31,2.19,2.19,0,0,0-1.43,0,3.17,3.17,0,0,0-.7.31l.07-3.68h3.71Z"/><path d="M114.89,15a7.79,7.79,0,0,1,.1-1.25,4,4,0,0,1,.37-1.18,2.41,2.41,0,0,1,.73-.88,2,2,0,0,1,1.2-.35,1.93,1.93,0,0,1,1.19.35,2.44,2.44,0,0,1,.74.88,4,4,0,0,1,.37,1.18,7.86,7.86,0,0,1,0,2.5,4.14,4.14,0,0,1-.37,1.19,2.53,2.53,0,0,1-.74.88,1.93,1.93,0,0,1-1.19.34,2,2,0,0,1-1.2-.34,2.5,2.5,0,0,1-.73-.88A4.14,4.14,0,0,1,115,16.2,7.79,7.79,0,0,1,114.89,15Zm.84,0c0,.17,0,.37,0,.58s0,.43.07.65a4.85,4.85,0,0,0,.16.63,2.19,2.19,0,0,0,.28.55,1.45,1.45,0,0,0,.43.39,1.36,1.36,0,0,0,1.2,0,1.31,1.31,0,0,0,.42-.39,1.9,1.9,0,0,0,.28-.55,3.64,3.64,0,0,0,.16-.63,5,5,0,0,0,.08-.65c0-.21,0-.41,0-.58s0-.37,0-.58a4.66,4.66,0,0,0-.08-.64,3.53,3.53,0,0,0-.16-.64,1.9,1.9,0,0,0-.28-.55,1.18,1.18,0,0,0-.42-.38,1.28,1.28,0,0,0-1.2,0,1.3,1.3,0,0,0-.43.38,2.19,2.19,0,0,0-.28.55,4.61,4.61,0,0,0-.16.64c0,.21-.06.43-.07.64S115.73,14.78,115.73,15Z"/><path d="M120.13,11.41h.93l1.61,5.88h0l1.74-5.88h.94l1.73,5.88h0l1.64-5.88h.88l-2.08,7.08h-.91l-1.75-6h0l-1.76,6h-.92Z"/><path d="M133.29,11.41h.84v3h3.78v-3h.84v7.08h-.84v-3.3h-3.78v3.3h-.84Z"/><path d="M140.58,11.41h.84v6.3h3.24v.78h-4.08Z"/><rect class="cls-3" x="54.91" y="42.53" width="189.86" height="189.86"/><circle class="cls-4" cx="149.84" cy="137.41" r="21.06"/><path d="M151.89,164.75l2.14-2.08.35-.36a2.27,2.27,0,0,0,.25-.31,1.21,1.21,0,0,0,.15-.33,1.46,1.46,0,0,0,.05-.38,1.06,1.06,0,0,0-.08-.4,1.29,1.29,0,0,0-.22-.3,1.13,1.13,0,0,0-.74-.26,1.06,1.06,0,0,0-.71.25,1.13,1.13,0,0,0-.36.66l-.73-.07a1.78,1.78,0,0,1,.22-.61,1.38,1.38,0,0,1,.39-.44,1.56,1.56,0,0,1,.53-.27,2.2,2.2,0,0,1,.64-.09,2,2,0,0,1,.66.1,1.7,1.7,0,0,1,.55.29,1.5,1.5,0,0,1,.38.48,1.53,1.53,0,0,1,.14.66,1.91,1.91,0,0,1-.09.61,2.59,2.59,0,0,1-.25.5,3.65,3.65,0,0,1-.35.43c-.14.14-.27.28-.42.41l-1.74,1.64h2.89v.63h-3.65Z"/><path d="M156.19,162.69a7,7,0,0,1,.08-1,3.41,3.41,0,0,1,.3-.95,1.83,1.83,0,0,1,.59-.7,1.51,1.51,0,0,1,1-.28,1.54,1.54,0,0,1,1,.28,1.92,1.92,0,0,1,.59.7,3.1,3.1,0,0,1,.29.95,5.77,5.77,0,0,1,.08,1,5.85,5.85,0,0,1-.08,1,3.13,3.13,0,0,1-.29.94,2,2,0,0,1-.59.71,1.61,1.61,0,0,1-1,.28,1.57,1.57,0,0,1-1-.28,1.86,1.86,0,0,1-.59-.71,3.45,3.45,0,0,1-.3-.94A7.07,7.07,0,0,1,156.19,162.69Zm.68,0c0,.14,0,.29,0,.46a4.88,4.88,0,0,0,.06.52,2.83,2.83,0,0,0,.13.5,1.88,1.88,0,0,0,.22.45,1.21,1.21,0,0,0,.34.3,1,1,0,0,0,.48.12.9.9,0,0,0,.48-.12,1,1,0,0,0,.34-.3,1.59,1.59,0,0,0,.23-.45,4.07,4.07,0,0,0,.13-.5l.06-.52c0-.17,0-.32,0-.46s0-.3,0-.47l-.06-.51a3.8,3.8,0,0,0-.13-.51,1.53,1.53,0,0,0-.23-.44,1,1,0,0,0-.34-.31.9.9,0,0,0-.48-.12,1,1,0,0,0-.48.12,1.24,1.24,0,0,0-.34.31,1.81,1.81,0,0,0-.22.44,2.72,2.72,0,0,0-.13.51,4.43,4.43,0,0,0-.06.51C156.87,162.39,156.87,162.55,156.87,162.69Z"/><circle class="cls-4" cx="149.84" cy="137.41" r="42.17" transform="matrix(0.99, -0.16, 0.16, 0.99, -20.08, 25.78)"/><path d="M154.84,184.71h.82v.63h-.82v1.29h-.67v-1.29h-2.4v-.75L154,181h.82Zm-.67-3h0l-1.8,3h1.82Z"/><path d="M156.19,183.8a7.07,7.07,0,0,1,.08-1,3.52,3.52,0,0,1,.3-1,1.91,1.91,0,0,1,.59-.7,1.51,1.51,0,0,1,1-.28,1.54,1.54,0,0,1,1,.28,2,2,0,0,1,.59.7,3.19,3.19,0,0,1,.29,1,6.29,6.29,0,0,1,0,2,3.19,3.19,0,0,1-.29.95,2,2,0,0,1-.59.7,1.54,1.54,0,0,1-1,.28,1.51,1.51,0,0,1-1-.28,1.91,1.91,0,0,1-.59-.7,3.52,3.52,0,0,1-.3-.95A7.07,7.07,0,0,1,156.19,183.8Zm.68,0c0,.14,0,.29,0,.46a4.35,4.35,0,0,0,.06.52,3.18,3.18,0,0,0,.13.51,2,2,0,0,0,.22.44,1.24,1.24,0,0,0,.34.31,1.06,1.06,0,0,0,.48.11,1,1,0,0,0,.48-.11,1,1,0,0,0,.34-.31,1.67,1.67,0,0,0,.23-.44,4.77,4.77,0,0,0,.13-.51l.06-.52c0-.17,0-.32,0-.46s0-.29,0-.46l-.06-.52a4.77,4.77,0,0,0-.13-.51,1.67,1.67,0,0,0-.23-.44,1,1,0,0,0-.34-.3.9.9,0,0,0-.48-.12,1,1,0,0,0-.48.12,1.21,1.21,0,0,0-.34.3,2,2,0,0,0-.22.44,3.18,3.18,0,0,0-.13.51,4.6,4.6,0,0,0-.06.52C156.87,183.51,156.87,183.66,156.87,183.8Z"/><circle class="cls-4" cx="149.84" cy="137.41" r="63.23"/><path d="M153.12,204.39h0a1.24,1.24,0,0,1,.37-.12,1.84,1.84,0,0,1,.39,0,1.91,1.91,0,0,1,.68.12,1.58,1.58,0,0,1,.54.37,1.5,1.5,0,0,1,.36.56,1.88,1.88,0,0,1,.13.72,1.79,1.79,0,0,1-.15.75,1.45,1.45,0,0,1-.39.55,1.94,1.94,0,0,1-.61.35,2,2,0,0,1-.75.13,2.11,2.11,0,0,1-.75-.13,1.79,1.79,0,0,1-.6-.35,1.59,1.59,0,0,1-.4-.55,2,2,0,0,1-.14-.75,2.22,2.22,0,0,1,.15-.85,5.19,5.19,0,0,1,.38-.74l1.51-2.39h.78Zm.59.42a1.28,1.28,0,0,0-.48.09.88.88,0,0,0-.38.24,1.19,1.19,0,0,0-.27.38,1.3,1.3,0,0,0-.09.49,1.28,1.28,0,0,0,.09.5,1.31,1.31,0,0,0,.27.38,1.12,1.12,0,0,0,.38.24,1.48,1.48,0,0,0,1,0,1.28,1.28,0,0,0,.39-.24,1.21,1.21,0,0,0,.36-.88,1.13,1.13,0,0,0-.1-.49,1,1,0,0,0-.26-.38,1,1,0,0,0-.39-.24A1.28,1.28,0,0,0,153.71,204.81Z"/><path d="M156.19,204.86a7.07,7.07,0,0,1,.08-1,3.52,3.52,0,0,1,.3-1,1.91,1.91,0,0,1,.59-.7,1.51,1.51,0,0,1,1-.28,1.54,1.54,0,0,1,1,.28,2,2,0,0,1,.59.7,3.19,3.19,0,0,1,.29,1,6.29,6.29,0,0,1,0,2,3.19,3.19,0,0,1-.29.95,2,2,0,0,1-.59.7,1.54,1.54,0,0,1-1,.28,1.51,1.51,0,0,1-1-.28,1.91,1.91,0,0,1-.59-.7,3.52,3.52,0,0,1-.3-.95A7.07,7.07,0,0,1,156.19,204.86Zm.68,0c0,.14,0,.29,0,.46a4.35,4.35,0,0,0,.06.52,3.18,3.18,0,0,0,.13.51,2,2,0,0,0,.22.44,1.24,1.24,0,0,0,.34.31,1.06,1.06,0,0,0,.48.11,1,1,0,0,0,.48-.11,1,1,0,0,0,.34-.31,1.67,1.67,0,0,0,.23-.44,4.77,4.77,0,0,0,.13-.51l.06-.52c0-.17,0-.32,0-.46s0-.29,0-.46l-.06-.52a4.77,4.77,0,0,0-.13-.51,1.67,1.67,0,0,0-.23-.44,1,1,0,0,0-.34-.31,1,1,0,0,0-.48-.11,1.06,1.06,0,0,0-.48.11,1.24,1.24,0,0,0-.34.31,2,2,0,0,0-.22.44,3.18,3.18,0,0,0-.13.51,4.6,4.6,0,0,0-.06.52C156.87,204.57,156.87,204.72,156.87,204.86Z"/><circle class="cls-4" cx="149.84" cy="137.41" r="84.35"/><path d="M152.1,224.53a1.48,1.48,0,0,1,.12-.61,1.32,1.32,0,0,1,.34-.46,1.88,1.88,0,0,1,.51-.31,1.91,1.91,0,0,1,.64-.1,1.87,1.87,0,0,1,.64.1,1.79,1.79,0,0,1,.52.31,1.45,1.45,0,0,1,.34.46,1.48,1.48,0,0,1,.12.61,1.44,1.44,0,0,1-.06.4,1.55,1.55,0,0,1-.19.36,1.18,1.18,0,0,1-.29.3,1,1,0,0,1-.39.18v0a1.5,1.5,0,0,1,.47.19,1.52,1.52,0,0,1,.35.32,1.65,1.65,0,0,1,.22.44,1.7,1.7,0,0,1,.08.51,1.74,1.74,0,0,1-.14.69,1.52,1.52,0,0,1-.38.52,1.59,1.59,0,0,1-.58.33,2.07,2.07,0,0,1-.71.11,2.11,2.11,0,0,1-.71-.11,1.47,1.47,0,0,1-.57-.33,1.69,1.69,0,0,1-.39-.52,1.73,1.73,0,0,1-.13-.69,1.44,1.44,0,0,1,.08-.51,1.4,1.4,0,0,1,.22-.44,1.34,1.34,0,0,1,.35-.32,1.41,1.41,0,0,1,.47-.19v0a.88.88,0,0,1-.39-.18.92.92,0,0,1-.29-.3,1.24,1.24,0,0,1-.19-.36A1.44,1.44,0,0,1,152.1,224.53Zm.48,2.67a1.1,1.1,0,0,0,.09.45,1,1,0,0,0,.24.36,1,1,0,0,0,.36.23,1.08,1.08,0,0,0,.44.09,1.13,1.13,0,0,0,.45-.09,1.16,1.16,0,0,0,.36-.23,1.13,1.13,0,0,0,.24-.36,1.1,1.1,0,0,0,.09-.45,1.14,1.14,0,0,0-.09-.46,1.09,1.09,0,0,0-.24-.35,1.41,1.41,0,0,0-.36-.24,1.33,1.33,0,0,0-.45-.08,1.27,1.27,0,0,0-.44.08,1.13,1.13,0,0,0-.36.24,1,1,0,0,0-.24.35A1.14,1.14,0,0,0,152.58,227.2Zm.19-2.64a.94.94,0,0,0,.26.67.9.9,0,0,0,.68.27.92.92,0,0,0,.69-.27.94.94,0,0,0,.26-.67.91.91,0,0,0-.95-.94.9.9,0,0,0-.68.27A.92.92,0,0,0,152.77,224.56Z"/><path d="M156.19,226a7.07,7.07,0,0,1,.08-1,3.45,3.45,0,0,1,.3-.94,1.94,1.94,0,0,1,.59-.71,1.57,1.57,0,0,1,1-.27,1.6,1.6,0,0,1,1,.27,2,2,0,0,1,.59.71,3.13,3.13,0,0,1,.29.94,5.85,5.85,0,0,1,.08,1,5.77,5.77,0,0,1-.08,1,3.1,3.1,0,0,1-.29.95,2,2,0,0,1-.59.71,1.6,1.6,0,0,1-1,.27,1.57,1.57,0,0,1-1-.27,1.94,1.94,0,0,1-.59-.71,3.41,3.41,0,0,1-.3-.95A7,7,0,0,1,156.19,226Zm.68,0c0,.14,0,.3,0,.47a4.88,4.88,0,0,0,.06.52,2.83,2.83,0,0,0,.13.5,1.81,1.81,0,0,0,.22.44,1.24,1.24,0,0,0,.34.31,1,1,0,0,0,.48.12.9.9,0,0,0,.48-.12,1,1,0,0,0,.34-.31,1.53,1.53,0,0,0,.23-.44,4.07,4.07,0,0,0,.13-.5l.06-.52c0-.17,0-.33,0-.47s0-.29,0-.46l-.06-.51a3.8,3.8,0,0,0-.13-.51,1.41,1.41,0,0,0-.23-.44,1,1,0,0,0-.34-.31.9.9,0,0,0-.48-.12,1,1,0,0,0-.48.12,1.24,1.24,0,0,0-.34.31,1.65,1.65,0,0,0-.22.44,2.72,2.72,0,0,0-.13.51,4.43,4.43,0,0,0-.06.51C156.87,225.68,156.87,225.84,156.87,226Z"/><line class="cls-4" x1="54.91" y1="137.46" x2="244.83" y2="137.46"/><line class="cls-4" x1="149.84" y1="232.4" x2="149.84" y2="42.48"/><line class="cls-4" x1="95.08" y1="42.48" x2="204.65" y2="232.4"/><line class="cls-4" x1="95.08" y1="232.4" x2="204.65" y2="42.48"/><line class="cls-4" x1="54.91" y1="82.65" x2="244.83" y2="192.22"/><line class="cls-4" x1="54.91" y1="192.22" x2="244.83" y2="82.65"/><line class="cls-5" x1="149.84" y1="222.73" x2="152.81" y2="222.68"/><line class="cls-5" x1="152.81" y1="222.68" x2="155.78" y2="222.57"/><line class="cls-5" x1="155.78" y1="222.57" x2="158.75" y2="222.24"/><line class="cls-5" x1="158.75" y1="222.24" x2="161.72" y2="221.81"/><line class="cls-5" x1="161.72" y1="221.81" x2="164.64" y2="221.27"/><line class="cls-5" x1="164.64" y1="221.27" x2="167.5" y2="220.57"/><line class="cls-5" x1="167.5" y1="220.57" x2="170.36" y2="219.71"/><line class="cls-5" x1="170.36" y1="219.71" x2="173.17" y2="218.73"/><line class="cls-5" x1="173.17" y1="218.73" x2="175.92" y2="217.6"/><line class="cls-5" x1="175.92" y1="217.6" x2="178.57" y2="216.41"/><line class="cls-5" x1="178.57" y1="216.41" x2="181.21" y2="215.06"/><line class="cls-5" x1="181.21" y1="215.06" x2="183.75" y2="213.6"/><line class="cls-5" x1="183.75" y1="213.6" x2="186.24" y2="212.04"/><line class="cls-5" x1="186.24" y1="212.04" x2="188.61" y2="210.36"/><line class="cls-5" x1="188.61" y1="210.36" x2="190.93" y2="208.58"/><line class="cls-5" x1="190.93" y1="208.58" x2="193.15" y2="206.75"/><line class="cls-5" x1="193.15" y1="206.75" x2="195.25" y2="204.75"/><line class="cls-5" x1="195.25" y1="204.75" x2="197.31" y2="202.7"/><line class="cls-5" x1="197.31" y1="202.7" x2="199.14" y2="200.54"/><line class="cls-5" x1="199.14" y1="200.54" x2="200.98" y2="198.32"/><line class="cls-5" x1="200.98" y1="198.32" x2="202.65" y2="196.05"/><line class="cls-5" x1="202.65" y1="196.05" x2="204.27" y2="193.73"/><line class="cls-5" x1="204.27" y1="193.73" x2="205.73" y2="191.41"/><line class="cls-5" x1="205.73" y1="191.41" x2="207.13" y2="188.98"/><line class="cls-5" x1="207.13" y1="188.98" x2="208.38" y2="186.55"/><line class="cls-5" x1="208.38" y1="186.55" x2="209.56" y2="184.07"/><line class="cls-5" x1="209.56" y1="184.07" x2="210.59" y2="181.58"/><line class="cls-5" x1="210.59" y1="181.58" x2="211.56" y2="179.04"/><line class="cls-5" x1="211.56" y1="179.04" x2="212.37" y2="176.51"/><line class="cls-5" x1="212.37" y1="176.51" x2="213.13" y2="173.97"/><line class="cls-5" x1="213.13" y1="173.97" x2="213.78" y2="171.43"/><line class="cls-5" x1="213.78" y1="171.43" x2="214.32" y2="168.89"/><line class="cls-5" x1="214.32" y1="168.89" x2="214.8" y2="166.35"/><line class="cls-5" x1="214.8" y1="166.35" x2="215.13" y2="163.82"/><line class="cls-5" x1="215.13" y1="163.82" x2="215.4" y2="161.28"/><line class="cls-5" x1="215.4" y1="161.28" x2="215.61" y2="158.79"/><line class="cls-5" x1="215.61" y1="158.79" x2="215.67" y2="156.31"/><line class="cls-5" x1="215.67" y1="156.31" x2="215.72" y2="153.83"/><line class="cls-5" x1="215.72" y1="153.83" x2="215.67" y2="151.4"/><line class="cls-5" x1="215.67" y1="151.4" x2="215.61" y2="149.02"/><line class="cls-5" x1="215.61" y1="149.02" x2="215.4" y2="146.64"/><line class="cls-5" x1="215.4" y1="146.64" x2="215.18" y2="144.27"/><line class="cls-5" x1="215.18" y1="144.27" x2="214.91" y2="141.95"/><line class="cls-5" x1="214.91" y1="141.95" x2="214.69" y2="139.68"/><line class="cls-5" x1="214.69" y1="139.68" x2="214.42" y2="137.46"/><line class="cls-5" x1="214.42" y1="137.46" x2="214.1" y2="135.2"/><line class="cls-5" x1="214.1" y1="135.2" x2="213.78" y2="132.98"/><line class="cls-5" x1="213.78" y1="132.98" x2="213.4" y2="130.77"/><line class="cls-5" x1="213.4" y1="130.77" x2="212.91" y2="128.61"/><line class="cls-5" x1="212.91" y1="128.61" x2="212.37" y2="126.45"/><line class="cls-5" x1="212.37" y1="126.45" x2="211.83" y2="124.29"/><line class="cls-5" x1="211.83" y1="124.29" x2="211.24" y2="122.18"/><line class="cls-5" x1="211.24" y1="122.18" x2="210.54" y2="120.08"/><line class="cls-5" x1="210.54" y1="120.08" x2="209.78" y2="117.97"/><line class="cls-5" x1="209.78" y1="117.97" x2="208.97" y2="115.97"/><line class="cls-5" x1="208.97" y1="115.97" x2="208.05" y2="113.92"/><line class="cls-5" x1="208.05" y1="113.92" x2="207.13" y2="111.98"/><line class="cls-5" x1="207.13" y1="111.98" x2="206.11" y2="110.03"/><line class="cls-5" x1="206.11" y1="110.03" x2="205.08" y2="108.09"/><line class="cls-5" x1="205.08" y1="108.09" x2="203.95" y2="106.25"/><line class="cls-5" x1="203.95" y1="106.25" x2="202.76" y2="104.42"/><line class="cls-5" x1="202.76" y1="104.42" x2="201.46" y2="102.63"/><line class="cls-5" x1="201.46" y1="102.63" x2="200.17" y2="100.91"/><line class="cls-5" x1="200.17" y1="100.91" x2="198.82" y2="99.23"/><line class="cls-5" x1="198.82" y1="99.23" x2="197.36" y2="97.61"/><line class="cls-5" x1="197.36" y1="97.61" x2="195.9" y2="95.99"/><line class="cls-5" x1="195.9" y1="95.99" x2="194.34" y2="94.48"/><line class="cls-5" x1="194.34" y1="94.48" x2="192.77" y2="93.02"/><line class="cls-5" x1="192.77" y1="93.02" x2="191.15" y2="91.56"/><line class="cls-5" x1="191.15" y1="91.56" x2="189.48" y2="90.21"/><line class="cls-5" x1="189.48" y1="90.21" x2="187.75" y2="88.97"/><line class="cls-5" x1="187.75" y1="88.97" x2="185.97" y2="87.73"/><line class="cls-5" x1="185.97" y1="87.73" x2="184.18" y2="86.6"/><line class="cls-5" x1="184.18" y1="86.6" x2="182.4" y2="85.35"/><line class="cls-5" x1="182.4" y1="85.35" x2="180.46" y2="84.44"/><line class="cls-5" x1="180.46" y1="84.44" x2="178.35" y2="83.79"/><line class="cls-5" x1="178.35" y1="83.79" x2="176.25" y2="83.36"/><line class="cls-5" x1="176.25" y1="83.36" x2="173.92" y2="83.36"/><line class="cls-5" x1="173.92" y1="83.36" x2="171.66" y2="83.52"/><line class="cls-5" x1="171.66" y1="83.52" x2="169.12" y2="84.49"/><line class="cls-5" x1="169.12" y1="84.49" x2="166.53" y2="86.16"/><line class="cls-5" x1="166.53" y1="86.16" x2="163.88" y2="88.59"/><line class="cls-5" x1="163.88" y1="88.59" x2="161.34" y2="91.35"/><line class="cls-5" x1="161.34" y1="91.35" x2="158.75" y2="95.51"/><line class="cls-5" x1="158.75" y1="95.51" x2="156.75" y2="98.42"/><line class="cls-5" x1="156.75" y1="98.42" x2="155.02" y2="100.58"/><line class="cls-5" x1="155.02" y1="100.58" x2="153.62" y2="101.72"/><line class="cls-5" x1="153.62" y1="101.72" x2="152.27" y2="102.85"/><line class="cls-5" x1="152.27" y1="102.85" x2="151.03" y2="103.77"/><line class="cls-5" x1="151.03" y1="103.77" x2="149.84" y2="104.74"/><line class="cls-5" x1="149.84" y1="222.73" x2="146.92" y2="222.62"/><line class="cls-5" x1="146.92" y1="222.62" x2="143.95" y2="222.41"/><line class="cls-5" x1="143.95" y1="222.41" x2="140.98" y2="222.08"/><line class="cls-5" x1="140.98" y1="222.08" x2="138.07" y2="221.54"/><line class="cls-5" x1="138.07" y1="221.54" x2="135.15" y2="220.89"/><line class="cls-5" x1="135.15" y1="220.89" x2="132.34" y2="220.08"/><line class="cls-5" x1="132.34" y1="220.08" x2="129.54" y2="219.11"/><line class="cls-5" x1="129.54" y1="219.11" x2="126.78" y2="218.09"/><line class="cls-5" x1="126.78" y1="218.09" x2="124.03" y2="216.95"/><line class="cls-5" x1="124.03" y1="216.95" x2="121.38" y2="215.71"/><line class="cls-5" x1="121.38" y1="215.71" x2="118.84" y2="214.25"/><line class="cls-5" x1="118.84" y1="214.25" x2="116.36" y2="212.74"/><line class="cls-5" x1="116.36" y1="212.74" x2="113.93" y2="211.12"/><line class="cls-5" x1="113.93" y1="211.12" x2="111.61" y2="209.39"/><line class="cls-5" x1="111.61" y1="209.39" x2="109.39" y2="207.56"/><line class="cls-5" x1="109.39" y1="207.56" x2="107.29" y2="205.61"/><line class="cls-5" x1="107.29" y1="205.61" x2="105.24" y2="203.61"/><line class="cls-5" x1="105.24" y1="203.61" x2="103.29" y2="201.51"/><line class="cls-5" x1="103.29" y1="201.51" x2="101.51" y2="199.35"/><line class="cls-5" x1="101.51" y1="199.35" x2="99.78" y2="197.13"/><line class="cls-5" x1="99.78" y1="197.13" x2="98.16" y2="194.87"/><line class="cls-5" x1="98.16" y1="194.87" x2="96.65" y2="192.54"/><line class="cls-5" x1="96.65" y1="192.54" x2="95.25" y2="190.17"/><line class="cls-5" x1="95.25" y1="190.17" x2="93.95" y2="187.79"/><line class="cls-5" x1="93.95" y1="187.79" x2="92.76" y2="185.31"/><line class="cls-5" x1="92.76" y1="185.31" x2="91.68" y2="182.88"/><line class="cls-5" x1="91.68" y1="182.88" x2="90.76" y2="180.39"/><line class="cls-5" x1="90.76" y1="180.39" x2="89.85" y2="177.91"/><line class="cls-5" x1="89.85" y1="177.91" x2="89.09" y2="175.43"/><line class="cls-5" x1="89.09" y1="175.43" x2="88.44" y2="172.89"/><line class="cls-5" x1="88.44" y1="172.89" x2="87.85" y2="170.4"/><line class="cls-5" x1="87.85" y1="170.4" x2="87.36" y2="167.92"/><line class="cls-5" x1="87.36" y1="167.92" x2="86.98" y2="165.44"/><line class="cls-5" x1="86.98" y1="165.44" x2="86.71" y2="162.95"/><line class="cls-5" x1="86.71" y1="162.95" x2="86.44" y2="160.52"/><line class="cls-5" x1="86.44" y1="160.52" x2="86.28" y2="158.09"/><line class="cls-5" x1="86.28" y1="158.09" x2="86.17" y2="155.66"/><line class="cls-5" x1="86.17" y1="155.66" x2="86.17" y2="153.29"/><line class="cls-5" x1="86.17" y1="153.29" x2="86.17" y2="150.96"/><line class="cls-5" x1="86.17" y1="150.96" x2="86.28" y2="148.64"/><line class="cls-5" x1="86.28" y1="148.64" x2="86.44" y2="146.32"/><line class="cls-5" x1="86.44" y1="146.32" x2="86.71" y2="144.05"/><line class="cls-5" x1="86.71" y1="144.05" x2="86.93" y2="141.84"/><line class="cls-5" x1="86.93" y1="141.84" x2="87.2" y2="139.62"/><line class="cls-5" x1="87.2" y1="139.62" x2="87.47" y2="137.46"/><line class="cls-5" x1="87.47" y1="137.46" x2="87.74" y2="135.3"/><line class="cls-5" x1="87.74" y1="135.3" x2="88.06" y2="133.14"/><line class="cls-5" x1="88.06" y1="133.14" x2="88.39" y2="130.98"/><line class="cls-5" x1="88.39" y1="130.98" x2="88.77" y2="128.88"/><line class="cls-5" x1="88.77" y1="128.88" x2="89.2" y2="126.77"/><line class="cls-5" x1="89.2" y1="126.77" x2="89.68" y2="124.67"/><line class="cls-5" x1="89.68" y1="124.67" x2="90.28" y2="122.61"/><line class="cls-5" x1="90.28" y1="122.61" x2="90.87" y2="120.56"/><line class="cls-5" x1="90.87" y1="120.56" x2="91.52" y2="118.51"/><line class="cls-5" x1="91.52" y1="118.51" x2="92.28" y2="116.46"/><line class="cls-5" x1="92.28" y1="116.46" x2="93.03" y2="114.51"/><line class="cls-5" x1="93.03" y1="114.51" x2="93.84" y2="112.52"/><line class="cls-5" x1="93.84" y1="112.52" x2="94.76" y2="110.57"/><line class="cls-5" x1="94.76" y1="110.57" x2="95.73" y2="108.68"/><line class="cls-5" x1="95.73" y1="108.68" x2="96.76" y2="106.79"/><line class="cls-5" x1="96.76" y1="106.79" x2="97.84" y2="104.96"/><line class="cls-5" x1="97.84" y1="104.96" x2="98.97" y2="103.12"/><line class="cls-5" x1="98.97" y1="103.12" x2="100.21" y2="101.34"/><line class="cls-5" x1="100.21" y1="101.34" x2="101.51" y2="99.66"/><line class="cls-5" x1="101.51" y1="99.66" x2="102.86" y2="97.99"/><line class="cls-5" x1="102.86" y1="97.99" x2="104.26" y2="96.37"/><line class="cls-5" x1="104.26" y1="96.37" x2="105.72" y2="94.8"/><line class="cls-5" x1="105.72" y1="94.8" x2="107.23" y2="93.29"/><line class="cls-5" x1="107.23" y1="93.29" x2="108.8" y2="91.83"/><line class="cls-5" x1="108.8" y1="91.83" x2="110.42" y2="90.43"/><line class="cls-5" x1="110.42" y1="90.43" x2="112.09" y2="89.08"/><line class="cls-5" x1="112.09" y1="89.08" x2="113.82" y2="87.84"/><line class="cls-5" x1="113.82" y1="87.84" x2="115.6" y2="86.65"/><line class="cls-5" x1="115.6" y1="86.65" x2="117.33" y2="85.41"/><line class="cls-5" x1="117.33" y1="85.41" x2="119.28" y2="84.44"/><line class="cls-5" x1="119.28" y1="84.44" x2="121.33" y2="83.68"/><line class="cls-5" x1="121.33" y1="83.68" x2="123.38" y2="83.14"/><line class="cls-5" x1="123.38" y1="83.14" x2="125.65" y2="83.03"/><line class="cls-5" x1="125.65" y1="83.03" x2="127.92" y2="83.09"/><line class="cls-5" x1="127.92" y1="83.09" x2="130.4" y2="83.95"/><line class="cls-5" x1="130.4" y1="83.95" x2="132.99" y2="85.46"/><line class="cls-5" x1="132.99" y1="85.46" x2="135.64" y2="87.78"/><line class="cls-5" x1="135.64" y1="87.78" x2="138.18" y2="90.43"/><line class="cls-5" x1="138.18" y1="90.43" x2="140.77" y2="94.43"/><line class="cls-5" x1="140.77" y1="94.43" x2="142.82" y2="97.29"/><line class="cls-5" x1="142.82" y1="97.29" x2="144.55" y2="99.61"/><line class="cls-5" x1="144.55" y1="99.61" x2="146.06" y2="101.07"/><line class="cls-5" x1="146.06" y1="101.07" x2="147.46" y2="102.42"/><line class="cls-5" x1="147.46" y1="102.42" x2="148.71" y2="103.55"/><line class="cls-5" x1="148.71" y1="103.55" x2="149.84" y2="104.74"/><line class="cls-5" x1="149.84" y1="222.73" x2="150.11" y2="222.73"/><line class="cls-5" x1="151.41" y1="222.68" x2="151.68" y2="222.68"/><line class="cls-5" x1="153.03" y1="222.68" x2="153.3" y2="222.68"/><line class="cls-5" x1="154.59" y1="222.57" x2="154.86" y2="222.57"/><line class="cls-5" x1="156.16" y1="222.46" x2="156.43" y2="222.46"/><line class="cls-5" x1="157.72" y1="222.35" x2="157.94" y2="222.3"/><line class="cls-5" x1="159.24" y1="222.19" x2="159.45" y2="222.14"/><line class="cls-5" x1="160.69" y1="221.92" x2="160.91" y2="221.87"/><line class="cls-5" x1="162.21" y1="221.65" x2="162.42" y2="221.6"/><line class="cls-5" x1="163.66" y1="221.38" x2="163.88" y2="221.33"/><line class="cls-5" x1="165.12" y1="221" x2="165.34" y2="220.95"/><line class="cls-5" x1="166.58" y1="220.62" x2="166.8" y2="220.57"/><line class="cls-5" x1="168.04" y1="220.25" x2="168.25" y2="220.14"/><line class="cls-5" x1="169.44" y1="219.76" x2="169.66" y2="219.71"/><line class="cls-5" x1="170.85" y1="219.27" x2="171.06" y2="219.22"/><line class="cls-5" x1="172.25" y1="218.79" x2="172.47" y2="218.68"/><line class="cls-5" x1="173.65" y1="218.19" x2="173.87" y2="218.14"/><line class="cls-5" x1="175.06" y1="217.65" x2="175.27" y2="217.55"/><line class="cls-5" x1="176.46" y1="217.01" x2="176.68" y2="216.9"/><line class="cls-5" x1="177.87" y1="216.36" x2="178.08" y2="216.25"/><line class="cls-5" x1="179.22" y1="215.66" x2="179.43" y2="215.55"/><line class="cls-5" x1="180.57" y1="214.95" x2="180.78" y2="214.85"/><line class="cls-5" x1="181.86" y1="214.2" x2="182.08" y2="214.09"/><line class="cls-5" x1="183.16" y1="213.44" x2="183.37" y2="213.28"/><line class="cls-5" x1="184.45" y1="212.58" x2="184.67" y2="212.42"/><line class="cls-5" x1="185.75" y1="211.71" x2="185.97" y2="211.55"/><line class="cls-5" x1="186.99" y1="210.74" x2="187.21" y2="210.58"/><line class="cls-5" x1="188.23" y1="209.82" x2="188.29" y2="209.77"/><line class="cls-5" x1="188.29" y1="209.77" x2="188.4" y2="209.66"/><line class="cls-5" x1="189.42" y1="208.8" x2="189.64" y2="208.64"/><line class="cls-5" x1="190.66" y1="207.77" x2="190.83" y2="207.61"/><line class="cls-5" x1="191.8" y1="206.75" x2="191.96" y2="206.58"/><line class="cls-5" x1="192.93" y1="205.67" x2="193.09" y2="205.5"/><line class="cls-5" x1="194.01" y1="204.53" x2="194.17" y2="204.37"/><line class="cls-5" x1="195.04" y1="203.4" x2="195.2" y2="203.24"/><line class="cls-5" x1="196.06" y1="202.26" x2="196.23" y2="202.1"/><line class="cls-5" x1="197.04" y1="201.08" x2="197.2" y2="200.91"/><line class="cls-5" x1="198.01" y1="199.89" x2="198.17" y2="199.67"/><line class="cls-5" x1="198.93" y1="198.65" x2="199.09" y2="198.43"/><line class="cls-5" x1="199.84" y1="197.4" x2="200.01" y2="197.19"/><line class="cls-5" x1="200.71" y1="196.11" x2="200.87" y2="195.95"/><line class="cls-5" x1="201.57" y1="194.87" x2="201.57" y2="194.87"/><line class="cls-5" x1="201.57" y1="194.87" x2="201.68" y2="194.65"/><line class="cls-5" x1="202.38" y1="193.57" x2="202.49" y2="193.35"/><line class="cls-5" x1="203.14" y1="192.27" x2="203.25" y2="192.06"/><line class="cls-5" x1="203.84" y1="190.92" x2="204" y2="190.71"/><line class="cls-5" x1="204.54" y1="189.57" x2="204.65" y2="189.36"/><line class="cls-5" x1="205.19" y1="188.22" x2="205.3" y2="188.01"/><line class="cls-5" x1="205.78" y1="186.87" x2="205.89" y2="186.66"/><line class="cls-5" x1="206.43" y1="185.47" x2="206.49" y2="185.25"/><line class="cls-5" x1="206.97" y1="184.07" x2="207.03" y2="183.85"/><line class="cls-5" x1="207.51" y1="182.66" x2="207.57" y2="182.5"/><line class="cls-5" x1="207.57" y1="182.5" x2="207.57" y2="182.45"/><line class="cls-5" x1="208" y1="181.26" x2="208.05" y2="181.04"/><line class="cls-5" x1="208.48" y1="179.85" x2="208.54" y2="179.64"/><line class="cls-5" x1="208.92" y1="178.4" x2="208.97" y2="178.18"/><line class="cls-5" x1="209.29" y1="176.94" x2="209.35" y2="176.72"/><line class="cls-5" x1="209.67" y1="175.48" x2="209.73" y2="175.26"/><line class="cls-5" x1="210" y1="174.02" x2="210.05" y2="173.81"/><line class="cls-5" x1="210.27" y1="172.56" x2="210.32" y2="172.35"/><line class="cls-5" x1="210.54" y1="171.11" x2="210.59" y2="170.89"/><line class="cls-5" x1="210.81" y1="169.59" x2="210.81" y2="169.32"/><line class="cls-5" x1="210.97" y1="168.03" x2="211.02" y2="167.81"/><line class="cls-5" x1="211.13" y1="166.52" x2="211.18" y2="166.3"/><line class="cls-5" x1="211.29" y1="165" x2="211.29" y2="164.79"/><line class="cls-5" x1="211.29" y1="164.79" x2="211.29" y2="164.73"/><line class="cls-5" x1="211.35" y1="163.44" x2="211.35" y2="163.17"/><line class="cls-5" x1="211.4" y1="161.87" x2="211.4" y2="161.6"/><line class="cls-5" x1="211.45" y1="160.31" x2="211.45" y2="160.04"/><line class="cls-5" x1="211.45" y1="158.69" x2="211.4" y2="158.47"/><line class="cls-5" x1="211.4" y1="157.12" x2="211.4" y2="156.85"/><line class="cls-5" x1="211.29" y1="155.55" x2="211.29" y2="155.28"/><line class="cls-5" x1="211.24" y1="153.99" x2="211.18" y2="153.77"/><line class="cls-5" x1="211.13" y1="152.48" x2="211.08" y2="152.26"/><line class="cls-5" x1="210.91" y1="150.96" x2="210.91" y2="150.69"/><line class="cls-5" x1="210.75" y1="149.4" x2="210.7" y2="149.18"/><line class="cls-5" x1="210.54" y1="147.89" x2="210.48" y2="147.62"/><line class="cls-5" x1="210.27" y1="146.32" x2="210.27" y2="146.05"/><line class="cls-5" x1="210" y1="144.81" x2="210" y2="144.54"/><line class="cls-5" x1="209.73" y1="143.3" x2="209.67" y2="143.03"/><line class="cls-5" x1="209.46" y1="141.78" x2="209.4" y2="141.57"/><line class="cls-5" x1="209.13" y1="140.33" x2="209.08" y2="140.11"/><line class="cls-5" x1="208.86" y1="138.87" x2="208.81" y2="138.65"/><line class="cls-5" x1="208.54" y1="137.41" x2="208.48" y2="137.19"/><line class="cls-5" x1="208.21" y1="135.95" x2="208.16" y2="135.74"/><line class="cls-5" x1="207.89" y1="134.49" x2="207.84" y2="134.28"/><line class="cls-5" x1="207.57" y1="133.04" x2="207.51" y2="132.82"/><line class="cls-5" x1="207.24" y1="131.58" x2="207.19" y2="131.42"/><line class="cls-5" x1="207.19" y1="131.42" x2="207.19" y2="131.36"/><line class="cls-5" x1="206.81" y1="130.12" x2="206.76" y2="129.9"/><line class="cls-5" x1="206.38" y1="128.66" x2="206.32" y2="128.45"/><line class="cls-5" x1="205.95" y1="127.26" x2="205.89" y2="127.04"/><line class="cls-5" x1="205.51" y1="125.85" x2="205.46" y2="125.64"/><line class="cls-5" x1="205.03" y1="124.45" x2="204.97" y2="124.23"/><line class="cls-5" x1="204.54" y1="123.05" x2="204.49" y2="122.83"/><line class="cls-5" x1="204.06" y1="121.64" x2="204" y2="121.43"/><line class="cls-5" x1="203.52" y1="120.24" x2="203.46" y2="120.02"/><line class="cls-5" x1="202.98" y1="118.83" x2="202.87" y2="118.62"/><line class="cls-5" x1="202.38" y1="117.43" x2="202.27" y2="117.21"/><line class="cls-5" x1="201.79" y1="116.03" x2="201.68" y2="115.81"/><line class="cls-5" x1="201.09" y1="114.68" x2="201.09" y2="114.62"/><line class="cls-5" x1="201.09" y1="114.62" x2="200.98" y2="114.46"/><line class="cls-5" x1="200.44" y1="113.33" x2="200.33" y2="113.11"/><line class="cls-5" x1="199.68" y1="111.98" x2="199.57" y2="111.76"/><line class="cls-5" x1="198.93" y1="110.63" x2="198.82" y2="110.41"/><line class="cls-5" x1="198.17" y1="109.33" x2="198.06" y2="109.11"/><line class="cls-5" x1="197.36" y1="108.03" x2="197.25" y2="107.82"/><line class="cls-5" x1="196.55" y1="106.74" x2="196.39" y2="106.52"/><line class="cls-5" x1="195.69" y1="105.44" x2="195.52" y2="105.23"/><line class="cls-5" x1="194.77" y1="104.15" x2="194.61" y2="103.93"/><line class="cls-5" x1="193.8" y1="102.9" x2="193.63" y2="102.69"/><line class="cls-5" x1="192.88" y1="101.66" x2="192.72" y2="101.45"/><line class="cls-5" x1="191.85" y1="100.42" x2="191.69" y2="100.2"/><line class="cls-5" x1="190.83" y1="99.18" x2="190.66" y2="98.96"/><line class="cls-5" x1="189.8" y1="97.99" x2="189.64" y2="97.83"/><line class="cls-5" x1="188.72" y1="96.86" x2="188.56" y2="96.69"/><line class="cls-5" x1="187.64" y1="95.72" x2="187.53" y2="95.61"/><line class="cls-5" x1="187.53" y1="95.61" x2="187.48" y2="95.56"/><line class="cls-5" x1="186.51" y1="94.64" x2="186.34" y2="94.48"/><line class="cls-5" x1="185.37" y1="93.56" x2="185.16" y2="93.4"/><line class="cls-5" x1="184.18" y1="92.54" x2="184.02" y2="92.37"/><line class="cls-5" x1="183.05" y1="91.51" x2="182.83" y2="91.35"/><line class="cls-5" x1="181.81" y1="90.59" x2="181.59" y2="90.43"/><line class="cls-5" x1="180.62" y1="89.57" x2="180.46" y2="89.4"/><line class="cls-5" x1="179.43" y1="88.7" x2="179.22" y2="88.54"/><line class="cls-5" x1="178.08" y1="87.95" x2="177.87" y2="87.84"/><line class="cls-5" x1="176.68" y1="87.35" x2="176.52" y2="87.3"/><line class="cls-5" x1="176.52" y1="87.3" x2="176.46" y2="87.3"/><line class="cls-5" x1="175.27" y1="86.92" x2="175.06" y2="86.87"/><line class="cls-5" x1="173.82" y1="86.65" x2="173.55" y2="86.6"/><line class="cls-5" x1="172.25" y1="86.54" x2="171.98" y2="86.6"/><line class="cls-5" x1="170.68" y1="86.65" x2="170.41" y2="86.65"/><line class="cls-5" x1="169.23" y1="87.08" x2="169.01" y2="87.14"/><line class="cls-5" x1="167.82" y1="87.68" x2="167.61" y2="87.78"/><line class="cls-5" x1="166.53" y1="88.49" x2="166.31" y2="88.59"/><line class="cls-5" x1="165.28" y1="89.35" x2="165.12" y2="89.51"/><line class="cls-5" x1="164.15" y1="90.43" x2="163.99" y2="90.59"/><line class="cls-5" x1="163.02" y1="91.51" x2="163.02" y2="91.51"/><line class="cls-5" x1="163.02" y1="91.51" x2="162.85" y2="91.67"/><line class="cls-5" x1="161.99" y1="92.7" x2="161.83" y2="92.86"/><line class="cls-5" x1="160.96" y1="93.83" x2="160.8" y2="94.05"/><line class="cls-5" x1="160.1" y1="95.13" x2="159.99" y2="95.34"/><line class="cls-5" x1="159.34" y1="96.42" x2="159.24" y2="96.64"/><line class="cls-5" x1="158.59" y1="97.72" x2="158.48" y2="97.94"/><line class="cls-5" x1="157.78" y1="99.02" x2="157.62" y2="99.23"/><line class="cls-5" x1="156.86" y1="100.26" x2="156.75" y2="100.47"/><line class="cls-5" x1="155.94" y1="101.5" x2="155.78" y2="101.66"/><line class="cls-5" x1="154.92" y1="102.63" x2="154.75" y2="102.85"/><line class="cls-5" x1="153.62" y1="103.34" x2="153.4" y2="103.39"/><line class="cls-5" x1="152.27" y1="103.93" x2="152.16" y2="103.98"/><line class="cls-5" x1="152.16" y1="103.98" x2="152.05" y2="104.04"/><line class="cls-5" x1="150.87" y1="104.42" x2="150.65" y2="104.47"/><line class="cls-5" x1="149.41" y1="222.73" x2="149.14" y2="222.73"/><line class="cls-5" x1="147.84" y1="222.68" x2="147.63" y2="222.62"/><line class="cls-5" x1="146.33" y1="222.57" x2="146.06" y2="222.57"/><line class="cls-5" x1="144.76" y1="222.46" x2="144.49" y2="222.46"/><line class="cls-5" x1="143.2" y1="222.3" x2="142.93" y2="222.3"/><line class="cls-5" x1="141.69" y1="222.14" x2="141.47" y2="222.08"/><line class="cls-5" x1="140.17" y1="221.87" x2="139.96" y2="221.81"/><line class="cls-5" x1="138.66" y1="221.6" x2="138.45" y2="221.54"/><line class="cls-5" x1="137.2" y1="221.27" x2="136.99" y2="221.22"/><line class="cls-5" x1="135.75" y1="220.95" x2="135.53" y2="220.89"/><line class="cls-5" x1="134.29" y1="220.62" x2="134.07" y2="220.52"/><line class="cls-5" x1="132.83" y1="220.19" x2="132.61" y2="220.14"/><line class="cls-5" x1="131.37" y1="219.76" x2="131.16" y2="219.71"/><line class="cls-5" x1="129.97" y1="219.33" x2="129.75" y2="219.27"/><line class="cls-5" x1="128.56" y1="218.84" x2="128.35" y2="218.73"/><line class="cls-5" x1="127.16" y1="218.3" x2="126.94" y2="218.19"/><line class="cls-5" x1="125.76" y1="217.71" x2="125.54" y2="217.65"/><line class="cls-5" x1="124.41" y1="217.17" x2="124.19" y2="217.06"/><line class="cls-5" x1="123.06" y1="216.57" x2="122.84" y2="216.47"/><line class="cls-5" x1="121.71" y1="215.93" x2="121.49" y2="215.82"/><line class="cls-5" x1="120.36" y1="215.22" x2="120.14" y2="215.12"/><line class="cls-5" x1="119.01" y1="214.52" x2="118.79" y2="214.41"/><line class="cls-5" x1="117.66" y1="213.77" x2="117.44" y2="213.66"/><line class="cls-5" x1="116.36" y1="213.01" x2="116.25" y2="212.96"/><line class="cls-5" x1="116.25" y1="212.96" x2="116.14" y2="212.9"/><line class="cls-5" x1="115.06" y1="212.15" x2="114.85" y2="212.04"/><line class="cls-5" x1="113.77" y1="211.28" x2="113.55" y2="211.12"/><line class="cls-5" x1="112.47" y1="210.36" x2="112.26" y2="210.2"/><line class="cls-5" x1="111.23" y1="209.45" x2="111.01" y2="209.28"/><line class="cls-5" x1="109.99" y1="208.42" x2="109.77" y2="208.26"/><line class="cls-5" x1="108.75" y1="207.39" x2="108.58" y2="207.23"/><line class="cls-5" x1="107.56" y1="206.37" x2="107.4" y2="206.21"/><line class="cls-5" x1="106.42" y1="205.29" x2="106.26" y2="205.13"/><line class="cls-5" x1="105.29" y1="204.21" x2="105.13" y2="204.05"/><line class="cls-5" x1="104.21" y1="203.13" x2="104.05" y2="202.97"/><line class="cls-5" x1="103.13" y1="202.05" x2="103.02" y2="201.94"/><line class="cls-5" x1="103.02" y1="201.94" x2="102.97" y2="201.89"/><line class="cls-5" x1="102.1" y1="200.91" x2="101.94" y2="200.7"/><line class="cls-5" x1="101.08" y1="199.73" x2="100.92" y2="199.51"/><line class="cls-5" x1="100.05" y1="198.48" x2="99.89" y2="198.27"/><line class="cls-5" x1="99.08" y1="197.24" x2="98.92" y2="197.08"/><line class="cls-5" x1="98.16" y1="196.05" x2="98" y2="195.84"/><line class="cls-5" x1="97.24" y1="194.81" x2="97.08" y2="194.6"/><line class="cls-5" x1="96.33" y1="193.52" x2="96.16" y2="193.3"/><line class="cls-5" x1="95.46" y1="192.22" x2="95.35" y2="192"/><line class="cls-5" x1="94.65" y1="190.92" x2="94.6" y2="190.82"/><line class="cls-5" x1="94.6" y1="190.82" x2="94.54" y2="190.71"/><line class="cls-5" x1="93.84" y1="189.63" x2="93.73" y2="189.41"/><line class="cls-5" x1="93.03" y1="188.33" x2="92.92" y2="188.12"/><line class="cls-5" x1="92.33" y1="186.98" x2="92.22" y2="186.77"/><line class="cls-5" x1="91.63" y1="185.63" x2="91.52" y2="185.42"/><line class="cls-5" x1="90.93" y1="184.28" x2="90.82" y2="184.07"/><line class="cls-5" x1="90.33" y1="182.93" x2="90.22" y2="182.72"/><line class="cls-5" x1="89.74" y1="181.58" x2="89.63" y2="181.37"/><line class="cls-5" x1="89.14" y1="180.18" x2="89.04" y2="179.96"/><line class="cls-5" x1="88.55" y1="178.77" x2="88.55" y2="178.77"/><line class="cls-5" x1="88.55" y1="178.77" x2="88.5" y2="178.56"/><line class="cls-5" x1="88.01" y1="177.37" x2="87.96" y2="177.15"/><line class="cls-5" x1="87.52" y1="175.97" x2="87.47" y2="175.75"/><line class="cls-5" x1="87.09" y1="174.56" x2="86.98" y2="174.35"/><line class="cls-5" x1="86.61" y1="173.16" x2="86.55" y2="172.94"/><line class="cls-5" x1="86.17" y1="171.75" x2="86.12" y2="171.54"/><line class="cls-5" x1="85.8" y1="170.3" x2="85.74" y2="170.08"/><line class="cls-5" x1="85.47" y1="168.84" x2="85.47" y2="168.84"/><line class="cls-5" x1="85.47" y1="168.84" x2="85.42" y2="168.62"/><line class="cls-5" x1="85.15" y1="167.38" x2="85.09" y2="167.16"/><line class="cls-5" x1="84.77" y1="165.92" x2="84.72" y2="165.65"/><line class="cls-5" x1="84.5" y1="164.41" x2="84.45" y2="164.19"/><line class="cls-5" x1="84.23" y1="162.95" x2="84.23" y2="162.68"/><line class="cls-5" x1="84.01" y1="161.44" x2="84.01" y2="161.39"/><line class="cls-5" x1="84.01" y1="161.39" x2="83.96" y2="161.17"/><line class="cls-5" x1="83.8" y1="159.87" x2="83.8" y2="159.6"/><line class="cls-5" x1="83.64" y1="158.31" x2="83.58" y2="158.09"/><line class="cls-5" x1="83.47" y1="156.8" x2="83.42" y2="156.58"/><line class="cls-5" x1="83.37" y1="155.28" x2="83.31" y2="155.07"/><line class="cls-5" x1="83.26" y1="153.77" x2="83.26" y2="153.5"/><line class="cls-5" x1="83.2" y1="152.21" x2="83.2" y2="151.94"/><line class="cls-5" x1="83.2" y1="150.59" x2="83.15" y2="150.37"/><line class="cls-5" x1="83.15" y1="149.02" x2="83.15" y2="148.75"/><line class="cls-5" x1="83.15" y1="147.4" x2="83.15" y2="147.13"/><line class="cls-5" x1="83.2" y1="145.83" x2="83.2" y2="145.56"/><line class="cls-5" x1="83.26" y1="144.27" x2="83.26" y2="144"/><line class="cls-5" x1="83.31" y1="142.7" x2="83.31" y2="142.43"/><line class="cls-5" x1="83.37" y1="141.14" x2="83.37" y2="140.87"/><line class="cls-5" x1="83.42" y1="139.57" x2="83.42" y2="139.3"/><line class="cls-5" x1="83.53" y1="138" x2="83.53" y2="137.73"/><line class="cls-5" x1="83.58" y1="136.44" x2="83.64" y2="136.22"/><line class="cls-5" x1="83.69" y1="134.93" x2="83.74" y2="134.71"/><line class="cls-5" x1="83.85" y1="133.41" x2="83.91" y2="133.14"/><line class="cls-5" x1="84.01" y1="131.85" x2="84.07" y2="131.63"/><line class="cls-5" x1="84.18" y1="130.34" x2="84.23" y2="130.12"/><line class="cls-5" x1="84.39" y1="128.82" x2="84.39" y2="128.55"/><line class="cls-5" x1="84.61" y1="127.31" x2="84.66" y2="127.1"/><line class="cls-5" x1="84.88" y1="125.8" x2="84.93" y2="125.58"/><line class="cls-5" x1="85.2" y1="124.34" x2="85.26" y2="124.13"/><line class="cls-5" x1="85.53" y1="122.88" x2="85.58" y2="122.67"/><line class="cls-5" x1="85.85" y1="121.43" x2="85.9" y2="121.21"/><line class="cls-5" x1="86.28" y1="119.97" x2="86.34" y2="119.75"/><line class="cls-5" x1="86.66" y1="118.51" x2="86.77" y2="118.29"/><line class="cls-5" x1="87.15" y1="117.11" x2="87.15" y2="117.05"/><line class="cls-5" x1="87.15" y1="117.05" x2="87.2" y2="116.89"/><line class="cls-5" x1="87.63" y1="115.7" x2="87.69" y2="115.49"/><line class="cls-5" x1="88.12" y1="114.3" x2="88.23" y2="114.08"/><line class="cls-5" x1="88.66" y1="112.89" x2="88.71" y2="112.73"/><line class="cls-5" x1="88.71" y1="112.73" x2="88.71" y2="112.68"/><line class="cls-5" x1="89.25" y1="111.54" x2="89.31" y2="111.33"/><line class="cls-5" x1="89.85" y1="110.19" x2="89.95" y2="109.98"/><line class="cls-5" x1="90.49" y1="108.79" x2="90.6" y2="108.57"/><line class="cls-5" x1="91.14" y1="107.44" x2="91.25" y2="107.22"/><line class="cls-5" x1="91.84" y1="106.09" x2="91.95" y2="105.87"/><line class="cls-5" x1="92.6" y1="104.79" x2="92.71" y2="104.58"/><line class="cls-5" x1="93.36" y1="103.5" x2="93.46" y2="103.28"/><line class="cls-5" x1="94.17" y1="102.2" x2="94.33" y2="101.99"/><line class="cls-5" x1="95.03" y1="100.91" x2="95.19" y2="100.69"/><line class="cls-5" x1="95.95" y1="99.66" x2="96.06" y2="99.45"/><line class="cls-5" x1="96.87" y1="98.42" x2="97.03" y2="98.21"/><line class="cls-5" x1="97.78" y1="97.18" x2="97.95" y2="96.96"/><line class="cls-5" x1="98.81" y1="95.99" x2="98.97" y2="95.83"/><line class="cls-5" x1="99.84" y1="94.86" x2="100" y2="94.64"/><line class="cls-5" x1="100.92" y1="93.67" x2="101.08" y2="93.51"/><line class="cls-5" x1="102.05" y1="92.59" x2="102.21" y2="92.43"/><line class="cls-5" x1="103.18" y1="91.56" x2="103.35" y2="91.4"/><line class="cls-5" x1="104.32" y1="90.48" x2="104.43" y2="90.38"/><line class="cls-5" x1="104.43" y1="90.38" x2="104.48" y2="90.32"/><line class="cls-5" x1="105.51" y1="89.51" x2="105.67" y2="89.35"/><line class="cls-5" x1="106.69" y1="88.54" x2="106.91" y2="88.38"/><line class="cls-5" x1="107.94" y1="87.57" x2="107.99" y2="87.51"/><line class="cls-5" x1="107.99" y1="87.51" x2="108.15" y2="87.41"/><line class="cls-5" x1="109.18" y1="86.65" x2="109.39" y2="86.54"/><line class="cls-5" x1="110.47" y1="85.79" x2="110.69" y2="85.68"/><line class="cls-5" x1="111.77" y1="84.98" x2="111.77" y2="84.98"/><line class="cls-5" x1="111.77" y1="84.98" x2="111.99" y2="84.87"/><line class="cls-5" x1="113.07" y1="84.17" x2="113.28" y2="84.06"/><line class="cls-5" x1="114.36" y1="83.41" x2="114.58" y2="83.3"/><line class="cls-5" x1="115.66" y1="82.65" x2="115.66" y2="82.65"/><line class="cls-5" x1="115.66" y1="82.65" x2="115.87" y2="82.55"/><line class="cls-5" x1="117.06" y1="82.01" x2="117.28" y2="81.95"/><line class="cls-5" x1="118.47" y1="81.52" x2="118.68" y2="81.47"/><line class="cls-5" x1="119.87" y1="81.09" x2="119.92" y2="81.09"/><line class="cls-5" x1="119.92" y1="81.09" x2="120.09" y2="81.03"/><line class="cls-5" x1="121.33" y1="80.76" x2="121.54" y2="80.71"/><line class="cls-5" x1="122.84" y1="80.6" x2="123.11" y2="80.6"/><line class="cls-5" x1="124.41" y1="80.55" x2="124.57" y2="80.55"/><line class="cls-5" x1="124.57" y1="80.55" x2="124.68" y2="80.55"/><line class="cls-5" x1="125.97" y1="80.66" x2="126.19" y2="80.71"/><line class="cls-5" x1="127.48" y1="80.93" x2="127.7" y2="80.98"/><line class="cls-5" x1="128.89" y1="81.41" x2="129.1" y2="81.47"/><line class="cls-5" x1="130.24" y1="82.01" x2="130.45" y2="82.11"/><line class="cls-5" x1="131.53" y1="82.76" x2="131.75" y2="82.92"/><line class="cls-5" x1="132.83" y1="83.68" x2="133.05" y2="83.84"/><line class="cls-5" x1="134.07" y1="84.65" x2="134.23" y2="84.81"/><line class="cls-5" x1="135.26" y1="85.68" x2="135.42" y2="85.84"/><line class="cls-5" x1="136.34" y1="86.81" x2="136.5" y2="86.97"/><line class="cls-5" x1="137.42" y1="87.89" x2="137.58" y2="88.05"/><line class="cls-5" x1="138.34" y1="89.08" x2="138.5" y2="89.3"/><line class="cls-5" x1="139.26" y1="90.32" x2="139.36" y2="90.54"/><line class="cls-5" x1="140.12" y1="91.56" x2="140.17" y2="91.62"/><line class="cls-5" x1="140.17" y1="91.62" x2="140.28" y2="91.78"/><line class="cls-5" x1="141.04" y1="92.86" x2="141.15" y2="93.08"/><line class="cls-5" x1="141.85" y1="94.1" x2="142.01" y2="94.32"/><line class="cls-5" x1="142.71" y1="95.4" x2="142.87" y2="95.61"/><line class="cls-5" x1="143.52" y1="96.69" x2="143.63" y2="96.91"/><line class="cls-5" x1="144.28" y1="97.99" x2="144.33" y2="98.04"/><line class="cls-5" x1="144.33" y1="98.04" x2="144.44" y2="98.21"/><line class="cls-5" x1="144.98" y1="99.34" x2="145.09" y2="99.56"/><line class="cls-5" x1="145.68" y1="100.69" x2="145.79" y2="100.91"/><line class="cls-5" x1="146.49" y1="101.99" x2="146.65" y2="102.2"/><line class="cls-5" x1="147.57" y1="103.17" x2="147.79" y2="103.28"/><line class="cls-5" x1="148.81" y1="103.98" x2="148.98" y2="104.15"/></g></g></svg>