<?xml version="1.0" encoding="utf-8"?>
<!-- Generator: Adobe Illustrator 22.1.0, SVG Export Plug-In . SVG Version: 6.00 Build 0)  -->
<svg version="1.1" id="Glo_Ball_Basic_Zero" xmlns="http://www.w3.org/2000/svg" xmlns:xlink="http://www.w3.org/1999/xlink"
	 x="0px" y="0px" viewBox="0 0 300 263" style="enable-background:new 0 0 300 263;" xml:space="preserve">
<style type="text/css">
	.st0{fill:none;stroke:#000000;stroke-width:0.5;}
	.st1{fill:none;stroke:#1D1D1B;stroke-width:0.5;stroke-miterlimit:3.86;}
</style>
<title>glo-ball-basic-0-switch-table-morrison-flos-F3331009-spech-tech-02-300x263</title>
<line class="st0" x1="122.2" y1="227.2" x2="177.1" y2="227.2"/>
<line class="st0" x1="122.2" y1="225.5" x2="122.2" y2="228.9"/>
<line class="st0" x1="177.1" y1="225.5" x2="177.1" y2="228.9"/>
<g>
	<path d="M124.8,240.5c0.3,0.3,0.5,0.7,0.7,1.2c0.2,0.5,0.3,0.9,0.3,1.4c0,0.5-0.1,1.1-0.3,1.6c-0.2,0.5-0.5,0.9-0.9,1.2
		c-0.4,0.4-0.8,0.6-1.3,0.8c-0.5,0.2-1.1,0.3-1.7,0.3c-0.5,0-1-0.1-1.5-0.2c-0.4-0.1-0.8-0.3-1.2-0.6l-1.1,1.1l-0.5-0.5l1.1-1.1
		c-0.3-0.3-0.6-0.7-0.7-1.2c-0.4-1-0.4-2,0-3c0.2-0.5,0.5-0.9,0.9-1.2c0.4-0.4,0.8-0.6,1.3-0.8c1-0.4,2.1-0.4,3.1-0.1
		c0.4,0.1,0.8,0.4,1.2,0.6l1.1-1.1l0.5,0.5L124.8,240.5z M123.5,240.8c-0.5-0.4-1.2-0.6-1.9-0.6c-0.4,0-0.8,0.1-1.2,0.2
		c-0.3,0.1-0.7,0.4-0.9,0.6c-0.3,0.3-0.5,0.6-0.6,0.9c-0.1,0.4-0.2,0.8-0.2,1.2c0,0.7,0.2,1.3,0.6,1.8L123.5,240.8z M119.8,245.5
		c0.3,0.2,0.5,0.3,0.8,0.4c0.3,0.1,0.7,0.2,1,0.2c0.4,0,0.8-0.1,1.2-0.2c0.7-0.3,1.3-0.9,1.5-1.6c0.1-0.4,0.2-0.8,0.2-1.2
		c0-0.7-0.2-1.3-0.6-1.8L119.8,245.5z"/>
	<path d="M139.1,236.6l-4.7,10.3H133l4.8-10.3h-5.7v-1.1h7L139.1,236.6z"/>
	<path d="M148.2,236.6h-4.8l-0.1,3.4c0.3-0.1,0.5-0.2,0.8-0.2c0.3,0,0.5-0.1,0.8-0.1c0.5,0,1,0.1,1.5,0.3c0.9,0.3,1.6,1,1.9,1.9
		c0.2,0.5,0.3,0.9,0.3,1.4c0,0.5-0.1,1-0.3,1.5c-0.2,0.4-0.5,0.8-0.8,1.2c-0.4,0.3-0.8,0.6-1.2,0.8c-0.5,0.2-1,0.3-1.6,0.3
		c-0.7,0-1.4-0.2-2-0.5c-0.6-0.3-1.1-0.9-1.4-1.5l1.2-0.5c0.2,0.4,0.5,0.8,0.9,1.1c0.4,0.3,0.9,0.4,1.4,0.4c0.3,0,0.7-0.1,1-0.2
		c0.3-0.1,0.6-0.3,0.8-0.5c0.2-0.2,0.4-0.5,0.6-0.8c0.1-0.3,0.2-0.7,0.2-1c0-0.4-0.1-0.7-0.2-1.1c-0.1-0.3-0.3-0.6-0.6-0.9
		c-0.3-0.2-0.6-0.4-0.9-0.6c-0.4-0.1-0.8-0.2-1.2-0.2c-0.4,0-0.9,0.1-1.3,0.2c-0.4,0.1-0.8,0.3-1.2,0.4l0.1-5.9h6L148.2,236.6z"/>
	<path d="M155.5,241c0-0.3,0-0.6,0-0.8l-0.1-0.8h1.2v1.1l0,0c0.3-0.4,0.7-0.8,1.1-1c0.4-0.2,0.9-0.3,1.4-0.3c0.2,0,0.5,0,0.7,0.1
		c0.2,0,0.5,0.1,0.7,0.2c0.2,0.1,0.5,0.3,0.6,0.5c0.2,0.2,0.4,0.5,0.5,0.8c0.2-0.5,0.6-0.9,1-1.1c0.5-0.3,1-0.4,1.5-0.4
		c0.8-0.1,1.6,0.2,2.2,0.8c0.5,0.6,0.8,1.4,0.7,2.2v4.8h-1v-4.4c0-0.6-0.1-1.2-0.4-1.7c-0.4-0.5-1-0.7-1.6-0.6c-0.3,0-0.7,0.1-1,0.2
		c-0.3,0.1-0.5,0.4-0.7,0.6c-0.2,0.3-0.3,0.6-0.4,0.9c-0.1,0.3-0.1,0.7-0.1,1v4h-1.1v-4.4c0-0.6-0.1-1.2-0.4-1.7
		c-0.4-0.5-1-0.7-1.6-0.6l-0.4,0.1c-0.3,0.1-0.5,0.2-0.7,0.4c-0.3,0.2-0.5,0.5-0.7,0.9c-0.2,0.5-0.3,1-0.3,1.6v3.8h-1.1L155.5,241z"
		/>
	<path d="M169.7,241c0-0.3,0-0.6,0-0.8s0-0.6-0.1-0.8h1.2v1.1l0,0c0.3-0.4,0.6-0.8,1.1-1c0.4-0.2,0.9-0.3,1.4-0.3
		c0.2,0,0.4,0,0.7,0.1c0.2,0,0.5,0.1,0.7,0.2c0.2,0.1,0.4,0.3,0.6,0.5c0.2,0.2,0.4,0.5,0.5,0.8c0.2-0.5,0.6-0.9,1.1-1.1
		c0.5-0.3,1-0.4,1.5-0.4c0.8-0.1,1.6,0.2,2.2,0.8c0.5,0.6,0.8,1.4,0.7,2.2v4.8h-1.1v-4.4c0-0.6-0.1-1.2-0.4-1.7
		c-0.4-0.5-1-0.7-1.5-0.6c-0.3,0-0.7,0.1-1,0.2c-0.3,0.1-0.5,0.4-0.7,0.6c-0.2,0.3-0.3,0.6-0.4,0.9c-0.1,0.3-0.1,0.7-0.1,1v4h-1.1
		v-4.4c0-0.6-0.1-1.2-0.4-1.7c-0.4-0.5-1-0.7-1.5-0.6l-0.5,0.1c-0.3,0.1-0.5,0.2-0.7,0.4c-0.3,0.2-0.5,0.5-0.7,0.9
		c-0.2,0.5-0.3,1-0.3,1.6v3.8h-1.1L169.7,241z"/>
</g>
<line class="st0" x1="71.7" y1="82.7" x2="221.5" y2="82.7"/>
<line class="st0" x1="71.7" y1="81.5" x2="71.7" y2="83.9"/>
<line class="st0" x1="221.5" y1="81.5" x2="221.5" y2="83.9"/>
<g>
	<path d="M117.2,67.7c0.3,0.3,0.5,0.7,0.7,1.2c0.4,1,0.3,2-0.1,3c-0.4,1-1.2,1.7-2.2,2.1c-0.5,0.2-1.1,0.3-1.7,0.3
		c-0.5,0-1-0.1-1.4-0.2c-0.4-0.1-0.8-0.3-1.2-0.6l-1.1,1.1l-0.5-0.5l1.1-1.1c-0.3-0.3-0.6-0.7-0.7-1.2c-0.2-0.5-0.3-0.9-0.2-1.4
		c0-0.5,0.1-1.1,0.3-1.6c0.2-0.5,0.5-0.9,0.8-1.2c0.4-0.4,0.8-0.6,1.3-0.8c0.5-0.2,1.1-0.3,1.7-0.3c0.5,0,1,0.1,1.4,0.2
		c0.4,0.1,0.8,0.3,1.2,0.6l1.1-1.1l0.5,0.5L117.2,67.7z M115.9,67.9c-0.5-0.4-1.2-0.6-1.9-0.6c-0.4,0-0.8,0.1-1.2,0.2
		c-0.3,0.1-0.7,0.4-0.9,0.6c-0.3,0.3-0.5,0.6-0.6,1c-0.1,0.4-0.2,0.8-0.2,1.2c0,0.7,0.2,1.3,0.6,1.8L115.9,67.9z M112.1,72.7
		c0.3,0.2,0.5,0.3,0.8,0.4c0.3,0.1,0.7,0.2,1,0.2c0.4,0,0.8-0.1,1.2-0.2c0.3-0.1,0.7-0.4,0.9-0.6c0.3-0.3,0.5-0.6,0.6-1
		c0.1-0.4,0.2-0.8,0.2-1.2c0-0.7-0.2-1.3-0.6-1.8L112.1,72.7z"/>
	<path d="M129.3,74h-1.2v-9.9l-2.1,1.8l-0.8-0.9l3-2.4h1.1L129.3,74z"/>
	<path d="M138.8,69.2L138.8,69.2c-0.2,0.1-0.5,0.2-0.8,0.3c-0.3,0.1-0.6,0.1-0.9,0.1c-0.5,0-1-0.1-1.4-0.3c-0.4-0.2-0.8-0.4-1.1-0.7
		c-0.3-0.3-0.6-0.7-0.8-1.1c-0.2-0.4-0.3-0.9-0.3-1.4c0-0.5,0.1-1,0.3-1.4c0.2-0.4,0.4-0.8,0.8-1.1c0.4-0.3,0.8-0.6,1.2-0.7
		c1-0.3,2-0.3,3,0c0.4,0.2,0.9,0.4,1.2,0.7c0.3,0.3,0.6,0.7,0.8,1.1c0.2,0.4,0.3,0.9,0.3,1.4c0,0.6-0.1,1.1-0.3,1.7
		c-0.2,0.5-0.4,0.9-0.7,1.4L137,74h-1.4L138.8,69.2z M140,66c0-0.3-0.1-0.7-0.2-1c-0.1-0.3-0.3-0.6-0.5-0.8
		c-0.2-0.2-0.5-0.4-0.8-0.5c-0.7-0.3-1.4-0.3-2.1,0c-0.3,0.1-0.6,0.3-0.8,0.5c-0.2,0.2-0.4,0.5-0.5,0.8c-0.1,0.3-0.2,0.7-0.2,1
		c0,0.3,0.1,0.7,0.2,1c0.1,0.3,0.3,0.6,0.5,0.8c0.2,0.2,0.5,0.4,0.8,0.5c0.7,0.2,1.4,0.2,2.1,0c0.3-0.1,0.6-0.3,0.8-0.5
		c0.2-0.2,0.4-0.5,0.5-0.8C140,66.7,140,66.3,140,66z"/>
	<path d="M146.6,62.5c0.7,0,1.4,0.2,2,0.6c0.5,0.4,0.9,0.9,1.2,1.4c0.3,0.6,0.5,1.2,0.6,1.9c0.2,1.3,0.2,2.7,0,4
		c-0.1,0.7-0.3,1.3-0.6,1.9c-0.3,0.6-0.7,1.1-1.2,1.4c-1.3,0.7-2.8,0.7-4.1,0c-0.5-0.4-0.9-0.9-1.2-1.4c-0.3-0.6-0.5-1.2-0.6-1.9
		c-0.2-1.3-0.2-2.7,0-4c0.1-0.7,0.3-1.3,0.6-1.9c0.3-0.6,0.7-1.1,1.2-1.4C145.2,62.7,145.9,62.5,146.6,62.5z M146.6,63.6
		c-0.6,0-1.1,0.1-1.5,0.5c-0.4,0.3-0.7,0.8-0.8,1.2c-0.2,0.5-0.3,1-0.4,1.6c0,0.6-0.1,1.1-0.1,1.5s0,1,0.1,1.5
		c0,0.5,0.2,1.1,0.4,1.6c0.2,0.5,0.5,0.9,0.8,1.2c0.9,0.6,2.1,0.6,3,0c0.4-0.3,0.7-0.8,0.8-1.2c0.2-0.5,0.3-1,0.4-1.6
		c0.1-0.6,0.1-1.1,0.1-1.5s0-1-0.1-1.5c0-0.5-0.2-1.1-0.4-1.6c-0.2-0.5-0.5-0.9-0.8-1.2C147.7,63.7,147.2,63.5,146.6,63.6z"/>
	<path d="M157.1,68.2c0-0.3,0-0.6,0-0.8l-0.1-0.8h1.2v1.1l0,0c0.3-0.4,0.7-0.8,1.1-1c0.4-0.2,0.9-0.3,1.4-0.3c0.2,0,0.5,0,0.7,0.1
		c0.2,0,0.5,0.1,0.7,0.2c0.2,0.1,0.5,0.3,0.6,0.5c0.2,0.2,0.4,0.5,0.5,0.8c0.2-0.5,0.6-0.9,1-1.1c0.5-0.3,1-0.4,1.5-0.4
		c0.8-0.1,1.6,0.2,2.2,0.8c0.5,0.6,0.8,1.4,0.7,2.2V74h-1.1v-4.3c0-0.6-0.1-1.2-0.4-1.7c-0.4-0.5-1-0.7-1.6-0.6
		c-0.3,0-0.7,0.1-1,0.2c-0.3,0.1-0.5,0.4-0.7,0.6c-0.2,0.3-0.3,0.6-0.4,0.9c-0.1,0.3-0.1,0.7-0.1,1v4h-1.1v-4.4
		c0-0.6-0.1-1.2-0.4-1.7c-0.4-0.5-1-0.7-1.6-0.6l-0.4,0.1c-0.3,0.1-0.5,0.2-0.7,0.3c-0.3,0.2-0.5,0.5-0.7,0.9
		c-0.2,0.5-0.3,1-0.3,1.6V74H157L157.1,68.2z"/>
	<path d="M171.2,68.2c0-0.3,0-0.6,0-0.8s0-0.6-0.1-0.8h1.2v1.1l0,0c0.3-0.4,0.6-0.8,1.1-1c0.4-0.2,0.9-0.3,1.4-0.3
		c0.2,0,0.4,0,0.7,0.1c0.2,0,0.5,0.1,0.7,0.2c0.2,0.1,0.4,0.3,0.6,0.5c0.2,0.2,0.4,0.5,0.5,0.8c0.2-0.5,0.6-0.9,1.1-1.1
		c0.5-0.3,1-0.4,1.5-0.4c0.8-0.1,1.6,0.2,2.2,0.8c0.5,0.6,0.8,1.4,0.7,2.2V74h-1.1v-4.3c0-0.6-0.1-1.2-0.4-1.7
		c-0.4-0.5-1-0.7-1.5-0.6c-0.3,0-0.7,0.1-1,0.2c-0.3,0.1-0.5,0.4-0.7,0.6c-0.2,0.3-0.3,0.6-0.4,0.9c-0.1,0.3-0.1,0.7-0.1,1v4h-1.1
		v-4.4c0-0.6-0.1-1.2-0.4-1.7c-0.4-0.5-1-0.7-1.5-0.6l-0.5,0.1c-0.3,0.1-0.5,0.2-0.7,0.3c-0.3,0.2-0.5,0.5-0.7,0.9
		c-0.2,0.5-0.3,1-0.3,1.6V74h-1.1L171.2,68.2z"/>
</g>
<line class="st0" x1="63.8" y1="204.8" x2="63.8" y2="82.4"/>
<line class="st0" x1="62.6" y1="204.8" x2="65.1" y2="204.8"/>
<line class="st0" x1="62.6" y1="82.4" x2="65.1" y2="82.4"/>
<g>
	<path d="M55.4,165v1.1h-9.9l1.8,2l-0.9,0.7l-2.4-2.9v-1H55.4z"/>
	<path d="M49,158.6L49,158.6c-0.1-0.2-0.2-0.5-0.3-0.7c-0.1-0.3-0.1-0.6-0.1-0.8c0-0.5,0.1-0.9,0.3-1.4c0.2-0.4,0.4-0.8,0.7-1.1
		c0.3-0.3,0.7-0.6,1.1-0.7c0.4-0.2,0.9-0.3,1.4-0.3c0.5,0,1,0.1,1.4,0.3c0.4,0.2,0.8,0.4,1.1,0.8c0.3,0.3,0.6,0.7,0.7,1.2
		c0.3,1,0.3,2,0,2.9c-0.2,0.4-0.4,0.8-0.7,1.2c-0.3,0.3-0.7,0.6-1.1,0.8c-0.5,0.2-0.9,0.3-1.4,0.3c-0.6,0-1.1-0.1-1.7-0.3
		c-0.5-0.2-0.9-0.4-1.4-0.7l-5-3v-1.4L49,158.6z M52.2,159.8c0.3,0,0.7-0.1,1-0.2c0.3-0.1,0.6-0.3,0.8-0.5c0.2-0.2,0.4-0.5,0.5-0.8
		c0.1-0.3,0.2-0.7,0.2-1c0-0.3-0.1-0.7-0.2-1c-0.1-0.3-0.3-0.6-0.5-0.8c-0.2-0.2-0.5-0.4-0.8-0.5c-0.6-0.2-1.4-0.2-2,0
		c-0.3,0.1-0.6,0.3-0.8,0.5c-0.2,0.2-0.4,0.5-0.5,0.8c-0.1,0.3-0.2,0.7-0.2,1c0,0.3,0.1,0.7,0.2,1c0.1,0.3,0.3,0.6,0.5,0.8
		c0.2,0.2,0.5,0.4,0.8,0.5C51.5,159.7,51.8,159.8,52.2,159.8L52.2,159.8z"/>
	<path d="M43.9,148.3c0-0.7,0.2-1.4,0.6-2c0.4-0.5,0.9-0.9,1.4-1.2c0.6-0.3,1.2-0.5,1.9-0.6c1.3-0.2,2.6-0.2,4,0
		c0.7,0.1,1.3,0.3,1.9,0.6c0.6,0.3,1.1,0.7,1.4,1.2c0.7,1.2,0.7,2.7,0,3.9c-0.4,0.5-0.9,0.9-1.4,1.2c-0.6,0.3-1.2,0.5-1.9,0.6
		c-1.3,0.2-2.6,0.2-4,0c-0.7-0.1-1.3-0.3-1.9-0.6c-0.6-0.3-1-0.7-1.4-1.2C44.1,149.7,43.9,149,43.9,148.3z M45,148.3
		c0,0.5,0.1,1.1,0.5,1.5c0.3,0.4,0.8,0.6,1.2,0.8c0.5,0.2,1,0.3,1.6,0.3c0.6,0.1,1.1,0.1,1.5,0.1s1,0,1.5-0.1c0.5,0,1.1-0.2,1.6-0.3
		c0.5-0.2,0.9-0.5,1.2-0.8c0.7-0.9,0.7-2.1,0-2.9c-0.3-0.4-0.8-0.6-1.2-0.8c-0.5-0.2-1-0.3-1.6-0.3c-0.5-0.1-1.1-0.1-1.5-0.1
		s-1,0-1.5,0.1c-0.5,0-1.1,0.2-1.6,0.3c-0.5,0.2-0.9,0.4-1.2,0.8C45.1,147.3,45,147.8,45,148.3L45,148.3z"/>
	<path d="M49.6,138.3c-0.3,0-0.6,0-0.8,0l-0.8,0.1v-1.1h1.1l0,0c-0.4-0.2-0.8-0.6-1-1.1c-0.2-0.4-0.3-0.9-0.3-1.4
		c0-0.2,0-0.4,0.1-0.6c0-0.2,0.1-0.5,0.2-0.7c0.1-0.2,0.3-0.4,0.5-0.6c0.2-0.2,0.5-0.4,0.8-0.5c-0.5-0.2-0.9-0.6-1.1-1
		c-0.3-0.4-0.4-0.9-0.4-1.4c-0.1-0.8,0.2-1.6,0.8-2.1c0.6-0.5,1.4-0.7,2.2-0.7h4.8v1H51c-0.6,0-1.2,0.1-1.7,0.4
		c-0.4,0.4-0.7,0.9-0.6,1.5c0,0.3,0.1,0.7,0.2,1c0.1,0.3,0.4,0.5,0.6,0.6c0.3,0.2,0.6,0.3,0.9,0.4c0.3,0.1,0.7,0.1,1,0.1h4v1.1H51
		c-0.6,0-1.2,0.1-1.7,0.4c-0.4,0.4-0.7,0.9-0.6,1.5c0,0.1,0,0.3,0.1,0.4c0.1,0.3,0.2,0.5,0.4,0.7c0.2,0.3,0.5,0.5,0.9,0.7
		c0.5,0.2,1.1,0.3,1.6,0.3h3.8v1.1L49.6,138.3z"/>
	<path d="M49.6,124.6c-0.3,0-0.6,0-0.8,0h-0.8v-1.1h1.1l0,0c-0.4-0.2-0.8-0.6-1-1.1c-0.2-0.4-0.3-0.9-0.3-1.3c0-0.2,0-0.4,0.1-0.7
		c0-0.2,0.1-0.5,0.2-0.7c0.1-0.2,0.3-0.4,0.5-0.6c0.2-0.2,0.5-0.4,0.8-0.5c-0.5-0.2-0.9-0.6-1.1-1c-0.3-0.4-0.4-0.9-0.4-1.4
		c-0.1-0.8,0.2-1.6,0.8-2.1c0.6-0.5,1.4-0.7,2.2-0.7h4.8v1H51c-0.6,0-1.2,0.1-1.7,0.4c-0.4,0.4-0.7,0.9-0.6,1.5c0,0.3,0.1,0.7,0.2,1
		c0.2,0.3,0.4,0.5,0.6,0.7c0.3,0.2,0.6,0.3,0.9,0.4c0.3,0.1,0.7,0.1,1,0.1h4v1.1H51c-0.6,0-1.2,0.1-1.7,0.4
		c-0.5,0.4-0.7,0.9-0.6,1.5c0,0.1,0,0.3,0.1,0.4c0.1,0.3,0.2,0.5,0.4,0.7c0.2,0.3,0.5,0.5,0.9,0.7c0.5,0.2,1.1,0.3,1.6,0.3h3.8v1
		L49.6,124.6z"/>
</g>
<path class="st1" d="M167,209.4c13.3-1.4,24.9-4.9,36-12.7c15.6-11,21.9-24.3,21.9-45.8s-6.2-33.7-21.9-45.8
	c-15.2-11.7-32.3-13.5-53-13.5s-37.6,2-53,13.5s-21.9,24.3-21.9,45.8s7.4,34.1,21.9,45.8c10.6,8.6,22.5,11.8,35.9,12.9L167,209.4z"
	/>
<g>
	<rect x="133.2" y="209.7" class="st1" width="33.9" height="6.8"/>
	<line class="st1" x1="133.2" y1="214.2" x2="167.1" y2="214.2"/>
</g>
</svg>
