<svg xmlns="http://www.w3.org/2000/svg" viewBox="0 0 300 263"><defs><style>.cls-1,.cls-2,.cls-3,.cls-4,.cls-5{fill:none;stroke-linecap:round;}.cls-1,.cls-2,.cls-5{stroke:red;}.cls-1,.cls-2,.cls-4,.cls-5{stroke-linejoin:round;}.cls-1{stroke-width:0.6px;}.cls-3,.cls-4{stroke:#000;}.cls-3{stroke-miterlimit:10;}.cls-3,.cls-4,.cls-5{stroke-width:0.6px;}</style></defs><title>glo-ball-basic-1-table-morrison-flos-F3021000-curva-fotometrica</title><g id="numeri_esterni_diagramma" data-name="numeri esterni diagramma"><path d="M148.27,239.2a6.85,6.85,0,0,1,.08-1,3.41,3.41,0,0,1,.3-.95,1.94,1.94,0,0,1,.59-.71,1.57,1.57,0,0,1,.95-.27,1.6,1.6,0,0,1,1,.27,2,2,0,0,1,.59.71,3.1,3.1,0,0,1,.29.95,5.7,5.7,0,0,1,.08,1,5.85,5.85,0,0,1-.08,1,3.13,3.13,0,0,1-.29.94,2,2,0,0,1-.59.71,1.6,1.6,0,0,1-1,.27,1.57,1.57,0,0,1-.95-.27,1.94,1.94,0,0,1-.59-.71,3.45,3.45,0,0,1-.3-.94A7.07,7.07,0,0,1,148.27,239.2Zm.68,0c0,.13,0,.29,0,.46a4.88,4.88,0,0,0,.06.52,2.83,2.83,0,0,0,.13.5,1.65,1.65,0,0,0,.22.44,1.24,1.24,0,0,0,.34.31,1,1,0,0,0,.48.12.9.9,0,0,0,.48-.12,1,1,0,0,0,.34-.31,1.41,1.41,0,0,0,.23-.44,4.07,4.07,0,0,0,.13-.5c0-.18,0-.35.06-.52s0-.33,0-.46,0-.3,0-.47,0-.34-.06-.51a3.8,3.8,0,0,0-.13-.51,1.53,1.53,0,0,0-.23-.44,1,1,0,0,0-.34-.31.9.9,0,0,0-.48-.12,1,1,0,0,0-.48.12,1.24,1.24,0,0,0-.34.31,1.81,1.81,0,0,0-.22.44,2.72,2.72,0,0,0-.13.51,4.43,4.43,0,0,0-.06.51C149,238.9,149,239.06,149,239.2Z"/><path d="M152.83,237.41a1.33,1.33,0,0,1,.08-.45,1.11,1.11,0,0,1,.25-.36,1,1,0,0,1,.36-.24,1.17,1.17,0,0,1,.9,0,1,1,0,0,1,.36.24,1.11,1.11,0,0,1,.25.36,1.31,1.31,0,0,1,0,.9,1.23,1.23,0,0,1-.61.61,1.17,1.17,0,0,1-.9,0,1.23,1.23,0,0,1-.61-.61A1.33,1.33,0,0,1,152.83,237.41Zm.43,0a.79.79,0,0,0,.05.25.68.68,0,0,0,.14.23.66.66,0,0,0,.23.17.73.73,0,0,0,.58,0,.76.76,0,0,0,.23-.17.88.88,0,0,0,.14-.23.65.65,0,0,0,0-.5,1.09,1.09,0,0,0-.14-.23,1,1,0,0,0-.23-.17.73.73,0,0,0-.58,0,.81.81,0,0,0-.23.17.75.75,0,0,0-.19.48Z"/><path d="M203.17,238.76h.21l.43,0a1.15,1.15,0,0,0,.42-.13.77.77,0,0,0,.31-.31.94.94,0,0,0,.13-.51.87.87,0,0,0-.27-.68,1,1,0,0,0-.7-.26,1.28,1.28,0,0,0-.63.16,1.14,1.14,0,0,0-.41.48l-.65-.25a1.48,1.48,0,0,1,.65-.72,2.07,2.07,0,0,1,1-.24,2.25,2.25,0,0,1,.64.09,1.72,1.72,0,0,1,.54.28,1.37,1.37,0,0,1,.37.46,1.48,1.48,0,0,1,.14.65,1.29,1.29,0,0,1-.27.8,1.34,1.34,0,0,1-.7.49v0a1.48,1.48,0,0,1,.85.49,1.37,1.37,0,0,1,.23.43,1.69,1.69,0,0,1,.08.5,1.66,1.66,0,0,1-.15.72,1.57,1.57,0,0,1-.41.51,1.71,1.71,0,0,1-.6.31,2.34,2.34,0,0,1-.71.1,2.18,2.18,0,0,1-1.13-.28,1.61,1.61,0,0,1-.7-.91l.68-.22a1.33,1.33,0,0,0,.41.65,1.3,1.3,0,0,0,.74.19,1.33,1.33,0,0,0,.45-.08,1.11,1.11,0,0,0,.36-.23,1.24,1.24,0,0,0,.25-.35,1.13,1.13,0,0,0,.09-.45,1.07,1.07,0,0,0-.12-.53,1,1,0,0,0-.33-.33,1.23,1.23,0,0,0-.46-.18,2.31,2.31,0,0,0-.52-.06h-.21Z"/><path d="M206.24,239.2a6.85,6.85,0,0,1,.08-1,3.11,3.11,0,0,1,.3-.95,1.94,1.94,0,0,1,.59-.71,1.55,1.55,0,0,1,.95-.27,1.6,1.6,0,0,1,1,.27,2,2,0,0,1,.59.71,3.1,3.1,0,0,1,.29.95,5.7,5.7,0,0,1,.08,1,5.85,5.85,0,0,1-.08,1,3.13,3.13,0,0,1-.29.94,2,2,0,0,1-.59.71,1.6,1.6,0,0,1-1,.27,1.55,1.55,0,0,1-.95-.27,1.94,1.94,0,0,1-.59-.71,3.14,3.14,0,0,1-.3-.94A7.07,7.07,0,0,1,206.24,239.2Zm.67,0c0,.13,0,.29,0,.46a4.88,4.88,0,0,0,.06.52,2.83,2.83,0,0,0,.13.5,1.4,1.4,0,0,0,.22.44,1.24,1.24,0,0,0,.34.31,1,1,0,0,0,.48.12.9.9,0,0,0,.48-.12,1,1,0,0,0,.34-.31,1.41,1.41,0,0,0,.23-.44,4.05,4.05,0,0,0,.12-.5,4.88,4.88,0,0,0,.06-.52,3.86,3.86,0,0,0,0-.46,3.94,3.94,0,0,0,0-.47,4.43,4.43,0,0,0-.06-.51,3.81,3.81,0,0,0-.12-.51,1.53,1.53,0,0,0-.23-.44,1,1,0,0,0-.34-.31.9.9,0,0,0-.48-.12,1,1,0,0,0-.48.12,1.24,1.24,0,0,0-.34.31,1.51,1.51,0,0,0-.22.44,2.72,2.72,0,0,0-.13.51,4.43,4.43,0,0,0-.06.51C206.92,238.9,206.91,239.06,206.91,239.2Z"/><path d="M210.84,237.41a1.13,1.13,0,0,1,.09-.45,1.26,1.26,0,0,1,.24-.36,1.2,1.2,0,0,1,.82-.33,1,1,0,0,1,.44.09,1.12,1.12,0,0,1,.37.24,1.26,1.26,0,0,1,.24.36,1.16,1.16,0,0,1-.24,1.26,1.15,1.15,0,0,1-.37.25,1,1,0,0,1-.44.09,1.13,1.13,0,0,1-.45-.09,1.15,1.15,0,0,1-.37-.25,1.15,1.15,0,0,1-.33-.81Zm.43,0a.61.61,0,0,0,.06.25.68.68,0,0,0,.14.23.72.72,0,0,0,.22.17.73.73,0,0,0,.3.06.72.72,0,0,0,.29-.06.62.62,0,0,0,.22-.17.91.91,0,0,0,.15-.23.65.65,0,0,0,0-.5,1.14,1.14,0,0,0-.15-.23.76.76,0,0,0-.22-.17.72.72,0,0,0-.29-.06.73.73,0,0,0-.3.06.92.92,0,0,0-.22.17.79.79,0,0,0-.14.23A.61.61,0,0,0,211.27,237.41Z"/><path d="M93.6,238.76h.21l.44,0a1.1,1.1,0,0,0,.41-.13.86.86,0,0,0,.32-.31.94.94,0,0,0,.12-.51.87.87,0,0,0-.27-.68,1,1,0,0,0-.7-.26,1.21,1.21,0,0,0-.62.16,1.1,1.1,0,0,0-.42.48l-.65-.25a1.45,1.45,0,0,1,.66-.72,2,2,0,0,1,1-.24,2.32,2.32,0,0,1,.65.09,2,2,0,0,1,.54.28,1.67,1.67,0,0,1,.37.46,1.48,1.48,0,0,1,.13.65,1.29,1.29,0,0,1-.27.8,1.34,1.34,0,0,1-.7.49v0a1.31,1.31,0,0,1,.49.18,1.34,1.34,0,0,1,.36.31,1.37,1.37,0,0,1,.23.43,1.42,1.42,0,0,1,.08.5,1.66,1.66,0,0,1-.15.72,1.57,1.57,0,0,1-.41.51,1.75,1.75,0,0,1-.59.31,2.46,2.46,0,0,1-.72.1,2.18,2.18,0,0,1-1.13-.28,1.56,1.56,0,0,1-.69-.91l.68-.22a1.2,1.2,0,0,0,.41.65,1.27,1.27,0,0,0,.73.19,1.33,1.33,0,0,0,.45-.08,1.11,1.11,0,0,0,.36-.23,1.07,1.07,0,0,0,.25-.35,1.13,1.13,0,0,0,.09-.45,1.07,1.07,0,0,0-.12-.53.87.87,0,0,0-.33-.33,1.17,1.17,0,0,0-.46-.18,2.24,2.24,0,0,0-.52-.06H93.6Z"/><path d="M96.68,239.2a5.7,5.7,0,0,1,.08-1,3.1,3.1,0,0,1,.29-.95,2,2,0,0,1,.59-.71,1.6,1.6,0,0,1,1-.27,1.57,1.57,0,0,1,1,.27,1.94,1.94,0,0,1,.59.71,3.41,3.41,0,0,1,.3.95,6.85,6.85,0,0,1,.08,1,7.07,7.07,0,0,1-.08,1,3.45,3.45,0,0,1-.3.94,1.94,1.94,0,0,1-.59.71,1.57,1.57,0,0,1-1,.27,1.6,1.6,0,0,1-1-.27,2,2,0,0,1-.59-.71,3.13,3.13,0,0,1-.29-.94A5.85,5.85,0,0,1,96.68,239.2Zm.67,0c0,.13,0,.29,0,.46a4.88,4.88,0,0,0,.06.52,4.07,4.07,0,0,0,.13.5,1.41,1.41,0,0,0,.23.44,1,1,0,0,0,.34.31.9.9,0,0,0,.48.12,1,1,0,0,0,.48-.12,1.24,1.24,0,0,0,.34-.31,1.65,1.65,0,0,0,.22-.44,2.83,2.83,0,0,0,.13-.5,4.88,4.88,0,0,0,.06-.52c0-.17,0-.33,0-.46s0-.3,0-.47a4.43,4.43,0,0,0-.06-.51,2.72,2.72,0,0,0-.13-.51,1.81,1.81,0,0,0-.22-.44,1.24,1.24,0,0,0-.34-.31,1,1,0,0,0-.48-.12.9.9,0,0,0-.48.12,1,1,0,0,0-.34.31,1.53,1.53,0,0,0-.23.44,3.8,3.8,0,0,0-.13.51,4.43,4.43,0,0,0-.06.51C97.35,238.9,97.35,239.06,97.35,239.2Z"/><path d="M101.28,237.41a1.33,1.33,0,0,1,.08-.45,1.11,1.11,0,0,1,.25-.36,1,1,0,0,1,.36-.24,1.17,1.17,0,0,1,.9,0,1,1,0,0,1,.36.24,1.11,1.11,0,0,1,.25.36,1.31,1.31,0,0,1,0,.9,1.23,1.23,0,0,1-.61.61,1.17,1.17,0,0,1-.9,0,1.23,1.23,0,0,1-.61-.61A1.33,1.33,0,0,1,101.28,237.41Zm.43,0a.79.79,0,0,0,.05.25.68.68,0,0,0,.14.23.76.76,0,0,0,.23.17.73.73,0,0,0,.58,0,.66.66,0,0,0,.23-.17.68.68,0,0,0,.14-.23.71.71,0,0,0-.14-.73.81.81,0,0,0-.23-.17.73.73,0,0,0-.58,0,1,1,0,0,0-.23.17.75.75,0,0,0-.19.48Z"/><path d="M249.93,137.18h0a1.24,1.24,0,0,1-.37.12,1.84,1.84,0,0,1-.39,0,1.91,1.91,0,0,1-.68-.12,1.58,1.58,0,0,1-.54-.37,1.63,1.63,0,0,1-.36-.56,2.05,2.05,0,0,1-.13-.72,1.79,1.79,0,0,1,.15-.75,1.48,1.48,0,0,1,.4-.55,1.79,1.79,0,0,1,.6-.35,2,2,0,0,1,.75-.13,2.11,2.11,0,0,1,.75.13,1.79,1.79,0,0,1,.6.35,1.59,1.59,0,0,1,.4.55,1.79,1.79,0,0,1,.14.75,2.15,2.15,0,0,1,0,.45,1.68,1.68,0,0,1-.11.4,2.59,2.59,0,0,1-.17.38l-.21.36-1.51,2.39h-.78Zm-.59-.42a1.28,1.28,0,0,0,.48-.09,1,1,0,0,0,.39-.24,1.23,1.23,0,0,0,.26-.37,1.43,1.43,0,0,0,0-1,1.1,1.1,0,0,0-.65-.62,1.48,1.48,0,0,0-1,0,1.28,1.28,0,0,0-.39.24,1.12,1.12,0,0,0-.26.38,1.3,1.3,0,0,0,0,1,1.08,1.08,0,0,0,.26.37,1,1,0,0,0,.39.24A1.28,1.28,0,0,0,249.34,136.76Z"/><path d="M251.82,136.71a7.07,7.07,0,0,1,.08-1,3.19,3.19,0,0,1,.29-1,2,2,0,0,1,.59-.7,1.54,1.54,0,0,1,1-.28,1.49,1.49,0,0,1,.95.28,1.91,1.91,0,0,1,.59.7,2.94,2.94,0,0,1,.3,1,6.29,6.29,0,0,1,0,2,2.94,2.94,0,0,1-.3.95,1.91,1.91,0,0,1-.59.7,1.49,1.49,0,0,1-.95.28,1.54,1.54,0,0,1-1-.28,2,2,0,0,1-.59-.7,3.19,3.19,0,0,1-.29-.95A7.07,7.07,0,0,1,251.82,136.71Zm.67,0c0,.14,0,.29,0,.46a4.6,4.6,0,0,0,.06.52,4.7,4.7,0,0,0,.12.51,2,2,0,0,0,.23.44,1,1,0,0,0,.34.31,1,1,0,0,0,.48.11,1.06,1.06,0,0,0,.48-.11,1.24,1.24,0,0,0,.34-.31,1.65,1.65,0,0,0,.22-.44,3.18,3.18,0,0,0,.13-.51,4.6,4.6,0,0,0,.06-.52c0-.17,0-.32,0-.46s0-.29,0-.46a4.6,4.6,0,0,0-.06-.52,3.18,3.18,0,0,0-.13-.51,1.65,1.65,0,0,0-.22-.44,1.24,1.24,0,0,0-.34-.31,1.06,1.06,0,0,0-.48-.11,1,1,0,0,0-.48.11,1,1,0,0,0-.34.31,2,2,0,0,0-.23.44,4.7,4.7,0,0,0-.12.51,4.6,4.6,0,0,0-.06.52C252.5,136.42,252.49,136.57,252.49,136.71Z"/><path d="M256.42,134.93a1.13,1.13,0,0,1,.09-.45,1.31,1.31,0,0,1,.24-.37,1.18,1.18,0,0,1,.37-.24,1,1,0,0,1,.44-.09,1.13,1.13,0,0,1,.45.09,1.06,1.06,0,0,1,.61.61,1.13,1.13,0,0,1,.09.45,1,1,0,0,1-.09.44,1.06,1.06,0,0,1-.61.61,1.13,1.13,0,0,1-.45.09,1,1,0,0,1-.44-.09,1.18,1.18,0,0,1-.37-.24,1.31,1.31,0,0,1-.24-.37A1,1,0,0,1,256.42,134.93Zm.43,0a.69.69,0,0,0,0,.24,1,1,0,0,0,.15.24.73.73,0,0,0,.51.23.54.54,0,0,0,.29-.07.63.63,0,0,0,.23-.16.72.72,0,0,0,.14-.24.52.52,0,0,0,0-.24.56.56,0,0,0,0-.25.59.59,0,0,0-.14-.23.74.74,0,0,0-.52-.24.73.73,0,0,0-.29.07.62.62,0,0,0-.22.17.76.76,0,0,0-.15.23A.74.74,0,0,0,256.85,134.93Z"/><path d="M41.57,137.18h0a1.34,1.34,0,0,1-.37.12,2,2,0,0,1-.39,0,1.92,1.92,0,0,1-.69-.12,1.58,1.58,0,0,1-.54-.37,1.8,1.8,0,0,1-.36-.56,2.05,2.05,0,0,1-.13-.72,1.79,1.79,0,0,1,.15-.75,1.48,1.48,0,0,1,.4-.55,1.79,1.79,0,0,1,.6-.35,2.23,2.23,0,0,1,1.5,0,1.79,1.79,0,0,1,.6.35,1.48,1.48,0,0,1,.4.55,1.79,1.79,0,0,1,.15.75,3.14,3.14,0,0,1,0,.45,2.34,2.34,0,0,1-.12.4,1.84,1.84,0,0,1-.17.38,3.35,3.35,0,0,1-.21.36l-1.5,2.39h-.79Zm-.59-.42a1.28,1.28,0,0,0,.48-.09,1,1,0,0,0,.39-.24,1.23,1.23,0,0,0,.26-.37,1.3,1.3,0,0,0,0-1,1.1,1.1,0,0,0-.65-.62,1.48,1.48,0,0,0-1,0,1.1,1.1,0,0,0-.65.62,1.43,1.43,0,0,0,0,1,1.23,1.23,0,0,0,.26.37,1,1,0,0,0,.39.24A1.28,1.28,0,0,0,41,136.76Z"/><path d="M43.46,136.71a7.07,7.07,0,0,1,.08-1,2.94,2.94,0,0,1,.3-1,1.91,1.91,0,0,1,.59-.7,1.49,1.49,0,0,1,1-.28,1.54,1.54,0,0,1,1,.28,2,2,0,0,1,.59.7,3.19,3.19,0,0,1,.29,1,6.29,6.29,0,0,1,0,2,3.19,3.19,0,0,1-.29.95,2,2,0,0,1-.59.7,1.54,1.54,0,0,1-1,.28,1.49,1.49,0,0,1-1-.28,1.91,1.91,0,0,1-.59-.7,2.94,2.94,0,0,1-.3-.95A7.07,7.07,0,0,1,43.46,136.71Zm.67,0c0,.14,0,.29,0,.46a4.6,4.6,0,0,0,.06.52,3.18,3.18,0,0,0,.13.51,1.65,1.65,0,0,0,.22.44,1.12,1.12,0,0,0,.34.31,1.1,1.1,0,0,0,1,0,1.12,1.12,0,0,0,.34-.31,2,2,0,0,0,.23-.44,4.7,4.7,0,0,0,.12-.51,4.6,4.6,0,0,0,.06-.52c0-.17,0-.32,0-.46s0-.29,0-.46a4.6,4.6,0,0,0-.06-.52,4.7,4.7,0,0,0-.12-.51,2,2,0,0,0-.23-.44,1.12,1.12,0,0,0-.34-.31,1.1,1.1,0,0,0-1,0,1.12,1.12,0,0,0-.34.31,1.65,1.65,0,0,0-.22.44,3.18,3.18,0,0,0-.13.51,4.6,4.6,0,0,0-.06.52C44.14,136.42,44.13,136.57,44.13,136.71Z"/><path d="M48.06,134.93a1.13,1.13,0,0,1,.09-.45,1.06,1.06,0,0,1,.61-.61,1.13,1.13,0,0,1,.45-.09,1.08,1.08,0,0,1,.44.09,1.06,1.06,0,0,1,.61.61,1.13,1.13,0,0,1,.09.45,1,1,0,0,1-.09.44,1.06,1.06,0,0,1-.61.61,1.08,1.08,0,0,1-.44.09,1.13,1.13,0,0,1-.45-.09,1.06,1.06,0,0,1-.61-.61A1,1,0,0,1,48.06,134.93Zm.43,0a.53.53,0,0,0,.06.24.72.72,0,0,0,.14.24.69.69,0,0,0,.22.16.6.6,0,0,0,.3.07.73.73,0,0,0,.51-.23,1,1,0,0,0,.15-.24.69.69,0,0,0,.05-.24.74.74,0,0,0-.05-.25.76.76,0,0,0-.15-.23.62.62,0,0,0-.22-.17.73.73,0,0,0-.29-.07.73.73,0,0,0-.3.07.72.72,0,0,0-.22.17.59.59,0,0,0-.14.23A.57.57,0,0,0,48.49,134.93Z"/><path d="M148.37,38.51h-.68v-4.8h0l-1,.85-.4-.48,1.52-1.24h.59Z"/><path d="M150.49,34.23a1.48,1.48,0,0,1,.13-.61,1.2,1.2,0,0,1,.34-.46,1.44,1.44,0,0,1,.51-.3,1.92,1.92,0,0,1,1.28,0,1.44,1.44,0,0,1,.51.3,1.2,1.2,0,0,1,.34.46,1.33,1.33,0,0,1,.13.61,1.16,1.16,0,0,1-.07.4,1.41,1.41,0,0,1-.18.37,1.33,1.33,0,0,1-.29.29,1.18,1.18,0,0,1-.39.19h0a1.44,1.44,0,0,1,.46.19,1.35,1.35,0,0,1,.35.32,1.42,1.42,0,0,1,.23.44,1.7,1.7,0,0,1,.08.51,1.74,1.74,0,0,1-.14.69,1.43,1.43,0,0,1-.39.52,1.47,1.47,0,0,1-.57.33,2.35,2.35,0,0,1-1.42,0,1.47,1.47,0,0,1-.57-.33,1.55,1.55,0,0,1-.39-.52,1.74,1.74,0,0,1-.14-.69,1.7,1.7,0,0,1,.08-.51,1.67,1.67,0,0,1,.23-.44,1.35,1.35,0,0,1,.35-.32,1.44,1.44,0,0,1,.46-.19h0a1.18,1.18,0,0,1-.39-.19,1.33,1.33,0,0,1-.29-.29,1.41,1.41,0,0,1-.18-.37A1.46,1.46,0,0,1,150.49,34.23ZM151,36.9a1.18,1.18,0,0,0,.09.46,1.07,1.07,0,0,0,.25.35,1,1,0,0,0,.36.23,1.12,1.12,0,0,0,.88,0,1,1,0,0,0,.36-.23,1.07,1.07,0,0,0,.25-.35,1.18,1.18,0,0,0,.09-.46,1.14,1.14,0,0,0-.09-.46,1.13,1.13,0,0,0-.61-.58,1.12,1.12,0,0,0-.88,0,1.13,1.13,0,0,0-.61.58A1.14,1.14,0,0,0,151,36.9Zm.2-2.64a.88.88,0,0,0,.26.67,1,1,0,0,0,1.36,0,1,1,0,0,0,0-1.34,1,1,0,0,0-1.36,0A.88.88,0,0,0,151.17,34.26Z"/><path d="M154.64,35.68a7,7,0,0,1,.08-1,3.1,3.1,0,0,1,.29-1,2,2,0,0,1,.59-.71,1.6,1.6,0,0,1,1-.27,1.55,1.55,0,0,1,.95.27,1.94,1.94,0,0,1,.59.71,2.86,2.86,0,0,1,.3,1,7,7,0,0,1,.08,1,7.07,7.07,0,0,1-.08,1,2.88,2.88,0,0,1-.3.94,1.94,1.94,0,0,1-.59.71,1.55,1.55,0,0,1-.95.27,1.6,1.6,0,0,1-1-.27,2,2,0,0,1-.59-.71,3.13,3.13,0,0,1-.29-.94A7.07,7.07,0,0,1,154.64,35.68Zm.67,0c0,.13,0,.29,0,.46a4.88,4.88,0,0,0,.06.52,4.05,4.05,0,0,0,.12.5,1.66,1.66,0,0,0,.23.44,1.12,1.12,0,0,0,.34.31,1,1,0,0,0,1,0,1.12,1.12,0,0,0,.34-.31,1.4,1.4,0,0,0,.22-.44,2.83,2.83,0,0,0,.13-.5,4.88,4.88,0,0,0,.06-.52c0-.17,0-.33,0-.46s0-.3,0-.47a4.43,4.43,0,0,0-.06-.51,2.72,2.72,0,0,0-.13-.51,1.51,1.51,0,0,0-.22-.44,1.12,1.12,0,0,0-.34-.31,1,1,0,0,0-1,0,1.12,1.12,0,0,0-.34.31,1.83,1.83,0,0,0-.23.44,3.81,3.81,0,0,0-.12.51,4.43,4.43,0,0,0-.06.51C155.32,35.38,155.31,35.54,155.31,35.68Z"/><path d="M159.24,33.89a1.15,1.15,0,0,1,.33-.81,1,1,0,0,1,.37-.24,1,1,0,0,1,.44-.09,1.15,1.15,0,0,1,.82,2,1.15,1.15,0,0,1-.37.25,1.13,1.13,0,0,1-.45.09,1.15,1.15,0,0,1-.81-.34,1.15,1.15,0,0,1-.33-.81Zm.43,0a.79.79,0,0,0,.05.25,1.14,1.14,0,0,0,.15.23.62.62,0,0,0,.22.17.72.72,0,0,0,.29.06.68.68,0,0,0,.52-.23.79.79,0,0,0,.14-.23.65.65,0,0,0,0-.5.79.79,0,0,0-.14-.23.81.81,0,0,0-.23-.17.65.65,0,0,0-.29-.06.72.72,0,0,0-.29.06.76.76,0,0,0-.22.17,1.14,1.14,0,0,0-.15.23A.79.79,0,0,0,159.67,33.89Z"/><path d="M203.18,38.51h-.68v-4.8h0l-1,.85-.4-.48,1.52-1.24h.59Z"/><path d="M208.49,33.47h-2.31l0,1.53a1.08,1.08,0,0,1,.36-.11l.37,0a2,2,0,0,1,.74.14,1.61,1.61,0,0,1,.57.39,1.9,1.9,0,0,1,.37.59,2,2,0,0,1,.13.74,2,2,0,0,1-.15.78,1.74,1.74,0,0,1-.41.59,1.91,1.91,0,0,1-.61.38,2.2,2.2,0,0,1-.78.13,1.73,1.73,0,0,1-1-.28,2,2,0,0,1-.63-.75l.67-.25a1.31,1.31,0,0,0,.42.51,1.1,1.1,0,0,0,.64.2,1.28,1.28,0,0,0,.48-.09,1.26,1.26,0,0,0,.38-.27,1.15,1.15,0,0,0,.26-.41,1.53,1.53,0,0,0,.1-.54,1.38,1.38,0,0,0-.11-.55,1.08,1.08,0,0,0-.3-.4,1.26,1.26,0,0,0-.44-.25,1.67,1.67,0,0,0-.55-.08,1.84,1.84,0,0,0-.6.1,2.58,2.58,0,0,0-.56.25l.06-2.95h3Z"/><path d="M209.45,35.68a7,7,0,0,1,.08-1,3.1,3.1,0,0,1,.29-1,2,2,0,0,1,.59-.71,1.6,1.6,0,0,1,1-.27,1.55,1.55,0,0,1,.95.27,1.94,1.94,0,0,1,.59.71,2.86,2.86,0,0,1,.3,1,7,7,0,0,1,.08,1,7.07,7.07,0,0,1-.08,1,2.88,2.88,0,0,1-.3.94,1.94,1.94,0,0,1-.59.71,1.55,1.55,0,0,1-.95.27,1.6,1.6,0,0,1-1-.27,2,2,0,0,1-.59-.71,3.13,3.13,0,0,1-.29-.94A7.07,7.07,0,0,1,209.45,35.68Zm.67,0c0,.13,0,.29,0,.46a4.88,4.88,0,0,0,.06.52,4.05,4.05,0,0,0,.12.5,1.66,1.66,0,0,0,.23.44,1,1,0,0,0,.34.31.9.9,0,0,0,.48.12,1,1,0,0,0,.48-.12,1.24,1.24,0,0,0,.34-.31,1.4,1.4,0,0,0,.22-.44,2.83,2.83,0,0,0,.13-.5,4.88,4.88,0,0,0,.06-.52c0-.17,0-.33,0-.46s0-.3,0-.47a4.43,4.43,0,0,0-.06-.51,2.72,2.72,0,0,0-.13-.51,1.51,1.51,0,0,0-.22-.44,1.24,1.24,0,0,0-.34-.31,1,1,0,0,0-.48-.12.9.9,0,0,0-.48.12,1,1,0,0,0-.34.31,1.83,1.83,0,0,0-.23.44,3.81,3.81,0,0,0-.12.51,4.43,4.43,0,0,0-.06.51C210.13,35.38,210.12,35.54,210.12,35.68Z"/><path d="M214.05,33.89a1.15,1.15,0,0,1,.33-.81,1,1,0,0,1,.37-.24,1,1,0,0,1,.44-.09,1.13,1.13,0,0,1,.45.09,1,1,0,0,1,.36.24,1,1,0,0,1,.25.36,1.17,1.17,0,0,1,0,.9,1.23,1.23,0,0,1-.61.61,1.13,1.13,0,0,1-.45.09,1.15,1.15,0,0,1-.81-.34,1.15,1.15,0,0,1-.33-.81Zm.43,0a.79.79,0,0,0,.05.25,1.14,1.14,0,0,0,.15.23.62.62,0,0,0,.22.17.72.72,0,0,0,.29.06.68.68,0,0,0,.52-.23.79.79,0,0,0,.14-.23.65.65,0,0,0,0-.5.79.79,0,0,0-.14-.23.81.81,0,0,0-.23-.17.65.65,0,0,0-.29-.06.72.72,0,0,0-.29.06.76.76,0,0,0-.22.17,1.14,1.14,0,0,0-.15.23A.79.79,0,0,0,214.48,33.89Z"/><path d="M93.61,38.51h-.67v-4.8h0l-1,.85-.4-.48L93,32.84h.58Z"/><path d="M98.92,33.47H96.61l0,1.53a1,1,0,0,1,.35-.11l.37,0a1.91,1.91,0,0,1,.74.14,1.65,1.65,0,0,1,.58.39A1.71,1.71,0,0,1,99,36a2,2,0,0,1,.13.74,2,2,0,0,1-.15.78,1.71,1.71,0,0,1-.4.59,2,2,0,0,1-.62.38,2.15,2.15,0,0,1-.77.13,1.78,1.78,0,0,1-1.05-.28,1.85,1.85,0,0,1-.62-.75l.67-.25a1.16,1.16,0,0,0,.42.51,1.05,1.05,0,0,0,.63.2,1.28,1.28,0,0,0,.48-.09,1.23,1.23,0,0,0,.64-.68,1.33,1.33,0,0,0,.1-.54,1.38,1.38,0,0,0-.11-.55,1.18,1.18,0,0,0-.29-.4,1.41,1.41,0,0,0-.45-.25,1.63,1.63,0,0,0-.55-.08,1.78,1.78,0,0,0-.59.1,2.58,2.58,0,0,0-.56.25l0-2.95h3Z"/><path d="M99.88,35.68a7,7,0,0,1,.08-1,3.11,3.11,0,0,1,.3-1,1.94,1.94,0,0,1,.59-.71,1.55,1.55,0,0,1,1-.27,1.6,1.6,0,0,1,1,.27,2,2,0,0,1,.59.71,3.1,3.1,0,0,1,.29,1,5.77,5.77,0,0,1,.08,1,5.85,5.85,0,0,1-.08,1,3.13,3.13,0,0,1-.29.94,2,2,0,0,1-.59.71,1.6,1.6,0,0,1-1,.27,1.55,1.55,0,0,1-1-.27,1.94,1.94,0,0,1-.59-.71,3.14,3.14,0,0,1-.3-.94A7.07,7.07,0,0,1,99.88,35.68Zm.67,0c0,.13,0,.29,0,.46a4.88,4.88,0,0,0,.06.52,2.83,2.83,0,0,0,.13.5,1.4,1.4,0,0,0,.22.44,1.24,1.24,0,0,0,.34.31,1,1,0,0,0,.48.12.9.9,0,0,0,.48-.12,1,1,0,0,0,.34-.31,1.41,1.41,0,0,0,.23-.44,4.05,4.05,0,0,0,.12-.5,4.88,4.88,0,0,0,.06-.52c0-.17,0-.33,0-.46s0-.3,0-.47a4.43,4.43,0,0,0-.06-.51,3.81,3.81,0,0,0-.12-.51,1.53,1.53,0,0,0-.23-.44,1,1,0,0,0-.34-.31.9.9,0,0,0-.48-.12,1,1,0,0,0-.48.12,1.24,1.24,0,0,0-.34.31,1.51,1.51,0,0,0-.22.44,2.72,2.72,0,0,0-.13.51,4.43,4.43,0,0,0-.06.51C100.56,35.38,100.55,35.54,100.55,35.68Z"/><path d="M104.48,33.89a1.15,1.15,0,0,1,1.15-1.14,1,1,0,0,1,.44.09,1.12,1.12,0,0,1,.37.24,1.16,1.16,0,0,1,0,1.62,1.15,1.15,0,0,1-.37.25,1,1,0,0,1-.44.09,1.13,1.13,0,0,1-.45-.09,1.15,1.15,0,0,1-.37-.25,1.15,1.15,0,0,1-.33-.81Zm.43,0a.61.61,0,0,0,.06.25.79.79,0,0,0,.14.23.72.72,0,0,0,.22.17.73.73,0,0,0,.3.06.72.72,0,0,0,.29-.06.62.62,0,0,0,.22-.17,1.14,1.14,0,0,0,.15-.23.65.65,0,0,0,0-.5,1.14,1.14,0,0,0-.15-.23.76.76,0,0,0-.22-.17.72.72,0,0,0-.29-.06.73.73,0,0,0-.3.06.92.92,0,0,0-.22.17.79.79,0,0,0-.14.23A.61.61,0,0,0,104.91,33.89Z"/><path d="M248.75,192.45v0a1.35,1.35,0,0,1,.37-.13,2,2,0,0,1,.39,0,1.73,1.73,0,0,1,.69.13,1.42,1.42,0,0,1,.54.36,1.85,1.85,0,0,1,.36.57,2,2,0,0,1,.12.72,1.78,1.78,0,0,1-.14.74,1.74,1.74,0,0,1-.4.56,2,2,0,0,1-.6.35,2.36,2.36,0,0,1-.75.12,2.27,2.27,0,0,1-.75-.12,2,2,0,0,1-.6-.35,1.6,1.6,0,0,1-.4-.56,1.78,1.78,0,0,1-.15-.74,2.24,2.24,0,0,1,.15-.86,5.28,5.28,0,0,1,.39-.74l1.5-2.39h.79Zm.59.43a1.23,1.23,0,0,0-.87.32,1,1,0,0,0-.26.38,1.31,1.31,0,0,0-.1.5,1.35,1.35,0,0,0,.1.5,1.08,1.08,0,0,0,.26.37,1,1,0,0,0,.39.24,1.32,1.32,0,0,0,1,0,1,1,0,0,0,.39-.24,1.23,1.23,0,0,0,.26-.37,1.35,1.35,0,0,0,.09-.5,1.31,1.31,0,0,0-.09-.5,1.16,1.16,0,0,0-.26-.38,1.23,1.23,0,0,0-.87-.32Z"/><path d="M251.82,192.92a7.07,7.07,0,0,1,.08-1,3.13,3.13,0,0,1,.29-.94,2,2,0,0,1,.59-.71,1.6,1.6,0,0,1,1-.27,1.55,1.55,0,0,1,.95.27,1.94,1.94,0,0,1,.59.71,2.88,2.88,0,0,1,.3.94,7.07,7.07,0,0,1,.08,1,7,7,0,0,1-.08,1,2.86,2.86,0,0,1-.3,1,1.94,1.94,0,0,1-.59.71,1.55,1.55,0,0,1-.95.27,1.6,1.6,0,0,1-1-.27,2,2,0,0,1-.59-.71,3.1,3.1,0,0,1-.29-1A7,7,0,0,1,251.82,192.92Zm.67,0c0,.14,0,.3,0,.47a4.43,4.43,0,0,0,.06.51,3.81,3.81,0,0,0,.12.51,1.83,1.83,0,0,0,.23.44,1,1,0,0,0,.34.31.9.9,0,0,0,.48.12,1,1,0,0,0,.48-.12,1.24,1.24,0,0,0,.34-.31,1.51,1.51,0,0,0,.22-.44,2.72,2.72,0,0,0,.13-.51,4.43,4.43,0,0,0,.06-.51c0-.17,0-.33,0-.47s0-.29,0-.46a4.88,4.88,0,0,0-.06-.52,2.83,2.83,0,0,0-.13-.5,1.4,1.4,0,0,0-.22-.44,1.1,1.1,0,0,0-.34-.31,1,1,0,0,0-.48-.12.9.9,0,0,0-.48.12.92.92,0,0,0-.34.31,1.66,1.66,0,0,0-.23.44,4.05,4.05,0,0,0-.12.5,4.88,4.88,0,0,0-.06.52C252.5,192.63,252.49,192.79,252.49,192.92Z"/><path d="M256.42,191.14a1.15,1.15,0,0,1,.33-.81,1.05,1.05,0,0,1,.37-.25,1.23,1.23,0,0,1,.44-.08,1.33,1.33,0,0,1,.45.08,1.15,1.15,0,0,1,.37.25,1.16,1.16,0,0,1,0,1.62,1.15,1.15,0,0,1-.37.25,1.33,1.33,0,0,1-.45.08,1.23,1.23,0,0,1-.44-.08,1.05,1.05,0,0,1-.37-.25,1.15,1.15,0,0,1-.33-.81Zm.43,0a.79.79,0,0,0,0,.25,1.14,1.14,0,0,0,.15.23.62.62,0,0,0,.22.17.72.72,0,0,0,.29.06.68.68,0,0,0,.52-.23.79.79,0,0,0,.14-.23.65.65,0,0,0,0-.5.79.79,0,0,0-.14-.23.68.68,0,0,0-.52-.23.72.72,0,0,0-.29.06.62.62,0,0,0-.22.17,1.14,1.14,0,0,0-.15.23A.79.79,0,0,0,256.85,191.14Z"/><path d="M250,81.22h-.67v-4.8h0l-1,.86-.4-.49,1.52-1.23H250Z"/><path d="M251.92,80.45l2.13-2.08c.13-.12.25-.24.35-.35a2.16,2.16,0,0,0,.25-.32,1.09,1.09,0,0,0,.15-.33,1.38,1.38,0,0,0,0-.37,1,1,0,0,0-.08-.4.84.84,0,0,0-.22-.3.78.78,0,0,0-.33-.19,1.05,1.05,0,0,0-.4-.07,1,1,0,0,0-.71.25,1.08,1.08,0,0,0-.36.65l-.73-.06a1.83,1.83,0,0,1,.21-.61,1.41,1.41,0,0,1,.39-.45,2,2,0,0,1,.53-.27,2.25,2.25,0,0,1,.64-.09,2.41,2.41,0,0,1,.67.1,1.92,1.92,0,0,1,.55.29,1.44,1.44,0,0,1,.51,1.15,2,2,0,0,1-.09.61,2,2,0,0,1-.25.5,3.47,3.47,0,0,1-.35.43l-.41.4-1.75,1.64v0h2.89v.62h-3.64Z"/><path d="M256.27,78.39a5.85,5.85,0,0,1,.08-1,3.19,3.19,0,0,1,.29-1,2,2,0,0,1,.59-.7,1.54,1.54,0,0,1,1-.28,1.51,1.51,0,0,1,.95.28,1.91,1.91,0,0,1,.59.7,3.2,3.2,0,0,1,.3,1,6.29,6.29,0,0,1,0,2,3.2,3.2,0,0,1-.3,1,1.91,1.91,0,0,1-.59.7,1.51,1.51,0,0,1-.95.28,1.54,1.54,0,0,1-1-.28,2,2,0,0,1-.59-.7,3.19,3.19,0,0,1-.29-1A5.85,5.85,0,0,1,256.27,78.39Zm.67,0a3.78,3.78,0,0,0,0,.46c0,.17,0,.35.05.52a4.77,4.77,0,0,0,.13.51,1.67,1.67,0,0,0,.23.44,1,1,0,0,0,.34.31,1,1,0,0,0,.48.11,1.06,1.06,0,0,0,.48-.11,1.24,1.24,0,0,0,.34-.31,2,2,0,0,0,.22-.44,3.18,3.18,0,0,0,.13-.51,4.6,4.6,0,0,0,.06-.52c0-.17,0-.32,0-.46s0-.29,0-.46a4.35,4.35,0,0,0-.06-.52,3.18,3.18,0,0,0-.13-.51,2,2,0,0,0-.22-.44,1.24,1.24,0,0,0-.34-.31,1.06,1.06,0,0,0-.48-.11,1,1,0,0,0-.48.11,1,1,0,0,0-.34.31,1.67,1.67,0,0,0-.23.44,4.77,4.77,0,0,0-.13.51c0,.17,0,.34-.05.52A3.78,3.78,0,0,0,256.94,78.39Z"/><path d="M260.87,76.61a1.13,1.13,0,0,1,.09-.45,1,1,0,0,1,.24-.37,1.16,1.16,0,0,1,1.62,0,1.15,1.15,0,0,1,.25.37,1.13,1.13,0,0,1,.09.45,1,1,0,0,1-.09.44,1.15,1.15,0,0,1-.25.37,1.16,1.16,0,0,1-1.62,0,1,1,0,0,1-.24-.37A1,1,0,0,1,260.87,76.61Zm.43,0a.69.69,0,0,0,.05.24.75.75,0,0,0,.15.24.6.6,0,0,0,.22.16.64.64,0,0,0,.58,0,.63.63,0,0,0,.23-.16.72.72,0,0,0,.14-.24.52.52,0,0,0,.05-.24.56.56,0,0,0-.05-.25.59.59,0,0,0-.14-.23.66.66,0,0,0-.23-.17.64.64,0,0,0-.58,0,.62.62,0,0,0-.22.17.61.61,0,0,0-.15.23A.74.74,0,0,0,261.3,76.61Z"/><path d="M40.39,192.45v0a1.42,1.42,0,0,1,.38-.13,1.84,1.84,0,0,1,.39,0,1.72,1.72,0,0,1,.68.13,1.42,1.42,0,0,1,.54.36,1.85,1.85,0,0,1,.36.57,2,2,0,0,1,.13.72,1.78,1.78,0,0,1-.15.74,1.6,1.6,0,0,1-.4.56,2,2,0,0,1-.6.35,2.4,2.4,0,0,1-1.5,0,2,2,0,0,1-.6-.35,1.6,1.6,0,0,1-.4-.56,1.78,1.78,0,0,1-.15-.74,2.24,2.24,0,0,1,.16-.86,5.19,5.19,0,0,1,.38-.74l1.5-2.39h.79Zm.59.43a1.23,1.23,0,0,0-.87.32,1.16,1.16,0,0,0-.26.38,1.31,1.31,0,0,0-.09.5,1.35,1.35,0,0,0,.09.5,1.23,1.23,0,0,0,.26.37,1,1,0,0,0,.39.24,1.32,1.32,0,0,0,1,0,1,1,0,0,0,.39-.24,1.23,1.23,0,0,0,.26-.37,1.35,1.35,0,0,0,.1-.5,1.31,1.31,0,0,0-.1-.5,1.16,1.16,0,0,0-.26-.38,1.23,1.23,0,0,0-.87-.32Z"/><path d="M43.46,192.92a7.07,7.07,0,0,1,.08-1,2.88,2.88,0,0,1,.3-.94,1.94,1.94,0,0,1,.59-.71,1.55,1.55,0,0,1,1-.27,1.6,1.6,0,0,1,1,.27,2,2,0,0,1,.59.71,3.13,3.13,0,0,1,.29.94,7.07,7.07,0,0,1,.08,1,7,7,0,0,1-.08,1,3.1,3.1,0,0,1-.29,1,2,2,0,0,1-.59.71,1.6,1.6,0,0,1-1,.27,1.55,1.55,0,0,1-1-.27,1.94,1.94,0,0,1-.59-.71,2.86,2.86,0,0,1-.3-1A7,7,0,0,1,43.46,192.92Zm.67,0c0,.14,0,.3,0,.47a4.43,4.43,0,0,0,.06.51,2.72,2.72,0,0,0,.13.51,1.51,1.51,0,0,0,.22.44,1.12,1.12,0,0,0,.34.31,1,1,0,0,0,1,0,1.12,1.12,0,0,0,.34-.31,1.83,1.83,0,0,0,.23-.44,3.81,3.81,0,0,0,.12-.51,4.43,4.43,0,0,0,.06-.51c0-.17,0-.33,0-.47s0-.29,0-.46a4.88,4.88,0,0,0-.06-.52,4.05,4.05,0,0,0-.12-.5,1.66,1.66,0,0,0-.23-.44,1,1,0,0,0-.34-.31,1,1,0,0,0-1,0,1,1,0,0,0-.34.31,1.4,1.4,0,0,0-.22.44,2.83,2.83,0,0,0-.13.5,4.88,4.88,0,0,0-.06.52C44.14,192.63,44.13,192.79,44.13,192.92Z"/><path d="M48.06,191.14a1.15,1.15,0,0,1,.33-.81,1.15,1.15,0,0,1,.37-.25,1.33,1.33,0,0,1,.45-.08,1.27,1.27,0,0,1,.44.08,1.15,1.15,0,0,1,.37.25A1.16,1.16,0,0,1,50,192a1.15,1.15,0,0,1-.37.25,1.27,1.27,0,0,1-.44.08,1.33,1.33,0,0,1-.45-.08,1.15,1.15,0,0,1-.37-.25,1.15,1.15,0,0,1-.33-.81Zm.43,0a.61.61,0,0,0,.06.25.79.79,0,0,0,.14.23.72.72,0,0,0,.22.17.73.73,0,0,0,.3.06.72.72,0,0,0,.29-.06.62.62,0,0,0,.22-.17,1.14,1.14,0,0,0,.15-.23.65.65,0,0,0,0-.5,1.14,1.14,0,0,0-.15-.23.62.62,0,0,0-.22-.17.72.72,0,0,0-.29-.06.73.73,0,0,0-.3.06.72.72,0,0,0-.22.17.79.79,0,0,0-.14.23A.61.61,0,0,0,48.49,191.14Z"/><path d="M39.15,81.22h-.67v-4.8h0l-1,.86-.4-.49,1.52-1.23h.58Z"/><path d="M41.07,80.45l2.14-2.08c.13-.12.25-.24.35-.35a2.16,2.16,0,0,0,.25-.32,1.09,1.09,0,0,0,.15-.33A1.38,1.38,0,0,0,44,77a1,1,0,0,0-.08-.4.84.84,0,0,0-.22-.3.78.78,0,0,0-.33-.19A1.05,1.05,0,0,0,43,76a1,1,0,0,0-.72.25,1.19,1.19,0,0,0-.36.65l-.72-.06a1.47,1.47,0,0,1,.21-.61,1.41,1.41,0,0,1,.39-.45,2,2,0,0,1,.53-.27,2.2,2.2,0,0,1,.64-.09,2.41,2.41,0,0,1,.67.1,2.06,2.06,0,0,1,.55.29,1.47,1.47,0,0,1,.37.48,1.6,1.6,0,0,1,.14.67,2,2,0,0,1-.09.61,2.34,2.34,0,0,1-.25.5,3.47,3.47,0,0,1-.35.43l-.41.4-1.75,1.64v0h2.89v.62H41.07Z"/><path d="M45.43,78.39a7,7,0,0,1,.07-1,3.52,3.52,0,0,1,.3-1,2,2,0,0,1,.59-.7,1.77,1.77,0,0,1,1.91,0,1.91,1.91,0,0,1,.59.7,3.52,3.52,0,0,1,.3,1,6.29,6.29,0,0,1,0,2,3.52,3.52,0,0,1-.3,1,1.91,1.91,0,0,1-.59.7,1.77,1.77,0,0,1-1.91,0,2,2,0,0,1-.59-.7,3.52,3.52,0,0,1-.3-1A7,7,0,0,1,45.43,78.39Zm.67,0c0,.14,0,.29,0,.46a4.6,4.6,0,0,0,.06.52,4.77,4.77,0,0,0,.13.51,2,2,0,0,0,.22.44,1.15,1.15,0,0,0,.35.31,1,1,0,0,0,.48.11,1.06,1.06,0,0,0,.48-.11,1.24,1.24,0,0,0,.34-.31,2,2,0,0,0,.22-.44,3.18,3.18,0,0,0,.13-.51,4.6,4.6,0,0,0,.06-.52c0-.17,0-.32,0-.46s0-.29,0-.46a4.35,4.35,0,0,0-.06-.52,3.18,3.18,0,0,0-.13-.51,2,2,0,0,0-.22-.44,1.24,1.24,0,0,0-.34-.31,1.06,1.06,0,0,0-.48-.11,1,1,0,0,0-.48.11,1.15,1.15,0,0,0-.35.31,2,2,0,0,0-.22.44,4.77,4.77,0,0,0-.13.51,4.35,4.35,0,0,0-.06.52C46.1,78.1,46.1,78.25,46.1,78.39Z"/><path d="M50,76.61a1.12,1.12,0,0,1,.08-.45,1.15,1.15,0,0,1,.25-.37,1.16,1.16,0,0,1,1.62,0,1.15,1.15,0,0,1,.25.37,1.33,1.33,0,0,1,.08.45,1.23,1.23,0,0,1-.08.44,1.15,1.15,0,0,1-.25.37,1.16,1.16,0,0,1-1.62,0,1.15,1.15,0,0,1-.25-.37A1,1,0,0,1,50,76.61Zm.43,0a.52.52,0,0,0,0,.24.72.72,0,0,0,.14.24.63.63,0,0,0,.23.16.64.64,0,0,0,.58,0,.73.73,0,0,0,.23-.16,1,1,0,0,0,.14-.24.69.69,0,0,0,.05-.24.75.75,0,0,0-.19-.48.76.76,0,0,0-.23-.17.64.64,0,0,0-.58,0,.66.66,0,0,0-.23.17.59.59,0,0,0-.14.23A.56.56,0,0,0,50.46,76.61Z"/></g><g id="numeri_fondo_tabella" data-name="numeri fondo tabella"><path d="M131.83,251.42a1.17,1.17,0,0,0-.43-.35,1.19,1.19,0,0,0-.51-.11,1.35,1.35,0,0,0-.55.11,1.08,1.08,0,0,0-.4.3,1.32,1.32,0,0,0-.23.44,1.76,1.76,0,0,0,0,1.08,1.43,1.43,0,0,0,.26.45,1.31,1.31,0,0,0,.39.3,1.27,1.27,0,0,0,.52.1,1.09,1.09,0,0,0,1-.46l.47.44a1.69,1.69,0,0,1-.64.46,2.29,2.29,0,0,1-.78.14,2.22,2.22,0,0,1-.79-.14,1.75,1.75,0,0,1-1-1,2.27,2.27,0,0,1,0-1.57,1.86,1.86,0,0,1,.39-.63,2,2,0,0,1,.61-.41,2,2,0,0,1,.79-.15,2.09,2.09,0,0,1,.79.15,1.59,1.59,0,0,1,.65.45Z"/><path d="M136.21,253.56h0a1.43,1.43,0,0,1-.55.54,1.7,1.7,0,0,1-.89.22,1.8,1.8,0,0,1-.73-.15,1.78,1.78,0,0,1-.6-.41,1.81,1.81,0,0,1-.39-.62,2.06,2.06,0,0,1-.15-.79,2,2,0,0,1,.15-.78,1.88,1.88,0,0,1,.4-.63,1.81,1.81,0,0,1,.62-.41,2.07,2.07,0,0,1,.8-.15,1.72,1.72,0,0,1,.75.17,1.78,1.78,0,0,1,.59.47h0v-2.84h.62v6h-.62Zm0-1.21a1.63,1.63,0,0,0-.09-.55,1.34,1.34,0,0,0-.27-.44,1.37,1.37,0,0,0-.42-.29,1.35,1.35,0,0,0-.55-.11,1.42,1.42,0,0,0-.55.11,1.22,1.22,0,0,0-.41.29,1.34,1.34,0,0,0-.27.44,1.56,1.56,0,0,0,0,1.1,1.25,1.25,0,0,0,.27.44,1.19,1.19,0,0,0,1,.4,1.35,1.35,0,0,0,.55-.1,1.6,1.6,0,0,0,.42-.3,1.25,1.25,0,0,0,.27-.44A1.63,1.63,0,0,0,136.21,252.35Z"/><path d="M140.1,254.57l-.5-.2,2.4-6.15.51.2Z"/><path d="M147.64,254.22H147v-4.8h0l-1,.86-.4-.49,1.52-1.23h.59Z"/><path d="M149.46,251.39a7.07,7.07,0,0,1,.08-1,3.19,3.19,0,0,1,.29-.95,2,2,0,0,1,.59-.7,1.61,1.61,0,0,1,1-.28,1.55,1.55,0,0,1,1,.28,1.91,1.91,0,0,1,.59.7,2.94,2.94,0,0,1,.3.95,6.29,6.29,0,0,1,0,2,2.94,2.94,0,0,1-.3,1,1.91,1.91,0,0,1-.59.7,1.49,1.49,0,0,1-1,.28,1.54,1.54,0,0,1-1-.28,2,2,0,0,1-.59-.7,3.19,3.19,0,0,1-.29-1A7.07,7.07,0,0,1,149.46,251.39Zm.67,0c0,.14,0,.29,0,.47a4.43,4.43,0,0,0,.06.51,4.7,4.7,0,0,0,.12.51,2,2,0,0,0,.23.44,1.12,1.12,0,0,0,.34.31,1.1,1.1,0,0,0,1,0,1.12,1.12,0,0,0,.34-.31,1.65,1.65,0,0,0,.22-.44,3.18,3.18,0,0,0,.13-.51,4.43,4.43,0,0,0,.06-.51c0-.18,0-.33,0-.47s0-.29,0-.46a4.6,4.6,0,0,0-.06-.52,3.18,3.18,0,0,0-.13-.51,1.65,1.65,0,0,0-.22-.44,1.08,1.08,0,0,0-.34-.3,1,1,0,0,0-1,0,1.08,1.08,0,0,0-.34.3,2,2,0,0,0-.23.44,4.7,4.7,0,0,0-.12.51,4.6,4.6,0,0,0-.06.52C150.14,251.1,150.13,251.25,150.13,251.39Z"/><path d="M153.91,251.39a5.85,5.85,0,0,1,.08-1,3.19,3.19,0,0,1,.29-.95,2,2,0,0,1,.59-.7,1.61,1.61,0,0,1,1-.28,1.55,1.55,0,0,1,.95.28,1.91,1.91,0,0,1,.59.7,3.2,3.2,0,0,1,.3.95,6.29,6.29,0,0,1,0,2,3.2,3.2,0,0,1-.3,1,1.91,1.91,0,0,1-.59.7,1.49,1.49,0,0,1-.95.28,1.54,1.54,0,0,1-1-.28,2,2,0,0,1-.59-.7,3.19,3.19,0,0,1-.29-1A5.85,5.85,0,0,1,153.91,251.39Zm.67,0a4,4,0,0,0,0,.47,4.43,4.43,0,0,0,.06.51,3.14,3.14,0,0,0,.12.51,1.67,1.67,0,0,0,.23.44,1,1,0,0,0,.34.31.9.9,0,0,0,.48.11,1,1,0,0,0,.48-.11,1.24,1.24,0,0,0,.34-.31,1.65,1.65,0,0,0,.22-.44,3.18,3.18,0,0,0,.13-.51,4.43,4.43,0,0,0,.06-.51c0-.18,0-.33,0-.47s0-.29,0-.46a4.6,4.6,0,0,0-.06-.52,3.18,3.18,0,0,0-.13-.51,1.65,1.65,0,0,0-.22-.44,1.21,1.21,0,0,0-.34-.3,1,1,0,0,0-.48-.12.9.9,0,0,0-.48.12,1,1,0,0,0-.34.3,1.67,1.67,0,0,0-.23.44,3.14,3.14,0,0,0-.12.51,4.6,4.6,0,0,0-.06.52A3.78,3.78,0,0,0,154.58,251.39Z"/><path d="M158.31,251.39a5.85,5.85,0,0,1,.08-1,3.19,3.19,0,0,1,.29-.95,2,2,0,0,1,.59-.7,1.61,1.61,0,0,1,1-.28,1.55,1.55,0,0,1,1,.28,1.91,1.91,0,0,1,.59.7,3.2,3.2,0,0,1,.3.95,6.29,6.29,0,0,1,0,2,3.2,3.2,0,0,1-.3,1,1.91,1.91,0,0,1-.59.7,1.49,1.49,0,0,1-1,.28,1.54,1.54,0,0,1-1-.28,2,2,0,0,1-.59-.7,3.19,3.19,0,0,1-.29-1A5.85,5.85,0,0,1,158.31,251.39Zm.67,0c0,.14,0,.29,0,.47a4.43,4.43,0,0,0,.06.51,3.14,3.14,0,0,0,.12.51,1.67,1.67,0,0,0,.23.44,1,1,0,0,0,.34.31.9.9,0,0,0,.48.11,1,1,0,0,0,.48-.11,1.24,1.24,0,0,0,.34-.31,1.65,1.65,0,0,0,.22-.44,3.18,3.18,0,0,0,.13-.51,4.43,4.43,0,0,0,.06-.51c0-.18,0-.33,0-.47s0-.29,0-.46a4.6,4.6,0,0,0-.06-.52,3.18,3.18,0,0,0-.13-.51,1.65,1.65,0,0,0-.22-.44,1.21,1.21,0,0,0-.34-.3,1,1,0,0,0-.48-.12.9.9,0,0,0-.48.12,1,1,0,0,0-.34.3,1.67,1.67,0,0,0-.23.44,3.14,3.14,0,0,0-.12.51,4.6,4.6,0,0,0-.06.52C159,251.1,159,251.25,159,251.39Z"/><path d="M165.32,248.18H166v6h-.63Z"/><path d="M167.19,251.37c0-.17,0-.33,0-.48s0-.29,0-.41h.59c0,.1,0,.2,0,.3v.32h0a.91.91,0,0,1,.18-.27,1.64,1.64,0,0,1,.28-.23,1.5,1.5,0,0,1,.36-.16,1.44,1.44,0,0,1,.43-.06,1.52,1.52,0,0,1,.51.08,1.36,1.36,0,0,1,.34.18.93.93,0,0,1,.21.24,1.64,1.64,0,0,1,.12.22,1.78,1.78,0,0,1,.48-.53,1.27,1.27,0,0,1,.71-.19,1.88,1.88,0,0,1,.67.11,1.1,1.1,0,0,1,.44.31,1.37,1.37,0,0,1,.24.5,2.59,2.59,0,0,1,.07.65v2.27h-.62V252a2.33,2.33,0,0,0,0-.37,1,1,0,0,0-.15-.33.71.71,0,0,0-.28-.23,1,1,0,0,0-.45-.09,1,1,0,0,0-.37.08,1,1,0,0,0-.31.22,1.13,1.13,0,0,0-.21.35,1.33,1.33,0,0,0-.07.45v2.16h-.63V252.1a1.62,1.62,0,0,0-.17-.88A.6.6,0,0,0,169,251a1.18,1.18,0,0,0-.52.1.88.88,0,0,0-.36.3,1.14,1.14,0,0,0-.21.46,2.1,2.1,0,0,0-.07.58v1.82h-.62Z"/><line class="cls-1" x1="38.21" y1="253" x2="46.2" y2="253"/><path d="M235.17,251a1.66,1.66,0,0,0-.63-.52,1.93,1.93,0,0,0-.79-.17,2.13,2.13,0,0,0-.87.19,2.16,2.16,0,0,0-.68.52,2.58,2.58,0,0,0-.45.75,2.69,2.69,0,0,0-.16.89,2.79,2.79,0,0,0,.16.93,2.41,2.41,0,0,0,.45.74,2,2,0,0,0,.68.5,1.92,1.92,0,0,0,.87.19,2,2,0,0,0,1.64-.8l.51.43a2.38,2.38,0,0,1-.93.75,3,3,0,0,1-1.22.24,2.85,2.85,0,0,1-1.13-.22,2.82,2.82,0,0,1-.92-.62,3,3,0,0,1-.61-.94,3.33,3.33,0,0,1-.22-1.2,3.19,3.19,0,0,1,.21-1.16,2.9,2.9,0,0,1,.6-1,3.08,3.08,0,0,1,.91-.63,3,3,0,0,1,2.27,0,2,2,0,0,1,.89.68Z"/><path d="M239,253.1l0,0a1.35,1.35,0,0,1-.37.13,2.87,2.87,0,0,1-.39,0,1.68,1.68,0,0,1-.68-.13,1.5,1.5,0,0,1-.55-.36,1.92,1.92,0,0,1-.36-.56,2.11,2.11,0,0,1-.12-.73,1.75,1.75,0,0,1,.14-.74,1.63,1.63,0,0,1,.4-.56,1.79,1.79,0,0,1,.6-.35,2.36,2.36,0,0,1,.75-.12,2.27,2.27,0,0,1,.75.12,1.94,1.94,0,0,1,.61.35,1.49,1.49,0,0,1,.39.56,1.75,1.75,0,0,1,.15.74,2.19,2.19,0,0,1,0,.46c0,.14-.07.27-.11.4a2.53,2.53,0,0,1-.18.37,3.35,3.35,0,0,1-.21.36l-1.5,2.4h-.79Zm-.6-.43a1.51,1.51,0,0,0,.48-.08,1.28,1.28,0,0,0,.39-.24,1.12,1.12,0,0,0,.26-.38,1.27,1.27,0,0,0,.1-.5,1.26,1.26,0,0,0-.1-.49,1,1,0,0,0-.26-.38,1,1,0,0,0-.39-.24,1.33,1.33,0,0,0-1,0,.88.88,0,0,0-.38.24,1.19,1.19,0,0,0-.27.38,1.26,1.26,0,0,0-.09.49,1.28,1.28,0,0,0,.09.5,1.31,1.31,0,0,0,.27.38,1.12,1.12,0,0,0,.38.24A1.51,1.51,0,0,0,238.35,252.67Z"/><path d="M240.88,252.62a7.07,7.07,0,0,1,.08-1,2.88,2.88,0,0,1,.3-.94,2,2,0,0,1,.58-.71,1.84,1.84,0,0,1,1.92,0,2,2,0,0,1,.58.71,2.88,2.88,0,0,1,.3.94,7.07,7.07,0,0,1,.08,1,7,7,0,0,1-.08,1,2.86,2.86,0,0,1-.3.95,2,2,0,0,1-.58.71,1.84,1.84,0,0,1-1.92,0,2,2,0,0,1-.58-.71,2.86,2.86,0,0,1-.3-.95A7,7,0,0,1,240.88,252.62Zm.67,0c0,.14,0,.3,0,.47a4.43,4.43,0,0,0,.06.51,2.72,2.72,0,0,0,.13.51,1.51,1.51,0,0,0,.22.44,1.12,1.12,0,0,0,.34.31,1,1,0,0,0,1,0,1.12,1.12,0,0,0,.34-.31,1.51,1.51,0,0,0,.22-.44,2.72,2.72,0,0,0,.13-.51,4.43,4.43,0,0,0,.06-.51c0-.17,0-.33,0-.47s0-.29,0-.46a4.88,4.88,0,0,0-.06-.52,2.83,2.83,0,0,0-.13-.5,1.4,1.4,0,0,0-.22-.44,1.12,1.12,0,0,0-.34-.31,1,1,0,0,0-1,0,1.12,1.12,0,0,0-.34.31,1.4,1.4,0,0,0-.22.44,2.83,2.83,0,0,0-.13.5,4.88,4.88,0,0,0-.06.52C241.56,252.33,241.55,252.49,241.55,252.62Z"/><path d="M247.78,255.8l-.51-.2,2.41-6.14.5.19Z"/><path d="M257.1,251a1.66,1.66,0,0,0-.63-.52,1.92,1.92,0,0,0-.78-.17,2.06,2.06,0,0,0-.87.19,2.16,2.16,0,0,0-.68.52,2.21,2.21,0,0,0-.45.75,2.46,2.46,0,0,0-.16.89,2.56,2.56,0,0,0,.16.93,2.2,2.2,0,0,0,.44.74,2.1,2.1,0,0,0,.68.5,2,2,0,0,0,.88.19,2,2,0,0,0,.93-.21,2,2,0,0,0,.71-.59l.5.43a2.29,2.29,0,0,1-.92.75,3,3,0,0,1-1.22.24,2.8,2.8,0,0,1-2.05-.84,2.82,2.82,0,0,1-.61-.94,3.13,3.13,0,0,1-.22-1.2,3.19,3.19,0,0,1,.21-1.16,2.75,2.75,0,0,1,.6-1,3,3,0,0,1,.91-.63,2.93,2.93,0,0,1,1.16-.23,3,3,0,0,1,1.11.21,2,2,0,0,1,.89.68Z"/><path d="M258.46,254.69l2.14-2.08.35-.36a1.75,1.75,0,0,0,.25-.32,1,1,0,0,0,.15-.32,1.46,1.46,0,0,0,0-.38,1,1,0,0,0-.08-.4.93.93,0,0,0-.22-.3,1.13,1.13,0,0,0-.73-.26,1,1,0,0,0-.71.25,1.11,1.11,0,0,0-.36.66l-.73-.07a1.91,1.91,0,0,1,.21-.61,1.28,1.28,0,0,1,.39-.44,1.77,1.77,0,0,1,.53-.27,2.25,2.25,0,0,1,.64-.09,2.09,2.09,0,0,1,.67.1,1.53,1.53,0,0,1,.55.29,1.47,1.47,0,0,1,.37.48,1.39,1.39,0,0,1,.14.66,1.91,1.91,0,0,1-.09.61,1.8,1.8,0,0,1-.25.5,2.86,2.86,0,0,1-.35.43l-.41.41-1.75,1.64h2.89v.63h-3.65Z"/><path d="M266.35,250.42l-2.26,5h-.76l2.3-5H262.9v-.63h3.45Z"/><path d="M267.26,252.62a7.07,7.07,0,0,1,.08-1,3.45,3.45,0,0,1,.3-.94,2,2,0,0,1,.59-.71,1.82,1.82,0,0,1,1.91,0,2,2,0,0,1,.59.71,3.45,3.45,0,0,1,.3.94,7,7,0,0,1,.07,1,6.92,6.92,0,0,1-.07,1,3.41,3.41,0,0,1-.3.95,2,2,0,0,1-.59.71,1.82,1.82,0,0,1-1.91,0,2,2,0,0,1-.59-.71,3.41,3.41,0,0,1-.3-.95A7,7,0,0,1,267.26,252.62Zm.68,0c0,.14,0,.3,0,.47a4.43,4.43,0,0,0,.06.51,2.72,2.72,0,0,0,.13.51,1.53,1.53,0,0,0,.23.44,1,1,0,0,0,.34.31.89.89,0,0,0,.47.12,1,1,0,0,0,.49-.12,1.08,1.08,0,0,0,.33-.31,1.53,1.53,0,0,0,.23-.44,2.72,2.72,0,0,0,.13-.51,4.43,4.43,0,0,0,.06-.51c0-.17,0-.33,0-.47s0-.29,0-.46a4.88,4.88,0,0,0-.06-.52,2.83,2.83,0,0,0-.13-.5,1.41,1.41,0,0,0-.23-.44,1.08,1.08,0,0,0-.33-.31,1,1,0,0,0-.49-.12.89.89,0,0,0-.47.12,1,1,0,0,0-.34.31,1.41,1.41,0,0,0-.23.44,2.83,2.83,0,0,0-.13.5,4.88,4.88,0,0,0-.06.52C267.94,252.33,267.94,252.49,267.94,252.62Z"/><path d="M52.87,251a1.55,1.55,0,0,0-.63-.51,1.82,1.82,0,0,0-.79-.18,2,2,0,0,0-.87.2,2.13,2.13,0,0,0-.68.51,2.58,2.58,0,0,0-.45.75,2.67,2.67,0,0,0,0,1.82,2.29,2.29,0,0,0,.45.74,1.88,1.88,0,0,0,.68.5,1.92,1.92,0,0,0,.87.19,2,2,0,0,0,.93-.21,2.07,2.07,0,0,0,.71-.58l.51.42a2.38,2.38,0,0,1-.93.75,3,3,0,0,1-1.22.24,2.85,2.85,0,0,1-1.13-.22,2.82,2.82,0,0,1-.92-.62,3,3,0,0,1-.61-.94,3.27,3.27,0,0,1-.22-1.19,3.2,3.2,0,0,1,.21-1.17,3,3,0,0,1,.6-.95,3.08,3.08,0,0,1,.91-.63,3,3,0,0,1,2.27,0,2,2,0,0,1,.89.68Z"/><path d="M54.13,252.62a7,7,0,0,1,.08-1,3.11,3.11,0,0,1,.3-1,1.94,1.94,0,0,1,.59-.71,1.55,1.55,0,0,1,.95-.27,1.6,1.6,0,0,1,1,.27,2,2,0,0,1,.59.71,3.1,3.1,0,0,1,.29,1,5.77,5.77,0,0,1,.08,1,5.85,5.85,0,0,1-.08,1,3.13,3.13,0,0,1-.29.94,2,2,0,0,1-.59.71,1.6,1.6,0,0,1-1,.27,1.55,1.55,0,0,1-.95-.27,1.94,1.94,0,0,1-.59-.71,3.14,3.14,0,0,1-.3-.94A7.07,7.07,0,0,1,54.13,252.62Zm.67,0c0,.13,0,.29,0,.46a4.88,4.88,0,0,0,.06.52,2.83,2.83,0,0,0,.13.5,1.4,1.4,0,0,0,.22.44,1.1,1.1,0,0,0,.34.31,1,1,0,0,0,.48.12.9.9,0,0,0,.48-.12.92.92,0,0,0,.34-.31,1.41,1.41,0,0,0,.23-.44,2.8,2.8,0,0,0,.12-.5,4.88,4.88,0,0,0,.06-.52,3.86,3.86,0,0,0,0-.46,3.94,3.94,0,0,0,0-.47,4.43,4.43,0,0,0-.06-.51,2.71,2.71,0,0,0-.12-.51,1.53,1.53,0,0,0-.23-.44,1,1,0,0,0-.34-.31.9.9,0,0,0-.48-.12,1,1,0,0,0-.48.12,1.24,1.24,0,0,0-.34.31,1.51,1.51,0,0,0-.22.44,2.72,2.72,0,0,0-.13.51,4.43,4.43,0,0,0-.06.51C54.81,252.32,54.8,252.48,54.8,252.62Z"/><path d="M61,255.79l-.51-.2,2.41-6.14.51.19Z"/><path d="M70.36,251a1.52,1.52,0,0,0-.64-.51,1.78,1.78,0,0,0-.78-.18,2,2,0,0,0-.87.2,2.13,2.13,0,0,0-.68.51,2.58,2.58,0,0,0-.45.75,2.51,2.51,0,0,0-.16.9,2.54,2.54,0,0,0,.16.92,2.46,2.46,0,0,0,.44.74,2.09,2.09,0,0,0,1.56.69,2,2,0,0,0,.93-.21,2.07,2.07,0,0,0,.71-.58l.5.42a2.29,2.29,0,0,1-.92.75,3,3,0,0,1-1.22.24,2.93,2.93,0,0,1-1.14-.22,2.88,2.88,0,0,1-.91-.62,3,3,0,0,1-.61-.94,3.07,3.07,0,0,1-.22-1.19,3.2,3.2,0,0,1,.21-1.17,2.84,2.84,0,0,1,.6-.95,3,3,0,0,1,.91-.63,2.93,2.93,0,0,1,1.16-.23,3,3,0,0,1,1.11.21,2,2,0,0,1,.89.68Z"/><path d="M74.2,255.45h-.68v-4.8h0l-1,.85-.4-.48,1.52-1.24h.59Z"/><path d="M76.37,251.17a1.33,1.33,0,0,1,.13-.61,1.2,1.2,0,0,1,.34-.46,1.44,1.44,0,0,1,.51-.3,1.92,1.92,0,0,1,1.28,0,1.44,1.44,0,0,1,.51.3,1.32,1.32,0,0,1,.34.46,1.48,1.48,0,0,1,.12.61,1.44,1.44,0,0,1-.06.4,1.41,1.41,0,0,1-.18.37,1.18,1.18,0,0,1-.3.29,1,1,0,0,1-.38.19h0a1.44,1.44,0,0,1,.46.19,1.35,1.35,0,0,1,.35.32,1.67,1.67,0,0,1,.23.44,1.7,1.7,0,0,1,.08.51,1.74,1.74,0,0,1-.14.69,1.46,1.46,0,0,1-.39.52,1.47,1.47,0,0,1-.57.33,2.35,2.35,0,0,1-1.42,0,1.59,1.59,0,0,1-.58-.33,1.43,1.43,0,0,1-.38-.52,1.74,1.74,0,0,1-.14-.69,1.7,1.7,0,0,1,.08-.51,1.65,1.65,0,0,1,.22-.44,1.59,1.59,0,0,1,.36-.32,1.44,1.44,0,0,1,.46-.19h0a1.18,1.18,0,0,1-.39-.19,1.33,1.33,0,0,1-.29-.29,1.41,1.41,0,0,1-.18-.37A1.16,1.16,0,0,1,76.37,251.17Zm.48,2.67a1.14,1.14,0,0,0,.09.46,1.21,1.21,0,0,0,.24.35,1.16,1.16,0,0,0,.36.23A1.13,1.13,0,0,0,78,255a1,1,0,0,0,.44-.09,1,1,0,0,0,.36-.23,1.07,1.07,0,0,0,.25-.35,1.36,1.36,0,0,0,0-.92,1.07,1.07,0,0,0-.25-.35,1,1,0,0,0-.36-.23,1,1,0,0,0-.44-.09,1.13,1.13,0,0,0-.45.09,1.16,1.16,0,0,0-.36.23,1.21,1.21,0,0,0-.24.35A1.14,1.14,0,0,0,76.85,253.84ZM77,251.2a.92.92,0,0,0,.26.67.93.93,0,0,0,.69.27.9.9,0,0,0,.68-.27,1,1,0,0,0,0-1.34.9.9,0,0,0-.68-.27.93.93,0,0,0-.69.27A.92.92,0,0,0,77,251.2Z"/><path d="M80.52,252.62a5.77,5.77,0,0,1,.08-1,3.1,3.1,0,0,1,.29-1,2,2,0,0,1,.59-.71,1.6,1.6,0,0,1,1-.27,1.55,1.55,0,0,1,1,.27,1.94,1.94,0,0,1,.59.71,3.41,3.41,0,0,1,.3,1,7,7,0,0,1,.08,1,7.07,7.07,0,0,1-.08,1,3.45,3.45,0,0,1-.3.94,1.94,1.94,0,0,1-.59.71,1.55,1.55,0,0,1-1,.27,1.6,1.6,0,0,1-1-.27,2,2,0,0,1-.59-.71,3.13,3.13,0,0,1-.29-.94A5.85,5.85,0,0,1,80.52,252.62Zm.67,0a3.86,3.86,0,0,0,0,.46c0,.17,0,.34.05.52a4.07,4.07,0,0,0,.13.5,1.41,1.41,0,0,0,.23.44.92.92,0,0,0,.34.31.9.9,0,0,0,.48.12,1,1,0,0,0,.48-.12,1.1,1.1,0,0,0,.34-.31,1.65,1.65,0,0,0,.22-.44,2.83,2.83,0,0,0,.13-.5,4.88,4.88,0,0,0,.06-.52c0-.17,0-.33,0-.46s0-.3,0-.47a4.43,4.43,0,0,0-.06-.51,2.72,2.72,0,0,0-.13-.51,1.81,1.81,0,0,0-.22-.44,1.24,1.24,0,0,0-.34-.31,1,1,0,0,0-.48-.12.9.9,0,0,0-.48.12,1,1,0,0,0-.34.31,1.53,1.53,0,0,0-.23.44,3.8,3.8,0,0,0-.13.51c0,.17,0,.34-.05.51A3.94,3.94,0,0,0,81.19,252.62Z"/><line class="cls-2" x1="214.49" y1="253.42" x2="215.03" y2="253.42"/><line class="cls-2" x1="217.76" y1="253.42" x2="218.3" y2="253.42"/><line class="cls-2" x1="221.02" y1="253.42" x2="221.56" y2="253.42"/><line class="cls-2" x1="224.29" y1="253.42" x2="224.83" y2="253.42"/><line class="cls-2" x1="227.55" y1="253.42" x2="228.09" y2="253.42"/></g><g id="GLO_BALL"><g id="Glo_Ball_Basic1_F3021000"><path d="M54.55,11.62h4.39v.78H55.39v2.34h3.3v.78h-3.3V18.7h-.84Z"/><path d="M61.27,14.62h.26a5.28,5.28,0,0,0,.55,0,1.77,1.77,0,0,0,.52-.17A1.09,1.09,0,0,0,63,14a1.21,1.21,0,0,0,.15-.64,1.14,1.14,0,0,0-.33-.86,1.23,1.23,0,0,0-.88-.31,1.42,1.42,0,0,0-.78.2,1.37,1.37,0,0,0-.52.59l-.81-.31a1.85,1.85,0,0,1,.82-.9,2.54,2.54,0,0,1,1.23-.3,2.74,2.74,0,0,1,.81.12,1.86,1.86,0,0,1,.67.35,1.51,1.51,0,0,1,.46.57,1.73,1.73,0,0,1,.17.81,1.64,1.64,0,0,1-.33,1,1.74,1.74,0,0,1-.88.62v0a1.71,1.71,0,0,1,.61.22,1.41,1.41,0,0,1,.45.39,1.57,1.57,0,0,1,.29.54,1.89,1.89,0,0,1,.1.63,1.94,1.94,0,0,1-.19.89,1.86,1.86,0,0,1-.51.64,2.27,2.27,0,0,1-.74.39,3.26,3.26,0,0,1-.9.13,2.78,2.78,0,0,1-1.41-.35,2,2,0,0,1-.87-1.14l.85-.28a1.3,1.3,0,0,0,1.43,1.05,1.69,1.69,0,0,0,.56-.1,1.44,1.44,0,0,0,.46-.29,1.4,1.4,0,0,0,.31-.44,1.3,1.3,0,0,0,.11-.56,1.34,1.34,0,0,0-.15-.66,1.1,1.1,0,0,0-.41-.42,1.75,1.75,0,0,0-.58-.22,2.81,2.81,0,0,0-.65-.07h-.26Z"/><path d="M65.17,15.16a9.14,9.14,0,0,1,.1-1.25,4,4,0,0,1,.37-1.19,2.44,2.44,0,0,1,.74-.88,2.27,2.27,0,0,1,2.39,0,2.41,2.41,0,0,1,.73.88,3.77,3.77,0,0,1,.37,1.19,7.79,7.79,0,0,1,.1,1.25,7.88,7.88,0,0,1-.1,1.25,3.79,3.79,0,0,1-.37,1.18,2.41,2.41,0,0,1-.73.88,2.22,2.22,0,0,1-2.39,0,2.44,2.44,0,0,1-.74-.88,4.07,4.07,0,0,1-.37-1.18A9.26,9.26,0,0,1,65.17,15.16Zm.84,0c0,.17,0,.36,0,.58s0,.42.08.64a4.61,4.61,0,0,0,.16.64,2,2,0,0,0,.28.55A1.51,1.51,0,0,0,67,18a1.16,1.16,0,0,0,.6.15,1.11,1.11,0,0,0,.6-.15,1.42,1.42,0,0,0,.43-.38,2,2,0,0,0,.28-.55,4.61,4.61,0,0,0,.16-.64,4.81,4.81,0,0,0,.07-.64c0-.22,0-.41,0-.58s0-.37,0-.58a4.78,4.78,0,0,0-.07-.65,4.15,4.15,0,0,0-.16-.63,1.9,1.9,0,0,0-.28-.55,1.45,1.45,0,0,0-.43-.39,1.11,1.11,0,0,0-.6-.14,1.16,1.16,0,0,0-.6.14,1.55,1.55,0,0,0-.42.39,1.9,1.9,0,0,0-.28.55,4.15,4.15,0,0,0-.16.63c0,.22-.06.43-.08.65S66,15,66,15.16Z"/><path d="M70.85,17.74l2.67-2.6a6,6,0,0,0,.44-.45,2.66,2.66,0,0,0,.32-.4,1.59,1.59,0,0,0,.18-.4,1.73,1.73,0,0,0,.06-.47,1.12,1.12,0,0,0-.1-.5.94.94,0,0,0-.27-.38,1.38,1.38,0,0,0-.41-.24,1.44,1.44,0,0,0-.51-.08,1.29,1.29,0,0,0-.89.31,1.44,1.44,0,0,0-.45.82L71,13.27a2.27,2.27,0,0,1,.27-.77,1.73,1.73,0,0,1,.49-.55,2.3,2.3,0,0,1,.66-.34,2.62,2.62,0,0,1,.8-.11,2.78,2.78,0,0,1,.83.12,2.09,2.09,0,0,1,.69.37,1.74,1.74,0,0,1,.47.6,1.81,1.81,0,0,1,.17.83,2.29,2.29,0,0,1-.11.76,2.77,2.77,0,0,1-.31.62,4.51,4.51,0,0,1-.44.54c-.16.17-.34.34-.52.51l-2.18,2v0h3.61v.78H70.85Z"/><path d="M79.51,18.7h-.84v-6h0l-1.27,1.07-.5-.61,1.9-1.54h.73Z"/><path d="M81.85,15.16a9.14,9.14,0,0,1,.1-1.25,4,4,0,0,1,.37-1.19,2.44,2.44,0,0,1,.74-.88,2.27,2.27,0,0,1,2.39,0,2.41,2.41,0,0,1,.73.88,3.77,3.77,0,0,1,.37,1.19,7.79,7.79,0,0,1,.1,1.25,7.88,7.88,0,0,1-.1,1.25,3.79,3.79,0,0,1-.37,1.18,2.41,2.41,0,0,1-.73.88,2.22,2.22,0,0,1-2.39,0,2.44,2.44,0,0,1-.74-.88A4.07,4.07,0,0,1,82,16.41,9.26,9.26,0,0,1,81.85,15.16Zm.84,0c0,.17,0,.36,0,.58s0,.42.08.64A4.61,4.61,0,0,0,83,17a2,2,0,0,0,.28.55,1.51,1.51,0,0,0,.42.38,1.16,1.16,0,0,0,.6.15,1.11,1.11,0,0,0,.6-.15,1.42,1.42,0,0,0,.43-.38,2,2,0,0,0,.28-.55,4.61,4.61,0,0,0,.16-.64,4.81,4.81,0,0,0,.07-.64c0-.22,0-.41,0-.58s0-.37,0-.58a4.78,4.78,0,0,0-.07-.65,4.15,4.15,0,0,0-.16-.63,1.9,1.9,0,0,0-.28-.55,1.45,1.45,0,0,0-.43-.39,1.11,1.11,0,0,0-.6-.14,1.16,1.16,0,0,0-.6.14,1.55,1.55,0,0,0-.42.39,1.9,1.9,0,0,0-.28.55,4.15,4.15,0,0,0-.16.63c0,.22-.06.43-.08.65S82.69,15,82.69,15.16Z"/><path d="M87.41,15.16a9.14,9.14,0,0,1,.1-1.25,4,4,0,0,1,.37-1.19,2.44,2.44,0,0,1,.74-.88,2.27,2.27,0,0,1,2.39,0,2.41,2.41,0,0,1,.73.88,3.77,3.77,0,0,1,.37,1.19,7.79,7.79,0,0,1,.1,1.25,7.88,7.88,0,0,1-.1,1.25,3.79,3.79,0,0,1-.37,1.18,2.41,2.41,0,0,1-.73.88,2.22,2.22,0,0,1-2.39,0,2.44,2.44,0,0,1-.74-.88,4.07,4.07,0,0,1-.37-1.18A9.26,9.26,0,0,1,87.41,15.16Zm.84,0c0,.17,0,.36,0,.58s0,.42.08.64a4.61,4.61,0,0,0,.16.64,2,2,0,0,0,.28.55,1.51,1.51,0,0,0,.42.38,1.16,1.16,0,0,0,.6.15,1.11,1.11,0,0,0,.6-.15,1.42,1.42,0,0,0,.43-.38,2,2,0,0,0,.28-.55,4.61,4.61,0,0,0,.16-.64,4.81,4.81,0,0,0,.07-.64c0-.22,0-.41,0-.58s0-.37,0-.58a4.78,4.78,0,0,0-.07-.65,4.15,4.15,0,0,0-.16-.63,1.9,1.9,0,0,0-.28-.55,1.45,1.45,0,0,0-.43-.39,1.11,1.11,0,0,0-.6-.14,1.16,1.16,0,0,0-.6.14,1.55,1.55,0,0,0-.42.39,1.9,1.9,0,0,0-.28.55,4.15,4.15,0,0,0-.16.63c0,.22-.06.43-.08.65S88.25,15,88.25,15.16Z"/><path d="M93,15.16a9.14,9.14,0,0,1,.1-1.25,4,4,0,0,1,.37-1.19,2.44,2.44,0,0,1,.74-.88,2.27,2.27,0,0,1,2.39,0,2.41,2.41,0,0,1,.73.88,3.77,3.77,0,0,1,.37,1.19,7.79,7.79,0,0,1,.1,1.25,7.88,7.88,0,0,1-.1,1.25,3.79,3.79,0,0,1-.37,1.18,2.41,2.41,0,0,1-.73.88,2.22,2.22,0,0,1-2.39,0,2.44,2.44,0,0,1-.74-.88,4.07,4.07,0,0,1-.37-1.18A9.26,9.26,0,0,1,93,15.16Zm.84,0c0,.17,0,.36,0,.58s0,.42.08.64a4.61,4.61,0,0,0,.16.64,2,2,0,0,0,.28.55,1.51,1.51,0,0,0,.42.38,1.16,1.16,0,0,0,.6.15A1.11,1.11,0,0,0,96,18a1.42,1.42,0,0,0,.43-.38,2,2,0,0,0,.28-.55,4.61,4.61,0,0,0,.16-.64,4.81,4.81,0,0,0,.07-.64c0-.22,0-.41,0-.58s0-.37,0-.58a4.78,4.78,0,0,0-.07-.65,4.15,4.15,0,0,0-.16-.63,1.9,1.9,0,0,0-.28-.55,1.45,1.45,0,0,0-.43-.39,1.11,1.11,0,0,0-.6-.14,1.16,1.16,0,0,0-.6.14,1.55,1.55,0,0,0-.42.39,1.9,1.9,0,0,0-.28.55,4.15,4.15,0,0,0-.16.63c0,.22-.06.43-.08.65S93.81,15,93.81,15.16Z"/><path d="M98.15,19.45h5V20h-5Z"/><path d="M106.75,18.7h-.84v-6h0l-1.27,1.07-.5-.61,1.9-1.54h.73Z"/><path d="M113.45,12.4h-2.89l0,1.91a1.39,1.39,0,0,1,.45-.14l.46,0a2.33,2.33,0,0,1,.93.17,2.13,2.13,0,0,1,1.17,1.23,2.52,2.52,0,0,1,.16.93,2.49,2.49,0,0,1-.18,1,2,2,0,0,1-.51.74,2.51,2.51,0,0,1-.77.48,2.78,2.78,0,0,1-1,.17,2.22,2.22,0,0,1-1.3-.35,2.6,2.6,0,0,1-.79-.94l.84-.32a1.58,1.58,0,0,0,.53.64,1.35,1.35,0,0,0,.79.25,1.46,1.46,0,0,0,.6-.12,1.58,1.58,0,0,0,.48-.33,1.48,1.48,0,0,0,.32-.51,1.81,1.81,0,0,0,.12-.67,1.67,1.67,0,0,0-.13-.69,1.46,1.46,0,0,0-.37-.51,1.53,1.53,0,0,0-.56-.31,2.17,2.17,0,0,0-.69-.1,2.48,2.48,0,0,0-.74.12,3.42,3.42,0,0,0-.7.32l.07-3.68h3.71Z"/><path d="M114.65,15.16a9.14,9.14,0,0,1,.1-1.25,4,4,0,0,1,.37-1.19,2.44,2.44,0,0,1,.74-.88,2.27,2.27,0,0,1,2.39,0,2.41,2.41,0,0,1,.73.88,3.77,3.77,0,0,1,.37,1.19,7.79,7.79,0,0,1,.1,1.25,7.88,7.88,0,0,1-.1,1.25,3.79,3.79,0,0,1-.37,1.18,2.41,2.41,0,0,1-.73.88,2.22,2.22,0,0,1-2.39,0,2.44,2.44,0,0,1-.74-.88,4.07,4.07,0,0,1-.37-1.18A9.26,9.26,0,0,1,114.65,15.16Zm.84,0c0,.17,0,.36,0,.58s0,.42.08.64a4.61,4.61,0,0,0,.16.64,2,2,0,0,0,.28.55,1.51,1.51,0,0,0,.42.38,1.16,1.16,0,0,0,.6.15,1.11,1.11,0,0,0,.6-.15,1.42,1.42,0,0,0,.43-.38,2,2,0,0,0,.28-.55,4.61,4.61,0,0,0,.16-.64,4.81,4.81,0,0,0,.07-.64c0-.22,0-.41,0-.58s0-.37,0-.58a4.78,4.78,0,0,0-.07-.65,4.15,4.15,0,0,0-.16-.63,1.9,1.9,0,0,0-.28-.55,1.45,1.45,0,0,0-.43-.39,1.11,1.11,0,0,0-.6-.14,1.16,1.16,0,0,0-.6.14,1.55,1.55,0,0,0-.42.39,1.9,1.9,0,0,0-.28.55,4.15,4.15,0,0,0-.16.63c0,.22-.06.43-.08.65S115.49,15,115.49,15.16Z"/><path d="M119.89,11.62h.93l1.61,5.88h0l1.74-5.88h.94l1.73,5.88h0l1.64-5.88h.88l-2.08,7.08h-.91l-1.75-6h0l-1.76,6H122Z"/><path d="M133.05,11.62h.84v3h3.78v-3h.84V18.7h-.84V15.4h-3.78v3.3h-.84Z"/><path d="M140.34,11.62h.84v6.3h3.24v.78h-4.08Z"/><rect class="cls-3" x="55" y="41.65" width="189.86" height="189.86"/><circle class="cls-4" cx="149.94" cy="136.53" r="23.71"/><path d="M152,168.52l2.14-2.08.35-.36a1.75,1.75,0,0,0,.25-.32,1,1,0,0,0,.15-.32,1.46,1.46,0,0,0,0-.38,1,1,0,0,0-.08-.4.91.91,0,0,0-.55-.49,1.29,1.29,0,0,0-.4-.07,1,1,0,0,0-.71.25,1.13,1.13,0,0,0-.36.66l-.73-.07a1.7,1.7,0,0,1,.21-.61,1.28,1.28,0,0,1,.39-.44,1.77,1.77,0,0,1,.53-.27,2.2,2.2,0,0,1,.64-.09,2.09,2.09,0,0,1,.67.1,1.53,1.53,0,0,1,.55.29,1.47,1.47,0,0,1,.37.48,1.53,1.53,0,0,1,.14.66,1.91,1.91,0,0,1-.09.61,1.8,1.8,0,0,1-.25.5,2.86,2.86,0,0,1-.35.43c-.13.14-.27.27-.41.41l-1.75,1.64h2.89v.63H152Z"/><path d="M156.29,166.46a6.85,6.85,0,0,1,.08-1,3.1,3.1,0,0,1,.29-1,2,2,0,0,1,.59-.71,1.6,1.6,0,0,1,1-.27,1.55,1.55,0,0,1,.95.27,1.94,1.94,0,0,1,.59.71,2.86,2.86,0,0,1,.3,1,6.85,6.85,0,0,1,.08,1,7.19,7.19,0,0,1-.08,1,2.88,2.88,0,0,1-.3.94,1.94,1.94,0,0,1-.59.71,1.55,1.55,0,0,1-.95.27,1.6,1.6,0,0,1-1-.27,2,2,0,0,1-.59-.71,3.13,3.13,0,0,1-.29-.94A7.19,7.19,0,0,1,156.29,166.46Zm.67,0c0,.13,0,.29,0,.46a4.43,4.43,0,0,0,.06.51,3.81,3.81,0,0,0,.12.51,1.53,1.53,0,0,0,.23.44,1,1,0,0,0,.34.31.9.9,0,0,0,.48.12,1,1,0,0,0,.48-.12,1.24,1.24,0,0,0,.34-.31,1.51,1.51,0,0,0,.22-.44,2.72,2.72,0,0,0,.13-.51,4.43,4.43,0,0,0,.06-.51c0-.17,0-.33,0-.46s0-.3,0-.47a4.88,4.88,0,0,0-.06-.52,2.83,2.83,0,0,0-.13-.5,1.51,1.51,0,0,0-.22-.44,1.24,1.24,0,0,0-.34-.31,1,1,0,0,0-.48-.12.9.9,0,0,0-.48.12,1,1,0,0,0-.34.31,1.53,1.53,0,0,0-.23.44,4.05,4.05,0,0,0-.12.5,4.88,4.88,0,0,0-.06.52C157,166.16,157,166.32,157,166.46Z"/><circle class="cls-4" cx="149.94" cy="136.53" r="47.41"/><path d="M154.94,191.07h.81v.63h-.81V193h-.68V191.7h-2.4V191l2.25-3.62h.83Zm-.68-3h0l-1.81,3h1.82Z"/><path d="M156.29,190.16a7.07,7.07,0,0,1,.08-1,3.19,3.19,0,0,1,.29-.95,2,2,0,0,1,.59-.7,1.61,1.61,0,0,1,1-.28,1.55,1.55,0,0,1,.95.28,1.91,1.91,0,0,1,.59.7,2.94,2.94,0,0,1,.3.95,6.29,6.29,0,0,1,0,2,2.94,2.94,0,0,1-.3,1,1.91,1.91,0,0,1-.59.7,1.49,1.49,0,0,1-.95.28,1.54,1.54,0,0,1-1-.28,2,2,0,0,1-.59-.7,3.19,3.19,0,0,1-.29-1A7.07,7.07,0,0,1,156.29,190.16Zm.67,0c0,.14,0,.3,0,.46a4.35,4.35,0,0,0,.06.52,4.7,4.7,0,0,0,.12.51,1.67,1.67,0,0,0,.23.44,1,1,0,0,0,.34.31,1,1,0,0,0,.48.11,1.06,1.06,0,0,0,.48-.11,1.24,1.24,0,0,0,.34-.31,1.65,1.65,0,0,0,.22-.44,3.18,3.18,0,0,0,.13-.51,4.35,4.35,0,0,0,.06-.52c0-.16,0-.32,0-.46s0-.29,0-.46a4.6,4.6,0,0,0-.06-.52,3.18,3.18,0,0,0-.13-.51,1.65,1.65,0,0,0-.22-.44,1.21,1.21,0,0,0-.34-.3,1,1,0,0,0-.48-.12.9.9,0,0,0-.48.12,1,1,0,0,0-.34.3,1.67,1.67,0,0,0-.23.44,4.7,4.7,0,0,0-.12.51,4.6,4.6,0,0,0-.06.52C157,189.87,157,190,157,190.16Z"/><circle class="cls-4" cx="149.94" cy="136.53" r="71.17"/><path d="M153.22,213.45h0a1.34,1.34,0,0,1,.37-.12,2,2,0,0,1,1.08.08,1.58,1.58,0,0,1,.54.37,1.8,1.8,0,0,1,.36.56,2.09,2.09,0,0,1,.12.72,1.79,1.79,0,0,1-.14.75,1.59,1.59,0,0,1-.4.55,1.64,1.64,0,0,1-.6.35,2.11,2.11,0,0,1-.75.13,2,2,0,0,1-.75-.13,1.64,1.64,0,0,1-.6-.35,1.48,1.48,0,0,1-.4-.55,1.79,1.79,0,0,1-.15-.75,2.22,2.22,0,0,1,.15-.85,5.28,5.28,0,0,1,.39-.74l1.5-2.39h.79Zm.59.42a1.28,1.28,0,0,0-.48.09,1,1,0,0,0-.39.24,1,1,0,0,0-.26.38,1.3,1.3,0,0,0-.1.49,1.27,1.27,0,0,0,.1.5,1.12,1.12,0,0,0,.26.38,1.21,1.21,0,0,0,2.09-.88,1.3,1.3,0,0,0-.09-.49,1.16,1.16,0,0,0-.26-.38,1,1,0,0,0-.39-.24A1.28,1.28,0,0,0,153.81,213.87Z"/><path d="M156.29,213.92a7.07,7.07,0,0,1,.08-1,3.19,3.19,0,0,1,.29-.95,2,2,0,0,1,.59-.7,1.54,1.54,0,0,1,1-.28,1.49,1.49,0,0,1,.95.28,1.91,1.91,0,0,1,.59.7,2.94,2.94,0,0,1,.3.95,6.29,6.29,0,0,1,0,2,2.94,2.94,0,0,1-.3,1,1.91,1.91,0,0,1-.59.7,1.49,1.49,0,0,1-.95.28,1.54,1.54,0,0,1-1-.28,2,2,0,0,1-.59-.7,3.19,3.19,0,0,1-.29-1A7.07,7.07,0,0,1,156.29,213.92Zm.67,0c0,.14,0,.29,0,.46a4.35,4.35,0,0,0,.06.52,4.7,4.7,0,0,0,.12.51,1.67,1.67,0,0,0,.23.44,1,1,0,0,0,.34.31,1,1,0,0,0,.48.11,1.06,1.06,0,0,0,.48-.11,1.24,1.24,0,0,0,.34-.31,1.65,1.65,0,0,0,.22-.44,3.18,3.18,0,0,0,.13-.51,4.35,4.35,0,0,0,.06-.52c0-.17,0-.32,0-.46s0-.29,0-.46a4.6,4.6,0,0,0-.06-.52,3.18,3.18,0,0,0-.13-.51A1.65,1.65,0,0,0,159,212a1.43,1.43,0,0,0-.34-.31,1.06,1.06,0,0,0-.48-.11,1,1,0,0,0-.48.11,1.13,1.13,0,0,0-.34.31,1.67,1.67,0,0,0-.23.44,4.7,4.7,0,0,0-.12.51,4.6,4.6,0,0,0-.06.52C157,213.63,157,213.78,157,213.92Z"/><circle class="cls-4" cx="149.94" cy="136.53" r="94.93"/><line class="cls-4" x1="55" y1="136.59" x2="244.92" y2="136.59"/><line class="cls-4" x1="149.94" y1="231.52" x2="149.94" y2="41.6"/><line class="cls-4" x1="95.18" y1="41.6" x2="204.75" y2="231.52"/><line class="cls-4" x1="95.18" y1="231.52" x2="204.75" y2="41.6"/><line class="cls-4" x1="55" y1="81.78" x2="244.92" y2="191.34"/><line class="cls-4" x1="55" y1="191.34" x2="244.92" y2="81.78"/><line class="cls-5" x1="149.94" y1="185.51" x2="151.66" y2="186.75"/><line class="cls-5" x1="151.66" y1="186.75" x2="153.55" y2="187.89"/><line class="cls-5" x1="153.55" y1="187.89" x2="155.44" y2="189.02"/><line class="cls-5" x1="155.44" y1="189.02" x2="157.28" y2="188.7"/><line class="cls-5" x1="157.28" y1="188.7" x2="159.55" y2="191.02"/><line class="cls-5" x1="159.55" y1="191.02" x2="162.36" y2="194.91"/><line class="cls-5" x1="162.36" y1="194.91" x2="166.24" y2="201.82"/><line class="cls-5" x1="166.24" y1="201.82" x2="169.7" y2="205.49"/><line class="cls-5" x1="169.7" y1="205.49" x2="173.1" y2="207.76"/><line class="cls-5" x1="173.1" y1="207.76" x2="176.4" y2="209.27"/><line class="cls-5" x1="176.4" y1="209.27" x2="179.53" y2="209.86"/><line class="cls-5" x1="179.53" y1="209.86" x2="182.34" y2="209.38"/><line class="cls-5" x1="182.34" y1="209.38" x2="185.09" y2="208.62"/><line class="cls-5" x1="185.09" y1="208.62" x2="187.47" y2="207.11"/><line class="cls-5" x1="187.47" y1="207.11" x2="189.9" y2="205.71"/><line class="cls-5" x1="189.9" y1="205.71" x2="192.22" y2="204.19"/><line class="cls-5" x1="192.22" y1="204.19" x2="194.49" y2="202.57"/><line class="cls-5" x1="194.49" y1="202.57" x2="196.7" y2="200.9"/><line class="cls-5" x1="196.7" y1="200.9" x2="198.81" y2="199.12"/><line class="cls-5" x1="198.81" y1="199.12" x2="200.86" y2="197.23"/><line class="cls-5" x1="200.86" y1="197.23" x2="202.86" y2="195.28"/><line class="cls-5" x1="202.86" y1="195.28" x2="204.75" y2="193.29"/><line class="cls-5" x1="204.75" y1="193.29" x2="206.53" y2="191.18"/><line class="cls-5" x1="206.53" y1="191.18" x2="208.2" y2="189.02"/><line class="cls-5" x1="208.2" y1="189.02" x2="209.82" y2="186.81"/><line class="cls-5" x1="209.82" y1="186.81" x2="211.33" y2="184.48"/><line class="cls-5" x1="211.33" y1="184.48" x2="212.74" y2="182.16"/><line class="cls-5" x1="212.74" y1="182.16" x2="214.09" y2="179.79"/><line class="cls-5" x1="214.09" y1="179.79" x2="215.28" y2="177.36"/><line class="cls-5" x1="215.28" y1="177.36" x2="216.41" y2="174.93"/><line class="cls-5" x1="216.41" y1="174.93" x2="217.49" y2="172.44"/><line class="cls-5" x1="217.49" y1="172.44" x2="218.41" y2="169.96"/><line class="cls-5" x1="218.41" y1="169.96" x2="219.27" y2="167.42"/><line class="cls-5" x1="219.27" y1="167.42" x2="220.03" y2="164.83"/><line class="cls-5" x1="220.03" y1="164.83" x2="220.73" y2="162.29"/><line class="cls-5" x1="220.73" y1="162.29" x2="221.32" y2="159.75"/><line class="cls-5" x1="221.32" y1="159.75" x2="221.81" y2="157.16"/><line class="cls-5" x1="221.81" y1="157.16" x2="222.3" y2="154.57"/><line class="cls-5" x1="222.3" y1="154.57" x2="222.62" y2="151.98"/><line class="cls-5" x1="222.62" y1="151.98" x2="222.89" y2="149.38"/><line class="cls-5" x1="222.89" y1="149.38" x2="223.16" y2="146.85"/><line class="cls-5" x1="223.16" y1="146.85" x2="223.27" y2="144.25"/><line class="cls-5" x1="223.27" y1="144.25" x2="223.38" y2="141.66"/><line class="cls-5" x1="223.38" y1="141.66" x2="223.48" y2="139.12"/><line class="cls-5" x1="223.48" y1="139.12" x2="223.54" y2="136.59"/><line class="cls-5" x1="223.54" y1="136.59" x2="223.54" y2="133.99"/><line class="cls-5" x1="223.54" y1="133.99" x2="223.54" y2="131.46"/><line class="cls-5" x1="223.54" y1="131.46" x2="223.48" y2="128.86"/><line class="cls-5" x1="223.48" y1="128.86" x2="223.38" y2="126.27"/><line class="cls-5" x1="223.38" y1="126.27" x2="223.27" y2="123.68"/><line class="cls-5" x1="223.27" y1="123.68" x2="223.05" y2="121.03"/><line class="cls-5" x1="223.05" y1="121.03" x2="222.78" y2="118.44"/><line class="cls-5" x1="222.78" y1="118.44" x2="222.46" y2="115.8"/><line class="cls-5" x1="222.46" y1="115.8" x2="222.13" y2="113.15"/><line class="cls-5" x1="222.13" y1="113.15" x2="221.65" y2="110.5"/><line class="cls-5" x1="221.65" y1="110.5" x2="221.16" y2="107.8"/><line class="cls-5" x1="221.16" y1="107.8" x2="220.51" y2="105.16"/><line class="cls-5" x1="220.51" y1="105.16" x2="219.87" y2="102.46"/><line class="cls-5" x1="219.87" y1="102.46" x2="219.11" y2="99.81"/><line class="cls-5" x1="219.11" y1="99.81" x2="218.3" y2="97.11"/><line class="cls-5" x1="218.3" y1="97.11" x2="217.33" y2="94.47"/><line class="cls-5" x1="217.33" y1="94.47" x2="216.3" y2="91.82"/><line class="cls-5" x1="216.3" y1="91.82" x2="215.22" y2="89.17"/><line class="cls-5" x1="215.22" y1="89.17" x2="214.03" y2="86.53"/><line class="cls-5" x1="214.03" y1="86.53" x2="212.74" y2="83.88"/><line class="cls-5" x1="212.74" y1="83.88" x2="211.33" y2="81.29"/><line class="cls-5" x1="211.33" y1="81.29" x2="209.82" y2="78.75"/><line class="cls-5" x1="209.82" y1="78.75" x2="208.2" y2="76.27"/><line class="cls-5" x1="208.2" y1="76.27" x2="206.47" y2="73.78"/><line class="cls-5" x1="206.47" y1="73.78" x2="204.69" y2="71.35"/><line class="cls-5" x1="204.69" y1="71.35" x2="202.75" y2="68.98"/><line class="cls-5" x1="202.75" y1="68.98" x2="200.7" y2="66.71"/><line class="cls-5" x1="200.7" y1="66.71" x2="198.59" y2="64.44"/><line class="cls-5" x1="198.59" y1="64.44" x2="196.38" y2="62.23"/><line class="cls-5" x1="196.38" y1="62.23" x2="194.05" y2="60.12"/><line class="cls-5" x1="194.05" y1="60.12" x2="191.68" y2="58.12"/><line class="cls-5" x1="191.68" y1="58.12" x2="189.19" y2="56.13"/><line class="cls-5" x1="189.19" y1="56.13" x2="186.55" y2="54.29"/><line class="cls-5" x1="186.55" y1="54.29" x2="183.9" y2="52.56"/><line class="cls-5" x1="183.9" y1="52.56" x2="181.09" y2="50.94"/><line class="cls-5" x1="181.09" y1="50.94" x2="178.23" y2="49.48"/><line class="cls-5" x1="178.23" y1="49.48" x2="175.32" y2="48.13"/><line class="cls-5" x1="175.32" y1="48.13" x2="172.29" y2="46.95"/><line class="cls-5" x1="172.29" y1="46.95" x2="169.21" y2="45.97"/><line class="cls-5" x1="169.21" y1="45.97" x2="166.08" y2="45.06"/><line class="cls-5" x1="166.08" y1="45.06" x2="162.9" y2="44.25"/><line class="cls-5" x1="162.9" y1="44.25" x2="159.71" y2="43.54"/><line class="cls-5" x1="159.71" y1="43.54" x2="156.47" y2="43.06"/><line class="cls-5" x1="156.47" y1="43.06" x2="153.23" y2="42.73"/><line class="cls-5" x1="153.23" y1="42.73" x2="149.94" y2="42.52"/><line class="cls-5" x1="149.94" y1="185.51" x2="148.26" y2="186.27"/><line class="cls-5" x1="148.26" y1="186.27" x2="146.48" y2="187.02"/><line class="cls-5" x1="146.48" y1="187.02" x2="144.59" y2="187.67"/><line class="cls-5" x1="144.59" y1="187.67" x2="142.92" y2="186.86"/><line class="cls-5" x1="142.92" y1="186.86" x2="140.76" y2="188.86"/><line class="cls-5" x1="140.76" y1="188.86" x2="138.06" y2="192.64"/><line class="cls-5" x1="138.06" y1="192.64" x2="134.22" y2="199.71"/><line class="cls-5" x1="134.22" y1="199.71" x2="130.82" y2="203.44"/><line class="cls-5" x1="130.82" y1="203.44" x2="127.47" y2="205.81"/><line class="cls-5" x1="127.47" y1="205.81" x2="124.23" y2="207.38"/><line class="cls-5" x1="124.23" y1="207.38" x2="121.15" y2="207.92"/><line class="cls-5" x1="121.15" y1="207.92" x2="118.45" y2="207.38"/><line class="cls-5" x1="118.45" y1="207.38" x2="115.81" y2="206.62"/><line class="cls-5" x1="115.81" y1="206.62" x2="113.54" y2="205.06"/><line class="cls-5" x1="113.54" y1="205.06" x2="111.27" y2="203.65"/><line class="cls-5" x1="111.27" y1="203.65" x2="109" y2="202.09"/><line class="cls-5" x1="109" y1="202.09" x2="106.9" y2="200.47"/><line class="cls-5" x1="106.9" y1="200.47" x2="104.79" y2="198.74"/><line class="cls-5" x1="104.79" y1="198.74" x2="102.74" y2="197.01"/><line class="cls-5" x1="102.74" y1="197.01" x2="100.8" y2="195.18"/><line class="cls-5" x1="100.8" y1="195.18" x2="98.85" y2="193.29"/><line class="cls-5" x1="98.85" y1="193.29" x2="97.02" y2="191.34"/><line class="cls-5" x1="97.02" y1="191.34" x2="95.29" y2="189.34"/><line class="cls-5" x1="95.29" y1="189.34" x2="93.61" y2="187.29"/><line class="cls-5" x1="93.61" y1="187.29" x2="91.99" y2="185.19"/><line class="cls-5" x1="91.99" y1="185.19" x2="90.48" y2="183.03"/><line class="cls-5" x1="90.48" y1="183.03" x2="89.02" y2="180.81"/><line class="cls-5" x1="89.02" y1="180.81" x2="87.67" y2="178.54"/><line class="cls-5" x1="87.67" y1="178.54" x2="86.38" y2="176.28"/><line class="cls-5" x1="86.38" y1="176.28" x2="85.19" y2="173.95"/><line class="cls-5" x1="85.19" y1="173.95" x2="84.06" y2="171.58"/><line class="cls-5" x1="84.06" y1="171.58" x2="82.98" y2="169.2"/><line class="cls-5" x1="82.98" y1="169.2" x2="82" y2="166.77"/><line class="cls-5" x1="82" y1="166.77" x2="81.14" y2="164.34"/><line class="cls-5" x1="81.14" y1="164.34" x2="80.33" y2="161.91"/><line class="cls-5" x1="80.33" y1="161.91" x2="79.57" y2="159.43"/><line class="cls-5" x1="79.57" y1="159.43" x2="78.93" y2="156.89"/><line class="cls-5" x1="78.93" y1="156.89" x2="78.28" y2="154.41"/><line class="cls-5" x1="78.28" y1="154.41" x2="77.74" y2="151.87"/><line class="cls-5" x1="77.74" y1="151.87" x2="77.2" y2="149.38"/><line class="cls-5" x1="77.2" y1="149.38" x2="76.77" y2="146.85"/><line class="cls-5" x1="76.77" y1="146.85" x2="76.39" y2="144.25"/><line class="cls-5" x1="76.39" y1="144.25" x2="76.06" y2="141.72"/><line class="cls-5" x1="76.06" y1="141.72" x2="75.85" y2="139.12"/><line class="cls-5" x1="75.85" y1="139.12" x2="75.63" y2="136.59"/><line class="cls-5" x1="75.63" y1="136.59" x2="75.47" y2="133.99"/><line class="cls-5" x1="75.47" y1="133.99" x2="75.31" y2="131.35"/><line class="cls-5" x1="75.31" y1="131.35" x2="75.2" y2="128.7"/><line class="cls-5" x1="75.2" y1="128.7" x2="75.09" y2="126.06"/><line class="cls-5" x1="75.09" y1="126.06" x2="75.09" y2="123.36"/><line class="cls-5" x1="75.09" y1="123.36" x2="75.09" y2="120.66"/><line class="cls-5" x1="75.09" y1="120.66" x2="75.15" y2="117.96"/><line class="cls-5" x1="75.15" y1="117.96" x2="75.31" y2="115.15"/><line class="cls-5" x1="75.31" y1="115.15" x2="75.52" y2="112.39"/><line class="cls-5" x1="75.52" y1="112.39" x2="75.85" y2="109.59"/><line class="cls-5" x1="75.85" y1="109.59" x2="76.23" y2="106.78"/><line class="cls-5" x1="76.23" y1="106.78" x2="76.71" y2="103.97"/><line class="cls-5" x1="76.71" y1="103.97" x2="77.31" y2="101.16"/><line class="cls-5" x1="77.31" y1="101.16" x2="78.01" y2="98.3"/><line class="cls-5" x1="78.01" y1="98.3" x2="78.82" y2="95.49"/><line class="cls-5" x1="78.82" y1="95.49" x2="79.68" y2="92.68"/><line class="cls-5" x1="79.68" y1="92.68" x2="80.71" y2="89.82"/><line class="cls-5" x1="80.71" y1="89.82" x2="81.79" y2="87.07"/><line class="cls-5" x1="81.79" y1="87.07" x2="82.98" y2="84.26"/><line class="cls-5" x1="82.98" y1="84.26" x2="84.33" y2="81.51"/><line class="cls-5" x1="84.33" y1="81.51" x2="85.78" y2="78.81"/><line class="cls-5" x1="85.78" y1="78.81" x2="87.4" y2="76.16"/><line class="cls-5" x1="87.4" y1="76.16" x2="89.08" y2="73.51"/><line class="cls-5" x1="89.08" y1="73.51" x2="90.91" y2="70.98"/><line class="cls-5" x1="90.91" y1="70.98" x2="92.86" y2="68.49"/><line class="cls-5" x1="92.86" y1="68.49" x2="94.86" y2="66.06"/><line class="cls-5" x1="94.86" y1="66.06" x2="97.02" y2="63.69"/><line class="cls-5" x1="97.02" y1="63.69" x2="99.28" y2="61.42"/><line class="cls-5" x1="99.28" y1="61.42" x2="101.66" y2="59.26"/><line class="cls-5" x1="101.66" y1="59.26" x2="104.14" y2="57.21"/><line class="cls-5" x1="104.14" y1="57.21" x2="106.74" y2="55.26"/><line class="cls-5" x1="106.74" y1="55.26" x2="109.38" y2="53.37"/><line class="cls-5" x1="109.38" y1="53.37" x2="112.19" y2="51.64"/><line class="cls-5" x1="112.19" y1="51.64" x2="115.05" y2="50.08"/><line class="cls-5" x1="115.05" y1="50.08" x2="117.97" y2="48.62"/><line class="cls-5" x1="117.97" y1="48.62" x2="120.99" y2="47.32"/><line class="cls-5" x1="120.99" y1="47.32" x2="124.07" y2="46.19"/><line class="cls-5" x1="124.07" y1="46.19" x2="127.2" y2="45.16"/><line class="cls-5" x1="127.2" y1="45.16" x2="130.39" y2="44.35"/><line class="cls-5" x1="130.39" y1="44.35" x2="133.63" y2="43.65"/><line class="cls-5" x1="133.63" y1="43.65" x2="136.87" y2="43.11"/><line class="cls-5" x1="136.87" y1="43.11" x2="140.11" y2="42.73"/><line class="cls-5" x1="140.11" y1="42.73" x2="143.4" y2="42.52"/><line class="cls-5" x1="143.4" y1="42.52" x2="146.7" y2="42.46"/><line class="cls-5" x1="146.7" y1="42.46" x2="149.94" y2="42.52"/><line class="cls-5" x1="149.94" y1="185.51" x2="150.1" y2="185.67"/><line class="cls-5" x1="151.07" y1="186.54" x2="151.23" y2="186.7"/><line class="cls-5" x1="152.26" y1="187.56" x2="152.47" y2="187.72"/><line class="cls-5" x1="153.5" y1="188.53" x2="153.61" y2="188.64"/><line class="cls-5" x1="153.61" y1="188.64" x2="153.66" y2="188.7"/><line class="cls-5" x1="154.69" y1="189.51" x2="154.9" y2="189.67"/><line class="cls-5" x1="155.98" y1="190.21" x2="156.25" y2="190.21"/><line class="cls-5" x1="157.55" y1="190.42" x2="157.71" y2="190.59"/><line class="cls-5" x1="158.63" y1="191.56" x2="158.79" y2="191.72"/><line class="cls-5" x1="159.71" y1="192.69" x2="159.87" y2="192.85"/><line class="cls-5" x1="160.63" y1="193.88" x2="160.79" y2="194.1"/><line class="cls-5" x1="161.55" y1="195.18" x2="161.71" y2="195.39"/><line class="cls-5" x1="162.46" y1="196.42" x2="162.63" y2="196.63"/><line class="cls-5" x1="163.27" y1="197.71" x2="163.38" y2="197.93"/><line class="cls-5" x1="164.03" y1="199.01" x2="164.14" y2="199.23"/><line class="cls-5" x1="164.79" y1="200.31" x2="164.89" y2="200.52"/><line class="cls-5" x1="165.54" y1="201.6" x2="165.65" y2="201.82"/><line class="cls-5" x1="166.3" y1="202.9" x2="166.41" y2="203.11"/><line class="cls-5" x1="167.27" y1="204.09" x2="167.43" y2="204.25"/><line class="cls-5" x1="168.35" y1="205.22" x2="168.51" y2="205.38"/><line class="cls-5" x1="169.43" y1="206.35" x2="169.59" y2="206.52"/><line class="cls-5" x1="170.56" y1="207.33" x2="170.78" y2="207.49"/><line class="cls-5" x1="171.86" y1="208.24" x2="172.08" y2="208.35"/><line class="cls-5" x1="173.16" y1="209.11" x2="173.37" y2="209.27"/><line class="cls-5" x1="174.51" y1="209.81" x2="174.72" y2="209.92"/><line class="cls-5" x1="175.86" y1="210.4" x2="176.07" y2="210.51"/><line class="cls-5" x1="177.21" y1="211" x2="177.48" y2="211"/><line class="cls-5" x1="178.72" y1="211.27" x2="178.93" y2="211.32"/><line class="cls-5" x1="180.23" y1="211.54" x2="180.23" y2="211.54"/><line class="cls-5" x1="180.23" y1="211.54" x2="180.45" y2="211.48"/><line class="cls-5" x1="181.69" y1="211.27" x2="181.9" y2="211.21"/><line class="cls-5" x1="183.15" y1="211" x2="183.36" y2="210.94"/><line class="cls-5" x1="184.6" y1="210.67" x2="184.82" y2="210.62"/><line class="cls-5" x1="186.06" y1="210.3" x2="186.28" y2="210.19"/><line class="cls-5" x1="187.36" y1="209.54" x2="187.57" y2="209.43"/><line class="cls-5" x1="188.71" y1="208.78" x2="188.92" y2="208.68"/><line class="cls-5" x1="190.06" y1="208.14" x2="190.27" y2="208.03"/><line class="cls-5" x1="191.41" y1="207.38" x2="191.62" y2="207.27"/><line class="cls-5" x1="192.7" y1="206.62" x2="192.92" y2="206.52"/><line class="cls-5" x1="194" y1="205.87" x2="194.22" y2="205.71"/><line class="cls-5" x1="195.3" y1="205.06" x2="195.51" y2="204.9"/><line class="cls-5" x1="196.59" y1="204.19" x2="196.81" y2="204.03"/><line class="cls-5" x1="197.89" y1="203.28" x2="198.1" y2="203.11"/><line class="cls-5" x1="199.13" y1="202.36" x2="199.35" y2="202.2"/><line class="cls-5" x1="200.37" y1="201.39" x2="200.53" y2="201.28"/><line class="cls-5" x1="200.53" y1="201.28" x2="200.59" y2="201.22"/><line class="cls-5" x1="201.61" y1="200.36" x2="201.83" y2="200.2"/><line class="cls-5" x1="202.86" y1="199.33" x2="203.07" y2="199.17"/><line class="cls-5" x1="204.04" y1="198.25" x2="204.26" y2="198.09"/><line class="cls-5" x1="205.23" y1="197.17" x2="205.39" y2="197.01"/><line class="cls-5" x1="206.37" y1="196.09" x2="206.53" y2="195.93"/><line class="cls-5" x1="207.45" y1="194.96" x2="207.61" y2="194.8"/><line class="cls-5" x1="208.53" y1="193.83" x2="208.69" y2="193.61"/><line class="cls-5" x1="209.5" y1="192.64" x2="209.66" y2="192.48"/><line class="cls-5" x1="210.52" y1="191.45" x2="210.69" y2="191.23"/><line class="cls-5" x1="211.44" y1="190.21" x2="211.6" y2="190.05"/><line class="cls-5" x1="212.36" y1="189.02" x2="212.41" y2="188.97"/><line class="cls-5" x1="212.41" y1="188.97" x2="212.52" y2="188.8"/><line class="cls-5" x1="213.28" y1="187.78" x2="213.44" y2="187.56"/><line class="cls-5" x1="214.2" y1="186.48" x2="214.3" y2="186.27"/><line class="cls-5" x1="215.01" y1="185.19" x2="215.17" y2="184.97"/><line class="cls-5" x1="215.82" y1="183.89" x2="215.98" y2="183.67"/><line class="cls-5" x1="216.63" y1="182.59" x2="216.73" y2="182.38"/><line class="cls-5" x1="217.38" y1="181.3" x2="217.49" y2="181.08"/><line class="cls-5" x1="218.14" y1="179.95" x2="218.25" y2="179.73"/><line class="cls-5" x1="218.84" y1="178.6" x2="218.95" y2="178.38"/><line class="cls-5" x1="219.49" y1="177.25" x2="219.6" y2="177.03"/><line class="cls-5" x1="220.14" y1="175.9" x2="220.24" y2="175.68"/><line class="cls-5" x1="220.78" y1="174.49" x2="220.89" y2="174.28"/><line class="cls-5" x1="221.32" y1="173.09" x2="221.43" y2="172.87"/><line class="cls-5" x1="221.92" y1="171.69" x2="221.92" y2="171.63"/><line class="cls-5" x1="221.92" y1="171.63" x2="221.97" y2="171.47"/><line class="cls-5" x1="222.4" y1="170.28" x2="222.46" y2="170.07"/><line class="cls-5" x1="222.89" y1="168.88" x2="222.94" y2="168.66"/><line class="cls-5" x1="223.32" y1="167.47" x2="223.38" y2="167.26"/><line class="cls-5" x1="223.75" y1="166.02" x2="223.81" y2="165.8"/><line class="cls-5" x1="224.13" y1="164.56" x2="224.19" y2="164.34"/><line class="cls-5" x1="224.51" y1="163.1" x2="224.56" y2="162.88"/><line class="cls-5" x1="224.89" y1="161.64" x2="224.94" y2="161.43"/><line class="cls-5" x1="225.21" y1="160.18" x2="225.27" y2="159.97"/><line class="cls-5" x1="225.48" y1="158.73" x2="225.54" y2="158.51"/><line class="cls-5" x1="225.75" y1="157.27" x2="225.81" y2="157.05"/><line class="cls-5" x1="226.02" y1="155.81" x2="226.08" y2="155.59"/><line class="cls-5" x1="226.24" y1="154.3" x2="226.29" y2="154.08"/><line class="cls-5" x1="226.45" y1="152.79" x2="226.45" y2="152.79"/><line class="cls-5" x1="226.45" y1="152.79" x2="226.51" y2="152.52"/><line class="cls-5" x1="226.62" y1="151.22" x2="226.62" y2="150.95"/><line class="cls-5" x1="226.78" y1="149.65" x2="226.78" y2="149.38"/><line class="cls-5" x1="226.89" y1="148.09" x2="226.89" y2="147.82"/><line class="cls-5" x1="226.99" y1="146.52" x2="226.99" y2="146.25"/><line class="cls-5" x1="227.1" y1="144.96" x2="227.1" y2="144.69"/><line class="cls-5" x1="227.1" y1="143.34" x2="227.16" y2="143.12"/><line class="cls-5" x1="227.16" y1="141.77" x2="227.16" y2="141.5"/><line class="cls-5" x1="227.16" y1="140.15" x2="227.16" y2="139.88"/><line class="cls-5" x1="227.16" y1="138.53" x2="227.16" y2="138.26"/><line class="cls-5" x1="227.16" y1="136.91" x2="227.16" y2="136.64"/><line class="cls-5" x1="227.16" y1="135.29" x2="227.1" y2="135.07"/><line class="cls-5" x1="227.1" y1="133.72" x2="227.1" y2="133.45"/><line class="cls-5" x1="227.05" y1="132.16" x2="227.05" y2="131.89"/><line class="cls-5" x1="226.99" y1="130.59" x2="226.94" y2="130.38"/><line class="cls-5" x1="226.89" y1="129.08" x2="226.89" y2="128.81"/><line class="cls-5" x1="226.83" y1="127.51" x2="226.83" y2="127.24"/><line class="cls-5" x1="226.72" y1="125.95" x2="226.72" y2="125.79"/><line class="cls-5" x1="226.72" y1="125.79" x2="226.72" y2="125.68"/><line class="cls-5" x1="226.56" y1="124.38" x2="226.56" y2="124.11"/><line class="cls-5" x1="226.4" y1="122.82" x2="226.4" y2="122.55"/><line class="cls-5" x1="226.29" y1="121.25" x2="226.24" y2="121.03"/><line class="cls-5" x1="226.08" y1="119.74" x2="226.08" y2="119.47"/><line class="cls-5" x1="225.86" y1="118.23" x2="225.86" y2="117.96"/><line class="cls-5" x1="225.64" y1="116.71" x2="225.59" y2="116.5"/><line class="cls-5" x1="225.37" y1="115.26" x2="225.32" y2="115.04"/><line class="cls-5" x1="225.1" y1="113.8" x2="225.05" y2="113.58"/><line class="cls-5" x1="224.83" y1="112.29" x2="224.83" y2="112.23"/><line class="cls-5" x1="224.83" y1="112.23" x2="224.78" y2="112.07"/><line class="cls-5" x1="224.51" y1="110.83" x2="224.46" y2="110.61"/><line class="cls-5" x1="224.19" y1="109.37" x2="224.13" y2="109.15"/><line class="cls-5" x1="223.86" y1="107.91" x2="223.81" y2="107.7"/><line class="cls-5" x1="223.48" y1="106.45" x2="223.43" y2="106.24"/><line class="cls-5" x1="223.05" y1="105" x2="223" y2="104.78"/><line class="cls-5" x1="222.67" y1="103.54" x2="222.57" y2="103.32"/><line class="cls-5" x1="222.24" y1="102.08" x2="222.13" y2="101.86"/><line class="cls-5" x1="221.76" y1="100.62" x2="221.7" y2="100.41"/><line class="cls-5" x1="221.32" y1="99.22" x2="221.27" y2="99"/><line class="cls-5" x1="220.84" y1="97.81" x2="220.73" y2="97.6"/><line class="cls-5" x1="220.35" y1="96.41" x2="220.24" y2="96.19"/><line class="cls-5" x1="219.76" y1="95.01" x2="219.7" y2="94.79"/><line class="cls-5" x1="219.22" y1="93.6" x2="219.11" y2="93.39"/><line class="cls-5" x1="218.62" y1="92.2" x2="218.52" y2="91.98"/><line class="cls-5" x1="218.03" y1="90.79" x2="217.98" y2="90.69"/><line class="cls-5" x1="217.98" y1="90.69" x2="217.92" y2="90.58"/><line class="cls-5" x1="217.38" y1="89.44" x2="217.27" y2="89.23"/><line class="cls-5" x1="216.73" y1="88.09" x2="216.73" y2="88.04"/><line class="cls-5" x1="216.73" y1="88.04" x2="216.63" y2="87.88"/><line class="cls-5" x1="216.03" y1="86.74" x2="215.92" y2="86.53"/><line class="cls-5" x1="215.33" y1="85.39" x2="215.22" y2="85.18"/><line class="cls-5" x1="214.63" y1="84.04" x2="214.52" y2="83.83"/><line class="cls-5" x1="213.87" y1="82.69" x2="213.76" y2="82.48"/><line class="cls-5" x1="213.12" y1="81.4" x2="213.01" y2="81.18"/><line class="cls-5" x1="212.31" y1="80.1" x2="212.2" y2="79.89"/><line class="cls-5" x1="211.5" y1="78.81" x2="211.39" y2="78.59"/><line class="cls-5" x1="210.63" y1="77.51" x2="210.52" y2="77.29"/><line class="cls-5" x1="209.77" y1="76.27" x2="209.61" y2="76.05"/><line class="cls-5" x1="208.85" y1="75.03" x2="208.69" y2="74.81"/><line class="cls-5" x1="207.88" y1="73.78" x2="207.72" y2="73.57"/><line class="cls-5" x1="206.91" y1="72.54" x2="206.74" y2="72.33"/><line class="cls-5" x1="205.93" y1="71.3" x2="205.77" y2="71.08"/><line class="cls-5" x1="204.91" y1="70.06" x2="204.75" y2="69.84"/><line class="cls-5" x1="203.88" y1="68.87" x2="203.72" y2="68.65"/><line class="cls-5" x1="202.86" y1="67.68" x2="202.69" y2="67.52"/><line class="cls-5" x1="201.78" y1="66.55" x2="201.61" y2="66.39"/><line class="cls-5" x1="200.7" y1="65.41" x2="200.53" y2="65.25"/><line class="cls-5" x1="199.62" y1="64.33" x2="199.45" y2="64.17"/><line class="cls-5" x1="198.48" y1="63.25" x2="198.32" y2="63.09"/><line class="cls-5" x1="197.35" y1="62.17" x2="197.19" y2="62.01"/><line class="cls-5" x1="196.21" y1="61.15" x2="196" y2="60.99"/><line class="cls-5" x1="195.03" y1="60.12" x2="194.81" y2="59.96"/><line class="cls-5" x1="193.78" y1="59.1" x2="193.57" y2="58.93"/><line class="cls-5" x1="192.54" y1="58.12" x2="192.38" y2="57.96"/><line class="cls-5" x1="191.35" y1="57.21" x2="191.19" y2="57.04"/><line class="cls-5" x1="190.17" y1="56.29" x2="189.95" y2="56.13"/><line class="cls-5" x1="188.87" y1="55.37" x2="188.65" y2="55.26"/><line class="cls-5" x1="187.57" y1="54.51" x2="187.36" y2="54.4"/><line class="cls-5" x1="186.28" y1="53.7" x2="186.06" y2="53.59"/><line class="cls-5" x1="184.98" y1="52.89" x2="184.77" y2="52.78"/><line class="cls-5" x1="183.69" y1="52.13" x2="183.47" y2="51.97"/><line class="cls-5" x1="182.34" y1="51.37" x2="182.12" y2="51.21"/><line class="cls-5" x1="180.99" y1="50.62" x2="180.77" y2="50.51"/><line class="cls-5" x1="179.64" y1="49.97" x2="179.42" y2="49.86"/><line class="cls-5" x1="178.29" y1="49.32" x2="178.29" y2="49.32"/><line class="cls-5" x1="178.29" y1="49.32" x2="178.07" y2="49.21"/><line class="cls-5" x1="176.88" y1="48.73" x2="176.67" y2="48.62"/><line class="cls-5" x1="175.48" y1="48.13" x2="175.32" y2="48.08"/><line class="cls-5" x1="175.32" y1="48.08" x2="175.26" y2="48.08"/><line class="cls-5" x1="174.07" y1="47.59" x2="173.86" y2="47.54"/><line class="cls-5" x1="172.67" y1="47.11" x2="172.45" y2="47"/><line class="cls-5" x1="171.27" y1="46.62" x2="171.05" y2="46.51"/><line class="cls-5" x1="169.86" y1="46.14" x2="169.65" y2="46.08"/><line class="cls-5" x1="168.46" y1="45.7" x2="168.24" y2="45.65"/><line class="cls-5" x1="167.05" y1="45.27" x2="166.84" y2="45.22"/><line class="cls-5" x1="165.6" y1="44.89" x2="165.38" y2="44.84"/><line class="cls-5" x1="164.14" y1="44.52" x2="163.87" y2="44.46"/><line class="cls-5" x1="162.63" y1="44.19" x2="162.41" y2="44.14"/><line class="cls-5" x1="161.17" y1="43.87" x2="160.9" y2="43.81"/><line class="cls-5" x1="159.66" y1="43.6" x2="159.44" y2="43.54"/><line class="cls-5" x1="158.14" y1="43.38" x2="157.93" y2="43.33"/><line class="cls-5" x1="156.63" y1="43.11" x2="156.47" y2="43.11"/><line class="cls-5" x1="156.47" y1="43.11" x2="156.36" y2="43.11"/><line class="cls-5" x1="155.07" y1="42.95" x2="154.85" y2="42.9"/><line class="cls-5" x1="153.55" y1="42.79" x2="153.34" y2="42.73"/><line class="cls-5" x1="152.04" y1="42.68" x2="151.83" y2="42.63"/><line class="cls-5" x1="150.53" y1="42.57" x2="150.31" y2="42.52"/><line class="cls-5" x1="149.07" y1="185.78" x2="148.86" y2="185.83"/><line class="cls-5" x1="147.67" y1="186.21" x2="147.45" y2="186.27"/><line class="cls-5" x1="146.21" y1="186.59" x2="145.99" y2="186.64"/><line class="cls-5" x1="144.75" y1="186.97" x2="144.7" y2="186.97"/><line class="cls-5" x1="144.7" y1="186.97" x2="144.54" y2="186.86"/><line class="cls-5" x1="143.51" y1="186.05" x2="143.29" y2="185.89"/><line class="cls-5" x1="142.32" y1="186.43" x2="142.11" y2="186.59"/><line class="cls-5" x1="141.13" y1="187.45" x2="140.97" y2="187.62"/><line class="cls-5" x1="140.22" y1="188.7" x2="140.05" y2="188.91"/><line class="cls-5" x1="139.3" y1="189.99" x2="139.14" y2="190.21"/><line class="cls-5" x1="138.38" y1="191.29" x2="138.33" y2="191.4"/><line class="cls-5" x1="138.33" y1="191.4" x2="138.27" y2="191.5"/><line class="cls-5" x1="137.68" y1="192.64" x2="137.57" y2="192.85"/><line class="cls-5" x1="136.98" y1="193.99" x2="136.81" y2="194.2"/><line class="cls-5" x1="136.22" y1="195.34" x2="136.11" y2="195.55"/><line class="cls-5" x1="135.52" y1="196.69" x2="135.41" y2="196.9"/><line class="cls-5" x1="134.82" y1="198.04" x2="134.71" y2="198.25"/><line class="cls-5" x1="133.9" y1="199.28" x2="133.74" y2="199.44"/><line class="cls-5" x1="132.87" y1="200.41" x2="132.71" y2="200.58"/><line class="cls-5" x1="131.85" y1="201.55" x2="131.68" y2="201.71"/><line class="cls-5" x1="130.77" y1="202.63" x2="130.55" y2="202.79"/><line class="cls-5" x1="129.52" y1="203.55" x2="129.31" y2="203.71"/><line class="cls-5" x1="128.28" y1="204.46" x2="128.07" y2="204.63"/><line class="cls-5" x1="126.99" y1="205.22" x2="126.77" y2="205.33"/><line class="cls-5" x1="125.64" y1="205.87" x2="125.42" y2="205.98"/><line class="cls-5" x1="124.23" y1="206.41" x2="124.02" y2="206.46"/><line class="cls-5" x1="122.77" y1="206.68" x2="122.56" y2="206.73"/><line class="cls-5" x1="121.32" y1="206.89" x2="121.1" y2="206.84"/><line class="cls-5" x1="119.86" y1="206.57" x2="119.64" y2="206.52"/><line class="cls-5" x1="118.4" y1="206.19" x2="118.18" y2="206.14"/><line class="cls-5" x1="116.94" y1="205.76" x2="116.73" y2="205.71"/><line class="cls-5" x1="115.59" y1="205.11" x2="115.38" y2="204.95"/><line class="cls-5" x1="114.3" y1="204.19" x2="114.08" y2="204.03"/><line class="cls-5" x1="113" y1="203.33" x2="112.78" y2="203.17"/><line class="cls-5" x1="111.7" y1="202.47" x2="111.49" y2="202.3"/><line class="cls-5" x1="110.41" y1="201.55" x2="110.19" y2="201.39"/><line class="cls-5" x1="109.17" y1="200.63" x2="108.95" y2="200.47"/><line class="cls-5" x1="107.92" y1="199.66" x2="107.76" y2="199.5"/><line class="cls-5" x1="106.74" y1="198.74" x2="106.57" y2="198.58"/><line class="cls-5" x1="105.55" y1="197.82" x2="105.49" y2="197.77"/><line class="cls-5" x1="105.49" y1="197.77" x2="105.39" y2="197.66"/><line class="cls-5" x1="104.36" y1="196.8" x2="104.14" y2="196.63"/><line class="cls-5" x1="103.12" y1="195.77" x2="102.96" y2="195.61"/><line class="cls-5" x1="101.98" y1="194.74" x2="101.82" y2="194.58"/><line class="cls-5" x1="100.85" y1="193.66" x2="100.69" y2="193.5"/><line class="cls-5" x1="99.72" y1="192.58" x2="99.61" y2="192.48"/><line class="cls-5" x1="99.61" y1="192.48" x2="99.55" y2="192.42"/><line class="cls-5" x1="98.69" y1="191.45" x2="98.53" y2="191.29"/><line class="cls-5" x1="97.61" y1="190.32" x2="97.45" y2="190.1"/><line class="cls-5" x1="96.58" y1="189.13" x2="96.42" y2="188.97"/><line class="cls-5" x1="95.56" y1="187.94" x2="95.4" y2="187.72"/><line class="cls-5" x1="94.53" y1="186.7" x2="94.42" y2="186.54"/><line class="cls-5" x1="94.42" y1="186.54" x2="94.37" y2="186.48"/><line class="cls-5" x1="93.61" y1="185.46" x2="93.45" y2="185.29"/><line class="cls-5" x1="92.7" y1="184.27" x2="92.53" y2="184.05"/><line class="cls-5" x1="91.78" y1="182.97" x2="91.62" y2="182.76"/><line class="cls-5" x1="90.86" y1="181.68" x2="90.75" y2="181.46"/><line class="cls-5" x1="90.05" y1="180.43" x2="89.89" y2="180.22"/><line class="cls-5" x1="89.19" y1="179.14" x2="89.08" y2="178.92"/><line class="cls-5" x1="88.38" y1="177.84" x2="88.27" y2="177.63"/><line class="cls-5" x1="87.67" y1="176.49" x2="87.51" y2="176.28"/><line class="cls-5" x1="86.92" y1="175.14" x2="86.81" y2="174.93"/><line class="cls-5" x1="86.16" y1="173.79" x2="86.05" y2="173.58"/><line class="cls-5" x1="85.51" y1="172.44" x2="85.41" y2="172.23"/><line class="cls-5" x1="84.87" y1="171.09" x2="84.76" y2="170.88"/><line class="cls-5" x1="84.27" y1="169.74" x2="84.16" y2="169.53"/><line class="cls-5" x1="83.68" y1="168.39" x2="83.57" y2="168.18"/><line class="cls-5" x1="83.08" y1="167.04" x2="82.98" y2="166.83"/><line class="cls-5" x1="82.49" y1="165.64" x2="82.38" y2="165.42"/><line class="cls-5" x1="81.9" y1="164.23" x2="81.84" y2="164.07"/><line class="cls-5" x1="81.84" y1="164.07" x2="81.84" y2="164.02"/><line class="cls-5" x1="81.41" y1="162.83" x2="81.3" y2="162.61"/><line class="cls-5" x1="80.92" y1="161.43" x2="80.82" y2="161.21"/><line class="cls-5" x1="80.44" y1="160.02" x2="80.38" y2="159.81"/><line class="cls-5" x1="80.01" y1="158.62" x2="79.95" y2="158.4"/><line class="cls-5" x1="79.57" y1="157.16" x2="79.52" y2="156.94"/><line class="cls-5" x1="79.2" y1="155.7" x2="79.14" y2="155.49"/><line class="cls-5" x1="78.82" y1="154.24" x2="78.76" y2="154.03"/><line class="cls-5" x1="78.44" y1="152.79" x2="78.39" y2="152.57"/><line class="cls-5" x1="78.06" y1="151.33" x2="78.01" y2="151.11"/><line class="cls-5" x1="77.74" y1="149.87" x2="77.68" y2="149.65"/><line class="cls-5" x1="77.47" y1="148.41" x2="77.41" y2="148.2"/><line class="cls-5" x1="77.2" y1="146.95" x2="77.14" y2="146.79"/><line class="cls-5" x1="77.14" y1="146.79" x2="77.14" y2="146.74"/><line class="cls-5" x1="76.93" y1="145.5" x2="76.87" y2="145.28"/><line class="cls-5" x1="76.66" y1="143.98" x2="76.66" y2="143.71"/><line class="cls-5" x1="76.44" y1="142.47" x2="76.39" y2="142.2"/><line class="cls-5" x1="76.23" y1="140.91" x2="76.23" y2="140.64"/><line class="cls-5" x1="76.06" y1="139.39" x2="76.01" y2="139.18"/><line class="cls-5" x1="75.85" y1="137.88" x2="75.79" y2="137.61"/><line class="cls-5" x1="75.69" y1="136.32" x2="75.63" y2="136.1"/><line class="cls-5" x1="75.52" y1="134.8" x2="75.52" y2="134.53"/><line class="cls-5" x1="75.42" y1="133.24" x2="75.36" y2="132.97"/><line class="cls-5" x1="75.25" y1="131.67" x2="75.25" y2="131.4"/><line class="cls-5" x1="75.2" y1="130.11" x2="75.15" y2="129.89"/><line class="cls-5" x1="75.09" y1="128.59" x2="75.09" y2="128.32"/><line class="cls-5" x1="74.98" y1="127.03" x2="74.98" y2="126.76"/><line class="cls-5" x1="74.93" y1="125.46" x2="74.93" y2="125.19"/><line class="cls-5" x1="74.88" y1="123.9" x2="74.88" y2="123.63"/><line class="cls-5" x1="74.88" y1="122.28" x2="74.88" y2="122.01"/><line class="cls-5" x1="74.82" y1="120.71" x2="74.82" y2="120.6"/><line class="cls-5" x1="74.82" y1="120.6" x2="74.82" y2="120.44"/><line class="cls-5" x1="74.88" y1="119.14" x2="74.88" y2="118.87"/><line class="cls-5" x1="74.88" y1="117.52" x2="74.88" y2="117.25"/><line class="cls-5" x1="74.93" y1="115.96" x2="74.98" y2="115.74"/><line class="cls-5" x1="75.04" y1="114.45" x2="75.04" y2="114.18"/><line class="cls-5" x1="75.09" y1="112.88" x2="75.15" y2="112.66"/><line class="cls-5" x1="75.25" y1="111.37" x2="75.25" y2="111.1"/><line class="cls-5" x1="75.36" y1="109.8" x2="75.42" y2="109.59"/><line class="cls-5" x1="75.58" y1="108.29" x2="75.63" y2="108.02"/><line class="cls-5" x1="75.79" y1="106.72" x2="75.79" y2="106.62"/><line class="cls-5" x1="75.79" y1="106.62" x2="75.85" y2="106.45"/><line class="cls-5" x1="76.06" y1="105.16" x2="76.06" y2="104.89"/><line class="cls-5" x1="76.28" y1="103.65" x2="76.33" y2="103.43"/><line class="cls-5" x1="76.6" y1="102.19" x2="76.66" y2="101.97"/><line class="cls-5" x1="76.93" y1="100.73" x2="76.98" y2="100.51"/><line class="cls-5" x1="77.25" y1="99.27" x2="77.31" y2="99.06"/><line class="cls-5" x1="77.58" y1="97.81" x2="77.68" y2="97.6"/><line class="cls-5" x1="78.01" y1="96.36" x2="78.06" y2="96.14"/><line class="cls-5" x1="78.44" y1="94.95" x2="78.49" y2="94.74"/><line class="cls-5" x1="78.87" y1="93.49" x2="78.93" y2="93.28"/><line class="cls-5" x1="79.3" y1="92.09" x2="79.36" y2="91.87"/><line class="cls-5" x1="79.79" y1="90.69" x2="79.9" y2="90.47"/><line class="cls-5" x1="80.33" y1="89.28" x2="80.38" y2="89.07"/><line class="cls-5" x1="80.87" y1="87.88" x2="80.92" y2="87.66"/><line class="cls-5" x1="81.41" y1="86.47" x2="81.52" y2="86.26"/><line class="cls-5" x1="82" y1="85.07" x2="82.11" y2="84.85"/><line class="cls-5" x1="82.6" y1="83.72" x2="82.71" y2="83.5"/><line class="cls-5" x1="83.3" y1="82.37" x2="83.41" y2="82.15"/><line class="cls-5" x1="83.95" y1="81.02" x2="84.06" y2="80.8"/><line class="cls-5" x1="84.65" y1="79.67" x2="84.76" y2="79.45"/><line class="cls-5" x1="85.41" y1="78.32" x2="85.51" y2="78.1"/><line class="cls-5" x1="86.16" y1="77.02" x2="86.27" y2="76.81"/><line class="cls-5" x1="86.92" y1="75.73" x2="86.92" y2="75.73"/><line class="cls-5" x1="86.92" y1="75.73" x2="87.08" y2="75.51"/><line class="cls-5" x1="87.78" y1="74.43" x2="87.89" y2="74.22"/><line class="cls-5" x1="88.59" y1="73.14" x2="88.65" y2="73.08"/><line class="cls-5" x1="88.65" y1="73.08" x2="88.75" y2="72.92"/><line class="cls-5" x1="89.51" y1="71.89" x2="89.67" y2="71.68"/><line class="cls-5" x1="90.43" y1="70.65" x2="90.48" y2="70.54"/><line class="cls-5" x1="90.48" y1="70.54" x2="90.59" y2="70.44"/><line class="cls-5" x1="91.4" y1="69.41" x2="91.56" y2="69.19"/><line class="cls-5" x1="92.37" y1="68.17" x2="92.48" y2="68.06"/><line class="cls-5" x1="92.48" y1="68.06" x2="92.53" y2="68.01"/><line class="cls-5" x1="93.4" y1="66.98" x2="93.56" y2="66.82"/><line class="cls-5" x1="94.42" y1="65.85" x2="94.59" y2="65.63"/><line class="cls-5" x1="95.5" y1="64.66" x2="95.67" y2="64.5"/><line class="cls-5" x1="96.58" y1="63.52" x2="96.75" y2="63.36"/><line class="cls-5" x1="97.66" y1="62.44" x2="97.83" y2="62.28"/><line class="cls-5" x1="98.8" y1="61.36" x2="98.96" y2="61.2"/><line class="cls-5" x1="99.93" y1="60.34" x2="100.15" y2="60.18"/><line class="cls-5" x1="101.12" y1="59.31" x2="101.28" y2="59.15"/><line class="cls-5" x1="102.31" y1="58.34" x2="102.47" y2="58.18"/><line class="cls-5" x1="103.5" y1="57.31" x2="103.71" y2="57.15"/><line class="cls-5" x1="104.74" y1="56.34" x2="104.95" y2="56.18"/><line class="cls-5" x1="105.98" y1="55.42" x2="106.2" y2="55.26"/><line class="cls-5" x1="107.28" y1="54.51" x2="107.49" y2="54.34"/><line class="cls-5" x1="108.57" y1="53.64" x2="108.79" y2="53.48"/><line class="cls-5" x1="109.87" y1="52.78" x2="110.08" y2="52.67"/><line class="cls-5" x1="111.16" y1="51.97" x2="111.38" y2="51.86"/><line class="cls-5" x1="112.46" y1="51.21" x2="112.68" y2="51.1"/><line class="cls-5" x1="113.81" y1="50.46" x2="114.03" y2="50.35"/><line class="cls-5" x1="115.16" y1="49.75" x2="115.38" y2="49.65"/><line class="cls-5" x1="116.51" y1="49.11" x2="116.73" y2="49"/><line class="cls-5" x1="117.86" y1="48.46" x2="117.91" y2="48.46"/><line class="cls-5" x1="117.91" y1="48.46" x2="118.08" y2="48.4"/><line class="cls-5" x1="119.21" y1="47.92" x2="119.43" y2="47.81"/><line class="cls-5" x1="120.61" y1="47.32" x2="120.83" y2="47.22"/><line class="cls-5" x1="122.02" y1="46.78" x2="122.23" y2="46.73"/><line class="cls-5" x1="123.42" y1="46.3" x2="123.64" y2="46.19"/><line class="cls-5" x1="124.83" y1="45.81" x2="125.04" y2="45.76"/><line class="cls-5" x1="126.23" y1="45.38" x2="126.45" y2="45.33"/><line class="cls-5" x1="127.69" y1="45" x2="127.9" y2="44.95"/><line class="cls-5" x1="129.15" y1="44.62" x2="129.36" y2="44.57"/><line class="cls-5" x1="130.6" y1="44.25" x2="130.82" y2="44.19"/><line class="cls-5" x1="132.06" y1="43.98" x2="132.28" y2="43.92"/><line class="cls-5" x1="133.52" y1="43.65" x2="133.63" y2="43.65"/><line class="cls-5" x1="133.63" y1="43.65" x2="133.79" y2="43.6"/><line class="cls-5" x1="135.09" y1="43.38" x2="135.36" y2="43.38"/><line class="cls-5" x1="136.6" y1="43.17" x2="136.81" y2="43.11"/><line class="cls-5" x1="138.11" y1="42.95" x2="138.38" y2="42.95"/><line class="cls-5" x1="139.68" y1="42.79" x2="139.89" y2="42.73"/><line class="cls-5" x1="141.19" y1="42.68" x2="141.4" y2="42.63"/><line class="cls-5" x1="142.7" y1="42.57" x2="142.97" y2="42.57"/><line class="cls-5" x1="144.27" y1="42.52" x2="144.54" y2="42.52"/><line class="cls-5" x1="145.83" y1="42.46" x2="146.1" y2="42.46"/><line class="cls-5" x1="147.45" y1="42.46" x2="147.72" y2="42.46"/><line class="cls-5" x1="149.02" y1="42.52" x2="149.29" y2="42.52"/></g></g></svg>