<svg id="Glo-ball_F1" data-name="Glo-ball F1" xmlns="http://www.w3.org/2000/svg" viewBox="0 0 300 263"><defs><style>.cls-1,.cls-3{fill:none;stroke-width:0.5px;}.cls-1{stroke:#1a171b;stroke-linecap:round;stroke-linejoin:round;}.cls-2{isolation:isolate;}.cls-3{stroke:#000;}</style></defs><title>glo-ball-floor-1-morrison-flos-F3031020-spech-tech-02-300x263</title><path class="cls-1" d="M154.49,116.5c8-2.28,12.23-9.42,9.43-16s-11.56-10-19.57-7.68-12.23,9.42-9.43,15.95c1.16,3.28,5.41,6.74,9.43,7.68"/><rect class="cls-1" x="144.3" y="116.5" width="10.24" height="0.33"/><polyline class="cls-1" points="148.72 209.8 148.72 116.83 150.12 116.83 150.12 209.8"/><line class="cls-1" x1="148.73" y1="209.8" x2="148.26" y2="216.31"/><line class="cls-1" x1="150.12" y1="209.8" x2="150.58" y2="216.31"/><rect class="cls-1" x="134.06" y="216.31" width="30.72" height="0.93"/><g class="cls-2"><path d="M113.83,182.46v1.16h-9.89l1.8,2-.87.72-2.37-2.88v-1Z"/><path d="M107.37,175.87v-.59a4.19,4.19,0,0,0-.11-.95,2.39,2.39,0,0,0-.36-.79,1.72,1.72,0,0,0-.65-.54,2.19,2.19,0,0,0-1-.2,1.86,1.86,0,0,0-1.42.55,2.26,2.26,0,0,0-.5,1.55,2.46,2.46,0,0,0,.32,1.26,2.52,2.52,0,0,0,.93.9l-.52,1a3.55,3.55,0,0,1-1.35-1.31,3.75,3.75,0,0,1-.44-1.83,4.26,4.26,0,0,1,.19-1.26,3.13,3.13,0,0,1,.57-1,2.88,2.88,0,0,1,.93-.71,3,3,0,0,1,1.26-.26,2.58,2.58,0,0,1,.88.15,2.85,2.85,0,0,1,1.33,1,2.89,2.89,0,0,1,.38.74l0,0a2.34,2.34,0,0,1,.36-.88,2.67,2.67,0,0,1,.65-.69,2.8,2.8,0,0,1,.86-.44,3.1,3.1,0,0,1,1-.16,3.23,3.23,0,0,1,1.39.28,3.12,3.12,0,0,1,1,.79,3.65,3.65,0,0,1,.63,1.15A4.54,4.54,0,0,1,114,175a4.27,4.27,0,0,1-.54,2.18,3.29,3.29,0,0,1-1.74,1.39l-.37-1.22a2.4,2.4,0,0,0,1.21-.85,2.79,2.79,0,0,0,.39-1.59,2.54,2.54,0,0,0-.16-.92,2.45,2.45,0,0,0-.46-.76,2,2,0,0,0-.71-.51,2.27,2.27,0,0,0-.91-.18,2.21,2.21,0,0,0-1.08.24,1.91,1.91,0,0,0-.71.64,2.65,2.65,0,0,0-.4.92,4.7,4.7,0,0,0-.12,1.08v.49Z"/><path d="M103.56,162.8v4.63l3.41.08a3.44,3.44,0,0,1-.21-.76,4.87,4.87,0,0,1-.06-.76,3.8,3.8,0,0,1,.27-1.46,3.26,3.26,0,0,1,.76-1.13,3.42,3.42,0,0,1,1.15-.73,4,4,0,0,1,2.94,0,3.34,3.34,0,0,1,1.17.8,3.51,3.51,0,0,1,.76,1.21,4.13,4.13,0,0,1,.27,1.51,3.71,3.71,0,0,1-.51,1.93,3.31,3.31,0,0,1-1.5,1.33l-.5-1.15a2.67,2.67,0,0,0,1.07-.89,2.31,2.31,0,0,0,.39-1.33,2.55,2.55,0,0,0-.2-1,2.5,2.5,0,0,0-.54-.81,2.68,2.68,0,0,0-.8-.54,2.54,2.54,0,0,0-1-.2,2.79,2.79,0,0,0-1.09.21,2.57,2.57,0,0,0-1.41,1.46,3.33,3.33,0,0,0-.19,1.12,4.52,4.52,0,0,0,.17,1.2,5,5,0,0,0,.46,1.15l-5.88-.11V162.8Z"/><path d="M102.31,156.9a3.24,3.24,0,0,1,.56-2,3.89,3.89,0,0,1,1.43-1.17,6.3,6.3,0,0,1,1.89-.56,15.36,15.36,0,0,1,2-.14,15.09,15.09,0,0,1,2,.14,6.45,6.45,0,0,1,1.9.56,3.78,3.78,0,0,1,1.42,1.17,3.75,3.75,0,0,1,0,3.94A3.66,3.66,0,0,1,112,160a6.17,6.17,0,0,1-1.9.56,13.58,13.58,0,0,1-2,.15,13.82,13.82,0,0,1-2-.15,6,6,0,0,1-1.89-.56,3.77,3.77,0,0,1-1.43-1.16A3.26,3.26,0,0,1,102.31,156.9Zm1.06,0a2.06,2.06,0,0,0,.49,1.46,3.11,3.11,0,0,0,1.24.81,6.1,6.1,0,0,0,1.56.34c.56.05,1.06.08,1.51.08s1,0,1.5-.08a6.09,6.09,0,0,0,1.57-.34,3.08,3.08,0,0,0,1.23-.81,2.07,2.07,0,0,0,.5-1.46,2.09,2.09,0,0,0-.5-1.47,3.3,3.3,0,0,0-1.23-.81,6.09,6.09,0,0,0-1.57-.34c-.55-.05-1-.07-1.5-.07s-1,0-1.51.07a6.1,6.1,0,0,0-1.56.34,3.34,3.34,0,0,0-1.24.81A2.09,2.09,0,0,0,103.37,156.9Z"/><path d="M108,146.85l-.83,0-.84.06v-1.14h1.14v0a2.47,2.47,0,0,1-1-1.06,2.91,2.91,0,0,1-.27-2,2.42,2.42,0,0,1,.23-.67,2.34,2.34,0,0,1,.47-.6,2.65,2.65,0,0,1,.78-.47,2.45,2.45,0,0,1-1.13-1,3.07,3.07,0,0,1,.34-3.58,3.12,3.12,0,0,1,2.17-.69h4.75v1.06h-4.37a3.16,3.16,0,0,0-1.74.4,1.62,1.62,0,0,0-.61,1.48,1.82,1.82,0,0,0,.85,1.65,2.79,2.79,0,0,0,.87.35,4.31,4.31,0,0,0,1,.12h4v1h-4.37a3.25,3.25,0,0,0-1.74.4,1.65,1.65,0,0,0-.61,1.49,2.52,2.52,0,0,0,.07.44,1.62,1.62,0,0,0,.35.71,2.55,2.55,0,0,0,.86.67,3.69,3.69,0,0,0,1.6.29h3.84v1.06Z"/><path d="M108,133.22c-.28,0-.56,0-.83,0l-.84.06v-1.14h1.14v0a2.44,2.44,0,0,1-1-1.07,2.94,2.94,0,0,1-.34-1.35,3.07,3.07,0,0,1,.07-.65,2.23,2.23,0,0,1,.7-1.26,2.45,2.45,0,0,1,.78-.47,2.42,2.42,0,0,1-1.13-1,2.73,2.73,0,0,1-.42-1.44,2.76,2.76,0,0,1,.76-2.13,3.12,3.12,0,0,1,2.17-.69h4.75v1h-4.37a3.15,3.15,0,0,0-1.74.41,1.62,1.62,0,0,0-.61,1.48,2,2,0,0,0,.23,1,1.9,1.9,0,0,0,.62.64,2.58,2.58,0,0,0,.87.36,4.31,4.31,0,0,0,1,.11h4v1.06h-4.37a3.16,3.16,0,0,0-1.74.4,1.64,1.64,0,0,0-.61,1.49,2.67,2.67,0,0,0,.07.44,1.62,1.62,0,0,0,.35.71,2.55,2.55,0,0,0,.86.67,3.69,3.69,0,0,0,1.6.29h3.84v1.06Z"/></g><line class="cls-3" x1="122.2" y1="91.99" x2="122.2" y2="216.78"/><line class="cls-3" x1="123.27" y1="91.99" x2="119.9" y2="91.99"/><line class="cls-3" x1="123.96" y1="216.78" x2="119.58" y2="216.78"/><line class="cls-3" x1="132.35" y1="226.86" x2="164.78" y2="226.86"/><line class="cls-3" x1="132.33" y1="225.57" x2="132.33" y2="228.16"/><line class="cls-3" x1="164.78" y1="225.57" x2="164.78" y2="228.16"/><g class="cls-2"><path d="M121.62,241.14a3.62,3.62,0,0,1,.68,1.16,4,4,0,0,1,.25,1.45,4.26,4.26,0,0,1-.29,1.57,3.8,3.8,0,0,1-.83,1.24,3.7,3.7,0,0,1-1.25.83,4.43,4.43,0,0,1-1.61.29,4.15,4.15,0,0,1-1.4-.22,3.72,3.72,0,0,1-1.11-.61L115,247.94l-.51-.5,1.06-1.08a3.78,3.78,0,0,1-.69-1.18,4.17,4.17,0,0,1-.24-1.43,4,4,0,0,1,.3-1.57,3.67,3.67,0,0,1,.82-1.25,3.76,3.76,0,0,1,1.26-.82,4.09,4.09,0,0,1,1.59-.3A4.18,4.18,0,0,1,120,240a3.84,3.84,0,0,1,1.15.61l1.06-1.08.51.49Zm-1.24.26a2.66,2.66,0,0,0-1.81-.63,3,3,0,0,0-1.18.23,2.7,2.7,0,0,0-.88.64,2.94,2.94,0,0,0-.56.94,3.42,3.42,0,0,0-.2,1.17,2.94,2.94,0,0,0,.55,1.82Zm-3.6,4.72a2.49,2.49,0,0,0,.8.44,2.86,2.86,0,0,0,1,.16,2.72,2.72,0,0,0,1.17-.23,2.48,2.48,0,0,0,.89-.63,2.73,2.73,0,0,0,.57-.94,3.51,3.51,0,0,0,.2-1.17,3.16,3.16,0,0,0-.54-1.83Z"/><path d="M131,241h.59a4.35,4.35,0,0,0,1-.11,2.48,2.48,0,0,0,.79-.36,1.88,1.88,0,0,0,.53-.65,2.06,2.06,0,0,0,.2-1,1.82,1.82,0,0,0-.55-1.42A2.23,2.23,0,0,0,132,237a2.35,2.35,0,0,0-2.16,1.25l-1-.52a3.53,3.53,0,0,1,1.3-1.35A3.76,3.76,0,0,1,132,236a4.31,4.31,0,0,1,1.26.19,3.18,3.18,0,0,1,1,.57,2.62,2.62,0,0,1,.71.93,2.84,2.84,0,0,1,.27,1.26,2.37,2.37,0,0,1-.16.88,3,3,0,0,1-.41.75,3.08,3.08,0,0,1-1.35,1l0,0a2.28,2.28,0,0,1,.88.36,2.67,2.67,0,0,1,.69.65,3.06,3.06,0,0,1,.45.86,3.1,3.1,0,0,1,.16,1,3.23,3.23,0,0,1-.29,1.39,3,3,0,0,1-.78,1,3.77,3.77,0,0,1-1.15.63,4.61,4.61,0,0,1-1.4.21,4.24,4.24,0,0,1-2.17-.54,3.29,3.29,0,0,1-1.39-1.74l1.21-.37a2.41,2.41,0,0,0,.86,1.21,2.79,2.79,0,0,0,1.59.39,2.53,2.53,0,0,0,.91-.16,2.34,2.34,0,0,0,.76-.46,2,2,0,0,0,.51-.71,2.12,2.12,0,0,0,.19-.91,2.21,2.21,0,0,0-.24-1.08,2,2,0,0,0-.64-.71,2.83,2.83,0,0,0-.92-.4,4.83,4.83,0,0,0-1.08-.12H131Z"/><path d="M139.93,241h.59a4.19,4.19,0,0,0,.95-.11,2.3,2.3,0,0,0,.79-.36,1.8,1.8,0,0,0,.54-.65,2.19,2.19,0,0,0,.2-1,1.82,1.82,0,0,0-.55-1.42,2.24,2.24,0,0,0-1.55-.5,2.36,2.36,0,0,0-1.26.32,2.52,2.52,0,0,0-.9.93l-1-.52a3.46,3.46,0,0,1,1.3-1.35,3.75,3.75,0,0,1,1.83-.44,4.38,4.38,0,0,1,1.27.19,3.18,3.18,0,0,1,1,.57,2.74,2.74,0,0,1,.71.93,3,3,0,0,1,.26,1.26,2.58,2.58,0,0,1-.15.88,2.85,2.85,0,0,1-1,1.33,2.89,2.89,0,0,1-.74.38l.05,0a2.34,2.34,0,0,1,.88.36,2.67,2.67,0,0,1,.69.65,3.06,3.06,0,0,1,.45.86,3.39,3.39,0,0,1,.16,1,3.23,3.23,0,0,1-.29,1.39,3,3,0,0,1-.79,1,3.65,3.65,0,0,1-1.15.63,4.54,4.54,0,0,1-1.39.21,4.27,4.27,0,0,1-2.18-.54,3.33,3.33,0,0,1-1.39-1.74l1.22-.37a2.46,2.46,0,0,0,.85,1.21,2.8,2.8,0,0,0,1.6.39,2.53,2.53,0,0,0,.91-.16,2.34,2.34,0,0,0,.76-.46,2,2,0,0,0,.51-.71,2.27,2.27,0,0,0,.18-.91,2.21,2.21,0,0,0-.24-1.08,1.91,1.91,0,0,0-.64-.71,2.65,2.65,0,0,0-.92-.4,4.7,4.7,0,0,0-1.08-.12h-.49Z"/><path d="M150,236a3.26,3.26,0,0,1,2,.56,3.77,3.77,0,0,1,1.16,1.43,6,6,0,0,1,.56,1.89,13.82,13.82,0,0,1,.15,2,13.58,13.58,0,0,1-.15,2,6.17,6.17,0,0,1-.56,1.9,3.66,3.66,0,0,1-1.16,1.42,3.75,3.75,0,0,1-3.94,0,3.78,3.78,0,0,1-1.17-1.42,6.45,6.45,0,0,1-.56-1.9,15.09,15.09,0,0,1-.14-2,15.36,15.36,0,0,1,.14-2,6.3,6.3,0,0,1,.56-1.89,3.89,3.89,0,0,1,1.17-1.43A3.24,3.24,0,0,1,150,236Zm0,1.06a2.09,2.09,0,0,0-1.47.49,3.2,3.2,0,0,0-.8,1.24,5.72,5.72,0,0,0-.35,1.56c0,.56-.07,1.06-.07,1.51s0,.95.07,1.5a5.71,5.71,0,0,0,.35,1.57,3.17,3.17,0,0,0,.8,1.23,2.09,2.09,0,0,0,1.47.5,2.07,2.07,0,0,0,1.46-.5,3.08,3.08,0,0,0,.81-1.23,5.7,5.7,0,0,0,.34-1.57c0-.55.08-1.05.08-1.5s0-1-.08-1.51a5.71,5.71,0,0,0-.34-1.56,3.11,3.11,0,0,0-.81-1.24A2.06,2.06,0,0,0,150,237Z"/><path d="M160.06,241.67c0-.28,0-.56,0-.83s0-.56-.05-.84h1.13v1.14h0a2.44,2.44,0,0,1,1.07-1,2.94,2.94,0,0,1,1.35-.34,3.07,3.07,0,0,1,.65.07,2.25,2.25,0,0,1,.66.23,2.18,2.18,0,0,1,.6.47,2.28,2.28,0,0,1,.47.78,2.53,2.53,0,0,1,1-1.13,3.07,3.07,0,0,1,3.58.34,3.17,3.17,0,0,1,.68,2.17v4.75h-1.05v-4.37a3.25,3.25,0,0,0-.4-1.74,1.65,1.65,0,0,0-1.49-.61,2,2,0,0,0-1,.23,1.93,1.93,0,0,0-.65.62,2.58,2.58,0,0,0-.36.87,4.9,4.9,0,0,0-.11,1v4h-1.06v-4.37a3.16,3.16,0,0,0-.4-1.74,1.63,1.63,0,0,0-1.49-.61,2.67,2.67,0,0,0-.44.07,1.67,1.67,0,0,0-.71.35,2.67,2.67,0,0,0-.66.86,3.53,3.53,0,0,0-.3,1.6v3.84h-1.05Z"/><path d="M173.69,241.67c0-.28,0-.56,0-.83s0-.56,0-.84h1.13v1.14h0a2.41,2.41,0,0,1,1.06-1,2.94,2.94,0,0,1,1.35-.34,3.07,3.07,0,0,1,.65.07,2.25,2.25,0,0,1,.66.23,2,2,0,0,1,.6.47,2.47,2.47,0,0,1,.48.78,2.45,2.45,0,0,1,1-1.13,3.07,3.07,0,0,1,3.58.34,3.12,3.12,0,0,1,.69,2.17v4.75H183.8v-4.37a3.16,3.16,0,0,0-.4-1.74,1.64,1.64,0,0,0-1.49-.61,2,2,0,0,0-1,.23,1.93,1.93,0,0,0-.65.62,3.07,3.07,0,0,0-.36.87,4.9,4.9,0,0,0-.11,1v4h-1.06v-4.37a3.16,3.16,0,0,0-.4-1.74,1.62,1.62,0,0,0-1.48-.61,2.52,2.52,0,0,0-.44.07,1.71,1.71,0,0,0-.72.35,2.67,2.67,0,0,0-.66.86,3.53,3.53,0,0,0-.3,1.6v3.84h-1.05Z"/></g><line class="cls-3" x1="128.96" y1="82.54" x2="170.76" y2="82.54"/><line class="cls-3" x1="128.94" y1="81.24" x2="128.94" y2="83.84"/><line class="cls-3" x1="170.76" y1="81.24" x2="170.76" y2="83.84"/><g class="cls-2"><path d="M122.6,66.82a3.52,3.52,0,0,1,.68,1.16,4,4,0,0,1,.25,1.44,4.22,4.22,0,0,1-.29,1.57,3.85,3.85,0,0,1-.83,1.25,3.67,3.67,0,0,1-1.25.82,4.23,4.23,0,0,1-1.61.3,4.15,4.15,0,0,1-1.4-.22,4,4,0,0,1-1.11-.61L116,73.62l-.51-.5L116.51,72a3.62,3.62,0,0,1-.69-1.17,4.23,4.23,0,0,1-.24-1.44,4,4,0,0,1,.3-1.56,3.67,3.67,0,0,1,.82-1.25,3.79,3.79,0,0,1,1.26-.83,4.29,4.29,0,0,1,1.59-.29,4.45,4.45,0,0,1,1.39.21,3.86,3.86,0,0,1,1.15.62l1.06-1.09.51.5Zm-1.24.25a2.7,2.7,0,0,0-1.81-.62,3,3,0,0,0-1.18.23,2.82,2.82,0,0,0-.88.63,3,3,0,0,0-.56,1,3.41,3.41,0,0,0-.2,1.16,3,3,0,0,0,.55,1.83Zm-3.6,4.72a2.72,2.72,0,0,0,.8.45,2.82,2.82,0,0,0,1,.16,2.87,2.87,0,0,0,1.17-.23,2.76,2.76,0,0,0,.89-.63,2.68,2.68,0,0,0,.57-1,3.42,3.42,0,0,0,.2-1.17,3.13,3.13,0,0,0-.54-1.82Z"/><path d="M132,66.7h.59a3.82,3.82,0,0,0,1-.11,2.11,2.11,0,0,0,.79-.36,1.71,1.71,0,0,0,.53-.65,2,2,0,0,0,.2-1,1.8,1.8,0,0,0-.55-1.41A2.18,2.18,0,0,0,133,62.7a2.52,2.52,0,0,0-1.27.32,2.57,2.57,0,0,0-.89.93l-1-.51a3.39,3.39,0,0,1,1.3-1.35,3.76,3.76,0,0,1,1.84-.44,4,4,0,0,1,1.26.19,3.18,3.18,0,0,1,1,.57,2.62,2.62,0,0,1,.71.93,2.77,2.77,0,0,1,.27,1.25,2.37,2.37,0,0,1-.16.88,2.72,2.72,0,0,1-.41.75,2.89,2.89,0,0,1-.62.59,2.79,2.79,0,0,1-.73.37l0,0a2.28,2.28,0,0,1,.88.36,2.63,2.63,0,0,1,.69.64,3.26,3.26,0,0,1,.45.87,3.05,3.05,0,0,1,.16,1,3.26,3.26,0,0,1-.29,1.39,3,3,0,0,1-.78,1,3.39,3.39,0,0,1-1.15.63,4.32,4.32,0,0,1-1.4.22,4.24,4.24,0,0,1-2.17-.54,3.35,3.35,0,0,1-1.39-1.75l1.21-.37a2.33,2.33,0,0,0,.86,1.21,2.79,2.79,0,0,0,1.59.39,2.53,2.53,0,0,0,.91-.16,2.16,2.16,0,0,0,.76-.45,2.11,2.11,0,0,0,.51-.71,2.13,2.13,0,0,0,.19-.92,2.27,2.27,0,0,0-.24-1.08,2.09,2.09,0,0,0-.64-.71,2.81,2.81,0,0,0-.92-.39,4.83,4.83,0,0,0-1.08-.12H132Z"/><path d="M140.91,66.7h.59a3.69,3.69,0,0,0,.95-.11,2,2,0,0,0,.79-.36,1.64,1.64,0,0,0,.54-.65,2.13,2.13,0,0,0,.2-1,1.8,1.8,0,0,0-.55-1.41,2.19,2.19,0,0,0-1.55-.51,2.46,2.46,0,0,0-1.26.32,2.68,2.68,0,0,0-.9.93l-1-.51a3.33,3.33,0,0,1,1.3-1.35,3.75,3.75,0,0,1,1.83-.44,4.07,4.07,0,0,1,1.27.19,3.18,3.18,0,0,1,1,.57,2.74,2.74,0,0,1,.71.93,2.91,2.91,0,0,1,.26,1.25,2.58,2.58,0,0,1-.15.88,2.5,2.5,0,0,1-.42.75,2.76,2.76,0,0,1-1.35,1l0,0a2.34,2.34,0,0,1,.88.36,2.63,2.63,0,0,1,.69.64,3.26,3.26,0,0,1,.45.87,3.34,3.34,0,0,1,.16,1,3.26,3.26,0,0,1-.29,1.39,3,3,0,0,1-.79,1,3.3,3.3,0,0,1-1.15.63,4.6,4.6,0,0,1-3.57-.32,3.4,3.4,0,0,1-1.39-1.75l1.22-.37a2.37,2.37,0,0,0,.85,1.21,2.8,2.8,0,0,0,1.6.39,2.53,2.53,0,0,0,.91-.16,2.16,2.16,0,0,0,.76-.45,2.11,2.11,0,0,0,.51-.71,2.5,2.5,0,0,0-.06-2,2,2,0,0,0-.64-.71,2.64,2.64,0,0,0-.92-.39,4.7,4.7,0,0,0-1.08-.12h-.49Z"/><path d="M151,61.65a3.26,3.26,0,0,1,2,.56,3.74,3.74,0,0,1,1.16,1.42,6.17,6.17,0,0,1,.56,1.9,13.08,13.08,0,0,1,0,4,6.17,6.17,0,0,1-.56,1.9A3.74,3.74,0,0,1,153,72.8a3.75,3.75,0,0,1-3.94,0,3.86,3.86,0,0,1-1.17-1.42,6.45,6.45,0,0,1-.56-1.9,14,14,0,0,1,0-4,6.45,6.45,0,0,1,.56-1.9A3.86,3.86,0,0,1,149,62.21,3.24,3.24,0,0,1,151,61.65Zm0,1.05a2.09,2.09,0,0,0-1.47.5,3.17,3.17,0,0,0-.8,1.23,5.79,5.79,0,0,0-.35,1.57c-.05.56-.07,1.06-.07,1.5s0,1,.07,1.51a5.79,5.79,0,0,0,.35,1.57,3.17,3.17,0,0,0,.8,1.23,2.09,2.09,0,0,0,1.47.49,2.06,2.06,0,0,0,1.46-.49,3.08,3.08,0,0,0,.81-1.23A5.78,5.78,0,0,0,153.6,69c.05-.56.08-1.06.08-1.51s0-.94-.08-1.5a5.78,5.78,0,0,0-.34-1.57,3.08,3.08,0,0,0-.81-1.23A2.07,2.07,0,0,0,151,62.7Z"/><path d="M161,67.34c0-.27,0-.55,0-.83s0-.55,0-.83h1.13v1.14h0a2.52,2.52,0,0,1,1.07-1,3.05,3.05,0,0,1,1.35-.33,3.83,3.83,0,0,1,.65.06,2.59,2.59,0,0,1,.66.23,2.08,2.08,0,0,1,.6.48,2.28,2.28,0,0,1,.47.78,2.56,2.56,0,0,1,1-1.14,2.85,2.85,0,0,1,1.45-.41,2.73,2.73,0,0,1,2.13.76,3.17,3.17,0,0,1,.68,2.17v4.75h-1V68.8a3.2,3.2,0,0,0-.4-1.74,1.64,1.64,0,0,0-1.49-.61,2,2,0,0,0-1,.23,1.93,1.93,0,0,0-.65.62,2.42,2.42,0,0,0-.36.87,4.74,4.74,0,0,0-.11,1v4h-1.06V68.8a3.11,3.11,0,0,0-.4-1.74,1.64,1.64,0,0,0-1.49-.61l-.44.06a1.8,1.8,0,0,0-.71.35,2.58,2.58,0,0,0-.66.87,3.51,3.51,0,0,0-.3,1.6v3.84H161Z"/><path d="M174.67,67.34c0-.27,0-.55,0-.83s0-.55,0-.83h1.13v1.14h0a2.5,2.5,0,0,1,1.06-1,3.05,3.05,0,0,1,1.35-.33,3.83,3.83,0,0,1,.65.06,2.59,2.59,0,0,1,.66.23,2.08,2.08,0,0,1,.6.48,2.47,2.47,0,0,1,.48.78,2.48,2.48,0,0,1,1-1.14,2.87,2.87,0,0,1,1.45-.41,2.73,2.73,0,0,1,2.13.76,3.12,3.12,0,0,1,.69,2.17v4.75h-1.06V68.8a3.11,3.11,0,0,0-.4-1.74,1.64,1.64,0,0,0-1.49-.61,2,2,0,0,0-1,.23,1.93,1.93,0,0,0-.65.62,2.84,2.84,0,0,0-.36.87,4.74,4.74,0,0,0-.11,1v4h-1.06V68.8a3.11,3.11,0,0,0-.4-1.74,1.62,1.62,0,0,0-1.48-.61,3.17,3.17,0,0,0-.44.06,1.84,1.84,0,0,0-.72.35,2.72,2.72,0,0,0-.66.87,3.51,3.51,0,0,0-.3,1.6v3.84h-1.05Z"/></g><line class="cls-3" x1="176.78" y1="85.73" x2="176.78" y2="118.89"/><line class="cls-3" x1="178.07" y1="85.71" x2="175.48" y2="85.71"/><line class="cls-3" x1="178.07" y1="118.89" x2="175.48" y2="118.89"/><g class="cls-2"><path d="M197.21,123.53v7.2h-1.33l-4.59-4.51c-.17-.17-.36-.34-.55-.51a4.71,4.71,0,0,0-.61-.47,3.21,3.21,0,0,0-.67-.33,2,2,0,0,0-.74-.13,2.05,2.05,0,0,0-.83.17,1.79,1.79,0,0,0-.62.47,2.18,2.18,0,0,0-.39.7,2.66,2.66,0,0,0-.14.85,2.28,2.28,0,0,0,.48,1.47,2.17,2.17,0,0,0,1.3.79l-.13,1.21a3.11,3.11,0,0,1-2-1.16,3.49,3.49,0,0,1-.72-2.23,4.59,4.59,0,0,1,.18-1.3,3.29,3.29,0,0,1,.55-1.09,2.69,2.69,0,0,1,.92-.75,2.79,2.79,0,0,1,1.29-.28,3.29,3.29,0,0,1,1.2.2,4.46,4.46,0,0,1,1,.52,6.27,6.27,0,0,1,.92.73c.28.27.57.55.84.84l3.54,3.56v-5.95Z"/><path d="M186.93,115l10.28,4.56v1.3l-10.28-4.66v5.52h-1.05V115Z"/><path d="M185.69,109.26a3.17,3.17,0,0,1,.56-2,3.78,3.78,0,0,1,1.42-1.17,6.77,6.77,0,0,1,1.9-.56,15.09,15.09,0,0,1,2-.14,15.36,15.36,0,0,1,2,.14,6.6,6.6,0,0,1,1.89.56,3.89,3.89,0,0,1,1.43,1.17,3.75,3.75,0,0,1,0,3.94,3.89,3.89,0,0,1-1.43,1.17,6.6,6.6,0,0,1-1.89.56,15.36,15.36,0,0,1-2,.14,15.09,15.09,0,0,1-2-.14,6.77,6.77,0,0,1-1.9-.56,3.78,3.78,0,0,1-1.42-1.17A3.17,3.17,0,0,1,185.69,109.26Zm1.05,0a2.05,2.05,0,0,0,.5,1.46,3.08,3.08,0,0,0,1.23.81,6.09,6.09,0,0,0,1.57.35c.55,0,1.05.07,1.5.07s1,0,1.5-.07a6.09,6.09,0,0,0,1.57-.35,3.11,3.11,0,0,0,1.24-.81,2.42,2.42,0,0,0,0-2.92,3.11,3.11,0,0,0-1.24-.81,6.09,6.09,0,0,0-1.57-.35c-.55,0-1-.07-1.5-.07s-.95,0-1.5.07a6.09,6.09,0,0,0-1.57.35,3.08,3.08,0,0,0-1.23.81A2.05,2.05,0,0,0,186.74,109.26Z"/><path d="M191.38,99.21c-.28,0-.55,0-.83,0l-.83.05V98.16h1.13v0a2.53,2.53,0,0,1-1-1.06,3.05,3.05,0,0,1-.33-1.35,3.83,3.83,0,0,1,.06-.65,2.25,2.25,0,0,1,.23-.66,2,2,0,0,1,.47-.6,2.64,2.64,0,0,1,.79-.48,2.48,2.48,0,0,1-1.14-1,2.78,2.78,0,0,1-.41-1.45,2.73,2.73,0,0,1,.76-2.13,3.1,3.1,0,0,1,2.16-.69h4.76V89.1h-4.37a3.17,3.17,0,0,0-1.75.4,1.66,1.66,0,0,0-.6,1.49,1.84,1.84,0,0,0,.84,1.64,3,3,0,0,0,.88.36,4.74,4.74,0,0,0,1,.11h4v1.06h-4.37a3.17,3.17,0,0,0-1.75.4,1.64,1.64,0,0,0-.6,1.48,3.37,3.37,0,0,0,.06.44,1.71,1.71,0,0,0,.35.72,2.61,2.61,0,0,0,.87.66,3.48,3.48,0,0,0,1.6.3h3.84v1Z"/><path d="M191.38,85.58l-.83,0-.83.06V84.52h1.13v0a2.53,2.53,0,0,1-1-1.06,3.08,3.08,0,0,1-.33-1.35,3.74,3.74,0,0,1,.06-.65,2.42,2.42,0,0,1,.23-.67,2.34,2.34,0,0,1,.47-.6,2.85,2.85,0,0,1,.79-.47,2.48,2.48,0,0,1-1.14-1,2.78,2.78,0,0,1-.41-1.45,2.73,2.73,0,0,1,.76-2.13,3.1,3.1,0,0,1,2.16-.69h4.76v1.06h-4.37a3.17,3.17,0,0,0-1.75.4,1.66,1.66,0,0,0-.6,1.49,1.84,1.84,0,0,0,.84,1.64,3,3,0,0,0,.88.36,4.74,4.74,0,0,0,1,.11h4v1h-4.37a3.26,3.26,0,0,0-1.75.4,1.67,1.67,0,0,0-.6,1.49,3.37,3.37,0,0,0,.06.44,1.62,1.62,0,0,0,.35.71,2.5,2.5,0,0,0,.87.67,3.49,3.49,0,0,0,1.6.29h3.84v1.06Z"/></g></svg>