<svg id="Mini__Glo_Ball_CW" data-name="Mini _Glo_Ball_CW" xmlns="http://www.w3.org/2000/svg" viewBox="0 0 300 263"><defs><style>.cls-1,.cls-3{fill:none;}.cls-1{stroke:#000;stroke-width:0.5px;}.cls-2{isolation:isolate;}.cls-3{stroke:#1d1d1b;stroke-miterlimit:3.86;stroke-width:0.43px;}</style></defs><title>glo-ball-ceiling-wall-mini-morrison-flos-F4194009-spech-tech-02-300x263-01</title><line class="cls-1" x1="91.54" y1="161.13" x2="92.06" y2="110.03"/><line class="cls-1" x1="90.5" y1="161.12" x2="92.58" y2="161.15"/><line class="cls-1" x1="91.02" y1="110.02" x2="93.09" y2="110.04"/><g class="cls-2"><path d="M76.16,159.83a3.6,3.6,0,0,1,1.16-.67,4.28,4.28,0,0,1,1.45-.24,4.23,4.23,0,0,1,1.57.32,3.8,3.8,0,0,1,1.24.83,3.73,3.73,0,0,1,.81,1.27,4.49,4.49,0,0,1,0,3,3.69,3.69,0,0,1-.62,1.1l1.08,1.09-.5.5L81.31,166a3.47,3.47,0,0,1-1.18.68,4.26,4.26,0,0,1-1.44.23,4,4,0,0,1-1.56-.32,3.8,3.8,0,0,1-1.24-.83,3.73,3.73,0,0,1-.81-1.27,4,4,0,0,1-.28-1.59,4.14,4.14,0,0,1,.23-1.39,3.48,3.48,0,0,1,.63-1.15l-1.08-1.06.5-.51Zm.24,1.25a2.61,2.61,0,0,0-.64,1.8,2.79,2.79,0,0,0,.22,1.18,2.65,2.65,0,0,0,.62.88,2.79,2.79,0,0,0,.94.57,3.19,3.19,0,0,0,1.16.21,2.93,2.93,0,0,0,1.83-.52Zm4.68,3.64a2.49,2.49,0,0,0,.46-.79,2.86,2.86,0,0,0,.17-1,3,3,0,0,0-.22-1.18,2.69,2.69,0,0,0-.62-.89,2.91,2.91,0,0,0-.94-.58,3.2,3.2,0,0,0-1.17-.21,3.16,3.16,0,0,0-1.83.52Z"/><path d="M76.14,150.61l0,0a1.89,1.89,0,0,1-.28-.73,4.46,4.46,0,0,1-.09-.84,3.64,3.64,0,0,1,.28-1.37,3.45,3.45,0,0,1,.74-1.09,3.35,3.35,0,0,1,1.11-.71,3.44,3.44,0,0,1,1.41-.25,3.6,3.6,0,0,1,1.42.28,3.34,3.34,0,0,1,1.1.78,3.79,3.79,0,0,1,.71,1.18,4.36,4.36,0,0,1,.24,1.47,4.27,4.27,0,0,1-.27,1.47,3.49,3.49,0,0,1-.74,1.16,3.18,3.18,0,0,1-1.11.76,3.63,3.63,0,0,1-1.42.26,4.58,4.58,0,0,1-1.65-.3,9,9,0,0,1-1.38-.71l-4.95-3.11v-1.36Zm3.14,1.18a2.46,2.46,0,0,0,1-.17,2.23,2.23,0,0,0,1.29-1.31,2.58,2.58,0,0,0,.19-1,3,3,0,0,0-.16-1,2.4,2.4,0,0,0-.5-.81,2.3,2.3,0,0,0-.77-.53,2.64,2.64,0,0,0-1-.19,2.54,2.54,0,0,0-1,.17,2.35,2.35,0,0,0-.77.51,2.74,2.74,0,0,0-.51.8,3,3,0,0,0,0,2.05,2.39,2.39,0,0,0,.49.8,2.3,2.3,0,0,0,.77.53A2.43,2.43,0,0,0,79.28,151.79Z"/><path d="M71.19,140.29a3.13,3.13,0,0,1,.58-2,3.69,3.69,0,0,1,1.43-1.16,6.43,6.43,0,0,1,1.9-.54,14,14,0,0,1,4,0,6.48,6.48,0,0,1,1.9.58,3.85,3.85,0,0,1,1.41,1.18,3.75,3.75,0,0,1,0,3.94,3.77,3.77,0,0,1-1.44,1.15,6.43,6.43,0,0,1-1.9.54,15.29,15.29,0,0,1-2,.13,13.68,13.68,0,0,1-2-.17,6,6,0,0,1-1.89-.58,3.61,3.61,0,0,1-1.41-1.18A3.17,3.17,0,0,1,71.19,140.29Zm1,0a2.13,2.13,0,0,0,.48,1.47,3.21,3.21,0,0,0,1.23.82,6.57,6.57,0,0,0,1.56.36q.84.08,1.5.09c.45,0,.95,0,1.51-.06a5.77,5.77,0,0,0,1.57-.33,3.18,3.18,0,0,0,1.24-.79,2.09,2.09,0,0,0,.51-1.46,2,2,0,0,0-.48-1.47,3.13,3.13,0,0,0-1.22-.82,5.71,5.71,0,0,0-1.57-.36,13.94,13.94,0,0,0-1.5-.09,13.66,13.66,0,0,0-1.51.06A6.25,6.25,0,0,0,74,138a3.28,3.28,0,0,0-1.24.8A2.1,2.1,0,0,0,72.24,140.3Z"/><path d="M77,130.3c-.27,0-.55,0-.83,0l-.83.05v-1.14l1.14,0v0a2.36,2.36,0,0,1-1-1.07,3.12,3.12,0,0,1-.33-1.36,5.2,5.2,0,0,1,.07-.64,2.61,2.61,0,0,1,.24-.66,2.44,2.44,0,0,1,.48-.6,2.61,2.61,0,0,1,.79-.46,2.5,2.5,0,0,1-1.13-1,2.86,2.86,0,0,1-.4-1.45,2.73,2.73,0,0,1,.78-2.12,3.1,3.1,0,0,1,2.18-.67l4.75,0v1.06l-4.37,0a3.2,3.2,0,0,0-1.75.38,1.69,1.69,0,0,0-.62,1.48,2,2,0,0,0,.22,1,1.81,1.81,0,0,0,.61.65,2.82,2.82,0,0,0,.87.37,4.23,4.23,0,0,0,1,.12l4,0v1.06l-4.37,0a3.18,3.18,0,0,0-1.75.38,1.65,1.65,0,0,0-.62,1.48,3.61,3.61,0,0,0,.06.44,1.68,1.68,0,0,0,.34.72,2.68,2.68,0,0,0,.86.67,3.63,3.63,0,0,0,1.6.31l3.84,0v1.06Z"/><path d="M77.12,116.67c-.28,0-.55,0-.83,0l-.83,0v-1.14H76.6v0a2.49,2.49,0,0,1-1-1.07,3.11,3.11,0,0,1-.32-1.36,3.79,3.79,0,0,1,.07-.64,2.61,2.61,0,0,1,.24-.66,1.93,1.93,0,0,1,.48-.6,2.49,2.49,0,0,1,.79-.46,2.45,2.45,0,0,1-1.13-1,2.86,2.86,0,0,1-.4-1.45,2.73,2.73,0,0,1,.78-2.12,3.1,3.1,0,0,1,2.18-.67l4.75,0v1l-4.37,0a3.18,3.18,0,0,0-1.75.38,1.65,1.65,0,0,0-.62,1.48,2,2,0,0,0,.22,1,1.9,1.9,0,0,0,.61.65,2.63,2.63,0,0,0,.87.37,4.17,4.17,0,0,0,1,.12l4,0v1.06l-4.37,0a3.18,3.18,0,0,0-1.75.38,1.64,1.64,0,0,0-.62,1.48,3.61,3.61,0,0,0,.06.44,1.68,1.68,0,0,0,.34.72,2.68,2.68,0,0,0,.86.67,3.6,3.6,0,0,0,1.6.31l3.84,0v1.06Z"/></g><line class="cls-1" x1="194.63" y1="197.19" x2="100.69" y2="197.19"/><line class="cls-1" x1="194.63" y1="198.31" x2="194.63" y2="195.99"/><line class="cls-1" x1="100.69" y1="198.31" x2="100.69" y2="195.99"/><g class="cls-2"><path d="M125.88,211.45a2.38,2.38,0,0,1-.68-.37,2.49,2.49,0,0,1-.53-.59,3.1,3.1,0,0,1-.36-.73,3.06,3.06,0,0,1,.13-2.06,2.69,2.69,0,0,1,.69-.93,3,3,0,0,1,1-.6,3.79,3.79,0,0,1,2.43,0,3.11,3.11,0,0,1,1,.6,2.69,2.69,0,0,1,.69.93,2.91,2.91,0,0,1,.25,1.23,2.62,2.62,0,0,1-.13.83,2.82,2.82,0,0,1-.88,1.32,2.38,2.38,0,0,1-.68.37v0a2.67,2.67,0,0,1,1.53,1,3.17,3.17,0,0,1,.58,1.92,2.92,2.92,0,0,1-.3,1.33,3.38,3.38,0,0,1-.78,1,3.54,3.54,0,0,1-1.14.64,4.15,4.15,0,0,1-1.37.23,4.09,4.09,0,0,1-1.36-.23,3.44,3.44,0,0,1-1.14-.64,3.38,3.38,0,0,1-.78-1,2.92,2.92,0,0,1-.3-1.33,3.17,3.17,0,0,1,.58-1.92,2.67,2.67,0,0,1,1.53-1Zm3.91,2.85a2.32,2.32,0,0,0-.18-.92,2.18,2.18,0,0,0-.49-.73,2,2,0,0,0-.77-.49,2.87,2.87,0,0,0-2,0,2,2,0,0,0-.76.49,2.18,2.18,0,0,0-.49.73,2.38,2.38,0,0,0,.49,2.58,2.12,2.12,0,0,0,.76.49,3,3,0,0,0,2,0,2.16,2.16,0,0,0,.77-.49,2.34,2.34,0,0,0,.67-1.66Zm-.42-5.28a2.11,2.11,0,0,0-.15-.8,1.81,1.81,0,0,0-.43-.63,1.87,1.87,0,0,0-.64-.42,2.07,2.07,0,0,0-.8-.15,2.15,2.15,0,0,0-.8.15,2.09,2.09,0,0,0-.64.42,1.93,1.93,0,0,0-.42.63,2.11,2.11,0,0,0-.15.8,2.07,2.07,0,0,0,.15.8,1.74,1.74,0,0,0,.42.63,2.09,2.09,0,0,0,.64.42,2.15,2.15,0,0,0,.8.15,2.07,2.07,0,0,0,.8-.15,1.87,1.87,0,0,0,.64-.42,1.65,1.65,0,0,0,.43-.63A2.07,2.07,0,0,0,129.37,209Z"/><path d="M139.24,207.21h-4.62l-.08,3.41a4.61,4.61,0,0,1,.75-.21,5,5,0,0,1,.77-.06,3.75,3.75,0,0,1,1.45.27,3.31,3.31,0,0,1,1.13.76,3.55,3.55,0,0,1,.74,1.15,4.06,4.06,0,0,1,.26,1.45,3.68,3.68,0,0,1-.29,1.5,3.39,3.39,0,0,1-.8,1.17,3.9,3.9,0,0,1-1.2.76,4.19,4.19,0,0,1-1.52.27,3.71,3.71,0,0,1-1.93-.51,3.39,3.39,0,0,1-1.33-1.51l1.15-.49a2.66,2.66,0,0,0,.9,1.06,2.28,2.28,0,0,0,1.32.39,2.51,2.51,0,0,0,1-.2,2.64,2.64,0,0,0,.81-.53,2.5,2.5,0,0,0,.54-.81,2.47,2.47,0,0,0,.2-1,2.82,2.82,0,0,0-.21-1.09,2.65,2.65,0,0,0-.57-.85,2.57,2.57,0,0,0-.88-.55,3.14,3.14,0,0,0-1.12-.19,4.52,4.52,0,0,0-1.21.16,6.73,6.73,0,0,0-1.15.46l.12-5.87h5.77Z"/><path d="M146.3,211.66c0-.28,0-.55,0-.83s0-.56-.05-.83h1.13v1.13h0a2.53,2.53,0,0,1,1.06-1,3.05,3.05,0,0,1,1.35-.33,3.74,3.74,0,0,1,.65.06,2.42,2.42,0,0,1,.67.23,2.14,2.14,0,0,1,.59.47,2.64,2.64,0,0,1,.48.79,2.48,2.48,0,0,1,1-1.14,2.78,2.78,0,0,1,1.45-.41,2.73,2.73,0,0,1,2.13.76,3.08,3.08,0,0,1,.69,2.16v4.76h-1.06v-4.37a3.17,3.17,0,0,0-.4-1.75,1.66,1.66,0,0,0-1.49-.6,1.84,1.84,0,0,0-1.64.84,3,3,0,0,0-.36.88,4.74,4.74,0,0,0-.11,1v4h-1v-4.37a3.26,3.26,0,0,0-.4-1.75,1.67,1.67,0,0,0-1.49-.6l-.44.06a1.71,1.71,0,0,0-.72.35,2.67,2.67,0,0,0-.66.86,3.55,3.55,0,0,0-.3,1.61v3.84h-1Z"/><path d="M159.93,211.66c0-.28,0-.55,0-.83l-.06-.83H161v1.13h0a2.59,2.59,0,0,1,1.06-1,3.12,3.12,0,0,1,1.35-.33,3.74,3.74,0,0,1,.65.06,2.42,2.42,0,0,1,.67.23,2.34,2.34,0,0,1,.6.47,2.85,2.85,0,0,1,.47.79,2.48,2.48,0,0,1,1-1.14,2.78,2.78,0,0,1,1.45-.41,2.73,2.73,0,0,1,2.13.76,3.08,3.08,0,0,1,.69,2.16v4.76H170v-4.37a3.17,3.17,0,0,0-.4-1.75,1.65,1.65,0,0,0-1.49-.6,1.91,1.91,0,0,0-1,.23,2,2,0,0,0-.65.61,3,3,0,0,0-.36.88,4.74,4.74,0,0,0-.11,1v4h-1v-4.37a3.26,3.26,0,0,0-.4-1.75,1.67,1.67,0,0,0-1.49-.6l-.44.06a1.62,1.62,0,0,0-.71.35,2.55,2.55,0,0,0-.67.86,3.71,3.71,0,0,0-.29,1.61v3.84h-1.06Z"/></g><line class="cls-1" x1="205.95" y1="82.91" x2="206.06" y2="187.35"/><line class="cls-1" x1="207.07" y1="82.91" x2="204.76" y2="82.91"/><line class="cls-1" x1="207.18" y1="187.35" x2="204.86" y2="187.35"/><g class="cls-2"><path d="M221,163.49a3.82,3.82,0,0,1,1.16-.68,4.28,4.28,0,0,1,1.45-.24,4.22,4.22,0,0,1,1.57.31A3.73,3.73,0,0,1,227.2,165a4.39,4.39,0,0,1,.29,1.61,4.15,4.15,0,0,1-.23,1.4,4,4,0,0,1-.62,1.11l1.08,1.07-.5.51-1.08-1.06a3.54,3.54,0,0,1-1.18.68,4.17,4.17,0,0,1-1.43.24,4.22,4.22,0,0,1-1.57-.31,3.91,3.91,0,0,1-1.24-.83,3.76,3.76,0,0,1-.82-1.26,4.21,4.21,0,0,1,.56-4.13l-1.08-1.07.5-.51Zm.25,1.25a2.6,2.6,0,0,0-.63,1.8,2.79,2.79,0,0,0,.22,1.18,2.82,2.82,0,0,0,.63.88,3.07,3.07,0,0,0,.94.57,3.42,3.42,0,0,0,1.17.2,2.93,2.93,0,0,0,1.82-.53Zm4.7,3.62a2.72,2.72,0,0,0,.45-.8,2.78,2.78,0,0,0,.17-1,2.81,2.81,0,0,0-.85-2.07,3,3,0,0,0-1-.57,3.67,3.67,0,0,0-1.16-.21,3.16,3.16,0,0,0-1.83.54Z"/><path d="M227.38,151.81V153l-9.88-.05,1.78,2-.87.71-2.35-2.89v-1Z"/><path d="M227.43,142.92v1.15l-9.88-.06,1.78,2-.87.72-2.35-2.9v-1Z"/><path d="M227.49,131.62l0,7.2h-1.33l-4.56-4.54-.54-.51a5.5,5.5,0,0,0-.61-.47,3.25,3.25,0,0,0-.67-.34,2.26,2.26,0,0,0-.74-.13,2,2,0,0,0-.83.16,1.79,1.79,0,0,0-.62.47,2,2,0,0,0-.4.7,2.66,2.66,0,0,0-.14.85,2.27,2.27,0,0,0,.47,1.47,2.19,2.19,0,0,0,1.29.8l-.13,1.21a3.15,3.15,0,0,1-2-1.17,3.53,3.53,0,0,1-.71-2.24,5,5,0,0,1,.19-1.3,3.46,3.46,0,0,1,.56-1.08,2.62,2.62,0,0,1,.93-.75,2.78,2.78,0,0,1,1.29-.27,3.6,3.6,0,0,1,1.2.2,4.94,4.94,0,0,1,1,.53,6.25,6.25,0,0,1,.9.73c.29.28.57.56.85.85l3.51,3.58,0-5.95Z"/><path d="M221.71,125.06c-.28,0-.56,0-.84,0l-.83,0V124h1.13v0a2.53,2.53,0,0,1-1-1.07,3.12,3.12,0,0,1-.33-1.36,3,3,0,0,1,.07-.64,2.42,2.42,0,0,1,.23-.67,2.19,2.19,0,0,1,.48-.59,2.45,2.45,0,0,1,.78-.47,2.59,2.59,0,0,1-1.13-1,2.76,2.76,0,0,1-.4-1.45,2.73,2.73,0,0,1,.77-2.13,3.12,3.12,0,0,1,2.17-.67l4.75,0V115l-4.36,0a3.09,3.09,0,0,0-1.75.39,1.61,1.61,0,0,0-.61,1.48,1.89,1.89,0,0,0,.22,1,1.91,1.91,0,0,0,.61.65,2.82,2.82,0,0,0,.87.37,4.31,4.31,0,0,0,1,.12l4,0V120l-4.37,0a3.27,3.27,0,0,0-1.75.39,1.67,1.67,0,0,0-.61,1.49,3.61,3.61,0,0,0,.06.44,1.67,1.67,0,0,0,.35.71,2.45,2.45,0,0,0,.86.67,3.46,3.46,0,0,0,1.59.3l3.84,0v1Z"/><path d="M221.78,111.43c-.28,0-.55,0-.83,0l-.83,0v-1.14h1.14v0a2.55,2.55,0,0,1-1-1.07,3,3,0,0,1-.32-1.36,3.83,3.83,0,0,1,.06-.65,2.51,2.51,0,0,1,.24-.66,2.34,2.34,0,0,1,.47-.6,2.61,2.61,0,0,1,.79-.46,2.5,2.5,0,0,1-1.13-1,2.81,2.81,0,0,1-.41-1.44,2.77,2.77,0,0,1,.77-2.13,3.15,3.15,0,0,1,2.18-.67l4.75,0v1.06l-4.37,0a3.25,3.25,0,0,0-1.74.39,1.67,1.67,0,0,0-.62,1.49,1.91,1.91,0,0,0,.23,1,1.81,1.81,0,0,0,.61.65,2.82,2.82,0,0,0,.87.37,5.47,5.47,0,0,0,1,.12l4,0v1.05l-4.37,0a3.08,3.08,0,0,0-1.74.39,1.65,1.65,0,0,0-.62,1.48,3.37,3.37,0,0,0,.06.44,1.84,1.84,0,0,0,.35.72,2.55,2.55,0,0,0,.86.67,3.53,3.53,0,0,0,1.6.3l3.84,0v1.06Z"/></g><path class="cls-3" d="M193.73,147l0,0M193.57,121a41.13,41.13,0,0,0-79-12m0,0-.27,53m0,0a41.12,41.12,0,0,0,79.11-11.15M114.57,109l-.27,53m0,0a41.12,41.12,0,0,0,79.11-11.15m0,0a149.45,149.45,0,0,0,.79-15m-79.9,26.11a41.12,41.12,0,0,0,79.11-11.15m0,0a149.45,149.45,0,0,0,.79-15m0,0c0-5.16-.17-9.82-.63-15m.63,15c0-5.16-.17-9.82-.63-15m.63,15c0-5.16-.17-9.82-.63-15m-79-12-.27,53m-13.76-52.26-.27,51.29m14,.92.27-53m-14.29,52,2.81,0c.51,0,.83,0,.91-.41l0-.52,0-9.21h6.57l-.05,9.26m3.72.95h-2.8a.94.94,0,0,1-.92-.94m4-50.22-2.76,0c-.52,0-.84,0-.91.42l0,.51,0,9.17-6.52,0v-9.18a.91.91,0,0,0-.27-.66,1,1,0,0,0-.65-.28h-2.79m10.28,9.7-.16,31.26m-6.43-30.56-.16,31.25"/><line class="cls-1" x1="91.54" y1="161.13" x2="92.06" y2="110.03"/><line class="cls-1" x1="90.5" y1="161.12" x2="92.58" y2="161.15"/><line class="cls-1" x1="91.02" y1="110.02" x2="93.09" y2="110.04"/><g class="cls-2"><path d="M76.16,159.83a3.6,3.6,0,0,1,1.16-.67,4.28,4.28,0,0,1,1.45-.24,4.23,4.23,0,0,1,1.57.32,3.8,3.8,0,0,1,1.24.83,3.73,3.73,0,0,1,.81,1.27,4.49,4.49,0,0,1,0,3,3.69,3.69,0,0,1-.62,1.1l1.08,1.09-.5.5L81.31,166a3.47,3.47,0,0,1-1.18.68,4.26,4.26,0,0,1-1.44.23,4,4,0,0,1-1.56-.32,3.8,3.8,0,0,1-1.24-.83,3.73,3.73,0,0,1-.81-1.27,4,4,0,0,1-.28-1.59,4.14,4.14,0,0,1,.23-1.39,3.48,3.48,0,0,1,.63-1.15l-1.08-1.06.5-.51Zm.24,1.25a2.61,2.61,0,0,0-.64,1.8,2.79,2.79,0,0,0,.22,1.18,2.65,2.65,0,0,0,.62.88,2.79,2.79,0,0,0,.94.57,3.19,3.19,0,0,0,1.16.21,2.93,2.93,0,0,0,1.83-.52Zm4.68,3.64a2.49,2.49,0,0,0,.46-.79,2.86,2.86,0,0,0,.17-1,3,3,0,0,0-.22-1.18,2.69,2.69,0,0,0-.62-.89,2.91,2.91,0,0,0-.94-.58,3.2,3.2,0,0,0-1.17-.21,3.16,3.16,0,0,0-1.83.52Z"/><path d="M76.14,150.61l0,0a1.89,1.89,0,0,1-.28-.73,4.46,4.46,0,0,1-.09-.84,3.64,3.64,0,0,1,.28-1.37,3.45,3.45,0,0,1,.74-1.09,3.35,3.35,0,0,1,1.11-.71,3.44,3.44,0,0,1,1.41-.25,3.6,3.6,0,0,1,1.42.28,3.34,3.34,0,0,1,1.1.78,3.79,3.79,0,0,1,.71,1.18,4.36,4.36,0,0,1,.24,1.47,4.27,4.27,0,0,1-.27,1.47,3.49,3.49,0,0,1-.74,1.16,3.18,3.18,0,0,1-1.11.76,3.63,3.63,0,0,1-1.42.26,4.58,4.58,0,0,1-1.65-.3,9,9,0,0,1-1.38-.71l-4.95-3.11v-1.36Zm3.14,1.18a2.46,2.46,0,0,0,1-.17,2.23,2.23,0,0,0,1.29-1.31,2.58,2.58,0,0,0,.19-1,3,3,0,0,0-.16-1,2.4,2.4,0,0,0-.5-.81,2.3,2.3,0,0,0-.77-.53,2.64,2.64,0,0,0-1-.19,2.54,2.54,0,0,0-1,.17,2.35,2.35,0,0,0-.77.51,2.74,2.74,0,0,0-.51.8,3,3,0,0,0,0,2.05,2.39,2.39,0,0,0,.49.8,2.3,2.3,0,0,0,.77.53A2.43,2.43,0,0,0,79.28,151.79Z"/><path d="M71.19,140.29a3.13,3.13,0,0,1,.58-2,3.69,3.69,0,0,1,1.43-1.16,6.43,6.43,0,0,1,1.9-.54,14,14,0,0,1,4,0,6.48,6.48,0,0,1,1.9.58,3.85,3.85,0,0,1,1.41,1.18,3.75,3.75,0,0,1,0,3.94,3.77,3.77,0,0,1-1.44,1.15,6.43,6.43,0,0,1-1.9.54,15.29,15.29,0,0,1-2,.13,13.68,13.68,0,0,1-2-.17,6,6,0,0,1-1.89-.58,3.61,3.61,0,0,1-1.41-1.18A3.17,3.17,0,0,1,71.19,140.29Zm1,0a2.13,2.13,0,0,0,.48,1.47,3.21,3.21,0,0,0,1.23.82,6.57,6.57,0,0,0,1.56.36q.84.08,1.5.09c.45,0,.95,0,1.51-.06a5.77,5.77,0,0,0,1.57-.33,3.18,3.18,0,0,0,1.24-.79,2.09,2.09,0,0,0,.51-1.46,2,2,0,0,0-.48-1.47,3.13,3.13,0,0,0-1.22-.82,5.71,5.71,0,0,0-1.57-.36,13.94,13.94,0,0,0-1.5-.09,13.66,13.66,0,0,0-1.51.06A6.25,6.25,0,0,0,74,138a3.28,3.28,0,0,0-1.24.8A2.1,2.1,0,0,0,72.24,140.3Z"/><path d="M77,130.3c-.27,0-.55,0-.83,0l-.83.05v-1.14l1.14,0v0a2.36,2.36,0,0,1-1-1.07,3.12,3.12,0,0,1-.33-1.36,5.2,5.2,0,0,1,.07-.64,2.61,2.61,0,0,1,.24-.66,2.44,2.44,0,0,1,.48-.6,2.61,2.61,0,0,1,.79-.46,2.5,2.5,0,0,1-1.13-1,2.86,2.86,0,0,1-.4-1.45,2.73,2.73,0,0,1,.78-2.12,3.1,3.1,0,0,1,2.18-.67l4.75,0v1.06l-4.37,0a3.2,3.2,0,0,0-1.75.38,1.69,1.69,0,0,0-.62,1.48,2,2,0,0,0,.22,1,1.81,1.81,0,0,0,.61.65,2.82,2.82,0,0,0,.87.37,4.23,4.23,0,0,0,1,.12l4,0v1.06l-4.37,0a3.18,3.18,0,0,0-1.75.38,1.65,1.65,0,0,0-.62,1.48,3.61,3.61,0,0,0,.06.44,1.68,1.68,0,0,0,.34.72,2.68,2.68,0,0,0,.86.67,3.63,3.63,0,0,0,1.6.31l3.84,0v1.06Z"/><path d="M77.12,116.67c-.28,0-.55,0-.83,0l-.83,0v-1.14H76.6v0a2.49,2.49,0,0,1-1-1.07,3.11,3.11,0,0,1-.32-1.36,3.79,3.79,0,0,1,.07-.64,2.61,2.61,0,0,1,.24-.66,1.93,1.93,0,0,1,.48-.6,2.49,2.49,0,0,1,.79-.46,2.45,2.45,0,0,1-1.13-1,2.86,2.86,0,0,1-.4-1.45,2.73,2.73,0,0,1,.78-2.12,3.1,3.1,0,0,1,2.18-.67l4.75,0v1l-4.37,0a3.18,3.18,0,0,0-1.75.38,1.65,1.65,0,0,0-.62,1.48,2,2,0,0,0,.22,1,1.9,1.9,0,0,0,.61.65,2.63,2.63,0,0,0,.87.37,4.17,4.17,0,0,0,1,.12l4,0v1.06l-4.37,0a3.18,3.18,0,0,0-1.75.38,1.64,1.64,0,0,0-.62,1.48,3.61,3.61,0,0,0,.06.44,1.68,1.68,0,0,0,.34.72,2.68,2.68,0,0,0,.86.67,3.6,3.6,0,0,0,1.6.31l3.84,0v1.06Z"/></g><line class="cls-1" x1="194.63" y1="197.19" x2="100.69" y2="197.19"/><line class="cls-1" x1="194.63" y1="198.31" x2="194.63" y2="195.99"/><line class="cls-1" x1="100.69" y1="198.31" x2="100.69" y2="195.99"/><g class="cls-2"><path d="M125.88,211.45a2.38,2.38,0,0,1-.68-.37,2.49,2.49,0,0,1-.53-.59,3.1,3.1,0,0,1-.36-.73,3.06,3.06,0,0,1,.13-2.06,2.69,2.69,0,0,1,.69-.93,3,3,0,0,1,1-.6,3.79,3.79,0,0,1,2.43,0,3.11,3.11,0,0,1,1,.6,2.69,2.69,0,0,1,.69.93,2.91,2.91,0,0,1,.25,1.23,2.62,2.62,0,0,1-.13.83,2.82,2.82,0,0,1-.88,1.32,2.38,2.38,0,0,1-.68.37v0a2.67,2.67,0,0,1,1.53,1,3.17,3.17,0,0,1,.58,1.92,2.92,2.92,0,0,1-.3,1.33,3.38,3.38,0,0,1-.78,1,3.54,3.54,0,0,1-1.14.64,4.15,4.15,0,0,1-1.37.23,4.09,4.09,0,0,1-1.36-.23,3.44,3.44,0,0,1-1.14-.64,3.38,3.38,0,0,1-.78-1,2.92,2.92,0,0,1-.3-1.33,3.17,3.17,0,0,1,.58-1.92,2.67,2.67,0,0,1,1.53-1Zm3.91,2.85a2.32,2.32,0,0,0-.18-.92,2.18,2.18,0,0,0-.49-.73,2,2,0,0,0-.77-.49,2.87,2.87,0,0,0-2,0,2,2,0,0,0-.76.49,2.18,2.18,0,0,0-.49.73,2.38,2.38,0,0,0,.49,2.58,2.12,2.12,0,0,0,.76.49,3,3,0,0,0,2,0,2.16,2.16,0,0,0,.77-.49,2.34,2.34,0,0,0,.67-1.66Zm-.42-5.28a2.11,2.11,0,0,0-.15-.8,1.81,1.81,0,0,0-.43-.63,1.87,1.87,0,0,0-.64-.42,2.07,2.07,0,0,0-.8-.15,2.15,2.15,0,0,0-.8.15,2.09,2.09,0,0,0-.64.42,1.93,1.93,0,0,0-.42.63,2.11,2.11,0,0,0-.15.8,2.07,2.07,0,0,0,.15.8,1.74,1.74,0,0,0,.42.63,2.09,2.09,0,0,0,.64.42,2.15,2.15,0,0,0,.8.15,2.07,2.07,0,0,0,.8-.15,1.87,1.87,0,0,0,.64-.42,1.65,1.65,0,0,0,.43-.63A2.07,2.07,0,0,0,129.37,209Z"/><path d="M139.24,207.21h-4.62l-.08,3.41a4.61,4.61,0,0,1,.75-.21,5,5,0,0,1,.77-.06,3.75,3.75,0,0,1,1.45.27,3.31,3.31,0,0,1,1.13.76,3.55,3.55,0,0,1,.74,1.15,4.06,4.06,0,0,1,.26,1.45,3.68,3.68,0,0,1-.29,1.5,3.39,3.39,0,0,1-.8,1.17,3.9,3.9,0,0,1-1.2.76,4.19,4.19,0,0,1-1.52.27,3.71,3.71,0,0,1-1.93-.51,3.39,3.39,0,0,1-1.33-1.51l1.15-.49a2.66,2.66,0,0,0,.9,1.06,2.28,2.28,0,0,0,1.32.39,2.51,2.51,0,0,0,1-.2,2.64,2.64,0,0,0,.81-.53,2.5,2.5,0,0,0,.54-.81,2.47,2.47,0,0,0,.2-1,2.82,2.82,0,0,0-.21-1.09,2.65,2.65,0,0,0-.57-.85,2.57,2.57,0,0,0-.88-.55,3.14,3.14,0,0,0-1.12-.19,4.52,4.52,0,0,0-1.21.16,6.73,6.73,0,0,0-1.15.46l.12-5.87h5.77Z"/><path d="M146.3,211.66c0-.28,0-.55,0-.83s0-.56-.05-.83h1.13v1.13h0a2.53,2.53,0,0,1,1.06-1,3.05,3.05,0,0,1,1.35-.33,3.74,3.74,0,0,1,.65.06,2.42,2.42,0,0,1,.67.23,2.14,2.14,0,0,1,.59.47,2.64,2.64,0,0,1,.48.79,2.48,2.48,0,0,1,1-1.14,2.78,2.78,0,0,1,1.45-.41,2.73,2.73,0,0,1,2.13.76,3.08,3.08,0,0,1,.69,2.16v4.76h-1.06v-4.37a3.17,3.17,0,0,0-.4-1.75,1.66,1.66,0,0,0-1.49-.6,1.84,1.84,0,0,0-1.64.84,3,3,0,0,0-.36.88,4.74,4.74,0,0,0-.11,1v4h-1v-4.37a3.26,3.26,0,0,0-.4-1.75,1.67,1.67,0,0,0-1.49-.6l-.44.06a1.71,1.71,0,0,0-.72.35,2.67,2.67,0,0,0-.66.86,3.55,3.55,0,0,0-.3,1.61v3.84h-1Z"/><path d="M159.93,211.66c0-.28,0-.55,0-.83l-.06-.83H161v1.13h0a2.59,2.59,0,0,1,1.06-1,3.12,3.12,0,0,1,1.35-.33,3.74,3.74,0,0,1,.65.06,2.42,2.42,0,0,1,.67.23,2.34,2.34,0,0,1,.6.47,2.85,2.85,0,0,1,.47.79,2.48,2.48,0,0,1,1-1.14,2.78,2.78,0,0,1,1.45-.41,2.73,2.73,0,0,1,2.13.76,3.08,3.08,0,0,1,.69,2.16v4.76H170v-4.37a3.17,3.17,0,0,0-.4-1.75,1.65,1.65,0,0,0-1.49-.6,1.91,1.91,0,0,0-1,.23,2,2,0,0,0-.65.61,3,3,0,0,0-.36.88,4.74,4.74,0,0,0-.11,1v4h-1v-4.37a3.26,3.26,0,0,0-.4-1.75,1.67,1.67,0,0,0-1.49-.6l-.44.06a1.62,1.62,0,0,0-.71.35,2.55,2.55,0,0,0-.67.86,3.71,3.71,0,0,0-.29,1.61v3.84h-1.06Z"/></g><line class="cls-1" x1="205.95" y1="82.91" x2="206.06" y2="187.35"/><line class="cls-1" x1="207.07" y1="82.91" x2="204.76" y2="82.91"/><line class="cls-1" x1="207.18" y1="187.35" x2="204.86" y2="187.35"/><g class="cls-2"><path d="M221,163.49a3.82,3.82,0,0,1,1.16-.68,4.28,4.28,0,0,1,1.45-.24,4.22,4.22,0,0,1,1.57.31A3.73,3.73,0,0,1,227.2,165a4.39,4.39,0,0,1,.29,1.61,4.15,4.15,0,0,1-.23,1.4,4,4,0,0,1-.62,1.11l1.08,1.07-.5.51-1.08-1.06a3.54,3.54,0,0,1-1.18.68,4.17,4.17,0,0,1-1.43.24,4.22,4.22,0,0,1-1.57-.31,3.91,3.91,0,0,1-1.24-.83,3.76,3.76,0,0,1-.82-1.26,4.21,4.21,0,0,1,.56-4.13l-1.08-1.07.5-.51Zm.25,1.25a2.6,2.6,0,0,0-.63,1.8,2.79,2.79,0,0,0,.22,1.18,2.82,2.82,0,0,0,.63.88,3.07,3.07,0,0,0,.94.57,3.42,3.42,0,0,0,1.17.2,2.93,2.93,0,0,0,1.82-.53Zm4.7,3.62a2.72,2.72,0,0,0,.45-.8,2.78,2.78,0,0,0,.17-1,2.81,2.81,0,0,0-.85-2.07,3,3,0,0,0-1-.57,3.67,3.67,0,0,0-1.16-.21,3.16,3.16,0,0,0-1.83.54Z"/><path d="M227.38,151.81V153l-9.88-.05,1.78,2-.87.71-2.35-2.89v-1Z"/><path d="M227.43,142.92v1.15l-9.88-.06,1.78,2-.87.72-2.35-2.9v-1Z"/><path d="M227.49,131.62l0,7.2h-1.33l-4.56-4.54-.54-.51a5.5,5.5,0,0,0-.61-.47,3.25,3.25,0,0,0-.67-.34,2.26,2.26,0,0,0-.74-.13,2,2,0,0,0-.83.16,1.79,1.79,0,0,0-.62.47,2,2,0,0,0-.4.7,2.66,2.66,0,0,0-.14.85,2.27,2.27,0,0,0,.47,1.47,2.19,2.19,0,0,0,1.29.8l-.13,1.21a3.15,3.15,0,0,1-2-1.17,3.53,3.53,0,0,1-.71-2.24,5,5,0,0,1,.19-1.3,3.46,3.46,0,0,1,.56-1.08,2.62,2.62,0,0,1,.93-.75,2.78,2.78,0,0,1,1.29-.27,3.6,3.6,0,0,1,1.2.2,4.94,4.94,0,0,1,1,.53,6.25,6.25,0,0,1,.9.73c.29.28.57.56.85.85l3.51,3.58,0-5.95Z"/><path d="M221.71,125.06c-.28,0-.56,0-.84,0l-.83,0V124h1.13v0a2.53,2.53,0,0,1-1-1.07,3.12,3.12,0,0,1-.33-1.36,3,3,0,0,1,.07-.64,2.42,2.42,0,0,1,.23-.67,2.19,2.19,0,0,1,.48-.59,2.45,2.45,0,0,1,.78-.47,2.59,2.59,0,0,1-1.13-1,2.76,2.76,0,0,1-.4-1.45,2.73,2.73,0,0,1,.77-2.13,3.12,3.12,0,0,1,2.17-.67l4.75,0V115l-4.36,0a3.09,3.09,0,0,0-1.75.39,1.61,1.61,0,0,0-.61,1.48,1.89,1.89,0,0,0,.22,1,1.91,1.91,0,0,0,.61.65,2.82,2.82,0,0,0,.87.37,4.31,4.31,0,0,0,1,.12l4,0V120l-4.37,0a3.27,3.27,0,0,0-1.75.39,1.67,1.67,0,0,0-.61,1.49,3.61,3.61,0,0,0,.06.44,1.67,1.67,0,0,0,.35.71,2.45,2.45,0,0,0,.86.67,3.46,3.46,0,0,0,1.59.3l3.84,0v1Z"/><path d="M221.78,111.43c-.28,0-.55,0-.83,0l-.83,0v-1.14h1.14v0a2.55,2.55,0,0,1-1-1.07,3,3,0,0,1-.32-1.36,3.83,3.83,0,0,1,.06-.65,2.51,2.51,0,0,1,.24-.66,2.34,2.34,0,0,1,.47-.6,2.61,2.61,0,0,1,.79-.46,2.5,2.5,0,0,1-1.13-1,2.81,2.81,0,0,1-.41-1.44,2.77,2.77,0,0,1,.77-2.13,3.15,3.15,0,0,1,2.18-.67l4.75,0v1.06l-4.37,0a3.25,3.25,0,0,0-1.74.39,1.67,1.67,0,0,0-.62,1.49,1.91,1.91,0,0,0,.23,1,1.81,1.81,0,0,0,.61.65,2.82,2.82,0,0,0,.87.37,5.47,5.47,0,0,0,1,.12l4,0v1.05l-4.37,0a3.08,3.08,0,0,0-1.74.39,1.65,1.65,0,0,0-.62,1.48,3.37,3.37,0,0,0,.06.44,1.84,1.84,0,0,0,.35.72,2.55,2.55,0,0,0,.86.67,3.53,3.53,0,0,0,1.6.3l3.84,0v1.06Z"/></g><path class="cls-3" d="M193.73,147l0,0M193.57,121a41.13,41.13,0,0,0-79-12m0,0-.27,53m0,0a41.12,41.12,0,0,0,79.11-11.15M114.57,109l-.27,53m0,0a41.12,41.12,0,0,0,79.11-11.15m0,0a149.45,149.45,0,0,0,.79-15m-79.9,26.11a41.12,41.12,0,0,0,79.11-11.15m0,0a149.45,149.45,0,0,0,.79-15m0,0c0-5.16-.17-9.82-.63-15m.63,15c0-5.16-.17-9.82-.63-15m.63,15c0-5.16-.17-9.82-.63-15m-79-12-.27,53m-13.76-52.26-.27,51.29m14,.92.27-53m-14.29,52,2.81,0c.51,0,.83,0,.91-.41l0-.52,0-9.21h6.57l-.05,9.26m3.72.95h-2.8a.94.94,0,0,1-.92-.94m4-50.22-2.76,0c-.52,0-.84,0-.91.42l0,.51,0,9.17-6.52,0v-9.18a.91.91,0,0,0-.27-.66,1,1,0,0,0-.65-.28h-2.79m10.28,9.7-.16,31.26m-6.43-30.56-.16,31.25"/></svg>