<svg id="glo-ball_S2" data-name="glo-ball S2" xmlns="http://www.w3.org/2000/svg" viewBox="0 0 300 263"><defs><style>.cls-1{isolation:isolate;}.cls-2,.cls-4,.cls-5{fill:none;stroke-width:0.5px;}.cls-2{stroke:#000;}.cls-3{fill:#fff;}.cls-4,.cls-5{stroke:#1d1d1b;}.cls-4{stroke-miterlimit:3.86;}</style></defs><title>glo-ball-suspension-2-morrison-flos-F3010061-spech-tech-02-300x263</title><g class="cls-1"><path d="M81.35,210.39v-.59a4.26,4.26,0,0,0-.11-1,2.39,2.39,0,0,0-.36-.79,1.81,1.81,0,0,0-.65-.54,2.19,2.19,0,0,0-1-.2,1.86,1.86,0,0,0-1.42.55,2.26,2.26,0,0,0-.5,1.55,2.38,2.38,0,0,0,1.25,2.16l-.51,1a3.44,3.44,0,0,1-1.36-1.31,3.73,3.73,0,0,1-.44-1.83,4.26,4.26,0,0,1,.19-1.26,3.09,3.09,0,0,1,.57-1,2.62,2.62,0,0,1,.93-.71,2.84,2.84,0,0,1,1.26-.27,2.58,2.58,0,0,1,.88.15,2.63,2.63,0,0,1,.75.42,2.85,2.85,0,0,1,.58.62,2.68,2.68,0,0,1,.38.73l0-.05a2.72,2.72,0,0,1,.36-.88,3,3,0,0,1,.65-.69,2.8,2.8,0,0,1,.86-.44,3.39,3.39,0,0,1,2.4.13,3,3,0,0,1,1,.78,3.46,3.46,0,0,1,.63,1.15,4.55,4.55,0,0,1,.22,1.39,4.28,4.28,0,0,1-.55,2.18,3.29,3.29,0,0,1-1.74,1.39l-.37-1.22a2.35,2.35,0,0,0,1.21-.85,2.79,2.79,0,0,0,.39-1.59,2.58,2.58,0,0,0-.16-.92,2.45,2.45,0,0,0-.46-.76,2.19,2.19,0,0,0-.71-.51,2.27,2.27,0,0,0-.91-.18,2.21,2.21,0,0,0-1.08.24,2,2,0,0,0-.71.64,2.74,2.74,0,0,0-.4.92,4.83,4.83,0,0,0-.12,1.08v.49Z"/><path d="M81.35,201.69l0,0a2,2,0,0,1-.29-.73,4.3,4.3,0,0,1-.09-.84,3.63,3.63,0,0,1,.26-1.37,3.42,3.42,0,0,1,.73-1.09,3.47,3.47,0,0,1,1.1-.73,3.62,3.62,0,0,1,1.41-.27,3.68,3.68,0,0,1,1.43.28,3.13,3.13,0,0,1,1.1.77,3.44,3.44,0,0,1,.72,1.16,4.31,4.31,0,0,1,0,2.95A3.59,3.59,0,0,1,87,203a3.24,3.24,0,0,1-1.1.76,3.68,3.68,0,0,1-1.43.28,4.38,4.38,0,0,1-1.65-.29,8.55,8.55,0,0,1-1.39-.69l-5-3.06V198.6Zm3.15,1.15a2.64,2.64,0,0,0,1-.18,2.32,2.32,0,0,0,.78-.52,2.13,2.13,0,0,0,.5-.8,3,3,0,0,0,0-2.05,2.13,2.13,0,0,0-.5-.8,2.32,2.32,0,0,0-.78-.52,2.81,2.81,0,0,0-2,0,2.18,2.18,0,0,0-.77.52,2.41,2.41,0,0,0-.5.8,2.86,2.86,0,0,0,0,2.05,2.41,2.41,0,0,0,.5.8,2.18,2.18,0,0,0,.77.52A2.64,2.64,0,0,0,84.5,202.84Z"/><path d="M76.29,191.42a3.24,3.24,0,0,1,.56-2,3.89,3.89,0,0,1,1.43-1.17,6.6,6.6,0,0,1,1.89-.56,15.36,15.36,0,0,1,2-.14,15.09,15.09,0,0,1,2,.14,6.77,6.77,0,0,1,1.9.56,3.78,3.78,0,0,1,1.42,1.17,3.69,3.69,0,0,1,0,3.94A3.66,3.66,0,0,1,86,194.55a6.46,6.46,0,0,1-1.9.57,15.09,15.09,0,0,1-2,.14,15.36,15.36,0,0,1-2-.14,6.31,6.31,0,0,1-1.89-.57,3.77,3.77,0,0,1-1.43-1.16A3.24,3.24,0,0,1,76.29,191.42Zm1.06,0a2,2,0,0,0,.5,1.46,3.08,3.08,0,0,0,1.23.81,6.09,6.09,0,0,0,1.57.35c.55,0,1,.07,1.5.07s.95,0,1.5-.07a6.09,6.09,0,0,0,1.57-.35,3.08,3.08,0,0,0,1.23-.81,2.38,2.38,0,0,0,0-2.92,3.08,3.08,0,0,0-1.23-.81,6.09,6.09,0,0,0-1.57-.35c-.55,0-1.05-.07-1.5-.07s-1,0-1.5.07a6.09,6.09,0,0,0-1.57.35,3.08,3.08,0,0,0-1.23.81A2,2,0,0,0,77.35,191.42Z"/><path d="M82,181.37c-.28,0-.56,0-.83,0l-.84,0v-1.13h1.14v0a2.41,2.41,0,0,1-1-1.06,2.94,2.94,0,0,1-.34-1.35,3.07,3.07,0,0,1,.07-.65,2.25,2.25,0,0,1,.23-.66,2,2,0,0,1,.47-.6,2.41,2.41,0,0,1,.79-.48,2.43,2.43,0,0,1-1.14-1,3.07,3.07,0,0,1,.34-3.58,3.12,3.12,0,0,1,2.17-.69h4.75v1.06H83.44a3.16,3.16,0,0,0-1.74.4,1.67,1.67,0,0,0-.61,1.49,1.82,1.82,0,0,0,.85,1.64,3.07,3.07,0,0,0,.87.36,4.9,4.9,0,0,0,1,.11h4v1.06H83.44a3.25,3.25,0,0,0-1.74.39,1.68,1.68,0,0,0-.61,1.49,2.52,2.52,0,0,0,.07.44,1.71,1.71,0,0,0,.35.72,2.67,2.67,0,0,0,.86.66,3.53,3.53,0,0,0,1.6.3h3.84v1.05Z"/><path d="M82,167.74l-.83,0-.84.06v-1.14h1.14v0a2.41,2.41,0,0,1-1-1.06,2.91,2.91,0,0,1-.27-2,2.42,2.42,0,0,1,.23-.67,2.34,2.34,0,0,1,.47-.6,2.58,2.58,0,0,1,.79-.47,2.43,2.43,0,0,1-1.14-1,3.07,3.07,0,0,1,.34-3.58,3.12,3.12,0,0,1,2.17-.69h4.75v1.06H83.44a3.16,3.16,0,0,0-1.74.4,1.65,1.65,0,0,0-.61,1.49,2,2,0,0,0,.23,1,2.14,2.14,0,0,0,.62.65,3.07,3.07,0,0,0,.87.36,4.9,4.9,0,0,0,1,.11h4v1.05H83.44a3.25,3.25,0,0,0-1.74.4,1.68,1.68,0,0,0-.61,1.49,2.52,2.52,0,0,0,.07.44,1.62,1.62,0,0,0,.35.71,2.55,2.55,0,0,0,.86.67,3.69,3.69,0,0,0,1.6.29h3.84v1.06Z"/></g><g class="cls-1"><path d="M81.35,130.18v-.59a4.19,4.19,0,0,0-.11-1,2.44,2.44,0,0,0-.36-.8,1.79,1.79,0,0,0-.65-.53,2.19,2.19,0,0,0-1-.2,1.82,1.82,0,0,0-1.42.55,2.23,2.23,0,0,0-.5,1.54,2.49,2.49,0,0,0,.32,1.27,2.42,2.42,0,0,0,.93.89l-.51,1a3.42,3.42,0,0,1-1.36-1.3,3.75,3.75,0,0,1-.44-1.83,4.38,4.38,0,0,1,.19-1.27,3.18,3.18,0,0,1,.57-1,2.74,2.74,0,0,1,.93-.71,2.84,2.84,0,0,1,1.26-.26,2.58,2.58,0,0,1,.88.15,2.87,2.87,0,0,1,.75.41,3.1,3.1,0,0,1,.58.62,2.73,2.73,0,0,1,.38.74l0,0a2.64,2.64,0,0,1,.36-.88,2.67,2.67,0,0,1,.65-.69,3.06,3.06,0,0,1,.86-.45,3.39,3.39,0,0,1,1-.16,3.23,3.23,0,0,1,1.39.29,3,3,0,0,1,1,.78,3.62,3.62,0,0,1,.63,1.16,4.5,4.5,0,0,1,.22,1.39,4.21,4.21,0,0,1-.55,2.17,3.3,3.3,0,0,1-1.74,1.4l-.37-1.22a2.37,2.37,0,0,0,1.21-.86,2.77,2.77,0,0,0,.39-1.59,2.53,2.53,0,0,0-.16-.91,2.34,2.34,0,0,0-.46-.76,1.93,1.93,0,0,0-.71-.51,2.28,2.28,0,0,0-.91-.19,2.21,2.21,0,0,0-1.08.24,2.09,2.09,0,0,0-.71.64,2.83,2.83,0,0,0-.4.92,4.83,4.83,0,0,0-.12,1.08v.5Z"/><path d="M77.54,117l10.27,4.56v1.3l-10.27-4.66v5.52H76.48V117Z"/><path d="M76.29,111.2a3.21,3.21,0,0,1,.56-2,3.79,3.79,0,0,1,1.43-1.17,6,6,0,0,1,1.89-.56,13.82,13.82,0,0,1,2-.15,13.58,13.58,0,0,1,2,.15,6.17,6.17,0,0,1,1.9.56,3.69,3.69,0,0,1,1.42,1.17,3.67,3.67,0,0,1,0,3.93A3.78,3.78,0,0,1,86,114.34a6.45,6.45,0,0,1-1.9.56,13.53,13.53,0,0,1-2,.14,13.76,13.76,0,0,1-2-.14,6.3,6.3,0,0,1-1.89-.56,3.89,3.89,0,0,1-1.43-1.17A3.22,3.22,0,0,1,76.29,111.2Zm1.06,0a2,2,0,0,0,.5,1.47,3.19,3.19,0,0,0,1.23.81,6.09,6.09,0,0,0,1.57.34c.55.05,1,.07,1.5.07s.95,0,1.5-.07a6.09,6.09,0,0,0,1.57-.34,3.19,3.19,0,0,0,1.23-.81,2.4,2.4,0,0,0,0-2.93,3.08,3.08,0,0,0-1.23-.81,6.09,6.09,0,0,0-1.57-.34c-.55,0-1.05-.07-1.5-.07s-1,0-1.5.07a6.09,6.09,0,0,0-1.57.34,3.08,3.08,0,0,0-1.23.81A2,2,0,0,0,77.35,111.2Z"/><path d="M76.29,102.31a3.24,3.24,0,0,1,.56-2,3.89,3.89,0,0,1,1.43-1.17,6.6,6.6,0,0,1,1.89-.56,15.36,15.36,0,0,1,2-.14,15.09,15.09,0,0,1,2,.14,6.77,6.77,0,0,1,1.9.56,3.78,3.78,0,0,1,1.42,1.17,3.69,3.69,0,0,1,0,3.94A3.66,3.66,0,0,1,86,105.44a6.17,6.17,0,0,1-1.9.56,13.58,13.58,0,0,1-2,.15,13.82,13.82,0,0,1-2-.15,6,6,0,0,1-1.89-.56,3.77,3.77,0,0,1-1.43-1.16A3.26,3.26,0,0,1,76.29,102.31Zm1.06,0a2,2,0,0,0,.5,1.46,3.08,3.08,0,0,0,1.23.81,5.7,5.7,0,0,0,1.57.34c.55,0,1,.08,1.5.08s.95,0,1.5-.08a5.7,5.7,0,0,0,1.57-.34,3.08,3.08,0,0,0,1.23-.81,2.05,2.05,0,0,0,.5-1.46,2.09,2.09,0,0,0-.5-1.47,3.17,3.17,0,0,0-1.23-.8,5.71,5.71,0,0,0-1.57-.35c-.55,0-1.05-.07-1.5-.07s-1,0-1.5.07a5.71,5.71,0,0,0-1.57.35,3.17,3.17,0,0,0-1.23.8A2,2,0,0,0,77.35,102.31Z"/><path d="M82,92.26l-.83,0-.84.06V91.2h1.14v0a2.41,2.41,0,0,1-1-1.06,2.91,2.91,0,0,1-.27-2,2.42,2.42,0,0,1,.23-.67,2.34,2.34,0,0,1,.47-.6,2.58,2.58,0,0,1,.79-.47,2.43,2.43,0,0,1-1.14-1,3.07,3.07,0,0,1,.34-3.58,3.12,3.12,0,0,1,2.17-.69h4.75v1.06H83.44a3.16,3.16,0,0,0-1.74.4A1.65,1.65,0,0,0,81.09,84a2,2,0,0,0,.23,1,2.14,2.14,0,0,0,.62.65,3.07,3.07,0,0,0,.87.36,4.9,4.9,0,0,0,1,.11h4v1H83.44a3.25,3.25,0,0,0-1.74.4,1.68,1.68,0,0,0-.61,1.49,2.52,2.52,0,0,0,.07.44,1.62,1.62,0,0,0,.35.71,2.55,2.55,0,0,0,.86.67,3.55,3.55,0,0,0,1.6.29h3.84v1.06Z"/><path d="M82,78.63l-.83,0-.84.06V77.57h1.14v0a2.47,2.47,0,0,1-1-1.06,2.91,2.91,0,0,1-.27-2,2.42,2.42,0,0,1,.23-.67,2.34,2.34,0,0,1,.47-.6,2.58,2.58,0,0,1,.79-.47,2.4,2.4,0,0,1-1.14-1,2.73,2.73,0,0,1-.42-1.44,2.76,2.76,0,0,1,.76-2.13,3.12,3.12,0,0,1,2.17-.69h4.75v1.06H83.44a3.16,3.16,0,0,0-1.74.4,1.65,1.65,0,0,0-.61,1.48,2,2,0,0,0,.23,1,2,2,0,0,0,.62.64,2.58,2.58,0,0,0,.87.36,4.31,4.31,0,0,0,1,.12h4v1H83.44a3.25,3.25,0,0,0-1.74.4,1.67,1.67,0,0,0-.61,1.49,2.67,2.67,0,0,0,.07.44,1.62,1.62,0,0,0,.35.71,2.55,2.55,0,0,0,.86.67,3.69,3.69,0,0,0,1.6.29h3.84v1.06Z"/></g><g class="cls-1"><path d="M121.18,242.31a4,4,0,0,1,.68,1.16,4.28,4.28,0,0,1,.24,1.45,4,4,0,0,1-.29,1.57,3.73,3.73,0,0,1-2.08,2.07,4.2,4.2,0,0,1-1.61.3,4.15,4.15,0,0,1-1.4-.23,3.94,3.94,0,0,1-1.11-.6l-1.07,1.08-.52-.49,1.06-1.09a3.56,3.56,0,0,1-.69-1.18,4.17,4.17,0,0,1-.24-1.43,4.07,4.07,0,0,1,.3-1.57,3.78,3.78,0,0,1,.82-1.24,3.64,3.64,0,0,1,1.26-.83,4.09,4.09,0,0,1,1.59-.29,4.4,4.4,0,0,1,1.39.21,3.65,3.65,0,0,1,1.15.62l1.06-1.09.51.49Zm-1.25.26a2.64,2.64,0,0,0-1.81-.62,2.79,2.79,0,0,0-1.18.23,2.54,2.54,0,0,0-.88.63,3,3,0,0,0-.56.94,3.46,3.46,0,0,0-.2,1.17,3,3,0,0,0,.55,1.83Zm-3.6,4.72a2.72,2.72,0,0,0,.8.45,3.11,3.11,0,0,0,1,.16,3,3,0,0,0,1.18-.23,2.7,2.7,0,0,0,.88-.64,2.64,2.64,0,0,0,.57-.94,3.2,3.2,0,0,0,.2-1.17,3.13,3.13,0,0,0-.54-1.82Z"/><path d="M134,244.92h1.63V246H134v2.69h-1.16V246h-4.89v-1.31l4.57-7.33H134Zm-1.16-6.43h0l-3.9,6.43h3.93Z"/><path d="M143.66,238.39H139L139,241.8a5.26,5.26,0,0,1,.75-.21,5.09,5.09,0,0,1,.77-.06,3.8,3.8,0,0,1,1.46.27,3.41,3.41,0,0,1,1.13.76,3.52,3.52,0,0,1,.73,1.15,4,4,0,0,1,0,2.95,3.53,3.53,0,0,1-.8,1.17,3.74,3.74,0,0,1-1.21.75,3.94,3.94,0,0,1-1.51.28,3.66,3.66,0,0,1-1.94-.52,3.37,3.37,0,0,1-1.33-1.5l1.16-.5a2.61,2.61,0,0,0,.89,1.07,2.28,2.28,0,0,0,1.32.39,2.57,2.57,0,0,0,1.81-.73,2.5,2.5,0,0,0,.54-.81,2.34,2.34,0,0,0,.2-1,3,3,0,0,0-.2-1.09,2.52,2.52,0,0,0-.58-.85,2.48,2.48,0,0,0-.88-.55,3.1,3.1,0,0,0-1.12-.2,4.53,4.53,0,0,0-1.21.17,6.32,6.32,0,0,0-1.14.46l.11-5.87h5.78Z"/><path d="M149.56,237.15a3.17,3.17,0,0,1,2,.56,3.78,3.78,0,0,1,1.17,1.42,6.77,6.77,0,0,1,.56,1.9,15.09,15.09,0,0,1,.14,2,15.36,15.36,0,0,1-.14,2,6.6,6.6,0,0,1-.56,1.89,3.89,3.89,0,0,1-1.17,1.43,3.75,3.75,0,0,1-3.94,0,3.89,3.89,0,0,1-1.17-1.43,6.6,6.6,0,0,1-.56-1.89,15.36,15.36,0,0,1-.14-2,15.09,15.09,0,0,1,.14-2,6.77,6.77,0,0,1,.56-1.9,3.78,3.78,0,0,1,1.17-1.42A3.17,3.17,0,0,1,149.56,237.15Zm0,1a2.05,2.05,0,0,0-1.46.5,3.08,3.08,0,0,0-.81,1.23,6.09,6.09,0,0,0-.35,1.57c0,.55-.07,1.05-.07,1.5s0,.95.07,1.5a6.09,6.09,0,0,0,.35,1.57,3.08,3.08,0,0,0,.81,1.23,2.38,2.38,0,0,0,2.92,0,3.08,3.08,0,0,0,.81-1.23,6.09,6.09,0,0,0,.35-1.57c0-.55.07-1.05.07-1.5s0-.95-.07-1.5a6.09,6.09,0,0,0-.35-1.57,3.08,3.08,0,0,0-.81-1.23A2.05,2.05,0,0,0,149.56,238.2Z"/><path d="M159.61,242.84c0-.28,0-.55,0-.83s0-.56-.05-.83h1.13v1.13h0a2.47,2.47,0,0,1,1.06-1,3.05,3.05,0,0,1,1.35-.33,3.83,3.83,0,0,1,.65.06,2.25,2.25,0,0,1,.66.23,2,2,0,0,1,.6.47,2.64,2.64,0,0,1,.48.79,2.48,2.48,0,0,1,1-1.14A2.78,2.78,0,0,1,168,241a2.73,2.73,0,0,1,2.13.76,3.08,3.08,0,0,1,.69,2.16v4.76h-1.06V244.3a3.17,3.17,0,0,0-.4-1.75,1.66,1.66,0,0,0-1.49-.6,1.84,1.84,0,0,0-1.64.84,3,3,0,0,0-.36.88,4.74,4.74,0,0,0-.11,1v4h-1.06V244.3a3.17,3.17,0,0,0-.4-1.75,1.64,1.64,0,0,0-1.48-.6l-.44.06a1.71,1.71,0,0,0-.72.35,2.67,2.67,0,0,0-.66.86,3.55,3.55,0,0,0-.3,1.61v3.84h-1Z"/><path d="M173.24,242.84c0-.28,0-.55,0-.83l-.06-.83h1.14v1.13h0a2.47,2.47,0,0,1,1.06-1,3.08,3.08,0,0,1,1.35-.33,3.74,3.74,0,0,1,.65.06,2.42,2.42,0,0,1,.67.23,2.34,2.34,0,0,1,.6.47,2.85,2.85,0,0,1,.47.79,2.48,2.48,0,0,1,1-1.14,2.78,2.78,0,0,1,1.45-.41,2.73,2.73,0,0,1,2.13.76,3.08,3.08,0,0,1,.69,2.16v4.76h-1.06V244.3a3.17,3.17,0,0,0-.4-1.75,1.66,1.66,0,0,0-1.49-.6,1.91,1.91,0,0,0-1,.23,2,2,0,0,0-.65.61,3,3,0,0,0-.36.88,4.74,4.74,0,0,0-.11,1v4h-1V244.3a3.26,3.26,0,0,0-.4-1.75,1.67,1.67,0,0,0-1.49-.6L176,242a1.62,1.62,0,0,0-.71.35,2.55,2.55,0,0,0-.67.86,3.57,3.57,0,0,0-.29,1.61v3.84h-1.06Z"/></g><line class="cls-2" x1="98.7" y1="217.52" x2="98.7" y2="152.58"/><line class="cls-2" x1="96.86" y1="152.56" x2="100.4" y2="152.56"/><line class="cls-2" x1="96.18" y1="217.52" x2="101.23" y2="217.52"/><line class="cls-2" x1="98.7" y1="152.56" x2="98.7" y2="47.06"/><line class="cls-2" x1="96.86" y1="47.03" x2="100.4" y2="47.03"/><line class="cls-2" x1="96.18" y1="152.56" x2="101.23" y2="152.56"/><line class="cls-2" x1="108.13" y1="226.87" x2="190.97" y2="226.87"/><line class="cls-2" x1="108.13" y1="226.58" x2="108.13" y2="227.16"/><line class="cls-2" x1="190.97" y1="226.58" x2="190.97" y2="227.16"/><line class="cls-2" x1="108.13" y1="224.35" x2="108.13" y2="229.4"/><line class="cls-2" x1="190.97" y1="224.35" x2="190.97" y2="229.4"/><polygon class="cls-3" points="141.01 153.05 137.31 155.89 161.82 155.89 158.12 153.05 141.01 153.05"/><line class="cls-4" x1="150.22" y1="154.64" x2="150.22" y2="46.68"/><path class="cls-4" d="M149.46,154.75a71.68,71.68,0,0,0,3.91-23c0-12.7-9.45-7.81-9.45-24.75,0-9.77,10.75-10.42,10.75-23.12,0-9.45-10.42-13-10.42-25.4V46.78"/><path class="cls-4" d="M149.46,154.75a71.68,71.68,0,0,0,3.91-23c0-12.7-9.45-7.81-9.45-24.75,0-9.77,10.75-10.42,10.75-23.12,0-9.45-10.42-13-10.42-25.4V46.78"/><path class="cls-4" d="M149.46,154.75c-11.19,0-20.32,1.06-28.65,7s-11.87,12.59-11.87,23.78,4,17.67,11.87,23.77c8.07,6.27,17.46,7,28.65,7s20.27-1.33,28.65-7S190,196.7,190,185.52s-3.33-17.48-11.87-23.78C169.88,155.66,160.65,154.75,149.46,154.75Z"/><polygon class="cls-3" points="141.01 153.05 137.31 155.89 161.82 155.89 158.12 153.05 141.01 153.05"/><polygon class="cls-5" points="161.82 155.89 158.12 153.05 141.01 153.05 137.31 155.89 161.82 155.89"/></svg>