<svg id="Goldman" xmlns="http://www.w3.org/2000/svg" xmlns:xlink="http://www.w3.org/1999/xlink" viewBox="0 0 300 263"><defs><style>.cls-1,.cls-2,.cls-4{fill:none;}.cls-2{stroke:#000;}.cls-2,.cls-4{stroke-width:0.5px;}.cls-3{isolation:isolate;}.cls-4{stroke:#1d1d1b;stroke-miterlimit:10;}.cls-5{clip-path:url(#clip-path);}</style><clipPath id="clip-path"><rect class="cls-1" x="100.36" y="46.16" width="99.27" height="171.84"/></clipPath></defs><title>goldman-table-gilad-flos-F3440044-spech-tech-02-300x263</title><line class="cls-2" x1="126.17" y1="224.1" x2="180.81" y2="206.73"/><line class="cls-2" x1="125.49" y1="221.96" x2="126.85" y2="226.25"/><line class="cls-2" x1="180.13" y1="204.59" x2="181.49" y2="208.88"/><g class="cls-3"><path d="M135.08,237.84l-1.13.38-3.14-9.38-1.43,2.37-1-.59,2.08-3.19,1-.34Z"/><path d="M142.43,224.55l-4.55,1.52,1,3.26a3.69,3.69,0,0,1,.67-.44,4.3,4.3,0,0,1,.74-.31,4.11,4.11,0,0,1,1.52-.23,3.52,3.52,0,0,1,2.44,1.2,4.06,4.06,0,0,1,.72,1.29,3.66,3.66,0,0,1,.19,1.52,3.42,3.42,0,0,1-.42,1.37,3.7,3.7,0,0,1-1,1.11,4.29,4.29,0,0,1-1.4.76,3.87,3.87,0,0,1-2.07.15,3.31,3.31,0,0,1-1.78-1l1-.85a2.73,2.73,0,0,0,1.22.72,2.42,2.42,0,0,0,1.43-.07,2.68,2.68,0,0,0,.92-.52,2.57,2.57,0,0,0,.63-.77,2.5,2.5,0,0,0,.28-.94,2.46,2.46,0,0,0-.12-1,2.64,2.64,0,0,0-.55-1,2.7,2.7,0,0,0-.84-.62,2.52,2.52,0,0,0-1-.23,3.42,3.42,0,0,0-1.16.18,5,5,0,0,0-1.14.56,6.39,6.39,0,0,0-1,.81l-1.75-5.61,5.69-1.9Z"/><path d="M147.85,221.43a3.39,3.39,0,0,1,2.11-.12,3.81,3.81,0,0,1,1.61,1,6.17,6.17,0,0,1,1.15,1.61,14,14,0,0,1,.77,1.83,13.47,13.47,0,0,1,.48,1.92,6.3,6.3,0,0,1,.05,2,3.8,3.8,0,0,1-.7,1.74,3.41,3.41,0,0,1-1.76,1.18,3.48,3.48,0,0,1-2.12.11,3.92,3.92,0,0,1-1.6-1,6.4,6.4,0,0,1-1.15-1.62,14.53,14.53,0,0,1-.77-1.82,13.28,13.28,0,0,1-.48-1.93,6.3,6.3,0,0,1-.05-2,3.72,3.72,0,0,1,.7-1.73A3.41,3.41,0,0,1,147.85,221.43Zm.33,1a2.19,2.19,0,0,0-1.28.95,3.17,3.17,0,0,0-.41,1.44,5.92,5.92,0,0,0,.16,1.6c.13.54.27,1,.41,1.45a14.79,14.79,0,0,0,.55,1.4,5.69,5.69,0,0,0,.83,1.37,3.09,3.09,0,0,0,1.19.91,2.59,2.59,0,0,0,2.88-1,3.17,3.17,0,0,0,.41-1.43,5.84,5.84,0,0,0-.16-1.6c-.13-.54-.27-1-.41-1.45a13.8,13.8,0,0,0-.55-1.4,5.75,5.75,0,0,0-.83-1.38,3.14,3.14,0,0,0-1.19-.9A2.2,2.2,0,0,0,148.18,222.43Z"/><path d="M159.55,223.52c-.09-.26-.18-.52-.29-.78l-.32-.77,1.12-.37.36,1.08h0a2.62,2.62,0,0,1,.74-1.3,3.24,3.24,0,0,1,1.22-.76,3.2,3.2,0,0,1,.66-.15,2.24,2.24,0,0,1,.73,0,2.49,2.49,0,0,1,.74.25,2.53,2.53,0,0,1,.71.59,2.47,2.47,0,0,1,.64-1.41,3.31,3.31,0,0,1,3.63-.85,3.07,3.07,0,0,1,1.37,1.83l1.5,4.5-1,.35L170,221.58a3,3,0,0,0-.95-1.52,1.73,1.73,0,0,0-1.66-.09,2,2,0,0,0-.9.55,1.94,1.94,0,0,0-.44.79,2.72,2.72,0,0,0-.08.95,4.58,4.58,0,0,0,.21,1l1.26,3.78-1,.34L165,223.24a3.09,3.09,0,0,0-1-1.52,1.73,1.73,0,0,0-1.66-.09,3.14,3.14,0,0,0-.41.21,1.67,1.67,0,0,0-.59.57,2.49,2.49,0,0,0-.38,1,3.46,3.46,0,0,0,.22,1.62l1.21,3.64-1,.35Z"/><path d="M173,219c-.09-.26-.18-.52-.28-.78s-.21-.52-.32-.77l1.12-.38.35,1.08h0a2.47,2.47,0,0,1,.73-1.29,3.19,3.19,0,0,1,1.22-.76,4,4,0,0,1,.66-.16,2.55,2.55,0,0,1,.73,0,2.16,2.16,0,0,1,.74.25,2.36,2.36,0,0,1,.71.58,2.54,2.54,0,0,1,.65-1.41,3,3,0,0,1,1.29-.87,2.93,2.93,0,0,1,2.34,0,3.06,3.06,0,0,1,1.36,1.83l1.51,4.51-1,.35-1.39-4.15a3.08,3.08,0,0,0-.94-1.52,1.77,1.77,0,0,0-1.66-.09,2.2,2.2,0,0,0-.91.55,1.91,1.91,0,0,0-.44.8,2.65,2.65,0,0,0-.08.94,4.35,4.35,0,0,0,.21,1l1.27,3.78-1,.35-1.39-4.14a3.12,3.12,0,0,0-.94-1.53,1.77,1.77,0,0,0-1.66-.08l-.41.2a1.76,1.76,0,0,0-.59.57,2.41,2.41,0,0,0-.38,1,3.26,3.26,0,0,0,.21,1.61l1.22,3.65-1,.34Z"/></g><line class="cls-2" x1="113.39" y1="105.84" x2="201.54" y2="78.61"/><line class="cls-2" x1="114.63" y1="109.86" x2="112.14" y2="101.81"/><line class="cls-2" x1="202.79" y1="82.64" x2="200.3" y2="74.58"/><g class="cls-3"><path d="M141.05,113.35l-7.12,2.27-.4-1.27,3.06-5.79c.12-.22.23-.45.35-.68a6.39,6.39,0,0,0,.27-.73,3.93,3.93,0,0,0,.13-.75,2.1,2.1,0,0,0-.1-.74,1.86,1.86,0,0,0-.42-.74,1.71,1.71,0,0,0-.65-.44,2.25,2.25,0,0,0-.82-.15,2.68,2.68,0,0,0-.88.13,2.49,2.49,0,0,0-1.31.92,2.21,2.21,0,0,0-.38,1.49l-1.24.26a3.15,3.15,0,0,1,.54-2.26,3.75,3.75,0,0,1,2-1.39,4.9,4.9,0,0,1,1.35-.23,3.19,3.19,0,0,1,1.24.18,2.66,2.66,0,0,1,1.69,1.78,3.42,3.42,0,0,1,.17,1.2,4.41,4.41,0,0,1-.21,1.14,6.47,6.47,0,0,1-.44,1.1q-.27.54-.57,1.08l-2.46,4.49,5.89-1.88Z"/><path d="M146.21,100.92l-4.58,1.46,1,3.27a3.71,3.71,0,0,1,.68-.43,5.27,5.27,0,0,1,.74-.31,4.34,4.34,0,0,1,1.52-.2,3.56,3.56,0,0,1,1.35.37A3.46,3.46,0,0,1,148,106a3.74,3.74,0,0,1,.7,1.29,3.66,3.66,0,0,1,.17,1.52,3.35,3.35,0,0,1-.44,1.36,3.88,3.88,0,0,1-1,1.11A4.62,4.62,0,0,1,146,112a4.08,4.08,0,0,1-2.07.12,3.4,3.4,0,0,1-1.78-1l1-.83a2.67,2.67,0,0,0,1.21.73,2.5,2.5,0,0,0,1.43,0,2.79,2.79,0,0,0,.93-.51,2.74,2.74,0,0,0,.64-.77,2.6,2.6,0,0,0,.29-.93,2.33,2.33,0,0,0-.11-1,2.69,2.69,0,0,0-.53-1,2.65,2.65,0,0,0-.83-.63,2.57,2.57,0,0,0-1-.25A3.46,3.46,0,0,0,144,106a5,5,0,0,0-1.14.54,6.42,6.42,0,0,0-1,.8l-1.68-5.63,5.72-1.83Z"/><path d="M155,98.11l-4.58,1.46,1,3.28a3.76,3.76,0,0,1,.68-.44,5.21,5.21,0,0,1,.74-.3,3.92,3.92,0,0,1,1.52-.2,3.38,3.38,0,0,1,1.35.36,3.6,3.6,0,0,1,1.08.87,3.95,3.95,0,0,1,.87,2.81,3.45,3.45,0,0,1-.44,1.37,4,4,0,0,1-1,1.1,4.41,4.41,0,0,1-1.41.74,4,4,0,0,1-2.07.12,3.38,3.38,0,0,1-1.78-1l1-.84a2.59,2.59,0,0,0,1.21.73,2.42,2.42,0,0,0,1.43,0,2.47,2.47,0,0,0,.93-.51,2.48,2.48,0,0,0,.93-1.7,2.29,2.29,0,0,0-.11-1,2.75,2.75,0,0,0-.53-1,2.54,2.54,0,0,0-.83-.64,2.74,2.74,0,0,0-1-.25,3.73,3.73,0,0,0-1.17.17,5,5,0,0,0-1.14.54,6.42,6.42,0,0,0-1,.8L149,98.93l5.72-1.82Z"/><path d="M163.34,100.13c-.09-.27-.18-.53-.28-.79s-.2-.52-.31-.77l1.13-.36.34,1.08h0A2.5,2.5,0,0,1,165,98a3.23,3.23,0,0,1,1.24-.75,4,4,0,0,1,.66-.14,2.56,2.56,0,0,1,.73,0,2.31,2.31,0,0,1,1.44.86,2.47,2.47,0,0,1,.66-1.4,3,3,0,0,1,1.31-.86,2.89,2.89,0,0,1,2.33.06,3,3,0,0,1,1.34,1.84l1.45,4.53-1,.33-1.33-4.16a3.1,3.1,0,0,0-.92-1.53,1.73,1.73,0,0,0-1.66-.11,2.07,2.07,0,0,0-.91.53,1.85,1.85,0,0,0-.45.79,2.48,2.48,0,0,0-.09,1,4.41,4.41,0,0,0,.19,1l1.21,3.8-1,.33-1.33-4.16a3.19,3.19,0,0,0-.92-1.54,1.75,1.75,0,0,0-1.66-.11l-.42.2a1.82,1.82,0,0,0-.59.56,2.55,2.55,0,0,0-.4,1,3.41,3.41,0,0,0,.2,1.62l1.16,3.66-1,.33Z"/><path d="M176.82,95.82q-.12-.39-.27-.78c-.1-.26-.21-.52-.31-.77l1.12-.36.35,1.08h0a2.5,2.5,0,0,1,.75-1.28,3.2,3.2,0,0,1,1.23-.75,4,4,0,0,1,.66-.14,2.55,2.55,0,0,1,.73,0,2.43,2.43,0,0,1,.74.26,2.39,2.39,0,0,1,.7.6,2.6,2.6,0,0,1,.66-1.41,3,3,0,0,1,1.31-.85,3,3,0,0,1,2.34,0,3.12,3.12,0,0,1,1.34,1.85l1.44,4.53-1,.33L187.27,94a3,3,0,0,0-.93-1.53,1.71,1.71,0,0,0-1.65-.11,2.05,2.05,0,0,0-.92.53,2.08,2.08,0,0,0-.45.79,2.48,2.48,0,0,0-.09,1,4,4,0,0,0,.2,1l1.21,3.8-1,.33-1.32-4.16a3.07,3.07,0,0,0-.93-1.54,1.75,1.75,0,0,0-1.66-.11l-.41.2a1.66,1.66,0,0,0-.6.56,2.7,2.7,0,0,0-.39,1,3.38,3.38,0,0,0,.19,1.62l1.17,3.66-1,.33Z"/></g><line class="cls-2" x1="90.63" y1="217.61" x2="90.63" y2="47.39"/><line class="cls-2" x1="89.4" y1="217.61" x2="91.85" y2="217.61"/><line class="cls-2" x1="89.4" y1="47.39" x2="91.85" y2="47.39"/><g class="cls-3"><path d="M77.91,160.65V159H79v1.63h2.69v1.15H79v4.9H77.66l-7.33-4.58v-1.47Zm-6.43,1.15v0l6.43,3.91V161.8Z"/><path d="M70.14,154a3.19,3.19,0,0,1,.56-2,3.66,3.66,0,0,1,1.42-1.16,6.17,6.17,0,0,1,1.9-.56,13.08,13.08,0,0,1,4,0,6.17,6.17,0,0,1,1.9.56A3.74,3.74,0,0,1,81.29,152a3.75,3.75,0,0,1,0,3.94,3.86,3.86,0,0,1-1.42,1.17,6.77,6.77,0,0,1-1.9.56,14,14,0,0,1-4,0,6.77,6.77,0,0,1-1.9-.56,3.78,3.78,0,0,1-1.42-1.17A3.17,3.17,0,0,1,70.14,154Zm1,0a2.09,2.09,0,0,0,.5,1.47,3.17,3.17,0,0,0,1.23.8,5.71,5.71,0,0,0,1.57.35c.55,0,1.05.07,1.5.07s1,0,1.51-.07a5.79,5.79,0,0,0,1.57-.35,3.17,3.17,0,0,0,1.23-.8,2.09,2.09,0,0,0,.49-1.47,2.06,2.06,0,0,0-.49-1.46,3.08,3.08,0,0,0-1.23-.81,5.78,5.78,0,0,0-1.57-.34c-.56,0-1.06-.08-1.51-.08s-.95,0-1.5.08a5.7,5.7,0,0,0-1.57.34,3.08,3.08,0,0,0-1.23.81A2.07,2.07,0,0,0,71.19,154Z"/><path d="M70.14,145.07a3.17,3.17,0,0,1,.56-2,3.78,3.78,0,0,1,1.42-1.17,6.45,6.45,0,0,1,1.9-.56,14,14,0,0,1,4,0,6.45,6.45,0,0,1,1.9.56,3.86,3.86,0,0,1,1.42,1.17,3.73,3.73,0,0,1,0,3.93,3.76,3.76,0,0,1-1.42,1.17,6.17,6.17,0,0,1-1.9.56,13.08,13.08,0,0,1-4,0,6.17,6.17,0,0,1-1.9-.56A3.69,3.69,0,0,1,70.7,147,3.14,3.14,0,0,1,70.14,145.07Zm1,0a2.09,2.09,0,0,0,.5,1.46,3.08,3.08,0,0,0,1.23.81,6.09,6.09,0,0,0,1.57.34c.55,0,1.05.07,1.5.07s1,0,1.51-.07a6.18,6.18,0,0,0,1.57-.34,3.08,3.08,0,0,0,1.23-.81,2.44,2.44,0,0,0,0-2.93,3.08,3.08,0,0,0-1.23-.81,6.18,6.18,0,0,0-1.57-.34c-.56,0-1.06-.07-1.51-.07s-.95,0-1.5.07a6.09,6.09,0,0,0-1.57.34,3.08,3.08,0,0,0-1.23.81A2.09,2.09,0,0,0,71.19,145.07Z"/><path d="M75.83,135,75,135l-.83.06V134h1.14v0a2.55,2.55,0,0,1-1-1.06,3.12,3.12,0,0,1-.33-1.36,3.72,3.72,0,0,1,.06-.64,2.42,2.42,0,0,1,.23-.67,2.19,2.19,0,0,1,.48-.6,2.65,2.65,0,0,1,.78-.47,2.45,2.45,0,0,1-1.14-1,2.81,2.81,0,0,1-.41-1.44,2.73,2.73,0,0,1,.76-2.13,3.11,3.11,0,0,1,2.17-.69h4.75v1.06H77.29a3.17,3.17,0,0,0-1.75.4,1.64,1.64,0,0,0-.6,1.48,1.92,1.92,0,0,0,.23,1,1.81,1.81,0,0,0,.62.64,2.42,2.42,0,0,0,.87.36,4.17,4.17,0,0,0,1,.12h4V130H77.29a3.26,3.26,0,0,0-1.75.4,1.66,1.66,0,0,0-.6,1.49,3.61,3.61,0,0,0,.06.44,1.62,1.62,0,0,0,.35.71,2.5,2.5,0,0,0,.87.67,3.63,3.63,0,0,0,1.6.29h3.84V135Z"/><path d="M75.83,121.39c-.27,0-.55,0-.83,0l-.83.06v-1.14h1.14v0a2.52,2.52,0,0,1-1-1.07,3.05,3.05,0,0,1-.33-1.35,3.83,3.83,0,0,1,.06-.65,2.25,2.25,0,0,1,.23-.66,2.19,2.19,0,0,1,.48-.6,2.45,2.45,0,0,1,.78-.47,2.5,2.5,0,0,1-1.14-1A2.82,2.82,0,0,1,74,113a2.69,2.69,0,0,1,.76-2.12,3.11,3.11,0,0,1,2.17-.69h4.75v1H77.29a3.26,3.26,0,0,0-1.75.4,1.67,1.67,0,0,0-.6,1.49,1.86,1.86,0,0,0,.23,1,1.76,1.76,0,0,0,.62.65,2.42,2.42,0,0,0,.87.36,4.17,4.17,0,0,0,1,.11h4v1.06H77.29a3.17,3.17,0,0,0-1.75.4,1.66,1.66,0,0,0-.6,1.49,3.61,3.61,0,0,0,.06.44,1.67,1.67,0,0,0,.35.71,2.37,2.37,0,0,0,.87.66,3.48,3.48,0,0,0,1.6.3h3.84v1.06Z"/></g><g class="cls-3"><path d="M161.12,168.89a2.22,2.22,0,0,1-.34-.69,2.36,2.36,0,0,1-.11-.79,2.77,2.77,0,0,1,.12-.8,2.55,2.55,0,0,1,.37-.76,2.86,2.86,0,0,1,.9-.87,2.94,2.94,0,0,1,1.1-.38,3.05,3.05,0,0,1,1.16.08,3.68,3.68,0,0,1,1.12.52,3.64,3.64,0,0,1,.89.86,2.92,2.92,0,0,1,.49,1.06,2.66,2.66,0,0,1,0,1.16,3,3,0,0,1-.48,1.15,2.63,2.63,0,0,1-.58.62,3.29,3.29,0,0,1-.7.41,3,3,0,0,1-.77.17,2.25,2.25,0,0,1-.78-.07v0a2.76,2.76,0,0,1,.67,1.74,3.18,3.18,0,0,1-.62,1.91,2.82,2.82,0,0,1-1,.93,3.43,3.43,0,0,1-1.22.4,3.66,3.66,0,0,1-1.31-.11,4.09,4.09,0,0,1-1.25-.59,4,4,0,0,1-1-1,3.31,3.31,0,0,1-.57-1.18,3.05,3.05,0,0,1-.07-1.28,2.83,2.83,0,0,1,.5-1.26,3.15,3.15,0,0,1,1.56-1.26,2.73,2.73,0,0,1,1.87,0Zm1.61,4.56a2.27,2.27,0,0,0,.38-.86,2.22,2.22,0,0,0-.34-1.72,2.91,2.91,0,0,0-.73-.71,2.74,2.74,0,0,0-.93-.42,2.11,2.11,0,0,0-.9,0,2.09,2.09,0,0,0-.82.33,2.47,2.47,0,0,0-.67.66,2.42,2.42,0,0,0-.37.86,2.18,2.18,0,0,0,0,.88,2.24,2.24,0,0,0,.35.83,2.68,2.68,0,0,0,.74.72,2.83,2.83,0,0,0,.92.42,2.17,2.17,0,0,0,1.73-.3A2.31,2.31,0,0,0,162.73,173.45Zm2.65-4.59a2.08,2.08,0,0,0,.32-.74,1.82,1.82,0,0,0,0-.77,2.12,2.12,0,0,0-.29-.7,2.24,2.24,0,0,0-.57-.58,2.27,2.27,0,0,0-.75-.33,2.16,2.16,0,0,0-.76,0,1.91,1.91,0,0,0-.71.29,2,2,0,0,0-.58.57,2.27,2.27,0,0,0-.33.75,1.94,1.94,0,0,0,.29,1.46,2.09,2.09,0,0,0,.57.58,2.27,2.27,0,0,0,.75.33,2,2,0,0,0,.76,0,1.73,1.73,0,0,0,.71-.28A2.09,2.09,0,0,0,165.38,168.86Z"/><path d="M172.78,170.23a3.28,3.28,0,0,1,1.31,1.58,3.77,3.77,0,0,1,.15,1.83,6.17,6.17,0,0,1-.61,1.88,14,14,0,0,1-1,1.71,13,13,0,0,1-1.23,1.55,6.46,6.46,0,0,1-1.54,1.25,3.7,3.7,0,0,1-1.77.51,3.18,3.18,0,0,1-1.94-.65,3.21,3.21,0,0,1-1.3-1.58,3.78,3.78,0,0,1-.16-1.83,6.46,6.46,0,0,1,.61-1.88,14,14,0,0,1,1-1.71,14.26,14.26,0,0,1,1.24-1.55,6.61,6.61,0,0,1,1.53-1.25,3.85,3.85,0,0,1,1.77-.51A3.24,3.24,0,0,1,172.78,170.23Zm-.6.87a2.07,2.07,0,0,0-1.49-.42,3.15,3.15,0,0,0-1.36.56,5.78,5.78,0,0,0-1.17,1.1c-.35.43-.66.83-.91,1.2s-.52.8-.79,1.28a5.54,5.54,0,0,0-.6,1.49,3.06,3.06,0,0,0,0,1.47,2,2,0,0,0,.92,1.24,2.08,2.08,0,0,0,1.49.42,3.1,3.1,0,0,0,1.36-.56,5.78,5.78,0,0,0,1.17-1.1,14.67,14.67,0,0,0,.91-1.2,13.8,13.8,0,0,0,.79-1.28,5.78,5.78,0,0,0,.61-1.49,3.05,3.05,0,0,0,0-1.47A2.11,2.11,0,0,0,172.18,171.1Z"/><path d="M177.84,180.61c.16-.23.31-.46.45-.7s.29-.47.43-.71l.94.64-.65.94h0a2.47,2.47,0,0,1,1.44-.21,3,3,0,0,1,1.3.48,3.84,3.84,0,0,1,.5.42,2.62,2.62,0,0,1,.42.57,2.32,2.32,0,0,1,.23.73,2.63,2.63,0,0,1-.06.91,2.53,2.53,0,0,1,1.48-.36,2.69,2.69,0,0,1,1.43.48,2.76,2.76,0,0,1,1.33,1.83,3.12,3.12,0,0,1-.66,2.17l-2.69,3.92-.87-.6,2.47-3.6a3.16,3.16,0,0,0,.66-1.66,1.64,1.64,0,0,0-.89-1.34,1.83,1.83,0,0,0-.95-.37,1.78,1.78,0,0,0-.88.14,2.73,2.73,0,0,0-.79.51,4.59,4.59,0,0,0-.67.78l-2.25,3.28-.87-.59,2.47-3.61a3.16,3.16,0,0,0,.66-1.66,1.64,1.64,0,0,0-.89-1.34,2,2,0,0,0-.4-.2,1.57,1.57,0,0,0-.78-.11,2.65,2.65,0,0,0-1,.33,3.61,3.61,0,0,0-1.15,1.16L175.42,186l-.87-.59Z"/><path d="M189.08,188.32c.16-.23.31-.46.46-.7l.42-.71.94.64-.65.94h0a2.47,2.47,0,0,1,1.44-.21,2.87,2.87,0,0,1,1.3.49,3.1,3.1,0,0,1,.5.41,2.24,2.24,0,0,1,.65,1.3,2.41,2.41,0,0,1-.06.91,2.53,2.53,0,0,1,1.48-.36,2.78,2.78,0,0,1,1.43.48,2.73,2.73,0,0,1,1.33,1.83,3.11,3.11,0,0,1-.66,2.17L195,199.44l-.87-.59,2.47-3.61a3.16,3.16,0,0,0,.66-1.66,1.64,1.64,0,0,0-.89-1.34,1.83,1.83,0,0,0-1-.37,1.78,1.78,0,0,0-.88.14,2.73,2.73,0,0,0-.79.51,5.09,5.09,0,0,0-.67.78l-2.25,3.28L190,196l2.47-3.61a3.13,3.13,0,0,0,.66-1.66,1.65,1.65,0,0,0-.88-1.34l-.4-.2a1.76,1.76,0,0,0-.79-.11,2.65,2.65,0,0,0-1,.33,3.61,3.61,0,0,0-1.15,1.16l-2.17,3.16-.87-.59Z"/></g><line class="cls-2" x1="183.33" y1="196.74" x2="159.81" y2="181.06"/><line class="cls-2" x1="182.93" y1="197.34" x2="183.74" y2="196.13"/><line class="cls-2" x1="159.41" y1="181.66" x2="160.22" y2="180.46"/><path class="cls-4" d="M108.9,200.8h0m48.31-14.43h0m-48.36,14.5,0,0m-.19,2.39.19-2.39M105.61,205h0m0,0h.79l.19,0,.2,0,.25-.05.24-.09.24-.1.26-.13.12-.07.12-.08.14-.12.13-.14.11-.14.09-.15.08-.16.05-.17,0-.19m0,0,0,0m17.73,7.15L108.9,200.8m0,0,30.18-9m5.12-1.54,13-3.88m0,0L174.67,196m0,0-48.29,14.43M105.61,205l2.56-.77m-2.56.77h.4l.36,0,.35,0,.19,0,.17-.05m43.51-6.88-.05-.11,0-.1-.06-.11-.06-.1-.07-.11-.08-.11-.08-.09-.1-.11-.11-.1-.11-.09-.12-.1-.11-.1-.15-.1-.13-.09-.15-.09-.15-.09-.16-.08-.16-.09-.17-.09-.19-.08-.18-.08-.19-.07-.2-.08-.2-.07-.21-.07-.2-.06-.23-.07-.22-.06-.22-.06-.24-.05-.23-.06-.14,0m-8.21,0-.23.06-.24.05-.23.07-.22.06-.22,0-.22.08-.2.07-.21.07-.2.08-.19.07-.19.08-.18.07-.17.09-.18.09-.16.08-.15.1-.15.09-.15.09-.13.09-.13.1-.12.09-.12.11-.11.1-.09.1-.09.1-.08.1-.08.11-.07.11-.06.11,0,.1-.05.11,0,.11,0,.11,0,.11v.32l0,.11,0,.11,0,.1,0,.11,0,.11.05.11.07.11.07.11.08.1.08.1.09.11.11.09.11.1.11.1.12.1.13.09.14.1.15.09.16.08.15.1.17.08.17.08.17.09.19.08.19.07.19.08.2.07.2.07.22.07.22.07.22,0,.23.07.23,0,.23.05.24.05.24,0,.25,0,.24.05.25,0,.26,0,.26,0,.26,0,.26,0,.27,0h.26l.27,0h.81l.26,0h.27l.27,0h.53l.27,0h.27l.27,0,.26,0,.26,0,.26,0,.26,0,.26,0,.24,0,.25,0,.25,0,.24,0,.25-.05.22,0,.24-.07.23,0,.21-.07.22-.06.21-.06.21-.08.2-.08.2-.07.18-.08.19-.08.18-.08.17-.09.16-.08.16-.09.16-.1.14-.08.14-.1.13-.1.12-.09.11-.1.12-.1.1-.11.1-.09.08-.11.08-.1.06-.11.07-.1.05-.11.05-.11,0-.11,0-.11,0-.1v-.44l0-.12,0-.1v-.06m-3.31,4.41-.18.09-.07.09.05.11.16.09.23,0h.26l.24,0m1.39-1-2.08.63m0,.1,0-.1m2.78-.24.17-.09.07-.09-.06-.11-.15-.09-.24,0h-.25l-.24,0m0,.1,0-.1m-1.39,1,2.09-.62m-2.09.62h0m2.12-.62h0m.55-3.53v-.22l0-.1,0-.11,0-.11,0-.11,0-.11-.06-.1-.06-.11-.08-.11-.07-.1-.1-.11-.09-.09-.11-.11-.1-.1-.12-.1-.13-.09-.13-.1-.14-.09-.15-.09-.15-.09-.17-.09-.16-.08-.18-.09-.17-.08-.19-.07-.19-.08-.21-.07-.19-.08-.22-.06-.2-.07-.23-.06-.21-.07-.24,0-.23-.06-.16,0m-8.4,0-.24.06-.23.05-.22.07-.23.06-.22.07-.2.06-.21.08-.2.07-.19.08-.2.07-.18.08-.18.09-.17.08-.16.09-.16.09-.15.08-.14.1-.14.1-.13.09-.13.1-.11.1-.11.09-.11.11-.08.1-.09.11-.07.1-.07.1-.06.11-.06.11,0,.11,0,.11,0,.1,0,.11v.29m14.26,3.86-.13.1,0,0m3.1-.63-.08-.09-.06-.05m.36-2.71h0m-17.27,0v0"/><g class="cls-5"><path class="cls-4" d="M178.05,202.16l0,0m0,0-52.11,15.56m-.12,0h.12m-.12,0-20.27-11.18m0,0h0"/><path class="cls-4" d="M178,200.55l-52.12,15.57M178,200.66l0-.11m-52.06,15.67-.06-.1M178,200.55l-.41-.05-.19,0-.21,0-.19,0-.2-.06-.24-.09-.25-.11-.24-.12-.26-.16-.24-.19-.11-.11-.1-.1-.1-.11-.09-.12-.09-.17-.08-.18-.05-.17,0-.18m0,0,0,0m3.07,2.06h0m-52.12,15.57-.07.1m.07-.1.07-.18.06-.18.06-.2.1-.46.1-.52.08-.56,0-.59,0-.42m-.12,0h.12m48.31-16.9,0,0M126.41,213l0-2.48m48.5-12L126.41,213m48.52-14.49-.21-2.41m-48.41,14.42h.12M178,200.66l.05,0m-.05,0-52.1,15.56M178,200.66v1.5m-52.24,14.06h.13m0,1.5v-1.5m-.13,0L105.54,205m20.28,12.68v-1.5M105.54,205v1.5M126.29,213l0-2.47m48.77-11.59,2.92,1.61m0,0-.19,0-.35-.05-.33-.07-.33-.11-.32-.12-.31-.15M105.61,205l-.07.09m0,0h0m20.34,11.08L105.61,205m20.27,11.17v0l.06-.16.08-.38.09-.46.07-.52.06-.56,0-.6V213m0,0-17.64-9.72m17.73,7.15-.07.1m0,0-17.47-9.64m.06-.09-.06.09m48.39-14.51h0M174.71,196h0m.05.11-.05-.11m.05.11-48.29,14.42m0,0-.05-.1"/></g><path class="cls-4" d="M178.09,200.62l-.06-.07M175,198.49l-.21-2.41m.21,2.41,0,.18,0,.14.08.17.1.19.13.17.13.16.21.18.22.18.28.17m-1.1-1.12,3,1.64m-3.28-4.47,0-.08m3.38,4.62v1.51M105.53,205v1.5m51.7-20.15h-.06M108.88,200.8l-.07.07M105.58,205l0,.08m51.7-18.65L174.71,196m-30.51-5.76,13-3.87M108.88,200.8l30.2-9m-30.45,11.49.18-2.39M105.58,205l2.6-.78m-1.1.61.3-.11.25-.1.21-.14.22-.15.16-.16.15-.17.11-.17.08-.19,0-.18,0-.15m42-4.73,0,.2-.06.21-.08.17-.08.18-.12.16-.14.17-.22.23-.25.21-.31.21-.32.2-.37.2-.4.18-.42.17-.49.17-.58.17-.63.16-.68.14-.7.12-.72.09-.74.06-.74,0-.76,0-.75,0-.75,0-.73-.06-.73-.09-.7-.11-.67-.14-.63-.16-.5-.15-.55-.2-.43-.17-.39-.17-.35-.2-.33-.2-.29-.21-.25-.21-.19-.21-.16-.2-.14-.22-.09-.17,0-.11m-.07-.37.05.27,0,.1m14.87,3.74-.13,0h-.37l-.13,0-.1,0-.05,0,0,0h0m3.1-.63h0l0,0-.05,0-.1,0m-2.09.63,2.09-.63"/><polyline class="cls-4" points="139.38 188.76 139.4 188.87 139.44 188.98 139.52 189.09 139.63 189.19 139.75 189.28 139.91 189.37 140.09 189.44 140.29 189.52 140.51 189.59 140.75 189.63 141 189.67 141.27 189.7 141.53 189.71 141.79 189.71 142.06 189.71 142.33 189.69 142.58 189.66 142.83 189.61 143.07 189.55 143.28 189.49 143.48 189.41 143.65 189.32 143.8 189.24 143.92 189.14 144.02 189.03 144.08 188.94 144.13 188.83 144.13 188.74"/><path class="cls-4" d="M143.2,89.35l.92,99.39m-4.47-98.33-.27,98.35m4.74,0v.11l0,.12-.07.11-.1.11-.14.1-.18.11-.23.11-.27.09-.31.07-.37.07-.36,0m-2.67-1,0,.11,0,.12.07.1.09.11.13.09.19.12.23.1.26.09.31.07.37.07.39,0h.58"/><path class="cls-4" d="M143.05,73.65V73.5l0-.15,0-.06,0-.07,0-.07-.08-.06-.1,0-.11,0h-.13l-.15,0-.11.05-.12,0-.14.08-.13.08-.24.2m-1.89-1.39,0,.11.07.11.11.1.14.09.18.08.2.07.24,0,.25,0,.27,0h.53l.26,0,.25,0,.21-.07.2-.07.16-.09.12-.1.07-.11,0-.1v-.05m-2.88,3.57,0-.09v-.09l0-.08.05-.14.07-.15.16-.28.2-.32.23-.31.27-.31.14-.16.16-.13.12-.11m-1.45,2.17,0,.11,0,.18v.07m0-.32v-.07l0,0,0,0,0,0,.1,0,.12-.06.23-.08.28-.1.6-.2.57-.17m1.32-.39h0l-.2.06-.5.15-.59.18m-2,.81v.08l0,.05.07.14"/><path class="cls-4" d="M143.05,73.65v.16l0,.15.06.14.09.14.11.13.12.11.09.06M143,72.13l0-.07m-3.3,0v.07m3.33,0,0,1.52m-3.35-1.51v4.08m4.49-1.35-.61-.33"/><path class="cls-4" d="M139.7,72l0,.11.07.11.11.1.14.09.18.08.2.07.24.06.25,0,.27,0h.53l.26,0,.25-.06.21,0,.2-.09.16-.08.12-.1.07-.1,0-.1V72m-3.25-24,0,.11.07.09.12.1.15.1.2.07.21.06.25,0,.26,0h.54l.26,0,.24-.06.21-.06.19-.08.14-.09.1-.1.06-.11,0-.07m-1.5-1.35v0h0v0Z"/><g class="cls-5"><path class="cls-4" d="M143,72l0,.11,0,.08-.06.1-.06.06m0,0-.14.09-.15.08-.22.09-.28.06-.31,0-.34,0h-.36l-.32,0-.26-.05-.24-.08-.18-.08-.14-.1-.09-.08-.06-.08,0-.1V72m3.11-24.05L143,72m-3.26-24-.07,24m.58-25.18.17-.12.18-.1.19-.07.2,0,.15,0h.17l.21,0,.18,0,.21.08.19.1.17.13.15.15.11.16.1.18.07.17.05.18,0,.18v.1m-2.53-1.13-.18.2-.15.22-.11.24-.05.27,0,.21"/></g><path class="cls-4" d="M139.38,188.92l0,.11,0,.11.08.1.11.11.13.08.15.09.18.09.2.07.22.06.24,0,.25,0,.27,0,.26,0h.53l.27,0,.25,0,.25,0,.24-.06.21-.06.2-.08.17-.08.15-.09.12-.1.1-.1.06-.11,0-.11v-.08m-6.59,6.51-.23.05-.23.07-.22.05-.21.06-.22.08-.2.07-.21.07-.19.08-.2.07-.18.09-.17.07-.17.09-.18.09-.15.08-.15.1-.15.09-.13.09-.13.1-.12.1-.12.1-.1.1-.1.1-.09.11-.08.1-.08.1-.06.11-.06.11,0,.11-.05.11,0,.1,0,.11v.44l0,.1,0,.11.05.11,0,.11.05.1.06.11.07.11.08.1.09.11.08.1.11.1.11.1.12.09.12.1.12.1.14.1.16.08.15.09.16.09.16.08.18.09.18.07.18.09.19.08.21.06.2.08.21.06.21.07.22.06.23.07.22,0,.24.05.24.06.24,0,.24,0,.25.05.26,0,.25,0,.26,0,.26,0,.25,0,.28,0,.25,0H141l.27,0h1.08l.27,0h.27l.26,0,.27,0,.27,0,.26,0,.26,0,.26,0,.26,0,.24,0,.25-.05.25,0,.24,0,.23-.06.24,0,.23-.07.23-.05.22-.06.22-.07.2-.08.21-.06.2-.07.2-.08.18-.08.18-.08.18-.09.17-.09.16-.08.15-.09.15-.1.14-.08.13-.1.13-.1.12-.09.11-.1.09-.11.1-.1.09-.1.08-.11.07-.1.07-.11.05-.1,0-.11,0-.11,0-.11,0-.11v-.44l0-.11,0-.11,0-.1,0-.11-.07-.11-.05-.1-.08-.11-.08-.1-.09-.1-.1-.11-.1-.1-.11-.09-.12-.1-.13-.1-.13-.09-.15-.09-.15-.1-.15-.08-.16-.09-.18-.09-.17-.07L148,196l-.2-.08-.19-.07-.2-.07-.21-.07-.21-.07-.21-.06-.23-.07-.23-.05-.22,0-.07,0m-12.86,3.14v.11l0,.1,0,.11,0,.11,0,.11.05.11.06.1,0,.11.08.11.07.1.09.1.1.1.11.11.1.1.12.09.13.1.13.1.14.08.15.1.15.09.17.08.17.09.17.08.18.08.19.08.19.08.2.07.2.06.22.08.21.07.22.05.22.06.23.06.24,0,.24.06.23,0,.25.05.25,0,.25,0,.26,0,.26,0,.25,0,.26,0,.27,0,.26,0h2.69l.27,0,.26,0,.27,0,.26,0,.25,0,.26,0,.25,0,.25,0,.25-.05.25,0,.23-.06.24,0,.23-.06.22-.05.23-.06.22-.07.21-.08.21-.06.19-.07.21-.08.18-.08.18-.08.19-.08.17-.09.16-.08.15-.09.15-.1.15-.08.13-.1.13-.1.13-.09.11-.1.11-.11.09-.1.1-.1.08-.1.07-.11.07-.11.06-.1.06-.11,0-.11,0-.11,0-.11v-.1l0-.11v-.06"/><path class="cls-4" d="M150.42,199.1v-.65m-17.27.71v-.65m6.24-9.67v.08m4.75,0v-.08m2.6,7.3-.24-.2-.17-.17-.19-.22-.24-.31-.2-.3-.22-.37-.18-.34-.17-.38-.16-.4-.21-.56-.16-.55-.14-.56-.11-.57-.1-.63-.07-.66,0-.66v-.34m-7.3,7.25.13-.1m0,0,.15-.14.24-.25.18-.24.2-.28.26-.4.18-.34.23-.48.21-.53.19-.55.16-.55.14-.61.09-.5.09-.63.07-.65,0-.65v-.33m6.62,6.44.63.17.6.18.44.15.48.19.42.21.36.2.31.2.29.22.18.16.21.21.13.18.14.21.11.21.06.2,0,.22,0,.18M134,197l.23-.19.28-.19.32-.19.36-.18.46-.21.47-.18.57-.2.61-.16.25-.06m-4.4,3.11v-.21l.05-.2.07-.21.09-.18.14-.22.16-.21.21-.2L134,197"/><g class="cls-5"><path class="cls-4" d="M100.67,93.49l.08.14m.18,0,.07.14m.17,0,.06-.13m5.88-1.76-5.88,1.76M191,60.88l.11,0,.11,0h.2l.1,0,.11,0,.23.06.2.08.21.09.24.14.25.18.23.18.23.21.28.26.27.29.3.34.29.36.32.43.31.44.37.56.35.56.38.66.38.67.38.71.38.72.35.74.35.74.33.76.33.76.32.77.31.79m-98.6,21.08,0,0m10.09,5.3-.27-.79-.29-.77-.31-.77-.31-.77-.32-.75-.34-.75-.33-.73-.37-.73-.37-.71-.38-.69-.26-.44-.27-.45-.27-.41-.28-.39-.32-.43-.33-.41-.33-.38-.22-.21L105,88l-.2-.17-.21-.16-.18-.12-.18-.11-.24-.12-.24-.08-.16-.06-.17,0H103l-.17,0m-1.94,6.42-.26-.14m9.82,5.41-.42-1.18-.44-1.12-.42-1-.44-1-.41-.89-.42-.86-.39-.74-.41-.72-.36-.61-.39-.6-.35-.49-.35-.45-.35-.41-.18-.19-.19-.19-.24-.22-.24-.21-.25-.16-.24-.14-.2-.11-.22-.08-.21-.06-.11,0h-.36l-.13,0-.12,0-.11.06-.11,0-.12.08-.1.08-.1.1L102,88l-.09.12-.1.13-.08.15-.09.15-.16.34-.15.41-.13.43-.13.51-.11.53-.07.53-.08.53,0,.53-.05.56,0,.58m.26.14,0-.81.08-.71.08-.71.1-.57.12-.55.12-.45.14-.43.15-.36.08-.16.08-.15.09-.15.09-.11.08-.12.1-.11.1-.09.1-.08.11-.07.11,0,.11,0,.12,0,.1,0h.32l.2,0,.2.08.2.09.23.13.22.16.24.19.24.22.17.17.17.18.35.41.34.45.34.47.39.59.35.6.41.71.38.75.4.79.38.82.33.75.33.78.29.74.29.74.36,1m-8.94-5.07.06-.75.06-.74.1-.71,0-.36.07-.34.09-.44.12-.42.13-.4.11-.27.12-.26.12-.2.13-.2.13-.16.1-.09.11-.09.12-.08.13-.06.14,0m-2.19,5.58.21,0h.09m98.11-21.32-.11,0m0,0L110.76,98.79M199.2,72.62l.07-.14,0-.12M110.76,98.79l-.22.08-.05,0m.24.15.06-.14,0-.12m-.59-.06.32.17m0,0,.06.14m-.38-.31,0,0m0,0,.07.14"/><path class="cls-4" d="M191,60.88,102.87,87.21m-2.23,6.23.1.19m.26.14-.26-.14m.26.14.17,0m6-1.79-6,1.79m98.17-21.45-.51-1.26-.54-1.26-.46-1-.49-1-.5-1-.42-.77-.43-.76-.45-.73-.35-.53-.36-.51-.37-.48-.38-.46-.25-.29-.26-.27-.27-.26-.27-.22-.28-.21-.28-.17-.14-.08-.17-.08-.19-.07-.19-.05-.21,0h-.19l-.2,0-.16.05M102.87,87.21l-.13.05-.14.06-.13.07-.12.08-.12.1-.11.11-.1.12-.11.11-.11.18-.11.17-.09.18-.1.2-.07.19-.16.43-.12.44-.12.46-.1.48-.08.48-.09.76-.08.77,0,.79m9.5,5.31-.44-1.22-.47-1.19-.41-1-.44-1-.45-.94-.37-.74-.38-.71-.41-.69-.42-.66-.32-.47-.32-.44-.35-.41-.22-.25-.23-.22-.24-.22-.22-.18-.23-.16-.23-.12-.2-.09-.17-.06-.16,0h-.12l-.15,0-.07,0M199.2,72.62l.15-.17v-.11m-.14.28L110.72,99.05m-.17,0h.17m-.48-.18.31.17m-.41-.29.1.12"/></g><path class="cls-4" d="M147.18,202.57l.07.11h0m.16-.3h0m2.12-.62h0m.59.29.08-.1h0m-.19.14,0-.08m-2,.71,0-.1m-.41-.23-.15.09,0,.11.19,0h.25l.07,0m-.41-.23,2.08-.62m.42.24.13-.09,0-.11-.2-.06h-.31m.42.24-2.09.61"/><path class="cls-4" d="M150.15,201.94V202m-3,.55v.07m0-.07,0-.06,0,0,.08,0,.07,0m0,0,2.1-.62m.67.18,0-.06,0,0-.06,0-.11,0-.15,0h-.17l-.11,0"/></svg>