<svg id="IC_CW1" xmlns="http://www.w3.org/2000/svg" xmlns:xlink="http://www.w3.org/1999/xlink" viewBox="0 0 300 263"><defs><style>.cls-1,.cls-2,.cls-5{fill:none;}.cls-2{stroke:#000;}.cls-2,.cls-5{stroke-width:0.5px;}.cls-3{isolation:isolate;}.cls-4{clip-path:url(#clip-path);}.cls-5{stroke:#1d1d1b;stroke-miterlimit:2;}</style><clipPath id="clip-path"><rect class="cls-1" x="57.88" y="74.19" width="185.57" height="142.88"/></clipPath></defs><title>1_Base c-w</title><line class="cls-2" x1="71.87" y1="64.39" x2="242.94" y2="65.12"/><line class="cls-2" x1="71.88" y1="63.63" x2="71.87" y2="65.15"/><line class="cls-2" x1="242.95" y1="64.36" x2="242.94" y2="65.89"/><g class="cls-3"><path d="M136.16,55.55l-7.2,0V54.19l4.53-4.58c.18-.17.35-.35.52-.54a5.3,5.3,0,0,0,.46-.6,3.25,3.25,0,0,0,.34-.67,2.06,2.06,0,0,0,.13-.74,1.84,1.84,0,0,0-.16-.83,1.74,1.74,0,0,0-.47-.63,2.18,2.18,0,0,0-.7-.39,2.41,2.41,0,0,0-.85-.14,2.24,2.24,0,0,0-1.47.47,2.17,2.17,0,0,0-.79,1.29l-1.22-.13a3.2,3.2,0,0,1,1.17-2,3.53,3.53,0,0,1,2.24-.71,4.64,4.64,0,0,1,1.3.19,3.09,3.09,0,0,1,1.08.56,2.5,2.5,0,0,1,.75.92A2.79,2.79,0,0,1,136.1,47a3.51,3.51,0,0,1-.21,1.2,4.9,4.9,0,0,1-.52,1,7,7,0,0,1-.74.91q-.4.43-.84.84l-3.58,3.52,5.95,0Z"/><path d="M140.09,49.53a2.16,2.16,0,0,1-.68-.38,2.53,2.53,0,0,1-.54-.59,3.29,3.29,0,0,1-.35-.73,3,3,0,0,1,.14-2.06,2.69,2.69,0,0,1,.69-.93,3.09,3.09,0,0,1,1-.59,3.73,3.73,0,0,1,2.44,0,3.07,3.07,0,0,1,1,.6,2.73,2.73,0,0,1,.69.94,3,3,0,0,1,.25,1.22,2.54,2.54,0,0,1-.14.83,2.79,2.79,0,0,1-.35.74,2.48,2.48,0,0,1-.54.58,2.38,2.38,0,0,1-.68.37v0a2.7,2.7,0,0,1,1.53,1.07,3.21,3.21,0,0,1,.57,1.92,2.92,2.92,0,0,1-.3,1.33,3.25,3.25,0,0,1-.79,1,3.54,3.54,0,0,1-1.14.64,4.14,4.14,0,0,1-1.37.22,4.19,4.19,0,0,1-1.37-.23,3.41,3.41,0,0,1-1.13-.65,3.55,3.55,0,0,1-.78-1,3.05,3.05,0,0,1-.29-1.33,3.21,3.21,0,0,1,.58-1.92,2.72,2.72,0,0,1,1.55-1ZM144,52.4a2.56,2.56,0,0,0-.17-.93,2.24,2.24,0,0,0-1.26-1.23,3.11,3.11,0,0,0-1-.18,2.67,2.67,0,0,0-1,.18,2.1,2.1,0,0,0-.77.48,2.39,2.39,0,0,0-.49.74,2.27,2.27,0,0,0-.18.91,2.41,2.41,0,0,0,.18.93,2.11,2.11,0,0,0,.48.73,2.08,2.08,0,0,0,.76.49,2.67,2.67,0,0,0,1,.18,2.54,2.54,0,0,0,1-.17,2.11,2.11,0,0,0,1.26-1.22A2.27,2.27,0,0,0,144,52.4Zm-.4-5.29a2.1,2.1,0,0,0-.14-.8,2.13,2.13,0,0,0-.43-.63,1.93,1.93,0,0,0-.63-.42,2.37,2.37,0,0,0-.8-.16,2.07,2.07,0,0,0-.8.15,2,2,0,0,0-.65.42,1.74,1.74,0,0,0-.42.63,1.91,1.91,0,0,0-.16.8,2.15,2.15,0,0,0,.15.8,1.93,1.93,0,0,0,.42.63,1.87,1.87,0,0,0,.64.42,2.07,2.07,0,0,0,.8.15,1.93,1.93,0,0,0,.8-.14,1.87,1.87,0,0,0,.64-.42,1.76,1.76,0,0,0,.43-.63A2.07,2.07,0,0,0,143.58,47.11Z"/><path d="M150.48,44.09a3.21,3.21,0,0,1,2,.56,3.84,3.84,0,0,1,1.16,1.43,6.45,6.45,0,0,1,.56,1.9,15.29,15.29,0,0,1,.13,2,13.58,13.58,0,0,1-.15,2,6.46,6.46,0,0,1-.57,1.9,3.86,3.86,0,0,1-1.17,1.42,3.75,3.75,0,0,1-3.94,0,3.77,3.77,0,0,1-1.16-1.43,6.16,6.16,0,0,1-.55-1.9,13.62,13.62,0,0,1-.14-2,15.43,15.43,0,0,1,.15-2,6.31,6.31,0,0,1,.57-1.89,3.71,3.71,0,0,1,1.18-1.42A3.17,3.17,0,0,1,150.48,44.09Zm0,1a2.06,2.06,0,0,0-1.46.49,3.21,3.21,0,0,0-.82,1.23,6.09,6.09,0,0,0-.35,1.57c-.05.55-.07,1-.08,1.5s0,1,.07,1.51a6.1,6.1,0,0,0,.34,1.56,3,3,0,0,0,.8,1.24,2.07,2.07,0,0,0,1.46.5,2.09,2.09,0,0,0,1.47-.49,3.08,3.08,0,0,0,.81-1.23,6.11,6.11,0,0,0,.35-1.56c.05-.56.08-1.06.08-1.51s0-1-.07-1.5a5.77,5.77,0,0,0-.33-1.57,3.08,3.08,0,0,0-.81-1.23A2.06,2.06,0,0,0,150.47,45.14Z"/><path d="M160.5,49.82c0-.27,0-.55,0-.83s0-.55,0-.83h1.13V49.3h0a2.62,2.62,0,0,1,1.07-1A3.05,3.05,0,0,1,164,48a5.35,5.35,0,0,1,.65.07,2,2,0,0,1,.66.24,2,2,0,0,1,.6.47,2.51,2.51,0,0,1,.47.79,2.48,2.48,0,0,1,1-1.13,2.69,2.69,0,0,1,1.45-.41,2.73,2.73,0,0,1,2.12.76,3.09,3.09,0,0,1,.68,2.17l0,4.76h-1l0-4.37a3.16,3.16,0,0,0-.4-1.74,1.65,1.65,0,0,0-1.48-.62,1.82,1.82,0,0,0-1.65.85,2.84,2.84,0,0,0-.36.87,4.73,4.73,0,0,0-.12,1v4h-1.06l0-4.37a3.23,3.23,0,0,0-.39-1.74,1.67,1.67,0,0,0-1.49-.62l-.44.06a1.74,1.74,0,0,0-.71.35,2.55,2.55,0,0,0-.67.86,3.53,3.53,0,0,0-.3,1.6l0,3.84h-1.05Z"/><path d="M174.13,49.88c0-.27,0-.55,0-.83s0-.55-.05-.83h1.14v1.14h0a2.49,2.49,0,0,1,1.07-1,3.12,3.12,0,0,1,1.35-.33,3.79,3.79,0,0,1,.65.07,2.42,2.42,0,0,1,.67.23,2.39,2.39,0,0,1,.59.48,2.45,2.45,0,0,1,.47.78,2.59,2.59,0,0,1,1-1.13,2.87,2.87,0,0,1,1.45-.41,2.77,2.77,0,0,1,2.13.77,3.12,3.12,0,0,1,.67,2.17v4.76h-1.06l0-4.37a3.13,3.13,0,0,0-.4-1.74,1.65,1.65,0,0,0-1.48-.62,2,2,0,0,0-1,.23,1.81,1.81,0,0,0-.65.61,2.82,2.82,0,0,0-.37.87,4.9,4.9,0,0,0-.11,1l0,4h-1.06l0-4.37a3.18,3.18,0,0,0-.39-1.75A1.67,1.67,0,0,0,177.3,49l-.44.06a1.67,1.67,0,0,0-.71.35,2.55,2.55,0,0,0-.67.86,3.53,3.53,0,0,0-.3,1.6l0,3.84h-1Z"/></g><line class="cls-2" x1="243.44" y1="226.49" x2="110.94" y2="226.49"/><line class="cls-2" x1="243.44" y1="228.03" x2="243.44" y2="224.85"/><line class="cls-2" x1="110.94" y1="228.03" x2="110.94" y2="224.85"/><g class="cls-3"><path d="M149.48,240.42a4,4,0,0,1,.68,1.16,4.28,4.28,0,0,1,.24,1.45,4.22,4.22,0,0,1-.29,1.57,3.73,3.73,0,0,1-2.08,2.07,4.2,4.2,0,0,1-1.61.3,4.15,4.15,0,0,1-1.4-.23,3.94,3.94,0,0,1-1.11-.6l-1.08,1.08-.51-.49,1.06-1.09a3.56,3.56,0,0,1-.69-1.18,4.17,4.17,0,0,1-.24-1.43,4.07,4.07,0,0,1,.3-1.57,3.73,3.73,0,0,1,2.08-2.07,4.29,4.29,0,0,1,1.59-.29,4.45,4.45,0,0,1,1.39.21,3.86,3.86,0,0,1,1.15.62l1.06-1.09.51.5Zm-1.25.26a2.65,2.65,0,0,0-1.81-.62,2.79,2.79,0,0,0-1.18.23,2.54,2.54,0,0,0-.88.63,3,3,0,0,0-.56.94,3.51,3.51,0,0,0-.2,1.17,3,3,0,0,0,.55,1.83Zm-3.6,4.72a2.72,2.72,0,0,0,.8.45,2.86,2.86,0,0,0,1,.16,3,3,0,0,0,1.18-.23,2.7,2.7,0,0,0,.88-.64,2.64,2.64,0,0,0,.57-.94,3.42,3.42,0,0,0,.2-1.17,3.13,3.13,0,0,0-.54-1.82Z"/><path d="M163.59,246.78h-7.2v-1.33l4.51-4.59c.17-.17.34-.36.51-.55a4.71,4.71,0,0,0,.47-.61,3.79,3.79,0,0,0,.33-.67,2,2,0,0,0,.13-.73,2.07,2.07,0,0,0-.17-.84,1.79,1.79,0,0,0-.47-.62,2.18,2.18,0,0,0-.7-.39,2.66,2.66,0,0,0-.85-.14,2.33,2.33,0,0,0-1.48.48,2.2,2.2,0,0,0-.78,1.3l-1.22-.13a3.18,3.18,0,0,1,1.16-2,3.54,3.54,0,0,1,2.24-.72,4.59,4.59,0,0,1,1.3.18,3.39,3.39,0,0,1,1.09.55,2.69,2.69,0,0,1,1,2.21,3.51,3.51,0,0,1-.2,1.2,4.9,4.9,0,0,1-.52,1,7,7,0,0,1-.73.92c-.27.28-.55.57-.84.84l-3.57,3.54h6Z"/><path d="M169,235.26a3.17,3.17,0,0,1,2,.56,3.78,3.78,0,0,1,1.17,1.42,6.45,6.45,0,0,1,.56,1.9,15.09,15.09,0,0,1,.14,2,15.36,15.36,0,0,1-.14,2,6.3,6.3,0,0,1-.56,1.89,3.81,3.81,0,0,1-1.17,1.43,3.73,3.73,0,0,1-3.93,0,3.63,3.63,0,0,1-1.17-1.43,6,6,0,0,1-.56-1.89,13.82,13.82,0,0,1-.15-2,13.58,13.58,0,0,1,.15-2,6.17,6.17,0,0,1,.56-1.9,3.6,3.6,0,0,1,1.17-1.42A3.14,3.14,0,0,1,169,235.26Zm0,1.05a2.07,2.07,0,0,0-1.46.5,3.08,3.08,0,0,0-.81,1.23,5.7,5.7,0,0,0-.34,1.57c0,.55-.08,1-.08,1.5s0,.95.08,1.51a5.71,5.71,0,0,0,.34,1.56,3.11,3.11,0,0,0,.81,1.24,2.06,2.06,0,0,0,1.46.49,2.09,2.09,0,0,0,1.47-.49,3.34,3.34,0,0,0,.81-1.24,6.1,6.1,0,0,0,.34-1.56c0-.56.07-1.06.07-1.51s0-1-.07-1.5a6.09,6.09,0,0,0-.34-1.57,3.3,3.3,0,0,0-.81-1.23A2.09,2.09,0,0,0,169,236.31Z"/><path d="M177.86,235.26a3.17,3.17,0,0,1,2,.56,3.78,3.78,0,0,1,1.17,1.42,6.44,6.44,0,0,1,.55,1.9,13.58,13.58,0,0,1,.15,2,13.82,13.82,0,0,1-.15,2A6.29,6.29,0,0,1,181,245a3.81,3.81,0,0,1-1.17,1.43,3.75,3.75,0,0,1-3.94,0,3.81,3.81,0,0,1-1.17-1.43,6.6,6.6,0,0,1-.56-1.89,15.36,15.36,0,0,1-.14-2,15.09,15.09,0,0,1,.14-2,6.77,6.77,0,0,1,.56-1.9,3.78,3.78,0,0,1,1.17-1.42A3.17,3.17,0,0,1,177.86,235.26Zm0,1.05a2.09,2.09,0,0,0-1.47.5,3.17,3.17,0,0,0-.8,1.23,6.09,6.09,0,0,0-.35,1.57c0,.55-.07,1-.07,1.5s0,.95.07,1.51a6.11,6.11,0,0,0,.35,1.56,3.2,3.2,0,0,0,.8,1.24,2.09,2.09,0,0,0,1.47.49,2,2,0,0,0,1.46-.49,3.11,3.11,0,0,0,.81-1.24,5.71,5.71,0,0,0,.34-1.56c.05-.56.08-1.06.08-1.51s0-1-.08-1.5a5.7,5.7,0,0,0-.34-1.57,3.08,3.08,0,0,0-.81-1.23A2.05,2.05,0,0,0,177.86,236.31Z"/><path d="M187.91,241c0-.28,0-.55,0-.83s0-.55,0-.83H189v1.13h0a2.53,2.53,0,0,1,1.06-1,3.05,3.05,0,0,1,1.35-.33,3.83,3.83,0,0,1,.65.06,2.25,2.25,0,0,1,.66.23,2,2,0,0,1,.6.47,2.44,2.44,0,0,1,.47.79,2.56,2.56,0,0,1,1-1.14,2.85,2.85,0,0,1,1.45-.41,2.73,2.73,0,0,1,2.13.76,3.14,3.14,0,0,1,.68,2.16v4.76h-1v-4.37a3.26,3.26,0,0,0-.4-1.75,1.66,1.66,0,0,0-1.49-.6,1.84,1.84,0,0,0-1.64.84,3,3,0,0,0-.36.88,4.74,4.74,0,0,0-.11,1v4H193v-4.37a3.17,3.17,0,0,0-.4-1.75,1.65,1.65,0,0,0-1.49-.6l-.44.06a1.73,1.73,0,0,0-.71.35,2.61,2.61,0,0,0-.66.87,3.48,3.48,0,0,0-.3,1.6v3.84h-1.05Z"/><path d="M201.54,241c0-.28,0-.55,0-.83s0-.55,0-.83h1.13v1.13h0a2.53,2.53,0,0,1,1.06-1,3.05,3.05,0,0,1,1.35-.33,3.74,3.74,0,0,1,.65.06,2.25,2.25,0,0,1,.66.23,2,2,0,0,1,.6.47,2.64,2.64,0,0,1,.48.79,2.48,2.48,0,0,1,1-1.14,2.87,2.87,0,0,1,1.45-.41,2.73,2.73,0,0,1,2.13.76,3.1,3.1,0,0,1,.69,2.16v4.76h-1.06v-4.37a3.17,3.17,0,0,0-.4-1.75,1.66,1.66,0,0,0-1.49-.6,1.84,1.84,0,0,0-1.64.84,3,3,0,0,0-.36.88,4.74,4.74,0,0,0-.11,1v4h-1.06v-4.37a3.17,3.17,0,0,0-.4-1.75,1.64,1.64,0,0,0-1.48-.6l-.44.06a1.71,1.71,0,0,0-.72.35,2.61,2.61,0,0,0-.66.87,3.48,3.48,0,0,0-.3,1.6v3.84h-1.05Z"/></g><line class="cls-2" x1="46.91" y1="124.65" x2="46.96" y2="172.39"/><line class="cls-2" x1="49.01" y1="124.65" x2="44.69" y2="124.65"/><line class="cls-2" x1="49.06" y1="172.39" x2="44.74" y2="172.39"/><g class="cls-3"><path d="M33.53,176.88a3.79,3.79,0,0,1,1.16-.67,4.28,4.28,0,0,1,1.45-.24,4,4,0,0,1,1.57.3,3.68,3.68,0,0,1,1.24.84,3.76,3.76,0,0,1,.82,1.26,4.38,4.38,0,0,1,0,3,3.72,3.72,0,0,1-.61,1.11l1.08,1.08-.5.51L38.71,183a3.83,3.83,0,0,1-1.18.68,4.17,4.17,0,0,1-1.43.23,4,4,0,0,1-1.57-.3,3.8,3.8,0,0,1-1.24-.83,4,4,0,0,1-.82-1.26,4.38,4.38,0,0,1-.29-1.6,4.45,4.45,0,0,1,.23-1.39,3.76,3.76,0,0,1,.62-1.15L32,176.33l.5-.51Zm.25,1.25a2.7,2.7,0,0,0-.64,1.81,2.91,2.91,0,0,0,.23,1.17A2.48,2.48,0,0,0,34,182a2.77,2.77,0,0,0,.94.56,3.19,3.19,0,0,0,1.16.21,3,3,0,0,0,1.83-.53Zm4.7,3.63a2.72,2.72,0,0,0,.45-.8,3.11,3.11,0,0,0,.17-1,3,3,0,0,0-.23-1.18,2.67,2.67,0,0,0-.63-.89,2.64,2.64,0,0,0-.94-.57,3.2,3.2,0,0,0-1.17-.21,3.05,3.05,0,0,0-1.82.54Z"/><path d="M40,165.21v1.15l-9.89-.06,1.78,2-.87.71-2.35-2.89v-1Z"/><path d="M40,156.31v1.15l-9.89-.05,1.78,2-.87.72-2.35-2.9v-1Z"/><path d="M28.52,148.47a3.28,3.28,0,0,1,.57-2,3.77,3.77,0,0,1,1.43-1.16,6.16,6.16,0,0,1,1.9-.55,13.76,13.76,0,0,1,2-.14,15.35,15.35,0,0,1,2,.16,6.31,6.31,0,0,1,1.89.57,3.71,3.71,0,0,1,1.42,1.18,3.73,3.73,0,0,1,0,3.93,3.77,3.77,0,0,1-1.43,1.16,6.16,6.16,0,0,1-1.9.55,14,14,0,0,1-3.95,0,6.31,6.31,0,0,1-1.89-.57,3.71,3.71,0,0,1-1.42-1.18A3.24,3.24,0,0,1,28.52,148.47Zm1.06,0a2.06,2.06,0,0,0,.48,1.46,3.21,3.21,0,0,0,1.23.82,6.09,6.09,0,0,0,1.57.35c.55,0,1,.08,1.5.08s1,0,1.5-.06a6.09,6.09,0,0,0,1.57-.34,3,3,0,0,0,1.24-.8,2.44,2.44,0,0,0,0-2.93,3.19,3.19,0,0,0-1.23-.81,5.71,5.71,0,0,0-1.57-.35c-.55-.05-1-.08-1.5-.08a13.4,13.4,0,0,0-1.5.06,6.08,6.08,0,0,0-1.57.33,3.11,3.11,0,0,0-1.24.81A2.05,2.05,0,0,0,29.58,148.48Z"/><path d="M34.27,138.46c-.27,0-.55,0-.83,0l-.83.06v-1.14h1.14v0a2.5,2.5,0,0,1-1-1.07,2.91,2.91,0,0,1-.32-1.35,3.83,3.83,0,0,1,.06-.65,2.61,2.61,0,0,1,.24-.66,2.34,2.34,0,0,1,.47-.6,2.61,2.61,0,0,1,.79-.46,2.5,2.5,0,0,1-1.13-1,2.85,2.85,0,0,1-.41-1.45,2.75,2.75,0,0,1,.78-2.12,3.12,3.12,0,0,1,2.17-.68l4.75,0v1.06l-4.37,0a3.25,3.25,0,0,0-1.74.39,1.67,1.67,0,0,0-.62,1.49,2,2,0,0,0,.23,1,1.9,1.9,0,0,0,.61.65,2.82,2.82,0,0,0,.87.37,4.83,4.83,0,0,0,1,.11l4,0v1.05l-4.36,0a3.09,3.09,0,0,0-1.75.39,1.65,1.65,0,0,0-.62,1.48,4.26,4.26,0,0,0,.07.44,1.68,1.68,0,0,0,.34.72,2.68,2.68,0,0,0,.86.67,3.68,3.68,0,0,0,1.6.3l3.84,0v1.06Z"/><path d="M34.35,124.82l-.83,0-.84,0v-1.13h1.14v0a2.44,2.44,0,0,1-1-1.07,3.05,3.05,0,0,1-.33-1.35,3.9,3.9,0,0,1,.07-.65,2,2,0,0,1,.24-.66,2.34,2.34,0,0,1,.47-.6,2.85,2.85,0,0,1,.79-.47,2.38,2.38,0,0,1-1.13-1,2.75,2.75,0,0,1-.41-1.45,2.69,2.69,0,0,1,.77-2.12,3.12,3.12,0,0,1,2.17-.68l4.75,0v1l-4.37,0a3.2,3.2,0,0,0-1.74.39,1.64,1.64,0,0,0-.62,1.49,2,2,0,0,0,.22,1,1.93,1.93,0,0,0,.62.65,2.42,2.42,0,0,0,.87.36,4.17,4.17,0,0,0,1,.12l4,0v1.06l-4.37,0a3.06,3.06,0,0,0-1.74.39,1.63,1.63,0,0,0-.62,1.48,3.61,3.61,0,0,0,.06.44,1.62,1.62,0,0,0,.35.71,2.55,2.55,0,0,0,.86.67,3.63,3.63,0,0,0,1.6.31l3.84,0v1.06Z"/></g><line class="cls-2" x1="251.85" y1="74.19" x2="252" y2="217.26"/><line class="cls-2" x1="253.39" y1="74.19" x2="250.22" y2="74.19"/><line class="cls-2" x1="253.54" y1="217.26" x2="250.37" y2="217.26"/><g class="cls-3"><path d="M271.64,167l0,7.2h-1.33l-4.56-4.54-.54-.51a5.5,5.5,0,0,0-.61-.47,3.25,3.25,0,0,0-.67-.34,2,2,0,0,0-.73-.13,2.06,2.06,0,0,0-.84.16,1.79,1.79,0,0,0-.62.47,2.2,2.2,0,0,0-.4.7,2.66,2.66,0,0,0-.14.85,2.27,2.27,0,0,0,.47,1.47,2.19,2.19,0,0,0,1.29.8l-.13,1.21a3.15,3.15,0,0,1-2-1.17,3.53,3.53,0,0,1-.71-2.24,5,5,0,0,1,.19-1.3,3.46,3.46,0,0,1,.56-1.08,2.62,2.62,0,0,1,.93-.75,2.66,2.66,0,0,1,1.29-.27,3.6,3.6,0,0,1,1.2.2,4.94,4.94,0,0,1,1,.53,6.25,6.25,0,0,1,.9.73c.29.28.57.56.85.85l3.51,3.58,0-6Z"/><path d="M271.68,160.49v1.15l-9.88,0,1.78,2-.87.72-2.35-2.9v-1Z"/><path d="M265.25,154.06l0,0a2.12,2.12,0,0,1-.28-.74,4.28,4.28,0,0,1-.09-.83,3.42,3.42,0,0,1,.27-1.37,3.27,3.27,0,0,1,1.84-1.81,3.84,3.84,0,0,1,2.83,0,3.08,3.08,0,0,1,1.1.77,3.49,3.49,0,0,1,.72,1.17,4.48,4.48,0,0,1,0,2.95,3.47,3.47,0,0,1-.73,1.16,3.11,3.11,0,0,1-1.1.76,3.68,3.68,0,0,1-1.43.27,4.59,4.59,0,0,1-1.65-.29,8.6,8.6,0,0,1-1.38-.71l-5-3.08v-1.36Zm3.15,1.17a2.64,2.64,0,0,0,1-.18,2.18,2.18,0,0,0,.78-.52,2.34,2.34,0,0,0,.51-.79,3.09,3.09,0,0,0,0-2.05,2.24,2.24,0,0,0-1.27-1.33,2.77,2.77,0,0,0-2,0,2.14,2.14,0,0,0-.77.52,2.56,2.56,0,0,0-.51.79,2.93,2.93,0,0,0,0,2.05,2.41,2.41,0,0,0,.5.8,2.21,2.21,0,0,0,.77.53A2.77,2.77,0,0,0,268.4,155.23Z"/><path d="M266,142.64a7.85,7.85,0,0,0-.84,0l-.83.05v-1.14h1.13v0a2.45,2.45,0,0,1-1-1.06,3.12,3.12,0,0,1-.33-1.36,3.07,3.07,0,0,1,.07-.65,2.47,2.47,0,0,1,.23-.66,2.39,2.39,0,0,1,.48-.6,2.44,2.44,0,0,1,.78-.46,2.55,2.55,0,0,1-1.13-1,3.1,3.1,0,0,1,.37-3.57,3.12,3.12,0,0,1,2.17-.67l4.75,0v1.06l-4.36,0a3.27,3.27,0,0,0-1.75.39,1.64,1.64,0,0,0-.61,1.49,1.91,1.91,0,0,0,.22,1,2,2,0,0,0,.61.65,2.82,2.82,0,0,0,.87.37,5.69,5.69,0,0,0,1,.12l4,0v1.05l-4.37,0a3.09,3.09,0,0,0-1.75.39,1.65,1.65,0,0,0-.61,1.48,3.37,3.37,0,0,0,.06.44,1.71,1.71,0,0,0,.35.72,2.45,2.45,0,0,0,.86.67,3.46,3.46,0,0,0,1.59.3l3.84,0v1.06Z"/><path d="M266,129c-.28,0-.55,0-.83,0l-.83.06v-1.14h1.14v0a2.44,2.44,0,0,1-1-1.07,2.91,2.91,0,0,1-.32-1.35,3.83,3.83,0,0,1,.06-.65,2.61,2.61,0,0,1,.24-.66,2.34,2.34,0,0,1,.47-.6,2.61,2.61,0,0,1,.79-.46,2.5,2.5,0,0,1-1.13-1,2.85,2.85,0,0,1-.41-1.45,2.78,2.78,0,0,1,.77-2.12,3.15,3.15,0,0,1,2.18-.68l4.75,0v1.06l-4.37,0a3.25,3.25,0,0,0-1.74.39,1.67,1.67,0,0,0-.62,1.49,1.84,1.84,0,0,0,.84,1.64,2.82,2.82,0,0,0,.87.37,4.74,4.74,0,0,0,1,.11l4,0v1l-4.37,0a3.08,3.08,0,0,0-1.74.39,1.65,1.65,0,0,0-.62,1.48,3.37,3.37,0,0,0,.06.44,1.84,1.84,0,0,0,.35.72,2.68,2.68,0,0,0,.86.67,3.68,3.68,0,0,0,1.6.3l3.84,0V129Z"/></g><g class="cls-4"><path class="cls-5" d="M190.59,84H168m0,0h-8.14m30.38,0,.78.17.76.19.77.2.77.2L194,85l.75.23.77.23.75.25.75.25.76.26.74.27.75.27.74.28.74.29.75.32.76.32,1.07.48,1.07.5,1,.5,1,.51,1,.53,1,.56,1,.56,1,.57,1,.6,1,.62.94.64.94.64.92.66.91.68.91.69.88.71.88.72.86.74.85.75.84.77.83.78.8.79.8.81.79.82.77.84.76.85.74.85.72.88.72.88.69.9.68.9.67.92.65.93.63.94.62,1,.6,1,.58,1,.57,1,.56,1,.53,1,.53,1,.49,1,.48,1,.47,1,.45,1,.43,1,.42,1,.39,1.06.37,1.08.37,1.08.34,1.07.31,1.09.31,1.09.29,1.1.25,1.1.26,1.11.22,1.11.21,1.11.19,1.12.18,1.12.15,1.12.13,1.13.11,1.13.1,1.13.08,1.13.05,1.13,0,1.13,0,1.14V150l0,1.13,0,1.13,0,1.14-.08,1.12-.1,1.13-.12,1.14-.13,1.12-.16,1.12-.17,1.12-.19,1.13-.22,1.11-.23,1.1-.24,1.11-.28,1.11-.28,1.09-.31,1.1-.32,1.08-.34,1.08-.36,1.07-.38,1.07-.4,1.06-.41,1.06-.44,1.05-.45,1-.46,1-.5,1-.5,1-.52,1-.54,1-.55,1-.57,1-.59,1-.6,1-.63,1-.63.94-.65.93-.66.92-.69.9-.7.89-.72.89-.72.87-.75.86-.75.84-.78.83-.78.83-.8.8-.81.79-.83.78-.84.76-.85.75-.87.74-.88.72-.89.71-.9.69-.91.68-.93.65-.94.65-.95.62-.95.62-1,.6-1,.58-1,.56-1,.55-1,.52-1,.52-1,.5-1,.47-1,.46-1,.45-1.05.42-1.06.41-1.07.38-1.08.38-1.08.35-1.08.34-1.09.31-1.1.3-1.11.28-1.1.25-1.13.26-1.14.23-.78.14-.8.13-.78.12-.79.13-.78.1-.79.1-.79.09-.79.08L181,216l-.79.06-.8.05-.8,0-.79,0-.79,0-.79,0h-.8M160.71,84l-.77.17-.77.19-.77.2-.77.2-.77.21-.75.23-.76.23-.76.25-.76.25-.75.26-.74.27-.74.27-.75.28-.73.29-.76.32-.75.32-1.08.48-1.07.5-1,.5-1,.51-1,.53-1,.56-1,.56-1,.57-1,.6-1,.62-.94.64-.94.64-.92.66-.91.68-.9.69-.89.71-.87.72-.87.74-.85.75-.84.77-.83.78-.81.79-.79.81-.79.82-.76.84-.76.85-.74.85-.73.88-.71.88-.7.9-.68.9-.67.92-.64.93-.63.94-.62,1-.61,1-.59,1-.57,1-.55,1-.53,1-.52,1-.5,1-.48,1-.46,1-.46,1-.43,1-.41,1-.39,1.06-.39,1.08-.35,1.08-.34,1.07-.32,1.09-.31,1.09-.28,1.1-.27,1.1-.24,1.11-.23,1.11-.21,1.11-.19,1.12-.17,1.12-.15,1.12-.14,1.13-.11,1.13-.1,1.13-.07,1.13,0,1.13,0,1.13,0,1.14V150l0,1.13,0,1.13.06,1.14.08,1.12.09,1.13.12,1.14.13,1.12L109,159l.17,1.12.2,1.13.21,1.11.23,1.1.25,1.11.27,1.11.29,1.09.3,1.1.33,1.08.33,1.08.37,1.07.38,1.07.39,1.06.42,1.06.43,1.05.45,1,.47,1,.48,1,.51,1,.52,1,.54,1,.56,1,.56,1,.59,1,.61,1,.61,1,.64.94.66.93.66.92.68.9.7.89.71.89.74.87.74.86.76.84.76.83.8.83.79.8.82.79.83.78.84.76.85.75.86.74.88.72.89.71.9.69.92.68.92.65.94.65.94.62,1,.62,1,.6,1,.58,1,.56,1,.55,1,.52,1,.52,1,.5,1,.47,1,.46,1.05.45,1.06.42,1.05.41,1.07.38,1.08.38,1.07.35,1.1.34,1.09.31,1.1.3,1.09.28,1.11.25,1.14.26,1.14.23.78.14.79.13.78.12.78.13.79.1.79.1.79.09.79.08.79.07.79.06.79.05.79,0,.8,0,.79,0,.8,0h.79M242.64,82.14h-62m-1.34,0H167.43m.21,0H79.15M242.64,75H72M180.6,82.14l-.23,0-.56,0-.55.06m63.38,0V78.58m0,0V75M72,153.85v62.2m7.17,0H72M79.15,82.14V216.05m0-133.91-3.58-3.56M72,75l3.59,3.58M72,75v68.92"/></g><path class="cls-5" d="M180.64,82.42l-10.18,0"/><path class="cls-5" d="M169.08,82.29m-1.65,0,0,0h-.58m11.59,0v.08m1.34-.08v.17m-7.36-.16h0l-.55,0-.56,0-.56,0m-1.09.07-.38,0-.57,0-.55.06-.55,0-.56.06-.55.06-.55.07-.56.07-.55.08-.55.08-.55.09-.55.09-.55.1-.54.1-.56.1-.54.11m27.32,0-.26-.06-.55-.11-.54-.1-.55-.09-.55-.09-.55-.09-.55-.09-.55-.07-.55-.08-.56-.07-.55-.07-.55-.07-.56-.05-.55-.06-.56,0-.55,0M161,83.66v0m27.32,0v0m-27.32,0h13.66m12,0h-12m12,0h1.67M170.46,82.4l-.81,0m0,0h.28m.53,0,.28,0m0,0-1.22-.08m2.9,0h0M71.52,141.2l-.1-.34-.15-.53-.17-.53-.17-.53-.19-.52-.19-.51-.21-.52-.21-.5-.23-.51-.23-.5-.25-.5-.25-.49-.27-.49-.26-.48-.29-.48-.29-.48-.3-.45-.31-.47-.32-.46-.33-.44-.33-.44-.34-.44-.36-.42-.36-.42-.36-.43-.38-.4-.38-.4-.4-.4-.4-.38-.4-.38-.41-.37-.43-.35-.42-.37-.44-.34-.44-.35-.44-.32-.46-.32-.46-.31-.47-.31m0,36V173m0-48.66v36m12.5-18.68a4,4,0,0,0-.1-.44s.46,2,.7,4.08a29.34,29.34,0,0,1,0,6.3,31.16,31.16,0,0,1-.75,4.54l-.15.53c-.05.17-.06.2-.17.54l-.16.52c-.06.18-.11.31-.18.53s-.13.35-.19.51l-.19.52c-.08.2-.15.35-.22.51s-.05.12-.22.51l-.22.51-.24.5s0,.09-.25.49l-.26.49c-.08.13-.16.28-.27.48l-.28.49-.28.48c-.11.18-.12.18-.3.46l-.29.46-.32.46c-.09.14-.19.28-.32.46l-.33.44-.34.44-.35.44-.35.42c-.28.33-.27.33-.36.42l-.38.41-.38.41-.38.4-.39.39-.4.38-.41.38-.42.36-.43.36-.43.35-.43.35-.45.33-.45.33-.45.32-.47.3-.29.18q-.09-24.14-.19-48.27v-.33m.19,28.43v.56m0-.58v0m0-4.14v.27m0-.58v.31m-.22-5.87v0l.22.47m0-8.74h0l-.22.46m0,6.05v1.74m-.22-2.41v.18l.21.48m0-6-.09.15-.13.52M59.12,156l-.31.37-.13.52m0,4.71.11.47.34.41m0-6.48-.31.37-.13.52m0,4.71.11.47.34.41m0-27.71-.32.36-.13.52m0,4.71.11.47.33.42m-.44,20.07v-4.43m0,4.71v-.28m0-25.67V136m0,0v4.42M190.25,83.77l0,.35m0-.12-1.25-.34M160.36,84v-.29m27.95,0h.59m-21.08,0H188.9m0,0h0m-21.08,0h-7.43m.6,0h-.6m0,0h0m28.22,0H167.09m.08.13h-6.48"/></svg>