<svg xmlns="http://www.w3.org/2000/svg" viewBox="0 0 300 263"><defs><style>.cls-1,.cls-2,.cls-3,.cls-4{fill:none;stroke-linecap:round;}.cls-1,.cls-2{stroke:red;}.cls-1,.cls-2,.cls-4{stroke-linejoin:round;}.cls-1,.cls-3,.cls-4{stroke-width:0.6px;}.cls-3,.cls-4{stroke:#000;}.cls-3{stroke-miterlimit:10;}</style></defs><title>ic-ceiling-wall-2-anastassiades-flos-F31790-curva-fotometrica</title><g id="numeri_esterni_diagramma" data-name="numeri esterni diagramma"><path d="M148.27,239.2a6.85,6.85,0,0,1,.08-1,3.41,3.41,0,0,1,.3-.95,1.94,1.94,0,0,1,.59-.71,1.57,1.57,0,0,1,.95-.27,1.6,1.6,0,0,1,1,.27,2,2,0,0,1,.59.71,3.1,3.1,0,0,1,.29.95,5.7,5.7,0,0,1,.08,1,5.85,5.85,0,0,1-.08,1,3.13,3.13,0,0,1-.29.94,2,2,0,0,1-.59.71,1.6,1.6,0,0,1-1,.27,1.57,1.57,0,0,1-.95-.27,1.94,1.94,0,0,1-.59-.71,3.45,3.45,0,0,1-.3-.94A7.07,7.07,0,0,1,148.27,239.2Zm.68,0c0,.13,0,.29,0,.46a4.88,4.88,0,0,0,.06.52,2.83,2.83,0,0,0,.13.5,1.65,1.65,0,0,0,.22.44,1.24,1.24,0,0,0,.34.31,1,1,0,0,0,.48.12.9.9,0,0,0,.48-.12,1,1,0,0,0,.34-.31,1.41,1.41,0,0,0,.23-.44,4.07,4.07,0,0,0,.13-.5c0-.18,0-.35.06-.52s0-.33,0-.46,0-.3,0-.47,0-.34-.06-.51a3.8,3.8,0,0,0-.13-.51,1.53,1.53,0,0,0-.23-.44,1,1,0,0,0-.34-.31.9.9,0,0,0-.48-.12,1,1,0,0,0-.48.12,1.24,1.24,0,0,0-.34.31,1.81,1.81,0,0,0-.22.44,2.72,2.72,0,0,0-.13.51,4.43,4.43,0,0,0-.06.51C149,238.9,149,239.06,149,239.2Z"/><path d="M152.83,237.41a1.33,1.33,0,0,1,.08-.45,1.11,1.11,0,0,1,.25-.36,1,1,0,0,1,.36-.24,1.17,1.17,0,0,1,.9,0,1,1,0,0,1,.36.24,1.11,1.11,0,0,1,.25.36,1.31,1.31,0,0,1,0,.9,1.23,1.23,0,0,1-.61.61,1.17,1.17,0,0,1-.9,0,1.23,1.23,0,0,1-.61-.61A1.33,1.33,0,0,1,152.83,237.41Zm.43,0a.79.79,0,0,0,.05.25.68.68,0,0,0,.14.23.66.66,0,0,0,.23.17.73.73,0,0,0,.58,0,.76.76,0,0,0,.23-.17.88.88,0,0,0,.14-.23.65.65,0,0,0,0-.5,1.09,1.09,0,0,0-.14-.23,1,1,0,0,0-.23-.17.73.73,0,0,0-.58,0,.81.81,0,0,0-.23.17.75.75,0,0,0-.19.48Z"/><path d="M203.17,238.76h.21l.43,0a1.15,1.15,0,0,0,.42-.13.77.77,0,0,0,.31-.31.94.94,0,0,0,.13-.51.87.87,0,0,0-.27-.68,1,1,0,0,0-.7-.26,1.28,1.28,0,0,0-.63.16,1.14,1.14,0,0,0-.41.48l-.65-.25a1.48,1.48,0,0,1,.65-.72,2.07,2.07,0,0,1,1-.24,2.25,2.25,0,0,1,.64.09,1.72,1.72,0,0,1,.54.28,1.37,1.37,0,0,1,.37.46,1.48,1.48,0,0,1,.14.65,1.29,1.29,0,0,1-.27.8,1.34,1.34,0,0,1-.7.49v0a1.48,1.48,0,0,1,.85.49,1.37,1.37,0,0,1,.23.43,1.69,1.69,0,0,1,.08.5,1.66,1.66,0,0,1-.15.72,1.57,1.57,0,0,1-.41.51,1.71,1.71,0,0,1-.6.31,2.34,2.34,0,0,1-.71.1,2.18,2.18,0,0,1-1.13-.28,1.61,1.61,0,0,1-.7-.91l.68-.22a1.33,1.33,0,0,0,.41.65,1.3,1.3,0,0,0,.74.19,1.33,1.33,0,0,0,.45-.08,1.11,1.11,0,0,0,.36-.23,1.24,1.24,0,0,0,.25-.35,1.13,1.13,0,0,0,.09-.45,1.07,1.07,0,0,0-.12-.53,1,1,0,0,0-.33-.33,1.23,1.23,0,0,0-.46-.18,2.31,2.31,0,0,0-.52-.06h-.21Z"/><path d="M206.24,239.2a6.85,6.85,0,0,1,.08-1,3.11,3.11,0,0,1,.3-.95,1.94,1.94,0,0,1,.59-.71,1.55,1.55,0,0,1,.95-.27,1.6,1.6,0,0,1,1,.27,2,2,0,0,1,.59.71,3.1,3.1,0,0,1,.29.95,5.7,5.7,0,0,1,.08,1,5.85,5.85,0,0,1-.08,1,3.13,3.13,0,0,1-.29.94,2,2,0,0,1-.59.71,1.6,1.6,0,0,1-1,.27,1.55,1.55,0,0,1-.95-.27,1.94,1.94,0,0,1-.59-.71,3.14,3.14,0,0,1-.3-.94A7.07,7.07,0,0,1,206.24,239.2Zm.67,0c0,.13,0,.29,0,.46a4.88,4.88,0,0,0,.06.52,2.83,2.83,0,0,0,.13.5,1.4,1.4,0,0,0,.22.44,1.24,1.24,0,0,0,.34.31,1,1,0,0,0,.48.12.9.9,0,0,0,.48-.12,1,1,0,0,0,.34-.31,1.41,1.41,0,0,0,.23-.44,4.05,4.05,0,0,0,.12-.5,4.88,4.88,0,0,0,.06-.52,3.86,3.86,0,0,0,0-.46,3.94,3.94,0,0,0,0-.47,4.43,4.43,0,0,0-.06-.51,3.81,3.81,0,0,0-.12-.51,1.53,1.53,0,0,0-.23-.44,1,1,0,0,0-.34-.31.9.9,0,0,0-.48-.12,1,1,0,0,0-.48.12,1.24,1.24,0,0,0-.34.31,1.51,1.51,0,0,0-.22.44,2.72,2.72,0,0,0-.13.51,4.43,4.43,0,0,0-.06.51C206.92,238.9,206.91,239.06,206.91,239.2Z"/><path d="M210.84,237.41a1.13,1.13,0,0,1,.09-.45,1.26,1.26,0,0,1,.24-.36,1.2,1.2,0,0,1,.82-.33,1,1,0,0,1,.44.09,1.12,1.12,0,0,1,.37.24,1.26,1.26,0,0,1,.24.36,1.16,1.16,0,0,1-.24,1.26,1.15,1.15,0,0,1-.37.25,1,1,0,0,1-.44.09,1.13,1.13,0,0,1-.45-.09,1.15,1.15,0,0,1-.37-.25,1.15,1.15,0,0,1-.33-.81Zm.43,0a.61.61,0,0,0,.06.25.68.68,0,0,0,.14.23.72.72,0,0,0,.22.17.73.73,0,0,0,.3.06.72.72,0,0,0,.29-.06.62.62,0,0,0,.22-.17.91.91,0,0,0,.15-.23.65.65,0,0,0,0-.5,1.14,1.14,0,0,0-.15-.23.76.76,0,0,0-.22-.17.72.72,0,0,0-.29-.06.73.73,0,0,0-.3.06.92.92,0,0,0-.22.17.79.79,0,0,0-.14.23A.61.61,0,0,0,211.27,237.41Z"/><path d="M93.6,238.76h.21l.44,0a1.1,1.1,0,0,0,.41-.13.86.86,0,0,0,.32-.31.94.94,0,0,0,.12-.51.87.87,0,0,0-.27-.68,1,1,0,0,0-.7-.26,1.21,1.21,0,0,0-.62.16,1.1,1.1,0,0,0-.42.48l-.65-.25a1.45,1.45,0,0,1,.66-.72,2,2,0,0,1,1-.24,2.32,2.32,0,0,1,.65.09,2,2,0,0,1,.54.28,1.67,1.67,0,0,1,.37.46,1.48,1.48,0,0,1,.13.65,1.29,1.29,0,0,1-.27.8,1.34,1.34,0,0,1-.7.49v0a1.31,1.31,0,0,1,.49.18,1.34,1.34,0,0,1,.36.31,1.37,1.37,0,0,1,.23.43,1.42,1.42,0,0,1,.08.5,1.66,1.66,0,0,1-.15.72,1.57,1.57,0,0,1-.41.51,1.75,1.75,0,0,1-.59.31,2.46,2.46,0,0,1-.72.1,2.18,2.18,0,0,1-1.13-.28,1.56,1.56,0,0,1-.69-.91l.68-.22a1.2,1.2,0,0,0,.41.65,1.27,1.27,0,0,0,.73.19,1.33,1.33,0,0,0,.45-.08,1.11,1.11,0,0,0,.36-.23,1.07,1.07,0,0,0,.25-.35,1.13,1.13,0,0,0,.09-.45,1.07,1.07,0,0,0-.12-.53.87.87,0,0,0-.33-.33,1.17,1.17,0,0,0-.46-.18,2.24,2.24,0,0,0-.52-.06H93.6Z"/><path d="M96.68,239.2a5.7,5.7,0,0,1,.08-1,3.1,3.1,0,0,1,.29-.95,2,2,0,0,1,.59-.71,1.6,1.6,0,0,1,1-.27,1.57,1.57,0,0,1,1,.27,1.94,1.94,0,0,1,.59.71,3.41,3.41,0,0,1,.3.95,6.85,6.85,0,0,1,.08,1,7.07,7.07,0,0,1-.08,1,3.45,3.45,0,0,1-.3.94,1.94,1.94,0,0,1-.59.71,1.57,1.57,0,0,1-1,.27,1.6,1.6,0,0,1-1-.27,2,2,0,0,1-.59-.71,3.13,3.13,0,0,1-.29-.94A5.85,5.85,0,0,1,96.68,239.2Zm.67,0c0,.13,0,.29,0,.46a4.88,4.88,0,0,0,.06.52,4.07,4.07,0,0,0,.13.5,1.41,1.41,0,0,0,.23.44,1,1,0,0,0,.34.31.9.9,0,0,0,.48.12,1,1,0,0,0,.48-.12,1.24,1.24,0,0,0,.34-.31,1.65,1.65,0,0,0,.22-.44,2.83,2.83,0,0,0,.13-.5,4.88,4.88,0,0,0,.06-.52c0-.17,0-.33,0-.46s0-.3,0-.47a4.43,4.43,0,0,0-.06-.51,2.72,2.72,0,0,0-.13-.51,1.81,1.81,0,0,0-.22-.44,1.24,1.24,0,0,0-.34-.31,1,1,0,0,0-.48-.12.9.9,0,0,0-.48.12,1,1,0,0,0-.34.31,1.53,1.53,0,0,0-.23.44,3.8,3.8,0,0,0-.13.51,4.43,4.43,0,0,0-.06.51C97.35,238.9,97.35,239.06,97.35,239.2Z"/><path d="M101.28,237.41a1.33,1.33,0,0,1,.08-.45,1.11,1.11,0,0,1,.25-.36,1,1,0,0,1,.36-.24,1.17,1.17,0,0,1,.9,0,1,1,0,0,1,.36.24,1.11,1.11,0,0,1,.25.36,1.31,1.31,0,0,1,0,.9,1.23,1.23,0,0,1-.61.61,1.17,1.17,0,0,1-.9,0,1.23,1.23,0,0,1-.61-.61A1.33,1.33,0,0,1,101.28,237.41Zm.43,0a.79.79,0,0,0,.05.25.68.68,0,0,0,.14.23.76.76,0,0,0,.23.17.73.73,0,0,0,.58,0,.66.66,0,0,0,.23-.17.68.68,0,0,0,.14-.23.71.71,0,0,0-.14-.73.81.81,0,0,0-.23-.17.73.73,0,0,0-.58,0,1,1,0,0,0-.23.17.75.75,0,0,0-.19.48Z"/><path d="M249.93,137.18h0a1.24,1.24,0,0,1-.37.12,1.84,1.84,0,0,1-.39,0,1.91,1.91,0,0,1-.68-.12,1.58,1.58,0,0,1-.54-.37,1.63,1.63,0,0,1-.36-.56,2.05,2.05,0,0,1-.13-.72,1.79,1.79,0,0,1,.15-.75,1.48,1.48,0,0,1,.4-.55,1.79,1.79,0,0,1,.6-.35,2,2,0,0,1,.75-.13,2.11,2.11,0,0,1,.75.13,1.79,1.79,0,0,1,.6.35,1.59,1.59,0,0,1,.4.55,1.79,1.79,0,0,1,.14.75,2.15,2.15,0,0,1,0,.45,1.68,1.68,0,0,1-.11.4,2.59,2.59,0,0,1-.17.38l-.21.36-1.51,2.39h-.78Zm-.59-.42a1.28,1.28,0,0,0,.48-.09,1,1,0,0,0,.39-.24,1.23,1.23,0,0,0,.26-.37,1.43,1.43,0,0,0,0-1,1.1,1.1,0,0,0-.65-.62,1.48,1.48,0,0,0-1,0,1.28,1.28,0,0,0-.39.24,1.12,1.12,0,0,0-.26.38,1.3,1.3,0,0,0,0,1,1.08,1.08,0,0,0,.26.37,1,1,0,0,0,.39.24A1.28,1.28,0,0,0,249.34,136.76Z"/><path d="M251.82,136.71a7.07,7.07,0,0,1,.08-1,3.19,3.19,0,0,1,.29-1,2,2,0,0,1,.59-.7,1.54,1.54,0,0,1,1-.28,1.49,1.49,0,0,1,.95.28,1.91,1.91,0,0,1,.59.7,2.94,2.94,0,0,1,.3,1,6.29,6.29,0,0,1,0,2,2.94,2.94,0,0,1-.3.95,1.91,1.91,0,0,1-.59.7,1.49,1.49,0,0,1-.95.28,1.54,1.54,0,0,1-1-.28,2,2,0,0,1-.59-.7,3.19,3.19,0,0,1-.29-.95A7.07,7.07,0,0,1,251.82,136.71Zm.67,0c0,.14,0,.29,0,.46a4.6,4.6,0,0,0,.06.52,4.7,4.7,0,0,0,.12.51,2,2,0,0,0,.23.44,1,1,0,0,0,.34.31,1,1,0,0,0,.48.11,1.06,1.06,0,0,0,.48-.11,1.24,1.24,0,0,0,.34-.31,1.65,1.65,0,0,0,.22-.44,3.18,3.18,0,0,0,.13-.51,4.6,4.6,0,0,0,.06-.52c0-.17,0-.32,0-.46s0-.29,0-.46a4.6,4.6,0,0,0-.06-.52,3.18,3.18,0,0,0-.13-.51,1.65,1.65,0,0,0-.22-.44,1.24,1.24,0,0,0-.34-.31,1.06,1.06,0,0,0-.48-.11,1,1,0,0,0-.48.11,1,1,0,0,0-.34.31,2,2,0,0,0-.23.44,4.7,4.7,0,0,0-.12.51,4.6,4.6,0,0,0-.06.52C252.5,136.42,252.49,136.57,252.49,136.71Z"/><path d="M256.42,134.93a1.13,1.13,0,0,1,.09-.45,1.31,1.31,0,0,1,.24-.37,1.18,1.18,0,0,1,.37-.24,1,1,0,0,1,.44-.09,1.13,1.13,0,0,1,.45.09,1.06,1.06,0,0,1,.61.61,1.13,1.13,0,0,1,.09.45,1,1,0,0,1-.09.44,1.06,1.06,0,0,1-.61.61,1.13,1.13,0,0,1-.45.09,1,1,0,0,1-.44-.09,1.18,1.18,0,0,1-.37-.24,1.31,1.31,0,0,1-.24-.37A1,1,0,0,1,256.42,134.93Zm.43,0a.69.69,0,0,0,0,.24,1,1,0,0,0,.15.24.73.73,0,0,0,.51.23.54.54,0,0,0,.29-.07.63.63,0,0,0,.23-.16.72.72,0,0,0,.14-.24.52.52,0,0,0,0-.24.56.56,0,0,0,0-.25.59.59,0,0,0-.14-.23.74.74,0,0,0-.52-.24.73.73,0,0,0-.29.07.62.62,0,0,0-.22.17.76.76,0,0,0-.15.23A.74.74,0,0,0,256.85,134.93Z"/><path d="M41.57,137.18h0a1.34,1.34,0,0,1-.37.12,2,2,0,0,1-.39,0,1.92,1.92,0,0,1-.69-.12,1.58,1.58,0,0,1-.54-.37,1.8,1.8,0,0,1-.36-.56,2.05,2.05,0,0,1-.13-.72,1.79,1.79,0,0,1,.15-.75,1.48,1.48,0,0,1,.4-.55,1.79,1.79,0,0,1,.6-.35,2.23,2.23,0,0,1,1.5,0,1.79,1.79,0,0,1,.6.35,1.48,1.48,0,0,1,.4.55,1.79,1.79,0,0,1,.15.75,3.14,3.14,0,0,1,0,.45,2.34,2.34,0,0,1-.12.4,1.84,1.84,0,0,1-.17.38,3.35,3.35,0,0,1-.21.36l-1.5,2.39h-.79Zm-.59-.42a1.28,1.28,0,0,0,.48-.09,1,1,0,0,0,.39-.24,1.23,1.23,0,0,0,.26-.37,1.3,1.3,0,0,0,0-1,1.1,1.1,0,0,0-.65-.62,1.48,1.48,0,0,0-1,0,1.1,1.1,0,0,0-.65.62,1.43,1.43,0,0,0,0,1,1.23,1.23,0,0,0,.26.37,1,1,0,0,0,.39.24A1.28,1.28,0,0,0,41,136.76Z"/><path d="M43.46,136.71a7.07,7.07,0,0,1,.08-1,2.94,2.94,0,0,1,.3-1,1.91,1.91,0,0,1,.59-.7,1.49,1.49,0,0,1,1-.28,1.54,1.54,0,0,1,1,.28,2,2,0,0,1,.59.7,3.19,3.19,0,0,1,.29,1,6.29,6.29,0,0,1,0,2,3.19,3.19,0,0,1-.29.95,2,2,0,0,1-.59.7,1.54,1.54,0,0,1-1,.28,1.49,1.49,0,0,1-1-.28,1.91,1.91,0,0,1-.59-.7,2.94,2.94,0,0,1-.3-.95A7.07,7.07,0,0,1,43.46,136.71Zm.67,0c0,.14,0,.29,0,.46a4.6,4.6,0,0,0,.06.52,3.18,3.18,0,0,0,.13.51,1.65,1.65,0,0,0,.22.44,1.12,1.12,0,0,0,.34.31,1.1,1.1,0,0,0,1,0,1.12,1.12,0,0,0,.34-.31,2,2,0,0,0,.23-.44,4.7,4.7,0,0,0,.12-.51,4.6,4.6,0,0,0,.06-.52c0-.17,0-.32,0-.46s0-.29,0-.46a4.6,4.6,0,0,0-.06-.52,4.7,4.7,0,0,0-.12-.51,2,2,0,0,0-.23-.44,1.12,1.12,0,0,0-.34-.31,1.1,1.1,0,0,0-1,0,1.12,1.12,0,0,0-.34.31,1.65,1.65,0,0,0-.22.44,3.18,3.18,0,0,0-.13.51,4.6,4.6,0,0,0-.06.52C44.14,136.42,44.13,136.57,44.13,136.71Z"/><path d="M48.06,134.93a1.13,1.13,0,0,1,.09-.45,1.06,1.06,0,0,1,.61-.61,1.13,1.13,0,0,1,.45-.09,1.08,1.08,0,0,1,.44.09,1.06,1.06,0,0,1,.61.61,1.13,1.13,0,0,1,.09.45,1,1,0,0,1-.09.44,1.06,1.06,0,0,1-.61.61,1.08,1.08,0,0,1-.44.09,1.13,1.13,0,0,1-.45-.09,1.06,1.06,0,0,1-.61-.61A1,1,0,0,1,48.06,134.93Zm.43,0a.53.53,0,0,0,.06.24.72.72,0,0,0,.14.24.69.69,0,0,0,.22.16.6.6,0,0,0,.3.07.73.73,0,0,0,.51-.23,1,1,0,0,0,.15-.24.69.69,0,0,0,.05-.24.74.74,0,0,0-.05-.25.76.76,0,0,0-.15-.23.62.62,0,0,0-.22-.17.73.73,0,0,0-.29-.07.73.73,0,0,0-.3.07.72.72,0,0,0-.22.17.59.59,0,0,0-.14.23A.57.57,0,0,0,48.49,134.93Z"/><path d="M148.37,38.51h-.68v-4.8h0l-1,.85-.4-.48,1.52-1.24h.59Z"/><path d="M150.49,34.23a1.48,1.48,0,0,1,.13-.61,1.2,1.2,0,0,1,.34-.46,1.44,1.44,0,0,1,.51-.3,1.92,1.92,0,0,1,1.28,0,1.44,1.44,0,0,1,.51.3,1.2,1.2,0,0,1,.34.46,1.33,1.33,0,0,1,.13.61,1.16,1.16,0,0,1-.07.4,1.41,1.41,0,0,1-.18.37,1.33,1.33,0,0,1-.29.29,1.18,1.18,0,0,1-.39.19h0a1.44,1.44,0,0,1,.46.19,1.35,1.35,0,0,1,.35.32,1.42,1.42,0,0,1,.23.44,1.7,1.7,0,0,1,.08.51,1.74,1.74,0,0,1-.14.69,1.43,1.43,0,0,1-.39.52,1.47,1.47,0,0,1-.57.33,2.35,2.35,0,0,1-1.42,0,1.47,1.47,0,0,1-.57-.33,1.55,1.55,0,0,1-.39-.52,1.74,1.74,0,0,1-.14-.69,1.7,1.7,0,0,1,.08-.51,1.67,1.67,0,0,1,.23-.44,1.35,1.35,0,0,1,.35-.32,1.44,1.44,0,0,1,.46-.19h0a1.18,1.18,0,0,1-.39-.19,1.33,1.33,0,0,1-.29-.29,1.41,1.41,0,0,1-.18-.37A1.46,1.46,0,0,1,150.49,34.23ZM151,36.9a1.18,1.18,0,0,0,.09.46,1.07,1.07,0,0,0,.25.35,1,1,0,0,0,.36.23,1.12,1.12,0,0,0,.88,0,1,1,0,0,0,.36-.23,1.07,1.07,0,0,0,.25-.35,1.18,1.18,0,0,0,.09-.46,1.14,1.14,0,0,0-.09-.46,1.13,1.13,0,0,0-.61-.58,1.12,1.12,0,0,0-.88,0,1.13,1.13,0,0,0-.61.58A1.14,1.14,0,0,0,151,36.9Zm.2-2.64a.88.88,0,0,0,.26.67,1,1,0,0,0,1.36,0,1,1,0,0,0,0-1.34,1,1,0,0,0-1.36,0A.88.88,0,0,0,151.17,34.26Z"/><path d="M154.64,35.68a7,7,0,0,1,.08-1,3.1,3.1,0,0,1,.29-1,2,2,0,0,1,.59-.71,1.6,1.6,0,0,1,1-.27,1.55,1.55,0,0,1,.95.27,1.94,1.94,0,0,1,.59.71,2.86,2.86,0,0,1,.3,1,7,7,0,0,1,.08,1,7.07,7.07,0,0,1-.08,1,2.88,2.88,0,0,1-.3.94,1.94,1.94,0,0,1-.59.71,1.55,1.55,0,0,1-.95.27,1.6,1.6,0,0,1-1-.27,2,2,0,0,1-.59-.71,3.13,3.13,0,0,1-.29-.94A7.07,7.07,0,0,1,154.64,35.68Zm.67,0c0,.13,0,.29,0,.46a4.88,4.88,0,0,0,.06.52,4.05,4.05,0,0,0,.12.5,1.66,1.66,0,0,0,.23.44,1.12,1.12,0,0,0,.34.31,1,1,0,0,0,1,0,1.12,1.12,0,0,0,.34-.31,1.4,1.4,0,0,0,.22-.44,2.83,2.83,0,0,0,.13-.5,4.88,4.88,0,0,0,.06-.52c0-.17,0-.33,0-.46s0-.3,0-.47a4.43,4.43,0,0,0-.06-.51,2.72,2.72,0,0,0-.13-.51,1.51,1.51,0,0,0-.22-.44,1.12,1.12,0,0,0-.34-.31,1,1,0,0,0-1,0,1.12,1.12,0,0,0-.34.31,1.83,1.83,0,0,0-.23.44,3.81,3.81,0,0,0-.12.51,4.43,4.43,0,0,0-.06.51C155.32,35.38,155.31,35.54,155.31,35.68Z"/><path d="M159.24,33.89a1.15,1.15,0,0,1,.33-.81,1,1,0,0,1,.37-.24,1,1,0,0,1,.44-.09,1.15,1.15,0,0,1,.82,2,1.15,1.15,0,0,1-.37.25,1.13,1.13,0,0,1-.45.09,1.15,1.15,0,0,1-.81-.34,1.15,1.15,0,0,1-.33-.81Zm.43,0a.79.79,0,0,0,.05.25,1.14,1.14,0,0,0,.15.23.62.62,0,0,0,.22.17.72.72,0,0,0,.29.06.68.68,0,0,0,.52-.23.79.79,0,0,0,.14-.23.65.65,0,0,0,0-.5.79.79,0,0,0-.14-.23.81.81,0,0,0-.23-.17.65.65,0,0,0-.29-.06.72.72,0,0,0-.29.06.76.76,0,0,0-.22.17,1.14,1.14,0,0,0-.15.23A.79.79,0,0,0,159.67,33.89Z"/><path d="M203.18,38.51h-.68v-4.8h0l-1,.85-.4-.48,1.52-1.24h.59Z"/><path d="M208.49,33.47h-2.31l0,1.53a1.08,1.08,0,0,1,.36-.11l.37,0a2,2,0,0,1,.74.14,1.61,1.61,0,0,1,.57.39,1.9,1.9,0,0,1,.37.59,2,2,0,0,1,.13.74,2,2,0,0,1-.15.78,1.74,1.74,0,0,1-.41.59,1.91,1.91,0,0,1-.61.38,2.2,2.2,0,0,1-.78.13,1.73,1.73,0,0,1-1-.28,2,2,0,0,1-.63-.75l.67-.25a1.31,1.31,0,0,0,.42.51,1.1,1.1,0,0,0,.64.2,1.28,1.28,0,0,0,.48-.09,1.26,1.26,0,0,0,.38-.27,1.15,1.15,0,0,0,.26-.41,1.53,1.53,0,0,0,.1-.54,1.38,1.38,0,0,0-.11-.55,1.08,1.08,0,0,0-.3-.4,1.26,1.26,0,0,0-.44-.25,1.67,1.67,0,0,0-.55-.08,1.84,1.84,0,0,0-.6.1,2.58,2.58,0,0,0-.56.25l.06-2.95h3Z"/><path d="M209.45,35.68a7,7,0,0,1,.08-1,3.1,3.1,0,0,1,.29-1,2,2,0,0,1,.59-.71,1.6,1.6,0,0,1,1-.27,1.55,1.55,0,0,1,.95.27,1.94,1.94,0,0,1,.59.71,2.86,2.86,0,0,1,.3,1,7,7,0,0,1,.08,1,7.07,7.07,0,0,1-.08,1,2.88,2.88,0,0,1-.3.94,1.94,1.94,0,0,1-.59.71,1.55,1.55,0,0,1-.95.27,1.6,1.6,0,0,1-1-.27,2,2,0,0,1-.59-.71,3.13,3.13,0,0,1-.29-.94A7.07,7.07,0,0,1,209.45,35.68Zm.67,0c0,.13,0,.29,0,.46a4.88,4.88,0,0,0,.06.52,4.05,4.05,0,0,0,.12.5,1.66,1.66,0,0,0,.23.44,1,1,0,0,0,.34.31.9.9,0,0,0,.48.12,1,1,0,0,0,.48-.12,1.24,1.24,0,0,0,.34-.31,1.4,1.4,0,0,0,.22-.44,2.83,2.83,0,0,0,.13-.5,4.88,4.88,0,0,0,.06-.52c0-.17,0-.33,0-.46s0-.3,0-.47a4.43,4.43,0,0,0-.06-.51,2.72,2.72,0,0,0-.13-.51,1.51,1.51,0,0,0-.22-.44,1.24,1.24,0,0,0-.34-.31,1,1,0,0,0-.48-.12.9.9,0,0,0-.48.12,1,1,0,0,0-.34.31,1.83,1.83,0,0,0-.23.44,3.81,3.81,0,0,0-.12.51,4.43,4.43,0,0,0-.06.51C210.13,35.38,210.12,35.54,210.12,35.68Z"/><path d="M214.05,33.89a1.15,1.15,0,0,1,.33-.81,1,1,0,0,1,.37-.24,1,1,0,0,1,.44-.09,1.13,1.13,0,0,1,.45.09,1,1,0,0,1,.36.24,1,1,0,0,1,.25.36,1.17,1.17,0,0,1,0,.9,1.23,1.23,0,0,1-.61.61,1.13,1.13,0,0,1-.45.09,1.15,1.15,0,0,1-.81-.34,1.15,1.15,0,0,1-.33-.81Zm.43,0a.79.79,0,0,0,.05.25,1.14,1.14,0,0,0,.15.23.62.62,0,0,0,.22.17.72.72,0,0,0,.29.06.68.68,0,0,0,.52-.23.79.79,0,0,0,.14-.23.65.65,0,0,0,0-.5.79.79,0,0,0-.14-.23.81.81,0,0,0-.23-.17.65.65,0,0,0-.29-.06.72.72,0,0,0-.29.06.76.76,0,0,0-.22.17,1.14,1.14,0,0,0-.15.23A.79.79,0,0,0,214.48,33.89Z"/><path d="M93.61,38.51h-.67v-4.8h0l-1,.85-.4-.48L93,32.84h.58Z"/><path d="M98.92,33.47H96.61l0,1.53a1,1,0,0,1,.35-.11l.37,0a1.91,1.91,0,0,1,.74.14,1.65,1.65,0,0,1,.58.39A1.71,1.71,0,0,1,99,36a2,2,0,0,1,.13.74,2,2,0,0,1-.15.78,1.71,1.71,0,0,1-.4.59,2,2,0,0,1-.62.38,2.15,2.15,0,0,1-.77.13,1.78,1.78,0,0,1-1.05-.28,1.85,1.85,0,0,1-.62-.75l.67-.25a1.16,1.16,0,0,0,.42.51,1.05,1.05,0,0,0,.63.2,1.28,1.28,0,0,0,.48-.09,1.23,1.23,0,0,0,.64-.68,1.33,1.33,0,0,0,.1-.54,1.38,1.38,0,0,0-.11-.55,1.18,1.18,0,0,0-.29-.4,1.41,1.41,0,0,0-.45-.25,1.63,1.63,0,0,0-.55-.08,1.78,1.78,0,0,0-.59.1,2.58,2.58,0,0,0-.56.25l0-2.95h3Z"/><path d="M99.88,35.68a7,7,0,0,1,.08-1,3.11,3.11,0,0,1,.3-1,1.94,1.94,0,0,1,.59-.71,1.55,1.55,0,0,1,1-.27,1.6,1.6,0,0,1,1,.27,2,2,0,0,1,.59.71,3.1,3.1,0,0,1,.29,1,5.77,5.77,0,0,1,.08,1,5.85,5.85,0,0,1-.08,1,3.13,3.13,0,0,1-.29.94,2,2,0,0,1-.59.71,1.6,1.6,0,0,1-1,.27,1.55,1.55,0,0,1-1-.27,1.94,1.94,0,0,1-.59-.71,3.14,3.14,0,0,1-.3-.94A7.07,7.07,0,0,1,99.88,35.68Zm.67,0c0,.13,0,.29,0,.46a4.88,4.88,0,0,0,.06.52,2.83,2.83,0,0,0,.13.5,1.4,1.4,0,0,0,.22.44,1.24,1.24,0,0,0,.34.31,1,1,0,0,0,.48.12.9.9,0,0,0,.48-.12,1,1,0,0,0,.34-.31,1.41,1.41,0,0,0,.23-.44,4.05,4.05,0,0,0,.12-.5,4.88,4.88,0,0,0,.06-.52c0-.17,0-.33,0-.46s0-.3,0-.47a4.43,4.43,0,0,0-.06-.51,3.81,3.81,0,0,0-.12-.51,1.53,1.53,0,0,0-.23-.44,1,1,0,0,0-.34-.31.9.9,0,0,0-.48-.12,1,1,0,0,0-.48.12,1.24,1.24,0,0,0-.34.31,1.51,1.51,0,0,0-.22.44,2.72,2.72,0,0,0-.13.51,4.43,4.43,0,0,0-.06.51C100.56,35.38,100.55,35.54,100.55,35.68Z"/><path d="M104.48,33.89a1.15,1.15,0,0,1,1.15-1.14,1,1,0,0,1,.44.09,1.12,1.12,0,0,1,.37.24,1.16,1.16,0,0,1,0,1.62,1.15,1.15,0,0,1-.37.25,1,1,0,0,1-.44.09,1.13,1.13,0,0,1-.45-.09,1.15,1.15,0,0,1-.37-.25,1.15,1.15,0,0,1-.33-.81Zm.43,0a.61.61,0,0,0,.06.25.79.79,0,0,0,.14.23.72.72,0,0,0,.22.17.73.73,0,0,0,.3.06.72.72,0,0,0,.29-.06.62.62,0,0,0,.22-.17,1.14,1.14,0,0,0,.15-.23.65.65,0,0,0,0-.5,1.14,1.14,0,0,0-.15-.23.76.76,0,0,0-.22-.17.72.72,0,0,0-.29-.06.73.73,0,0,0-.3.06.92.92,0,0,0-.22.17.79.79,0,0,0-.14.23A.61.61,0,0,0,104.91,33.89Z"/><path d="M248.75,192.45v0a1.35,1.35,0,0,1,.37-.13,2,2,0,0,1,.39,0,1.73,1.73,0,0,1,.69.13,1.42,1.42,0,0,1,.54.36,1.85,1.85,0,0,1,.36.57,2,2,0,0,1,.12.72,1.78,1.78,0,0,1-.14.74,1.74,1.74,0,0,1-.4.56,2,2,0,0,1-.6.35,2.36,2.36,0,0,1-.75.12,2.27,2.27,0,0,1-.75-.12,2,2,0,0,1-.6-.35,1.6,1.6,0,0,1-.4-.56,1.78,1.78,0,0,1-.15-.74,2.24,2.24,0,0,1,.15-.86,5.28,5.28,0,0,1,.39-.74l1.5-2.39h.79Zm.59.43a1.23,1.23,0,0,0-.87.32,1,1,0,0,0-.26.38,1.31,1.31,0,0,0-.1.5,1.35,1.35,0,0,0,.1.5,1.08,1.08,0,0,0,.26.37,1,1,0,0,0,.39.24,1.32,1.32,0,0,0,1,0,1,1,0,0,0,.39-.24,1.23,1.23,0,0,0,.26-.37,1.35,1.35,0,0,0,.09-.5,1.31,1.31,0,0,0-.09-.5,1.16,1.16,0,0,0-.26-.38,1.23,1.23,0,0,0-.87-.32Z"/><path d="M251.82,192.92a7.07,7.07,0,0,1,.08-1,3.13,3.13,0,0,1,.29-.94,2,2,0,0,1,.59-.71,1.6,1.6,0,0,1,1-.27,1.55,1.55,0,0,1,.95.27,1.94,1.94,0,0,1,.59.71,2.88,2.88,0,0,1,.3.94,7.07,7.07,0,0,1,.08,1,7,7,0,0,1-.08,1,2.86,2.86,0,0,1-.3,1,1.94,1.94,0,0,1-.59.71,1.55,1.55,0,0,1-.95.27,1.6,1.6,0,0,1-1-.27,2,2,0,0,1-.59-.71,3.1,3.1,0,0,1-.29-1A7,7,0,0,1,251.82,192.92Zm.67,0c0,.14,0,.3,0,.47a4.43,4.43,0,0,0,.06.51,3.81,3.81,0,0,0,.12.51,1.83,1.83,0,0,0,.23.44,1,1,0,0,0,.34.31.9.9,0,0,0,.48.12,1,1,0,0,0,.48-.12,1.24,1.24,0,0,0,.34-.31,1.51,1.51,0,0,0,.22-.44,2.72,2.72,0,0,0,.13-.51,4.43,4.43,0,0,0,.06-.51c0-.17,0-.33,0-.47s0-.29,0-.46a4.88,4.88,0,0,0-.06-.52,2.83,2.83,0,0,0-.13-.5,1.4,1.4,0,0,0-.22-.44,1.1,1.1,0,0,0-.34-.31,1,1,0,0,0-.48-.12.9.9,0,0,0-.48.12.92.92,0,0,0-.34.31,1.66,1.66,0,0,0-.23.44,4.05,4.05,0,0,0-.12.5,4.88,4.88,0,0,0-.06.52C252.5,192.63,252.49,192.79,252.49,192.92Z"/><path d="M256.42,191.14a1.15,1.15,0,0,1,.33-.81,1.05,1.05,0,0,1,.37-.25,1.23,1.23,0,0,1,.44-.08,1.33,1.33,0,0,1,.45.08,1.15,1.15,0,0,1,.37.25,1.16,1.16,0,0,1,0,1.62,1.15,1.15,0,0,1-.37.25,1.33,1.33,0,0,1-.45.08,1.23,1.23,0,0,1-.44-.08,1.05,1.05,0,0,1-.37-.25,1.15,1.15,0,0,1-.33-.81Zm.43,0a.79.79,0,0,0,0,.25,1.14,1.14,0,0,0,.15.23.62.62,0,0,0,.22.17.72.72,0,0,0,.29.06.68.68,0,0,0,.52-.23.79.79,0,0,0,.14-.23.65.65,0,0,0,0-.5.79.79,0,0,0-.14-.23.68.68,0,0,0-.52-.23.72.72,0,0,0-.29.06.62.62,0,0,0-.22.17,1.14,1.14,0,0,0-.15.23A.79.79,0,0,0,256.85,191.14Z"/><path d="M250,81.22h-.67v-4.8h0l-1,.86-.4-.49,1.52-1.23H250Z"/><path d="M251.92,80.45l2.13-2.08c.13-.12.25-.24.35-.35a2.16,2.16,0,0,0,.25-.32,1.09,1.09,0,0,0,.15-.33,1.38,1.38,0,0,0,0-.37,1,1,0,0,0-.08-.4.84.84,0,0,0-.22-.3.78.78,0,0,0-.33-.19,1.05,1.05,0,0,0-.4-.07,1,1,0,0,0-.71.25,1.08,1.08,0,0,0-.36.65l-.73-.06a1.83,1.83,0,0,1,.21-.61,1.41,1.41,0,0,1,.39-.45,2,2,0,0,1,.53-.27,2.25,2.25,0,0,1,.64-.09,2.41,2.41,0,0,1,.67.1,1.92,1.92,0,0,1,.55.29,1.44,1.44,0,0,1,.51,1.15,2,2,0,0,1-.09.61,2,2,0,0,1-.25.5,3.47,3.47,0,0,1-.35.43l-.41.4-1.75,1.64v0h2.89v.62h-3.64Z"/><path d="M256.27,78.39a5.85,5.85,0,0,1,.08-1,3.19,3.19,0,0,1,.29-1,2,2,0,0,1,.59-.7,1.54,1.54,0,0,1,1-.28,1.51,1.51,0,0,1,.95.28,1.91,1.91,0,0,1,.59.7,3.2,3.2,0,0,1,.3,1,6.29,6.29,0,0,1,0,2,3.2,3.2,0,0,1-.3,1,1.91,1.91,0,0,1-.59.7,1.51,1.51,0,0,1-.95.28,1.54,1.54,0,0,1-1-.28,2,2,0,0,1-.59-.7,3.19,3.19,0,0,1-.29-1A5.85,5.85,0,0,1,256.27,78.39Zm.67,0a3.78,3.78,0,0,0,0,.46c0,.17,0,.35.05.52a4.77,4.77,0,0,0,.13.51,1.67,1.67,0,0,0,.23.44,1,1,0,0,0,.34.31,1,1,0,0,0,.48.11,1.06,1.06,0,0,0,.48-.11,1.24,1.24,0,0,0,.34-.31,2,2,0,0,0,.22-.44,3.18,3.18,0,0,0,.13-.51,4.6,4.6,0,0,0,.06-.52c0-.17,0-.32,0-.46s0-.29,0-.46a4.35,4.35,0,0,0-.06-.52,3.18,3.18,0,0,0-.13-.51,2,2,0,0,0-.22-.44,1.24,1.24,0,0,0-.34-.31,1.06,1.06,0,0,0-.48-.11,1,1,0,0,0-.48.11,1,1,0,0,0-.34.31,1.67,1.67,0,0,0-.23.44,4.77,4.77,0,0,0-.13.51c0,.17,0,.34-.05.52A3.78,3.78,0,0,0,256.94,78.39Z"/><path d="M260.87,76.61a1.13,1.13,0,0,1,.09-.45,1,1,0,0,1,.24-.37,1.16,1.16,0,0,1,1.62,0,1.15,1.15,0,0,1,.25.37,1.13,1.13,0,0,1,.09.45,1,1,0,0,1-.09.44,1.15,1.15,0,0,1-.25.37,1.16,1.16,0,0,1-1.62,0,1,1,0,0,1-.24-.37A1,1,0,0,1,260.87,76.61Zm.43,0a.69.69,0,0,0,.05.24.75.75,0,0,0,.15.24.6.6,0,0,0,.22.16.64.64,0,0,0,.58,0,.63.63,0,0,0,.23-.16.72.72,0,0,0,.14-.24.52.52,0,0,0,.05-.24.56.56,0,0,0-.05-.25.59.59,0,0,0-.14-.23.66.66,0,0,0-.23-.17.64.64,0,0,0-.58,0,.62.62,0,0,0-.22.17.61.61,0,0,0-.15.23A.74.74,0,0,0,261.3,76.61Z"/><path d="M40.39,192.45v0a1.42,1.42,0,0,1,.38-.13,1.84,1.84,0,0,1,.39,0,1.72,1.72,0,0,1,.68.13,1.42,1.42,0,0,1,.54.36,1.85,1.85,0,0,1,.36.57,2,2,0,0,1,.13.72,1.78,1.78,0,0,1-.15.74,1.6,1.6,0,0,1-.4.56,2,2,0,0,1-.6.35,2.4,2.4,0,0,1-1.5,0,2,2,0,0,1-.6-.35,1.6,1.6,0,0,1-.4-.56,1.78,1.78,0,0,1-.15-.74,2.24,2.24,0,0,1,.16-.86,5.19,5.19,0,0,1,.38-.74l1.5-2.39h.79Zm.59.43a1.23,1.23,0,0,0-.87.32,1.16,1.16,0,0,0-.26.38,1.31,1.31,0,0,0-.09.5,1.35,1.35,0,0,0,.09.5,1.23,1.23,0,0,0,.26.37,1,1,0,0,0,.39.24,1.32,1.32,0,0,0,1,0,1,1,0,0,0,.39-.24,1.23,1.23,0,0,0,.26-.37,1.35,1.35,0,0,0,.1-.5,1.31,1.31,0,0,0-.1-.5,1.16,1.16,0,0,0-.26-.38,1.23,1.23,0,0,0-.87-.32Z"/><path d="M43.46,192.92a7.07,7.07,0,0,1,.08-1,2.88,2.88,0,0,1,.3-.94,1.94,1.94,0,0,1,.59-.71,1.55,1.55,0,0,1,1-.27,1.6,1.6,0,0,1,1,.27,2,2,0,0,1,.59.71,3.13,3.13,0,0,1,.29.94,7.07,7.07,0,0,1,.08,1,7,7,0,0,1-.08,1,3.1,3.1,0,0,1-.29,1,2,2,0,0,1-.59.71,1.6,1.6,0,0,1-1,.27,1.55,1.55,0,0,1-1-.27,1.94,1.94,0,0,1-.59-.71,2.86,2.86,0,0,1-.3-1A7,7,0,0,1,43.46,192.92Zm.67,0c0,.14,0,.3,0,.47a4.43,4.43,0,0,0,.06.51,2.72,2.72,0,0,0,.13.51,1.51,1.51,0,0,0,.22.44,1.12,1.12,0,0,0,.34.31,1,1,0,0,0,1,0,1.12,1.12,0,0,0,.34-.31,1.83,1.83,0,0,0,.23-.44,3.81,3.81,0,0,0,.12-.51,4.43,4.43,0,0,0,.06-.51c0-.17,0-.33,0-.47s0-.29,0-.46a4.88,4.88,0,0,0-.06-.52,4.05,4.05,0,0,0-.12-.5,1.66,1.66,0,0,0-.23-.44,1,1,0,0,0-.34-.31,1,1,0,0,0-1,0,1,1,0,0,0-.34.31,1.4,1.4,0,0,0-.22.44,2.83,2.83,0,0,0-.13.5,4.88,4.88,0,0,0-.06.52C44.14,192.63,44.13,192.79,44.13,192.92Z"/><path d="M48.06,191.14a1.15,1.15,0,0,1,.33-.81,1.15,1.15,0,0,1,.37-.25,1.33,1.33,0,0,1,.45-.08,1.27,1.27,0,0,1,.44.08,1.15,1.15,0,0,1,.37.25A1.16,1.16,0,0,1,50,192a1.15,1.15,0,0,1-.37.25,1.27,1.27,0,0,1-.44.08,1.33,1.33,0,0,1-.45-.08,1.15,1.15,0,0,1-.37-.25,1.15,1.15,0,0,1-.33-.81Zm.43,0a.61.61,0,0,0,.06.25.79.79,0,0,0,.14.23.72.72,0,0,0,.22.17.73.73,0,0,0,.3.06.72.72,0,0,0,.29-.06.62.62,0,0,0,.22-.17,1.14,1.14,0,0,0,.15-.23.65.65,0,0,0,0-.5,1.14,1.14,0,0,0-.15-.23.62.62,0,0,0-.22-.17.72.72,0,0,0-.29-.06.73.73,0,0,0-.3.06.72.72,0,0,0-.22.17.79.79,0,0,0-.14.23A.61.61,0,0,0,48.49,191.14Z"/><path d="M39.15,81.22h-.67v-4.8h0l-1,.86-.4-.49,1.52-1.23h.58Z"/><path d="M41.07,80.45l2.14-2.08c.13-.12.25-.24.35-.35a2.16,2.16,0,0,0,.25-.32,1.09,1.09,0,0,0,.15-.33A1.38,1.38,0,0,0,44,77a1,1,0,0,0-.08-.4.84.84,0,0,0-.22-.3.78.78,0,0,0-.33-.19A1.05,1.05,0,0,0,43,76a1,1,0,0,0-.72.25,1.19,1.19,0,0,0-.36.65l-.72-.06a1.47,1.47,0,0,1,.21-.61,1.41,1.41,0,0,1,.39-.45,2,2,0,0,1,.53-.27,2.2,2.2,0,0,1,.64-.09,2.41,2.41,0,0,1,.67.1,2.06,2.06,0,0,1,.55.29,1.47,1.47,0,0,1,.37.48,1.6,1.6,0,0,1,.14.67,2,2,0,0,1-.09.61,2.34,2.34,0,0,1-.25.5,3.47,3.47,0,0,1-.35.43l-.41.4-1.75,1.64v0h2.89v.62H41.07Z"/><path d="M45.43,78.39a7,7,0,0,1,.07-1,3.52,3.52,0,0,1,.3-1,2,2,0,0,1,.59-.7,1.77,1.77,0,0,1,1.91,0,1.91,1.91,0,0,1,.59.7,3.52,3.52,0,0,1,.3,1,6.29,6.29,0,0,1,0,2,3.52,3.52,0,0,1-.3,1,1.91,1.91,0,0,1-.59.7,1.77,1.77,0,0,1-1.91,0,2,2,0,0,1-.59-.7,3.52,3.52,0,0,1-.3-1A7,7,0,0,1,45.43,78.39Zm.67,0c0,.14,0,.29,0,.46a4.6,4.6,0,0,0,.06.52,4.77,4.77,0,0,0,.13.51,2,2,0,0,0,.22.44,1.15,1.15,0,0,0,.35.31,1,1,0,0,0,.48.11,1.06,1.06,0,0,0,.48-.11,1.24,1.24,0,0,0,.34-.31,2,2,0,0,0,.22-.44,3.18,3.18,0,0,0,.13-.51,4.6,4.6,0,0,0,.06-.52c0-.17,0-.32,0-.46s0-.29,0-.46a4.35,4.35,0,0,0-.06-.52,3.18,3.18,0,0,0-.13-.51,2,2,0,0,0-.22-.44,1.24,1.24,0,0,0-.34-.31,1.06,1.06,0,0,0-.48-.11,1,1,0,0,0-.48.11,1.15,1.15,0,0,0-.35.31,2,2,0,0,0-.22.44,4.77,4.77,0,0,0-.13.51,4.35,4.35,0,0,0-.06.52C46.1,78.1,46.1,78.25,46.1,78.39Z"/><path d="M50,76.61a1.12,1.12,0,0,1,.08-.45,1.15,1.15,0,0,1,.25-.37,1.16,1.16,0,0,1,1.62,0,1.15,1.15,0,0,1,.25.37,1.33,1.33,0,0,1,.08.45,1.23,1.23,0,0,1-.08.44,1.15,1.15,0,0,1-.25.37,1.16,1.16,0,0,1-1.62,0,1.15,1.15,0,0,1-.25-.37A1,1,0,0,1,50,76.61Zm.43,0a.52.52,0,0,0,0,.24.72.72,0,0,0,.14.24.63.63,0,0,0,.23.16.64.64,0,0,0,.58,0,.73.73,0,0,0,.23-.16,1,1,0,0,0,.14-.24.69.69,0,0,0,.05-.24.75.75,0,0,0-.19-.48.76.76,0,0,0-.23-.17.64.64,0,0,0-.58,0,.66.66,0,0,0-.23.17.59.59,0,0,0-.14.23A.56.56,0,0,0,50.46,76.61Z"/></g><g id="numeri_fondo_tabella" data-name="numeri fondo tabella"><path d="M131.83,251.42a1.17,1.17,0,0,0-.43-.35,1.19,1.19,0,0,0-.51-.11,1.35,1.35,0,0,0-.55.11,1.08,1.08,0,0,0-.4.3,1.32,1.32,0,0,0-.23.44,1.76,1.76,0,0,0,0,1.08,1.43,1.43,0,0,0,.26.45,1.31,1.31,0,0,0,.39.3,1.27,1.27,0,0,0,.52.1,1.09,1.09,0,0,0,1-.46l.47.44a1.69,1.69,0,0,1-.64.46,2.29,2.29,0,0,1-.78.14,2.22,2.22,0,0,1-.79-.14,1.75,1.75,0,0,1-1-1,2.27,2.27,0,0,1,0-1.57,1.86,1.86,0,0,1,.39-.63,2,2,0,0,1,.61-.41,2,2,0,0,1,.79-.15,2.09,2.09,0,0,1,.79.15,1.59,1.59,0,0,1,.65.45Z"/><path d="M136.21,253.56h0a1.43,1.43,0,0,1-.55.54,1.7,1.7,0,0,1-.89.22,1.8,1.8,0,0,1-.73-.15,1.78,1.78,0,0,1-.6-.41,1.81,1.81,0,0,1-.39-.62,2.06,2.06,0,0,1-.15-.79,2,2,0,0,1,.15-.78,1.88,1.88,0,0,1,.4-.63,1.81,1.81,0,0,1,.62-.41,2.07,2.07,0,0,1,.8-.15,1.72,1.72,0,0,1,.75.17,1.78,1.78,0,0,1,.59.47h0v-2.84h.62v6h-.62Zm0-1.21a1.63,1.63,0,0,0-.09-.55,1.34,1.34,0,0,0-.27-.44,1.37,1.37,0,0,0-.42-.29,1.35,1.35,0,0,0-.55-.11,1.42,1.42,0,0,0-.55.11,1.22,1.22,0,0,0-.41.29,1.34,1.34,0,0,0-.27.44,1.56,1.56,0,0,0,0,1.1,1.25,1.25,0,0,0,.27.44,1.19,1.19,0,0,0,1,.4,1.35,1.35,0,0,0,.55-.1,1.6,1.6,0,0,0,.42-.3,1.25,1.25,0,0,0,.27-.44A1.63,1.63,0,0,0,136.21,252.35Z"/><path d="M140.1,254.57l-.5-.2,2.4-6.15.51.2Z"/><path d="M147.64,254.22H147v-4.8h0l-1,.86-.4-.49,1.52-1.23h.59Z"/><path d="M149.46,251.39a7.07,7.07,0,0,1,.08-1,3.19,3.19,0,0,1,.29-.95,2,2,0,0,1,.59-.7,1.61,1.61,0,0,1,1-.28,1.55,1.55,0,0,1,1,.28,1.91,1.91,0,0,1,.59.7,2.94,2.94,0,0,1,.3.95,6.29,6.29,0,0,1,0,2,2.94,2.94,0,0,1-.3,1,1.91,1.91,0,0,1-.59.7,1.49,1.49,0,0,1-1,.28,1.54,1.54,0,0,1-1-.28,2,2,0,0,1-.59-.7,3.19,3.19,0,0,1-.29-1A7.07,7.07,0,0,1,149.46,251.39Zm.67,0c0,.14,0,.29,0,.47a4.43,4.43,0,0,0,.06.51,4.7,4.7,0,0,0,.12.51,2,2,0,0,0,.23.44,1.12,1.12,0,0,0,.34.31,1.1,1.1,0,0,0,1,0,1.12,1.12,0,0,0,.34-.31,1.65,1.65,0,0,0,.22-.44,3.18,3.18,0,0,0,.13-.51,4.43,4.43,0,0,0,.06-.51c0-.18,0-.33,0-.47s0-.29,0-.46a4.6,4.6,0,0,0-.06-.52,3.18,3.18,0,0,0-.13-.51,1.65,1.65,0,0,0-.22-.44,1.08,1.08,0,0,0-.34-.3,1,1,0,0,0-1,0,1.08,1.08,0,0,0-.34.3,2,2,0,0,0-.23.44,4.7,4.7,0,0,0-.12.51,4.6,4.6,0,0,0-.06.52C150.14,251.1,150.13,251.25,150.13,251.39Z"/><path d="M153.91,251.39a5.85,5.85,0,0,1,.08-1,3.19,3.19,0,0,1,.29-.95,2,2,0,0,1,.59-.7,1.61,1.61,0,0,1,1-.28,1.55,1.55,0,0,1,.95.28,1.91,1.91,0,0,1,.59.7,3.2,3.2,0,0,1,.3.95,6.29,6.29,0,0,1,0,2,3.2,3.2,0,0,1-.3,1,1.91,1.91,0,0,1-.59.7,1.49,1.49,0,0,1-.95.28,1.54,1.54,0,0,1-1-.28,2,2,0,0,1-.59-.7,3.19,3.19,0,0,1-.29-1A5.85,5.85,0,0,1,153.91,251.39Zm.67,0a4,4,0,0,0,0,.47,4.43,4.43,0,0,0,.06.51,3.14,3.14,0,0,0,.12.51,1.67,1.67,0,0,0,.23.44,1,1,0,0,0,.34.31.9.9,0,0,0,.48.11,1,1,0,0,0,.48-.11,1.24,1.24,0,0,0,.34-.31,1.65,1.65,0,0,0,.22-.44,3.18,3.18,0,0,0,.13-.51,4.43,4.43,0,0,0,.06-.51c0-.18,0-.33,0-.47s0-.29,0-.46a4.6,4.6,0,0,0-.06-.52,3.18,3.18,0,0,0-.13-.51,1.65,1.65,0,0,0-.22-.44,1.21,1.21,0,0,0-.34-.3,1,1,0,0,0-.48-.12.9.9,0,0,0-.48.12,1,1,0,0,0-.34.3,1.67,1.67,0,0,0-.23.44,3.14,3.14,0,0,0-.12.51,4.6,4.6,0,0,0-.06.52A3.78,3.78,0,0,0,154.58,251.39Z"/><path d="M158.31,251.39a5.85,5.85,0,0,1,.08-1,3.19,3.19,0,0,1,.29-.95,2,2,0,0,1,.59-.7,1.61,1.61,0,0,1,1-.28,1.55,1.55,0,0,1,1,.28,1.91,1.91,0,0,1,.59.7,3.2,3.2,0,0,1,.3.95,6.29,6.29,0,0,1,0,2,3.2,3.2,0,0,1-.3,1,1.91,1.91,0,0,1-.59.7,1.49,1.49,0,0,1-1,.28,1.54,1.54,0,0,1-1-.28,2,2,0,0,1-.59-.7,3.19,3.19,0,0,1-.29-1A5.85,5.85,0,0,1,158.31,251.39Zm.67,0c0,.14,0,.29,0,.47a4.43,4.43,0,0,0,.06.51,3.14,3.14,0,0,0,.12.51,1.67,1.67,0,0,0,.23.44,1,1,0,0,0,.34.31.9.9,0,0,0,.48.11,1,1,0,0,0,.48-.11,1.24,1.24,0,0,0,.34-.31,1.65,1.65,0,0,0,.22-.44,3.18,3.18,0,0,0,.13-.51,4.43,4.43,0,0,0,.06-.51c0-.18,0-.33,0-.47s0-.29,0-.46a4.6,4.6,0,0,0-.06-.52,3.18,3.18,0,0,0-.13-.51,1.65,1.65,0,0,0-.22-.44,1.21,1.21,0,0,0-.34-.3,1,1,0,0,0-.48-.12.9.9,0,0,0-.48.12,1,1,0,0,0-.34.3,1.67,1.67,0,0,0-.23.44,3.14,3.14,0,0,0-.12.51,4.6,4.6,0,0,0-.06.52C159,251.1,159,251.25,159,251.39Z"/><path d="M165.32,248.18H166v6h-.63Z"/><path d="M167.19,251.37c0-.17,0-.33,0-.48s0-.29,0-.41h.59c0,.1,0,.2,0,.3v.32h0a.91.91,0,0,1,.18-.27,1.64,1.64,0,0,1,.28-.23,1.5,1.5,0,0,1,.36-.16,1.44,1.44,0,0,1,.43-.06,1.52,1.52,0,0,1,.51.08,1.36,1.36,0,0,1,.34.18.93.93,0,0,1,.21.24,1.64,1.64,0,0,1,.12.22,1.78,1.78,0,0,1,.48-.53,1.27,1.27,0,0,1,.71-.19,1.88,1.88,0,0,1,.67.11,1.1,1.1,0,0,1,.44.31,1.37,1.37,0,0,1,.24.5,2.59,2.59,0,0,1,.07.65v2.27h-.62V252a2.33,2.33,0,0,0,0-.37,1,1,0,0,0-.15-.33.71.71,0,0,0-.28-.23,1,1,0,0,0-.45-.09,1,1,0,0,0-.37.08,1,1,0,0,0-.31.22,1.13,1.13,0,0,0-.21.35,1.33,1.33,0,0,0-.07.45v2.16h-.63V252.1a1.62,1.62,0,0,0-.17-.88A.6.6,0,0,0,169,251a1.18,1.18,0,0,0-.52.1.88.88,0,0,0-.36.3,1.14,1.14,0,0,0-.21.46,2.1,2.1,0,0,0-.07.58v1.82h-.62Z"/><line class="cls-1" x1="38.21" y1="253" x2="46.2" y2="253"/><path d="M235.17,251a1.66,1.66,0,0,0-.63-.52,1.93,1.93,0,0,0-.79-.17,2.13,2.13,0,0,0-.87.19,2.16,2.16,0,0,0-.68.52,2.58,2.58,0,0,0-.45.75,2.69,2.69,0,0,0-.16.89,2.79,2.79,0,0,0,.16.93,2.41,2.41,0,0,0,.45.74,2,2,0,0,0,.68.5,1.92,1.92,0,0,0,.87.19,2,2,0,0,0,1.64-.8l.51.43a2.38,2.38,0,0,1-.93.75,3,3,0,0,1-1.22.24,2.85,2.85,0,0,1-1.13-.22,2.82,2.82,0,0,1-.92-.62,3,3,0,0,1-.61-.94,3.33,3.33,0,0,1-.22-1.2,3.19,3.19,0,0,1,.21-1.16,2.9,2.9,0,0,1,.6-1,3.08,3.08,0,0,1,.91-.63,3,3,0,0,1,2.27,0,2,2,0,0,1,.89.68Z"/><path d="M239,253.1l0,0a1.35,1.35,0,0,1-.37.13,2.87,2.87,0,0,1-.39,0,1.68,1.68,0,0,1-.68-.13,1.5,1.5,0,0,1-.55-.36,1.92,1.92,0,0,1-.36-.56,2.11,2.11,0,0,1-.12-.73,1.75,1.75,0,0,1,.14-.74,1.63,1.63,0,0,1,.4-.56,1.79,1.79,0,0,1,.6-.35,2.36,2.36,0,0,1,.75-.12,2.27,2.27,0,0,1,.75.12,1.94,1.94,0,0,1,.61.35,1.49,1.49,0,0,1,.39.56,1.75,1.75,0,0,1,.15.74,2.19,2.19,0,0,1,0,.46c0,.14-.07.27-.11.4a2.53,2.53,0,0,1-.18.37,3.35,3.35,0,0,1-.21.36l-1.5,2.4h-.79Zm-.6-.43a1.51,1.51,0,0,0,.48-.08,1.28,1.28,0,0,0,.39-.24,1.12,1.12,0,0,0,.26-.38,1.27,1.27,0,0,0,.1-.5,1.26,1.26,0,0,0-.1-.49,1,1,0,0,0-.26-.38,1,1,0,0,0-.39-.24,1.33,1.33,0,0,0-1,0,.88.88,0,0,0-.38.24,1.19,1.19,0,0,0-.27.38,1.26,1.26,0,0,0-.09.49,1.28,1.28,0,0,0,.09.5,1.31,1.31,0,0,0,.27.38,1.12,1.12,0,0,0,.38.24A1.51,1.51,0,0,0,238.35,252.67Z"/><path d="M240.88,252.62a7.07,7.07,0,0,1,.08-1,2.88,2.88,0,0,1,.3-.94,2,2,0,0,1,.58-.71,1.84,1.84,0,0,1,1.92,0,2,2,0,0,1,.58.71,2.88,2.88,0,0,1,.3.94,7.07,7.07,0,0,1,.08,1,7,7,0,0,1-.08,1,2.86,2.86,0,0,1-.3.95,2,2,0,0,1-.58.71,1.84,1.84,0,0,1-1.92,0,2,2,0,0,1-.58-.71,2.86,2.86,0,0,1-.3-.95A7,7,0,0,1,240.88,252.62Zm.67,0c0,.14,0,.3,0,.47a4.43,4.43,0,0,0,.06.51,2.72,2.72,0,0,0,.13.51,1.51,1.51,0,0,0,.22.44,1.12,1.12,0,0,0,.34.31,1,1,0,0,0,1,0,1.12,1.12,0,0,0,.34-.31,1.51,1.51,0,0,0,.22-.44,2.72,2.72,0,0,0,.13-.51,4.43,4.43,0,0,0,.06-.51c0-.17,0-.33,0-.47s0-.29,0-.46a4.88,4.88,0,0,0-.06-.52,2.83,2.83,0,0,0-.13-.5,1.4,1.4,0,0,0-.22-.44,1.12,1.12,0,0,0-.34-.31,1,1,0,0,0-1,0,1.12,1.12,0,0,0-.34.31,1.4,1.4,0,0,0-.22.44,2.83,2.83,0,0,0-.13.5,4.88,4.88,0,0,0-.06.52C241.56,252.33,241.55,252.49,241.55,252.62Z"/><path d="M247.78,255.8l-.51-.2,2.41-6.14.5.19Z"/><path d="M257.1,251a1.66,1.66,0,0,0-.63-.52,1.92,1.92,0,0,0-.78-.17,2.06,2.06,0,0,0-.87.19,2.16,2.16,0,0,0-.68.52,2.21,2.21,0,0,0-.45.75,2.46,2.46,0,0,0-.16.89,2.56,2.56,0,0,0,.16.93,2.2,2.2,0,0,0,.44.74,2.1,2.1,0,0,0,.68.5,2,2,0,0,0,.88.19,2,2,0,0,0,.93-.21,2,2,0,0,0,.71-.59l.5.43a2.29,2.29,0,0,1-.92.75,3,3,0,0,1-1.22.24,2.8,2.8,0,0,1-2.05-.84,2.82,2.82,0,0,1-.61-.94,3.13,3.13,0,0,1-.22-1.2,3.19,3.19,0,0,1,.21-1.16,2.75,2.75,0,0,1,.6-1,3,3,0,0,1,.91-.63,2.93,2.93,0,0,1,1.16-.23,3,3,0,0,1,1.11.21,2,2,0,0,1,.89.68Z"/><path d="M258.46,254.69l2.14-2.08.35-.36a1.75,1.75,0,0,0,.25-.32,1,1,0,0,0,.15-.32,1.46,1.46,0,0,0,0-.38,1,1,0,0,0-.08-.4.93.93,0,0,0-.22-.3,1.13,1.13,0,0,0-.73-.26,1,1,0,0,0-.71.25,1.11,1.11,0,0,0-.36.66l-.73-.07a1.91,1.91,0,0,1,.21-.61,1.28,1.28,0,0,1,.39-.44,1.77,1.77,0,0,1,.53-.27,2.25,2.25,0,0,1,.64-.09,2.09,2.09,0,0,1,.67.1,1.53,1.53,0,0,1,.55.29,1.47,1.47,0,0,1,.37.48,1.39,1.39,0,0,1,.14.66,1.91,1.91,0,0,1-.09.61,1.8,1.8,0,0,1-.25.5,2.86,2.86,0,0,1-.35.43l-.41.41-1.75,1.64h2.89v.63h-3.65Z"/><path d="M266.35,250.42l-2.26,5h-.76l2.3-5H262.9v-.63h3.45Z"/><path d="M267.26,252.62a7.07,7.07,0,0,1,.08-1,3.45,3.45,0,0,1,.3-.94,2,2,0,0,1,.59-.71,1.82,1.82,0,0,1,1.91,0,2,2,0,0,1,.59.71,3.45,3.45,0,0,1,.3.94,7,7,0,0,1,.07,1,6.92,6.92,0,0,1-.07,1,3.41,3.41,0,0,1-.3.95,2,2,0,0,1-.59.71,1.82,1.82,0,0,1-1.91,0,2,2,0,0,1-.59-.71,3.41,3.41,0,0,1-.3-.95A7,7,0,0,1,267.26,252.62Zm.68,0c0,.14,0,.3,0,.47a4.43,4.43,0,0,0,.06.51,2.72,2.72,0,0,0,.13.51,1.53,1.53,0,0,0,.23.44,1,1,0,0,0,.34.31.89.89,0,0,0,.47.12,1,1,0,0,0,.49-.12,1.08,1.08,0,0,0,.33-.31,1.53,1.53,0,0,0,.23-.44,2.72,2.72,0,0,0,.13-.51,4.43,4.43,0,0,0,.06-.51c0-.17,0-.33,0-.47s0-.29,0-.46a4.88,4.88,0,0,0-.06-.52,2.83,2.83,0,0,0-.13-.5,1.41,1.41,0,0,0-.23-.44,1.08,1.08,0,0,0-.33-.31,1,1,0,0,0-.49-.12.89.89,0,0,0-.47.12,1,1,0,0,0-.34.31,1.41,1.41,0,0,0-.23.44,2.83,2.83,0,0,0-.13.5,4.88,4.88,0,0,0-.06.52C267.94,252.33,267.94,252.49,267.94,252.62Z"/><path d="M52.87,251a1.55,1.55,0,0,0-.63-.51,1.82,1.82,0,0,0-.79-.18,2,2,0,0,0-.87.2,2.13,2.13,0,0,0-.68.51,2.58,2.58,0,0,0-.45.75,2.67,2.67,0,0,0,0,1.82,2.29,2.29,0,0,0,.45.74,1.88,1.88,0,0,0,.68.5,1.92,1.92,0,0,0,.87.19,2,2,0,0,0,.93-.21,2.07,2.07,0,0,0,.71-.58l.51.42a2.38,2.38,0,0,1-.93.75,3,3,0,0,1-1.22.24,2.85,2.85,0,0,1-1.13-.22,2.82,2.82,0,0,1-.92-.62,3,3,0,0,1-.61-.94,3.27,3.27,0,0,1-.22-1.19,3.2,3.2,0,0,1,.21-1.17,3,3,0,0,1,.6-.95,3.08,3.08,0,0,1,.91-.63,3,3,0,0,1,2.27,0,2,2,0,0,1,.89.68Z"/><path d="M54.13,252.62a7,7,0,0,1,.08-1,3.11,3.11,0,0,1,.3-1,1.94,1.94,0,0,1,.59-.71,1.55,1.55,0,0,1,.95-.27,1.6,1.6,0,0,1,1,.27,2,2,0,0,1,.59.71,3.1,3.1,0,0,1,.29,1,5.77,5.77,0,0,1,.08,1,5.85,5.85,0,0,1-.08,1,3.13,3.13,0,0,1-.29.94,2,2,0,0,1-.59.71,1.6,1.6,0,0,1-1,.27,1.55,1.55,0,0,1-.95-.27,1.94,1.94,0,0,1-.59-.71,3.14,3.14,0,0,1-.3-.94A7.07,7.07,0,0,1,54.13,252.62Zm.67,0c0,.13,0,.29,0,.46a4.88,4.88,0,0,0,.06.52,2.83,2.83,0,0,0,.13.5,1.4,1.4,0,0,0,.22.44,1.1,1.1,0,0,0,.34.31,1,1,0,0,0,.48.12.9.9,0,0,0,.48-.12.92.92,0,0,0,.34-.31,1.41,1.41,0,0,0,.23-.44,2.8,2.8,0,0,0,.12-.5,4.88,4.88,0,0,0,.06-.52,3.86,3.86,0,0,0,0-.46,3.94,3.94,0,0,0,0-.47,4.43,4.43,0,0,0-.06-.51,2.71,2.71,0,0,0-.12-.51,1.53,1.53,0,0,0-.23-.44,1,1,0,0,0-.34-.31.9.9,0,0,0-.48-.12,1,1,0,0,0-.48.12,1.24,1.24,0,0,0-.34.31,1.51,1.51,0,0,0-.22.44,2.72,2.72,0,0,0-.13.51,4.43,4.43,0,0,0-.06.51C54.81,252.32,54.8,252.48,54.8,252.62Z"/><path d="M61,255.79l-.51-.2,2.41-6.14.51.19Z"/><path d="M70.36,251a1.52,1.52,0,0,0-.64-.51,1.78,1.78,0,0,0-.78-.18,2,2,0,0,0-.87.2,2.13,2.13,0,0,0-.68.51,2.58,2.58,0,0,0-.45.75,2.51,2.51,0,0,0-.16.9,2.54,2.54,0,0,0,.16.92,2.46,2.46,0,0,0,.44.74,2.09,2.09,0,0,0,1.56.69,2,2,0,0,0,.93-.21,2.07,2.07,0,0,0,.71-.58l.5.42a2.29,2.29,0,0,1-.92.75,3,3,0,0,1-1.22.24,2.93,2.93,0,0,1-1.14-.22,2.88,2.88,0,0,1-.91-.62,3,3,0,0,1-.61-.94,3.07,3.07,0,0,1-.22-1.19,3.2,3.2,0,0,1,.21-1.17,2.84,2.84,0,0,1,.6-.95,3,3,0,0,1,.91-.63,2.93,2.93,0,0,1,1.16-.23,3,3,0,0,1,1.11.21,2,2,0,0,1,.89.68Z"/><path d="M74.2,255.45h-.68v-4.8h0l-1,.85-.4-.48,1.52-1.24h.59Z"/><path d="M76.37,251.17a1.33,1.33,0,0,1,.13-.61,1.2,1.2,0,0,1,.34-.46,1.44,1.44,0,0,1,.51-.3,1.92,1.92,0,0,1,1.28,0,1.44,1.44,0,0,1,.51.3,1.32,1.32,0,0,1,.34.46,1.48,1.48,0,0,1,.12.61,1.44,1.44,0,0,1-.06.4,1.41,1.41,0,0,1-.18.37,1.18,1.18,0,0,1-.3.29,1,1,0,0,1-.38.19h0a1.44,1.44,0,0,1,.46.19,1.35,1.35,0,0,1,.35.32,1.67,1.67,0,0,1,.23.44,1.7,1.7,0,0,1,.08.51,1.74,1.74,0,0,1-.14.69,1.46,1.46,0,0,1-.39.52,1.47,1.47,0,0,1-.57.33,2.35,2.35,0,0,1-1.42,0,1.59,1.59,0,0,1-.58-.33,1.43,1.43,0,0,1-.38-.52,1.74,1.74,0,0,1-.14-.69,1.7,1.7,0,0,1,.08-.51,1.65,1.65,0,0,1,.22-.44,1.59,1.59,0,0,1,.36-.32,1.44,1.44,0,0,1,.46-.19h0a1.18,1.18,0,0,1-.39-.19,1.33,1.33,0,0,1-.29-.29,1.41,1.41,0,0,1-.18-.37A1.16,1.16,0,0,1,76.37,251.17Zm.48,2.67a1.14,1.14,0,0,0,.09.46,1.21,1.21,0,0,0,.24.35,1.16,1.16,0,0,0,.36.23A1.13,1.13,0,0,0,78,255a1,1,0,0,0,.44-.09,1,1,0,0,0,.36-.23,1.07,1.07,0,0,0,.25-.35,1.36,1.36,0,0,0,0-.92,1.07,1.07,0,0,0-.25-.35,1,1,0,0,0-.36-.23,1,1,0,0,0-.44-.09,1.13,1.13,0,0,0-.45.09,1.16,1.16,0,0,0-.36.23,1.21,1.21,0,0,0-.24.35A1.14,1.14,0,0,0,76.85,253.84ZM77,251.2a.92.92,0,0,0,.26.67.93.93,0,0,0,.69.27.9.9,0,0,0,.68-.27,1,1,0,0,0,0-1.34.9.9,0,0,0-.68-.27.93.93,0,0,0-.69.27A.92.92,0,0,0,77,251.2Z"/><path d="M80.52,252.62a5.77,5.77,0,0,1,.08-1,3.1,3.1,0,0,1,.29-1,2,2,0,0,1,.59-.71,1.6,1.6,0,0,1,1-.27,1.55,1.55,0,0,1,1,.27,1.94,1.94,0,0,1,.59.71,3.41,3.41,0,0,1,.3,1,7,7,0,0,1,.08,1,7.07,7.07,0,0,1-.08,1,3.45,3.45,0,0,1-.3.94,1.94,1.94,0,0,1-.59.71,1.55,1.55,0,0,1-1,.27,1.6,1.6,0,0,1-1-.27,2,2,0,0,1-.59-.71,3.13,3.13,0,0,1-.29-.94A5.85,5.85,0,0,1,80.52,252.62Zm.67,0a3.86,3.86,0,0,0,0,.46c0,.17,0,.34.05.52a4.07,4.07,0,0,0,.13.5,1.41,1.41,0,0,0,.23.44.92.92,0,0,0,.34.31.9.9,0,0,0,.48.12,1,1,0,0,0,.48-.12,1.1,1.1,0,0,0,.34-.31,1.65,1.65,0,0,0,.22-.44,2.83,2.83,0,0,0,.13-.5,4.88,4.88,0,0,0,.06-.52c0-.17,0-.33,0-.46s0-.3,0-.47a4.43,4.43,0,0,0-.06-.51,2.72,2.72,0,0,0-.13-.51,1.81,1.81,0,0,0-.22-.44,1.24,1.24,0,0,0-.34-.31,1,1,0,0,0-.48-.12.9.9,0,0,0-.48.12,1,1,0,0,0-.34.31,1.53,1.53,0,0,0-.23.44,3.8,3.8,0,0,0-.13.51c0,.17,0,.34-.05.51A3.94,3.94,0,0,0,81.19,252.62Z"/><line class="cls-2" x1="214.49" y1="253.42" x2="215.03" y2="253.42"/><line class="cls-2" x1="217.76" y1="253.42" x2="218.3" y2="253.42"/><line class="cls-2" x1="221.02" y1="253.42" x2="221.56" y2="253.42"/><line class="cls-2" x1="224.29" y1="253.42" x2="224.83" y2="253.42"/><line class="cls-2" x1="227.55" y1="253.42" x2="228.09" y2="253.42"/></g><g id="IC"><g id="IC_CW2_F31790"><path d="M54.2,14.42h3.51V15H54.87v1.87h2.64v.63H54.87v2.54H54.2Z"/><path d="M59.58,16.82h.21a2.22,2.22,0,0,0,.43,0,1.21,1.21,0,0,0,.42-.13.89.89,0,0,0,.31-.3,1,1,0,0,0,.12-.52.91.91,0,0,0-.26-.68,1,1,0,0,0-.7-.25,1.18,1.18,0,0,0-.63.16,1.06,1.06,0,0,0-.41.47l-.65-.25a1.43,1.43,0,0,1,.65-.72,2.07,2.07,0,0,1,1-.24,2,2,0,0,1,.64.1,1.39,1.39,0,0,1,.54.28,1.2,1.2,0,0,1,.37.46,1.41,1.41,0,0,1,.14.64,1.27,1.27,0,0,1-.27.8,1.36,1.36,0,0,1-.7.5h0a1.26,1.26,0,0,1,.48.18,1.56,1.56,0,0,1,.37.31,1.61,1.61,0,0,1,.23.43,1.7,1.7,0,0,1,.08.51,1.49,1.49,0,0,1-.56,1.22,1.71,1.71,0,0,1-.6.31,2.35,2.35,0,0,1-.71.11,2.25,2.25,0,0,1-1.13-.28,1.64,1.64,0,0,1-.7-.92l.68-.22a1.26,1.26,0,0,0,.41.65,1.42,1.42,0,0,0,1.18.11,1.1,1.1,0,0,0,.37-.23,1.3,1.3,0,0,0,.25-.35,1.13,1.13,0,0,0,.09-.45,1,1,0,0,0-.13-.53.92.92,0,0,0-.32-.33,1.7,1.7,0,0,0-.46-.18,2.31,2.31,0,0,0-.52-.06h-.21Z"/><path d="M65.27,20.08H64.6v-4.8h0l-1,.86-.4-.49,1.52-1.23h.58Z"/><path d="M70.68,15l-2.26,5h-.76L70,15H67.23v-.62h3.45Z"/><path d="M74.11,17.72l0,0a1.08,1.08,0,0,1-.37.13,1.84,1.84,0,0,1-.39,0,1.72,1.72,0,0,1-.68-.13,1.46,1.46,0,0,1-.55-.36,1.61,1.61,0,0,1-.35-.56,1.88,1.88,0,0,1-.13-.72,2,2,0,0,1,.14-.75,1.59,1.59,0,0,1,.4-.55,1.86,1.86,0,0,1,.61-.36,2.37,2.37,0,0,1,1.49,0,1.76,1.76,0,0,1,.61.36,1.59,1.59,0,0,1,.4.55,2,2,0,0,1,.14.75,2.15,2.15,0,0,1,0,.45,2.62,2.62,0,0,1-.11.4c-.05.13-.11.25-.17.37l-.21.37-1.51,2.39h-.78Zm-.59-.42a1.28,1.28,0,0,0,.48-.09,1,1,0,0,0,.38-.24,1.08,1.08,0,0,0,.26-.37,1.3,1.3,0,0,0,0-1,1,1,0,0,0-.26-.38A1.36,1.36,0,0,0,74,15a1.27,1.27,0,0,0-.48-.08A1.21,1.21,0,0,0,73,15a1.28,1.28,0,0,0-.39.24,1,1,0,0,0-.26.38,1.3,1.3,0,0,0,0,1,1.08,1.08,0,0,0,.26.37,1,1,0,0,0,.39.24A1.21,1.21,0,0,0,73.52,17.3Z"/><path d="M76,17.25a7,7,0,0,1,.08-1,3.52,3.52,0,0,1,.3-.95,1.83,1.83,0,0,1,.59-.7,1.51,1.51,0,0,1,.95-.28,1.54,1.54,0,0,1,1,.28,1.92,1.92,0,0,1,.59.7,3.19,3.19,0,0,1,.29.95,5.77,5.77,0,0,1,.08,1,5.85,5.85,0,0,1-.08,1,3.28,3.28,0,0,1-.29.95,2,2,0,0,1-.59.7,1.61,1.61,0,0,1-1,.28A1.57,1.57,0,0,1,77,19.9a1.91,1.91,0,0,1-.59-.7,3.64,3.64,0,0,1-.3-.95A7.07,7.07,0,0,1,76,17.25Zm.68,0c0,.14,0,.29,0,.46a4.88,4.88,0,0,0,.06.52,3.18,3.18,0,0,0,.13.51,2,2,0,0,0,.22.44,1.21,1.21,0,0,0,.34.3,1,1,0,0,0,.48.12.9.9,0,0,0,.48-.12,1,1,0,0,0,.34-.3,1.67,1.67,0,0,0,.23-.44,4.77,4.77,0,0,0,.13-.51l.06-.52c0-.17,0-.32,0-.46s0-.3,0-.47l-.06-.51a4.23,4.23,0,0,0-.13-.51,1.53,1.53,0,0,0-.23-.44,1,1,0,0,0-.34-.31A1,1,0,0,0,78,14.9a1.06,1.06,0,0,0-.48.11,1.24,1.24,0,0,0-.34.31,1.81,1.81,0,0,0-.22.44,2.93,2.93,0,0,0-.13.51,4.43,4.43,0,0,0-.06.51C76.72,17,76.72,17.11,76.72,17.25Z"/><path d="M80.19,20.68h4v.4h-4Z"/><path d="M84.59,19.31l2.13-2.08.36-.35a3.14,3.14,0,0,0,.25-.32,2.41,2.41,0,0,0,.15-.33,1.45,1.45,0,0,0,0-.37.84.84,0,0,0-.08-.4.73.73,0,0,0-.22-.3,1,1,0,0,0-.32-.2,1.35,1.35,0,0,0-.41-.06,1.05,1.05,0,0,0-.71.24,1.13,1.13,0,0,0-.36.66l-.73-.06a2,2,0,0,1,.21-.62,1.68,1.68,0,0,1,.4-.44,1.56,1.56,0,0,1,.53-.27,2.15,2.15,0,0,1,.64-.09,2.07,2.07,0,0,1,.66.1,1.7,1.7,0,0,1,.55.29,1.5,1.5,0,0,1,.38.48,1.57,1.57,0,0,1,.14.67,1.89,1.89,0,0,1-.1.6,1.93,1.93,0,0,1-.24.5,3.83,3.83,0,0,1-.36.44c-.13.13-.26.27-.41.4l-1.74,1.64v0h2.89v.62H84.59Z"/><path d="M88.94,17.25a7,7,0,0,1,.08-1,2.94,2.94,0,0,1,.3-.95,1.9,1.9,0,0,1,.58-.7,1.79,1.79,0,0,1,1.92,0,1.9,1.9,0,0,1,.58.7,2.94,2.94,0,0,1,.3.95,7,7,0,0,1,.08,1,7.07,7.07,0,0,1-.08,1,3,3,0,0,1-.3.95,2,2,0,0,1-.58.7,1.79,1.79,0,0,1-1.92,0,2,2,0,0,1-.58-.7,3,3,0,0,1-.3-.95A7.07,7.07,0,0,1,88.94,17.25Zm.67,0c0,.14,0,.29,0,.46a4.88,4.88,0,0,0,.06.52,3.18,3.18,0,0,0,.13.51,1.65,1.65,0,0,0,.22.44,1.08,1.08,0,0,0,.34.3,1,1,0,0,0,1,0,1.08,1.08,0,0,0,.34-.3,1.65,1.65,0,0,0,.22-.44,3.18,3.18,0,0,0,.13-.51,4.88,4.88,0,0,0,.06-.52c0-.17,0-.32,0-.46s0-.3,0-.47a4.43,4.43,0,0,0-.06-.51,2.93,2.93,0,0,0-.13-.51,1.51,1.51,0,0,0-.22-.44,1.12,1.12,0,0,0-.34-.31,1.1,1.1,0,0,0-1,0,1.12,1.12,0,0,0-.34.31,1.51,1.51,0,0,0-.22.44,2.93,2.93,0,0,0-.13.51,4.43,4.43,0,0,0-.06.51C89.62,17,89.61,17.11,89.61,17.25Z"/><path d="M96.88,15H94.56l0,1.53a1.08,1.08,0,0,1,.36-.11l.37,0a2,2,0,0,1,.74.14,1.92,1.92,0,0,1,.57.39,1.84,1.84,0,0,1,.37.6,2.17,2.17,0,0,1,.13.74,1.92,1.92,0,0,1-.15.77,1.78,1.78,0,0,1-.41.59,1.85,1.85,0,0,1-.62.38,2.11,2.11,0,0,1-.77.14,1.8,1.8,0,0,1-1-.28,1.88,1.88,0,0,1-.63-.76l.67-.25a1.31,1.31,0,0,0,.42.51,1.1,1.1,0,0,0,.64.2,1.19,1.19,0,0,0,.47-.09,1.05,1.05,0,0,0,.39-.27,1.31,1.31,0,0,0,.26-.41,1.51,1.51,0,0,0,.09-.53,1.4,1.4,0,0,0-.1-.56,1.23,1.23,0,0,0-.74-.65A2,2,0,0,0,95,17a1.78,1.78,0,0,0-.59.1,2.58,2.58,0,0,0-.56.25l.06-2.94h3Z"/><path d="M97.58,14.42h.74l1.29,4.7h0l1.39-4.7h.75l1.39,4.7h0l1.31-4.7h.71l-1.67,5.66h-.72l-1.4-4.8h0L100,20.08h-.73Z"/><path d="M108.11,14.42h.67v2.4h3v-2.4h.68v5.66h-.68V17.44h-3v2.64h-.67Z"/><path d="M113.94,14.42h.67v5h2.59v.62h-3.26Z"/><rect class="cls-3" x="54.5" y="42.61" width="189.86" height="189.86"/><circle class="cls-4" cx="149.43" cy="137.49" r="23.71"/><path d="M151.48,167.48l2.13-2.08q.21-.19.36-.36a3.14,3.14,0,0,0,.25-.32,1.33,1.33,0,0,0,.15-.32,1.53,1.53,0,0,0,0-.38.87.87,0,0,0-.08-.4.73.73,0,0,0-.22-.3.94.94,0,0,0-.32-.19,1.1,1.1,0,0,0-.41-.07,1,1,0,0,0-.71.25,1.08,1.08,0,0,0-.36.65l-.73-.06a1.91,1.91,0,0,1,.21-.61,1.58,1.58,0,0,1,.4-.45,1.75,1.75,0,0,1,.53-.26,1.91,1.91,0,0,1,.64-.1,2.39,2.39,0,0,1,.66.1,1.72,1.72,0,0,1,.55.3,1.31,1.31,0,0,1,.38.48,1.53,1.53,0,0,1,.14.66,1.7,1.7,0,0,1-.1.61,2.1,2.1,0,0,1-.24.5,4.82,4.82,0,0,1-.36.43,5.18,5.18,0,0,1-.41.4l-1.74,1.64v0h2.89v.62h-3.65Z"/><path d="M155.78,165.41a7.07,7.07,0,0,1,.08-1,3.3,3.3,0,0,1,.3-.95,1.91,1.91,0,0,1,.59-.7,1.55,1.55,0,0,1,.95-.28,1.61,1.61,0,0,1,1,.28,2,2,0,0,1,.59.7,3.28,3.28,0,0,1,.29.95,5.85,5.85,0,0,1,.08,1,5.77,5.77,0,0,1-.08,1,3.19,3.19,0,0,1-.29,1,1.92,1.92,0,0,1-.59.7,1.54,1.54,0,0,1-1,.28,1.49,1.49,0,0,1-.95-.28,1.83,1.83,0,0,1-.59-.7,3.2,3.2,0,0,1-.3-1A7,7,0,0,1,155.78,165.41Zm.67,0c0,.14,0,.3,0,.47a4.43,4.43,0,0,0,.06.51,2.93,2.93,0,0,0,.13.51,1.51,1.51,0,0,0,.22.44,1.24,1.24,0,0,0,.34.31,1,1,0,0,0,.48.11.9.9,0,0,0,.48-.11,1,1,0,0,0,.34-.31,1.53,1.53,0,0,0,.23-.44c.05-.17.09-.33.13-.51s0-.34.05-.51a3.94,3.94,0,0,0,0-.47,3.78,3.78,0,0,0,0-.46c0-.17,0-.34-.05-.52s-.08-.34-.13-.51a1.67,1.67,0,0,0-.23-.44,1,1,0,0,0-.34-.3.9.9,0,0,0-.48-.12,1,1,0,0,0-.48.12,1.21,1.21,0,0,0-.34.3,1.65,1.65,0,0,0-.22.44,3.18,3.18,0,0,0-.13.51,4.88,4.88,0,0,0-.06.52C156.46,165.12,156.45,165.27,156.45,165.41Z"/><circle class="cls-4" cx="149.43" cy="137.49" r="47.41"/><path d="M154.43,190h.82v.62h-.82V192h-.67v-1.3h-2.4v-.74l2.25-3.62h.82Zm-.67-3h0l-1.81,3h1.83Z"/><path d="M155.78,189.12a7,7,0,0,1,.08-1,3.2,3.2,0,0,1,.3-1,1.83,1.83,0,0,1,.59-.7,1.49,1.49,0,0,1,.95-.28,1.54,1.54,0,0,1,1,.28,1.92,1.92,0,0,1,.59.7,3.19,3.19,0,0,1,.29,1,5.77,5.77,0,0,1,.08,1,5.85,5.85,0,0,1-.08,1,3.28,3.28,0,0,1-.29.95,2,2,0,0,1-.59.7,1.61,1.61,0,0,1-1,.28,1.55,1.55,0,0,1-.95-.28,1.91,1.91,0,0,1-.59-.7,3.3,3.3,0,0,1-.3-.95A7.07,7.07,0,0,1,155.78,189.12Zm.67,0c0,.14,0,.29,0,.46a4.88,4.88,0,0,0,.06.52,3.18,3.18,0,0,0,.13.51,1.65,1.65,0,0,0,.22.44,1.21,1.21,0,0,0,.34.3,1,1,0,0,0,.48.12.9.9,0,0,0,.48-.12,1,1,0,0,0,.34-.3,1.67,1.67,0,0,0,.23-.44c.05-.17.09-.34.13-.51s0-.35.05-.52a3.78,3.78,0,0,0,0-.46,3.94,3.94,0,0,0,0-.47c0-.17,0-.34-.05-.51s-.08-.35-.13-.51a1.53,1.53,0,0,0-.23-.44,1,1,0,0,0-.34-.31.9.9,0,0,0-.48-.11,1,1,0,0,0-.48.11,1.24,1.24,0,0,0-.34.31,1.51,1.51,0,0,0-.22.44,2.72,2.72,0,0,0-.13.51,4.43,4.43,0,0,0-.06.51C156.46,188.82,156.45,189,156.45,189.12Z"/><circle class="cls-4" cx="149.43" cy="137.49" r="71.17"/><path d="M152.71,212.41h0a1.24,1.24,0,0,1,.37-.13,2.87,2.87,0,0,1,.39,0,1.91,1.91,0,0,1,.68.13,1.58,1.58,0,0,1,.54.37,1.54,1.54,0,0,1,.36.56,1.88,1.88,0,0,1,.13.72,1.72,1.72,0,0,1-.15.74,1.41,1.41,0,0,1-.4.56,1.79,1.79,0,0,1-.6.35,2.27,2.27,0,0,1-.75.13,2.36,2.36,0,0,1-.75-.13,1.79,1.79,0,0,1-.6-.35,1.63,1.63,0,0,1-.4-.56,1.72,1.72,0,0,1-.14-.74,2.31,2.31,0,0,1,.15-.86,5.1,5.1,0,0,1,.38-.73l1.51-2.39h.78Zm.59.42a1.51,1.51,0,0,0-.48.08,1.28,1.28,0,0,0-.39.24,1.5,1.5,0,0,0-.26.38,1.35,1.35,0,0,0-.09.5,1.31,1.31,0,0,0,.09.5,1.5,1.5,0,0,0,.26.38,1.28,1.28,0,0,0,.39.24,1.48,1.48,0,0,0,1,0,1.28,1.28,0,0,0,.39-.24,1.12,1.12,0,0,0,.26-.38,1.31,1.31,0,0,0,.1-.5,1.35,1.35,0,0,0-.1-.5,1.12,1.12,0,0,0-.26-.38,1.28,1.28,0,0,0-.39-.24A1.51,1.51,0,0,0,153.3,212.83Z"/><path d="M155.78,212.88a7,7,0,0,1,.08-1,3.2,3.2,0,0,1,.3-.95,1.83,1.83,0,0,1,.59-.7,1.49,1.49,0,0,1,.95-.28,1.54,1.54,0,0,1,1,.28,1.92,1.92,0,0,1,.59.7,3.19,3.19,0,0,1,.29.95,5.77,5.77,0,0,1,.08,1,5.85,5.85,0,0,1-.08,1,3.28,3.28,0,0,1-.29,1,2,2,0,0,1-.59.7,1.61,1.61,0,0,1-1,.28,1.55,1.55,0,0,1-.95-.28,1.91,1.91,0,0,1-.59-.7,3.3,3.3,0,0,1-.3-1A7.07,7.07,0,0,1,155.78,212.88Zm.67,0c0,.14,0,.29,0,.46a4.88,4.88,0,0,0,.06.52,3.18,3.18,0,0,0,.13.51,1.65,1.65,0,0,0,.22.44,1.21,1.21,0,0,0,.34.3,1,1,0,0,0,.48.12.9.9,0,0,0,.48-.12,1,1,0,0,0,.34-.3,1.67,1.67,0,0,0,.23-.44c.05-.17.09-.34.13-.51s0-.35.05-.52a3.78,3.78,0,0,0,0-.46,3.94,3.94,0,0,0,0-.47c0-.17,0-.34-.05-.51s-.08-.34-.13-.51a1.53,1.53,0,0,0-.23-.44,1,1,0,0,0-.34-.31.9.9,0,0,0-.48-.11,1,1,0,0,0-.48.11,1.24,1.24,0,0,0-.34.31,1.51,1.51,0,0,0-.22.44,2.93,2.93,0,0,0-.13.51,4.43,4.43,0,0,0-.06.51C156.46,212.58,156.45,212.74,156.45,212.88Z"/><circle class="cls-4" cx="149.43" cy="137.49" r="94.93"/><line class="cls-4" x1="54.5" y1="137.54" x2="244.42" y2="137.54"/><line class="cls-4" x1="149.43" y1="232.47" x2="149.43" y2="42.56"/><line class="cls-4" x1="94.67" y1="42.56" x2="204.24" y2="232.47"/><line class="cls-4" x1="94.67" y1="232.47" x2="204.24" y2="42.56"/><line class="cls-4" x1="54.5" y1="82.73" x2="244.42" y2="192.3"/><line class="cls-4" x1="54.5" y1="192.3" x2="244.42" y2="82.73"/><line class="cls-1" x1="149.43" y1="215.79" x2="150.78" y2="215.68"/><line class="cls-1" x1="150.78" y1="215.68" x2="152.18" y2="215.68"/><line class="cls-1" x1="152.18" y1="215.68" x2="153.53" y2="215.68"/><line class="cls-1" x1="153.53" y1="215.68" x2="154.88" y2="215.63"/><line class="cls-1" x1="154.88" y1="215.63" x2="156.23" y2="215.52"/><line class="cls-1" x1="156.23" y1="215.52" x2="157.64" y2="215.41"/><line class="cls-1" x1="157.64" y1="215.41" x2="158.99" y2="215.41"/><line class="cls-1" x1="158.99" y1="215.41" x2="160.34" y2="215.19"/><line class="cls-1" x1="160.34" y1="215.19" x2="161.74" y2="215.14"/><line class="cls-1" x1="161.74" y1="215.14" x2="163.09" y2="214.92"/><line class="cls-1" x1="163.09" y1="214.92" x2="164.44" y2="214.71"/><line class="cls-1" x1="164.44" y1="214.71" x2="165.79" y2="214.44"/><line class="cls-1" x1="165.79" y1="214.44" x2="167.14" y2="214.22"/><line class="cls-1" x1="167.14" y1="214.22" x2="168.49" y2="214.06"/><line class="cls-1" x1="168.49" y1="214.06" x2="169.84" y2="213.74"/><line class="cls-1" x1="169.84" y1="213.74" x2="171.19" y2="213.41"/><line class="cls-1" x1="171.19" y1="213.41" x2="172.54" y2="213.09"/><line class="cls-1" x1="172.54" y1="213.09" x2="173.89" y2="212.76"/><line class="cls-1" x1="173.89" y1="212.76" x2="175.24" y2="212.44"/><line class="cls-1" x1="175.24" y1="212.44" x2="176.54" y2="212.01"/><line class="cls-1" x1="176.54" y1="212.01" x2="177.89" y2="211.58"/><line class="cls-1" x1="177.89" y1="211.58" x2="179.18" y2="211.14"/><line class="cls-1" x1="179.18" y1="211.14" x2="180.48" y2="210.71"/><line class="cls-1" x1="180.48" y1="210.71" x2="181.83" y2="210.28"/><line class="cls-1" x1="181.83" y1="210.28" x2="183.13" y2="209.74"/><line class="cls-1" x1="183.13" y1="209.74" x2="184.37" y2="209.15"/><line class="cls-1" x1="184.37" y1="209.15" x2="185.72" y2="208.66"/><line class="cls-1" x1="185.72" y1="208.66" x2="186.96" y2="208.07"/><line class="cls-1" x1="186.96" y1="208.07" x2="188.26" y2="207.53"/><line class="cls-1" x1="188.26" y1="207.53" x2="189.5" y2="206.88"/><line class="cls-1" x1="189.5" y1="206.88" x2="190.74" y2="206.18"/><line class="cls-1" x1="190.74" y1="206.18" x2="191.98" y2="205.58"/><line class="cls-1" x1="191.98" y1="205.58" x2="193.17" y2="204.83"/><line class="cls-1" x1="193.17" y1="204.83" x2="194.47" y2="204.23"/><line class="cls-1" x1="194.47" y1="204.23" x2="195.65" y2="203.48"/><line class="cls-1" x1="195.65" y1="203.48" x2="196.84" y2="202.72"/><line class="cls-1" x1="196.84" y1="202.72" x2="198.08" y2="202.02"/><line class="cls-1" x1="198.08" y1="202.02" x2="199.22" y2="201.21"/><line class="cls-1" x1="199.22" y1="201.21" x2="200.41" y2="200.45"/><line class="cls-1" x1="200.41" y1="200.45" x2="201.54" y2="199.59"/><line class="cls-1" x1="201.54" y1="199.59" x2="202.73" y2="198.78"/><line class="cls-1" x1="202.73" y1="198.78" x2="203.81" y2="197.91"/><line class="cls-1" x1="203.81" y1="197.91" x2="204.94" y2="197.05"/><line class="cls-1" x1="204.94" y1="197.05" x2="206.13" y2="196.19"/><line class="cls-1" x1="206.13" y1="196.19" x2="207.26" y2="195.32"/><line class="cls-1" x1="207.26" y1="195.32" x2="208.24" y2="194.3"/><line class="cls-1" x1="208.24" y1="194.3" x2="209.37" y2="193.38"/><line class="cls-1" x1="209.37" y1="193.38" x2="210.4" y2="192.35"/><line class="cls-1" x1="210.4" y1="192.35" x2="211.48" y2="191.43"/><line class="cls-1" x1="211.48" y1="191.43" x2="212.45" y2="190.41"/><line class="cls-1" x1="212.45" y1="190.41" x2="213.53" y2="189.38"/><line class="cls-1" x1="213.53" y1="189.38" x2="214.5" y2="188.3"/><line class="cls-1" x1="214.5" y1="188.3" x2="215.47" y2="187.22"/><line class="cls-1" x1="215.47" y1="187.22" x2="216.34" y2="186.09"/><line class="cls-1" x1="216.34" y1="186.09" x2="217.31" y2="185.01"/><line class="cls-1" x1="217.31" y1="185.01" x2="218.23" y2="183.87"/><line class="cls-1" x1="218.23" y1="183.87" x2="219.04" y2="182.69"/><line class="cls-1" x1="219.04" y1="182.69" x2="219.95" y2="181.55"/><line class="cls-1" x1="219.95" y1="181.55" x2="220.76" y2="180.36"/><line class="cls-1" x1="220.76" y1="180.36" x2="221.57" y2="179.18"/><line class="cls-1" x1="221.57" y1="179.18" x2="222.33" y2="177.93"/><line class="cls-1" x1="222.33" y1="177.93" x2="223.14" y2="176.69"/><line class="cls-1" x1="223.14" y1="176.69" x2="223.84" y2="175.4"/><line class="cls-1" x1="223.84" y1="175.4" x2="224.6" y2="174.15"/><line class="cls-1" x1="224.6" y1="174.15" x2="225.3" y2="172.86"/><line class="cls-1" x1="225.3" y1="172.86" x2="225.89" y2="171.56"/><line class="cls-1" x1="225.89" y1="171.56" x2="226.6" y2="170.21"/><line class="cls-1" x1="226.6" y1="170.21" x2="227.19" y2="168.92"/><line class="cls-1" x1="227.19" y1="168.92" x2="227.73" y2="167.57"/><line class="cls-1" x1="227.73" y1="167.57" x2="228.27" y2="166.16"/><line class="cls-1" x1="228.27" y1="166.16" x2="228.81" y2="164.81"/><line class="cls-1" x1="228.81" y1="164.81" x2="229.24" y2="163.41"/><line class="cls-1" x1="229.24" y1="163.41" x2="229.67" y2="162"/><line class="cls-1" x1="229.67" y1="162" x2="230.11" y2="160.6"/><line class="cls-1" x1="230.11" y1="160.6" x2="230.54" y2="159.2"/><line class="cls-1" x1="230.54" y1="159.2" x2="230.86" y2="157.79"/><line class="cls-1" x1="230.86" y1="157.79" x2="231.19" y2="156.33"/><line class="cls-1" x1="231.19" y1="156.33" x2="231.35" y2="154.93"/><line class="cls-1" x1="231.35" y1="154.93" x2="231.67" y2="153.47"/><line class="cls-1" x1="231.67" y1="153.47" x2="231.83" y2="152.01"/><line class="cls-1" x1="231.83" y1="152.01" x2="232" y2="150.56"/><line class="cls-1" x1="232" y1="150.56" x2="232.1" y2="149.1"/><line class="cls-1" x1="232.1" y1="149.1" x2="232.21" y2="147.64"/><line class="cls-1" x1="232.21" y1="147.64" x2="232.32" y2="146.18"/><line class="cls-1" x1="232.32" y1="146.18" x2="232.32" y2="144.72"/><line class="cls-1" x1="232.32" y1="144.72" x2="232.32" y2="143.27"/><line class="cls-1" x1="232.32" y1="143.27" x2="232.32" y2="141.81"/><line class="cls-1" x1="232.32" y1="141.81" x2="232.16" y2="140.35"/><line class="cls-1" x1="232.16" y1="140.35" x2="232.1" y2="138.95"/><line class="cls-1" x1="232.1" y1="138.95" x2="231.89" y2="137.54"/><line class="cls-1" x1="231.89" y1="137.54" x2="231.78" y2="136.08"/><line class="cls-1" x1="231.78" y1="136.08" x2="231.51" y2="134.68"/><line class="cls-1" x1="231.51" y1="134.68" x2="231.35" y2="133.28"/><line class="cls-1" x1="231.35" y1="133.28" x2="230.97" y2="131.82"/><line class="cls-1" x1="230.97" y1="131.82" x2="230.7" y2="130.41"/><line class="cls-1" x1="230.7" y1="130.41" x2="230.27" y2="129.06"/><line class="cls-1" x1="230.27" y1="129.06" x2="229.89" y2="127.66"/><line class="cls-1" x1="229.89" y1="127.66" x2="229.57" y2="126.26"/><line class="cls-1" x1="229.57" y1="126.26" x2="229.03" y2="124.96"/><line class="cls-1" x1="229.03" y1="124.96" x2="228.59" y2="123.61"/><line class="cls-1" x1="228.59" y1="123.61" x2="228" y2="122.26"/><line class="cls-1" x1="228" y1="122.26" x2="227.46" y2="120.96"/><line class="cls-1" x1="227.46" y1="120.96" x2="226.92" y2="119.67"/><line class="cls-1" x1="226.92" y1="119.67" x2="226.33" y2="118.37"/><line class="cls-1" x1="226.33" y1="118.37" x2="225.68" y2="117.13"/><line class="cls-1" x1="225.68" y1="117.13" x2="224.92" y2="115.89"/><line class="cls-1" x1="224.92" y1="115.89" x2="224.27" y2="114.65"/><line class="cls-1" x1="224.27" y1="114.65" x2="223.52" y2="113.46"/><line class="cls-1" x1="223.52" y1="113.46" x2="222.71" y2="112.32"/><line class="cls-1" x1="222.71" y1="112.32" x2="222.06" y2="111.14"/><line class="cls-1" x1="222.06" y1="111.14" x2="221.14" y2="110"/><line class="cls-1" x1="221.14" y1="110" x2="220.39" y2="108.87"/><line class="cls-1" x1="220.39" y1="108.87" x2="219.52" y2="107.79"/><line class="cls-1" x1="219.52" y1="107.79" x2="218.66" y2="106.71"/><line class="cls-1" x1="218.66" y1="106.71" x2="217.74" y2="105.68"/><line class="cls-1" x1="217.74" y1="105.68" x2="216.88" y2="104.66"/><line class="cls-1" x1="216.88" y1="104.66" x2="215.85" y2="103.68"/><line class="cls-1" x1="215.85" y1="103.68" x2="214.93" y2="102.71"/><line class="cls-1" x1="214.93" y1="102.71" x2="213.96" y2="101.79"/><line class="cls-1" x1="213.96" y1="101.79" x2="212.99" y2="100.88"/><line class="cls-1" x1="212.99" y1="100.88" x2="212.02" y2="99.96"/><line class="cls-1" x1="212.02" y1="99.96" x2="210.99" y2="99.09"/><line class="cls-1" x1="210.99" y1="99.09" x2="209.91" y2="98.28"/><line class="cls-1" x1="209.91" y1="98.28" x2="208.88" y2="97.42"/><line class="cls-1" x1="208.88" y1="97.42" x2="207.86" y2="96.61"/><line class="cls-1" x1="207.86" y1="96.61" x2="206.83" y2="95.85"/><line class="cls-1" x1="206.83" y1="95.85" x2="205.75" y2="95.1"/><line class="cls-1" x1="205.75" y1="95.1" x2="204.62" y2="94.4"/><line class="cls-1" x1="204.62" y1="94.4" x2="203.59" y2="93.69"/><line class="cls-1" x1="203.59" y1="93.69" x2="202.46" y2="93.05"/><line class="cls-1" x1="202.46" y1="93.05" x2="201.43" y2="92.34"/><line class="cls-1" x1="201.43" y1="92.34" x2="200.3" y2="91.7"/><line class="cls-1" x1="200.3" y1="91.7" x2="199.16" y2="91.16"/><line class="cls-1" x1="199.16" y1="91.16" x2="198.08" y2="90.56"/><line class="cls-1" x1="198.08" y1="90.56" x2="196.95" y2="90.02"/><line class="cls-1" x1="196.95" y1="90.02" x2="195.87" y2="89.48"/><line class="cls-1" x1="195.87" y1="89.48" x2="194.68" y2="89.05"/><line class="cls-1" x1="194.68" y1="89.05" x2="193.55" y2="88.56"/><line class="cls-1" x1="193.55" y1="88.56" x2="192.41" y2="88.08"/><line class="cls-1" x1="192.41" y1="88.08" x2="191.28" y2="87.7"/><line class="cls-1" x1="191.28" y1="87.7" x2="189.98" y2="87.48"/><line class="cls-1" x1="189.98" y1="87.48" x2="188.58" y2="87.43"/><line class="cls-1" x1="188.58" y1="87.43" x2="187.07" y2="87.59"/><line class="cls-1" x1="187.07" y1="87.59" x2="185.61" y2="87.75"/><line class="cls-1" x1="185.61" y1="87.75" x2="184.1" y2="88.08"/><line class="cls-1" x1="184.1" y1="88.08" x2="182.69" y2="88.24"/><line class="cls-1" x1="182.69" y1="88.24" x2="181.13" y2="88.73"/><line class="cls-1" x1="181.13" y1="88.73" x2="179.67" y2="89.16"/><line class="cls-1" x1="179.67" y1="89.16" x2="178.16" y2="89.7"/><line class="cls-1" x1="178.16" y1="89.7" x2="176.65" y2="90.4"/><line class="cls-1" x1="176.65" y1="90.4" x2="175.13" y2="91.16"/><line class="cls-1" x1="175.13" y1="91.16" x2="173.62" y2="92.02"/><line class="cls-1" x1="173.62" y1="92.02" x2="172.06" y2="93.15"/><line class="cls-1" x1="172.06" y1="93.15" x2="170.54" y2="94.29"/><line class="cls-1" x1="170.54" y1="94.29" x2="168.98" y2="95.58"/><line class="cls-1" x1="168.98" y1="95.58" x2="167.52" y2="96.93"/><line class="cls-1" x1="167.52" y1="96.93" x2="166.01" y2="98.5"/><line class="cls-1" x1="166.01" y1="98.5" x2="164.55" y2="100.07"/><line class="cls-1" x1="164.55" y1="100.07" x2="163.15" y2="101.79"/><line class="cls-1" x1="163.15" y1="101.79" x2="161.74" y2="103.79"/><line class="cls-1" x1="161.74" y1="103.79" x2="160.45" y2="105.57"/><line class="cls-1" x1="160.45" y1="105.57" x2="159.15" y2="107.63"/><line class="cls-1" x1="159.15" y1="107.63" x2="157.85" y2="109.95"/><line class="cls-1" x1="157.85" y1="109.95" x2="156.72" y2="112.11"/><line class="cls-1" x1="156.72" y1="112.11" x2="155.59" y2="114.54"/><line class="cls-1" x1="155.59" y1="114.54" x2="154.56" y2="116.91"/><line class="cls-1" x1="154.56" y1="116.91" x2="153.59" y2="119.51"/><line class="cls-1" x1="153.59" y1="119.51" x2="152.72" y2="121.99"/><line class="cls-1" x1="152.72" y1="121.99" x2="151.97" y2="124.53"/><line class="cls-1" x1="151.97" y1="124.53" x2="151.27" y2="127.07"/><line class="cls-1" x1="151.27" y1="127.07" x2="150.67" y2="129.55"/><line class="cls-1" x1="150.67" y1="129.55" x2="150.24" y2="131.82"/><line class="cls-1" x1="150.24" y1="131.82" x2="149.86" y2="133.92"/><line class="cls-1" x1="149.86" y1="133.92" x2="149.65" y2="135.38"/><line class="cls-1" x1="149.65" y1="135.38" x2="149.54" y2="136.08"/><line class="cls-1" x1="149.54" y1="136.08" x2="149.54" y2="136.03"/><line class="cls-1" x1="149.54" y1="136.03" x2="149.48" y2="136.03"/><line class="cls-1" x1="149.48" y1="136.03" x2="149.48" y2="136.03"/><line class="cls-1" x1="149.48" y1="136.03" x2="149.43" y2="136.03"/><line class="cls-1" x1="149.43" y1="136.03" x2="149.43" y2="136.03"/><line class="cls-1" x1="149.43" y1="215.79" x2="148.13" y2="215.79"/><line class="cls-1" x1="148.13" y1="215.79" x2="146.73" y2="215.73"/><line class="cls-1" x1="146.73" y1="215.73" x2="145.38" y2="215.68"/><line class="cls-1" x1="145.38" y1="215.68" x2="144.03" y2="215.63"/><line class="cls-1" x1="144.03" y1="215.63" x2="142.63" y2="215.63"/><line class="cls-1" x1="142.63" y1="215.63" x2="141.28" y2="215.57"/><line class="cls-1" x1="141.28" y1="215.57" x2="139.93" y2="215.41"/><line class="cls-1" x1="139.93" y1="215.41" x2="138.58" y2="215.25"/><line class="cls-1" x1="138.58" y1="215.25" x2="137.17" y2="215.09"/><line class="cls-1" x1="137.17" y1="215.09" x2="135.82" y2="214.92"/><line class="cls-1" x1="135.82" y1="214.92" x2="134.47" y2="214.76"/><line class="cls-1" x1="134.47" y1="214.76" x2="133.12" y2="214.44"/><line class="cls-1" x1="133.12" y1="214.44" x2="131.77" y2="214.17"/><line class="cls-1" x1="131.77" y1="214.17" x2="130.42" y2="213.9"/><line class="cls-1" x1="130.42" y1="213.9" x2="129.07" y2="213.63"/><line class="cls-1" x1="129.07" y1="213.63" x2="127.72" y2="213.3"/><line class="cls-1" x1="127.72" y1="213.3" x2="126.37" y2="213.03"/><line class="cls-1" x1="126.37" y1="213.03" x2="125.08" y2="212.66"/><line class="cls-1" x1="125.08" y1="212.66" x2="123.73" y2="212.33"/><line class="cls-1" x1="123.73" y1="212.33" x2="122.38" y2="211.95"/><line class="cls-1" x1="122.38" y1="211.95" x2="121.13" y2="211.41"/><line class="cls-1" x1="121.13" y1="211.41" x2="119.84" y2="210.93"/><line class="cls-1" x1="119.84" y1="210.93" x2="118.54" y2="210.33"/><line class="cls-1" x1="118.54" y1="210.33" x2="117.25" y2="209.85"/><line class="cls-1" x1="117.25" y1="209.85" x2="116" y2="209.25"/><line class="cls-1" x1="116" y1="209.25" x2="114.82" y2="208.55"/><line class="cls-1" x1="114.82" y1="208.55" x2="113.63" y2="207.85"/><line class="cls-1" x1="113.63" y1="207.85" x2="112.39" y2="207.2"/><line class="cls-1" x1="112.39" y1="207.2" x2="111.2" y2="206.55"/><line class="cls-1" x1="111.2" y1="206.55" x2="110.01" y2="205.85"/><line class="cls-1" x1="110.01" y1="205.85" x2="108.88" y2="205.1"/><line class="cls-1" x1="108.88" y1="205.1" x2="107.69" y2="204.39"/><line class="cls-1" x1="107.69" y1="204.39" x2="106.5" y2="203.64"/><line class="cls-1" x1="106.5" y1="203.64" x2="105.37" y2="202.88"/><line class="cls-1" x1="105.37" y1="202.88" x2="104.23" y2="202.07"/><line class="cls-1" x1="104.23" y1="202.07" x2="103.15" y2="201.26"/><line class="cls-1" x1="103.15" y1="201.26" x2="102.07" y2="200.45"/><line class="cls-1" x1="102.07" y1="200.45" x2="100.99" y2="199.59"/><line class="cls-1" x1="100.99" y1="199.59" x2="99.91" y2="198.72"/><line class="cls-1" x1="99.91" y1="198.72" x2="98.83" y2="197.86"/><line class="cls-1" x1="98.83" y1="197.86" x2="97.75" y2="197"/><line class="cls-1" x1="97.75" y1="197" x2="96.78" y2="196.02"/><line class="cls-1" x1="96.78" y1="196.02" x2="95.75" y2="195.11"/><line class="cls-1" x1="95.75" y1="195.11" x2="94.73" y2="194.19"/><line class="cls-1" x1="94.73" y1="194.19" x2="93.86" y2="193.11"/><line class="cls-1" x1="93.86" y1="193.11" x2="92.95" y2="192.08"/><line class="cls-1" x1="92.95" y1="192.08" x2="92.14" y2="190.95"/><line class="cls-1" x1="92.14" y1="190.95" x2="91.38" y2="189.76"/><line class="cls-1" x1="91.38" y1="189.76" x2="90.73" y2="188.57"/><line class="cls-1" x1="90.73" y1="188.57" x2="90.14" y2="187.33"/><line class="cls-1" x1="90.14" y1="187.33" x2="89.54" y2="186.03"/><line class="cls-1" x1="89.54" y1="186.03" x2="89" y2="184.74"/><line class="cls-1" x1="89" y1="184.74" x2="88.46" y2="183.44"/><line class="cls-1" x1="88.46" y1="183.44" x2="88.14" y2="182.04"/><line class="cls-1" x1="88.14" y1="182.04" x2="87.71" y2="180.74"/><line class="cls-1" x1="87.71" y1="180.74" x2="87.33" y2="179.39"/><line class="cls-1" x1="87.33" y1="179.39" x2="87.06" y2="178.04"/><line class="cls-1" x1="87.06" y1="178.04" x2="86.79" y2="176.64"/><line class="cls-1" x1="86.79" y1="176.64" x2="86.57" y2="175.29"/><line class="cls-1" x1="86.57" y1="175.29" x2="86.41" y2="173.88"/><line class="cls-1" x1="86.41" y1="173.88" x2="86.25" y2="172.53"/><line class="cls-1" x1="86.25" y1="172.53" x2="86.03" y2="171.24"/><line class="cls-1" x1="86.03" y1="171.24" x2="85.87" y2="169.89"/><line class="cls-1" x1="85.87" y1="169.89" x2="85.82" y2="168.54"/><line class="cls-1" x1="85.82" y1="168.54" x2="85.66" y2="167.24"/><line class="cls-1" x1="85.66" y1="167.24" x2="85.49" y2="166"/><line class="cls-1" x1="85.49" y1="166" x2="85.33" y2="164.7"/><line class="cls-1" x1="85.33" y1="164.7" x2="85.12" y2="163.52"/><line class="cls-1" x1="85.12" y1="163.52" x2="84.85" y2="162.27"/><line class="cls-1" x1="84.85" y1="162.27" x2="84.68" y2="161.09"/><line class="cls-1" x1="84.68" y1="161.09" x2="84.41" y2="159.9"/><line class="cls-1" x1="84.41" y1="159.9" x2="84.09" y2="158.71"/><line class="cls-1" x1="84.09" y1="158.71" x2="83.93" y2="157.52"/><line class="cls-1" x1="83.93" y1="157.52" x2="83.77" y2="156.33"/><line class="cls-1" x1="83.77" y1="156.33" x2="83.55" y2="155.15"/><line class="cls-1" x1="83.55" y1="155.15" x2="83.28" y2="154.01"/><line class="cls-1" x1="83.28" y1="154.01" x2="83.17" y2="152.82"/><line class="cls-1" x1="83.17" y1="152.82" x2="83.01" y2="151.64"/><line class="cls-1" x1="83.01" y1="151.64" x2="82.9" y2="150.45"/><line class="cls-1" x1="82.9" y1="150.45" x2="82.85" y2="149.26"/><line class="cls-1" x1="82.85" y1="149.26" x2="82.79" y2="148.07"/><line class="cls-1" x1="82.79" y1="148.07" x2="82.69" y2="146.88"/><line class="cls-1" x1="82.69" y1="146.88" x2="82.69" y2="145.7"/><line class="cls-1" x1="82.69" y1="145.7" x2="82.74" y2="144.51"/><line class="cls-1" x1="82.74" y1="144.51" x2="82.79" y2="143.32"/><line class="cls-1" x1="82.79" y1="143.32" x2="82.79" y2="142.13"/><line class="cls-1" x1="82.79" y1="142.13" x2="82.9" y2="141"/><line class="cls-1" x1="82.9" y1="141" x2="83.01" y2="139.81"/><line class="cls-1" x1="83.01" y1="139.81" x2="83.06" y2="138.62"/><line class="cls-1" x1="83.06" y1="138.62" x2="83.23" y2="137.54"/><line class="cls-1" x1="83.23" y1="137.54" x2="83.39" y2="136.41"/><line class="cls-1" x1="83.39" y1="136.41" x2="83.5" y2="135.22"/><line class="cls-1" x1="83.5" y1="135.22" x2="83.6" y2="134.09"/><line class="cls-1" x1="83.6" y1="134.09" x2="83.93" y2="132.95"/><line class="cls-1" x1="83.93" y1="132.95" x2="84.14" y2="131.82"/><line class="cls-1" x1="84.14" y1="131.82" x2="84.31" y2="130.68"/><line class="cls-1" x1="84.31" y1="130.68" x2="84.58" y2="129.55"/><line class="cls-1" x1="84.58" y1="129.55" x2="84.9" y2="128.47"/><line class="cls-1" x1="84.9" y1="128.47" x2="85.17" y2="127.34"/><line class="cls-1" x1="85.17" y1="127.34" x2="85.49" y2="126.26"/><line class="cls-1" x1="85.49" y1="126.26" x2="85.87" y2="125.18"/><line class="cls-1" x1="85.87" y1="125.18" x2="86.2" y2="124.1"/><line class="cls-1" x1="86.2" y1="124.1" x2="86.57" y2="123.02"/><line class="cls-1" x1="86.57" y1="123.02" x2="87.06" y2="121.99"/><line class="cls-1" x1="87.06" y1="121.99" x2="87.44" y2="120.91"/><line class="cls-1" x1="87.44" y1="120.91" x2="87.87" y2="119.88"/><line class="cls-1" x1="87.87" y1="119.88" x2="88.36" y2="118.86"/><line class="cls-1" x1="88.36" y1="118.86" x2="88.84" y2="117.83"/><line class="cls-1" x1="88.84" y1="117.83" x2="89.27" y2="116.81"/><line class="cls-1" x1="89.27" y1="116.81" x2="89.76" y2="115.78"/><line class="cls-1" x1="89.76" y1="115.78" x2="90.25" y2="114.81"/><line class="cls-1" x1="90.25" y1="114.81" x2="90.62" y2="113.78"/><line class="cls-1" x1="90.62" y1="113.78" x2="90.95" y2="112.7"/><line class="cls-1" x1="90.95" y1="112.7" x2="91.22" y2="111.62"/><line class="cls-1" x1="91.22" y1="111.62" x2="91.54" y2="110.54"/><line class="cls-1" x1="91.54" y1="110.54" x2="91.92" y2="109.46"/><line class="cls-1" x1="91.92" y1="109.46" x2="92.24" y2="108.38"/><line class="cls-1" x1="92.24" y1="108.38" x2="92.51" y2="107.25"/><line class="cls-1" x1="92.51" y1="107.25" x2="92.89" y2="106.17"/><line class="cls-1" x1="92.89" y1="106.17" x2="93.27" y2="105.09"/><line class="cls-1" x1="93.27" y1="105.09" x2="93.7" y2="104.01"/><line class="cls-1" x1="93.7" y1="104.01" x2="94.13" y2="102.93"/><line class="cls-1" x1="94.13" y1="102.93" x2="94.57" y2="101.9"/><line class="cls-1" x1="94.57" y1="101.9" x2="95.16" y2="100.88"/><line class="cls-1" x1="95.16" y1="100.88" x2="95.7" y2="99.85"/><line class="cls-1" x1="95.7" y1="99.85" x2="96.24" y2="98.82"/><line class="cls-1" x1="96.24" y1="98.82" x2="96.89" y2="97.91"/><line class="cls-1" x1="96.89" y1="97.91" x2="97.54" y2="96.93"/><line class="cls-1" x1="97.54" y1="96.93" x2="98.18" y2="96.02"/><line class="cls-1" x1="98.18" y1="96.02" x2="98.94" y2="95.1"/><line class="cls-1" x1="98.94" y1="95.1" x2="99.7" y2="94.29"/><line class="cls-1" x1="99.7" y1="94.29" x2="100.56" y2="93.53"/><line class="cls-1" x1="100.56" y1="93.53" x2="101.48" y2="92.78"/><line class="cls-1" x1="101.48" y1="92.78" x2="102.4" y2="92.07"/><line class="cls-1" x1="102.4" y1="92.07" x2="103.37" y2="91.43"/><line class="cls-1" x1="103.37" y1="91.43" x2="104.39" y2="90.89"/><line class="cls-1" x1="104.39" y1="90.89" x2="105.42" y2="90.29"/><line class="cls-1" x1="105.42" y1="90.29" x2="106.5" y2="89.81"/><line class="cls-1" x1="106.5" y1="89.81" x2="107.58" y2="89.32"/><line class="cls-1" x1="107.58" y1="89.32" x2="108.77" y2="89"/><line class="cls-1" x1="108.77" y1="89" x2="110.06" y2="88.83"/><line class="cls-1" x1="110.06" y1="88.83" x2="111.36" y2="88.73"/><line class="cls-1" x1="111.36" y1="88.73" x2="112.66" y2="88.67"/><line class="cls-1" x1="112.66" y1="88.67" x2="114.01" y2="88.73"/><line class="cls-1" x1="114.01" y1="88.73" x2="115.41" y2="88.83"/><line class="cls-1" x1="115.41" y1="88.83" x2="116.81" y2="89.1"/><line class="cls-1" x1="116.81" y1="89.1" x2="118.16" y2="89.32"/><line class="cls-1" x1="118.16" y1="89.32" x2="119.62" y2="89.75"/><line class="cls-1" x1="119.62" y1="89.75" x2="121.08" y2="90.24"/><line class="cls-1" x1="121.08" y1="90.24" x2="122.54" y2="90.89"/><line class="cls-1" x1="122.54" y1="90.89" x2="124.05" y2="91.7"/><line class="cls-1" x1="124.05" y1="91.7" x2="125.62" y2="92.67"/><line class="cls-1" x1="125.62" y1="92.67" x2="127.13" y2="93.69"/><line class="cls-1" x1="127.13" y1="93.69" x2="128.75" y2="94.99"/><line class="cls-1" x1="128.75" y1="94.99" x2="130.26" y2="96.29"/><line class="cls-1" x1="130.26" y1="96.29" x2="131.77" y2="97.74"/><line class="cls-1" x1="131.77" y1="97.74" x2="133.28" y2="99.31"/><line class="cls-1" x1="133.28" y1="99.31" x2="134.8" y2="101.2"/><line class="cls-1" x1="134.8" y1="101.2" x2="136.25" y2="103.04"/><line class="cls-1" x1="136.25" y1="103.04" x2="137.6" y2="104.87"/><line class="cls-1" x1="137.6" y1="104.87" x2="139.01" y2="107.14"/><line class="cls-1" x1="139.01" y1="107.14" x2="140.36" y2="109.41"/><line class="cls-1" x1="140.36" y1="109.41" x2="141.6" y2="111.78"/><line class="cls-1" x1="141.6" y1="111.78" x2="142.84" y2="114.32"/><line class="cls-1" x1="142.84" y1="114.32" x2="143.92" y2="116.81"/><line class="cls-1" x1="143.92" y1="116.81" x2="145" y2="119.56"/><line class="cls-1" x1="145" y1="119.56" x2="145.92" y2="122.04"/><line class="cls-1" x1="145.92" y1="122.04" x2="146.78" y2="124.85"/><line class="cls-1" x1="146.78" y1="124.85" x2="147.49" y2="127.39"/><line class="cls-1" x1="147.49" y1="127.39" x2="148.13" y2="129.82"/><line class="cls-1" x1="148.13" y1="129.82" x2="148.62" y2="132.03"/><line class="cls-1" x1="148.62" y1="132.03" x2="149" y2="133.92"/><line class="cls-1" x1="149" y1="133.92" x2="149.21" y2="135.33"/><line class="cls-1" x1="149.21" y1="135.33" x2="149.32" y2="136.08"/><line class="cls-1" x1="149.32" y1="136.08" x2="149.38" y2="136.08"/><line class="cls-1" x1="149.38" y1="136.08" x2="149.38" y2="136.03"/><line class="cls-1" x1="149.38" y1="136.03" x2="149.43" y2="136.03"/><line class="cls-1" x1="149.43" y1="136.03" x2="149.43" y2="136.03"/><line class="cls-1" x1="149.43" y1="136.03" x2="149.43" y2="136.03"/><line class="cls-1" x1="149.43" y1="136.03" x2="149.43" y2="136.03"/><line class="cls-1" x1="149.43" y1="215.79" x2="149.7" y2="215.79"/><line class="cls-1" x1="151" y1="215.73" x2="151.27" y2="215.73"/><line class="cls-1" x1="152.62" y1="215.73" x2="152.89" y2="215.73"/><line class="cls-1" x1="154.24" y1="215.68" x2="154.51" y2="215.68"/><line class="cls-1" x1="155.8" y1="215.63" x2="156.02" y2="215.57"/><line class="cls-1" x1="157.31" y1="215.52" x2="157.58" y2="215.52"/><line class="cls-1" x1="158.88" y1="215.41" x2="158.99" y2="215.41"/><line class="cls-1" x1="158.99" y1="215.41" x2="159.15" y2="215.41"/><line class="cls-1" x1="160.45" y1="215.3" x2="160.66" y2="215.25"/><line class="cls-1" x1="161.96" y1="215.09" x2="162.17" y2="215.03"/><line class="cls-1" x1="163.47" y1="214.87" x2="163.74" y2="214.87"/><line class="cls-1" x1="164.98" y1="214.65" x2="165.2" y2="214.6"/><line class="cls-1" x1="166.44" y1="214.38" x2="166.66" y2="214.33"/><line class="cls-1" x1="167.9" y1="214.06" x2="168.11" y2="214.01"/><line class="cls-1" x1="169.36" y1="213.79" x2="169.57" y2="213.74"/><line class="cls-1" x1="170.81" y1="213.47" x2="171.03" y2="213.41"/><line class="cls-1" x1="172.27" y1="213.09" x2="172.49" y2="213.03"/><line class="cls-1" x1="173.73" y1="212.71" x2="173.84" y2="212.71"/><line class="cls-1" x1="173.84" y1="212.71" x2="173.95" y2="212.66"/><line class="cls-1" x1="175.13" y1="212.28" x2="175.19" y2="212.28"/><line class="cls-1" x1="175.19" y1="212.28" x2="175.35" y2="212.22"/><line class="cls-1" x1="176.59" y1="211.9" x2="176.81" y2="211.79"/><line class="cls-1" x1="178" y1="211.41" x2="178.21" y2="211.36"/><line class="cls-1" x1="179.45" y1="210.98" x2="179.67" y2="210.93"/><line class="cls-1" x1="180.86" y1="210.44" x2="181.07" y2="210.39"/><line class="cls-1" x1="182.26" y1="209.96" x2="182.48" y2="209.85"/><line class="cls-1" x1="183.67" y1="209.36" x2="183.88" y2="209.25"/><line class="cls-1" x1="185.02" y1="208.71" x2="185.23" y2="208.61"/><line class="cls-1" x1="186.37" y1="208.01" x2="186.58" y2="207.9"/><line class="cls-1" x1="187.72" y1="207.36" x2="187.93" y2="207.26"/><line class="cls-1" x1="189.07" y1="206.66" x2="189.28" y2="206.55"/><line class="cls-1" x1="190.42" y1="205.96" x2="190.52" y2="205.91"/><line class="cls-1" x1="190.52" y1="205.91" x2="190.63" y2="205.85"/><line class="cls-1" x1="191.71" y1="205.15" x2="191.71" y2="205.15"/><line class="cls-1" x1="191.71" y1="205.15" x2="191.93" y2="205.04"/><line class="cls-1" x1="193.06" y1="204.45" x2="193.28" y2="204.29"/><line class="cls-1" x1="194.36" y1="203.58" x2="194.57" y2="203.48"/><line class="cls-1" x1="195.65" y1="202.77" x2="195.87" y2="202.61"/><line class="cls-1" x1="196.95" y1="201.96" x2="197.17" y2="201.8"/><line class="cls-1" x1="198.25" y1="201.1" x2="198.46" y2="200.99"/><line class="cls-1" x1="199.49" y1="200.24" x2="199.7" y2="200.13"/><line class="cls-1" x1="200.73" y1="199.32" x2="200.95" y2="199.16"/><line class="cls-1" x1="201.97" y1="198.35" x2="202.19" y2="198.18"/><line class="cls-1" x1="203.21" y1="197.37" x2="203.27" y2="197.32"/><line class="cls-1" x1="203.27" y1="197.32" x2="203.38" y2="197.21"/><line class="cls-1" x1="204.4" y1="196.46" x2="204.4" y2="196.46"/><line class="cls-1" x1="204.4" y1="196.46" x2="204.62" y2="196.29"/><line class="cls-1" x1="205.64" y1="195.43" x2="205.86" y2="195.27"/><line class="cls-1" x1="206.83" y1="194.4" x2="206.99" y2="194.24"/><line class="cls-1" x1="207.97" y1="193.38" x2="208.13" y2="193.22"/><line class="cls-1" x1="209.1" y1="192.3" x2="209.32" y2="192.14"/><line class="cls-1" x1="210.23" y1="191.22" x2="210.4" y2="191.06"/><line class="cls-1" x1="211.31" y1="190.08" x2="211.48" y2="189.92"/><line class="cls-1" x1="212.39" y1="188.95" x2="212.56" y2="188.79"/><line class="cls-1" x1="213.47" y1="187.82" x2="213.64" y2="187.65"/><line class="cls-1" x1="214.5" y1="186.63" x2="214.55" y2="186.57"/><line class="cls-1" x1="214.55" y1="186.57" x2="214.66" y2="186.47"/><line class="cls-1" x1="215.53" y1="185.44" x2="215.69" y2="185.22"/><line class="cls-1" x1="216.55" y1="184.2" x2="216.71" y2="183.98"/><line class="cls-1" x1="217.52" y1="182.96" x2="217.69" y2="182.74"/><line class="cls-1" x1="218.44" y1="181.66" x2="218.6" y2="181.44"/><line class="cls-1" x1="219.36" y1="180.36" x2="219.52" y2="180.15"/><line class="cls-1" x1="220.28" y1="179.07" x2="220.44" y2="178.85"/><line class="cls-1" x1="221.09" y1="177.77" x2="221.25" y2="177.56"/><line class="cls-1" x1="221.9" y1="176.48" x2="222.06" y2="176.26"/><line class="cls-1" x1="222.71" y1="175.13" x2="222.82" y2="174.91"/><line class="cls-1" x1="223.41" y1="173.78" x2="223.52" y2="173.61"/><line class="cls-1" x1="223.52" y1="173.61" x2="223.57" y2="173.56"/><line class="cls-1" x1="224.11" y1="172.43" x2="224.17" y2="172.37"/><line class="cls-1" x1="224.17" y1="172.37" x2="224.22" y2="172.21"/><line class="cls-1" x1="224.81" y1="171.08" x2="224.81" y2="171.02"/><line class="cls-1" x1="224.81" y1="171.02" x2="224.92" y2="170.86"/><line class="cls-1" x1="225.46" y1="169.73" x2="225.57" y2="169.51"/><line class="cls-1" x1="226.06" y1="168.32" x2="226.16" y2="168.11"/><line class="cls-1" x1="226.65" y1="166.92" x2="226.76" y2="166.7"/><line class="cls-1" x1="227.24" y1="165.51" x2="227.3" y2="165.3"/><line class="cls-1" x1="227.73" y1="164.11" x2="227.78" y2="163.89"/><line class="cls-1" x1="228.22" y1="162.71" x2="228.32" y2="162.49"/><line class="cls-1" x1="228.7" y1="161.3" x2="228.76" y2="161.09"/><line class="cls-1" x1="229.13" y1="159.84" x2="229.19" y2="159.63"/><line class="cls-1" x1="229.51" y1="158.39" x2="229.57" y2="158.17"/><line class="cls-1" x1="229.84" y1="156.93" x2="229.89" y2="156.71"/><line class="cls-1" x1="230.16" y1="155.47" x2="230.21" y2="155.25"/><line class="cls-1" x1="230.43" y1="154.01" x2="230.48" y2="153.74"/><line class="cls-1" x1="230.7" y1="152.45" x2="230.75" y2="152.23"/><line class="cls-1" x1="230.97" y1="150.93" x2="230.97" y2="150.66"/><line class="cls-1" x1="231.08" y1="149.37" x2="231.13" y2="149.15"/><line class="cls-1" x1="231.19" y1="147.86" x2="231.19" y2="147.59"/><line class="cls-1" x1="231.35" y1="146.29" x2="231.35" y2="146.07"/><line class="cls-1" x1="231.35" y1="146.07" x2="231.35" y2="146.02"/><line class="cls-1" x1="231.4" y1="144.72" x2="231.4" y2="144.67"/><line class="cls-1" x1="231.4" y1="144.67" x2="231.4" y2="144.45"/><line class="cls-1" x1="231.4" y1="143.1" x2="231.4" y2="142.83"/><line class="cls-1" x1="231.35" y1="141.54" x2="231.35" y2="141.27"/><line class="cls-1" x1="231.35" y1="139.97" x2="231.35" y2="139.7"/><line class="cls-1" x1="231.19" y1="138.41" x2="231.19" y2="138.14"/><line class="cls-1" x1="231.08" y1="136.84" x2="231.08" y2="136.57"/><line class="cls-1" x1="230.92" y1="135.27" x2="230.92" y2="135"/><line class="cls-1" x1="230.7" y1="133.76" x2="230.65" y2="133.55"/><line class="cls-1" x1="230.43" y1="132.3" x2="230.38" y2="132.09"/><line class="cls-1" x1="230.11" y1="130.85" x2="230.05" y2="130.58"/><line class="cls-1" x1="229.78" y1="129.33" x2="229.73" y2="129.12"/><line class="cls-1" x1="229.46" y1="127.88" x2="229.4" y2="127.71"/><line class="cls-1" x1="229.4" y1="127.71" x2="229.4" y2="127.66"/><line class="cls-1" x1="229.03" y1="126.42" x2="229.03" y2="126.36"/><line class="cls-1" x1="229.03" y1="126.36" x2="228.97" y2="126.2"/><line class="cls-1" x1="228.59" y1="125.01" x2="228.59" y2="125.01"/><line class="cls-1" x1="228.59" y1="125.01" x2="228.54" y2="124.8"/><line class="cls-1" x1="228.16" y1="123.61" x2="228.05" y2="123.39"/><line class="cls-1" x1="227.57" y1="122.21" x2="227.51" y2="121.99"/><line class="cls-1" x1="227.08" y1="120.8" x2="226.97" y2="120.59"/><line class="cls-1" x1="226.43" y1="119.4" x2="226.33" y2="119.18"/><line class="cls-1" x1="225.79" y1="117.99" x2="225.68" y2="117.78"/><line class="cls-1" x1="225.14" y1="116.64" x2="225.03" y2="116.43"/><line class="cls-1" x1="224.49" y1="115.29" x2="224.38" y2="115.08"/><line class="cls-1" x1="223.73" y1="114" x2="223.57" y2="113.78"/><line class="cls-1" x1="222.92" y1="112.7" x2="222.82" y2="112.49"/><line class="cls-1" x1="222.17" y1="111.41" x2="222.06" y2="111.19"/><line class="cls-1" x1="221.3" y1="110.11" x2="221.25" y2="110"/><line class="cls-1" x1="221.25" y1="110" x2="221.14" y2="109.89"/><line class="cls-1" x1="220.39" y1="108.87" x2="220.39" y2="108.87"/><line class="cls-1" x1="220.39" y1="108.87" x2="220.22" y2="108.65"/><line class="cls-1" x1="219.47" y1="107.63" x2="219.31" y2="107.41"/><line class="cls-1" x1="218.55" y1="106.38" x2="218.39" y2="106.22"/><line class="cls-1" x1="217.52" y1="105.25" x2="217.36" y2="105.03"/><line class="cls-1" x1="216.44" y1="104.06" x2="216.28" y2="103.9"/><line class="cls-1" x1="215.42" y1="102.93" x2="215.26" y2="102.71"/><line class="cls-1" x1="214.28" y1="101.85" x2="214.12" y2="101.69"/><line class="cls-1" x1="213.15" y1="100.82" x2="213.1" y2="100.77"/><line class="cls-1" x1="213.1" y1="100.77" x2="212.99" y2="100.66"/><line class="cls-1" x1="211.96" y1="99.8" x2="211.75" y2="99.63"/><line class="cls-1" x1="210.77" y1="98.77" x2="210.56" y2="98.61"/><line class="cls-1" x1="209.53" y1="97.8" x2="209.32" y2="97.64"/><line class="cls-1" x1="208.24" y1="96.88" x2="208.02" y2="96.72"/><line class="cls-1" x1="206.94" y1="95.96" x2="206.78" y2="95.85"/><line class="cls-1" x1="206.78" y1="95.85" x2="206.72" y2="95.8"/><line class="cls-1" x1="205.64" y1="95.15" x2="205.64" y2="95.15"/><line class="cls-1" x1="205.64" y1="95.15" x2="205.43" y2="94.99"/><line class="cls-1" x1="204.35" y1="94.34" x2="204.13" y2="94.18"/><line class="cls-1" x1="203" y1="93.59" x2="202.78" y2="93.48"/><line class="cls-1" x1="201.65" y1="92.83" x2="201.43" y2="92.72"/><line class="cls-1" x1="200.3" y1="92.13" x2="200.08" y2="92.02"/><line class="cls-1" x1="198.95" y1="91.53" x2="198.84" y2="91.48"/><line class="cls-1" x1="198.84" y1="91.48" x2="198.73" y2="91.43"/><line class="cls-1" x1="197.6" y1="90.94" x2="197.38" y2="90.83"/><line class="cls-1" x1="196.25" y1="90.35" x2="196.03" y2="90.24"/><line class="cls-1" x1="194.84" y1="89.75" x2="194.63" y2="89.7"/><line class="cls-1" x1="193.44" y1="89.32" x2="193.22" y2="89.21"/><line class="cls-1" x1="191.98" y1="89" x2="191.77" y2="88.94"/><line class="cls-1" x1="190.47" y1="88.78" x2="190.36" y2="88.78"/><line class="cls-1" x1="190.36" y1="88.78" x2="190.2" y2="88.78"/><line class="cls-1" x1="188.96" y1="88.62" x2="188.69" y2="88.62"/><line class="cls-1" x1="187.39" y1="88.56" x2="187.12" y2="88.56"/><line class="cls-1" x1="185.77" y1="88.56" x2="185.56" y2="88.51"/><line class="cls-1" x1="184.21" y1="88.51" x2="183.94" y2="88.51"/><line class="cls-1" x1="182.59" y1="88.51" x2="182.48" y2="88.51"/><line class="cls-1" x1="182.48" y1="88.51" x2="182.32" y2="88.51"/><line class="cls-1" x1="181.02" y1="88.62" x2="180.75" y2="88.62"/><line class="cls-1" x1="179.45" y1="88.83" x2="179.24" y2="88.89"/><line class="cls-1" x1="178" y1="89.21" x2="177.78" y2="89.27"/><line class="cls-1" x1="176.59" y1="89.75" x2="176.38" y2="89.86"/><line class="cls-1" x1="175.24" y1="90.4" x2="175.03" y2="90.51"/><line class="cls-1" x1="173.89" y1="91.16" x2="173.68" y2="91.32"/><line class="cls-1" x1="172.6" y1="92.07" x2="172.38" y2="92.24"/><line class="cls-1" x1="171.35" y1="92.99" x2="171.14" y2="93.15"/><line class="cls-1" x1="170.17" y1="94.02" x2="169.95" y2="94.18"/><line class="cls-1" x1="168.98" y1="95.04" x2="168.82" y2="95.21"/><line class="cls-1" x1="167.84" y1="96.12" x2="167.84" y2="96.12"/><line class="cls-1" x1="167.84" y1="96.12" x2="167.68" y2="96.29"/><line class="cls-1" x1="166.82" y1="97.26" x2="166.66" y2="97.42"/><line class="cls-1" x1="165.79" y1="98.39" x2="165.63" y2="98.61"/><line class="cls-1" x1="164.77" y1="99.63" x2="164.71" y2="99.69"/><line class="cls-1" x1="164.71" y1="99.69" x2="164.6" y2="99.8"/><line class="cls-1" x1="163.85" y1="100.82" x2="163.69" y2="100.98"/><line class="cls-1" x1="162.93" y1="102.01" x2="162.82" y2="102.23"/><line class="cls-1" x1="162.07" y1="103.31" x2="161.9" y2="103.52"/><line class="cls-1" x1="161.2" y1="104.6" x2="161.04" y2="104.82"/><line class="cls-1" x1="160.34" y1="105.9" x2="160.28" y2="106.01"/><line class="cls-1" x1="160.28" y1="106.01" x2="160.23" y2="106.11"/><line class="cls-1" x1="159.58" y1="107.19" x2="159.47" y2="107.41"/><line class="cls-1" x1="158.83" y1="108.49" x2="158.72" y2="108.71"/><line class="cls-1" x1="158.12" y1="109.84" x2="158.02" y2="110.06"/><line class="cls-1" x1="157.42" y1="111.19" x2="157.31" y2="111.41"/><line class="cls-1" x1="156.77" y1="112.54" x2="156.67" y2="112.76"/><line class="cls-1" x1="156.13" y1="113.89" x2="156.02" y2="114.11"/><line class="cls-1" x1="155.53" y1="115.29" x2="155.42" y2="115.51"/><line class="cls-1" x1="154.94" y1="116.7" x2="154.83" y2="116.91"/><line class="cls-1" x1="154.34" y1="118.1" x2="154.29" y2="118.32"/><line class="cls-1" x1="153.86" y1="119.51" x2="153.75" y2="119.72"/><line class="cls-1" x1="153.32" y1="120.91" x2="153.26" y2="121.13"/><line class="cls-1" x1="152.83" y1="122.31" x2="152.78" y2="122.53"/><line class="cls-1" x1="152.4" y1="123.72" x2="152.35" y2="123.93"/><line class="cls-1" x1="151.97" y1="125.12" x2="151.91" y2="125.34"/><line class="cls-1" x1="151.59" y1="126.58" x2="151.54" y2="126.8"/><line class="cls-1" x1="151.16" y1="127.98" x2="151.1" y2="128.2"/><line class="cls-1" x1="150.78" y1="129.44" x2="150.73" y2="129.71"/><line class="cls-1" x1="150.46" y1="130.95" x2="150.4" y2="131.17"/><line class="cls-1" x1="150.13" y1="132.41" x2="150.08" y2="132.63"/><line class="cls-1" x1="149.86" y1="133.87" x2="149.81" y2="134.09"/><line class="cls-1" x1="149.59" y1="135.33" x2="149.54" y2="135.6"/><line class="cls-1" x1="148.51" y1="215.73" x2="148.24" y2="215.73"/><line class="cls-1" x1="146.89" y1="215.73" x2="146.73" y2="215.73"/><line class="cls-1" x1="146.73" y1="215.73" x2="146.62" y2="215.73"/><line class="cls-1" x1="145.27" y1="215.73" x2="145" y2="215.73"/><line class="cls-1" x1="143.71" y1="215.68" x2="143.49" y2="215.63"/><line class="cls-1" x1="142.19" y1="215.57" x2="141.92" y2="215.52"/><line class="cls-1" x1="140.63" y1="215.46" x2="140.36" y2="215.46"/><line class="cls-1" x1="139.06" y1="215.36" x2="138.85" y2="215.3"/><line class="cls-1" x1="137.55" y1="215.14" x2="137.33" y2="215.09"/><line class="cls-1" x1="136.04" y1="214.92" x2="135.82" y2="214.92"/><line class="cls-1" x1="135.82" y1="214.92" x2="135.77" y2="214.92"/><line class="cls-1" x1="134.47" y1="214.76" x2="134.47" y2="214.76"/><line class="cls-1" x1="134.47" y1="214.76" x2="134.26" y2="214.71"/><line class="cls-1" x1="133.01" y1="214.49" x2="132.8" y2="214.44"/><line class="cls-1" x1="131.56" y1="214.17" x2="131.34" y2="214.11"/><line class="cls-1" x1="130.1" y1="213.9" x2="129.88" y2="213.84"/><line class="cls-1" x1="128.64" y1="213.57" x2="128.42" y2="213.52"/><line class="cls-1" x1="127.18" y1="213.25" x2="126.97" y2="213.2"/><line class="cls-1" x1="125.72" y1="212.87" x2="125.51" y2="212.82"/><line class="cls-1" x1="124.27" y1="212.44" x2="124.05" y2="212.39"/><line class="cls-1" x1="122.81" y1="212.01" x2="122.59" y2="211.95"/><line class="cls-1" x1="121.4" y1="211.58" x2="121.19" y2="211.52"/><line class="cls-1" x1="120" y1="211.14" x2="119.78" y2="211.09"/><line class="cls-1" x1="118.6" y1="210.66" x2="118.43" y2="210.6"/><line class="cls-1" x1="118.43" y1="210.6" x2="118.38" y2="210.6"/><line class="cls-1" x1="117.19" y1="210.12" x2="117.14" y2="210.12"/><line class="cls-1" x1="117.14" y1="210.12" x2="116.98" y2="210.06"/><line class="cls-1" x1="115.79" y1="209.63" x2="115.57" y2="209.52"/><line class="cls-1" x1="114.44" y1="208.98" x2="114.22" y2="208.88"/><line class="cls-1" x1="113.09" y1="208.34" x2="112.87" y2="208.23"/><line class="cls-1" x1="111.74" y1="207.63" x2="111.52" y2="207.53"/><line class="cls-1" x1="110.39" y1="206.99" x2="110.17" y2="206.82"/><line class="cls-1" x1="109.04" y1="206.23" x2="108.82" y2="206.12"/><line class="cls-1" x1="107.74" y1="205.47" x2="107.53" y2="205.37"/><line class="cls-1" x1="106.45" y1="204.77" x2="106.23" y2="204.66"/><line class="cls-1" x1="105.15" y1="203.96" x2="104.93" y2="203.85"/><line class="cls-1" x1="103.85" y1="203.15" x2="103.64" y2="202.99"/><line class="cls-1" x1="102.56" y1="202.29" x2="102.45" y2="202.23"/><line class="cls-1" x1="102.45" y1="202.23" x2="102.34" y2="202.18"/><line class="cls-1" x1="101.26" y1="201.53" x2="101.26" y2="201.53"/><line class="cls-1" x1="101.26" y1="201.53" x2="101.05" y2="201.37"/><line class="cls-1" x1="99.97" y1="200.67" x2="99.8" y2="200.51"/><line class="cls-1" x1="98.72" y1="199.75" x2="98.51" y2="199.59"/><line class="cls-1" x1="97.48" y1="198.78" x2="97.27" y2="198.62"/><line class="cls-1" x1="96.24" y1="197.81" x2="96.08" y2="197.64"/><line class="cls-1" x1="95.05" y1="196.89" x2="94.89" y2="196.73"/><line class="cls-1" x1="93.86" y1="195.92" x2="93.65" y2="195.75"/><line class="cls-1" x1="92.68" y1="194.89" x2="92.46" y2="194.73"/><line class="cls-1" x1="91.49" y1="193.86" x2="91.27" y2="193.7"/><line class="cls-1" x1="90.3" y1="192.78" x2="90.25" y2="192.73"/><line class="cls-1" x1="90.25" y1="192.73" x2="90.14" y2="192.62"/><line class="cls-1" x1="89.17" y1="191.7" x2="89" y2="191.54"/><line class="cls-1" x1="88.09" y1="190.62" x2="87.92" y2="190.46"/><line class="cls-1" x1="87.01" y1="189.49" x2="86.84" y2="189.33"/><line class="cls-1" x1="85.93" y1="188.36" x2="85.76" y2="188.19"/><line class="cls-1" x1="84.9" y1="187.22" x2="84.74" y2="187.01"/><line class="cls-1" x1="83.87" y1="186.03" x2="83.71" y2="185.82"/><line class="cls-1" x1="82.85" y1="184.79" x2="82.69" y2="184.58"/><line class="cls-1" x1="81.82" y1="183.55" x2="81.66" y2="183.33"/><line class="cls-1" x1="80.9" y1="182.25" x2="80.8" y2="182.09"/><line class="cls-1" x1="80.8" y1="182.09" x2="80.74" y2="182.04"/><line class="cls-1" x1="79.99" y1="180.96" x2="79.99" y2="180.96"/><line class="cls-1" x1="79.99" y1="180.96" x2="79.82" y2="180.74"/><line class="cls-1" x1="79.07" y1="179.72" x2="78.96" y2="179.5"/><line class="cls-1" x1="78.26" y1="178.47" x2="78.1" y2="178.26"/><line class="cls-1" x1="77.45" y1="177.18" x2="77.34" y2="176.96"/><line class="cls-1" x1="76.64" y1="175.88" x2="76.53" y2="175.67"/><line class="cls-1" x1="75.88" y1="174.53" x2="75.77" y2="174.32"/><line class="cls-1" x1="75.18" y1="173.18" x2="75.07" y2="172.97"/><line class="cls-1" x1="74.48" y1="171.83" x2="74.37" y2="171.62"/><line class="cls-1" x1="73.83" y1="170.48" x2="73.72" y2="170.27"/><line class="cls-1" x1="73.18" y1="169.13" x2="73.13" y2="168.92"/><line class="cls-1" x1="72.64" y1="167.78" x2="72.53" y2="167.57"/><line class="cls-1" x1="72.05" y1="166.43" x2="71.94" y2="166.22"/><line class="cls-1" x1="71.51" y1="165.03" x2="71.45" y2="164.81"/><line class="cls-1" x1="71.02" y1="163.62" x2="70.91" y2="163.41"/><line class="cls-1" x1="70.54" y1="162.22" x2="70.43" y2="162"/><line class="cls-1" x1="70.05" y1="160.76" x2="70" y2="160.55"/><line class="cls-1" x1="69.62" y1="159.3" x2="69.56" y2="159.09"/><line class="cls-1" x1="69.29" y1="157.85" x2="69.24" y2="157.63"/><line class="cls-1" x1="68.92" y1="156.39" x2="68.86" y2="156.17"/><line class="cls-1" x1="68.65" y1="154.93" x2="68.59" y2="154.71"/><line class="cls-1" x1="68.38" y1="153.42" x2="68.38" y2="153.26"/><line class="cls-1" x1="68.38" y1="153.26" x2="68.38" y2="153.15"/><line class="cls-1" x1="68.11" y1="151.91" x2="68.11" y2="151.85"/><line class="cls-1" x1="68.11" y1="151.85" x2="68.05" y2="151.64"/><line class="cls-1" x1="67.89" y1="150.34" x2="67.89" y2="150.07"/><line class="cls-1" x1="67.78" y1="148.77" x2="67.78" y2="148.5"/><line class="cls-1" x1="67.67" y1="147.21" x2="67.67" y2="146.94"/><line class="cls-1" x1="67.57" y1="145.64" x2="67.51" y2="145.37"/><line class="cls-1" x1="67.51" y1="144.02" x2="67.51" y2="143.75"/><line class="cls-1" x1="67.57" y1="142.46" x2="67.57" y2="142.19"/><line class="cls-1" x1="67.51" y1="140.89" x2="67.51" y2="140.62"/><line class="cls-1" x1="67.62" y1="139.32" x2="67.67" y2="139.11"/><line class="cls-1" x1="67.78" y1="137.81" x2="67.78" y2="137.54"/><line class="cls-1" x1="67.89" y1="136.25" x2="67.89" y2="136.14"/><line class="cls-1" x1="67.89" y1="136.14" x2="67.89" y2="135.98"/><line class="cls-1" x1="68.05" y1="134.68" x2="68.05" y2="134.68"/><line class="cls-1" x1="68.05" y1="134.68" x2="68.11" y2="134.46"/><line class="cls-1" x1="68.32" y1="133.22" x2="68.38" y2="133.01"/><line class="cls-1" x1="68.59" y1="131.76" x2="68.65" y2="131.55"/><line class="cls-1" x1="68.92" y1="130.31" x2="68.97" y2="130.09"/><line class="cls-1" x1="69.24" y1="128.85" x2="69.29" y2="128.63"/><line class="cls-1" x1="69.62" y1="127.39" x2="69.67" y2="127.17"/><line class="cls-1" x1="70.05" y1="125.93" x2="70.1" y2="125.72"/><line class="cls-1" x1="70.48" y1="124.53" x2="70.54" y2="124.31"/><line class="cls-1" x1="70.97" y1="123.12" x2="71.08" y2="122.91"/><line class="cls-1" x1="71.51" y1="121.72" x2="71.56" y2="121.5"/><line class="cls-1" x1="72.05" y1="120.32" x2="72.16" y2="120.1"/><line class="cls-1" x1="72.64" y1="118.97" x2="72.75" y2="118.75"/><line class="cls-1" x1="73.29" y1="117.62" x2="73.4" y2="117.4"/><line class="cls-1" x1="73.94" y1="116.27" x2="74.05" y2="116.05"/><line class="cls-1" x1="74.64" y1="114.92" x2="74.75" y2="114.7"/><line class="cls-1" x1="75.45" y1="113.62" x2="75.5" y2="113.51"/><line class="cls-1" x1="75.5" y1="113.51" x2="75.56" y2="113.4"/><line class="cls-1" x1="76.21" y1="112.32" x2="76.21" y2="112.32"/><line class="cls-1" x1="76.21" y1="112.32" x2="76.31" y2="112.11"/><line class="cls-1" x1="76.96" y1="111.03" x2="77.12" y2="110.81"/><line class="cls-1" x1="77.88" y1="109.73" x2="78.04" y2="109.52"/><line class="cls-1" x1="78.8" y1="108.49" x2="78.96" y2="108.33"/><line class="cls-1" x1="79.72" y1="107.25" x2="79.88" y2="107.03"/><line class="cls-1" x1="80.74" y1="106.01" x2="80.9" y2="105.79"/><line class="cls-1" x1="81.77" y1="104.82" x2="81.93" y2="104.6"/><line class="cls-1" x1="82.85" y1="103.68" x2="82.9" y2="103.63"/><line class="cls-1" x1="82.9" y1="103.63" x2="83.01" y2="103.52"/><line class="cls-1" x1="83.87" y1="102.5" x2="84.09" y2="102.33"/><line class="cls-1" x1="85.06" y1="101.47" x2="85.22" y2="101.31"/><line class="cls-1" x1="86.2" y1="100.44" x2="86.41" y2="100.28"/><line class="cls-1" x1="87.38" y1="99.42" x2="87.55" y2="99.26"/><line class="cls-1" x1="88.57" y1="98.45" x2="88.73" y2="98.28"/><line class="cls-1" x1="89.76" y1="97.53" x2="89.98" y2="97.37"/><line class="cls-1" x1="91.06" y1="96.61" x2="91.06" y2="96.61"/><line class="cls-1" x1="91.06" y1="96.61" x2="91.27" y2="96.45"/><line class="cls-1" x1="92.35" y1="95.75" x2="92.57" y2="95.58"/><line class="cls-1" x1="93.65" y1="94.88" x2="93.86" y2="94.77"/><line class="cls-1" x1="94.94" y1="94.13" x2="95.16" y2="93.96"/><line class="cls-1" x1="96.29" y1="93.37" x2="96.51" y2="93.26"/><line class="cls-1" x1="97.64" y1="92.61" x2="97.75" y2="92.56"/><line class="cls-1" x1="97.75" y1="92.56" x2="97.86" y2="92.51"/><line class="cls-1" x1="98.99" y1="91.91" x2="99.21" y2="91.86"/><line class="cls-1" x1="100.34" y1="91.37" x2="100.56" y2="91.26"/><line class="cls-1" x1="101.69" y1="90.78" x2="101.91" y2="90.67"/><line class="cls-1" x1="103.04" y1="90.18" x2="103.26" y2="90.08"/><line class="cls-1" x1="104.45" y1="89.64" x2="104.66" y2="89.54"/><line class="cls-1" x1="105.85" y1="89.16" x2="105.91" y2="89.16"/><line class="cls-1" x1="105.91" y1="89.16" x2="106.07" y2="89.1"/><line class="cls-1" x1="107.36" y1="88.94" x2="107.58" y2="88.89"/><line class="cls-1" x1="108.88" y1="88.73" x2="109.15" y2="88.73"/><line class="cls-1" x1="110.44" y1="88.62" x2="110.66" y2="88.56"/><line class="cls-1" x1="112.01" y1="88.56" x2="112.28" y2="88.56"/><line class="cls-1" x1="113.57" y1="88.51" x2="113.84" y2="88.51"/><line class="cls-1" x1="115.19" y1="88.51" x2="115.46" y2="88.51"/><line class="cls-1" x1="116.81" y1="88.51" x2="117.08" y2="88.56"/><line class="cls-1" x1="118.38" y1="88.67" x2="118.65" y2="88.67"/><line class="cls-1" x1="119.89" y1="88.89" x2="120.11" y2="88.94"/><line class="cls-1" x1="121.3" y1="89.32" x2="121.51" y2="89.43"/><line class="cls-1" x1="122.7" y1="89.91" x2="122.92" y2="90.02"/><line class="cls-1" x1="124.05" y1="90.62" x2="124.27" y2="90.72"/><line class="cls-1" x1="125.35" y1="91.37" x2="125.56" y2="91.53"/><line class="cls-1" x1="126.59" y1="92.29" x2="126.8" y2="92.45"/><line class="cls-1" x1="127.83" y1="93.21" x2="127.83" y2="93.21"/><line class="cls-1" x1="127.83" y1="93.21" x2="127.99" y2="93.37"/><line class="cls-1" x1="129.02" y1="94.23" x2="129.18" y2="94.4"/><line class="cls-1" x1="130.15" y1="95.26" x2="130.31" y2="95.42"/><line class="cls-1" x1="131.29" y1="96.34" x2="131.45" y2="96.56"/><line class="cls-1" x1="132.37" y1="97.53" x2="132.53" y2="97.74"/><line class="cls-1" x1="133.39" y1="98.72" x2="133.55" y2="98.93"/><line class="cls-1" x1="134.42" y1="99.96" x2="134.58" y2="100.17"/><line class="cls-1" x1="135.39" y1="101.2" x2="135.55" y2="101.42"/><line class="cls-1" x1="136.31" y1="102.5" x2="136.47" y2="102.71"/><line class="cls-1" x1="137.17" y1="103.79" x2="137.17" y2="103.79"/><line class="cls-1" x1="137.17" y1="103.79" x2="137.33" y2="104.01"/><line class="cls-1" x1="138.04" y1="105.09" x2="138.14" y2="105.3"/><line class="cls-1" x1="138.85" y1="106.38" x2="139.01" y2="106.6"/><line class="cls-1" x1="139.66" y1="107.73" x2="139.76" y2="107.95"/><line class="cls-1" x1="140.36" y1="109.03" x2="140.47" y2="109.25"/><line class="cls-1" x1="141.06" y1="110.38" x2="141.17" y2="110.6"/><line class="cls-1" x1="141.76" y1="111.73" x2="141.87" y2="111.95"/><line class="cls-1" x1="142.41" y1="113.08" x2="142.52" y2="113.3"/><line class="cls-1" x1="143" y1="114.43" x2="143.11" y2="114.65"/><line class="cls-1" x1="143.6" y1="115.83" x2="143.71" y2="116.05"/><line class="cls-1" x1="144.19" y1="117.24" x2="144.3" y2="117.45"/><line class="cls-1" x1="144.79" y1="118.64" x2="144.79" y2="118.7"/><line class="cls-1" x1="144.79" y1="118.7" x2="144.84" y2="118.86"/><line class="cls-1" x1="145.27" y1="120.05" x2="145.33" y2="120.26"/><line class="cls-1" x1="145.76" y1="121.45" x2="145.87" y2="121.67"/><line class="cls-1" x1="146.24" y1="122.85" x2="146.3" y2="123.07"/><line class="cls-1" x1="146.68" y1="124.26" x2="146.73" y2="124.47"/><line class="cls-1" x1="147.05" y1="125.66" x2="147.16" y2="125.88"/><line class="cls-1" x1="147.49" y1="127.12" x2="147.54" y2="127.34"/><line class="cls-1" x1="147.92" y1="128.58" x2="147.97" y2="128.79"/><line class="cls-1" x1="148.24" y1="130.04" x2="148.3" y2="130.25"/><line class="cls-1" x1="148.62" y1="131.49" x2="148.67" y2="131.71"/><line class="cls-1" x1="148.89" y1="132.95" x2="148.94" y2="133.17"/><line class="cls-1" x1="149.16" y1="134.41" x2="149.21" y2="134.63"/><line class="cls-1" x1="149.43" y1="135.92" x2="149.43" y2="136.03"/><line class="cls-1" x1="149.43" y1="136.03" x2="149.43" y2="136.03"/><line class="cls-1" x1="149.43" y1="136.03" x2="149.43" y2="136.08"/><line class="cls-1" x1="149.43" y1="136.08" x2="149.43" y2="136.08"/></g></g></svg>