<svg id="IC_CW2" xmlns="http://www.w3.org/2000/svg" xmlns:xlink="http://www.w3.org/1999/xlink" viewBox="0 0 300 263"><defs><style>.cls-1,.cls-2,.cls-5{fill:none;}.cls-2{stroke:#000;}.cls-2,.cls-5{stroke-width:0.5px;}.cls-3{isolation:isolate;}.cls-4{clip-path:url(#clip-path);}.cls-5{stroke:#1d1d1b;stroke-miterlimit:2;}</style><clipPath id="clip-path"><rect class="cls-1" x="39.82" y="46.84" width="221.1" height="170.24"/></clipPath></defs><title>ic-ceiling-wall-2-anastassiades-flos-F3179-spech-tech-02-300x263-01</title><line class="cls-2" x1="56.08" y1="36.59" x2="259.86" y2="37.46"/><line class="cls-2" x1="56.08" y1="35.82" x2="56.07" y2="37.35"/><line class="cls-2" x1="259.86" y1="36.69" x2="259.86" y2="38.22"/><g class="cls-3"><path d="M132,21.32h.59a3.82,3.82,0,0,0,1-.1,2.39,2.39,0,0,0,.79-.36,1.83,1.83,0,0,0,.54-.65,2.13,2.13,0,0,0,.2-1,1.83,1.83,0,0,0-.54-1.41,2.18,2.18,0,0,0-1.54-.51,2.37,2.37,0,0,0-1.27.31,2.56,2.56,0,0,0-.9.92l-1-.51a3.41,3.41,0,0,1,1.31-1.35,3.76,3.76,0,0,1,1.84-.43,4,4,0,0,1,1.26.2,3.09,3.09,0,0,1,1,.57A2.74,2.74,0,0,1,136,18a2.84,2.84,0,0,1,.25,1.26,2.58,2.58,0,0,1-.15.88,2.77,2.77,0,0,1-.42.75,3.11,3.11,0,0,1-.62.58,2.7,2.7,0,0,1-.74.37l0,0a2.54,2.54,0,0,1,.88.37,2.66,2.66,0,0,1,.69.65,3,3,0,0,1,.44.86,3.39,3.39,0,0,1,.16,1,3.35,3.35,0,0,1-.3,1.39,2.86,2.86,0,0,1-.79,1,3.3,3.3,0,0,1-1.15.63,4.54,4.54,0,0,1-1.39.21,4.25,4.25,0,0,1-2.18-.55,3.29,3.29,0,0,1-1.38-1.75l1.21-.36a2.41,2.41,0,0,0,.86,1.21,2.82,2.82,0,0,0,1.59.4,2.52,2.52,0,0,0,1.67-.61,2.09,2.09,0,0,0,.7-1.62,2.11,2.11,0,0,0-.23-1.08,1.94,1.94,0,0,0-.64-.72,2.85,2.85,0,0,0-.92-.4,4.7,4.7,0,0,0-1.08-.12H132Z"/><path d="M140.65,21.79a2.28,2.28,0,0,1-.68-.38,2.25,2.25,0,0,1-.53-.58,2.79,2.79,0,0,1-.35-.74,2.62,2.62,0,0,1-.13-.83,2.91,2.91,0,0,1,.26-1.23,3,3,0,0,1,1.71-1.52,3.49,3.49,0,0,1,1.21-.2,3.56,3.56,0,0,1,1.22.21,3,3,0,0,1,1,.6,2.73,2.73,0,0,1,.69.94,2.86,2.86,0,0,1,.25,1.22,2.83,2.83,0,0,1-.13.83,3.17,3.17,0,0,1-.36.74,2.48,2.48,0,0,1-.54.58,2.25,2.25,0,0,1-.68.37v0a2.7,2.7,0,0,1,1.53,1.07,3.21,3.21,0,0,1,.57,1.92,2.92,2.92,0,0,1-.3,1.33,3.25,3.25,0,0,1-.79,1,3.54,3.54,0,0,1-1.14.64,4.14,4.14,0,0,1-1.37.22,4.09,4.09,0,0,1-1.36-.23,3.46,3.46,0,0,1-1.14-.65,3.55,3.55,0,0,1-.78-1,3.05,3.05,0,0,1-.29-1.33,3.22,3.22,0,0,1,.59-1.92,2.69,2.69,0,0,1,1.54-1.05Zm3.89,2.87a2.56,2.56,0,0,0-.17-.93,2.29,2.29,0,0,0-.49-.73,2.14,2.14,0,0,0-.76-.5,3,3,0,0,0-1-.17,2.49,2.49,0,0,0-1,.17,2.06,2.06,0,0,0-.76.48,2.08,2.08,0,0,0-.49.74,2.27,2.27,0,0,0-.18.91,2.23,2.23,0,0,0,.17.93,2.26,2.26,0,0,0,.48.73,2.08,2.08,0,0,0,.76.49,2.67,2.67,0,0,0,1,.18,2.54,2.54,0,0,0,1-.17,2.11,2.11,0,0,0,1.26-1.22A2.27,2.27,0,0,0,144.54,24.66Zm-.39-5.29a2.11,2.11,0,0,0-.15-.8,1.93,1.93,0,0,0-.42-.63,2,2,0,0,0-.64-.42,2.11,2.11,0,0,0-.8-.15,1.9,1.9,0,0,0-.8.14,1.87,1.87,0,0,0-.64.42,1.65,1.65,0,0,0-.43.63,2.28,2.28,0,0,0-.16.8,2.15,2.15,0,0,0,.15.8,1.93,1.93,0,0,0,.42.63,2,2,0,0,0,.64.42,2.33,2.33,0,0,0,.8.16,2.07,2.07,0,0,0,.8-.15,1.87,1.87,0,0,0,.64-.42,1.65,1.65,0,0,0,.43-.63A2.28,2.28,0,0,0,144.15,19.37Z"/><path d="M152.11,27.87H151L151,18l-2,1.78-.72-.87,2.89-2.35h1Z"/><path d="M161.06,22.08c0-.27,0-.55,0-.83s0-.55,0-.83h1.14v1.13h0a2.53,2.53,0,0,1,1.07-1,2.86,2.86,0,0,1,1.35-.33,3.74,3.74,0,0,1,.65.06,2,2,0,0,1,.66.24,2,2,0,0,1,.6.47,2.33,2.33,0,0,1,.47.79,2.48,2.48,0,0,1,1-1.13,2.69,2.69,0,0,1,1.45-.41,2.76,2.76,0,0,1,2.13.76,3.2,3.2,0,0,1,.68,2.18l0,4.75h-1.06l0-4.37a3.25,3.25,0,0,0-.39-1.74,1.67,1.67,0,0,0-1.49-.62,2,2,0,0,0-1,.23,1.84,1.84,0,0,0-.65.62,2.63,2.63,0,0,0-.37.87,4.74,4.74,0,0,0-.11,1l0,4h-1.06l0-4.37a3.06,3.06,0,0,0-.39-1.74,1.66,1.66,0,0,0-1.49-.62l-.44.06a1.8,1.8,0,0,0-.71.35,2.55,2.55,0,0,0-.67.86,3.53,3.53,0,0,0-.3,1.6l0,3.84H161Z"/><path d="M174.69,22.14a7.73,7.73,0,0,0,0-.83c0-.28,0-.55,0-.83h1.14v1.14h0a2.41,2.41,0,0,1,1.06-1,3.12,3.12,0,0,1,1.36-.33,3.79,3.79,0,0,1,.64.07,2.42,2.42,0,0,1,.67.23,2.64,2.64,0,0,1,.6.48,2.39,2.39,0,0,1,.46.79,2.56,2.56,0,0,1,1-1.14,2.87,2.87,0,0,1,1.45-.41,2.77,2.77,0,0,1,2.13.77,3.19,3.19,0,0,1,.68,2.17l0,4.76h-1.06l0-4.37a3.23,3.23,0,0,0-.39-1.74,1.67,1.67,0,0,0-1.49-.62,2,2,0,0,0-1,.23,1.9,1.9,0,0,0-.65.61,2.58,2.58,0,0,0-.36.87,4.31,4.31,0,0,0-.12,1l0,4h-1.05V23.62a3.09,3.09,0,0,0-.39-1.75,1.65,1.65,0,0,0-1.48-.61l-.44.06a1.84,1.84,0,0,0-.72.35,2.68,2.68,0,0,0-.67.86,3.83,3.83,0,0,0-.3,1.6V28h-1.06Z"/></g><line class="cls-2" x1="263.79" y1="226.49" x2="107.54" y2="226.49"/><line class="cls-2" x1="263.79" y1="228.03" x2="263.79" y2="224.85"/><line class="cls-2" x1="107.54" y1="228.03" x2="107.54" y2="224.85"/><g class="cls-3"><path d="M157.29,240.42a3.62,3.62,0,0,1,.68,1.16,4.29,4.29,0,0,1-.05,3,3.67,3.67,0,0,1-.82,1.25,3.62,3.62,0,0,1-1.26.82,4.43,4.43,0,0,1-3,.07,3.94,3.94,0,0,1-1.11-.6l-1.07,1.08-.51-.49,1.05-1.09a3.72,3.72,0,0,1-.68-1.18,4.17,4.17,0,0,1-.24-1.43,4.26,4.26,0,0,1,.29-1.57,3.8,3.8,0,0,1,.83-1.24,3.7,3.7,0,0,1,1.25-.83,4.36,4.36,0,0,1,1.59-.29,4.47,4.47,0,0,1,1.4.21,4,4,0,0,1,1.15.62l1.05-1.09.52.5Zm-1.25.26a2.64,2.64,0,0,0-1.81-.62,2.78,2.78,0,0,0-1.17.23,2.45,2.45,0,0,0-.88.63,2.86,2.86,0,0,0-.56.94,3.51,3.51,0,0,0-.2,1.17,3,3,0,0,0,.54,1.83Zm-3.6,4.72a2.74,2.74,0,0,0,1.79.61,3,3,0,0,0,1.18-.23,2.74,2.74,0,0,0,.89-.64,3,3,0,0,0,.57-.94,3.42,3.42,0,0,0,.2-1.17,3.06,3.06,0,0,0-.55-1.82Z"/><path d="M166.7,240.31h.59a3.69,3.69,0,0,0,1-.11,2,2,0,0,0,.79-.36,1.72,1.72,0,0,0,.54-.65,2.13,2.13,0,0,0,.2-1,1.79,1.79,0,0,0-.55-1.41,2.19,2.19,0,0,0-1.55-.51,2.46,2.46,0,0,0-1.26.32,2.68,2.68,0,0,0-.9.93l-1-.51a3.33,3.33,0,0,1,1.3-1.35,3.65,3.65,0,0,1,1.83-.44,4.07,4.07,0,0,1,1.27.19,3.18,3.18,0,0,1,1,.57,2.81,2.81,0,0,1,.71.92,3,3,0,0,1,.26,1.26,2.58,2.58,0,0,1-.15.88,2.5,2.5,0,0,1-.42.75,2.76,2.76,0,0,1-1.35,1l.05,0a2.72,2.72,0,0,1,.88.36,2.85,2.85,0,0,1,.69.65,3.26,3.26,0,0,1,.45.87,3.32,3.32,0,0,1,.16,1,3.27,3.27,0,0,1-.29,1.4,3,3,0,0,1-.79,1,3.3,3.3,0,0,1-1.15.63,4.26,4.26,0,0,1-1.39.22,4.18,4.18,0,0,1-2.18-.55,3.33,3.33,0,0,1-1.39-1.74l1.22-.37a2.37,2.37,0,0,0,.85,1.21,2.8,2.8,0,0,0,1.6.39,2.53,2.53,0,0,0,.91-.16,2.32,2.32,0,0,0,.76-.45,2.05,2.05,0,0,0,.51-.72,2.24,2.24,0,0,0,.18-.91,2.27,2.27,0,0,0-.24-1.08,2,2,0,0,0-.64-.71,2.64,2.64,0,0,0-.92-.39,4.7,4.7,0,0,0-1.08-.12h-.49Z"/><path d="M176.78,235.26a3.17,3.17,0,0,1,2,.56,3.66,3.66,0,0,1,1.16,1.42,6.17,6.17,0,0,1,.56,1.9,13.58,13.58,0,0,1,.15,2,13.82,13.82,0,0,1-.15,2,6,6,0,0,1-.56,1.89,3.69,3.69,0,0,1-1.16,1.43,3.75,3.75,0,0,1-3.94,0,3.81,3.81,0,0,1-1.17-1.43,6.6,6.6,0,0,1-.56-1.89,15.36,15.36,0,0,1-.14-2,15.09,15.09,0,0,1,.14-2,6.77,6.77,0,0,1,.56-1.9,3.78,3.78,0,0,1,1.17-1.42A3.17,3.17,0,0,1,176.78,235.26Zm0,1.05a2.09,2.09,0,0,0-1.47.5,3.17,3.17,0,0,0-.8,1.23,6.09,6.09,0,0,0-.35,1.57c0,.55-.07,1-.07,1.5s0,.95.07,1.51a6.11,6.11,0,0,0,.35,1.56,3.2,3.2,0,0,0,.8,1.24,2.09,2.09,0,0,0,1.47.49,2.06,2.06,0,0,0,1.46-.49,3.11,3.11,0,0,0,.81-1.24,5.71,5.71,0,0,0,.34-1.56c.05-.56.08-1.06.08-1.51s0-1-.08-1.5a5.7,5.7,0,0,0-.34-1.57,3.08,3.08,0,0,0-.81-1.23A2.07,2.07,0,0,0,176.78,236.31Z"/><path d="M185.67,235.26a3.17,3.17,0,0,1,2,.56,3.78,3.78,0,0,1,1.17,1.42,6.45,6.45,0,0,1,.56,1.9,13.53,13.53,0,0,1,.14,2,13.76,13.76,0,0,1-.14,2,6.3,6.3,0,0,1-.56,1.89,3.81,3.81,0,0,1-1.17,1.43,3.73,3.73,0,0,1-3.93,0,3.81,3.81,0,0,1-1.17-1.43,6,6,0,0,1-.56-1.89,13.82,13.82,0,0,1-.15-2,13.58,13.58,0,0,1,.15-2,6.17,6.17,0,0,1,.56-1.9,3.78,3.78,0,0,1,1.17-1.42A3.14,3.14,0,0,1,185.67,235.26Zm0,1.05a2.09,2.09,0,0,0-1.46.5,3.08,3.08,0,0,0-.81,1.23,6.09,6.09,0,0,0-.34,1.57c-.05.55-.07,1-.07,1.5s0,.95.07,1.51a6.1,6.1,0,0,0,.34,1.56,3.11,3.11,0,0,0,.81,1.24,2.44,2.44,0,0,0,2.93,0,3.22,3.22,0,0,0,.81-1.24,6.1,6.1,0,0,0,.34-1.56c.05-.56.07-1.06.07-1.51s0-1-.07-1.5A6.09,6.09,0,0,0,188,238a3.19,3.19,0,0,0-.81-1.23A2.09,2.09,0,0,0,185.67,236.31Z"/><path d="M195.72,241c0-.28,0-.55,0-.83l-.06-.83h1.14v1.13h0a2.59,2.59,0,0,1,1.06-1,3.12,3.12,0,0,1,1.36-.33,3.72,3.72,0,0,1,.64.06,2.42,2.42,0,0,1,.67.23,2.34,2.34,0,0,1,.6.47,2.85,2.85,0,0,1,.47.79,2.45,2.45,0,0,1,1-1.14,2.81,2.81,0,0,1,1.44-.41,2.73,2.73,0,0,1,2.13.76,3.1,3.1,0,0,1,.69,2.16v4.76h-1.06v-4.37a3.17,3.17,0,0,0-.4-1.75,1.64,1.64,0,0,0-1.48-.6,1.92,1.92,0,0,0-1,.23,1.87,1.87,0,0,0-.64.61,2.55,2.55,0,0,0-.36.88,4.17,4.17,0,0,0-.12,1v4h-1.05v-4.37a3.26,3.26,0,0,0-.4-1.75,1.66,1.66,0,0,0-1.49-.6l-.44.06a1.62,1.62,0,0,0-.71.35,2.5,2.5,0,0,0-.67.87,3.63,3.63,0,0,0-.29,1.6v3.84h-1.06Z"/><path d="M209.35,241c0-.28,0-.55,0-.83l-.06-.83h1.14v1.13h0a2.56,2.56,0,0,1,1.07-1,3.05,3.05,0,0,1,1.35-.33,3.83,3.83,0,0,1,.65.06,2.25,2.25,0,0,1,.66.23,2.34,2.34,0,0,1,.6.47,2.63,2.63,0,0,1,.47.79,2.5,2.5,0,0,1,1-1.14,2.82,2.82,0,0,1,1.45-.41,2.69,2.69,0,0,1,2.12.76,3.1,3.1,0,0,1,.69,2.16v4.76h-1.05v-4.37a3.26,3.26,0,0,0-.4-1.75,1.67,1.67,0,0,0-1.49-.6,1.86,1.86,0,0,0-1,.23,1.81,1.81,0,0,0-.65.61,2.55,2.55,0,0,0-.36.88,4.17,4.17,0,0,0-.11,1v4h-1.06v-4.37a3.17,3.17,0,0,0-.4-1.75,1.66,1.66,0,0,0-1.49-.6l-.44.06a1.67,1.67,0,0,0-.71.35,2.37,2.37,0,0,0-.66.87,3.48,3.48,0,0,0-.3,1.6v3.84h-1.06Z"/></g><line class="cls-2" x1="29.98" y1="106.56" x2="30.04" y2="164.54"/><line class="cls-2" x1="31.05" y1="106.56" x2="28.84" y2="106.56"/><line class="cls-2" x1="31.11" y1="164.54" x2="28.9" y2="164.54"/><g class="cls-3"><path d="M15.33,162.15a3.62,3.62,0,0,1,1.16-.68,4.24,4.24,0,0,1,1.45-.24,4.07,4.07,0,0,1,1.57.31,3.73,3.73,0,0,1,2.06,2.09,4.58,4.58,0,0,1,.05,3,4,4,0,0,1-.61,1.11l1.08,1.07-.5.51-1.08-1.06a3.64,3.64,0,0,1-1.18.68,4.4,4.4,0,0,1-3-.07,3.73,3.73,0,0,1-2.06-2.09,4.38,4.38,0,0,1-.29-1.6,4.45,4.45,0,0,1,.23-1.39,3.76,3.76,0,0,1,.62-1.15l-1.08-1.06.5-.51Zm.25,1.24a2.7,2.7,0,0,0-.64,1.81,2.79,2.79,0,0,0,.23,1.18,2.65,2.65,0,0,0,.62.88,3.07,3.07,0,0,0,.94.57,3.51,3.51,0,0,0,1.17.2,2.94,2.94,0,0,0,1.83-.53Zm4.7,3.63a2.72,2.72,0,0,0,.45-.8,3.21,3.21,0,0,0-.06-2.17,2.67,2.67,0,0,0-.63-.89,3,3,0,0,0-.94-.57,3.68,3.68,0,0,0-1.17-.21,3.13,3.13,0,0,0-1.82.54Z"/><path d="M21.74,150.47v1.15l-9.89-.05,1.78,2-.87.71-2.35-2.89v-1Z"/><path d="M21.79,141.57v1.16l-9.89-.06,1.78,2-.87.72-2.35-2.89v-1Z"/><path d="M10.32,133.73a3.15,3.15,0,0,1,.57-2,3.69,3.69,0,0,1,1.43-1.16,6.16,6.16,0,0,1,1.9-.55,14,14,0,0,1,4,0,6.31,6.31,0,0,1,1.89.57,3.71,3.71,0,0,1,1.42,1.18,3.73,3.73,0,0,1,0,3.93A3.77,3.77,0,0,1,20,136.92a6.16,6.16,0,0,1-1.9.55,13.76,13.76,0,0,1-2,.14,15.21,15.21,0,0,1-2-.16,6.46,6.46,0,0,1-1.9-.57,3.82,3.82,0,0,1-1.41-1.17A3.22,3.22,0,0,1,10.32,133.73Zm1,0a2.09,2.09,0,0,0,.49,1.47,3.08,3.08,0,0,0,1.23.81,5.71,5.71,0,0,0,1.57.35q.83.07,1.5.09c.45,0,.95,0,1.5-.07a6.08,6.08,0,0,0,1.57-.33,3.11,3.11,0,0,0,1.24-.81,2.42,2.42,0,0,0,0-2.92,3.21,3.21,0,0,0-1.23-.82,6.09,6.09,0,0,0-1.57-.35c-.55,0-1.05-.08-1.5-.08s-1,0-1.51.06a6.27,6.27,0,0,0-1.57.34,3.06,3.06,0,0,0-1.23.8A2.1,2.1,0,0,0,11.37,133.74Z"/><path d="M16.07,123.72c-.28,0-.55,0-.83,0l-.83.05v-1.14h1.14v0a2.49,2.49,0,0,1-1-1.07,3.12,3.12,0,0,1-.33-1.36,5.2,5.2,0,0,1,.07-.64,2.45,2.45,0,0,1,.24-.67,2.14,2.14,0,0,1,.47-.59,2.44,2.44,0,0,1,.79-.47,2.48,2.48,0,0,1-1.13-1,3.09,3.09,0,0,1,.36-3.58,3.14,3.14,0,0,1,2.17-.67l4.76,0v1.06l-4.37,0a3.23,3.23,0,0,0-1.74.39,1.65,1.65,0,0,0-.62,1.49,1.89,1.89,0,0,0,.23,1,1.73,1.73,0,0,0,.61.65,2.63,2.63,0,0,0,.87.37,4.73,4.73,0,0,0,1,.12l4,0v1l-4.37,0a3.25,3.25,0,0,0-1.74.39,1.67,1.67,0,0,0-.62,1.49,3.61,3.61,0,0,0,.06.44,1.67,1.67,0,0,0,.35.71,2.55,2.55,0,0,0,.86.67,3.51,3.51,0,0,0,1.6.3l3.84,0v1.06Z"/><path d="M16.15,110.09a7.85,7.85,0,0,0-.84,0l-.83,0V109h1.13v0a2.53,2.53,0,0,1-1-1.07,3.12,3.12,0,0,1-.33-1.36,3.07,3.07,0,0,1,.07-.65,2.36,2.36,0,0,1,.23-.66,2.64,2.64,0,0,1,.48-.6,2.39,2.39,0,0,1,.79-.46,2.45,2.45,0,0,1-1.13-1,2.64,2.64,0,0,1-.41-1.45,2.71,2.71,0,0,1,.77-2.12,3.17,3.17,0,0,1,2.17-.68L22,99V100l-4.37,0a3.27,3.27,0,0,0-1.75.39,1.67,1.67,0,0,0-.61,1.49,1.91,1.91,0,0,0,.22,1,1.93,1.93,0,0,0,.62.65,2.67,2.67,0,0,0,.86.37,4.9,4.9,0,0,0,1,.11l4,0v1l-4.37,0a3.09,3.09,0,0,0-1.75.39,1.65,1.65,0,0,0-.61,1.48,3.37,3.37,0,0,0,.06.44,1.71,1.71,0,0,0,.35.72,2.68,2.68,0,0,0,.86.67,3.48,3.48,0,0,0,1.6.3l3.84,0v1.06Z"/></g><line class="cls-2" x1="269.9" y1="47.02" x2="270.08" y2="217.26"/><line class="cls-2" x1="271.44" y1="47.02" x2="268.27" y2="47.02"/><line class="cls-2" x1="271.62" y1="217.26" x2="268.44" y2="217.26"/><g class="cls-3"><path d="M283.23,171.66v-.6a4.26,4.26,0,0,0-.11-.95,2,2,0,0,0-.36-.79,1.68,1.68,0,0,0-.64-.54,2.06,2.06,0,0,0-1-.21,1.82,1.82,0,0,0-1.42.55,2.17,2.17,0,0,0-.51,1.54,2.36,2.36,0,0,0,.31,1.26,2.41,2.41,0,0,0,.92.9l-.51,1a3.35,3.35,0,0,1-1.35-1.31,3.76,3.76,0,0,1-.43-1.84,4,4,0,0,1,.2-1.26,3.18,3.18,0,0,1,.57-1,2.86,2.86,0,0,1,.94-.7,2.77,2.77,0,0,1,1.25-.26,2.33,2.33,0,0,1,.88.16,2.5,2.5,0,0,1,.75.42,2.92,2.92,0,0,1,1,1.36l0-.05a2.52,2.52,0,0,1,.36-.88,3,3,0,0,1,.65-.69,3.24,3.24,0,0,1,.87-.44,3.09,3.09,0,0,1,1-.15,3.26,3.26,0,0,1,1.39.29,3.18,3.18,0,0,1,1,.79,3.49,3.49,0,0,1,.62,1.16,4,4,0,0,1,.21,1.39,4.28,4.28,0,0,1-.55,2.18,3.37,3.37,0,0,1-1.76,1.38l-.36-1.22a2.38,2.38,0,0,0,1.22-.85,2.87,2.87,0,0,0,.4-1.59,2.49,2.49,0,0,0-.16-.91,2.2,2.2,0,0,0-.45-.77,2.15,2.15,0,0,0-.71-.51,2.12,2.12,0,0,0-.91-.19,2.21,2.21,0,0,0-1.08.23,2,2,0,0,0-.72.64,2.72,2.72,0,0,0-.39.92,4.21,4.21,0,0,0-.13,1.08v.49Z"/><path d="M289.76,160.49v1.15l-9.89,0,1.78,2-.86.72-2.36-2.9v-1Z"/><path d="M283.33,154.06l0,0a2.12,2.12,0,0,1-.28-.74,4.28,4.28,0,0,1-.09-.83,3.42,3.42,0,0,1,.27-1.37A3.31,3.31,0,0,1,284,150a3.23,3.23,0,0,1,1.11-.72,3.84,3.84,0,0,1,2.83,0,3.17,3.17,0,0,1,1.1.77,3.49,3.49,0,0,1,.72,1.17,4.48,4.48,0,0,1,0,2.95,3.47,3.47,0,0,1-.73,1.16,3.06,3.06,0,0,1-1.11.76,3.59,3.59,0,0,1-1.42.27,4.59,4.59,0,0,1-1.65-.29,8.2,8.2,0,0,1-1.38-.71l-5-3.08v-1.36Zm3.15,1.17a2.64,2.64,0,0,0,1-.18,2.25,2.25,0,0,0,1.28-1.31,3,3,0,0,0,0-2.05,2.4,2.4,0,0,0-.5-.81,2.32,2.32,0,0,0-.78-.52,2.57,2.57,0,0,0-1-.19,2.64,2.64,0,0,0-1,.18,2.06,2.06,0,0,0-.77.52,2.56,2.56,0,0,0-.51.79,2.93,2.93,0,0,0,0,2.05,2.41,2.41,0,0,0,.5.8,2.26,2.26,0,0,0,.76.53A2.87,2.87,0,0,0,286.48,155.23Z"/><path d="M284,142.64a7.73,7.73,0,0,0-.83,0l-.83.05v-1.14h1.13v0a2.45,2.45,0,0,1-1-1.06,3,3,0,0,1-.33-1.36,3.07,3.07,0,0,1,.07-.65,2.47,2.47,0,0,1,.23-.66,2.19,2.19,0,0,1,.48-.6,2.44,2.44,0,0,1,.78-.46,2.5,2.5,0,0,1-1.13-1,3.1,3.1,0,0,1,.37-3.57,3.12,3.12,0,0,1,2.17-.67l4.75,0v1.06l-4.36,0a3.27,3.27,0,0,0-1.75.39,1.67,1.67,0,0,0-.62,1.49,2,2,0,0,0,.23,1,1.9,1.9,0,0,0,.61.65,2.82,2.82,0,0,0,.87.37,5.69,5.69,0,0,0,1,.12l4,0v1.05l-4.37,0a3.09,3.09,0,0,0-1.75.39,1.65,1.65,0,0,0-.61,1.48,3.37,3.37,0,0,0,.06.44,1.71,1.71,0,0,0,.35.72,2.45,2.45,0,0,0,.86.67,3.46,3.46,0,0,0,1.59.3l3.84,0v1.06Z"/><path d="M284.11,129c-.28,0-.55,0-.83,0l-.83.06v-1.14h1.14v0a2.39,2.39,0,0,1-1-1.07,3.05,3.05,0,0,1-.33-1.35,5.35,5.35,0,0,1,.07-.65,2.28,2.28,0,0,1,.24-.66,2.34,2.34,0,0,1,.47-.6,2.61,2.61,0,0,1,.79-.46,2.45,2.45,0,0,1-1.13-1,3.07,3.07,0,0,1,.36-3.57,3.14,3.14,0,0,1,2.17-.68l4.76,0v1.06l-4.37,0a3.23,3.23,0,0,0-1.74.39,1.65,1.65,0,0,0-.62,1.49,1.91,1.91,0,0,0,.23,1,1.81,1.81,0,0,0,.61.65,2.63,2.63,0,0,0,.87.37,4.74,4.74,0,0,0,1,.11l4,0v1l-4.37,0a3.08,3.08,0,0,0-1.74.39,1.65,1.65,0,0,0-.62,1.48,3.37,3.37,0,0,0,.06.44,1.71,1.71,0,0,0,.35.72,2.68,2.68,0,0,0,.86.67,3.64,3.64,0,0,0,1.6.3l3.84,0V129Z"/></g><g class="cls-4"><path class="cls-5" d="M198,58.51H171m0,0h-9.7m36.2,0,.92.2.92.23.92.23.91.25.91.25L203,60l.9.27.91.3.89.3.9.31.89.32.89.32.88.34.87.35.91.37.9.38,1.27.58,1.28.59,1.22.59,1.2.61,1.2.64,1.18.66,1.18.67,1.16.69,1.16.71,1.14.74,1.11.75,1.12.77,1.1.79,1.09.8,1.07.83,1.06.85,1,.85,1,.88,1,.9,1,.91,1,.93,1,1,.95,1,.94,1,.92,1,.9,1,.88,1,.87,1,.85,1,.83,1.07.81,1.08.79,1.09.78,1.11.75,1.12.74,1.13.71,1.15.69,1.16.68,1.16.67,1.19.63,1.19.63,1.21.59,1.21.57,1.22.56,1.23.53,1.24.51,1.25.5,1.26.47,1.26.44,1.28.44,1.29.4,1.28.38,1.3.36,1.3.35,1.31.3,1.31.31,1.32.26,1.32.26,1.32.22,1.34.21,1.34.18,1.33.15,1.34.14,1.36.11,1.34.1,1.34.06,1.34.05,1.36,0,1.35v1.35l0,1.34-.05,1.35-.06,1.36-.1,1.34-.12,1.35-.13,1.35-.16,1.34-.19,1.33-.21,1.33-.22,1.35-.26,1.32-.28,1.32-.29,1.32-.32,1.31-.34,1.31-.37,1.3-.38,1.3L256,161l-.43,1.28-.45,1.27-.47,1.26-.5,1.26-.52,1.25-.54,1.24-.55,1.23L252,171l-.59,1.21-.62,1.2-.64,1.19-.66,1.17-.69,1.17-.69,1.16-.72,1.15-.74,1.13-.76,1.12-.78,1.1-.78,1.1-.83,1.08-.83,1.06-.85,1.06-.87,1-.89,1-.89,1-.93,1-.93,1-1,1-1,.94-1,.93-1,.91-1,.89-1,.88-1.05.86-1.06.84-1.07.83-1.09.8-1.1.78-1.11.77-1.14.75-1.13.73-1.15.71-1.17.69-1.18.68-1.18.65-1.2.62-1.21.62-1.22.59-1.23.56-1.23.56-1.25.53-1.26.5-1.26.49-1.28.45-1.28.45-1.29.42-1.29.4-1.3.38-1.31.36-1.31.32-1.32.31-1.35.3-1.35.28-.94.16-.94.16-.93.15-.94.15-.93.12-.94.11-.94.11-.94.1-.94.08-.94.07-1,.07-.95.05-.94,0-.95,0-1,0h-.94M162.35,58.52l-.92.2-.92.23-.92.23-.91.25-.92.25-.9.27-.9.27-.9.3-.91.3-.89.31-.89.32-.88.32-.89.34-.87.35-.91.37-.89.38-1.28.58-1.29.59-1.21.59-1.2.61-1.2.64-1.2.66-1.16.67-1.17.69-1.15.71-1.14.74-1.13.75-1.11.77-1.1.79-1.08.8-1.07.83-1.06.85-1,.85-1,.88-1,.9-1,.91-1,.93-1,1-1,1-.93,1-.92,1-.9,1-.88,1-.87,1L117,87,116.21,88l-.81,1.08-.79,1.09-.77,1.11-.76,1.12-.73,1.13-.73,1.15-.7,1.16L110.25,97l-.66,1.19L109,99.41l-.62,1.21-.6,1.21-.58,1.22-.55,1.23-.53,1.24-.52,1.25-.49,1.26-.47,1.26-.45,1.28-.43,1.29-.4,1.28-.39,1.3-.36,1.3-.34,1.31-.32,1.31-.29,1.32-.27,1.32-.25,1.32-.22,1.34-.2,1.34-.19,1.33-.16,1.34L100.2,129l-.12,1.34-.09,1.34-.06,1.34-.05,1.36,0,1.35v1.35l0,1.34.05,1.35.07,1.36.1,1.34.12,1.35.13,1.35.16,1.34.19,1.33.21,1.33.22,1.35.26,1.32.27,1.32.3,1.32.32,1.31.34,1.31.37,1.3.39,1.3.4,1.28.43,1.28.45,1.27.47,1.26.5,1.26.51,1.25.54,1.24.56,1.23.58,1.23.6,1.21.62,1.2.64,1.19.66,1.17L111,177l.7,1.16.72,1.15.73,1.13.77,1.12.78,1.1.79,1.1.81,1.08.83,1.06.85,1.06.88,1,.88,1,.9,1,.92,1,.94,1,1,1,1,.94,1,.93,1,.91,1,.89,1,.88,1,.86,1.06.84,1.07.83,1.1.8,1.1.78,1.11.77,1.13.75,1.14.73,1.15.71,1.16.69,1.18.68,1.19.65,1.2.62,1.2.62,1.23.59,1.22.56,1.24.56,1.25.53,1.26.5,1.26.49,1.27.45,1.28.45,1.29.42,1.3.4,1.3.38,1.31.36,1.3.32,1.32.31,1.36.3,1.35.28.94.16.94.16.93.15.93.15.94.12.95.11.93.11.94.1,1,.08.94.07.94.07.94.05.95,0,.94,0,1,0h.95M260,56.3H186m-1.6,0H170.35m.25,0H65.17M260,47.8H56.63M186,56.3l-.27,0-.67,0-.66.07m75.52,0V52.06m0,0V47.8M56.63,144.14v71.71m8.54,0H56.63M65.17,56.3V215.85m0-159.55L60.9,52.06M56.63,47.8l4.27,4.26M56.63,47.8v80.25"/></g><path class="cls-5" d="M186.09,56.64l-12.13,0"/><path class="cls-5" d="M172.32,56.48m-2,0,0,0h-.69m13.81,0v.09m1.59-.09v.2m-8.76-.18h0l-.65,0-.67,0-.66,0m-1.31.09-.45,0-.67,0-.66.07-.66.06-.67.07-.65.07-.65.08-.67.09-.66.09-.65.1-.66.1-.66.12-.65.11-.65.12-.65.12-.65.13m32.55,0-.31-.07-.65-.13-.65-.12-.66-.11-.65-.11-.66-.1-.65-.11-.66-.09-.66-.09-.66-.08-.66-.09-.65-.07-.66-.07-.66-.07-.67-.05-.66,0m-22.38,1.43v0m32.55,0v0m-32.55,0H179m14.29,0H179m14.29,0h2M174,56.61l-1,.06m0,0,.34,0m.63,0,.34,0m0,0-1.46-.1m3.46,0v0M41.3,164.54l.35-.22.55-.35.55-.39.53-.39.53-.4.52-.41.51-.41.51-.44.5-.43.49-.45.47-.45.47-.46.46-.48.45-.49.45-.49.43-.5.42-.5.41-.52.41-.52.39-.53.38-.54.38-.55.35-.56.36-.55.34-.57.33-.57.31-.58.31-.59.3-.58.29-.59.27-.62.26-.6.25-.61.23-.61.23-.62.22-.63.19-.62.2-.64.17-.63m0-17.78-.11-.41-.18-.63-.2-.63-.2-.62-.23-.62-.23-.62-.25-.62-.25-.6-.27-.6-.28-.59-.29-.6-.31-.58L53,119l-.32-.58-.34-.57-.34-.57-.36-.54-.37-.55-.38-.55-.39-.53-.4-.53-.41-.51-.42-.51-.43-.5-.43-.51-.45-.48-.46-.47-.47-.48-.48-.45-.48-.46-.49-.44-.51-.42-.5-.43-.52-.41-.52-.41-.54-.39-.54-.39-.54-.36-.57-.37m0,42.9v15.08m14.77-20.09v-.11l0-.05,0-.06v-.06l0-.06v-.05l0-.06v-.11l0-.06v-.12l0-.06v-.11l0,0v-.12l0-.06v-.16l0-.06v-.24l0,0v-.29l0,0v-.29l0,0v-1.9l0-.05v-3.09M41.3,106.56v42.9m15.8-12.38,0-.7v-1.87l0-1,0-.67,0-.57-.07-.65-.1-.78-.1-.75-.13-.83-.2-1.05-.19-1-.13-.53M41.3,140.5v.67m0-.68h0m0-4.93v.33m0-.69v.36m-.26-7v0l.26.55m0-10.41h0l-.26.55m0,7.21v2.07m-.26-2.87v.21l.25.58m0-7.2-.11.18-.15.62m.52,24.25-.37.43-.15.63m0,5.61.12.56.41.49m0-7.72-.37.43-.15.63m0,5.61.12.56.41.49m0-33-.38.43-.15.62m0,5.61.12.55.4.51m-.52,23.91v-5.27m0,5.61v-.34m0-30.58v.34m0,0v5.27M197.54,58.25l0,.42m0-.15-1.49-.4m-34.06.34v-.34m33.31,0h.7m-25.12,0h25.12m0,0h0m-25.12,0H162m.71,0H162m-.05,0H162m33.61,0H170m.1.16h-7.73"/></svg>