<svg id="IC_F1" data-name="IC F1" xmlns="http://www.w3.org/2000/svg" xmlns:xlink="http://www.w3.org/1999/xlink" viewBox="0 0 300 263"><defs><style>.cls-1,.cls-3,.cls-5{fill:none;}.cls-2{clip-path:url(#clip-path);}.cls-3{stroke:#1d1d1b;stroke-linecap:round;stroke-linejoin:round;}.cls-3,.cls-5{stroke-width:0.5px;}.cls-4{isolation:isolate;}.cls-5{stroke:#000;}</style><clipPath id="clip-path"><rect id="SVGID" class="cls-1" x="129.33" y="76.1" width="37.17" height="141.12"/></clipPath></defs><title>ic-floor-1-anastassiades-flos-F3173059-spech-tech-02-300x263</title><g class="cls-2"><path class="cls-3" d="M138.51,207v.21l.11.11v.54l.11.11v.32l.11.11v.11l.1.21v.22l.11.11v.11l.11.11.11.1v.11l.11.11v.11l.1.1.11.11V210l.11.11.11.11.11.1v.11l.21.22m1.3,1.19.22.21.21.22.22.11.21.11.22.1.32.22.22.11.22.11.21.11.33.21.21.11.33.11.32.1.22.11.32.11.33.11.32.11.32.1.33.11.32.11h.33l.32.11.65.11.76.11.64.1.76.11h.76l.75.11h1.41L154,215h.75l.65-.11.76-.1.65-.22.64-.11.65-.11.65-.21.54-.22.32-.11.33-.11.21-.1.33-.11.22-.11.21-.11.32-.1.22-.22.22-.11.32-.11.22-.21.21-.11.33-.22.21-.11.22-.21.22-.11.21-.22.22-.21.21-.11.22-.22.22-.21.11-.22.21-.22.11-.21L165,210l.11-.11.1-.11v-.1l.11-.11.11-.11v-.11l.11-.1v-.11l.11-.11v-.11l.1-.11v-.11l.11-.11v-.1l.11-.11v-.32l.11-.11v-.33l.11-.11v-1.07m-9-110.23v-.11m.21,0h-.21M138.3,211.61l17.83-9m1.62,1,.1-.1m8.43,2.7-.1.43m-10.05-8.43-.33-.11h-.43l-.43-.1h-1.3l-.32-.11h-1.73l-.44.11h-.75l-.43.1h-.44l-.43.11h-.32l-.43.11-.33.11h-.43l-.33.11-.43.1-.32.11-.33.11-.32.11-.43.11-.33.1-.32.11-.22.22-.32.11-.33.11-.43.21-.43.22-.22.11-.21.1-.11.11-.22.22-.21.1-.22.11-.21.11-.11.22-.22.11-.21.1-.11.22-.22.11-.11.21-.21.11-.11.22-.22.11-.11.21-.1.11-.22.22-.11.21-.11.11-.1.22-.11.21-.11.11-.11.22-.11.21v.11l-.1.11v.22l-.11.1v.44l-.11.1v.44l-.11.1v1l.11.11v.53l.11.11v.33l.11.11v.1l.1.11v.22l.11.21.11.11.11.22.11.22.1.1.11.22.11.11.11.21.11.22.21.11.11.21.11.11m17.4-114V203.61M157.64,96.2h-.11m.22.33v.11m-19.67,115.3v-.22h.11v-.11h.43v.11h.11v.11l.11.11v.1h.1v.22h.11v.32h.11v.33h-.11v.22h-.32V213h-.11v-.11h-.11v-.11h-.11v-.11M157.53,97.28l.11-.21m-1.19,1.29.11-.1m.43-.33.33-.32m.21,105.9.22.1m-.22-107.52h-.11m-.32,107.2-.11-.11M156.88,98l.11-.11m.43,105.47-.32-.11m.65-106.55v-.1m-1.41,106.11-.11-.11M138.51,207v-.44M156.78,203l-.22-.11m0,0h-.11m0,0-.11-.11m-.11-.11h-.1M157.42,97.5v.11m.11-.22v-.11m.22-.86-.11-.22M138.19,212l.11.22m19.23-8.75-.11-.11m-19.34,8.54.11.32m.54.32v-.32h-.11v-.11M156.45,98.36l-20.75,6.16m13.08-27.44.21.1.33.11.21.11.33.11.21.21.33.11.21.11.22.22.32.1.22.22.22.11.21.22.33.21.21.11.22.22.21.21.22.22.22.21.21.22.22.22.11.21.22.22.21.21.11.22.22.22.21.32.11.22.11.21.21.33.11.21.11.33.22.21.1.33.11.21.11.33.11.21.11.33V85l.1.33.11.32.11.22v.32l.11.33V87l.11.32V90l-.11.22v.32l-.11.33v.22l-.11.32v.32l-.11.22-.1.32-.11.33-.11.21-.11.33-.11.21-.1.33-.11.21-.11.33-.22.21-.11.22-.1.32-.22.22-.11.22-.21.32-.22.22-.11.21-.21.22-.22.22-.22.21-.1.22-.22.21-.22.22-.21.22-.22.21-.21.11-.33.22-.21.21-.22.11-.22.22-.32.1-.22.22-.21.11-.33.11-.21.1-.33.22-.21.11-.33.11-.21.11-.33.1h-.21l-.33.11-.22.11-.32.11h-.32l-.22.11h-.32l-.33.1h-1.08l-.32.11h-.33l-.32-.11h-1.08l-.33-.1h-.32l-.22-.11-.32-.11h-.32l-.22-.11-.32-.11-.33-.1h-.22l-.32-.11-.22-.22-.32-.11-.22-.11-.32-.1-.22-.11-.32-.22-.22-.11-.21-.21-.33-.11-.21-.22-.22-.21-.21-.11-.22-.22-.22-.21-.32-.22-.22-.21-.1-.22-.22-.22-.22-.21-.21-.22-.22-.22-.22-.21-.1-.22-.22-.32-.11-.22-.21-.21-.11-.33-.22-.21L134,94l-.1-.21-.11-.33-.11-.21-.11-.33-.11-.22-.1-.32-.11-.32-.11-.22-.11-.32v-.33l-.11-.21-.11-.33V90l-.1-.21V87.12l.1-.32v-.32l.11-.33v-.21l.11-.33v-.32l.11-.22.11-.32.11-.33.1-.21.11-.33.11-.32.11-.22.11-.32.1-.22.22-.21.11-.33.21-.21.11-.33.22-.21.11-.22.21-.22.22-.32.11-.22.21-.21.22-.22.22-.21.21-.22.22-.22.21-.1.22-.22.22-.22.21-.21.32-.11.22-.22.22-.11.21-.21.33-.11.21-.22.33-.1.21-.11.33-.11.21-.11.33-.11.21-.1.33-.11.32-.11.22-.11h.32l.33-.11.21-.1h.33l.32-.11h.87l.32-.11h1.19l.22.11h.64l.33.11h.21l.33.1h.32l.22.11.32.11h.33l.21.11Zm9,19.77v-.11m-.22-.54v-.11M138.62,212.15h-.11m3.24-.43h-.1m-6.49-109,7.35-2.16M153,97.39l4.22-1.3m-.54,2.17.21-.22M141.75,211.72l.22.11.22.11.21.21.22.11.21.11.22.11.22.21.32.11.22.11.32.11.22.11.32.1.22.11.32.11.33.11.32.1.32.11.22.11.65.11.75.21.65.11.65.11.76.11h.75l.76.11h2.16l.65-.11.76-.11h.75l.65-.22.65-.1.65-.11.65-.22.65-.21.54-.11.54-.22.32-.21.22-.11.21-.11.33-.11.21-.11.22-.1.21-.11.22-.11.33-.22.21-.1.22-.11.21-.22.22-.11.11-.21.21-.11.22-.22.22-.1.21-.22.11-.11.22-.22.11-.21.21-.22.11-.11.22-.21.1-.22.11-.21.11-.22h.11v-.11l.11-.11v-.11l.1-.1v-.22l.11-.11v-.1l.11-.11v-.22l.11-.11v-.32l.11-.11v-.86l.1-.11v-.11l-.1-.11v-.86l-.11-.11v-.32H166v-.22l-.11-.11v-.21l-.11-.11v-.11l-.1-.11v-.11l-.11-.11v-.1l-.11-.11-.11-.22-.11-.21-.21-.22-.11-.11-.11-.21-.11-.22-.21-.11-.11-.21-.22-.11-.21-.22-.11-.11-.22-.1-.11-.22-.21-.11-.22-.11-.21-.21m-33.07,15.88h-.22v.22h.11V217h.22v-.33h-.11Zm5.08-113.24v.21H135v.32l.1.11v.11l.11.11v.11h.11v.1h.22v.11h.32v-.11h.11v-.1H136v-.87h-.11v-.21l-.11-.11V103h-.11v-.11l-.11-.1h-.1v-.11h-.44v.11H135V103h-.11ZM157.75,97v-.11m-.33.65.11-.11m.22-1v.11m-28.1,120.05,8.86-4.43M157.42,97.61h-.1M157,203.18l-.21-.21m-.65-.33-.22-104.17m1.84,105.14-18.81,9.52m18.91-9.62h-.1M156.67,98.26h-.11M138.73,212.58,129.87,217M157.75,97l-.11.11M138.51,212.69v.11h.11v.11h.32v-.65h-.1V212h-.11v-.1h-.11v-.11h-.11v-.11h-.11v.11h-.1v.11h-.11v.1m24.64-11.34-.22-.11-.22-.22-.32-.1-.22-.22-.32-.11-.33-.21-.32-.11-.32-.11-.33-.11-.32-.22-.33-.1-.32-.11-.32-.11-.44-.11-.32-.11-.43-.1"/></g><g class="cls-4"><path d="M197,159.87V161h-9.89l1.8,2-.87.72-2.37-2.88v-1Z"/><path d="M197,151v1.15h-9.89l1.8,2-.87.72L185.67,152v-1Z"/><path d="M193.26,141v-1.63h1.05V141H197v1.15h-2.69V147H193l-7.33-4.58V141Zm-6.43,1.15v0l6.43,3.91v-3.94Z"/><path d="M186.73,131.31v4.62l3.41.08a3.21,3.21,0,0,1-.21-.75,5,5,0,0,1-.06-.77,3.75,3.75,0,0,1,.27-1.45,3.17,3.17,0,0,1,.76-1.13,3.45,3.45,0,0,1,1.15-.74,4,4,0,0,1,1.45-.26,3.64,3.64,0,0,1,1.49.29,3.34,3.34,0,0,1,1.17.8,3.51,3.51,0,0,1,.76,1.21,4.1,4.1,0,0,1,.27,1.51,3.71,3.71,0,0,1-.51,1.93,3.31,3.31,0,0,1-1.5,1.33l-.5-1.15a2.67,2.67,0,0,0,1.07-.89,2.34,2.34,0,0,0,.39-1.33,2.55,2.55,0,0,0-.2-1,2.87,2.87,0,0,0-.54-.81,2.36,2.36,0,0,0-.8-.54,2.54,2.54,0,0,0-1-.2,2.75,2.75,0,0,0-1.09.21,2.65,2.65,0,0,0-.85.57,2.6,2.6,0,0,0-.56.88,3.42,3.42,0,0,0-.19,1.12,4.53,4.53,0,0,0,.17,1.21,6,6,0,0,0,.45,1.15l-5.87-.12v-5.77Z"/><path d="M191.18,124.25c-.28,0-.56,0-.83,0l-.84,0V123.2h1.14v0a2.41,2.41,0,0,1-1-1.06,2.94,2.94,0,0,1-.34-1.35,3.83,3.83,0,0,1,.06-.65,2.61,2.61,0,0,1,.24-.66,2,2,0,0,1,.47-.6,2.47,2.47,0,0,1,.78-.48,2.45,2.45,0,0,1-1.13-1,2.79,2.79,0,0,1-.42-1.45,2.73,2.73,0,0,1,.76-2.13,3.12,3.12,0,0,1,2.17-.69H197v1.06h-4.37a3.13,3.13,0,0,0-1.74.4,1.64,1.64,0,0,0-.61,1.49,2,2,0,0,0,.23,1,1.93,1.93,0,0,0,.62.65,3,3,0,0,0,.87.36,4.9,4.9,0,0,0,1,.11h4v1.06h-4.37a3.13,3.13,0,0,0-1.74.4,1.62,1.62,0,0,0-.61,1.48,2.52,2.52,0,0,0,.07.44,1.71,1.71,0,0,0,.35.72,2.67,2.67,0,0,0,.86.66,3.53,3.53,0,0,0,1.6.3H197v1Z"/><path d="M191.18,110.62l-.83,0-.84.06v-1.14h1.14v0a2.41,2.41,0,0,1-1-1.06,3,3,0,0,1-.34-1.35,3.74,3.74,0,0,1,.06-.65,2.83,2.83,0,0,1,.24-.67,2.34,2.34,0,0,1,.47-.6,2.65,2.65,0,0,1,.78-.47,2.45,2.45,0,0,1-1.13-1,2.79,2.79,0,0,1-.42-1.45,2.73,2.73,0,0,1,.76-2.13,3.12,3.12,0,0,1,2.17-.69H197v1.06h-4.37a3.13,3.13,0,0,0-1.74.4,1.64,1.64,0,0,0-.61,1.49,2,2,0,0,0,.23,1,1.93,1.93,0,0,0,.62.65,3,3,0,0,0,.87.36,4.9,4.9,0,0,0,1,.11h4v1h-4.37a3.22,3.22,0,0,0-1.74.4,1.65,1.65,0,0,0-.61,1.49,2.52,2.52,0,0,0,.07.44,1.62,1.62,0,0,0,.35.71,2.55,2.55,0,0,0,.86.67,3.55,3.55,0,0,0,1.6.29H197v1.06Z"/></g><line class="cls-5" x1="176.31" y1="95.4" x2="176.31" y2="216.95"/><line class="cls-5" x1="178.38" y1="95.4" x2="174.01" y2="95.4"/><line class="cls-5" x1="178.07" y1="216.95" x2="173.7" y2="216.95"/><g class="cls-4"><path d="M238.59,159.87V161H228.7l1.79,2-.86.72-2.37-2.88v-1Z"/><path d="M232.12,153.28v-.6a3.74,3.74,0,0,0-.11-1,2,2,0,0,0-.36-.79,1.83,1.83,0,0,0-.65-.54,2.13,2.13,0,0,0-1-.19,1.8,1.8,0,0,0-1.41.55,2.17,2.17,0,0,0-.51,1.54,2.37,2.37,0,0,0,.33,1.26,2.41,2.41,0,0,0,.92.9l-.51,1a3.35,3.35,0,0,1-1.35-1.31,3.7,3.7,0,0,1-.44-1.83,4,4,0,0,1,.19-1.26,3.09,3.09,0,0,1,.57-1,2.62,2.62,0,0,1,.93-.71,2.77,2.77,0,0,1,1.25-.27,2.33,2.33,0,0,1,.88.16,2.48,2.48,0,0,1,.75.41,2.89,2.89,0,0,1,.59.62,2.79,2.79,0,0,1,.37.73l0-.05A2.34,2.34,0,0,1,233,150a2.76,2.76,0,0,1,.64-.68,3,3,0,0,1,.87-.45,3.39,3.39,0,0,1,2.4.13,2.93,2.93,0,0,1,1,.78,3.39,3.39,0,0,1,.63,1.15,4.28,4.28,0,0,1,.22,1.4,4.24,4.24,0,0,1-.54,2.17,3.35,3.35,0,0,1-1.75,1.39l-.37-1.21a2.38,2.38,0,0,0,1.21-.86,2.79,2.79,0,0,0,.39-1.59,2.49,2.49,0,0,0-.16-.91,2.16,2.16,0,0,0-.45-.76,2.09,2.09,0,0,0-1.62-.7,2.21,2.21,0,0,0-1.08.24,1.94,1.94,0,0,0-.72.64,2.72,2.72,0,0,0-.39.92,4.83,4.83,0,0,0-.12,1.08v.5Z"/><path d="M228.32,140.21v4.62l3.4.08a4.17,4.17,0,0,1-.2-.75,4.08,4.08,0,0,1-.07-.77,3.83,3.83,0,0,1,.27-1.46,3.54,3.54,0,0,1,.77-1.13,3.33,3.33,0,0,1,1.15-.73,3.77,3.77,0,0,1,1.44-.27,3.82,3.82,0,0,1,1.5.29,3.69,3.69,0,0,1,1.17.8,3.77,3.77,0,0,1,.76,1.21,4.13,4.13,0,0,1,.27,1.51,3.75,3.75,0,0,1-.51,1.94,3.34,3.34,0,0,1-1.51,1.33l-.49-1.16a2.58,2.58,0,0,0,1.06-.89,2.28,2.28,0,0,0,.39-1.32,2.43,2.43,0,0,0-.2-1,2.72,2.72,0,0,0-.53-.8,2.46,2.46,0,0,0-.8-.54,2.37,2.37,0,0,0-1-.2,2.94,2.94,0,0,0-1.09.2,2.72,2.72,0,0,0-.86.58,2.57,2.57,0,0,0-.55.88,3.14,3.14,0,0,0-.19,1.12,4.16,4.16,0,0,0,.17,1.21,5.64,5.64,0,0,0,.45,1.14l-5.87-.11v-5.77Z"/><path d="M227.07,134.3a3.24,3.24,0,0,1,.56-2,3.86,3.86,0,0,1,1.42-1.17,6.77,6.77,0,0,1,1.9-.56,14,14,0,0,1,4,0,6.77,6.77,0,0,1,1.9.56,3.86,3.86,0,0,1,1.42,1.17,3.75,3.75,0,0,1,0,3.94,3.86,3.86,0,0,1-1.42,1.17,6.77,6.77,0,0,1-1.9.56,14,14,0,0,1-4,0,6.77,6.77,0,0,1-1.9-.56,3.86,3.86,0,0,1-1.42-1.17A3.24,3.24,0,0,1,227.07,134.3Zm1.05,0a2.05,2.05,0,0,0,.5,1.46,3.08,3.08,0,0,0,1.23.81,6.19,6.19,0,0,0,1.57.35c.56,0,1.06.07,1.5.07s1,0,1.51-.07a6.19,6.19,0,0,0,1.57-.35,3.08,3.08,0,0,0,1.23-.81,2.42,2.42,0,0,0,0-2.92A3.08,3.08,0,0,0,236,132a6.19,6.19,0,0,0-1.57-.35c-.56,0-1.06-.07-1.51-.07s-.94,0-1.5.07a6.19,6.19,0,0,0-1.57.35,3.08,3.08,0,0,0-1.23.81A2.05,2.05,0,0,0,228.12,134.3Z"/><path d="M232.76,124.25l-.83,0-.83,0V123.2h1.14v0a2.41,2.41,0,0,1-1-1.06,2.94,2.94,0,0,1-.34-1.35,3.83,3.83,0,0,1,.06-.65,2.28,2.28,0,0,1,.24-.66,1.89,1.89,0,0,1,.47-.6,2.47,2.47,0,0,1,.78-.48,2.41,2.41,0,0,1-1.13-1,2.79,2.79,0,0,1-.42-1.45,2.73,2.73,0,0,1,.76-2.13,3.12,3.12,0,0,1,2.17-.69h4.75v1.06h-4.37a3.11,3.11,0,0,0-1.74.4,1.64,1.64,0,0,0-.61,1.49,2,2,0,0,0,.23,1,1.93,1.93,0,0,0,.62.65,2.84,2.84,0,0,0,.87.36,4.74,4.74,0,0,0,1,.11h4v1.06h-4.37a3.11,3.11,0,0,0-1.74.4,1.62,1.62,0,0,0-.61,1.48,3.37,3.37,0,0,0,.06.44,1.74,1.74,0,0,0,.36.72,2.56,2.56,0,0,0,.86.66,3.51,3.51,0,0,0,1.6.3h3.84v1Z"/><path d="M232.76,110.62l-.83,0-.83.06v-1.14h1.14v0a2.41,2.41,0,0,1-1-1.06,3,3,0,0,1-.34-1.35,3.74,3.74,0,0,1,.06-.65,2.45,2.45,0,0,1,.24-.67,2.14,2.14,0,0,1,.47-.6,2.65,2.65,0,0,1,.78-.47,2.41,2.41,0,0,1-1.13-1,2.79,2.79,0,0,1-.42-1.45,2.73,2.73,0,0,1,.76-2.13,3.12,3.12,0,0,1,2.17-.69h4.75v1.06h-4.37a3.11,3.11,0,0,0-1.74.4,1.64,1.64,0,0,0-.61,1.49,2,2,0,0,0,.23,1,1.93,1.93,0,0,0,.62.65,2.84,2.84,0,0,0,.87.36,4.74,4.74,0,0,0,1,.11h4v1h-4.37a3.2,3.2,0,0,0-1.74.4,1.65,1.65,0,0,0-.61,1.49,3.37,3.37,0,0,0,.06.44,1.65,1.65,0,0,0,.36.71,2.45,2.45,0,0,0,.86.67,3.52,3.52,0,0,0,1.6.29h3.84v1.06Z"/></g><line class="cls-5" x1="217.9" y1="76.1" x2="217.9" y2="216.95"/><line class="cls-5" x1="219.97" y1="76.1" x2="215.6" y2="76.1"/><line class="cls-5" x1="220.66" y1="216.95" x2="216.28" y2="216.95"/><line class="cls-5" x1="134.21" y1="65.6" x2="156.5" y2="65.6"/><line class="cls-5" x1="134.2" y1="64.3" x2="134.2" y2="66.9"/><line class="cls-5" x1="156.5" y1="64.3" x2="156.5" y2="66.9"/><g class="cls-4"><path d="M119.35,49.88A3.7,3.7,0,0,1,120,51a4.19,4.19,0,0,1,.25,1.44,4,4,0,0,1-.3,1.57,3.82,3.82,0,0,1-.82,1.25,3.62,3.62,0,0,1-1.26.82,4.51,4.51,0,0,1-3,.08,4,4,0,0,1-1.11-.61l-1.07,1.09-.51-.5,1-1.09a3.78,3.78,0,0,1-.68-1.17,4.23,4.23,0,0,1-.24-1.44,4,4,0,0,1,.29-1.56,3.7,3.7,0,0,1,.83-1.25,3.85,3.85,0,0,1,1.25-.83,4.36,4.36,0,0,1,1.59-.29,4.51,4.51,0,0,1,1.4.21,4,4,0,0,1,1.15.62l1-1.09.52.5Zm-1.25.25a2.69,2.69,0,0,0-1.81-.62,2.91,2.91,0,0,0-1.17.23,2.71,2.71,0,0,0-.88.63,2.81,2.81,0,0,0-.56,1,3.18,3.18,0,0,0-.2,1.16,3,3,0,0,0,.54,1.83Zm-3.6,4.72a2.74,2.74,0,0,0,1.79.61,3,3,0,0,0,1.18-.23,2.87,2.87,0,0,0,.89-.63,3,3,0,0,0,.57-1,3.42,3.42,0,0,0,.2-1.17,3.13,3.13,0,0,0-.55-1.82Z"/><path d="M133.46,56.23h-7.2V54.9l4.51-4.59.52-.55a5.3,5.3,0,0,0,.46-.6,3,3,0,0,0,.33-.68,2,2,0,0,0,.13-.73,1.84,1.84,0,0,0-.17-.83,1.63,1.63,0,0,0-.47-.63,2.08,2.08,0,0,0-.7-.39,2.66,2.66,0,0,0-.85-.14,2.3,2.3,0,0,0-1.47.48,2.14,2.14,0,0,0-.78,1.3l-1.22-.13a3.18,3.18,0,0,1,1.16-2,3.51,3.51,0,0,1,2.23-.72,4.71,4.71,0,0,1,1.31.18,3.44,3.44,0,0,1,1.08.55,2.67,2.67,0,0,1,.75.92,2.79,2.79,0,0,1,.29,1.29,3.51,3.51,0,0,1-.2,1.2,5.53,5.53,0,0,1-.52,1,7.86,7.86,0,0,1-.73.91c-.27.29-.55.57-.84.85l-3.57,3.53h6Z"/><path d="M138.84,44.71a3.26,3.26,0,0,1,2,.56A3.74,3.74,0,0,1,142,46.69a6.17,6.17,0,0,1,.56,1.9,13.08,13.08,0,0,1,0,3.95,6.17,6.17,0,0,1-.56,1.9,3.74,3.74,0,0,1-1.16,1.42,3.75,3.75,0,0,1-3.94,0,3.86,3.86,0,0,1-1.17-1.42,6.45,6.45,0,0,1-.56-1.9,14,14,0,0,1,0-3.95,6.45,6.45,0,0,1,.56-1.9,3.86,3.86,0,0,1,1.17-1.42A3.24,3.24,0,0,1,138.84,44.71Zm0,1a2.09,2.09,0,0,0-1.47.5,3.3,3.3,0,0,0-.81,1.23,6.18,6.18,0,0,0-.34,1.57c-.05.56-.07,1.06-.07,1.5s0,.95.07,1.51a6.18,6.18,0,0,0,.34,1.57,3.3,3.3,0,0,0,.81,1.23,2.09,2.09,0,0,0,1.47.49,2.06,2.06,0,0,0,1.46-.49,3.08,3.08,0,0,0,.81-1.23,5.78,5.78,0,0,0,.34-1.57c.05-.56.08-1.06.08-1.51s0-.94-.08-1.5a5.78,5.78,0,0,0-.34-1.57,3.08,3.08,0,0,0-.81-1.23A2.07,2.07,0,0,0,138.84,45.76Z"/><path d="M147.73,44.71a3.24,3.24,0,0,1,2,.56,3.86,3.86,0,0,1,1.17,1.42,6.45,6.45,0,0,1,.56,1.9,14,14,0,0,1,0,3.95,6.45,6.45,0,0,1-.56,1.9,3.86,3.86,0,0,1-1.17,1.42,3.73,3.73,0,0,1-3.93,0,3.67,3.67,0,0,1-1.17-1.42,6.17,6.17,0,0,1-.56-1.9,13.08,13.08,0,0,1,0-3.95,6.17,6.17,0,0,1,.56-1.9,3.67,3.67,0,0,1,1.17-1.42A3.21,3.21,0,0,1,147.73,44.71Zm0,1a2.07,2.07,0,0,0-1.46.5,3.08,3.08,0,0,0-.81,1.23,6.18,6.18,0,0,0-.34,1.57c-.05.56-.08,1.06-.08,1.5s0,.95.08,1.51a6.18,6.18,0,0,0,.34,1.57,3.08,3.08,0,0,0,.81,1.23,2.06,2.06,0,0,0,1.46.49,2.09,2.09,0,0,0,1.47-.49,3.3,3.3,0,0,0,.81-1.23,6.18,6.18,0,0,0,.34-1.57c.05-.56.07-1.06.07-1.51s0-.94-.07-1.5a6.18,6.18,0,0,0-.34-1.57,3.3,3.3,0,0,0-.81-1.23A2.09,2.09,0,0,0,147.73,45.76Z"/><path d="M157.78,50.4c0-.27,0-.55,0-.83l-.06-.83h1.14v1.14h0a2.5,2.5,0,0,1,1.06-1,3.12,3.12,0,0,1,1.35-.33,3.74,3.74,0,0,1,.65.06,2.8,2.8,0,0,1,.67.23,2.39,2.39,0,0,1,.6.48,2.65,2.65,0,0,1,.47.78,2.48,2.48,0,0,1,1-1.14,2.87,2.87,0,0,1,1.45-.41,2.73,2.73,0,0,1,2.13.76,3.12,3.12,0,0,1,.69,2.17v4.75h-1.06V51.86a3.11,3.11,0,0,0-.4-1.74,1.63,1.63,0,0,0-1.49-.61,1.82,1.82,0,0,0-1.64.85,2.84,2.84,0,0,0-.36.87,4.74,4.74,0,0,0-.11,1v4h-1V51.86a3.2,3.2,0,0,0-.4-1.74,1.65,1.65,0,0,0-1.49-.61l-.44.06a1.74,1.74,0,0,0-.71.35,2.6,2.6,0,0,0-.67.87,3.66,3.66,0,0,0-.29,1.6v3.84h-1.06Z"/><path d="M171.41,50.4c0-.27,0-.55,0-.83l-.06-.83h1.14v1.14h0a2.55,2.55,0,0,1,1.06-1,3.12,3.12,0,0,1,1.36-.33,3.72,3.72,0,0,1,.64.06,2.8,2.8,0,0,1,.67.23,2.39,2.39,0,0,1,.6.48,2.65,2.65,0,0,1,.47.78,2.45,2.45,0,0,1,1-1.14,2.81,2.81,0,0,1,1.44-.41,2.73,2.73,0,0,1,2.13.76,3.12,3.12,0,0,1,.69,2.17v4.75h-1.06V51.86a3.11,3.11,0,0,0-.4-1.74,1.62,1.62,0,0,0-1.48-.61,2,2,0,0,0-1,.23,1.9,1.9,0,0,0-.64.62,2.42,2.42,0,0,0-.36.87,4.17,4.17,0,0,0-.12,1v4h-1.05V51.86a3.2,3.2,0,0,0-.4-1.74,1.64,1.64,0,0,0-1.49-.61l-.44.06a1.74,1.74,0,0,0-.71.35,2.6,2.6,0,0,0-.67.87,3.66,3.66,0,0,0-.29,1.6v3.84h-1.06Z"/></g><line class="cls-5" x1="137.73" y1="114.9" x2="153.71" y2="109.37"/><line class="cls-5" x1="137.3" y1="113.68" x2="138.15" y2="116.13"/><line class="cls-5" x1="153.28" y1="108.14" x2="154.13" y2="110.6"/><g class="cls-4"><path d="M106.85,144,100,146.32l-.43-1.26,2.76-5.81c.11-.22.21-.45.31-.68a4.79,4.79,0,0,0,.24-.73,3.12,3.12,0,0,0,.09-.74,2.16,2.16,0,0,0-.55-1.47,1.71,1.71,0,0,0-.65-.44,2.26,2.26,0,0,0-.79-.14,2.58,2.58,0,0,0-.85.15,2.34,2.34,0,0,0-1.23.93,2.23,2.23,0,0,0-.32,1.49l-1.19.27a3.19,3.19,0,0,1,.45-2.25,3.51,3.51,0,0,1,1.87-1.41,4.33,4.33,0,0,1,1.3-.25,3.17,3.17,0,0,1,1.2.16,2.72,2.72,0,0,1,1,.63,2.83,2.83,0,0,1,.68,1.12,3.49,3.49,0,0,1,.21,1.2,4.82,4.82,0,0,1-.16,1.14,7.59,7.59,0,0,1-.39,1.1c-.16.36-.34.72-.52,1.07l-2.21,4.51L106.5,143Z"/><path d="M112.79,138l1.54-.54.35,1-1.55.53.88,2.54-1.08.38-.88-2.54-4.63,1.6-.43-1.24,1.93-8.42,1.39-.48Zm-3.19-5.71h0L108,139.61l3.72-1.29Z"/><path d="M116.57,128.41a3.3,3.3,0,0,1,2-.12,3.84,3.84,0,0,1,1.57,1,6.41,6.41,0,0,1,1.15,1.61,12.77,12.77,0,0,1,.78,1.82,13,13,0,0,1,.51,1.91,6,6,0,0,1,.09,2,3.64,3.64,0,0,1-.64,1.72,3.7,3.7,0,0,1-3.72,1.29,3.85,3.85,0,0,1-1.56-1,6.11,6.11,0,0,1-1.15-1.61,14.76,14.76,0,0,1-.79-1.82,16,16,0,0,1-.51-1.91,6.66,6.66,0,0,1-.09-2,4,4,0,0,1,.64-1.73A3.26,3.26,0,0,1,116.57,128.41Zm.34,1a2.08,2.08,0,0,0-1.22,1,3.05,3.05,0,0,0-.36,1.42,5.88,5.88,0,0,0,.19,1.6c.14.54.27,1,.42,1.44s.34.89.56,1.4a6.05,6.05,0,0,0,.84,1.37,3.18,3.18,0,0,0,1.17.9,2.4,2.4,0,0,0,2.76-1,3.09,3.09,0,0,0,.36-1.43,5.84,5.84,0,0,0-.18-1.59c-.14-.54-.28-1-.43-1.45a15,15,0,0,0-.56-1.39,5.42,5.42,0,0,0-.84-1.37,3,3,0,0,0-1.16-.9A2.07,2.07,0,0,0,116.91,129.41Z"/><path d="M127.93,130.51c-.1-.27-.19-.53-.3-.78s-.21-.52-.32-.77l1.07-.37.37,1.07h0a2.5,2.5,0,0,1,.68-1.28,3,3,0,0,1,1.17-.76,2.91,2.91,0,0,1,.63-.15,2.12,2.12,0,0,1,.71,0,2.07,2.07,0,0,1,.72.25,2.6,2.6,0,0,1,.7.58,2.4,2.4,0,0,1,.59-1.4,2.82,2.82,0,0,1,1.23-.87,2.75,2.75,0,0,1,2.26,0,3.14,3.14,0,0,1,1.36,1.83l1.55,4.49-1,.34L138,128.58a3.18,3.18,0,0,0-1-1.52,1.64,1.64,0,0,0-1.61-.09,2,2,0,0,0-.86.54,1.91,1.91,0,0,0-.41.8,2.66,2.66,0,0,0,0,.94,4.61,4.61,0,0,0,.22,1l1.31,3.76-1,.35-1.43-4.13a3.16,3.16,0,0,0-1-1.52,1.68,1.68,0,0,0-1.6-.09,4.31,4.31,0,0,0-.4.21,1.66,1.66,0,0,0-.56.56,2.55,2.55,0,0,0-.34,1,3.61,3.61,0,0,0,.24,1.61l1.26,3.63-1,.34Z"/><path d="M140.81,126.05q-.13-.39-.3-.78c-.1-.26-.21-.51-.32-.77l1.07-.37.37,1.07h0a2.54,2.54,0,0,1,.68-1.28,3.14,3.14,0,0,1,1.17-.76,3,3,0,0,1,.64-.15,2.06,2.06,0,0,1,.7,0,2.29,2.29,0,0,1,.72.25,2.45,2.45,0,0,1,.7.58,2.47,2.47,0,0,1,.59-1.4,2.9,2.9,0,0,1,1.23-.87,2.78,2.78,0,0,1,2.26,0,3.1,3.1,0,0,1,1.36,1.83l1.56,4.49-1,.35-1.43-4.13a3.16,3.16,0,0,0-1-1.52,1.65,1.65,0,0,0-1.6-.09,2,2,0,0,0-.87.55,1.93,1.93,0,0,0-.41.79,2.67,2.67,0,0,0,0,.94,4,4,0,0,0,.23,1l1.3,3.76-1,.35-1.43-4.13a3.21,3.21,0,0,0-.95-1.52,1.65,1.65,0,0,0-1.6-.08,2.72,2.72,0,0,0-.4.2,1.59,1.59,0,0,0-.55.57,2.49,2.49,0,0,0-.35,1,3.5,3.5,0,0,0,.25,1.61l1.25,3.63-1,.34Z"/></g><line class="cls-5" x1="126.59" y1="196.03" x2="151.79" y2="185.75"/><line class="cls-5" x1="126.33" y1="195.44" x2="126.82" y2="196.64"/><line class="cls-5" x1="151.55" y1="185.15" x2="152.04" y2="186.35"/><g class="cls-4"><path d="M87.8,197.87a3.57,3.57,0,0,1,1.07.81,4.27,4.27,0,0,1,.78,1.25,4.13,4.13,0,0,1,.31,1.56,3.72,3.72,0,0,1-1.14,2.71,4.3,4.3,0,0,1-1.38.88,4.18,4.18,0,0,1-1.38.32,4,4,0,0,1-1.26-.14l-.58,1.41-.66-.27.57-1.4a3.8,3.8,0,0,1-1.09-.83,4.3,4.3,0,0,1-.76-1.24,4.15,4.15,0,0,1-.32-1.56,3.82,3.82,0,0,1,.3-1.47,3.67,3.67,0,0,1,.85-1.24,4.29,4.29,0,0,1,1.36-.87,4.35,4.35,0,0,1,1.37-.33,3.77,3.77,0,0,1,1.3.14l.57-1.41.66.27Zm-1.06.7a2.65,2.65,0,0,0-1.91.11,2.73,2.73,0,0,0-1,.66,2.76,2.76,0,0,0-.58.91,3,3,0,0,0-.16,1.09,3.47,3.47,0,0,0,.26,1.16A3,3,0,0,0,84.54,204Zm-1.55,5.73a2.74,2.74,0,0,0,.91.12,3,3,0,0,0,1-.23,2.91,2.91,0,0,0,1-.66,2.56,2.56,0,0,0,.58-.92,2.63,2.63,0,0,0,.17-1.09,3.23,3.23,0,0,0-.25-1.16,3.14,3.14,0,0,0-1.19-1.48Z"/><path d="M103.27,198.42l-6.67,2.72-.5-1.23,2.44-6c.1-.22.18-.45.27-.7a4.64,4.64,0,0,0,.2-.73,3.17,3.17,0,0,0,.06-.75,2,2,0,0,0-.16-.73,2,2,0,0,0-.47-.71,1.71,1.71,0,0,0-.67-.4,2.35,2.35,0,0,0-.8-.1,2.57,2.57,0,0,0-.84.2A2.26,2.26,0,0,0,95,191a2.17,2.17,0,0,0-.24,1.49l-1.17.34a3.19,3.19,0,0,1,.32-2.27,3.52,3.52,0,0,1,1.8-1.51,4.56,4.56,0,0,1,1.27-.32,3.28,3.28,0,0,1,1.22.1,2.73,2.73,0,0,1,1,.57,2.79,2.79,0,0,1,.75,1.08,3.52,3.52,0,0,1,.27,1.19,4.92,4.92,0,0,1-.1,1.15,5.84,5.84,0,0,1-.33,1.11q-.21.56-.45,1.11l-2,4.62,5.51-2.25Z"/><path d="M107.27,185.69l-.34,11.24-1.2.49.43-11.28-5.11,2.09-.4-1,6.22-2.54Z"/><path d="M115.38,182.39l-4.29,1.74,1.21,3.19a4.68,4.68,0,0,1,.62-.48,5.58,5.58,0,0,1,.69-.35,3.64,3.64,0,0,1,1.45-.29,3.26,3.26,0,0,1,1.33.27,3.62,3.62,0,0,1,1.12.79,4,4,0,0,1,.79,1.24,3.72,3.72,0,0,1,.3,1.5,3.51,3.51,0,0,1-1.13,2.54,4.32,4.32,0,0,1-1.3.83,3.81,3.81,0,0,1-2,.25,3.28,3.28,0,0,1-1.79-.89l.88-.89a2.53,2.53,0,0,0,1.22.64,2.28,2.28,0,0,0,1.38-.13,2.66,2.66,0,0,0,1.4-1.37,2.47,2.47,0,0,0,.19-.94,2.49,2.49,0,0,0-.18-1,2.84,2.84,0,0,0-.61-.93,2.65,2.65,0,0,0-.85-.57,2.51,2.51,0,0,0-1-.18,3.06,3.06,0,0,0-1.11.25,4.29,4.29,0,0,0-1.05.61,5.52,5.52,0,0,0-.89.85l-2.11-5.48,5.35-2.18Z"/><path d="M123.59,183.84c-.11-.25-.22-.51-.34-.76s-.24-.5-.37-.75l1.06-.43.43,1.06,0,0a2.44,2.44,0,0,1,.61-1.32,3,3,0,0,1,1.12-.82,2.9,2.9,0,0,1,.63-.18,2.32,2.32,0,0,1,.7,0,2.08,2.08,0,0,1,.73.21,2.42,2.42,0,0,1,.73.55,2.49,2.49,0,0,1,.52-1.44,3.08,3.08,0,0,1,3.44-1,3.14,3.14,0,0,1,1.45,1.75l1.8,4.4-1,.4-1.65-4a3.23,3.23,0,0,0-1-1.46,1.61,1.61,0,0,0-1.6,0,1.92,1.92,0,0,0-.84.59,1.86,1.86,0,0,0-.36.81,2.75,2.75,0,0,0,0,.95,4.51,4.51,0,0,0,.28,1l1.51,3.69-1,.4-1.65-4.05a3.17,3.17,0,0,0-1-1.46,1.63,1.63,0,0,0-1.61,0,3.59,3.59,0,0,0-.38.22,1.76,1.76,0,0,0-.53.6,2.67,2.67,0,0,0-.29,1.05,3.76,3.76,0,0,0,.33,1.59l1.45,3.56-1,.4Z"/><path d="M136.21,178.7c-.1-.26-.22-.51-.34-.76l-.36-.75,1.05-.43.43,1.05h0a2.38,2.38,0,0,1,.61-1.32,3,3,0,0,1,1.12-.83,4.73,4.73,0,0,1,.63-.18,2.34,2.34,0,0,1,.7,0,2.51,2.51,0,0,1,.73.21,2.58,2.58,0,0,1,.74.55,2.38,2.38,0,0,1,.51-1.43,2.73,2.73,0,0,1,1.18-.94,2.77,2.77,0,0,1,2.26-.1,3.15,3.15,0,0,1,1.46,1.75l1.79,4.4-1,.4-1.65-4a3.12,3.12,0,0,0-1-1.47,1.66,1.66,0,0,0-1.6,0,1.91,1.91,0,0,0-.83.59,2,2,0,0,0-.37.82,2.47,2.47,0,0,0,0,.94,4.33,4.33,0,0,0,.27,1l1.51,3.69-1,.4-1.65-4.05a3.15,3.15,0,0,0-1-1.46,1.66,1.66,0,0,0-1.6,0,4.19,4.19,0,0,0-.39.23,1.61,1.61,0,0,0-.52.59,2.37,2.37,0,0,0-.29,1,3.47,3.47,0,0,0,.33,1.59l1.45,3.56-1,.4Z"/></g></svg>