<svg id="IC_F2" data-name="IC F2" xmlns="http://www.w3.org/2000/svg" xmlns:xlink="http://www.w3.org/1999/xlink" viewBox="0 0 300 263"><defs><style>.cls-1,.cls-3,.cls-5{fill:none;}.cls-2{clip-path:url(#clip-path);}.cls-3{stroke:#1d1d1b;stroke-linecap:round;stroke-linejoin:round;}.cls-3,.cls-5{stroke-width:0.5px;}.cls-4{isolation:isolate;}.cls-5{stroke:#000;}</style><clipPath id="clip-path"><rect id="SVGID" class="cls-1" x="121.67" y="47.02" width="44.83" height="170.21"/></clipPath></defs><title>ic-floor-2-anastassiades-flos-F3174059-spech-tech-02-300x263</title><g class="cls-2"><path class="cls-3" d="M132.74,204.85v.26l.13.13v.65l.13.13v.39l.14.13v.14l.13.26v.26l.13.13v.13l.13.13.13.13v.13l.13.13v.13l.13.13.13.13v.13l.13.13.13.13.13.13V209l.26.26m1.56,1.44.26.26.27.26.25.13.27.13.26.13.39.26.26.13.26.13.26.13.39.26.26.13.39.13.39.13.26.13.4.13.39.13.39.13.39.13.39.13.39.13h.39l.39.13.78.13.92.13.78.13.91.13h.91l.92.14h1.69l.91-.14h.91l.79-.13.91-.13.78-.26.78-.13.78-.13.79-.26.65-.26.39-.13.39-.13.26-.13.39-.13.26-.13.26-.13.39-.13.26-.26.27-.13.39-.13.26-.26.26-.13.39-.26.26-.13.26-.26.26-.14.26-.26.26-.26.26-.13.26-.26.26-.26.13-.26.27-.26.13-.26.13-.13.13-.13.13-.13v-.13l.13-.13.13-.13v-.13l.13-.13v-.13l.13-.13v-.13l.13-.13v-.13l.13-.14v-.12l.13-.14v-.39L166,206v-.39l.13-.13v-1.3M155.29,71.26v-.13m.26,0h-.26M132.48,210.45,154,199.64m1.95,1.17.13-.13m10.17,3.26-.13.52M154,194.29l-.39-.13h-.52l-.52-.13H151l-.39-.13h-2.09L148,194h-.91l-.52.13H146l-.52.13h-.39l-.53.14-.39.12h-.52l-.39.14-.52.12-.39.13-.39.14-.39.13-.52.13-.4.13-.39.13-.26.26-.39.13-.39.13-.52.26-.52.26-.26.13-.26.13-.13.13-.26.26-.27.13-.25.13-.27.13-.13.26-.26.13-.26.13-.13.26-.26.13-.13.27-.26.13-.13.26-.26.13-.13.26-.13.13-.26.26-.13.26-.13.13-.13.26-.13.26-.13.13-.13.26-.13.26v.13l-.13.13v.26l-.14.13v.53l-.13.12v.53l-.13.13v1.17l.13.13v.65l.13.13V206l.14.13v.13l.13.13v.27l.13.26.13.13.13.26.13.26.13.13.13.26.13.13.13.26.13.26.26.13.13.26.13.13m21-137.5V200.81m-.13-129.55h-.13m.26.39v.13M132.22,210.84v-.26h.13v-.13h.52v.13H133v.14l.14.12V211h.13v.26h.13v.39h.13V212h-.13v.26H133v-.13h-.13V212h-.13v-.13h-.13v-.13M155.68,72.57l.13-.27m-1.43,1.57.13-.13m.52-.39.39-.39m.26,127.72.26.13m-.26-129.68h-.13m-.39,129.29-.13-.13M154.9,73.48l.13-.13m.52,127.2-.39-.13m.78-128.51v-.13m-1.69,128-.13-.13m-21.38,5.21v-.52m22-4.3-.26-.13m0,0h-.13m0,0-.13-.13m-.13-.13H154m1.56-126.81V73m.13-.26v-.13m.26-1-.13-.26M132.35,211l.13.26m23.2-10.56-.13-.13m-23.33,10.29.13.4m.65.39v-.39h-.13v-.13M154.38,73.87l-25,7.43m15.78-33.11.26.13.39.14.26.12.39.14.26.26.39.13.26.13.26.26.39.13.26.26.26.13.27.26.39.26.26.13.26.26.26.26.26.26.26.26.26.26.26.26.13.27.26.26.26.26.13.26.26.26.26.39.13.26.14.26.25.39.14.26.13.39.26.26.13.39.13.27.13.39.13.26.13.39v.26l.13.39.13.39.13.26v.39l.13.39v.66l.13.39v3.25l-.13.27v.39l-.13.39v.26l-.13.39v.39l-.13.26-.13.39-.13.39-.13.26-.13.39-.13.26-.13.39-.13.27-.13.39-.27.26-.13.26-.12.39-.27.26-.13.26-.26.39-.26.26-.13.26-.26.26-.26.26-.26.27-.13.25-.26.27-.26.26-.26.26-.26.26-.26.13-.39.26-.27.26-.26.13-.26.26-.39.13-.26.26-.26.13-.39.13-.26.13-.39.26-.26.13-.39.13-.26.13-.4.13h-.26l-.39.13-.26.13-.39.14h-.39l-.26.13h-.39l-.39.13h-1.3l-.4.13H140l-.39-.13h-1.3l-.39-.13h-.39l-.26-.13-.4-.14h-.39l-.26-.13-.39-.13-.39-.13h-.26l-.39-.13-.26-.26-.39-.13-.26-.13-.39-.13-.26-.13-.4-.26-.26-.13-.26-.26-.39-.13-.26-.26-.26-.26-.26-.13-.26-.26-.26-.26-.39-.26-.26-.26-.13-.26-.26-.27-.27-.26-.26-.26-.25-.26-.27-.26-.13-.26-.26-.39-.13-.26-.26-.26-.13-.39-.26-.26-.13-.39-.13-.26L127,68l-.13-.26-.13-.39-.13-.26-.13-.39-.13-.39-.13-.26-.13-.39v-.39L126,65l-.13-.39v-.79l-.13-.26V60.31l.13-.38v-.4l.13-.39v-.26l.13-.39V58.1l.13-.26.13-.39.13-.39.13-.26.13-.39.13-.4.13-.26.13-.39.13-.26.26-.26.13-.39.26-.26.13-.39.26-.26.13-.26.26-.26.26-.39.13-.27.26-.26.27-.26.26-.26.26-.26.26-.26.26-.13.26-.26.26-.26.26-.26.39-.13.26-.26.26-.13.26-.26.39-.13.27-.26.39-.13.26-.13.39-.14.26-.12.39-.14.26-.13.39-.13.39-.13.26-.13h.39l.39-.13.27-.13h.39l.39-.13h1l.39-.13H141l.26.13H142l.39.13h.26l.39.13h.39l.26.13.39.13h.4l.25.13Zm10.81,23.86v-.14m-.26-.65v-.13m-22.81,140h-.13m3.91-.53h-.13M128.7,79.08l8.87-2.6m12.64-3.78,5.08-1.57m-.65,2.61.26-.26m-18.25,137.1.26.14.26.12.27.27.26.13.26.13.26.13.26.26.39.13.26.13.39.13.26.13.39.13.26.13.4.13.39.13.39.13.39.13.26.13.78.13.91.26.78.13.79.13.91.13h.91l.91.13h2.61l.78-.13.92-.13h.91l.78-.26.78-.13.78-.13.79-.26.78-.26.65-.13.65-.26.39-.26.26-.13.26-.13.39-.13.27-.13.25-.13.26-.13.27-.13.39-.26.26-.14.26-.12.26-.27.26-.13.13-.26.26-.13.26-.26.26-.13.26-.26.13-.13.26-.26.13-.26.27-.26.13-.13.26-.26.13-.26.13-.26.13-.26h.13v-.13l.13-.13v-.14l.13-.12v-.27l.13-.13v-.13l.13-.13v-.26l.13-.13v-.39l.13-.13v-1l.13-.13v-.13l-.13-.13v-1.05l-.13-.13v-.39h-.13v-.26l-.13-.13v-.26l-.13-.13v-.13l-.13-.13v-.13l-.13-.13v-.13l-.13-.13-.13-.26-.13-.26-.26-.26-.13-.13-.13-.26-.14-.27L164,199l-.13-.27-.26-.13-.26-.26-.13-.13-.26-.13-.13-.26-.26-.13-.26-.13-.26-.26m-39.88,19.16h-.26v.26h.13V217h.26v-.39h-.13Zm6.12-136.59v.27h.13v.38l.13.14v.13l.13.13V81h.14v.13h.25v.13h.4v-.13h.13V81h.13V80h-.13v-.26l-.13-.13v-.13h-.14v-.13l-.12-.13h-.14v-.13h-.52v.13h-.13v.26h-.13Zm27.63-7.68v-.13m-.39.78.13-.13m.26-1.18v.13m-33.88,144.8,10.68-5.34M155.55,73h-.13M155,200.29l-.26-.26m-.78-.39L153.73,74m2.21,126.81-22.67,11.47m22.8-11.6h-.13m-1.3-126.94h-.13M133,211.63,122.32,217M155.94,72.18l-.13.12M132.74,211.76v.13h.13V212h.4v-.78h-.13V211H133v-.14h-.13v-.12h-.13v-.14h-.13v.14h-.13v.12h-.13V211m29.72-13.69-.26-.13-.26-.26-.39-.13-.26-.26-.4-.13-.39-.26-.39-.13-.39-.13-.39-.13-.39-.26-.39-.13-.39-.13-.39-.13-.52-.14-.4-.13-.52-.12"/></g><g class="cls-4"><path d="M197,159.87V161h-9.89l1.8,2-.87.72-2.37-2.88v-1Z"/><path d="M186.73,149.1v4.62l3.41.08a3.21,3.21,0,0,1-.21-.75,4.87,4.87,0,0,1-.06-.76,3.8,3.8,0,0,1,.27-1.46,3.26,3.26,0,0,1,.76-1.13,3.61,3.61,0,0,1,1.15-.74,4,4,0,0,1,1.45-.26A3.81,3.81,0,0,1,195,149a3.34,3.34,0,0,1,1.17.8,3.51,3.51,0,0,1,.76,1.21,4.1,4.1,0,0,1,.27,1.51,3.71,3.71,0,0,1-.51,1.93,3.31,3.31,0,0,1-1.5,1.33l-.5-1.15a2.67,2.67,0,0,0,1.07-.89,2.31,2.31,0,0,0,.39-1.33,2.55,2.55,0,0,0-.2-1,2.87,2.87,0,0,0-.54-.81,2.68,2.68,0,0,0-.8-.54,2.54,2.54,0,0,0-1-.2,2.75,2.75,0,0,0-1.09.21,2.57,2.57,0,0,0-1.41,1.46,3.33,3.33,0,0,0-.19,1.12,4.52,4.52,0,0,0,.17,1.2,5.72,5.72,0,0,0,.45,1.15l-5.87-.11V149.1Z"/><path d="M193.26,141v-1.63h1.05V141H197v1.15h-2.69V147H193l-7.33-4.58V141Zm-6.43,1.15v0l6.43,3.91v-3.94Z"/><path d="M186.73,131.16,197,135.72V137l-10.27-4.66v5.52h-1.06v-6.72Z"/><path d="M191.18,124.25c-.28,0-.56,0-.83,0l-.84,0V123.2h1.14v0a2.41,2.41,0,0,1-1-1.06,2.94,2.94,0,0,1-.34-1.35,3.83,3.83,0,0,1,.06-.65,2.61,2.61,0,0,1,.24-.66,2,2,0,0,1,.47-.6,2.47,2.47,0,0,1,.78-.48,2.45,2.45,0,0,1-1.13-1,2.79,2.79,0,0,1-.42-1.45,2.73,2.73,0,0,1,.76-2.13,3.12,3.12,0,0,1,2.17-.69H197v1.06h-4.37a3.13,3.13,0,0,0-1.74.4,1.64,1.64,0,0,0-.61,1.49,2,2,0,0,0,.23,1,1.93,1.93,0,0,0,.62.65,3,3,0,0,0,.87.36,4.9,4.9,0,0,0,1,.11h4v1.06h-4.37a3.13,3.13,0,0,0-1.74.4,1.62,1.62,0,0,0-.61,1.48,2.52,2.52,0,0,0,.07.44,1.71,1.71,0,0,0,.35.72,2.67,2.67,0,0,0,.86.66,3.53,3.53,0,0,0,1.6.3H197v1Z"/><path d="M191.18,110.62l-.83,0-.84.06v-1.14h1.14v0a2.41,2.41,0,0,1-1-1.06,3,3,0,0,1-.34-1.35,3.74,3.74,0,0,1,.06-.65,2.83,2.83,0,0,1,.24-.67,2.34,2.34,0,0,1,.47-.6,2.65,2.65,0,0,1,.78-.47,2.45,2.45,0,0,1-1.13-1,2.79,2.79,0,0,1-.42-1.45,2.73,2.73,0,0,1,.76-2.13,3.12,3.12,0,0,1,2.17-.69H197v1.06h-4.37a3.13,3.13,0,0,0-1.74.4,1.64,1.64,0,0,0-.61,1.49,2,2,0,0,0,.23,1,1.93,1.93,0,0,0,.62.65,3,3,0,0,0,.87.36,4.9,4.9,0,0,0,1,.11h4v1h-4.37a3.22,3.22,0,0,0-1.74.4,1.65,1.65,0,0,0-.61,1.49,2.52,2.52,0,0,0,.07.44,1.62,1.62,0,0,0,.35.71,2.55,2.55,0,0,0,.86.67,3.55,3.55,0,0,0,1.6.29H197v1.06Z"/></g><line class="cls-5" x1="176.31" y1="95.4" x2="176.31" y2="216.95"/><line class="cls-5" x1="178.38" y1="95.4" x2="174.01" y2="95.4"/><line class="cls-5" x1="178.07" y1="216.95" x2="173.7" y2="216.95"/><g class="cls-4"><path d="M238.59,159.87V161H228.7l1.79,2-.86.72-2.37-2.88v-1Z"/><path d="M232.56,153.56a2.16,2.16,0,0,1-.38.68,2.48,2.48,0,0,1-.58.54,2.79,2.79,0,0,1-.74.35,2.57,2.57,0,0,1-.83.13,2.77,2.77,0,0,1-1.23-.26,2.91,2.91,0,0,1-.93-.68,3.09,3.09,0,0,1-.59-1,3.56,3.56,0,0,1-.21-1.22,3.5,3.5,0,0,1,.21-1.21,3,3,0,0,1,.59-1,2.79,2.79,0,0,1,.93-.69,2.91,2.91,0,0,1,1.23-.26,2.88,2.88,0,0,1,.83.13,3.6,3.6,0,0,1,.74.35,2.48,2.48,0,0,1,.58.54,2.28,2.28,0,0,1,.38.68h0a2.72,2.72,0,0,1,1-1.54,3.25,3.25,0,0,1,1.92-.57,3,3,0,0,1,1.33.29,3.18,3.18,0,0,1,1,.79,3.41,3.41,0,0,1,.65,1.13,4.18,4.18,0,0,1,.22,1.37,4.14,4.14,0,0,1-.22,1.37,3.56,3.56,0,0,1-.65,1.14,3.3,3.3,0,0,1-1,.78,2.86,2.86,0,0,1-1.33.3,3.26,3.26,0,0,1-1.92-.58,2.66,2.66,0,0,1-1-1.54Zm-2.44-3.48a2.06,2.06,0,0,0-.79.15,1.87,1.87,0,0,0-.64.42,2.13,2.13,0,0,0-.57,1.44,2.08,2.08,0,0,0,.16.8,2,2,0,0,0,.41.64,1.9,1.9,0,0,0,.64.43,2.18,2.18,0,0,0,1.59,0,1.9,1.9,0,0,0,.64-.43,2,2,0,0,0,.41-.64,2.07,2.07,0,0,0,.15-.8,2.06,2.06,0,0,0-.56-1.44,1.87,1.87,0,0,0-.64-.42A2.07,2.07,0,0,0,230.12,150.08Zm5.29-.42a2.29,2.29,0,0,0-.92.18,2.2,2.2,0,0,0-.74.48,2.26,2.26,0,0,0-.49.77,2.73,2.73,0,0,0-.18,1,2.67,2.67,0,0,0,.18,1,2.18,2.18,0,0,0,1.23,1.25,2.29,2.29,0,0,0,.92.17,2.35,2.35,0,0,0,.92-.17,2.29,2.29,0,0,0,.73-.49,2.21,2.21,0,0,0,.49-.76,2.68,2.68,0,0,0,.17-1,2.73,2.73,0,0,0-.17-1,2.13,2.13,0,0,0-1.22-1.25A2.36,2.36,0,0,0,235.41,149.66Z"/><path d="M228.32,140.21v4.62l3.4.08a4.17,4.17,0,0,1-.2-.75,4.08,4.08,0,0,1-.07-.77,3.83,3.83,0,0,1,.27-1.46,3.54,3.54,0,0,1,.77-1.13,3.33,3.33,0,0,1,1.15-.73,3.77,3.77,0,0,1,1.44-.27,3.82,3.82,0,0,1,1.5.29,3.69,3.69,0,0,1,1.17.8,3.77,3.77,0,0,1,.76,1.21,4.13,4.13,0,0,1,.27,1.51,3.75,3.75,0,0,1-.51,1.94,3.34,3.34,0,0,1-1.51,1.33l-.49-1.16a2.58,2.58,0,0,0,1.06-.89,2.28,2.28,0,0,0,.39-1.32,2.43,2.43,0,0,0-.2-1,2.72,2.72,0,0,0-.53-.8,2.46,2.46,0,0,0-.8-.54,2.37,2.37,0,0,0-1-.2,2.94,2.94,0,0,0-1.09.2,2.72,2.72,0,0,0-.86.58,2.57,2.57,0,0,0-.55.88,3.14,3.14,0,0,0-.19,1.12,4.16,4.16,0,0,0,.17,1.21,5.64,5.64,0,0,0,.45,1.14l-5.87-.11v-5.77Z"/><path d="M238.59,130.78V138h-1.33l-4.59-4.51c-.17-.17-.35-.34-.55-.51a5.39,5.39,0,0,0-.6-.47,3,3,0,0,0-.68-.33,2,2,0,0,0-.73-.13,1.84,1.84,0,0,0-.83.17,1.74,1.74,0,0,0-.63.47,2.18,2.18,0,0,0-.39.7,2.66,2.66,0,0,0-.14.85,2.34,2.34,0,0,0,.48,1.47,2.2,2.2,0,0,0,1.3.79l-.13,1.21a3.14,3.14,0,0,1-2-1.16,3.49,3.49,0,0,1-.72-2.23,4.59,4.59,0,0,1,.18-1.3,3.49,3.49,0,0,1,.55-1.09,2.67,2.67,0,0,1,.92-.75,2.79,2.79,0,0,1,1.29-.28,3.29,3.29,0,0,1,1.2.2,4.33,4.33,0,0,1,1,.52,6.85,6.85,0,0,1,.91.72l.85.84,3.53,3.57v-5.95Z"/><path d="M232.76,124.25l-.83,0-.83,0V123.2h1.14v0a2.41,2.41,0,0,1-1-1.06,2.94,2.94,0,0,1-.34-1.35,3.83,3.83,0,0,1,.06-.65,2.28,2.28,0,0,1,.24-.66,1.89,1.89,0,0,1,.47-.6,2.47,2.47,0,0,1,.78-.48,2.41,2.41,0,0,1-1.13-1,2.79,2.79,0,0,1-.42-1.45,2.73,2.73,0,0,1,.76-2.13,3.12,3.12,0,0,1,2.17-.69h4.75v1.06h-4.37a3.11,3.11,0,0,0-1.74.4,1.64,1.64,0,0,0-.61,1.49,2,2,0,0,0,.23,1,1.93,1.93,0,0,0,.62.65,2.84,2.84,0,0,0,.87.36,4.74,4.74,0,0,0,1,.11h4v1.06h-4.37a3.11,3.11,0,0,0-1.74.4,1.62,1.62,0,0,0-.61,1.48,3.37,3.37,0,0,0,.06.44,1.74,1.74,0,0,0,.36.72,2.56,2.56,0,0,0,.86.66,3.51,3.51,0,0,0,1.6.3h3.84v1Z"/><path d="M232.76,110.62l-.83,0-.83.06v-1.14h1.14v0a2.41,2.41,0,0,1-1-1.06,3,3,0,0,1-.34-1.35,3.74,3.74,0,0,1,.06-.65,2.45,2.45,0,0,1,.24-.67,2.14,2.14,0,0,1,.47-.6,2.65,2.65,0,0,1,.78-.47,2.41,2.41,0,0,1-1.13-1,2.79,2.79,0,0,1-.42-1.45,2.73,2.73,0,0,1,.76-2.13,3.12,3.12,0,0,1,2.17-.69h4.75v1.06h-4.37a3.11,3.11,0,0,0-1.74.4,1.64,1.64,0,0,0-.61,1.49,2,2,0,0,0,.23,1,1.93,1.93,0,0,0,.62.65,2.84,2.84,0,0,0,.87.36,4.74,4.74,0,0,0,1,.11h4v1h-4.37a3.2,3.2,0,0,0-1.74.4,1.65,1.65,0,0,0-.61,1.49,3.37,3.37,0,0,0,.06.44,1.65,1.65,0,0,0,.36.71,2.45,2.45,0,0,0,.86.67,3.52,3.52,0,0,0,1.6.29h3.84v1.06Z"/></g><line class="cls-5" x1="217.9" y1="76.1" x2="217.9" y2="216.95"/><line class="cls-5" x1="219.97" y1="76.1" x2="215.6" y2="76.1"/><line class="cls-5" x1="220.66" y1="216.95" x2="216.28" y2="216.95"/><line class="cls-5" x1="134.21" y1="37.46" x2="161.25" y2="37.46"/><line class="cls-5" x1="134.2" y1="36.17" x2="134.2" y2="38.76"/><line class="cls-5" x1="161.25" y1="36.17" x2="161.25" y2="38.76"/><g class="cls-4"><path d="M119.35,21.74A3.82,3.82,0,0,1,120,22.9a4.2,4.2,0,0,1,.25,1.45,4,4,0,0,1-.3,1.56A3.71,3.71,0,0,1,117.9,28a4.35,4.35,0,0,1-1.61.29,4.15,4.15,0,0,1-1.4-.22,3.72,3.72,0,0,1-1.11-.61l-1.07,1.09-.51-.5,1-1.09a3.78,3.78,0,0,1-.68-1.17,4.17,4.17,0,0,1-.24-1.43,4,4,0,0,1,.29-1.57,3.73,3.73,0,0,1,2.08-2.07,4.17,4.17,0,0,1,1.59-.3,4.24,4.24,0,0,1,1.4.22,4,4,0,0,1,1.15.61l1-1.09.52.5ZM118.1,22a2.69,2.69,0,0,0-1.81-.62,2.91,2.91,0,0,0-1.17.23,2.71,2.71,0,0,0-.88.63,2.91,2.91,0,0,0-.56.95,3.2,3.2,0,0,0-.2,1.17,3,3,0,0,0,.54,1.82Zm-3.6,4.72a2.43,2.43,0,0,0,.8.45,2.86,2.86,0,0,0,1,.16,3,3,0,0,0,1.18-.23,2.57,2.57,0,0,0,.89-.63,3,3,0,0,0,.57-.95,3.41,3.41,0,0,0,.2-1.16,3.16,3.16,0,0,0-.55-1.83Z"/><path d="M128.76,21.63h.59a3.69,3.69,0,0,0,1-.12,2,2,0,0,0,.79-.36,1.68,1.68,0,0,0,.54-.64,2.19,2.19,0,0,0,.2-1,1.82,1.82,0,0,0-.55-1.42,2.21,2.21,0,0,0-1.55-.5,2.36,2.36,0,0,0-1.26.32,2.56,2.56,0,0,0-.9.92l-1-.51A3.41,3.41,0,0,1,127.87,17a3.75,3.75,0,0,1,1.83-.44,4.07,4.07,0,0,1,1.27.19,3.18,3.18,0,0,1,1,.57,2.88,2.88,0,0,1,.71.93,3,3,0,0,1,.26,1.25,2.54,2.54,0,0,1-.15.88,2.69,2.69,0,0,1-.42.76,3.06,3.06,0,0,1-.61.58,2.89,2.89,0,0,1-.74.38l.05,0a2.34,2.34,0,0,1,.88.36,2.51,2.51,0,0,1,.69.65,2.8,2.8,0,0,1,.44.86,3.1,3.1,0,0,1,.17,1,3.23,3.23,0,0,1-.29,1.39,2.86,2.86,0,0,1-.79,1,3.49,3.49,0,0,1-1.15.64,4.54,4.54,0,0,1-1.39.21,4.27,4.27,0,0,1-2.18-.54A3.31,3.31,0,0,1,126.1,26l1.22-.36a2.33,2.33,0,0,0,.85,1.2,2.72,2.72,0,0,0,1.6.4,2.81,2.81,0,0,0,.91-.16,2.34,2.34,0,0,0,.76-.46,2,2,0,0,0,.51-.71,2.27,2.27,0,0,0,.18-.91,2.21,2.21,0,0,0-.24-1.08,2,2,0,0,0-.64-.72,2.64,2.64,0,0,0-.92-.39,4.7,4.7,0,0,0-1.08-.12h-.49Z"/><path d="M138.84,16.57a3.26,3.26,0,0,1,2,.56A3.74,3.74,0,0,1,142,18.55a6.17,6.17,0,0,1,.56,1.9,13.08,13.08,0,0,1,0,3.95,6.17,6.17,0,0,1-.56,1.9,3.74,3.74,0,0,1-1.16,1.42,3.75,3.75,0,0,1-3.94,0,3.86,3.86,0,0,1-1.17-1.42,6.45,6.45,0,0,1-.56-1.9,14,14,0,0,1,0-3.95,6.45,6.45,0,0,1,.56-1.9,3.86,3.86,0,0,1,1.17-1.42A3.24,3.24,0,0,1,138.84,16.57Zm0,1.06a2.09,2.09,0,0,0-1.47.49,3.3,3.3,0,0,0-.81,1.23,6.27,6.27,0,0,0-.34,1.57c-.05.56-.07,1.06-.07,1.51s0,.95.07,1.5a6.18,6.18,0,0,0,.34,1.57,3.3,3.3,0,0,0,.81,1.23,2.09,2.09,0,0,0,1.47.5,2.07,2.07,0,0,0,1.46-.5,3.08,3.08,0,0,0,.81-1.23,5.78,5.78,0,0,0,.34-1.57c.05-.55.08-1.06.08-1.5s0-.95-.08-1.51a5.86,5.86,0,0,0-.34-1.57,3.08,3.08,0,0,0-.81-1.23A2.06,2.06,0,0,0,138.84,17.63Z"/><path d="M147.73,16.57a3.24,3.24,0,0,1,2,.56,3.86,3.86,0,0,1,1.17,1.42,6.45,6.45,0,0,1,.56,1.9,14,14,0,0,1,0,3.95,6.45,6.45,0,0,1-.56,1.9,3.86,3.86,0,0,1-1.17,1.42,3.73,3.73,0,0,1-3.93,0,3.67,3.67,0,0,1-1.17-1.42,6.17,6.17,0,0,1-.56-1.9,13.08,13.08,0,0,1,0-3.95,6.17,6.17,0,0,1,.56-1.9,3.67,3.67,0,0,1,1.17-1.42A3.21,3.21,0,0,1,147.73,16.57Zm0,1.06a2.06,2.06,0,0,0-1.46.49,3.08,3.08,0,0,0-.81,1.23,6.27,6.27,0,0,0-.34,1.57c-.05.56-.08,1.06-.08,1.51s0,.95.08,1.5a6.18,6.18,0,0,0,.34,1.57,3.08,3.08,0,0,0,.81,1.23,2.07,2.07,0,0,0,1.46.5,2.09,2.09,0,0,0,1.47-.5A3.3,3.3,0,0,0,150,25.5a6.18,6.18,0,0,0,.34-1.57c.05-.55.07-1.06.07-1.5s0-.95-.07-1.51a6.27,6.27,0,0,0-.34-1.57,3.3,3.3,0,0,0-.81-1.23A2.09,2.09,0,0,0,147.73,17.63Z"/><path d="M157.78,22.27c0-.28,0-.56,0-.84l-.06-.83h1.14v1.14h0a2.41,2.41,0,0,1,1.06-1,3,3,0,0,1,1.35-.34,3.74,3.74,0,0,1,.65.06,2.45,2.45,0,0,1,.67.24,2.34,2.34,0,0,1,.6.47,2.65,2.65,0,0,1,.47.78,2.41,2.41,0,0,1,1-1.13,2.79,2.79,0,0,1,1.45-.42,2.73,2.73,0,0,1,2.13.76,3.12,3.12,0,0,1,.69,2.17v4.75h-1.06V23.72a3.13,3.13,0,0,0-.4-1.74,1.63,1.63,0,0,0-1.49-.61,1.82,1.82,0,0,0-1.64.85,3,3,0,0,0-.36.87,4.83,4.83,0,0,0-.11,1v4h-1V23.72a3.22,3.22,0,0,0-.4-1.74,1.65,1.65,0,0,0-1.49-.61l-.44.06a1.65,1.65,0,0,0-.71.36,2.55,2.55,0,0,0-.67.86,3.66,3.66,0,0,0-.29,1.6v3.84h-1.06Z"/><path d="M171.41,22.27c0-.28,0-.56,0-.84l-.06-.83h1.14v1.14h0a2.47,2.47,0,0,1,1.06-1,3,3,0,0,1,1.36-.34,3.72,3.72,0,0,1,.64.06,2.45,2.45,0,0,1,.67.24,2.34,2.34,0,0,1,.6.47,2.65,2.65,0,0,1,.47.78,2.38,2.38,0,0,1,1-1.13,3.06,3.06,0,0,1,3.57.34,3.12,3.12,0,0,1,.69,2.17v4.75h-1.06V23.72a3.13,3.13,0,0,0-.4-1.74,1.62,1.62,0,0,0-1.48-.61,2,2,0,0,0-1,.23,1.9,1.9,0,0,0-.64.62,2.5,2.5,0,0,0-.36.87,4.25,4.25,0,0,0-.12,1v4h-1.05V23.72a3.22,3.22,0,0,0-.4-1.74,1.64,1.64,0,0,0-1.49-.61l-.44.06a1.65,1.65,0,0,0-.71.36,2.55,2.55,0,0,0-.67.86,3.66,3.66,0,0,0-.29,1.6v3.84h-1.06Z"/></g><line class="cls-5" x1="129.76" y1="91.2" x2="152.49" y2="83.66"/><line class="cls-5" x1="129.59" y1="90.73" x2="129.9" y2="91.67"/><line class="cls-5" x1="152.33" y1="83.18" x2="152.64" y2="84.13"/><g class="cls-4"><path d="M102.39,117.26l-6.83,2.27-.42-1.26L98,112.49c.11-.21.22-.44.32-.68a5.55,5.55,0,0,0,.25-.72,3.78,3.78,0,0,0,.11-.74,2.33,2.33,0,0,0-.11-.74,1.93,1.93,0,0,0-.43-.74,1.67,1.67,0,0,0-.64-.44,2.09,2.09,0,0,0-.79-.15,2.53,2.53,0,0,0-.85.14,2.31,2.31,0,0,0-1.25.91,2.22,2.22,0,0,0-.33,1.48l-1.2.26a3.2,3.2,0,0,1,.48-2.25,3.51,3.51,0,0,1,1.89-1.38,4.31,4.31,0,0,1,1.3-.24,3.36,3.36,0,0,1,1.2.18,2.84,2.84,0,0,1,1,.64,2.93,2.93,0,0,1,.67,1.13,3.51,3.51,0,0,1,.19,1.21,5.42,5.42,0,0,1-.17,1.13,7.7,7.7,0,0,1-.41,1.1c-.17.36-.34.71-.53,1.07l-2.27,4.48,5.65-1.88Z"/><path d="M108.41,111.32l1.55-.51.33,1-1.55.51.85,2.56-1.09.36-.85-2.55L103,114.23l-.41-1.25,2-8.39,1.4-.47Zm-3.12-5.74h0l-1.68,7.33,3.74-1.24Z"/><path d="M112.31,101.84a3.15,3.15,0,0,1,2-.09,3.73,3.73,0,0,1,1.56,1,6.6,6.6,0,0,1,1.13,1.62,15.18,15.18,0,0,1,.76,1.83,13.47,13.47,0,0,1,.48,1.92,6.33,6.33,0,0,1,.07,2,3.77,3.77,0,0,1-.66,1.72A3.75,3.75,0,0,1,114,113a3.79,3.79,0,0,1-1.55-1,6.22,6.22,0,0,1-1.13-1.63,14,14,0,0,1-.76-1.83,14.15,14.15,0,0,1-.49-1.92,6.56,6.56,0,0,1-.06-2,3.73,3.73,0,0,1,.66-1.72A3.14,3.14,0,0,1,112.31,101.84Zm.33,1a2,2,0,0,0-1.23.93,3.1,3.1,0,0,0-.38,1.42,5.85,5.85,0,0,0,.17,1.6c.13.54.26,1,.4,1.45s.32.89.54,1.41A6,6,0,0,0,113,111a3.1,3.1,0,0,0,1.16.92,2.09,2.09,0,0,0,1.54,0,2.14,2.14,0,0,0,1.24-.93,3.23,3.23,0,0,0,.38-1.43,6.24,6.24,0,0,0-.17-1.59,14.55,14.55,0,0,0-.41-1.45q-.21-.64-.54-1.41a5.92,5.92,0,0,0-.82-1.38,3.12,3.12,0,0,0-1.15-.91A2.06,2.06,0,0,0,112.64,102.84Z"/><path d="M123.64,104.08c-.09-.27-.18-.53-.29-.78s-.2-.52-.31-.78l1.08-.35.36,1.07h0a2.41,2.41,0,0,1,.69-1.27,3,3,0,0,1,1.18-.75,3.66,3.66,0,0,1,.63-.14,2.41,2.41,0,0,1,.71,0,2.32,2.32,0,0,1,.72.26,2.47,2.47,0,0,1,.69.59,2.4,2.4,0,0,1,.61-1.39,3.08,3.08,0,0,1,3.5-.8,3.14,3.14,0,0,1,1.34,1.84l1.49,4.51-1,.33-1.38-4.15a3.11,3.11,0,0,0-.92-1.52,1.64,1.64,0,0,0-1.61-.11,2,2,0,0,0-.87.53,2,2,0,0,0-.42.79,2.65,2.65,0,0,0-.06.94,4.46,4.46,0,0,0,.21,1l1.25,3.78-1,.33-1.37-4.14a3.18,3.18,0,0,0-.93-1.53,1.66,1.66,0,0,0-1.61-.11,3.64,3.64,0,0,0-.39.2,1.59,1.59,0,0,0-.57.56,2.65,2.65,0,0,0-.36,1,3.6,3.6,0,0,0,.23,1.61l1.21,3.64-1,.34Z"/><path d="M136.58,99.78c-.09-.26-.18-.52-.29-.78s-.21-.51-.31-.77l1.08-.36.35,1.08h0a2.57,2.57,0,0,1,.7-1.28,3,3,0,0,1,1.18-.74,3.66,3.66,0,0,1,.63-.14,2.12,2.12,0,0,1,.71,0,2.25,2.25,0,0,1,.72.26,2.47,2.47,0,0,1,.69.59,2.43,2.43,0,0,1,.61-1.4,3.08,3.08,0,0,1,3.5-.8,3.12,3.12,0,0,1,1.33,1.85l1.5,4.51-1,.33L146.63,98a3.11,3.11,0,0,0-.93-1.53,1.67,1.67,0,0,0-1.6-.11,2.09,2.09,0,0,0-.87.54,2,2,0,0,0-.42.79,2.63,2.63,0,0,0-.07.94,5.29,5.29,0,0,0,.22,1l1.25,3.78-1,.33-1.38-4.15a3.2,3.2,0,0,0-.92-1.53,1.67,1.67,0,0,0-1.61-.1,2.72,2.72,0,0,0-.4.2,1.62,1.62,0,0,0-.56.55,2.71,2.71,0,0,0-.36,1,3.74,3.74,0,0,0,.22,1.62l1.21,3.64-1,.33Z"/></g><line class="cls-5" x1="124.4" y1="191.02" x2="149.6" y2="180.74"/><line class="cls-5" x1="124.14" y1="190.43" x2="124.63" y2="191.63"/><line class="cls-5" x1="149.36" y1="180.14" x2="149.85" y2="181.34"/><g class="cls-4"><path d="M85.61,190.36a3.57,3.57,0,0,1,1.07.81,4,4,0,0,1,.77,1.25,4,4,0,0,1,.32,1.56,3.72,3.72,0,0,1-1.14,2.71,4.41,4.41,0,0,1-1.38.88,4.18,4.18,0,0,1-1.38.32,4,4,0,0,1-1.26-.14L82,199.16l-.66-.27.56-1.4a3.9,3.9,0,0,1-1.08-.83,4.3,4.3,0,0,1-.76-1.24,4.15,4.15,0,0,1-.32-1.56,3.68,3.68,0,0,1,1.15-2.71,4.29,4.29,0,0,1,1.36-.87,4.35,4.35,0,0,1,1.37-.33,3.77,3.77,0,0,1,1.3.14l.57-1.41.66.27Zm-1.06.7a2.65,2.65,0,0,0-1.91.11,2.73,2.73,0,0,0-1,.66,2.76,2.76,0,0,0-.58.91,3,3,0,0,0-.16,1.09,3.47,3.47,0,0,0,.26,1.16,3,3,0,0,0,1.19,1.48ZM83,196.79a2.74,2.74,0,0,0,.91.12,3.14,3.14,0,0,0,2-.89,2.56,2.56,0,0,0,.58-.92,2.63,2.63,0,0,0,.17-1.09,3.45,3.45,0,0,0-.25-1.16,3.16,3.16,0,0,0-1.2-1.48Z"/><path d="M94.28,186.7l.55-.22a4.31,4.31,0,0,0,.84-.47,2.07,2.07,0,0,0,.59-.63,1.84,1.84,0,0,0,.26-.8,2.21,2.21,0,0,0-.18-1,1.82,1.82,0,0,0-1-1.1,2.22,2.22,0,0,0-1.62.12,2.53,2.53,0,0,0-1,.77,2.58,2.58,0,0,0-.48,1.2L91,184.5a3.39,3.39,0,0,1,.69-1.74,3.73,3.73,0,0,1,1.53-1.1,4.07,4.07,0,0,1,1.25-.3,3,3,0,0,1,1.17.13,2.76,2.76,0,0,1,1.73,1.66,2.43,2.43,0,0,1,.19.87,2.68,2.68,0,0,1-.1.85,2.74,2.74,0,0,1-.35.78,2.49,2.49,0,0,1-.54.62l.06,0a2.17,2.17,0,0,1,.95,0,2.75,2.75,0,0,1,.88.33,3,3,0,0,1,.74.64,2.94,2.94,0,0,1,.53.87,3.12,3.12,0,0,1,.26,1.4,2.9,2.9,0,0,1-.34,1.24,3.49,3.49,0,0,1-.83,1,4.53,4.53,0,0,1-1.2.73,4.29,4.29,0,0,1-2.22.32,3.39,3.39,0,0,1-2-1.09l1-.8a2.32,2.32,0,0,0,1.25.79,2.76,2.76,0,0,0,1.62-.24,2.64,2.64,0,0,0,.78-.49,2.28,2.28,0,0,0,.53-.71,2.05,2.05,0,0,0,.21-.85,2.11,2.11,0,0,0-.18-.91,2.17,2.17,0,0,0-.63-.91,1.88,1.88,0,0,0-.86-.42,2.78,2.78,0,0,0-1,0,4.92,4.92,0,0,0-1,.3l-.46.19Z"/><path d="M102.41,183.85a2.54,2.54,0,0,1-.77-.09,3,3,0,0,1-.72-.34,2.82,2.82,0,0,1-.6-.55,2.75,2.75,0,0,1-.43-.72,2.79,2.79,0,0,1,.06-2.36,3.12,3.12,0,0,1,.71-.93,3.58,3.58,0,0,1,1-.65,3.46,3.46,0,0,1,1.21-.26,3,3,0,0,1,1.16.16,2.86,2.86,0,0,1,1,.61,3,3,0,0,1,.7,1,2.88,2.88,0,0,1,.19.82,2.76,2.76,0,0,1,0,.81,2.41,2.41,0,0,1-.76,1.35v0a2.69,2.69,0,0,1,1.82.39,3.18,3.18,0,0,1,1.26,1.56,3,3,0,0,1,.23,1.35,3.41,3.41,0,0,1-.34,1.23,3.49,3.49,0,0,1-.81,1,4.58,4.58,0,0,1-1.18.73,4.4,4.4,0,0,1-1.36.31,3.69,3.69,0,0,1-1.29-.17,3.45,3.45,0,0,1-1.11-.65,3,3,0,0,1-.78-1.12,3.22,3.22,0,0,1-.19-2,2.76,2.76,0,0,1,1-1.56Zm2.31-3.57a1.86,1.86,0,0,0-.44-.68,1.91,1.91,0,0,0-.63-.43,2,2,0,0,0-.75-.14,2.08,2.08,0,0,0-.8.16,2.28,2.28,0,0,0-.68.44,2.05,2.05,0,0,0-.44.63,1.85,1.85,0,0,0-.15.74,2,2,0,0,0,.16.8,2.21,2.21,0,0,0,.44.69,2,2,0,0,0,.63.42,2.12,2.12,0,0,0,.75.14,2,2,0,0,0,.8-.16,1.9,1.9,0,0,0,.69-.44,2.2,2.2,0,0,0,.43-.63,2,2,0,0,0,.16-.74A2.09,2.09,0,0,0,104.72,180.28ZM107.1,185a2.2,2.2,0,0,0-.51-.78,2.12,2.12,0,0,0-.73-.5,2.17,2.17,0,0,0-.89-.16,2.89,2.89,0,0,0-1.86.76,2.11,2.11,0,0,0-.69,1.6,2.16,2.16,0,0,0,.18.92,2.2,2.2,0,0,0,.51.78,2.12,2.12,0,0,0,.73.5,2.35,2.35,0,0,0,.89.17,2.92,2.92,0,0,0,1-.22,3,3,0,0,0,.86-.54,2.27,2.27,0,0,0,.52-.74,2.12,2.12,0,0,0,.18-.87A2.33,2.33,0,0,0,107.1,185Z"/><path d="M109.94,174.85a3.22,3.22,0,0,1,2-.22,3.68,3.68,0,0,1,1.62.88,6.12,6.12,0,0,1,1.24,1.54,13.29,13.29,0,0,1,1.49,3.66,6.38,6.38,0,0,1,.2,2,3.79,3.79,0,0,1-.55,1.76,3.72,3.72,0,0,1-3.64,1.48,3.73,3.73,0,0,1-1.62-.88,6.09,6.09,0,0,1-1.23-1.54,12.75,12.75,0,0,1-.88-1.78,13.81,13.81,0,0,1-.62-1.88,6.37,6.37,0,0,1-.19-2,3.9,3.9,0,0,1,.54-1.76A3.24,3.24,0,0,1,109.94,174.85Zm.4,1a2.09,2.09,0,0,0-1.17,1,3.19,3.19,0,0,0-.28,1.45,6.31,6.31,0,0,0,.27,1.58c.17.53.33,1,.5,1.42a14.56,14.56,0,0,0,.64,1.36,6,6,0,0,0,.91,1.33,3.17,3.17,0,0,0,1.21.83,2.08,2.08,0,0,0,1.54-.09,2,2,0,0,0,1.17-1,3.19,3.19,0,0,0,.29-1.45,5.91,5.91,0,0,0-.28-1.58c-.16-.53-.33-1-.5-1.42s-.38-.87-.63-1.37a6.57,6.57,0,0,0-.91-1.32,3.2,3.2,0,0,0-1.22-.83A2.09,2.09,0,0,0,110.34,175.83Z"/><path d="M121.4,176.33c-.11-.25-.22-.51-.34-.76s-.24-.5-.37-.75l1.06-.43.42,1.06,0,0a2.44,2.44,0,0,1,.61-1.32,2.93,2.93,0,0,1,1.74-1,2.41,2.41,0,0,1,.71,0,2.08,2.08,0,0,1,.73.21,2.55,2.55,0,0,1,.73.55,2.49,2.49,0,0,1,.52-1.44,2.73,2.73,0,0,1,1.18-.93,2.77,2.77,0,0,1,2.26-.1,3.14,3.14,0,0,1,1.45,1.75l1.8,4.4-1,.4-1.65-4a3.23,3.23,0,0,0-1-1.46,1.63,1.63,0,0,0-1.61,0,2,2,0,0,0-.83.59,1.87,1.87,0,0,0-.37.81,3,3,0,0,0,0,.95,4.51,4.51,0,0,0,.28,1l1.5,3.69-1,.4-1.65-4a3.17,3.17,0,0,0-1-1.46,1.63,1.63,0,0,0-1.61,0,2.78,2.78,0,0,0-.38.22,1.76,1.76,0,0,0-.53.6,2.67,2.67,0,0,0-.29,1.05,3.61,3.61,0,0,0,.33,1.59l1.45,3.56-1,.4Z"/><path d="M134,171.19c-.11-.26-.22-.51-.34-.76s-.24-.51-.36-.75l1.05-.43.43,1.05h0a2.41,2.41,0,0,1,.61-1.32,3,3,0,0,1,1.12-.83,4.73,4.73,0,0,1,.63-.18,2.34,2.34,0,0,1,.7,0,2.51,2.51,0,0,1,.73.21,2.58,2.58,0,0,1,.74.55,2.38,2.38,0,0,1,.51-1.43,2.73,2.73,0,0,1,1.18-.94,2.77,2.77,0,0,1,2.26-.1,3.15,3.15,0,0,1,1.46,1.75l1.79,4.4-1,.4-1.65-4a3.19,3.19,0,0,0-1-1.47,1.66,1.66,0,0,0-1.6,0,2,2,0,0,0-.84.59,2,2,0,0,0-.36.82,2.69,2.69,0,0,0,0,.94,5,5,0,0,0,.28,1l1.51,3.69-1,.4-1.65-4a3.23,3.23,0,0,0-1-1.46,1.68,1.68,0,0,0-1.61,0l-.38.23a1.61,1.61,0,0,0-.52.59,2.37,2.37,0,0,0-.29,1.05,3.47,3.47,0,0,0,.33,1.59l1.45,3.56-1,.4Z"/></g></svg>