<svg xmlns="http://www.w3.org/2000/svg" viewBox="0 0 300 263"><defs><style>.cls-1,.cls-2,.cls-3,.cls-4{fill:none;stroke-linecap:round;}.cls-1,.cls-2{stroke:red;}.cls-1,.cls-2,.cls-4{stroke-linejoin:round;}.cls-1,.cls-3,.cls-4{stroke-width:0.6px;}.cls-3,.cls-4{stroke:#000;}.cls-3{stroke-miterlimit:10;}</style></defs><title>ic-floor-2-anastassiades-flos-F31740-curva-fotometrica</title><g id="numeri_esterni_diagramma" data-name="numeri esterni diagramma"><path d="M148.27,239.2a6.85,6.85,0,0,1,.08-1,3.41,3.41,0,0,1,.3-.95,1.94,1.94,0,0,1,.59-.71,1.57,1.57,0,0,1,.95-.27,1.6,1.6,0,0,1,1,.27,2,2,0,0,1,.59.71,3.1,3.1,0,0,1,.29.95,5.7,5.7,0,0,1,.08,1,5.85,5.85,0,0,1-.08,1,3.13,3.13,0,0,1-.29.94,2,2,0,0,1-.59.71,1.6,1.6,0,0,1-1,.27,1.57,1.57,0,0,1-.95-.27,1.94,1.94,0,0,1-.59-.71,3.45,3.45,0,0,1-.3-.94A7.07,7.07,0,0,1,148.27,239.2Zm.68,0c0,.13,0,.29,0,.46a4.88,4.88,0,0,0,.06.52,2.83,2.83,0,0,0,.13.5,1.65,1.65,0,0,0,.22.44,1.24,1.24,0,0,0,.34.31,1,1,0,0,0,.48.12.9.9,0,0,0,.48-.12,1,1,0,0,0,.34-.31,1.41,1.41,0,0,0,.23-.44,4.07,4.07,0,0,0,.13-.5c0-.18,0-.35.06-.52s0-.33,0-.46,0-.3,0-.47,0-.34-.06-.51a3.8,3.8,0,0,0-.13-.51,1.53,1.53,0,0,0-.23-.44,1,1,0,0,0-.34-.31.9.9,0,0,0-.48-.12,1,1,0,0,0-.48.12,1.24,1.24,0,0,0-.34.31,1.81,1.81,0,0,0-.22.44,2.72,2.72,0,0,0-.13.51,4.43,4.43,0,0,0-.06.51C149,238.9,149,239.06,149,239.2Z"/><path d="M152.83,237.41a1.33,1.33,0,0,1,.08-.45,1.11,1.11,0,0,1,.25-.36,1,1,0,0,1,.36-.24,1.17,1.17,0,0,1,.9,0,1,1,0,0,1,.36.24,1.11,1.11,0,0,1,.25.36,1.31,1.31,0,0,1,0,.9,1.23,1.23,0,0,1-.61.61,1.17,1.17,0,0,1-.9,0,1.23,1.23,0,0,1-.61-.61A1.33,1.33,0,0,1,152.83,237.41Zm.43,0a.79.79,0,0,0,.05.25.68.68,0,0,0,.14.23.66.66,0,0,0,.23.17.73.73,0,0,0,.58,0,.76.76,0,0,0,.23-.17.88.88,0,0,0,.14-.23.65.65,0,0,0,0-.5,1.09,1.09,0,0,0-.14-.23,1,1,0,0,0-.23-.17.73.73,0,0,0-.58,0,.81.81,0,0,0-.23.17.75.75,0,0,0-.19.48Z"/><path d="M203.17,238.76h.21l.43,0a1.15,1.15,0,0,0,.42-.13.77.77,0,0,0,.31-.31.94.94,0,0,0,.13-.51.87.87,0,0,0-.27-.68,1,1,0,0,0-.7-.26,1.28,1.28,0,0,0-.63.16,1.14,1.14,0,0,0-.41.48l-.65-.25a1.48,1.48,0,0,1,.65-.72,2.07,2.07,0,0,1,1-.24,2.25,2.25,0,0,1,.64.09,1.72,1.72,0,0,1,.54.28,1.37,1.37,0,0,1,.37.46,1.48,1.48,0,0,1,.14.65,1.29,1.29,0,0,1-.27.8,1.34,1.34,0,0,1-.7.49v0a1.48,1.48,0,0,1,.85.49,1.37,1.37,0,0,1,.23.43,1.69,1.69,0,0,1,.08.5,1.66,1.66,0,0,1-.15.72,1.57,1.57,0,0,1-.41.51,1.71,1.71,0,0,1-.6.31,2.34,2.34,0,0,1-.71.1,2.18,2.18,0,0,1-1.13-.28,1.61,1.61,0,0,1-.7-.91l.68-.22a1.33,1.33,0,0,0,.41.65,1.3,1.3,0,0,0,.74.19,1.33,1.33,0,0,0,.45-.08,1.11,1.11,0,0,0,.36-.23,1.24,1.24,0,0,0,.25-.35,1.13,1.13,0,0,0,.09-.45,1.07,1.07,0,0,0-.12-.53,1,1,0,0,0-.33-.33,1.23,1.23,0,0,0-.46-.18,2.31,2.31,0,0,0-.52-.06h-.21Z"/><path d="M206.24,239.2a6.85,6.85,0,0,1,.08-1,3.11,3.11,0,0,1,.3-.95,1.94,1.94,0,0,1,.59-.71,1.55,1.55,0,0,1,.95-.27,1.6,1.6,0,0,1,1,.27,2,2,0,0,1,.59.71,3.1,3.1,0,0,1,.29.95,5.7,5.7,0,0,1,.08,1,5.85,5.85,0,0,1-.08,1,3.13,3.13,0,0,1-.29.94,2,2,0,0,1-.59.71,1.6,1.6,0,0,1-1,.27,1.55,1.55,0,0,1-.95-.27,1.94,1.94,0,0,1-.59-.71,3.14,3.14,0,0,1-.3-.94A7.07,7.07,0,0,1,206.24,239.2Zm.67,0c0,.13,0,.29,0,.46a4.88,4.88,0,0,0,.06.52,2.83,2.83,0,0,0,.13.5,1.4,1.4,0,0,0,.22.44,1.24,1.24,0,0,0,.34.31,1,1,0,0,0,.48.12.9.9,0,0,0,.48-.12,1,1,0,0,0,.34-.31,1.41,1.41,0,0,0,.23-.44,4.05,4.05,0,0,0,.12-.5,4.88,4.88,0,0,0,.06-.52,3.86,3.86,0,0,0,0-.46,3.94,3.94,0,0,0,0-.47,4.43,4.43,0,0,0-.06-.51,3.81,3.81,0,0,0-.12-.51,1.53,1.53,0,0,0-.23-.44,1,1,0,0,0-.34-.31.9.9,0,0,0-.48-.12,1,1,0,0,0-.48.12,1.24,1.24,0,0,0-.34.31,1.51,1.51,0,0,0-.22.44,2.72,2.72,0,0,0-.13.51,4.43,4.43,0,0,0-.06.51C206.92,238.9,206.91,239.06,206.91,239.2Z"/><path d="M210.84,237.41a1.13,1.13,0,0,1,.09-.45,1.26,1.26,0,0,1,.24-.36,1.2,1.2,0,0,1,.82-.33,1,1,0,0,1,.44.09,1.12,1.12,0,0,1,.37.24,1.26,1.26,0,0,1,.24.36,1.16,1.16,0,0,1-.24,1.26,1.15,1.15,0,0,1-.37.25,1,1,0,0,1-.44.09,1.13,1.13,0,0,1-.45-.09,1.15,1.15,0,0,1-.37-.25,1.15,1.15,0,0,1-.33-.81Zm.43,0a.61.61,0,0,0,.06.25.68.68,0,0,0,.14.23.72.72,0,0,0,.22.17.73.73,0,0,0,.3.06.72.72,0,0,0,.29-.06.62.62,0,0,0,.22-.17.91.91,0,0,0,.15-.23.65.65,0,0,0,0-.5,1.14,1.14,0,0,0-.15-.23.76.76,0,0,0-.22-.17.72.72,0,0,0-.29-.06.73.73,0,0,0-.3.06.92.92,0,0,0-.22.17.79.79,0,0,0-.14.23A.61.61,0,0,0,211.27,237.41Z"/><path d="M93.6,238.76h.21l.44,0a1.1,1.1,0,0,0,.41-.13.86.86,0,0,0,.32-.31.94.94,0,0,0,.12-.51.87.87,0,0,0-.27-.68,1,1,0,0,0-.7-.26,1.21,1.21,0,0,0-.62.16,1.1,1.1,0,0,0-.42.48l-.65-.25a1.45,1.45,0,0,1,.66-.72,2,2,0,0,1,1-.24,2.32,2.32,0,0,1,.65.09,2,2,0,0,1,.54.28,1.67,1.67,0,0,1,.37.46,1.48,1.48,0,0,1,.13.65,1.29,1.29,0,0,1-.27.8,1.34,1.34,0,0,1-.7.49v0a1.31,1.31,0,0,1,.49.18,1.34,1.34,0,0,1,.36.31,1.37,1.37,0,0,1,.23.43,1.42,1.42,0,0,1,.08.5,1.66,1.66,0,0,1-.15.72,1.57,1.57,0,0,1-.41.51,1.75,1.75,0,0,1-.59.31,2.46,2.46,0,0,1-.72.1,2.18,2.18,0,0,1-1.13-.28,1.56,1.56,0,0,1-.69-.91l.68-.22a1.2,1.2,0,0,0,.41.65,1.27,1.27,0,0,0,.73.19,1.33,1.33,0,0,0,.45-.08,1.11,1.11,0,0,0,.36-.23,1.07,1.07,0,0,0,.25-.35,1.13,1.13,0,0,0,.09-.45,1.07,1.07,0,0,0-.12-.53.87.87,0,0,0-.33-.33,1.17,1.17,0,0,0-.46-.18,2.24,2.24,0,0,0-.52-.06H93.6Z"/><path d="M96.68,239.2a5.7,5.7,0,0,1,.08-1,3.1,3.1,0,0,1,.29-.95,2,2,0,0,1,.59-.71,1.6,1.6,0,0,1,1-.27,1.57,1.57,0,0,1,1,.27,1.94,1.94,0,0,1,.59.71,3.41,3.41,0,0,1,.3.95,6.85,6.85,0,0,1,.08,1,7.07,7.07,0,0,1-.08,1,3.45,3.45,0,0,1-.3.94,1.94,1.94,0,0,1-.59.71,1.57,1.57,0,0,1-1,.27,1.6,1.6,0,0,1-1-.27,2,2,0,0,1-.59-.71,3.13,3.13,0,0,1-.29-.94A5.85,5.85,0,0,1,96.68,239.2Zm.67,0c0,.13,0,.29,0,.46a4.88,4.88,0,0,0,.06.52,4.07,4.07,0,0,0,.13.5,1.41,1.41,0,0,0,.23.44,1,1,0,0,0,.34.31.9.9,0,0,0,.48.12,1,1,0,0,0,.48-.12,1.24,1.24,0,0,0,.34-.31,1.65,1.65,0,0,0,.22-.44,2.83,2.83,0,0,0,.13-.5,4.88,4.88,0,0,0,.06-.52c0-.17,0-.33,0-.46s0-.3,0-.47a4.43,4.43,0,0,0-.06-.51,2.72,2.72,0,0,0-.13-.51,1.81,1.81,0,0,0-.22-.44,1.24,1.24,0,0,0-.34-.31,1,1,0,0,0-.48-.12.9.9,0,0,0-.48.12,1,1,0,0,0-.34.31,1.53,1.53,0,0,0-.23.44,3.8,3.8,0,0,0-.13.51,4.43,4.43,0,0,0-.06.51C97.35,238.9,97.35,239.06,97.35,239.2Z"/><path d="M101.28,237.41a1.33,1.33,0,0,1,.08-.45,1.11,1.11,0,0,1,.25-.36,1,1,0,0,1,.36-.24,1.17,1.17,0,0,1,.9,0,1,1,0,0,1,.36.24,1.11,1.11,0,0,1,.25.36,1.31,1.31,0,0,1,0,.9,1.23,1.23,0,0,1-.61.61,1.17,1.17,0,0,1-.9,0,1.23,1.23,0,0,1-.61-.61A1.33,1.33,0,0,1,101.28,237.41Zm.43,0a.79.79,0,0,0,.05.25.68.68,0,0,0,.14.23.76.76,0,0,0,.23.17.73.73,0,0,0,.58,0,.66.66,0,0,0,.23-.17.68.68,0,0,0,.14-.23.71.71,0,0,0-.14-.73.81.81,0,0,0-.23-.17.73.73,0,0,0-.58,0,1,1,0,0,0-.23.17.75.75,0,0,0-.19.48Z"/><path d="M249.93,137.18h0a1.24,1.24,0,0,1-.37.12,1.84,1.84,0,0,1-.39,0,1.91,1.91,0,0,1-.68-.12,1.58,1.58,0,0,1-.54-.37,1.63,1.63,0,0,1-.36-.56,2.05,2.05,0,0,1-.13-.72,1.79,1.79,0,0,1,.15-.75,1.48,1.48,0,0,1,.4-.55,1.79,1.79,0,0,1,.6-.35,2,2,0,0,1,.75-.13,2.11,2.11,0,0,1,.75.13,1.79,1.79,0,0,1,.6.35,1.59,1.59,0,0,1,.4.55,1.79,1.79,0,0,1,.14.75,2.15,2.15,0,0,1,0,.45,1.68,1.68,0,0,1-.11.4,2.59,2.59,0,0,1-.17.38l-.21.36-1.51,2.39h-.78Zm-.59-.42a1.28,1.28,0,0,0,.48-.09,1,1,0,0,0,.39-.24,1.23,1.23,0,0,0,.26-.37,1.43,1.43,0,0,0,0-1,1.1,1.1,0,0,0-.65-.62,1.48,1.48,0,0,0-1,0,1.28,1.28,0,0,0-.39.24,1.12,1.12,0,0,0-.26.38,1.3,1.3,0,0,0,0,1,1.08,1.08,0,0,0,.26.37,1,1,0,0,0,.39.24A1.28,1.28,0,0,0,249.34,136.76Z"/><path d="M251.82,136.71a7.07,7.07,0,0,1,.08-1,3.19,3.19,0,0,1,.29-1,2,2,0,0,1,.59-.7,1.54,1.54,0,0,1,1-.28,1.49,1.49,0,0,1,.95.28,1.91,1.91,0,0,1,.59.7,2.94,2.94,0,0,1,.3,1,6.29,6.29,0,0,1,0,2,2.94,2.94,0,0,1-.3.95,1.91,1.91,0,0,1-.59.7,1.49,1.49,0,0,1-.95.28,1.54,1.54,0,0,1-1-.28,2,2,0,0,1-.59-.7,3.19,3.19,0,0,1-.29-.95A7.07,7.07,0,0,1,251.82,136.71Zm.67,0c0,.14,0,.29,0,.46a4.6,4.6,0,0,0,.06.52,4.7,4.7,0,0,0,.12.51,2,2,0,0,0,.23.44,1,1,0,0,0,.34.31,1,1,0,0,0,.48.11,1.06,1.06,0,0,0,.48-.11,1.24,1.24,0,0,0,.34-.31,1.65,1.65,0,0,0,.22-.44,3.18,3.18,0,0,0,.13-.51,4.6,4.6,0,0,0,.06-.52c0-.17,0-.32,0-.46s0-.29,0-.46a4.6,4.6,0,0,0-.06-.52,3.18,3.18,0,0,0-.13-.51,1.65,1.65,0,0,0-.22-.44,1.24,1.24,0,0,0-.34-.31,1.06,1.06,0,0,0-.48-.11,1,1,0,0,0-.48.11,1,1,0,0,0-.34.31,2,2,0,0,0-.23.44,4.7,4.7,0,0,0-.12.51,4.6,4.6,0,0,0-.06.52C252.5,136.42,252.49,136.57,252.49,136.71Z"/><path d="M256.42,134.93a1.13,1.13,0,0,1,.09-.45,1.31,1.31,0,0,1,.24-.37,1.18,1.18,0,0,1,.37-.24,1,1,0,0,1,.44-.09,1.13,1.13,0,0,1,.45.09,1.06,1.06,0,0,1,.61.61,1.13,1.13,0,0,1,.09.45,1,1,0,0,1-.09.44,1.06,1.06,0,0,1-.61.61,1.13,1.13,0,0,1-.45.09,1,1,0,0,1-.44-.09,1.18,1.18,0,0,1-.37-.24,1.31,1.31,0,0,1-.24-.37A1,1,0,0,1,256.42,134.93Zm.43,0a.69.69,0,0,0,0,.24,1,1,0,0,0,.15.24.73.73,0,0,0,.51.23.54.54,0,0,0,.29-.07.63.63,0,0,0,.23-.16.72.72,0,0,0,.14-.24.52.52,0,0,0,0-.24.56.56,0,0,0,0-.25.59.59,0,0,0-.14-.23.74.74,0,0,0-.52-.24.73.73,0,0,0-.29.07.62.62,0,0,0-.22.17.76.76,0,0,0-.15.23A.74.74,0,0,0,256.85,134.93Z"/><path d="M41.57,137.18h0a1.34,1.34,0,0,1-.37.12,2,2,0,0,1-.39,0,1.92,1.92,0,0,1-.69-.12,1.58,1.58,0,0,1-.54-.37,1.8,1.8,0,0,1-.36-.56,2.05,2.05,0,0,1-.13-.72,1.79,1.79,0,0,1,.15-.75,1.48,1.48,0,0,1,.4-.55,1.79,1.79,0,0,1,.6-.35,2.23,2.23,0,0,1,1.5,0,1.79,1.79,0,0,1,.6.35,1.48,1.48,0,0,1,.4.55,1.79,1.79,0,0,1,.15.75,3.14,3.14,0,0,1,0,.45,2.34,2.34,0,0,1-.12.4,1.84,1.84,0,0,1-.17.38,3.35,3.35,0,0,1-.21.36l-1.5,2.39h-.79Zm-.59-.42a1.28,1.28,0,0,0,.48-.09,1,1,0,0,0,.39-.24,1.23,1.23,0,0,0,.26-.37,1.3,1.3,0,0,0,0-1,1.1,1.1,0,0,0-.65-.62,1.48,1.48,0,0,0-1,0,1.1,1.1,0,0,0-.65.62,1.43,1.43,0,0,0,0,1,1.23,1.23,0,0,0,.26.37,1,1,0,0,0,.39.24A1.28,1.28,0,0,0,41,136.76Z"/><path d="M43.46,136.71a7.07,7.07,0,0,1,.08-1,2.94,2.94,0,0,1,.3-1,1.91,1.91,0,0,1,.59-.7,1.49,1.49,0,0,1,1-.28,1.54,1.54,0,0,1,1,.28,2,2,0,0,1,.59.7,3.19,3.19,0,0,1,.29,1,6.29,6.29,0,0,1,0,2,3.19,3.19,0,0,1-.29.95,2,2,0,0,1-.59.7,1.54,1.54,0,0,1-1,.28,1.49,1.49,0,0,1-1-.28,1.91,1.91,0,0,1-.59-.7,2.94,2.94,0,0,1-.3-.95A7.07,7.07,0,0,1,43.46,136.71Zm.67,0c0,.14,0,.29,0,.46a4.6,4.6,0,0,0,.06.52,3.18,3.18,0,0,0,.13.51,1.65,1.65,0,0,0,.22.44,1.12,1.12,0,0,0,.34.31,1.1,1.1,0,0,0,1,0,1.12,1.12,0,0,0,.34-.31,2,2,0,0,0,.23-.44,4.7,4.7,0,0,0,.12-.51,4.6,4.6,0,0,0,.06-.52c0-.17,0-.32,0-.46s0-.29,0-.46a4.6,4.6,0,0,0-.06-.52,4.7,4.7,0,0,0-.12-.51,2,2,0,0,0-.23-.44,1.12,1.12,0,0,0-.34-.31,1.1,1.1,0,0,0-1,0,1.12,1.12,0,0,0-.34.31,1.65,1.65,0,0,0-.22.44,3.18,3.18,0,0,0-.13.51,4.6,4.6,0,0,0-.06.52C44.14,136.42,44.13,136.57,44.13,136.71Z"/><path d="M48.06,134.93a1.13,1.13,0,0,1,.09-.45,1.06,1.06,0,0,1,.61-.61,1.13,1.13,0,0,1,.45-.09,1.08,1.08,0,0,1,.44.09,1.06,1.06,0,0,1,.61.61,1.13,1.13,0,0,1,.09.45,1,1,0,0,1-.09.44,1.06,1.06,0,0,1-.61.61,1.08,1.08,0,0,1-.44.09,1.13,1.13,0,0,1-.45-.09,1.06,1.06,0,0,1-.61-.61A1,1,0,0,1,48.06,134.93Zm.43,0a.53.53,0,0,0,.06.24.72.72,0,0,0,.14.24.69.69,0,0,0,.22.16.6.6,0,0,0,.3.07.73.73,0,0,0,.51-.23,1,1,0,0,0,.15-.24.69.69,0,0,0,.05-.24.74.74,0,0,0-.05-.25.76.76,0,0,0-.15-.23.62.62,0,0,0-.22-.17.73.73,0,0,0-.29-.07.73.73,0,0,0-.3.07.72.72,0,0,0-.22.17.59.59,0,0,0-.14.23A.57.57,0,0,0,48.49,134.93Z"/><path d="M148.37,38.51h-.68v-4.8h0l-1,.85-.4-.48,1.52-1.24h.59Z"/><path d="M150.49,34.23a1.48,1.48,0,0,1,.13-.61,1.2,1.2,0,0,1,.34-.46,1.44,1.44,0,0,1,.51-.3,1.92,1.92,0,0,1,1.28,0,1.44,1.44,0,0,1,.51.3,1.2,1.2,0,0,1,.34.46,1.33,1.33,0,0,1,.13.61,1.16,1.16,0,0,1-.07.4,1.41,1.41,0,0,1-.18.37,1.33,1.33,0,0,1-.29.29,1.18,1.18,0,0,1-.39.19h0a1.44,1.44,0,0,1,.46.19,1.35,1.35,0,0,1,.35.32,1.42,1.42,0,0,1,.23.44,1.7,1.7,0,0,1,.08.51,1.74,1.74,0,0,1-.14.69,1.43,1.43,0,0,1-.39.52,1.47,1.47,0,0,1-.57.33,2.35,2.35,0,0,1-1.42,0,1.47,1.47,0,0,1-.57-.33,1.55,1.55,0,0,1-.39-.52,1.74,1.74,0,0,1-.14-.69,1.7,1.7,0,0,1,.08-.51,1.67,1.67,0,0,1,.23-.44,1.35,1.35,0,0,1,.35-.32,1.44,1.44,0,0,1,.46-.19h0a1.18,1.18,0,0,1-.39-.19,1.33,1.33,0,0,1-.29-.29,1.41,1.41,0,0,1-.18-.37A1.46,1.46,0,0,1,150.49,34.23ZM151,36.9a1.18,1.18,0,0,0,.09.46,1.07,1.07,0,0,0,.25.35,1,1,0,0,0,.36.23,1.12,1.12,0,0,0,.88,0,1,1,0,0,0,.36-.23,1.07,1.07,0,0,0,.25-.35,1.18,1.18,0,0,0,.09-.46,1.14,1.14,0,0,0-.09-.46,1.13,1.13,0,0,0-.61-.58,1.12,1.12,0,0,0-.88,0,1.13,1.13,0,0,0-.61.58A1.14,1.14,0,0,0,151,36.9Zm.2-2.64a.88.88,0,0,0,.26.67,1,1,0,0,0,1.36,0,1,1,0,0,0,0-1.34,1,1,0,0,0-1.36,0A.88.88,0,0,0,151.17,34.26Z"/><path d="M154.64,35.68a7,7,0,0,1,.08-1,3.1,3.1,0,0,1,.29-1,2,2,0,0,1,.59-.71,1.6,1.6,0,0,1,1-.27,1.55,1.55,0,0,1,.95.27,1.94,1.94,0,0,1,.59.71,2.86,2.86,0,0,1,.3,1,7,7,0,0,1,.08,1,7.07,7.07,0,0,1-.08,1,2.88,2.88,0,0,1-.3.94,1.94,1.94,0,0,1-.59.71,1.55,1.55,0,0,1-.95.27,1.6,1.6,0,0,1-1-.27,2,2,0,0,1-.59-.71,3.13,3.13,0,0,1-.29-.94A7.07,7.07,0,0,1,154.64,35.68Zm.67,0c0,.13,0,.29,0,.46a4.88,4.88,0,0,0,.06.52,4.05,4.05,0,0,0,.12.5,1.66,1.66,0,0,0,.23.44,1.12,1.12,0,0,0,.34.31,1,1,0,0,0,1,0,1.12,1.12,0,0,0,.34-.31,1.4,1.4,0,0,0,.22-.44,2.83,2.83,0,0,0,.13-.5,4.88,4.88,0,0,0,.06-.52c0-.17,0-.33,0-.46s0-.3,0-.47a4.43,4.43,0,0,0-.06-.51,2.72,2.72,0,0,0-.13-.51,1.51,1.51,0,0,0-.22-.44,1.12,1.12,0,0,0-.34-.31,1,1,0,0,0-1,0,1.12,1.12,0,0,0-.34.31,1.83,1.83,0,0,0-.23.44,3.81,3.81,0,0,0-.12.51,4.43,4.43,0,0,0-.06.51C155.32,35.38,155.31,35.54,155.31,35.68Z"/><path d="M159.24,33.89a1.15,1.15,0,0,1,.33-.81,1,1,0,0,1,.37-.24,1,1,0,0,1,.44-.09,1.15,1.15,0,0,1,.82,2,1.15,1.15,0,0,1-.37.25,1.13,1.13,0,0,1-.45.09,1.15,1.15,0,0,1-.81-.34,1.15,1.15,0,0,1-.33-.81Zm.43,0a.79.79,0,0,0,.05.25,1.14,1.14,0,0,0,.15.23.62.62,0,0,0,.22.17.72.72,0,0,0,.29.06.68.68,0,0,0,.52-.23.79.79,0,0,0,.14-.23.65.65,0,0,0,0-.5.79.79,0,0,0-.14-.23.81.81,0,0,0-.23-.17.65.65,0,0,0-.29-.06.72.72,0,0,0-.29.06.76.76,0,0,0-.22.17,1.14,1.14,0,0,0-.15.23A.79.79,0,0,0,159.67,33.89Z"/><path d="M203.18,38.51h-.68v-4.8h0l-1,.85-.4-.48,1.52-1.24h.59Z"/><path d="M208.49,33.47h-2.31l0,1.53a1.08,1.08,0,0,1,.36-.11l.37,0a2,2,0,0,1,.74.14,1.61,1.61,0,0,1,.57.39,1.9,1.9,0,0,1,.37.59,2,2,0,0,1,.13.74,2,2,0,0,1-.15.78,1.74,1.74,0,0,1-.41.59,1.91,1.91,0,0,1-.61.38,2.2,2.2,0,0,1-.78.13,1.73,1.73,0,0,1-1-.28,2,2,0,0,1-.63-.75l.67-.25a1.31,1.31,0,0,0,.42.51,1.1,1.1,0,0,0,.64.2,1.28,1.28,0,0,0,.48-.09,1.26,1.26,0,0,0,.38-.27,1.15,1.15,0,0,0,.26-.41,1.53,1.53,0,0,0,.1-.54,1.38,1.38,0,0,0-.11-.55,1.08,1.08,0,0,0-.3-.4,1.26,1.26,0,0,0-.44-.25,1.67,1.67,0,0,0-.55-.08,1.84,1.84,0,0,0-.6.1,2.58,2.58,0,0,0-.56.25l.06-2.95h3Z"/><path d="M209.45,35.68a7,7,0,0,1,.08-1,3.1,3.1,0,0,1,.29-1,2,2,0,0,1,.59-.71,1.6,1.6,0,0,1,1-.27,1.55,1.55,0,0,1,.95.27,1.94,1.94,0,0,1,.59.71,2.86,2.86,0,0,1,.3,1,7,7,0,0,1,.08,1,7.07,7.07,0,0,1-.08,1,2.88,2.88,0,0,1-.3.94,1.94,1.94,0,0,1-.59.71,1.55,1.55,0,0,1-.95.27,1.6,1.6,0,0,1-1-.27,2,2,0,0,1-.59-.71,3.13,3.13,0,0,1-.29-.94A7.07,7.07,0,0,1,209.45,35.68Zm.67,0c0,.13,0,.29,0,.46a4.88,4.88,0,0,0,.06.52,4.05,4.05,0,0,0,.12.5,1.66,1.66,0,0,0,.23.44,1,1,0,0,0,.34.31.9.9,0,0,0,.48.12,1,1,0,0,0,.48-.12,1.24,1.24,0,0,0,.34-.31,1.4,1.4,0,0,0,.22-.44,2.83,2.83,0,0,0,.13-.5,4.88,4.88,0,0,0,.06-.52c0-.17,0-.33,0-.46s0-.3,0-.47a4.43,4.43,0,0,0-.06-.51,2.72,2.72,0,0,0-.13-.51,1.51,1.51,0,0,0-.22-.44,1.24,1.24,0,0,0-.34-.31,1,1,0,0,0-.48-.12.9.9,0,0,0-.48.12,1,1,0,0,0-.34.31,1.83,1.83,0,0,0-.23.44,3.81,3.81,0,0,0-.12.51,4.43,4.43,0,0,0-.06.51C210.13,35.38,210.12,35.54,210.12,35.68Z"/><path d="M214.05,33.89a1.15,1.15,0,0,1,.33-.81,1,1,0,0,1,.37-.24,1,1,0,0,1,.44-.09,1.13,1.13,0,0,1,.45.09,1,1,0,0,1,.36.24,1,1,0,0,1,.25.36,1.17,1.17,0,0,1,0,.9,1.23,1.23,0,0,1-.61.61,1.13,1.13,0,0,1-.45.09,1.15,1.15,0,0,1-.81-.34,1.15,1.15,0,0,1-.33-.81Zm.43,0a.79.79,0,0,0,.05.25,1.14,1.14,0,0,0,.15.23.62.62,0,0,0,.22.17.72.72,0,0,0,.29.06.68.68,0,0,0,.52-.23.79.79,0,0,0,.14-.23.65.65,0,0,0,0-.5.79.79,0,0,0-.14-.23.81.81,0,0,0-.23-.17.65.65,0,0,0-.29-.06.72.72,0,0,0-.29.06.76.76,0,0,0-.22.17,1.14,1.14,0,0,0-.15.23A.79.79,0,0,0,214.48,33.89Z"/><path d="M93.61,38.51h-.67v-4.8h0l-1,.85-.4-.48L93,32.84h.58Z"/><path d="M98.92,33.47H96.61l0,1.53a1,1,0,0,1,.35-.11l.37,0a1.91,1.91,0,0,1,.74.14,1.65,1.65,0,0,1,.58.39A1.71,1.71,0,0,1,99,36a2,2,0,0,1,.13.74,2,2,0,0,1-.15.78,1.71,1.71,0,0,1-.4.59,2,2,0,0,1-.62.38,2.15,2.15,0,0,1-.77.13,1.78,1.78,0,0,1-1.05-.28,1.85,1.85,0,0,1-.62-.75l.67-.25a1.16,1.16,0,0,0,.42.51,1.05,1.05,0,0,0,.63.2,1.28,1.28,0,0,0,.48-.09,1.23,1.23,0,0,0,.64-.68,1.33,1.33,0,0,0,.1-.54,1.38,1.38,0,0,0-.11-.55,1.18,1.18,0,0,0-.29-.4,1.41,1.41,0,0,0-.45-.25,1.63,1.63,0,0,0-.55-.08,1.78,1.78,0,0,0-.59.1,2.58,2.58,0,0,0-.56.25l0-2.95h3Z"/><path d="M99.88,35.68a7,7,0,0,1,.08-1,3.11,3.11,0,0,1,.3-1,1.94,1.94,0,0,1,.59-.71,1.55,1.55,0,0,1,1-.27,1.6,1.6,0,0,1,1,.27,2,2,0,0,1,.59.71,3.1,3.1,0,0,1,.29,1,5.77,5.77,0,0,1,.08,1,5.85,5.85,0,0,1-.08,1,3.13,3.13,0,0,1-.29.94,2,2,0,0,1-.59.71,1.6,1.6,0,0,1-1,.27,1.55,1.55,0,0,1-1-.27,1.94,1.94,0,0,1-.59-.71,3.14,3.14,0,0,1-.3-.94A7.07,7.07,0,0,1,99.88,35.68Zm.67,0c0,.13,0,.29,0,.46a4.88,4.88,0,0,0,.06.52,2.83,2.83,0,0,0,.13.5,1.4,1.4,0,0,0,.22.44,1.24,1.24,0,0,0,.34.31,1,1,0,0,0,.48.12.9.9,0,0,0,.48-.12,1,1,0,0,0,.34-.31,1.41,1.41,0,0,0,.23-.44,4.05,4.05,0,0,0,.12-.5,4.88,4.88,0,0,0,.06-.52c0-.17,0-.33,0-.46s0-.3,0-.47a4.43,4.43,0,0,0-.06-.51,3.81,3.81,0,0,0-.12-.51,1.53,1.53,0,0,0-.23-.44,1,1,0,0,0-.34-.31.9.9,0,0,0-.48-.12,1,1,0,0,0-.48.12,1.24,1.24,0,0,0-.34.31,1.51,1.51,0,0,0-.22.44,2.72,2.72,0,0,0-.13.51,4.43,4.43,0,0,0-.06.51C100.56,35.38,100.55,35.54,100.55,35.68Z"/><path d="M104.48,33.89a1.15,1.15,0,0,1,1.15-1.14,1,1,0,0,1,.44.09,1.12,1.12,0,0,1,.37.24,1.16,1.16,0,0,1,0,1.62,1.15,1.15,0,0,1-.37.25,1,1,0,0,1-.44.09,1.13,1.13,0,0,1-.45-.09,1.15,1.15,0,0,1-.37-.25,1.15,1.15,0,0,1-.33-.81Zm.43,0a.61.61,0,0,0,.06.25.79.79,0,0,0,.14.23.72.72,0,0,0,.22.17.73.73,0,0,0,.3.06.72.72,0,0,0,.29-.06.62.62,0,0,0,.22-.17,1.14,1.14,0,0,0,.15-.23.65.65,0,0,0,0-.5,1.14,1.14,0,0,0-.15-.23.76.76,0,0,0-.22-.17.72.72,0,0,0-.29-.06.73.73,0,0,0-.3.06.92.92,0,0,0-.22.17.79.79,0,0,0-.14.23A.61.61,0,0,0,104.91,33.89Z"/><path d="M248.75,192.45v0a1.35,1.35,0,0,1,.37-.13,2,2,0,0,1,.39,0,1.73,1.73,0,0,1,.69.13,1.42,1.42,0,0,1,.54.36,1.85,1.85,0,0,1,.36.57,2,2,0,0,1,.12.72,1.78,1.78,0,0,1-.14.74,1.74,1.74,0,0,1-.4.56,2,2,0,0,1-.6.35,2.36,2.36,0,0,1-.75.12,2.27,2.27,0,0,1-.75-.12,2,2,0,0,1-.6-.35,1.6,1.6,0,0,1-.4-.56,1.78,1.78,0,0,1-.15-.74,2.24,2.24,0,0,1,.15-.86,5.28,5.28,0,0,1,.39-.74l1.5-2.39h.79Zm.59.43a1.23,1.23,0,0,0-.87.32,1,1,0,0,0-.26.38,1.31,1.31,0,0,0-.1.5,1.35,1.35,0,0,0,.1.5,1.08,1.08,0,0,0,.26.37,1,1,0,0,0,.39.24,1.32,1.32,0,0,0,1,0,1,1,0,0,0,.39-.24,1.23,1.23,0,0,0,.26-.37,1.35,1.35,0,0,0,.09-.5,1.31,1.31,0,0,0-.09-.5,1.16,1.16,0,0,0-.26-.38,1.23,1.23,0,0,0-.87-.32Z"/><path d="M251.82,192.92a7.07,7.07,0,0,1,.08-1,3.13,3.13,0,0,1,.29-.94,2,2,0,0,1,.59-.71,1.6,1.6,0,0,1,1-.27,1.55,1.55,0,0,1,.95.27,1.94,1.94,0,0,1,.59.71,2.88,2.88,0,0,1,.3.94,7.07,7.07,0,0,1,.08,1,7,7,0,0,1-.08,1,2.86,2.86,0,0,1-.3,1,1.94,1.94,0,0,1-.59.71,1.55,1.55,0,0,1-.95.27,1.6,1.6,0,0,1-1-.27,2,2,0,0,1-.59-.71,3.1,3.1,0,0,1-.29-1A7,7,0,0,1,251.82,192.92Zm.67,0c0,.14,0,.3,0,.47a4.43,4.43,0,0,0,.06.51,3.81,3.81,0,0,0,.12.51,1.83,1.83,0,0,0,.23.44,1,1,0,0,0,.34.31.9.9,0,0,0,.48.12,1,1,0,0,0,.48-.12,1.24,1.24,0,0,0,.34-.31,1.51,1.51,0,0,0,.22-.44,2.72,2.72,0,0,0,.13-.51,4.43,4.43,0,0,0,.06-.51c0-.17,0-.33,0-.47s0-.29,0-.46a4.88,4.88,0,0,0-.06-.52,2.83,2.83,0,0,0-.13-.5,1.4,1.4,0,0,0-.22-.44,1.1,1.1,0,0,0-.34-.31,1,1,0,0,0-.48-.12.9.9,0,0,0-.48.12.92.92,0,0,0-.34.31,1.66,1.66,0,0,0-.23.44,4.05,4.05,0,0,0-.12.5,4.88,4.88,0,0,0-.06.52C252.5,192.63,252.49,192.79,252.49,192.92Z"/><path d="M256.42,191.14a1.15,1.15,0,0,1,.33-.81,1.05,1.05,0,0,1,.37-.25,1.23,1.23,0,0,1,.44-.08,1.33,1.33,0,0,1,.45.08,1.15,1.15,0,0,1,.37.25,1.16,1.16,0,0,1,0,1.62,1.15,1.15,0,0,1-.37.25,1.33,1.33,0,0,1-.45.08,1.23,1.23,0,0,1-.44-.08,1.05,1.05,0,0,1-.37-.25,1.15,1.15,0,0,1-.33-.81Zm.43,0a.79.79,0,0,0,0,.25,1.14,1.14,0,0,0,.15.23.62.62,0,0,0,.22.17.72.72,0,0,0,.29.06.68.68,0,0,0,.52-.23.79.79,0,0,0,.14-.23.65.65,0,0,0,0-.5.79.79,0,0,0-.14-.23.68.68,0,0,0-.52-.23.72.72,0,0,0-.29.06.62.62,0,0,0-.22.17,1.14,1.14,0,0,0-.15.23A.79.79,0,0,0,256.85,191.14Z"/><path d="M250,81.22h-.67v-4.8h0l-1,.86-.4-.49,1.52-1.23H250Z"/><path d="M251.92,80.45l2.13-2.08c.13-.12.25-.24.35-.35a2.16,2.16,0,0,0,.25-.32,1.09,1.09,0,0,0,.15-.33,1.38,1.38,0,0,0,0-.37,1,1,0,0,0-.08-.4.84.84,0,0,0-.22-.3.78.78,0,0,0-.33-.19,1.05,1.05,0,0,0-.4-.07,1,1,0,0,0-.71.25,1.08,1.08,0,0,0-.36.65l-.73-.06a1.83,1.83,0,0,1,.21-.61,1.41,1.41,0,0,1,.39-.45,2,2,0,0,1,.53-.27,2.25,2.25,0,0,1,.64-.09,2.41,2.41,0,0,1,.67.1,1.92,1.92,0,0,1,.55.29,1.44,1.44,0,0,1,.51,1.15,2,2,0,0,1-.09.61,2,2,0,0,1-.25.5,3.47,3.47,0,0,1-.35.43l-.41.4-1.75,1.64v0h2.89v.62h-3.64Z"/><path d="M256.27,78.39a5.85,5.85,0,0,1,.08-1,3.19,3.19,0,0,1,.29-1,2,2,0,0,1,.59-.7,1.54,1.54,0,0,1,1-.28,1.51,1.51,0,0,1,.95.28,1.91,1.91,0,0,1,.59.7,3.2,3.2,0,0,1,.3,1,6.29,6.29,0,0,1,0,2,3.2,3.2,0,0,1-.3,1,1.91,1.91,0,0,1-.59.7,1.51,1.51,0,0,1-.95.28,1.54,1.54,0,0,1-1-.28,2,2,0,0,1-.59-.7,3.19,3.19,0,0,1-.29-1A5.85,5.85,0,0,1,256.27,78.39Zm.67,0a3.78,3.78,0,0,0,0,.46c0,.17,0,.35.05.52a4.77,4.77,0,0,0,.13.51,1.67,1.67,0,0,0,.23.44,1,1,0,0,0,.34.31,1,1,0,0,0,.48.11,1.06,1.06,0,0,0,.48-.11,1.24,1.24,0,0,0,.34-.31,2,2,0,0,0,.22-.44,3.18,3.18,0,0,0,.13-.51,4.6,4.6,0,0,0,.06-.52c0-.17,0-.32,0-.46s0-.29,0-.46a4.35,4.35,0,0,0-.06-.52,3.18,3.18,0,0,0-.13-.51,2,2,0,0,0-.22-.44,1.24,1.24,0,0,0-.34-.31,1.06,1.06,0,0,0-.48-.11,1,1,0,0,0-.48.11,1,1,0,0,0-.34.31,1.67,1.67,0,0,0-.23.44,4.77,4.77,0,0,0-.13.51c0,.17,0,.34-.05.52A3.78,3.78,0,0,0,256.94,78.39Z"/><path d="M260.87,76.61a1.13,1.13,0,0,1,.09-.45,1,1,0,0,1,.24-.37,1.16,1.16,0,0,1,1.62,0,1.15,1.15,0,0,1,.25.37,1.13,1.13,0,0,1,.09.45,1,1,0,0,1-.09.44,1.15,1.15,0,0,1-.25.37,1.16,1.16,0,0,1-1.62,0,1,1,0,0,1-.24-.37A1,1,0,0,1,260.87,76.61Zm.43,0a.69.69,0,0,0,.05.24.75.75,0,0,0,.15.24.6.6,0,0,0,.22.16.64.64,0,0,0,.58,0,.63.63,0,0,0,.23-.16.72.72,0,0,0,.14-.24.52.52,0,0,0,.05-.24.56.56,0,0,0-.05-.25.59.59,0,0,0-.14-.23.66.66,0,0,0-.23-.17.64.64,0,0,0-.58,0,.62.62,0,0,0-.22.17.61.61,0,0,0-.15.23A.74.74,0,0,0,261.3,76.61Z"/><path d="M40.39,192.45v0a1.42,1.42,0,0,1,.38-.13,1.84,1.84,0,0,1,.39,0,1.72,1.72,0,0,1,.68.13,1.42,1.42,0,0,1,.54.36,1.85,1.85,0,0,1,.36.57,2,2,0,0,1,.13.72,1.78,1.78,0,0,1-.15.74,1.6,1.6,0,0,1-.4.56,2,2,0,0,1-.6.35,2.4,2.4,0,0,1-1.5,0,2,2,0,0,1-.6-.35,1.6,1.6,0,0,1-.4-.56,1.78,1.78,0,0,1-.15-.74,2.24,2.24,0,0,1,.16-.86,5.19,5.19,0,0,1,.38-.74l1.5-2.39h.79Zm.59.43a1.23,1.23,0,0,0-.87.32,1.16,1.16,0,0,0-.26.38,1.31,1.31,0,0,0-.09.5,1.35,1.35,0,0,0,.09.5,1.23,1.23,0,0,0,.26.37,1,1,0,0,0,.39.24,1.32,1.32,0,0,0,1,0,1,1,0,0,0,.39-.24,1.23,1.23,0,0,0,.26-.37,1.35,1.35,0,0,0,.1-.5,1.31,1.31,0,0,0-.1-.5,1.16,1.16,0,0,0-.26-.38,1.23,1.23,0,0,0-.87-.32Z"/><path d="M43.46,192.92a7.07,7.07,0,0,1,.08-1,2.88,2.88,0,0,1,.3-.94,1.94,1.94,0,0,1,.59-.71,1.55,1.55,0,0,1,1-.27,1.6,1.6,0,0,1,1,.27,2,2,0,0,1,.59.71,3.13,3.13,0,0,1,.29.94,7.07,7.07,0,0,1,.08,1,7,7,0,0,1-.08,1,3.1,3.1,0,0,1-.29,1,2,2,0,0,1-.59.71,1.6,1.6,0,0,1-1,.27,1.55,1.55,0,0,1-1-.27,1.94,1.94,0,0,1-.59-.71,2.86,2.86,0,0,1-.3-1A7,7,0,0,1,43.46,192.92Zm.67,0c0,.14,0,.3,0,.47a4.43,4.43,0,0,0,.06.51,2.72,2.72,0,0,0,.13.51,1.51,1.51,0,0,0,.22.44,1.12,1.12,0,0,0,.34.31,1,1,0,0,0,1,0,1.12,1.12,0,0,0,.34-.31,1.83,1.83,0,0,0,.23-.44,3.81,3.81,0,0,0,.12-.51,4.43,4.43,0,0,0,.06-.51c0-.17,0-.33,0-.47s0-.29,0-.46a4.88,4.88,0,0,0-.06-.52,4.05,4.05,0,0,0-.12-.5,1.66,1.66,0,0,0-.23-.44,1,1,0,0,0-.34-.31,1,1,0,0,0-1,0,1,1,0,0,0-.34.31,1.4,1.4,0,0,0-.22.44,2.83,2.83,0,0,0-.13.5,4.88,4.88,0,0,0-.06.52C44.14,192.63,44.13,192.79,44.13,192.92Z"/><path d="M48.06,191.14a1.15,1.15,0,0,1,.33-.81,1.15,1.15,0,0,1,.37-.25,1.33,1.33,0,0,1,.45-.08,1.27,1.27,0,0,1,.44.08,1.15,1.15,0,0,1,.37.25A1.16,1.16,0,0,1,50,192a1.15,1.15,0,0,1-.37.25,1.27,1.27,0,0,1-.44.08,1.33,1.33,0,0,1-.45-.08,1.15,1.15,0,0,1-.37-.25,1.15,1.15,0,0,1-.33-.81Zm.43,0a.61.61,0,0,0,.06.25.79.79,0,0,0,.14.23.72.72,0,0,0,.22.17.73.73,0,0,0,.3.06.72.72,0,0,0,.29-.06.62.62,0,0,0,.22-.17,1.14,1.14,0,0,0,.15-.23.65.65,0,0,0,0-.5,1.14,1.14,0,0,0-.15-.23.62.62,0,0,0-.22-.17.72.72,0,0,0-.29-.06.73.73,0,0,0-.3.06.72.72,0,0,0-.22.17.79.79,0,0,0-.14.23A.61.61,0,0,0,48.49,191.14Z"/><path d="M39.15,81.22h-.67v-4.8h0l-1,.86-.4-.49,1.52-1.23h.58Z"/><path d="M41.07,80.45l2.14-2.08c.13-.12.25-.24.35-.35a2.16,2.16,0,0,0,.25-.32,1.09,1.09,0,0,0,.15-.33A1.38,1.38,0,0,0,44,77a1,1,0,0,0-.08-.4.84.84,0,0,0-.22-.3.78.78,0,0,0-.33-.19A1.05,1.05,0,0,0,43,76a1,1,0,0,0-.72.25,1.19,1.19,0,0,0-.36.65l-.72-.06a1.47,1.47,0,0,1,.21-.61,1.41,1.41,0,0,1,.39-.45,2,2,0,0,1,.53-.27,2.2,2.2,0,0,1,.64-.09,2.41,2.41,0,0,1,.67.1,2.06,2.06,0,0,1,.55.29,1.47,1.47,0,0,1,.37.48,1.6,1.6,0,0,1,.14.67,2,2,0,0,1-.09.61,2.34,2.34,0,0,1-.25.5,3.47,3.47,0,0,1-.35.43l-.41.4-1.75,1.64v0h2.89v.62H41.07Z"/><path d="M45.43,78.39a7,7,0,0,1,.07-1,3.52,3.52,0,0,1,.3-1,2,2,0,0,1,.59-.7,1.77,1.77,0,0,1,1.91,0,1.91,1.91,0,0,1,.59.7,3.52,3.52,0,0,1,.3,1,6.29,6.29,0,0,1,0,2,3.52,3.52,0,0,1-.3,1,1.91,1.91,0,0,1-.59.7,1.77,1.77,0,0,1-1.91,0,2,2,0,0,1-.59-.7,3.52,3.52,0,0,1-.3-1A7,7,0,0,1,45.43,78.39Zm.67,0c0,.14,0,.29,0,.46a4.6,4.6,0,0,0,.06.52,4.77,4.77,0,0,0,.13.51,2,2,0,0,0,.22.44,1.15,1.15,0,0,0,.35.31,1,1,0,0,0,.48.11,1.06,1.06,0,0,0,.48-.11,1.24,1.24,0,0,0,.34-.31,2,2,0,0,0,.22-.44,3.18,3.18,0,0,0,.13-.51,4.6,4.6,0,0,0,.06-.52c0-.17,0-.32,0-.46s0-.29,0-.46a4.35,4.35,0,0,0-.06-.52,3.18,3.18,0,0,0-.13-.51,2,2,0,0,0-.22-.44,1.24,1.24,0,0,0-.34-.31,1.06,1.06,0,0,0-.48-.11,1,1,0,0,0-.48.11,1.15,1.15,0,0,0-.35.31,2,2,0,0,0-.22.44,4.77,4.77,0,0,0-.13.51,4.35,4.35,0,0,0-.06.52C46.1,78.1,46.1,78.25,46.1,78.39Z"/><path d="M50,76.61a1.12,1.12,0,0,1,.08-.45,1.15,1.15,0,0,1,.25-.37,1.16,1.16,0,0,1,1.62,0,1.15,1.15,0,0,1,.25.37,1.33,1.33,0,0,1,.08.45,1.23,1.23,0,0,1-.08.44,1.15,1.15,0,0,1-.25.37,1.16,1.16,0,0,1-1.62,0,1.15,1.15,0,0,1-.25-.37A1,1,0,0,1,50,76.61Zm.43,0a.52.52,0,0,0,0,.24.72.72,0,0,0,.14.24.63.63,0,0,0,.23.16.64.64,0,0,0,.58,0,.73.73,0,0,0,.23-.16,1,1,0,0,0,.14-.24.69.69,0,0,0,.05-.24.75.75,0,0,0-.19-.48.76.76,0,0,0-.23-.17.64.64,0,0,0-.58,0,.66.66,0,0,0-.23.17.59.59,0,0,0-.14.23A.56.56,0,0,0,50.46,76.61Z"/></g><g id="numeri_fondo_tabella" data-name="numeri fondo tabella"><path d="M131.83,251.42a1.17,1.17,0,0,0-.43-.35,1.19,1.19,0,0,0-.51-.11,1.35,1.35,0,0,0-.55.11,1.08,1.08,0,0,0-.4.3,1.32,1.32,0,0,0-.23.44,1.76,1.76,0,0,0,0,1.08,1.43,1.43,0,0,0,.26.45,1.31,1.31,0,0,0,.39.3,1.27,1.27,0,0,0,.52.1,1.09,1.09,0,0,0,1-.46l.47.44a1.69,1.69,0,0,1-.64.46,2.29,2.29,0,0,1-.78.14,2.22,2.22,0,0,1-.79-.14,1.75,1.75,0,0,1-1-1,2.27,2.27,0,0,1,0-1.57,1.86,1.86,0,0,1,.39-.63,2,2,0,0,1,.61-.41,2,2,0,0,1,.79-.15,2.09,2.09,0,0,1,.79.15,1.59,1.59,0,0,1,.65.45Z"/><path d="M136.21,253.56h0a1.43,1.43,0,0,1-.55.54,1.7,1.7,0,0,1-.89.22,1.8,1.8,0,0,1-.73-.15,1.78,1.78,0,0,1-.6-.41,1.81,1.81,0,0,1-.39-.62,2.06,2.06,0,0,1-.15-.79,2,2,0,0,1,.15-.78,1.88,1.88,0,0,1,.4-.63,1.81,1.81,0,0,1,.62-.41,2.07,2.07,0,0,1,.8-.15,1.72,1.72,0,0,1,.75.17,1.78,1.78,0,0,1,.59.47h0v-2.84h.62v6h-.62Zm0-1.21a1.63,1.63,0,0,0-.09-.55,1.34,1.34,0,0,0-.27-.44,1.37,1.37,0,0,0-.42-.29,1.35,1.35,0,0,0-.55-.11,1.42,1.42,0,0,0-.55.11,1.22,1.22,0,0,0-.41.29,1.34,1.34,0,0,0-.27.44,1.56,1.56,0,0,0,0,1.1,1.25,1.25,0,0,0,.27.44,1.19,1.19,0,0,0,1,.4,1.35,1.35,0,0,0,.55-.1,1.6,1.6,0,0,0,.42-.3,1.25,1.25,0,0,0,.27-.44A1.63,1.63,0,0,0,136.21,252.35Z"/><path d="M140.1,254.57l-.5-.2,2.4-6.15.51.2Z"/><path d="M147.64,254.22H147v-4.8h0l-1,.86-.4-.49,1.52-1.23h.59Z"/><path d="M149.46,251.39a7.07,7.07,0,0,1,.08-1,3.19,3.19,0,0,1,.29-.95,2,2,0,0,1,.59-.7,1.61,1.61,0,0,1,1-.28,1.55,1.55,0,0,1,1,.28,1.91,1.91,0,0,1,.59.7,2.94,2.94,0,0,1,.3.95,6.29,6.29,0,0,1,0,2,2.94,2.94,0,0,1-.3,1,1.91,1.91,0,0,1-.59.7,1.49,1.49,0,0,1-1,.28,1.54,1.54,0,0,1-1-.28,2,2,0,0,1-.59-.7,3.19,3.19,0,0,1-.29-1A7.07,7.07,0,0,1,149.46,251.39Zm.67,0c0,.14,0,.29,0,.47a4.43,4.43,0,0,0,.06.51,4.7,4.7,0,0,0,.12.51,2,2,0,0,0,.23.44,1.12,1.12,0,0,0,.34.31,1.1,1.1,0,0,0,1,0,1.12,1.12,0,0,0,.34-.31,1.65,1.65,0,0,0,.22-.44,3.18,3.18,0,0,0,.13-.51,4.43,4.43,0,0,0,.06-.51c0-.18,0-.33,0-.47s0-.29,0-.46a4.6,4.6,0,0,0-.06-.52,3.18,3.18,0,0,0-.13-.51,1.65,1.65,0,0,0-.22-.44,1.08,1.08,0,0,0-.34-.3,1,1,0,0,0-1,0,1.08,1.08,0,0,0-.34.3,2,2,0,0,0-.23.44,4.7,4.7,0,0,0-.12.51,4.6,4.6,0,0,0-.06.52C150.14,251.1,150.13,251.25,150.13,251.39Z"/><path d="M153.91,251.39a5.85,5.85,0,0,1,.08-1,3.19,3.19,0,0,1,.29-.95,2,2,0,0,1,.59-.7,1.61,1.61,0,0,1,1-.28,1.55,1.55,0,0,1,.95.28,1.91,1.91,0,0,1,.59.7,3.2,3.2,0,0,1,.3.95,6.29,6.29,0,0,1,0,2,3.2,3.2,0,0,1-.3,1,1.91,1.91,0,0,1-.59.7,1.49,1.49,0,0,1-.95.28,1.54,1.54,0,0,1-1-.28,2,2,0,0,1-.59-.7,3.19,3.19,0,0,1-.29-1A5.85,5.85,0,0,1,153.91,251.39Zm.67,0a4,4,0,0,0,0,.47,4.43,4.43,0,0,0,.06.51,3.14,3.14,0,0,0,.12.51,1.67,1.67,0,0,0,.23.44,1,1,0,0,0,.34.31.9.9,0,0,0,.48.11,1,1,0,0,0,.48-.11,1.24,1.24,0,0,0,.34-.31,1.65,1.65,0,0,0,.22-.44,3.18,3.18,0,0,0,.13-.51,4.43,4.43,0,0,0,.06-.51c0-.18,0-.33,0-.47s0-.29,0-.46a4.6,4.6,0,0,0-.06-.52,3.18,3.18,0,0,0-.13-.51,1.65,1.65,0,0,0-.22-.44,1.21,1.21,0,0,0-.34-.3,1,1,0,0,0-.48-.12.9.9,0,0,0-.48.12,1,1,0,0,0-.34.3,1.67,1.67,0,0,0-.23.44,3.14,3.14,0,0,0-.12.51,4.6,4.6,0,0,0-.06.52A3.78,3.78,0,0,0,154.58,251.39Z"/><path d="M158.31,251.39a5.85,5.85,0,0,1,.08-1,3.19,3.19,0,0,1,.29-.95,2,2,0,0,1,.59-.7,1.61,1.61,0,0,1,1-.28,1.55,1.55,0,0,1,1,.28,1.91,1.91,0,0,1,.59.7,3.2,3.2,0,0,1,.3.95,6.29,6.29,0,0,1,0,2,3.2,3.2,0,0,1-.3,1,1.91,1.91,0,0,1-.59.7,1.49,1.49,0,0,1-1,.28,1.54,1.54,0,0,1-1-.28,2,2,0,0,1-.59-.7,3.19,3.19,0,0,1-.29-1A5.85,5.85,0,0,1,158.31,251.39Zm.67,0c0,.14,0,.29,0,.47a4.43,4.43,0,0,0,.06.51,3.14,3.14,0,0,0,.12.51,1.67,1.67,0,0,0,.23.44,1,1,0,0,0,.34.31.9.9,0,0,0,.48.11,1,1,0,0,0,.48-.11,1.24,1.24,0,0,0,.34-.31,1.65,1.65,0,0,0,.22-.44,3.18,3.18,0,0,0,.13-.51,4.43,4.43,0,0,0,.06-.51c0-.18,0-.33,0-.47s0-.29,0-.46a4.6,4.6,0,0,0-.06-.52,3.18,3.18,0,0,0-.13-.51,1.65,1.65,0,0,0-.22-.44,1.21,1.21,0,0,0-.34-.3,1,1,0,0,0-.48-.12.9.9,0,0,0-.48.12,1,1,0,0,0-.34.3,1.67,1.67,0,0,0-.23.44,3.14,3.14,0,0,0-.12.51,4.6,4.6,0,0,0-.06.52C159,251.1,159,251.25,159,251.39Z"/><path d="M165.32,248.18H166v6h-.63Z"/><path d="M167.19,251.37c0-.17,0-.33,0-.48s0-.29,0-.41h.59c0,.1,0,.2,0,.3v.32h0a.91.91,0,0,1,.18-.27,1.64,1.64,0,0,1,.28-.23,1.5,1.5,0,0,1,.36-.16,1.44,1.44,0,0,1,.43-.06,1.52,1.52,0,0,1,.51.08,1.36,1.36,0,0,1,.34.18.93.93,0,0,1,.21.24,1.64,1.64,0,0,1,.12.22,1.78,1.78,0,0,1,.48-.53,1.27,1.27,0,0,1,.71-.19,1.88,1.88,0,0,1,.67.11,1.1,1.1,0,0,1,.44.31,1.37,1.37,0,0,1,.24.5,2.59,2.59,0,0,1,.07.65v2.27h-.62V252a2.33,2.33,0,0,0,0-.37,1,1,0,0,0-.15-.33.71.71,0,0,0-.28-.23,1,1,0,0,0-.45-.09,1,1,0,0,0-.37.08,1,1,0,0,0-.31.22,1.13,1.13,0,0,0-.21.35,1.33,1.33,0,0,0-.07.45v2.16h-.63V252.1a1.62,1.62,0,0,0-.17-.88A.6.6,0,0,0,169,251a1.18,1.18,0,0,0-.52.1.88.88,0,0,0-.36.3,1.14,1.14,0,0,0-.21.46,2.1,2.1,0,0,0-.07.58v1.82h-.62Z"/><line class="cls-1" x1="38.21" y1="253" x2="46.2" y2="253"/><path d="M235.17,251a1.66,1.66,0,0,0-.63-.52,1.93,1.93,0,0,0-.79-.17,2.13,2.13,0,0,0-.87.19,2.16,2.16,0,0,0-.68.52,2.58,2.58,0,0,0-.45.75,2.69,2.69,0,0,0-.16.89,2.79,2.79,0,0,0,.16.93,2.41,2.41,0,0,0,.45.74,2,2,0,0,0,.68.5,1.92,1.92,0,0,0,.87.19,2,2,0,0,0,1.64-.8l.51.43a2.38,2.38,0,0,1-.93.75,3,3,0,0,1-1.22.24,2.85,2.85,0,0,1-1.13-.22,2.82,2.82,0,0,1-.92-.62,3,3,0,0,1-.61-.94,3.33,3.33,0,0,1-.22-1.2,3.19,3.19,0,0,1,.21-1.16,2.9,2.9,0,0,1,.6-1,3.08,3.08,0,0,1,.91-.63,3,3,0,0,1,2.27,0,2,2,0,0,1,.89.68Z"/><path d="M239,253.1l0,0a1.35,1.35,0,0,1-.37.13,2.87,2.87,0,0,1-.39,0,1.68,1.68,0,0,1-.68-.13,1.5,1.5,0,0,1-.55-.36,1.92,1.92,0,0,1-.36-.56,2.11,2.11,0,0,1-.12-.73,1.75,1.75,0,0,1,.14-.74,1.63,1.63,0,0,1,.4-.56,1.79,1.79,0,0,1,.6-.35,2.36,2.36,0,0,1,.75-.12,2.27,2.27,0,0,1,.75.12,1.94,1.94,0,0,1,.61.35,1.49,1.49,0,0,1,.39.56,1.75,1.75,0,0,1,.15.74,2.19,2.19,0,0,1,0,.46c0,.14-.07.27-.11.4a2.53,2.53,0,0,1-.18.37,3.35,3.35,0,0,1-.21.36l-1.5,2.4h-.79Zm-.6-.43a1.51,1.51,0,0,0,.48-.08,1.28,1.28,0,0,0,.39-.24,1.12,1.12,0,0,0,.26-.38,1.27,1.27,0,0,0,.1-.5,1.26,1.26,0,0,0-.1-.49,1,1,0,0,0-.26-.38,1,1,0,0,0-.39-.24,1.33,1.33,0,0,0-1,0,.88.88,0,0,0-.38.24,1.19,1.19,0,0,0-.27.38,1.26,1.26,0,0,0-.09.49,1.28,1.28,0,0,0,.09.5,1.31,1.31,0,0,0,.27.38,1.12,1.12,0,0,0,.38.24A1.51,1.51,0,0,0,238.35,252.67Z"/><path d="M240.88,252.62a7.07,7.07,0,0,1,.08-1,2.88,2.88,0,0,1,.3-.94,2,2,0,0,1,.58-.71,1.84,1.84,0,0,1,1.92,0,2,2,0,0,1,.58.71,2.88,2.88,0,0,1,.3.94,7.07,7.07,0,0,1,.08,1,7,7,0,0,1-.08,1,2.86,2.86,0,0,1-.3.95,2,2,0,0,1-.58.71,1.84,1.84,0,0,1-1.92,0,2,2,0,0,1-.58-.71,2.86,2.86,0,0,1-.3-.95A7,7,0,0,1,240.88,252.62Zm.67,0c0,.14,0,.3,0,.47a4.43,4.43,0,0,0,.06.51,2.72,2.72,0,0,0,.13.51,1.51,1.51,0,0,0,.22.44,1.12,1.12,0,0,0,.34.31,1,1,0,0,0,1,0,1.12,1.12,0,0,0,.34-.31,1.51,1.51,0,0,0,.22-.44,2.72,2.72,0,0,0,.13-.51,4.43,4.43,0,0,0,.06-.51c0-.17,0-.33,0-.47s0-.29,0-.46a4.88,4.88,0,0,0-.06-.52,2.83,2.83,0,0,0-.13-.5,1.4,1.4,0,0,0-.22-.44,1.12,1.12,0,0,0-.34-.31,1,1,0,0,0-1,0,1.12,1.12,0,0,0-.34.31,1.4,1.4,0,0,0-.22.44,2.83,2.83,0,0,0-.13.5,4.88,4.88,0,0,0-.06.52C241.56,252.33,241.55,252.49,241.55,252.62Z"/><path d="M247.78,255.8l-.51-.2,2.41-6.14.5.19Z"/><path d="M257.1,251a1.66,1.66,0,0,0-.63-.52,1.92,1.92,0,0,0-.78-.17,2.06,2.06,0,0,0-.87.19,2.16,2.16,0,0,0-.68.52,2.21,2.21,0,0,0-.45.75,2.46,2.46,0,0,0-.16.89,2.56,2.56,0,0,0,.16.93,2.2,2.2,0,0,0,.44.74,2.1,2.1,0,0,0,.68.5,2,2,0,0,0,.88.19,2,2,0,0,0,.93-.21,2,2,0,0,0,.71-.59l.5.43a2.29,2.29,0,0,1-.92.75,3,3,0,0,1-1.22.24,2.8,2.8,0,0,1-2.05-.84,2.82,2.82,0,0,1-.61-.94,3.13,3.13,0,0,1-.22-1.2,3.19,3.19,0,0,1,.21-1.16,2.75,2.75,0,0,1,.6-1,3,3,0,0,1,.91-.63,2.93,2.93,0,0,1,1.16-.23,3,3,0,0,1,1.11.21,2,2,0,0,1,.89.68Z"/><path d="M258.46,254.69l2.14-2.08.35-.36a1.75,1.75,0,0,0,.25-.32,1,1,0,0,0,.15-.32,1.46,1.46,0,0,0,0-.38,1,1,0,0,0-.08-.4.93.93,0,0,0-.22-.3,1.13,1.13,0,0,0-.73-.26,1,1,0,0,0-.71.25,1.11,1.11,0,0,0-.36.66l-.73-.07a1.91,1.91,0,0,1,.21-.61,1.28,1.28,0,0,1,.39-.44,1.77,1.77,0,0,1,.53-.27,2.25,2.25,0,0,1,.64-.09,2.09,2.09,0,0,1,.67.1,1.53,1.53,0,0,1,.55.29,1.47,1.47,0,0,1,.37.48,1.39,1.39,0,0,1,.14.66,1.91,1.91,0,0,1-.09.61,1.8,1.8,0,0,1-.25.5,2.86,2.86,0,0,1-.35.43l-.41.41-1.75,1.64h2.89v.63h-3.65Z"/><path d="M266.35,250.42l-2.26,5h-.76l2.3-5H262.9v-.63h3.45Z"/><path d="M267.26,252.62a7.07,7.07,0,0,1,.08-1,3.45,3.45,0,0,1,.3-.94,2,2,0,0,1,.59-.71,1.82,1.82,0,0,1,1.91,0,2,2,0,0,1,.59.71,3.45,3.45,0,0,1,.3.94,7,7,0,0,1,.07,1,6.92,6.92,0,0,1-.07,1,3.41,3.41,0,0,1-.3.95,2,2,0,0,1-.59.71,1.82,1.82,0,0,1-1.91,0,2,2,0,0,1-.59-.71,3.41,3.41,0,0,1-.3-.95A7,7,0,0,1,267.26,252.62Zm.68,0c0,.14,0,.3,0,.47a4.43,4.43,0,0,0,.06.51,2.72,2.72,0,0,0,.13.51,1.53,1.53,0,0,0,.23.44,1,1,0,0,0,.34.31.89.89,0,0,0,.47.12,1,1,0,0,0,.49-.12,1.08,1.08,0,0,0,.33-.31,1.53,1.53,0,0,0,.23-.44,2.72,2.72,0,0,0,.13-.51,4.43,4.43,0,0,0,.06-.51c0-.17,0-.33,0-.47s0-.29,0-.46a4.88,4.88,0,0,0-.06-.52,2.83,2.83,0,0,0-.13-.5,1.41,1.41,0,0,0-.23-.44,1.08,1.08,0,0,0-.33-.31,1,1,0,0,0-.49-.12.89.89,0,0,0-.47.12,1,1,0,0,0-.34.31,1.41,1.41,0,0,0-.23.44,2.83,2.83,0,0,0-.13.5,4.88,4.88,0,0,0-.06.52C267.94,252.33,267.94,252.49,267.94,252.62Z"/><path d="M52.87,251a1.55,1.55,0,0,0-.63-.51,1.82,1.82,0,0,0-.79-.18,2,2,0,0,0-.87.2,2.13,2.13,0,0,0-.68.51,2.58,2.58,0,0,0-.45.75,2.67,2.67,0,0,0,0,1.82,2.29,2.29,0,0,0,.45.74,1.88,1.88,0,0,0,.68.5,1.92,1.92,0,0,0,.87.19,2,2,0,0,0,.93-.21,2.07,2.07,0,0,0,.71-.58l.51.42a2.38,2.38,0,0,1-.93.75,3,3,0,0,1-1.22.24,2.85,2.85,0,0,1-1.13-.22,2.82,2.82,0,0,1-.92-.62,3,3,0,0,1-.61-.94,3.27,3.27,0,0,1-.22-1.19,3.2,3.2,0,0,1,.21-1.17,3,3,0,0,1,.6-.95,3.08,3.08,0,0,1,.91-.63,3,3,0,0,1,2.27,0,2,2,0,0,1,.89.68Z"/><path d="M54.13,252.62a7,7,0,0,1,.08-1,3.11,3.11,0,0,1,.3-1,1.94,1.94,0,0,1,.59-.71,1.55,1.55,0,0,1,.95-.27,1.6,1.6,0,0,1,1,.27,2,2,0,0,1,.59.71,3.1,3.1,0,0,1,.29,1,5.77,5.77,0,0,1,.08,1,5.85,5.85,0,0,1-.08,1,3.13,3.13,0,0,1-.29.94,2,2,0,0,1-.59.71,1.6,1.6,0,0,1-1,.27,1.55,1.55,0,0,1-.95-.27,1.94,1.94,0,0,1-.59-.71,3.14,3.14,0,0,1-.3-.94A7.07,7.07,0,0,1,54.13,252.62Zm.67,0c0,.13,0,.29,0,.46a4.88,4.88,0,0,0,.06.52,2.83,2.83,0,0,0,.13.5,1.4,1.4,0,0,0,.22.44,1.1,1.1,0,0,0,.34.31,1,1,0,0,0,.48.12.9.9,0,0,0,.48-.12.92.92,0,0,0,.34-.31,1.41,1.41,0,0,0,.23-.44,2.8,2.8,0,0,0,.12-.5,4.88,4.88,0,0,0,.06-.52,3.86,3.86,0,0,0,0-.46,3.94,3.94,0,0,0,0-.47,4.43,4.43,0,0,0-.06-.51,2.71,2.71,0,0,0-.12-.51,1.53,1.53,0,0,0-.23-.44,1,1,0,0,0-.34-.31.9.9,0,0,0-.48-.12,1,1,0,0,0-.48.12,1.24,1.24,0,0,0-.34.31,1.51,1.51,0,0,0-.22.44,2.72,2.72,0,0,0-.13.51,4.43,4.43,0,0,0-.06.51C54.81,252.32,54.8,252.48,54.8,252.62Z"/><path d="M61,255.79l-.51-.2,2.41-6.14.51.19Z"/><path d="M70.36,251a1.52,1.52,0,0,0-.64-.51,1.78,1.78,0,0,0-.78-.18,2,2,0,0,0-.87.2,2.13,2.13,0,0,0-.68.51,2.58,2.58,0,0,0-.45.75,2.51,2.51,0,0,0-.16.9,2.54,2.54,0,0,0,.16.92,2.46,2.46,0,0,0,.44.74,2.09,2.09,0,0,0,1.56.69,2,2,0,0,0,.93-.21,2.07,2.07,0,0,0,.71-.58l.5.42a2.29,2.29,0,0,1-.92.75,3,3,0,0,1-1.22.24,2.93,2.93,0,0,1-1.14-.22,2.88,2.88,0,0,1-.91-.62,3,3,0,0,1-.61-.94,3.07,3.07,0,0,1-.22-1.19,3.2,3.2,0,0,1,.21-1.17,2.84,2.84,0,0,1,.6-.95,3,3,0,0,1,.91-.63,2.93,2.93,0,0,1,1.16-.23,3,3,0,0,1,1.11.21,2,2,0,0,1,.89.68Z"/><path d="M74.2,255.45h-.68v-4.8h0l-1,.85-.4-.48,1.52-1.24h.59Z"/><path d="M76.37,251.17a1.33,1.33,0,0,1,.13-.61,1.2,1.2,0,0,1,.34-.46,1.44,1.44,0,0,1,.51-.3,1.92,1.92,0,0,1,1.28,0,1.44,1.44,0,0,1,.51.3,1.32,1.32,0,0,1,.34.46,1.48,1.48,0,0,1,.12.61,1.44,1.44,0,0,1-.06.4,1.41,1.41,0,0,1-.18.37,1.18,1.18,0,0,1-.3.29,1,1,0,0,1-.38.19h0a1.44,1.44,0,0,1,.46.19,1.35,1.35,0,0,1,.35.32,1.67,1.67,0,0,1,.23.44,1.7,1.7,0,0,1,.08.51,1.74,1.74,0,0,1-.14.69,1.46,1.46,0,0,1-.39.52,1.47,1.47,0,0,1-.57.33,2.35,2.35,0,0,1-1.42,0,1.59,1.59,0,0,1-.58-.33,1.43,1.43,0,0,1-.38-.52,1.74,1.74,0,0,1-.14-.69,1.7,1.7,0,0,1,.08-.51,1.65,1.65,0,0,1,.22-.44,1.59,1.59,0,0,1,.36-.32,1.44,1.44,0,0,1,.46-.19h0a1.18,1.18,0,0,1-.39-.19,1.33,1.33,0,0,1-.29-.29,1.41,1.41,0,0,1-.18-.37A1.16,1.16,0,0,1,76.37,251.17Zm.48,2.67a1.14,1.14,0,0,0,.09.46,1.21,1.21,0,0,0,.24.35,1.16,1.16,0,0,0,.36.23A1.13,1.13,0,0,0,78,255a1,1,0,0,0,.44-.09,1,1,0,0,0,.36-.23,1.07,1.07,0,0,0,.25-.35,1.36,1.36,0,0,0,0-.92,1.07,1.07,0,0,0-.25-.35,1,1,0,0,0-.36-.23,1,1,0,0,0-.44-.09,1.13,1.13,0,0,0-.45.09,1.16,1.16,0,0,0-.36.23,1.21,1.21,0,0,0-.24.35A1.14,1.14,0,0,0,76.85,253.84ZM77,251.2a.92.92,0,0,0,.26.67.93.93,0,0,0,.69.27.9.9,0,0,0,.68-.27,1,1,0,0,0,0-1.34.9.9,0,0,0-.68-.27.93.93,0,0,0-.69.27A.92.92,0,0,0,77,251.2Z"/><path d="M80.52,252.62a5.77,5.77,0,0,1,.08-1,3.1,3.1,0,0,1,.29-1,2,2,0,0,1,.59-.71,1.6,1.6,0,0,1,1-.27,1.55,1.55,0,0,1,1,.27,1.94,1.94,0,0,1,.59.71,3.41,3.41,0,0,1,.3,1,7,7,0,0,1,.08,1,7.07,7.07,0,0,1-.08,1,3.45,3.45,0,0,1-.3.94,1.94,1.94,0,0,1-.59.71,1.55,1.55,0,0,1-1,.27,1.6,1.6,0,0,1-1-.27,2,2,0,0,1-.59-.71,3.13,3.13,0,0,1-.29-.94A5.85,5.85,0,0,1,80.52,252.62Zm.67,0a3.86,3.86,0,0,0,0,.46c0,.17,0,.34.05.52a4.07,4.07,0,0,0,.13.5,1.41,1.41,0,0,0,.23.44.92.92,0,0,0,.34.31.9.9,0,0,0,.48.12,1,1,0,0,0,.48-.12,1.1,1.1,0,0,0,.34-.31,1.65,1.65,0,0,0,.22-.44,2.83,2.83,0,0,0,.13-.5,4.88,4.88,0,0,0,.06-.52c0-.17,0-.33,0-.46s0-.3,0-.47a4.43,4.43,0,0,0-.06-.51,2.72,2.72,0,0,0-.13-.51,1.81,1.81,0,0,0-.22-.44,1.24,1.24,0,0,0-.34-.31,1,1,0,0,0-.48-.12.9.9,0,0,0-.48.12,1,1,0,0,0-.34.31,1.53,1.53,0,0,0-.23.44,3.8,3.8,0,0,0-.13.51c0,.17,0,.34-.05.51A3.94,3.94,0,0,0,81.19,252.62Z"/><line class="cls-2" x1="214.49" y1="253.42" x2="215.03" y2="253.42"/><line class="cls-2" x1="217.76" y1="253.42" x2="218.3" y2="253.42"/><line class="cls-2" x1="221.02" y1="253.42" x2="221.56" y2="253.42"/><line class="cls-2" x1="224.29" y1="253.42" x2="224.83" y2="253.42"/><line class="cls-2" x1="227.55" y1="253.42" x2="228.09" y2="253.42"/></g><g id="IC"><g id="IC_F2_F31740"><path d="M54.48,11.91h4.39v.78H55.32V15h3.3v.78h-3.3V19h-.84Z"/><path d="M61.2,14.91h.26a3.44,3.44,0,0,0,.54,0,1.45,1.45,0,0,0,.52-.17,1.06,1.06,0,0,0,.39-.37,1.16,1.16,0,0,0,.16-.65,1.09,1.09,0,0,0-.34-.85,1.21,1.21,0,0,0-.87-.32,1.51,1.51,0,0,0-.78.2,1.31,1.31,0,0,0-.52.59L59.75,13a1.78,1.78,0,0,1,.81-.9,2.56,2.56,0,0,1,1.24-.3,2.63,2.63,0,0,1,.8.12,2.19,2.19,0,0,1,.68.35,1.77,1.77,0,0,1,.46.58,1.81,1.81,0,0,1,.17.8,1.71,1.71,0,0,1-1.21,1.62v0a1.73,1.73,0,0,1,.6.22,1.77,1.77,0,0,1,.46.4,1.8,1.8,0,0,1,.29.53,2.19,2.19,0,0,1,.1.63A2,2,0,0,1,64,18a2,2,0,0,1-.51.64,2.43,2.43,0,0,1-.75.39,2.9,2.9,0,0,1-.89.13,2.78,2.78,0,0,1-1.41-.35,2,2,0,0,1-.87-1.14l.85-.28a1.3,1.3,0,0,0,1.43,1.05,1.5,1.5,0,0,0,.56-.1,1.48,1.48,0,0,0,.45-.28,1.35,1.35,0,0,0,.31-.44,1.32,1.32,0,0,0,.12-.57,1.28,1.28,0,0,0-.16-.65,1.1,1.1,0,0,0-.41-.42,1.8,1.8,0,0,0-.57-.23,2.88,2.88,0,0,0-.65-.07H61.2Z"/><path d="M68.32,19h-.84V13h0l-1.27,1.07-.5-.61,1.9-1.54h.73Z"/><path d="M75.08,12.69,72.25,19h-1l2.88-6.3H70.76v-.78h4.32Z"/><path d="M80,16.59h1v.78H80V19h-.84V17.37h-3v-.93L79,11.91h1Zm-.84-3.7h0l-2.26,3.7h2.28Z"/><path d="M81.78,15.45a7.79,7.79,0,0,1,.1-1.25A3.71,3.71,0,0,1,82.25,13a2.41,2.41,0,0,1,.73-.88,2.22,2.22,0,0,1,2.39,0,2.44,2.44,0,0,1,.74.88,4,4,0,0,1,.37,1.18,9.14,9.14,0,0,1,.1,1.25,9.14,9.14,0,0,1-.1,1.25,4.14,4.14,0,0,1-.37,1.19,2.53,2.53,0,0,1-.74.88,2.27,2.27,0,0,1-2.39,0,2.5,2.5,0,0,1-.73-.88,3.85,3.85,0,0,1-.37-1.19A7.79,7.79,0,0,1,81.78,15.45Zm.84,0c0,.17,0,.37,0,.58s0,.43.07.65a4.85,4.85,0,0,0,.16.63,2.19,2.19,0,0,0,.28.55,1.45,1.45,0,0,0,.43.39,1.21,1.21,0,0,0,.6.14,1.27,1.27,0,0,0,.6-.14,1.42,1.42,0,0,0,.42-.39,1.9,1.9,0,0,0,.28-.55,3.64,3.64,0,0,0,.16-.63c0-.22.06-.44.08-.65s0-.41,0-.58,0-.37,0-.58,0-.43-.08-.64a3.53,3.53,0,0,0-.16-.64A1.9,1.9,0,0,0,85.2,13a1.27,1.27,0,0,0-.42-.38,1.16,1.16,0,0,0-.6-.15,1.11,1.11,0,0,0-.6.15,1.3,1.3,0,0,0-.43.38,2.19,2.19,0,0,0-.28.55,4.61,4.61,0,0,0-.16.64c0,.21-.06.43-.07.64S82.62,15.28,82.62,15.45Z"/><path d="M87,19.74h5v.5H87Z"/><path d="M92.46,18l2.67-2.6.44-.44a3.35,3.35,0,0,0,.31-.4,1.38,1.38,0,0,0,.19-.41,1.73,1.73,0,0,0,.06-.47,1.31,1.31,0,0,0-.1-.5,1,1,0,0,0-.28-.37,1,1,0,0,0-.41-.24,1.35,1.35,0,0,0-.5-.09,1.27,1.27,0,0,0-.89.31,1.36,1.36,0,0,0-.45.82l-.91-.08a2,2,0,0,1,.26-.76,1.9,1.9,0,0,1,.49-.56,2,2,0,0,1,.67-.33,2.72,2.72,0,0,1,1.63,0,1.93,1.93,0,0,1,.68.36,1.63,1.63,0,0,1,.47.6,1.84,1.84,0,0,1,.18.83,2.29,2.29,0,0,1-.12.76,2.31,2.31,0,0,1-.31.63,3.71,3.71,0,0,1-.44.54c-.16.17-.33.33-.51.5l-2.18,2.05v0H97V19H92.46Z"/><path d="M97.9,15.45A7.79,7.79,0,0,1,98,14.2,3.71,3.71,0,0,1,98.37,13a2.41,2.41,0,0,1,.73-.88,2.22,2.22,0,0,1,2.39,0,2.44,2.44,0,0,1,.74.88,4,4,0,0,1,.37,1.18,9.14,9.14,0,0,1,.1,1.25,9.14,9.14,0,0,1-.1,1.25,4.14,4.14,0,0,1-.37,1.19,2.53,2.53,0,0,1-.74.88,2.27,2.27,0,0,1-2.39,0,2.5,2.5,0,0,1-.73-.88A3.85,3.85,0,0,1,98,16.7,7.79,7.79,0,0,1,97.9,15.45Zm.84,0c0,.17,0,.37,0,.58s0,.43.07.65a4.85,4.85,0,0,0,.16.63,2.19,2.19,0,0,0,.28.55,1.45,1.45,0,0,0,.43.39,1.21,1.21,0,0,0,.6.14,1.27,1.27,0,0,0,.6-.14,1.42,1.42,0,0,0,.42-.39,1.9,1.9,0,0,0,.28-.55,3.64,3.64,0,0,0,.16-.63c0-.22.06-.44.08-.65s0-.41,0-.58,0-.37,0-.58,0-.43-.08-.64a3.53,3.53,0,0,0-.16-.64,1.9,1.9,0,0,0-.28-.55,1.27,1.27,0,0,0-.42-.38,1.16,1.16,0,0,0-.6-.15,1.11,1.11,0,0,0-.6.15,1.3,1.3,0,0,0-.43.38,2.19,2.19,0,0,0-.28.55,4.61,4.61,0,0,0-.16.64c0,.21-.06.43-.07.64S98.74,15.28,98.74,15.45Z"/><path d="M107.82,12.69h-2.89l0,1.91a1.25,1.25,0,0,1,.44-.13,2.63,2.63,0,0,1,.47,0,2.25,2.25,0,0,1,.92.18,2,2,0,0,1,.72.49,2.15,2.15,0,0,1,.46.74,2.73,2.73,0,0,1,.16.92,2.37,2.37,0,0,1-.19,1,2.13,2.13,0,0,1-.51.74,2.21,2.21,0,0,1-.77.47,2.73,2.73,0,0,1-1,.17,2.26,2.26,0,0,1-1.31-.35,2.41,2.41,0,0,1-.78-.94l.84-.32a1.58,1.58,0,0,0,.52.65,1.37,1.37,0,0,0,.8.24,1.63,1.63,0,0,0,.59-.11,1.37,1.37,0,0,0,.48-.33,1.65,1.65,0,0,0,.33-.52,1.78,1.78,0,0,0,.12-.67,1.67,1.67,0,0,0-.14-.69,1.34,1.34,0,0,0-.37-.5,1.49,1.49,0,0,0-.55-.31,2.26,2.26,0,0,0-.69-.11,2.18,2.18,0,0,0-.74.13,3,3,0,0,0-.7.31l.07-3.68h3.71Z"/><path d="M108.7,11.91h.93l1.61,5.88h0L113,11.91h.94l1.73,5.88h0l1.64-5.88h.88L116.13,19h-.91l-1.75-6h0l-1.76,6h-.92Z"/><path d="M121.86,11.91h.84v3h3.78v-3h.84V19h-.84v-3.3H122.7V19h-.84Z"/><path d="M129.15,11.91H130v6.3h3.24V19h-4.08Z"/><rect class="cls-3" x="54.6" y="42.03" width="189.86" height="189.86"/><circle class="cls-4" cx="149.53" cy="136.91" r="23.71"/><path d="M151.58,168.9l2.13-2.08.36-.36a3.14,3.14,0,0,0,.25-.32,1.87,1.87,0,0,0,.15-.32,1.53,1.53,0,0,0,0-.38.87.87,0,0,0-.08-.4.73.73,0,0,0-.22-.3.94.94,0,0,0-.32-.19,1.1,1.1,0,0,0-.41-.07,1,1,0,0,0-.71.25,1.08,1.08,0,0,0-.36.65l-.73-.06a1.91,1.91,0,0,1,.21-.61,1.58,1.58,0,0,1,.4-.45,1.75,1.75,0,0,1,.53-.26,1.87,1.87,0,0,1,.64-.1,2.39,2.39,0,0,1,.66.1,1.72,1.72,0,0,1,.55.3,1.31,1.31,0,0,1,.38.48,1.53,1.53,0,0,1,.14.66,1.7,1.7,0,0,1-.1.61,2.1,2.1,0,0,1-.24.5,4.82,4.82,0,0,1-.36.43,5.18,5.18,0,0,1-.41.4L152.34,169v0h2.89v.62h-3.65Z"/><path d="M155.88,166.83a7.07,7.07,0,0,1,.08-1,3.3,3.3,0,0,1,.3-1,1.91,1.91,0,0,1,.59-.7,1.55,1.55,0,0,1,1-.28,1.61,1.61,0,0,1,1,.28,2,2,0,0,1,.59.7,3.28,3.28,0,0,1,.29,1,5.85,5.85,0,0,1,.08,1,5.77,5.77,0,0,1-.08,1,3.19,3.19,0,0,1-.29.95,1.92,1.92,0,0,1-.59.7,1.54,1.54,0,0,1-1,.28,1.49,1.49,0,0,1-1-.28,1.83,1.83,0,0,1-.59-.7,3.2,3.2,0,0,1-.3-.95A7,7,0,0,1,155.88,166.83Zm.67,0c0,.14,0,.29,0,.47a4.43,4.43,0,0,0,.06.51,2.93,2.93,0,0,0,.13.51,1.51,1.51,0,0,0,.22.44,1.24,1.24,0,0,0,.34.31,1,1,0,0,0,.48.11.9.9,0,0,0,.48-.11,1,1,0,0,0,.34-.31,1.53,1.53,0,0,0,.23-.44,4.21,4.21,0,0,0,.12-.51,4.43,4.43,0,0,0,.06-.51c0-.18,0-.33,0-.47s0-.29,0-.46a4.88,4.88,0,0,0-.06-.52,4.7,4.7,0,0,0-.12-.51,1.67,1.67,0,0,0-.23-.44,1,1,0,0,0-.34-.3.9.9,0,0,0-.48-.12,1,1,0,0,0-.48.12,1.21,1.21,0,0,0-.34.3,1.65,1.65,0,0,0-.22.44,3.18,3.18,0,0,0-.13.51,4.88,4.88,0,0,0-.06.52C156.56,166.54,156.55,166.69,156.55,166.83Z"/><circle class="cls-4" cx="149.53" cy="136.91" r="47.41"/><path d="M154.53,191.45h.82v.62h-.82v1.3h-.67v-1.3h-2.4v-.74l2.25-3.62h.82Zm-.67-3h0l-1.81,3h1.83Z"/><path d="M155.88,190.54a7,7,0,0,1,.08-1,3.2,3.2,0,0,1,.3-.95,1.83,1.83,0,0,1,.59-.7,1.49,1.49,0,0,1,1-.28,1.54,1.54,0,0,1,1,.28,1.92,1.92,0,0,1,.59.7,3.19,3.19,0,0,1,.29.95,5.77,5.77,0,0,1,.08,1,5.85,5.85,0,0,1-.08,1,3.28,3.28,0,0,1-.29,1,2,2,0,0,1-.59.7,1.61,1.61,0,0,1-1,.28,1.55,1.55,0,0,1-1-.28,1.91,1.91,0,0,1-.59-.7,3.3,3.3,0,0,1-.3-1A7.07,7.07,0,0,1,155.88,190.54Zm.67,0c0,.14,0,.29,0,.46a4.88,4.88,0,0,0,.06.52,3.18,3.18,0,0,0,.13.51,1.65,1.65,0,0,0,.22.44,1.21,1.21,0,0,0,.34.3,1,1,0,0,0,.48.12.9.9,0,0,0,.48-.12,1,1,0,0,0,.34-.3,1.67,1.67,0,0,0,.23-.44,4.7,4.7,0,0,0,.12-.51A4.88,4.88,0,0,0,159,191c0-.17,0-.32,0-.46s0-.29,0-.47a4.43,4.43,0,0,0-.06-.51,4.21,4.21,0,0,0-.12-.51,1.53,1.53,0,0,0-.23-.44,1,1,0,0,0-.34-.31,1,1,0,0,0-.48-.11,1.06,1.06,0,0,0-.48.11,1.24,1.24,0,0,0-.34.31,1.51,1.51,0,0,0-.22.44,2.93,2.93,0,0,0-.13.51,4.43,4.43,0,0,0-.06.51C156.56,190.25,156.55,190.4,156.55,190.54Z"/><circle class="cls-4" cx="149.53" cy="136.91" r="71.17"/><path d="M152.81,213.83h0a1.24,1.24,0,0,1,.37-.13,2.87,2.87,0,0,1,.39,0,1.91,1.91,0,0,1,.68.13,1.58,1.58,0,0,1,.54.37,1.54,1.54,0,0,1,.36.56,2.09,2.09,0,0,1,.13.72,1.72,1.72,0,0,1-.15.74,1.51,1.51,0,0,1-.4.56,1.79,1.79,0,0,1-.6.35,2.27,2.27,0,0,1-.75.13,2.32,2.32,0,0,1-.75-.13,1.79,1.79,0,0,1-.6-.35,1.63,1.63,0,0,1-.4-.56,1.72,1.72,0,0,1-.14-.74,2.28,2.28,0,0,1,.15-.86,5.1,5.1,0,0,1,.38-.73l1.51-2.39h.78Zm.59.42a1.51,1.51,0,0,0-.48.08,1.1,1.1,0,0,0-.65.62,1.35,1.35,0,0,0-.09.5,1.31,1.31,0,0,0,.09.5,1.1,1.1,0,0,0,.65.62,1.48,1.48,0,0,0,1,0,1.28,1.28,0,0,0,.39-.24,1.12,1.12,0,0,0,.26-.38,1.31,1.31,0,0,0,.1-.5,1.35,1.35,0,0,0-.1-.5,1.12,1.12,0,0,0-.26-.38,1.28,1.28,0,0,0-.39-.24A1.51,1.51,0,0,0,153.4,214.25Z"/><path d="M155.88,214.3a7,7,0,0,1,.08-1,3.2,3.2,0,0,1,.3-1,1.83,1.83,0,0,1,.59-.7,1.49,1.49,0,0,1,1-.28,1.54,1.54,0,0,1,1,.28,1.92,1.92,0,0,1,.59.7,3.19,3.19,0,0,1,.29,1,5.77,5.77,0,0,1,.08,1,5.85,5.85,0,0,1-.08,1,3.28,3.28,0,0,1-.29.95,2,2,0,0,1-.59.7,1.61,1.61,0,0,1-1,.28,1.55,1.55,0,0,1-1-.28,1.91,1.91,0,0,1-.59-.7,3.3,3.3,0,0,1-.3-.95A7.07,7.07,0,0,1,155.88,214.3Zm.67,0c0,.14,0,.29,0,.46a4.88,4.88,0,0,0,.06.52,3.18,3.18,0,0,0,.13.51,1.65,1.65,0,0,0,.22.44,1.21,1.21,0,0,0,.34.3,1,1,0,0,0,.48.12.9.9,0,0,0,.48-.12,1,1,0,0,0,.34-.3,1.67,1.67,0,0,0,.23-.44,4.7,4.7,0,0,0,.12-.51,4.88,4.88,0,0,0,.06-.52c0-.17,0-.32,0-.46s0-.3,0-.47a4.43,4.43,0,0,0-.06-.51,4.21,4.21,0,0,0-.12-.51,1.53,1.53,0,0,0-.23-.44,1,1,0,0,0-.34-.31.9.9,0,0,0-.48-.11,1,1,0,0,0-.48.11,1.24,1.24,0,0,0-.34.31,1.51,1.51,0,0,0-.22.44,2.93,2.93,0,0,0-.13.51,4.43,4.43,0,0,0-.06.51C156.56,214,156.55,214.16,156.55,214.3Z"/><circle class="cls-4" cx="149.53" cy="136.91" r="94.93"/><line class="cls-4" x1="54.6" y1="136.96" x2="244.51" y2="136.96"/><line class="cls-4" x1="149.53" y1="231.89" x2="149.53" y2="41.98"/><line class="cls-4" x1="94.77" y1="41.98" x2="204.34" y2="231.89"/><line class="cls-4" x1="94.77" y1="231.89" x2="204.34" y2="41.98"/><line class="cls-4" x1="54.6" y1="82.15" x2="244.51" y2="191.72"/><line class="cls-4" x1="54.6" y1="191.72" x2="244.51" y2="82.15"/><line class="cls-1" x1="149.53" y1="138.31" x2="149.53" y2="138.31"/><line class="cls-1" x1="149.53" y1="138.31" x2="149.58" y2="138.31"/><line class="cls-1" x1="149.58" y1="138.31" x2="149.58" y2="138.31"/><line class="cls-1" x1="149.58" y1="138.31" x2="149.64" y2="138.31"/><line class="cls-1" x1="149.64" y1="138.31" x2="149.64" y2="138.31"/><line class="cls-1" x1="149.64" y1="138.31" x2="149.69" y2="138.37"/><line class="cls-1" x1="149.69" y1="138.37" x2="149.8" y2="139.34"/><line class="cls-1" x1="149.8" y1="139.34" x2="150.12" y2="141.07"/><line class="cls-1" x1="150.12" y1="141.07" x2="150.5" y2="143.12"/><line class="cls-1" x1="150.5" y1="143.12" x2="151.04" y2="145.49"/><line class="cls-1" x1="151.04" y1="145.49" x2="151.69" y2="148.09"/><line class="cls-1" x1="151.69" y1="148.09" x2="152.44" y2="150.73"/><line class="cls-1" x1="152.44" y1="150.73" x2="153.36" y2="153.49"/><line class="cls-1" x1="153.36" y1="153.49" x2="154.33" y2="156.13"/><line class="cls-1" x1="154.33" y1="156.13" x2="155.41" y2="158.83"/><line class="cls-1" x1="155.41" y1="158.83" x2="156.55" y2="161.42"/><line class="cls-1" x1="156.55" y1="161.42" x2="157.79" y2="163.91"/><line class="cls-1" x1="157.79" y1="163.91" x2="159.09" y2="166.28"/><line class="cls-1" x1="159.09" y1="166.28" x2="160.44" y2="168.61"/><line class="cls-1" x1="160.44" y1="168.61" x2="161.84" y2="170.71"/><line class="cls-1" x1="161.84" y1="170.71" x2="163.3" y2="172.76"/><line class="cls-1" x1="163.3" y1="172.76" x2="164.76" y2="174.65"/><line class="cls-1" x1="164.76" y1="174.65" x2="166.32" y2="176.44"/><line class="cls-1" x1="166.32" y1="176.44" x2="167.83" y2="178.06"/><line class="cls-1" x1="167.83" y1="178.06" x2="169.4" y2="179.57"/><line class="cls-1" x1="169.4" y1="179.57" x2="171.02" y2="180.97"/><line class="cls-1" x1="171.02" y1="180.97" x2="172.59" y2="182.21"/><line class="cls-1" x1="172.59" y1="182.21" x2="174.21" y2="183.29"/><line class="cls-1" x1="174.21" y1="183.29" x2="175.77" y2="184.27"/><line class="cls-1" x1="175.77" y1="184.27" x2="177.34" y2="185.02"/><line class="cls-1" x1="177.34" y1="185.02" x2="178.9" y2="185.78"/><line class="cls-1" x1="178.9" y1="185.78" x2="180.36" y2="186.32"/><line class="cls-1" x1="180.36" y1="186.32" x2="181.93" y2="186.8"/><line class="cls-1" x1="181.93" y1="186.8" x2="183.39" y2="187.07"/><line class="cls-1" x1="183.39" y1="187.07" x2="184.9" y2="187.4"/><line class="cls-1" x1="184.9" y1="187.4" x2="186.36" y2="187.56"/><line class="cls-1" x1="186.36" y1="187.56" x2="187.81" y2="187.72"/><line class="cls-1" x1="187.81" y1="187.72" x2="189.22" y2="187.72"/><line class="cls-1" x1="189.22" y1="187.72" x2="190.62" y2="187.67"/><line class="cls-1" x1="190.62" y1="187.67" x2="192.03" y2="187.51"/><line class="cls-1" x1="192.03" y1="187.51" x2="193.27" y2="187.24"/><line class="cls-1" x1="193.27" y1="187.24" x2="194.4" y2="186.75"/><line class="cls-1" x1="194.4" y1="186.75" x2="195.54" y2="186.21"/><line class="cls-1" x1="195.54" y1="186.21" x2="196.72" y2="185.78"/><line class="cls-1" x1="196.72" y1="185.78" x2="197.8" y2="185.18"/><line class="cls-1" x1="197.8" y1="185.18" x2="198.99" y2="184.7"/><line class="cls-1" x1="198.99" y1="184.7" x2="200.07" y2="184.05"/><line class="cls-1" x1="200.07" y1="184.05" x2="201.21" y2="183.46"/><line class="cls-1" x1="201.21" y1="183.46" x2="202.39" y2="182.86"/><line class="cls-1" x1="202.39" y1="182.86" x2="203.47" y2="182.16"/><line class="cls-1" x1="203.47" y1="182.16" x2="204.61" y2="181.51"/><line class="cls-1" x1="204.61" y1="181.51" x2="205.74" y2="180.86"/><line class="cls-1" x1="205.74" y1="180.86" x2="206.82" y2="180.05"/><line class="cls-1" x1="206.82" y1="180.05" x2="207.96" y2="179.35"/><line class="cls-1" x1="207.96" y1="179.35" x2="208.98" y2="178.54"/><line class="cls-1" x1="208.98" y1="178.54" x2="210.06" y2="177.73"/><line class="cls-1" x1="210.06" y1="177.73" x2="211.09" y2="176.92"/><line class="cls-1" x1="211.09" y1="176.92" x2="212.17" y2="176.06"/><line class="cls-1" x1="212.17" y1="176.06" x2="213.19" y2="175.19"/><line class="cls-1" x1="213.19" y1="175.19" x2="214.22" y2="174.28"/><line class="cls-1" x1="214.22" y1="174.28" x2="215.25" y2="173.3"/><line class="cls-1" x1="215.25" y1="173.3" x2="216.27" y2="172.39"/><line class="cls-1" x1="216.27" y1="172.39" x2="217.14" y2="171.36"/><line class="cls-1" x1="217.14" y1="171.36" x2="218.11" y2="170.33"/><line class="cls-1" x1="218.11" y1="170.33" x2="219.08" y2="169.36"/><line class="cls-1" x1="219.08" y1="169.36" x2="219.94" y2="168.23"/><line class="cls-1" x1="219.94" y1="168.23" x2="220.86" y2="167.2"/><line class="cls-1" x1="220.86" y1="167.2" x2="221.73" y2="166.07"/><line class="cls-1" x1="221.73" y1="166.07" x2="222.54" y2="164.93"/><line class="cls-1" x1="222.54" y1="164.93" x2="223.4" y2="163.8"/><line class="cls-1" x1="223.4" y1="163.8" x2="224.21" y2="162.61"/><line class="cls-1" x1="224.21" y1="162.61" x2="224.91" y2="161.42"/><line class="cls-1" x1="224.91" y1="161.42" x2="225.78" y2="160.24"/><line class="cls-1" x1="225.78" y1="160.24" x2="226.48" y2="158.99"/><line class="cls-1" x1="226.48" y1="158.99" x2="227.07" y2="157.7"/><line class="cls-1" x1="227.07" y1="157.7" x2="227.83" y2="156.46"/><line class="cls-1" x1="227.83" y1="156.46" x2="228.42" y2="155.11"/><line class="cls-1" x1="228.42" y1="155.11" x2="229.02" y2="153.81"/><line class="cls-1" x1="229.02" y1="153.81" x2="229.66" y2="152.46"/><line class="cls-1" x1="229.66" y1="152.46" x2="230.15" y2="151.11"/><line class="cls-1" x1="230.15" y1="151.11" x2="230.69" y2="149.76"/><line class="cls-1" x1="230.69" y1="149.76" x2="231.18" y2="148.36"/><line class="cls-1" x1="231.18" y1="148.36" x2="231.55" y2="147.01"/><line class="cls-1" x1="231.55" y1="147.01" x2="232.04" y2="145.6"/><line class="cls-1" x1="232.04" y1="145.6" x2="232.42" y2="144.14"/><line class="cls-1" x1="232.42" y1="144.14" x2="232.69" y2="142.74"/><line class="cls-1" x1="232.69" y1="142.74" x2="233.07" y2="141.28"/><line class="cls-1" x1="233.07" y1="141.28" x2="233.28" y2="139.82"/><line class="cls-1" x1="233.28" y1="139.82" x2="233.5" y2="138.37"/><line class="cls-1" x1="233.5" y1="138.37" x2="233.77" y2="136.96"/><line class="cls-1" x1="233.77" y1="136.96" x2="233.88" y2="135.5"/><line class="cls-1" x1="233.88" y1="135.5" x2="233.93" y2="133.99"/><line class="cls-1" x1="233.93" y1="133.99" x2="234.09" y2="132.53"/><line class="cls-1" x1="234.09" y1="132.53" x2="234.15" y2="131.02"/><line class="cls-1" x1="234.15" y1="131.02" x2="234.15" y2="129.56"/><line class="cls-1" x1="234.15" y1="129.56" x2="234.2" y2="128.05"/><line class="cls-1" x1="234.2" y1="128.05" x2="234.04" y2="126.59"/><line class="cls-1" x1="234.04" y1="126.59" x2="233.98" y2="125.08"/><line class="cls-1" x1="233.98" y1="125.08" x2="233.88" y2="123.62"/><line class="cls-1" x1="233.88" y1="123.62" x2="233.71" y2="122.11"/><line class="cls-1" x1="233.71" y1="122.11" x2="233.5" y2="120.65"/><line class="cls-1" x1="233.5" y1="120.65" x2="233.34" y2="119.14"/><line class="cls-1" x1="233.34" y1="119.14" x2="233.01" y2="117.68"/><line class="cls-1" x1="233.01" y1="117.68" x2="232.69" y2="116.23"/><line class="cls-1" x1="232.69" y1="116.23" x2="232.47" y2="114.77"/><line class="cls-1" x1="232.47" y1="114.77" x2="231.99" y2="113.31"/><line class="cls-1" x1="231.99" y1="113.31" x2="231.61" y2="111.85"/><line class="cls-1" x1="231.61" y1="111.85" x2="231.23" y2="110.39"/><line class="cls-1" x1="231.23" y1="110.39" x2="230.69" y2="108.99"/><line class="cls-1" x1="230.69" y1="108.99" x2="230.2" y2="107.59"/><line class="cls-1" x1="230.2" y1="107.59" x2="229.72" y2="106.18"/><line class="cls-1" x1="229.72" y1="106.18" x2="229.12" y2="104.83"/><line class="cls-1" x1="229.12" y1="104.83" x2="228.58" y2="103.43"/><line class="cls-1" x1="228.58" y1="103.43" x2="227.94" y2="102.02"/><line class="cls-1" x1="227.94" y1="102.02" x2="227.23" y2="100.73"/><line class="cls-1" x1="227.23" y1="100.73" x2="226.59" y2="99.38"/><line class="cls-1" x1="226.59" y1="99.38" x2="225.83" y2="98.08"/><line class="cls-1" x1="225.83" y1="98.08" x2="225.07" y2="96.79"/><line class="cls-1" x1="225.07" y1="96.79" x2="224.32" y2="95.49"/><line class="cls-1" x1="224.32" y1="95.49" x2="223.62" y2="94.19"/><line class="cls-1" x1="223.62" y1="94.19" x2="222.7" y2="93.01"/><line class="cls-1" x1="222.7" y1="93.01" x2="221.94" y2="91.71"/><line class="cls-1" x1="221.94" y1="91.71" x2="221.08" y2="90.47"/><line class="cls-1" x1="221.08" y1="90.47" x2="220.16" y2="89.33"/><line class="cls-1" x1="220.16" y1="89.33" x2="219.24" y2="88.15"/><line class="cls-1" x1="219.24" y1="88.15" x2="218.32" y2="87.01"/><line class="cls-1" x1="218.32" y1="87.01" x2="217.3" y2="85.88"/><line class="cls-1" x1="217.3" y1="85.88" x2="216.38" y2="84.69"/><line class="cls-1" x1="216.38" y1="84.69" x2="215.41" y2="83.61"/><line class="cls-1" x1="215.41" y1="83.61" x2="214.33" y2="82.58"/><line class="cls-1" x1="214.33" y1="82.58" x2="213.3" y2="81.5"/><line class="cls-1" x1="213.3" y1="81.5" x2="212.33" y2="80.42"/><line class="cls-1" x1="212.33" y1="80.42" x2="211.2" y2="79.45"/><line class="cls-1" x1="211.2" y1="79.45" x2="210.12" y2="78.43"/><line class="cls-1" x1="210.12" y1="78.43" x2="209.04" y2="77.45"/><line class="cls-1" x1="209.04" y1="77.45" x2="207.85" y2="76.59"/><line class="cls-1" x1="207.85" y1="76.59" x2="206.77" y2="75.56"/><line class="cls-1" x1="206.77" y1="75.56" x2="205.58" y2="74.7"/><line class="cls-1" x1="205.58" y1="74.7" x2="204.45" y2="73.78"/><line class="cls-1" x1="204.45" y1="73.78" x2="203.26" y2="72.97"/><line class="cls-1" x1="203.26" y1="72.97" x2="202.07" y2="72.11"/><line class="cls-1" x1="202.07" y1="72.11" x2="200.83" y2="71.3"/><line class="cls-1" x1="200.83" y1="71.3" x2="199.64" y2="70.43"/><line class="cls-1" x1="199.64" y1="70.43" x2="198.45" y2="69.62"/><line class="cls-1" x1="198.45" y1="69.62" x2="197.16" y2="68.92"/><line class="cls-1" x1="197.16" y1="68.92" x2="195.97" y2="68.11"/><line class="cls-1" x1="195.97" y1="68.11" x2="194.67" y2="67.41"/><line class="cls-1" x1="194.67" y1="67.41" x2="193.38" y2="66.76"/><line class="cls-1" x1="193.38" y1="66.76" x2="192.13" y2="66.06"/><line class="cls-1" x1="192.13" y1="66.06" x2="190.84" y2="65.41"/><line class="cls-1" x1="190.84" y1="65.41" x2="189.54" y2="64.82"/><line class="cls-1" x1="189.54" y1="64.82" x2="188.25" y2="64.17"/><line class="cls-1" x1="188.25" y1="64.17" x2="186.95" y2="63.58"/><line class="cls-1" x1="186.95" y1="63.58" x2="185.55" y2="63.09"/><line class="cls-1" x1="185.55" y1="63.09" x2="184.25" y2="62.5"/><line class="cls-1" x1="184.25" y1="62.5" x2="182.95" y2="61.96"/><line class="cls-1" x1="182.95" y1="61.96" x2="181.55" y2="61.52"/><line class="cls-1" x1="181.55" y1="61.52" x2="180.25" y2="60.98"/><line class="cls-1" x1="180.25" y1="60.98" x2="178.85" y2="60.55"/><line class="cls-1" x1="178.85" y1="60.55" x2="177.45" y2="60.23"/><line class="cls-1" x1="177.45" y1="60.23" x2="176.1" y2="59.8"/><line class="cls-1" x1="176.1" y1="59.8" x2="174.69" y2="59.47"/><line class="cls-1" x1="174.69" y1="59.47" x2="173.29" y2="59.2"/><line class="cls-1" x1="173.29" y1="59.2" x2="171.94" y2="58.88"/><line class="cls-1" x1="171.94" y1="58.88" x2="170.53" y2="58.55"/><line class="cls-1" x1="170.53" y1="58.55" x2="169.13" y2="58.34"/><line class="cls-1" x1="169.13" y1="58.34" x2="167.73" y2="58.07"/><line class="cls-1" x1="167.73" y1="58.07" x2="166.32" y2="57.96"/><line class="cls-1" x1="166.32" y1="57.96" x2="164.92" y2="57.8"/><line class="cls-1" x1="164.92" y1="57.8" x2="163.51" y2="57.58"/><line class="cls-1" x1="163.51" y1="57.58" x2="162.11" y2="57.53"/><line class="cls-1" x1="162.11" y1="57.53" x2="160.71" y2="57.42"/><line class="cls-1" x1="160.71" y1="57.42" x2="159.3" y2="57.31"/><line class="cls-1" x1="159.3" y1="57.31" x2="157.9" y2="57.31"/><line class="cls-1" x1="157.9" y1="57.31" x2="156.49" y2="57.26"/><line class="cls-1" x1="156.49" y1="57.26" x2="155.09" y2="57.26"/><line class="cls-1" x1="155.09" y1="57.26" x2="153.69" y2="57.26"/><line class="cls-1" x1="153.69" y1="57.26" x2="152.34" y2="57.26"/><line class="cls-1" x1="152.34" y1="57.26" x2="150.93" y2="57.31"/><line class="cls-1" x1="150.93" y1="57.31" x2="149.53" y2="57.42"/><line class="cls-1" x1="149.53" y1="138.31" x2="149.53" y2="138.31"/><line class="cls-1" x1="149.53" y1="138.31" x2="149.53" y2="138.37"/><line class="cls-1" x1="149.53" y1="138.37" x2="149.53" y2="138.37"/><line class="cls-1" x1="149.53" y1="138.37" x2="149.47" y2="138.37"/><line class="cls-1" x1="149.47" y1="138.37" x2="149.47" y2="138.42"/><line class="cls-1" x1="149.47" y1="138.42" x2="149.42" y2="138.42"/><line class="cls-1" x1="149.42" y1="138.42" x2="149.31" y2="139.18"/><line class="cls-1" x1="149.31" y1="139.18" x2="149.04" y2="140.74"/><line class="cls-1" x1="149.04" y1="140.74" x2="148.66" y2="142.74"/><line class="cls-1" x1="148.66" y1="142.74" x2="148.18" y2="145.01"/><line class="cls-1" x1="148.18" y1="145.01" x2="147.53" y2="147.44"/><line class="cls-1" x1="147.53" y1="147.44" x2="146.83" y2="149.92"/><line class="cls-1" x1="146.83" y1="149.92" x2="146.02" y2="152.41"/><line class="cls-1" x1="146.02" y1="152.41" x2="145.1" y2="154.84"/><line class="cls-1" x1="145.1" y1="154.84" x2="144.18" y2="157.16"/><line class="cls-1" x1="144.18" y1="157.16" x2="143.16" y2="159.37"/><line class="cls-1" x1="143.16" y1="159.37" x2="142.08" y2="161.48"/><line class="cls-1" x1="142.08" y1="161.48" x2="140.94" y2="163.48"/><line class="cls-1" x1="140.94" y1="163.48" x2="139.75" y2="165.42"/><line class="cls-1" x1="139.75" y1="165.42" x2="138.51" y2="167.26"/><line class="cls-1" x1="138.51" y1="167.26" x2="137.22" y2="169.09"/><line class="cls-1" x1="137.22" y1="169.09" x2="135.92" y2="170.77"/><line class="cls-1" x1="135.92" y1="170.77" x2="134.52" y2="172.44"/><line class="cls-1" x1="134.52" y1="172.44" x2="133.11" y2="173.95"/><line class="cls-1" x1="133.11" y1="173.95" x2="131.6" y2="175.46"/><line class="cls-1" x1="131.6" y1="175.46" x2="130.14" y2="176.76"/><line class="cls-1" x1="130.14" y1="176.76" x2="128.63" y2="178"/><line class="cls-1" x1="128.63" y1="178" x2="127.12" y2="179.14"/><line class="cls-1" x1="127.12" y1="179.14" x2="125.61" y2="180.11"/><line class="cls-1" x1="125.61" y1="180.11" x2="124.15" y2="180.92"/><line class="cls-1" x1="124.15" y1="180.92" x2="122.69" y2="181.73"/><line class="cls-1" x1="122.69" y1="181.73" x2="121.23" y2="182.27"/><line class="cls-1" x1="121.23" y1="182.27" x2="119.77" y2="182.81"/><line class="cls-1" x1="119.77" y1="182.81" x2="118.37" y2="183.24"/><line class="cls-1" x1="118.37" y1="183.24" x2="116.97" y2="183.51"/><line class="cls-1" x1="116.97" y1="183.51" x2="115.51" y2="183.83"/><line class="cls-1" x1="115.51" y1="183.83" x2="114.16" y2="183.94"/><line class="cls-1" x1="114.16" y1="183.94" x2="112.75" y2="184.1"/><line class="cls-1" x1="112.75" y1="184.1" x2="111.4" y2="184.05"/><line class="cls-1" x1="111.4" y1="184.05" x2="110.11" y2="183.94"/><line class="cls-1" x1="110.11" y1="183.94" x2="108.92" y2="183.73"/><line class="cls-1" x1="108.92" y1="183.73" x2="107.84" y2="183.24"/><line class="cls-1" x1="107.84" y1="183.24" x2="106.81" y2="182.81"/><line class="cls-1" x1="106.81" y1="182.81" x2="105.73" y2="182.27"/><line class="cls-1" x1="105.73" y1="182.27" x2="104.65" y2="181.84"/><line class="cls-1" x1="104.65" y1="181.84" x2="103.63" y2="181.3"/><line class="cls-1" x1="103.63" y1="181.3" x2="102.55" y2="180.76"/><line class="cls-1" x1="102.55" y1="180.76" x2="101.47" y2="180.27"/><line class="cls-1" x1="101.47" y1="180.27" x2="100.44" y2="179.62"/><line class="cls-1" x1="100.44" y1="179.62" x2="99.36" y2="179.08"/><line class="cls-1" x1="99.36" y1="179.08" x2="98.34" y2="178.38"/><line class="cls-1" x1="98.34" y1="178.38" x2="97.31" y2="177.79"/><line class="cls-1" x1="97.31" y1="177.79" x2="96.28" y2="177.08"/><line class="cls-1" x1="96.28" y1="177.08" x2="95.26" y2="176.38"/><line class="cls-1" x1="95.26" y1="176.38" x2="94.23" y2="175.68"/><line class="cls-1" x1="94.23" y1="175.68" x2="93.26" y2="174.92"/><line class="cls-1" x1="93.26" y1="174.92" x2="92.18" y2="174.17"/><line class="cls-1" x1="92.18" y1="174.17" x2="91.26" y2="173.36"/><line class="cls-1" x1="91.26" y1="173.36" x2="90.29" y2="172.55"/><line class="cls-1" x1="90.29" y1="172.55" x2="89.26" y2="171.74"/><line class="cls-1" x1="89.26" y1="171.74" x2="88.35" y2="170.87"/><line class="cls-1" x1="88.35" y1="170.87" x2="87.37" y2="169.96"/><line class="cls-1" x1="87.37" y1="169.96" x2="86.51" y2="169.04"/><line class="cls-1" x1="86.51" y1="169.04" x2="85.65" y2="168.12"/><line class="cls-1" x1="85.65" y1="168.12" x2="84.67" y2="167.2"/><line class="cls-1" x1="84.67" y1="167.2" x2="83.86" y2="166.18"/><line class="cls-1" x1="83.86" y1="166.18" x2="82.95" y2="165.2"/><line class="cls-1" x1="82.95" y1="165.2" x2="82.14" y2="164.18"/><line class="cls-1" x1="82.14" y1="164.18" x2="81.38" y2="163.1"/><line class="cls-1" x1="81.38" y1="163.1" x2="80.52" y2="162.07"/><line class="cls-1" x1="80.52" y1="162.07" x2="79.81" y2="160.94"/><line class="cls-1" x1="79.81" y1="160.94" x2="79" y2="159.86"/><line class="cls-1" x1="79" y1="159.86" x2="78.36" y2="158.67"/><line class="cls-1" x1="78.36" y1="158.67" x2="77.55" y2="157.54"/><line class="cls-1" x1="77.55" y1="157.54" x2="76.9" y2="156.4"/><line class="cls-1" x1="76.9" y1="156.4" x2="76.3" y2="155.16"/><line class="cls-1" x1="76.3" y1="155.16" x2="75.6" y2="153.97"/><line class="cls-1" x1="75.6" y1="153.97" x2="75.12" y2="152.73"/><line class="cls-1" x1="75.12" y1="152.73" x2="74.47" y2="151.49"/><line class="cls-1" x1="74.47" y1="151.49" x2="73.87" y2="150.25"/><line class="cls-1" x1="73.87" y1="150.25" x2="73.44" y2="148.95"/><line class="cls-1" x1="73.44" y1="148.95" x2="72.9" y2="147.71"/><line class="cls-1" x1="72.9" y1="147.71" x2="72.52" y2="146.36"/><line class="cls-1" x1="72.52" y1="146.36" x2="72.04" y2="145.06"/><line class="cls-1" x1="72.04" y1="145.06" x2="71.66" y2="143.71"/><line class="cls-1" x1="71.66" y1="143.71" x2="71.23" y2="142.36"/><line class="cls-1" x1="71.23" y1="142.36" x2="70.96" y2="141.01"/><line class="cls-1" x1="70.96" y1="141.01" x2="70.63" y2="139.66"/><line class="cls-1" x1="70.63" y1="139.66" x2="70.36" y2="138.31"/><line class="cls-1" x1="70.36" y1="138.31" x2="70.09" y2="136.96"/><line class="cls-1" x1="70.09" y1="136.96" x2="69.82" y2="135.56"/><line class="cls-1" x1="69.82" y1="135.56" x2="69.66" y2="134.15"/><line class="cls-1" x1="69.66" y1="134.15" x2="69.61" y2="132.75"/><line class="cls-1" x1="69.61" y1="132.75" x2="69.39" y2="131.35"/><line class="cls-1" x1="69.39" y1="131.35" x2="69.34" y2="129.94"/><line class="cls-1" x1="69.34" y1="129.94" x2="69.34" y2="128.54"/><line class="cls-1" x1="69.34" y1="128.54" x2="69.34" y2="127.08"/><line class="cls-1" x1="69.34" y1="127.08" x2="69.45" y2="125.68"/><line class="cls-1" x1="69.45" y1="125.68" x2="69.5" y2="124.27"/><line class="cls-1" x1="69.5" y1="124.27" x2="69.66" y2="122.87"/><line class="cls-1" x1="69.66" y1="122.87" x2="69.93" y2="121.46"/><line class="cls-1" x1="69.93" y1="121.46" x2="70.09" y2="120.06"/><line class="cls-1" x1="70.09" y1="120.06" x2="70.42" y2="118.66"/><line class="cls-1" x1="70.42" y1="118.66" x2="70.74" y2="117.31"/><line class="cls-1" x1="70.74" y1="117.31" x2="71.12" y2="115.96"/><line class="cls-1" x1="71.12" y1="115.96" x2="71.39" y2="114.55"/><line class="cls-1" x1="71.39" y1="114.55" x2="71.88" y2="113.2"/><line class="cls-1" x1="71.88" y1="113.2" x2="72.25" y2="111.85"/><line class="cls-1" x1="72.25" y1="111.85" x2="72.74" y2="110.5"/><line class="cls-1" x1="72.74" y1="110.5" x2="73.12" y2="109.15"/><line class="cls-1" x1="73.12" y1="109.15" x2="73.71" y2="107.86"/><line class="cls-1" x1="73.71" y1="107.86" x2="74.2" y2="106.51"/><line class="cls-1" x1="74.2" y1="106.51" x2="74.85" y2="105.26"/><line class="cls-1" x1="74.85" y1="105.26" x2="75.39" y2="103.91"/><line class="cls-1" x1="75.39" y1="103.91" x2="75.98" y2="102.67"/><line class="cls-1" x1="75.98" y1="102.67" x2="76.74" y2="101.43"/><line class="cls-1" x1="76.74" y1="101.43" x2="77.38" y2="100.19"/><line class="cls-1" x1="77.38" y1="100.19" x2="78.09" y2="98.95"/><line class="cls-1" x1="78.09" y1="98.95" x2="78.79" y2="97.76"/><line class="cls-1" x1="78.79" y1="97.76" x2="79.6" y2="96.57"/><line class="cls-1" x1="79.6" y1="96.57" x2="80.3" y2="95.33"/><line class="cls-1" x1="80.3" y1="95.33" x2="81.16" y2="94.19"/><line class="cls-1" x1="81.16" y1="94.19" x2="81.92" y2="93.01"/><line class="cls-1" x1="81.92" y1="93.01" x2="82.84" y2="91.93"/><line class="cls-1" x1="82.84" y1="91.93" x2="83.65" y2="90.79"/><line class="cls-1" x1="83.65" y1="90.79" x2="84.51" y2="89.71"/><line class="cls-1" x1="84.51" y1="89.71" x2="85.38" y2="88.58"/><line class="cls-1" x1="85.38" y1="88.58" x2="86.29" y2="87.55"/><line class="cls-1" x1="86.29" y1="87.55" x2="87.27" y2="86.53"/><line class="cls-1" x1="87.27" y1="86.53" x2="88.18" y2="85.45"/><line class="cls-1" x1="88.18" y1="85.45" x2="89.21" y2="84.47"/><line class="cls-1" x1="89.21" y1="84.47" x2="90.18" y2="83.5"/><line class="cls-1" x1="90.18" y1="83.5" x2="91.15" y2="82.48"/><line class="cls-1" x1="91.15" y1="82.48" x2="92.23" y2="81.56"/><line class="cls-1" x1="92.23" y1="81.56" x2="93.21" y2="80.59"/><line class="cls-1" x1="93.21" y1="80.59" x2="94.23" y2="79.67"/><line class="cls-1" x1="94.23" y1="79.67" x2="95.31" y2="78.75"/><line class="cls-1" x1="95.31" y1="78.75" x2="96.39" y2="77.89"/><line class="cls-1" x1="96.39" y1="77.89" x2="97.47" y2="76.97"/><line class="cls-1" x1="97.47" y1="76.97" x2="98.5" y2="76.1"/><line class="cls-1" x1="98.5" y1="76.1" x2="99.63" y2="75.29"/><line class="cls-1" x1="99.63" y1="75.29" x2="100.77" y2="74.48"/><line class="cls-1" x1="100.77" y1="74.48" x2="101.85" y2="73.62"/><line class="cls-1" x1="101.85" y1="73.62" x2="103.03" y2="72.92"/><line class="cls-1" x1="103.03" y1="72.92" x2="104.17" y2="72.11"/><line class="cls-1" x1="104.17" y1="72.11" x2="105.36" y2="71.35"/><line class="cls-1" x1="105.36" y1="71.35" x2="106.49" y2="70.65"/><line class="cls-1" x1="106.49" y1="70.65" x2="107.62" y2="69.84"/><line class="cls-1" x1="107.62" y1="69.84" x2="108.87" y2="69.19"/><line class="cls-1" x1="108.87" y1="69.19" x2="110.05" y2="68.44"/><line class="cls-1" x1="110.05" y1="68.44" x2="111.24" y2="67.79"/><line class="cls-1" x1="111.24" y1="67.79" x2="112.43" y2="67.09"/><line class="cls-1" x1="112.43" y1="67.09" x2="113.67" y2="66.44"/><line class="cls-1" x1="113.67" y1="66.44" x2="114.91" y2="65.9"/><line class="cls-1" x1="114.91" y1="65.9" x2="116.16" y2="65.25"/><line class="cls-1" x1="116.16" y1="65.25" x2="117.4" y2="64.71"/><line class="cls-1" x1="117.4" y1="64.71" x2="118.64" y2="64.12"/><line class="cls-1" x1="118.64" y1="64.12" x2="119.94" y2="63.58"/><line class="cls-1" x1="119.94" y1="63.58" x2="121.23" y2="63.04"/><line class="cls-1" x1="121.23" y1="63.04" x2="122.53" y2="62.66"/><line class="cls-1" x1="122.53" y1="62.66" x2="123.82" y2="62.12"/><line class="cls-1" x1="123.82" y1="62.12" x2="125.12" y2="61.69"/><line class="cls-1" x1="125.12" y1="61.69" x2="126.47" y2="61.31"/><line class="cls-1" x1="126.47" y1="61.31" x2="127.77" y2="60.88"/><line class="cls-1" x1="127.77" y1="60.88" x2="129.06" y2="60.5"/><line class="cls-1" x1="129.06" y1="60.5" x2="130.41" y2="60.07"/><line class="cls-1" x1="130.41" y1="60.07" x2="131.76" y2="59.8"/><line class="cls-1" x1="131.76" y1="59.8" x2="133.11" y2="59.47"/><line class="cls-1" x1="133.11" y1="59.47" x2="134.46" y2="59.2"/><line class="cls-1" x1="134.46" y1="59.2" x2="135.81" y2="58.99"/><line class="cls-1" x1="135.81" y1="58.99" x2="137.16" y2="58.66"/><line class="cls-1" x1="137.16" y1="58.66" x2="138.57" y2="58.45"/><line class="cls-1" x1="138.57" y1="58.45" x2="139.92" y2="58.28"/><line class="cls-1" x1="139.92" y1="58.28" x2="141.27" y2="58.07"/><line class="cls-1" x1="141.27" y1="58.07" x2="142.67" y2="57.96"/><line class="cls-1" x1="142.67" y1="57.96" x2="144.02" y2="57.74"/><line class="cls-1" x1="144.02" y1="57.74" x2="145.42" y2="57.64"/><line class="cls-1" x1="145.42" y1="57.64" x2="146.83" y2="57.58"/><line class="cls-1" x1="146.83" y1="57.58" x2="148.18" y2="57.42"/><line class="cls-1" x1="148.18" y1="57.42" x2="149.53" y2="57.42"/><line class="cls-1" x1="149.53" y1="138.31" x2="149.53" y2="138.31"/><line class="cls-1" x1="149.53" y1="138.31" x2="149.58" y2="138.37"/><line class="cls-1" x1="149.58" y1="138.37" x2="149.58" y2="138.37"/><line class="cls-1" x1="149.58" y1="138.37" x2="149.64" y2="138.42"/><line class="cls-1" x1="149.64" y1="138.42" x2="149.64" y2="138.42"/><line class="cls-1" x1="149.64" y1="138.42" x2="149.69" y2="138.53"/><line class="cls-1" x1="149.91" y1="139.77" x2="149.96" y2="140.04"/><line class="cls-1" x1="150.18" y1="141.34" x2="150.23" y2="141.61"/><line class="cls-1" x1="150.45" y1="142.85" x2="150.5" y2="143.06"/><line class="cls-1" x1="150.82" y1="144.31" x2="150.88" y2="144.58"/><line class="cls-1" x1="151.15" y1="145.82" x2="151.2" y2="146.03"/><line class="cls-1" x1="151.53" y1="147.28" x2="151.58" y2="147.38"/><line class="cls-1" x1="151.58" y1="147.38" x2="151.63" y2="147.49"/><line class="cls-1" x1="151.96" y1="148.73" x2="152.01" y2="148.95"/><line class="cls-1" x1="152.39" y1="150.19" x2="152.44" y2="150.41"/><line class="cls-1" x1="152.82" y1="151.6" x2="152.88" y2="151.81"/><line class="cls-1" x1="153.31" y1="153" x2="153.36" y2="153.22"/><line class="cls-1" x1="153.79" y1="154.4" x2="153.9" y2="154.62"/><line class="cls-1" x1="154.33" y1="155.81" x2="154.39" y2="156.02"/><line class="cls-1" x1="154.87" y1="157.16" x2="154.93" y2="157.37"/><line class="cls-1" x1="155.41" y1="158.56" x2="155.52" y2="158.78"/><line class="cls-1" x1="156.01" y1="159.97" x2="156.12" y2="160.18"/><line class="cls-1" x1="156.66" y1="161.32" x2="156.76" y2="161.53"/><line class="cls-1" x1="157.3" y1="162.67" x2="157.41" y2="162.88"/><line class="cls-1" x1="158.01" y1="164.02" x2="158.11" y2="164.23"/><line class="cls-1" x1="158.71" y1="165.37" x2="158.82" y2="165.58"/><line class="cls-1" x1="159.46" y1="166.66" x2="159.57" y2="166.88"/><line class="cls-1" x1="160.22" y1="168.01" x2="160.22" y2="168.01"/><line class="cls-1" x1="160.22" y1="168.01" x2="160.38" y2="168.23"/><line class="cls-1" x1="161.03" y1="169.31" x2="161.19" y2="169.52"/><line class="cls-1" x1="161.89" y1="170.6" x2="162.06" y2="170.82"/><line class="cls-1" x1="162.81" y1="171.9" x2="162.97" y2="172.12"/><line class="cls-1" x1="163.73" y1="173.14" x2="163.89" y2="173.36"/><line class="cls-1" x1="164.65" y1="174.38" x2="164.7" y2="174.44"/><line class="cls-1" x1="164.7" y1="174.44" x2="164.81" y2="174.55"/><line class="cls-1" x1="165.62" y1="175.57" x2="165.78" y2="175.73"/><line class="cls-1" x1="166.65" y1="176.76" x2="166.81" y2="176.92"/><line class="cls-1" x1="167.73" y1="177.89" x2="167.78" y2="177.95"/><line class="cls-1" x1="167.78" y1="177.95" x2="167.89" y2="178.06"/><line class="cls-1" x1="168.86" y1="178.97" x2="169.02" y2="179.14"/><line class="cls-1" x1="169.99" y1="180.05" x2="170.16" y2="180.22"/><line class="cls-1" x1="171.13" y1="181.08" x2="171.34" y2="181.24"/><line class="cls-1" x1="172.37" y1="182.05" x2="172.59" y2="182.21"/><line class="cls-1" x1="173.67" y1="182.92" x2="173.88" y2="183.08"/><line class="cls-1" x1="174.96" y1="183.73" x2="175.18" y2="183.83"/><line class="cls-1" x1="176.31" y1="184.37" x2="176.53" y2="184.48"/><line class="cls-1" x1="177.72" y1="184.91" x2="177.93" y2="185.02"/><line class="cls-1" x1="179.17" y1="185.35" x2="179.39" y2="185.4"/><line class="cls-1" x1="180.63" y1="185.62" x2="180.9" y2="185.67"/><line class="cls-1" x1="182.2" y1="185.72" x2="182.47" y2="185.72"/><line class="cls-1" x1="183.82" y1="185.72" x2="184.09" y2="185.72"/><line class="cls-1" x1="185.44" y1="185.72" x2="185.71" y2="185.72"/><line class="cls-1" x1="187.06" y1="185.72" x2="187.33" y2="185.72"/><line class="cls-1" x1="188.68" y1="185.72" x2="188.95" y2="185.72"/><line class="cls-1" x1="190.24" y1="185.67" x2="190.46" y2="185.67"/><line class="cls-1" x1="190.46" y1="185.67" x2="190.51" y2="185.67"/><line class="cls-1" x1="191.76" y1="185.45" x2="191.76" y2="185.45"/><line class="cls-1" x1="191.76" y1="185.45" x2="191.97" y2="185.4"/><line class="cls-1" x1="193.21" y1="185.02" x2="193.43" y2="184.97"/><line class="cls-1" x1="194.62" y1="184.59" x2="194.83" y2="184.48"/><line class="cls-1" x1="196.02" y1="184.1" x2="196.24" y2="184.05"/><line class="cls-1" x1="197.43" y1="183.56" x2="197.64" y2="183.46"/><line class="cls-1" x1="198.83" y1="183.08" x2="198.99" y2="183.02"/><line class="cls-1" x1="198.99" y1="183.02" x2="199.05" y2="183.02"/><line class="cls-1" x1="200.18" y1="182.48" x2="200.4" y2="182.38"/><line class="cls-1" x1="201.53" y1="181.89" x2="201.75" y2="181.78"/><line class="cls-1" x1="202.88" y1="181.24" x2="203.1" y2="181.13"/><line class="cls-1" x1="204.23" y1="180.54" x2="204.45" y2="180.43"/><line class="cls-1" x1="205.58" y1="179.78" x2="205.8" y2="179.68"/><line class="cls-1" x1="206.88" y1="179.03" x2="207.09" y2="178.87"/><line class="cls-1" x1="208.17" y1="178.22" x2="208.33" y2="178.11"/><line class="cls-1" x1="208.33" y1="178.11" x2="208.39" y2="178.06"/><line class="cls-1" x1="209.47" y1="177.35" x2="209.47" y2="177.35"/><line class="cls-1" x1="209.47" y1="177.35" x2="209.68" y2="177.19"/><line class="cls-1" x1="210.71" y1="176.44" x2="210.93" y2="176.27"/><line class="cls-1" x1="211.95" y1="175.52" x2="212.11" y2="175.36"/><line class="cls-1" x1="213.14" y1="174.49" x2="213.3" y2="174.33"/><line class="cls-1" x1="214.33" y1="173.47" x2="214.54" y2="173.3"/><line class="cls-1" x1="215.52" y1="172.39" x2="215.68" y2="172.22"/><line class="cls-1" x1="216.6" y1="171.25" x2="216.7" y2="171.14"/><line class="cls-1" x1="216.7" y1="171.14" x2="216.76" y2="171.09"/><line class="cls-1" x1="217.73" y1="170.17" x2="217.73" y2="170.17"/><line class="cls-1" x1="217.73" y1="170.17" x2="217.89" y2="170.01"/><line class="cls-1" x1="218.76" y1="169.04" x2="218.92" y2="168.82"/><line class="cls-1" x1="219.73" y1="167.8" x2="219.89" y2="167.58"/><line class="cls-1" x1="220.75" y1="166.55" x2="220.92" y2="166.34"/><line class="cls-1" x1="221.73" y1="165.31" x2="221.89" y2="165.1"/><line class="cls-1" x1="222.64" y1="164.02" x2="222.81" y2="163.8"/><line class="cls-1" x1="223.51" y1="162.72" x2="223.62" y2="162.5"/><line class="cls-1" x1="224.37" y1="161.42" x2="224.48" y2="161.26"/><line class="cls-1" x1="224.48" y1="161.26" x2="224.53" y2="161.21"/><line class="cls-1" x1="225.13" y1="160.07" x2="225.18" y2="160.02"/><line class="cls-1" x1="225.18" y1="160.02" x2="225.29" y2="159.86"/><line class="cls-1" x1="225.88" y1="158.72" x2="225.99" y2="158.51"/><line class="cls-1" x1="226.59" y1="157.37" x2="226.69" y2="157.16"/><line class="cls-1" x1="227.29" y1="156.02" x2="227.4" y2="155.81"/><line class="cls-1" x1="227.88" y1="154.67" x2="227.99" y2="154.46"/><line class="cls-1" x1="228.48" y1="153.32" x2="228.58" y2="153.11"/><line class="cls-1" x1="229.07" y1="151.92" x2="229.12" y2="151.7"/><line class="cls-1" x1="229.61" y1="150.57" x2="229.66" y2="150.35"/><line class="cls-1" x1="230.04" y1="149.17" x2="230.15" y2="148.95"/><line class="cls-1" x1="230.53" y1="147.76" x2="230.58" y2="147.55"/><line class="cls-1" x1="230.96" y1="146.36" x2="231.01" y2="146.14"/><line class="cls-1" x1="231.34" y1="144.95" x2="231.39" y2="144.74"/><line class="cls-1" x1="231.66" y1="143.5" x2="231.72" y2="143.28"/><line class="cls-1" x1="231.99" y1="142.04" x2="232.04" y2="141.82"/><line class="cls-1" x1="232.26" y1="140.58" x2="232.31" y2="140.36"/><line class="cls-1" x1="232.47" y1="139.12" x2="232.53" y2="138.91"/><line class="cls-1" x1="232.69" y1="137.61" x2="232.69" y2="137.34"/><line class="cls-1" x1="232.85" y1="136.04" x2="232.85" y2="135.77"/><line class="cls-1" x1="232.96" y1="134.48" x2="233.01" y2="134.26"/><line class="cls-1" x1="233.07" y1="132.97" x2="233.07" y2="132.7"/><line class="cls-1" x1="233.12" y1="131.4" x2="233.12" y2="131.13"/><line class="cls-1" x1="233.12" y1="129.78" x2="233.12" y2="129.67"/><line class="cls-1" x1="233.12" y1="129.67" x2="233.12" y2="129.51"/><line class="cls-1" x1="233.12" y1="128.16" x2="233.12" y2="128.16"/><line class="cls-1" x1="233.12" y1="128.16" x2="233.12" y2="127.89"/><line class="cls-1" x1="233.01" y1="126.59" x2="232.96" y2="126.32"/><line class="cls-1" x1="232.9" y1="125.03" x2="232.85" y2="124.81"/><line class="cls-1" x1="232.74" y1="123.52" x2="232.74" y2="123.25"/><line class="cls-1" x1="232.58" y1="121.95" x2="232.53" y2="121.73"/><line class="cls-1" x1="232.31" y1="120.49" x2="232.26" y2="120.28"/><line class="cls-1" x1="232.04" y1="119.03" x2="231.99" y2="118.82"/><line class="cls-1" x1="231.82" y1="117.52" x2="231.77" y2="117.31"/><line class="cls-1" x1="231.5" y1="116.06" x2="231.45" y2="115.85"/><line class="cls-1" x1="231.07" y1="114.61" x2="231.01" y2="114.39"/><line class="cls-1" x1="230.69" y1="113.15" x2="230.58" y2="112.93"/><line class="cls-1" x1="230.26" y1="111.69" x2="230.15" y2="111.47"/><line class="cls-1" x1="229.77" y1="110.29" x2="229.66" y2="110.07"/><line class="cls-1" x1="229.23" y1="108.88" x2="229.18" y2="108.67"/><line class="cls-1" x1="228.75" y1="107.48" x2="228.64" y2="107.26"/><line class="cls-1" x1="228.21" y1="106.07" x2="228.1" y2="105.86"/><line class="cls-1" x1="227.56" y1="104.67" x2="227.45" y2="104.45"/><line class="cls-1" x1="226.96" y1="103.32" x2="226.86" y2="103.1"/><line class="cls-1" x1="226.26" y1="101.97" x2="226.15" y2="101.75"/><line class="cls-1" x1="225.56" y1="100.62" x2="225.45" y2="100.4"/><line class="cls-1" x1="224.86" y1="99.27" x2="224.7" y2="99.05"/><line class="cls-1" x1="224.1" y1="97.92" x2="223.99" y2="97.7"/><line class="cls-1" x1="223.29" y1="96.62" x2="223.13" y2="96.41"/><line class="cls-1" x1="222.48" y1="95.33" x2="222.37" y2="95.11"/><line class="cls-1" x1="221.62" y1="94.09" x2="221.46" y2="93.87"/><line class="cls-1" x1="220.75" y1="92.79" x2="220.65" y2="92.57"/><line class="cls-1" x1="219.84" y1="91.55" x2="219.73" y2="91.39"/><line class="cls-1" x1="219.73" y1="91.39" x2="219.67" y2="91.33"/><line class="cls-1" x1="218.92" y1="90.31" x2="218.86" y2="90.2"/><line class="cls-1" x1="218.86" y1="90.2" x2="218.76" y2="90.09"/><line class="cls-1" x1="217.89" y1="89.12" x2="217.89" y2="89.12"/><line class="cls-1" x1="217.89" y1="89.12" x2="217.73" y2="88.9"/><line class="cls-1" x1="216.97" y1="87.88" x2="216.81" y2="87.71"/><line class="cls-1" x1="215.95" y1="86.74" x2="215.79" y2="86.53"/><line class="cls-1" x1="214.92" y1="85.55" x2="214.76" y2="85.39"/><line class="cls-1" x1="213.84" y1="84.47" x2="213.68" y2="84.26"/><line class="cls-1" x1="212.76" y1="83.29" x2="212.6" y2="83.12"/><line class="cls-1" x1="211.63" y1="82.21" x2="211.47" y2="82.04"/><line class="cls-1" x1="210.49" y1="81.13" x2="210.33" y2="80.96"/><line class="cls-1" x1="209.36" y1="80.1" x2="209.2" y2="79.94"/><line class="cls-1" x1="208.23" y1="79.07" x2="208.06" y2="78.91"/><line class="cls-1" x1="207.04" y1="78.1" x2="206.88" y2="77.94"/><line class="cls-1" x1="205.85" y1="77.08" x2="205.63" y2="76.91"/><line class="cls-1" x1="204.66" y1="76.1" x2="204.5" y2="75.94"/><line class="cls-1" x1="203.42" y1="75.19" x2="203.31" y2="75.13"/><line class="cls-1" x1="203.31" y1="75.13" x2="203.2" y2="75.02"/><line class="cls-1" x1="202.18" y1="74.21" x2="202.18" y2="74.21"/><line class="cls-1" x1="202.18" y1="74.21" x2="201.96" y2="74.05"/><line class="cls-1" x1="200.88" y1="73.35" x2="200.67" y2="73.19"/><line class="cls-1" x1="199.59" y1="72.43" x2="199.37" y2="72.32"/><line class="cls-1" x1="198.34" y1="71.57" x2="198.13" y2="71.46"/><line class="cls-1" x1="197.1" y1="70.76" x2="196.89" y2="70.65"/><line class="cls-1" x1="195.81" y1="70" x2="195.59" y2="69.89"/><line class="cls-1" x1="194.51" y1="69.19" x2="194.29" y2="69.08"/><line class="cls-1" x1="193.16" y1="68.44" x2="192.94" y2="68.33"/><line class="cls-1" x1="191.81" y1="67.68" x2="191.59" y2="67.57"/><line class="cls-1" x1="190.46" y1="67.03" x2="190.24" y2="66.92"/><line class="cls-1" x1="189.11" y1="66.28" x2="188.89" y2="66.17"/><line class="cls-1" x1="187.76" y1="65.63" x2="187.54" y2="65.52"/><line class="cls-1" x1="186.41" y1="64.98" x2="186.25" y2="64.93"/><line class="cls-1" x1="186.25" y1="64.93" x2="186.19" y2="64.93"/><line class="cls-1" x1="185.06" y1="64.39" x2="184.95" y2="64.33"/><line class="cls-1" x1="184.95" y1="64.33" x2="184.84" y2="64.28"/><line class="cls-1" x1="183.66" y1="63.79" x2="183.66" y2="63.79"/><line class="cls-1" x1="183.66" y1="63.79" x2="183.44" y2="63.68"/><line class="cls-1" x1="182.31" y1="63.2" x2="182.09" y2="63.09"/><line class="cls-1" x1="180.9" y1="62.66" x2="180.69" y2="62.6"/><line class="cls-1" x1="179.5" y1="62.23" x2="179.28" y2="62.12"/><line class="cls-1" x1="178.09" y1="61.69" x2="177.88" y2="61.63"/><line class="cls-1" x1="176.69" y1="61.25" x2="176.47" y2="61.15"/><line class="cls-1" x1="175.23" y1="60.82" x2="175.02" y2="60.77"/><line class="cls-1" x1="173.77" y1="60.5" x2="173.56" y2="60.44"/><line class="cls-1" x1="172.32" y1="60.12" x2="172.1" y2="60.07"/><line class="cls-1" x1="170.86" y1="59.74" x2="170.64" y2="59.69"/><line class="cls-1" x1="169.4" y1="59.42" x2="169.18" y2="59.36"/><line class="cls-1" x1="167.94" y1="59.09" x2="167.73" y2="59.04"/><line class="cls-1" x1="166.48" y1="58.77" x2="166.27" y2="58.72"/><line class="cls-1" x1="164.97" y1="58.55" x2="164.76" y2="58.5"/><line class="cls-1" x1="163.51" y1="58.28" x2="163.41" y2="58.28"/><line class="cls-1" x1="163.41" y1="58.28" x2="163.24" y2="58.28"/><line class="cls-1" x1="161.95" y1="58.12" x2="161.73" y2="58.07"/><line class="cls-1" x1="160.44" y1="57.96" x2="160.22" y2="57.91"/><line class="cls-1" x1="158.92" y1="57.85" x2="158.71" y2="57.8"/><line class="cls-1" x1="157.41" y1="57.69" x2="157.14" y2="57.64"/><line class="cls-1" x1="155.85" y1="57.58" x2="155.58" y2="57.58"/><line class="cls-1" x1="154.28" y1="57.53" x2="154.01" y2="57.53"/><line class="cls-1" x1="152.71" y1="57.47" x2="152.44" y2="57.47"/><line class="cls-1" x1="151.09" y1="57.47" x2="150.93" y2="57.47"/><line class="cls-1" x1="150.93" y1="57.47" x2="150.82" y2="57.47"/><line class="cls-1" x1="149.53" y1="57.42" x2="149.53" y2="57.42"/><line class="cls-1" x1="149.53" y1="138.31" x2="149.53" y2="138.31"/><line class="cls-1" x1="149.53" y1="138.31" x2="149.53" y2="138.37"/><line class="cls-1" x1="149.53" y1="138.37" x2="149.53" y2="138.37"/><line class="cls-1" x1="149.53" y1="138.37" x2="149.47" y2="138.42"/><line class="cls-1" x1="149.47" y1="138.42" x2="149.47" y2="138.42"/><line class="cls-1" x1="149.47" y1="138.42" x2="149.42" y2="138.53"/><line class="cls-1" x1="149.2" y1="139.77" x2="149.15" y2="140.04"/><line class="cls-1" x1="148.93" y1="141.34" x2="148.88" y2="141.61"/><line class="cls-1" x1="148.66" y1="142.85" x2="148.61" y2="143.06"/><line class="cls-1" x1="148.29" y1="144.31" x2="148.23" y2="144.58"/><line class="cls-1" x1="147.96" y1="145.82" x2="147.91" y2="146.03"/><line class="cls-1" x1="147.58" y1="147.28" x2="147.53" y2="147.38"/><line class="cls-1" x1="147.53" y1="147.38" x2="147.48" y2="147.49"/><line class="cls-1" x1="147.15" y1="148.73" x2="147.1" y2="148.95"/><line class="cls-1" x1="146.72" y1="150.19" x2="146.67" y2="150.41"/><line class="cls-1" x1="146.29" y1="151.6" x2="146.23" y2="151.81"/><line class="cls-1" x1="145.8" y1="153" x2="145.75" y2="153.22"/><line class="cls-1" x1="145.32" y1="154.4" x2="145.21" y2="154.62"/><line class="cls-1" x1="144.78" y1="155.81" x2="144.72" y2="156.02"/><line class="cls-1" x1="144.24" y1="157.16" x2="144.18" y2="157.37"/><line class="cls-1" x1="143.7" y1="158.56" x2="143.59" y2="158.78"/><line class="cls-1" x1="143.1" y1="159.97" x2="142.99" y2="160.18"/><line class="cls-1" x1="142.45" y1="161.32" x2="142.35" y2="161.53"/><line class="cls-1" x1="141.81" y1="162.67" x2="141.7" y2="162.88"/><line class="cls-1" x1="141.1" y1="164.02" x2="141" y2="164.23"/><line class="cls-1" x1="140.4" y1="165.37" x2="140.29" y2="165.58"/><line class="cls-1" x1="139.65" y1="166.66" x2="139.54" y2="166.88"/><line class="cls-1" x1="138.89" y1="168.01" x2="138.89" y2="168.01"/><line class="cls-1" x1="138.89" y1="168.01" x2="138.73" y2="168.23"/><line class="cls-1" x1="138.08" y1="169.31" x2="137.92" y2="169.52"/><line class="cls-1" x1="137.22" y1="170.6" x2="137.05" y2="170.82"/><line class="cls-1" x1="136.3" y1="171.9" x2="136.14" y2="172.12"/><line class="cls-1" x1="135.38" y1="173.14" x2="135.22" y2="173.36"/><line class="cls-1" x1="134.46" y1="174.38" x2="134.41" y2="174.44"/><line class="cls-1" x1="134.41" y1="174.44" x2="134.3" y2="174.55"/><line class="cls-1" x1="133.49" y1="175.57" x2="133.33" y2="175.73"/><line class="cls-1" x1="132.46" y1="176.76" x2="132.3" y2="176.92"/><line class="cls-1" x1="131.38" y1="177.89" x2="131.33" y2="177.95"/><line class="cls-1" x1="131.33" y1="177.95" x2="131.22" y2="178.06"/><line class="cls-1" x1="130.25" y1="178.97" x2="130.09" y2="179.14"/><line class="cls-1" x1="129.12" y1="180.05" x2="128.95" y2="180.22"/><line class="cls-1" x1="127.98" y1="181.08" x2="127.77" y2="181.24"/><line class="cls-1" x1="126.74" y1="182.05" x2="126.52" y2="182.21"/><line class="cls-1" x1="125.44" y1="182.92" x2="125.23" y2="183.08"/><line class="cls-1" x1="124.15" y1="183.73" x2="123.93" y2="183.83"/><line class="cls-1" x1="122.8" y1="184.37" x2="122.58" y2="184.48"/><line class="cls-1" x1="121.39" y1="184.91" x2="121.18" y2="185.02"/><line class="cls-1" x1="119.94" y1="185.35" x2="119.72" y2="185.4"/><line class="cls-1" x1="118.48" y1="185.62" x2="118.21" y2="185.67"/><line class="cls-1" x1="116.91" y1="185.72" x2="116.64" y2="185.72"/><line class="cls-1" x1="115.29" y1="185.72" x2="115.02" y2="185.72"/><line class="cls-1" x1="113.67" y1="185.72" x2="113.4" y2="185.72"/><line class="cls-1" x1="112.05" y1="185.72" x2="111.78" y2="185.72"/><line class="cls-1" x1="110.43" y1="185.72" x2="110.16" y2="185.72"/><line class="cls-1" x1="108.87" y1="185.67" x2="108.65" y2="185.67"/><line class="cls-1" x1="108.65" y1="185.67" x2="108.6" y2="185.67"/><line class="cls-1" x1="107.35" y1="185.45" x2="107.35" y2="185.45"/><line class="cls-1" x1="107.35" y1="185.45" x2="107.14" y2="185.4"/><line class="cls-1" x1="105.9" y1="185.02" x2="105.68" y2="184.97"/><line class="cls-1" x1="104.49" y1="184.59" x2="104.28" y2="184.48"/><line class="cls-1" x1="103.09" y1="184.1" x2="102.87" y2="184.05"/><line class="cls-1" x1="101.68" y1="183.56" x2="101.47" y2="183.46"/><line class="cls-1" x1="100.28" y1="183.08" x2="100.12" y2="183.02"/><line class="cls-1" x1="100.12" y1="183.02" x2="100.06" y2="183.02"/><line class="cls-1" x1="98.93" y1="182.48" x2="98.71" y2="182.38"/><line class="cls-1" x1="97.58" y1="181.89" x2="97.36" y2="181.78"/><line class="cls-1" x1="96.23" y1="181.24" x2="96.01" y2="181.13"/><line class="cls-1" x1="94.88" y1="180.54" x2="94.66" y2="180.43"/><line class="cls-1" x1="93.53" y1="179.78" x2="93.31" y2="179.68"/><line class="cls-1" x1="92.23" y1="179.03" x2="92.02" y2="178.87"/><line class="cls-1" x1="90.94" y1="178.22" x2="90.78" y2="178.11"/><line class="cls-1" x1="90.78" y1="178.11" x2="90.72" y2="178.06"/><line class="cls-1" x1="89.64" y1="177.35" x2="89.64" y2="177.35"/><line class="cls-1" x1="89.64" y1="177.35" x2="89.43" y2="177.19"/><line class="cls-1" x1="88.4" y1="176.44" x2="88.18" y2="176.27"/><line class="cls-1" x1="87.16" y1="175.52" x2="87" y2="175.36"/><line class="cls-1" x1="85.97" y1="174.49" x2="85.81" y2="174.33"/><line class="cls-1" x1="84.78" y1="173.47" x2="84.57" y2="173.3"/><line class="cls-1" x1="83.59" y1="172.39" x2="83.43" y2="172.22"/><line class="cls-1" x1="82.51" y1="171.25" x2="82.41" y2="171.14"/><line class="cls-1" x1="82.41" y1="171.14" x2="82.35" y2="171.09"/><line class="cls-1" x1="81.38" y1="170.17" x2="81.38" y2="170.17"/><line class="cls-1" x1="81.38" y1="170.17" x2="81.22" y2="170.01"/><line class="cls-1" x1="80.35" y1="169.04" x2="80.19" y2="168.82"/><line class="cls-1" x1="79.38" y1="167.8" x2="79.22" y2="167.58"/><line class="cls-1" x1="78.36" y1="166.55" x2="78.19" y2="166.34"/><line class="cls-1" x1="77.38" y1="165.31" x2="77.22" y2="165.1"/><line class="cls-1" x1="76.47" y1="164.02" x2="76.3" y2="163.8"/><line class="cls-1" x1="75.6" y1="162.72" x2="75.49" y2="162.5"/><line class="cls-1" x1="74.74" y1="161.42" x2="74.63" y2="161.26"/><line class="cls-1" x1="74.63" y1="161.26" x2="74.58" y2="161.21"/><line class="cls-1" x1="73.98" y1="160.07" x2="73.93" y2="160.02"/><line class="cls-1" x1="73.93" y1="160.02" x2="73.82" y2="159.86"/><line class="cls-1" x1="73.23" y1="158.72" x2="73.12" y2="158.51"/><line class="cls-1" x1="72.52" y1="157.37" x2="72.42" y2="157.16"/><line class="cls-1" x1="71.82" y1="156.02" x2="71.71" y2="155.81"/><line class="cls-1" x1="71.23" y1="154.67" x2="71.12" y2="154.46"/><line class="cls-1" x1="70.63" y1="153.32" x2="70.53" y2="153.11"/><line class="cls-1" x1="70.04" y1="151.92" x2="69.99" y2="151.7"/><line class="cls-1" x1="69.5" y1="150.57" x2="69.45" y2="150.35"/><line class="cls-1" x1="69.07" y1="149.17" x2="68.96" y2="148.95"/><line class="cls-1" x1="68.58" y1="147.76" x2="68.53" y2="147.55"/><line class="cls-1" x1="68.15" y1="146.36" x2="68.1" y2="146.14"/><line class="cls-1" x1="67.77" y1="144.95" x2="67.72" y2="144.74"/><line class="cls-1" x1="67.45" y1="143.5" x2="67.39" y2="143.28"/><line class="cls-1" x1="67.12" y1="142.04" x2="67.07" y2="141.82"/><line class="cls-1" x1="66.85" y1="140.58" x2="66.8" y2="140.36"/><line class="cls-1" x1="66.64" y1="139.12" x2="66.58" y2="138.91"/><line class="cls-1" x1="66.42" y1="137.61" x2="66.42" y2="137.34"/><line class="cls-1" x1="66.26" y1="136.04" x2="66.26" y2="135.77"/><line class="cls-1" x1="66.15" y1="134.48" x2="66.1" y2="134.26"/><line class="cls-1" x1="66.04" y1="132.97" x2="66.04" y2="132.7"/><line class="cls-1" x1="65.99" y1="131.4" x2="65.99" y2="131.13"/><line class="cls-1" x1="65.99" y1="129.78" x2="65.99" y2="129.67"/><line class="cls-1" x1="65.99" y1="129.67" x2="65.99" y2="129.51"/><line class="cls-1" x1="65.99" y1="128.16" x2="65.99" y2="128.16"/><line class="cls-1" x1="65.99" y1="128.16" x2="65.99" y2="127.89"/><line class="cls-1" x1="66.1" y1="126.59" x2="66.15" y2="126.32"/><line class="cls-1" x1="66.21" y1="125.03" x2="66.26" y2="124.81"/><line class="cls-1" x1="66.37" y1="123.52" x2="66.37" y2="123.25"/><line class="cls-1" x1="66.53" y1="121.95" x2="66.58" y2="121.73"/><line class="cls-1" x1="66.8" y1="120.49" x2="66.85" y2="120.28"/><line class="cls-1" x1="67.07" y1="119.03" x2="67.12" y2="118.82"/><line class="cls-1" x1="67.29" y1="117.52" x2="67.34" y2="117.31"/><line class="cls-1" x1="67.61" y1="116.06" x2="67.66" y2="115.85"/><line class="cls-1" x1="68.04" y1="114.61" x2="68.1" y2="114.39"/><line class="cls-1" x1="68.42" y1="113.15" x2="68.53" y2="112.93"/><line class="cls-1" x1="68.85" y1="111.69" x2="68.96" y2="111.47"/><line class="cls-1" x1="69.34" y1="110.29" x2="69.45" y2="110.07"/><line class="cls-1" x1="69.88" y1="108.88" x2="69.93" y2="108.67"/><line class="cls-1" x1="70.36" y1="107.48" x2="70.47" y2="107.26"/><line class="cls-1" x1="70.9" y1="106.07" x2="71.01" y2="105.86"/><line class="cls-1" x1="71.55" y1="104.67" x2="71.66" y2="104.45"/><line class="cls-1" x1="72.15" y1="103.32" x2="72.25" y2="103.1"/><line class="cls-1" x1="72.85" y1="101.97" x2="72.96" y2="101.75"/><line class="cls-1" x1="73.55" y1="100.62" x2="73.66" y2="100.4"/><line class="cls-1" x1="74.25" y1="99.27" x2="74.41" y2="99.05"/><line class="cls-1" x1="75.01" y1="97.92" x2="75.12" y2="97.7"/><line class="cls-1" x1="75.82" y1="96.62" x2="75.98" y2="96.41"/><line class="cls-1" x1="76.63" y1="95.33" x2="76.74" y2="95.11"/><line class="cls-1" x1="77.49" y1="94.09" x2="77.65" y2="93.87"/><line class="cls-1" x1="78.36" y1="92.79" x2="78.46" y2="92.57"/><line class="cls-1" x1="79.27" y1="91.55" x2="79.38" y2="91.39"/><line class="cls-1" x1="79.38" y1="91.39" x2="79.44" y2="91.33"/><line class="cls-1" x1="80.19" y1="90.31" x2="80.25" y2="90.2"/><line class="cls-1" x1="80.25" y1="90.2" x2="80.35" y2="90.09"/><line class="cls-1" x1="81.22" y1="89.12" x2="81.22" y2="89.12"/><line class="cls-1" x1="81.22" y1="89.12" x2="81.38" y2="88.9"/><line class="cls-1" x1="82.14" y1="87.88" x2="82.3" y2="87.71"/><line class="cls-1" x1="83.16" y1="86.74" x2="83.32" y2="86.53"/><line class="cls-1" x1="84.19" y1="85.55" x2="84.35" y2="85.39"/><line class="cls-1" x1="85.27" y1="84.47" x2="85.43" y2="84.26"/><line class="cls-1" x1="86.35" y1="83.29" x2="86.51" y2="83.12"/><line class="cls-1" x1="87.48" y1="82.21" x2="87.64" y2="82.04"/><line class="cls-1" x1="88.62" y1="81.13" x2="88.78" y2="80.96"/><line class="cls-1" x1="89.75" y1="80.1" x2="89.91" y2="79.94"/><line class="cls-1" x1="90.88" y1="79.07" x2="91.05" y2="78.91"/><line class="cls-1" x1="92.07" y1="78.1" x2="92.23" y2="77.94"/><line class="cls-1" x1="93.26" y1="77.08" x2="93.48" y2="76.91"/><line class="cls-1" x1="94.45" y1="76.1" x2="94.61" y2="75.94"/><line class="cls-1" x1="95.69" y1="75.19" x2="95.8" y2="75.13"/><line class="cls-1" x1="95.8" y1="75.13" x2="95.91" y2="75.02"/><line class="cls-1" x1="96.93" y1="74.21" x2="96.93" y2="74.21"/><line class="cls-1" x1="96.93" y1="74.21" x2="97.15" y2="74.05"/><line class="cls-1" x1="98.23" y1="73.35" x2="98.44" y2="73.19"/><line class="cls-1" x1="99.52" y1="72.43" x2="99.74" y2="72.32"/><line class="cls-1" x1="100.77" y1="71.57" x2="100.98" y2="71.46"/><line class="cls-1" x1="102.01" y1="70.76" x2="102.22" y2="70.65"/><line class="cls-1" x1="103.3" y1="70" x2="103.52" y2="69.89"/><line class="cls-1" x1="104.6" y1="69.19" x2="104.82" y2="69.08"/><line class="cls-1" x1="105.95" y1="68.44" x2="106.17" y2="68.33"/><line class="cls-1" x1="107.3" y1="67.68" x2="107.52" y2="67.57"/><line class="cls-1" x1="108.65" y1="67.03" x2="108.87" y2="66.92"/><line class="cls-1" x1="110" y1="66.28" x2="110.22" y2="66.17"/><line class="cls-1" x1="111.35" y1="65.63" x2="111.57" y2="65.52"/><line class="cls-1" x1="112.7" y1="64.98" x2="112.86" y2="64.93"/><line class="cls-1" x1="112.86" y1="64.93" x2="112.92" y2="64.93"/><line class="cls-1" x1="114.05" y1="64.39" x2="114.16" y2="64.33"/><line class="cls-1" x1="114.16" y1="64.33" x2="114.27" y2="64.28"/><line class="cls-1" x1="115.45" y1="63.79" x2="115.45" y2="63.79"/><line class="cls-1" x1="115.45" y1="63.79" x2="115.67" y2="63.68"/><line class="cls-1" x1="116.8" y1="63.2" x2="117.02" y2="63.09"/><line class="cls-1" x1="118.21" y1="62.66" x2="118.42" y2="62.6"/><line class="cls-1" x1="119.61" y1="62.23" x2="119.83" y2="62.12"/><line class="cls-1" x1="121.02" y1="61.69" x2="121.23" y2="61.63"/><line class="cls-1" x1="122.42" y1="61.25" x2="122.64" y2="61.15"/><line class="cls-1" x1="123.88" y1="60.82" x2="124.09" y2="60.77"/><line class="cls-1" x1="125.34" y1="60.5" x2="125.55" y2="60.44"/><line class="cls-1" x1="126.79" y1="60.12" x2="127.01" y2="60.07"/><line class="cls-1" x1="128.25" y1="59.74" x2="128.47" y2="59.69"/><line class="cls-1" x1="129.71" y1="59.42" x2="129.93" y2="59.36"/><line class="cls-1" x1="131.17" y1="59.09" x2="131.38" y2="59.04"/><line class="cls-1" x1="132.63" y1="58.77" x2="132.84" y2="58.72"/><line class="cls-1" x1="134.14" y1="58.55" x2="134.35" y2="58.5"/><line class="cls-1" x1="135.6" y1="58.28" x2="135.7" y2="58.28"/><line class="cls-1" x1="135.7" y1="58.28" x2="135.87" y2="58.28"/><line class="cls-1" x1="137.16" y1="58.12" x2="137.38" y2="58.07"/><line class="cls-1" x1="138.67" y1="57.96" x2="138.89" y2="57.91"/><line class="cls-1" x1="140.19" y1="57.85" x2="140.4" y2="57.8"/><line class="cls-1" x1="141.7" y1="57.69" x2="141.97" y2="57.64"/><line class="cls-1" x1="143.26" y1="57.58" x2="143.53" y2="57.58"/><line class="cls-1" x1="144.83" y1="57.53" x2="145.1" y2="57.53"/><line class="cls-1" x1="146.4" y1="57.47" x2="146.67" y2="57.47"/><line class="cls-1" x1="148.02" y1="57.47" x2="148.18" y2="57.47"/><line class="cls-1" x1="148.18" y1="57.47" x2="148.29" y2="57.47"/></g></g></svg>