<svg id="IC_S1" data-name="IC S1" xmlns="http://www.w3.org/2000/svg" xmlns:xlink="http://www.w3.org/1999/xlink" viewBox="0 0 300 263"><defs><style>.cls-1,.cls-3,.cls-5{fill:none;}.cls-2{isolation:isolate;}.cls-3{stroke:#000;}.cls-3,.cls-5{stroke-width:0.5px;}.cls-4{clip-path:url(#clip-path);}.cls-5{stroke:#1d1d1b;stroke-linecap:round;stroke-linejoin:round;}</style><clipPath id="clip-path"><rect id="SVGID" class="cls-1" x="134.27" y="46.68" width="35.09" height="143.96"/></clipPath></defs><title>ic-suspension-1-anastassiades-flos-F3175059-spech-tech-02-300x263</title><g class="cls-2"><path d="M131.89,157.69v7.2h-1.32l-4.6-4.51-.54-.51a4.71,4.71,0,0,0-.61-.47,2.78,2.78,0,0,0-.67-.33,2,2,0,0,0-.74-.13,2.05,2.05,0,0,0-.83.17,1.79,1.79,0,0,0-.62.47,2.18,2.18,0,0,0-.39.7,2.66,2.66,0,0,0-.14.85,2.28,2.28,0,0,0,.48,1.47,2.17,2.17,0,0,0,1.3.79l-.13,1.21a3.16,3.16,0,0,1-2-1.16,3.48,3.48,0,0,1-.71-2.23,4.59,4.59,0,0,1,.18-1.3,3.29,3.29,0,0,1,.55-1.09,2.58,2.58,0,0,1,.92-.75,2.79,2.79,0,0,1,1.29-.28,3.29,3.29,0,0,1,1.2.2,4.46,4.46,0,0,1,1,.52,5.71,5.71,0,0,1,.91.73c.29.27.58.55.85.84l3.54,3.56v-5.95Z"/><path d="M128.15,150.11v-1.64h1.06v1.64h2.68v1.15h-2.68v4.9h-1.32l-7.32-4.58v-1.47Zm-6.43,1.15v0l6.43,3.91v-3.94Z"/><path d="M120.38,143.42a3.24,3.24,0,0,1,.55-2,3.89,3.89,0,0,1,1.43-1.17,6.7,6.7,0,0,1,1.89-.56,14.07,14.07,0,0,1,4,0,6.7,6.7,0,0,1,1.89.56,3.89,3.89,0,0,1,1.43,1.17,3.75,3.75,0,0,1,0,3.94,3.77,3.77,0,0,1-1.43,1.16,6.4,6.4,0,0,1-1.89.57,14.07,14.07,0,0,1-4,0,6.4,6.4,0,0,1-1.89-.57,3.77,3.77,0,0,1-1.43-1.16A3.24,3.24,0,0,1,120.38,143.42Zm1.05,0a2.05,2.05,0,0,0,.5,1.46,3.08,3.08,0,0,0,1.23.81,6.09,6.09,0,0,0,1.57.35c.55,0,1,.07,1.5.07s1,0,1.5-.07a6.09,6.09,0,0,0,1.57-.35,3.08,3.08,0,0,0,1.23-.81,2.38,2.38,0,0,0,0-2.92,3.08,3.08,0,0,0-1.23-.81,6.09,6.09,0,0,0-1.57-.35c-.55,0-1-.07-1.5-.07s-1,0-1.5.07a6.09,6.09,0,0,0-1.57.35,3.08,3.08,0,0,0-1.23.81A2.05,2.05,0,0,0,121.43,143.42Z"/><path d="M126.07,133.37c-.28,0-.55,0-.83,0l-.83,0v-1.13h1.13v0a2.47,2.47,0,0,1-1-1.06,3.07,3.07,0,0,1-.34-1.35,3.9,3.9,0,0,1,.07-.65,2.25,2.25,0,0,1,.23-.66,2,2,0,0,1,.47-.6,2.64,2.64,0,0,1,.79-.48,2.48,2.48,0,0,1-1.14-1,3.07,3.07,0,0,1,.34-3.58,3.12,3.12,0,0,1,2.17-.69h4.75v1.06h-4.36a3.17,3.17,0,0,0-1.75.4,1.67,1.67,0,0,0-.61,1.49,1.87,1.87,0,0,0,.85,1.64,3.07,3.07,0,0,0,.87.36,4.9,4.9,0,0,0,1,.11h4v1.06h-4.36a3.17,3.17,0,0,0-1.75.4,1.65,1.65,0,0,0-.61,1.48,4.26,4.26,0,0,0,.07.44,1.71,1.71,0,0,0,.35.72,2.67,2.67,0,0,0,.86.66,3.53,3.53,0,0,0,1.6.3h3.84v1.05Z"/><path d="M126.07,119.74l-.83,0-.83.06v-1.14h1.13v0a2.47,2.47,0,0,1-1-1.06,3.13,3.13,0,0,1-.34-1.35,3.79,3.79,0,0,1,.07-.65,2.42,2.42,0,0,1,.23-.67,2.34,2.34,0,0,1,.47-.6,2.85,2.85,0,0,1,.79-.47,2.48,2.48,0,0,1-1.14-1,3.07,3.07,0,0,1,.34-3.58,3.12,3.12,0,0,1,2.17-.69h4.75v1.06h-4.36a3.17,3.17,0,0,0-1.75.4,1.65,1.65,0,0,0-.61,1.49,1.91,1.91,0,0,0,.24,1,2,2,0,0,0,.61.65,3.07,3.07,0,0,0,.87.36,4.9,4.9,0,0,0,1,.11h4v1.05h-4.36a3.26,3.26,0,0,0-1.75.4,1.68,1.68,0,0,0-.61,1.49,4.26,4.26,0,0,0,.07.44,1.62,1.62,0,0,0,.35.71,2.55,2.55,0,0,0,.86.67,3.69,3.69,0,0,0,1.6.29h3.84v1.06Z"/></g><g class="cls-2"><path d="M121.18,214.65a4,4,0,0,1,.68,1.15,4.28,4.28,0,0,1,.24,1.45,4,4,0,0,1-.29,1.57,3.73,3.73,0,0,1-2.08,2.07,4.2,4.2,0,0,1-1.61.3,4.15,4.15,0,0,1-1.4-.23,3.7,3.7,0,0,1-1.11-.6l-1.07,1.09L114,221l1.06-1.09a3.62,3.62,0,0,1-.69-1.17,4.27,4.27,0,0,1-.24-1.44,4,4,0,0,1,.3-1.56,3.82,3.82,0,0,1,.82-1.25,3.64,3.64,0,0,1,1.26-.83,4.29,4.29,0,0,1,1.59-.29,4.4,4.4,0,0,1,1.39.21,3.86,3.86,0,0,1,1.15.62l1.06-1.09.51.5Zm-1.25.25a2.69,2.69,0,0,0-1.81-.62,2.79,2.79,0,0,0-1.18.23,2.54,2.54,0,0,0-.88.63,3,3,0,0,0-.56.94,3.51,3.51,0,0,0-.2,1.17,3,3,0,0,0,.55,1.83Zm-3.6,4.72a2.72,2.72,0,0,0,.8.45,2.86,2.86,0,0,0,1,.16,3,3,0,0,0,1.18-.23,2.82,2.82,0,0,0,.88-.63,2.77,2.77,0,0,0,.57-1,3.2,3.2,0,0,0,.2-1.17,3.13,3.13,0,0,0-.54-1.82Z"/><path d="M135.29,221h-7.2v-1.33l4.51-4.59c.17-.17.34-.36.51-.55a4.71,4.71,0,0,0,.47-.61,3.21,3.21,0,0,0,.33-.67,2,2,0,0,0,.13-.73,2,2,0,0,0-.17-.83,1.74,1.74,0,0,0-.47-.63,2.18,2.18,0,0,0-.7-.39,2.66,2.66,0,0,0-.85-.14,2.28,2.28,0,0,0-1.47.48,2.17,2.17,0,0,0-.79,1.3l-1.21-.13a3.14,3.14,0,0,1,1.16-2,3.49,3.49,0,0,1,2.23-.72,4.59,4.59,0,0,1,1.3.18,3.29,3.29,0,0,1,1.09.55,2.69,2.69,0,0,1,.75.92,2.79,2.79,0,0,1,.28,1.29,3.29,3.29,0,0,1-.2,1.2,4.53,4.53,0,0,1-.52,1,6.77,6.77,0,0,1-.73.91c-.27.28-.55.57-.84.85l-3.56,3.53h5.95Z"/><path d="M140.66,209.48a3.17,3.17,0,0,1,2,.56,3.78,3.78,0,0,1,1.17,1.42,6.45,6.45,0,0,1,.56,1.9,13.53,13.53,0,0,1,.14,2,13.76,13.76,0,0,1-.14,2,6.45,6.45,0,0,1-.56,1.9,3.86,3.86,0,0,1-1.17,1.42,3.73,3.73,0,0,1-3.93,0,3.76,3.76,0,0,1-1.17-1.42,6.17,6.17,0,0,1-.56-1.9,13.82,13.82,0,0,1-.15-2,13.58,13.58,0,0,1,.15-2,6.17,6.17,0,0,1,.56-1.9A3.69,3.69,0,0,1,138.7,210,3.14,3.14,0,0,1,140.66,209.48Zm0,1.05a2.09,2.09,0,0,0-1.46.5,3.08,3.08,0,0,0-.81,1.23,6.09,6.09,0,0,0-.34,1.57c-.05.55-.07,1-.07,1.5s0,.95.07,1.51a6.18,6.18,0,0,0,.34,1.57,3.08,3.08,0,0,0,.81,1.23,2.44,2.44,0,0,0,2.93,0,3.19,3.19,0,0,0,.81-1.23,6.18,6.18,0,0,0,.34-1.57c.05-.56.07-1.06.07-1.51s0-1-.07-1.5a6.09,6.09,0,0,0-.34-1.57,3.19,3.19,0,0,0-.81-1.23A2.09,2.09,0,0,0,140.66,210.53Z"/><path d="M149.56,209.48a3.17,3.17,0,0,1,2,.56,3.78,3.78,0,0,1,1.17,1.42,6.77,6.77,0,0,1,.56,1.9,15.09,15.09,0,0,1,.14,2,15.36,15.36,0,0,1-.14,2,6.77,6.77,0,0,1-.56,1.9,3.86,3.86,0,0,1-1.17,1.42,3.75,3.75,0,0,1-3.94,0,3.86,3.86,0,0,1-1.17-1.42,6.77,6.77,0,0,1-.56-1.9,15.36,15.36,0,0,1-.14-2,15.09,15.09,0,0,1,.14-2,6.77,6.77,0,0,1,.56-1.9,3.78,3.78,0,0,1,1.17-1.42A3.17,3.17,0,0,1,149.56,209.48Zm0,1.05a2.05,2.05,0,0,0-1.46.5,3.08,3.08,0,0,0-.81,1.23,6.09,6.09,0,0,0-.35,1.57c0,.55-.07,1-.07,1.5s0,.95.07,1.51a6.19,6.19,0,0,0,.35,1.57,3.08,3.08,0,0,0,.81,1.23,2.42,2.42,0,0,0,2.92,0,3.08,3.08,0,0,0,.81-1.23,6.19,6.19,0,0,0,.35-1.57c0-.56.07-1.06.07-1.51s0-1-.07-1.5a6.09,6.09,0,0,0-.35-1.57A3.08,3.08,0,0,0,151,211,2.05,2.05,0,0,0,149.56,210.53Z"/><path d="M159.61,215.17c0-.27,0-.55,0-.83s0-.55-.05-.83h1.13v1.14h0a2.5,2.5,0,0,1,1.06-1,3.05,3.05,0,0,1,1.35-.33,3.83,3.83,0,0,1,.65.06,2.25,2.25,0,0,1,.66.23,2,2,0,0,1,.6.47,2.64,2.64,0,0,1,.48.79,2.48,2.48,0,0,1,1-1.14,2.87,2.87,0,0,1,1.45-.41,2.73,2.73,0,0,1,2.13.76,3.11,3.11,0,0,1,.69,2.17V221h-1.06v-4.37a3.17,3.17,0,0,0-.4-1.75,1.66,1.66,0,0,0-1.49-.6,1.84,1.84,0,0,0-1.64.84,3,3,0,0,0-.36.88,4.74,4.74,0,0,0-.11,1v4h-1.06v-4.37a3.17,3.17,0,0,0-.4-1.75,1.64,1.64,0,0,0-1.48-.6l-.44.06a1.71,1.71,0,0,0-.72.35,2.61,2.61,0,0,0-.66.87,3.48,3.48,0,0,0-.3,1.6V221h-1Z"/><path d="M173.24,215.17c0-.27,0-.55,0-.83l-.06-.83h1.14v1.14h0a2.5,2.5,0,0,1,1.06-1,3.08,3.08,0,0,1,1.35-.33,3.74,3.74,0,0,1,.65.06,2.42,2.42,0,0,1,.67.23,2.34,2.34,0,0,1,.6.47,2.85,2.85,0,0,1,.47.79,2.48,2.48,0,0,1,1-1.14,2.87,2.87,0,0,1,1.45-.41,2.73,2.73,0,0,1,2.13.76,3.11,3.11,0,0,1,.69,2.17V221h-1.06v-4.37a3.17,3.17,0,0,0-.4-1.75,1.66,1.66,0,0,0-1.49-.6,1.91,1.91,0,0,0-1,.23,2,2,0,0,0-.65.61,3,3,0,0,0-.36.88,4.74,4.74,0,0,0-.11,1v4h-1v-4.37a3.26,3.26,0,0,0-.4-1.75,1.67,1.67,0,0,0-1.49-.6l-.44.06a1.62,1.62,0,0,0-.71.35,2.5,2.5,0,0,0-.67.87,3.49,3.49,0,0,0-.29,1.6V221h-1.06Z"/></g><line class="cls-3" x1="140.79" y1="153.82" x2="140.79" y2="117.55"/><line class="cls-3" x1="138.94" y1="117.54" x2="142.49" y2="117.54"/><line class="cls-3" x1="138.26" y1="153.82" x2="143.31" y2="153.82"/><line class="cls-3" x1="128.27" y1="200.75" x2="169.48" y2="200.75"/><line class="cls-3" x1="128.27" y1="200.64" x2="128.27" y2="200.86"/><line class="cls-3" x1="169.48" y1="200.64" x2="169.48" y2="200.86"/><line class="cls-3" x1="128.27" y1="199.78" x2="128.27" y2="201.71"/><line class="cls-3" x1="169.48" y1="199.78" x2="169.48" y2="201.71"/><g class="cls-2"><path d="M166.68,140.26l-5.87-4.17.77-1.08,6.34-1.13.73-.15a6.14,6.14,0,0,0,.73-.22,3.48,3.48,0,0,0,.66-.36,1.87,1.87,0,0,0,.53-.52,1.94,1.94,0,0,0,.35-.78,1.87,1.87,0,0,0,0-.78,2.34,2.34,0,0,0-.35-.73,2.67,2.67,0,0,0-.61-.6,2.32,2.32,0,0,0-1.48-.46,2.11,2.11,0,0,0-1.39.6l-.92-.81a3.17,3.17,0,0,1,2.1-.94,3.49,3.49,0,0,1,2.23.7,4.4,4.4,0,0,1,1,.91,3.51,3.51,0,0,1,.57,1.08,2.76,2.76,0,0,1,.08,1.18,2.88,2.88,0,0,1-.52,1.22,3.51,3.51,0,0,1-.86.86,4.94,4.94,0,0,1-1,.53,6,6,0,0,1-1.12.32q-.58.12-1.17.21l-5,.81,4.85,3.45Z"/><path d="M175,141.6l1.33,1-.61.86-1.33-.95-1.56,2.2-.94-.67,1.56-2.19-4-2.84.76-1.07,8-3.32,1.2.85Zm2.79-5.9,0,0-6.91,3,3.21,2.28Z"/><path d="M185,139.14a3.19,3.19,0,0,1,1.28,1.6,3.69,3.69,0,0,1,.13,1.84,6.48,6.48,0,0,1-.64,1.87,13.79,13.79,0,0,1-1,1.69,14.14,14.14,0,0,1-1.26,1.53,6.61,6.61,0,0,1-1.56,1.22,3.73,3.73,0,0,1-1.77.48,3.72,3.72,0,0,1-3.21-2.28,3.94,3.94,0,0,1-.13-1.84,6.51,6.51,0,0,1,.65-1.87,15.12,15.12,0,0,1,1-1.69,17,17,0,0,1,1.26-1.53,6.61,6.61,0,0,1,1.56-1.22,3.74,3.74,0,0,1,1.78-.48A3.15,3.15,0,0,1,185,139.14Zm-.61.86a2.06,2.06,0,0,0-1.48-.44,3.14,3.14,0,0,0-1.37.53,6.36,6.36,0,0,0-1.19,1.08c-.36.43-.67.82-.93,1.19s-.53.78-.81,1.26a6.34,6.34,0,0,0-.63,1.48,3,3,0,0,0-.05,1.47,2,2,0,0,0,.9,1.26,2.08,2.08,0,0,0,1.48.44,3,3,0,0,0,1.37-.54,5.71,5.71,0,0,0,1.19-1.07c.36-.43.67-.82.93-1.19s.53-.79.82-1.26a6.06,6.06,0,0,0,.62-1.48,3.07,3.07,0,0,0,.06-1.47A2.07,2.07,0,0,0,184.37,140Z"/><path d="M189.87,149.61c.17-.23.32-.46.47-.7l.43-.71.93.66-.66.93,0,0a2.46,2.46,0,0,1,1.44-.2,3,3,0,0,1,1.29.51,3.83,3.83,0,0,1,.5.43,2.54,2.54,0,0,1,.4.57,2.37,2.37,0,0,1,.22.74,2.67,2.67,0,0,1-.07.91,2.48,2.48,0,0,1,1.49-.34,2.79,2.79,0,0,1,1.42.5,2.75,2.75,0,0,1,1.29,1.86,3.13,3.13,0,0,1-.69,2.16l-2.76,3.87-.86-.61,2.53-3.56A3.18,3.18,0,0,0,198,155a1.67,1.67,0,0,0-.86-1.36,2,2,0,0,0-.95-.39,2,2,0,0,0-.88.13,2.61,2.61,0,0,0-.8.5,4.57,4.57,0,0,0-.68.77l-2.31,3.24-.86-.61,2.53-3.56a3.18,3.18,0,0,0,.69-1.65,1.66,1.66,0,0,0-.87-1.36,3,3,0,0,0-.39-.2,1.7,1.7,0,0,0-.79-.13,2.66,2.66,0,0,0-1,.32,3.64,3.64,0,0,0-1.17,1.14L187.36,155l-.86-.61Z"/><path d="M201,157.5c.16-.22.32-.45.47-.69l.43-.71.93.66-.66.93,0,0a2.46,2.46,0,0,1,1.44-.2,3.06,3.06,0,0,1,1.3.51,4.57,4.57,0,0,1,.49.43,2.26,2.26,0,0,1,.4.57,2.37,2.37,0,0,1,.22.74,2.67,2.67,0,0,1-.07.91,2.48,2.48,0,0,1,1.49-.34,2.79,2.79,0,0,1,1.42.5,2.73,2.73,0,0,1,1.29,1.85,3.15,3.15,0,0,1-.69,2.17l-2.76,3.87-.86-.61,2.53-3.56a3.21,3.21,0,0,0,.69-1.65,1.67,1.67,0,0,0-.86-1.36,2,2,0,0,0-1-.39,1.89,1.89,0,0,0-.88.13,2.74,2.74,0,0,0-.8.5,4.5,4.5,0,0,0-.68.76l-2.31,3.25-.86-.61,2.53-3.56A3.21,3.21,0,0,0,205,160a1.67,1.67,0,0,0-.86-1.36c-.06,0-.19-.1-.4-.2a1.68,1.68,0,0,0-.78-.13,2.5,2.5,0,0,0-1,.32,3.58,3.58,0,0,0-1.16,1.13l-2.23,3.13-.86-.61Z"/></g><line class="cls-3" x1="158.85" y1="145.47" x2="179.87" y2="160.08"/><line class="cls-3" x1="158.89" y1="145.42" x2="158.81" y2="145.53"/><line class="cls-3" x1="179.91" y1="160.02" x2="179.83" y2="160.14"/><line class="cls-3" x1="159.2" y1="144.99" x2="158.5" y2="145.95"/><line class="cls-3" x1="180.22" y1="159.6" x2="179.52" y2="160.56"/><g class="cls-4"><path class="cls-5" d="M149.31,153.23l.09-.09m.09-.09h.09V153l.08-.09v-.1l.09-.09v-.1m-1.07.85h.09m.36-36.55h.27l.18.09.08.19.09.09-.09.1-.08.09-.18.1m-1.26,35.61v.09m8.15,6.11h-.09m4.56,3.19h.09m-12.8-9.48v.09l.09.09m-.09-.18v.09h.09m1.26,0,.09-.09m-.36-35.81V53m-.81,64,.27-.09m8.06,42.85.35.28.45.28,1,.75,1,.66.45.28.27.19.26.19.18.09.09.09.09.1-.09-.1-.09-.09-.18-.09m-12.26-9.12h0l.09.1m7.61,5.73-.36-.1-.27-.09-.36-.19-.35-.09-.63-.19-.63-.19-.35-.09-.36-.1h-.36l-.36-.09h-.27l-.35-.09h-2.42l-.36.09h-.62l-.36.09-.36.1h-.36l-.27.09-.35.1-.36.09-.36.09-.27.1-.36.19-.35.09-.27.09-.36.19-.27.09-.36.19-.27.19-.26.19-.36.09-.27.19-.27.19-.36.19-.27.28-.26.19-.27.19-.27.28-.27.19-.27.28-.27.18-.27.29-.44.47-.45.56-.45.56-.45.57-.35.56-.36.66-.36.66-.36.66-.09.28-.17.37-.1.28-.17.38-.09.28-.09.38-.09.37-.18.29-.09.75-.18.75-.09.66-.09.75-.09.75v1.79l.09.37v.38l.09.37v.28l.09.38v.38l.09.37.09.38.09.28.09.38.09.37.09.28.18.38.09.38.08.28.18.37.18.28.27.66.36.66.36.66.36.56.18.28.26.29.18.28.27.28.18.28.27.28.18.29.27.18.26.29.27.28.27.18.27.29m15.66-27.72h.09l.18.18.27.19.35.19.36.28.45.29,1,.75,1,.66.36.28.35.28.18.09M149.13,117l.27.1.09.09v.09l-.09.19h-.18m.09,35.8h-.09v.1m-.9-36.37-.18.1-.09.09H148v.19l.17.19.27.09h.72l.27-.09m6.8,41.81-.18-.1-.09-.09-.09-.09v.09l.09.09.18.1.27.19.27.19m-8-6.3h-.18m.63-36.18v.1h-.45l-.09-.1m-.18,36.18h.09m-6-103.82.17.19.09.18.18.19.18.19.09.19.18.19.18.09.18.19.18.19.18.09.18.19.17.09.18.19.18.09.27.19.18.1.18.09.27.09.18.1.18.09.26.1.18.09h.27l.18.09.27.1h.45l.17.09h1.88l.18-.09h.27l.18-.1h.27l.18-.09h.27l.17-.09.18-.1.27-.09.18-.1.18-.09.27-.09.18-.19.18-.1.18-.09.27-.19.18-.09.17-.19.18-.09.18-.19.18-.19.09-.19.18-.09.18-.19.18-.19.09-.19.17-.18.09-.19m1.88,110.3.27.19.36.28.89.57.81.66.36.18.27.19.27.19.17.19h.09m0,0v-.1m-1.25-1.12-.36-.29-.45-.28-.35-.28-.36-.28-.18-.1-.09-.09.09.09h.09l.18.19.36.28.44.28.45.29.27.28.18.09h.09l-.09-.09ZM155.93,159v.1l.18.09.27.19.35.28.36.28.45.29,1,.75,1,.66.36.28.35.18.27.19.18.19h.09l.09.09M168.9,166l-19.15-13.72m0,.19V117.24m18.35,50.09-19.87-14M148,117.24l.08,35.81m9.31,6.76-1.43-.85m-7.79-5.73v.1h.09m12.62,9.2-1.34-1.22m-19.33,25.47.27.19.27.28.26.19.36.28.63.37.63.38.26.19.36.18.36.1.27.19.71.28.72.28.36.09.36.1.35.09.36.1.36.09h.36l.36.09h.35l.36.1h.72l.36.09h.71l.36-.09h.72l.35-.1h.36l.36-.09.36-.09.36-.1h.35l.36-.19.36-.09.36-.09.35-.1.36-.18.63-.29.72-.28.26-.19.36-.19.36-.18.27-.19.62-.47.63-.38.27-.28.27-.19.27-.28.26-.28.54-.56.54-.57.18-.28.27-.28.17-.28.27-.29.18-.37.27-.28.18-.28.18-.38.36-.66.35-.66.18-.37.09-.38.18-.37.09-.29.27-.75.18-.75.09-.38.09-.37.09-.38.09-.37v-.38l.09-.37v-.47l.09-.38v-1.88l-.09-.38v-.84l-.09-.38v-.37L165,171l-.09-.37-.18-.76-.18-.75-.18-.37-.09-.29-.09-.37-.18-.38-.18-.37-.09-.38-.18-.28-.17-.38-.18-.28-.18-.37-.18-.29-.18-.37-.27-.29-.18-.37-.27-.28-.17-.28-.27-.28-.27-.29-.18-.28-.27-.28m-12.35-9.21h-.09v-.09h-.09M148.5,53l.09,64.26m1.16,35.24v.09m-.53.76H149l-.09.09h-.18M148.5,117h.09m19.51,50.37.18.09h.27l.26-.19.19-.18.08-.29.09-.37-.09-.29-.18-.09m-19.68-48.58-.18.1h-.54l-.18-.1-.09-.09v-.19l.09-.09.18-.1m7.43,42-.09.1m-2-111.34-.36-.19-.44-.09-.45-.1-.54-.18L150.92,47l-1.26-.1h-1.34l-1.25.1-1.16.19-1,.18-.45.1-.35.18-.45.1-.36.19-.27.18-.27.19-.17.29-.18.18-.09.19v.28l.09.19.18.28.17.19.27.19.27.19.27.18.45.1.36.19.53.09.54.09,1.16.29,1.35.09h1.34l1.25-.09,1.16-.19,1-.19.45-.09.44-.19.45-.19.27-.19.36-.19.17-.18.18-.19.18-.28v-.47l-.09-.19-.18-.19-.17-.19-.27-.19-.27-.18Zm2.33,111.62h0l.09.09.27.19.35.28"/></g><g class="cls-2"><path d="M86.07,173.43V171.8h1.05v1.63h2.69v1.15H87.12v4.9H85.81l-7.33-4.58v-1.47Zm-6.43,1.15v0l6.43,3.9v-3.94Z"/><path d="M79.54,163.61l10.27,4.56v1.29l-10.27-4.65v5.52H78.48v-6.72Z"/><path d="M78.29,157.85a3.24,3.24,0,0,1,.56-2,3.89,3.89,0,0,1,1.43-1.17,6.6,6.6,0,0,1,1.89-.56,15.36,15.36,0,0,1,2-.14,15.09,15.09,0,0,1,2,.14,6.77,6.77,0,0,1,1.9.56,3.78,3.78,0,0,1,1.42,1.17,3.69,3.69,0,0,1,0,3.94A3.66,3.66,0,0,1,88,161a6.17,6.17,0,0,1-1.9.56,13.58,13.58,0,0,1-2,.15,13.82,13.82,0,0,1-2-.15,6,6,0,0,1-1.89-.56,3.77,3.77,0,0,1-1.43-1.16A3.24,3.24,0,0,1,78.29,157.85Zm1.06,0a2,2,0,0,0,.5,1.46,3.08,3.08,0,0,0,1.23.81,5.7,5.7,0,0,0,1.57.34c.55,0,1,.08,1.5.08s.95,0,1.5-.08a5.7,5.7,0,0,0,1.57-.34,3.08,3.08,0,0,0,1.23-.81,2.05,2.05,0,0,0,.5-1.46,2.09,2.09,0,0,0-.5-1.47,3.17,3.17,0,0,0-1.23-.8,6.09,6.09,0,0,0-1.57-.35c-.55,0-1.05-.07-1.5-.07s-1,0-1.5.07a6.09,6.09,0,0,0-1.57.35,3.17,3.17,0,0,0-1.23.8A2,2,0,0,0,79.35,157.85Z"/><path d="M84,147.8c-.28,0-.56,0-.83,0l-.84,0v-1.13h1.14v0a2.41,2.41,0,0,1-1-1.06,2.94,2.94,0,0,1-.34-1.35,3,3,0,0,1,.07-.65,2.25,2.25,0,0,1,.23-.66,2.22,2.22,0,0,1,.47-.61,2.58,2.58,0,0,1,.79-.47,2.43,2.43,0,0,1-1.14-1,3.07,3.07,0,0,1,.34-3.58,3.12,3.12,0,0,1,2.17-.69h4.75v1.06H85.44a3.16,3.16,0,0,0-1.74.4,1.67,1.67,0,0,0-.61,1.49,1.82,1.82,0,0,0,.85,1.64,3.07,3.07,0,0,0,.87.36,4.9,4.9,0,0,0,1,.11h4v1.06H85.44a3.25,3.25,0,0,0-1.74.39,1.68,1.68,0,0,0-.61,1.49,2.52,2.52,0,0,0,.07.44,1.71,1.71,0,0,0,.35.72,2.67,2.67,0,0,0,.86.66,3.53,3.53,0,0,0,1.6.3h3.84v1.05Z"/><path d="M84,134.17l-.83,0-.84.06v-1.14h1.14v0a2.41,2.41,0,0,1-1-1.06,2.91,2.91,0,0,1-.27-2,2.42,2.42,0,0,1,.23-.67,2.34,2.34,0,0,1,.47-.6,2.58,2.58,0,0,1,.79-.47,2.43,2.43,0,0,1-1.14-1,3.07,3.07,0,0,1,.34-3.58,3.12,3.12,0,0,1,2.17-.69h4.75v1.06H85.44a3.16,3.16,0,0,0-1.74.4,1.65,1.65,0,0,0-.61,1.49,2,2,0,0,0,.23,1,2.14,2.14,0,0,0,.62.65,3.07,3.07,0,0,0,.87.36,4.9,4.9,0,0,0,1,.11h4v1.05H85.44a3.25,3.25,0,0,0-1.74.4,1.68,1.68,0,0,0-.61,1.49,2.52,2.52,0,0,0,.07.44,1.62,1.62,0,0,0,.35.71,2.55,2.55,0,0,0,.86.67,3.69,3.69,0,0,0,1.6.29h3.84v1.06Z"/></g><g class="cls-2"><path d="M86.07,106.49v-1.63h1.05v1.63h2.69v1.15H87.12v4.9H85.81L78.48,108v-1.47Zm-6.43,1.15v0l6.43,3.91v-3.94Z"/><path d="M78.29,99.8a3.24,3.24,0,0,1,.56-2,3.77,3.77,0,0,1,1.43-1.16,6,6,0,0,1,1.89-.56,13.82,13.82,0,0,1,2-.15,13.58,13.58,0,0,1,2,.15,6.17,6.17,0,0,1,1.9.56,3.66,3.66,0,0,1,1.42,1.16,3.69,3.69,0,0,1,0,3.94A3.78,3.78,0,0,1,88,102.94a6.77,6.77,0,0,1-1.9.56,15.09,15.09,0,0,1-2,.14,15.36,15.36,0,0,1-2-.14,6.6,6.6,0,0,1-1.89-.56,3.89,3.89,0,0,1-1.43-1.17A3.24,3.24,0,0,1,78.29,99.8Zm1.06,0a2,2,0,0,0,.5,1.47,3.17,3.17,0,0,0,1.23.8,6.09,6.09,0,0,0,1.57.35c.55,0,1,.07,1.5.07s.95,0,1.5-.07a6.09,6.09,0,0,0,1.57-.35,3.17,3.17,0,0,0,1.23-.8A2.09,2.09,0,0,0,89,99.8a2.05,2.05,0,0,0-.5-1.46,3.08,3.08,0,0,0-1.23-.81,5.7,5.7,0,0,0-1.57-.34c-.55,0-1.05-.08-1.5-.08s-1,0-1.5.08a5.7,5.7,0,0,0-1.57.34,3.08,3.08,0,0,0-1.23.81A2,2,0,0,0,79.35,99.8Z"/><path d="M78.29,90.91a3.24,3.24,0,0,1,.56-2,3.89,3.89,0,0,1,1.43-1.17,6.3,6.3,0,0,1,1.89-.56,13.76,13.76,0,0,1,2-.14,13.53,13.53,0,0,1,2,.14,6.45,6.45,0,0,1,1.9.56,3.78,3.78,0,0,1,1.42,1.17,3.67,3.67,0,0,1,0,3.93A3.78,3.78,0,0,1,88,94a6.17,6.17,0,0,1-1.9.56,13.58,13.58,0,0,1-2,.15,13.82,13.82,0,0,1-2-.15A6,6,0,0,1,80.28,94a3.89,3.89,0,0,1-1.43-1.17A3.21,3.21,0,0,1,78.29,90.91Zm1.06,0a2,2,0,0,0,.5,1.46,3.08,3.08,0,0,0,1.23.81,6.09,6.09,0,0,0,1.57.34c.55,0,1,.07,1.5.07s.95,0,1.5-.07a6.09,6.09,0,0,0,1.57-.34,3.08,3.08,0,0,0,1.23-.81,2.4,2.4,0,0,0,0-2.93,3.08,3.08,0,0,0-1.23-.81,6.09,6.09,0,0,0-1.57-.34c-.55-.05-1.05-.07-1.5-.07s-1,0-1.5.07a6.09,6.09,0,0,0-1.57.34,3.08,3.08,0,0,0-1.23.81A2,2,0,0,0,79.35,90.91Z"/><path d="M78.29,82a3.24,3.24,0,0,1,.56-2,3.89,3.89,0,0,1,1.43-1.17,6.6,6.6,0,0,1,1.89-.56,15.36,15.36,0,0,1,2-.14,15.09,15.09,0,0,1,2,.14,6.77,6.77,0,0,1,1.9.56A3.78,3.78,0,0,1,89.44,80a3.69,3.69,0,0,1,0,3.94A3.78,3.78,0,0,1,88,85.15a6.77,6.77,0,0,1-1.9.56,15.09,15.09,0,0,1-2,.14,15.36,15.36,0,0,1-2-.14,6.6,6.6,0,0,1-1.89-.56A3.89,3.89,0,0,1,78.85,84,3.24,3.24,0,0,1,78.29,82Zm1.06,0a2,2,0,0,0,.5,1.46,3.08,3.08,0,0,0,1.23.81,6.09,6.09,0,0,0,1.57.35c.55,0,1,.07,1.5.07s.95,0,1.5-.07a6.09,6.09,0,0,0,1.57-.35,3.08,3.08,0,0,0,1.23-.81,2.38,2.38,0,0,0,0-2.92,3.08,3.08,0,0,0-1.23-.81,6.09,6.09,0,0,0-1.57-.35c-.55,0-1.05-.07-1.5-.07s-1,0-1.5.07a6.09,6.09,0,0,0-1.57.35,3.08,3.08,0,0,0-1.23.81A2,2,0,0,0,79.35,82Z"/><path d="M84,72c-.28,0-.56,0-.83,0l-.84.05V70.91h1.14v0a2.41,2.41,0,0,1-1-1.06,2.94,2.94,0,0,1-.34-1.35,3,3,0,0,1,.07-.65,2.25,2.25,0,0,1,.23-.66,2,2,0,0,1,.47-.6,2.41,2.41,0,0,1,.79-.48,2.43,2.43,0,0,1-1.14-1,3.07,3.07,0,0,1,.34-3.58,3.12,3.12,0,0,1,2.17-.69h4.75v1.06H85.44a3.16,3.16,0,0,0-1.74.4,1.67,1.67,0,0,0-.61,1.49,1.82,1.82,0,0,0,.85,1.64,3.07,3.07,0,0,0,.87.36,4.9,4.9,0,0,0,1,.11h4v1.06H85.44a3.16,3.16,0,0,0-1.74.4,1.65,1.65,0,0,0-.61,1.48,2.52,2.52,0,0,0,.07.44,1.71,1.71,0,0,0,.35.72,2.67,2.67,0,0,0,.86.66,3.53,3.53,0,0,0,1.6.3h3.84v1Z"/><path d="M84,58.33l-.83,0-.84.06V57.27h1.14v0a2.41,2.41,0,0,1-1-1.06,2.91,2.91,0,0,1-.27-2,2.42,2.42,0,0,1,.23-.67,2.34,2.34,0,0,1,.47-.6,2.58,2.58,0,0,1,.79-.47,2.43,2.43,0,0,1-1.14-1,3.07,3.07,0,0,1,.34-3.58,3.12,3.12,0,0,1,2.17-.69h4.75v1.06H85.44a3.16,3.16,0,0,0-1.74.4,1.65,1.65,0,0,0-.61,1.49,2,2,0,0,0,.23,1,2.14,2.14,0,0,0,.62.65,3.07,3.07,0,0,0,.87.36,4.9,4.9,0,0,0,1,.11h4v1.05H85.44a3.25,3.25,0,0,0-1.74.4,1.68,1.68,0,0,0-.61,1.49,2.52,2.52,0,0,0,.07.44,1.62,1.62,0,0,0,.35.71,2.55,2.55,0,0,0,.86.67,3.69,3.69,0,0,0,1.6.29h3.84v1.06Z"/></g><line class="cls-3" x1="98.7" y1="190.64" x2="98.7" y2="116.39"/><line class="cls-3" x1="96.86" y1="116.36" x2="100.4" y2="116.36"/><line class="cls-3" x1="96.18" y1="190.64" x2="101.23" y2="190.64"/><line class="cls-3" x1="98.7" y1="116.36" x2="98.7" y2="46.7"/><line class="cls-3" x1="96.86" y1="46.68" x2="100.4" y2="46.68"/><line class="cls-3" x1="96.18" y1="116.36" x2="101.23" y2="116.36"/></svg>