<svg id="IC_S2" data-name="IC S2" xmlns="http://www.w3.org/2000/svg" xmlns:xlink="http://www.w3.org/1999/xlink" viewBox="0 0 300 263"><defs><style>.cls-1,.cls-3,.cls-5{fill:none;}.cls-2{isolation:isolate;}.cls-3{stroke:#000;}.cls-3,.cls-5{stroke-width:0.5px;}.cls-4{clip-path:url(#clip-path);}.cls-5{stroke:#1d1d1b;stroke-linecap:round;stroke-linejoin:round;}</style><clipPath id="clip-path"><rect id="SVGID" class="cls-1" x="128.27" y="46.09" width="43.81" height="171.15"/></clipPath></defs><title>ic-suspension-2-anastassiades-flos-F3176059-spech-tech-02-300x263</title><g class="cls-2"><path d="M119.43,175.53v-.59a4.19,4.19,0,0,0-.11-.95,2.44,2.44,0,0,0-.36-.8,1.79,1.79,0,0,0-.65-.53,2.19,2.19,0,0,0-1-.2,1.82,1.82,0,0,0-1.42.55,2.23,2.23,0,0,0-.5,1.54,2.49,2.49,0,0,0,.32,1.27,2.42,2.42,0,0,0,.93.89l-.51,1a3.42,3.42,0,0,1-1.36-1.3,3.75,3.75,0,0,1-.44-1.83,4.07,4.07,0,0,1,.2-1.27,3,3,0,0,1,.56-1,2.76,2.76,0,0,1,2.19-1,2.58,2.58,0,0,1,.88.15,2.72,2.72,0,0,1,.75.41,3.1,3.1,0,0,1,.58.62,2.73,2.73,0,0,1,.38.74l0,0a2.64,2.64,0,0,1,.36-.88,2.67,2.67,0,0,1,.65-.69,3.2,3.2,0,0,1,.86-.45,3.39,3.39,0,0,1,1-.16,3.2,3.2,0,0,1,1.39.29,3,3,0,0,1,1,.78,3.34,3.34,0,0,1,.63,1.16,4.5,4.5,0,0,1,.22,1.39,4.21,4.21,0,0,1-.55,2.17,3.3,3.3,0,0,1-1.74,1.4l-.37-1.22a2.37,2.37,0,0,0,1.21-.86,2.75,2.75,0,0,0,.39-1.59,2.53,2.53,0,0,0-.16-.91,2.34,2.34,0,0,0-.46-.76,1.93,1.93,0,0,0-.71-.51,2.12,2.12,0,0,0-.91-.19,2.21,2.21,0,0,0-1.08.24,2.09,2.09,0,0,0-.71.64,2.81,2.81,0,0,0-.39.92,4.83,4.83,0,0,0-.12,1.08v.5Z"/><path d="M115.62,162.46v4.62l3.41.08a3.21,3.21,0,0,1-.21-.75,5,5,0,0,1-.06-.77,3.75,3.75,0,0,1,.27-1.45,3.17,3.17,0,0,1,.76-1.13,3.55,3.55,0,0,1,1.15-.74,4.06,4.06,0,0,1,1.45-.26,3.72,3.72,0,0,1,1.5.29,3.26,3.26,0,0,1,1.16.8,3.56,3.56,0,0,1,.76,1.2,4,4,0,0,1,.28,1.52,3.63,3.63,0,0,1-.52,1.93,3.31,3.31,0,0,1-1.5,1.33l-.5-1.15a2.55,2.55,0,0,0,1.07-.9,2.28,2.28,0,0,0,.39-1.32,2.55,2.55,0,0,0-.2-1,2.5,2.5,0,0,0-.54-.81,2.36,2.36,0,0,0-.8-.54,2.5,2.5,0,0,0-1-.2,2.79,2.79,0,0,0-1.09.21,2.65,2.65,0,0,0-.85.57,2.43,2.43,0,0,0-.55.88,3.14,3.14,0,0,0-.2,1.12,4.53,4.53,0,0,0,.17,1.21,6,6,0,0,0,.46,1.15l-5.87-.12v-5.77Z"/><path d="M119.86,158a2.38,2.38,0,0,1-.37.68,2.82,2.82,0,0,1-1.32.88,2.63,2.63,0,0,1-.84.13,2.9,2.9,0,0,1-1.22-.25,3,3,0,0,1-.94-.69,3.27,3.27,0,0,1-.59-1,3.62,3.62,0,0,1,0-2.43,3.16,3.16,0,0,1,.59-1,2.83,2.83,0,0,1,.94-.69,2.9,2.9,0,0,1,1.22-.25,2.94,2.94,0,0,1,.84.12,3.1,3.1,0,0,1,.73.36,2.49,2.49,0,0,1,.59.53,2.38,2.38,0,0,1,.37.68h0a2.68,2.68,0,0,1,1.06-1.53,3.15,3.15,0,0,1,1.92-.58,2.92,2.92,0,0,1,1.33.3,3.08,3.08,0,0,1,1,.78,3.2,3.2,0,0,1,.65,1.14,4.09,4.09,0,0,1,.23,1.36,4.15,4.15,0,0,1-.23,1.37,3.3,3.3,0,0,1-1.66,1.92,2.92,2.92,0,0,1-1.33.3,3.15,3.15,0,0,1-1.92-.58,2.68,2.68,0,0,1-1.06-1.53Zm-2.43-3.49a2.11,2.11,0,0,0-.8.15,1.83,1.83,0,0,0-.63.42,2,2,0,0,0-.42.64,2.15,2.15,0,0,0-.15.8,2.07,2.07,0,0,0,.15.8,1.87,1.87,0,0,0,.42.64,1.73,1.73,0,0,0,.63.43,2.21,2.21,0,0,0,1.6,0,1.65,1.65,0,0,0,.63-.43,1.87,1.87,0,0,0,.42-.64,2.07,2.07,0,0,0,.15-.8,2.15,2.15,0,0,0-.15-.8,2,2,0,0,0-.42-.64,1.74,1.74,0,0,0-.63-.42A2.11,2.11,0,0,0,117.43,154.54Zm5.28-.42a2.34,2.34,0,0,0-1.66.67,2.1,2.1,0,0,0-.48.76,2.73,2.73,0,0,0-.18,1,2.67,2.67,0,0,0,.18,1,2.19,2.19,0,0,0,.48.76,2.38,2.38,0,0,0,3.32,0,2.19,2.19,0,0,0,.48-.76,2.67,2.67,0,0,0,.18-1,2.73,2.73,0,0,0-.18-1,2.1,2.1,0,0,0-.48-.76,2.34,2.34,0,0,0-1.66-.67Z"/><path d="M120.07,146.51c-.28,0-.55,0-.83,0s-.56,0-.83.06v-1.14h1.13v0a2.44,2.44,0,0,1-1-1.07,3.07,3.07,0,0,1-.34-1.35,3.9,3.9,0,0,1,.07-.65,2.25,2.25,0,0,1,.23-.66,2.34,2.34,0,0,1,.47-.6,2.63,2.63,0,0,1,.79-.47,2.5,2.5,0,0,1-1.14-1A3.06,3.06,0,0,1,119,136a3.12,3.12,0,0,1,2.17-.69h4.75v1h-4.36a3.26,3.26,0,0,0-1.75.4,1.68,1.68,0,0,0-.61,1.49,1.86,1.86,0,0,0,.24,1,1.81,1.81,0,0,0,.61.65,2.58,2.58,0,0,0,.87.36,4.31,4.31,0,0,0,1,.11h4v1.06h-4.36a3.17,3.17,0,0,0-1.75.4,1.67,1.67,0,0,0-.61,1.49c0,.06,0,.21.07.44a1.62,1.62,0,0,0,.35.71,2.42,2.42,0,0,0,.86.66,3.53,3.53,0,0,0,1.6.3h3.84v1.06Z"/><path d="M120.07,132.87c-.28,0-.55,0-.83,0s-.56,0-.83.06v-1.14h1.13v0a2.44,2.44,0,0,1-1-1.07,3.07,3.07,0,0,1-.34-1.35,3.9,3.9,0,0,1,.07-.65,2.25,2.25,0,0,1,.23-.66,2.34,2.34,0,0,1,.47-.6,2.44,2.44,0,0,1,.79-.47,2.56,2.56,0,0,1-1.14-1,3.07,3.07,0,0,1,.34-3.58,3.17,3.17,0,0,1,2.17-.68h4.75v1.05h-4.36a3.26,3.26,0,0,0-1.75.4,1.68,1.68,0,0,0-.61,1.49,1.87,1.87,0,0,0,.85,1.64,2.58,2.58,0,0,0,.87.36,4.31,4.31,0,0,0,1,.11h4v1.06h-4.36a3.17,3.17,0,0,0-1.75.4,1.67,1.67,0,0,0-.61,1.49c0,.06,0,.21.07.44a1.67,1.67,0,0,0,.35.71,2.53,2.53,0,0,0,.86.66,3.53,3.53,0,0,0,1.6.3h3.84v1.05Z"/></g><g class="cls-2"><path d="M121.18,241.31a4,4,0,0,1,.68,1.16,4.28,4.28,0,0,1,.24,1.45,4,4,0,0,1-.29,1.57,3.73,3.73,0,0,1-2.08,2.07,4.2,4.2,0,0,1-1.61.3,4.15,4.15,0,0,1-1.4-.23,3.94,3.94,0,0,1-1.11-.6l-1.07,1.08-.52-.49,1.06-1.09a3.56,3.56,0,0,1-.69-1.18,4.17,4.17,0,0,1-.24-1.43,4.07,4.07,0,0,1,.3-1.57,3.78,3.78,0,0,1,.82-1.24,3.64,3.64,0,0,1,1.26-.83,4.09,4.09,0,0,1,1.59-.29,4.4,4.4,0,0,1,1.39.21,3.65,3.65,0,0,1,1.15.62l1.06-1.09.51.49Zm-1.25.26a2.64,2.64,0,0,0-1.81-.62,2.79,2.79,0,0,0-1.18.23,2.54,2.54,0,0,0-.88.63,3,3,0,0,0-.56.94,3.46,3.46,0,0,0-.2,1.17,3,3,0,0,0,.55,1.83Zm-3.6,4.72a2.72,2.72,0,0,0,.8.45,3.11,3.11,0,0,0,1,.16,3,3,0,0,0,1.18-.23,2.7,2.7,0,0,0,.88-.64,2.64,2.64,0,0,0,.57-.94,3.2,3.2,0,0,0,.2-1.17,3.13,3.13,0,0,0-.54-1.82Z"/><path d="M130.58,241.2h.6a4.26,4.26,0,0,0,.95-.11,2.39,2.39,0,0,0,.79-.36,1.92,1.92,0,0,0,.54-.65,2.19,2.19,0,0,0,.2-1,1.79,1.79,0,0,0-.56-1.41,2.17,2.17,0,0,0-1.54-.51,2.46,2.46,0,0,0-1.26.32,2.37,2.37,0,0,0-.9.93l-1-.51a3.44,3.44,0,0,1,1.31-1.36,3.7,3.7,0,0,1,1.83-.43,4,4,0,0,1,1.26.19,2.78,2.78,0,0,1,1,.57,2.59,2.59,0,0,1,.71.92,2.84,2.84,0,0,1,.27,1.26,2.58,2.58,0,0,1-.15.88,2.74,2.74,0,0,1-.42.75,2.63,2.63,0,0,1-.62.58,2.55,2.55,0,0,1-.73.38l.05,0a2.72,2.72,0,0,1,.88.36,2.8,2.8,0,0,1,.68.65,2.72,2.72,0,0,1,.45.86,3.41,3.41,0,0,1-.13,2.41,3,3,0,0,1-.78,1,3.3,3.3,0,0,1-1.15.63,4.26,4.26,0,0,1-1.39.22,4.15,4.15,0,0,1-2.18-.55,3.29,3.29,0,0,1-1.39-1.74l1.21-.37a2.38,2.38,0,0,0,.86,1.21,2.79,2.79,0,0,0,1.59.39,2.49,2.49,0,0,0,.91-.16,2.24,2.24,0,0,0,.76-.46,2.08,2.08,0,0,0,.52-.71,2.24,2.24,0,0,0,.18-.91,2.21,2.21,0,0,0-.24-1.08,2,2,0,0,0-.64-.71,2.72,2.72,0,0,0-.92-.39,4.83,4.83,0,0,0-1.08-.12h-.5Z"/><path d="M140.66,236.15a3.17,3.17,0,0,1,2,.56,3.78,3.78,0,0,1,1.17,1.42,6.45,6.45,0,0,1,.56,1.9,13.53,13.53,0,0,1,.14,2,13.76,13.76,0,0,1-.14,2,6.3,6.3,0,0,1-.56,1.89,3.89,3.89,0,0,1-1.17,1.43,3.73,3.73,0,0,1-3.93,0,3.79,3.79,0,0,1-1.17-1.43A6,6,0,0,1,137,244a13.82,13.82,0,0,1-.15-2,13.58,13.58,0,0,1,.15-2,6.17,6.17,0,0,1,.56-1.9,3.69,3.69,0,0,1,1.17-1.42A3.14,3.14,0,0,1,140.66,236.15Zm0,1a2.09,2.09,0,0,0-1.46.5,3.08,3.08,0,0,0-.81,1.23,6.09,6.09,0,0,0-.34,1.57c-.05.55-.07,1.05-.07,1.5s0,.95.07,1.5a6.09,6.09,0,0,0,.34,1.57,3.08,3.08,0,0,0,.81,1.23,2.4,2.4,0,0,0,2.93,0,3.19,3.19,0,0,0,.81-1.23,6.09,6.09,0,0,0,.34-1.57c.05-.55.07-1.05.07-1.5s0-.95-.07-1.5a6.09,6.09,0,0,0-.34-1.57,3.19,3.19,0,0,0-.81-1.23A2.09,2.09,0,0,0,140.66,237.2Z"/><path d="M149.56,236.15a3.17,3.17,0,0,1,2,.56,3.78,3.78,0,0,1,1.17,1.42,6.77,6.77,0,0,1,.56,1.9,15.09,15.09,0,0,1,.14,2,15.36,15.36,0,0,1-.14,2,6.6,6.6,0,0,1-.56,1.89,3.89,3.89,0,0,1-1.17,1.43,3.75,3.75,0,0,1-3.94,0,3.89,3.89,0,0,1-1.17-1.43,6.6,6.6,0,0,1-.56-1.89,15.36,15.36,0,0,1-.14-2,15.09,15.09,0,0,1,.14-2,6.77,6.77,0,0,1,.56-1.9,3.78,3.78,0,0,1,1.17-1.42A3.17,3.17,0,0,1,149.56,236.15Zm0,1a2.05,2.05,0,0,0-1.46.5,3.08,3.08,0,0,0-.81,1.23,6.09,6.09,0,0,0-.35,1.57c0,.55-.07,1.05-.07,1.5s0,.95.07,1.5a6.09,6.09,0,0,0,.35,1.57,3.08,3.08,0,0,0,.81,1.23,2.38,2.38,0,0,0,2.92,0,3.08,3.08,0,0,0,.81-1.23,6.09,6.09,0,0,0,.35-1.57c0-.55.07-1.05.07-1.5s0-.95-.07-1.5a6.09,6.09,0,0,0-.35-1.57,3.08,3.08,0,0,0-.81-1.23A2.05,2.05,0,0,0,149.56,237.2Z"/><path d="M159.61,241.84c0-.28,0-.55,0-.83s0-.56-.05-.83h1.13v1.13h0a2.47,2.47,0,0,1,1.06-1,3.05,3.05,0,0,1,1.35-.33,3.83,3.83,0,0,1,.65.06,2.25,2.25,0,0,1,.66.23,2,2,0,0,1,.6.47,2.64,2.64,0,0,1,.48.79,2.48,2.48,0,0,1,1-1.14A2.78,2.78,0,0,1,168,240a2.73,2.73,0,0,1,2.13.76,3.08,3.08,0,0,1,.69,2.16v4.76h-1.06V243.3a3.17,3.17,0,0,0-.4-1.75,1.66,1.66,0,0,0-1.49-.6,1.84,1.84,0,0,0-1.64.84,3,3,0,0,0-.36.88,4.74,4.74,0,0,0-.11,1v4h-1.06V243.3a3.17,3.17,0,0,0-.4-1.75,1.64,1.64,0,0,0-1.48-.6l-.44.06a1.71,1.71,0,0,0-.72.35,2.67,2.67,0,0,0-.66.86,3.55,3.55,0,0,0-.3,1.61v3.84h-1Z"/><path d="M173.24,241.84c0-.28,0-.55,0-.83l-.06-.83h1.14v1.13h0a2.47,2.47,0,0,1,1.06-1,3.08,3.08,0,0,1,1.35-.33,3.74,3.74,0,0,1,.65.06,2.42,2.42,0,0,1,.67.23,2.34,2.34,0,0,1,.6.47,2.85,2.85,0,0,1,.47.79,2.48,2.48,0,0,1,1-1.14,2.78,2.78,0,0,1,1.45-.41,2.73,2.73,0,0,1,2.13.76,3.08,3.08,0,0,1,.69,2.16v4.76h-1.06V243.3a3.17,3.17,0,0,0-.4-1.75,1.66,1.66,0,0,0-1.49-.6,1.91,1.91,0,0,0-1,.23,2,2,0,0,0-.65.61,3,3,0,0,0-.36.88,4.74,4.74,0,0,0-.11,1v4h-1V243.3a3.26,3.26,0,0,0-.4-1.75,1.67,1.67,0,0,0-1.49-.6L176,241a1.62,1.62,0,0,0-.71.35,2.55,2.55,0,0,0-.67.86,3.57,3.57,0,0,0-.29,1.61v3.84h-1.06Z"/></g><line class="cls-3" x1="134.79" y1="172.79" x2="134.79" y2="131.51"/><line class="cls-3" x1="132.94" y1="131.5" x2="136.49" y2="131.5"/><line class="cls-3" x1="132.26" y1="172.79" x2="137.31" y2="172.79"/><line class="cls-3" x1="128.27" y1="227.42" x2="169.48" y2="227.42"/><line class="cls-3" x1="128.27" y1="227.31" x2="128.27" y2="227.53"/><line class="cls-3" x1="169.48" y1="227.31" x2="169.48" y2="227.53"/><line class="cls-3" x1="128.27" y1="226.45" x2="128.27" y2="228.38"/><line class="cls-3" x1="169.48" y1="226.45" x2="169.48" y2="228.38"/><g class="cls-2"><path d="M165.54,153.41l.48.35a4.32,4.32,0,0,0,.84.46,2.22,2.22,0,0,0,.86.16,1.81,1.81,0,0,0,.81-.21,2.25,2.25,0,0,0,.72-.67,1.85,1.85,0,0,0,.37-1.47,2.22,2.22,0,0,0-1-1.31,2.35,2.35,0,0,0-1.21-.47,2.49,2.49,0,0,0-1.27.23l-.53-1a3.44,3.44,0,0,1,1.85-.34,3.68,3.68,0,0,1,1.75.7,4.33,4.33,0,0,1,.92.89,3.27,3.27,0,0,1,.52,1.06,2.8,2.8,0,0,1-.47,2.35,2.73,2.73,0,0,1-.64.63,2.6,2.6,0,0,1-.77.37,3,3,0,0,1-.84.12,2.76,2.76,0,0,1-.82-.12l0,.05a2.64,2.64,0,0,1,.51.81,2.6,2.6,0,0,1,.18.92,3,3,0,0,1-.59,1.88,3.17,3.17,0,0,1-1,1,2.89,2.89,0,0,1-1.23.38,3.62,3.62,0,0,1-1.3-.15,4.65,4.65,0,0,1-1.26-.63,4.21,4.21,0,0,1-1.46-1.71,3.26,3.26,0,0,1-.13-2.22l1.21.4a2.41,2.41,0,0,0,0,1.48,2.78,2.78,0,0,0,1.08,1.24,2.54,2.54,0,0,0,.83.4,2.44,2.44,0,0,0,.89.07,2.17,2.17,0,0,0,.83-.29,2.11,2.11,0,0,0,.67-.63,2.22,2.22,0,0,0,.43-1,2,2,0,0,0-.1-1,2.74,2.74,0,0,0-.53-.85,4.39,4.39,0,0,0-.81-.73l-.4-.28Z"/><path d="M178.4,157.88l-3.77-2.67-2,2.73a3.51,3.51,0,0,1,.73.26,4.94,4.94,0,0,1,.67.4,3.7,3.7,0,0,1,1,1.06,3.4,3.4,0,0,1,.48,1.27,3.74,3.74,0,0,1-.07,1.37,3.86,3.86,0,0,1-.63,1.33,3.69,3.69,0,0,1-1.1,1.06,3.44,3.44,0,0,1-1.33.48,3.61,3.61,0,0,1-1.42-.08,4.19,4.19,0,0,1-1.39-.65,3.78,3.78,0,0,1-1.28-1.54,3.37,3.37,0,0,1-.21-2l1.22.27a2.67,2.67,0,0,0,.11,1.38,2.28,2.28,0,0,0,.86,1.09,2.44,2.44,0,0,0,.93.42,2.65,2.65,0,0,0,1,0,2.53,2.53,0,0,0,.9-.34,2.56,2.56,0,0,0,.74-.69,2.86,2.86,0,0,0,.46-1,2.56,2.56,0,0,0,0-1,2.52,2.52,0,0,0-.4-1,3.23,3.23,0,0,0-.8-.81,4.61,4.61,0,0,0-1.08-.56,5.53,5.53,0,0,0-1.2-.29l3.49-4.72L179,157Z"/><path d="M179.56,163.91a2.07,2.07,0,0,1-.34-.7,2.35,2.35,0,0,1-.1-.79,2.75,2.75,0,0,1,.14-.8,2.41,2.41,0,0,1,.38-.75,2.75,2.75,0,0,1,.92-.85,2.66,2.66,0,0,1,1.1-.37,3.07,3.07,0,0,1,1.16.1,3.37,3.37,0,0,1,1.11.54,3.59,3.59,0,0,1,.87.87,2.85,2.85,0,0,1,.48,1.07,2.66,2.66,0,0,1,0,1.16,2.85,2.85,0,0,1-.5,1.15,2.8,2.8,0,0,1-.59.6,2.94,2.94,0,0,1-.71.4,2.58,2.58,0,0,1-.77.16,2,2,0,0,1-.77-.09l0,0a2.73,2.73,0,0,1,.64,1.75,3.19,3.19,0,0,1-.65,1.9,2.91,2.91,0,0,1-1,.91,3.19,3.19,0,0,1-1.22.37,3.28,3.28,0,0,1-1.31-.13,4.21,4.21,0,0,1-1.24-.61,4.35,4.35,0,0,1-1-1,3.48,3.48,0,0,1-.55-1.19,3.43,3.43,0,0,1-.05-1.28,3.07,3.07,0,0,1,.53-1.26,3.28,3.28,0,0,1,1.58-1.23,2.73,2.73,0,0,1,1.87,0Zm1.53,4.58a2.42,2.42,0,0,0,.39-.85,2.37,2.37,0,0,0,0-.88,2.11,2.11,0,0,0-.34-.85,2.85,2.85,0,0,0-.71-.72,2.76,2.76,0,0,0-.92-.44,2.17,2.17,0,0,0-.91,0,2.13,2.13,0,0,0-.82.32,2.29,2.29,0,0,0-.68.64,2.46,2.46,0,0,0-.39.86,2.18,2.18,0,0,0,0,.88,2,2,0,0,0,.33.83,3,3,0,0,0,1.64,1.17,2.35,2.35,0,0,0,.91.05,2.3,2.3,0,0,0,.82-.32A2.33,2.33,0,0,0,181.09,168.49Zm2.72-4.54a2.34,2.34,0,0,0,.34-.74,2,2,0,0,0,0-.76,2.07,2.07,0,0,0-.28-.71,1.88,1.88,0,0,0-.57-.59,2,2,0,0,0-.74-.34,2,2,0,0,0-.76,0,1.87,1.87,0,0,0-.71.27,2.09,2.09,0,0,0-.59.56,2.06,2.06,0,0,0-.34.74,2,2,0,0,0,0,.76,2.07,2.07,0,0,0,.28.71,2.12,2.12,0,0,0,.57.59,2,2,0,0,0,.74.34,1.9,1.9,0,0,0,1.47-.24A2.23,2.23,0,0,0,183.81,164Z"/><path d="M188.82,170.75c.16-.22.32-.46.47-.69l.43-.71.93.66-.66.92,0,0a2.46,2.46,0,0,1,1.44-.19,3,3,0,0,1,1.29.51,3.83,3.83,0,0,1,.5.43,2.54,2.54,0,0,1,.4.57,2.31,2.31,0,0,1,.22.73,2.71,2.71,0,0,1-.07.92,2.48,2.48,0,0,1,1.49-.34,2.79,2.79,0,0,1,1.42.5,2.71,2.71,0,0,1,1.29,1.85,3.11,3.11,0,0,1-.7,2.17L194.55,182l-.86-.61,2.53-3.56a3.21,3.21,0,0,0,.69-1.66,1.66,1.66,0,0,0-.86-1.35,2,2,0,0,0-1-.39,1.77,1.77,0,0,0-.88.13,2.61,2.61,0,0,0-.8.5,4.5,4.5,0,0,0-.68.76L190.43,179l-.86-.61,2.53-3.56a3.21,3.21,0,0,0,.69-1.66,1.66,1.66,0,0,0-.87-1.35,2.61,2.61,0,0,0-.39-.21,1.71,1.71,0,0,0-.79-.12,2.51,2.51,0,0,0-1,.32,3.48,3.48,0,0,0-1.16,1.13l-2.23,3.13-.86-.61Z"/><path d="M199.93,178.65l.47-.69.43-.71.93.66-.66.92,0,0a2.46,2.46,0,0,1,1.44-.19,3.06,3.06,0,0,1,1.3.51,4.57,4.57,0,0,1,.49.43,2.16,2.16,0,0,1,.4.57,2.31,2.31,0,0,1,.22.73,2.64,2.64,0,0,1-.07.91,2.47,2.47,0,0,1,1.49-.33,2.79,2.79,0,0,1,1.42.5,2.71,2.71,0,0,1,1.29,1.85,3.11,3.11,0,0,1-.69,2.16l-2.76,3.88-.86-.61,2.53-3.56A3.21,3.21,0,0,0,208,184a1.66,1.66,0,0,0-.86-1.35,2,2,0,0,0-.95-.39,1.77,1.77,0,0,0-.88.13,2.61,2.61,0,0,0-.8.5,4.14,4.14,0,0,0-.68.76l-2.31,3.25-.86-.61,2.53-3.56a3.21,3.21,0,0,0,.69-1.66,1.66,1.66,0,0,0-.86-1.35,3.81,3.81,0,0,0-.4-.21,1.69,1.69,0,0,0-.78-.12,2.5,2.5,0,0,0-1.05.32,3.59,3.59,0,0,0-1.17,1.13L197.42,184l-.86-.61Z"/></g><line class="cls-3" x1="154.76" y1="163.62" x2="181.25" y2="182.24"/><line class="cls-3" x1="154.81" y1="163.55" x2="154.71" y2="163.69"/><line class="cls-3" x1="181.3" y1="182.17" x2="181.2" y2="182.31"/><line class="cls-3" x1="155.2" y1="163.01" x2="154.32" y2="164.24"/><line class="cls-3" x1="181.69" y1="181.63" x2="180.81" y2="182.85"/><g class="cls-4"><path class="cls-5" d="M147,172.77l.11-.11m.12-.11h.11v-.11l.11-.12v-.11l.11-.11V172m-1.34,1h.11m.45-43.45h.33l.23.11.11.22.11.12-.11.11-.11.11-.23.11m-1.56,42.34v.11M155.76,180h-.12m5.7,3.8h.11m-16-11.28v.11l.11.11m-.11-.22v.11h.11m1.56,0,.12-.11M146.82,130V53.58m-1,76.07.34-.11m10,50.94.45.34.56.33,1.23.9,1.23.78.55.33.34.22.33.23.23.11.11.11.11.11-.11-.11-.11-.11-.23-.11m-15.3-10.84h0l.11.11m9.5,6.82-.45-.11-.33-.12-.45-.22-.45-.11-.78-.22-.78-.23-.45-.11-.45-.11h-.44l-.45-.11h-.34l-.44-.12h-3l-.45.12h-.78l-.44.11-.45.11h-.45l-.33.11-.45.11-.45.12-.44.11-.34.11-.44.22-.45.11-.34.12-.44.22-.34.11-.45.23-.33.22-.34.22-.44.11-.34.23-.33.22-.45.22-.34.34-.33.22-.33.23-.34.33-.34.22-.33.34-.34.22-.33.34-.56.56-.56.67-.56.67-.56.67-.44.67-.45.78-.45.78-.44.78-.11.34-.23.45-.11.33-.22.45-.11.33-.12.45-.11.45-.22.33-.11.9-.23.89-.11.78-.11.89-.11.9v2.12l.11.45v.45l.11.44v.34l.11.44v.45l.11.45.12.44.11.34.11.45.11.44.11.34.23.44.11.45.11.34.22.44.23.34.33.78.45.78.45.78.44.68.23.33.33.33.22.34.34.33.22.34.34.34.22.33.34.22.33.34.34.33.33.23.34.33m19.55-33h.11l.22.22.34.23.44.22.45.33.56.34,1.23.89,1.23.78.44.34.45.33.22.11m-14.07-53.84.33.11.12.11V130l-.12.22h-.22m.11,42.56h-.11v.11m-1.12-43.23-.22.11-.11.11h-.11v.23l.22.22.33.11h.9l.33-.11M155.64,180l-.22-.11-.11-.11-.11-.11v.11l.11.11.22.11.34.23.33.22M146.26,173H146m.78-43v.11h-.56l-.11-.11m-.23,43H146M138.55,49.56l.22.23.12.22.22.22.22.23.12.22.22.22.22.12.23.22.22.22.22.11.23.23.22.11.22.22.23.11.33.23.22.11.23.11.33.11.23.11L143,53l.34.11.22.11h.34l.22.11.33.11H145l.22.11h2.35l.22-.11h.34l.22-.11h.34l.22-.11h.34l.22-.11.22-.11.34-.12.22-.11.23-.11.33-.11.22-.22.23-.12.22-.11.34-.22.22-.11.22-.23.23-.11.22-.22L153,51l.11-.23.23-.11.22-.22.23-.23.11-.22.22-.22.11-.23m2.35,131.14.33.23.45.33,1.12.67,1,.78.45.23.33.22.34.22.22.23h.11m0,0v-.12m-1.56-1.33-.45-.34-.56-.33-.44-.34-.45-.33-.22-.12-.11-.11.11.11h.11l.22.23.45.33.56.34.56.33.33.34.23.11h.11l-.11-.11Zm-4-2.57v.11l.22.11.34.22.44.34.45.33.56.34,1.23.89,1.23.78.44.34.45.22.34.22.22.23h.11l.11.11M171.51,188,147.6,171.65m0,.23V130m22.9,59.54-24.8-16.65M145.37,130l.11,42.56m11.62,8-1.79-1m-9.72-6.82v.11h.11m15.75,11-1.67-1.45m-24.13,30.27.33.23.34.33.33.23.45.33.78.45.78.44.34.23.45.22.44.11.34.22.89.34.89.34.45.11.45.11.45.11.44.11.45.11h.45l.44.12h.45l.45.11h.89l.45.11h.89l.45-.11h.89l.45-.11h.45l.44-.12.45-.11.45-.11h.44l.45-.22.45-.11.44-.12.45-.11.45-.22.78-.34.89-.33.34-.22.45-.23.44-.22.34-.22.78-.56.78-.45.34-.33.33-.23.34-.33.33-.34.67-.67.67-.67.23-.34.33-.33.22-.34.34-.33.22-.45.34-.33.22-.34.22-.44.45-.78.45-.79.22-.44.11-.45.23-.45.11-.33.33-.9.23-.89.11-.45.11-.44.11-.45.11-.45v-.44l.12-.45v-.56l.11-.45v-2.23l-.11-.45v-1l-.12-.45v-.45l-.11-.44-.11-.45-.22-.9-.23-.89-.22-.45-.11-.33-.11-.45-.23-.44-.22-.45-.11-.45-.23-.33-.22-.45-.22-.34-.23-.44-.22-.34-.22-.44-.34-.34-.22-.45-.34-.33-.22-.34-.33-.33-.34-.34-.22-.33-.34-.34M145.92,173h-.11v-.11h-.11M146,53.58l.11,76.41m1.45,41.89V172m-.67.89h-.22l-.11.11h-.23M146,129.65h.11m24.35,59.88.23.11h.33l.33-.22.23-.23.11-.33.11-.45-.11-.33-.22-.12m-24.58-57.75-.22.11H146l-.23-.11-.11-.11v-.23l.11-.11.23-.11m9.27,49.94-.11.11M152.74,47.33l-.45-.22-.56-.12-.55-.11-.67-.22-1.46-.22-1.56-.12h-1.68l-1.56.12-1.45.22-1.23.22L141,47l-.45.23-.56.11-.44.22-.34.22-.33.23-.23.34-.22.22-.11.22v.34l.11.22.22.33.23.23.33.22.34.22.33.23.56.11.45.22.67.12.67.11,1.45.33,1.68.11H147l1.57-.11,1.45-.22,1.23-.22.56-.12.55-.22.56-.22.34-.23.45-.22.22-.22.22-.23.23-.33v-.56l-.12-.22-.22-.23-.22-.22-.34-.23-.33-.22Zm2.9,132.7h0l.12.12.33.22.45.33"/></g><g class="cls-2"><path d="M77.54,195.08l10.27,4.55v1.3l-10.27-4.65v5.51H76.48v-6.71Z"/><path d="M76.29,189.31a3.21,3.21,0,0,1,.56-2,3.89,3.89,0,0,1,1.43-1.17,6,6,0,0,1,1.89-.56,13.82,13.82,0,0,1,2-.15,13.58,13.58,0,0,1,2,.15,6.17,6.17,0,0,1,1.9.56,3.78,3.78,0,0,1,1.42,1.17,3.67,3.67,0,0,1,0,3.93A3.69,3.69,0,0,1,86,192.45a6.17,6.17,0,0,1-1.9.56,13.58,13.58,0,0,1-2,.15,13.82,13.82,0,0,1-2-.15,6,6,0,0,1-1.89-.56,3.79,3.79,0,0,1-1.43-1.17A3.22,3.22,0,0,1,76.29,189.31Zm1.06,0a2,2,0,0,0,.5,1.47,3.08,3.08,0,0,0,1.23.81,6.09,6.09,0,0,0,1.57.34c.55,0,1,.07,1.5.07s.95,0,1.5-.07a6.09,6.09,0,0,0,1.57-.34,3.08,3.08,0,0,0,1.23-.81,2.4,2.4,0,0,0,0-2.93,3.08,3.08,0,0,0-1.23-.81,6.09,6.09,0,0,0-1.57-.34c-.55,0-1.05-.07-1.5-.07s-1,0-1.5.07a6.09,6.09,0,0,0-1.57.34,3.08,3.08,0,0,0-1.23.81A2,2,0,0,0,77.35,189.31Z"/><path d="M87.81,176.9v7.2H86.48l-4.59-4.51-.54-.51a4.51,4.51,0,0,0-.61-.47,3,3,0,0,0-.67-.33,2.06,2.06,0,0,0-.74-.13,1.87,1.87,0,0,0-.83.17,1.68,1.68,0,0,0-.62.47,2.29,2.29,0,0,0-.4.7,2.65,2.65,0,0,0-.13.85,2.28,2.28,0,0,0,.48,1.47,2.17,2.17,0,0,0,1.29.79L79,183.81a3.18,3.18,0,0,1-2-1.16,3.51,3.51,0,0,1-.72-2.23,4.26,4.26,0,0,1,.19-1.3A3.11,3.11,0,0,1,77,178a2.5,2.5,0,0,1,.92-.75,2.79,2.79,0,0,1,1.29-.28,3.36,3.36,0,0,1,1.2.2,4.86,4.86,0,0,1,1,.51,7.1,7.1,0,0,1,.91.73c.29.27.57.56.85.84l3.54,3.57V176.9Z"/><path d="M82,170.37c-.28,0-.56,0-.83,0l-.84,0v-1.13h1.14v0a2.41,2.41,0,0,1-1-1.06,2.94,2.94,0,0,1-.34-1.35,3.07,3.07,0,0,1,.07-.65,2.25,2.25,0,0,1,.23-.66,2,2,0,0,1,.47-.6,2.41,2.41,0,0,1,.79-.48,2.43,2.43,0,0,1-1.14-1,3.07,3.07,0,0,1,.34-3.58,3.12,3.12,0,0,1,2.17-.69h4.75v1.06H83.44a3.16,3.16,0,0,0-1.74.4,1.67,1.67,0,0,0-.61,1.49,1.82,1.82,0,0,0,.85,1.64,3.07,3.07,0,0,0,.87.36,4.9,4.9,0,0,0,1,.11h4v1.06H83.44a3.25,3.25,0,0,0-1.74.39,1.68,1.68,0,0,0-.61,1.49,2.52,2.52,0,0,0,.07.44,1.71,1.71,0,0,0,.35.72,2.67,2.67,0,0,0,.86.66,3.53,3.53,0,0,0,1.6.3h3.84v1.05Z"/><path d="M82,156.74l-.83,0-.84.06v-1.14h1.14v0a2.41,2.41,0,0,1-1-1.06,2.91,2.91,0,0,1-.27-2,2.42,2.42,0,0,1,.23-.67,2.34,2.34,0,0,1,.47-.6,2.58,2.58,0,0,1,.79-.47,2.43,2.43,0,0,1-1.14-1,3.07,3.07,0,0,1,.34-3.58,3.12,3.12,0,0,1,2.17-.69h4.75v1.06H83.44a3.16,3.16,0,0,0-1.74.4,1.65,1.65,0,0,0-.61,1.49,2,2,0,0,0,.23,1,2.14,2.14,0,0,0,.62.65,3.07,3.07,0,0,0,.87.36,4.9,4.9,0,0,0,1,.11h4v1.05H83.44a3.25,3.25,0,0,0-1.74.4,1.68,1.68,0,0,0-.61,1.49,2.52,2.52,0,0,0,.07.44,1.62,1.62,0,0,0,.35.71,2.55,2.55,0,0,0,.86.67,3.69,3.69,0,0,0,1.6.29h3.84v1.06Z"/></g><g class="cls-2"><path d="M84.07,115.82v-1.63h1.05v1.63h2.69V117H85.12v4.9H83.81l-7.33-4.58v-1.47ZM77.64,117v0l6.43,3.91V117Z"/><path d="M76.29,109.13a3.24,3.24,0,0,1,.56-2A3.89,3.89,0,0,1,78.28,106a6.6,6.6,0,0,1,1.89-.56,15.36,15.36,0,0,1,2-.14,15.09,15.09,0,0,1,2,.14A6.77,6.77,0,0,1,86,106a3.78,3.78,0,0,1,1.42,1.17,3.69,3.69,0,0,1,0,3.94A3.78,3.78,0,0,1,86,112.27a6.77,6.77,0,0,1-1.9.56,15.09,15.09,0,0,1-2,.14,15.36,15.36,0,0,1-2-.14,6.6,6.6,0,0,1-1.89-.56,3.89,3.89,0,0,1-1.43-1.17A3.24,3.24,0,0,1,76.29,109.13Zm1.06,0a2,2,0,0,0,.5,1.46,3.08,3.08,0,0,0,1.23.81,6.09,6.09,0,0,0,1.57.35c.55,0,1,.07,1.5.07s.95,0,1.5-.07a6.09,6.09,0,0,0,1.57-.35,3.08,3.08,0,0,0,1.23-.81,2.38,2.38,0,0,0,0-2.92,3.08,3.08,0,0,0-1.23-.81,6.09,6.09,0,0,0-1.57-.35c-.55,0-1.05-.07-1.5-.07s-1,0-1.5.07a6.09,6.09,0,0,0-1.57.35,3.08,3.08,0,0,0-1.23.81A2,2,0,0,0,77.35,109.13Z"/><path d="M76.29,100.23a3.21,3.21,0,0,1,.56-2,3.89,3.89,0,0,1,1.43-1.17,6,6,0,0,1,1.89-.56,13.82,13.82,0,0,1,2-.15,13.58,13.58,0,0,1,2,.15,6.17,6.17,0,0,1,1.9.56,3.78,3.78,0,0,1,1.42,1.17,3.67,3.67,0,0,1,0,3.93A3.78,3.78,0,0,1,86,103.37a6.45,6.45,0,0,1-1.9.56,13.53,13.53,0,0,1-2,.14,13.76,13.76,0,0,1-2-.14,6.3,6.3,0,0,1-1.89-.56,3.89,3.89,0,0,1-1.43-1.17A3.22,3.22,0,0,1,76.29,100.23Zm1.06,0a2,2,0,0,0,.5,1.47,3.08,3.08,0,0,0,1.23.81,6.09,6.09,0,0,0,1.57.34c.55.05,1,.07,1.5.07s.95,0,1.5-.07a6.09,6.09,0,0,0,1.57-.34,3.08,3.08,0,0,0,1.23-.81,2.4,2.4,0,0,0,0-2.93A3.08,3.08,0,0,0,85.22,98a6.09,6.09,0,0,0-1.57-.34c-.55-.05-1.05-.07-1.5-.07s-1,0-1.5.07a6.09,6.09,0,0,0-1.57.34,3.08,3.08,0,0,0-1.23.81A2,2,0,0,0,77.35,100.23Z"/><path d="M76.29,91.34a3.24,3.24,0,0,1,.56-2,3.89,3.89,0,0,1,1.43-1.17,6.6,6.6,0,0,1,1.89-.56,15.36,15.36,0,0,1,2-.14,15.09,15.09,0,0,1,2,.14,6.77,6.77,0,0,1,1.9.56,3.78,3.78,0,0,1,1.42,1.17,3.69,3.69,0,0,1,0,3.94A3.66,3.66,0,0,1,86,94.47a6.17,6.17,0,0,1-1.9.56,13.58,13.58,0,0,1-2,.15,13.82,13.82,0,0,1-2-.15,6,6,0,0,1-1.89-.56,3.77,3.77,0,0,1-1.43-1.16A3.24,3.24,0,0,1,76.29,91.34Zm1.06,0a2,2,0,0,0,.5,1.46,3.08,3.08,0,0,0,1.23.81,5.7,5.7,0,0,0,1.57.34c.55,0,1,.08,1.5.08s.95,0,1.5-.08a5.7,5.7,0,0,0,1.57-.34,3.08,3.08,0,0,0,1.23-.81,2.05,2.05,0,0,0,.5-1.46,2.09,2.09,0,0,0-.5-1.47,3.17,3.17,0,0,0-1.23-.8,6.09,6.09,0,0,0-1.57-.35c-.55,0-1.05-.07-1.5-.07s-1,0-1.5.07a6.09,6.09,0,0,0-1.57.35,3.17,3.17,0,0,0-1.23.8A2,2,0,0,0,77.35,91.34Z"/><path d="M82,81.29l-.83,0-.84.06V80.23h1.14v0a2.41,2.41,0,0,1-1-1.06,3,3,0,0,1-.34-1.35,3,3,0,0,1,.07-.65,2.42,2.42,0,0,1,.23-.67,2.34,2.34,0,0,1,.47-.6,2.58,2.58,0,0,1,.79-.47,2.43,2.43,0,0,1-1.14-1,3.07,3.07,0,0,1,.34-3.58,3.12,3.12,0,0,1,2.17-.69h4.75v1.06H83.44a3.16,3.16,0,0,0-1.74.4,1.67,1.67,0,0,0-.61,1.49,1.82,1.82,0,0,0,.85,1.64,3.07,3.07,0,0,0,.87.36,4.9,4.9,0,0,0,1,.11h4v1H83.44a3.25,3.25,0,0,0-1.74.4,1.68,1.68,0,0,0-.61,1.49,2.52,2.52,0,0,0,.07.44,1.62,1.62,0,0,0,.35.71,2.55,2.55,0,0,0,.86.67,3.55,3.55,0,0,0,1.6.29h3.84v1.06Z"/><path d="M82,67.66l-.83,0-.84.06V66.6h1.14v0a2.47,2.47,0,0,1-1-1.06,2.91,2.91,0,0,1-.27-2,2.42,2.42,0,0,1,.23-.67,2.34,2.34,0,0,1,.47-.6,2.58,2.58,0,0,1,.79-.47,2.4,2.4,0,0,1-1.14-1,2.73,2.73,0,0,1-.42-1.44,2.76,2.76,0,0,1,.76-2.13,3.12,3.12,0,0,1,2.17-.69h4.75v1.06H83.44a3.16,3.16,0,0,0-1.74.4,1.65,1.65,0,0,0-.61,1.48,2,2,0,0,0,.23,1,2,2,0,0,0,.62.64,2.58,2.58,0,0,0,.87.36,4.31,4.31,0,0,0,1,.12h4V62.6H83.44a3.25,3.25,0,0,0-1.74.4,1.68,1.68,0,0,0-.61,1.49,2.67,2.67,0,0,0,.07.44,1.62,1.62,0,0,0,.35.71,2.55,2.55,0,0,0,.86.67,3.69,3.69,0,0,0,1.6.29h3.84v1.06Z"/></g><line class="cls-3" x1="98.7" y1="217.52" x2="98.7" y2="131.69"/><line class="cls-3" x1="96.86" y1="131.67" x2="100.4" y2="131.67"/><line class="cls-3" x1="96.18" y1="217.52" x2="101.23" y2="217.52"/><line class="cls-3" x1="98.7" y1="131.67" x2="98.7" y2="47.06"/><line class="cls-3" x1="96.86" y1="47.03" x2="100.4" y2="47.03"/><line class="cls-3" x1="96.18" y1="131.67" x2="101.23" y2="131.67"/></svg>