<svg id="IC_Lights_T1_Low" xmlns="http://www.w3.org/2000/svg" xmlns:xlink="http://www.w3.org/1999/xlink" viewBox="0 0 300 263"><defs><style>.cls-1,.cls-2,.cls-5{fill:none;}.cls-2{stroke:#000;}.cls-2,.cls-5{stroke-width:0.5px;}.cls-3{isolation:isolate;}.cls-4{clip-path:url(#clip-path);}.cls-5{stroke:#1d1d1b;stroke-miterlimit:2;}</style><clipPath id="clip-path"><rect class="cls-1" x="105.98" y="92.67" width="88.04" height="124.33"/></clipPath></defs><title>ic-table-1low-anastassiades-flos-F3171059-spech-tech-02-300x263</title><line class="cls-2" x1="127.78" y1="225.82" x2="173.51" y2="217.98"/><line class="cls-2" x1="127.5" y1="224.17" x2="128.07" y2="227.47"/><line class="cls-2" x1="173.23" y1="216.32" x2="173.8" y2="219.63"/><g class="cls-3"><path d="M127.92,241.25l-1.18.2-1.67-9.74-1.78,2.12-.88-.72,2.54-2.84,1-.18Z"/><path d="M137.35,229.21l-2.93,10.93-1.33.22,3-10.94-5.65,1-.18-1,6.88-1.18Z"/><path d="M142.48,232.2l0,0a2,2,0,0,1,.69-.41,3.86,3.86,0,0,1,.84-.24,3.71,3.71,0,0,1,1.45,0,3.36,3.36,0,0,1,2.68,2.83,3.52,3.52,0,0,1,0,1.45,3.4,3.4,0,0,1-.6,1.22,3.69,3.69,0,0,1-1.08.91,4.72,4.72,0,0,1-3,.52,3.81,3.81,0,0,1-1.32-.5,3.29,3.29,0,0,1-1-1,3.49,3.49,0,0,1-.52-1.35,4.49,4.49,0,0,1,0-1.68,8.88,8.88,0,0,1,.48-1.49l2.28-5.44,1.39-.24Zm-.65,3.31a2.43,2.43,0,0,0,.36.94,2.11,2.11,0,0,0,.66.67,2.37,2.37,0,0,0,.9.36,3.37,3.37,0,0,0,2.1-.36,2.27,2.27,0,0,0,.73-.64,2.08,2.08,0,0,0,.4-.85,2.29,2.29,0,0,0,0-1,2.46,2.46,0,0,0-.35-1A2.31,2.31,0,0,0,146,233a2.71,2.71,0,0,0-.91-.36,2.8,2.8,0,0,0-1.08,0,2.78,2.78,0,0,0-1.75,1,2.3,2.3,0,0,0-.4.85A2.62,2.62,0,0,0,141.83,235.51Z"/><path d="M154.28,230.82c-.05-.27-.11-.54-.17-.81s-.13-.55-.2-.81l1.17-.2.19,1.12h0a2.49,2.49,0,0,1,.92-1.16,3.17,3.17,0,0,1,1.33-.57,3.51,3.51,0,0,1,.67,0,2.57,2.57,0,0,1,.72.11,2.08,2.08,0,0,1,.69.36,2.62,2.62,0,0,1,.62.69,2.5,2.5,0,0,1,.85-1.3,3,3,0,0,1,1.41-.66,2.87,2.87,0,0,1,2.3.37,3,3,0,0,1,1.08,2l.8,4.68-1.08.19-.74-4.31a3.16,3.16,0,0,0-.7-1.65,1.76,1.76,0,0,0-1.63-.33,2,2,0,0,0-1,.4,2.07,2.07,0,0,0-.56.72,2.76,2.76,0,0,0-.22.92,4.44,4.44,0,0,0,.06,1l.68,3.93-1.09.18-.73-4.3a3.09,3.09,0,0,0-.71-1.65,1.73,1.73,0,0,0-1.62-.34,3.11,3.11,0,0,0-.44.14,1.79,1.79,0,0,0-.67.48,2.57,2.57,0,0,0-.54,1,3.62,3.62,0,0,0,0,1.63l.65,3.79-1.08.18Z"/><path d="M168.23,228.43c0-.27-.11-.55-.17-.82s-.13-.54-.2-.81l1.16-.2.2,1.12h0a2.52,2.52,0,0,1,.92-1.17,3.3,3.3,0,0,1,1.33-.57,4.57,4.57,0,0,1,.67,0,2.58,2.58,0,0,1,.72.12,2.08,2.08,0,0,1,.69.36,2.34,2.34,0,0,1,.62.69,2.46,2.46,0,0,1,.85-1.3,2.93,2.93,0,0,1,1.41-.67,2.87,2.87,0,0,1,2.3.38,3,3,0,0,1,1.07,2l.81,4.69-1.08.18-.74-4.3a3.09,3.09,0,0,0-.7-1.65,1.76,1.76,0,0,0-1.63-.34,2.25,2.25,0,0,0-1,.4,2,2,0,0,0-.56.73,2.7,2.7,0,0,0-.22.92,4.44,4.44,0,0,0,.06,1l.67,3.93-1.08.18-.73-4.3a3.09,3.09,0,0,0-.71-1.65,1.71,1.71,0,0,0-1.62-.34,3.11,3.11,0,0,0-.44.14,1.75,1.75,0,0,0-.67.47,2.62,2.62,0,0,0-.54,1,3.62,3.62,0,0,0,0,1.63l.65,3.78-1.08.19Z"/></g><line class="cls-2" x1="98.67" y1="197.52" x2="98.48" y2="137.2"/><line class="cls-2" x1="99.87" y1="197.52" x2="97.46" y2="197.53"/><line class="cls-2" x1="99.68" y1="137.19" x2="97.27" y2="137.2"/><g class="cls-3"><path d="M83.27,196.77a3.62,3.62,0,0,1,1.17-.69,3.84,3.84,0,0,1,1.45-.24,4,4,0,0,1,1.57.33,3.76,3.76,0,0,1,1.24.87,4,4,0,0,1,.8,1.31,4.56,4.56,0,0,1,.28,1.68,4.74,4.74,0,0,1-.24,1.45,4.18,4.18,0,0,1-.63,1.14L90,203.75l-.51.53-1.07-1.12a3.62,3.62,0,0,1-1.18.7,4,4,0,0,1-1.44.24,4,4,0,0,1-1.56-.33A3.76,3.76,0,0,1,83,202.9a3.85,3.85,0,0,1-.81-1.32,4.43,4.43,0,0,1-.27-1.65,4.5,4.5,0,0,1,.23-1.45,4.24,4.24,0,0,1,.63-1.19l-1.07-1.1.5-.53Zm.24,1.3a2.84,2.84,0,0,0-.64,1.87,3,3,0,0,0,.21,1.22,2.71,2.71,0,0,0,.62.92,3,3,0,0,0,.94.6,3.42,3.42,0,0,0,1.16.22,2.93,2.93,0,0,0,1.84-.54Zm4.68,3.8a3,3,0,0,0,.45-.83,3.31,3.31,0,0,0,.18-1,3.16,3.16,0,0,0-.22-1.22,2.86,2.86,0,0,0-.62-.93,2.61,2.61,0,0,0-.94-.6,3.19,3.19,0,0,0-1.16-.22,3,3,0,0,0-1.83.54Z"/><path d="M89.81,182.2l-.09,7.47H88.39l-4.53-4.74-.54-.54a5.58,5.58,0,0,0-.6-.49,3.36,3.36,0,0,0-.67-.36,2,2,0,0,0-.74-.14,1.87,1.87,0,0,0-.83.16,1.79,1.79,0,0,0-.63.49,2.1,2.1,0,0,0-.4.72,2.85,2.85,0,0,0-.15.88,2.44,2.44,0,0,0,.46,1.53,2.15,2.15,0,0,0,1.29.83l-.15,1.26a3.1,3.1,0,0,1-2-1.22,3.66,3.66,0,0,1-.69-2.33,4.54,4.54,0,0,1,.2-1.35,3.32,3.32,0,0,1,.56-1.13,2.76,2.76,0,0,1,.93-.76,2.79,2.79,0,0,1,1.29-.28,3.51,3.51,0,0,1,1.2.22,5.07,5.07,0,0,1,1,.56,7.11,7.11,0,0,1,.9.76c.28.29.56.58.84.89l3.49,3.75.07-6.18Z"/><path d="M78.36,176.47a3.4,3.4,0,0,1,.59-2,3.81,3.81,0,0,1,1.44-1.2,6.16,6.16,0,0,1,1.9-.55,12.41,12.41,0,0,1,2-.13,15.43,15.43,0,0,1,2,.17,6.08,6.08,0,0,1,1.89.61,4,4,0,0,1,1.41,1.23,4,4,0,0,1-.05,4.09,3.87,3.87,0,0,1-1.44,1.19,6.23,6.23,0,0,1-1.91.56,13.43,13.43,0,0,1-2,.12,12.61,12.61,0,0,1-2-.17,6.25,6.25,0,0,1-1.89-.61,3.69,3.69,0,0,1-1.4-1.23A3.4,3.4,0,0,1,78.36,176.47Zm1.06,0a2.2,2.2,0,0,0,.47,1.52,3.18,3.18,0,0,0,1.23.86,5.57,5.57,0,0,0,1.56.37c.55.06,1,.09,1.5.1s.95,0,1.51-.06a5.77,5.77,0,0,0,1.57-.33,3.15,3.15,0,0,0,1.24-.83,2.56,2.56,0,0,0,0-3,3.13,3.13,0,0,0-1.22-.85,5.73,5.73,0,0,0-1.57-.38,13.94,13.94,0,0,0-1.5-.09c-.45,0-1,0-1.5.05a6.26,6.26,0,0,0-1.58.34,3.21,3.21,0,0,0-1.24.82A2.24,2.24,0,0,0,79.42,176.49Z"/><path d="M78.48,167.24a3.45,3.45,0,0,1,.58-2A3.87,3.87,0,0,1,80.5,164a6.23,6.23,0,0,1,1.91-.56,13.43,13.43,0,0,1,2-.12,12.61,12.61,0,0,1,2,.17,6.25,6.25,0,0,1,1.89.61,3.86,3.86,0,0,1,1.41,1.22,3.51,3.51,0,0,1,.53,2.06,3.4,3.4,0,0,1-.59,2,3.85,3.85,0,0,1-1.43,1.2,6.3,6.3,0,0,1-1.91.55,13.7,13.7,0,0,1-2,.13,13.87,13.87,0,0,1-2-.18,6.07,6.07,0,0,1-1.89-.6A4,4,0,0,1,79,169.29,3.49,3.49,0,0,1,78.48,167.24Zm1,0a2.25,2.25,0,0,0,.48,1.53,3.13,3.13,0,0,0,1.22.85,5.73,5.73,0,0,0,1.57.38,13.94,13.94,0,0,0,1.5.09c.45,0,1,0,1.5,0a6.26,6.26,0,0,0,1.58-.34,3.21,3.21,0,0,0,1.24-.82,2.26,2.26,0,0,0,.51-1.52,2.2,2.2,0,0,0-.47-1.52,3.22,3.22,0,0,0-1.22-.86,5.72,5.72,0,0,0-1.57-.37c-.55-.06-1.05-.09-1.5-.1s-1,0-1.51.06a5.85,5.85,0,0,0-1.57.33,3.15,3.15,0,0,0-1.24.83A2.17,2.17,0,0,0,79.53,167.25Z"/><path d="M84.3,156.88c-.27,0-.55,0-.83,0l-.83.05,0-1.18,1.13,0v0a2.55,2.55,0,0,1-1-1.12,3.12,3.12,0,0,1-.31-1.4,3.34,3.34,0,0,1,.07-.68,2.21,2.21,0,0,1,.24-.68,2.12,2.12,0,0,1,.48-.62,2.52,2.52,0,0,1,.79-.48A2.46,2.46,0,0,1,83,149.69a3.29,3.29,0,0,1,.39-3.71,3,3,0,0,1,2.17-.68l4.76.06,0,1.09-4.37,0a3.11,3.11,0,0,0-1.75.39,1.77,1.77,0,0,0-.62,1.54,1.94,1.94,0,0,0,.22,1,1.88,1.88,0,0,0,.6.68,2.64,2.64,0,0,0,.87.39,4.82,4.82,0,0,0,1,.13l4,.05v1.09l-4.37,0a3.09,3.09,0,0,0-1.75.39,1.74,1.74,0,0,0-.63,1.54,4,4,0,0,0,.06.46,1.8,1.8,0,0,0,.34.74,2.6,2.6,0,0,0,.86.7,3.43,3.43,0,0,0,1.59.33l3.84.05V157Z"/><path d="M84.48,142.73c-.27,0-.55,0-.83,0l-.83,0v-1.18H84v0a2.55,2.55,0,0,1-1-1.12,3.29,3.29,0,0,1-.32-1.41,4.2,4.2,0,0,1,.08-.67,2.21,2.21,0,0,1,.24-.68,2.12,2.12,0,0,1,.48-.62,2.52,2.52,0,0,1,.79-.48,2.53,2.53,0,0,1-1.13-1.07,3,3,0,0,1-.39-1.51,2.87,2.87,0,0,1,.79-2.2,3,3,0,0,1,2.17-.68l4.75.06v1.09l-4.37-.05a3.11,3.11,0,0,0-1.75.39,1.73,1.73,0,0,0-.62,1.54,2,2,0,0,0,.21,1,2.1,2.1,0,0,0,.61.68,3.12,3.12,0,0,0,.87.39,4.17,4.17,0,0,0,1,.12l4,0,0,1.1L86,137.5a3.09,3.09,0,0,0-1.75.39,1.74,1.74,0,0,0-.63,1.54,3.94,3.94,0,0,0,.06.45,1.78,1.78,0,0,0,.34.75,2.68,2.68,0,0,0,.85.7,3.39,3.39,0,0,0,1.6.32l3.84,0v1.1Z"/></g><line class="cls-2" x1="179.7" y1="217.3" x2="179.7" y2="131.56"/><line class="cls-2" x1="180.93" y1="217.3" x2="178.48" y2="217.3"/><line class="cls-2" x1="180.93" y1="131.56" x2="178.48" y2="131.56"/><g class="cls-3"><path d="M199.79,194.66v7.2h-1.33l-4.59-4.51-.54-.51a4.43,4.43,0,0,0-.61-.46,3,3,0,0,0-.67-.34,2.3,2.3,0,0,0-.74-.13,2,2,0,0,0-.83.17,1.79,1.79,0,0,0-.62.47,2.34,2.34,0,0,0-.4.71,2.55,2.55,0,0,0-.13.84,2.33,2.33,0,0,0,.48,1.48,2.21,2.21,0,0,0,1.29.78l-.12,1.22a3.18,3.18,0,0,1-2-1.16,3.54,3.54,0,0,1-.72-2.24,4.26,4.26,0,0,1,.19-1.3,3.2,3.2,0,0,1,.55-1.09,2.71,2.71,0,0,1,.92-.75,2.79,2.79,0,0,1,1.29-.28,3.6,3.6,0,0,1,1.2.2,4.9,4.9,0,0,1,1,.52,6.33,6.33,0,0,1,.91.73c.29.27.57.55.85.84l3.54,3.57v-6Z"/><path d="M189.52,186.3v4.62l3.41.08a3.51,3.51,0,0,1-.21-.75,5,5,0,0,1-.06-.77,3.83,3.83,0,0,1,.27-1.46,3.22,3.22,0,0,1,.76-1.12,3.45,3.45,0,0,1,1.15-.74,3.82,3.82,0,0,1,1.45-.26,3.89,3.89,0,0,1,1.5.28,3.54,3.54,0,0,1,1.16.8,3.7,3.7,0,0,1,.76,1.21,4.18,4.18,0,0,1,.28,1.51,3.75,3.75,0,0,1-.52,1.94A3.31,3.31,0,0,1,198,193l-.5-1.15a2.63,2.63,0,0,0,1.07-.9,2.28,2.28,0,0,0,.39-1.32,2.6,2.6,0,0,0-.2-1,2.57,2.57,0,0,0-.54-.8,2.52,2.52,0,0,0-1.79-.74,2.79,2.79,0,0,0-1.09.21,2.49,2.49,0,0,0-.85.57,2.43,2.43,0,0,0-.55.88,3.14,3.14,0,0,0-.2,1.12,4.53,4.53,0,0,0,.17,1.21,5.14,5.14,0,0,0,.46,1.14l-5.88-.11V186.3Z"/><path d="M193.33,181.58V181a4.26,4.26,0,0,0-.11-.95,2.39,2.39,0,0,0-.36-.79,1.92,1.92,0,0,0-.65-.54,2.19,2.19,0,0,0-1-.2,1.83,1.83,0,0,0-1.42.56,2.21,2.21,0,0,0-.5,1.54,2.46,2.46,0,0,0,.32,1.26,2.37,2.37,0,0,0,.93.9l-.51,1a3.44,3.44,0,0,1-1.36-1.31,3.7,3.7,0,0,1-.44-1.83,4.26,4.26,0,0,1,.19-1.26,3.09,3.09,0,0,1,.57-1,2.62,2.62,0,0,1,.93-.71,2.84,2.84,0,0,1,1.26-.27,2.58,2.58,0,0,1,.88.15,3.07,3.07,0,0,1,.75.42,3.08,3.08,0,0,1,1,1.35l0-.05a2.72,2.72,0,0,1,.36-.88,2.8,2.8,0,0,1,.65-.68,2.62,2.62,0,0,1,.86-.45,3.39,3.39,0,0,1,2.4.13,3,3,0,0,1,1,.78,3.65,3.65,0,0,1,.63,1.15,4.55,4.55,0,0,1,.22,1.39,4.25,4.25,0,0,1-.55,2.18,3.29,3.29,0,0,1-1.74,1.39l-.37-1.21a2.43,2.43,0,0,0,1.21-.86,2.79,2.79,0,0,0,.39-1.59,2.49,2.49,0,0,0-.16-.91,2.34,2.34,0,0,0-.46-.76,2.08,2.08,0,0,0-.71-.52,2.27,2.27,0,0,0-.91-.18,2.21,2.21,0,0,0-1.08.24,2,2,0,0,0-.71.64,2.74,2.74,0,0,0-.4.92,4.83,4.83,0,0,0-.12,1.08v.5Z"/><path d="M194,170.34c-.28,0-.56,0-.83,0l-.84,0v-1.13h1.14v0a2.44,2.44,0,0,1-1-1.07,2.94,2.94,0,0,1-.34-1.35,3.07,3.07,0,0,1,.07-.65,2.25,2.25,0,0,1,.23-.66,2.18,2.18,0,0,1,.47-.6,2.24,2.24,0,0,1,.79-.47,2.51,2.51,0,0,1-1.14-1,3.07,3.07,0,0,1,.34-3.58,3.17,3.17,0,0,1,2.17-.68h4.75v1h-4.37a3.25,3.25,0,0,0-1.74.4,1.67,1.67,0,0,0-.61,1.49,2,2,0,0,0,.23,1,2,2,0,0,0,.62.65,2.8,2.8,0,0,0,.87.36,4.31,4.31,0,0,0,1,.11h4v1.06h-4.37a3.16,3.16,0,0,0-1.74.4,1.67,1.67,0,0,0-.61,1.49,2.67,2.67,0,0,0,.07.44,1.67,1.67,0,0,0,.35.71,2.67,2.67,0,0,0,.86.66,3.53,3.53,0,0,0,1.6.3h3.84v1.05Z"/><path d="M194,156.71c-.28,0-.56,0-.83,0l-.84,0v-1.13h1.14v0a2.41,2.41,0,0,1-1-1.06,2.94,2.94,0,0,1-.34-1.35,3.07,3.07,0,0,1,.07-.65,2.25,2.25,0,0,1,.23-.66,2,2,0,0,1,.47-.6,2.41,2.41,0,0,1,.79-.48,2.43,2.43,0,0,1-1.14-1,3.07,3.07,0,0,1,.34-3.58,3.12,3.12,0,0,1,2.17-.69h4.75v1.06h-4.37a3.16,3.16,0,0,0-1.74.4,1.67,1.67,0,0,0-.61,1.49,1.82,1.82,0,0,0,.85,1.64,3.07,3.07,0,0,0,.87.36,4.9,4.9,0,0,0,1,.11h4v1.06h-4.37a3.16,3.16,0,0,0-1.74.4,1.65,1.65,0,0,0-.61,1.48,2.52,2.52,0,0,0,.07.44,1.71,1.71,0,0,0,.35.72,2.67,2.67,0,0,0,.86.66,3.53,3.53,0,0,0,1.6.3h3.84v1.05Z"/></g><g class="cls-3"><path d="M47.53,182.34v-.59a4.19,4.19,0,0,0-.11-.95,2.44,2.44,0,0,0-.36-.8,1.88,1.88,0,0,0-.65-.53,2.19,2.19,0,0,0-1-.2,1.82,1.82,0,0,0-1.42.55,2.23,2.23,0,0,0-.5,1.54,2.35,2.35,0,0,0,1.25,2.16l-.52,1a3.46,3.46,0,0,1-1.35-1.3,3.75,3.75,0,0,1-.44-1.83,4.38,4.38,0,0,1,.19-1.27,3.18,3.18,0,0,1,.57-1,2.74,2.74,0,0,1,.93-.71,3,3,0,0,1,1.26-.26,2.53,2.53,0,0,1,.87.15,2.93,2.93,0,0,1,.76.41,3.1,3.1,0,0,1,.58.62A2.89,2.89,0,0,1,48,180l0,0a2.28,2.28,0,0,1,.36-.88,2.67,2.67,0,0,1,.65-.69,3.06,3.06,0,0,1,.86-.45,3.39,3.39,0,0,1,1-.16,3.23,3.23,0,0,1,1.39.29,2.84,2.84,0,0,1,1,.78A3.53,3.53,0,0,1,54,180a4.5,4.5,0,0,1,.21,1.39,4.21,4.21,0,0,1-.54,2.17A3.3,3.3,0,0,1,51.9,185l-.37-1.22a2.41,2.41,0,0,0,1.21-.86,3.12,3.12,0,0,0,.23-2.5,2.34,2.34,0,0,0-.46-.76,2,2,0,0,0-.71-.51,2.28,2.28,0,0,0-.91-.19,2.11,2.11,0,0,0-1.08.25,2,2,0,0,0-.72.63,2.81,2.81,0,0,0-.39.92,4.83,4.83,0,0,0-.12,1.08v.5Z"/><path d="M48,173.73a2.16,2.16,0,0,1-.38.68A2.48,2.48,0,0,1,47,175a3,3,0,0,1-.74.35,2.53,2.53,0,0,1-.83.13,2.87,2.87,0,0,1-1.22-.26,2.83,2.83,0,0,1-.94-.69,3.11,3.11,0,0,1-.59-1,3.65,3.65,0,0,1,0-2.44,3.11,3.11,0,0,1,.59-1,2.83,2.83,0,0,1,.94-.69,2.87,2.87,0,0,1,1.22-.26,2.53,2.53,0,0,1,.83.13,3,3,0,0,1,.74.35,2.48,2.48,0,0,1,.58.54,2.28,2.28,0,0,1,.38.68h0a2.69,2.69,0,0,1,1.06-1.54,3.21,3.21,0,0,1,1.92-.57,3,3,0,0,1,1.32.29,3.18,3.18,0,0,1,1,.79,3.41,3.41,0,0,1,.65,1.13,4.38,4.38,0,0,1,0,2.74,3.41,3.41,0,0,1-.65,1.13,3.18,3.18,0,0,1-1,.79,2.85,2.85,0,0,1-1.32.29,3.21,3.21,0,0,1-1.92-.57A2.69,2.69,0,0,1,48,173.73Zm-2.43-3.49a1.91,1.91,0,0,0-.8.16,1.87,1.87,0,0,0-.64.42,2,2,0,0,0-.41.64,2.11,2.11,0,0,0-.15.8,2.07,2.07,0,0,0,.15.8,2,2,0,0,0,.41.64,1.87,1.87,0,0,0,.64.42,1.91,1.91,0,0,0,.8.16A2,2,0,0,0,47,173.7a2.22,2.22,0,0,0,.42-.64,2.07,2.07,0,0,0,.15-.8,2.11,2.11,0,0,0-.15-.8,2.22,2.22,0,0,0-.42-.64,2,2,0,0,0-1.43-.58Zm5.28-.41a2.51,2.51,0,0,0-.92.17,2.39,2.39,0,0,0-.74.49,2.26,2.26,0,0,0-.49.77,3.06,3.06,0,0,0,0,2,2.18,2.18,0,0,0,1.23,1.25,2.51,2.51,0,0,0,.92.17,2.55,2.55,0,0,0,.92-.17,2.29,2.29,0,0,0,.73-.49,2.21,2.21,0,0,0,.49-.76,2.9,2.9,0,0,0,0-2,2.26,2.26,0,0,0-.49-.77,2.46,2.46,0,0,0-.73-.49A2.55,2.55,0,0,0,50.81,169.83Z"/><path d="M54,162.24v1.16H44.1l1.8,2-.87.72-2.37-2.88v-1Z"/><path d="M48.17,153.32c-.28,0-.56,0-.84,0l-.83.06v-1.14h1.14v0a2.44,2.44,0,0,1-1-1.07,2.94,2.94,0,0,1-.34-1.35,3.07,3.07,0,0,1,.07-.65,2.23,2.23,0,0,1,.7-1.26,2.45,2.45,0,0,1,.78-.47,2.43,2.43,0,0,1-1.13-1,2.74,2.74,0,0,1-.42-1.45,2.69,2.69,0,0,1,.76-2.12,3.12,3.12,0,0,1,2.17-.69H54v1.06H49.62a3.16,3.16,0,0,0-1.74.4,1.62,1.62,0,0,0-.61,1.48,2,2,0,0,0,.23,1,1.84,1.84,0,0,0,.62.65,2.58,2.58,0,0,0,.87.36,4.31,4.31,0,0,0,1,.12h4v1H49.62a3.16,3.16,0,0,0-1.74.4,1.64,1.64,0,0,0-.61,1.49,3.61,3.61,0,0,0,.06.44,1.77,1.77,0,0,0,.36.71,2.42,2.42,0,0,0,.86.66,3.53,3.53,0,0,0,1.6.3H54v1.06Z"/><path d="M48.17,139.69c-.28,0-.56,0-.84,0l-.83.06v-1.14h1.14v0a2.44,2.44,0,0,1-1-1.07,2.94,2.94,0,0,1-.34-1.35,3.07,3.07,0,0,1,.07-.65,2.25,2.25,0,0,1,.23-.66,2.34,2.34,0,0,1,.47-.6,2.28,2.28,0,0,1,.78-.47,2.43,2.43,0,0,1-1.13-1,2.76,2.76,0,0,1-.42-1.45,2.69,2.69,0,0,1,.76-2.12,3.12,3.12,0,0,1,2.17-.69H54v1H49.62a3.25,3.25,0,0,0-1.74.4,1.65,1.65,0,0,0-.61,1.49,2,2,0,0,0,.23,1,1.84,1.84,0,0,0,.62.65,2.58,2.58,0,0,0,.87.36,4.31,4.31,0,0,0,1,.11h4v1.06H49.62a3.16,3.16,0,0,0-1.74.4,1.64,1.64,0,0,0-.61,1.49,3.61,3.61,0,0,0,.06.44,1.84,1.84,0,0,0,.36.71,2.53,2.53,0,0,0,.86.66,3.53,3.53,0,0,0,1.6.3H54v1.06Z"/></g><line class="cls-2" x1="62.58" y1="216.77" x2="62.58" y2="94.19"/><line class="cls-2" x1="64.02" y1="216.77" x2="61.13" y2="216.77"/><line class="cls-2" x1="64.02" y1="94.19" x2="61.13" y2="94.19"/><line class="cls-2" x1="177.15" y1="128.91" x2="138.93" y2="88.52"/><line class="cls-2" x1="178.48" y1="127.65" x2="175.82" y2="130.17"/><line class="cls-2" x1="140.26" y1="87.26" x2="137.6" y2="89.78"/><g class="cls-3"><path d="M145.49,88.7l-.75-.81,7.08-6.51-2.6-.25.15-1.08,3.56.48.66.72Z"/><path d="M159.91,89.63,149.6,93.18l-.84-.92,10.37-3.47-3.58-3.89.76-.7,4.35,4.74Z"/><path d="M160,95.23v0a1.84,1.84,0,0,1,.68.33,3.6,3.6,0,0,1,.61.52,3.42,3.42,0,0,1,.7,1.14,3.18,3.18,0,0,1-.13,2.49,3.8,3.8,0,0,1-2,1.86,3.19,3.19,0,0,1-1.29.19,3.4,3.4,0,0,1-1.27-.35,4.22,4.22,0,0,1-1.14-.87,4.06,4.06,0,0,1-.77-1.21,3.29,3.29,0,0,1-.24-1.3,3.09,3.09,0,0,1,.29-1.26,3.58,3.58,0,0,1,.84-1.13,4.41,4.41,0,0,1,1.36-.89,8.39,8.39,0,0,1,1.45-.42l5.54-1.12.88,1Zm-3,1.26a2.52,2.52,0,0,0-.59.78,2.16,2.16,0,0,0-.22.88,2.2,2.2,0,0,0,.16.9,2.63,2.63,0,0,0,.54.83,2.51,2.51,0,0,0,.79.61,2.09,2.09,0,0,0,.88.23,2.13,2.13,0,0,0,.89-.14,2.59,2.59,0,0,0,.83-.53,2.68,2.68,0,0,0,.59-.78,2.22,2.22,0,0,0,.21-.87,2.38,2.38,0,0,0-.16-.9,2.78,2.78,0,0,0-1.32-1.44,2.4,2.4,0,0,0-.88-.23,2.11,2.11,0,0,0-.89.14A2.56,2.56,0,0,0,157,96.49Z"/><path d="M167,103.7c.2-.18.39-.37.58-.56s.37-.39.56-.59l.73.8-.81.75,0,0a2.39,2.39,0,0,1,1.4.1,2.83,2.83,0,0,1,1.12.73,3.41,3.41,0,0,1,.37.5,2,2,0,0,1,.26.62,1.94,1.94,0,0,1,.05.73,2.27,2.27,0,0,1-.25.85,2.46,2.46,0,0,1,1.47,0,2.66,2.66,0,0,1,1.24.75,2.57,2.57,0,0,1,.83,2,3.06,3.06,0,0,1-1.1,1.91L170,115.4l-.69-.74,3.13-2.87a3.2,3.2,0,0,0,1-1.43,1.59,1.59,0,0,0-.53-1.45,1.73,1.73,0,0,0-1.67-.6,2.65,2.65,0,0,0-.86.32,4.46,4.46,0,0,0-.8.59l-2.85,2.62-.68-.74,3.12-2.88a3.15,3.15,0,0,0,1-1.43,1.55,1.55,0,0,0-.53-1.44,2.1,2.1,0,0,0-.33-.27,1.47,1.47,0,0,0-.71-.27,2.34,2.34,0,0,0-1.05.1,3.46,3.46,0,0,0-1.34.84l-2.75,2.53-.68-.75Z"/><path d="M175.8,113.31c.2-.18.39-.37.58-.56l.56-.59.73.8-.81.75,0,0a2.31,2.31,0,0,1,1.4.1,2.76,2.76,0,0,1,1.12.73,3.41,3.41,0,0,1,.37.5,2.07,2.07,0,0,1,.32,1.35,2.5,2.5,0,0,1-.26.85,2.31,2.31,0,0,1,1.47,0,2.54,2.54,0,0,1,1.24.75,2.61,2.61,0,0,1,.84,2,3.12,3.12,0,0,1-1.11,1.91l-3.4,3.12-.69-.74,3.13-2.88a3.12,3.12,0,0,0,1-1.42,1.56,1.56,0,0,0-.53-1.45A1.86,1.86,0,0,0,181,118a1.79,1.79,0,0,0-.86,0,2.74,2.74,0,0,0-.86.32,4.84,4.84,0,0,0-.8.59l-2.85,2.62-.68-.74,3.12-2.88a3,3,0,0,0,1-1.43,1.57,1.57,0,0,0-.53-1.45,3.37,3.37,0,0,0-.33-.26,1.54,1.54,0,0,0-.71-.28,2.51,2.51,0,0,0-1,.11,3.46,3.46,0,0,0-1.34.84l-2.74,2.53-.69-.75Z"/></g><g class="cls-4"><path class="cls-5" d="M164.82,167.64V166.4l0-.92.06-.93.08-.91.09-.9.06-.44.06-.42.09-.55.09-.52.11-.49.12-.47.07-.24.07-.21.06-.18.07-.16.09-.21.1-.17,0-.07.05-.06,0-.05.05-.05.05,0,0,0,.07,0h.06l.06,0,.06,0,.06.06.06.07,0,.06.05.07m-2,8.95v3.06l0,.12v.35l0,.11v.11l0,.12v.1l0,.11v.1l0,.1,0,.1,0,.09v.09l0,.09,0,.09,0,.09,0,.08,0,.08,0,.08,0,.07,0,.07,0,.07,0,.07v.06l0,.06,0,.06,0,.05,0,.05,0,0,0,.05m1.64-8.63,0,0,0,0h0l0,0,0,0,0,0,0,.06,0,.09,0,.11,0,.28,0,.35m.33-.93v-3.59l0-.15v-.31l0-.15v-.16l0-.16v-.15l0-.15,0-.16,0-.15,0-.15,0-.16,0-.15,0-.15,0-.16,0-.15m.09,12.67v-.05l0-.14,0-.16,0-.15,0-.15,0-.15,0-.16,0-.15,0-.15,0-.16,0-.15,0-.15,0-.16,0-.15,0-.15m.22-2.11v-1.28m-2,7.58v0l0,0,0,0,0,0,0,0,0,0,0,0,0,0,0,0,0,0H166l0,0,0,0,0,0,0,0,0,0,0,0,0,0,0,0,0,0,0,0,0,0,0-.05,0-.05,0,0,0-.07,0-.05,0-.07,0-.07,0-.06,0-.08,0-.07,0-.08,0-.08,0-.09,0-.08,0-.09,0-.09,0-.09,0-.1,0-.1,0-.1,0-.11,0-.1,0-.11,0-.1m.37-10.89v0l0-.11v-.21l0-.09v-.1l0-.09,0-.09,0-.08,0-.09v-.09l0-.07,0-.08,0-.07,0-.08,0-.06,0-.07,0-.06,0-.06,0-.06,0-.06,0-.05,0-.05,0,0m.33,6.05v-3.59l0-.15v-.31l0-.15v-.16l0-.16v-.15l0-.15,0-.16,0-.15,0-.15,0-.16,0-.15,0-.15,0-.16,0-.15m.43,7.76v-.21l0-.23v-.41l0-.3,0-.23,0-.11,0-.1,0-.07,0,0m-.23,2.65,0,0,0,0h0l0,0,0,0,0,0,0-.05,0-.1,0-.11.05-.28,0-.35m-1.1-8.08h.31m.36.31h0l0-.05,0,0,0,0,0,0,0,0,0,0,0,0,0,0,0,0h-.23l0,0h0l0,0,0,0,0,0,0,0,0,0,0,0,0,0,0,0,0,0,0,.05,0,.05,0,.06,0,.06,0,.05,0,.07,0,.06,0,.07,0,.07,0,.08,0,.07,0,.08,0,.08,0,.09,0,.09,0,.09,0,.09,0,.09,0,.1,0,.1,0,.1,0,.11,0,.11,0,.11,0,.11,0,.11,0,.12,0,.11,0,.12,0,.12,0,.13,0,.12,0,.13,0,.13,0,.13,0,.13,0,.14,0,.13v.14l0,.14,0,.14,0,.14v.29l0,.14v.14l0,.15v.3l0,.15v3.52m2.47-7.17v0l0-.11v-.21l0-.09v-.1l0-.09,0-.09,0-.08,0-.09v-.09l0-.07,0-.08,0-.07,0-.08,0-.06,0-.07,0-.06,0-.06,0-.06,0-.06,0-.05,0-.05,0,0m-2,8.95h0m.75,6,.31,0m-.35-.31v0l0,0,0,0,0,0,0,0,0,0,0,0,0,0,0,0,0,0H166l0,0,0,0,0,0,0,0,0,0,0,0,0,0,0,0,0,0,0,0,0,0,0-.05,0-.05,0,0,0-.07,0-.05,0-.07,0-.07,0-.06,0-.08,0-.07,0-.08,0-.08,0-.09,0-.08,0-.09,0-.09,0-.09,0-.1,0-.1,0-.1,0-.1,0-.11,0-.11,0-.1m-2.1-3.72v3.06l0,.12v.35l0,.11v.11l0,.12v.1l0,.11v.1l0,.1,0,.1,0,.09v.09l0,.09,0,.09,0,.09,0,.08,0,.08,0,.08,0,.07,0,.07,0,.07,0,.07v.06l0,.06,0,0,0,.06,0,.05,0,0,0,.05m-.71-5.73h0m2.11-.25,0,0,0,0H167l0,0,0,0,0-.07,0-.08,0-.09,0-.11,0-.12,0-.13,0-.14v-.15m-.43-.78h0V167l0,.11v.09l0,.09,0,.07,0,0m.23-2.65,0,0,0,0h0l0,0,0,0,0,0,0,.07,0,.08,0,.1,0,.11,0,.12,0,.13v.14l0,.14m.43.78h0V165l0-.1,0-.08,0-.07,0,0M169,210.12h.45l0,0v0m-.79.18h.06l.15,0h.59l.14,0,.11,0,.1,0,.08,0,.06,0,0,0V210l-.05,0m-1.44.22h.05l.12,0m.31-.1h.22l.13,0,.09,0,0,0m-.79.18v.15m-.17-.18h.05l.12,0m-.47,0h0l0,0,.07,0,.1,0,.12,0,.12,0m1.33-.18V210m-1.33.18h.06l.15,0h.59l.14,0,.11,0,.1,0,.08,0,.06,0,0,0V210l-.05,0m-1.27.4v-.15m0,.15h.78l.13,0,.12,0,.11,0,.08,0,.06,0,0,0v0m-1.79.05h0l.13.08.13.07.14.06.15,0,.15,0m-.25-.15,0,0,.06.06.06,0,.06,0H169l.06,0m-.88-.25h0l0,0,.07,0,.1,0,.12,0,.12,0m.25.15h.33l.15,0,.15,0,.15-.06.13-.07.13-.08m-1.29.12h.74l.13,0,.13,0,.11,0,.1,0,.05,0,0,0,0,0v0m-1.33.18h0l.06.06.06,0,.07,0h.06m-3.28-36.77h.09l0,0h0l0,0,0,0m-.29,1.31.23,0m-1.18-5.4v1.64l0,.13v.24l0,.12v.35l0,.12v.11l0,.11v.11l0,.1v.11l0,.1,0,.1v.1l0,.09,0,.1,0,.09,0,.09v.08l0,.09,0,.08,0,.08,0,.08,0,.07,0,.08,0,.07,0,.07,0,.06,0,.07,0,.06,0,.06,0,0,0,.06,0,.06,0,0,0,.05,0,0,0,0,0,0,0,0,0,0,0,0,0,0,0,0,0,0,0,0,0,0,0,0h.27l0,0h0l0,0,0,0,0,0,0,0,0,0,0,0,0,0,0,0,0,0,0-.05,0,0,0-.05,0,0,0-.05,0-.06,0-.06,0-.06,0-.06,0-.07,0-.06,0-.07,0-.08,0-.07,0-.08,0-.08,0-.08,0-.09,0-.08,0-.09,0-.09,0-.1,0-.09,0-.09,0-.11,0-.09,0-.11,0-.11,0-.1,0-.11,0-.11,0-.12,0-.11,0-.12,0-.11,0-.12,0-.13,0-.12,0-.12,0-.13,0-.13,0-.13,0-.13,0-.13,0-.14m-3-.92v2l0,.12v.47l0,.1v.12l0,.11,0,.1v.11l0,.1v.1l0,.1,0,.09,0,.1,0,.09v.09l0,.09,0,.08,0,.08,0,.09,0,.08,0,.07,0,.08,0,.07,0,.07,0,.06,0,.07,0,.06,0,.06,0,.06,0,.05,0,0,0,.05,0,.05,0,0,0,0,0,0,0,0,0,0,0,0,0,0,0,0,0,0,0,0h0l0,0h.11m.71-17.92h.24m.79,1.41,0-.07v-.08l0-.08v-.07l0-.08,0-.07,0-.07,0-.06,0-.07,0-.06,0-.06,0-.06,0,0,0-.05,0-.05,0,0,0,0,0,0,0,0,0,0,0,0,0,0,0,0,0,0,0,0,0,0h0l0,0h-.3l0,0,0,0,0,0,0,0,0,0,0,0,0,0,0,0,0,0,0,0,0,0,0,.05,0,0,0,.06,0,.05,0,.06,0,0,0,.06,0,.07,0,.06,0,.07,0,.07,0,.07,0,.08,0,.08,0,.08,0,.08,0,.08,0,.09,0,.09,0,.09,0,.09,0,.1,0,.09,0,.1,0,.1,0,.11,0,.1,0,.11,0,.11,0,.11,0,.11,0,.12,0,.11,0,.12,0,.12,0,.12,0,.13,0,.12,0,.13,0,.12,0,.14,0,.13,0,.13v.13l0,.14,0,.13,0,.14v.14l0,.14,0,.14,0,.14v.15l0,.14v.29l0,.15v.29l0,.15v.6l0,.16v5.15m1.66-12.54h-.11l0,0h0l0,0,0,0,0,0,0,0,0,0,0,0,0,0,0,0,0,0,0,0,0,.05,0,0,0,.06,0,.05,0,0,0,.06,0,.06,0,.06,0,.07,0,.07,0,.06,0,.08,0,.07,0,.08,0,.08,0,.08,0,.08,0,.09,0,.09,0,.09,0,.09,0,.1,0,.09,0,.1,0,.1,0,.11,0,.1,0,.11,0,.11,0,.11,0,.11,0,.11,0,.12,0,.12,0,.12,0,.12,0,.12,0,.13,0,.12,0,.13,0,.13,0,.13,0,.13,0,.14,0,.13v.14l0,.14,0,.13,0,.14v.14l0,.14v.15l0,.14,0,.15v.14l0,.15v.44l0,.15v5.76m.22-1.4v.92m1.85-10.72h0l0,0,0,0,0,0h-.11m1,.18,0-.07v-.08l0-.08v-.07l0-.08,0-.07,0-.07,0-.06,0-.07,0-.06,0-.06,0-.06,0,0,0-.05,0-.05,0,0,0,0,0,0,0,0,0,0,0,0,0,0,0,0,0,0,0,0,0,0h0l0,0h-.3l0,0,0,0,0,0,0,0,0,0,0,0,0,0,0,0,0,0,0,0,0,0,0,.05,0,0,0,.06,0,.05,0,.06,0,0,0,.06,0,.07,0,.06,0,.07,0,.07,0,.07,0,.08,0,.08,0,.08,0,.08,0,.08,0,.09,0,.09,0,.09,0,.09,0,.1,0,.09,0,.1,0,.1,0,.11,0,.1,0,.11,0,.11,0,.11,0,.11,0,.12,0,.11,0,.12,0,.12,0,.12,0,.13,0,.12,0,.13,0,.12,0,.14,0,.13,0,.13v.13l0,.14,0,.13,0,.14v.14l0,.14,0,.14,0,.14v.15l0,.14v.29l0,.15v.29l0,.15v.6l0,.16v5.15m3-7.16v-.95l0-.13V161l0-.12v-.35l0-.11v-.11l0-.11v-.1l0-.11,0-.1,0-.1v-.1l0-.09,0-.09,0-.09,0-.09v-.08l0-.09v-.07l0-.08,0-.08,0-.07,0-.07,0-.07,0-.06,0-.06,0-.06,0-.06,0-.05,0,0,0-.05,0,0,0-.05,0,0,0,0,0,0,0,0,0,0,0,0,0,0,0,0h-.27l0,0h0l0,0,0,0,0,0,0,0,0,0,0,0,0,0,0,0,0,0,0,0,0,0,0,.06,0,.05,0,.06,0,.06,0,.06,0,.07,0,.06,0,.07,0,.08,0,.07,0,.08,0,.08,0,.09,0,.08,0,.09,0,.09,0,.1,0,.09,0,.1,0,.1,0,.1,0,.11,0,.11,0,.1,0,.12,0,.11,0,.11,0,.12v.12l0,.12,0,.12,0,.13,0,.12,0,.13,0,.13,0,.13,0,.14,0,.13,0,.14,0,.13v.14l0,.14,0,.14v.29l0,.14,0,.15v.29l0,.15v.45l0,.15v4.86m-.23.35v1.64l0,.13v.24l0,.12v.35l0,.12v.11l0,.11v.11l0,.1v.11l0,.1,0,.1v.1l0,.09,0,.1,0,.09,0,.09v.08l0,.09,0,.08,0,.08,0,.08,0,.07,0,.08,0,.07,0,.07,0,.06,0,.07,0,.06,0,.06,0,0,0,.06,0,.06,0,0,0,.05,0,0,0,0,0,0,0,0,0,0,0,0,0,0,0,0,0,0,0,0,0,0,0,0h.27l0,0h0l0,0,0,0,0,0,0,0,0,0,0,0,0,0,0,0,0,0,0-.05,0,0,0-.05,0,0,0-.05,0-.06,0-.06,0-.06,0-.06,0-.07,0-.06,0-.07,0-.08,0-.07,0-.08,0-.08,0-.08,0-.09,0-.08,0-.09,0-.09,0-.1,0-.09,0-.09,0-.11,0-.09,0-.11,0-.11,0-.1,0-.11,0-.11,0-.12,0-.11,0-.12,0-.11,0-.12,0-.13,0-.12,0-.12,0-.13,0-.13,0-.13,0-.13,0-.13,0-.14m-2.51-1.25v1.9l0,.12v.23l0,.11v.22l0,.11,0,.1v.11l0,.1,0,.09,0,.1v.09l0,.09,0,.09,0,.09,0,.08,0,.08,0,.08,0,.07,0,.08,0,.07,0,.07,0,.06,0,.06,0,.06,0,.06,0,.06,0,0,0,.05,0,.05,0,0,0,0,0,0,0,0,0,0,0,0,0,0,0,0,0,0,0,0h.26l0,0,0,0,0,0,0,0,0,0,0,0,0,0,0,0,0-.05,0,0,0-.05,0,0,0-.05,0,0,0-.06,0-.06,0-.06,0-.06,0-.07,0-.07,0-.07,0-.08,0-.08,0-.08,0-.08,0-.08,0-.09,0-.09,0-.1,0-.09,0-.1,0-.1,0-.1,0-.1,0-.11,0-.11,0-.11,0-.11,0-.12,0-.11,0-.12,0-.12,0-.12,0-.13,0-.12,0-.13,0-.13v-.13l0-.13,0-.14m.3-3.14V166m-1.38-7.73,0,0-.05.06-.07.1-.09.16-.09.2-.09.24-.11.34-.11.38-.1.44-.11.52-.1.57-.12.78-.1.81-.08.86-.08.92,0,.92,0,.92,0,.92v.89l0,.87m0,0,0,0m2.78-6.77v-.95l0-.13V161l0-.12v-.35l0-.11v-.11l0-.11v-.1l0-.11,0-.1,0-.1v-.1l0-.09,0-.09,0-.09,0-.09v-.08l0-.09v-.07l0-.08,0-.08,0-.07,0-.07,0-.07,0-.06,0-.06,0-.06,0-.06,0-.05,0,0,0-.05,0,0,0-.05,0,0,0,0,0,0,0,0,0,0,0,0,0,0,0,0h-.27l0,0h0l0,0,0,0,0,0,0,0,0,0,0,0,0,0,0,0,0,0,0,0,0,0,0,.06,0,.05,0,.06,0,.06,0,.06,0,.07,0,.06,0,.07,0,.08,0,.07,0,.08,0,.08,0,.09,0,.08,0,.09,0,.09,0,.1,0,.09,0,.1,0,.1,0,.1,0,.11,0,.11,0,.1,0,.12,0,.11,0,.11,0,.12v.12l0,.12,0,.12,0,.13,0,.12,0,.13,0,.13,0,.13,0,.14,0,.13,0,.14,0,.13v.14l0,.14,0,.14v.29l0,.14,0,.15v.29l0,.15v.45l0,.15v4.86m1.62-10.87h0l0,0,0,0,0,0h-.11m-1.68,9.9v.92m.25.11,0,.83.05.7.06.64.07.52.08.47.09.39.07.28.07.24.08.19.07.13.06.09.06.07m2-6.88V166m-2.81,3.24v1.9l0,.12v.23l0,.11v.22l0,.11,0,.1v.11l0,.1,0,.09,0,.1v.09l0,.09,0,.09,0,.09,0,.08,0,.08,0,.08,0,.07,0,.08,0,.07,0,.07,0,.06,0,.06,0,.06,0,.06,0,.06,0,0,0,.05,0,.05,0,0,0,0,0,0,0,0,0,0,0,0,0,0,0,0,0,0,0,0h.26l0,0,0,0,0,0,0,0,0,0,0,0,0,0,0,0,0-.05,0,0,0-.05,0,0,0-.05,0,0,0-.06,0-.06,0-.06,0-.06,0-.07,0-.07,0-.07,0-.08,0-.08,0-.08,0-.08,0-.08,0-.09,0-.09,0-.1,0-.09,0-.1,0-.1,0-.1,0-.1,0-.11,0-.11,0-.11,0-.11,0-.12,0-.11,0-.12,0-.12,0-.12,0-.13,0-.12,0-.13,0-.13v-.13l0-.13,0-.14m-2.47-.77,0,0m.8,4.54h.09l0,0h0l0,0,0,0m-1.25-4.42v0m1.66-12.17h-.11l0,0h0l0,0,0,0,0,0,0,0,0,0,0,0,0,0,0,0,0,0,0,0,0,.05,0,0,0,.06,0,.05,0,0,0,.06,0,.06,0,.06,0,.07,0,.07,0,.06,0,.08,0,.07,0,.08,0,.08,0,.08,0,.08,0,.09,0,.09,0,.09,0,.09,0,.1,0,.09,0,.1,0,.1,0,.11,0,.1,0,.11,0,.11,0,.11,0,.11,0,.11,0,.12,0,.12,0,.12,0,.12,0,.12,0,.13,0,.12,0,.13,0,.13,0,.13,0,.13,0,.14,0,.13v.14l0,.14,0,.13,0,.14v.14l0,.14v.15l0,.14,0,.15v.14l0,.15v.44l0,.15v5.76m.22-2.51v2.16m-.24.35v2l0,.12v.47l0,.11,0,.11v.11l0,.1v.11l0,.1v.1l0,.1,0,.09,0,.1,0,.09v.09l0,.09,0,.08,0,.09,0,.08,0,.08,0,.07,0,.08,0,.07,0,.07,0,.07,0,.06,0,.06,0,.06,0,.06,0,.05,0,0,0,.06,0,0,0,0,0,0,0,0,0,0,0,0,0,0,0,0,0,0,0,0,0,0,0,0h.14m-1-7.91v2.16M106.52,166v-.21l0-.83v-.77l0-.74,0-.76.06-.78.1-.85.09-.71.13-.8.15-.83.16-.77.2-.84.12-.44.13-.46.17-.58.19-.6.2-.61.22-.59.28-.72.17-.41.18-.42.18-.43.2-.42.2-.41.21-.42.22-.42.28-.52.25-.45.26-.43.26-.44.27-.44.29-.42L112,147l.29-.42.3-.42.4-.52.4-.51.41-.49.42-.5.5-.54.46-.49.35-.36.35-.35.36-.34.36-.34.37-.33.38-.32.38-.32.38-.31.38-.31.4-.29.39-.29.41-.29.4-.28.41-.27.41-.26.42-.26.42-.25.43-.25.42-.24.44-.23.43-.22.44-.21.45-.21.42-.2.7-.3.73-.29.58-.21.56-.2.57-.18.53-.17.47-.13.47-.12.48-.12.47-.11.47-.11.47-.1.48-.08.48-.08.48-.08.48-.06.48-.06.49-.05.48,0,.49,0,.48,0,.48,0h1.94l.49,0,.48,0,.48,0,.49,0,.48.06.48.06.48.06.48.08.48.08.48.09.47.1.48.11.47.11.47.12.47.14.46.13.47.15.46.15.46.16.44.16.43.16.46.19.73.31.68.31.69.34.57.29.44.24.43.24.42.24.41.25.42.27.41.26.41.27.4.29.4.28.39.3.39.3.39.3.37.32.38.31.37.33.37.33.36.34.36.34.35.35.34.36.34.36.33.37.33.37.33.38.32.38.34.45.48.62.44.61.44.64.34.53.28.44.26.43.26.45.25.44.24.45.23.45.23.46.24.52.25.54.18.41.17.42.17.41.16.42.15.41.14.42.14.41.16.5.25.83.17.66m-.71,18-.22.62-.29.77-.17.4-.34.81-.18.4-.2.41-.19.4-.22.43-.3.56-.23.42-.22.39L163,181l-.24.39-.25.39-.25.38-.26.38-.25.36-.49.68-.52.67-.54.66-.56.65-.31.35-.32.34-.32.34-.32.33-.33.32-.34.32-.34.32-.33.3-.33.29-.33.28-.34.28-.34.27-.35.27-.34.26-.36.26-.35.25-.36.25-.36.24-.36.23-.38.24-.36.22-.38.22-.37.22-.77.41-.38.2-.78.38-.78.36-.4.17-.51.2-.65.25-.66.24-.66.22-.71.21-.48.14-.41.11-.84.21-.42.09-.84.17-.85.14-.85.12-.85.1-.86.07-.86.05-.86,0h-.86l-.85,0-.86-.05-.86-.08-.85-.1-.85-.13-.85-.15-.84-.17-.84-.2-.83-.22-.41-.12-.57-.18-.66-.22-.65-.23-.68-.25-.7-.29-.77-.35-.39-.18-.77-.39-.77-.4-.75-.43-.37-.22-.37-.23-.36-.23-.37-.24-.36-.24-.36-.25-.35-.26-.34-.25-.35-.27-.35-.27-.33-.27-.34-.29-.33-.28-.32-.29-.33-.29-.32-.3-.32-.31-.3-.3-.31-.32-.31-.32-.29-.31-.3-.34-.29-.33-.36-.43-.38-.46-.36-.46-.36-.47-.34-.48-.35-.5-.25-.38-.25-.38-.24-.38-.23-.38-.23-.39-.22-.39-.21-.39-.22-.4-.2-.4-.21-.41-.19-.41-.19-.41-.19-.43-.18-.43-.18-.44-.17-.43-.2-.55-.19-.56-.18-.55-.17-.56-.22-.76-.19-.74-.12-.53-.12-.51-.09-.48-.09-.47-.07-.44-.12-.79-.08-.68-.09-.86-.06-.83,0-.7m36.25,35.83-.13.05-.12,0-.12,0-.13,0-.11,0h-.44l-.11,0-.17,0m-1-.91v0l.07.12.07.11.08.11.08.09.1.1.09.08.1.07.11.07.11.05.11,0,.12,0,.12,0,.12,0h.37l.13,0,.12,0,.13,0,.12,0,.12-.06m.12-4.41.09,0,.18.09.13.07.14.1.12.11.13.14.12.15.11.19m-.05,0h0l-.07-.12-.07-.11-.08-.11-.08-.09-.1-.09-.09-.09-.11-.07-.1-.06-.11-.06-.11,0-.12,0-.12,0h-.5l-.12,0-.13,0-.12,0-.13,0-.12.06-.12.07-.11.08-.11.09-.11.1-.1.09-.1.11-.09.12-.09.13-.08.12-.07.13-.07.14-.06.14-.06.15,0,.14,0,.15,0,.15,0,.16,0,.15v.6l0,.14,0,.15.05.13,0,.13.05.13m1,.91-.05,0-.18-.07-.17-.1-.13-.09-.11-.1-.13-.13-.12-.15-.1-.16-.07-.14m0,0h0l.06,0m0,0v0l.07.12.07.11.08.11.08.09.1.1.09.08.1.07.11.07.11.05.11,0,.12,0,.12,0,.12,0h.37l.13,0,.12,0,.13,0,.12,0,.12-.06m.12-4.41-.09,0-.18,0h-.42l-.1,0-.13,0-.12,0-.11,0-.12.05-.11.06-.12.06-.1.08-.11.08-.08.06-.14.14-.13.15-.12.15-.11.16-.09.18-.09.18-.07.19-.06.18-.06.25,0,.15v.6l0,.15,0,.14,0,.14,0,.14,0,.13.06.13m0,0h0l.06,0m1.12-2.73-.11.09-.1.09-.1.12-.09.11-.08.13L141,199l-.06.14,0,.14,0,.15,0,.15,0,.15V200l0,.14,0,.15,0,.14m1.94-3.07-.07,0-.12,0h-.5l-.12,0-.13,0-.12,0-.13,0-.12.06-.12.07-.11.08-.11.09-.11.1-.1.09-.1.11-.09.12-.09.13-.08.12-.07.13-.07.14-.06.14-.06.15,0,.14,0,.15,0,.15,0,.16,0,.15v.6l0,.14,0,.15.05.13,0,.13.05.13m-.35-4,1.42.45m-1.42-.45h0l-.12,0-.13,0h-.24l-.13,0-.12,0-.13,0-.12.06-.11.07-.12.09-.11.09-.1.1-.09.11-.09.12-.08.13-.08.13-.06.14-.06.15,0,.14,0,.15,0,.16v.3m1,1.55,1.43.45m-2.39-2v.21l0,.15,0,.14,0,.14.05.13.06.12.07.12.08.11.08.1.09.09.1.08.11.06.1.06.12,0m2,.19,0,0,.07.12.08.11.08.1.1.08.1.09.1.07.11.05.11,0m-1-1.55h0v.15l0,.15,0,.14,0,.14,0,.14.06.13m1.86-2.85h0l-.12,0h-.37l-.13,0-.12,0L142,198l-.12.05-.12.08-.11.08-.11.09-.1.1-.1.12-.09.11-.08.13-.07.13-.07.14-.06.15,0,.15,0,.14,0,.16,0,.15V200m1,1.55,19.1,6.06M140.85,200h0v.15l0,.15,0,.14,0,.14,0,.14.06.13m0,0,0,0,.07.12.08.11.08.1.1.08.1.09.1.07.11.05.11,0m19.28,4.88v.19l0,.15,0,.14,0,.14,0,.13.05.12.07.12.08.11M142.89,198l20.24,6.42M142.89,198h0l-.12,0h-.37l-.13,0-.12,0L142,198l-.12.05-.12.08-.11.08-.11.09-.1.1-.1.12-.09.11-.08.13-.07.13-.07.14-.06.15,0,.15,0,.14,0,.16,0,.15V200m22.28,4.42h0l-.12,0h-.37l-.13,0-.12,0-.12,0-.12.07-.13.07-.1.08-.12.09-.09.11-.1.11-.09.12-.09.13-.07.13-.06.14-.06.14,0,.15,0,.15,0,.15v.31m0,0v.19l0,.15,0,.14,0,.14,0,.13.05.12.07.12.08.11m1.7-3.11h0l-.12,0h-.37l-.13,0-.12,0-.12,0-.12.07-.13.07-.1.08-.12.09-.09.11-.1.11-.09.12-.09.13-.07.13-.06.14-.06.14,0,.15,0,.15,0,.15v.31M138,199.07v.21l0,.15,0,.14,0,.14.05.13.06.12.07.12.08.11.08.1.09.09.1.08.11.06.1.06.12,0m1.1-3.55h0l-.12,0-.13,0h-.24l-.13,0-.12,0-.13,0-.12.06-.11.07-.12.09-.11.09-.1.1-.09.11-.09.12-.08.13-.08.13-.06.14-.06.15,0,.14,0,.15,0,.16v.3m-7.63,17.37h0l.11,0,.12-.05.12-.06.1-.07.12-.12.11-.12.1-.16.08-.16.08-.2m-1,1h0l.09,0,.08,0,.07,0,.08-.05.07-.05.07-.08.06-.07L131,216l.06-.1,0-.1.05-.11,0-.11m0,0,.11,0,0-.07m0,0,.07-.21,0-.21,0-.22,0-.23v-.49l0-.29,0-.26-.07-.24-.09-.27-.09-.22-.1-.2-.12-.19-.1-.14-.12-.14-.12-.12-.11-.09-.12-.07-.14-.08-.14,0-.09,0h-.33m1.51,3.85.11,0,0-.07m-.16.11,0-.12,0-.13,0-.13,0-.14v-.14l0-.14V214l0-.16,0-.15,0-.15,0-.15-.05-.15,0-.14-.06-.13,0-.14-.06-.13-.07-.12-.06-.11-.07-.12-.08-.1-.08-.1-.07-.08-.08-.08-.08-.07-.09-.06-.09-.05-.08,0-.09,0-.09,0h-.25m.69,4.72h-.34l-.09,0-.09,0-.15-.07-.1-.06-.11-.08-.13-.12m1.2-.61,0-.09.06-.14m-1.18.83.07.08.08.07.09.06.08.06.09,0,.09.05.08,0,.09,0h.25l.09,0,.08,0,.07,0,.08-.05.07-.05.07-.08.06-.07L131,216l.06-.1,0-.1.05-.11,0-.11m-.53-.36,0-.07,0-.15,0-.17,0-.18v-.49l0-.24,0-.2,0-.2-.08-.23-.07-.16-.08-.16-.09-.13-.11-.14-.07-.07m-.47-.9h-.05l-.11,0-.12.05-.13.06-.11.09-.12.12-.12.14-.09.16m2.36,3.19,0-.12,0-.13,0-.13,0-.14v-.14l0-.14V214l0-.16,0-.15,0-.15,0-.15-.05-.15,0-.14-.06-.13,0-.14-.06-.13-.07-.12-.06-.11-.07-.12-.08-.1-.08-.1-.07-.08-.08-.08-.08-.07-.09-.06-.09-.05-.08,0-.09,0-.09,0h-.25M126,212.8l3.45-.51M127.32,215v-.26l0-.15,0-.15,0-.16,0-.15,0-.14,0-.14-.06-.14,0-.13-.07-.12-.07-.1-.08-.11-.07-.09-.08-.09-.08-.07-.09-.06-.08,0-.09,0-.09,0H126l-.08,0-.08,0-.08.06-.06.06-.07.08-.06.08-.06.1,0,.11,0,.11,0,.13,0,.13,0,.14,0,.14v.29m5.53.14v-.3l0-.16,0-.15,0-.15,0-.15,0-.14-.05-.14-.06-.13-.06-.12-.06-.13-.07-.1-.08-.1-.08-.1-.08-.07-.08-.07-.09-.06-.09,0-.08,0h-.26m-2.92,4.19L130,216m-4.76-1.65v.27l0,.15,0,.15,0,.15,0,.15,0,.15,0,.14.06.13.06.13.06.12.07.11.07.11.08.09.08.08.08.07.09.06.08,0,.09,0,.09,0h.25l.08,0,.08,0,.08-.05.07-.07.06-.07.07-.09,0-.1.05-.1,0-.12,0-.12,0-.13,0-.14V215m2.69,1h.06l.08,0,.08,0,.07,0,.07-.06.07-.08.06-.09.06-.09.05-.11,0-.11m0,0,0-.13,0-.13,0-.14,0-.14v-.3M130,216h.06l.08,0,.08,0,.07,0,.07-.06.07-.08.06-.09.06-.09.05-.11,0-.11m.08-.24h0m.06-.61v-.3l0-.16,0-.15,0-.15,0-.15,0-.14-.05-.14-.06-.13-.06-.12-.06-.13-.07-.1-.08-.1-.08-.1-.08-.07-.08-.07-.09-.06-.09,0-.08,0h-.26m1.19,3,0-.13,0-.13,0-.14,0-.14v-.3m0,.6h0m.53.72,28.69-4.3m0,0,.06,0,.08,0,.08,0,.08,0,.07-.06.06-.08.06-.09.06-.09,0-.11,0-.12,0-.12,0-.13,0-.14,0-.14V210m-30,2.14,28.7-4.3m1.3,2.16v-.3l0-.16,0-.15,0-.15,0-.15,0-.14,0-.14-.06-.13-.06-.13-.06-.12-.07-.1-.08-.11-.08-.08L160,208l-.09-.07-.08-.06-.09,0-.09,0-.08,0h-.17m.53,3.68.06,0,.08,0,.08,0,.08,0,.07-.06.06-.08.06-.09.06-.09,0-.11,0-.12,0-.12,0-.13,0-.14,0-.14V210m0,0v-.3l0-.16,0-.15,0-.15,0-.15,0-.14,0-.14-.06-.13-.06-.13-.06-.12-.07-.1-.08-.11-.08-.08L160,208l-.09-.07-.08-.06-.09,0-.09,0-.08,0h-.17m-34.16,6.51v.27l0,.15,0,.15,0,.15,0,.15,0,.15,0,.14.06.13.06.13.06.12.07.11.07.11.08.09.08.08.08.07.09.06.08,0,.09,0,.09,0h.25l.08,0,.08,0,.08-.05.07-.07.06-.07.07-.09,0-.1.05-.1,0-.12,0-.12,0-.13,0-.14V215m0,0v-.26l0-.15,0-.15,0-.16,0-.15,0-.14,0-.14-.06-.14,0-.13-.07-.12-.07-.1-.08-.11-.07-.09-.08-.09-.08-.07-.09-.06-.08,0-.09,0-.09,0H126l-.08,0-.08,0-.08.06-.06.06-.07.08-.06.08-.06.1,0,.11,0,.11,0,.13,0,.13,0,.14,0,.14v.29m45.16-11.79v0l-.06-.15-.07-.13m.71-69.35-.06,67.53m0,2.33v6.53m-.27-7.91v-.2l0-.11,0-.1,0-.16,0-.09.08-.16,0-.11v0h0l0,.05-.16.22-.1.15-.1.16-.09.15-.07.16-.07.19,0,.09,0,.11v.19m0,0V202l0,.14,0,.13.06.12.07.12.08.11.09.1.09.07,0,0,0,0h.12l0,0,0,0v-.2l0-.16,0-.18-.06-.19-.05-.2,0-.1,0-.15v-.27m-3-34.56,0-.11v-.52l0-.2m2.51,42.59-.11-.11-.21-.21-.29-.27-.3-.26-.32-.26-.28-.21-.28-.2-.29-.18-.14-.08-.14-.06-.1-.05-.09,0m3.31,3,0-.08-.05-.09-.06-.1-.15-.2-.17-.22-.1-.12-.2-.22m.76,1v0l0-.15v-.15M168.82,134l.38-.15.53-.22.37-.18.34-.17.15-.08.13-.09.1-.06.08-.06.06-.06,0,0v0m-3.33,1.5.18-.05.35-.1.26-.08.38-.14m-9.41,73.8,8-1.2m.21,0,.11,0,.11.05.14.07.14.07.28.18.29.2.28.22.2.17.2.16.38.34.11.11.31.31m-2.55-1.92h-.21M160.71,210v-.3l0-.16,0-.15,0-.15,0-.15,0-.14,0-.14-.06-.13-.06-.13-.06-.12-.07-.1-.08-.11-.08-.08L160,208l-.09-.07-.08-.06-.09,0-.09,0-.08,0h-.17m3.72-3.42,4.13,1.31m-4.13-1.31h0l-.12,0h-.37l-.13,0-.12,0-.12,0-.12.07-.13.07-.1.08-.12.09-.09.11-.1.11-.09.12-.09.13-.07.13-.06.14-.06.14,0,.15,0,.15,0,.15v.31M133.26,93.23,171,132.85M131.62,94.92l.08-.07.1-.11.11-.11.12-.11.1-.1.11-.11.1-.11.11-.1.1-.1.09-.1.09-.09.09-.08.08-.08.07-.08.07-.07.05-.06.06-.06,0,0,0,0,0,0,0,0h0l0,0,0,0,0,0-.05.05-.07,0-.07.07-.07.07-.08.08-.09.08-.1.09-.1.09-.1.1-.1.1M171,132.85v.05l0,0,0,.05-.1.07-.13.09-.16.09-.2.1-.21.11-.46.22-.51.21-.31.12m-1.27,33-.05.1-.1.18-.1.16v0h0m0-4.66v.35m0,0v.29m-35-69.31-.08.07-.11.11-.11.11-.11.11-.11.11-.1.1-.11.11-.1.1-.1.1-.1.1-.09.09-.08.09-.08.08-.08.07-.06.07-.06.06-.05.06,0,0,0,0,0,0,0,0v0h0l0,0,0,0,0,0,.06,0,.06-.05.07-.07.08-.07.08-.08.09-.08.09-.09.1-.09.1-.1.11-.1m0,0,.08-.07.1-.11.11-.11.12-.11.1-.1.11-.11.1-.11.11-.1.1-.1.09-.1.09-.09.09-.08.08-.08.07-.08.07-.07.05-.06.06-.06,0,0,0,0,0,0,0,0h0l0,0,0,0,0,0-.05.05-.07,0-.07.07-.07.07-.08.08-.09.08-.1.09-.1.09-.1.1-.1.1m38.05,107.21h.32m0,0v.19l0,.18,0,.12.07.25.05.18,0,.18,0,.15v.21l0,0,0,0h-.08l0,0-.08,0-.06,0-.05-.06-.06-.06-.05-.08-.08-.11-.06-.12-.05-.14,0-.15v-.16m.18.63v0l-.07-.14-.06-.13m-9.19,4.17v.19l0,.15,0,.14,0,.14,0,.13.05.12.07.12.08.11m9.46,2.09v0l0-.15v-.16m-1.17.75h.11l.14,0,.14,0,.14,0,.13,0,.13-.05.12-.07.12-.06.11-.07m-9.81-3.19v.19l0,.15,0,.14,0,.14,0,.13.05.12.07.12.08.11m1.7-3.11h0l-.12,0h-.37l-.13,0-.12,0-.12,0-.12.07-.13.07-.1.08-.12.09-.09.11-.1.11-.09.12-.09.13-.07.13-.06.14-.06.14,0,.15,0,.15,0,.15v.31m-1.14,5.09,9.81-1.48m0,0h.11l.14,0,.14,0,.14,0,.13,0,.13-.05.12-.07.12-.06.11-.07m-.76-1,.25.28.13.15.11.15.08.11.07.11.07.12,0,.11m-10.95,1.9.06,0,.08,0,.08,0,.08,0,.07-.06.06-.08.06-.09.06-.09,0-.11,0-.12,0-.12,0-.13,0-.14,0-.14V210m-.77,1.52.06,0,.08,0,.08,0,.08,0,.07-.06.06-.08.06-.09.06-.09,0-.11,0-.12,0-.12,0-.13,0-.14,0-.14V210m0,0v-.3l0-.16,0-.15,0-.15,0-.15,0-.14,0-.14-.06-.13-.06-.13-.06-.12-.07-.1-.08-.11-.08-.08L160,208l-.09-.07-.08-.06-.09,0-.09,0-.08,0h-.17m11.06-7.42.45,0m-.7,1.48v-.16l0-.15,0-.13.05-.12.08-.18.1-.16.08-.13.07-.12.12-.16.08-.12,0,0h0v0l-.06.12-.06.14,0,.07-.05.14,0,.14,0,.16v.16m0,0h-.32m-3-36.5V165l0,.1.07.23.09.28.06.15.06.23m0,0,0,.13,0,.13v.39l0,.09,0,.09m-.07.21,0-.06.05-.15m-37-71,36.7,38.55m.32,0h-.32m1.49-.37-.26.1-.25.09-.25.07-.22.06-.19.05M132.28,94.13l-.08.07-.11.11-.11.11-.11.11-.11.11-.1.1-.11.11-.1.1-.1.1-.1.1-.09.09-.08.09-.08.08-.08.07-.06.07-.06.06-.05.06,0,0,0,0,0,0,0,0v0h0l0,0,0,0,0,0,.06,0,.06-.05.07-.07.08-.07.08-.08.09-.08.09-.09.1-.09.1-.1.11-.1m35.7,39.43,0,28.45m0,.64v1.4m0,2.62V170m0,1.34,0,35.26m0-35.26v-.06l0-.18m0,0,0-.21v-.27l0-.22,0-.28V170m0-6.58v-.29m0,0v-.35m.25,4.2,0-.06.05-.15m-.33.67h0l0,0,.08-.14.06-.1.05-.09.05-.1m.07-1,0-.15,0-.14-.09-.25-.07-.2,0-.09,0-.13,0-.09v-.07m0-30.49v0h.21l.11,0m-.07,72.26-.12,0h-.1m0-35.48v.07l0,.12v.05m0-1.36v.09l0,.18,0,.19v.47l0,.19"/></g></svg>