<svg id="IC_Lights_T1_High" xmlns="http://www.w3.org/2000/svg" xmlns:xlink="http://www.w3.org/1999/xlink" viewBox="0 0 300 263"><defs><style>.cls-1,.cls-2,.cls-4{fill:none;}.cls-2{stroke:#000;}.cls-2,.cls-4{stroke-width:0.5px;}.cls-3{isolation:isolate;}.cls-4{stroke:#1d1d1b;stroke-miterlimit:2;}.cls-5{clip-path:url(#clip-path);}</style><clipPath id="clip-path"><rect class="cls-1" x="106.69" y="46.68" width="99.17" height="169.93"/></clipPath></defs><title>ic-table-1high-anastassiades-flos-F3170059-spech-tech-02-300x263</title><line class="cls-2" x1="112.44" y1="227.2" x2="187.81" y2="227.2"/><line class="cls-2" x1="112.44" y1="225.52" x2="112.44" y2="228.88"/><line class="cls-2" x1="187.81" y1="225.52" x2="187.81" y2="228.88"/><g class="cls-3"><path d="M124.51,240.39h.61a4,4,0,0,0,1-.11,2.11,2.11,0,0,0,.82-.36,1.69,1.69,0,0,0,.56-.65,2,2,0,0,0,.21-1,1.76,1.76,0,0,0-.58-1.41,2.31,2.31,0,0,0-1.6-.51,2.65,2.65,0,0,0-1.31.32,2.59,2.59,0,0,0-.93.93l-1-.51a3.45,3.45,0,0,1,1.36-1.35,3.86,3.86,0,0,1,1.9-.44,4.32,4.32,0,0,1,1.31.19,3.28,3.28,0,0,1,1.08.57,2.7,2.7,0,0,1,.74.93,2.77,2.77,0,0,1,.27,1.25,2.58,2.58,0,0,1-.15.88,2.55,2.55,0,0,1-.44.75,2.78,2.78,0,0,1-.64.59,2.82,2.82,0,0,1-.76.37l0,0a2.41,2.41,0,0,1,.91.36,2.76,2.76,0,0,1,.72.64,3,3,0,0,1,.46.87,3.06,3.06,0,0,1,.17,1,3,3,0,0,1-1.11,2.41,3.62,3.62,0,0,1-1.2.63,4.93,4.93,0,0,1-3.7-.32,3.35,3.35,0,0,1-1.45-1.75l1.26-.37a2.37,2.37,0,0,0,.89,1.21,3,3,0,0,0,1.65.39,2.71,2.71,0,0,0,1-.16,2.29,2.29,0,0,0,.79-.45,2.29,2.29,0,0,0,.47-2.71,2,2,0,0,0-.66-.71,2.94,2.94,0,0,0-1-.39,5.13,5.13,0,0,0-1.12-.12h-.51Z"/><path d="M138.63,246.86h-7.48v-1.33l4.69-4.59.53-.55a4.51,4.51,0,0,0,.48-.6,3.65,3.65,0,0,0,.35-.68,2,2,0,0,0,.13-.73,2,2,0,0,0-.17-.83,1.79,1.79,0,0,0-.49-.63,2.33,2.33,0,0,0-.73-.39,2.84,2.84,0,0,0-.88-.14,2.45,2.45,0,0,0-1.53.48,2.21,2.21,0,0,0-.82,1.3l-1.26-.13a3.16,3.16,0,0,1,1.21-2,3.72,3.72,0,0,1,2.31-.72,5,5,0,0,1,1.36.18,3.6,3.6,0,0,1,1.13.55,2.9,2.9,0,0,1,.78.92,2.79,2.79,0,0,1,.29,1.29,3.29,3.29,0,0,1-.21,1.2,5.06,5.06,0,0,1-.54,1,7.1,7.1,0,0,1-.75.91l-.88.85-3.7,3.53h6.18Z"/><path d="M145.37,246.86h-1.19V237l-2.11,1.79-.75-.86,3-2.37h1.06Z"/><path d="M154.64,241c0-.27,0-.55,0-.83l-.06-.83h1.18v1.14h0a2.62,2.62,0,0,1,1.11-1,3.29,3.29,0,0,1,1.4-.33,4.06,4.06,0,0,1,.67.06,2.44,2.44,0,0,1,.69.23,2.29,2.29,0,0,1,.63.48,2.67,2.67,0,0,1,.49.78,2.51,2.51,0,0,1,1.05-1.14,3,3,0,0,1,1.5-.41,2.87,2.87,0,0,1,2.21.76,3,3,0,0,1,.72,2.17v4.75h-1.1v-4.37a3.11,3.11,0,0,0-.41-1.74,1.75,1.75,0,0,0-1.55-.61,2,2,0,0,0-1,.23,1.82,1.82,0,0,0-.67.62,2.64,2.64,0,0,0-.38.87,4.74,4.74,0,0,0-.11,1v4h-1.1v-4.37a3.11,3.11,0,0,0-.41-1.74,1.75,1.75,0,0,0-1.55-.61l-.46.06a1.74,1.74,0,0,0-.73.35,2.51,2.51,0,0,0-.69.87,3.34,3.34,0,0,0-.31,1.6v3.84h-1.1Z"/><path d="M168.8,241c0-.27,0-.55,0-.83s0-.55-.06-.83h1.18v1.14h0a2.54,2.54,0,0,1,1.1-1,3.29,3.29,0,0,1,1.4-.33,4.18,4.18,0,0,1,.68.06,2.67,2.67,0,0,1,.69.23,2.12,2.12,0,0,1,.62.48,2.48,2.48,0,0,1,.49.78,2.51,2.51,0,0,1,1.05-1.14,3.09,3.09,0,0,1,1.51-.41,2.9,2.9,0,0,1,2.21.76,3.07,3.07,0,0,1,.71,2.17v4.75h-1.1v-4.37a3,3,0,0,0-.41-1.74,1.74,1.74,0,0,0-1.55-.61,2,2,0,0,0-1,.23,1.9,1.9,0,0,0-.67.62,2.44,2.44,0,0,0-.37.87,4.17,4.17,0,0,0-.12,1v4H174v-4.37a3,3,0,0,0-.41-1.74,1.74,1.74,0,0,0-1.55-.61l-.45.06a1.72,1.72,0,0,0-.74.35,2.51,2.51,0,0,0-.69.87,3.34,3.34,0,0,0-.31,1.6v3.84H168.8Z"/></g><line class="cls-2" x1="173.05" y1="37.27" x2="106.69" y2="37.27"/><line class="cls-2" x1="173.05" y1="36.07" x2="173.05" y2="38.48"/><line class="cls-2" x1="106.69" y1="36.07" x2="106.69" y2="38.48"/><g class="cls-3"><path d="M110.41,23.87a3.67,3.67,0,0,1,.7,1.16,4.15,4.15,0,0,1,0,3,3.75,3.75,0,0,1-.85,1.25,4,4,0,0,1-1.3.82,4.55,4.55,0,0,1-1.67.3,4.47,4.47,0,0,1-1.46-.23,4,4,0,0,1-1.15-.6l-1.12,1.08-.53-.49,1.1-1.09a3.64,3.64,0,0,1-.72-1.18,4.17,4.17,0,0,1-.24-1.43,4.07,4.07,0,0,1,.3-1.57,3.73,3.73,0,0,1,.86-1.24,3.81,3.81,0,0,1,1.3-.83,4.49,4.49,0,0,1,1.66-.29,4.73,4.73,0,0,1,1.44.21,4.27,4.27,0,0,1,1.2.62L111,22.29l.53.5Zm-1.3.26a2.8,2.8,0,0,0-1.87-.62,3,3,0,0,0-1.23.23,2.56,2.56,0,0,0-.91.63,2.91,2.91,0,0,0-.58.94,3.28,3.28,0,0,0-.21,1.17,2.9,2.9,0,0,0,.57,1.83Zm-3.73,4.72a2.88,2.88,0,0,0,.83.45,3.32,3.32,0,0,0,1,.16,3.16,3.16,0,0,0,1.22-.23,2.87,2.87,0,0,0,.92-.64,2.83,2.83,0,0,0,.59-.94,3.2,3.2,0,0,0,.21-1.17,3,3,0,0,0-.57-1.82Z"/><path d="M125.06,30.23h-7.48V28.9l4.69-4.59.53-.55a4,4,0,0,0,.48-.61,2.85,2.85,0,0,0,.35-.67,2,2,0,0,0,.13-.73,1.91,1.91,0,0,0-.17-.84,1.85,1.85,0,0,0-.49-.62,2.22,2.22,0,0,0-.73-.39,2.84,2.84,0,0,0-.88-.14,2.45,2.45,0,0,0-1.53.48,2.15,2.15,0,0,0-.81,1.3l-1.27-.13a3.16,3.16,0,0,1,1.21-2,3.73,3.73,0,0,1,2.32-.72,5,5,0,0,1,1.35.18,3.5,3.5,0,0,1,1.13.55,2.66,2.66,0,0,1,.78.92,2.79,2.79,0,0,1,.29,1.29,3.29,3.29,0,0,1-.21,1.2,5,5,0,0,1-.54,1,7.19,7.19,0,0,1-.75.92c-.29.28-.58.57-.88.84l-3.7,3.54h6.18Z"/><path d="M130.64,18.71a3.43,3.43,0,0,1,2.05.56,3.79,3.79,0,0,1,1.21,1.42,6.19,6.19,0,0,1,.58,1.9,13.58,13.58,0,0,1,.15,2,13.82,13.82,0,0,1-.15,2,6,6,0,0,1-.58,1.89,3.9,3.9,0,0,1-1.21,1.43,3.5,3.5,0,0,1-2.05.56,3.44,3.44,0,0,1-2-.56,3.8,3.8,0,0,1-1.21-1.43,6.06,6.06,0,0,1-.59-1.89,13.82,13.82,0,0,1-.15-2,13.58,13.58,0,0,1,.15-2,6.2,6.2,0,0,1,.59-1.9,3.7,3.7,0,0,1,1.21-1.42A3.37,3.37,0,0,1,130.64,18.71Zm0,1.05a2.21,2.21,0,0,0-1.52.5,3.14,3.14,0,0,0-.84,1.23,5.71,5.71,0,0,0-.35,1.57c-.05.55-.08,1.05-.08,1.5s0,1,.08,1.51a5.72,5.72,0,0,0,.35,1.56,3.18,3.18,0,0,0,.84,1.24,2.6,2.6,0,0,0,3,0,3.18,3.18,0,0,0,.84-1.24,5.73,5.73,0,0,0,.36-1.56c0-.56.07-1.06.07-1.51s0-.95-.07-1.5a5.71,5.71,0,0,0-.36-1.57,3.14,3.14,0,0,0-.84-1.23A2.21,2.21,0,0,0,130.64,19.76Z"/><path d="M139.88,18.71a3.37,3.37,0,0,1,2,.56,3.7,3.7,0,0,1,1.21,1.42,6.2,6.2,0,0,1,.59,1.9,15.09,15.09,0,0,1,.14,2,15.36,15.36,0,0,1-.14,2,6.06,6.06,0,0,1-.59,1.89,3.8,3.8,0,0,1-1.21,1.43,4,4,0,0,1-4.09,0,3.9,3.9,0,0,1-1.21-1.43,6,6,0,0,1-.58-1.89,13.82,13.82,0,0,1-.15-2,13.58,13.58,0,0,1,.15-2,6.19,6.19,0,0,1,.58-1.9,3.79,3.79,0,0,1,1.21-1.42A3.41,3.41,0,0,1,139.88,18.71Zm0,1.05a2.21,2.21,0,0,0-1.52.5,3.14,3.14,0,0,0-.84,1.23,5.71,5.71,0,0,0-.36,1.57c0,.55-.07,1.05-.07,1.5s0,1,.07,1.51a5.73,5.73,0,0,0,.36,1.56,3.18,3.18,0,0,0,.84,1.24,2.6,2.6,0,0,0,3,0,3.18,3.18,0,0,0,.84-1.24,5.72,5.72,0,0,0,.35-1.56c0-.56.08-1.06.08-1.51s0-.95-.08-1.5a5.71,5.71,0,0,0-.35-1.57,3.14,3.14,0,0,0-.84-1.23A2.21,2.21,0,0,0,139.88,19.76Z"/><path d="M150.31,24.4c0-.28,0-.55,0-.83l-.06-.83h1.18v1.13h0a2.64,2.64,0,0,1,1.1-1,3.33,3.33,0,0,1,1.41-.33,4.06,4.06,0,0,1,.67.06,2.44,2.44,0,0,1,.69.23,2.26,2.26,0,0,1,.62.47,2.47,2.47,0,0,1,.49.79A2.53,2.53,0,0,1,157.48,23a2.92,2.92,0,0,1,1.5-.41,2.89,2.89,0,0,1,2.21.76,3,3,0,0,1,.72,2.16v4.76h-1.1V25.86a3.08,3.08,0,0,0-.42-1.75,1.74,1.74,0,0,0-1.54-.6,2,2,0,0,0-1,.23,1.88,1.88,0,0,0-.67.61,2.58,2.58,0,0,0-.38.88,4.74,4.74,0,0,0-.11,1v4h-1.1V25.86a3.08,3.08,0,0,0-.42-1.75,1.74,1.74,0,0,0-1.54-.6l-.46.06a1.77,1.77,0,0,0-.74.35,2.65,2.65,0,0,0-.69.87,3.48,3.48,0,0,0-.3,1.6v3.84h-1.1Z"/><path d="M164.46,24.4c0-.28,0-.55,0-.83l-.06-.83h1.18v1.13h0a2.66,2.66,0,0,1,1.11-1,3.29,3.29,0,0,1,1.4-.33,4,4,0,0,1,.67.06,2.44,2.44,0,0,1,.69.23,2.3,2.3,0,0,1,.63.47,2.88,2.88,0,0,1,.49.79,2.51,2.51,0,0,1,1-1.14,3,3,0,0,1,1.5-.41,2.87,2.87,0,0,1,2.21.76,3,3,0,0,1,.72,2.16v4.76H175V25.86a3.17,3.17,0,0,0-.41-1.75,1.76,1.76,0,0,0-1.55-.6,2,2,0,0,0-1,.23,2,2,0,0,0-.67.61,2.57,2.57,0,0,0-.37.88,4.17,4.17,0,0,0-.12,1v4h-1.1V25.86a3.17,3.17,0,0,0-.41-1.75,1.76,1.76,0,0,0-1.55-.6l-.45.06a1.72,1.72,0,0,0-.74.35,2.42,2.42,0,0,0-.69.87,3.34,3.34,0,0,0-.31,1.6v3.84h-1.1Z"/></g><line class="cls-2" x1="214.97" y1="217.23" x2="214.97" y2="74.03"/><line class="cls-2" x1="216.19" y1="217.23" x2="213.75" y2="217.23"/><line class="cls-2" x1="216.19" y1="74.03" x2="213.75" y2="74.03"/><g class="cls-3"><path d="M232.58,162.58V161h1v1.63h2.69v1.15h-2.69v4.9h-1.31L225,164.05v-1.47Zm-6.43,1.15v0l6.43,3.9v-3.94Z"/><path d="M232.58,153.69v-1.64h1v1.64h2.69v1.15h-2.69v4.89h-1.31L225,155.16v-1.47Zm-6.43,1.15v0l6.43,3.9v-3.93Z"/><path d="M236.32,143.48v7.2H235l-4.59-4.51c-.17-.18-.35-.35-.54-.52a5.41,5.41,0,0,0-.61-.46,3.52,3.52,0,0,0-.67-.34,2.3,2.3,0,0,0-.74-.13,2,2,0,0,0-.83.17,1.73,1.73,0,0,0-.62.48,2.1,2.1,0,0,0-.4.7,2.65,2.65,0,0,0-.13.85,2.32,2.32,0,0,0,.48,1.47,2.16,2.16,0,0,0,1.29.78l-.12,1.22a3.18,3.18,0,0,1-2-1.16,3.51,3.51,0,0,1-.72-2.23,4.32,4.32,0,0,1,.19-1.31,3.07,3.07,0,0,1,.55-1.08,2.63,2.63,0,0,1,.92-.76,2.92,2.92,0,0,1,1.29-.28,3.6,3.6,0,0,1,1.2.2,5.44,5.44,0,0,1,1,.52,7.86,7.86,0,0,1,.91.73c.29.27.57.55.85.84l3.54,3.57v-6Z"/><path d="M230.5,137l-.83,0-.84.06v-1.14H230v0a2.41,2.41,0,0,1-1-1.06,2.91,2.91,0,0,1-.27-2,2.42,2.42,0,0,1,.23-.67,2.34,2.34,0,0,1,.47-.6,2.65,2.65,0,0,1,.78-.47,2.45,2.45,0,0,1-1.13-1,3.07,3.07,0,0,1,.34-3.58,3.12,3.12,0,0,1,2.17-.69h4.75v1.06H232a3.16,3.16,0,0,0-1.74.4,1.63,1.63,0,0,0-.61,1.49,1.82,1.82,0,0,0,.85,1.64,3.07,3.07,0,0,0,.87.36,4.9,4.9,0,0,0,1,.11h4v1H232a3.25,3.25,0,0,0-1.74.4,1.65,1.65,0,0,0-.61,1.49,2.52,2.52,0,0,0,.07.44,1.62,1.62,0,0,0,.35.71,2.55,2.55,0,0,0,.86.67,3.69,3.69,0,0,0,1.6.29h3.84V137Z"/><path d="M230.5,123.32l-.83,0-.84.06v-1.14H230v0a2.47,2.47,0,0,1-1-1.06,2.91,2.91,0,0,1-.27-2,2.42,2.42,0,0,1,.23-.67,2.34,2.34,0,0,1,.47-.6,2.65,2.65,0,0,1,.78-.47,2.42,2.42,0,0,1-1.13-1,2.73,2.73,0,0,1-.42-1.44,2.76,2.76,0,0,1,.76-2.13,3.12,3.12,0,0,1,2.17-.69h4.75v1.06H232a3.16,3.16,0,0,0-1.74.4,1.62,1.62,0,0,0-.61,1.48,2,2,0,0,0,.23,1,1.9,1.9,0,0,0,.62.64,2.58,2.58,0,0,0,.87.36,4.31,4.31,0,0,0,1,.12h4v1.05H232a3.25,3.25,0,0,0-1.74.4,1.64,1.64,0,0,0-.61,1.49,2.67,2.67,0,0,0,.07.44,1.62,1.62,0,0,0,.35.71,2.55,2.55,0,0,0,.86.67,3.69,3.69,0,0,0,1.6.29h3.84v1.06Z"/></g><g class="cls-3"><path d="M80.39,149.06v4.63l3.4.08a4.17,4.17,0,0,1-.2-.75,4.08,4.08,0,0,1-.07-.77,3.8,3.8,0,0,1,.27-1.46,3.57,3.57,0,0,1,.76-1.13,3.47,3.47,0,0,1,1.16-.73,3.77,3.77,0,0,1,1.44-.27,3.82,3.82,0,0,1,1.5.29,3.53,3.53,0,0,1,1.17.8,3.77,3.77,0,0,1,.76,1.21,4.13,4.13,0,0,1,.27,1.51,3.75,3.75,0,0,1-.51,1.94,3.27,3.27,0,0,1-1.51,1.32l-.49-1.15a2.58,2.58,0,0,0,1.06-.89,2.28,2.28,0,0,0,.39-1.32,2.4,2.4,0,0,0-.2-1,2.6,2.6,0,0,0-.53-.8,2.65,2.65,0,0,0-.8-.55,2.54,2.54,0,0,0-1-.2,2.75,2.75,0,0,0-1.09.21,2.56,2.56,0,0,0-.86.58,2.48,2.48,0,0,0-.55.88,3.1,3.1,0,0,0-.19,1.12,4.21,4.21,0,0,0,.17,1.21A5.64,5.64,0,0,0,85.2,155l-5.87-.11v-5.78Z"/><path d="M84.19,144.34v-.59a3.69,3.69,0,0,0-.11-.95,2,2,0,0,0-.36-.79,1.64,1.64,0,0,0-.65-.54,2.13,2.13,0,0,0-1-.2,1.84,1.84,0,0,0-1.41.55,2.21,2.21,0,0,0-.51,1.55,2.46,2.46,0,0,0,.32,1.26,2.68,2.68,0,0,0,.93.9l-.51,1a3.41,3.41,0,0,1-1.35-1.31,3.75,3.75,0,0,1-.44-1.83,4.07,4.07,0,0,1,.19-1.27,3.18,3.18,0,0,1,.57-1,2.88,2.88,0,0,1,.93-.71,2.91,2.91,0,0,1,1.25-.26,2.58,2.58,0,0,1,.88.15,2.5,2.5,0,0,1,.75.42,2.76,2.76,0,0,1,1,1.35l0,0a2.34,2.34,0,0,1,.36-.88,2.8,2.8,0,0,1,.64-.69,3.26,3.26,0,0,1,.87-.45,3.34,3.34,0,0,1,1-.16,3.26,3.26,0,0,1,1.39.29,3,3,0,0,1,1,.79,3.3,3.3,0,0,1,.63,1.15,4.6,4.6,0,0,1-.32,3.57A3.35,3.35,0,0,1,88.56,147l-.37-1.22a2.31,2.31,0,0,0,1.21-.85,2.8,2.8,0,0,0,.39-1.6,2.57,2.57,0,0,0-.16-.91,2.16,2.16,0,0,0-.45-.76,2.11,2.11,0,0,0-.71-.51,2.32,2.32,0,0,0-.92-.18,2.27,2.27,0,0,0-1.08.24,2,2,0,0,0-.71.64,2.64,2.64,0,0,0-.39.92,4.7,4.7,0,0,0-.12,1.08v.49Z"/><path d="M79.14,134.26a3.26,3.26,0,0,1,.56-2,3.74,3.74,0,0,1,1.42-1.16,6.17,6.17,0,0,1,1.9-.56,13.08,13.08,0,0,1,4,0,6.17,6.17,0,0,1,1.9.56,3.74,3.74,0,0,1,1.42,1.16,3.75,3.75,0,0,1,0,3.94,3.86,3.86,0,0,1-1.42,1.17A6.45,6.45,0,0,1,87,138a14,14,0,0,1-4,0,6.45,6.45,0,0,1-1.9-.56,3.86,3.86,0,0,1-1.42-1.17A3.24,3.24,0,0,1,79.14,134.26Zm1,0a2.09,2.09,0,0,0,.5,1.47,3.3,3.3,0,0,0,1.23.81,6.18,6.18,0,0,0,1.57.34c.55.05,1.06.07,1.5.07s1,0,1.51-.07a6.18,6.18,0,0,0,1.57-.34,3.3,3.3,0,0,0,1.23-.81,2.09,2.09,0,0,0,.49-1.47,2.06,2.06,0,0,0-.49-1.46,3.08,3.08,0,0,0-1.23-.81,5.78,5.78,0,0,0-1.57-.34c-.56-.05-1.06-.08-1.51-.08s-.95,0-1.5.08a5.78,5.78,0,0,0-1.57.34,3.08,3.08,0,0,0-1.23.81A2.07,2.07,0,0,0,80.19,134.26Z"/><path d="M84.83,124.22c-.27,0-.55,0-.83,0l-.83.06v-1.14h1.14v0a2.52,2.52,0,0,1-1-1.07,3.05,3.05,0,0,1-.33-1.35,3.83,3.83,0,0,1,.06-.65,2.25,2.25,0,0,1,.23-.66,2.39,2.39,0,0,1,.48-.6,2.45,2.45,0,0,1,.78-.47,2.5,2.5,0,0,1-1.14-1,2.85,2.85,0,0,1-.41-1.45,2.69,2.69,0,0,1,.76-2.12,3.12,3.12,0,0,1,2.17-.69h4.75v1H86.29a3.2,3.2,0,0,0-1.74.4,1.65,1.65,0,0,0-.61,1.49,2,2,0,0,0,.23,1,1.84,1.84,0,0,0,.62.65,2.42,2.42,0,0,0,.87.36,4.17,4.17,0,0,0,1,.11h4v1.06H86.29a3.11,3.11,0,0,0-1.74.4,1.64,1.64,0,0,0-.61,1.49,3.61,3.61,0,0,0,.06.44,1.67,1.67,0,0,0,.35.71,2.58,2.58,0,0,0,.87.66,3.51,3.51,0,0,0,1.6.3h3.84v1.06Z"/><path d="M84.83,110.58l-.83,0-.83,0v-1.13h1.14v0a2.58,2.58,0,0,1-1-1.07,3.05,3.05,0,0,1-.33-1.35,3.83,3.83,0,0,1,.06-.65,2.25,2.25,0,0,1,.23-.66,2.08,2.08,0,0,1,.48-.6,2.28,2.28,0,0,1,.78-.47,2.56,2.56,0,0,1-1.14-1,2.85,2.85,0,0,1-.41-1.45,2.73,2.73,0,0,1,.76-2.13,3.17,3.17,0,0,1,2.17-.68h4.75v1H86.29a3.11,3.11,0,0,0-1.74.4,1.64,1.64,0,0,0-.61,1.49,2,2,0,0,0,.23,1,1.93,1.93,0,0,0,.62.65,2.62,2.62,0,0,0,.87.36,4.74,4.74,0,0,0,1,.11h4v1.06H86.29a3.11,3.11,0,0,0-1.74.4,1.63,1.63,0,0,0-.61,1.49,3.61,3.61,0,0,0,.06.44,1.73,1.73,0,0,0,.35.71,2.72,2.72,0,0,0,.87.66,3.51,3.51,0,0,0,1.6.3h3.84v1Z"/></g><line class="cls-2" x1="99.08" y1="217.41" x2="99.08" y2="46.31"/><line class="cls-2" x1="100.53" y1="217.41" x2="97.63" y2="217.41"/><line class="cls-2" x1="100.53" y1="46.31" x2="97.63" y2="46.31"/><path class="cls-4" d="M136,122l-.19,79.45m.26-.12-3.36,1.58M146,200.79h-6.5m6.49,3.7-7.94,0m.12-.05-3.9,1.85m-1-3.64-.67-.33m3.14-2.59-1.54-.73m5.43-75.43-.18,77.31M189.08,76.56l-49.44,47M186.52,73.9,164.74,94.6m-10.58,10.06L136,121.92m0,79.42.14-.05.23,0,.27,0,.31.07.32.1.33.14m.93.58.05.2.07.38,0,.38m7.29,0v1.34m0-3.69v2.35m-7.29,0v.05l0,.35-.07.3-.11.26-.15.2-.18.12m-5.49-1.49h0l.31-.09.33,0,.33.07.33.13.3.21.26.26.22.31.16.35.1.37,0,.37,0,.35-.1.33-.18.3-.22.23-.27.18m-1.62-4h0l-.27-.18-.21-.24-.17-.29-.1-.33,0-.36m0,0v0l0-.37.11-.36.17-.35.23-.3.27-.25.3-.2.33-.13.33-.06.33,0,.3.1m4.32,3.2.29-.32.24-.31.11-.14.1-.14.07-.11.06-.11,0-.08,0-.06v-.05m-1.86.74.3.16.32.2.31.22M189.08,76.56l0,0h-.11l-.16-.07-.2-.13-.24-.17-.26-.22-.26-.25m-48.17,47.84,0,0,0,0-.08,0h-.28l-.18,0-.14,0-.15,0-.31-.09-.26-.08-.35-.13m50-47.53-.15-.14-.27-.27-.24-.28-.22-.28-.19-.25-.13-.22-.09-.18,0-.13,0-.08m0,0h.09l.14,0,.19.1.22.15.25.2.26.23.27.26.27.28.24.28.23.27.18.26.14.22.08.18,0,.13,0,.08M136,122l0-.09m0,.09v.07l0,.09.08.08.13.12.16.13.19.13.15.1.16.09.34.18.07,0,.34.15.19.08"/><g class="cls-5"><path class="cls-4" d="M111.6,62.18l.06-.11.21-.33.2-.33.21-.32.21-.32.22-.32.23-.31.22-.31.23-.31.23-.31.25-.3.24-.3.24-.3.25-.29.25-.29.26-.29.25-.29.27-.27.27-.28.27-.28.27-.27.28-.27.28-.27.28-.25.29-.26.29-.25.3-.26.29-.24.3-.25.3-.23.31-.24.31-.23.31-.23.31-.22.32-.22.32-.22.32-.21.33-.21.33-.2.33-.2.33-.2.34-.19.34-.19.34-.18.34-.18.34-.17.35-.17.35-.17.35-.16.35-.16.36-.15.36-.15.35-.14.37-.14.35-.14.37-.13.37-.13.36-.12.37-.11.37-.12.37-.1.38-.11.37-.09.38-.1.37-.09.38-.09.38-.07.38-.08.38-.07.38-.07.38-.06.38-.05.39-.06.38,0,.38,0,.4,0,.38,0,.39,0,.38,0,.39,0h2.32l.38,0H140l.39,0,.39,0,.38,0,.39,0,.38,0,.38,0,.39.05.38.06.38.07.38.06.38.07.38.08L145,48l.38.09.37.09.38.1.37.09.37.11.37.11.37.11.37.13.37.12.36.12.37.14.36.14.36.14.35.14.36.15.35.16.36.16.35.16.35.17.34.17.35.18.33.18.35.18.33.19.33.2.34.2.33.2.32.2.33.21.32.22.32.21.32.23.31.22.31.23.31.24.3.23.3.24.3.25.3.25.29.25.29.25.29.26.27.27.29.26.27.27.28.27.26.28.27.28.26.28.26.28.26.3.25.29.24.29.24.3.24.3.25.31.22.31.23.31.23.31.21.31.22.32.22.32.2.33.21.33.2.32.19.33.2.34.18.33.19.34.17.34.18.35.17.34.17.34.16.36.15.35.15.35.15.35.15.36.14.36.13.36.14.36.12.36.12.37.12.36.11.37.1.37.1.37.11.37.09.38.09.37.08.37.08.38.08.38.06.37.07.38.06.38.05.39,0,.37.05.38,0,.39,0,.38,0,.38,0,.39,0,.38,0,.38,0,.38v1.92l0,.39,0,.38,0,.38,0,.39,0,.38,0,.38-.05.38,0,.39-.06.38-.06.37-.06.38-.08.38-.07.38-.08.37-.09.37-.08.38-.09.37-.1.38-.11.36-.11.37-.1.37-.13.37-.12.36-.12.37-.13.35-.14.37-.14.35-.14.36-.15.35-.15.36-.16.35-.16.35-.17.34-.17.35-.18.34-.17.34-.19.34-.19.33-.19.34-.19.33m0,0-.15.24-.2.33-.21.32-.21.32m-7.83,8-.1.08-.32.22-.32.21-.32.22-.33.2-.32.21-.33.2-.34.19-.34.2-.33.18-.34.18-.34.18-.35.18-.35.17-.34.16-.35.17-.36.16-.36.15-.35.14-.36.15-.36.14-.36.14-.37.13-.36.12-.37.12-.37.12-.37.11-.37.11-.38.1-.37.1-.37.09-.38.1-.38.08-.37.08-.39.07-.37.07-.38.07-.39.06-.38.06-.39,0-.38,0-.38,0-.39,0-.38,0-.39,0-.39,0-.39,0h-2.32l-.38,0-.39,0-.38,0-.39,0-.38,0-.39,0-.38,0-.39-.06-.39,0-.38,0-.38-.07-.38-.07-.38-.07-.38-.07-.38-.08-.37-.09-.37-.09-.38-.1-.38-.1-.37-.11-.37-.1-.37-.12-.37-.12L128,107l-.36-.13-.36-.13-.36-.14-.37-.15-.35-.14-.36-.15-.35-.15-.35-.16-.35-.17-.35-.17-.35-.17-.34-.17-.34-.18-.34-.19-.34-.19-.34-.19-.32-.2-.34-.2-.32-.21-.33-.21-.32-.21-.32-.22-.31-.22-.31-.23-.31-.23-.31-.23-.31-.24-.3-.24-.3-.24-.29-.25-.3-.25-.29-.26-.28-.25-.29-.27-.28-.27-.27-.27-.27-.26-.27-.28-.26-.29-.27-.28-.26-.28-.25-.29-.25-.29-.25-.3-.24-.3-.24-.3-.24-.3-.23-.31-.23-.31-.22-.31-.22-.32-.22-.32-.21-.32-.21-.32-.2-.33-.2-.33-.2-.33-.19-.33-.19-.34-.18-.34-.18-.34-.17-.34-.17-.34-.17-.35-.16-.35-.16-.35-.15-.35-.15-.36-.14-.35-.14-.36-.14-.36-.13-.37-.13-.36-.12-.36L108.6,87l-.11-.36-.11-.37-.1-.38-.1-.36-.09-.38-.09-.37-.09-.38-.08-.38-.07-.37-.07-.38-.07-.38-.05-.38-.06-.38-.05-.38,0-.38,0-.38,0-.38,0-.39,0-.38,0-.38,0-.38V76.75l0-.38,0-.39,0-.38,0-.38,0-.39,0-.37,0-.39.06-.38,0-.38.06-.38.07-.38.07-.38.07-.37.08-.38.09-.37.09-.38.09-.37.1-.37.1-.37.11-.37.11-.36.12-.37.12-.37.12-.36.14-.36.13-.36.14-.36.14-.35.15-.36.16-.36.16-.34.16-.35.16-.35.17-.34.18-.35.18-.33.18-.35.19-.33.19-.33.2-.33M164,94.88l0,.06-.17.24-.17.25-.18.25-.2.26-.21.27-.21.27-.22.27-.23.28-.23.27-.24.28-.25.28-.26.28-.25.28-.26.29-.27.27-.26.28-.28.27-.27.28-.27.26-.27.27m0,0-.23.21-.27.25-.27.25-.28.24-.26.23-.27.23-.26.22-.26.21-.26.2-.25.19-.24.18-.24.17m-40.75,91.26-.14,0-.18,0-.2,0h-.2l-.19,0-.17,0-.16,0-.14-.07m2-4.27.11,0,.15.1.15.12.12.12.11.12.12.16.09.16.08.19m-3.83.3-.09.22-.06.23-.06.22,0,.24v.46l0,.22.06.22.07.18.1.2.1.15.11.15.15.16.13.11.15.1.17.09m-.85-2.95,0-.1.12-.21.13-.19.15-.19.15-.16.15-.13.19-.14.2-.11.21-.1.21-.08.21-.05.19,0h.39l.19,0,.17,0,.19.08m.12,25.5.16-.08.15-.11.14-.11.14-.15.14-.17.09-.17.09-.16.07-.21.06-.22,0-.23v-.46l0-.21,0-.21-.07-.22-.08-.22m0,0-.09-.18-.12-.21-.14-.18-.15-.19-.17-.15-.18-.15-.19-.13-.2-.11-.21-.09-.21-.06-.18,0-.2,0h-.39l-.17,0-.16.05-.15.06m.66,4.35.11,0,.19,0,.2,0h.21l.19,0,.17,0,.17,0,.15-.07m-3-3.25,0-.1.08-.16.11-.16.11-.15.12-.13.15-.13.15-.1.17-.09m68.31-6h.08l.07,0,.07,0,.05-.05,0-.06,0-.06,0-.08v-2.48m0,0v-1.6l0-.08,0-.07-.05-.06-.06,0-.06,0-.07,0h-.08m-.38,4.35v-2.42m0,2.24v.32l0,.06.05.06,0,.05.07,0,.07,0h.08m-.36-2.8v-1.55m0,.18v-.23l0-.08,0-.07.05-.06.05,0,.07,0,.07,0h.08M113.55,189.2l1.17.55M112,192.53l1.17.55m1.35.64,18.12,8.57m-16.52-11.9L134.19,199m-19.72-5.25h0l-.27-.18-.22-.24-.17-.29-.09-.33,0-.36m0,0v-.15l.07-.38.13-.35m0,0,.12-.23.22-.3.27-.26.31-.19.32-.13.34,0,.32,0,.31.1m16.52,11.9h0l-.26-.18-.22-.24-.16-.3-.1-.34,0-.36,0-.37.11-.36.17-.35.23-.3.27-.25.3-.2.33-.13.33-.06.33,0,.3.1M112,192.53l0,0-.27-.19-.21-.24-.16-.29-.1-.33,0-.37,0-.37.11-.37.17-.34.22-.3.28-.26.3-.2.32-.12.33-.06.33,0,.31.1m-1.47,23.43,2.12-1m-.53,4.33,2.13-1m1.35-.64,17.07-8.07M115.55,211l17.06-8.06m-16.2,9.74.07.14.1.37,0,.37m0,0v0l0,.36-.12.33-.17.28-.22.24-.27.18m-1.6-3.33.21-.08.32-.05.33,0,.33.1.32.17.28.24.24.29.18.34m16.2-9.74,0,0,.32-.09.32,0,.33.07.33.13.3.21.27.26.22.31.16.35.1.37,0,.37,0,.35-.1.33-.17.3-.23.24-.26.16M113.67,216h0l-.31.1H113l-.33-.06-.33-.12-.3-.21-.27-.26-.23-.31-.16-.34-.1-.37,0-.37m0,0v0l0-.36.11-.33.17-.29.22-.24.28-.17m0,0h0l.31-.09.33,0,.33.06.32.14.3.2.27.26.22.32.16.34.09.37,0,.37,0,.36-.11.33-.17.29-.22.24-.28.17m68.45-15.05v-.06m.76,0v.05m-.76,3.63,0,0m.74,0v0m4.27-3.68h-4.26m-.76,0L146,200.79m41.18,3.76h-4.27m-.76,0-36.16-.05m36.93-3.63v2.35m-.76-2.35v2.35m.76.79v.55m0-1.34V204m-.76-.79V204m0,0v.54m5-1.32v1.34m0-3.69v2.35M146,203.14v1.34m0-3.69v2.35"/></g><polyline class="cls-4" points="155.73 103.21 155.94 103.07 156.16 102.92 156.4 102.76 156.63 102.59 156.88 102.4 157.13 102.21 157.38 102 157.64 101.79 157.91 101.57 158.17 101.34 158.44 101.11 158.71 100.86 158.98 100.61 159.26 100.36 159.53 100.1 159.8 99.83 160.07 99.56 160.35 99.29 160.61 99.01 160.88 98.74 161.13 98.46 161.39 98.18 161.64 97.9 161.89 97.62 162.13 97.34 162.37 97.06 162.59 96.79 162.81 96.52 163.02 96.25 163.23 95.99 163.42 95.73 163.6 95.48 163.78 95.23 163.94 94.99 164.1 94.75 164.24 94.53 164.37 94.31 164.38 94.3"/><path class="cls-4" d="M165.68,91.94h0l0,.08v.31l0,.12,0,.14,0,.15-.07.16-.06.16-.08.17-.09.19-.1.2-.11.2L165,94l-.14.22-.14.23-.15.23-.16.24-.18.24-.17.26-.2.25-.19.26-.21.26-.21.27-.22.27-.23.27-.23.28-.24.27-.24.28-.25.28-.26.28-.25.28-.26.28-.27.27-.27.27-.27.28-.27.27-.27.26-.27.26-.27.25-.27.26-.27.24-.27.25-.27.23-.27.22-.26.22-.26.22-.25.2-.25.19-.25.19-.24.18-.23.17-.23.16-.22.15-.22.14-.2.13-.2.11-.2.11-.18.09-.17.08-.16.08-.16.06-.14,0-.14,0-.12,0h-.32l-.08,0m12.17-12.35v.08l0,.13,0,.16-.06.16-.07.16-.09.18-.09.19-.1.19-.12.21-.12.21-.14.22-.14.23-.15.23-.17.24-.17.24-.18.25-.2.26-.19.26-.21.27-.22.27-.22.26-.23.28-.23.27-.24.28-.25.28-.25.28-.25.28-.26.27-.26.28-.27.28-.26.27-.28.27-.26.27-.28.26-.27.27-.27.25-.28.24-.26.25-.27.24-.27.23-.26.22-.27.22-.25.22-.25.19-.25.2-.25.19-.24.17-.23.16-.23.16-.21.14-.22.14-.2.13-.2.11-.19.1-.18.09-.17.08-.16.07-.15.06-.15,0-.13,0"/><line class="cls-2" x1="194.63" y1="85.79" x2="145.18" y2="132.36"/><line class="cls-2" x1="193.37" y1="84.46" x2="195.88" y2="87.13"/><line class="cls-2" x1="143.92" y1="131.03" x2="146.43" y2="133.7"/><g class="cls-3"><path d="M168.73,138.67l-4.93,4.66-1-1.06-.4-6.6c0-.24,0-.5-.06-.76a5.22,5.22,0,0,0-.14-.79,4.35,4.35,0,0,0-.28-.76,3,3,0,0,0-.47-.67,2.54,2.54,0,0,0-.74-.56,2.12,2.12,0,0,0-.8-.19,2.07,2.07,0,0,0-.78.14,2.15,2.15,0,0,0-.68.44,2,2,0,0,0-.65,1.34,2.57,2.57,0,0,0,.45,1.55l-.93.68a3.69,3.69,0,0,1-.71-2.34,3.06,3.06,0,0,1,1-2,3.84,3.84,0,0,1,1-.7,3.2,3.2,0,0,1,1.17-.26A3,3,0,0,1,161,131a3.59,3.59,0,0,1,1.17.85,4.27,4.27,0,0,1,.77,1.09,6.2,6.2,0,0,1,.42,1.16,7.9,7.9,0,0,1,.19,1.2c0,.4.06.81.07,1.22l.24,5.14,4.07-3.85Z"/><path d="M174.81,132.91l-4.92,4.66-1-1.06-.39-6.59c0-.25,0-.51-.06-.77a6.86,6.86,0,0,0-.14-.79,4.35,4.35,0,0,0-.28-.76,3,3,0,0,0-.47-.67,2.67,2.67,0,0,0-.75-.55,1.92,1.92,0,0,0-.79-.2,2.07,2.07,0,0,0-.78.14,2.15,2.15,0,0,0-.68.44,2,2,0,0,0-.65,1.34,2.51,2.51,0,0,0,.45,1.55l-.93.68a3.63,3.63,0,0,1-.71-2.34,3,3,0,0,1,1-2,3.69,3.69,0,0,1,1-.7,3.16,3.16,0,0,1,1.17-.26,3,3,0,0,1,1.21.25,3.56,3.56,0,0,1,1.16.85,4.27,4.27,0,0,1,.77,1.09,5.6,5.6,0,0,1,.43,1.16,7.9,7.9,0,0,1,.19,1.2c0,.41.05.81.06,1.22l.24,5.14,4.07-3.85Z"/><path d="M172.92,125.56a2.37,2.37,0,0,1-.75.14,2.84,2.84,0,0,1-.81-.12,3.61,3.61,0,0,1-.8-.37,3.28,3.28,0,0,1-.72-.58,3.63,3.63,0,0,1-.75-1.14,3.29,3.29,0,0,1-.24-1.2,2.88,2.88,0,0,1,.92-2.08,3,3,0,0,1,1-.62,2.71,2.71,0,0,1,1.13-.18,3,3,0,0,1,1.18.31,3.51,3.51,0,0,1,1.11.81,3.57,3.57,0,0,1,.54.75,3.76,3.76,0,0,1,.32.82,2.78,2.78,0,0,1,.07.81,2.23,2.23,0,0,1-.18.74l0,0a2.52,2.52,0,0,1,1.84-.15,4,4,0,0,1,1.85,1.16,3.71,3.71,0,0,1,.81,1.26,3.6,3.6,0,0,1,.23,1.32,3,3,0,0,1-.29,1.25,3.32,3.32,0,0,1-.76,1.07,3.42,3.42,0,0,1-1.11.7,3.07,3.07,0,0,1-1.27.22,3.63,3.63,0,0,1-1.3-.31,3.41,3.41,0,0,1-1.21-.87,3.86,3.86,0,0,1-1.06-1.91,2.57,2.57,0,0,1,.25-1.84Zm.54-4.21a2.57,2.57,0,0,0-.71-.54,2,2,0,0,0-.77-.23,1.89,1.89,0,0,0-.75.08,1.61,1.61,0,0,0-.66.4,1.75,1.75,0,0,0-.44.64,1.89,1.89,0,0,0-.12.74,2,2,0,0,0,.19.78,2.54,2.54,0,0,0,.5.74,3,3,0,0,0,.71.55,2.26,2.26,0,0,0,.77.23,2.09,2.09,0,0,0,.75-.08,1.71,1.71,0,0,0,.67-.4,1.81,1.81,0,0,0,.43-.64,1.91,1.91,0,0,0,.12-.75,2,2,0,0,0-.19-.78A2.48,2.48,0,0,0,173.46,121.35Zm4.28,4a3.13,3.13,0,0,0-.81-.62,2.53,2.53,0,0,0-.89-.27,2,2,0,0,0-.9.1,2.39,2.39,0,0,0-1.37,1.3,1.93,1.93,0,0,0-.15.88,2.53,2.53,0,0,0,.22.91,3.06,3.06,0,0,0,.58.85,3.13,3.13,0,0,0,.81.62,2.53,2.53,0,0,0,.89.27,1.93,1.93,0,0,0,.89-.1,2.28,2.28,0,0,0,.83-.51,2.35,2.35,0,0,0,.55-.79,1.93,1.93,0,0,0,.15-.88,2.48,2.48,0,0,0-.22-.91A3.06,3.06,0,0,0,177.74,125.31Z"/><path d="M181,118.27c-.21-.23-.43-.44-.65-.65l-.67-.63.78-.74.86.91,0,0a2.63,2.63,0,0,1,.65-2.63,2.7,2.7,0,0,1,.49-.36,1.93,1.93,0,0,1,.63-.25,2.19,2.19,0,0,1,.77,0,2.93,2.93,0,0,1,.91.32,2.66,2.66,0,0,1-.16-1.57,2.41,2.41,0,0,1,.67-1.27,2.37,2.37,0,0,1,2-.76,3.74,3.74,0,0,1,2.12,1.29l3.6,3.8-.73.68-3.3-3.49a4,4,0,0,0-1.6-1.14,1.47,1.47,0,0,0-1.48.48,1.57,1.57,0,0,0-.5.82,1.91,1.91,0,0,0,0,.92,3.19,3.19,0,0,0,.42.93,5.13,5.13,0,0,0,.69.88l3,3.19-.72.69-3.31-3.5a4,4,0,0,0-1.6-1.14,1.47,1.47,0,0,0-1.48.48,4.06,4.06,0,0,0-.25.33,1.55,1.55,0,0,0-.22.75,2.79,2.79,0,0,0,.2,1.12,4.6,4.6,0,0,0,1,1.47l2.91,3.08-.72.68Z"/><path d="M190.28,109.44c-.21-.22-.42-.44-.65-.65l-.66-.63.77-.73.86.91,0,0a2.61,2.61,0,0,1,0-1.49,2.49,2.49,0,0,1,.67-1.14,3.92,3.92,0,0,1,.49-.37,2,2,0,0,1,.63-.24,2.2,2.2,0,0,1,.77,0,2.74,2.74,0,0,1,.92.32,2.67,2.67,0,0,1-.17-1.57,2.42,2.42,0,0,1,.68-1.27,2.37,2.37,0,0,1,2-.77,3.83,3.83,0,0,1,2.11,1.29l3.6,3.81-.72.68-3.31-3.5a4,4,0,0,0-1.59-1.13,1.44,1.44,0,0,0-1.48.47,1.59,1.59,0,0,0-.5.83,1.87,1.87,0,0,0,0,.91,3.19,3.19,0,0,0,.41.93,5.82,5.82,0,0,0,.7.89l3,3.19-.72.68-3.31-3.49a3.9,3.9,0,0,0-1.59-1.14,1.47,1.47,0,0,0-1.48.48,2.52,2.52,0,0,0-.25.33,1.41,1.41,0,0,0-.22.74,2.65,2.65,0,0,0,.2,1.13,4.44,4.44,0,0,0,1,1.47l2.91,3.07-.73.69Z"/></g></svg>