<svg id="IC_Lights_T2" xmlns="http://www.w3.org/2000/svg" xmlns:xlink="http://www.w3.org/1999/xlink" viewBox="0 0 300 263"><defs><style>.cls-1,.cls-2,.cls-5{fill:none;}.cls-2{stroke:#000;}.cls-2,.cls-5{stroke-width:0.5px;}.cls-3{isolation:isolate;}.cls-4{clip-path:url(#clip-path);}.cls-5{stroke:#1d1d1b;stroke-miterlimit:2;}</style><clipPath id="clip-path"><rect class="cls-1" x="71.43" y="74.17" width="157.15" height="142.83"/></clipPath></defs><title>ic-table-2-anastassiades-flos-F3172059-spech-tech-02-300x263-01</title><line class="cls-2" x1="108.85" y1="227.74" x2="194.9" y2="217.68"/><line class="cls-2" x1="108.66" y1="226.08" x2="109.05" y2="229.41"/><line class="cls-2" x1="194.7" y1="216.02" x2="195.09" y2="219.35"/><g class="cls-3"><path d="M127.81,243.45l-7.42.9-.16-1.32,4.1-5.12c.15-.19.31-.39.46-.61a4.46,4.46,0,0,0,.4-.66,3.06,3.06,0,0,0,.27-.71,2.14,2.14,0,0,0-.23-1.55,1.76,1.76,0,0,0-.56-.56,2.44,2.44,0,0,0-.78-.3,2.92,2.92,0,0,0-.89,0,2.44,2.44,0,0,0-1.46.66,2.19,2.19,0,0,0-.65,1.39l-1.27,0a3.15,3.15,0,0,1,1-2.11,3.69,3.69,0,0,1,2.21-1,5.21,5.21,0,0,1,1.37,0,3.57,3.57,0,0,1,1.19.41,2.76,2.76,0,0,1,.88.82,2.71,2.71,0,0,1,.45,1.25,3.45,3.45,0,0,1-.06,1.21,5.34,5.34,0,0,1-.42,1.09,6.66,6.66,0,0,1-.64,1c-.24.32-.5.64-.76.95l-3.25,4,6.13-.75Z"/><path d="M131.11,237a2.21,2.21,0,0,1-.75-.29,2.68,2.68,0,0,1-1.07-1.2,2.72,2.72,0,0,1-.24-.81,2.83,2.83,0,0,1,.12-1.24,2.76,2.76,0,0,1,.6-1,3,3,0,0,1,1-.71,3.65,3.65,0,0,1,1.23-.36,3.9,3.9,0,0,1,1.28,0,3.43,3.43,0,0,1,1.11.46,2.78,2.78,0,0,1,.82.85,2.72,2.72,0,0,1,.41,1.18,2.36,2.36,0,0,1,0,.84,2.58,2.58,0,0,1-.27.78,2.75,2.75,0,0,1-.48.64,2.45,2.45,0,0,1-.66.46v0a2.81,2.81,0,0,1,1.71.86,3.1,3.1,0,0,1,.82,1.83,2.92,2.92,0,0,1-.14,1.36,3.45,3.45,0,0,1-.69,1.11,3.49,3.49,0,0,1-1.09.78,4.3,4.3,0,0,1-1.38.39,4.07,4.07,0,0,1-1.44-.05,3.53,3.53,0,0,1-1.25-.5,3.22,3.22,0,0,1-.93-.91,2.86,2.86,0,0,1-.47-1.28,3.07,3.07,0,0,1,.37-2,2.81,2.81,0,0,1,1.45-1.24Zm3.3-2.85a2.23,2.23,0,0,0-.25-.78,1.9,1.9,0,0,0-.52-.57,2.18,2.18,0,0,0-1.55-.38,2.14,2.14,0,0,0-.81.25,2.09,2.09,0,0,0-.61.49,2,2,0,0,0-.36.68,2.19,2.19,0,0,0-.06.81,2,2,0,0,0,.26.78,1.75,1.75,0,0,0,.51.57,2,2,0,0,0,.71.34,2.37,2.37,0,0,0,1.65-.2,2.12,2.12,0,0,0,.61-.5,1.93,1.93,0,0,0,.36-.68A2.18,2.18,0,0,0,134.41,234.12Zm1.06,5.19a2.18,2.18,0,0,0-.29-.89,2.12,2.12,0,0,0-.59-.67,2.29,2.29,0,0,0-.85-.39,2.82,2.82,0,0,0-1.05-.05,3.05,3.05,0,0,0-1,.3,2.19,2.19,0,0,0-.72.58,2.31,2.31,0,0,0-.42.79,2.27,2.27,0,0,0-.07.94,2.39,2.39,0,0,0,.29.89,2.28,2.28,0,0,0,.6.67,2.25,2.25,0,0,0,.84.39,3.06,3.06,0,0,0,1.06,0,3.21,3.21,0,0,0,1-.3A2.37,2.37,0,0,0,135,241a2.17,2.17,0,0,0,.41-.8A2.21,2.21,0,0,0,135.47,239.31Z"/><path d="M146.15,241.22l-7.42.9-.16-1.32,4.09-5.12c.16-.19.31-.39.47-.61a5.52,5.52,0,0,0,.4-.66,3.06,3.06,0,0,0,.27-.71,2.14,2.14,0,0,0-.23-1.55,1.79,1.79,0,0,0-.57-.56,2.38,2.38,0,0,0-.77-.3,2.65,2.65,0,0,0-.89,0,2.44,2.44,0,0,0-1.46.66,2.14,2.14,0,0,0-.65,1.39l-1.27,0a3.11,3.11,0,0,1,1-2.11,3.69,3.69,0,0,1,2.21-1,5.22,5.22,0,0,1,1.37,0,3.52,3.52,0,0,1,1.18.41,2.79,2.79,0,0,1,.89.82,2.59,2.59,0,0,1,.44,1.25,3,3,0,0,1-.06,1.21,4.79,4.79,0,0,1-.41,1.09,6.66,6.66,0,0,1-.64,1c-.24.32-.5.64-.76,1l-3.25,4,6.13-.75Z"/><path d="M152.17,234.62c0-.28-.07-.55-.12-.83s-.1-.54-.16-.81l1.17-.15.14,1.13h0a2.53,2.53,0,0,1,1-1.12,3.14,3.14,0,0,1,1.35-.5,3.78,3.78,0,0,1,.68,0,2.2,2.2,0,0,1,.71.15,2.09,2.09,0,0,1,.67.39,2.53,2.53,0,0,1,.59.72,2.44,2.44,0,0,1,.91-1.25,3.26,3.26,0,0,1,3.72-.11,3,3,0,0,1,1,2.06l.58,4.72-1.09.13-.53-4.33a3.1,3.1,0,0,0-.62-1.68,1.74,1.74,0,0,0-1.61-.42,2.15,2.15,0,0,0-1,.35,1.92,1.92,0,0,0-.6.7,2.61,2.61,0,0,0-.26.91,3.88,3.88,0,0,0,0,1l.48,3.95-1.09.14-.53-4.34a3.1,3.1,0,0,0-.62-1.68,1.75,1.75,0,0,0-1.61-.42l-.44.12a1.74,1.74,0,0,0-.7.44,2.56,2.56,0,0,0-.58.94,3.59,3.59,0,0,0-.11,1.63l.47,3.81-1.09.13Z"/><path d="M166.22,232.91c0-.28-.07-.55-.12-.82s-.1-.55-.16-.82l1.17-.14.14,1.12h0a2.53,2.53,0,0,1,1-1.12,3.28,3.28,0,0,1,1.35-.5,3.75,3.75,0,0,1,.68,0,2.2,2.2,0,0,1,.71.15,2.09,2.09,0,0,1,.67.39,2.71,2.71,0,0,1,.59.72,2.44,2.44,0,0,1,.91-1.25,3.26,3.26,0,0,1,3.72-.11,3,3,0,0,1,1,2.07l.58,4.71-1.09.13-.53-4.33a3.1,3.1,0,0,0-.62-1.68,1.74,1.74,0,0,0-1.61-.42,2,2,0,0,0-1,.36,1.81,1.81,0,0,0-.6.69,2.92,2.92,0,0,0-.26.91,3.88,3.88,0,0,0,0,1l.48,4-1.09.13-.53-4.34A3.1,3.1,0,0,0,171,232a1.75,1.75,0,0,0-1.61-.42l-.45.12a1.78,1.78,0,0,0-.69.44,2.65,2.65,0,0,0-.58.94,3.59,3.59,0,0,0-.11,1.63l.47,3.81-1.09.13Z"/></g><line class="cls-2" x1="201.27" y1="208.79" x2="201.27" y2="75.86"/><line class="cls-2" x1="197.63" y1="208.79" x2="204.92" y2="208.79"/><line class="cls-2" x1="197.63" y1="75.86" x2="204.92" y2="75.86"/><g class="cls-3"><path d="M214.89,169.24v-.59a3.82,3.82,0,0,0-.11-1,2.11,2.11,0,0,0-.36-.79,1.71,1.71,0,0,0-.65-.53,2,2,0,0,0-1-.2,1.8,1.8,0,0,0-1.41.55,2.18,2.18,0,0,0-.51,1.54,2.52,2.52,0,0,0,.32,1.27,2.57,2.57,0,0,0,.93.89l-.51,1a3.39,3.39,0,0,1-1.35-1.3,3.66,3.66,0,0,1-.44-1.84A4,4,0,0,1,210,167a3.09,3.09,0,0,1,.57-1,2.62,2.62,0,0,1,.93-.71,2.77,2.77,0,0,1,1.25-.27,2.37,2.37,0,0,1,.88.16,2.72,2.72,0,0,1,.75.41,2.89,2.89,0,0,1,.59.62,2.79,2.79,0,0,1,.37.73l0,0a2.28,2.28,0,0,1,.36-.88,2.63,2.63,0,0,1,.64-.69,3.26,3.26,0,0,1,.87-.45,3.05,3.05,0,0,1,1-.16,3.26,3.26,0,0,1,1.39.29,3,3,0,0,1,1,.78,3.39,3.39,0,0,1,.63,1.15,4.32,4.32,0,0,1,.22,1.4,4.24,4.24,0,0,1-.54,2.17,3.35,3.35,0,0,1-1.75,1.39l-.37-1.21a2.33,2.33,0,0,0,1.21-.86,2.79,2.79,0,0,0,.39-1.59,2.53,2.53,0,0,0-.16-.91,2.16,2.16,0,0,0-.45-.76,2.11,2.11,0,0,0-.71-.51,2.17,2.17,0,0,0-.92-.19,2.27,2.27,0,0,0-1.08.24,2.09,2.09,0,0,0-.71.64,2.81,2.81,0,0,0-.39.92,4.83,4.83,0,0,0-.12,1.08v.5Z"/><path d="M211.08,156.17v4.62l3.41.08a4.17,4.17,0,0,1-.2-.75,4,4,0,0,1-.07-.77,3.83,3.83,0,0,1,.27-1.46,3.37,3.37,0,0,1,.76-1.12,3.49,3.49,0,0,1,1.16-.74,3.76,3.76,0,0,1,1.44-.26,3.82,3.82,0,0,1,1.5.28,3.69,3.69,0,0,1,1.17.8,3.88,3.88,0,0,1,.76,1.21,4.17,4.17,0,0,1,.27,1.51,3.75,3.75,0,0,1-.51,1.94,3.28,3.28,0,0,1-1.51,1.33l-.49-1.15a2.6,2.6,0,0,0,1.06-.9,2.28,2.28,0,0,0,.39-1.32,2.43,2.43,0,0,0-.2-1,2.72,2.72,0,0,0-.53-.8,2.46,2.46,0,0,0-.8-.54,2.37,2.37,0,0,0-1-.2,2.75,2.75,0,0,0-1.09.21,2.54,2.54,0,0,0-.86.57,2.57,2.57,0,0,0-.55.88,3.14,3.14,0,0,0-.19,1.12,4.16,4.16,0,0,0,.17,1.21,5.64,5.64,0,0,0,.45,1.14l-5.87-.11v-5.77Z"/><path d="M209.84,150.26a3.17,3.17,0,0,1,.56-2,3.74,3.74,0,0,1,1.42-1.16,6.17,6.17,0,0,1,1.9-.56,13.08,13.08,0,0,1,3.95,0,6.17,6.17,0,0,1,1.9.56,3.74,3.74,0,0,1,1.42,1.16,3.75,3.75,0,0,1,0,3.94,3.86,3.86,0,0,1-1.42,1.17,6.45,6.45,0,0,1-1.9.56,14,14,0,0,1-3.95,0,6.45,6.45,0,0,1-1.9-.56,3.86,3.86,0,0,1-1.42-1.17A3.17,3.17,0,0,1,209.84,150.26Zm1,0a2.09,2.09,0,0,0,.5,1.47,3.17,3.17,0,0,0,1.23.8,6.09,6.09,0,0,0,1.57.35c.55.05,1.06.07,1.5.07s.95,0,1.51-.07a6.19,6.19,0,0,0,1.57-.35,3.17,3.17,0,0,0,1.23-.8,2.09,2.09,0,0,0,.49-1.47,2.06,2.06,0,0,0-.49-1.46,3.08,3.08,0,0,0-1.23-.81,5.78,5.78,0,0,0-1.57-.34c-.56-.05-1.06-.08-1.51-.08s-.95,0-1.5.08a5.7,5.7,0,0,0-1.57.34,3.08,3.08,0,0,0-1.23.81A2.07,2.07,0,0,0,210.89,150.26Z"/><path d="M215.53,140.21l-.83,0-.83,0v-1.13H215v0a2.52,2.52,0,0,1-1-1.07,3.05,3.05,0,0,1-.33-1.35,3.83,3.83,0,0,1,.06-.65,2.25,2.25,0,0,1,.23-.66,2,2,0,0,1,.48-.6,2.28,2.28,0,0,1,.78-.47,2.56,2.56,0,0,1-1.14-1,2.85,2.85,0,0,1-.41-1.45,2.73,2.73,0,0,1,.76-2.13,3.15,3.15,0,0,1,2.17-.68h4.75v1H217a3.2,3.2,0,0,0-1.74.4,1.65,1.65,0,0,0-.61,1.49,1.89,1.89,0,0,0,.23,1,1.84,1.84,0,0,0,.62.65,2.42,2.42,0,0,0,.87.36,4.74,4.74,0,0,0,1,.11h4v1.06H217a3.11,3.11,0,0,0-1.74.4,1.64,1.64,0,0,0-.61,1.49,3.61,3.61,0,0,0,.06.44,1.67,1.67,0,0,0,.35.71,2.58,2.58,0,0,0,.87.66,3.48,3.48,0,0,0,1.6.3h3.84v1.05Z"/><path d="M215.53,126.58l-.83,0-.83,0v-1.13H215v0a2.5,2.5,0,0,1-1-1.06,3.05,3.05,0,0,1-.33-1.35,3.83,3.83,0,0,1,.06-.65,2.25,2.25,0,0,1,.23-.66,1.93,1.93,0,0,1,.48-.6,2.47,2.47,0,0,1,.78-.48,2.48,2.48,0,0,1-1.14-1,2.87,2.87,0,0,1-.41-1.45,2.73,2.73,0,0,1,.76-2.13,3.11,3.11,0,0,1,2.17-.69h4.75v1.06H217a3.11,3.11,0,0,0-1.74.4,1.64,1.64,0,0,0-.61,1.49,1.91,1.91,0,0,0,.23,1,1.84,1.84,0,0,0,.62.65,2.84,2.84,0,0,0,.87.36,4.74,4.74,0,0,0,1,.11h4v1.06H217a3.11,3.11,0,0,0-1.74.4,1.62,1.62,0,0,0-.61,1.48,3.37,3.37,0,0,0,.06.44,1.71,1.71,0,0,0,.35.72,2.72,2.72,0,0,0,.87.66,3.48,3.48,0,0,0,1.6.3h3.84v1Z"/></g><line class="cls-2" x1="71.43" y1="66.05" x2="184.09" y2="65.92"/><line class="cls-2" x1="71.43" y1="64.22" x2="71.43" y2="67.88"/><line class="cls-2" x1="184.09" y1="64.09" x2="184.09" y2="67.75"/><g class="cls-3"><path d="M99.84,49a3.57,3.57,0,0,1,.64,1.13,3.8,3.8,0,0,1,.23,1.41,4,4,0,0,1-.29,1.52,3.57,3.57,0,0,1-2,2,4.2,4.2,0,0,1-2.88.05,3.41,3.41,0,0,1-1.06-.59l-1,1.05L93,55.1l1-1.05a3.51,3.51,0,0,1-.66-1.14,4.28,4.28,0,0,1-.22-1.4A4,4,0,0,1,93.39,50a3.6,3.6,0,0,1,.8-1.21,3.56,3.56,0,0,1,1.2-.8,4,4,0,0,1,1.53-.28,4.36,4.36,0,0,1,1.33.22,3.67,3.67,0,0,1,1.1.6l1-1.05.48.49Zm-1.2.24a2.83,2.83,0,0,0-2.85-.39,2.4,2.4,0,0,0-.85.61,2.85,2.85,0,0,0-.54.91,3.5,3.5,0,0,0-.2,1.14,2.92,2.92,0,0,0,.52,1.77Zm-3.47,4.57a2.45,2.45,0,0,0,.77.44,2.59,2.59,0,0,0,1,.16A2.7,2.7,0,0,0,98,54.2a2.64,2.64,0,0,0,.86-.61,2.85,2.85,0,0,0,.54-.91,3.25,3.25,0,0,0,.2-1.14,3.12,3.12,0,0,0-.51-1.77Z"/><path d="M108.85,48.94h.56a3.84,3.84,0,0,0,.91-.11,2,2,0,0,0,.76-.34,1.7,1.7,0,0,0,.52-.63,2.2,2.2,0,0,0,.2-.93,1.78,1.78,0,0,0-.53-1.38,2.06,2.06,0,0,0-1.47-.5,2.29,2.29,0,0,0-1.21.31,2.4,2.4,0,0,0-.87.89l-1-.5A3.32,3.32,0,0,1,108,44.45a3.54,3.54,0,0,1,1.75-.42,4,4,0,0,1,1.21.2,3,3,0,0,1,1,.55,2.66,2.66,0,0,1,.67.91,2.8,2.8,0,0,1,.25,1.22,2.47,2.47,0,0,1-.15.86,2.52,2.52,0,0,1-.4.72,2.89,2.89,0,0,1-.59.57,2.8,2.8,0,0,1-.71.36l0,0a2.37,2.37,0,0,1,.85.36,2.59,2.59,0,0,1,.65.63,3,3,0,0,1,.43.84,2.91,2.91,0,0,1,.14,1,3,3,0,0,1-.28,1.35,2.9,2.9,0,0,1-.75,1,3.31,3.31,0,0,1-1.11.6,4.16,4.16,0,0,1-1.33.21,4.1,4.1,0,0,1-2.08-.54,3.22,3.22,0,0,1-1.33-1.7l1.17-.35a2.24,2.24,0,0,0,.81,1.17,3,3,0,0,0,2.4.24,2.26,2.26,0,0,0,.73-.44,2,2,0,0,0,.49-.69,2.13,2.13,0,0,0,.18-.88,2.28,2.28,0,0,0-.22-1.06,2,2,0,0,0-.61-.69,2.6,2.6,0,0,0-.88-.39,5,5,0,0,0-1-.12h-.47Z"/><path d="M118.52,44.08a3,3,0,0,1,1.88.55A3.61,3.61,0,0,1,121.51,46a6.13,6.13,0,0,1,.53,1.84,14.44,14.44,0,0,1,.13,1.93,13,13,0,0,1-.15,1.92,6.44,6.44,0,0,1-.54,1.84,3.8,3.8,0,0,1-1.13,1.38,3.56,3.56,0,0,1-3.77,0,3.69,3.69,0,0,1-1.11-1.39,6.41,6.41,0,0,1-.53-1.85,14.24,14.24,0,0,1,0-3.84,6.36,6.36,0,0,1,.55-1.84,3.7,3.7,0,0,1,1.12-1.38A3,3,0,0,1,118.52,44.08Zm0,1a2,2,0,0,0-1.4.48,3.16,3.16,0,0,0-.78,1.19,6.23,6.23,0,0,0-.34,1.52c0,.54-.07,1-.07,1.47s0,.92.06,1.46a5.7,5.7,0,0,0,.32,1.52,3.1,3.1,0,0,0,.77,1.21,2,2,0,0,0,1.4.48,1.92,1.92,0,0,0,1.4-.47,2.94,2.94,0,0,0,.78-1.19,5.88,5.88,0,0,0,.34-1.53c.05-.54.07-1,.08-1.46s0-.92-.07-1.46a5.86,5.86,0,0,0-.32-1.53,3.07,3.07,0,0,0-.77-1.2A2,2,0,0,0,118.51,45.1Z"/><path d="M127,44.12a3.06,3.06,0,0,1,1.88.55A3.69,3.69,0,0,1,130,46.06a6.41,6.41,0,0,1,.53,1.85,14.4,14.4,0,0,1,.13,1.92,16.47,16.47,0,0,1-.15,1.92,6.36,6.36,0,0,1-.55,1.84A3.6,3.6,0,0,1,128.87,55a3,3,0,0,1-1.89.53A3.06,3.06,0,0,1,125.1,55,3.69,3.69,0,0,1,124,53.56a6.41,6.41,0,0,1-.53-1.85,13.24,13.24,0,0,1,0-3.84A6.67,6.67,0,0,1,124,46a3.72,3.72,0,0,1,1.13-1.38A3,3,0,0,1,127,44.12Zm0,1a2,2,0,0,0-1.4.48,2.94,2.94,0,0,0-.78,1.19,5.88,5.88,0,0,0-.34,1.53c-.05.53-.07,1-.07,1.46a12.81,12.81,0,0,0,.06,1.46,5.86,5.86,0,0,0,.32,1.53,3.14,3.14,0,0,0,.77,1.2,2,2,0,0,0,1.4.49,2,2,0,0,0,1.4-.48,3.16,3.16,0,0,0,.78-1.19,5.88,5.88,0,0,0,.34-1.53c.05-.53.07-1,.07-1.46s0-.92-.06-1.46a5.86,5.86,0,0,0-.32-1.53,3.14,3.14,0,0,0-.77-1.2A2,2,0,0,0,127,45.14Z"/><path d="M136.63,49.7c0-.27,0-.54,0-.81s0-.54-.05-.81h1.09v1.1h0a2.45,2.45,0,0,1,1-1,2.92,2.92,0,0,1,1.29-.32,3.46,3.46,0,0,1,.62.07,2.24,2.24,0,0,1,.64.23,2.18,2.18,0,0,1,.57.46,2.43,2.43,0,0,1,.45.76,2.42,2.42,0,0,1,1-1.1,2.95,2.95,0,0,1,3.42.35,3.08,3.08,0,0,1,.65,2.11l0,4.62h-1l0-4.25a3.07,3.07,0,0,0-.37-1.69,1.55,1.55,0,0,0-1.42-.6,1.83,1.83,0,0,0-.95.22,1.88,1.88,0,0,0-.63.59,2.82,2.82,0,0,0-.35.85,4.62,4.62,0,0,0-.11,1l0,3.87h-1l0-4.25a3.11,3.11,0,0,0-.37-1.7,1.6,1.6,0,0,0-1.42-.6,2.41,2.41,0,0,0-.42.07,1.67,1.67,0,0,0-.69.33,2.65,2.65,0,0,0-.64.84,3.59,3.59,0,0,0-.29,1.55l0,3.74h-1Z"/><path d="M149.68,49.76c0-.26,0-.53,0-.8s0-.54,0-.81h1.09v1.11h0a2.26,2.26,0,0,1,1-1A2.7,2.7,0,0,1,153,48a3.52,3.52,0,0,1,.63.06,2.14,2.14,0,0,1,1.2.69,2.37,2.37,0,0,1,.45.77,2.38,2.38,0,0,1,1-1.1,2.63,2.63,0,0,1,1.39-.4,2.56,2.56,0,0,1,2,.75,3.06,3.06,0,0,1,.65,2.11l0,4.62h-1l0-4.24a3.17,3.17,0,0,0-.38-1.7,1.57,1.57,0,0,0-1.42-.6,1.83,1.83,0,0,0-.95.22,1.7,1.7,0,0,0-.62.6,2.62,2.62,0,0,0-.35.84,4.62,4.62,0,0,0-.12,1v3.87h-1l0-4.25a3.16,3.16,0,0,0-.38-1.69,1.55,1.55,0,0,0-1.42-.6l-.42.06a1.58,1.58,0,0,0-.69.34,2.62,2.62,0,0,0-.64.83,3.64,3.64,0,0,0-.29,1.56v3.73h-1Z"/></g><g class="cls-4"><path class="cls-5" d="M188.52,208.26H189l.11,0h0m-.92.13h1.07l.15,0,.13,0h.1l.07,0,0,0v-.05l0,0-.08,0m-1.72.17.11,0h.17m.92-.13h0m-.65.07h.36l.15,0,.1,0,0,0m-1.61.19v0m.69,0v.19m-.28-.22.11,0h.17m-.69.06,0,0h0l.08,0,.11,0,.12,0h.32m1.58-.14v-.18m-1.58.13h1.06l.16,0,.13,0h.1l.07,0,0,0v-.05l0,0-.07,0m-1.45.39v-.19m0,.19h1.06l.15,0,.13,0,.11,0,.07,0,0,0v0m-2.25,0,.13.08.16.09.18.07.17.06.19,0,.19,0m-.35-.26,0,0,.07.08.06.06.08,0,.07,0h.08l.07,0m-1.14-.37h0l.08,0,.15,0,.2,0,.23,0m.35.26h.16l.19,0,.19,0,.18-.05.17-.07.17-.09.16-.1m-1.57.11H189l.25,0h.2l.17,0,.13,0h0l0,0h0v0m-1.58.14h0l.07.08.06.07.07,0,.07,0,.08,0m-78.91,1.05.12-.14.15-.13.19-.15.18-.11.18-.07.21-.06.21,0m1.83,6.5.06-.1.08-.12.08-.13.07-.13.07-.14.06-.16.06-.15.05-.16,0-.17,0-.17,0-.17,0-.18,0-.19v-.18l0-.18v-.38l0-.19v-.19l0-.19,0-.18,0-.19,0-.19,0-.18,0-.18,0-.17-.06-.18-.07-.16-.07-.16-.07-.16-.09-.14-.08-.15-.08-.14-.1-.13-.09-.12-.1-.11-.1-.11-.11-.1-.11-.09-.11-.08-.11-.08-.11,0-.12-.06-.11,0-.11,0-.12,0-.12,0h-.23m.69,7.19h-.42l-.14,0-.08,0-.17-.06-.17-.08-.17-.1-.19-.14m.11,0,.08.06.11.08.11.08.11.06.12.06.11,0,.12,0,.12,0h.46l.11,0,.11,0,.11-.05.11,0,.11-.06.1-.08.1-.08.09-.09.1-.1.09-.11m-1.83-6.5h.28l.14,0,.15,0h.08l.16.06.17.08.18.1.19.15.1.08.19.19.15.17.12.17.13.19.11.2.12.22.12.3.11.3.08.32.07.32,0,.34,0,.33v.67l0,.33,0,.32-.07.31-.08.25-.08.22-.1.2-.09.19-.14.22-.09.11m-.17.1.07,0,.1-.08m-.17.1.06-.1.08-.12.08-.13.07-.13.07-.14.06-.16.06-.15.05-.16,0-.17,0-.17,0-.17,0-.18,0-.19v-.18l0-.18v-.38l0-.19v-.19l0-.19,0-.18,0-.19,0-.19,0-.18,0-.18,0-.17-.06-.18-.07-.16-.07-.16-.07-.16-.09-.14-.08-.15-.08-.14-.1-.13-.09-.12-.1-.11-.1-.11-.11-.1-.11-.09-.11-.08-.11-.08-.11,0-.12-.06-.11,0-.11,0-.12,0-.12,0h-.23m.69,7.19h.08l.2,0,.22-.08.14-.06.18-.11.19-.15.14-.14.16-.2m-.17.1.07,0,.1-.08m-1.31.79h.11l.11,0,.11,0,.11-.05.11,0,.11-.06.1-.08.1-.08.09-.09.1-.1.09-.11m-1.52.16h0l.11,0,.12,0,.1-.05.11-.06.1-.07.1-.08.1-.09.09-.11.09-.1.08-.13.07-.13.07-.13.07-.15.06-.15,0-.16,0-.17,0-.17,0-.18,0-.17,0-.19v-.37m0,0v-.31l0-.2,0-.19,0-.18,0-.18-.05-.19,0-.18-.06-.17-.07-.17-.06-.16-.08-.15-.08-.15-.08-.15-.1-.13-.09-.13-.09-.11-.11-.11-.11-.09-.1-.09-.11-.08-.12-.06-.11,0-.12-.05-.11,0-.12,0h-.23m0,0-4.11.4m6.27,2.93v-.31l0-.19,0-.2,0-.18,0-.18-.05-.19,0-.17-.06-.18-.07-.17-.06-.16-.08-.15-.08-.15-.08-.15-.1-.13-.09-.13-.09-.11-.11-.11-.11-.09-.1-.09-.11-.08-.12-.06-.11,0-.12-.05-.11,0-.12,0h-.23m-2,3.73V213l0-.18,0-.19,0-.19,0-.18-.05-.18,0-.18-.06-.17-.07-.16-.07-.16-.08-.15-.08-.14L108,211l-.1-.13-.09-.12-.1-.11-.11-.1-.1-.09-.11-.08-.12-.07-.11-.06-.11,0-.12,0h-.12l-.11,0h-.12l-.11,0-.12,0-.11,0-.1,0-.11.06-.11.07-.09.08-.1.09-.09.11-.08.11-.09.12-.07.13-.08.14-.06.14-.06.16,0,.16,0,.17,0,.16,0,.18,0,.18,0,.18v.38m72.26-9.62-64.91,6.33m67.06-3v-.5l0-.19,0-.19,0-.18,0-.18-.05-.18-.06-.17-.06-.18-.07-.16-.08-.15-.08-.15-.08-.14-.09-.14-.1-.13-.09-.11-.11-.11-.1-.09-.11-.09-.11-.07-.11-.07-.12,0-.11-.05-.12,0-.12,0h-.23m-66,12.54-4.11.4m4.11-.4h.07l.11,0,.12,0,.1-.05.11-.06.1-.07.1-.08.1-.09.09-.11.09-.1.08-.13.07-.13.07-.13.07-.15.06-.15,0-.16,0-.17,0-.17,0-.18,0-.17,0-.19v-.37m-7.84-.19v.43l0,.19,0,.19,0,.19,0,.17,0,.18.06.18.06.17.07.17.07.15.08.16.08.14.09.14.09.12.1.13.1.11.11.1.1.09.11.08.11.06.12.06.11,0,.12,0,.12,0h.34l.12,0,.1,0,.11-.05.11-.06.11-.07.09-.08.1-.09.09-.11.09-.1.08-.12.07-.13.08-.14.06-.15.06-.15,0-.16,0-.17,0-.17,0-.18,0-.18v-.55m69.12-4.16-64.92,6.33m64.92-6.33h.07l.12,0,.11,0,.11,0,.1-.06.1-.07.1-.08.1-.09.09-.1.09-.11.08-.13.08-.12.07-.14.06-.15.06-.15,0-.17.05-.15,0-.18,0-.17,0-.19,0-.18v-.37m-70.68,6.89V213l0-.18,0-.19,0-.19,0-.18-.05-.18,0-.18-.06-.17-.07-.16-.07-.16-.08-.15-.08-.14L108,211l-.1-.13-.09-.12-.1-.11-.11-.1-.1-.09-.11-.08-.12-.07-.11-.06-.11,0-.12,0h-.12l-.11,0h-.12l-.11,0-.12,0-.11,0-.1,0-.11.06-.11.07-.09.08-.1.09-.09.11-.08.11-.09.12-.07.13-.08.14-.06.14-.06.16,0,.16,0,.17,0,.16,0,.18,0,.18,0,.18v.38m0,0v.43l0,.19,0,.19,0,.19,0,.17,0,.18.06.18.06.17.07.17.07.15.08.16.08.14.09.14.09.12.1.13.1.11.11.1.1.09.11.08.11.06.12.06.11,0,.12,0,.12,0h.34l.12,0,.1,0,.11-.05.11-.06.11-.07.09-.08.1-.09.09-.11.09-.1.08-.12.07-.13.08-.14.06-.15.06-.15,0-.16,0-.17,0-.17,0-.18,0-.18v-.55m69.12-4.16h.07l.12,0,.11,0,.11,0,.1-.06.1-.07.1-.08.1-.09.09-.1.09-.11.08-.13.08-.12.07-.14.06-.15.06-.15,0-.17.05-.15,0-.18,0-.17,0-.19,0-.18v-.37m0,0v-.5l0-.19,0-.19,0-.18,0-.18-.05-.18-.06-.17-.06-.18-.07-.16-.08-.15-.08-.15-.08-.15-.09-.13-.1-.13-.09-.11-.11-.11-.1-.09-.11-.09-.11-.07-.11-.07-.12,0-.11-.05-.12,0-.12,0h-.23M129,192.08l-.27,0h-.27l-.24,0-.16,0-.16,0-.16.06-.16.06-.15.08-.15.08-.2.13-.19.14-.18.16-.16.17-.19.22-.16.23-.17.28-.15.31-.13.32-.1.32-.08.34,0,.34,0,.34v.54l0,.19,0,.19,0,.18,0,.18.06.18.06.18.13.27.11.21.12.21.15.18.18.21m2.54-6.38h-.54l-.15,0-.15,0-.15,0-.15,0-.14.06-.14.06-.15.08-.13.09-.14.09-.13.11-.13.1-.12.12-.13.13-.1.13-.11.14-.11.15-.09.15-.09.16-.1.16-.07.17-.07.17-.07.18-.06.17,0,.19,0,.18,0,.19,0,.19,0,.19v.75l0,.18,0,.19,0,.18,0,.17,0,.18.06.17.07.16.07.16.07.15.1.15.09.14.09.13.11.12.11.13m-.09,0,.09,0m-.09,0,0,0,.12.11.12.11.14.09.13.09.14.07.14.07.14.06.16.05.14,0,.16,0m-1.33-.71h0l.12.11.12.11.12.1.13.08.13.08.14.06.14.06.14,0,.14,0,.15,0m2.54-6.38,0,0-.12-.12-.12-.1-.13-.1-.14-.08-.13-.08-.15-.07-.14-.06-.15,0-.15,0-.15,0m1.45.81,0,0m-.09,0-.09-.08-.11-.11-.12-.09-.13-.1-.13-.08-.14-.06-.13-.06-.14-.05-.15,0-.14,0-.15,0h-.44l-.15,0-.15,0-.15,0-.15,0-.14.06-.14.06-.15.08-.13.09-.14.09-.13.11-.13.1-.12.12-.13.13-.1.13-.11.14-.11.15-.09.15-.09.16-.1.16-.07.17-.07.17-.07.18-.06.17,0,.19,0,.18,0,.19,0,.19,0,.19v.75l0,.18,0,.19,0,.18,0,.17,0,.18.06.17.07.16.07.16.07.15.1.15.09.14.09.13.11.12.11.13m1.33.71.14,0h.41l.26,0,.17,0,.17,0,.16-.06.17-.07.16-.09m1-6-.05,0m0,0,0,0m-3.87,5.67.1.09.12.11.12.09.13.09.13.08.13.06.14.07.14.05.14,0,.15,0,.15,0h.45l.14,0,.15,0,.15,0,.15-.05.14-.06.14-.07.15-.08m-.27-6.2h-.05l-.15,0h-.3l-.14,0-.16,0-.14,0-.15.06-.14.06-.14.08-.14.09-.13.1-.13.11-.12.12-.12.13-.11.13-.1.15-.1.15-.1.16-.08.17-.07.17-.07.17-.06.18,0,.18,0,.19,0,.18,0,.19v.38m0,0v.36l0,.19,0,.18,0,.17,0,.18.06.17.07.16.07.16.08.15.09.13.11.14.1.12.11.12.12.1.12.1.13.08.13.07.14.07.14,0,.14,0,.15,0m-.91-6.3-1.93-.31m0,0h-.5l-.15,0-.14,0-.15.05-.15.05-.14.07-.14.08-.13.09-.14.1-.13.11-.12.12-.12.12-.11.14-.11.14-.09.15-.09.16-.09.17-.07.17-.07.17-.06.18,0,.18,0,.19,0,.19,0,.18v.38m57.86,5.47-51.22-8.11m0,0h-.05l-.15,0h-.3l-.14,0-.16,0-.14,0-.15.06-.14.06-.14.08-.14.09-.13.1-.13.11-.12.12-.12.13-.11.13-.1.15-.1.15-.1.16-.08.17-.07.17-.07.17-.06.18,0,.18,0,.19,0,.18,0,.19v.38m54.08,4.87-.13,0H180l-.14,0-.15,0-.15,0-.15.06-.14.06-.14.08-.14.08-.14.1-.12.1-.13.12-.12.12-.11.13-.11.14-.11.15-.09.16-.09.16-.07.17-.07.17-.07.17-.05.18,0,.19m-51.26-4.79-1.92-.31m-1.92-2.77v.37l0,.18,0,.18,0,.18,0,.17.06.17.07.16.07.16.09.15.09.13.09.14.11.12.11.12.12.1.12.1.13.09.13.07.14.06.14.05.14,0,.15,0m40.2,6.37-36.42-5.77m-1.92-2.77v.36l0,.19,0,.18,0,.17,0,.18.06.17.07.16.07.16.08.15.09.13.11.14.1.12.11.12.12.1.12.1.13.08.13.07.14.07.14,0,.14,0,.15,0m-2.84-6.61h-.5l-.15,0-.14,0-.15.05-.15.05-.14.07-.14.08-.13.09-.14.1-.13.11-.12.12-.12.12-.11.14-.11.14-.09.15-.09.16-.09.17-.07.17-.07.17-.06.18,0,.18,0,.19,0,.19,0,.18v.38m0,0v.37l0,.18,0,.18,0,.18,0,.17.06.17.07.16.07.16.09.15.09.13.09.14.11.12.11.12.12.1.12.1.13.09.13.07.14.06.14.05.14,0,.15,0m55.94,2.7-.13,0H180l-.14,0-.15,0-.15,0-.15.06-.14.06-.14.08-.14.08-.14.1-.12.1-.13.12-.12.12-.11.13-.11.14-.11.15-.09.16-.09.16-.07.17-.07.17-.07.17-.05.18,0,.19m8.49-126.82h0l.13,0,.13,0h.14l.15,0h3.38l.16,0,.15,0h.28l.13,0,.12,0,.11,0,.1,0,.09,0,.08,0,.07,0,.05,0,.05,0,0,0,0,0V76.1l0,0,0,0,0,0-.07,0-.06,0-.09,0-.09,0-.1,0-.11,0m0,0h0l-.13,0-.12,0h-.15l-.14,0h-.32l-.17,0H187l-.16,0-.15,0h-.28l-.13,0-.12,0-.11,0-.1,0-.09,0-.08,0-.07,0-.06,0,0,0,0,0,0,0v.07l0,0,0,0,0,0,.06,0,.07,0,.09,0,.09,0h.1l.11,0m-9,126.87,8.85-.87m.26,0,.12,0,.13,0,.16.06.18.06.19.09.19.1.37.2.24.15.23.16.25.18.24.18.41.33.39.33.37.35.35.35.13.14.3.34m-4.25-3.08H186m-6.7,4.19v-.5l0-.19,0-.19,0-.18,0-.18-.05-.18-.06-.17-.06-.18-.07-.16-.08-.15-.08-.15-.08-.14-.09-.14-.1-.13-.09-.11-.11-.11-.1-.09-.11-.09-.11-.07-.11-.07-.12,0-.11-.05-.12,0-.12,0h-.23m3.25-2.45,5.22.82m-5.22-.82-.13,0H180l-.14,0-.15,0-.15,0-.15.06-.14.06-.14.08-.14.08-.14.1-.12.1-.13.12-.12.12-.11.13-.11.14-.11.15-.09.16-.09.16-.07.17-.07.17-.07.17-.05.18,0,.19m.1,6.1,11.59-1.13m2.34-.81-.22.14-.23.12-.23.12-.17.07-.18.07-.19.06-.2.06-.36.08-.38.07-.18,0m1.18-2.7.17.21.23.28.15.21.13.2.11.16.09.16.12.24.09.22,0,.11,0,.1m-13.93,1.94h.07l.12,0,.11,0,.11,0,.1-.06.1-.07.1-.08.1-.09.09-.1.09-.11.08-.13.08-.12.07-.14.06-.15.06-.15,0-.17.05-.15,0-.18,0-.17,0-.19,0-.18v-.37m1.1-5.77-.13,0H180l-.14,0-.15,0-.15,0-.15.06-.14.06-.14.08-.14.08-.14.1-.12.1-.13.12-.12.12-.11.13-.11.14-.11.15-.09.16-.09.16-.07.17-.07.17-.07.17-.05.18,0,.19m.1,6.1h.07l.12,0,.11,0,.11,0,.1-.06.1-.07.1-.08.1-.09.09-.1.09-.11.08-.13.08-.12.07-.14.06-.15.06-.15,0-.17.05-.15,0-.18,0-.17,0-.19,0-.18v-.37m0,0v-.5l0-.19,0-.19,0-.18,0-.18-.05-.18-.06-.17-.06-.18-.07-.16-.08-.15-.08-.15-.08-.15-.09-.13-.1-.13-.09-.11-.11-.11-.1-.09-.11-.09-.11-.07-.11-.07-.12,0-.11-.05-.12,0-.12,0h-.23m11.65,5,.2,0m2.07-11.09v-.24l0-.26.07-.25.08-.24.06-.15.07-.14.13-.24.06-.09,0-.07,0,0h0v0l0,.13-.08.26,0,.15,0,.17,0,.19v.38m0,0h-.35m0,0h.35m0,0v.43l.05.29,0,.17.07.34,0,.17,0,.08v.21h-.08l-.06-.05,0,0-.05-.07-.11-.16-.09-.2-.07-.18,0-.2,0-.21v-.21m.6,10.25V207m-2.36,1.16.4-.06.34-.06.34-.09.33-.11.33-.14.31-.17.15-.09.15-.09m-.12-131.22.13,119.28m-6.48-119,.13,126m6.35-4V207m-.61-9.92v.29l0,.14,0,.12,0,.12.08.21.1.18.1.14.08.09,0,0,0,0h0l0,0,0,0v-.15l0-.12,0-.21-.06-.25-.05-.25,0-.33v-.36M186.17,76.38h0l.13,0,.13,0h.14l.15,0h3.38l.16,0,.15,0h.28l.13,0,.12,0,.11,0,.1,0,.09,0,.08,0,.07,0,.05,0,.05,0,0,0,0,0V76.1l0,0,0,0,0,0-.07,0-.06,0-.09,0-.09,0-.1,0-.11,0m-.4,129.56-.1-.11-.32-.35-.39-.4-.42-.38-.44-.38-.46-.35-.24-.17-.25-.17-.23-.15-.24-.14-.3-.17-.3-.13-.16-.07-.15-.05-.13,0-.12,0m5.41,5-.05-.15,0-.13-.05-.11-.07-.16-.09-.16-.18-.29-.21-.3-.15-.21-.32-.38m1.16,1.89V207M191,75.91h0l-.13,0-.12,0h-.15l-.14,0h-.32l-.17,0H187l-.16,0-.15,0h-.28l-.13,0-.12,0-.11,0-.1,0-.09,0-.08,0-.07,0-.06,0,0,0,0,0,0,0v.07l0,0,0,0,0,0,.06,0,.07,0,.09,0,.09,0h.1l.11,0"/></g><ellipse class="cls-5" cx="128.69" cy="131.78" rx="57.04" ry="56.69"/></svg>