<svg id="ipnos" xmlns="http://www.w3.org/2000/svg" viewBox="0 0 300 263"><defs><style>.cls-1,.cls-3{fill:none;}.cls-1{stroke:#000100;stroke-miterlimit:2;stroke-width:0.25px;}.cls-2{isolation:isolate;}.cls-3{stroke:#000;stroke-width:0.5px;}</style></defs><title>ipnos-floor-rossi-bianchi-flos-F3120030-spech-tech-02-300x263</title><line class="cls-1" x1="145.32" y1="163.8" x2="115.15" y2="196.28"/><line class="cls-1" x1="143.55" y1="161.61" x2="113.96" y2="193.46"/><line class="cls-1" x1="111.24" y1="198.03" x2="111.24" y2="196.38"/><line class="cls-1" x1="145.32" y1="162.16" x2="113.96" y2="195.91"/><line class="cls-1" x1="145.32" y1="162.16" x2="145.32" y2="163.8"/><line class="cls-1" x1="111.24" y1="198.03" x2="173.24" y2="217.23"/><line class="cls-1" x1="111.24" y1="198.03" x2="111.24" y2="196.38"/><line class="cls-1" x1="111.24" y1="196.38" x2="173.24" y2="215.59"/><line class="cls-1" x1="113.96" y1="195.91" x2="171.47" y2="213.72"/><line class="cls-1" x1="171.47" y1="171.9" x2="145.32" y2="163.8"/><line class="cls-1" x1="202.59" y1="181.54" x2="174.19" y2="172.74"/><line class="cls-1" x1="206.5" y1="181.43" x2="206.5" y2="179.79"/><line class="cls-1" x1="171.47" y1="168.94" x2="146.27" y2="161.14"/><line class="cls-1" x1="203.78" y1="178.95" x2="174.19" y2="169.78"/><line class="cls-1" x1="171.47" y1="170.26" x2="145.32" y2="162.16"/><line class="cls-1" x1="203.78" y1="180.27" x2="174.19" y2="171.1"/><line class="cls-1" x1="145.32" y1="162.16" x2="145.32" y2="163.8"/><line class="cls-1" x1="173.24" y1="217.23" x2="206.5" y2="181.43"/><line class="cls-1" x1="173.24" y1="215.59" x2="206.5" y2="179.79"/><line class="cls-1" x1="206.5" y1="181.43" x2="206.5" y2="179.79"/><line class="cls-1" x1="174.19" y1="212.11" x2="203.78" y2="180.27"/><line class="cls-1" x1="145.32" y1="164.79" x2="144.61" y2="164.57"/><line class="cls-1" x1="145.32" y1="164.79" x2="145.32" y2="163.8"/><line class="cls-1" x1="146.03" y1="164.02" x2="145.32" y2="164.79"/><line class="cls-1" x1="206.5" y1="182.42" x2="206.5" y2="181.43"/><line class="cls-1" x1="205.55" y1="183.44" x2="204.84" y2="183.22"/><line class="cls-1" x1="205.55" y1="183.44" x2="205.55" y2="182.45"/><line class="cls-1" x1="206.5" y1="182.42" x2="205.55" y2="183.44"/><line class="cls-1" x1="206.5" y1="181.43" x2="205.55" y2="182.45"/><line class="cls-1" x1="111.24" y1="199.01" x2="111.24" y2="198.03"/><line class="cls-1" x1="113.01" y1="199.56" x2="111.24" y2="199.01"/><line class="cls-1" x1="113.01" y1="199.56" x2="113.01" y2="198.58"/><line class="cls-1" x1="113.01" y1="198.58" x2="111.24" y2="198.03"/><line class="cls-1" x1="113.72" y1="198.79" x2="113.01" y2="199.56"/><line class="cls-1" x1="171.47" y1="215.04" x2="171.47" y2="103.43"/><line class="cls-1" x1="173.24" y1="103.98" x2="171.47" y2="103.43"/><line class="cls-1" x1="173.24" y1="215.59" x2="173.24" y2="103.98"/><line class="cls-1" x1="174.19" y1="214.56" x2="174.19" y2="102.95"/><line class="cls-1" x1="174.19" y1="102.95" x2="173.24" y2="103.98"/><line class="cls-1" x1="203.78" y1="180.27" x2="203.78" y2="71.11"/><line class="cls-1" x1="205.55" y1="180.81" x2="205.55" y2="69.2"/><line class="cls-1" x1="205.55" y1="180.81" x2="203.78" y2="180.27"/><line class="cls-1" x1="206.5" y1="179.79" x2="206.5" y2="68.18"/><line class="cls-1" x1="206.5" y1="68.18" x2="205.55" y2="69.2"/><line class="cls-1" x1="206.5" y1="179.79" x2="205.55" y2="180.81"/><line class="cls-1" x1="143.55" y1="161.61" x2="143.55" y2="94.78"/><line class="cls-1" x1="143.55" y1="91.82" x2="143.55" y2="52.46"/><line class="cls-1" x1="145.32" y1="162.16" x2="145.32" y2="95.33"/><line class="cls-1" x1="145.32" y1="92.37" x2="145.32" y2="50.55"/><line class="cls-1" x1="145.32" y1="162.16" x2="143.55" y2="161.61"/><line class="cls-1" x1="146.27" y1="161.14" x2="146.27" y2="95.62"/><line class="cls-1" x1="146.27" y1="92.67" x2="146.27" y2="50.85"/><line class="cls-1" x1="146.27" y1="161.14" x2="145.32" y2="162.16"/><line class="cls-1" x1="111.24" y1="196.38" x2="111.24" y2="84.77"/><line class="cls-1" x1="113.01" y1="85.32" x2="111.24" y2="84.77"/><line class="cls-1" x1="113.01" y1="196.93" x2="113.01" y2="85.32"/><line class="cls-1" x1="113.01" y1="196.93" x2="111.24" y2="196.38"/><line class="cls-1" x1="113.96" y1="195.91" x2="113.96" y2="85.62"/><line class="cls-1" x1="113.96" y1="195.91" x2="113.01" y2="196.93"/><line class="cls-1" x1="206.5" y1="66.54" x2="203.78" y2="67.01"/><line class="cls-1" x1="206.5" y1="68.18" x2="206.5" y2="66.54"/><line class="cls-1" x1="173.24" y1="103.98" x2="173.24" y2="102.34"/><line class="cls-1" x1="173.24" y1="102.34" x2="172.42" y2="100.77"/><line class="cls-1" x1="172.42" y1="100.77" x2="203.78" y2="67.01"/><line class="cls-1" x1="173.24" y1="102.34" x2="206.5" y2="66.54"/><line class="cls-1" x1="173.24" y1="103.98" x2="206.5" y2="68.18"/><line class="cls-1" x1="145.32" y1="48.91" x2="145.32" y2="50.55"/><line class="cls-1" x1="144.5" y1="47.34" x2="145.32" y2="48.91"/><line class="cls-1" x1="206.5" y1="68.18" x2="206.5" y2="66.54"/><line class="cls-1" x1="206.5" y1="66.54" x2="203.78" y2="67.01"/><line class="cls-1" x1="203.78" y1="67.01" x2="145.32" y2="48.91"/><line class="cls-1" x1="206.5" y1="66.54" x2="144.5" y2="47.34"/><line class="cls-1" x1="202.59" y1="68.29" x2="145.32" y2="50.55"/><line class="cls-1" x1="173.24" y1="102.34" x2="172.42" y2="100.77"/><line class="cls-1" x1="173.24" y1="103.98" x2="173.24" y2="102.34"/><line class="cls-1" x1="111.24" y1="84.77" x2="111.24" y2="83.13"/><line class="cls-1" x1="111.24" y1="83.13" x2="113.96" y2="82.66"/><line class="cls-1" x1="113.96" y1="82.66" x2="172.42" y2="100.77"/><line class="cls-1" x1="111.24" y1="83.13" x2="173.24" y2="102.34"/><line class="cls-1" x1="111.24" y1="84.77" x2="173.24" y2="103.98"/><line class="cls-1" x1="111.24" y1="83.13" x2="113.96" y2="82.66"/><line class="cls-1" x1="111.24" y1="84.77" x2="111.24" y2="83.13"/><line class="cls-1" x1="144.5" y1="47.34" x2="145.32" y2="48.91"/><line class="cls-1" x1="145.32" y1="48.91" x2="145.32" y2="50.55"/><line class="cls-1" x1="145.32" y1="48.91" x2="113.96" y2="82.66"/><line class="cls-1" x1="144.5" y1="47.34" x2="111.24" y2="83.13"/><line class="cls-1" x1="145.32" y1="50.55" x2="115.15" y2="83.03"/><g class="cls-2"><path d="M80.31,162.82l10.27,4.56v1.3L80.31,164v5.52H79.25v-6.72Z"/><path d="M79.06,157.06a3.24,3.24,0,0,1,.56-2,3.77,3.77,0,0,1,1.43-1.16,6,6,0,0,1,1.89-.56,13.82,13.82,0,0,1,2-.15,13.58,13.58,0,0,1,2,.15,6.17,6.17,0,0,1,1.9.56,3.66,3.66,0,0,1,1.42,1.16,3.75,3.75,0,0,1,0,3.94,3.78,3.78,0,0,1-1.42,1.17,6.77,6.77,0,0,1-1.9.56,15.09,15.09,0,0,1-2,.14,15.36,15.36,0,0,1-2-.14,6.6,6.6,0,0,1-1.89-.56A3.89,3.89,0,0,1,79.62,159,3.24,3.24,0,0,1,79.06,157.06Zm1.06,0a2.09,2.09,0,0,0,.49,1.47,3.2,3.2,0,0,0,1.24.8,6.11,6.11,0,0,0,1.56.35c.56,0,1.06.07,1.51.07s1,0,1.5-.07a6.09,6.09,0,0,0,1.57-.35,3.17,3.17,0,0,0,1.23-.8,2.09,2.09,0,0,0,.5-1.47,2.07,2.07,0,0,0-.5-1.46,3.08,3.08,0,0,0-1.23-.81,5.7,5.7,0,0,0-1.57-.34c-.55,0-1-.08-1.5-.08s-1,0-1.51.08a5.71,5.71,0,0,0-1.56.34,3.11,3.11,0,0,0-1.24.81A2.06,2.06,0,0,0,80.12,157.06Z"/><path d="M79.06,148.17a3.24,3.24,0,0,1,.56-2A3.89,3.89,0,0,1,81.05,145a6.3,6.3,0,0,1,1.89-.56,13.76,13.76,0,0,1,2-.14,13.53,13.53,0,0,1,2,.14,6.45,6.45,0,0,1,1.9.56,3.78,3.78,0,0,1,1.42,1.17,3.73,3.73,0,0,1,0,3.93,3.78,3.78,0,0,1-1.42,1.17,6.17,6.17,0,0,1-1.9.56,13.58,13.58,0,0,1-2,.15,13.82,13.82,0,0,1-2-.15,6,6,0,0,1-1.89-.56,3.89,3.89,0,0,1-1.43-1.17A3.21,3.21,0,0,1,79.06,148.17Zm1.06,0a2.08,2.08,0,0,0,.49,1.46,3.11,3.11,0,0,0,1.24.81,6.1,6.1,0,0,0,1.56.34c.56.05,1.06.07,1.51.07s1,0,1.5-.07a6.09,6.09,0,0,0,1.57-.34,3.08,3.08,0,0,0,1.23-.81,2.4,2.4,0,0,0,0-2.93,3.08,3.08,0,0,0-1.23-.81,6.09,6.09,0,0,0-1.57-.34c-.55-.05-1-.07-1.5-.07s-1,0-1.51.07a6.1,6.1,0,0,0-1.56.34,3.11,3.11,0,0,0-1.24.81A2.09,2.09,0,0,0,80.12,148.17Z"/><path d="M84.76,138.12c-.28,0-.56,0-.83,0l-.84.06v-1.14h1.14v0a2.44,2.44,0,0,1-1-1.07,2.94,2.94,0,0,1-.34-1.35A3.14,3.14,0,0,1,83,134a2.47,2.47,0,0,1,.23-.66,2.34,2.34,0,0,1,.47-.6,2.65,2.65,0,0,1,.78-.47,2.42,2.42,0,0,1-1.13-1,2.73,2.73,0,0,1-.42-1.44,2.76,2.76,0,0,1,.76-2.13,3.12,3.12,0,0,1,2.17-.69h4.75V128H86.21a3.16,3.16,0,0,0-1.74.4,1.62,1.62,0,0,0-.61,1.48,2,2,0,0,0,.23,1,1.9,1.9,0,0,0,.62.64,2.58,2.58,0,0,0,.87.36,4.31,4.31,0,0,0,1,.12h4v1.05H86.21a3.25,3.25,0,0,0-1.74.4,1.64,1.64,0,0,0-.61,1.49,2.67,2.67,0,0,0,.07.44,1.62,1.62,0,0,0,.35.71,2.55,2.55,0,0,0,.86.67,3.69,3.69,0,0,0,1.6.29h3.84v1.06Z"/><path d="M84.76,124.49c-.28,0-.56,0-.83,0l-.84.06v-1.14h1.14v0a2.44,2.44,0,0,1-1-1.07A2.94,2.94,0,0,1,82.9,121a3.07,3.07,0,0,1,.07-.65,2.25,2.25,0,0,1,.23-.66,2.34,2.34,0,0,1,.47-.6,2.45,2.45,0,0,1,.78-.47,2.48,2.48,0,0,1-1.13-1,3.06,3.06,0,0,1,.34-3.57,3.12,3.12,0,0,1,2.17-.69h4.75v1.05H86.21a3.25,3.25,0,0,0-1.74.4,1.65,1.65,0,0,0-.61,1.49,2,2,0,0,0,.23,1,1.84,1.84,0,0,0,.62.65,2.58,2.58,0,0,0,.87.36,4.31,4.31,0,0,0,1,.11h4v1.06H86.21a3.16,3.16,0,0,0-1.74.4,1.64,1.64,0,0,0-.61,1.49,2.67,2.67,0,0,0,.07.44,1.67,1.67,0,0,0,.35.71,2.42,2.42,0,0,0,.86.66,3.53,3.53,0,0,0,1.6.3h3.84v1.06Z"/></g><line class="cls-3" x1="98.95" y1="83.69" x2="98.95" y2="198.72"/><line class="cls-3" x1="100.02" y1="83.69" x2="96.65" y2="83.69"/><line class="cls-3" x1="100.71" y1="198.72" x2="96.33" y2="198.72"/><line class="cls-3" x1="103.64" y1="206.61" x2="161.62" y2="224.58"/><line class="cls-3" x1="103.85" y1="205.81" x2="103.36" y2="207.38"/><line class="cls-3" x1="161.86" y1="223.79" x2="161.38" y2="225.36"/><g class="cls-2"><path d="M101.68,220.1l.56.18a3.52,3.52,0,0,0,.94.17,2.07,2.07,0,0,0,.87-.11,1.74,1.74,0,0,0,.7-.46,2.18,2.18,0,0,0,.48-.85,1.83,1.83,0,0,0-.11-1.52,2.27,2.27,0,0,0-1.33-.94,2.53,2.53,0,0,0-1.3-.07,2.58,2.58,0,0,0-1.13.62l-.81-.78a3.41,3.41,0,0,1,1.64-.91,3.81,3.81,0,0,1,1.88.12,4.24,4.24,0,0,1,1.15.56,3,3,0,0,1,.83.85,2.6,2.6,0,0,1,.4,1.1,2.87,2.87,0,0,1-.12,1.28,2.45,2.45,0,0,1-.4.79,2.71,2.71,0,0,1-.62.6,3.15,3.15,0,0,1-.76.37,2.67,2.67,0,0,1-.82.14l0,0a2.52,2.52,0,0,1,.73.6,2.69,2.69,0,0,1,.47.82,3.13,3.13,0,0,1,.17,1,3.16,3.16,0,0,1-.14,1,3.35,3.35,0,0,1-.69,1.25,2.92,2.92,0,0,1-1,.74,3.46,3.46,0,0,1-1.29.27,4.19,4.19,0,0,1-1.39-.21,4.13,4.13,0,0,1-1.92-1.16,3.28,3.28,0,0,1-.81-2.08h1.27a2.35,2.35,0,0,0,.46,1.41,2.74,2.74,0,0,0,1.4.84,2.65,2.65,0,0,0,.92.12,2.47,2.47,0,0,0,.86-.21,2.13,2.13,0,0,0,.7-.53,2.25,2.25,0,0,0,.45-.82,2.37,2.37,0,0,0,.09-1.1,2,2,0,0,0-.4-.87,2.89,2.89,0,0,0-.77-.65,4.86,4.86,0,0,0-1-.43l-.48-.15Z"/><path d="M115.29,220.33,110.87,219l-1.08,3.23a4.07,4.07,0,0,1,.78,0,5.06,5.06,0,0,1,.75.17,3.8,3.8,0,0,1,1.31.69,3.35,3.35,0,0,1,1.21,2.38,3.92,3.92,0,0,1-.17,1.46,3.68,3.68,0,0,1-.72,1.34,3.46,3.46,0,0,1-1.11.88,3.71,3.71,0,0,1-1.38.37,4,4,0,0,1-1.52-.19,3.65,3.65,0,0,1-1.7-1.06,3.36,3.36,0,0,1-.83-1.83l1.25-.13a2.63,2.63,0,0,0,.54,1.28,2.25,2.25,0,0,0,1.15.76,2.38,2.38,0,0,0,1,.11,2.8,2.8,0,0,0,.92-.27,2.47,2.47,0,0,0,.76-.61,2.32,2.32,0,0,0,.48-.89,2.79,2.79,0,0,0,.13-1.1,2.73,2.73,0,0,0-.3-1,2.33,2.33,0,0,0-.68-.79,2.93,2.93,0,0,0-1-.52,4.42,4.42,0,0,0-1.2-.19,5.57,5.57,0,0,0-1.23.09l1.84-5.57,5.52,1.71Z"/><path d="M121.3,220.89A3.2,3.2,0,0,1,123,222a3.82,3.82,0,0,1,.7,1.7,6.6,6.6,0,0,1,0,2,13.32,13.32,0,0,1-.45,1.93,13,13,0,0,1-.72,1.85,6.54,6.54,0,0,1-1.1,1.64,3.63,3.63,0,0,1-1.53,1,3.21,3.21,0,0,1-2,0,3.26,3.26,0,0,1-1.71-1.12,3.81,3.81,0,0,1-.7-1.71,6.53,6.53,0,0,1,0-2,13.32,13.32,0,0,1,.45-1.93,13,13,0,0,1,.72-1.85,6.34,6.34,0,0,1,1.09-1.64,3.85,3.85,0,0,1,1.54-1A3.22,3.22,0,0,1,121.3,220.89Zm-.32,1a2.07,2.07,0,0,0-1.54,0,3.1,3.1,0,0,0-1.14.94,5.9,5.9,0,0,0-.79,1.39c-.21.52-.38,1-.51,1.42s-.26.91-.38,1.46a6.23,6.23,0,0,0-.14,1.6,3.17,3.17,0,0,0,.41,1.41,2.41,2.41,0,0,0,2.8.87,3.1,3.1,0,0,0,1.14-.94,6.13,6.13,0,0,0,.79-1.4q.31-.76.51-1.41c.13-.43.26-.91.38-1.46a5.8,5.8,0,0,0,.13-1.6,3,3,0,0,0-.4-1.41A2,2,0,0,0,121,221.9Z"/><path d="M129.21,229.31c.08-.27.16-.54.22-.81s.13-.54.19-.81l1.09.34-.34,1.08h0a2.51,2.51,0,0,1,1.31-.63,3.05,3.05,0,0,1,1.39.08,3.42,3.42,0,0,1,.61.25,2.49,2.49,0,0,1,.56.42,2.06,2.06,0,0,1,.43.63,2.33,2.33,0,0,1,.22.89,2.47,2.47,0,0,1,1.31-.79,3,3,0,0,1,1.51,0,2.73,2.73,0,0,1,1.8,1.36,3.09,3.09,0,0,1,0,2.27l-1.41,4.54-1-.31,1.3-4.17a3.17,3.17,0,0,0,.13-1.79,1.67,1.67,0,0,0-1.24-1,2,2,0,0,0-1-.07,1.89,1.89,0,0,0-.8.4,2.84,2.84,0,0,0-.6.72,5,5,0,0,0-.41.94l-1.18,3.81-1-.32,1.3-4.17a3.14,3.14,0,0,0,.13-1.78,1.63,1.63,0,0,0-1.24-1,3.61,3.61,0,0,0-.44-.07,1.62,1.62,0,0,0-.78.12,2.53,2.53,0,0,0-.89.63,3.46,3.46,0,0,0-.76,1.44l-1.14,3.67-1-.31Z"/><path d="M142.23,233.34c.08-.27.16-.53.22-.8s.13-.54.2-.81l1.08.33-.34,1.09h0a2.41,2.41,0,0,1,1.3-.63,3.11,3.11,0,0,1,1.4.07,5,5,0,0,1,.6.26,2.22,2.22,0,0,1,.56.42,2.38,2.38,0,0,1,.44.62,2.59,2.59,0,0,1,.21.89,2.55,2.55,0,0,1,1.31-.78,2.76,2.76,0,0,1,1.51,0,2.72,2.72,0,0,1,1.8,1.35,3.11,3.11,0,0,1,0,2.28l-1.41,4.54-1-.31,1.29-4.18a3.14,3.14,0,0,0,.13-1.78,1.63,1.63,0,0,0-1.24-1,1.92,1.92,0,0,0-1-.07,2,2,0,0,0-.8.39,2.89,2.89,0,0,0-.6.73,4.69,4.69,0,0,0-.41.94l-1.18,3.8-1-.31,1.29-4.17a3.18,3.18,0,0,0,.13-1.79,1.67,1.67,0,0,0-1.24-1,3.61,3.61,0,0,0-.44-.07,1.77,1.77,0,0,0-.78.13,2.53,2.53,0,0,0-.89.63,3.46,3.46,0,0,0-.76,1.44l-1.14,3.66-1-.31Z"/></g><line class="cls-3" x1="182.77" y1="224.34" x2="213.37" y2="187.55"/><line class="cls-3" x1="182.44" y1="224.1" x2="183.07" y2="224.62"/><line class="cls-3" x1="213.06" y1="187.29" x2="213.69" y2="187.82"/><g class="cls-2"><path d="M190.65,235.92l.38-.46a3.65,3.65,0,0,0,.52-.8,2.08,2.08,0,0,0,.23-.84,1.73,1.73,0,0,0-.15-.83,2.25,2.25,0,0,0-.61-.77,1.82,1.82,0,0,0-1.45-.48,2.21,2.21,0,0,0-1.37.87,2.44,2.44,0,0,0-.56,1.17,2.52,2.52,0,0,0,.14,1.29l-1,.44a3.29,3.29,0,0,1-.2-1.86,3.58,3.58,0,0,1,.83-1.69,3.8,3.8,0,0,1,.95-.85,2.94,2.94,0,0,1,1.11-.44,2.68,2.68,0,0,1,1.16.05,2.86,2.86,0,0,1,1.14.6,2.5,2.5,0,0,1,.58.68,2.61,2.61,0,0,1,.31.8,2.78,2.78,0,0,1-.13,1.65l.06,0a2.42,2.42,0,0,1,.84-.44,3,3,0,0,1,.94-.12,3.25,3.25,0,0,1,.95.21,3.52,3.52,0,0,1,.87.52,3.26,3.26,0,0,1,.89,1.11,3.13,3.13,0,0,1,.29,1.26,3.49,3.49,0,0,1-.26,1.29,4.6,4.6,0,0,1-2.53,2.54,3.36,3.36,0,0,1-2.23-.05l.49-1.17a2.34,2.34,0,0,0,1.48.11,2.74,2.74,0,0,0,1.32-1,2.68,2.68,0,0,0,.46-.8,2.42,2.42,0,0,0,.14-.88,2.33,2.33,0,0,0-.22-.85,2.23,2.23,0,0,0-.59-.72,2.32,2.32,0,0,0-1-.51,2.07,2.07,0,0,0-1,0,2.7,2.7,0,0,0-.89.46,4.59,4.59,0,0,0-.78.75l-.32.38Z"/><path d="M196.08,223.43l-3,3.55,2.58,2.25a3.3,3.3,0,0,1,.32-.72,4.46,4.46,0,0,1,.44-.63,3.72,3.72,0,0,1,1.14-.94,3.24,3.24,0,0,1,1.3-.38,3.33,3.33,0,0,1,1.36.17,4,4,0,0,1,1.28.72,3.85,3.85,0,0,1,1,1.18,3.51,3.51,0,0,1,.38,1.36,3.68,3.68,0,0,1-.18,1.42,4.15,4.15,0,0,1-.76,1.33,3.7,3.7,0,0,1-1.63,1.16,3.27,3.27,0,0,1-2,.06l.36-1.2a2.58,2.58,0,0,0,1.38,0,2.25,2.25,0,0,0,1.15-.76,2.54,2.54,0,0,0,.59-1.87,2.41,2.41,0,0,0-.26-.92,2.56,2.56,0,0,0-.64-.79,2.83,2.83,0,0,0-1-.54,2.57,2.57,0,0,0-1-.1,2.36,2.36,0,0,0-1,.32,3.18,3.18,0,0,0-.87.74,4.76,4.76,0,0,0-.64,1A5.34,5.34,0,0,0,196,231l-4.44-3.84,3.69-4.45Z"/><path d="M198.9,218.09a3.24,3.24,0,0,1,1.69-1.15,3.82,3.82,0,0,1,1.84,0,6.85,6.85,0,0,1,1.82.78,14.45,14.45,0,0,1,1.61,1.16,14,14,0,0,1,1.42,1.37,6.29,6.29,0,0,1,1.1,1.64,3.71,3.71,0,0,1,.35,1.81,3.16,3.16,0,0,1-.83,1.87,3.2,3.2,0,0,1-1.69,1.16,4,4,0,0,1-1.84,0,6.39,6.39,0,0,1-1.81-.79,13.53,13.53,0,0,1-1.61-1.15,14,14,0,0,1-1.43-1.37,6.42,6.42,0,0,1-1.1-1.65,3.78,3.78,0,0,1-.35-1.81A3.27,3.27,0,0,1,198.9,218.09Zm.81.68a2.05,2.05,0,0,0-.55,1.44,3,3,0,0,0,.43,1.41,6.17,6.17,0,0,0,1,1.27q.6.59,1.11,1t1.2.9a5.9,5.9,0,0,0,1.43.74,3.21,3.21,0,0,0,1.46.17,2.42,2.42,0,0,0,1.88-2.26,3.17,3.17,0,0,0-.43-1.4,5.66,5.66,0,0,0-1-1.27q-.6-.58-1.11-1c-.34-.28-.74-.59-1.2-.9a5.73,5.73,0,0,0-1.43-.74A3.08,3.08,0,0,0,201,218,2.06,2.06,0,0,0,199.71,218.77Z"/><path d="M209.7,214c-.21-.18-.43-.35-.65-.51s-.45-.33-.68-.49l.73-.88.87.73,0,0a2.51,2.51,0,0,1-.08-1.46,3,3,0,0,1,.61-1.25,4,4,0,0,1,.46-.46,2.3,2.3,0,0,1,2.26-.38,2.44,2.44,0,0,1-.23-1.51,2.89,2.89,0,0,1,.61-1.38,2.75,2.75,0,0,1,1.94-1.15,3.16,3.16,0,0,1,2.11.86l3.65,3-.67.81-3.36-2.79a3.23,3.23,0,0,0-1.6-.81,1.65,1.65,0,0,0-1.41.76,1.83,1.83,0,0,0-.46.91,1.92,1.92,0,0,0,.06.89,2.66,2.66,0,0,0,.44.83,4.5,4.5,0,0,0,.71.74l3.06,2.55-.67.81-3.36-2.79a3.14,3.14,0,0,0-1.6-.81A1.66,1.66,0,0,0,211,211a3.42,3.42,0,0,0-.23.38,1.76,1.76,0,0,0-.19.78,2.9,2.9,0,0,0,.24,1.06,3.62,3.62,0,0,0,1,1.25l3,2.45-.68.82Z"/><path d="M218.42,203.53c-.21-.17-.43-.35-.65-.51l-.68-.49.73-.87.87.72,0,0a2.48,2.48,0,0,1-.08-1.45,3,3,0,0,1,.61-1.26,4,4,0,0,1,.46-.46,2.28,2.28,0,0,1,.6-.36,2.57,2.57,0,0,1,.75-.16,2.79,2.79,0,0,1,.9.14,2.51,2.51,0,0,1-.22-1.51,2.8,2.8,0,0,1,.61-1.38,2.75,2.75,0,0,1,1.94-1.15,3.18,3.18,0,0,1,2.11.86l3.65,3-.67.81L226,196.69a3.27,3.27,0,0,0-1.6-.81,1.67,1.67,0,0,0-1.42.76,1.9,1.9,0,0,0-.45.91,1.68,1.68,0,0,0,.06.89,2.47,2.47,0,0,0,.44.83,4.07,4.07,0,0,0,.7.74l3.07,2.55-.68.81-3.35-2.79a3.14,3.14,0,0,0-1.6-.81,1.65,1.65,0,0,0-1.42.75,3.42,3.42,0,0,0-.23.38,1.63,1.63,0,0,0-.19.78,2.54,2.54,0,0,0,.24,1.06,3.62,3.62,0,0,0,1,1.25l2.95,2.46-.67.81Z"/></g></svg>