<?xml version="1.0" encoding="utf-8"?>
<!-- Generator: Adobe Illustrator 22.1.0, SVG Export Plug-In . SVG Version: 6.00 Build 0)  -->
<svg version="1.1" id="Kelvin_Led_Wall" xmlns="http://www.w3.org/2000/svg" xmlns:xlink="http://www.w3.org/1999/xlink" x="0px"
	 y="0px" viewBox="0 0 300 263" style="enable-background:new 0 0 300 263;" xml:space="preserve">
<style type="text/css">
	.st0{fill:none;stroke:#000100;stroke-width:0.5;stroke-linecap:round;stroke-linejoin:round;}
	.st1{fill:none;stroke:#000000;stroke-width:0.5;}
	.st2{fill:none;stroke:#000100;stroke-width:0.5;stroke-miterlimit:2;}
	.st3{fill:#000100;}
</style>
<title>kelvin-led-wall-citterio-flos-F3314057-spech-tech-02-300x263</title>
<polygon class="st0" points="83,211.9 83,213.6 73.1,213.6 73.1,229 69.9,229 69.9,213.6 69.9,213.3 69.9,211.9 "/>
<g>
	<line class="st1" x1="61.3" y1="211.9" x2="61.3" y2="47"/>
	<line class="st1" x1="59.6" y1="211.9" x2="63" y2="211.9"/>
</g>
<line class="st1" x1="59.6" y1="47" x2="63" y2="47"/>
<line class="st1" x1="79.9" y1="38.2" x2="245.1" y2="38.2"/>
<line class="st1" x1="79.9" y1="36.5" x2="79.9" y2="39.9"/>
<line class="st1" x1="245.1" y1="36.5" x2="245.1" y2="39.9"/>
<g>
	<path d="M140.7,18.5h-4.6l-0.1,3.4c0.2-0.1,0.5-0.2,0.8-0.2c0.3,0,0.5-0.1,0.8-0.1c0.5,0,1,0.1,1.4,0.3c0.4,0.2,0.8,0.4,1.1,0.8
		c0.3,0.3,0.6,0.7,0.7,1.1c0.2,0.5,0.3,1,0.3,1.5c0,0.5-0.1,1-0.3,1.5c-0.2,0.5-0.5,0.9-0.8,1.2c-0.3,0.3-0.8,0.6-1.2,0.8
		c-0.5,0.2-1,0.3-1.5,0.3c-0.7,0-1.3-0.2-1.9-0.5c-0.6-0.4-1-0.9-1.3-1.5l1.1-0.5c0.2,0.4,0.5,0.8,0.9,1.1c0.4,0.3,0.9,0.4,1.3,0.4
		c0.3,0,0.7-0.1,1-0.2c0.3-0.1,0.6-0.3,0.8-0.5c0.2-0.2,0.4-0.5,0.5-0.8c0.1-0.3,0.2-0.7,0.2-1c0-0.4-0.1-0.7-0.2-1.1
		c-0.1-0.3-0.3-0.6-0.6-0.9c-0.3-0.2-0.6-0.4-0.9-0.5c-0.4-0.1-0.7-0.2-1.1-0.2c-0.4,0-0.8,0.1-1.2,0.2c-0.4,0.1-0.8,0.3-1.1,0.5
		l0.1-5.9h5.8L140.7,18.5z"/>
	<path d="M145.1,22.8c-0.2-0.1-0.5-0.2-0.7-0.4c-0.2-0.2-0.4-0.4-0.5-0.6c-0.5-0.8-0.6-1.9-0.2-2.8c0.2-0.4,0.4-0.7,0.7-0.9
		c0.3-0.3,0.6-0.5,1-0.6c0.8-0.3,1.6-0.3,2.4,0c0.4,0.1,0.7,0.3,1,0.6c0.3,0.3,0.5,0.6,0.7,0.9c0.2,0.4,0.3,0.8,0.2,1.2
		c0,0.6-0.2,1.1-0.5,1.6c-0.1,0.2-0.3,0.4-0.5,0.6c-0.2,0.2-0.4,0.3-0.7,0.4l0,0c0.6,0.2,1.2,0.5,1.5,1c0.4,0.6,0.6,1.2,0.6,1.9
		c0,0.5-0.1,0.9-0.3,1.3c-0.2,0.4-0.5,0.7-0.8,1c-0.3,0.3-0.7,0.5-1.1,0.6c-0.4,0.2-0.9,0.2-1.4,0.2c-0.5,0-0.9-0.1-1.4-0.2
		c-0.4-0.1-0.8-0.4-1.1-0.6c-0.3-0.3-0.6-0.6-0.8-1c-0.2-0.4-0.3-0.9-0.3-1.3c0-0.7,0.2-1.4,0.6-1.9C144,23.3,144.5,22.9,145.1,22.8
		L145.1,22.8z M149.1,25.6c0-0.3-0.1-0.6-0.2-0.9c-0.1-0.3-0.3-0.5-0.5-0.7c-0.2-0.2-0.5-0.4-0.8-0.5c-0.3-0.1-0.7-0.2-1-0.2
		c-0.3,0-0.7,0.1-1,0.2c-0.6,0.2-1,0.7-1.2,1.2c-0.1,0.3-0.2,0.6-0.2,0.9c0,0.3,0.1,0.6,0.2,0.9c0.1,0.3,0.3,0.5,0.5,0.7
		c0.2,0.2,0.5,0.4,0.8,0.5c0.3,0.1,0.7,0.2,1,0.2c0.3,0,0.7-0.1,1-0.2c0.3-0.1,0.6-0.3,0.8-0.5c0.2-0.2,0.4-0.5,0.5-0.7
		C149,26.2,149.1,25.9,149.1,25.6z M148.6,20.3c0-0.3,0-0.5-0.1-0.8c-0.1-0.2-0.2-0.4-0.4-0.6c-0.2-0.2-0.4-0.3-0.6-0.4
		c-0.3-0.1-0.5-0.2-0.8-0.2c-0.3,0-0.5,0.1-0.8,0.2c-0.5,0.2-0.9,0.5-1.1,1c-0.1,0.3-0.2,0.5-0.1,0.8c0,0.3,0,0.5,0.1,0.8
		c0.1,0.2,0.2,0.5,0.4,0.6c0.2,0.2,0.4,0.3,0.6,0.4c0.3,0.1,0.5,0.2,0.8,0.1c0.3,0,0.5,0,0.8-0.1c0.2-0.1,0.5-0.2,0.6-0.4
		c0.2-0.2,0.3-0.4,0.4-0.6C148.6,20.8,148.6,20.6,148.6,20.3z"/>
	<path d="M156.6,28.8h-1.1v-9.9l-2,1.8l-0.7-0.9l2.9-2.4h1L156.6,28.8z"/>
	<path d="M165.6,23c0-0.3,0-0.5,0-0.8s0-0.5,0-0.8h1.1v1.1l0,0c0.2-0.4,0.6-0.8,1.1-1c0.4-0.2,0.9-0.3,1.4-0.3c0.2,0,0.4,0,0.6,0.1
		c0.2,0,0.5,0.1,0.7,0.2c0.2,0.1,0.4,0.3,0.6,0.5c0.2,0.2,0.4,0.5,0.5,0.8c0.2-0.5,0.6-0.9,1-1.1c0.4-0.3,0.9-0.4,1.4-0.4
		c0.8-0.1,1.6,0.2,2.1,0.8c0.5,0.6,0.7,1.4,0.7,2.2v4.8h-1v-4.4c0-0.6-0.1-1.2-0.4-1.8c-0.4-0.4-0.9-0.7-1.5-0.6
		c-0.3,0-0.7,0.1-1,0.2c-0.3,0.1-0.5,0.4-0.6,0.6c-0.2,0.3-0.3,0.6-0.4,0.9c-0.1,0.3-0.1,0.7-0.1,1v4h-1.1v-4.4
		c0-0.6-0.1-1.2-0.4-1.8c-0.4-0.4-0.9-0.7-1.5-0.6l-0.4,0.1c-0.3,0.1-0.5,0.2-0.7,0.4c-0.3,0.2-0.5,0.5-0.7,0.9
		c-0.2,0.5-0.3,1.1-0.3,1.6v3.8h-1.1L165.6,23z"/>
	<path d="M179.2,23c0-0.3,0-0.5,0-0.8s0-0.5,0-0.8h1.1v1.1l0,0c0.2-0.4,0.6-0.8,1.1-1c0.4-0.2,0.9-0.3,1.4-0.3c0.2,0,0.4,0,0.6,0.1
		c0.2,0,0.5,0.1,0.7,0.2c0.2,0.1,0.4,0.3,0.6,0.5c0.2,0.2,0.4,0.5,0.5,0.8c0.2-0.5,0.6-0.9,1-1.1c0.4-0.3,0.9-0.4,1.4-0.4
		c0.8-0.1,1.6,0.2,2.1,0.8c0.5,0.6,0.7,1.4,0.7,2.2v4.8h-1.1v-4.4c0-0.6-0.1-1.2-0.4-1.8c-0.4-0.4-0.9-0.7-1.5-0.6
		c-0.3,0-0.7,0.1-1,0.2c-0.3,0.1-0.5,0.4-0.6,0.6c-0.2,0.3-0.3,0.6-0.4,0.9c-0.1,0.3-0.1,0.7-0.1,1v4h-1.1v-4.4
		c0-0.6-0.1-1.2-0.4-1.8c-0.4-0.4-0.9-0.7-1.5-0.6l-0.4,0.1c-0.3,0.1-0.5,0.2-0.7,0.4c-0.3,0.2-0.5,0.5-0.7,0.9
		c-0.2,0.5-0.3,1.1-0.3,1.6v3.8h-1.1V23z"/>
</g>
<polyline class="st2" points="83,190.2 83,189.8 82.9,189.5 82.8,189.1 82.7,188.8 82.6,188.5 82.4,188.2 82.2,187.9 81.9,187.7 
	81.9,187.6 "/>
<line class="st2" x1="83" y1="191.4" x2="83" y2="190.2"/>
<line class="st2" x1="81.1" y1="189.1" x2="82.8" y2="189.1"/>
<line class="st2" x1="83" y1="202.2" x2="83" y2="191.4"/>
<line class="st2" x1="83" y1="207.6" x2="83" y2="202.2"/>
<line class="st2" x1="83" y1="207.6" x2="83" y2="211.9"/>
<polyline class="st2" points="71.7,178 71.4,177.8 71.1,177.7 70.7,177.6 70.4,177.7 70.1,177.9 69.8,178.1 69.7,178.5 69.6,178.8 
	69.6,179.1 69.8,179.5 69.9,179.7 "/>
<line class="st2" x1="81.7" y1="187.4" x2="71.7" y2="178"/>
<polyline class="st2" points="79.1,190.2 79.1,189.8 79,189.5 78.8,189.2 78.7,189 "/>
<line class="st2" x1="77.2" y1="187.4" x2="78.7" y2="189"/>
<line class="st2" x1="81.1" y1="189.1" x2="78.8" y2="189.1"/>
<line class="st2" x1="77.2" y1="187.4" x2="69.9" y2="179.7"/>
<line class="st2" x1="79.1" y1="207.6" x2="79.1" y2="211.9"/>
<line class="st2" x1="79.1" y1="202.2" x2="79.1" y2="207.6"/>
<line class="st2" x1="79.1" y1="202.2" x2="79.1" y2="191.4"/>
<line class="st2" x1="81.9" y1="187.6" x2="81.7" y2="187.4"/>
<line class="st2" x1="79.1" y1="190.2" x2="79.1" y2="191.4"/>
<line class="st2" x1="83" y1="187.8" x2="83" y2="192.1"/>
<line class="st2" x1="83" y1="71.8" x2="79.1" y2="71.8"/>
<line class="st2" x1="79.1" y1="185.1" x2="79.1" y2="153.8"/>
<line class="st2" x1="79.1" y1="149.7" x2="79.1" y2="71.8"/>
<line class="st2" x1="83" y1="187.7" x2="83" y2="71.8"/>
<line class="st2" x1="81.8" y1="157.7" x2="81.8" y2="142"/>
<polyline class="st2" points="80.4,157.7 80.4,158 80.7,158.3 81,158.4 81.3,158.3 81.6,158.1 81.8,157.8 81.8,157.7 "/>
<line class="st2" x1="80.4" y1="142" x2="80.4" y2="145.8"/>
<line class="st2" x1="80.4" y1="149.5" x2="80.4" y2="157.7"/>
<polyline class="st2" points="81.8,142 81.7,141.6 81.4,141.4 81.1,141.3 80.8,141.3 80.5,141.5 80.4,141.8 80.4,142 "/>
<line class="st2" x1="81.1" y1="71.8" x2="79.2" y2="71.8"/>
<line class="st2" x1="80" y1="71.8" x2="80" y2="71.8"/>
<line class="st2" x1="81.1" y1="71.8" x2="83" y2="71.8"/>
<line class="st2" x1="82.1" y1="71.8" x2="82.1" y2="71.8"/>
<line class="st2" x1="83" y1="71.8" x2="82.9" y2="68"/>
<line class="st2" x1="82.9" y1="68" x2="82.8" y2="64.8"/>
<line class="st2" x1="82.6" y1="58.8" x2="82.8" y2="64.8"/>
<line class="st2" x1="82.4" y1="51.6" x2="82.6" y2="58.8"/>
<line class="st2" x1="82.3" y1="46.1" x2="82.4" y2="51.6"/>
<polyline class="st2" points="82.3,46.1 82.2,45.8 82.1,45.4 81.8,45.2 81.6,45 81.2,44.9 80.9,44.9 80.5,45 80.2,45.2 80,45.5 
	79.9,45.8 79.8,46.1 "/>
<line class="st2" x1="79.8" y1="46.1" x2="79.7" y2="51.6"/>
<line class="st2" x1="79.7" y1="51.6" x2="79.5" y2="58.8"/>
<line class="st2" x1="79.5" y1="58.8" x2="79.3" y2="64.8"/>
<line class="st2" x1="79.2" y1="68" x2="79.3" y2="64.8"/>
<line class="st2" x1="79.2" y1="71.8" x2="79.2" y2="68"/>
<line class="st2" x1="82.5" y1="55.1" x2="82.8" y2="55.1"/>
<line class="st2" x1="82.8" y1="55.1" x2="82.8" y2="57.1"/>
<line class="st2" x1="82.8" y1="57.1" x2="82.6" y2="57.1"/>
<line class="st2" x1="79.5" y1="57.1" x2="78.5" y2="57.1"/>
<polyline class="st2" points="77.6,56.2 77.7,56.5 77.9,56.8 78.2,57 78.5,57.1 "/>
<line class="st2" x1="77.6" y1="55.1" x2="77.6" y2="56.2"/>
<line class="st2" x1="77.6" y1="55.1" x2="77.6" y2="54.1"/>
<polyline class="st2" points="78.5,53.2 78.1,53.3 77.8,53.5 77.7,53.8 77.6,54.1 "/>
<line class="st2" x1="82.8" y1="53.2" x2="82.5" y2="53.2"/>
<line class="st2" x1="79.7" y1="53.2" x2="78.5" y2="53.2"/>
<line class="st2" x1="82.8" y1="55.1" x2="82.8" y2="53.2"/>
<line class="st2" x1="82.8" y1="53.9" x2="82.8" y2="53.9"/>
<line class="st2" x1="82.8" y1="56.4" x2="82.8" y2="56.4"/>
<line class="st2" x1="205.7" y1="57.1" x2="205.7" y2="53.2"/>
<line class="st2" x1="82.8" y1="53.2" x2="105.1" y2="53.2"/>
<line class="st2" x1="110" y1="53.2" x2="205.7" y2="53.2"/>
<line class="st2" x1="82.8" y1="57.1" x2="205.7" y2="57.1"/>
<line class="st2" x1="107.6" y1="55.8" x2="123.3" y2="55.8"/>
<polyline class="st2" points="107.6,54.4 107.3,54.5 107,54.7 106.9,55.1 106.9,55.4 107.2,55.7 107.5,55.8 107.6,55.8 "/>
<line class="st2" x1="123.3" y1="54.4" x2="114.4" y2="54.4"/>
<line class="st2" x1="110.1" y1="54.4" x2="107.6" y2="54.4"/>
<polyline class="st2" points="123.3,55.8 123.6,55.8 123.9,55.5 124,55.2 124,54.9 123.8,54.6 123.4,54.5 123.3,54.4 "/>
<line class="st2" x1="80.8" y1="148.1" x2="80.6" y2="148.7"/>
<line class="st2" x1="80.4" y1="149.3" x2="80.4" y2="149.5"/>
<line class="st2" x1="79.1" y1="153.8" x2="72.2" y2="178.5"/>
<polyline class="st2" points="69.8,178.1 73.2,168 76.5,157.9 79.8,147.8 "/>
<polyline class="st2" points="80.7,148.1 80.6,148.5 80.5,148.8 80.4,149.1 80.3,149.5 80.2,149.8 80.2,150.1 80.1,150.5 80,150.8 
	79.9,151.1 79.8,151.5 79.7,151.8 79.6,152.2 79.5,152.5 79.4,152.8 79.3,153.2 79.2,153.5 79.1,153.8 79,154.2 78.9,154.5 
	78.8,154.8 78.7,155.2 78.6,155.5 78.5,155.9 78.4,156.2 78.3,156.5 78.2,156.9 78.2,157.2 78.1,157.5 78,157.9 77.9,158.2 
	77.8,158.5 77.7,158.9 77.6,159.2 77.5,159.6 77.4,159.9 77.3,160.2 77.2,160.6 77.1,160.9 77,161.2 76.9,161.6 76.8,161.9 
	76.7,162.2 76.6,162.6 76.5,162.9 76.4,163.2 76.3,163.6 76.2,163.9 76.2,164.2 76.1,164.6 76,164.9 75.9,165.3 75.8,165.6 
	75.7,165.9 75.6,166.3 75.5,166.6 75.4,166.9 75.3,167.3 75.2,167.6 75.1,167.9 75,168.3 74.9,168.6 74.8,168.9 74.7,169.3 
	74.6,169.6 74.5,170 74.4,170.3 74.3,170.6 74.2,171 74.2,171.3 74.1,171.6 74,172 73.9,172.3 73.8,172.6 73.7,173 73.6,173.3 
	73.5,173.6 73.4,174 73.3,174.3 73.2,174.7 73.1,175 73,175.3 72.9,175.7 72.8,176 72.7,176.3 72.6,176.7 72.5,177 72.4,177.4 
	72.3,177.7 72.3,178 72.2,178.4 72.1,178.4 "/>
<line class="st2" x1="79.8" y1="147.8" x2="79.8" y2="147.8"/>
<line class="st2" x1="79.8" y1="147.8" x2="79.8" y2="147.8"/>
<line class="st2" x1="69.7" y1="178.5" x2="69.7" y2="178.5"/>
<polyline class="st2" points="69.7,178.5 69.6,178.8 69.6,179.2 69.8,179.5 70,179.8 70,179.8 "/>
<line class="st2" x1="69.7" y1="178.5" x2="69.7" y2="178.3"/>
<polyline class="st2" points="69.7,178.3 74.7,163.1 79.8,147.8 "/>
<line class="st2" x1="80.8" y1="148.1" x2="80.7" y2="148.1"/>
<polyline class="st2" points="80.8,148.1 80.7,148.5 80.6,148.8 80.5,149.1 80.4,149.5 80.3,149.8 80.2,150.1 80.1,150.5 80,150.8 
	79.9,151.1 79.8,151.5 79.7,151.8 79.6,152.2 79.5,152.5 79.4,152.8 79.3,153.2 79.2,153.5 79.1,153.8 79,154.2 78.9,154.5 
	78.8,154.9 78.8,155.2 78.7,155.5 78.6,155.9 78.5,156.2 78.4,156.5 78.3,156.9 78.2,157.2 78.1,157.5 78,157.9 77.9,158.2 
	77.8,158.5 77.7,158.9 77.6,159.2 77.5,159.6 77.4,159.9 77.3,160.2 77.2,160.6 77.1,160.9 77.1,161.2 76.9,161.6 76.9,161.9 
	76.8,162.2 76.7,162.6 76.6,162.9 76.5,163.2 76.4,163.6 76.3,163.9 76.2,164.3 76.1,164.6 76,164.9 75.9,165.3 75.8,165.6 
	75.7,165.9 75.6,166.3 75.5,166.6 75.4,166.9 75.3,167.3 75.2,167.6 75.2,167.9 75.1,168.3 75,168.6 74.9,169 74.8,169.3 
	74.7,169.6 74.6,170 74.5,170.3 74.4,170.6 74.3,171 74.2,171.3 74.1,171.6 74,172 73.9,172.3 73.8,172.7 73.7,173 73.6,173.3 
	73.6,173.7 73.4,174 73.4,174.3 73.3,174.7 73.2,175 73.1,175.4 73,175.7 72.9,176 72.8,176.4 72.7,176.7 72.6,177 72.5,177.4 
	72.4,177.7 72.3,178 72.2,178.4 72.2,178.5 "/>
<line class="st2" x1="79.8" y1="147.8" x2="69.7" y2="178.3"/>
<line class="st2" x1="80.8" y1="148.1" x2="72.2" y2="178.5"/>
<polyline class="st2" points="81.6,145.5 81.6,145.1 81.3,144.9 81,144.8 80.7,144.9 80.6,145.1 "/>
<line class="st2" x1="80.8" y1="148" x2="80.8" y2="148.1"/>
<line class="st2" x1="79.8" y1="147.8" x2="80.2" y2="146.3"/>
<line class="st2" x1="80.8" y1="148.1" x2="81.2" y2="146.6"/>
<line class="st2" x1="80.5" y1="145.2" x2="80.6" y2="145.1"/>
<line class="st2" x1="81.4" y1="145.8" x2="81.6" y2="145.5"/>
<line class="st2" x1="80.2" y1="146.3" x2="80.6" y2="145.1"/>
<line class="st2" x1="81.2" y1="146.6" x2="81.6" y2="145.5"/>
<line class="st2" x1="112.1" y1="54.9" x2="111.5" y2="54.8"/>
<line class="st2" x1="110.7" y1="54.6" x2="110.1" y2="54.4"/>
<line class="st2" x1="105.1" y1="53.2" x2="82.3" y2="47.7"/>
<polyline class="st2" points="81.8,45.1 92,48.1 102.2,51 112.4,53.9 "/>
<polyline class="st2" points="112.2,54.9 97.2,51.3 82.3,47.6 "/>
<line class="st2" x1="112.4" y1="53.9" x2="112.4" y2="53.9"/>
<line class="st2" x1="112.4" y1="53.9" x2="112.4" y2="53.9"/>
<polyline class="st2" points="81.4,45 81.1,44.9 80.7,45 80.4,45.1 80.1,45.3 79.9,45.6 79.8,45.9 79.8,46.2 "/>
<line class="st2" x1="81.4" y1="45" x2="81.4" y2="45"/>
<line class="st2" x1="81.4" y1="45" x2="81.6" y2="45"/>
<polyline class="st2" points="81.6,45 97,49.5 112.4,53.9 "/>
<line class="st2" x1="112.2" y1="54.9" x2="112.2" y2="54.9"/>
<line class="st2" x1="112.1" y1="54.9" x2="112.2" y2="54.9"/>
<polyline class="st2" points="112.2,54.9 97.2,51.3 82.3,47.7 "/>
<line class="st2" x1="112.4" y1="53.9" x2="81.6" y2="45"/>
<line class="st2" x1="112.1" y1="54.9" x2="82.3" y2="47.7"/>
<polyline class="st2" points="114.8,55.6 115.2,55.6 115.4,55.4 115.5,55.1 115.4,54.8 115.1,54.6 "/>
<line class="st2" x1="112.3" y1="55" x2="112.1" y2="54.9"/>
<line class="st2" x1="112.4" y1="53.9" x2="113.9" y2="54.3"/>
<line class="st2" x1="112.1" y1="54.9" x2="113.7" y2="55.3"/>
<line class="st2" x1="114.4" y1="55.5" x2="114.8" y2="55.6"/>
<line class="st2" x1="113.9" y1="54.3" x2="115.1" y2="54.6"/>
<line class="st2" x1="113.7" y1="55.3" x2="114.8" y2="55.6"/>
<polyline class="st2" points="81.8,149.9 81.4,149.8 81.1,149.8 80.9,150 80.8,150.4 80.8,150.7 81.1,150.9 81.4,151 81.7,150.9 
	81.8,150.8 "/>
<line class="st2" x1="81.6" y1="142.7" x2="80.5" y2="142.7"/>
<line class="st2" x1="81.6" y1="142.7" x2="81.6" y2="145.8"/>
<line class="st2" x1="80.5" y1="145.2" x2="80.5" y2="142.7"/>
<line class="st2" x1="81.4" y1="145.8" x2="81.6" y2="145.8"/>
<polyline class="st2" points="81.8,149.9 81.4,149.8 81.1,149.8 80.9,150 80.8,150.3 80.8,150.7 81.1,150.9 81.4,151 81.7,150.9 
	81.8,150.9 "/>
<line class="st2" x1="80.5" y1="145.3" x2="80.5" y2="142.7"/>
<line class="st2" x1="80.5" y1="142.7" x2="80.5" y2="142.7"/>
<line class="st2" x1="81.1" y1="146.9" x2="81.6" y2="146.9"/>
<polyline class="st2" points="81.6,145.8 81.6,145.8 81.6,145.9 81.6,146 81.6,146.3 81.6,146.9 "/>
<line class="st2" x1="81.4" y1="145.8" x2="81.6" y2="145.8"/>
<line class="st2" x1="81.6" y1="145.8" x2="81.6" y2="145.8"/>
<line class="st2" x1="81.6" y1="142.7" x2="81.6" y2="142.7"/>
<line class="st2" x1="81.6" y1="146.9" x2="81.6" y2="142.7"/>
<line class="st2" x1="81.6" y1="142.7" x2="80.5" y2="142.7"/>
<line class="st2" x1="80.5" y1="149.3" x2="80.4" y2="149.3"/>
<line class="st2" x1="80.5" y1="149.3" x2="80.5" y2="149.3"/>
<line class="st2" x1="80.5" y1="151.2" x2="80.5" y2="149.3"/>
<line class="st2" x1="80.5" y1="151.2" x2="80.5" y2="151.2"/>
<line class="st2" x1="80.5" y1="149.3" x2="80.4" y2="149.3"/>
<line class="st2" x1="80.4" y1="149.3" x2="80.4" y2="149.3"/>
<line class="st2" x1="80.4" y1="149.3" x2="80.4" y2="149.3"/>
<polyline class="st2" points="80.5,151.2 80.8,151.4 81.1,151.6 81.4,151.6 81.8,151.5 "/>
<line class="st2" x1="80.5" y1="149.3" x2="81.8" y2="149.3"/>
<line class="st2" x1="80.4" y1="149.3" x2="81.8" y2="149.3"/>
<line class="st2" x1="80.5" y1="149.1" x2="81.8" y2="149.1"/>
<polyline class="st2" points="80.5,151.2 80.8,151.4 81.1,151.6 81.4,151.6 81.8,151.5 "/>
<polyline class="st2" points="80.6,148.7 80.8,148.9 81.2,148.9 81.4,148.8 81.6,148.5 81.5,148.2 81.2,148 80.9,148 80.8,148 "/>
<line class="st2" x1="120" y1="54.6" x2="121.4" y2="54.6"/>
<line class="st2" x1="121.4" y1="55.7" x2="120" y2="55.7"/>
<polyline class="st2" points="110.4,55.8 110.5,55.5 110.5,55.2 110.2,54.9 109.9,54.8 109.6,54.9 109.4,55.2 109.3,55.5 
	109.4,55.8 109.4,55.8 "/>
<line class="st2" x1="120" y1="55.7" x2="120" y2="54.6"/>
<line class="st2" x1="117.6" y1="55.7" x2="117.6" y2="54.6"/>
<line class="st2" x1="117.6" y1="55.7" x2="114.4" y2="55.7"/>
<line class="st2" x1="115" y1="54.6" x2="117.6" y2="54.6"/>
<line class="st2" x1="114.4" y1="55.5" x2="114.4" y2="55.7"/>
<line class="st2" x1="120" y1="54.6" x2="120" y2="54.6"/>
<line class="st2" x1="120" y1="54.6" x2="122.8" y2="54.6"/>
<line class="st2" x1="122.8" y1="54.6" x2="122.8" y2="54.6"/>
<line class="st2" x1="122" y1="54.6" x2="122.8" y2="54.6"/>
<polyline class="st2" points="121.4,54.6 121.4,54.6 121.4,54.6 121.6,54.6 122,54.6 "/>
<line class="st2" x1="122.8" y1="55.7" x2="122" y2="55.7"/>
<line class="st2" x1="122.8" y1="54.6" x2="122.8" y2="55.7"/>
<polyline class="st2" points="121.4,55.7 121.4,55.7 121.4,55.7 121.6,55.7 122,55.7 "/>
<line class="st2" x1="122.8" y1="55.7" x2="122.8" y2="55.7"/>
<line class="st2" x1="120" y1="55.7" x2="122.8" y2="55.7"/>
<line class="st2" x1="120" y1="55.7" x2="120" y2="55.7"/>
<polyline class="st2" points="110.4,55.8 110.5,55.5 110.5,55.2 110.3,54.9 109.9,54.8 109.6,54.9 109.4,55.1 109.3,55.5 
	109.4,55.8 109.4,55.8 "/>
<line class="st2" x1="120" y1="55.7" x2="120" y2="54.6"/>
<line class="st2" x1="114.9" y1="54.6" x2="117.6" y2="54.6"/>
<line class="st2" x1="117.6" y1="54.6" x2="117.6" y2="54.6"/>
<line class="st2" x1="113.4" y1="55.3" x2="113.4" y2="55.7"/>
<polyline class="st2" points="114.4,55.7 114.4,55.7 114.4,55.7 114.4,55.7 114.3,55.7 114,55.7 113.4,55.7 "/>
<line class="st2" x1="114.4" y1="55.5" x2="114.4" y2="55.7"/>
<line class="st2" x1="114.4" y1="55.7" x2="114.4" y2="55.7"/>
<line class="st2" x1="117.6" y1="55.7" x2="117.6" y2="55.7"/>
<line class="st2" x1="113.4" y1="55.7" x2="117.6" y2="55.7"/>
<line class="st2" x1="117.6" y1="55.7" x2="117.6" y2="54.6"/>
<line class="st2" x1="122.8" y1="54.5" x2="122.8" y2="54.6"/>
<line class="st2" x1="122.8" y1="54.6" x2="122.8" y2="54.6"/>
<line class="st2" x1="109.1" y1="54.6" x2="110.7" y2="54.6"/>
<line class="st2" x1="109.1" y1="54.6" x2="109.1" y2="54.6"/>
<line class="st2" x1="122.8" y1="54.5" x2="122.8" y2="54.4"/>
<line class="st2" x1="122.8" y1="54.5" x2="122.8" y2="54.4"/>
<polyline class="st2" points="109.1,54.6 108.9,54.8 108.7,55.2 108.7,55.5 108.8,55.8 "/>
<line class="st2" x1="111" y1="54.6" x2="111" y2="55.8"/>
<line class="st2" x1="122.8" y1="54.6" x2="122.8" y2="55.8"/>
<line class="st2" x1="122.8" y1="55.8" x2="122.8" y2="55.7"/>
<line class="st2" x1="122.8" y1="54.6" x2="122.8" y2="54.4"/>
<line class="st2" x1="111" y1="54.7" x2="111" y2="55.8"/>
<line class="st2" x1="111.2" y1="54.7" x2="111.2" y2="55.8"/>
<polyline class="st2" points="109.1,54.6 108.8,54.8 108.7,55.2 108.7,55.5 108.8,55.8 "/>
<polyline class="st2" points="111.5,54.8 111.3,55 111.4,55.4 111.6,55.6 112,55.6 112.2,55.5 112.3,55.2 112.3,55 "/>
<line class="st2" x1="213.1" y1="57.8" x2="212.8" y2="57.7"/>
<line class="st2" x1="213.1" y1="57.8" x2="213.1" y2="57.8"/>
<line class="st2" x1="213.1" y1="57.8" x2="213.1" y2="57.8"/>
<line class="st2" x1="205.7" y1="55.1" x2="205.8" y2="53.2"/>
<line class="st2" x1="205.7" y1="53.7" x2="205.7" y2="53.7"/>
<line class="st2" x1="205.7" y1="53.9" x2="205.7" y2="53.9"/>
<line class="st2" x1="213.9" y1="52.4" x2="205.8" y2="53.2"/>
<line class="st2" x1="213.9" y1="55.1" x2="213.9" y2="57"/>
<line class="st2" x1="213.9" y1="53.2" x2="213.9" y2="55.1"/>
<line class="st2" x1="214.3" y1="55.1" x2="214.2" y2="57.8"/>
<line class="st2" x1="213.9" y1="57" x2="213.9" y2="57.8"/>
<line class="st2" x1="214.3" y1="55.1" x2="214.2" y2="52.4"/>
<line class="st2" x1="213.9" y1="52.4" x2="213.9" y2="53.2"/>
<line class="st2" x1="205.7" y1="56.5" x2="205.7" y2="56.5"/>
<line class="st2" x1="205.7" y1="56.4" x2="205.7" y2="56.4"/>
<line class="st2" x1="214.2" y1="57.4" x2="214.2" y2="57.4"/>
<line class="st2" x1="205.7" y1="55.1" x2="205.8" y2="57.1"/>
<line class="st2" x1="213.9" y1="57.8" x2="213.1" y2="57.8"/>
<line class="st2" x1="212.2" y1="57.7" x2="205.8" y2="57.1"/>
<line class="st2" x1="214.2" y1="57.8" x2="213.9" y2="57.8"/>
<line class="st2" x1="214.2" y1="52.4" x2="213.9" y2="52.4"/>
<line class="st2" x1="214.2" y1="52.9" x2="214.3" y2="52.9"/>
<line class="st2" x1="214.2" y1="57.4" x2="214.3" y2="57.4"/>
<line class="st2" x1="214.3" y1="57.4" x2="214.3" y2="52.9"/>
<polyline class="st2" points="214.9,56 215,55.7 215,55.3 215,55.1 "/>
<line class="st2" x1="215" y1="55.1" x2="215.7" y2="55.1"/>
<line class="st2" x1="214.9" y1="56" x2="215.7" y2="56"/>
<line class="st2" x1="214.9" y1="54.3" x2="215.7" y2="54.3"/>
<line class="st2" x1="215" y1="54.1" x2="215.7" y2="54.1"/>
<polyline class="st2" points="214.9,54.3 214.9,54.2 214.9,54.2 214.9,54.2 214.9,54.1 215,54.1 215,54.1 "/>
<line class="st2" x1="214.9" y1="54" x2="215" y2="54.1"/>
<line class="st2" x1="214.8" y1="54.3" x2="214.9" y2="54.3"/>
<polyline class="st2" points="214.8,54.3 214.8,54.2 214.8,54.1 214.8,54 214.8,54 214.8,54 214.9,54 214.9,54 "/>
<line class="st2" x1="215" y1="55.1" x2="214.9" y2="55.1"/>
<line class="st2" x1="214.9" y1="56" x2="214.8" y2="56"/>
<polyline class="st2" points="214.8,56 214.9,55.6 214.9,55.3 214.9,55.1 "/>
<line class="st2" x1="214.5" y1="52.4" x2="214.5" y2="55.1"/>
<line class="st2" x1="214.3" y1="55.1" x2="214.4" y2="52.4"/>
<polyline class="st2" points="215.4,54 215.2,54 215,54 214.9,54 "/>
<line class="st2" x1="214.3" y1="55.1" x2="214.4" y2="57.8"/>
<line class="st2" x1="215" y1="56.2" x2="215.7" y2="56.1"/>
<polyline class="st2" points="214.9,56 214.9,56 214.9,56.1 214.9,56.1 214.9,56.1 215,56.2 215,56.2 "/>
<polyline class="st2" points="215.4,56.2 215.2,56.2 215,56.3 214.9,56.3 "/>
<line class="st2" x1="215" y1="56.2" x2="214.9" y2="56.3"/>
<polyline class="st2" points="214.8,56 214.8,56.1 214.8,56.2 214.8,56.2 214.8,56.3 214.8,56.3 214.9,56.3 214.9,56.3 "/>
<line class="st2" x1="214.5" y1="57.8" x2="214.5" y2="55.1"/>
<polyline class="st2" points="214.9,55.1 214.9,54.8 214.8,54.4 214.8,54.3 "/>
<polyline class="st2" points="215,55.1 215,54.8 215,54.4 214.9,54.3 "/>
<line class="st2" x1="214.5" y1="52.4" x2="214.4" y2="52.4"/>
<line class="st2" x1="215.4" y1="54" x2="215.5" y2="54.1"/>
<line class="st2" x1="214.4" y1="53.5" x2="214.3" y2="53.5"/>
<line class="st2" x1="214.3" y1="56.8" x2="214.4" y2="56.8"/>
<line class="st2" x1="215.5" y1="56.1" x2="215.4" y2="56.2"/>
<line class="st2" x1="214.4" y1="57.8" x2="214.5" y2="57.8"/>
<line class="st2" x1="215.4" y1="56.2" x2="214.5" y2="57.8"/>
<line class="st2" x1="215.4" y1="54" x2="214.5" y2="52.4"/>
<line class="st2" x1="215.8" y1="53.3" x2="215.8" y2="53.2"/>
<polyline class="st2" points="215.8,53.3 215.8,53.3 215.8,53.3 216.3,53.3 "/>
<line class="st2" x1="221.3" y1="51.8" x2="221.4" y2="51.8"/>
<line class="st2" x1="215.7" y1="53.4" x2="215.7" y2="53.4"/>
<line class="st2" x1="215.8" y1="53.3" x2="215.7" y2="53.4"/>
<line class="st2" x1="215.7" y1="53.4" x2="215.7" y2="57.1"/>
<line class="st2" x1="217.4" y1="57.1" x2="215.7" y2="57.1"/>
<line class="st2" x1="243.6" y1="57.1" x2="217.4" y2="57.1"/>
<line class="st2" x1="245.4" y1="57.1" x2="243.6" y2="57.1"/>
<polyline class="st2" points="215.7,53.4 215.7,53.4 215.7,53.4 215.7,53.4 215.8,53.4 216.2,53.4 "/>
<line class="st2" x1="221.4" y1="51.8" x2="222.6" y2="51.8"/>
<line class="st2" x1="230.5" y1="51.8" x2="222.6" y2="51.8"/>
<polyline class="st2" points="217.4,53.3 217.8,53.3 219.2,53.2 224.4,53.2 230.5,53.2 "/>
<polyline class="st2" points="216.3,53.3 216.6,53.3 217,53.3 217.4,53.3 217.4,53.3 "/>
<polyline class="st2" points="229.1,51.8 228.7,51.8 228.4,51.8 228,51.8 227.7,51.8 227.3,51.8 227,51.8 226.6,51.8 226.3,51.8 
	225.9,51.8 225.6,51.8 225.2,51.8 224.9,51.8 224.5,51.8 224.2,51.8 223.8,51.8 223.5,51.8 223.1,51.8 222.8,51.8 222.4,51.8 
	222.1,51.8 221.7,51.8 221.4,51.8 221,51.8 220.9,51.8 "/>
<line class="st2" x1="229.5" y1="51.8" x2="230.5" y2="51.8"/>
<line class="st2" x1="229.5" y1="51.8" x2="229.1" y2="51.8"/>
<line class="st2" x1="217.4" y1="53.4" x2="217.4" y2="57.1"/>
<polyline class="st2" points="216.2,53.4 216.6,53.4 216.9,53.4 217.3,53.4 217.4,53.4 "/>
<polyline class="st2" points="217.4,53.4 217.6,53.4 221.9,53.4 228.2,53.4 230.5,53.4 "/>
<polyline class="st2" points="230.5,53.4 232.6,53.4 239,53.4 243.4,53.4 243.6,53.4 "/>
<line class="st2" x1="243.6" y1="53.4" x2="243.6" y2="57.1"/>
<line class="st2" x1="245.3" y1="53.4" x2="245.4" y2="57.1"/>
<polyline class="st2" points="243.6,53.4 243.9,53.4 244.3,53.4 244.6,53.4 244.8,53.4 "/>
<polyline class="st2" points="244.8,53.4 245.2,53.4 245.3,53.4 245.3,53.4 "/>
<line class="st2" x1="245.3" y1="53.4" x2="245.3" y2="53.4"/>
<line class="st2" x1="229.5" y1="51.8" x2="230.5" y2="51.8"/>
<line class="st2" x1="231.6" y1="51.8" x2="230.5" y2="51.8"/>
<line class="st2" x1="231.6" y1="51.8" x2="231.9" y2="51.8"/>
<line class="st2" x1="231.6" y1="51.8" x2="230.5" y2="51.8"/>
<line class="st2" x1="217.4" y1="53.4" x2="217.4" y2="53.3"/>
<polyline class="st2" points="243.6,53.3 243.9,53.3 244.3,53.3 244.6,53.3 244.7,53.3 "/>
<polyline class="st2" points="230.5,53.2 236.4,53.2 242.3,53.2 243.3,53.3 243.6,53.3 "/>
<line class="st2" x1="238.4" y1="51.8" x2="230.5" y2="51.8"/>
<line class="st2" x1="238.4" y1="51.8" x2="239.6" y2="51.8"/>
<line class="st2" x1="239.6" y1="51.8" x2="239.7" y2="51.8"/>
<polyline class="st2" points="240.1,51.8 239.8,51.8 239.4,51.8 239.1,51.8 238.7,51.8 238.4,51.8 238,51.8 237.7,51.8 237.3,51.8 
	237,51.8 236.6,51.8 236.3,51.8 235.9,51.8 235.6,51.8 235.2,51.8 234.9,51.8 234.5,51.8 234.2,51.8 233.8,51.8 233.5,51.8 
	233.1,51.8 232.8,51.8 232.4,51.8 232.1,51.8 231.9,51.8 "/>
<line class="st2" x1="243.6" y1="53.4" x2="243.6" y2="53.3"/>
<line class="st2" x1="245.3" y1="53.4" x2="245.2" y2="53.3"/>
<polyline class="st2" points="244.7,53.3 245.2,53.3 245.2,53.3 "/>
<line class="st2" x1="245.2" y1="53.2" x2="245.2" y2="53.3"/>
<line class="st2" x1="221.3" y1="51.8" x2="220.9" y2="51.8"/>
<polyline class="st2" points="220.9,51.8 220.6,51.8 220.1,51.9 219.8,51.9 219.3,52 218.8,52 218.3,52.1 217.9,52.3 217.4,52.4 
	217.2,52.5 217,52.6 216.8,52.7 216.5,52.8 216.3,53 216.1,53.1 215.8,53.2 "/>
<line class="st2" x1="215.8" y1="53.2" x2="215.7" y2="53.4"/>
<polyline class="st2" points="221.3,51.8 220.8,51.8 220.3,51.8 220.1,51.9 219.8,51.9 219.6,51.9 219.3,52 219,52 218.6,52.1 
	218.3,52.1 218,52.2 "/>
<line class="st2" x1="219.8" y1="51.9" x2="219.8" y2="51.9"/>
<line class="st2" x1="216.3" y1="53" x2="216.3" y2="53"/>
<line class="st2" x1="245.3" y1="53.4" x2="245.2" y2="53.2"/>
<polyline class="st2" points="245.2,53.2 244.8,53 244.4,52.8 244.1,52.6 243.7,52.5 243.3,52.3 242.9,52.2 242.5,52.1 242,52 
	241.8,52 241.5,51.9 241.2,51.9 240.9,51.9 240.4,51.8 240,51.8 "/>
<line class="st2" x1="240.1" y1="51.8" x2="239.7" y2="51.8"/>
<polyline class="st2" points="245.3,53.3 245.3,53.3 245.1,53.2 244.8,53 244.4,52.8 244,52.6 243.6,52.5 243.3,52.3 "/>
<line class="st2" x1="239.7" y1="51.8" x2="239.7" y2="51.8"/>
<line class="st2" x1="212.7" y1="57.8" x2="213.1" y2="57.8"/>
<line class="st2" x1="212.3" y1="57.8" x2="212.7" y2="57.8"/>
<line class="st2" x1="212.3" y1="57.8" x2="212.2" y2="57.7"/>
<rect x="80.8" y="44.6" class="st3" width="0.5" height="0.5"/>
<line class="st0" x1="79.3" y1="211.9" x2="82.8" y2="211.9"/>
<g>
	<path d="M49.8,156.3v-1.6h1.1v1.6h2.7v1.1h-2.7v4.9h-1.3l-7.3-4.6v-1.5L49.8,156.3z M43.3,157.5L43.3,157.5l6.4,3.9v-3.9
		L43.3,157.5z"/>
	<path d="M47.5,151.1c-0.1,0.2-0.2,0.5-0.4,0.7c-0.2,0.2-0.4,0.4-0.6,0.5c-0.5,0.3-1,0.5-1.6,0.5c-0.4,0-0.8-0.1-1.2-0.2
		c-0.4-0.2-0.7-0.4-0.9-0.7c-0.3-0.3-0.5-0.6-0.6-1c-0.3-0.8-0.3-1.6,0-2.4c0.1-0.4,0.3-0.7,0.6-1c0.3-0.3,0.6-0.5,0.9-0.7
		c0.9-0.4,2-0.3,2.8,0.2c0.2,0.1,0.4,0.3,0.6,0.5c0.2,0.2,0.3,0.4,0.4,0.7l0,0c0.1-0.6,0.5-1.2,1-1.5c0.6-0.4,1.2-0.6,1.9-0.6
		c0.5,0,0.9,0.1,1.3,0.3c0.4,0.2,0.7,0.5,1,0.8c0.3,0.3,0.5,0.7,0.6,1.1c0.3,0.9,0.3,1.8,0,2.7c-0.1,0.4-0.4,0.8-0.6,1.1
		c-0.3,0.3-0.6,0.6-1,0.8c-0.4,0.2-0.9,0.3-1.3,0.3c-0.7,0-1.4-0.2-1.9-0.6C48,152.3,47.6,151.7,47.5,151.1L47.5,151.1z M45,147.6
		c-0.3,0-0.5,0-0.8,0.1c-0.2,0.1-0.4,0.2-0.6,0.4c-0.2,0.2-0.3,0.4-0.4,0.6c-0.1,0.3-0.2,0.5-0.2,0.8c0,0.3,0,0.5,0.2,0.8
		c0.1,0.2,0.2,0.5,0.4,0.6c0.2,0.2,0.4,0.3,0.6,0.4c0.3,0.1,0.5,0.2,0.8,0.1c0.3,0,0.5,0,0.8-0.1c0.2-0.1,0.5-0.2,0.6-0.4
		c0.2-0.2,0.3-0.4,0.4-0.6c0.1-0.3,0.2-0.5,0.2-0.8c0-0.3,0-0.5-0.2-0.8c-0.1-0.2-0.2-0.5-0.4-0.6c-0.2-0.2-0.4-0.3-0.6-0.4
		C45.6,147.7,45.3,147.6,45,147.6z M50.3,147.2c-0.3,0-0.6,0.1-0.9,0.2c-0.3,0.1-0.5,0.3-0.7,0.5c-0.2,0.2-0.4,0.5-0.5,0.8
		c-0.1,0.3-0.2,0.7-0.2,1c0,0.3,0.1,0.7,0.2,1c0.1,0.3,0.3,0.5,0.5,0.8c0.2,0.2,0.5,0.4,0.7,0.5c0.3,0.1,0.6,0.2,0.9,0.2
		c0.3,0,0.6-0.1,0.9-0.2c0.6-0.2,1-0.7,1.2-1.2c0.1-0.3,0.2-0.7,0.2-1c0-0.3-0.1-0.7-0.2-1c-0.1-0.3-0.3-0.5-0.5-0.8
		c-0.2-0.2-0.5-0.4-0.7-0.5C51,147.3,50.6,147.2,50.3,147.2z"/>
	<path d="M42,140.7c0-0.7,0.2-1.4,0.6-2c0.4-0.5,0.9-0.9,1.4-1.1c0.6-0.3,1.2-0.5,1.9-0.6c0.7-0.1,1.3-0.1,2-0.1c0.7,0,1.3,0,2,0.1
		c0.7,0.1,1.3,0.3,1.9,0.6c0.6,0.3,1.1,0.7,1.4,1.2c0.7,1.2,0.7,2.7,0,3.9c-0.4,0.5-0.9,0.9-1.4,1.2c-0.6,0.3-1.2,0.5-1.9,0.6
		c-0.7,0.1-1.3,0.1-2,0.1c-0.7,0-1.3-0.1-2-0.1c-0.7-0.1-1.3-0.3-1.9-0.6c-0.6-0.3-1.1-0.7-1.4-1.2C42.2,142.1,42,141.4,42,140.7z
		 M43,140.7c0,0.5,0.1,1.1,0.5,1.5c0.3,0.4,0.8,0.6,1.2,0.8c0.5,0.2,1,0.3,1.6,0.3c0.5,0.1,1,0.1,1.5,0.1s1,0,1.5-0.1
		c0.5,0,1.1-0.2,1.6-0.3c0.5-0.2,0.9-0.4,1.2-0.8c0.4-0.4,0.5-0.9,0.5-1.5c0-0.5-0.1-1.1-0.5-1.5c-0.3-0.4-0.8-0.6-1.2-0.8
		c-0.5-0.2-1-0.3-1.6-0.4c-0.6-0.1-1.1-0.1-1.5-0.1s-1,0-1.5,0.1c-0.5,0-1.1,0.2-1.6,0.4c-0.5,0.2-0.9,0.4-1.2,0.8
		C43.2,139.7,43,140.2,43,140.7L43,140.7z"/>
	<path d="M47.7,130.7h-0.8l-0.8,0.1v-1.1h1.1l0,0c-0.4-0.2-0.8-0.6-1-1.1c-0.2-0.4-0.3-0.9-0.3-1.3c0-0.2,0-0.4,0.1-0.7
		c0-0.2,0.1-0.5,0.2-0.7c0.1-0.2,0.3-0.4,0.5-0.6c0.2-0.2,0.5-0.4,0.8-0.5c-0.5-0.2-0.9-0.6-1.1-1c-0.3-0.4-0.4-0.9-0.4-1.4
		c-0.1-0.8,0.2-1.6,0.8-2.1c0.6-0.5,1.4-0.7,2.2-0.7h4.8v1.1h-4.4c-0.6,0-1.2,0.1-1.8,0.4c-0.4,0.4-0.7,0.9-0.6,1.5
		c0,0.7,0.3,1.3,0.8,1.6c0.3,0.2,0.6,0.3,0.9,0.4c0.3,0.1,0.7,0.1,1,0.1h4v1h-4.4c-0.6,0-1.2,0.1-1.8,0.4c-0.4,0.4-0.7,0.9-0.6,1.5
		c0,0.1,0,0.3,0.1,0.4c0.1,0.3,0.2,0.5,0.3,0.7c0.2,0.3,0.5,0.5,0.9,0.7c0.5,0.2,1.1,0.3,1.6,0.3h3.8v1.1L47.7,130.7z"/>
	<path d="M47.7,117.1h-0.8l-0.8,0.1V116h1.1l0,0c-0.4-0.2-0.8-0.6-1-1.1c-0.2-0.4-0.3-0.9-0.3-1.3c0-0.2,0-0.4,0.1-0.7
		c0-0.2,0.1-0.5,0.2-0.7c0.1-0.2,0.3-0.4,0.5-0.6c0.2-0.2,0.5-0.4,0.8-0.5c-0.5-0.2-0.9-0.6-1.1-1c-0.3-0.4-0.4-0.9-0.4-1.4
		c-0.1-0.8,0.2-1.6,0.8-2.1c0.6-0.5,1.4-0.7,2.2-0.7h4.8v1.1h-4.4c-0.6,0-1.2,0.1-1.8,0.4c-0.4,0.4-0.7,0.9-0.6,1.5
		c0,0.3,0.1,0.7,0.2,1c0.2,0.3,0.4,0.5,0.6,0.7c0.3,0.2,0.6,0.3,0.9,0.3c0.3,0.1,0.7,0.1,1,0.1h4v1h-4.4c-0.6,0-1.2,0.1-1.8,0.4
		c-0.4,0.4-0.7,0.9-0.6,1.5c0,0.1,0,0.3,0.1,0.4c0.1,0.3,0.2,0.5,0.3,0.7c0.2,0.3,0.5,0.5,0.9,0.7c0.5,0.2,1.1,0.3,1.6,0.3h3.8v1.1
		L47.7,117.1z"/>
</g>
<line class="st1" x1="216.7" y1="65.3" x2="244.7" y2="65.3"/>
<line class="st1" x1="216.7" y1="63.9" x2="216.7" y2="66.7"/>
<line class="st1" x1="244.7" y1="63.9" x2="244.7" y2="66.7"/>
<g>
	<path d="M204.9,85.5h-1.2v-9.9l-2.1,1.8l-0.8-0.9l3-2.4h1.1L204.9,85.5z"/>
	<path d="M213,73.9c0.7,0,1.4,0.2,2,0.6c0.5,0.4,0.9,0.9,1.2,1.4c0.3,0.6,0.5,1.2,0.6,1.9c0.1,0.7,0.1,1.3,0.1,2
		c0,0.7-0.1,1.3-0.1,2c-0.1,0.7-0.3,1.3-0.6,1.9c-0.3,0.6-0.7,1.1-1.2,1.4c-1.3,0.7-2.8,0.7-4.1,0c-0.5-0.4-0.9-0.9-1.2-1.4
		c-0.3-0.6-0.5-1.2-0.6-1.9c-0.1-0.7-0.1-1.3-0.1-2c0-0.7,0.1-1.3,0.1-2c0.1-0.7,0.3-1.3,0.6-1.9c0.3-0.6,0.8-1.1,1.3-1.4
		C211.6,74.1,212.3,73.9,213,73.9z M213,74.9c-0.6,0-1.1,0.1-1.5,0.5c-0.4,0.3-0.7,0.8-0.8,1.2c-0.2,0.5-0.3,1-0.4,1.6
		c0,0.6-0.1,1-0.1,1.5s0,0.9,0.1,1.5c0,0.5,0.2,1.1,0.4,1.6c0.2,0.5,0.5,0.9,0.8,1.2c0.4,0.4,1,0.5,1.5,0.5c0.6,0,1.1-0.1,1.5-0.5
		c0.4-0.3,0.7-0.8,0.8-1.2c0.2-0.5,0.3-1,0.4-1.6c0.1-0.6,0.1-1.1,0.1-1.5s0-1-0.1-1.5c0-0.5-0.2-1.1-0.4-1.6
		c-0.2-0.5-0.5-0.9-0.8-1.2C214.1,75.1,213.5,75,213,74.9L213,74.9z"/>
	<path d="M222.2,73.9c0.7,0,1.4,0.2,2,0.6c0.5,0.4,0.9,0.9,1.2,1.4c0.3,0.6,0.5,1.2,0.6,1.9c0.1,0.7,0.1,1.3,0.1,2
		c0,0.7-0.1,1.3-0.1,2c-0.1,0.7-0.3,1.3-0.6,1.9c-0.3,0.6-0.7,1.1-1.2,1.4c-0.6,0.4-1.3,0.6-2,0.6c-0.7,0-1.4-0.2-2-0.6
		c-0.5-0.4-1-0.9-1.2-1.5c-0.3-0.6-0.5-1.2-0.6-1.9c-0.1-0.7-0.1-1.3-0.1-2c0-0.7,0.1-1.3,0.1-2c0.1-0.7,0.3-1.3,0.6-1.9
		c0.3-0.6,0.7-1.1,1.2-1.4C220.8,74.1,221.5,73.9,222.2,73.9z M222.2,74.9c-0.6,0-1.1,0.1-1.5,0.5c-0.4,0.3-0.7,0.8-0.8,1.2
		c-0.2,0.5-0.3,1-0.4,1.6c-0.1,0.6-0.1,1-0.1,1.5s0,0.9,0.1,1.5c0,0.5,0.2,1.1,0.4,1.6c0.2,0.5,0.5,0.9,0.8,1.2c0.9,0.6,2.1,0.6,3,0
		c0.4-0.3,0.7-0.8,0.8-1.2c0.2-0.5,0.3-1,0.4-1.6c0-0.6,0.1-1.1,0.1-1.5s0-1-0.1-1.5c0-0.5-0.2-1.1-0.4-1.6
		c-0.2-0.5-0.5-0.9-0.8-1.2C223.3,75.1,222.8,75,222.2,74.9L222.2,74.9z"/>
	<path d="M232.7,79.6c0-0.3,0-0.6,0-0.8l-0.1-0.8h1.2v1.1l0,0c0.3-0.4,0.7-0.8,1.1-1c0.4-0.2,0.9-0.3,1.4-0.3c0.2,0,0.4,0,0.7,0.1
		c0.2,0,0.5,0.1,0.7,0.2c0.2,0.1,0.4,0.3,0.6,0.5c0.2,0.2,0.4,0.5,0.5,0.8c0.2-0.5,0.6-0.9,1.1-1.1c0.5-0.3,1-0.4,1.5-0.4
		c0.8-0.1,1.6,0.2,2.2,0.8c0.5,0.6,0.8,1.4,0.7,2.2v4.8h-1.1v-4.4c0-0.6-0.1-1.2-0.4-1.8c-0.4-0.4-1-0.7-1.6-0.6
		c-0.3,0-0.7,0.1-1,0.2c-0.3,0.1-0.5,0.4-0.7,0.6c-0.2,0.3-0.3,0.6-0.4,0.9c-0.1,0.3-0.1,0.7-0.1,1v4h-1.1v-4.4
		c0-0.6-0.1-1.2-0.4-1.8c-0.4-0.4-1-0.7-1.6-0.6l-0.4,0.1c-0.3,0.1-0.5,0.2-0.7,0.3c-0.3,0.2-0.5,0.5-0.7,0.9
		c-0.2,0.5-0.3,1.1-0.3,1.6v3.8h-1.1L232.7,79.6z"/>
	<path d="M246.8,79.6c0-0.3,0-0.6,0-0.8s0-0.6-0.1-0.8h1.2v1.1l0,0c0.3-0.4,0.6-0.8,1.1-1c0.4-0.2,0.9-0.3,1.4-0.3
		c0.2,0,0.5,0,0.7,0.1c0.2,0,0.5,0.1,0.7,0.2c0.2,0.1,0.4,0.3,0.6,0.5c0.2,0.2,0.4,0.5,0.5,0.8c0.2-0.5,0.6-0.9,1.1-1.1
		c0.5-0.3,1-0.4,1.5-0.4c0.8-0.1,1.6,0.2,2.2,0.8c0.5,0.6,0.8,1.4,0.7,2.2v4.8h-1.1v-4.4c0-0.6-0.1-1.2-0.4-1.8
		c-0.4-0.4-1-0.7-1.5-0.6c-0.3,0-0.7,0.1-1,0.2c-0.3,0.1-0.5,0.4-0.7,0.6c-0.2,0.3-0.3,0.6-0.4,0.9c-0.1,0.3-0.1,0.7-0.1,1v4h-1.1
		v-4.4c0-0.6-0.1-1.2-0.4-1.8c-0.4-0.4-1-0.7-1.5-0.6l-0.5,0.1c-0.3,0.1-0.5,0.2-0.7,0.3c-0.3,0.2-0.5,0.5-0.7,0.9
		c-0.2,0.5-0.3,1.1-0.3,1.6v3.8h-1.1L246.8,79.6z"/>
</g>
</svg>
