<svg id="Kelvin_Led_Base" xmlns="http://www.w3.org/2000/svg" viewBox="0 0 300 263"><defs><style>.cls-1,.cls-3{fill:none;stroke-width:0.5px;}.cls-1{stroke:#000;}.cls-2{isolation:isolate;}.cls-3{stroke:#000100;stroke-miterlimit:2;}.cls-4{fill:#000100;}</style></defs><title>kelvin-led-base-citterio-flos-F3311057-spech-tech-02-300x263</title><line class="cls-1" x1="44.87" y1="216.69" x2="44.87" y2="47.05"/><line class="cls-1" x1="43.17" y1="216.69" x2="46.57" y2="216.69"/><line class="cls-1" x1="43.17" y1="47.05" x2="46.57" y2="47.05"/><line class="cls-1" x1="216.66" y1="65.28" x2="244.66" y2="65.28"/><line class="cls-1" x1="216.66" y1="63.89" x2="216.66" y2="66.68"/><line class="cls-1" x1="244.66" y1="63.89" x2="244.66" y2="66.68"/><g class="cls-2"><path d="M204.93,85.46h-1.19V75.57l-2.11,1.79-.75-.86,3-2.37h1.06Z"/><path d="M213,73.94a3.37,3.37,0,0,1,2,.56,3.79,3.79,0,0,1,1.21,1.42,6.19,6.19,0,0,1,.58,1.9,13.58,13.58,0,0,1,.15,2,13.82,13.82,0,0,1-.15,2,6,6,0,0,1-.58,1.89,3.9,3.9,0,0,1-1.21,1.43,4,4,0,0,1-4.09,0,3.9,3.9,0,0,1-1.21-1.43,6,6,0,0,1-.58-1.89,13.82,13.82,0,0,1-.15-2,13.58,13.58,0,0,1,.15-2,6.19,6.19,0,0,1,.58-1.9A3.79,3.79,0,0,1,211,74.5,3.39,3.39,0,0,1,213,73.94Zm0,1a2.19,2.19,0,0,0-1.52.5,2.94,2.94,0,0,0-.84,1.23,5.71,5.71,0,0,0-.36,1.57c0,.55-.08,1-.08,1.5s0,.95.08,1.5a5.71,5.71,0,0,0,.36,1.57,2.94,2.94,0,0,0,.84,1.23,2.15,2.15,0,0,0,1.52.5,2.18,2.18,0,0,0,1.52-.5,3,3,0,0,0,.83-1.23,5.71,5.71,0,0,0,.36-1.57c.05-.55.08-1.05.08-1.5s0-1-.08-1.5a5.71,5.71,0,0,0-.36-1.57,3,3,0,0,0-.83-1.23A2.23,2.23,0,0,0,213,75Z"/><path d="M222.24,73.94a3.43,3.43,0,0,1,2,.56,3.79,3.79,0,0,1,1.21,1.42,6.19,6.19,0,0,1,.58,1.9,13.58,13.58,0,0,1,.15,2,13.82,13.82,0,0,1-.15,2,6,6,0,0,1-.58,1.89,3.9,3.9,0,0,1-1.21,1.43,3.5,3.5,0,0,1-2,.56,3.44,3.44,0,0,1-2-.56A3.8,3.8,0,0,1,219,83.66a6.06,6.06,0,0,1-.59-1.89,13.82,13.82,0,0,1-.15-2,13.58,13.58,0,0,1,.15-2,6.2,6.2,0,0,1,.59-1.9,3.7,3.7,0,0,1,1.21-1.42A3.37,3.37,0,0,1,222.24,73.94Zm0,1a2.21,2.21,0,0,0-1.52.5,3.14,3.14,0,0,0-.84,1.23,5.71,5.71,0,0,0-.35,1.57c-.05.55-.08,1-.08,1.5s0,.95.08,1.5a5.71,5.71,0,0,0,.35,1.57,3.14,3.14,0,0,0,.84,1.23,2.56,2.56,0,0,0,3,0,3.14,3.14,0,0,0,.84-1.23,5.71,5.71,0,0,0,.36-1.57c0-.55.07-1.05.07-1.5s0-1-.07-1.5a5.71,5.71,0,0,0-.36-1.57,3.14,3.14,0,0,0-.84-1.23A2.21,2.21,0,0,0,222.24,75Z"/><path d="M232.67,79.63c0-.28,0-.55,0-.83l-.06-.83h1.18V79.1h0a2.6,2.6,0,0,1,1.11-1,3.29,3.29,0,0,1,1.4-.33,4,4,0,0,1,.67.06,2.44,2.44,0,0,1,.69.23,2.3,2.3,0,0,1,.63.47,2.88,2.88,0,0,1,.49.79,2.51,2.51,0,0,1,1.05-1.14,3,3,0,0,1,1.51-.41,2.86,2.86,0,0,1,2.2.76,3,3,0,0,1,.72,2.16v4.76h-1.1V81.09a3.17,3.17,0,0,0-.41-1.75,1.76,1.76,0,0,0-1.55-.6,2,2,0,0,0-1,.23,2,2,0,0,0-.67.61,2.57,2.57,0,0,0-.37.88,4.17,4.17,0,0,0-.12,1v4h-1.1V81.09a3.08,3.08,0,0,0-.41-1.75,1.76,1.76,0,0,0-1.55-.6l-.45.06a1.72,1.72,0,0,0-.74.35,2.46,2.46,0,0,0-.69.86,3.41,3.41,0,0,0-.31,1.61v3.84h-1.1Z"/><path d="M246.83,79.63c0-.28,0-.55,0-.83s0-.56-.06-.83h1.18V79.1h0a2.52,2.52,0,0,1,1.1-1,3.29,3.29,0,0,1,1.4-.33,4.08,4.08,0,0,1,.68.06,2.44,2.44,0,0,1,.69.23,2.26,2.26,0,0,1,.62.47,2.66,2.66,0,0,1,.49.79A2.48,2.48,0,0,1,254,78.19a2.92,2.92,0,0,1,1.5-.41,2.89,2.89,0,0,1,2.21.76,3,3,0,0,1,.71,2.16v4.76h-1.09V81.09a3.08,3.08,0,0,0-.42-1.75,1.75,1.75,0,0,0-1.54-.6,2,2,0,0,0-1,.23,1.91,1.91,0,0,0-.68.61,2.78,2.78,0,0,0-.37.88,4.17,4.17,0,0,0-.12,1v4h-1.09V81.09a3.08,3.08,0,0,0-.42-1.75,1.75,1.75,0,0,0-1.54-.6l-.46.06a1.77,1.77,0,0,0-.74.35,2.71,2.71,0,0,0-.69.86,3.54,3.54,0,0,0-.31,1.61v3.84h-1.09Z"/></g><g class="cls-2"><path d="M32.89,154.41v-1.63H34v1.63h2.69v1.15H34v4.9H32.64l-7.33-4.58v-1.47Zm-6.43,1.15v0l6.43,3.9v-3.94Z"/><path d="M30.61,149.2a2.41,2.41,0,0,1-.38.68,2.93,2.93,0,0,1-.58.53,2.79,2.79,0,0,1-.74.35,2.57,2.57,0,0,1-.83.13,2.91,2.91,0,0,1-1.23-.25,2.79,2.79,0,0,1-.93-.69,2.92,2.92,0,0,1-.59-1,3.62,3.62,0,0,1,0-2.43,2.83,2.83,0,0,1,.59-1,2.79,2.79,0,0,1,.93-.69,2.91,2.91,0,0,1,1.23-.25,2.87,2.87,0,0,1,.83.12,3.17,3.17,0,0,1,.74.36,2.65,2.65,0,0,1,.58.53,2.41,2.41,0,0,1,.38.68h0a2.67,2.67,0,0,1,1.05-1.53,3.19,3.19,0,0,1,1.92-.58,2.89,2.89,0,0,1,1.33.3,3.12,3.12,0,0,1,1,.78,3.46,3.46,0,0,1,.65,1.14,4.34,4.34,0,0,1,0,2.73,3.56,3.56,0,0,1-.65,1.14,3.42,3.42,0,0,1-1,.78,2.89,2.89,0,0,1-1.33.3,3.19,3.19,0,0,1-1.92-.58,2.67,2.67,0,0,1-1.05-1.53Zm-2.44-3.49a2.15,2.15,0,0,0-.8.15,1.93,1.93,0,0,0-.63.42,2.26,2.26,0,0,0-.41.64,2,2,0,0,0-.16.8,1.91,1.91,0,0,0,.16.8,2,2,0,0,0,.41.64,1.81,1.81,0,0,0,.63.43,2.15,2.15,0,0,0,.8.15,2.07,2.07,0,0,0,.8-.15,1.76,1.76,0,0,0,.64-.43,2,2,0,0,0,.41-.64,2.07,2.07,0,0,0,.15-.8,2.15,2.15,0,0,0-.15-.8,2.26,2.26,0,0,0-.41-.64,1.87,1.87,0,0,0-.64-.42A2.07,2.07,0,0,0,28.17,145.71Zm5.28-.42a2.36,2.36,0,0,0-.92.18,2.29,2.29,0,0,0-.73.49,2.12,2.12,0,0,0-.49.76,2.73,2.73,0,0,0-.18,1,2.67,2.67,0,0,0,.18,1,2.21,2.21,0,0,0,.49.76,2.29,2.29,0,0,0,.73.49,2.36,2.36,0,0,0,.92.18,2.32,2.32,0,0,0,.92-.18,2.18,2.18,0,0,0,1.23-1.25,2.89,2.89,0,0,0,.17-1,3,3,0,0,0-.17-1,2.12,2.12,0,0,0-.49-.76,2.22,2.22,0,0,0-.74-.49A2.32,2.32,0,0,0,33.45,145.29Z"/><path d="M25.12,138.83a3.17,3.17,0,0,1,.56-2,3.86,3.86,0,0,1,1.42-1.17,6.77,6.77,0,0,1,1.9-.56,14,14,0,0,1,4,0,6.77,6.77,0,0,1,1.9.56,3.86,3.86,0,0,1,1.42,1.17,3.75,3.75,0,0,1,0,3.94A3.74,3.74,0,0,1,34.85,142a6.17,6.17,0,0,1-1.9.56,13.08,13.08,0,0,1-4,0,6.17,6.17,0,0,1-1.9-.56,3.74,3.74,0,0,1-1.42-1.16A3.19,3.19,0,0,1,25.12,138.83Zm1.05,0a2.05,2.05,0,0,0,.5,1.46,3.08,3.08,0,0,0,1.23.81,5.78,5.78,0,0,0,1.57.34c.55.05,1.06.08,1.5.08s1,0,1.51-.08a5.78,5.78,0,0,0,1.57-.34,3.08,3.08,0,0,0,1.23-.81,2,2,0,0,0,.49-1.46,2.09,2.09,0,0,0-.49-1.47,3.17,3.17,0,0,0-1.23-.8,5.79,5.79,0,0,0-1.57-.35c-.56-.05-1.06-.07-1.51-.07s-.95,0-1.5.07a5.79,5.79,0,0,0-1.57.35,3.17,3.17,0,0,0-1.23.8A2.09,2.09,0,0,0,26.17,138.83Z"/><path d="M30.81,128.78l-.83,0-.83.06v-1.14h1.14v0a2.5,2.5,0,0,1-1-1.06,3.08,3.08,0,0,1-.33-1.35,3.74,3.74,0,0,1,.06-.65,2.42,2.42,0,0,1,.23-.67,2.39,2.39,0,0,1,.48-.6,2.65,2.65,0,0,1,.78-.47,2.48,2.48,0,0,1-1.14-1,2.87,2.87,0,0,1-.41-1.45,2.73,2.73,0,0,1,.76-2.13,3.11,3.11,0,0,1,2.17-.69h4.75v1.06H32.27a3.11,3.11,0,0,0-1.74.4,1.64,1.64,0,0,0-.61,1.49,2,2,0,0,0,.23,1,1.84,1.84,0,0,0,.62.65,2.84,2.84,0,0,0,.87.36,4.74,4.74,0,0,0,1,.11h4v1H32.27a3.2,3.2,0,0,0-1.74.4,1.65,1.65,0,0,0-.61,1.49,3.37,3.37,0,0,0,.06.44,1.62,1.62,0,0,0,.35.71,2.6,2.6,0,0,0,.87.67,3.52,3.52,0,0,0,1.6.29h3.84v1.06Z"/><path d="M30.81,115.15l-.83,0-.83.06v-1.14h1.14v0a2.55,2.55,0,0,1-1-1.06,3.12,3.12,0,0,1-.33-1.35A3.74,3.74,0,0,1,29,111a2.42,2.42,0,0,1,.23-.67,2.39,2.39,0,0,1,.48-.6,2.65,2.65,0,0,1,.78-.47,2.45,2.45,0,0,1-1.14-1A2.81,2.81,0,0,1,29,106.8a2.73,2.73,0,0,1,.76-2.13,3.11,3.11,0,0,1,2.17-.69h4.75V105H32.27a3.11,3.11,0,0,0-1.74.4,1.62,1.62,0,0,0-.61,1.48,2,2,0,0,0,.23,1,1.81,1.81,0,0,0,.62.64,2.42,2.42,0,0,0,.87.36,4.17,4.17,0,0,0,1,.12h4v1H32.27a3.2,3.2,0,0,0-1.74.4,1.65,1.65,0,0,0-.61,1.49,3.61,3.61,0,0,0,.06.44,1.62,1.62,0,0,0,.35.71,2.6,2.6,0,0,0,.87.67,3.66,3.66,0,0,0,1.6.29h3.84v1.06Z"/></g><line class="cls-1" x1="79.89" y1="38.19" x2="245.07" y2="38.19"/><line class="cls-1" x1="79.89" y1="36.49" x2="79.89" y2="39.89"/><line class="cls-1" x1="245.07" y1="36.49" x2="245.07" y2="39.89"/><g class="cls-2"><path d="M140.72,18.51H136.1L136,21.92a4.61,4.61,0,0,1,.75-.21,4.9,4.9,0,0,1,.77-.06,3.78,3.78,0,0,1,1.45.27,3.41,3.41,0,0,1,1.13.76,3.72,3.72,0,0,1,.74,1.15,4.06,4.06,0,0,1,.26,1.45,3.82,3.82,0,0,1-.29,1.5A3.53,3.53,0,0,1,140,28a3.66,3.66,0,0,1-1.21.76,4.1,4.1,0,0,1-1.51.27,3.71,3.71,0,0,1-1.93-.51A3.34,3.34,0,0,1,134.05,27l1.15-.49a2.58,2.58,0,0,0,.89,1.06,2.31,2.31,0,0,0,1.33.39,2.38,2.38,0,0,0,1-.2,2.64,2.64,0,0,0,.81-.53,2.82,2.82,0,0,0,.54-.8,2.54,2.54,0,0,0,.2-1,2.75,2.75,0,0,0-.21-1.09,2.56,2.56,0,0,0-.58-.86,2.48,2.48,0,0,0-.88-.55,3.1,3.1,0,0,0-1.12-.19,4.5,4.5,0,0,0-1.2.16,6.42,6.42,0,0,0-1.15.46l.11-5.87h5.78Z"/><path d="M145.15,22.75a2.38,2.38,0,0,1-.68-.37,2.29,2.29,0,0,1-.53-.59,2.92,2.92,0,0,1-.23-2.79,2.69,2.69,0,0,1,.69-.93,2.83,2.83,0,0,1,1-.59,3.62,3.62,0,0,1,2.43,0,2.92,2.92,0,0,1,1,.59,2.83,2.83,0,0,1,.69.93,2.91,2.91,0,0,1,.25,1.23,2.84,2.84,0,0,1-.48,1.56,2.73,2.73,0,0,1-.53.59,2.38,2.38,0,0,1-.68.37v0a2.67,2.67,0,0,1,1.53,1.05,3.19,3.19,0,0,1,.58,1.92,2.89,2.89,0,0,1-.3,1.33,3.42,3.42,0,0,1-.78,1,3.36,3.36,0,0,1-1.14.64,4.15,4.15,0,0,1-1.37.23,4.09,4.09,0,0,1-1.36-.23,3.18,3.18,0,0,1-1.14-.64,3.12,3.12,0,0,1-.78-1,2.89,2.89,0,0,1-.3-1.33,3.19,3.19,0,0,1,.58-1.92,2.67,2.67,0,0,1,1.53-1.05Zm3.91,2.85a2.36,2.36,0,0,0-.18-.92,2.29,2.29,0,0,0-.49-.73,2.16,2.16,0,0,0-.77-.49,2.66,2.66,0,0,0-1-.18,2.62,2.62,0,0,0-1,.18,2.21,2.21,0,0,0-1.25,1.22,2.36,2.36,0,0,0-.18.92,2.32,2.32,0,0,0,.18.92,2.08,2.08,0,0,0,.49.74,2.12,2.12,0,0,0,.76.49,2.83,2.83,0,0,0,1,.17,2.87,2.87,0,0,0,1-.17,2.16,2.16,0,0,0,.77-.49,2.22,2.22,0,0,0,.49-.74A2.32,2.32,0,0,0,149.06,25.6Zm-.42-5.28a2.15,2.15,0,0,0-.15-.8,2,2,0,0,0-.43-.63,1.85,1.85,0,0,0-.64-.41,1.91,1.91,0,0,0-.8-.16,2,2,0,0,0-.8.16,1.85,1.85,0,0,0-1.06,1,2.15,2.15,0,0,0-.15.8,2.07,2.07,0,0,0,.15.8,1.74,1.74,0,0,0,.42.63,2,2,0,0,0,.64.42,2.15,2.15,0,0,0,.8.15,2.07,2.07,0,0,0,.8-.15,1.87,1.87,0,0,0,.64-.42,1.76,1.76,0,0,0,.43-.63A2.07,2.07,0,0,0,148.64,20.32Z"/><path d="M156.64,28.79h-1.15V18.9l-2,1.79-.72-.86,2.88-2.37h1Z"/><path d="M165.57,23c0-.27,0-.55,0-.83s0-.55,0-.83h1.13v1.14h0a2.5,2.5,0,0,1,1.06-1,3.05,3.05,0,0,1,1.35-.33,3.83,3.83,0,0,1,.65.06,2.25,2.25,0,0,1,.66.23,2,2,0,0,1,.6.47,2.64,2.64,0,0,1,.48.79,2.48,2.48,0,0,1,1-1.14,2.87,2.87,0,0,1,1.45-.41,2.73,2.73,0,0,1,2.13.76,3.1,3.1,0,0,1,.68,2.17v4.75h-1V24.42a3.26,3.26,0,0,0-.4-1.75,1.66,1.66,0,0,0-1.49-.6,1.91,1.91,0,0,0-1,.23,1.84,1.84,0,0,0-.65.62,2.84,2.84,0,0,0-.36.87,4.74,4.74,0,0,0-.11,1v4h-1.06V24.42a3.17,3.17,0,0,0-.4-1.75,1.65,1.65,0,0,0-1.49-.6l-.44.06a1.73,1.73,0,0,0-.71.35,2.61,2.61,0,0,0-.66.87,3.48,3.48,0,0,0-.3,1.6v3.84h-1.05Z"/><path d="M179.2,23c0-.27,0-.55,0-.83s0-.55,0-.83h1.13v1.14h0a2.5,2.5,0,0,1,1.06-1,3.05,3.05,0,0,1,1.35-.33,3.74,3.74,0,0,1,.65.06,2.25,2.25,0,0,1,.66.23,2.22,2.22,0,0,1,.61.47,2.85,2.85,0,0,1,.47.79,2.48,2.48,0,0,1,1-1.14,2.87,2.87,0,0,1,1.45-.41,2.73,2.73,0,0,1,2.13.76,3.11,3.11,0,0,1,.69,2.17v4.75h-1.06V24.42a3.17,3.17,0,0,0-.4-1.75,1.66,1.66,0,0,0-1.49-.6,1.91,1.91,0,0,0-1,.23,1.84,1.84,0,0,0-.65.62,2.84,2.84,0,0,0-.36.87,4.74,4.74,0,0,0-.11,1v4h-1.06V24.42a3.27,3.27,0,0,0-.39-1.75,1.67,1.67,0,0,0-1.49-.6l-.44.06a1.71,1.71,0,0,0-.72.35,2.61,2.61,0,0,0-.66.87,3.48,3.48,0,0,0-.3,1.6v3.84H179.2Z"/></g><line class="cls-3" x1="109.86" y1="53.71" x2="205.64" y2="53.71"/><line class="cls-3" x1="82.66" y1="57.55" x2="205.64" y2="57.55"/><line class="cls-3" x1="123.18" y1="54.93" x2="114.26" y2="54.93"/><polyline class="cls-3" points="123.19 56.33 123.52 56.24 123.77 56.02 123.88 55.7 123.83 55.37 123.63 55.09 123.32 54.95 123.19 54.93"/><line class="cls-3" x1="69.49" y1="179.05" x2="69.49" y2="179.05"/><line class="cls-3" x1="69.49" y1="179.05" x2="69.54" y2="178.91"/><line class="cls-3" x1="112.01" y1="55.42" x2="111.34" y2="55.26"/><line class="cls-3" x1="112.28" y1="54.41" x2="112.28" y2="54.4"/><line class="cls-3" x1="112.27" y1="54.42" x2="112.28" y2="54.41"/><line class="cls-3" x1="112.01" y1="55.41" x2="112.01" y2="55.4"/><line class="cls-3" x1="112.01" y1="55.42" x2="112.01" y2="55.41"/><polyline class="cls-3" points="114.71 56.13 115.04 56.11 115.3 55.9 115.36 55.58 115.23 55.27 114.98 55.12"/><line class="cls-3" x1="112.19" y1="55.46" x2="112.01" y2="55.42"/><line class="cls-3" x1="112.28" y1="54.4" x2="113.8" y2="54.81"/><line class="cls-3" x1="112.01" y1="55.42" x2="113.53" y2="55.82"/><line class="cls-3" x1="114.32" y1="56.03" x2="114.71" y2="56.13"/><line class="cls-3" x1="113.8" y1="54.81" x2="114.98" y2="55.12"/><line class="cls-3" x1="113.53" y1="55.82" x2="114.71" y2="56.13"/><line class="cls-3" x1="119.91" y1="55.1" x2="121.31" y2="55.1"/><line class="cls-3" x1="121.31" y1="56.15" x2="119.91" y2="56.15"/><line class="cls-3" x1="119.91" y1="56.15" x2="119.91" y2="55.1"/><line class="cls-3" x1="117.47" y1="56.15" x2="117.47" y2="55.1"/><line class="cls-3" x1="117.47" y1="56.15" x2="114.32" y2="56.15"/><line class="cls-3" x1="114.91" y1="55.1" x2="117.47" y2="55.1"/><line class="cls-3" x1="114.32" y1="56.03" x2="114.32" y2="56.15"/><line class="cls-3" x1="119.91" y1="55.1" x2="119.89" y2="55.08"/><line class="cls-3" x1="119.89" y1="55.08" x2="122.68" y2="55.08"/><line class="cls-3" x1="122.7" y1="55.09" x2="122.68" y2="55.08"/><line class="cls-3" x1="121.83" y1="55.09" x2="122.7" y2="55.09"/><polyline class="cls-3" points="121.31 55.1 121.31 55.1 121.33 55.1 121.44 55.1 121.83 55.09"/><line class="cls-3" x1="122.7" y1="56.16" x2="121.83" y2="56.16"/><line class="cls-3" x1="122.7" y1="55.09" x2="122.7" y2="56.16"/><polyline class="cls-3" points="121.31 56.15 121.31 56.15 121.33 56.15 121.44 56.16 121.83 56.16"/><line class="cls-3" x1="122.7" y1="56.16" x2="122.68" y2="56.18"/><line class="cls-3" x1="119.89" y1="56.18" x2="122.68" y2="56.18"/><line class="cls-3" x1="119.91" y1="56.15" x2="119.89" y2="56.18"/><line class="cls-3" x1="119.89" y1="56.18" x2="119.89" y2="55.08"/><line class="cls-3" x1="114.82" y1="55.08" x2="117.49" y2="55.08"/><line class="cls-3" x1="117.47" y1="55.1" x2="117.49" y2="55.08"/><line class="cls-3" x1="113.27" y1="55.75" x2="113.27" y2="56.18"/><polyline class="cls-3" points="114.31 56.16 114.31 56.16 114.31 56.16 114.3 56.16 114.19 56.17 113.87 56.17 113.27 56.18"/><line class="cls-3" x1="114.32" y1="56.03" x2="114.32" y2="56.16"/><line class="cls-3" x1="114.32" y1="56.15" x2="114.32" y2="56.16"/><line class="cls-3" x1="117.47" y1="56.15" x2="117.49" y2="56.18"/><line class="cls-3" x1="113.27" y1="56.18" x2="117.49" y2="56.18"/><line class="cls-3" x1="117.49" y1="56.18" x2="117.49" y2="55.08"/><line class="cls-3" x1="122.7" y1="55" x2="122.7" y2="55.07"/><line class="cls-3" x1="122.71" y1="55.07" x2="122.7" y2="55.07"/><line class="cls-3" x1="122.7" y1="55" x2="122.7" y2="54.93"/><line class="cls-3" x1="122.7" y1="55" x2="122.7" y2="54.93"/><line class="cls-3" x1="110.83" y1="55.13" x2="110.83" y2="56.33"/><line class="cls-3" x1="122.71" y1="55.07" x2="122.71" y2="56.33"/><line class="cls-3" x1="122.68" y1="56.33" x2="122.68" y2="56.18"/><line class="cls-3" x1="122.68" y1="55.08" x2="122.68" y2="54.93"/><line class="cls-3" x1="110.85" y1="55.14" x2="110.85" y2="56.33"/><line class="cls-3" x1="111.03" y1="55.18" x2="111.03" y2="56.33"/><polyline class="cls-3" points="111.34 55.26 111.19 55.55 111.25 55.88 111.49 56.1 111.82 56.13 112.1 55.95 112.22 55.64 112.19 55.46"/><line class="cls-3" x1="213.8" y1="58.33" x2="213.06" y2="58.26"/><line class="cls-3" x1="214.15" y1="58.34" x2="213.8" y2="58.34"/><line class="cls-3" x1="214.31" y1="58.34" x2="214.44" y2="58.34"/><line class="cls-3" x1="106.41" y1="216.24" x2="106.41" y2="216.94"/><line class="cls-3" x1="104.32" y1="216.24" x2="104.32" y2="216.94"/><line class="cls-3" x1="104.32" y1="216.94" x2="106.41" y2="216.94"/><line class="cls-3" x1="57.5" y1="216.24" x2="57.5" y2="216.94"/><line class="cls-3" x1="57.5" y1="216.94" x2="104.32" y2="216.94"/><line class="cls-3" x1="55.4" y1="216.94" x2="57.5" y2="216.94"/><line class="cls-3" x1="55.4" y1="216.24" x2="55.4" y2="216.94"/><line class="cls-3" x1="57.5" y1="216.24" x2="54.7" y2="216.24"/><line class="cls-3" x1="104.32" y1="216.24" x2="57.5" y2="216.24"/><line class="cls-3" x1="107.11" y1="216.24" x2="104.32" y2="216.24"/><line class="cls-3" x1="57.5" y1="216.24" x2="57.5" y2="211.7"/><line class="cls-3" x1="54.7" y1="216.24" x2="54.7" y2="211.7"/><line class="cls-3" x1="57.5" y1="211.7" x2="54.7" y2="211.7"/><polyline class="cls-3" points="82.83 190.76 82.81 190.41 82.76 190.06 82.67 189.72 82.56 189.4 82.4 189.08 82.22 188.79 82.01 188.5 81.77 188.25 81.74 188.21"/><line class="cls-3" x1="82.83" y1="192.01" x2="82.83" y2="190.76"/><line class="cls-3" x1="80.91" y1="189.69" x2="82.66" y2="189.68"/><line class="cls-3" x1="82.83" y1="202.82" x2="82.83" y2="192.01"/><line class="cls-3" x1="82.83" y1="208.16" x2="82.83" y2="202.82"/><line class="cls-3" x1="82.83" y1="208.16" x2="82.83" y2="211.7"/><polyline class="cls-3" points="71.5 178.55 71.22 178.34 70.89 178.24 70.54 178.22 70.2 178.3 69.9 178.47 69.66 178.72 69.5 179.02 69.44 179.36 69.47 179.71 69.59 180.03 69.77 180.28"/><line class="cls-3" x1="81.52" y1="188.02" x2="71.5" y2="178.55"/><polyline class="cls-3" points="78.98 190.73 78.95 190.38 78.85 190.05 78.69 189.75 78.51 189.53"/><line class="cls-3" x1="77.08" y1="188.02" x2="78.51" y2="189.53"/><line class="cls-3" x1="80.91" y1="189.69" x2="78.64" y2="189.68"/><line class="cls-3" x1="77.08" y1="188.02" x2="69.77" y2="180.28"/><line class="cls-3" x1="78.99" y1="208.16" x2="78.99" y2="211.7"/><line class="cls-3" x1="78.99" y1="202.82" x2="78.99" y2="208.16"/><line class="cls-3" x1="78.99" y1="202.82" x2="78.99" y2="192.01"/><line class="cls-3" x1="81.74" y1="188.21" x2="81.52" y2="188.02"/><line class="cls-3" x1="78.99" y1="190.73" x2="78.99" y2="192.01"/><line class="cls-3" x1="82.83" y1="188.32" x2="82.83" y2="192.64"/><line class="cls-3" x1="82.83" y1="72.29" x2="78.99" y2="72.29"/><line class="cls-3" x1="78.99" y1="185.62" x2="78.99" y2="154.38"/><line class="cls-3" x1="78.99" y1="150.21" x2="78.99" y2="72.29"/><line class="cls-3" x1="82.83" y1="188.29" x2="82.83" y2="72.29"/><line class="cls-3" x1="81.61" y1="158.24" x2="81.61" y2="142.52"/><polyline class="cls-3" points="80.21 158.24 80.29 158.57 80.52 158.82 80.84 158.94 81.17 158.89 81.44 158.69 81.59 158.38 81.61 158.24"/><line class="cls-3" x1="80.21" y1="142.52" x2="80.21" y2="146.35"/><line class="cls-3" x1="80.21" y1="150.04" x2="80.21" y2="158.24"/><polyline class="cls-3" points="81.61 142.52 81.52 142.19 81.3 141.94 80.98 141.83 80.64 141.88 80.37 142.07 80.22 142.38 80.21 142.52"/><line class="cls-3" x1="80.91" y1="72.29" x2="78.99" y2="72.26"/><line class="cls-3" x1="79.86" y1="72.29" x2="79.86" y2="72.28"/><line class="cls-3" x1="80.91" y1="72.29" x2="82.83" y2="72.26"/><line class="cls-3" x1="81.96" y1="72.29" x2="81.96" y2="72.28"/><line class="cls-3" x1="82.83" y1="72.26" x2="82.73" y2="68.46"/><line class="cls-3" x1="82.73" y1="68.46" x2="82.64" y2="65.28"/><line class="cls-3" x1="82.48" y1="59.31" x2="82.64" y2="65.28"/><line class="cls-3" x1="82.28" y1="52.09" x2="82.48" y2="59.31"/><line class="cls-3" x1="82.13" y1="46.58" x2="82.28" y2="52.09"/><polyline class="cls-3" points="82.13 46.58 82.07 46.24 81.92 45.93 81.69 45.67 81.4 45.49 81.06 45.4 80.72 45.41 80.39 45.51 80.09 45.7 79.87 45.96 79.73 46.28 79.69 46.58"/><line class="cls-3" x1="79.69" y1="46.58" x2="79.54" y2="52.09"/><line class="cls-3" x1="79.54" y1="52.09" x2="79.34" y2="59.31"/><line class="cls-3" x1="79.34" y1="59.31" x2="79.18" y2="65.28"/><line class="cls-3" x1="79.09" y1="68.46" x2="79.18" y2="65.28"/><line class="cls-3" x1="78.99" y1="72.26" x2="79.09" y2="68.46"/><line class="cls-3" x1="82.38" y1="55.63" x2="82.66" y2="55.63"/><line class="cls-3" x1="82.66" y1="55.63" x2="82.62" y2="57.55"/><line class="cls-3" x1="82.62" y1="57.55" x2="82.43" y2="57.55"/><line class="cls-3" x1="79.39" y1="57.55" x2="78.3" y2="57.55"/><polyline class="cls-3" points="77.43 56.69 77.51 57.03 77.7 57.31 77.99 57.49 78.31 57.55"/><line class="cls-3" x1="77.42" y1="55.63" x2="77.43" y2="56.69"/><line class="cls-3" x1="77.42" y1="55.63" x2="77.43" y2="54.57"/><polyline class="cls-3" points="78.31 53.71 77.97 53.77 77.69 53.96 77.5 54.25 77.43 54.57"/><line class="cls-3" x1="82.62" y1="53.71" x2="82.32" y2="53.71"/><line class="cls-3" x1="79.49" y1="53.71" x2="78.3" y2="53.71"/><line class="cls-3" x1="82.66" y1="55.63" x2="82.62" y2="53.71"/><line class="cls-3" x1="82.66" y1="54.4" x2="82.63" y2="54.4"/><line class="cls-3" x1="82.66" y1="56.85" x2="82.63" y2="56.85"/><line class="cls-3" x1="205.64" y1="57.55" x2="205.64" y2="53.71"/><line class="cls-3" x1="82.66" y1="53.71" x2="104.95" y2="53.71"/><line class="cls-3" x1="107.46" y1="56.33" x2="123.18" y2="56.33"/><polyline class="cls-3" points="107.46 54.93 107.13 55.01 106.88 55.24 106.77 55.56 106.82 55.89 107.02 56.17 107.32 56.31 107.46 56.33"/><line class="cls-3" x1="110" y1="54.93" x2="107.46" y2="54.93"/><line class="cls-3" x1="80.59" y1="148.68" x2="80.44" y2="149.22"/><line class="cls-3" x1="80.26" y1="149.86" x2="80.21" y2="150.04"/><line class="cls-3" x1="78.99" y1="154.38" x2="72.04" y2="179.06"/><polyline class="cls-3" points="69.68 178.69 73 168.59 76.3 158.49 79.61 148.38"/><polyline class="cls-3" points="80.58 148.67 80.48 149.01 80.39 149.34 80.29 149.68 80.2 150.02 80.1 150.36 80.01 150.69 79.91 151.03 79.81 151.36 79.72 151.7 79.62 152.03 79.53 152.37 79.43 152.71 79.33 153.04 79.24 153.38 79.14 153.71 79.05 154.05 78.96 154.39 78.86 154.72 78.76 155.06 78.67 155.39 78.57 155.73 78.48 156.06 78.38 156.4 78.28 156.74 78.19 157.07 78.09 157.41 78 157.75 77.9 158.08 77.81 158.42 77.71 158.76 77.61 159.09 77.52 159.43 77.43 159.76 77.33 160.1 77.23 160.44 77.14 160.77 77.04 161.11 76.95 161.44 76.86 161.78 76.76 162.12 76.66 162.45 76.57 162.79 76.47 163.12 76.38 163.46 76.28 163.79 76.19 164.13 76.09 164.47 76 164.81 75.9 165.14 75.81 165.48 75.71 165.82 75.61 166.15 75.52 166.49 75.43 166.82 75.33 167.16 75.23 167.49 75.14 167.83 75.04 168.17 74.95 168.5 74.85 168.84 74.76 169.17 74.66 169.51 74.57 169.85 74.47 170.19 74.38 170.52 74.28 170.85 74.19 171.19 74.09 171.53 74 171.87 73.9 172.2 73.81 172.54 73.71 172.87 73.62 173.21 73.52 173.55 73.42 173.88 73.33 174.22 73.24 174.55 73.14 174.89 73.04 175.23 72.95 175.56 72.86 175.9 72.76 176.23 72.67 176.57 72.57 176.91 72.48 177.24 72.38 177.58 72.28 177.91 72.19 178.25 72.1 178.59 72 178.93 71.98 179"/><line class="cls-3" x1="79.6" y1="148.37" x2="79.59" y2="148.37"/><line class="cls-3" x1="79.61" y1="148.38" x2="79.6" y2="148.37"/><polyline class="cls-3" points="69.49 179.05 69.43 179.39 69.47 179.73 69.6 180.06 69.81 180.33 69.83 180.34"/><polyline class="cls-3" points="69.54 178.91 74.57 163.64 79.6 148.37"/><line class="cls-3" x1="80.59" y1="148.68" x2="80.58" y2="148.67"/><polyline class="cls-3" points="80.59 148.67 80.49 149.01 80.4 149.34 80.31 149.69 80.21 150.02 80.11 150.36 80.02 150.69 79.93 151.03 79.83 151.37 79.73 151.7 79.64 152.04 79.55 152.37 79.45 152.71 79.36 153.05 79.26 153.38 79.17 153.72 79.07 154.05 78.98 154.39 78.88 154.73 78.79 155.06 78.69 155.4 78.6 155.73 78.5 156.07 78.41 156.41 78.31 156.74 78.22 157.08 78.12 157.41 78.03 157.75 77.94 158.09 77.84 158.43 77.74 158.76 77.65 159.1 77.56 159.44 77.46 159.77 77.36 160.11 77.27 160.44 77.18 160.78 77.08 161.12 76.99 161.45 76.89 161.79 76.8 162.12 76.7 162.46 76.61 162.8 76.51 163.13 76.42 163.47 76.32 163.81 76.23 164.15 76.14 164.48 76.04 164.81 75.94 165.15 75.85 165.49 75.76 165.83 75.66 166.16 75.56 166.5 75.47 166.83 75.38 167.17 75.28 167.51 75.19 167.84 75.09 168.18 75 168.51 74.9 168.85 74.81 169.19 74.72 169.52 74.62 169.86 74.52 170.19 74.43 170.53 74.34 170.87 74.24 171.21 74.15 171.54 74.05 171.88 73.96 172.22 73.86 172.55 73.77 172.89 73.67 173.22 73.58 173.56 73.48 173.9 73.39 174.23 73.3 174.57 73.2 174.91 73.11 175.24 73.02 175.58 72.92 175.91 72.82 176.25 72.73 176.59 72.64 176.92 72.54 177.26 72.45 177.59 72.35 177.94 72.25 178.27 72.16 178.6 72.07 178.94 72.04 179.05"/><line class="cls-3" x1="79.59" y1="148.37" x2="69.54" y2="178.91"/><line class="cls-3" x1="80.59" y1="148.68" x2="72.04" y2="179.06"/><polyline class="cls-3" points="81.41 146.01 81.4 145.67 81.19 145.41 80.87 145.33 80.57 145.45 80.41 145.7"/><line class="cls-3" x1="80.63" y1="148.57" x2="80.59" y2="148.68"/><line class="cls-3" x1="79.59" y1="148.37" x2="80.05" y2="146.87"/><line class="cls-3" x1="80.59" y1="148.68" x2="81.05" y2="147.17"/><line class="cls-3" x1="80.39" y1="145.78" x2="80.41" y2="145.7"/><line class="cls-3" x1="81.3" y1="146.38" x2="81.41" y2="146.01"/><line class="cls-3" x1="80.05" y1="146.87" x2="80.41" y2="145.7"/><line class="cls-3" x1="81.05" y1="147.17" x2="81.41" y2="146.01"/><line class="cls-3" x1="110.57" y1="55.07" x2="110" y2="54.93"/><line class="cls-3" x1="104.95" y1="53.71" x2="82.18" y2="48.18"/><polyline class="cls-3" points="81.61 45.61 91.83 48.56 102.05 51.49 112.27 54.42"/><polyline class="cls-3" points="112.01 55.4 97.09 51.75 82.17 48.11"/><polyline class="cls-3" points="81.25 45.44 80.91 45.39 80.56 45.44 80.25 45.58 79.99 45.8 79.8 46.1 79.69 46.43 79.69 46.67"/><line class="cls-3" x1="81.25" y1="45.44" x2="81.25" y2="45.44"/><line class="cls-3" x1="81.25" y1="45.44" x2="81.39" y2="45.47"/><polyline class="cls-3" points="81.39 45.48 96.83 49.95 112.28 54.41"/><polyline class="cls-3" points="112.01 55.41 97.09 51.79 82.17 48.18"/><line class="cls-3" x1="112.28" y1="54.4" x2="81.39" y2="45.47"/><line class="cls-3" x1="112.01" y1="55.42" x2="82.18" y2="48.18"/><polyline class="cls-3" points="81.61 150.44 81.3 150.31 80.97 150.37 80.71 150.58 80.61 150.9 80.7 151.23 80.94 151.46 81.27 151.53 81.58 151.41 81.61 151.4"/><line class="cls-3" x1="81.43" y1="143.23" x2="80.39" y2="143.23"/><line class="cls-3" x1="81.43" y1="143.23" x2="81.43" y2="146.38"/><line class="cls-3" x1="80.39" y1="145.78" x2="80.39" y2="143.23"/><line class="cls-3" x1="81.3" y1="146.38" x2="81.43" y2="146.38"/><polyline class="cls-3" points="81.61 150.43 81.3 150.3 80.97 150.36 80.71 150.57 80.6 150.89 80.68 151.22 80.92 151.46 81.24 151.54 81.56 151.44 81.61 151.41"/><line class="cls-3" x1="80.36" y1="145.86" x2="80.36" y2="143.21"/><line class="cls-3" x1="80.39" y1="143.23" x2="80.36" y2="143.21"/><line class="cls-3" x1="80.97" y1="147.43" x2="81.46" y2="147.43"/><polyline class="cls-3" points="81.44 146.38 81.44 146.39 81.44 146.4 81.45 146.5 81.45 146.82 81.46 147.43"/><line class="cls-3" x1="81.29" y1="146.38" x2="81.44" y2="146.38"/><line class="cls-3" x1="81.43" y1="146.38" x2="81.44" y2="146.38"/><line class="cls-3" x1="81.43" y1="143.23" x2="81.46" y2="143.21"/><line class="cls-3" x1="81.46" y1="147.43" x2="81.46" y2="143.21"/><line class="cls-3" x1="81.46" y1="143.21" x2="80.36" y2="143.21"/><line class="cls-3" x1="80.35" y1="149.86" x2="80.28" y2="149.86"/><line class="cls-3" x1="80.35" y1="149.86" x2="80.35" y2="149.86"/><line class="cls-3" x1="80.35" y1="151.76" x2="80.35" y2="149.86"/><line class="cls-3" x1="80.35" y1="151.76" x2="80.35" y2="151.78"/><line class="cls-3" x1="80.35" y1="149.86" x2="80.28" y2="149.86"/><line class="cls-3" x1="80.28" y1="149.86" x2="80.26" y2="149.86"/><line class="cls-3" x1="80.28" y1="149.86" x2="80.26" y2="149.86"/><polyline class="cls-3" points="80.35 151.76 80.62 151.97 80.94 152.1 81.29 152.13 81.61 152.07"/><line class="cls-3" x1="80.35" y1="149.86" x2="81.61" y2="149.86"/><line class="cls-3" x1="80.27" y1="149.85" x2="81.61" y2="149.85"/><line class="cls-3" x1="80.32" y1="149.67" x2="81.61" y2="149.67"/><polyline class="cls-3" points="80.35 151.78 80.62 151.98 80.95 152.11 81.29 152.14 81.61 152.08"/><polyline class="cls-3" points="80.44 149.22 80.67 149.45 81 149.5 81.29 149.34 81.42 149.04 81.34 148.72 81.08 148.51 80.75 148.51 80.63 148.56"/><polyline class="cls-3" points="110.25 56.33 110.39 56.02 110.34 55.69 110.11 55.43 109.79 55.33 109.47 55.41 109.24 55.66 109.17 55.99 109.29 56.3 109.31 56.33"/><polyline class="cls-3" points="110.27 56.33 110.39 56.02 110.34 55.69 110.12 55.43 109.8 55.32 109.48 55.4 109.24 55.64 109.16 55.96 109.26 56.28 109.29 56.33"/><line class="cls-3" x1="108.94" y1="55.07" x2="110.57" y2="55.07"/><line class="cls-3" x1="108.94" y1="55.07" x2="108.92" y2="55.07"/><polyline class="cls-3" points="108.94 55.07 108.72 55.34 108.6 55.67 108.57 56.01 108.63 56.33"/><polyline class="cls-3" points="108.92 55.07 108.71 55.34 108.59 55.67 108.56 56.01 108.62 56.33"/><line class="cls-3" x1="213" y1="58.25" x2="212.74" y2="58.2"/><line class="cls-3" x1="213.06" y1="58.26" x2="213" y2="58.25"/><line class="cls-3" x1="212.99" y1="58.25" x2="213.06" y2="58.26"/><line class="cls-3" x1="205.64" y1="55.63" x2="205.67" y2="53.71"/><line class="cls-3" x1="205.66" y1="54.23" x2="205.64" y2="54.23"/><line class="cls-3" x1="205.66" y1="54.4" x2="205.64" y2="54.4"/><line class="cls-3" x1="213.8" y1="52.92" x2="205.67" y2="53.71"/><line class="cls-3" x1="213.8" y1="55.63" x2="213.8" y2="57.54"/><line class="cls-3" x1="213.8" y1="53.71" x2="213.8" y2="55.63"/><line class="cls-3" x1="214.2" y1="55.63" x2="214.15" y2="58.34"/><line class="cls-3" x1="213.8" y1="57.54" x2="213.8" y2="58.34"/><line class="cls-3" x1="214.2" y1="55.63" x2="214.15" y2="52.92"/><line class="cls-3" x1="213.8" y1="52.92" x2="213.8" y2="53.71"/><line class="cls-3" x1="205.66" y1="57.03" x2="205.64" y2="57.03"/><line class="cls-3" x1="205.66" y1="56.85" x2="205.64" y2="56.85"/><line class="cls-3" x1="214.16" y1="57.9" x2="214.16" y2="57.86"/><line class="cls-3" x1="205.64" y1="55.63" x2="205.67" y2="57.55"/><line class="cls-3" x1="212.17" y1="58.18" x2="205.67" y2="57.55"/><line class="cls-3" x1="214.15" y1="52.92" x2="213.8" y2="52.92"/><line class="cls-3" x1="214.16" y1="53.39" x2="214.27" y2="53.39"/><line class="cls-3" x1="214.16" y1="57.86" x2="214.27" y2="57.86"/><line class="cls-3" x1="214.27" y1="57.86" x2="214.27" y2="53.39"/><polyline class="cls-3" points="214.88 56.48 214.93 56.14 214.96 55.79 214.96 55.63"/><line class="cls-3" x1="214.96" y1="55.63" x2="215.63" y2="55.63"/><line class="cls-3" x1="214.88" y1="56.48" x2="215.62" y2="56.46"/><line class="cls-3" x1="214.88" y1="54.77" x2="215.65" y2="54.8"/><line class="cls-3" x1="214.95" y1="54.61" x2="215.65" y2="54.63"/><polyline class="cls-3" points="214.88 54.77 214.86 54.71 214.86 54.66 214.87 54.65 214.88 54.63 214.91 54.61 214.94 54.61"/><line class="cls-3" x1="214.8" y1="54.47" x2="214.95" y2="54.61"/><line class="cls-3" x1="214.72" y1="54.8" x2="214.88" y2="54.77"/><polyline class="cls-3" points="214.72 54.8 214.71 54.68 214.71 54.58 214.72 54.54 214.74 54.5 214.76 54.49 214.78 54.48 214.8 54.47"/><line class="cls-3" x1="214.96" y1="55.63" x2="214.8" y2="55.63"/><line class="cls-3" x1="214.88" y1="56.48" x2="214.72" y2="56.45"/><polyline class="cls-3" points="214.72 56.45 214.78 56.11 214.8 55.76 214.8 55.63"/><line class="cls-3" x1="214.44" y1="52.92" x2="214.44" y2="55.63"/><line class="cls-3" x1="214.27" y1="55.63" x2="214.31" y2="52.92"/><polyline class="cls-3" points="215.28 54.53 215.15 54.51 214.97 54.49 214.8 54.47"/><line class="cls-3" x1="214.27" y1="55.63" x2="214.31" y2="58.34"/><line class="cls-3" x1="214.95" y1="56.65" x2="215.62" y2="56.63"/><polyline class="cls-3" points="214.88 56.48 214.86 56.54 214.86 56.59 214.87 56.61 214.88 56.63 214.91 56.65 214.94 56.65"/><polyline class="cls-3" points="215.28 56.73 215.15 56.74 214.97 56.77 214.8 56.78"/><line class="cls-3" x1="214.95" y1="56.65" x2="214.8" y2="56.78"/><polyline class="cls-3" points="214.72 56.45 214.71 56.57 214.71 56.68 214.72 56.72 214.74 56.76 214.76 56.77 214.78 56.78 214.8 56.78"/><line class="cls-3" x1="214.44" y1="58.34" x2="214.44" y2="55.63"/><polyline class="cls-3" points="214.8 55.63 214.79 55.28 214.75 54.93 214.72 54.8"/><polyline class="cls-3" points="214.96 55.63 214.94 55.28 214.91 54.93 214.88 54.77"/><line class="cls-3" x1="214.44" y1="52.92" x2="214.31" y2="52.92"/><line class="cls-3" x1="215.28" y1="54.53" x2="215.42" y2="54.62"/><line class="cls-3" x1="214.3" y1="53.97" x2="214.27" y2="53.97"/><line class="cls-3" x1="214.27" y1="57.29" x2="214.3" y2="57.29"/><line class="cls-3" x1="215.42" y1="56.64" x2="215.28" y2="56.73"/><line class="cls-3" x1="215.28" y1="56.73" x2="214.44" y2="58.34"/><line class="cls-3" x1="215.28" y1="54.53" x2="214.44" y2="52.92"/><line class="cls-3" x1="215.76" y1="53.75" x2="215.74" y2="53.74"/><polyline class="cls-3" points="215.76 53.75 215.76 53.75 215.77 53.75 216.23 53.75"/><line class="cls-3" x1="221.26" y1="52.33" x2="221.35" y2="52.33"/><line class="cls-3" x1="215.66" y1="53.9" x2="215.66" y2="53.89"/><line class="cls-3" x1="215.76" y1="53.75" x2="215.66" y2="53.9"/><line class="cls-3" x1="215.66" y1="53.9" x2="215.6" y2="57.64"/><line class="cls-3" x1="217.34" y1="57.64" x2="215.6" y2="57.64"/><line class="cls-3" x1="243.55" y1="57.64" x2="217.34" y2="57.64"/><line class="cls-3" x1="245.3" y1="57.64" x2="243.55" y2="57.64"/><polyline class="cls-3" points="215.66 53.9 215.66 53.9 215.66 53.9 215.67 53.91 215.73 53.91 216.15 53.91"/><line class="cls-3" x1="221.35" y1="52.33" x2="222.58" y2="52.33"/><line class="cls-3" x1="230.45" y1="52.33" x2="222.58" y2="52.33"/><polyline class="cls-3" points="217.34 53.75 217.7 53.75 219.13 53.74 224.37 53.74 230.45 53.74"/><polyline class="cls-3" points="216.23 53.75 216.58 53.75 216.93 53.75 217.28 53.75 217.34 53.75"/><polyline class="cls-3" points="229.01 52.29 228.66 52.29 228.32 52.29 227.97 52.29 227.62 52.29 227.27 52.29 226.92 52.3 226.57 52.3 226.22 52.3 225.87 52.3 225.52 52.3 225.17 52.3 224.82 52.3 224.47 52.3 224.12 52.31 223.77 52.31 223.43 52.31 223.07 52.31 222.73 52.31 222.38 52.32 222.03 52.32 221.68 52.32 221.32 52.32 220.98 52.32 220.84 52.33"/><line class="cls-3" x1="229.4" y1="52.29" x2="230.45" y2="52.29"/><line class="cls-3" x1="229.4" y1="52.29" x2="229.01" y2="52.29"/><line class="cls-3" x1="217.34" y1="53.9" x2="217.34" y2="57.64"/><polyline class="cls-3" points="216.15 53.91 216.5 53.91 216.85 53.91 217.2 53.91 217.34 53.9"/><polyline class="cls-3" points="217.34 53.9 217.58 53.9 221.84 53.89 228.18 53.89 230.45 53.89"/><polyline class="cls-3" points="230.45 53.89 232.56 53.89 238.91 53.89 243.29 53.9 243.55 53.9"/><line class="cls-3" x1="243.55" y1="53.9" x2="243.55" y2="57.64"/><line class="cls-3" x1="245.23" y1="53.9" x2="245.3" y2="57.64"/><polyline class="cls-3" points="243.55 53.9 243.9 53.91 244.25 53.91 244.6 53.91 244.74 53.91"/><polyline class="cls-3" points="244.74 53.91 245.18 53.91 245.22 53.91 245.23 53.9"/><line class="cls-3" x1="245.23" y1="53.89" x2="245.23" y2="53.9"/><line class="cls-3" x1="229.4" y1="52.29" x2="230.45" y2="52.29"/><line class="cls-3" x1="231.49" y1="52.29" x2="230.45" y2="52.29"/><line class="cls-3" x1="231.49" y1="52.29" x2="231.88" y2="52.29"/><line class="cls-3" x1="231.49" y1="52.29" x2="230.45" y2="52.29"/><line class="cls-3" x1="217.34" y1="53.9" x2="217.34" y2="53.75"/><polyline class="cls-3" points="243.55 53.75 243.9 53.75 244.25 53.75 244.6 53.75 244.66 53.75"/><polyline class="cls-3" points="230.45 53.74 236.33 53.74 242.24 53.74 243.22 53.75 243.55 53.75"/><line class="cls-3" x1="238.3" y1="52.33" x2="230.45" y2="52.33"/><line class="cls-3" x1="238.3" y1="52.33" x2="239.54" y2="52.33"/><line class="cls-3" x1="239.54" y1="52.33" x2="239.63" y2="52.33"/><polyline class="cls-3" points="240.06 52.33 239.71 52.32 239.35 52.32 239 52.32 238.66 52.32 238.31 52.31 237.96 52.31 237.61 52.31 237.26 52.31 236.91 52.31 236.56 52.31 236.21 52.3 235.86 52.3 235.51 52.3 235.16 52.3 234.81 52.3 234.46 52.3 234.11 52.3 233.76 52.3 233.41 52.29 233.06 52.29 232.72 52.29 232.37 52.29 232.02 52.29 231.88 52.29"/><line class="cls-3" x1="243.55" y1="53.9" x2="243.55" y2="53.75"/><line class="cls-3" x1="245.23" y1="53.9" x2="245.13" y2="53.75"/><polyline class="cls-3" points="244.66 53.75 245.12 53.75 245.13 53.75"/><line class="cls-3" x1="245.15" y1="53.74" x2="245.13" y2="53.75"/><line class="cls-3" x1="221.26" y1="52.33" x2="220.85" y2="52.33"/><polyline class="cls-3" points="220.88 52.33 220.52 52.33 219.99 52.36 219.7 52.38 219.19 52.44 218.71 52.53 218.26 52.63 217.82 52.76 217.38 52.91 217.16 52.99 216.94 53.09 216.71 53.2 216.47 53.31 216.24 53.44 215.99 53.59 215.74 53.74"/><line class="cls-3" x1="215.74" y1="53.74" x2="215.66" y2="53.89"/><polyline class="cls-3" points="221.26 52.33 220.76 52.33 220.26 52.34 220.02 52.35 219.77 52.37 219.49 52.4 219.22 52.44 218.89 52.49 218.58 52.56 218.26 52.63 217.95 52.72"/><line class="cls-3" x1="219.76" y1="52.37" x2="219.74" y2="52.38"/><line class="cls-3" x1="216.22" y1="53.45" x2="216.21" y2="53.46"/><line class="cls-3" x1="245.23" y1="53.89" x2="245.15" y2="53.74"/><polyline class="cls-3" points="245.15 53.74 244.74 53.5 244.4 53.3 244.01 53.12 243.65 52.96 243.29 52.83 242.88 52.7 242.43 52.58 241.94 52.48 241.69 52.44 241.43 52.41 241.16 52.38 240.85 52.35 240.35 52.33 239.95 52.33"/><line class="cls-3" x1="240.04" y1="52.33" x2="239.63" y2="52.33"/><polyline class="cls-3" points="245.23 53.79 245.22 53.79 245.03 53.67 244.72 53.48 244.35 53.28 243.97 53.1 243.59 52.94 243.23 52.81"/><line class="cls-3" x1="239.66" y1="52.33" x2="239.63" y2="52.33"/><line class="cls-3" x1="212.63" y1="58.25" x2="212.99" y2="58.25"/><line class="cls-3" x1="212.24" y1="58.25" x2="212.63" y2="58.25"/><line class="cls-3" x1="212.24" y1="58.25" x2="212.17" y2="58.18"/><line class="cls-3" x1="107.11" y1="216.24" x2="107.11" y2="211.7"/><line class="cls-3" x1="104.32" y1="216.24" x2="104.32" y2="211.7"/><line class="cls-3" x1="107.11" y1="211.7" x2="104.32" y2="211.7"/><line class="cls-3" x1="104.32" y1="211.7" x2="57.5" y2="211.7"/><rect class="cls-4" x="80.65" y="45.12" width="0.52" height="0.52"/></svg>