<svg xmlns="http://www.w3.org/2000/svg" viewBox="0 0 300 263"><defs><style>.cls-1,.cls-2,.cls-3,.cls-4{fill:none;stroke-linecap:round;}.cls-1,.cls-2{stroke:red;}.cls-1,.cls-2,.cls-4{stroke-linejoin:round;}.cls-1,.cls-3,.cls-4{stroke-width:0.6px;}.cls-3,.cls-4{stroke:#000;}.cls-3{stroke-miterlimit:10;}</style></defs><title>kelvin-floor-citterio-flos-F33050-curva-fotometrica</title><g id="numeri_esterni_diagramma" data-name="numeri esterni diagramma"><path d="M148.27,239.2a6.85,6.85,0,0,1,.08-1,3.41,3.41,0,0,1,.3-.95,1.94,1.94,0,0,1,.59-.71,1.57,1.57,0,0,1,.95-.27,1.6,1.6,0,0,1,1,.27,2,2,0,0,1,.59.71,3.1,3.1,0,0,1,.29.95,5.7,5.7,0,0,1,.08,1,5.85,5.85,0,0,1-.08,1,3.13,3.13,0,0,1-.29.94,2,2,0,0,1-.59.71,1.6,1.6,0,0,1-1,.27,1.57,1.57,0,0,1-.95-.27,1.94,1.94,0,0,1-.59-.71,3.45,3.45,0,0,1-.3-.94A7.07,7.07,0,0,1,148.27,239.2Zm.68,0c0,.13,0,.29,0,.46a4.88,4.88,0,0,0,.06.52,2.83,2.83,0,0,0,.13.5,1.65,1.65,0,0,0,.22.44,1.24,1.24,0,0,0,.34.31,1,1,0,0,0,.48.12.9.9,0,0,0,.48-.12,1,1,0,0,0,.34-.31,1.41,1.41,0,0,0,.23-.44,4.07,4.07,0,0,0,.13-.5c0-.18,0-.35.06-.52s0-.33,0-.46,0-.3,0-.47,0-.34-.06-.51a3.8,3.8,0,0,0-.13-.51,1.53,1.53,0,0,0-.23-.44,1,1,0,0,0-.34-.31.9.9,0,0,0-.48-.12,1,1,0,0,0-.48.12,1.24,1.24,0,0,0-.34.31,1.81,1.81,0,0,0-.22.44,2.72,2.72,0,0,0-.13.51,4.43,4.43,0,0,0-.06.51C149,238.9,149,239.06,149,239.2Z"/><path d="M152.83,237.41a1.33,1.33,0,0,1,.08-.45,1.11,1.11,0,0,1,.25-.36,1,1,0,0,1,.36-.24,1.17,1.17,0,0,1,.9,0,1,1,0,0,1,.36.24,1.11,1.11,0,0,1,.25.36,1.31,1.31,0,0,1,0,.9,1.23,1.23,0,0,1-.61.61,1.17,1.17,0,0,1-.9,0,1.23,1.23,0,0,1-.61-.61A1.33,1.33,0,0,1,152.83,237.41Zm.43,0a.79.79,0,0,0,.05.25.68.68,0,0,0,.14.23.66.66,0,0,0,.23.17.73.73,0,0,0,.58,0,.76.76,0,0,0,.23-.17.88.88,0,0,0,.14-.23.65.65,0,0,0,0-.5,1.09,1.09,0,0,0-.14-.23,1,1,0,0,0-.23-.17.73.73,0,0,0-.58,0,.81.81,0,0,0-.23.17.75.75,0,0,0-.19.48Z"/><path d="M203.17,238.76h.21l.43,0a1.15,1.15,0,0,0,.42-.13.77.77,0,0,0,.31-.31.94.94,0,0,0,.13-.51.87.87,0,0,0-.27-.68,1,1,0,0,0-.7-.26,1.28,1.28,0,0,0-.63.16,1.14,1.14,0,0,0-.41.48l-.65-.25a1.48,1.48,0,0,1,.65-.72,2.07,2.07,0,0,1,1-.24,2.25,2.25,0,0,1,.64.09,1.72,1.72,0,0,1,.54.28,1.37,1.37,0,0,1,.37.46,1.48,1.48,0,0,1,.14.65,1.29,1.29,0,0,1-.27.8,1.34,1.34,0,0,1-.7.49v0a1.48,1.48,0,0,1,.85.49,1.37,1.37,0,0,1,.23.43,1.69,1.69,0,0,1,.08.5,1.66,1.66,0,0,1-.15.72,1.57,1.57,0,0,1-.41.51,1.71,1.71,0,0,1-.6.31,2.34,2.34,0,0,1-.71.1,2.18,2.18,0,0,1-1.13-.28,1.61,1.61,0,0,1-.7-.91l.68-.22a1.33,1.33,0,0,0,.41.65,1.3,1.3,0,0,0,.74.19,1.33,1.33,0,0,0,.45-.08,1.11,1.11,0,0,0,.36-.23,1.24,1.24,0,0,0,.25-.35,1.13,1.13,0,0,0,.09-.45,1.07,1.07,0,0,0-.12-.53,1,1,0,0,0-.33-.33,1.23,1.23,0,0,0-.46-.18,2.31,2.31,0,0,0-.52-.06h-.21Z"/><path d="M206.24,239.2a6.85,6.85,0,0,1,.08-1,3.11,3.11,0,0,1,.3-.95,1.94,1.94,0,0,1,.59-.71,1.55,1.55,0,0,1,.95-.27,1.6,1.6,0,0,1,1,.27,2,2,0,0,1,.59.71,3.1,3.1,0,0,1,.29.95,5.7,5.7,0,0,1,.08,1,5.85,5.85,0,0,1-.08,1,3.13,3.13,0,0,1-.29.94,2,2,0,0,1-.59.71,1.6,1.6,0,0,1-1,.27,1.55,1.55,0,0,1-.95-.27,1.94,1.94,0,0,1-.59-.71,3.14,3.14,0,0,1-.3-.94A7.07,7.07,0,0,1,206.24,239.2Zm.67,0c0,.13,0,.29,0,.46a4.88,4.88,0,0,0,.06.52,2.83,2.83,0,0,0,.13.5,1.4,1.4,0,0,0,.22.44,1.24,1.24,0,0,0,.34.31,1,1,0,0,0,.48.12.9.9,0,0,0,.48-.12,1,1,0,0,0,.34-.31,1.41,1.41,0,0,0,.23-.44,4.05,4.05,0,0,0,.12-.5,4.88,4.88,0,0,0,.06-.52,3.86,3.86,0,0,0,0-.46,3.94,3.94,0,0,0,0-.47,4.43,4.43,0,0,0-.06-.51,3.81,3.81,0,0,0-.12-.51,1.53,1.53,0,0,0-.23-.44,1,1,0,0,0-.34-.31.9.9,0,0,0-.48-.12,1,1,0,0,0-.48.12,1.24,1.24,0,0,0-.34.31,1.51,1.51,0,0,0-.22.44,2.72,2.72,0,0,0-.13.51,4.43,4.43,0,0,0-.06.51C206.92,238.9,206.91,239.06,206.91,239.2Z"/><path d="M210.84,237.41a1.13,1.13,0,0,1,.09-.45,1.26,1.26,0,0,1,.24-.36,1.2,1.2,0,0,1,.82-.33,1,1,0,0,1,.44.09,1.12,1.12,0,0,1,.37.24,1.26,1.26,0,0,1,.24.36,1.16,1.16,0,0,1-.24,1.26,1.15,1.15,0,0,1-.37.25,1,1,0,0,1-.44.09,1.13,1.13,0,0,1-.45-.09,1.15,1.15,0,0,1-.37-.25,1.15,1.15,0,0,1-.33-.81Zm.43,0a.61.61,0,0,0,.06.25.68.68,0,0,0,.14.23.72.72,0,0,0,.22.17.73.73,0,0,0,.3.06.72.72,0,0,0,.29-.06.62.62,0,0,0,.22-.17.91.91,0,0,0,.15-.23.65.65,0,0,0,0-.5,1.14,1.14,0,0,0-.15-.23.76.76,0,0,0-.22-.17.72.72,0,0,0-.29-.06.73.73,0,0,0-.3.06.92.92,0,0,0-.22.17.79.79,0,0,0-.14.23A.61.61,0,0,0,211.27,237.41Z"/><path d="M93.6,238.76h.21l.44,0a1.1,1.1,0,0,0,.41-.13.86.86,0,0,0,.32-.31.94.94,0,0,0,.12-.51.87.87,0,0,0-.27-.68,1,1,0,0,0-.7-.26,1.21,1.21,0,0,0-.62.16,1.1,1.1,0,0,0-.42.48l-.65-.25a1.45,1.45,0,0,1,.66-.72,2,2,0,0,1,1-.24,2.32,2.32,0,0,1,.65.09,2,2,0,0,1,.54.28,1.67,1.67,0,0,1,.37.46,1.48,1.48,0,0,1,.13.65,1.29,1.29,0,0,1-.27.8,1.34,1.34,0,0,1-.7.49v0a1.31,1.31,0,0,1,.49.18,1.34,1.34,0,0,1,.36.31,1.37,1.37,0,0,1,.23.43,1.42,1.42,0,0,1,.08.5,1.66,1.66,0,0,1-.15.72,1.57,1.57,0,0,1-.41.51,1.75,1.75,0,0,1-.59.31,2.46,2.46,0,0,1-.72.1,2.18,2.18,0,0,1-1.13-.28,1.56,1.56,0,0,1-.69-.91l.68-.22a1.2,1.2,0,0,0,.41.65,1.27,1.27,0,0,0,.73.19,1.33,1.33,0,0,0,.45-.08,1.11,1.11,0,0,0,.36-.23,1.07,1.07,0,0,0,.25-.35,1.13,1.13,0,0,0,.09-.45,1.07,1.07,0,0,0-.12-.53.87.87,0,0,0-.33-.33,1.17,1.17,0,0,0-.46-.18,2.24,2.24,0,0,0-.52-.06H93.6Z"/><path d="M96.68,239.2a5.7,5.7,0,0,1,.08-1,3.1,3.1,0,0,1,.29-.95,2,2,0,0,1,.59-.71,1.6,1.6,0,0,1,1-.27,1.57,1.57,0,0,1,1,.27,1.94,1.94,0,0,1,.59.71,3.41,3.41,0,0,1,.3.95,6.85,6.85,0,0,1,.08,1,7.07,7.07,0,0,1-.08,1,3.45,3.45,0,0,1-.3.94,1.94,1.94,0,0,1-.59.71,1.57,1.57,0,0,1-1,.27,1.6,1.6,0,0,1-1-.27,2,2,0,0,1-.59-.71,3.13,3.13,0,0,1-.29-.94A5.85,5.85,0,0,1,96.68,239.2Zm.67,0c0,.13,0,.29,0,.46a4.88,4.88,0,0,0,.06.52,4.07,4.07,0,0,0,.13.5,1.41,1.41,0,0,0,.23.44,1,1,0,0,0,.34.31.9.9,0,0,0,.48.12,1,1,0,0,0,.48-.12,1.24,1.24,0,0,0,.34-.31,1.65,1.65,0,0,0,.22-.44,2.83,2.83,0,0,0,.13-.5,4.88,4.88,0,0,0,.06-.52c0-.17,0-.33,0-.46s0-.3,0-.47a4.43,4.43,0,0,0-.06-.51,2.72,2.72,0,0,0-.13-.51,1.81,1.81,0,0,0-.22-.44,1.24,1.24,0,0,0-.34-.31,1,1,0,0,0-.48-.12.9.9,0,0,0-.48.12,1,1,0,0,0-.34.31,1.53,1.53,0,0,0-.23.44,3.8,3.8,0,0,0-.13.51,4.43,4.43,0,0,0-.06.51C97.35,238.9,97.35,239.06,97.35,239.2Z"/><path d="M101.28,237.41a1.33,1.33,0,0,1,.08-.45,1.11,1.11,0,0,1,.25-.36,1,1,0,0,1,.36-.24,1.17,1.17,0,0,1,.9,0,1,1,0,0,1,.36.24,1.11,1.11,0,0,1,.25.36,1.31,1.31,0,0,1,0,.9,1.23,1.23,0,0,1-.61.61,1.17,1.17,0,0,1-.9,0,1.23,1.23,0,0,1-.61-.61A1.33,1.33,0,0,1,101.28,237.41Zm.43,0a.79.79,0,0,0,.05.25.68.68,0,0,0,.14.23.76.76,0,0,0,.23.17.73.73,0,0,0,.58,0,.66.66,0,0,0,.23-.17.68.68,0,0,0,.14-.23.71.71,0,0,0-.14-.73.81.81,0,0,0-.23-.17.73.73,0,0,0-.58,0,1,1,0,0,0-.23.17.75.75,0,0,0-.19.48Z"/><path d="M249.93,137.18h0a1.24,1.24,0,0,1-.37.12,1.84,1.84,0,0,1-.39,0,1.91,1.91,0,0,1-.68-.12,1.58,1.58,0,0,1-.54-.37,1.63,1.63,0,0,1-.36-.56,2.05,2.05,0,0,1-.13-.72,1.79,1.79,0,0,1,.15-.75,1.48,1.48,0,0,1,.4-.55,1.79,1.79,0,0,1,.6-.35,2,2,0,0,1,.75-.13,2.11,2.11,0,0,1,.75.13,1.79,1.79,0,0,1,.6.35,1.59,1.59,0,0,1,.4.55,1.79,1.79,0,0,1,.14.75,2.15,2.15,0,0,1,0,.45,1.68,1.68,0,0,1-.11.4,2.59,2.59,0,0,1-.17.38l-.21.36-1.51,2.39h-.78Zm-.59-.42a1.28,1.28,0,0,0,.48-.09,1,1,0,0,0,.39-.24,1.23,1.23,0,0,0,.26-.37,1.43,1.43,0,0,0,0-1,1.1,1.1,0,0,0-.65-.62,1.48,1.48,0,0,0-1,0,1.28,1.28,0,0,0-.39.24,1.12,1.12,0,0,0-.26.38,1.3,1.3,0,0,0,0,1,1.08,1.08,0,0,0,.26.37,1,1,0,0,0,.39.24A1.28,1.28,0,0,0,249.34,136.76Z"/><path d="M251.82,136.71a7.07,7.07,0,0,1,.08-1,3.19,3.19,0,0,1,.29-1,2,2,0,0,1,.59-.7,1.54,1.54,0,0,1,1-.28,1.49,1.49,0,0,1,.95.28,1.91,1.91,0,0,1,.59.7,2.94,2.94,0,0,1,.3,1,6.29,6.29,0,0,1,0,2,2.94,2.94,0,0,1-.3.95,1.91,1.91,0,0,1-.59.7,1.49,1.49,0,0,1-.95.28,1.54,1.54,0,0,1-1-.28,2,2,0,0,1-.59-.7,3.19,3.19,0,0,1-.29-.95A7.07,7.07,0,0,1,251.82,136.71Zm.67,0c0,.14,0,.29,0,.46a4.6,4.6,0,0,0,.06.52,4.7,4.7,0,0,0,.12.51,2,2,0,0,0,.23.44,1,1,0,0,0,.34.31,1,1,0,0,0,.48.11,1.06,1.06,0,0,0,.48-.11,1.24,1.24,0,0,0,.34-.31,1.65,1.65,0,0,0,.22-.44,3.18,3.18,0,0,0,.13-.51,4.6,4.6,0,0,0,.06-.52c0-.17,0-.32,0-.46s0-.29,0-.46a4.6,4.6,0,0,0-.06-.52,3.18,3.18,0,0,0-.13-.51,1.65,1.65,0,0,0-.22-.44,1.24,1.24,0,0,0-.34-.31,1.06,1.06,0,0,0-.48-.11,1,1,0,0,0-.48.11,1,1,0,0,0-.34.31,2,2,0,0,0-.23.44,4.7,4.7,0,0,0-.12.51,4.6,4.6,0,0,0-.06.52C252.5,136.42,252.49,136.57,252.49,136.71Z"/><path d="M256.42,134.93a1.13,1.13,0,0,1,.09-.45,1.31,1.31,0,0,1,.24-.37,1.18,1.18,0,0,1,.37-.24,1,1,0,0,1,.44-.09,1.13,1.13,0,0,1,.45.09,1.06,1.06,0,0,1,.61.61,1.13,1.13,0,0,1,.09.45,1,1,0,0,1-.09.44,1.06,1.06,0,0,1-.61.61,1.13,1.13,0,0,1-.45.09,1,1,0,0,1-.44-.09,1.18,1.18,0,0,1-.37-.24,1.31,1.31,0,0,1-.24-.37A1,1,0,0,1,256.42,134.93Zm.43,0a.69.69,0,0,0,0,.24,1,1,0,0,0,.15.24.73.73,0,0,0,.51.23.54.54,0,0,0,.29-.07.63.63,0,0,0,.23-.16.72.72,0,0,0,.14-.24.52.52,0,0,0,0-.24.56.56,0,0,0,0-.25.59.59,0,0,0-.14-.23.74.74,0,0,0-.52-.24.73.73,0,0,0-.29.07.62.62,0,0,0-.22.17.76.76,0,0,0-.15.23A.74.74,0,0,0,256.85,134.93Z"/><path d="M41.57,137.18h0a1.34,1.34,0,0,1-.37.12,2,2,0,0,1-.39,0,1.92,1.92,0,0,1-.69-.12,1.58,1.58,0,0,1-.54-.37,1.8,1.8,0,0,1-.36-.56,2.05,2.05,0,0,1-.13-.72,1.79,1.79,0,0,1,.15-.75,1.48,1.48,0,0,1,.4-.55,1.79,1.79,0,0,1,.6-.35,2.23,2.23,0,0,1,1.5,0,1.79,1.79,0,0,1,.6.35,1.48,1.48,0,0,1,.4.55,1.79,1.79,0,0,1,.15.75,3.14,3.14,0,0,1,0,.45,2.34,2.34,0,0,1-.12.4,1.84,1.84,0,0,1-.17.38,3.35,3.35,0,0,1-.21.36l-1.5,2.39h-.79Zm-.59-.42a1.28,1.28,0,0,0,.48-.09,1,1,0,0,0,.39-.24,1.23,1.23,0,0,0,.26-.37,1.3,1.3,0,0,0,0-1,1.1,1.1,0,0,0-.65-.62,1.48,1.48,0,0,0-1,0,1.1,1.1,0,0,0-.65.62,1.43,1.43,0,0,0,0,1,1.23,1.23,0,0,0,.26.37,1,1,0,0,0,.39.24A1.28,1.28,0,0,0,41,136.76Z"/><path d="M43.46,136.71a7.07,7.07,0,0,1,.08-1,2.94,2.94,0,0,1,.3-1,1.91,1.91,0,0,1,.59-.7,1.49,1.49,0,0,1,1-.28,1.54,1.54,0,0,1,1,.28,2,2,0,0,1,.59.7,3.19,3.19,0,0,1,.29,1,6.29,6.29,0,0,1,0,2,3.19,3.19,0,0,1-.29.95,2,2,0,0,1-.59.7,1.54,1.54,0,0,1-1,.28,1.49,1.49,0,0,1-1-.28,1.91,1.91,0,0,1-.59-.7,2.94,2.94,0,0,1-.3-.95A7.07,7.07,0,0,1,43.46,136.71Zm.67,0c0,.14,0,.29,0,.46a4.6,4.6,0,0,0,.06.52,3.18,3.18,0,0,0,.13.51,1.65,1.65,0,0,0,.22.44,1.12,1.12,0,0,0,.34.31,1.1,1.1,0,0,0,1,0,1.12,1.12,0,0,0,.34-.31,2,2,0,0,0,.23-.44,4.7,4.7,0,0,0,.12-.51,4.6,4.6,0,0,0,.06-.52c0-.17,0-.32,0-.46s0-.29,0-.46a4.6,4.6,0,0,0-.06-.52,4.7,4.7,0,0,0-.12-.51,2,2,0,0,0-.23-.44,1.12,1.12,0,0,0-.34-.31,1.1,1.1,0,0,0-1,0,1.12,1.12,0,0,0-.34.31,1.65,1.65,0,0,0-.22.44,3.18,3.18,0,0,0-.13.51,4.6,4.6,0,0,0-.06.52C44.14,136.42,44.13,136.57,44.13,136.71Z"/><path d="M48.06,134.93a1.13,1.13,0,0,1,.09-.45,1.06,1.06,0,0,1,.61-.61,1.13,1.13,0,0,1,.45-.09,1.08,1.08,0,0,1,.44.09,1.06,1.06,0,0,1,.61.61,1.13,1.13,0,0,1,.09.45,1,1,0,0,1-.09.44,1.06,1.06,0,0,1-.61.61,1.08,1.08,0,0,1-.44.09,1.13,1.13,0,0,1-.45-.09,1.06,1.06,0,0,1-.61-.61A1,1,0,0,1,48.06,134.93Zm.43,0a.53.53,0,0,0,.06.24.72.72,0,0,0,.14.24.69.69,0,0,0,.22.16.6.6,0,0,0,.3.07.73.73,0,0,0,.51-.23,1,1,0,0,0,.15-.24.69.69,0,0,0,.05-.24.74.74,0,0,0-.05-.25.76.76,0,0,0-.15-.23.62.62,0,0,0-.22-.17.73.73,0,0,0-.29-.07.73.73,0,0,0-.3.07.72.72,0,0,0-.22.17.59.59,0,0,0-.14.23A.57.57,0,0,0,48.49,134.93Z"/><path d="M148.37,38.51h-.68v-4.8h0l-1,.85-.4-.48,1.52-1.24h.59Z"/><path d="M150.49,34.23a1.48,1.48,0,0,1,.13-.61,1.2,1.2,0,0,1,.34-.46,1.44,1.44,0,0,1,.51-.3,1.92,1.92,0,0,1,1.28,0,1.44,1.44,0,0,1,.51.3,1.2,1.2,0,0,1,.34.46,1.33,1.33,0,0,1,.13.61,1.16,1.16,0,0,1-.07.4,1.41,1.41,0,0,1-.18.37,1.33,1.33,0,0,1-.29.29,1.18,1.18,0,0,1-.39.19h0a1.44,1.44,0,0,1,.46.19,1.35,1.35,0,0,1,.35.32,1.42,1.42,0,0,1,.23.44,1.7,1.7,0,0,1,.08.51,1.74,1.74,0,0,1-.14.69,1.43,1.43,0,0,1-.39.52,1.47,1.47,0,0,1-.57.33,2.35,2.35,0,0,1-1.42,0,1.47,1.47,0,0,1-.57-.33,1.55,1.55,0,0,1-.39-.52,1.74,1.74,0,0,1-.14-.69,1.7,1.7,0,0,1,.08-.51,1.67,1.67,0,0,1,.23-.44,1.35,1.35,0,0,1,.35-.32,1.44,1.44,0,0,1,.46-.19h0a1.18,1.18,0,0,1-.39-.19,1.33,1.33,0,0,1-.29-.29,1.41,1.41,0,0,1-.18-.37A1.46,1.46,0,0,1,150.49,34.23ZM151,36.9a1.18,1.18,0,0,0,.09.46,1.07,1.07,0,0,0,.25.35,1,1,0,0,0,.36.23,1.12,1.12,0,0,0,.88,0,1,1,0,0,0,.36-.23,1.07,1.07,0,0,0,.25-.35,1.18,1.18,0,0,0,.09-.46,1.14,1.14,0,0,0-.09-.46,1.13,1.13,0,0,0-.61-.58,1.12,1.12,0,0,0-.88,0,1.13,1.13,0,0,0-.61.58A1.14,1.14,0,0,0,151,36.9Zm.2-2.64a.88.88,0,0,0,.26.67,1,1,0,0,0,1.36,0,1,1,0,0,0,0-1.34,1,1,0,0,0-1.36,0A.88.88,0,0,0,151.17,34.26Z"/><path d="M154.64,35.68a7,7,0,0,1,.08-1,3.1,3.1,0,0,1,.29-1,2,2,0,0,1,.59-.71,1.6,1.6,0,0,1,1-.27,1.55,1.55,0,0,1,.95.27,1.94,1.94,0,0,1,.59.71,2.86,2.86,0,0,1,.3,1,7,7,0,0,1,.08,1,7.07,7.07,0,0,1-.08,1,2.88,2.88,0,0,1-.3.94,1.94,1.94,0,0,1-.59.71,1.55,1.55,0,0,1-.95.27,1.6,1.6,0,0,1-1-.27,2,2,0,0,1-.59-.71,3.13,3.13,0,0,1-.29-.94A7.07,7.07,0,0,1,154.64,35.68Zm.67,0c0,.13,0,.29,0,.46a4.88,4.88,0,0,0,.06.52,4.05,4.05,0,0,0,.12.5,1.66,1.66,0,0,0,.23.44,1.12,1.12,0,0,0,.34.31,1,1,0,0,0,1,0,1.12,1.12,0,0,0,.34-.31,1.4,1.4,0,0,0,.22-.44,2.83,2.83,0,0,0,.13-.5,4.88,4.88,0,0,0,.06-.52c0-.17,0-.33,0-.46s0-.3,0-.47a4.43,4.43,0,0,0-.06-.51,2.72,2.72,0,0,0-.13-.51,1.51,1.51,0,0,0-.22-.44,1.12,1.12,0,0,0-.34-.31,1,1,0,0,0-1,0,1.12,1.12,0,0,0-.34.31,1.83,1.83,0,0,0-.23.44,3.81,3.81,0,0,0-.12.51,4.43,4.43,0,0,0-.06.51C155.32,35.38,155.31,35.54,155.31,35.68Z"/><path d="M159.24,33.89a1.15,1.15,0,0,1,.33-.81,1,1,0,0,1,.37-.24,1,1,0,0,1,.44-.09,1.15,1.15,0,0,1,.82,2,1.15,1.15,0,0,1-.37.25,1.13,1.13,0,0,1-.45.09,1.15,1.15,0,0,1-.81-.34,1.15,1.15,0,0,1-.33-.81Zm.43,0a.79.79,0,0,0,.05.25,1.14,1.14,0,0,0,.15.23.62.62,0,0,0,.22.17.72.72,0,0,0,.29.06.68.68,0,0,0,.52-.23.79.79,0,0,0,.14-.23.65.65,0,0,0,0-.5.79.79,0,0,0-.14-.23.81.81,0,0,0-.23-.17.65.65,0,0,0-.29-.06.72.72,0,0,0-.29.06.76.76,0,0,0-.22.17,1.14,1.14,0,0,0-.15.23A.79.79,0,0,0,159.67,33.89Z"/><path d="M203.18,38.51h-.68v-4.8h0l-1,.85-.4-.48,1.52-1.24h.59Z"/><path d="M208.49,33.47h-2.31l0,1.53a1.08,1.08,0,0,1,.36-.11l.37,0a2,2,0,0,1,.74.14,1.61,1.61,0,0,1,.57.39,1.9,1.9,0,0,1,.37.59,2,2,0,0,1,.13.74,2,2,0,0,1-.15.78,1.74,1.74,0,0,1-.41.59,1.91,1.91,0,0,1-.61.38,2.2,2.2,0,0,1-.78.13,1.73,1.73,0,0,1-1-.28,2,2,0,0,1-.63-.75l.67-.25a1.31,1.31,0,0,0,.42.51,1.1,1.1,0,0,0,.64.2,1.28,1.28,0,0,0,.48-.09,1.26,1.26,0,0,0,.38-.27,1.15,1.15,0,0,0,.26-.41,1.53,1.53,0,0,0,.1-.54,1.38,1.38,0,0,0-.11-.55,1.08,1.08,0,0,0-.3-.4,1.26,1.26,0,0,0-.44-.25,1.67,1.67,0,0,0-.55-.08,1.84,1.84,0,0,0-.6.1,2.58,2.58,0,0,0-.56.25l.06-2.95h3Z"/><path d="M209.45,35.68a7,7,0,0,1,.08-1,3.1,3.1,0,0,1,.29-1,2,2,0,0,1,.59-.71,1.6,1.6,0,0,1,1-.27,1.55,1.55,0,0,1,.95.27,1.94,1.94,0,0,1,.59.71,2.86,2.86,0,0,1,.3,1,7,7,0,0,1,.08,1,7.07,7.07,0,0,1-.08,1,2.88,2.88,0,0,1-.3.94,1.94,1.94,0,0,1-.59.71,1.55,1.55,0,0,1-.95.27,1.6,1.6,0,0,1-1-.27,2,2,0,0,1-.59-.71,3.13,3.13,0,0,1-.29-.94A7.07,7.07,0,0,1,209.45,35.68Zm.67,0c0,.13,0,.29,0,.46a4.88,4.88,0,0,0,.06.52,4.05,4.05,0,0,0,.12.5,1.66,1.66,0,0,0,.23.44,1,1,0,0,0,.34.31.9.9,0,0,0,.48.12,1,1,0,0,0,.48-.12,1.24,1.24,0,0,0,.34-.31,1.4,1.4,0,0,0,.22-.44,2.83,2.83,0,0,0,.13-.5,4.88,4.88,0,0,0,.06-.52c0-.17,0-.33,0-.46s0-.3,0-.47a4.43,4.43,0,0,0-.06-.51,2.72,2.72,0,0,0-.13-.51,1.51,1.51,0,0,0-.22-.44,1.24,1.24,0,0,0-.34-.31,1,1,0,0,0-.48-.12.9.9,0,0,0-.48.12,1,1,0,0,0-.34.31,1.83,1.83,0,0,0-.23.44,3.81,3.81,0,0,0-.12.51,4.43,4.43,0,0,0-.06.51C210.13,35.38,210.12,35.54,210.12,35.68Z"/><path d="M214.05,33.89a1.15,1.15,0,0,1,.33-.81,1,1,0,0,1,.37-.24,1,1,0,0,1,.44-.09,1.13,1.13,0,0,1,.45.09,1,1,0,0,1,.36.24,1,1,0,0,1,.25.36,1.17,1.17,0,0,1,0,.9,1.23,1.23,0,0,1-.61.61,1.13,1.13,0,0,1-.45.09,1.15,1.15,0,0,1-.81-.34,1.15,1.15,0,0,1-.33-.81Zm.43,0a.79.79,0,0,0,.05.25,1.14,1.14,0,0,0,.15.23.62.62,0,0,0,.22.17.72.72,0,0,0,.29.06.68.68,0,0,0,.52-.23.79.79,0,0,0,.14-.23.65.65,0,0,0,0-.5.79.79,0,0,0-.14-.23.81.81,0,0,0-.23-.17.65.65,0,0,0-.29-.06.72.72,0,0,0-.29.06.76.76,0,0,0-.22.17,1.14,1.14,0,0,0-.15.23A.79.79,0,0,0,214.48,33.89Z"/><path d="M93.61,38.51h-.67v-4.8h0l-1,.85-.4-.48L93,32.84h.58Z"/><path d="M98.92,33.47H96.61l0,1.53a1,1,0,0,1,.35-.11l.37,0a1.91,1.91,0,0,1,.74.14,1.65,1.65,0,0,1,.58.39A1.71,1.71,0,0,1,99,36a2,2,0,0,1,.13.74,2,2,0,0,1-.15.78,1.71,1.71,0,0,1-.4.59,2,2,0,0,1-.62.38,2.15,2.15,0,0,1-.77.13,1.78,1.78,0,0,1-1.05-.28,1.85,1.85,0,0,1-.62-.75l.67-.25a1.16,1.16,0,0,0,.42.51,1.05,1.05,0,0,0,.63.2,1.28,1.28,0,0,0,.48-.09,1.23,1.23,0,0,0,.64-.68,1.33,1.33,0,0,0,.1-.54,1.38,1.38,0,0,0-.11-.55,1.18,1.18,0,0,0-.29-.4,1.41,1.41,0,0,0-.45-.25,1.63,1.63,0,0,0-.55-.08,1.78,1.78,0,0,0-.59.1,2.58,2.58,0,0,0-.56.25l0-2.95h3Z"/><path d="M99.88,35.68a7,7,0,0,1,.08-1,3.11,3.11,0,0,1,.3-1,1.94,1.94,0,0,1,.59-.71,1.55,1.55,0,0,1,1-.27,1.6,1.6,0,0,1,1,.27,2,2,0,0,1,.59.71,3.1,3.1,0,0,1,.29,1,5.77,5.77,0,0,1,.08,1,5.85,5.85,0,0,1-.08,1,3.13,3.13,0,0,1-.29.94,2,2,0,0,1-.59.71,1.6,1.6,0,0,1-1,.27,1.55,1.55,0,0,1-1-.27,1.94,1.94,0,0,1-.59-.71,3.14,3.14,0,0,1-.3-.94A7.07,7.07,0,0,1,99.88,35.68Zm.67,0c0,.13,0,.29,0,.46a4.88,4.88,0,0,0,.06.52,2.83,2.83,0,0,0,.13.5,1.4,1.4,0,0,0,.22.44,1.24,1.24,0,0,0,.34.31,1,1,0,0,0,.48.12.9.9,0,0,0,.48-.12,1,1,0,0,0,.34-.31,1.41,1.41,0,0,0,.23-.44,4.05,4.05,0,0,0,.12-.5,4.88,4.88,0,0,0,.06-.52c0-.17,0-.33,0-.46s0-.3,0-.47a4.43,4.43,0,0,0-.06-.51,3.81,3.81,0,0,0-.12-.51,1.53,1.53,0,0,0-.23-.44,1,1,0,0,0-.34-.31.9.9,0,0,0-.48-.12,1,1,0,0,0-.48.12,1.24,1.24,0,0,0-.34.31,1.51,1.51,0,0,0-.22.44,2.72,2.72,0,0,0-.13.51,4.43,4.43,0,0,0-.06.51C100.56,35.38,100.55,35.54,100.55,35.68Z"/><path d="M104.48,33.89a1.15,1.15,0,0,1,1.15-1.14,1,1,0,0,1,.44.09,1.12,1.12,0,0,1,.37.24,1.16,1.16,0,0,1,0,1.62,1.15,1.15,0,0,1-.37.25,1,1,0,0,1-.44.09,1.13,1.13,0,0,1-.45-.09,1.15,1.15,0,0,1-.37-.25,1.15,1.15,0,0,1-.33-.81Zm.43,0a.61.61,0,0,0,.06.25.79.79,0,0,0,.14.23.72.72,0,0,0,.22.17.73.73,0,0,0,.3.06.72.72,0,0,0,.29-.06.62.62,0,0,0,.22-.17,1.14,1.14,0,0,0,.15-.23.65.65,0,0,0,0-.5,1.14,1.14,0,0,0-.15-.23.76.76,0,0,0-.22-.17.72.72,0,0,0-.29-.06.73.73,0,0,0-.3.06.92.92,0,0,0-.22.17.79.79,0,0,0-.14.23A.61.61,0,0,0,104.91,33.89Z"/><path d="M248.75,192.45v0a1.35,1.35,0,0,1,.37-.13,2,2,0,0,1,.39,0,1.73,1.73,0,0,1,.69.13,1.42,1.42,0,0,1,.54.36,1.85,1.85,0,0,1,.36.57,2,2,0,0,1,.12.72,1.78,1.78,0,0,1-.14.74,1.74,1.74,0,0,1-.4.56,2,2,0,0,1-.6.35,2.36,2.36,0,0,1-.75.12,2.27,2.27,0,0,1-.75-.12,2,2,0,0,1-.6-.35,1.6,1.6,0,0,1-.4-.56,1.78,1.78,0,0,1-.15-.74,2.24,2.24,0,0,1,.15-.86,5.28,5.28,0,0,1,.39-.74l1.5-2.39h.79Zm.59.43a1.23,1.23,0,0,0-.87.32,1,1,0,0,0-.26.38,1.31,1.31,0,0,0-.1.5,1.35,1.35,0,0,0,.1.5,1.08,1.08,0,0,0,.26.37,1,1,0,0,0,.39.24,1.32,1.32,0,0,0,1,0,1,1,0,0,0,.39-.24,1.23,1.23,0,0,0,.26-.37,1.35,1.35,0,0,0,.09-.5,1.31,1.31,0,0,0-.09-.5,1.16,1.16,0,0,0-.26-.38,1.23,1.23,0,0,0-.87-.32Z"/><path d="M251.82,192.92a7.07,7.07,0,0,1,.08-1,3.13,3.13,0,0,1,.29-.94,2,2,0,0,1,.59-.71,1.6,1.6,0,0,1,1-.27,1.55,1.55,0,0,1,.95.27,1.94,1.94,0,0,1,.59.71,2.88,2.88,0,0,1,.3.94,7.07,7.07,0,0,1,.08,1,7,7,0,0,1-.08,1,2.86,2.86,0,0,1-.3,1,1.94,1.94,0,0,1-.59.71,1.55,1.55,0,0,1-.95.27,1.6,1.6,0,0,1-1-.27,2,2,0,0,1-.59-.71,3.1,3.1,0,0,1-.29-1A7,7,0,0,1,251.82,192.92Zm.67,0c0,.14,0,.3,0,.47a4.43,4.43,0,0,0,.06.51,3.81,3.81,0,0,0,.12.51,1.83,1.83,0,0,0,.23.44,1,1,0,0,0,.34.31.9.9,0,0,0,.48.12,1,1,0,0,0,.48-.12,1.24,1.24,0,0,0,.34-.31,1.51,1.51,0,0,0,.22-.44,2.72,2.72,0,0,0,.13-.51,4.43,4.43,0,0,0,.06-.51c0-.17,0-.33,0-.47s0-.29,0-.46a4.88,4.88,0,0,0-.06-.52,2.83,2.83,0,0,0-.13-.5,1.4,1.4,0,0,0-.22-.44,1.1,1.1,0,0,0-.34-.31,1,1,0,0,0-.48-.12.9.9,0,0,0-.48.12.92.92,0,0,0-.34.31,1.66,1.66,0,0,0-.23.44,4.05,4.05,0,0,0-.12.5,4.88,4.88,0,0,0-.06.52C252.5,192.63,252.49,192.79,252.49,192.92Z"/><path d="M256.42,191.14a1.15,1.15,0,0,1,.33-.81,1.05,1.05,0,0,1,.37-.25,1.23,1.23,0,0,1,.44-.08,1.33,1.33,0,0,1,.45.08,1.15,1.15,0,0,1,.37.25,1.16,1.16,0,0,1,0,1.62,1.15,1.15,0,0,1-.37.25,1.33,1.33,0,0,1-.45.08,1.23,1.23,0,0,1-.44-.08,1.05,1.05,0,0,1-.37-.25,1.15,1.15,0,0,1-.33-.81Zm.43,0a.79.79,0,0,0,0,.25,1.14,1.14,0,0,0,.15.23.62.62,0,0,0,.22.17.72.72,0,0,0,.29.06.68.68,0,0,0,.52-.23.79.79,0,0,0,.14-.23.65.65,0,0,0,0-.5.79.79,0,0,0-.14-.23.68.68,0,0,0-.52-.23.72.72,0,0,0-.29.06.62.62,0,0,0-.22.17,1.14,1.14,0,0,0-.15.23A.79.79,0,0,0,256.85,191.14Z"/><path d="M250,81.22h-.67v-4.8h0l-1,.86-.4-.49,1.52-1.23H250Z"/><path d="M251.92,80.45l2.13-2.08c.13-.12.25-.24.35-.35a2.16,2.16,0,0,0,.25-.32,1.09,1.09,0,0,0,.15-.33,1.38,1.38,0,0,0,0-.37,1,1,0,0,0-.08-.4.84.84,0,0,0-.22-.3.78.78,0,0,0-.33-.19,1.05,1.05,0,0,0-.4-.07,1,1,0,0,0-.71.25,1.08,1.08,0,0,0-.36.65l-.73-.06a1.83,1.83,0,0,1,.21-.61,1.41,1.41,0,0,1,.39-.45,2,2,0,0,1,.53-.27,2.25,2.25,0,0,1,.64-.09,2.41,2.41,0,0,1,.67.1,1.92,1.92,0,0,1,.55.29,1.44,1.44,0,0,1,.51,1.15,2,2,0,0,1-.09.61,2,2,0,0,1-.25.5,3.47,3.47,0,0,1-.35.43l-.41.4-1.75,1.64v0h2.89v.62h-3.64Z"/><path d="M256.27,78.39a5.85,5.85,0,0,1,.08-1,3.19,3.19,0,0,1,.29-1,2,2,0,0,1,.59-.7,1.54,1.54,0,0,1,1-.28,1.51,1.51,0,0,1,.95.28,1.91,1.91,0,0,1,.59.7,3.2,3.2,0,0,1,.3,1,6.29,6.29,0,0,1,0,2,3.2,3.2,0,0,1-.3,1,1.91,1.91,0,0,1-.59.7,1.51,1.51,0,0,1-.95.28,1.54,1.54,0,0,1-1-.28,2,2,0,0,1-.59-.7,3.19,3.19,0,0,1-.29-1A5.85,5.85,0,0,1,256.27,78.39Zm.67,0a3.78,3.78,0,0,0,0,.46c0,.17,0,.35.05.52a4.77,4.77,0,0,0,.13.51,1.67,1.67,0,0,0,.23.44,1,1,0,0,0,.34.31,1,1,0,0,0,.48.11,1.06,1.06,0,0,0,.48-.11,1.24,1.24,0,0,0,.34-.31,2,2,0,0,0,.22-.44,3.18,3.18,0,0,0,.13-.51,4.6,4.6,0,0,0,.06-.52c0-.17,0-.32,0-.46s0-.29,0-.46a4.35,4.35,0,0,0-.06-.52,3.18,3.18,0,0,0-.13-.51,2,2,0,0,0-.22-.44,1.24,1.24,0,0,0-.34-.31,1.06,1.06,0,0,0-.48-.11,1,1,0,0,0-.48.11,1,1,0,0,0-.34.31,1.67,1.67,0,0,0-.23.44,4.77,4.77,0,0,0-.13.51c0,.17,0,.34-.05.52A3.78,3.78,0,0,0,256.94,78.39Z"/><path d="M260.87,76.61a1.13,1.13,0,0,1,.09-.45,1,1,0,0,1,.24-.37,1.16,1.16,0,0,1,1.62,0,1.15,1.15,0,0,1,.25.37,1.13,1.13,0,0,1,.09.45,1,1,0,0,1-.09.44,1.15,1.15,0,0,1-.25.37,1.16,1.16,0,0,1-1.62,0,1,1,0,0,1-.24-.37A1,1,0,0,1,260.87,76.61Zm.43,0a.69.69,0,0,0,.05.24.75.75,0,0,0,.15.24.6.6,0,0,0,.22.16.64.64,0,0,0,.58,0,.63.63,0,0,0,.23-.16.72.72,0,0,0,.14-.24.52.52,0,0,0,.05-.24.56.56,0,0,0-.05-.25.59.59,0,0,0-.14-.23.66.66,0,0,0-.23-.17.64.64,0,0,0-.58,0,.62.62,0,0,0-.22.17.61.61,0,0,0-.15.23A.74.74,0,0,0,261.3,76.61Z"/><path d="M40.39,192.45v0a1.42,1.42,0,0,1,.38-.13,1.84,1.84,0,0,1,.39,0,1.72,1.72,0,0,1,.68.13,1.42,1.42,0,0,1,.54.36,1.85,1.85,0,0,1,.36.57,2,2,0,0,1,.13.72,1.78,1.78,0,0,1-.15.74,1.6,1.6,0,0,1-.4.56,2,2,0,0,1-.6.35,2.4,2.4,0,0,1-1.5,0,2,2,0,0,1-.6-.35,1.6,1.6,0,0,1-.4-.56,1.78,1.78,0,0,1-.15-.74,2.24,2.24,0,0,1,.16-.86,5.19,5.19,0,0,1,.38-.74l1.5-2.39h.79Zm.59.43a1.23,1.23,0,0,0-.87.32,1.16,1.16,0,0,0-.26.38,1.31,1.31,0,0,0-.09.5,1.35,1.35,0,0,0,.09.5,1.23,1.23,0,0,0,.26.37,1,1,0,0,0,.39.24,1.32,1.32,0,0,0,1,0,1,1,0,0,0,.39-.24,1.23,1.23,0,0,0,.26-.37,1.35,1.35,0,0,0,.1-.5,1.31,1.31,0,0,0-.1-.5,1.16,1.16,0,0,0-.26-.38,1.23,1.23,0,0,0-.87-.32Z"/><path d="M43.46,192.92a7.07,7.07,0,0,1,.08-1,2.88,2.88,0,0,1,.3-.94,1.94,1.94,0,0,1,.59-.71,1.55,1.55,0,0,1,1-.27,1.6,1.6,0,0,1,1,.27,2,2,0,0,1,.59.71,3.13,3.13,0,0,1,.29.94,7.07,7.07,0,0,1,.08,1,7,7,0,0,1-.08,1,3.1,3.1,0,0,1-.29,1,2,2,0,0,1-.59.71,1.6,1.6,0,0,1-1,.27,1.55,1.55,0,0,1-1-.27,1.94,1.94,0,0,1-.59-.71,2.86,2.86,0,0,1-.3-1A7,7,0,0,1,43.46,192.92Zm.67,0c0,.14,0,.3,0,.47a4.43,4.43,0,0,0,.06.51,2.72,2.72,0,0,0,.13.51,1.51,1.51,0,0,0,.22.44,1.12,1.12,0,0,0,.34.31,1,1,0,0,0,1,0,1.12,1.12,0,0,0,.34-.31,1.83,1.83,0,0,0,.23-.44,3.81,3.81,0,0,0,.12-.51,4.43,4.43,0,0,0,.06-.51c0-.17,0-.33,0-.47s0-.29,0-.46a4.88,4.88,0,0,0-.06-.52,4.05,4.05,0,0,0-.12-.5,1.66,1.66,0,0,0-.23-.44,1,1,0,0,0-.34-.31,1,1,0,0,0-1,0,1,1,0,0,0-.34.31,1.4,1.4,0,0,0-.22.44,2.83,2.83,0,0,0-.13.5,4.88,4.88,0,0,0-.06.52C44.14,192.63,44.13,192.79,44.13,192.92Z"/><path d="M48.06,191.14a1.15,1.15,0,0,1,.33-.81,1.15,1.15,0,0,1,.37-.25,1.33,1.33,0,0,1,.45-.08,1.27,1.27,0,0,1,.44.08,1.15,1.15,0,0,1,.37.25A1.16,1.16,0,0,1,50,192a1.15,1.15,0,0,1-.37.25,1.27,1.27,0,0,1-.44.08,1.33,1.33,0,0,1-.45-.08,1.15,1.15,0,0,1-.37-.25,1.15,1.15,0,0,1-.33-.81Zm.43,0a.61.61,0,0,0,.06.25.79.79,0,0,0,.14.23.72.72,0,0,0,.22.17.73.73,0,0,0,.3.06.72.72,0,0,0,.29-.06.62.62,0,0,0,.22-.17,1.14,1.14,0,0,0,.15-.23.65.65,0,0,0,0-.5,1.14,1.14,0,0,0-.15-.23.62.62,0,0,0-.22-.17.72.72,0,0,0-.29-.06.73.73,0,0,0-.3.06.72.72,0,0,0-.22.17.79.79,0,0,0-.14.23A.61.61,0,0,0,48.49,191.14Z"/><path d="M39.15,81.22h-.67v-4.8h0l-1,.86-.4-.49,1.52-1.23h.58Z"/><path d="M41.07,80.45l2.14-2.08c.13-.12.25-.24.35-.35a2.16,2.16,0,0,0,.25-.32,1.09,1.09,0,0,0,.15-.33A1.38,1.38,0,0,0,44,77a1,1,0,0,0-.08-.4.84.84,0,0,0-.22-.3.78.78,0,0,0-.33-.19A1.05,1.05,0,0,0,43,76a1,1,0,0,0-.72.25,1.19,1.19,0,0,0-.36.65l-.72-.06a1.47,1.47,0,0,1,.21-.61,1.41,1.41,0,0,1,.39-.45,2,2,0,0,1,.53-.27,2.2,2.2,0,0,1,.64-.09,2.41,2.41,0,0,1,.67.1,2.06,2.06,0,0,1,.55.29,1.47,1.47,0,0,1,.37.48,1.6,1.6,0,0,1,.14.67,2,2,0,0,1-.09.61,2.34,2.34,0,0,1-.25.5,3.47,3.47,0,0,1-.35.43l-.41.4-1.75,1.64v0h2.89v.62H41.07Z"/><path d="M45.43,78.39a7,7,0,0,1,.07-1,3.52,3.52,0,0,1,.3-1,2,2,0,0,1,.59-.7,1.77,1.77,0,0,1,1.91,0,1.91,1.91,0,0,1,.59.7,3.52,3.52,0,0,1,.3,1,6.29,6.29,0,0,1,0,2,3.52,3.52,0,0,1-.3,1,1.91,1.91,0,0,1-.59.7,1.77,1.77,0,0,1-1.91,0,2,2,0,0,1-.59-.7,3.52,3.52,0,0,1-.3-1A7,7,0,0,1,45.43,78.39Zm.67,0c0,.14,0,.29,0,.46a4.6,4.6,0,0,0,.06.52,4.77,4.77,0,0,0,.13.51,2,2,0,0,0,.22.44,1.15,1.15,0,0,0,.35.31,1,1,0,0,0,.48.11,1.06,1.06,0,0,0,.48-.11,1.24,1.24,0,0,0,.34-.31,2,2,0,0,0,.22-.44,3.18,3.18,0,0,0,.13-.51,4.6,4.6,0,0,0,.06-.52c0-.17,0-.32,0-.46s0-.29,0-.46a4.35,4.35,0,0,0-.06-.52,3.18,3.18,0,0,0-.13-.51,2,2,0,0,0-.22-.44,1.24,1.24,0,0,0-.34-.31,1.06,1.06,0,0,0-.48-.11,1,1,0,0,0-.48.11,1.15,1.15,0,0,0-.35.31,2,2,0,0,0-.22.44,4.77,4.77,0,0,0-.13.51,4.35,4.35,0,0,0-.06.52C46.1,78.1,46.1,78.25,46.1,78.39Z"/><path d="M50,76.61a1.12,1.12,0,0,1,.08-.45,1.15,1.15,0,0,1,.25-.37,1.16,1.16,0,0,1,1.62,0,1.15,1.15,0,0,1,.25.37,1.33,1.33,0,0,1,.08.45,1.23,1.23,0,0,1-.08.44,1.15,1.15,0,0,1-.25.37,1.16,1.16,0,0,1-1.62,0,1.15,1.15,0,0,1-.25-.37A1,1,0,0,1,50,76.61Zm.43,0a.52.52,0,0,0,0,.24.72.72,0,0,0,.14.24.63.63,0,0,0,.23.16.64.64,0,0,0,.58,0,.73.73,0,0,0,.23-.16,1,1,0,0,0,.14-.24.69.69,0,0,0,.05-.24.75.75,0,0,0-.19-.48.76.76,0,0,0-.23-.17.64.64,0,0,0-.58,0,.66.66,0,0,0-.23.17.59.59,0,0,0-.14.23A.56.56,0,0,0,50.46,76.61Z"/></g><g id="numeri_fondo_tabella" data-name="numeri fondo tabella"><path d="M131.83,251.42a1.17,1.17,0,0,0-.43-.35,1.19,1.19,0,0,0-.51-.11,1.35,1.35,0,0,0-.55.11,1.08,1.08,0,0,0-.4.3,1.32,1.32,0,0,0-.23.44,1.76,1.76,0,0,0,0,1.08,1.43,1.43,0,0,0,.26.45,1.31,1.31,0,0,0,.39.3,1.27,1.27,0,0,0,.52.1,1.09,1.09,0,0,0,1-.46l.47.44a1.69,1.69,0,0,1-.64.46,2.29,2.29,0,0,1-.78.14,2.22,2.22,0,0,1-.79-.14,1.75,1.75,0,0,1-1-1,2.27,2.27,0,0,1,0-1.57,1.86,1.86,0,0,1,.39-.63,2,2,0,0,1,.61-.41,2,2,0,0,1,.79-.15,2.09,2.09,0,0,1,.79.15,1.59,1.59,0,0,1,.65.45Z"/><path d="M136.21,253.56h0a1.43,1.43,0,0,1-.55.54,1.7,1.7,0,0,1-.89.22,1.8,1.8,0,0,1-.73-.15,1.78,1.78,0,0,1-.6-.41,1.81,1.81,0,0,1-.39-.62,2.06,2.06,0,0,1-.15-.79,2,2,0,0,1,.15-.78,1.88,1.88,0,0,1,.4-.63,1.81,1.81,0,0,1,.62-.41,2.07,2.07,0,0,1,.8-.15,1.72,1.72,0,0,1,.75.17,1.78,1.78,0,0,1,.59.47h0v-2.84h.62v6h-.62Zm0-1.21a1.63,1.63,0,0,0-.09-.55,1.34,1.34,0,0,0-.27-.44,1.37,1.37,0,0,0-.42-.29,1.35,1.35,0,0,0-.55-.11,1.42,1.42,0,0,0-.55.11,1.22,1.22,0,0,0-.41.29,1.34,1.34,0,0,0-.27.44,1.56,1.56,0,0,0,0,1.1,1.25,1.25,0,0,0,.27.44,1.19,1.19,0,0,0,1,.4,1.35,1.35,0,0,0,.55-.1,1.6,1.6,0,0,0,.42-.3,1.25,1.25,0,0,0,.27-.44A1.63,1.63,0,0,0,136.21,252.35Z"/><path d="M140.1,254.57l-.5-.2,2.4-6.15.51.2Z"/><path d="M147.64,254.22H147v-4.8h0l-1,.86-.4-.49,1.52-1.23h.59Z"/><path d="M149.46,251.39a7.07,7.07,0,0,1,.08-1,3.19,3.19,0,0,1,.29-.95,2,2,0,0,1,.59-.7,1.61,1.61,0,0,1,1-.28,1.55,1.55,0,0,1,1,.28,1.91,1.91,0,0,1,.59.7,2.94,2.94,0,0,1,.3.95,6.29,6.29,0,0,1,0,2,2.94,2.94,0,0,1-.3,1,1.91,1.91,0,0,1-.59.7,1.49,1.49,0,0,1-1,.28,1.54,1.54,0,0,1-1-.28,2,2,0,0,1-.59-.7,3.19,3.19,0,0,1-.29-1A7.07,7.07,0,0,1,149.46,251.39Zm.67,0c0,.14,0,.29,0,.47a4.43,4.43,0,0,0,.06.51,4.7,4.7,0,0,0,.12.51,2,2,0,0,0,.23.44,1.12,1.12,0,0,0,.34.31,1.1,1.1,0,0,0,1,0,1.12,1.12,0,0,0,.34-.31,1.65,1.65,0,0,0,.22-.44,3.18,3.18,0,0,0,.13-.51,4.43,4.43,0,0,0,.06-.51c0-.18,0-.33,0-.47s0-.29,0-.46a4.6,4.6,0,0,0-.06-.52,3.18,3.18,0,0,0-.13-.51,1.65,1.65,0,0,0-.22-.44,1.08,1.08,0,0,0-.34-.3,1,1,0,0,0-1,0,1.08,1.08,0,0,0-.34.3,2,2,0,0,0-.23.44,4.7,4.7,0,0,0-.12.51,4.6,4.6,0,0,0-.06.52C150.14,251.1,150.13,251.25,150.13,251.39Z"/><path d="M153.91,251.39a5.85,5.85,0,0,1,.08-1,3.19,3.19,0,0,1,.29-.95,2,2,0,0,1,.59-.7,1.61,1.61,0,0,1,1-.28,1.55,1.55,0,0,1,.95.28,1.91,1.91,0,0,1,.59.7,3.2,3.2,0,0,1,.3.95,6.29,6.29,0,0,1,0,2,3.2,3.2,0,0,1-.3,1,1.91,1.91,0,0,1-.59.7,1.49,1.49,0,0,1-.95.28,1.54,1.54,0,0,1-1-.28,2,2,0,0,1-.59-.7,3.19,3.19,0,0,1-.29-1A5.85,5.85,0,0,1,153.91,251.39Zm.67,0a4,4,0,0,0,0,.47,4.43,4.43,0,0,0,.06.51,3.14,3.14,0,0,0,.12.51,1.67,1.67,0,0,0,.23.44,1,1,0,0,0,.34.31.9.9,0,0,0,.48.11,1,1,0,0,0,.48-.11,1.24,1.24,0,0,0,.34-.31,1.65,1.65,0,0,0,.22-.44,3.18,3.18,0,0,0,.13-.51,4.43,4.43,0,0,0,.06-.51c0-.18,0-.33,0-.47s0-.29,0-.46a4.6,4.6,0,0,0-.06-.52,3.18,3.18,0,0,0-.13-.51,1.65,1.65,0,0,0-.22-.44,1.21,1.21,0,0,0-.34-.3,1,1,0,0,0-.48-.12.9.9,0,0,0-.48.12,1,1,0,0,0-.34.3,1.67,1.67,0,0,0-.23.44,3.14,3.14,0,0,0-.12.51,4.6,4.6,0,0,0-.06.52A3.78,3.78,0,0,0,154.58,251.39Z"/><path d="M158.31,251.39a5.85,5.85,0,0,1,.08-1,3.19,3.19,0,0,1,.29-.95,2,2,0,0,1,.59-.7,1.61,1.61,0,0,1,1-.28,1.55,1.55,0,0,1,1,.28,1.91,1.91,0,0,1,.59.7,3.2,3.2,0,0,1,.3.95,6.29,6.29,0,0,1,0,2,3.2,3.2,0,0,1-.3,1,1.91,1.91,0,0,1-.59.7,1.49,1.49,0,0,1-1,.28,1.54,1.54,0,0,1-1-.28,2,2,0,0,1-.59-.7,3.19,3.19,0,0,1-.29-1A5.85,5.85,0,0,1,158.31,251.39Zm.67,0c0,.14,0,.29,0,.47a4.43,4.43,0,0,0,.06.51,3.14,3.14,0,0,0,.12.51,1.67,1.67,0,0,0,.23.44,1,1,0,0,0,.34.31.9.9,0,0,0,.48.11,1,1,0,0,0,.48-.11,1.24,1.24,0,0,0,.34-.31,1.65,1.65,0,0,0,.22-.44,3.18,3.18,0,0,0,.13-.51,4.43,4.43,0,0,0,.06-.51c0-.18,0-.33,0-.47s0-.29,0-.46a4.6,4.6,0,0,0-.06-.52,3.18,3.18,0,0,0-.13-.51,1.65,1.65,0,0,0-.22-.44,1.21,1.21,0,0,0-.34-.3,1,1,0,0,0-.48-.12.9.9,0,0,0-.48.12,1,1,0,0,0-.34.3,1.67,1.67,0,0,0-.23.44,3.14,3.14,0,0,0-.12.51,4.6,4.6,0,0,0-.06.52C159,251.1,159,251.25,159,251.39Z"/><path d="M165.32,248.18H166v6h-.63Z"/><path d="M167.19,251.37c0-.17,0-.33,0-.48s0-.29,0-.41h.59c0,.1,0,.2,0,.3v.32h0a.91.91,0,0,1,.18-.27,1.64,1.64,0,0,1,.28-.23,1.5,1.5,0,0,1,.36-.16,1.44,1.44,0,0,1,.43-.06,1.52,1.52,0,0,1,.51.08,1.36,1.36,0,0,1,.34.18.93.93,0,0,1,.21.24,1.64,1.64,0,0,1,.12.22,1.78,1.78,0,0,1,.48-.53,1.27,1.27,0,0,1,.71-.19,1.88,1.88,0,0,1,.67.11,1.1,1.1,0,0,1,.44.31,1.37,1.37,0,0,1,.24.5,2.59,2.59,0,0,1,.07.65v2.27h-.62V252a2.33,2.33,0,0,0,0-.37,1,1,0,0,0-.15-.33.71.71,0,0,0-.28-.23,1,1,0,0,0-.45-.09,1,1,0,0,0-.37.08,1,1,0,0,0-.31.22,1.13,1.13,0,0,0-.21.35,1.33,1.33,0,0,0-.07.45v2.16h-.63V252.1a1.62,1.62,0,0,0-.17-.88A.6.6,0,0,0,169,251a1.18,1.18,0,0,0-.52.1.88.88,0,0,0-.36.3,1.14,1.14,0,0,0-.21.46,2.1,2.1,0,0,0-.07.58v1.82h-.62Z"/><line class="cls-1" x1="38.21" y1="253" x2="46.2" y2="253"/><path d="M235.17,251a1.66,1.66,0,0,0-.63-.52,1.93,1.93,0,0,0-.79-.17,2.13,2.13,0,0,0-.87.19,2.16,2.16,0,0,0-.68.52,2.58,2.58,0,0,0-.45.75,2.69,2.69,0,0,0-.16.89,2.79,2.79,0,0,0,.16.93,2.41,2.41,0,0,0,.45.74,2,2,0,0,0,.68.5,1.92,1.92,0,0,0,.87.19,2,2,0,0,0,1.64-.8l.51.43a2.38,2.38,0,0,1-.93.75,3,3,0,0,1-1.22.24,2.85,2.85,0,0,1-1.13-.22,2.82,2.82,0,0,1-.92-.62,3,3,0,0,1-.61-.94,3.33,3.33,0,0,1-.22-1.2,3.19,3.19,0,0,1,.21-1.16,2.9,2.9,0,0,1,.6-1,3.08,3.08,0,0,1,.91-.63,3,3,0,0,1,2.27,0,2,2,0,0,1,.89.68Z"/><path d="M239,253.1l0,0a1.35,1.35,0,0,1-.37.13,2.87,2.87,0,0,1-.39,0,1.68,1.68,0,0,1-.68-.13,1.5,1.5,0,0,1-.55-.36,1.92,1.92,0,0,1-.36-.56,2.11,2.11,0,0,1-.12-.73,1.75,1.75,0,0,1,.14-.74,1.63,1.63,0,0,1,.4-.56,1.79,1.79,0,0,1,.6-.35,2.36,2.36,0,0,1,.75-.12,2.27,2.27,0,0,1,.75.12,1.94,1.94,0,0,1,.61.35,1.49,1.49,0,0,1,.39.56,1.75,1.75,0,0,1,.15.74,2.19,2.19,0,0,1,0,.46c0,.14-.07.27-.11.4a2.53,2.53,0,0,1-.18.37,3.35,3.35,0,0,1-.21.36l-1.5,2.4h-.79Zm-.6-.43a1.51,1.51,0,0,0,.48-.08,1.28,1.28,0,0,0,.39-.24,1.12,1.12,0,0,0,.26-.38,1.27,1.27,0,0,0,.1-.5,1.26,1.26,0,0,0-.1-.49,1,1,0,0,0-.26-.38,1,1,0,0,0-.39-.24,1.33,1.33,0,0,0-1,0,.88.88,0,0,0-.38.24,1.19,1.19,0,0,0-.27.38,1.26,1.26,0,0,0-.09.49,1.28,1.28,0,0,0,.09.5,1.31,1.31,0,0,0,.27.38,1.12,1.12,0,0,0,.38.24A1.51,1.51,0,0,0,238.35,252.67Z"/><path d="M240.88,252.62a7.07,7.07,0,0,1,.08-1,2.88,2.88,0,0,1,.3-.94,2,2,0,0,1,.58-.71,1.84,1.84,0,0,1,1.92,0,2,2,0,0,1,.58.71,2.88,2.88,0,0,1,.3.94,7.07,7.07,0,0,1,.08,1,7,7,0,0,1-.08,1,2.86,2.86,0,0,1-.3.95,2,2,0,0,1-.58.71,1.84,1.84,0,0,1-1.92,0,2,2,0,0,1-.58-.71,2.86,2.86,0,0,1-.3-.95A7,7,0,0,1,240.88,252.62Zm.67,0c0,.14,0,.3,0,.47a4.43,4.43,0,0,0,.06.51,2.72,2.72,0,0,0,.13.51,1.51,1.51,0,0,0,.22.44,1.12,1.12,0,0,0,.34.31,1,1,0,0,0,1,0,1.12,1.12,0,0,0,.34-.31,1.51,1.51,0,0,0,.22-.44,2.72,2.72,0,0,0,.13-.51,4.43,4.43,0,0,0,.06-.51c0-.17,0-.33,0-.47s0-.29,0-.46a4.88,4.88,0,0,0-.06-.52,2.83,2.83,0,0,0-.13-.5,1.4,1.4,0,0,0-.22-.44,1.12,1.12,0,0,0-.34-.31,1,1,0,0,0-1,0,1.12,1.12,0,0,0-.34.31,1.4,1.4,0,0,0-.22.44,2.83,2.83,0,0,0-.13.5,4.88,4.88,0,0,0-.06.52C241.56,252.33,241.55,252.49,241.55,252.62Z"/><path d="M247.78,255.8l-.51-.2,2.41-6.14.5.19Z"/><path d="M257.1,251a1.66,1.66,0,0,0-.63-.52,1.92,1.92,0,0,0-.78-.17,2.06,2.06,0,0,0-.87.19,2.16,2.16,0,0,0-.68.52,2.21,2.21,0,0,0-.45.75,2.46,2.46,0,0,0-.16.89,2.56,2.56,0,0,0,.16.93,2.2,2.2,0,0,0,.44.74,2.1,2.1,0,0,0,.68.5,2,2,0,0,0,.88.19,2,2,0,0,0,.93-.21,2,2,0,0,0,.71-.59l.5.43a2.29,2.29,0,0,1-.92.75,3,3,0,0,1-1.22.24,2.8,2.8,0,0,1-2.05-.84,2.82,2.82,0,0,1-.61-.94,3.13,3.13,0,0,1-.22-1.2,3.19,3.19,0,0,1,.21-1.16,2.75,2.75,0,0,1,.6-1,3,3,0,0,1,.91-.63,2.93,2.93,0,0,1,1.16-.23,3,3,0,0,1,1.11.21,2,2,0,0,1,.89.68Z"/><path d="M258.46,254.69l2.14-2.08.35-.36a1.75,1.75,0,0,0,.25-.32,1,1,0,0,0,.15-.32,1.46,1.46,0,0,0,0-.38,1,1,0,0,0-.08-.4.93.93,0,0,0-.22-.3,1.13,1.13,0,0,0-.73-.26,1,1,0,0,0-.71.25,1.11,1.11,0,0,0-.36.66l-.73-.07a1.91,1.91,0,0,1,.21-.61,1.28,1.28,0,0,1,.39-.44,1.77,1.77,0,0,1,.53-.27,2.25,2.25,0,0,1,.64-.09,2.09,2.09,0,0,1,.67.1,1.53,1.53,0,0,1,.55.29,1.47,1.47,0,0,1,.37.48,1.39,1.39,0,0,1,.14.66,1.91,1.91,0,0,1-.09.61,1.8,1.8,0,0,1-.25.5,2.86,2.86,0,0,1-.35.43l-.41.41-1.75,1.64h2.89v.63h-3.65Z"/><path d="M266.35,250.42l-2.26,5h-.76l2.3-5H262.9v-.63h3.45Z"/><path d="M267.26,252.62a7.07,7.07,0,0,1,.08-1,3.45,3.45,0,0,1,.3-.94,2,2,0,0,1,.59-.71,1.82,1.82,0,0,1,1.91,0,2,2,0,0,1,.59.71,3.45,3.45,0,0,1,.3.94,7,7,0,0,1,.07,1,6.92,6.92,0,0,1-.07,1,3.41,3.41,0,0,1-.3.95,2,2,0,0,1-.59.71,1.82,1.82,0,0,1-1.91,0,2,2,0,0,1-.59-.71,3.41,3.41,0,0,1-.3-.95A7,7,0,0,1,267.26,252.62Zm.68,0c0,.14,0,.3,0,.47a4.43,4.43,0,0,0,.06.51,2.72,2.72,0,0,0,.13.51,1.53,1.53,0,0,0,.23.44,1,1,0,0,0,.34.31.89.89,0,0,0,.47.12,1,1,0,0,0,.49-.12,1.08,1.08,0,0,0,.33-.31,1.53,1.53,0,0,0,.23-.44,2.72,2.72,0,0,0,.13-.51,4.43,4.43,0,0,0,.06-.51c0-.17,0-.33,0-.47s0-.29,0-.46a4.88,4.88,0,0,0-.06-.52,2.83,2.83,0,0,0-.13-.5,1.41,1.41,0,0,0-.23-.44,1.08,1.08,0,0,0-.33-.31,1,1,0,0,0-.49-.12.89.89,0,0,0-.47.12,1,1,0,0,0-.34.31,1.41,1.41,0,0,0-.23.44,2.83,2.83,0,0,0-.13.5,4.88,4.88,0,0,0-.06.52C267.94,252.33,267.94,252.49,267.94,252.62Z"/><path d="M52.87,251a1.55,1.55,0,0,0-.63-.51,1.82,1.82,0,0,0-.79-.18,2,2,0,0,0-.87.2,2.13,2.13,0,0,0-.68.51,2.58,2.58,0,0,0-.45.75,2.67,2.67,0,0,0,0,1.82,2.29,2.29,0,0,0,.45.74,1.88,1.88,0,0,0,.68.5,1.92,1.92,0,0,0,.87.19,2,2,0,0,0,.93-.21,2.07,2.07,0,0,0,.71-.58l.51.42a2.38,2.38,0,0,1-.93.75,3,3,0,0,1-1.22.24,2.85,2.85,0,0,1-1.13-.22,2.82,2.82,0,0,1-.92-.62,3,3,0,0,1-.61-.94,3.27,3.27,0,0,1-.22-1.19,3.2,3.2,0,0,1,.21-1.17,3,3,0,0,1,.6-.95,3.08,3.08,0,0,1,.91-.63,3,3,0,0,1,2.27,0,2,2,0,0,1,.89.68Z"/><path d="M54.13,252.62a7,7,0,0,1,.08-1,3.11,3.11,0,0,1,.3-1,1.94,1.94,0,0,1,.59-.71,1.55,1.55,0,0,1,.95-.27,1.6,1.6,0,0,1,1,.27,2,2,0,0,1,.59.71,3.1,3.1,0,0,1,.29,1,5.77,5.77,0,0,1,.08,1,5.85,5.85,0,0,1-.08,1,3.13,3.13,0,0,1-.29.94,2,2,0,0,1-.59.71,1.6,1.6,0,0,1-1,.27,1.55,1.55,0,0,1-.95-.27,1.94,1.94,0,0,1-.59-.71,3.14,3.14,0,0,1-.3-.94A7.07,7.07,0,0,1,54.13,252.62Zm.67,0c0,.13,0,.29,0,.46a4.88,4.88,0,0,0,.06.52,2.83,2.83,0,0,0,.13.5,1.4,1.4,0,0,0,.22.44,1.1,1.1,0,0,0,.34.31,1,1,0,0,0,.48.12.9.9,0,0,0,.48-.12.92.92,0,0,0,.34-.31,1.41,1.41,0,0,0,.23-.44,2.8,2.8,0,0,0,.12-.5,4.88,4.88,0,0,0,.06-.52,3.86,3.86,0,0,0,0-.46,3.94,3.94,0,0,0,0-.47,4.43,4.43,0,0,0-.06-.51,2.71,2.71,0,0,0-.12-.51,1.53,1.53,0,0,0-.23-.44,1,1,0,0,0-.34-.31.9.9,0,0,0-.48-.12,1,1,0,0,0-.48.12,1.24,1.24,0,0,0-.34.31,1.51,1.51,0,0,0-.22.44,2.72,2.72,0,0,0-.13.51,4.43,4.43,0,0,0-.06.51C54.81,252.32,54.8,252.48,54.8,252.62Z"/><path d="M61,255.79l-.51-.2,2.41-6.14.51.19Z"/><path d="M70.36,251a1.52,1.52,0,0,0-.64-.51,1.78,1.78,0,0,0-.78-.18,2,2,0,0,0-.87.2,2.13,2.13,0,0,0-.68.51,2.58,2.58,0,0,0-.45.75,2.51,2.51,0,0,0-.16.9,2.54,2.54,0,0,0,.16.92,2.46,2.46,0,0,0,.44.74,2.09,2.09,0,0,0,1.56.69,2,2,0,0,0,.93-.21,2.07,2.07,0,0,0,.71-.58l.5.42a2.29,2.29,0,0,1-.92.75,3,3,0,0,1-1.22.24,2.93,2.93,0,0,1-1.14-.22,2.88,2.88,0,0,1-.91-.62,3,3,0,0,1-.61-.94,3.07,3.07,0,0,1-.22-1.19,3.2,3.2,0,0,1,.21-1.17,2.84,2.84,0,0,1,.6-.95,3,3,0,0,1,.91-.63,2.93,2.93,0,0,1,1.16-.23,3,3,0,0,1,1.11.21,2,2,0,0,1,.89.68Z"/><path d="M74.2,255.45h-.68v-4.8h0l-1,.85-.4-.48,1.52-1.24h.59Z"/><path d="M76.37,251.17a1.33,1.33,0,0,1,.13-.61,1.2,1.2,0,0,1,.34-.46,1.44,1.44,0,0,1,.51-.3,1.92,1.92,0,0,1,1.28,0,1.44,1.44,0,0,1,.51.3,1.32,1.32,0,0,1,.34.46,1.48,1.48,0,0,1,.12.61,1.44,1.44,0,0,1-.06.4,1.41,1.41,0,0,1-.18.37,1.18,1.18,0,0,1-.3.29,1,1,0,0,1-.38.19h0a1.44,1.44,0,0,1,.46.19,1.35,1.35,0,0,1,.35.32,1.67,1.67,0,0,1,.23.44,1.7,1.7,0,0,1,.08.51,1.74,1.74,0,0,1-.14.69,1.46,1.46,0,0,1-.39.52,1.47,1.47,0,0,1-.57.33,2.35,2.35,0,0,1-1.42,0,1.59,1.59,0,0,1-.58-.33,1.43,1.43,0,0,1-.38-.52,1.74,1.74,0,0,1-.14-.69,1.7,1.7,0,0,1,.08-.51,1.65,1.65,0,0,1,.22-.44,1.59,1.59,0,0,1,.36-.32,1.44,1.44,0,0,1,.46-.19h0a1.18,1.18,0,0,1-.39-.19,1.33,1.33,0,0,1-.29-.29,1.41,1.41,0,0,1-.18-.37A1.16,1.16,0,0,1,76.37,251.17Zm.48,2.67a1.14,1.14,0,0,0,.09.46,1.21,1.21,0,0,0,.24.35,1.16,1.16,0,0,0,.36.23A1.13,1.13,0,0,0,78,255a1,1,0,0,0,.44-.09,1,1,0,0,0,.36-.23,1.07,1.07,0,0,0,.25-.35,1.36,1.36,0,0,0,0-.92,1.07,1.07,0,0,0-.25-.35,1,1,0,0,0-.36-.23,1,1,0,0,0-.44-.09,1.13,1.13,0,0,0-.45.09,1.16,1.16,0,0,0-.36.23,1.21,1.21,0,0,0-.24.35A1.14,1.14,0,0,0,76.85,253.84ZM77,251.2a.92.92,0,0,0,.26.67.93.93,0,0,0,.69.27.9.9,0,0,0,.68-.27,1,1,0,0,0,0-1.34.9.9,0,0,0-.68-.27.93.93,0,0,0-.69.27A.92.92,0,0,0,77,251.2Z"/><path d="M80.52,252.62a5.77,5.77,0,0,1,.08-1,3.1,3.1,0,0,1,.29-1,2,2,0,0,1,.59-.71,1.6,1.6,0,0,1,1-.27,1.55,1.55,0,0,1,1,.27,1.94,1.94,0,0,1,.59.71,3.41,3.41,0,0,1,.3,1,7,7,0,0,1,.08,1,7.07,7.07,0,0,1-.08,1,3.45,3.45,0,0,1-.3.94,1.94,1.94,0,0,1-.59.71,1.55,1.55,0,0,1-1,.27,1.6,1.6,0,0,1-1-.27,2,2,0,0,1-.59-.71,3.13,3.13,0,0,1-.29-.94A5.85,5.85,0,0,1,80.52,252.62Zm.67,0a3.86,3.86,0,0,0,0,.46c0,.17,0,.34.05.52a4.07,4.07,0,0,0,.13.5,1.41,1.41,0,0,0,.23.44.92.92,0,0,0,.34.31.9.9,0,0,0,.48.12,1,1,0,0,0,.48-.12,1.1,1.1,0,0,0,.34-.31,1.65,1.65,0,0,0,.22-.44,2.83,2.83,0,0,0,.13-.5,4.88,4.88,0,0,0,.06-.52c0-.17,0-.33,0-.46s0-.3,0-.47a4.43,4.43,0,0,0-.06-.51,2.72,2.72,0,0,0-.13-.51,1.81,1.81,0,0,0-.22-.44,1.24,1.24,0,0,0-.34-.31,1,1,0,0,0-.48-.12.9.9,0,0,0-.48.12,1,1,0,0,0-.34.31,1.53,1.53,0,0,0-.23.44,3.8,3.8,0,0,0-.13.51c0,.17,0,.34-.05.51A3.94,3.94,0,0,0,81.19,252.62Z"/><line class="cls-2" x1="214.49" y1="253.42" x2="215.03" y2="253.42"/><line class="cls-2" x1="217.76" y1="253.42" x2="218.3" y2="253.42"/><line class="cls-2" x1="221.02" y1="253.42" x2="221.56" y2="253.42"/><line class="cls-2" x1="224.29" y1="253.42" x2="224.83" y2="253.42"/><line class="cls-2" x1="227.55" y1="253.42" x2="228.09" y2="253.42"/></g><g id="Kelvin_Led"><g id="Kelvin_Led_F_F33050"><path d="M55.55,13.09h4.39v.78H56.39v2.34h3.3V17h-3.3v3.18h-.84Z"/><path d="M62.27,16.09h.26a3.48,3.48,0,0,0,.55,0,1.33,1.33,0,0,0,.52-.17,1,1,0,0,0,.39-.37,1.25,1.25,0,0,0,.15-.65,1.11,1.11,0,0,0-.33-.85,1.24,1.24,0,0,0-.88-.32,1.51,1.51,0,0,0-.78.2,1.43,1.43,0,0,0-.52.59l-.81-.31a1.85,1.85,0,0,1,.82-.9,2.54,2.54,0,0,1,1.23-.3,2.74,2.74,0,0,1,.81.12,2,2,0,0,1,.67.35,1.62,1.62,0,0,1,.46.58,1.71,1.71,0,0,1,.17.8,1.65,1.65,0,0,1-.33,1,1.72,1.72,0,0,1-.88.61v0a1.92,1.92,0,0,1,.61.22,1.58,1.58,0,0,1,.45.4,1.44,1.44,0,0,1,.29.53,1.89,1.89,0,0,1,.1.63,1.91,1.91,0,0,1-.19.89,1.69,1.69,0,0,1-.51.64,2,2,0,0,1-.74.39,2.92,2.92,0,0,1-.9.13,2.68,2.68,0,0,1-1.41-.35,2,2,0,0,1-.87-1.14l.85-.28a1.3,1.3,0,0,0,1.43,1.05,1.47,1.47,0,0,0,.56-.1,1.27,1.27,0,0,0,.46-.28,1.52,1.52,0,0,0,.31-.44,1.32,1.32,0,0,0,.11-.57,1.28,1.28,0,0,0-.15-.65,1.1,1.1,0,0,0-.41-.42,1.76,1.76,0,0,0-.58-.23,3.5,3.5,0,0,0-.65-.07h-.26Z"/><path d="M67.83,16.09h.26a3.48,3.48,0,0,0,.55,0,1.33,1.33,0,0,0,.52-.17,1,1,0,0,0,.39-.37,1.25,1.25,0,0,0,.15-.65,1.11,1.11,0,0,0-.33-.85,1.24,1.24,0,0,0-.88-.32,1.51,1.51,0,0,0-.78.2,1.43,1.43,0,0,0-.52.59l-.81-.31a1.85,1.85,0,0,1,.82-.9,2.54,2.54,0,0,1,1.23-.3,2.74,2.74,0,0,1,.81.12,2,2,0,0,1,.67.35,1.62,1.62,0,0,1,.46.58,1.71,1.71,0,0,1,.17.8,1.65,1.65,0,0,1-.33,1,1.72,1.72,0,0,1-.88.61v0a1.92,1.92,0,0,1,.61.22,1.58,1.58,0,0,1,.45.4,1.44,1.44,0,0,1,.29.53,1.89,1.89,0,0,1,.1.63,1.91,1.91,0,0,1-.19.89,1.69,1.69,0,0,1-.51.64,2,2,0,0,1-.74.39,2.92,2.92,0,0,1-.9.13A2.68,2.68,0,0,1,67,19.94a2,2,0,0,1-.87-1.14l.85-.28a1.3,1.3,0,0,0,1.43,1.05,1.47,1.47,0,0,0,.56-.1,1.27,1.27,0,0,0,.46-.28,1.52,1.52,0,0,0,.31-.44,1.32,1.32,0,0,0,.11-.57,1.28,1.28,0,0,0-.15-.65,1.1,1.1,0,0,0-.41-.42,1.76,1.76,0,0,0-.58-.23,3.5,3.5,0,0,0-.65-.07h-.26Z"/><path d="M71.73,16.63a9.26,9.26,0,0,1,.1-1.25,4,4,0,0,1,.37-1.18,2.44,2.44,0,0,1,.74-.88,2.22,2.22,0,0,1,2.39,0,2.41,2.41,0,0,1,.73.88,3.71,3.71,0,0,1,.37,1.18,7.88,7.88,0,0,1,.1,1.25,7.79,7.79,0,0,1-.1,1.25,3.77,3.77,0,0,1-.37,1.19,2.5,2.5,0,0,1-.73.88,2.27,2.27,0,0,1-2.39,0,2.53,2.53,0,0,1-.74-.88,4,4,0,0,1-.37-1.19A9.14,9.14,0,0,1,71.73,16.63Zm.84,0c0,.18,0,.37,0,.58s0,.43.08.65a4.47,4.47,0,0,0,.16.63,1.9,1.9,0,0,0,.28.55,1.55,1.55,0,0,0,.42.39,1.27,1.27,0,0,0,.6.14,1.21,1.21,0,0,0,.6-.14,1.45,1.45,0,0,0,.43-.39,1.9,1.9,0,0,0,.28-.55,4.47,4.47,0,0,0,.16-.63,4.78,4.78,0,0,0,.07-.65c0-.21,0-.4,0-.58s0-.36,0-.58a4.79,4.79,0,0,0-.23-1.28,2,2,0,0,0-.28-.55,1.3,1.3,0,0,0-.43-.38,1.11,1.11,0,0,0-.6-.15,1.16,1.16,0,0,0-.6.15,1.37,1.37,0,0,0-.42.38,2,2,0,0,0-.28.55,4.61,4.61,0,0,0-.16.64c0,.21-.06.43-.08.64S72.57,16.46,72.57,16.63Z"/><path d="M81.65,13.87H78.76l0,1.91a1.67,1.67,0,0,1,.45-.13,2.53,2.53,0,0,1,.46,0,2.34,2.34,0,0,1,.93.18,2,2,0,0,1,.71.49,2,2,0,0,1,.46.74,2.71,2.71,0,0,1,0,1.89,2.13,2.13,0,0,1-.51.74,2.31,2.31,0,0,1-.77.47,2.57,2.57,0,0,1-1,.17,2.15,2.15,0,0,1-1.3-.35,2.44,2.44,0,0,1-.79-.94l.84-.32a1.61,1.61,0,0,0,.53.65,1.34,1.34,0,0,0,.79.24,1.64,1.64,0,0,0,.6-.11,1.58,1.58,0,0,0,.48-.33,1.62,1.62,0,0,0,.32-.52,1.78,1.78,0,0,0,.12-.67,1.67,1.67,0,0,0-.13-.69,1.34,1.34,0,0,0-.37-.5,1.53,1.53,0,0,0-.56-.31,2.17,2.17,0,0,0-.69-.11,2.22,2.22,0,0,0-.74.13,4,4,0,0,0-.7.31l.07-3.68h3.71Z"/><path d="M82.85,16.63a9.26,9.26,0,0,1,.1-1.25,4,4,0,0,1,.37-1.18,2.44,2.44,0,0,1,.74-.88,2.22,2.22,0,0,1,2.39,0,2.41,2.41,0,0,1,.73.88,3.71,3.71,0,0,1,.37,1.18,7.88,7.88,0,0,1,.1,1.25,7.79,7.79,0,0,1-.1,1.25,3.77,3.77,0,0,1-.37,1.19,2.5,2.5,0,0,1-.73.88,2.27,2.27,0,0,1-2.39,0,2.53,2.53,0,0,1-.74-.88A4,4,0,0,1,83,17.88,9.14,9.14,0,0,1,82.85,16.63Zm.84,0c0,.18,0,.37,0,.58s0,.43.08.65a4.47,4.47,0,0,0,.16.63,1.9,1.9,0,0,0,.28.55,1.55,1.55,0,0,0,.42.39,1.27,1.27,0,0,0,.6.14,1.21,1.21,0,0,0,.6-.14,1.45,1.45,0,0,0,.43-.39,1.9,1.9,0,0,0,.28-.55,4.47,4.47,0,0,0,.16-.63,4.78,4.78,0,0,0,.07-.65c0-.21,0-.4,0-.58s0-.36,0-.58a4.79,4.79,0,0,0-.23-1.28,2,2,0,0,0-.28-.55,1.3,1.3,0,0,0-.43-.38,1.11,1.11,0,0,0-.6-.15,1.16,1.16,0,0,0-.6.15,1.37,1.37,0,0,0-.42.38,2,2,0,0,0-.28.55,4.61,4.61,0,0,0-.16.64c0,.21-.06.43-.08.64S83.69,16.46,83.69,16.63Z"/><path d="M88,20.92h5v.5H88Z"/><path d="M93.79,14.82a1.88,1.88,0,0,1,.16-.76,1.73,1.73,0,0,1,.42-.58,2,2,0,0,1,.64-.37,2.36,2.36,0,0,1,.8-.14,2.28,2.28,0,0,1,.8.14,1.92,1.92,0,0,1,.64.37,1.76,1.76,0,0,1,.43.58,1.87,1.87,0,0,1,.15.76,1.42,1.42,0,0,1-.08.5,1.53,1.53,0,0,1-.23.46,1.58,1.58,0,0,1-.36.37,1.23,1.23,0,0,1-.49.23v0a1.77,1.77,0,0,1,.58.24,1.54,1.54,0,0,1,.44.4,1.68,1.68,0,0,1,.28.55,1.89,1.89,0,0,1,.1.63,2,2,0,0,1-.17.87,2.07,2.07,0,0,1-.48.65,2,2,0,0,1-.72.41,2.87,2.87,0,0,1-1.77,0,2,2,0,0,1-.72-.41,2.07,2.07,0,0,1-.48-.65,2.05,2.05,0,0,1-.18-.87,2.19,2.19,0,0,1,.1-.63,1.9,1.9,0,0,1,.28-.55,1.68,1.68,0,0,1,.44-.4A2,2,0,0,1,95,16.4v0a1.19,1.19,0,0,1-.48-.23,1.62,1.62,0,0,1-.37-.37,1.8,1.8,0,0,1-.23-.46A1.69,1.69,0,0,1,93.79,14.82Zm.6,3.34a1.48,1.48,0,0,0,.11.57,1.44,1.44,0,0,0,.31.45,1.51,1.51,0,0,0,.45.29,1.42,1.42,0,0,0,.55.1,1.47,1.47,0,0,0,.56-.1,1.51,1.51,0,0,0,.45-.29,1.27,1.27,0,0,0,.3-.45,1.32,1.32,0,0,0,.11-.57,1.38,1.38,0,0,0-.11-.57,1.23,1.23,0,0,0-.3-.44,1.34,1.34,0,0,0-.45-.29,1.47,1.47,0,0,0-.56-.11,1.42,1.42,0,0,0-.55.11,1.34,1.34,0,0,0-.45.29,1.4,1.4,0,0,0-.31.44A1.56,1.56,0,0,0,94.39,18.16Zm.24-3.3A1.13,1.13,0,0,0,95.81,16a1.15,1.15,0,0,0,.86-.33,1.26,1.26,0,0,0,0-1.68A1.27,1.27,0,0,0,95,14,1.14,1.14,0,0,0,94.63,14.86Z"/><path d="M98.65,13.09h.93L101.19,19h0L103,13.09h.94L105.62,19h0l1.64-5.88h.88l-2.08,7.08h-.91l-1.75-6h0l-1.76,6h-.92Z"/><path d="M111.81,13.09h.84v6.3h3.24v.78h-4.08Z"/><path d="M116.81,13.09h4.45v.78h-3.61v2.22H121v.78h-3.37v2.52h3.79v.78h-4.63Z"/><path d="M122.61,13.09h2.72a3.89,3.89,0,0,1,.74.08,4,4,0,0,1,.78.26,3.57,3.57,0,0,1,.74.45,2.89,2.89,0,0,1,.62.68,3.07,3.07,0,0,1,.43.91,3.78,3.78,0,0,1,.16,1.16,3.85,3.85,0,0,1-.16,1.17,3.32,3.32,0,0,1-.43.91,2.84,2.84,0,0,1-.62.67,3.63,3.63,0,0,1-.74.46,3.92,3.92,0,0,1-.78.25,3.22,3.22,0,0,1-.74.08h-2.72Zm.84,6.3h1.6a3.67,3.67,0,0,0,1.13-.16,2.31,2.31,0,0,0,.9-.49,2.22,2.22,0,0,0,.6-.86,3.11,3.11,0,0,0,.22-1.25,3.17,3.17,0,0,0-.22-1.25,2.19,2.19,0,0,0-.6-.85,2.33,2.33,0,0,0-.9-.5,4,4,0,0,0-1.13-.16h-1.6Z"/><rect class="cls-3" x="54.67" y="42.26" width="189.86" height="189.86"/><circle class="cls-4" cx="149.61" cy="137.14" r="21.06"/><path d="M153.13,165.25h-.67v-4.8h0l-1,.85-.4-.48,1.52-1.24h.58Z"/><path d="M155,162.42a7,7,0,0,1,.08-1,3.1,3.1,0,0,1,.29-.95,2,2,0,0,1,.59-.71,1.6,1.6,0,0,1,1-.27,1.55,1.55,0,0,1,1,.27,1.94,1.94,0,0,1,.59.71,2.86,2.86,0,0,1,.3.95,7,7,0,0,1,.08,1,7.07,7.07,0,0,1-.08,1,3,3,0,0,1-.3,1,2,2,0,0,1-.59.7,1.55,1.55,0,0,1-1,.27,1.6,1.6,0,0,1-1-.27,2.1,2.1,0,0,1-.59-.7,3.28,3.28,0,0,1-.29-1A7.07,7.07,0,0,1,155,162.42Zm.67,0c0,.14,0,.29,0,.46a4.88,4.88,0,0,0,.06.52,4.05,4.05,0,0,0,.12.5,1.66,1.66,0,0,0,.23.44,1,1,0,0,0,.34.31,1,1,0,0,0,1,0,1,1,0,0,0,.34-.31,1.4,1.4,0,0,0,.22-.44,2.83,2.83,0,0,0,.13-.5,4.88,4.88,0,0,0,.06-.52c0-.17,0-.32,0-.46s0-.3,0-.47a4.43,4.43,0,0,0-.06-.51,2.72,2.72,0,0,0-.13-.51,1.51,1.51,0,0,0-.22-.44,1.12,1.12,0,0,0-.34-.31,1,1,0,0,0-1,0,1.12,1.12,0,0,0-.34.31,1.83,1.83,0,0,0-.23.44,3.81,3.81,0,0,0-.12.51,4.43,4.43,0,0,0-.06.51C155.64,162.12,155.63,162.28,155.63,162.42Z"/><path d="M159.41,162.42a5.77,5.77,0,0,1,.08-1,3.1,3.1,0,0,1,.29-.95,2,2,0,0,1,.59-.71,1.6,1.6,0,0,1,1-.27,1.55,1.55,0,0,1,.95.27,1.94,1.94,0,0,1,.59.71,3.11,3.11,0,0,1,.3.95,7,7,0,0,1,.08,1,7.07,7.07,0,0,1-.08,1,3.3,3.3,0,0,1-.3,1,2,2,0,0,1-.59.7,1.55,1.55,0,0,1-.95.27,1.6,1.6,0,0,1-1-.27,2.1,2.1,0,0,1-.59-.7,3.28,3.28,0,0,1-.29-1A5.85,5.85,0,0,1,159.41,162.42Zm.67,0a3.78,3.78,0,0,0,0,.46,4.88,4.88,0,0,0,.06.52,2.8,2.8,0,0,0,.12.5,1.41,1.41,0,0,0,.23.44.92.92,0,0,0,.34.31.9.9,0,0,0,.48.12,1,1,0,0,0,.48-.12,1.1,1.1,0,0,0,.34-.31,1.4,1.4,0,0,0,.22-.44,2.83,2.83,0,0,0,.13-.5,4.88,4.88,0,0,0,.06-.52c0-.17,0-.32,0-.46s0-.3,0-.47a4.43,4.43,0,0,0-.06-.51,2.72,2.72,0,0,0-.13-.51,1.51,1.51,0,0,0-.22-.44,1.24,1.24,0,0,0-.34-.31,1,1,0,0,0-.48-.12.9.9,0,0,0-.48.12,1,1,0,0,0-.34.31,1.53,1.53,0,0,0-.23.44,2.71,2.71,0,0,0-.12.51,4.43,4.43,0,0,0-.06.51A3.94,3.94,0,0,0,160.08,162.42Z"/><circle class="cls-4" cx="149.61" cy="137.14" r="42.17" transform="matrix(0.99, -0.16, 0.16, 0.99, -20.04, 25.74)"/><path d="M150.65,185.59l2.14-2.08c.13-.12.25-.24.35-.35a2.16,2.16,0,0,0,.25-.32,1,1,0,0,0,.15-.33,1.07,1.07,0,0,0,.05-.37,1,1,0,0,0-.08-.4.84.84,0,0,0-.22-.3.89.89,0,0,0-.33-.19,1.05,1.05,0,0,0-.4-.07,1,1,0,0,0-.71.25,1.08,1.08,0,0,0-.36.65l-.73-.06a1.91,1.91,0,0,1,.21-.61,1.71,1.71,0,0,1,.39-.45,2,2,0,0,1,.53-.26,2,2,0,0,1,.65-.1,2.39,2.39,0,0,1,.66.1,1.72,1.72,0,0,1,.55.3,1.33,1.33,0,0,1,.37.47,1.46,1.46,0,0,1,.14.67,1.86,1.86,0,0,1-.34,1.11,3.47,3.47,0,0,1-.35.43c-.13.14-.27.27-.41.4l-1.74,1.64v0h2.88v.62h-3.65Z"/><path d="M155,183.53a7.07,7.07,0,0,1,.08-1,3.19,3.19,0,0,1,.29-.95,2,2,0,0,1,.59-.7,1.61,1.61,0,0,1,1-.28,1.55,1.55,0,0,1,1,.28,1.91,1.91,0,0,1,.59.7,2.94,2.94,0,0,1,.3.95,6.29,6.29,0,0,1,0,2,2.94,2.94,0,0,1-.3.95,1.91,1.91,0,0,1-.59.7,1.49,1.49,0,0,1-1,.28,1.54,1.54,0,0,1-1-.28,2,2,0,0,1-.59-.7,3.19,3.19,0,0,1-.29-.95A7.07,7.07,0,0,1,155,183.53Zm.67,0c0,.14,0,.29,0,.47a4.43,4.43,0,0,0,.06.51,4.7,4.7,0,0,0,.12.51,2,2,0,0,0,.23.44,1.12,1.12,0,0,0,.34.31,1.1,1.1,0,0,0,1,0,1.12,1.12,0,0,0,.34-.31,1.65,1.65,0,0,0,.22-.44,3.18,3.18,0,0,0,.13-.51,4.43,4.43,0,0,0,.06-.51c0-.18,0-.33,0-.47s0-.29,0-.46a4.6,4.6,0,0,0-.06-.52,3.18,3.18,0,0,0-.13-.51,1.65,1.65,0,0,0-.22-.44,1.12,1.12,0,0,0-.34-.31,1.1,1.1,0,0,0-1,0,1.12,1.12,0,0,0-.34.31,2,2,0,0,0-.23.44,4.7,4.7,0,0,0-.12.51,4.6,4.6,0,0,0-.06.52C155.64,183.24,155.63,183.39,155.63,183.53Z"/><path d="M159.41,183.53a5.85,5.85,0,0,1,.08-1,3.19,3.19,0,0,1,.29-.95,2,2,0,0,1,.59-.7,1.61,1.61,0,0,1,1-.28,1.55,1.55,0,0,1,.95.28,1.91,1.91,0,0,1,.59.7,3.2,3.2,0,0,1,.3.95,6.29,6.29,0,0,1,0,2,3.2,3.2,0,0,1-.3.95,1.91,1.91,0,0,1-.59.7,1.49,1.49,0,0,1-.95.28,1.54,1.54,0,0,1-1-.28,2,2,0,0,1-.59-.7,3.19,3.19,0,0,1-.29-.95A5.85,5.85,0,0,1,159.41,183.53Zm.67,0a4,4,0,0,0,0,.47,4.43,4.43,0,0,0,.06.51,3.14,3.14,0,0,0,.12.51,1.67,1.67,0,0,0,.23.44,1,1,0,0,0,.34.31,1,1,0,0,0,.48.11,1.06,1.06,0,0,0,.48-.11,1.24,1.24,0,0,0,.34-.31,1.65,1.65,0,0,0,.22-.44,3.18,3.18,0,0,0,.13-.51,4.43,4.43,0,0,0,.06-.51c0-.18,0-.33,0-.47s0-.29,0-.46a4.6,4.6,0,0,0-.06-.52,3.18,3.18,0,0,0-.13-.51,1.65,1.65,0,0,0-.22-.44,1.24,1.24,0,0,0-.34-.31,1.06,1.06,0,0,0-.48-.11,1,1,0,0,0-.48.11,1,1,0,0,0-.34.31,1.67,1.67,0,0,0-.23.44,3.14,3.14,0,0,0-.12.51,4.6,4.6,0,0,0-.06.52A3.78,3.78,0,0,0,160.08,183.53Z"/><circle class="cls-4" cx="149.61" cy="137.14" r="63.23"/><path d="M151.89,204.16h.2l.44,0A1.23,1.23,0,0,0,153,204a.89.89,0,0,0,.31-.3,1,1,0,0,0,.12-.52.93.93,0,0,0-.26-.68,1,1,0,0,0-.7-.25,1.16,1.16,0,0,0-.63.16,1.12,1.12,0,0,0-.41.47l-.65-.25a1.39,1.39,0,0,1,.65-.72,2,2,0,0,1,1-.24,2.25,2.25,0,0,1,.64.1,1.54,1.54,0,0,1,.54.28,1.2,1.2,0,0,1,.37.46,1.44,1.44,0,0,1,.13.64,1.31,1.31,0,0,1-.26.81,1.4,1.4,0,0,1-.7.49v0a1.44,1.44,0,0,1,.48.17,1.38,1.38,0,0,1,.36.32,1.24,1.24,0,0,1,.24.42,1.75,1.75,0,0,1,.08.51,1.46,1.46,0,0,1-.16.71,1.54,1.54,0,0,1-.4.51,1.73,1.73,0,0,1-.6.32,2.77,2.77,0,0,1-.71.1,2.15,2.15,0,0,1-1.13-.28,1.6,1.6,0,0,1-.7-.91l.68-.23a1,1,0,0,0,1.15.84,1.08,1.08,0,0,0,.44-.08,1.1,1.1,0,0,0,.37-.23,1,1,0,0,0,.24-.35,1.09,1.09,0,0,0,0-1,1,1,0,0,0-.32-.34,1.7,1.7,0,0,0-.46-.18,2.39,2.39,0,0,0-.53-.06h-.2Z"/><path d="M155,204.59a7.07,7.07,0,0,1,.08-1,3.19,3.19,0,0,1,.29-1,2,2,0,0,1,.59-.7,1.54,1.54,0,0,1,1-.28,1.49,1.49,0,0,1,1,.28,1.91,1.91,0,0,1,.59.7,2.94,2.94,0,0,1,.3,1,6.29,6.29,0,0,1,0,2,2.94,2.94,0,0,1-.3.95,1.91,1.91,0,0,1-.59.7,1.49,1.49,0,0,1-1,.28,1.54,1.54,0,0,1-1-.28,2,2,0,0,1-.59-.7,3.19,3.19,0,0,1-.29-.95A7.07,7.07,0,0,1,155,204.59Zm.67,0c0,.14,0,.29,0,.46a4.35,4.35,0,0,0,.06.52,4.7,4.7,0,0,0,.12.51,2,2,0,0,0,.23.44,1.12,1.12,0,0,0,.34.31,1.1,1.1,0,0,0,1,0,1.12,1.12,0,0,0,.34-.31,1.65,1.65,0,0,0,.22-.44,3.18,3.18,0,0,0,.13-.51,4.35,4.35,0,0,0,.06-.52c0-.17,0-.32,0-.46s0-.29,0-.46a4.6,4.6,0,0,0-.06-.52,3.18,3.18,0,0,0-.13-.51,1.65,1.65,0,0,0-.22-.44,1.26,1.26,0,0,0-.34-.31,1.1,1.1,0,0,0-1,0,1.26,1.26,0,0,0-.34.31,2,2,0,0,0-.23.44,4.7,4.7,0,0,0-.12.51,4.6,4.6,0,0,0-.06.52C155.64,204.3,155.63,204.45,155.63,204.59Z"/><path d="M159.41,204.59a5.85,5.85,0,0,1,.08-1,3.19,3.19,0,0,1,.29-1,2,2,0,0,1,.59-.7,1.54,1.54,0,0,1,1-.28,1.49,1.49,0,0,1,.95.28,1.91,1.91,0,0,1,.59.7,3.2,3.2,0,0,1,.3,1,6.29,6.29,0,0,1,0,2,3.2,3.2,0,0,1-.3.95,1.91,1.91,0,0,1-.59.7,1.49,1.49,0,0,1-.95.28,1.54,1.54,0,0,1-1-.28,2,2,0,0,1-.59-.7,3.19,3.19,0,0,1-.29-.95A5.85,5.85,0,0,1,159.41,204.59Zm.67,0a3.78,3.78,0,0,0,0,.46,4.35,4.35,0,0,0,.06.52,3.14,3.14,0,0,0,.12.51,1.67,1.67,0,0,0,.23.44,1,1,0,0,0,.34.31,1,1,0,0,0,.48.11,1.06,1.06,0,0,0,.48-.11,1.24,1.24,0,0,0,.34-.31,1.65,1.65,0,0,0,.22-.44,3.18,3.18,0,0,0,.13-.51,4.35,4.35,0,0,0,.06-.52c0-.17,0-.32,0-.46s0-.29,0-.46a4.6,4.6,0,0,0-.06-.52,3.18,3.18,0,0,0-.13-.51,1.65,1.65,0,0,0-.22-.44,1.43,1.43,0,0,0-.34-.31,1.06,1.06,0,0,0-.48-.11,1,1,0,0,0-.48.11,1.13,1.13,0,0,0-.34.31,1.67,1.67,0,0,0-.23.44,3.14,3.14,0,0,0-.12.51,4.6,4.6,0,0,0-.06.52A3.78,3.78,0,0,0,160.08,204.59Z"/><circle class="cls-4" cx="149.61" cy="137.14" r="84.35"/><path d="M153.61,226.62h.81v.62h-.81v1.3h-.68v-1.3h-2.4v-.74l2.25-3.63h.83Zm-.68-3h0l-1.81,3h1.82Z"/><path d="M155,225.71a6.85,6.85,0,0,1,.08-1,3.1,3.1,0,0,1,.29-1,2,2,0,0,1,.59-.71,1.6,1.6,0,0,1,1-.27,1.55,1.55,0,0,1,1,.27,1.94,1.94,0,0,1,.59.71,2.86,2.86,0,0,1,.3,1,6.85,6.85,0,0,1,.08,1,7.07,7.07,0,0,1-.08,1,2.88,2.88,0,0,1-.3.94,1.94,1.94,0,0,1-.59.71,1.55,1.55,0,0,1-1,.27,1.6,1.6,0,0,1-1-.27,2,2,0,0,1-.59-.71,3.13,3.13,0,0,1-.29-.94A7.07,7.07,0,0,1,155,225.71Zm.67,0c0,.13,0,.29,0,.46a4.88,4.88,0,0,0,.06.52,4.05,4.05,0,0,0,.12.5,1.83,1.83,0,0,0,.23.44,1.12,1.12,0,0,0,.34.31,1,1,0,0,0,1,0,1.12,1.12,0,0,0,.34-.31,1.51,1.51,0,0,0,.22-.44,2.83,2.83,0,0,0,.13-.5,4.88,4.88,0,0,0,.06-.52c0-.17,0-.33,0-.46s0-.3,0-.47a4.43,4.43,0,0,0-.06-.51,2.72,2.72,0,0,0-.13-.51,1.51,1.51,0,0,0-.22-.44,1.12,1.12,0,0,0-.34-.31,1,1,0,0,0-1,0,1.12,1.12,0,0,0-.34.31,1.83,1.83,0,0,0-.23.44,3.81,3.81,0,0,0-.12.51,4.43,4.43,0,0,0-.06.51C155.64,225.41,155.63,225.57,155.63,225.71Z"/><path d="M159.41,225.71a5.7,5.7,0,0,1,.08-1,3.1,3.1,0,0,1,.29-1,2,2,0,0,1,.59-.71,1.6,1.6,0,0,1,1-.27,1.55,1.55,0,0,1,.95.27,1.94,1.94,0,0,1,.59.71,3.11,3.11,0,0,1,.3,1,6.85,6.85,0,0,1,.08,1,7.07,7.07,0,0,1-.08,1,3.14,3.14,0,0,1-.3.94,1.94,1.94,0,0,1-.59.71,1.55,1.55,0,0,1-.95.27,1.6,1.6,0,0,1-1-.27,2,2,0,0,1-.59-.71,3.13,3.13,0,0,1-.29-.94A5.85,5.85,0,0,1,159.41,225.71Zm.67,0a3.86,3.86,0,0,0,0,.46,4.88,4.88,0,0,0,.06.52,2.8,2.8,0,0,0,.12.5,1.53,1.53,0,0,0,.23.44,1,1,0,0,0,.34.31.9.9,0,0,0,.48.12,1,1,0,0,0,.48-.12,1.24,1.24,0,0,0,.34-.31,1.51,1.51,0,0,0,.22-.44,2.83,2.83,0,0,0,.13-.5,4.88,4.88,0,0,0,.06-.52c0-.17,0-.33,0-.46s0-.3,0-.47a4.43,4.43,0,0,0-.06-.51,2.72,2.72,0,0,0-.13-.51,1.51,1.51,0,0,0-.22-.44,1.24,1.24,0,0,0-.34-.31,1,1,0,0,0-.48-.12.9.9,0,0,0-.48.12,1,1,0,0,0-.34.31,1.53,1.53,0,0,0-.23.44,2.71,2.71,0,0,0-.12.51,4.43,4.43,0,0,0-.06.51A3.94,3.94,0,0,0,160.08,225.71Z"/><line class="cls-4" x1="54.67" y1="137.19" x2="244.59" y2="137.19"/><line class="cls-4" x1="149.61" y1="232.12" x2="149.61" y2="42.21"/><line class="cls-4" x1="94.85" y1="42.21" x2="204.42" y2="232.12"/><line class="cls-4" x1="94.85" y1="232.12" x2="204.42" y2="42.21"/><line class="cls-4" x1="54.67" y1="82.38" x2="244.59" y2="191.95"/><line class="cls-4" x1="54.67" y1="191.95" x2="244.59" y2="82.38"/><line class="cls-1" x1="149.61" y1="230.61" x2="151.23" y2="230.99"/><line class="cls-1" x1="151.23" y1="230.99" x2="152.9" y2="231.53"/><line class="cls-1" x1="152.9" y1="231.53" x2="154.52" y2="230.67"/><line class="cls-1" x1="154.52" y1="230.67" x2="156.14" y2="230.67"/><line class="cls-1" x1="156.14" y1="230.67" x2="157.76" y2="230.56"/><line class="cls-1" x1="157.76" y1="230.56" x2="159.43" y2="230.4"/><line class="cls-1" x1="159.43" y1="230.4" x2="160.95" y2="229.53"/><line class="cls-1" x1="160.95" y1="229.53" x2="162.57" y2="229.32"/><line class="cls-1" x1="162.57" y1="229.32" x2="164.13" y2="228.94"/><line class="cls-1" x1="164.13" y1="228.94" x2="165.59" y2="227.8"/><line class="cls-1" x1="165.59" y1="227.8" x2="167.21" y2="227.75"/><line class="cls-1" x1="167.21" y1="227.75" x2="168.56" y2="226.24"/><line class="cls-1" x1="168.56" y1="226.24" x2="170.07" y2="225.91"/><line class="cls-1" x1="170.07" y1="225.91" x2="171.48" y2="224.78"/><line class="cls-1" x1="171.48" y1="224.78" x2="172.99" y2="224.46"/><line class="cls-1" x1="172.99" y1="224.46" x2="174.34" y2="223.32"/><line class="cls-1" x1="174.34" y1="223.32" x2="175.8" y2="222.73"/><line class="cls-1" x1="175.8" y1="222.73" x2="176.98" y2="221.38"/><line class="cls-1" x1="176.98" y1="221.38" x2="178.33" y2="220.51"/><line class="cls-1" x1="178.33" y1="220.51" x2="179.31" y2="218.73"/><line class="cls-1" x1="179.31" y1="218.73" x2="180.49" y2="217.6"/><line class="cls-1" x1="180.49" y1="217.6" x2="181.47" y2="216.09"/><line class="cls-1" x1="181.47" y1="216.09" x2="182.6" y2="214.9"/><line class="cls-1" x1="182.6" y1="214.9" x2="183.41" y2="213.12"/><line class="cls-1" x1="183.41" y1="213.12" x2="184.49" y2="211.98"/><line class="cls-1" x1="184.49" y1="211.98" x2="185.08" y2="209.93"/><line class="cls-1" x1="185.08" y1="209.93" x2="186.06" y2="208.74"/><line class="cls-1" x1="186.06" y1="208.74" x2="186.38" y2="206.31"/><line class="cls-1" x1="186.38" y1="206.31" x2="187.19" y2="204.96"/><line class="cls-1" x1="187.19" y1="204.96" x2="187.51" y2="202.8"/><line class="cls-1" x1="187.51" y1="202.8" x2="188.11" y2="201.18"/><line class="cls-1" x1="188.11" y1="201.18" x2="188.05" y2="198.64"/><line class="cls-1" x1="188.05" y1="198.64" x2="188.38" y2="196.81"/><line class="cls-1" x1="188.38" y1="196.81" x2="188.38" y2="194.59"/><line class="cls-1" x1="188.38" y1="194.59" x2="188.32" y2="192.49"/><line class="cls-1" x1="188.32" y1="192.49" x2="188.05" y2="190.06"/><line class="cls-1" x1="188.05" y1="190.06" x2="187.89" y2="187.95"/><line class="cls-1" x1="187.89" y1="187.95" x2="187.62" y2="185.79"/><line class="cls-1" x1="187.62" y1="185.79" x2="187.3" y2="183.69"/><line class="cls-1" x1="187.3" y1="183.69" x2="187.08" y2="181.8"/><line class="cls-1" x1="187.08" y1="181.8" x2="186.81" y2="179.91"/><line class="cls-1" x1="186.81" y1="179.91" x2="186.16" y2="177.75"/><line class="cls-1" x1="186.16" y1="177.75" x2="185.62" y2="175.8"/><line class="cls-1" x1="185.62" y1="175.8" x2="185.35" y2="174.18"/><line class="cls-1" x1="185.35" y1="174.18" x2="184.54" y2="172.08"/><line class="cls-1" x1="184.54" y1="172.08" x2="183.95" y2="170.35"/><line class="cls-1" x1="183.95" y1="170.35" x2="183.19" y2="168.46"/><line class="cls-1" x1="183.19" y1="168.46" x2="182.71" y2="166.95"/><line class="cls-1" x1="182.71" y1="166.95" x2="181.84" y2="165.16"/><line class="cls-1" x1="181.84" y1="165.16" x2="181.09" y2="163.6"/><line class="cls-1" x1="181.09" y1="163.6" x2="180.33" y2="162.03"/><line class="cls-1" x1="180.33" y1="162.03" x2="179.41" y2="160.41"/><line class="cls-1" x1="179.41" y1="160.41" x2="178.6" y2="159.01"/><line class="cls-1" x1="178.6" y1="159.01" x2="177.79" y2="157.6"/><line class="cls-1" x1="177.79" y1="157.6" x2="176.88" y2="156.2"/><line class="cls-1" x1="176.88" y1="156.2" x2="175.96" y2="154.9"/><line class="cls-1" x1="175.96" y1="154.9" x2="174.99" y2="153.61"/><line class="cls-1" x1="174.99" y1="153.61" x2="174.12" y2="152.42"/><line class="cls-1" x1="174.12" y1="152.42" x2="173.15" y2="151.29"/><line class="cls-1" x1="173.15" y1="151.29" x2="171.96" y2="150.04"/><line class="cls-1" x1="171.96" y1="150.04" x2="171.1" y2="149.07"/><line class="cls-1" x1="171.1" y1="149.07" x2="169.96" y2="147.94"/><line class="cls-1" x1="169.96" y1="147.94" x2="169.05" y2="147.02"/><line class="cls-1" x1="169.05" y1="147.02" x2="167.97" y2="146.1"/><line class="cls-1" x1="167.97" y1="146.1" x2="166.89" y2="145.18"/><line class="cls-1" x1="166.89" y1="145.18" x2="165.86" y2="144.37"/><line class="cls-1" x1="165.86" y1="144.37" x2="165" y2="143.67"/><line class="cls-1" x1="165" y1="143.67" x2="164.02" y2="142.97"/><line class="cls-1" x1="164.02" y1="142.97" x2="163.05" y2="142.32"/><line class="cls-1" x1="163.05" y1="142.32" x2="162.13" y2="141.67"/><line class="cls-1" x1="162.13" y1="141.67" x2="161.27" y2="141.13"/><line class="cls-1" x1="161.27" y1="141.13" x2="160.3" y2="140.59"/><line class="cls-1" x1="160.3" y1="140.59" x2="159.43" y2="140.16"/><line class="cls-1" x1="159.43" y1="140.16" x2="158.52" y2="139.68"/><line class="cls-1" x1="158.52" y1="139.68" x2="157.71" y2="139.3"/><line class="cls-1" x1="157.71" y1="139.3" x2="156.84" y2="138.97"/><line class="cls-1" x1="156.84" y1="138.97" x2="156.09" y2="138.65"/><line class="cls-1" x1="156.09" y1="138.65" x2="155.38" y2="138.38"/><line class="cls-1" x1="155.38" y1="138.38" x2="154.63" y2="138.11"/><line class="cls-1" x1="154.63" y1="138.11" x2="153.93" y2="137.89"/><line class="cls-1" x1="153.93" y1="137.89" x2="153.28" y2="137.73"/><line class="cls-1" x1="153.28" y1="137.73" x2="152.68" y2="137.57"/><line class="cls-1" x1="152.68" y1="137.57" x2="152.09" y2="137.46"/><line class="cls-1" x1="152.09" y1="137.46" x2="151.55" y2="137.35"/><line class="cls-1" x1="151.55" y1="137.35" x2="151.06" y2="137.25"/><line class="cls-1" x1="151.06" y1="137.25" x2="150.63" y2="137.19"/><line class="cls-1" x1="150.63" y1="137.19" x2="150.31" y2="137.19"/><line class="cls-1" x1="150.31" y1="137.19" x2="150.04" y2="137.19"/><line class="cls-1" x1="150.04" y1="137.19" x2="149.82" y2="137.19"/><line class="cls-1" x1="149.82" y1="137.19" x2="149.77" y2="137.19"/><line class="cls-1" x1="149.77" y1="137.19" x2="149.61" y2="137.19"/><line class="cls-1" x1="149.61" y1="137.19" x2="149.61" y2="137.19"/><line class="cls-1" x1="149.61" y1="137.19" x2="149.61" y2="137.19"/><line class="cls-1" x1="149.61" y1="137.19" x2="149.61" y2="137.19"/><line class="cls-1" x1="149.61" y1="137.19" x2="149.61" y2="137.19"/><line class="cls-1" x1="149.61" y1="137.19" x2="149.61" y2="137.19"/><line class="cls-1" x1="149.61" y1="137.19" x2="149.61" y2="137.19"/><line class="cls-1" x1="149.61" y1="137.19" x2="149.61" y2="137.19"/><line class="cls-1" x1="149.61" y1="137.19" x2="149.61" y2="137.19"/><line class="cls-1" x1="149.61" y1="137.19" x2="149.61" y2="137.19"/><line class="cls-1" x1="149.61" y1="137.19" x2="149.61" y2="137.19"/><line class="cls-1" x1="149.61" y1="137.19" x2="149.61" y2="137.19"/><line class="cls-1" x1="149.61" y1="137.19" x2="149.61" y2="137.19"/><line class="cls-1" x1="149.61" y1="137.19" x2="149.61" y2="137.19"/><line class="cls-1" x1="149.61" y1="137.19" x2="149.61" y2="137.19"/><line class="cls-1" x1="149.61" y1="137.19" x2="149.61" y2="137.19"/><line class="cls-1" x1="149.61" y1="137.19" x2="149.61" y2="137.19"/><line class="cls-1" x1="149.61" y1="137.19" x2="149.61" y2="137.19"/><line class="cls-1" x1="149.61" y1="137.19" x2="149.61" y2="137.19"/><line class="cls-1" x1="149.61" y1="137.19" x2="149.61" y2="137.19"/><line class="cls-1" x1="149.61" y1="137.19" x2="149.61" y2="137.19"/><line class="cls-1" x1="149.61" y1="137.19" x2="149.61" y2="137.19"/><line class="cls-1" x1="149.61" y1="137.19" x2="149.61" y2="137.19"/><line class="cls-1" x1="149.61" y1="137.19" x2="149.61" y2="137.19"/><line class="cls-1" x1="149.61" y1="137.19" x2="149.61" y2="137.19"/><line class="cls-1" x1="149.61" y1="137.19" x2="149.61" y2="137.19"/><line class="cls-1" x1="149.61" y1="137.19" x2="149.61" y2="137.19"/><line class="cls-1" x1="149.61" y1="137.19" x2="149.61" y2="137.19"/><line class="cls-1" x1="149.61" y1="137.19" x2="149.61" y2="137.19"/><line class="cls-1" x1="149.61" y1="137.19" x2="149.61" y2="137.19"/><line class="cls-1" x1="149.61" y1="137.19" x2="149.61" y2="137.19"/><line class="cls-1" x1="149.61" y1="137.19" x2="149.61" y2="137.19"/><line class="cls-1" x1="149.61" y1="137.19" x2="149.61" y2="137.19"/><line class="cls-1" x1="149.61" y1="137.19" x2="149.61" y2="137.19"/><line class="cls-1" x1="149.61" y1="137.19" x2="149.61" y2="137.19"/><line class="cls-1" x1="149.61" y1="137.19" x2="149.61" y2="137.19"/><line class="cls-1" x1="149.61" y1="137.19" x2="149.61" y2="137.19"/><line class="cls-1" x1="149.61" y1="137.19" x2="149.61" y2="137.19"/><line class="cls-1" x1="149.61" y1="137.19" x2="149.61" y2="137.19"/><line class="cls-1" x1="149.61" y1="137.19" x2="149.61" y2="137.19"/><line class="cls-1" x1="149.61" y1="137.19" x2="149.61" y2="137.19"/><line class="cls-1" x1="149.61" y1="137.19" x2="149.61" y2="137.19"/><line class="cls-1" x1="149.61" y1="137.19" x2="149.61" y2="137.19"/><line class="cls-1" x1="149.61" y1="137.19" x2="149.61" y2="137.19"/><line class="cls-1" x1="149.61" y1="137.19" x2="149.61" y2="137.19"/><line class="cls-1" x1="149.61" y1="137.19" x2="149.61" y2="137.19"/><line class="cls-1" x1="149.61" y1="137.19" x2="149.61" y2="137.19"/><line class="cls-1" x1="149.61" y1="137.19" x2="149.61" y2="137.19"/><line class="cls-1" x1="149.61" y1="137.19" x2="149.61" y2="137.19"/><line class="cls-1" x1="149.61" y1="137.19" x2="149.61" y2="137.19"/><line class="cls-1" x1="149.61" y1="137.19" x2="149.61" y2="137.19"/><line class="cls-1" x1="149.61" y1="137.19" x2="149.61" y2="137.19"/><line class="cls-1" x1="149.61" y1="137.19" x2="149.61" y2="137.19"/><line class="cls-1" x1="149.61" y1="137.19" x2="149.61" y2="137.19"/><line class="cls-1" x1="149.61" y1="137.19" x2="149.61" y2="137.19"/><line class="cls-1" x1="149.61" y1="137.19" x2="149.61" y2="137.19"/><line class="cls-1" x1="149.61" y1="137.19" x2="149.61" y2="137.19"/><line class="cls-1" x1="149.61" y1="137.19" x2="149.61" y2="137.19"/><line class="cls-1" x1="149.61" y1="137.19" x2="149.61" y2="137.19"/><line class="cls-1" x1="149.61" y1="137.19" x2="149.61" y2="137.19"/><line class="cls-1" x1="149.61" y1="137.19" x2="149.61" y2="137.19"/><line class="cls-1" x1="149.61" y1="137.19" x2="149.61" y2="137.19"/><line class="cls-1" x1="149.61" y1="137.19" x2="149.61" y2="137.19"/><line class="cls-1" x1="149.61" y1="137.19" x2="149.61" y2="137.19"/><line class="cls-1" x1="149.61" y1="137.19" x2="149.61" y2="137.19"/><line class="cls-1" x1="149.61" y1="137.19" x2="149.61" y2="137.19"/><line class="cls-1" x1="149.61" y1="137.19" x2="149.61" y2="137.19"/><line class="cls-1" x1="149.61" y1="137.19" x2="149.61" y2="137.19"/><line class="cls-1" x1="149.61" y1="137.19" x2="149.61" y2="137.19"/><line class="cls-1" x1="149.61" y1="137.19" x2="149.61" y2="137.19"/><line class="cls-1" x1="149.61" y1="137.19" x2="149.61" y2="137.19"/><line class="cls-1" x1="149.61" y1="137.19" x2="149.61" y2="137.19"/><line class="cls-1" x1="149.61" y1="137.19" x2="149.61" y2="137.19"/><line class="cls-1" x1="149.61" y1="137.19" x2="149.61" y2="137.19"/><line class="cls-1" x1="149.61" y1="137.19" x2="149.61" y2="137.19"/><line class="cls-1" x1="149.61" y1="137.19" x2="149.61" y2="137.19"/><line class="cls-1" x1="149.61" y1="137.19" x2="149.61" y2="137.19"/><line class="cls-1" x1="149.61" y1="137.19" x2="149.61" y2="137.19"/><line class="cls-1" x1="149.61" y1="137.19" x2="149.61" y2="137.19"/><line class="cls-1" x1="149.61" y1="137.19" x2="149.61" y2="137.19"/><line class="cls-1" x1="149.61" y1="137.19" x2="149.61" y2="137.19"/><line class="cls-1" x1="149.61" y1="137.19" x2="149.61" y2="137.19"/><line class="cls-1" x1="149.61" y1="137.19" x2="149.61" y2="137.19"/><line class="cls-1" x1="149.61" y1="137.19" x2="149.61" y2="137.19"/><line class="cls-1" x1="149.61" y1="137.19" x2="149.61" y2="137.19"/><line class="cls-1" x1="149.61" y1="137.19" x2="149.61" y2="137.19"/><line class="cls-1" x1="149.61" y1="137.19" x2="149.61" y2="137.19"/><line class="cls-1" x1="149.61" y1="137.19" x2="149.61" y2="137.19"/><line class="cls-1" x1="149.61" y1="137.19" x2="149.61" y2="137.19"/><line class="cls-1" x1="149.61" y1="137.19" x2="149.61" y2="137.19"/><line class="cls-1" x1="149.61" y1="230.61" x2="148.04" y2="230.99"/><line class="cls-1" x1="148.04" y1="230.99" x2="146.37" y2="231.53"/><line class="cls-1" x1="146.37" y1="231.53" x2="144.75" y2="230.67"/><line class="cls-1" x1="144.75" y1="230.67" x2="143.13" y2="230.67"/><line class="cls-1" x1="143.13" y1="230.67" x2="141.51" y2="230.56"/><line class="cls-1" x1="141.51" y1="230.56" x2="139.83" y2="230.4"/><line class="cls-1" x1="139.83" y1="230.4" x2="138.32" y2="229.53"/><line class="cls-1" x1="138.32" y1="229.53" x2="136.7" y2="229.32"/><line class="cls-1" x1="136.7" y1="229.32" x2="135.13" y2="228.94"/><line class="cls-1" x1="135.13" y1="228.94" x2="133.68" y2="227.8"/><line class="cls-1" x1="133.68" y1="227.8" x2="132.06" y2="227.75"/><line class="cls-1" x1="132.06" y1="227.75" x2="130.71" y2="226.24"/><line class="cls-1" x1="130.71" y1="226.24" x2="129.19" y2="225.91"/><line class="cls-1" x1="129.19" y1="225.91" x2="127.79" y2="224.78"/><line class="cls-1" x1="127.79" y1="224.78" x2="126.28" y2="224.46"/><line class="cls-1" x1="126.28" y1="224.46" x2="124.93" y2="223.32"/><line class="cls-1" x1="124.93" y1="223.32" x2="123.47" y2="222.73"/><line class="cls-1" x1="123.47" y1="222.73" x2="122.28" y2="221.38"/><line class="cls-1" x1="122.28" y1="221.38" x2="120.93" y2="220.51"/><line class="cls-1" x1="120.93" y1="220.51" x2="119.96" y2="218.73"/><line class="cls-1" x1="119.96" y1="218.73" x2="118.77" y2="217.6"/><line class="cls-1" x1="118.77" y1="217.6" x2="117.8" y2="216.09"/><line class="cls-1" x1="117.8" y1="216.09" x2="116.67" y2="214.9"/><line class="cls-1" x1="116.67" y1="214.9" x2="115.86" y2="213.12"/><line class="cls-1" x1="115.86" y1="213.12" x2="114.78" y2="211.98"/><line class="cls-1" x1="114.78" y1="211.98" x2="114.18" y2="209.93"/><line class="cls-1" x1="114.18" y1="209.93" x2="113.21" y2="208.74"/><line class="cls-1" x1="113.21" y1="208.74" x2="112.89" y2="206.31"/><line class="cls-1" x1="112.89" y1="206.31" x2="112.08" y2="204.96"/><line class="cls-1" x1="112.08" y1="204.96" x2="111.75" y2="202.8"/><line class="cls-1" x1="111.75" y1="202.8" x2="111.16" y2="201.18"/><line class="cls-1" x1="111.16" y1="201.18" x2="111.21" y2="198.64"/><line class="cls-1" x1="111.21" y1="198.64" x2="110.89" y2="196.81"/><line class="cls-1" x1="110.89" y1="196.81" x2="110.89" y2="194.59"/><line class="cls-1" x1="110.89" y1="194.59" x2="110.94" y2="192.49"/><line class="cls-1" x1="110.94" y1="192.49" x2="111.21" y2="190.06"/><line class="cls-1" x1="111.21" y1="190.06" x2="111.37" y2="187.95"/><line class="cls-1" x1="111.37" y1="187.95" x2="111.64" y2="185.79"/><line class="cls-1" x1="111.64" y1="185.79" x2="111.97" y2="183.69"/><line class="cls-1" x1="111.97" y1="183.69" x2="112.18" y2="181.8"/><line class="cls-1" x1="112.18" y1="181.8" x2="112.45" y2="179.91"/><line class="cls-1" x1="112.45" y1="179.91" x2="113.1" y2="177.75"/><line class="cls-1" x1="113.1" y1="177.75" x2="113.64" y2="175.8"/><line class="cls-1" x1="113.64" y1="175.8" x2="113.91" y2="174.18"/><line class="cls-1" x1="113.91" y1="174.18" x2="114.72" y2="172.08"/><line class="cls-1" x1="114.72" y1="172.08" x2="115.32" y2="170.35"/><line class="cls-1" x1="115.32" y1="170.35" x2="116.07" y2="168.46"/><line class="cls-1" x1="116.07" y1="168.46" x2="116.56" y2="166.95"/><line class="cls-1" x1="116.56" y1="166.95" x2="117.42" y2="165.16"/><line class="cls-1" x1="117.42" y1="165.16" x2="118.18" y2="163.6"/><line class="cls-1" x1="118.18" y1="163.6" x2="118.93" y2="162.03"/><line class="cls-1" x1="118.93" y1="162.03" x2="119.85" y2="160.41"/><line class="cls-1" x1="119.85" y1="160.41" x2="120.66" y2="159.01"/><line class="cls-1" x1="120.66" y1="159.01" x2="121.47" y2="157.6"/><line class="cls-1" x1="121.47" y1="157.6" x2="122.39" y2="156.2"/><line class="cls-1" x1="122.39" y1="156.2" x2="123.31" y2="154.9"/><line class="cls-1" x1="123.31" y1="154.9" x2="124.28" y2="153.61"/><line class="cls-1" x1="124.28" y1="153.61" x2="125.14" y2="152.42"/><line class="cls-1" x1="125.14" y1="152.42" x2="126.12" y2="151.29"/><line class="cls-1" x1="126.12" y1="151.29" x2="127.3" y2="150.04"/><line class="cls-1" x1="127.3" y1="150.04" x2="128.17" y2="149.07"/><line class="cls-1" x1="128.17" y1="149.07" x2="129.3" y2="147.94"/><line class="cls-1" x1="129.3" y1="147.94" x2="130.22" y2="147.02"/><line class="cls-1" x1="130.22" y1="147.02" x2="131.3" y2="146.1"/><line class="cls-1" x1="131.3" y1="146.1" x2="132.38" y2="145.18"/><line class="cls-1" x1="132.38" y1="145.18" x2="133.41" y2="144.37"/><line class="cls-1" x1="133.41" y1="144.37" x2="134.27" y2="143.67"/><line class="cls-1" x1="134.27" y1="143.67" x2="135.24" y2="142.97"/><line class="cls-1" x1="135.24" y1="142.97" x2="136.21" y2="142.32"/><line class="cls-1" x1="136.21" y1="142.32" x2="137.13" y2="141.67"/><line class="cls-1" x1="137.13" y1="141.67" x2="138" y2="141.13"/><line class="cls-1" x1="138" y1="141.13" x2="138.97" y2="140.59"/><line class="cls-1" x1="138.97" y1="140.59" x2="139.83" y2="140.16"/><line class="cls-1" x1="139.83" y1="140.16" x2="140.75" y2="139.68"/><line class="cls-1" x1="140.75" y1="139.68" x2="141.56" y2="139.3"/><line class="cls-1" x1="141.56" y1="139.3" x2="142.42" y2="138.97"/><line class="cls-1" x1="142.42" y1="138.97" x2="143.18" y2="138.65"/><line class="cls-1" x1="143.18" y1="138.65" x2="143.88" y2="138.38"/><line class="cls-1" x1="143.88" y1="138.38" x2="144.64" y2="138.11"/><line class="cls-1" x1="144.64" y1="138.11" x2="145.34" y2="137.89"/><line class="cls-1" x1="145.34" y1="137.89" x2="145.99" y2="137.73"/><line class="cls-1" x1="145.99" y1="137.73" x2="146.58" y2="137.57"/><line class="cls-1" x1="146.58" y1="137.57" x2="147.18" y2="137.46"/><line class="cls-1" x1="147.18" y1="137.46" x2="147.72" y2="137.35"/><line class="cls-1" x1="147.72" y1="137.35" x2="148.2" y2="137.25"/><line class="cls-1" x1="148.2" y1="137.25" x2="148.63" y2="137.19"/><line class="cls-1" x1="148.63" y1="137.19" x2="148.96" y2="137.19"/><line class="cls-1" x1="148.96" y1="137.19" x2="149.23" y2="137.19"/><line class="cls-1" x1="149.23" y1="137.19" x2="149.44" y2="137.19"/><line class="cls-1" x1="149.44" y1="137.19" x2="149.5" y2="137.19"/><line class="cls-1" x1="149.5" y1="137.19" x2="149.61" y2="137.19"/><line class="cls-1" x1="149.61" y1="137.19" x2="149.61" y2="137.19"/><line class="cls-1" x1="149.61" y1="137.19" x2="149.61" y2="137.19"/><line class="cls-1" x1="149.61" y1="137.19" x2="149.61" y2="137.19"/><line class="cls-1" x1="149.61" y1="137.19" x2="149.61" y2="137.19"/><line class="cls-1" x1="149.61" y1="137.19" x2="149.61" y2="137.19"/><line class="cls-1" x1="149.61" y1="137.19" x2="149.61" y2="137.19"/><line class="cls-1" x1="149.61" y1="137.19" x2="149.61" y2="137.19"/><line class="cls-1" x1="149.61" y1="137.19" x2="149.61" y2="137.19"/><line class="cls-1" x1="149.61" y1="137.19" x2="149.61" y2="137.19"/><line class="cls-1" x1="149.61" y1="137.19" x2="149.61" y2="137.19"/><line class="cls-1" x1="149.61" y1="137.19" x2="149.61" y2="137.19"/><line class="cls-1" x1="149.61" y1="137.19" x2="149.61" y2="137.19"/><line class="cls-1" x1="149.61" y1="137.19" x2="149.61" y2="137.19"/><line class="cls-1" x1="149.61" y1="137.19" x2="149.61" y2="137.19"/><line class="cls-1" x1="149.61" y1="137.19" x2="149.61" y2="137.19"/><line class="cls-1" x1="149.61" y1="137.19" x2="149.61" y2="137.19"/><line class="cls-1" x1="149.61" y1="137.19" x2="149.61" y2="137.19"/><line class="cls-1" x1="149.61" y1="137.19" x2="149.61" y2="137.19"/><line class="cls-1" x1="149.61" y1="137.19" x2="149.61" y2="137.19"/><line class="cls-1" x1="149.61" y1="137.19" x2="149.61" y2="137.19"/><line class="cls-1" x1="149.61" y1="137.19" x2="149.61" y2="137.19"/><line class="cls-1" x1="149.61" y1="137.19" x2="149.61" y2="137.19"/><line class="cls-1" x1="149.61" y1="137.19" x2="149.61" y2="137.19"/><line class="cls-1" x1="149.61" y1="137.19" x2="149.61" y2="137.19"/><line class="cls-1" x1="149.61" y1="137.19" x2="149.61" y2="137.19"/><line class="cls-1" x1="149.61" y1="137.19" x2="149.61" y2="137.19"/><line class="cls-1" x1="149.61" y1="137.19" x2="149.61" y2="137.19"/><line class="cls-1" x1="149.61" y1="137.19" x2="149.61" y2="137.19"/><line class="cls-1" x1="149.61" y1="137.19" x2="149.61" y2="137.19"/><line class="cls-1" x1="149.61" y1="137.19" x2="149.61" y2="137.19"/><line class="cls-1" x1="149.61" y1="137.19" x2="149.61" y2="137.19"/><line class="cls-1" x1="149.61" y1="137.19" x2="149.61" y2="137.19"/><line class="cls-1" x1="149.61" y1="137.19" x2="149.61" y2="137.19"/><line class="cls-1" x1="149.61" y1="137.19" x2="149.61" y2="137.19"/><line class="cls-1" x1="149.61" y1="137.19" x2="149.61" y2="137.19"/><line class="cls-1" x1="149.61" y1="137.19" x2="149.61" y2="137.19"/><line class="cls-1" x1="149.61" y1="137.19" x2="149.61" y2="137.19"/><line class="cls-1" x1="149.61" y1="137.19" x2="149.61" y2="137.19"/><line class="cls-1" x1="149.61" y1="137.19" x2="149.61" y2="137.19"/><line class="cls-1" x1="149.61" y1="137.19" x2="149.61" y2="137.19"/><line class="cls-1" x1="149.61" y1="137.19" x2="149.61" y2="137.19"/><line class="cls-1" x1="149.61" y1="137.19" x2="149.61" y2="137.19"/><line class="cls-1" x1="149.61" y1="137.19" x2="149.61" y2="137.19"/><line class="cls-1" x1="149.61" y1="137.19" x2="149.61" y2="137.19"/><line class="cls-1" x1="149.61" y1="137.19" x2="149.61" y2="137.19"/><line class="cls-1" x1="149.61" y1="137.19" x2="149.61" y2="137.19"/><line class="cls-1" x1="149.61" y1="137.19" x2="149.61" y2="137.19"/><line class="cls-1" x1="149.61" y1="137.19" x2="149.61" y2="137.19"/><line class="cls-1" x1="149.61" y1="137.19" x2="149.61" y2="137.19"/><line class="cls-1" x1="149.61" y1="137.19" x2="149.61" y2="137.19"/><line class="cls-1" x1="149.61" y1="137.19" x2="149.61" y2="137.19"/><line class="cls-1" x1="149.61" y1="137.19" x2="149.61" y2="137.19"/><line class="cls-1" x1="149.61" y1="137.19" x2="149.61" y2="137.19"/><line class="cls-1" x1="149.61" y1="137.19" x2="149.61" y2="137.19"/><line class="cls-1" x1="149.61" y1="137.19" x2="149.61" y2="137.19"/><line class="cls-1" x1="149.61" y1="137.19" x2="149.61" y2="137.19"/><line class="cls-1" x1="149.61" y1="137.19" x2="149.61" y2="137.19"/><line class="cls-1" x1="149.61" y1="137.19" x2="149.61" y2="137.19"/><line class="cls-1" x1="149.61" y1="137.19" x2="149.61" y2="137.19"/><line class="cls-1" x1="149.61" y1="137.19" x2="149.61" y2="137.19"/><line class="cls-1" x1="149.61" y1="137.19" x2="149.61" y2="137.19"/><line class="cls-1" x1="149.61" y1="137.19" x2="149.61" y2="137.19"/><line class="cls-1" x1="149.61" y1="137.19" x2="149.61" y2="137.19"/><line class="cls-1" x1="149.61" y1="137.19" x2="149.61" y2="137.19"/><line class="cls-1" x1="149.61" y1="137.19" x2="149.61" y2="137.19"/><line class="cls-1" x1="149.61" y1="137.19" x2="149.61" y2="137.19"/><line class="cls-1" x1="149.61" y1="137.19" x2="149.61" y2="137.19"/><line class="cls-1" x1="149.61" y1="137.19" x2="149.61" y2="137.19"/><line class="cls-1" x1="149.61" y1="137.19" x2="149.61" y2="137.19"/><line class="cls-1" x1="149.61" y1="137.19" x2="149.61" y2="137.19"/><line class="cls-1" x1="149.61" y1="137.19" x2="149.61" y2="137.19"/><line class="cls-1" x1="149.61" y1="137.19" x2="149.61" y2="137.19"/><line class="cls-1" x1="149.61" y1="137.19" x2="149.61" y2="137.19"/><line class="cls-1" x1="149.61" y1="137.19" x2="149.61" y2="137.19"/><line class="cls-1" x1="149.61" y1="137.19" x2="149.61" y2="137.19"/><line class="cls-1" x1="149.61" y1="137.19" x2="149.61" y2="137.19"/><line class="cls-1" x1="149.61" y1="137.19" x2="149.61" y2="137.19"/><line class="cls-1" x1="149.61" y1="137.19" x2="149.61" y2="137.19"/><line class="cls-1" x1="149.61" y1="137.19" x2="149.61" y2="137.19"/><line class="cls-1" x1="149.61" y1="137.19" x2="149.61" y2="137.19"/><line class="cls-1" x1="149.61" y1="137.19" x2="149.61" y2="137.19"/><line class="cls-1" x1="149.61" y1="137.19" x2="149.61" y2="137.19"/><line class="cls-1" x1="149.61" y1="137.19" x2="149.61" y2="137.19"/><line class="cls-1" x1="149.61" y1="137.19" x2="149.61" y2="137.19"/><line class="cls-1" x1="149.61" y1="137.19" x2="149.61" y2="137.19"/><line class="cls-1" x1="149.61" y1="137.19" x2="149.61" y2="137.19"/><line class="cls-1" x1="149.61" y1="137.19" x2="149.61" y2="137.19"/><line class="cls-1" x1="149.61" y1="137.19" x2="149.61" y2="137.19"/><line class="cls-1" x1="149.61" y1="137.19" x2="149.61" y2="137.19"/><line class="cls-1" x1="149.61" y1="230.61" x2="149.82" y2="230.5"/><line class="cls-1" x1="151.01" y1="230.02" x2="151.23" y2="229.91"/><line class="cls-1" x1="152.41" y1="230.29" x2="152.63" y2="230.4"/><line class="cls-1" x1="153.82" y1="230.13" x2="154.03" y2="230.07"/><line class="cls-1" x1="155.28" y1="229.96" x2="155.55" y2="229.96"/><line class="cls-1" x1="156.84" y1="229.69" x2="157.06" y2="229.59"/><line class="cls-1" x1="158.3" y1="229.48" x2="158.52" y2="229.53"/><line class="cls-1" x1="159.76" y1="229.32" x2="159.97" y2="229.15"/><line class="cls-1" x1="161.05" y1="228.51" x2="161.32" y2="228.51"/><line class="cls-1" x1="162.62" y1="228.4" x2="162.84" y2="228.29"/><line class="cls-1" x1="163.97" y1="227.75" x2="163.97" y2="227.75"/><line class="cls-1" x1="163.97" y1="227.75" x2="164.19" y2="227.59"/><line class="cls-1" x1="165.27" y1="226.94" x2="165.43" y2="226.83"/><line class="cls-1" x1="165.43" y1="226.83" x2="165.48" y2="226.83"/><line class="cls-1" x1="166.62" y1="226.24" x2="166.83" y2="226.13"/><line class="cls-1" x1="167.97" y1="225.48" x2="168.18" y2="225.37"/><line class="cls-1" x1="169.42" y1="225.1" x2="169.69" y2="225.1"/><line class="cls-1" x1="170.72" y1="224.29" x2="170.88" y2="224.13"/><line class="cls-1" x1="171.96" y1="223.43" x2="172.18" y2="223.32"/><line class="cls-1" x1="173.26" y1="222.51" x2="173.42" y2="222.3"/><line class="cls-1" x1="174.39" y1="221.38" x2="174.61" y2="221.22"/><line class="cls-1" x1="175.63" y1="220.46" x2="175.85" y2="220.35"/><line class="cls-1" x1="176.82" y1="219.54" x2="176.98" y2="219.38"/><line class="cls-1" x1="177.85" y1="218.41" x2="178.01" y2="218.25"/><line class="cls-1" x1="178.98" y1="217.38" x2="179.14" y2="217.17"/><line class="cls-1" x1="179.9" y1="216.09" x2="179.9" y2="216.09"/><line class="cls-1" x1="179.9" y1="216.09" x2="180.01" y2="215.87"/><line class="cls-1" x1="180.66" y1="214.79" x2="180.82" y2="214.57"/><line class="cls-1" x1="181.79" y1="213.66" x2="181.95" y2="213.49"/><line class="cls-1" x1="182.44" y1="212.31" x2="182.49" y2="212.09"/><line class="cls-1" x1="183.03" y1="210.96" x2="183.14" y2="210.74"/><line class="cls-1" x1="183.79" y1="209.61" x2="183.9" y2="209.39"/><line class="cls-1" x1="184.44" y1="208.26" x2="184.49" y2="208.04"/><line class="cls-1" x1="184.81" y1="206.8" x2="184.87" y2="206.58"/><line class="cls-1" x1="185.62" y1="205.56" x2="185.79" y2="205.34"/><line class="cls-1" x1="186.16" y1="204.15" x2="186.27" y2="203.94"/><line class="cls-1" x1="186.6" y1="202.69" x2="186.65" y2="202.48"/><line class="cls-1" x1="186.92" y1="201.24" x2="186.97" y2="201.02"/><line class="cls-1" x1="187.19" y1="199.78" x2="187.19" y2="199.67"/><line class="cls-1" x1="187.19" y1="199.67" x2="187.24" y2="199.56"/><line class="cls-1" x1="187.51" y1="198.32" x2="187.57" y2="198.1"/><line class="cls-1" x1="187.73" y1="196.86" x2="187.78" y2="196.65"/><line class="cls-1" x1="188" y1="195.35" x2="188.05" y2="195.13"/><line class="cls-1" x1="188.22" y1="193.89" x2="188.22" y2="193.62"/><line class="cls-1" x1="188.16" y1="192.33" x2="188.16" y2="192.16"/><line class="cls-1" x1="188.16" y1="192.16" x2="188.16" y2="192.06"/><line class="cls-1" x1="188.27" y1="190.76" x2="188.27" y2="190.49"/><line class="cls-1" x1="188.16" y1="189.19" x2="188.11" y2="188.98"/><line class="cls-1" x1="188" y1="187.68" x2="187.95" y2="187.47"/><line class="cls-1" x1="187.73" y1="186.22" x2="187.68" y2="186.01"/><line class="cls-1" x1="187.62" y1="184.71" x2="187.57" y2="184.5"/><line class="cls-1" x1="187.46" y1="183.2" x2="187.41" y2="182.98"/><line class="cls-1" x1="187.24" y1="181.69" x2="187.24" y2="181.42"/><line class="cls-1" x1="187.08" y1="180.18" x2="187.03" y2="179.96"/><line class="cls-1" x1="186.81" y1="178.66" x2="186.81" y2="178.5"/><line class="cls-1" x1="186.81" y1="178.5" x2="186.76" y2="178.39"/><line class="cls-1" x1="186.43" y1="177.15" x2="186.38" y2="176.94"/><line class="cls-1" x1="186.06" y1="175.69" x2="185.95" y2="175.48"/><line class="cls-1" x1="185.62" y1="174.24" x2="185.57" y2="174.02"/><line class="cls-1" x1="185.14" y1="172.83" x2="185.08" y2="172.62"/><line class="cls-1" x1="184.71" y1="171.43" x2="184.6" y2="171.21"/><line class="cls-1" x1="184.22" y1="170.02" x2="184.17" y2="169.81"/><line class="cls-1" x1="183.73" y1="168.62" x2="183.63" y2="168.4"/><line class="cls-1" x1="183.14" y1="167.27" x2="183.03" y2="167.05"/><line class="cls-1" x1="182.49" y1="165.92" x2="182.38" y2="165.7"/><line class="cls-1" x1="181.95" y1="164.52" x2="181.9" y2="164.3"/><line class="cls-1" x1="181.25" y1="163.17" x2="181.14" y2="162.95"/><line class="cls-1" x1="180.55" y1="161.87" x2="180.39" y2="161.65"/><line class="cls-1" x1="179.79" y1="160.52" x2="179.68" y2="160.3"/><line class="cls-1" x1="179.09" y1="159.17" x2="178.93" y2="158.95"/><line class="cls-1" x1="178.23" y1="157.87" x2="178.06" y2="157.66"/><line class="cls-1" x1="177.31" y1="156.58" x2="177.31" y2="156.58"/><line class="cls-1" x1="177.31" y1="156.58" x2="177.15" y2="156.36"/><line class="cls-1" x1="176.5" y1="155.28" x2="176.44" y2="155.23"/><line class="cls-1" x1="176.44" y1="155.23" x2="176.34" y2="155.12"/><line class="cls-1" x1="175.53" y1="154.09" x2="175.36" y2="153.88"/><line class="cls-1" x1="174.5" y1="152.85" x2="174.34" y2="152.64"/><line class="cls-1" x1="173.53" y1="151.61" x2="173.37" y2="151.39"/><line class="cls-1" x1="172.5" y1="150.42" x2="172.34" y2="150.26"/><line class="cls-1" x1="171.42" y1="149.34" x2="171.26" y2="149.18"/><line class="cls-1" x1="170.34" y1="148.26" x2="170.18" y2="148.1"/><line class="cls-1" x1="169.21" y1="147.18" x2="169.05" y2="147.02"/><line class="cls-1" x1="168.07" y1="146.16" x2="168.07" y2="146.16"/><line class="cls-1" x1="168.07" y1="146.16" x2="167.86" y2="145.99"/><line class="cls-1" x1="166.83" y1="145.13" x2="166.62" y2="144.97"/><line class="cls-1" x1="165.59" y1="144.1" x2="165.37" y2="143.94"/><line class="cls-1" x1="164.35" y1="143.19" x2="164.13" y2="143.02"/><line class="cls-1" x1="163.05" y1="142.32" x2="163.05" y2="142.32"/><line class="cls-1" x1="163.05" y1="142.32" x2="162.84" y2="142.16"/><line class="cls-1" x1="161.76" y1="141.46" x2="161.54" y2="141.35"/><line class="cls-1" x1="160.46" y1="140.7" x2="160.24" y2="140.59"/><line class="cls-1" x1="159.11" y1="140" x2="158.89" y2="139.89"/><line class="cls-1" x1="157.76" y1="139.41" x2="157.54" y2="139.3"/><line class="cls-1" x1="156.41" y1="138.76" x2="156.19" y2="138.7"/><line class="cls-1" x1="155.01" y1="138.22" x2="154.79" y2="138.16"/><line class="cls-1" x1="153.55" y1="137.84" x2="153.33" y2="137.79"/><line class="cls-1" x1="152.09" y1="137.46" x2="151.98" y2="137.41"/><line class="cls-1" x1="151.98" y1="137.41" x2="151.87" y2="137.41"/><line class="cls-1" x1="150.63" y1="137.19" x2="150.63" y2="137.19"/><line class="cls-1" x1="150.63" y1="137.19" x2="150.36" y2="137.19"/><line class="cls-1" x1="149.07" y1="230.4" x2="148.85" y2="230.29"/><line class="cls-1" x1="147.72" y1="230.02" x2="147.5" y2="230.07"/><line class="cls-1" x1="146.31" y1="230.4" x2="146.1" y2="230.34"/><line class="cls-1" x1="144.91" y1="229.96" x2="144.8" y2="229.91"/><line class="cls-1" x1="144.8" y1="229.91" x2="144.69" y2="229.91"/><line class="cls-1" x1="143.4" y1="229.96" x2="143.18" y2="229.96"/><line class="cls-1" x1="143.18" y1="229.96" x2="143.13" y2="229.96"/><line class="cls-1" x1="141.94" y1="229.48" x2="141.72" y2="229.42"/><line class="cls-1" x1="140.48" y1="229.53" x2="140.26" y2="229.59"/><line class="cls-1" x1="139.13" y1="229.05" x2="138.97" y2="228.88"/><line class="cls-1" x1="137.78" y1="228.51" x2="137.56" y2="228.45"/><line class="cls-1" x1="136.27" y1="228.18" x2="136.05" y2="228.07"/><line class="cls-1" x1="134.92" y1="227.53" x2="134.7" y2="227.37"/><line class="cls-1" x1="133.62" y1="226.72" x2="133.41" y2="226.62"/><line class="cls-1" x1="132.27" y1="226.08" x2="132.06" y2="225.91"/><line class="cls-1" x1="130.92" y1="225.27" x2="130.92" y2="225.27"/><line class="cls-1" x1="130.92" y1="225.27" x2="130.71" y2="225.21"/><line class="cls-1" x1="129.41" y1="225.05" x2="129.36" y2="225.05"/><line class="cls-1" x1="129.36" y1="225.05" x2="129.19" y2="224.89"/><line class="cls-1" x1="128.22" y1="223.97" x2="128.06" y2="223.81"/><line class="cls-1" x1="126.93" y1="223.27" x2="126.71" y2="223.16"/><line class="cls-1" x1="125.79" y1="222.24" x2="125.63" y2="222.08"/><line class="cls-1" x1="124.66" y1="221.22" x2="124.5" y2="221.05"/><line class="cls-1" x1="123.47" y1="220.35" x2="123.25" y2="220.24"/><line class="cls-1" x1="122.28" y1="219.38" x2="122.12" y2="219.16"/><line class="cls-1" x1="121.2" y1="218.19" x2="120.99" y2="218.03"/><line class="cls-1" x1="120.07" y1="217.11" x2="119.96" y2="216.9"/><line class="cls-1" x1="119.26" y1="215.87" x2="119.1" y2="215.65"/><line class="cls-1" x1="118.45" y1="214.57" x2="118.39" y2="214.47"/><line class="cls-1" x1="118.39" y1="214.47" x2="118.29" y2="214.36"/><line class="cls-1" x1="117.31" y1="213.49" x2="117.26" y2="213.44"/><line class="cls-1" x1="117.26" y1="213.44" x2="117.21" y2="213.28"/><line class="cls-1" x1="116.77" y1="212.09" x2="116.67" y2="211.87"/><line class="cls-1" x1="116.13" y1="210.74" x2="116.02" y2="210.52"/><line class="cls-1" x1="115.42" y1="209.44" x2="115.26" y2="209.23"/><line class="cls-1" x1="114.78" y1="208.09" x2="114.72" y2="207.88"/><line class="cls-1" x1="114.4" y1="206.64" x2="114.34" y2="206.47"/><line class="cls-1" x1="114.34" y1="206.47" x2="114.29" y2="206.42"/><line class="cls-1" x1="113.53" y1="205.39" x2="113.43" y2="205.29"/><line class="cls-1" x1="113.43" y1="205.29" x2="113.37" y2="205.18"/><line class="cls-1" x1="112.99" y1="203.94" x2="112.94" y2="203.72"/><line class="cls-1" x1="112.62" y1="202.48" x2="112.56" y2="202.26"/><line class="cls-1" x1="112.29" y1="201.02" x2="112.24" y2="200.8"/><line class="cls-1" x1="112.02" y1="199.51" x2="111.97" y2="199.29"/><line class="cls-1" x1="111.64" y1="198.05" x2="111.64" y2="198"/><line class="cls-1" x1="111.64" y1="198" x2="111.64" y2="197.78"/><line class="cls-1" x1="111.48" y1="196.48" x2="111.43" y2="196.21"/><line class="cls-1" x1="111.21" y1="194.97" x2="111.16" y2="194.76"/><line class="cls-1" x1="111.05" y1="193.46" x2="111.1" y2="193.24"/><line class="cls-1" x1="111.1" y1="191.89" x2="111.05" y2="191.68"/><line class="cls-1" x1="111" y1="190.38" x2="111" y2="190.33"/><line class="cls-1" x1="111" y1="190.33" x2="111" y2="190.11"/><line class="cls-1" x1="111.16" y1="188.82" x2="111.16" y2="188.55"/><line class="cls-1" x1="111.37" y1="187.3" x2="111.37" y2="187.03"/><line class="cls-1" x1="111.59" y1="185.79" x2="111.59" y2="185.52"/><line class="cls-1" x1="111.7" y1="184.23" x2="111.7" y2="184.06"/><line class="cls-1" x1="111.7" y1="184.06" x2="111.7" y2="183.96"/><line class="cls-1" x1="111.91" y1="182.66" x2="111.91" y2="182.39"/><line class="cls-1" x1="112.08" y1="181.09" x2="112.13" y2="180.88"/><line class="cls-1" x1="112.29" y1="179.58" x2="112.35" y2="179.37"/><line class="cls-1" x1="112.56" y1="178.07" x2="112.62" y2="177.85"/><line class="cls-1" x1="112.99" y1="176.67" x2="113.05" y2="176.45"/><line class="cls-1" x1="113.37" y1="175.21" x2="113.43" y2="174.99"/><line class="cls-1" x1="113.8" y1="173.75" x2="113.86" y2="173.53"/><line class="cls-1" x1="114.29" y1="172.35" x2="114.34" y2="172.13"/><line class="cls-1" x1="114.72" y1="170.94" x2="114.78" y2="170.83"/><line class="cls-1" x1="114.78" y1="170.83" x2="114.83" y2="170.73"/><line class="cls-1" x1="115.21" y1="169.54" x2="115.26" y2="169.32"/><line class="cls-1" x1="115.75" y1="168.13" x2="115.86" y2="167.92"/><line class="cls-1" x1="116.4" y1="166.78" x2="116.45" y2="166.57"/><line class="cls-1" x1="116.94" y1="165.43" x2="117.04" y2="165.22"/><line class="cls-1" x1="117.53" y1="164.03" x2="117.64" y2="163.81"/><line class="cls-1" x1="118.29" y1="162.73" x2="118.39" y2="162.52"/><line class="cls-1" x1="118.99" y1="161.38" x2="119.1" y2="161.17"/><line class="cls-1" x1="119.69" y1="160.03" x2="119.8" y2="159.82"/><line class="cls-1" x1="120.45" y1="158.74" x2="120.61" y2="158.52"/><line class="cls-1" x1="121.36" y1="157.44" x2="121.53" y2="157.23"/><line class="cls-1" x1="122.23" y1="156.15" x2="122.39" y2="155.93"/><line class="cls-1" x1="123.15" y1="154.85" x2="123.31" y2="154.63"/><line class="cls-1" x1="124.12" y1="153.61" x2="124.28" y2="153.45"/><line class="cls-1" x1="125.09" y1="152.42" x2="125.25" y2="152.26"/><line class="cls-1" x1="126.06" y1="151.23" x2="126.22" y2="151.02"/><line class="cls-1" x1="127.14" y1="150.04" x2="127.3" y2="149.88"/><line class="cls-1" x1="128.22" y1="148.96" x2="128.38" y2="148.8"/><line class="cls-1" x1="129.3" y1="147.88" x2="129.46" y2="147.72"/><line class="cls-1" x1="130.44" y1="146.8" x2="130.65" y2="146.64"/><line class="cls-1" x1="131.62" y1="145.83" x2="131.79" y2="145.67"/><line class="cls-1" x1="132.81" y1="144.86" x2="133.03" y2="144.7"/><line class="cls-1" x1="134" y1="143.83" x2="134.11" y2="143.73"/><line class="cls-1" x1="134.11" y1="143.73" x2="134.16" y2="143.67"/><line class="cls-1" x1="135.24" y1="142.97" x2="135.24" y2="142.97"/><line class="cls-1" x1="135.24" y1="142.97" x2="135.46" y2="142.81"/><line class="cls-1" x1="136.54" y1="142.11" x2="136.75" y2="141.94"/><line class="cls-1" x1="137.83" y1="141.24" x2="138.05" y2="141.13"/><line class="cls-1" x1="139.18" y1="140.49" x2="139.4" y2="140.38"/><line class="cls-1" x1="140.53" y1="139.84" x2="140.75" y2="139.73"/><line class="cls-1" x1="141.88" y1="139.19" x2="142.1" y2="139.08"/><line class="cls-1" x1="143.29" y1="138.6" x2="143.29" y2="138.6"/><line class="cls-1" x1="143.29" y1="138.6" x2="143.5" y2="138.49"/><line class="cls-1" x1="144.69" y1="138.11" x2="144.69" y2="138.11"/><line class="cls-1" x1="144.69" y1="138.11" x2="144.91" y2="138.06"/><line class="cls-1" x1="146.15" y1="137.73" x2="146.37" y2="137.68"/><line class="cls-1" x1="147.61" y1="137.35" x2="147.77" y2="137.35"/><line class="cls-1" x1="147.77" y1="137.35" x2="147.88" y2="137.35"/><line class="cls-1" x1="149.12" y1="137.19" x2="149.23" y2="137.19"/><line class="cls-1" x1="149.23" y1="137.19" x2="149.39" y2="137.19"/></g></g></svg>