<svg id="Kelvin_LED_F" data-name="Kelvin LED F" xmlns="http://www.w3.org/2000/svg" viewBox="0 0 300 263"><defs><style>.cls-1{isolation:isolate;font-size:16px;font-family:Avenir-Book, Avenir;}.cls-2,.cls-3{fill:none;stroke-width:0.5px;}.cls-2{stroke:#000;}.cls-3{stroke:#1d1d1b;stroke-linecap:round;stroke-linejoin:round;}</style></defs><title>kelvin-floor-citterio-flos-F3305030-spech-tech-02-300x263</title><text class="cls-1" transform="translate(71.52 170.41) rotate(-90)">1100 mm</text><line class="cls-2" x1="81.89" y1="46.68" x2="81.89" y2="217.26"/><line class="cls-2" x1="83.47" y1="46.68" x2="80.09" y2="46.68"/><line class="cls-2" x1="83.64" y1="217.26" x2="79.27" y2="217.26"/><text class="cls-1" transform="translate(133.43 27.36)">675 mm</text><line class="cls-2" x1="206.19" y1="37.73" x2="119.06" y2="37.73"/><line class="cls-2" x1="206.19" y1="39.31" x2="206.19" y2="35.93"/><line class="cls-2" x1="119.06" y1="39.49" x2="119.06" y2="35.11"/><line class="cls-2" x1="90.59" y1="227.26" x2="115.97" y2="227.53"/><line class="cls-2" x1="90.58" y1="226.44" x2="90.57" y2="228.09"/><line class="cls-2" x1="115.98" y1="226.71" x2="115.96" y2="228.35"/><text class="cls-1" transform="translate(74.07 247.34) rotate(0.22)">165 mm</text><line class="cls-3" x1="187.54" y1="50.57" x2="186.02" y2="50.57"/><line class="cls-3" x1="186.48" y1="51.49" x2="186.47" y2="51.03"/><line class="cls-3" x1="186.02" y1="50.57" x2="183.72" y2="50.57"/><polyline class="cls-3" points="186.01 50.58 186.2 50.61 186.35 50.72 186.45 50.88 186.47 51.03"/><line class="cls-3" x1="187.53" y1="52.4" x2="186.02" y2="52.4"/><line class="cls-3" x1="186.48" y1="51.49" x2="186.47" y2="51.95"/><polyline class="cls-3" points="186.47 51.95 186.43 52.13 186.32 52.28 186.16 52.38 186.01 52.4"/><line class="cls-3" x1="186.02" y1="52.4" x2="183.72" y2="52.4"/><line class="cls-3" x1="206.4" y1="52.79" x2="207.96" y2="52.79"/><line class="cls-3" x1="200.32" y1="52.79" x2="206.4" y2="52.79"/><line class="cls-3" x1="200.32" y1="52.79" x2="194.24" y2="52.79"/><line class="cls-3" x1="194.24" y1="52.79" x2="192.7" y2="52.79"/><line class="cls-3" x1="192.69" y1="52.79" x2="192.7" y2="52.79"/><line class="cls-3" x1="191.86" y1="52.79" x2="192.36" y2="52.79"/><line class="cls-3" x1="192.57" y1="52.79" x2="192.66" y2="52.79"/><line class="cls-3" x1="207.94" y1="50.78" x2="207.94" y2="50.8"/><polyline class="cls-3" points="207.94 50.78 207.94 50.78 207.94 50.78 207.92 50.78 207.51 50.78 206.69 50.78 206.42 50.78"/><line class="cls-3" x1="206.42" y1="50.78" x2="206.4" y2="52.79"/><polyline class="cls-3" points="200.32 50.78 201.54 50.78 205.2 50.78 206.11 50.78 206.42 50.78"/><polyline class="cls-3" points="200.32 50.78 199.1 50.78 195.44 50.78 194.37 50.78 194.22 50.78"/><line class="cls-3" x1="194.22" y1="50.78" x2="194.24" y2="52.79"/><polyline class="cls-3" points="192.7 50.78 192.7 50.78 192.71 50.78 192.98 50.78 193.95 50.78 194.22 50.78"/><line class="cls-3" x1="192.36" y1="52.79" x2="192.57" y2="52.79"/><line class="cls-3" x1="191.86" y1="51.49" x2="191.86" y2="52.79"/><line class="cls-3" x1="191.63" y1="52.79" x2="191.63" y2="51.49"/><line class="cls-3" x1="191.86" y1="50.19" x2="194.22" y2="50.19"/><line class="cls-3" x1="207.89" y1="50.71" x2="207.94" y2="50.78"/><line class="cls-3" x1="207.89" y1="50.71" x2="207.89" y2="50.71"/><line class="cls-3" x1="207.89" y1="50.71" x2="207.89" y2="50.71"/><line class="cls-3" x1="206.42" y1="50.78" x2="206.42" y2="50.71"/><polyline class="cls-3" points="207.89 50.71 207.89 50.71 207.89 50.71 207.87 50.71 207.59 50.71 207.07 50.71 206.64 50.71 206.42 50.71"/><polyline class="cls-3" points="200.32 50.71 201.54 50.71 205.2 50.71 206.11 50.71 206.42 50.71"/><line class="cls-3" x1="194.22" y1="50.78" x2="194.22" y2="50.71"/><polyline class="cls-3" points="200.32 50.71 199.1 50.71 195.44 50.71 194.37 50.71 194.22 50.71"/><line class="cls-3" x1="192.7" y1="50.78" x2="192.75" y2="50.71"/><polyline class="cls-3" points="192.75 50.71 192.75 50.71 192.75 50.71 192.77 50.71 193.04 50.71 193.57 50.71 194 50.71 194.22 50.71"/><line class="cls-3" x1="192.75" y1="50.71" x2="192.75" y2="50.71"/><line class="cls-3" x1="192.75" y1="50.71" x2="192.78" y2="50.7"/><line class="cls-3" x1="192.78" y1="50.7" x2="192.78" y2="50.7"/><line class="cls-3" x1="191.86" y1="50.19" x2="191.86" y2="51.49"/><line class="cls-3" x1="200.93" y1="50.18" x2="200.93" y2="50.18"/><line class="cls-3" x1="200.93" y1="50.18" x2="200.78" y2="50.18"/><line class="cls-3" x1="200.78" y1="50.18" x2="200.32" y2="50.18"/><line class="cls-3" x1="200.32" y1="50.18" x2="199.86" y2="50.18"/><line class="cls-3" x1="199.71" y1="50.18" x2="199.86" y2="50.18"/><line class="cls-3" x1="191.63" y1="51.49" x2="191.63" y2="50.19"/><line class="cls-3" x1="194.81" y1="50.19" x2="194.22" y2="50.19"/><line class="cls-3" x1="195.74" y1="50.19" x2="195.28" y2="50.19"/><line class="cls-3" x1="196.21" y1="50.19" x2="195.75" y2="50.19"/><line class="cls-3" x1="196.21" y1="50.19" x2="200.32" y2="50.19"/><line class="cls-3" x1="200.93" y1="50.18" x2="201.14" y2="50.18"/><line class="cls-3" x1="199.71" y1="50.18" x2="199.54" y2="50.18"/><line class="cls-3" x1="207.96" y1="52.79" x2="207.94" y2="50.8"/><line class="cls-3" x1="192.7" y1="52.79" x2="192.7" y2="50.78"/><line class="cls-3" x1="192.7" y1="52.2" x2="192.7" y2="52.43"/><line class="cls-3" x1="192.7" y1="52.69" x2="192.7" y2="52.78"/><line class="cls-3" x1="192.7" y1="52.79" x2="192.7" y2="52.79"/><line class="cls-3" x1="192.7" y1="52.79" x2="192.69" y2="52.79"/><line class="cls-3" x1="192.69" y1="52.79" x2="192.66" y2="52.79"/><line class="cls-3" x1="191.86" y1="52.79" x2="191.63" y2="52.79"/><line class="cls-3" x1="207.9" y1="50.71" x2="207.94" y2="50.78"/><line class="cls-3" x1="192.7" y1="50.78" x2="192.75" y2="50.71"/><line class="cls-3" x1="191.86" y1="50.19" x2="191.63" y2="50.19"/><line class="cls-3" x1="204.89" y1="50.19" x2="204.9" y2="50.19"/><polyline class="cls-3" points="204.86 50.19 205.05 50.2 205.24 50.2 205.39 50.21"/><line class="cls-3" x1="204.89" y1="50.19" x2="204.9" y2="50.19"/><polyline class="cls-3" points="204.86 50.19 205.28 50.2 205.63 50.22 205.88 50.24 206.13 50.26 206.43 50.3 206.63 50.33 206.82 50.37 207.04 50.42 207.19 50.46 207.32 50.51 207.47 50.55 207.62 50.6 207.78 50.66 207.96 50.73"/><line class="cls-3" x1="195.74" y1="50.19" x2="195.74" y2="50.19"/><line class="cls-3" x1="195.28" y1="50.19" x2="194.81" y2="50.19"/><line class="cls-3" x1="201.1" y1="50.18" x2="201.14" y2="50.18"/><polyline class="cls-3" points="201.14 50.18 201.14 50.18 201.15 50.18 201.74 50.18 203 50.17 203.92 50.18 204.89 50.19"/><line class="cls-3" x1="202.97" y1="50.17" x2="201.1" y2="50.18"/><line class="cls-3" x1="195.8" y1="50.19" x2="195.75" y2="50.19"/><line class="cls-3" x1="195.75" y1="50.19" x2="195.75" y2="50.19"/><polyline class="cls-3" points="195.78 50.19 195.97 50.19 196.16 50.19 196.35 50.18 196.54 50.18 196.58 50.18"/><line class="cls-3" x1="195.79" y1="50.19" x2="195.75" y2="50.19"/><line class="cls-3" x1="199.71" y1="50.18" x2="199.86" y2="50.18"/><line class="cls-3" x1="200.93" y1="50.18" x2="200.78" y2="50.18"/><line class="cls-3" x1="194.68" y1="50.68" x2="194.68" y2="50.71"/><line class="cls-3" x1="194.22" y1="50.68" x2="194.22" y2="50.71"/><line class="cls-3" x1="194.66" y1="50.68" x2="194.66" y2="50.71"/><line class="cls-3" x1="194.25" y1="50.68" x2="194.25" y2="50.71"/><line class="cls-3" x1="191.58" y1="51.49" x2="191.58" y2="50.42"/><line class="cls-3" x1="191.58" y1="52.56" x2="191.58" y2="51.49"/><line class="cls-3" x1="191.63" y1="50.42" x2="191.58" y2="50.42"/><line class="cls-3" x1="191.63" y1="52.56" x2="191.58" y2="52.56"/><line class="cls-3" x1="191.58" y1="50.57" x2="191.58" y2="50.2"/><line class="cls-3" x1="191.58" y1="51.49" x2="191.58" y2="50.57"/><polyline class="cls-3" points="189.37 50.43 189.44 50.41 189.48 50.41 189.5 50.4 189.51 50.39 189.52 50.39 189.52 50.39 189.52 50.38"/><line class="cls-3" x1="189.52" y1="50.37" x2="189.52" y2="50.38"/><polyline class="cls-3" points="189.37 50.43 189.44 50.41 189.48 50.41 189.5 50.4 189.51 50.39 189.52 50.39 189.52 50.39 189.52 50.38"/><polyline class="cls-3" points="187.54 50.58 187.79 50.57 188.05 50.56 188.26 50.55 188.47 50.53 188.77 50.5 189.06 50.46 189.37 50.43"/><polyline class="cls-3" points="187.45 51.49 187.48 51.3 187.57 51.14 187.71 51.02 187.89 50.95 188.07 50.95 188.25 51 188.4 51.12 188.5 51.28 188.54 51.46 188.52 51.65 188.43 51.82 188.3 51.95 188.13 52.02 187.94 52.03 187.76 51.98 187.6 51.88 187.5 51.72 187.45 51.54 187.45 51.49"/><line class="cls-3" x1="187.54" y1="50.57" x2="191.35" y2="50.57"/><line class="cls-3" x1="187.54" y1="50.57" x2="187.53" y2="50.57"/><polyline class="cls-3" points="187.08 51.03 187.12 50.84 187.22 50.69 187.38 50.6 187.53 50.58"/><line class="cls-3" x1="187.07" y1="51.49" x2="187.08" y2="51.03"/><polyline class="cls-3" points="187.54 50.58 187.79 50.57 188.05 50.56 188.26 50.55 188.47 50.53 188.77 50.5 189.06 50.46 189.37 50.43"/><line class="cls-3" x1="191.34" y1="51.49" x2="191.35" y2="50.57"/><line class="cls-3" x1="191.58" y1="51.49" x2="191.58" y2="52.4"/><line class="cls-3" x1="191.58" y1="52.4" x2="191.58" y2="52.78"/><line class="cls-3" x1="191.35" y1="52.78" x2="191.35" y2="52.4"/><line class="cls-3" x1="191.34" y1="51.49" x2="191.35" y2="52.4"/><line class="cls-3" x1="189.52" y1="52.59" x2="189.52" y2="52.59"/><line class="cls-3" x1="189.52" y1="52.61" x2="189.52" y2="52.59"/><polyline class="cls-3" points="189.37 52.55 189.44 52.56 189.48 52.57 189.5 52.58 189.51 52.59 189.52 52.59 189.52 52.59"/><polyline class="cls-3" points="187.54 52.4 187.79 52.41 188.05 52.42 188.26 52.43 188.47 52.45 188.77 52.48 189.06 52.51 189.37 52.55"/><line class="cls-3" x1="187.54" y1="52.4" x2="191.35" y2="52.4"/><line class="cls-3" x1="187.54" y1="52.4" x2="187.53" y2="52.4"/><line class="cls-3" x1="187.07" y1="51.49" x2="187.08" y2="51.95"/><polyline class="cls-3" points="187.53 52.4 187.35 52.37 187.2 52.26 187.1 52.1 187.08 51.95"/><line class="cls-3" x1="191.35" y1="50.2" x2="191.35" y2="50.57"/><polyline class="cls-3" points="190.87 50.24 190.95 50.23 190.99 50.23 191.01 50.22 191.03 50.21"/><polyline class="cls-3" points="190.87 50.24 190.7 50.25 190.53 50.27 190.3 50.29 190.06 50.32"/><polyline class="cls-3" points="190.06 50.32 189.98 50.33 189.91 50.33 189.89 50.32 189.89 50.32"/><line class="cls-3" x1="189.89" y1="50.32" x2="189.89" y2="50.32"/><line class="cls-3" x1="189.89" y1="50.32" x2="189.89" y2="50.32"/><polyline class="cls-3" points="190.06 50.32 190.3 50.29 190.53 50.27 190.7 50.25 190.87 50.24"/><line class="cls-3" x1="191.03" y1="50.21" x2="191.03" y2="50.2"/><polyline class="cls-3" points="190.87 50.24 190.95 50.23 190.99 50.23 191.01 50.22 191.03 50.21"/><line class="cls-3" x1="191.58" y1="50.73" x2="191.58" y2="50.73"/><line class="cls-3" x1="191.58" y1="52.78" x2="191.35" y2="52.78"/><polyline class="cls-3" points="189.52 52.61 189.93 52.67 190.23 52.71 190.55 52.74 190.87 52.77 191.03 52.77 191.19 52.78 191.35 52.78"/><line class="cls-3" x1="191.35" y1="50.2" x2="191.58" y2="50.2"/><line class="cls-3" x1="191.58" y1="52.25" x2="191.58" y2="52.25"/><polyline class="cls-3" points="189.52 50.37 189.71 50.34 189.89 50.32"/><polyline class="cls-3" points="191.03 50.2 191.22 50.2 191.35 50.2"/><polyline class="cls-3" points="187.99 50.95 188.18 50.99 188.34 51.08 188.46 51.23 188.52 51.41 188.52 51.59 188.45 51.77 188.32 51.91 188.16 51.99 187.97 52.02 187.79 51.98 187.63 51.88 187.52 51.73 187.47 51.55 187.48 51.37 187.55 51.19 187.68 51.06 187.85 50.98 187.99 50.95"/><polyline class="cls-3" points="187.99 51.02 188.18 51.05 188.33 51.16 188.43 51.31 188.47 51.5 188.42 51.68 188.32 51.83 188.16 51.93 187.97 51.96 187.79 51.92 187.64 51.8 187.55 51.65 187.52 51.46 187.57 51.28 187.69 51.13 187.85 51.04 187.99 51.02"/><line class="cls-3" x1="104.69" y1="214.16" x2="122.75" y2="59.52"/><line class="cls-3" x1="102.46" y1="214.18" x2="120.92" y2="59.52"/><line class="cls-3" x1="120.92" y1="59.52" x2="122.75" y2="59.52"/><line class="cls-3" x1="121.23" y1="59.51" x2="121.23" y2="59.52"/><line class="cls-3" x1="121.83" y1="59.52" x2="120.92" y2="59.5"/><line class="cls-3" x1="120.92" y1="59.5" x2="120.96" y2="57.8"/><line class="cls-3" x1="120.96" y1="57.8" x2="120.99" y2="56.22"/><line class="cls-3" x1="121.06" y1="53.14" x2="120.99" y2="56.22"/><line class="cls-3" x1="121.12" y1="49.99" x2="121.06" y2="53.14"/><line class="cls-3" x1="121.18" y1="47.36" x2="121.12" y2="49.99"/><line class="cls-3" x1="121.83" y1="59.52" x2="122.75" y2="59.5"/><line class="cls-3" x1="122.75" y1="59.5" x2="122.71" y2="57.8"/><polyline class="cls-3" points="121.18 47.36 121.21 47.17 121.29 47 121.42 46.86 121.58 46.77 121.76 46.72 121.95 46.73 122.13 46.79 122.28 46.89 122.4 47.04 122.47 47.22 122.49 47.36"/><polyline class="cls-3" points="121.83 52.08 121.65 52.04 121.48 51.95 121.36 51.81 121.29 51.64 121.29 51.45 121.34 51.27 121.45 51.12 121.61 51.02 121.79 50.97 121.83 50.97"/><line class="cls-3" x1="122.71" y1="57.8" x2="122.68" y2="56.22"/><line class="cls-3" x1="122.49" y1="47.36" x2="122.54" y2="49.99"/><polyline class="cls-3" points="121.83 50.97 122.02 51 122.18 51.09 122.31 51.23 122.38 51.41 122.38 51.59 122.33 51.77 122.22 51.92 122.06 52.03 121.88 52.07 121.83 52.08"/><line class="cls-3" x1="122.54" y1="49.99" x2="122.61" y2="53.14"/><line class="cls-3" x1="122.61" y1="53.14" x2="122.68" y2="56.22"/><polyline class="cls-3" points="121.83 50.97 122.02 51.01 122.18 51.1 122.31 51.24 122.37 51.41 122.38 51.6 122.32 51.78 122.2 51.93 122.05 52.03 121.86 52.07 121.67 52.05 121.5 51.96 121.38 51.83 121.3 51.65 121.29 51.47 121.34 51.29 121.45 51.13 121.6 51.02 121.78 50.98 121.83 50.97"/><line class="cls-3" x1="122.29" y1="59.51" x2="122.29" y2="59.52"/><line class="cls-3" x1="122.43" y1="59.51" x2="122.43" y2="59.52"/><line class="cls-3" x1="121.38" y1="59.51" x2="121.38" y2="59.52"/><line class="cls-3" x1="122.75" y1="52.12" x2="122.75" y2="52.12"/><line class="cls-3" x1="122.75" y1="51.52" x2="122.75" y2="50.61"/><line class="cls-3" x1="120" y1="51.52" x2="120" y2="51.98"/><polyline class="cls-3" points="120.46 52.44 120.28 52.4 120.12 52.29 120.03 52.13 120 51.98"/><line class="cls-3" x1="120" y1="51.52" x2="120" y2="51.06"/><line class="cls-3" x1="122.6" y1="52.44" x2="122.75" y2="52.44"/><line class="cls-3" x1="120.46" y1="52.44" x2="121.07" y2="52.44"/><line class="cls-3" x1="122.75" y1="51.52" x2="122.75" y2="52.44"/><polyline class="cls-3" points="120 51.06 120.04 50.88 120.15 50.73 120.31 50.63 120.46 50.61"/><line class="cls-3" x1="122.75" y1="50.92" x2="122.75" y2="50.92"/><line class="cls-3" x1="122.56" y1="50.61" x2="122.75" y2="50.61"/><line class="cls-3" x1="120.46" y1="50.61" x2="121.11" y2="50.61"/><polyline class="cls-3" points="121.36 51.52 121.4 51.34 121.5 51.19 121.66 51.08 121.84 51.05 122.03 51.09 122.18 51.2 122.28 51.36 122.31 51.54 122.26 51.72 122.15 51.88 121.99 51.97 121.8 51.99 121.63 51.95 121.47 51.83 121.38 51.67 121.36 51.52"/><line class="cls-3" x1="122.57" y1="47.92" x2="122.79" y2="46.97"/><line class="cls-3" x1="122.57" y1="47.92" x2="122.5" y2="47.92"/><line class="cls-3" x1="122.21" y1="46.83" x2="122.72" y2="46.95"/><line class="cls-3" x1="122.72" y1="46.95" x2="122.79" y2="46.97"/><line class="cls-3" x1="122.72" y1="46.95" x2="122.72" y2="46.95"/><line class="cls-3" x1="122.64" y1="47.91" x2="122.57" y2="47.92"/><line class="cls-3" x1="122.64" y1="47.91" x2="122.64" y2="47.91"/><line class="cls-3" x1="122.64" y1="47.91" x2="122.5" y2="47.92"/><line class="cls-3" x1="123.22" y1="47.34" x2="122.85" y2="47.02"/><line class="cls-3" x1="123.12" y1="47.78" x2="123.22" y2="47.34"/><line class="cls-3" x1="123.12" y1="47.78" x2="122.64" y2="47.91"/><line class="cls-3" x1="122.79" y1="46.97" x2="122.85" y2="47.02"/><line class="cls-3" x1="122.72" y1="46.95" x2="122.85" y2="47.02"/><line class="cls-3" x1="122.85" y1="47.02" x2="122.85" y2="47.02"/><line class="cls-3" x1="123.12" y1="47.78" x2="123.12" y2="47.78"/><line class="cls-3" x1="123.12" y1="47.78" x2="122.64" y2="47.91"/><line class="cls-3" x1="123.22" y1="47.34" x2="122.85" y2="47.02"/><line class="cls-3" x1="123.22" y1="47.34" x2="123.22" y2="47.34"/><line class="cls-3" x1="123.22" y1="47.34" x2="139.79" y2="51.14"/><line class="cls-3" x1="123.12" y1="47.78" x2="139.69" y2="51.58"/><line class="cls-3" x1="139.69" y1="51.58" x2="139.79" y2="51.14"/><line class="cls-3" x1="122.57" y1="47.92" x2="122.5" y2="47.92"/><line class="cls-3" x1="122.64" y1="47.91" x2="122.5" y2="47.92"/><line class="cls-3" x1="122.72" y1="46.95" x2="122.85" y2="47.02"/><line class="cls-3" x1="123.22" y1="47.34" x2="122.85" y2="47.02"/><line class="cls-3" x1="123.22" y1="47.34" x2="137.48" y2="50.61"/><polyline class="cls-3" points="140.46 51.29 140.6 51.39 140.63 51.57 140.53 51.71 140.35 51.74"/><line class="cls-3" x1="140.46" y1="51.29" x2="139.79" y2="51.14"/><line class="cls-3" x1="140.35" y1="51.74" x2="139.69" y2="51.58"/><line class="cls-3" x1="135.9" y1="51.87" x2="144.67" y2="51.87"/><polyline class="cls-3" points="135.91 51.87 135.73 51.82 135.6 51.68 135.56 51.5 135.62 51.33 135.76 51.21 135.91 51.18"/><line class="cls-3" x1="183.73" y1="50.61" x2="137.48" y2="50.61"/><line class="cls-3" x1="135.43" y1="50.61" x2="122.75" y2="50.61"/><line class="cls-3" x1="183.73" y1="52.44" x2="183.73" y2="50.61"/><line class="cls-3" x1="183.73" y1="52.44" x2="122.75" y2="52.44"/><line class="cls-3" x1="122.75" y1="52.44" x2="122.75" y2="50.61"/><polyline class="cls-3" points="144.67 51.18 144.85 51.23 144.97 51.36 145.01 51.54 144.95 51.72 144.81 51.83 144.67 51.87"/><line class="cls-3" x1="137.92" y1="51.18" x2="135.9" y2="51.18"/><line class="cls-3" x1="144.67" y1="51.18" x2="139.97" y2="51.18"/><line class="cls-3" x1="183.74" y1="50.84" x2="183.73" y2="50.84"/><line class="cls-3" x1="183.74" y1="51.01" x2="183.73" y2="51.01"/><line class="cls-3" x1="183.73" y1="51.52" x2="183.74" y2="52.44"/><line class="cls-3" x1="183.74" y1="52.2" x2="183.73" y2="52.2"/><line class="cls-3" x1="183.74" y1="52.04" x2="183.73" y2="52.04"/><line class="cls-3" x1="183.73" y1="51.52" x2="183.74" y2="50.61"/><line class="cls-3" x1="187.55" y1="50.61" x2="186.03" y2="50.61"/><line class="cls-3" x1="186.49" y1="51.52" x2="186.49" y2="51.06"/><line class="cls-3" x1="186.03" y1="50.61" x2="183.74" y2="50.61"/><polyline class="cls-3" points="186.03 50.61 186.21 50.65 186.37 50.75 186.46 50.91 186.49 51.06"/><line class="cls-3" x1="187.55" y1="52.44" x2="186.03" y2="52.44"/><line class="cls-3" x1="186.49" y1="51.52" x2="186.49" y2="51.98"/><polyline class="cls-3" points="186.49 51.98 186.45 52.16 186.34 52.32 186.18 52.41 186.03 52.44"/><line class="cls-3" x1="186.03" y1="52.44" x2="183.74" y2="52.44"/><line class="cls-3" x1="143.74" y1="51.28" x2="143.74" y2="51.18"/><line class="cls-3" x1="142.59" y1="51.28" x2="143.74" y2="51.28"/><line class="cls-3" x1="142.59" y1="51.76" x2="142.59" y2="51.28"/><line class="cls-3" x1="142.59" y1="51.76" x2="143.74" y2="51.76"/><line class="cls-3" x1="143.74" y1="51.87" x2="143.74" y2="51.76"/><line class="cls-3" x1="138.72" y1="51.36" x2="138.72" y2="51.87"/><line class="cls-3" x1="140.42" y1="51.28" x2="141.55" y2="51.28"/><line class="cls-3" x1="139.7" y1="51.59" x2="139.7" y2="51.76"/><line class="cls-3" x1="139.7" y1="51.76" x2="141.55" y2="51.76"/><line class="cls-3" x1="141.55" y1="51.76" x2="141.55" y2="51.28"/><line class="cls-3" x1="138.65" y1="51.35" x2="138.65" y2="51.87"/><line class="cls-3" x1="143.81" y1="51.87" x2="143.81" y2="51.76"/><polyline class="cls-3" points="143.74 51.76 143.8 51.76 143.81 51.76"/><line class="cls-3" x1="143.82" y1="51.76" x2="143.81" y2="51.76"/><line class="cls-3" x1="143.82" y1="51.76" x2="143.44" y2="51.76"/><polyline class="cls-3" points="143.21 51.75 143.21 51.75 143.22 51.75 143.25 51.75 143.44 51.76"/><line class="cls-3" x1="143.21" y1="51.75" x2="142.6" y2="51.75"/><line class="cls-3" x1="142.6" y1="51.75" x2="142.59" y2="51.76"/><line class="cls-3" x1="142.6" y1="51.75" x2="142.6" y2="51.29"/><line class="cls-3" x1="142.6" y1="51.29" x2="142.59" y2="51.28"/><polyline class="cls-3" points="143.74 51.28 143.8 51.28 143.81 51.28"/><line class="cls-3" x1="142.6" y1="51.29" x2="143.21" y2="51.29"/><polyline class="cls-3" points="143.21 51.29 143.21 51.29 143.22 51.29 143.25 51.29 143.44 51.29"/><line class="cls-3" x1="143.44" y1="51.29" x2="143.82" y2="51.29"/><line class="cls-3" x1="143.82" y1="51.29" x2="143.81" y2="51.28"/><line class="cls-3" x1="143.81" y1="51.28" x2="143.81" y2="51.18"/><line class="cls-3" x1="141.54" y1="51.75" x2="141.55" y2="51.76"/><line class="cls-3" x1="141.54" y1="51.29" x2="141.55" y2="51.28"/><line class="cls-3" x1="141.54" y1="51.75" x2="141.54" y2="51.29"/><polyline class="cls-3" points="140.16 51.76 140.16 51.76 140.15 51.76 140.11 51.76 139.97 51.76 139.7 51.76"/><line class="cls-3" x1="141.54" y1="51.75" x2="140.16" y2="51.75"/><line class="cls-3" x1="140.16" y1="51.75" x2="140.16" y2="51.76"/><line class="cls-3" x1="140.16" y1="51.69" x2="140.16" y2="51.76"/><line class="cls-3" x1="140.46" y1="51.29" x2="141.54" y2="51.29"/><line class="cls-3" x1="138.64" y1="51.34" x2="138.64" y2="51.87"/><line class="cls-3" x1="143.82" y1="51.29" x2="143.82" y2="51.76"/><line class="cls-3" x1="143.82" y1="51.25" x2="143.82" y2="51.87"/><polyline class="cls-3" points="143.82 51.18 143.82 51.24 143.82 51.25"/><line class="cls-3" x1="143.44" y1="51.76" x2="143.44" y2="51.29"/><line class="cls-3" x1="143.21" y1="51.75" x2="143.21" y2="51.29"/><line class="cls-3" x1="140.16" y1="51.69" x2="140.16" y2="51.75"/><line class="cls-3" x1="138.57" y1="51.33" x2="138.57" y2="51.87"/><polyline class="cls-3" points="137.69 51.87 137.65 51.68 137.68 51.5 137.76 51.33 137.9 51.21 137.94 51.19"/><polyline class="cls-3" points="137.69 51.87 137.65 51.68 137.67 51.49 137.76 51.33 137.84 51.25"/><polyline class="cls-3" points="137.84 51.25 137.84 51.25 137.85 51.24 137.86 51.23 137.91 51.2 137.94 51.18"/><line class="cls-3" x1="143.82" y1="51.25" x2="143.82" y2="51.24"/><polyline class="cls-3" points="137.84 51.25 137.84 51.25 137.85 51.24 137.86 51.23 137.91 51.2 137.94 51.18"/><polyline class="cls-3" points="187.49 51.34 187.59 51.17 187.73 51.05 187.9 50.98 188.09 50.98 188.27 51.04 188.42 51.15 188.52 51.31 188.56 51.49 188.53 51.68 188.45 51.85 188.31 51.98 188.14 52.05 187.95 52.07 187.78 52.02 187.62 51.91 187.51 51.76 187.47 51.57 187.46 51.52"/><line class="cls-3" x1="187.55" y1="50.61" x2="187.55" y2="50.61"/><polyline class="cls-3" points="187.09 51.06 187.13 50.88 187.24 50.73 187.4 50.63 187.55 50.61"/><line class="cls-3" x1="187.09" y1="51.52" x2="187.09" y2="51.06"/><line class="cls-3" x1="187.55" y1="52.44" x2="187.55" y2="52.44"/><line class="cls-3" x1="187.09" y1="51.52" x2="187.09" y2="51.98"/><polyline class="cls-3" points="187.55 52.44 187.37 52.4 187.22 52.29 187.12 52.13 187.09 51.98"/><polyline class="cls-3" points="188.01 50.99 188.2 51.02 188.36 51.12 188.47 51.26 188.54 51.44 188.53 51.63 188.47 51.8 188.34 51.94 188.18 52.03 187.99 52.05 187.81 52.01 187.65 51.91 187.53 51.76 187.48 51.59 187.49 51.4 187.57 51.23 187.69 51.09 187.87 51.01 188.01 50.99"/><line class="cls-3" x1="116.36" y1="216.78" x2="116.36" y2="217.11"/><line class="cls-3" x1="91.97" y1="216.78" x2="91.97" y2="217.11"/><line class="cls-3" x1="93.19" y1="216.78" x2="93.19" y2="217.11"/><line class="cls-3" x1="91.97" y1="217.11" x2="93.19" y2="217.11"/><line class="cls-3" x1="115.14" y1="216.78" x2="115.14" y2="217.11"/><line class="cls-3" x1="93.19" y1="217.11" x2="115.14" y2="217.11"/><line class="cls-3" x1="115.14" y1="217.11" x2="116.36" y2="217.11"/><line class="cls-3" x1="115.29" y1="214.19" x2="116.82" y2="214.19"/><line class="cls-3" x1="91.51" y1="214.19" x2="115.51" y2="214.19"/><line class="cls-3" x1="93.04" y1="216.78" x2="91.47" y2="216.78"/><line class="cls-3" x1="116.86" y1="216.78" x2="115.29" y2="216.78"/><line class="cls-3" x1="93.04" y1="216.78" x2="115.29" y2="216.78"/><line class="cls-3" x1="116.82" y1="214.19" x2="116.86" y2="216.78"/><line class="cls-3" x1="91.51" y1="214.19" x2="91.47" y2="216.78"/><line class="cls-3" x1="116.36" y1="217.11" x2="116.36" y2="217.19"/><line class="cls-3" x1="115.14" y1="217.11" x2="116.36" y2="217.11"/><line class="cls-3" x1="115.14" y1="217.11" x2="115.14" y2="217.19"/><line class="cls-3" x1="115.14" y1="217.19" x2="116.36" y2="217.19"/><line class="cls-3" x1="93.19" y1="217.11" x2="115.14" y2="217.11"/><line class="cls-3" x1="93.19" y1="217.11" x2="93.19" y2="217.19"/><line class="cls-3" x1="93.19" y1="217.19" x2="115.14" y2="217.19"/><line class="cls-3" x1="91.97" y1="217.11" x2="93.19" y2="217.11"/><line class="cls-3" x1="91.97" y1="217.11" x2="91.97" y2="217.19"/><line class="cls-3" x1="91.97" y1="217.19" x2="93.19" y2="217.19"/><line class="cls-3" x1="93.19" y1="217.23" x2="93.19" y2="216.74"/><line class="cls-3" x1="115.14" y1="217.23" x2="115.14" y2="216.74"/></svg>