<svg xmlns="http://www.w3.org/2000/svg" viewBox="0 0 300 263"><defs><style>.cls-1,.cls-2,.cls-3,.cls-4{fill:none;stroke-linecap:round;}.cls-1,.cls-2{stroke:red;}.cls-1,.cls-2,.cls-4{stroke-linejoin:round;}.cls-1,.cls-3,.cls-4{stroke-width:0.6px;}.cls-3,.cls-4{stroke:#000;}.cls-3{stroke-miterlimit:10;}</style></defs><title>kelvin-led-wall-citterio-flos-F33020-curva-fotometrica</title><g id="numeri_esterni_diagramma" data-name="numeri esterni diagramma"><path d="M148.27,239.2a6.85,6.85,0,0,1,.08-1,3.41,3.41,0,0,1,.3-.95,1.94,1.94,0,0,1,.59-.71,1.57,1.57,0,0,1,.95-.27,1.6,1.6,0,0,1,1,.27,2,2,0,0,1,.59.71,3.1,3.1,0,0,1,.29.95,5.7,5.7,0,0,1,.08,1,5.85,5.85,0,0,1-.08,1,3.13,3.13,0,0,1-.29.94,2,2,0,0,1-.59.71,1.6,1.6,0,0,1-1,.27,1.57,1.57,0,0,1-.95-.27,1.94,1.94,0,0,1-.59-.71,3.45,3.45,0,0,1-.3-.94A7.07,7.07,0,0,1,148.27,239.2Zm.68,0c0,.13,0,.29,0,.46a4.88,4.88,0,0,0,.06.52,2.83,2.83,0,0,0,.13.5,1.65,1.65,0,0,0,.22.44,1.24,1.24,0,0,0,.34.31,1,1,0,0,0,.48.12.9.9,0,0,0,.48-.12,1,1,0,0,0,.34-.31,1.41,1.41,0,0,0,.23-.44,4.07,4.07,0,0,0,.13-.5c0-.18,0-.35.06-.52s0-.33,0-.46,0-.3,0-.47,0-.34-.06-.51a3.8,3.8,0,0,0-.13-.51,1.53,1.53,0,0,0-.23-.44,1,1,0,0,0-.34-.31.9.9,0,0,0-.48-.12,1,1,0,0,0-.48.12,1.24,1.24,0,0,0-.34.31,1.81,1.81,0,0,0-.22.44,2.72,2.72,0,0,0-.13.51,4.43,4.43,0,0,0-.06.51C149,238.9,149,239.06,149,239.2Z"/><path d="M152.83,237.41a1.33,1.33,0,0,1,.08-.45,1.11,1.11,0,0,1,.25-.36,1,1,0,0,1,.36-.24,1.17,1.17,0,0,1,.9,0,1,1,0,0,1,.36.24,1.11,1.11,0,0,1,.25.36,1.31,1.31,0,0,1,0,.9,1.23,1.23,0,0,1-.61.61,1.17,1.17,0,0,1-.9,0,1.23,1.23,0,0,1-.61-.61A1.33,1.33,0,0,1,152.83,237.41Zm.43,0a.79.79,0,0,0,.05.25.68.68,0,0,0,.14.23.66.66,0,0,0,.23.17.73.73,0,0,0,.58,0,.76.76,0,0,0,.23-.17.88.88,0,0,0,.14-.23.65.65,0,0,0,0-.5,1.09,1.09,0,0,0-.14-.23,1,1,0,0,0-.23-.17.73.73,0,0,0-.58,0,.81.81,0,0,0-.23.17.75.75,0,0,0-.19.48Z"/><path d="M203.17,238.76h.21l.43,0a1.15,1.15,0,0,0,.42-.13.77.77,0,0,0,.31-.31.94.94,0,0,0,.13-.51.87.87,0,0,0-.27-.68,1,1,0,0,0-.7-.26,1.28,1.28,0,0,0-.63.16,1.14,1.14,0,0,0-.41.48l-.65-.25a1.48,1.48,0,0,1,.65-.72,2.07,2.07,0,0,1,1-.24,2.25,2.25,0,0,1,.64.09,1.72,1.72,0,0,1,.54.28,1.37,1.37,0,0,1,.37.46,1.48,1.48,0,0,1,.14.65,1.29,1.29,0,0,1-.27.8,1.34,1.34,0,0,1-.7.49v0a1.48,1.48,0,0,1,.85.49,1.37,1.37,0,0,1,.23.43,1.69,1.69,0,0,1,.08.5,1.66,1.66,0,0,1-.15.72,1.57,1.57,0,0,1-.41.51,1.71,1.71,0,0,1-.6.31,2.34,2.34,0,0,1-.71.1,2.18,2.18,0,0,1-1.13-.28,1.61,1.61,0,0,1-.7-.91l.68-.22a1.33,1.33,0,0,0,.41.65,1.3,1.3,0,0,0,.74.19,1.33,1.33,0,0,0,.45-.08,1.11,1.11,0,0,0,.36-.23,1.24,1.24,0,0,0,.25-.35,1.13,1.13,0,0,0,.09-.45,1.07,1.07,0,0,0-.12-.53,1,1,0,0,0-.33-.33,1.23,1.23,0,0,0-.46-.18,2.31,2.31,0,0,0-.52-.06h-.21Z"/><path d="M206.24,239.2a6.85,6.85,0,0,1,.08-1,3.11,3.11,0,0,1,.3-.95,1.94,1.94,0,0,1,.59-.71,1.55,1.55,0,0,1,.95-.27,1.6,1.6,0,0,1,1,.27,2,2,0,0,1,.59.71,3.1,3.1,0,0,1,.29.95,5.7,5.7,0,0,1,.08,1,5.85,5.85,0,0,1-.08,1,3.13,3.13,0,0,1-.29.94,2,2,0,0,1-.59.71,1.6,1.6,0,0,1-1,.27,1.55,1.55,0,0,1-.95-.27,1.94,1.94,0,0,1-.59-.71,3.14,3.14,0,0,1-.3-.94A7.07,7.07,0,0,1,206.24,239.2Zm.67,0c0,.13,0,.29,0,.46a4.88,4.88,0,0,0,.06.52,2.83,2.83,0,0,0,.13.5,1.4,1.4,0,0,0,.22.44,1.24,1.24,0,0,0,.34.31,1,1,0,0,0,.48.12.9.9,0,0,0,.48-.12,1,1,0,0,0,.34-.31,1.41,1.41,0,0,0,.23-.44,4.05,4.05,0,0,0,.12-.5,4.88,4.88,0,0,0,.06-.52,3.86,3.86,0,0,0,0-.46,3.94,3.94,0,0,0,0-.47,4.43,4.43,0,0,0-.06-.51,3.81,3.81,0,0,0-.12-.51,1.53,1.53,0,0,0-.23-.44,1,1,0,0,0-.34-.31.9.9,0,0,0-.48-.12,1,1,0,0,0-.48.12,1.24,1.24,0,0,0-.34.31,1.51,1.51,0,0,0-.22.44,2.72,2.72,0,0,0-.13.51,4.43,4.43,0,0,0-.06.51C206.92,238.9,206.91,239.06,206.91,239.2Z"/><path d="M210.84,237.41a1.13,1.13,0,0,1,.09-.45,1.26,1.26,0,0,1,.24-.36,1.2,1.2,0,0,1,.82-.33,1,1,0,0,1,.44.09,1.12,1.12,0,0,1,.37.24,1.26,1.26,0,0,1,.24.36,1.16,1.16,0,0,1-.24,1.26,1.15,1.15,0,0,1-.37.25,1,1,0,0,1-.44.09,1.13,1.13,0,0,1-.45-.09,1.15,1.15,0,0,1-.37-.25,1.15,1.15,0,0,1-.33-.81Zm.43,0a.61.61,0,0,0,.06.25.68.68,0,0,0,.14.23.72.72,0,0,0,.22.17.73.73,0,0,0,.3.06.72.72,0,0,0,.29-.06.62.62,0,0,0,.22-.17.91.91,0,0,0,.15-.23.65.65,0,0,0,0-.5,1.14,1.14,0,0,0-.15-.23.76.76,0,0,0-.22-.17.72.72,0,0,0-.29-.06.73.73,0,0,0-.3.06.92.92,0,0,0-.22.17.79.79,0,0,0-.14.23A.61.61,0,0,0,211.27,237.41Z"/><path d="M93.6,238.76h.21l.44,0a1.1,1.1,0,0,0,.41-.13.86.86,0,0,0,.32-.31.94.94,0,0,0,.12-.51.87.87,0,0,0-.27-.68,1,1,0,0,0-.7-.26,1.21,1.21,0,0,0-.62.16,1.1,1.1,0,0,0-.42.48l-.65-.25a1.45,1.45,0,0,1,.66-.72,2,2,0,0,1,1-.24,2.32,2.32,0,0,1,.65.09,2,2,0,0,1,.54.28,1.67,1.67,0,0,1,.37.46,1.48,1.48,0,0,1,.13.65,1.29,1.29,0,0,1-.27.8,1.34,1.34,0,0,1-.7.49v0a1.31,1.31,0,0,1,.49.18,1.34,1.34,0,0,1,.36.31,1.37,1.37,0,0,1,.23.43,1.42,1.42,0,0,1,.08.5,1.66,1.66,0,0,1-.15.72,1.57,1.57,0,0,1-.41.51,1.75,1.75,0,0,1-.59.31,2.46,2.46,0,0,1-.72.1,2.18,2.18,0,0,1-1.13-.28,1.56,1.56,0,0,1-.69-.91l.68-.22a1.2,1.2,0,0,0,.41.65,1.27,1.27,0,0,0,.73.19,1.33,1.33,0,0,0,.45-.08,1.11,1.11,0,0,0,.36-.23,1.07,1.07,0,0,0,.25-.35,1.13,1.13,0,0,0,.09-.45,1.07,1.07,0,0,0-.12-.53.87.87,0,0,0-.33-.33,1.17,1.17,0,0,0-.46-.18,2.24,2.24,0,0,0-.52-.06H93.6Z"/><path d="M96.68,239.2a5.7,5.7,0,0,1,.08-1,3.1,3.1,0,0,1,.29-.95,2,2,0,0,1,.59-.71,1.6,1.6,0,0,1,1-.27,1.57,1.57,0,0,1,1,.27,1.94,1.94,0,0,1,.59.71,3.41,3.41,0,0,1,.3.95,6.85,6.85,0,0,1,.08,1,7.07,7.07,0,0,1-.08,1,3.45,3.45,0,0,1-.3.94,1.94,1.94,0,0,1-.59.71,1.57,1.57,0,0,1-1,.27,1.6,1.6,0,0,1-1-.27,2,2,0,0,1-.59-.71,3.13,3.13,0,0,1-.29-.94A5.85,5.85,0,0,1,96.68,239.2Zm.67,0c0,.13,0,.29,0,.46a4.88,4.88,0,0,0,.06.52,4.07,4.07,0,0,0,.13.5,1.41,1.41,0,0,0,.23.44,1,1,0,0,0,.34.31.9.9,0,0,0,.48.12,1,1,0,0,0,.48-.12,1.24,1.24,0,0,0,.34-.31,1.65,1.65,0,0,0,.22-.44,2.83,2.83,0,0,0,.13-.5,4.88,4.88,0,0,0,.06-.52c0-.17,0-.33,0-.46s0-.3,0-.47a4.43,4.43,0,0,0-.06-.51,2.72,2.72,0,0,0-.13-.51,1.81,1.81,0,0,0-.22-.44,1.24,1.24,0,0,0-.34-.31,1,1,0,0,0-.48-.12.9.9,0,0,0-.48.12,1,1,0,0,0-.34.31,1.53,1.53,0,0,0-.23.44,3.8,3.8,0,0,0-.13.51,4.43,4.43,0,0,0-.06.51C97.35,238.9,97.35,239.06,97.35,239.2Z"/><path d="M101.28,237.41a1.33,1.33,0,0,1,.08-.45,1.11,1.11,0,0,1,.25-.36,1,1,0,0,1,.36-.24,1.17,1.17,0,0,1,.9,0,1,1,0,0,1,.36.24,1.11,1.11,0,0,1,.25.36,1.31,1.31,0,0,1,0,.9,1.23,1.23,0,0,1-.61.61,1.17,1.17,0,0,1-.9,0,1.23,1.23,0,0,1-.61-.61A1.33,1.33,0,0,1,101.28,237.41Zm.43,0a.79.79,0,0,0,.05.25.68.68,0,0,0,.14.23.76.76,0,0,0,.23.17.73.73,0,0,0,.58,0,.66.66,0,0,0,.23-.17.68.68,0,0,0,.14-.23.71.71,0,0,0-.14-.73.81.81,0,0,0-.23-.17.73.73,0,0,0-.58,0,1,1,0,0,0-.23.17.75.75,0,0,0-.19.48Z"/><path d="M249.93,137.18h0a1.24,1.24,0,0,1-.37.12,1.84,1.84,0,0,1-.39,0,1.91,1.91,0,0,1-.68-.12,1.58,1.58,0,0,1-.54-.37,1.63,1.63,0,0,1-.36-.56,2.05,2.05,0,0,1-.13-.72,1.79,1.79,0,0,1,.15-.75,1.48,1.48,0,0,1,.4-.55,1.79,1.79,0,0,1,.6-.35,2,2,0,0,1,.75-.13,2.11,2.11,0,0,1,.75.13,1.79,1.79,0,0,1,.6.35,1.59,1.59,0,0,1,.4.55,1.79,1.79,0,0,1,.14.75,2.15,2.15,0,0,1,0,.45,1.68,1.68,0,0,1-.11.4,2.59,2.59,0,0,1-.17.38l-.21.36-1.51,2.39h-.78Zm-.59-.42a1.28,1.28,0,0,0,.48-.09,1,1,0,0,0,.39-.24,1.23,1.23,0,0,0,.26-.37,1.43,1.43,0,0,0,0-1,1.1,1.1,0,0,0-.65-.62,1.48,1.48,0,0,0-1,0,1.28,1.28,0,0,0-.39.24,1.12,1.12,0,0,0-.26.38,1.3,1.3,0,0,0,0,1,1.08,1.08,0,0,0,.26.37,1,1,0,0,0,.39.24A1.28,1.28,0,0,0,249.34,136.76Z"/><path d="M251.82,136.71a7.07,7.07,0,0,1,.08-1,3.19,3.19,0,0,1,.29-1,2,2,0,0,1,.59-.7,1.54,1.54,0,0,1,1-.28,1.49,1.49,0,0,1,.95.28,1.91,1.91,0,0,1,.59.7,2.94,2.94,0,0,1,.3,1,6.29,6.29,0,0,1,0,2,2.94,2.94,0,0,1-.3.95,1.91,1.91,0,0,1-.59.7,1.49,1.49,0,0,1-.95.28,1.54,1.54,0,0,1-1-.28,2,2,0,0,1-.59-.7,3.19,3.19,0,0,1-.29-.95A7.07,7.07,0,0,1,251.82,136.71Zm.67,0c0,.14,0,.29,0,.46a4.6,4.6,0,0,0,.06.52,4.7,4.7,0,0,0,.12.51,2,2,0,0,0,.23.44,1,1,0,0,0,.34.31,1,1,0,0,0,.48.11,1.06,1.06,0,0,0,.48-.11,1.24,1.24,0,0,0,.34-.31,1.65,1.65,0,0,0,.22-.44,3.18,3.18,0,0,0,.13-.51,4.6,4.6,0,0,0,.06-.52c0-.17,0-.32,0-.46s0-.29,0-.46a4.6,4.6,0,0,0-.06-.52,3.18,3.18,0,0,0-.13-.51,1.65,1.65,0,0,0-.22-.44,1.24,1.24,0,0,0-.34-.31,1.06,1.06,0,0,0-.48-.11,1,1,0,0,0-.48.11,1,1,0,0,0-.34.31,2,2,0,0,0-.23.44,4.7,4.7,0,0,0-.12.51,4.6,4.6,0,0,0-.06.52C252.5,136.42,252.49,136.57,252.49,136.71Z"/><path d="M256.42,134.93a1.13,1.13,0,0,1,.09-.45,1.31,1.31,0,0,1,.24-.37,1.18,1.18,0,0,1,.37-.24,1,1,0,0,1,.44-.09,1.13,1.13,0,0,1,.45.09,1.06,1.06,0,0,1,.61.61,1.13,1.13,0,0,1,.09.45,1,1,0,0,1-.09.44,1.06,1.06,0,0,1-.61.61,1.13,1.13,0,0,1-.45.09,1,1,0,0,1-.44-.09,1.18,1.18,0,0,1-.37-.24,1.31,1.31,0,0,1-.24-.37A1,1,0,0,1,256.42,134.93Zm.43,0a.69.69,0,0,0,0,.24,1,1,0,0,0,.15.24.73.73,0,0,0,.51.23.54.54,0,0,0,.29-.07.63.63,0,0,0,.23-.16.72.72,0,0,0,.14-.24.52.52,0,0,0,0-.24.56.56,0,0,0,0-.25.59.59,0,0,0-.14-.23.74.74,0,0,0-.52-.24.73.73,0,0,0-.29.07.62.62,0,0,0-.22.17.76.76,0,0,0-.15.23A.74.74,0,0,0,256.85,134.93Z"/><path d="M41.57,137.18h0a1.34,1.34,0,0,1-.37.12,2,2,0,0,1-.39,0,1.92,1.92,0,0,1-.69-.12,1.58,1.58,0,0,1-.54-.37,1.8,1.8,0,0,1-.36-.56,2.05,2.05,0,0,1-.13-.72,1.79,1.79,0,0,1,.15-.75,1.48,1.48,0,0,1,.4-.55,1.79,1.79,0,0,1,.6-.35,2.23,2.23,0,0,1,1.5,0,1.79,1.79,0,0,1,.6.35,1.48,1.48,0,0,1,.4.55,1.79,1.79,0,0,1,.15.75,3.14,3.14,0,0,1,0,.45,2.34,2.34,0,0,1-.12.4,1.84,1.84,0,0,1-.17.38,3.35,3.35,0,0,1-.21.36l-1.5,2.39h-.79Zm-.59-.42a1.28,1.28,0,0,0,.48-.09,1,1,0,0,0,.39-.24,1.23,1.23,0,0,0,.26-.37,1.3,1.3,0,0,0,0-1,1.1,1.1,0,0,0-.65-.62,1.48,1.48,0,0,0-1,0,1.1,1.1,0,0,0-.65.62,1.43,1.43,0,0,0,0,1,1.23,1.23,0,0,0,.26.37,1,1,0,0,0,.39.24A1.28,1.28,0,0,0,41,136.76Z"/><path d="M43.46,136.71a7.07,7.07,0,0,1,.08-1,2.94,2.94,0,0,1,.3-1,1.91,1.91,0,0,1,.59-.7,1.49,1.49,0,0,1,1-.28,1.54,1.54,0,0,1,1,.28,2,2,0,0,1,.59.7,3.19,3.19,0,0,1,.29,1,6.29,6.29,0,0,1,0,2,3.19,3.19,0,0,1-.29.95,2,2,0,0,1-.59.7,1.54,1.54,0,0,1-1,.28,1.49,1.49,0,0,1-1-.28,1.91,1.91,0,0,1-.59-.7,2.94,2.94,0,0,1-.3-.95A7.07,7.07,0,0,1,43.46,136.71Zm.67,0c0,.14,0,.29,0,.46a4.6,4.6,0,0,0,.06.52,3.18,3.18,0,0,0,.13.51,1.65,1.65,0,0,0,.22.44,1.12,1.12,0,0,0,.34.31,1.1,1.1,0,0,0,1,0,1.12,1.12,0,0,0,.34-.31,2,2,0,0,0,.23-.44,4.7,4.7,0,0,0,.12-.51,4.6,4.6,0,0,0,.06-.52c0-.17,0-.32,0-.46s0-.29,0-.46a4.6,4.6,0,0,0-.06-.52,4.7,4.7,0,0,0-.12-.51,2,2,0,0,0-.23-.44,1.12,1.12,0,0,0-.34-.31,1.1,1.1,0,0,0-1,0,1.12,1.12,0,0,0-.34.31,1.65,1.65,0,0,0-.22.44,3.18,3.18,0,0,0-.13.51,4.6,4.6,0,0,0-.06.52C44.14,136.42,44.13,136.57,44.13,136.71Z"/><path d="M48.06,134.93a1.13,1.13,0,0,1,.09-.45,1.06,1.06,0,0,1,.61-.61,1.13,1.13,0,0,1,.45-.09,1.08,1.08,0,0,1,.44.09,1.06,1.06,0,0,1,.61.61,1.13,1.13,0,0,1,.09.45,1,1,0,0,1-.09.44,1.06,1.06,0,0,1-.61.61,1.08,1.08,0,0,1-.44.09,1.13,1.13,0,0,1-.45-.09,1.06,1.06,0,0,1-.61-.61A1,1,0,0,1,48.06,134.93Zm.43,0a.53.53,0,0,0,.06.24.72.72,0,0,0,.14.24.69.69,0,0,0,.22.16.6.6,0,0,0,.3.07.73.73,0,0,0,.51-.23,1,1,0,0,0,.15-.24.69.69,0,0,0,.05-.24.74.74,0,0,0-.05-.25.76.76,0,0,0-.15-.23.62.62,0,0,0-.22-.17.73.73,0,0,0-.29-.07.73.73,0,0,0-.3.07.72.72,0,0,0-.22.17.59.59,0,0,0-.14.23A.57.57,0,0,0,48.49,134.93Z"/><path d="M148.37,38.51h-.68v-4.8h0l-1,.85-.4-.48,1.52-1.24h.59Z"/><path d="M150.49,34.23a1.48,1.48,0,0,1,.13-.61,1.2,1.2,0,0,1,.34-.46,1.44,1.44,0,0,1,.51-.3,1.92,1.92,0,0,1,1.28,0,1.44,1.44,0,0,1,.51.3,1.2,1.2,0,0,1,.34.46,1.33,1.33,0,0,1,.13.61,1.16,1.16,0,0,1-.07.4,1.41,1.41,0,0,1-.18.37,1.33,1.33,0,0,1-.29.29,1.18,1.18,0,0,1-.39.19h0a1.44,1.44,0,0,1,.46.19,1.35,1.35,0,0,1,.35.32,1.42,1.42,0,0,1,.23.44,1.7,1.7,0,0,1,.08.51,1.74,1.74,0,0,1-.14.69,1.43,1.43,0,0,1-.39.52,1.47,1.47,0,0,1-.57.33,2.35,2.35,0,0,1-1.42,0,1.47,1.47,0,0,1-.57-.33,1.55,1.55,0,0,1-.39-.52,1.74,1.74,0,0,1-.14-.69,1.7,1.7,0,0,1,.08-.51,1.67,1.67,0,0,1,.23-.44,1.35,1.35,0,0,1,.35-.32,1.44,1.44,0,0,1,.46-.19h0a1.18,1.18,0,0,1-.39-.19,1.33,1.33,0,0,1-.29-.29,1.41,1.41,0,0,1-.18-.37A1.46,1.46,0,0,1,150.49,34.23ZM151,36.9a1.18,1.18,0,0,0,.09.46,1.07,1.07,0,0,0,.25.35,1,1,0,0,0,.36.23,1.12,1.12,0,0,0,.88,0,1,1,0,0,0,.36-.23,1.07,1.07,0,0,0,.25-.35,1.18,1.18,0,0,0,.09-.46,1.14,1.14,0,0,0-.09-.46,1.13,1.13,0,0,0-.61-.58,1.12,1.12,0,0,0-.88,0,1.13,1.13,0,0,0-.61.58A1.14,1.14,0,0,0,151,36.9Zm.2-2.64a.88.88,0,0,0,.26.67,1,1,0,0,0,1.36,0,1,1,0,0,0,0-1.34,1,1,0,0,0-1.36,0A.88.88,0,0,0,151.17,34.26Z"/><path d="M154.64,35.68a7,7,0,0,1,.08-1,3.1,3.1,0,0,1,.29-1,2,2,0,0,1,.59-.71,1.6,1.6,0,0,1,1-.27,1.55,1.55,0,0,1,.95.27,1.94,1.94,0,0,1,.59.71,2.86,2.86,0,0,1,.3,1,7,7,0,0,1,.08,1,7.07,7.07,0,0,1-.08,1,2.88,2.88,0,0,1-.3.94,1.94,1.94,0,0,1-.59.71,1.55,1.55,0,0,1-.95.27,1.6,1.6,0,0,1-1-.27,2,2,0,0,1-.59-.71,3.13,3.13,0,0,1-.29-.94A7.07,7.07,0,0,1,154.64,35.68Zm.67,0c0,.13,0,.29,0,.46a4.88,4.88,0,0,0,.06.52,4.05,4.05,0,0,0,.12.5,1.66,1.66,0,0,0,.23.44,1.12,1.12,0,0,0,.34.31,1,1,0,0,0,1,0,1.12,1.12,0,0,0,.34-.31,1.4,1.4,0,0,0,.22-.44,2.83,2.83,0,0,0,.13-.5,4.88,4.88,0,0,0,.06-.52c0-.17,0-.33,0-.46s0-.3,0-.47a4.43,4.43,0,0,0-.06-.51,2.72,2.72,0,0,0-.13-.51,1.51,1.51,0,0,0-.22-.44,1.12,1.12,0,0,0-.34-.31,1,1,0,0,0-1,0,1.12,1.12,0,0,0-.34.31,1.83,1.83,0,0,0-.23.44,3.81,3.81,0,0,0-.12.51,4.43,4.43,0,0,0-.06.51C155.32,35.38,155.31,35.54,155.31,35.68Z"/><path d="M159.24,33.89a1.15,1.15,0,0,1,.33-.81,1,1,0,0,1,.37-.24,1,1,0,0,1,.44-.09,1.15,1.15,0,0,1,.82,2,1.15,1.15,0,0,1-.37.25,1.13,1.13,0,0,1-.45.09,1.15,1.15,0,0,1-.81-.34,1.15,1.15,0,0,1-.33-.81Zm.43,0a.79.79,0,0,0,.05.25,1.14,1.14,0,0,0,.15.23.62.62,0,0,0,.22.17.72.72,0,0,0,.29.06.68.68,0,0,0,.52-.23.79.79,0,0,0,.14-.23.65.65,0,0,0,0-.5.79.79,0,0,0-.14-.23.81.81,0,0,0-.23-.17.65.65,0,0,0-.29-.06.72.72,0,0,0-.29.06.76.76,0,0,0-.22.17,1.14,1.14,0,0,0-.15.23A.79.79,0,0,0,159.67,33.89Z"/><path d="M203.18,38.51h-.68v-4.8h0l-1,.85-.4-.48,1.52-1.24h.59Z"/><path d="M208.49,33.47h-2.31l0,1.53a1.08,1.08,0,0,1,.36-.11l.37,0a2,2,0,0,1,.74.14,1.61,1.61,0,0,1,.57.39,1.9,1.9,0,0,1,.37.59,2,2,0,0,1,.13.74,2,2,0,0,1-.15.78,1.74,1.74,0,0,1-.41.59,1.91,1.91,0,0,1-.61.38,2.2,2.2,0,0,1-.78.13,1.73,1.73,0,0,1-1-.28,2,2,0,0,1-.63-.75l.67-.25a1.31,1.31,0,0,0,.42.51,1.1,1.1,0,0,0,.64.2,1.28,1.28,0,0,0,.48-.09,1.26,1.26,0,0,0,.38-.27,1.15,1.15,0,0,0,.26-.41,1.53,1.53,0,0,0,.1-.54,1.38,1.38,0,0,0-.11-.55,1.08,1.08,0,0,0-.3-.4,1.26,1.26,0,0,0-.44-.25,1.67,1.67,0,0,0-.55-.08,1.84,1.84,0,0,0-.6.1,2.58,2.58,0,0,0-.56.25l.06-2.95h3Z"/><path d="M209.45,35.68a7,7,0,0,1,.08-1,3.1,3.1,0,0,1,.29-1,2,2,0,0,1,.59-.71,1.6,1.6,0,0,1,1-.27,1.55,1.55,0,0,1,.95.27,1.94,1.94,0,0,1,.59.71,2.86,2.86,0,0,1,.3,1,7,7,0,0,1,.08,1,7.07,7.07,0,0,1-.08,1,2.88,2.88,0,0,1-.3.94,1.94,1.94,0,0,1-.59.71,1.55,1.55,0,0,1-.95.27,1.6,1.6,0,0,1-1-.27,2,2,0,0,1-.59-.71,3.13,3.13,0,0,1-.29-.94A7.07,7.07,0,0,1,209.45,35.68Zm.67,0c0,.13,0,.29,0,.46a4.88,4.88,0,0,0,.06.52,4.05,4.05,0,0,0,.12.5,1.66,1.66,0,0,0,.23.44,1,1,0,0,0,.34.31.9.9,0,0,0,.48.12,1,1,0,0,0,.48-.12,1.24,1.24,0,0,0,.34-.31,1.4,1.4,0,0,0,.22-.44,2.83,2.83,0,0,0,.13-.5,4.88,4.88,0,0,0,.06-.52c0-.17,0-.33,0-.46s0-.3,0-.47a4.43,4.43,0,0,0-.06-.51,2.72,2.72,0,0,0-.13-.51,1.51,1.51,0,0,0-.22-.44,1.24,1.24,0,0,0-.34-.31,1,1,0,0,0-.48-.12.9.9,0,0,0-.48.12,1,1,0,0,0-.34.31,1.83,1.83,0,0,0-.23.44,3.81,3.81,0,0,0-.12.51,4.43,4.43,0,0,0-.06.51C210.13,35.38,210.12,35.54,210.12,35.68Z"/><path d="M214.05,33.89a1.15,1.15,0,0,1,.33-.81,1,1,0,0,1,.37-.24,1,1,0,0,1,.44-.09,1.13,1.13,0,0,1,.45.09,1,1,0,0,1,.36.24,1,1,0,0,1,.25.36,1.17,1.17,0,0,1,0,.9,1.23,1.23,0,0,1-.61.61,1.13,1.13,0,0,1-.45.09,1.15,1.15,0,0,1-.81-.34,1.15,1.15,0,0,1-.33-.81Zm.43,0a.79.79,0,0,0,.05.25,1.14,1.14,0,0,0,.15.23.62.62,0,0,0,.22.17.72.72,0,0,0,.29.06.68.68,0,0,0,.52-.23.79.79,0,0,0,.14-.23.65.65,0,0,0,0-.5.79.79,0,0,0-.14-.23.81.81,0,0,0-.23-.17.65.65,0,0,0-.29-.06.72.72,0,0,0-.29.06.76.76,0,0,0-.22.17,1.14,1.14,0,0,0-.15.23A.79.79,0,0,0,214.48,33.89Z"/><path d="M93.61,38.51h-.67v-4.8h0l-1,.85-.4-.48L93,32.84h.58Z"/><path d="M98.92,33.47H96.61l0,1.53a1,1,0,0,1,.35-.11l.37,0a1.91,1.91,0,0,1,.74.14,1.65,1.65,0,0,1,.58.39A1.71,1.71,0,0,1,99,36a2,2,0,0,1,.13.74,2,2,0,0,1-.15.78,1.71,1.71,0,0,1-.4.59,2,2,0,0,1-.62.38,2.15,2.15,0,0,1-.77.13,1.78,1.78,0,0,1-1.05-.28,1.85,1.85,0,0,1-.62-.75l.67-.25a1.16,1.16,0,0,0,.42.51,1.05,1.05,0,0,0,.63.2,1.28,1.28,0,0,0,.48-.09,1.23,1.23,0,0,0,.64-.68,1.33,1.33,0,0,0,.1-.54,1.38,1.38,0,0,0-.11-.55,1.18,1.18,0,0,0-.29-.4,1.41,1.41,0,0,0-.45-.25,1.63,1.63,0,0,0-.55-.08,1.78,1.78,0,0,0-.59.1,2.58,2.58,0,0,0-.56.25l0-2.95h3Z"/><path d="M99.88,35.68a7,7,0,0,1,.08-1,3.11,3.11,0,0,1,.3-1,1.94,1.94,0,0,1,.59-.71,1.55,1.55,0,0,1,1-.27,1.6,1.6,0,0,1,1,.27,2,2,0,0,1,.59.71,3.1,3.1,0,0,1,.29,1,5.77,5.77,0,0,1,.08,1,5.85,5.85,0,0,1-.08,1,3.13,3.13,0,0,1-.29.94,2,2,0,0,1-.59.71,1.6,1.6,0,0,1-1,.27,1.55,1.55,0,0,1-1-.27,1.94,1.94,0,0,1-.59-.71,3.14,3.14,0,0,1-.3-.94A7.07,7.07,0,0,1,99.88,35.68Zm.67,0c0,.13,0,.29,0,.46a4.88,4.88,0,0,0,.06.52,2.83,2.83,0,0,0,.13.5,1.4,1.4,0,0,0,.22.44,1.24,1.24,0,0,0,.34.31,1,1,0,0,0,.48.12.9.9,0,0,0,.48-.12,1,1,0,0,0,.34-.31,1.41,1.41,0,0,0,.23-.44,4.05,4.05,0,0,0,.12-.5,4.88,4.88,0,0,0,.06-.52c0-.17,0-.33,0-.46s0-.3,0-.47a4.43,4.43,0,0,0-.06-.51,3.81,3.81,0,0,0-.12-.51,1.53,1.53,0,0,0-.23-.44,1,1,0,0,0-.34-.31.9.9,0,0,0-.48-.12,1,1,0,0,0-.48.12,1.24,1.24,0,0,0-.34.31,1.51,1.51,0,0,0-.22.44,2.72,2.72,0,0,0-.13.51,4.43,4.43,0,0,0-.06.51C100.56,35.38,100.55,35.54,100.55,35.68Z"/><path d="M104.48,33.89a1.15,1.15,0,0,1,1.15-1.14,1,1,0,0,1,.44.09,1.12,1.12,0,0,1,.37.24,1.16,1.16,0,0,1,0,1.62,1.15,1.15,0,0,1-.37.25,1,1,0,0,1-.44.09,1.13,1.13,0,0,1-.45-.09,1.15,1.15,0,0,1-.37-.25,1.15,1.15,0,0,1-.33-.81Zm.43,0a.61.61,0,0,0,.06.25.79.79,0,0,0,.14.23.72.72,0,0,0,.22.17.73.73,0,0,0,.3.06.72.72,0,0,0,.29-.06.62.62,0,0,0,.22-.17,1.14,1.14,0,0,0,.15-.23.65.65,0,0,0,0-.5,1.14,1.14,0,0,0-.15-.23.76.76,0,0,0-.22-.17.72.72,0,0,0-.29-.06.73.73,0,0,0-.3.06.92.92,0,0,0-.22.17.79.79,0,0,0-.14.23A.61.61,0,0,0,104.91,33.89Z"/><path d="M248.75,192.45v0a1.35,1.35,0,0,1,.37-.13,2,2,0,0,1,.39,0,1.73,1.73,0,0,1,.69.13,1.42,1.42,0,0,1,.54.36,1.85,1.85,0,0,1,.36.57,2,2,0,0,1,.12.72,1.78,1.78,0,0,1-.14.74,1.74,1.74,0,0,1-.4.56,2,2,0,0,1-.6.35,2.36,2.36,0,0,1-.75.12,2.27,2.27,0,0,1-.75-.12,2,2,0,0,1-.6-.35,1.6,1.6,0,0,1-.4-.56,1.78,1.78,0,0,1-.15-.74,2.24,2.24,0,0,1,.15-.86,5.28,5.28,0,0,1,.39-.74l1.5-2.39h.79Zm.59.43a1.23,1.23,0,0,0-.87.32,1,1,0,0,0-.26.38,1.31,1.31,0,0,0-.1.5,1.35,1.35,0,0,0,.1.5,1.08,1.08,0,0,0,.26.37,1,1,0,0,0,.39.24,1.32,1.32,0,0,0,1,0,1,1,0,0,0,.39-.24,1.23,1.23,0,0,0,.26-.37,1.35,1.35,0,0,0,.09-.5,1.31,1.31,0,0,0-.09-.5,1.16,1.16,0,0,0-.26-.38,1.23,1.23,0,0,0-.87-.32Z"/><path d="M251.82,192.92a7.07,7.07,0,0,1,.08-1,3.13,3.13,0,0,1,.29-.94,2,2,0,0,1,.59-.71,1.6,1.6,0,0,1,1-.27,1.55,1.55,0,0,1,.95.27,1.94,1.94,0,0,1,.59.71,2.88,2.88,0,0,1,.3.94,7.07,7.07,0,0,1,.08,1,7,7,0,0,1-.08,1,2.86,2.86,0,0,1-.3,1,1.94,1.94,0,0,1-.59.71,1.55,1.55,0,0,1-.95.27,1.6,1.6,0,0,1-1-.27,2,2,0,0,1-.59-.71,3.1,3.1,0,0,1-.29-1A7,7,0,0,1,251.82,192.92Zm.67,0c0,.14,0,.3,0,.47a4.43,4.43,0,0,0,.06.51,3.81,3.81,0,0,0,.12.51,1.83,1.83,0,0,0,.23.44,1,1,0,0,0,.34.31.9.9,0,0,0,.48.12,1,1,0,0,0,.48-.12,1.24,1.24,0,0,0,.34-.31,1.51,1.51,0,0,0,.22-.44,2.72,2.72,0,0,0,.13-.51,4.43,4.43,0,0,0,.06-.51c0-.17,0-.33,0-.47s0-.29,0-.46a4.88,4.88,0,0,0-.06-.52,2.83,2.83,0,0,0-.13-.5,1.4,1.4,0,0,0-.22-.44,1.1,1.1,0,0,0-.34-.31,1,1,0,0,0-.48-.12.9.9,0,0,0-.48.12.92.92,0,0,0-.34.31,1.66,1.66,0,0,0-.23.44,4.05,4.05,0,0,0-.12.5,4.88,4.88,0,0,0-.06.52C252.5,192.63,252.49,192.79,252.49,192.92Z"/><path d="M256.42,191.14a1.15,1.15,0,0,1,.33-.81,1.05,1.05,0,0,1,.37-.25,1.23,1.23,0,0,1,.44-.08,1.33,1.33,0,0,1,.45.08,1.15,1.15,0,0,1,.37.25,1.16,1.16,0,0,1,0,1.62,1.15,1.15,0,0,1-.37.25,1.33,1.33,0,0,1-.45.08,1.23,1.23,0,0,1-.44-.08,1.05,1.05,0,0,1-.37-.25,1.15,1.15,0,0,1-.33-.81Zm.43,0a.79.79,0,0,0,0,.25,1.14,1.14,0,0,0,.15.23.62.62,0,0,0,.22.17.72.72,0,0,0,.29.06.68.68,0,0,0,.52-.23.79.79,0,0,0,.14-.23.65.65,0,0,0,0-.5.79.79,0,0,0-.14-.23.68.68,0,0,0-.52-.23.72.72,0,0,0-.29.06.62.62,0,0,0-.22.17,1.14,1.14,0,0,0-.15.23A.79.79,0,0,0,256.85,191.14Z"/><path d="M250,81.22h-.67v-4.8h0l-1,.86-.4-.49,1.52-1.23H250Z"/><path d="M251.92,80.45l2.13-2.08c.13-.12.25-.24.35-.35a2.16,2.16,0,0,0,.25-.32,1.09,1.09,0,0,0,.15-.33,1.38,1.38,0,0,0,0-.37,1,1,0,0,0-.08-.4.84.84,0,0,0-.22-.3.78.78,0,0,0-.33-.19,1.05,1.05,0,0,0-.4-.07,1,1,0,0,0-.71.25,1.08,1.08,0,0,0-.36.65l-.73-.06a1.83,1.83,0,0,1,.21-.61,1.41,1.41,0,0,1,.39-.45,2,2,0,0,1,.53-.27,2.25,2.25,0,0,1,.64-.09,2.41,2.41,0,0,1,.67.1,1.92,1.92,0,0,1,.55.29,1.44,1.44,0,0,1,.51,1.15,2,2,0,0,1-.09.61,2,2,0,0,1-.25.5,3.47,3.47,0,0,1-.35.43l-.41.4-1.75,1.64v0h2.89v.62h-3.64Z"/><path d="M256.27,78.39a5.85,5.85,0,0,1,.08-1,3.19,3.19,0,0,1,.29-1,2,2,0,0,1,.59-.7,1.54,1.54,0,0,1,1-.28,1.51,1.51,0,0,1,.95.28,1.91,1.91,0,0,1,.59.7,3.2,3.2,0,0,1,.3,1,6.29,6.29,0,0,1,0,2,3.2,3.2,0,0,1-.3,1,1.91,1.91,0,0,1-.59.7,1.51,1.51,0,0,1-.95.28,1.54,1.54,0,0,1-1-.28,2,2,0,0,1-.59-.7,3.19,3.19,0,0,1-.29-1A5.85,5.85,0,0,1,256.27,78.39Zm.67,0a3.78,3.78,0,0,0,0,.46c0,.17,0,.35.05.52a4.77,4.77,0,0,0,.13.51,1.67,1.67,0,0,0,.23.44,1,1,0,0,0,.34.31,1,1,0,0,0,.48.11,1.06,1.06,0,0,0,.48-.11,1.24,1.24,0,0,0,.34-.31,2,2,0,0,0,.22-.44,3.18,3.18,0,0,0,.13-.51,4.6,4.6,0,0,0,.06-.52c0-.17,0-.32,0-.46s0-.29,0-.46a4.35,4.35,0,0,0-.06-.52,3.18,3.18,0,0,0-.13-.51,2,2,0,0,0-.22-.44,1.24,1.24,0,0,0-.34-.31,1.06,1.06,0,0,0-.48-.11,1,1,0,0,0-.48.11,1,1,0,0,0-.34.31,1.67,1.67,0,0,0-.23.44,4.77,4.77,0,0,0-.13.51c0,.17,0,.34-.05.52A3.78,3.78,0,0,0,256.94,78.39Z"/><path d="M260.87,76.61a1.13,1.13,0,0,1,.09-.45,1,1,0,0,1,.24-.37,1.16,1.16,0,0,1,1.62,0,1.15,1.15,0,0,1,.25.37,1.13,1.13,0,0,1,.09.45,1,1,0,0,1-.09.44,1.15,1.15,0,0,1-.25.37,1.16,1.16,0,0,1-1.62,0,1,1,0,0,1-.24-.37A1,1,0,0,1,260.87,76.61Zm.43,0a.69.69,0,0,0,.05.24.75.75,0,0,0,.15.24.6.6,0,0,0,.22.16.64.64,0,0,0,.58,0,.63.63,0,0,0,.23-.16.72.72,0,0,0,.14-.24.52.52,0,0,0,.05-.24.56.56,0,0,0-.05-.25.59.59,0,0,0-.14-.23.66.66,0,0,0-.23-.17.64.64,0,0,0-.58,0,.62.62,0,0,0-.22.17.61.61,0,0,0-.15.23A.74.74,0,0,0,261.3,76.61Z"/><path d="M40.39,192.45v0a1.42,1.42,0,0,1,.38-.13,1.84,1.84,0,0,1,.39,0,1.72,1.72,0,0,1,.68.13,1.42,1.42,0,0,1,.54.36,1.85,1.85,0,0,1,.36.57,2,2,0,0,1,.13.72,1.78,1.78,0,0,1-.15.74,1.6,1.6,0,0,1-.4.56,2,2,0,0,1-.6.35,2.4,2.4,0,0,1-1.5,0,2,2,0,0,1-.6-.35,1.6,1.6,0,0,1-.4-.56,1.78,1.78,0,0,1-.15-.74,2.24,2.24,0,0,1,.16-.86,5.19,5.19,0,0,1,.38-.74l1.5-2.39h.79Zm.59.43a1.23,1.23,0,0,0-.87.32,1.16,1.16,0,0,0-.26.38,1.31,1.31,0,0,0-.09.5,1.35,1.35,0,0,0,.09.5,1.23,1.23,0,0,0,.26.37,1,1,0,0,0,.39.24,1.32,1.32,0,0,0,1,0,1,1,0,0,0,.39-.24,1.23,1.23,0,0,0,.26-.37,1.35,1.35,0,0,0,.1-.5,1.31,1.31,0,0,0-.1-.5,1.16,1.16,0,0,0-.26-.38,1.23,1.23,0,0,0-.87-.32Z"/><path d="M43.46,192.92a7.07,7.07,0,0,1,.08-1,2.88,2.88,0,0,1,.3-.94,1.94,1.94,0,0,1,.59-.71,1.55,1.55,0,0,1,1-.27,1.6,1.6,0,0,1,1,.27,2,2,0,0,1,.59.71,3.13,3.13,0,0,1,.29.94,7.07,7.07,0,0,1,.08,1,7,7,0,0,1-.08,1,3.1,3.1,0,0,1-.29,1,2,2,0,0,1-.59.71,1.6,1.6,0,0,1-1,.27,1.55,1.55,0,0,1-1-.27,1.94,1.94,0,0,1-.59-.71,2.86,2.86,0,0,1-.3-1A7,7,0,0,1,43.46,192.92Zm.67,0c0,.14,0,.3,0,.47a4.43,4.43,0,0,0,.06.51,2.72,2.72,0,0,0,.13.51,1.51,1.51,0,0,0,.22.44,1.12,1.12,0,0,0,.34.31,1,1,0,0,0,1,0,1.12,1.12,0,0,0,.34-.31,1.83,1.83,0,0,0,.23-.44,3.81,3.81,0,0,0,.12-.51,4.43,4.43,0,0,0,.06-.51c0-.17,0-.33,0-.47s0-.29,0-.46a4.88,4.88,0,0,0-.06-.52,4.05,4.05,0,0,0-.12-.5,1.66,1.66,0,0,0-.23-.44,1,1,0,0,0-.34-.31,1,1,0,0,0-1,0,1,1,0,0,0-.34.31,1.4,1.4,0,0,0-.22.44,2.83,2.83,0,0,0-.13.5,4.88,4.88,0,0,0-.06.52C44.14,192.63,44.13,192.79,44.13,192.92Z"/><path d="M48.06,191.14a1.15,1.15,0,0,1,.33-.81,1.15,1.15,0,0,1,.37-.25,1.33,1.33,0,0,1,.45-.08,1.27,1.27,0,0,1,.44.08,1.15,1.15,0,0,1,.37.25A1.16,1.16,0,0,1,50,192a1.15,1.15,0,0,1-.37.25,1.27,1.27,0,0,1-.44.08,1.33,1.33,0,0,1-.45-.08,1.15,1.15,0,0,1-.37-.25,1.15,1.15,0,0,1-.33-.81Zm.43,0a.61.61,0,0,0,.06.25.79.79,0,0,0,.14.23.72.72,0,0,0,.22.17.73.73,0,0,0,.3.06.72.72,0,0,0,.29-.06.62.62,0,0,0,.22-.17,1.14,1.14,0,0,0,.15-.23.65.65,0,0,0,0-.5,1.14,1.14,0,0,0-.15-.23.62.62,0,0,0-.22-.17.72.72,0,0,0-.29-.06.73.73,0,0,0-.3.06.72.72,0,0,0-.22.17.79.79,0,0,0-.14.23A.61.61,0,0,0,48.49,191.14Z"/><path d="M39.15,81.22h-.67v-4.8h0l-1,.86-.4-.49,1.52-1.23h.58Z"/><path d="M41.07,80.45l2.14-2.08c.13-.12.25-.24.35-.35a2.16,2.16,0,0,0,.25-.32,1.09,1.09,0,0,0,.15-.33A1.38,1.38,0,0,0,44,77a1,1,0,0,0-.08-.4.84.84,0,0,0-.22-.3.78.78,0,0,0-.33-.19A1.05,1.05,0,0,0,43,76a1,1,0,0,0-.72.25,1.19,1.19,0,0,0-.36.65l-.72-.06a1.47,1.47,0,0,1,.21-.61,1.41,1.41,0,0,1,.39-.45,2,2,0,0,1,.53-.27,2.2,2.2,0,0,1,.64-.09,2.41,2.41,0,0,1,.67.1,2.06,2.06,0,0,1,.55.29,1.47,1.47,0,0,1,.37.48,1.6,1.6,0,0,1,.14.67,2,2,0,0,1-.09.61,2.34,2.34,0,0,1-.25.5,3.47,3.47,0,0,1-.35.43l-.41.4-1.75,1.64v0h2.89v.62H41.07Z"/><path d="M45.43,78.39a7,7,0,0,1,.07-1,3.52,3.52,0,0,1,.3-1,2,2,0,0,1,.59-.7,1.77,1.77,0,0,1,1.91,0,1.91,1.91,0,0,1,.59.7,3.52,3.52,0,0,1,.3,1,6.29,6.29,0,0,1,0,2,3.52,3.52,0,0,1-.3,1,1.91,1.91,0,0,1-.59.7,1.77,1.77,0,0,1-1.91,0,2,2,0,0,1-.59-.7,3.52,3.52,0,0,1-.3-1A7,7,0,0,1,45.43,78.39Zm.67,0c0,.14,0,.29,0,.46a4.6,4.6,0,0,0,.06.52,4.77,4.77,0,0,0,.13.51,2,2,0,0,0,.22.44,1.15,1.15,0,0,0,.35.31,1,1,0,0,0,.48.11,1.06,1.06,0,0,0,.48-.11,1.24,1.24,0,0,0,.34-.31,2,2,0,0,0,.22-.44,3.18,3.18,0,0,0,.13-.51,4.6,4.6,0,0,0,.06-.52c0-.17,0-.32,0-.46s0-.29,0-.46a4.35,4.35,0,0,0-.06-.52,3.18,3.18,0,0,0-.13-.51,2,2,0,0,0-.22-.44,1.24,1.24,0,0,0-.34-.31,1.06,1.06,0,0,0-.48-.11,1,1,0,0,0-.48.11,1.15,1.15,0,0,0-.35.31,2,2,0,0,0-.22.44,4.77,4.77,0,0,0-.13.51,4.35,4.35,0,0,0-.06.52C46.1,78.1,46.1,78.25,46.1,78.39Z"/><path d="M50,76.61a1.12,1.12,0,0,1,.08-.45,1.15,1.15,0,0,1,.25-.37,1.16,1.16,0,0,1,1.62,0,1.15,1.15,0,0,1,.25.37,1.33,1.33,0,0,1,.08.45,1.23,1.23,0,0,1-.08.44,1.15,1.15,0,0,1-.25.37,1.16,1.16,0,0,1-1.62,0,1.15,1.15,0,0,1-.25-.37A1,1,0,0,1,50,76.61Zm.43,0a.52.52,0,0,0,0,.24.72.72,0,0,0,.14.24.63.63,0,0,0,.23.16.64.64,0,0,0,.58,0,.73.73,0,0,0,.23-.16,1,1,0,0,0,.14-.24.69.69,0,0,0,.05-.24.75.75,0,0,0-.19-.48.76.76,0,0,0-.23-.17.64.64,0,0,0-.58,0,.66.66,0,0,0-.23.17.59.59,0,0,0-.14.23A.56.56,0,0,0,50.46,76.61Z"/></g><g id="numeri_fondo_tabella" data-name="numeri fondo tabella"><path d="M131.83,251.42a1.17,1.17,0,0,0-.43-.35,1.19,1.19,0,0,0-.51-.11,1.35,1.35,0,0,0-.55.11,1.08,1.08,0,0,0-.4.3,1.32,1.32,0,0,0-.23.44,1.76,1.76,0,0,0,0,1.08,1.43,1.43,0,0,0,.26.45,1.31,1.31,0,0,0,.39.3,1.27,1.27,0,0,0,.52.1,1.09,1.09,0,0,0,1-.46l.47.44a1.69,1.69,0,0,1-.64.46,2.29,2.29,0,0,1-.78.14,2.22,2.22,0,0,1-.79-.14,1.75,1.75,0,0,1-1-1,2.27,2.27,0,0,1,0-1.57,1.86,1.86,0,0,1,.39-.63,2,2,0,0,1,.61-.41,2,2,0,0,1,.79-.15,2.09,2.09,0,0,1,.79.15,1.59,1.59,0,0,1,.65.45Z"/><path d="M136.21,253.56h0a1.43,1.43,0,0,1-.55.54,1.7,1.7,0,0,1-.89.22,1.8,1.8,0,0,1-.73-.15,1.78,1.78,0,0,1-.6-.41,1.81,1.81,0,0,1-.39-.62,2.06,2.06,0,0,1-.15-.79,2,2,0,0,1,.15-.78,1.88,1.88,0,0,1,.4-.63,1.81,1.81,0,0,1,.62-.41,2.07,2.07,0,0,1,.8-.15,1.72,1.72,0,0,1,.75.17,1.78,1.78,0,0,1,.59.47h0v-2.84h.62v6h-.62Zm0-1.21a1.63,1.63,0,0,0-.09-.55,1.34,1.34,0,0,0-.27-.44,1.37,1.37,0,0,0-.42-.29,1.35,1.35,0,0,0-.55-.11,1.42,1.42,0,0,0-.55.11,1.22,1.22,0,0,0-.41.29,1.34,1.34,0,0,0-.27.44,1.56,1.56,0,0,0,0,1.1,1.25,1.25,0,0,0,.27.44,1.19,1.19,0,0,0,1,.4,1.35,1.35,0,0,0,.55-.1,1.6,1.6,0,0,0,.42-.3,1.25,1.25,0,0,0,.27-.44A1.63,1.63,0,0,0,136.21,252.35Z"/><path d="M140.1,254.57l-.5-.2,2.4-6.15.51.2Z"/><path d="M147.64,254.22H147v-4.8h0l-1,.86-.4-.49,1.52-1.23h.59Z"/><path d="M149.46,251.39a7.07,7.07,0,0,1,.08-1,3.19,3.19,0,0,1,.29-.95,2,2,0,0,1,.59-.7,1.61,1.61,0,0,1,1-.28,1.55,1.55,0,0,1,1,.28,1.91,1.91,0,0,1,.59.7,2.94,2.94,0,0,1,.3.95,6.29,6.29,0,0,1,0,2,2.94,2.94,0,0,1-.3,1,1.91,1.91,0,0,1-.59.7,1.49,1.49,0,0,1-1,.28,1.54,1.54,0,0,1-1-.28,2,2,0,0,1-.59-.7,3.19,3.19,0,0,1-.29-1A7.07,7.07,0,0,1,149.46,251.39Zm.67,0c0,.14,0,.29,0,.47a4.43,4.43,0,0,0,.06.51,4.7,4.7,0,0,0,.12.51,2,2,0,0,0,.23.44,1.12,1.12,0,0,0,.34.31,1.1,1.1,0,0,0,1,0,1.12,1.12,0,0,0,.34-.31,1.65,1.65,0,0,0,.22-.44,3.18,3.18,0,0,0,.13-.51,4.43,4.43,0,0,0,.06-.51c0-.18,0-.33,0-.47s0-.29,0-.46a4.6,4.6,0,0,0-.06-.52,3.18,3.18,0,0,0-.13-.51,1.65,1.65,0,0,0-.22-.44,1.08,1.08,0,0,0-.34-.3,1,1,0,0,0-1,0,1.08,1.08,0,0,0-.34.3,2,2,0,0,0-.23.44,4.7,4.7,0,0,0-.12.51,4.6,4.6,0,0,0-.06.52C150.14,251.1,150.13,251.25,150.13,251.39Z"/><path d="M153.91,251.39a5.85,5.85,0,0,1,.08-1,3.19,3.19,0,0,1,.29-.95,2,2,0,0,1,.59-.7,1.61,1.61,0,0,1,1-.28,1.55,1.55,0,0,1,.95.28,1.91,1.91,0,0,1,.59.7,3.2,3.2,0,0,1,.3.95,6.29,6.29,0,0,1,0,2,3.2,3.2,0,0,1-.3,1,1.91,1.91,0,0,1-.59.7,1.49,1.49,0,0,1-.95.28,1.54,1.54,0,0,1-1-.28,2,2,0,0,1-.59-.7,3.19,3.19,0,0,1-.29-1A5.85,5.85,0,0,1,153.91,251.39Zm.67,0a4,4,0,0,0,0,.47,4.43,4.43,0,0,0,.06.51,3.14,3.14,0,0,0,.12.51,1.67,1.67,0,0,0,.23.44,1,1,0,0,0,.34.31.9.9,0,0,0,.48.11,1,1,0,0,0,.48-.11,1.24,1.24,0,0,0,.34-.31,1.65,1.65,0,0,0,.22-.44,3.18,3.18,0,0,0,.13-.51,4.43,4.43,0,0,0,.06-.51c0-.18,0-.33,0-.47s0-.29,0-.46a4.6,4.6,0,0,0-.06-.52,3.18,3.18,0,0,0-.13-.51,1.65,1.65,0,0,0-.22-.44,1.21,1.21,0,0,0-.34-.3,1,1,0,0,0-.48-.12.9.9,0,0,0-.48.12,1,1,0,0,0-.34.3,1.67,1.67,0,0,0-.23.44,3.14,3.14,0,0,0-.12.51,4.6,4.6,0,0,0-.06.52A3.78,3.78,0,0,0,154.58,251.39Z"/><path d="M158.31,251.39a5.85,5.85,0,0,1,.08-1,3.19,3.19,0,0,1,.29-.95,2,2,0,0,1,.59-.7,1.61,1.61,0,0,1,1-.28,1.55,1.55,0,0,1,1,.28,1.91,1.91,0,0,1,.59.7,3.2,3.2,0,0,1,.3.95,6.29,6.29,0,0,1,0,2,3.2,3.2,0,0,1-.3,1,1.91,1.91,0,0,1-.59.7,1.49,1.49,0,0,1-1,.28,1.54,1.54,0,0,1-1-.28,2,2,0,0,1-.59-.7,3.19,3.19,0,0,1-.29-1A5.85,5.85,0,0,1,158.31,251.39Zm.67,0c0,.14,0,.29,0,.47a4.43,4.43,0,0,0,.06.51,3.14,3.14,0,0,0,.12.51,1.67,1.67,0,0,0,.23.44,1,1,0,0,0,.34.31.9.9,0,0,0,.48.11,1,1,0,0,0,.48-.11,1.24,1.24,0,0,0,.34-.31,1.65,1.65,0,0,0,.22-.44,3.18,3.18,0,0,0,.13-.51,4.43,4.43,0,0,0,.06-.51c0-.18,0-.33,0-.47s0-.29,0-.46a4.6,4.6,0,0,0-.06-.52,3.18,3.18,0,0,0-.13-.51,1.65,1.65,0,0,0-.22-.44,1.21,1.21,0,0,0-.34-.3,1,1,0,0,0-.48-.12.9.9,0,0,0-.48.12,1,1,0,0,0-.34.3,1.67,1.67,0,0,0-.23.44,3.14,3.14,0,0,0-.12.51,4.6,4.6,0,0,0-.06.52C159,251.1,159,251.25,159,251.39Z"/><path d="M165.32,248.18H166v6h-.63Z"/><path d="M167.19,251.37c0-.17,0-.33,0-.48s0-.29,0-.41h.59c0,.1,0,.2,0,.3v.32h0a.91.91,0,0,1,.18-.27,1.64,1.64,0,0,1,.28-.23,1.5,1.5,0,0,1,.36-.16,1.44,1.44,0,0,1,.43-.06,1.52,1.52,0,0,1,.51.08,1.36,1.36,0,0,1,.34.18.93.93,0,0,1,.21.24,1.64,1.64,0,0,1,.12.22,1.78,1.78,0,0,1,.48-.53,1.27,1.27,0,0,1,.71-.19,1.88,1.88,0,0,1,.67.11,1.1,1.1,0,0,1,.44.31,1.37,1.37,0,0,1,.24.5,2.59,2.59,0,0,1,.07.65v2.27h-.62V252a2.33,2.33,0,0,0,0-.37,1,1,0,0,0-.15-.33.71.71,0,0,0-.28-.23,1,1,0,0,0-.45-.09,1,1,0,0,0-.37.08,1,1,0,0,0-.31.22,1.13,1.13,0,0,0-.21.35,1.33,1.33,0,0,0-.07.45v2.16h-.63V252.1a1.62,1.62,0,0,0-.17-.88A.6.6,0,0,0,169,251a1.18,1.18,0,0,0-.52.1.88.88,0,0,0-.36.3,1.14,1.14,0,0,0-.21.46,2.1,2.1,0,0,0-.07.58v1.82h-.62Z"/><line class="cls-1" x1="38.21" y1="253" x2="46.2" y2="253"/><path d="M235.17,251a1.66,1.66,0,0,0-.63-.52,1.93,1.93,0,0,0-.79-.17,2.13,2.13,0,0,0-.87.19,2.16,2.16,0,0,0-.68.52,2.58,2.58,0,0,0-.45.75,2.69,2.69,0,0,0-.16.89,2.79,2.79,0,0,0,.16.93,2.41,2.41,0,0,0,.45.74,2,2,0,0,0,.68.5,1.92,1.92,0,0,0,.87.19,2,2,0,0,0,1.64-.8l.51.43a2.38,2.38,0,0,1-.93.75,3,3,0,0,1-1.22.24,2.85,2.85,0,0,1-1.13-.22,2.82,2.82,0,0,1-.92-.62,3,3,0,0,1-.61-.94,3.33,3.33,0,0,1-.22-1.2,3.19,3.19,0,0,1,.21-1.16,2.9,2.9,0,0,1,.6-1,3.08,3.08,0,0,1,.91-.63,3,3,0,0,1,2.27,0,2,2,0,0,1,.89.68Z"/><path d="M239,253.1l0,0a1.35,1.35,0,0,1-.37.13,2.87,2.87,0,0,1-.39,0,1.68,1.68,0,0,1-.68-.13,1.5,1.5,0,0,1-.55-.36,1.92,1.92,0,0,1-.36-.56,2.11,2.11,0,0,1-.12-.73,1.75,1.75,0,0,1,.14-.74,1.63,1.63,0,0,1,.4-.56,1.79,1.79,0,0,1,.6-.35,2.36,2.36,0,0,1,.75-.12,2.27,2.27,0,0,1,.75.12,1.94,1.94,0,0,1,.61.35,1.49,1.49,0,0,1,.39.56,1.75,1.75,0,0,1,.15.74,2.19,2.19,0,0,1,0,.46c0,.14-.07.27-.11.4a2.53,2.53,0,0,1-.18.37,3.35,3.35,0,0,1-.21.36l-1.5,2.4h-.79Zm-.6-.43a1.51,1.51,0,0,0,.48-.08,1.28,1.28,0,0,0,.39-.24,1.12,1.12,0,0,0,.26-.38,1.27,1.27,0,0,0,.1-.5,1.26,1.26,0,0,0-.1-.49,1,1,0,0,0-.26-.38,1,1,0,0,0-.39-.24,1.33,1.33,0,0,0-1,0,.88.88,0,0,0-.38.24,1.19,1.19,0,0,0-.27.38,1.26,1.26,0,0,0-.09.49,1.28,1.28,0,0,0,.09.5,1.31,1.31,0,0,0,.27.38,1.12,1.12,0,0,0,.38.24A1.51,1.51,0,0,0,238.35,252.67Z"/><path d="M240.88,252.62a7.07,7.07,0,0,1,.08-1,2.88,2.88,0,0,1,.3-.94,2,2,0,0,1,.58-.71,1.84,1.84,0,0,1,1.92,0,2,2,0,0,1,.58.71,2.88,2.88,0,0,1,.3.94,7.07,7.07,0,0,1,.08,1,7,7,0,0,1-.08,1,2.86,2.86,0,0,1-.3.95,2,2,0,0,1-.58.71,1.84,1.84,0,0,1-1.92,0,2,2,0,0,1-.58-.71,2.86,2.86,0,0,1-.3-.95A7,7,0,0,1,240.88,252.62Zm.67,0c0,.14,0,.3,0,.47a4.43,4.43,0,0,0,.06.51,2.72,2.72,0,0,0,.13.51,1.51,1.51,0,0,0,.22.44,1.12,1.12,0,0,0,.34.31,1,1,0,0,0,1,0,1.12,1.12,0,0,0,.34-.31,1.51,1.51,0,0,0,.22-.44,2.72,2.72,0,0,0,.13-.51,4.43,4.43,0,0,0,.06-.51c0-.17,0-.33,0-.47s0-.29,0-.46a4.88,4.88,0,0,0-.06-.52,2.83,2.83,0,0,0-.13-.5,1.4,1.4,0,0,0-.22-.44,1.12,1.12,0,0,0-.34-.31,1,1,0,0,0-1,0,1.12,1.12,0,0,0-.34.31,1.4,1.4,0,0,0-.22.44,2.83,2.83,0,0,0-.13.5,4.88,4.88,0,0,0-.06.52C241.56,252.33,241.55,252.49,241.55,252.62Z"/><path d="M247.78,255.8l-.51-.2,2.41-6.14.5.19Z"/><path d="M257.1,251a1.66,1.66,0,0,0-.63-.52,1.92,1.92,0,0,0-.78-.17,2.06,2.06,0,0,0-.87.19,2.16,2.16,0,0,0-.68.52,2.21,2.21,0,0,0-.45.75,2.46,2.46,0,0,0-.16.89,2.56,2.56,0,0,0,.16.93,2.2,2.2,0,0,0,.44.74,2.1,2.1,0,0,0,.68.5,2,2,0,0,0,.88.19,2,2,0,0,0,.93-.21,2,2,0,0,0,.71-.59l.5.43a2.29,2.29,0,0,1-.92.75,3,3,0,0,1-1.22.24,2.8,2.8,0,0,1-2.05-.84,2.82,2.82,0,0,1-.61-.94,3.13,3.13,0,0,1-.22-1.2,3.19,3.19,0,0,1,.21-1.16,2.75,2.75,0,0,1,.6-1,3,3,0,0,1,.91-.63,2.93,2.93,0,0,1,1.16-.23,3,3,0,0,1,1.11.21,2,2,0,0,1,.89.68Z"/><path d="M258.46,254.69l2.14-2.08.35-.36a1.75,1.75,0,0,0,.25-.32,1,1,0,0,0,.15-.32,1.46,1.46,0,0,0,0-.38,1,1,0,0,0-.08-.4.93.93,0,0,0-.22-.3,1.13,1.13,0,0,0-.73-.26,1,1,0,0,0-.71.25,1.11,1.11,0,0,0-.36.66l-.73-.07a1.91,1.91,0,0,1,.21-.61,1.28,1.28,0,0,1,.39-.44,1.77,1.77,0,0,1,.53-.27,2.25,2.25,0,0,1,.64-.09,2.09,2.09,0,0,1,.67.1,1.53,1.53,0,0,1,.55.29,1.47,1.47,0,0,1,.37.48,1.39,1.39,0,0,1,.14.66,1.91,1.91,0,0,1-.09.61,1.8,1.8,0,0,1-.25.5,2.86,2.86,0,0,1-.35.43l-.41.41-1.75,1.64h2.89v.63h-3.65Z"/><path d="M266.35,250.42l-2.26,5h-.76l2.3-5H262.9v-.63h3.45Z"/><path d="M267.26,252.62a7.07,7.07,0,0,1,.08-1,3.45,3.45,0,0,1,.3-.94,2,2,0,0,1,.59-.71,1.82,1.82,0,0,1,1.91,0,2,2,0,0,1,.59.71,3.45,3.45,0,0,1,.3.94,7,7,0,0,1,.07,1,6.92,6.92,0,0,1-.07,1,3.41,3.41,0,0,1-.3.95,2,2,0,0,1-.59.71,1.82,1.82,0,0,1-1.91,0,2,2,0,0,1-.59-.71,3.41,3.41,0,0,1-.3-.95A7,7,0,0,1,267.26,252.62Zm.68,0c0,.14,0,.3,0,.47a4.43,4.43,0,0,0,.06.51,2.72,2.72,0,0,0,.13.51,1.53,1.53,0,0,0,.23.44,1,1,0,0,0,.34.31.89.89,0,0,0,.47.12,1,1,0,0,0,.49-.12,1.08,1.08,0,0,0,.33-.31,1.53,1.53,0,0,0,.23-.44,2.72,2.72,0,0,0,.13-.51,4.43,4.43,0,0,0,.06-.51c0-.17,0-.33,0-.47s0-.29,0-.46a4.88,4.88,0,0,0-.06-.52,2.83,2.83,0,0,0-.13-.5,1.41,1.41,0,0,0-.23-.44,1.08,1.08,0,0,0-.33-.31,1,1,0,0,0-.49-.12.89.89,0,0,0-.47.12,1,1,0,0,0-.34.31,1.41,1.41,0,0,0-.23.44,2.83,2.83,0,0,0-.13.5,4.88,4.88,0,0,0-.06.52C267.94,252.33,267.94,252.49,267.94,252.62Z"/><path d="M52.87,251a1.55,1.55,0,0,0-.63-.51,1.82,1.82,0,0,0-.79-.18,2,2,0,0,0-.87.2,2.13,2.13,0,0,0-.68.51,2.58,2.58,0,0,0-.45.75,2.67,2.67,0,0,0,0,1.82,2.29,2.29,0,0,0,.45.74,1.88,1.88,0,0,0,.68.5,1.92,1.92,0,0,0,.87.19,2,2,0,0,0,.93-.21,2.07,2.07,0,0,0,.71-.58l.51.42a2.38,2.38,0,0,1-.93.75,3,3,0,0,1-1.22.24,2.85,2.85,0,0,1-1.13-.22,2.82,2.82,0,0,1-.92-.62,3,3,0,0,1-.61-.94,3.27,3.27,0,0,1-.22-1.19,3.2,3.2,0,0,1,.21-1.17,3,3,0,0,1,.6-.95,3.08,3.08,0,0,1,.91-.63,3,3,0,0,1,2.27,0,2,2,0,0,1,.89.68Z"/><path d="M54.13,252.62a7,7,0,0,1,.08-1,3.11,3.11,0,0,1,.3-1,1.94,1.94,0,0,1,.59-.71,1.55,1.55,0,0,1,.95-.27,1.6,1.6,0,0,1,1,.27,2,2,0,0,1,.59.71,3.1,3.1,0,0,1,.29,1,5.77,5.77,0,0,1,.08,1,5.85,5.85,0,0,1-.08,1,3.13,3.13,0,0,1-.29.94,2,2,0,0,1-.59.71,1.6,1.6,0,0,1-1,.27,1.55,1.55,0,0,1-.95-.27,1.94,1.94,0,0,1-.59-.71,3.14,3.14,0,0,1-.3-.94A7.07,7.07,0,0,1,54.13,252.62Zm.67,0c0,.13,0,.29,0,.46a4.88,4.88,0,0,0,.06.52,2.83,2.83,0,0,0,.13.5,1.4,1.4,0,0,0,.22.44,1.1,1.1,0,0,0,.34.31,1,1,0,0,0,.48.12.9.9,0,0,0,.48-.12.92.92,0,0,0,.34-.31,1.41,1.41,0,0,0,.23-.44,2.8,2.8,0,0,0,.12-.5,4.88,4.88,0,0,0,.06-.52,3.86,3.86,0,0,0,0-.46,3.94,3.94,0,0,0,0-.47,4.43,4.43,0,0,0-.06-.51,2.71,2.71,0,0,0-.12-.51,1.53,1.53,0,0,0-.23-.44,1,1,0,0,0-.34-.31.9.9,0,0,0-.48-.12,1,1,0,0,0-.48.12,1.24,1.24,0,0,0-.34.31,1.51,1.51,0,0,0-.22.44,2.72,2.72,0,0,0-.13.51,4.43,4.43,0,0,0-.06.51C54.81,252.32,54.8,252.48,54.8,252.62Z"/><path d="M61,255.79l-.51-.2,2.41-6.14.51.19Z"/><path d="M70.36,251a1.52,1.52,0,0,0-.64-.51,1.78,1.78,0,0,0-.78-.18,2,2,0,0,0-.87.2,2.13,2.13,0,0,0-.68.51,2.58,2.58,0,0,0-.45.75,2.51,2.51,0,0,0-.16.9,2.54,2.54,0,0,0,.16.92,2.46,2.46,0,0,0,.44.74,2.09,2.09,0,0,0,1.56.69,2,2,0,0,0,.93-.21,2.07,2.07,0,0,0,.71-.58l.5.42a2.29,2.29,0,0,1-.92.75,3,3,0,0,1-1.22.24,2.93,2.93,0,0,1-1.14-.22,2.88,2.88,0,0,1-.91-.62,3,3,0,0,1-.61-.94,3.07,3.07,0,0,1-.22-1.19,3.2,3.2,0,0,1,.21-1.17,2.84,2.84,0,0,1,.6-.95,3,3,0,0,1,.91-.63,2.93,2.93,0,0,1,1.16-.23,3,3,0,0,1,1.11.21,2,2,0,0,1,.89.68Z"/><path d="M74.2,255.45h-.68v-4.8h0l-1,.85-.4-.48,1.52-1.24h.59Z"/><path d="M76.37,251.17a1.33,1.33,0,0,1,.13-.61,1.2,1.2,0,0,1,.34-.46,1.44,1.44,0,0,1,.51-.3,1.92,1.92,0,0,1,1.28,0,1.44,1.44,0,0,1,.51.3,1.32,1.32,0,0,1,.34.46,1.48,1.48,0,0,1,.12.61,1.44,1.44,0,0,1-.06.4,1.41,1.41,0,0,1-.18.37,1.18,1.18,0,0,1-.3.29,1,1,0,0,1-.38.19h0a1.44,1.44,0,0,1,.46.19,1.35,1.35,0,0,1,.35.32,1.67,1.67,0,0,1,.23.44,1.7,1.7,0,0,1,.08.51,1.74,1.74,0,0,1-.14.69,1.46,1.46,0,0,1-.39.52,1.47,1.47,0,0,1-.57.33,2.35,2.35,0,0,1-1.42,0,1.59,1.59,0,0,1-.58-.33,1.43,1.43,0,0,1-.38-.52,1.74,1.74,0,0,1-.14-.69,1.7,1.7,0,0,1,.08-.51,1.65,1.65,0,0,1,.22-.44,1.59,1.59,0,0,1,.36-.32,1.44,1.44,0,0,1,.46-.19h0a1.18,1.18,0,0,1-.39-.19,1.33,1.33,0,0,1-.29-.29,1.41,1.41,0,0,1-.18-.37A1.16,1.16,0,0,1,76.37,251.17Zm.48,2.67a1.14,1.14,0,0,0,.09.46,1.21,1.21,0,0,0,.24.35,1.16,1.16,0,0,0,.36.23A1.13,1.13,0,0,0,78,255a1,1,0,0,0,.44-.09,1,1,0,0,0,.36-.23,1.07,1.07,0,0,0,.25-.35,1.36,1.36,0,0,0,0-.92,1.07,1.07,0,0,0-.25-.35,1,1,0,0,0-.36-.23,1,1,0,0,0-.44-.09,1.13,1.13,0,0,0-.45.09,1.16,1.16,0,0,0-.36.23,1.21,1.21,0,0,0-.24.35A1.14,1.14,0,0,0,76.85,253.84ZM77,251.2a.92.92,0,0,0,.26.67.93.93,0,0,0,.69.27.9.9,0,0,0,.68-.27,1,1,0,0,0,0-1.34.9.9,0,0,0-.68-.27.93.93,0,0,0-.69.27A.92.92,0,0,0,77,251.2Z"/><path d="M80.52,252.62a5.77,5.77,0,0,1,.08-1,3.1,3.1,0,0,1,.29-1,2,2,0,0,1,.59-.71,1.6,1.6,0,0,1,1-.27,1.55,1.55,0,0,1,1,.27,1.94,1.94,0,0,1,.59.71,3.41,3.41,0,0,1,.3,1,7,7,0,0,1,.08,1,7.07,7.07,0,0,1-.08,1,3.45,3.45,0,0,1-.3.94,1.94,1.94,0,0,1-.59.71,1.55,1.55,0,0,1-1,.27,1.6,1.6,0,0,1-1-.27,2,2,0,0,1-.59-.71,3.13,3.13,0,0,1-.29-.94A5.85,5.85,0,0,1,80.52,252.62Zm.67,0a3.86,3.86,0,0,0,0,.46c0,.17,0,.34.05.52a4.07,4.07,0,0,0,.13.5,1.41,1.41,0,0,0,.23.44.92.92,0,0,0,.34.31.9.9,0,0,0,.48.12,1,1,0,0,0,.48-.12,1.1,1.1,0,0,0,.34-.31,1.65,1.65,0,0,0,.22-.44,2.83,2.83,0,0,0,.13-.5,4.88,4.88,0,0,0,.06-.52c0-.17,0-.33,0-.46s0-.3,0-.47a4.43,4.43,0,0,0-.06-.51,2.72,2.72,0,0,0-.13-.51,1.81,1.81,0,0,0-.22-.44,1.24,1.24,0,0,0-.34-.31,1,1,0,0,0-.48-.12.9.9,0,0,0-.48.12,1,1,0,0,0-.34.31,1.53,1.53,0,0,0-.23.44,3.8,3.8,0,0,0-.13.51c0,.17,0,.34-.05.51A3.94,3.94,0,0,0,81.19,252.62Z"/><line class="cls-2" x1="214.49" y1="253.42" x2="215.03" y2="253.42"/><line class="cls-2" x1="217.76" y1="253.42" x2="218.3" y2="253.42"/><line class="cls-2" x1="221.02" y1="253.42" x2="221.56" y2="253.42"/><line class="cls-2" x1="224.29" y1="253.42" x2="224.83" y2="253.42"/><line class="cls-2" x1="227.55" y1="253.42" x2="228.09" y2="253.42"/></g><g id="Kelvin_Led"><g id="Kelvin_Led_F33020"><path d="M55,12.29h4.39v.79H55.88v2.34h3.3v.77h-3.3v3.18H55Z"/><path d="M61.76,15.29H62a3.48,3.48,0,0,0,.55,0,1.33,1.33,0,0,0,.52-.17,1,1,0,0,0,.39-.37,1.23,1.23,0,0,0,.15-.65,1.13,1.13,0,0,0-.33-.85,1.23,1.23,0,0,0-.88-.31,1.42,1.42,0,0,0-.78.2,1.32,1.32,0,0,0-.52.59l-.81-.32a1.82,1.82,0,0,1,.82-.89,2.44,2.44,0,0,1,1.23-.31,2.74,2.74,0,0,1,.81.12,1.88,1.88,0,0,1,.67.36,1.51,1.51,0,0,1,.46.57,1.71,1.71,0,0,1,.17.8,1.65,1.65,0,0,1-.33,1,1.74,1.74,0,0,1-.88.62v0a1.91,1.91,0,0,1,.61.21,1.58,1.58,0,0,1,.45.4,1.62,1.62,0,0,1,.29.53,2,2,0,0,1,.1.63,1.89,1.89,0,0,1-.19.89A1.8,1.8,0,0,1,64,19a2.27,2.27,0,0,1-.74.39,3.26,3.26,0,0,1-.9.13A2.78,2.78,0,0,1,61,19.15,2,2,0,0,1,60.09,18l.85-.27a1.28,1.28,0,0,0,1.43,1,1.47,1.47,0,0,0,.56-.1,1.27,1.27,0,0,0,.46-.28A1.4,1.4,0,0,0,63.7,18a1.32,1.32,0,0,0,.11-.57,1.3,1.3,0,0,0-.15-.65,1.1,1.1,0,0,0-.41-.42,2,2,0,0,0-.58-.23A3.49,3.49,0,0,0,62,16h-.26Z"/><path d="M67.32,15.29h.26a3.48,3.48,0,0,0,.55,0,1.33,1.33,0,0,0,.52-.17,1,1,0,0,0,.39-.37,1.23,1.23,0,0,0,.15-.65,1.13,1.13,0,0,0-.33-.85A1.23,1.23,0,0,0,68,12.9a1.42,1.42,0,0,0-.78.2,1.32,1.32,0,0,0-.52.59l-.81-.32a1.82,1.82,0,0,1,.82-.89,2.44,2.44,0,0,1,1.23-.31,2.74,2.74,0,0,1,.81.12,1.88,1.88,0,0,1,.67.36,1.51,1.51,0,0,1,.46.57A1.71,1.71,0,0,1,70,14a1.65,1.65,0,0,1-.33,1,1.74,1.74,0,0,1-.88.62v0a1.91,1.91,0,0,1,.61.21,1.58,1.58,0,0,1,.45.4,1.62,1.62,0,0,1,.29.53,2,2,0,0,1,.1.63,1.89,1.89,0,0,1-.19.89,1.8,1.8,0,0,1-.51.65,2.27,2.27,0,0,1-.74.39,3.26,3.26,0,0,1-.9.13,2.78,2.78,0,0,1-1.41-.35A2,2,0,0,1,65.65,18l.85-.27a1.28,1.28,0,0,0,1.43,1,1.47,1.47,0,0,0,.56-.1,1.27,1.27,0,0,0,.46-.28,1.4,1.4,0,0,0,.31-.44,1.32,1.32,0,0,0,.11-.57,1.3,1.3,0,0,0-.15-.65,1.1,1.1,0,0,0-.41-.42,2,2,0,0,0-.58-.23,3.49,3.49,0,0,0-.65-.06h-.26Z"/><path d="M71.22,15.83a9.39,9.39,0,0,1,.1-1.25,4.07,4.07,0,0,1,.37-1.18,2.44,2.44,0,0,1,.74-.88,2.22,2.22,0,0,1,2.39,0,2.41,2.41,0,0,1,.73.88,3.79,3.79,0,0,1,.37,1.18,8,8,0,0,1,.1,1.25,7.79,7.79,0,0,1-.1,1.25,3.77,3.77,0,0,1-.37,1.19,2.41,2.41,0,0,1-.73.88,2.22,2.22,0,0,1-2.39,0,2.44,2.44,0,0,1-.74-.88,4,4,0,0,1-.37-1.19A9.14,9.14,0,0,1,71.22,15.83Zm.84,0c0,.18,0,.37,0,.59s0,.42.08.64a4.15,4.15,0,0,0,.16.63,2.1,2.1,0,0,0,.28.56,1.69,1.69,0,0,0,.42.38,1.16,1.16,0,0,0,.6.14,1.11,1.11,0,0,0,.6-.14,1.57,1.57,0,0,0,.43-.38,2.1,2.1,0,0,0,.28-.56,4.15,4.15,0,0,0,.16-.63,4.81,4.81,0,0,0,.07-.64c0-.22,0-.41,0-.59s0-.36,0-.58a4.81,4.81,0,0,0-.07-.64,4.15,4.15,0,0,0-.16-.63,2,2,0,0,0-.28-.56,1.57,1.57,0,0,0-.43-.38,1.11,1.11,0,0,0-.6-.14A1.16,1.16,0,0,0,73,13a1.69,1.69,0,0,0-.42.38,2,2,0,0,0-.28.56,4.15,4.15,0,0,0-.16.63c0,.22-.06.43-.08.64S72.06,15.66,72.06,15.83Z"/><path d="M76.9,18.42l2.67-2.61a6.07,6.07,0,0,0,.44-.44,2.66,2.66,0,0,0,.32-.4,1.5,1.5,0,0,0,.18-.41,1.65,1.65,0,0,0,.06-.46,1.12,1.12,0,0,0-.1-.5.94.94,0,0,0-.27-.38,1.38,1.38,0,0,0-.41-.24,1.44,1.44,0,0,0-.51-.08,1.29,1.29,0,0,0-.89.31,1.45,1.45,0,0,0-.45.81L77,13.94a2.29,2.29,0,0,1,.27-.76,1.89,1.89,0,0,1,.49-.56,2.55,2.55,0,0,1,.66-.33,2.63,2.63,0,0,1,.8-.12,2.77,2.77,0,0,1,.83.13,1.92,1.92,0,0,1,.69.37,1.66,1.66,0,0,1,.47.6,1.78,1.78,0,0,1,.17.83,2.23,2.23,0,0,1-.11.75,2.64,2.64,0,0,1-.31.63,4.51,4.51,0,0,1-.44.54c-.16.17-.34.34-.52.5l-2.18,2.06v0h3.61v.77H76.9Z"/><path d="M82.34,15.83a9.39,9.39,0,0,1,.1-1.25,4.07,4.07,0,0,1,.37-1.18,2.44,2.44,0,0,1,.74-.88,2.22,2.22,0,0,1,2.39,0,2.41,2.41,0,0,1,.73.88A3.79,3.79,0,0,1,87,14.58a8,8,0,0,1,.1,1.25,7.79,7.79,0,0,1-.1,1.25,3.77,3.77,0,0,1-.37,1.19,2.41,2.41,0,0,1-.73.88,2.22,2.22,0,0,1-2.39,0,2.44,2.44,0,0,1-.74-.88,4,4,0,0,1-.37-1.19A9.14,9.14,0,0,1,82.34,15.83Zm.84,0c0,.18,0,.37,0,.59s0,.42.08.64a4.15,4.15,0,0,0,.16.63,2.1,2.1,0,0,0,.28.56,1.69,1.69,0,0,0,.42.38,1.16,1.16,0,0,0,.6.14,1.11,1.11,0,0,0,.6-.14,1.57,1.57,0,0,0,.43-.38,2.1,2.1,0,0,0,.28-.56,4.15,4.15,0,0,0,.16-.63,4.81,4.81,0,0,0,.07-.64c0-.22,0-.41,0-.59s0-.36,0-.58a4.81,4.81,0,0,0-.07-.64,4.15,4.15,0,0,0-.16-.63,2,2,0,0,0-.28-.56,1.57,1.57,0,0,0-.43-.38,1.11,1.11,0,0,0-.6-.14,1.16,1.16,0,0,0-.6.14,1.69,1.69,0,0,0-.42.38,2,2,0,0,0-.28.56,4.15,4.15,0,0,0-.16.63c0,.22-.06.43-.08.64S83.18,15.66,83.18,15.83Z"/><path d="M87.52,20.12h5v.5h-5Z"/><path d="M93.28,14a1.83,1.83,0,0,1,.16-.75,1.63,1.63,0,0,1,.42-.58,1.88,1.88,0,0,1,.64-.38,2.36,2.36,0,0,1,.8-.14,2.28,2.28,0,0,1,.8.14,1.79,1.79,0,0,1,.64.38,1.66,1.66,0,0,1,.43.58,1.83,1.83,0,0,1,.15.75A1.68,1.68,0,0,1,97,15a1.58,1.58,0,0,1-.36.37,1.23,1.23,0,0,1-.49.23v0a1.77,1.77,0,0,1,.58.24,1.44,1.44,0,0,1,.44.41,1.63,1.63,0,0,1,.28.54,1.93,1.93,0,0,1,.1.63,2,2,0,0,1-.17.87,1.87,1.87,0,0,1-.48.65,2,2,0,0,1-.72.41,2.69,2.69,0,0,1-1.77,0,2,2,0,0,1-.72-.41,1.87,1.87,0,0,1-.48-.65,2,2,0,0,1-.18-.87,2.24,2.24,0,0,1,.1-.63,1.84,1.84,0,0,1,.28-.54,1.56,1.56,0,0,1,.44-.41,2,2,0,0,1,.58-.24v0a1.19,1.19,0,0,1-.48-.23,1.62,1.62,0,0,1-.37-.37,1.65,1.65,0,0,1-.23-.46A1.69,1.69,0,0,1,93.28,14Zm.6,3.35a1.56,1.56,0,0,0,.11.57,1.4,1.4,0,0,0,.31.44,1.51,1.51,0,0,0,.45.29,1.42,1.42,0,0,0,.55.1,1.47,1.47,0,0,0,.56-.1,1.51,1.51,0,0,0,.45-.29,1.23,1.23,0,0,0,.3-.44,1.38,1.38,0,0,0,.11-.57,1.4,1.4,0,0,0-.11-.58,1.23,1.23,0,0,0-.3-.44,1.51,1.51,0,0,0-.45-.29,1.47,1.47,0,0,0-.56-.1,1.42,1.42,0,0,0-.55.1,1.51,1.51,0,0,0-.45.29,1.4,1.4,0,0,0-.31.44A1.58,1.58,0,0,0,93.88,17.37Zm.24-3.31a1.12,1.12,0,0,0,.33.84,1.27,1.27,0,0,0,1.71,0,1.2,1.2,0,1,0-2-.84Z"/><path d="M98.14,12.29h.93l1.61,5.88h0l1.74-5.88h.94l1.73,5.88h0l1.64-5.88h.88l-2.08,7.08h-.91l-1.75-6h0l-1.76,6h-.92Z"/><path d="M111.3,12.29h.84V18.6h3.24v.77H111.3Z"/><path d="M116.3,12.29h4.45v.79h-3.61v2.21h3.37v.79h-3.37V18.6h3.79v.77H116.3Z"/><path d="M122.1,12.29h2.72a3.89,3.89,0,0,1,.74.08,4,4,0,0,1,.78.26,4.07,4.07,0,0,1,.74.45,3.1,3.1,0,0,1,.62.68,3.19,3.19,0,0,1,.43.91,4.32,4.32,0,0,1,0,2.33,3.19,3.19,0,0,1-.43.91,2.84,2.84,0,0,1-.62.67,3.63,3.63,0,0,1-.74.46,3.37,3.37,0,0,1-.78.25,3.22,3.22,0,0,1-.74.08H122.1Zm.84,6.31h1.6a4,4,0,0,0,1.13-.16,2.47,2.47,0,0,0,.9-.5,2.15,2.15,0,0,0,.6-.86,3.11,3.11,0,0,0,.22-1.25,3.17,3.17,0,0,0-.22-1.25,2.19,2.19,0,0,0-.6-.85,2.47,2.47,0,0,0-.9-.5,4,4,0,0,0-1.13-.15h-1.6Z"/><rect class="cls-3" x="55.16" y="41.99" width="189.86" height="189.86"/><circle class="cls-4" cx="150.1" cy="136.87" r="21.06"/><path d="M153.62,165H153v-4.8h0l-1,.86-.4-.49,1.52-1.23h.58Z"/><path d="M155.45,162.15a7,7,0,0,1,.08-1,3.1,3.1,0,0,1,.29-1,1.92,1.92,0,0,1,.59-.7,1.54,1.54,0,0,1,1-.28,1.49,1.49,0,0,1,.95.28,1.83,1.83,0,0,1,.59.7,2.86,2.86,0,0,1,.3,1,7,7,0,0,1,.08,1,7.07,7.07,0,0,1-.08,1,3,3,0,0,1-.3.95,1.91,1.91,0,0,1-.59.7,1.55,1.55,0,0,1-.95.28,1.61,1.61,0,0,1-1-.28,2,2,0,0,1-.59-.7,3.28,3.28,0,0,1-.29-.95A7.07,7.07,0,0,1,155.45,162.15Zm.67,0c0,.14,0,.29,0,.46a4.88,4.88,0,0,0,.06.52,4.05,4.05,0,0,0,.12.5,1.9,1.9,0,0,0,.23.45,1,1,0,0,0,.34.3.9.9,0,0,0,.48.12,1,1,0,0,0,.48-.12,1.21,1.21,0,0,0,.34-.3,1.57,1.57,0,0,0,.22-.45,2.83,2.83,0,0,0,.13-.5,4.88,4.88,0,0,0,.06-.52c0-.17,0-.32,0-.46s0-.3,0-.47a4.43,4.43,0,0,0-.06-.51,2.72,2.72,0,0,0-.13-.51,1.51,1.51,0,0,0-.22-.44,1.24,1.24,0,0,0-.34-.31,1,1,0,0,0-.48-.12.9.9,0,0,0-.48.12,1,1,0,0,0-.34.31,1.83,1.83,0,0,0-.23.44,3.81,3.81,0,0,0-.12.51,4.43,4.43,0,0,0-.06.51C156.13,161.85,156.12,162,156.12,162.15Z"/><path d="M159.9,162.15a5.77,5.77,0,0,1,.08-1,3.1,3.1,0,0,1,.29-1,1.92,1.92,0,0,1,.59-.7,1.54,1.54,0,0,1,1-.28,1.51,1.51,0,0,1,1,.28,1.83,1.83,0,0,1,.59.7,3.41,3.41,0,0,1,.3,1,7,7,0,0,1,.08,1,7.07,7.07,0,0,1-.08,1,3.64,3.64,0,0,1-.3.95,1.91,1.91,0,0,1-.59.7,1.57,1.57,0,0,1-1,.28,1.61,1.61,0,0,1-1-.28,2,2,0,0,1-.59-.7,3.28,3.28,0,0,1-.29-.95A5.85,5.85,0,0,1,159.9,162.15Zm.67,0c0,.14,0,.29,0,.46l.06.52a4.07,4.07,0,0,0,.13.5,1.59,1.59,0,0,0,.23.45,1,1,0,0,0,.34.3.9.9,0,0,0,.48.12,1,1,0,0,0,.48-.12,1.21,1.21,0,0,0,.34-.3,1.88,1.88,0,0,0,.22-.45,2.83,2.83,0,0,0,.13-.5,4.88,4.88,0,0,0,.06-.52c0-.17,0-.32,0-.46s0-.3,0-.47a4.43,4.43,0,0,0-.06-.51,2.72,2.72,0,0,0-.13-.51,1.81,1.81,0,0,0-.22-.44,1.24,1.24,0,0,0-.34-.31,1,1,0,0,0-.48-.12.9.9,0,0,0-.48.12,1,1,0,0,0-.34.31,1.53,1.53,0,0,0-.23.44,3.8,3.8,0,0,0-.13.51l-.06.51C160.57,161.85,160.57,162,160.57,162.15Z"/><circle class="cls-4" cx="150.1" cy="136.87" r="42.17" transform="translate(-19.99 25.81) rotate(-9.22)"/><path d="M151.14,185.33l2.14-2.08.35-.36a2.16,2.16,0,0,0,.25-.32,1.15,1.15,0,0,0,.15-.32,1.52,1.52,0,0,0,.05-.38,1,1,0,0,0-.08-.4.84.84,0,0,0-.22-.3.89.89,0,0,0-.33-.19,1.05,1.05,0,0,0-.4-.07,1,1,0,0,0-.71.25,1.08,1.08,0,0,0-.36.65l-.73-.06a1.91,1.91,0,0,1,.21-.61,1.41,1.41,0,0,1,.39-.45,2.4,2.4,0,0,1,.53-.27,2.2,2.2,0,0,1,.64-.09,2.41,2.41,0,0,1,.67.1,1.92,1.92,0,0,1,.55.29,1.41,1.41,0,0,1,.37.49,1.39,1.39,0,0,1,.14.66,2,2,0,0,1-.09.61,1.8,1.8,0,0,1-.25.5,3.47,3.47,0,0,1-.35.43l-.41.4-1.75,1.64v0h2.89v.62h-3.65Z"/><path d="M155.45,183.26a7.07,7.07,0,0,1,.08-1,3.19,3.19,0,0,1,.29-.95,2,2,0,0,1,.59-.7,1.54,1.54,0,0,1,1-.28,1.49,1.49,0,0,1,.95.28,1.91,1.91,0,0,1,.59.7,2.94,2.94,0,0,1,.3.95,6.29,6.29,0,0,1,0,2,2.94,2.94,0,0,1-.3,1,1.91,1.91,0,0,1-.59.7,1.49,1.49,0,0,1-.95.28,1.54,1.54,0,0,1-1-.28,2,2,0,0,1-.59-.7,3.19,3.19,0,0,1-.29-1A7.07,7.07,0,0,1,155.45,183.26Zm.67,0c0,.14,0,.29,0,.46a4.35,4.35,0,0,0,.06.52,4.7,4.7,0,0,0,.12.51,2,2,0,0,0,.23.44,1,1,0,0,0,.34.31,1,1,0,0,0,.48.11,1.06,1.06,0,0,0,.48-.11,1.24,1.24,0,0,0,.34-.31,1.65,1.65,0,0,0,.22-.44,3.18,3.18,0,0,0,.13-.51,4.35,4.35,0,0,0,.06-.52c0-.17,0-.32,0-.46s0-.29,0-.46a4.6,4.6,0,0,0-.06-.52,3.18,3.18,0,0,0-.13-.51,1.65,1.65,0,0,0-.22-.44,1.21,1.21,0,0,0-.34-.3,1,1,0,0,0-.48-.12.9.9,0,0,0-.48.12,1,1,0,0,0-.34.3,2,2,0,0,0-.23.44,4.7,4.7,0,0,0-.12.51,4.6,4.6,0,0,0-.06.52C156.13,183,156.12,183.12,156.12,183.26Z"/><path d="M159.9,183.26a5.85,5.85,0,0,1,.08-1,3.19,3.19,0,0,1,.29-.95,2,2,0,0,1,.59-.7,1.54,1.54,0,0,1,1-.28,1.51,1.51,0,0,1,1,.28,1.91,1.91,0,0,1,.59.7,3.52,3.52,0,0,1,.3.95,6.29,6.29,0,0,1,0,2,3.52,3.52,0,0,1-.3,1,1.91,1.91,0,0,1-.59.7,1.51,1.51,0,0,1-1,.28,1.54,1.54,0,0,1-1-.28,2,2,0,0,1-.59-.7,3.19,3.19,0,0,1-.29-1A5.85,5.85,0,0,1,159.9,183.26Zm.67,0c0,.14,0,.29,0,.46l.06.52a4.77,4.77,0,0,0,.13.51,1.67,1.67,0,0,0,.23.44,1,1,0,0,0,.34.31,1,1,0,0,0,.48.11,1.06,1.06,0,0,0,.48-.11,1.24,1.24,0,0,0,.34-.31,2,2,0,0,0,.22-.44,3.18,3.18,0,0,0,.13-.51,4.35,4.35,0,0,0,.06-.52c0-.17,0-.32,0-.46s0-.29,0-.46a4.6,4.6,0,0,0-.06-.52,3.18,3.18,0,0,0-.13-.51,2,2,0,0,0-.22-.44,1.21,1.21,0,0,0-.34-.3,1,1,0,0,0-.48-.12.9.9,0,0,0-.48.12,1,1,0,0,0-.34.3,1.67,1.67,0,0,0-.23.44,4.77,4.77,0,0,0-.13.51l-.06.52C160.57,183,160.57,183.12,160.57,183.26Z"/><circle class="cls-4" cx="150.1" cy="136.87" r="63.23"/><path d="M152.38,203.89h.2l.44,0a1.23,1.23,0,0,0,.42-.14.89.89,0,0,0,.31-.3,1,1,0,0,0,.12-.51.9.9,0,0,0-.27-.69,1,1,0,0,0-.7-.25,1.09,1.09,0,0,0-1,.63l-.64-.25a1.39,1.39,0,0,1,.65-.72,2,2,0,0,1,1-.24,2.31,2.31,0,0,1,.64.1,1.54,1.54,0,0,1,.54.28,1.3,1.3,0,0,1,.37.46,1.44,1.44,0,0,1,.13.64,1.31,1.31,0,0,1-.26.81,1.38,1.38,0,0,1-.7.49v0a1.44,1.44,0,0,1,.48.17,1.38,1.38,0,0,1,.36.32,1.29,1.29,0,0,1,.24.43,1.64,1.64,0,0,1,.08.5,1.46,1.46,0,0,1-.16.71,1.54,1.54,0,0,1-.4.51,1.73,1.73,0,0,1-.6.32,2.78,2.78,0,0,1-.72.1,2.14,2.14,0,0,1-1.12-.28,1.6,1.6,0,0,1-.7-.91l.68-.23a1.22,1.22,0,0,0,.41.65,1.2,1.2,0,0,0,.73.19,1.12,1.12,0,0,0,.45-.08,1.25,1.25,0,0,0,.37-.22,1.13,1.13,0,0,0,.24-.36.93.93,0,0,0,.1-.45,1,1,0,0,0-.13-.52.9.9,0,0,0-.33-.34,1.58,1.58,0,0,0-.46-.18,2.24,2.24,0,0,0-.52-.06h-.2Z"/><path d="M155.45,204.32a7.07,7.07,0,0,1,.08-1,3.19,3.19,0,0,1,.29-.95,2,2,0,0,1,.59-.7,1.61,1.61,0,0,1,1-.28,1.55,1.55,0,0,1,.95.28,1.91,1.91,0,0,1,.59.7,2.94,2.94,0,0,1,.3.95,6.29,6.29,0,0,1,0,2,2.94,2.94,0,0,1-.3,1,1.91,1.91,0,0,1-.59.7,1.49,1.49,0,0,1-.95.28,1.54,1.54,0,0,1-1-.28,2,2,0,0,1-.59-.7,3.19,3.19,0,0,1-.29-1A7.07,7.07,0,0,1,155.45,204.32Zm.67,0c0,.14,0,.29,0,.47a4.43,4.43,0,0,0,.06.51,4.7,4.7,0,0,0,.12.51,2,2,0,0,0,.23.44,1,1,0,0,0,.34.31,1,1,0,0,0,.48.11,1.06,1.06,0,0,0,.48-.11,1.24,1.24,0,0,0,.34-.31,1.65,1.65,0,0,0,.22-.44,3.18,3.18,0,0,0,.13-.51,4.43,4.43,0,0,0,.06-.51c0-.18,0-.33,0-.47s0-.29,0-.46a4.6,4.6,0,0,0-.06-.52,3.18,3.18,0,0,0-.13-.51,1.65,1.65,0,0,0-.22-.44,1.43,1.43,0,0,0-.34-.31,1.06,1.06,0,0,0-.48-.11,1,1,0,0,0-.48.11,1.13,1.13,0,0,0-.34.31,2,2,0,0,0-.23.44,4.7,4.7,0,0,0-.12.51,4.6,4.6,0,0,0-.06.52C156.13,204,156.12,204.18,156.12,204.32Z"/><path d="M159.9,204.32a5.85,5.85,0,0,1,.08-1,3.19,3.19,0,0,1,.29-.95,2,2,0,0,1,.59-.7,1.61,1.61,0,0,1,1-.28,1.57,1.57,0,0,1,1,.28,1.91,1.91,0,0,1,.59.7,3.52,3.52,0,0,1,.3.95,6.29,6.29,0,0,1,0,2,3.52,3.52,0,0,1-.3,1,1.91,1.91,0,0,1-.59.7,1.51,1.51,0,0,1-1,.28,1.54,1.54,0,0,1-1-.28,2,2,0,0,1-.59-.7,3.19,3.19,0,0,1-.29-1A5.85,5.85,0,0,1,159.9,204.32Zm.67,0c0,.14,0,.29,0,.47l.06.51a4.77,4.77,0,0,0,.13.51,1.67,1.67,0,0,0,.23.44,1,1,0,0,0,.34.31,1,1,0,0,0,.48.11,1.06,1.06,0,0,0,.48-.11,1.24,1.24,0,0,0,.34-.31,2,2,0,0,0,.22-.44,3.18,3.18,0,0,0,.13-.51,4.43,4.43,0,0,0,.06-.51c0-.18,0-.33,0-.47s0-.29,0-.46a4.6,4.6,0,0,0-.06-.52,3.18,3.18,0,0,0-.13-.51,2,2,0,0,0-.22-.44,1.43,1.43,0,0,0-.34-.31,1.06,1.06,0,0,0-.48-.11,1,1,0,0,0-.48.11,1.13,1.13,0,0,0-.34.31,1.67,1.67,0,0,0-.23.44,4.77,4.77,0,0,0-.13.51l-.06.52C160.57,204,160.57,204.18,160.57,204.32Z"/><circle class="cls-4" cx="150.1" cy="136.87" r="84.35"/><path d="M154.1,226.35h.81V227h-.81v1.3h-.68V227H151v-.74l2.25-3.63h.83Zm-.68-3h0l-1.81,3h1.82Z"/><path d="M155.45,225.43a7.07,7.07,0,0,1,.08-1,3.13,3.13,0,0,1,.29-.94,2,2,0,0,1,.59-.71,1.6,1.6,0,0,1,1-.27,1.55,1.55,0,0,1,.95.27,1.94,1.94,0,0,1,.59.71,2.88,2.88,0,0,1,.3.94,7.07,7.07,0,0,1,.08,1,7,7,0,0,1-.08,1,2.86,2.86,0,0,1-.3.95,1.94,1.94,0,0,1-.59.71,1.55,1.55,0,0,1-.95.27,1.6,1.6,0,0,1-1-.27,2,2,0,0,1-.59-.71,3.1,3.1,0,0,1-.29-.95A7,7,0,0,1,155.45,225.43Zm.67,0c0,.14,0,.3,0,.47a4.88,4.88,0,0,0,.06.52,4.05,4.05,0,0,0,.12.5,1.83,1.83,0,0,0,.23.44,1,1,0,0,0,.34.31.9.9,0,0,0,.48.12,1,1,0,0,0,.48-.12,1.24,1.24,0,0,0,.34-.31,1.51,1.51,0,0,0,.22-.44,2.83,2.83,0,0,0,.13-.5,4.88,4.88,0,0,0,.06-.52c0-.17,0-.33,0-.47s0-.29,0-.46a4.43,4.43,0,0,0-.06-.51,2.72,2.72,0,0,0-.13-.51,1.4,1.4,0,0,0-.22-.44,1.24,1.24,0,0,0-.34-.31,1,1,0,0,0-.48-.12.9.9,0,0,0-.48.12,1,1,0,0,0-.34.31,1.66,1.66,0,0,0-.23.44,3.81,3.81,0,0,0-.12.51,4.43,4.43,0,0,0-.06.51C156.13,225.14,156.12,225.3,156.12,225.43Z"/><path d="M159.9,225.43a5.85,5.85,0,0,1,.08-1,3.13,3.13,0,0,1,.29-.94,2,2,0,0,1,.59-.71,1.6,1.6,0,0,1,1-.27,1.57,1.57,0,0,1,1,.27,1.94,1.94,0,0,1,.59.71,3.45,3.45,0,0,1,.3.94,7.07,7.07,0,0,1,.08,1,7,7,0,0,1-.08,1,3.41,3.41,0,0,1-.3.95,1.94,1.94,0,0,1-.59.71,1.57,1.57,0,0,1-1,.27,1.6,1.6,0,0,1-1-.27,2,2,0,0,1-.59-.71,3.1,3.1,0,0,1-.29-.95A5.77,5.77,0,0,1,159.9,225.43Zm.67,0c0,.14,0,.3,0,.47l.06.52a4.07,4.07,0,0,0,.13.5,1.53,1.53,0,0,0,.23.44,1,1,0,0,0,.34.31.9.9,0,0,0,.48.12,1,1,0,0,0,.48-.12,1.24,1.24,0,0,0,.34-.31,1.81,1.81,0,0,0,.22-.44,2.83,2.83,0,0,0,.13-.5,4.88,4.88,0,0,0,.06-.52c0-.17,0-.33,0-.47s0-.29,0-.46a4.43,4.43,0,0,0-.06-.51,2.72,2.72,0,0,0-.13-.51,1.65,1.65,0,0,0-.22-.44,1.24,1.24,0,0,0-.34-.31,1,1,0,0,0-.48-.12.9.9,0,0,0-.48.12,1,1,0,0,0-.34.31,1.41,1.41,0,0,0-.23.44,3.8,3.8,0,0,0-.13.51l-.06.51C160.57,225.14,160.57,225.3,160.57,225.43Z"/><line class="cls-4" x1="55.16" y1="136.92" x2="245.08" y2="136.92"/><line class="cls-4" x1="150.1" y1="231.86" x2="150.1" y2="41.94"/><line class="cls-4" x1="95.34" y1="41.94" x2="204.91" y2="231.86"/><line class="cls-4" x1="95.34" y1="231.86" x2="204.91" y2="41.94"/><line class="cls-4" x1="55.16" y1="82.11" x2="245.08" y2="191.68"/><line class="cls-4" x1="55.16" y1="191.68" x2="245.08" y2="82.11"/><line class="cls-1" x1="150.1" y1="230.34" x2="151.72" y2="230.72"/><line class="cls-1" x1="151.72" y1="230.72" x2="153.39" y2="231.26"/><line class="cls-1" x1="153.39" y1="231.26" x2="155.01" y2="230.4"/><line class="cls-1" x1="155.01" y1="230.4" x2="156.63" y2="230.4"/><line class="cls-1" x1="156.63" y1="230.4" x2="158.25" y2="230.29"/><line class="cls-1" x1="158.25" y1="230.29" x2="159.92" y2="230.13"/><line class="cls-1" x1="159.92" y1="230.13" x2="161.44" y2="229.26"/><line class="cls-1" x1="161.44" y1="229.26" x2="163.06" y2="229.05"/><line class="cls-1" x1="163.06" y1="229.05" x2="164.62" y2="228.67"/><line class="cls-1" x1="164.62" y1="228.67" x2="166.08" y2="227.54"/><line class="cls-1" x1="166.08" y1="227.54" x2="167.7" y2="227.48"/><line class="cls-1" x1="167.7" y1="227.48" x2="169.05" y2="225.97"/><line class="cls-1" x1="169.05" y1="225.97" x2="170.56" y2="225.65"/><line class="cls-1" x1="170.56" y1="225.65" x2="171.97" y2="224.51"/><line class="cls-1" x1="171.97" y1="224.51" x2="173.48" y2="224.19"/><line class="cls-1" x1="173.48" y1="224.19" x2="174.83" y2="223.05"/><line class="cls-1" x1="174.83" y1="223.05" x2="176.29" y2="222.46"/><line class="cls-1" x1="176.29" y1="222.46" x2="177.47" y2="221.11"/><line class="cls-1" x1="177.47" y1="221.11" x2="178.82" y2="220.25"/><line class="cls-1" x1="178.82" y1="220.25" x2="179.8" y2="218.46"/><line class="cls-1" x1="179.8" y1="218.46" x2="180.98" y2="217.33"/><line class="cls-1" x1="180.98" y1="217.33" x2="181.96" y2="215.82"/><line class="cls-1" x1="181.96" y1="215.82" x2="183.09" y2="214.63"/><line class="cls-1" x1="183.09" y1="214.63" x2="183.9" y2="212.85"/><line class="cls-1" x1="183.9" y1="212.85" x2="184.98" y2="211.71"/><line class="cls-1" x1="184.98" y1="211.71" x2="185.57" y2="209.66"/><line class="cls-1" x1="185.57" y1="209.66" x2="186.55" y2="208.47"/><line class="cls-1" x1="186.55" y1="208.47" x2="186.87" y2="206.04"/><line class="cls-1" x1="186.87" y1="206.04" x2="187.68" y2="204.69"/><line class="cls-1" x1="187.68" y1="204.69" x2="188" y2="202.53"/><line class="cls-1" x1="188" y1="202.53" x2="188.6" y2="200.91"/><line class="cls-1" x1="188.6" y1="200.91" x2="188.54" y2="198.38"/><line class="cls-1" x1="188.54" y1="198.38" x2="188.87" y2="196.54"/><line class="cls-1" x1="188.87" y1="196.54" x2="188.87" y2="194.33"/><line class="cls-1" x1="188.87" y1="194.33" x2="188.81" y2="192.22"/><line class="cls-1" x1="188.81" y1="192.22" x2="188.54" y2="189.79"/><line class="cls-1" x1="188.54" y1="189.79" x2="188.38" y2="187.68"/><line class="cls-1" x1="188.38" y1="187.68" x2="188.11" y2="185.52"/><line class="cls-1" x1="188.11" y1="185.52" x2="187.79" y2="183.42"/><line class="cls-1" x1="187.79" y1="183.42" x2="187.57" y2="181.53"/><line class="cls-1" x1="187.57" y1="181.53" x2="187.3" y2="179.64"/><line class="cls-1" x1="187.3" y1="179.64" x2="186.65" y2="177.48"/><line class="cls-1" x1="186.65" y1="177.48" x2="186.11" y2="175.53"/><line class="cls-1" x1="186.11" y1="175.53" x2="185.84" y2="173.91"/><line class="cls-1" x1="185.84" y1="173.91" x2="185.03" y2="171.81"/><line class="cls-1" x1="185.03" y1="171.81" x2="184.44" y2="170.08"/><line class="cls-1" x1="184.44" y1="170.08" x2="183.68" y2="168.19"/><line class="cls-1" x1="183.68" y1="168.19" x2="183.2" y2="166.68"/><line class="cls-1" x1="183.2" y1="166.68" x2="182.33" y2="164.9"/><line class="cls-1" x1="182.33" y1="164.9" x2="181.58" y2="163.33"/><line class="cls-1" x1="181.58" y1="163.33" x2="180.82" y2="161.76"/><line class="cls-1" x1="180.82" y1="161.76" x2="179.9" y2="160.14"/><line class="cls-1" x1="179.9" y1="160.14" x2="179.09" y2="158.74"/><line class="cls-1" x1="179.09" y1="158.74" x2="178.28" y2="157.34"/><line class="cls-1" x1="178.28" y1="157.34" x2="177.37" y2="155.93"/><line class="cls-1" x1="177.37" y1="155.93" x2="176.45" y2="154.64"/><line class="cls-1" x1="176.45" y1="154.64" x2="175.48" y2="153.34"/><line class="cls-1" x1="175.48" y1="153.34" x2="174.61" y2="152.15"/><line class="cls-1" x1="174.61" y1="152.15" x2="173.64" y2="151.02"/><line class="cls-1" x1="173.64" y1="151.02" x2="172.45" y2="149.78"/><line class="cls-1" x1="172.45" y1="149.78" x2="171.59" y2="148.8"/><line class="cls-1" x1="171.59" y1="148.8" x2="170.45" y2="147.67"/><line class="cls-1" x1="170.45" y1="147.67" x2="169.54" y2="146.75"/><line class="cls-1" x1="169.54" y1="146.75" x2="168.46" y2="145.83"/><line class="cls-1" x1="168.46" y1="145.83" x2="167.38" y2="144.92"/><line class="cls-1" x1="167.38" y1="144.92" x2="166.35" y2="144.11"/><line class="cls-1" x1="166.35" y1="144.11" x2="165.49" y2="143.4"/><line class="cls-1" x1="165.49" y1="143.4" x2="164.51" y2="142.7"/><line class="cls-1" x1="164.51" y1="142.7" x2="163.54" y2="142.05"/><line class="cls-1" x1="163.54" y1="142.05" x2="162.62" y2="141.41"/><line class="cls-1" x1="162.62" y1="141.41" x2="161.76" y2="140.87"/><line class="cls-1" x1="161.76" y1="140.87" x2="160.79" y2="140.33"/><line class="cls-1" x1="160.79" y1="140.33" x2="159.92" y2="139.89"/><line class="cls-1" x1="159.92" y1="139.89" x2="159.01" y2="139.41"/><line class="cls-1" x1="159.01" y1="139.41" x2="158.2" y2="139.03"/><line class="cls-1" x1="158.2" y1="139.03" x2="157.33" y2="138.71"/><line class="cls-1" x1="157.33" y1="138.71" x2="156.58" y2="138.38"/><line class="cls-1" x1="156.58" y1="138.38" x2="155.87" y2="138.11"/><line class="cls-1" x1="155.87" y1="138.11" x2="155.12" y2="137.84"/><line class="cls-1" x1="155.12" y1="137.84" x2="154.42" y2="137.63"/><line class="cls-1" x1="154.42" y1="137.63" x2="153.77" y2="137.46"/><line class="cls-1" x1="153.77" y1="137.46" x2="153.17" y2="137.3"/><line class="cls-1" x1="153.17" y1="137.3" x2="152.58" y2="137.19"/><line class="cls-1" x1="152.58" y1="137.19" x2="152.04" y2="137.09"/><line class="cls-1" x1="152.04" y1="137.09" x2="151.55" y2="136.98"/><line class="cls-1" x1="151.55" y1="136.98" x2="151.12" y2="136.92"/><line class="cls-1" x1="151.12" y1="136.92" x2="150.8" y2="136.92"/><line class="cls-1" x1="150.8" y1="136.92" x2="150.53" y2="136.92"/><line class="cls-1" x1="150.53" y1="136.92" x2="150.31" y2="136.92"/><line class="cls-1" x1="150.31" y1="136.92" x2="150.26" y2="136.92"/><line class="cls-1" x1="150.26" y1="136.92" x2="150.1" y2="136.92"/><line class="cls-1" x1="150.1" y1="136.92" x2="150.1" y2="136.92"/><line class="cls-1" x1="150.1" y1="136.92" x2="150.1" y2="136.92"/><line class="cls-1" x1="150.1" y1="136.92" x2="150.1" y2="136.92"/><line class="cls-1" x1="150.1" y1="136.92" x2="150.1" y2="136.92"/><line class="cls-1" x1="150.1" y1="136.92" x2="150.1" y2="136.92"/><line class="cls-1" x1="150.1" y1="136.92" x2="150.1" y2="136.92"/><line class="cls-1" x1="150.1" y1="136.92" x2="150.1" y2="136.92"/><line class="cls-1" x1="150.1" y1="136.92" x2="150.1" y2="136.92"/><line class="cls-1" x1="150.1" y1="136.92" x2="150.1" y2="136.92"/><line class="cls-1" x1="150.1" y1="136.92" x2="150.1" y2="136.92"/><line class="cls-1" x1="150.1" y1="136.92" x2="150.1" y2="136.92"/><line class="cls-1" x1="150.1" y1="136.92" x2="150.1" y2="136.92"/><line class="cls-1" x1="150.1" y1="136.92" x2="150.1" y2="136.92"/><line class="cls-1" x1="150.1" y1="136.92" x2="150.1" y2="136.92"/><line class="cls-1" x1="150.1" y1="136.92" x2="150.1" y2="136.92"/><line class="cls-1" x1="150.1" y1="136.92" x2="150.1" y2="136.92"/><line class="cls-1" x1="150.1" y1="136.92" x2="150.1" y2="136.92"/><line class="cls-1" x1="150.1" y1="136.92" x2="150.1" y2="136.92"/><line class="cls-1" x1="150.1" y1="136.92" x2="150.1" y2="136.92"/><line class="cls-1" x1="150.1" y1="136.92" x2="150.1" y2="136.92"/><line class="cls-1" x1="150.1" y1="136.92" x2="150.1" y2="136.92"/><line class="cls-1" x1="150.1" y1="136.92" x2="150.1" y2="136.92"/><line class="cls-1" x1="150.1" y1="136.92" x2="150.1" y2="136.92"/><line class="cls-1" x1="150.1" y1="136.92" x2="150.1" y2="136.92"/><line class="cls-1" x1="150.1" y1="136.92" x2="150.1" y2="136.92"/><line class="cls-1" x1="150.1" y1="136.92" x2="150.1" y2="136.92"/><line class="cls-1" x1="150.1" y1="136.92" x2="150.1" y2="136.92"/><line class="cls-1" x1="150.1" y1="136.92" x2="150.1" y2="136.92"/><line class="cls-1" x1="150.1" y1="136.92" x2="150.1" y2="136.92"/><line class="cls-1" x1="150.1" y1="136.92" x2="150.1" y2="136.92"/><line class="cls-1" x1="150.1" y1="136.92" x2="150.1" y2="136.92"/><line class="cls-1" x1="150.1" y1="136.92" x2="150.1" y2="136.92"/><line class="cls-1" x1="150.1" y1="136.92" x2="150.1" y2="136.92"/><line class="cls-1" x1="150.1" y1="136.92" x2="150.1" y2="136.92"/><line class="cls-1" x1="150.1" y1="136.92" x2="150.1" y2="136.92"/><line class="cls-1" x1="150.1" y1="136.92" x2="150.1" y2="136.92"/><line class="cls-1" x1="150.1" y1="136.92" x2="150.1" y2="136.92"/><line class="cls-1" x1="150.1" y1="136.92" x2="150.1" y2="136.92"/><line class="cls-1" x1="150.1" y1="136.92" x2="150.1" y2="136.92"/><line class="cls-1" x1="150.1" y1="136.92" x2="150.1" y2="136.92"/><line class="cls-1" x1="150.1" y1="136.92" x2="150.1" y2="136.92"/><line class="cls-1" x1="150.1" y1="136.92" x2="150.1" y2="136.92"/><line class="cls-1" x1="150.1" y1="136.92" x2="150.1" y2="136.92"/><line class="cls-1" x1="150.1" y1="136.92" x2="150.1" y2="136.92"/><line class="cls-1" x1="150.1" y1="136.92" x2="150.1" y2="136.92"/><line class="cls-1" x1="150.1" y1="136.92" x2="150.1" y2="136.92"/><line class="cls-1" x1="150.1" y1="136.92" x2="150.1" y2="136.92"/><line class="cls-1" x1="150.1" y1="136.92" x2="150.1" y2="136.92"/><line class="cls-1" x1="150.1" y1="136.92" x2="150.1" y2="136.92"/><line class="cls-1" x1="150.1" y1="136.92" x2="150.1" y2="136.92"/><line class="cls-1" x1="150.1" y1="136.92" x2="150.1" y2="136.92"/><line class="cls-1" x1="150.1" y1="136.92" x2="150.1" y2="136.92"/><line class="cls-1" x1="150.1" y1="136.92" x2="150.1" y2="136.92"/><line class="cls-1" x1="150.1" y1="136.92" x2="150.1" y2="136.92"/><line class="cls-1" x1="150.1" y1="136.92" x2="150.1" y2="136.92"/><line class="cls-1" x1="150.1" y1="136.92" x2="150.1" y2="136.92"/><line class="cls-1" x1="150.1" y1="136.92" x2="150.1" y2="136.92"/><line class="cls-1" x1="150.1" y1="136.92" x2="150.1" y2="136.92"/><line class="cls-1" x1="150.1" y1="136.92" x2="150.1" y2="136.92"/><line class="cls-1" x1="150.1" y1="136.92" x2="150.1" y2="136.92"/><line class="cls-1" x1="150.1" y1="136.92" x2="150.1" y2="136.92"/><line class="cls-1" x1="150.1" y1="136.92" x2="150.1" y2="136.92"/><line class="cls-1" x1="150.1" y1="136.92" x2="150.1" y2="136.92"/><line class="cls-1" x1="150.1" y1="136.92" x2="150.1" y2="136.92"/><line class="cls-1" x1="150.1" y1="136.92" x2="150.1" y2="136.92"/><line class="cls-1" x1="150.1" y1="136.92" x2="150.1" y2="136.92"/><line class="cls-1" x1="150.1" y1="136.92" x2="150.1" y2="136.92"/><line class="cls-1" x1="150.1" y1="136.92" x2="150.1" y2="136.92"/><line class="cls-1" x1="150.1" y1="136.92" x2="150.1" y2="136.92"/><line class="cls-1" x1="150.1" y1="136.92" x2="150.1" y2="136.92"/><line class="cls-1" x1="150.1" y1="136.92" x2="150.1" y2="136.92"/><line class="cls-1" x1="150.1" y1="136.92" x2="150.1" y2="136.92"/><line class="cls-1" x1="150.1" y1="136.92" x2="150.1" y2="136.92"/><line class="cls-1" x1="150.1" y1="136.92" x2="150.1" y2="136.92"/><line class="cls-1" x1="150.1" y1="136.92" x2="150.1" y2="136.92"/><line class="cls-1" x1="150.1" y1="136.92" x2="150.1" y2="136.92"/><line class="cls-1" x1="150.1" y1="136.92" x2="150.1" y2="136.92"/><line class="cls-1" x1="150.1" y1="136.92" x2="150.1" y2="136.92"/><line class="cls-1" x1="150.1" y1="136.92" x2="150.1" y2="136.92"/><line class="cls-1" x1="150.1" y1="136.92" x2="150.1" y2="136.92"/><line class="cls-1" x1="150.1" y1="136.92" x2="150.1" y2="136.92"/><line class="cls-1" x1="150.1" y1="136.92" x2="150.1" y2="136.92"/><line class="cls-1" x1="150.1" y1="136.92" x2="150.1" y2="136.92"/><line class="cls-1" x1="150.1" y1="136.92" x2="150.1" y2="136.92"/><line class="cls-1" x1="150.1" y1="136.92" x2="150.1" y2="136.92"/><line class="cls-1" x1="150.1" y1="136.92" x2="150.1" y2="136.92"/><line class="cls-1" x1="150.1" y1="136.92" x2="150.1" y2="136.92"/><line class="cls-1" x1="150.1" y1="136.92" x2="150.1" y2="136.92"/><line class="cls-1" x1="150.1" y1="136.92" x2="150.1" y2="136.92"/><line class="cls-1" x1="150.1" y1="230.34" x2="148.53" y2="230.72"/><line class="cls-1" x1="148.53" y1="230.72" x2="146.86" y2="231.26"/><line class="cls-1" x1="146.86" y1="231.26" x2="145.24" y2="230.4"/><line class="cls-1" x1="145.24" y1="230.4" x2="143.62" y2="230.4"/><line class="cls-1" x1="143.62" y1="230.4" x2="142" y2="230.29"/><line class="cls-1" x1="142" y1="230.29" x2="140.32" y2="230.13"/><line class="cls-1" x1="140.32" y1="230.13" x2="138.81" y2="229.26"/><line class="cls-1" x1="138.81" y1="229.26" x2="137.19" y2="229.05"/><line class="cls-1" x1="137.19" y1="229.05" x2="135.62" y2="228.67"/><line class="cls-1" x1="135.62" y1="228.67" x2="134.17" y2="227.54"/><line class="cls-1" x1="134.17" y1="227.54" x2="132.55" y2="227.48"/><line class="cls-1" x1="132.55" y1="227.48" x2="131.2" y2="225.97"/><line class="cls-1" x1="131.2" y1="225.97" x2="129.68" y2="225.65"/><line class="cls-1" x1="129.68" y1="225.65" x2="128.28" y2="224.51"/><line class="cls-1" x1="128.28" y1="224.51" x2="126.77" y2="224.19"/><line class="cls-1" x1="126.77" y1="224.19" x2="125.42" y2="223.05"/><line class="cls-1" x1="125.42" y1="223.05" x2="123.96" y2="222.46"/><line class="cls-1" x1="123.96" y1="222.46" x2="122.77" y2="221.11"/><line class="cls-1" x1="122.77" y1="221.11" x2="121.42" y2="220.25"/><line class="cls-1" x1="121.42" y1="220.25" x2="120.45" y2="218.46"/><line class="cls-1" x1="120.45" y1="218.46" x2="119.26" y2="217.33"/><line class="cls-1" x1="119.26" y1="217.33" x2="118.29" y2="215.82"/><line class="cls-1" x1="118.29" y1="215.82" x2="117.16" y2="214.63"/><line class="cls-1" x1="117.16" y1="214.63" x2="116.35" y2="212.85"/><line class="cls-1" x1="116.35" y1="212.85" x2="115.27" y2="211.71"/><line class="cls-1" x1="115.27" y1="211.71" x2="114.67" y2="209.66"/><line class="cls-1" x1="114.67" y1="209.66" x2="113.7" y2="208.47"/><line class="cls-1" x1="113.7" y1="208.47" x2="113.38" y2="206.04"/><line class="cls-1" x1="113.38" y1="206.04" x2="112.57" y2="204.69"/><line class="cls-1" x1="112.57" y1="204.69" x2="112.24" y2="202.53"/><line class="cls-1" x1="112.24" y1="202.53" x2="111.65" y2="200.91"/><line class="cls-1" x1="111.65" y1="200.91" x2="111.7" y2="198.38"/><line class="cls-1" x1="111.7" y1="198.38" x2="111.38" y2="196.54"/><line class="cls-1" x1="111.38" y1="196.54" x2="111.38" y2="194.33"/><line class="cls-1" x1="111.38" y1="194.33" x2="111.43" y2="192.22"/><line class="cls-1" x1="111.43" y1="192.22" x2="111.7" y2="189.79"/><line class="cls-1" x1="111.7" y1="189.79" x2="111.86" y2="187.68"/><line class="cls-1" x1="111.86" y1="187.68" x2="112.13" y2="185.52"/><line class="cls-1" x1="112.13" y1="185.52" x2="112.46" y2="183.42"/><line class="cls-1" x1="112.46" y1="183.42" x2="112.67" y2="181.53"/><line class="cls-1" x1="112.67" y1="181.53" x2="112.94" y2="179.64"/><line class="cls-1" x1="112.94" y1="179.64" x2="113.59" y2="177.48"/><line class="cls-1" x1="113.59" y1="177.48" x2="114.13" y2="175.53"/><line class="cls-1" x1="114.13" y1="175.53" x2="114.4" y2="173.91"/><line class="cls-1" x1="114.4" y1="173.91" x2="115.21" y2="171.81"/><line class="cls-1" x1="115.21" y1="171.81" x2="115.81" y2="170.08"/><line class="cls-1" x1="115.81" y1="170.08" x2="116.56" y2="168.19"/><line class="cls-1" x1="116.56" y1="168.19" x2="117.05" y2="166.68"/><line class="cls-1" x1="117.05" y1="166.68" x2="117.91" y2="164.9"/><line class="cls-1" x1="117.91" y1="164.9" x2="118.67" y2="163.33"/><line class="cls-1" x1="118.67" y1="163.33" x2="119.42" y2="161.76"/><line class="cls-1" x1="119.42" y1="161.76" x2="120.34" y2="160.14"/><line class="cls-1" x1="120.34" y1="160.14" x2="121.15" y2="158.74"/><line class="cls-1" x1="121.15" y1="158.74" x2="121.96" y2="157.34"/><line class="cls-1" x1="121.96" y1="157.34" x2="122.88" y2="155.93"/><line class="cls-1" x1="122.88" y1="155.93" x2="123.8" y2="154.64"/><line class="cls-1" x1="123.8" y1="154.64" x2="124.77" y2="153.34"/><line class="cls-1" x1="124.77" y1="153.34" x2="125.63" y2="152.15"/><line class="cls-1" x1="125.63" y1="152.15" x2="126.61" y2="151.02"/><line class="cls-1" x1="126.61" y1="151.02" x2="127.79" y2="149.78"/><line class="cls-1" x1="127.79" y1="149.78" x2="128.66" y2="148.8"/><line class="cls-1" x1="128.66" y1="148.8" x2="129.79" y2="147.67"/><line class="cls-1" x1="129.79" y1="147.67" x2="130.71" y2="146.75"/><line class="cls-1" x1="130.71" y1="146.75" x2="131.79" y2="145.83"/><line class="cls-1" x1="131.79" y1="145.83" x2="132.87" y2="144.92"/><line class="cls-1" x1="132.87" y1="144.92" x2="133.9" y2="144.11"/><line class="cls-1" x1="133.9" y1="144.11" x2="134.76" y2="143.4"/><line class="cls-1" x1="134.76" y1="143.4" x2="135.73" y2="142.7"/><line class="cls-1" x1="135.73" y1="142.7" x2="136.7" y2="142.05"/><line class="cls-1" x1="136.7" y1="142.05" x2="137.62" y2="141.41"/><line class="cls-1" x1="137.62" y1="141.41" x2="138.49" y2="140.87"/><line class="cls-1" x1="138.49" y1="140.87" x2="139.46" y2="140.33"/><line class="cls-1" x1="139.46" y1="140.33" x2="140.32" y2="139.89"/><line class="cls-1" x1="140.32" y1="139.89" x2="141.24" y2="139.41"/><line class="cls-1" x1="141.24" y1="139.41" x2="142.05" y2="139.03"/><line class="cls-1" x1="142.05" y1="139.03" x2="142.91" y2="138.71"/><line class="cls-1" x1="142.91" y1="138.71" x2="143.67" y2="138.38"/><line class="cls-1" x1="143.67" y1="138.38" x2="144.37" y2="138.11"/><line class="cls-1" x1="144.37" y1="138.11" x2="145.13" y2="137.84"/><line class="cls-1" x1="145.13" y1="137.84" x2="145.83" y2="137.63"/><line class="cls-1" x1="145.83" y1="137.63" x2="146.48" y2="137.46"/><line class="cls-1" x1="146.48" y1="137.46" x2="147.07" y2="137.3"/><line class="cls-1" x1="147.07" y1="137.3" x2="147.67" y2="137.19"/><line class="cls-1" x1="147.67" y1="137.19" x2="148.21" y2="137.09"/><line class="cls-1" x1="148.21" y1="137.09" x2="148.69" y2="136.98"/><line class="cls-1" x1="148.69" y1="136.98" x2="149.12" y2="136.92"/><line class="cls-1" x1="149.12" y1="136.92" x2="149.45" y2="136.92"/><line class="cls-1" x1="149.45" y1="136.92" x2="149.72" y2="136.92"/><line class="cls-1" x1="149.72" y1="136.92" x2="149.93" y2="136.92"/><line class="cls-1" x1="149.93" y1="136.92" x2="149.99" y2="136.92"/><line class="cls-1" x1="149.99" y1="136.92" x2="150.1" y2="136.92"/><line class="cls-1" x1="150.1" y1="136.92" x2="150.1" y2="136.92"/><line class="cls-1" x1="150.1" y1="136.92" x2="150.1" y2="136.92"/><line class="cls-1" x1="150.1" y1="136.92" x2="150.1" y2="136.92"/><line class="cls-1" x1="150.1" y1="136.92" x2="150.1" y2="136.92"/><line class="cls-1" x1="150.1" y1="136.92" x2="150.1" y2="136.92"/><line class="cls-1" x1="150.1" y1="136.92" x2="150.1" y2="136.92"/><line class="cls-1" x1="150.1" y1="136.92" x2="150.1" y2="136.92"/><line class="cls-1" x1="150.1" y1="136.92" x2="150.1" y2="136.92"/><line class="cls-1" x1="150.1" y1="136.92" x2="150.1" y2="136.92"/><line class="cls-1" x1="150.1" y1="136.92" x2="150.1" y2="136.92"/><line class="cls-1" x1="150.1" y1="136.92" x2="150.1" y2="136.92"/><line class="cls-1" x1="150.1" y1="136.92" x2="150.1" y2="136.92"/><line class="cls-1" x1="150.1" y1="136.92" x2="150.1" y2="136.92"/><line class="cls-1" x1="150.1" y1="136.92" x2="150.1" y2="136.92"/><line class="cls-1" x1="150.1" y1="136.92" x2="150.1" y2="136.92"/><line class="cls-1" x1="150.1" y1="136.92" x2="150.1" y2="136.92"/><line class="cls-1" x1="150.1" y1="136.92" x2="150.1" y2="136.92"/><line class="cls-1" x1="150.1" y1="136.92" x2="150.1" y2="136.92"/><line class="cls-1" x1="150.1" y1="136.92" x2="150.1" y2="136.92"/><line class="cls-1" x1="150.1" y1="136.92" x2="150.1" y2="136.92"/><line class="cls-1" x1="150.1" y1="136.92" x2="150.1" y2="136.92"/><line class="cls-1" x1="150.1" y1="136.92" x2="150.1" y2="136.92"/><line class="cls-1" x1="150.1" y1="136.92" x2="150.1" y2="136.92"/><line class="cls-1" x1="150.1" y1="136.92" x2="150.1" y2="136.92"/><line class="cls-1" x1="150.1" y1="136.92" x2="150.1" y2="136.92"/><line class="cls-1" x1="150.1" y1="136.92" x2="150.1" y2="136.92"/><line class="cls-1" x1="150.1" y1="136.92" x2="150.1" y2="136.92"/><line class="cls-1" x1="150.1" y1="136.92" x2="150.1" y2="136.92"/><line class="cls-1" x1="150.1" y1="136.92" x2="150.1" y2="136.92"/><line class="cls-1" x1="150.1" y1="136.92" x2="150.1" y2="136.92"/><line class="cls-1" x1="150.1" y1="136.92" x2="150.1" y2="136.92"/><line class="cls-1" x1="150.1" y1="136.92" x2="150.1" y2="136.92"/><line class="cls-1" x1="150.1" y1="136.92" x2="150.1" y2="136.92"/><line class="cls-1" x1="150.1" y1="136.92" x2="150.1" y2="136.92"/><line class="cls-1" x1="150.1" y1="136.92" x2="150.1" y2="136.92"/><line class="cls-1" x1="150.1" y1="136.92" x2="150.1" y2="136.92"/><line class="cls-1" x1="150.1" y1="136.92" x2="150.1" y2="136.92"/><line class="cls-1" x1="150.1" y1="136.92" x2="150.1" y2="136.92"/><line class="cls-1" x1="150.1" y1="136.92" x2="150.1" y2="136.92"/><line class="cls-1" x1="150.1" y1="136.92" x2="150.1" y2="136.92"/><line class="cls-1" x1="150.1" y1="136.92" x2="150.1" y2="136.92"/><line class="cls-1" x1="150.1" y1="136.92" x2="150.1" y2="136.92"/><line class="cls-1" x1="150.1" y1="136.92" x2="150.1" y2="136.92"/><line class="cls-1" x1="150.1" y1="136.92" x2="150.1" y2="136.92"/><line class="cls-1" x1="150.1" y1="136.92" x2="150.1" y2="136.92"/><line class="cls-1" x1="150.1" y1="136.92" x2="150.1" y2="136.92"/><line class="cls-1" x1="150.1" y1="136.92" x2="150.1" y2="136.92"/><line class="cls-1" x1="150.1" y1="136.92" x2="150.1" y2="136.92"/><line class="cls-1" x1="150.1" y1="136.92" x2="150.1" y2="136.92"/><line class="cls-1" x1="150.1" y1="136.92" x2="150.1" y2="136.92"/><line class="cls-1" x1="150.1" y1="136.92" x2="150.1" y2="136.92"/><line class="cls-1" x1="150.1" y1="136.92" x2="150.1" y2="136.92"/><line class="cls-1" x1="150.1" y1="136.92" x2="150.1" y2="136.92"/><line class="cls-1" x1="150.1" y1="136.92" x2="150.1" y2="136.92"/><line class="cls-1" x1="150.1" y1="136.92" x2="150.1" y2="136.92"/><line class="cls-1" x1="150.1" y1="136.92" x2="150.1" y2="136.92"/><line class="cls-1" x1="150.1" y1="136.92" x2="150.1" y2="136.92"/><line class="cls-1" x1="150.1" y1="136.92" x2="150.1" y2="136.92"/><line class="cls-1" x1="150.1" y1="136.92" x2="150.1" y2="136.92"/><line class="cls-1" x1="150.1" y1="136.92" x2="150.1" y2="136.92"/><line class="cls-1" x1="150.1" y1="136.92" x2="150.1" y2="136.92"/><line class="cls-1" x1="150.1" y1="136.92" x2="150.1" y2="136.92"/><line class="cls-1" x1="150.1" y1="136.92" x2="150.1" y2="136.92"/><line class="cls-1" x1="150.1" y1="136.92" x2="150.1" y2="136.92"/><line class="cls-1" x1="150.1" y1="136.92" x2="150.1" y2="136.92"/><line class="cls-1" x1="150.1" y1="136.92" x2="150.1" y2="136.92"/><line class="cls-1" x1="150.1" y1="136.92" x2="150.1" y2="136.92"/><line class="cls-1" x1="150.1" y1="136.92" x2="150.1" y2="136.92"/><line class="cls-1" x1="150.1" y1="136.92" x2="150.1" y2="136.92"/><line class="cls-1" x1="150.1" y1="136.92" x2="150.1" y2="136.92"/><line class="cls-1" x1="150.1" y1="136.92" x2="150.1" y2="136.92"/><line class="cls-1" x1="150.1" y1="136.92" x2="150.1" y2="136.92"/><line class="cls-1" x1="150.1" y1="136.92" x2="150.1" y2="136.92"/><line class="cls-1" x1="150.1" y1="136.92" x2="150.1" y2="136.92"/><line class="cls-1" x1="150.1" y1="136.92" x2="150.1" y2="136.92"/><line class="cls-1" x1="150.1" y1="136.92" x2="150.1" y2="136.92"/><line class="cls-1" x1="150.1" y1="136.92" x2="150.1" y2="136.92"/><line class="cls-1" x1="150.1" y1="136.92" x2="150.1" y2="136.92"/><line class="cls-1" x1="150.1" y1="136.92" x2="150.1" y2="136.92"/><line class="cls-1" x1="150.1" y1="136.92" x2="150.1" y2="136.92"/><line class="cls-1" x1="150.1" y1="136.92" x2="150.1" y2="136.92"/><line class="cls-1" x1="150.1" y1="136.92" x2="150.1" y2="136.92"/><line class="cls-1" x1="150.1" y1="136.92" x2="150.1" y2="136.92"/><line class="cls-1" x1="150.1" y1="136.92" x2="150.1" y2="136.92"/><line class="cls-1" x1="150.1" y1="136.92" x2="150.1" y2="136.92"/><line class="cls-1" x1="150.1" y1="136.92" x2="150.1" y2="136.92"/><line class="cls-1" x1="150.1" y1="136.92" x2="150.1" y2="136.92"/><line class="cls-1" x1="150.1" y1="136.92" x2="150.1" y2="136.92"/><line class="cls-1" x1="150.1" y1="136.92" x2="150.1" y2="136.92"/><line class="cls-1" x1="150.1" y1="230.34" x2="150.31" y2="230.24"/><line class="cls-1" x1="151.5" y1="229.75" x2="151.72" y2="229.64"/><line class="cls-1" x1="152.9" y1="230.02" x2="153.12" y2="230.13"/><line class="cls-1" x1="154.31" y1="229.86" x2="154.52" y2="229.8"/><line class="cls-1" x1="155.77" y1="229.7" x2="156.04" y2="229.7"/><line class="cls-1" x1="157.33" y1="229.43" x2="157.55" y2="229.32"/><line class="cls-1" x1="158.79" y1="229.21" x2="159.01" y2="229.26"/><line class="cls-1" x1="160.25" y1="229.05" x2="160.46" y2="228.89"/><line class="cls-1" x1="161.54" y1="228.24" x2="161.81" y2="228.24"/><line class="cls-1" x1="163.11" y1="228.13" x2="163.33" y2="228.02"/><line class="cls-1" x1="164.46" y1="227.48" x2="164.46" y2="227.48"/><line class="cls-1" x1="164.46" y1="227.48" x2="164.68" y2="227.32"/><line class="cls-1" x1="165.76" y1="226.67" x2="165.92" y2="226.56"/><line class="cls-1" x1="165.92" y1="226.56" x2="165.97" y2="226.56"/><line class="cls-1" x1="167.11" y1="225.97" x2="167.32" y2="225.86"/><line class="cls-1" x1="168.46" y1="225.21" x2="168.67" y2="225.11"/><line class="cls-1" x1="169.91" y1="224.84" x2="170.18" y2="224.84"/><line class="cls-1" x1="171.21" y1="224.03" x2="171.37" y2="223.86"/><line class="cls-1" x1="172.45" y1="223.16" x2="172.67" y2="223.05"/><line class="cls-1" x1="173.75" y1="222.24" x2="173.91" y2="222.03"/><line class="cls-1" x1="174.88" y1="221.11" x2="175.1" y2="220.95"/><line class="cls-1" x1="176.12" y1="220.19" x2="176.34" y2="220.08"/><line class="cls-1" x1="177.31" y1="219.27" x2="177.47" y2="219.11"/><line class="cls-1" x1="178.34" y1="218.14" x2="178.5" y2="217.98"/><line class="cls-1" x1="179.47" y1="217.11" x2="179.63" y2="216.9"/><line class="cls-1" x1="180.39" y1="215.82" x2="180.39" y2="215.82"/><line class="cls-1" x1="180.39" y1="215.82" x2="180.5" y2="215.6"/><line class="cls-1" x1="181.15" y1="214.52" x2="181.31" y2="214.31"/><line class="cls-1" x1="182.28" y1="213.39" x2="182.44" y2="213.23"/><line class="cls-1" x1="182.93" y1="212.04" x2="182.98" y2="211.82"/><line class="cls-1" x1="183.52" y1="210.69" x2="183.63" y2="210.47"/><line class="cls-1" x1="184.28" y1="209.34" x2="184.39" y2="209.12"/><line class="cls-1" x1="184.93" y1="207.99" x2="184.98" y2="207.77"/><line class="cls-1" x1="185.3" y1="206.53" x2="185.36" y2="206.31"/><line class="cls-1" x1="186.11" y1="205.29" x2="186.28" y2="205.07"/><line class="cls-1" x1="186.65" y1="203.88" x2="186.76" y2="203.67"/><line class="cls-1" x1="187.09" y1="202.43" x2="187.14" y2="202.21"/><line class="cls-1" x1="187.41" y1="200.97" x2="187.46" y2="200.75"/><line class="cls-1" x1="187.68" y1="199.51" x2="187.68" y2="199.4"/><line class="cls-1" x1="187.68" y1="199.4" x2="187.73" y2="199.29"/><line class="cls-1" x1="188" y1="198.05" x2="188.06" y2="197.84"/><line class="cls-1" x1="188.22" y1="196.59" x2="188.27" y2="196.38"/><line class="cls-1" x1="188.49" y1="195.08" x2="188.54" y2="194.87"/><line class="cls-1" x1="188.71" y1="193.62" x2="188.71" y2="193.35"/><line class="cls-1" x1="188.65" y1="192.06" x2="188.65" y2="191.9"/><line class="cls-1" x1="188.65" y1="191.9" x2="188.65" y2="191.79"/><line class="cls-1" x1="188.76" y1="190.49" x2="188.76" y2="190.22"/><line class="cls-1" x1="188.65" y1="188.93" x2="188.6" y2="188.71"/><line class="cls-1" x1="188.49" y1="187.41" x2="188.44" y2="187.2"/><line class="cls-1" x1="188.22" y1="185.96" x2="188.17" y2="185.74"/><line class="cls-1" x1="188.11" y1="184.44" x2="188.06" y2="184.23"/><line class="cls-1" x1="187.95" y1="182.93" x2="187.9" y2="182.72"/><line class="cls-1" x1="187.73" y1="181.42" x2="187.73" y2="181.15"/><line class="cls-1" x1="187.57" y1="179.91" x2="187.52" y2="179.69"/><line class="cls-1" x1="187.3" y1="178.4" x2="187.3" y2="178.23"/><line class="cls-1" x1="187.3" y1="178.23" x2="187.25" y2="178.13"/><line class="cls-1" x1="186.92" y1="176.88" x2="186.87" y2="176.67"/><line class="cls-1" x1="186.55" y1="175.43" x2="186.44" y2="175.21"/><line class="cls-1" x1="186.11" y1="173.97" x2="186.06" y2="173.75"/><line class="cls-1" x1="185.63" y1="172.56" x2="185.57" y2="172.35"/><line class="cls-1" x1="185.2" y1="171.16" x2="185.09" y2="170.94"/><line class="cls-1" x1="184.71" y1="169.76" x2="184.66" y2="169.54"/><line class="cls-1" x1="184.22" y1="168.35" x2="184.12" y2="168.14"/><line class="cls-1" x1="183.63" y1="167" x2="183.52" y2="166.79"/><line class="cls-1" x1="182.98" y1="165.65" x2="182.87" y2="165.44"/><line class="cls-1" x1="182.44" y1="164.25" x2="182.39" y2="164.03"/><line class="cls-1" x1="181.74" y1="162.9" x2="181.63" y2="162.68"/><line class="cls-1" x1="181.04" y1="161.6" x2="180.88" y2="161.39"/><line class="cls-1" x1="180.28" y1="160.25" x2="180.17" y2="160.04"/><line class="cls-1" x1="179.58" y1="158.9" x2="179.42" y2="158.69"/><line class="cls-1" x1="178.72" y1="157.61" x2="178.55" y2="157.39"/><line class="cls-1" x1="177.8" y1="156.31" x2="177.8" y2="156.31"/><line class="cls-1" x1="177.8" y1="156.31" x2="177.64" y2="156.09"/><line class="cls-1" x1="176.99" y1="155.01" x2="176.93" y2="154.96"/><line class="cls-1" x1="176.93" y1="154.96" x2="176.83" y2="154.85"/><line class="cls-1" x1="176.02" y1="153.83" x2="175.85" y2="153.61"/><line class="cls-1" x1="174.99" y1="152.58" x2="174.83" y2="152.37"/><line class="cls-1" x1="174.02" y1="151.34" x2="173.86" y2="151.13"/><line class="cls-1" x1="172.99" y1="150.15" x2="172.83" y2="149.99"/><line class="cls-1" x1="171.91" y1="149.07" x2="171.75" y2="148.91"/><line class="cls-1" x1="170.83" y1="147.99" x2="170.67" y2="147.83"/><line class="cls-1" x1="169.7" y1="146.91" x2="169.54" y2="146.75"/><line class="cls-1" x1="168.56" y1="145.89" x2="168.56" y2="145.89"/><line class="cls-1" x1="168.56" y1="145.89" x2="168.35" y2="145.73"/><line class="cls-1" x1="167.32" y1="144.86" x2="167.11" y2="144.7"/><line class="cls-1" x1="166.08" y1="143.84" x2="165.86" y2="143.67"/><line class="cls-1" x1="164.84" y1="142.92" x2="164.62" y2="142.76"/><line class="cls-1" x1="163.54" y1="142.05" x2="163.54" y2="142.05"/><line class="cls-1" x1="163.54" y1="142.05" x2="163.33" y2="141.89"/><line class="cls-1" x1="162.25" y1="141.19" x2="162.03" y2="141.08"/><line class="cls-1" x1="160.95" y1="140.43" x2="160.73" y2="140.33"/><line class="cls-1" x1="159.6" y1="139.73" x2="159.38" y2="139.62"/><line class="cls-1" x1="158.25" y1="139.14" x2="158.03" y2="139.03"/><line class="cls-1" x1="156.9" y1="138.49" x2="156.68" y2="138.44"/><line class="cls-1" x1="155.5" y1="137.95" x2="155.28" y2="137.9"/><line class="cls-1" x1="154.04" y1="137.57" x2="153.82" y2="137.52"/><line class="cls-1" x1="152.58" y1="137.19" x2="152.47" y2="137.14"/><line class="cls-1" x1="152.47" y1="137.14" x2="152.36" y2="137.14"/><line class="cls-1" x1="151.12" y1="136.92" x2="151.12" y2="136.92"/><line class="cls-1" x1="151.12" y1="136.92" x2="150.85" y2="136.92"/><line class="cls-1" x1="149.56" y1="230.13" x2="149.34" y2="230.02"/><line class="cls-1" x1="148.21" y1="229.75" x2="147.99" y2="229.8"/><line class="cls-1" x1="146.8" y1="230.13" x2="146.59" y2="230.07"/><line class="cls-1" x1="145.4" y1="229.7" x2="145.29" y2="229.64"/><line class="cls-1" x1="145.29" y1="229.64" x2="145.18" y2="229.64"/><line class="cls-1" x1="143.89" y1="229.7" x2="143.67" y2="229.7"/><line class="cls-1" x1="143.67" y1="229.7" x2="143.62" y2="229.7"/><line class="cls-1" x1="142.43" y1="229.21" x2="142.21" y2="229.16"/><line class="cls-1" x1="140.97" y1="229.26" x2="140.75" y2="229.32"/><line class="cls-1" x1="139.62" y1="228.78" x2="139.46" y2="228.62"/><line class="cls-1" x1="138.27" y1="228.24" x2="138.05" y2="228.18"/><line class="cls-1" x1="136.76" y1="227.91" x2="136.54" y2="227.81"/><line class="cls-1" x1="135.41" y1="227.27" x2="135.19" y2="227.1"/><line class="cls-1" x1="134.11" y1="226.46" x2="133.9" y2="226.35"/><line class="cls-1" x1="132.76" y1="225.81" x2="132.55" y2="225.65"/><line class="cls-1" x1="131.41" y1="225" x2="131.41" y2="225"/><line class="cls-1" x1="131.41" y1="225" x2="131.2" y2="224.94"/><line class="cls-1" x1="129.9" y1="224.78" x2="129.85" y2="224.78"/><line class="cls-1" x1="129.85" y1="224.78" x2="129.68" y2="224.62"/><line class="cls-1" x1="128.71" y1="223.7" x2="128.55" y2="223.54"/><line class="cls-1" x1="127.42" y1="223" x2="127.2" y2="222.89"/><line class="cls-1" x1="126.28" y1="221.97" x2="126.12" y2="221.81"/><line class="cls-1" x1="125.15" y1="220.95" x2="124.99" y2="220.79"/><line class="cls-1" x1="123.96" y1="220.08" x2="123.74" y2="219.98"/><line class="cls-1" x1="122.77" y1="219.11" x2="122.61" y2="218.9"/><line class="cls-1" x1="121.69" y1="217.92" x2="121.48" y2="217.76"/><line class="cls-1" x1="120.56" y1="216.84" x2="120.45" y2="216.63"/><line class="cls-1" x1="119.75" y1="215.6" x2="119.59" y2="215.39"/><line class="cls-1" x1="118.94" y1="214.31" x2="118.88" y2="214.2"/><line class="cls-1" x1="118.88" y1="214.2" x2="118.78" y2="214.09"/><line class="cls-1" x1="117.8" y1="213.23" x2="117.75" y2="213.17"/><line class="cls-1" x1="117.75" y1="213.17" x2="117.7" y2="213.01"/><line class="cls-1" x1="117.26" y1="211.82" x2="117.16" y2="211.61"/><line class="cls-1" x1="116.62" y1="210.47" x2="116.51" y2="210.26"/><line class="cls-1" x1="115.91" y1="209.18" x2="115.75" y2="208.96"/><line class="cls-1" x1="115.27" y1="207.83" x2="115.21" y2="207.61"/><line class="cls-1" x1="114.89" y1="206.37" x2="114.83" y2="206.21"/><line class="cls-1" x1="114.83" y1="206.21" x2="114.78" y2="206.15"/><line class="cls-1" x1="114.02" y1="205.13" x2="113.92" y2="205.02"/><line class="cls-1" x1="113.92" y1="205.02" x2="113.86" y2="204.91"/><line class="cls-1" x1="113.48" y1="203.67" x2="113.43" y2="203.45"/><line class="cls-1" x1="113.11" y1="202.21" x2="113.05" y2="201.99"/><line class="cls-1" x1="112.78" y1="200.75" x2="112.73" y2="200.54"/><line class="cls-1" x1="112.51" y1="199.24" x2="112.46" y2="199.02"/><line class="cls-1" x1="112.13" y1="197.78" x2="112.13" y2="197.73"/><line class="cls-1" x1="112.13" y1="197.73" x2="112.13" y2="197.51"/><line class="cls-1" x1="111.97" y1="196.22" x2="111.92" y2="195.95"/><line class="cls-1" x1="111.7" y1="194.7" x2="111.65" y2="194.49"/><line class="cls-1" x1="111.54" y1="193.19" x2="111.59" y2="192.98"/><line class="cls-1" x1="111.59" y1="191.63" x2="111.54" y2="191.41"/><line class="cls-1" x1="111.49" y1="190.11" x2="111.49" y2="190.06"/><line class="cls-1" x1="111.49" y1="190.06" x2="111.49" y2="189.84"/><line class="cls-1" x1="111.65" y1="188.55" x2="111.65" y2="188.28"/><line class="cls-1" x1="111.86" y1="187.04" x2="111.86" y2="186.77"/><line class="cls-1" x1="112.08" y1="185.52" x2="112.08" y2="185.25"/><line class="cls-1" x1="112.19" y1="183.96" x2="112.19" y2="183.8"/><line class="cls-1" x1="112.19" y1="183.8" x2="112.19" y2="183.69"/><line class="cls-1" x1="112.4" y1="182.39" x2="112.4" y2="182.12"/><line class="cls-1" x1="112.57" y1="180.83" x2="112.62" y2="180.61"/><line class="cls-1" x1="112.78" y1="179.31" x2="112.84" y2="179.1"/><line class="cls-1" x1="113.05" y1="177.8" x2="113.11" y2="177.59"/><line class="cls-1" x1="113.48" y1="176.4" x2="113.54" y2="176.18"/><line class="cls-1" x1="113.86" y1="174.94" x2="113.92" y2="174.72"/><line class="cls-1" x1="114.29" y1="173.48" x2="114.35" y2="173.27"/><line class="cls-1" x1="114.78" y1="172.08" x2="114.83" y2="171.86"/><line class="cls-1" x1="115.21" y1="170.67" x2="115.27" y2="170.57"/><line class="cls-1" x1="115.27" y1="170.57" x2="115.32" y2="170.46"/><line class="cls-1" x1="115.7" y1="169.27" x2="115.75" y2="169.05"/><line class="cls-1" x1="116.24" y1="167.87" x2="116.35" y2="167.65"/><line class="cls-1" x1="116.89" y1="166.52" x2="116.94" y2="166.3"/><line class="cls-1" x1="117.43" y1="165.17" x2="117.53" y2="164.95"/><line class="cls-1" x1="118.02" y1="163.76" x2="118.13" y2="163.55"/><line class="cls-1" x1="118.78" y1="162.47" x2="118.88" y2="162.25"/><line class="cls-1" x1="119.48" y1="161.12" x2="119.59" y2="160.9"/><line class="cls-1" x1="120.18" y1="159.77" x2="120.29" y2="159.55"/><line class="cls-1" x1="120.94" y1="158.47" x2="121.1" y2="158.25"/><line class="cls-1" x1="121.85" y1="157.17" x2="122.02" y2="156.96"/><line class="cls-1" x1="122.72" y1="155.88" x2="122.88" y2="155.66"/><line class="cls-1" x1="123.64" y1="154.58" x2="123.8" y2="154.37"/><line class="cls-1" x1="124.61" y1="153.34" x2="124.77" y2="153.18"/><line class="cls-1" x1="125.58" y1="152.15" x2="125.74" y2="151.99"/><line class="cls-1" x1="126.55" y1="150.96" x2="126.71" y2="150.75"/><line class="cls-1" x1="127.63" y1="149.78" x2="127.79" y2="149.61"/><line class="cls-1" x1="128.71" y1="148.7" x2="128.87" y2="148.53"/><line class="cls-1" x1="129.79" y1="147.62" x2="129.95" y2="147.45"/><line class="cls-1" x1="130.93" y1="146.54" x2="131.14" y2="146.37"/><line class="cls-1" x1="132.11" y1="145.56" x2="132.28" y2="145.4"/><line class="cls-1" x1="133.3" y1="144.59" x2="133.52" y2="144.43"/><line class="cls-1" x1="134.49" y1="143.57" x2="134.6" y2="143.46"/><line class="cls-1" x1="134.6" y1="143.46" x2="134.65" y2="143.4"/><line class="cls-1" x1="135.73" y1="142.7" x2="135.73" y2="142.7"/><line class="cls-1" x1="135.73" y1="142.7" x2="135.95" y2="142.54"/><line class="cls-1" x1="137.03" y1="141.84" x2="137.24" y2="141.68"/><line class="cls-1" x1="138.32" y1="140.97" x2="138.54" y2="140.87"/><line class="cls-1" x1="139.67" y1="140.22" x2="139.89" y2="140.11"/><line class="cls-1" x1="141.02" y1="139.57" x2="141.24" y2="139.46"/><line class="cls-1" x1="142.37" y1="138.92" x2="142.59" y2="138.81"/><line class="cls-1" x1="143.78" y1="138.33" x2="143.78" y2="138.33"/><line class="cls-1" x1="143.78" y1="138.33" x2="143.99" y2="138.22"/><line class="cls-1" x1="145.18" y1="137.84" x2="145.18" y2="137.84"/><line class="cls-1" x1="145.18" y1="137.84" x2="145.4" y2="137.79"/><line class="cls-1" x1="146.64" y1="137.46" x2="146.86" y2="137.41"/><line class="cls-1" x1="148.1" y1="137.09" x2="148.26" y2="137.09"/><line class="cls-1" x1="148.26" y1="137.09" x2="148.37" y2="137.09"/><line class="cls-1" x1="149.61" y1="136.92" x2="149.72" y2="136.92"/><line class="cls-1" x1="149.72" y1="136.92" x2="149.88" y2="136.92"/></g></g></svg>