<svg xmlns="http://www.w3.org/2000/svg" viewBox="0 0 300 263"><defs><style>.cls-1,.cls-2,.cls-3,.cls-4{fill:none;stroke-linecap:round;}.cls-1,.cls-2{stroke:red;}.cls-1,.cls-2,.cls-4{stroke-linejoin:round;}.cls-1,.cls-3,.cls-4{stroke-width:0.6px;}.cls-3,.cls-4{stroke:#000;}.cls-3{stroke-miterlimit:10;}</style></defs><title>kelvin-edge-desk-support-hidden-cable-citterio-flos-F34560-curva-fotometrica-01</title><g id="numeri_esterni_diagramma" data-name="numeri esterni diagramma"><path d="M148.27,239.2a6.85,6.85,0,0,1,.08-1,3.41,3.41,0,0,1,.3-.95,1.94,1.94,0,0,1,.59-.71,1.57,1.57,0,0,1,.95-.27,1.6,1.6,0,0,1,1,.27,2,2,0,0,1,.59.71,3.1,3.1,0,0,1,.29.95,5.7,5.7,0,0,1,.08,1,5.85,5.85,0,0,1-.08,1,3.13,3.13,0,0,1-.29.94,2,2,0,0,1-.59.71,1.6,1.6,0,0,1-1,.27,1.57,1.57,0,0,1-.95-.27,1.94,1.94,0,0,1-.59-.71,3.45,3.45,0,0,1-.3-.94A7.07,7.07,0,0,1,148.27,239.2Zm.68,0c0,.13,0,.29,0,.46a4.88,4.88,0,0,0,.06.52,2.83,2.83,0,0,0,.13.5,1.65,1.65,0,0,0,.22.44,1.24,1.24,0,0,0,.34.31,1,1,0,0,0,.48.12.9.9,0,0,0,.48-.12,1,1,0,0,0,.34-.31,1.41,1.41,0,0,0,.23-.44,4.07,4.07,0,0,0,.13-.5c0-.18,0-.35.06-.52s0-.33,0-.46,0-.3,0-.47,0-.34-.06-.51a3.8,3.8,0,0,0-.13-.51,1.53,1.53,0,0,0-.23-.44,1,1,0,0,0-.34-.31.9.9,0,0,0-.48-.12,1,1,0,0,0-.48.12,1.24,1.24,0,0,0-.34.31,1.81,1.81,0,0,0-.22.44,2.72,2.72,0,0,0-.13.51,4.43,4.43,0,0,0-.06.51C149,238.9,149,239.06,149,239.2Z"/><path d="M152.83,237.41a1.33,1.33,0,0,1,.08-.45,1.11,1.11,0,0,1,.25-.36,1,1,0,0,1,.36-.24,1.17,1.17,0,0,1,.9,0,1,1,0,0,1,.36.24,1.11,1.11,0,0,1,.25.36,1.31,1.31,0,0,1,0,.9,1.23,1.23,0,0,1-.61.61,1.17,1.17,0,0,1-.9,0,1.23,1.23,0,0,1-.61-.61A1.33,1.33,0,0,1,152.83,237.41Zm.43,0a.79.79,0,0,0,.05.25.68.68,0,0,0,.14.23.66.66,0,0,0,.23.17.73.73,0,0,0,.58,0,.76.76,0,0,0,.23-.17.88.88,0,0,0,.14-.23.65.65,0,0,0,0-.5,1.09,1.09,0,0,0-.14-.23,1,1,0,0,0-.23-.17.73.73,0,0,0-.58,0,.81.81,0,0,0-.23.17.75.75,0,0,0-.19.48Z"/><path d="M203.17,238.76h.21l.43,0a1.15,1.15,0,0,0,.42-.13.77.77,0,0,0,.31-.31.94.94,0,0,0,.13-.51.87.87,0,0,0-.27-.68,1,1,0,0,0-.7-.26,1.28,1.28,0,0,0-.63.16,1.14,1.14,0,0,0-.41.48l-.65-.25a1.48,1.48,0,0,1,.65-.72,2.07,2.07,0,0,1,1-.24,2.25,2.25,0,0,1,.64.09,1.72,1.72,0,0,1,.54.28,1.37,1.37,0,0,1,.37.46,1.48,1.48,0,0,1,.14.65,1.29,1.29,0,0,1-.27.8,1.34,1.34,0,0,1-.7.49v0a1.48,1.48,0,0,1,.85.49,1.37,1.37,0,0,1,.23.43,1.69,1.69,0,0,1,.08.5,1.66,1.66,0,0,1-.15.72,1.57,1.57,0,0,1-.41.51,1.71,1.71,0,0,1-.6.31,2.34,2.34,0,0,1-.71.1,2.18,2.18,0,0,1-1.13-.28,1.61,1.61,0,0,1-.7-.91l.68-.22a1.33,1.33,0,0,0,.41.65,1.3,1.3,0,0,0,.74.19,1.33,1.33,0,0,0,.45-.08,1.11,1.11,0,0,0,.36-.23,1.24,1.24,0,0,0,.25-.35,1.13,1.13,0,0,0,.09-.45,1.07,1.07,0,0,0-.12-.53,1,1,0,0,0-.33-.33,1.23,1.23,0,0,0-.46-.18,2.31,2.31,0,0,0-.52-.06h-.21Z"/><path d="M206.24,239.2a6.85,6.85,0,0,1,.08-1,3.11,3.11,0,0,1,.3-.95,1.94,1.94,0,0,1,.59-.71,1.55,1.55,0,0,1,.95-.27,1.6,1.6,0,0,1,1,.27,2,2,0,0,1,.59.71,3.1,3.1,0,0,1,.29.95,5.7,5.7,0,0,1,.08,1,5.85,5.85,0,0,1-.08,1,3.13,3.13,0,0,1-.29.94,2,2,0,0,1-.59.71,1.6,1.6,0,0,1-1,.27,1.55,1.55,0,0,1-.95-.27,1.94,1.94,0,0,1-.59-.71,3.14,3.14,0,0,1-.3-.94A7.07,7.07,0,0,1,206.24,239.2Zm.67,0c0,.13,0,.29,0,.46a4.88,4.88,0,0,0,.06.52,2.83,2.83,0,0,0,.13.5,1.4,1.4,0,0,0,.22.44,1.24,1.24,0,0,0,.34.31,1,1,0,0,0,.48.12.9.9,0,0,0,.48-.12,1,1,0,0,0,.34-.31,1.41,1.41,0,0,0,.23-.44,4.05,4.05,0,0,0,.12-.5,4.88,4.88,0,0,0,.06-.52,3.86,3.86,0,0,0,0-.46,3.94,3.94,0,0,0,0-.47,4.43,4.43,0,0,0-.06-.51,3.81,3.81,0,0,0-.12-.51,1.53,1.53,0,0,0-.23-.44,1,1,0,0,0-.34-.31.9.9,0,0,0-.48-.12,1,1,0,0,0-.48.12,1.24,1.24,0,0,0-.34.31,1.51,1.51,0,0,0-.22.44,2.72,2.72,0,0,0-.13.51,4.43,4.43,0,0,0-.06.51C206.92,238.9,206.91,239.06,206.91,239.2Z"/><path d="M210.84,237.41a1.13,1.13,0,0,1,.09-.45,1.26,1.26,0,0,1,.24-.36,1.2,1.2,0,0,1,.82-.33,1,1,0,0,1,.44.09,1.12,1.12,0,0,1,.37.24,1.26,1.26,0,0,1,.24.36,1.16,1.16,0,0,1-.24,1.26,1.15,1.15,0,0,1-.37.25,1,1,0,0,1-.44.09,1.13,1.13,0,0,1-.45-.09,1.15,1.15,0,0,1-.37-.25,1.15,1.15,0,0,1-.33-.81Zm.43,0a.61.61,0,0,0,.06.25.68.68,0,0,0,.14.23.72.72,0,0,0,.22.17.73.73,0,0,0,.3.06.72.72,0,0,0,.29-.06.62.62,0,0,0,.22-.17.91.91,0,0,0,.15-.23.65.65,0,0,0,0-.5,1.14,1.14,0,0,0-.15-.23.76.76,0,0,0-.22-.17.72.72,0,0,0-.29-.06.73.73,0,0,0-.3.06.92.92,0,0,0-.22.17.79.79,0,0,0-.14.23A.61.61,0,0,0,211.27,237.41Z"/><path d="M93.6,238.76h.21l.44,0a1.1,1.1,0,0,0,.41-.13.86.86,0,0,0,.32-.31.94.94,0,0,0,.12-.51.87.87,0,0,0-.27-.68,1,1,0,0,0-.7-.26,1.21,1.21,0,0,0-.62.16,1.1,1.1,0,0,0-.42.48l-.65-.25a1.45,1.45,0,0,1,.66-.72,2,2,0,0,1,1-.24,2.32,2.32,0,0,1,.65.09,2,2,0,0,1,.54.28,1.67,1.67,0,0,1,.37.46,1.48,1.48,0,0,1,.13.65,1.29,1.29,0,0,1-.27.8,1.34,1.34,0,0,1-.7.49v0a1.31,1.31,0,0,1,.49.18,1.34,1.34,0,0,1,.36.31,1.37,1.37,0,0,1,.23.43,1.42,1.42,0,0,1,.08.5,1.66,1.66,0,0,1-.15.72,1.57,1.57,0,0,1-.41.51,1.75,1.75,0,0,1-.59.31,2.46,2.46,0,0,1-.72.1,2.18,2.18,0,0,1-1.13-.28,1.56,1.56,0,0,1-.69-.91l.68-.22a1.2,1.2,0,0,0,.41.65,1.27,1.27,0,0,0,.73.19,1.33,1.33,0,0,0,.45-.08,1.11,1.11,0,0,0,.36-.23,1.07,1.07,0,0,0,.25-.35,1.13,1.13,0,0,0,.09-.45,1.07,1.07,0,0,0-.12-.53.87.87,0,0,0-.33-.33,1.17,1.17,0,0,0-.46-.18,2.24,2.24,0,0,0-.52-.06H93.6Z"/><path d="M96.68,239.2a5.7,5.7,0,0,1,.08-1,3.1,3.1,0,0,1,.29-.95,2,2,0,0,1,.59-.71,1.6,1.6,0,0,1,1-.27,1.57,1.57,0,0,1,1,.27,1.94,1.94,0,0,1,.59.71,3.41,3.41,0,0,1,.3.95,6.85,6.85,0,0,1,.08,1,7.07,7.07,0,0,1-.08,1,3.45,3.45,0,0,1-.3.94,1.94,1.94,0,0,1-.59.71,1.57,1.57,0,0,1-1,.27,1.6,1.6,0,0,1-1-.27,2,2,0,0,1-.59-.71,3.13,3.13,0,0,1-.29-.94A5.85,5.85,0,0,1,96.68,239.2Zm.67,0c0,.13,0,.29,0,.46a4.88,4.88,0,0,0,.06.52,4.07,4.07,0,0,0,.13.5,1.41,1.41,0,0,0,.23.44,1,1,0,0,0,.34.31.9.9,0,0,0,.48.12,1,1,0,0,0,.48-.12,1.24,1.24,0,0,0,.34-.31,1.65,1.65,0,0,0,.22-.44,2.83,2.83,0,0,0,.13-.5,4.88,4.88,0,0,0,.06-.52c0-.17,0-.33,0-.46s0-.3,0-.47a4.43,4.43,0,0,0-.06-.51,2.72,2.72,0,0,0-.13-.51,1.81,1.81,0,0,0-.22-.44,1.24,1.24,0,0,0-.34-.31,1,1,0,0,0-.48-.12.9.9,0,0,0-.48.12,1,1,0,0,0-.34.31,1.53,1.53,0,0,0-.23.44,3.8,3.8,0,0,0-.13.51,4.43,4.43,0,0,0-.06.51C97.35,238.9,97.35,239.06,97.35,239.2Z"/><path d="M101.28,237.41a1.33,1.33,0,0,1,.08-.45,1.11,1.11,0,0,1,.25-.36,1,1,0,0,1,.36-.24,1.17,1.17,0,0,1,.9,0,1,1,0,0,1,.36.24,1.11,1.11,0,0,1,.25.36,1.31,1.31,0,0,1,0,.9,1.23,1.23,0,0,1-.61.61,1.17,1.17,0,0,1-.9,0,1.23,1.23,0,0,1-.61-.61A1.33,1.33,0,0,1,101.28,237.41Zm.43,0a.79.79,0,0,0,.05.25.68.68,0,0,0,.14.23.76.76,0,0,0,.23.17.73.73,0,0,0,.58,0,.66.66,0,0,0,.23-.17.68.68,0,0,0,.14-.23.71.71,0,0,0-.14-.73.81.81,0,0,0-.23-.17.73.73,0,0,0-.58,0,1,1,0,0,0-.23.17.75.75,0,0,0-.19.48Z"/><path d="M249.93,137.18h0a1.24,1.24,0,0,1-.37.12,1.84,1.84,0,0,1-.39,0,1.91,1.91,0,0,1-.68-.12,1.58,1.58,0,0,1-.54-.37,1.63,1.63,0,0,1-.36-.56,2.05,2.05,0,0,1-.13-.72,1.79,1.79,0,0,1,.15-.75,1.48,1.48,0,0,1,.4-.55,1.79,1.79,0,0,1,.6-.35,2,2,0,0,1,.75-.13,2.11,2.11,0,0,1,.75.13,1.79,1.79,0,0,1,.6.35,1.59,1.59,0,0,1,.4.55,1.79,1.79,0,0,1,.14.75,2.15,2.15,0,0,1,0,.45,1.68,1.68,0,0,1-.11.4,2.59,2.59,0,0,1-.17.38l-.21.36-1.51,2.39h-.78Zm-.59-.42a1.28,1.28,0,0,0,.48-.09,1,1,0,0,0,.39-.24,1.23,1.23,0,0,0,.26-.37,1.43,1.43,0,0,0,0-1,1.1,1.1,0,0,0-.65-.62,1.48,1.48,0,0,0-1,0,1.28,1.28,0,0,0-.39.24,1.12,1.12,0,0,0-.26.38,1.3,1.3,0,0,0,0,1,1.08,1.08,0,0,0,.26.37,1,1,0,0,0,.39.24A1.28,1.28,0,0,0,249.34,136.76Z"/><path d="M251.82,136.71a7.07,7.07,0,0,1,.08-1,3.19,3.19,0,0,1,.29-1,2,2,0,0,1,.59-.7,1.54,1.54,0,0,1,1-.28,1.49,1.49,0,0,1,.95.28,1.91,1.91,0,0,1,.59.7,2.94,2.94,0,0,1,.3,1,6.29,6.29,0,0,1,0,2,2.94,2.94,0,0,1-.3.95,1.91,1.91,0,0,1-.59.7,1.49,1.49,0,0,1-.95.28,1.54,1.54,0,0,1-1-.28,2,2,0,0,1-.59-.7,3.19,3.19,0,0,1-.29-.95A7.07,7.07,0,0,1,251.82,136.71Zm.67,0c0,.14,0,.29,0,.46a4.6,4.6,0,0,0,.06.52,4.7,4.7,0,0,0,.12.51,2,2,0,0,0,.23.44,1,1,0,0,0,.34.31,1,1,0,0,0,.48.11,1.06,1.06,0,0,0,.48-.11,1.24,1.24,0,0,0,.34-.31,1.65,1.65,0,0,0,.22-.44,3.18,3.18,0,0,0,.13-.51,4.6,4.6,0,0,0,.06-.52c0-.17,0-.32,0-.46s0-.29,0-.46a4.6,4.6,0,0,0-.06-.52,3.18,3.18,0,0,0-.13-.51,1.65,1.65,0,0,0-.22-.44,1.24,1.24,0,0,0-.34-.31,1.06,1.06,0,0,0-.48-.11,1,1,0,0,0-.48.11,1,1,0,0,0-.34.31,2,2,0,0,0-.23.44,4.7,4.7,0,0,0-.12.51,4.6,4.6,0,0,0-.06.52C252.5,136.42,252.49,136.57,252.49,136.71Z"/><path d="M256.42,134.93a1.13,1.13,0,0,1,.09-.45,1.31,1.31,0,0,1,.24-.37,1.18,1.18,0,0,1,.37-.24,1,1,0,0,1,.44-.09,1.13,1.13,0,0,1,.45.09,1.06,1.06,0,0,1,.61.61,1.13,1.13,0,0,1,.09.45,1,1,0,0,1-.09.44,1.06,1.06,0,0,1-.61.61,1.13,1.13,0,0,1-.45.09,1,1,0,0,1-.44-.09,1.18,1.18,0,0,1-.37-.24,1.31,1.31,0,0,1-.24-.37A1,1,0,0,1,256.42,134.93Zm.43,0a.69.69,0,0,0,0,.24,1,1,0,0,0,.15.24.73.73,0,0,0,.51.23.54.54,0,0,0,.29-.07.63.63,0,0,0,.23-.16.72.72,0,0,0,.14-.24.52.52,0,0,0,0-.24.56.56,0,0,0,0-.25.59.59,0,0,0-.14-.23.74.74,0,0,0-.52-.24.73.73,0,0,0-.29.07.62.62,0,0,0-.22.17.76.76,0,0,0-.15.23A.74.74,0,0,0,256.85,134.93Z"/><path d="M41.57,137.18h0a1.34,1.34,0,0,1-.37.12,2,2,0,0,1-.39,0,1.92,1.92,0,0,1-.69-.12,1.58,1.58,0,0,1-.54-.37,1.8,1.8,0,0,1-.36-.56,2.05,2.05,0,0,1-.13-.72,1.79,1.79,0,0,1,.15-.75,1.48,1.48,0,0,1,.4-.55,1.79,1.79,0,0,1,.6-.35,2.23,2.23,0,0,1,1.5,0,1.79,1.79,0,0,1,.6.35,1.48,1.48,0,0,1,.4.55,1.79,1.79,0,0,1,.15.75,3.14,3.14,0,0,1,0,.45,2.34,2.34,0,0,1-.12.4,1.84,1.84,0,0,1-.17.38,3.35,3.35,0,0,1-.21.36l-1.5,2.39h-.79Zm-.59-.42a1.28,1.28,0,0,0,.48-.09,1,1,0,0,0,.39-.24,1.23,1.23,0,0,0,.26-.37,1.3,1.3,0,0,0,0-1,1.1,1.1,0,0,0-.65-.62,1.48,1.48,0,0,0-1,0,1.1,1.1,0,0,0-.65.62,1.43,1.43,0,0,0,0,1,1.23,1.23,0,0,0,.26.37,1,1,0,0,0,.39.24A1.28,1.28,0,0,0,41,136.76Z"/><path d="M43.46,136.71a7.07,7.07,0,0,1,.08-1,2.94,2.94,0,0,1,.3-1,1.91,1.91,0,0,1,.59-.7,1.49,1.49,0,0,1,1-.28,1.54,1.54,0,0,1,1,.28,2,2,0,0,1,.59.7,3.19,3.19,0,0,1,.29,1,6.29,6.29,0,0,1,0,2,3.19,3.19,0,0,1-.29.95,2,2,0,0,1-.59.7,1.54,1.54,0,0,1-1,.28,1.49,1.49,0,0,1-1-.28,1.91,1.91,0,0,1-.59-.7,2.94,2.94,0,0,1-.3-.95A7.07,7.07,0,0,1,43.46,136.71Zm.67,0c0,.14,0,.29,0,.46a4.6,4.6,0,0,0,.06.52,3.18,3.18,0,0,0,.13.51,1.65,1.65,0,0,0,.22.44,1.12,1.12,0,0,0,.34.31,1.1,1.1,0,0,0,1,0,1.12,1.12,0,0,0,.34-.31,2,2,0,0,0,.23-.44,4.7,4.7,0,0,0,.12-.51,4.6,4.6,0,0,0,.06-.52c0-.17,0-.32,0-.46s0-.29,0-.46a4.6,4.6,0,0,0-.06-.52,4.7,4.7,0,0,0-.12-.51,2,2,0,0,0-.23-.44,1.12,1.12,0,0,0-.34-.31,1.1,1.1,0,0,0-1,0,1.12,1.12,0,0,0-.34.31,1.65,1.65,0,0,0-.22.44,3.18,3.18,0,0,0-.13.51,4.6,4.6,0,0,0-.06.52C44.14,136.42,44.13,136.57,44.13,136.71Z"/><path d="M48.06,134.93a1.13,1.13,0,0,1,.09-.45,1.06,1.06,0,0,1,.61-.61,1.13,1.13,0,0,1,.45-.09,1.08,1.08,0,0,1,.44.09,1.06,1.06,0,0,1,.61.61,1.13,1.13,0,0,1,.09.45,1,1,0,0,1-.09.44,1.06,1.06,0,0,1-.61.61,1.08,1.08,0,0,1-.44.09,1.13,1.13,0,0,1-.45-.09,1.06,1.06,0,0,1-.61-.61A1,1,0,0,1,48.06,134.93Zm.43,0a.53.53,0,0,0,.06.24.72.72,0,0,0,.14.24.69.69,0,0,0,.22.16.6.6,0,0,0,.3.07.73.73,0,0,0,.51-.23,1,1,0,0,0,.15-.24.69.69,0,0,0,.05-.24.74.74,0,0,0-.05-.25.76.76,0,0,0-.15-.23.62.62,0,0,0-.22-.17.73.73,0,0,0-.29-.07.73.73,0,0,0-.3.07.72.72,0,0,0-.22.17.59.59,0,0,0-.14.23A.57.57,0,0,0,48.49,134.93Z"/><path d="M148.37,38.51h-.68v-4.8h0l-1,.85-.4-.48,1.52-1.24h.59Z"/><path d="M150.49,34.23a1.48,1.48,0,0,1,.13-.61,1.2,1.2,0,0,1,.34-.46,1.44,1.44,0,0,1,.51-.3,1.92,1.92,0,0,1,1.28,0,1.44,1.44,0,0,1,.51.3,1.2,1.2,0,0,1,.34.46,1.33,1.33,0,0,1,.13.61,1.16,1.16,0,0,1-.07.4,1.41,1.41,0,0,1-.18.37,1.33,1.33,0,0,1-.29.29,1.18,1.18,0,0,1-.39.19h0a1.44,1.44,0,0,1,.46.19,1.35,1.35,0,0,1,.35.32,1.42,1.42,0,0,1,.23.44,1.7,1.7,0,0,1,.08.51,1.74,1.74,0,0,1-.14.69,1.43,1.43,0,0,1-.39.52,1.47,1.47,0,0,1-.57.33,2.35,2.35,0,0,1-1.42,0,1.47,1.47,0,0,1-.57-.33,1.55,1.55,0,0,1-.39-.52,1.74,1.74,0,0,1-.14-.69,1.7,1.7,0,0,1,.08-.51,1.67,1.67,0,0,1,.23-.44,1.35,1.35,0,0,1,.35-.32,1.44,1.44,0,0,1,.46-.19h0a1.18,1.18,0,0,1-.39-.19,1.33,1.33,0,0,1-.29-.29,1.41,1.41,0,0,1-.18-.37A1.46,1.46,0,0,1,150.49,34.23ZM151,36.9a1.18,1.18,0,0,0,.09.46,1.07,1.07,0,0,0,.25.35,1,1,0,0,0,.36.23,1.12,1.12,0,0,0,.88,0,1,1,0,0,0,.36-.23,1.07,1.07,0,0,0,.25-.35,1.18,1.18,0,0,0,.09-.46,1.14,1.14,0,0,0-.09-.46,1.13,1.13,0,0,0-.61-.58,1.12,1.12,0,0,0-.88,0,1.13,1.13,0,0,0-.61.58A1.14,1.14,0,0,0,151,36.9Zm.2-2.64a.88.88,0,0,0,.26.67,1,1,0,0,0,1.36,0,1,1,0,0,0,0-1.34,1,1,0,0,0-1.36,0A.88.88,0,0,0,151.17,34.26Z"/><path d="M154.64,35.68a7,7,0,0,1,.08-1,3.1,3.1,0,0,1,.29-1,2,2,0,0,1,.59-.71,1.6,1.6,0,0,1,1-.27,1.55,1.55,0,0,1,.95.27,1.94,1.94,0,0,1,.59.71,2.86,2.86,0,0,1,.3,1,7,7,0,0,1,.08,1,7.07,7.07,0,0,1-.08,1,2.88,2.88,0,0,1-.3.94,1.94,1.94,0,0,1-.59.71,1.55,1.55,0,0,1-.95.27,1.6,1.6,0,0,1-1-.27,2,2,0,0,1-.59-.71,3.13,3.13,0,0,1-.29-.94A7.07,7.07,0,0,1,154.64,35.68Zm.67,0c0,.13,0,.29,0,.46a4.88,4.88,0,0,0,.06.52,4.05,4.05,0,0,0,.12.5,1.66,1.66,0,0,0,.23.44,1.12,1.12,0,0,0,.34.31,1,1,0,0,0,1,0,1.12,1.12,0,0,0,.34-.31,1.4,1.4,0,0,0,.22-.44,2.83,2.83,0,0,0,.13-.5,4.88,4.88,0,0,0,.06-.52c0-.17,0-.33,0-.46s0-.3,0-.47a4.43,4.43,0,0,0-.06-.51,2.72,2.72,0,0,0-.13-.51,1.51,1.51,0,0,0-.22-.44,1.12,1.12,0,0,0-.34-.31,1,1,0,0,0-1,0,1.12,1.12,0,0,0-.34.31,1.83,1.83,0,0,0-.23.44,3.81,3.81,0,0,0-.12.51,4.43,4.43,0,0,0-.06.51C155.32,35.38,155.31,35.54,155.31,35.68Z"/><path d="M159.24,33.89a1.15,1.15,0,0,1,.33-.81,1,1,0,0,1,.37-.24,1,1,0,0,1,.44-.09,1.15,1.15,0,0,1,.82,2,1.15,1.15,0,0,1-.37.25,1.13,1.13,0,0,1-.45.09,1.15,1.15,0,0,1-.81-.34,1.15,1.15,0,0,1-.33-.81Zm.43,0a.79.79,0,0,0,.05.25,1.14,1.14,0,0,0,.15.23.62.62,0,0,0,.22.17.72.72,0,0,0,.29.06.68.68,0,0,0,.52-.23.79.79,0,0,0,.14-.23.65.65,0,0,0,0-.5.79.79,0,0,0-.14-.23.81.81,0,0,0-.23-.17.65.65,0,0,0-.29-.06.72.72,0,0,0-.29.06.76.76,0,0,0-.22.17,1.14,1.14,0,0,0-.15.23A.79.79,0,0,0,159.67,33.89Z"/><path d="M203.18,38.51h-.68v-4.8h0l-1,.85-.4-.48,1.52-1.24h.59Z"/><path d="M208.49,33.47h-2.31l0,1.53a1.08,1.08,0,0,1,.36-.11l.37,0a2,2,0,0,1,.74.14,1.61,1.61,0,0,1,.57.39,1.9,1.9,0,0,1,.37.59,2,2,0,0,1,.13.74,2,2,0,0,1-.15.78,1.74,1.74,0,0,1-.41.59,1.91,1.91,0,0,1-.61.38,2.2,2.2,0,0,1-.78.13,1.73,1.73,0,0,1-1-.28,2,2,0,0,1-.63-.75l.67-.25a1.31,1.31,0,0,0,.42.51,1.1,1.1,0,0,0,.64.2,1.28,1.28,0,0,0,.48-.09,1.26,1.26,0,0,0,.38-.27,1.15,1.15,0,0,0,.26-.41,1.53,1.53,0,0,0,.1-.54,1.38,1.38,0,0,0-.11-.55,1.08,1.08,0,0,0-.3-.4,1.26,1.26,0,0,0-.44-.25,1.67,1.67,0,0,0-.55-.08,1.84,1.84,0,0,0-.6.1,2.58,2.58,0,0,0-.56.25l.06-2.95h3Z"/><path d="M209.45,35.68a7,7,0,0,1,.08-1,3.1,3.1,0,0,1,.29-1,2,2,0,0,1,.59-.71,1.6,1.6,0,0,1,1-.27,1.55,1.55,0,0,1,.95.27,1.94,1.94,0,0,1,.59.71,2.86,2.86,0,0,1,.3,1,7,7,0,0,1,.08,1,7.07,7.07,0,0,1-.08,1,2.88,2.88,0,0,1-.3.94,1.94,1.94,0,0,1-.59.71,1.55,1.55,0,0,1-.95.27,1.6,1.6,0,0,1-1-.27,2,2,0,0,1-.59-.71,3.13,3.13,0,0,1-.29-.94A7.07,7.07,0,0,1,209.45,35.68Zm.67,0c0,.13,0,.29,0,.46a4.88,4.88,0,0,0,.06.52,4.05,4.05,0,0,0,.12.5,1.66,1.66,0,0,0,.23.44,1,1,0,0,0,.34.31.9.9,0,0,0,.48.12,1,1,0,0,0,.48-.12,1.24,1.24,0,0,0,.34-.31,1.4,1.4,0,0,0,.22-.44,2.83,2.83,0,0,0,.13-.5,4.88,4.88,0,0,0,.06-.52c0-.17,0-.33,0-.46s0-.3,0-.47a4.43,4.43,0,0,0-.06-.51,2.72,2.72,0,0,0-.13-.51,1.51,1.51,0,0,0-.22-.44,1.24,1.24,0,0,0-.34-.31,1,1,0,0,0-.48-.12.9.9,0,0,0-.48.12,1,1,0,0,0-.34.31,1.83,1.83,0,0,0-.23.44,3.81,3.81,0,0,0-.12.51,4.43,4.43,0,0,0-.06.51C210.13,35.38,210.12,35.54,210.12,35.68Z"/><path d="M214.05,33.89a1.15,1.15,0,0,1,.33-.81,1,1,0,0,1,.37-.24,1,1,0,0,1,.44-.09,1.13,1.13,0,0,1,.45.09,1,1,0,0,1,.36.24,1,1,0,0,1,.25.36,1.17,1.17,0,0,1,0,.9,1.23,1.23,0,0,1-.61.61,1.13,1.13,0,0,1-.45.09,1.15,1.15,0,0,1-.81-.34,1.15,1.15,0,0,1-.33-.81Zm.43,0a.79.79,0,0,0,.05.25,1.14,1.14,0,0,0,.15.23.62.62,0,0,0,.22.17.72.72,0,0,0,.29.06.68.68,0,0,0,.52-.23.79.79,0,0,0,.14-.23.65.65,0,0,0,0-.5.79.79,0,0,0-.14-.23.81.81,0,0,0-.23-.17.65.65,0,0,0-.29-.06.72.72,0,0,0-.29.06.76.76,0,0,0-.22.17,1.14,1.14,0,0,0-.15.23A.79.79,0,0,0,214.48,33.89Z"/><path d="M93.61,38.51h-.67v-4.8h0l-1,.85-.4-.48L93,32.84h.58Z"/><path d="M98.92,33.47H96.61l0,1.53a1,1,0,0,1,.35-.11l.37,0a1.91,1.91,0,0,1,.74.14,1.65,1.65,0,0,1,.58.39A1.71,1.71,0,0,1,99,36a2,2,0,0,1,.13.74,2,2,0,0,1-.15.78,1.71,1.71,0,0,1-.4.59,2,2,0,0,1-.62.38,2.15,2.15,0,0,1-.77.13,1.78,1.78,0,0,1-1.05-.28,1.85,1.85,0,0,1-.62-.75l.67-.25a1.16,1.16,0,0,0,.42.51,1.05,1.05,0,0,0,.63.2,1.28,1.28,0,0,0,.48-.09,1.23,1.23,0,0,0,.64-.68,1.33,1.33,0,0,0,.1-.54,1.38,1.38,0,0,0-.11-.55,1.18,1.18,0,0,0-.29-.4,1.41,1.41,0,0,0-.45-.25,1.63,1.63,0,0,0-.55-.08,1.78,1.78,0,0,0-.59.1,2.58,2.58,0,0,0-.56.25l0-2.95h3Z"/><path d="M99.88,35.68a7,7,0,0,1,.08-1,3.11,3.11,0,0,1,.3-1,1.94,1.94,0,0,1,.59-.71,1.55,1.55,0,0,1,1-.27,1.6,1.6,0,0,1,1,.27,2,2,0,0,1,.59.71,3.1,3.1,0,0,1,.29,1,5.77,5.77,0,0,1,.08,1,5.85,5.85,0,0,1-.08,1,3.13,3.13,0,0,1-.29.94,2,2,0,0,1-.59.71,1.6,1.6,0,0,1-1,.27,1.55,1.55,0,0,1-1-.27,1.94,1.94,0,0,1-.59-.71,3.14,3.14,0,0,1-.3-.94A7.07,7.07,0,0,1,99.88,35.68Zm.67,0c0,.13,0,.29,0,.46a4.88,4.88,0,0,0,.06.52,2.83,2.83,0,0,0,.13.5,1.4,1.4,0,0,0,.22.44,1.24,1.24,0,0,0,.34.31,1,1,0,0,0,.48.12.9.9,0,0,0,.48-.12,1,1,0,0,0,.34-.31,1.41,1.41,0,0,0,.23-.44,4.05,4.05,0,0,0,.12-.5,4.88,4.88,0,0,0,.06-.52c0-.17,0-.33,0-.46s0-.3,0-.47a4.43,4.43,0,0,0-.06-.51,3.81,3.81,0,0,0-.12-.51,1.53,1.53,0,0,0-.23-.44,1,1,0,0,0-.34-.31.9.9,0,0,0-.48-.12,1,1,0,0,0-.48.12,1.24,1.24,0,0,0-.34.31,1.51,1.51,0,0,0-.22.44,2.72,2.72,0,0,0-.13.51,4.43,4.43,0,0,0-.06.51C100.56,35.38,100.55,35.54,100.55,35.68Z"/><path d="M104.48,33.89a1.15,1.15,0,0,1,1.15-1.14,1,1,0,0,1,.44.09,1.12,1.12,0,0,1,.37.24,1.16,1.16,0,0,1,0,1.62,1.15,1.15,0,0,1-.37.25,1,1,0,0,1-.44.09,1.13,1.13,0,0,1-.45-.09,1.15,1.15,0,0,1-.37-.25,1.15,1.15,0,0,1-.33-.81Zm.43,0a.61.61,0,0,0,.06.25.79.79,0,0,0,.14.23.72.72,0,0,0,.22.17.73.73,0,0,0,.3.06.72.72,0,0,0,.29-.06.62.62,0,0,0,.22-.17,1.14,1.14,0,0,0,.15-.23.65.65,0,0,0,0-.5,1.14,1.14,0,0,0-.15-.23.76.76,0,0,0-.22-.17.72.72,0,0,0-.29-.06.73.73,0,0,0-.3.06.92.92,0,0,0-.22.17.79.79,0,0,0-.14.23A.61.61,0,0,0,104.91,33.89Z"/><path d="M248.75,192.45v0a1.35,1.35,0,0,1,.37-.13,2,2,0,0,1,.39,0,1.73,1.73,0,0,1,.69.13,1.42,1.42,0,0,1,.54.36,1.85,1.85,0,0,1,.36.57,2,2,0,0,1,.12.72,1.78,1.78,0,0,1-.14.74,1.74,1.74,0,0,1-.4.56,2,2,0,0,1-.6.35,2.36,2.36,0,0,1-.75.12,2.27,2.27,0,0,1-.75-.12,2,2,0,0,1-.6-.35,1.6,1.6,0,0,1-.4-.56,1.78,1.78,0,0,1-.15-.74,2.24,2.24,0,0,1,.15-.86,5.28,5.28,0,0,1,.39-.74l1.5-2.39h.79Zm.59.43a1.23,1.23,0,0,0-.87.32,1,1,0,0,0-.26.38,1.31,1.31,0,0,0-.1.5,1.35,1.35,0,0,0,.1.5,1.08,1.08,0,0,0,.26.37,1,1,0,0,0,.39.24,1.32,1.32,0,0,0,1,0,1,1,0,0,0,.39-.24,1.23,1.23,0,0,0,.26-.37,1.35,1.35,0,0,0,.09-.5,1.31,1.31,0,0,0-.09-.5,1.16,1.16,0,0,0-.26-.38,1.23,1.23,0,0,0-.87-.32Z"/><path d="M251.82,192.92a7.07,7.07,0,0,1,.08-1,3.13,3.13,0,0,1,.29-.94,2,2,0,0,1,.59-.71,1.6,1.6,0,0,1,1-.27,1.55,1.55,0,0,1,.95.27,1.94,1.94,0,0,1,.59.71,2.88,2.88,0,0,1,.3.94,7.07,7.07,0,0,1,.08,1,7,7,0,0,1-.08,1,2.86,2.86,0,0,1-.3,1,1.94,1.94,0,0,1-.59.71,1.55,1.55,0,0,1-.95.27,1.6,1.6,0,0,1-1-.27,2,2,0,0,1-.59-.71,3.1,3.1,0,0,1-.29-1A7,7,0,0,1,251.82,192.92Zm.67,0c0,.14,0,.3,0,.47a4.43,4.43,0,0,0,.06.51,3.81,3.81,0,0,0,.12.51,1.83,1.83,0,0,0,.23.44,1,1,0,0,0,.34.31.9.9,0,0,0,.48.12,1,1,0,0,0,.48-.12,1.24,1.24,0,0,0,.34-.31,1.51,1.51,0,0,0,.22-.44,2.72,2.72,0,0,0,.13-.51,4.43,4.43,0,0,0,.06-.51c0-.17,0-.33,0-.47s0-.29,0-.46a4.88,4.88,0,0,0-.06-.52,2.83,2.83,0,0,0-.13-.5,1.4,1.4,0,0,0-.22-.44,1.1,1.1,0,0,0-.34-.31,1,1,0,0,0-.48-.12.9.9,0,0,0-.48.12.92.92,0,0,0-.34.31,1.66,1.66,0,0,0-.23.44,4.05,4.05,0,0,0-.12.5,4.88,4.88,0,0,0-.06.52C252.5,192.63,252.49,192.79,252.49,192.92Z"/><path d="M256.42,191.14a1.15,1.15,0,0,1,.33-.81,1.05,1.05,0,0,1,.37-.25,1.23,1.23,0,0,1,.44-.08,1.33,1.33,0,0,1,.45.08,1.15,1.15,0,0,1,.37.25,1.16,1.16,0,0,1,0,1.62,1.15,1.15,0,0,1-.37.25,1.33,1.33,0,0,1-.45.08,1.23,1.23,0,0,1-.44-.08,1.05,1.05,0,0,1-.37-.25,1.15,1.15,0,0,1-.33-.81Zm.43,0a.79.79,0,0,0,0,.25,1.14,1.14,0,0,0,.15.23.62.62,0,0,0,.22.17.72.72,0,0,0,.29.06.68.68,0,0,0,.52-.23.79.79,0,0,0,.14-.23.65.65,0,0,0,0-.5.79.79,0,0,0-.14-.23.68.68,0,0,0-.52-.23.72.72,0,0,0-.29.06.62.62,0,0,0-.22.17,1.14,1.14,0,0,0-.15.23A.79.79,0,0,0,256.85,191.14Z"/><path d="M250,81.22h-.67v-4.8h0l-1,.86-.4-.49,1.52-1.23H250Z"/><path d="M251.92,80.45l2.13-2.08c.13-.12.25-.24.35-.35a2.16,2.16,0,0,0,.25-.32,1.09,1.09,0,0,0,.15-.33,1.38,1.38,0,0,0,0-.37,1,1,0,0,0-.08-.4.84.84,0,0,0-.22-.3.78.78,0,0,0-.33-.19,1.05,1.05,0,0,0-.4-.07,1,1,0,0,0-.71.25,1.08,1.08,0,0,0-.36.65l-.73-.06a1.83,1.83,0,0,1,.21-.61,1.41,1.41,0,0,1,.39-.45,2,2,0,0,1,.53-.27,2.25,2.25,0,0,1,.64-.09,2.41,2.41,0,0,1,.67.1,1.92,1.92,0,0,1,.55.29,1.44,1.44,0,0,1,.51,1.15,2,2,0,0,1-.09.61,2,2,0,0,1-.25.5,3.47,3.47,0,0,1-.35.43l-.41.4-1.75,1.64v0h2.89v.62h-3.64Z"/><path d="M256.27,78.39a5.85,5.85,0,0,1,.08-1,3.19,3.19,0,0,1,.29-1,2,2,0,0,1,.59-.7,1.54,1.54,0,0,1,1-.28,1.51,1.51,0,0,1,.95.28,1.91,1.91,0,0,1,.59.7,3.2,3.2,0,0,1,.3,1,6.29,6.29,0,0,1,0,2,3.2,3.2,0,0,1-.3,1,1.91,1.91,0,0,1-.59.7,1.51,1.51,0,0,1-.95.28,1.54,1.54,0,0,1-1-.28,2,2,0,0,1-.59-.7,3.19,3.19,0,0,1-.29-1A5.85,5.85,0,0,1,256.27,78.39Zm.67,0a3.78,3.78,0,0,0,0,.46c0,.17,0,.35.05.52a4.77,4.77,0,0,0,.13.51,1.67,1.67,0,0,0,.23.44,1,1,0,0,0,.34.31,1,1,0,0,0,.48.11,1.06,1.06,0,0,0,.48-.11,1.24,1.24,0,0,0,.34-.31,2,2,0,0,0,.22-.44,3.18,3.18,0,0,0,.13-.51,4.6,4.6,0,0,0,.06-.52c0-.17,0-.32,0-.46s0-.29,0-.46a4.35,4.35,0,0,0-.06-.52,3.18,3.18,0,0,0-.13-.51,2,2,0,0,0-.22-.44,1.24,1.24,0,0,0-.34-.31,1.06,1.06,0,0,0-.48-.11,1,1,0,0,0-.48.11,1,1,0,0,0-.34.31,1.67,1.67,0,0,0-.23.44,4.77,4.77,0,0,0-.13.51c0,.17,0,.34-.05.52A3.78,3.78,0,0,0,256.94,78.39Z"/><path d="M260.87,76.61a1.13,1.13,0,0,1,.09-.45,1,1,0,0,1,.24-.37,1.16,1.16,0,0,1,1.62,0,1.15,1.15,0,0,1,.25.37,1.13,1.13,0,0,1,.09.45,1,1,0,0,1-.09.44,1.15,1.15,0,0,1-.25.37,1.16,1.16,0,0,1-1.62,0,1,1,0,0,1-.24-.37A1,1,0,0,1,260.87,76.61Zm.43,0a.69.69,0,0,0,.05.24.75.75,0,0,0,.15.24.6.6,0,0,0,.22.16.64.64,0,0,0,.58,0,.63.63,0,0,0,.23-.16.72.72,0,0,0,.14-.24.52.52,0,0,0,.05-.24.56.56,0,0,0-.05-.25.59.59,0,0,0-.14-.23.66.66,0,0,0-.23-.17.64.64,0,0,0-.58,0,.62.62,0,0,0-.22.17.61.61,0,0,0-.15.23A.74.74,0,0,0,261.3,76.61Z"/><path d="M40.39,192.45v0a1.42,1.42,0,0,1,.38-.13,1.84,1.84,0,0,1,.39,0,1.72,1.72,0,0,1,.68.13,1.42,1.42,0,0,1,.54.36,1.85,1.85,0,0,1,.36.57,2,2,0,0,1,.13.72,1.78,1.78,0,0,1-.15.74,1.6,1.6,0,0,1-.4.56,2,2,0,0,1-.6.35,2.4,2.4,0,0,1-1.5,0,2,2,0,0,1-.6-.35,1.6,1.6,0,0,1-.4-.56,1.78,1.78,0,0,1-.15-.74,2.24,2.24,0,0,1,.16-.86,5.19,5.19,0,0,1,.38-.74l1.5-2.39h.79Zm.59.43a1.23,1.23,0,0,0-.87.32,1.16,1.16,0,0,0-.26.38,1.31,1.31,0,0,0-.09.5,1.35,1.35,0,0,0,.09.5,1.23,1.23,0,0,0,.26.37,1,1,0,0,0,.39.24,1.32,1.32,0,0,0,1,0,1,1,0,0,0,.39-.24,1.23,1.23,0,0,0,.26-.37,1.35,1.35,0,0,0,.1-.5,1.31,1.31,0,0,0-.1-.5,1.16,1.16,0,0,0-.26-.38,1.23,1.23,0,0,0-.87-.32Z"/><path d="M43.46,192.92a7.07,7.07,0,0,1,.08-1,2.88,2.88,0,0,1,.3-.94,1.94,1.94,0,0,1,.59-.71,1.55,1.55,0,0,1,1-.27,1.6,1.6,0,0,1,1,.27,2,2,0,0,1,.59.71,3.13,3.13,0,0,1,.29.94,7.07,7.07,0,0,1,.08,1,7,7,0,0,1-.08,1,3.1,3.1,0,0,1-.29,1,2,2,0,0,1-.59.71,1.6,1.6,0,0,1-1,.27,1.55,1.55,0,0,1-1-.27,1.94,1.94,0,0,1-.59-.71,2.86,2.86,0,0,1-.3-1A7,7,0,0,1,43.46,192.92Zm.67,0c0,.14,0,.3,0,.47a4.43,4.43,0,0,0,.06.51,2.72,2.72,0,0,0,.13.51,1.51,1.51,0,0,0,.22.44,1.12,1.12,0,0,0,.34.31,1,1,0,0,0,1,0,1.12,1.12,0,0,0,.34-.31,1.83,1.83,0,0,0,.23-.44,3.81,3.81,0,0,0,.12-.51,4.43,4.43,0,0,0,.06-.51c0-.17,0-.33,0-.47s0-.29,0-.46a4.88,4.88,0,0,0-.06-.52,4.05,4.05,0,0,0-.12-.5,1.66,1.66,0,0,0-.23-.44,1,1,0,0,0-.34-.31,1,1,0,0,0-1,0,1,1,0,0,0-.34.31,1.4,1.4,0,0,0-.22.44,2.83,2.83,0,0,0-.13.5,4.88,4.88,0,0,0-.06.52C44.14,192.63,44.13,192.79,44.13,192.92Z"/><path d="M48.06,191.14a1.15,1.15,0,0,1,.33-.81,1.15,1.15,0,0,1,.37-.25,1.33,1.33,0,0,1,.45-.08,1.27,1.27,0,0,1,.44.08,1.15,1.15,0,0,1,.37.25A1.16,1.16,0,0,1,50,192a1.15,1.15,0,0,1-.37.25,1.27,1.27,0,0,1-.44.08,1.33,1.33,0,0,1-.45-.08,1.15,1.15,0,0,1-.37-.25,1.15,1.15,0,0,1-.33-.81Zm.43,0a.61.61,0,0,0,.06.25.79.79,0,0,0,.14.23.72.72,0,0,0,.22.17.73.73,0,0,0,.3.06.72.72,0,0,0,.29-.06.62.62,0,0,0,.22-.17,1.14,1.14,0,0,0,.15-.23.65.65,0,0,0,0-.5,1.14,1.14,0,0,0-.15-.23.62.62,0,0,0-.22-.17.72.72,0,0,0-.29-.06.73.73,0,0,0-.3.06.72.72,0,0,0-.22.17.79.79,0,0,0-.14.23A.61.61,0,0,0,48.49,191.14Z"/><path d="M39.15,81.22h-.67v-4.8h0l-1,.86-.4-.49,1.52-1.23h.58Z"/><path d="M41.07,80.45l2.14-2.08c.13-.12.25-.24.35-.35a2.16,2.16,0,0,0,.25-.32,1.09,1.09,0,0,0,.15-.33A1.38,1.38,0,0,0,44,77a1,1,0,0,0-.08-.4.84.84,0,0,0-.22-.3.78.78,0,0,0-.33-.19A1.05,1.05,0,0,0,43,76a1,1,0,0,0-.72.25,1.19,1.19,0,0,0-.36.65l-.72-.06a1.47,1.47,0,0,1,.21-.61,1.41,1.41,0,0,1,.39-.45,2,2,0,0,1,.53-.27,2.2,2.2,0,0,1,.64-.09,2.41,2.41,0,0,1,.67.1,2.06,2.06,0,0,1,.55.29,1.47,1.47,0,0,1,.37.48,1.6,1.6,0,0,1,.14.67,2,2,0,0,1-.09.61,2.34,2.34,0,0,1-.25.5,3.47,3.47,0,0,1-.35.43l-.41.4-1.75,1.64v0h2.89v.62H41.07Z"/><path d="M45.43,78.39a7,7,0,0,1,.07-1,3.52,3.52,0,0,1,.3-1,2,2,0,0,1,.59-.7,1.77,1.77,0,0,1,1.91,0,1.91,1.91,0,0,1,.59.7,3.52,3.52,0,0,1,.3,1,6.29,6.29,0,0,1,0,2,3.52,3.52,0,0,1-.3,1,1.91,1.91,0,0,1-.59.7,1.77,1.77,0,0,1-1.91,0,2,2,0,0,1-.59-.7,3.52,3.52,0,0,1-.3-1A7,7,0,0,1,45.43,78.39Zm.67,0c0,.14,0,.29,0,.46a4.6,4.6,0,0,0,.06.52,4.77,4.77,0,0,0,.13.51,2,2,0,0,0,.22.44,1.15,1.15,0,0,0,.35.31,1,1,0,0,0,.48.11,1.06,1.06,0,0,0,.48-.11,1.24,1.24,0,0,0,.34-.31,2,2,0,0,0,.22-.44,3.18,3.18,0,0,0,.13-.51,4.6,4.6,0,0,0,.06-.52c0-.17,0-.32,0-.46s0-.29,0-.46a4.35,4.35,0,0,0-.06-.52,3.18,3.18,0,0,0-.13-.51,2,2,0,0,0-.22-.44,1.24,1.24,0,0,0-.34-.31,1.06,1.06,0,0,0-.48-.11,1,1,0,0,0-.48.11,1.15,1.15,0,0,0-.35.31,2,2,0,0,0-.22.44,4.77,4.77,0,0,0-.13.51,4.35,4.35,0,0,0-.06.52C46.1,78.1,46.1,78.25,46.1,78.39Z"/><path d="M50,76.61a1.12,1.12,0,0,1,.08-.45,1.15,1.15,0,0,1,.25-.37,1.16,1.16,0,0,1,1.62,0,1.15,1.15,0,0,1,.25.37,1.33,1.33,0,0,1,.08.45,1.23,1.23,0,0,1-.08.44,1.15,1.15,0,0,1-.25.37,1.16,1.16,0,0,1-1.62,0,1.15,1.15,0,0,1-.25-.37A1,1,0,0,1,50,76.61Zm.43,0a.52.52,0,0,0,0,.24.72.72,0,0,0,.14.24.63.63,0,0,0,.23.16.64.64,0,0,0,.58,0,.73.73,0,0,0,.23-.16,1,1,0,0,0,.14-.24.69.69,0,0,0,.05-.24.75.75,0,0,0-.19-.48.76.76,0,0,0-.23-.17.64.64,0,0,0-.58,0,.66.66,0,0,0-.23.17.59.59,0,0,0-.14.23A.56.56,0,0,0,50.46,76.61Z"/></g><g id="numeri_fondo_tabella" data-name="numeri fondo tabella"><path d="M131.83,251.42a1.17,1.17,0,0,0-.43-.35,1.19,1.19,0,0,0-.51-.11,1.35,1.35,0,0,0-.55.11,1.08,1.08,0,0,0-.4.3,1.32,1.32,0,0,0-.23.44,1.76,1.76,0,0,0,0,1.08,1.43,1.43,0,0,0,.26.45,1.31,1.31,0,0,0,.39.3,1.27,1.27,0,0,0,.52.1,1.09,1.09,0,0,0,1-.46l.47.44a1.69,1.69,0,0,1-.64.46,2.29,2.29,0,0,1-.78.14,2.22,2.22,0,0,1-.79-.14,1.75,1.75,0,0,1-1-1,2.27,2.27,0,0,1,0-1.57,1.86,1.86,0,0,1,.39-.63,2,2,0,0,1,.61-.41,2,2,0,0,1,.79-.15,2.09,2.09,0,0,1,.79.15,1.59,1.59,0,0,1,.65.45Z"/><path d="M136.21,253.56h0a1.43,1.43,0,0,1-.55.54,1.7,1.7,0,0,1-.89.22,1.8,1.8,0,0,1-.73-.15,1.78,1.78,0,0,1-.6-.41,1.81,1.81,0,0,1-.39-.62,2.06,2.06,0,0,1-.15-.79,2,2,0,0,1,.15-.78,1.88,1.88,0,0,1,.4-.63,1.81,1.81,0,0,1,.62-.41,2.07,2.07,0,0,1,.8-.15,1.72,1.72,0,0,1,.75.17,1.78,1.78,0,0,1,.59.47h0v-2.84h.62v6h-.62Zm0-1.21a1.63,1.63,0,0,0-.09-.55,1.34,1.34,0,0,0-.27-.44,1.37,1.37,0,0,0-.42-.29,1.35,1.35,0,0,0-.55-.11,1.42,1.42,0,0,0-.55.11,1.22,1.22,0,0,0-.41.29,1.34,1.34,0,0,0-.27.44,1.56,1.56,0,0,0,0,1.1,1.25,1.25,0,0,0,.27.44,1.19,1.19,0,0,0,1,.4,1.35,1.35,0,0,0,.55-.1,1.6,1.6,0,0,0,.42-.3,1.25,1.25,0,0,0,.27-.44A1.63,1.63,0,0,0,136.21,252.35Z"/><path d="M140.1,254.57l-.5-.2,2.4-6.15.51.2Z"/><path d="M147.64,254.22H147v-4.8h0l-1,.86-.4-.49,1.52-1.23h.59Z"/><path d="M149.46,251.39a7.07,7.07,0,0,1,.08-1,3.19,3.19,0,0,1,.29-.95,2,2,0,0,1,.59-.7,1.61,1.61,0,0,1,1-.28,1.55,1.55,0,0,1,1,.28,1.91,1.91,0,0,1,.59.7,2.94,2.94,0,0,1,.3.95,6.29,6.29,0,0,1,0,2,2.94,2.94,0,0,1-.3,1,1.91,1.91,0,0,1-.59.7,1.49,1.49,0,0,1-1,.28,1.54,1.54,0,0,1-1-.28,2,2,0,0,1-.59-.7,3.19,3.19,0,0,1-.29-1A7.07,7.07,0,0,1,149.46,251.39Zm.67,0c0,.14,0,.29,0,.47a4.43,4.43,0,0,0,.06.51,4.7,4.7,0,0,0,.12.51,2,2,0,0,0,.23.44,1.12,1.12,0,0,0,.34.31,1.1,1.1,0,0,0,1,0,1.12,1.12,0,0,0,.34-.31,1.65,1.65,0,0,0,.22-.44,3.18,3.18,0,0,0,.13-.51,4.43,4.43,0,0,0,.06-.51c0-.18,0-.33,0-.47s0-.29,0-.46a4.6,4.6,0,0,0-.06-.52,3.18,3.18,0,0,0-.13-.51,1.65,1.65,0,0,0-.22-.44,1.08,1.08,0,0,0-.34-.3,1,1,0,0,0-1,0,1.08,1.08,0,0,0-.34.3,2,2,0,0,0-.23.44,4.7,4.7,0,0,0-.12.51,4.6,4.6,0,0,0-.06.52C150.14,251.1,150.13,251.25,150.13,251.39Z"/><path d="M153.91,251.39a5.85,5.85,0,0,1,.08-1,3.19,3.19,0,0,1,.29-.95,2,2,0,0,1,.59-.7,1.61,1.61,0,0,1,1-.28,1.55,1.55,0,0,1,.95.28,1.91,1.91,0,0,1,.59.7,3.2,3.2,0,0,1,.3.95,6.29,6.29,0,0,1,0,2,3.2,3.2,0,0,1-.3,1,1.91,1.91,0,0,1-.59.7,1.49,1.49,0,0,1-.95.28,1.54,1.54,0,0,1-1-.28,2,2,0,0,1-.59-.7,3.19,3.19,0,0,1-.29-1A5.85,5.85,0,0,1,153.91,251.39Zm.67,0a4,4,0,0,0,0,.47,4.43,4.43,0,0,0,.06.51,3.14,3.14,0,0,0,.12.51,1.67,1.67,0,0,0,.23.44,1,1,0,0,0,.34.31.9.9,0,0,0,.48.11,1,1,0,0,0,.48-.11,1.24,1.24,0,0,0,.34-.31,1.65,1.65,0,0,0,.22-.44,3.18,3.18,0,0,0,.13-.51,4.43,4.43,0,0,0,.06-.51c0-.18,0-.33,0-.47s0-.29,0-.46a4.6,4.6,0,0,0-.06-.52,3.18,3.18,0,0,0-.13-.51,1.65,1.65,0,0,0-.22-.44,1.21,1.21,0,0,0-.34-.3,1,1,0,0,0-.48-.12.9.9,0,0,0-.48.12,1,1,0,0,0-.34.3,1.67,1.67,0,0,0-.23.44,3.14,3.14,0,0,0-.12.51,4.6,4.6,0,0,0-.06.52A3.78,3.78,0,0,0,154.58,251.39Z"/><path d="M158.31,251.39a5.85,5.85,0,0,1,.08-1,3.19,3.19,0,0,1,.29-.95,2,2,0,0,1,.59-.7,1.61,1.61,0,0,1,1-.28,1.55,1.55,0,0,1,1,.28,1.91,1.91,0,0,1,.59.7,3.2,3.2,0,0,1,.3.95,6.29,6.29,0,0,1,0,2,3.2,3.2,0,0,1-.3,1,1.91,1.91,0,0,1-.59.7,1.49,1.49,0,0,1-1,.28,1.54,1.54,0,0,1-1-.28,2,2,0,0,1-.59-.7,3.19,3.19,0,0,1-.29-1A5.85,5.85,0,0,1,158.31,251.39Zm.67,0c0,.14,0,.29,0,.47a4.43,4.43,0,0,0,.06.51,3.14,3.14,0,0,0,.12.51,1.67,1.67,0,0,0,.23.44,1,1,0,0,0,.34.31.9.9,0,0,0,.48.11,1,1,0,0,0,.48-.11,1.24,1.24,0,0,0,.34-.31,1.65,1.65,0,0,0,.22-.44,3.18,3.18,0,0,0,.13-.51,4.43,4.43,0,0,0,.06-.51c0-.18,0-.33,0-.47s0-.29,0-.46a4.6,4.6,0,0,0-.06-.52,3.18,3.18,0,0,0-.13-.51,1.65,1.65,0,0,0-.22-.44,1.21,1.21,0,0,0-.34-.3,1,1,0,0,0-.48-.12.9.9,0,0,0-.48.12,1,1,0,0,0-.34.3,1.67,1.67,0,0,0-.23.44,3.14,3.14,0,0,0-.12.51,4.6,4.6,0,0,0-.06.52C159,251.1,159,251.25,159,251.39Z"/><path d="M165.32,248.18H166v6h-.63Z"/><path d="M167.19,251.37c0-.17,0-.33,0-.48s0-.29,0-.41h.59c0,.1,0,.2,0,.3v.32h0a.91.91,0,0,1,.18-.27,1.64,1.64,0,0,1,.28-.23,1.5,1.5,0,0,1,.36-.16,1.44,1.44,0,0,1,.43-.06,1.52,1.52,0,0,1,.51.08,1.36,1.36,0,0,1,.34.18.93.93,0,0,1,.21.24,1.64,1.64,0,0,1,.12.22,1.78,1.78,0,0,1,.48-.53,1.27,1.27,0,0,1,.71-.19,1.88,1.88,0,0,1,.67.11,1.1,1.1,0,0,1,.44.31,1.37,1.37,0,0,1,.24.5,2.59,2.59,0,0,1,.07.65v2.27h-.62V252a2.33,2.33,0,0,0,0-.37,1,1,0,0,0-.15-.33.71.71,0,0,0-.28-.23,1,1,0,0,0-.45-.09,1,1,0,0,0-.37.08,1,1,0,0,0-.31.22,1.13,1.13,0,0,0-.21.35,1.33,1.33,0,0,0-.07.45v2.16h-.63V252.1a1.62,1.62,0,0,0-.17-.88A.6.6,0,0,0,169,251a1.18,1.18,0,0,0-.52.1.88.88,0,0,0-.36.3,1.14,1.14,0,0,0-.21.46,2.1,2.1,0,0,0-.07.58v1.82h-.62Z"/><line class="cls-1" x1="38.21" y1="253" x2="46.2" y2="253"/><path d="M235.17,251a1.66,1.66,0,0,0-.63-.52,1.93,1.93,0,0,0-.79-.17,2.13,2.13,0,0,0-.87.19,2.16,2.16,0,0,0-.68.52,2.58,2.58,0,0,0-.45.75,2.69,2.69,0,0,0-.16.89,2.79,2.79,0,0,0,.16.93,2.41,2.41,0,0,0,.45.74,2,2,0,0,0,.68.5,1.92,1.92,0,0,0,.87.19,2,2,0,0,0,1.64-.8l.51.43a2.38,2.38,0,0,1-.93.75,3,3,0,0,1-1.22.24,2.85,2.85,0,0,1-1.13-.22,2.82,2.82,0,0,1-.92-.62,3,3,0,0,1-.61-.94,3.33,3.33,0,0,1-.22-1.2,3.19,3.19,0,0,1,.21-1.16,2.9,2.9,0,0,1,.6-1,3.08,3.08,0,0,1,.91-.63,3,3,0,0,1,2.27,0,2,2,0,0,1,.89.68Z"/><path d="M239,253.1l0,0a1.35,1.35,0,0,1-.37.13,2.87,2.87,0,0,1-.39,0,1.68,1.68,0,0,1-.68-.13,1.5,1.5,0,0,1-.55-.36,1.92,1.92,0,0,1-.36-.56,2.11,2.11,0,0,1-.12-.73,1.75,1.75,0,0,1,.14-.74,1.63,1.63,0,0,1,.4-.56,1.79,1.79,0,0,1,.6-.35,2.36,2.36,0,0,1,.75-.12,2.27,2.27,0,0,1,.75.12,1.94,1.94,0,0,1,.61.35,1.49,1.49,0,0,1,.39.56,1.75,1.75,0,0,1,.15.74,2.19,2.19,0,0,1,0,.46c0,.14-.07.27-.11.4a2.53,2.53,0,0,1-.18.37,3.35,3.35,0,0,1-.21.36l-1.5,2.4h-.79Zm-.6-.43a1.51,1.51,0,0,0,.48-.08,1.28,1.28,0,0,0,.39-.24,1.12,1.12,0,0,0,.26-.38,1.27,1.27,0,0,0,.1-.5,1.26,1.26,0,0,0-.1-.49,1,1,0,0,0-.26-.38,1,1,0,0,0-.39-.24,1.33,1.33,0,0,0-1,0,.88.88,0,0,0-.38.24,1.19,1.19,0,0,0-.27.38,1.26,1.26,0,0,0-.09.49,1.28,1.28,0,0,0,.09.5,1.31,1.31,0,0,0,.27.38,1.12,1.12,0,0,0,.38.24A1.51,1.51,0,0,0,238.35,252.67Z"/><path d="M240.88,252.62a7.07,7.07,0,0,1,.08-1,2.88,2.88,0,0,1,.3-.94,2,2,0,0,1,.58-.71,1.84,1.84,0,0,1,1.92,0,2,2,0,0,1,.58.71,2.88,2.88,0,0,1,.3.94,7.07,7.07,0,0,1,.08,1,7,7,0,0,1-.08,1,2.86,2.86,0,0,1-.3.95,2,2,0,0,1-.58.71,1.84,1.84,0,0,1-1.92,0,2,2,0,0,1-.58-.71,2.86,2.86,0,0,1-.3-.95A7,7,0,0,1,240.88,252.62Zm.67,0c0,.14,0,.3,0,.47a4.43,4.43,0,0,0,.06.51,2.72,2.72,0,0,0,.13.51,1.51,1.51,0,0,0,.22.44,1.12,1.12,0,0,0,.34.31,1,1,0,0,0,1,0,1.12,1.12,0,0,0,.34-.31,1.51,1.51,0,0,0,.22-.44,2.72,2.72,0,0,0,.13-.51,4.43,4.43,0,0,0,.06-.51c0-.17,0-.33,0-.47s0-.29,0-.46a4.88,4.88,0,0,0-.06-.52,2.83,2.83,0,0,0-.13-.5,1.4,1.4,0,0,0-.22-.44,1.12,1.12,0,0,0-.34-.31,1,1,0,0,0-1,0,1.12,1.12,0,0,0-.34.31,1.4,1.4,0,0,0-.22.44,2.83,2.83,0,0,0-.13.5,4.88,4.88,0,0,0-.06.52C241.56,252.33,241.55,252.49,241.55,252.62Z"/><path d="M247.78,255.8l-.51-.2,2.41-6.14.5.19Z"/><path d="M257.1,251a1.66,1.66,0,0,0-.63-.52,1.92,1.92,0,0,0-.78-.17,2.06,2.06,0,0,0-.87.19,2.16,2.16,0,0,0-.68.52,2.21,2.21,0,0,0-.45.75,2.46,2.46,0,0,0-.16.89,2.56,2.56,0,0,0,.16.93,2.2,2.2,0,0,0,.44.74,2.1,2.1,0,0,0,.68.5,2,2,0,0,0,.88.19,2,2,0,0,0,.93-.21,2,2,0,0,0,.71-.59l.5.43a2.29,2.29,0,0,1-.92.75,3,3,0,0,1-1.22.24,2.8,2.8,0,0,1-2.05-.84,2.82,2.82,0,0,1-.61-.94,3.13,3.13,0,0,1-.22-1.2,3.19,3.19,0,0,1,.21-1.16,2.75,2.75,0,0,1,.6-1,3,3,0,0,1,.91-.63,2.93,2.93,0,0,1,1.16-.23,3,3,0,0,1,1.11.21,2,2,0,0,1,.89.68Z"/><path d="M258.46,254.69l2.14-2.08.35-.36a1.75,1.75,0,0,0,.25-.32,1,1,0,0,0,.15-.32,1.46,1.46,0,0,0,0-.38,1,1,0,0,0-.08-.4.93.93,0,0,0-.22-.3,1.13,1.13,0,0,0-.73-.26,1,1,0,0,0-.71.25,1.11,1.11,0,0,0-.36.66l-.73-.07a1.91,1.91,0,0,1,.21-.61,1.28,1.28,0,0,1,.39-.44,1.77,1.77,0,0,1,.53-.27,2.25,2.25,0,0,1,.64-.09,2.09,2.09,0,0,1,.67.1,1.53,1.53,0,0,1,.55.29,1.47,1.47,0,0,1,.37.48,1.39,1.39,0,0,1,.14.66,1.91,1.91,0,0,1-.09.61,1.8,1.8,0,0,1-.25.5,2.86,2.86,0,0,1-.35.43l-.41.41-1.75,1.64h2.89v.63h-3.65Z"/><path d="M266.35,250.42l-2.26,5h-.76l2.3-5H262.9v-.63h3.45Z"/><path d="M267.26,252.62a7.07,7.07,0,0,1,.08-1,3.45,3.45,0,0,1,.3-.94,2,2,0,0,1,.59-.71,1.82,1.82,0,0,1,1.91,0,2,2,0,0,1,.59.71,3.45,3.45,0,0,1,.3.94,7,7,0,0,1,.07,1,6.92,6.92,0,0,1-.07,1,3.41,3.41,0,0,1-.3.95,2,2,0,0,1-.59.71,1.82,1.82,0,0,1-1.91,0,2,2,0,0,1-.59-.71,3.41,3.41,0,0,1-.3-.95A7,7,0,0,1,267.26,252.62Zm.68,0c0,.14,0,.3,0,.47a4.43,4.43,0,0,0,.06.51,2.72,2.72,0,0,0,.13.51,1.53,1.53,0,0,0,.23.44,1,1,0,0,0,.34.31.89.89,0,0,0,.47.12,1,1,0,0,0,.49-.12,1.08,1.08,0,0,0,.33-.31,1.53,1.53,0,0,0,.23-.44,2.72,2.72,0,0,0,.13-.51,4.43,4.43,0,0,0,.06-.51c0-.17,0-.33,0-.47s0-.29,0-.46a4.88,4.88,0,0,0-.06-.52,2.83,2.83,0,0,0-.13-.5,1.41,1.41,0,0,0-.23-.44,1.08,1.08,0,0,0-.33-.31,1,1,0,0,0-.49-.12.89.89,0,0,0-.47.12,1,1,0,0,0-.34.31,1.41,1.41,0,0,0-.23.44,2.83,2.83,0,0,0-.13.5,4.88,4.88,0,0,0-.06.52C267.94,252.33,267.94,252.49,267.94,252.62Z"/><path d="M52.87,251a1.55,1.55,0,0,0-.63-.51,1.82,1.82,0,0,0-.79-.18,2,2,0,0,0-.87.2,2.13,2.13,0,0,0-.68.51,2.58,2.58,0,0,0-.45.75,2.67,2.67,0,0,0,0,1.82,2.29,2.29,0,0,0,.45.74,1.88,1.88,0,0,0,.68.5,1.92,1.92,0,0,0,.87.19,2,2,0,0,0,.93-.21,2.07,2.07,0,0,0,.71-.58l.51.42a2.38,2.38,0,0,1-.93.75,3,3,0,0,1-1.22.24,2.85,2.85,0,0,1-1.13-.22,2.82,2.82,0,0,1-.92-.62,3,3,0,0,1-.61-.94,3.27,3.27,0,0,1-.22-1.19,3.2,3.2,0,0,1,.21-1.17,3,3,0,0,1,.6-.95,3.08,3.08,0,0,1,.91-.63,3,3,0,0,1,2.27,0,2,2,0,0,1,.89.68Z"/><path d="M54.13,252.62a7,7,0,0,1,.08-1,3.11,3.11,0,0,1,.3-1,1.94,1.94,0,0,1,.59-.71,1.55,1.55,0,0,1,.95-.27,1.6,1.6,0,0,1,1,.27,2,2,0,0,1,.59.71,3.1,3.1,0,0,1,.29,1,5.77,5.77,0,0,1,.08,1,5.85,5.85,0,0,1-.08,1,3.13,3.13,0,0,1-.29.94,2,2,0,0,1-.59.71,1.6,1.6,0,0,1-1,.27,1.55,1.55,0,0,1-.95-.27,1.94,1.94,0,0,1-.59-.71,3.14,3.14,0,0,1-.3-.94A7.07,7.07,0,0,1,54.13,252.62Zm.67,0c0,.13,0,.29,0,.46a4.88,4.88,0,0,0,.06.52,2.83,2.83,0,0,0,.13.5,1.4,1.4,0,0,0,.22.44,1.1,1.1,0,0,0,.34.31,1,1,0,0,0,.48.12.9.9,0,0,0,.48-.12.92.92,0,0,0,.34-.31,1.41,1.41,0,0,0,.23-.44,2.8,2.8,0,0,0,.12-.5,4.88,4.88,0,0,0,.06-.52,3.86,3.86,0,0,0,0-.46,3.94,3.94,0,0,0,0-.47,4.43,4.43,0,0,0-.06-.51,2.71,2.71,0,0,0-.12-.51,1.53,1.53,0,0,0-.23-.44,1,1,0,0,0-.34-.31.9.9,0,0,0-.48-.12,1,1,0,0,0-.48.12,1.24,1.24,0,0,0-.34.31,1.51,1.51,0,0,0-.22.44,2.72,2.72,0,0,0-.13.51,4.43,4.43,0,0,0-.06.51C54.81,252.32,54.8,252.48,54.8,252.62Z"/><path d="M61,255.79l-.51-.2,2.41-6.14.51.19Z"/><path d="M70.36,251a1.52,1.52,0,0,0-.64-.51,1.78,1.78,0,0,0-.78-.18,2,2,0,0,0-.87.2,2.13,2.13,0,0,0-.68.51,2.58,2.58,0,0,0-.45.75,2.51,2.51,0,0,0-.16.9,2.54,2.54,0,0,0,.16.92,2.46,2.46,0,0,0,.44.74,2.09,2.09,0,0,0,1.56.69,2,2,0,0,0,.93-.21,2.07,2.07,0,0,0,.71-.58l.5.42a2.29,2.29,0,0,1-.92.75,3,3,0,0,1-1.22.24,2.93,2.93,0,0,1-1.14-.22,2.88,2.88,0,0,1-.91-.62,3,3,0,0,1-.61-.94,3.07,3.07,0,0,1-.22-1.19,3.2,3.2,0,0,1,.21-1.17,2.84,2.84,0,0,1,.6-.95,3,3,0,0,1,.91-.63,2.93,2.93,0,0,1,1.16-.23,3,3,0,0,1,1.11.21,2,2,0,0,1,.89.68Z"/><path d="M74.2,255.45h-.68v-4.8h0l-1,.85-.4-.48,1.52-1.24h.59Z"/><path d="M76.37,251.17a1.33,1.33,0,0,1,.13-.61,1.2,1.2,0,0,1,.34-.46,1.44,1.44,0,0,1,.51-.3,1.92,1.92,0,0,1,1.28,0,1.44,1.44,0,0,1,.51.3,1.32,1.32,0,0,1,.34.46,1.48,1.48,0,0,1,.12.61,1.44,1.44,0,0,1-.06.4,1.41,1.41,0,0,1-.18.37,1.18,1.18,0,0,1-.3.29,1,1,0,0,1-.38.19h0a1.44,1.44,0,0,1,.46.19,1.35,1.35,0,0,1,.35.32,1.67,1.67,0,0,1,.23.44,1.7,1.7,0,0,1,.08.51,1.74,1.74,0,0,1-.14.69,1.46,1.46,0,0,1-.39.52,1.47,1.47,0,0,1-.57.33,2.35,2.35,0,0,1-1.42,0,1.59,1.59,0,0,1-.58-.33,1.43,1.43,0,0,1-.38-.52,1.74,1.74,0,0,1-.14-.69,1.7,1.7,0,0,1,.08-.51,1.65,1.65,0,0,1,.22-.44,1.59,1.59,0,0,1,.36-.32,1.44,1.44,0,0,1,.46-.19h0a1.18,1.18,0,0,1-.39-.19,1.33,1.33,0,0,1-.29-.29,1.41,1.41,0,0,1-.18-.37A1.16,1.16,0,0,1,76.37,251.17Zm.48,2.67a1.14,1.14,0,0,0,.09.46,1.21,1.21,0,0,0,.24.35,1.16,1.16,0,0,0,.36.23A1.13,1.13,0,0,0,78,255a1,1,0,0,0,.44-.09,1,1,0,0,0,.36-.23,1.07,1.07,0,0,0,.25-.35,1.36,1.36,0,0,0,0-.92,1.07,1.07,0,0,0-.25-.35,1,1,0,0,0-.36-.23,1,1,0,0,0-.44-.09,1.13,1.13,0,0,0-.45.09,1.16,1.16,0,0,0-.36.23,1.21,1.21,0,0,0-.24.35A1.14,1.14,0,0,0,76.85,253.84ZM77,251.2a.92.92,0,0,0,.26.67.93.93,0,0,0,.69.27.9.9,0,0,0,.68-.27,1,1,0,0,0,0-1.34.9.9,0,0,0-.68-.27.93.93,0,0,0-.69.27A.92.92,0,0,0,77,251.2Z"/><path d="M80.52,252.62a5.77,5.77,0,0,1,.08-1,3.1,3.1,0,0,1,.29-1,2,2,0,0,1,.59-.71,1.6,1.6,0,0,1,1-.27,1.55,1.55,0,0,1,1,.27,1.94,1.94,0,0,1,.59.71,3.41,3.41,0,0,1,.3,1,7,7,0,0,1,.08,1,7.07,7.07,0,0,1-.08,1,3.45,3.45,0,0,1-.3.94,1.94,1.94,0,0,1-.59.71,1.55,1.55,0,0,1-1,.27,1.6,1.6,0,0,1-1-.27,2,2,0,0,1-.59-.71,3.13,3.13,0,0,1-.29-.94A5.85,5.85,0,0,1,80.52,252.62Zm.67,0a3.86,3.86,0,0,0,0,.46c0,.17,0,.34.05.52a4.07,4.07,0,0,0,.13.5,1.41,1.41,0,0,0,.23.44.92.92,0,0,0,.34.31.9.9,0,0,0,.48.12,1,1,0,0,0,.48-.12,1.1,1.1,0,0,0,.34-.31,1.65,1.65,0,0,0,.22-.44,2.83,2.83,0,0,0,.13-.5,4.88,4.88,0,0,0,.06-.52c0-.17,0-.33,0-.46s0-.3,0-.47a4.43,4.43,0,0,0-.06-.51,2.72,2.72,0,0,0-.13-.51,1.81,1.81,0,0,0-.22-.44,1.24,1.24,0,0,0-.34-.31,1,1,0,0,0-.48-.12.9.9,0,0,0-.48.12,1,1,0,0,0-.34.31,1.53,1.53,0,0,0-.23.44,3.8,3.8,0,0,0-.13.51c0,.17,0,.34-.05.51A3.94,3.94,0,0,0,81.19,252.62Z"/><line class="cls-2" x1="214.49" y1="253.42" x2="215.03" y2="253.42"/><line class="cls-2" x1="217.76" y1="253.42" x2="218.3" y2="253.42"/><line class="cls-2" x1="221.02" y1="253.42" x2="221.56" y2="253.42"/><line class="cls-2" x1="224.29" y1="253.42" x2="224.83" y2="253.42"/><line class="cls-2" x1="227.55" y1="253.42" x2="228.09" y2="253.42"/></g><g id="KELVIN_EDGE" data-name="KELVIN EDGE"><g id="Kelvin_Edge_F34560"><path d="M54.83,12.66h4.39v.78H55.67v2.34H59v.78h-3.3v3.18h-.84Z"/><path d="M61.55,15.66h.26a3.56,3.56,0,0,0,.55,0,1.52,1.52,0,0,0,.52-.17,1,1,0,0,0,.54-1,1.11,1.11,0,0,0-.33-.85,1.25,1.25,0,0,0-.88-.32,1.51,1.51,0,0,0-.78.2,1.37,1.37,0,0,0-.52.59l-.81-.31a1.8,1.8,0,0,1,.82-.9,2.54,2.54,0,0,1,1.23-.3,2.74,2.74,0,0,1,.81.12,2.14,2.14,0,0,1,.67.35,1.65,1.65,0,0,1,.46.58,1.81,1.81,0,0,1,.17.8,1.67,1.67,0,0,1-.33,1,1.76,1.76,0,0,1-.88.61v0a1.71,1.71,0,0,1,.61.22,1.9,1.9,0,0,1,.45.4,1.6,1.6,0,0,1,.29.53,1.89,1.89,0,0,1,.1.63,1.91,1.91,0,0,1-.19.89,2,2,0,0,1-.51.64,2.27,2.27,0,0,1-.74.39,3,3,0,0,1-.9.13,2.78,2.78,0,0,1-1.41-.35,2,2,0,0,1-.87-1.14l.85-.28a1.3,1.3,0,0,0,1.43,1.05,1.47,1.47,0,0,0,.56-.1,1.32,1.32,0,0,0,.77-.72,1.48,1.48,0,0,0,.11-.57,1.28,1.28,0,0,0-.15-.65,1.18,1.18,0,0,0-.41-.42,1.85,1.85,0,0,0-.58-.23,2.81,2.81,0,0,0-.65-.07h-.26Z"/><path d="M69.26,17.34h1v.78h-1v1.62h-.84V18.12h-3v-.93l2.81-4.53h1Zm-.84-3.7h0l-2.26,3.7h2.28Z"/><path d="M75.37,13.44H72.48l0,1.91a1.25,1.25,0,0,1,.45-.13,2.45,2.45,0,0,1,.46,0,2.34,2.34,0,0,1,.93.18,2.06,2.06,0,0,1,.71.49,2.15,2.15,0,0,1,.46.74,2.51,2.51,0,0,1,.16.92,2.54,2.54,0,0,1-.18,1,2.44,2.44,0,0,1-.51.74,2.42,2.42,0,0,1-.77.47,2.78,2.78,0,0,1-1,.17,2.22,2.22,0,0,1-1.3-.35,2.43,2.43,0,0,1-.79-.94l.84-.32a1.61,1.61,0,0,0,.53.65,1.34,1.34,0,0,0,.79.24,1.73,1.73,0,0,0,.6-.11,1.58,1.58,0,0,0,.48-.33,1.82,1.82,0,0,0,.32-.52,1.78,1.78,0,0,0,.12-.67,1.67,1.67,0,0,0-.13-.69,1.45,1.45,0,0,0-.37-.5,1.61,1.61,0,0,0-.56-.31,2.19,2.19,0,0,0-1.43,0,3.17,3.17,0,0,0-.7.31l.07-3.68h3.71Z"/><path d="M78.23,15.61l0,0a1.53,1.53,0,0,1,.47-.16,2.8,2.8,0,0,1,.48-.05,2.23,2.23,0,0,1,.86.16,2,2,0,0,1,.68.46,2.09,2.09,0,0,1,.44.7,2.36,2.36,0,0,1,.16.9,2.27,2.27,0,0,1-.18.93,2.08,2.08,0,0,1-.5.7,2.32,2.32,0,0,1-.75.44,2.89,2.89,0,0,1-.94.15,2.83,2.83,0,0,1-.93-.15,2.37,2.37,0,0,1-.76-.44,2.08,2.08,0,0,1-.5-.7,2.27,2.27,0,0,1-.18-.93,2.73,2.73,0,0,1,.19-1.07,6.75,6.75,0,0,1,.48-.92l1.88-3h1Zm.74.53a1.73,1.73,0,0,0-.6.11,1.31,1.31,0,0,0-.48.3,1.33,1.33,0,0,0-.33.47,1.56,1.56,0,0,0-.12.62,1.61,1.61,0,0,0,.12.63,1.43,1.43,0,0,0,.33.47,1.31,1.31,0,0,0,.48.3,1.85,1.85,0,0,0,1.2,0,1.44,1.44,0,0,0,.49-.3,1.56,1.56,0,0,0,.32-.47,1.61,1.61,0,0,0,.12-.63,1.56,1.56,0,0,0-.12-.62,1.36,1.36,0,0,0-.81-.77A1.73,1.73,0,0,0,79,16.14Z"/><path d="M82.13,16.2a7.79,7.79,0,0,1,.1-1.25,4,4,0,0,1,.37-1.18,2.44,2.44,0,0,1,.74-.88,1.93,1.93,0,0,1,1.19-.35,2,2,0,0,1,1.2.35,2.41,2.41,0,0,1,.73.88A4,4,0,0,1,86.83,15a7.86,7.86,0,0,1,0,2.5,4.14,4.14,0,0,1-.37,1.19,2.5,2.5,0,0,1-.73.88,2,2,0,0,1-1.2.34,1.93,1.93,0,0,1-1.19-.34,2.53,2.53,0,0,1-.74-.88,4.14,4.14,0,0,1-.37-1.19A7.79,7.79,0,0,1,82.13,16.2Zm.84,0c0,.17,0,.37,0,.58a5,5,0,0,0,.08.65,3.64,3.64,0,0,0,.16.63,1.9,1.9,0,0,0,.28.55,1.31,1.31,0,0,0,.42.39,1.36,1.36,0,0,0,1.2,0,1.45,1.45,0,0,0,.43-.39,2.19,2.19,0,0,0,.28-.55,4.85,4.85,0,0,0,.16-.63c0-.22.06-.44.07-.65s0-.41,0-.58,0-.37,0-.58,0-.43-.07-.64a4.61,4.61,0,0,0-.16-.64,2.19,2.19,0,0,0-.28-.55,1.3,1.3,0,0,0-.43-.38,1.27,1.27,0,0,0-1.2,0,1.18,1.18,0,0,0-.42.38,1.9,1.9,0,0,0-.28.55,3.53,3.53,0,0,0-.16.64,4.66,4.66,0,0,0-.08.64C83,15.83,83,16,83,16.2Z"/><path d="M87.31,20.49h5V21h-5Z"/><path d="M93.07,14.39a1.73,1.73,0,0,1,.16-.76,1.63,1.63,0,0,1,.42-.58,1.92,1.92,0,0,1,.64-.37,2.36,2.36,0,0,1,1.6,0,1.92,1.92,0,0,1,.64.37,1.79,1.79,0,0,1,.43.58,1.87,1.87,0,0,1,.15.76,1.74,1.74,0,0,1-.08.5,1.53,1.53,0,0,1-.23.46,1.8,1.8,0,0,1-.36.37A1.47,1.47,0,0,1,96,16v0a1.87,1.87,0,0,1,.58.24,1.68,1.68,0,0,1,.44.4,2,2,0,0,1,.38,1.18,2.21,2.21,0,0,1-.17.87,2.07,2.07,0,0,1-.48.65,2.14,2.14,0,0,1-.72.41,2.91,2.91,0,0,1-.89.14,2.8,2.8,0,0,1-.88-.14,2,2,0,0,1-.72-.41,1.81,1.81,0,0,1-.48-.65,2.05,2.05,0,0,1-.18-.87,2,2,0,0,1,.38-1.18,1.68,1.68,0,0,1,.44-.4,1.87,1.87,0,0,1,.58-.24v0a1.34,1.34,0,0,1-.48-.23,1.62,1.62,0,0,1-.37-.37,1.53,1.53,0,0,1-.23-.46A1.74,1.74,0,0,1,93.07,14.39Zm.6,3.34a1.48,1.48,0,0,0,.11.57,1.39,1.39,0,0,0,.31.45,1.51,1.51,0,0,0,.45.29,1.42,1.42,0,0,0,.55.1,1.47,1.47,0,0,0,.56-.1,1.51,1.51,0,0,0,.45-.29,1.37,1.37,0,0,0,.3-.45,1.53,1.53,0,0,0,0-1.14,1.23,1.23,0,0,0-.3-.44,1.34,1.34,0,0,0-.45-.29,1.47,1.47,0,0,0-.56-.11,1.42,1.42,0,0,0-.55.11,1.34,1.34,0,0,0-.45.29,1.25,1.25,0,0,0-.31.44A1.48,1.48,0,0,0,93.67,17.73Zm.24-3.3a1.13,1.13,0,0,0,1.18,1.17,1.17,1.17,0,1,0,0-2.34,1.13,1.13,0,0,0-1.18,1.17Z"/><path d="M97.93,12.66h.93l1.61,5.88h0l1.74-5.88h.94l1.73,5.88h0l1.64-5.88h.88l-2.08,7.08h-.91l-1.75-6h0l-1.76,6H100Z"/><path d="M111.09,12.66h.84V19h3.24v.78h-4.08Z"/><path d="M116.09,12.66h4.45v.78h-3.61v2.22h3.37v.78h-3.37V19h3.79v.78h-4.63Z"/><path d="M121.89,12.66h2.72a4,4,0,0,1,.74.08,3.18,3.18,0,0,1,.77.26,3.25,3.25,0,0,1,.75.45,3.12,3.12,0,0,1,.62.68,3.33,3.33,0,0,1,.43.91,3.78,3.78,0,0,1,.16,1.16,3.9,3.9,0,0,1-.16,1.17,3.64,3.64,0,0,1-.43.91,3.31,3.31,0,0,1-.62.67,3.69,3.69,0,0,1-.75.46,3.64,3.64,0,0,1-.77.25,4,4,0,0,1-.74.08h-2.72Zm.84,6.3h1.6a3.72,3.72,0,0,0,1.13-.16,2.26,2.26,0,0,0,1.5-1.35,3.14,3.14,0,0,0,.22-1.25A3.14,3.14,0,0,0,127,15a2.32,2.32,0,0,0-1.5-1.35,3.72,3.72,0,0,0-1.13-.16h-1.6Z"/><rect class="cls-3" x="54.95" y="42.63" width="189.86" height="189.86"/><circle class="cls-4" cx="149.88" cy="137.51" r="23.71"/><path d="M153.41,168.26h-.67v-4.8h0l-1,.86-.4-.49,1.52-1.23h.58Z"/><path d="M155.23,165.43a7.07,7.07,0,0,1,.08-1,3.45,3.45,0,0,1,.3-.94,1.86,1.86,0,0,1,.59-.71,1.77,1.77,0,0,1,1.91,0,2,2,0,0,1,.59.71,3.45,3.45,0,0,1,.3.94,7,7,0,0,1,.07,1,6.92,6.92,0,0,1-.07,1,3.41,3.41,0,0,1-.3.95,1.92,1.92,0,0,1-.59.7,1.77,1.77,0,0,1-1.91,0,1.83,1.83,0,0,1-.59-.7,3.41,3.41,0,0,1-.3-.95A7,7,0,0,1,155.23,165.43Zm.68,0c0,.14,0,.3,0,.47a4.43,4.43,0,0,0,.06.51,2.72,2.72,0,0,0,.13.51,1.81,1.81,0,0,0,.22.44,1.24,1.24,0,0,0,.34.31,1,1,0,0,0,.48.12.9.9,0,0,0,.48-.12,1,1,0,0,0,.34-.31,1.53,1.53,0,0,0,.23-.44,3.8,3.8,0,0,0,.13-.51,4.43,4.43,0,0,0,.06-.51c0-.17,0-.33,0-.47s0-.29,0-.46a4.88,4.88,0,0,0-.06-.52,4.07,4.07,0,0,0-.13-.5,1.59,1.59,0,0,0-.23-.45,1,1,0,0,0-.34-.3.9.9,0,0,0-.48-.12,1,1,0,0,0-.48.12,1.21,1.21,0,0,0-.34.3,1.88,1.88,0,0,0-.22.45,2.83,2.83,0,0,0-.13.5,4.88,4.88,0,0,0-.06.52C155.91,165.14,155.91,165.29,155.91,165.43Z"/><path d="M159.68,165.43a7.07,7.07,0,0,1,.08-1,3.14,3.14,0,0,1,.3-.94,1.86,1.86,0,0,1,.59-.71,1.55,1.55,0,0,1,.95-.28,1.61,1.61,0,0,1,1,.28,2,2,0,0,1,.59.71,3.13,3.13,0,0,1,.29.94,5.85,5.85,0,0,1,.08,1,5.77,5.77,0,0,1-.08,1,3.1,3.1,0,0,1-.29.95,1.92,1.92,0,0,1-.59.7,1.54,1.54,0,0,1-1,.28,1.49,1.49,0,0,1-.95-.28,1.83,1.83,0,0,1-.59-.7,3.11,3.11,0,0,1-.3-.95A7,7,0,0,1,159.68,165.43Zm.67,0c0,.14,0,.3,0,.47a4.43,4.43,0,0,0,.06.51,2.72,2.72,0,0,0,.13.51,1.51,1.51,0,0,0,.22.44,1.24,1.24,0,0,0,.34.31.92.92,0,0,0,.48.12.9.9,0,0,0,.48-.12,1.12,1.12,0,0,0,.34-.31,1.53,1.53,0,0,0,.23-.44,3.81,3.81,0,0,0,.12-.51,4.43,4.43,0,0,0,.06-.51c0-.17,0-.33,0-.47s0-.29,0-.46a4.88,4.88,0,0,0-.06-.52,4.05,4.05,0,0,0-.12-.5,1.59,1.59,0,0,0-.23-.45,1.08,1.08,0,0,0-.34-.3.9.9,0,0,0-.48-.12.92.92,0,0,0-.48.12,1.21,1.21,0,0,0-.34.3,1.57,1.57,0,0,0-.22.45,2.83,2.83,0,0,0-.13.5,4.88,4.88,0,0,0-.06.52C160.36,165.14,160.35,165.29,160.35,165.43Z"/><circle class="cls-4" cx="149.88" cy="137.51" r="47.41"/><path d="M150.93,191.2l2.14-2.08.35-.35a3.14,3.14,0,0,0,.25-.32,1.09,1.09,0,0,0,.15-.33,1.38,1.38,0,0,0,.05-.37,1,1,0,0,0-.08-.4,1,1,0,0,0-.22-.3.92.92,0,0,0-.33-.19,1.1,1.1,0,0,0-.41-.07,1,1,0,0,0-.71.25,1.19,1.19,0,0,0-.36.65l-.73-.06a1.64,1.64,0,0,1,.22-.61,1.41,1.41,0,0,1,.39-.45,1.89,1.89,0,0,1,.53-.27,2.2,2.2,0,0,1,.64-.09,2.34,2.34,0,0,1,.66.1,1.8,1.8,0,0,1,.55.29,1.5,1.5,0,0,1,.38.48,1.6,1.6,0,0,1,.14.67,2,2,0,0,1-.09.61,2.92,2.92,0,0,1-.25.5,4.7,4.7,0,0,1-.35.43c-.13.13-.27.27-.42.4l-1.74,1.64v0h2.89V192h-3.65Z"/><path d="M155.23,189.14a7.07,7.07,0,0,1,.08-1,3.52,3.52,0,0,1,.3-.95,1.91,1.91,0,0,1,.59-.7,1.77,1.77,0,0,1,1.91,0,2,2,0,0,1,.59.7,3.52,3.52,0,0,1,.3.95,7.18,7.18,0,0,1,0,2,3.52,3.52,0,0,1-.3,1,2,2,0,0,1-.59.7,1.77,1.77,0,0,1-1.91,0,1.91,1.91,0,0,1-.59-.7,3.52,3.52,0,0,1-.3-1A7.07,7.07,0,0,1,155.23,189.14Zm.68,0c0,.14,0,.29,0,.46a4.6,4.6,0,0,0,.06.52,3.18,3.18,0,0,0,.13.51,2,2,0,0,0,.22.44,1.07,1.07,0,0,0,.34.3,1,1,0,0,0,.48.12,1,1,0,0,0,.82-.42,1.67,1.67,0,0,0,.23-.44,4.77,4.77,0,0,0,.13-.51,4.6,4.6,0,0,0,.06-.52c0-.17,0-.32,0-.46s0-.29,0-.46a4.35,4.35,0,0,0-.06-.52,4.77,4.77,0,0,0-.13-.51,1.67,1.67,0,0,0-.23-.44,1,1,0,0,0-.34-.31,1,1,0,0,0-.48-.11,1.06,1.06,0,0,0-.48.11,1.24,1.24,0,0,0-.34.31,2,2,0,0,0-.22.44,3.18,3.18,0,0,0-.13.51,4.35,4.35,0,0,0-.06.52C155.91,188.85,155.91,189,155.91,189.14Z"/><path d="M159.68,189.14a7.07,7.07,0,0,1,.08-1,3.2,3.2,0,0,1,.3-.95,1.91,1.91,0,0,1,.59-.7,1.49,1.49,0,0,1,.95-.28,1.54,1.54,0,0,1,1,.28,2,2,0,0,1,.59.7,3.19,3.19,0,0,1,.29.95,6.29,6.29,0,0,1,0,2,3.19,3.19,0,0,1-.29,1,2,2,0,0,1-.59.7,1.54,1.54,0,0,1-1,.28,1.49,1.49,0,0,1-.95-.28,1.91,1.91,0,0,1-.59-.7,3.2,3.2,0,0,1-.3-1A7.07,7.07,0,0,1,159.68,189.14Zm.67,0c0,.14,0,.29,0,.46a4.6,4.6,0,0,0,.06.52,3.18,3.18,0,0,0,.13.51,1.65,1.65,0,0,0,.22.44,1.07,1.07,0,0,0,.34.3.92.92,0,0,0,.48.12.9.9,0,0,0,.48-.12,1,1,0,0,0,.34-.3,1.67,1.67,0,0,0,.23-.44,4.7,4.7,0,0,0,.12-.51,4.6,4.6,0,0,0,.06-.52c0-.17,0-.32,0-.46s0-.29,0-.46a4.35,4.35,0,0,0-.06-.52,4.7,4.7,0,0,0-.12-.51,1.67,1.67,0,0,0-.23-.44,1.12,1.12,0,0,0-.34-.31,1,1,0,0,0-.48-.11,1,1,0,0,0-.48.11,1.24,1.24,0,0,0-.34.31,1.65,1.65,0,0,0-.22.44,3.18,3.18,0,0,0-.13.51,4.35,4.35,0,0,0-.06.52C160.36,188.85,160.35,189,160.35,189.14Z"/><circle class="cls-4" cx="149.88" cy="137.51" r="71.17"/><path d="M152.16,212.47h.21a2.32,2.32,0,0,0,.44,0,1.1,1.1,0,0,0,.41-.13.81.81,0,0,0,.31-.3.89.89,0,0,0,.13-.52.88.88,0,0,0-.27-.68,1,1,0,0,0-.7-.25,1.12,1.12,0,0,0-.62.16,1,1,0,0,0-.42.47l-.65-.25a1.48,1.48,0,0,1,.65-.72,2.07,2.07,0,0,1,1-.24,2,2,0,0,1,.65.1,1.55,1.55,0,0,1,.54.28,1.27,1.27,0,0,1,.36.46,1.31,1.31,0,0,1,.14.64,1.27,1.27,0,0,1-.27.8,1.36,1.36,0,0,1-.7.5h0a1.31,1.31,0,0,1,.49.18,1.34,1.34,0,0,1,.36.31,1.37,1.37,0,0,1,.23.43,1.44,1.44,0,0,1,.08.51,1.49,1.49,0,0,1-.56,1.22,1.75,1.75,0,0,1-.59.31,2.46,2.46,0,0,1-.72.11,2.28,2.28,0,0,1-1.13-.28,1.58,1.58,0,0,1-.69-.92l.68-.22a1,1,0,0,0,1.14.84,1.33,1.33,0,0,0,.45-.08,1.13,1.13,0,0,0,.61-.58,1.13,1.13,0,0,0,.09-.45,1.09,1.09,0,0,0-.12-.53.87.87,0,0,0-.33-.33,1.7,1.7,0,0,0-.46-.18,2.24,2.24,0,0,0-.52-.06h-.21Z"/><path d="M155.23,212.9a7.07,7.07,0,0,1,.08-1,3.52,3.52,0,0,1,.3-1,1.91,1.91,0,0,1,.59-.7,1.77,1.77,0,0,1,1.91,0,2,2,0,0,1,.59.7,3.52,3.52,0,0,1,.3,1,7.18,7.18,0,0,1,0,2,3.52,3.52,0,0,1-.3.95,2,2,0,0,1-.59.7,1.77,1.77,0,0,1-1.91,0,1.91,1.91,0,0,1-.59-.7,3.52,3.52,0,0,1-.3-.95A7.07,7.07,0,0,1,155.23,212.9Zm.68,0c0,.14,0,.29,0,.46a4.6,4.6,0,0,0,.06.52,3.18,3.18,0,0,0,.13.51,2,2,0,0,0,.22.44,1.21,1.21,0,0,0,.34.3,1,1,0,0,0,.48.12.9.9,0,0,0,.48-.12,1,1,0,0,0,.34-.3,1.67,1.67,0,0,0,.23-.44,4.77,4.77,0,0,0,.13-.51,4.6,4.6,0,0,0,.06-.52c0-.17,0-.32,0-.46s0-.29,0-.47a4.43,4.43,0,0,0-.06-.51,4.77,4.77,0,0,0-.13-.51A1.67,1.67,0,0,0,158,211a1,1,0,0,0-.34-.31.9.9,0,0,0-.48-.11,1,1,0,0,0-.48.11,1.24,1.24,0,0,0-.34.31,2,2,0,0,0-.22.44,3.18,3.18,0,0,0-.13.51,4.43,4.43,0,0,0-.06.51C155.91,212.61,155.91,212.76,155.91,212.9Z"/><path d="M159.68,212.9a7.07,7.07,0,0,1,.08-1,3.2,3.2,0,0,1,.3-1,1.91,1.91,0,0,1,.59-.7,1.49,1.49,0,0,1,.95-.28,1.54,1.54,0,0,1,1,.28,2,2,0,0,1,.59.7,3.19,3.19,0,0,1,.29,1,6.29,6.29,0,0,1,0,2,3.19,3.19,0,0,1-.29.95,2,2,0,0,1-.59.7,1.61,1.61,0,0,1-1,.28,1.55,1.55,0,0,1-.95-.28,1.91,1.91,0,0,1-.59-.7,3.2,3.2,0,0,1-.3-.95A7.07,7.07,0,0,1,159.68,212.9Zm.67,0c0,.14,0,.29,0,.46a4.6,4.6,0,0,0,.06.52,3.18,3.18,0,0,0,.13.51,1.65,1.65,0,0,0,.22.44,1.21,1.21,0,0,0,.34.3.92.92,0,0,0,.48.12.9.9,0,0,0,.48-.12,1.08,1.08,0,0,0,.34-.3,1.67,1.67,0,0,0,.23-.44,4.7,4.7,0,0,0,.12-.51,4.6,4.6,0,0,0,.06-.52c0-.17,0-.32,0-.46s0-.29,0-.47a4.43,4.43,0,0,0-.06-.51,4.7,4.7,0,0,0-.12-.51,1.67,1.67,0,0,0-.23-.44,1.12,1.12,0,0,0-.34-.31.9.9,0,0,0-.48-.11.92.92,0,0,0-.48.11,1.24,1.24,0,0,0-.34.31,1.65,1.65,0,0,0-.22.44,3.18,3.18,0,0,0-.13.51,4.43,4.43,0,0,0-.06.51C160.36,212.61,160.35,212.76,160.35,212.9Z"/><circle class="cls-4" cx="149.88" cy="137.51" r="94.93"/><line class="cls-4" x1="54.95" y1="137.56" x2="244.87" y2="137.56"/><line class="cls-4" x1="149.88" y1="232.5" x2="149.88" y2="42.58"/><line class="cls-4" x1="95.13" y1="42.58" x2="204.69" y2="232.5"/><line class="cls-4" x1="95.13" y1="232.5" x2="204.69" y2="42.58"/><line class="cls-4" x1="54.95" y1="82.75" x2="244.87" y2="192.32"/><line class="cls-4" x1="54.95" y1="192.32" x2="244.87" y2="82.75"/><line class="cls-1" x1="149.88" y1="228.99" x2="151.5" y2="228.99"/><line class="cls-1" x1="151.5" y1="228.99" x2="153.07" y2="228.99"/><line class="cls-1" x1="153.07" y1="228.99" x2="154.69" y2="228.93"/><line class="cls-1" x1="154.69" y1="228.93" x2="156.25" y2="228.88"/><line class="cls-1" x1="156.25" y1="228.88" x2="157.87" y2="228.82"/><line class="cls-1" x1="157.87" y1="228.82" x2="159.49" y2="228.72"/><line class="cls-1" x1="159.49" y1="228.72" x2="161.06" y2="228.61"/><line class="cls-1" x1="161.06" y1="228.61" x2="162.68" y2="228.5"/><line class="cls-1" x1="162.68" y1="228.5" x2="164.25" y2="228.39"/><line class="cls-1" x1="164.25" y1="228.39" x2="165.87" y2="228.18"/><line class="cls-1" x1="165.87" y1="228.18" x2="167.49" y2="228.01"/><line class="cls-1" x1="167.49" y1="228.01" x2="169.05" y2="227.8"/><line class="cls-1" x1="169.05" y1="227.8" x2="170.67" y2="227.58"/><line class="cls-1" x1="170.67" y1="227.58" x2="172.29" y2="227.31"/><line class="cls-1" x1="172.29" y1="227.31" x2="173.86" y2="226.99"/><line class="cls-1" x1="173.86" y1="226.99" x2="175.42" y2="226.66"/><line class="cls-1" x1="175.42" y1="226.66" x2="177.04" y2="226.29"/><line class="cls-1" x1="177.04" y1="226.29" x2="178.61" y2="225.85"/><line class="cls-1" x1="178.61" y1="225.85" x2="180.12" y2="225.42"/><line class="cls-1" x1="180.12" y1="225.42" x2="181.69" y2="224.88"/><line class="cls-1" x1="181.69" y1="224.88" x2="183.2" y2="224.34"/><line class="cls-1" x1="183.2" y1="224.34" x2="184.71" y2="223.69"/><line class="cls-1" x1="184.71" y1="223.69" x2="186.17" y2="222.99"/><line class="cls-1" x1="186.17" y1="222.99" x2="187.63" y2="222.24"/><line class="cls-1" x1="187.63" y1="222.24" x2="188.98" y2="221.37"/><line class="cls-1" x1="188.98" y1="221.37" x2="190.33" y2="220.45"/><line class="cls-1" x1="190.33" y1="220.45" x2="191.62" y2="219.48"/><line class="cls-1" x1="191.62" y1="219.48" x2="192.87" y2="218.35"/><line class="cls-1" x1="192.87" y1="218.35" x2="194.05" y2="217.16"/><line class="cls-1" x1="194.05" y1="217.16" x2="195.13" y2="215.86"/><line class="cls-1" x1="195.13" y1="215.86" x2="196.11" y2="214.46"/><line class="cls-1" x1="196.11" y1="214.46" x2="197.02" y2="213"/><line class="cls-1" x1="197.02" y1="213" x2="197.83" y2="211.38"/><line class="cls-1" x1="197.83" y1="211.38" x2="198.54" y2="209.65"/><line class="cls-1" x1="198.54" y1="209.65" x2="199.13" y2="207.82"/><line class="cls-1" x1="199.13" y1="207.82" x2="199.56" y2="205.87"/><line class="cls-1" x1="199.56" y1="205.87" x2="199.89" y2="203.88"/><line class="cls-1" x1="199.89" y1="203.88" x2="200.1" y2="201.77"/><line class="cls-1" x1="200.1" y1="201.77" x2="200.16" y2="199.61"/><line class="cls-1" x1="200.16" y1="199.61" x2="200.1" y2="197.34"/><line class="cls-1" x1="200.1" y1="197.34" x2="199.83" y2="194.97"/><line class="cls-1" x1="199.83" y1="194.97" x2="199.51" y2="192.64"/><line class="cls-1" x1="199.51" y1="192.64" x2="199.02" y2="190.21"/><line class="cls-1" x1="199.02" y1="190.21" x2="198.43" y2="187.78"/><line class="cls-1" x1="198.43" y1="187.78" x2="197.67" y2="185.3"/><line class="cls-1" x1="197.67" y1="185.3" x2="196.86" y2="182.87"/><line class="cls-1" x1="196.86" y1="182.87" x2="195.89" y2="180.44"/><line class="cls-1" x1="195.89" y1="180.44" x2="194.86" y2="178.01"/><line class="cls-1" x1="194.86" y1="178.01" x2="193.78" y2="175.69"/><line class="cls-1" x1="193.78" y1="175.69" x2="192.6" y2="173.31"/><line class="cls-1" x1="192.6" y1="173.31" x2="191.35" y2="171.1"/><line class="cls-1" x1="191.35" y1="171.1" x2="190.06" y2="168.88"/><line class="cls-1" x1="190.06" y1="168.88" x2="188.71" y2="166.78"/><line class="cls-1" x1="188.71" y1="166.78" x2="187.36" y2="164.73"/><line class="cls-1" x1="187.36" y1="164.73" x2="185.95" y2="162.78"/><line class="cls-1" x1="185.95" y1="162.78" x2="184.55" y2="160.89"/><line class="cls-1" x1="184.55" y1="160.89" x2="183.2" y2="159.11"/><line class="cls-1" x1="183.2" y1="159.11" x2="181.74" y2="157.44"/><line class="cls-1" x1="181.74" y1="157.44" x2="180.39" y2="155.82"/><line class="cls-1" x1="180.39" y1="155.82" x2="178.99" y2="154.3"/><line class="cls-1" x1="178.99" y1="154.3" x2="177.58" y2="152.9"/><line class="cls-1" x1="177.58" y1="152.9" x2="176.23" y2="151.55"/><line class="cls-1" x1="176.23" y1="151.55" x2="174.88" y2="150.25"/><line class="cls-1" x1="174.88" y1="150.25" x2="173.59" y2="149.07"/><line class="cls-1" x1="173.59" y1="149.07" x2="172.29" y2="147.99"/><line class="cls-1" x1="172.29" y1="147.99" x2="171" y2="146.91"/><line class="cls-1" x1="171" y1="146.91" x2="169.75" y2="145.93"/><line class="cls-1" x1="169.75" y1="145.93" x2="168.51" y2="145.02"/><line class="cls-1" x1="168.51" y1="145.02" x2="167.32" y2="144.21"/><line class="cls-1" x1="167.32" y1="144.21" x2="166.08" y2="143.4"/><line class="cls-1" x1="166.08" y1="143.4" x2="164.95" y2="142.69"/><line class="cls-1" x1="164.95" y1="142.69" x2="163.81" y2="142.05"/><line class="cls-1" x1="163.81" y1="142.05" x2="162.73" y2="141.45"/><line class="cls-1" x1="162.73" y1="141.45" x2="161.65" y2="140.86"/><line class="cls-1" x1="161.65" y1="140.86" x2="160.52" y2="140.37"/><line class="cls-1" x1="160.52" y1="140.37" x2="159.49" y2="139.89"/><line class="cls-1" x1="159.49" y1="139.89" x2="158.52" y2="139.51"/><line class="cls-1" x1="158.52" y1="139.51" x2="157.5" y2="139.13"/><line class="cls-1" x1="157.5" y1="139.13" x2="156.58" y2="138.81"/><line class="cls-1" x1="156.58" y1="138.81" x2="155.66" y2="138.54"/><line class="cls-1" x1="155.66" y1="138.54" x2="154.8" y2="138.27"/><line class="cls-1" x1="154.8" y1="138.27" x2="153.99" y2="138.1"/><line class="cls-1" x1="153.99" y1="138.1" x2="153.18" y2="137.89"/><line class="cls-1" x1="153.18" y1="137.89" x2="152.47" y2="137.78"/><line class="cls-1" x1="152.47" y1="137.78" x2="151.77" y2="137.67"/><line class="cls-1" x1="151.77" y1="137.67" x2="151.23" y2="137.62"/><line class="cls-1" x1="151.23" y1="137.62" x2="150.75" y2="137.56"/><line class="cls-1" x1="150.75" y1="137.56" x2="150.42" y2="137.56"/><line class="cls-1" x1="150.42" y1="137.56" x2="150.21" y2="137.56"/><line class="cls-1" x1="150.21" y1="137.56" x2="150.1" y2="137.56"/><line class="cls-1" x1="150.1" y1="137.56" x2="149.88" y2="137.56"/><line class="cls-1" x1="149.88" y1="137.56" x2="149.88" y2="137.56"/><line class="cls-1" x1="149.88" y1="137.56" x2="149.88" y2="137.56"/><line class="cls-1" x1="149.88" y1="137.56" x2="149.88" y2="137.56"/><line class="cls-1" x1="149.88" y1="137.56" x2="149.88" y2="137.56"/><line class="cls-1" x1="149.88" y1="137.56" x2="149.88" y2="137.56"/><line class="cls-1" x1="149.88" y1="137.56" x2="149.88" y2="137.56"/><line class="cls-1" x1="149.88" y1="137.56" x2="149.88" y2="137.56"/><line class="cls-1" x1="149.88" y1="137.56" x2="149.88" y2="137.56"/><line class="cls-1" x1="149.88" y1="137.56" x2="149.88" y2="137.56"/><line class="cls-1" x1="149.88" y1="137.56" x2="149.88" y2="137.56"/><line class="cls-1" x1="149.88" y1="137.56" x2="149.88" y2="137.56"/><line class="cls-1" x1="149.88" y1="137.56" x2="149.88" y2="137.56"/><line class="cls-1" x1="149.88" y1="137.56" x2="149.88" y2="137.56"/><line class="cls-1" x1="149.88" y1="137.56" x2="149.88" y2="137.56"/><line class="cls-1" x1="149.88" y1="137.56" x2="149.88" y2="137.56"/><line class="cls-1" x1="149.88" y1="137.56" x2="149.88" y2="137.56"/><line class="cls-1" x1="149.88" y1="137.56" x2="149.88" y2="137.56"/><line class="cls-1" x1="149.88" y1="137.56" x2="149.88" y2="137.56"/><line class="cls-1" x1="149.88" y1="137.56" x2="149.88" y2="137.56"/><line class="cls-1" x1="149.88" y1="137.56" x2="149.88" y2="137.56"/><line class="cls-1" x1="149.88" y1="137.56" x2="149.88" y2="137.56"/><line class="cls-1" x1="149.88" y1="137.56" x2="149.88" y2="137.56"/><line class="cls-1" x1="149.88" y1="137.56" x2="149.88" y2="137.56"/><line class="cls-1" x1="149.88" y1="137.56" x2="149.88" y2="137.56"/><line class="cls-1" x1="149.88" y1="137.56" x2="149.88" y2="137.56"/><line class="cls-1" x1="149.88" y1="137.56" x2="149.88" y2="137.56"/><line class="cls-1" x1="149.88" y1="137.56" x2="149.88" y2="137.56"/><line class="cls-1" x1="149.88" y1="137.56" x2="149.88" y2="137.56"/><line class="cls-1" x1="149.88" y1="137.56" x2="149.88" y2="137.56"/><line class="cls-1" x1="149.88" y1="137.56" x2="149.88" y2="137.56"/><line class="cls-1" x1="149.88" y1="137.56" x2="149.88" y2="137.56"/><line class="cls-1" x1="149.88" y1="137.56" x2="149.88" y2="137.56"/><line class="cls-1" x1="149.88" y1="137.56" x2="149.88" y2="137.56"/><line class="cls-1" x1="149.88" y1="137.56" x2="149.88" y2="137.56"/><line class="cls-1" x1="149.88" y1="137.56" x2="149.88" y2="137.56"/><line class="cls-1" x1="149.88" y1="137.56" x2="149.88" y2="137.56"/><line class="cls-1" x1="149.88" y1="137.56" x2="149.88" y2="137.56"/><line class="cls-1" x1="149.88" y1="137.56" x2="149.88" y2="137.56"/><line class="cls-1" x1="149.88" y1="137.56" x2="149.88" y2="137.56"/><line class="cls-1" x1="149.88" y1="137.56" x2="149.88" y2="137.56"/><line class="cls-1" x1="149.88" y1="137.56" x2="149.88" y2="137.56"/><line class="cls-1" x1="149.88" y1="137.56" x2="149.88" y2="137.56"/><line class="cls-1" x1="149.88" y1="137.56" x2="149.88" y2="137.56"/><line class="cls-1" x1="149.88" y1="137.56" x2="149.88" y2="137.56"/><line class="cls-1" x1="149.88" y1="137.56" x2="149.88" y2="137.56"/><line class="cls-1" x1="149.88" y1="137.56" x2="149.88" y2="137.56"/><line class="cls-1" x1="149.88" y1="137.56" x2="149.88" y2="137.56"/><line class="cls-1" x1="149.88" y1="137.56" x2="149.88" y2="137.56"/><line class="cls-1" x1="149.88" y1="137.56" x2="149.88" y2="137.56"/><line class="cls-1" x1="149.88" y1="137.56" x2="149.88" y2="137.56"/><line class="cls-1" x1="149.88" y1="137.56" x2="149.88" y2="137.56"/><line class="cls-1" x1="149.88" y1="137.56" x2="149.88" y2="137.56"/><line class="cls-1" x1="149.88" y1="137.56" x2="149.88" y2="137.56"/><line class="cls-1" x1="149.88" y1="137.56" x2="149.88" y2="137.56"/><line class="cls-1" x1="149.88" y1="137.56" x2="149.88" y2="137.56"/><line class="cls-1" x1="149.88" y1="137.56" x2="149.88" y2="137.56"/><line class="cls-1" x1="149.88" y1="137.56" x2="149.88" y2="137.56"/><line class="cls-1" x1="149.88" y1="137.56" x2="149.88" y2="137.56"/><line class="cls-1" x1="149.88" y1="137.56" x2="149.88" y2="137.56"/><line class="cls-1" x1="149.88" y1="137.56" x2="149.88" y2="137.56"/><line class="cls-1" x1="149.88" y1="137.56" x2="149.88" y2="137.56"/><line class="cls-1" x1="149.88" y1="137.56" x2="149.88" y2="137.56"/><line class="cls-1" x1="149.88" y1="137.56" x2="149.88" y2="137.56"/><line class="cls-1" x1="149.88" y1="137.56" x2="149.88" y2="137.56"/><line class="cls-1" x1="149.88" y1="137.56" x2="149.88" y2="137.56"/><line class="cls-1" x1="149.88" y1="137.56" x2="149.88" y2="137.56"/><line class="cls-1" x1="149.88" y1="137.56" x2="149.88" y2="137.56"/><line class="cls-1" x1="149.88" y1="137.56" x2="149.88" y2="137.56"/><line class="cls-1" x1="149.88" y1="137.56" x2="149.88" y2="137.56"/><line class="cls-1" x1="149.88" y1="137.56" x2="149.88" y2="137.56"/><line class="cls-1" x1="149.88" y1="137.56" x2="149.88" y2="137.56"/><line class="cls-1" x1="149.88" y1="137.56" x2="149.88" y2="137.56"/><line class="cls-1" x1="149.88" y1="137.56" x2="149.88" y2="137.56"/><line class="cls-1" x1="149.88" y1="137.56" x2="149.88" y2="137.56"/><line class="cls-1" x1="149.88" y1="137.56" x2="149.88" y2="137.56"/><line class="cls-1" x1="149.88" y1="137.56" x2="149.88" y2="137.56"/><line class="cls-1" x1="149.88" y1="137.56" x2="149.88" y2="137.56"/><line class="cls-1" x1="149.88" y1="137.56" x2="149.88" y2="137.56"/><line class="cls-1" x1="149.88" y1="137.56" x2="149.88" y2="137.56"/><line class="cls-1" x1="149.88" y1="137.56" x2="149.88" y2="137.56"/><line class="cls-1" x1="149.88" y1="137.56" x2="149.88" y2="137.56"/><line class="cls-1" x1="149.88" y1="137.56" x2="149.88" y2="137.56"/><line class="cls-1" x1="149.88" y1="137.56" x2="149.88" y2="137.56"/><line class="cls-1" x1="149.88" y1="137.56" x2="149.88" y2="137.56"/><line class="cls-1" x1="149.88" y1="137.56" x2="149.88" y2="137.56"/><line class="cls-1" x1="149.88" y1="137.56" x2="149.88" y2="137.56"/><line class="cls-1" x1="149.88" y1="137.56" x2="149.88" y2="137.56"/><line class="cls-1" x1="149.88" y1="137.56" x2="149.88" y2="137.56"/><line class="cls-1" x1="149.88" y1="137.56" x2="149.88" y2="137.56"/><line class="cls-1" x1="149.88" y1="228.99" x2="148.32" y2="228.99"/><line class="cls-1" x1="148.32" y1="228.99" x2="146.75" y2="228.99"/><line class="cls-1" x1="146.75" y1="228.99" x2="145.13" y2="228.93"/><line class="cls-1" x1="145.13" y1="228.93" x2="143.56" y2="228.88"/><line class="cls-1" x1="143.56" y1="228.88" x2="141.94" y2="228.82"/><line class="cls-1" x1="141.94" y1="228.82" x2="140.32" y2="228.72"/><line class="cls-1" x1="140.32" y1="228.72" x2="138.76" y2="228.61"/><line class="cls-1" x1="138.76" y1="228.61" x2="137.14" y2="228.5"/><line class="cls-1" x1="137.14" y1="228.5" x2="135.57" y2="228.39"/><line class="cls-1" x1="135.57" y1="228.39" x2="133.95" y2="228.18"/><line class="cls-1" x1="133.95" y1="228.18" x2="132.33" y2="228.01"/><line class="cls-1" x1="132.33" y1="228.01" x2="130.77" y2="227.8"/><line class="cls-1" x1="130.77" y1="227.8" x2="129.15" y2="227.58"/><line class="cls-1" x1="129.15" y1="227.58" x2="127.53" y2="227.31"/><line class="cls-1" x1="127.53" y1="227.31" x2="125.96" y2="226.99"/><line class="cls-1" x1="125.96" y1="226.99" x2="124.39" y2="226.66"/><line class="cls-1" x1="124.39" y1="226.66" x2="122.77" y2="226.29"/><line class="cls-1" x1="122.77" y1="226.29" x2="121.21" y2="225.85"/><line class="cls-1" x1="121.21" y1="225.85" x2="119.7" y2="225.42"/><line class="cls-1" x1="119.7" y1="225.42" x2="118.13" y2="224.88"/><line class="cls-1" x1="118.13" y1="224.88" x2="116.62" y2="224.34"/><line class="cls-1" x1="116.62" y1="224.34" x2="115.11" y2="223.69"/><line class="cls-1" x1="115.11" y1="223.69" x2="113.65" y2="222.99"/><line class="cls-1" x1="113.65" y1="222.99" x2="112.19" y2="222.24"/><line class="cls-1" x1="112.19" y1="222.24" x2="110.84" y2="221.37"/><line class="cls-1" x1="110.84" y1="221.37" x2="109.49" y2="220.45"/><line class="cls-1" x1="109.49" y1="220.45" x2="108.19" y2="219.48"/><line class="cls-1" x1="108.19" y1="219.48" x2="106.95" y2="218.35"/><line class="cls-1" x1="106.95" y1="218.35" x2="105.76" y2="217.16"/><line class="cls-1" x1="105.76" y1="217.16" x2="104.68" y2="215.86"/><line class="cls-1" x1="104.68" y1="215.86" x2="103.71" y2="214.46"/><line class="cls-1" x1="103.71" y1="214.46" x2="102.79" y2="213"/><line class="cls-1" x1="102.79" y1="213" x2="101.98" y2="211.38"/><line class="cls-1" x1="101.98" y1="211.38" x2="101.28" y2="209.65"/><line class="cls-1" x1="101.28" y1="209.65" x2="100.69" y2="207.82"/><line class="cls-1" x1="100.69" y1="207.82" x2="100.26" y2="205.87"/><line class="cls-1" x1="100.26" y1="205.87" x2="99.93" y2="203.88"/><line class="cls-1" x1="99.93" y1="203.88" x2="99.72" y2="201.77"/><line class="cls-1" x1="99.72" y1="201.77" x2="99.66" y2="199.61"/><line class="cls-1" x1="99.66" y1="199.61" x2="99.72" y2="197.34"/><line class="cls-1" x1="99.72" y1="197.34" x2="99.99" y2="194.97"/><line class="cls-1" x1="99.99" y1="194.97" x2="100.31" y2="192.64"/><line class="cls-1" x1="100.31" y1="192.64" x2="100.8" y2="190.21"/><line class="cls-1" x1="100.8" y1="190.21" x2="101.39" y2="187.78"/><line class="cls-1" x1="101.39" y1="187.78" x2="102.15" y2="185.3"/><line class="cls-1" x1="102.15" y1="185.3" x2="102.96" y2="182.87"/><line class="cls-1" x1="102.96" y1="182.87" x2="103.93" y2="180.44"/><line class="cls-1" x1="103.93" y1="180.44" x2="104.95" y2="178.01"/><line class="cls-1" x1="104.95" y1="178.01" x2="106.03" y2="175.69"/><line class="cls-1" x1="106.03" y1="175.69" x2="107.22" y2="173.31"/><line class="cls-1" x1="107.22" y1="173.31" x2="108.46" y2="171.1"/><line class="cls-1" x1="108.46" y1="171.1" x2="109.76" y2="168.88"/><line class="cls-1" x1="109.76" y1="168.88" x2="111.11" y2="166.78"/><line class="cls-1" x1="111.11" y1="166.78" x2="112.46" y2="164.73"/><line class="cls-1" x1="112.46" y1="164.73" x2="113.86" y2="162.78"/><line class="cls-1" x1="113.86" y1="162.78" x2="115.27" y2="160.89"/><line class="cls-1" x1="115.27" y1="160.89" x2="116.62" y2="159.11"/><line class="cls-1" x1="116.62" y1="159.11" x2="118.08" y2="157.44"/><line class="cls-1" x1="118.08" y1="157.44" x2="119.43" y2="155.82"/><line class="cls-1" x1="119.43" y1="155.82" x2="120.83" y2="154.3"/><line class="cls-1" x1="120.83" y1="154.3" x2="122.23" y2="152.9"/><line class="cls-1" x1="122.23" y1="152.9" x2="123.58" y2="151.55"/><line class="cls-1" x1="123.58" y1="151.55" x2="124.93" y2="150.25"/><line class="cls-1" x1="124.93" y1="150.25" x2="126.23" y2="149.07"/><line class="cls-1" x1="126.23" y1="149.07" x2="127.53" y2="147.99"/><line class="cls-1" x1="127.53" y1="147.99" x2="128.82" y2="146.91"/><line class="cls-1" x1="128.82" y1="146.91" x2="130.06" y2="145.93"/><line class="cls-1" x1="130.06" y1="145.93" x2="131.31" y2="145.02"/><line class="cls-1" x1="131.31" y1="145.02" x2="132.49" y2="144.21"/><line class="cls-1" x1="132.49" y1="144.21" x2="133.74" y2="143.4"/><line class="cls-1" x1="133.74" y1="143.4" x2="134.87" y2="142.69"/><line class="cls-1" x1="134.87" y1="142.69" x2="136" y2="142.05"/><line class="cls-1" x1="136" y1="142.05" x2="137.08" y2="141.45"/><line class="cls-1" x1="137.08" y1="141.45" x2="138.16" y2="140.86"/><line class="cls-1" x1="138.16" y1="140.86" x2="139.3" y2="140.37"/><line class="cls-1" x1="139.3" y1="140.37" x2="140.32" y2="139.89"/><line class="cls-1" x1="140.32" y1="139.89" x2="141.3" y2="139.51"/><line class="cls-1" x1="141.3" y1="139.51" x2="142.32" y2="139.13"/><line class="cls-1" x1="142.32" y1="139.13" x2="143.24" y2="138.81"/><line class="cls-1" x1="143.24" y1="138.81" x2="144.16" y2="138.54"/><line class="cls-1" x1="144.16" y1="138.54" x2="145.02" y2="138.27"/><line class="cls-1" x1="145.02" y1="138.27" x2="145.83" y2="138.1"/><line class="cls-1" x1="145.83" y1="138.1" x2="146.64" y2="137.89"/><line class="cls-1" x1="146.64" y1="137.89" x2="147.34" y2="137.78"/><line class="cls-1" x1="147.34" y1="137.78" x2="148.05" y2="137.67"/><line class="cls-1" x1="148.05" y1="137.67" x2="148.59" y2="137.62"/><line class="cls-1" x1="148.59" y1="137.62" x2="149.07" y2="137.56"/><line class="cls-1" x1="149.07" y1="137.56" x2="149.4" y2="137.56"/><line class="cls-1" x1="149.4" y1="137.56" x2="149.61" y2="137.56"/><line class="cls-1" x1="149.61" y1="137.56" x2="149.72" y2="137.56"/><line class="cls-1" x1="149.72" y1="137.56" x2="149.88" y2="137.56"/><line class="cls-1" x1="149.88" y1="137.56" x2="149.88" y2="137.56"/><line class="cls-1" x1="149.88" y1="137.56" x2="149.88" y2="137.56"/><line class="cls-1" x1="149.88" y1="137.56" x2="149.88" y2="137.56"/><line class="cls-1" x1="149.88" y1="137.56" x2="149.88" y2="137.56"/><line class="cls-1" x1="149.88" y1="137.56" x2="149.88" y2="137.56"/><line class="cls-1" x1="149.88" y1="137.56" x2="149.88" y2="137.56"/><line class="cls-1" x1="149.88" y1="137.56" x2="149.88" y2="137.56"/><line class="cls-1" x1="149.88" y1="137.56" x2="149.88" y2="137.56"/><line class="cls-1" x1="149.88" y1="137.56" x2="149.88" y2="137.56"/><line class="cls-1" x1="149.88" y1="137.56" x2="149.88" y2="137.56"/><line class="cls-1" x1="149.88" y1="137.56" x2="149.88" y2="137.56"/><line class="cls-1" x1="149.88" y1="137.56" x2="149.88" y2="137.56"/><line class="cls-1" x1="149.88" y1="137.56" x2="149.88" y2="137.56"/><line class="cls-1" x1="149.88" y1="137.56" x2="149.88" y2="137.56"/><line class="cls-1" x1="149.88" y1="137.56" x2="149.88" y2="137.56"/><line class="cls-1" x1="149.88" y1="137.56" x2="149.88" y2="137.56"/><line class="cls-1" x1="149.88" y1="137.56" x2="149.88" y2="137.56"/><line class="cls-1" x1="149.88" y1="137.56" x2="149.88" y2="137.56"/><line class="cls-1" x1="149.88" y1="137.56" x2="149.88" y2="137.56"/><line class="cls-1" x1="149.88" y1="137.56" x2="149.88" y2="137.56"/><line class="cls-1" x1="149.88" y1="137.56" x2="149.88" y2="137.56"/><line class="cls-1" x1="149.88" y1="137.56" x2="149.88" y2="137.56"/><line class="cls-1" x1="149.88" y1="137.56" x2="149.88" y2="137.56"/><line class="cls-1" x1="149.88" y1="137.56" x2="149.88" y2="137.56"/><line class="cls-1" x1="149.88" y1="137.56" x2="149.88" y2="137.56"/><line class="cls-1" x1="149.88" y1="137.56" x2="149.88" y2="137.56"/><line class="cls-1" x1="149.88" y1="137.56" x2="149.88" y2="137.56"/><line class="cls-1" x1="149.88" y1="137.56" x2="149.88" y2="137.56"/><line class="cls-1" x1="149.88" y1="137.56" x2="149.88" y2="137.56"/><line class="cls-1" x1="149.88" y1="137.56" x2="149.88" y2="137.56"/><line class="cls-1" x1="149.88" y1="137.56" x2="149.88" y2="137.56"/><line class="cls-1" x1="149.88" y1="137.56" x2="149.88" y2="137.56"/><line class="cls-1" x1="149.88" y1="137.56" x2="149.88" y2="137.56"/><line class="cls-1" x1="149.88" y1="137.56" x2="149.88" y2="137.56"/><line class="cls-1" x1="149.88" y1="137.56" x2="149.88" y2="137.56"/><line class="cls-1" x1="149.88" y1="137.56" x2="149.88" y2="137.56"/><line class="cls-1" x1="149.88" y1="137.56" x2="149.88" y2="137.56"/><line class="cls-1" x1="149.88" y1="137.56" x2="149.88" y2="137.56"/><line class="cls-1" x1="149.88" y1="137.56" x2="149.88" y2="137.56"/><line class="cls-1" x1="149.88" y1="137.56" x2="149.88" y2="137.56"/><line class="cls-1" x1="149.88" y1="137.56" x2="149.88" y2="137.56"/><line class="cls-1" x1="149.88" y1="137.56" x2="149.88" y2="137.56"/><line class="cls-1" x1="149.88" y1="137.56" x2="149.88" y2="137.56"/><line class="cls-1" x1="149.88" y1="137.56" x2="149.88" y2="137.56"/><line class="cls-1" x1="149.88" y1="137.56" x2="149.88" y2="137.56"/><line class="cls-1" x1="149.88" y1="137.56" x2="149.88" y2="137.56"/><line class="cls-1" x1="149.88" y1="137.56" x2="149.88" y2="137.56"/><line class="cls-1" x1="149.88" y1="137.56" x2="149.88" y2="137.56"/><line class="cls-1" x1="149.88" y1="137.56" x2="149.88" y2="137.56"/><line class="cls-1" x1="149.88" y1="137.56" x2="149.88" y2="137.56"/><line class="cls-1" x1="149.88" y1="137.56" x2="149.88" y2="137.56"/><line class="cls-1" x1="149.88" y1="137.56" x2="149.88" y2="137.56"/><line class="cls-1" x1="149.88" y1="137.56" x2="149.88" y2="137.56"/><line class="cls-1" x1="149.88" y1="137.56" x2="149.88" y2="137.56"/><line class="cls-1" x1="149.88" y1="137.56" x2="149.88" y2="137.56"/><line class="cls-1" x1="149.88" y1="137.56" x2="149.88" y2="137.56"/><line class="cls-1" x1="149.88" y1="137.56" x2="149.88" y2="137.56"/><line class="cls-1" x1="149.88" y1="137.56" x2="149.88" y2="137.56"/><line class="cls-1" x1="149.88" y1="137.56" x2="149.88" y2="137.56"/><line class="cls-1" x1="149.88" y1="137.56" x2="149.88" y2="137.56"/><line class="cls-1" x1="149.88" y1="137.56" x2="149.88" y2="137.56"/><line class="cls-1" x1="149.88" y1="137.56" x2="149.88" y2="137.56"/><line class="cls-1" x1="149.88" y1="137.56" x2="149.88" y2="137.56"/><line class="cls-1" x1="149.88" y1="137.56" x2="149.88" y2="137.56"/><line class="cls-1" x1="149.88" y1="137.56" x2="149.88" y2="137.56"/><line class="cls-1" x1="149.88" y1="137.56" x2="149.88" y2="137.56"/><line class="cls-1" x1="149.88" y1="137.56" x2="149.88" y2="137.56"/><line class="cls-1" x1="149.88" y1="137.56" x2="149.88" y2="137.56"/><line class="cls-1" x1="149.88" y1="137.56" x2="149.88" y2="137.56"/><line class="cls-1" x1="149.88" y1="137.56" x2="149.88" y2="137.56"/><line class="cls-1" x1="149.88" y1="137.56" x2="149.88" y2="137.56"/><line class="cls-1" x1="149.88" y1="137.56" x2="149.88" y2="137.56"/><line class="cls-1" x1="149.88" y1="137.56" x2="149.88" y2="137.56"/><line class="cls-1" x1="149.88" y1="137.56" x2="149.88" y2="137.56"/><line class="cls-1" x1="149.88" y1="137.56" x2="149.88" y2="137.56"/><line class="cls-1" x1="149.88" y1="137.56" x2="149.88" y2="137.56"/><line class="cls-1" x1="149.88" y1="137.56" x2="149.88" y2="137.56"/><line class="cls-1" x1="149.88" y1="137.56" x2="149.88" y2="137.56"/><line class="cls-1" x1="149.88" y1="137.56" x2="149.88" y2="137.56"/><line class="cls-1" x1="149.88" y1="137.56" x2="149.88" y2="137.56"/><line class="cls-1" x1="149.88" y1="137.56" x2="149.88" y2="137.56"/><line class="cls-1" x1="149.88" y1="137.56" x2="149.88" y2="137.56"/><line class="cls-1" x1="149.88" y1="137.56" x2="149.88" y2="137.56"/><line class="cls-1" x1="149.88" y1="137.56" x2="149.88" y2="137.56"/><line class="cls-1" x1="149.88" y1="137.56" x2="149.88" y2="137.56"/><line class="cls-1" x1="149.88" y1="137.56" x2="149.88" y2="137.56"/><line class="cls-1" x1="149.88" y1="137.56" x2="149.88" y2="137.56"/><line class="cls-1" x1="149.88" y1="137.56" x2="149.88" y2="137.56"/><line class="cls-1" x1="149.88" y1="137.56" x2="149.88" y2="137.56"/><line class="cls-1" x1="149.88" y1="228.99" x2="150.15" y2="228.99"/><line class="cls-1" x1="151.45" y1="228.93" x2="151.5" y2="228.93"/><line class="cls-1" x1="151.5" y1="228.93" x2="151.72" y2="228.93"/><line class="cls-1" x1="153.01" y1="228.82" x2="153.07" y2="228.82"/><line class="cls-1" x1="153.07" y1="228.82" x2="153.28" y2="228.82"/><line class="cls-1" x1="154.58" y1="228.72" x2="154.69" y2="228.72"/><line class="cls-1" x1="154.69" y1="228.72" x2="154.85" y2="228.72"/><line class="cls-1" x1="156.15" y1="228.55" x2="156.25" y2="228.55"/><line class="cls-1" x1="156.25" y1="228.55" x2="156.42" y2="228.5"/><line class="cls-1" x1="157.71" y1="228.28" x2="157.82" y2="228.28"/><line class="cls-1" x1="157.82" y1="228.28" x2="157.98" y2="228.23"/><line class="cls-1" x1="159.22" y1="228.01" x2="159.39" y2="227.96"/><line class="cls-1" x1="159.39" y1="227.96" x2="159.44" y2="227.96"/><line class="cls-1" x1="160.68" y1="227.64" x2="160.9" y2="227.58"/><line class="cls-1" x1="162.14" y1="227.26" x2="162.36" y2="227.2"/><line class="cls-1" x1="163.6" y1="226.83" x2="163.81" y2="226.77"/><line class="cls-1" x1="165" y1="226.39" x2="165.22" y2="226.29"/><line class="cls-1" x1="166.41" y1="225.8" x2="166.62" y2="225.75"/><line class="cls-1" x1="167.76" y1="225.26" x2="167.97" y2="225.15"/><line class="cls-1" x1="169.11" y1="224.61" x2="169.32" y2="224.5"/><line class="cls-1" x1="170.46" y1="223.96" x2="170.67" y2="223.8"/><line class="cls-1" x1="171.81" y1="223.21" x2="172.02" y2="223.05"/><line class="cls-1" x1="173.1" y1="222.4" x2="173.32" y2="222.24"/><line class="cls-1" x1="174.4" y1="221.48" x2="174.61" y2="221.37"/><line class="cls-1" x1="175.64" y1="220.62" x2="175.86" y2="220.45"/><line class="cls-1" x1="176.88" y1="219.64" x2="177.04" y2="219.48"/><line class="cls-1" x1="178.02" y1="218.62" x2="178.18" y2="218.46"/><line class="cls-1" x1="179.15" y1="217.54" x2="179.31" y2="217.38"/><line class="cls-1" x1="180.23" y1="216.46" x2="180.39" y2="216.3"/><line class="cls-1" x1="181.26" y1="215.32" x2="181.31" y2="215.27"/><line class="cls-1" x1="181.31" y1="215.27" x2="181.42" y2="215.16"/><line class="cls-1" x1="182.23" y1="214.14" x2="182.34" y2="213.97"/><line class="cls-1" x1="182.34" y1="213.97" x2="182.39" y2="213.92"/><line class="cls-1" x1="183.15" y1="212.84" x2="183.31" y2="212.62"/><line class="cls-1" x1="184.01" y1="211.54" x2="184.17" y2="211.33"/><line class="cls-1" x1="184.82" y1="210.25" x2="184.98" y2="210.03"/><line class="cls-1" x1="185.58" y1="208.9" x2="185.68" y2="208.68"/><line class="cls-1" x1="186.22" y1="207.55" x2="186.33" y2="207.33"/><line class="cls-1" x1="186.87" y1="206.2" x2="186.93" y2="205.98"/><line class="cls-1" x1="187.41" y1="204.79" x2="187.47" y2="204.58"/><line class="cls-1" x1="187.9" y1="203.39" x2="187.9" y2="203.34"/><line class="cls-1" x1="187.9" y1="203.34" x2="187.95" y2="203.17"/><line class="cls-1" x1="188.28" y1="201.93" x2="188.33" y2="201.72"/><line class="cls-1" x1="188.65" y1="200.47" x2="188.71" y2="200.26"/><line class="cls-1" x1="188.98" y1="199.02" x2="189.03" y2="198.75"/><line class="cls-1" x1="189.19" y1="197.45" x2="189.25" y2="197.23"/><line class="cls-1" x1="189.41" y1="195.94" x2="189.46" y2="195.72"/><line class="cls-1" x1="189.57" y1="194.43" x2="189.57" y2="194.16"/><line class="cls-1" x1="189.63" y1="192.86" x2="189.63" y2="192.59"/><line class="cls-1" x1="189.63" y1="191.24" x2="189.63" y2="190.97"/><line class="cls-1" x1="189.57" y1="189.67" x2="189.57" y2="189.4"/><line class="cls-1" x1="189.52" y1="188.11" x2="189.46" y2="187.89"/><line class="cls-1" x1="189.36" y1="186.6" x2="189.3" y2="186.38"/><line class="cls-1" x1="189.14" y1="185.08" x2="189.14" y2="184.81"/><line class="cls-1" x1="188.92" y1="183.57" x2="188.87" y2="183.36"/><line class="cls-1" x1="188.65" y1="182.11" x2="188.65" y2="182.11"/><line class="cls-1" x1="188.65" y1="182.11" x2="188.6" y2="181.9"/><line class="cls-1" x1="188.33" y1="180.66" x2="188.28" y2="180.44"/><line class="cls-1" x1="188.01" y1="179.2" x2="187.95" y2="178.98"/><line class="cls-1" x1="187.63" y1="177.74" x2="187.57" y2="177.52"/><line class="cls-1" x1="187.2" y1="176.34" x2="187.14" y2="176.12"/><line class="cls-1" x1="186.76" y1="174.93" x2="186.71" y2="174.72"/><line class="cls-1" x1="186.28" y1="173.53" x2="186.17" y2="173.31"/><line class="cls-1" x1="185.74" y1="172.12" x2="185.74" y2="172.12"/><line class="cls-1" x1="185.74" y1="172.12" x2="185.63" y2="171.91"/><line class="cls-1" x1="185.14" y1="170.72" x2="185.09" y2="170.5"/><line class="cls-1" x1="184.6" y1="169.37" x2="184.5" y2="169.15"/><line class="cls-1" x1="183.96" y1="167.97" x2="183.9" y2="167.75"/><line class="cls-1" x1="183.36" y1="166.62" x2="183.36" y2="166.62"/><line class="cls-1" x1="183.36" y1="166.62" x2="183.25" y2="166.4"/><line class="cls-1" x1="182.66" y1="165.27" x2="182.55" y2="165.05"/><line class="cls-1" x1="181.96" y1="163.92" x2="181.85" y2="163.7"/><line class="cls-1" x1="181.2" y1="162.57" x2="181.09" y2="162.35"/><line class="cls-1" x1="180.45" y1="161.27" x2="180.28" y2="161.05"/><line class="cls-1" x1="179.64" y1="159.97" x2="179.58" y2="159.92"/><line class="cls-1" x1="179.58" y1="159.92" x2="179.47" y2="159.76"/><line class="cls-1" x1="178.77" y1="158.68" x2="178.66" y2="158.46"/><line class="cls-1" x1="177.91" y1="157.38" x2="177.8" y2="157.17"/><line class="cls-1" x1="177.04" y1="156.14" x2="176.88" y2="155.92"/><line class="cls-1" x1="176.13" y1="154.9" x2="175.96" y2="154.68"/><line class="cls-1" x1="175.15" y1="153.66" x2="174.99" y2="153.44"/><line class="cls-1" x1="174.13" y1="152.41" x2="173.97" y2="152.2"/><line class="cls-1" x1="173.1" y1="151.23" x2="172.94" y2="151.06"/><line class="cls-1" x1="172.08" y1="150.09" x2="171.91" y2="149.93"/><line class="cls-1" x1="171.05" y1="148.96" x2="170.89" y2="148.8"/><line class="cls-1" x1="169.92" y1="147.88" x2="169.75" y2="147.72"/><line class="cls-1" x1="168.78" y1="146.8" x2="168.62" y2="146.64"/><line class="cls-1" x1="167.59" y1="145.77" x2="167.43" y2="145.61"/><line class="cls-1" x1="166.41" y1="144.75" x2="166.19" y2="144.58"/><line class="cls-1" x1="165.16" y1="143.83" x2="164.95" y2="143.67"/><line class="cls-1" x1="163.92" y1="142.91" x2="163.92" y2="142.91"/><line class="cls-1" x1="163.92" y1="142.91" x2="163.71" y2="142.75"/><line class="cls-1" x1="162.63" y1="142.05" x2="162.41" y2="141.94"/><line class="cls-1" x1="161.33" y1="141.29" x2="161.17" y2="141.18"/><line class="cls-1" x1="161.17" y1="141.18" x2="161.11" y2="141.13"/><line class="cls-1" x1="159.98" y1="140.53" x2="159.76" y2="140.43"/><line class="cls-1" x1="158.63" y1="139.83" x2="158.58" y2="139.83"/><line class="cls-1" x1="158.58" y1="139.83" x2="158.41" y2="139.78"/><line class="cls-1" x1="157.28" y1="139.24" x2="157.06" y2="139.18"/><line class="cls-1" x1="155.88" y1="138.75" x2="155.66" y2="138.7"/><line class="cls-1" x1="154.47" y1="138.32" x2="154.26" y2="138.27"/><line class="cls-1" x1="153.01" y1="137.94" x2="152.8" y2="137.89"/><line class="cls-1" x1="151.56" y1="137.67" x2="151.5" y2="137.67"/><line class="cls-1" x1="151.5" y1="137.67" x2="151.29" y2="137.62"/><line class="cls-1" x1="149.99" y1="137.56" x2="149.88" y2="137.56"/><line class="cls-1" x1="149.88" y1="137.56" x2="149.88" y2="137.56"/><line class="cls-1" x1="149.88" y1="137.56" x2="149.88" y2="137.56"/><line class="cls-1" x1="149.88" y1="137.56" x2="149.88" y2="137.56"/><line class="cls-1" x1="149.88" y1="137.56" x2="149.88" y2="137.56"/><line class="cls-1" x1="149.88" y1="137.56" x2="149.88" y2="137.56"/><line class="cls-1" x1="149.88" y1="137.56" x2="149.88" y2="137.56"/><line class="cls-1" x1="149.88" y1="137.56" x2="149.88" y2="137.56"/><line class="cls-1" x1="149.88" y1="137.56" x2="149.88" y2="137.56"/><line class="cls-1" x1="149.88" y1="137.56" x2="149.88" y2="137.56"/><line class="cls-1" x1="149.88" y1="137.56" x2="149.88" y2="137.56"/><line class="cls-1" x1="149.88" y1="137.56" x2="149.88" y2="137.56"/><line class="cls-1" x1="149.88" y1="137.56" x2="149.88" y2="137.56"/><line class="cls-1" x1="149.88" y1="137.56" x2="149.88" y2="137.56"/><line class="cls-1" x1="149.88" y1="137.56" x2="149.88" y2="137.56"/><line class="cls-1" x1="149.88" y1="137.56" x2="149.88" y2="137.56"/><line class="cls-1" x1="149.88" y1="137.56" x2="149.88" y2="137.56"/><line class="cls-1" x1="149.88" y1="137.56" x2="149.88" y2="137.56"/><line class="cls-1" x1="149.88" y1="137.56" x2="149.88" y2="137.56"/><line class="cls-1" x1="149.88" y1="137.56" x2="149.88" y2="137.56"/><line class="cls-1" x1="149.88" y1="137.56" x2="149.88" y2="137.56"/><line class="cls-1" x1="149.88" y1="137.56" x2="149.88" y2="137.56"/><line class="cls-1" x1="149.88" y1="137.56" x2="149.88" y2="137.56"/><line class="cls-1" x1="149.88" y1="137.56" x2="149.88" y2="137.56"/><line class="cls-1" x1="149.88" y1="137.56" x2="149.88" y2="137.56"/><line class="cls-1" x1="149.88" y1="137.56" x2="149.88" y2="137.56"/><line class="cls-1" x1="149.88" y1="137.56" x2="149.88" y2="137.56"/><line class="cls-1" x1="149.88" y1="137.56" x2="149.88" y2="137.56"/><line class="cls-1" x1="149.88" y1="137.56" x2="149.88" y2="137.56"/><line class="cls-1" x1="149.88" y1="137.56" x2="149.88" y2="137.56"/><line class="cls-1" x1="149.88" y1="137.56" x2="149.88" y2="137.56"/><line class="cls-1" x1="149.88" y1="137.56" x2="149.88" y2="137.56"/><line class="cls-1" x1="149.88" y1="137.56" x2="149.88" y2="137.56"/><line class="cls-1" x1="149.88" y1="137.56" x2="149.88" y2="137.56"/><line class="cls-1" x1="149.88" y1="137.56" x2="149.88" y2="137.56"/><line class="cls-1" x1="149.88" y1="137.56" x2="149.88" y2="137.56"/><line class="cls-1" x1="149.88" y1="137.56" x2="149.88" y2="137.56"/><line class="cls-1" x1="149.88" y1="137.56" x2="149.88" y2="137.56"/><line class="cls-1" x1="149.88" y1="137.56" x2="149.88" y2="137.56"/><line class="cls-1" x1="149.88" y1="137.56" x2="149.88" y2="137.56"/><line class="cls-1" x1="149.88" y1="137.56" x2="149.88" y2="137.56"/><line class="cls-1" x1="149.88" y1="137.56" x2="149.88" y2="137.56"/><line class="cls-1" x1="149.88" y1="137.56" x2="149.88" y2="137.56"/><line class="cls-1" x1="149.88" y1="137.56" x2="149.88" y2="137.56"/><line class="cls-1" x1="149.88" y1="137.56" x2="149.88" y2="137.56"/><line class="cls-1" x1="149.88" y1="137.56" x2="149.88" y2="137.56"/><line class="cls-1" x1="149.88" y1="137.56" x2="149.88" y2="137.56"/><line class="cls-1" x1="149.88" y1="137.56" x2="149.88" y2="137.56"/><line class="cls-1" x1="149.88" y1="137.56" x2="149.88" y2="137.56"/><line class="cls-1" x1="149.88" y1="137.56" x2="149.88" y2="137.56"/><line class="cls-1" x1="149.88" y1="137.56" x2="149.88" y2="137.56"/><line class="cls-1" x1="149.88" y1="137.56" x2="149.88" y2="137.56"/><line class="cls-1" x1="149.88" y1="137.56" x2="149.88" y2="137.56"/><line class="cls-1" x1="149.88" y1="137.56" x2="149.88" y2="137.56"/><line class="cls-1" x1="149.88" y1="137.56" x2="149.88" y2="137.56"/><line class="cls-1" x1="149.88" y1="137.56" x2="149.88" y2="137.56"/><line class="cls-1" x1="149.88" y1="137.56" x2="149.88" y2="137.56"/><line class="cls-1" x1="149.88" y1="137.56" x2="149.88" y2="137.56"/><line class="cls-1" x1="149.88" y1="137.56" x2="149.88" y2="137.56"/><line class="cls-1" x1="149.88" y1="137.56" x2="149.88" y2="137.56"/><line class="cls-1" x1="149.88" y1="137.56" x2="149.88" y2="137.56"/><line class="cls-1" x1="149.88" y1="137.56" x2="149.88" y2="137.56"/><line class="cls-1" x1="149.88" y1="137.56" x2="149.88" y2="137.56"/><line class="cls-1" x1="149.88" y1="137.56" x2="149.88" y2="137.56"/><line class="cls-1" x1="149.88" y1="137.56" x2="149.88" y2="137.56"/><line class="cls-1" x1="149.88" y1="137.56" x2="149.88" y2="137.56"/><line class="cls-1" x1="149.88" y1="137.56" x2="149.88" y2="137.56"/><line class="cls-1" x1="149.88" y1="137.56" x2="149.88" y2="137.56"/><line class="cls-1" x1="149.88" y1="137.56" x2="149.88" y2="137.56"/><line class="cls-1" x1="149.88" y1="137.56" x2="149.88" y2="137.56"/><line class="cls-1" x1="149.88" y1="137.56" x2="149.88" y2="137.56"/><line class="cls-1" x1="149.88" y1="137.56" x2="149.88" y2="137.56"/><line class="cls-1" x1="149.88" y1="137.56" x2="149.88" y2="137.56"/><line class="cls-1" x1="149.88" y1="137.56" x2="149.88" y2="137.56"/><line class="cls-1" x1="149.88" y1="137.56" x2="149.88" y2="137.56"/><line class="cls-1" x1="149.88" y1="137.56" x2="149.88" y2="137.56"/><line class="cls-1" x1="149.88" y1="137.56" x2="149.88" y2="137.56"/><line class="cls-1" x1="149.88" y1="137.56" x2="149.88" y2="137.56"/><line class="cls-1" x1="149.88" y1="137.56" x2="149.88" y2="137.56"/><line class="cls-1" x1="149.88" y1="137.56" x2="149.88" y2="137.56"/><line class="cls-1" x1="149.88" y1="137.56" x2="149.88" y2="137.56"/><line class="cls-1" x1="149.88" y1="137.56" x2="149.88" y2="137.56"/><line class="cls-1" x1="149.88" y1="137.56" x2="149.88" y2="137.56"/><line class="cls-1" x1="149.88" y1="137.56" x2="149.88" y2="137.56"/><line class="cls-1" x1="149.88" y1="137.56" x2="149.88" y2="137.56"/><line class="cls-1" x1="149.88" y1="137.56" x2="149.88" y2="137.56"/><line class="cls-1" x1="149.88" y1="137.56" x2="149.88" y2="137.56"/><line class="cls-1" x1="149.88" y1="137.56" x2="149.88" y2="137.56"/><line class="cls-1" x1="149.88" y1="137.56" x2="149.88" y2="137.56"/><line class="cls-1" x1="149.88" y1="137.56" x2="149.88" y2="137.56"/><line class="cls-1" x1="149.88" y1="228.99" x2="149.72" y2="228.99"/><line class="cls-1" x1="148.42" y1="228.93" x2="148.32" y2="228.93"/><line class="cls-1" x1="148.32" y1="228.93" x2="148.15" y2="228.93"/><line class="cls-1" x1="146.86" y1="228.82" x2="146.75" y2="228.82"/><line class="cls-1" x1="146.75" y1="228.82" x2="146.59" y2="228.82"/><line class="cls-1" x1="145.29" y1="228.72" x2="145.13" y2="228.72"/><line class="cls-1" x1="145.13" y1="228.72" x2="145.02" y2="228.72"/><line class="cls-1" x1="143.73" y1="228.55" x2="143.56" y2="228.55"/><line class="cls-1" x1="143.56" y1="228.55" x2="143.46" y2="228.55"/><line class="cls-1" x1="142.21" y1="228.34" x2="142" y2="228.28"/><line class="cls-1" x1="140.76" y1="228.01" x2="140.54" y2="227.96"/><line class="cls-1" x1="139.3" y1="227.69" x2="139.08" y2="227.64"/><line class="cls-1" x1="137.84" y1="227.31" x2="137.62" y2="227.26"/><line class="cls-1" x1="136.38" y1="226.88" x2="136.17" y2="226.83"/><line class="cls-1" x1="134.98" y1="226.45" x2="134.76" y2="226.34"/><line class="cls-1" x1="133.57" y1="225.91" x2="133.36" y2="225.8"/><line class="cls-1" x1="132.17" y1="225.31" x2="131.95" y2="225.21"/><line class="cls-1" x1="130.82" y1="224.67" x2="130.6" y2="224.56"/><line class="cls-1" x1="129.47" y1="224.02" x2="129.25" y2="223.91"/><line class="cls-1" x1="128.17" y1="223.32" x2="127.96" y2="223.15"/><line class="cls-1" x1="126.88" y1="222.51" x2="126.66" y2="222.34"/><line class="cls-1" x1="125.58" y1="221.59" x2="125.37" y2="221.48"/><line class="cls-1" x1="124.34" y1="220.72" x2="124.12" y2="220.56"/><line class="cls-1" x1="123.1" y1="219.75" x2="122.88" y2="219.59"/><line class="cls-1" x1="121.91" y1="218.73" x2="121.75" y2="218.56"/><line class="cls-1" x1="120.78" y1="217.65" x2="120.78" y2="217.65"/><line class="cls-1" x1="120.78" y1="217.65" x2="120.61" y2="217.48"/><line class="cls-1" x1="119.7" y1="216.57" x2="119.64" y2="216.51"/><line class="cls-1" x1="119.64" y1="216.51" x2="119.53" y2="216.4"/><line class="cls-1" x1="118.67" y1="215.43" x2="118.51" y2="215.27"/><line class="cls-1" x1="117.7" y1="214.24" x2="117.54" y2="214.03"/><line class="cls-1" x1="116.78" y1="213" x2="116.62" y2="212.79"/><line class="cls-1" x1="115.92" y1="211.71" x2="115.75" y2="211.49"/><line class="cls-1" x1="115.11" y1="210.41" x2="114.94" y2="210.19"/><line class="cls-1" x1="114.35" y1="209.11" x2="114.24" y2="208.9"/><line class="cls-1" x1="113.7" y1="207.76" x2="113.59" y2="207.55"/><line class="cls-1" x1="113.05" y1="206.41" x2="112.95" y2="206.2"/><line class="cls-1" x1="112.51" y1="205.01" x2="112.41" y2="204.79"/><line class="cls-1" x1="112.03" y1="203.61" x2="111.92" y2="203.39"/><line class="cls-1" x1="111.6" y1="202.15" x2="111.54" y2="201.93"/><line class="cls-1" x1="111.22" y1="200.69" x2="111.16" y2="200.47"/><line class="cls-1" x1="110.89" y1="199.23" x2="110.84" y2="199.02"/><line class="cls-1" x1="110.62" y1="197.72" x2="110.62" y2="197.45"/><line class="cls-1" x1="110.41" y1="196.21" x2="110.41" y2="196.1"/><line class="cls-1" x1="110.41" y1="196.1" x2="110.41" y2="195.94"/><line class="cls-1" x1="110.3" y1="194.64" x2="110.25" y2="194.43"/><line class="cls-1" x1="110.19" y1="193.13" x2="110.19" y2="192.86"/><line class="cls-1" x1="110.19" y1="191.51" x2="110.19" y2="191.24"/><line class="cls-1" x1="110.19" y1="189.89" x2="110.25" y2="189.67"/><line class="cls-1" x1="110.3" y1="188.38" x2="110.3" y2="188.22"/><line class="cls-1" x1="110.3" y1="188.22" x2="110.3" y2="188.11"/><line class="cls-1" x1="110.46" y1="186.81" x2="110.46" y2="186.54"/><line class="cls-1" x1="110.62" y1="185.25" x2="110.68" y2="185.03"/><line class="cls-1" x1="110.84" y1="183.73" x2="110.89" y2="183.52"/><line class="cls-1" x1="111.11" y1="182.28" x2="111.16" y2="182.11"/><line class="cls-1" x1="111.16" y1="182.11" x2="111.16" y2="182.06"/><line class="cls-1" x1="111.43" y1="180.82" x2="111.49" y2="180.6"/><line class="cls-1" x1="111.76" y1="179.36" x2="111.81" y2="179.14"/><line class="cls-1" x1="112.14" y1="177.9" x2="112.19" y2="177.69"/><line class="cls-1" x1="112.57" y1="176.5" x2="112.62" y2="176.28"/><line class="cls-1" x1="113" y1="175.09" x2="113.05" y2="174.88"/><line class="cls-1" x1="113.49" y1="173.69" x2="113.59" y2="173.47"/><line class="cls-1" x1="114.03" y1="172.29" x2="114.08" y2="172.12"/><line class="cls-1" x1="114.08" y1="172.12" x2="114.08" y2="172.07"/><line class="cls-1" x1="114.57" y1="170.94" x2="114.67" y2="170.72"/><line class="cls-1" x1="115.16" y1="169.53" x2="115.27" y2="169.32"/><line class="cls-1" x1="115.75" y1="168.13" x2="115.86" y2="167.91"/><line class="cls-1" x1="116.4" y1="166.78" x2="116.46" y2="166.62"/><line class="cls-1" x1="116.46" y1="166.62" x2="116.51" y2="166.56"/><line class="cls-1" x1="117.05" y1="165.43" x2="117.16" y2="165.21"/><line class="cls-1" x1="117.75" y1="164.08" x2="117.91" y2="163.86"/><line class="cls-1" x1="118.51" y1="162.73" x2="118.67" y2="162.51"/><line class="cls-1" x1="119.32" y1="161.43" x2="119.43" y2="161.22"/><line class="cls-1" x1="120.13" y1="160.14" x2="120.24" y2="159.92"/><line class="cls-1" x1="120.94" y1="158.84" x2="121.05" y2="158.62"/><line class="cls-1" x1="121.8" y1="157.54" x2="121.91" y2="157.33"/><line class="cls-1" x1="122.67" y1="156.3" x2="122.83" y2="156.09"/><line class="cls-1" x1="123.58" y1="155.06" x2="123.75" y2="154.84"/><line class="cls-1" x1="124.5" y1="153.82" x2="124.66" y2="153.66"/><line class="cls-1" x1="125.47" y1="152.63" x2="125.64" y2="152.47"/><line class="cls-1" x1="126.5" y1="151.5" x2="126.66" y2="151.28"/><line class="cls-1" x1="127.53" y1="150.31" x2="127.69" y2="150.15"/><line class="cls-1" x1="128.61" y1="149.17" x2="128.77" y2="148.96"/><line class="cls-1" x1="129.69" y1="148.04" x2="129.9" y2="147.88"/><line class="cls-1" x1="130.87" y1="146.96" x2="131.04" y2="146.8"/><line class="cls-1" x1="132.01" y1="145.93" x2="132.17" y2="145.83"/><line class="cls-1" x1="132.17" y1="145.83" x2="132.22" y2="145.77"/><line class="cls-1" x1="133.2" y1="144.91" x2="133.41" y2="144.75"/><line class="cls-1" x1="134.44" y1="143.99" x2="134.65" y2="143.83"/><line class="cls-1" x1="135.68" y1="143.07" x2="135.9" y2="142.91"/><line class="cls-1" x1="136.98" y1="142.21" x2="137.19" y2="142.05"/><line class="cls-1" x1="138.27" y1="141.4" x2="138.49" y2="141.29"/><line class="cls-1" x1="139.57" y1="140.64" x2="139.78" y2="140.53"/><line class="cls-1" x1="140.92" y1="139.99" x2="141.13" y2="139.89"/><line class="cls-1" x1="142.27" y1="139.35" x2="142.48" y2="139.29"/><line class="cls-1" x1="143.67" y1="138.86" x2="143.67" y2="138.86"/><line class="cls-1" x1="143.67" y1="138.86" x2="143.89" y2="138.75"/><line class="cls-1" x1="145.08" y1="138.37" x2="145.13" y2="138.37"/><line class="cls-1" x1="145.13" y1="138.37" x2="145.29" y2="138.32"/><line class="cls-1" x1="146.53" y1="138" x2="146.53" y2="138"/><line class="cls-1" x1="146.53" y1="138" x2="146.75" y2="137.94"/><line class="cls-1" x1="147.99" y1="137.73" x2="148.21" y2="137.67"/><line class="cls-1" x1="149.5" y1="137.56" x2="149.5" y2="137.56"/><line class="cls-1" x1="149.5" y1="137.56" x2="149.67" y2="137.56"/><line class="cls-1" x1="149.67" y1="137.56" x2="149.72" y2="137.56"/><line class="cls-1" x1="149.72" y1="137.56" x2="149.77" y2="137.56"/></g></g></svg>