<?xml version="1.0" encoding="utf-8"?>
<!-- Generator: Adobe Illustrator 22.1.0, SVG Export Plug-In . SVG Version: 6.00 Build 0)  -->
<svg version="1.1" id="Kelvin_LED_Clamp" xmlns="http://www.w3.org/2000/svg" xmlns:xlink="http://www.w3.org/1999/xlink" x="0px"
	 y="0px" viewBox="0 0 300 263" style="enable-background:new 0 0 300 263;" xml:space="preserve">
<style type="text/css">
	.st0{fill:none;stroke:#000000;stroke-width:0.5;}
	.st1{fill:none;stroke:#000100;stroke-width:0.3;stroke-miterlimit:2;}
	.st2{fill:none;stroke:#000100;stroke-width:0.5;stroke-miterlimit:2;}
	.st3{fill:#000100;}
	.st4{fill:none;stroke:#000100;stroke-width:0.5;stroke-linecap:round;stroke-linejoin:round;}
</style>
<title>kelvin-led-clamp-citterio-flos-F3313057-spech-tech-02-300x263</title>
<line class="st0" x1="60.9" y1="211.1" x2="60.9" y2="47"/>
<line class="st0" x1="59.5" y1="211.1" x2="62.9" y2="211.1"/>
<line class="st0" x1="59.2" y1="47" x2="62.6" y2="47"/>
<line class="st0" x1="79.9" y1="38.2" x2="245.1" y2="38.2"/>
<line class="st0" x1="79.9" y1="36.5" x2="79.9" y2="39.9"/>
<line class="st0" x1="245.1" y1="36.5" x2="245.1" y2="39.9"/>
<line class="st1" x1="82.5" y1="57.1" x2="205.9" y2="57.1"/>
<line class="st2" x1="112.4" y1="54.9" x2="112.4" y2="54.9"/>
<line class="st2" x1="112.4" y1="54.9" x2="112.4" y2="54.9"/>
<line class="st2" x1="107.2" y1="55.8" x2="123" y2="55.8"/>
<polyline class="st2" points="107.2,54.4 106.9,54.5 106.7,54.7 106.6,55 106.6,55.4 106.8,55.6 107.1,55.8 107.2,55.8 "/>
<line class="st2" x1="123" y1="54.4" x2="114.1" y2="54.4"/>
<line class="st2" x1="109.8" y1="54.4" x2="107.2" y2="54.4"/>
<polyline class="st2" points="123,55.8 123.3,55.7 123.6,55.5 123.7,55.2 123.6,54.8 123.4,54.6 123.1,54.4 123,54.4 "/>
<line class="st2" x1="111.8" y1="54.9" x2="111.1" y2="54.7"/>
<line class="st2" x1="110.4" y1="54.5" x2="109.8" y2="54.4"/>
<line class="st2" x1="111.8" y1="54.9" x2="111.8" y2="54.9"/>
<line class="st2" x1="111.8" y1="54.9" x2="111.8" y2="54.9"/>
<polyline class="st2" points="114.5,55.6 114.8,55.6 115.1,55.4 115.2,55 115,54.7 114.8,54.6 "/>
<line class="st2" x1="112" y1="54.9" x2="111.8" y2="54.9"/>
<line class="st2" x1="112.1" y1="53.9" x2="113.6" y2="54.3"/>
<line class="st2" x1="111.8" y1="54.9" x2="113.3" y2="55.3"/>
<line class="st2" x1="114.1" y1="55.5" x2="114.5" y2="55.6"/>
<line class="st2" x1="113.6" y1="54.3" x2="114.8" y2="54.6"/>
<line class="st2" x1="113.3" y1="55.3" x2="114.5" y2="55.6"/>
<line class="st2" x1="119.7" y1="54.6" x2="121.1" y2="54.6"/>
<line class="st2" x1="121.1" y1="55.6" x2="119.7" y2="55.6"/>
<polyline class="st2" points="110,55.8 110.2,55.5 110.1,55.2 109.9,54.9 109.6,54.8 109.2,54.9 109,55.1 108.9,55.5 109.1,55.8 
	109.1,55.8 "/>
<line class="st2" x1="119.7" y1="55.6" x2="119.7" y2="54.6"/>
<line class="st2" x1="117.3" y1="55.6" x2="117.3" y2="54.6"/>
<line class="st2" x1="117.3" y1="55.6" x2="114.1" y2="55.6"/>
<line class="st2" x1="114.7" y1="54.6" x2="117.3" y2="54.6"/>
<line class="st2" x1="114.1" y1="55.5" x2="114.1" y2="55.6"/>
<line class="st2" x1="119.7" y1="54.6" x2="119.7" y2="54.5"/>
<line class="st2" x1="119.7" y1="54.5" x2="122.5" y2="54.5"/>
<line class="st2" x1="122.5" y1="54.6" x2="122.5" y2="54.5"/>
<line class="st2" x1="121.6" y1="54.6" x2="122.5" y2="54.6"/>
<polyline class="st2" points="121.1,54.6 121.1,54.6 121.1,54.6 121.2,54.6 121.6,54.6 "/>
<line class="st2" x1="122.5" y1="55.6" x2="121.6" y2="55.6"/>
<line class="st2" x1="122.5" y1="54.6" x2="122.5" y2="55.6"/>
<polyline class="st2" points="121.1,55.6 121.1,55.6 121.1,55.6 121.2,55.6 121.6,55.6 "/>
<line class="st2" x1="122.5" y1="55.6" x2="122.5" y2="55.6"/>
<line class="st2" x1="119.7" y1="55.6" x2="122.5" y2="55.6"/>
<line class="st2" x1="119.7" y1="55.6" x2="119.7" y2="55.6"/>
<polyline class="st2" points="110.1,55.8 110.2,55.5 110.1,55.2 109.9,54.9 109.6,54.8 109.3,54.9 109,55.1 108.9,55.4 109.1,55.7 
	109.1,55.8 "/>
<line class="st2" x1="119.7" y1="55.6" x2="119.7" y2="54.5"/>
<line class="st2" x1="114.6" y1="54.5" x2="117.3" y2="54.5"/>
<line class="st2" x1="117.3" y1="54.6" x2="117.3" y2="54.5"/>
<line class="st2" x1="113.1" y1="55.2" x2="113.1" y2="55.6"/>
<polyline class="st2" points="114.1,55.6 114.1,55.6 114.1,55.6 114.1,55.6 114,55.6 113.7,55.6 113.1,55.6 "/>
<line class="st2" x1="114.1" y1="55.5" x2="114.1" y2="55.6"/>
<line class="st2" x1="114.1" y1="55.6" x2="114.1" y2="55.6"/>
<line class="st2" x1="117.3" y1="55.6" x2="117.3" y2="55.6"/>
<line class="st2" x1="113.1" y1="55.6" x2="117.3" y2="55.6"/>
<line class="st2" x1="117.3" y1="55.6" x2="117.3" y2="54.5"/>
<line class="st2" x1="122.5" y1="54.5" x2="122.5" y2="54.5"/>
<line class="st2" x1="122.5" y1="54.5" x2="122.5" y2="54.5"/>
<line class="st2" x1="108.7" y1="54.5" x2="110.4" y2="54.5"/>
<line class="st2" x1="108.7" y1="54.5" x2="108.7" y2="54.5"/>
<line class="st2" x1="122.5" y1="54.5" x2="122.5" y2="54.4"/>
<line class="st2" x1="122.5" y1="54.5" x2="122.5" y2="54.4"/>
<polyline class="st2" points="108.7,54.5 108.5,54.8 108.4,55.1 108.3,55.5 108.4,55.8 "/>
<line class="st2" x1="110.6" y1="54.6" x2="110.6" y2="55.8"/>
<line class="st2" x1="122.5" y1="54.5" x2="122.5" y2="55.8"/>
<line class="st2" x1="122.5" y1="55.8" x2="122.5" y2="55.6"/>
<line class="st2" x1="122.5" y1="54.5" x2="122.5" y2="54.4"/>
<line class="st2" x1="110.6" y1="54.6" x2="110.6" y2="55.8"/>
<line class="st2" x1="110.8" y1="54.7" x2="110.8" y2="55.8"/>
<polyline class="st2" points="108.7,54.5 108.5,54.8 108.4,55.1 108.3,55.5 108.4,55.8 "/>
<polyline class="st2" points="111.1,54.7 111,55 111,55.3 111.3,55.6 111.6,55.6 111.9,55.4 112,55.1 112,54.9 "/>
<polyline class="st2" points="82.8,190.2 82.8,189.8 82.8,189.5 82.7,189.1 82.6,188.8 82.4,188.5 82.2,188.2 82,187.9 81.8,187.7 
	81.7,187.6 "/>
<line class="st2" x1="82.8" y1="191.4" x2="82.8" y2="190.2"/>
<line class="st2" x1="80.9" y1="189.1" x2="82.7" y2="189.1"/>
<line class="st2" x1="82.8" y1="202.2" x2="82.8" y2="191.4"/>
<line class="st2" x1="82.8" y1="207.6" x2="82.8" y2="202.2"/>
<polyline class="st2" points="71.5,178 71.2,177.8 70.9,177.7 70.5,177.6 70.2,177.7 69.9,177.9 69.7,178.1 69.5,178.5 69.4,178.8 
	69.5,179.1 69.6,179.5 69.8,179.7 "/>
<line class="st2" x1="81.5" y1="187.4" x2="71.5" y2="178"/>
<polyline class="st2" points="79,190.2 78.9,189.8 78.8,189.5 78.7,189.2 78.5,189 "/>
<line class="st2" x1="77.1" y1="187.4" x2="78.5" y2="189"/>
<line class="st2" x1="80.9" y1="189.1" x2="78.6" y2="189.1"/>
<line class="st2" x1="77.1" y1="187.4" x2="69.8" y2="179.7"/>
<line class="st2" x1="79" y1="202.2" x2="79" y2="207.6"/>
<line class="st2" x1="79" y1="202.2" x2="79" y2="191.4"/>
<line class="st2" x1="81.7" y1="187.6" x2="81.5" y2="187.4"/>
<line class="st2" x1="79" y1="190.2" x2="79" y2="191.4"/>
<line class="st2" x1="82.8" y1="187.8" x2="82.8" y2="192.1"/>
<line class="st2" x1="82.8" y1="71.8" x2="79" y2="71.8"/>
<line class="st2" x1="79" y1="185.1" x2="79" y2="153.8"/>
<line class="st2" x1="79" y1="149.7" x2="79" y2="71.8"/>
<line class="st2" x1="82.8" y1="187.7" x2="82.8" y2="71.8"/>
<line class="st2" x1="81.6" y1="157.7" x2="81.6" y2="142"/>
<polyline class="st2" points="80.2,157.7 80.3,158 80.5,158.3 80.8,158.4 81.2,158.3 81.4,158.1 81.6,157.8 81.6,157.7 "/>
<line class="st2" x1="80.2" y1="142" x2="80.2" y2="145.8"/>
<line class="st2" x1="80.2" y1="149.5" x2="80.2" y2="157.7"/>
<polyline class="st2" points="81.6,142 81.5,141.6 81.3,141.4 81,141.3 80.6,141.3 80.4,141.5 80.2,141.8 80.2,142 "/>
<line class="st2" x1="80.9" y1="71.8" x2="79" y2="71.8"/>
<line class="st2" x1="79.9" y1="71.8" x2="79.9" y2="71.8"/>
<line class="st2" x1="80.9" y1="71.8" x2="82.8" y2="71.8"/>
<line class="st2" x1="81.9" y1="71.8" x2="81.9" y2="71.8"/>
<line class="st2" x1="82.8" y1="71.8" x2="82.7" y2="68"/>
<line class="st2" x1="82.7" y1="68" x2="82.6" y2="64.8"/>
<line class="st2" x1="82.5" y1="58.8" x2="82.6" y2="64.8"/>
<line class="st2" x1="82.3" y1="51.6" x2="82.5" y2="58.8"/>
<line class="st2" x1="82.1" y1="46.1" x2="82.3" y2="51.6"/>
<polyline class="st2" points="82.1,46.1 82.1,45.8 81.9,45.4 81.7,45.2 81.4,45 81.1,44.9 80.7,44.9 80.4,45 80.1,45.2 79.9,45.5 
	79.7,45.8 79.7,46.1 "/>
<line class="st2" x1="79.7" y1="46.1" x2="79.5" y2="51.6"/>
<line class="st2" x1="79.5" y1="51.6" x2="79.3" y2="58.8"/>
<line class="st2" x1="79.3" y1="58.8" x2="79.2" y2="64.8"/>
<line class="st2" x1="79.1" y1="68" x2="79.2" y2="64.8"/>
<line class="st2" x1="79" y1="71.8" x2="79.1" y2="68"/>
<line class="st2" x1="82.4" y1="55.1" x2="82.7" y2="55.1"/>
<line class="st2" x1="82.7" y1="55.1" x2="82.6" y2="57.1"/>
<line class="st2" x1="82.6" y1="57.1" x2="82.4" y2="57.1"/>
<line class="st2" x1="79.4" y1="57.1" x2="78.3" y2="57.1"/>
<polyline class="st2" points="77.4,56.2 77.5,56.5 77.7,56.8 78,57 78.3,57.1 "/>
<line class="st2" x1="77.4" y1="55.1" x2="77.4" y2="56.2"/>
<line class="st2" x1="77.4" y1="55.1" x2="77.4" y2="54.1"/>
<polyline class="st2" points="78.3,53.2 78,53.3 77.7,53.5 77.5,53.8 77.4,54.1 "/>
<line class="st2" x1="82.6" y1="53.2" x2="82.3" y2="53.2"/>
<line class="st2" x1="79.5" y1="53.2" x2="78.3" y2="53.2"/>
<line class="st2" x1="82.7" y1="55.1" x2="82.6" y2="53.2"/>
<line class="st2" x1="82.7" y1="53.9" x2="82.6" y2="53.9"/>
<line class="st2" x1="82.7" y1="56.4" x2="82.6" y2="56.4"/>
<line class="st2" x1="205.6" y1="57.1" x2="205.6" y2="53.2"/>
<line class="st2" x1="82.7" y1="53.2" x2="104.9" y2="53.2"/>
<line class="st1" x1="109.8" y1="53.2" x2="205.6" y2="53.2"/>
<line class="st2" x1="80.6" y1="148.1" x2="80.4" y2="148.7"/>
<line class="st2" x1="80.3" y1="149.3" x2="80.2" y2="149.5"/>
<line class="st2" x1="79" y1="153.8" x2="72" y2="178.5"/>
<polyline class="st2" points="69.7,178.1 73,168 76.3,157.9 79.6,147.8 "/>
<polyline class="st2" points="80.6,148.1 80.5,148.5 80.4,148.8 80.3,149.1 80.2,149.5 80.1,149.8 80,150.1 79.9,150.5 79.8,150.8 
	79.7,151.1 79.6,151.5 79.5,151.8 79.4,152.2 79.3,152.5 79.2,152.8 79.1,153.2 79,153.5 78.9,153.8 78.8,154.2 78.8,154.5 
	78.7,154.8 78.6,155.2 78.5,155.5 78.4,155.9 78.3,156.2 78.2,156.5 78.1,156.9 78,157.2 77.9,157.5 77.8,157.9 77.7,158.2 
	77.6,158.5 77.5,158.9 77.4,159.2 77.3,159.6 77.2,159.9 77.1,160.2 77,160.6 76.9,160.9 76.8,161.2 76.8,161.6 76.7,161.9 
	76.6,162.2 76.5,162.6 76.4,162.9 76.3,163.2 76.2,163.6 76.1,163.9 76,164.2 75.9,164.6 75.8,164.9 75.7,165.3 75.6,165.6 
	75.5,165.9 75.4,166.3 75.3,166.6 75.2,166.9 75.1,167.3 75,167.6 74.9,167.9 74.8,168.3 74.8,168.6 74.7,168.9 74.6,169.3 
	74.5,169.6 74.4,170 74.3,170.3 74.2,170.6 74.1,171 74,171.3 73.9,171.6 73.8,172 73.7,172.3 73.6,172.6 73.5,173 73.4,173.3 
	73.3,173.6 73.2,174 73.1,174.3 73,174.7 72.9,175 72.9,175.3 72.8,175.7 72.7,176 72.6,176.3 72.5,176.7 72.4,177 72.3,177.4 
	72.2,177.7 72.1,178 72,178.4 72,178.4 "/>
<line class="st2" x1="79.6" y1="147.8" x2="79.6" y2="147.8"/>
<line class="st2" x1="79.6" y1="147.8" x2="79.6" y2="147.8"/>
<line class="st2" x1="69.5" y1="178.5" x2="69.5" y2="178.5"/>
<polyline class="st2" points="69.5,178.5 69.4,178.8 69.5,179.2 69.6,179.5 69.8,179.8 69.8,179.8 "/>
<line class="st2" x1="69.5" y1="178.5" x2="69.5" y2="178.3"/>
<polyline class="st2" points="69.5,178.3 74.6,163.1 79.6,147.8 "/>
<line class="st2" x1="80.6" y1="148.1" x2="80.6" y2="148.1"/>
<polyline class="st2" points="80.6,148.1 80.5,148.5 80.4,148.8 80.3,149.1 80.2,149.5 80.1,149.8 80,150.1 79.9,150.5 79.8,150.8 
	79.7,151.1 79.6,151.5 79.5,151.8 79.4,152.2 79.3,152.5 79.2,152.8 79.2,153.2 79.1,153.5 79,153.8 78.9,154.2 78.8,154.5 
	78.7,154.9 78.6,155.2 78.5,155.5 78.4,155.9 78.3,156.2 78.2,156.5 78.1,156.9 78,157.2 77.9,157.5 77.8,157.9 77.7,158.2 
	77.6,158.5 77.6,158.9 77.5,159.2 77.4,159.6 77.3,159.9 77.2,160.2 77.1,160.6 77,160.9 76.9,161.2 76.8,161.6 76.7,161.9 
	76.6,162.2 76.5,162.6 76.4,162.9 76.3,163.2 76.2,163.6 76.1,163.9 76,164.3 75.9,164.6 75.8,164.9 75.8,165.3 75.7,165.6 
	75.6,165.9 75.5,166.3 75.4,166.6 75.3,166.9 75.2,167.3 75.1,167.6 75,167.9 74.9,168.3 74.8,168.6 74.7,169 74.6,169.3 
	74.5,169.6 74.4,170 74.3,170.3 74.2,170.6 74.1,171 74.1,171.3 73.9,171.6 73.9,172 73.8,172.3 73.7,172.7 73.6,173 73.5,173.3 
	73.4,173.7 73.3,174 73.2,174.3 73.1,174.7 73,175 72.9,175.4 72.8,175.7 72.7,176 72.6,176.4 72.5,176.7 72.4,177 72.3,177.4 
	72.2,177.7 72.2,178 72.1,178.4 72,178.5 "/>
<line class="st2" x1="79.6" y1="147.8" x2="69.5" y2="178.3"/>
<line class="st2" x1="80.6" y1="148.1" x2="72" y2="178.5"/>
<polyline class="st2" points="81.4,145.5 81.4,145.1 81.2,144.9 80.9,144.8 80.6,144.9 80.4,145.1 "/>
<line class="st2" x1="80.6" y1="148" x2="80.6" y2="148.1"/>
<line class="st2" x1="79.6" y1="147.8" x2="80" y2="146.3"/>
<line class="st2" x1="80.6" y1="148.1" x2="81" y2="146.6"/>
<line class="st2" x1="80.4" y1="145.2" x2="80.4" y2="145.1"/>
<line class="st2" x1="81.3" y1="145.8" x2="81.4" y2="145.5"/>
<line class="st2" x1="80" y1="146.3" x2="80.4" y2="145.1"/>
<line class="st2" x1="81" y1="146.6" x2="81.4" y2="145.5"/>
<line class="st2" x1="104.9" y1="53.2" x2="82.2" y2="47.7"/>
<polyline class="st2" points="81.6,45.1 91.8,48.1 102,51 112.2,53.9 "/>
<polyline class="st2" points="112,54.9 97.1,51.3 82.2,47.6 "/>
<polyline class="st2" points="81.2,45 80.9,44.9 80.6,45 80.2,45.1 80,45.3 79.8,45.6 79.7,45.9 79.7,46.2 "/>
<line class="st2" x1="81.2" y1="45" x2="81.2" y2="45"/>
<line class="st2" x1="81.2" y1="45" x2="81.4" y2="45"/>
<polyline class="st2" points="81.4,45 96.8,49.5 112.2,53.9 "/>
<polyline class="st2" points="112,54.9 97.1,51.3 82.2,47.7 "/>
<line class="st2" x1="112.2" y1="53.9" x2="81.4" y2="45"/>
<line class="st2" x1="112" y1="54.9" x2="82.2" y2="47.7"/>
<polyline class="st2" points="81.6,149.9 81.3,149.8 81,149.8 80.7,150 80.6,150.4 80.7,150.7 80.9,150.9 81.3,151 81.6,150.9 
	81.6,150.8 "/>
<line class="st2" x1="81.4" y1="142.7" x2="80.4" y2="142.7"/>
<line class="st2" x1="81.4" y1="142.7" x2="81.4" y2="145.8"/>
<line class="st2" x1="80.4" y1="145.2" x2="80.4" y2="142.7"/>
<line class="st2" x1="81.3" y1="145.8" x2="81.4" y2="145.8"/>
<polyline class="st2" points="81.6,149.9 81.3,149.8 81,149.8 80.7,150 80.6,150.3 80.7,150.7 80.9,150.9 81.2,151 81.6,150.9 
	81.6,150.9 "/>
<line class="st2" x1="80.3" y1="145.3" x2="80.3" y2="142.7"/>
<line class="st2" x1="80.4" y1="142.7" x2="80.3" y2="142.7"/>
<line class="st2" x1="81" y1="146.9" x2="81.4" y2="146.9"/>
<polyline class="st2" points="81.4,145.8 81.4,145.8 81.4,145.9 81.4,146 81.4,146.3 81.4,146.9 "/>
<line class="st2" x1="81.3" y1="145.8" x2="81.4" y2="145.8"/>
<line class="st2" x1="81.4" y1="145.8" x2="81.4" y2="145.8"/>
<line class="st2" x1="81.4" y1="142.7" x2="81.4" y2="142.7"/>
<line class="st2" x1="81.4" y1="146.9" x2="81.4" y2="142.7"/>
<line class="st2" x1="81.4" y1="142.7" x2="80.3" y2="142.7"/>
<line class="st2" x1="80.3" y1="149.3" x2="80.3" y2="149.3"/>
<line class="st2" x1="80.3" y1="149.3" x2="80.3" y2="149.3"/>
<line class="st2" x1="80.3" y1="151.2" x2="80.3" y2="149.3"/>
<line class="st2" x1="80.3" y1="151.2" x2="80.3" y2="151.2"/>
<line class="st2" x1="80.3" y1="149.3" x2="80.3" y2="149.3"/>
<line class="st2" x1="80.3" y1="149.3" x2="80.3" y2="149.3"/>
<line class="st2" x1="80.3" y1="149.3" x2="80.3" y2="149.3"/>
<polyline class="st2" points="80.3,151.2 80.6,151.4 80.9,151.6 81.3,151.6 81.6,151.5 "/>
<line class="st2" x1="80.3" y1="149.3" x2="81.6" y2="149.3"/>
<line class="st2" x1="80.3" y1="149.3" x2="81.6" y2="149.3"/>
<line class="st2" x1="80.3" y1="149.1" x2="81.6" y2="149.1"/>
<polyline class="st2" points="80.3,151.2 80.6,151.4 80.9,151.6 81.3,151.6 81.6,151.5 "/>
<polyline class="st2" points="80.4,148.7 80.7,148.9 81,148.9 81.3,148.8 81.4,148.5 81.3,148.2 81.1,148 80.8,148 80.6,148 "/>
<line class="st2" x1="212.9" y1="57.8" x2="212.6" y2="57.7"/>
<line class="st2" x1="213" y1="57.8" x2="212.9" y2="57.8"/>
<line class="st2" x1="212.9" y1="57.8" x2="213" y2="57.8"/>
<line class="st2" x1="205.6" y1="55.1" x2="205.6" y2="53.2"/>
<line class="st2" x1="205.6" y1="53.7" x2="205.6" y2="53.7"/>
<line class="st2" x1="205.6" y1="53.9" x2="205.6" y2="53.9"/>
<line class="st2" x1="213.7" y1="52.4" x2="205.6" y2="53.2"/>
<line class="st2" x1="213.7" y1="55.1" x2="213.7" y2="57"/>
<line class="st2" x1="213.7" y1="53.2" x2="213.7" y2="55.1"/>
<line class="st2" x1="214.1" y1="55.1" x2="214.1" y2="57.8"/>
<line class="st2" x1="213.7" y1="57" x2="213.7" y2="57.8"/>
<line class="st2" x1="214.1" y1="55.1" x2="214.1" y2="52.4"/>
<line class="st2" x1="213.7" y1="52.4" x2="213.7" y2="53.2"/>
<line class="st2" x1="205.6" y1="56.5" x2="205.6" y2="56.5"/>
<line class="st2" x1="205.6" y1="56.4" x2="205.6" y2="56.4"/>
<line class="st2" x1="214.1" y1="57.4" x2="214.1" y2="57.4"/>
<line class="st2" x1="205.6" y1="55.1" x2="205.6" y2="57.1"/>
<line class="st2" x1="213.7" y1="57.8" x2="213" y2="57.8"/>
<line class="st2" x1="212.1" y1="57.7" x2="205.6" y2="57.1"/>
<line class="st2" x1="214.1" y1="57.8" x2="213.7" y2="57.8"/>
<line class="st2" x1="214.1" y1="52.4" x2="213.7" y2="52.4"/>
<line class="st2" x1="214.1" y1="52.9" x2="214.2" y2="52.9"/>
<line class="st2" x1="214.1" y1="57.4" x2="214.2" y2="57.4"/>
<line class="st2" x1="214.2" y1="57.4" x2="214.2" y2="52.9"/>
<polyline class="st2" points="214.8,56 214.8,55.7 214.9,55.3 214.9,55.1 "/>
<line class="st2" x1="214.9" y1="55.1" x2="215.5" y2="55.1"/>
<line class="st2" x1="214.8" y1="56" x2="215.5" y2="56"/>
<line class="st2" x1="214.8" y1="54.3" x2="215.6" y2="54.3"/>
<line class="st2" x1="214.9" y1="54.1" x2="215.6" y2="54.1"/>
<polyline class="st2" points="214.8,54.3 214.8,54.2 214.8,54.2 214.8,54.2 214.8,54.1 214.8,54.1 214.9,54.1 "/>
<line class="st2" x1="214.7" y1="54" x2="214.9" y2="54.1"/>
<line class="st2" x1="214.6" y1="54.3" x2="214.8" y2="54.3"/>
<polyline class="st2" points="214.6,54.3 214.6,54.2 214.6,54.1 214.6,54 214.6,54 214.7,54 214.7,54 214.7,54 "/>
<line class="st2" x1="214.9" y1="55.1" x2="214.7" y2="55.1"/>
<line class="st2" x1="214.8" y1="56" x2="214.6" y2="56"/>
<polyline class="st2" points="214.6,56 214.7,55.6 214.7,55.3 214.7,55.1 "/>
<line class="st2" x1="214.4" y1="52.4" x2="214.4" y2="55.1"/>
<line class="st2" x1="214.2" y1="55.1" x2="214.2" y2="52.4"/>
<polyline class="st2" points="215.2,54 215.1,54 214.9,54 214.7,54 "/>
<line class="st2" x1="214.2" y1="55.1" x2="214.2" y2="57.8"/>
<line class="st2" x1="214.9" y1="56.2" x2="215.5" y2="56.1"/>
<polyline class="st2" points="214.8,56 214.8,56 214.8,56.1 214.8,56.1 214.8,56.1 214.8,56.2 214.9,56.2 "/>
<polyline class="st2" points="215.2,56.2 215.1,56.2 214.9,56.3 214.7,56.3 "/>
<line class="st2" x1="214.9" y1="56.2" x2="214.7" y2="56.3"/>
<polyline class="st2" points="214.6,56 214.6,56.1 214.6,56.2 214.6,56.2 214.6,56.3 214.7,56.3 214.7,56.3 214.7,56.3 "/>
<line class="st2" x1="214.4" y1="57.8" x2="214.4" y2="55.1"/>
<polyline class="st2" points="214.7,55.1 214.7,54.8 214.7,54.4 214.6,54.3 "/>
<polyline class="st2" points="214.9,55.1 214.9,54.8 214.8,54.4 214.8,54.3 "/>
<line class="st2" x1="214.4" y1="52.4" x2="214.2" y2="52.4"/>
<line class="st2" x1="215.2" y1="54" x2="215.3" y2="54.1"/>
<line class="st2" x1="214.2" y1="53.5" x2="214.2" y2="53.5"/>
<line class="st2" x1="214.2" y1="56.8" x2="214.2" y2="56.8"/>
<line class="st2" x1="215.3" y1="56.1" x2="215.2" y2="56.2"/>
<line class="st2" x1="214.2" y1="57.8" x2="214.4" y2="57.8"/>
<line class="st2" x1="215.2" y1="56.2" x2="214.4" y2="57.8"/>
<line class="st2" x1="215.2" y1="54" x2="214.4" y2="52.4"/>
<line class="st2" x1="215.7" y1="53.3" x2="215.6" y2="53.2"/>
<polyline class="st2" points="215.7,53.3 215.7,53.3 215.7,53.3 216.1,53.3 "/>
<line class="st2" x1="221.2" y1="51.8" x2="221.3" y2="51.8"/>
<line class="st2" x1="215.6" y1="53.4" x2="215.6" y2="53.4"/>
<line class="st2" x1="215.7" y1="53.3" x2="215.6" y2="53.4"/>
<line class="st2" x1="215.6" y1="53.4" x2="215.5" y2="57.1"/>
<line class="st2" x1="217.2" y1="57.1" x2="215.5" y2="57.1"/>
<line class="st2" x1="243.4" y1="57.1" x2="217.2" y2="57.1"/>
<line class="st2" x1="245.2" y1="57.1" x2="243.4" y2="57.1"/>
<polyline class="st2" points="215.6,53.4 215.6,53.4 215.6,53.4 215.6,53.4 215.6,53.4 216.1,53.4 "/>
<line class="st2" x1="221.3" y1="51.8" x2="222.5" y2="51.8"/>
<line class="st2" x1="230.4" y1="51.8" x2="222.5" y2="51.8"/>
<polyline class="st2" points="217.2,53.3 217.6,53.3 219,53.2 224.3,53.2 230.4,53.2 "/>
<polyline class="st2" points="216.1,53.3 216.5,53.3 216.8,53.3 217.2,53.3 217.2,53.3 "/>
<polyline class="st2" points="228.9,51.8 228.6,51.8 228.2,51.8 227.9,51.8 227.5,51.8 227.2,51.8 226.8,51.8 226.5,51.8 
	226.1,51.8 225.8,51.8 225.4,51.8 225.1,51.8 224.7,51.8 224.4,51.8 224,51.8 223.7,51.8 223.3,51.8 223,51.8 222.6,51.8 
	222.3,51.8 221.9,51.8 221.6,51.8 221.2,51.8 220.9,51.8 220.7,51.8 "/>
<line class="st2" x1="229.3" y1="51.8" x2="230.4" y2="51.8"/>
<line class="st2" x1="229.3" y1="51.8" x2="228.9" y2="51.8"/>
<line class="st2" x1="217.2" y1="53.4" x2="217.2" y2="57.1"/>
<polyline class="st2" points="216.1,53.4 216.4,53.4 216.8,53.4 217.1,53.4 217.2,53.4 "/>
<polyline class="st2" points="217.2,53.4 217.5,53.4 221.7,53.4 228.1,53.4 230.4,53.4 "/>
<polyline class="st2" points="230.4,53.4 232.5,53.4 238.8,53.4 243.2,53.4 243.4,53.4 "/>
<line class="st2" x1="243.4" y1="53.4" x2="243.4" y2="57.1"/>
<line class="st2" x1="245.1" y1="53.4" x2="245.2" y2="57.1"/>
<polyline class="st2" points="243.4,53.4 243.8,53.4 244.1,53.4 244.5,53.4 244.6,53.4 "/>
<polyline class="st2" points="244.6,53.4 245.1,53.4 245.1,53.4 245.1,53.4 "/>
<line class="st2" x1="245.1" y1="53.4" x2="245.1" y2="53.4"/>
<line class="st2" x1="229.3" y1="51.8" x2="230.4" y2="51.8"/>
<line class="st2" x1="231.4" y1="51.8" x2="230.4" y2="51.8"/>
<line class="st2" x1="231.4" y1="51.8" x2="231.8" y2="51.8"/>
<line class="st2" x1="231.4" y1="51.8" x2="230.4" y2="51.8"/>
<line class="st2" x1="217.2" y1="53.4" x2="217.2" y2="53.3"/>
<polyline class="st2" points="243.4,53.3 243.8,53.3 244.1,53.3 244.5,53.3 244.6,53.3 "/>
<polyline class="st2" points="230.4,53.2 236.2,53.2 242.1,53.2 243.1,53.3 243.4,53.3 "/>
<line class="st2" x1="238.2" y1="51.8" x2="230.4" y2="51.8"/>
<line class="st2" x1="238.2" y1="51.8" x2="239.4" y2="51.8"/>
<line class="st2" x1="239.4" y1="51.8" x2="239.5" y2="51.8"/>
<polyline class="st2" points="239.9,51.8 239.6,51.8 239.2,51.8 238.9,51.8 238.6,51.8 238.2,51.8 237.9,51.8 237.5,51.8 
	237.2,51.8 236.8,51.8 236.5,51.8 236.1,51.8 235.8,51.8 235.4,51.8 235.1,51.8 234.7,51.8 234.4,51.8 234,51.8 233.7,51.8 
	233.3,51.8 233,51.8 232.6,51.8 232.3,51.8 231.9,51.8 231.8,51.8 "/>
<line class="st2" x1="243.4" y1="53.4" x2="243.4" y2="53.3"/>
<line class="st2" x1="245.1" y1="53.4" x2="245" y2="53.3"/>
<polyline class="st2" points="244.6,53.3 245,53.3 245,53.3 "/>
<line class="st2" x1="245" y1="53.2" x2="245" y2="53.3"/>
<line class="st2" x1="221.2" y1="51.8" x2="220.8" y2="51.8"/>
<polyline class="st2" points="220.8,51.8 220.4,51.8 219.9,51.9 219.6,51.9 219.1,52 218.6,52 218.2,52.1 217.7,52.3 217.3,52.4 
	217.1,52.5 216.9,52.6 216.6,52.7 216.4,52.8 216.1,53 215.9,53.1 215.6,53.2 "/>
<line class="st2" x1="215.6" y1="53.2" x2="215.6" y2="53.4"/>
<polyline class="st2" points="221.2,51.8 220.7,51.8 220.2,51.8 219.9,51.9 219.7,51.9 219.4,51.9 219.1,52 218.8,52 218.5,52.1 
	218.2,52.1 217.9,52.2 "/>
<line class="st2" x1="219.7" y1="51.9" x2="219.6" y2="51.9"/>
<line class="st2" x1="216.1" y1="53" x2="216.1" y2="53"/>
<line class="st2" x1="245.1" y1="53.4" x2="245" y2="53.2"/>
<polyline class="st2" points="245,53.2 244.6,53 244.3,52.8 243.9,52.6 243.5,52.5 243.2,52.3 242.8,52.2 242.3,52.1 241.8,52 
	241.6,52 241.3,51.9 241.1,51.9 240.8,51.9 240.2,51.8 239.9,51.8 "/>
<line class="st2" x1="239.9" y1="51.8" x2="239.5" y2="51.8"/>
<polyline class="st2" points="245.1,53.3 245.1,53.3 244.9,53.2 244.6,53 244.2,52.8 243.9,52.6 243.5,52.5 243.1,52.3 "/>
<line class="st2" x1="239.6" y1="51.8" x2="239.5" y2="51.8"/>
<line class="st2" x1="212.5" y1="57.8" x2="212.9" y2="57.8"/>
<line class="st2" x1="212.2" y1="57.8" x2="212.5" y2="57.8"/>
<line class="st2" x1="212.2" y1="57.8" x2="212.1" y2="57.7"/>
<rect x="80.6" y="44.6" class="st3" width="0.5" height="0.5"/>
<line class="st2" x1="82.8" y1="207.6" x2="82.8" y2="211.1"/>
<line class="st2" x1="79" y1="207.6" x2="79" y2="211.1"/>
<polygon class="st4" points="81.3,229.3 81.3,240.2 87.6,240.2 87.6,242.3 79.9,242.3 79.9,229.3 "/>
<polygon class="st4" points="77.1,211.3 77.1,224 76,224 76,238.4 83.7,238.4 83.7,235.6 78.1,235.6 78.1,227 83.8,227 83.8,211.3 
	"/>
<line class="st4" x1="77.1" y1="224" x2="83.5" y2="224"/>
<g>
	<path d="M140.7,18.5h-4.6l-0.1,3.4c0.2-0.1,0.5-0.2,0.8-0.2c0.3,0,0.5-0.1,0.8-0.1c0.5,0,1,0.1,1.4,0.3c0.4,0.2,0.8,0.4,1.1,0.8
		c0.3,0.3,0.6,0.7,0.7,1.1c0.2,0.5,0.3,1,0.3,1.5c0,0.5-0.1,1-0.3,1.5c-0.2,0.5-0.5,0.9-0.8,1.2c-0.3,0.3-0.8,0.6-1.2,0.8
		c-0.5,0.2-1,0.3-1.5,0.3c-0.7,0-1.3-0.2-1.9-0.5c-0.6-0.4-1-0.9-1.3-1.5l1.1-0.5c0.2,0.4,0.5,0.8,0.9,1.1c0.4,0.3,0.9,0.4,1.3,0.4
		c0.3,0,0.7-0.1,1-0.2c0.3-0.1,0.6-0.3,0.8-0.5c0.2-0.2,0.4-0.5,0.5-0.8c0.1-0.3,0.2-0.7,0.2-1c0-0.4-0.1-0.7-0.2-1.1
		c-0.1-0.3-0.3-0.6-0.6-0.9c-0.3-0.2-0.6-0.4-0.9-0.5c-0.4-0.1-0.7-0.2-1.1-0.2c-0.4,0-0.8,0.1-1.2,0.2c-0.4,0.1-0.8,0.3-1.1,0.5
		l0.1-5.9h5.8L140.7,18.5z"/>
	<path d="M145.1,22.8c-0.2-0.1-0.5-0.2-0.7-0.4c-0.2-0.2-0.4-0.4-0.5-0.6c-0.5-0.8-0.6-1.9-0.2-2.8c0.2-0.4,0.4-0.7,0.7-0.9
		c0.3-0.3,0.6-0.5,1-0.6c0.8-0.3,1.6-0.3,2.4,0c0.4,0.1,0.7,0.3,1,0.6c0.3,0.3,0.5,0.6,0.7,0.9c0.2,0.4,0.3,0.8,0.2,1.2
		c0,0.6-0.2,1.1-0.5,1.6c-0.1,0.2-0.3,0.4-0.5,0.6c-0.2,0.2-0.4,0.3-0.7,0.4l0,0c0.6,0.2,1.2,0.5,1.5,1c0.4,0.6,0.6,1.2,0.6,1.9
		c0,0.5-0.1,0.9-0.3,1.3c-0.2,0.4-0.5,0.7-0.8,1c-0.3,0.3-0.7,0.5-1.1,0.6c-0.4,0.2-0.9,0.2-1.4,0.2c-0.5,0-0.9-0.1-1.4-0.2
		c-0.4-0.1-0.8-0.4-1.1-0.6c-0.3-0.3-0.6-0.6-0.8-1c-0.2-0.4-0.3-0.9-0.3-1.3c0-0.7,0.2-1.4,0.6-1.9C144,23.3,144.5,22.9,145.1,22.8
		L145.1,22.8z M149.1,25.6c0-0.3-0.1-0.6-0.2-0.9c-0.1-0.3-0.3-0.5-0.5-0.7c-0.2-0.2-0.5-0.4-0.8-0.5c-0.3-0.1-0.7-0.2-1-0.2
		c-0.3,0-0.7,0.1-1,0.2c-0.6,0.2-1,0.7-1.2,1.2c-0.1,0.3-0.2,0.6-0.2,0.9c0,0.3,0.1,0.6,0.2,0.9c0.1,0.3,0.3,0.5,0.5,0.7
		c0.2,0.2,0.5,0.4,0.8,0.5c0.3,0.1,0.7,0.2,1,0.2c0.3,0,0.7-0.1,1-0.2c0.3-0.1,0.6-0.3,0.8-0.5c0.2-0.2,0.4-0.5,0.5-0.7
		C149,26.2,149.1,25.9,149.1,25.6z M148.6,20.3c0-0.3,0-0.5-0.1-0.8c-0.1-0.2-0.2-0.4-0.4-0.6c-0.2-0.2-0.4-0.3-0.6-0.4
		c-0.3-0.1-0.5-0.2-0.8-0.2c-0.3,0-0.5,0.1-0.8,0.2c-0.5,0.2-0.9,0.5-1.1,1c-0.1,0.3-0.2,0.5-0.1,0.8c0,0.3,0,0.5,0.1,0.8
		c0.1,0.2,0.2,0.5,0.4,0.6c0.2,0.2,0.4,0.3,0.6,0.4c0.3,0.1,0.5,0.2,0.8,0.1c0.3,0,0.5,0,0.8-0.1c0.2-0.1,0.5-0.2,0.6-0.4
		c0.2-0.2,0.3-0.4,0.4-0.6C148.6,20.8,148.6,20.6,148.6,20.3z"/>
	<path d="M156.6,28.8h-1.1v-9.9l-2,1.8l-0.7-0.9l2.9-2.4h1L156.6,28.8z"/>
	<path d="M165.6,23c0-0.3,0-0.5,0-0.8s0-0.5,0-0.8h1.1v1.1l0,0c0.2-0.4,0.6-0.8,1.1-1c0.4-0.2,0.9-0.3,1.4-0.3c0.2,0,0.4,0,0.6,0.1
		c0.2,0,0.5,0.1,0.7,0.2c0.2,0.1,0.4,0.3,0.6,0.5c0.2,0.2,0.4,0.5,0.5,0.8c0.2-0.5,0.6-0.9,1-1.1c0.4-0.3,0.9-0.4,1.4-0.4
		c0.8-0.1,1.6,0.2,2.1,0.8c0.5,0.6,0.7,1.4,0.7,2.2v4.8h-1v-4.4c0-0.6-0.1-1.2-0.4-1.8c-0.4-0.4-0.9-0.7-1.5-0.6
		c-0.3,0-0.7,0.1-1,0.2c-0.3,0.1-0.5,0.4-0.6,0.6c-0.2,0.3-0.3,0.6-0.4,0.9c-0.1,0.3-0.1,0.7-0.1,1v4h-1.1v-4.4
		c0-0.6-0.1-1.2-0.4-1.8c-0.4-0.4-0.9-0.7-1.5-0.6l-0.4,0.1c-0.3,0.1-0.5,0.2-0.7,0.4c-0.3,0.2-0.5,0.5-0.7,0.9
		c-0.2,0.5-0.3,1.1-0.3,1.6v3.8h-1.1L165.6,23z"/>
	<path d="M179.2,23c0-0.3,0-0.5,0-0.8s0-0.5,0-0.8h1.1v1.1l0,0c0.2-0.4,0.6-0.8,1.1-1c0.4-0.2,0.9-0.3,1.4-0.3c0.2,0,0.4,0,0.6,0.1
		c0.2,0,0.5,0.1,0.7,0.2c0.2,0.1,0.4,0.3,0.6,0.5c0.2,0.2,0.4,0.5,0.5,0.8c0.2-0.5,0.6-0.9,1-1.1c0.4-0.3,0.9-0.4,1.4-0.4
		c0.8-0.1,1.6,0.2,2.1,0.8c0.5,0.6,0.7,1.4,0.7,2.2v4.8h-1.1v-4.4c0-0.6-0.1-1.2-0.4-1.8c-0.4-0.4-0.9-0.7-1.5-0.6
		c-0.3,0-0.7,0.1-1,0.2c-0.3,0.1-0.5,0.4-0.6,0.6c-0.2,0.3-0.3,0.6-0.4,0.9c-0.1,0.3-0.1,0.7-0.1,1v4h-1.1v-4.4
		c0-0.6-0.1-1.2-0.4-1.8c-0.4-0.4-0.9-0.7-1.5-0.6l-0.4,0.1c-0.3,0.1-0.5,0.2-0.7,0.4c-0.3,0.2-0.5,0.5-0.7,0.9
		c-0.2,0.5-0.3,1.1-0.3,1.6v3.8h-1.1V23z"/>
</g>
<g>
	<path d="M49.8,156.3v-1.6h1.1v1.6h2.7v1.1h-2.7v4.9h-1.3l-7.3-4.6v-1.5L49.8,156.3z M43.3,157.5L43.3,157.5l6.4,3.9v-3.9
		L43.3,157.5z"/>
	<path d="M47.5,151.1c-0.1,0.2-0.2,0.5-0.4,0.7c-0.2,0.2-0.4,0.4-0.6,0.5c-0.5,0.3-1,0.5-1.6,0.5c-0.4,0-0.8-0.1-1.2-0.2
		c-0.4-0.2-0.7-0.4-0.9-0.7c-0.3-0.3-0.5-0.6-0.6-1c-0.3-0.8-0.3-1.6,0-2.4c0.1-0.4,0.3-0.7,0.6-1c0.3-0.3,0.6-0.5,0.9-0.7
		c0.9-0.4,2-0.3,2.8,0.2c0.2,0.1,0.4,0.3,0.6,0.5c0.2,0.2,0.3,0.4,0.4,0.7l0,0c0.1-0.6,0.5-1.2,1-1.5c0.6-0.4,1.2-0.6,1.9-0.6
		c0.5,0,0.9,0.1,1.3,0.3c0.4,0.2,0.7,0.5,1,0.8c0.3,0.3,0.5,0.7,0.6,1.1c0.3,0.9,0.3,1.8,0,2.7c-0.1,0.4-0.4,0.8-0.6,1.1
		c-0.3,0.3-0.6,0.6-1,0.8c-0.4,0.2-0.9,0.3-1.3,0.3c-0.7,0-1.4-0.2-1.9-0.6C48,152.3,47.6,151.7,47.5,151.1L47.5,151.1z M45,147.6
		c-0.3,0-0.5,0-0.8,0.1c-0.2,0.1-0.4,0.2-0.6,0.4c-0.2,0.2-0.3,0.4-0.4,0.6c-0.1,0.3-0.2,0.5-0.2,0.8c0,0.3,0,0.5,0.2,0.8
		c0.1,0.2,0.2,0.5,0.4,0.6c0.2,0.2,0.4,0.3,0.6,0.4c0.3,0.1,0.5,0.2,0.8,0.1c0.3,0,0.5,0,0.8-0.1c0.2-0.1,0.5-0.2,0.6-0.4
		c0.2-0.2,0.3-0.4,0.4-0.6c0.1-0.3,0.2-0.5,0.2-0.8c0-0.3,0-0.5-0.2-0.8c-0.1-0.2-0.2-0.5-0.4-0.6c-0.2-0.2-0.4-0.3-0.6-0.4
		C45.6,147.7,45.3,147.6,45,147.6z M50.3,147.2c-0.3,0-0.6,0.1-0.9,0.2c-0.3,0.1-0.5,0.3-0.7,0.5c-0.2,0.2-0.4,0.5-0.5,0.8
		c-0.1,0.3-0.2,0.7-0.2,1c0,0.3,0.1,0.7,0.2,1c0.1,0.3,0.3,0.5,0.5,0.8c0.2,0.2,0.5,0.4,0.7,0.5c0.3,0.1,0.6,0.2,0.9,0.2
		c0.3,0,0.6-0.1,0.9-0.2c0.6-0.2,1-0.7,1.2-1.2c0.1-0.3,0.2-0.7,0.2-1c0-0.3-0.1-0.7-0.2-1c-0.1-0.3-0.3-0.5-0.5-0.8
		c-0.2-0.2-0.5-0.4-0.7-0.5C51,147.3,50.6,147.2,50.3,147.2z"/>
	<path d="M42,140.7c0-0.7,0.2-1.4,0.6-2c0.4-0.5,0.9-0.9,1.4-1.1c0.6-0.3,1.2-0.5,1.9-0.6c0.7-0.1,1.3-0.1,2-0.1c0.7,0,1.3,0,2,0.1
		c0.7,0.1,1.3,0.3,1.9,0.6c0.6,0.3,1.1,0.7,1.4,1.2c0.7,1.2,0.7,2.7,0,3.9c-0.4,0.5-0.9,0.9-1.4,1.2c-0.6,0.3-1.2,0.5-1.9,0.6
		c-0.7,0.1-1.3,0.1-2,0.1c-0.7,0-1.3-0.1-2-0.1c-0.7-0.1-1.3-0.3-1.9-0.6c-0.6-0.3-1.1-0.7-1.4-1.2C42.2,142.1,42,141.4,42,140.7z
		 M43,140.7c0,0.5,0.1,1.1,0.5,1.5c0.3,0.4,0.8,0.6,1.2,0.8c0.5,0.2,1,0.3,1.6,0.3c0.5,0.1,1,0.1,1.5,0.1s1,0,1.5-0.1
		c0.5,0,1.1-0.2,1.6-0.3c0.5-0.2,0.9-0.4,1.2-0.8c0.4-0.4,0.5-0.9,0.5-1.5c0-0.5-0.1-1.1-0.5-1.5c-0.3-0.4-0.8-0.6-1.2-0.8
		c-0.5-0.2-1-0.3-1.6-0.4c-0.6-0.1-1.1-0.1-1.5-0.1s-1,0-1.5,0.1c-0.5,0-1.1,0.2-1.6,0.4c-0.5,0.2-0.9,0.4-1.2,0.8
		C43.2,139.7,43,140.2,43,140.7L43,140.7z"/>
	<path d="M47.7,130.7h-0.8l-0.8,0.1v-1.1h1.1l0,0c-0.4-0.2-0.8-0.6-1-1.1c-0.2-0.4-0.3-0.9-0.3-1.3c0-0.2,0-0.4,0.1-0.7
		c0-0.2,0.1-0.5,0.2-0.7c0.1-0.2,0.3-0.4,0.5-0.6c0.2-0.2,0.5-0.4,0.8-0.5c-0.5-0.2-0.9-0.6-1.1-1c-0.3-0.4-0.4-0.9-0.4-1.4
		c-0.1-0.8,0.2-1.6,0.8-2.1c0.6-0.5,1.4-0.7,2.2-0.7h4.8v1.1h-4.4c-0.6,0-1.2,0.1-1.8,0.4c-0.4,0.4-0.7,0.9-0.6,1.5
		c0,0.7,0.3,1.3,0.8,1.6c0.3,0.2,0.6,0.3,0.9,0.4c0.3,0.1,0.7,0.1,1,0.1h4v1h-4.4c-0.6,0-1.2,0.1-1.8,0.4c-0.4,0.4-0.7,0.9-0.6,1.5
		c0,0.1,0,0.3,0.1,0.4c0.1,0.3,0.2,0.5,0.3,0.7c0.2,0.3,0.5,0.5,0.9,0.7c0.5,0.2,1.1,0.3,1.6,0.3h3.8v1.1L47.7,130.7z"/>
	<path d="M47.7,117.1h-0.8l-0.8,0.1V116h1.1l0,0c-0.4-0.2-0.8-0.6-1-1.1c-0.2-0.4-0.3-0.9-0.3-1.3c0-0.2,0-0.4,0.1-0.7
		c0-0.2,0.1-0.5,0.2-0.7c0.1-0.2,0.3-0.4,0.5-0.6c0.2-0.2,0.5-0.4,0.8-0.5c-0.5-0.2-0.9-0.6-1.1-1c-0.3-0.4-0.4-0.9-0.4-1.4
		c-0.1-0.8,0.2-1.6,0.8-2.1c0.6-0.5,1.4-0.7,2.2-0.7h4.8v1.1h-4.4c-0.6,0-1.2,0.1-1.8,0.4c-0.4,0.4-0.7,0.9-0.6,1.5
		c0,0.3,0.1,0.7,0.2,1c0.2,0.3,0.4,0.5,0.6,0.7c0.3,0.2,0.6,0.3,0.9,0.3c0.3,0.1,0.7,0.1,1,0.1h4v1h-4.4c-0.6,0-1.2,0.1-1.8,0.4
		c-0.4,0.4-0.7,0.9-0.6,1.5c0,0.1,0,0.3,0.1,0.4c0.1,0.3,0.2,0.5,0.3,0.7c0.2,0.3,0.5,0.5,0.9,0.7c0.5,0.2,1.1,0.3,1.6,0.3h3.8v1.1
		L47.7,117.1z"/>
</g>
<line class="st0" x1="216.7" y1="65.3" x2="244.7" y2="65.3"/>
<line class="st0" x1="216.7" y1="63.9" x2="216.7" y2="66.7"/>
<line class="st0" x1="244.7" y1="63.9" x2="244.7" y2="66.7"/>
<g>
	<path d="M204.9,85.5h-1.2v-9.9l-2.1,1.8l-0.8-0.9l3-2.4h1.1L204.9,85.5z"/>
	<path d="M213,73.9c0.7,0,1.4,0.2,2,0.6c0.5,0.4,0.9,0.9,1.2,1.4c0.3,0.6,0.5,1.2,0.6,1.9c0.1,0.7,0.1,1.3,0.1,2
		c0,0.7-0.1,1.3-0.1,2c-0.1,0.7-0.3,1.3-0.6,1.9c-0.3,0.6-0.7,1.1-1.2,1.4c-1.3,0.7-2.8,0.7-4.1,0c-0.5-0.4-0.9-0.9-1.2-1.4
		c-0.3-0.6-0.5-1.2-0.6-1.9c-0.1-0.7-0.1-1.3-0.1-2c0-0.7,0.1-1.3,0.1-2c0.1-0.7,0.3-1.3,0.6-1.9c0.3-0.6,0.8-1.1,1.3-1.4
		C211.6,74.1,212.3,73.9,213,73.9z M213,74.9c-0.6,0-1.1,0.1-1.5,0.5c-0.4,0.3-0.7,0.8-0.8,1.2c-0.2,0.5-0.3,1-0.4,1.6
		c0,0.6-0.1,1-0.1,1.5s0,0.9,0.1,1.5c0,0.5,0.2,1.1,0.4,1.6c0.2,0.5,0.5,0.9,0.8,1.2c0.4,0.4,1,0.5,1.5,0.5c0.6,0,1.1-0.1,1.5-0.5
		c0.4-0.3,0.7-0.8,0.8-1.2c0.2-0.5,0.3-1,0.4-1.6c0.1-0.6,0.1-1.1,0.1-1.5s0-1-0.1-1.5c0-0.5-0.2-1.1-0.4-1.6
		c-0.2-0.5-0.5-0.9-0.8-1.2C214.1,75.1,213.5,75,213,74.9L213,74.9z"/>
	<path d="M222.2,73.9c0.7,0,1.4,0.2,2,0.6c0.5,0.4,0.9,0.9,1.2,1.4c0.3,0.6,0.5,1.2,0.6,1.9c0.1,0.7,0.1,1.3,0.1,2
		c0,0.7-0.1,1.3-0.1,2c-0.1,0.7-0.3,1.3-0.6,1.9c-0.3,0.6-0.7,1.1-1.2,1.4c-0.6,0.4-1.3,0.6-2,0.6c-0.7,0-1.4-0.2-2-0.6
		c-0.5-0.4-1-0.9-1.2-1.5c-0.3-0.6-0.5-1.2-0.6-1.9c-0.1-0.7-0.1-1.3-0.1-2c0-0.7,0.1-1.3,0.1-2c0.1-0.7,0.3-1.3,0.6-1.9
		c0.3-0.6,0.7-1.1,1.2-1.4C220.8,74.1,221.5,73.9,222.2,73.9z M222.2,74.9c-0.6,0-1.1,0.1-1.5,0.5c-0.4,0.3-0.7,0.8-0.8,1.2
		c-0.2,0.5-0.3,1-0.4,1.6c-0.1,0.6-0.1,1-0.1,1.5s0,0.9,0.1,1.5c0,0.5,0.2,1.1,0.4,1.6c0.2,0.5,0.5,0.9,0.8,1.2c0.9,0.6,2.1,0.6,3,0
		c0.4-0.3,0.7-0.8,0.8-1.2c0.2-0.5,0.3-1,0.4-1.6c0-0.6,0.1-1.1,0.1-1.5s0-1-0.1-1.5c0-0.5-0.2-1.1-0.4-1.6
		c-0.2-0.5-0.5-0.9-0.8-1.2C223.3,75.1,222.8,75,222.2,74.9L222.2,74.9z"/>
	<path d="M232.7,79.6c0-0.3,0-0.6,0-0.8l-0.1-0.8h1.2v1.1l0,0c0.3-0.4,0.7-0.8,1.1-1c0.4-0.2,0.9-0.3,1.4-0.3c0.2,0,0.4,0,0.7,0.1
		c0.2,0,0.5,0.1,0.7,0.2c0.2,0.1,0.4,0.3,0.6,0.5c0.2,0.2,0.4,0.5,0.5,0.8c0.2-0.5,0.6-0.9,1.1-1.1c0.5-0.3,1-0.4,1.5-0.4
		c0.8-0.1,1.6,0.2,2.2,0.8c0.5,0.6,0.8,1.4,0.7,2.2v4.8h-1.1v-4.4c0-0.6-0.1-1.2-0.4-1.8c-0.4-0.4-1-0.7-1.6-0.6
		c-0.3,0-0.7,0.1-1,0.2c-0.3,0.1-0.5,0.4-0.7,0.6c-0.2,0.3-0.3,0.6-0.4,0.9c-0.1,0.3-0.1,0.7-0.1,1v4h-1.1v-4.4
		c0-0.6-0.1-1.2-0.4-1.8c-0.4-0.4-1-0.7-1.6-0.6l-0.4,0.1c-0.3,0.1-0.5,0.2-0.7,0.3c-0.3,0.2-0.5,0.5-0.7,0.9
		c-0.2,0.5-0.3,1.1-0.3,1.6v3.8h-1.1L232.7,79.6z"/>
	<path d="M246.8,79.6c0-0.3,0-0.6,0-0.8s0-0.6-0.1-0.8h1.2v1.1l0,0c0.3-0.4,0.6-0.8,1.1-1c0.4-0.2,0.9-0.3,1.4-0.3
		c0.2,0,0.5,0,0.7,0.1c0.2,0,0.5,0.1,0.7,0.2c0.2,0.1,0.4,0.3,0.6,0.5c0.2,0.2,0.4,0.5,0.5,0.8c0.2-0.5,0.6-0.9,1.1-1.1
		c0.5-0.3,1-0.4,1.5-0.4c0.8-0.1,1.6,0.2,2.2,0.8c0.5,0.6,0.8,1.4,0.7,2.2v4.8h-1.1v-4.4c0-0.6-0.1-1.2-0.4-1.8
		c-0.4-0.4-1-0.7-1.5-0.6c-0.3,0-0.7,0.1-1,0.2c-0.3,0.1-0.5,0.4-0.7,0.6c-0.2,0.3-0.3,0.6-0.4,0.9c-0.1,0.3-0.1,0.7-0.1,1v4h-1.1
		v-4.4c0-0.6-0.1-1.2-0.4-1.8c-0.4-0.4-1-0.7-1.5-0.6l-0.5,0.1c-0.3,0.1-0.5,0.2-0.7,0.3c-0.3,0.2-0.5,0.5-0.7,0.9
		c-0.2,0.5-0.3,1.1-0.3,1.6v3.8h-1.1L246.8,79.6z"/>
</g>
</svg>
