<?xml version="1.0" encoding="utf-8"?>
<!-- Generator: Adobe Illustrator 22.1.0, SVG Export Plug-In . SVG Version: 6.00 Build 0)  -->
<svg version="1.1" id="Ktribe_T1_Glass" xmlns="http://www.w3.org/2000/svg" xmlns:xlink="http://www.w3.org/1999/xlink" x="0px"
	 y="0px" viewBox="0 0 300 263" style="enable-background:new 0 0 300 263;" xml:space="preserve">
<style type="text/css">
	.st0{fill:none;stroke:#000000;stroke-width:0.5;}
	.st1{fill:none;stroke:#1D1D1B;stroke-width:0.5;stroke-miterlimit:3.86;}
	.st2{fill:#FFFFFF;}
	.st3{clip-path:url(#SVGID_2_);}
</style>
<title>ktribe-table-1-glass-starck-flos-F6281000-spech-tech-02-300x263</title>
<line class="st0" x1="124.3" y1="65.4" x2="175.7" y2="65.4"/>
<line class="st0" x1="124.3" y1="64.7" x2="124.3" y2="66"/>
<line class="st0" x1="175.7" y1="64.7" x2="175.7" y2="66"/>
<line class="st0" x1="97.5" y1="216.3" x2="97.5" y2="74"/>
<line class="st0" x1="95.8" y1="216.3" x2="99.2" y2="216.3"/>
<line class="st0" x1="95.8" y1="74" x2="99.2" y2="74"/>
<line class="st0" x1="124.3" y1="227" x2="175.7" y2="227"/>
<line class="st0" x1="124.3" y1="225.9" x2="124.3" y2="228"/>
<line class="st0" x1="175.7" y1="225.9" x2="175.7" y2="228"/>
<g>
	<path d="M128,247.3h-7.5V246l4.7-4.6l0.5-0.5c0.2-0.2,0.3-0.4,0.5-0.6c0.1-0.2,0.3-0.4,0.3-0.7c0.1-0.2,0.1-0.5,0.1-0.7
		c0-0.3-0.1-0.6-0.2-0.8c-0.1-0.2-0.3-0.5-0.5-0.6c-0.2-0.2-0.5-0.3-0.7-0.4c-0.3-0.1-0.6-0.1-0.9-0.1c-0.5,0-1.1,0.2-1.5,0.5
		c-0.4,0.3-0.7,0.8-0.8,1.3l-1.3-0.1c0.1-0.8,0.6-1.5,1.2-2c0.7-0.5,1.5-0.7,2.3-0.7c0.5,0,0.9,0.1,1.4,0.2c0.4,0.1,0.8,0.3,1.1,0.6
		c0.7,0.5,1.1,1.3,1.1,2.2c0,0.4-0.1,0.8-0.2,1.2c-0.1,0.4-0.3,0.7-0.5,1c-0.2,0.3-0.5,0.6-0.8,0.9c-0.3,0.3-0.6,0.6-0.9,0.9
		l-3.7,3.5h6.2V247.3z"/>
	<path d="M133.5,235.8c0.7,0,1.4,0.2,2,0.6c0.5,0.4,0.9,0.9,1.2,1.4c0.3,0.6,0.5,1.2,0.6,1.9c0.2,1.3,0.2,2.7,0,4
		c-0.1,0.7-0.3,1.3-0.6,1.9c-0.3,0.6-0.7,1.1-1.2,1.4c-1.3,0.7-2.8,0.7-4.1,0c-0.5-0.4-0.9-0.9-1.2-1.4c-0.3-0.6-0.5-1.2-0.6-1.9
		c-0.2-1.3-0.2-2.7,0-4c0.1-0.7,0.3-1.3,0.6-1.9c0.3-0.6,0.7-1.1,1.2-1.4C132.1,236,132.8,235.8,133.5,235.8z M133.5,236.9
		c-0.6,0-1.1,0.1-1.5,0.5c-0.4,0.3-0.7,0.8-0.8,1.2c-0.2,0.5-0.3,1-0.4,1.6c0,0.6-0.1,1.1-0.1,1.5s0,1,0.1,1.5
		c0,0.5,0.2,1.1,0.4,1.6c0.2,0.5,0.4,0.9,0.8,1.3c0.9,0.6,2.1,0.6,3,0c0.4-0.3,0.7-0.8,0.8-1.2c0.2-0.5,0.3-1,0.4-1.6
		c0.1-0.6,0.1-1,0.1-1.5s0-0.9-0.1-1.5c0-0.5-0.2-1.1-0.4-1.6c-0.2-0.5-0.5-0.9-0.8-1.2C134.6,237,134.1,236.9,133.5,236.9z"/>
	<path d="M141.4,240.9L141.4,240.9c0.2-0.1,0.5-0.2,0.8-0.3c0.3-0.1,0.6-0.1,0.9-0.1c0.5,0,1,0.1,1.4,0.3c0.4,0.2,0.8,0.4,1.1,0.7
		c0.3,0.3,0.6,0.7,0.8,1.1c0.2,0.4,0.3,0.9,0.3,1.4c0,0.5-0.1,1-0.3,1.4c-0.2,0.4-0.5,0.8-0.8,1.1c-0.4,0.3-0.8,0.6-1.2,0.7
		c-1,0.3-2.1,0.3-3.1,0c-0.4-0.2-0.9-0.4-1.2-0.7c-0.3-0.3-0.6-0.7-0.8-1.1c-0.2-0.5-0.2-0.9-0.2-1.4c0-0.6,0.1-1.1,0.3-1.6
		c0.2-0.5,0.4-0.9,0.7-1.4l3.2-5h1.4L141.4,240.9z M140.2,244c0,0.3,0.1,0.7,0.2,1c0.1,0.3,0.3,0.6,0.5,0.8c0.2,0.2,0.5,0.4,0.8,0.5
		c0.7,0.2,1.4,0.2,2.1,0c0.3-0.1,0.6-0.3,0.8-0.5c0.2-0.2,0.4-0.5,0.5-0.8c0.1-0.3,0.2-0.7,0.2-1c0-0.3-0.1-0.7-0.2-1
		c-0.1-0.3-0.3-0.6-0.5-0.8c-0.2-0.2-0.5-0.4-0.8-0.5c-0.7-0.3-1.4-0.3-2.1,0c-0.3,0.1-0.6,0.3-0.8,0.5c-0.2,0.2-0.4,0.5-0.5,0.8
		C140.2,243.3,140.1,243.7,140.2,244L140.2,244z"/>
	<path d="M153.2,241.5c0-0.3,0-0.6,0-0.8s0-0.6-0.1-0.8h1.2v1.2l0,0c0.3-0.4,0.6-0.8,1.1-1c0.4-0.2,0.9-0.3,1.4-0.3
		c0.2,0,0.5,0,0.7,0.1c0.2,0,0.5,0.1,0.7,0.2c0.2,0.1,0.4,0.3,0.6,0.5c0.2,0.2,0.4,0.5,0.5,0.8c0.2-0.5,0.6-0.9,1.1-1.1
		c1.2-0.7,2.7-0.5,3.7,0.3c0.5,0.6,0.8,1.4,0.7,2.2v4.8h-1.1V243c0-0.6-0.1-1.2-0.4-1.8c-0.4-0.4-1-0.7-1.5-0.6
		c-0.3,0-0.7,0.1-1,0.2c-0.3,0.1-0.5,0.4-0.7,0.6c-0.2,0.3-0.3,0.6-0.4,0.9c-0.1,0.3-0.1,0.7-0.1,1v4h-1.1V243
		c0-0.6-0.1-1.2-0.4-1.8c-0.4-0.4-1-0.7-1.5-0.6c-0.1,0-0.2,0-0.5,0.1c-0.3,0.1-0.5,0.2-0.7,0.4c-0.3,0.2-0.5,0.5-0.7,0.9
		c-0.2,0.5-0.3,1-0.3,1.6v3.8h-1.1L153.2,241.5z"/>
	<path d="M167.4,241.5c0-0.3,0-0.6,0-0.8s0-0.6-0.1-0.8h1.2v1.2l0,0c0.3-0.4,0.6-0.8,1.1-1c0.4-0.2,0.9-0.3,1.4-0.3
		c0.2,0,0.4,0,0.7,0.1c0.2,0,0.5,0.1,0.7,0.2c0.2,0.1,0.4,0.3,0.6,0.5c0.2,0.2,0.4,0.5,0.5,0.8c0.2-0.5,0.6-0.9,1.1-1.1
		c1.2-0.7,2.7-0.5,3.7,0.3c0.5,0.6,0.8,1.4,0.7,2.2v4.8h-1.1V243c0-0.6-0.1-1.2-0.4-1.8c-0.4-0.5-1-0.7-1.5-0.6
		c-0.3,0-0.7,0.1-1,0.2c-0.3,0.1-0.5,0.4-0.7,0.6c-0.2,0.3-0.3,0.6-0.4,0.9c-0.1,0.3-0.1,0.7-0.1,1v4h-1.1V243
		c0-0.6-0.1-1.2-0.4-1.8c-0.4-0.5-1-0.7-1.5-0.6c-0.1,0-0.2,0-0.5,0.1c-0.3,0.1-0.5,0.2-0.7,0.4c-0.3,0.2-0.5,0.5-0.7,0.9
		c-0.2,0.5-0.3,1.1-0.3,1.6v3.8h-1.1L167.4,241.5z"/>
</g>
<g>
	<path d="M120.4,50.6c0.3,0.3,0.5,0.7,0.7,1.2c0.2,0.5,0.3,1,0.3,1.5c0,0.5-0.1,1.1-0.3,1.6c-0.2,0.5-0.5,0.9-0.8,1.2
		c-0.4,0.4-0.8,0.6-1.3,0.8c-0.5,0.2-1.1,0.3-1.7,0.3c-0.5,0-1-0.1-1.4-0.2c-0.4-0.1-0.8-0.3-1.2-0.6l-1.1,1.1l-0.5-0.5l1.1-1.1
		c-0.3-0.3-0.6-0.7-0.7-1.2c-0.2-0.5-0.3-0.9-0.2-1.4c0-0.5,0.1-1.1,0.3-1.6c0.4-1,1.2-1.7,2.2-2.1c0.5-0.2,1.1-0.3,1.7-0.3
		c0.5,0,1,0.1,1.4,0.2c0.4,0.1,0.8,0.3,1.2,0.6L121,49l0.5,0.5L120.4,50.6z M119.1,50.9c-0.5-0.4-1.2-0.6-1.9-0.6
		c-0.4,0-0.8,0.1-1.2,0.2c-0.3,0.1-0.7,0.4-0.9,0.6c-0.3,0.3-0.4,0.6-0.6,1c-0.1,0.4-0.2,0.8-0.2,1.2c0,0.7,0.2,1.3,0.6,1.8
		L119.1,50.9z M115.3,55.6c0.2,0.2,0.5,0.4,0.8,0.5c0.3,0.1,0.7,0.2,1,0.2c0.4,0,0.8-0.1,1.2-0.2c0.3-0.2,0.7-0.4,0.9-0.6
		c0.3-0.3,0.5-0.6,0.6-1c0.1-0.4,0.2-0.8,0.2-1.2c0-0.7-0.2-1.3-0.6-1.8L115.3,55.6z"/>
	<path d="M130.1,50.5h0.6c0.3,0,0.7,0,1-0.1c0.3-0.1,0.6-0.2,0.8-0.4c0.2-0.2,0.4-0.4,0.6-0.6c0.1-0.3,0.2-0.7,0.2-1
		c0-0.5-0.2-1.1-0.6-1.4c-0.5-0.4-1-0.5-1.6-0.5c-0.5,0-0.9,0.1-1.3,0.3c-0.4,0.2-0.7,0.5-0.9,0.9l-1.1-0.5c0.3-0.6,0.8-1,1.4-1.3
		c0.6-0.3,1.2-0.5,1.9-0.4c0.4,0,0.9,0.1,1.3,0.2c0.4,0.1,0.8,0.3,1.1,0.6c0.7,0.5,1,1.3,1,2.2c0,0.3-0.1,0.6-0.2,0.9
		c-0.1,0.3-0.2,0.5-0.4,0.8c-0.2,0.2-0.4,0.4-0.6,0.6c-0.2,0.2-0.5,0.3-0.8,0.4l0,0c0.3,0.1,0.6,0.2,0.9,0.4
		c0.3,0.2,0.5,0.4,0.7,0.7c0.2,0.3,0.4,0.5,0.5,0.9c0.3,0.8,0.2,1.6-0.1,2.4c-0.2,0.4-0.5,0.7-0.8,1c-0.4,0.3-0.8,0.5-1.2,0.6
		c-0.5,0.1-1,0.2-1.4,0.2c-0.8,0-1.6-0.2-2.3-0.5c-0.7-0.4-1.2-1-1.4-1.8l1.3-0.4c0.2,0.5,0.5,0.9,0.9,1.2c0.5,0.3,1.1,0.4,1.6,0.4
		c0.3,0,0.7-0.1,1-0.2c0.3-0.1,0.6-0.3,0.8-0.5c0.2-0.2,0.4-0.4,0.5-0.7c0.3-0.6,0.3-1.4-0.1-2c-0.2-0.3-0.4-0.5-0.7-0.7
		c-0.3-0.2-0.6-0.3-1-0.4c-0.4-0.1-0.7-0.1-1.1-0.1h-0.5L130.1,50.5z"/>
	<path d="M141.8,57h-1.2v-9.9l-2.1,1.8l-0.8-0.9l3-2.4h1.1L141.8,57z"/>
	<path d="M153,46.7h-4.8l-0.1,3.4c0.3-0.1,0.5-0.2,0.8-0.2c0.3,0,0.5-0.1,0.8-0.1c0.5,0,1,0.1,1.5,0.3c0.4,0.2,0.8,0.4,1.2,0.8
		c0.3,0.3,0.6,0.7,0.7,1.1c0.4,0.9,0.4,2,0,2.9c-0.2,0.4-0.5,0.8-0.8,1.2c-0.4,0.3-0.8,0.6-1.3,0.8c-0.5,0.2-1,0.3-1.6,0.3
		c-0.7,0-1.4-0.2-2-0.5c-0.6-0.3-1.1-0.9-1.4-1.5l1.2-0.5c0.2,0.4,0.5,0.8,0.9,1.1c0.4,0.3,0.9,0.4,1.4,0.4c0.4,0,0.7-0.1,1.1-0.2
		c0.3-0.1,0.6-0.3,0.8-0.5c0.2-0.2,0.4-0.5,0.6-0.8c0.1-0.3,0.2-0.7,0.2-1c0-0.8-0.3-1.5-0.8-2c-0.3-0.2-0.6-0.4-0.9-0.5
		c-0.4-0.1-0.8-0.2-1.2-0.2c-0.4,0-0.8,0.1-1.2,0.2c-0.4,0.1-0.8,0.3-1.2,0.5l0.1-5.9h6V46.7z"/>
	<path d="M160.3,51.2c0-0.3,0-0.6,0-0.8c0-0.3,0-0.5,0-0.8h1.2v1.1l0,0c0.3-0.4,0.6-0.8,1.1-1c0.4-0.2,0.9-0.3,1.4-0.3
		c0.2,0,0.4,0,0.7,0.1c0.2,0,0.5,0.1,0.7,0.2c0.2,0.1,0.4,0.3,0.6,0.5c0.2,0.2,0.4,0.5,0.5,0.8c0.2-0.5,0.6-0.9,1.1-1.1
		c0.5-0.3,1-0.4,1.5-0.4c0.8-0.1,1.6,0.2,2.2,0.8c0.5,0.6,0.8,1.4,0.7,2.2V57h-1.1v-4.4c0-0.6-0.1-1.2-0.4-1.7
		c-0.4-0.5-1-0.7-1.5-0.6c-0.3,0-0.7,0.1-1,0.2c-0.3,0.2-0.5,0.4-0.7,0.6c-0.2,0.3-0.3,0.6-0.4,0.9c-0.1,0.3-0.1,0.7-0.1,1v4h-1.1
		v-4.4c0-0.6-0.1-1.2-0.4-1.7c-0.4-0.5-1-0.7-1.5-0.6l-0.5,0.1c-0.3,0.1-0.5,0.2-0.7,0.4c-0.3,0.2-0.5,0.5-0.7,0.9
		c-0.2,0.5-0.3,1.1-0.3,1.6V57h-1.1L160.3,51.2z"/>
	<path d="M174.4,51.2c0-0.3,0-0.6,0-0.8l-0.1-0.8h1.2v1.1l0,0c0.3-0.4,0.6-0.8,1.1-1c0.4-0.2,0.9-0.3,1.4-0.3c0.2,0,0.4,0,0.7,0.1
		c0.5,0.1,1,0.3,1.3,0.7c0.2,0.2,0.4,0.5,0.5,0.8c0.2-0.5,0.6-0.9,1.1-1.1c0.5-0.3,1-0.4,1.5-0.4c0.8-0.1,1.6,0.2,2.2,0.8
		c0.5,0.6,0.8,1.4,0.7,2.2V57h-1.1v-4.4c0-0.6-0.1-1.2-0.4-1.7c-0.4-0.5-1-0.7-1.6-0.6c-0.3,0-0.7,0.1-1,0.2
		c-0.3,0.1-0.5,0.4-0.7,0.6c-0.2,0.3-0.3,0.6-0.4,0.9c-0.1,0.3-0.1,0.7-0.1,1v4h-1.1v-4.4c0-0.6-0.1-1.2-0.4-1.7
		c-0.4-0.5-1-0.7-1.6-0.6l-0.5,0.1c-0.3,0.1-0.5,0.2-0.7,0.4c-0.3,0.2-0.5,0.5-0.7,0.9c-0.2,0.5-0.3,1-0.3,1.6V57h-1.1L174.4,51.2z"
		/>
</g>
<g>
	<path d="M79.9,156v4.6l3.4,0.1c-0.1-0.2-0.2-0.5-0.2-0.8c0-0.3-0.1-0.5-0.1-0.8c0-0.5,0.1-1,0.3-1.4c0.2-0.4,0.4-0.8,0.8-1.1
		c0.3-0.3,0.7-0.6,1.2-0.7c0.5-0.2,1-0.3,1.4-0.3c0.5,0,1,0.1,1.5,0.3c0.4,0.2,0.8,0.5,1.2,0.8c0.3,0.3,0.6,0.8,0.8,1.2
		c0.2,0.5,0.3,1,0.3,1.5c0,0.7-0.2,1.3-0.5,1.9c-0.4,0.6-0.9,1.1-1.5,1.3l-0.5-1.1c0.4-0.2,0.8-0.5,1.1-0.9c0.3-0.4,0.4-0.9,0.4-1.3
		c0-0.3-0.1-0.7-0.2-1c-0.1-0.3-0.3-0.6-0.5-0.8c-0.2-0.2-0.5-0.4-0.8-0.5c-0.3-0.1-0.7-0.2-1-0.2c-0.4,0-0.7,0.1-1.1,0.2
		c-0.3,0.1-0.6,0.3-0.8,0.6c-0.2,0.3-0.4,0.6-0.6,0.9c-0.1,0.4-0.2,0.7-0.2,1.1c0,0.4,0.1,0.8,0.2,1.2c0.1,0.4,0.3,0.8,0.5,1.1
		l-5.9-0.1V156H79.9z"/>
	<path d="M83.7,151.5L83.7,151.5c-0.1-0.2-0.2-0.5-0.3-0.7c-0.1-0.3-0.1-0.6-0.1-0.8c0-0.5,0.1-0.9,0.3-1.4c0.3-0.8,1-1.5,1.8-1.8
		c0.4-0.2,0.9-0.3,1.4-0.3c0.5,0,1,0.1,1.4,0.3c0.4,0.2,0.8,0.4,1.1,0.8c0.3,0.3,0.6,0.7,0.7,1.2c0.3,1,0.3,2,0,2.9
		c-0.2,0.4-0.4,0.8-0.7,1.2c-0.3,0.3-0.7,0.6-1.1,0.8c-0.5,0.2-0.9,0.3-1.4,0.3c-0.6,0-1.1-0.1-1.7-0.3c-0.5-0.2-0.9-0.4-1.4-0.7
		l-5-3.1v-1.4L83.7,151.5z M86.8,152.6c0.3,0,0.7-0.1,1-0.2c0.3-0.1,0.6-0.3,0.8-0.5c0.2-0.2,0.4-0.5,0.5-0.8c0.2-0.7,0.2-1.4,0-2.1
		c-0.1-0.3-0.3-0.6-0.5-0.8c-0.2-0.2-0.5-0.4-0.8-0.5c-0.6-0.2-1.4-0.2-2,0c-0.3,0.1-0.6,0.3-0.8,0.5c-0.2,0.2-0.4,0.5-0.5,0.8
		c-0.3,0.7-0.3,1.4,0,2.1c0.1,0.3,0.3,0.6,0.5,0.8c0.2,0.2,0.5,0.4,0.8,0.5C86.2,152.6,86.5,152.6,86.8,152.6z"/>
	<path d="M78.6,141.2c0-0.7,0.2-1.4,0.6-2c0.4-0.5,0.9-0.9,1.4-1.2c0.6-0.3,1.2-0.5,1.9-0.6c0.7-0.1,1.3-0.1,2-0.1
		c0.7,0,1.3,0,2,0.1c0.7,0.1,1.3,0.3,1.9,0.6c0.6,0.3,1.1,0.7,1.4,1.2c0.8,1.2,0.8,2.7,0,3.9c-0.4,0.5-0.9,0.9-1.4,1.2
		c-0.6,0.3-1.2,0.5-1.9,0.6c-0.7,0.1-1.3,0.1-2,0.1c-0.7,0-1.3-0.1-2-0.1c-0.7-0.1-1.3-0.3-1.9-0.6c-0.6-0.3-1.1-0.7-1.4-1.2
		C78.8,142.6,78.6,141.9,78.6,141.2z M79.7,141.2c0,0.5,0.1,1.1,0.5,1.5c0.3,0.4,0.8,0.6,1.2,0.8c0.5,0.2,1,0.3,1.6,0.3
		c0.6,0.1,1,0.1,1.5,0.1s1,0,1.5-0.1c0.5,0,1.1-0.2,1.6-0.3c0.5-0.2,0.9-0.4,1.2-0.8c0.3-0.4,0.5-0.9,0.5-1.5c0-0.5-0.2-1.1-0.5-1.5
		c-0.3-0.4-0.8-0.6-1.2-0.8c-0.5-0.2-1-0.3-1.6-0.4c-0.6-0.1-1-0.1-1.5-0.1s-1,0-1.5,0.1c-0.5,0-1.1,0.2-1.6,0.4
		c-0.5,0.2-0.9,0.4-1.2,0.8C79.8,140.1,79.7,140.7,79.7,141.2z"/>
	<path d="M84.3,131.1h-0.8l-0.8,0.1v-1.1h1.1l0,0c-0.4-0.2-0.8-0.6-1-1.1c-0.3-0.6-0.4-1.3-0.3-2c0-0.2,0.1-0.5,0.2-0.7
		c0.1-0.2,0.3-0.4,0.5-0.6c0.2-0.2,0.5-0.4,0.8-0.5c-0.5-0.2-0.9-0.6-1.1-1c-0.7-1.1-0.5-2.6,0.3-3.6c0.6-0.5,1.4-0.7,2.2-0.7h4.8v1
		h-4.4c-0.6,0-1.2,0.1-1.7,0.4c-0.4,0.4-0.7,0.9-0.6,1.5c0,0.3,0.1,0.7,0.2,1c0.2,0.3,0.4,0.5,0.6,0.7c0.3,0.2,0.6,0.3,0.9,0.4
		c0.3,0.1,0.7,0.1,1,0.1h4v1h-4.4c-0.6,0-1.2,0.1-1.7,0.4c-0.4,0.4-0.7,0.9-0.6,1.5c0,0.1,0,0.3,0.1,0.4c0.1,0.3,0.2,0.5,0.3,0.7
		c0.2,0.3,0.5,0.5,0.9,0.7c0.5,0.2,1.1,0.3,1.6,0.3h3.8v1.1L84.3,131.1z"/>
	<path d="M84.3,117.5h-0.8l-0.8,0.1v-1.1h1.1l0,0c-0.4-0.2-0.8-0.6-1-1.1c-0.3-0.6-0.4-1.3-0.3-2c0-0.2,0.1-0.5,0.2-0.7
		c0.1-0.2,0.3-0.4,0.5-0.6c0.2-0.2,0.5-0.4,0.8-0.5c-0.5-0.2-0.9-0.6-1.1-1c-0.3-0.4-0.4-0.9-0.4-1.4c-0.1-0.8,0.2-1.6,0.8-2.1
		c0.6-0.5,1.4-0.7,2.2-0.7h4.8v1.1h-4.4c-0.6,0-1.2,0.1-1.7,0.4c-0.4,0.4-0.7,0.9-0.6,1.5c0,0.3,0.1,0.7,0.2,1
		c0.2,0.3,0.4,0.5,0.6,0.6c0.3,0.2,0.6,0.3,0.9,0.4c0.3,0.1,0.7,0.1,1,0.1h4v1h-4.4c-0.6,0-1.2,0.1-1.7,0.4
		c-0.4,0.4-0.7,0.9-0.6,1.5c0,0.1,0,0.3,0.1,0.4c0.1,0.3,0.2,0.5,0.3,0.7c0.2,0.3,0.5,0.5,0.9,0.7c0.5,0.2,1.1,0.3,1.6,0.3h3.8v1.1
		L84.3,117.5z"/>
</g>
<line class="st0" x1="197.8" y1="131.9" x2="198.2" y2="74"/>
<line class="st0" x1="196.8" y1="131.9" x2="198.9" y2="131.9"/>
<line class="st0" x1="197.2" y1="74" x2="199.3" y2="74"/>
<g>
	<path d="M216.3,125.4v7.5H215l-4.6-4.7c-0.2-0.2-0.4-0.4-0.5-0.5c-0.2-0.2-0.4-0.3-0.6-0.5c-0.2-0.1-0.4-0.3-0.7-0.3
		c-0.2-0.1-0.5-0.1-0.7-0.1c-0.3,0-0.6,0.1-0.8,0.2c-0.2,0.1-0.5,0.3-0.6,0.5c-0.2,0.2-0.3,0.5-0.4,0.7c-0.1,0.3-0.1,0.6-0.1,0.9
		c0,0.5,0.2,1.1,0.5,1.5c0.3,0.4,0.8,0.7,1.3,0.8l-0.1,1.3c-0.8-0.1-1.5-0.6-2-1.2c-0.5-0.7-0.7-1.5-0.7-2.3c0-0.5,0.1-0.9,0.2-1.4
		c0.1-0.4,0.3-0.8,0.6-1.1c0.2-0.3,0.6-0.6,0.9-0.8c0.4-0.2,0.8-0.3,1.3-0.3c0.4,0,0.8,0.1,1.2,0.2c0.4,0.1,0.7,0.3,1,0.5
		c0.3,0.2,0.6,0.5,0.9,0.8c0.3,0.3,0.6,0.6,0.8,0.9l3.5,3.7l0.1-6.2H216.3z"/>
	<path d="M216.4,116.1l-0.1,7.5H215l-4.6-4.7c-0.2-0.2-0.3-0.4-0.5-0.5c-0.2-0.2-0.4-0.3-0.6-0.5c-0.2-0.1-0.4-0.3-0.7-0.3
		c-0.2-0.1-0.5-0.1-0.7-0.1c-0.3,0-0.6,0.1-0.8,0.2c-0.2,0.1-0.5,0.3-0.6,0.5c-0.2,0.2-0.3,0.5-0.4,0.7c-0.1,0.3-0.1,0.6-0.1,0.9
		c0,0.6,0.1,1.1,0.5,1.5c0.3,0.4,0.8,0.7,1.3,0.8l-0.1,1.3c-0.8-0.1-1.5-0.6-2-1.2c-0.5-0.7-0.7-1.5-0.7-2.3c0-0.5,0.1-0.9,0.2-1.3
		c0.1-0.4,0.3-0.8,0.6-1.1c0.2-0.3,0.6-0.6,0.9-0.8c0.4-0.2,0.8-0.3,1.3-0.3c0.4,0,0.8,0.1,1.2,0.2c0.4,0.1,0.7,0.3,1,0.6
		c0.3,0.2,0.6,0.5,0.9,0.8c0.3,0.3,0.6,0.6,0.9,0.9l3.5,3.7v-6.2L216.4,116.1z"/>
	<path d="M216.4,106.9v7.5H215l-4.6-4.7c-0.2-0.2-0.3-0.4-0.5-0.5c-0.2-0.2-0.4-0.3-0.6-0.5c-0.2-0.1-0.4-0.3-0.7-0.4
		c-0.2-0.1-0.5-0.1-0.7-0.1c-0.3,0-0.6,0-0.8,0.2c-0.2,0.1-0.5,0.3-0.6,0.5c-0.2,0.2-0.3,0.5-0.4,0.7c-0.1,0.3-0.1,0.6-0.1,0.9
		c0,0.5,0.1,1.1,0.5,1.5c0.3,0.4,0.8,0.7,1.3,0.8l-0.1,1.3c-0.8-0.1-1.5-0.6-2-1.2c-0.5-0.7-0.7-1.5-0.7-2.3c0-0.5,0.1-0.9,0.2-1.3
		c0.1-0.4,0.3-0.8,0.6-1.1c0.2-0.3,0.6-0.6,0.9-0.8c0.4-0.2,0.8-0.3,1.3-0.3c0.4,0,0.8,0.1,1.2,0.2c0.4,0.1,0.7,0.3,1,0.5
		c0.3,0.2,0.6,0.5,0.9,0.8c0.3,0.3,0.6,0.6,0.8,0.9l3.5,3.7v-6.2L216.4,106.9z"/>
	<path d="M210.6,100.1c-0.3,0-0.6,0-0.8,0l-0.8,0.1V99h1.1l0,0c-0.4-0.3-0.8-0.6-1-1.1c-0.2-0.4-0.3-0.9-0.3-1.4
		c0-0.2,0-0.4,0.1-0.7c0-0.2,0.1-0.5,0.2-0.7c0.1-0.2,0.3-0.4,0.5-0.6c0.2-0.2,0.5-0.4,0.8-0.5c-0.5-0.2-0.9-0.6-1.1-1.1
		c-0.6-1.2-0.5-2.7,0.4-3.7c0.6-0.5,1.4-0.8,2.2-0.7h4.8v1.1h-4.4c-0.6,0-1.2,0.1-1.8,0.4c-0.5,0.4-0.7,1-0.6,1.5
		c0,0.3,0.1,0.7,0.2,1c0.1,0.3,0.4,0.5,0.6,0.7c0.3,0.2,0.6,0.3,0.9,0.4c0.3,0.1,0.7,0.1,1,0.1h4v1.1h-4.4c-0.6,0-1.2,0.1-1.7,0.4
		c-0.5,0.4-0.7,1-0.6,1.5c0,0.2,0,0.3,0.1,0.4c0.1,0.3,0.2,0.5,0.4,0.7c0.2,0.3,0.5,0.5,0.9,0.7c0.5,0.2,1,0.3,1.6,0.3h3.8v1.1
		L210.6,100.1z"/>
	<path d="M210.7,85.9c-0.3,0-0.6,0-0.8,0h-0.8v-1.1h1.1l0,0c-0.4-0.3-0.8-0.6-1-1.1c-0.2-0.4-0.3-0.9-0.3-1.4c0-0.2,0-0.5,0.1-0.7
		c0-0.2,0.1-0.5,0.2-0.7c0.3-0.5,0.7-0.9,1.3-1.1c-0.5-0.2-0.9-0.6-1.1-1.1c-0.3-0.5-0.4-1-0.4-1.5c-0.1-0.8,0.2-1.6,0.8-2.2
		c0.6-0.5,1.4-0.8,2.2-0.7h4.8v1.1h-4.4c-0.6,0-1.2,0.1-1.8,0.4c-0.5,0.4-0.7,1-0.6,1.5c0,0.3,0.1,0.7,0.2,1
		c0.1,0.3,0.4,0.5,0.6,0.7c0.3,0.2,0.6,0.3,0.9,0.4c0.3,0.1,0.7,0.1,1,0.1h4v1.1h-4.4c-0.6,0-1.2,0.1-1.7,0.4
		c-0.5,0.4-0.7,1-0.6,1.5c0,0.2,0,0.3,0.1,0.5c0.1,0.3,0.2,0.5,0.3,0.7c0.2,0.3,0.5,0.5,0.9,0.7c0.5,0.2,1,0.3,1.6,0.3h3.8V86
		L210.7,85.9z"/>
</g>
<path class="st1" d="M147.2,202.3v-70.1h5.5v70.2c0,0,0,8.2,8,11s-29.6,2.8-21.5,0S147.2,202.3,147.2,202.3z"/>
<rect x="124.3" y="212.8" class="st2" width="51.3" height="4.4"/>
<rect x="124.3" y="212.8" class="st1" width="51.3" height="4.4"/>
<g>
	<defs>
		<polygon id="SVGID_1_" points="125.2,74 108.4,132.1 191.6,132.1 174.8,74 		"/>
	</defs>
	<clipPath id="SVGID_2_">
		<use xlink:href="#SVGID_1_"  style="overflow:visible;"/>
	</clipPath>
	<g class="st3">
		<path class="st1" d="M125.2,74c0,0,4.7,50.5,24.6,50.5h0.4c20,0,24.6-50.5,24.6-50.5H125.2z"/>
	</g>
</g>
<polygon class="st1" points="125.2,74 108.4,132.1 191.6,132.1 174.8,74 "/>
</svg>
