<svg id="Ktribe_F2" data-name="Ktribe F2" xmlns="http://www.w3.org/2000/svg" viewBox="0 0 300 263"><defs><style>.cls-1{isolation:isolate;}.cls-2,.cls-3,.cls-4{fill:none;stroke-width:0.5px;}.cls-2{stroke:#000;}.cls-3,.cls-4{stroke:#1d1d1b;}.cls-3{stroke-linecap:round;stroke-linejoin:round;}.cls-4{stroke-miterlimit:3.86;}</style></defs><title>ktribe-floor-2-starck-flos-F6305046-spech-tech-02-300x263</title><g class="cls-1"><path d="M110.53,164.84V166h-9.89l1.8,2-.87.72-2.37-2.88v-1Z"/><path d="M104.07,158.44l0,0a2.14,2.14,0,0,1-.29-.73,4.54,4.54,0,0,1-.1-.84,3.49,3.49,0,0,1,1-2.47,3.18,3.18,0,0,1,1.1-.72,3.84,3.84,0,0,1,2.83,0,3.21,3.21,0,0,1,1.11.77,3.49,3.49,0,0,1,.72,1.17,4.45,4.45,0,0,1,0,2.94,3.49,3.49,0,0,1-.72,1.17,3.21,3.21,0,0,1-1.11.77,3.59,3.59,0,0,1-1.42.27,4.39,4.39,0,0,1-1.65-.28,9.45,9.45,0,0,1-1.39-.69l-5-3.06v-1.36Zm3.15,1.15a2.64,2.64,0,0,0,1-.18,2.35,2.35,0,0,0,.78-.53,2.31,2.31,0,0,0,.5-.79,2.86,2.86,0,0,0,.18-1,2.8,2.8,0,0,0-.18-1,2.26,2.26,0,0,0-.5-.8,2.18,2.18,0,0,0-.78-.52,2.67,2.67,0,0,0-2,0,2.06,2.06,0,0,0-.77.52,2.41,2.41,0,0,0-.5.8,2.61,2.61,0,0,0-.19,1,2.66,2.66,0,0,0,.19,1,2.47,2.47,0,0,0,.5.79,2.21,2.21,0,0,0,.77.53A2.64,2.64,0,0,0,107.22,159.59Z"/><path d="M110.53,144.65v7.2H109.2l-4.59-4.52-.54-.51a5.41,5.41,0,0,0-.61-.46,3.52,3.52,0,0,0-.67-.34,2.3,2.3,0,0,0-.74-.13,2,2,0,0,0-.83.17,1.7,1.7,0,0,0-.62.47,2.07,2.07,0,0,0-.4.71,2.61,2.61,0,0,0-.13.85,2.32,2.32,0,0,0,.48,1.47,2.21,2.21,0,0,0,1.29.78l-.13,1.22a3.18,3.18,0,0,1-2-1.16,3.53,3.53,0,0,1-.72-2.23,4.32,4.32,0,0,1,.19-1.31,3.2,3.2,0,0,1,.55-1.09,2.71,2.71,0,0,1,.92-.75,2.76,2.76,0,0,1,1.29-.28,3.6,3.6,0,0,1,1.2.2,4.9,4.9,0,0,1,1,.52,6.93,6.93,0,0,1,.91.73c.29.27.57.55.85.84l3.54,3.57v-5.95Z"/><path d="M99,139.27a3.24,3.24,0,0,1,.56-2,3.81,3.81,0,0,1,1.43-1.17,6.6,6.6,0,0,1,1.89-.56,15.36,15.36,0,0,1,2-.14,15.09,15.09,0,0,1,2,.14,6.77,6.77,0,0,1,1.9.56,3.78,3.78,0,0,1,1.42,1.17,3.75,3.75,0,0,1,0,3.94,3.78,3.78,0,0,1-1.42,1.17,6.44,6.44,0,0,1-1.9.55,13.58,13.58,0,0,1-2,.15,13.82,13.82,0,0,1-2-.15,6.29,6.29,0,0,1-1.89-.55,3.81,3.81,0,0,1-1.43-1.17A3.24,3.24,0,0,1,99,139.27Zm1.06,0a2,2,0,0,0,.49,1.46,3.08,3.08,0,0,0,1.23.81,5.86,5.86,0,0,0,1.57.34c.56.05,1.06.08,1.51.08s.95,0,1.5-.08a5.7,5.7,0,0,0,1.57-.34,3.08,3.08,0,0,0,1.23-.81,2.05,2.05,0,0,0,.5-1.46,2.09,2.09,0,0,0-.5-1.47,3.17,3.17,0,0,0-1.23-.8,6.09,6.09,0,0,0-1.57-.35c-.55,0-1.05-.07-1.5-.07s-1,0-1.51.07a6.29,6.29,0,0,0-1.57.35,3.17,3.17,0,0,0-1.23.8A2.09,2.09,0,0,0,100.07,139.27Z"/><path d="M104.71,129.22c-.28,0-.56,0-.83,0l-.84.05v-1.13h1.14v0a2.41,2.41,0,0,1-1-1.06,2.94,2.94,0,0,1-.34-1.35,3,3,0,0,1,.07-.65,2.25,2.25,0,0,1,.23-.66,2,2,0,0,1,.47-.6,2.47,2.47,0,0,1,.78-.48,2.41,2.41,0,0,1-1.13-1,2.79,2.79,0,0,1-.42-1.45,2.73,2.73,0,0,1,.76-2.13,3.12,3.12,0,0,1,2.17-.69h4.75v1.06h-4.37a3.16,3.16,0,0,0-1.74.4,1.64,1.64,0,0,0-.61,1.49,2,2,0,0,0,.23,1,1.93,1.93,0,0,0,.62.65,3.07,3.07,0,0,0,.87.36,4.9,4.9,0,0,0,1,.11h4v1.06h-4.37a3.25,3.25,0,0,0-1.74.39,1.65,1.65,0,0,0-.61,1.49,2.52,2.52,0,0,0,.07.44,1.71,1.71,0,0,0,.35.72,2.67,2.67,0,0,0,.86.66,3.53,3.53,0,0,0,1.6.3h3.84v1.05Z"/><path d="M104.71,115.59l-.83,0-.84.06v-1.14h1.14v0a2.41,2.41,0,0,1-1-1.06,2.91,2.91,0,0,1-.27-2,2.42,2.42,0,0,1,.23-.67,2.34,2.34,0,0,1,.47-.6,2.65,2.65,0,0,1,.78-.47,2.41,2.41,0,0,1-1.13-1,2.79,2.79,0,0,1-.42-1.45,2.73,2.73,0,0,1,.76-2.13,3.12,3.12,0,0,1,2.17-.69h4.75v1.06h-4.37a3.16,3.16,0,0,0-1.74.4,1.63,1.63,0,0,0-.61,1.49,1.82,1.82,0,0,0,.85,1.64,3.07,3.07,0,0,0,.87.36,4.9,4.9,0,0,0,1,.11h4v1h-4.37a3.25,3.25,0,0,0-1.74.4,1.65,1.65,0,0,0-.61,1.49,2.52,2.52,0,0,0,.07.44,1.62,1.62,0,0,0,.35.71,2.55,2.55,0,0,0,.86.67,3.69,3.69,0,0,0,1.6.29h3.84v1.06Z"/></g><line class="cls-2" x1="120.9" y1="64.93" x2="120.9" y2="217.26"/><line class="cls-2" x1="122.48" y1="64.93" x2="119.1" y2="64.93"/><line class="cls-2" x1="122.66" y1="217.26" x2="118.28" y2="217.26"/><g class="cls-1"><path d="M200.72,108.31v-.59a3.74,3.74,0,0,0-.11-1,2,2,0,0,0-.36-.79,1.81,1.81,0,0,0-.65-.54,2.13,2.13,0,0,0-1-.2,1.82,1.82,0,0,0-1.41.55,2.21,2.21,0,0,0-.51,1.55,2.46,2.46,0,0,0,.32,1.26,2.59,2.59,0,0,0,.93.9l-.51,1a3.35,3.35,0,0,1-1.35-1.31,3.62,3.62,0,0,1-.44-1.83,4,4,0,0,1,.19-1.26,3.09,3.09,0,0,1,.57-1,2.83,2.83,0,0,1,.92-.72,3,3,0,0,1,1.26-.26,2.58,2.58,0,0,1,.88.15,2.5,2.5,0,0,1,.75.42,2.76,2.76,0,0,1,1,1.35l0-.05a2.72,2.72,0,0,1,.36-.88,3,3,0,0,1,.65-.68,2.77,2.77,0,0,1,.87-.45,3,3,0,0,1,1-.16,3.13,3.13,0,0,1,1.4.29,3,3,0,0,1,1,.78,3.3,3.3,0,0,1,.63,1.15,4.26,4.26,0,0,1,.22,1.39,4.18,4.18,0,0,1-.55,2.18,3.29,3.29,0,0,1-1.74,1.39l-.37-1.22a2.31,2.31,0,0,0,1.21-.85,2.79,2.79,0,0,0,.39-1.59,2.49,2.49,0,0,0-.16-.91,2.14,2.14,0,0,0-2.08-1.46,2.27,2.27,0,0,0-1.08.24,2,2,0,0,0-.71.64,2.72,2.72,0,0,0-.39.92,4.83,4.83,0,0,0-.12,1.08v.49Z"/><path d="M195.67,98.23a3.14,3.14,0,0,1,.56-2,3.78,3.78,0,0,1,1.42-1.17,6.45,6.45,0,0,1,1.9-.56,13.53,13.53,0,0,1,2-.14,13.76,13.76,0,0,1,2,.14,6.3,6.3,0,0,1,1.89.56,3.81,3.81,0,0,1,1.43,1.17,3.73,3.73,0,0,1,0,3.93,3.81,3.81,0,0,1-1.43,1.17,6.3,6.3,0,0,1-1.89.56,13.82,13.82,0,0,1-2,.15,13.58,13.58,0,0,1-2-.15,6.45,6.45,0,0,1-1.9-.56,3.78,3.78,0,0,1-1.42-1.17A3.16,3.16,0,0,1,195.67,98.23Zm1.05,0a2.09,2.09,0,0,0,.5,1.47,3.08,3.08,0,0,0,1.23.81,6.09,6.09,0,0,0,1.57.34c.55.05,1,.07,1.5.07s.95,0,1.51-.07a6.1,6.1,0,0,0,1.56-.34,3.11,3.11,0,0,0,1.24-.81,2.44,2.44,0,0,0,0-2.93,3.11,3.11,0,0,0-1.24-.81,6.1,6.1,0,0,0-1.56-.34c-.56-.05-1.06-.07-1.51-.07s-1,0-1.5.07a6.09,6.09,0,0,0-1.57.34,3.08,3.08,0,0,0-1.23.81A2.09,2.09,0,0,0,196.72,98.23Z"/><path d="M195.67,89.34a3.17,3.17,0,0,1,.56-2,3.78,3.78,0,0,1,1.42-1.17,6.77,6.77,0,0,1,1.9-.56,15.09,15.09,0,0,1,2-.14,15.36,15.36,0,0,1,2,.14,6.6,6.6,0,0,1,1.89.56,3.81,3.81,0,0,1,1.43,1.17,3.75,3.75,0,0,1,0,3.94,3.81,3.81,0,0,1-1.43,1.17,6.6,6.6,0,0,1-1.89.56,15.36,15.36,0,0,1-2,.14,15.09,15.09,0,0,1-2-.14,6.77,6.77,0,0,1-1.9-.56,3.78,3.78,0,0,1-1.42-1.17A3.17,3.17,0,0,1,195.67,89.34Zm1.05,0a2.05,2.05,0,0,0,.5,1.46,3.08,3.08,0,0,0,1.23.81A6.09,6.09,0,0,0,200,92c.55,0,1,.07,1.5.07s.95,0,1.51-.07a6.11,6.11,0,0,0,1.56-.35,3.11,3.11,0,0,0,1.24-.81,2,2,0,0,0,.49-1.46,2.09,2.09,0,0,0-.49-1.47,3.2,3.2,0,0,0-1.24-.8,6.11,6.11,0,0,0-1.56-.35c-.56,0-1.06-.07-1.51-.07s-1,0-1.5.07a6.09,6.09,0,0,0-1.57.35,3.17,3.17,0,0,0-1.23.8A2.09,2.09,0,0,0,196.72,89.34Z"/><path d="M201.36,79.29c-.28,0-.55,0-.83,0l-.83.05V78.24h1.13v0a2.53,2.53,0,0,1-1-1.06,3.05,3.05,0,0,1-.33-1.35,3.74,3.74,0,0,1,.06-.65,2.25,2.25,0,0,1,.23-.66,2,2,0,0,1,.47-.6,2.64,2.64,0,0,1,.79-.48,2.48,2.48,0,0,1-1.14-1,2.87,2.87,0,0,1-.41-1.45,2.73,2.73,0,0,1,.76-2.13,3.1,3.1,0,0,1,2.16-.69h4.76v1.06h-4.37a3.17,3.17,0,0,0-1.75.4,1.66,1.66,0,0,0-.6,1.49,1.84,1.84,0,0,0,.84,1.64,3,3,0,0,0,.88.36,4.74,4.74,0,0,0,1,.11h4v1.06h-4.37a3.17,3.17,0,0,0-1.75.4,1.64,1.64,0,0,0-.6,1.48,3.37,3.37,0,0,0,.06.44,1.71,1.71,0,0,0,.35.72,2.61,2.61,0,0,0,.87.66,3.48,3.48,0,0,0,1.6.3h3.84v1.05Z"/><path d="M201.36,65.66l-.83,0-.83.06V64.6h1.13v0a2.53,2.53,0,0,1-1-1.06,3.12,3.12,0,0,1-.33-1.35,3.74,3.74,0,0,1,.06-.65,2.42,2.42,0,0,1,.23-.67,2.34,2.34,0,0,1,.47-.6,2.85,2.85,0,0,1,.79-.47,2.48,2.48,0,0,1-1.14-1,2.87,2.87,0,0,1-.41-1.45,2.73,2.73,0,0,1,.76-2.13,3.1,3.1,0,0,1,2.16-.69h4.76v1.06h-4.37a3.17,3.17,0,0,0-1.75.4,1.65,1.65,0,0,0-.6,1.49,1.91,1.91,0,0,0,.23,1,2,2,0,0,0,.61.65,3,3,0,0,0,.88.36,4.74,4.74,0,0,0,1,.11h4V60.6h-4.37a3.26,3.26,0,0,0-1.75.4,1.67,1.67,0,0,0-.6,1.49,3.37,3.37,0,0,0,.06.44,1.62,1.62,0,0,0,.35.71,2.5,2.5,0,0,0,.87.67,3.63,3.63,0,0,0,1.6.29h3.84v1.06Z"/></g><line class="cls-2" x1="186" y1="65.55" x2="186" y2="100.59"/><line class="cls-2" x1="187.57" y1="65.55" x2="184.2" y2="65.55"/><line class="cls-2" x1="187.75" y1="100.59" x2="183.38" y2="100.59"/><g class="cls-1"><path d="M121.39,38.3a3.9,3.9,0,0,1,.68,1.16,4.42,4.42,0,0,1,0,3,3.73,3.73,0,0,1-2.08,2.07,4.2,4.2,0,0,1-1.61.3,4.15,4.15,0,0,1-1.4-.22,4,4,0,0,1-1.11-.61l-1.07,1.09-.52-.5,1.06-1.09a3.62,3.62,0,0,1-.69-1.17,4.23,4.23,0,0,1-.24-1.44,4,4,0,0,1,.3-1.56,3.67,3.67,0,0,1,.82-1.25,3.79,3.79,0,0,1,1.26-.83,4.29,4.29,0,0,1,1.59-.29,4.45,4.45,0,0,1,1.39.21,3.86,3.86,0,0,1,1.15.62l1.06-1.09.51.5Zm-1.25.25a2.7,2.7,0,0,0-1.81-.62,3,3,0,0,0-1.18.23,2.67,2.67,0,0,0-.88.63,3,3,0,0,0-.56,1,3.41,3.41,0,0,0-.2,1.16,3,3,0,0,0,.55,1.83Zm-3.6,4.72a2.72,2.72,0,0,0,.8.45,2.86,2.86,0,0,0,1,.16,3,3,0,0,0,1.18-.23,2.82,2.82,0,0,0,.88-.63,2.68,2.68,0,0,0,.57-1,3.42,3.42,0,0,0,.2-1.17,3.13,3.13,0,0,0-.54-1.82Z"/><path d="M130.79,38.18h.59a3.77,3.77,0,0,0,1-.11,2.11,2.11,0,0,0,.79-.36,1.83,1.83,0,0,0,.54-.65,2.13,2.13,0,0,0,.19-1,1.8,1.8,0,0,0-.55-1.41,2.18,2.18,0,0,0-1.54-.51,2.52,2.52,0,0,0-1.27.32,2.57,2.57,0,0,0-.89.93l-1-.51a3.39,3.39,0,0,1,1.3-1.35,3.66,3.66,0,0,1,1.84-.44,4,4,0,0,1,1.26.19,3.09,3.09,0,0,1,1,.57,2.62,2.62,0,0,1,.71.93,2.77,2.77,0,0,1,.27,1.25,2.37,2.37,0,0,1-.16.88,2.72,2.72,0,0,1-.41.75,2.89,2.89,0,0,1-.62.59,2.79,2.79,0,0,1-.73.37l.05,0a2.3,2.3,0,0,1,.87.36,2.63,2.63,0,0,1,.69.64,3.26,3.26,0,0,1,.45.87,3.05,3.05,0,0,1,.16,1A3.26,3.26,0,0,1,135,43a3,3,0,0,1-.78,1,3.39,3.39,0,0,1-1.15.63,4.28,4.28,0,0,1-1.4.22,4.24,4.24,0,0,1-2.17-.54,3.35,3.35,0,0,1-1.39-1.75l1.21-.37a2.33,2.33,0,0,0,.86,1.21,2.79,2.79,0,0,0,1.59.39,2.53,2.53,0,0,0,.91-.16,2.16,2.16,0,0,0,.76-.45,2.11,2.11,0,0,0,.51-.71,2.17,2.17,0,0,0,.19-.92,2.27,2.27,0,0,0-.24-1.08,2,2,0,0,0-.64-.71,2.72,2.72,0,0,0-.92-.39,4.83,4.83,0,0,0-1.08-.12h-.5Z"/><path d="M142.25,39.78l0,0a1.89,1.89,0,0,1-.73.29,4.54,4.54,0,0,1-.84.1,3.45,3.45,0,0,1-1.37-.27A3.27,3.27,0,0,1,137.46,38a3.84,3.84,0,0,1,0-2.83,3.35,3.35,0,0,1,.77-1.11,3.66,3.66,0,0,1,1.17-.72,4.13,4.13,0,0,1,1.47-.25,4,4,0,0,1,1.47.25,3.66,3.66,0,0,1,1.17.72,3.21,3.21,0,0,1,.77,1.11,3.59,3.59,0,0,1,.27,1.42,4.39,4.39,0,0,1-.28,1.65,9.45,9.45,0,0,1-.69,1.39l-3.06,5h-1.36Zm1.15-3.15a2.64,2.64,0,0,0-.18-1,2.43,2.43,0,0,0-.52-.77,2.52,2.52,0,0,0-.8-.5,2.86,2.86,0,0,0-2.05,0,2.41,2.41,0,0,0-.8.5,2.14,2.14,0,0,0-.52.77,2.64,2.64,0,0,0-.19,1,2.61,2.61,0,0,0,.19,1,2.18,2.18,0,0,0,.52.78,2.13,2.13,0,0,0,.8.5,3,3,0,0,0,2.05,0,2.21,2.21,0,0,0,.8-.5,2.48,2.48,0,0,0,.52-.78A2.61,2.61,0,0,0,143.4,36.63Z"/><path d="M152.76,34.38h-4.62l-.08,3.4a3.77,3.77,0,0,1,.75-.2,3.94,3.94,0,0,1,.77-.07,3.75,3.75,0,0,1,1.45.27,3.46,3.46,0,0,1,1.13.76,3.66,3.66,0,0,1,.74,1.16,4,4,0,0,1,.26,1.44,3.82,3.82,0,0,1-.29,1.5,3.53,3.53,0,0,1-.8,1.17,3.66,3.66,0,0,1-1.21.76,4.1,4.1,0,0,1-1.51.27,3.71,3.71,0,0,1-1.93-.51,3.28,3.28,0,0,1-1.33-1.51l1.15-.49a2.58,2.58,0,0,0,.89,1.06,2.34,2.34,0,0,0,1.33.39,2.38,2.38,0,0,0,1-.2,2.64,2.64,0,0,0,.81-.53,2.46,2.46,0,0,0,.54-.8,2.54,2.54,0,0,0,.2-1,2.75,2.75,0,0,0-.21-1.09,2.56,2.56,0,0,0-.58-.86,2.4,2.4,0,0,0-.88-.55,3.1,3.1,0,0,0-1.12-.19,4.14,4.14,0,0,0-1.2.17,6,6,0,0,0-1.15.45l.11-5.87h5.78Z"/><path d="M159.82,38.82c0-.27,0-.55,0-.83s0-.55,0-.83h1.13V38.3h0a2.52,2.52,0,0,1,1.07-1,3.05,3.05,0,0,1,1.35-.33A3.83,3.83,0,0,1,164,37a2.25,2.25,0,0,1,.66.23,2.08,2.08,0,0,1,.6.48,2.28,2.28,0,0,1,.47.78,2.56,2.56,0,0,1,1-1.14,2.85,2.85,0,0,1,1.45-.41,2.73,2.73,0,0,1,2.13.76A3.15,3.15,0,0,1,171,39.9v4.75h-1V40.28a3.2,3.2,0,0,0-.4-1.74,1.64,1.64,0,0,0-1.49-.61,2,2,0,0,0-1,.23,1.84,1.84,0,0,0-.65.62,2.62,2.62,0,0,0-.36.87,4.74,4.74,0,0,0-.11,1v4h-1.06V40.28a3.11,3.11,0,0,0-.4-1.74,1.63,1.63,0,0,0-1.49-.61l-.44.06a1.67,1.67,0,0,0-.71.35,2.72,2.72,0,0,0-.66.87,3.51,3.51,0,0,0-.3,1.6v3.84h-1.05Z"/><path d="M173.45,38.82c0-.27,0-.55,0-.83s0-.55,0-.83h1.13V38.3h0a2.5,2.5,0,0,1,1.06-1A3.05,3.05,0,0,1,177,37a3.83,3.83,0,0,1,.65.06,2.25,2.25,0,0,1,.66.23,2.08,2.08,0,0,1,.6.48,2.47,2.47,0,0,1,.48.78,2.48,2.48,0,0,1,1-1.14A2.87,2.87,0,0,1,181.8,37a2.73,2.73,0,0,1,2.13.76,3.11,3.11,0,0,1,.69,2.17v4.75h-1.06V40.28a3.11,3.11,0,0,0-.4-1.74,1.64,1.64,0,0,0-1.49-.61,2,2,0,0,0-1,.23,1.84,1.84,0,0,0-.65.62,2.84,2.84,0,0,0-.36.87,4.74,4.74,0,0,0-.11,1v4H178.5V40.28a3.11,3.11,0,0,0-.4-1.74,1.62,1.62,0,0,0-1.48-.61l-.44.06a1.71,1.71,0,0,0-.72.35,2.72,2.72,0,0,0-.66.87,3.51,3.51,0,0,0-.3,1.6v3.84h-1.05Z"/></g><line class="cls-2" x1="171.6" y1="55.02" x2="127.58" y2="55.02"/><line class="cls-2" x1="171.6" y1="56.59" x2="171.6" y2="53.22"/><line class="cls-2" x1="127.58" y1="56.77" x2="127.58" y2="52.4"/><line class="cls-2" x1="132.28" y1="226.35" x2="165.09" y2="226.69"/><line class="cls-2" x1="132.27" y1="225.65" x2="132.25" y2="227.04"/><line class="cls-2" x1="165.1" y1="226" x2="165.09" y2="227.39"/><g class="cls-1"><path d="M127.44,247.1l-7.2,0v-1.33l4.53-4.57c.17-.17.34-.35.51-.55a5.39,5.39,0,0,0,.47-.6,3.52,3.52,0,0,0,.34-.67,2.3,2.3,0,0,0,.13-.74,2,2,0,0,0-.17-.83,1.83,1.83,0,0,0-.47-.63,2.08,2.08,0,0,0-.7-.39,2.66,2.66,0,0,0-.85-.14,2.37,2.37,0,0,0-1.47.47,2.17,2.17,0,0,0-.79,1.3l-1.21-.14a3.13,3.13,0,0,1,1.16-2,3.54,3.54,0,0,1,2.24-.72,5,5,0,0,1,1.3.19,3.41,3.41,0,0,1,1.09.56,2.67,2.67,0,0,1,.74.92,2.79,2.79,0,0,1,.28,1.29,3.51,3.51,0,0,1-.2,1.2,4.94,4.94,0,0,1-.53,1,6.33,6.33,0,0,1-.73.91c-.27.29-.55.57-.84.85L121.5,246l6,0Z"/><path d="M134.21,242.26l0,0a2,2,0,0,1-.73.28,3.69,3.69,0,0,1-.84.1,3.79,3.79,0,0,1-1.36-.27,3.38,3.38,0,0,1-1.1-.74,3.28,3.28,0,0,1-.72-1.1,3.61,3.61,0,0,1-.26-1.41,3.51,3.51,0,0,1,.28-1.43,3.27,3.27,0,0,1,.77-1.1,3.63,3.63,0,0,1,1.17-.71,4.13,4.13,0,0,1,1.47-.25,4,4,0,0,1,1.47.26,3.49,3.49,0,0,1,1.17.72,3.18,3.18,0,0,1,.76,1.11,3.64,3.64,0,0,1,.27,1.43,4.33,4.33,0,0,1-.29,1.64,9.53,9.53,0,0,1-.7,1.39l-3.07,5h-1.36Zm1.17-3.15a2.64,2.64,0,0,0-.18-1,2.18,2.18,0,0,0-.52-.77,2.44,2.44,0,0,0-.8-.51,3,3,0,0,0-1-.19,2.86,2.86,0,0,0-1,.18,2.71,2.71,0,0,0-.8.5,2.28,2.28,0,0,0-.52.77,2.64,2.64,0,0,0-.19,1,2.57,2.57,0,0,0,.18,1,2.32,2.32,0,0,0,.52.78,2.29,2.29,0,0,0,.8.51,2.8,2.8,0,0,0,1,.18,3.09,3.09,0,0,0,1-.17,2.64,2.64,0,0,0,.8-.5,2.32,2.32,0,0,0,.52-.78A2.64,2.64,0,0,0,135.38,239.11Z"/><path d="M141.76,235.63a3.24,3.24,0,0,1,2,.57,3.78,3.78,0,0,1,1.16,1.43,6.44,6.44,0,0,1,.55,1.9,15.09,15.09,0,0,1,.14,2,17.47,17.47,0,0,1-.15,2,6.31,6.31,0,0,1-.57,1.89,3.71,3.71,0,0,1-1.18,1.42,3.17,3.17,0,0,1-2,.55,3.21,3.21,0,0,1-2-.56,3.84,3.84,0,0,1-1.16-1.43,6.45,6.45,0,0,1-.56-1.9,14,14,0,0,1,0-3.95,6.46,6.46,0,0,1,.57-1.9,3.94,3.94,0,0,1,1.17-1.42A3.24,3.24,0,0,1,141.76,235.63Zm0,1.06a2.09,2.09,0,0,0-1.47.49,3.08,3.08,0,0,0-.81,1.23,5.72,5.72,0,0,0-.35,1.56c0,.56-.08,1.06-.08,1.51s0,1,.07,1.5a5.69,5.69,0,0,0,.33,1.57,3.19,3.19,0,0,0,.81,1.24,2.4,2.4,0,0,0,2.92,0,3.21,3.21,0,0,0,.82-1.23,6.09,6.09,0,0,0,.35-1.57c.05-.55.07-1.05.07-1.5s0-.95-.06-1.51a6.27,6.27,0,0,0-.34-1.57,3.17,3.17,0,0,0-.8-1.23A2.09,2.09,0,0,0,141.76,236.69Z"/><path d="M151.79,241.37q0-.42,0-.84c0-.27,0-.55,0-.83h1.14v1.13h0a2.53,2.53,0,0,1,1.06-1,3.12,3.12,0,0,1,1.36-.33,3.79,3.79,0,0,1,.64.07,2.16,2.16,0,0,1,.67.24,2.34,2.34,0,0,1,.6.47,2.44,2.44,0,0,1,.46.78,2.59,2.59,0,0,1,1-1.13,2.87,2.87,0,0,1,1.45-.41,2.77,2.77,0,0,1,2.13.77,3.12,3.12,0,0,1,.68,2.17l0,4.75h-1.05v-4.37a3.2,3.2,0,0,0-.39-1.74,1.65,1.65,0,0,0-1.49-.62,2,2,0,0,0-1,.23,1.9,1.9,0,0,0-.65.61,2.58,2.58,0,0,0-.36.87,4.31,4.31,0,0,0-.12,1v4h-1.06v-4.37a3,3,0,0,0-.39-1.74,1.65,1.65,0,0,0-1.48-.62l-.44.06a1.84,1.84,0,0,0-.72.35,2.53,2.53,0,0,0-.66.86,3.66,3.66,0,0,0-.31,1.6v3.84h-1.06Z"/><path d="M165.42,241.42c0-.28,0-.56,0-.83l-.06-.84h1.14v1.13h0a2.45,2.45,0,0,1,1.06-1,2.87,2.87,0,0,1,1.36-.33,3.83,3.83,0,0,1,.65.06,2.39,2.39,0,0,1,.66.24,2.34,2.34,0,0,1,.6.47,2.71,2.71,0,0,1,.47.79,2.45,2.45,0,0,1,1-1.14,2.82,2.82,0,0,1,1.45-.41,2.74,2.74,0,0,1,2.12.77,3.12,3.12,0,0,1,.68,2.17l0,4.76h-1.05v-4.37a3.14,3.14,0,0,0-.39-1.74,1.67,1.67,0,0,0-1.49-.62,2,2,0,0,0-1,.23,1.93,1.93,0,0,0-.65.62,2.42,2.42,0,0,0-.36.87,4.17,4.17,0,0,0-.12,1v4h-1.06l0-4.37a3.13,3.13,0,0,0-.4-1.74,1.62,1.62,0,0,0-1.48-.61,2.18,2.18,0,0,0-.44.06,1.6,1.6,0,0,0-.72.35,2.56,2.56,0,0,0-.66.86,3.6,3.6,0,0,0-.31,1.6v3.84h-1.06Z"/></g><polyline class="cls-3" points="127.58 102.05 171.6 102.05 163.68 64.93 135.5 64.93 127.58 102.05"/><polyline class="cls-3" points="148.18 101.89 148.18 213.35 147.18 216.57 132.77 216.57 132.77 217.41 164.78 217.41 164.78 216.57 150.38 216.57 149.38 213.35 149.38 101.89"/><polyline class="cls-3" points="136.29 64.77 136.61 71.45 137.9 78.01"/><line class="cls-3" x1="137.9" y1="78.01" x2="139.92" y2="83.49"/><polyline class="cls-3" points="139.92 83.49 141.11 85.68 142.55 87.69"/><polyline class="cls-3" points="142.55 87.7 143.54 88.82 144.71 89.74 146.03 90.42 147.44 90.84 148.9 90.98 150.36 90.84 151.77 90.42 153.08 89.74 154.26 88.82 155.25 87.7"/><polyline class="cls-3" points="155.25 87.7 157.23 84.7 158.79 81.45 159.9 78.01"/><line class="cls-3" x1="159.9" y1="78.01" x2="161.16" y2="71.62"/><polyline class="cls-3" points="161.17 71.62 161.5 68.21 161.47 64.77"/><path class="cls-4" d="M136.14,64.92h27.42m-28.67,2.46H164M134.3,69.85h30.33m-30.75,2.47H165.4m-32.06,2.46h32.27m-32.72,2.46h33.49m-34,2.47h34.2M132,82.17h34.91m-35.55,2.47h36M131.12,87.1H168m-37.51,2.47h38.21M130.16,92H169M129.48,94.5h40.23M129,97h41.43m-42.28,2.46H171m-42.86,2.47H170.8"/></svg>