<svg id="Ktribe_Wall" data-name="Ktribe Wall" xmlns="http://www.w3.org/2000/svg" xmlns:xlink="http://www.w3.org/1999/xlink" viewBox="0 0 300 263"><defs><style>.cls-1,.cls-2,.cls-4{fill:none;}.cls-2{stroke:#000;}.cls-2,.cls-4{stroke-width:0.5px;}.cls-3{isolation:isolate;}.cls-4{stroke:#231f20;stroke-linecap:round;stroke-linejoin:round;}.cls-5{clip-path:url(#clip-path);}</style><clipPath id="clip-path"><polygon class="cls-1" points="83.78 72.88 62.67 151.46 167.31 151.46 146.2 72.88 83.78 72.88"/></clipPath></defs><title>ktribe-ceiling-wall-starck-flos-F6307004-spech-tech-02-300x263-01</title><line class="cls-2" x1="62.66" y1="64.46" x2="167.31" y2="64.9"/><line class="cls-2" x1="62.67" y1="62.64" x2="62.65" y2="66.28"/><line class="cls-2" x1="167.31" y1="63.08" x2="167.3" y2="66.73"/><g class="cls-3"><path d="M89,49.19a3.6,3.6,0,0,1,.67,1.16,4.05,4.05,0,0,1,.25,1.45,4.22,4.22,0,0,1-.31,1.57,3.82,3.82,0,0,1-.82,1.25,4,4,0,0,1-1.26.82,4.23,4.23,0,0,1-1.61.28,3.88,3.88,0,0,1-1.4-.23,3.72,3.72,0,0,1-1.11-.61L82.28,56l-.51-.49,1.06-1.09a3.72,3.72,0,0,1-.68-1.18,3.94,3.94,0,0,1-.23-1.43,4.07,4.07,0,0,1,.3-1.57,3.73,3.73,0,0,1,2.09-2.06,4.29,4.29,0,0,1,1.59-.29,4.4,4.4,0,0,1,1.39.22,4.1,4.1,0,0,1,1.15.62l1.06-1.08.51.5Zm-1.25.25a2.68,2.68,0,0,0-1.8-.63,3,3,0,0,0-1.18.23,2.45,2.45,0,0,0-.88.63,3,3,0,0,0-.57.94,3.42,3.42,0,0,0-.2,1.17,2.93,2.93,0,0,0,.53,1.82Zm-3.62,4.71a2.74,2.74,0,0,0,1.79.61,2.79,2.79,0,0,0,1.18-.22,3,3,0,0,0,.89-.63,2.89,2.89,0,0,0,.57-.94,3.46,3.46,0,0,0,.2-1.17A3.1,3.1,0,0,0,88.18,50Z"/><path d="M103,55.6l-7.2,0V54.25l4.53-4.58.52-.54a4.64,4.64,0,0,0,.46-.61,3.25,3.25,0,0,0,.34-.67,2.18,2.18,0,0,0,0-1.56,1.74,1.74,0,0,0-.47-.63,2.18,2.18,0,0,0-.7-.39,2.41,2.41,0,0,0-.85-.14,2.22,2.22,0,0,0-1.47.47,2.17,2.17,0,0,0-.79,1.29l-1.22-.13a3.15,3.15,0,0,1,1.17-2,3.5,3.5,0,0,1,2.23-.71,4.32,4.32,0,0,1,1.31.19,3.09,3.09,0,0,1,1.08.56,2.5,2.5,0,0,1,.75.92A2.79,2.79,0,0,1,103,47a3.77,3.77,0,0,1-.21,1.2,5.44,5.44,0,0,1-.52,1,7,7,0,0,1-.74.91c-.27.28-.55.57-.84.84l-3.58,3.52,6,0Z"/><path d="M110.63,51.89h1.64V53h-1.63v2.69h-1.15V52.94l-4.9,0V51.61l4.61-7.31h1.47Zm-1.12-6.43h0l-3.93,6.41,3.93,0Z"/><path d="M117.36,44.15a3.21,3.21,0,0,1,2,.56,3.84,3.84,0,0,1,1.16,1.43A6.45,6.45,0,0,1,121,48a15.29,15.29,0,0,1,.13,2,13.58,13.58,0,0,1-.15,2,6.46,6.46,0,0,1-.57,1.9,3.86,3.86,0,0,1-1.17,1.42,3.26,3.26,0,0,1-2,.55,3.31,3.31,0,0,1-2-.57,3.77,3.77,0,0,1-1.16-1.43,6.16,6.16,0,0,1-.55-1.9,13.62,13.62,0,0,1-.14-2,13.82,13.82,0,0,1,.15-2,6.31,6.31,0,0,1,.57-1.89,3.78,3.78,0,0,1,1.17-1.42A3.2,3.2,0,0,1,117.36,44.15Zm0,1.05a2.09,2.09,0,0,0-1.47.49,3.19,3.19,0,0,0-.81,1.23,6.09,6.09,0,0,0-.35,1.57c0,.55-.08,1-.08,1.5s0,.95.07,1.5a6.08,6.08,0,0,0,.33,1.57,3,3,0,0,0,.81,1.24,2.05,2.05,0,0,0,1.46.5,2.09,2.09,0,0,0,1.47-.49,3.19,3.19,0,0,0,.81-1.23,6.11,6.11,0,0,0,.35-1.56c0-.56.08-1.06.08-1.51s0-.95-.07-1.5a6.08,6.08,0,0,0-.33-1.57,3.19,3.19,0,0,0-.81-1.24A2.05,2.05,0,0,0,117.35,45.2Z"/><path d="M127.38,49.88c0-.27,0-.55,0-.83s0-.55,0-.83h1.13v1.13h0a2.56,2.56,0,0,1,1.07-1,3.05,3.05,0,0,1,1.35-.33,3.9,3.9,0,0,1,.65.07,2,2,0,0,1,.66.24,2.34,2.34,0,0,1,.6.47,2.4,2.4,0,0,1,.47.79,2.45,2.45,0,0,1,1-1.14,2.85,2.85,0,0,1,1.45-.41,2.73,2.73,0,0,1,2.12.77,3.09,3.09,0,0,1,.68,2.17l0,4.76h-1.05V51.38a3.08,3.08,0,0,0-.39-1.74,1.65,1.65,0,0,0-1.48-.62,2,2,0,0,0-1,.23,2.11,2.11,0,0,0-.65.61,3.07,3.07,0,0,0-.36.87,4.91,4.91,0,0,0-.12,1v4h-1.06l0-4.37a3.2,3.2,0,0,0-.39-1.74,1.67,1.67,0,0,0-1.49-.62l-.44.06a1.74,1.74,0,0,0-.71.35,2.55,2.55,0,0,0-.67.86,3.53,3.53,0,0,0-.3,1.6l0,3.84h-1.06Z"/><path d="M141,49.94c0-.27,0-.55,0-.83s0-.55-.05-.83h1.13v1.14h0a2.44,2.44,0,0,1,1.07-1,3.05,3.05,0,0,1,1.35-.33,3.9,3.9,0,0,1,.65.07,2.17,2.17,0,0,1,1.26.71,2.45,2.45,0,0,1,.47.78,2.59,2.59,0,0,1,1-1.13,2.87,2.87,0,0,1,1.45-.41,2.77,2.77,0,0,1,2.13.77,3.12,3.12,0,0,1,.67,2.17l0,4.75H151.1l0-4.37a3.13,3.13,0,0,0-.4-1.74,1.65,1.65,0,0,0-1.48-.62,2,2,0,0,0-1,.23,1.93,1.93,0,0,0-.66.61,3.07,3.07,0,0,0-.36.87,5.69,5.69,0,0,0-.12,1v4H146l0-4.37a3.27,3.27,0,0,0-.39-1.75,1.67,1.67,0,0,0-1.49-.61l-.44.06a1.62,1.62,0,0,0-.71.35,2.55,2.55,0,0,0-.67.86,3.53,3.53,0,0,0-.3,1.6l0,3.84h-1Z"/></g><line class="cls-2" x1="237.33" y1="226.49" x2="62.65" y2="226.49"/><line class="cls-2" x1="237.33" y1="227.95" x2="237.33" y2="224.94"/><line class="cls-2" x1="62.65" y1="227.95" x2="62.65" y2="224.94"/><g class="cls-3"><path d="M120,243h1.63v1.06H120v2.69h-1.15v-2.69h-4.9v-1.31l4.58-7.33H120Zm-1.15-6.43h0L114.9,243h3.94Z"/><path d="M130.2,246.78H123v-1.33l4.51-4.59c.17-.17.34-.36.51-.55a3.9,3.9,0,0,0,.46-.61,3.25,3.25,0,0,0,.34-.67,2,2,0,0,0,.13-.73,2.07,2.07,0,0,0-.17-.84,1.79,1.79,0,0,0-.47-.62,2.13,2.13,0,0,0-.71-.39,2.6,2.6,0,0,0-.84-.14,2.33,2.33,0,0,0-1.48.48,2.2,2.2,0,0,0-.78,1.3l-1.22-.13a3.18,3.18,0,0,1,1.16-2,3.54,3.54,0,0,1,2.24-.72,4.64,4.64,0,0,1,1.3.18,3.39,3.39,0,0,1,1.09.55,2.69,2.69,0,0,1,1,2.21,3.51,3.51,0,0,1-.2,1.2,4.9,4.9,0,0,1-.52,1,7,7,0,0,1-.73.92c-.27.28-.55.57-.84.84l-3.57,3.54h6Z"/><path d="M135.57,235.26a3.17,3.17,0,0,1,2,.56,3.78,3.78,0,0,1,1.17,1.42,6.45,6.45,0,0,1,.56,1.9,15.09,15.09,0,0,1,.14,2,15.36,15.36,0,0,1-.14,2,6.3,6.3,0,0,1-.56,1.89,3.81,3.81,0,0,1-1.17,1.43,3.75,3.75,0,0,1-3.94,0,3.69,3.69,0,0,1-1.16-1.43,6,6,0,0,1-.56-1.89,13.82,13.82,0,0,1-.15-2,13.58,13.58,0,0,1,.15-2,6.17,6.17,0,0,1,.56-1.9,3.66,3.66,0,0,1,1.16-1.42A3.19,3.19,0,0,1,135.57,235.26Zm0,1.05a2.07,2.07,0,0,0-1.46.5,3.08,3.08,0,0,0-.81,1.23,5.7,5.7,0,0,0-.34,1.57c-.05.55-.08,1-.08,1.5s0,.95.08,1.51a5.71,5.71,0,0,0,.34,1.56,3.11,3.11,0,0,0,.81,1.24,2.06,2.06,0,0,0,1.46.49,2.09,2.09,0,0,0,1.47-.49,3.2,3.2,0,0,0,.8-1.24,5.72,5.72,0,0,0,.35-1.56c.05-.56.07-1.06.07-1.51s0-1-.07-1.5a5.71,5.71,0,0,0-.35-1.57,3.17,3.17,0,0,0-.8-1.23A2.09,2.09,0,0,0,135.57,236.31Z"/><path d="M145.62,241c0-.28,0-.55,0-.83l-.06-.83h1.14v1.13h0a2.53,2.53,0,0,1,1.06-1,3.12,3.12,0,0,1,1.35-.33,3.74,3.74,0,0,1,.65.06,2.42,2.42,0,0,1,.67.23,2.34,2.34,0,0,1,.6.47,2.85,2.85,0,0,1,.47.79,2.48,2.48,0,0,1,1-1.14,2.87,2.87,0,0,1,1.45-.41,2.73,2.73,0,0,1,2.13.76,3.1,3.1,0,0,1,.69,2.16v4.76h-1.06v-4.37a3.17,3.17,0,0,0-.4-1.75,1.65,1.65,0,0,0-1.49-.6,1.84,1.84,0,0,0-1.64.84,3,3,0,0,0-.36.88,4.74,4.74,0,0,0-.11,1v4h-1v-4.37a3.26,3.26,0,0,0-.4-1.75,1.67,1.67,0,0,0-1.49-.6l-.44.06a1.62,1.62,0,0,0-.71.35,2.5,2.5,0,0,0-.67.87,3.49,3.49,0,0,0-.29,1.6v3.84h-1.06Z"/><path d="M159.25,241c0-.28,0-.55,0-.83l-.06-.83h1.14v1.13h0a2.59,2.59,0,0,1,1.06-1,3.12,3.12,0,0,1,1.36-.33,3.72,3.72,0,0,1,.64.06,2.42,2.42,0,0,1,.67.23,2.34,2.34,0,0,1,.6.47,2.85,2.85,0,0,1,.47.79,2.45,2.45,0,0,1,1-1.14,2.81,2.81,0,0,1,1.44-.41,2.73,2.73,0,0,1,2.13.76,3.1,3.1,0,0,1,.69,2.16v4.76h-1.06v-4.37a3.17,3.17,0,0,0-.4-1.75,1.64,1.64,0,0,0-1.48-.6,1.92,1.92,0,0,0-1,.23,1.87,1.87,0,0,0-.64.61,2.55,2.55,0,0,0-.36.88,4.17,4.17,0,0,0-.12,1v4h-1.05v-4.37a3.26,3.26,0,0,0-.4-1.75,1.66,1.66,0,0,0-1.49-.6l-.44.06a1.62,1.62,0,0,0-.71.35,2.5,2.5,0,0,0-.67.87,3.63,3.63,0,0,0-.29,1.6v3.84h-1.06Z"/></g><line class="cls-2" x1="53.45" y1="73.64" x2="53.53" y2="150.92"/><line class="cls-2" x1="54.28" y1="73.64" x2="52.57" y2="73.64"/><line class="cls-2" x1="54.37" y1="150.92" x2="52.65" y2="150.92"/><g class="cls-3"><path d="M45.8,135.94v1.15L35.91,137l1.78,2-.87.71-2.35-2.89v-1Z"/><path d="M39.81,129.6a2.52,2.52,0,0,1-.38.68,2.7,2.7,0,0,1-.59.53,2.79,2.79,0,0,1-.74.35,2.57,2.57,0,0,1-.83.12,2.87,2.87,0,0,1-2.16-.95,3.06,3.06,0,0,1-.58-1,3.33,3.33,0,0,1-.2-1.22,3.56,3.56,0,0,1,.21-1.22,3.07,3.07,0,0,1,.6-1,2.67,2.67,0,0,1,.94-.68A2.75,2.75,0,0,1,37.3,125a2.63,2.63,0,0,1,.84.13,3.1,3.1,0,0,1,.73.36,2.48,2.48,0,0,1,.58.54,2.14,2.14,0,0,1,.37.68h0a2.7,2.7,0,0,1,1.07-1.53,3.23,3.23,0,0,1,1.92-.57,2.93,2.93,0,0,1,1.33.31,3.25,3.25,0,0,1,1,.79,3.39,3.39,0,0,1,.64,1.13,4.28,4.28,0,0,1,0,2.74,3.43,3.43,0,0,1-.66,1.13,3,3,0,0,1-1,.78,2.92,2.92,0,0,1-1.33.29,3.19,3.19,0,0,1-1.92-.59,2.68,2.68,0,0,1-1-1.54Zm-2.42-3.5a2.15,2.15,0,0,0-.8.15,1.93,1.93,0,0,0-.63.42,1.87,1.87,0,0,0-.42.64,2.06,2.06,0,0,0-.16.79,2.16,2.16,0,0,0,.15.81,1.92,1.92,0,0,0,1.84,1.22,2.07,2.07,0,0,0,.8-.15,1.87,1.87,0,0,0,.64-.42,2.31,2.31,0,0,0,.42-.63,2.11,2.11,0,0,0,.15-.8,2.07,2.07,0,0,0-.15-.8,1.84,1.84,0,0,0-.41-.65,1.74,1.74,0,0,0-.63-.42A1.91,1.91,0,0,0,37.39,126.1Zm5.29-.39a2.56,2.56,0,0,0-.93.17,2.29,2.29,0,0,0-.73.49,2.24,2.24,0,0,0-.5.76,2.73,2.73,0,0,0-.18,1,2.89,2.89,0,0,0,.17,1,2.26,2.26,0,0,0,1.22,1.26,2.32,2.32,0,0,0,.92.18,2.51,2.51,0,0,0,.92-.17,2.33,2.33,0,0,0,.74-.49,2.17,2.17,0,0,0,.49-.75,3,3,0,0,0,0-2,2.15,2.15,0,0,0-.48-.77,2.25,2.25,0,0,0-.74-.5A2.68,2.68,0,0,0,42.68,125.71Z"/><path d="M35.64,116.07l10.25,4.62V122l-10.25-4.72,0,5.52H34.55l0-6.72Z"/><path d="M40.13,109.19c-.28,0-.56,0-.83,0l-.84.05v-1.14h1.14v0a2.49,2.49,0,0,1-1-1.07,3.12,3.12,0,0,1-.33-1.36,3.9,3.9,0,0,1,.07-.65,2.2,2.2,0,0,1,.24-.66,2.14,2.14,0,0,1,.47-.59,2.33,2.33,0,0,1,.79-.47,2.45,2.45,0,0,1-1.13-1,3.07,3.07,0,0,1,.36-3.57A3.12,3.12,0,0,1,41.26,98l4.75,0v1.06l-4.37,0a3.2,3.2,0,0,0-1.74.39,1.65,1.65,0,0,0-.62,1.49,2,2,0,0,0,.22,1,1.84,1.84,0,0,0,.62.65A2.63,2.63,0,0,0,41,103a5.47,5.47,0,0,0,1,.12l4,0v1l-4.37,0a3.2,3.2,0,0,0-1.74.39,1.63,1.63,0,0,0-.62,1.48,3.17,3.17,0,0,0,.06.44,1.71,1.71,0,0,0,.35.72,2.55,2.55,0,0,0,.86.67,3.51,3.51,0,0,0,1.6.3l3.84,0v1.06Z"/><path d="M40.2,95.56a7.73,7.73,0,0,0-.83,0l-.83,0V94.49h1.13v0a2.45,2.45,0,0,1-1-1.06A3.12,3.12,0,0,1,38.37,92a3.07,3.07,0,0,1,.07-.65,2.36,2.36,0,0,1,.23-.66,2.19,2.19,0,0,1,.48-.6,2.44,2.44,0,0,1,.78-.46,2.5,2.5,0,0,1-1.13-1,3.1,3.1,0,0,1,.37-3.57,3.12,3.12,0,0,1,2.17-.68l4.75,0v1.06l-4.36,0a3.27,3.27,0,0,0-1.75.39,1.67,1.67,0,0,0-.62,1.49,2,2,0,0,0,.23,1,1.9,1.9,0,0,0,.61.65,2.82,2.82,0,0,0,.87.37,4.9,4.9,0,0,0,1,.11l4,0v1l-4.37,0a3.09,3.09,0,0,0-1.75.39,1.65,1.65,0,0,0-.61,1.48,3.37,3.37,0,0,0,.06.44,1.71,1.71,0,0,0,.35.72,2.57,2.57,0,0,0,.86.67,3.46,3.46,0,0,0,1.59.3l3.84,0v1.06Z"/></g><line class="cls-4" x1="112.44" y1="151.75" x2="112.44" y2="192.9"/><line class="cls-4" x1="112.44" y1="192.9" x2="116.53" y2="192.9"/><line class="cls-4" x1="116.54" y1="192.9" x2="116.54" y2="178.57"/><line class="cls-4" x1="116.54" y1="178.57" x2="233.24" y2="178.57"/><line class="cls-4" x1="233.24" y1="174.48" x2="116.54" y2="174.48"/><line class="cls-4" x1="116.54" y1="174.48" x2="116.54" y2="151.75"/><rect class="cls-4" x="233.24" y="155.84" width="4.09" height="61.42"/><g class="cls-5"><path class="cls-4" d="M83.72,72.88s5.85,68.32,31,68.32h.56c25.13,0,31-68.32,31-68.32Z"/></g><polygon class="cls-4" points="83.78 72.88 62.67 151.47 167.31 151.47 146.2 72.88 83.78 72.88"/><g class="cls-5"><path class="cls-4" d="M41,68.24H192.19M41,70.75H192.19M41,73.27H192.19M41,75.78H192.19M41,78.29H192.19M41,80.81H192.19M41,83.32H192.19M41,85.83H192.19M41,88.34H192.19M41,90.85H192.19M41,93.37H192.19M41,95.88H192.19M41,98.39H192.19M41,100.9H192.19M41,103.42H192.19M41,105.93H192.19M41,108.44H192.19M41,111H192.19M41,113.47H192.19M41,116H192.19M41,118.5H192.19M41,121H192.19M41,123.52H192.19M41,126H192.19M41,128.55H192.19M41,131.06H192.19M41,133.57H192.19M41,136.09H192.19M41,138.6H192.19M41,141.11H192.19M41,143.62H192.19M41,146.13H192.19M41,148.64H192.19M41,151.16H192.19M41,153.67H192.19M41,156.18H192.19M41,158.7H192.19M41,161.21H192.19M41,163.72H192.19M41,166.23H192.19M41,168.75H192.19M41,171.26H192.19"/></g><line class="cls-2" x1="244.97" y1="156.2" x2="245.03" y2="217.56"/><line class="cls-2" x1="245.63" y1="156.2" x2="244.27" y2="156.2"/><line class="cls-2" x1="245.69" y1="217.56" x2="244.33" y2="217.56"/><g class="cls-3"><path d="M263.14,210.54v1.15l-9.89-.05,1.78,2-.87.71-2.35-2.89v-1Z"/><path d="M252.92,199.71l0,4.63,3.41.1a3.44,3.44,0,0,1-.21-.76,4.87,4.87,0,0,1-.06-.76,4,4,0,0,1,.28-1.46,3.39,3.39,0,0,1,.77-1.12,3.52,3.52,0,0,1,1.15-.73,4,4,0,0,1,2.95,0,3.28,3.28,0,0,1,1.16.81,3.51,3.51,0,0,1,.76,1.21,4.35,4.35,0,0,1,.26,1.51,3.69,3.69,0,0,1-.52,1.93,3.28,3.28,0,0,1-1.52,1.32l-.49-1.15a2.61,2.61,0,0,0,1.07-.89,2.22,2.22,0,0,0,.4-1.32,2.42,2.42,0,0,0-.19-1,2.72,2.72,0,0,0-.53-.8,2.48,2.48,0,0,0-.8-.55,2.74,2.74,0,0,0-1-.21,2.79,2.79,0,0,0-1.09.21,2.4,2.4,0,0,0-.86.57,2.44,2.44,0,0,0-.55.87,3.18,3.18,0,0,0-.2,1.12,4.15,4.15,0,0,0,.16,1.21,5.72,5.72,0,0,0,.45,1.15l-5.87-.15,0-5.77Z"/><path d="M251.71,193.8a3.21,3.21,0,0,1,.57-2,3.77,3.77,0,0,1,1.43-1.16,6.16,6.16,0,0,1,1.9-.55,14,14,0,0,1,3.95,0,6.31,6.31,0,0,1,1.89.57,3.71,3.71,0,0,1,1.42,1.18,3.73,3.73,0,0,1,0,3.93,3.77,3.77,0,0,1-1.43,1.16,6.16,6.16,0,0,1-1.9.55,13.76,13.76,0,0,1-2,.14,15.5,15.5,0,0,1-2-.16,6.31,6.31,0,0,1-1.89-.57,3.78,3.78,0,0,1-1.42-1.17A3.27,3.27,0,0,1,251.71,193.8Zm1.06,0a2,2,0,0,0,.48,1.47,3.08,3.08,0,0,0,1.23.81,5.71,5.71,0,0,0,1.57.35c.55.06,1.05.08,1.5.09s.95,0,1.5-.07a6.08,6.08,0,0,0,1.57-.33,3,3,0,0,0,1.24-.81,2.05,2.05,0,0,0,.5-1.46,2,2,0,0,0-.48-1.46,3.21,3.21,0,0,0-1.23-.82,6.09,6.09,0,0,0-1.57-.35c-.55,0-1.05-.08-1.5-.08s-.95,0-1.5.06a6.09,6.09,0,0,0-1.57.34,3,3,0,0,0-1.24.8A2.05,2.05,0,0,0,252.77,193.81Z"/><path d="M257.46,183.79c-.28,0-.55,0-.83,0l-.83.05v-1.14h1.14v0a2.55,2.55,0,0,1-1-1.07,3,3,0,0,1-.32-1.36,3.93,3.93,0,0,1,.06-.65,2.92,2.92,0,0,1,.24-.66,2.14,2.14,0,0,1,.47-.59,2.44,2.44,0,0,1,.79-.47,2.5,2.5,0,0,1-1.13-1,3.07,3.07,0,0,1,.36-3.57,3.15,3.15,0,0,1,2.18-.67l4.75,0v1.06l-4.37,0a3.25,3.25,0,0,0-1.74.39,1.67,1.67,0,0,0-.62,1.49,2,2,0,0,0,.23,1,1.81,1.81,0,0,0,.61.65,2.82,2.82,0,0,0,.87.37,5.47,5.47,0,0,0,1,.12l4,0v1l-4.36,0a3.27,3.27,0,0,0-1.75.39,1.66,1.66,0,0,0-.62,1.49,2.46,2.46,0,0,0,.07.43,1.63,1.63,0,0,0,.34.72,2.55,2.55,0,0,0,.86.67,3.53,3.53,0,0,0,1.6.3l3.84,0v1.06Z"/><path d="M257.54,170.16c-.28,0-.56,0-.83,0l-.84,0v-1.14H257v0a2.49,2.49,0,0,1-1-1.07,3.12,3.12,0,0,1-.33-1.36,3.9,3.9,0,0,1,.07-.65,2.11,2.11,0,0,1,.24-.66,2.34,2.34,0,0,1,.47-.6,2.49,2.49,0,0,1,.79-.46,2.45,2.45,0,0,1-1.13-1,3.07,3.07,0,0,1,.36-3.57,3.12,3.12,0,0,1,2.17-.68l4.75,0v1.06l-4.37,0a3.27,3.27,0,0,0-1.75.39,1.67,1.67,0,0,0-.61,1.49,1.91,1.91,0,0,0,.23,1,1.73,1.73,0,0,0,.61.65,2.63,2.63,0,0,0,.87.37,4.74,4.74,0,0,0,1,.11l4,0v1l-4.37,0a3,3,0,0,0-1.74.39,1.63,1.63,0,0,0-.62,1.48,3.37,3.37,0,0,0,.06.44,1.71,1.71,0,0,0,.35.72,2.68,2.68,0,0,0,.86.67,3.48,3.48,0,0,0,1.6.3l3.84,0v1.06Z"/></g><line class="cls-2" x1="275.91" y1="74.03" x2="276.06" y2="216.68"/><line class="cls-2" x1="277.44" y1="74.03" x2="274.27" y2="74.03"/><line class="cls-2" x1="277.59" y1="216.68" x2="274.42" y2="216.68"/><g class="cls-3"><path d="M286.66,170.43v-.59a3.69,3.69,0,0,0-.1-1,2.25,2.25,0,0,0-.36-.8,1.88,1.88,0,0,0-.64-.54,2.19,2.19,0,0,0-1-.2,1.85,1.85,0,0,0-1.42.54,2.18,2.18,0,0,0-.51,1.54,2.39,2.39,0,0,0,.31,1.27,2.56,2.56,0,0,0,.92.9l-.52,1a3.47,3.47,0,0,1-1.34-1.32,3.72,3.72,0,0,1-.43-1.83,4,4,0,0,1,.2-1.26,3.09,3.09,0,0,1,.57-1,2.74,2.74,0,0,1,.93-.71,2.84,2.84,0,0,1,1.26-.25,2.58,2.58,0,0,1,.88.15,3,3,0,0,1,.75.42,3.1,3.1,0,0,1,.58.62,2.57,2.57,0,0,1,.37.74l0,0a2.41,2.41,0,0,1,.37-.87,2.67,2.67,0,0,1,.65-.69,3,3,0,0,1,.87-.44,3.05,3.05,0,0,1,1-.16,3.42,3.42,0,0,1,1.39.3,3,3,0,0,1,1,.79,3.54,3.54,0,0,1,.62,1.15,4.61,4.61,0,0,1,.21,1.4,4.15,4.15,0,0,1-.56,2.17,3.25,3.25,0,0,1-1.75,1.38l-.36-1.22a2.26,2.26,0,0,0,1.21-.85,2.66,2.66,0,0,0,.4-1.58,2.58,2.58,0,0,0-.15-.92,2.51,2.51,0,0,0-.45-.76,2.18,2.18,0,0,0-.71-.52,2.27,2.27,0,0,0-.91-.18,2.11,2.11,0,0,0-1.08.23,1.94,1.94,0,0,0-.72.64,2.89,2.89,0,0,0-.4.91,4.83,4.83,0,0,0-.12,1.08v.5Z"/><path d="M282.92,157.34l0,4.62,3.41.1a3.21,3.21,0,0,1-.21-.75,5,5,0,0,1-.06-.77,3.94,3.94,0,0,1,.28-1.45,3.43,3.43,0,0,1,.77-1.13,3.7,3.7,0,0,1,1.15-.73,4.17,4.17,0,0,1,2.95,0,3.56,3.56,0,0,1,1.16.81,3.6,3.6,0,0,1,.76,1.21,4.41,4.41,0,0,1,.26,1.52,3.72,3.72,0,0,1-.52,1.93,3.4,3.4,0,0,1-1.52,1.32l-.49-1.16a2.59,2.59,0,0,0,1.07-.88,2.22,2.22,0,0,0,.4-1.32,2.39,2.39,0,0,0-.19-1,2.51,2.51,0,0,0-1.33-1.36,2.54,2.54,0,0,0-1-.2,3,3,0,0,0-1.09.2,2.69,2.69,0,0,0-.86.57,2.57,2.57,0,0,0-.55.88,3.1,3.1,0,0,0-.2,1.12,4.2,4.2,0,0,0,.16,1.21,5.64,5.64,0,0,0,.45,1.14l-5.87-.14,0-5.78Z"/><path d="M281.71,151.43a3.24,3.24,0,0,1,.57-2,3.86,3.86,0,0,1,1.43-1.16,6.76,6.76,0,0,1,1.9-.55,15.29,15.29,0,0,1,2-.13,13.74,13.74,0,0,1,2,.16,6.31,6.31,0,0,1,1.89.57,3.78,3.78,0,0,1,1.42,1.17,3.75,3.75,0,0,1,0,3.94,3.77,3.77,0,0,1-1.43,1.16,6.44,6.44,0,0,1-1.9.55,15.29,15.29,0,0,1-2,.13,13.79,13.79,0,0,1-2-.15,6.31,6.31,0,0,1-1.89-.57,3.9,3.9,0,0,1-1.42-1.18A3.24,3.24,0,0,1,281.71,151.43Zm1.06,0a2,2,0,0,0,.48,1.47,3.21,3.21,0,0,0,1.23.82,6.09,6.09,0,0,0,1.57.35c.55.05,1.05.08,1.5.08s.95,0,1.5-.06a6.09,6.09,0,0,0,1.57-.34,3.13,3.13,0,0,0,1.24-.8,2.07,2.07,0,0,0,.5-1.46,2,2,0,0,0-.48-1.47,3.08,3.08,0,0,0-1.23-.81,5.71,5.71,0,0,0-1.57-.36c-.55,0-1.05-.07-1.5-.08s-.95,0-1.5.07a5.69,5.69,0,0,0-1.57.33,3.13,3.13,0,0,0-1.24.8A2.09,2.09,0,0,0,282.77,151.43Z"/><path d="M287.46,141.41l-.83,0-.83,0v-1.13h1.14v0a2.5,2.5,0,0,1-1-1.07,2.91,2.91,0,0,1-.32-1.35,3.83,3.83,0,0,1,.06-.65,2.61,2.61,0,0,1,.24-.66,2.18,2.18,0,0,1,.47-.6,2.85,2.85,0,0,1,.79-.47,2.42,2.42,0,0,1-1.13-1,2.85,2.85,0,0,1-.41-1.45,2.76,2.76,0,0,1,.77-2.12,3.15,3.15,0,0,1,2.18-.68l4.75,0v1.05l-4.37,0a3.16,3.16,0,0,0-1.74.39,1.65,1.65,0,0,0-.62,1.48,2,2,0,0,0,.23,1,1.9,1.9,0,0,0,.61.65,2.58,2.58,0,0,0,.87.36,4.17,4.17,0,0,0,1,.12l4,0v1.06l-4.36,0a3.09,3.09,0,0,0-1.75.39,1.64,1.64,0,0,0-.62,1.48,2.67,2.67,0,0,0,.07.44,1.59,1.59,0,0,0,.34.71,2.55,2.55,0,0,0,.86.67,3.66,3.66,0,0,0,1.6.31l3.84,0v1.06Z"/><path d="M287.54,127.78l-.83,0-.84,0v-1.13H287v0a2.44,2.44,0,0,1-1-1.07,3.05,3.05,0,0,1-.33-1.35,3.79,3.79,0,0,1,.07-.65A2,2,0,0,1,286,123a2,2,0,0,1,.47-.6,2.51,2.51,0,0,1,.79-.47,2.38,2.38,0,0,1-1.13-1,2.78,2.78,0,0,1-.41-1.45,2.73,2.73,0,0,1,.77-2.12,3.07,3.07,0,0,1,2.17-.68l4.75,0v1l-4.37,0a3.09,3.09,0,0,0-1.75.39,1.65,1.65,0,0,0-.61,1.48,1.92,1.92,0,0,0,.23,1,1.89,1.89,0,0,0,.61.65,2.62,2.62,0,0,0,.87.36,4.17,4.17,0,0,0,1,.12l4,0v1.06l-4.37,0a3.2,3.2,0,0,0-1.74.39,1.65,1.65,0,0,0-.62,1.49,3.61,3.61,0,0,0,.06.44,1.62,1.62,0,0,0,.35.71,2.55,2.55,0,0,0,.86.67,3.6,3.6,0,0,0,1.6.31l3.84,0v1Z"/></g></svg>