<svg id="Ktribe_F3" data-name="Ktribe F3" xmlns="http://www.w3.org/2000/svg" viewBox="0 0 300 263"><defs><style>.cls-1{isolation:isolate;}.cls-2,.cls-3,.cls-4{fill:none;stroke-width:0.5px;}.cls-2{stroke:#000;}.cls-3,.cls-4{stroke:#1d1d1b;}.cls-3{stroke-linecap:round;stroke-linejoin:round;}.cls-4{stroke-miterlimit:3.86;}</style></defs><title>ktribe-floor-3-starck-flos-F6301004-spech-tech-02-300x263</title><g class="cls-1"><path d="M102.4,164.84V166H92.52l1.79,2-.87.72-2.36-2.88v-1Z"/><path d="M96.37,158.53a2.14,2.14,0,0,1-.37.68,2.53,2.53,0,0,1-.59.54,2.73,2.73,0,0,1-.73.35,2.63,2.63,0,0,1-.84.13,2.9,2.9,0,0,1-1.22-.26,3,3,0,0,1-.94-.68,3.27,3.27,0,0,1-.59-1,3.56,3.56,0,0,1-.21-1.22,3.46,3.46,0,0,1,.21-1.21,3.06,3.06,0,0,1,.59-1,2.83,2.83,0,0,1,.94-.69,2.9,2.9,0,0,1,1.22-.26,3,3,0,0,1,.84.13,3.07,3.07,0,0,1,.73.35,2.53,2.53,0,0,1,.59.54,2.25,2.25,0,0,1,.37.68h0a2.74,2.74,0,0,1,1.06-1.54,3.21,3.21,0,0,1,1.92-.57,3.05,3.05,0,0,1,1.33.29,3.38,3.38,0,0,1,1.66,1.92,4.2,4.2,0,0,1,0,2.74,3.3,3.3,0,0,1-1.66,1.92,2.92,2.92,0,0,1-1.33.3,3.21,3.21,0,0,1-1.92-.58,2.71,2.71,0,0,1-1.06-1.54ZM93.94,155a2.11,2.11,0,0,0-.8.16,1.83,1.83,0,0,0-.63.42,2,2,0,0,0-.42.64,2.11,2.11,0,0,0-.15.8,2.07,2.07,0,0,0,.15.8,1.87,1.87,0,0,0,.42.64,2,2,0,0,0,.63.43,2.21,2.21,0,0,0,1.6,0,2,2,0,0,0,.63-.43,1.87,1.87,0,0,0,.42-.64,2.07,2.07,0,0,0,.15-.8,2.11,2.11,0,0,0-.15-.8,2,2,0,0,0-.42-.64,1.83,1.83,0,0,0-.63-.42A2.11,2.11,0,0,0,93.94,155Zm5.28-.41a2.28,2.28,0,0,0-1.66.66,2.24,2.24,0,0,0-.48.77,2.9,2.9,0,0,0,0,2,2.19,2.19,0,0,0,.48.76,2.33,2.33,0,0,0,.74.49,2.57,2.57,0,0,0,1.84,0,2.33,2.33,0,0,0,.74-.49,2.19,2.19,0,0,0,.48-.76,2.9,2.9,0,0,0,0-2,2.24,2.24,0,0,0-.48-.77,2.28,2.28,0,0,0-1.66-.66Z"/><path d="M95.94,149.35v-.59a4.35,4.35,0,0,0-.11-1,2.48,2.48,0,0,0-.36-.79,1.79,1.79,0,0,0-.65-.53,2.06,2.06,0,0,0-1-.2,1.82,1.82,0,0,0-1.42.55,2.23,2.23,0,0,0-.5,1.54,2.49,2.49,0,0,0,.32,1.27,2.42,2.42,0,0,0,.93.89l-.51,1a3.42,3.42,0,0,1-1.36-1.3,3.75,3.75,0,0,1-.44-1.83,4.07,4.07,0,0,1,.2-1.27,3,3,0,0,1,.56-1,2.81,2.81,0,0,1,2.19-1,2.59,2.59,0,0,1,.88.16,2.69,2.69,0,0,1,1.33,1,2.83,2.83,0,0,1,.38.73l0,0a2.64,2.64,0,0,1,.36-.88,2.67,2.67,0,0,1,.65-.69,3.2,3.2,0,0,1,.86-.45,3.1,3.1,0,0,1,1-.16,3.23,3.23,0,0,1,1.39.29,3,3,0,0,1,1,.78,3.57,3.57,0,0,1,.63,1.15,4.61,4.61,0,0,1,.22,1.4,4.24,4.24,0,0,1-.55,2.17,3.3,3.3,0,0,1-1.74,1.4l-.37-1.22a2.37,2.37,0,0,0,1.21-.86,2.79,2.79,0,0,0,.39-1.59,2.53,2.53,0,0,0-.16-.91,2.34,2.34,0,0,0-.46-.76,1.93,1.93,0,0,0-.71-.51,2.28,2.28,0,0,0-.91-.19,2.21,2.21,0,0,0-1.08.24,2.09,2.09,0,0,0-.71.64,2.81,2.81,0,0,0-.39.92,4.83,4.83,0,0,0-.12,1.08v.5Z"/><path d="M90.88,139.27a3.24,3.24,0,0,1,.56-2,3.89,3.89,0,0,1,1.43-1.17,6.7,6.7,0,0,1,1.89-.56,14.07,14.07,0,0,1,4,0,6.7,6.7,0,0,1,1.89.56A3.89,3.89,0,0,1,102,137.3a3.75,3.75,0,0,1,0,3.94,3.89,3.89,0,0,1-1.43,1.17,6.38,6.38,0,0,1-1.89.55,13.14,13.14,0,0,1-4,0,6.38,6.38,0,0,1-1.89-.55,3.89,3.89,0,0,1-1.43-1.17A3.24,3.24,0,0,1,90.88,139.27Zm1.06,0a2,2,0,0,0,.5,1.46,3.08,3.08,0,0,0,1.23.81,5.7,5.7,0,0,0,1.57.34c.55.05,1.05.08,1.5.08s1,0,1.5-.08a5.7,5.7,0,0,0,1.57-.34,3.08,3.08,0,0,0,1.23-.81,2.05,2.05,0,0,0,.5-1.46,2.09,2.09,0,0,0-.5-1.47,3.17,3.17,0,0,0-1.23-.8,6.09,6.09,0,0,0-1.57-.35c-.55,0-1-.07-1.5-.07s-.95,0-1.5.07a6.09,6.09,0,0,0-1.57.35,3.17,3.17,0,0,0-1.23.8A2,2,0,0,0,91.94,139.27Z"/><path d="M96.58,129.22c-.28,0-.56,0-.83,0l-.83.05v-1.13h1.13v0a2.41,2.41,0,0,1-1-1.06,3.07,3.07,0,0,1-.34-1.35,3.79,3.79,0,0,1,.07-.65,2.25,2.25,0,0,1,.23-.66,2,2,0,0,1,.47-.6,2.52,2.52,0,0,1,.79-.48,2.48,2.48,0,0,1-1.14-1,3.07,3.07,0,0,1,.34-3.58,3.12,3.12,0,0,1,2.17-.69h4.75v1.06H98a3.17,3.17,0,0,0-1.75.4,1.67,1.67,0,0,0-.61,1.49,1.87,1.87,0,0,0,.85,1.64,3.07,3.07,0,0,0,.87.36,4.9,4.9,0,0,0,1,.11h4v1.06H98a3.27,3.27,0,0,0-1.75.39,1.68,1.68,0,0,0-.61,1.49,4.26,4.26,0,0,0,.07.44,1.71,1.71,0,0,0,.35.72,2.67,2.67,0,0,0,.86.66,3.53,3.53,0,0,0,1.6.3h3.84v1.05Z"/><path d="M96.58,115.59l-.83,0-.83.06v-1.14h1.13v0a2.41,2.41,0,0,1-1-1.06,3.13,3.13,0,0,1-.34-1.35,3.79,3.79,0,0,1,.07-.65,2.42,2.42,0,0,1,.23-.67,2.34,2.34,0,0,1,.47-.6,2.71,2.71,0,0,1,.79-.47,2.48,2.48,0,0,1-1.14-1,3.07,3.07,0,0,1,.34-3.58,3.12,3.12,0,0,1,2.17-.69h4.75v1.06H98a3.17,3.17,0,0,0-1.75.4,1.65,1.65,0,0,0-.61,1.49,1.91,1.91,0,0,0,.24,1,2,2,0,0,0,.61.65,3.07,3.07,0,0,0,.87.36,4.9,4.9,0,0,0,1,.11h4v1H98a3.26,3.26,0,0,0-1.75.4,1.68,1.68,0,0,0-.61,1.49,4.26,4.26,0,0,0,.07.44,1.62,1.62,0,0,0,.35.71,2.55,2.55,0,0,0,.86.67,3.69,3.69,0,0,0,1.6.29h3.84v1.06Z"/></g><line class="cls-2" x1="112.77" y1="46.68" x2="112.77" y2="217.26"/><line class="cls-2" x1="114.35" y1="46.68" x2="110.98" y2="46.68"/><line class="cls-2" x1="114.53" y1="217.26" x2="110.16" y2="217.26"/><g class="cls-1"><path d="M203.44,91.13V89.5h1.06v1.63h2.69v1.15H204.5v4.9h-1.31l-7.33-4.58V91.13ZM197,92.28v0l6.43,3.91V92.28Z"/><path d="M203.44,82.23V80.6h1.06v1.63h2.69v1.15H204.5v4.9h-1.31l-7.33-4.58V82.23ZM197,83.38v0l6.43,3.9V83.38Z"/><path d="M196.91,72.55v4.63l3.41.08a5,5,0,0,1-.21-.76,4.87,4.87,0,0,1-.06-.76,3.8,3.8,0,0,1,.27-1.46,3.41,3.41,0,0,1,.76-1.13,3.52,3.52,0,0,1,1.15-.73,4,4,0,0,1,3,0,3.53,3.53,0,0,1,1.17.8,3.83,3.83,0,0,1,.76,1.21,4.13,4.13,0,0,1,.27,1.51,3.77,3.77,0,0,1-.51,1.94,3.32,3.32,0,0,1-1.51,1.32l-.49-1.15a2.64,2.64,0,0,0,1.06-.89,2.28,2.28,0,0,0,.39-1.32,2.4,2.4,0,0,0-.2-1,2.48,2.48,0,0,0-.53-.8,2.65,2.65,0,0,0-.8-.55,2.55,2.55,0,0,0-1-.2,2.74,2.74,0,0,0-1.08.21,2.56,2.56,0,0,0-.86.58,2.48,2.48,0,0,0-.55.88,3.1,3.1,0,0,0-.19,1.12,4.57,4.57,0,0,0,.16,1.21,6.32,6.32,0,0,0,.46,1.14l-5.87-.11V72.55Z"/><path d="M201.36,65.5c-.28,0-.55,0-.83,0l-.83.06V64.44h1.13v0a2.56,2.56,0,0,1-1-1.07,3.05,3.05,0,0,1-.33-1.35,3.83,3.83,0,0,1,.06-.65,2.23,2.23,0,0,1,.7-1.26,2.63,2.63,0,0,1,.79-.47,2.45,2.45,0,0,1-1.14-1,2.82,2.82,0,0,1-.41-1.45,2.7,2.7,0,0,1,.76-2.12,3.1,3.1,0,0,1,2.16-.69h4.76v1.05h-4.37a3.26,3.26,0,0,0-1.75.4,1.67,1.67,0,0,0-.6,1.49,1.86,1.86,0,0,0,.23,1,1.81,1.81,0,0,0,.61.65,2.55,2.55,0,0,0,.88.36,4.17,4.17,0,0,0,1,.11h4v1.06h-4.37a3.17,3.17,0,0,0-1.75.4,1.66,1.66,0,0,0-.6,1.49,3.61,3.61,0,0,0,.06.44,1.62,1.62,0,0,0,.35.71,2.37,2.37,0,0,0,.87.66,3.48,3.48,0,0,0,1.6.3h3.84V65.5Z"/><path d="M201.36,51.86c-.28,0-.55,0-.83,0l-.83,0V50.81h1.13v0a2.56,2.56,0,0,1-1-1.07,3.05,3.05,0,0,1-.33-1.35,3.83,3.83,0,0,1,.06-.65,2.25,2.25,0,0,1,.23-.66,2.34,2.34,0,0,1,.47-.6,2.44,2.44,0,0,1,.79-.47,2.56,2.56,0,0,1-1.14-1,2.85,2.85,0,0,1-.41-1.45,2.73,2.73,0,0,1,.76-2.13,3.14,3.14,0,0,1,2.16-.68h4.76v1h-4.37a3.26,3.26,0,0,0-1.75.4,1.67,1.67,0,0,0-.6,1.49,1.86,1.86,0,0,0,.23,1,1.81,1.81,0,0,0,.61.65,2.55,2.55,0,0,0,.88.36,4.17,4.17,0,0,0,1,.11h4v1.06h-4.37a3.17,3.17,0,0,0-1.75.4,1.66,1.66,0,0,0-.6,1.49,3.61,3.61,0,0,0,.06.44,1.67,1.67,0,0,0,.35.71,2.48,2.48,0,0,0,.87.66,3.48,3.48,0,0,0,1.6.3h3.84v1Z"/></g><line class="cls-2" x1="186" y1="47.28" x2="186" y2="89.89"/><line class="cls-2" x1="187.57" y1="47.28" x2="184.2" y2="47.28"/><line class="cls-2" x1="187.75" y1="89.89" x2="183.38" y2="89.89"/><g class="cls-1"><path d="M121.39,21a4,4,0,0,1,.68,1.16,4.44,4.44,0,0,1,0,3,3.73,3.73,0,0,1-2.08,2.07,4.2,4.2,0,0,1-1.61.3,4.15,4.15,0,0,1-1.4-.23,3.72,3.72,0,0,1-1.11-.61l-1.07,1.09-.52-.5,1.06-1.08a3.67,3.67,0,0,1-.69-1.18,4.17,4.17,0,0,1-.24-1.43,4,4,0,0,1,.3-1.57,3.67,3.67,0,0,1,.82-1.25,3.76,3.76,0,0,1,1.26-.82,4.09,4.09,0,0,1,1.59-.3,4.18,4.18,0,0,1,1.39.22,3.65,3.65,0,0,1,1.15.62l1.06-1.09.51.49Zm-1.25.26a2.66,2.66,0,0,0-1.81-.63,3,3,0,0,0-1.18.23,2.7,2.7,0,0,0-.88.64,2.94,2.94,0,0,0-.56.94,3.42,3.42,0,0,0-.2,1.17,2.94,2.94,0,0,0,.55,1.82ZM116.54,26a2.72,2.72,0,0,0,.8.45,3.11,3.11,0,0,0,1,.16,2.8,2.8,0,0,0,1.18-.24,2.54,2.54,0,0,0,.88-.63,2.73,2.73,0,0,0,.57-.94,3.51,3.51,0,0,0,.2-1.17,3.18,3.18,0,0,0-.54-1.83Z"/><path d="M135,17.09h-4.63l-.08,3.41a3.44,3.44,0,0,1,.76-.21,4.87,4.87,0,0,1,.76-.06,3.8,3.8,0,0,1,1.46.27,3.26,3.26,0,0,1,1.13.76,3.42,3.42,0,0,1,.73,1.15,4,4,0,0,1,0,2.94,3.34,3.34,0,0,1-.8,1.17,3.51,3.51,0,0,1-1.21.76,4.14,4.14,0,0,1-1.51.28,3.78,3.78,0,0,1-1.94-.52,3.35,3.35,0,0,1-1.32-1.5l1.15-.5a2.61,2.61,0,0,0,.89,1.07,2.31,2.31,0,0,0,1.33.39,2.55,2.55,0,0,0,1-.2,2.5,2.5,0,0,0,.81-.54A2.68,2.68,0,0,0,134,25a2.54,2.54,0,0,0,.2-1,2.79,2.79,0,0,0-.21-1.09,2.52,2.52,0,0,0-.58-.85,2.35,2.35,0,0,0-.88-.55,3.1,3.1,0,0,0-1.12-.2,4.59,4.59,0,0,0-1.21.17,5.14,5.14,0,0,0-1.14.46l.11-5.88H135Z"/><path d="M143.86,17.09h-4.62l-.08,3.41a3.51,3.51,0,0,1,.75-.21,5,5,0,0,1,.77-.06,3.83,3.83,0,0,1,1.46.27,3.22,3.22,0,0,1,1.12.76,3.45,3.45,0,0,1,.74,1.15,4.14,4.14,0,0,1,0,2.94,3.48,3.48,0,0,1-.8,1.17,3.6,3.6,0,0,1-1.21.76,4.18,4.18,0,0,1-1.51.28,3.75,3.75,0,0,1-1.94-.52,3.31,3.31,0,0,1-1.33-1.5l1.15-.5a2.63,2.63,0,0,0,.9,1.07,2.28,2.28,0,0,0,1.32.39,2.6,2.6,0,0,0,1-.2,2.57,2.57,0,0,0,.8-.54,2.52,2.52,0,0,0,.74-1.79,2.79,2.79,0,0,0-.21-1.09,2.49,2.49,0,0,0-.57-.85,2.43,2.43,0,0,0-.88-.55,3.14,3.14,0,0,0-1.12-.2,4.53,4.53,0,0,0-1.21.17,5.14,5.14,0,0,0-1.14.46l.11-5.88h5.77Z"/><path d="M149.77,15.84a3.24,3.24,0,0,1,2,.56,3.77,3.77,0,0,1,1.16,1.43,6,6,0,0,1,.56,1.89,13.82,13.82,0,0,1,.15,2,13.58,13.58,0,0,1-.15,2,6.17,6.17,0,0,1-.56,1.9A3.66,3.66,0,0,1,151.74,27a3.69,3.69,0,0,1-3.94,0,3.78,3.78,0,0,1-1.17-1.42,6.77,6.77,0,0,1-.56-1.9,15.09,15.09,0,0,1-.14-2,15.36,15.36,0,0,1,.14-2,6.6,6.6,0,0,1,.56-1.89,3.89,3.89,0,0,1,1.17-1.43A3.24,3.24,0,0,1,149.77,15.84Zm0,1.06a2,2,0,0,0-1.47.5,3.17,3.17,0,0,0-.8,1.23,6.11,6.11,0,0,0-.35,1.56c-.05.56-.07,1.06-.07,1.51s0,.95.07,1.5a6.09,6.09,0,0,0,.35,1.57,3.17,3.17,0,0,0,.8,1.23,2.09,2.09,0,0,0,1.47.5,2.05,2.05,0,0,0,1.46-.5,3.08,3.08,0,0,0,.81-1.23,5.7,5.7,0,0,0,.34-1.57c.05-.55.08-1.05.08-1.5s0-.95-.08-1.51a5.71,5.71,0,0,0-.34-1.56,3.08,3.08,0,0,0-.81-1.23A2,2,0,0,0,149.77,16.9Z"/><path d="M159.82,21.54c0-.28,0-.56,0-.83s0-.56,0-.84h1.13V21h0A2.44,2.44,0,0,1,162,20a2.94,2.94,0,0,1,1.35-.34,3.07,3.07,0,0,1,.65.07,2.25,2.25,0,0,1,.66.23,2,2,0,0,1,.6.47,2.28,2.28,0,0,1,.47.78,2.53,2.53,0,0,1,1-1.13,3.07,3.07,0,0,1,3.58.34,3.17,3.17,0,0,1,.68,2.17v4.75h-1V23a3.25,3.25,0,0,0-.4-1.74,1.67,1.67,0,0,0-1.49-.61,2,2,0,0,0-1,.23,1.93,1.93,0,0,0-.65.62,2.8,2.8,0,0,0-.36.87,4.9,4.9,0,0,0-.11,1v4h-1.06V23a3.16,3.16,0,0,0-.4-1.74,1.65,1.65,0,0,0-1.49-.61,2.67,2.67,0,0,0-.44.07,1.67,1.67,0,0,0-.71.35,2.67,2.67,0,0,0-.66.86,3.53,3.53,0,0,0-.3,1.6v3.84h-1.05Z"/><path d="M173.45,21.54c0-.28,0-.56,0-.83s0-.56,0-.84h1.13V21h0a2.41,2.41,0,0,1,1.06-1,2.94,2.94,0,0,1,1.35-.34,3.07,3.07,0,0,1,.65.07,2.25,2.25,0,0,1,.66.23,2,2,0,0,1,.6.47,2.47,2.47,0,0,1,.48.78,2.45,2.45,0,0,1,1-1.13,3.07,3.07,0,0,1,3.58.34,3.12,3.12,0,0,1,.69,2.17v4.75h-1.06V23a3.16,3.16,0,0,0-.4-1.74,1.67,1.67,0,0,0-1.49-.61,2,2,0,0,0-1,.23,1.93,1.93,0,0,0-.65.62,3.07,3.07,0,0,0-.36.87,4.9,4.9,0,0,0-.11,1v4H178.5V23a3.16,3.16,0,0,0-.4-1.74,1.65,1.65,0,0,0-1.48-.61,2.52,2.52,0,0,0-.44.07,1.71,1.71,0,0,0-.72.35,2.67,2.67,0,0,0-.66.86,3.53,3.53,0,0,0-.3,1.6v3.84h-1.05Z"/></g><line class="cls-2" x1="175.2" y1="37.73" x2="124.32" y2="37.73"/><line class="cls-2" x1="175.2" y1="39.31" x2="175.2" y2="35.93"/><line class="cls-2" x1="124.32" y1="39.49" x2="124.32" y2="35.11"/><line class="cls-2" x1="130.04" y1="227.24" x2="166.88" y2="227.62"/><line class="cls-2" x1="130.03" y1="226.05" x2="130" y2="228.43"/><line class="cls-2" x1="166.89" y1="226.43" x2="166.86" y2="228.82"/><g class="cls-1"><path d="M125.92,243.35h1.63v1.06h-1.63v2.69h-1.15V244.4l-4.9,0v-1.31l4.6-7.31h1.47Zm-1.13-6.44h0l-3.93,6.42h3.93Z"/><path d="M132.63,235.6a3.18,3.18,0,0,1,2,.57,3.74,3.74,0,0,1,1.16,1.42,6.16,6.16,0,0,1,.55,1.9,13.76,13.76,0,0,1,.14,2,13.58,13.58,0,0,1-.15,2,6.46,6.46,0,0,1-.57,1.9,3.86,3.86,0,0,1-1.17,1.42,3.24,3.24,0,0,1-2,.55,3.18,3.18,0,0,1-2-.57,3.78,3.78,0,0,1-1.16-1.43,6.38,6.38,0,0,1-.55-1.89,13.59,13.59,0,0,1,0-4,6.4,6.4,0,0,1,.57-1.89,3.86,3.86,0,0,1,1.17-1.42A3.26,3.26,0,0,1,132.63,235.6Zm0,1.05a2.09,2.09,0,0,0-1.47.49,3.08,3.08,0,0,0-.81,1.23,6.19,6.19,0,0,0-.35,1.57c-.05.55-.08,1.06-.08,1.5s0,.95.07,1.51a5.78,5.78,0,0,0,.34,1.57,3.06,3.06,0,0,0,.8,1.23,2.07,2.07,0,0,0,1.46.5,2,2,0,0,0,1.47-.49,3.11,3.11,0,0,0,.81-1.22,6.29,6.29,0,0,0,.35-1.57c.05-.56.08-1.06.08-1.51s0-1-.07-1.5a5.78,5.78,0,0,0-.34-1.57,3.06,3.06,0,0,0-.8-1.23A2.06,2.06,0,0,0,132.63,236.65Z"/><path d="M141.53,235.63a3.24,3.24,0,0,1,2,.57,3.78,3.78,0,0,1,1.16,1.43,6.44,6.44,0,0,1,.55,1.9,15.09,15.09,0,0,1,.14,2,17.47,17.47,0,0,1-.15,2,6.31,6.31,0,0,1-.57,1.89,3.71,3.71,0,0,1-1.18,1.42,3.17,3.17,0,0,1-2,.55,3.21,3.21,0,0,1-2-.56,3.84,3.84,0,0,1-1.16-1.43,6.45,6.45,0,0,1-.56-1.9,14,14,0,0,1,0-3.95,6.46,6.46,0,0,1,.57-1.9,3.94,3.94,0,0,1,1.17-1.42A3.24,3.24,0,0,1,141.53,235.63Zm0,1.06a2.09,2.09,0,0,0-1.47.49,3.08,3.08,0,0,0-.81,1.23,5.72,5.72,0,0,0-.35,1.56c-.05.56-.08,1.06-.08,1.51s0,1,.07,1.5a5.69,5.69,0,0,0,.33,1.57,3.19,3.19,0,0,0,.81,1.24,2.4,2.4,0,0,0,2.92,0,3.21,3.21,0,0,0,.82-1.23,6.09,6.09,0,0,0,.35-1.57c0-.55.07-1.05.07-1.5s0-.95-.06-1.51a6.27,6.27,0,0,0-.34-1.57,3.17,3.17,0,0,0-.8-1.23A2.09,2.09,0,0,0,141.53,236.69Z"/><path d="M151.56,241.37q0-.42,0-.84c0-.27,0-.55-.05-.83h1.14v1.13h0a2.53,2.53,0,0,1,1.06-1,3.12,3.12,0,0,1,1.36-.33,3.68,3.68,0,0,1,.64.07,2.16,2.16,0,0,1,.67.24,2.34,2.34,0,0,1,.6.47,2.44,2.44,0,0,1,.46.78,2.59,2.59,0,0,1,1-1.13,2.87,2.87,0,0,1,1.45-.41,2.77,2.77,0,0,1,2.13.77,3.12,3.12,0,0,1,.68,2.17l0,4.75h-1v-4.37a3.12,3.12,0,0,0-.39-1.74,1.65,1.65,0,0,0-1.49-.62,2,2,0,0,0-1,.23,1.9,1.9,0,0,0-.65.61,2.58,2.58,0,0,0-.36.87,4.31,4.31,0,0,0-.12,1v4h-1.06l0-4.37a3.11,3.11,0,0,0-.4-1.74,1.65,1.65,0,0,0-1.48-.62l-.44.06a1.84,1.84,0,0,0-.72.35,2.53,2.53,0,0,0-.66.86,3.66,3.66,0,0,0-.31,1.6v3.84h-1.06Z"/><path d="M165.19,241.42c0-.28,0-.56,0-.83l-.06-.84h1.14v1.13h0a2.51,2.51,0,0,1,1.06-1,2.87,2.87,0,0,1,1.36-.33,3.83,3.83,0,0,1,.65.06,2.28,2.28,0,0,1,.66.24,2.34,2.34,0,0,1,.6.47,2.71,2.71,0,0,1,.47.79,2.45,2.45,0,0,1,1-1.14,2.82,2.82,0,0,1,1.45-.41,2.74,2.74,0,0,1,2.12.77,3.12,3.12,0,0,1,.68,2.17l0,4.76h-1.05v-4.37a3.06,3.06,0,0,0-.39-1.74,1.66,1.66,0,0,0-1.48-.62,2,2,0,0,0-1,.23,1.93,1.93,0,0,0-.65.62,2.42,2.42,0,0,0-.36.87,4.17,4.17,0,0,0-.12,1v4h-1.06l0-4.37a3.13,3.13,0,0,0-.4-1.74,1.62,1.62,0,0,0-1.48-.61,2.18,2.18,0,0,0-.44.06,1.52,1.52,0,0,0-.71.35,2.45,2.45,0,0,0-.67.86,3.48,3.48,0,0,0-.3,1.6l0,3.84h-1.05Z"/></g><polyline class="cls-3" points="124.48 89.28 175.37 89.28 166.22 48.12 133.64 48.12 124.48 89.28"/><polyline class="cls-3" points="148.29 89.11 148.29 212.74 147.14 216.32 130.49 216.32 130.49 217.24 167.49 217.24 167.49 216.32 150.84 216.32 149.68 212.74 149.68 89.11"/><polyline class="cls-3" points="134.56 47.94 134.92 55.35 136.41 62.62"/><line class="cls-3" x1="136.41" y1="62.62" x2="138.75" y2="68.7"/><polyline class="cls-3" points="138.75 68.7 140.12 71.13 141.78 73.36"/><polyline class="cls-3" points="141.79 73.37 142.93 74.62 144.29 75.64 145.81 76.39 147.44 76.85 149.13 77.01 150.81 76.85 152.45 76.39 153.96 75.64 155.32 74.62 156.47 73.37"/><polyline class="cls-3" points="156.46 73.37 158.76 70.05 160.56 66.44 161.84 62.62"/><line class="cls-3" x1="161.84" y1="62.62" x2="163.31" y2="55.54"/><polyline class="cls-3" points="163.31 55.54 163.69 51.75 163.65 47.94"/><path class="cls-4" d="M134.38,48.1h31.69m-33.13,2.74h33.68m-34.37,2.73h35.07m-35.56,2.74H168.2m-37,2.73h37.3m-37.83,2.73h38.71M130,64.51h39.54m-40,2.73H170M128.89,70h41.66m-42,2.73h42.66m-43.35,2.73h44.16m-44.58,2.74h44.9m-45.69,2.73h46.51m-47.08,2.73H174m-48.88,2.74h49.59m-49.54,2.73h49.26"/></svg>