<svg id="Ktribe_F1" data-name="Ktribe F1" xmlns="http://www.w3.org/2000/svg" viewBox="0 0 300 263"><defs><style>.cls-1{isolation:isolate;}.cls-2,.cls-3,.cls-4{fill:none;stroke-width:0.5px;}.cls-2{stroke:#000;}.cls-3,.cls-4{stroke:#1a171b;}.cls-3{stroke-linecap:round;stroke-linejoin:round;}.cls-4{stroke-miterlimit:3.86;}</style></defs><title>ktribe-floor-1-starck-flos-F6265007-spech-tech-02-300x263-01</title><g class="cls-1"><path d="M106.16,182.61v1.15H96.27l1.79,2-.86.72-2.37-2.88v-1Z"/><path d="M106.16,173.71v1.15H96.27l1.79,2-.86.72-2.37-2.88v-1Z"/><path d="M106.16,162.41v7.2h-1.33l-4.59-4.51c-.17-.17-.35-.34-.55-.51a5.39,5.39,0,0,0-.6-.47,3.56,3.56,0,0,0-.68-.33,2,2,0,0,0-.73-.13,2,2,0,0,0-.83.17,1.74,1.74,0,0,0-.63.47,2.18,2.18,0,0,0-.39.7,2.66,2.66,0,0,0-.14.85,2.28,2.28,0,0,0,.48,1.47,2.2,2.2,0,0,0,1.3.79l-.13,1.21a3.13,3.13,0,0,1-2-1.15,3.54,3.54,0,0,1-.72-2.24,4.59,4.59,0,0,1,.18-1.3,3.61,3.61,0,0,1,.55-1.09,2.92,2.92,0,0,1,.92-.75,2.79,2.79,0,0,1,1.29-.28,3.51,3.51,0,0,1,1.2.2,5,5,0,0,1,1,.52,6.93,6.93,0,0,1,.91.73c.29.27.57.55.85.84l3.53,3.57v-6Z"/><path d="M94.64,157a3.24,3.24,0,0,1,.56-2,3.86,3.86,0,0,1,1.42-1.17,6.45,6.45,0,0,1,1.9-.56,14,14,0,0,1,4,0,6.45,6.45,0,0,1,1.9.56,3.86,3.86,0,0,1,1.42,1.17,3.73,3.73,0,0,1,0,3.93,3.67,3.67,0,0,1-1.42,1.17,6.17,6.17,0,0,1-1.9.56,13.08,13.08,0,0,1-4,0,6.17,6.17,0,0,1-1.9-.56A3.67,3.67,0,0,1,95.2,159,3.21,3.21,0,0,1,94.64,157Zm1,0a2.07,2.07,0,0,0,.5,1.46,3.08,3.08,0,0,0,1.23.81,5.78,5.78,0,0,0,1.57.34c.55,0,1.06.07,1.5.07s1,0,1.51-.07a5.78,5.78,0,0,0,1.57-.34,3.08,3.08,0,0,0,1.23-.81,2.06,2.06,0,0,0,.49-1.46,2.09,2.09,0,0,0-.49-1.47,3.3,3.3,0,0,0-1.23-.81,6.18,6.18,0,0,0-1.57-.34c-.56,0-1.06-.07-1.51-.07s-.95,0-1.5.07a6.18,6.18,0,0,0-1.57.34,3.3,3.3,0,0,0-1.23.81A2.09,2.09,0,0,0,95.69,157Z"/><path d="M100.33,147l-.83,0-.83.06v-1.14h1.14v0a2.55,2.55,0,0,1-1-1.06,3.12,3.12,0,0,1-.33-1.36,3.72,3.72,0,0,1,.06-.64,2.42,2.42,0,0,1,.23-.67,2.39,2.39,0,0,1,.48-.6,2.65,2.65,0,0,1,.78-.47,2.45,2.45,0,0,1-1.14-1,2.81,2.81,0,0,1-.41-1.44,2.73,2.73,0,0,1,.76-2.13,3.12,3.12,0,0,1,2.17-.69h4.75v1.06h-4.37a3.11,3.11,0,0,0-1.74.4,1.62,1.62,0,0,0-.61,1.48,2,2,0,0,0,.23,1,1.9,1.9,0,0,0,.62.64,2.42,2.42,0,0,0,.87.36,4.17,4.17,0,0,0,1,.12h4v1.05h-4.37a3.2,3.2,0,0,0-1.74.4,1.65,1.65,0,0,0-.61,1.49,3.61,3.61,0,0,0,.06.44,1.62,1.62,0,0,0,.35.71,2.6,2.6,0,0,0,.87.67,3.66,3.66,0,0,0,1.6.29h3.84V147Z"/><path d="M100.33,133.36l-.83,0-.83.06V132.3h1.14v0a2.52,2.52,0,0,1-1-1.07,3.05,3.05,0,0,1-.33-1.35,3.83,3.83,0,0,1,.06-.65,2.36,2.36,0,0,1,.23-.66,2.39,2.39,0,0,1,.48-.6,2.45,2.45,0,0,1,.78-.47,2.45,2.45,0,0,1-1.14-1,2.82,2.82,0,0,1-.41-1.45,2.7,2.7,0,0,1,.76-2.12,3.12,3.12,0,0,1,2.17-.69h4.75v1h-4.37a3.11,3.11,0,0,0-1.74.41,1.62,1.62,0,0,0-.61,1.48,2,2,0,0,0,.23,1,1.84,1.84,0,0,0,.62.65,2.42,2.42,0,0,0,.87.36,4.17,4.17,0,0,0,1,.11h4v1.06h-4.37a3.11,3.11,0,0,0-1.74.4,1.64,1.64,0,0,0-.61,1.49,3.61,3.61,0,0,0,.06.44,1.62,1.62,0,0,0,.35.71,2.46,2.46,0,0,0,.87.66,3.51,3.51,0,0,0,1.6.3h3.84v1.06Z"/></g><line class="cls-2" x1="116.53" y1="91.79" x2="116.53" y2="217.26"/><line class="cls-2" x1="118.1" y1="91.79" x2="114.73" y2="91.79"/><line class="cls-2" x1="118.28" y1="217.26" x2="113.91" y2="217.26"/><g class="cls-1"><path d="M210.38,125.94v1.15h-9.89l1.79,2-.86.72L199.05,127v-1Z"/><path d="M204.35,119.63a2.28,2.28,0,0,1-.38.68,2.48,2.48,0,0,1-.58.54,3.14,3.14,0,0,1-.74.35,2.87,2.87,0,0,1-3-.82,3,3,0,0,1-.59-1,3.46,3.46,0,0,1-.21-1.21,3.56,3.56,0,0,1,.21-1.22,2.94,2.94,0,0,1,.59-1,2.87,2.87,0,0,1,2.16-1,2.53,2.53,0,0,1,.83.13,2.79,2.79,0,0,1,.74.35,2.48,2.48,0,0,1,.58.54,2.16,2.16,0,0,1,.38.68h0a2.69,2.69,0,0,1,1.06-1.54,3.21,3.21,0,0,1,1.92-.58,2.85,2.85,0,0,1,1.32.3,3.3,3.3,0,0,1,1,.78,3.56,3.56,0,0,1,.65,1.14,4.14,4.14,0,0,1,.22,1.37,4.18,4.18,0,0,1-.22,1.37,3.41,3.41,0,0,1-.65,1.13,3.18,3.18,0,0,1-1,.79,3,3,0,0,1-1.32.29,3.21,3.21,0,0,1-1.92-.57,2.69,2.69,0,0,1-1.06-1.54Zm-2.43-3.49a2,2,0,0,0-1.44.58,2,2,0,0,0-.41.64,2.07,2.07,0,0,0-.15.8,2.06,2.06,0,0,0,.56,1.44,1.87,1.87,0,0,0,.64.42,2.07,2.07,0,0,0,.8.15,2.15,2.15,0,0,0,.8-.15,1.93,1.93,0,0,0,.63-.42,2.13,2.13,0,0,0,.41-.64,1.94,1.94,0,0,0,.16-.8,1.91,1.91,0,0,0-.16-.8,2,2,0,0,0-.41-.64,1.92,1.92,0,0,0-1.43-.58Zm5.28-.41a2.51,2.51,0,0,0-.92.17,2.22,2.22,0,0,0-.74.49,2.16,2.16,0,0,0-.49.77,3.06,3.06,0,0,0,0,2,2.21,2.21,0,0,0,.49.76,2.39,2.39,0,0,0,.74.49,2.51,2.51,0,0,0,.92.17,2.55,2.55,0,0,0,.92-.17,2.46,2.46,0,0,0,.73-.49,2.21,2.21,0,0,0,.49-.76,2.9,2.9,0,0,0,0-2,2.16,2.16,0,0,0-.49-.77,2.29,2.29,0,0,0-.73-.49A2.55,2.55,0,0,0,207.2,115.73Z"/><path d="M200.11,106.13l10.27,4.56V112l-10.27-4.65v5.52h-1.06v-6.72Z"/><path d="M204.56,99.22c-.28,0-.56,0-.84,0l-.83.06V98.16H204v0a2.44,2.44,0,0,1-1-1.07,2.94,2.94,0,0,1-.34-1.35,3.83,3.83,0,0,1,.06-.65,2.28,2.28,0,0,1,.24-.66,2.34,2.34,0,0,1,.47-.6,2.45,2.45,0,0,1,.78-.47,2.43,2.43,0,0,1-1.13-1,2.76,2.76,0,0,1-.42-1.45,2.69,2.69,0,0,1,.76-2.12,3.12,3.12,0,0,1,2.17-.69h4.75v1H206a3.2,3.2,0,0,0-1.74.4,1.65,1.65,0,0,0-.61,1.49,2,2,0,0,0,.23,1,1.84,1.84,0,0,0,.62.65,2.42,2.42,0,0,0,.87.36,4.25,4.25,0,0,0,1,.11h4v1.06H206a3.11,3.11,0,0,0-1.74.4,1.64,1.64,0,0,0-.61,1.49,3.61,3.61,0,0,0,.06.44,1.71,1.71,0,0,0,.36.71,2.53,2.53,0,0,0,.86.66,3.51,3.51,0,0,0,1.6.3h3.84v1.06Z"/><path d="M204.56,85.58q-.42,0-.84,0l-.83,0V84.53H204v0a2.49,2.49,0,0,1-1-1.07,2.94,2.94,0,0,1-.34-1.35,3.83,3.83,0,0,1,.06-.65,2.28,2.28,0,0,1,.24-.66,2,2,0,0,1,.47-.6,2.28,2.28,0,0,1,.78-.47,2.48,2.48,0,0,1-1.13-1,2.76,2.76,0,0,1-.42-1.45,2.73,2.73,0,0,1,.76-2.13,3.17,3.17,0,0,1,2.17-.68h4.75v1H206a3.11,3.11,0,0,0-1.74.4,1.64,1.64,0,0,0-.61,1.49,2,2,0,0,0,.23,1,1.93,1.93,0,0,0,.62.65,2.62,2.62,0,0,0,.87.36,4.83,4.83,0,0,0,1,.11h4v1.06H206a3.11,3.11,0,0,0-1.74.4,1.63,1.63,0,0,0-.61,1.49,3.61,3.61,0,0,0,.06.44,1.77,1.77,0,0,0,.36.71,2.67,2.67,0,0,0,.86.66,3.51,3.51,0,0,0,1.6.3h3.84v1Z"/></g><line class="cls-2" x1="189.19" y1="91.89" x2="189.19" y2="112.72"/><line class="cls-2" x1="190.77" y1="91.89" x2="187.39" y2="91.89"/><line class="cls-2" x1="190.95" y1="112.72" x2="186.57" y2="112.72"/><g class="cls-1"><path d="M137.54,66.48a3.57,3.57,0,0,1,.68,1.15,4.29,4.29,0,0,1-.05,3,3.68,3.68,0,0,1-2.07,2.07,4.23,4.23,0,0,1-1.61.3,4.15,4.15,0,0,1-1.4-.23,3.59,3.59,0,0,1-1.11-.6l-1.08,1.09-.51-.5,1.06-1.09a3.62,3.62,0,0,1-.69-1.17,4.27,4.27,0,0,1-.24-1.44,4.2,4.2,0,0,1,.29-1.56,3.85,3.85,0,0,1,.83-1.25,3.79,3.79,0,0,1,1.26-.83,4.29,4.29,0,0,1,1.59-.29,4.45,4.45,0,0,1,1.39.21A3.86,3.86,0,0,1,137,66l1.06-1.09.51.5Zm-1.25.25a2.68,2.68,0,0,0-1.8-.62,2.79,2.79,0,0,0-1.18.23,2.57,2.57,0,0,0-.88.63,2.81,2.81,0,0,0-.56,1,3.41,3.41,0,0,0-.2,1.16,3,3,0,0,0,.54,1.83Zm-3.6,4.72a2.91,2.91,0,0,0,.81.45,2.78,2.78,0,0,0,1,.16,2.91,2.91,0,0,0,1.17-.23,2.67,2.67,0,0,0,1.46-1.58,3.42,3.42,0,0,0,.2-1.17,3.06,3.06,0,0,0-.55-1.82Z"/><path d="M151.65,72.83h-7.2V71.5L149,66.91c.17-.17.34-.36.51-.55a4.64,4.64,0,0,0,.46-.61,3.25,3.25,0,0,0,.34-.67,2.24,2.24,0,0,0,.13-.73,2,2,0,0,0-.17-.83,1.74,1.74,0,0,0-.47-.63,2.23,2.23,0,0,0-.71-.39,2.61,2.61,0,0,0-.85-.14,2.32,2.32,0,0,0-1.47.48,2.2,2.2,0,0,0-.78,1.3L144.74,64a3.18,3.18,0,0,1,1.16-2,3.53,3.53,0,0,1,2.23-.72,4.66,4.66,0,0,1,1.31.18,3.39,3.39,0,0,1,1.09.55,2.81,2.81,0,0,1,.75.92,2.92,2.92,0,0,1,.28,1.29,3.51,3.51,0,0,1-.2,1.2,5,5,0,0,1-.52,1,8.82,8.82,0,0,1-.73.91c-.27.28-.55.57-.84.85l-3.57,3.53h6Z"/><path d="M159.24,69.08h1.63v1.06h-1.63v2.69h-1.15V70.14h-4.9V68.83l4.58-7.33h1.47Zm-1.15-6.43h0l-3.91,6.43h3.94Z"/><path d="M165.93,61.31a3.14,3.14,0,0,1,2,.56,3.6,3.6,0,0,1,1.17,1.42,6.17,6.17,0,0,1,.56,1.9,13.58,13.58,0,0,1,.15,2,13.82,13.82,0,0,1-.15,2,6.17,6.17,0,0,1-.56,1.9,3.67,3.67,0,0,1-1.17,1.42,3.73,3.73,0,0,1-3.93,0A3.86,3.86,0,0,1,162.79,71a6.45,6.45,0,0,1-.56-1.9,13.76,13.76,0,0,1-.14-2,13.53,13.53,0,0,1,.14-2,6.45,6.45,0,0,1,.56-1.9A3.78,3.78,0,0,1,164,61.87,3.17,3.17,0,0,1,165.93,61.31Zm0,1a2.09,2.09,0,0,0-1.47.5,3.3,3.3,0,0,0-.81,1.23,6.09,6.09,0,0,0-.34,1.57c-.05.55-.07,1-.07,1.5s0,1,.07,1.51a6.18,6.18,0,0,0,.34,1.57,3.3,3.3,0,0,0,.81,1.23,2.44,2.44,0,0,0,2.93,0,3.08,3.08,0,0,0,.81-1.23,5.78,5.78,0,0,0,.34-1.57c.05-.56.08-1.06.08-1.51s0-1-.08-1.5a5.7,5.7,0,0,0-.34-1.57,3.08,3.08,0,0,0-.81-1.23A2.09,2.09,0,0,0,165.93,62.36Z"/><path d="M176,67c0-.27,0-.55,0-.83s0-.55-.06-.83H177v1.14h0a2.52,2.52,0,0,1,1.07-1,3.05,3.05,0,0,1,1.35-.33,3.83,3.83,0,0,1,.65.06,2.25,2.25,0,0,1,.66.23,2.19,2.19,0,0,1,.6.48,2.28,2.28,0,0,1,.47.78,2.56,2.56,0,0,1,1-1.14,2.85,2.85,0,0,1,1.45-.41,2.73,2.73,0,0,1,2.13.76,3.15,3.15,0,0,1,.68,2.17v4.75h-1V68.46a3.26,3.26,0,0,0-.4-1.75,1.67,1.67,0,0,0-1.49-.6,1.86,1.86,0,0,0-1,.23,1.76,1.76,0,0,0-.65.62,2.42,2.42,0,0,0-.36.87,4.17,4.17,0,0,0-.11,1v4H181V68.46a3.17,3.17,0,0,0-.4-1.75,1.66,1.66,0,0,0-1.49-.6l-.44.06a1.67,1.67,0,0,0-.71.35,2.48,2.48,0,0,0-.66.87A3.48,3.48,0,0,0,177,69v3.84H176Z"/><path d="M189.61,67c0-.27,0-.55,0-.83s0-.55-.05-.83h1.13v1.14h0a2.5,2.5,0,0,1,1.06-1,3.05,3.05,0,0,1,1.35-.33,3.83,3.83,0,0,1,.65.06,2.25,2.25,0,0,1,.66.23,1.93,1.93,0,0,1,.6.48,2.47,2.47,0,0,1,.48.78,2.48,2.48,0,0,1,1-1.14,2.85,2.85,0,0,1,1.45-.41,2.73,2.73,0,0,1,2.13.76,3.15,3.15,0,0,1,.68,2.17v4.75h-1.05V68.46a3.26,3.26,0,0,0-.4-1.75,1.66,1.66,0,0,0-1.49-.6,1.91,1.91,0,0,0-1,.23,1.84,1.84,0,0,0-.65.62,2.84,2.84,0,0,0-.36.87,4.74,4.74,0,0,0-.11,1v4h-1.06V68.46a3.17,3.17,0,0,0-.4-1.75,1.65,1.65,0,0,0-1.49-.6l-.44.06a1.73,1.73,0,0,0-.71.35,2.61,2.61,0,0,0-.66.87,3.48,3.48,0,0,0-.3,1.6v3.84h-1Z"/></g><line class="cls-2" x1="179.25" y1="83.2" x2="152.59" y2="83.2"/><line class="cls-2" x1="179.25" y1="84.77" x2="179.25" y2="81.4"/><line class="cls-2" x1="152.59" y1="84.95" x2="152.59" y2="80.58"/><line class="cls-2" x1="126.62" y1="226.35" x2="155.87" y2="226.65"/><line class="cls-2" x1="126.61" y1="225.65" x2="126.59" y2="227.04"/><line class="cls-2" x1="155.88" y1="225.96" x2="155.86" y2="227.35"/><g class="cls-1"><path d="M120,247.1l-7.2,0v-1.33l4.53-4.57c.17-.17.34-.35.51-.55a5.39,5.39,0,0,0,.47-.6,3,3,0,0,0,.33-.67,2.31,2.31,0,0,0,.14-.74,2,2,0,0,0-.17-.83,1.83,1.83,0,0,0-.47-.63,2.08,2.08,0,0,0-.7-.39,2.66,2.66,0,0,0-.85-.14,2.35,2.35,0,0,0-1.47.47,2.17,2.17,0,0,0-.79,1.3l-1.22-.14a3.19,3.19,0,0,1,1.17-2,3.54,3.54,0,0,1,2.24-.72,5,5,0,0,1,1.3.19,3.26,3.26,0,0,1,1.08.56,2.58,2.58,0,0,1,.75.92,2.79,2.79,0,0,1,.28,1.29,3.29,3.29,0,0,1-.21,1.2,4.9,4.9,0,0,1-.52,1,7.1,7.1,0,0,1-.73.91c-.27.29-.56.57-.84.85L114.05,246l6,0Z"/><path d="M128.41,236.86l-4.63,0-.09,3.41a3.51,3.51,0,0,1,.75-.21,5.09,5.09,0,0,1,.77-.06,3.8,3.8,0,0,1,1.46.28,3.37,3.37,0,0,1,1.12.76,3.32,3.32,0,0,1,.73,1.16,4.07,4.07,0,0,1,0,2.94,3.56,3.56,0,0,1-.81,1.17,3.64,3.64,0,0,1-1.21.75,4.13,4.13,0,0,1-1.51.27,3.72,3.72,0,0,1-1.93-.52,3.34,3.34,0,0,1-1.33-1.51l1.16-.49a2.67,2.67,0,0,0,.89,1.07,2.28,2.28,0,0,0,1.32.39,2.51,2.51,0,0,0,1-.19,2.67,2.67,0,0,0,.81-.54,2.61,2.61,0,0,0,.55-.79,2.54,2.54,0,0,0,.2-1,2.94,2.94,0,0,0-.2-1.09,2.57,2.57,0,0,0-1.45-1.42,3.18,3.18,0,0,0-1.12-.19,4.15,4.15,0,0,0-1.21.16,6,6,0,0,0-1.15.45l.14-5.87,5.77,0Z"/><path d="M134.32,235.63a3.21,3.21,0,0,1,2,.57,3.81,3.81,0,0,1,1.17,1.43,6.76,6.76,0,0,1,.55,1.9,13.48,13.48,0,0,1,.13,2,13.82,13.82,0,0,1-.15,2,6.3,6.3,0,0,1-.56,1.89,3.71,3.71,0,0,1-1.18,1.42,3.17,3.17,0,0,1-2,.55,3.21,3.21,0,0,1-2-.56,4,4,0,0,1-1.17-1.43,6.44,6.44,0,0,1-.55-1.9,13.08,13.08,0,0,1,0-3.95,6.45,6.45,0,0,1,.56-1.9,3.86,3.86,0,0,1,1.18-1.42A3.24,3.24,0,0,1,134.32,235.63Zm0,1.06a2.06,2.06,0,0,0-1.46.49,3.21,3.21,0,0,0-.82,1.23,6.11,6.11,0,0,0-.35,1.56c-.05.56-.07,1.06-.07,1.51s0,1,.06,1.5a6.09,6.09,0,0,0,.34,1.57,3.28,3.28,0,0,0,.8,1.24,2.09,2.09,0,0,0,1.47.5,2.06,2.06,0,0,0,1.46-.49,3.21,3.21,0,0,0,.82-1.23,6.54,6.54,0,0,0,.35-1.57c.05-.55.07-1.05.07-1.5s0-.95-.06-1.51a6.27,6.27,0,0,0-.34-1.57,3.17,3.17,0,0,0-.8-1.23A2.09,2.09,0,0,0,134.31,236.69Z"/><path d="M144.34,241.37c0-.28,0-.56,0-.84s0-.55,0-.83h1.14v1.13h0a2.62,2.62,0,0,1,1.07-1,3.12,3.12,0,0,1,1.35-.33,3.79,3.79,0,0,1,.65.07,2.24,2.24,0,0,1,1.26.71,2.28,2.28,0,0,1,.47.78,2.59,2.59,0,0,1,1-1.13,2.87,2.87,0,0,1,1.45-.41,2.77,2.77,0,0,1,2.13.77,3.17,3.17,0,0,1,.68,2.17l0,4.75h-1.06l0-4.37a3.2,3.2,0,0,0-.39-1.74,1.65,1.65,0,0,0-1.49-.62,2,2,0,0,0-1,.23,1.81,1.81,0,0,0-.65.61,2.82,2.82,0,0,0-.37.87,4.9,4.9,0,0,0-.11,1l0,4h-1.05v-4.37a3,3,0,0,0-.39-1.74,1.67,1.67,0,0,0-1.49-.62l-.44.06a1.8,1.8,0,0,0-.71.35,2.55,2.55,0,0,0-.67.86,3.68,3.68,0,0,0-.3,1.6v3.84h-1.06Z"/><path d="M158,241.42c0-.28,0-.56,0-.83s0-.56,0-.84H159v1.13h0a2.45,2.45,0,0,1,1.06-1,2.87,2.87,0,0,1,1.36-.33,3.63,3.63,0,0,1,.64.06,2.45,2.45,0,0,1,.67.24,2.34,2.34,0,0,1,.6.47,2.49,2.49,0,0,1,.46.79,2.56,2.56,0,0,1,1-1.14,2.87,2.87,0,0,1,1.45-.41,2.77,2.77,0,0,1,2.13.77,3.12,3.12,0,0,1,.68,2.17l0,4.76h-1.06l0-4.37a3.23,3.23,0,0,0-.39-1.74,1.67,1.67,0,0,0-1.49-.62,2,2,0,0,0-1,.23,1.93,1.93,0,0,0-.65.62,2.42,2.42,0,0,0-.36.87,4.17,4.17,0,0,0-.12,1v4H163l0-4.37a3.13,3.13,0,0,0-.4-1.74,1.62,1.62,0,0,0-1.48-.61,2.18,2.18,0,0,0-.44.06,1.6,1.6,0,0,0-.72.35,2.44,2.44,0,0,0-.66.86,3.6,3.6,0,0,0-.31,1.6v3.84H158Z"/></g><polyline class="cls-3" points="174.11 91.79 158.44 91.79 152.84 113.06 179.71 113.06 174.11 91.79"/><polyline class="cls-3" points="166.84 113.06 166.84 124.31 165.72 124.31 165.72 120.4 141.09 120.4 141.09 212.39 142.2 216.12 154.52 216.12 154.52 217.24 126.53 217.24 126.53 216.12 138.85 216.12 139.97 212.39 139.97 119.28 165.72 119.28 165.72 113.06"/><polyline class="cls-3" points="173.48 91.79 173.32 96.08 172.58 100.3"/><line class="cls-3" x1="172.58" y1="100.3" x2="171.42" y2="103.78"/><polyline class="cls-3" points="171.42 103.78 170.75 105.16 169.92 106.45"/><polyline class="cls-3" points="169.92 106.45 169.51 107.07 169 107.61 168.4 108.05 167.73 108.38 167.02 108.57 166.28 108.64 165.54 108.57 164.82 108.38 164.15 108.05 163.56 107.61 163.04 107.07 162.64 106.45"/><polyline class="cls-3" points="162.64 106.45 161.01 103.5 159.97 100.3"/><line class="cls-3" x1="159.97" y1="100.3" x2="159.25" y2="96.25"/><polyline class="cls-3" points="159.25 96.25 159.06 94.02 159.12 91.79"/><path class="cls-4" d="M174.11,91.79h-16m16.68,1.42h-17m17.3,1.42H157.53m17.9,1.42H157.09m18.65,1.41H157m19,1.42H156.52m19.78,1.42H156.39m20.11,1.42H156.19m20.69,1.42h-21M177,104.56H155.55M177.38,106H155.14m22.45,1.42H155m23,1.42H154.58m23.7,1.42H154.16m24.93,1.42H153.46m25.29,1.41H153.94"/></svg>