<svg id="KTRIBE_S1" data-name="KTRIBE S1" xmlns="http://www.w3.org/2000/svg" viewBox="0 0 300 263"><defs><style>.cls-1{isolation:isolate;font-size:16px;font-family:Avenir-Book, Avenir;}.cls-2,.cls-3,.cls-4{fill:none;stroke:#000;stroke-width:0.5px;}.cls-3{stroke-linecap:round;stroke-linejoin:round;}.cls-4{stroke-miterlimit:3.86;}</style></defs><title>ktribe-suspension-1-starck-flos-F6256000-spech-tech-02-300x263</title><text class="cls-1" transform="translate(113.38 205.5)">ø 240 mm</text><line class="cls-2" x1="117.08" y1="185.69" x2="183.97" y2="185.69"/><line class="cls-2" x1="117.08" y1="185.58" x2="117.08" y2="185.8"/><line class="cls-2" x1="183.97" y1="185.58" x2="183.97" y2="185.8"/><line class="cls-2" x1="117.08" y1="184.73" x2="117.08" y2="186.66"/><line class="cls-2" x1="183.97" y1="184.73" x2="183.97" y2="186.66"/><text class="cls-1" transform="translate(97.81 181.63) rotate(-90)">187 mm</text><text class="cls-1" transform="translate(97.81 114.55) rotate(-90)">4000 mm</text><line class="cls-2" x1="107.71" y1="176.39" x2="107.71" y2="124.19"/><line class="cls-2" x1="105.86" y1="124.17" x2="109.41" y2="124.17"/><line class="cls-2" x1="105.18" y1="176.39" x2="110.23" y2="176.39"/><line class="cls-2" x1="107.71" y1="124.17" x2="107.71" y2="47.05"/><line class="cls-2" x1="105.86" y1="47.03" x2="109.41" y2="47.03"/><line class="cls-2" x1="105.18" y1="124.17" x2="110.23" y2="124.17"/><line class="cls-3" x1="148.54" y1="125.78" x2="148.54" y2="47.02"/><polyline class="cls-3" points="131.85 125.77 132.3 134.83 134.12 143.73"/><line class="cls-3" x1="134.12" y1="143.73" x2="136.97" y2="151.17"/><polyline class="cls-3" points="136.97 151.17 138.66 154.14 140.69 156.87"/><polyline class="cls-3" points="140.69 156.87 142.09 158.41 143.75 159.65 145.61 160.58 147.61 161.14 149.67 161.33 151.74 161.14 153.74 160.58 155.59 159.65 157.25 158.41 158.65 156.87"/><polyline class="cls-3" points="158.65 156.87 161.45 152.82 163.66 148.4 165.22 143.73"/><line class="cls-3" x1="165.23" y1="143.73" x2="167.02" y2="135.06"/><polyline class="cls-3" points="167.02 135.07 167.49 130.43 167.44 125.77"/><path class="cls-4" d="M129.15,128.06H169m-40.11,2.67h40.78M128,133.4h42.45m-43,2.67h44.1m-44.85,2.67h45.16m-45.8,2.67h46.86m-47.56,2.67h47.87m-48.37,2.67h48.86M124,149.42H174.4m-50.81,2.66h51.65m-52.49,2.68h53.48m-54,2.67h54.35m-55.32,2.66H177.6m-57,2.67h58m-58.49,2.67h58.65m-59.27,2.67h59.65m-60.44,2.68H180m-62.06,2.66h62.82"/><polygon class="cls-4" points="129.86 125.83 168.69 125.83 181.72 176.39 117.08 176.39 129.86 125.83"/></svg>