<svg id="Lightspring_single" xmlns="http://www.w3.org/2000/svg" xmlns:xlink="http://www.w3.org/1999/xlink" viewBox="0 0 300 263"><defs><style>.cls-1,.cls-2,.cls-5{fill:none;}.cls-2{stroke:#000;}.cls-2,.cls-5{stroke-width:0.5px;}.cls-3{isolation:isolate;}.cls-4{clip-path:url(#clip-path);}.cls-5{stroke:#1a171b;stroke-linecap:round;stroke-linejoin:round;}</style><clipPath id="clip-path"><rect class="cls-1" x="94.75" y="46.52" width="107.42" height="132.36"/></clipPath></defs><title>lightspring-single-ceiling-wall-gilad-flos-F3343009-spech-tech-02-300x263-01</title><line class="cls-2" x1="199.56" y1="38.69" x2="182.98" y2="38.69"/><line class="cls-2" x1="199.56" y1="39.02" x2="199.56" y2="38.33"/><line class="cls-2" x1="182.98" y1="39.02" x2="182.98" y2="38.33"/><g class="cls-3"><path d="M165.49,25.41l0,0a2.06,2.06,0,0,1-.73.28,3.69,3.69,0,0,1-.84.1,3.63,3.63,0,0,1-1.37-.26,3.31,3.31,0,0,1-1.09-.73,3.25,3.25,0,0,1-.73-1.11,3.53,3.53,0,0,1-.27-1.4,3.48,3.48,0,0,1,.28-1.43,3.24,3.24,0,0,1,.76-1.1,3.49,3.49,0,0,1,1.17-.72,4.31,4.31,0,0,1,3,0,3.54,3.54,0,0,1,1.16.72,3.27,3.27,0,0,1,.77,1.1,3.64,3.64,0,0,1,.27,1.43,4.3,4.3,0,0,1-.28,1.64,9.55,9.55,0,0,1-.69,1.4l-3.06,5H162.4Zm1.15-3.15a2.66,2.66,0,0,0-.18-1,2.39,2.39,0,0,0-.52-.76,2.55,2.55,0,0,0-.8-.51,3,3,0,0,0-2,0,2.44,2.44,0,0,0-.8.51,2.24,2.24,0,0,0-.52.76,2.84,2.84,0,0,0,0,2,2.18,2.18,0,0,0,.52.77,2.29,2.29,0,0,0,.8.51,3.18,3.18,0,0,0,2,0,2.38,2.38,0,0,0,.8-.51,2.33,2.33,0,0,0,.52-.77A2.64,2.64,0,0,0,166.64,22.26Z"/><path d="M176,20h-4.62l-.08,3.41a3.21,3.21,0,0,1,.75-.21,5,5,0,0,1,.77-.06,3.75,3.75,0,0,1,1.45.27,3.17,3.17,0,0,1,1.13.76,3.45,3.45,0,0,1,.74,1.15,4,4,0,0,1,.26,1.45,3.64,3.64,0,0,1-.29,1.49,3.34,3.34,0,0,1-.8,1.17,3.56,3.56,0,0,1-1.2.76,4.19,4.19,0,0,1-1.52.27,3.71,3.71,0,0,1-1.93-.51,3.31,3.31,0,0,1-1.33-1.5l1.15-.5a2.62,2.62,0,0,0,.9,1.07,2.28,2.28,0,0,0,1.32.39,2.55,2.55,0,0,0,1-.2,2.5,2.5,0,0,0,.81-.54,2.36,2.36,0,0,0,.54-.8,2.54,2.54,0,0,0,.2-1,2.79,2.79,0,0,0-.21-1.09,2.52,2.52,0,0,0-.58-.85,2.46,2.46,0,0,0-.87-.56,3.43,3.43,0,0,0-1.13-.19,4.52,4.52,0,0,0-1.2.17,5.42,5.42,0,0,0-1.15.46l.12-5.88H176Z"/><path d="M179.55,32.51H178.5l1.07-3.76h1.3Z"/><path d="M189.49,20l-4.56,10.27h-1.3L188.29,20h-5.52V18.94h6.72Z"/><path d="M196.4,24.45c0-.28,0-.56,0-.83l-.06-.84h1.14v1.14h0a2.47,2.47,0,0,1,1.06-1,2.91,2.91,0,0,1,2-.27,2.42,2.42,0,0,1,.67.23,2.34,2.34,0,0,1,.6.47,2.65,2.65,0,0,1,.47.78,2.42,2.42,0,0,1,1-1.13,2.73,2.73,0,0,1,1.44-.42,2.76,2.76,0,0,1,2.13.76,3.12,3.12,0,0,1,.69,2.17v4.75h-1.06V25.9a3.16,3.16,0,0,0-.4-1.74,1.63,1.63,0,0,0-1.49-.61,2,2,0,0,0-1,.23,1.9,1.9,0,0,0-.64.62,2.82,2.82,0,0,0-.37.87,4.9,4.9,0,0,0-.11,1v4h-1V25.9a3.25,3.25,0,0,0-.4-1.74,1.65,1.65,0,0,0-1.49-.61,2.67,2.67,0,0,0-.44.07,1.62,1.62,0,0,0-.71.35,2.55,2.55,0,0,0-.67.86,3.69,3.69,0,0,0-.29,1.6v3.84H196.4Z"/><path d="M210,24.45c0-.28,0-.56,0-.83l-.06-.84h1.14v1.14h0a2.44,2.44,0,0,1,1.07-1,2.94,2.94,0,0,1,1.35-.34,3.07,3.07,0,0,1,.65.07,2.23,2.23,0,0,1,1.26.7,2.45,2.45,0,0,1,.47.78,2.42,2.42,0,0,1,1-1.13,3.06,3.06,0,0,1,3.57.34,3.12,3.12,0,0,1,.69,2.17v4.75h-1V25.9a3.25,3.25,0,0,0-.4-1.74,1.65,1.65,0,0,0-1.49-.61,2,2,0,0,0-1,.23,1.84,1.84,0,0,0-.65.62,2.58,2.58,0,0,0-.36.87,4.31,4.31,0,0,0-.11,1v4h-1.06V25.9a3.16,3.16,0,0,0-.4-1.74,1.64,1.64,0,0,0-1.49-.61,2.67,2.67,0,0,0-.44.07,1.62,1.62,0,0,0-.71.35,2.55,2.55,0,0,0-.67.86,3.69,3.69,0,0,0-.29,1.6v3.84H210Z"/></g><line class="cls-2" x1="172.31" y1="116.38" x2="172.36" y2="165.4"/><line class="cls-2" x1="172.84" y1="116.38" x2="171.75" y2="116.38"/><line class="cls-2" x1="172.89" y1="165.4" x2="171.8" y2="165.4"/><g class="cls-3"><path d="M156.8,168.05a3.93,3.93,0,0,1,2.61-.91,4.07,4.07,0,0,1,1.57.3,3.71,3.71,0,0,1,2.06,2.1,4.55,4.55,0,0,1,.05,3,4,4,0,0,1-.61,1.11l1.08,1.08-.5.51L162,174.18a4,4,0,0,1-1.18.68,4.22,4.22,0,0,1-1.44.23,4,4,0,0,1-1.56-.3,3.8,3.8,0,0,1-1.24-.83,3.76,3.76,0,0,1-.82-1.27,4.09,4.09,0,0,1-.29-1.59,4.4,4.4,0,0,1,.23-1.39,3.65,3.65,0,0,1,.62-1.15l-1.08-1.06.49-.51Zm.25,1.25a2.7,2.7,0,0,0-.64,1.81,2.75,2.75,0,0,0,.23,1.17,2.59,2.59,0,0,0,.62.89,2.86,2.86,0,0,0,.94.56,3.28,3.28,0,0,0,1.17.21,3,3,0,0,0,1.83-.54Zm4.7,3.63a2.74,2.74,0,0,0,.61-1.79,2.79,2.79,0,0,0-.22-1.18,2.67,2.67,0,0,0-.63-.89,2.64,2.64,0,0,0-.94-.57,3.2,3.2,0,0,0-1.17-.21,3.12,3.12,0,0,0-1.82.53Z"/><path d="M163.21,156.38v1.15l-9.89-.06,1.78,2-.87.72-2.35-2.89v-1Z"/><path d="M163.28,145.08l0,7.2h-1.33l-4.57-4.53c-.17-.18-.35-.35-.54-.52a5.39,5.39,0,0,0-.6-.47,3.84,3.84,0,0,0-.67-.34,2.3,2.3,0,0,0-.74-.13,2,2,0,0,0-.83.16,1.74,1.74,0,0,0-.63.47,2.18,2.18,0,0,0-.39.7,2.66,2.66,0,0,0-.15.85,2.33,2.33,0,0,0,.48,1.48,2.16,2.16,0,0,0,1.29.79l-.14,1.21a3.1,3.1,0,0,1-2-1.17,3.44,3.44,0,0,1-.71-2.23,4.32,4.32,0,0,1,.19-1.31,3.09,3.09,0,0,1,.56-1.08,2.69,2.69,0,0,1,.92-.75,2.78,2.78,0,0,1,1.29-.27,3.51,3.51,0,0,1,1.2.2,5.48,5.48,0,0,1,1,.53,7.86,7.86,0,0,1,.91.73c.28.28.57.56.84.85l3.52,3.59,0-6Z"/><path d="M153.05,136.65l0,4.63,3.4.1a4.05,4.05,0,0,1-.2-.76,4.87,4.87,0,0,1-.06-.76,3.8,3.8,0,0,1,.28-1.46,3.16,3.16,0,0,1,.77-1.12,3.27,3.27,0,0,1,1.15-.73,4,4,0,0,1,2.95,0,3.28,3.28,0,0,1,1.16.81,3.64,3.64,0,0,1,.75,1.21,4.13,4.13,0,0,1,.27,1.51,3.7,3.7,0,0,1-.53,1.93,3.21,3.21,0,0,1-1.51,1.32l-.49-1.15a2.61,2.61,0,0,0,1.07-.89,2.22,2.22,0,0,0,.4-1.32,2.51,2.51,0,0,0-.19-1,2.51,2.51,0,0,0-1.33-1.36,2.54,2.54,0,0,0-1-.2,2.58,2.58,0,0,0-1.09.2,2.5,2.5,0,0,0-1.42,1.45,3.32,3.32,0,0,0-.2,1.11,4.53,4.53,0,0,0,.17,1.21,5.72,5.72,0,0,0,.45,1.15l-5.88-.15,0-5.77Z"/><path d="M157.54,129.62l-.83,0-.83.06v-1.14H157v0a2.44,2.44,0,0,1-1-1.07,3.05,3.05,0,0,1-.33-1.35,5.35,5.35,0,0,1,.07-.65,2.28,2.28,0,0,1,.24-.66,2.34,2.34,0,0,1,.47-.6,2.85,2.85,0,0,1,.79-.47,2.38,2.38,0,0,1-1.13-1,3.07,3.07,0,0,1,.36-3.57,3.14,3.14,0,0,1,2.17-.68l4.76,0v1.05l-4.37,0a3.2,3.2,0,0,0-1.74.39,1.65,1.65,0,0,0-.62,1.49,1.91,1.91,0,0,0,.23,1,1.81,1.81,0,0,0,.61.65,2.42,2.42,0,0,0,.87.36,4.17,4.17,0,0,0,1,.12l4,0v1.06l-4.37,0a3.08,3.08,0,0,0-1.74.39,1.65,1.65,0,0,0-.62,1.48,3.37,3.37,0,0,0,.06.44,1.71,1.71,0,0,0,.35.72,2.53,2.53,0,0,0,.86.66,3.49,3.49,0,0,0,1.6.31l3.84,0v1.06Z"/><path d="M157.62,116l-.84,0-.83,0v-1.13h1.13v0a2.47,2.47,0,0,1-1-1.07,3,3,0,0,1-.26-2,2.25,2.25,0,0,1,.23-.66,2.64,2.64,0,0,1,.48-.6,2.58,2.58,0,0,1,.79-.47,2.38,2.38,0,0,1-1.13-1,2.66,2.66,0,0,1-.41-1.45,2.69,2.69,0,0,1,.77-2.12,3.12,3.12,0,0,1,2.17-.68l4.75,0v1l-4.37,0a3.18,3.18,0,0,0-1.75.39,1.65,1.65,0,0,0-.61,1.48,1.92,1.92,0,0,0,.22,1,2,2,0,0,0,.62.65,2.45,2.45,0,0,0,.86.36,4.31,4.31,0,0,0,1,.12l4,0V111l-4.37,0a3.27,3.27,0,0,0-1.75.39,1.67,1.67,0,0,0-.61,1.49,3.61,3.61,0,0,0,.06.44,1.62,1.62,0,0,0,.35.71,2.45,2.45,0,0,0,.86.67,3.6,3.6,0,0,0,1.6.31l3.84,0V116Z"/></g><line class="cls-2" x1="210.1" y1="47.71" x2="210.24" y2="177.52"/><line class="cls-2" x1="211.33" y1="47.71" x2="208.8" y2="47.71"/><line class="cls-2" x1="211.47" y1="177.52" x2="208.93" y2="177.52"/><g class="cls-3"><path d="M226.64,141.93V140.3h1.06v1.64h2.69v1.15h-2.69l0,4.89h-1.31L219,143.36v-1.47Zm-6.44,1.12v0l6.41,3.94,0-3.94Z"/><path d="M218.9,135.2a3.18,3.18,0,0,1,.57-2,3.78,3.78,0,0,1,1.43-1.16,6.76,6.76,0,0,1,1.9-.55,15.29,15.29,0,0,1,2-.13,13.86,13.86,0,0,1,2,.16,6.31,6.31,0,0,1,1.89.57,3.78,3.78,0,0,1,1.42,1.17,3.75,3.75,0,0,1,0,3.94,3.77,3.77,0,0,1-1.43,1.16,6.44,6.44,0,0,1-1.9.55,15.29,15.29,0,0,1-2,.13,13.68,13.68,0,0,1-2-.15,6.46,6.46,0,0,1-1.9-.57,4,4,0,0,1-1.41-1.18A3.17,3.17,0,0,1,218.9,135.2Zm1,0a2.09,2.09,0,0,0,.49,1.47,3.21,3.21,0,0,0,1.23.82,6.09,6.09,0,0,0,1.57.35c.55,0,1,.08,1.5.08s.95,0,1.5-.06a6.09,6.09,0,0,0,1.57-.34,3.2,3.2,0,0,0,1.24-.8,2.44,2.44,0,0,0,0-2.93,3.08,3.08,0,0,0-1.23-.81,5.71,5.71,0,0,0-1.57-.36c-.55-.05-1.05-.07-1.5-.08s-1,0-1.51.07a5.85,5.85,0,0,0-1.57.33,3.17,3.17,0,0,0-1.23.8A2.14,2.14,0,0,0,220,135.2Z"/><path d="M219,126.3a3.15,3.15,0,0,1,.57-2,3.69,3.69,0,0,1,1.43-1.16,6.16,6.16,0,0,1,1.9-.55,14,14,0,0,1,4,0,6.31,6.31,0,0,1,1.89.57,3.71,3.71,0,0,1,1.42,1.18,3.73,3.73,0,0,1,0,3.93,3.77,3.77,0,0,1-1.43,1.16,6.16,6.16,0,0,1-1.9.55,13.76,13.76,0,0,1-2,.14,15.35,15.35,0,0,1-2-.16,6.46,6.46,0,0,1-1.9-.57,3.75,3.75,0,0,1-1.41-1.18A3.17,3.17,0,0,1,219,126.3Zm1.05,0a2.09,2.09,0,0,0,.49,1.47,3.19,3.19,0,0,0,1.23.81,6.09,6.09,0,0,0,1.57.35c.55.05,1.05.08,1.5.08s1,0,1.5-.06a5.7,5.7,0,0,0,1.57-.34,3,3,0,0,0,1.24-.8,2.42,2.42,0,0,0,0-2.92,3.21,3.21,0,0,0-1.23-.82,6.09,6.09,0,0,0-1.57-.35c-.55,0-1-.08-1.5-.08s-.95,0-1.51.06a6.27,6.27,0,0,0-1.57.34,3.06,3.06,0,0,0-1.23.8A2.1,2.1,0,0,0,220,126.31Z"/><path d="M224.7,116.29c-.28,0-.55,0-.83,0l-.83,0v-1.14h1.14v0a2.49,2.49,0,0,1-1-1.07,3.12,3.12,0,0,1-.33-1.36,5.35,5.35,0,0,1,.07-.65,2.51,2.51,0,0,1,.24-.66,2.34,2.34,0,0,1,.47-.6,2.61,2.61,0,0,1,.79-.46,2.45,2.45,0,0,1-1.13-1,3.07,3.07,0,0,1,.36-3.57,3.14,3.14,0,0,1,2.17-.67l4.76,0v1.06l-4.37,0a3.23,3.23,0,0,0-1.74.39,1.65,1.65,0,0,0-.62,1.49,1.91,1.91,0,0,0,.23,1,1.73,1.73,0,0,0,.61.65,2.63,2.63,0,0,0,.87.37,5.47,5.47,0,0,0,1,.12l4,0v1.05l-4.37,0a3.08,3.08,0,0,0-1.74.39,1.65,1.65,0,0,0-.62,1.48,3.37,3.37,0,0,0,.06.44,1.71,1.71,0,0,0,.35.72,2.55,2.55,0,0,0,.86.67,3.51,3.51,0,0,0,1.6.3l3.84,0v1.06Z"/><path d="M224.78,102.66c-.28,0-.56,0-.84,0l-.83.06v-1.14h1.13v0a2.45,2.45,0,0,1-1-1.06,3.12,3.12,0,0,1-.33-1.36,3.07,3.07,0,0,1,.07-.65,2.25,2.25,0,0,1,.23-.66,2.64,2.64,0,0,1,.48-.6,2.39,2.39,0,0,1,.79-.46,2.45,2.45,0,0,1-1.13-1,2.66,2.66,0,0,1-.41-1.45,2.71,2.71,0,0,1,.77-2.12,3.12,3.12,0,0,1,2.17-.68l4.75,0v1.06l-4.37,0a3.27,3.27,0,0,0-1.75.39,1.67,1.67,0,0,0-.61,1.49,1.91,1.91,0,0,0,.22,1,1.93,1.93,0,0,0,.62.65,2.67,2.67,0,0,0,.86.37,4.9,4.9,0,0,0,1,.11l4,0v1l-4.37,0a3.09,3.09,0,0,0-1.75.39,1.65,1.65,0,0,0-.61,1.48,3.37,3.37,0,0,0,.06.44,1.71,1.71,0,0,0,.35.72,2.68,2.68,0,0,0,.86.67,3.48,3.48,0,0,0,1.6.3l3.84,0v1.06Z"/></g><g class="cls-4"><path class="cls-5" d="M109.34,158.88a21.79,21.79,0,0,1,9.17-41.56,20.91,20.91,0,0,1,2.64.16"/><path class="cls-5" d="M126.05,118.66a21.79,21.79,0,0,1-7.54,42.24,21.06,21.06,0,0,1-3.57-.3"/><path class="cls-5" d="M114.94,146.11v30.8h-5.51v-30.8a5.13,5.13,0,0,0-1.11-3,6.61,6.61,0,0,1-.3-1.55,4.16,4.16,0,0,1,4.16-4.17h12.19a8.08,8.08,0,0,1-3.11-6V48.48h4.79v81.28s.42,3.91,3.34,5.92a3.71,3.71,0,0,1,1.4,3.16,4.16,4.16,0,0,1-4.16,4.16h-12.5A5.72,5.72,0,0,1,114.94,146.11Z"/><path class="cls-5" d="M114.94,146.11v30.8h-5.51v-30.8a5.13,5.13,0,0,0-1.11-3,6.61,6.61,0,0,1-.3-1.55,4.16,4.16,0,0,1,4.16-4.17h12.19a8.08,8.08,0,0,1-3.11-6V48.48h4.79v81.28s.42,3.91,3.34,5.92a3.71,3.71,0,0,1,1.4,3.16,4.16,4.16,0,0,1-4.16,4.16h-12.5A5.72,5.72,0,0,1,114.94,146.11Z"/><path class="cls-5" d="M114.24,143.2s-1.16-2.46-2.71-3.26"/><path class="cls-5" d="M124.15,137.21s2.12,1.7,3.86,1.74"/><path class="cls-5" d="M195.64,138.61c3.75-2.91,3.55-7.84,3.55-7.84V48.48H194.4v81.28s.37,6-5.73,6"/><path class="cls-5" d="M188.67,137.18h.39c11.15,0,11,8.93,11,8.93v30.8h-5.52v-30c0-1.7-1.12-4.11-5.64-4.11"/></g><polygon class="cls-5" points="182.25 117.17 182.25 160.97 188.67 143.86 188.67 134.14 182.25 117.17"/><line class="cls-5" x1="121.51" y1="124.36" x2="126.02" y2="124.36"/><line class="cls-5" x1="121.71" y1="113.28" x2="125.86" y2="113.28"/><line class="cls-5" x1="109.46" y1="161.17" x2="114.84" y2="161.17"/><line class="cls-5" x1="109.7" y1="150.09" x2="114.64" y2="150.09"/><line class="cls-5" x1="194.75" y1="161.17" x2="200.13" y2="161.17"/><line class="cls-5" x1="194.99" y1="150.09" x2="199.94" y2="150.09"/><line class="cls-5" x1="194.32" y1="124.36" x2="198.84" y2="124.36"/><line class="cls-5" x1="194.53" y1="113.28" x2="199.04" y2="113.28"/></svg>