<svg id="Long_Light" xmlns="http://www.w3.org/2000/svg" viewBox="0 0 300 263"><defs><style>.cls-1,.cls-3,.cls-4{fill:none;stroke-width:0.5px;}.cls-1,.cls-4{stroke:#000;}.cls-2{isolation:isolate;}.cls-3{stroke:#1d1d1b;}.cls-3,.cls-4{stroke-linecap:round;stroke-linejoin:round;}</style></defs><title>longlight-ceiling-wall-lissoni-flos-F0010009-spech-tech-02-300x263-01</title><line class="cls-1" x1="208.89" y1="145.65" x2="283.83" y2="145.97"/><line class="cls-1" x1="208.9" y1="143.3" x2="208.88" y2="148"/><line class="cls-1" x1="283.84" y1="143.62" x2="283.82" y2="148.32"/><g class="cls-2"><path d="M222.7,163.58h-1.15l0-9.89-2,1.78-.71-.86,2.89-2.36h1Z"/><path d="M230.53,152.1a3.21,3.21,0,0,1,2,.56,4,4,0,0,1,1.17,1.43,6.76,6.76,0,0,1,.55,1.9,14,14,0,0,1,0,3.95,6.46,6.46,0,0,1-.57,1.9,3.94,3.94,0,0,1-1.17,1.42,3.24,3.24,0,0,1-2,.55,3.31,3.31,0,0,1-2-.57,3.77,3.77,0,0,1-1.16-1.43,6.44,6.44,0,0,1-.55-1.9,15.21,15.21,0,0,1-.14-2,15.5,15.5,0,0,1,.16-2,6,6,0,0,1,.56-1.89,3.71,3.71,0,0,1,1.18-1.42A3.17,3.17,0,0,1,230.53,152.1Zm0,1.05a2.06,2.06,0,0,0-1.46.49,3.21,3.21,0,0,0-.82,1.23,6.09,6.09,0,0,0-.35,1.57c0,.55-.07,1.05-.08,1.5s0,.95.07,1.5a6.09,6.09,0,0,0,.34,1.57,3.09,3.09,0,0,0,.8,1.24,2.07,2.07,0,0,0,1.46.5,2.09,2.09,0,0,0,1.47-.49,3.08,3.08,0,0,0,.81-1.23,5.72,5.72,0,0,0,.35-1.56c0-.56.08-1.06.08-1.51s0-1-.07-1.5a5.69,5.69,0,0,0-.33-1.57,3.28,3.28,0,0,0-.8-1.24A2.09,2.09,0,0,0,230.52,153.15Z"/><path d="M239.42,152.13a3.31,3.31,0,0,1,2,.57,3.77,3.77,0,0,1,1.16,1.43,6.16,6.16,0,0,1,.55,1.9,13.52,13.52,0,0,1,0,3.95,6.31,6.31,0,0,1-.57,1.89,3.71,3.71,0,0,1-1.18,1.42,3.16,3.16,0,0,1-2,.56,3.29,3.29,0,0,1-2-.57,3.77,3.77,0,0,1-1.16-1.43,6.16,6.16,0,0,1-.55-1.9,13.52,13.52,0,0,1,0-3.95,6.46,6.46,0,0,1,.57-1.9,3.82,3.82,0,0,1,1.17-1.41A3.19,3.19,0,0,1,239.42,152.13Zm0,1.06a2.09,2.09,0,0,0-1.47.49,3.08,3.08,0,0,0-.81,1.23,6.11,6.11,0,0,0-.35,1.56c0,.56-.08,1.06-.08,1.51s0,1,.07,1.5a6.08,6.08,0,0,0,.33,1.57,3.11,3.11,0,0,0,.81,1.24,2.05,2.05,0,0,0,1.46.5,2.09,2.09,0,0,0,1.47-.49,3.3,3.3,0,0,0,.81-1.23,6.09,6.09,0,0,0,.35-1.57c.05-.55.08-1.05.08-1.5s0-.95-.07-1.5a5.7,5.7,0,0,0-.34-1.57,3.09,3.09,0,0,0-.8-1.24A2.05,2.05,0,0,0,239.42,153.19Z"/><path d="M249.45,157.87c0-.28,0-.55,0-.83s0-.55-.05-.83h1.13v1.14h0a2.44,2.44,0,0,1,1.07-1,3,3,0,0,1,2-.26,2.25,2.25,0,0,1,.66.23,2.39,2.39,0,0,1,.6.48,2.65,2.65,0,0,1,.47.78,2.42,2.42,0,0,1,1-1.13,2.85,2.85,0,0,1,1.45-.41,2.73,2.73,0,0,1,2.12.77,3.07,3.07,0,0,1,.68,2.17l0,4.75h-1v-4.37a3.06,3.06,0,0,0-.39-1.74,1.63,1.63,0,0,0-1.48-.62,2,2,0,0,0-1,.23,2,2,0,0,0-.65.61,2.8,2.8,0,0,0-.36.87,4.31,4.31,0,0,0-.12,1v4h-1.06l0-4.37a3.27,3.27,0,0,0-.39-1.75,1.68,1.68,0,0,0-1.49-.61l-.44.06a1.62,1.62,0,0,0-.71.35,2.55,2.55,0,0,0-.67.86,3.53,3.53,0,0,0-.3,1.6l0,3.84h-1.06Z"/><path d="M263.08,157.93c0-.28,0-.55,0-.83s0-.56-.05-.83h1.13v1.14h0a2.44,2.44,0,0,1,1.07-1,3,3,0,0,1,2-.26,2.25,2.25,0,0,1,.66.23,2,2,0,0,1,.6.48,2.45,2.45,0,0,1,.47.78,2.42,2.42,0,0,1,1-1.13,2.87,2.87,0,0,1,1.45-.41,2.73,2.73,0,0,1,2.12.77,3.07,3.07,0,0,1,.68,2.17l0,4.75h-1.05l0-4.37a3.17,3.17,0,0,0-.4-1.75,1.65,1.65,0,0,0-1.48-.61,1.92,1.92,0,0,0-1,.23,2,2,0,0,0-.65.61,3.07,3.07,0,0,0-.36.87,4.91,4.91,0,0,0-.12,1v4h-1.06l0-4.37a3.27,3.27,0,0,0-.39-1.75,1.67,1.67,0,0,0-1.49-.61l-.44.06a1.62,1.62,0,0,0-.71.35,2.55,2.55,0,0,0-.67.86,3.51,3.51,0,0,0-.3,1.6l0,3.84h-1.06Z"/></g><line class="cls-1" x1="187.79" y1="146.48" x2="44.54" y2="146.48"/><line class="cls-1" x1="187.79" y1="147.83" x2="187.79" y2="145.04"/><line class="cls-1" x1="44.54" y1="147.83" x2="44.54" y2="145.04"/><g class="cls-2"><path d="M94.93,163.76h-7.2v-1.33l4.51-4.59c.17-.17.34-.35.51-.55a4.43,4.43,0,0,0,.47-.6,3,3,0,0,0,.33-.68,2,2,0,0,0,.13-.73,1.84,1.84,0,0,0-.17-.83,1.63,1.63,0,0,0-.47-.63,2.08,2.08,0,0,0-.7-.39,2.66,2.66,0,0,0-.85-.14,2.36,2.36,0,0,0-1.47.48,2.2,2.2,0,0,0-.79,1.3L88,154.94a3.18,3.18,0,0,1,1.16-2,3.51,3.51,0,0,1,2.23-.72,4.59,4.59,0,0,1,1.3.18,3.39,3.39,0,0,1,1.09.55,2.67,2.67,0,0,1,.75.92,2.79,2.79,0,0,1,.28,1.29,3.29,3.29,0,0,1-.2,1.2,4.33,4.33,0,0,1-.52,1,6.85,6.85,0,0,1-.72.91l-.84.85L89,162.7h6Z"/><path d="M100.31,152.24a3.21,3.21,0,0,1,2,.56,3.67,3.67,0,0,1,1.17,1.42,6.17,6.17,0,0,1,.56,1.9,13.08,13.08,0,0,1,0,3.95,6.17,6.17,0,0,1-.56,1.9,3.67,3.67,0,0,1-1.17,1.42,3.73,3.73,0,0,1-3.93,0A3.86,3.86,0,0,1,97.17,162a6.45,6.45,0,0,1-.56-1.9,14,14,0,0,1,0-3.95,6.45,6.45,0,0,1,.56-1.9,3.86,3.86,0,0,1,1.17-1.42A3.24,3.24,0,0,1,100.31,152.24Zm0,1a2.09,2.09,0,0,0-1.47.5A3.3,3.3,0,0,0,98,155a6.18,6.18,0,0,0-.34,1.57c0,.56-.07,1.06-.07,1.5s0,.95.07,1.51a6.18,6.18,0,0,0,.34,1.57,3.3,3.3,0,0,0,.81,1.23,2.09,2.09,0,0,0,1.47.49,2.06,2.06,0,0,0,1.46-.49,3.08,3.08,0,0,0,.81-1.23,5.78,5.78,0,0,0,.34-1.57c0-.56.08-1.06.08-1.51s0-.94-.08-1.5a5.78,5.78,0,0,0-.34-1.57,3.08,3.08,0,0,0-.81-1.23A2.07,2.07,0,0,0,100.31,153.29Z"/><path d="M109.2,152.24a3.24,3.24,0,0,1,2,.56,3.86,3.86,0,0,1,1.17,1.42,6.45,6.45,0,0,1,.56,1.9,14,14,0,0,1,0,3.95,6.45,6.45,0,0,1-.56,1.9,3.86,3.86,0,0,1-1.17,1.42,3.75,3.75,0,0,1-3.94,0,3.74,3.74,0,0,1-1.16-1.42,6.17,6.17,0,0,1-.56-1.9,13.08,13.08,0,0,1,0-3.95,6.17,6.17,0,0,1,.56-1.9,3.74,3.74,0,0,1,1.16-1.42A3.26,3.26,0,0,1,109.2,152.24Zm0,1a2.07,2.07,0,0,0-1.46.5,3.08,3.08,0,0,0-.81,1.23,5.78,5.78,0,0,0-.34,1.57c0,.56-.08,1.06-.08,1.5s0,.95.08,1.51a5.78,5.78,0,0,0,.34,1.57,3.08,3.08,0,0,0,.81,1.23,2.06,2.06,0,0,0,1.46.49,2.09,2.09,0,0,0,1.47-.49,3.3,3.3,0,0,0,.81-1.23,6.18,6.18,0,0,0,.34-1.57c.05-.56.07-1.06.07-1.51s0-.94-.07-1.5a6.18,6.18,0,0,0-.34-1.57,3.3,3.3,0,0,0-.81-1.23A2.09,2.09,0,0,0,109.2,153.29Z"/><path d="M119.25,157.93c0-.27,0-.55,0-.83l-.06-.83h1.14v1.14h0a2.41,2.41,0,0,1,1.06-1,3,3,0,0,1,1.35-.34,3.74,3.74,0,0,1,.65.06,2.8,2.8,0,0,1,.67.23,2.39,2.39,0,0,1,.6.48,2.65,2.65,0,0,1,.47.78,2.41,2.41,0,0,1,1-1.13,2.79,2.79,0,0,1,1.45-.42,2.73,2.73,0,0,1,2.13.76,3.12,3.12,0,0,1,.69,2.17v4.75h-1.06v-4.37a3.11,3.11,0,0,0-.4-1.74,1.63,1.63,0,0,0-1.49-.61,1.82,1.82,0,0,0-1.64.85,2.84,2.84,0,0,0-.36.87,4.74,4.74,0,0,0-.11,1v4h-1v-4.37a3.2,3.2,0,0,0-.4-1.74,1.65,1.65,0,0,0-1.49-.61l-.44.06a1.65,1.65,0,0,0-.71.36,2.45,2.45,0,0,0-.67.86,3.66,3.66,0,0,0-.29,1.6v3.84h-1.06Z"/><path d="M132.88,157.93c0-.27,0-.55,0-.83l-.06-.83h1.14v1.14h0a2.47,2.47,0,0,1,1.06-1,3,3,0,0,1,1.36-.34,3.63,3.63,0,0,1,.64.06,2.8,2.8,0,0,1,.67.23,2.39,2.39,0,0,1,.6.48,2.65,2.65,0,0,1,.47.78,2.38,2.38,0,0,1,1-1.13,3.06,3.06,0,0,1,3.57.34,3.12,3.12,0,0,1,.69,2.17v4.75H143v-4.37a3.11,3.11,0,0,0-.4-1.74,1.62,1.62,0,0,0-1.48-.61,2,2,0,0,0-1,.23,1.9,1.9,0,0,0-.64.62,2.42,2.42,0,0,0-.36.87,4.17,4.17,0,0,0-.12,1v4h-1.05v-4.37a3.11,3.11,0,0,0-.4-1.74,1.64,1.64,0,0,0-1.49-.61l-.44.06a1.65,1.65,0,0,0-.71.36,2.45,2.45,0,0,0-.67.86,3.66,3.66,0,0,0-.29,1.6v3.84h-1.06Z"/></g><line class="cls-1" x1="35.84" y1="74.29" x2="35.9" y2="135.18"/><line class="cls-1" x1="36.54" y1="74.29" x2="35.1" y2="74.29"/><line class="cls-1" x1="36.6" y1="135.18" x2="35.16" y2="135.18"/><g class="cls-2"><path d="M22.12,126.51a2.41,2.41,0,0,1-.38.68,2.73,2.73,0,0,1-.59.53,3.07,3.07,0,0,1-.73.35,2.94,2.94,0,0,1-.84.12,2.79,2.79,0,0,1-2.15-1,3,3,0,0,1-.59-1,3.74,3.74,0,0,1-.2-1.21,3.51,3.51,0,0,1,.21-1.22,3.14,3.14,0,0,1,.6-1,2.83,2.83,0,0,1,.94-.69,3.07,3.07,0,0,1,1.23-.25,3,3,0,0,1,.83.14,2.59,2.59,0,0,1,.73.35,2.3,2.3,0,0,1,.58.54,2.41,2.41,0,0,1,.38.68h0A2.75,2.75,0,0,1,23.23,122a3.18,3.18,0,0,1,1.92-.56,2.86,2.86,0,0,1,1.33.3,3.28,3.28,0,0,1,1,.79,3.36,3.36,0,0,1,.64,1.14,4.28,4.28,0,0,1,0,2.74,3.41,3.41,0,0,1-.65,1.13,3.46,3.46,0,0,1-1,.78,3,3,0,0,1-1.33.29,3.21,3.21,0,0,1-1.91-.59,2.72,2.72,0,0,1-1.05-1.54ZM19.71,123a1.9,1.9,0,0,0-.8.14,1.87,1.87,0,0,0-.64.42,2.15,2.15,0,0,0-.42.64,2.11,2.11,0,0,0-.15.8,1.9,1.9,0,0,0,.14.8,1.87,1.87,0,0,0,.42.64,1.65,1.65,0,0,0,.63.43,2.08,2.08,0,0,0,.8.16,2.15,2.15,0,0,0,.8-.15,1.93,1.93,0,0,0,.63-.42,1.87,1.87,0,0,0,.42-.64,2.28,2.28,0,0,0,.16-.8,2,2,0,0,0-1.19-1.87A2.11,2.11,0,0,0,19.71,123Zm5.28-.39a2.51,2.51,0,0,0-.92.17,2.36,2.36,0,0,0-.74.48,2.26,2.26,0,0,0-.49.77,2.7,2.7,0,0,0-.18,1,2.52,2.52,0,0,0,.17,1,2.06,2.06,0,0,0,.48.76,2.29,2.29,0,0,0,.73.49,2.32,2.32,0,0,0,.92.18,2.16,2.16,0,0,0,.92-.17,2.06,2.06,0,0,0,.74-.48,2.21,2.21,0,0,0,.49-.76,2.67,2.67,0,0,0,.18-1,2.54,2.54,0,0,0-.17-1,2.1,2.1,0,0,0-.48-.77,2.29,2.29,0,0,0-.73-.49A2.32,2.32,0,0,0,25,122.62Z"/><path d="M18,113.12l0,4.63,3.41.1a3.44,3.44,0,0,1-.21-.76,4.87,4.87,0,0,1-.06-.76,4,4,0,0,1,.28-1.46,3.39,3.39,0,0,1,.77-1.12,3.52,3.52,0,0,1,1.15-.73,4,4,0,0,1,2.95,0,3.28,3.28,0,0,1,1.16.81,3.51,3.51,0,0,1,.76,1.21,4.35,4.35,0,0,1,.26,1.51,3.69,3.69,0,0,1-.52,1.93,3.28,3.28,0,0,1-1.52,1.32l-.49-1.15a2.61,2.61,0,0,0,1.07-.89,2.22,2.22,0,0,0,.4-1.32,2.35,2.35,0,0,0-.19-1,2.64,2.64,0,0,0-.53-.81,2.48,2.48,0,0,0-.8-.55,2.54,2.54,0,0,0-1-.2,2.61,2.61,0,0,0-1.09.2,2.4,2.4,0,0,0-.86.57,2.44,2.44,0,0,0-.55.87,3.18,3.18,0,0,0-.2,1.12,4.15,4.15,0,0,0,.16,1.21,5.72,5.72,0,0,0,.45,1.15l-5.87-.15,0-5.77Z"/><path d="M22.44,106.09l-.83,0-.83,0V105h1.14v0a2.5,2.5,0,0,1-1-1.07,2.91,2.91,0,0,1-.32-1.35,3.83,3.83,0,0,1,.06-.65,2.61,2.61,0,0,1,.24-.66,2.34,2.34,0,0,1,.47-.6,2.85,2.85,0,0,1,.79-.47,2.42,2.42,0,0,1-1.13-1,2.85,2.85,0,0,1-.41-1.45,2.76,2.76,0,0,1,.77-2.12,3.15,3.15,0,0,1,2.18-.68l4.75,0V96L24,96a3.25,3.25,0,0,0-1.74.39,1.65,1.65,0,0,0-.62,1.48,2,2,0,0,0,.23,1,1.9,1.9,0,0,0,.61.65,2.58,2.58,0,0,0,.87.36,4.17,4.17,0,0,0,1,.12l4,0v1.06l-4.36,0a3.09,3.09,0,0,0-1.75.39,1.65,1.65,0,0,0-.62,1.48,2.67,2.67,0,0,0,.07.44,1.59,1.59,0,0,0,.34.71,2.55,2.55,0,0,0,.86.67,3.66,3.66,0,0,0,1.6.31l3.84,0v1.06Z"/><path d="M22.52,92.46l-.83,0-.84,0V91.4H22v0a2.44,2.44,0,0,1-1-1.07A3.05,3.05,0,0,1,20.68,89a3.9,3.9,0,0,1,.07-.65,2,2,0,0,1,.24-.66,2.18,2.18,0,0,1,.47-.6,2.51,2.51,0,0,1,.79-.47,2.38,2.38,0,0,1-1.13-1,2.78,2.78,0,0,1-.41-1.45A2.73,2.73,0,0,1,21.48,82a3.07,3.07,0,0,1,2.17-.68l4.75,0v1l-4.37,0a3.09,3.09,0,0,0-1.75.39,1.65,1.65,0,0,0-.61,1.48,1.92,1.92,0,0,0,.23,1,1.89,1.89,0,0,0,.61.65,2.62,2.62,0,0,0,.87.36,4.17,4.17,0,0,0,1,.12l4,0v1.06l-4.37,0a3.2,3.2,0,0,0-1.74.39,1.65,1.65,0,0,0-.62,1.49,3.61,3.61,0,0,0,.06.44,1.62,1.62,0,0,0,.35.71,2.55,2.55,0,0,0,.86.67,3.6,3.6,0,0,0,1.6.31l3.84,0v1Z"/></g><line class="cls-3" x1="45.01" y1="135.04" x2="45.01" y2="74.15"/><polyline class="cls-3" points="188.25 135.04 188.25 74.15 45.01 74.15"/><line class="cls-3" x1="45.01" y1="135.04" x2="188.25" y2="135.04"/><polyline class="cls-4" points="255.37 106.23 209.52 106.23 209.52 134.92 284 134.92 284 74.03"/><line class="cls-4" x1="255.37" y1="74.03" x2="255.37" y2="106.23"/><line class="cls-4" x1="209.4" y1="109.26" x2="209.52" y2="109.26"/><line class="cls-4" x1="209.4" y1="132.55" x2="209.4" y2="109.26"/><line class="cls-4" x1="283.99" y1="74.03" x2="255.37" y2="74.03"/><line class="cls-4" x1="209.52" y1="132.55" x2="209.4" y2="132.55"/></svg>