<svg id="Luminator" xmlns="http://www.w3.org/2000/svg" viewBox="0 0 300 263"><defs><style>.cls-1{isolation:isolate;font-size:16px;font-family:Avenir-Book, Avenir;}.cls-2,.cls-3{fill:none;stroke-width:0.5px;}.cls-2{stroke:#000;}.cls-3{stroke:#1d1d1b;stroke-miterlimit:3.86;}</style></defs><title>luminator-floor-castiglioni-flos-F3770033-spech-tech-02-300x263</title><text class="cls-1" transform="translate(104.29 164.74) rotate(-90)">1890 mm</text><line class="cls-2" x1="114.66" y1="47.02" x2="114.66" y2="217.26"/><line class="cls-2" x1="116.24" y1="47.02" x2="112.87" y2="47.02"/><line class="cls-2" x1="116.42" y1="217.26" x2="112.05" y2="217.26"/><text class="cls-1" transform="translate(118.53 27.52)">ø 58 mm</text><line class="cls-2" x1="155.88" y1="37.89" x2="143.94" y2="37.89"/><line class="cls-2" x1="155.88" y1="39.47" x2="155.88" y2="36.09"/><line class="cls-2" x1="143.94" y1="39.65" x2="143.94" y2="35.27"/><line class="cls-2" x1="121.94" y1="227.34" x2="170.98" y2="227.33"/><line class="cls-2" x1="121.91" y1="226.89" x2="121.92" y2="227.79"/><line class="cls-2" x1="170.98" y1="226.88" x2="170.98" y2="227.78"/><text class="cls-1" transform="translate(117.25 247.07) rotate(0.22)">600 mm</text><path class="cls-3" d="M147.86,56v-.84c-3.73-1.88-3.92-4.9-3.92-4.9,0-2,2.58-3.59,5.76-3.59s5.76,1.61,5.76,3.59a8,8,0,0,1-3.93,4.9V56m-5.21,0h6.05V171.49h-6.05Zm1.29,115.48-25.17,43.63m31.47,1L149,171.42m.83.07,20.4,44.28M148.5,171.49s-.31,8.75-1.15,11.93-.84,18.73-.71,19.89,1.8,11.62-3.67,13-7.34,1.16-10.49.19-9.34-2.66-9.34-2.66-3-1-8.43,1.23M144.07,49.53H155.2"/></svg>