<svg id="GunsLounge_Gun" data-name="GunsLounge Gun" xmlns="http://www.w3.org/2000/svg" viewBox="0 0 300 263"><defs><style>.cls-1,.cls-3{fill:none;stroke-width:0.5px;}.cls-1{stroke:#1a171b;stroke-linecap:round;stroke-linejoin:round;}.cls-2{isolation:isolate;}.cls-3{stroke:#000;}</style></defs><title>luonge-gun-floor-starck-flos-F2955000-spech-tech-02-300x263</title><polyline class="cls-1" points="121.28 89.85 177.72 89.85 168.16 47.02 130.84 47.02 121.28 89.85"/><polyline class="cls-1" points="148.37 89.85 148.37 93.91 148.58 94.14 148.6 124.86 143.72 124.88"/><polyline class="cls-1" points="143.72 124.88 143.54 124.89 143.37 124.94 143.21 125.02 143.06 125.13 142.94 125.26 142.84 125.41 142.78 125.58 142.74 125.76 142.74 125.94 142.77 126.11 142.83 126.28 142.92 126.44 143.04 126.57"/><polyline class="cls-1" points="143.04 126.57 146.49 129.46 146.37 129.46"/><polyline class="cls-1" points="146.37 129.46 146.34 129.46 146.3 129.47 146.27 129.49 146.24 129.51 146.22 129.54 146.21 129.57 146.2 129.6 146.19 129.64"/><polyline class="cls-1" points="146.19 129.64 146.19 130.4 145.69 130.4"/><polyline class="cls-1" points="145.69 130.4 145.65 130.4 145.62 130.41 145.59 130.43 145.56 130.45 145.54 130.48 145.52 130.51 145.51 130.54 145.51 130.58"/><line class="cls-1" x1="145.51" y1="130.58" x2="145.03" y2="161.9"/><polyline class="cls-1" points="145.03 161.9 145.03 161.99 145.06 162.07 145.09 162.16 145.15 162.23 145.2 162.29 145.28 162.35 145.36 162.38 145.44 162.4 145.53 162.41"/><polyline class="cls-1" points="145.53 162.41 147.24 162.41 146.79 164.4"/><polyline class="cls-1" points="146.79 164.4 146.78 164.45 146.75 164.49 146.72 164.53 146.68 164.56 146.63 164.59 146.58 164.6 146.53 164.61"/><line class="cls-1" x1="146.53" y1="164.61" x2="145.21" y2="164.61"/><polyline class="cls-1" points="145.21 164.61 144.89 164.64 144.59 164.72 144.3 164.87 144.04 165.06 143.83 165.29 143.66 165.56 143.54 165.86 143.48 166.18"/><line class="cls-1" x1="143.48" y1="166.18" x2="142.2" y2="179.03"/><polyline class="cls-1" points="142.2 179.03 142.2 179.2 142.23 179.36 142.29 179.52 142.38 179.66 142.49 179.78 142.63 179.88"/><polyline class="cls-1" points="142.63 179.88 146.59 182.21 146.59 183.05"/><polyline class="cls-1" points="146.6 183.05 146.61 183.16 146.64 183.26 146.69 183.35 146.76 183.44 146.84 183.51 146.94 183.56 147.04 183.59 147.15 183.6"/><line class="cls-1" x1="147.15" y1="183.6" x2="147.47" y2="183.6"/><polyline class="cls-1" points="147.47 183.6 147.52 183.6 147.56 183.62 147.6 183.63 147.63 183.66 147.66 183.69 147.69 183.73 147.71 183.77 147.72 183.81 147.73 183.85"/><polyline class="cls-1" points="147.72 183.85 147.72 215.94 148.16 215.91 148.16 216.03 150.83 216.03 150.83 215.67 160.98 214.66 154.42 192.34 153.1 184.3"/><polyline class="cls-1" points="153.1 184.3 153.08 183.99 153.11 183.68 153.21 183.38 153.35 183.11 153.55 182.87 153.79 182.66 154.06 182.5 154.35 182.41"/><polyline class="cls-1" points="154.35 182.41 155.17 182.41 155.51 182.44 155.85 182.52 156.17 182.66 156.46 182.85 162.84 187.91"/><polyline class="cls-1" points="162.84 187.91 162.9 187.94 162.96 187.97 163.03 187.98 163.1 187.98 163.16 187.97 163.22 187.94 163.28 187.9 163.33 187.85 163.36 187.79 163.39 187.73"/><line class="cls-1" x1="163.39" y1="187.73" x2="164.69" y2="183.28"/><polyline class="cls-1" points="164.69 183.28 164.72 183.15 164.72 183.02 164.69 182.9 164.64 182.78 164.57 182.67 164.48 182.58 164.38 182.51"/><polyline class="cls-1" points="164.38 182.51 157.81 178.4 157.81 172.56 162.03 172.56"/><polyline class="cls-1" points="162.03 172.56 162.12 172.55 162.2 172.52 162.28 172.48 162.36 172.42 162.41 172.35 162.46 172.28 162.49 172.19 162.5 172.1 162.49 172.01"/><line class="cls-1" x1="162.49" y1="172.01" x2="161.5" y2="166.2"/><polyline class="cls-1" points="161.5 166.2 161.5 166.17 161.48 166.14 161.46 166.11 161.44 166.08 161.41 166.06 161.37 166.05 161.34 166.04 161.3 166.04"/><polyline class="cls-1" points="161.3 166.03 156.55 166.03 156.47 165.72 156.44 165.63 156.38 165.56"/><polyline class="cls-1" points="156.38 165.56 156.34 165.53 156.31 165.51 156.27 165.5 156.23 165.49 156.19 165.49 156.15 165.5 156.11 165.51 156.07 165.54 156.04 165.57 156.02 165.6 156 165.64 155.99 165.68 155.99 165.72"/><polyline class="cls-1" points="155.99 165.72 155.99 165.8 152.8 165.8"/><polyline class="cls-1" points="152.8 165.8 152.75 165.8 152.7 165.78 152.65 165.76 152.61 165.72 152.58 165.69 152.55 165.64 152.54 165.59"/><polyline class="cls-1" points="152.54 165.59 151.8 162.41 152.03 162.41"/><polyline class="cls-1" points="152.03 162.41 152.12 162.41 152.21 162.38 152.29 162.34 152.36 162.29 152.42 162.23 152.47 162.16 152.51 162.08 152.53 161.99 152.54 161.9"/><line class="cls-1" x1="152.54" y1="161.9" x2="152.06" y2="130.58"/><polyline class="cls-1" points="152.06 130.58 152.05 130.54 152.04 130.51 152.03 130.48 152 130.45 151.97 130.43 151.94 130.41 151.91 130.4 151.87 130.4"/><polyline class="cls-1" points="151.87 130.4 151.37 130.4 151.37 129.64"/><polyline class="cls-1" points="151.37 129.64 151.37 129.61 151.36 129.58 151.34 129.55 151.33 129.52 151.31 129.5 151.28 129.48 151.25 129.47 151.22 129.46 151.19 129.46"/><polyline class="cls-1" points="151.19 129.46 150.65 129.46 150.65 124.86 150.39 124.86 150.41 94.14 150.63 93.91 150.63 89.73"/><line class="cls-1" x1="147.24" y1="125.61" x2="146.29" y2="125.58"/><polyline class="cls-1" points="146.29 125.58 146.21 125.59 146.13 125.61 146.07 125.64 146 125.69 145.95 125.75 145.91 125.81 145.88 125.89 145.87 125.96 145.87 126.04 145.89 126.11"/><polyline class="cls-1" points="145.89 126.11 145.88 126.16 145.87 126.2 145.85 126.23 145.82 126.26 145.79 126.29 145.76 126.31 145.72 126.32 145.68 126.33"/><line class="cls-1" x1="145.68" y1="126.33" x2="144.92" y2="126.33"/><polyline class="cls-1" points="144.93 126.33 144.85 126.35 144.79 126.39 144.73 126.43 144.68 126.49 144.64 126.56 144.62 126.63 144.61 126.7 144.61 126.78 144.63 126.85 144.66 126.91"/><polyline class="cls-1" points="144.66 126.91 144.71 127.05 144.78 127.17 144.87 127.27 144.97 127.37"/><line class="cls-1" x1="144.98" y1="127.37" x2="146.9" y2="128.86"/><polyline class="cls-1" points="146.9 128.86 146.96 128.9 147.02 128.92 147.09 128.94 147.16 128.94 147.22 128.93 147.29 128.9 147.35 128.87 147.4 128.82 147.44 128.76 147.47 128.7 147.49 128.64 147.49 128.57"/><line class="cls-1" x1="147.49" y1="128.57" x2="147.49" y2="125.88"/><polyline class="cls-1" points="147.5 125.88 147.49 125.83 147.48 125.78 147.45 125.73 147.42 125.69 147.38 125.66 147.34 125.64 147.29 125.62 147.24 125.61"/><line class="cls-1" x1="146.61" y1="177.41" x2="146.61" y2="166.82"/><polyline class="cls-1" points="146.61 166.82 146.59 166.6 146.53 166.39 146.42 166.19 146.28 166.01 146.11 165.87 145.91 165.76 145.7 165.69 145.48 165.67 145.25 165.69 145.04 165.75 144.84 165.85 144.66 165.98 144.51 166.15 144.4 166.35 144.33 166.56"/><line class="cls-1" x1="144.33" y1="166.56" x2="144.07" y2="176.98"/><polyline class="cls-1" points="144.07 176.98 144.08 177.14 144.12 177.29 144.18 177.44 144.27 177.57 144.38 177.69 144.51 177.78"/><line class="cls-1" x1="144.51" y1="177.78" x2="145.47" y2="178.55"/><polyline class="cls-1" points="145.47 178.55 145.57 178.62 145.68 178.66 145.79 178.69 145.91 178.69 146.03 178.67 146.14 178.63 146.24 178.57 146.33 178.49 146.4 178.39 146.45 178.29 146.48 178.17"/><line class="cls-1" x1="146.48" y1="178.17" x2="146.61" y2="177.41"/><line class="cls-1" x1="154.57" y1="175.57" x2="154.57" y2="174.14"/><polyline class="cls-1" points="154.57 174.13 154.6 173.88 154.68 173.62 154.8 173.39 154.96 173.18 155.16 173.02 155.39 172.89 155.63 172.81 155.89 172.78 156.16 172.8 156.41 172.86 156.64 172.97 156.85 173.13 157.02 173.33 157.16 173.55 157.25 173.8 157.29 174.06"/><line class="cls-1" x1="157.29" y1="174.05" x2="157.27" y2="175.61"/><polyline class="cls-1" points="157.27 175.62 157.06 175.87 156.81 176.06 156.51 176.22 156.2 176.32 155.88 176.35"/><polyline class="cls-1" points="155.88 176.35 155.57 176.3 155.27 176.19 155 176.03 154.77 175.81 154.58 175.57"/><line class="cls-1" x1="157.31" y1="176.27" x2="157.31" y2="176.59"/><polyline class="cls-1" points="157.31 176.59 157.29 176.8 157.24 177.01 157.15 177.2 157.04 177.39 156.9 177.54"/><polyline class="cls-1" points="156.9 177.54 156.7 177.71 156.48 177.83 156.23 177.91 155.97 177.94 155.72 177.93 155.47 177.87 155.23 177.77 155.02 177.62 154.84 177.44 154.69 177.23"/><line class="cls-1" x1="154.69" y1="177.22" x2="154.58" y2="176.73"/><polyline class="cls-1" points="154.58 176.72 154.96 176.83 155.36 176.88 155.76 176.86 156.15 176.77"/><line class="cls-1" x1="156.15" y1="176.77" x2="157.14" y2="176.23"/><polyline class="cls-1" points="157.14 176.23 157.16 176.22 157.17 176.21 157.19 176.2 157.21 176.2 157.23 176.2 157.25 176.21 157.26 176.22 157.28 176.23 157.29 176.24 157.29 176.26 157.31 176.27"/><rect class="cls-1" x="129.62" y="216.03" width="39.7" height="1.21"/><g class="cls-2"><path d="M102.71,159.87V161H92.82l1.79,2-.86.72-2.37-2.88v-1Z"/><path d="M96.24,153.47l0,0a1.89,1.89,0,0,1-.29-.73,3.82,3.82,0,0,1-.1-.84,3.45,3.45,0,0,1,.27-1.37,3.28,3.28,0,0,1,.72-1.1,3.38,3.38,0,0,1,1.11-.72,3.55,3.55,0,0,1,1.41-.27,3.63,3.63,0,0,1,1.42.27,3.31,3.31,0,0,1,1.1.77,3.49,3.49,0,0,1,.72,1.17,4.13,4.13,0,0,1,.26,1.47,4,4,0,0,1-.26,1.47,3.49,3.49,0,0,1-.72,1.17,3.17,3.17,0,0,1-1.1.77,3.63,3.63,0,0,1-1.42.27,4.39,4.39,0,0,1-1.65-.28,9,9,0,0,1-1.39-.69l-5-3.06v-1.36Zm3.16,1.15a2.64,2.64,0,0,0,1-.18,2.43,2.43,0,0,0,.77-.52,2.38,2.38,0,0,0,.51-.8,3.18,3.18,0,0,0,0-2.05,2.29,2.29,0,0,0-.51-.8,2.14,2.14,0,0,0-.77-.52,2.7,2.7,0,0,0-2,0,2,2,0,0,0-.76.52,2.29,2.29,0,0,0-.51.8,3,3,0,0,0,0,2.05,2.38,2.38,0,0,0,.51.8,2.28,2.28,0,0,0,.76.52A2.66,2.66,0,0,0,99.4,154.62Z"/><path d="M97.84,141.82l0,0a1.89,1.89,0,0,1,.29.73,4.35,4.35,0,0,1,.1.84,3.45,3.45,0,0,1-.27,1.37,3.17,3.17,0,0,1-.73,1.09,3.21,3.21,0,0,1-1.1.73,3.62,3.62,0,0,1-1.41.27,3.43,3.43,0,0,1-1.42-.28,3.18,3.18,0,0,1-1.11-.76,3.49,3.49,0,0,1-.72-1.17,4.48,4.48,0,0,1,0-2.95,3.54,3.54,0,0,1,.72-1.16,3.21,3.21,0,0,1,1.11-.77,3.59,3.59,0,0,1,1.42-.27,4.39,4.39,0,0,1,1.65.28,8.55,8.55,0,0,1,1.39.69l5,3.06v1.36Zm-3.15-1.15a2.64,2.64,0,0,0-1,.18,2.28,2.28,0,0,0-.77.52,2.52,2.52,0,0,0-.5.8,2.86,2.86,0,0,0,0,2.05,2.41,2.41,0,0,0,.5.8,2.28,2.28,0,0,0,.77.52,2.64,2.64,0,0,0,1,.18,2.61,2.61,0,0,0,1-.18,2.32,2.32,0,0,0,.78-.52,2.13,2.13,0,0,0,.5-.8,3,3,0,0,0,0-2.05,2.21,2.21,0,0,0-.5-.8,2.32,2.32,0,0,0-.78-.52A2.61,2.61,0,0,0,94.69,140.67Z"/><path d="M99,132.09v-1.63H100v1.63h2.69v1.15H100v4.9H98.71l-7.33-4.58v-1.47Zm-6.43,1.15v0l6.43,3.9v-3.94Z"/><path d="M96.88,124.25l-.83,0-.83,0V123.2h1.14v0a2.5,2.5,0,0,1-1-1.06,3.05,3.05,0,0,1-.33-1.35,3.83,3.83,0,0,1,.06-.65,2.25,2.25,0,0,1,.23-.66,2.08,2.08,0,0,1,.48-.6,2.47,2.47,0,0,1,.78-.48,2.48,2.48,0,0,1-1.14-1A2.87,2.87,0,0,1,95,115.9a2.73,2.73,0,0,1,.76-2.13,3.11,3.11,0,0,1,2.17-.69h4.75v1.06H98.34a3.11,3.11,0,0,0-1.74.4A1.64,1.64,0,0,0,96,116a1.91,1.91,0,0,0,.23,1,1.84,1.84,0,0,0,.62.65,2.84,2.84,0,0,0,.87.36,4.74,4.74,0,0,0,1,.11h4v1.06H98.34a3.11,3.11,0,0,0-1.74.4,1.62,1.62,0,0,0-.61,1.48,3.37,3.37,0,0,0,.06.44,1.71,1.71,0,0,0,.35.72,2.72,2.72,0,0,0,.87.66,3.51,3.51,0,0,0,1.6.3h3.84v1Z"/><path d="M96.88,110.62l-.83,0-.83.06v-1.14h1.14v0a2.5,2.5,0,0,1-1-1.06,3.08,3.08,0,0,1-.33-1.35,3.74,3.74,0,0,1,.06-.65,2.42,2.42,0,0,1,.23-.67,2.39,2.39,0,0,1,.48-.6,2.65,2.65,0,0,1,.78-.47,2.48,2.48,0,0,1-1.14-1,2.87,2.87,0,0,1-.41-1.45,2.73,2.73,0,0,1,.76-2.13A3.11,3.11,0,0,1,98,99.45h4.75v1.06H98.34a3.11,3.11,0,0,0-1.74.4A1.64,1.64,0,0,0,96,102.4a1.91,1.91,0,0,0,.23,1,1.84,1.84,0,0,0,.62.65,2.84,2.84,0,0,0,.87.36,4.74,4.74,0,0,0,1,.11h4v1H98.34a3.2,3.2,0,0,0-1.74.4,1.65,1.65,0,0,0-.61,1.49,3.37,3.37,0,0,0,.06.44,1.62,1.62,0,0,0,.35.71,2.6,2.6,0,0,0,.87.67,3.52,3.52,0,0,0,1.6.29h3.84v1.06Z"/></g><line class="cls-3" x1="111.08" y1="46.63" x2="111.08" y2="216.95"/><line class="cls-3" x1="112.15" y1="46.63" x2="108.77" y2="46.63"/><line class="cls-3" x1="112.83" y1="216.95" x2="108.46" y2="216.95"/><line class="cls-3" x1="128.96" y1="226.86" x2="170.76" y2="226.86"/><line class="cls-3" x1="128.94" y1="225.57" x2="128.94" y2="228.16"/><line class="cls-3" x1="170.76" y1="225.57" x2="170.76" y2="228.16"/><g class="cls-2"><path d="M121.62,241.14a3.62,3.62,0,0,1,.68,1.16,4,4,0,0,1,.25,1.45,4.26,4.26,0,0,1-.29,1.57,3.8,3.8,0,0,1-.83,1.24,3.7,3.7,0,0,1-1.25.83,4.43,4.43,0,0,1-1.61.29,4.15,4.15,0,0,1-1.4-.22,3.72,3.72,0,0,1-1.11-.61L115,247.94l-.51-.5,1.06-1.08a3.78,3.78,0,0,1-.69-1.18,4.17,4.17,0,0,1-.24-1.43,4,4,0,0,1,.3-1.57,3.67,3.67,0,0,1,.82-1.25,3.76,3.76,0,0,1,1.26-.82,4.09,4.09,0,0,1,1.59-.3A4.18,4.18,0,0,1,120,240a3.84,3.84,0,0,1,1.15.61l1.06-1.08.51.49Zm-1.24.26a2.66,2.66,0,0,0-1.81-.63,3,3,0,0,0-1.18.23,2.7,2.7,0,0,0-.88.64,2.94,2.94,0,0,0-.56.94,3.42,3.42,0,0,0-.2,1.17,2.94,2.94,0,0,0,.55,1.82Zm-3.6,4.72a2.49,2.49,0,0,0,.8.44,2.86,2.86,0,0,0,1,.16,2.72,2.72,0,0,0,1.17-.23,2.48,2.48,0,0,0,.89-.63,2.73,2.73,0,0,0,.57-.94,3.51,3.51,0,0,0,.2-1.17,3.16,3.16,0,0,0-.54-1.83Z"/><path d="M134.42,243.75h1.64v1.05h-1.64v2.69h-1.15V244.8h-4.89v-1.31l4.57-7.33h1.47Zm-1.15-6.43h0l-3.9,6.43h3.93Z"/><path d="M139.93,241h.59a4.19,4.19,0,0,0,.95-.11,2.3,2.3,0,0,0,.79-.36,1.8,1.8,0,0,0,.54-.65,2.19,2.19,0,0,0,.2-1,1.82,1.82,0,0,0-.55-1.42,2.24,2.24,0,0,0-1.55-.5,2.36,2.36,0,0,0-1.26.32,2.52,2.52,0,0,0-.9.93l-1-.52a3.46,3.46,0,0,1,1.3-1.35,3.75,3.75,0,0,1,1.83-.44,4.38,4.38,0,0,1,1.27.19,3.18,3.18,0,0,1,1,.57,2.74,2.74,0,0,1,.71.93,3,3,0,0,1,.26,1.26,2.58,2.58,0,0,1-.15.88,2.85,2.85,0,0,1-1,1.33,2.89,2.89,0,0,1-.74.38l.05,0a2.34,2.34,0,0,1,.88.36,2.67,2.67,0,0,1,.69.65,3.06,3.06,0,0,1,.45.86,3.39,3.39,0,0,1,.16,1,3.23,3.23,0,0,1-.29,1.39,3,3,0,0,1-.79,1,3.65,3.65,0,0,1-1.15.63,4.54,4.54,0,0,1-1.39.21,4.27,4.27,0,0,1-2.18-.54,3.33,3.33,0,0,1-1.39-1.74l1.22-.37a2.46,2.46,0,0,0,.85,1.21,2.8,2.8,0,0,0,1.6.39,2.53,2.53,0,0,0,.91-.16,2.34,2.34,0,0,0,.76-.46,2,2,0,0,0,.51-.71,2.27,2.27,0,0,0,.18-.91,2.21,2.21,0,0,0-.24-1.08,1.91,1.91,0,0,0-.64-.71,2.65,2.65,0,0,0-.92-.4,4.7,4.7,0,0,0-1.08-.12h-.49Z"/><path d="M150,236a3.26,3.26,0,0,1,2,.56,3.77,3.77,0,0,1,1.16,1.43,6,6,0,0,1,.56,1.89,13.82,13.82,0,0,1,.15,2,13.58,13.58,0,0,1-.15,2,6.17,6.17,0,0,1-.56,1.9,3.66,3.66,0,0,1-1.16,1.42,3.75,3.75,0,0,1-3.94,0,3.78,3.78,0,0,1-1.17-1.42,6.45,6.45,0,0,1-.56-1.9,15.09,15.09,0,0,1-.14-2,15.36,15.36,0,0,1,.14-2,6.3,6.3,0,0,1,.56-1.89,3.89,3.89,0,0,1,1.17-1.43A3.24,3.24,0,0,1,150,236Zm0,1.06a2.09,2.09,0,0,0-1.47.49,3.2,3.2,0,0,0-.8,1.24,5.72,5.72,0,0,0-.35,1.56c0,.56-.07,1.06-.07,1.51s0,.95.07,1.5a5.71,5.71,0,0,0,.35,1.57,3.17,3.17,0,0,0,.8,1.23,2.09,2.09,0,0,0,1.47.5,2.07,2.07,0,0,0,1.46-.5,3.08,3.08,0,0,0,.81-1.23,5.7,5.7,0,0,0,.34-1.57c0-.55.08-1.05.08-1.5s0-1-.08-1.51a5.71,5.71,0,0,0-.34-1.56,3.11,3.11,0,0,0-.81-1.24A2.06,2.06,0,0,0,150,237Z"/><path d="M160.06,241.67c0-.28,0-.56,0-.83s0-.56-.05-.84h1.13v1.14h0a2.44,2.44,0,0,1,1.07-1,2.94,2.94,0,0,1,1.35-.34,3.07,3.07,0,0,1,.65.07,2.25,2.25,0,0,1,.66.23,2.18,2.18,0,0,1,.6.47,2.28,2.28,0,0,1,.47.78,2.53,2.53,0,0,1,1-1.13,3.07,3.07,0,0,1,3.58.34,3.17,3.17,0,0,1,.68,2.17v4.75h-1.05v-4.37a3.25,3.25,0,0,0-.4-1.74,1.65,1.65,0,0,0-1.49-.61,2,2,0,0,0-1,.23,1.93,1.93,0,0,0-.65.62,2.58,2.58,0,0,0-.36.87,4.9,4.9,0,0,0-.11,1v4h-1.06v-4.37a3.16,3.16,0,0,0-.4-1.74,1.63,1.63,0,0,0-1.49-.61,2.67,2.67,0,0,0-.44.07,1.67,1.67,0,0,0-.71.35,2.67,2.67,0,0,0-.66.86,3.53,3.53,0,0,0-.3,1.6v3.84h-1.05Z"/><path d="M173.69,241.67c0-.28,0-.56,0-.83s0-.56,0-.84h1.13v1.14h0a2.41,2.41,0,0,1,1.06-1,2.94,2.94,0,0,1,1.35-.34,3.07,3.07,0,0,1,.65.07,2.25,2.25,0,0,1,.66.23,2,2,0,0,1,.6.47,2.47,2.47,0,0,1,.48.78,2.45,2.45,0,0,1,1-1.13,3.07,3.07,0,0,1,3.58.34,3.12,3.12,0,0,1,.69,2.17v4.75H183.8v-4.37a3.16,3.16,0,0,0-.4-1.74,1.64,1.64,0,0,0-1.49-.61,2,2,0,0,0-1,.23,1.93,1.93,0,0,0-.65.62,3.07,3.07,0,0,0-.36.87,4.9,4.9,0,0,0-.11,1v4h-1.06v-4.37a3.16,3.16,0,0,0-.4-1.74,1.62,1.62,0,0,0-1.48-.61,2.52,2.52,0,0,0-.44.07,1.71,1.71,0,0,0-.72.35,2.67,2.67,0,0,0-.66.86,3.53,3.53,0,0,0-.3,1.6v3.84h-1.05Z"/></g><line class="cls-3" x1="128.96" y1="37.73" x2="170.76" y2="37.73"/><line class="cls-3" x1="128.94" y1="36.43" x2="128.94" y2="39.02"/><line class="cls-3" x1="170.76" y1="36.43" x2="170.76" y2="39.02"/><g class="cls-2"><path d="M122.6,22a3.62,3.62,0,0,1,.68,1.16,4.05,4.05,0,0,1,.25,1.45,4.22,4.22,0,0,1-.29,1.57,4,4,0,0,1-.83,1.25,3.82,3.82,0,0,1-1.25.82,4.23,4.23,0,0,1-1.61.3,4.15,4.15,0,0,1-1.4-.23,3.72,3.72,0,0,1-1.11-.61L116,28.8l-.51-.49,1.06-1.09a3.56,3.56,0,0,1-.69-1.18,4.17,4.17,0,0,1-.24-1.43,4,4,0,0,1,.3-1.57A3.65,3.65,0,0,1,118,21a4.09,4.09,0,0,1,1.59-.3,4.45,4.45,0,0,1,1.39.22,3.65,3.65,0,0,1,1.15.62l1.06-1.09.51.49Zm-1.24.26a2.66,2.66,0,0,0-1.81-.63,2.8,2.8,0,0,0-1.18.24,2.54,2.54,0,0,0-.88.63,3,3,0,0,0-.56.94,3.46,3.46,0,0,0-.2,1.17,2.92,2.92,0,0,0,.55,1.82ZM117.76,27a2.72,2.72,0,0,0,.8.45,3.07,3.07,0,0,0,1,.16,2.72,2.72,0,0,0,1.17-.24,2.48,2.48,0,0,0,.89-.63,2.64,2.64,0,0,0,.57-.94,3.42,3.42,0,0,0,.2-1.17,3.13,3.13,0,0,0-.54-1.82Z"/><path d="M136.19,18.08h-4.63l-.08,3.41a4.08,4.08,0,0,1,.76-.21,4.87,4.87,0,0,1,.76-.06,3.8,3.8,0,0,1,1.46.27,3.26,3.26,0,0,1,1.13.76,3.52,3.52,0,0,1,.73,1.15,4,4,0,0,1,0,3,3.39,3.39,0,0,1-.8,1.16,3.51,3.51,0,0,1-1.21.76,3.94,3.94,0,0,1-1.51.28,3.69,3.69,0,0,1-1.94-.52,3.35,3.35,0,0,1-1.32-1.5l1.15-.5a2.61,2.61,0,0,0,.89,1.07,2.28,2.28,0,0,0,1.32.39,2.56,2.56,0,0,0,1-.2,2.36,2.36,0,0,0,.8-.54,2.53,2.53,0,0,0,.55-.8,2.5,2.5,0,0,0,.2-1,2.82,2.82,0,0,0-.21-1.09,2.52,2.52,0,0,0-.58-.85,2.35,2.35,0,0,0-.88-.55,3.1,3.1,0,0,0-1.12-.2,4.59,4.59,0,0,0-1.21.17,5.67,5.67,0,0,0-1.14.46l.11-5.87h5.78Z"/><path d="M140.72,21.89l0,0a2,2,0,0,1,.73-.29,4.3,4.3,0,0,1,.84-.09,3.58,3.58,0,0,1,1.36.26,3.36,3.36,0,0,1,1.1.73,3.47,3.47,0,0,1,.73,1.1,3.8,3.8,0,0,1,.26,1.41,3.64,3.64,0,0,1-.27,1.43,3.27,3.27,0,0,1-.77,1.1,3.49,3.49,0,0,1-1.17.72,4,4,0,0,1-1.47.26,4.13,4.13,0,0,1-1.47-.26,3.49,3.49,0,0,1-1.17-.72,3.41,3.41,0,0,1-.77-1.1,3.64,3.64,0,0,1-.27-1.43,4.6,4.6,0,0,1,.28-1.65,9.53,9.53,0,0,1,.7-1.39l3.05-5h1.36ZM139.56,25a2.57,2.57,0,0,0,.19,1,2.18,2.18,0,0,0,.52.78,2.13,2.13,0,0,0,.8.5,3,3,0,0,0,2.05,0,2.21,2.21,0,0,0,.8-.5,2.48,2.48,0,0,0,.52-.78,2.57,2.57,0,0,0,.18-1,2.64,2.64,0,0,0-.18-1,2.43,2.43,0,0,0-.52-.77,2.52,2.52,0,0,0-.8-.5,2.86,2.86,0,0,0-2.05,0,2.41,2.41,0,0,0-.8.5,2.14,2.14,0,0,0-.52.77A2.64,2.64,0,0,0,139.56,25Z"/><path d="M151,16.83a3.26,3.26,0,0,1,2,.56,3.77,3.77,0,0,1,1.16,1.43,6.11,6.11,0,0,1,.56,1.89,13.14,13.14,0,0,1,0,4,6.11,6.11,0,0,1-.56,1.89A3.77,3.77,0,0,1,153,28,3.75,3.75,0,0,1,149,28a3.89,3.89,0,0,1-1.17-1.43,6.39,6.39,0,0,1-.56-1.89,14.07,14.07,0,0,1,0-4,6.39,6.39,0,0,1,.56-1.89A3.89,3.89,0,0,1,149,17.39,3.24,3.24,0,0,1,151,16.83Zm0,1.06a2.09,2.09,0,0,0-1.47.5,3.17,3.17,0,0,0-.8,1.23,5.71,5.71,0,0,0-.35,1.57c-.05.55-.07,1-.07,1.5s0,.95.07,1.5a5.71,5.71,0,0,0,.35,1.57,3.17,3.17,0,0,0,.8,1.23,2,2,0,0,0,1.47.5,2,2,0,0,0,1.46-.5,3.08,3.08,0,0,0,.81-1.23,5.7,5.7,0,0,0,.34-1.57c.05-.55.08-1.05.08-1.5s0-1-.08-1.5a5.7,5.7,0,0,0-.34-1.57,3.08,3.08,0,0,0-.81-1.23A2.07,2.07,0,0,0,151,17.89Z"/><path d="M161,22.53c0-.28,0-.55,0-.83s0-.56,0-.83h1.13V22h0a2.5,2.5,0,0,1,1.07-1,3.07,3.07,0,0,1,1.35-.34,3.9,3.9,0,0,1,.65.07,2.25,2.25,0,0,1,.66.23,2,2,0,0,1,.6.47,2.44,2.44,0,0,1,.47.79,2.56,2.56,0,0,1,1-1.14,3.07,3.07,0,0,1,3.58.34,3.17,3.17,0,0,1,.68,2.17v4.75h-1V24a3.26,3.26,0,0,0-.4-1.75,1.67,1.67,0,0,0-1.49-.61,1.87,1.87,0,0,0-1.64.85,2.58,2.58,0,0,0-.36.87,4.9,4.9,0,0,0-.11,1v4h-1.06V24a3.17,3.17,0,0,0-.4-1.75,1.67,1.67,0,0,0-1.49-.61l-.44.07a1.67,1.67,0,0,0-.71.35,2.53,2.53,0,0,0-.66.86,3.53,3.53,0,0,0-.3,1.6v3.84H161Z"/><path d="M174.67,22.53c0-.28,0-.55,0-.83s0-.56,0-.83h1.13V22h0a2.47,2.47,0,0,1,1.06-1,3.07,3.07,0,0,1,1.35-.34,3.9,3.9,0,0,1,.65.07,2.25,2.25,0,0,1,.66.23,2,2,0,0,1,.6.47,2.64,2.64,0,0,1,.48.79,2.48,2.48,0,0,1,1-1.14,3.07,3.07,0,0,1,3.58.34,3.12,3.12,0,0,1,.69,2.17v4.75h-1.06V24a3.17,3.17,0,0,0-.4-1.75,1.67,1.67,0,0,0-1.49-.61,1.87,1.87,0,0,0-1.64.85,3.07,3.07,0,0,0-.36.87,4.9,4.9,0,0,0-.11,1v4h-1.06V24a3.17,3.17,0,0,0-.4-1.75,1.65,1.65,0,0,0-1.48-.61,3.87,3.87,0,0,0-.44.07,1.71,1.71,0,0,0-.72.35,2.67,2.67,0,0,0-.66.86,3.53,3.53,0,0,0-.3,1.6v3.84h-1.05Z"/></g><line class="cls-3" x1="187.78" y1="46.9" x2="187.78" y2="89.73"/><line class="cls-3" x1="189.07" y1="46.88" x2="186.48" y2="46.88"/><line class="cls-3" x1="189.07" y1="89.73" x2="186.48" y2="89.73"/><g class="cls-2"><path d="M204.46,86V84.38h1.06V86h2.69v1.15h-2.69v4.9h-1.31l-7.33-4.58V86ZM198,87.16v0l6.43,3.91V87.16Z"/><path d="M208.21,75.8V83h-1.33l-4.59-4.51c-.17-.17-.36-.34-.55-.51a4.71,4.71,0,0,0-.61-.47,3.21,3.21,0,0,0-.67-.33,2,2,0,0,0-.73-.13,2.07,2.07,0,0,0-.84.17,1.79,1.79,0,0,0-.62.47,2.18,2.18,0,0,0-.39.7,2.66,2.66,0,0,0-.14.85,2.28,2.28,0,0,0,.48,1.47,2.17,2.17,0,0,0,1.3.79l-.13,1.21a3.14,3.14,0,0,1-2-1.16,3.49,3.49,0,0,1-.72-2.23,4.59,4.59,0,0,1,.18-1.3,3.29,3.29,0,0,1,.55-1.09,2.69,2.69,0,0,1,.92-.75,2.79,2.79,0,0,1,1.29-.28,3.29,3.29,0,0,1,1.2.2,4.46,4.46,0,0,1,1,.52,6.27,6.27,0,0,1,.92.73c.28.27.57.55.84.84l3.54,3.56v-6Z"/><path d="M197.93,67.43v4.63l3.41.08a5.26,5.26,0,0,1-.21-.75,5.09,5.09,0,0,1-.06-.77,3.8,3.8,0,0,1,.27-1.46A3.41,3.41,0,0,1,202.1,68a3.52,3.52,0,0,1,1.15-.73,4,4,0,0,1,2.95,0,3.53,3.53,0,0,1,1.17.8,3.94,3.94,0,0,1,.76,1.21,4.13,4.13,0,0,1,.27,1.51,3.75,3.75,0,0,1-.51,1.94,3.45,3.45,0,0,1-1.51,1.33L205.89,73a2.64,2.64,0,0,0,1.06-.89,2.28,2.28,0,0,0,.39-1.32,2.43,2.43,0,0,0-.2-1,2.6,2.6,0,0,0-.53-.8,2.46,2.46,0,0,0-.8-.54,2.38,2.38,0,0,0-1-.2,2.92,2.92,0,0,0-1.08.2,2.5,2.5,0,0,0-1.41,1.46,3.1,3.1,0,0,0-.19,1.12,4.52,4.52,0,0,0,.16,1.21,6.32,6.32,0,0,0,.46,1.14l-5.87-.11V67.43Z"/><path d="M202.38,60.38l-.83,0-.83.06V59.32h1.13v0a2.59,2.59,0,0,1-1-1.06,3.12,3.12,0,0,1-.33-1.36,3.72,3.72,0,0,1,.06-.64,2.42,2.42,0,0,1,.23-.67,2.34,2.34,0,0,1,.47-.6,2.85,2.85,0,0,1,.79-.47,2.45,2.45,0,0,1-1.14-1,2.81,2.81,0,0,1-.41-1.44,2.73,2.73,0,0,1,.76-2.13,3.1,3.1,0,0,1,2.16-.69h4.76v1.06h-4.37a3.17,3.17,0,0,0-1.75.4,1.64,1.64,0,0,0-.6,1.48,1.92,1.92,0,0,0,.23,1,1.87,1.87,0,0,0,.61.64,2.55,2.55,0,0,0,.88.36,4.17,4.17,0,0,0,1,.12h4v1h-4.37a3.26,3.26,0,0,0-1.75.4,1.66,1.66,0,0,0-.6,1.49,3.61,3.61,0,0,0,.06.44,1.62,1.62,0,0,0,.35.71,2.5,2.5,0,0,0,.87.67,3.63,3.63,0,0,0,1.6.29h3.84v1.06Z"/><path d="M202.38,46.75c-.28,0-.55,0-.83,0l-.83.06V45.69h1.13v0a2.56,2.56,0,0,1-1-1.07,3.05,3.05,0,0,1-.33-1.35,3.83,3.83,0,0,1,.06-.65,2.23,2.23,0,0,1,.7-1.26,2.63,2.63,0,0,1,.79-.47,2.45,2.45,0,0,1-1.14-1,2.82,2.82,0,0,1-.41-1.45,2.7,2.7,0,0,1,.76-2.12,3.1,3.1,0,0,1,2.16-.69h4.76v1.05h-4.37a3.26,3.26,0,0,0-1.75.4,1.67,1.67,0,0,0-.6,1.49,1.86,1.86,0,0,0,.23,1,1.81,1.81,0,0,0,.61.65,2.55,2.55,0,0,0,.88.36,4.17,4.17,0,0,0,1,.11h4v1.06h-4.37a3.17,3.17,0,0,0-1.75.4,1.66,1.66,0,0,0-.6,1.49,3.61,3.61,0,0,0,.06.44,1.62,1.62,0,0,0,.35.71,2.37,2.37,0,0,0,.87.66,3.48,3.48,0,0,0,1.6.3h3.84v1.06Z"/></g></svg>