<svg xmlns="http://www.w3.org/2000/svg" viewBox="0 0 300 263"><defs><style>.cls-1,.cls-2,.cls-3,.cls-4{fill:none;stroke-linecap:round;}.cls-1,.cls-2{stroke:red;}.cls-1,.cls-2,.cls-4{stroke-linejoin:round;}.cls-1,.cls-3,.cls-4{stroke-width:0.6px;}.cls-3,.cls-4{stroke:#000;}.cls-3{stroke-miterlimit:10;}</style></defs><title>may-day-table-grcic-flos-F37800-curva-fotometrica</title><g id="numeri_esterni_diagramma" data-name="numeri esterni diagramma"><path d="M148.27,239.2a6.85,6.85,0,0,1,.08-1,3.41,3.41,0,0,1,.3-.95,1.94,1.94,0,0,1,.59-.71,1.57,1.57,0,0,1,.95-.27,1.6,1.6,0,0,1,1,.27,2,2,0,0,1,.59.71,3.1,3.1,0,0,1,.29.95,5.7,5.7,0,0,1,.08,1,5.85,5.85,0,0,1-.08,1,3.13,3.13,0,0,1-.29.94,2,2,0,0,1-.59.71,1.6,1.6,0,0,1-1,.27,1.57,1.57,0,0,1-.95-.27,1.94,1.94,0,0,1-.59-.71,3.45,3.45,0,0,1-.3-.94A7.07,7.07,0,0,1,148.27,239.2Zm.68,0c0,.13,0,.29,0,.46a4.88,4.88,0,0,0,.06.52,2.83,2.83,0,0,0,.13.5,1.65,1.65,0,0,0,.22.44,1.24,1.24,0,0,0,.34.31,1,1,0,0,0,.48.12.9.9,0,0,0,.48-.12,1,1,0,0,0,.34-.31,1.41,1.41,0,0,0,.23-.44,4.07,4.07,0,0,0,.13-.5c0-.18,0-.35.06-.52s0-.33,0-.46,0-.3,0-.47,0-.34-.06-.51a3.8,3.8,0,0,0-.13-.51,1.53,1.53,0,0,0-.23-.44,1,1,0,0,0-.34-.31.9.9,0,0,0-.48-.12,1,1,0,0,0-.48.12,1.24,1.24,0,0,0-.34.31,1.81,1.81,0,0,0-.22.44,2.72,2.72,0,0,0-.13.51,4.43,4.43,0,0,0-.06.51C149,238.9,149,239.06,149,239.2Z"/><path d="M152.83,237.41a1.33,1.33,0,0,1,.08-.45,1.11,1.11,0,0,1,.25-.36,1,1,0,0,1,.36-.24,1.17,1.17,0,0,1,.9,0,1,1,0,0,1,.36.24,1.11,1.11,0,0,1,.25.36,1.31,1.31,0,0,1,0,.9,1.23,1.23,0,0,1-.61.61,1.17,1.17,0,0,1-.9,0,1.23,1.23,0,0,1-.61-.61A1.33,1.33,0,0,1,152.83,237.41Zm.43,0a.79.79,0,0,0,.05.25.68.68,0,0,0,.14.23.66.66,0,0,0,.23.17.73.73,0,0,0,.58,0,.76.76,0,0,0,.23-.17.88.88,0,0,0,.14-.23.65.65,0,0,0,0-.5,1.09,1.09,0,0,0-.14-.23,1,1,0,0,0-.23-.17.73.73,0,0,0-.58,0,.81.81,0,0,0-.23.17.75.75,0,0,0-.19.48Z"/><path d="M203.17,238.76h.21l.43,0a1.15,1.15,0,0,0,.42-.13.77.77,0,0,0,.31-.31.94.94,0,0,0,.13-.51.87.87,0,0,0-.27-.68,1,1,0,0,0-.7-.26,1.28,1.28,0,0,0-.63.16,1.14,1.14,0,0,0-.41.48l-.65-.25a1.48,1.48,0,0,1,.65-.72,2.07,2.07,0,0,1,1-.24,2.25,2.25,0,0,1,.64.09,1.72,1.72,0,0,1,.54.28,1.37,1.37,0,0,1,.37.46,1.48,1.48,0,0,1,.14.65,1.29,1.29,0,0,1-.27.8,1.34,1.34,0,0,1-.7.49v0a1.48,1.48,0,0,1,.85.49,1.37,1.37,0,0,1,.23.43,1.69,1.69,0,0,1,.08.5,1.66,1.66,0,0,1-.15.72,1.57,1.57,0,0,1-.41.51,1.71,1.71,0,0,1-.6.31,2.34,2.34,0,0,1-.71.1,2.18,2.18,0,0,1-1.13-.28,1.61,1.61,0,0,1-.7-.91l.68-.22a1.33,1.33,0,0,0,.41.65,1.3,1.3,0,0,0,.74.19,1.33,1.33,0,0,0,.45-.08,1.11,1.11,0,0,0,.36-.23,1.24,1.24,0,0,0,.25-.35,1.13,1.13,0,0,0,.09-.45,1.07,1.07,0,0,0-.12-.53,1,1,0,0,0-.33-.33,1.23,1.23,0,0,0-.46-.18,2.31,2.31,0,0,0-.52-.06h-.21Z"/><path d="M206.24,239.2a6.85,6.85,0,0,1,.08-1,3.11,3.11,0,0,1,.3-.95,1.94,1.94,0,0,1,.59-.71,1.55,1.55,0,0,1,.95-.27,1.6,1.6,0,0,1,1,.27,2,2,0,0,1,.59.71,3.1,3.1,0,0,1,.29.95,5.7,5.7,0,0,1,.08,1,5.85,5.85,0,0,1-.08,1,3.13,3.13,0,0,1-.29.94,2,2,0,0,1-.59.71,1.6,1.6,0,0,1-1,.27,1.55,1.55,0,0,1-.95-.27,1.94,1.94,0,0,1-.59-.71,3.14,3.14,0,0,1-.3-.94A7.07,7.07,0,0,1,206.24,239.2Zm.67,0c0,.13,0,.29,0,.46a4.88,4.88,0,0,0,.06.52,2.83,2.83,0,0,0,.13.5,1.4,1.4,0,0,0,.22.44,1.24,1.24,0,0,0,.34.31,1,1,0,0,0,.48.12.9.9,0,0,0,.48-.12,1,1,0,0,0,.34-.31,1.41,1.41,0,0,0,.23-.44,4.05,4.05,0,0,0,.12-.5,4.88,4.88,0,0,0,.06-.52,3.86,3.86,0,0,0,0-.46,3.94,3.94,0,0,0,0-.47,4.43,4.43,0,0,0-.06-.51,3.81,3.81,0,0,0-.12-.51,1.53,1.53,0,0,0-.23-.44,1,1,0,0,0-.34-.31.9.9,0,0,0-.48-.12,1,1,0,0,0-.48.12,1.24,1.24,0,0,0-.34.31,1.51,1.51,0,0,0-.22.44,2.72,2.72,0,0,0-.13.51,4.43,4.43,0,0,0-.06.51C206.92,238.9,206.91,239.06,206.91,239.2Z"/><path d="M210.84,237.41a1.13,1.13,0,0,1,.09-.45,1.26,1.26,0,0,1,.24-.36,1.2,1.2,0,0,1,.82-.33,1,1,0,0,1,.44.09,1.12,1.12,0,0,1,.37.24,1.26,1.26,0,0,1,.24.36,1.16,1.16,0,0,1-.24,1.26,1.15,1.15,0,0,1-.37.25,1,1,0,0,1-.44.09,1.13,1.13,0,0,1-.45-.09,1.15,1.15,0,0,1-.37-.25,1.15,1.15,0,0,1-.33-.81Zm.43,0a.61.61,0,0,0,.06.25.68.68,0,0,0,.14.23.72.72,0,0,0,.22.17.73.73,0,0,0,.3.06.72.72,0,0,0,.29-.06.62.62,0,0,0,.22-.17.91.91,0,0,0,.15-.23.65.65,0,0,0,0-.5,1.14,1.14,0,0,0-.15-.23.76.76,0,0,0-.22-.17.72.72,0,0,0-.29-.06.73.73,0,0,0-.3.06.92.92,0,0,0-.22.17.79.79,0,0,0-.14.23A.61.61,0,0,0,211.27,237.41Z"/><path d="M93.6,238.76h.21l.44,0a1.1,1.1,0,0,0,.41-.13.86.86,0,0,0,.32-.31.94.94,0,0,0,.12-.51.87.87,0,0,0-.27-.68,1,1,0,0,0-.7-.26,1.21,1.21,0,0,0-.62.16,1.1,1.1,0,0,0-.42.48l-.65-.25a1.45,1.45,0,0,1,.66-.72,2,2,0,0,1,1-.24,2.32,2.32,0,0,1,.65.09,2,2,0,0,1,.54.28,1.67,1.67,0,0,1,.37.46,1.48,1.48,0,0,1,.13.65,1.29,1.29,0,0,1-.27.8,1.34,1.34,0,0,1-.7.49v0a1.31,1.31,0,0,1,.49.18,1.34,1.34,0,0,1,.36.31,1.37,1.37,0,0,1,.23.43,1.42,1.42,0,0,1,.08.5,1.66,1.66,0,0,1-.15.72,1.57,1.57,0,0,1-.41.51,1.75,1.75,0,0,1-.59.31,2.46,2.46,0,0,1-.72.1,2.18,2.18,0,0,1-1.13-.28,1.56,1.56,0,0,1-.69-.91l.68-.22a1.2,1.2,0,0,0,.41.65,1.27,1.27,0,0,0,.73.19,1.33,1.33,0,0,0,.45-.08,1.11,1.11,0,0,0,.36-.23,1.07,1.07,0,0,0,.25-.35,1.13,1.13,0,0,0,.09-.45,1.07,1.07,0,0,0-.12-.53.87.87,0,0,0-.33-.33,1.17,1.17,0,0,0-.46-.18,2.24,2.24,0,0,0-.52-.06H93.6Z"/><path d="M96.68,239.2a5.7,5.7,0,0,1,.08-1,3.1,3.1,0,0,1,.29-.95,2,2,0,0,1,.59-.71,1.6,1.6,0,0,1,1-.27,1.57,1.57,0,0,1,1,.27,1.94,1.94,0,0,1,.59.71,3.41,3.41,0,0,1,.3.95,6.85,6.85,0,0,1,.08,1,7.07,7.07,0,0,1-.08,1,3.45,3.45,0,0,1-.3.94,1.94,1.94,0,0,1-.59.71,1.57,1.57,0,0,1-1,.27,1.6,1.6,0,0,1-1-.27,2,2,0,0,1-.59-.71,3.13,3.13,0,0,1-.29-.94A5.85,5.85,0,0,1,96.68,239.2Zm.67,0c0,.13,0,.29,0,.46a4.88,4.88,0,0,0,.06.52,4.07,4.07,0,0,0,.13.5,1.41,1.41,0,0,0,.23.44,1,1,0,0,0,.34.31.9.9,0,0,0,.48.12,1,1,0,0,0,.48-.12,1.24,1.24,0,0,0,.34-.31,1.65,1.65,0,0,0,.22-.44,2.83,2.83,0,0,0,.13-.5,4.88,4.88,0,0,0,.06-.52c0-.17,0-.33,0-.46s0-.3,0-.47a4.43,4.43,0,0,0-.06-.51,2.72,2.72,0,0,0-.13-.51,1.81,1.81,0,0,0-.22-.44,1.24,1.24,0,0,0-.34-.31,1,1,0,0,0-.48-.12.9.9,0,0,0-.48.12,1,1,0,0,0-.34.31,1.53,1.53,0,0,0-.23.44,3.8,3.8,0,0,0-.13.51,4.43,4.43,0,0,0-.06.51C97.35,238.9,97.35,239.06,97.35,239.2Z"/><path d="M101.28,237.41a1.33,1.33,0,0,1,.08-.45,1.11,1.11,0,0,1,.25-.36,1,1,0,0,1,.36-.24,1.17,1.17,0,0,1,.9,0,1,1,0,0,1,.36.24,1.11,1.11,0,0,1,.25.36,1.31,1.31,0,0,1,0,.9,1.23,1.23,0,0,1-.61.61,1.17,1.17,0,0,1-.9,0,1.23,1.23,0,0,1-.61-.61A1.33,1.33,0,0,1,101.28,237.41Zm.43,0a.79.79,0,0,0,.05.25.68.68,0,0,0,.14.23.76.76,0,0,0,.23.17.73.73,0,0,0,.58,0,.66.66,0,0,0,.23-.17.68.68,0,0,0,.14-.23.71.71,0,0,0-.14-.73.81.81,0,0,0-.23-.17.73.73,0,0,0-.58,0,1,1,0,0,0-.23.17.75.75,0,0,0-.19.48Z"/><path d="M249.93,137.18h0a1.24,1.24,0,0,1-.37.12,1.84,1.84,0,0,1-.39,0,1.91,1.91,0,0,1-.68-.12,1.58,1.58,0,0,1-.54-.37,1.63,1.63,0,0,1-.36-.56,2.05,2.05,0,0,1-.13-.72,1.79,1.79,0,0,1,.15-.75,1.48,1.48,0,0,1,.4-.55,1.79,1.79,0,0,1,.6-.35,2,2,0,0,1,.75-.13,2.11,2.11,0,0,1,.75.13,1.79,1.79,0,0,1,.6.35,1.59,1.59,0,0,1,.4.55,1.79,1.79,0,0,1,.14.75,2.15,2.15,0,0,1,0,.45,1.68,1.68,0,0,1-.11.4,2.59,2.59,0,0,1-.17.38l-.21.36-1.51,2.39h-.78Zm-.59-.42a1.28,1.28,0,0,0,.48-.09,1,1,0,0,0,.39-.24,1.23,1.23,0,0,0,.26-.37,1.43,1.43,0,0,0,0-1,1.1,1.1,0,0,0-.65-.62,1.48,1.48,0,0,0-1,0,1.28,1.28,0,0,0-.39.24,1.12,1.12,0,0,0-.26.38,1.3,1.3,0,0,0,0,1,1.08,1.08,0,0,0,.26.37,1,1,0,0,0,.39.24A1.28,1.28,0,0,0,249.34,136.76Z"/><path d="M251.82,136.71a7.07,7.07,0,0,1,.08-1,3.19,3.19,0,0,1,.29-1,2,2,0,0,1,.59-.7,1.54,1.54,0,0,1,1-.28,1.49,1.49,0,0,1,.95.28,1.91,1.91,0,0,1,.59.7,2.94,2.94,0,0,1,.3,1,6.29,6.29,0,0,1,0,2,2.94,2.94,0,0,1-.3.95,1.91,1.91,0,0,1-.59.7,1.49,1.49,0,0,1-.95.28,1.54,1.54,0,0,1-1-.28,2,2,0,0,1-.59-.7,3.19,3.19,0,0,1-.29-.95A7.07,7.07,0,0,1,251.82,136.71Zm.67,0c0,.14,0,.29,0,.46a4.6,4.6,0,0,0,.06.52,4.7,4.7,0,0,0,.12.51,2,2,0,0,0,.23.44,1,1,0,0,0,.34.31,1,1,0,0,0,.48.11,1.06,1.06,0,0,0,.48-.11,1.24,1.24,0,0,0,.34-.31,1.65,1.65,0,0,0,.22-.44,3.18,3.18,0,0,0,.13-.51,4.6,4.6,0,0,0,.06-.52c0-.17,0-.32,0-.46s0-.29,0-.46a4.6,4.6,0,0,0-.06-.52,3.18,3.18,0,0,0-.13-.51,1.65,1.65,0,0,0-.22-.44,1.24,1.24,0,0,0-.34-.31,1.06,1.06,0,0,0-.48-.11,1,1,0,0,0-.48.11,1,1,0,0,0-.34.31,2,2,0,0,0-.23.44,4.7,4.7,0,0,0-.12.51,4.6,4.6,0,0,0-.06.52C252.5,136.42,252.49,136.57,252.49,136.71Z"/><path d="M256.42,134.93a1.13,1.13,0,0,1,.09-.45,1.31,1.31,0,0,1,.24-.37,1.18,1.18,0,0,1,.37-.24,1,1,0,0,1,.44-.09,1.13,1.13,0,0,1,.45.09,1.06,1.06,0,0,1,.61.61,1.13,1.13,0,0,1,.09.45,1,1,0,0,1-.09.44,1.06,1.06,0,0,1-.61.61,1.13,1.13,0,0,1-.45.09,1,1,0,0,1-.44-.09,1.18,1.18,0,0,1-.37-.24,1.31,1.31,0,0,1-.24-.37A1,1,0,0,1,256.42,134.93Zm.43,0a.69.69,0,0,0,0,.24,1,1,0,0,0,.15.24.73.73,0,0,0,.51.23.54.54,0,0,0,.29-.07.63.63,0,0,0,.23-.16.72.72,0,0,0,.14-.24.52.52,0,0,0,0-.24.56.56,0,0,0,0-.25.59.59,0,0,0-.14-.23.74.74,0,0,0-.52-.24.73.73,0,0,0-.29.07.62.62,0,0,0-.22.17.76.76,0,0,0-.15.23A.74.74,0,0,0,256.85,134.93Z"/><path d="M41.57,137.18h0a1.34,1.34,0,0,1-.37.12,2,2,0,0,1-.39,0,1.92,1.92,0,0,1-.69-.12,1.58,1.58,0,0,1-.54-.37,1.8,1.8,0,0,1-.36-.56,2.05,2.05,0,0,1-.13-.72,1.79,1.79,0,0,1,.15-.75,1.48,1.48,0,0,1,.4-.55,1.79,1.79,0,0,1,.6-.35,2.23,2.23,0,0,1,1.5,0,1.79,1.79,0,0,1,.6.35,1.48,1.48,0,0,1,.4.55,1.79,1.79,0,0,1,.15.75,3.14,3.14,0,0,1,0,.45,2.34,2.34,0,0,1-.12.4,1.84,1.84,0,0,1-.17.38,3.35,3.35,0,0,1-.21.36l-1.5,2.39h-.79Zm-.59-.42a1.28,1.28,0,0,0,.48-.09,1,1,0,0,0,.39-.24,1.23,1.23,0,0,0,.26-.37,1.3,1.3,0,0,0,0-1,1.1,1.1,0,0,0-.65-.62,1.48,1.48,0,0,0-1,0,1.1,1.1,0,0,0-.65.62,1.43,1.43,0,0,0,0,1,1.23,1.23,0,0,0,.26.37,1,1,0,0,0,.39.24A1.28,1.28,0,0,0,41,136.76Z"/><path d="M43.46,136.71a7.07,7.07,0,0,1,.08-1,2.94,2.94,0,0,1,.3-1,1.91,1.91,0,0,1,.59-.7,1.49,1.49,0,0,1,1-.28,1.54,1.54,0,0,1,1,.28,2,2,0,0,1,.59.7,3.19,3.19,0,0,1,.29,1,6.29,6.29,0,0,1,0,2,3.19,3.19,0,0,1-.29.95,2,2,0,0,1-.59.7,1.54,1.54,0,0,1-1,.28,1.49,1.49,0,0,1-1-.28,1.91,1.91,0,0,1-.59-.7,2.94,2.94,0,0,1-.3-.95A7.07,7.07,0,0,1,43.46,136.71Zm.67,0c0,.14,0,.29,0,.46a4.6,4.6,0,0,0,.06.52,3.18,3.18,0,0,0,.13.51,1.65,1.65,0,0,0,.22.44,1.12,1.12,0,0,0,.34.31,1.1,1.1,0,0,0,1,0,1.12,1.12,0,0,0,.34-.31,2,2,0,0,0,.23-.44,4.7,4.7,0,0,0,.12-.51,4.6,4.6,0,0,0,.06-.52c0-.17,0-.32,0-.46s0-.29,0-.46a4.6,4.6,0,0,0-.06-.52,4.7,4.7,0,0,0-.12-.51,2,2,0,0,0-.23-.44,1.12,1.12,0,0,0-.34-.31,1.1,1.1,0,0,0-1,0,1.12,1.12,0,0,0-.34.31,1.65,1.65,0,0,0-.22.44,3.18,3.18,0,0,0-.13.51,4.6,4.6,0,0,0-.06.52C44.14,136.42,44.13,136.57,44.13,136.71Z"/><path d="M48.06,134.93a1.13,1.13,0,0,1,.09-.45,1.06,1.06,0,0,1,.61-.61,1.13,1.13,0,0,1,.45-.09,1.08,1.08,0,0,1,.44.09,1.06,1.06,0,0,1,.61.61,1.13,1.13,0,0,1,.09.45,1,1,0,0,1-.09.44,1.06,1.06,0,0,1-.61.61,1.08,1.08,0,0,1-.44.09,1.13,1.13,0,0,1-.45-.09,1.06,1.06,0,0,1-.61-.61A1,1,0,0,1,48.06,134.93Zm.43,0a.53.53,0,0,0,.06.24.72.72,0,0,0,.14.24.69.69,0,0,0,.22.16.6.6,0,0,0,.3.07.73.73,0,0,0,.51-.23,1,1,0,0,0,.15-.24.69.69,0,0,0,.05-.24.74.74,0,0,0-.05-.25.76.76,0,0,0-.15-.23.62.62,0,0,0-.22-.17.73.73,0,0,0-.29-.07.73.73,0,0,0-.3.07.72.72,0,0,0-.22.17.59.59,0,0,0-.14.23A.57.57,0,0,0,48.49,134.93Z"/><path d="M148.37,38.51h-.68v-4.8h0l-1,.85-.4-.48,1.52-1.24h.59Z"/><path d="M150.49,34.23a1.48,1.48,0,0,1,.13-.61,1.2,1.2,0,0,1,.34-.46,1.44,1.44,0,0,1,.51-.3,1.92,1.92,0,0,1,1.28,0,1.44,1.44,0,0,1,.51.3,1.2,1.2,0,0,1,.34.46,1.33,1.33,0,0,1,.13.61,1.16,1.16,0,0,1-.07.4,1.41,1.41,0,0,1-.18.37,1.33,1.33,0,0,1-.29.29,1.18,1.18,0,0,1-.39.19h0a1.44,1.44,0,0,1,.46.19,1.35,1.35,0,0,1,.35.32,1.42,1.42,0,0,1,.23.44,1.7,1.7,0,0,1,.08.51,1.74,1.74,0,0,1-.14.69,1.43,1.43,0,0,1-.39.52,1.47,1.47,0,0,1-.57.33,2.35,2.35,0,0,1-1.42,0,1.47,1.47,0,0,1-.57-.33,1.55,1.55,0,0,1-.39-.52,1.74,1.74,0,0,1-.14-.69,1.7,1.7,0,0,1,.08-.51,1.67,1.67,0,0,1,.23-.44,1.35,1.35,0,0,1,.35-.32,1.44,1.44,0,0,1,.46-.19h0a1.18,1.18,0,0,1-.39-.19,1.33,1.33,0,0,1-.29-.29,1.41,1.41,0,0,1-.18-.37A1.46,1.46,0,0,1,150.49,34.23ZM151,36.9a1.18,1.18,0,0,0,.09.46,1.07,1.07,0,0,0,.25.35,1,1,0,0,0,.36.23,1.12,1.12,0,0,0,.88,0,1,1,0,0,0,.36-.23,1.07,1.07,0,0,0,.25-.35,1.18,1.18,0,0,0,.09-.46,1.14,1.14,0,0,0-.09-.46,1.13,1.13,0,0,0-.61-.58,1.12,1.12,0,0,0-.88,0,1.13,1.13,0,0,0-.61.58A1.14,1.14,0,0,0,151,36.9Zm.2-2.64a.88.88,0,0,0,.26.67,1,1,0,0,0,1.36,0,1,1,0,0,0,0-1.34,1,1,0,0,0-1.36,0A.88.88,0,0,0,151.17,34.26Z"/><path d="M154.64,35.68a7,7,0,0,1,.08-1,3.1,3.1,0,0,1,.29-1,2,2,0,0,1,.59-.71,1.6,1.6,0,0,1,1-.27,1.55,1.55,0,0,1,.95.27,1.94,1.94,0,0,1,.59.71,2.86,2.86,0,0,1,.3,1,7,7,0,0,1,.08,1,7.07,7.07,0,0,1-.08,1,2.88,2.88,0,0,1-.3.94,1.94,1.94,0,0,1-.59.71,1.55,1.55,0,0,1-.95.27,1.6,1.6,0,0,1-1-.27,2,2,0,0,1-.59-.71,3.13,3.13,0,0,1-.29-.94A7.07,7.07,0,0,1,154.64,35.68Zm.67,0c0,.13,0,.29,0,.46a4.88,4.88,0,0,0,.06.52,4.05,4.05,0,0,0,.12.5,1.66,1.66,0,0,0,.23.44,1.12,1.12,0,0,0,.34.31,1,1,0,0,0,1,0,1.12,1.12,0,0,0,.34-.31,1.4,1.4,0,0,0,.22-.44,2.83,2.83,0,0,0,.13-.5,4.88,4.88,0,0,0,.06-.52c0-.17,0-.33,0-.46s0-.3,0-.47a4.43,4.43,0,0,0-.06-.51,2.72,2.72,0,0,0-.13-.51,1.51,1.51,0,0,0-.22-.44,1.12,1.12,0,0,0-.34-.31,1,1,0,0,0-1,0,1.12,1.12,0,0,0-.34.31,1.83,1.83,0,0,0-.23.44,3.81,3.81,0,0,0-.12.51,4.43,4.43,0,0,0-.06.51C155.32,35.38,155.31,35.54,155.31,35.68Z"/><path d="M159.24,33.89a1.15,1.15,0,0,1,.33-.81,1,1,0,0,1,.37-.24,1,1,0,0,1,.44-.09,1.15,1.15,0,0,1,.82,2,1.15,1.15,0,0,1-.37.25,1.13,1.13,0,0,1-.45.09,1.15,1.15,0,0,1-.81-.34,1.15,1.15,0,0,1-.33-.81Zm.43,0a.79.79,0,0,0,.05.25,1.14,1.14,0,0,0,.15.23.62.62,0,0,0,.22.17.72.72,0,0,0,.29.06.68.68,0,0,0,.52-.23.79.79,0,0,0,.14-.23.65.65,0,0,0,0-.5.79.79,0,0,0-.14-.23.81.81,0,0,0-.23-.17.65.65,0,0,0-.29-.06.72.72,0,0,0-.29.06.76.76,0,0,0-.22.17,1.14,1.14,0,0,0-.15.23A.79.79,0,0,0,159.67,33.89Z"/><path d="M203.18,38.51h-.68v-4.8h0l-1,.85-.4-.48,1.52-1.24h.59Z"/><path d="M208.49,33.47h-2.31l0,1.53a1.08,1.08,0,0,1,.36-.11l.37,0a2,2,0,0,1,.74.14,1.61,1.61,0,0,1,.57.39,1.9,1.9,0,0,1,.37.59,2,2,0,0,1,.13.74,2,2,0,0,1-.15.78,1.74,1.74,0,0,1-.41.59,1.91,1.91,0,0,1-.61.38,2.2,2.2,0,0,1-.78.13,1.73,1.73,0,0,1-1-.28,2,2,0,0,1-.63-.75l.67-.25a1.31,1.31,0,0,0,.42.51,1.1,1.1,0,0,0,.64.2,1.28,1.28,0,0,0,.48-.09,1.26,1.26,0,0,0,.38-.27,1.15,1.15,0,0,0,.26-.41,1.53,1.53,0,0,0,.1-.54,1.38,1.38,0,0,0-.11-.55,1.08,1.08,0,0,0-.3-.4,1.26,1.26,0,0,0-.44-.25,1.67,1.67,0,0,0-.55-.08,1.84,1.84,0,0,0-.6.1,2.58,2.58,0,0,0-.56.25l.06-2.95h3Z"/><path d="M209.45,35.68a7,7,0,0,1,.08-1,3.1,3.1,0,0,1,.29-1,2,2,0,0,1,.59-.71,1.6,1.6,0,0,1,1-.27,1.55,1.55,0,0,1,.95.27,1.94,1.94,0,0,1,.59.71,2.86,2.86,0,0,1,.3,1,7,7,0,0,1,.08,1,7.07,7.07,0,0,1-.08,1,2.88,2.88,0,0,1-.3.94,1.94,1.94,0,0,1-.59.71,1.55,1.55,0,0,1-.95.27,1.6,1.6,0,0,1-1-.27,2,2,0,0,1-.59-.71,3.13,3.13,0,0,1-.29-.94A7.07,7.07,0,0,1,209.45,35.68Zm.67,0c0,.13,0,.29,0,.46a4.88,4.88,0,0,0,.06.52,4.05,4.05,0,0,0,.12.5,1.66,1.66,0,0,0,.23.44,1,1,0,0,0,.34.31.9.9,0,0,0,.48.12,1,1,0,0,0,.48-.12,1.24,1.24,0,0,0,.34-.31,1.4,1.4,0,0,0,.22-.44,2.83,2.83,0,0,0,.13-.5,4.88,4.88,0,0,0,.06-.52c0-.17,0-.33,0-.46s0-.3,0-.47a4.43,4.43,0,0,0-.06-.51,2.72,2.72,0,0,0-.13-.51,1.51,1.51,0,0,0-.22-.44,1.24,1.24,0,0,0-.34-.31,1,1,0,0,0-.48-.12.9.9,0,0,0-.48.12,1,1,0,0,0-.34.31,1.83,1.83,0,0,0-.23.44,3.81,3.81,0,0,0-.12.51,4.43,4.43,0,0,0-.06.51C210.13,35.38,210.12,35.54,210.12,35.68Z"/><path d="M214.05,33.89a1.15,1.15,0,0,1,.33-.81,1,1,0,0,1,.37-.24,1,1,0,0,1,.44-.09,1.13,1.13,0,0,1,.45.09,1,1,0,0,1,.36.24,1,1,0,0,1,.25.36,1.17,1.17,0,0,1,0,.9,1.23,1.23,0,0,1-.61.61,1.13,1.13,0,0,1-.45.09,1.15,1.15,0,0,1-.81-.34,1.15,1.15,0,0,1-.33-.81Zm.43,0a.79.79,0,0,0,.05.25,1.14,1.14,0,0,0,.15.23.62.62,0,0,0,.22.17.72.72,0,0,0,.29.06.68.68,0,0,0,.52-.23.79.79,0,0,0,.14-.23.65.65,0,0,0,0-.5.79.79,0,0,0-.14-.23.81.81,0,0,0-.23-.17.65.65,0,0,0-.29-.06.72.72,0,0,0-.29.06.76.76,0,0,0-.22.17,1.14,1.14,0,0,0-.15.23A.79.79,0,0,0,214.48,33.89Z"/><path d="M93.61,38.51h-.67v-4.8h0l-1,.85-.4-.48L93,32.84h.58Z"/><path d="M98.92,33.47H96.61l0,1.53a1,1,0,0,1,.35-.11l.37,0a1.91,1.91,0,0,1,.74.14,1.65,1.65,0,0,1,.58.39A1.71,1.71,0,0,1,99,36a2,2,0,0,1,.13.74,2,2,0,0,1-.15.78,1.71,1.71,0,0,1-.4.59,2,2,0,0,1-.62.38,2.15,2.15,0,0,1-.77.13,1.78,1.78,0,0,1-1.05-.28,1.85,1.85,0,0,1-.62-.75l.67-.25a1.16,1.16,0,0,0,.42.51,1.05,1.05,0,0,0,.63.2,1.28,1.28,0,0,0,.48-.09,1.23,1.23,0,0,0,.64-.68,1.33,1.33,0,0,0,.1-.54,1.38,1.38,0,0,0-.11-.55,1.18,1.18,0,0,0-.29-.4,1.41,1.41,0,0,0-.45-.25,1.63,1.63,0,0,0-.55-.08,1.78,1.78,0,0,0-.59.1,2.58,2.58,0,0,0-.56.25l0-2.95h3Z"/><path d="M99.88,35.68a7,7,0,0,1,.08-1,3.11,3.11,0,0,1,.3-1,1.94,1.94,0,0,1,.59-.71,1.55,1.55,0,0,1,1-.27,1.6,1.6,0,0,1,1,.27,2,2,0,0,1,.59.71,3.1,3.1,0,0,1,.29,1,5.77,5.77,0,0,1,.08,1,5.85,5.85,0,0,1-.08,1,3.13,3.13,0,0,1-.29.94,2,2,0,0,1-.59.71,1.6,1.6,0,0,1-1,.27,1.55,1.55,0,0,1-1-.27,1.94,1.94,0,0,1-.59-.71,3.14,3.14,0,0,1-.3-.94A7.07,7.07,0,0,1,99.88,35.68Zm.67,0c0,.13,0,.29,0,.46a4.88,4.88,0,0,0,.06.52,2.83,2.83,0,0,0,.13.5,1.4,1.4,0,0,0,.22.44,1.24,1.24,0,0,0,.34.31,1,1,0,0,0,.48.12.9.9,0,0,0,.48-.12,1,1,0,0,0,.34-.31,1.41,1.41,0,0,0,.23-.44,4.05,4.05,0,0,0,.12-.5,4.88,4.88,0,0,0,.06-.52c0-.17,0-.33,0-.46s0-.3,0-.47a4.43,4.43,0,0,0-.06-.51,3.81,3.81,0,0,0-.12-.51,1.53,1.53,0,0,0-.23-.44,1,1,0,0,0-.34-.31.9.9,0,0,0-.48-.12,1,1,0,0,0-.48.12,1.24,1.24,0,0,0-.34.31,1.51,1.51,0,0,0-.22.44,2.72,2.72,0,0,0-.13.51,4.43,4.43,0,0,0-.06.51C100.56,35.38,100.55,35.54,100.55,35.68Z"/><path d="M104.48,33.89a1.15,1.15,0,0,1,1.15-1.14,1,1,0,0,1,.44.09,1.12,1.12,0,0,1,.37.24,1.16,1.16,0,0,1,0,1.62,1.15,1.15,0,0,1-.37.25,1,1,0,0,1-.44.09,1.13,1.13,0,0,1-.45-.09,1.15,1.15,0,0,1-.37-.25,1.15,1.15,0,0,1-.33-.81Zm.43,0a.61.61,0,0,0,.06.25.79.79,0,0,0,.14.23.72.72,0,0,0,.22.17.73.73,0,0,0,.3.06.72.72,0,0,0,.29-.06.62.62,0,0,0,.22-.17,1.14,1.14,0,0,0,.15-.23.65.65,0,0,0,0-.5,1.14,1.14,0,0,0-.15-.23.76.76,0,0,0-.22-.17.72.72,0,0,0-.29-.06.73.73,0,0,0-.3.06.92.92,0,0,0-.22.17.79.79,0,0,0-.14.23A.61.61,0,0,0,104.91,33.89Z"/><path d="M248.75,192.45v0a1.35,1.35,0,0,1,.37-.13,2,2,0,0,1,.39,0,1.73,1.73,0,0,1,.69.13,1.42,1.42,0,0,1,.54.36,1.85,1.85,0,0,1,.36.57,2,2,0,0,1,.12.72,1.78,1.78,0,0,1-.14.74,1.74,1.74,0,0,1-.4.56,2,2,0,0,1-.6.35,2.36,2.36,0,0,1-.75.12,2.27,2.27,0,0,1-.75-.12,2,2,0,0,1-.6-.35,1.6,1.6,0,0,1-.4-.56,1.78,1.78,0,0,1-.15-.74,2.24,2.24,0,0,1,.15-.86,5.28,5.28,0,0,1,.39-.74l1.5-2.39h.79Zm.59.43a1.23,1.23,0,0,0-.87.32,1,1,0,0,0-.26.38,1.31,1.31,0,0,0-.1.5,1.35,1.35,0,0,0,.1.5,1.08,1.08,0,0,0,.26.37,1,1,0,0,0,.39.24,1.32,1.32,0,0,0,1,0,1,1,0,0,0,.39-.24,1.23,1.23,0,0,0,.26-.37,1.35,1.35,0,0,0,.09-.5,1.31,1.31,0,0,0-.09-.5,1.16,1.16,0,0,0-.26-.38,1.23,1.23,0,0,0-.87-.32Z"/><path d="M251.82,192.92a7.07,7.07,0,0,1,.08-1,3.13,3.13,0,0,1,.29-.94,2,2,0,0,1,.59-.71,1.6,1.6,0,0,1,1-.27,1.55,1.55,0,0,1,.95.27,1.94,1.94,0,0,1,.59.71,2.88,2.88,0,0,1,.3.94,7.07,7.07,0,0,1,.08,1,7,7,0,0,1-.08,1,2.86,2.86,0,0,1-.3,1,1.94,1.94,0,0,1-.59.71,1.55,1.55,0,0,1-.95.27,1.6,1.6,0,0,1-1-.27,2,2,0,0,1-.59-.71,3.1,3.1,0,0,1-.29-1A7,7,0,0,1,251.82,192.92Zm.67,0c0,.14,0,.3,0,.47a4.43,4.43,0,0,0,.06.51,3.81,3.81,0,0,0,.12.51,1.83,1.83,0,0,0,.23.44,1,1,0,0,0,.34.31.9.9,0,0,0,.48.12,1,1,0,0,0,.48-.12,1.24,1.24,0,0,0,.34-.31,1.51,1.51,0,0,0,.22-.44,2.72,2.72,0,0,0,.13-.51,4.43,4.43,0,0,0,.06-.51c0-.17,0-.33,0-.47s0-.29,0-.46a4.88,4.88,0,0,0-.06-.52,2.83,2.83,0,0,0-.13-.5,1.4,1.4,0,0,0-.22-.44,1.1,1.1,0,0,0-.34-.31,1,1,0,0,0-.48-.12.9.9,0,0,0-.48.12.92.92,0,0,0-.34.31,1.66,1.66,0,0,0-.23.44,4.05,4.05,0,0,0-.12.5,4.88,4.88,0,0,0-.06.52C252.5,192.63,252.49,192.79,252.49,192.92Z"/><path d="M256.42,191.14a1.15,1.15,0,0,1,.33-.81,1.05,1.05,0,0,1,.37-.25,1.23,1.23,0,0,1,.44-.08,1.33,1.33,0,0,1,.45.08,1.15,1.15,0,0,1,.37.25,1.16,1.16,0,0,1,0,1.62,1.15,1.15,0,0,1-.37.25,1.33,1.33,0,0,1-.45.08,1.23,1.23,0,0,1-.44-.08,1.05,1.05,0,0,1-.37-.25,1.15,1.15,0,0,1-.33-.81Zm.43,0a.79.79,0,0,0,0,.25,1.14,1.14,0,0,0,.15.23.62.62,0,0,0,.22.17.72.72,0,0,0,.29.06.68.68,0,0,0,.52-.23.79.79,0,0,0,.14-.23.65.65,0,0,0,0-.5.79.79,0,0,0-.14-.23.68.68,0,0,0-.52-.23.72.72,0,0,0-.29.06.62.62,0,0,0-.22.17,1.14,1.14,0,0,0-.15.23A.79.79,0,0,0,256.85,191.14Z"/><path d="M250,81.22h-.67v-4.8h0l-1,.86-.4-.49,1.52-1.23H250Z"/><path d="M251.92,80.45l2.13-2.08c.13-.12.25-.24.35-.35a2.16,2.16,0,0,0,.25-.32,1.09,1.09,0,0,0,.15-.33,1.38,1.38,0,0,0,0-.37,1,1,0,0,0-.08-.4.84.84,0,0,0-.22-.3.78.78,0,0,0-.33-.19,1.05,1.05,0,0,0-.4-.07,1,1,0,0,0-.71.25,1.08,1.08,0,0,0-.36.65l-.73-.06a1.83,1.83,0,0,1,.21-.61,1.41,1.41,0,0,1,.39-.45,2,2,0,0,1,.53-.27,2.25,2.25,0,0,1,.64-.09,2.41,2.41,0,0,1,.67.1,1.92,1.92,0,0,1,.55.29,1.44,1.44,0,0,1,.51,1.15,2,2,0,0,1-.09.61,2,2,0,0,1-.25.5,3.47,3.47,0,0,1-.35.43l-.41.4-1.75,1.64v0h2.89v.62h-3.64Z"/><path d="M256.27,78.39a5.85,5.85,0,0,1,.08-1,3.19,3.19,0,0,1,.29-1,2,2,0,0,1,.59-.7,1.54,1.54,0,0,1,1-.28,1.51,1.51,0,0,1,.95.28,1.91,1.91,0,0,1,.59.7,3.2,3.2,0,0,1,.3,1,6.29,6.29,0,0,1,0,2,3.2,3.2,0,0,1-.3,1,1.91,1.91,0,0,1-.59.7,1.51,1.51,0,0,1-.95.28,1.54,1.54,0,0,1-1-.28,2,2,0,0,1-.59-.7,3.19,3.19,0,0,1-.29-1A5.85,5.85,0,0,1,256.27,78.39Zm.67,0a3.78,3.78,0,0,0,0,.46c0,.17,0,.35.05.52a4.77,4.77,0,0,0,.13.51,1.67,1.67,0,0,0,.23.44,1,1,0,0,0,.34.31,1,1,0,0,0,.48.11,1.06,1.06,0,0,0,.48-.11,1.24,1.24,0,0,0,.34-.31,2,2,0,0,0,.22-.44,3.18,3.18,0,0,0,.13-.51,4.6,4.6,0,0,0,.06-.52c0-.17,0-.32,0-.46s0-.29,0-.46a4.35,4.35,0,0,0-.06-.52,3.18,3.18,0,0,0-.13-.51,2,2,0,0,0-.22-.44,1.24,1.24,0,0,0-.34-.31,1.06,1.06,0,0,0-.48-.11,1,1,0,0,0-.48.11,1,1,0,0,0-.34.31,1.67,1.67,0,0,0-.23.44,4.77,4.77,0,0,0-.13.51c0,.17,0,.34-.05.52A3.78,3.78,0,0,0,256.94,78.39Z"/><path d="M260.87,76.61a1.13,1.13,0,0,1,.09-.45,1,1,0,0,1,.24-.37,1.16,1.16,0,0,1,1.62,0,1.15,1.15,0,0,1,.25.37,1.13,1.13,0,0,1,.09.45,1,1,0,0,1-.09.44,1.15,1.15,0,0,1-.25.37,1.16,1.16,0,0,1-1.62,0,1,1,0,0,1-.24-.37A1,1,0,0,1,260.87,76.61Zm.43,0a.69.69,0,0,0,.05.24.75.75,0,0,0,.15.24.6.6,0,0,0,.22.16.64.64,0,0,0,.58,0,.63.63,0,0,0,.23-.16.72.72,0,0,0,.14-.24.52.52,0,0,0,.05-.24.56.56,0,0,0-.05-.25.59.59,0,0,0-.14-.23.66.66,0,0,0-.23-.17.64.64,0,0,0-.58,0,.62.62,0,0,0-.22.17.61.61,0,0,0-.15.23A.74.74,0,0,0,261.3,76.61Z"/><path d="M40.39,192.45v0a1.42,1.42,0,0,1,.38-.13,1.84,1.84,0,0,1,.39,0,1.72,1.72,0,0,1,.68.13,1.42,1.42,0,0,1,.54.36,1.85,1.85,0,0,1,.36.57,2,2,0,0,1,.13.72,1.78,1.78,0,0,1-.15.74,1.6,1.6,0,0,1-.4.56,2,2,0,0,1-.6.35,2.4,2.4,0,0,1-1.5,0,2,2,0,0,1-.6-.35,1.6,1.6,0,0,1-.4-.56,1.78,1.78,0,0,1-.15-.74,2.24,2.24,0,0,1,.16-.86,5.19,5.19,0,0,1,.38-.74l1.5-2.39h.79Zm.59.43a1.23,1.23,0,0,0-.87.32,1.16,1.16,0,0,0-.26.38,1.31,1.31,0,0,0-.09.5,1.35,1.35,0,0,0,.09.5,1.23,1.23,0,0,0,.26.37,1,1,0,0,0,.39.24,1.32,1.32,0,0,0,1,0,1,1,0,0,0,.39-.24,1.23,1.23,0,0,0,.26-.37,1.35,1.35,0,0,0,.1-.5,1.31,1.31,0,0,0-.1-.5,1.16,1.16,0,0,0-.26-.38,1.23,1.23,0,0,0-.87-.32Z"/><path d="M43.46,192.92a7.07,7.07,0,0,1,.08-1,2.88,2.88,0,0,1,.3-.94,1.94,1.94,0,0,1,.59-.71,1.55,1.55,0,0,1,1-.27,1.6,1.6,0,0,1,1,.27,2,2,0,0,1,.59.71,3.13,3.13,0,0,1,.29.94,7.07,7.07,0,0,1,.08,1,7,7,0,0,1-.08,1,3.1,3.1,0,0,1-.29,1,2,2,0,0,1-.59.71,1.6,1.6,0,0,1-1,.27,1.55,1.55,0,0,1-1-.27,1.94,1.94,0,0,1-.59-.71,2.86,2.86,0,0,1-.3-1A7,7,0,0,1,43.46,192.92Zm.67,0c0,.14,0,.3,0,.47a4.43,4.43,0,0,0,.06.51,2.72,2.72,0,0,0,.13.51,1.51,1.51,0,0,0,.22.44,1.12,1.12,0,0,0,.34.31,1,1,0,0,0,1,0,1.12,1.12,0,0,0,.34-.31,1.83,1.83,0,0,0,.23-.44,3.81,3.81,0,0,0,.12-.51,4.43,4.43,0,0,0,.06-.51c0-.17,0-.33,0-.47s0-.29,0-.46a4.88,4.88,0,0,0-.06-.52,4.05,4.05,0,0,0-.12-.5,1.66,1.66,0,0,0-.23-.44,1,1,0,0,0-.34-.31,1,1,0,0,0-1,0,1,1,0,0,0-.34.31,1.4,1.4,0,0,0-.22.44,2.83,2.83,0,0,0-.13.5,4.88,4.88,0,0,0-.06.52C44.14,192.63,44.13,192.79,44.13,192.92Z"/><path d="M48.06,191.14a1.15,1.15,0,0,1,.33-.81,1.15,1.15,0,0,1,.37-.25,1.33,1.33,0,0,1,.45-.08,1.27,1.27,0,0,1,.44.08,1.15,1.15,0,0,1,.37.25A1.16,1.16,0,0,1,50,192a1.15,1.15,0,0,1-.37.25,1.27,1.27,0,0,1-.44.08,1.33,1.33,0,0,1-.45-.08,1.15,1.15,0,0,1-.37-.25,1.15,1.15,0,0,1-.33-.81Zm.43,0a.61.61,0,0,0,.06.25.79.79,0,0,0,.14.23.72.72,0,0,0,.22.17.73.73,0,0,0,.3.06.72.72,0,0,0,.29-.06.62.62,0,0,0,.22-.17,1.14,1.14,0,0,0,.15-.23.65.65,0,0,0,0-.5,1.14,1.14,0,0,0-.15-.23.62.62,0,0,0-.22-.17.72.72,0,0,0-.29-.06.73.73,0,0,0-.3.06.72.72,0,0,0-.22.17.79.79,0,0,0-.14.23A.61.61,0,0,0,48.49,191.14Z"/><path d="M39.15,81.22h-.67v-4.8h0l-1,.86-.4-.49,1.52-1.23h.58Z"/><path d="M41.07,80.45l2.14-2.08c.13-.12.25-.24.35-.35a2.16,2.16,0,0,0,.25-.32,1.09,1.09,0,0,0,.15-.33A1.38,1.38,0,0,0,44,77a1,1,0,0,0-.08-.4.84.84,0,0,0-.22-.3.78.78,0,0,0-.33-.19A1.05,1.05,0,0,0,43,76a1,1,0,0,0-.72.25,1.19,1.19,0,0,0-.36.65l-.72-.06a1.47,1.47,0,0,1,.21-.61,1.41,1.41,0,0,1,.39-.45,2,2,0,0,1,.53-.27,2.2,2.2,0,0,1,.64-.09,2.41,2.41,0,0,1,.67.1,2.06,2.06,0,0,1,.55.29,1.47,1.47,0,0,1,.37.48,1.6,1.6,0,0,1,.14.67,2,2,0,0,1-.09.61,2.34,2.34,0,0,1-.25.5,3.47,3.47,0,0,1-.35.43l-.41.4-1.75,1.64v0h2.89v.62H41.07Z"/><path d="M45.43,78.39a7,7,0,0,1,.07-1,3.52,3.52,0,0,1,.3-1,2,2,0,0,1,.59-.7,1.77,1.77,0,0,1,1.91,0,1.91,1.91,0,0,1,.59.7,3.52,3.52,0,0,1,.3,1,6.29,6.29,0,0,1,0,2,3.52,3.52,0,0,1-.3,1,1.91,1.91,0,0,1-.59.7,1.77,1.77,0,0,1-1.91,0,2,2,0,0,1-.59-.7,3.52,3.52,0,0,1-.3-1A7,7,0,0,1,45.43,78.39Zm.67,0c0,.14,0,.29,0,.46a4.6,4.6,0,0,0,.06.52,4.77,4.77,0,0,0,.13.51,2,2,0,0,0,.22.44,1.15,1.15,0,0,0,.35.31,1,1,0,0,0,.48.11,1.06,1.06,0,0,0,.48-.11,1.24,1.24,0,0,0,.34-.31,2,2,0,0,0,.22-.44,3.18,3.18,0,0,0,.13-.51,4.6,4.6,0,0,0,.06-.52c0-.17,0-.32,0-.46s0-.29,0-.46a4.35,4.35,0,0,0-.06-.52,3.18,3.18,0,0,0-.13-.51,2,2,0,0,0-.22-.44,1.24,1.24,0,0,0-.34-.31,1.06,1.06,0,0,0-.48-.11,1,1,0,0,0-.48.11,1.15,1.15,0,0,0-.35.31,2,2,0,0,0-.22.44,4.77,4.77,0,0,0-.13.51,4.35,4.35,0,0,0-.06.52C46.1,78.1,46.1,78.25,46.1,78.39Z"/><path d="M50,76.61a1.12,1.12,0,0,1,.08-.45,1.15,1.15,0,0,1,.25-.37,1.16,1.16,0,0,1,1.62,0,1.15,1.15,0,0,1,.25.37,1.33,1.33,0,0,1,.08.45,1.23,1.23,0,0,1-.08.44,1.15,1.15,0,0,1-.25.37,1.16,1.16,0,0,1-1.62,0,1.15,1.15,0,0,1-.25-.37A1,1,0,0,1,50,76.61Zm.43,0a.52.52,0,0,0,0,.24.72.72,0,0,0,.14.24.63.63,0,0,0,.23.16.64.64,0,0,0,.58,0,.73.73,0,0,0,.23-.16,1,1,0,0,0,.14-.24.69.69,0,0,0,.05-.24.75.75,0,0,0-.19-.48.76.76,0,0,0-.23-.17.64.64,0,0,0-.58,0,.66.66,0,0,0-.23.17.59.59,0,0,0-.14.23A.56.56,0,0,0,50.46,76.61Z"/></g><g id="numeri_fondo_tabella" data-name="numeri fondo tabella"><path d="M131.83,251.42a1.17,1.17,0,0,0-.43-.35,1.19,1.19,0,0,0-.51-.11,1.35,1.35,0,0,0-.55.11,1.08,1.08,0,0,0-.4.3,1.32,1.32,0,0,0-.23.44,1.76,1.76,0,0,0,0,1.08,1.43,1.43,0,0,0,.26.45,1.31,1.31,0,0,0,.39.3,1.27,1.27,0,0,0,.52.1,1.09,1.09,0,0,0,1-.46l.47.44a1.69,1.69,0,0,1-.64.46,2.29,2.29,0,0,1-.78.14,2.22,2.22,0,0,1-.79-.14,1.75,1.75,0,0,1-1-1,2.27,2.27,0,0,1,0-1.57,1.86,1.86,0,0,1,.39-.63,2,2,0,0,1,.61-.41,2,2,0,0,1,.79-.15,2.09,2.09,0,0,1,.79.15,1.59,1.59,0,0,1,.65.45Z"/><path d="M136.21,253.56h0a1.43,1.43,0,0,1-.55.54,1.7,1.7,0,0,1-.89.22,1.8,1.8,0,0,1-.73-.15,1.78,1.78,0,0,1-.6-.41,1.81,1.81,0,0,1-.39-.62,2.06,2.06,0,0,1-.15-.79,2,2,0,0,1,.15-.78,1.88,1.88,0,0,1,.4-.63,1.81,1.81,0,0,1,.62-.41,2.07,2.07,0,0,1,.8-.15,1.72,1.72,0,0,1,.75.17,1.78,1.78,0,0,1,.59.47h0v-2.84h.62v6h-.62Zm0-1.21a1.63,1.63,0,0,0-.09-.55,1.34,1.34,0,0,0-.27-.44,1.37,1.37,0,0,0-.42-.29,1.35,1.35,0,0,0-.55-.11,1.42,1.42,0,0,0-.55.11,1.22,1.22,0,0,0-.41.29,1.34,1.34,0,0,0-.27.44,1.56,1.56,0,0,0,0,1.1,1.25,1.25,0,0,0,.27.44,1.19,1.19,0,0,0,1,.4,1.35,1.35,0,0,0,.55-.1,1.6,1.6,0,0,0,.42-.3,1.25,1.25,0,0,0,.27-.44A1.63,1.63,0,0,0,136.21,252.35Z"/><path d="M140.1,254.57l-.5-.2,2.4-6.15.51.2Z"/><path d="M147.64,254.22H147v-4.8h0l-1,.86-.4-.49,1.52-1.23h.59Z"/><path d="M149.46,251.39a7.07,7.07,0,0,1,.08-1,3.19,3.19,0,0,1,.29-.95,2,2,0,0,1,.59-.7,1.61,1.61,0,0,1,1-.28,1.55,1.55,0,0,1,1,.28,1.91,1.91,0,0,1,.59.7,2.94,2.94,0,0,1,.3.95,6.29,6.29,0,0,1,0,2,2.94,2.94,0,0,1-.3,1,1.91,1.91,0,0,1-.59.7,1.49,1.49,0,0,1-1,.28,1.54,1.54,0,0,1-1-.28,2,2,0,0,1-.59-.7,3.19,3.19,0,0,1-.29-1A7.07,7.07,0,0,1,149.46,251.39Zm.67,0c0,.14,0,.29,0,.47a4.43,4.43,0,0,0,.06.51,4.7,4.7,0,0,0,.12.51,2,2,0,0,0,.23.44,1.12,1.12,0,0,0,.34.31,1.1,1.1,0,0,0,1,0,1.12,1.12,0,0,0,.34-.31,1.65,1.65,0,0,0,.22-.44,3.18,3.18,0,0,0,.13-.51,4.43,4.43,0,0,0,.06-.51c0-.18,0-.33,0-.47s0-.29,0-.46a4.6,4.6,0,0,0-.06-.52,3.18,3.18,0,0,0-.13-.51,1.65,1.65,0,0,0-.22-.44,1.08,1.08,0,0,0-.34-.3,1,1,0,0,0-1,0,1.08,1.08,0,0,0-.34.3,2,2,0,0,0-.23.44,4.7,4.7,0,0,0-.12.51,4.6,4.6,0,0,0-.06.52C150.14,251.1,150.13,251.25,150.13,251.39Z"/><path d="M153.91,251.39a5.85,5.85,0,0,1,.08-1,3.19,3.19,0,0,1,.29-.95,2,2,0,0,1,.59-.7,1.61,1.61,0,0,1,1-.28,1.55,1.55,0,0,1,.95.28,1.91,1.91,0,0,1,.59.7,3.2,3.2,0,0,1,.3.95,6.29,6.29,0,0,1,0,2,3.2,3.2,0,0,1-.3,1,1.91,1.91,0,0,1-.59.7,1.49,1.49,0,0,1-.95.28,1.54,1.54,0,0,1-1-.28,2,2,0,0,1-.59-.7,3.19,3.19,0,0,1-.29-1A5.85,5.85,0,0,1,153.91,251.39Zm.67,0a4,4,0,0,0,0,.47,4.43,4.43,0,0,0,.06.51,3.14,3.14,0,0,0,.12.51,1.67,1.67,0,0,0,.23.44,1,1,0,0,0,.34.31.9.9,0,0,0,.48.11,1,1,0,0,0,.48-.11,1.24,1.24,0,0,0,.34-.31,1.65,1.65,0,0,0,.22-.44,3.18,3.18,0,0,0,.13-.51,4.43,4.43,0,0,0,.06-.51c0-.18,0-.33,0-.47s0-.29,0-.46a4.6,4.6,0,0,0-.06-.52,3.18,3.18,0,0,0-.13-.51,1.65,1.65,0,0,0-.22-.44,1.21,1.21,0,0,0-.34-.3,1,1,0,0,0-.48-.12.9.9,0,0,0-.48.12,1,1,0,0,0-.34.3,1.67,1.67,0,0,0-.23.44,3.14,3.14,0,0,0-.12.51,4.6,4.6,0,0,0-.06.52A3.78,3.78,0,0,0,154.58,251.39Z"/><path d="M158.31,251.39a5.85,5.85,0,0,1,.08-1,3.19,3.19,0,0,1,.29-.95,2,2,0,0,1,.59-.7,1.61,1.61,0,0,1,1-.28,1.55,1.55,0,0,1,1,.28,1.91,1.91,0,0,1,.59.7,3.2,3.2,0,0,1,.3.95,6.29,6.29,0,0,1,0,2,3.2,3.2,0,0,1-.3,1,1.91,1.91,0,0,1-.59.7,1.49,1.49,0,0,1-1,.28,1.54,1.54,0,0,1-1-.28,2,2,0,0,1-.59-.7,3.19,3.19,0,0,1-.29-1A5.85,5.85,0,0,1,158.31,251.39Zm.67,0c0,.14,0,.29,0,.47a4.43,4.43,0,0,0,.06.51,3.14,3.14,0,0,0,.12.51,1.67,1.67,0,0,0,.23.44,1,1,0,0,0,.34.31.9.9,0,0,0,.48.11,1,1,0,0,0,.48-.11,1.24,1.24,0,0,0,.34-.31,1.65,1.65,0,0,0,.22-.44,3.18,3.18,0,0,0,.13-.51,4.43,4.43,0,0,0,.06-.51c0-.18,0-.33,0-.47s0-.29,0-.46a4.6,4.6,0,0,0-.06-.52,3.18,3.18,0,0,0-.13-.51,1.65,1.65,0,0,0-.22-.44,1.21,1.21,0,0,0-.34-.3,1,1,0,0,0-.48-.12.9.9,0,0,0-.48.12,1,1,0,0,0-.34.3,1.67,1.67,0,0,0-.23.44,3.14,3.14,0,0,0-.12.51,4.6,4.6,0,0,0-.06.52C159,251.1,159,251.25,159,251.39Z"/><path d="M165.32,248.18H166v6h-.63Z"/><path d="M167.19,251.37c0-.17,0-.33,0-.48s0-.29,0-.41h.59c0,.1,0,.2,0,.3v.32h0a.91.91,0,0,1,.18-.27,1.64,1.64,0,0,1,.28-.23,1.5,1.5,0,0,1,.36-.16,1.44,1.44,0,0,1,.43-.06,1.52,1.52,0,0,1,.51.08,1.36,1.36,0,0,1,.34.18.93.93,0,0,1,.21.24,1.64,1.64,0,0,1,.12.22,1.78,1.78,0,0,1,.48-.53,1.27,1.27,0,0,1,.71-.19,1.88,1.88,0,0,1,.67.11,1.1,1.1,0,0,1,.44.31,1.37,1.37,0,0,1,.24.5,2.59,2.59,0,0,1,.07.65v2.27h-.62V252a2.33,2.33,0,0,0,0-.37,1,1,0,0,0-.15-.33.71.71,0,0,0-.28-.23,1,1,0,0,0-.45-.09,1,1,0,0,0-.37.08,1,1,0,0,0-.31.22,1.13,1.13,0,0,0-.21.35,1.33,1.33,0,0,0-.07.45v2.16h-.63V252.1a1.62,1.62,0,0,0-.17-.88A.6.6,0,0,0,169,251a1.18,1.18,0,0,0-.52.1.88.88,0,0,0-.36.3,1.14,1.14,0,0,0-.21.46,2.1,2.1,0,0,0-.07.58v1.82h-.62Z"/><line class="cls-1" x1="38.21" y1="253" x2="46.2" y2="253"/><path d="M235.17,251a1.66,1.66,0,0,0-.63-.52,1.93,1.93,0,0,0-.79-.17,2.13,2.13,0,0,0-.87.19,2.16,2.16,0,0,0-.68.52,2.58,2.58,0,0,0-.45.75,2.69,2.69,0,0,0-.16.89,2.79,2.79,0,0,0,.16.93,2.41,2.41,0,0,0,.45.74,2,2,0,0,0,.68.5,1.92,1.92,0,0,0,.87.19,2,2,0,0,0,1.64-.8l.51.43a2.38,2.38,0,0,1-.93.75,3,3,0,0,1-1.22.24,2.85,2.85,0,0,1-1.13-.22,2.82,2.82,0,0,1-.92-.62,3,3,0,0,1-.61-.94,3.33,3.33,0,0,1-.22-1.2,3.19,3.19,0,0,1,.21-1.16,2.9,2.9,0,0,1,.6-1,3.08,3.08,0,0,1,.91-.63,3,3,0,0,1,2.27,0,2,2,0,0,1,.89.68Z"/><path d="M239,253.1l0,0a1.35,1.35,0,0,1-.37.13,2.87,2.87,0,0,1-.39,0,1.68,1.68,0,0,1-.68-.13,1.5,1.5,0,0,1-.55-.36,1.92,1.92,0,0,1-.36-.56,2.11,2.11,0,0,1-.12-.73,1.75,1.75,0,0,1,.14-.74,1.63,1.63,0,0,1,.4-.56,1.79,1.79,0,0,1,.6-.35,2.36,2.36,0,0,1,.75-.12,2.27,2.27,0,0,1,.75.12,1.94,1.94,0,0,1,.61.35,1.49,1.49,0,0,1,.39.56,1.75,1.75,0,0,1,.15.74,2.19,2.19,0,0,1,0,.46c0,.14-.07.27-.11.4a2.53,2.53,0,0,1-.18.37,3.35,3.35,0,0,1-.21.36l-1.5,2.4h-.79Zm-.6-.43a1.51,1.51,0,0,0,.48-.08,1.28,1.28,0,0,0,.39-.24,1.12,1.12,0,0,0,.26-.38,1.27,1.27,0,0,0,.1-.5,1.26,1.26,0,0,0-.1-.49,1,1,0,0,0-.26-.38,1,1,0,0,0-.39-.24,1.33,1.33,0,0,0-1,0,.88.88,0,0,0-.38.24,1.19,1.19,0,0,0-.27.38,1.26,1.26,0,0,0-.09.49,1.28,1.28,0,0,0,.09.5,1.31,1.31,0,0,0,.27.38,1.12,1.12,0,0,0,.38.24A1.51,1.51,0,0,0,238.35,252.67Z"/><path d="M240.88,252.62a7.07,7.07,0,0,1,.08-1,2.88,2.88,0,0,1,.3-.94,2,2,0,0,1,.58-.71,1.84,1.84,0,0,1,1.92,0,2,2,0,0,1,.58.71,2.88,2.88,0,0,1,.3.94,7.07,7.07,0,0,1,.08,1,7,7,0,0,1-.08,1,2.86,2.86,0,0,1-.3.95,2,2,0,0,1-.58.71,1.84,1.84,0,0,1-1.92,0,2,2,0,0,1-.58-.71,2.86,2.86,0,0,1-.3-.95A7,7,0,0,1,240.88,252.62Zm.67,0c0,.14,0,.3,0,.47a4.43,4.43,0,0,0,.06.51,2.72,2.72,0,0,0,.13.51,1.51,1.51,0,0,0,.22.44,1.12,1.12,0,0,0,.34.31,1,1,0,0,0,1,0,1.12,1.12,0,0,0,.34-.31,1.51,1.51,0,0,0,.22-.44,2.72,2.72,0,0,0,.13-.51,4.43,4.43,0,0,0,.06-.51c0-.17,0-.33,0-.47s0-.29,0-.46a4.88,4.88,0,0,0-.06-.52,2.83,2.83,0,0,0-.13-.5,1.4,1.4,0,0,0-.22-.44,1.12,1.12,0,0,0-.34-.31,1,1,0,0,0-1,0,1.12,1.12,0,0,0-.34.31,1.4,1.4,0,0,0-.22.44,2.83,2.83,0,0,0-.13.5,4.88,4.88,0,0,0-.06.52C241.56,252.33,241.55,252.49,241.55,252.62Z"/><path d="M247.78,255.8l-.51-.2,2.41-6.14.5.19Z"/><path d="M257.1,251a1.66,1.66,0,0,0-.63-.52,1.92,1.92,0,0,0-.78-.17,2.06,2.06,0,0,0-.87.19,2.16,2.16,0,0,0-.68.52,2.21,2.21,0,0,0-.45.75,2.46,2.46,0,0,0-.16.89,2.56,2.56,0,0,0,.16.93,2.2,2.2,0,0,0,.44.74,2.1,2.1,0,0,0,.68.5,2,2,0,0,0,.88.19,2,2,0,0,0,.93-.21,2,2,0,0,0,.71-.59l.5.43a2.29,2.29,0,0,1-.92.75,3,3,0,0,1-1.22.24,2.8,2.8,0,0,1-2.05-.84,2.82,2.82,0,0,1-.61-.94,3.13,3.13,0,0,1-.22-1.2,3.19,3.19,0,0,1,.21-1.16,2.75,2.75,0,0,1,.6-1,3,3,0,0,1,.91-.63,2.93,2.93,0,0,1,1.16-.23,3,3,0,0,1,1.11.21,2,2,0,0,1,.89.68Z"/><path d="M258.46,254.69l2.14-2.08.35-.36a1.75,1.75,0,0,0,.25-.32,1,1,0,0,0,.15-.32,1.46,1.46,0,0,0,0-.38,1,1,0,0,0-.08-.4.93.93,0,0,0-.22-.3,1.13,1.13,0,0,0-.73-.26,1,1,0,0,0-.71.25,1.11,1.11,0,0,0-.36.66l-.73-.07a1.91,1.91,0,0,1,.21-.61,1.28,1.28,0,0,1,.39-.44,1.77,1.77,0,0,1,.53-.27,2.25,2.25,0,0,1,.64-.09,2.09,2.09,0,0,1,.67.1,1.53,1.53,0,0,1,.55.29,1.47,1.47,0,0,1,.37.48,1.39,1.39,0,0,1,.14.66,1.91,1.91,0,0,1-.09.61,1.8,1.8,0,0,1-.25.5,2.86,2.86,0,0,1-.35.43l-.41.41-1.75,1.64h2.89v.63h-3.65Z"/><path d="M266.35,250.42l-2.26,5h-.76l2.3-5H262.9v-.63h3.45Z"/><path d="M267.26,252.62a7.07,7.07,0,0,1,.08-1,3.45,3.45,0,0,1,.3-.94,2,2,0,0,1,.59-.71,1.82,1.82,0,0,1,1.91,0,2,2,0,0,1,.59.71,3.45,3.45,0,0,1,.3.94,7,7,0,0,1,.07,1,6.92,6.92,0,0,1-.07,1,3.41,3.41,0,0,1-.3.95,2,2,0,0,1-.59.71,1.82,1.82,0,0,1-1.91,0,2,2,0,0,1-.59-.71,3.41,3.41,0,0,1-.3-.95A7,7,0,0,1,267.26,252.62Zm.68,0c0,.14,0,.3,0,.47a4.43,4.43,0,0,0,.06.51,2.72,2.72,0,0,0,.13.51,1.53,1.53,0,0,0,.23.44,1,1,0,0,0,.34.31.89.89,0,0,0,.47.12,1,1,0,0,0,.49-.12,1.08,1.08,0,0,0,.33-.31,1.53,1.53,0,0,0,.23-.44,2.72,2.72,0,0,0,.13-.51,4.43,4.43,0,0,0,.06-.51c0-.17,0-.33,0-.47s0-.29,0-.46a4.88,4.88,0,0,0-.06-.52,2.83,2.83,0,0,0-.13-.5,1.41,1.41,0,0,0-.23-.44,1.08,1.08,0,0,0-.33-.31,1,1,0,0,0-.49-.12.89.89,0,0,0-.47.12,1,1,0,0,0-.34.31,1.41,1.41,0,0,0-.23.44,2.83,2.83,0,0,0-.13.5,4.88,4.88,0,0,0-.06.52C267.94,252.33,267.94,252.49,267.94,252.62Z"/><path d="M52.87,251a1.55,1.55,0,0,0-.63-.51,1.82,1.82,0,0,0-.79-.18,2,2,0,0,0-.87.2,2.13,2.13,0,0,0-.68.51,2.58,2.58,0,0,0-.45.75,2.67,2.67,0,0,0,0,1.82,2.29,2.29,0,0,0,.45.74,1.88,1.88,0,0,0,.68.5,1.92,1.92,0,0,0,.87.19,2,2,0,0,0,.93-.21,2.07,2.07,0,0,0,.71-.58l.51.42a2.38,2.38,0,0,1-.93.75,3,3,0,0,1-1.22.24,2.85,2.85,0,0,1-1.13-.22,2.82,2.82,0,0,1-.92-.62,3,3,0,0,1-.61-.94,3.27,3.27,0,0,1-.22-1.19,3.2,3.2,0,0,1,.21-1.17,3,3,0,0,1,.6-.95,3.08,3.08,0,0,1,.91-.63,3,3,0,0,1,2.27,0,2,2,0,0,1,.89.68Z"/><path d="M54.13,252.62a7,7,0,0,1,.08-1,3.11,3.11,0,0,1,.3-1,1.94,1.94,0,0,1,.59-.71,1.55,1.55,0,0,1,.95-.27,1.6,1.6,0,0,1,1,.27,2,2,0,0,1,.59.71,3.1,3.1,0,0,1,.29,1,5.77,5.77,0,0,1,.08,1,5.85,5.85,0,0,1-.08,1,3.13,3.13,0,0,1-.29.94,2,2,0,0,1-.59.71,1.6,1.6,0,0,1-1,.27,1.55,1.55,0,0,1-.95-.27,1.94,1.94,0,0,1-.59-.71,3.14,3.14,0,0,1-.3-.94A7.07,7.07,0,0,1,54.13,252.62Zm.67,0c0,.13,0,.29,0,.46a4.88,4.88,0,0,0,.06.52,2.83,2.83,0,0,0,.13.5,1.4,1.4,0,0,0,.22.44,1.1,1.1,0,0,0,.34.31,1,1,0,0,0,.48.12.9.9,0,0,0,.48-.12.92.92,0,0,0,.34-.31,1.41,1.41,0,0,0,.23-.44,2.8,2.8,0,0,0,.12-.5,4.88,4.88,0,0,0,.06-.52,3.86,3.86,0,0,0,0-.46,3.94,3.94,0,0,0,0-.47,4.43,4.43,0,0,0-.06-.51,2.71,2.71,0,0,0-.12-.51,1.53,1.53,0,0,0-.23-.44,1,1,0,0,0-.34-.31.9.9,0,0,0-.48-.12,1,1,0,0,0-.48.12,1.24,1.24,0,0,0-.34.31,1.51,1.51,0,0,0-.22.44,2.72,2.72,0,0,0-.13.51,4.43,4.43,0,0,0-.06.51C54.81,252.32,54.8,252.48,54.8,252.62Z"/><path d="M61,255.79l-.51-.2,2.41-6.14.51.19Z"/><path d="M70.36,251a1.52,1.52,0,0,0-.64-.51,1.78,1.78,0,0,0-.78-.18,2,2,0,0,0-.87.2,2.13,2.13,0,0,0-.68.51,2.58,2.58,0,0,0-.45.75,2.51,2.51,0,0,0-.16.9,2.54,2.54,0,0,0,.16.92,2.46,2.46,0,0,0,.44.74,2.09,2.09,0,0,0,1.56.69,2,2,0,0,0,.93-.21,2.07,2.07,0,0,0,.71-.58l.5.42a2.29,2.29,0,0,1-.92.75,3,3,0,0,1-1.22.24,2.93,2.93,0,0,1-1.14-.22,2.88,2.88,0,0,1-.91-.62,3,3,0,0,1-.61-.94,3.07,3.07,0,0,1-.22-1.19,3.2,3.2,0,0,1,.21-1.17,2.84,2.84,0,0,1,.6-.95,3,3,0,0,1,.91-.63,2.93,2.93,0,0,1,1.16-.23,3,3,0,0,1,1.11.21,2,2,0,0,1,.89.68Z"/><path d="M74.2,255.45h-.68v-4.8h0l-1,.85-.4-.48,1.52-1.24h.59Z"/><path d="M76.37,251.17a1.33,1.33,0,0,1,.13-.61,1.2,1.2,0,0,1,.34-.46,1.44,1.44,0,0,1,.51-.3,1.92,1.92,0,0,1,1.28,0,1.44,1.44,0,0,1,.51.3,1.32,1.32,0,0,1,.34.46,1.48,1.48,0,0,1,.12.61,1.44,1.44,0,0,1-.06.4,1.41,1.41,0,0,1-.18.37,1.18,1.18,0,0,1-.3.29,1,1,0,0,1-.38.19h0a1.44,1.44,0,0,1,.46.19,1.35,1.35,0,0,1,.35.32,1.67,1.67,0,0,1,.23.44,1.7,1.7,0,0,1,.08.51,1.74,1.74,0,0,1-.14.69,1.46,1.46,0,0,1-.39.52,1.47,1.47,0,0,1-.57.33,2.35,2.35,0,0,1-1.42,0,1.59,1.59,0,0,1-.58-.33,1.43,1.43,0,0,1-.38-.52,1.74,1.74,0,0,1-.14-.69,1.7,1.7,0,0,1,.08-.51,1.65,1.65,0,0,1,.22-.44,1.59,1.59,0,0,1,.36-.32,1.44,1.44,0,0,1,.46-.19h0a1.18,1.18,0,0,1-.39-.19,1.33,1.33,0,0,1-.29-.29,1.41,1.41,0,0,1-.18-.37A1.16,1.16,0,0,1,76.37,251.17Zm.48,2.67a1.14,1.14,0,0,0,.09.46,1.21,1.21,0,0,0,.24.35,1.16,1.16,0,0,0,.36.23A1.13,1.13,0,0,0,78,255a1,1,0,0,0,.44-.09,1,1,0,0,0,.36-.23,1.07,1.07,0,0,0,.25-.35,1.36,1.36,0,0,0,0-.92,1.07,1.07,0,0,0-.25-.35,1,1,0,0,0-.36-.23,1,1,0,0,0-.44-.09,1.13,1.13,0,0,0-.45.09,1.16,1.16,0,0,0-.36.23,1.21,1.21,0,0,0-.24.35A1.14,1.14,0,0,0,76.85,253.84ZM77,251.2a.92.92,0,0,0,.26.67.93.93,0,0,0,.69.27.9.9,0,0,0,.68-.27,1,1,0,0,0,0-1.34.9.9,0,0,0-.68-.27.93.93,0,0,0-.69.27A.92.92,0,0,0,77,251.2Z"/><path d="M80.52,252.62a5.77,5.77,0,0,1,.08-1,3.1,3.1,0,0,1,.29-1,2,2,0,0,1,.59-.71,1.6,1.6,0,0,1,1-.27,1.55,1.55,0,0,1,1,.27,1.94,1.94,0,0,1,.59.71,3.41,3.41,0,0,1,.3,1,7,7,0,0,1,.08,1,7.07,7.07,0,0,1-.08,1,3.45,3.45,0,0,1-.3.94,1.94,1.94,0,0,1-.59.71,1.55,1.55,0,0,1-1,.27,1.6,1.6,0,0,1-1-.27,2,2,0,0,1-.59-.71,3.13,3.13,0,0,1-.29-.94A5.85,5.85,0,0,1,80.52,252.62Zm.67,0a3.86,3.86,0,0,0,0,.46c0,.17,0,.34.05.52a4.07,4.07,0,0,0,.13.5,1.41,1.41,0,0,0,.23.44.92.92,0,0,0,.34.31.9.9,0,0,0,.48.12,1,1,0,0,0,.48-.12,1.1,1.1,0,0,0,.34-.31,1.65,1.65,0,0,0,.22-.44,2.83,2.83,0,0,0,.13-.5,4.88,4.88,0,0,0,.06-.52c0-.17,0-.33,0-.46s0-.3,0-.47a4.43,4.43,0,0,0-.06-.51,2.72,2.72,0,0,0-.13-.51,1.81,1.81,0,0,0-.22-.44,1.24,1.24,0,0,0-.34-.31,1,1,0,0,0-.48-.12.9.9,0,0,0-.48.12,1,1,0,0,0-.34.31,1.53,1.53,0,0,0-.23.44,3.8,3.8,0,0,0-.13.51c0,.17,0,.34-.05.51A3.94,3.94,0,0,0,81.19,252.62Z"/><line class="cls-2" x1="214.49" y1="253.42" x2="215.03" y2="253.42"/><line class="cls-2" x1="217.76" y1="253.42" x2="218.3" y2="253.42"/><line class="cls-2" x1="221.02" y1="253.42" x2="221.56" y2="253.42"/><line class="cls-2" x1="224.29" y1="253.42" x2="224.83" y2="253.42"/><line class="cls-2" x1="227.55" y1="253.42" x2="228.09" y2="253.42"/></g><g id="MAY_DAY_F37800"><path d="M54.21,12.36H58.6v.78H55.05v2.34h3.3v.78h-3.3v3.18h-.84Z"/><path d="M60.93,15.36h.26a5.29,5.29,0,0,0,.54,0,1.67,1.67,0,0,0,.52-.17,1,1,0,0,0,.39-.38,1.13,1.13,0,0,0,.16-.64,1.11,1.11,0,0,0-.34-.86,1.2,1.2,0,0,0-.87-.31,1.42,1.42,0,0,0-.78.2,1.37,1.37,0,0,0-.52.59l-.81-.31a1.78,1.78,0,0,1,.81-.9,2.58,2.58,0,0,1,1.24-.3,2.63,2.63,0,0,1,.8.12,1.91,1.91,0,0,1,.68.35,1.61,1.61,0,0,1,.46.57,1.86,1.86,0,0,1,.17.81,1.57,1.57,0,0,1-.34,1,1.71,1.71,0,0,1-.87.62v0A1.59,1.59,0,0,1,63,16a1.73,1.73,0,0,1,.46.39,1.76,1.76,0,0,1,.29.54,1.89,1.89,0,0,1,.1.63,1.94,1.94,0,0,1-.19.89,2.12,2.12,0,0,1-.51.64,2.23,2.23,0,0,1-.75.39,3.24,3.24,0,0,1-.89.13,2.78,2.78,0,0,1-1.41-.35,2,2,0,0,1-.87-1.14l.85-.28a1.3,1.3,0,0,0,1.43,1.05,1.69,1.69,0,0,0,.56-.1,1.34,1.34,0,0,0,.45-.29,1.25,1.25,0,0,0,.31-.44,1.31,1.31,0,0,0,.12-.56,1.24,1.24,0,0,0-.16-.66,1.27,1.27,0,0,0-.41-.42,1.78,1.78,0,0,0-.57-.22,2.88,2.88,0,0,0-.65-.07h-.26Z"/><path d="M69.25,13.14l-2.83,6.3h-1l2.88-6.3H64.93v-.78h4.32Z"/><path d="M70.77,14.09a1.84,1.84,0,0,1,.15-.76,1.79,1.79,0,0,1,.43-.58,1.94,1.94,0,0,1,.64-.38,2.53,2.53,0,0,1,1.6,0,1.94,1.94,0,0,1,.64.38,1.63,1.63,0,0,1,.42.58,1.7,1.7,0,0,1,.16.76,1.8,1.8,0,0,1-.08.5,1.65,1.65,0,0,1-.23.46,1.62,1.62,0,0,1-.37.37,1.53,1.53,0,0,1-.48.23v0a1.64,1.64,0,0,1,.58.23,1.72,1.72,0,0,1,.44.41,2.07,2.07,0,0,1,.2,2,1.76,1.76,0,0,1-.48.66,2.12,2.12,0,0,1-.72.41,2.8,2.8,0,0,1-.88.14,2.91,2.91,0,0,1-.89-.14,2.32,2.32,0,0,1-.72-.41,2,2,0,0,1-.48-.66,2.13,2.13,0,0,1-.17-.86,2,2,0,0,1,.38-1.18,1.72,1.72,0,0,1,.44-.41,1.64,1.64,0,0,1,.58-.23v0a1.69,1.69,0,0,1-.49-.23,1.8,1.8,0,0,1-.36-.37,1.65,1.65,0,0,1-.23-.46A1.8,1.8,0,0,1,70.77,14.09Zm.6,3.34a1.56,1.56,0,0,0,.11.57,1.23,1.23,0,0,0,.3.44,1.34,1.34,0,0,0,.45.29,1.47,1.47,0,0,0,.56.11,1.42,1.42,0,0,0,.55-.11,1.34,1.34,0,0,0,.45-.29A1.25,1.25,0,0,0,74.1,18a1.56,1.56,0,0,0,.11-.57,1.48,1.48,0,0,0-.11-.57,1.29,1.29,0,0,0-.31-.45,1.51,1.51,0,0,0-.45-.29,1.42,1.42,0,0,0-.55-.1,1.47,1.47,0,0,0-.56.1,1.51,1.51,0,0,0-.45.29,1.27,1.27,0,0,0-.3.45A1.48,1.48,0,0,0,71.37,17.43Zm.24-3.3a1.12,1.12,0,0,0,1.18,1.17,1.17,1.17,0,1,0,0-2.34,1.12,1.12,0,0,0-1.18,1.17Z"/><path d="M76,15.9a7.79,7.79,0,0,1,.1-1.25,4,4,0,0,1,.37-1.19,2.5,2.5,0,0,1,.73-.88,2,2,0,0,1,1.2-.34,1.93,1.93,0,0,1,1.19.34,2.53,2.53,0,0,1,.74.88,4,4,0,0,1,.37,1.19,7.79,7.79,0,0,1,.1,1.25,7.88,7.88,0,0,1-.1,1.25,4,4,0,0,1-.37,1.18,2.44,2.44,0,0,1-.74.88,1.93,1.93,0,0,1-1.19.35,2,2,0,0,1-1.2-.35,2.41,2.41,0,0,1-.73-.88,4,4,0,0,1-.37-1.18A7.88,7.88,0,0,1,76,15.9Zm.84,0c0,.17,0,.36,0,.58s0,.43.07.64a4.61,4.61,0,0,0,.16.64,2.37,2.37,0,0,0,.28.55,1.3,1.3,0,0,0,.43.38,1.27,1.27,0,0,0,1.2,0,1.18,1.18,0,0,0,.42-.38,2,2,0,0,0,.28-.55,3.53,3.53,0,0,0,.16-.64,4.66,4.66,0,0,0,.08-.64c0-.22,0-.41,0-.58s0-.37,0-.58a4.81,4.81,0,0,0-.08-.65,3.42,3.42,0,0,0-.16-.63,1.9,1.9,0,0,0-.28-.55A1.31,1.31,0,0,0,79,13.1a1.36,1.36,0,0,0-1.2,0,1.45,1.45,0,0,0-.43.39A2.19,2.19,0,0,0,77,14a4.47,4.47,0,0,0-.16.63c0,.22-.06.43-.07.65S76.79,15.72,76.79,15.9Z"/><path d="M81.51,15.9a7.79,7.79,0,0,1,.1-1.25A4,4,0,0,1,82,13.46a2.5,2.5,0,0,1,.73-.88,2,2,0,0,1,1.2-.34,1.93,1.93,0,0,1,1.19.34,2.53,2.53,0,0,1,.74.88,4,4,0,0,1,.37,1.19,7.79,7.79,0,0,1,.1,1.25,7.88,7.88,0,0,1-.1,1.25,4,4,0,0,1-.37,1.18,2.44,2.44,0,0,1-.74.88,1.93,1.93,0,0,1-1.19.35,2,2,0,0,1-1.2-.35,2.41,2.41,0,0,1-.73-.88,4,4,0,0,1-.37-1.18A7.88,7.88,0,0,1,81.51,15.9Zm.84,0c0,.17,0,.36,0,.58s0,.43.07.64a4.61,4.61,0,0,0,.16.64,2.37,2.37,0,0,0,.28.55,1.3,1.3,0,0,0,.43.38,1.27,1.27,0,0,0,1.2,0,1.18,1.18,0,0,0,.42-.38,2,2,0,0,0,.28-.55,3.53,3.53,0,0,0,.16-.64,4.66,4.66,0,0,0,.08-.64c0-.22,0-.41,0-.58s0-.37,0-.58a4.81,4.81,0,0,0-.08-.65,3.42,3.42,0,0,0-.16-.63,1.9,1.9,0,0,0-.28-.55,1.31,1.31,0,0,0-.42-.39,1.36,1.36,0,0,0-1.2,0,1.45,1.45,0,0,0-.43.39,2.19,2.19,0,0,0-.28.55,4.47,4.47,0,0,0-.16.63c0,.22-.06.43-.07.65S82.35,15.72,82.35,15.9Z"/><path d="M86.69,20.19h5v.5h-5Z"/><path d="M93.73,15.31l0,0a1.32,1.32,0,0,1,.46-.16,2.2,2.2,0,0,1,.49-.05,2.15,2.15,0,0,1,.85.16,1.88,1.88,0,0,1,.68.45,2.15,2.15,0,0,1,.45.71,2.36,2.36,0,0,1,.16.9,2.34,2.34,0,0,1-.18.93,2,2,0,0,1-.5.69,2.2,2.2,0,0,1-.76.44,2.6,2.6,0,0,1-.93.16,2.65,2.65,0,0,1-.94-.16,2.16,2.16,0,0,1-.75-.44,2,2,0,0,1-.5-.69,2.34,2.34,0,0,1-.18-.93,2.69,2.69,0,0,1,.19-1.07,6.22,6.22,0,0,1,.48-.92l1.88-3h1Zm.74.53a1.72,1.72,0,0,0-.6.1,1.44,1.44,0,0,0-.49.3,1.49,1.49,0,0,0-.32.48,1.66,1.66,0,0,0,0,1.24,1.36,1.36,0,0,0,.81.77,1.69,1.69,0,0,0,1.2,0,1.31,1.31,0,0,0,.48-.3,1.33,1.33,0,0,0,.33-.47,1.66,1.66,0,0,0,0-1.24,1.37,1.37,0,0,0-.33-.48,1.31,1.31,0,0,0-.48-.3A1.72,1.72,0,0,0,94.47,15.84Z"/><path d="M97.63,15.9a7.79,7.79,0,0,1,.1-1.25,4,4,0,0,1,.37-1.19,2.5,2.5,0,0,1,.73-.88,2,2,0,0,1,1.2-.34,1.93,1.93,0,0,1,1.19.34,2.53,2.53,0,0,1,.74.88,4,4,0,0,1,.37,1.19,7.79,7.79,0,0,1,.1,1.25,7.88,7.88,0,0,1-.1,1.25,4,4,0,0,1-.37,1.18,2.44,2.44,0,0,1-.74.88,1.93,1.93,0,0,1-1.19.35,2,2,0,0,1-1.2-.35,2.41,2.41,0,0,1-.73-.88,4,4,0,0,1-.37-1.18A7.88,7.88,0,0,1,97.63,15.9Zm.84,0c0,.17,0,.36,0,.58s0,.43.07.64a4.61,4.61,0,0,0,.16.64,2.37,2.37,0,0,0,.28.55,1.3,1.3,0,0,0,.43.38,1.28,1.28,0,0,0,1.2,0,1.18,1.18,0,0,0,.42-.38,2,2,0,0,0,.28-.55,3.53,3.53,0,0,0,.16-.64,4.66,4.66,0,0,0,.08-.64c0-.22,0-.41,0-.58s0-.37,0-.58a4.81,4.81,0,0,0-.08-.65,3.42,3.42,0,0,0-.16-.63,1.9,1.9,0,0,0-.28-.55,1.31,1.31,0,0,0-.42-.39,1.36,1.36,0,0,0-1.2,0,1.45,1.45,0,0,0-.43.39,2.19,2.19,0,0,0-.28.55,4.47,4.47,0,0,0-.16.63c0,.22-.06.43-.07.65S98.47,15.72,98.47,15.9Z"/><path d="M102.87,12.36h.93l1.61,5.88h0l1.74-5.88h.94l1.73,5.88h0l1.64-5.88h.88l-2.08,7.08h-.91l-1.75-6h0l-1.76,6h-.92Z"/><path d="M116,12.36h.84v3h3.78v-3h.84v7.08h-.84v-3.3h-3.78v3.3H116Z"/><path d="M123.32,12.36h.84v6.3h3.24v.78h-4.08Z"/><rect class="cls-3" x="54.33" y="42.08" width="189.86" height="189.86"/><circle class="cls-4" cx="149.26" cy="136.96" r="27.05"/><path d="M154.26,169.14h.82v.62h-.82v1.3h-.67v-1.3h-2.4V169l2.25-3.62h.82Zm-.67-3h0l-1.8,3h1.82Z"/><path d="M155.61,168.23a7,7,0,0,1,.08-1,3.41,3.41,0,0,1,.3-.95,1.83,1.83,0,0,1,.59-.7,1.51,1.51,0,0,1,.95-.28,1.54,1.54,0,0,1,1,.28,1.92,1.92,0,0,1,.59.7,3.1,3.1,0,0,1,.29.95,5.77,5.77,0,0,1,.08,1,5.85,5.85,0,0,1-.08,1,3.28,3.28,0,0,1-.29,1,2,2,0,0,1-.59.7,1.61,1.61,0,0,1-1,.28,1.57,1.57,0,0,1-.95-.28,1.91,1.91,0,0,1-.59-.7,3.64,3.64,0,0,1-.3-1A7.07,7.07,0,0,1,155.61,168.23Zm.68,0c0,.14,0,.29,0,.46a4.88,4.88,0,0,0,.06.52,2.83,2.83,0,0,0,.13.5,1.88,1.88,0,0,0,.22.45,1.21,1.21,0,0,0,.34.3,1,1,0,0,0,.48.12.9.9,0,0,0,.48-.12,1,1,0,0,0,.34-.3,1.59,1.59,0,0,0,.23-.45,4.07,4.07,0,0,0,.13-.5l.06-.52c0-.17,0-.32,0-.46s0-.3,0-.47l-.06-.51a3.8,3.8,0,0,0-.13-.51,1.53,1.53,0,0,0-.23-.44A1,1,0,0,0,158,166a.9.9,0,0,0-.48-.12,1,1,0,0,0-.48.12,1.24,1.24,0,0,0-.34.31,1.81,1.81,0,0,0-.22.44,2.72,2.72,0,0,0-.13.51,4.43,4.43,0,0,0-.06.51C156.29,167.93,156.29,168.09,156.29,168.23Z"/><circle class="cls-4" cx="149.26" cy="136.96" r="54.22"/><path d="M151.52,193.94a1.51,1.51,0,0,1,.12-.61,1.41,1.41,0,0,1,.34-.46,1.53,1.53,0,0,1,.51-.3,1.91,1.91,0,0,1,.64-.11,1.87,1.87,0,0,1,.64.11,1.58,1.58,0,0,1,.52.3,1.39,1.39,0,0,1,.33.46,1.36,1.36,0,0,1,.13.61,1.34,1.34,0,0,1-.06.4,1.62,1.62,0,0,1-.19.37,1.64,1.64,0,0,1-.29.3,1.38,1.38,0,0,1-.39.18v0a1.48,1.48,0,0,1,.47.18,1.56,1.56,0,0,1,.35.33,1.59,1.59,0,0,1,.22.43,1.81,1.81,0,0,1,.08.51,1.67,1.67,0,0,1-.14.69,1.56,1.56,0,0,1-.38.53,1.94,1.94,0,0,1-.58.33,2.35,2.35,0,0,1-.71.11,2.4,2.4,0,0,1-.71-.11,1.78,1.78,0,0,1-.57-.33,1.74,1.74,0,0,1-.39-.53,1.67,1.67,0,0,1-.13-.69,1.51,1.51,0,0,1,.08-.51,1.35,1.35,0,0,1,.22-.43,1.37,1.37,0,0,1,.35-.33,1.39,1.39,0,0,1,.47-.18v0a1.15,1.15,0,0,1-.68-.48,1.3,1.3,0,0,1-.19-.37A1.34,1.34,0,0,1,151.52,193.94Zm.48,2.67a1.34,1.34,0,0,0,.08.46,1.16,1.16,0,0,0,.25.36,1.31,1.31,0,0,0,.36.23,1.27,1.27,0,0,0,.44.08,1.33,1.33,0,0,0,.45-.08,1.69,1.69,0,0,0,.36-.23,1.17,1.17,0,0,0,0-1.63,1.16,1.16,0,0,0-.36-.23,1.12,1.12,0,0,0-.45-.08,1.08,1.08,0,0,0-.44.08,1,1,0,0,0-.36.23,1.16,1.16,0,0,0-.25.36A1.33,1.33,0,0,0,152,196.61Zm.19-2.64a.94.94,0,0,0,.26.68.93.93,0,0,0,.68.26.89.89,0,0,0,1-.94.94.94,0,0,0-.26-.67.91.91,0,0,0-.69-.26.89.89,0,0,0-.68.26A.94.94,0,0,0,152.19,194Z"/><path d="M155.61,195.39a7.07,7.07,0,0,1,.08-1,3.52,3.52,0,0,1,.3-.95,1.91,1.91,0,0,1,.59-.7,1.51,1.51,0,0,1,.95-.28,1.54,1.54,0,0,1,1,.28,2,2,0,0,1,.59.7,3.19,3.19,0,0,1,.29.95,6.29,6.29,0,0,1,0,2,3.19,3.19,0,0,1-.29,1,2,2,0,0,1-.59.7,1.54,1.54,0,0,1-1,.28,1.51,1.51,0,0,1-.95-.28,1.91,1.91,0,0,1-.59-.7,3.52,3.52,0,0,1-.3-1A7.07,7.07,0,0,1,155.61,195.39Zm.68,0c0,.14,0,.29,0,.46a4.6,4.6,0,0,0,.06.52,3.18,3.18,0,0,0,.13.51,2,2,0,0,0,.22.44,1.07,1.07,0,0,0,.34.3,1,1,0,0,0,.48.12,1,1,0,0,0,.82-.42,1.67,1.67,0,0,0,.23-.44,4.77,4.77,0,0,0,.13-.51l.06-.52c0-.17,0-.32,0-.46s0-.29,0-.46l-.06-.52a4.77,4.77,0,0,0-.13-.51,1.67,1.67,0,0,0-.23-.44,1,1,0,0,0-.34-.31,1,1,0,0,0-.48-.11,1.06,1.06,0,0,0-.48.11,1.24,1.24,0,0,0-.34.31,2,2,0,0,0-.22.44,3.18,3.18,0,0,0-.13.51,4.35,4.35,0,0,0-.06.52C156.29,195.1,156.29,195.25,156.29,195.39Z"/><circle class="cls-4" cx="149.26" cy="136.96" r="81.32"/><path d="M153.79,225.33h-.67v-4.8h0l-1,.85-.39-.48,1.52-1.23h.58Z"/><path d="M155.71,224.56l2.14-2.08.35-.36a1.85,1.85,0,0,0,.25-.32,1,1,0,0,0,.15-.32,1.44,1.44,0,0,0,.05-.37,1,1,0,0,0-.08-.4,1,1,0,0,0-.22-.3,1.12,1.12,0,0,0-.33-.2,1.35,1.35,0,0,0-.41-.06,1.07,1.07,0,0,0-.71.24,1.13,1.13,0,0,0-.36.66l-.73-.06a1.76,1.76,0,0,1,.22-.62,1.38,1.38,0,0,1,.39-.44,1.66,1.66,0,0,1,.53-.27,2.2,2.2,0,0,1,.64-.09,2,2,0,0,1,.66.1,1.7,1.7,0,0,1,.55.29,1.5,1.5,0,0,1,.38.48,1.54,1.54,0,0,1,.14.67,1.89,1.89,0,0,1-.09.6,2.59,2.59,0,0,1-.25.5,3.75,3.75,0,0,1-.35.44c-.13.13-.27.27-.42.4l-1.74,1.64v0h2.89v.62h-3.65Z"/><path d="M160.06,222.5a7,7,0,0,1,.08-1,3.11,3.11,0,0,1,.3-.95,1.94,1.94,0,0,1,.59-.71,1.55,1.55,0,0,1,.95-.27,1.6,1.6,0,0,1,1,.27,2,2,0,0,1,.59.71,3.1,3.1,0,0,1,.29.95,5.77,5.77,0,0,1,.08,1,5.85,5.85,0,0,1-.08,1,3.28,3.28,0,0,1-.29.95,2.1,2.1,0,0,1-.59.7,1.6,1.6,0,0,1-1,.27,1.55,1.55,0,0,1-.95-.27,2,2,0,0,1-.59-.7,3.3,3.3,0,0,1-.3-.95A7.07,7.07,0,0,1,160.06,222.5Zm.67,0c0,.14,0,.29,0,.46a4.88,4.88,0,0,0,.06.52,3.18,3.18,0,0,0,.13.51,1.45,1.45,0,0,0,.22.43,1,1,0,0,0,.34.31,1,1,0,0,0,1,0,1,1,0,0,0,.34-.31A1.47,1.47,0,0,0,163,224a4.7,4.7,0,0,0,.12-.51,4.88,4.88,0,0,0,.06-.52c0-.17,0-.32,0-.46s0-.3,0-.47a4.43,4.43,0,0,0-.06-.51A3.81,3.81,0,0,0,163,221a1.53,1.53,0,0,0-.23-.44,1.12,1.12,0,0,0-.34-.31,1.1,1.1,0,0,0-1,0,1.12,1.12,0,0,0-.34.31,1.51,1.51,0,0,0-.22.44,2.72,2.72,0,0,0-.13.51,4.43,4.43,0,0,0-.06.51C160.74,222.2,160.73,222.36,160.73,222.5Z"/><line class="cls-4" x1="54.33" y1="137.01" x2="244.25" y2="137.01"/><line class="cls-4" x1="149.26" y1="231.94" x2="149.26" y2="42.02"/><line class="cls-4" x1="94.51" y1="42.02" x2="204.07" y2="231.94"/><line class="cls-4" x1="94.51" y1="231.94" x2="204.07" y2="42.02"/><line class="cls-4" x1="54.33" y1="82.2" x2="244.25" y2="191.77"/><line class="cls-4" x1="54.33" y1="191.77" x2="244.25" y2="82.2"/><line class="cls-1" x1="149.26" y1="180.91" x2="150.02" y2="180.1"/><line class="cls-1" x1="150.02" y1="180.1" x2="150.77" y2="180.1"/><line class="cls-1" x1="150.77" y1="180.1" x2="151.48" y2="179.35"/><line class="cls-1" x1="151.48" y1="179.35" x2="152.23" y2="179.13"/><line class="cls-1" x1="152.23" y1="179.13" x2="152.88" y2="178.59"/><line class="cls-1" x1="152.88" y1="178.59" x2="153.64" y2="178.7"/><line class="cls-1" x1="153.64" y1="178.7" x2="154.72" y2="181.24"/><line class="cls-1" x1="154.72" y1="181.24" x2="155.85" y2="183.94"/><line class="cls-1" x1="155.85" y1="183.94" x2="157.15" y2="186.69"/><line class="cls-1" x1="157.15" y1="186.69" x2="158.44" y2="188.96"/><line class="cls-1" x1="158.44" y1="188.96" x2="159.47" y2="189.39"/><line class="cls-1" x1="159.47" y1="189.39" x2="160.22" y2="188.47"/><line class="cls-1" x1="160.22" y1="188.47" x2="160.55" y2="185.88"/><line class="cls-1" x1="160.55" y1="185.88" x2="161.03" y2="184.04"/><line class="cls-1" x1="161.03" y1="184.04" x2="161.68" y2="183.23"/><line class="cls-1" x1="161.68" y1="183.23" x2="162.65" y2="183.56"/><line class="cls-1" x1="162.65" y1="183.56" x2="163.84" y2="184.69"/><line class="cls-1" x1="163.84" y1="184.69" x2="165.25" y2="186.1"/><line class="cls-1" x1="165.25" y1="186.1" x2="167.03" y2="188.53"/><line class="cls-1" x1="167.03" y1="188.53" x2="168.86" y2="190.79"/><line class="cls-1" x1="168.86" y1="190.79" x2="170.27" y2="191.71"/><line class="cls-1" x1="170.27" y1="191.71" x2="172.1" y2="193.55"/><line class="cls-1" x1="172.1" y1="193.55" x2="174.53" y2="196.52"/><line class="cls-1" x1="174.53" y1="196.52" x2="176.69" y2="198.52"/><line class="cls-1" x1="176.69" y1="198.52" x2="178.53" y2="199.7"/><line class="cls-1" x1="178.53" y1="199.7" x2="180.31" y2="200.57"/><line class="cls-1" x1="180.31" y1="200.57" x2="181.99" y2="201.16"/><line class="cls-1" x1="181.99" y1="201.16" x2="183.66" y2="201.65"/><line class="cls-1" x1="183.66" y1="201.65" x2="185.33" y2="202.03"/><line class="cls-1" x1="185.33" y1="202.03" x2="187.22" y2="202.73"/><line class="cls-1" x1="187.22" y1="202.73" x2="188.9" y2="202.94"/><line class="cls-1" x1="188.9" y1="202.94" x2="190.79" y2="203.38"/><line class="cls-1" x1="190.79" y1="203.38" x2="192.62" y2="203.7"/><line class="cls-1" x1="192.62" y1="203.7" x2="194.35" y2="203.86"/><line class="cls-1" x1="194.35" y1="203.86" x2="195.49" y2="203"/><line class="cls-1" x1="195.49" y1="203" x2="191.76" y2="195.49"/><line class="cls-1" x1="191.76" y1="195.49" x2="186.31" y2="186.1"/><line class="cls-1" x1="186.31" y1="186.1" x2="180.2" y2="176.54"/><line class="cls-1" x1="180.2" y1="176.54" x2="179.61" y2="174.38"/><line class="cls-1" x1="179.61" y1="174.38" x2="179.61" y2="173.14"/><line class="cls-1" x1="179.61" y1="173.14" x2="180.1" y2="172.43"/><line class="cls-1" x1="180.1" y1="172.43" x2="180.47" y2="171.62"/><line class="cls-1" x1="180.47" y1="171.62" x2="180.96" y2="170.92"/><line class="cls-1" x1="180.96" y1="170.92" x2="181.28" y2="170.11"/><line class="cls-1" x1="181.28" y1="170.11" x2="181.61" y2="169.3"/><line class="cls-1" x1="181.61" y1="169.3" x2="181.99" y2="168.55"/><line class="cls-1" x1="181.99" y1="168.55" x2="182.26" y2="167.74"/><line class="cls-1" x1="182.26" y1="167.74" x2="182.58" y2="166.93"/><line class="cls-1" x1="182.58" y1="166.93" x2="182.9" y2="166.17"/><line class="cls-1" x1="182.9" y1="166.17" x2="183.07" y2="165.36"/><line class="cls-1" x1="183.07" y1="165.36" x2="183.39" y2="164.55"/><line class="cls-1" x1="183.39" y1="164.55" x2="183.55" y2="163.74"/><line class="cls-1" x1="183.55" y1="163.74" x2="183.28" y2="162.61"/><line class="cls-1" x1="183.28" y1="162.61" x2="183.01" y2="161.47"/><line class="cls-1" x1="183.01" y1="161.47" x2="183.17" y2="160.72"/><line class="cls-1" x1="183.17" y1="160.72" x2="183.34" y2="159.91"/><line class="cls-1" x1="183.34" y1="159.91" x2="183.82" y2="159.42"/><line class="cls-1" x1="183.82" y1="159.42" x2="184.42" y2="158.93"/><line class="cls-1" x1="184.42" y1="158.93" x2="184.74" y2="158.29"/><line class="cls-1" x1="184.74" y1="158.29" x2="185.44" y2="157.85"/><line class="cls-1" x1="185.44" y1="157.85" x2="185.93" y2="157.26"/><line class="cls-1" x1="185.93" y1="157.26" x2="186.47" y2="156.72"/><line class="cls-1" x1="186.47" y1="156.72" x2="187.12" y2="156.23"/><line class="cls-1" x1="187.12" y1="156.23" x2="187.71" y2="155.69"/><line class="cls-1" x1="187.71" y1="155.69" x2="188.3" y2="155.15"/><line class="cls-1" x1="188.3" y1="155.15" x2="189.06" y2="154.67"/><line class="cls-1" x1="189.06" y1="154.67" x2="189.6" y2="154.07"/><line class="cls-1" x1="189.6" y1="154.07" x2="190.25" y2="153.53"/><line class="cls-1" x1="190.25" y1="153.53" x2="190.95" y2="152.94"/><line class="cls-1" x1="190.95" y1="152.94" x2="191.49" y2="152.35"/><line class="cls-1" x1="191.49" y1="152.35" x2="192.19" y2="151.75"/><line class="cls-1" x1="192.19" y1="151.75" x2="192.79" y2="151.1"/><line class="cls-1" x1="192.79" y1="151.1" x2="193.38" y2="150.46"/><line class="cls-1" x1="193.38" y1="150.46" x2="194.03" y2="149.81"/><line class="cls-1" x1="194.03" y1="149.81" x2="194.62" y2="149.11"/><line class="cls-1" x1="194.62" y1="149.11" x2="195.16" y2="148.4"/><line class="cls-1" x1="195.16" y1="148.4" x2="195.86" y2="147.7"/><line class="cls-1" x1="195.86" y1="147.7" x2="196.35" y2="146.95"/><line class="cls-1" x1="196.35" y1="146.95" x2="196.89" y2="146.19"/><line class="cls-1" x1="196.89" y1="146.19" x2="197.48" y2="145.43"/><line class="cls-1" x1="197.48" y1="145.43" x2="197.86" y2="144.68"/><line class="cls-1" x1="197.86" y1="144.68" x2="198.4" y2="143.87"/><line class="cls-1" x1="198.4" y1="143.87" x2="198.83" y2="143.06"/><line class="cls-1" x1="198.83" y1="143.06" x2="199.21" y2="142.19"/><line class="cls-1" x1="199.21" y1="142.19" x2="199.81" y2="141.38"/><line class="cls-1" x1="199.81" y1="141.38" x2="199.97" y2="140.52"/><line class="cls-1" x1="199.97" y1="140.52" x2="200.35" y2="139.66"/><line class="cls-1" x1="200.35" y1="139.66" x2="200.72" y2="138.74"/><line class="cls-1" x1="200.72" y1="138.74" x2="200.83" y2="137.87"/><line class="cls-1" x1="200.83" y1="137.87" x2="201.32" y2="137.01"/><line class="cls-1" x1="201.32" y1="137.01" x2="201.48" y2="136.09"/><line class="cls-1" x1="201.48" y1="136.09" x2="201.7" y2="135.17"/><line class="cls-1" x1="201.7" y1="135.17" x2="202.02" y2="134.26"/><line class="cls-1" x1="202.02" y1="134.26" x2="202.13" y2="133.34"/><line class="cls-1" x1="202.13" y1="133.34" x2="202.24" y2="132.37"/><line class="cls-1" x1="202.24" y1="132.37" x2="202.51" y2="131.39"/><line class="cls-1" x1="202.51" y1="131.39" x2="202.34" y2="130.48"/><line class="cls-1" x1="202.34" y1="130.48" x2="202.4" y2="129.56"/><line class="cls-1" x1="202.4" y1="129.56" x2="202.51" y2="128.59"/><line class="cls-1" x1="202.51" y1="128.59" x2="202.29" y2="127.67"/><line class="cls-1" x1="202.29" y1="127.67" x2="202.4" y2="126.7"/><line class="cls-1" x1="202.4" y1="126.7" x2="202.13" y2="125.78"/><line class="cls-1" x1="202.13" y1="125.78" x2="201.91" y2="124.86"/><line class="cls-1" x1="201.91" y1="124.86" x2="201.91" y2="123.89"/><line class="cls-1" x1="201.91" y1="123.89" x2="201.37" y2="123.02"/><line class="cls-1" x1="201.37" y1="123.02" x2="201.32" y2="122.11"/><line class="cls-1" x1="201.32" y1="122.11" x2="201.05" y2="121.19"/><line class="cls-1" x1="201.05" y1="121.19" x2="200.51" y2="120.38"/><line class="cls-1" x1="200.51" y1="120.38" x2="200.35" y2="119.41"/><line class="cls-1" x1="200.35" y1="119.41" x2="199.75" y2="118.65"/><line class="cls-1" x1="199.75" y1="118.65" x2="199.37" y2="117.79"/><line class="cls-1" x1="199.37" y1="117.79" x2="199.05" y2="116.92"/><line class="cls-1" x1="199.05" y1="116.92" x2="198.29" y2="116.22"/><line class="cls-1" x1="198.29" y1="116.22" x2="197.86" y2="115.36"/><line class="cls-1" x1="197.86" y1="115.36" x2="197.43" y2="114.55"/><line class="cls-1" x1="197.43" y1="114.55" x2="196.62" y2="113.9"/><line class="cls-1" x1="196.62" y1="113.9" x2="196.19" y2="113.09"/><line class="cls-1" x1="196.19" y1="113.09" x2="195.54" y2="112.39"/><line class="cls-1" x1="195.54" y1="112.39" x2="194.78" y2="111.79"/><line class="cls-1" x1="194.78" y1="111.79" x2="194.24" y2="111.04"/><line class="cls-1" x1="194.24" y1="111.04" x2="193.43" y2="110.5"/><line class="cls-1" x1="193.43" y1="110.5" x2="192.73" y2="109.85"/><line class="cls-1" x1="192.73" y1="109.85" x2="192.08" y2="109.2"/><line class="cls-1" x1="192.08" y1="109.2" x2="191.17" y2="108.71"/><line class="cls-1" x1="191.17" y1="108.71" x2="190.52" y2="108.12"/><line class="cls-1" x1="190.52" y1="108.12" x2="189.76" y2="107.58"/><line class="cls-1" x1="189.76" y1="107.58" x2="188.79" y2="107.2"/><line class="cls-1" x1="188.79" y1="107.2" x2="188.14" y2="106.61"/><line class="cls-1" x1="188.14" y1="106.61" x2="187.22" y2="106.28"/><line class="cls-1" x1="187.22" y1="106.28" x2="186.36" y2="105.91"/><line class="cls-1" x1="186.36" y1="105.91" x2="185.6" y2="105.42"/><line class="cls-1" x1="185.6" y1="105.42" x2="184.58" y2="105.2"/><line class="cls-1" x1="184.58" y1="105.2" x2="183.82" y2="104.77"/><line class="cls-1" x1="183.82" y1="104.77" x2="182.96" y2="104.45"/><line class="cls-1" x1="182.96" y1="104.45" x2="181.93" y2="104.34"/><line class="cls-1" x1="181.93" y1="104.34" x2="181.18" y2="103.96"/><line class="cls-1" x1="181.18" y1="103.96" x2="180.15" y2="103.85"/><line class="cls-1" x1="180.15" y1="103.85" x2="179.29" y2="103.69"/><line class="cls-1" x1="179.29" y1="103.69" x2="178.48" y2="103.42"/><line class="cls-1" x1="178.48" y1="103.42" x2="177.45" y2="103.42"/><line class="cls-1" x1="177.45" y1="103.42" x2="176.53" y2="103.31"/><line class="cls-1" x1="176.53" y1="103.31" x2="175.67" y2="103.21"/><line class="cls-1" x1="175.67" y1="103.21" x2="174.7" y2="103.21"/><line class="cls-1" x1="174.7" y1="103.21" x2="173.83" y2="103.21"/><line class="cls-1" x1="173.83" y1="103.21" x2="172.97" y2="103.21"/><line class="cls-1" x1="172.97" y1="103.21" x2="171.94" y2="103.37"/><line class="cls-1" x1="171.94" y1="103.37" x2="171.08" y2="103.42"/><line class="cls-1" x1="171.08" y1="103.42" x2="170.21" y2="103.53"/><line class="cls-1" x1="170.21" y1="103.53" x2="169.24" y2="103.75"/><line class="cls-1" x1="169.24" y1="103.75" x2="168.43" y2="103.8"/><line class="cls-1" x1="168.43" y1="103.8" x2="167.46" y2="104.23"/><line class="cls-1" x1="167.46" y1="104.23" x2="166.6" y2="104.45"/><line class="cls-1" x1="166.6" y1="104.45" x2="165.73" y2="104.72"/><line class="cls-1" x1="165.73" y1="104.72" x2="164.76" y2="105.31"/><line class="cls-1" x1="164.76" y1="105.31" x2="163.84" y2="105.8"/><line class="cls-1" x1="163.84" y1="105.8" x2="162.76" y2="106.72"/><line class="cls-1" x1="162.76" y1="106.72" x2="161.68" y2="107.74"/><line class="cls-1" x1="161.68" y1="107.74" x2="160.49" y2="109.2"/><line class="cls-1" x1="160.49" y1="109.2" x2="159.2" y2="111.09"/><line class="cls-1" x1="159.2" y1="111.09" x2="157.9" y2="113.3"/><line class="cls-1" x1="157.9" y1="113.3" x2="156.5" y2="116"/><line class="cls-1" x1="156.5" y1="116" x2="155.09" y2="119.08"/><line class="cls-1" x1="155.09" y1="119.08" x2="153.74" y2="122.32"/><line class="cls-1" x1="153.74" y1="122.32" x2="152.56" y2="125.56"/><line class="cls-1" x1="152.56" y1="125.56" x2="151.53" y2="128.59"/><line class="cls-1" x1="151.53" y1="128.59" x2="150.77" y2="130.96"/><line class="cls-1" x1="150.77" y1="130.96" x2="150.23" y2="132.8"/><line class="cls-1" x1="150.23" y1="132.8" x2="149.86" y2="134.15"/><line class="cls-1" x1="149.86" y1="134.15" x2="149.64" y2="135.07"/><line class="cls-1" x1="149.64" y1="135.07" x2="149.48" y2="135.66"/><line class="cls-1" x1="149.48" y1="135.66" x2="149.42" y2="135.98"/><line class="cls-1" x1="149.42" y1="135.98" x2="149.37" y2="136.09"/><line class="cls-1" x1="149.37" y1="136.09" x2="149.37" y2="136.09"/><line class="cls-1" x1="149.37" y1="136.09" x2="149.37" y2="136.09"/><line class="cls-1" x1="149.37" y1="136.09" x2="149.32" y2="136.09"/><line class="cls-1" x1="149.32" y1="136.09" x2="149.32" y2="136.09"/><line class="cls-1" x1="149.32" y1="136.09" x2="149.32" y2="136.09"/><line class="cls-1" x1="149.32" y1="136.09" x2="149.32" y2="136.09"/><line class="cls-1" x1="149.32" y1="136.09" x2="149.26" y2="136.09"/><line class="cls-1" x1="149.26" y1="136.09" x2="149.26" y2="136.09"/><line class="cls-1" x1="149.26" y1="180.91" x2="148.56" y2="180.64"/><line class="cls-1" x1="148.56" y1="180.64" x2="147.8" y2="180.26"/><line class="cls-1" x1="147.8" y1="180.26" x2="147.05" y2="180.05"/><line class="cls-1" x1="147.05" y1="180.05" x2="146.29" y2="179.99"/><line class="cls-1" x1="146.29" y1="179.99" x2="145.54" y2="180.16"/><line class="cls-1" x1="145.54" y1="180.16" x2="144.73" y2="180.86"/><line class="cls-1" x1="144.73" y1="180.86" x2="143.86" y2="181.4"/><line class="cls-1" x1="143.86" y1="181.4" x2="143" y2="181.83"/><line class="cls-1" x1="143" y1="181.83" x2="142.08" y2="182.53"/><line class="cls-1" x1="142.08" y1="182.53" x2="141.22" y2="182.86"/><line class="cls-1" x1="141.22" y1="182.86" x2="140.35" y2="183.07"/><line class="cls-1" x1="140.35" y1="183.07" x2="139.6" y2="182.8"/><line class="cls-1" x1="139.6" y1="182.8" x2="138.73" y2="182.69"/><line class="cls-1" x1="138.73" y1="182.69" x2="137.92" y2="182.69"/><line class="cls-1" x1="137.92" y1="182.69" x2="137" y2="182.86"/><line class="cls-1" x1="137" y1="182.86" x2="136.03" y2="183.29"/><line class="cls-1" x1="136.03" y1="183.29" x2="135.01" y2="183.83"/><line class="cls-1" x1="135.01" y1="183.83" x2="133.98" y2="184.15"/><line class="cls-1" x1="133.98" y1="184.15" x2="132.9" y2="184.58"/><line class="cls-1" x1="132.9" y1="184.58" x2="131.55" y2="185.83"/><line class="cls-1" x1="131.55" y1="185.83" x2="129.82" y2="187.72"/><line class="cls-1" x1="129.82" y1="187.72" x2="128.15" y2="189.39"/><line class="cls-1" x1="128.15" y1="189.39" x2="126.53" y2="190.58"/><line class="cls-1" x1="126.53" y1="190.58" x2="124.69" y2="192.31"/><line class="cls-1" x1="124.69" y1="192.31" x2="122.69" y2="194.09"/><line class="cls-1" x1="122.69" y1="194.09" x2="120.7" y2="195.71"/><line class="cls-1" x1="120.7" y1="195.71" x2="118.7" y2="197"/><line class="cls-1" x1="118.7" y1="197" x2="116.86" y2="197.98"/><line class="cls-1" x1="116.86" y1="197.98" x2="114.97" y2="198.89"/><line class="cls-1" x1="114.97" y1="198.89" x2="112.97" y2="199.87"/><line class="cls-1" x1="112.97" y1="199.87" x2="111.14" y2="200.46"/><line class="cls-1" x1="111.14" y1="200.46" x2="109.25" y2="201.05"/><line class="cls-1" x1="109.25" y1="201.05" x2="107.2" y2="201.76"/><line class="cls-1" x1="107.2" y1="201.76" x2="105.47" y2="201.92"/><line class="cls-1" x1="105.47" y1="201.92" x2="104.33" y2="201.16"/><line class="cls-1" x1="104.33" y1="201.16" x2="107.84" y2="194.09"/><line class="cls-1" x1="107.84" y1="194.09" x2="113.95" y2="183.88"/><line class="cls-1" x1="113.95" y1="183.88" x2="118.81" y2="176"/><line class="cls-1" x1="118.81" y1="176" x2="119.4" y2="173.89"/><line class="cls-1" x1="119.4" y1="173.89" x2="118.97" y2="173.14"/><line class="cls-1" x1="118.97" y1="173.14" x2="115.46" y2="175.89"/><line class="cls-1" x1="115.46" y1="175.89" x2="109.63" y2="181.07"/><line class="cls-1" x1="109.63" y1="181.07" x2="104.23" y2="185.34"/><line class="cls-1" x1="104.23" y1="185.34" x2="97.31" y2="190.79"/><line class="cls-1" x1="97.31" y1="190.79" x2="95.21" y2="191.06"/><line class="cls-1" x1="95.21" y1="191.06" x2="102.88" y2="181.83"/><line class="cls-1" x1="102.88" y1="181.83" x2="110.71" y2="172.97"/><line class="cls-1" x1="110.71" y1="172.97" x2="114.38" y2="168.44"/><line class="cls-1" x1="114.38" y1="168.44" x2="114.97" y2="166.82"/><line class="cls-1" x1="114.97" y1="166.82" x2="115.19" y2="165.58"/><line class="cls-1" x1="115.19" y1="165.58" x2="115.19" y2="164.6"/><line class="cls-1" x1="115.19" y1="164.6" x2="115.13" y2="163.63"/><line class="cls-1" x1="115.13" y1="163.63" x2="115.19" y2="162.66"/><line class="cls-1" x1="115.19" y1="162.66" x2="115.35" y2="161.63"/><line class="cls-1" x1="115.35" y1="161.63" x2="115.3" y2="160.77"/><line class="cls-1" x1="115.3" y1="160.77" x2="114.86" y2="160.18"/><line class="cls-1" x1="114.86" y1="160.18" x2="114.43" y2="159.58"/><line class="cls-1" x1="114.43" y1="159.58" x2="113.84" y2="159.15"/><line class="cls-1" x1="113.84" y1="159.15" x2="112.97" y2="158.77"/><line class="cls-1" x1="112.97" y1="158.77" x2="112.49" y2="158.23"/><line class="cls-1" x1="112.49" y1="158.23" x2="111.89" y2="157.69"/><line class="cls-1" x1="111.89" y1="157.69" x2="111.68" y2="156.99"/><line class="cls-1" x1="111.68" y1="156.99" x2="111.3" y2="156.29"/><line class="cls-1" x1="111.3" y1="156.29" x2="110.6" y2="155.86"/><line class="cls-1" x1="110.6" y1="155.86" x2="110.17" y2="155.21"/><line class="cls-1" x1="110.17" y1="155.21" x2="109.52" y2="154.67"/><line class="cls-1" x1="109.52" y1="154.67" x2="108.98" y2="154.07"/><line class="cls-1" x1="108.98" y1="154.07" x2="108.33" y2="153.53"/><line class="cls-1" x1="108.33" y1="153.53" x2="107.68" y2="152.94"/><line class="cls-1" x1="107.68" y1="152.94" x2="107.09" y2="152.35"/><line class="cls-1" x1="107.09" y1="152.35" x2="106.6" y2="151.64"/><line class="cls-1" x1="106.6" y1="151.64" x2="105.9" y2="151.05"/><line class="cls-1" x1="105.9" y1="151.05" x2="105.31" y2="150.4"/><line class="cls-1" x1="105.31" y1="150.4" x2="104.82" y2="149.7"/><line class="cls-1" x1="104.82" y1="149.7" x2="104.12" y2="149.05"/><line class="cls-1" x1="104.12" y1="149.05" x2="103.74" y2="148.35"/><line class="cls-1" x1="103.74" y1="148.35" x2="102.98" y2="147.65"/><line class="cls-1" x1="102.98" y1="147.65" x2="102.61" y2="146.89"/><line class="cls-1" x1="102.61" y1="146.89" x2="102.23" y2="146.14"/><line class="cls-1" x1="102.23" y1="146.14" x2="101.8" y2="145.33"/><line class="cls-1" x1="101.8" y1="145.33" x2="101.26" y2="144.57"/><line class="cls-1" x1="101.26" y1="144.57" x2="100.66" y2="143.81"/><line class="cls-1" x1="100.66" y1="143.81" x2="100.34" y2="142.95"/><line class="cls-1" x1="100.34" y1="142.95" x2="100.01" y2="142.14"/><line class="cls-1" x1="100.01" y1="142.14" x2="99.53" y2="141.33"/><line class="cls-1" x1="99.53" y1="141.33" x2="99.2" y2="140.47"/><line class="cls-1" x1="99.2" y1="140.47" x2="99.04" y2="139.6"/><line class="cls-1" x1="99.04" y1="139.6" x2="98.66" y2="138.74"/><line class="cls-1" x1="98.66" y1="138.74" x2="98.39" y2="137.82"/><line class="cls-1" x1="98.39" y1="137.82" x2="98.12" y2="137.01"/><line class="cls-1" x1="98.12" y1="137.01" x2="97.75" y2="136.09"/><line class="cls-1" x1="97.75" y1="136.09" x2="97.64" y2="135.23"/><line class="cls-1" x1="97.64" y1="135.23" x2="97.31" y2="134.31"/><line class="cls-1" x1="97.31" y1="134.31" x2="97.21" y2="133.39"/><line class="cls-1" x1="97.21" y1="133.39" x2="97.21" y2="132.47"/><line class="cls-1" x1="97.21" y1="132.47" x2="96.94" y2="131.5"/><line class="cls-1" x1="96.94" y1="131.5" x2="97.1" y2="130.58"/><line class="cls-1" x1="97.1" y1="130.58" x2="96.88" y2="129.61"/><line class="cls-1" x1="96.88" y1="129.61" x2="96.99" y2="128.69"/><line class="cls-1" x1="96.99" y1="128.69" x2="97.1" y2="127.83"/><line class="cls-1" x1="97.1" y1="127.83" x2="97.15" y2="126.86"/><line class="cls-1" x1="97.15" y1="126.86" x2="97.31" y2="125.94"/><line class="cls-1" x1="97.31" y1="125.94" x2="97.48" y2="125.02"/><line class="cls-1" x1="97.48" y1="125.02" x2="97.69" y2="124.16"/><line class="cls-1" x1="97.69" y1="124.16" x2="97.91" y2="123.24"/><line class="cls-1" x1="97.91" y1="123.24" x2="98.18" y2="122.38"/><line class="cls-1" x1="98.18" y1="122.38" x2="98.39" y2="121.46"/><line class="cls-1" x1="98.39" y1="121.46" x2="98.99" y2="120.65"/><line class="cls-1" x1="98.99" y1="120.65" x2="99.15" y2="119.73"/><line class="cls-1" x1="99.15" y1="119.73" x2="99.64" y2="118.92"/><line class="cls-1" x1="99.64" y1="118.92" x2="100.01" y2="118.06"/><line class="cls-1" x1="100.01" y1="118.06" x2="100.39" y2="117.25"/><line class="cls-1" x1="100.39" y1="117.25" x2="101.04" y2="116.49"/><line class="cls-1" x1="101.04" y1="116.49" x2="101.36" y2="115.68"/><line class="cls-1" x1="101.36" y1="115.68" x2="102.01" y2="114.98"/><line class="cls-1" x1="102.01" y1="114.98" x2="102.55" y2="114.22"/><line class="cls-1" x1="102.55" y1="114.22" x2="103.15" y2="113.47"/><line class="cls-1" x1="103.15" y1="113.47" x2="103.74" y2="112.76"/><line class="cls-1" x1="103.74" y1="112.76" x2="104.33" y2="112.06"/><line class="cls-1" x1="104.33" y1="112.06" x2="105.09" y2="111.47"/><line class="cls-1" x1="105.09" y1="111.47" x2="105.85" y2="110.87"/><line class="cls-1" x1="105.85" y1="110.87" x2="106.33" y2="110.12"/><line class="cls-1" x1="106.33" y1="110.12" x2="107.09" y2="109.58"/><line class="cls-1" x1="107.09" y1="109.58" x2="107.95" y2="109.09"/><line class="cls-1" x1="107.95" y1="109.09" x2="108.6" y2="108.5"/><line class="cls-1" x1="108.6" y1="108.5" x2="109.36" y2="108.01"/><line class="cls-1" x1="109.36" y1="108.01" x2="110.22" y2="107.58"/><line class="cls-1" x1="110.22" y1="107.58" x2="110.98" y2="107.04"/><line class="cls-1" x1="110.98" y1="107.04" x2="111.79" y2="106.61"/><line class="cls-1" x1="111.79" y1="106.61" x2="112.54" y2="106.18"/><line class="cls-1" x1="112.54" y1="106.18" x2="113.41" y2="105.8"/><line class="cls-1" x1="113.41" y1="105.8" x2="114.32" y2="105.47"/><line class="cls-1" x1="114.32" y1="105.47" x2="115.08" y2="105.1"/><line class="cls-1" x1="115.08" y1="105.1" x2="115.94" y2="104.83"/><line class="cls-1" x1="115.94" y1="104.83" x2="116.86" y2="104.56"/><line class="cls-1" x1="116.86" y1="104.56" x2="117.67" y2="104.23"/><line class="cls-1" x1="117.67" y1="104.23" x2="118.7" y2="104.18"/><line class="cls-1" x1="118.7" y1="104.18" x2="119.45" y2="103.85"/><line class="cls-1" x1="119.45" y1="103.85" x2="120.43" y2="103.75"/><line class="cls-1" x1="120.43" y1="103.75" x2="121.4" y2="103.69"/><line class="cls-1" x1="121.4" y1="103.69" x2="122.15" y2="103.48"/><line class="cls-1" x1="122.15" y1="103.48" x2="123.18" y2="103.53"/><line class="cls-1" x1="123.18" y1="103.53" x2="123.99" y2="103.42"/><line class="cls-1" x1="123.99" y1="103.42" x2="124.96" y2="103.48"/><line class="cls-1" x1="124.96" y1="103.48" x2="125.88" y2="103.53"/><line class="cls-1" x1="125.88" y1="103.53" x2="126.74" y2="103.58"/><line class="cls-1" x1="126.74" y1="103.58" x2="127.66" y2="103.69"/><line class="cls-1" x1="127.66" y1="103.69" x2="128.58" y2="103.85"/><line class="cls-1" x1="128.58" y1="103.85" x2="129.5" y2="103.96"/><line class="cls-1" x1="129.5" y1="103.96" x2="130.36" y2="104.18"/><line class="cls-1" x1="130.36" y1="104.18" x2="131.28" y2="104.45"/><line class="cls-1" x1="131.28" y1="104.45" x2="132.14" y2="104.66"/><line class="cls-1" x1="132.14" y1="104.66" x2="133.12" y2="105.2"/><line class="cls-1" x1="133.12" y1="105.2" x2="133.98" y2="105.58"/><line class="cls-1" x1="133.98" y1="105.58" x2="135.01" y2="106.34"/><line class="cls-1" x1="135.01" y1="106.34" x2="136.14" y2="107.42"/><line class="cls-1" x1="136.14" y1="107.42" x2="137.27" y2="108.61"/><line class="cls-1" x1="137.27" y1="108.61" x2="138.57" y2="110.39"/><line class="cls-1" x1="138.57" y1="110.39" x2="139.92" y2="112.49"/><line class="cls-1" x1="139.92" y1="112.49" x2="141.32" y2="114.98"/><line class="cls-1" x1="141.32" y1="114.98" x2="142.78" y2="118"/><line class="cls-1" x1="142.78" y1="118" x2="144.13" y2="121.13"/><line class="cls-1" x1="144.13" y1="121.13" x2="145.48" y2="124.43"/><line class="cls-1" x1="145.48" y1="124.43" x2="146.62" y2="127.61"/><line class="cls-1" x1="146.62" y1="127.61" x2="147.53" y2="130.31"/><line class="cls-1" x1="147.53" y1="130.31" x2="148.18" y2="132.42"/><line class="cls-1" x1="148.18" y1="132.42" x2="148.61" y2="133.93"/><line class="cls-1" x1="148.61" y1="133.93" x2="148.88" y2="134.96"/><line class="cls-1" x1="148.88" y1="134.96" x2="149.05" y2="135.61"/><line class="cls-1" x1="149.05" y1="135.61" x2="149.15" y2="135.98"/><line class="cls-1" x1="149.15" y1="135.98" x2="149.15" y2="136.09"/><line class="cls-1" x1="149.15" y1="136.09" x2="149.21" y2="136.09"/><line class="cls-1" x1="149.21" y1="136.09" x2="149.21" y2="136.09"/><line class="cls-1" x1="149.21" y1="136.09" x2="149.21" y2="136.09"/><line class="cls-1" x1="149.21" y1="136.09" x2="149.26" y2="136.09"/><line class="cls-1" x1="149.26" y1="136.09" x2="149.26" y2="136.09"/><line class="cls-1" x1="149.26" y1="136.09" x2="149.26" y2="136.09"/><line class="cls-1" x1="149.26" y1="136.09" x2="149.26" y2="136.09"/><line class="cls-1" x1="149.26" y1="136.09" x2="149.26" y2="136.09"/><line class="cls-1" x1="149.26" y1="136.09" x2="149.26" y2="136.09"/><line class="cls-1" x1="149.26" y1="180.91" x2="149.48" y2="180.97"/><line class="cls-1" x1="150.56" y1="180.43" x2="150.72" y2="180.21"/><line class="cls-1" x1="151.85" y1="179.67" x2="152.07" y2="179.51"/><line class="cls-1" x1="152.93" y1="180.26" x2="153.1" y2="180.48"/><line class="cls-1" x1="153.96" y1="179.89" x2="154.12" y2="180.05"/><line class="cls-1" x1="154.93" y1="181.07" x2="155.04" y2="181.29"/><line class="cls-1" x1="155.74" y1="182.37" x2="155.9" y2="182.59"/><line class="cls-1" x1="156.71" y1="183.56" x2="156.93" y2="183.61"/><line class="cls-1" x1="158.06" y1="184.26" x2="158.28" y2="184.37"/><line class="cls-1" x1="159.25" y1="185.23" x2="159.47" y2="185.39"/><line class="cls-1" x1="160.49" y1="186.26" x2="160.71" y2="186.42"/><line class="cls-1" x1="161.95" y1="186.91" x2="162.11" y2="187.12"/><line class="cls-1" x1="163.03" y1="188.09" x2="163.19" y2="188.26"/><line class="cls-1" x1="164.06" y1="189.23" x2="164.22" y2="189.44"/><line class="cls-1" x1="165.19" y1="190.31" x2="165.41" y2="190.47"/><line class="cls-1" x1="166.43" y1="191.33" x2="166.65" y2="191.5"/><line class="cls-1" x1="167.68" y1="192.25" x2="167.89" y2="192.36"/><line class="cls-1" x1="168.97" y1="193.12" x2="169.19" y2="193.28"/><line class="cls-1" x1="170.21" y1="194.14" x2="170.38" y2="194.36"/><line class="cls-1" x1="171.24" y1="195.33" x2="171.4" y2="195.49"/><line class="cls-1" x1="172.32" y1="196.46" x2="172.54" y2="196.63"/><line class="cls-1" x1="173.51" y1="197.54" x2="173.67" y2="197.71"/><line class="cls-1" x1="174.64" y1="198.57" x2="174.86" y2="198.73"/><line class="cls-1" x1="175.88" y1="199.6" x2="176.1" y2="199.7"/><line class="cls-1" x1="177.18" y1="200.46" x2="177.4" y2="200.62"/><line class="cls-1" x1="178.48" y1="201.32" x2="178.69" y2="201.49"/><line class="cls-1" x1="179.77" y1="202.13" x2="179.99" y2="202.24"/><line class="cls-1" x1="181.12" y1="202.78" x2="181.34" y2="202.89"/><line class="cls-1" x1="182.47" y1="203.43" x2="182.69" y2="203.54"/><line class="cls-1" x1="183.82" y1="204.08" x2="184.04" y2="204.19"/><line class="cls-1" x1="185.17" y1="204.73" x2="185.33" y2="204.83"/><line class="cls-1" x1="185.33" y1="204.83" x2="185.39" y2="204.83"/><line class="cls-1" x1="186.52" y1="205.37" x2="186.74" y2="205.48"/><line class="cls-1" x1="187.93" y1="205.91" x2="188.14" y2="206.02"/><line class="cls-1" x1="189.38" y1="206.4" x2="189.38" y2="206.4"/><line class="cls-1" x1="189.38" y1="206.4" x2="189.6" y2="206.51"/><line class="cls-1" x1="190.79" y1="206.99" x2="191" y2="207.05"/><line class="cls-1" x1="192.19" y1="207.43" x2="192.41" y2="207.48"/><line class="cls-1" x1="193.65" y1="207.7" x2="193.92" y2="207.75"/><line class="cls-1" x1="195.22" y1="207.8" x2="195.27" y2="207.8"/><line class="cls-1" x1="195.27" y1="207.8" x2="195.43" y2="207.75"/><line class="cls-1" x1="196.67" y1="207.53" x2="196.84" y2="207.48"/><line class="cls-1" x1="196.84" y1="207.48" x2="196.89" y2="207.48"/><line class="cls-1" x1="198.19" y1="207.32" x2="198.4" y2="207.26"/><line class="cls-1" x1="198.19" y1="206.13" x2="198.13" y2="205.91"/><line class="cls-1" x1="197.75" y1="204.73" x2="197.7" y2="204.51"/><line class="cls-1" x1="197.32" y1="203.27" x2="197.27" y2="203.05"/><line class="cls-1" x1="196.67" y1="201.92" x2="196.51" y2="201.7"/><line class="cls-1" x1="195.86" y1="200.57" x2="195.76" y2="200.35"/><line class="cls-1" x1="195.11" y1="199.27" x2="195" y2="199.06"/><line class="cls-1" x1="194.35" y1="197.92" x2="194.24" y2="197.71"/><line class="cls-1" x1="193.6" y1="196.63" x2="193.49" y2="196.41"/><line class="cls-1" x1="192.84" y1="195.28" x2="192.73" y2="195.06"/><line class="cls-1" x1="192.08" y1="193.98" x2="191.98" y2="193.76"/><line class="cls-1" x1="191.33" y1="192.68" x2="191.17" y2="192.47"/><line class="cls-1" x1="190.41" y1="191.39" x2="190.3" y2="191.17"/><line class="cls-1" x1="189.55" y1="190.09" x2="189.44" y2="189.88"/><line class="cls-1" x1="188.68" y1="188.8" x2="188.52" y2="188.58"/><line class="cls-1" x1="187.82" y1="187.5" x2="187.66" y2="187.28"/><line class="cls-1" x1="186.95" y1="186.2" x2="186.79" y2="185.99"/><line class="cls-1" x1="186.09" y1="184.91" x2="185.93" y2="184.69"/><line class="cls-1" x1="185.17" y1="183.61" x2="185.06" y2="183.4"/><line class="cls-1" x1="184.31" y1="182.32" x2="184.15" y2="182.1"/><line class="cls-1" x1="183.44" y1="181.02" x2="183.28" y2="180.8"/><line class="cls-1" x1="182.58" y1="179.72" x2="182.42" y2="179.51"/><line class="cls-1" x1="181.72" y1="178.43" x2="181.61" y2="178.21"/><line class="cls-1" x1="180.96" y1="177.13" x2="180.85" y2="176.92"/><line class="cls-1" x1="180.2" y1="175.84" x2="180.1" y2="175.62"/><line class="cls-1" x1="179.45" y1="174.49" x2="179.34" y2="174.27"/><line class="cls-1" x1="179.02" y1="173.14" x2="179.07" y2="172.92"/><line class="cls-1" x1="179.45" y1="171.68" x2="179.45" y2="171.68"/><line class="cls-1" x1="179.45" y1="171.68" x2="179.56" y2="171.46"/><line class="cls-1" x1="180.2" y1="170.38" x2="180.31" y2="170.22"/><line class="cls-1" x1="180.31" y1="170.22" x2="180.31" y2="170.17"/><line class="cls-1" x1="180.8" y1="169.03" x2="180.91" y2="168.82"/><line class="cls-1" x1="181.45" y1="167.63" x2="181.55" y2="167.41"/><line class="cls-1" x1="181.99" y1="166.22" x2="182.09" y2="166.01"/><line class="cls-1" x1="182.47" y1="164.82" x2="182.47" y2="164.82"/><line class="cls-1" x1="182.47" y1="164.82" x2="182.53" y2="164.6"/><line class="cls-1" x1="182.85" y1="163.36" x2="182.9" y2="163.2"/><line class="cls-1" x1="182.9" y1="163.2" x2="182.9" y2="163.15"/><line class="cls-1" x1="182.63" y1="161.9" x2="182.58" y2="161.69"/><line class="cls-1" x1="182.58" y1="160.45" x2="182.58" y2="160.28"/><line class="cls-1" x1="182.58" y1="160.28" x2="182.63" y2="160.18"/><line class="cls-1" x1="183.34" y1="159.1" x2="183.34" y2="159.1"/><line class="cls-1" x1="183.34" y1="159.1" x2="183.5" y2="158.93"/><line class="cls-1" x1="184.31" y1="157.91" x2="184.52" y2="157.75"/><line class="cls-1" x1="185.5" y1="156.88" x2="185.66" y2="156.72"/><line class="cls-1" x1="186.63" y1="155.91" x2="186.79" y2="155.75"/><line class="cls-1" x1="187.76" y1="154.83" x2="187.98" y2="154.72"/><line class="cls-1" x1="188.95" y1="153.8" x2="188.95" y2="153.8"/><line class="cls-1" x1="188.95" y1="153.8" x2="189.11" y2="153.64"/><line class="cls-1" x1="190.09" y1="152.78" x2="190.25" y2="152.67"/><line class="cls-1" x1="190.25" y1="152.67" x2="190.3" y2="152.62"/><line class="cls-1" x1="191.22" y1="151.7" x2="191.38" y2="151.54"/><line class="cls-1" x1="192.3" y1="150.56" x2="192.52" y2="150.4"/><line class="cls-1" x1="193.33" y1="149.38" x2="193.49" y2="149.21"/><line class="cls-1" x1="194.3" y1="148.24" x2="194.35" y2="148.19"/><line class="cls-1" x1="194.35" y1="148.19" x2="194.46" y2="148.08"/><line class="cls-1" x1="195.32" y1="147.05" x2="195.49" y2="146.84"/><line class="cls-1" x1="196.13" y1="145.76" x2="196.24" y2="145.54"/><line class="cls-1" x1="197" y1="144.52" x2="197" y2="144.52"/><line class="cls-1" x1="197" y1="144.52" x2="197.11" y2="144.3"/><line class="cls-1" x1="197.59" y1="143.11" x2="197.7" y2="142.9"/><line class="cls-1" x1="198.29" y1="141.82" x2="198.4" y2="141.6"/><line class="cls-1" x1="198.94" y1="140.47" x2="198.94" y2="140.41"/><line class="cls-1" x1="198.94" y1="140.41" x2="199" y2="140.25"/><line class="cls-1" x1="199.32" y1="139.01" x2="199.37" y2="138.79"/><line class="cls-1" x1="199.81" y1="137.6" x2="199.91" y2="137.39"/><line class="cls-1" x1="200.35" y1="136.2" x2="200.35" y2="136.09"/><line class="cls-1" x1="200.35" y1="136.09" x2="200.4" y2="135.93"/><line class="cls-1" x1="200.72" y1="134.69" x2="200.78" y2="134.47"/><line class="cls-1" x1="200.89" y1="133.18" x2="200.94" y2="132.96"/><line class="cls-1" x1="201.16" y1="131.66" x2="201.16" y2="131.56"/><line class="cls-1" x1="201.16" y1="131.56" x2="201.16" y2="131.39"/><line class="cls-1" x1="201.21" y1="130.1" x2="201.26" y2="129.83"/><line class="cls-1" x1="201.16" y1="128.53" x2="201.1" y2="128.32"/><line class="cls-1" x1="201.1" y1="127.02" x2="201.1" y2="126.91"/><line class="cls-1" x1="201.1" y1="126.91" x2="201.05" y2="126.8"/><line class="cls-1" x1="200.78" y1="125.56" x2="200.72" y2="125.35"/><line class="cls-1" x1="200.51" y1="124.1" x2="200.45" y2="123.89"/><line class="cls-1" x1="200.08" y1="122.7" x2="200.02" y2="122.48"/><line class="cls-1" x1="199.64" y1="121.24" x2="199.54" y2="121.03"/><line class="cls-1" x1="199" y1="119.89" x2="199" y2="119.89"/><line class="cls-1" x1="199" y1="119.89" x2="198.94" y2="119.68"/><line class="cls-1" x1="198.4" y1="118.54" x2="198.24" y2="118.33"/><line class="cls-1" x1="197.59" y1="117.25" x2="197.48" y2="117.03"/><line class="cls-1" x1="196.78" y1="115.95" x2="196.73" y2="115.9"/><line class="cls-1" x1="196.73" y1="115.9" x2="196.62" y2="115.73"/><line class="cls-1" x1="195.86" y1="114.65" x2="195.7" y2="114.44"/><line class="cls-1" x1="194.89" y1="113.41" x2="194.73" y2="113.2"/><line class="cls-1" x1="193.81" y1="112.22" x2="193.6" y2="112.06"/><line class="cls-1" x1="192.62" y1="111.14" x2="192.52" y2="111.04"/><line class="cls-1" x1="192.52" y1="111.04" x2="192.46" y2="110.98"/><line class="cls-1" x1="191.44" y1="110.12" x2="191.22" y2="109.96"/><line class="cls-1" x1="190.19" y1="109.2" x2="189.98" y2="109.04"/><line class="cls-1" x1="188.9" y1="108.39" x2="188.79" y2="108.34"/><line class="cls-1" x1="188.79" y1="108.34" x2="188.68" y2="108.28"/><line class="cls-1" x1="187.6" y1="107.63" x2="187.39" y2="107.53"/><line class="cls-1" x1="186.31" y1="106.88" x2="186.09" y2="106.77"/><line class="cls-1" x1="184.9" y1="106.28" x2="184.69" y2="106.23"/><line class="cls-1" x1="183.55" y1="105.74" x2="183.34" y2="105.64"/><line class="cls-1" x1="182.15" y1="105.26" x2="182.15" y2="105.26"/><line class="cls-1" x1="182.15" y1="105.26" x2="181.93" y2="105.2"/><line class="cls-1" x1="180.74" y1="104.88" x2="180.53" y2="104.83"/><line class="cls-1" x1="179.29" y1="104.5" x2="179.07" y2="104.45"/><line class="cls-1" x1="177.83" y1="104.23" x2="177.77" y2="104.23"/><line class="cls-1" x1="177.77" y1="104.23" x2="177.61" y2="104.18"/><line class="cls-1" x1="176.32" y1="103.96" x2="176.1" y2="103.91"/><line class="cls-1" x1="174.8" y1="103.91" x2="174.53" y2="103.91"/><line class="cls-1" x1="173.24" y1="103.85" x2="172.97" y2="103.85"/><line class="cls-1" x1="171.67" y1="103.91" x2="171.62" y2="103.91"/><line class="cls-1" x1="171.62" y1="103.91" x2="171.4" y2="103.91"/><line class="cls-1" x1="170.11" y1="104.12" x2="169.89" y2="104.18"/><line class="cls-1" x1="168.59" y1="104.34" x2="168.38" y2="104.39"/><line class="cls-1" x1="167.19" y1="104.83" x2="167.14" y2="104.83"/><line class="cls-1" x1="167.14" y1="104.83" x2="166.97" y2="104.88"/><line class="cls-1" x1="165.79" y1="105.31" x2="165.57" y2="105.42"/><line class="cls-1" x1="164.44" y1="105.96" x2="164.38" y2="106.01"/><line class="cls-1" x1="164.38" y1="106.01" x2="164.22" y2="106.12"/><line class="cls-1" x1="163.14" y1="106.88" x2="162.98" y2="107.04"/><line class="cls-1" x1="162.01" y1="107.96" x2="161.84" y2="108.12"/><line class="cls-1" x1="160.98" y1="109.15" x2="160.82" y2="109.36"/><line class="cls-1" x1="160.01" y1="110.39" x2="160.01" y2="110.39"/><line class="cls-1" x1="160.01" y1="110.39" x2="159.85" y2="110.6"/><line class="cls-1" x1="159.2" y1="111.68" x2="159.04" y2="111.9"/><line class="cls-1" x1="158.39" y1="112.98" x2="158.28" y2="113.2"/><line class="cls-1" x1="157.63" y1="114.33" x2="157.52" y2="114.55"/><line class="cls-1" x1="156.93" y1="115.68" x2="156.82" y2="115.9"/><line class="cls-1" x1="156.23" y1="117.03" x2="156.12" y2="117.25"/><line class="cls-1" x1="155.58" y1="118.38" x2="155.53" y2="118.6"/><line class="cls-1" x1="154.99" y1="119.73" x2="154.93" y2="119.95"/><line class="cls-1" x1="154.39" y1="121.08" x2="154.39" y2="121.13"/><line class="cls-1" x1="154.39" y1="121.13" x2="154.34" y2="121.3"/><line class="cls-1" x1="153.85" y1="122.48" x2="153.8" y2="122.7"/><line class="cls-1" x1="153.31" y1="123.83" x2="153.26" y2="124.05"/><line class="cls-1" x1="152.83" y1="125.24" x2="152.72" y2="125.45"/><line class="cls-1" x1="152.34" y1="126.64" x2="152.23" y2="126.86"/><line class="cls-1" x1="151.8" y1="128.05" x2="151.75" y2="128.26"/><line class="cls-1" x1="151.31" y1="129.45" x2="151.26" y2="129.67"/><line class="cls-1" x1="150.88" y1="130.85" x2="150.83" y2="131.07"/><line class="cls-1" x1="150.45" y1="132.26" x2="150.4" y2="132.47"/><line class="cls-1" x1="150.02" y1="133.72" x2="149.96" y2="133.93"/><line class="cls-1" x1="149.64" y1="135.17" x2="149.59" y2="135.39"/><line class="cls-1" x1="148.88" y1="180.7" x2="148.67" y2="180.53"/><line class="cls-1" x1="148.02" y1="179.45" x2="147.91" y2="179.24"/><line class="cls-1" x1="147.05" y1="178.27" x2="146.83" y2="178.1"/><line class="cls-1" x1="145.7" y1="177.67" x2="145.43" y2="177.67"/><line class="cls-1" x1="144.13" y1="177.67" x2="143.92" y2="177.83"/><line class="cls-1" x1="143" y1="178.75" x2="142.84" y2="178.97"/><line class="cls-1" x1="142.03" y1="179.99" x2="141.86" y2="180.16"/><line class="cls-1" x1="140.89" y1="181.07" x2="140.73" y2="181.24"/><line class="cls-1" x1="139.54" y1="181.51" x2="139.33" y2="181.45"/><line class="cls-1" x1="138.14" y1="181.13" x2="137.92" y2="181.18"/><line class="cls-1" x1="136.73" y1="181.61" x2="136.52" y2="181.67"/><line class="cls-1" x1="135.55" y1="182.53" x2="135.33" y2="182.69"/><line class="cls-1" x1="134.57" y1="183.72" x2="134.41" y2="183.88"/><line class="cls-1" x1="133.66" y1="184.91" x2="133.49" y2="185.12"/><line class="cls-1" x1="132.74" y1="186.15" x2="132.58" y2="186.37"/><line class="cls-1" x1="131.82" y1="187.39" x2="131.66" y2="187.61"/><line class="cls-1" x1="130.9" y1="188.63" x2="130.74" y2="188.85"/><line class="cls-1" x1="129.93" y1="189.88" x2="129.77" y2="190.04"/><line class="cls-1" x1="128.9" y1="191.01" x2="128.74" y2="191.23"/><line class="cls-1" x1="127.82" y1="192.2" x2="127.66" y2="192.36"/><line class="cls-1" x1="126.69" y1="193.28" x2="126.53" y2="193.44"/><line class="cls-1" x1="125.5" y1="194.2" x2="125.34" y2="194.36"/><line class="cls-1" x1="124.26" y1="195.06" x2="124.04" y2="195.17"/><line class="cls-1" x1="122.91" y1="195.71" x2="122.64" y2="195.76"/><line class="cls-1" x1="121.4" y1="196.03" x2="121.18" y2="196.09"/><line class="cls-1" x1="119.94" y1="196.46" x2="119.67" y2="196.52"/><line class="cls-1" x1="118.43" y1="196.79" x2="118.21" y2="196.84"/><line class="cls-1" x1="117.02" y1="197.17" x2="116.75" y2="197.17"/><line class="cls-1" x1="115.46" y1="197.38" x2="115.24" y2="197.44"/><line class="cls-1" x1="114.05" y1="197.81" x2="113.84" y2="197.87"/><line class="cls-1" x1="112.6" y1="198.19" x2="112.54" y2="198.19"/><line class="cls-1" x1="112.54" y1="198.19" x2="112.38" y2="198.25"/><line class="cls-1" x1="111.14" y1="198.62" x2="110.92" y2="198.68"/><line class="cls-1" x1="109.68" y1="198.95" x2="109.46" y2="199"/><line class="cls-1" x1="108.17" y1="199.16" x2="107.9" y2="199.16"/><line class="cls-1" x1="106.55" y1="199.16" x2="106.28" y2="199.16"/><line class="cls-1" x1="105.52" y1="198.3" x2="105.47" y2="198.08"/><line class="cls-1" x1="105.63" y1="196.9" x2="105.74" y2="196.68"/><line class="cls-1" x1="106.28" y1="195.55" x2="106.39" y2="195.33"/><line class="cls-1" x1="106.98" y1="194.2" x2="107.09" y2="193.98"/><line class="cls-1" x1="107.63" y1="192.85" x2="107.74" y2="192.63"/><line class="cls-1" x1="108.33" y1="191.5" x2="108.44" y2="191.28"/><line class="cls-1" x1="109.09" y1="190.2" x2="109.25" y2="189.98"/><line class="cls-1" x1="109.95" y1="188.9" x2="110.11" y2="188.69"/><line class="cls-1" x1="110.81" y1="187.61" x2="110.98" y2="187.39"/><line class="cls-1" x1="111.68" y1="186.31" x2="111.84" y2="186.1"/><line class="cls-1" x1="112.54" y1="185.02" x2="112.7" y2="184.8"/><line class="cls-1" x1="113.41" y1="183.72" x2="113.57" y2="183.5"/><line class="cls-1" x1="114.27" y1="182.42" x2="114.43" y2="182.21"/><line class="cls-1" x1="115.13" y1="181.13" x2="115.3" y2="180.91"/><line class="cls-1" x1="116" y1="179.83" x2="116.16" y2="179.62"/><line class="cls-1" x1="116.86" y1="178.54" x2="117.02" y2="178.32"/><line class="cls-1" x1="117.62" y1="177.19" x2="117.73" y2="176.97"/><line class="cls-1" x1="118.27" y1="175.84" x2="118.37" y2="175.62"/><line class="cls-1" x1="118.97" y1="174.49" x2="119.02" y2="174.38"/><line class="cls-1" x1="119.02" y1="174.38" x2="119.02" y2="174.27"/><line class="cls-1" x1="118.75" y1="172.97" x2="118.59" y2="172.76"/><line class="cls-1" x1="118" y1="171.62" x2="117.89" y2="171.41"/><line class="cls-1" x1="117.24" y1="170.33" x2="117.19" y2="170.27"/><line class="cls-1" x1="117.19" y1="170.27" x2="117.13" y2="170.11"/><line class="cls-1" x1="116.59" y1="168.92" x2="116.48" y2="168.71"/><line class="cls-1" x1="115.84" y1="167.57" x2="115.73" y2="167.36"/><line class="cls-1" x1="115.24" y1="166.22" x2="115.19" y2="166.01"/><line class="cls-1" x1="114.65" y1="164.87" x2="114.59" y2="164.66"/><line class="cls-1" x1="114.43" y1="163.42" x2="114.43" y2="163.25"/><line class="cls-1" x1="114.43" y1="163.25" x2="114.43" y2="163.15"/><line class="cls-1" x1="114.65" y1="161.9" x2="114.65" y2="161.63"/><line class="cls-1" x1="114.22" y1="160.39" x2="114.05" y2="160.18"/><line class="cls-1" x1="113.24" y1="159.15" x2="113.08" y2="158.99"/><line class="cls-1" x1="112.06" y1="158.12" x2="111.89" y2="157.96"/><line class="cls-1" x1="110.92" y1="157.04" x2="110.71" y2="156.88"/><line class="cls-1" x1="109.68" y1="156.07" x2="109.52" y2="155.91"/><line class="cls-1" x1="108.6" y1="154.99" x2="108.38" y2="154.83"/><line class="cls-1" x1="107.36" y1="154.07" x2="107.25" y2="153.97"/><line class="cls-1" x1="107.25" y1="153.97" x2="107.2" y2="153.91"/><line class="cls-1" x1="106.28" y1="152.94" x2="106.12" y2="152.78"/><line class="cls-1" x1="105.09" y1="151.91" x2="104.93" y2="151.75"/><line class="cls-1" x1="104.06" y1="150.78" x2="104.06" y2="150.78"/><line class="cls-1" x1="104.06" y1="150.78" x2="103.9" y2="150.56"/><line class="cls-1" x1="102.98" y1="149.59" x2="102.77" y2="149.43"/><line class="cls-1" x1="102.07" y1="148.35" x2="101.9" y2="148.13"/><line class="cls-1" x1="101.04" y1="147.16" x2="100.88" y2="146.95"/><line class="cls-1" x1="100.23" y1="145.87" x2="100.12" y2="145.65"/><line class="cls-1" x1="99.37" y1="144.62" x2="99.26" y2="144.41"/><line class="cls-1" x1="98.72" y1="143.27" x2="98.66" y2="143.17"/><line class="cls-1" x1="98.66" y1="143.17" x2="98.61" y2="143.06"/><line class="cls-1" x1="98.02" y1="141.92" x2="97.85" y2="141.71"/><line class="cls-1" x1="97.48" y1="140.52" x2="97.37" y2="140.3"/><line class="cls-1" x1="96.88" y1="139.12" x2="96.77" y2="138.9"/><line class="cls-1" x1="96.4" y1="137.71" x2="96.34" y2="137.5"/><line class="cls-1" x1="95.96" y1="136.31" x2="95.86" y2="136.09"/><line class="cls-1" x1="95.53" y1="134.85" x2="95.48" y2="134.63"/><line class="cls-1" x1="95.32" y1="133.34" x2="95.32" y2="133.23"/><line class="cls-1" x1="95.32" y1="133.23" x2="95.26" y2="133.12"/><line class="cls-1" x1="94.99" y1="131.88" x2="94.94" y2="131.66"/><line class="cls-1" x1="94.94" y1="130.31" x2="94.94" y2="130.31"/><line class="cls-1" x1="94.94" y1="130.31" x2="94.94" y2="130.04"/><line class="cls-1" x1="94.83" y1="128.75" x2="94.83" y2="128.48"/><line class="cls-1" x1="94.99" y1="127.18" x2="94.94" y2="126.91"/><line class="cls-1" x1="95.05" y1="125.62" x2="95.05" y2="125.45"/><line class="cls-1" x1="95.05" y1="125.45" x2="95.05" y2="125.35"/><line class="cls-1" x1="95.42" y1="124.1" x2="95.48" y2="123.89"/><line class="cls-1" x1="95.64" y1="122.65" x2="95.64" y2="122.65"/><line class="cls-1" x1="95.64" y1="122.65" x2="95.69" y2="122.43"/><line class="cls-1" x1="96.18" y1="121.24" x2="96.23" y2="121.03"/><line class="cls-1" x1="96.61" y1="119.84" x2="96.72" y2="119.62"/><line class="cls-1" x1="97.26" y1="118.43" x2="97.37" y2="118.22"/><line class="cls-1" x1="98.02" y1="117.08" x2="98.12" y2="116.87"/><line class="cls-1" x1="98.66" y1="115.73" x2="98.77" y2="115.57"/><line class="cls-1" x1="98.77" y1="115.57" x2="98.83" y2="115.52"/><line class="cls-1" x1="99.58" y1="114.49" x2="99.74" y2="114.28"/><line class="cls-1" x1="100.5" y1="113.2" x2="100.5" y2="113.2"/><line class="cls-1" x1="100.5" y1="113.2" x2="100.66" y2="113.03"/><line class="cls-1" x1="101.58" y1="112.06" x2="101.74" y2="111.9"/><line class="cls-1" x1="102.61" y1="110.93" x2="102.77" y2="110.77"/><line class="cls-1" x1="103.74" y1="109.9" x2="103.96" y2="109.74"/><line class="cls-1" x1="104.98" y1="108.88" x2="105.2" y2="108.71"/><line class="cls-1" x1="106.17" y1="107.9" x2="106.17" y2="107.9"/><line class="cls-1" x1="106.17" y1="107.9" x2="106.39" y2="107.8"/><line class="cls-1" x1="107.47" y1="107.09" x2="107.63" y2="106.93"/><line class="cls-1" x1="108.76" y1="106.34" x2="108.98" y2="106.23"/><line class="cls-1" x1="110.06" y1="105.64" x2="110.27" y2="105.53"/><line class="cls-1" x1="111.41" y1="105.04" x2="111.62" y2="104.93"/><line class="cls-1" x1="112.81" y1="104.45" x2="113.03" y2="104.34"/><line class="cls-1" x1="114.22" y1="103.96" x2="114.43" y2="103.85"/><line class="cls-1" x1="115.67" y1="103.53" x2="115.78" y2="103.48"/><line class="cls-1" x1="115.78" y1="103.48" x2="115.89" y2="103.42"/><line class="cls-1" x1="117.13" y1="103.15" x2="117.35" y2="103.1"/><line class="cls-1" x1="118.59" y1="102.88" x2="118.59" y2="102.88"/><line class="cls-1" x1="118.59" y1="102.88" x2="118.81" y2="102.83"/><line class="cls-1" x1="120.05" y1="102.61" x2="120.32" y2="102.61"/><line class="cls-1" x1="121.61" y1="102.45" x2="121.83" y2="102.4"/><line class="cls-1" x1="123.18" y1="102.4" x2="123.23" y2="102.4"/><line class="cls-1" x1="123.23" y1="102.4" x2="123.45" y2="102.4"/><line class="cls-1" x1="124.75" y1="102.4" x2="125.02" y2="102.4"/><line class="cls-1" x1="126.31" y1="102.5" x2="126.58" y2="102.5"/><line class="cls-1" x1="127.88" y1="102.61" x2="128.09" y2="102.67"/><line class="cls-1" x1="129.34" y1="102.88" x2="129.55" y2="102.94"/><line class="cls-1" x1="130.74" y1="103.37" x2="130.96" y2="103.42"/><line class="cls-1" x1="132.14" y1="103.85" x2="132.36" y2="103.91"/><line class="cls-1" x1="133.49" y1="104.5" x2="133.71" y2="104.61"/><line class="cls-1" x1="134.79" y1="105.37" x2="135.01" y2="105.53"/><line class="cls-1" x1="135.98" y1="106.45" x2="136.14" y2="106.61"/><line class="cls-1" x1="137" y1="107.58" x2="137.17" y2="107.74"/><line class="cls-1" x1="137.98" y1="108.77" x2="138.14" y2="108.98"/><line class="cls-1" x1="138.84" y1="110.06" x2="139" y2="110.28"/><line class="cls-1" x1="139.65" y1="111.36" x2="139.76" y2="111.58"/><line class="cls-1" x1="140.41" y1="112.66" x2="140.51" y2="112.87"/><line class="cls-1" x1="141.11" y1="114.01" x2="141.22" y2="114.22"/><line class="cls-1" x1="141.76" y1="115.36" x2="141.86" y2="115.57"/><line class="cls-1" x1="142.4" y1="116.71" x2="142.51" y2="116.92"/><line class="cls-1" x1="143" y1="118.11" x2="143.11" y2="118.33"/><line class="cls-1" x1="143.65" y1="119.46" x2="143.7" y2="119.68"/><line class="cls-1" x1="144.19" y1="120.81" x2="144.29" y2="121.03"/><line class="cls-1" x1="144.78" y1="122.21" x2="144.89" y2="122.43"/><line class="cls-1" x1="145.32" y1="123.62" x2="145.37" y2="123.83"/><line class="cls-1" x1="145.81" y1="125.02" x2="145.86" y2="125.24"/><line class="cls-1" x1="146.29" y1="126.43" x2="146.4" y2="126.64"/><line class="cls-1" x1="146.78" y1="127.83" x2="146.89" y2="128.05"/><line class="cls-1" x1="147.26" y1="129.23" x2="147.32" y2="129.45"/><line class="cls-1" x1="147.7" y1="130.64" x2="147.8" y2="130.85"/><line class="cls-1" x1="148.13" y1="132.1" x2="148.18" y2="132.31"/><line class="cls-1" x1="148.56" y1="133.5" x2="148.61" y2="133.72"/><line class="cls-1" x1="148.94" y1="134.96" x2="148.94" y2="134.96"/><line class="cls-1" x1="148.94" y1="134.96" x2="148.99" y2="135.17"/></g></svg>