<svg id="May_Day" xmlns="http://www.w3.org/2000/svg" viewBox="0 0 300 263"><defs><style>.cls-1,.cls-3,.cls-4{fill:none;stroke-width:0.5px;}.cls-1{stroke:#000;}.cls-2{isolation:isolate;}.cls-3,.cls-4{stroke:#1d1d1b;}.cls-3{stroke-linecap:round;stroke-linejoin:round;}</style></defs><title>may-day-table-grcic-flos-F3780002-spech-tech-02-300x263</title><line class="cls-1" x1="197" y1="216.41" x2="197" y2="46.3"/><line class="cls-1" x1="195.3" y1="216.41" x2="198.7" y2="216.41"/><line class="cls-1" x1="195.3" y1="46.3" x2="198.7" y2="46.3"/><line class="cls-1" x1="115.41" y1="226.96" x2="184.59" y2="226.96"/><line class="cls-1" x1="115.41" y1="225.52" x2="115.41" y2="228.4"/><line class="cls-1" x1="184.59" y1="225.52" x2="184.59" y2="228.4"/><g class="cls-2"><path d="M120.54,241a3.67,3.67,0,0,1,.7,1.16,4.15,4.15,0,0,1,0,3,3.7,3.7,0,0,1-.85,1.25,4,4,0,0,1-1.3.82,4.78,4.78,0,0,1-3.13.07,3.82,3.82,0,0,1-1.15-.61l-1.11,1.09-.54-.49,1.1-1.09a3.45,3.45,0,0,1-.71-1.18,4,4,0,0,1-.25-1.43,4,4,0,0,1,.3-1.57,3.88,3.88,0,0,1,.86-1.25,3.94,3.94,0,0,1,1.3-.82,4.49,4.49,0,0,1,1.66-.3,4.72,4.72,0,0,1,1.44.22,4,4,0,0,1,1.2.62l1.09-1.09.54.49Zm-1.3.26a2.8,2.8,0,0,0-1.87-.63,2.92,2.92,0,0,0-1.22.24,2.6,2.6,0,0,0-.92.63,2.91,2.91,0,0,0-.58.94,3.24,3.24,0,0,0-.21,1.17,2.87,2.87,0,0,0,.57,1.82ZM115.51,246a2.88,2.88,0,0,0,.83.45,3.32,3.32,0,0,0,1,.16,3,3,0,0,0,1.22-.24,2.69,2.69,0,0,0,.92-.63,2.83,2.83,0,0,0,.59-.94,3.2,3.2,0,0,0,.21-1.17,3,3,0,0,0-.57-1.82Z"/><path d="M135.19,247.32h-7.48V246l4.69-4.6c.18-.17.35-.35.53-.54a4,4,0,0,0,.48-.61,2.85,2.85,0,0,0,.35-.67,2,2,0,0,0,.13-.74,1.9,1.9,0,0,0-.17-.83,1.85,1.85,0,0,0-.49-.62,2.22,2.22,0,0,0-.73-.39,2.84,2.84,0,0,0-.88-.14,2.45,2.45,0,0,0-1.53.48,2.15,2.15,0,0,0-.81,1.3l-1.27-.13a3.18,3.18,0,0,1,1.21-2,3.73,3.73,0,0,1,2.32-.72,5,5,0,0,1,1.35.19,3.31,3.31,0,0,1,1.13.55,2.66,2.66,0,0,1,.78.92,2.79,2.79,0,0,1,.29,1.29,3.29,3.29,0,0,1-.21,1.2,5,5,0,0,1-.54,1,6.47,6.47,0,0,1-.75.91c-.29.29-.58.58-.87.85L129,246.27h6.18Z"/><path d="M144.43,247.32H137V246l4.69-4.6.53-.54a5.87,5.87,0,0,0,.48-.61,3.28,3.28,0,0,0,.35-.67,2,2,0,0,0,.13-.74A2.05,2.05,0,0,0,143,238a1.85,1.85,0,0,0-.49-.62,2.33,2.33,0,0,0-.73-.39,2.86,2.86,0,0,0-.89-.14,2.44,2.44,0,0,0-1.52.48,2.16,2.16,0,0,0-.82,1.3l-1.26-.13a3.21,3.21,0,0,1,1.2-2,3.75,3.75,0,0,1,2.32-.72,5,5,0,0,1,1.36.19,3.4,3.4,0,0,1,1.13.55,2.9,2.9,0,0,1,.78.92,2.79,2.79,0,0,1,.29,1.29,3.29,3.29,0,0,1-.21,1.2,5,5,0,0,1-.54,1,5.92,5.92,0,0,1-.76.91c-.28.29-.57.58-.87.85l-3.7,3.54h6.18Z"/><path d="M150,235.8a3.44,3.44,0,0,1,2,.56,3.8,3.8,0,0,1,1.21,1.43,6.14,6.14,0,0,1,.59,1.89,13.14,13.14,0,0,1,0,4,6.14,6.14,0,0,1-.59,1.89,3.8,3.8,0,0,1-1.21,1.43,3.44,3.44,0,0,1-2,.56,3.5,3.5,0,0,1-2-.56,3.9,3.9,0,0,1-1.21-1.43,6.13,6.13,0,0,1-.58-1.89,13.14,13.14,0,0,1,0-4,6.13,6.13,0,0,1,.58-1.89,3.9,3.9,0,0,1,1.21-1.43A3.5,3.5,0,0,1,150,235.8Zm0,1.06a2.21,2.21,0,0,0-1.52.5,3.14,3.14,0,0,0-.84,1.23,5.71,5.71,0,0,0-.36,1.57c0,.55-.07,1.05-.07,1.5s0,1,.07,1.5a5.71,5.71,0,0,0,.36,1.57,3.14,3.14,0,0,0,.84,1.23,2.56,2.56,0,0,0,3,0,3.14,3.14,0,0,0,.84-1.23,5.71,5.71,0,0,0,.35-1.57c.05-.55.08-1,.08-1.5s0-.95-.08-1.5a5.71,5.71,0,0,0-.35-1.57,3.14,3.14,0,0,0-.84-1.23A2.21,2.21,0,0,0,150,236.86Z"/><path d="M160.44,241.5c0-.28,0-.55,0-.83l-.06-.83h1.18V241h0a2.57,2.57,0,0,1,1.1-1,3.35,3.35,0,0,1,1.41-.34,4.13,4.13,0,0,1,.67.07,2.44,2.44,0,0,1,.69.23,2.26,2.26,0,0,1,.62.47,2.47,2.47,0,0,1,.49.79,2.59,2.59,0,0,1,1.06-1.14,3.28,3.28,0,0,1,3.71.34,3,3,0,0,1,.72,2.17v4.75h-1.1V243a3.08,3.08,0,0,0-.42-1.75,1.74,1.74,0,0,0-1.54-.61,2,2,0,0,0-1,.24,1.88,1.88,0,0,0-.67.61,2.84,2.84,0,0,0-.38.87,4.9,4.9,0,0,0-.11,1v4h-1.1V243a3.17,3.17,0,0,0-.41-1.75,1.78,1.78,0,0,0-1.55-.61c-.07,0-.22,0-.46.07a1.83,1.83,0,0,0-.74.35,2.71,2.71,0,0,0-.69.86,3.53,3.53,0,0,0-.3,1.6v3.84h-1.1Z"/><path d="M174.59,241.5c0-.28,0-.55,0-.83l-.06-.83h1.18V241h0a2.6,2.6,0,0,1,1.11-1,3.31,3.31,0,0,1,1.4-.34,4,4,0,0,1,.67.07,2.44,2.44,0,0,1,.69.23,2.3,2.3,0,0,1,.63.47,2.88,2.88,0,0,1,.49.79,2.51,2.51,0,0,1,1-1.14,3,3,0,0,1,1.51-.42,2.9,2.9,0,0,1,2.2.76,3,3,0,0,1,.72,2.17v4.75h-1.1V243a3.17,3.17,0,0,0-.41-1.75,1.76,1.76,0,0,0-1.55-.61,2,2,0,0,0-1,.24,2,2,0,0,0-.67.61,2.6,2.6,0,0,0-.37.87,4.31,4.31,0,0,0-.12,1v4h-1.1V243a3.08,3.08,0,0,0-.41-1.75,1.76,1.76,0,0,0-1.55-.61l-.45.07a1.72,1.72,0,0,0-.74.35,2.46,2.46,0,0,0-.69.86,3.4,3.4,0,0,0-.31,1.6v3.84h-1.1Z"/></g><g class="cls-2"><path d="M207.87,152.12v4.62l3.41.08a3.35,3.35,0,0,1-.21-.75,5,5,0,0,1-.06-.77,3.83,3.83,0,0,1,.27-1.46,3.22,3.22,0,0,1,.76-1.12,3.55,3.55,0,0,1,1.15-.74,3.82,3.82,0,0,1,1.45-.26,3.89,3.89,0,0,1,1.5.28,3.54,3.54,0,0,1,1.16.8,3.7,3.7,0,0,1,.76,1.21,4,4,0,0,1,.28,1.51,3.66,3.66,0,0,1-.52,1.94,3.31,3.31,0,0,1-1.5,1.33l-.5-1.15a2.63,2.63,0,0,0,1.07-.9,2.28,2.28,0,0,0,.39-1.32,2.57,2.57,0,0,0-.74-1.81,2.36,2.36,0,0,0-.8-.54,2.54,2.54,0,0,0-1-.2,2.79,2.79,0,0,0-1.09.21,2.49,2.49,0,0,0-.85.57,2.43,2.43,0,0,0-.55.88,3.14,3.14,0,0,0-.2,1.12,4.53,4.53,0,0,0,.17,1.21,5.67,5.67,0,0,0,.46,1.14l-5.87-.11v-5.77Z"/><path d="M211.68,147.4v-.6a4.26,4.26,0,0,0-.11-1,2.48,2.48,0,0,0-.36-.79,1.92,1.92,0,0,0-.65-.54,2.19,2.19,0,0,0-1-.2,1.83,1.83,0,0,0-1.42.56,2.21,2.21,0,0,0-.5,1.54,2.46,2.46,0,0,0,.32,1.26,2.37,2.37,0,0,0,.93.9l-.51,1a3.49,3.49,0,0,1-1.36-1.3,3.76,3.76,0,0,1-.44-1.84,4,4,0,0,1,.2-1.26,2.9,2.9,0,0,1,.56-1,2.62,2.62,0,0,1,.93-.71,2.84,2.84,0,0,1,1.26-.27,2.58,2.58,0,0,1,.88.15,2.9,2.9,0,0,1,.75.42,3.08,3.08,0,0,1,1,1.35l0-.05a2.72,2.72,0,0,1,.36-.88,2.8,2.8,0,0,1,.65-.68,2.94,2.94,0,0,1,.86-.45,3.39,3.39,0,0,1,2.4.13,3,3,0,0,1,1,.78,3.57,3.57,0,0,1,.63,1.15,4.55,4.55,0,0,1,.22,1.39,4.25,4.25,0,0,1-.55,2.18,3.29,3.29,0,0,1-1.74,1.39l-.37-1.21a2.43,2.43,0,0,0,1.21-.86,2.79,2.79,0,0,0,.39-1.59,2.49,2.49,0,0,0-.16-.91,2.34,2.34,0,0,0-.46-.76,1.93,1.93,0,0,0-.71-.51A2.12,2.12,0,0,0,215,144a2.21,2.21,0,0,0-1.08.24,2,2,0,0,0-.71.64,2.72,2.72,0,0,0-.39.92,4.83,4.83,0,0,0-.12,1.08v.5Z"/><path d="M206.62,137.32a3.24,3.24,0,0,1,.56-2,3.89,3.89,0,0,1,1.43-1.17,6.39,6.39,0,0,1,1.89-.56,14.07,14.07,0,0,1,4,0,6.39,6.39,0,0,1,1.89.56,3.89,3.89,0,0,1,1.43,1.17,3.75,3.75,0,0,1,0,3.94,3.77,3.77,0,0,1-1.43,1.16,6.11,6.11,0,0,1-1.89.56,13.14,13.14,0,0,1-4,0,6.11,6.11,0,0,1-1.89-.56,3.77,3.77,0,0,1-1.43-1.16A3.26,3.26,0,0,1,206.62,137.32Zm1.06,0a2,2,0,0,0,.5,1.46,3.08,3.08,0,0,0,1.23.81,6.09,6.09,0,0,0,1.57.34c.55,0,1.05.07,1.5.07s1,0,1.5-.07a6.09,6.09,0,0,0,1.57-.34,3.08,3.08,0,0,0,1.23-.81,2.07,2.07,0,0,0,.5-1.46,2.09,2.09,0,0,0-.5-1.47,3.3,3.3,0,0,0-1.23-.81,6.09,6.09,0,0,0-1.57-.34c-.55,0-1-.07-1.5-.07s-.95,0-1.5.07a6.09,6.09,0,0,0-1.57.34,3.3,3.3,0,0,0-1.23.81A2,2,0,0,0,207.68,137.32Z"/><path d="M212.32,127.27l-.83,0-.83.06v-1.14h1.13v0a2.47,2.47,0,0,1-1-1.06,3.13,3.13,0,0,1-.34-1.35,3.79,3.79,0,0,1,.07-.65,2.42,2.42,0,0,1,.23-.67,2.34,2.34,0,0,1,.47-.6,2.71,2.71,0,0,1,.79-.47,2.45,2.45,0,0,1-1.14-1,2.73,2.73,0,0,1-.42-1.44,2.76,2.76,0,0,1,.76-2.13,3.12,3.12,0,0,1,2.17-.69h4.75v1.06h-4.36a3.17,3.17,0,0,0-1.75.4,1.65,1.65,0,0,0-.61,1.48,1.92,1.92,0,0,0,.24,1,2,2,0,0,0,.61.65,2.79,2.79,0,0,0,.87.35,4.31,4.31,0,0,0,1,.12h4v1h-4.36a3.26,3.26,0,0,0-1.75.4,1.68,1.68,0,0,0-.61,1.49,4.26,4.26,0,0,0,.07.44,1.62,1.62,0,0,0,.35.71,2.55,2.55,0,0,0,.86.67,3.69,3.69,0,0,0,1.6.29h3.84v1.06Z"/><path d="M212.32,113.64l-.83,0-.83.06v-1.14h1.13v0a2.44,2.44,0,0,1-1-1.07,3.07,3.07,0,0,1-.34-1.35,3.9,3.9,0,0,1,.07-.65,2.23,2.23,0,0,1,.7-1.26,2.51,2.51,0,0,1,.79-.47,2.45,2.45,0,0,1-1.14-1,2.73,2.73,0,0,1-.42-1.44,2.76,2.76,0,0,1,.76-2.13,3.12,3.12,0,0,1,2.17-.69h4.75v1h-4.36a3.17,3.17,0,0,0-1.75.41,1.65,1.65,0,0,0-.61,1.48,1.92,1.92,0,0,0,.24,1,1.87,1.87,0,0,0,.61.64,2.58,2.58,0,0,0,.87.36,4.31,4.31,0,0,0,1,.11h4v1.06h-4.36a3.17,3.17,0,0,0-1.75.4,1.67,1.67,0,0,0-.61,1.49c0,.06,0,.21.07.44a1.62,1.62,0,0,0,.35.71,2.55,2.55,0,0,0,.86.67,3.69,3.69,0,0,0,1.6.29h3.84v1.06Z"/></g><path class="cls-3" d="M161.43,120.8h0l23.16,96.77H116l24.19-96.88C140.2,120.75,161.43,120.8,161.43,120.8Z"/><path class="cls-4" d="M116.42,126.2c1.26-1.26,18.2-20.72,20.75-23.78,3.37-4,2.83-3.73,2.83-8.27,0-3.61.2-10.38.2-12.17,0-3.34-.53-5.44-4.42-7.66-2.83-1.61-10.77-6.27-11.94-7.1a2.38,2.38,0,0,1-.45-3.22c1.62-2.22,3.78-.17,5.62.94s6,3.55,7.05,4.11c3,1.66,3.94,0,3.94-2s-.09-6.45-.09-8.84c0-3.91,1.27-7.47,3.92-9.59a8.42,8.42,0,0,1,5.58-2c8.25,0,10.39,7.65,10.39,10.17,0,2.36-1.22,2.88-2.13,2.88A2,2,0,0,1,156,57.56a6.34,6.34,0,0,0-1.8-4.51,6,6,0,0,0-4.6-2.15c-3.59,0-5.7,3-5.7,7.14s.09,10.52.09,12.32c0,2.71.42,4.37,3.16,6,2.42,1.45,6.56,3.78,8.54,5,3.38,2,4.54,3.77,4.54,7.14,0,2,.18,13.9.31,22.67h.93v9.66H140.2s.3-8.87.3-10.07c0-3.3-2.58-2.46-4-.76-.77.9-13.9,16.19-16.52,19.15-1.4,1.58-3.07,1.91-4,1C115.15,129.36,115.23,127.4,116.42,126.2ZM148.86,82c-.67-.41-4.21-3.26-4.17,1.84,0,3,.07,19.9.07,21s.31,3.23,2.11,3.23,5.57-.13,7-.3c1.65-.19,2.14-.75,2.14-2.67,0-3.08.08-14,.08-15.53s0-2.63-1.36-3.53S149.89,82.62,148.86,82Z"/><path class="cls-3" d="M135.66,112.34h.91V67.88h-.91Zm-1.93,2.43h.92V66.63h-.92Zm-1.92,2h.92V65.45h-.92Zm29.62-3.89h.1a3.34,3.34,0,0,1,0,6.67h-.1ZM148.86,82c-.67-.41-4.21-3.26-4.17,1.84,0,3,.07,19.9.07,21s.31,3.23,2.11,3.23,5.57-.13,7-.3c1.65-.19,2.14-.75,2.14-2.67,0-3.08.08-14,.08-15.53s0-2.63-1.36-3.53S149.89,82.62,148.86,82Z"/><path class="cls-3" d="M151,113.34c-5.78,0-10.47-1-10.51-2.21h21C161.51,112.35,156.82,113.34,151,113.34Z"/></svg>