<svg id="MIni_Button" xmlns="http://www.w3.org/2000/svg" viewBox="0 0 300 263"><defs><style>.cls-1,.cls-3{fill:none;stroke-width:0.5px;}.cls-1{stroke:#000;}.cls-2{isolation:isolate;}.cls-3{stroke:#1d1d1b;stroke-miterlimit:3.86;}</style></defs><title>mini-button-ceiling-wall-lissoni-flos-F1490009-spech-tech-02-300x263</title><line class="cls-1" x1="226.54" y1="226.41" x2="251.59" y2="226.52"/><line class="cls-1" x1="226.55" y1="225.05" x2="226.54" y2="227.78"/><line class="cls-1" x1="251.59" y1="225.15" x2="251.58" y2="227.89"/><g class="cls-2"><path d="M221,243.37h1.63v1.06H221v2.69h-1.16v-2.69l-4.89,0v-1.32l4.6-7.3H221Zm-1.12-6.44h0l-3.94,6.41,3.94,0Z"/><path d="M226.28,240.67l0,0a1.83,1.83,0,0,1,.73-.28,3.69,3.69,0,0,1,.84-.1,3.79,3.79,0,0,1,1.36.27,3.49,3.49,0,0,1,1.1.74,3.44,3.44,0,0,1,.72,1.1,3.8,3.8,0,0,1,.26,1.41,3.65,3.65,0,0,1-.28,1.43,3.27,3.27,0,0,1-.77,1.1,3.86,3.86,0,0,1-1.17.71,4.39,4.39,0,0,1-3,0,3.47,3.47,0,0,1-1.16-.73,3.27,3.27,0,0,1-.77-1.1,3.5,3.5,0,0,1-.26-1.43,4.5,4.5,0,0,1,.28-1.64,9.11,9.11,0,0,1,.71-1.39l3.07-5h1.36Zm-1.16,3.15a2.64,2.64,0,0,0,.18,1,2.18,2.18,0,0,0,.52.78,2.09,2.09,0,0,0,.79.5,3,3,0,0,0,1,.19,2.8,2.8,0,0,0,1-.18,2.13,2.13,0,0,0,.8-.5,2.3,2.3,0,0,0,.53-.77,2.86,2.86,0,0,0,.19-1,2.61,2.61,0,0,0-.18-1,2.48,2.48,0,0,0-.52-.78,2.41,2.41,0,0,0-.8-.5,2.61,2.61,0,0,0-1-.19,2.82,2.82,0,0,0-1,.18,2.52,2.52,0,0,0-.8.5,2.18,2.18,0,0,0-.52.77A2.4,2.4,0,0,0,225.12,243.82Z"/><path d="M237.71,241.36c0-.28,0-.56,0-.83l-.06-.84h1.14v1.13h0a2.42,2.42,0,0,1,1.07-1,2.92,2.92,0,0,1,1.35-.33,3.83,3.83,0,0,1,.65.06,2.76,2.76,0,0,1,.66.24,2.34,2.34,0,0,1,.6.47,2.85,2.85,0,0,1,.47.79,2.38,2.38,0,0,1,1-1.13,3.07,3.07,0,0,1,3.57.36,3.12,3.12,0,0,1,.68,2.17l0,4.75h-1.06l0-4.37a3.18,3.18,0,0,0-.39-1.75,1.67,1.67,0,0,0-1.49-.61,2,2,0,0,0-1,.22,1.93,1.93,0,0,0-.65.62,2.42,2.42,0,0,0-.36.87,4.17,4.17,0,0,0-.12,1l0,4h-1l0-4.36a3.17,3.17,0,0,0-.4-1.75,1.62,1.62,0,0,0-1.48-.61l-.44.06a1.71,1.71,0,0,0-.72.35,2.56,2.56,0,0,0-.66.86,3.6,3.6,0,0,0-.31,1.6v3.84h-1.06Z"/><path d="M251.34,241.42c0-.28,0-.56,0-.84s0-.55-.06-.83h1.14v1.13h0a2.47,2.47,0,0,1,1.07-1,2.8,2.8,0,0,1,1.35-.33,3.83,3.83,0,0,1,.65.06,2.28,2.28,0,0,1,.66.24,2.34,2.34,0,0,1,.6.47,2.85,2.85,0,0,1,.47.79,2.38,2.38,0,0,1,1-1.13,2.66,2.66,0,0,1,1.45-.41,2.69,2.69,0,0,1,2.12.77,3.1,3.1,0,0,1,.68,2.17l0,4.75h-1.05v-4.36a3.09,3.09,0,0,0-.39-1.75,1.62,1.62,0,0,0-1.48-.61,1.92,1.92,0,0,0-1,.22,2,2,0,0,0-.65.62,2.62,2.62,0,0,0-.36.87,4.17,4.17,0,0,0-.12,1v4h-1.06l0-4.37a3.25,3.25,0,0,0-.39-1.74,1.67,1.67,0,0,0-1.49-.62,2.67,2.67,0,0,0-.44.07,1.52,1.52,0,0,0-.71.35,2.45,2.45,0,0,0-.67.86,3.48,3.48,0,0,0-.3,1.6l0,3.84h-1.06Z"/></g><line class="cls-1" x1="179.71" y1="226.82" x2="53.37" y2="226.82"/><line class="cls-1" x1="179.71" y1="228.36" x2="179.71" y2="225.19"/><line class="cls-1" x1="53.37" y1="228.36" x2="53.37" y2="225.19"/><g class="cls-2"><path d="M88.17,240.76a3.7,3.7,0,0,1,.68,1.16,4.2,4.2,0,0,1,.25,1.45,4,4,0,0,1-.3,1.56,3.82,3.82,0,0,1-.82,1.25,4,4,0,0,1-1.26.83,4.39,4.39,0,0,1-1.61.29,4.15,4.15,0,0,1-1.4-.22,3.72,3.72,0,0,1-1.11-.61l-1.07,1.09-.51-.5,1-1.09a3.62,3.62,0,0,1-.69-1.17,4.21,4.21,0,0,1-.24-1.43,4,4,0,0,1,.3-1.57,3.82,3.82,0,0,1,.82-1.25,3.71,3.71,0,0,1,1.26-.82,4.43,4.43,0,0,1,3-.08,4,4,0,0,1,1.16.61l1-1.09.51.5Zm-1.25.25a2.69,2.69,0,0,0-1.81-.62,2.87,2.87,0,0,0-1.17.23,2.71,2.71,0,0,0-.88.63,2.81,2.81,0,0,0-.56.95,3.2,3.2,0,0,0-.2,1.17,3,3,0,0,0,.54,1.82Zm-3.6,4.72a2.33,2.33,0,0,0,.8.45,2.86,2.86,0,0,0,1,.16,3,3,0,0,0,1.18-.23,2.62,2.62,0,0,0,1.45-1.58,3.18,3.18,0,0,0,.2-1.16,3.13,3.13,0,0,0-.54-1.83Z"/><path d="M99.88,247.11H98.73v-9.89l-2,1.79-.71-.86,2.87-2.37h1Z"/><path d="M109.86,243.37h1.64v1h-1.64v2.69h-1.15v-2.69h-4.9v-1.31l4.58-7.33h1.47Zm-1.15-6.44h0l-3.91,6.44h3.94Z"/><path d="M116.55,235.59a3.24,3.24,0,0,1,2,.56,3.86,3.86,0,0,1,1.17,1.42,6.77,6.77,0,0,1,.56,1.9,14,14,0,0,1,0,3.95,6.77,6.77,0,0,1-.56,1.9,3.86,3.86,0,0,1-1.17,1.42,3.75,3.75,0,0,1-3.94,0,3.74,3.74,0,0,1-1.16-1.42,6.46,6.46,0,0,1-.57-1.9,14,14,0,0,1,0-3.95,6.46,6.46,0,0,1,.57-1.9,3.74,3.74,0,0,1,1.16-1.42A3.24,3.24,0,0,1,116.55,235.59Zm0,1.06a2,2,0,0,0-1.46.49,3.08,3.08,0,0,0-.81,1.23,5.78,5.78,0,0,0-.34,1.57c0,.56-.08,1.06-.08,1.51s0,.94.08,1.5a5.78,5.78,0,0,0,.34,1.57,3.08,3.08,0,0,0,.81,1.23,2.05,2.05,0,0,0,1.46.5,2.09,2.09,0,0,0,1.47-.5,3.17,3.17,0,0,0,.8-1.23,6.19,6.19,0,0,0,.35-1.57c0-.56.07-1.06.07-1.5s0-.95-.07-1.51a6.19,6.19,0,0,0-.35-1.57,3.17,3.17,0,0,0-.8-1.23A2.09,2.09,0,0,0,116.55,236.65Z"/><path d="M126.6,241.29q0-.42,0-.84c0-.27,0-.55,0-.83h1.13v1.14h0a2.41,2.41,0,0,1,1.06-1,2.94,2.94,0,0,1,1.35-.34,3.74,3.74,0,0,1,.65.06,2.28,2.28,0,0,1,.66.24,2,2,0,0,1,.6.47,2.47,2.47,0,0,1,.48.78,2.41,2.41,0,0,1,1-1.13,2.79,2.79,0,0,1,1.45-.42,2.73,2.73,0,0,1,2.13.76,3.12,3.12,0,0,1,.69,2.17v4.75h-1.06v-4.37a3.11,3.11,0,0,0-.4-1.74,1.64,1.64,0,0,0-1.49-.61,2,2,0,0,0-1,.23,1.93,1.93,0,0,0-.65.62,2.84,2.84,0,0,0-.36.87,4.74,4.74,0,0,0-.11,1v4h-1.06v-4.37a3.11,3.11,0,0,0-.4-1.74,1.62,1.62,0,0,0-1.48-.61l-.44.06a1.74,1.74,0,0,0-.72.36,2.67,2.67,0,0,0-.66.86,3.51,3.51,0,0,0-.3,1.6v3.84H126.6Z"/><path d="M140.23,241.29c0-.28,0-.56,0-.84l-.06-.83h1.14v1.14h0a2.41,2.41,0,0,1,1.06-1,3,3,0,0,1,1.35-.34,3.74,3.74,0,0,1,.65.06,2.45,2.45,0,0,1,.67.24,2.34,2.34,0,0,1,.6.47,2.65,2.65,0,0,1,.47.78,2.41,2.41,0,0,1,1-1.13,2.79,2.79,0,0,1,1.45-.42,2.73,2.73,0,0,1,2.13.76,3.12,3.12,0,0,1,.69,2.17v4.75h-1.06v-4.37a3.11,3.11,0,0,0-.4-1.74,1.63,1.63,0,0,0-1.49-.61,1.82,1.82,0,0,0-1.64.85,2.84,2.84,0,0,0-.36.87,4.74,4.74,0,0,0-.11,1v4h-1.05v-4.37a3.2,3.2,0,0,0-.4-1.74,1.65,1.65,0,0,0-1.49-.61l-.44.06a1.65,1.65,0,0,0-.71.36,2.55,2.55,0,0,0-.67.86,3.66,3.66,0,0,0-.29,1.6v3.84h-1.06Z"/></g><path class="cls-3" d="M116.61,216.68a63.16,63.16,0,1,1,64.25-62.06A63.19,63.19,0,0,1,116.61,216.68Z"/><path class="cls-3" d="M127.47,154.25a10.24,10.24,0,1,1-10.06-10.46A10.25,10.25,0,0,1,127.47,154.25Z"/><rect class="cls-3" x="116.37" y="144.61" width="1.72" height="19.94" transform="translate(-38.37 270.45) rotate(-89.5)"/><path class="cls-3" d="M245.45,92.35c0,15.88,0,111.15,0,123.19,0,2.09-14.25,1.78-17.05,1.5-1.65-.17-1.16-6-1.16-6l-6.12-14.24V108.6l6-12.41s-.31-3.56.87-5.42C228.7,89.62,242.3,91.36,245.45,92.35Z"/><line class="cls-3" x1="227.08" y1="210.94" x2="227.08" y2="96.22"/></svg>