<svg id="Minikelvin_Led" xmlns="http://www.w3.org/2000/svg" viewBox="0 0 300 263"><defs><style>.cls-1,.cls-3,.cls-4,.cls-5{fill:none;stroke:#000;}.cls-1{stroke-width:0.5px;}.cls-2{isolation:isolate;}.cls-3{stroke-width:0.46px;}.cls-4{stroke-width:0.4px;}.cls-5{stroke-linecap:round;stroke-linejoin:round;stroke-width:0.47px;}</style></defs><title>minikelvin-led-table-citterio-flos-F4180057-spech-tech-02-300x263</title><line class="cls-1" x1="53.9" y1="226.05" x2="107.1" y2="226.05"/><line class="cls-1" x1="53.9" y1="224.66" x2="53.9" y2="227.45"/><line class="cls-1" x1="107.1" y1="224.66" x2="107.1" y2="227.45"/><g class="cls-2"><path d="M56,247.32H54.77v-9.88l-2.11,1.79-.75-.87,3-2.36H56Z"/><path d="M67.69,247.32H60.22V246l4.68-4.6c.18-.17.36-.35.53-.54a5.69,5.69,0,0,0,.49-.61,3,3,0,0,0,.34-.67,2.07,2.07,0,0,0,.14-.74,1.87,1.87,0,0,0-.18-.83,1.73,1.73,0,0,0-.49-.62A2.22,2.22,0,0,0,65,237a2.58,2.58,0,0,0-.88-.14,2.45,2.45,0,0,0-1.53.48,2.15,2.15,0,0,0-.81,1.29l-1.26-.12a3.13,3.13,0,0,1,1.2-2A3.75,3.75,0,0,1,64,235.8a4.59,4.59,0,0,1,1.35.19,3.31,3.31,0,0,1,1.13.55,2.65,2.65,0,0,1,1.07,2.21,3.6,3.6,0,0,1-.2,1.2,5,5,0,0,1-.54,1,7.33,7.33,0,0,1-.76.91c-.28.29-.57.57-.87.85l-3.71,3.54h6.18Z"/><path d="M73.27,235.8a3.45,3.45,0,0,1,2,.56,3.9,3.9,0,0,1,1.21,1.43,6.13,6.13,0,0,1,.58,1.89,13.82,13.82,0,0,1,.15,2,13.58,13.58,0,0,1-.15,2,6.11,6.11,0,0,1-.58,1.9A3.9,3.9,0,0,1,75.32,247a4,4,0,0,1-4.09,0A3.9,3.9,0,0,1,70,245.53a6.11,6.11,0,0,1-.58-1.9,13.58,13.58,0,0,1-.15-2,13.82,13.82,0,0,1,.15-2,6.13,6.13,0,0,1,.58-1.89,3.9,3.9,0,0,1,1.21-1.43A3.44,3.44,0,0,1,73.27,235.8Zm0,1.06a2.18,2.18,0,0,0-1.52.5,3,3,0,0,0-.83,1.23,5.71,5.71,0,0,0-.36,1.57c0,.55-.08,1.05-.08,1.5s0,1,.08,1.5a5.71,5.71,0,0,0,.36,1.57,3,3,0,0,0,.83,1.23,2.23,2.23,0,0,0,1.52.5,2.19,2.19,0,0,0,1.52-.5,3,3,0,0,0,.84-1.23,5.71,5.71,0,0,0,.36-1.57c.05-.55.08-1,.08-1.5s0-.95-.08-1.5a5.71,5.71,0,0,0-.36-1.57,3,3,0,0,0-.84-1.23A2.15,2.15,0,0,0,73.27,236.86Z"/><path d="M83.71,241.5c0-.28,0-.56,0-.83s0-.56-.06-.84H84.8V241h0a2.46,2.46,0,0,1,1.1-1,3.17,3.17,0,0,1,1.4-.34,4.13,4.13,0,0,1,.68.07,2.44,2.44,0,0,1,.69.23,2.26,2.26,0,0,1,.62.47,2.42,2.42,0,0,1,.49.79,2.43,2.43,0,0,1,1.06-1.14,3.28,3.28,0,0,1,3.71.34,3.08,3.08,0,0,1,.71,2.17v4.75H94.21V243a3.08,3.08,0,0,0-.42-1.75,1.75,1.75,0,0,0-1.54-.61,2.12,2.12,0,0,0-1,.23,2,2,0,0,0-.68.62,2.82,2.82,0,0,0-.37.87,4.31,4.31,0,0,0-.12,1v4H89V243a3.08,3.08,0,0,0-.42-1.75A1.75,1.75,0,0,0,87,240.6a2.79,2.79,0,0,0-.46.07,1.72,1.72,0,0,0-.74.35,2.58,2.58,0,0,0-.69.86,3.52,3.52,0,0,0-.31,1.6v3.84H83.71Z"/><path d="M97.86,241.5c0-.28,0-.56,0-.83l-.06-.84H99V241h0a2.51,2.51,0,0,1,1.1-1,3.18,3.18,0,0,1,1.41-.34,4.13,4.13,0,0,1,.67.07,2.44,2.44,0,0,1,.69.23A2.34,2.34,0,0,1,104,241.2a2.48,2.48,0,0,1,1.06-1.14,3.28,3.28,0,0,1,3.71.34,3,3,0,0,1,.72,2.17v4.75h-1.1V243a3.08,3.08,0,0,0-.42-1.75,1.74,1.74,0,0,0-1.54-.61,2.15,2.15,0,0,0-1,.23,2,2,0,0,0-.67.62,2.62,2.62,0,0,0-.38.87,4.31,4.31,0,0,0-.11,1v4h-1.1V243a3.08,3.08,0,0,0-.42-1.75,1.74,1.74,0,0,0-1.54-.61,2.79,2.79,0,0,0-.46.07,1.77,1.77,0,0,0-.74.35,2.71,2.71,0,0,0-.69.86,3.53,3.53,0,0,0-.3,1.6v3.84h-1.1Z"/></g><line class="cls-3" x1="153.93" y1="91.14" x2="181.04" y2="91.14"/><line class="cls-3" x1="153.93" y1="89.87" x2="153.93" y2="92.41"/><line class="cls-3" x1="181.04" y1="89.87" x2="181.04" y2="92.41"/><g class="cls-2"><path d="M145.49,76.44l0,0a2,2,0,0,1,.75-.29,4.08,4.08,0,0,1,.87-.1,3.75,3.75,0,0,1,1.43.27,3.41,3.41,0,0,1,1.13.72,3.32,3.32,0,0,1,.76,1.11,3.55,3.55,0,0,1,.27,1.41,3.46,3.46,0,0,1-.28,1.42,3.12,3.12,0,0,1-.8,1.1,3.57,3.57,0,0,1-1.21.72,4.38,4.38,0,0,1-1.53.26,4.47,4.47,0,0,1-1.53-.26,3.67,3.67,0,0,1-1.21-.72,3.25,3.25,0,0,1-.8-1.1,3.63,3.63,0,0,1-.28-1.42,4.38,4.38,0,0,1,.29-1.65,10.19,10.19,0,0,1,.72-1.39l3.18-5h1.41ZM144.3,79.6a2.46,2.46,0,0,0,.19,1,2.33,2.33,0,0,0,.54.77,2.41,2.41,0,0,0,.83.51,3.23,3.23,0,0,0,1.06.17,3.33,3.33,0,0,0,1.07-.17,2.51,2.51,0,0,0,.83-.51,2.33,2.33,0,0,0,.54-.77,2.7,2.7,0,0,0,0-2,2.33,2.33,0,0,0-.54-.77,2.67,2.67,0,0,0-.83-.5,3.08,3.08,0,0,0-1.07-.18,3,3,0,0,0-1.06.18,2.56,2.56,0,0,0-.83.5,2.33,2.33,0,0,0-.54.77A2.48,2.48,0,0,0,144.3,79.6Z"/><path d="M156.16,71.39a3.37,3.37,0,0,1,2,.56,3.7,3.7,0,0,1,1.21,1.42,6.2,6.2,0,0,1,.59,1.9,13.08,13.08,0,0,1,0,4,6.2,6.2,0,0,1-.59,1.9,3.77,3.77,0,0,1-1.21,1.42,4,4,0,0,1-4.08,0,3.8,3.8,0,0,1-1.22-1.42,6.48,6.48,0,0,1-.58-1.9,13.08,13.08,0,0,1,0-4,6.48,6.48,0,0,1,.58-1.9A3.72,3.72,0,0,1,154.12,72,3.37,3.37,0,0,1,156.16,71.39Zm0,1a2.21,2.21,0,0,0-1.52.5,3.14,3.14,0,0,0-.84,1.23,5.71,5.71,0,0,0-.36,1.57c-.05.55-.07,1.05-.07,1.5s0,1,.07,1.51a5.8,5.8,0,0,0,.36,1.57,3.14,3.14,0,0,0,.84,1.23,2.6,2.6,0,0,0,3,0,3.14,3.14,0,0,0,.84-1.23,5.8,5.8,0,0,0,.36-1.57c0-.56.07-1.06.07-1.51s0-.95-.07-1.5a5.71,5.71,0,0,0-.36-1.57,3.14,3.14,0,0,0-.84-1.23A2.21,2.21,0,0,0,156.16,72.44Z"/><path d="M166.59,77.08c0-.27,0-.55,0-.83l-.06-.83h1.18v1.14h0a2.56,2.56,0,0,1,1.11-1,3.26,3.26,0,0,1,1.4-.33,4.06,4.06,0,0,1,.67.06,2.44,2.44,0,0,1,.69.23,2.12,2.12,0,0,1,.62.48,2.5,2.5,0,0,1,.5.78,2.51,2.51,0,0,1,1-1.14,3,3,0,0,1,1.5-.41,2.87,2.87,0,0,1,2.21.76,3,3,0,0,1,.72,2.17v4.75h-1.1V78.54a3.08,3.08,0,0,0-.42-1.75,1.74,1.74,0,0,0-1.54-.6,2,2,0,0,0-1,.23,1.82,1.82,0,0,0-.67.62,2.64,2.64,0,0,0-.38.87,4.74,4.74,0,0,0-.11,1v4h-1.1V78.54a3.17,3.17,0,0,0-.41-1.75,1.77,1.77,0,0,0-1.55-.6l-.46.06a1.83,1.83,0,0,0-.74.35,2.65,2.65,0,0,0-.69.87,3.48,3.48,0,0,0-.3,1.6v3.84h-1.1Z"/><path d="M180.74,77.08c0-.27,0-.55,0-.83l-.06-.83h1.18v1.14h0a2.62,2.62,0,0,1,1.11-1,3.29,3.29,0,0,1,1.4-.33,4,4,0,0,1,.67.06,2.44,2.44,0,0,1,.69.23,2.16,2.16,0,0,1,.63.48,2.67,2.67,0,0,1,.49.78,2.51,2.51,0,0,1,1-1.14,3.06,3.06,0,0,1,1.51-.41,2.86,2.86,0,0,1,2.2.76,3,3,0,0,1,.72,2.17v4.75h-1.1V78.54a3.17,3.17,0,0,0-.41-1.75,1.76,1.76,0,0,0-1.55-.6,2,2,0,0,0-1,.23,1.9,1.9,0,0,0-.67.62,2.44,2.44,0,0,0-.37.87,4.17,4.17,0,0,0-.12,1v4H186V78.54a3.08,3.08,0,0,0-.41-1.75,1.76,1.76,0,0,0-1.55-.6l-.45.06a1.72,1.72,0,0,0-.74.35,2.42,2.42,0,0,0-.69.87,3.34,3.34,0,0,0-.31,1.6v3.84h-1.1Z"/></g><line class="cls-4" x1="54.13" y1="208.04" x2="132.64" y2="97.14"/><line class="cls-4" x1="53.02" y1="207.26" x2="55.24" y2="208.83"/><line class="cls-4" x1="131.53" y1="96.35" x2="133.75" y2="97.93"/><g class="cls-2"><path d="M66.05,164l.34-.49a4.32,4.32,0,0,0,.46-.84,2.17,2.17,0,0,0,.16-.85,1.82,1.82,0,0,0-.22-.81,2,2,0,0,0-.67-.72,1.8,1.8,0,0,0-1.47-.37,2.2,2.2,0,0,0-1.3,1,2.36,2.36,0,0,0-.23,2.48l-1,.53a3.35,3.35,0,0,1-.35-1.85,3.61,3.61,0,0,1,.7-1.74,3.91,3.91,0,0,1,.88-.93,3.22,3.22,0,0,1,1.07-.52,2.66,2.66,0,0,1,1.16,0,2.85,2.85,0,0,1,1.18.51,2.36,2.36,0,0,1,.63.63,2.57,2.57,0,0,1,.38.78,2.94,2.94,0,0,1,.12.84,2.69,2.69,0,0,1-.12.81l0,0a2.64,2.64,0,0,1,.81-.51,2.85,2.85,0,0,1,.92-.19,3.3,3.3,0,0,1,1,.14,3.36,3.36,0,0,1,.91.45,3.17,3.17,0,0,1,1,1,2.89,2.89,0,0,1,.38,1.23,3.29,3.29,0,0,1-.15,1.31,4.34,4.34,0,0,1-.62,1.26,4.26,4.26,0,0,1-1.7,1.46,3.36,3.36,0,0,1-2.23.13l.4-1.21a2.33,2.33,0,0,0,1.48,0,2.74,2.74,0,0,0,1.24-1.07,2.47,2.47,0,0,0,.39-.84,2.19,2.19,0,0,0,.07-.88,2.1,2.1,0,0,0-.28-.83,2.29,2.29,0,0,0-.64-.68,2.2,2.2,0,0,0-1-.42,1.91,1.91,0,0,0-1,.11,2.53,2.53,0,0,0-.85.52,5.14,5.14,0,0,0-.73.81l-.28.41Z"/><path d="M67.74,152.8a3.19,3.19,0,0,1,1.6-1.28,3.77,3.77,0,0,1,1.83-.14,6.44,6.44,0,0,1,1.88.64,13.79,13.79,0,0,1,1.69,1,12.44,12.44,0,0,1,1.53,1.26,6.18,6.18,0,0,1,1.23,1.55,3.73,3.73,0,0,1,.48,1.77,3.2,3.2,0,0,1-.68,1.94,3.27,3.27,0,0,1-1.59,1.28,4,4,0,0,1-1.84.13,6.48,6.48,0,0,1-1.87-.64,15.29,15.29,0,0,1-1.7-1,15.59,15.59,0,0,1-1.52-1.26,6.4,6.4,0,0,1-1.23-1.56,3.83,3.83,0,0,1-.49-1.77A3.29,3.29,0,0,1,67.74,152.8Zm.87.61a2,2,0,0,0-.44,1.48,3.14,3.14,0,0,0,.53,1.37,6.36,6.36,0,0,0,1.08,1.19c.43.36.82.67,1.19.93s.79.52,1.27.81a5.75,5.75,0,0,0,1.48.62,3.06,3.06,0,0,0,1.47.05,2.07,2.07,0,0,0,1.25-.9,2,2,0,0,0,.44-1.49,3,3,0,0,0-.54-1.37,5.69,5.69,0,0,0-1.08-1.18c-.42-.36-.82-.67-1.18-.93s-.79-.53-1.27-.81a6.34,6.34,0,0,0-1.48-.63,3.2,3.2,0,0,0-1.47-.05A2,2,0,0,0,68.61,153.41Z"/><path d="M72.88,145.54a3.27,3.27,0,0,1,1.6-1.29,3.9,3.9,0,0,1,1.83-.13,6.44,6.44,0,0,1,1.88.64,13.79,13.79,0,0,1,1.69,1A13.31,13.31,0,0,1,81.41,147a6.4,6.4,0,0,1,1.23,1.56,3.73,3.73,0,0,1,.48,1.77,3.16,3.16,0,0,1-.68,1.93,3.24,3.24,0,0,1-1.59,1.29,4,4,0,0,1-1.84.13,6.48,6.48,0,0,1-1.87-.64,13.93,13.93,0,0,1-1.7-1,14.15,14.15,0,0,1-1.52-1.25,6.4,6.4,0,0,1-1.23-1.56,3.86,3.86,0,0,1-.49-1.77A3.29,3.29,0,0,1,72.88,145.54Zm.87.61a2.08,2.08,0,0,0-.45,1.48,3.28,3.28,0,0,0,.54,1.37,6.36,6.36,0,0,0,1.08,1.19c.43.36.82.67,1.19.93s.79.52,1.27.8a5.45,5.45,0,0,0,1.48.63,3.06,3.06,0,0,0,1.47,0A2.41,2.41,0,0,0,82,150.21a3,3,0,0,0-.54-1.37,5.74,5.74,0,0,0-1.08-1.19c-.42-.36-.82-.66-1.18-.92s-.79-.53-1.27-.81a5.94,5.94,0,0,0-1.48-.63,3.2,3.2,0,0,0-1.47,0A2,2,0,0,0,73.75,146.15Z"/><path d="M83.34,140.63c-.23-.16-.46-.32-.7-.46l-.71-.44.66-.93.93.66,0,0a2.46,2.46,0,0,1-.2-1.44,3,3,0,0,1,.51-1.29,3.71,3.71,0,0,1,.42-.5,2.74,2.74,0,0,1,.58-.41,2.31,2.31,0,0,1,.73-.21,2.43,2.43,0,0,1,.91.07,2.49,2.49,0,0,1-.34-1.49,2.76,2.76,0,0,1,.5-1.42,2.7,2.7,0,0,1,1.85-1.3,3.15,3.15,0,0,1,2.17.69l3.87,2.75-.61.86-3.56-2.53a3.27,3.27,0,0,0-1.66-.68,1.68,1.68,0,0,0-1.35.87,2,2,0,0,0-.39.94,2.07,2.07,0,0,0,.13.89,2.73,2.73,0,0,0,.51.79,4.14,4.14,0,0,0,.76.68l3.25,2.3-.61.87-3.56-2.53a3.18,3.18,0,0,0-1.66-.68,1.64,1.64,0,0,0-1.35.86,3.81,3.81,0,0,0-.21.4,1.85,1.85,0,0,0-.12.79,2.66,2.66,0,0,0,.32,1,3.53,3.53,0,0,0,1.14,1.16l3.13,2.22-.61.86Z"/><path d="M91.21,129.5c-.22-.16-.45-.31-.69-.46l-.71-.44.66-.92.92.65,0,0a2.46,2.46,0,0,1-.19-1.44,3.13,3.13,0,0,1,.5-1.3,3.21,3.21,0,0,1,.43-.49,2.29,2.29,0,0,1,.57-.41,2.37,2.37,0,0,1,.74-.22,2.67,2.67,0,0,1,.91.07A2.48,2.48,0,0,1,94,123a2.88,2.88,0,0,1,.49-1.42,2.81,2.81,0,0,1,1.85-1.3,3.1,3.1,0,0,1,2.17.7l3.88,2.74-.61.86-3.56-2.52a3.18,3.18,0,0,0-1.66-.68,1.64,1.64,0,0,0-1.36.86,2.05,2.05,0,0,0-.38.94,1.91,1.91,0,0,0,.13.89,2.74,2.74,0,0,0,.5.8,5.06,5.06,0,0,0,.77.68l3.25,2.3-.61.86-3.57-2.52a3.15,3.15,0,0,0-1.65-.69,1.68,1.68,0,0,0-1.36.87s-.1.18-.2.39a1.63,1.63,0,0,0-.12.79,2.46,2.46,0,0,0,.32,1,3.7,3.7,0,0,0,1.13,1.17L96.58,132l-.61.87Z"/></g><path class="cls-5" d="M181,99.18v0M54.7,216.13h2.87M152.16,98.47v-.74M55.78,217.24h1.79m49.94-4.84h-2.87M154.69,99.11h0m-2.53-.64v1.76m.44,2.49v-2.49m-.44,0V102m14.31-3.8h3.09M68.42,206.06l2.87,2.05m0,0-3,4.29m.11-6.34L64,212.4m80.28-108.49,1.23-1.75m-4.1-.29,1.52-2.2m1-1.27a1,1,0,0,1,.86-.08m-.48,5.59L142,107.16m-2.87-2,2.28-3.24m0,0a.87.87,0,0,1,1.23-.19l1.41,1,.11.07.23.3,0,.18v.34l-.07.19-.07.14m-5.15,1.2,2.87,2m10.18-8.69h-8.35m8.35,3.51h-8.35m0,0a.93.93,0,0,1-.9-.9m0,0V99.33m0,0,0-.15,0-.18.07-.15.12-.12.14-.11.3-.15h.19m-.07-.07,3.12-.19.19,0h.15l0,0h.07v0m10.55,0-.22,0m2.16.18h-.15m.18,0h0m-5.18-.48h-.11m.19,1.38h0m-.08,0h0m0,0h0m-3.77-1.3V98m0,0-2.76.19m-4.35.26a.94.94,0,0,0-.83.89m0,1.87a.9.9,0,0,0,.83.85m0,0,3.12.23m5.3.48V102m-4.07-3.84,0-.08m17.89.12h-4.77l-1.08,0m-.27,0h-.56l-.22,0h-.33l-.08,0m-4.06,1.12,0,3.46m.08-3.58h0m0,0h0m2.64,3.54h21.14m-18.49-4.51a17.62,17.62,0,0,0-5.18.9m14.87-.93h0m-15,4.54h0m4.1-4.58-.33,0m-3.81,4.62h0m0,0h2.68M181,99.26l0,3.46m-5.33-4.51h-.22m0,0H175l-.26,0h-5.07m-15,1v0m23.71,3.61H181m-26.46-3.46,0-.12.07,0m14.87-.93h.07m-9.53,0h-.23m-.07,0h0M144,99.07a1.32,1.32,0,1,1,1.27,2.31M181,99.26l0-.12-.07,0m.11.11,0-.08-.07,0m0,0h0m0,0,.07,0,0,0m0,0h0M104.64,217.24h1.79M57.57,212.4H54.7m0,0v3.73m52.81-3.73v3.73m34.47-109-70.69,101m76-105.8h0M68.42,206.06l70.69-100.95m15.39-2.39h-1.75m0-5h1.79m21.21.48h0m-28.44,4.1h0l0,0h-.19l-.19,0m20.95-4v0m-1.79,0h.45m-7.83,0,.08,0m1.11,0h0m6.15,0H166m15,1h0m-74.57,117v1.11M154.65,97.73a17.72,17.72,0,0,1,3,.3m-53,118.1h2.87M157.86,98.06l.45,0m-100.74,118h47.07m-48.86,1.11v-1.11m48.86-3.73H57.57M152.16,97.73l-1.31.11m1.31,4.88h.44m-5.29-.41,4.85.41m.44-5h-.44m.44.41h.15m0,2.09v2.49m0-.41h-.15m-4.54-4.25-.75,0M57.57,217.24h47.07M180.89,99.11a17,17,0,0,0-5.14-.9m-30.45,3.17A1.32,1.32,0,0,1,144,99.07m8.57,1.16v-2.5m2,1.45h0m-1.83-1.45v2.5m1.83-1,.07,0m0,0-.07,0m11.4-1h0m-6.19,0h0m8,.9H157.22m0,.15h-2.64m.11-.15h1.49m1,.15.12,0h10.47M143.74,102l.07,0m24-2.76v-.11m10.55,0v.15m-34.62-.86.07.07m37.08.64h-2.53M104.64,217.24v-1.11m51.77-117h.81M57.57,217.24v-1.11m110.24-117h10.55m2.64.15h-2.64m0,0-.12,0H167.81m-10.59-.11v.15"/></svg>