<svg id="Miss_K" xmlns="http://www.w3.org/2000/svg" viewBox="0 0 300 263"><defs><style>.cls-1,.cls-3,.cls-4{fill:none;stroke-width:0.5px;}.cls-1{stroke:#000;}.cls-2{isolation:isolate;}.cls-3,.cls-4{stroke:#1d1d1b;}.cls-4{stroke-miterlimit:3.86;}</style></defs><title>miss-k-table-starck-flos-F6255000-spech-tech-02-300x263</title><line class="cls-1" x1="110.91" y1="65.38" x2="189.09" y2="65.38"/><line class="cls-1" x1="110.91" y1="64.36" x2="110.91" y2="66.39"/><line class="cls-1" x1="189.09" y1="64.36" x2="189.09" y2="66.39"/><line class="cls-1" x1="97.83" y1="216.78" x2="97.83" y2="74.49"/><line class="cls-1" x1="96.13" y1="216.78" x2="99.53" y2="216.78"/><line class="cls-1" x1="96.13" y1="74.49" x2="99.53" y2="74.49"/><line class="cls-1" x1="124.03" y1="226.96" x2="178.59" y2="226.96"/><line class="cls-1" x1="124.03" y1="225.78" x2="124.03" y2="228.14"/><line class="cls-1" x1="178.59" y1="225.78" x2="178.59" y2="228.14"/><g class="cls-2"><path d="M122.85,241a3.67,3.67,0,0,1,.7,1.16,4,4,0,0,1-.9,4.27,4,4,0,0,1-1.31.82,4.75,4.75,0,0,1-3.12.07,3.82,3.82,0,0,1-1.15-.61L116,247.77l-.53-.49,1.1-1.09a3.64,3.64,0,0,1-.72-1.18,4.17,4.17,0,0,1-.24-1.43,4,4,0,0,1,.3-1.57,3.88,3.88,0,0,1,.86-1.25,3.94,3.94,0,0,1,1.3-.82,4.48,4.48,0,0,1,1.65-.3,4.74,4.74,0,0,1,1.45.22,4,4,0,0,1,1.2.62l1.09-1.09.53.49Zm-1.3.26a2.81,2.81,0,0,0-1.88-.63,3,3,0,0,0-1.22.24,2.56,2.56,0,0,0-.91.63,2.91,2.91,0,0,0-.58.94,3.24,3.24,0,0,0-.21,1.17,2.87,2.87,0,0,0,.57,1.82ZM117.81,246a2.94,2.94,0,0,0,.84.45,3.3,3.3,0,0,0,1,.16,3,3,0,0,0,1.23-.24,2.69,2.69,0,0,0,.92-.63,2.83,2.83,0,0,0,.59-.94,3.2,3.2,0,0,0,.21-1.17,3,3,0,0,0-.57-1.82Z"/><path d="M130.39,247.32h-1.2v-9.88l-2.11,1.79-.74-.87,3-2.36h1.06Z"/><path d="M137,240.86l0,0a2.18,2.18,0,0,1,.75-.29,4.78,4.78,0,0,1,.88-.09,3.93,3.93,0,0,1,1.42.26,3.6,3.6,0,0,1,1.13.73,3.39,3.39,0,0,1,.76,1.1,3.62,3.62,0,0,1,.27,1.41,3.48,3.48,0,0,1-.28,1.43,3.21,3.21,0,0,1-.8,1.1,3.57,3.57,0,0,1-1.21.72,4.38,4.38,0,0,1-1.53.26,4.47,4.47,0,0,1-1.53-.26,3.67,3.67,0,0,1-1.21-.72,3.35,3.35,0,0,1-.8-1.1,3.65,3.65,0,0,1-.28-1.43,4.38,4.38,0,0,1,.29-1.65,9.76,9.76,0,0,1,.73-1.39l3.17-5h1.41ZM135.84,244a2.43,2.43,0,0,0,.19,1,2.37,2.37,0,0,0,.54.78,2.25,2.25,0,0,0,.83.5,3,3,0,0,0,1.06.18,3.08,3.08,0,0,0,1.07-.18,2.33,2.33,0,0,0,.83-.5,2.37,2.37,0,0,0,.54-.78,2.61,2.61,0,0,0,.19-1,2.64,2.64,0,0,0-.19-1,2.33,2.33,0,0,0-.54-.77,2.67,2.67,0,0,0-.83-.5,3.08,3.08,0,0,0-1.07-.19,3,3,0,0,0-1.06.19,2.56,2.56,0,0,0-.83.5,2.33,2.33,0,0,0-.54.77A2.46,2.46,0,0,0,135.84,244Z"/><path d="M151.35,247.32h-7.47V246l4.68-4.6c.18-.17.36-.35.53-.54a4.85,4.85,0,0,0,.49-.61,3.28,3.28,0,0,0,.35-.67,2.26,2.26,0,0,0,.13-.74,1.9,1.9,0,0,0-.18-.83,1.73,1.73,0,0,0-.49-.62,2.22,2.22,0,0,0-.73-.39,2.8,2.8,0,0,0-.88-.14,2.45,2.45,0,0,0-1.53.48,2.15,2.15,0,0,0-.81,1.3l-1.26-.13a3.13,3.13,0,0,1,1.2-2,3.75,3.75,0,0,1,2.32-.72,4.89,4.89,0,0,1,1.35.19,3.22,3.22,0,0,1,1.13.55,2.65,2.65,0,0,1,1.07,2.21,3.29,3.29,0,0,1-.2,1.2,5,5,0,0,1-.54,1,6.55,6.55,0,0,1-.76.91c-.28.29-.57.58-.87.85l-3.71,3.54h6.18Z"/><path d="M158.13,241.5c0-.28,0-.55,0-.83l-.06-.83h1.18V241h0a2.54,2.54,0,0,1,1.11-1,3.27,3.27,0,0,1,1.4-.34,4.13,4.13,0,0,1,.67.07,2.44,2.44,0,0,1,.69.23,2.26,2.26,0,0,1,.62.47,2.67,2.67,0,0,1,.5.79,2.51,2.51,0,0,1,1.05-1.14,3.28,3.28,0,0,1,3.71.34,3,3,0,0,1,.72,2.17v4.75h-1.1V243a3.08,3.08,0,0,0-.42-1.75,1.74,1.74,0,0,0-1.54-.61,2,2,0,0,0-1,.24,1.88,1.88,0,0,0-.67.61,2.84,2.84,0,0,0-.38.87,4.9,4.9,0,0,0-.11,1v4h-1.1V243a3.17,3.17,0,0,0-.41-1.75,1.78,1.78,0,0,0-1.55-.61c-.07,0-.22,0-.46.07a1.83,1.83,0,0,0-.74.35,2.56,2.56,0,0,0-.68.86,3.4,3.4,0,0,0-.31,1.6v3.84h-1.1Z"/><path d="M172.29,241.5c0-.28,0-.55,0-.83l-.06-.83h1.18V241h0a2.6,2.6,0,0,1,1.11-1,3.31,3.31,0,0,1,1.4-.34,4.24,4.24,0,0,1,.68.07,2.67,2.67,0,0,1,.69.23,2.42,2.42,0,0,1,.62.47,2.66,2.66,0,0,1,.49.79,2.51,2.51,0,0,1,1-1.14,3,3,0,0,1,1.51-.42,2.94,2.94,0,0,1,2.21.76,3.08,3.08,0,0,1,.71,2.17v4.75h-1.1V243a3.17,3.17,0,0,0-.41-1.75,1.76,1.76,0,0,0-1.55-.61,2,2,0,0,0-1,.24,2,2,0,0,0-.67.61,2.6,2.6,0,0,0-.37.87,4.31,4.31,0,0,0-.12,1v4h-1.1V243a3.08,3.08,0,0,0-.41-1.75,1.76,1.76,0,0,0-1.55-.61l-.45.07a1.72,1.72,0,0,0-.74.35,2.46,2.46,0,0,0-.69.86,3.4,3.4,0,0,0-.31,1.6v3.84h-1.09Z"/></g><g class="cls-2"><path d="M120.39,50.64a3.67,3.67,0,0,1,.7,1.16,4,4,0,0,1,.26,1.45,3.85,3.85,0,0,1-.31,1.56,3.75,3.75,0,0,1-.85,1.25,4,4,0,0,1-1.31.83,4.68,4.68,0,0,1-1.67.29,4.46,4.46,0,0,1-1.45-.22,3.82,3.82,0,0,1-1.15-.61l-1.12,1.09-.53-.5,1.1-1.09a3.7,3.7,0,0,1-.72-1.17,4.17,4.17,0,0,1-.25-1.43,4,4,0,0,1,.31-1.57,3.79,3.79,0,0,1,2.16-2.07,4.44,4.44,0,0,1,1.65-.3,4.5,4.5,0,0,1,1.45.22,4.24,4.24,0,0,1,1.2.61L121,49.05l.53.5Zm-1.3.25a2.86,2.86,0,0,0-1.88-.62,3.16,3.16,0,0,0-1.22.23,2.85,2.85,0,0,0-.91.63,3,3,0,0,0-.58.95,3.2,3.2,0,0,0-.21,1.17,2.94,2.94,0,0,0,.56,1.82Zm-3.74,4.72a2.57,2.57,0,0,0,.83.45,3.09,3.09,0,0,0,1,.16,3.17,3.17,0,0,0,1.23-.23,3,3,0,0,0,.92-.63,2.88,2.88,0,0,0,.59-1,3.41,3.41,0,0,0,.2-1.16,3,3,0,0,0-.56-1.83Z"/><path d="M135,57h-7.48V55.66l4.69-4.59.53-.54a5.34,5.34,0,0,0,.48-.61,3.56,3.56,0,0,0,.35-.67,2.06,2.06,0,0,0,.13-.74,2,2,0,0,0-.17-.83,1.79,1.79,0,0,0-.49-.63,2.33,2.33,0,0,0-.73-.39,2.84,2.84,0,0,0-.88-.13,2.45,2.45,0,0,0-1.53.48,2.21,2.21,0,0,0-.82,1.29l-1.26-.13a3.16,3.16,0,0,1,1.21-2,3.72,3.72,0,0,1,2.31-.72,5,5,0,0,1,1.36.18,3.62,3.62,0,0,1,1.13.56,2.79,2.79,0,0,1,.78.92,2.72,2.72,0,0,1,.29,1.28,3.29,3.29,0,0,1-.21,1.2,4.81,4.81,0,0,1-.54,1,7.1,7.1,0,0,1-.75.91l-.88.85-3.7,3.53H135Z"/><path d="M139.39,50.53H140a3.93,3.93,0,0,0,1-.12,2.23,2.23,0,0,0,.83-.36,1.8,1.8,0,0,0,.55-.64,2.06,2.06,0,0,0,.21-1A1.8,1.8,0,0,0,142,47a2.35,2.35,0,0,0-1.61-.5,2.49,2.49,0,0,0-2.24,1.24l-1-.51a3.45,3.45,0,0,1,1.36-1.35,4,4,0,0,1,1.9-.44,4.28,4.28,0,0,1,1.31.19,3.28,3.28,0,0,1,1.08.57,2.76,2.76,0,0,1,1,2.18,2.55,2.55,0,0,1-.16.88,3,3,0,0,1-.43.76,3.53,3.53,0,0,1-.64.58,3.06,3.06,0,0,1-.77.38l.05,0a2.46,2.46,0,0,1,.92.36,2.74,2.74,0,0,1,.71.65,3.2,3.2,0,0,1,.33,3.26,2.91,2.91,0,0,1-.81,1,3.63,3.63,0,0,1-1.2.64,4.82,4.82,0,0,1-1.44.21,4.53,4.53,0,0,1-2.26-.54,3.36,3.36,0,0,1-1.45-1.75l1.27-.36a2.37,2.37,0,0,0,.88,1.2,2.93,2.93,0,0,0,1.66.4,2.9,2.9,0,0,0,.94-.16,2.38,2.38,0,0,0,.79-.46,2.1,2.1,0,0,0,.54-.71,2.28,2.28,0,0,0,.19-.91,2.21,2.21,0,0,0-.25-1.08,2.1,2.1,0,0,0-.67-.72,2.8,2.8,0,0,0-.95-.39,5.19,5.19,0,0,0-1.12-.12h-.52Z"/><path d="M148.43,50.53l0,0a2,2,0,0,1,.76-.29,4.65,4.65,0,0,1,.87-.1,3.7,3.7,0,0,1,1.42.27,3.38,3.38,0,0,1,1.14.73,3.26,3.26,0,0,1,.75,1.1,3.45,3.45,0,0,1,.28,1.41,3.6,3.6,0,0,1-.28,1.42,3.29,3.29,0,0,1-.8,1.11,3.72,3.72,0,0,1-1.22.72,4.78,4.78,0,0,1-3,0,3.57,3.57,0,0,1-1.21-.72,3.16,3.16,0,0,1-.8-1.11,3.43,3.43,0,0,1-.28-1.42,4.19,4.19,0,0,1,.29-1.65,8.76,8.76,0,0,1,.72-1.39l3.17-5h1.41Zm-1.2,3.15a2.64,2.64,0,0,0,.19,1,2.37,2.37,0,0,0,.54.78,2.49,2.49,0,0,0,.83.5,3.24,3.24,0,0,0,2.13,0,2.28,2.28,0,0,0,1.37-1.28,2.67,2.67,0,0,0,0-2,2.23,2.23,0,0,0-.54-.77,2.76,2.76,0,0,0-.83-.51,3.24,3.24,0,0,0-2.13,0,2.89,2.89,0,0,0-.83.51,2.23,2.23,0,0,0-.54.77A2.64,2.64,0,0,0,147.23,53.68Z"/><path d="M160.29,51.17q0-.42,0-.84c0-.27,0-.55,0-.83h1.18v1.14h0a2.46,2.46,0,0,1,1.1-1,3.18,3.18,0,0,1,1.41-.34,4.06,4.06,0,0,1,.67.06,2.46,2.46,0,0,1,.69.24,2.26,2.26,0,0,1,.62.47,2.31,2.31,0,0,1,.49.78,2.46,2.46,0,0,1,1.06-1.13,2.94,2.94,0,0,1,1.5-.42,2.89,2.89,0,0,1,2.21.76,3,3,0,0,1,.71,2.17V57h-1.09V52.62a3,3,0,0,0-.42-1.74,1.72,1.72,0,0,0-1.54-.61,2.12,2.12,0,0,0-1,.23,2,2,0,0,0-.68.62,2.72,2.72,0,0,0-.37.87,4.25,4.25,0,0,0-.12,1v4h-1.09V52.62a3,3,0,0,0-.42-1.74,1.72,1.72,0,0,0-1.54-.61l-.46.06a1.8,1.8,0,0,0-.74.36,2.71,2.71,0,0,0-.69.86,3.51,3.51,0,0,0-.3,1.6V57h-1.1Z"/><path d="M174.44,51.17c0-.28,0-.56,0-.84l-.06-.83h1.18v1.14h0a2.54,2.54,0,0,1,1.11-1,3.17,3.17,0,0,1,1.4-.34,4.06,4.06,0,0,1,.67.06,2.49,2.49,0,0,1,1.32.71,2.67,2.67,0,0,1,.49.78,2.44,2.44,0,0,1,1.05-1.13,2.94,2.94,0,0,1,1.5-.42,2.87,2.87,0,0,1,2.21.76,3,3,0,0,1,.72,2.17V57h-1.1V52.62a3.13,3.13,0,0,0-.41-1.74,1.75,1.75,0,0,0-1.55-.61,2.15,2.15,0,0,0-1,.23,1.9,1.9,0,0,0-.67.62,2.74,2.74,0,0,0-.38.87,4.83,4.83,0,0,0-.11,1v4h-1.1V52.62a3.13,3.13,0,0,0-.41-1.74,1.75,1.75,0,0,0-1.55-.61l-.46.06a1.77,1.77,0,0,0-.73.36,2.46,2.46,0,0,0-.69.86,3.37,3.37,0,0,0-.31,1.6V57h-1.1Z"/></g><g class="cls-2"><path d="M86.69,164.62V163h1v1.63h2.69v1.15H87.74v4.9H86.43l-7.33-4.58v-1.47Zm-6.43,1.15v0l6.43,3.9v-3.94Z"/><path d="M84,159.12v-.59a4.35,4.35,0,0,0-.11-1,2.48,2.48,0,0,0-.36-.79,1.88,1.88,0,0,0-.65-.53,2.06,2.06,0,0,0-1-.2,1.82,1.82,0,0,0-1.42.55,2.23,2.23,0,0,0-.5,1.54,2.35,2.35,0,0,0,1.25,2.16l-.52,1a3.53,3.53,0,0,1-1.35-1.3,3.76,3.76,0,0,1-.44-1.84,4.31,4.31,0,0,1,.19-1.26,3.18,3.18,0,0,1,.57-1,2.62,2.62,0,0,1,.93-.71,2.84,2.84,0,0,1,1.26-.27,2.59,2.59,0,0,1,.88.16,3,3,0,0,1,.75.41,3.08,3.08,0,0,1,1,1.35l0,0a2.28,2.28,0,0,1,.36-.88,2.67,2.67,0,0,1,.65-.69,3.06,3.06,0,0,1,.86-.45,3.1,3.1,0,0,1,1-.16,3.23,3.23,0,0,1,1.39.29,3,3,0,0,1,1,.78,3.77,3.77,0,0,1,.63,1.15,4.61,4.61,0,0,1,.21,1.4,4.24,4.24,0,0,1-.54,2.17,3.29,3.29,0,0,1-1.74,1.39L88,160.56a2.41,2.41,0,0,0,1.21-.86,3.12,3.12,0,0,0,.23-2.5,2.34,2.34,0,0,0-.46-.76,2,2,0,0,0-.71-.51,2.12,2.12,0,0,0-.91-.19,2.21,2.21,0,0,0-1.08.24,2,2,0,0,0-.71.64,2.63,2.63,0,0,0-.4.92,4.83,4.83,0,0,0-.12,1.08v.5Z"/><path d="M90.43,145.52v7.2H89.1l-4.59-4.51-.54-.52a5.41,5.41,0,0,0-.61-.46,3.52,3.52,0,0,0-.67-.34,2.3,2.3,0,0,0-.74-.12,2,2,0,0,0-.83.16,1.73,1.73,0,0,0-.62.48,2.1,2.1,0,0,0-.4.7A2.65,2.65,0,0,0,80,149a2.3,2.3,0,0,0,.48,1.47,2.11,2.11,0,0,0,1.29.78l-.12,1.22a3.18,3.18,0,0,1-2-1.16,3.51,3.51,0,0,1-.72-2.23,4.32,4.32,0,0,1,.19-1.31,3.07,3.07,0,0,1,.55-1.08,2.63,2.63,0,0,1,.92-.76,2.92,2.92,0,0,1,1.29-.28,3.6,3.6,0,0,1,1.2.2,5.44,5.44,0,0,1,1,.52,7.86,7.86,0,0,1,.91.73c.29.27.57.55.85.84l3.54,3.57v-5.95Z"/><path d="M84.61,139l-.83,0-.84.06v-1.14h1.14v0a2.41,2.41,0,0,1-1-1.06,2.91,2.91,0,0,1-.27-2,2.42,2.42,0,0,1,.23-.67,2.34,2.34,0,0,1,.47-.6,2.65,2.65,0,0,1,.78-.47,2.45,2.45,0,0,1-1.13-1,2.79,2.79,0,0,1-.42-1.45,2.73,2.73,0,0,1,.76-2.13,3.12,3.12,0,0,1,2.17-.69h4.75v1.06H86.06a3.16,3.16,0,0,0-1.74.4,1.64,1.64,0,0,0-.61,1.49,2,2,0,0,0,.23,1,1.93,1.93,0,0,0,.62.65,3.07,3.07,0,0,0,.87.36,4.9,4.9,0,0,0,1,.11h4v1.05H86.06a3.25,3.25,0,0,0-1.74.4,1.65,1.65,0,0,0-.61,1.49,2.52,2.52,0,0,0,.07.44,1.62,1.62,0,0,0,.35.71,2.55,2.55,0,0,0,.86.67,3.55,3.55,0,0,0,1.6.29h3.84V139Z"/><path d="M84.61,125.36l-.83,0-.84.06V124.3h1.14v0a2.47,2.47,0,0,1-1-1.06,2.91,2.91,0,0,1-.27-2,2.42,2.42,0,0,1,.23-.67,2.34,2.34,0,0,1,.47-.6,2.65,2.65,0,0,1,.78-.47,2.42,2.42,0,0,1-1.13-1,3.06,3.06,0,0,1,.34-3.57,3.12,3.12,0,0,1,2.17-.69h4.75v1.06H86.06a3.16,3.16,0,0,0-1.74.4,1.62,1.62,0,0,0-.61,1.48,2,2,0,0,0,.23,1,1.9,1.9,0,0,0,.62.64,2.58,2.58,0,0,0,.87.36,4.31,4.31,0,0,0,1,.12h4v1H86.06a3.25,3.25,0,0,0-1.74.4,1.65,1.65,0,0,0-.61,1.49,2.67,2.67,0,0,0,.07.44,1.62,1.62,0,0,0,.35.71A2.55,2.55,0,0,0,85,124a3.69,3.69,0,0,0,1.6.29h3.84v1.06Z"/></g><polygon class="cls-3" points="126.37 74.02 173.33 74.02 189.09 135.92 110.91 135.92 126.37 74.02"/><path class="cls-4" d="M125.49,76.76h48.19M125,78.89h49.25M124.45,81h50.32m-50.84,2.14h51.38M123.4,85.3h52.46m-53,2.14H176.4m-54.05,2.14H177m-55.12,2.13H177.5m-56.19,2.14H178M120.78,96h57.81m-58.33,2.14h58.87m-59.39,2.13h59.94m-60.47,2.14h61m-61.54,2.14h62.08m-62.6,2.14h63.15m-63.68,2.13h64.22M117.12,111h65.29m-65.81,2.13H183m-66.88,2.14H183.5m-67.95,2.14H184m-69,2.14h69.57m-70.09,2.13h70.64M114,123.77h71.7m-72.22,2.14h72.77m-73.3,2.14h73.84m-74.36,2.13h74.91m-75.44,2.14h76"/><polygon class="cls-3" points="126.37 74.02 173.33 74.02 189.09 135.92 110.91 135.92 126.37 74.02"/><path class="cls-4" d="M177.22,215.14c-22.8,0-22.57-54.4-22.57-54.4V135.85h-8.06v24.89s.24,54.4-22.56,54.4Z"/><rect class="cls-4" x="123.52" y="215.06" width="54.28" height="2.14"/><path class="cls-4" d="M126.37,74h47l15.76,61.9H110.91Zm28.28,68.06h-8.11m8.11-.6h-8.11"/></svg>