<svg id="Miss_Sissi" xmlns="http://www.w3.org/2000/svg" viewBox="0 0 300 263"><defs><style>.cls-1,.cls-3{fill:none;stroke-width:0.5px;}.cls-1{stroke:#000;}.cls-2{isolation:isolate;}.cls-3{stroke:#1d1d1b;stroke-linecap:round;stroke-linejoin:round;}</style></defs><title>miss-sissi-table-starck-flos-F6250042-spech-tech-02-300x263</title><line class="cls-1" x1="119.85" y1="65.38" x2="180.53" y2="65.38"/><line class="cls-1" x1="119.85" y1="64.36" x2="119.85" y2="66.39"/><line class="cls-1" x1="180.53" y1="64.36" x2="180.53" y2="66.39"/><line class="cls-1" x1="190.28" y1="216.78" x2="190.28" y2="74.49"/><line class="cls-1" x1="188.58" y1="216.78" x2="191.98" y2="216.78"/><line class="cls-1" x1="188.58" y1="74.49" x2="191.98" y2="74.49"/><line class="cls-1" x1="124.03" y1="226.96" x2="178.59" y2="226.96"/><line class="cls-1" x1="124.03" y1="225.78" x2="124.03" y2="228.14"/><line class="cls-1" x1="178.59" y1="225.78" x2="178.59" y2="228.14"/><g class="cls-2"><path d="M120.54,241a3.67,3.67,0,0,1,.7,1.16,4.15,4.15,0,0,1,0,3,3.7,3.7,0,0,1-.85,1.25,4,4,0,0,1-1.3.82,4.78,4.78,0,0,1-3.13.07,3.82,3.82,0,0,1-1.15-.61l-1.11,1.09-.54-.49,1.1-1.09a3.45,3.45,0,0,1-.71-1.18,4,4,0,0,1-.25-1.43,4,4,0,0,1,.3-1.57,3.88,3.88,0,0,1,.86-1.25,3.94,3.94,0,0,1,1.3-.82,4.49,4.49,0,0,1,1.66-.3,4.72,4.72,0,0,1,1.44.22,4,4,0,0,1,1.2.62l1.09-1.09.54.49Zm-1.3.26a2.8,2.8,0,0,0-1.87-.63,2.92,2.92,0,0,0-1.22.24,2.6,2.6,0,0,0-.92.63,2.91,2.91,0,0,0-.58.94,3.24,3.24,0,0,0-.21,1.17,2.87,2.87,0,0,0,.57,1.82ZM115.51,246a2.88,2.88,0,0,0,.83.45,3.32,3.32,0,0,0,1,.16,3,3,0,0,0,1.22-.24,2.69,2.69,0,0,0,.92-.63,2.83,2.83,0,0,0,.59-.94,3.2,3.2,0,0,0,.21-1.17,3,3,0,0,0-.57-1.82Z"/><path d="M132.7,247.32h-1.2v-9.88l-2.11,1.79-.74-.87,3-2.36h1.06Z"/><path d="M141.94,247.32h-1.2v-9.88l-2.11,1.79-.75-.87,3-2.36h1.07Z"/><path d="M150,235.8a3.44,3.44,0,0,1,2,.56,3.8,3.8,0,0,1,1.21,1.43,6.14,6.14,0,0,1,.59,1.89,13.14,13.14,0,0,1,0,4,6.14,6.14,0,0,1-.59,1.89,3.8,3.8,0,0,1-1.21,1.43,3.44,3.44,0,0,1-2,.56,3.5,3.5,0,0,1-2-.56,3.9,3.9,0,0,1-1.21-1.43,6.13,6.13,0,0,1-.58-1.89,13.14,13.14,0,0,1,0-4,6.13,6.13,0,0,1,.58-1.89,3.9,3.9,0,0,1,1.21-1.43A3.5,3.5,0,0,1,150,235.8Zm0,1.06a2.21,2.21,0,0,0-1.52.5,3.14,3.14,0,0,0-.84,1.23,5.71,5.71,0,0,0-.36,1.57c0,.55-.07,1.05-.07,1.5s0,1,.07,1.5a5.71,5.71,0,0,0,.36,1.57,3.14,3.14,0,0,0,.84,1.23,2.56,2.56,0,0,0,3,0,3.14,3.14,0,0,0,.84-1.23,5.71,5.71,0,0,0,.35-1.57c.05-.55.08-1,.08-1.5s0-.95-.08-1.5a5.71,5.71,0,0,0-.35-1.57,3.14,3.14,0,0,0-.84-1.23A2.21,2.21,0,0,0,150,236.86Z"/><path d="M160.44,241.5c0-.28,0-.55,0-.83l-.06-.83h1.18V241h0a2.57,2.57,0,0,1,1.1-1,3.35,3.35,0,0,1,1.41-.34,4.13,4.13,0,0,1,.67.07,2.44,2.44,0,0,1,.69.23,2.26,2.26,0,0,1,.62.47,2.47,2.47,0,0,1,.49.79,2.59,2.59,0,0,1,1.06-1.14,3.28,3.28,0,0,1,3.71.34,3,3,0,0,1,.72,2.17v4.75h-1.1V243a3.08,3.08,0,0,0-.42-1.75,1.74,1.74,0,0,0-1.54-.61,2,2,0,0,0-1,.24,1.88,1.88,0,0,0-.67.61,2.84,2.84,0,0,0-.38.87,4.9,4.9,0,0,0-.11,1v4h-1.1V243a3.17,3.17,0,0,0-.41-1.75,1.78,1.78,0,0,0-1.55-.61c-.07,0-.22,0-.46.07a1.83,1.83,0,0,0-.74.35,2.71,2.71,0,0,0-.69.86,3.53,3.53,0,0,0-.3,1.6v3.84h-1.1Z"/><path d="M174.59,241.5c0-.28,0-.55,0-.83l-.06-.83h1.18V241h0a2.6,2.6,0,0,1,1.11-1,3.31,3.31,0,0,1,1.4-.34,4,4,0,0,1,.67.07,2.44,2.44,0,0,1,.69.23,2.3,2.3,0,0,1,.63.47,2.88,2.88,0,0,1,.49.79,2.51,2.51,0,0,1,1-1.14,3,3,0,0,1,1.51-.42,2.9,2.9,0,0,1,2.2.76,3,3,0,0,1,.72,2.17v4.75h-1.1V243a3.17,3.17,0,0,0-.41-1.75,1.76,1.76,0,0,0-1.55-.61,2,2,0,0,0-1,.24,2,2,0,0,0-.67.61,2.6,2.6,0,0,0-.37.87,4.31,4.31,0,0,0-.12,1v4h-1.1V243a3.08,3.08,0,0,0-.41-1.75,1.76,1.76,0,0,0-1.55-.61l-.45.07a1.72,1.72,0,0,0-.74.35,2.46,2.46,0,0,0-.69.86,3.4,3.4,0,0,0-.31,1.6v3.84h-1.1Z"/></g><g class="cls-2"><path d="M120.39,49.64a3.67,3.67,0,0,1,.7,1.16,4,4,0,0,1,.26,1.45,3.85,3.85,0,0,1-.31,1.56,3.75,3.75,0,0,1-.85,1.25,4,4,0,0,1-1.31.83,4.68,4.68,0,0,1-1.67.29,4.46,4.46,0,0,1-1.45-.22,3.82,3.82,0,0,1-1.15-.61l-1.12,1.09-.53-.5,1.1-1.09a3.7,3.7,0,0,1-.72-1.17,4.17,4.17,0,0,1-.25-1.43,4,4,0,0,1,.31-1.57,3.79,3.79,0,0,1,2.16-2.07,4.44,4.44,0,0,1,1.65-.3,4.5,4.5,0,0,1,1.45.22,4.24,4.24,0,0,1,1.2.61L121,48.05l.53.5Zm-1.3.25a2.86,2.86,0,0,0-1.88-.62,3.16,3.16,0,0,0-1.22.23,2.85,2.85,0,0,0-.91.63,3,3,0,0,0-.58.95,3.2,3.2,0,0,0-.21,1.17,2.94,2.94,0,0,0,.56,1.82Zm-3.74,4.72a2.57,2.57,0,0,0,.83.45,3.09,3.09,0,0,0,1,.16,3.17,3.17,0,0,0,1.23-.23,3,3,0,0,0,.92-.63,2.88,2.88,0,0,0,.59-1,3.41,3.41,0,0,0,.2-1.16,3,3,0,0,0-.56-1.83Z"/><path d="M132.55,56h-1.2V46.1l-2.11,1.79-.75-.86,3-2.37h1.07Z"/><path d="M142.91,52.25h1.7v1h-1.7V56h-1.19V53.3h-5.09V52l4.75-7.33h1.53Zm-1.19-6.44h0l-4.05,6.44h4.09Z"/><path d="M148.63,49.53h.61a4.07,4.07,0,0,0,1-.12,2.11,2.11,0,0,0,.82-.36,1.73,1.73,0,0,0,.56-.64,2.06,2.06,0,0,0,.21-1,1.78,1.78,0,0,0-.58-1.42,2.31,2.31,0,0,0-1.6-.5,2.52,2.52,0,0,0-1.31.32,2.49,2.49,0,0,0-.93.92l-1.05-.51a3.45,3.45,0,0,1,1.36-1.35,4,4,0,0,1,1.9-.44,4.32,4.32,0,0,1,1.31.19,3.28,3.28,0,0,1,1.08.57,2.7,2.7,0,0,1,.74.93,2.83,2.83,0,0,1,.27,1.25,2.54,2.54,0,0,1-.15.88,2.74,2.74,0,0,1-.44.76,3,3,0,0,1-.64.58A2.85,2.85,0,0,1,151,50l0,0a2.41,2.41,0,0,1,.91.36,2.63,2.63,0,0,1,.72.65,2.84,2.84,0,0,1,.46.86,3.25,3.25,0,0,1-.13,2.4,2.91,2.91,0,0,1-.81,1A3.84,3.84,0,0,1,151,56a4.94,4.94,0,0,1-1.45.21,4.58,4.58,0,0,1-2.26-.54,3.34,3.34,0,0,1-1.44-1.75l1.26-.36a2.38,2.38,0,0,0,.89,1.2,2.88,2.88,0,0,0,1.65.4,3,3,0,0,0,1-.16,2.49,2.49,0,0,0,.79-.46,2.07,2.07,0,0,0,.53-.71,2.37,2.37,0,0,0-.06-2,2,2,0,0,0-.66-.72,2.94,2.94,0,0,0-1-.39,5.13,5.13,0,0,0-1.12-.12h-.51Z"/><path d="M160.29,50.17q0-.42,0-.84c0-.27,0-.55,0-.83h1.18v1.14h0a2.46,2.46,0,0,1,1.1-1,3.18,3.18,0,0,1,1.41-.34,4.06,4.06,0,0,1,.67.06,2.46,2.46,0,0,1,.69.24,2.26,2.26,0,0,1,.62.47,2.31,2.31,0,0,1,.49.78,2.46,2.46,0,0,1,1.06-1.13,2.94,2.94,0,0,1,1.5-.42,2.89,2.89,0,0,1,2.21.76,3,3,0,0,1,.71,2.17V56h-1.09V51.62a3,3,0,0,0-.42-1.74,1.72,1.72,0,0,0-1.54-.61,2.12,2.12,0,0,0-1,.23,2,2,0,0,0-.68.62,2.72,2.72,0,0,0-.37.87,4.25,4.25,0,0,0-.12,1v4h-1.09V51.62a3,3,0,0,0-.42-1.74,1.72,1.72,0,0,0-1.54-.61l-.46.06a1.8,1.8,0,0,0-.74.36,2.71,2.71,0,0,0-.69.86,3.51,3.51,0,0,0-.3,1.6V56h-1.1Z"/><path d="M174.44,50.17c0-.28,0-.56,0-.84l-.06-.83h1.18v1.14h0a2.54,2.54,0,0,1,1.11-1,3.17,3.17,0,0,1,1.4-.34,4.06,4.06,0,0,1,.67.06,2.49,2.49,0,0,1,1.32.71,2.67,2.67,0,0,1,.49.78,2.44,2.44,0,0,1,1.05-1.13,2.94,2.94,0,0,1,1.5-.42,2.87,2.87,0,0,1,2.21.76,3,3,0,0,1,.72,2.17V56h-1.1V51.62a3.13,3.13,0,0,0-.41-1.74,1.75,1.75,0,0,0-1.55-.61,2.15,2.15,0,0,0-1,.23,1.9,1.9,0,0,0-.67.62,2.74,2.74,0,0,0-.38.87,4.83,4.83,0,0,0-.11,1v4h-1.1V51.62a3.13,3.13,0,0,0-.41-1.74,1.75,1.75,0,0,0-1.55-.61l-.46.06a1.77,1.77,0,0,0-.73.36,2.46,2.46,0,0,0-.69.86,3.37,3.37,0,0,0-.31,1.6V56h-1.1Z"/></g><g class="cls-2"><path d="M210,159.52v7.2h-1.33l-4.59-4.51c-.17-.17-.35-.34-.55-.51a5.39,5.39,0,0,0-.6-.47,3,3,0,0,0-.68-.33,2,2,0,0,0-.73-.13,1.84,1.84,0,0,0-.83.17,1.74,1.74,0,0,0-.63.47,2.08,2.08,0,0,0-.39.7,2.66,2.66,0,0,0-.14.85,2.28,2.28,0,0,0,.48,1.47,2.14,2.14,0,0,0,1.3.78l-.13,1.22a3.18,3.18,0,0,1-2-1.16,3.51,3.51,0,0,1-.72-2.23,4.59,4.59,0,0,1,.18-1.3,3.2,3.2,0,0,1,.55-1.09,2.67,2.67,0,0,1,.92-.75,2.79,2.79,0,0,1,1.29-.28,3.29,3.29,0,0,1,1.2.2,4.53,4.53,0,0,1,1,.52,6.85,6.85,0,0,1,.91.72l.85.84,3.53,3.57v-5.95Z"/><path d="M204,155.62a2.23,2.23,0,0,1-.38.67,2.7,2.7,0,0,1-.58.54,2.79,2.79,0,0,1-.74.35,2.57,2.57,0,0,1-.83.13,2.87,2.87,0,0,1-2.16-.94,2.92,2.92,0,0,1-.59-1,3.56,3.56,0,0,1-.21-1.22,3.5,3.5,0,0,1,.21-1.21,2.83,2.83,0,0,1,.59-1,2.79,2.79,0,0,1,.93-.69,2.91,2.91,0,0,1,1.23-.26,2.88,2.88,0,0,1,.83.13,3.17,3.17,0,0,1,.74.36,2.65,2.65,0,0,1,.58.53,2.41,2.41,0,0,1,.38.68h0a2.72,2.72,0,0,1,1-1.54,3.25,3.25,0,0,1,1.92-.57,2.89,2.89,0,0,1,1.33.3,3.12,3.12,0,0,1,1,.78,3.36,3.36,0,0,1,.65,1.14,4.35,4.35,0,0,1,.22,1.36,4.42,4.42,0,0,1-.22,1.37,3.56,3.56,0,0,1-.65,1.14,3.42,3.42,0,0,1-1,.78,2.89,2.89,0,0,1-1.33.3,3.19,3.19,0,0,1-1.92-.58,2.67,2.67,0,0,1-1-1.53Zm-2.44-3.49a2.15,2.15,0,0,0-.8.15,1.93,1.93,0,0,0-.63.42,2.13,2.13,0,0,0-.41.64,2,2,0,0,0-.16.8,1.91,1.91,0,0,0,.16.8,2,2,0,0,0,.41.64,2,2,0,0,0,.63.43,2.15,2.15,0,0,0,.8.15,2.07,2.07,0,0,0,.8-.15,1.9,1.9,0,0,0,.64-.43,2,2,0,0,0,.41-.64,2.07,2.07,0,0,0,.15-.8,2.06,2.06,0,0,0-.56-1.44,1.87,1.87,0,0,0-.64-.42A2.07,2.07,0,0,0,201.55,152.13Zm5.28-.42a2.36,2.36,0,0,0-.92.18,2.13,2.13,0,0,0-1.22,1.25,2.73,2.73,0,0,0-.18,1,2.67,2.67,0,0,0,.18,1,2.21,2.21,0,0,0,.49.76,2.29,2.29,0,0,0,.73.49,2.36,2.36,0,0,0,.92.18,2.32,2.32,0,0,0,.92-.18,2.18,2.18,0,0,0,1.23-1.25,2.89,2.89,0,0,0,.17-1,3,3,0,0,0-.17-1,2.26,2.26,0,0,0-.49-.77,2.2,2.2,0,0,0-.74-.48A2.32,2.32,0,0,0,206.83,151.71Z"/><path d="M206.27,143v-1.63h1.06V143H210v1.15h-2.69v4.9H206l-7.33-4.58V143Zm-6.43,1.15v0l6.43,3.91v-3.94Z"/><path d="M204.19,135.2l-.83,0-.83.06v-1.14h1.14v0a2.5,2.5,0,0,1-1-1.06,3.12,3.12,0,0,1-.33-1.35,3.74,3.74,0,0,1,.06-.65,2.42,2.42,0,0,1,.23-.67,2.39,2.39,0,0,1,.48-.6,2.65,2.65,0,0,1,.78-.47,2.48,2.48,0,0,1-1.14-1,2.87,2.87,0,0,1-.41-1.45,2.73,2.73,0,0,1,.76-2.13,3.11,3.11,0,0,1,2.17-.69H210v1.06h-4.37a3.11,3.11,0,0,0-1.74.4,1.63,1.63,0,0,0-.61,1.49,2,2,0,0,0,.23,1,1.92,1.92,0,0,0,.62.65,2.84,2.84,0,0,0,.87.36,4.74,4.74,0,0,0,1,.11h4v1h-4.37a3.2,3.2,0,0,0-1.74.4,1.65,1.65,0,0,0-.61,1.49,3.37,3.37,0,0,0,.06.44,1.62,1.62,0,0,0,.35.71,2.6,2.6,0,0,0,.87.67,3.66,3.66,0,0,0,1.6.29H210v1.06Z"/><path d="M204.19,121.57l-.83,0-.83.06v-1.14h1.14v0a2.55,2.55,0,0,1-1-1.06,3.12,3.12,0,0,1-.33-1.36,3.72,3.72,0,0,1,.06-.64,2.42,2.42,0,0,1,.23-.67,2.39,2.39,0,0,1,.48-.6,2.65,2.65,0,0,1,.78-.47,2.45,2.45,0,0,1-1.14-1,2.81,2.81,0,0,1-.41-1.44,2.73,2.73,0,0,1,.76-2.13,3.11,3.11,0,0,1,2.17-.69H210v1.06h-4.37a3.11,3.11,0,0,0-1.74.4,1.62,1.62,0,0,0-.61,1.48,2,2,0,0,0,.23,1,1.81,1.81,0,0,0,.62.64,2.42,2.42,0,0,0,.87.36,4.17,4.17,0,0,0,1,.12h4v1.05h-4.37a3.2,3.2,0,0,0-1.74.4,1.64,1.64,0,0,0-.61,1.49,3.61,3.61,0,0,0,.06.44,1.62,1.62,0,0,0,.35.71,2.6,2.6,0,0,0,.87.67,3.66,3.66,0,0,0,1.6.29H210v1.06Z"/></g><path class="cls-3" d="M146.72,207c-4.37-57.41,1-78.89,1-78.89l5.2,0s5,21.51.64,78.92Z"/><polygon class="cls-3" points="137.89 74.03 162.76 74.03 180.53 121.32 119.85 121.32 137.89 74.03"/><path class="cls-3" d="M157.84,121.39c0,4.22-3.42,6.83-7.65,6.83s-7.65-2.61-7.65-6.83Z"/><polygon class="cls-3" points="123.29 216.78 177.09 216.78 153.63 206.94 146.74 206.94 123.29 216.78"/></svg>