<svg id="Moni_1" xmlns="http://www.w3.org/2000/svg" xmlns:xlink="http://www.w3.org/1999/xlink" viewBox="0 0 239.94 142"><defs><style>.cls-1,.cls-2,.cls-5{fill:none;}.cls-2{stroke:#000;}.cls-2,.cls-5{stroke-width:0.5px;}.cls-3{isolation:isolate;}.cls-4{clip-path:url(#clip-path);}.cls-5{stroke:#1a171b;stroke-linecap:round;stroke-linejoin:round;}</style><clipPath id="clip-path" transform="translate(-12.33 -43.99)"><rect class="cls-1" x="43.72" y="69.19" width="211.23" height="86.83"/></clipPath></defs><title>moni-ceiling-wall-1-castiglioni-flos-F3801009-spech-tech-02-300x263-01</title><line class="cls-2" x1="239.69" y1="122.31" x2="34.32" y2="122.31"/><line class="cls-2" x1="239.69" y1="125.23" x2="239.69" y2="119.21"/><line class="cls-2" x1="34.32" y1="125.23" x2="34.32" y2="119.21"/><g class="cls-3"><path d="M122.89,179.19a3.62,3.62,0,0,1,.68,1.16,4,4,0,0,1,.25,1.45,4.07,4.07,0,0,1-.3,1.57,3.73,3.73,0,0,1-2.08,2.07,4.35,4.35,0,0,1-1.61.29,4.2,4.2,0,0,1-1.4-.22,3.72,3.72,0,0,1-1.11-.61L116.25,186l-.51-.5,1.05-1.08a4,4,0,0,1-.68-1.18,4.17,4.17,0,0,1-.24-1.43,4.22,4.22,0,0,1,.29-1.57A3.7,3.7,0,0,1,117,179a3.82,3.82,0,0,1,1.25-.82,4.45,4.45,0,0,1,3-.08,4,4,0,0,1,1.15.61l1.05-1.08.52.49Zm-1.25.26a2.64,2.64,0,0,0-1.81-.63,2.94,2.94,0,0,0-1.17.23,2.6,2.6,0,0,0-.88.64,2.77,2.77,0,0,0-.56.94,3.2,3.2,0,0,0-.2,1.17,3,3,0,0,0,.54,1.82Zm-3.6,4.72a2.6,2.6,0,0,0,.8.44,2.86,2.86,0,0,0,1,.16,2.79,2.79,0,0,0,1.18-.23,2.57,2.57,0,0,0,.89-.63,3.07,3.07,0,0,0,.57-.94,3.51,3.51,0,0,0,.2-1.17,3.09,3.09,0,0,0-.55-1.83Z" transform="translate(-12.33 -43.99)"/><path d="M132.3,179.08h.59a4.19,4.19,0,0,0,1-.11,2.3,2.3,0,0,0,.79-.36,1.8,1.8,0,0,0,.54-.65,2.19,2.19,0,0,0,.2-1,1.82,1.82,0,0,0-.55-1.42,2.24,2.24,0,0,0-1.55-.5,2.36,2.36,0,0,0-1.26.32,2.52,2.52,0,0,0-.9.93l-1-.52a3.46,3.46,0,0,1,1.3-1.35,3.75,3.75,0,0,1,1.83-.44,4.38,4.38,0,0,1,1.27.19,3.18,3.18,0,0,1,1,.57,2.88,2.88,0,0,1,.71.93,3,3,0,0,1,.26,1.26,2.58,2.58,0,0,1-.15.88,2.85,2.85,0,0,1-1,1.33,2.89,2.89,0,0,1-.74.38l.05,0a2.34,2.34,0,0,1,.88.36,2.67,2.67,0,0,1,.69.65,3.06,3.06,0,0,1,.45.86,3.39,3.39,0,0,1,.16,1,3.23,3.23,0,0,1-.29,1.39,3,3,0,0,1-.79,1,3.65,3.65,0,0,1-1.15.63,4.54,4.54,0,0,1-1.39.21,4.27,4.27,0,0,1-2.18-.54,3.33,3.33,0,0,1-1.39-1.74l1.22-.37a2.46,2.46,0,0,0,.85,1.21,2.8,2.8,0,0,0,1.6.39,2.76,2.76,0,0,0,.91-.16,2.34,2.34,0,0,0,.76-.46,2,2,0,0,0,.51-.71,2.27,2.27,0,0,0,.18-.91,2.21,2.21,0,0,0-.24-1.08,1.91,1.91,0,0,0-.64-.71,2.48,2.48,0,0,0-.92-.4,4.7,4.7,0,0,0-1.08-.12h-.49Z" transform="translate(-12.33 -43.99)"/><path d="M144.59,181.8h1.63v1h-1.63v2.69h-1.16v-2.69h-4.89v-1.31l4.57-7.33h1.48Zm-1.16-6.43h0l-3.9,6.43h3.93Z" transform="translate(-12.33 -43.99)"/><path d="M151.27,174a3.24,3.24,0,0,1,2,.56,3.89,3.89,0,0,1,1.17,1.43,6.3,6.3,0,0,1,.56,1.89,13.76,13.76,0,0,1,.14,2,13.53,13.53,0,0,1-.14,2,6.45,6.45,0,0,1-.56,1.9,3.78,3.78,0,0,1-1.17,1.42,3.73,3.73,0,0,1-3.93,0,3.69,3.69,0,0,1-1.17-1.42,6.17,6.17,0,0,1-.56-1.9,13.58,13.58,0,0,1-.15-2,13.82,13.82,0,0,1,.15-2,6,6,0,0,1,.56-1.89,3.79,3.79,0,0,1,1.17-1.43A3.21,3.21,0,0,1,151.27,174Zm0,1.06a2.08,2.08,0,0,0-1.46.49,3.11,3.11,0,0,0-.81,1.24,6.1,6.1,0,0,0-.34,1.56c0,.56-.07,1.06-.07,1.51s0,1,.07,1.5A6.09,6.09,0,0,0,149,183a3.08,3.08,0,0,0,.81,1.23,2.4,2.4,0,0,0,2.93,0,3.08,3.08,0,0,0,.81-1.23,6.09,6.09,0,0,0,.34-1.57c.05-.55.07-1,.07-1.5s0-.95-.07-1.51a6.1,6.1,0,0,0-.34-1.56,3.11,3.11,0,0,0-.81-1.24A2.09,2.09,0,0,0,151.27,175.08Z" transform="translate(-12.33 -43.99)"/><path d="M161.32,179.72c0-.28,0-.56,0-.83l-.06-.84h1.14v1.14h0a2.47,2.47,0,0,1,1.06-1,2.91,2.91,0,0,1,2-.27,2.42,2.42,0,0,1,.67.23,2.34,2.34,0,0,1,.6.47,2.65,2.65,0,0,1,.47.78,2.42,2.42,0,0,1,1-1.13,2.73,2.73,0,0,1,1.44-.42,2.76,2.76,0,0,1,2.13.76,3.12,3.12,0,0,1,.69,2.17v4.75h-1.06v-4.37a3.16,3.16,0,0,0-.4-1.74,1.62,1.62,0,0,0-1.48-.61,2,2,0,0,0-1,.23,1.9,1.9,0,0,0-.64.62,2.58,2.58,0,0,0-.36.87,4.31,4.31,0,0,0-.12,1v4h-1.05v-4.37a3.25,3.25,0,0,0-.4-1.74,1.65,1.65,0,0,0-1.49-.61,2.67,2.67,0,0,0-.44.07,1.62,1.62,0,0,0-.71.35,2.55,2.55,0,0,0-.67.86,3.69,3.69,0,0,0-.29,1.6v3.84h-1.06Z" transform="translate(-12.33 -43.99)"/><path d="M175,179.72c0-.28,0-.56,0-.83l-.06-.84H176v1.14h0a2.44,2.44,0,0,1,1.07-1,2.94,2.94,0,0,1,1.35-.34,3.07,3.07,0,0,1,.65.07,2.23,2.23,0,0,1,1.26.7,2.45,2.45,0,0,1,.47.78,2.42,2.42,0,0,1,1-1.13,3.06,3.06,0,0,1,3.57.34,3.12,3.12,0,0,1,.69,2.17v4.75h-1.05v-4.37a3.25,3.25,0,0,0-.4-1.74,1.65,1.65,0,0,0-1.49-.61,2,2,0,0,0-1,.23,1.84,1.84,0,0,0-.65.62,2.58,2.58,0,0,0-.36.87,4.31,4.31,0,0,0-.11,1v4H180v-4.37a3.16,3.16,0,0,0-.4-1.74,1.64,1.64,0,0,0-1.49-.61,2.67,2.67,0,0,0-.44.07,1.62,1.62,0,0,0-.71.35,2.42,2.42,0,0,0-.66.86,3.53,3.53,0,0,0-.3,1.6v3.84H175Z" transform="translate(-12.33 -43.99)"/></g><line class="cls-2" x1="22.56" y1="111.45" x2="23.39" y2="29.68"/><line class="cls-2" x1="20.84" y1="111.43" x2="24.29" y2="111.47"/><line class="cls-2" x1="21.67" y1="29.66" x2="25.11" y2="29.7"/><g class="cls-3"><path d="M23.77,138.51v1.15l-9.89-.1,1.77,2.05-.87.72-2.34-2.91v-1Z" transform="translate(-12.33 -43.99)"/><path d="M17.37,131.85v-.59a4.19,4.19,0,0,0-.1-.95,2.32,2.32,0,0,0-.35-.8,1.92,1.92,0,0,0-.65-.54,2.26,2.26,0,0,0-1-.21,1.88,1.88,0,0,0-1.43.54,2.17,2.17,0,0,0-.51,1.54,2.41,2.41,0,0,0,.3,1.27,2.56,2.56,0,0,0,.92.9l-.52,1a3.32,3.32,0,0,1-1.34-1.31,3.68,3.68,0,0,1-.42-1.84,4,4,0,0,1,.2-1.26,3.11,3.11,0,0,1,.58-1,2.86,2.86,0,0,1,.94-.7,3,3,0,0,1,1.26-.25,2.53,2.53,0,0,1,.87.16,3,3,0,0,1,.75.42,2.9,2.9,0,0,1,.58.63,2.7,2.7,0,0,1,.37.74l0-.05a2.54,2.54,0,0,1,.37-.88,3,3,0,0,1,.65-.68,3.24,3.24,0,0,1,.87-.44,3.38,3.38,0,0,1,1-.15,3.35,3.35,0,0,1,1.39.3,3.21,3.21,0,0,1,1,.8,3.49,3.49,0,0,1,.62,1.16,4.6,4.6,0,0,1-.37,3.56,3.27,3.27,0,0,1-1.75,1.37l-.36-1.21a2.38,2.38,0,0,0,1.22-.85,2.74,2.74,0,0,0,.4-1.59,2.32,2.32,0,0,0-.15-.91,2.3,2.3,0,0,0-.44-.76,1.92,1.92,0,0,0-.71-.52,2.29,2.29,0,0,0-.91-.2,2.33,2.33,0,0,0-1.08.23,2,2,0,0,0-.72.63,2.63,2.63,0,0,0-.4.92,4.32,4.32,0,0,0-.13,1.08v.5Z" transform="translate(-12.33 -43.99)"/><path d="M12.42,121.72a3.21,3.21,0,0,1,.58-2,3.77,3.77,0,0,1,1.44-1.15,6.43,6.43,0,0,1,1.9-.54,15.29,15.29,0,0,1,2-.13,13.8,13.8,0,0,1,2,.17,6,6,0,0,1,1.89.58,3.68,3.68,0,0,1,1.41,1.18,3.75,3.75,0,0,1,0,3.94A3.84,3.84,0,0,1,22.12,125a6.52,6.52,0,0,1-1.9.54,13.65,13.65,0,0,1-2,.12,13.88,13.88,0,0,1-2-.16,6.5,6.5,0,0,1-1.89-.58A3.85,3.85,0,0,1,13,123.7,3.2,3.2,0,0,1,12.42,121.72Zm1.06,0A2,2,0,0,0,14,123.2a3,3,0,0,0,1.22.82,5.71,5.71,0,0,0,1.57.36,13.94,13.94,0,0,0,1.5.09c.45,0,.95,0,1.5,0a6.72,6.72,0,0,0,1.58-.33,3.16,3.16,0,0,0,1.24-.8,2.1,2.1,0,0,0,.51-1.46,2.13,2.13,0,0,0-.48-1.47,3.21,3.21,0,0,0-1.23-.82,6.57,6.57,0,0,0-1.56-.36c-.56-.05-1.06-.08-1.51-.08s-.95,0-1.5.05a5.69,5.69,0,0,0-1.57.33,3.09,3.09,0,0,0-1.24.8A2,2,0,0,0,13.48,121.73Z" transform="translate(-12.33 -43.99)"/><path d="M18.22,111.73l-.83,0-.84,0v-1.14H17.7v0a2.53,2.53,0,0,1-1-1.07,3,3,0,0,1-.32-1.36,3.07,3.07,0,0,1,.07-.65,2.2,2.2,0,0,1,.24-.66,2,2,0,0,1,.48-.59,2.4,2.4,0,0,1,.79-.47,2.43,2.43,0,0,1-1.13-1,3.1,3.1,0,0,1,.38-3.58,3.13,3.13,0,0,1,2.17-.66l4.76,0v1.05l-4.37,0A3.18,3.18,0,0,0,18,102a1.63,1.63,0,0,0-.62,1.48,1.92,1.92,0,0,0,.22,1,1.89,1.89,0,0,0,.61.65,2.63,2.63,0,0,0,.87.37,4.17,4.17,0,0,0,1,.12l4,0v1.06l-4.36,0a3.18,3.18,0,0,0-1.75.39,1.64,1.64,0,0,0-.63,1.48,3.61,3.61,0,0,0,.06.44,1.62,1.62,0,0,0,.35.71,2.47,2.47,0,0,0,.86.68,3.58,3.58,0,0,0,1.59.31l3.84,0v1.05Z" transform="translate(-12.33 -43.99)"/><path d="M18.36,98.1l-.84,0-.83,0V97h1.14v0a2.53,2.53,0,0,1-1-1.07,3,3,0,0,1-.32-1.36,3.07,3.07,0,0,1,.07-.65,2.11,2.11,0,0,1,.24-.66,2.14,2.14,0,0,1,.47-.59,2.63,2.63,0,0,1,.79-.47,2.46,2.46,0,0,1-1.12-1,2.71,2.71,0,0,1-.4-1.46,2.75,2.75,0,0,1,.78-2.12A3.12,3.12,0,0,1,19.54,87l4.75,0v1l-4.36,0a3.18,3.18,0,0,0-1.75.38,1.65,1.65,0,0,0-.63,1.48,1.92,1.92,0,0,0,.23,1,1.89,1.89,0,0,0,.61.65,2.67,2.67,0,0,0,.86.37,4.31,4.31,0,0,0,1,.12l4,0v1.06l-4.37,0a3.14,3.14,0,0,0-1.74.38,1.67,1.67,0,0,0-.63,1.49,3.61,3.61,0,0,0,.06.44,1.62,1.62,0,0,0,.35.71,2.64,2.64,0,0,0,.85.68,3.66,3.66,0,0,0,1.6.31l3.84,0v1Z" transform="translate(-12.33 -43.99)"/></g><g class="cls-3"><path d="M130.6,55.52h-1.16V45.63l-2,1.79-.72-.86,2.87-2.37h1Z" transform="translate(-12.33 -43.99)"/><path d="M137.18,49.05h.6a4.26,4.26,0,0,0,.95-.11,2.48,2.48,0,0,0,.79-.36,1.88,1.88,0,0,0,.53-.65,2.06,2.06,0,0,0,.2-1,1.82,1.82,0,0,0-.55-1.42,2.23,2.23,0,0,0-1.54-.5,2.49,2.49,0,0,0-1.27.32,2.42,2.42,0,0,0-.89.93l-1-.51a3.42,3.42,0,0,1,1.3-1.36,3.75,3.75,0,0,1,1.83-.44,4.38,4.38,0,0,1,1.27.19,3.18,3.18,0,0,1,1,.57,2.74,2.74,0,0,1,.71.93,2.83,2.83,0,0,1,.27,1.25,2.33,2.33,0,0,1-.16.88,2.66,2.66,0,0,1-.41.76,3.08,3.08,0,0,1-1.35,1l0,0a2.34,2.34,0,0,1,.88.36,2.95,2.95,0,0,1,1.13,1.51,3.1,3.1,0,0,1,.16,1,3.26,3.26,0,0,1-.28,1.39,2.86,2.86,0,0,1-.79,1,3.49,3.49,0,0,1-1.15.64,4.55,4.55,0,0,1-1.39.22,4.28,4.28,0,0,1-2.18-.55,3.29,3.29,0,0,1-1.39-1.74l1.22-.37a2.35,2.35,0,0,0,.85,1.21,2.8,2.8,0,0,0,1.6.39,2.53,2.53,0,0,0,.91-.16,2.34,2.34,0,0,0,.76-.46,2,2,0,0,0,.51-.71,2.27,2.27,0,0,0,.18-.91,2.21,2.21,0,0,0-.24-1.08,1.91,1.91,0,0,0-.64-.71,2.55,2.55,0,0,0-.92-.4,4.83,4.83,0,0,0-1.08-.12h-.5Z" transform="translate(-12.33 -43.99)"/><path d="M147.26,44a3.24,3.24,0,0,1,2,.55A3.89,3.89,0,0,1,150.4,46a6.7,6.7,0,0,1,.56,1.89,15.36,15.36,0,0,1,.14,2,13.53,13.53,0,0,1-.14,2,6.09,6.09,0,0,1-.56,1.9,3.77,3.77,0,0,1-1.16,1.43,3.75,3.75,0,0,1-3.94,0,3.86,3.86,0,0,1-1.17-1.42,6.45,6.45,0,0,1-.56-1.9,13.08,13.08,0,0,1,0-4,6.44,6.44,0,0,1,.55-1.9,3.86,3.86,0,0,1,1.17-1.42A3.17,3.17,0,0,1,147.26,44Zm0,1a2.05,2.05,0,0,0-1.46.5,3.08,3.08,0,0,0-.81,1.23,5.78,5.78,0,0,0-.34,1.57c-.05.55-.07,1.06-.07,1.5s0,.95.07,1.51a6.18,6.18,0,0,0,.34,1.57,3.3,3.3,0,0,0,.81,1.23,2.09,2.09,0,0,0,1.47.49,2,2,0,0,0,1.46-.5,3.08,3.08,0,0,0,.81-1.23,6.09,6.09,0,0,0,.34-1.57c.05-.55.07-1.05.07-1.5s0-1-.07-1.5a5.71,5.71,0,0,0-.35-1.57,3.17,3.17,0,0,0-.8-1.23A2.09,2.09,0,0,0,147.26,45Z" transform="translate(-12.33 -43.99)"/><path d="M157.31,49.67c0-.27,0-.55,0-.83l-.06-.83h1.14v1.14h0a2.5,2.5,0,0,1,1.06-1,3.12,3.12,0,0,1,1.35-.33,3.74,3.74,0,0,1,.65.06,2.42,2.42,0,0,1,.67.23,2.34,2.34,0,0,1,.6.47,2.85,2.85,0,0,1,.47.79,2.48,2.48,0,0,1,1-1.14,2.79,2.79,0,0,1,1.45-.42,2.73,2.73,0,0,1,2.13.76,3.12,3.12,0,0,1,.69,2.17v4.75h-1V51.12a3.16,3.16,0,0,0-.4-1.74,1.62,1.62,0,0,0-1.48-.61,2,2,0,0,0-1,.23,2,2,0,0,0-.64.62,2.58,2.58,0,0,0-.36.87,4.31,4.31,0,0,0-.12,1v4h-1.06V51.13a3.26,3.26,0,0,0-.4-1.75,1.67,1.67,0,0,0-1.49-.6l-.44.06a1.62,1.62,0,0,0-.71.35,2.5,2.5,0,0,0-.67.87,3.66,3.66,0,0,0-.29,1.6V55.5h-1.05Z" transform="translate(-12.33 -43.99)"/><path d="M170.94,49.67c0-.28,0-.56,0-.84l-.06-.83H172v1.14h0a2.55,2.55,0,0,1,1.06-1,3.12,3.12,0,0,1,1.36-.33,3.72,3.72,0,0,1,.64.06,2.42,2.42,0,0,1,.67.23,2.34,2.34,0,0,1,.6.47,2.85,2.85,0,0,1,.47.79,2.45,2.45,0,0,1,1-1.14,3.06,3.06,0,0,1,3.57.34,3.12,3.12,0,0,1,.69,2.17v4.75h-1.06V51.11a3.15,3.15,0,0,0-.41-1.74,1.62,1.62,0,0,0-1.48-.61,1.92,1.92,0,0,0-1,.24,1.87,1.87,0,0,0-.64.61,2.58,2.58,0,0,0-.36.87,4.31,4.31,0,0,0-.11,1v4H176V51.12a3.17,3.17,0,0,0-.4-1.75,1.66,1.66,0,0,0-1.49-.6l-.44.06a1.62,1.62,0,0,0-.71.35,2.5,2.5,0,0,0-.67.87,3.66,3.66,0,0,0-.29,1.6v3.84H171Z" transform="translate(-12.33 -43.99)"/></g><line class="cls-2" x1="175.34" y1="19.99" x2="93.01" y2="20.34"/><line class="cls-2" x1="175.34" y1="21.04" x2="175.33" y2="18.89"/><line class="cls-2" x1="93.01" y1="21.38" x2="93" y2="19.23"/><g class="cls-4"><path class="cls-5" d="M187.35,76.48v9.67a7.17,7.17,0,0,1-7.17,7.17H114.29a7.17,7.17,0,0,1-7.17-7.17V76.48Z" transform="translate(-12.33 -43.99)"/></g><rect class="cls-5" x="100.75" y="29.45" width="72.04" height="2.81"/><polygon class="cls-5" points="34.32 75.77 111.27 94.95 162.27 94.95 239.69 75.77 34.32 75.77"/><rect class="cls-5" x="87.65" y="100.1" width="97.31" height="7.02"/><polygon class="cls-5" points="116.89 49.34 122.03 67.35 149.41 67.35 156.42 49.34 116.89 49.34"/><rect class="cls-5" x="126.25" y="67.35" width="18.24" height="5.61"/><line class="cls-5" x1="112.91" y1="49.34" x2="112.91" y2="75.54"/><line class="cls-5" x1="116.65" y1="49.57" x2="116.65" y2="75.77"/><line class="cls-5" x1="121.33" y1="49.57" x2="121.33" y2="75.77"/><line class="cls-5" x1="126.25" y1="49.57" x2="126.25" y2="75.77"/><line class="cls-5" x1="131.63" y1="49.57" x2="131.63" y2="75.77"/><line class="cls-5" x1="139.58" y1="49.57" x2="139.58" y2="75.77"/><line class="cls-5" x1="144.49" y1="49.57" x2="144.49" y2="75.77"/><line class="cls-5" x1="149.17" y1="49.57" x2="149.17" y2="75.77"/><line class="cls-5" x1="153.38" y1="49.57" x2="153.38" y2="75.77"/><line class="cls-5" x1="156.42" y1="49.57" x2="156.42" y2="75.77"/><line class="cls-5" x1="160.16" y1="49.57" x2="160.16" y2="75.77"/><line class="cls-5" x1="115.49" y1="94.95" x2="115.49" y2="100.09"/><line class="cls-5" x1="119.46" y1="94.95" x2="119.46" y2="100.09"/><line class="cls-5" x1="132.1" y1="94.95" x2="132.1" y2="100.09"/><line class="cls-5" x1="140.51" y1="94.95" x2="140.51" y2="100.09"/><line class="cls-5" x1="150.8" y1="94.95" x2="150.8" y2="100.09"/><line class="cls-5" x1="154.32" y1="94.95" x2="154.32" y2="100.09"/><line class="cls-5" x1="108.7" y1="107.82" x2="164.6" y2="107.82"/><path class="cls-5" d="M130.81,151.38s3.8,4.07,15.48,4.07h3c11.68,0,15.49-4.07,15.49-4.07" transform="translate(-12.33 -43.99)"/></svg>