<svg xmlns="http://www.w3.org/2000/svg" viewBox="0 0 300 263"><defs><style>.cls-1,.cls-2,.cls-3,.cls-4{fill:none;stroke-linecap:round;}.cls-1,.cls-2{stroke:red;}.cls-1,.cls-2,.cls-4{stroke-linejoin:round;}.cls-1,.cls-3,.cls-4{stroke-width:0.6px;}.cls-3,.cls-4{stroke:#000;}.cls-3{stroke-miterlimit:10;}</style></defs><title>moni-ceiling-wall-2-castiglioni-flos-F3901009-curva-fotometrica</title><g id="numeri_esterni_diagramma" data-name="numeri esterni diagramma"><path d="M148.27,239.2a6.85,6.85,0,0,1,.08-1,3.41,3.41,0,0,1,.3-.95,1.94,1.94,0,0,1,.59-.71,1.57,1.57,0,0,1,.95-.27,1.6,1.6,0,0,1,1,.27,2,2,0,0,1,.59.71,3.1,3.1,0,0,1,.29.95,5.7,5.7,0,0,1,.08,1,5.85,5.85,0,0,1-.08,1,3.13,3.13,0,0,1-.29.94,2,2,0,0,1-.59.71,1.6,1.6,0,0,1-1,.27,1.57,1.57,0,0,1-.95-.27,1.94,1.94,0,0,1-.59-.71,3.45,3.45,0,0,1-.3-.94A7.07,7.07,0,0,1,148.27,239.2Zm.68,0c0,.13,0,.29,0,.46a4.88,4.88,0,0,0,.06.52,2.83,2.83,0,0,0,.13.5,1.65,1.65,0,0,0,.22.44,1.24,1.24,0,0,0,.34.31,1,1,0,0,0,.48.12.9.9,0,0,0,.48-.12,1,1,0,0,0,.34-.31,1.41,1.41,0,0,0,.23-.44,4.07,4.07,0,0,0,.13-.5c0-.18,0-.35.06-.52s0-.33,0-.46,0-.3,0-.47,0-.34-.06-.51a3.8,3.8,0,0,0-.13-.51,1.53,1.53,0,0,0-.23-.44,1,1,0,0,0-.34-.31.9.9,0,0,0-.48-.12,1,1,0,0,0-.48.12,1.24,1.24,0,0,0-.34.31,1.81,1.81,0,0,0-.22.44,2.72,2.72,0,0,0-.13.51,4.43,4.43,0,0,0-.06.51C149,238.9,149,239.06,149,239.2Z"/><path d="M152.83,237.41a1.33,1.33,0,0,1,.08-.45,1.11,1.11,0,0,1,.25-.36,1,1,0,0,1,.36-.24,1.17,1.17,0,0,1,.9,0,1,1,0,0,1,.36.24,1.11,1.11,0,0,1,.25.36,1.31,1.31,0,0,1,0,.9,1.23,1.23,0,0,1-.61.61,1.17,1.17,0,0,1-.9,0,1.23,1.23,0,0,1-.61-.61A1.33,1.33,0,0,1,152.83,237.41Zm.43,0a.79.79,0,0,0,.05.25.68.68,0,0,0,.14.23.66.66,0,0,0,.23.17.73.73,0,0,0,.58,0,.76.76,0,0,0,.23-.17.88.88,0,0,0,.14-.23.65.65,0,0,0,0-.5,1.09,1.09,0,0,0-.14-.23,1,1,0,0,0-.23-.17.73.73,0,0,0-.58,0,.81.81,0,0,0-.23.17.75.75,0,0,0-.19.48Z"/><path d="M203.17,238.76h.21l.43,0a1.15,1.15,0,0,0,.42-.13.77.77,0,0,0,.31-.31.94.94,0,0,0,.13-.51.87.87,0,0,0-.27-.68,1,1,0,0,0-.7-.26,1.28,1.28,0,0,0-.63.16,1.14,1.14,0,0,0-.41.48l-.65-.25a1.48,1.48,0,0,1,.65-.72,2.07,2.07,0,0,1,1-.24,2.25,2.25,0,0,1,.64.09,1.72,1.72,0,0,1,.54.28,1.37,1.37,0,0,1,.37.46,1.48,1.48,0,0,1,.14.65,1.29,1.29,0,0,1-.27.8,1.34,1.34,0,0,1-.7.49v0a1.48,1.48,0,0,1,.85.49,1.37,1.37,0,0,1,.23.43,1.69,1.69,0,0,1,.08.5,1.66,1.66,0,0,1-.15.72,1.57,1.57,0,0,1-.41.51,1.71,1.71,0,0,1-.6.31,2.34,2.34,0,0,1-.71.1,2.18,2.18,0,0,1-1.13-.28,1.61,1.61,0,0,1-.7-.91l.68-.22a1.33,1.33,0,0,0,.41.65,1.3,1.3,0,0,0,.74.19,1.33,1.33,0,0,0,.45-.08,1.11,1.11,0,0,0,.36-.23,1.24,1.24,0,0,0,.25-.35,1.13,1.13,0,0,0,.09-.45,1.07,1.07,0,0,0-.12-.53,1,1,0,0,0-.33-.33,1.23,1.23,0,0,0-.46-.18,2.31,2.31,0,0,0-.52-.06h-.21Z"/><path d="M206.24,239.2a6.85,6.85,0,0,1,.08-1,3.11,3.11,0,0,1,.3-.95,1.94,1.94,0,0,1,.59-.71,1.55,1.55,0,0,1,.95-.27,1.6,1.6,0,0,1,1,.27,2,2,0,0,1,.59.71,3.1,3.1,0,0,1,.29.95,5.7,5.7,0,0,1,.08,1,5.85,5.85,0,0,1-.08,1,3.13,3.13,0,0,1-.29.94,2,2,0,0,1-.59.71,1.6,1.6,0,0,1-1,.27,1.55,1.55,0,0,1-.95-.27,1.94,1.94,0,0,1-.59-.71,3.14,3.14,0,0,1-.3-.94A7.07,7.07,0,0,1,206.24,239.2Zm.67,0c0,.13,0,.29,0,.46a4.88,4.88,0,0,0,.06.52,2.83,2.83,0,0,0,.13.5,1.4,1.4,0,0,0,.22.44,1.24,1.24,0,0,0,.34.31,1,1,0,0,0,.48.12.9.9,0,0,0,.48-.12,1,1,0,0,0,.34-.31,1.41,1.41,0,0,0,.23-.44,4.05,4.05,0,0,0,.12-.5,4.88,4.88,0,0,0,.06-.52,3.86,3.86,0,0,0,0-.46,3.94,3.94,0,0,0,0-.47,4.43,4.43,0,0,0-.06-.51,3.81,3.81,0,0,0-.12-.51,1.53,1.53,0,0,0-.23-.44,1,1,0,0,0-.34-.31.9.9,0,0,0-.48-.12,1,1,0,0,0-.48.12,1.24,1.24,0,0,0-.34.31,1.51,1.51,0,0,0-.22.44,2.72,2.72,0,0,0-.13.51,4.43,4.43,0,0,0-.06.51C206.92,238.9,206.91,239.06,206.91,239.2Z"/><path d="M210.84,237.41a1.13,1.13,0,0,1,.09-.45,1.26,1.26,0,0,1,.24-.36,1.2,1.2,0,0,1,.82-.33,1,1,0,0,1,.44.09,1.12,1.12,0,0,1,.37.24,1.26,1.26,0,0,1,.24.36,1.16,1.16,0,0,1-.24,1.26,1.15,1.15,0,0,1-.37.25,1,1,0,0,1-.44.09,1.13,1.13,0,0,1-.45-.09,1.15,1.15,0,0,1-.37-.25,1.15,1.15,0,0,1-.33-.81Zm.43,0a.61.61,0,0,0,.06.25.68.68,0,0,0,.14.23.72.72,0,0,0,.22.17.73.73,0,0,0,.3.06.72.72,0,0,0,.29-.06.62.62,0,0,0,.22-.17.91.91,0,0,0,.15-.23.65.65,0,0,0,0-.5,1.14,1.14,0,0,0-.15-.23.76.76,0,0,0-.22-.17.72.72,0,0,0-.29-.06.73.73,0,0,0-.3.06.92.92,0,0,0-.22.17.79.79,0,0,0-.14.23A.61.61,0,0,0,211.27,237.41Z"/><path d="M93.6,238.76h.21l.44,0a1.1,1.1,0,0,0,.41-.13.86.86,0,0,0,.32-.31.94.94,0,0,0,.12-.51.87.87,0,0,0-.27-.68,1,1,0,0,0-.7-.26,1.21,1.21,0,0,0-.62.16,1.1,1.1,0,0,0-.42.48l-.65-.25a1.45,1.45,0,0,1,.66-.72,2,2,0,0,1,1-.24,2.32,2.32,0,0,1,.65.09,2,2,0,0,1,.54.28,1.67,1.67,0,0,1,.37.46,1.48,1.48,0,0,1,.13.65,1.29,1.29,0,0,1-.27.8,1.34,1.34,0,0,1-.7.49v0a1.31,1.31,0,0,1,.49.18,1.34,1.34,0,0,1,.36.31,1.37,1.37,0,0,1,.23.43,1.42,1.42,0,0,1,.08.5,1.66,1.66,0,0,1-.15.72,1.57,1.57,0,0,1-.41.51,1.75,1.75,0,0,1-.59.31,2.46,2.46,0,0,1-.72.1,2.18,2.18,0,0,1-1.13-.28,1.56,1.56,0,0,1-.69-.91l.68-.22a1.2,1.2,0,0,0,.41.65,1.27,1.27,0,0,0,.73.19,1.33,1.33,0,0,0,.45-.08,1.11,1.11,0,0,0,.36-.23,1.07,1.07,0,0,0,.25-.35,1.13,1.13,0,0,0,.09-.45,1.07,1.07,0,0,0-.12-.53.87.87,0,0,0-.33-.33,1.17,1.17,0,0,0-.46-.18,2.24,2.24,0,0,0-.52-.06H93.6Z"/><path d="M96.68,239.2a5.7,5.7,0,0,1,.08-1,3.1,3.1,0,0,1,.29-.95,2,2,0,0,1,.59-.71,1.6,1.6,0,0,1,1-.27,1.57,1.57,0,0,1,1,.27,1.94,1.94,0,0,1,.59.71,3.41,3.41,0,0,1,.3.95,6.85,6.85,0,0,1,.08,1,7.07,7.07,0,0,1-.08,1,3.45,3.45,0,0,1-.3.94,1.94,1.94,0,0,1-.59.71,1.57,1.57,0,0,1-1,.27,1.6,1.6,0,0,1-1-.27,2,2,0,0,1-.59-.71,3.13,3.13,0,0,1-.29-.94A5.85,5.85,0,0,1,96.68,239.2Zm.67,0c0,.13,0,.29,0,.46a4.88,4.88,0,0,0,.06.52,4.07,4.07,0,0,0,.13.5,1.41,1.41,0,0,0,.23.44,1,1,0,0,0,.34.31.9.9,0,0,0,.48.12,1,1,0,0,0,.48-.12,1.24,1.24,0,0,0,.34-.31,1.65,1.65,0,0,0,.22-.44,2.83,2.83,0,0,0,.13-.5,4.88,4.88,0,0,0,.06-.52c0-.17,0-.33,0-.46s0-.3,0-.47a4.43,4.43,0,0,0-.06-.51,2.72,2.72,0,0,0-.13-.51,1.81,1.81,0,0,0-.22-.44,1.24,1.24,0,0,0-.34-.31,1,1,0,0,0-.48-.12.9.9,0,0,0-.48.12,1,1,0,0,0-.34.31,1.53,1.53,0,0,0-.23.44,3.8,3.8,0,0,0-.13.51,4.43,4.43,0,0,0-.06.51C97.35,238.9,97.35,239.06,97.35,239.2Z"/><path d="M101.28,237.41a1.33,1.33,0,0,1,.08-.45,1.11,1.11,0,0,1,.25-.36,1,1,0,0,1,.36-.24,1.17,1.17,0,0,1,.9,0,1,1,0,0,1,.36.24,1.11,1.11,0,0,1,.25.36,1.31,1.31,0,0,1,0,.9,1.23,1.23,0,0,1-.61.61,1.17,1.17,0,0,1-.9,0,1.23,1.23,0,0,1-.61-.61A1.33,1.33,0,0,1,101.28,237.41Zm.43,0a.79.79,0,0,0,.05.25.68.68,0,0,0,.14.23.76.76,0,0,0,.23.17.73.73,0,0,0,.58,0,.66.66,0,0,0,.23-.17.68.68,0,0,0,.14-.23.71.71,0,0,0-.14-.73.81.81,0,0,0-.23-.17.73.73,0,0,0-.58,0,1,1,0,0,0-.23.17.75.75,0,0,0-.19.48Z"/><path d="M249.93,137.18h0a1.24,1.24,0,0,1-.37.12,1.84,1.84,0,0,1-.39,0,1.91,1.91,0,0,1-.68-.12,1.58,1.58,0,0,1-.54-.37,1.63,1.63,0,0,1-.36-.56,2.05,2.05,0,0,1-.13-.72,1.79,1.79,0,0,1,.15-.75,1.48,1.48,0,0,1,.4-.55,1.79,1.79,0,0,1,.6-.35,2,2,0,0,1,.75-.13,2.11,2.11,0,0,1,.75.13,1.79,1.79,0,0,1,.6.35,1.59,1.59,0,0,1,.4.55,1.79,1.79,0,0,1,.14.75,2.15,2.15,0,0,1,0,.45,1.68,1.68,0,0,1-.11.4,2.59,2.59,0,0,1-.17.38l-.21.36-1.51,2.39h-.78Zm-.59-.42a1.28,1.28,0,0,0,.48-.09,1,1,0,0,0,.39-.24,1.23,1.23,0,0,0,.26-.37,1.43,1.43,0,0,0,0-1,1.1,1.1,0,0,0-.65-.62,1.48,1.48,0,0,0-1,0,1.28,1.28,0,0,0-.39.24,1.12,1.12,0,0,0-.26.38,1.3,1.3,0,0,0,0,1,1.08,1.08,0,0,0,.26.37,1,1,0,0,0,.39.24A1.28,1.28,0,0,0,249.34,136.76Z"/><path d="M251.82,136.71a7.07,7.07,0,0,1,.08-1,3.19,3.19,0,0,1,.29-1,2,2,0,0,1,.59-.7,1.54,1.54,0,0,1,1-.28,1.49,1.49,0,0,1,.95.28,1.91,1.91,0,0,1,.59.7,2.94,2.94,0,0,1,.3,1,6.29,6.29,0,0,1,0,2,2.94,2.94,0,0,1-.3.95,1.91,1.91,0,0,1-.59.7,1.49,1.49,0,0,1-.95.28,1.54,1.54,0,0,1-1-.28,2,2,0,0,1-.59-.7,3.19,3.19,0,0,1-.29-.95A7.07,7.07,0,0,1,251.82,136.71Zm.67,0c0,.14,0,.29,0,.46a4.6,4.6,0,0,0,.06.52,4.7,4.7,0,0,0,.12.51,2,2,0,0,0,.23.44,1,1,0,0,0,.34.31,1,1,0,0,0,.48.11,1.06,1.06,0,0,0,.48-.11,1.24,1.24,0,0,0,.34-.31,1.65,1.65,0,0,0,.22-.44,3.18,3.18,0,0,0,.13-.51,4.6,4.6,0,0,0,.06-.52c0-.17,0-.32,0-.46s0-.29,0-.46a4.6,4.6,0,0,0-.06-.52,3.18,3.18,0,0,0-.13-.51,1.65,1.65,0,0,0-.22-.44,1.24,1.24,0,0,0-.34-.31,1.06,1.06,0,0,0-.48-.11,1,1,0,0,0-.48.11,1,1,0,0,0-.34.31,2,2,0,0,0-.23.44,4.7,4.7,0,0,0-.12.51,4.6,4.6,0,0,0-.06.52C252.5,136.42,252.49,136.57,252.49,136.71Z"/><path d="M256.42,134.93a1.13,1.13,0,0,1,.09-.45,1.31,1.31,0,0,1,.24-.37,1.18,1.18,0,0,1,.37-.24,1,1,0,0,1,.44-.09,1.13,1.13,0,0,1,.45.09,1.06,1.06,0,0,1,.61.61,1.13,1.13,0,0,1,.09.45,1,1,0,0,1-.09.44,1.06,1.06,0,0,1-.61.61,1.13,1.13,0,0,1-.45.09,1,1,0,0,1-.44-.09,1.18,1.18,0,0,1-.37-.24,1.31,1.31,0,0,1-.24-.37A1,1,0,0,1,256.42,134.93Zm.43,0a.69.69,0,0,0,0,.24,1,1,0,0,0,.15.24.73.73,0,0,0,.51.23.54.54,0,0,0,.29-.07.63.63,0,0,0,.23-.16.72.72,0,0,0,.14-.24.52.52,0,0,0,0-.24.56.56,0,0,0,0-.25.59.59,0,0,0-.14-.23.74.74,0,0,0-.52-.24.73.73,0,0,0-.29.07.62.62,0,0,0-.22.17.76.76,0,0,0-.15.23A.74.74,0,0,0,256.85,134.93Z"/><path d="M41.57,137.18h0a1.34,1.34,0,0,1-.37.12,2,2,0,0,1-.39,0,1.92,1.92,0,0,1-.69-.12,1.58,1.58,0,0,1-.54-.37,1.8,1.8,0,0,1-.36-.56,2.05,2.05,0,0,1-.13-.72,1.79,1.79,0,0,1,.15-.75,1.48,1.48,0,0,1,.4-.55,1.79,1.79,0,0,1,.6-.35,2.23,2.23,0,0,1,1.5,0,1.79,1.79,0,0,1,.6.35,1.48,1.48,0,0,1,.4.55,1.79,1.79,0,0,1,.15.75,3.14,3.14,0,0,1,0,.45,2.34,2.34,0,0,1-.12.4,1.84,1.84,0,0,1-.17.38,3.35,3.35,0,0,1-.21.36l-1.5,2.39h-.79Zm-.59-.42a1.28,1.28,0,0,0,.48-.09,1,1,0,0,0,.39-.24,1.23,1.23,0,0,0,.26-.37,1.3,1.3,0,0,0,0-1,1.1,1.1,0,0,0-.65-.62,1.48,1.48,0,0,0-1,0,1.1,1.1,0,0,0-.65.62,1.43,1.43,0,0,0,0,1,1.23,1.23,0,0,0,.26.37,1,1,0,0,0,.39.24A1.28,1.28,0,0,0,41,136.76Z"/><path d="M43.46,136.71a7.07,7.07,0,0,1,.08-1,2.94,2.94,0,0,1,.3-1,1.91,1.91,0,0,1,.59-.7,1.49,1.49,0,0,1,1-.28,1.54,1.54,0,0,1,1,.28,2,2,0,0,1,.59.7,3.19,3.19,0,0,1,.29,1,6.29,6.29,0,0,1,0,2,3.19,3.19,0,0,1-.29.95,2,2,0,0,1-.59.7,1.54,1.54,0,0,1-1,.28,1.49,1.49,0,0,1-1-.28,1.91,1.91,0,0,1-.59-.7,2.94,2.94,0,0,1-.3-.95A7.07,7.07,0,0,1,43.46,136.71Zm.67,0c0,.14,0,.29,0,.46a4.6,4.6,0,0,0,.06.52,3.18,3.18,0,0,0,.13.51,1.65,1.65,0,0,0,.22.44,1.12,1.12,0,0,0,.34.31,1.1,1.1,0,0,0,1,0,1.12,1.12,0,0,0,.34-.31,2,2,0,0,0,.23-.44,4.7,4.7,0,0,0,.12-.51,4.6,4.6,0,0,0,.06-.52c0-.17,0-.32,0-.46s0-.29,0-.46a4.6,4.6,0,0,0-.06-.52,4.7,4.7,0,0,0-.12-.51,2,2,0,0,0-.23-.44,1.12,1.12,0,0,0-.34-.31,1.1,1.1,0,0,0-1,0,1.12,1.12,0,0,0-.34.31,1.65,1.65,0,0,0-.22.44,3.18,3.18,0,0,0-.13.51,4.6,4.6,0,0,0-.06.52C44.14,136.42,44.13,136.57,44.13,136.71Z"/><path d="M48.06,134.93a1.13,1.13,0,0,1,.09-.45,1.06,1.06,0,0,1,.61-.61,1.13,1.13,0,0,1,.45-.09,1.08,1.08,0,0,1,.44.09,1.06,1.06,0,0,1,.61.61,1.13,1.13,0,0,1,.09.45,1,1,0,0,1-.09.44,1.06,1.06,0,0,1-.61.61,1.08,1.08,0,0,1-.44.09,1.13,1.13,0,0,1-.45-.09,1.06,1.06,0,0,1-.61-.61A1,1,0,0,1,48.06,134.93Zm.43,0a.53.53,0,0,0,.06.24.72.72,0,0,0,.14.24.69.69,0,0,0,.22.16.6.6,0,0,0,.3.07.73.73,0,0,0,.51-.23,1,1,0,0,0,.15-.24.69.69,0,0,0,.05-.24.74.74,0,0,0-.05-.25.76.76,0,0,0-.15-.23.62.62,0,0,0-.22-.17.73.73,0,0,0-.29-.07.73.73,0,0,0-.3.07.72.72,0,0,0-.22.17.59.59,0,0,0-.14.23A.57.57,0,0,0,48.49,134.93Z"/><path d="M148.37,38.51h-.68v-4.8h0l-1,.85-.4-.48,1.52-1.24h.59Z"/><path d="M150.49,34.23a1.48,1.48,0,0,1,.13-.61,1.2,1.2,0,0,1,.34-.46,1.44,1.44,0,0,1,.51-.3,1.92,1.92,0,0,1,1.28,0,1.44,1.44,0,0,1,.51.3,1.2,1.2,0,0,1,.34.46,1.33,1.33,0,0,1,.13.61,1.16,1.16,0,0,1-.07.4,1.41,1.41,0,0,1-.18.37,1.33,1.33,0,0,1-.29.29,1.18,1.18,0,0,1-.39.19h0a1.44,1.44,0,0,1,.46.19,1.35,1.35,0,0,1,.35.32,1.42,1.42,0,0,1,.23.44,1.7,1.7,0,0,1,.08.51,1.74,1.74,0,0,1-.14.69,1.43,1.43,0,0,1-.39.52,1.47,1.47,0,0,1-.57.33,2.35,2.35,0,0,1-1.42,0,1.47,1.47,0,0,1-.57-.33,1.55,1.55,0,0,1-.39-.52,1.74,1.74,0,0,1-.14-.69,1.7,1.7,0,0,1,.08-.51,1.67,1.67,0,0,1,.23-.44,1.35,1.35,0,0,1,.35-.32,1.44,1.44,0,0,1,.46-.19h0a1.18,1.18,0,0,1-.39-.19,1.33,1.33,0,0,1-.29-.29,1.41,1.41,0,0,1-.18-.37A1.46,1.46,0,0,1,150.49,34.23ZM151,36.9a1.18,1.18,0,0,0,.09.46,1.07,1.07,0,0,0,.25.35,1,1,0,0,0,.36.23,1.12,1.12,0,0,0,.88,0,1,1,0,0,0,.36-.23,1.07,1.07,0,0,0,.25-.35,1.18,1.18,0,0,0,.09-.46,1.14,1.14,0,0,0-.09-.46,1.13,1.13,0,0,0-.61-.58,1.12,1.12,0,0,0-.88,0,1.13,1.13,0,0,0-.61.58A1.14,1.14,0,0,0,151,36.9Zm.2-2.64a.88.88,0,0,0,.26.67,1,1,0,0,0,1.36,0,1,1,0,0,0,0-1.34,1,1,0,0,0-1.36,0A.88.88,0,0,0,151.17,34.26Z"/><path d="M154.64,35.68a7,7,0,0,1,.08-1,3.1,3.1,0,0,1,.29-1,2,2,0,0,1,.59-.71,1.6,1.6,0,0,1,1-.27,1.55,1.55,0,0,1,.95.27,1.94,1.94,0,0,1,.59.71,2.86,2.86,0,0,1,.3,1,7,7,0,0,1,.08,1,7.07,7.07,0,0,1-.08,1,2.88,2.88,0,0,1-.3.94,1.94,1.94,0,0,1-.59.71,1.55,1.55,0,0,1-.95.27,1.6,1.6,0,0,1-1-.27,2,2,0,0,1-.59-.71,3.13,3.13,0,0,1-.29-.94A7.07,7.07,0,0,1,154.64,35.68Zm.67,0c0,.13,0,.29,0,.46a4.88,4.88,0,0,0,.06.52,4.05,4.05,0,0,0,.12.5,1.66,1.66,0,0,0,.23.44,1.12,1.12,0,0,0,.34.31,1,1,0,0,0,1,0,1.12,1.12,0,0,0,.34-.31,1.4,1.4,0,0,0,.22-.44,2.83,2.83,0,0,0,.13-.5,4.88,4.88,0,0,0,.06-.52c0-.17,0-.33,0-.46s0-.3,0-.47a4.43,4.43,0,0,0-.06-.51,2.72,2.72,0,0,0-.13-.51,1.51,1.51,0,0,0-.22-.44,1.12,1.12,0,0,0-.34-.31,1,1,0,0,0-1,0,1.12,1.12,0,0,0-.34.31,1.83,1.83,0,0,0-.23.44,3.81,3.81,0,0,0-.12.51,4.43,4.43,0,0,0-.06.51C155.32,35.38,155.31,35.54,155.31,35.68Z"/><path d="M159.24,33.89a1.15,1.15,0,0,1,.33-.81,1,1,0,0,1,.37-.24,1,1,0,0,1,.44-.09,1.15,1.15,0,0,1,.82,2,1.15,1.15,0,0,1-.37.25,1.13,1.13,0,0,1-.45.09,1.15,1.15,0,0,1-.81-.34,1.15,1.15,0,0,1-.33-.81Zm.43,0a.79.79,0,0,0,.05.25,1.14,1.14,0,0,0,.15.23.62.62,0,0,0,.22.17.72.72,0,0,0,.29.06.68.68,0,0,0,.52-.23.79.79,0,0,0,.14-.23.65.65,0,0,0,0-.5.79.79,0,0,0-.14-.23.81.81,0,0,0-.23-.17.65.65,0,0,0-.29-.06.72.72,0,0,0-.29.06.76.76,0,0,0-.22.17,1.14,1.14,0,0,0-.15.23A.79.79,0,0,0,159.67,33.89Z"/><path d="M203.18,38.51h-.68v-4.8h0l-1,.85-.4-.48,1.52-1.24h.59Z"/><path d="M208.49,33.47h-2.31l0,1.53a1.08,1.08,0,0,1,.36-.11l.37,0a2,2,0,0,1,.74.14,1.61,1.61,0,0,1,.57.39,1.9,1.9,0,0,1,.37.59,2,2,0,0,1,.13.74,2,2,0,0,1-.15.78,1.74,1.74,0,0,1-.41.59,1.91,1.91,0,0,1-.61.38,2.2,2.2,0,0,1-.78.13,1.73,1.73,0,0,1-1-.28,2,2,0,0,1-.63-.75l.67-.25a1.31,1.31,0,0,0,.42.51,1.1,1.1,0,0,0,.64.2,1.28,1.28,0,0,0,.48-.09,1.26,1.26,0,0,0,.38-.27,1.15,1.15,0,0,0,.26-.41,1.53,1.53,0,0,0,.1-.54,1.38,1.38,0,0,0-.11-.55,1.08,1.08,0,0,0-.3-.4,1.26,1.26,0,0,0-.44-.25,1.67,1.67,0,0,0-.55-.08,1.84,1.84,0,0,0-.6.1,2.58,2.58,0,0,0-.56.25l.06-2.95h3Z"/><path d="M209.45,35.68a7,7,0,0,1,.08-1,3.1,3.1,0,0,1,.29-1,2,2,0,0,1,.59-.71,1.6,1.6,0,0,1,1-.27,1.55,1.55,0,0,1,.95.27,1.94,1.94,0,0,1,.59.71,2.86,2.86,0,0,1,.3,1,7,7,0,0,1,.08,1,7.07,7.07,0,0,1-.08,1,2.88,2.88,0,0,1-.3.94,1.94,1.94,0,0,1-.59.71,1.55,1.55,0,0,1-.95.27,1.6,1.6,0,0,1-1-.27,2,2,0,0,1-.59-.71,3.13,3.13,0,0,1-.29-.94A7.07,7.07,0,0,1,209.45,35.68Zm.67,0c0,.13,0,.29,0,.46a4.88,4.88,0,0,0,.06.52,4.05,4.05,0,0,0,.12.5,1.66,1.66,0,0,0,.23.44,1,1,0,0,0,.34.31.9.9,0,0,0,.48.12,1,1,0,0,0,.48-.12,1.24,1.24,0,0,0,.34-.31,1.4,1.4,0,0,0,.22-.44,2.83,2.83,0,0,0,.13-.5,4.88,4.88,0,0,0,.06-.52c0-.17,0-.33,0-.46s0-.3,0-.47a4.43,4.43,0,0,0-.06-.51,2.72,2.72,0,0,0-.13-.51,1.51,1.51,0,0,0-.22-.44,1.24,1.24,0,0,0-.34-.31,1,1,0,0,0-.48-.12.9.9,0,0,0-.48.12,1,1,0,0,0-.34.31,1.83,1.83,0,0,0-.23.44,3.81,3.81,0,0,0-.12.51,4.43,4.43,0,0,0-.06.51C210.13,35.38,210.12,35.54,210.12,35.68Z"/><path d="M214.05,33.89a1.15,1.15,0,0,1,.33-.81,1,1,0,0,1,.37-.24,1,1,0,0,1,.44-.09,1.13,1.13,0,0,1,.45.09,1,1,0,0,1,.36.24,1,1,0,0,1,.25.36,1.17,1.17,0,0,1,0,.9,1.23,1.23,0,0,1-.61.61,1.13,1.13,0,0,1-.45.09,1.15,1.15,0,0,1-.81-.34,1.15,1.15,0,0,1-.33-.81Zm.43,0a.79.79,0,0,0,.05.25,1.14,1.14,0,0,0,.15.23.62.62,0,0,0,.22.17.72.72,0,0,0,.29.06.68.68,0,0,0,.52-.23.79.79,0,0,0,.14-.23.65.65,0,0,0,0-.5.79.79,0,0,0-.14-.23.81.81,0,0,0-.23-.17.65.65,0,0,0-.29-.06.72.72,0,0,0-.29.06.76.76,0,0,0-.22.17,1.14,1.14,0,0,0-.15.23A.79.79,0,0,0,214.48,33.89Z"/><path d="M93.61,38.51h-.67v-4.8h0l-1,.85-.4-.48L93,32.84h.58Z"/><path d="M98.92,33.47H96.61l0,1.53a1,1,0,0,1,.35-.11l.37,0a1.91,1.91,0,0,1,.74.14,1.65,1.65,0,0,1,.58.39A1.71,1.71,0,0,1,99,36a2,2,0,0,1,.13.74,2,2,0,0,1-.15.78,1.71,1.71,0,0,1-.4.59,2,2,0,0,1-.62.38,2.15,2.15,0,0,1-.77.13,1.78,1.78,0,0,1-1.05-.28,1.85,1.85,0,0,1-.62-.75l.67-.25a1.16,1.16,0,0,0,.42.51,1.05,1.05,0,0,0,.63.2,1.28,1.28,0,0,0,.48-.09,1.23,1.23,0,0,0,.64-.68,1.33,1.33,0,0,0,.1-.54,1.38,1.38,0,0,0-.11-.55,1.18,1.18,0,0,0-.29-.4,1.41,1.41,0,0,0-.45-.25,1.63,1.63,0,0,0-.55-.08,1.78,1.78,0,0,0-.59.1,2.58,2.58,0,0,0-.56.25l0-2.95h3Z"/><path d="M99.88,35.68a7,7,0,0,1,.08-1,3.11,3.11,0,0,1,.3-1,1.94,1.94,0,0,1,.59-.71,1.55,1.55,0,0,1,1-.27,1.6,1.6,0,0,1,1,.27,2,2,0,0,1,.59.71,3.1,3.1,0,0,1,.29,1,5.77,5.77,0,0,1,.08,1,5.85,5.85,0,0,1-.08,1,3.13,3.13,0,0,1-.29.94,2,2,0,0,1-.59.71,1.6,1.6,0,0,1-1,.27,1.55,1.55,0,0,1-1-.27,1.94,1.94,0,0,1-.59-.71,3.14,3.14,0,0,1-.3-.94A7.07,7.07,0,0,1,99.88,35.68Zm.67,0c0,.13,0,.29,0,.46a4.88,4.88,0,0,0,.06.52,2.83,2.83,0,0,0,.13.5,1.4,1.4,0,0,0,.22.44,1.24,1.24,0,0,0,.34.31,1,1,0,0,0,.48.12.9.9,0,0,0,.48-.12,1,1,0,0,0,.34-.31,1.41,1.41,0,0,0,.23-.44,4.05,4.05,0,0,0,.12-.5,4.88,4.88,0,0,0,.06-.52c0-.17,0-.33,0-.46s0-.3,0-.47a4.43,4.43,0,0,0-.06-.51,3.81,3.81,0,0,0-.12-.51,1.53,1.53,0,0,0-.23-.44,1,1,0,0,0-.34-.31.9.9,0,0,0-.48-.12,1,1,0,0,0-.48.12,1.24,1.24,0,0,0-.34.31,1.51,1.51,0,0,0-.22.44,2.72,2.72,0,0,0-.13.51,4.43,4.43,0,0,0-.06.51C100.56,35.38,100.55,35.54,100.55,35.68Z"/><path d="M104.48,33.89a1.15,1.15,0,0,1,1.15-1.14,1,1,0,0,1,.44.09,1.12,1.12,0,0,1,.37.24,1.16,1.16,0,0,1,0,1.62,1.15,1.15,0,0,1-.37.25,1,1,0,0,1-.44.09,1.13,1.13,0,0,1-.45-.09,1.15,1.15,0,0,1-.37-.25,1.15,1.15,0,0,1-.33-.81Zm.43,0a.61.61,0,0,0,.06.25.79.79,0,0,0,.14.23.72.72,0,0,0,.22.17.73.73,0,0,0,.3.06.72.72,0,0,0,.29-.06.62.62,0,0,0,.22-.17,1.14,1.14,0,0,0,.15-.23.65.65,0,0,0,0-.5,1.14,1.14,0,0,0-.15-.23.76.76,0,0,0-.22-.17.72.72,0,0,0-.29-.06.73.73,0,0,0-.3.06.92.92,0,0,0-.22.17.79.79,0,0,0-.14.23A.61.61,0,0,0,104.91,33.89Z"/><path d="M248.75,192.45v0a1.35,1.35,0,0,1,.37-.13,2,2,0,0,1,.39,0,1.73,1.73,0,0,1,.69.13,1.42,1.42,0,0,1,.54.36,1.85,1.85,0,0,1,.36.57,2,2,0,0,1,.12.72,1.78,1.78,0,0,1-.14.74,1.74,1.74,0,0,1-.4.56,2,2,0,0,1-.6.35,2.36,2.36,0,0,1-.75.12,2.27,2.27,0,0,1-.75-.12,2,2,0,0,1-.6-.35,1.6,1.6,0,0,1-.4-.56,1.78,1.78,0,0,1-.15-.74,2.24,2.24,0,0,1,.15-.86,5.28,5.28,0,0,1,.39-.74l1.5-2.39h.79Zm.59.43a1.23,1.23,0,0,0-.87.32,1,1,0,0,0-.26.38,1.31,1.31,0,0,0-.1.5,1.35,1.35,0,0,0,.1.5,1.08,1.08,0,0,0,.26.37,1,1,0,0,0,.39.24,1.32,1.32,0,0,0,1,0,1,1,0,0,0,.39-.24,1.23,1.23,0,0,0,.26-.37,1.35,1.35,0,0,0,.09-.5,1.31,1.31,0,0,0-.09-.5,1.16,1.16,0,0,0-.26-.38,1.23,1.23,0,0,0-.87-.32Z"/><path d="M251.82,192.92a7.07,7.07,0,0,1,.08-1,3.13,3.13,0,0,1,.29-.94,2,2,0,0,1,.59-.71,1.6,1.6,0,0,1,1-.27,1.55,1.55,0,0,1,.95.27,1.94,1.94,0,0,1,.59.71,2.88,2.88,0,0,1,.3.94,7.07,7.07,0,0,1,.08,1,7,7,0,0,1-.08,1,2.86,2.86,0,0,1-.3,1,1.94,1.94,0,0,1-.59.71,1.55,1.55,0,0,1-.95.27,1.6,1.6,0,0,1-1-.27,2,2,0,0,1-.59-.71,3.1,3.1,0,0,1-.29-1A7,7,0,0,1,251.82,192.92Zm.67,0c0,.14,0,.3,0,.47a4.43,4.43,0,0,0,.06.51,3.81,3.81,0,0,0,.12.51,1.83,1.83,0,0,0,.23.44,1,1,0,0,0,.34.31.9.9,0,0,0,.48.12,1,1,0,0,0,.48-.12,1.24,1.24,0,0,0,.34-.31,1.51,1.51,0,0,0,.22-.44,2.72,2.72,0,0,0,.13-.51,4.43,4.43,0,0,0,.06-.51c0-.17,0-.33,0-.47s0-.29,0-.46a4.88,4.88,0,0,0-.06-.52,2.83,2.83,0,0,0-.13-.5,1.4,1.4,0,0,0-.22-.44,1.1,1.1,0,0,0-.34-.31,1,1,0,0,0-.48-.12.9.9,0,0,0-.48.12.92.92,0,0,0-.34.31,1.66,1.66,0,0,0-.23.44,4.05,4.05,0,0,0-.12.5,4.88,4.88,0,0,0-.06.52C252.5,192.63,252.49,192.79,252.49,192.92Z"/><path d="M256.42,191.14a1.15,1.15,0,0,1,.33-.81,1.05,1.05,0,0,1,.37-.25,1.23,1.23,0,0,1,.44-.08,1.33,1.33,0,0,1,.45.08,1.15,1.15,0,0,1,.37.25,1.16,1.16,0,0,1,0,1.62,1.15,1.15,0,0,1-.37.25,1.33,1.33,0,0,1-.45.08,1.23,1.23,0,0,1-.44-.08,1.05,1.05,0,0,1-.37-.25,1.15,1.15,0,0,1-.33-.81Zm.43,0a.79.79,0,0,0,0,.25,1.14,1.14,0,0,0,.15.23.62.62,0,0,0,.22.17.72.72,0,0,0,.29.06.68.68,0,0,0,.52-.23.79.79,0,0,0,.14-.23.65.65,0,0,0,0-.5.79.79,0,0,0-.14-.23.68.68,0,0,0-.52-.23.72.72,0,0,0-.29.06.62.62,0,0,0-.22.17,1.14,1.14,0,0,0-.15.23A.79.79,0,0,0,256.85,191.14Z"/><path d="M250,81.22h-.67v-4.8h0l-1,.86-.4-.49,1.52-1.23H250Z"/><path d="M251.92,80.45l2.13-2.08c.13-.12.25-.24.35-.35a2.16,2.16,0,0,0,.25-.32,1.09,1.09,0,0,0,.15-.33,1.38,1.38,0,0,0,0-.37,1,1,0,0,0-.08-.4.84.84,0,0,0-.22-.3.78.78,0,0,0-.33-.19,1.05,1.05,0,0,0-.4-.07,1,1,0,0,0-.71.25,1.08,1.08,0,0,0-.36.65l-.73-.06a1.83,1.83,0,0,1,.21-.61,1.41,1.41,0,0,1,.39-.45,2,2,0,0,1,.53-.27,2.25,2.25,0,0,1,.64-.09,2.41,2.41,0,0,1,.67.1,1.92,1.92,0,0,1,.55.29,1.44,1.44,0,0,1,.51,1.15,2,2,0,0,1-.09.61,2,2,0,0,1-.25.5,3.47,3.47,0,0,1-.35.43l-.41.4-1.75,1.64v0h2.89v.62h-3.64Z"/><path d="M256.27,78.39a5.85,5.85,0,0,1,.08-1,3.19,3.19,0,0,1,.29-1,2,2,0,0,1,.59-.7,1.54,1.54,0,0,1,1-.28,1.51,1.51,0,0,1,.95.28,1.91,1.91,0,0,1,.59.7,3.2,3.2,0,0,1,.3,1,6.29,6.29,0,0,1,0,2,3.2,3.2,0,0,1-.3,1,1.91,1.91,0,0,1-.59.7,1.51,1.51,0,0,1-.95.28,1.54,1.54,0,0,1-1-.28,2,2,0,0,1-.59-.7,3.19,3.19,0,0,1-.29-1A5.85,5.85,0,0,1,256.27,78.39Zm.67,0a3.78,3.78,0,0,0,0,.46c0,.17,0,.35.05.52a4.77,4.77,0,0,0,.13.51,1.67,1.67,0,0,0,.23.44,1,1,0,0,0,.34.31,1,1,0,0,0,.48.11,1.06,1.06,0,0,0,.48-.11,1.24,1.24,0,0,0,.34-.31,2,2,0,0,0,.22-.44,3.18,3.18,0,0,0,.13-.51,4.6,4.6,0,0,0,.06-.52c0-.17,0-.32,0-.46s0-.29,0-.46a4.35,4.35,0,0,0-.06-.52,3.18,3.18,0,0,0-.13-.51,2,2,0,0,0-.22-.44,1.24,1.24,0,0,0-.34-.31,1.06,1.06,0,0,0-.48-.11,1,1,0,0,0-.48.11,1,1,0,0,0-.34.31,1.67,1.67,0,0,0-.23.44,4.77,4.77,0,0,0-.13.51c0,.17,0,.34-.05.52A3.78,3.78,0,0,0,256.94,78.39Z"/><path d="M260.87,76.61a1.13,1.13,0,0,1,.09-.45,1,1,0,0,1,.24-.37,1.16,1.16,0,0,1,1.62,0,1.15,1.15,0,0,1,.25.37,1.13,1.13,0,0,1,.09.45,1,1,0,0,1-.09.44,1.15,1.15,0,0,1-.25.37,1.16,1.16,0,0,1-1.62,0,1,1,0,0,1-.24-.37A1,1,0,0,1,260.87,76.61Zm.43,0a.69.69,0,0,0,.05.24.75.75,0,0,0,.15.24.6.6,0,0,0,.22.16.64.64,0,0,0,.58,0,.63.63,0,0,0,.23-.16.72.72,0,0,0,.14-.24.52.52,0,0,0,.05-.24.56.56,0,0,0-.05-.25.59.59,0,0,0-.14-.23.66.66,0,0,0-.23-.17.64.64,0,0,0-.58,0,.62.62,0,0,0-.22.17.61.61,0,0,0-.15.23A.74.74,0,0,0,261.3,76.61Z"/><path d="M40.39,192.45v0a1.42,1.42,0,0,1,.38-.13,1.84,1.84,0,0,1,.39,0,1.72,1.72,0,0,1,.68.13,1.42,1.42,0,0,1,.54.36,1.85,1.85,0,0,1,.36.57,2,2,0,0,1,.13.72,1.78,1.78,0,0,1-.15.74,1.6,1.6,0,0,1-.4.56,2,2,0,0,1-.6.35,2.4,2.4,0,0,1-1.5,0,2,2,0,0,1-.6-.35,1.6,1.6,0,0,1-.4-.56,1.78,1.78,0,0,1-.15-.74,2.24,2.24,0,0,1,.16-.86,5.19,5.19,0,0,1,.38-.74l1.5-2.39h.79Zm.59.43a1.23,1.23,0,0,0-.87.32,1.16,1.16,0,0,0-.26.38,1.31,1.31,0,0,0-.09.5,1.35,1.35,0,0,0,.09.5,1.23,1.23,0,0,0,.26.37,1,1,0,0,0,.39.24,1.32,1.32,0,0,0,1,0,1,1,0,0,0,.39-.24,1.23,1.23,0,0,0,.26-.37,1.35,1.35,0,0,0,.1-.5,1.31,1.31,0,0,0-.1-.5,1.16,1.16,0,0,0-.26-.38,1.23,1.23,0,0,0-.87-.32Z"/><path d="M43.46,192.92a7.07,7.07,0,0,1,.08-1,2.88,2.88,0,0,1,.3-.94,1.94,1.94,0,0,1,.59-.71,1.55,1.55,0,0,1,1-.27,1.6,1.6,0,0,1,1,.27,2,2,0,0,1,.59.71,3.13,3.13,0,0,1,.29.94,7.07,7.07,0,0,1,.08,1,7,7,0,0,1-.08,1,3.1,3.1,0,0,1-.29,1,2,2,0,0,1-.59.71,1.6,1.6,0,0,1-1,.27,1.55,1.55,0,0,1-1-.27,1.94,1.94,0,0,1-.59-.71,2.86,2.86,0,0,1-.3-1A7,7,0,0,1,43.46,192.92Zm.67,0c0,.14,0,.3,0,.47a4.43,4.43,0,0,0,.06.51,2.72,2.72,0,0,0,.13.51,1.51,1.51,0,0,0,.22.44,1.12,1.12,0,0,0,.34.31,1,1,0,0,0,1,0,1.12,1.12,0,0,0,.34-.31,1.83,1.83,0,0,0,.23-.44,3.81,3.81,0,0,0,.12-.51,4.43,4.43,0,0,0,.06-.51c0-.17,0-.33,0-.47s0-.29,0-.46a4.88,4.88,0,0,0-.06-.52,4.05,4.05,0,0,0-.12-.5,1.66,1.66,0,0,0-.23-.44,1,1,0,0,0-.34-.31,1,1,0,0,0-1,0,1,1,0,0,0-.34.31,1.4,1.4,0,0,0-.22.44,2.83,2.83,0,0,0-.13.5,4.88,4.88,0,0,0-.06.52C44.14,192.63,44.13,192.79,44.13,192.92Z"/><path d="M48.06,191.14a1.15,1.15,0,0,1,.33-.81,1.15,1.15,0,0,1,.37-.25,1.33,1.33,0,0,1,.45-.08,1.27,1.27,0,0,1,.44.08,1.15,1.15,0,0,1,.37.25A1.16,1.16,0,0,1,50,192a1.15,1.15,0,0,1-.37.25,1.27,1.27,0,0,1-.44.08,1.33,1.33,0,0,1-.45-.08,1.15,1.15,0,0,1-.37-.25,1.15,1.15,0,0,1-.33-.81Zm.43,0a.61.61,0,0,0,.06.25.79.79,0,0,0,.14.23.72.72,0,0,0,.22.17.73.73,0,0,0,.3.06.72.72,0,0,0,.29-.06.62.62,0,0,0,.22-.17,1.14,1.14,0,0,0,.15-.23.65.65,0,0,0,0-.5,1.14,1.14,0,0,0-.15-.23.62.62,0,0,0-.22-.17.72.72,0,0,0-.29-.06.73.73,0,0,0-.3.06.72.72,0,0,0-.22.17.79.79,0,0,0-.14.23A.61.61,0,0,0,48.49,191.14Z"/><path d="M39.15,81.22h-.67v-4.8h0l-1,.86-.4-.49,1.52-1.23h.58Z"/><path d="M41.07,80.45l2.14-2.08c.13-.12.25-.24.35-.35a2.16,2.16,0,0,0,.25-.32,1.09,1.09,0,0,0,.15-.33A1.38,1.38,0,0,0,44,77a1,1,0,0,0-.08-.4.84.84,0,0,0-.22-.3.78.78,0,0,0-.33-.19A1.05,1.05,0,0,0,43,76a1,1,0,0,0-.72.25,1.19,1.19,0,0,0-.36.65l-.72-.06a1.47,1.47,0,0,1,.21-.61,1.41,1.41,0,0,1,.39-.45,2,2,0,0,1,.53-.27,2.2,2.2,0,0,1,.64-.09,2.41,2.41,0,0,1,.67.1,2.06,2.06,0,0,1,.55.29,1.47,1.47,0,0,1,.37.48,1.6,1.6,0,0,1,.14.67,2,2,0,0,1-.09.61,2.34,2.34,0,0,1-.25.5,3.47,3.47,0,0,1-.35.43l-.41.4-1.75,1.64v0h2.89v.62H41.07Z"/><path d="M45.43,78.39a7,7,0,0,1,.07-1,3.52,3.52,0,0,1,.3-1,2,2,0,0,1,.59-.7,1.77,1.77,0,0,1,1.91,0,1.91,1.91,0,0,1,.59.7,3.52,3.52,0,0,1,.3,1,6.29,6.29,0,0,1,0,2,3.52,3.52,0,0,1-.3,1,1.91,1.91,0,0,1-.59.7,1.77,1.77,0,0,1-1.91,0,2,2,0,0,1-.59-.7,3.52,3.52,0,0,1-.3-1A7,7,0,0,1,45.43,78.39Zm.67,0c0,.14,0,.29,0,.46a4.6,4.6,0,0,0,.06.52,4.77,4.77,0,0,0,.13.51,2,2,0,0,0,.22.44,1.15,1.15,0,0,0,.35.31,1,1,0,0,0,.48.11,1.06,1.06,0,0,0,.48-.11,1.24,1.24,0,0,0,.34-.31,2,2,0,0,0,.22-.44,3.18,3.18,0,0,0,.13-.51,4.6,4.6,0,0,0,.06-.52c0-.17,0-.32,0-.46s0-.29,0-.46a4.35,4.35,0,0,0-.06-.52,3.18,3.18,0,0,0-.13-.51,2,2,0,0,0-.22-.44,1.24,1.24,0,0,0-.34-.31,1.06,1.06,0,0,0-.48-.11,1,1,0,0,0-.48.11,1.15,1.15,0,0,0-.35.31,2,2,0,0,0-.22.44,4.77,4.77,0,0,0-.13.51,4.35,4.35,0,0,0-.06.52C46.1,78.1,46.1,78.25,46.1,78.39Z"/><path d="M50,76.61a1.12,1.12,0,0,1,.08-.45,1.15,1.15,0,0,1,.25-.37,1.16,1.16,0,0,1,1.62,0,1.15,1.15,0,0,1,.25.37,1.33,1.33,0,0,1,.08.45,1.23,1.23,0,0,1-.08.44,1.15,1.15,0,0,1-.25.37,1.16,1.16,0,0,1-1.62,0,1.15,1.15,0,0,1-.25-.37A1,1,0,0,1,50,76.61Zm.43,0a.52.52,0,0,0,0,.24.72.72,0,0,0,.14.24.63.63,0,0,0,.23.16.64.64,0,0,0,.58,0,.73.73,0,0,0,.23-.16,1,1,0,0,0,.14-.24.69.69,0,0,0,.05-.24.75.75,0,0,0-.19-.48.76.76,0,0,0-.23-.17.64.64,0,0,0-.58,0,.66.66,0,0,0-.23.17.59.59,0,0,0-.14.23A.56.56,0,0,0,50.46,76.61Z"/></g><g id="numeri_fondo_tabella" data-name="numeri fondo tabella"><path d="M131.83,251.42a1.17,1.17,0,0,0-.43-.35,1.19,1.19,0,0,0-.51-.11,1.35,1.35,0,0,0-.55.11,1.08,1.08,0,0,0-.4.3,1.32,1.32,0,0,0-.23.44,1.76,1.76,0,0,0,0,1.08,1.43,1.43,0,0,0,.26.45,1.31,1.31,0,0,0,.39.3,1.27,1.27,0,0,0,.52.1,1.09,1.09,0,0,0,1-.46l.47.44a1.69,1.69,0,0,1-.64.46,2.29,2.29,0,0,1-.78.14,2.22,2.22,0,0,1-.79-.14,1.75,1.75,0,0,1-1-1,2.27,2.27,0,0,1,0-1.57,1.86,1.86,0,0,1,.39-.63,2,2,0,0,1,.61-.41,2,2,0,0,1,.79-.15,2.09,2.09,0,0,1,.79.15,1.59,1.59,0,0,1,.65.45Z"/><path d="M136.21,253.56h0a1.43,1.43,0,0,1-.55.54,1.7,1.7,0,0,1-.89.22,1.8,1.8,0,0,1-.73-.15,1.78,1.78,0,0,1-.6-.41,1.81,1.81,0,0,1-.39-.62,2.06,2.06,0,0,1-.15-.79,2,2,0,0,1,.15-.78,1.88,1.88,0,0,1,.4-.63,1.81,1.81,0,0,1,.62-.41,2.07,2.07,0,0,1,.8-.15,1.72,1.72,0,0,1,.75.17,1.78,1.78,0,0,1,.59.47h0v-2.84h.62v6h-.62Zm0-1.21a1.63,1.63,0,0,0-.09-.55,1.34,1.34,0,0,0-.27-.44,1.37,1.37,0,0,0-.42-.29,1.35,1.35,0,0,0-.55-.11,1.42,1.42,0,0,0-.55.11,1.22,1.22,0,0,0-.41.29,1.34,1.34,0,0,0-.27.44,1.56,1.56,0,0,0,0,1.1,1.25,1.25,0,0,0,.27.44,1.19,1.19,0,0,0,1,.4,1.35,1.35,0,0,0,.55-.1,1.6,1.6,0,0,0,.42-.3,1.25,1.25,0,0,0,.27-.44A1.63,1.63,0,0,0,136.21,252.35Z"/><path d="M140.1,254.57l-.5-.2,2.4-6.15.51.2Z"/><path d="M147.64,254.22H147v-4.8h0l-1,.86-.4-.49,1.52-1.23h.59Z"/><path d="M149.46,251.39a7.07,7.07,0,0,1,.08-1,3.19,3.19,0,0,1,.29-.95,2,2,0,0,1,.59-.7,1.61,1.61,0,0,1,1-.28,1.55,1.55,0,0,1,1,.28,1.91,1.91,0,0,1,.59.7,2.94,2.94,0,0,1,.3.95,6.29,6.29,0,0,1,0,2,2.94,2.94,0,0,1-.3,1,1.91,1.91,0,0,1-.59.7,1.49,1.49,0,0,1-1,.28,1.54,1.54,0,0,1-1-.28,2,2,0,0,1-.59-.7,3.19,3.19,0,0,1-.29-1A7.07,7.07,0,0,1,149.46,251.39Zm.67,0c0,.14,0,.29,0,.47a4.43,4.43,0,0,0,.06.51,4.7,4.7,0,0,0,.12.51,2,2,0,0,0,.23.44,1.12,1.12,0,0,0,.34.31,1.1,1.1,0,0,0,1,0,1.12,1.12,0,0,0,.34-.31,1.65,1.65,0,0,0,.22-.44,3.18,3.18,0,0,0,.13-.51,4.43,4.43,0,0,0,.06-.51c0-.18,0-.33,0-.47s0-.29,0-.46a4.6,4.6,0,0,0-.06-.52,3.18,3.18,0,0,0-.13-.51,1.65,1.65,0,0,0-.22-.44,1.08,1.08,0,0,0-.34-.3,1,1,0,0,0-1,0,1.08,1.08,0,0,0-.34.3,2,2,0,0,0-.23.44,4.7,4.7,0,0,0-.12.51,4.6,4.6,0,0,0-.06.52C150.14,251.1,150.13,251.25,150.13,251.39Z"/><path d="M153.91,251.39a5.85,5.85,0,0,1,.08-1,3.19,3.19,0,0,1,.29-.95,2,2,0,0,1,.59-.7,1.61,1.61,0,0,1,1-.28,1.55,1.55,0,0,1,.95.28,1.91,1.91,0,0,1,.59.7,3.2,3.2,0,0,1,.3.95,6.29,6.29,0,0,1,0,2,3.2,3.2,0,0,1-.3,1,1.91,1.91,0,0,1-.59.7,1.49,1.49,0,0,1-.95.28,1.54,1.54,0,0,1-1-.28,2,2,0,0,1-.59-.7,3.19,3.19,0,0,1-.29-1A5.85,5.85,0,0,1,153.91,251.39Zm.67,0a4,4,0,0,0,0,.47,4.43,4.43,0,0,0,.06.51,3.14,3.14,0,0,0,.12.51,1.67,1.67,0,0,0,.23.44,1,1,0,0,0,.34.31.9.9,0,0,0,.48.11,1,1,0,0,0,.48-.11,1.24,1.24,0,0,0,.34-.31,1.65,1.65,0,0,0,.22-.44,3.18,3.18,0,0,0,.13-.51,4.43,4.43,0,0,0,.06-.51c0-.18,0-.33,0-.47s0-.29,0-.46a4.6,4.6,0,0,0-.06-.52,3.18,3.18,0,0,0-.13-.51,1.65,1.65,0,0,0-.22-.44,1.21,1.21,0,0,0-.34-.3,1,1,0,0,0-.48-.12.9.9,0,0,0-.48.12,1,1,0,0,0-.34.3,1.67,1.67,0,0,0-.23.44,3.14,3.14,0,0,0-.12.51,4.6,4.6,0,0,0-.06.52A3.78,3.78,0,0,0,154.58,251.39Z"/><path d="M158.31,251.39a5.85,5.85,0,0,1,.08-1,3.19,3.19,0,0,1,.29-.95,2,2,0,0,1,.59-.7,1.61,1.61,0,0,1,1-.28,1.55,1.55,0,0,1,1,.28,1.91,1.91,0,0,1,.59.7,3.2,3.2,0,0,1,.3.95,6.29,6.29,0,0,1,0,2,3.2,3.2,0,0,1-.3,1,1.91,1.91,0,0,1-.59.7,1.49,1.49,0,0,1-1,.28,1.54,1.54,0,0,1-1-.28,2,2,0,0,1-.59-.7,3.19,3.19,0,0,1-.29-1A5.85,5.85,0,0,1,158.31,251.39Zm.67,0c0,.14,0,.29,0,.47a4.43,4.43,0,0,0,.06.51,3.14,3.14,0,0,0,.12.51,1.67,1.67,0,0,0,.23.44,1,1,0,0,0,.34.31.9.9,0,0,0,.48.11,1,1,0,0,0,.48-.11,1.24,1.24,0,0,0,.34-.31,1.65,1.65,0,0,0,.22-.44,3.18,3.18,0,0,0,.13-.51,4.43,4.43,0,0,0,.06-.51c0-.18,0-.33,0-.47s0-.29,0-.46a4.6,4.6,0,0,0-.06-.52,3.18,3.18,0,0,0-.13-.51,1.65,1.65,0,0,0-.22-.44,1.21,1.21,0,0,0-.34-.3,1,1,0,0,0-.48-.12.9.9,0,0,0-.48.12,1,1,0,0,0-.34.3,1.67,1.67,0,0,0-.23.44,3.14,3.14,0,0,0-.12.51,4.6,4.6,0,0,0-.06.52C159,251.1,159,251.25,159,251.39Z"/><path d="M165.32,248.18H166v6h-.63Z"/><path d="M167.19,251.37c0-.17,0-.33,0-.48s0-.29,0-.41h.59c0,.1,0,.2,0,.3v.32h0a.91.91,0,0,1,.18-.27,1.64,1.64,0,0,1,.28-.23,1.5,1.5,0,0,1,.36-.16,1.44,1.44,0,0,1,.43-.06,1.52,1.52,0,0,1,.51.08,1.36,1.36,0,0,1,.34.18.93.93,0,0,1,.21.24,1.64,1.64,0,0,1,.12.22,1.78,1.78,0,0,1,.48-.53,1.27,1.27,0,0,1,.71-.19,1.88,1.88,0,0,1,.67.11,1.1,1.1,0,0,1,.44.31,1.37,1.37,0,0,1,.24.5,2.59,2.59,0,0,1,.07.65v2.27h-.62V252a2.33,2.33,0,0,0,0-.37,1,1,0,0,0-.15-.33.71.71,0,0,0-.28-.23,1,1,0,0,0-.45-.09,1,1,0,0,0-.37.08,1,1,0,0,0-.31.22,1.13,1.13,0,0,0-.21.35,1.33,1.33,0,0,0-.07.45v2.16h-.63V252.1a1.62,1.62,0,0,0-.17-.88A.6.6,0,0,0,169,251a1.18,1.18,0,0,0-.52.1.88.88,0,0,0-.36.3,1.14,1.14,0,0,0-.21.46,2.1,2.1,0,0,0-.07.58v1.82h-.62Z"/><line class="cls-1" x1="38.21" y1="253" x2="46.2" y2="253"/><path d="M235.17,251a1.66,1.66,0,0,0-.63-.52,1.93,1.93,0,0,0-.79-.17,2.13,2.13,0,0,0-.87.19,2.16,2.16,0,0,0-.68.52,2.58,2.58,0,0,0-.45.75,2.69,2.69,0,0,0-.16.89,2.79,2.79,0,0,0,.16.93,2.41,2.41,0,0,0,.45.74,2,2,0,0,0,.68.5,1.92,1.92,0,0,0,.87.19,2,2,0,0,0,1.64-.8l.51.43a2.38,2.38,0,0,1-.93.75,3,3,0,0,1-1.22.24,2.85,2.85,0,0,1-1.13-.22,2.82,2.82,0,0,1-.92-.62,3,3,0,0,1-.61-.94,3.33,3.33,0,0,1-.22-1.2,3.19,3.19,0,0,1,.21-1.16,2.9,2.9,0,0,1,.6-1,3.08,3.08,0,0,1,.91-.63,3,3,0,0,1,2.27,0,2,2,0,0,1,.89.68Z"/><path d="M239,253.1l0,0a1.35,1.35,0,0,1-.37.13,2.87,2.87,0,0,1-.39,0,1.68,1.68,0,0,1-.68-.13,1.5,1.5,0,0,1-.55-.36,1.92,1.92,0,0,1-.36-.56,2.11,2.11,0,0,1-.12-.73,1.75,1.75,0,0,1,.14-.74,1.63,1.63,0,0,1,.4-.56,1.79,1.79,0,0,1,.6-.35,2.36,2.36,0,0,1,.75-.12,2.27,2.27,0,0,1,.75.12,1.94,1.94,0,0,1,.61.35,1.49,1.49,0,0,1,.39.56,1.75,1.75,0,0,1,.15.74,2.19,2.19,0,0,1,0,.46c0,.14-.07.27-.11.4a2.53,2.53,0,0,1-.18.37,3.35,3.35,0,0,1-.21.36l-1.5,2.4h-.79Zm-.6-.43a1.51,1.51,0,0,0,.48-.08,1.28,1.28,0,0,0,.39-.24,1.12,1.12,0,0,0,.26-.38,1.27,1.27,0,0,0,.1-.5,1.26,1.26,0,0,0-.1-.49,1,1,0,0,0-.26-.38,1,1,0,0,0-.39-.24,1.33,1.33,0,0,0-1,0,.88.88,0,0,0-.38.24,1.19,1.19,0,0,0-.27.38,1.26,1.26,0,0,0-.09.49,1.28,1.28,0,0,0,.09.5,1.31,1.31,0,0,0,.27.38,1.12,1.12,0,0,0,.38.24A1.51,1.51,0,0,0,238.35,252.67Z"/><path d="M240.88,252.62a7.07,7.07,0,0,1,.08-1,2.88,2.88,0,0,1,.3-.94,2,2,0,0,1,.58-.71,1.84,1.84,0,0,1,1.92,0,2,2,0,0,1,.58.71,2.88,2.88,0,0,1,.3.94,7.07,7.07,0,0,1,.08,1,7,7,0,0,1-.08,1,2.86,2.86,0,0,1-.3.95,2,2,0,0,1-.58.71,1.84,1.84,0,0,1-1.92,0,2,2,0,0,1-.58-.71,2.86,2.86,0,0,1-.3-.95A7,7,0,0,1,240.88,252.62Zm.67,0c0,.14,0,.3,0,.47a4.43,4.43,0,0,0,.06.51,2.72,2.72,0,0,0,.13.51,1.51,1.51,0,0,0,.22.44,1.12,1.12,0,0,0,.34.31,1,1,0,0,0,1,0,1.12,1.12,0,0,0,.34-.31,1.51,1.51,0,0,0,.22-.44,2.72,2.72,0,0,0,.13-.51,4.43,4.43,0,0,0,.06-.51c0-.17,0-.33,0-.47s0-.29,0-.46a4.88,4.88,0,0,0-.06-.52,2.83,2.83,0,0,0-.13-.5,1.4,1.4,0,0,0-.22-.44,1.12,1.12,0,0,0-.34-.31,1,1,0,0,0-1,0,1.12,1.12,0,0,0-.34.31,1.4,1.4,0,0,0-.22.44,2.83,2.83,0,0,0-.13.5,4.88,4.88,0,0,0-.06.52C241.56,252.33,241.55,252.49,241.55,252.62Z"/><path d="M247.78,255.8l-.51-.2,2.41-6.14.5.19Z"/><path d="M257.1,251a1.66,1.66,0,0,0-.63-.52,1.92,1.92,0,0,0-.78-.17,2.06,2.06,0,0,0-.87.19,2.16,2.16,0,0,0-.68.52,2.21,2.21,0,0,0-.45.75,2.46,2.46,0,0,0-.16.89,2.56,2.56,0,0,0,.16.93,2.2,2.2,0,0,0,.44.74,2.1,2.1,0,0,0,.68.5,2,2,0,0,0,.88.19,2,2,0,0,0,.93-.21,2,2,0,0,0,.71-.59l.5.43a2.29,2.29,0,0,1-.92.75,3,3,0,0,1-1.22.24,2.8,2.8,0,0,1-2.05-.84,2.82,2.82,0,0,1-.61-.94,3.13,3.13,0,0,1-.22-1.2,3.19,3.19,0,0,1,.21-1.16,2.75,2.75,0,0,1,.6-1,3,3,0,0,1,.91-.63,2.93,2.93,0,0,1,1.16-.23,3,3,0,0,1,1.11.21,2,2,0,0,1,.89.68Z"/><path d="M258.46,254.69l2.14-2.08.35-.36a1.75,1.75,0,0,0,.25-.32,1,1,0,0,0,.15-.32,1.46,1.46,0,0,0,0-.38,1,1,0,0,0-.08-.4.93.93,0,0,0-.22-.3,1.13,1.13,0,0,0-.73-.26,1,1,0,0,0-.71.25,1.11,1.11,0,0,0-.36.66l-.73-.07a1.91,1.91,0,0,1,.21-.61,1.28,1.28,0,0,1,.39-.44,1.77,1.77,0,0,1,.53-.27,2.25,2.25,0,0,1,.64-.09,2.09,2.09,0,0,1,.67.1,1.53,1.53,0,0,1,.55.29,1.47,1.47,0,0,1,.37.48,1.39,1.39,0,0,1,.14.66,1.91,1.91,0,0,1-.09.61,1.8,1.8,0,0,1-.25.5,2.86,2.86,0,0,1-.35.43l-.41.41-1.75,1.64h2.89v.63h-3.65Z"/><path d="M266.35,250.42l-2.26,5h-.76l2.3-5H262.9v-.63h3.45Z"/><path d="M267.26,252.62a7.07,7.07,0,0,1,.08-1,3.45,3.45,0,0,1,.3-.94,2,2,0,0,1,.59-.71,1.82,1.82,0,0,1,1.91,0,2,2,0,0,1,.59.71,3.45,3.45,0,0,1,.3.94,7,7,0,0,1,.07,1,6.92,6.92,0,0,1-.07,1,3.41,3.41,0,0,1-.3.95,2,2,0,0,1-.59.71,1.82,1.82,0,0,1-1.91,0,2,2,0,0,1-.59-.71,3.41,3.41,0,0,1-.3-.95A7,7,0,0,1,267.26,252.62Zm.68,0c0,.14,0,.3,0,.47a4.43,4.43,0,0,0,.06.51,2.72,2.72,0,0,0,.13.51,1.53,1.53,0,0,0,.23.44,1,1,0,0,0,.34.31.89.89,0,0,0,.47.12,1,1,0,0,0,.49-.12,1.08,1.08,0,0,0,.33-.31,1.53,1.53,0,0,0,.23-.44,2.72,2.72,0,0,0,.13-.51,4.43,4.43,0,0,0,.06-.51c0-.17,0-.33,0-.47s0-.29,0-.46a4.88,4.88,0,0,0-.06-.52,2.83,2.83,0,0,0-.13-.5,1.41,1.41,0,0,0-.23-.44,1.08,1.08,0,0,0-.33-.31,1,1,0,0,0-.49-.12.89.89,0,0,0-.47.12,1,1,0,0,0-.34.31,1.41,1.41,0,0,0-.23.44,2.83,2.83,0,0,0-.13.5,4.88,4.88,0,0,0-.06.52C267.94,252.33,267.94,252.49,267.94,252.62Z"/><path d="M52.87,251a1.55,1.55,0,0,0-.63-.51,1.82,1.82,0,0,0-.79-.18,2,2,0,0,0-.87.2,2.13,2.13,0,0,0-.68.51,2.58,2.58,0,0,0-.45.75,2.67,2.67,0,0,0,0,1.82,2.29,2.29,0,0,0,.45.74,1.88,1.88,0,0,0,.68.5,1.92,1.92,0,0,0,.87.19,2,2,0,0,0,.93-.21,2.07,2.07,0,0,0,.71-.58l.51.42a2.38,2.38,0,0,1-.93.75,3,3,0,0,1-1.22.24,2.85,2.85,0,0,1-1.13-.22,2.82,2.82,0,0,1-.92-.62,3,3,0,0,1-.61-.94,3.27,3.27,0,0,1-.22-1.19,3.2,3.2,0,0,1,.21-1.17,3,3,0,0,1,.6-.95,3.08,3.08,0,0,1,.91-.63,3,3,0,0,1,2.27,0,2,2,0,0,1,.89.68Z"/><path d="M54.13,252.62a7,7,0,0,1,.08-1,3.11,3.11,0,0,1,.3-1,1.94,1.94,0,0,1,.59-.71,1.55,1.55,0,0,1,.95-.27,1.6,1.6,0,0,1,1,.27,2,2,0,0,1,.59.71,3.1,3.1,0,0,1,.29,1,5.77,5.77,0,0,1,.08,1,5.85,5.85,0,0,1-.08,1,3.13,3.13,0,0,1-.29.94,2,2,0,0,1-.59.71,1.6,1.6,0,0,1-1,.27,1.55,1.55,0,0,1-.95-.27,1.94,1.94,0,0,1-.59-.71,3.14,3.14,0,0,1-.3-.94A7.07,7.07,0,0,1,54.13,252.62Zm.67,0c0,.13,0,.29,0,.46a4.88,4.88,0,0,0,.06.52,2.83,2.83,0,0,0,.13.5,1.4,1.4,0,0,0,.22.44,1.1,1.1,0,0,0,.34.31,1,1,0,0,0,.48.12.9.9,0,0,0,.48-.12.92.92,0,0,0,.34-.31,1.41,1.41,0,0,0,.23-.44,2.8,2.8,0,0,0,.12-.5,4.88,4.88,0,0,0,.06-.52,3.86,3.86,0,0,0,0-.46,3.94,3.94,0,0,0,0-.47,4.43,4.43,0,0,0-.06-.51,2.71,2.71,0,0,0-.12-.51,1.53,1.53,0,0,0-.23-.44,1,1,0,0,0-.34-.31.9.9,0,0,0-.48-.12,1,1,0,0,0-.48.12,1.24,1.24,0,0,0-.34.31,1.51,1.51,0,0,0-.22.44,2.72,2.72,0,0,0-.13.51,4.43,4.43,0,0,0-.06.51C54.81,252.32,54.8,252.48,54.8,252.62Z"/><path d="M61,255.79l-.51-.2,2.41-6.14.51.19Z"/><path d="M70.36,251a1.52,1.52,0,0,0-.64-.51,1.78,1.78,0,0,0-.78-.18,2,2,0,0,0-.87.2,2.13,2.13,0,0,0-.68.51,2.58,2.58,0,0,0-.45.75,2.51,2.51,0,0,0-.16.9,2.54,2.54,0,0,0,.16.92,2.46,2.46,0,0,0,.44.74,2.09,2.09,0,0,0,1.56.69,2,2,0,0,0,.93-.21,2.07,2.07,0,0,0,.71-.58l.5.42a2.29,2.29,0,0,1-.92.75,3,3,0,0,1-1.22.24,2.93,2.93,0,0,1-1.14-.22,2.88,2.88,0,0,1-.91-.62,3,3,0,0,1-.61-.94,3.07,3.07,0,0,1-.22-1.19,3.2,3.2,0,0,1,.21-1.17,2.84,2.84,0,0,1,.6-.95,3,3,0,0,1,.91-.63,2.93,2.93,0,0,1,1.16-.23,3,3,0,0,1,1.11.21,2,2,0,0,1,.89.68Z"/><path d="M74.2,255.45h-.68v-4.8h0l-1,.85-.4-.48,1.52-1.24h.59Z"/><path d="M76.37,251.17a1.33,1.33,0,0,1,.13-.61,1.2,1.2,0,0,1,.34-.46,1.44,1.44,0,0,1,.51-.3,1.92,1.92,0,0,1,1.28,0,1.44,1.44,0,0,1,.51.3,1.32,1.32,0,0,1,.34.46,1.48,1.48,0,0,1,.12.61,1.44,1.44,0,0,1-.06.4,1.41,1.41,0,0,1-.18.37,1.18,1.18,0,0,1-.3.29,1,1,0,0,1-.38.19h0a1.44,1.44,0,0,1,.46.19,1.35,1.35,0,0,1,.35.32,1.67,1.67,0,0,1,.23.44,1.7,1.7,0,0,1,.08.51,1.74,1.74,0,0,1-.14.69,1.46,1.46,0,0,1-.39.52,1.47,1.47,0,0,1-.57.33,2.35,2.35,0,0,1-1.42,0,1.59,1.59,0,0,1-.58-.33,1.43,1.43,0,0,1-.38-.52,1.74,1.74,0,0,1-.14-.69,1.7,1.7,0,0,1,.08-.51,1.65,1.65,0,0,1,.22-.44,1.59,1.59,0,0,1,.36-.32,1.44,1.44,0,0,1,.46-.19h0a1.18,1.18,0,0,1-.39-.19,1.33,1.33,0,0,1-.29-.29,1.41,1.41,0,0,1-.18-.37A1.16,1.16,0,0,1,76.37,251.17Zm.48,2.67a1.14,1.14,0,0,0,.09.46,1.21,1.21,0,0,0,.24.35,1.16,1.16,0,0,0,.36.23A1.13,1.13,0,0,0,78,255a1,1,0,0,0,.44-.09,1,1,0,0,0,.36-.23,1.07,1.07,0,0,0,.25-.35,1.36,1.36,0,0,0,0-.92,1.07,1.07,0,0,0-.25-.35,1,1,0,0,0-.36-.23,1,1,0,0,0-.44-.09,1.13,1.13,0,0,0-.45.09,1.16,1.16,0,0,0-.36.23,1.21,1.21,0,0,0-.24.35A1.14,1.14,0,0,0,76.85,253.84ZM77,251.2a.92.92,0,0,0,.26.67.93.93,0,0,0,.69.27.9.9,0,0,0,.68-.27,1,1,0,0,0,0-1.34.9.9,0,0,0-.68-.27.93.93,0,0,0-.69.27A.92.92,0,0,0,77,251.2Z"/><path d="M80.52,252.62a5.77,5.77,0,0,1,.08-1,3.1,3.1,0,0,1,.29-1,2,2,0,0,1,.59-.71,1.6,1.6,0,0,1,1-.27,1.55,1.55,0,0,1,1,.27,1.94,1.94,0,0,1,.59.71,3.41,3.41,0,0,1,.3,1,7,7,0,0,1,.08,1,7.07,7.07,0,0,1-.08,1,3.45,3.45,0,0,1-.3.94,1.94,1.94,0,0,1-.59.71,1.55,1.55,0,0,1-1,.27,1.6,1.6,0,0,1-1-.27,2,2,0,0,1-.59-.71,3.13,3.13,0,0,1-.29-.94A5.85,5.85,0,0,1,80.52,252.62Zm.67,0a3.86,3.86,0,0,0,0,.46c0,.17,0,.34.05.52a4.07,4.07,0,0,0,.13.5,1.41,1.41,0,0,0,.23.44.92.92,0,0,0,.34.31.9.9,0,0,0,.48.12,1,1,0,0,0,.48-.12,1.1,1.1,0,0,0,.34-.31,1.65,1.65,0,0,0,.22-.44,2.83,2.83,0,0,0,.13-.5,4.88,4.88,0,0,0,.06-.52c0-.17,0-.33,0-.46s0-.3,0-.47a4.43,4.43,0,0,0-.06-.51,2.72,2.72,0,0,0-.13-.51,1.81,1.81,0,0,0-.22-.44,1.24,1.24,0,0,0-.34-.31,1,1,0,0,0-.48-.12.9.9,0,0,0-.48.12,1,1,0,0,0-.34.31,1.53,1.53,0,0,0-.23.44,3.8,3.8,0,0,0-.13.51c0,.17,0,.34-.05.51A3.94,3.94,0,0,0,81.19,252.62Z"/><line class="cls-2" x1="214.49" y1="253.42" x2="215.03" y2="253.42"/><line class="cls-2" x1="217.76" y1="253.42" x2="218.3" y2="253.42"/><line class="cls-2" x1="221.02" y1="253.42" x2="221.56" y2="253.42"/><line class="cls-2" x1="224.29" y1="253.42" x2="224.83" y2="253.42"/><line class="cls-2" x1="227.55" y1="253.42" x2="228.09" y2="253.42"/></g><g id="Moni_2_F3901009"><path d="M54.92,12.18h4.39V13H55.76V15.3h3.3v.78h-3.3v3.18h-.84Z"/><path d="M61.64,15.18h.26a3.56,3.56,0,0,0,.55,0A1.52,1.52,0,0,0,63,15a1.17,1.17,0,0,0,.39-.38,1.19,1.19,0,0,0,.15-.64,1.14,1.14,0,0,0-.33-.86,1.25,1.25,0,0,0-.88-.31,1.51,1.51,0,0,0-.78.2,1.37,1.37,0,0,0-.52.59l-.81-.31a1.8,1.8,0,0,1,.82-.9,2.54,2.54,0,0,1,1.23-.3,2.74,2.74,0,0,1,.81.12,2.14,2.14,0,0,1,.67.35,1.61,1.61,0,0,1,.46.57,1.86,1.86,0,0,1,.17.81,1.62,1.62,0,0,1-.33,1,1.72,1.72,0,0,1-.88.62v0a1.71,1.71,0,0,1,.61.22,2.11,2.11,0,0,1,.45.39,1.76,1.76,0,0,1,.29.54,1.89,1.89,0,0,1,.1.63,1.91,1.91,0,0,1-.19.89,2,2,0,0,1-.51.64,2.27,2.27,0,0,1-.74.39,3,3,0,0,1-.9.13A2.78,2.78,0,0,1,60.84,19,2,2,0,0,1,60,17.89l.85-.28a1.3,1.3,0,0,0,1.43,1.05,1.47,1.47,0,0,0,.56-.1,1.38,1.38,0,0,0,.46-.29,1.4,1.4,0,0,0,.31-.44,1.43,1.43,0,0,0,.11-.56,1.34,1.34,0,0,0-.15-.66,1.37,1.37,0,0,0-.41-.42,2.12,2.12,0,0,0-.58-.22,2.81,2.81,0,0,0-.65-.07h-.26Z"/><path d="M68.68,16.31l0,0a1.56,1.56,0,0,1-.46.16,3,3,0,0,1-.49.05,2.15,2.15,0,0,1-.85-.16,1.9,1.9,0,0,1-.68-.46,2.11,2.11,0,0,1-.45-.7,2.36,2.36,0,0,1-.16-.9,2.27,2.27,0,0,1,.18-.93,2.08,2.08,0,0,1,.5-.7,2.37,2.37,0,0,1,.76-.44,2.83,2.83,0,0,1,.93-.15,2.89,2.89,0,0,1,.94.15,2.32,2.32,0,0,1,.75.44,2.08,2.08,0,0,1,.5.7,2.27,2.27,0,0,1,.18.93,3.27,3.27,0,0,1,0,.57,2.85,2.85,0,0,1-.14.5,3.82,3.82,0,0,1-.21.46l-.27.46-1.88,3h-1Zm-.74-.53a1.73,1.73,0,0,0,.6-.11,1.36,1.36,0,0,0,.81-.77,1.52,1.52,0,0,0,.12-.62,1.56,1.56,0,0,0-.12-.62,1.49,1.49,0,0,0-.32-.48,1.44,1.44,0,0,0-.49-.3,1.85,1.85,0,0,0-1.2,0,1.31,1.31,0,0,0-.48.3,1.37,1.37,0,0,0-.33.48,1.56,1.56,0,0,0-.12.62,1.52,1.52,0,0,0,.12.62,1.33,1.33,0,0,0,.33.47,1.31,1.31,0,0,0,.48.3A1.73,1.73,0,0,0,67.94,15.78Z"/><path d="M71.1,15.72a7.79,7.79,0,0,1,.1-1.25,4.14,4.14,0,0,1,.37-1.19,2.53,2.53,0,0,1,.74-.88,1.93,1.93,0,0,1,1.19-.34,2,2,0,0,1,1.2.34,2.5,2.5,0,0,1,.73.88,4.14,4.14,0,0,1,.37,1.19,7.86,7.86,0,0,1,0,2.5,4,4,0,0,1-.37,1.18,2.41,2.41,0,0,1-.73.88,2,2,0,0,1-1.2.35A1.93,1.93,0,0,1,72.31,19a2.44,2.44,0,0,1-.74-.88A4,4,0,0,1,71.2,17,7.79,7.79,0,0,1,71.1,15.72Zm.84,0c0,.17,0,.37,0,.58a4.66,4.66,0,0,0,.08.64,3.53,3.53,0,0,0,.16.64,1.9,1.9,0,0,0,.28.55,1.18,1.18,0,0,0,.42.38,1.28,1.28,0,0,0,1.2,0,1.3,1.3,0,0,0,.43-.38,2.19,2.19,0,0,0,.28-.55,4.61,4.61,0,0,0,.16-.64c0-.21.06-.43.07-.64s0-.41,0-.58,0-.37,0-.58,0-.43-.07-.65a4.85,4.85,0,0,0-.16-.63,2.19,2.19,0,0,0-.28-.55,1.45,1.45,0,0,0-.43-.39,1.36,1.36,0,0,0-1.2,0,1.31,1.31,0,0,0-.42.39,1.9,1.9,0,0,0-.28.55,3.64,3.64,0,0,0-.16.63,5,5,0,0,0-.08.65C72,15.35,71.94,15.55,71.94,15.72Z"/><path d="M79.88,19.26H79v-6h0l-1.27,1.07-.5-.61,1.9-1.54h.73Z"/><path d="M82.22,15.72a7.79,7.79,0,0,1,.1-1.25,4.14,4.14,0,0,1,.37-1.19,2.53,2.53,0,0,1,.74-.88,1.93,1.93,0,0,1,1.19-.34,2,2,0,0,1,1.2.34,2.5,2.5,0,0,1,.73.88,4.14,4.14,0,0,1,.37,1.19,7.86,7.86,0,0,1,0,2.5,4,4,0,0,1-.37,1.18,2.41,2.41,0,0,1-.73.88,2,2,0,0,1-1.2.35A1.93,1.93,0,0,1,83.43,19a2.44,2.44,0,0,1-.74-.88A4,4,0,0,1,82.32,17,7.79,7.79,0,0,1,82.22,15.72Zm.84,0c0,.17,0,.37,0,.58a4.66,4.66,0,0,0,.08.64,3.53,3.53,0,0,0,.16.64,1.9,1.9,0,0,0,.28.55,1.18,1.18,0,0,0,.42.38,1.28,1.28,0,0,0,1.2,0,1.3,1.3,0,0,0,.43-.38,2.19,2.19,0,0,0,.28-.55,4.61,4.61,0,0,0,.16-.64c0-.21.06-.43.07-.64s0-.41,0-.58,0-.37,0-.58,0-.43-.07-.65a4.85,4.85,0,0,0-.16-.63,2.19,2.19,0,0,0-.28-.55,1.45,1.45,0,0,0-.43-.39,1.36,1.36,0,0,0-1.2,0,1.31,1.31,0,0,0-.42.39,1.9,1.9,0,0,0-.28.55,3.64,3.64,0,0,0-.16.63,5,5,0,0,0-.08.65C83.07,15.35,83.06,15.55,83.06,15.72Z"/><path d="M87.78,15.72a7.79,7.79,0,0,1,.1-1.25,4.14,4.14,0,0,1,.37-1.19A2.53,2.53,0,0,1,89,12.4a1.93,1.93,0,0,1,1.19-.34,2,2,0,0,1,1.2.34,2.5,2.5,0,0,1,.73.88,4.14,4.14,0,0,1,.37,1.19,7.86,7.86,0,0,1,0,2.5,4,4,0,0,1-.37,1.18,2.41,2.41,0,0,1-.73.88,2,2,0,0,1-1.2.35A1.93,1.93,0,0,1,89,19a2.44,2.44,0,0,1-.74-.88A4,4,0,0,1,87.88,17,7.79,7.79,0,0,1,87.78,15.72Zm.84,0c0,.17,0,.37,0,.58a4.66,4.66,0,0,0,.08.64,3.53,3.53,0,0,0,.16.64,1.9,1.9,0,0,0,.28.55,1.18,1.18,0,0,0,.42.38,1.28,1.28,0,0,0,1.2,0,1.3,1.3,0,0,0,.43-.38,2.19,2.19,0,0,0,.28-.55,4.61,4.61,0,0,0,.16-.64c0-.21.06-.43.07-.64s0-.41,0-.58,0-.37,0-.58,0-.43-.07-.65a4.85,4.85,0,0,0-.16-.63,2.19,2.19,0,0,0-.28-.55,1.45,1.45,0,0,0-.43-.39,1.36,1.36,0,0,0-1.2,0,1.31,1.31,0,0,0-.42.39,1.9,1.9,0,0,0-.28.55,3.64,3.64,0,0,0-.16.63,5,5,0,0,0-.08.65C88.63,15.35,88.62,15.55,88.62,15.72Z"/><path d="M96.48,16.31l0,0a1.56,1.56,0,0,1-.46.16,3,3,0,0,1-.49.05,2.15,2.15,0,0,1-.85-.16,1.9,1.9,0,0,1-.68-.46,2.11,2.11,0,0,1-.45-.7,2.36,2.36,0,0,1-.16-.9,2.27,2.27,0,0,1,.18-.93,2.08,2.08,0,0,1,.5-.7,2.37,2.37,0,0,1,.76-.44,2.83,2.83,0,0,1,.93-.15,2.89,2.89,0,0,1,.94.15,2.32,2.32,0,0,1,.75.44,2.08,2.08,0,0,1,.5.7,2.27,2.27,0,0,1,.18.93,3.27,3.27,0,0,1,0,.57,2.85,2.85,0,0,1-.14.5,3.82,3.82,0,0,1-.21.46l-.27.46-1.88,3h-1Zm-.74-.53a1.73,1.73,0,0,0,.6-.11,1.36,1.36,0,0,0,.81-.77,1.52,1.52,0,0,0,.12-.62,1.56,1.56,0,0,0-.12-.62,1.49,1.49,0,0,0-.32-.48,1.44,1.44,0,0,0-.49-.3,1.85,1.85,0,0,0-1.2,0,1.31,1.31,0,0,0-.48.3,1.37,1.37,0,0,0-.33.48,1.56,1.56,0,0,0-.12.62,1.52,1.52,0,0,0,.12.62,1.33,1.33,0,0,0,.33.47,1.31,1.31,0,0,0,.48.3A1.73,1.73,0,0,0,95.74,15.78Z"/><path d="M98.52,20h5v.5h-5Z"/><path d="M107.12,19.26h-.84v-6h0L105,14.33l-.5-.61,1.9-1.54h.73Z"/><path d="M113.82,13h-2.89l0,1.91a1.49,1.49,0,0,1,.45-.14l.46,0a2.52,2.52,0,0,1,.93.17,2.2,2.2,0,0,1,.71.49,2.25,2.25,0,0,1,.46.74,2.6,2.6,0,0,1,.16.93,2.49,2.49,0,0,1-.18,1,2.32,2.32,0,0,1-.51.74,2.27,2.27,0,0,1-.77.48,2.78,2.78,0,0,1-1,.17,2.22,2.22,0,0,1-1.3-.35,2.43,2.43,0,0,1-.79-.94l.84-.32a1.51,1.51,0,0,0,.53.64,1.28,1.28,0,0,0,.79.25,1.53,1.53,0,0,0,.6-.12,1.29,1.29,0,0,0,.48-.33,1.64,1.64,0,0,0,.32-.51,1.78,1.78,0,0,0,.12-.67,1.67,1.67,0,0,0-.13-.69,1.59,1.59,0,0,0-.37-.51,1.79,1.79,0,0,0-.56-.31,2.17,2.17,0,0,0-.69-.1,2.43,2.43,0,0,0-.74.12,3.73,3.73,0,0,0-.7.32l.07-3.68h3.71Z"/><path d="M115,15.72a7.79,7.79,0,0,1,.1-1.25,4.14,4.14,0,0,1,.37-1.19,2.53,2.53,0,0,1,.74-.88,2.27,2.27,0,0,1,2.39,0,2.5,2.5,0,0,1,.73.88,4.14,4.14,0,0,1,.37,1.19,7.86,7.86,0,0,1,0,2.5,4,4,0,0,1-.37,1.18,2.41,2.41,0,0,1-.73.88,2.22,2.22,0,0,1-2.39,0,2.44,2.44,0,0,1-.74-.88,4,4,0,0,1-.37-1.18A7.79,7.79,0,0,1,115,15.72Zm.84,0c0,.17,0,.37,0,.58s0,.43.08.64a3.53,3.53,0,0,0,.16.64,1.9,1.9,0,0,0,.28.55,1.18,1.18,0,0,0,.42.38,1.28,1.28,0,0,0,1.2,0,1.3,1.3,0,0,0,.43-.38,2.19,2.19,0,0,0,.28-.55,4.61,4.61,0,0,0,.16-.64c0-.21.06-.43.07-.64s0-.41,0-.58,0-.37,0-.58,0-.43-.07-.65a4.85,4.85,0,0,0-.16-.63,2.19,2.19,0,0,0-.28-.55,1.45,1.45,0,0,0-.43-.39,1.36,1.36,0,0,0-1.2,0,1.31,1.31,0,0,0-.42.39,1.9,1.9,0,0,0-.28.55,3.64,3.64,0,0,0-.16.63c0,.22-.06.44-.08.65S115.86,15.55,115.86,15.72Z"/><path d="M120.26,12.18h.93l1.61,5.88h0l1.74-5.88h.94l1.73,5.88h0l1.64-5.88h.88l-2.08,7.08h-.91l-1.75-6h0l-1.76,6h-.92Z"/><path d="M133.42,12.18h.84v3H138v-3h.84v7.08H138V16h-3.78v3.3h-.84Z"/><path d="M140.71,12.18h.84v6.3h3.24v.78h-4.08Z"/><rect class="cls-3" x="55.04" y="42.6" width="189.86" height="189.86"/><circle class="cls-4" cx="149.97" cy="137.48" r="18.95"/><path d="M155,161.56h.82v.63H155v1.29h-.67v-1.29h-2.4v-.75l2.25-3.62H155Zm-.67-3h0l-1.81,3h1.82Z"/><path d="M156.33,160.65a5.85,5.85,0,0,1,.08-1,3.19,3.19,0,0,1,.29-1,2,2,0,0,1,.59-.7,1.77,1.77,0,0,1,1.91,0,1.91,1.91,0,0,1,.59.7,3.52,3.52,0,0,1,.3,1,6.29,6.29,0,0,1,0,2,3.52,3.52,0,0,1-.3.95,1.91,1.91,0,0,1-.59.7,1.77,1.77,0,0,1-1.91,0,2,2,0,0,1-.59-.7,3.19,3.19,0,0,1-.29-.95A5.85,5.85,0,0,1,156.33,160.65Zm.67,0c0,.14,0,.29,0,.46a4.6,4.6,0,0,0,.06.52,4.77,4.77,0,0,0,.13.51,1.67,1.67,0,0,0,.23.44,1,1,0,0,0,.82.42,1,1,0,0,0,.48-.12,1.07,1.07,0,0,0,.34-.3,2,2,0,0,0,.22-.44,3.18,3.18,0,0,0,.13-.51,4.6,4.6,0,0,0,.06-.52c0-.17,0-.32,0-.46s0-.29,0-.46a4.35,4.35,0,0,0-.06-.52,3.18,3.18,0,0,0-.13-.51,2,2,0,0,0-.22-.44,1.24,1.24,0,0,0-.34-.31,1.06,1.06,0,0,0-.48-.11,1,1,0,0,0-.48.11,1,1,0,0,0-.34.31,1.67,1.67,0,0,0-.23.44,4.77,4.77,0,0,0-.13.51,4.35,4.35,0,0,0-.06.52C157,160.36,157,160.51,157,160.65Z"/><circle class="cls-4" cx="149.97" cy="137.48" r="37.91"/><path d="M152.23,178.16a1.48,1.48,0,0,1,.12-.61,1.62,1.62,0,0,1,.34-.47,2,2,0,0,1,.52-.3,1.85,1.85,0,0,1,.63-.1,2,2,0,0,1,.65.1,2.14,2.14,0,0,1,.51.3,1.62,1.62,0,0,1,.34.47,1.48,1.48,0,0,1,.12.61,1.44,1.44,0,0,1-.06.4,1.55,1.55,0,0,1-.19.36,1.18,1.18,0,0,1-.29.3,1,1,0,0,1-.39.18v0a1.5,1.5,0,0,1,.47.19,1.34,1.34,0,0,1,.35.32,1.4,1.4,0,0,1,.22.44,1.42,1.42,0,0,1,.08.5,1.59,1.59,0,0,1-.14.7,1.52,1.52,0,0,1-.38.52,1.66,1.66,0,0,1-.58.33,2.31,2.31,0,0,1-1.41,0,1.66,1.66,0,0,1-.58-.33,1.52,1.52,0,0,1-.38-.52,1.59,1.59,0,0,1-.14-.7,1.42,1.42,0,0,1,.08-.5,1.65,1.65,0,0,1,.22-.44,1.34,1.34,0,0,1,.35-.32,1.5,1.5,0,0,1,.47-.19v0a1,1,0,0,1-.39-.18,1.18,1.18,0,0,1-.29-.3,1.55,1.55,0,0,1-.19-.36A1.44,1.44,0,0,1,152.23,178.16Zm.48,2.67a1.15,1.15,0,0,0,.33.81,1.05,1.05,0,0,0,.36.23,1.12,1.12,0,0,0,.44.09,1.13,1.13,0,0,0,.45-.09,1.16,1.16,0,0,0,.36-.23,1.18,1.18,0,0,0,.24-1.27,1,1,0,0,0-.24-.35,1.41,1.41,0,0,0-.36-.24,1.28,1.28,0,0,0-.89,0,1.26,1.26,0,0,0-.36.24,1,1,0,0,0-.24.35A1.14,1.14,0,0,0,152.71,180.83Zm.19-2.64a.94.94,0,0,0,.26.67,1,1,0,0,0,1.37,0,.94.94,0,0,0,.26-.67.92.92,0,0,0-.26-.67,1,1,0,0,0-1.37,0A.92.92,0,0,0,152.9,178.19Z"/><path d="M156.33,179.6a5.85,5.85,0,0,1,.08-1,3.13,3.13,0,0,1,.29-.94,2,2,0,0,1,.59-.71,1.82,1.82,0,0,1,1.91,0,1.94,1.94,0,0,1,.59.71,3.45,3.45,0,0,1,.3.94,7.07,7.07,0,0,1,.08,1,7,7,0,0,1-.08,1,3.41,3.41,0,0,1-.3,1,1.83,1.83,0,0,1-.59.7,1.77,1.77,0,0,1-1.91,0,1.92,1.92,0,0,1-.59-.7,3.1,3.1,0,0,1-.29-1A5.77,5.77,0,0,1,156.33,179.6Zm.67,0c0,.14,0,.3,0,.47a4.43,4.43,0,0,0,.06.51,3.8,3.8,0,0,0,.13.51,1.53,1.53,0,0,0,.23.44,1,1,0,0,0,.34.31.9.9,0,0,0,.48.12,1,1,0,0,0,.48-.12,1.24,1.24,0,0,0,.34-.31,1.81,1.81,0,0,0,.22-.44,2.72,2.72,0,0,0,.13-.51,4.43,4.43,0,0,0,.06-.51c0-.17,0-.33,0-.47s0-.29,0-.46a4.88,4.88,0,0,0-.06-.52,2.83,2.83,0,0,0-.13-.5,1.65,1.65,0,0,0-.22-.44,1.1,1.1,0,0,0-.34-.31,1,1,0,0,0-.48-.12.9.9,0,0,0-.48.12.92.92,0,0,0-.34.31,1.41,1.41,0,0,0-.23.44,4.07,4.07,0,0,0-.13.5,4.88,4.88,0,0,0-.06.52C157,179.31,157,179.46,157,179.6Z"/><circle class="cls-4" cx="149.97" cy="137.48" r="56.92"/><path d="M154.5,201.44h-.67v-4.8h0l-1,.86-.4-.49,1.52-1.23h.58Z"/><path d="M156.42,200.67l2.14-2.08.35-.35a3.14,3.14,0,0,0,.25-.32,1,1,0,0,0,.15-.33,1.38,1.38,0,0,0,.05-.37,1,1,0,0,0-.08-.4,1,1,0,0,0-.22-.3,1.13,1.13,0,0,0-.73-.26,1,1,0,0,0-.72.25,1.19,1.19,0,0,0-.36.65l-.72-.06a1.53,1.53,0,0,1,.21-.61,1.41,1.41,0,0,1,.39-.45,1.87,1.87,0,0,1,.53-.26,1.91,1.91,0,0,1,.64-.1,2.41,2.41,0,0,1,.67.1,1.67,1.67,0,0,1,.54.3,1.26,1.26,0,0,1,.38.47,1.6,1.6,0,0,1,.14.67,2,2,0,0,1-.09.61,2.34,2.34,0,0,1-.25.5,3.47,3.47,0,0,1-.35.43c-.13.14-.27.27-.41.4l-1.75,1.64v0h2.89v.62h-3.65Z"/><path d="M160.77,198.61a7.07,7.07,0,0,1,.08-1,3.52,3.52,0,0,1,.3-1,1.91,1.91,0,0,1,.59-.7,1.57,1.57,0,0,1,.95-.28,1.61,1.61,0,0,1,1,.28,2,2,0,0,1,.59.7,3.19,3.19,0,0,1,.29,1,6.29,6.29,0,0,1,0,2,3.19,3.19,0,0,1-.29.95,2,2,0,0,1-.59.7,1.54,1.54,0,0,1-1,.28,1.51,1.51,0,0,1-.95-.28,1.91,1.91,0,0,1-.59-.7,3.52,3.52,0,0,1-.3-.95A7.07,7.07,0,0,1,160.77,198.61Zm.68,0c0,.14,0,.29,0,.47a4.43,4.43,0,0,0,.06.51,3.18,3.18,0,0,0,.13.51,2,2,0,0,0,.22.44,1.24,1.24,0,0,0,.34.31,1.06,1.06,0,0,0,.48.11,1,1,0,0,0,.48-.11,1,1,0,0,0,.34-.31,1.67,1.67,0,0,0,.23-.44,4.77,4.77,0,0,0,.13-.51c0-.17,0-.34.06-.51s0-.33,0-.47,0-.29,0-.46,0-.35-.06-.52a4.77,4.77,0,0,0-.13-.51,1.67,1.67,0,0,0-.23-.44,1,1,0,0,0-.34-.31,1,1,0,0,0-.48-.11,1.06,1.06,0,0,0-.48.11,1.24,1.24,0,0,0-.34.31,2,2,0,0,0-.22.44,3.18,3.18,0,0,0-.13.51,4.6,4.6,0,0,0-.06.52C161.45,198.32,161.45,198.47,161.45,198.61Z"/><circle class="cls-4" cx="149.97" cy="137.48" r="75.92"/><path d="M154.5,220.45h-.67v-4.8h0l-1,.86-.4-.49,1.52-1.23h.58Z"/><path d="M157.65,217.15h0A1.07,1.07,0,0,1,158,217a1.84,1.84,0,0,1,.39,0,1.91,1.91,0,0,1,.68.12,1.62,1.62,0,0,1,.55.37,1.52,1.52,0,0,1,.35.56,1.88,1.88,0,0,1,.13.72,2,2,0,0,1-.14.75,1.69,1.69,0,0,1-.4.55,1.74,1.74,0,0,1-.61.35,2.2,2.2,0,0,1-1.49,0,1.84,1.84,0,0,1-.61-.35,1.69,1.69,0,0,1-.4-.55,2,2,0,0,1-.14-.75,2.22,2.22,0,0,1,.15-.85,4,4,0,0,1,.39-.74l1.5-2.39h.78Zm.6.42a1.28,1.28,0,0,0-.48.09,1,1,0,0,0-.39.24,1,1,0,0,0-.26.38,1.1,1.1,0,0,0-.1.49,1.15,1.15,0,0,0,.1.5,1.12,1.12,0,0,0,.26.38,1.28,1.28,0,0,0,.39.24,1.48,1.48,0,0,0,1,0,1.23,1.23,0,0,0,.38-.24,1.12,1.12,0,0,0,.26-.38,1.15,1.15,0,0,0,.1-.5,1.1,1.1,0,0,0-.1-.49,1,1,0,0,0-.26-.38,1,1,0,0,0-.38-.24A1.28,1.28,0,0,0,158.25,217.57Z"/><path d="M160.77,217.62a7.07,7.07,0,0,1,.08-1,3.52,3.52,0,0,1,.3-1,1.91,1.91,0,0,1,.59-.7,1.51,1.51,0,0,1,.95-.28,1.54,1.54,0,0,1,1,.28,2,2,0,0,1,.59.7,3.19,3.19,0,0,1,.29,1,6.29,6.29,0,0,1,0,2,3.19,3.19,0,0,1-.29.95,2,2,0,0,1-.59.7,1.54,1.54,0,0,1-1,.28,1.51,1.51,0,0,1-.95-.28,1.91,1.91,0,0,1-.59-.7,3.52,3.52,0,0,1-.3-.95A7.07,7.07,0,0,1,160.77,217.62Zm.68,0c0,.14,0,.29,0,.46a4.6,4.6,0,0,0,.06.52,3.18,3.18,0,0,0,.13.51,2,2,0,0,0,.22.44,1.43,1.43,0,0,0,.34.31,1.06,1.06,0,0,0,.48.11,1,1,0,0,0,.48-.11,1.13,1.13,0,0,0,.34-.31,1.67,1.67,0,0,0,.23-.44,4.77,4.77,0,0,0,.13-.51c0-.17,0-.35.06-.52s0-.32,0-.46,0-.29,0-.46,0-.35-.06-.52a4.77,4.77,0,0,0-.13-.51,1.67,1.67,0,0,0-.23-.44,1,1,0,0,0-.34-.31,1,1,0,0,0-.48-.11,1.06,1.06,0,0,0-.48.11,1.24,1.24,0,0,0-.34.31,2,2,0,0,0-.22.44,3.18,3.18,0,0,0-.13.51,4.35,4.35,0,0,0-.06.52C161.45,217.33,161.45,217.48,161.45,217.62Z"/><circle class="cls-4" cx="149.97" cy="137.48" r="94.93"/><line class="cls-4" x1="55.04" y1="137.53" x2="244.96" y2="137.53"/><line class="cls-4" x1="149.97" y1="232.46" x2="149.97" y2="42.55"/><line class="cls-4" x1="95.22" y1="42.55" x2="204.78" y2="232.46"/><line class="cls-4" x1="95.22" y1="232.46" x2="204.78" y2="42.55"/><line class="cls-4" x1="55.04" y1="82.72" x2="244.96" y2="192.29"/><line class="cls-4" x1="55.04" y1="192.29" x2="244.96" y2="82.72"/><line class="cls-1" x1="149.97" y1="152.17" x2="150.51" y2="152.17"/><line class="cls-1" x1="150.51" y1="152.17" x2="151" y2="152.17"/><line class="cls-1" x1="151" y1="152.17" x2="151.49" y2="152.06"/><line class="cls-1" x1="151.49" y1="152.06" x2="152.03" y2="151.95"/><line class="cls-1" x1="152.03" y1="151.95" x2="152.51" y2="151.79"/><line class="cls-1" x1="152.51" y1="151.79" x2="153" y2="151.63"/><line class="cls-1" x1="153" y1="151.63" x2="153.43" y2="151.46"/><line class="cls-1" x1="153.43" y1="151.46" x2="153.91" y2="151.19"/><line class="cls-1" x1="153.91" y1="151.19" x2="154.35" y2="150.98"/><line class="cls-1" x1="154.35" y1="150.98" x2="154.78" y2="150.71"/><line class="cls-1" x1="154.78" y1="150.71" x2="155.21" y2="150.38"/><line class="cls-1" x1="155.21" y1="150.38" x2="155.59" y2="150.06"/><line class="cls-1" x1="155.59" y1="150.06" x2="155.91" y2="149.68"/><line class="cls-1" x1="155.91" y1="149.68" x2="156.24" y2="149.3"/><line class="cls-1" x1="156.24" y1="149.3" x2="156.56" y2="148.87"/><line class="cls-1" x1="156.56" y1="148.87" x2="156.83" y2="148.44"/><line class="cls-1" x1="156.83" y1="148.44" x2="157.05" y2="148.01"/><line class="cls-1" x1="157.05" y1="148.01" x2="157.26" y2="147.52"/><line class="cls-1" x1="157.26" y1="147.52" x2="157.43" y2="147.04"/><line class="cls-1" x1="157.43" y1="147.04" x2="157.59" y2="146.55"/><line class="cls-1" x1="157.59" y1="146.55" x2="157.69" y2="146.06"/><line class="cls-1" x1="157.69" y1="146.06" x2="157.75" y2="145.52"/><line class="cls-1" x1="157.75" y1="145.52" x2="157.8" y2="145.04"/><line class="cls-1" x1="157.8" y1="145.04" x2="157.8" y2="144.55"/><line class="cls-1" x1="157.8" y1="144.55" x2="157.75" y2="144.01"/><line class="cls-1" x1="157.75" y1="144.01" x2="157.69" y2="143.53"/><line class="cls-1" x1="157.69" y1="143.53" x2="157.59" y2="142.99"/><line class="cls-1" x1="157.59" y1="142.99" x2="157.43" y2="142.5"/><line class="cls-1" x1="157.43" y1="142.5" x2="157.26" y2="142.01"/><line class="cls-1" x1="157.26" y1="142.01" x2="157.05" y2="141.53"/><line class="cls-1" x1="157.05" y1="141.53" x2="156.78" y2="141.1"/><line class="cls-1" x1="156.78" y1="141.1" x2="156.51" y2="140.66"/><line class="cls-1" x1="156.51" y1="140.66" x2="156.24" y2="140.29"/><line class="cls-1" x1="156.24" y1="140.29" x2="155.91" y2="139.91"/><line class="cls-1" x1="155.91" y1="139.91" x2="155.64" y2="139.53"/><line class="cls-1" x1="155.64" y1="139.53" x2="155.43" y2="139.26"/><line class="cls-1" x1="155.43" y1="139.26" x2="155.16" y2="138.99"/><line class="cls-1" x1="155.16" y1="138.99" x2="155.21" y2="138.77"/><line class="cls-1" x1="155.21" y1="138.77" x2="155.43" y2="138.67"/><line class="cls-1" x1="155.43" y1="138.67" x2="155.86" y2="138.5"/><line class="cls-1" x1="155.86" y1="138.5" x2="156.4" y2="138.4"/><line class="cls-1" x1="156.4" y1="138.4" x2="157.21" y2="138.23"/><line class="cls-1" x1="157.21" y1="138.23" x2="158.02" y2="138.02"/><line class="cls-1" x1="158.02" y1="138.02" x2="155.64" y2="137.69"/><line class="cls-1" x1="155.64" y1="137.69" x2="159.91" y2="137.53"/><line class="cls-1" x1="159.91" y1="137.53" x2="168.71" y2="136.88"/><line class="cls-1" x1="168.71" y1="136.88" x2="183.89" y2="135.16"/><line class="cls-1" x1="183.89" y1="135.16" x2="196.58" y2="132.62"/><line class="cls-1" x1="196.58" y1="132.62" x2="214.23" y2="128.51"/><line class="cls-1" x1="214.23" y1="128.51" x2="223.04" y2="124.63"/><line class="cls-1" x1="223.04" y1="124.63" x2="226.17" y2="121.33"/><line class="cls-1" x1="226.17" y1="121.33" x2="219.58" y2="120.2"/><line class="cls-1" x1="219.58" y1="120.2" x2="221.9" y2="116.9"/><line class="cls-1" x1="221.9" y1="116.9" x2="230.43" y2="111.4"/><line class="cls-1" x1="230.43" y1="111.4" x2="234.05" y2="106.91"/><line class="cls-1" x1="234.05" y1="106.91" x2="235.29" y2="103.08"/><line class="cls-1" x1="235.29" y1="103.08" x2="233.56" y2="100.33"/><line class="cls-1" x1="233.56" y1="100.33" x2="231.84" y2="97.63"/><line class="cls-1" x1="231.84" y1="97.63" x2="228.6" y2="95.74"/><line class="cls-1" x1="228.6" y1="95.74" x2="225.57" y2="93.9"/><line class="cls-1" x1="225.57" y1="93.9" x2="222.28" y2="92.33"/><line class="cls-1" x1="222.28" y1="92.33" x2="218.82" y2="91.09"/><line class="cls-1" x1="218.82" y1="91.09" x2="215.37" y2="90.01"/><line class="cls-1" x1="215.37" y1="90.01" x2="212.02" y2="89.04"/><line class="cls-1" x1="212.02" y1="89.04" x2="208.24" y2="88.61"/><line class="cls-1" x1="208.24" y1="88.61" x2="204.14" y2="88.77"/><line class="cls-1" x1="204.14" y1="88.77" x2="200.46" y2="88.77"/><line class="cls-1" x1="200.46" y1="88.77" x2="194.25" y2="91.69"/><line class="cls-1" x1="194.25" y1="91.69" x2="184.96" y2="98.65"/><line class="cls-1" x1="184.96" y1="98.65" x2="178.11" y2="104"/><line class="cls-1" x1="178.11" y1="104" x2="172.33" y2="108.91"/><line class="cls-1" x1="172.33" y1="108.91" x2="167.2" y2="113.83"/><line class="cls-1" x1="167.2" y1="113.83" x2="164.34" y2="116.26"/><line class="cls-1" x1="164.34" y1="116.26" x2="163.85" y2="115.34"/><line class="cls-1" x1="163.85" y1="115.34" x2="162.72" y2="115.45"/><line class="cls-1" x1="162.72" y1="115.45" x2="161.69" y2="115.5"/><line class="cls-1" x1="161.69" y1="115.5" x2="160.72" y2="115.45"/><line class="cls-1" x1="160.72" y1="115.45" x2="159.69" y2="115.72"/><line class="cls-1" x1="159.69" y1="115.72" x2="158.61" y2="116.2"/><line class="cls-1" x1="158.61" y1="116.2" x2="157.59" y2="116.63"/><line class="cls-1" x1="157.59" y1="116.63" x2="156.61" y2="117.07"/><line class="cls-1" x1="156.61" y1="117.07" x2="155.75" y2="117.34"/><line class="cls-1" x1="155.75" y1="117.34" x2="154.78" y2="118.31"/><line class="cls-1" x1="154.78" y1="118.31" x2="153.64" y2="120.31"/><line class="cls-1" x1="153.64" y1="120.31" x2="152.84" y2="121.44"/><line class="cls-1" x1="152.84" y1="121.44" x2="152.13" y2="122.03"/><line class="cls-1" x1="152.13" y1="122.03" x2="151.59" y2="121.87"/><line class="cls-1" x1="151.59" y1="121.87" x2="151.05" y2="122.14"/><line class="cls-1" x1="151.05" y1="122.14" x2="150.51" y2="122.47"/><line class="cls-1" x1="150.51" y1="122.47" x2="149.97" y2="122.79"/><line class="cls-1" x1="149.97" y1="152.17" x2="149.54" y2="152.17"/><line class="cls-1" x1="149.54" y1="152.17" x2="149" y2="152.11"/><line class="cls-1" x1="149" y1="152.11" x2="148.51" y2="152.06"/><line class="cls-1" x1="148.51" y1="152.06" x2="147.98" y2="151.9"/><line class="cls-1" x1="147.98" y1="151.9" x2="147.49" y2="151.79"/><line class="cls-1" x1="147.49" y1="151.79" x2="147" y2="151.57"/><line class="cls-1" x1="147" y1="151.57" x2="146.57" y2="151.36"/><line class="cls-1" x1="146.57" y1="151.36" x2="146.09" y2="151.14"/><line class="cls-1" x1="146.09" y1="151.14" x2="145.65" y2="150.87"/><line class="cls-1" x1="145.65" y1="150.87" x2="145.28" y2="150.55"/><line class="cls-1" x1="145.28" y1="150.55" x2="144.9" y2="150.22"/><line class="cls-1" x1="144.9" y1="150.22" x2="144.52" y2="149.9"/><line class="cls-1" x1="144.52" y1="149.9" x2="144.14" y2="149.52"/><line class="cls-1" x1="144.14" y1="149.52" x2="143.82" y2="149.14"/><line class="cls-1" x1="143.82" y1="149.14" x2="143.55" y2="148.71"/><line class="cls-1" x1="143.55" y1="148.71" x2="143.28" y2="148.28"/><line class="cls-1" x1="143.28" y1="148.28" x2="143.06" y2="147.79"/><line class="cls-1" x1="143.06" y1="147.79" x2="142.84" y2="147.36"/><line class="cls-1" x1="142.84" y1="147.36" x2="142.68" y2="146.87"/><line class="cls-1" x1="142.68" y1="146.87" x2="142.58" y2="146.39"/><line class="cls-1" x1="142.58" y1="146.39" x2="142.47" y2="145.85"/><line class="cls-1" x1="142.47" y1="145.85" x2="142.41" y2="145.36"/><line class="cls-1" x1="142.41" y1="145.36" x2="142.41" y2="144.82"/><line class="cls-1" x1="142.41" y1="144.82" x2="142.41" y2="144.34"/><line class="cls-1" x1="142.41" y1="144.34" x2="142.47" y2="143.85"/><line class="cls-1" x1="142.47" y1="143.85" x2="142.58" y2="143.31"/><line class="cls-1" x1="142.58" y1="143.31" x2="142.68" y2="142.82"/><line class="cls-1" x1="142.68" y1="142.82" x2="142.84" y2="142.34"/><line class="cls-1" x1="142.84" y1="142.34" x2="143.06" y2="141.85"/><line class="cls-1" x1="143.06" y1="141.85" x2="143.28" y2="141.37"/><line class="cls-1" x1="143.28" y1="141.37" x2="143.49" y2="140.93"/><line class="cls-1" x1="143.49" y1="140.93" x2="143.76" y2="140.5"/><line class="cls-1" x1="143.76" y1="140.5" x2="144.03" y2="140.12"/><line class="cls-1" x1="144.03" y1="140.12" x2="144.36" y2="139.75"/><line class="cls-1" x1="144.36" y1="139.75" x2="144.57" y2="139.48"/><line class="cls-1" x1="144.57" y1="139.48" x2="144.74" y2="139.21"/><line class="cls-1" x1="144.74" y1="139.21" x2="144.9" y2="138.94"/><line class="cls-1" x1="144.9" y1="138.94" x2="144.84" y2="138.77"/><line class="cls-1" x1="144.84" y1="138.77" x2="144.68" y2="138.61"/><line class="cls-1" x1="144.68" y1="138.61" x2="144.19" y2="138.5"/><line class="cls-1" x1="144.19" y1="138.5" x2="143.49" y2="138.4"/><line class="cls-1" x1="143.49" y1="138.4" x2="142.47" y2="138.29"/><line class="cls-1" x1="142.47" y1="138.29" x2="141.55" y2="138.07"/><line class="cls-1" x1="141.55" y1="138.07" x2="142.25" y2="137.75"/><line class="cls-1" x1="142.25" y1="137.75" x2="139.6" y2="137.53"/><line class="cls-1" x1="139.6" y1="137.53" x2="134.64" y2="136.99"/><line class="cls-1" x1="134.64" y1="136.99" x2="126.65" y2="135.91"/><line class="cls-1" x1="126.65" y1="135.91" x2="119.3" y2="134.29"/><line class="cls-1" x1="119.3" y1="134.29" x2="108.61" y2="131.7"/><line class="cls-1" x1="108.61" y1="131.7" x2="103.1" y2="129.27"/><line class="cls-1" x1="103.1" y1="129.27" x2="100.83" y2="127.06"/><line class="cls-1" x1="100.83" y1="127.06" x2="104.07" y2="126.08"/><line class="cls-1" x1="104.07" y1="126.08" x2="102.62" y2="123.92"/><line class="cls-1" x1="102.62" y1="123.92" x2="98.51" y2="120.79"/><line class="cls-1" x1="98.51" y1="120.79" x2="96.08" y2="117.88"/><line class="cls-1" x1="96.08" y1="117.88" x2="94.41" y2="115.07"/><line class="cls-1" x1="94.41" y1="115.07" x2="93.54" y2="112.37"/><line class="cls-1" x1="93.54" y1="112.37" x2="93.11" y2="109.78"/><line class="cls-1" x1="93.11" y1="109.78" x2="93.16" y2="107.29"/><line class="cls-1" x1="93.16" y1="107.29" x2="93.92" y2="105.13"/><line class="cls-1" x1="93.92" y1="105.13" x2="95.27" y2="103.35"/><line class="cls-1" x1="95.27" y1="103.35" x2="97.38" y2="102"/><line class="cls-1" x1="97.38" y1="102" x2="99.48" y2="100.81"/><line class="cls-1" x1="99.48" y1="100.81" x2="101.75" y2="99.84"/><line class="cls-1" x1="101.75" y1="99.84" x2="104.45" y2="99.3"/><line class="cls-1" x1="104.45" y1="99.3" x2="107.42" y2="99.19"/><line class="cls-1" x1="107.42" y1="99.19" x2="110.34" y2="99.25"/><line class="cls-1" x1="110.34" y1="99.25" x2="114.66" y2="100.92"/><line class="cls-1" x1="114.66" y1="100.92" x2="120.65" y2="104.92"/><line class="cls-1" x1="120.65" y1="104.92" x2="125.35" y2="108.16"/><line class="cls-1" x1="125.35" y1="108.16" x2="129.4" y2="111.13"/><line class="cls-1" x1="129.4" y1="111.13" x2="133.18" y2="114.31"/><line class="cls-1" x1="133.18" y1="114.31" x2="135.34" y2="115.77"/><line class="cls-1" x1="135.34" y1="115.77" x2="135.93" y2="114.96"/><line class="cls-1" x1="135.93" y1="114.96" x2="136.96" y2="114.91"/><line class="cls-1" x1="136.96" y1="114.91" x2="137.99" y2="114.91"/><line class="cls-1" x1="137.99" y1="114.91" x2="139.01" y2="114.91"/><line class="cls-1" x1="139.01" y1="114.91" x2="140.04" y2="115.12"/><line class="cls-1" x1="140.04" y1="115.12" x2="141.12" y2="115.5"/><line class="cls-1" x1="141.12" y1="115.5" x2="142.2" y2="115.99"/><line class="cls-1" x1="142.2" y1="115.99" x2="143.17" y2="116.47"/><line class="cls-1" x1="143.17" y1="116.47" x2="144.14" y2="116.96"/><line class="cls-1" x1="144.14" y1="116.96" x2="145.11" y2="117.88"/><line class="cls-1" x1="145.11" y1="117.88" x2="146.25" y2="119.66"/><line class="cls-1" x1="146.25" y1="119.66" x2="147.06" y2="120.68"/><line class="cls-1" x1="147.06" y1="120.68" x2="147.76" y2="121.39"/><line class="cls-1" x1="147.76" y1="121.39" x2="148.35" y2="121.44"/><line class="cls-1" x1="148.35" y1="121.44" x2="148.95" y2="121.87"/><line class="cls-1" x1="148.95" y1="121.87" x2="149.49" y2="122.3"/><line class="cls-1" x1="149.49" y1="122.3" x2="149.97" y2="122.79"/><line class="cls-1" x1="149.97" y1="152.17" x2="150.24" y2="152.17"/><line class="cls-1" x1="151.54" y1="152.06" x2="151.75" y2="152"/><line class="cls-1" x1="153" y1="151.63" x2="153" y2="151.63"/><line class="cls-1" x1="153" y1="151.63" x2="153.21" y2="151.52"/><line class="cls-1" x1="154.35" y1="150.92" x2="154.35" y2="150.92"/><line class="cls-1" x1="154.35" y1="150.92" x2="154.56" y2="150.76"/><line class="cls-1" x1="155.59" y1="149.95" x2="155.75" y2="149.79"/><line class="cls-1" x1="156.56" y1="148.76" x2="156.67" y2="148.55"/><line class="cls-1" x1="157.26" y1="147.47" x2="157.26" y2="147.47"/><line class="cls-1" x1="157.26" y1="147.47" x2="157.32" y2="147.25"/><line class="cls-1" x1="157.64" y1="146.01" x2="157.64" y2="146.01"/><line class="cls-1" x1="157.64" y1="146.01" x2="157.69" y2="145.79"/><line class="cls-1" x1="157.8" y1="144.5" x2="157.8" y2="144.23"/><line class="cls-1" x1="157.59" y1="142.93" x2="157.48" y2="142.72"/><line class="cls-1" x1="157.05" y1="141.53" x2="157.05" y2="141.53"/><line class="cls-1" x1="157.05" y1="141.53" x2="156.89" y2="141.31"/><line class="cls-1" x1="156.18" y1="140.23" x2="156.02" y2="140.02"/><line class="cls-1" x1="155.26" y1="138.99" x2="155.26" y2="138.99"/><line class="cls-1" x1="155.26" y1="138.99" x2="155.37" y2="138.83"/><line class="cls-1" x1="155.37" y1="138.83" x2="155.43" y2="138.77"/><line class="cls-1" x1="156.61" y1="138.4" x2="156.61" y2="138.4"/><line class="cls-1" x1="156.61" y1="138.4" x2="156.83" y2="138.34"/><line class="cls-1" x1="157.96" y1="138.02" x2="157.75" y2="137.96"/><line class="cls-1" x1="156.45" y1="137.8" x2="156.24" y2="137.75"/><line class="cls-1" x1="155.59" y1="137.64" x2="155.86" y2="137.64"/><line class="cls-1" x1="157.15" y1="137.59" x2="157.43" y2="137.59"/><line class="cls-1" x1="158.72" y1="137.53" x2="158.99" y2="137.53"/><line class="cls-1" x1="160.29" y1="137.42" x2="160.56" y2="137.42"/><line class="cls-1" x1="161.85" y1="137.32" x2="162.12" y2="137.32"/><line class="cls-1" x1="163.42" y1="137.21" x2="163.69" y2="137.21"/><line class="cls-1" x1="164.99" y1="137.1" x2="165.25" y2="137.1"/><line class="cls-1" x1="166.55" y1="136.99" x2="166.82" y2="136.99"/><line class="cls-1" x1="168.12" y1="136.83" x2="168.39" y2="136.83"/><line class="cls-1" x1="169.68" y1="136.67" x2="169.95" y2="136.67"/><line class="cls-1" x1="171.25" y1="136.51" x2="171.46" y2="136.45"/><line class="cls-1" x1="172.76" y1="136.34" x2="172.98" y2="136.29"/><line class="cls-1" x1="174.27" y1="136.18" x2="174.49" y2="136.13"/><line class="cls-1" x1="175.79" y1="136.02" x2="176" y2="135.97"/><line class="cls-1" x1="177.3" y1="135.8" x2="177.57" y2="135.8"/><line class="cls-1" x1="178.86" y1="135.64" x2="179.13" y2="135.64"/><line class="cls-1" x1="180.43" y1="135.48" x2="180.7" y2="135.43"/><line class="cls-1" x1="181.99" y1="135.32" x2="182.21" y2="135.26"/><line class="cls-1" x1="183.45" y1="134.99" x2="183.67" y2="134.94"/><line class="cls-1" x1="184.91" y1="134.72" x2="185.13" y2="134.67"/><line class="cls-1" x1="186.37" y1="134.4" x2="186.59" y2="134.35"/><line class="cls-1" x1="187.83" y1="134.13" x2="188.04" y2="134.08"/><line class="cls-1" x1="189.29" y1="133.81" x2="189.5" y2="133.75"/><line class="cls-1" x1="190.74" y1="133.54" x2="190.96" y2="133.48"/><line class="cls-1" x1="192.2" y1="133.21" x2="192.42" y2="133.16"/><line class="cls-1" x1="193.66" y1="132.94" x2="193.88" y2="132.89"/><line class="cls-1" x1="195.12" y1="132.56" x2="195.33" y2="132.51"/><line class="cls-1" x1="196.58" y1="132.24" x2="196.79" y2="132.19"/><line class="cls-1" x1="198.03" y1="131.86" x2="198.25" y2="131.81"/><line class="cls-1" x1="199.49" y1="131.54" x2="199.71" y2="131.48"/><line class="cls-1" x1="200.95" y1="131.16" x2="201.16" y2="131.11"/><line class="cls-1" x1="202.41" y1="130.78" x2="202.68" y2="130.73"/><line class="cls-1" x1="203.92" y1="130.46" x2="204.14" y2="130.4"/><line class="cls-1" x1="205.38" y1="130.08" x2="205.59" y2="130.03"/><line class="cls-1" x1="206.84" y1="129.76" x2="207.05" y2="129.7"/><line class="cls-1" x1="208.29" y1="129.38" x2="208.51" y2="129.32"/><line class="cls-1" x1="209.7" y1="128.84" x2="209.91" y2="128.73"/><line class="cls-1" x1="211.05" y1="128.19" x2="211.26" y2="128.08"/><line class="cls-1" x1="212.45" y1="127.6" x2="212.67" y2="127.49"/><line class="cls-1" x1="213.8" y1="126.95" x2="214.02" y2="126.84"/><line class="cls-1" x1="215.21" y1="126.35" x2="215.42" y2="126.25"/><line class="cls-1" x1="216.5" y1="125.54" x2="216.66" y2="125.38"/><line class="cls-1" x1="217.58" y1="124.41" x2="217.74" y2="124.19"/><line class="cls-1" x1="218.66" y1="123.22" x2="218.82" y2="123.01"/><line class="cls-1" x1="217.96" y1="122.63" x2="217.74" y2="122.57"/><line class="cls-1" x1="216.5" y1="122.36" x2="216.29" y2="122.3"/><line class="cls-1" x1="215.04" y1="122.03" x2="214.77" y2="121.98"/><line class="cls-1" x1="213.53" y1="121.76" x2="213.31" y2="121.71"/><line class="cls-1" x1="214.02" y1="120.63" x2="214.13" y2="120.41"/><line class="cls-1" x1="214.83" y1="119.33" x2="214.99" y2="119.12"/><line class="cls-1" x1="215.96" y1="118.31" x2="216.12" y2="118.15"/><line class="cls-1" x1="217.2" y1="117.44" x2="217.36" y2="117.28"/><line class="cls-1" x1="218.44" y1="116.58" x2="218.61" y2="116.42"/><line class="cls-1" x1="219.69" y1="115.72" x2="219.85" y2="115.55"/><line class="cls-1" x1="220.93" y1="114.85" x2="221.09" y2="114.69"/><line class="cls-1" x1="222.12" y1="113.88" x2="222.28" y2="113.66"/><line class="cls-1" x1="223.09" y1="112.64" x2="223.25" y2="112.42"/><line class="cls-1" x1="224.06" y1="111.4" x2="224.22" y2="111.18"/><line class="cls-1" x1="224.98" y1="110.15" x2="225.09" y2="109.94"/><line class="cls-1" x1="225.57" y1="108.75" x2="225.68" y2="108.53"/><line class="cls-1" x1="226.17" y1="107.35" x2="226.22" y2="107.13"/><line class="cls-1" x1="226.28" y1="105.94" x2="226.22" y2="105.73"/><line class="cls-1" x1="226.01" y1="104.48" x2="225.95" y2="104.27"/><line class="cls-1" x1="225.57" y1="103.03" x2="225.52" y2="102.81"/><line class="cls-1" x1="225.14" y1="101.62" x2="225.09" y2="101.41"/><line class="cls-1" x1="224.44" y1="100.33" x2="224.28" y2="100.16"/><line class="cls-1" x1="223.52" y1="99.14" x2="223.36" y2="98.92"/><line class="cls-1" x1="222.39" y1="98.06" x2="222.17" y2="97.9"/><line class="cls-1" x1="221.14" y1="97.09" x2="220.93" y2="96.92"/><line class="cls-1" x1="219.79" y1="96.33" x2="219.58" y2="96.28"/><line class="cls-1" x1="218.44" y1="95.79" x2="218.23" y2="95.68"/><line class="cls-1" x1="217.04" y1="95.3" x2="216.83" y2="95.25"/><line class="cls-1" x1="215.53" y1="95.09" x2="215.26" y2="95.09"/><line class="cls-1" x1="213.96" y1="94.93" x2="213.75" y2="94.87"/><line class="cls-1" x1="212.51" y1="94.6" x2="212.29" y2="94.55"/><line class="cls-1" x1="211.05" y1="94.22" x2="210.83" y2="94.17"/><line class="cls-1" x1="209.64" y1="93.74" x2="209.48" y2="93.58"/><line class="cls-1" x1="208.51" y1="92.71" x2="208.35" y2="92.55"/><line class="cls-1" x1="207.16" y1="92.23" x2="206.89" y2="92.23"/><line class="cls-1" x1="205.59" y1="92.28" x2="205.32" y2="92.28"/><line class="cls-1" x1="203.97" y1="92.28" x2="203.92" y2="92.28"/><line class="cls-1" x1="203.92" y1="92.28" x2="203.76" y2="92.33"/><line class="cls-1" x1="202.51" y1="92.66" x2="202.3" y2="92.71"/><line class="cls-1" x1="201.06" y1="93.04" x2="200.84" y2="93.09"/><line class="cls-1" x1="199.6" y1="93.41" x2="199.38" y2="93.52"/><line class="cls-1" x1="198.14" y1="93.95" x2="197.93" y2="94.06"/><line class="cls-1" x1="196.79" y1="94.6" x2="196.58" y2="94.71"/><line class="cls-1" x1="195.44" y1="95.25" x2="195.23" y2="95.36"/><line class="cls-1" x1="194.09" y1="95.9" x2="193.88" y2="96.01"/><line class="cls-1" x1="192.74" y1="96.6" x2="192.53" y2="96.71"/><line class="cls-1" x1="191.39" y1="97.3" x2="191.18" y2="97.41"/><line class="cls-1" x1="190.04" y1="98.06" x2="189.83" y2="98.17"/><line class="cls-1" x1="188.69" y1="98.81" x2="188.48" y2="98.92"/><line class="cls-1" x1="187.39" y1="99.52" x2="187.18" y2="99.68"/><line class="cls-1" x1="186.04" y1="100.33" x2="185.83" y2="100.43"/><line class="cls-1" x1="184.8" y1="101.19" x2="184.59" y2="101.35"/><line class="cls-1" x1="183.56" y1="102.11" x2="183.34" y2="102.27"/><line class="cls-1" x1="182.32" y1="103.03" x2="182.16" y2="103.19"/><line class="cls-1" x1="181.13" y1="103.94" x2="180.91" y2="104.11"/><line class="cls-1" x1="179.89" y1="104.86" x2="179.67" y2="105.02"/><line class="cls-1" x1="178.65" y1="105.78" x2="178.49" y2="105.94"/><line class="cls-1" x1="177.46" y1="106.7" x2="177.24" y2="106.86"/><line class="cls-1" x1="176.22" y1="107.62" x2="176" y2="107.78"/><line class="cls-1" x1="174.98" y1="108.59" x2="174.76" y2="108.75"/><line class="cls-1" x1="173.73" y1="109.51" x2="173.52" y2="109.67"/><line class="cls-1" x1="172.49" y1="110.42" x2="172.33" y2="110.59"/><line class="cls-1" x1="171.3" y1="111.34" x2="171.14" y2="111.5"/><line class="cls-1" x1="170.11" y1="112.26" x2="169.9" y2="112.42"/><line class="cls-1" x1="168.87" y1="113.23" x2="168.66" y2="113.34"/><line class="cls-1" x1="167.63" y1="114.1" x2="167.41" y2="114.26"/><line class="cls-1" x1="166.34" y1="115.01" x2="166.12" y2="115.12"/><line class="cls-1" x1="165.04" y1="115.77" x2="164.82" y2="115.88"/><line class="cls-1" x1="163.74" y1="115.72" x2="163.64" y2="115.66"/><line class="cls-1" x1="163.64" y1="115.66" x2="163.53" y2="115.66"/><line class="cls-1" x1="162.18" y1="115.66" x2="161.91" y2="115.66"/><line class="cls-1" x1="160.61" y1="115.55" x2="160.39" y2="115.61"/><line class="cls-1" x1="159.15" y1="115.93" x2="158.94" y2="116.04"/><line class="cls-1" x1="157.8" y1="116.58" x2="157.59" y2="116.69"/><line class="cls-1" x1="156.51" y1="117.39" x2="156.29" y2="117.5"/><line class="cls-1" x1="155.26" y1="118.31" x2="155.1" y2="118.47"/><line class="cls-1" x1="154.29" y1="119.5" x2="154.19" y2="119.71"/><line class="cls-1" x1="153.48" y1="120.79" x2="153.32" y2="121.01"/><line class="cls-1" x1="152.46" y1="121.98" x2="152.29" y2="122.14"/><line class="cls-1" x1="151.11" y1="122.3" x2="151.05" y2="122.3"/><line class="cls-1" x1="151.05" y1="122.3" x2="150.89" y2="122.36"/><line class="cls-1" x1="149.7" y1="152.17" x2="149.54" y2="152.17"/><line class="cls-1" x1="149.54" y1="152.17" x2="149.43" y2="152.17"/><line class="cls-1" x1="148.14" y1="151.95" x2="147.98" y2="151.9"/><line class="cls-1" x1="147.98" y1="151.9" x2="147.92" y2="151.9"/><line class="cls-1" x1="146.73" y1="151.41" x2="146.57" y2="151.36"/><line class="cls-1" x1="146.57" y1="151.36" x2="146.52" y2="151.36"/><line class="cls-1" x1="145.44" y1="150.71" x2="145.22" y2="150.6"/><line class="cls-1" x1="144.25" y1="149.68" x2="144.14" y2="149.57"/><line class="cls-1" x1="144.14" y1="149.57" x2="144.09" y2="149.52"/><line class="cls-1" x1="143.33" y1="148.49" x2="143.22" y2="148.33"/><line class="cls-1" x1="143.22" y1="148.33" x2="143.17" y2="148.28"/><line class="cls-1" x1="142.68" y1="147.09" x2="142.63" y2="146.93"/><line class="cls-1" x1="142.63" y1="146.93" x2="142.63" y2="146.87"/><line class="cls-1" x1="142.3" y1="145.69" x2="142.3" y2="145.47"/><line class="cls-1" x1="142.3" y1="145.47" x2="142.3" y2="145.42"/><line class="cls-1" x1="142.3" y1="144.12" x2="142.3" y2="143.96"/><line class="cls-1" x1="142.3" y1="143.96" x2="142.3" y2="143.85"/><line class="cls-1" x1="142.58" y1="142.61" x2="142.58" y2="142.5"/><line class="cls-1" x1="142.58" y1="142.5" x2="142.63" y2="142.39"/><line class="cls-1" x1="143.11" y1="141.2" x2="143.17" y2="141.1"/><line class="cls-1" x1="143.17" y1="141.1" x2="143.22" y2="140.99"/><line class="cls-1" x1="143.98" y1="139.96" x2="144.03" y2="139.91"/><line class="cls-1" x1="144.03" y1="139.91" x2="144.14" y2="139.75"/><line class="cls-1" x1="144.46" y1="138.77" x2="144.25" y2="138.72"/><line class="cls-1" x1="143.06" y1="138.29" x2="142.84" y2="138.23"/><line class="cls-1" x1="142.84" y1="137.91" x2="143.11" y2="137.86"/><line class="cls-1" x1="144.41" y1="137.69" x2="144.63" y2="137.64"/><line class="cls-1" x1="143.33" y1="137.59" x2="143.06" y2="137.59"/><line class="cls-1" x1="141.76" y1="137.53" x2="141.49" y2="137.53"/><line class="cls-1" x1="140.2" y1="137.48" x2="139.93" y2="137.48"/><line class="cls-1" x1="138.63" y1="137.37" x2="138.36" y2="137.32"/><line class="cls-1" x1="137.07" y1="137.26" x2="136.85" y2="137.21"/><line class="cls-1" x1="135.55" y1="137.1" x2="135.29" y2="137.1"/><line class="cls-1" x1="133.99" y1="136.99" x2="133.72" y2="136.99"/><line class="cls-1" x1="132.42" y1="136.88" x2="132.21" y2="136.83"/><line class="cls-1" x1="130.91" y1="136.67" x2="130.64" y2="136.67"/><line class="cls-1" x1="129.35" y1="136.51" x2="129.08" y2="136.51"/><line class="cls-1" x1="127.78" y1="136.34" x2="127.56" y2="136.29"/><line class="cls-1" x1="126.27" y1="136.18" x2="126.05" y2="136.13"/><line class="cls-1" x1="124.75" y1="136.02" x2="124.54" y2="135.97"/><line class="cls-1" x1="123.24" y1="135.8" x2="122.97" y2="135.8"/><line class="cls-1" x1="121.68" y1="135.64" x2="121.41" y2="135.64"/><line class="cls-1" x1="120.11" y1="135.48" x2="119.9" y2="135.43"/><line class="cls-1" x1="118.6" y1="135.26" x2="118.38" y2="135.21"/><line class="cls-1" x1="117.14" y1="134.94" x2="116.93" y2="134.89"/><line class="cls-1" x1="115.68" y1="134.67" x2="115.47" y2="134.62"/><line class="cls-1" x1="114.23" y1="134.35" x2="113.95" y2="134.29"/><line class="cls-1" x1="112.71" y1="134.08" x2="112.5" y2="134.02"/><line class="cls-1" x1="111.25" y1="133.75" x2="111.04" y2="133.7"/><line class="cls-1" x1="109.8" y1="133.48" x2="109.58" y2="133.43"/><line class="cls-1" x1="108.34" y1="133.16" x2="108.29" y2="133.16"/><line class="cls-1" x1="108.29" y1="133.16" x2="108.12" y2="133.1"/><line class="cls-1" x1="106.88" y1="132.83" x2="106.67" y2="132.78"/><line class="cls-1" x1="105.42" y1="132.46" x2="105.21" y2="132.4"/><line class="cls-1" x1="103.97" y1="132.08" x2="103.75" y2="132.02"/><line class="cls-1" x1="102.51" y1="131.75" x2="102.29" y2="131.7"/><line class="cls-1" x1="101.05" y1="131.38" x2="100.83" y2="131.32"/><line class="cls-1" x1="99.59" y1="131" x2="99.38" y2="130.94"/><line class="cls-1" x1="98.13" y1="130.67" x2="97.92" y2="130.62"/><line class="cls-1" x1="96.68" y1="130.3" x2="96.46" y2="130.24"/><line class="cls-1" x1="95.22" y1="129.92" x2="95" y2="129.86"/><line class="cls-1" x1="93.76" y1="129.49" x2="93.54" y2="129.38"/><line class="cls-1" x1="92.41" y1="128.89" x2="92.19" y2="128.78"/><line class="cls-1" x1="91.06" y1="128.3" x2="90.84" y2="128.19"/><line class="cls-1" x1="89.66" y1="127.65" x2="89.44" y2="127.6"/><line class="cls-1" x1="88.31" y1="127.11" x2="88.09" y2="127"/><line class="cls-1" x1="86.96" y1="126.52" x2="86.74" y2="126.41"/><line class="cls-1" x1="85.71" y1="125.54" x2="85.5" y2="125.38"/><line class="cls-1" x1="84.53" y1="124.52" x2="84.31" y2="124.36"/><line class="cls-1" x1="83.34" y1="123.49" x2="83.12" y2="123.33"/><line class="cls-1" x1="84.26" y1="122.79" x2="84.47" y2="122.68"/><line class="cls-1" x1="85.61" y1="122.14" x2="85.82" y2="122.09"/><line class="cls-1" x1="86.31" y1="121.33" x2="86.15" y2="121.17"/><line class="cls-1" x1="85.39" y1="120.14" x2="85.23" y2="119.93"/><line class="cls-1" x1="84.47" y1="118.9" x2="84.31" y2="118.69"/><line class="cls-1" x1="83.28" y1="117.93" x2="83.07" y2="117.77"/><line class="cls-1" x1="82.04" y1="117.01" x2="81.83" y2="116.85"/><line class="cls-1" x1="80.8" y1="116.09" x2="80.58" y2="115.93"/><line class="cls-1" x1="79.56" y1="115.18" x2="79.34" y2="115.01"/><line class="cls-1" x1="78.31" y1="114.26" x2="78.26" y2="114.2"/><line class="cls-1" x1="78.26" y1="114.2" x2="78.15" y2="114.04"/><line class="cls-1" x1="77.4" y1="113.02" x2="77.24" y2="112.8"/><line class="cls-1" x1="76.48" y1="111.77" x2="76.32" y2="111.56"/><line class="cls-1" x1="75.56" y1="110.53" x2="75.45" y2="110.37"/><line class="cls-1" x1="75.45" y1="110.37" x2="75.45" y2="110.32"/><line class="cls-1" x1="75.02" y1="109.13" x2="74.91" y2="108.91"/><line class="cls-1" x1="74.48" y1="107.72" x2="74.43" y2="107.51"/><line class="cls-1" x1="74.37" y1="106.32" x2="74.43" y2="106.1"/><line class="cls-1" x1="74.75" y1="104.86" x2="74.81" y2="104.65"/><line class="cls-1" x1="75.18" y1="103.46" x2="75.24" y2="103.24"/><line class="cls-1" x1="75.61" y1="102.05" x2="75.67" y2="101.84"/><line class="cls-1" x1="76.32" y1="100.7" x2="76.48" y2="100.49"/><line class="cls-1" x1="77.24" y1="99.41" x2="77.4" y2="99.19"/><line class="cls-1" x1="78.31" y1="98.27" x2="78.53" y2="98.11"/><line class="cls-1" x1="79.5" y1="97.25" x2="79.66" y2="97.09"/><line class="cls-1" x1="80.75" y1="96.38" x2="80.96" y2="96.22"/><line class="cls-1" x1="82.04" y1="95.57" x2="82.26" y2="95.41"/><line class="cls-1" x1="83.45" y1="95.03" x2="83.66" y2="94.98"/><line class="cls-1" x1="84.9" y1="94.66" x2="85.12" y2="94.55"/><line class="cls-1" x1="86.36" y1="94.22" x2="86.58" y2="94.12"/><line class="cls-1" x1="87.76" y1="93.68" x2="87.98" y2="93.63"/><line class="cls-1" x1="89.17" y1="93.2" x2="89.39" y2="93.14"/><line class="cls-1" x1="90.52" y1="92.66" x2="90.74" y2="92.6"/><line class="cls-1" x1="91.92" y1="92.12" x2="91.92" y2="92.12"/><line class="cls-1" x1="91.92" y1="92.12" x2="92.14" y2="92.06"/><line class="cls-1" x1="93.38" y1="91.85" x2="93.6" y2="91.79"/><line class="cls-1" x1="94.84" y1="91.58" x2="95.06" y2="91.52"/><line class="cls-1" x1="96.35" y1="91.47" x2="96.62" y2="91.47"/><line class="cls-1" x1="97.92" y1="91.42" x2="98.13" y2="91.36"/><line class="cls-1" x1="99.43" y1="91.25" x2="99.7" y2="91.2"/><line class="cls-1" x1="101" y1="91.04" x2="101.21" y2="90.98"/><line class="cls-1" x1="102.45" y1="91.25" x2="102.67" y2="91.31"/><line class="cls-1" x1="103.8" y1="91.85" x2="104.02" y2="91.9"/><line class="cls-1" x1="105.15" y1="92.44" x2="105.37" y2="92.5"/><line class="cls-1" x1="106.5" y1="93.04" x2="106.72" y2="93.09"/><line class="cls-1" x1="107.85" y1="93.74" x2="108.07" y2="93.9"/><line class="cls-1" x1="109.1" y1="94.66" x2="109.31" y2="94.82"/><line class="cls-1" x1="110.34" y1="95.57" x2="110.5" y2="95.74"/><line class="cls-1" x1="111.53" y1="96.49" x2="111.74" y2="96.65"/><line class="cls-1" x1="112.77" y1="97.41" x2="112.98" y2="97.57"/><line class="cls-1" x1="114.01" y1="98.33" x2="114.17" y2="98.49"/><line class="cls-1" x1="115.2" y1="99.25" x2="115.41" y2="99.41"/><line class="cls-1" x1="116.44" y1="100.16" x2="116.65" y2="100.33"/><line class="cls-1" x1="117.68" y1="101.14" x2="117.9" y2="101.3"/><line class="cls-1" x1="118.92" y1="102.05" x2="119.09" y2="102.22"/><line class="cls-1" x1="120.11" y1="102.97" x2="120.27" y2="103.13"/><line class="cls-1" x1="121.3" y1="103.89" x2="121.52" y2="104.05"/><line class="cls-1" x1="122.54" y1="104.86" x2="122.7" y2="104.97"/><line class="cls-1" x1="122.7" y1="104.97" x2="122.76" y2="105.02"/><line class="cls-1" x1="123.78" y1="105.89" x2="124" y2="106.05"/><line class="cls-1" x1="124.97" y1="106.86" x2="125.13" y2="107.02"/><line class="cls-1" x1="126.16" y1="107.89" x2="126.38" y2="108.05"/><line class="cls-1" x1="127.35" y1="108.86" x2="127.51" y2="109.02"/><line class="cls-1" x1="128.48" y1="109.88" x2="128.7" y2="110.05"/><line class="cls-1" x1="129.67" y1="110.96" x2="129.83" y2="111.13"/><line class="cls-1" x1="130.8" y1="112.04" x2="130.97" y2="112.21"/><line class="cls-1" x1="131.94" y1="113.07" x2="132.1" y2="113.23"/><line class="cls-1" x1="133.07" y1="114.15" x2="133.29" y2="114.31"/><line class="cls-1" x1="134.26" y1="115.12" x2="134.42" y2="115.28"/><line class="cls-1" x1="135.45" y1="116.15" x2="135.66" y2="116.31"/><line class="cls-1" x1="136.47" y1="115.61" x2="136.74" y2="115.61"/><line class="cls-1" x1="138.04" y1="115.66" x2="138.31" y2="115.66"/><line class="cls-1" x1="139.55" y1="115.45" x2="139.77" y2="115.5"/><line class="cls-1" x1="141.06" y1="115.61" x2="141.17" y2="115.61"/><line class="cls-1" x1="141.17" y1="115.61" x2="141.28" y2="115.66"/><line class="cls-1" x1="142.41" y1="116.2" x2="142.63" y2="116.31"/><line class="cls-1" x1="143.65" y1="117.12" x2="143.82" y2="117.28"/><line class="cls-1" x1="144.79" y1="118.2" x2="144.95" y2="118.42"/><line class="cls-1" x1="145.76" y1="119.44" x2="145.92" y2="119.66"/><line class="cls-1" x1="146.63" y1="120.74" x2="146.79" y2="120.95"/><line class="cls-1" x1="147.7" y1="121.87" x2="147.87" y2="121.98"/><line class="cls-1" x1="147.87" y1="121.98" x2="147.92" y2="121.98"/><line class="cls-1" x1="149.11" y1="122.3" x2="149.33" y2="122.41"/></g></svg>