<svg id="nebula" xmlns="http://www.w3.org/2000/svg" viewBox="0 0 300 263"><defs><style>.cls-1,.cls-3{fill:none;stroke-width:0.5px;}.cls-1{stroke:#000;}.cls-2{isolation:isolate;}.cls-3{stroke:#1a171b;stroke-linecap:round;stroke-linejoin:round;}</style></defs><title>nebula-suspension-laarman-flos-F4550009-spech-tech-02-300x263</title><line class="cls-1" x1="96.62" y1="95.66" x2="100.02" y2="95.66"/><line class="cls-1" x1="98.32" y1="95.66" x2="98.32" y2="46.71"/><line class="cls-1" x1="96.62" y1="46.71" x2="100.02" y2="46.71"/><g class="cls-2"><path d="M89.93,188v1.16H80l1.79,2-.86.72L78.6,189v-1Z"/><path d="M89.93,176.67v7.2H88.6L84,179.36l-.55-.51a4,4,0,0,0-.61-.47,3.25,3.25,0,0,0-.67-.34,2.24,2.24,0,0,0-.73-.12,1.91,1.91,0,0,0-.84.17,1.68,1.68,0,0,0-.62.47,2.08,2.08,0,0,0-.39.7,2.66,2.66,0,0,0-.14.85,2.28,2.28,0,0,0,.48,1.47,2.17,2.17,0,0,0,1.3.79l-.13,1.21a3.14,3.14,0,0,1-2-1.16,3.51,3.51,0,0,1-.72-2.23,4.71,4.71,0,0,1,.18-1.31,3.24,3.24,0,0,1,.55-1.08,2.72,2.72,0,0,1,.92-.76,2.92,2.92,0,0,1,1.29-.27,3.51,3.51,0,0,1,1.2.19,4.94,4.94,0,0,1,1,.53,6.93,6.93,0,0,1,.92.72c.28.28.57.56.84.84l3.54,3.57v-6Z"/><path d="M78.41,171.29a3.14,3.14,0,0,1,.56-2,3.6,3.6,0,0,1,1.42-1.17,6.17,6.17,0,0,1,1.9-.56,13.58,13.58,0,0,1,2-.15,13.82,13.82,0,0,1,2,.15,6,6,0,0,1,1.89.56,3.7,3.7,0,0,1,1.43,1.17,3.73,3.73,0,0,1,0,3.93,3.89,3.89,0,0,1-1.43,1.17,6.3,6.3,0,0,1-1.89.56,13.76,13.76,0,0,1-2,.14,13.53,13.53,0,0,1-2-.14,6.45,6.45,0,0,1-1.9-.56A3.78,3.78,0,0,1,79,173.26,3.17,3.17,0,0,1,78.41,171.29Zm1,0a2.09,2.09,0,0,0,.5,1.47,3.19,3.19,0,0,0,1.23.81,6.09,6.09,0,0,0,1.57.34c.55.05,1,.07,1.5.07s.95,0,1.51-.07a6.1,6.1,0,0,0,1.56-.34,3.22,3.22,0,0,0,1.24-.81,2.09,2.09,0,0,0,.49-1.47,2.06,2.06,0,0,0-.49-1.46,3.11,3.11,0,0,0-1.24-.81,5.71,5.71,0,0,0-1.56-.34c-.56-.05-1.06-.07-1.51-.07s-1,0-1.5.07a5.7,5.7,0,0,0-1.57.34,3.08,3.08,0,0,0-1.23.81A2.07,2.07,0,0,0,79.46,171.29Z"/><path d="M78.41,162.4a3.17,3.17,0,0,1,.56-2,3.78,3.78,0,0,1,1.42-1.17,6.45,6.45,0,0,1,1.9-.56,15.09,15.09,0,0,1,2-.14,15.36,15.36,0,0,1,2,.14,6.3,6.3,0,0,1,1.89.56,3.89,3.89,0,0,1,1.43,1.17,3.75,3.75,0,0,1,0,3.94,3.77,3.77,0,0,1-1.43,1.16,6,6,0,0,1-1.89.56,13.82,13.82,0,0,1-2,.15,13.58,13.58,0,0,1-2-.15,6.17,6.17,0,0,1-1.9-.56A3.66,3.66,0,0,1,79,164.37,3.19,3.19,0,0,1,78.41,162.4Zm1,0a2.07,2.07,0,0,0,.5,1.46,3.08,3.08,0,0,0,1.23.81,6.09,6.09,0,0,0,1.57.34c.55.05,1,.08,1.5.08s.95,0,1.51-.08a6.1,6.1,0,0,0,1.56-.34,3.11,3.11,0,0,0,1.24-.81,2.06,2.06,0,0,0,.49-1.46,2.09,2.09,0,0,0-.49-1.47,3.34,3.34,0,0,0-1.24-.81,6.1,6.1,0,0,0-1.56-.34c-.56-.05-1.06-.07-1.51-.07s-1,0-1.5.07a6.09,6.09,0,0,0-1.57.34,3.3,3.3,0,0,0-1.23.81A2.09,2.09,0,0,0,79.46,162.4Z"/><path d="M84.1,152.35l-.83,0-.83.06v-1.14h1.13v0a2.59,2.59,0,0,1-1-1.06,3.12,3.12,0,0,1-.33-1.35,3.74,3.74,0,0,1,.06-.65,2.42,2.42,0,0,1,.23-.67,2.34,2.34,0,0,1,.47-.6,2.85,2.85,0,0,1,.79-.47,2.48,2.48,0,0,1-1.14-1,2.78,2.78,0,0,1-.41-1.45,2.73,2.73,0,0,1,.76-2.13,3.1,3.1,0,0,1,2.16-.69h4.76v1.06H85.56a3.17,3.17,0,0,0-1.75.4,1.64,1.64,0,0,0-.6,1.48,1.92,1.92,0,0,0,.23,1,2,2,0,0,0,.61.65,2.75,2.75,0,0,0,.88.35,4.17,4.17,0,0,0,1,.12h4v1H85.56a3.26,3.26,0,0,0-1.75.4,1.67,1.67,0,0,0-.6,1.49,3.37,3.37,0,0,0,.06.44,1.62,1.62,0,0,0,.35.71,2.5,2.5,0,0,0,.87.67,3.63,3.63,0,0,0,1.6.29h3.84v1.06Z"/><path d="M84.1,138.72c-.28,0-.55,0-.83,0l-.83.06v-1.14h1.13v0a2.56,2.56,0,0,1-1-1.07,3.05,3.05,0,0,1-.33-1.35,3.83,3.83,0,0,1,.06-.65,2.47,2.47,0,0,1,.23-.66,2.34,2.34,0,0,1,.47-.6,2.85,2.85,0,0,1,.79-.47,2.45,2.45,0,0,1-1.14-1,3.09,3.09,0,0,1,.35-3.57,3.1,3.1,0,0,1,2.16-.69h4.76v1H85.56a3.17,3.17,0,0,0-1.75.41,1.64,1.64,0,0,0-.6,1.48,1.92,1.92,0,0,0,.23,1,1.87,1.87,0,0,0,.61.64,2.55,2.55,0,0,0,.88.36,4.17,4.17,0,0,0,1,.11h4v1.06H85.56a3.17,3.17,0,0,0-1.75.4,1.66,1.66,0,0,0-.6,1.49,3.61,3.61,0,0,0,.06.44,1.62,1.62,0,0,0,.35.71,2.5,2.5,0,0,0,.87.67,3.63,3.63,0,0,0,1.6.29h3.84v1.06Z"/></g><g class="cls-2"><path d="M79.65,95.91v4.62l3.41.08a4.61,4.61,0,0,1-.21-.75,5,5,0,0,1-.06-.77,3.75,3.75,0,0,1,.27-1.45,3.31,3.31,0,0,1,.76-1.13A3.55,3.55,0,0,1,85,95.77a4.06,4.06,0,0,1,1.45-.26,3.68,3.68,0,0,1,1.5.29,3.53,3.53,0,0,1,1.17.8,3.9,3.9,0,0,1,.76,1.2,4.19,4.19,0,0,1,.27,1.52,3.71,3.71,0,0,1-.51,1.93,3.39,3.39,0,0,1-1.51,1.33l-.49-1.15a2.64,2.64,0,0,0,1.06-.89,2.34,2.34,0,0,0,.39-1.33,2.38,2.38,0,0,0-.2-1,2.64,2.64,0,0,0-.53-.81,2.52,2.52,0,0,0-1.8-.74,2.74,2.74,0,0,0-1.08.21,2.69,2.69,0,0,0-.86.57,2.57,2.57,0,0,0-.55.88,3.18,3.18,0,0,0-.19,1.12,4.52,4.52,0,0,0,.16,1.21,6.73,6.73,0,0,0,.46,1.15l-5.87-.12V95.91Z"/><path d="M78.41,90A3.14,3.14,0,0,1,79,88a3.78,3.78,0,0,1,1.42-1.17,6.17,6.17,0,0,1,1.9-.56,13.58,13.58,0,0,1,2-.15,13.82,13.82,0,0,1,2,.15,6,6,0,0,1,1.89.56A3.89,3.89,0,0,1,89.56,88a3.73,3.73,0,0,1,0,3.93,3.89,3.89,0,0,1-1.43,1.17,6.3,6.3,0,0,1-1.89.56,13.76,13.76,0,0,1-2,.14,13.53,13.53,0,0,1-2-.14,6.45,6.45,0,0,1-1.9-.56A3.78,3.78,0,0,1,79,92,3.16,3.16,0,0,1,78.41,90Zm1,0a2.09,2.09,0,0,0,.5,1.47,3.08,3.08,0,0,0,1.23.81,6.09,6.09,0,0,0,1.57.34c.55,0,1,.07,1.5.07s.95,0,1.51-.07a6.1,6.1,0,0,0,1.56-.34,3.11,3.11,0,0,0,1.24-.81,2.44,2.44,0,0,0,0-2.93,3.11,3.11,0,0,0-1.24-.81,6.1,6.1,0,0,0-1.56-.34c-.56,0-1.06-.07-1.51-.07s-1,0-1.5.07a6.09,6.09,0,0,0-1.57.34,3.08,3.08,0,0,0-1.23.81A2.09,2.09,0,0,0,79.46,90Z"/><path d="M78.41,81.11a3.17,3.17,0,0,1,.56-2A3.78,3.78,0,0,1,80.39,78a6.77,6.77,0,0,1,1.9-.56,15.09,15.09,0,0,1,2-.14,15.36,15.36,0,0,1,2,.14,6.6,6.6,0,0,1,1.89.56,3.89,3.89,0,0,1,1.43,1.17,3.75,3.75,0,0,1,0,3.94,3.77,3.77,0,0,1-1.43,1.16,6,6,0,0,1-1.89.56,13.82,13.82,0,0,1-2,.15,13.58,13.58,0,0,1-2-.15,6.17,6.17,0,0,1-1.9-.56A3.66,3.66,0,0,1,79,83.08,3.17,3.17,0,0,1,78.41,81.11Zm1,0a2.05,2.05,0,0,0,.5,1.46,3.08,3.08,0,0,0,1.23.81,5.7,5.7,0,0,0,1.57.34c.55,0,1,.08,1.5.08s.95,0,1.51-.08a5.71,5.71,0,0,0,1.56-.34,3.11,3.11,0,0,0,1.24-.81,2,2,0,0,0,.49-1.46,2.09,2.09,0,0,0-.49-1.47,3.2,3.2,0,0,0-1.24-.8,6.11,6.11,0,0,0-1.56-.35c-.56,0-1.06-.07-1.51-.07s-1,0-1.5.07a6.09,6.09,0,0,0-1.57.35,3.17,3.17,0,0,0-1.23.8A2.09,2.09,0,0,0,79.46,81.11Z"/><path d="M78.41,72.21a3.19,3.19,0,0,1,.56-2,3.66,3.66,0,0,1,1.42-1.16,6.17,6.17,0,0,1,1.9-.56,13.58,13.58,0,0,1,2-.15,13.82,13.82,0,0,1,2,.15,6,6,0,0,1,1.89.56,3.77,3.77,0,0,1,1.43,1.16,3.75,3.75,0,0,1,0,3.94,3.89,3.89,0,0,1-1.43,1.17,6.3,6.3,0,0,1-1.89.56,15.36,15.36,0,0,1-2,.14,15.09,15.09,0,0,1-2-.14,6.45,6.45,0,0,1-1.9-.56A3.78,3.78,0,0,1,79,74.18,3.17,3.17,0,0,1,78.41,72.21Zm1,0a2.09,2.09,0,0,0,.5,1.47,3.17,3.17,0,0,0,1.23.8,5.71,5.71,0,0,0,1.57.35c.55,0,1,.07,1.5.07s.95,0,1.51-.07a5.72,5.72,0,0,0,1.56-.35,3.2,3.2,0,0,0,1.24-.8,2.09,2.09,0,0,0,.49-1.47,2.06,2.06,0,0,0-.49-1.46,3.11,3.11,0,0,0-1.24-.81,5.71,5.71,0,0,0-1.56-.34c-.56,0-1.06-.08-1.51-.08s-1,0-1.5.08a5.7,5.7,0,0,0-1.57.34,3.08,3.08,0,0,0-1.23.81A2.07,2.07,0,0,0,79.46,72.21Z"/><path d="M84.1,62.16c-.28,0-.55,0-.83,0l-.83.05V61.11h1.13v0a2.56,2.56,0,0,1-1-1.07,3.05,3.05,0,0,1-.33-1.35,3.83,3.83,0,0,1,.06-.65,2.25,2.25,0,0,1,.23-.66,2.34,2.34,0,0,1,.47-.6,2.44,2.44,0,0,1,.79-.47,2.56,2.56,0,0,1-1.14-1A3.1,3.1,0,0,1,83,51.68,3.14,3.14,0,0,1,85.17,51h4.76v1H85.56a3.26,3.26,0,0,0-1.75.4,1.67,1.67,0,0,0-.6,1.49,1.89,1.89,0,0,0,.23,1,1.81,1.81,0,0,0,.61.65,2.55,2.55,0,0,0,.88.36,4.17,4.17,0,0,0,1,.11h4v1.06H85.56a3.17,3.17,0,0,0-1.75.4,1.66,1.66,0,0,0-.6,1.49,3.61,3.61,0,0,0,.06.44,1.67,1.67,0,0,0,.35.71,2.48,2.48,0,0,0,.87.66,3.48,3.48,0,0,0,1.6.3h3.84v1Z"/><path d="M84.1,48.53c-.28,0-.55,0-.83,0l-.83,0V47.48h1.13v0a2.53,2.53,0,0,1-1-1.06A3.05,3.05,0,0,1,82.25,45a3.83,3.83,0,0,1,.06-.65,2.25,2.25,0,0,1,.23-.66,2,2,0,0,1,.47-.6,2.64,2.64,0,0,1,.79-.48,2.48,2.48,0,0,1-1.14-1,2.78,2.78,0,0,1-.41-1.45A2.73,2.73,0,0,1,83,38.05a3.1,3.1,0,0,1,2.16-.69h4.76v1.06H85.56a3.17,3.17,0,0,0-1.75.4,1.66,1.66,0,0,0-.6,1.49A1.84,1.84,0,0,0,84.05,42a3,3,0,0,0,.88.36,4.74,4.74,0,0,0,1,.11h4v1.06H85.56a3.17,3.17,0,0,0-1.75.4,1.64,1.64,0,0,0-.6,1.48,3.17,3.17,0,0,0,.06.44,1.71,1.71,0,0,0,.35.72,2.61,2.61,0,0,0,.87.66,3.48,3.48,0,0,0,1.6.3h3.84v1.05Z"/></g><line class="cls-1" x1="109.99" y1="229.53" x2="187.13" y2="229.53"/><line class="cls-1" x1="109.99" y1="228.68" x2="109.99" y2="230.38"/><line class="cls-1" x1="187.13" y1="228.68" x2="187.13" y2="230.38"/><g class="cls-2"><path d="M128.16,237.38l-4.56,10.28h-1.29L127,237.38h-5.52v-1h6.72Z"/><path d="M133.92,236.14a3.17,3.17,0,0,1,2,.56,3.78,3.78,0,0,1,1.17,1.42,6.45,6.45,0,0,1,.56,1.9,15.09,15.09,0,0,1,.14,2,15.36,15.36,0,0,1-.14,2,6.3,6.3,0,0,1-.56,1.89,3.81,3.81,0,0,1-1.17,1.43,3.75,3.75,0,0,1-3.94,0,3.69,3.69,0,0,1-1.16-1.43,6,6,0,0,1-.56-1.89,13.82,13.82,0,0,1-.15-2,13.58,13.58,0,0,1,.15-2,6.17,6.17,0,0,1,.56-1.9A3.66,3.66,0,0,1,132,236.7,3.19,3.19,0,0,1,133.92,236.14Zm0,1.05a2.07,2.07,0,0,0-1.46.5,3.08,3.08,0,0,0-.81,1.23,5.7,5.7,0,0,0-.34,1.57c-.05.55-.08,1-.08,1.5s0,.95.08,1.51a5.71,5.71,0,0,0,.34,1.56,3.11,3.11,0,0,0,.81,1.24,2.06,2.06,0,0,0,1.46.49,2.09,2.09,0,0,0,1.47-.49,3.2,3.2,0,0,0,.8-1.24,5.72,5.72,0,0,0,.35-1.56c.05-.56.07-1.06.07-1.51s0-1-.07-1.5a5.71,5.71,0,0,0-.35-1.57,3.17,3.17,0,0,0-.8-1.23A2.09,2.09,0,0,0,133.92,237.19Z"/><path d="M142.82,236.14a3.17,3.17,0,0,1,2,.56,3.66,3.66,0,0,1,1.16,1.42,6.17,6.17,0,0,1,.56,1.9,13.58,13.58,0,0,1,.15,2,13.82,13.82,0,0,1-.15,2,6,6,0,0,1-.56,1.89,3.69,3.69,0,0,1-1.16,1.43,3.75,3.75,0,0,1-3.94,0,3.81,3.81,0,0,1-1.17-1.43,6.6,6.6,0,0,1-.56-1.89,15.36,15.36,0,0,1-.14-2,15.09,15.09,0,0,1,.14-2,6.77,6.77,0,0,1,.56-1.9,3.78,3.78,0,0,1,1.17-1.42A3.17,3.17,0,0,1,142.82,236.14Zm0,1.05a2.09,2.09,0,0,0-1.47.5,3.17,3.17,0,0,0-.8,1.23,6.09,6.09,0,0,0-.35,1.57c0,.55-.07,1-.07,1.5s0,.95.07,1.51a6.11,6.11,0,0,0,.35,1.56,3.2,3.2,0,0,0,.8,1.24,2.09,2.09,0,0,0,1.47.49,2,2,0,0,0,1.46-.49,3.11,3.11,0,0,0,.81-1.24,5.71,5.71,0,0,0,.34-1.56c0-.56.08-1.06.08-1.51s0-1-.08-1.5a5.7,5.7,0,0,0-.34-1.57,3.08,3.08,0,0,0-.81-1.23A2.05,2.05,0,0,0,142.82,237.19Z"/><path d="M152.87,241.83c0-.28,0-.55,0-.83s0-.55-.05-.83h1.13v1.13h0a2.53,2.53,0,0,1,1.06-1,3.05,3.05,0,0,1,1.35-.33,3.83,3.83,0,0,1,.65.06,2.25,2.25,0,0,1,.66.23,2,2,0,0,1,.6.47,2.44,2.44,0,0,1,.47.79,2.56,2.56,0,0,1,1-1.14,2.85,2.85,0,0,1,1.45-.41,2.73,2.73,0,0,1,2.13.76,3.14,3.14,0,0,1,.68,2.16v4.76H163v-4.37a3.26,3.26,0,0,0-.4-1.75,1.66,1.66,0,0,0-1.49-.6,1.84,1.84,0,0,0-1.64.84,3,3,0,0,0-.36.88,4.74,4.74,0,0,0-.11,1v4h-1.06v-4.37a3.17,3.17,0,0,0-.4-1.75,1.65,1.65,0,0,0-1.49-.6l-.44.06a1.73,1.73,0,0,0-.71.35,2.61,2.61,0,0,0-.66.87,3.48,3.48,0,0,0-.3,1.6v3.84h-1Z"/><path d="M166.5,241.83c0-.28,0-.55,0-.83s0-.55-.05-.83h1.13v1.13h0a2.53,2.53,0,0,1,1.06-1A3.05,3.05,0,0,1,170,240a3.74,3.74,0,0,1,.65.06,2.25,2.25,0,0,1,.66.23,2,2,0,0,1,.6.47,2.64,2.64,0,0,1,.48.79,2.48,2.48,0,0,1,1-1.14,2.87,2.87,0,0,1,1.45-.41,2.73,2.73,0,0,1,2.13.76,3.1,3.1,0,0,1,.69,2.16v4.76h-1.06v-4.37a3.17,3.17,0,0,0-.4-1.75,1.66,1.66,0,0,0-1.49-.6,1.84,1.84,0,0,0-1.64.84,3,3,0,0,0-.36.88,4.74,4.74,0,0,0-.11,1v4h-1.06v-4.37a3.17,3.17,0,0,0-.4-1.75,1.64,1.64,0,0,0-1.48-.6l-.44.06a1.71,1.71,0,0,0-.72.35,2.61,2.61,0,0,0-.66.87,3.48,3.48,0,0,0-.3,1.6v3.84H166.5Z"/></g><line class="cls-1" x1="98.32" y1="218" x2="98.32" y2="95.69"/><line class="cls-1" x1="96.47" y1="95.66" x2="100.02" y2="95.66"/><line class="cls-1" x1="95.79" y1="218" x2="100.85" y2="218"/><path class="cls-3" d="M167.45,107.65h0c10.38,7.62,12.31,22.63,4.31,33.52s-22.9,13.54-33.28,5.91-12.31-22.63-4.3-33.52,22.89-13.54,33.27-5.91"/><polyline class="cls-3" points="168.29 108.3 182.8 91.5 120.68 100.23 133.06 115.2"/><polyline class="cls-3" points="171.16 111 187.13 95.66 181.62 158.65 167.84 145.4"/><path class="cls-3" d="M159.56,194.65c4.68,2.41,12.15-2.79,16.69-11.61s4.44-17.93-.24-20.34-12.15,2.8-16.7,11.62-4.43,17.93.25,20.33"/><line class="cls-3" x1="177.09" y1="163.45" x2="165.03" y2="147.51"/><line class="cls-3" x1="156.12" y1="188.8" x2="150.46" y2="151.39"/><line class="cls-3" x1="156.49" y1="190.55" x2="158.15" y2="208"/><line class="cls-3" x1="158.15" y1="208" x2="136.14" y2="217.35"/><line class="cls-3" x1="136.14" y1="217.35" x2="139.94" y2="177.26"/><path class="cls-3" d="M115.77,139.86c-6,4.22-5.08,15.87,2.07,26s17.79,15,23.79,10.74,5.07-15.87-2.07-26-17.79-15-23.79-10.75"/><line class="cls-3" x1="131.47" y1="138.54" x2="120.07" y2="138.37"/><line class="cls-3" x1="145.57" y1="166.61" x2="145.76" y2="150.61"/><polyline class="cls-3" points="114.66 160.44 113.66 161.82 112.9 163.34 112.39 164.96 112.16 166.63"/><polyline class="cls-3" points="112.16 166.64 112.17 171.04 112.78 175.41 113.95 179.66"/><polyline class="cls-3" points="113.95 179.66 115.94 183.96 118.73 187.78 122.2 190.99"/><polyline class="cls-3" points="122.2 191 123.44 191.76 124.79 192.28 126.21 192.55 127.67 192.55 129.09 192.28 130.44 191.76 131.67 191"/><polyline class="cls-3" points="131.67 191 133.01 189.07 134.03 186.95 134.68 184.69"/><line class="cls-3" x1="134.28" y1="186.2" x2="136.38" y2="178.15"/><path class="cls-3" d="M119.41,103.92c-2.75-.42-6.49,9.11-8.37,21.28-1.68,10.61-1.31,20.59.83,22.41"/><line class="cls-3" x1="119.41" y1="103.92" x2="131.61" y2="117.88"/><circle class="cls-3" cx="151.65" cy="127.67" r="4.2"/><path class="cls-3" d="M135.09,145.35a4.18,4.18,0,1,0,2.1,2.22"/><path class="cls-3" d="M161.62,170.49a4.19,4.19,0,0,0,5.78-6"/><path class="cls-3" d="M129.18,110.51a26.88,26.88,0,0,0-2.15,2.12"/><path class="cls-3" d="M152.74,95.14s6.42-23,.55-25.41c-7.76-3.15-2.79-23.68-2.79-23.68"/></svg>