<svg id="OK" xmlns="http://www.w3.org/2000/svg" viewBox="0 0 300 263"><defs><style>.cls-1,.cls-3{fill:none;}.cls-1{stroke:#000;}.cls-1,.cls-3,.cls-4{stroke-width:0.5px;}.cls-2{isolation:isolate;}.cls-3,.cls-4{stroke:#000100;stroke-linejoin:round;}.cls-3{stroke-linecap:round;}.cls-4{fill:#1d1d1b;stroke-linecap:square;}</style></defs><title>ok-suspension-grcic-flos-F46460019-spech-tech-02-300x263</title><line class="cls-1" x1="115.33" y1="125.61" x2="118.73" y2="125.61"/><line class="cls-1" x1="117.03" y1="125.61" x2="117.03" y2="96.06"/><line class="cls-1" x1="115.33" y1="96.06" x2="118.73" y2="96.06"/><line class="cls-1" x1="159.88" y1="131.59" x2="163.28" y2="131.59"/><line class="cls-1" x1="161.58" y1="131.59" x2="161.58" y2="105.69"/><line class="cls-1" x1="159.88" y1="105.69" x2="163.28" y2="105.69"/><g class="cls-2"><path d="M78,158.49v-1.63H79v1.63H81.7v1.15H79v4.9H77.7L70.37,160v-1.47Zm-6.44,1.15v0l6.44,3.9v-3.94Z"/><path d="M70.18,151.8a3.21,3.21,0,0,1,.56-2,3.76,3.76,0,0,1,1.42-1.17,6.17,6.17,0,0,1,1.9-.56,13.08,13.08,0,0,1,4,0,6.17,6.17,0,0,1,1.9.56,3.76,3.76,0,0,1,1.42,1.17,3.73,3.73,0,0,1,0,3.93,3.86,3.86,0,0,1-1.42,1.17,6.45,6.45,0,0,1-1.9.56,14,14,0,0,1-4,0,6.45,6.45,0,0,1-1.9-.56,3.86,3.86,0,0,1-1.42-1.17A3.24,3.24,0,0,1,70.18,151.8Zm1.06,0a2.09,2.09,0,0,0,.49,1.47,3.3,3.3,0,0,0,1.23.81,6.18,6.18,0,0,0,1.57.34c.56.05,1.06.07,1.51.07s.94,0,1.5-.07a6.18,6.18,0,0,0,1.57-.34,3.3,3.3,0,0,0,1.23-.81,2.44,2.44,0,0,0,0-2.93,3.08,3.08,0,0,0-1.23-.81,6.18,6.18,0,0,0-1.57-.34c-.56-.05-1.06-.07-1.5-.07s-1,0-1.51.07a6.18,6.18,0,0,0-1.57.34,3.08,3.08,0,0,0-1.23.81A2.08,2.08,0,0,0,71.24,151.8Z"/><path d="M70.18,142.91a3.24,3.24,0,0,1,.56-2,3.86,3.86,0,0,1,1.42-1.17,6.45,6.45,0,0,1,1.9-.56,14,14,0,0,1,4,0,6.45,6.45,0,0,1,1.9.56,3.86,3.86,0,0,1,1.42,1.17,3.73,3.73,0,0,1,0,3.93A3.67,3.67,0,0,1,79.91,146a6.17,6.17,0,0,1-1.9.56,13.08,13.08,0,0,1-4,0,6.17,6.17,0,0,1-1.9-.56,3.67,3.67,0,0,1-1.42-1.17A3.21,3.21,0,0,1,70.18,142.91Zm1.06,0a2.06,2.06,0,0,0,.49,1.46,3.08,3.08,0,0,0,1.23.81,5.78,5.78,0,0,0,1.57.34c.56,0,1.06.08,1.51.08s.94,0,1.5-.08a5.78,5.78,0,0,0,1.57-.34,3.08,3.08,0,0,0,1.23-.81,2.06,2.06,0,0,0,.49-1.46,2.09,2.09,0,0,0-.49-1.47,3.3,3.3,0,0,0-1.23-.81,6.18,6.18,0,0,0-1.57-.34c-.56,0-1.06-.07-1.5-.07s-1,0-1.51.07a6.18,6.18,0,0,0-1.57.34,3.3,3.3,0,0,0-1.23.81A2.09,2.09,0,0,0,71.24,142.91Z"/><path d="M70.18,134a3.24,3.24,0,0,1,.56-2,3.74,3.74,0,0,1,1.42-1.16,6.17,6.17,0,0,1,1.9-.56,13.08,13.08,0,0,1,4,0,6.17,6.17,0,0,1,1.9.56A3.74,3.74,0,0,1,81.33,132a3.75,3.75,0,0,1,0,3.94,3.86,3.86,0,0,1-1.42,1.17,6.77,6.77,0,0,1-1.9.56,14,14,0,0,1-4,0,6.77,6.77,0,0,1-1.9-.56A3.86,3.86,0,0,1,70.74,136,3.24,3.24,0,0,1,70.18,134Zm1.06,0a2.09,2.09,0,0,0,.49,1.47,3.17,3.17,0,0,0,1.23.8,6.19,6.19,0,0,0,1.57.35c.56.05,1.06.07,1.51.07s.94,0,1.5-.07a6.19,6.19,0,0,0,1.57-.35,3.17,3.17,0,0,0,1.23-.8,2.09,2.09,0,0,0,.49-1.47,2,2,0,0,0-.49-1.46,3.08,3.08,0,0,0-1.23-.81,5.78,5.78,0,0,0-1.57-.34c-.56-.05-1.06-.08-1.5-.08s-1,0-1.51.08a5.78,5.78,0,0,0-1.57.34,3.08,3.08,0,0,0-1.23.81A2,2,0,0,0,71.24,134Z"/><path d="M75.88,124q-.42,0-.84,0l-.83.05v-1.13h1.14v0a2.41,2.41,0,0,1-1-1.06,2.94,2.94,0,0,1-.34-1.35,3.83,3.83,0,0,1,.06-.65,2.28,2.28,0,0,1,.24-.66,1.89,1.89,0,0,1,.47-.6,2.28,2.28,0,0,1,.78-.47,2.48,2.48,0,0,1-1.13-1,2.76,2.76,0,0,1-.42-1.45,2.73,2.73,0,0,1,.76-2.13A3.12,3.12,0,0,1,77,112.8H81.7v1H77.33a3.11,3.11,0,0,0-1.74.4,1.64,1.64,0,0,0-.61,1.49,2,2,0,0,0,.23,1,1.93,1.93,0,0,0,.62.65,2.84,2.84,0,0,0,.87.36,4.74,4.74,0,0,0,1,.11h4v1.06H77.33a3.11,3.11,0,0,0-1.74.4A1.63,1.63,0,0,0,75,120.8a3.61,3.61,0,0,0,.06.44,1.77,1.77,0,0,0,.36.71,2.67,2.67,0,0,0,.86.66,3.51,3.51,0,0,0,1.6.3H81.7v1Z"/><path d="M75.88,110.33q-.42,0-.84,0l-.83,0v-1.13h1.14v0a2.41,2.41,0,0,1-1-1.06,2.94,2.94,0,0,1-.34-1.35,3.74,3.74,0,0,1,.06-.65,2.28,2.28,0,0,1,.24-.66,1.89,1.89,0,0,1,.47-.6,2.47,2.47,0,0,1,.78-.48,2.41,2.41,0,0,1-1.13-1A2.79,2.79,0,0,1,74,102a2.73,2.73,0,0,1,.76-2.13A3.12,3.12,0,0,1,77,99.16H81.7v1.06H77.33a3.11,3.11,0,0,0-1.74.4,1.64,1.64,0,0,0-.61,1.49,2,2,0,0,0,.23,1,1.93,1.93,0,0,0,.62.65,2.84,2.84,0,0,0,.87.36,4.74,4.74,0,0,0,1,.11h4v1.06H77.33a3.11,3.11,0,0,0-1.74.4,1.62,1.62,0,0,0-.61,1.48,3.37,3.37,0,0,0,.06.44,1.74,1.74,0,0,0,.36.72,2.67,2.67,0,0,0,.86.66,3.51,3.51,0,0,0,1.6.3H81.7v1Z"/></g><g class="cls-2"><path d="M102.29,138a3.62,3.62,0,0,1,1.16-.68,4,4,0,0,1,1.45-.25,4.1,4.1,0,0,1,1.57.3,3.73,3.73,0,0,1,1.24.82,3.79,3.79,0,0,1,.83,1.26,4.34,4.34,0,0,1,.29,1.6,4.11,4.11,0,0,1-.22,1.4,3.66,3.66,0,0,1-.61,1.12l1.09,1.07-.5.51-1.08-1.06a3.78,3.78,0,0,1-1.18.69,4.17,4.17,0,0,1-1.43.24,4.22,4.22,0,0,1-1.57-.29,3.85,3.85,0,0,1-1.25-.83,3.67,3.67,0,0,1-.82-1.25,4.46,4.46,0,0,1-.08-3,4,4,0,0,1,.61-1.15l-1.08-1.06.49-.51Zm.26,1.25a2.63,2.63,0,0,0-.63,1.8,3,3,0,0,0,.23,1.18,2.71,2.71,0,0,0,.63.88,2.91,2.91,0,0,0,1,.56,3.42,3.42,0,0,0,1.17.2,3,3,0,0,0,1.82-.54Zm4.72,3.6a2.72,2.72,0,0,0,.44-.8,2.87,2.87,0,0,0,.16-1,2.75,2.75,0,0,0-.23-1.17A2.57,2.57,0,0,0,107,139a3,3,0,0,0-1-.57,3.41,3.41,0,0,0-1.16-.2,3.09,3.09,0,0,0-1.83.55Z"/><path d="M108.64,123.93v7.2h-1.33l-4.59-4.52-.54-.51a6.5,6.5,0,0,0-.61-.46,3.52,3.52,0,0,0-.67-.34,2.3,2.3,0,0,0-.74-.13,2,2,0,0,0-.83.17,1.7,1.7,0,0,0-.62.47,2.07,2.07,0,0,0-.4.71,2.65,2.65,0,0,0-.13.85,2.32,2.32,0,0,0,.48,1.47,2.16,2.16,0,0,0,1.29.78l-.13,1.22a3.18,3.18,0,0,1-2-1.16,3.51,3.51,0,0,1-.72-2.23,4.32,4.32,0,0,1,.19-1.31,3.2,3.2,0,0,1,.55-1.09,2.71,2.71,0,0,1,.92-.75,2.87,2.87,0,0,1,1.28-.28,3.61,3.61,0,0,1,1.21.2,5.44,5.44,0,0,1,1,.52,7.86,7.86,0,0,1,.91.73c.29.27.57.55.85.84l3.54,3.57v-5.95Z"/><path d="M97.12,118.55a3.24,3.24,0,0,1,.56-2,3.86,3.86,0,0,1,1.42-1.17,6.77,6.77,0,0,1,1.9-.56,15.36,15.36,0,0,1,2-.14,15.09,15.09,0,0,1,2,.14,6.77,6.77,0,0,1,1.9.56,3.78,3.78,0,0,1,1.42,1.17,3.75,3.75,0,0,1,0,3.94,3.78,3.78,0,0,1-1.42,1.17,6.77,6.77,0,0,1-1.9.56,15.09,15.09,0,0,1-2,.14,15.36,15.36,0,0,1-2-.14,6.77,6.77,0,0,1-1.9-.56,3.86,3.86,0,0,1-1.42-1.17A3.24,3.24,0,0,1,97.12,118.55Zm1.06,0a2,2,0,0,0,.49,1.46,3.08,3.08,0,0,0,1.23.81,6.29,6.29,0,0,0,1.57.35c.56,0,1.06.07,1.51.07s1,0,1.5-.07a6.09,6.09,0,0,0,1.57-.35,3.08,3.08,0,0,0,1.23-.81,2.38,2.38,0,0,0,0-2.92,3.08,3.08,0,0,0-1.23-.81,6.09,6.09,0,0,0-1.57-.35c-.55,0-1-.07-1.5-.07s-1,0-1.51.07a6.29,6.29,0,0,0-1.57.35,3.08,3.08,0,0,0-1.23.81A2,2,0,0,0,98.18,118.55Z"/><path d="M97.12,109.65a3.21,3.21,0,0,1,.56-2,3.86,3.86,0,0,1,1.42-1.17A6.17,6.17,0,0,1,101,106a13.82,13.82,0,0,1,2-.15,13.58,13.58,0,0,1,2,.15,6.17,6.17,0,0,1,1.9.56,3.78,3.78,0,0,1,1.42,1.17,3.73,3.73,0,0,1,0,3.93,3.78,3.78,0,0,1-1.42,1.17,6.45,6.45,0,0,1-1.9.56,13.53,13.53,0,0,1-2,.14,13.76,13.76,0,0,1-2-.14,6.45,6.45,0,0,1-1.9-.56,3.86,3.86,0,0,1-1.42-1.17A3.22,3.22,0,0,1,97.12,109.65Zm1.06,0a2.09,2.09,0,0,0,.49,1.47,3.08,3.08,0,0,0,1.23.81,6.27,6.27,0,0,0,1.57.34c.56,0,1.06.07,1.51.07s1,0,1.5-.07a6.09,6.09,0,0,0,1.57-.34,3.08,3.08,0,0,0,1.23-.81,2.4,2.4,0,0,0,0-2.93,3.08,3.08,0,0,0-1.23-.81,6.09,6.09,0,0,0-1.57-.34c-.55-.05-1-.07-1.5-.07s-1,0-1.51.07a6.27,6.27,0,0,0-1.57.34,3.08,3.08,0,0,0-1.23.81A2.08,2.08,0,0,0,98.18,109.65Z"/><path d="M102.82,99.61c-.28,0-.56,0-.84,0l-.83.06V98.55h1.14v0a2.44,2.44,0,0,1-1-1.07A2.94,2.94,0,0,1,101,96.1a3.83,3.83,0,0,1,.06-.65,2.76,2.76,0,0,1,.24-.66,2.34,2.34,0,0,1,.47-.6,2.45,2.45,0,0,1,.78-.47,2.38,2.38,0,0,1-1.13-1,2.74,2.74,0,0,1-.42-1.45,2.7,2.7,0,0,1,.76-2.12,3.12,3.12,0,0,1,2.17-.69h4.75v1h-4.37a3.15,3.15,0,0,0-1.74.41,1.62,1.62,0,0,0-.61,1.48,2,2,0,0,0,.23,1,1.84,1.84,0,0,0,.62.65,2.5,2.5,0,0,0,.87.36,4.31,4.31,0,0,0,1,.11h4v1.06h-4.37a3.16,3.16,0,0,0-1.74.4,1.64,1.64,0,0,0-.61,1.49,3.61,3.61,0,0,0,.06.44,1.77,1.77,0,0,0,.36.71,2.42,2.42,0,0,0,.86.66,3.53,3.53,0,0,0,1.6.3h3.84v1.06Z"/><path d="M102.82,86c-.28,0-.56,0-.84,0l-.83.06V84.92h1.14v0a2.44,2.44,0,0,1-1-1.07,2.94,2.94,0,0,1-.34-1.35,3.83,3.83,0,0,1,.06-.65,2.61,2.61,0,0,1,.24-.66,2.34,2.34,0,0,1,.47-.6,2.28,2.28,0,0,1,.78-.47,2.43,2.43,0,0,1-1.13-1,2.76,2.76,0,0,1-.42-1.45,2.69,2.69,0,0,1,.76-2.12,3.12,3.12,0,0,1,2.17-.69h4.75v1h-4.37a3.25,3.25,0,0,0-1.74.4,1.65,1.65,0,0,0-.61,1.49,2,2,0,0,0,.23,1,1.84,1.84,0,0,0,.62.65,2.5,2.5,0,0,0,.87.36,4.31,4.31,0,0,0,1,.11h4v1.06h-4.37a3.16,3.16,0,0,0-1.74.4,1.64,1.64,0,0,0-.61,1.49,3.61,3.61,0,0,0,.06.44,1.84,1.84,0,0,0,.36.71,2.53,2.53,0,0,0,.86.66,3.53,3.53,0,0,0,1.6.3h3.84V86Z"/></g><g class="cls-2"><path d="M181.34,148.15v7.2H180l-4.59-4.51-.55-.52a4.64,4.64,0,0,0-.61-.46,3.25,3.25,0,0,0-.67-.34,2.24,2.24,0,0,0-.73-.12,2,2,0,0,0-.83.16,1.76,1.76,0,0,0-.63.48,2.08,2.08,0,0,0-.39.7,2.66,2.66,0,0,0-.14.85,2.32,2.32,0,0,0,.48,1.47,2.11,2.11,0,0,0,1.3.78l-.13,1.22a3.18,3.18,0,0,1-2-1.16,3.51,3.51,0,0,1-.72-2.23,4.71,4.71,0,0,1,.18-1.31,3.24,3.24,0,0,1,.55-1.08,2.72,2.72,0,0,1,.92-.76,2.92,2.92,0,0,1,1.29-.28,3.51,3.51,0,0,1,1.2.2,5.53,5.53,0,0,1,1,.52,8.82,8.82,0,0,1,.91.73c.28.27.57.55.85.84l3.53,3.57v-5.95Z"/><path d="M171.06,139.64l10.28,4.56v1.29l-10.28-4.65v5.52H170v-6.72Z"/><path d="M169.82,133.88a3.17,3.17,0,0,1,.56-2,3.78,3.78,0,0,1,1.42-1.17,6.45,6.45,0,0,1,1.9-.56,13.53,13.53,0,0,1,2-.14,13.76,13.76,0,0,1,2,.14,6.3,6.3,0,0,1,1.89.56,3.81,3.81,0,0,1,1.43,1.17,3.73,3.73,0,0,1,0,3.93,3.72,3.72,0,0,1-1.43,1.17,6,6,0,0,1-1.89.56,13.82,13.82,0,0,1-2,.15,13.58,13.58,0,0,1-2-.15,6.17,6.17,0,0,1-1.9-.56,3.69,3.69,0,0,1-1.42-1.17A3.14,3.14,0,0,1,169.82,133.88Zm1.05,0a2.07,2.07,0,0,0,.5,1.46,3.08,3.08,0,0,0,1.23.81,6.09,6.09,0,0,0,1.57.34c.55,0,1.05.07,1.5.07s1,0,1.51-.07a6.27,6.27,0,0,0,1.57-.34,3.08,3.08,0,0,0,1.23-.81,2.06,2.06,0,0,0,.49-1.46,2.09,2.09,0,0,0-.49-1.47,3.3,3.3,0,0,0-1.23-.81,6.27,6.27,0,0,0-1.57-.34c-.56,0-1.06-.07-1.51-.07s-.95,0-1.5.07a6.09,6.09,0,0,0-1.57.34,3.3,3.3,0,0,0-1.23.81A2.09,2.09,0,0,0,170.87,133.88Z"/><path d="M175.51,123.83l-.83,0-.83.06v-1.14H175v0a2.55,2.55,0,0,1-1-1.06,3.12,3.12,0,0,1-.33-1.36,3.72,3.72,0,0,1,.06-.64A2.42,2.42,0,0,1,174,119a2.34,2.34,0,0,1,.47-.6,2.85,2.85,0,0,1,.79-.47,2.45,2.45,0,0,1-1.14-1,2.81,2.81,0,0,1-.41-1.44,2.73,2.73,0,0,1,.76-2.13,3.1,3.1,0,0,1,2.16-.69h4.76v1.06H177a3.17,3.17,0,0,0-1.75.4,1.64,1.64,0,0,0-.6,1.48,1.92,1.92,0,0,0,.23,1,1.87,1.87,0,0,0,.61.64,2.55,2.55,0,0,0,.88.36,4.17,4.17,0,0,0,1,.12h4v1H177a3.26,3.26,0,0,0-1.75.4,1.67,1.67,0,0,0-.6,1.49,3.61,3.61,0,0,0,.06.44,1.62,1.62,0,0,0,.35.71,2.5,2.5,0,0,0,.87.67,3.63,3.63,0,0,0,1.6.29h3.84v1.06Z"/><path d="M175.51,110.2c-.27,0-.55,0-.83,0l-.83.06v-1.14H175v0a2.52,2.52,0,0,1-1-1.07,3.05,3.05,0,0,1-.33-1.35,3.83,3.83,0,0,1,.06-.65,2.23,2.23,0,0,1,.7-1.26,2.63,2.63,0,0,1,.79-.47,2.45,2.45,0,0,1-1.14-1,2.82,2.82,0,0,1-.41-1.45,2.7,2.7,0,0,1,.76-2.12,3.1,3.1,0,0,1,2.16-.69h4.76v1H177a3.26,3.26,0,0,0-1.75.4,1.67,1.67,0,0,0-.6,1.49,1.86,1.86,0,0,0,.23,1,1.81,1.81,0,0,0,.61.65,2.55,2.55,0,0,0,.88.36,4.17,4.17,0,0,0,1,.11h4v1.06H177a3.17,3.17,0,0,0-1.75.4,1.66,1.66,0,0,0-.6,1.49,3.61,3.61,0,0,0,.06.44,1.62,1.62,0,0,0,.35.71,2.37,2.37,0,0,0,.87.66,3.48,3.48,0,0,0,1.6.3h3.84v1.06Z"/></g><line class="cls-1" x1="143" y1="229.53" x2="153.97" y2="229.53"/><line class="cls-1" x1="143" y1="228.68" x2="143" y2="230.38"/><line class="cls-1" x1="153.97" y1="228.68" x2="153.97" y2="230.38"/><line class="cls-1" x1="151.42" y1="91.66" x2="160.65" y2="97.58"/><line class="cls-1" x1="151.88" y1="90.95" x2="150.96" y2="92.38"/><line class="cls-1" x1="161.11" y1="96.87" x2="160.19" y2="98.3"/><g class="cls-2"><path d="M125.37,241.3a3.62,3.62,0,0,1,.68,1.16,4.29,4.29,0,0,1,0,3,3.67,3.67,0,0,1-.82,1.25,3.62,3.62,0,0,1-1.26.82,4.43,4.43,0,0,1-3,.07,3.94,3.94,0,0,1-1.11-.6l-1.07,1.08-.51-.49,1-1.09a3.72,3.72,0,0,1-.68-1.18,4.17,4.17,0,0,1-.24-1.43,4.26,4.26,0,0,1,.29-1.57,3.65,3.65,0,0,1,.83-1.24,3.7,3.7,0,0,1,1.25-.83,4.36,4.36,0,0,1,1.59-.29,4.47,4.47,0,0,1,1.4.21,4,4,0,0,1,1.15.62l1-1.09.52.5Zm-1.25.26a2.64,2.64,0,0,0-1.81-.62,2.78,2.78,0,0,0-1.17.23,2.45,2.45,0,0,0-.88.63,2.86,2.86,0,0,0-.56.94,3.27,3.27,0,0,0-.2,1.17,3,3,0,0,0,.54,1.83Zm-3.6,4.72a2.85,2.85,0,0,0,.8.45,3.11,3.11,0,0,0,1,.16,3,3,0,0,0,1.18-.23,2.74,2.74,0,0,0,.89-.64,3,3,0,0,0,.57-.94,3.42,3.42,0,0,0,.2-1.17,3.06,3.06,0,0,0-.55-1.82Z"/><path d="M137.34,242.79l0,0a2.14,2.14,0,0,1-.73.29,4.46,4.46,0,0,1-.84.09,3.43,3.43,0,0,1-2.47-1,3.28,3.28,0,0,1-.72-1.1,3.84,3.84,0,0,1,0-2.83,3.35,3.35,0,0,1,.77-1.11,3.49,3.49,0,0,1,1.17-.72,4.13,4.13,0,0,1,1.47-.25,4,4,0,0,1,1.47.25,3.49,3.49,0,0,1,1.17.72,3.21,3.21,0,0,1,.77,1.11,3.59,3.59,0,0,1,.27,1.42,4.39,4.39,0,0,1-.28,1.65,9.45,9.45,0,0,1-.69,1.39l-3.06,5h-1.36Zm1.15-3.15a2.64,2.64,0,0,0-.18-1,2.33,2.33,0,0,0-.52-.77,2.52,2.52,0,0,0-.8-.5,2.86,2.86,0,0,0-2.05,0,2.41,2.41,0,0,0-.8.5,2.06,2.06,0,0,0-.52.77,2.67,2.67,0,0,0,0,2,2.18,2.18,0,0,0,.52.78,2.26,2.26,0,0,0,.8.5,3,3,0,0,0,2.05,0,2.36,2.36,0,0,0,.8-.5,2.48,2.48,0,0,0,.52-.78A2.64,2.64,0,0,0,138.49,239.64Z"/><path d="M147.85,237.38h-4.62l-.08,3.41a4.61,4.61,0,0,1,.75-.21,4.9,4.9,0,0,1,.77-.06,3.78,3.78,0,0,1,1.45.27,3.31,3.31,0,0,1,1.13.76,3.72,3.72,0,0,1,.74,1.15,4.06,4.06,0,0,1,.26,1.45,3.82,3.82,0,0,1-.29,1.5,3.53,3.53,0,0,1-.8,1.17,3.83,3.83,0,0,1-1.21.76,4.1,4.1,0,0,1-1.51.27,3.71,3.71,0,0,1-1.93-.51,3.34,3.34,0,0,1-1.33-1.51l1.15-.49a2.64,2.64,0,0,0,.89,1.06,2.34,2.34,0,0,0,1.33.39,2.38,2.38,0,0,0,1-.2,2.45,2.45,0,0,0,1.35-1.33,2.55,2.55,0,0,0,.2-1,2.74,2.74,0,0,0-.21-1.08,2.56,2.56,0,0,0-.58-.86,2.4,2.4,0,0,0-.88-.55,3.1,3.1,0,0,0-1.12-.19,4.5,4.5,0,0,0-1.2.16,6.42,6.42,0,0,0-1.15.46l.11-5.87h5.78Z"/><path d="M154.91,241.83c0-.28,0-.55,0-.83s0-.55,0-.83H156v1.13h0a2.62,2.62,0,0,1,1.07-1,3.05,3.05,0,0,1,1.35-.33,3.83,3.83,0,0,1,.65.06,2.25,2.25,0,0,1,.66.23,2,2,0,0,1,.6.47,2.44,2.44,0,0,1,.47.79,2.56,2.56,0,0,1,1-1.14,2.85,2.85,0,0,1,1.45-.41,2.73,2.73,0,0,1,2.13.76,3.14,3.14,0,0,1,.68,2.16v4.76h-1v-4.37a3.26,3.26,0,0,0-.4-1.75,1.66,1.66,0,0,0-1.49-.6,1.84,1.84,0,0,0-1.64.84,2.76,2.76,0,0,0-.36.88,4.74,4.74,0,0,0-.11,1v4H160v-4.37a3.17,3.17,0,0,0-.4-1.75,1.66,1.66,0,0,0-1.49-.6l-.44.06a1.67,1.67,0,0,0-.71.35,2.61,2.61,0,0,0-.66.87,3.48,3.48,0,0,0-.3,1.6v3.84h-1.05Z"/><path d="M168.54,241.83c0-.28,0-.55,0-.83s0-.55,0-.83h1.13v1.13h0a2.53,2.53,0,0,1,1.06-1A3.05,3.05,0,0,1,172,240a3.83,3.83,0,0,1,.65.06,2.25,2.25,0,0,1,.66.23,2,2,0,0,1,.6.47,2.64,2.64,0,0,1,.48.79,2.48,2.48,0,0,1,1-1.14,2.87,2.87,0,0,1,1.45-.41,2.73,2.73,0,0,1,2.13.76,3.1,3.1,0,0,1,.69,2.16v4.76h-1.06v-4.37a3.17,3.17,0,0,0-.4-1.75,1.66,1.66,0,0,0-1.49-.6,1.84,1.84,0,0,0-1.64.84,3,3,0,0,0-.36.88,4.74,4.74,0,0,0-.11,1v4h-1.06v-4.37a3.17,3.17,0,0,0-.4-1.75,1.64,1.64,0,0,0-1.48-.6l-.44.06a1.71,1.71,0,0,0-.72.35,2.61,2.61,0,0,0-.66.87,3.48,3.48,0,0,0-.3,1.6v3.84h-1.05Z"/></g><g class="cls-2"><path d="M149,66.23l-3.84-2.59-2,2.78a3.58,3.58,0,0,1,.74.25,4,4,0,0,1,.67.38,3.63,3.63,0,0,1,1.06,1,3.29,3.29,0,0,1,.51,1.26,3.47,3.47,0,0,1,0,1.36,4,4,0,0,1-.59,1.35,4,4,0,0,1-1.08,1.08,3.41,3.41,0,0,1-1.32.52,3.59,3.59,0,0,1-1.42,0,4.2,4.2,0,0,1-1.41-.62A3.75,3.75,0,0,1,139,71.49a3.42,3.42,0,0,1-.26-2l1.24.23a2.61,2.61,0,0,0,.14,1.39,2.25,2.25,0,0,0,.88,1.06,2.67,2.67,0,0,0,.94.4,2.64,2.64,0,0,0,1,0,2.51,2.51,0,0,0,1.62-1.07,2.82,2.82,0,0,0,.43-1,2.55,2.55,0,0,0,0-1,2.37,2.37,0,0,0-.42-.95,2.92,2.92,0,0,0-.82-.78,4.26,4.26,0,0,0-1.09-.54,5.68,5.68,0,0,0-1.21-.26l3.38-4.81,4.79,3.23Z"/><path d="M151,80l-6-4,.74-1.1,6.31-1.29c.24,0,.48-.1.73-.16a5.55,5.55,0,0,0,.72-.25,3.29,3.29,0,0,0,.66-.37,2.06,2.06,0,0,0,.52-.54,1.88,1.88,0,0,0,.32-.78,1.7,1.7,0,0,0,0-.78,2.06,2.06,0,0,0-.37-.72,2.91,2.91,0,0,0-.62-.59,2.32,2.32,0,0,0-1.49-.42,2.2,2.2,0,0,0-1.38.63l-.93-.78a3.18,3.18,0,0,1,2.07-1,3.53,3.53,0,0,1,2.25.65,4.63,4.63,0,0,1,1,.88,3.33,3.33,0,0,1,.59,1.07,2.61,2.61,0,0,1,.11,1.18,2.77,2.77,0,0,1-.49,1.23,3.34,3.34,0,0,1-.83.88,5,5,0,0,1-1,.56,6.53,6.53,0,0,1-1.11.35c-.39.09-.78.16-1.17.23l-4.94.94,4.94,3.33Z"/><path d="M159.71,78.83c.15-.23.3-.46.44-.7l.42-.72.94.63-.63.95,0,0a2.48,2.48,0,0,1,1.44-.23,2.94,2.94,0,0,1,1.31.47,4.64,4.64,0,0,1,.5.42,2.11,2.11,0,0,1,.42.56,2.41,2.41,0,0,1,.24.73,2.61,2.61,0,0,1-.05.91,2.52,2.52,0,0,1,1.48-.37,2.88,2.88,0,0,1,1.43.46A2.78,2.78,0,0,1,169,83.79a3.13,3.13,0,0,1-.64,2.18l-2.66,3.94-.88-.59,2.45-3.62a3.26,3.26,0,0,0,.64-1.67,1.64,1.64,0,0,0-.89-1.34,2,2,0,0,0-1-.36,1.91,1.91,0,0,0-.88.15,2.42,2.42,0,0,0-.78.52,3.84,3.84,0,0,0-.66.78l-2.23,3.3-.88-.59,2.44-3.62a3.19,3.19,0,0,0,.65-1.67,1.66,1.66,0,0,0-.9-1.34,3.17,3.17,0,0,0-.4-.19,1.7,1.7,0,0,0-.78-.11,2.56,2.56,0,0,0-1,.35,3.49,3.49,0,0,0-1.14,1.16l-2.14,3.18-.88-.59Z"/><path d="M171,86.46l.45-.71c.14-.24.28-.48.41-.72l.94.64-.63.94,0,0a2.43,2.43,0,0,1,1.43-.23,3.06,3.06,0,0,1,1.81.89,2.16,2.16,0,0,1,.42.57,2,2,0,0,1,.24.72,2.68,2.68,0,0,1-.05.92,2.47,2.47,0,0,1,1.48-.38,2.8,2.8,0,0,1,1.43.47,2.71,2.71,0,0,1,1.34,1.82,3.13,3.13,0,0,1-.64,2.18L177,97.53l-.87-.59,2.44-3.62a3.17,3.17,0,0,0,.64-1.67,1.64,1.64,0,0,0-.89-1.34,2,2,0,0,0-1-.36,2,2,0,0,0-.89.15,2.6,2.6,0,0,0-.78.52,4.13,4.13,0,0,0-.66.78l-2.23,3.3-.88-.59,2.45-3.62a3.22,3.22,0,0,0,.64-1.67,1.64,1.64,0,0,0-.89-1.34l-.4-.19a1.64,1.64,0,0,0-.79-.1,2.44,2.44,0,0,0-1,.34,3.49,3.49,0,0,0-1.14,1.16l-2.15,3.18-.88-.58Z"/></g><line class="cls-1" x1="90.09" y1="217.16" x2="90.09" y2="45.88"/><line class="cls-1" x1="88.25" y1="45.84" x2="91.79" y2="45.84"/><line class="cls-1" x1="87.56" y1="217.16" x2="92.62" y2="217.16"/><path class="cls-3" d="M149.74,103.34h0v0l-.05-.05m-.31,0h0l0,.05,0,0m.38-.1h0m-.82.49v-.13m3.19,2v-.1M149.69,103l.11,0,.07,0,0,.08,0,.07-.07.08-.13,0-.13,0-.13,0-.13,0-.08-.08,0-.07,0-.08.08,0,.1,0M148.61,130h0v0m3.22,1.88h0v0m1.7-12.36h.1l0,0,0,0,0,0m.16-.18,0,0h-.08m-.31.21h0v0h0m.44-1.32h-.06v0h0l0,0m-.31.21h0v0h0v0m.31-.31v0h0m-5.48,11.41,0,.13.05.16.13.13.18.13m0-26.12-.18-.1-.13-.16-.05-.15,0-.11m2.18-.56v0h0v0m-.13.18v-.13m3.2,2v-.11m-4.13-2.11h-.15l-.26.08-.2.08-.18.1-.16.13-.1.13,0,.15v.15l.08.13.13.13.15.13m1.75-1-.2-.11-.23-.07-.24,0h-.05m2.12,29.26.2.1.26.08.26,0,.28,0,.26,0,.25-.08.24-.08.2-.1.16-.13.1-.16,0-.15v0m-.44-26.68h0m.15.87,0,0,.1-.16,0-.13V105l-.08-.16-.1-.13-.18-.12m-1.75,1h0m2.17-.47v0l0,.16-.1.15-.16.13-.2.1-.24.11-.25.05-.26,0-.28,0-.26,0-.26-.07-.2-.11m1.95,13.47h0v0m0-1.08h0m-.28.15h0m-6.67-2.42.11.08.18.1.2.13m1-1.49-.13.05m-.11-.16.16-.07.08,0m-3.2,7.65.36-.23.41-.31.36-.36.34-.41.31-.44.28-.47.23-.51.21-.54.18-.59.13-.62.1-.65.05-.41m0-2-.05-.74-.1-.78-.13-.77-.18-.77-.21-.8-.23-.77-.28-.8-.31-.8-.34-.8-.36-.77-.41-.77-.41-.75-.44-.75-.49-.74-.49-.7-.51-.67-.54-.67-.54-.62-.57-.62-.59-.56-.6-.54-.59-.49-.62-.47-.61-.41-.6-.38-.61-.34-.62-.31-.62-.26-.59-.2-.6-.16-.59-.1-.56-.08-.57,0-.54,0-.52,0-.49.13-.49.18-.46.21-.08,0m17.18,19.55h0l-.29-.11L147,116l-.15-.13-.11,0m2.91-12.49h0m-.31,0h0m2.68,2.09.18.07.21.06.23,0h.23l.21,0,.2,0,.16-.1.13-.11,0-.13,0-.13-.06-.12-.07-.13-.16-.11m0,0-3.19-1.85m-.83-.15h0l-.21,0-.2.07-.16.08-.13.13,0,.1,0,.16,0,.13.07.1.16.1m1.34-.77-.18-.08-.21,0-.13,0m-.82.92,3.19,1.86m-3.47-2.12v0l0,.13.07.13.16.1m4.58,1.83,0,0,.13-.12,0-.11,0-.1m.15-.08h0l-.08-.13-.1-.13-.15-.12m0,0v0m-4.69-1.9,0,0-.16.1-.1.13,0,.13v0m5,15h0m-5.22-2.4V116l0,.23v.49l0,.08m.38,13.11V103.81m0,26.12,3.2,1.85m-3.2-28h0v0h0l0,0m3.15,1.93-3.2-1.85m5,.75-3.2-1.83m-1.75,1,3.2,1.86m-2.17-3,.21,0,.23.08.18.08m-1.54.9-.16-.13-.1-.13,0-.13v-.13l0-.15.1-.13.16-.1.18-.08.23-.08.2,0m.93.18,3.2,1.85m0,0,.15.11.1.12.08.13v.16l-.08.13-.1.13-.15.1-.19.1-.23,0-.23,0h-.26l-.23,0-.2,0-.21-.1m0,0-3.19-1.83m5.1,14.37v1.06m0,0,0,.1,0,.08,0,.1-.08.08-.08,0h-.12l-.06,0,0-.08v0m0,0v-1.06m0,0v-.1l0-.08.05-.08.08-.08.08,0,.07,0h.05l0,0,0,.08v0m-2.06,13.73V105.66m.07-.07.18.07.23.08.26.05h.26l.26,0,.23-.06.23-.07.18-.11.1-.1m-2,.23h0v0h0v0h0m-2.17-2.22h0m-.33,0,0,0m4.13,16h0l0,0,0,0m0,0h0m0-1.08v1.08m0,0v.06l.05,0,0,0,.05,0,0,0,.05,0,0-.08,0,0m0,0v-1.08m0,0h0m-.25,0,0,.05v0m.28-.15,0,0,0-.06h-.05m.08,0h0l0,.08m-.07-.11h0m-4,88.06,0,0,0,0,0,0h-.16l-.05,0,0-.05m0-159,.05,0h.1l.06,0h0l0,.05,0,0,0,0,0,0h-.16l-.05,0,0,0,0-.06v0m-2.63,68.76h0v0m0-.82V115m0,.08-.13-.05h-.1l-.05.07-.05.11v.13l.05.15.05.13.1.13.13.1m0,0h0m0-.77h0m0,.77h0v0m1.32-1.18h0v0l0,0,0,0v0l0,0m-1.21.52V115m0,.85-.05-.08,0-.07v-.08l0-.1,0-.11v-.13l0-.1.05-.1m.49,1.08,0,0m.78-1.47-.11,0-.2.1-.29.13-.33.1-.23,0-.16,0m0,.82-.13-.1-.1-.13-.08-.15-.05-.16,0-.13,0-.13.05-.1.08,0h.1l.13,0M130.45,96.78l0,0m16.35,19.06h0m0-.9-.05-.72-.08-.72-.1-.75-.15-.75-.18-.74-.24-.78-.23-.77-.31-.77-.31-.77-.33-.75-.39-.75L144,106l-.41-.73-.46-.72-.49-.67-.49-.67-.52-.64-.54-.62-.54-.56-.57-.57-.56-.52-.6-.46-.59-.46-.59-.39-.59-.36-.6-.34-.59-.25-.59-.23-.59-.21-.57-.13-.57-.1-.54,0h-.54l-.51,0-.49.08-.47.16-.46.18-.44.23-.38.28-.39.31L129,99l-.3.38-.29.47-.25.46-.21.51-.18.57-.16.59-.1.6-.08.64,0,.67v.7l0,.69.08.72.1.75.16.75.18.77.21.77.25.75.29.77.3.77.34.78.39.74.38.75.44.72.46.7.47.69.49.67.51.65.54.61.54.6.57.54.57.54.59.46.59.47.59.41.6.36.59.33.59.29.59.23.6.18.56.15.57.11.54,0h.54l.52,0,.49-.1.49-.13.46-.18.41-.23.41-.26.39-.34.33-.36.31-.38.31-.44.23-.49.24-.51.18-.55.15-.56.1-.62.08-.64.05-.65m0-.9h0m0,0,.13,0,.21,0,.31-.15.25-.13.21-.11.1,0m1.75-11.18h0l-.05,0-.05,0h-.23l0,0,0,0h0m-.72-.12v.12m5.1,1.86v-.13m-5.46,24.34h0l0,.15.08.16.13.13.13.1,0,0m0,0,3.22,1.83m0,0,.1.05.21.07.21.08.25,0h.24l.1,0m0,0h.15l.23,0,.21-.08.18-.1.16-.13.1-.13.08-.15v-.13m-.54-11.82,0,0,0,0v0m0,0v-1.08m0,0v0l0-.08.05-.05.05-.07,0,0,.06,0,0,0m-5.48-14.66v12.57m0,1v12.56m2.21-26.65-.08,0-.2-.11-.13,0m-.65-.06-.2,0-.16,0m1,0-.11,0-.23,0m-.67.06-.07,0-.21.08-.18.1-.15.13-.11.13-.05.15,0,.13m5.43,1.27-3.22-1.83m3.61,28.51V105.12m0,0v0l0-.13-.08-.16-.1-.13-.15-.1,0,0m-.18,14.83,0,0m.25-.29v-1m0-.11h0m-4.33,12.44V206m.31,0V130.57m0-27.2V47.1m-.31,0v56.27M152.55,132l0,.77s.07,42.76-.24,44.7c-.13.79-.61,10.93-.42,13,.09,1,.36,11.15-.17,12.69a39.47,39.47,0,0,0-.32,6m.31.55s-.08-5.55.36-6.52.24-11.46.17-12.67c-.12-2.07.29-11.51.43-12.83.4-3.71.26-43.85.26-43.85V132m-5.64-15.89,1,.57M145,122.1l.08-.06.41-.28.39-.31.36-.36.33-.39.31-.43.28-.47.26-.49.23-.51.18-.57.16-.59.1-.62,0-.36m.06-2.94v-.07l-.11-.72-.1-.75-.16-.72-.18-.75-.2-.77-.26-.75-.26-.75-.31-.74-.33-.75-.36-.72-.39-.72-.38-.72-.44-.7-.47-.69-.46-.65-.49-.64-.51-.62-.52-.59-.54-.57-.57-.54-.56-.51-.57-.47-.59-.46-.57-.41-.59-.36-.62-.34-.59-.31-.59-.26-.6-.2-.59-.18-.59-.13-.59-.08-.57,0H133l-.54,0-.52.07-.49.16-.49.18-.46.21-.1.07m0,0-.15.1-.41.28-.42.31-.36.36-.33.39-.31.44-.28.46-.24.49-.23.52-.18.56-.15.59-.1.62-.11.65-.05.64v1.39l.05.7.11.72.1.74.15.75.18.75.23.75.24.74.28.75.31.75.33.74.36.75.37.72.41.7.44.69.46.7.46.64.49.65.52.61.51.6.54.56.57.54.57.52.56.46.6.44.59.41.59.39.59.33.59.29.6.25.62.21.59.18.56.13.6.08.56,0h.54l.54,0,.52-.1.49-.13.49-.18.44-.21.15-.1"/><path class="cls-4" d="M149.3,206.07l-4.75,7.78s.95,2.31,4.63,2.31,4.87-2.2,4.87-2.2l-4.3-7.89Z"/></svg>