<svg id="Ontherocks_HL" xmlns="http://www.w3.org/2000/svg" xmlns:xlink="http://www.w3.org/1999/xlink" viewBox="0 0 300 263"><defs><style>.cls-1,.cls-2,.cls-5,.cls-7{fill:none;stroke-width:0.5px;}.cls-1,.cls-5,.cls-7{stroke:#1d1d1b;}.cls-1{stroke-miterlimit:10;}.cls-2{stroke:#000;}.cls-3{isolation:isolate;}.cls-4{clip-path:url(#clip-path);}.cls-5{stroke-miterlimit:3.86;}.cls-6{clip-path:url(#clip-path-2);}</style><clipPath id="clip-path"><rect class="cls-1" x="224.07" y="74.94" width="43.99" height="55.07"/></clipPath><clipPath id="clip-path-2"><rect class="cls-1" x="31.76" y="74.94" width="178.06" height="55.07"/></clipPath></defs><title>ontherocks-ceiling-wall-citterio-flos-F4651000-spech-tech-02-300x263</title><line class="cls-2" x1="224.71" y1="145.68" x2="268.07" y2="145.86"/><line class="cls-2" x1="224.72" y1="143.33" x2="224.7" y2="148.03"/><line class="cls-2" x1="268.08" y1="143.51" x2="268.06" y2="148.21"/><g class="cls-3"><path d="M227.25,158.66l0,0a2,2,0,0,1-.73.28,3.65,3.65,0,0,1-.84.09,3.49,3.49,0,0,1-1.37-.27,3.26,3.26,0,0,1-1.09-.73,3.23,3.23,0,0,1-.72-1.11,3.53,3.53,0,0,1-.26-1.4,3.48,3.48,0,0,1,.28-1.43,3.27,3.27,0,0,1,.77-1.1,3.46,3.46,0,0,1,1.17-.71,4.39,4.39,0,0,1,2.95,0,3.54,3.54,0,0,1,1.16.72,3.38,3.38,0,0,1,.76,1.11,3.68,3.68,0,0,1,.27,1.43,4.29,4.29,0,0,1-.29,1.64,9,9,0,0,1-.7,1.39l-3.08,5h-1.36Zm1.17-3.15a2.64,2.64,0,0,0-.18-1,2.18,2.18,0,0,0-.52-.77,2.61,2.61,0,0,0-.8-.51,2.77,2.77,0,0,0-1-.19,2.8,2.8,0,0,0-1,.18,2.57,2.57,0,0,0-.81.5,2.28,2.28,0,0,0-.52.77,2.74,2.74,0,0,0,0,2,2.18,2.18,0,0,0,.52.78,2.29,2.29,0,0,0,.8.51,2.8,2.8,0,0,0,1,.18,3,3,0,0,0,1-.17,2.4,2.4,0,0,0,.81-.5,2.32,2.32,0,0,0,.52-.78A2.61,2.61,0,0,0,228.42,155.51Z"/><path d="M234.8,152a3.24,3.24,0,0,1,2,.56,3.94,3.94,0,0,1,1.16,1.43,6.44,6.44,0,0,1,.55,1.9,13.08,13.08,0,0,1,0,3.95,6.46,6.46,0,0,1-.57,1.9,3.84,3.84,0,0,1-1.17,1.42,3.24,3.24,0,0,1-2,.55,3.28,3.28,0,0,1-2-.57,3.89,3.89,0,0,1-1.17-1.43,6.44,6.44,0,0,1-.55-1.9,14,14,0,0,1,0-3.95,6.31,6.31,0,0,1,.57-1.89,3.78,3.78,0,0,1,1.17-1.42A3.17,3.17,0,0,1,234.8,152Zm0,1.05a2.09,2.09,0,0,0-1.47.49,3.08,3.08,0,0,0-.81,1.23,5.71,5.71,0,0,0-.35,1.57c0,.55-.08,1.05-.08,1.5s0,1,.06,1.5a6.09,6.09,0,0,0,.34,1.57,3.2,3.2,0,0,0,.8,1.24,2.42,2.42,0,0,0,2.93,0A3.08,3.08,0,0,0,237,161a5.72,5.72,0,0,0,.35-1.56,14.06,14.06,0,0,0,.08-1.51c0-.45,0-1-.06-1.5a6.09,6.09,0,0,0-.34-1.57,3.2,3.2,0,0,0-.8-1.24A2.09,2.09,0,0,0,234.8,153.09Z"/><path d="M244.82,157.77a7.73,7.73,0,0,0,0-.83c0-.28,0-.55-.05-.83h1.14v1.14h0a2.47,2.47,0,0,1,1.06-1,3.12,3.12,0,0,1,1.36-.33,3.79,3.79,0,0,1,.64.07,2.16,2.16,0,0,1,.67.24,2.34,2.34,0,0,1,.6.47,2.39,2.39,0,0,1,.46.79,2.56,2.56,0,0,1,1-1.14,2.87,2.87,0,0,1,1.45-.41,2.77,2.77,0,0,1,2.13.77,3.14,3.14,0,0,1,.68,2.17l0,4.76h-1.06l0-4.37a3.23,3.23,0,0,0-.39-1.74,1.67,1.67,0,0,0-1.49-.62,2,2,0,0,0-1,.23,1.9,1.9,0,0,0-.65.61,2.82,2.82,0,0,0-.37.87,4.9,4.9,0,0,0-.11,1l0,4h-1v-4.37a3.06,3.06,0,0,0-.39-1.74,1.63,1.63,0,0,0-1.48-.62l-.44.06a1.84,1.84,0,0,0-.72.35,2.68,2.68,0,0,0-.67.86,3.83,3.83,0,0,0-.3,1.6v3.84H244.8Z"/><path d="M258.46,157.83c0-.28,0-.55,0-.83l-.06-.83h1.14v1.14h0a2.39,2.39,0,0,1,1.07-1,3,3,0,0,1,2-.26,2.36,2.36,0,0,1,.66.23,2.39,2.39,0,0,1,.6.48,2.65,2.65,0,0,1,.47.78,2.42,2.42,0,0,1,1-1.13,2.82,2.82,0,0,1,1.45-.41,2.74,2.74,0,0,1,2.12.77,3.12,3.12,0,0,1,.68,2.17l0,4.75h-1.06l0-4.37a3.12,3.12,0,0,0-.39-1.74,1.65,1.65,0,0,0-1.49-.62,2,2,0,0,0-1,.23,1.9,1.9,0,0,0-.65.61,2.58,2.58,0,0,0-.36.87,4.31,4.31,0,0,0-.12,1l0,4h-1.05l0-4.37a3.17,3.17,0,0,0-.4-1.75,1.65,1.65,0,0,0-1.48-.61l-.44.06a1.71,1.71,0,0,0-.72.35,2.67,2.67,0,0,0-.66.86,3.66,3.66,0,0,0-.31,1.6v3.84h-1.06Z"/></g><line class="cls-2" x1="209.82" y1="147.4" x2="31.76" y2="147.4"/><line class="cls-2" x1="209.82" y1="148.53" x2="209.82" y2="146.19"/><line class="cls-2" x1="31.76" y1="148.53" x2="31.76" y2="146.19"/><g class="cls-3"><path d="M93.36,157.23H94a3.69,3.69,0,0,0,1-.11,2.09,2.09,0,0,0,.8-.36,1.71,1.71,0,0,0,.53-.65,2,2,0,0,0,.2-1,1.8,1.8,0,0,0-.55-1.41,2.18,2.18,0,0,0-1.54-.51,2.52,2.52,0,0,0-1.27.32,2.57,2.57,0,0,0-.89.93l-1-.51a3.33,3.33,0,0,1,1.3-1.35,3.75,3.75,0,0,1,1.83-.44,4.07,4.07,0,0,1,1.27.19,3.18,3.18,0,0,1,1,.57,2.76,2.76,0,0,1,1,2.18,2.58,2.58,0,0,1-.15.88,2.72,2.72,0,0,1-.41.75,2.89,2.89,0,0,1-.62.59,2.7,2.7,0,0,1-.74.37l0,0a2.28,2.28,0,0,1,.88.36,2.63,2.63,0,0,1,.69.64,3.26,3.26,0,0,1,.45.87,3.34,3.34,0,0,1,.16,1A3.26,3.26,0,0,1,97.6,162a3,3,0,0,1-.78,1,3.34,3.34,0,0,1-1.16.63,4.58,4.58,0,0,1-3.56-.32,3.37,3.37,0,0,1-1.4-1.75l1.22-.37a2.33,2.33,0,0,0,.86,1.21,2.79,2.79,0,0,0,1.59.39,2.53,2.53,0,0,0,.91-.16,2.16,2.16,0,0,0,.76-.45,2.11,2.11,0,0,0,.51-.71,2.17,2.17,0,0,0,.19-.92,2.27,2.27,0,0,0-.24-1.08,2.09,2.09,0,0,0-.64-.71,2.81,2.81,0,0,0-.92-.39,4.83,4.83,0,0,0-1.08-.12h-.5Z"/><path d="M103.44,152.18a3.24,3.24,0,0,1,2,.56,3.86,3.86,0,0,1,1.17,1.42,6.77,6.77,0,0,1,.56,1.9,14,14,0,0,1,0,3.95,6.77,6.77,0,0,1-.56,1.9,3.86,3.86,0,0,1-1.17,1.42,3.75,3.75,0,0,1-3.94,0,3.86,3.86,0,0,1-1.17-1.42,6.77,6.77,0,0,1-.56-1.9,14,14,0,0,1,0-3.95,6.77,6.77,0,0,1,.56-1.9,3.86,3.86,0,0,1,1.17-1.42A3.24,3.24,0,0,1,103.44,152.18Zm0,1a2.05,2.05,0,0,0-1.46.5,3.08,3.08,0,0,0-.81,1.23,6.19,6.19,0,0,0-.35,1.57c0,.55-.07,1.06-.07,1.5s0,.95.07,1.51a6.19,6.19,0,0,0,.35,1.57,3.08,3.08,0,0,0,.81,1.23,2.42,2.42,0,0,0,2.92,0,3.08,3.08,0,0,0,.81-1.23,6.19,6.19,0,0,0,.35-1.57c0-.56.07-1.06.07-1.51s0-.95-.07-1.5a6.19,6.19,0,0,0-.35-1.57,3.08,3.08,0,0,0-.81-1.23A2.05,2.05,0,0,0,103.44,153.23Z"/><path d="M115.33,153.43H110.7l-.08,3.4a4.05,4.05,0,0,1,.76-.2,3.91,3.91,0,0,1,.76-.07,3.8,3.8,0,0,1,1.46.27,3.57,3.57,0,0,1,1.13.76,3.47,3.47,0,0,1,.73,1.16,3.77,3.77,0,0,1,.27,1.44,3.82,3.82,0,0,1-.29,1.5,3.53,3.53,0,0,1-.8,1.17,3.66,3.66,0,0,1-1.21.76,4.13,4.13,0,0,1-1.51.27,3.77,3.77,0,0,1-1.94-.51,3.32,3.32,0,0,1-1.32-1.51l1.15-.49a2.58,2.58,0,0,0,.89,1.06,2.31,2.31,0,0,0,1.33.39,2.38,2.38,0,0,0,1-.2,2.48,2.48,0,0,0,.8-.53,2.65,2.65,0,0,0,.55-.8,2.54,2.54,0,0,0,.2-1,2.75,2.75,0,0,0-.21-1.09,2.56,2.56,0,0,0-.58-.86,2.48,2.48,0,0,0-.88-.55,3.1,3.1,0,0,0-1.12-.19,4.21,4.21,0,0,0-1.21.17,5.64,5.64,0,0,0-1.14.45l.11-5.87h5.78Z"/><path d="M122.38,157.87c0-.27,0-.55,0-.83s0-.55-.06-.83h1.14v1.14h0a2.52,2.52,0,0,1,1.07-1,3.05,3.05,0,0,1,1.35-.33,3.83,3.83,0,0,1,.65.06,2.25,2.25,0,0,1,.66.23,2.39,2.39,0,0,1,.6.48,2.45,2.45,0,0,1,.47.78,2.5,2.5,0,0,1,1-1.14,2.82,2.82,0,0,1,1.45-.41,2.69,2.69,0,0,1,2.12.76,3.12,3.12,0,0,1,.69,2.17v4.75H132.5v-4.37a3.2,3.2,0,0,0-.4-1.74,1.65,1.65,0,0,0-1.49-.61,2,2,0,0,0-1,.23,1.84,1.84,0,0,0-.65.62,2.42,2.42,0,0,0-.36.87,4.17,4.17,0,0,0-.11,1v4h-1.06v-4.37a3.11,3.11,0,0,0-.4-1.74,1.64,1.64,0,0,0-1.49-.61l-.44.06a1.67,1.67,0,0,0-.71.35,2.46,2.46,0,0,0-.66.87,3.51,3.51,0,0,0-.3,1.6v3.84h-1.06Z"/><path d="M136,157.87c0-.27,0-.55,0-.83s0-.55-.05-.83h1.13v1.14h0a2.52,2.52,0,0,1,1.07-1,3.05,3.05,0,0,1,1.35-.33,3.83,3.83,0,0,1,.65.06,2.25,2.25,0,0,1,.66.23,2.08,2.08,0,0,1,.6.48,2.28,2.28,0,0,1,.47.78,2.56,2.56,0,0,1,1-1.14,2.85,2.85,0,0,1,1.45-.41,2.73,2.73,0,0,1,2.13.76,3.17,3.17,0,0,1,.68,2.17v4.75h-1.05v-4.37a3.2,3.2,0,0,0-.4-1.74,1.64,1.64,0,0,0-1.49-.61,2,2,0,0,0-1,.23,1.93,1.93,0,0,0-.65.62,2.42,2.42,0,0,0-.36.87,4.74,4.74,0,0,0-.11,1v4h-1.06v-4.37a3.11,3.11,0,0,0-.4-1.74,1.63,1.63,0,0,0-1.49-.61l-.44.06a1.67,1.67,0,0,0-.71.35,2.72,2.72,0,0,0-.66.87,3.51,3.51,0,0,0-.3,1.6v3.84h-1Z"/></g><line class="cls-2" x1="20.3" y1="74.03" x2="20.36" y2="129.46"/><line class="cls-2" x1="20.99" y1="74.03" x2="19.56" y2="74.03"/><line class="cls-2" x1="21.05" y1="129.46" x2="19.61" y2="129.46"/><g class="cls-3"><path d="M11,121.61l0,0a2,2,0,0,1,.28.73,4.3,4.3,0,0,1,.09.84,3.45,3.45,0,0,1-1,2.46,3.23,3.23,0,0,1-1.11.72,3.84,3.84,0,0,1-2.83,0,3.34,3.34,0,0,1-1.1-.78,3.49,3.49,0,0,1-.72-1.17A4.12,4.12,0,0,1,4.31,123a4,4,0,0,1,.26-1.47,3.51,3.51,0,0,1,.73-1.17,3.18,3.18,0,0,1,1.11-.76,3.42,3.42,0,0,1,1.42-.26,4.6,4.6,0,0,1,1.65.28,9.6,9.6,0,0,1,1.39.71l5,3.08v1.36Zm-3.14-1.17a2.66,2.66,0,0,0-1,.18,2.25,2.25,0,0,0-.77.51,2.61,2.61,0,0,0-.51.8,2.93,2.93,0,0,0,0,2,2.52,2.52,0,0,0,.5.8,2.18,2.18,0,0,0,.77.52,2.4,2.4,0,0,0,1,.19A2.31,2.31,0,0,0,10.08,124a2.8,2.8,0,0,0,.18-1,3.09,3.09,0,0,0-.17-1,2.36,2.36,0,0,0-.5-.8,2.38,2.38,0,0,0-.77-.52A2.46,2.46,0,0,0,7.83,120.44Z"/><path d="M5.62,111.06l0,4.63,3.41.1a4.17,4.17,0,0,1-.2-.75,5.09,5.09,0,0,1-.06-.77A3.8,3.8,0,0,1,9,112.81a3.25,3.25,0,0,1,.77-1.12,3.42,3.42,0,0,1,1.15-.73,4,4,0,0,1,1.45-.26,3.81,3.81,0,0,1,1.49.3,3.32,3.32,0,0,1,1.17.81A3.64,3.64,0,0,1,15.8,113a4.13,4.13,0,0,1,.27,1.51,3.7,3.7,0,0,1-.53,1.93A3.26,3.26,0,0,1,14,117.78l-.49-1.15a2.61,2.61,0,0,0,1.07-.89,2.29,2.29,0,0,0,.4-1.32,2.35,2.35,0,0,0-.2-1,2.47,2.47,0,0,0-.53-.81,2.61,2.61,0,0,0-.79-.55,2.54,2.54,0,0,0-1-.2,2.58,2.58,0,0,0-1.09.2,2.4,2.4,0,0,0-.86.57,2.5,2.5,0,0,0-.56.88,3.32,3.32,0,0,0-.2,1.11,4.52,4.52,0,0,0,.16,1.21A5.72,5.72,0,0,0,10.4,117l-5.87-.15,0-5.77Z"/><path d="M10.11,104l-.83,0-.84,0V103H9.59v0a2.44,2.44,0,0,1-1-1.07,3.05,3.05,0,0,1-.33-1.35,3.9,3.9,0,0,1,.07-.65,2,2,0,0,1,.24-.66,2.34,2.34,0,0,1,.47-.6,2.71,2.71,0,0,1,.79-.47,2.38,2.38,0,0,1-1.13-1,2.75,2.75,0,0,1-.41-1.45,2.69,2.69,0,0,1,.77-2.12,3.12,3.12,0,0,1,2.17-.68l4.75,0v1l-4.37,0a3.2,3.2,0,0,0-1.74.39,1.64,1.64,0,0,0-.62,1.49,2,2,0,0,0,.22,1,1.93,1.93,0,0,0,.62.65,2.42,2.42,0,0,0,.87.36,4.17,4.17,0,0,0,1,.12l4,0V99l-4.37,0a3,3,0,0,0-1.74.39,1.63,1.63,0,0,0-.62,1.48,3.37,3.37,0,0,0,.06.44,1.71,1.71,0,0,0,.35.72,2.67,2.67,0,0,0,.86.66,3.49,3.49,0,0,0,1.6.31l3.84,0v1.06Z"/><path d="M10.18,90.4l-.83,0-.83,0V89.34H9.66v0a2.47,2.47,0,0,1-1-1.07,3,3,0,0,1-.26-2,2.25,2.25,0,0,1,.23-.66,2,2,0,0,1,.48-.6,2.45,2.45,0,0,1,.78-.47,2.42,2.42,0,0,1-1.13-1A2.76,2.76,0,0,1,8.38,82a2.69,2.69,0,0,1,.77-2.12,3.12,3.12,0,0,1,2.17-.68l4.75,0v1l-4.36,0a3.09,3.09,0,0,0-1.75.39,1.65,1.65,0,0,0-.62,1.48,2,2,0,0,0,.23,1,2,2,0,0,0,.61.65,2.58,2.58,0,0,0,.87.36,4.31,4.31,0,0,0,1,.12l4,0v1.06l-4.37,0a3.27,3.27,0,0,0-1.75.39,1.67,1.67,0,0,0-.61,1.49,3.61,3.61,0,0,0,.06.44,1.62,1.62,0,0,0,.35.71,2.45,2.45,0,0,0,.86.67,3.58,3.58,0,0,0,1.59.31l3.84,0v1.06Z"/></g><g class="cls-4"><rect class="cls-5" x="96.26" y="73.03" width="165.09" height="53.55" rx="3.46" ry="3.46"/><path class="cls-5" d="M98.8,73.14v53.14m2.62-53.14v53.14m2.63-53.14v53.14m2.62-53.14v53.14m2.62-53.14v53.14m2.63-53.14v53.14m2.62-53.14v53.14m2.62-53.14v53.14m2.63-53.14v53.14m2.62-53.14v53.14M125,73.14v53.14m2.61-53.14v53.14m2.63-53.14v53.14m2.62-53.14v53.14m2.63-53.14v53.14m2.62-53.14v53.14m2.62-53.14v53.14m2.62-53.14v53.14M146,73.14v53.14m2.62-53.14v53.14m2.62-53.14v53.14m2.63-53.14v53.14m2.62-53.14v53.14m2.62-53.14v53.14m2.63-53.14v53.14m2.62-53.14v53.14M167,73.14v53.14m2.62-53.14v53.14m2.62-53.14v53.14m2.62-53.14v53.14m2.63-53.14v53.14m2.62-53.14v53.14m2.62-53.14v53.14m2.63-53.14v53.14M188,73.14v53.14m2.62-53.14v53.14m2.62-53.14v53.14m2.63-53.14v53.14m2.62-53.14v53.14m2.62-53.14v53.14m2.63-53.14v53.14m2.62-53.14v53.14M209,73.14v53.14m2.62-53.14v53.14m2.62-53.14v53.14m2.63-53.14v53.14m2.62-53.14v53.14m2.62-53.14v53.14m2.32-53.14V130"/></g><rect class="cls-1" x="224.07" y="74.94" width="43.99" height="55.07"/><g class="cls-6"><path class="cls-5" d="M38,76.5A3.46,3.46,0,0,1,41.48,73H199.65a3.47,3.47,0,0,1,3.46,3.47v46.62a3.46,3.46,0,0,1-3.46,3.46H41.48A3.45,3.45,0,0,1,38,123.12Z"/></g><rect class="cls-1" x="31.76" y="74.94" width="178.06" height="55.07"/><path class="cls-7" d="M238.58,83.82a4.43,4.43,0,1,1-4.43-4.43A4.44,4.44,0,0,1,238.58,83.82Z"/></svg>