<svg id="Overlap_S1" data-name="Overlap S1" xmlns="http://www.w3.org/2000/svg" xmlns:xlink="http://www.w3.org/1999/xlink" viewBox="0 0 300 263"><defs><style>.cls-1,.cls-2,.cls-5,.cls-6{fill:none;}.cls-2,.cls-5{stroke:#000;}.cls-2,.cls-6{stroke-width:0.5px;}.cls-3{isolation:isolate;font-size:16px;font-family:Avenir-Book, Avenir;}.cls-4{clip-path:url(#clip-path);}.cls-5{stroke-linecap:round;stroke-linejoin:round;stroke-width:0.25px;}.cls-6{stroke:#181716;}</style><clipPath id="clip-path"><rect class="cls-1" x="116.66" y="56.28" width="67.41" height="116.38"/></clipPath></defs><title>Overlap-S1-anastassiades-flos-F4633009-spech-tech-300x263</title><line class="cls-2" x1="87.33" y1="88.5" x2="90.73" y2="88.5"/><line class="cls-2" x1="89.03" y1="88.5" x2="89.03" y2="46.71"/><line class="cls-2" x1="87.33" y1="46.71" x2="90.73" y2="46.71"/><text class="cls-3" transform="translate(80.63 165.62) rotate(-90)">830 mm</text><text class="cls-3" transform="translate(80.63 101.55) rotate(-90)">4000 mm</text><line class="cls-2" x1="116.14" y1="181.64" x2="183.55" y2="181.64"/><line class="cls-2" x1="116.14" y1="180.79" x2="116.14" y2="182.49"/><line class="cls-2" x1="183.55" y1="180.79" x2="183.55" y2="182.49"/><text class="cls-3" transform="translate(113.92 199.77)">ø 655 mm</text><line class="cls-2" x1="89.03" y1="172.66" x2="89.03" y2="88.5"/><line class="cls-2" x1="87.31" y1="88.48" x2="90.61" y2="88.48"/><line class="cls-2" x1="86.68" y1="172.66" x2="91.37" y2="172.66"/><g class="cls-4"><path class="cls-5" d="M151.39,155.3v-.2m0,1.75V156m-2.06,0v.83m0-1.75v.2m1.26-49.75,0-.09,0-.08-.08,0-.08,0-.09,0-.08,0-.05.08,0,.09m0,66.81,0,.09.05.07.08.06h.17l.08-.06,0-.07,0-.09m0,0V105.55m-.47,0v66.81m-1.56-84.3v.3m3.6,0v-.3M150,88.5l-1.11,0-1.1.07-1.1.1-1.1.14-1.09.17-1.08.21-1.08.25-1.08.28-1.05.31-1.06.35-1,.39-1,.42-1,.45-1,.48-1,.53-.95.54-1,.58-.92.62-.9.63-.88.67-.86.7-.83.73-.81.75-.79.79-.75.8-.73.83-.7.85-.68.88-.64.89-.62.93-.59.93-.56,1-.52,1-.48,1-.46,1-.43,1-.39,1-.36,1-.32,1-.28,1.08-.25,1.07-.22,1.09-.18,1.09-.14,1.1-.11,1.09-.07,1.11,0,1.11v1.11l0,1.1.08,1.1L117,126l.14,1.1.18,1.09.22,1.08.26,1.08.29,1.07.32,1.06.36,1,.39,1,.43,1,.45,1,.5,1,.53,1,.55,1,.59.93.62.91.64.9.68.88.71.85.73.83.76.8.79.78.81.75.83.73.87.69.87.67.91.65.92.6.94.58,1,.55,1,.51,1,.48,1,.45,1,.42,1,.38,1.05.35,1.06.32,1.07.27,1.08.25,1.09.2,1.09.18,1.1.13,1.1.1,1.1.06.4,0m1.93,0,1,0,1.11-.08,1.09-.12,1.1-.15,1.08-.2,1.09-.22,1.08-.26,1.06-.3,1.05-.33,1.05-.37,1-.39,1-.44,1-.47,1-.5,1-.53.95-.57.93-.59.91-.62.89-.66.87-.69.85-.71.82-.74.8-.76.77-.8.75-.81.72-.84.69-.86.66-.89.63-.91.6-.93.57-.94.55-1,.5-1,.48-1,.44-1,.4-1,.38-1,.34-1.05.31-1.06.26-1.08.24-1.08.2-1.08.16-1.1.13-1.1.09-1.1.05-1.1,0-1.11m0,0,0-1.12-.05-1.11-.09-1.11-.13-1.11-.17-1.11-.2-1.1-.24-1.09-.28-1.08-.31-1.08-.35-1-.38-1.06-.41-1-.45-1-.49-1-.51-1-.55-1-.58-1-.62-.93-.65-.91-.67-.89-.7-.87-.73-.84-.76-.82-.78-.8-.82-.77-.84-.74-.86-.71-.88-.68-.9-.66-.93-.62-.95-.59-1-.56-1-.52-1-.5-1-.46-1-.43-1-.39-1.06-.36-1.07-.32-1.08-.29-1.09-.24-1.1-.22-1.1-.17L154,88.69l-1.11-.1-1.11-.07-1.12,0m0,.46,1.1,0,1.1.06,1.09.11,1.09.13,1.08.18,1.08.21,1.07.24,1.06.29,1,.31,1.05.35,1,.39,1,.41,1,.46,1,.48,1,.52,1,.55.93.58.91.61.9.64.87.67.84.7.82.72.81.76.77.77.75.81.72.83.7.85.66.87.63.9.61.92.58.93.54,1,.51,1,.48,1,.45,1,.41,1,.38,1,.34,1,.31,1,.27,1.07.24,1.07.21,1.08.16,1.09.13,1.09.11,1.1.05,1.09,0,1.1,0,1.1,0,1.09-.09,1.1-.11,1.09-.16,1.08-.2,1.09-.23,1.07-.26,1.07-.31,1-.33,1.05-.37,1-.41,1-.43,1-.47,1-.5,1-.54,1-.56.94-.61.93-.62.9-.66.87-.68.86-.72.84-.74.81-.77.79-.79.75-.82.74-.84.7-.86.68-.89.65-.91.62-.93.59-.94.55-1,.53-1,.49-1,.46-1,.43-1,.39-1,.37-1.05.31-1.06.29-1.07.26-1.08.22-1.08.18-1.08.15-1.1.12-1.09.07-.7,0m-2,0-.55,0-1.09-.08-1.1-.1-1.08-.14-1.09-.19-1.08-.21-1.07-.25-1.06-.28-1.05-.32-1-.36-1-.39-1-.42-1-.46-1-.49-1-.51-.95-.56-.93-.58-.91-.62-.89-.64-.86-.68-.85-.7-.82-.73-.8-.75-.77-.78-.74-.82-.72-.82-.69-.86-.66-.88-.63-.9-.6-.92-.58-.93-.53-1-.51-1-.48-1-.44-1-.41-1-.37-1-.34-1-.3-1.05-.28-1.07-.23-1.07-.2-1.08-.16-1.09-.13-1.09-.09-1.09-.06-1.1v-1.1m0,0V121l.06-1.1.09-1.1.13-1.09.16-1.09.2-1.08.24-1.08.27-1.07.31-1.06.34-1,.38-1,.4-1,.45-1,.47-1,.52-1,.54-1,.58-1,.6-.92.64-.9.66-.87.69-.86.72-.83.75-.81.77-.78.81-.76.82-.73.85-.7.87-.68.9-.64.91-.61.93-.59,1-.55,1-.52,1-.49,1-.45,1-.42,1-.39,1-.35,1.06-.32,1.06-.28,1.08-.24,1.08-.22,1.09-.17,1.08-.14,1.11-.11,1.09-.06,1.1,0m-.69,66.34h0m0,0h0V156h0m0,.83h.79m.47,0h.8m0-.83h0v-.57l0,0v-.07h0m0-.23h-.8m-.47,0h-.79m1-67h1.8m-3.6,0h1.8m0,.3h1.8m-3.6,0h1.8m.33.14h0v0h0v.16h0v.06h0v0h0v0h0M150,89h0v0h0v-.1h0v-.14h0v-.06h0v-.06h0v0h0"/></g><line class="cls-6" x1="149.85" y1="88.48" x2="149.85" y2="47.02"/></svg>