<svg id="Overlap_S2" data-name="Overlap S2" xmlns="http://www.w3.org/2000/svg" xmlns:xlink="http://www.w3.org/1999/xlink" viewBox="0 0 136.65 215.87"><defs><style>.cls-1,.cls-2,.cls-5,.cls-6{fill:none;}.cls-2,.cls-5{stroke:#000;}.cls-2,.cls-6{stroke-width:0.5px;}.cls-3{isolation:isolate;font-size:16px;font-family:Avenir-Book, Avenir;}.cls-4{clip-path:url(#clip-path);}.cls-5{stroke-linecap:round;stroke-linejoin:round;stroke-width:0.25px;}.cls-6{stroke:#181716;}</style><clipPath id="clip-path" transform="translate(-65.28 -34.25)"><rect class="cls-1" x="98.02" y="55.81" width="103.65" height="161.94"/></clipPath></defs><title>Overlap-S2-anastassiades-flos-F4634009-spech-tech-300x263</title><line class="cls-2" x1="22.05" y1="54.26" x2="25.45" y2="54.26"/><line class="cls-2" x1="23.75" y1="54.26" x2="23.75" y2="12.46"/><line class="cls-2" x1="22.05" y1="12.46" x2="25.45" y2="12.46"/><text class="cls-3" transform="translate(15.36 159.78) rotate(-90)">1260 mm</text><text class="cls-3" transform="translate(15.36 67.3) rotate(-90)">4000 mm</text><line class="cls-2" x1="32.75" y1="193.14" x2="136.4" y2="193.14"/><line class="cls-2" x1="32.75" y1="192.29" x2="32.75" y2="193.99"/><line class="cls-2" x1="136.4" y1="192.29" x2="136.4" y2="193.99"/><text class="cls-3" transform="translate(44.05 211.27)">ø 1000 mm</text><line class="cls-2" x1="23.75" y1="183.5" x2="23.75" y2="54.26"/><line class="cls-2" x1="22.04" y1="54.23" x2="25.33" y2="54.23"/><line class="cls-2" x1="21.4" y1="183.5" x2="26.1" y2="183.5"/><g class="cls-4"><path class="cls-5" d="M148.05,88.18v.3m3.6,0v-.3m-.78,103.09v-.2m0,1.75V192m-2.05,0v.82m0-1.75v.2m1.39-76.73,0-.12-.06-.11-.1-.08-.12,0h-.12l-.12,0-.09.08-.07.11,0,.12m0,102.79,0,.13.07.1.09.08.12.05h.12l.12-.05.1-.08.06-.1,0-.13m0,0h0V114.54m-.72,0V217.32h0m-.15-128.85-1.37,0-1.37.06-1.36.1-1.36.15-1.36.17-1.35.21-1.34.25-1.34.28-1.33.32-1.32.36-1.31.38-1.3.42-1.29.46-1.28.49-1.26.52-1.25.56-1.23.59-1.22.62-1.2.66-1.18.68-1.17.72-1.15.74-1.12.78-1.1.8-1.09.85-1,.86-1,.88-1,.93-1,.94-1,1-.93,1-.92,1-.88,1-.85,1.07-.83,1.08-.79,1.11-.77,1.14-.74,1.15-.71,1.17-.68,1.19-.64,1.2-.61,1.23-.58,1.24-.55,1.24-.51,1.27-.49,1.29-.44,1.29-.41,1.3-.38,1.32-.34,1.32-.31,1.33L99,130.61,98.76,132l-.2,1.36-.16,1.36L98.27,136l-.1,1.36-.06,1.37,0,1.37,0,1.36,0,1.37.08,1.36.13,1.37.16,1.35.19,1.35.23,1.35.27,1.34.3,1.34.34,1.33.37,1.31.41,1.3.44,1.3.47,1.28.51,1.27.54,1.25.58,1.25.6,1.22.64,1.21.68,1.19.69,1.17.74,1.16.76,1.14.8,1.11.81,1.09.86,1.07.88,1.05.9,1,.93,1,1,1,1,1,1,.93,1,.89,1.05.88,1.08.84,1.11.8,1.12.78,1.14.76,1.16.72,1.18.69,1.2.66,1.22.63,1.22.59,1.25.56,1.26.53,1.28.5,1.28.46,1.3.42,1.31.4,1.32.36,1.33.33,1.33.28,1.35.25,1.35.22,1.35.18,1.36.15,1.37.1,1.36.08,1.08,0m2.05,0,1,0,1.37-.07,1.36-.1,1.36-.14,1.36-.19,1.34-.21L160,191l1.34-.28,1.32-.32L164,190l1.32-.39,1.3-.43,1.29-.45,1.27-.5,1.26-.52,1.25-.56,1.23-.59,1.22-.63,1.2-.66,1.18-.69,1.16-.71,1.14-.75,1.13-.78,1.1-.81,1.08-.84,1.06-.86,1-.89,1-.93,1-.95,1-1,.94-1,.91-1,.87-1.05.86-1.07.83-1.09.79-1.12.76-1.13.74-1.15.71-1.17.67-1.19.64-1.21.61-1.22.58-1.24.54-1.25.51-1.27.48-1.29.44-1.29.42-1.3.37-1.32.34-1.32.3-1.34.27-1.34.23-1.34.2-1.36.16-1.35.13-1.37.09-1.36.05-1.36,0-1.37m0,0,0-1.37-.05-1.37-.09-1.36-.13-1.37-.16-1.36-.2-1.36-.23-1.34-.27-1.35-.31-1.33-.34-1.33-.37-1.31-.41-1.31-.45-1.29-.48-1.29-.51-1.27L197,119l-.58-1.24-.61-1.23-.65-1.21-.67-1.19-.71-1.17-.74-1.16-.77-1.13-.79-1.11-.83-1.09-.86-1.07-.88-1-.91-1-.93-1-1-1-1-1-1-.92-1-.89L182,99.72,181,98.87l-1.11-.8-1.13-.78-1.14-.75-1.16-.72-1.19-.69-1.2-.65-1.22-.62-1.24-.6-1.25-.56-1.26-.52-1.28-.49-1.29-.46-1.3-.42-1.31-.39-1.33-.36-1.33-.31-1.34-.28-1.35-.26L157.18,89l-1.35-.17-1.37-.14-1.36-.11-1.37-.06-1.37,0m0,.73,1.36,0,1.35.06,1.35.11,1.35.14,1.35.17,1.33.21,1.34.25,1.32.28,1.32.32,1.31.35,1.31.38,1.28.42,1.28.46,1.26.49,1.25.53,1.24.55,1.22.58,1.21.63,1.19.65,1.17.68,1.15.71,1.13.75,1.12.78,1.09.79,1.07.84,1,.86,1,.89,1,.91,1,.94,1,1,.93,1,.89,1,.87,1,.85,1.06.81,1.08.78,1.11.76,1.12.72,1.15.7,1.17.67,1.18.63,1.2.59,1.21.57,1.23.53,1.25.5,1.26.48,1.27.43,1.29.4,1.29.36,1.31.33,1.32.3,1.32.26,1.33.22,1.34.19,1.34.15,1.35.12,1.35.08,1.35,0,1.36v1.35l0,1.35-.07,1.36-.1,1.36-.13,1.34-.17,1.35-.21,1.34-.24,1.33-.28,1.33-.31,1.32L199,154l-.38,1.3-.42,1.29-.45,1.28-.48,1.27-.52,1.24-.55,1.25-.59,1.22L195,164l-.65,1.19-.68,1.18-.71,1.15-.74,1.13-.77,1.12-.8,1.09-.83,1.08L189,173l-.88,1-.91,1-.94,1-1,1-1,.92-1,.9-1,.87-1.06.85-1.08.82-1.11.79-1.11.76-1.15.73-1.16.69-1.18.67-1.2.64-1.22.6-1.22.58-1.25.53-1.25.51-1.27.47-1.29.44-1.29.4-1.31.37-1.31.34-1.32.29-1.34.26-1.33.24-1.34.19-1.35.15-1.35.13-1.35.08-1.36,0h-.16m-2.05,0-.5,0-1.35-.06-1.35-.09-1.35-.13-1.35-.17-1.34-.2-1.34-.23-1.33-.28-1.31-.31-1.32-.34-1.3-.38-1.29-.41-1.28-.44-1.27-.48-1.25-.52-1.24-.55-1.23-.58-1.21-.61-1.19-.64-1.18-.68-1.16-.7-1.13-.74-1.12-.77-1.1-.79-1.08-.83-1-.85-1-.88-1-.92-1-.92-1-1-.94-1-.9-1-.88-1-.85-1.06-.82-1.08-.79-1.1-.76-1.12-.74-1.14-.7-1.16-.67-1.18-.64-1.19-.61-1.21-.57-1.24-.55-1.24-.51-1.25-.47-1.27-.45-1.28-.4-1.3-.38-1.3-.33-1.31L100,151l-.27-1.34-.23-1.33L99.27,147l-.17-1.35L99,144.3l-.1-1.35,0-1.36v-1.35m0,0v-1.37l.06-1.38.09-1.37.13-1.37.16-1.36.21-1.36.24-1.35.27-1.34.31-1.34.35-1.33.39-1.32.41-1.31.46-1.29.48-1.28.52-1.28.56-1.26.59-1.24.62-1.21.66-1.22.69-1.18.71-1.17.76-1.15.78-1.13.81-1.11.84-1.09.87-1.06.9-1,.93-1,1-1,1-1,1-.94,1-.91,1-.88,1.08-.85,1.11-.82,1.11-.79,1.15-.76,1.16-.74,1.18-.7,1.2-.67,1.22-.64,1.23-.6,1.25-.56L130.6,93l1.27-.5,1.29-.46,1.31-.44,1.31-.39,1.33-.36,1.33-.33,1.35-.29,1.34-.25,1.36-.21,1.36-.19,1.37-.14,1.37-.1,1.37-.07,1.38,0m.51-.73h1.8m-3.6,0h1.8m0-.3h1.8m-3.6,0h1.8m-1,103.11h0v.06l0,.08v.32l0,.1,0,.08,0,0v0m0,.82h.67m.72,0h.66m0-.82v0l0-.06,0-.08v-.32l0-.1,0-.08v-.07m0-.2h-.66m-.72,0h-.67m1.54-102.59h0v.6h0v.06h0m-1,0h0v0h0V89h0v-.43h0V88.5h0" transform="translate(-65.28 -34.25)"/></g><line class="cls-6" x1="84.57" y1="54.23" x2="84.57" y2="12.77"/></svg>