<svg id="parentesi" xmlns="http://www.w3.org/2000/svg" viewBox="0 0 300 263"><defs><style>.cls-1,.cls-3,.cls-5{fill:none;stroke-width:0.5px;}.cls-1{stroke:#000;}.cls-2{isolation:isolate;}.cls-3{stroke:#1d1d1b;stroke-miterlimit:3.86;}.cls-4{fill:#1d1d1b;}.cls-5{stroke:#575756;}</style></defs><title>parentesi-suspension-castiglioni-manzu-flos-F5400030-spech-tech-02-300x263</title><line class="cls-1" x1="169.73" y1="143.59" x2="173.13" y2="143.59"/><line class="cls-1" x1="171.43" y1="143.59" x2="171.43" y2="46.68"/><line class="cls-1" x1="169.73" y1="46.68" x2="173.13" y2="46.68"/><g class="cls-2"><path d="M113.83,175.63V174h1.06v1.63h2.69v1.16h-2.69v4.89h-1.31l-7.33-4.57v-1.48Zm-6.43,1.16v0l6.43,3.9v-3.93Z"/><path d="M106.06,169a3.24,3.24,0,0,1,.56-2,3.86,3.86,0,0,1,1.42-1.17,6.45,6.45,0,0,1,1.9-.56,14,14,0,0,1,4,0,6.45,6.45,0,0,1,1.9.56,3.86,3.86,0,0,1,1.42,1.17,3.75,3.75,0,0,1,0,3.94,3.74,3.74,0,0,1-1.42,1.16,6.17,6.17,0,0,1-1.9.56,13.08,13.08,0,0,1-4,0,6.17,6.17,0,0,1-1.9-.56,3.74,3.74,0,0,1-1.42-1.16A3.26,3.26,0,0,1,106.06,169Zm1.06,0a2.06,2.06,0,0,0,.49,1.46,3.08,3.08,0,0,0,1.23.81,5.78,5.78,0,0,0,1.57.34c.56.05,1.06.07,1.51.07s.94,0,1.5-.07a5.78,5.78,0,0,0,1.57-.34,3.08,3.08,0,0,0,1.23-.81,2.06,2.06,0,0,0,.49-1.46,2.09,2.09,0,0,0-.49-1.47,3.3,3.3,0,0,0-1.23-.81,6.18,6.18,0,0,0-1.57-.34c-.56-.05-1.06-.07-1.5-.07s-1,0-1.51.07a6.18,6.18,0,0,0-1.57.34,3.3,3.3,0,0,0-1.23.81A2.09,2.09,0,0,0,107.12,169Z"/><path d="M106.06,160.05a3.24,3.24,0,0,1,.56-2,3.74,3.74,0,0,1,1.42-1.16,6.17,6.17,0,0,1,1.9-.56,13.08,13.08,0,0,1,4,0,6.17,6.17,0,0,1,1.9.56,3.74,3.74,0,0,1,1.42,1.16,3.75,3.75,0,0,1,0,3.94,3.86,3.86,0,0,1-1.42,1.17,6.77,6.77,0,0,1-1.9.56,14,14,0,0,1-4,0,6.77,6.77,0,0,1-1.9-.56,3.86,3.86,0,0,1-1.42-1.17A3.24,3.24,0,0,1,106.06,160.05Zm1.06,0a2.09,2.09,0,0,0,.49,1.47,3.17,3.17,0,0,0,1.23.8,6.19,6.19,0,0,0,1.57.35c.56,0,1.06.07,1.51.07s.94,0,1.5-.07a6.19,6.19,0,0,0,1.57-.35,3.17,3.17,0,0,0,1.23-.8,2.09,2.09,0,0,0,.49-1.47,2,2,0,0,0-.49-1.46,3.08,3.08,0,0,0-1.23-.81,5.78,5.78,0,0,0-1.57-.34c-.56-.05-1.06-.08-1.5-.08s-1,0-1.51.08a5.78,5.78,0,0,0-1.57.34,3.08,3.08,0,0,0-1.23.81A2,2,0,0,0,107.12,160.05Z"/><path d="M106.06,151.15a3.21,3.21,0,0,1,.56-2A3.86,3.86,0,0,1,108,148a6.17,6.17,0,0,1,1.9-.56,13.08,13.08,0,0,1,4,0,6.17,6.17,0,0,1,1.9.56,3.86,3.86,0,0,1,1.42,1.17,3.73,3.73,0,0,1,0,3.93,3.86,3.86,0,0,1-1.42,1.17,6.45,6.45,0,0,1-1.9.56,13.08,13.08,0,0,1-4,0,6.45,6.45,0,0,1-1.9-.56,3.86,3.86,0,0,1-1.42-1.17A3.22,3.22,0,0,1,106.06,151.15Zm1.06,0a2.09,2.09,0,0,0,.49,1.47,3.08,3.08,0,0,0,1.23.81,6.18,6.18,0,0,0,1.57.34c.56,0,1.06.07,1.51.07s.94,0,1.5-.07a6.18,6.18,0,0,0,1.57-.34,3.08,3.08,0,0,0,1.23-.81,2.44,2.44,0,0,0,0-2.93,3.08,3.08,0,0,0-1.23-.81,6.18,6.18,0,0,0-1.57-.34c-.56,0-1.06-.07-1.5-.07s-1,0-1.51.07a6.18,6.18,0,0,0-1.57.34,3.08,3.08,0,0,0-1.23.81A2.08,2.08,0,0,0,107.12,151.15Z"/><path d="M111.75,141.11l-.83,0-.83.06v-1.14h1.14v0a2.47,2.47,0,0,1-1-1.06,3,3,0,0,1-.34-1.36A3.63,3.63,0,0,1,110,137a2.34,2.34,0,0,1,.24-.67,2.14,2.14,0,0,1,.47-.6,2.45,2.45,0,0,1,.78-.47,2.38,2.38,0,0,1-1.13-1,2.74,2.74,0,0,1-.42-1.45,2.7,2.7,0,0,1,.76-2.12,3.12,3.12,0,0,1,2.17-.69h4.75V131h-4.37a3.11,3.11,0,0,0-1.74.41,1.62,1.62,0,0,0-.61,1.48,2,2,0,0,0,.23,1,1.84,1.84,0,0,0,.62.65,2.42,2.42,0,0,0,.87.36,4.17,4.17,0,0,0,1,.11h4v1.06h-4.37a3.11,3.11,0,0,0-1.74.4,1.64,1.64,0,0,0-.61,1.49,3.61,3.61,0,0,0,.06.44,1.65,1.65,0,0,0,.36.71,2.33,2.33,0,0,0,.86.66,3.51,3.51,0,0,0,1.6.3h3.84v1.06Z"/><path d="M111.75,127.48c-.27,0-.55,0-.83,0l-.83.06v-1.14h1.14v0a2.44,2.44,0,0,1-1-1.07,2.94,2.94,0,0,1-.34-1.35,3.83,3.83,0,0,1,.06-.65,2.28,2.28,0,0,1,.24-.66,2.14,2.14,0,0,1,.47-.6,2.28,2.28,0,0,1,.78-.47,2.43,2.43,0,0,1-1.13-1,2.76,2.76,0,0,1-.42-1.45,2.69,2.69,0,0,1,.76-2.12,3.12,3.12,0,0,1,2.17-.69h4.75v1h-4.37a3.2,3.2,0,0,0-1.74.4,1.65,1.65,0,0,0-.61,1.49,2,2,0,0,0,.23,1,1.84,1.84,0,0,0,.62.65,2.42,2.42,0,0,0,.87.36,4.17,4.17,0,0,0,1,.11h4v1.06h-4.37a3.11,3.11,0,0,0-1.74.4,1.64,1.64,0,0,0-.61,1.49,3.61,3.61,0,0,0,.06.44,1.71,1.71,0,0,0,.36.71,2.44,2.44,0,0,0,.86.66,3.51,3.51,0,0,0,1.6.3h3.84v1.06Z"/><path d="M111.75,109.4c-.27,0-.55,0-.83,0l-.83.06v-1.14h1.14v0a2.44,2.44,0,0,1-1-1.07,2.94,2.94,0,0,1-.34-1.35,3.83,3.83,0,0,1,.06-.65,2.28,2.28,0,0,1,.24-.66,2.14,2.14,0,0,1,.47-.6,2.28,2.28,0,0,1,.78-.47,2.43,2.43,0,0,1-1.13-1,2.76,2.76,0,0,1-.42-1.45,2.69,2.69,0,0,1,.76-2.12,3.12,3.12,0,0,1,2.17-.69h4.75v1h-4.37a3.2,3.2,0,0,0-1.74.4,1.65,1.65,0,0,0-.61,1.49,2,2,0,0,0,.23,1,1.84,1.84,0,0,0,.62.65,2.42,2.42,0,0,0,.87.36,4.17,4.17,0,0,0,1,.11h4v1.06h-4.37a3.11,3.11,0,0,0-1.74.4,1.64,1.64,0,0,0-.61,1.49,3.61,3.61,0,0,0,.06.44,1.71,1.71,0,0,0,.36.71,2.44,2.44,0,0,0,.86.66,3.51,3.51,0,0,0,1.6.3h3.84v1.06Z"/><path d="M113,91h-.2a1.7,1.7,0,0,0-1.93,1.92,3.29,3.29,0,0,0,.88,2.29l-.75.64a4.2,4.2,0,0,1-1.09-3.17,3.28,3.28,0,0,1,.16-1,2.44,2.44,0,0,1,.49-.88,2.5,2.5,0,0,1,.82-.59,2.86,2.86,0,0,1,1.18-.22h3.35c.29,0,.59,0,.9,0l.78-.09v1a5,5,0,0,1-.59.07c-.22,0-.42,0-.63,0v0a2.9,2.9,0,0,1,1.08,1.1,3.28,3.28,0,0,1,.33,1.54,3.1,3.1,0,0,1-.14,1,2.26,2.26,0,0,1-.41.82,2,2,0,0,1-.69.58,1.93,1.93,0,0,1-1,.22,2,2,0,0,1-1.43-.48,2.78,2.78,0,0,1-.78-1.18,5.7,5.7,0,0,1-.32-1.52c0-.54-.06-1-.06-1.48Zm.86.55c0,.26,0,.6,0,1a6.14,6.14,0,0,0,.19,1.15,2.52,2.52,0,0,0,.47.94,1.1,1.1,0,0,0,.89.4,1.28,1.28,0,0,0,.63-.16,1.27,1.27,0,0,0,.43-.4,1.92,1.92,0,0,0,.24-.57,2.73,2.73,0,0,0,.07-.64,2.41,2.41,0,0,0-.19-1,2.08,2.08,0,0,0-.52-.71,2.14,2.14,0,0,0-.77-.42,3.12,3.12,0,0,0-.93-.14h-.55Z"/><path d="M113.58,85.52l-3.49,2.72V86.8l2.8-2.08-2.8-2V81.43L113.58,84l4-3.14v1.44l-3.28,2.51,3.28,2.42v1.34Z"/></g><g class="cls-2"><path d="M179.77,117.3v4.62l3.41.08a3.21,3.21,0,0,1-.21-.75,5,5,0,0,1-.06-.77,3.75,3.75,0,0,1,.27-1.45,3.17,3.17,0,0,1,.76-1.13,3.45,3.45,0,0,1,1.15-.74,4,4,0,0,1,1.45-.26,3.64,3.64,0,0,1,1.49.29,3.34,3.34,0,0,1,1.17.8,3.56,3.56,0,0,1,.76,1.2,4.19,4.19,0,0,1,.27,1.52,3.71,3.71,0,0,1-.51,1.93,3.31,3.31,0,0,1-1.5,1.33l-.5-1.15a2.67,2.67,0,0,0,1.07-.89,2.34,2.34,0,0,0,.39-1.33,2.55,2.55,0,0,0-.2-1,2.67,2.67,0,0,0-.54-.81,2.36,2.36,0,0,0-.8-.54,2.54,2.54,0,0,0-1-.2,2.79,2.79,0,0,0-1.09.21,2.65,2.65,0,0,0-.85.57,2.6,2.6,0,0,0-.56.88,3.42,3.42,0,0,0-.19,1.12,4.53,4.53,0,0,0,.17,1.21,5.42,5.42,0,0,0,.46,1.15l-5.88-.12V117.3Z"/><path d="M184,112.87a2.41,2.41,0,0,1-.38.68,2.7,2.7,0,0,1-1.32.88,2.53,2.53,0,0,1-.83.13,2.86,2.86,0,0,1-1.22-.25,2.83,2.83,0,0,1-.94-.69,3.27,3.27,0,0,1-.59-1,3.62,3.62,0,0,1,0-2.43,3.16,3.16,0,0,1,.59-1,2.83,2.83,0,0,1,.94-.69,2.86,2.86,0,0,1,1.22-.25,2.82,2.82,0,0,1,.83.12,3,3,0,0,1,.74.36,2.44,2.44,0,0,1,.58.53,2.41,2.41,0,0,1,.38.68h0a2.64,2.64,0,0,1,1.06-1.53,3.15,3.15,0,0,1,1.92-.58,2.92,2.92,0,0,1,1.33.3,3.08,3.08,0,0,1,1,.78A3.46,3.46,0,0,1,190,110a4.08,4.08,0,0,1,.22,1.36,4.14,4.14,0,0,1-.22,1.37,3.56,3.56,0,0,1-.65,1.14,3.38,3.38,0,0,1-1,.78,2.92,2.92,0,0,1-1.33.3,3.15,3.15,0,0,1-1.92-.58,2.64,2.64,0,0,1-1.06-1.53Zm-2.43-3.49a2.07,2.07,0,0,0-.8.15,1.74,1.74,0,0,0-.63.42,2.09,2.09,0,0,0-.42.64,2.15,2.15,0,0,0-.15.8,2.07,2.07,0,0,0,.15.8,1.87,1.87,0,0,0,.42.64,1.65,1.65,0,0,0,.63.43,2.07,2.07,0,0,0,.8.15,2.11,2.11,0,0,0,.8-.15,1.81,1.81,0,0,0,.63-.43,1.87,1.87,0,0,0,.42-.64,2.07,2.07,0,0,0,.15-.8,2.15,2.15,0,0,0-.15-.8A2.09,2.09,0,0,0,183,110a1.93,1.93,0,0,0-.63-.42A2.11,2.11,0,0,0,181.58,109.38Zm5.28-.42a2.34,2.34,0,0,0-1.66.67,2.12,2.12,0,0,0-.49.76,3,3,0,0,0-.17,1,2.89,2.89,0,0,0,.17,1,2.21,2.21,0,0,0,.49.76,2.41,2.41,0,0,0,2.58.49,2.18,2.18,0,0,0,.73-.49,2.21,2.21,0,0,0,.49-.76,2.67,2.67,0,0,0,.18-1,2.73,2.73,0,0,0-.18-1,2.12,2.12,0,0,0-.49-.76,2.18,2.18,0,0,0-.73-.49A2.32,2.32,0,0,0,186.86,109Z"/><path d="M178.52,102.5a3.24,3.24,0,0,1,.56-2,3.89,3.89,0,0,1,1.43-1.17,6.3,6.3,0,0,1,1.89-.56,15.36,15.36,0,0,1,2-.14,15.09,15.09,0,0,1,2,.14,6.45,6.45,0,0,1,1.9.56,3.78,3.78,0,0,1,1.42,1.17,3.75,3.75,0,0,1,0,3.94,3.66,3.66,0,0,1-1.42,1.16,6.17,6.17,0,0,1-1.9.56,13.58,13.58,0,0,1-2,.15,13.82,13.82,0,0,1-2-.15,6,6,0,0,1-1.89-.56,3.77,3.77,0,0,1-1.43-1.16A3.26,3.26,0,0,1,178.52,102.5Zm1.06,0a2.06,2.06,0,0,0,.49,1.46,3.11,3.11,0,0,0,1.24.81,5.71,5.71,0,0,0,1.56.34c.56,0,1.06.08,1.51.08s1,0,1.5-.08a5.7,5.7,0,0,0,1.57-.34,3.08,3.08,0,0,0,1.23-.81,2.07,2.07,0,0,0,.5-1.46,2.09,2.09,0,0,0-.5-1.47,3.17,3.17,0,0,0-1.23-.8,5.71,5.71,0,0,0-1.57-.35c-.55,0-1-.07-1.5-.07s-.95,0-1.51.07a5.72,5.72,0,0,0-1.56.35,3.2,3.2,0,0,0-1.24.8A2.09,2.09,0,0,0,179.58,102.5Z"/><path d="M184.22,92.45l-.83,0-.84.06V91.39h1.14v0a2.41,2.41,0,0,1-1-1.06,3,3,0,0,1-.34-1.35,3,3,0,0,1,.07-.65,2.42,2.42,0,0,1,.23-.67,2.34,2.34,0,0,1,.47-.6,2.65,2.65,0,0,1,.78-.47,2.45,2.45,0,0,1-1.13-1,3.07,3.07,0,0,1,.34-3.58,3.12,3.12,0,0,1,2.17-.69H190v1.06h-4.37a3.16,3.16,0,0,0-1.74.4,1.64,1.64,0,0,0-.61,1.49,2,2,0,0,0,.23,1,1.93,1.93,0,0,0,.62.65,3.07,3.07,0,0,0,.87.36,4.9,4.9,0,0,0,1,.11h4v1h-4.37a3.25,3.25,0,0,0-1.74.4,1.65,1.65,0,0,0-.61,1.49,2.52,2.52,0,0,0,.07.44,1.62,1.62,0,0,0,.35.71,2.55,2.55,0,0,0,.86.67,3.55,3.55,0,0,0,1.6.29H190v1.06Z"/><path d="M184.22,78.82l-.83,0-.84.06V77.76h1.14v0a2.47,2.47,0,0,1-1-1.06,2.91,2.91,0,0,1-.27-2,2.42,2.42,0,0,1,.23-.67,2.34,2.34,0,0,1,.47-.6,2.65,2.65,0,0,1,.78-.47,2.42,2.42,0,0,1-1.13-1,2.73,2.73,0,0,1-.42-1.44,2.76,2.76,0,0,1,.76-2.13,3.12,3.12,0,0,1,2.17-.69H190v1.06h-4.37a3.16,3.16,0,0,0-1.74.4,1.62,1.62,0,0,0-.61,1.48,2,2,0,0,0,.23,1,1.9,1.9,0,0,0,.62.64,2.58,2.58,0,0,0,.87.36,4.31,4.31,0,0,0,1,.12h4v1.05h-4.37a3.25,3.25,0,0,0-1.74.4,1.65,1.65,0,0,0-.61,1.49,2.67,2.67,0,0,0,.07.44,1.62,1.62,0,0,0,.35.71,2.55,2.55,0,0,0,.86.67,3.69,3.69,0,0,0,1.6.29H190v1.06Z"/></g><line class="cls-1" x1="144" y1="227.53" x2="154.97" y2="227.53"/><line class="cls-1" x1="144" y1="226.68" x2="144" y2="228.38"/><line class="cls-1" x1="154.97" y1="226.68" x2="154.97" y2="228.38"/><g class="cls-2"><path d="M125.37,241.3a3.62,3.62,0,0,1,.68,1.16,4.29,4.29,0,0,1,0,3,3.67,3.67,0,0,1-.82,1.25,3.62,3.62,0,0,1-1.26.82,4.43,4.43,0,0,1-3,.07,3.94,3.94,0,0,1-1.11-.6l-1.07,1.08-.51-.49,1-1.09a3.72,3.72,0,0,1-.68-1.18,4.17,4.17,0,0,1-.24-1.43,4.26,4.26,0,0,1,.29-1.57,3.65,3.65,0,0,1,.83-1.24,3.7,3.7,0,0,1,1.25-.83,4.36,4.36,0,0,1,1.59-.29,4.47,4.47,0,0,1,1.4.21,4,4,0,0,1,1.15.62l1-1.09.52.5Zm-1.25.26a2.64,2.64,0,0,0-1.81-.62,2.78,2.78,0,0,0-1.17.23,2.45,2.45,0,0,0-.88.63,2.86,2.86,0,0,0-.56.94,3.27,3.27,0,0,0-.2,1.17,3,3,0,0,0,.54,1.83Zm-3.6,4.72a2.85,2.85,0,0,0,.8.45,3.11,3.11,0,0,0,1,.16,3,3,0,0,0,1.18-.23,2.74,2.74,0,0,0,.89-.64,3,3,0,0,0,.57-.94,3.42,3.42,0,0,0,.2-1.17,3.06,3.06,0,0,0-.55-1.82Z"/><path d="M137.08,247.66h-1.15v-9.89l-2,1.79-.72-.86,2.88-2.37h1Z"/><path d="M146,247.66h-1.15v-9.89l-2,1.79-.72-.86,2.88-2.37h1Z"/><path d="M153.75,236.14a3.17,3.17,0,0,1,2,.56,3.78,3.78,0,0,1,1.17,1.42,6.45,6.45,0,0,1,.56,1.9,13.53,13.53,0,0,1,.14,2,13.76,13.76,0,0,1-.14,2,6.3,6.3,0,0,1-.56,1.89,3.81,3.81,0,0,1-1.17,1.43,3.73,3.73,0,0,1-3.93,0,3.81,3.81,0,0,1-1.17-1.43,6,6,0,0,1-.56-1.89,13.82,13.82,0,0,1-.15-2,13.58,13.58,0,0,1,.15-2,6.17,6.17,0,0,1,.56-1.9,3.78,3.78,0,0,1,1.17-1.42A3.14,3.14,0,0,1,153.75,236.14Zm0,1.05a2.07,2.07,0,0,0-1.46.5,3.08,3.08,0,0,0-.81,1.23,6.09,6.09,0,0,0-.34,1.57c0,.55-.07,1-.07,1.5s0,.95.07,1.51a6.1,6.1,0,0,0,.34,1.56,3.11,3.11,0,0,0,.81,1.24,2.06,2.06,0,0,0,1.46.49,2.09,2.09,0,0,0,1.47-.49,3.22,3.22,0,0,0,.81-1.24,6.1,6.1,0,0,0,.34-1.56c0-.56.07-1.06.07-1.51s0-1-.07-1.5a6.09,6.09,0,0,0-.34-1.57,3.19,3.19,0,0,0-.81-1.23A2.09,2.09,0,0,0,153.75,237.19Z"/><path d="M163.8,241.83c0-.28,0-.55,0-.83l-.06-.83h1.14v1.13h0a2.59,2.59,0,0,1,1.06-1,3.12,3.12,0,0,1,1.36-.33,3.72,3.72,0,0,1,.64.06,2.42,2.42,0,0,1,.67.23,2.34,2.34,0,0,1,.6.47,2.85,2.85,0,0,1,.47.79,2.45,2.45,0,0,1,1-1.14,2.81,2.81,0,0,1,1.44-.41,2.73,2.73,0,0,1,2.13.76,3.1,3.1,0,0,1,.69,2.16v4.76h-1.06v-4.37a3.17,3.17,0,0,0-.4-1.75,1.64,1.64,0,0,0-1.48-.6,1.92,1.92,0,0,0-1,.23,1.87,1.87,0,0,0-.64.61,2.55,2.55,0,0,0-.36.88,4.17,4.17,0,0,0-.12,1v4h-1v-4.37a3.26,3.26,0,0,0-.4-1.75,1.66,1.66,0,0,0-1.49-.6l-.44.06a1.62,1.62,0,0,0-.71.35,2.5,2.5,0,0,0-.67.87,3.63,3.63,0,0,0-.29,1.6v3.84H163.8Z"/><path d="M177.43,241.83c0-.28,0-.55,0-.83s0-.55-.06-.83h1.14v1.13h0a2.56,2.56,0,0,1,1.07-1,3.05,3.05,0,0,1,1.35-.33,3.83,3.83,0,0,1,.65.06,2.23,2.23,0,0,1,1.26.7,2.63,2.63,0,0,1,.47.79,2.5,2.5,0,0,1,1-1.14,2.82,2.82,0,0,1,1.45-.41,2.69,2.69,0,0,1,2.12.76,3.1,3.1,0,0,1,.69,2.16v4.76h-1v-4.37a3.26,3.26,0,0,0-.4-1.75,1.67,1.67,0,0,0-1.49-.6,1.86,1.86,0,0,0-1,.23,1.81,1.81,0,0,0-.65.61,2.55,2.55,0,0,0-.36.88,4.17,4.17,0,0,0-.11,1v4h-1.06v-4.37a3.17,3.17,0,0,0-.4-1.75,1.66,1.66,0,0,0-1.49-.6l-.44.06a1.67,1.67,0,0,0-.71.35,2.37,2.37,0,0,0-.66.87,3.48,3.48,0,0,0-.3,1.6v3.84h-1.06Z"/></g><line class="cls-1" x1="125.97" y1="217.16" x2="125.97" y2="47.38"/><line class="cls-1" x1="124.13" y1="47.33" x2="127.67" y2="47.33"/><line class="cls-1" x1="123.44" y1="217.16" x2="128.5" y2="217.16"/><path class="cls-3" d="M143.63,58.13h11.83m-6.3,0V77.26m-4.86,34V98.82L150.19,89V77.26h-1.61V88.91l-5.53,9.82L143,111.27m0,3.71v11.69l6,10.41v11.29h1.39l0-11.38-6.11-10.22V115m5.31,33.39v16.07m-5.27,0h12.33m-12.33,1.61h12.33m-7.06.09v25m-7.14-79.87h8.34v3.62h-8.34Zm6.25,0h2.09v3.62h-2.09Zm-4.49,0c1.94,0,3.5.81,3.5,1.81s-1.56,1.81-3.5,1.81m9.62,8a45.65,45.65,0,0,1-.71,7.45c-.63,2.45-2.86,9.55-2.51,12.19s1,21.87,1,21.87m.18,1.57-.23,24.72s-.8,17.42,14.2,25.67m-22-7.36h13v8.12h-13Zm-13,8.12h36.11M149,192.3c0-.62.36-1.12.81-1.12s.8.5.8,1.12-.36,1.11-.8,1.11S149,192.92,149,192.3Zm0,3.39c0-.94.35-1.7.79-1.7s.78.76.78,1.7-.35,1.7-.78,1.7S149,196.63,149,195.69Zm.09,6.39c0-.94.35-1.7.78-1.7s.78.76.78,1.7-.35,1.69-.78,1.69S149.07,203,149.07,202.08Zm.05-9.07a2.59,2.59,0,0,1,0,1.52m1.16,2.37s.54,2.9.05,4m-1.21-4.14s-.44,3.07.05,4.19m1.16-8a2.56,2.56,0,0,0-.05,1.52m-1.2,8.17a6.53,6.53,0,0,0,0,3.3,2.56,2.56,0,0,1-1.38,3m2.9-6.34a6.47,6.47,0,0,1-.05,3.3,2.55,2.55,0,0,0,1.39,3"/><path class="cls-4" d="M147.29,144.62c0-.57,1.09-1,2.43-1s2.43.46,2.43,1-1.09,1-2.43,1-2.43-.46-2.43-1"/><path class="cls-3" d="M147.29,144.62c0-.57,1.09-1,2.43-1s2.43.46,2.43,1-1.09,1-2.43,1S147.29,145.19,147.29,144.62Z"/><path class="cls-3" d="M156.89,116.77a4.49,4.49,0,0,1-1.48,3.12v1c0,1.09-.65,2-1.45,2s-1.45-.88-1.45-2v-1a4.82,4.82,0,0,1-1.25-3m-.44-6.43h6.42v6.34h-6.42Zm7.45-1.72h0a1.89,1.89,0,0,1-2,1.72h-4.6a2,2,0,0,1-2.07-1.83l0-1.61h8.62Zm-1.87-1.76c.17-1,2.09-2.32,2.09-2.32s1.42-1.62,1.75-2a5.75,5.75,0,0,0,1.51-4.6c-.8-3.39-7.59-3.21-7.59-3.21h-.26s-6.79-.18-7.6,3.21a5.77,5.77,0,0,0,1.52,4.6c.33.39,1.75,2,1.75,2s1.91,1.29,2.09,2.32m-5.36-8.84h15.45M143.6,47.33h11.85m-7.68,0h2.82v.93h-2.82Zm1.37.92v8.27m-5.54,0h11.85"/><line class="cls-5" x1="165.58" y1="47.02" x2="168.48" y2="47.02"/></svg>