<svg id="Piani_Big" xmlns="http://www.w3.org/2000/svg" viewBox="0 0 300 263"><defs><style>.cls-1,.cls-3{fill:none;stroke-width:0.5px;}.cls-1{stroke:#000;}.cls-2{isolation:isolate;}.cls-3{stroke:#1d1d1b;stroke-linecap:round;stroke-linejoin:round;}</style></defs><title>piani-big-table-bouroullec-flos-F5835068-spech-tech-02-300x263</title><line class="cls-1" x1="26" y1="216.78" x2="26" y2="48.42"/><line class="cls-1" x1="23.99" y1="216.78" x2="28.01" y2="216.78"/><line class="cls-1" x1="23.99" y1="48.42" x2="28.01" y2="48.42"/><line class="cls-1" x1="35.8" y1="226.96" x2="264.01" y2="226.96"/><line class="cls-1" x1="35.8" y1="222.03" x2="35.8" y2="231.89"/><line class="cls-1" x1="264.01" y1="222.03" x2="264.01" y2="231.89"/><g class="cls-2"><path d="M123.07,240.86h.62a4.62,4.62,0,0,0,1-.11,2.65,2.65,0,0,0,.82-.36,1.74,1.74,0,0,0,.55-.65,2.06,2.06,0,0,0,.21-1,1.8,1.8,0,0,0-.57-1.42,2.38,2.38,0,0,0-1.6-.5,2.69,2.69,0,0,0-1.32.32,2.59,2.59,0,0,0-.93.93l-1-.51a3.46,3.46,0,0,1,1.35-1.36,4,4,0,0,1,1.9-.44,4.28,4.28,0,0,1,1.31.2,3.09,3.09,0,0,1,1.08.56,2.8,2.8,0,0,1,.74.93,2.72,2.72,0,0,1,.28,1.26,2.59,2.59,0,0,1-.16.88,2.77,2.77,0,0,1-.43.75,3,3,0,0,1-.64.58,3.06,3.06,0,0,1-.77.38l.05,0a2.85,2.85,0,0,1,.92.36,2.93,2.93,0,0,1,.71.65,3,3,0,0,1,.47.86,3.1,3.1,0,0,1,.16,1,3,3,0,0,1-1.11,2.42,3.44,3.44,0,0,1-1.2.63,4.82,4.82,0,0,1-1.44.22,4.56,4.56,0,0,1-2.26-.55,3.38,3.38,0,0,1-1.45-1.74l1.27-.37a2.35,2.35,0,0,0,.89,1.21,3,3,0,0,0,1.65.39,2.75,2.75,0,0,0,.95-.16,2.44,2.44,0,0,0,.78-.46,2,2,0,0,0,.54-.71,2.28,2.28,0,0,0,.19-.91,2.21,2.21,0,0,0-.25-1.08,2.07,2.07,0,0,0-.67-.71,2.8,2.8,0,0,0-1-.39,5.19,5.19,0,0,0-1.12-.12h-.52Z"/><path d="M136.79,237.05l-4.73,10.27h-1.35l4.84-10.27h-5.73V236h7Z"/><path d="M146,237.05l-4.73,10.27H140l4.83-10.27h-5.73V236h7Z"/><path d="M153.21,241.5c0-.28,0-.55,0-.83s0-.56-.06-.83h1.18V241h0a2.52,2.52,0,0,1,1.1-1,3.31,3.31,0,0,1,1.4-.34,4.24,4.24,0,0,1,.68.07,2.55,2.55,0,0,1,.69.23,2.26,2.26,0,0,1,.62.47,2.66,2.66,0,0,1,.49.79,2.48,2.48,0,0,1,1.06-1.14,3.28,3.28,0,0,1,3.71.34,3.08,3.08,0,0,1,.71,2.17v4.75h-1.09V243a3.08,3.08,0,0,0-.42-1.75,1.75,1.75,0,0,0-1.54-.61,2.05,2.05,0,0,0-1,.24,2,2,0,0,0-.67.61,2.82,2.82,0,0,0-.37.87,4.31,4.31,0,0,0-.12,1v4h-1.09V243a3.08,3.08,0,0,0-.42-1.75,1.75,1.75,0,0,0-1.54-.61c-.07,0-.22,0-.46.07a1.72,1.72,0,0,0-.74.35,2.46,2.46,0,0,0-.69.86,3.4,3.4,0,0,0-.31,1.6v3.84h-1.09Z"/><path d="M167.36,241.5c0-.28,0-.55,0-.83s0-.56-.05-.83h1.18V241h0a2.52,2.52,0,0,1,1.1-1,3.32,3.32,0,0,1,1.41-.34,4.13,4.13,0,0,1,.67.07,2.44,2.44,0,0,1,.69.23,2.26,2.26,0,0,1,.62.47,2.47,2.47,0,0,1,.49.79,2.53,2.53,0,0,1,1.06-1.14,3.28,3.28,0,0,1,3.71.34,3,3,0,0,1,.72,2.17v4.75h-1.1V243a3.08,3.08,0,0,0-.42-1.75,1.74,1.74,0,0,0-1.54-.61,2,2,0,0,0-1,.24,1.88,1.88,0,0,0-.67.61,2.62,2.62,0,0,0-.38.87,4.31,4.31,0,0,0-.11,1v4h-1.1V243a3.08,3.08,0,0,0-.42-1.75,1.74,1.74,0,0,0-1.54-.61c-.07,0-.22,0-.46.07a1.77,1.77,0,0,0-.74.35,2.71,2.71,0,0,0-.69.86,3.53,3.53,0,0,0-.3,1.6v3.84h-1.1Z"/></g><g class="cls-2"><path d="M18.43,149v7.2H17.1l-4.59-4.51L12,151.2a5.5,5.5,0,0,0-.61-.47,3,3,0,0,0-.67-.33,2.06,2.06,0,0,0-.74-.13,1.87,1.87,0,0,0-.83.17,1.7,1.7,0,0,0-.62.47,2.1,2.1,0,0,0-.4.7,2.65,2.65,0,0,0-.13.85,2.28,2.28,0,0,0,.48,1.47,2.11,2.11,0,0,0,1.29.78l-.12,1.22a3.18,3.18,0,0,1-2-1.16,3.51,3.51,0,0,1-.72-2.23,4.26,4.26,0,0,1,.19-1.3,3,3,0,0,1,.55-1.09,2.5,2.5,0,0,1,.92-.75,2.79,2.79,0,0,1,1.29-.28,3.36,3.36,0,0,1,1.2.2,4.46,4.46,0,0,1,1,.52,6.85,6.85,0,0,1,.91.72l.85.84L17.38,155V149Z"/><path d="M12.4,145.12a2.23,2.23,0,0,1-.38.67,2.48,2.48,0,0,1-.58.54,2.65,2.65,0,0,1-.74.35,2.53,2.53,0,0,1-.83.13,2.73,2.73,0,0,1-1.22-.26,2.8,2.8,0,0,1-.94-.68,3.27,3.27,0,0,1-.59-1,3.56,3.56,0,0,1-.21-1.22,3.5,3.5,0,0,1,.21-1.21,3.16,3.16,0,0,1,.59-1,2.83,2.83,0,0,1,.94-.69,2.87,2.87,0,0,1,1.22-.26,2.83,2.83,0,0,1,.83.13,3,3,0,0,1,.74.36,2.44,2.44,0,0,1,.58.53,2.41,2.41,0,0,1,.38.68h0a2.69,2.69,0,0,1,1.06-1.54,3.21,3.21,0,0,1,1.92-.57,2.92,2.92,0,0,1,1.33.3,3.08,3.08,0,0,1,1,.78,3.36,3.36,0,0,1,.65,1.14,4.08,4.08,0,0,1,.22,1.36A4.14,4.14,0,0,1,18.4,145a3.56,3.56,0,0,1-.65,1.14,3.38,3.38,0,0,1-1,.78,2.92,2.92,0,0,1-1.33.3,3.15,3.15,0,0,1-1.92-.58,2.64,2.64,0,0,1-1.06-1.53ZM10,141.63a2.07,2.07,0,0,0-.8.15,1.74,1.74,0,0,0-.63.42,2,2,0,0,0-.42.64,2.15,2.15,0,0,0-.15.8,2.07,2.07,0,0,0,.15.8,1.87,1.87,0,0,0,.42.64,1.76,1.76,0,0,0,.63.43,2.07,2.07,0,0,0,.8.15,2.11,2.11,0,0,0,.8-.15,2,2,0,0,0,.63-.43,2,2,0,0,0,.42-.64,2.07,2.07,0,0,0,.15-.8,2,2,0,0,0-.57-1.44,1.93,1.93,0,0,0-.63-.42A2.11,2.11,0,0,0,10,141.63Zm5.28-.42a2.32,2.32,0,0,0-.92.18,2.2,2.2,0,0,0-.74.48,2.26,2.26,0,0,0-.49.77,3,3,0,0,0-.17,1,2.89,2.89,0,0,0,.17,1,2.18,2.18,0,0,0,1.23,1.25,2.32,2.32,0,0,0,.92.18,2.36,2.36,0,0,0,.92-.18,2.18,2.18,0,0,0,.73-.49,2.21,2.21,0,0,0,.49-.76,2.67,2.67,0,0,0,.18-1,2.73,2.73,0,0,0-.18-1,2.26,2.26,0,0,0-.49-.77,2.16,2.16,0,0,0-.73-.48A2.36,2.36,0,0,0,15.25,141.21Z"/><path d="M12,135.93v-.59a4.19,4.19,0,0,0-.11-1,2.3,2.3,0,0,0-.36-.79,1.8,1.8,0,0,0-.65-.54,2.19,2.19,0,0,0-1-.2,1.82,1.82,0,0,0-1.42.55A2.24,2.24,0,0,0,8,135a2.36,2.36,0,0,0,.32,1.26,2.52,2.52,0,0,0,.93.9l-.52,1a3.46,3.46,0,0,1-1.35-1.3A3.75,3.75,0,0,1,6.91,135a4.38,4.38,0,0,1,.19-1.27,3.18,3.18,0,0,1,.57-1A2.74,2.74,0,0,1,8.6,132a3,3,0,0,1,1.26-.26,2.58,2.58,0,0,1,.88.15,2.85,2.85,0,0,1,1.33,1,2.89,2.89,0,0,1,.38.74l0,0a2.34,2.34,0,0,1,.36-.88,2.67,2.67,0,0,1,.65-.69,3.06,3.06,0,0,1,.86-.45,3.39,3.39,0,0,1,1-.16,3.23,3.23,0,0,1,1.39.29,3,3,0,0,1,1,.79,3.65,3.65,0,0,1,.63,1.15,4.5,4.5,0,0,1,.21,1.39,4.27,4.27,0,0,1-.54,2.18,3.33,3.33,0,0,1-1.74,1.39L16,137.37a2.46,2.46,0,0,0,1.21-.85,2.8,2.8,0,0,0,.39-1.6,2.76,2.76,0,0,0-.16-.91,2.34,2.34,0,0,0-.46-.76,2,2,0,0,0-.71-.51,2.27,2.27,0,0,0-.91-.18,2.21,2.21,0,0,0-1.08.24,1.91,1.91,0,0,0-.71.64,2.48,2.48,0,0,0-.4.92,4.7,4.7,0,0,0-.12,1.08v.49Z"/><path d="M12.61,124.7l-.83,0-.84.06v-1.14h1.14v0a2.41,2.41,0,0,1-1-1.06,2.91,2.91,0,0,1-.27-2,2.42,2.42,0,0,1,.23-.67,2.34,2.34,0,0,1,.47-.6,2.65,2.65,0,0,1,.78-.47,2.45,2.45,0,0,1-1.13-1,2.79,2.79,0,0,1-.42-1.45,2.73,2.73,0,0,1,.76-2.13,3.12,3.12,0,0,1,2.17-.69h4.75v1.06H14.06a3.16,3.16,0,0,0-1.74.4,1.63,1.63,0,0,0-.61,1.49,1.82,1.82,0,0,0,.85,1.64,3.07,3.07,0,0,0,.87.36,4.9,4.9,0,0,0,1,.11h4v1H14.06a3.25,3.25,0,0,0-1.74.4,1.65,1.65,0,0,0-.61,1.49,2.52,2.52,0,0,0,.07.44,1.62,1.62,0,0,0,.35.71,2.55,2.55,0,0,0,.86.67,3.69,3.69,0,0,0,1.6.29h3.84v1.06Z"/><path d="M12.61,111.07l-.83,0-.84.06V110h1.14v0a2.47,2.47,0,0,1-1-1.06,2.91,2.91,0,0,1-.27-2,2.42,2.42,0,0,1,.23-.67,2.34,2.34,0,0,1,.47-.6,2.65,2.65,0,0,1,.78-.47,2.42,2.42,0,0,1-1.13-1,3.06,3.06,0,0,1,.34-3.57,3.12,3.12,0,0,1,2.17-.69h4.75V101H14.06a3.16,3.16,0,0,0-1.74.4,1.62,1.62,0,0,0-.61,1.48,2,2,0,0,0,.23,1,1.9,1.9,0,0,0,.62.64,2.58,2.58,0,0,0,.87.36,4.31,4.31,0,0,0,1,.12h4V106H14.06a3.25,3.25,0,0,0-1.74.4,1.64,1.64,0,0,0-.61,1.49,2.67,2.67,0,0,0,.07.44,1.62,1.62,0,0,0,.35.71,2.55,2.55,0,0,0,.86.67,3.69,3.69,0,0,0,1.6.29h3.84v1.06Z"/></g><polyline class="cls-3" points="44.84 69.35 44.91 69.35 45.23 69.35 45.74 69.35 46.38 69.35"/><polyline class="cls-3" points="202.08 69.35 202.79 69.35 203.3 69.35 203.56 69.35 203.69 69.35"/><polyline class="cls-3" points="46.38 69.35 46.7 69.35 47.21 69.35 47.98 69.35 48.94 69.35 50.1 69.35 51.51 69.35 53.05 69.35 54.78 69.35 56.63 69.35 58.62 69.35 60.67 69.35 62.85 69.35 65.1 69.35 67.4 69.35"/><polyline class="cls-3" points="181.12 69.35 183.37 69.35 185.61 69.35 187.79 69.35 189.9 69.35 191.89 69.35 193.75 69.35 195.48 69.35 197.02 69.35 198.37 69.35 199.58 69.35 200.54 69.35 201.31 69.35 201.83 69.35 202.08 69.35"/><polyline class="cls-3" points="67.4 69.35 81.57 69.35 95.8 69.35 110.03 69.35 124.26 69.35 138.49 69.35 152.72 69.35 166.89 69.35 181.12 69.35"/><polyline class="cls-3" points="260.42 196.78 261.44 196.78 261.76 196.78 261.7 196.78"/><polyline class="cls-3" points="38.24 196.78 38.3 196.78 38.75 196.78 39.58 196.78"/><polyline class="cls-3" points="41.19 213.71 40.16 213.71 39.84 213.71"/><polyline class="cls-3" points="260.16 213.71 260.09 213.71 259.64 213.71 258.81 213.71"/><polyline class="cls-3" points="258.81 213.71 258.49 213.71 257.53 213.71 256.06 213.71 254 213.71 251.57 213.71 248.68 213.71 245.54 213.71 242.15 213.71 238.69 213.71"/><polyline class="cls-3" points="61.31 213.71 58.43 213.71 55.03 213.71 51.83 213.71 48.88 213.71 46.38 213.71 44.26 213.71 42.66 213.71 41.64 213.71 41.19 213.71"/><polyline class="cls-3" points="149.97 213.71 138.88 213.71 127.79 213.71 116.7 213.71 105.67 213.71 94.58 213.71 83.49 213.71 72.4 213.71 61.31 213.71"/><polyline class="cls-3" points="238.69 213.71 227.6 213.71 216.51 213.71 205.41 213.71 194.32 213.71 183.24 213.71 172.15 213.71 161.06 213.71 149.97 213.71"/><polyline class="cls-3" points="238.75 196.78 241.82 196.78 245.48 196.78 248.94 196.78 252.08 196.78 254.84 196.78 257.08 196.78 258.81 196.78 259.9 196.78 260.42 196.78"/><polyline class="cls-3" points="39.58 196.78 40.1 196.78 41.19 196.78 42.92 196.78 45.16 196.78 47.92 196.78 51.06 196.78 54.52 196.78 58.17 196.78 61.25 196.78"/><polyline class="cls-3" points="61.25 196.78 72.34 196.78 83.43 196.78 94.52 196.78 105.61 196.78 116.7 196.78 127.79 196.78 138.88 196.78 149.97 196.78"/><polyline class="cls-3" points="149.97 196.78 161.12 196.78 172.21 196.78 183.3 196.78 194.39 196.78 205.48 196.78 216.57 196.78 227.66 196.78 238.75 196.78"/><polyline class="cls-3" points="203.11 53.07 202.85 51.85 202.15 50.76 201.06 49.93 199.9 49.61"/><polyline class="cls-3" points="48.62 49.61 47.47 49.93 46.38 50.76 45.67 51.85 45.42 53.07"/><line class="cls-3" x1="45.42" y1="53.07" x2="44.84" y2="69.35"/><line class="cls-3" x1="203.68" y1="69.35" x2="203.11" y2="53.07"/><polyline class="cls-3" points="199.84 49.61 192.66 48.9 184.71 48.26 176.25 47.81 167.21 47.55 157.53 47.36 150.93 47.3 144.58 47.23 138.62 47.23 133.11 47.23 128.04 47.23 123.37 47.23 118.56 47.23 113.37 47.23 107.72 47.23 101.64 47.23 95.03 47.3 88.17 47.36 81.44 47.49 69.65 47.94 58.49 48.64 48.69 49.61"/><line class="cls-3" x1="84.9" y1="69.35" x2="84.9" y2="197.17"/><line class="cls-3" x1="127.28" y1="197.17" x2="127.28" y2="69.35"/><polyline class="cls-3" points="60.92 216.78 60.83 216.78 60.75 216.78 60.69 216.78 60.65 216.78 60.62 216.78 60.61 216.78"/><line class="cls-3" x1="78.11" y1="216.78" x2="60.92" y2="216.78"/><polyline class="cls-3" points="78.42 216.78 78.41 216.78 78.39 216.78 78.34 216.78 78.28 216.78 78.2 216.78 78.11 216.78"/><line class="cls-3" x1="60.61" y1="213.71" x2="60.61" y2="216.78"/><line class="cls-3" x1="78.42" y1="216.78" x2="78.42" y2="213.71"/><polyline class="cls-3" points="222.77 216.78 222.68 216.78 222.6 216.78 222.54 216.78 222.49 216.78 222.47 216.78 222.46 216.78"/><line class="cls-3" x1="239.95" y1="216.78" x2="222.77" y2="216.78"/><polyline class="cls-3" points="240.27 216.78 240.26 216.78 240.23 216.78 240.19 216.78 240.13 216.78 240.05 216.78 239.95 216.78"/><line class="cls-3" x1="222.46" y1="213.71" x2="222.46" y2="216.78"/><line class="cls-3" x1="240.27" y1="216.78" x2="240.27" y2="213.71"/><polyline class="cls-3" points="263.81 210.24 264 205.24 264.2 199.28"/><polyline class="cls-3" points="35.8 199.28 35.99 204.22 36.19 210.24"/><polyline class="cls-3" points="261.76 196.78 262.27 196.85 262.72 196.98 263.17 197.17 263.49 197.49 263.81 197.87 264 198.32 264.13 198.77 264.2 199.28"/><polyline class="cls-3" points="35.8 199.28 35.8 198.77 35.93 198.32 36.19 197.87 36.51 197.49 36.83 197.17 37.28 196.98 37.73 196.85 38.24 196.78"/><polyline class="cls-3" points="39.84 213.71 39.13 213.64 38.43 213.45 37.85 213.13 37.28 212.68 36.83 212.17 36.51 211.59 36.25 210.88 36.19 210.24"/><polyline class="cls-3" points="263.81 210.24 263.68 210.95 263.49 211.59 263.17 212.17 262.72 212.74 262.15 213.13 261.51 213.45 260.86 213.64 260.16 213.71"/></svg>