<svg id="Piani" xmlns="http://www.w3.org/2000/svg" viewBox="0 0 300 263"><defs><style>.cls-1,.cls-3{fill:none;stroke-width:0.5px;}.cls-1{stroke:#000;}.cls-2{isolation:isolate;}.cls-3{stroke:#1d1d1b;stroke-linecap:round;stroke-linejoin:round;}</style></defs><title>piani-table-bouroullec-flos-F5830009-spech-tech-02-300x263</title><line class="cls-1" x1="47.83" y1="216.78" x2="47.83" y2="75.1"/><line class="cls-1" x1="46.14" y1="216.78" x2="49.53" y2="216.78"/><line class="cls-1" x1="46.14" y1="75.1" x2="49.53" y2="75.1"/><line class="cls-1" x1="57.43" y1="226.96" x2="242.88" y2="226.96"/><line class="cls-1" x1="57.43" y1="222.95" x2="57.43" y2="230.97"/><line class="cls-1" x1="242.88" y1="222.95" x2="242.88" y2="230.97"/><g class="cls-2"><path d="M128,247.32h-7.48V246l4.69-4.6.53-.54a5.87,5.87,0,0,0,.48-.61,3.28,3.28,0,0,0,.35-.67,2,2,0,0,0,.13-.74,2.05,2.05,0,0,0-.17-.83,1.85,1.85,0,0,0-.49-.62,2.27,2.27,0,0,0-.74-.39,2.8,2.8,0,0,0-.88-.14,2.44,2.44,0,0,0-1.52.48,2.16,2.16,0,0,0-.82,1.3l-1.26-.13a3.21,3.21,0,0,1,1.2-2,3.75,3.75,0,0,1,2.32-.72,5,5,0,0,1,1.36.19,3.26,3.26,0,0,1,1.12.55,2.62,2.62,0,0,1,1.08,2.21,3.29,3.29,0,0,1-.21,1.2,5,5,0,0,1-.54,1,5.92,5.92,0,0,1-.76.91c-.28.29-.57.58-.87.85l-3.7,3.54H128Z"/><path d="M132.11,240.86l0,0a2.16,2.16,0,0,1,.76-.29,4.59,4.59,0,0,1,.87-.09,3.9,3.9,0,0,1,1.42.26,3.54,3.54,0,0,1,1.14.73,3.36,3.36,0,0,1,.75,1.1,3.45,3.45,0,0,1,.28,1.41,3.65,3.65,0,0,1-.28,1.43,3.35,3.35,0,0,1-.8,1.1,3.67,3.67,0,0,1-1.21.72,4.47,4.47,0,0,1-1.53.26,4.38,4.38,0,0,1-1.53-.26,3.57,3.57,0,0,1-1.21-.72,3.21,3.21,0,0,1-.8-1.1,3.48,3.48,0,0,1-.28-1.43,4.19,4.19,0,0,1,.29-1.65,8.76,8.76,0,0,1,.72-1.39l3.17-5h1.41Zm-1.2,3.15a2.61,2.61,0,0,0,.19,1,2.37,2.37,0,0,0,.54.78,2.33,2.33,0,0,0,.83.5,3.08,3.08,0,0,0,1.07.18,3,3,0,0,0,1.06-.18,2.25,2.25,0,0,0,.83-.5A2.37,2.37,0,0,0,136,245a2.43,2.43,0,0,0,.19-1,2.46,2.46,0,0,0-.19-1,2.33,2.33,0,0,0-.54-.77,2.56,2.56,0,0,0-.83-.5,3,3,0,0,0-1.06-.19,3.08,3.08,0,0,0-1.07.19,2.67,2.67,0,0,0-.83.5,2.33,2.33,0,0,0-.54.77A2.64,2.64,0,0,0,130.91,244Z"/><path d="M145.07,243.58h1.69v1.06h-1.69v2.68h-1.2v-2.68h-5.08v-1.32l4.75-7.32h1.53Zm-1.2-6.43h0l-4.06,6.43h4.09Z"/><path d="M153.21,241.5c0-.28,0-.55,0-.83s0-.56-.06-.83h1.18V241h0a2.52,2.52,0,0,1,1.1-1,3.31,3.31,0,0,1,1.4-.34,4.24,4.24,0,0,1,.68.07,2.55,2.55,0,0,1,.69.23,2.26,2.26,0,0,1,.62.47,2.66,2.66,0,0,1,.49.79,2.48,2.48,0,0,1,1.06-1.14,3.28,3.28,0,0,1,3.71.34,3.08,3.08,0,0,1,.71,2.17v4.75h-1.09V243a3.08,3.08,0,0,0-.42-1.75,1.75,1.75,0,0,0-1.54-.61,2.05,2.05,0,0,0-1,.24,2,2,0,0,0-.67.61,2.82,2.82,0,0,0-.37.87,4.31,4.31,0,0,0-.12,1v4h-1.09V243a3.08,3.08,0,0,0-.42-1.75,1.75,1.75,0,0,0-1.54-.61c-.07,0-.22,0-.46.07a1.72,1.72,0,0,0-.74.35,2.46,2.46,0,0,0-.69.86,3.4,3.4,0,0,0-.31,1.6v3.84h-1.09Z"/><path d="M167.36,241.5c0-.28,0-.55,0-.83s0-.56-.05-.83h1.18V241h0a2.52,2.52,0,0,1,1.1-1,3.32,3.32,0,0,1,1.41-.34,4.13,4.13,0,0,1,.67.07,2.44,2.44,0,0,1,.69.23,2.26,2.26,0,0,1,.62.47,2.47,2.47,0,0,1,.49.79,2.53,2.53,0,0,1,1.06-1.14,3.28,3.28,0,0,1,3.71.34,3,3,0,0,1,.72,2.17v4.75h-1.1V243a3.08,3.08,0,0,0-.42-1.75,1.74,1.74,0,0,0-1.54-.61,2,2,0,0,0-1,.24,1.88,1.88,0,0,0-.67.61,2.62,2.62,0,0,0-.38.87,4.31,4.31,0,0,0-.11,1v4h-1.1V243a3.08,3.08,0,0,0-.42-1.75,1.74,1.74,0,0,0-1.54-.61c-.07,0-.22,0-.46.07a1.77,1.77,0,0,0-.74.35,2.71,2.71,0,0,0-.69.86,3.53,3.53,0,0,0-.3,1.6v3.84h-1.1Z"/></g><g class="cls-2"><path d="M40.27,149v7.2H38.94l-4.59-4.51-.55-.51a4.71,4.71,0,0,0-.61-.47,2.78,2.78,0,0,0-.67-.33,2,2,0,0,0-.73-.13,1.91,1.91,0,0,0-.84.17,1.79,1.79,0,0,0-.62.47,2.08,2.08,0,0,0-.39.7,2.66,2.66,0,0,0-.14.85,2.28,2.28,0,0,0,.48,1.47,2.11,2.11,0,0,0,1.3.78l-.13,1.22a3.18,3.18,0,0,1-2-1.16,3.51,3.51,0,0,1-.72-2.23,4.59,4.59,0,0,1,.18-1.3,3.2,3.2,0,0,1,.55-1.09,2.58,2.58,0,0,1,.92-.75,2.79,2.79,0,0,1,1.29-.28,3.29,3.29,0,0,1,1.2.2,4.46,4.46,0,0,1,1,.52,6.93,6.93,0,0,1,.92.72l.84.84L39.21,155V149Z"/><path d="M28.75,143.64a3.14,3.14,0,0,1,.56-2,3.69,3.69,0,0,1,1.42-1.17,6.17,6.17,0,0,1,1.9-.56,13.58,13.58,0,0,1,2-.15,13.82,13.82,0,0,1,2,.15,6,6,0,0,1,1.89.56,3.79,3.79,0,0,1,1.43,1.17,3.73,3.73,0,0,1,0,3.93,3.89,3.89,0,0,1-1.43,1.17,6.3,6.3,0,0,1-1.89.56,13.76,13.76,0,0,1-2,.14,13.53,13.53,0,0,1-2-.14,6.45,6.45,0,0,1-1.9-.56,3.78,3.78,0,0,1-1.42-1.17A3.17,3.17,0,0,1,28.75,143.64Zm1.05,0a2.09,2.09,0,0,0,.5,1.47,3.3,3.3,0,0,0,1.23.81,6.09,6.09,0,0,0,1.57.34c.55.05,1,.07,1.5.07s.95,0,1.51-.07a6.1,6.1,0,0,0,1.56-.34,3.34,3.34,0,0,0,1.24-.81,2.44,2.44,0,0,0,0-2.93,3.11,3.11,0,0,0-1.24-.81,6.1,6.1,0,0,0-1.56-.34c-.56-.05-1.06-.07-1.51-.07s-1,0-1.5.07a6.09,6.09,0,0,0-1.57.34,3.08,3.08,0,0,0-1.23.81A2.09,2.09,0,0,0,29.8,143.64Z"/><path d="M28.75,134.75a3.17,3.17,0,0,1,.56-2,3.78,3.78,0,0,1,1.42-1.17,6.45,6.45,0,0,1,1.9-.56,15.09,15.09,0,0,1,2-.14,15.36,15.36,0,0,1,2,.14,6.3,6.3,0,0,1,1.89.56,3.89,3.89,0,0,1,1.43,1.17,3.73,3.73,0,0,1,0,3.93,3.7,3.7,0,0,1-1.43,1.17,6,6,0,0,1-1.89.56,13.82,13.82,0,0,1-2,.15,13.58,13.58,0,0,1-2-.15,6.17,6.17,0,0,1-1.9-.56,3.6,3.6,0,0,1-1.42-1.17A3.14,3.14,0,0,1,28.75,134.75Zm1.05,0a2.07,2.07,0,0,0,.5,1.46,3.08,3.08,0,0,0,1.23.81,5.7,5.7,0,0,0,1.57.34c.55,0,1,.08,1.5.08s.95,0,1.51-.08a5.71,5.71,0,0,0,1.56-.34,3.11,3.11,0,0,0,1.24-.81,2.06,2.06,0,0,0,.49-1.46,2.09,2.09,0,0,0-.49-1.47,3.2,3.2,0,0,0-1.24-.8,5.72,5.72,0,0,0-1.56-.35c-.56,0-1.06-.07-1.51-.07s-1,0-1.5.07a5.71,5.71,0,0,0-1.57.35,3.17,3.17,0,0,0-1.23.8A2.09,2.09,0,0,0,29.8,134.75Z"/><path d="M34.44,124.7l-.83,0-.83.06v-1.14h1.13v0a2.53,2.53,0,0,1-1-1.06,3.12,3.12,0,0,1-.33-1.35,3.74,3.74,0,0,1,.06-.65,2.42,2.42,0,0,1,.23-.67,2.34,2.34,0,0,1,.47-.6,2.85,2.85,0,0,1,.79-.47,2.48,2.48,0,0,1-1.14-1,2.78,2.78,0,0,1-.41-1.45,2.73,2.73,0,0,1,.76-2.13,3.1,3.1,0,0,1,2.16-.69h4.76v1.06H35.9a3.17,3.17,0,0,0-1.75.4,1.65,1.65,0,0,0-.6,1.49,1.91,1.91,0,0,0,.23,1,2,2,0,0,0,.61.65,3,3,0,0,0,.88.36,4.74,4.74,0,0,0,1,.11h4v1H35.9a3.26,3.26,0,0,0-1.75.4,1.67,1.67,0,0,0-.6,1.49,3.37,3.37,0,0,0,.06.44,1.62,1.62,0,0,0,.35.71,2.5,2.5,0,0,0,.87.67,3.63,3.63,0,0,0,1.6.29h3.84v1.06Z"/><path d="M34.44,111.07l-.83,0-.83.06V110h1.13v0a2.59,2.59,0,0,1-1-1.06,3.12,3.12,0,0,1-.33-1.36,3.72,3.72,0,0,1,.06-.64,2.42,2.42,0,0,1,.23-.67,2.34,2.34,0,0,1,.47-.6,2.85,2.85,0,0,1,.79-.47,2.45,2.45,0,0,1-1.14-1,3.09,3.09,0,0,1,.35-3.57,3.1,3.1,0,0,1,2.16-.69h4.76V101H35.9a3.17,3.17,0,0,0-1.75.4,1.64,1.64,0,0,0-.6,1.48,1.92,1.92,0,0,0,.23,1,1.87,1.87,0,0,0,.61.64,2.55,2.55,0,0,0,.88.36,4.17,4.17,0,0,0,1,.12h4V106H35.9a3.26,3.26,0,0,0-1.75.4,1.66,1.66,0,0,0-.6,1.49,3.61,3.61,0,0,0,.06.44,1.62,1.62,0,0,0,.35.71,2.5,2.5,0,0,0,.87.67,3.63,3.63,0,0,0,1.6.29h3.84v1.06Z"/></g><path class="cls-3" d="M64.47,92.12h1.25m126.64,0h1.31m-127.95,0h17.1m92.49,0h17.05m-109.54,0h92.49M81.05,216.78H78.54m140.41,0H81.05m140.41,0H219m20.86-16.26h1m-181.75,0h1.09m-3,2,4.33,11.73H60.4m179.2,0h-1.1m0,0H222.13m-144.26,0H61.5m88.47,0H77.87m144.26,0H150M60.19,200.52H239.81M193.2,78.88l-.21-1-.58-.89-.88-.68-.94-.26m-123,0-.94.26-.88.68-.57.89-.21,1m0,0-.47,13.24m129.2,0-.47-13.24m-2.66-2.82-5.84-.57L178.23,75l-6.88-.37L164,74.39l-7.87-.15-5.37-.06-5.17-.05H110.66l-5.37.05-5.58.06-5.47.1-9.6.37-9.07.57-8,.78M97.05,92.12v108.4m34.47,0V92.12m-53,122.16v2.5m142.92,0v-2.5m21.11-2.82.16-4.06.15-4.85m-185.76,0,.15,4,.16,4.9M240.9,200.52l.42,0,.36.1.37.16.26.26.26.31.16.37.1.36,0,.42m-185.76,0v-.42l.1-.36.21-.37.26-.31.26-.26.36-.16.37-.1.42,0m1.3,13.76-.57-.05-.58-.16-.47-.26-.47-.36L58,213l-.26-.47-.21-.57,0-.53m185.14,0-.1.58-.16.52-.26.47-.37.47-.46.31-.53.26-.52.16-.57.05"/></svg>