<svg id="Pochette_Up_Down" xmlns="http://www.w3.org/2000/svg" viewBox="0 0 300 263"><defs><style>.cls-1,.cls-3{fill:none;stroke-width:0.5px;}.cls-1{stroke:#000;}.cls-2{isolation:isolate;}.cls-3{stroke:#1d1d1b;stroke-linecap:round;stroke-linejoin:round;}</style></defs><title>pochette-ceiling-wall-updown-dordoni-flos-F9701020-spech-tech-02-300x263-01</title><line class="cls-1" x1="198.73" y1="168.26" x2="272.7" y2="168.57"/><line class="cls-1" x1="198.74" y1="164.54" x2="198.71" y2="171.97"/><line class="cls-1" x1="272.72" y1="164.86" x2="272.68" y2="172.29"/><g class="cls-2"><path d="M217.09,182.5l0,0a1.89,1.89,0,0,1-.73.29,4.46,4.46,0,0,1-.84.09,3.45,3.45,0,0,1-1.37-.27,3.26,3.26,0,0,1-1.09-.73,3.4,3.4,0,0,1-.73-1.11,3.53,3.53,0,0,1-.25-1.4,3.48,3.48,0,0,1,.28-1.43,3.27,3.27,0,0,1,.77-1.1,3.31,3.31,0,0,1,1.17-.71,3.92,3.92,0,0,1,1.47-.25,4,4,0,0,1,1.47.26,3.49,3.49,0,0,1,1.17.72,3.18,3.18,0,0,1,.76,1.11,3.64,3.64,0,0,1,.27,1.43,4.53,4.53,0,0,1-.29,1.64,9.53,9.53,0,0,1-.7,1.39l-3.08,5H214Zm1.16-3.15a2.3,2.3,0,0,0-.18-1,2.16,2.16,0,0,0-.51-.77,2.38,2.38,0,0,0-.8-.51,2.93,2.93,0,0,0-2,0,2.52,2.52,0,0,0-.8.5,2.28,2.28,0,0,0-.52.77,2.46,2.46,0,0,0-.19,1,2.64,2.64,0,0,0,.18,1,2.18,2.18,0,0,0,.52.78,2.24,2.24,0,0,0,.79.51,2.82,2.82,0,0,0,1,.18,3,3,0,0,0,1-.17,2.41,2.41,0,0,0,.8-.5,2.35,2.35,0,0,0,.53-.78A2.64,2.64,0,0,0,218.25,179.35Z"/><path d="M226,182.54l0,0a1.83,1.83,0,0,1-.73.29,4.3,4.3,0,0,1-.84.09,3.4,3.4,0,0,1-1.36-.27,3.47,3.47,0,0,1-1.1-.73,3.55,3.55,0,0,1-.72-1.11,3.8,3.8,0,0,1-.26-1.41,3.63,3.63,0,0,1,.28-1.42,3.17,3.17,0,0,1,.77-1.1,3.7,3.7,0,0,1,1.17-.72,4.38,4.38,0,0,1,1.48-.25,4.13,4.13,0,0,1,1.47.27,3.44,3.44,0,0,1,1.16.72A3.21,3.21,0,0,1,228,178a3.63,3.63,0,0,1,.26,1.42A4.6,4.6,0,0,1,228,181a9.6,9.6,0,0,1-.71,1.39l-3.07,5h-1.36Zm1.16-3.15a2.64,2.64,0,0,0-.18-1,2.18,2.18,0,0,0-.52-.78,2.47,2.47,0,0,0-.79-.5,2.93,2.93,0,0,0-2,0,2.41,2.41,0,0,0-.8.5,2.21,2.21,0,0,0-.53.77,2.77,2.77,0,0,0-.19,1,2.64,2.64,0,0,0,.18,1,2.48,2.48,0,0,0,.52.78,2.29,2.29,0,0,0,.8.51,3.3,3.3,0,0,0,1,.18,2.82,2.82,0,0,0,1-.18,2.21,2.21,0,0,0,.8-.5,2.18,2.18,0,0,0,.52-.77A2.46,2.46,0,0,0,227.15,179.39Z"/><path d="M234.66,181.61c0-.28,0-.55,0-.83s0-.55,0-.83h1.13v1.14h0a2.49,2.49,0,0,1,1.07-1,3.08,3.08,0,0,1,1.35-.33,3.79,3.79,0,0,1,.65.07,2.25,2.25,0,0,1,.66.23,2.08,2.08,0,0,1,.6.48,2.45,2.45,0,0,1,.47.78,2.53,2.53,0,0,1,1-1.13,2.87,2.87,0,0,1,1.45-.41,2.77,2.77,0,0,1,2.13.77,3.12,3.12,0,0,1,.67,2.17l0,4.75h-1.05l0-4.37a3.13,3.13,0,0,0-.4-1.74,1.65,1.65,0,0,0-1.48-.62,2,2,0,0,0-1,.23,1.81,1.81,0,0,0-.65.61,2.82,2.82,0,0,0-.37.87,4.9,4.9,0,0,0-.11,1l0,4h-1.06l0-4.37a3.27,3.27,0,0,0-.39-1.75,1.67,1.67,0,0,0-1.49-.61l-.44.06a1.62,1.62,0,0,0-.71.35,2.55,2.55,0,0,0-.67.86,3.53,3.53,0,0,0-.3,1.6l0,3.84h-1.05Z"/><path d="M248.29,181.67c0-.28,0-.55,0-.83s0-.56-.05-.83h1.14v1.14h0a2.49,2.49,0,0,1,1.07-1,3.12,3.12,0,0,1,1.35-.33,3,3,0,0,1,.65.07,2.42,2.42,0,0,1,.67.23,2,2,0,0,1,.59.48,2.28,2.28,0,0,1,.47.78,2.53,2.53,0,0,1,1-1.13,2.87,2.87,0,0,1,1.45-.41,2.77,2.77,0,0,1,2.13.77,3.17,3.17,0,0,1,.68,2.17l0,4.75h-1.06l0-4.37a3.27,3.27,0,0,0-.39-1.75,1.67,1.67,0,0,0-1.49-.61,1.89,1.89,0,0,0-1,.23,1.81,1.81,0,0,0-.65.61,2.82,2.82,0,0,0-.37.87,4.9,4.9,0,0,0-.11,1l0,4h-1.06l0-4.37a3.09,3.09,0,0,0-.39-1.75,1.65,1.65,0,0,0-1.49-.61l-.44.06a1.67,1.67,0,0,0-.71.35,2.55,2.55,0,0,0-.67.86,3.51,3.51,0,0,0-.3,1.6l0,3.84h-1Z"/></g><line class="cls-1" x1="183.97" y1="170.27" x2="36.33" y2="170.27"/><line class="cls-1" x1="183.97" y1="172.07" x2="183.97" y2="168.36"/><line class="cls-1" x1="36.33" y1="172.07" x2="36.33" y2="168.36"/><g class="cls-2"><path d="M85.11,187.54H84v-9.89l-2,1.79-.72-.86,2.88-2.37h1Z"/><path d="M94.26,182.67l0,0a1.83,1.83,0,0,1-.73.29,4.35,4.35,0,0,1-.84.1,3.4,3.4,0,0,1-1.36-.27,3.33,3.33,0,0,1-1.83-1.83,3.8,3.8,0,0,1-.26-1.41,3.59,3.59,0,0,1,.27-1.42,3.21,3.21,0,0,1,.77-1.11,3.49,3.49,0,0,1,1.17-.72,4,4,0,0,1,1.47-.25,4.13,4.13,0,0,1,1.47.25,3.49,3.49,0,0,1,1.17.72,3.35,3.35,0,0,1,.77,1.11,3.59,3.59,0,0,1,.27,1.42,4.6,4.6,0,0,1-.28,1.65,9.53,9.53,0,0,1-.7,1.39l-3,5H91.18Zm1.16-3.15a2.64,2.64,0,0,0-.19-1,2.06,2.06,0,0,0-.52-.77,2.41,2.41,0,0,0-.8-.5,2.86,2.86,0,0,0-2,0,2.52,2.52,0,0,0-.8.5,2.33,2.33,0,0,0-.52.77,2.81,2.81,0,0,0,0,2,2.48,2.48,0,0,0,.52.78,2.21,2.21,0,0,0,.8.5,3,3,0,0,0,2,0,2.13,2.13,0,0,0,.8-.5,2.18,2.18,0,0,0,.52-.78A2.64,2.64,0,0,0,95.42,179.52Z"/><path d="M104.92,177.26l-4.56,10.28h-1.3l4.66-10.28H98.2v-1h6.72Z"/><path d="M111.83,181.71c0-.27,0-.55,0-.83l-.06-.83h1.14v1.14h0a2.55,2.55,0,0,1,1.06-1,3.12,3.12,0,0,1,1.35-.33,3.74,3.74,0,0,1,.65.06,2.42,2.42,0,0,1,.67.23,2.34,2.34,0,0,1,.6.47,2.85,2.85,0,0,1,.47.79,2.45,2.45,0,0,1,1-1.14,2.81,2.81,0,0,1,1.44-.41,2.73,2.73,0,0,1,2.13.76,3.11,3.11,0,0,1,.69,2.17v4.75h-1.06v-4.37a3.17,3.17,0,0,0-.4-1.75,1.64,1.64,0,0,0-1.48-.6,1.92,1.92,0,0,0-1,.23,1.81,1.81,0,0,0-.64.62,2.42,2.42,0,0,0-.36.87,4.17,4.17,0,0,0-.12,1v4h-1v-4.37a3.26,3.26,0,0,0-.4-1.75,1.67,1.67,0,0,0-1.49-.6l-.44.06a1.62,1.62,0,0,0-.71.35,2.5,2.5,0,0,0-.67.87,3.63,3.63,0,0,0-.29,1.6v3.84h-1.06Z"/><path d="M125.46,181.71c0-.27,0-.55,0-.83l-.06-.83h1.14v1.14h0a2.52,2.52,0,0,1,1.07-1,3.05,3.05,0,0,1,1.35-.33,3.83,3.83,0,0,1,.65.06,2.23,2.23,0,0,1,1.26.7,2.63,2.63,0,0,1,.47.79,2.45,2.45,0,0,1,1-1.14,2.81,2.81,0,0,1,1.44-.41,2.73,2.73,0,0,1,2.13.76,3.11,3.11,0,0,1,.69,2.17v4.75h-1v-4.37a3.17,3.17,0,0,0-.41-1.75,1.64,1.64,0,0,0-1.48-.6,1.92,1.92,0,0,0-1,.23,1.81,1.81,0,0,0-.64.62,2.42,2.42,0,0,0-.36.87,4.17,4.17,0,0,0-.11,1v4h-1.06v-4.37a3.17,3.17,0,0,0-.4-1.75,1.66,1.66,0,0,0-1.49-.6l-.44.06a1.62,1.62,0,0,0-.71.35,2.5,2.5,0,0,0-.67.87,3.63,3.63,0,0,0-.29,1.6v3.84h-1.06Z"/></g><line class="cls-1" x1="26.11" y1="47.63" x2="26.23" y2="155.44"/><line class="cls-1" x1="27.39" y1="47.63" x2="24.76" y2="47.63"/><line class="cls-1" x1="27.5" y1="155.44" x2="24.87" y2="155.44"/><g class="cls-2"><path d="M21.68,127.15v1.15l-9.89-.06,1.78,2-.87.72-2.35-2.89v-1Z"/><path d="M18,117.14v-1.63h1.06v1.64h2.69v1.15H19l0,4.89H17.71l-7.31-4.62V117.1Zm-6.44,1.12v0L18,122.23l0-3.94Z"/><path d="M11.52,107.42l0,4.63,3.4.1a4.05,4.05,0,0,1-.2-.76,4.87,4.87,0,0,1-.06-.76,3.8,3.8,0,0,1,.28-1.46,3.16,3.16,0,0,1,.77-1.12,3.37,3.37,0,0,1,1.15-.73,4,4,0,0,1,2.95,0,3.28,3.28,0,0,1,1.16.81,3.64,3.64,0,0,1,.75,1.21,4.13,4.13,0,0,1,.27,1.51,3.7,3.7,0,0,1-.53,1.93,3.21,3.21,0,0,1-1.51,1.32L19.44,113a2.61,2.61,0,0,0,1.07-.89,2.22,2.22,0,0,0,.4-1.32,2.59,2.59,0,0,0-.19-1,2.72,2.72,0,0,0-.53-.8,2.48,2.48,0,0,0-.8-.55,2.67,2.67,0,0,0-2.08,0,2.4,2.4,0,0,0-.86.57,2.46,2.46,0,0,0-.56.87,3.42,3.42,0,0,0-.2,1.12,4.53,4.53,0,0,0,.17,1.21,5.72,5.72,0,0,0,.45,1.15l-5.88-.15,0-5.77Z"/><path d="M16,100.39l-.83,0-.83,0V99.33h1.14v0a2.44,2.44,0,0,1-1-1.07,3.05,3.05,0,0,1-.33-1.35,5.35,5.35,0,0,1,.07-.65,2.28,2.28,0,0,1,.24-.66A2.34,2.34,0,0,1,15,95a2.85,2.85,0,0,1,.79-.47,2.38,2.38,0,0,1-1.13-1A3.07,3.07,0,0,1,15,89.91a3.14,3.14,0,0,1,2.17-.68l4.76,0v1l-4.37,0a3.23,3.23,0,0,0-1.74.39,1.63,1.63,0,0,0-.62,1.48,1.92,1.92,0,0,0,.23,1,1.81,1.81,0,0,0,.61.65,2.42,2.42,0,0,0,.87.36,4.17,4.17,0,0,0,1,.12l4,0v1.06l-4.37,0a3.08,3.08,0,0,0-1.74.39,1.65,1.65,0,0,0-.62,1.48,3.61,3.61,0,0,0,.06.44,1.62,1.62,0,0,0,.35.71,2.55,2.55,0,0,0,.86.67,3.63,3.63,0,0,0,1.6.31l3.84,0v1.06Z"/><path d="M16.09,86.76l-.84,0-.83,0V85.7h1.13v0a2.47,2.47,0,0,1-1-1.07,3,3,0,0,1-.26-2,2.25,2.25,0,0,1,.23-.66,2.44,2.44,0,0,1,.48-.6,2.4,2.4,0,0,1,.79-.47,2.38,2.38,0,0,1-1.13-1,3.07,3.07,0,0,1,.36-3.57,3.07,3.07,0,0,1,2.17-.68l4.75,0v1.05l-4.37,0a3.09,3.09,0,0,0-1.75.39,1.65,1.65,0,0,0-.61,1.48,1.92,1.92,0,0,0,.22,1,2,2,0,0,0,.62.65,2.65,2.65,0,0,0,.86.36,4.31,4.31,0,0,0,1,.12l4,0v1.06l-4.37,0a3.27,3.27,0,0,0-1.75.39,1.67,1.67,0,0,0-.61,1.49,3.61,3.61,0,0,0,.06.44,1.62,1.62,0,0,0,.35.71,2.55,2.55,0,0,0,.86.67,3.6,3.6,0,0,0,1.6.31l3.84,0v1.05Z"/></g><rect class="cls-3" x="36.33" y="47.13" width="147.64" height="108.31"/><path class="cls-3" d="M200.85,47H272.7v.88S252.5,60,234.84,88.08c-12.32,19.57-15.78,33.66-19.54,52a102.2,102.2,0,0,0-1.43,13.13v2.54h-13Z"/></svg>