<svg id="Ray_F2" data-name="Ray F2" xmlns="http://www.w3.org/2000/svg" xmlns:xlink="http://www.w3.org/1999/xlink" viewBox="0 0 300 263"><defs><style>.cls-1,.cls-10,.cls-11,.cls-3,.cls-4,.cls-5,.cls-6,.cls-8{fill:none;}.cls-2{isolation:isolate;}.cls-3{stroke:#000;}.cls-11,.cls-3{stroke-width:0.5px;}.cls-10,.cls-11,.cls-4,.cls-6,.cls-8{stroke:#1d1d1b;}.cls-10,.cls-11,.cls-4{stroke-miterlimit:3.86;}.cls-4,.cls-6,.cls-8{stroke-width:0.25px;}.cls-5{fill-rule:evenodd;}.cls-6,.cls-8{stroke-linejoin:round;}.cls-7{clip-path:url(#clip-path);}.cls-8{stroke-linecap:round;}.cls-9{clip-path:url(#clip-path-2);}.cls-10{stroke-width:0.1px;}</style><clipPath id="clip-path"><path id="SVGID" class="cls-1" d="M152.05,74.11,142,207.77s-.05.42.58.37.52-.36.52-.36L153.09,74Z"/></clipPath><clipPath id="clip-path-2"><path id="SVGID-2" data-name="SVGID" class="cls-1" d="M158.07,74.66,170,217.2a1.57,1.57,0,0,0,.06.3c.07.31.59.24.59.24.7-.06.54-.51.54-.51L159.25,74.66Z"/></clipPath></defs><title>ray-floor-2-dordoni-flos-F5921009-spech-tech-02-300x263</title><g class="cls-2"><path d="M102.4,164.84V166H92.52l1.79,2-.87.72-2.36-2.88v-1Z"/><path d="M92.13,153.93l10.27,4.56v1.29l-10.27-4.66v5.53h-1v-6.72Z"/><path d="M102.4,147v1.16H92.52l1.79,2-.87.72-2.36-2.88v-1Z"/><path d="M90.88,139.27a3.24,3.24,0,0,1,.56-2,3.89,3.89,0,0,1,1.43-1.17,6.7,6.7,0,0,1,1.89-.56,14.07,14.07,0,0,1,4,0,6.7,6.7,0,0,1,1.89.56A3.89,3.89,0,0,1,102,137.3a3.75,3.75,0,0,1,0,3.94,3.89,3.89,0,0,1-1.43,1.17,6.38,6.38,0,0,1-1.89.55,13.14,13.14,0,0,1-4,0,6.38,6.38,0,0,1-1.89-.55,3.89,3.89,0,0,1-1.43-1.17A3.24,3.24,0,0,1,90.88,139.27Zm1.06,0a2,2,0,0,0,.5,1.46,3.08,3.08,0,0,0,1.23.81,5.7,5.7,0,0,0,1.57.34c.55.05,1.05.08,1.5.08s1,0,1.5-.08a5.7,5.7,0,0,0,1.57-.34,3.08,3.08,0,0,0,1.23-.81,2.05,2.05,0,0,0,.5-1.46,2.09,2.09,0,0,0-.5-1.47,3.17,3.17,0,0,0-1.23-.8,6.09,6.09,0,0,0-1.57-.35c-.55,0-1-.07-1.5-.07s-.95,0-1.5.07a6.09,6.09,0,0,0-1.57.35,3.17,3.17,0,0,0-1.23.8A2,2,0,0,0,91.94,139.27Z"/><path d="M96.58,129.22c-.28,0-.56,0-.83,0l-.83.05v-1.13h1.13v0a2.41,2.41,0,0,1-1-1.06,3.07,3.07,0,0,1-.34-1.35,3.79,3.79,0,0,1,.07-.65,2.25,2.25,0,0,1,.23-.66,2,2,0,0,1,.47-.6,2.52,2.52,0,0,1,.79-.48,2.48,2.48,0,0,1-1.14-1,3.07,3.07,0,0,1,.34-3.58,3.12,3.12,0,0,1,2.17-.69h4.75v1.06H98a3.17,3.17,0,0,0-1.75.4,1.67,1.67,0,0,0-.61,1.49,1.87,1.87,0,0,0,.85,1.64,3.07,3.07,0,0,0,.87.36,4.9,4.9,0,0,0,1,.11h4v1.06H98a3.27,3.27,0,0,0-1.75.39,1.68,1.68,0,0,0-.61,1.49,4.26,4.26,0,0,0,.07.44,1.71,1.71,0,0,0,.35.72,2.67,2.67,0,0,0,.86.66,3.53,3.53,0,0,0,1.6.3h3.84v1.05Z"/><path d="M96.58,115.59l-.83,0-.83.06v-1.14h1.13v0a2.41,2.41,0,0,1-1-1.06,3.13,3.13,0,0,1-.34-1.35,3.79,3.79,0,0,1,.07-.65,2.42,2.42,0,0,1,.23-.67,2.34,2.34,0,0,1,.47-.6,2.71,2.71,0,0,1,.79-.47,2.48,2.48,0,0,1-1.14-1,3.07,3.07,0,0,1,.34-3.58,3.12,3.12,0,0,1,2.17-.69h4.75v1.06H98a3.17,3.17,0,0,0-1.75.4,1.65,1.65,0,0,0-.61,1.49,1.91,1.91,0,0,0,.24,1,2,2,0,0,0,.61.65,3.07,3.07,0,0,0,.87.36,4.9,4.9,0,0,0,1,.11h4v1H98a3.26,3.26,0,0,0-1.75.4,1.68,1.68,0,0,0-.61,1.49,4.26,4.26,0,0,0,.07.44,1.62,1.62,0,0,0,.35.71,2.55,2.55,0,0,0,.86.67,3.69,3.69,0,0,0,1.6.29h3.84v1.06Z"/></g><line class="cls-3" x1="112.77" y1="46.68" x2="112.77" y2="217.26"/><line class="cls-3" x1="114.35" y1="46.68" x2="110.98" y2="46.68"/><line class="cls-3" x1="114.53" y1="217.26" x2="110.16" y2="217.26"/><g class="cls-2"><path d="M207.19,82.09v7.2h-1.33l-4.59-4.51c-.17-.18-.36-.35-.55-.52a4.64,4.64,0,0,0-.61-.46,3.25,3.25,0,0,0-.67-.34,2.24,2.24,0,0,0-.73-.12,2,2,0,0,0-.83.16,1.76,1.76,0,0,0-.63.48,2.08,2.08,0,0,0-.39.7,2.66,2.66,0,0,0-.14.85A2.32,2.32,0,0,0,197.2,87a2.11,2.11,0,0,0,1.3.78L198.37,89a3.18,3.18,0,0,1-2-1.16,3.51,3.51,0,0,1-.72-2.23,4.66,4.66,0,0,1,.18-1.31,3.24,3.24,0,0,1,.55-1.08,2.72,2.72,0,0,1,.92-.76,2.92,2.92,0,0,1,1.29-.28,3.51,3.51,0,0,1,1.2.2,5.44,5.44,0,0,1,1,.52,8,8,0,0,1,.92.73c.28.27.57.55.84.84L206.13,88v-6Z"/><path d="M196.91,73.58l10.28,4.56v1.29l-10.28-4.65V80.3h-1V73.58Z"/><path d="M195.67,67.82a3.17,3.17,0,0,1,.56-2,3.78,3.78,0,0,1,1.42-1.17,6.45,6.45,0,0,1,1.9-.56,13.53,13.53,0,0,1,2-.14,13.76,13.76,0,0,1,2,.14,6.3,6.3,0,0,1,1.89.56,3.81,3.81,0,0,1,1.43,1.17,3.73,3.73,0,0,1,0,3.93A3.72,3.72,0,0,1,205.39,71a6,6,0,0,1-1.89.56,13.82,13.82,0,0,1-2,.15,13.58,13.58,0,0,1-2-.15,6.17,6.17,0,0,1-1.9-.56,3.69,3.69,0,0,1-1.42-1.17A3.14,3.14,0,0,1,195.67,67.82Zm1.05,0a2.09,2.09,0,0,0,.5,1.46,3.08,3.08,0,0,0,1.23.81,6.09,6.09,0,0,0,1.57.34c.55,0,1,.07,1.5.07s.95,0,1.51-.07a6.1,6.1,0,0,0,1.56-.34,3.11,3.11,0,0,0,1.24-.81,2.44,2.44,0,0,0,0-2.93,3.22,3.22,0,0,0-1.24-.81A6.1,6.1,0,0,0,203,65.2c-.56,0-1.06-.07-1.51-.07s-1,0-1.5.07a6.09,6.09,0,0,0-1.57.34,3.19,3.19,0,0,0-1.23.81A2.09,2.09,0,0,0,196.72,67.82Z"/><path d="M201.36,57.77l-.83,0-.83.06V56.71h1.13v0a2.59,2.59,0,0,1-1-1.06,3.12,3.12,0,0,1-.33-1.36,3.72,3.72,0,0,1,.06-.64,2.42,2.42,0,0,1,.23-.67,2.34,2.34,0,0,1,.47-.6,2.85,2.85,0,0,1,.79-.47,2.45,2.45,0,0,1-1.14-1,2.81,2.81,0,0,1-.41-1.44,2.73,2.73,0,0,1,.76-2.13,3.1,3.1,0,0,1,2.16-.69h4.76v1.06h-4.37a3.17,3.17,0,0,0-1.75.4,1.64,1.64,0,0,0-.6,1.48,1.92,1.92,0,0,0,.23,1,1.87,1.87,0,0,0,.61.64,2.55,2.55,0,0,0,.88.36,4.17,4.17,0,0,0,1,.12h4v1.05h-4.37a3.26,3.26,0,0,0-1.75.4,1.66,1.66,0,0,0-.6,1.49,3.61,3.61,0,0,0,.06.44,1.62,1.62,0,0,0,.35.71,2.5,2.5,0,0,0,.87.67,3.63,3.63,0,0,0,1.6.29h3.84v1.06Z"/><path d="M201.36,44.14c-.28,0-.55,0-.83,0l-.83.06V43.08h1.13v0a2.56,2.56,0,0,1-1-1.07,3.05,3.05,0,0,1-.33-1.35,3.83,3.83,0,0,1,.06-.65,2.25,2.25,0,0,1,.23-.66,2.34,2.34,0,0,1,.47-.6,2.63,2.63,0,0,1,.79-.47,2.5,2.5,0,0,1-1.14-1,2.82,2.82,0,0,1-.41-1.45,2.69,2.69,0,0,1,.76-2.12,3.1,3.1,0,0,1,2.16-.69h4.76V34h-4.37a3.26,3.26,0,0,0-1.75.4,1.67,1.67,0,0,0-.6,1.49,1.86,1.86,0,0,0,.23,1,1.81,1.81,0,0,0,.61.65,2.55,2.55,0,0,0,.88.36,4.17,4.17,0,0,0,1,.11h4v1.06h-4.37a3.17,3.17,0,0,0-1.75.4,1.66,1.66,0,0,0-.6,1.49,3.61,3.61,0,0,0,.06.44,1.67,1.67,0,0,0,.35.71,2.37,2.37,0,0,0,.87.66,3.48,3.48,0,0,0,1.6.3h3.84v1.06Z"/></g><line class="cls-3" x1="188.99" y1="47.01" x2="188.99" y2="74.7"/><line class="cls-3" x1="190.57" y1="47.01" x2="187.2" y2="47.01"/><line class="cls-3" x1="190.75" y1="74.7" x2="186.38" y2="74.7"/><g class="cls-2"><path d="M121.39,21a4,4,0,0,1,.68,1.16,4.44,4.44,0,0,1,0,3,3.73,3.73,0,0,1-2.08,2.07,4.2,4.2,0,0,1-1.61.3,4.15,4.15,0,0,1-1.4-.23,3.72,3.72,0,0,1-1.11-.61l-1.07,1.09-.52-.5,1.06-1.08a3.67,3.67,0,0,1-.69-1.18,4.17,4.17,0,0,1-.24-1.43,4,4,0,0,1,.3-1.57,3.67,3.67,0,0,1,.82-1.25,3.76,3.76,0,0,1,1.26-.82,4.09,4.09,0,0,1,1.59-.3,4.18,4.18,0,0,1,1.39.22,3.65,3.65,0,0,1,1.15.62l1.06-1.09.51.49Zm-1.25.26a2.66,2.66,0,0,0-1.81-.63,3,3,0,0,0-1.18.23,2.7,2.7,0,0,0-.88.64,2.94,2.94,0,0,0-.56.94,3.42,3.42,0,0,0-.2,1.17,2.94,2.94,0,0,0,.55,1.82ZM116.54,26a2.72,2.72,0,0,0,.8.45,3.11,3.11,0,0,0,1,.16,2.8,2.8,0,0,0,1.18-.24,2.54,2.54,0,0,0,.88-.63,2.73,2.73,0,0,0,.57-.94,3.51,3.51,0,0,0,.2-1.17,3.18,3.18,0,0,0-.54-1.83Z"/><path d="M134.18,23.62h1.64v1.05h-1.64v2.69H133V24.67h-4.89V23.36L132.71,16h1.47ZM133,17.19h0l-3.9,6.43H133Z"/><path d="M139.69,20.9h.59a4.19,4.19,0,0,0,.95-.11,2.3,2.3,0,0,0,.79-.36,1.72,1.72,0,0,0,.54-.65,2.19,2.19,0,0,0,.2-1,1.82,1.82,0,0,0-.55-1.42,2.23,2.23,0,0,0-1.54-.5,2.47,2.47,0,0,0-1.27.32,2.52,2.52,0,0,0-.9.93l-1-.51a3.42,3.42,0,0,1,1.3-1.36,3.75,3.75,0,0,1,1.83-.44,4.38,4.38,0,0,1,1.27.19,3.18,3.18,0,0,1,1,.57,2.74,2.74,0,0,1,.71.93,3,3,0,0,1,.26,1.26,2.58,2.58,0,0,1-.15.88,2.85,2.85,0,0,1-1,1.33,2.89,2.89,0,0,1-.74.38l0,0a2.72,2.72,0,0,1,.88.36,2.67,2.67,0,0,1,.69.65,3.06,3.06,0,0,1,.45.86,3.39,3.39,0,0,1,.16,1,3.23,3.23,0,0,1-.29,1.39,3,3,0,0,1-.78,1,3.82,3.82,0,0,1-1.16.63,4.5,4.5,0,0,1-1.39.22,4.28,4.28,0,0,1-2.18-.55A3.33,3.33,0,0,1,137,25.27l1.22-.37a2.41,2.41,0,0,0,.85,1.21,2.8,2.8,0,0,0,1.6.39,2.53,2.53,0,0,0,.91-.16,2.34,2.34,0,0,0,.76-.46,1.93,1.93,0,0,0,.51-.71,2.27,2.27,0,0,0,.18-.91,2.21,2.21,0,0,0-.24-1.08,1.9,1.9,0,0,0-.64-.71,2.65,2.65,0,0,0-.92-.4,4.7,4.7,0,0,0-1.08-.12h-.49Z"/><path d="M149.77,15.84a3.24,3.24,0,0,1,2,.56,3.77,3.77,0,0,1,1.16,1.43,6,6,0,0,1,.56,1.89,13.82,13.82,0,0,1,.15,2,13.58,13.58,0,0,1-.15,2,6.17,6.17,0,0,1-.56,1.9A3.66,3.66,0,0,1,151.74,27a3.69,3.69,0,0,1-3.94,0,3.78,3.78,0,0,1-1.17-1.42,6.77,6.77,0,0,1-.56-1.9,15.09,15.09,0,0,1-.14-2,15.36,15.36,0,0,1,.14-2,6.6,6.6,0,0,1,.56-1.89,3.89,3.89,0,0,1,1.17-1.43A3.24,3.24,0,0,1,149.77,15.84Zm0,1.06a2,2,0,0,0-1.47.5,3.17,3.17,0,0,0-.8,1.23,6.11,6.11,0,0,0-.35,1.56c-.05.56-.07,1.06-.07,1.51s0,.95.07,1.5a6.09,6.09,0,0,0,.35,1.57,3.17,3.17,0,0,0,.8,1.23,2.09,2.09,0,0,0,1.47.5,2.05,2.05,0,0,0,1.46-.5,3.08,3.08,0,0,0,.81-1.23,5.7,5.7,0,0,0,.34-1.57c.05-.55.08-1.05.08-1.5s0-.95-.08-1.51a5.71,5.71,0,0,0-.34-1.56,3.08,3.08,0,0,0-.81-1.23A2,2,0,0,0,149.77,16.9Z"/><path d="M159.82,21.54c0-.28,0-.56,0-.83s0-.56,0-.84h1.13V21h0A2.44,2.44,0,0,1,162,20a2.94,2.94,0,0,1,1.35-.34,3.07,3.07,0,0,1,.65.07,2.25,2.25,0,0,1,.66.23,2,2,0,0,1,.6.47,2.28,2.28,0,0,1,.47.78,2.53,2.53,0,0,1,1-1.13,3.07,3.07,0,0,1,3.58.34,3.17,3.17,0,0,1,.68,2.17v4.75h-1V23a3.25,3.25,0,0,0-.4-1.74,1.67,1.67,0,0,0-1.49-.61,2,2,0,0,0-1,.23,1.93,1.93,0,0,0-.65.62,2.8,2.8,0,0,0-.36.87,4.9,4.9,0,0,0-.11,1v4h-1.06V23a3.16,3.16,0,0,0-.4-1.74,1.65,1.65,0,0,0-1.49-.61,2.67,2.67,0,0,0-.44.07,1.67,1.67,0,0,0-.71.35,2.67,2.67,0,0,0-.66.86,3.53,3.53,0,0,0-.3,1.6v3.84h-1.05Z"/><path d="M173.45,21.54c0-.28,0-.56,0-.83s0-.56,0-.84h1.13V21h0a2.41,2.41,0,0,1,1.06-1,2.94,2.94,0,0,1,1.35-.34,3.07,3.07,0,0,1,.65.07,2.25,2.25,0,0,1,.66.23,2,2,0,0,1,.6.47,2.47,2.47,0,0,1,.48.78,2.45,2.45,0,0,1,1-1.13,3.07,3.07,0,0,1,3.58.34,3.12,3.12,0,0,1,.69,2.17v4.75h-1.06V23a3.16,3.16,0,0,0-.4-1.74,1.67,1.67,0,0,0-1.49-.61,2,2,0,0,0-1,.23,1.93,1.93,0,0,0-.65.62,3.07,3.07,0,0,0-.36.87,4.9,4.9,0,0,0-.11,1v4H178.5V23a3.16,3.16,0,0,0-.4-1.74,1.65,1.65,0,0,0-1.48-.61,2.52,2.52,0,0,0-.44.07,1.71,1.71,0,0,0-.72.35,2.67,2.67,0,0,0-.66.86,3.53,3.53,0,0,0-.3,1.6v3.84h-1.05Z"/></g><line class="cls-3" x1="181.53" y1="38.16" x2="130.64" y2="38.16"/><line class="cls-3" x1="181.53" y1="39.74" x2="181.53" y2="36.37"/><line class="cls-3" x1="130.64" y1="39.92" x2="130.64" y2="35.54"/><path class="cls-1" d="M159.08,180.71l16.42-16.85c0-.25-.07-.38-.34-.39l-15.57,16Z"/><path class="cls-1" d="M159.08,180.71l16.42-16.85c0-.25-.07-.38-.34-.39l-15.57,16Z"/><path class="cls-4" d="M159.08,180.71l16.42-16.85c0-.25-.07-.38-.34-.39l-15.57,16Z"/><path class="cls-5" d="M167,168.86l1.23-1.88c0,.1-.14.18-.32.18s-.32-.08-.32-.18l-.65,1Z"/><path class="cls-6" d="M167,168.86l1.23-1.88c0,.1-.14.18-.32.18s-.32-.08-.32-.18l-.65,1Z"/><path class="cls-4" d="M158.07,74.36,180.3,209.94s-.08.32.55.32.54-.42.54-.42L159.12,74.36Z"/><g class="cls-7"><polygon class="cls-1" points="137.45 207.65 152.24 73.96 152 73.94 137.21 207.62 137.45 207.65"/><polygon class="cls-1" points="137.69 207.67 152.47 73.98 152.23 73.96 137.44 207.64 137.69 207.67"/><polygon class="cls-1" points="137.92 207.69 152.7 74.01 152.46 73.98 137.67 207.67 137.92 207.69"/><polygon class="cls-1" points="138.15 207.71 152.93 74.03 152.69 74 137.9 207.69 138.15 207.71"/><polygon class="cls-1" points="138.38 207.74 153.17 74.05 152.92 74.03 138.13 207.71 138.38 207.74"/><polygon class="cls-1" points="138.61 207.76 153.4 74.08 153.15 74.05 138.37 207.74 138.61 207.76"/><polygon class="cls-1" points="138.84 207.78 153.63 74.1 153.38 74.08 138.6 207.76 138.84 207.78"/><polygon class="cls-1" points="139.07 207.81 153.86 74.12 153.62 74.1 138.83 207.78 139.07 207.81"/><polygon class="cls-1" points="139.3 207.83 154.09 74.15 153.85 74.12 139.06 207.81 139.3 207.83"/><polygon class="cls-1" points="139.53 207.85 154.32 74.17 154.08 74.14 139.29 207.83 139.53 207.85"/><polygon class="cls-1" points="139.77 207.88 154.55 74.19 154.31 74.17 139.52 207.85 139.77 207.88"/><polygon class="cls-1" points="140 207.9 154.78 74.21 154.54 74.19 139.75 207.88 140 207.9"/><polygon class="cls-1" points="140.1 207.91 154.89 74.22 154.7 74.2 139.91 207.89 140.1 207.91"/><polygon class="cls-1" points="140.32 207.93 155.1 74.24 154.91 74.22 140.13 207.91 140.32 207.93"/><rect class="cls-1" x="80.58" y="141" width="134.51" height="0.19" transform="translate(-8.66 272.52) rotate(-83.69)"/><polygon class="cls-1" points="140.75 207.98 155.53 74.28 155.35 74.27 140.56 207.96 140.75 207.98"/><polygon class="cls-1" points="140.96 208 155.75 74.31 155.56 74.29 140.77 207.98 140.96 208"/><polygon class="cls-1" points="141.18 208.02 155.97 74.33 155.78 74.31 140.99 208 141.18 208.02"/><polygon class="cls-1" points="141.4 208.04 156.18 74.35 155.99 74.33 141.2 208.02 141.4 208.04"/><rect class="cls-1" x="81.66" y="141.11" width="134.5" height="0.19" transform="translate(-7.81 273.69) rotate(-83.69)"/><polygon class="cls-1" points="141.83 208.08 156.61 74.39 156.43 74.37 141.63 208.06 141.83 208.08"/><rect class="cls-1" x="82.09" y="141.15" width="134.51" height="0.19" transform="translate(-7.47 274.16) rotate(-83.69)"/><polygon class="cls-1" points="142.26 208.13 157.04 74.44 156.86 74.42 142.07 208.11 142.26 208.13"/><rect class="cls-1" x="82.52" y="141.2" width="134.51" height="0.19" transform="translate(-7.13 274.62) rotate(-83.69)"/><polygon class="cls-1" points="142.69 208.17 157.47 74.48 157.29 74.46 142.5 208.15 142.69 208.17"/><polygon class="cls-1" points="142.9 208.19 157.69 74.5 157.5 74.48 142.71 208.17 142.9 208.19"/><polygon class="cls-1" points="143.12 208.21 157.91 74.52 157.72 74.5 142.93 208.19 143.12 208.21"/><path class="cls-5" d="M143.18,207.14s.11.31-.52.36-.58-.37-.58-.37a5,5,0,0,0-1.15.13c0,.1-.07,1.25-.07,1.25s1.33,1.28,1.41,1.27a9.64,9.64,0,0,0,1.64-.44c0-.1.37-1.17.37-1.22s0-.35-.21-.42a4.67,4.67,0,0,1-.89-.56"/><path class="cls-8" d="M143.18,207.14s.11.31-.52.36-.58-.37-.58-.37a5,5,0,0,0-1.15.13c0,.1-.07,1.25-.07,1.25s1.33,1.28,1.41,1.27a9.64,9.64,0,0,0,1.64-.44c0-.1.37-1.17.37-1.22s0-.35-.21-.42A4.67,4.67,0,0,1,143.18,207.14Z"/></g><path class="cls-1" d="M153.09,74.36l-10,133.89s.11.31-.52.36-.58-.37-.58-.37L152.05,74.45Z"/><path class="cls-4" d="M153.09,74.36l-10,133.89s.11.31-.52.36-.58-.37-.58-.37L152.05,74.45Z"/><path class="cls-1" d="M159.25,79.49l11.94,137.76s.16.43-.54.49c0,0-.52.07-.59-.23a1.48,1.48,0,0,1-.06-.29L158.07,79.49Z"/><g class="cls-9"><polygon class="cls-1" points="170.24 217.79 152.47 75.34 152.26 75.37 170.03 217.81 170.24 217.79"/><rect class="cls-1" x="161.36" y="74.78" width="0.21" height="143.55" transform="translate(-16.9 21.11) rotate(-7.11)"/><polygon class="cls-1" points="170.68 217.74 152.91 75.29 152.7 75.31 170.47 217.76 170.68 217.74"/><polygon class="cls-1" points="171.12 217.68 153.35 75.23 153.14 75.26 170.91 217.71 171.12 217.68"/><polygon class="cls-1" points="171.34 217.66 153.57 75.21 153.36 75.23 171.13 217.68 171.34 217.66"/><polygon class="cls-1" points="171.56 217.63 153.79 75.18 153.58 75.21 171.35 217.66 171.56 217.63"/><polygon class="cls-1" points="171.78 217.6 154.01 75.16 153.8 75.18 171.57 217.63 171.78 217.6"/><polygon class="cls-1" points="172 217.58 154.23 75.13 154.02 75.16 171.79 217.6 172 217.58"/><rect class="cls-1" x="163.12" y="74.56" width="0.21" height="143.55" transform="translate(-16.86 21.33) rotate(-7.11)"/><rect class="cls-1" x="163.35" y="74.54" width="0.21" height="143.55" transform="translate(-16.85 21.36) rotate(-7.11)"/><polygon class="cls-1" points="172.66 217.5 154.89 75.05 154.68 75.08 172.45 217.52 172.66 217.5"/><polygon class="cls-1" points="172.88 217.47 155.11 75.02 154.9 75.05 172.67 217.5 172.88 217.47"/><rect class="cls-1" x="164" y="74.46" width="0.21" height="143.55" transform="translate(-16.84 21.44) rotate(-7.11)"/><polygon class="cls-1" points="173.32 217.42 155.55 74.97 155.34 75 173.11 217.44 173.32 217.42"/><polygon class="cls-1" points="173.44 217.4 155.67 74.95 155.46 74.98 173.22 217.43 173.44 217.4"/><rect class="cls-1" x="164.57" y="74.39" width="0.21" height="143.55" transform="translate(-16.83 21.51) rotate(-7.11)"/><polygon class="cls-1" points="173.89 217.35 156.12 74.9 155.91 74.93 173.68 217.37 173.89 217.35"/><polygon class="cls-1" points="174.12 217.32 156.35 74.87 156.14 74.9 173.91 217.35 174.12 217.32"/><polygon class="cls-1" points="174.34 217.29 156.57 74.85 156.36 74.87 174.13 217.32 174.34 217.29"/><polygon class="cls-1" points="174.57 217.27 156.8 74.82 156.59 74.84 174.36 217.29 174.57 217.27"/><rect class="cls-1" x="165.7" y="74.25" width="0.21" height="143.55" transform="translate(-16.8 21.65) rotate(-7.11)"/><rect class="cls-1" x="165.92" y="74.23" width="0.21" height="143.55" transform="translate(-16.79 21.67) rotate(-7.11)"/><rect class="cls-1" x="166.15" y="74.2" width="0.21" height="143.55" transform="translate(-16.79 21.7) rotate(-7.11)"/><rect class="cls-1" x="166.38" y="74.17" width="0.21" height="143.55" transform="translate(-16.79 21.73) rotate(-7.11)"/><polygon class="cls-1" points="175.7 217.13 157.93 74.68 157.72 74.71 175.49 217.16 175.7 217.13"/><polygon class="cls-1" points="175.93 217.1 158.16 74.66 157.95 74.68 175.72 217.13 175.93 217.1"/><polygon class="cls-1" points="176.15 217.08 158.38 74.63 158.17 74.65 175.94 217.1 176.15 217.08"/><polygon class="cls-1" points="176.38 217.05 158.61 74.6 158.4 74.63 176.17 217.07 176.38 217.05"/><rect class="cls-1" x="167.51" y="74.03" width="0.21" height="143.55" transform="translate(-16.76 21.87) rotate(-7.11)"/><rect class="cls-1" x="167.73" y="74.01" width="0.21" height="143.55" transform="translate(-16.75 21.89) rotate(-7.11)"/><polygon class="cls-1" points="177.06 216.97 159.29 74.52 159.08 74.54 176.84 216.99 177.06 216.97"/><path class="cls-1" d="M169.08,216.7c-.26.33,0,.56.12,1s1.06.88,1.48,1,1.15-.63,1.15-.63-.21-1.64-.23-1.74-.4-.39-.4-.39l-.09.66s.15.45-.54.51c0,0-.52.07-.59-.24s-.06-.3-.06-.3l0-.37a2.78,2.78,0,0,0-.8.59"/><path class="cls-4" d="M169.08,216.7c-.26.33,0,.56.12,1s1.06.88,1.48,1,1.15-.63,1.15-.63-.21-1.64-.23-1.74-.4-.39-.4-.39l-.09.66s.15.45-.54.51c0,0-.52.07-.59-.24s-.06-.3-.06-.3l0-.37A2.78,2.78,0,0,0,169.08,216.7Z"/></g><path class="cls-4" d="M159.25,74.36l11.94,142.87s.16.45-.54.51c0,0-.52.07-.59-.24a1.57,1.57,0,0,1-.06-.3L158.07,74.36Z"/><path class="cls-1" d="M129.24,209.37s.16.3.5,0l13.46-12.77L155,184.82l.25.49-11.94,12.14L130.2,209.72a1.84,1.84,0,0,1-1.1.51Z"/><path class="cls-1" d="M129.24,209.37s.16.3.5,0l13.46-12.77L155,184.82l.25.49-11.94,12.14L130.2,209.72a1.84,1.84,0,0,1-1.1.51Z"/><path class="cls-4" d="M129.24,209.37s.16.3.5,0l13.46-12.77L155,184.82l.25.49-11.94,12.14L130.2,209.72a1.84,1.84,0,0,1-1.1.51Z"/><path class="cls-4" d="M152.19,74.66,128.41,215c0,.2-.32.31-.72.33s-.27-.29-.27-.29L151.21,74.71Z"/><path class="cls-1" d="M154.28,183l14.66,28.76a1.19,1.19,0,0,0,.84.56l-.14-1a1.36,1.36,0,0,1-.5-.52l-13.82-27.1Z"/><path class="cls-1" d="M154.28,183l14.66,28.76a1.19,1.19,0,0,0,.84.56l-.14-1a1.36,1.36,0,0,1-.5-.52l-13.82-27.1Z"/><path class="cls-4" d="M154.28,183l14.66,28.76a1.19,1.19,0,0,0,.84.56l-.14-1a1.36,1.36,0,0,1-.5-.52l-13.82-27.1Z"/><path class="cls-10" d="M134.3,166.31c0-.06.07-.17.22-.24s.3-.08.32,0-.08.14-.22.24-.29.09-.32,0"/><path class="cls-4" d="M134.64,166.25c.2-.2.18,0,.15-.07l20.52,17.61L167.92,195l.07.8-13-11.62L134.35,166.3A.48.48,0,0,0,134.64,166.25Z"/><path class="cls-1" d="M169.44,196c5.18,4.62,9.87,8.81,10,9a1.27,1.27,0,0,0,.65.35.21.21,0,0,1,.3.16.29.29,0,0,1-.13.36,1.43,1.43,0,0,1-1-.3l-9.77-8.72Z"/><path class="cls-4" d="M169.44,196c5.18,4.62,9.87,8.81,10,9a1.27,1.27,0,0,0,.65.35.21.21,0,0,1,.3.16.29.29,0,0,1-.13.36,1.43,1.43,0,0,1-1-.3l-9.77-8.72Z"/><path class="cls-1" d="M155.67,185.76c-2.62,3.85-12,17.63-12.1,17.76a.66.66,0,0,1-.68.17.34.34,0,0,1-.15-.46c.06-.13.33-.15.33-.15s.63-.82.63-.82l11.63-17.16Z"/><path class="cls-1" d="M155.67,185.76c-2.62,3.85-12,17.63-12.1,17.76a.66.66,0,0,1-.68.17.34.34,0,0,1-.15-.46c.06-.13.33-.15.33-.15s.63-.82.63-.82l11.63-17.16Z"/><path class="cls-4" d="M155.67,185.76c-2.62,3.85-12,17.63-12.1,17.76a.66.66,0,0,1-.68.17.34.34,0,0,1-.15-.46c.06-.13.33-.15.33-.15s.63-.82.63-.82l11.63-17.16Z"/><path class="cls-1" d="M145,163.85c0,.09.14.11.31.15a.31.31,0,0,1,.24.35.37.37,0,0,1-.13.28l9.32,18.18-1-.84-9.88-18.9s0-.15.19-.22.27-.1.29,0,.59,1,.63,1"/><path class="cls-1" d="M145,163.85c0,.09.14.11.31.15a.31.31,0,0,1,.24.35.37.37,0,0,1-.13.28l9.32,18.18-1-.84-9.88-18.9s0-.15.19-.22.27-.1.29,0,.59,1,.63,1"/><path class="cls-4" d="M145,163.88c0,.09.14.11.31.15a.33.33,0,0,1,.24.36.37.37,0,0,1-.13.28l9.32,18.65-1-.87-9.88-19.37c0-.05,0-.16.19-.23s.27-.1.29,0S144.91,163.79,145,163.88Z"/><path class="cls-1" d="M167.62,167c0-.1.14-.18.32-.18s.32.08.32.18-.14.18-.32.18-.32-.08-.32-.18"/><path class="cls-4" d="M167.62,167c0-.1.14-.18.32-.18s.32.08.32.18-.14.18-.32.18S167.62,167.08,167.62,167Z"/><path class="cls-1" d="M158.9,180.68s-.7,1.16-.66,1.13L156.05,184l-.45-.4c.56-.56,3.11-3.07,3.3-2.92"/><path class="cls-4" d="M158.9,180.68s-.7,1.16-.66,1.13L156.05,184l-.45-.4C156.16,183,158.71,180.53,158.9,180.68Z"/><polygon class="cls-1" points="166.14 170.38 156.53 184.43 156.08 184.03 166.07 169.45 166.14 170.38"/><polygon class="cls-4" points="166.14 170.38 156.53 184.43 156.08 184.03 166.07 169.45 166.14 170.38"/><path class="cls-8" d="M144.32,162.8l.93,1.61"/><rect class="cls-11" x="129.9" y="47.33" width="51.5" height="26.73"/></svg>