<svg id="Ray_F1" data-name="Ray F1" xmlns="http://www.w3.org/2000/svg" xmlns:xlink="http://www.w3.org/1999/xlink" viewBox="0 0 300 263"><defs><style>.cls-1,.cls-10,.cls-11,.cls-3,.cls-4,.cls-5,.cls-6,.cls-8{fill:none;}.cls-2{isolation:isolate;}.cls-3{stroke:#000;}.cls-11,.cls-3{stroke-width:0.5px;}.cls-10,.cls-11,.cls-4,.cls-6,.cls-8{stroke:#1d1d1b;}.cls-10,.cls-11,.cls-4{stroke-miterlimit:3.86;}.cls-4,.cls-6,.cls-8{stroke-width:0.25px;}.cls-5{fill-rule:evenodd;}.cls-6,.cls-8{stroke-linejoin:round;}.cls-7{clip-path:url(#clip-path);}.cls-8{stroke-linecap:round;}.cls-9{clip-path:url(#clip-path-2);}.cls-10{stroke-width:0.1px;}</style><clipPath id="clip-path"><path id="SVGID" class="cls-1" d="M148.05,97.38l-8.42,112s0,.35.49.31.43-.3.43-.3l8.38-112.09Z"/></clipPath><clipPath id="clip-path-2"><path id="SVGID-2" data-name="SVGID" class="cls-1" d="M153.1,97.84l10,119.44a1,1,0,0,0,.05.26c.06.26.49.2.49.2.59-.05.46-.42.46-.42l-10-119.48Z"/></clipPath></defs><title>ray-floor-1-dordoni-flos-F5916030-spech-tech-02-300x263</title><g class="cls-2"><path d="M106.28,164.84V166H96.39l1.79,2-.86.72L95,165.86v-1Z"/><path d="M106.28,153.54v7.2H105l-4.59-4.51-.54-.51a6.62,6.62,0,0,0-.61-.47,3.78,3.78,0,0,0-.67-.33,2.06,2.06,0,0,0-.74-.13A2,2,0,0,0,97,155a1.74,1.74,0,0,0-.63.47,2.18,2.18,0,0,0-.39.7,2.65,2.65,0,0,0-.13.85,2.28,2.28,0,0,0,.48,1.47,2.17,2.17,0,0,0,1.29.79l-.13,1.21a3.14,3.14,0,0,1-2-1.16,3.49,3.49,0,0,1-.72-2.23,4.59,4.59,0,0,1,.18-1.3,3.31,3.31,0,0,1,.56-1.09,2.6,2.6,0,0,1,.92-.75,2.72,2.72,0,0,1,1.28-.28,3.29,3.29,0,0,1,1.2.2,4.33,4.33,0,0,1,1,.52,6.2,6.2,0,0,1,.91.73c.29.27.57.55.85.84l3.53,3.56v-6Z"/><path d="M100.25,149.64a2.41,2.41,0,0,1-.38.68,2.44,2.44,0,0,1-.58.53,3.17,3.17,0,0,1-.74.36,2.87,2.87,0,0,1-3-.82,3,3,0,0,1-.59-1A3.62,3.62,0,0,1,95,147a3.09,3.09,0,0,1,.59-1,2.95,2.95,0,0,1,3-.82,3.17,3.17,0,0,1,.74.36,2.44,2.44,0,0,1,.58.53,2.41,2.41,0,0,1,.38.68h0a2.64,2.64,0,0,1,1.06-1.53,3.15,3.15,0,0,1,1.92-.58,2.85,2.85,0,0,1,1.32.3,3.15,3.15,0,0,1,1,.78,3.56,3.56,0,0,1,.65,1.14,4.14,4.14,0,0,1,.22,1.37,4.08,4.08,0,0,1-.22,1.36,3.56,3.56,0,0,1-.65,1.14,3.15,3.15,0,0,1-1,.78,2.85,2.85,0,0,1-1.32.3,3.15,3.15,0,0,1-1.92-.58,2.64,2.64,0,0,1-1.06-1.53Zm-2.43-3.49a2.07,2.07,0,0,0-.8.15,1.87,1.87,0,0,0-.64.42,2.17,2.17,0,0,0-.41.65A2.18,2.18,0,0,0,96,149a2.17,2.17,0,0,0,.41.65A1.87,1.87,0,0,0,97,150a2.07,2.07,0,0,0,.8.15,2.15,2.15,0,0,0,.8-.15,1.93,1.93,0,0,0,.63-.42,2.17,2.17,0,0,0,.41-.65,2.06,2.06,0,0,0,0-1.59,2.17,2.17,0,0,0-.41-.65,1.93,1.93,0,0,0-.63-.42A2.15,2.15,0,0,0,97.82,146.15Zm5.28-.42a2.32,2.32,0,0,0-.92.18,2.22,2.22,0,0,0-.74.49,2.16,2.16,0,0,0-.49.77,3,3,0,0,0,0,2,2.18,2.18,0,0,0,1.23,1.25,2.32,2.32,0,0,0,.92.18,2.36,2.36,0,0,0,.92-.18,2.29,2.29,0,0,0,.73-.49,2.21,2.21,0,0,0,.49-.76,2.87,2.87,0,0,0,0-2,2.16,2.16,0,0,0-.49-.77,2.29,2.29,0,0,0-.73-.49A2.36,2.36,0,0,0,103.1,145.73Z"/><path d="M94.76,139.27a3.24,3.24,0,0,1,.56-2,3.86,3.86,0,0,1,1.42-1.17,6.77,6.77,0,0,1,1.9-.56,14,14,0,0,1,4,0,6.77,6.77,0,0,1,1.9.56,3.86,3.86,0,0,1,1.42,1.17,3.75,3.75,0,0,1,0,3.94,3.86,3.86,0,0,1-1.42,1.17,6.44,6.44,0,0,1-1.9.55,13.08,13.08,0,0,1-4,0,6.44,6.44,0,0,1-1.9-.55,3.86,3.86,0,0,1-1.42-1.17A3.24,3.24,0,0,1,94.76,139.27Zm1.06,0a2,2,0,0,0,.49,1.46,3.08,3.08,0,0,0,1.23.81,5.78,5.78,0,0,0,1.57.34c.56.05,1.06.08,1.51.08s.94,0,1.5-.08a5.78,5.78,0,0,0,1.57-.34,3.08,3.08,0,0,0,1.23-.81,2.05,2.05,0,0,0,.5-1.46,2.09,2.09,0,0,0-.5-1.47,3.17,3.17,0,0,0-1.23-.8,6.19,6.19,0,0,0-1.57-.35c-.56,0-1.06-.07-1.5-.07s-1,0-1.51.07a6.19,6.19,0,0,0-1.57.35,3.17,3.17,0,0,0-1.23.8A2.09,2.09,0,0,0,95.82,139.27Z"/><path d="M100.46,129.22q-.42,0-.84,0l-.83.05v-1.13h1.14v0a2.41,2.41,0,0,1-1-1.06,2.94,2.94,0,0,1-.34-1.35,3.74,3.74,0,0,1,.06-.65,2.28,2.28,0,0,1,.24-.66,2,2,0,0,1,.47-.6,2.47,2.47,0,0,1,.78-.48,2.41,2.41,0,0,1-1.13-1,2.79,2.79,0,0,1-.42-1.45,2.73,2.73,0,0,1,.76-2.13,3.12,3.12,0,0,1,2.17-.69h4.75v1.06h-4.37a3.11,3.11,0,0,0-1.74.4,1.64,1.64,0,0,0-.61,1.49,2,2,0,0,0,.23,1,1.93,1.93,0,0,0,.62.65,2.84,2.84,0,0,0,.87.36,4.76,4.76,0,0,0,1,.11h4v1.06h-4.37a3.2,3.2,0,0,0-1.74.39,1.65,1.65,0,0,0-.61,1.49,3.37,3.37,0,0,0,.06.44,1.74,1.74,0,0,0,.36.72,2.67,2.67,0,0,0,.86.66,3.51,3.51,0,0,0,1.6.3h3.84v1.05Z"/><path d="M100.46,115.59l-.84,0-.83.06v-1.14h1.14v0a2.41,2.41,0,0,1-1-1.06,3,3,0,0,1-.34-1.35,3.74,3.74,0,0,1,.06-.65,2.45,2.45,0,0,1,.24-.67,2.34,2.34,0,0,1,.47-.6,2.65,2.65,0,0,1,.78-.47,2.41,2.41,0,0,1-1.13-1,2.79,2.79,0,0,1-.42-1.45,2.73,2.73,0,0,1,.76-2.13,3.12,3.12,0,0,1,2.17-.69h4.75v1.06h-4.37a3.11,3.11,0,0,0-1.74.4,1.63,1.63,0,0,0-.61,1.49,1.82,1.82,0,0,0,.85,1.64,2.84,2.84,0,0,0,.87.36,4.76,4.76,0,0,0,1,.11h4v1h-4.37a3.2,3.2,0,0,0-1.74.4,1.65,1.65,0,0,0-.61,1.49,3.37,3.37,0,0,0,.06.44,1.65,1.65,0,0,0,.36.71,2.55,2.55,0,0,0,.86.67,3.66,3.66,0,0,0,1.6.29h3.84v1.06Z"/></g><line class="cls-3" x1="116.65" y1="72.91" x2="116.65" y2="217.26"/><line class="cls-3" x1="118.22" y1="72.91" x2="114.85" y2="72.91"/><line class="cls-3" x1="118.4" y1="217.26" x2="114.03" y2="217.26"/><g class="cls-2"><path d="M202,107.17v7.2h-1.33l-4.59-4.51-.54-.51a6.62,6.62,0,0,0-.61-.47,3.2,3.2,0,0,0-.67-.33,2.06,2.06,0,0,0-.74-.13,1.84,1.84,0,0,0-.83.17,1.74,1.74,0,0,0-.63.47,2.18,2.18,0,0,0-.39.7,2.65,2.65,0,0,0-.13.85,2.33,2.33,0,0,0,.47,1.47,2.23,2.23,0,0,0,1.3.79l-.13,1.21a3.14,3.14,0,0,1-2-1.16,3.49,3.49,0,0,1-.72-2.23,4.59,4.59,0,0,1,.18-1.3,3.31,3.31,0,0,1,.56-1.09,2.55,2.55,0,0,1,.91-.75,2.79,2.79,0,0,1,1.29-.28,3.29,3.29,0,0,1,1.2.2,4.33,4.33,0,0,1,1,.52,6.85,6.85,0,0,1,.91.72l.85.84,3.53,3.57v-6Z"/><path d="M202,98.27v7.2h-1.33L196.07,101l-.54-.51a6.5,6.5,0,0,0-.61-.46,3.84,3.84,0,0,0-.67-.34,2.3,2.3,0,0,0-.74-.13,2,2,0,0,0-.83.17,1.74,1.74,0,0,0-.63.47,2.23,2.23,0,0,0-.39.71,2.59,2.59,0,0,0-.13.84,2.38,2.38,0,0,0,.47,1.48,2.27,2.27,0,0,0,1.3.78l-.13,1.22a3.18,3.18,0,0,1-2-1.16,3.54,3.54,0,0,1-.72-2.24,4.64,4.64,0,0,1,.18-1.3,3.41,3.41,0,0,1,.56-1.09,2.65,2.65,0,0,1,2.2-1,3.51,3.51,0,0,1,1.2.2,4.74,4.74,0,0,1,1,.52,6.93,6.93,0,0,1,.91.73c.29.27.57.55.85.84l3.53,3.57v-6Z"/><path d="M190.47,92.9a3.24,3.24,0,0,1,.56-2,3.86,3.86,0,0,1,1.42-1.17,6.77,6.77,0,0,1,1.9-.56,14,14,0,0,1,4,0,6.77,6.77,0,0,1,1.9.56,3.86,3.86,0,0,1,1.42,1.17,3.75,3.75,0,0,1,0,3.94A3.74,3.74,0,0,1,200.2,96a6.17,6.17,0,0,1-1.9.56,13.08,13.08,0,0,1-4,0,6.17,6.17,0,0,1-1.9-.56A3.74,3.74,0,0,1,191,94.87,3.24,3.24,0,0,1,190.47,92.9Zm1.06,0a2,2,0,0,0,.49,1.46,3.08,3.08,0,0,0,1.23.81,5.78,5.78,0,0,0,1.57.34c.56,0,1.06.08,1.51.08s.94,0,1.5-.08a5.78,5.78,0,0,0,1.57-.34,3.08,3.08,0,0,0,1.23-.81,2,2,0,0,0,.49-1.46,2.09,2.09,0,0,0-.49-1.47,3.17,3.17,0,0,0-1.23-.8,6.19,6.19,0,0,0-1.57-.35c-.56,0-1.06-.07-1.5-.07s-1,0-1.51.07a6.19,6.19,0,0,0-1.57.35,3.17,3.17,0,0,0-1.23.8A2.09,2.09,0,0,0,191.53,92.9Z"/><path d="M196.17,82.85l-.84,0-.83.06V81.79h1.14v0a2.41,2.41,0,0,1-1-1.06,3,3,0,0,1-.34-1.35,3.74,3.74,0,0,1,.06-.65,2.28,2.28,0,0,1,.24-.66,2,2,0,0,1,.47-.6,2.47,2.47,0,0,1,.78-.48,2.41,2.41,0,0,1-1.13-1,2.79,2.79,0,0,1-.42-1.45,2.73,2.73,0,0,1,.76-2.13,3.12,3.12,0,0,1,2.17-.69H202v1.06h-4.37a3.11,3.11,0,0,0-1.74.4,1.64,1.64,0,0,0-.61,1.49,2,2,0,0,0,.23,1,1.93,1.93,0,0,0,.62.65,2.84,2.84,0,0,0,.87.36,4.74,4.74,0,0,0,1,.11h4v1.05h-4.37a3.2,3.2,0,0,0-1.74.4,1.65,1.65,0,0,0-.61,1.49,3.37,3.37,0,0,0,.06.44,1.65,1.65,0,0,0,.36.71,2.55,2.55,0,0,0,.86.67,3.52,3.52,0,0,0,1.6.29H202v1.06Z"/><path d="M196.17,69.22l-.84,0-.83.06V68.16h1.14v0a2.47,2.47,0,0,1-1-1.06,3,3,0,0,1-.34-1.35,3.74,3.74,0,0,1,.06-.65,2.45,2.45,0,0,1,.24-.67,2.34,2.34,0,0,1,.47-.6,2.65,2.65,0,0,1,.78-.47,2.38,2.38,0,0,1-1.13-1,3.06,3.06,0,0,1,.34-3.57,3.12,3.12,0,0,1,2.17-.69H202v1.06h-4.37a3.11,3.11,0,0,0-1.74.4,1.63,1.63,0,0,0-.61,1.49,1.82,1.82,0,0,0,.85,1.64A2.84,2.84,0,0,0,197,63a4.74,4.74,0,0,0,1,.11h4v1h-4.37a3.2,3.2,0,0,0-1.74.4,1.65,1.65,0,0,0-.61,1.49,3.37,3.37,0,0,0,.06.44,1.65,1.65,0,0,0,.36.71,2.55,2.55,0,0,0,.86.67,3.66,3.66,0,0,0,1.6.29H202v1.06Z"/></g><line class="cls-3" x1="181.51" y1="74.5" x2="181.51" y2="97.38"/><line class="cls-3" x1="183.08" y1="74.5" x2="179.71" y2="74.5"/><line class="cls-3" x1="183.26" y1="97.38" x2="178.89" y2="97.38"/><g class="cls-2"><path d="M121.39,48.44a4,4,0,0,1,.68,1.16,4.44,4.44,0,0,1,0,3,3.73,3.73,0,0,1-2.08,2.07,4.2,4.2,0,0,1-1.61.3,4.15,4.15,0,0,1-1.4-.23,3.72,3.72,0,0,1-1.11-.61l-1.07,1.09-.52-.49,1.06-1.09a3.67,3.67,0,0,1-.69-1.18,4.17,4.17,0,0,1-.24-1.43,4,4,0,0,1,.3-1.57,3.65,3.65,0,0,1,2.08-2.07,4.09,4.09,0,0,1,1.59-.3,4.45,4.45,0,0,1,1.39.22,3.65,3.65,0,0,1,1.15.62l1.06-1.09.51.49Zm-1.25.26a2.66,2.66,0,0,0-1.81-.63,2.8,2.8,0,0,0-1.18.24,2.54,2.54,0,0,0-.88.63,3,3,0,0,0-.56.94,3.46,3.46,0,0,0-.2,1.17,2.92,2.92,0,0,0,.55,1.82Zm-3.6,4.72a2.72,2.72,0,0,0,.8.45,3.11,3.11,0,0,0,1,.16,2.8,2.8,0,0,0,1.18-.24,2.54,2.54,0,0,0,.88-.63,2.64,2.64,0,0,0,.57-.94,3.42,3.42,0,0,0,.2-1.17,3.13,3.13,0,0,0-.54-1.82Z"/><path d="M130.79,48.33h.59a4.28,4.28,0,0,0,1-.11,2.48,2.48,0,0,0,.79-.36,1.92,1.92,0,0,0,.54-.65,2.19,2.19,0,0,0,.19-1,1.82,1.82,0,0,0-.55-1.42,2.23,2.23,0,0,0-1.54-.5,2.52,2.52,0,0,0-1.27.32,2.42,2.42,0,0,0-.89.93l-1-.51a3.49,3.49,0,0,1,1.3-1.36,3.76,3.76,0,0,1,1.84-.44,4,4,0,0,1,1.26.2,2.9,2.9,0,0,1,1,.56,2.71,2.71,0,0,1,.71.93,2.84,2.84,0,0,1,.27,1.26,2.37,2.37,0,0,1-.16.88,2.69,2.69,0,0,1-1,1.33,2.83,2.83,0,0,1-.73.38l.05,0a2.62,2.62,0,0,1,1.56,1,3.2,3.2,0,0,1,.45.86,3.1,3.1,0,0,1,.16,1,3.2,3.2,0,0,1-.29,1.39,3,3,0,0,1-.78,1,3.39,3.39,0,0,1-1.15.63,4.56,4.56,0,0,1-1.4.22,4.24,4.24,0,0,1-2.17-.55,3.29,3.29,0,0,1-1.39-1.74l1.21-.37a2.37,2.37,0,0,0,.86,1.21,2.79,2.79,0,0,0,1.59.39,2.53,2.53,0,0,0,.91-.16,2.34,2.34,0,0,0,.76-.46,1.93,1.93,0,0,0,.51-.71,2.12,2.12,0,0,0,.19-.91,2.21,2.21,0,0,0-.24-1.08,2,2,0,0,0-.64-.71,2.72,2.72,0,0,0-.92-.39,4.83,4.83,0,0,0-1.08-.12h-.5Z"/><path d="M139.5,48.33l0,0a2,2,0,0,1,.73-.29,4.3,4.3,0,0,1,.84-.09,3.58,3.58,0,0,1,1.36.26,3.36,3.36,0,0,1,1.1.73,3.47,3.47,0,0,1,.73,1.1,3.8,3.8,0,0,1,.26,1.41,3.68,3.68,0,0,1-.27,1.43,3.27,3.27,0,0,1-.77,1.1,3.49,3.49,0,0,1-1.17.72,4,4,0,0,1-1.47.26,4.13,4.13,0,0,1-1.47-.26,3.49,3.49,0,0,1-1.17-.72,3.41,3.41,0,0,1-.77-1.1,3.68,3.68,0,0,1-.27-1.43,4.6,4.6,0,0,1,.28-1.65,9.53,9.53,0,0,1,.7-1.39l3.05-5h1.36Zm-1.16,3.15a2.61,2.61,0,0,0,.19,1,2.18,2.18,0,0,0,.52.78,2.13,2.13,0,0,0,.8.5,3,3,0,0,0,2.05,0,2.21,2.21,0,0,0,.8-.5,2.48,2.48,0,0,0,.52-.78,2.61,2.61,0,0,0,.18-1,2.64,2.64,0,0,0-.18-1,2.43,2.43,0,0,0-.52-.77,2.52,2.52,0,0,0-.8-.5,2.86,2.86,0,0,0-2.05,0,2.41,2.41,0,0,0-.8.5,2.14,2.14,0,0,0-.52.77A2.64,2.64,0,0,0,138.34,51.48Z"/><path d="M149.77,43.27a3.24,3.24,0,0,1,2,.56,3.77,3.77,0,0,1,1.16,1.43,6.11,6.11,0,0,1,.56,1.89,13.14,13.14,0,0,1,0,4A6.11,6.11,0,0,1,152.9,53a3.77,3.77,0,0,1-1.16,1.43,3.75,3.75,0,0,1-3.94,0A3.89,3.89,0,0,1,146.63,53a6.7,6.7,0,0,1-.56-1.89,14.07,14.07,0,0,1,0-4,6.7,6.7,0,0,1,.56-1.89,3.89,3.89,0,0,1,1.17-1.43A3.24,3.24,0,0,1,149.77,43.27Zm0,1.06a2.09,2.09,0,0,0-1.47.5,3.17,3.17,0,0,0-.8,1.23,6.09,6.09,0,0,0-.35,1.57c-.05.55-.07,1-.07,1.5s0,.95.07,1.5a6.09,6.09,0,0,0,.35,1.57,3.17,3.17,0,0,0,.8,1.23,2.09,2.09,0,0,0,1.47.5,2.05,2.05,0,0,0,1.46-.5A3.08,3.08,0,0,0,152,52.2a5.7,5.7,0,0,0,.34-1.57c.05-.55.08-1.05.08-1.5s0-1-.08-1.5a5.7,5.7,0,0,0-.34-1.57,3.08,3.08,0,0,0-.81-1.23A2.05,2.05,0,0,0,149.77,44.33Z"/><path d="M159.82,49c0-.28,0-.55,0-.83s0-.56,0-.83h1.13v1.13h0a2.44,2.44,0,0,1,1.07-1,3.07,3.07,0,0,1,1.35-.34,3.9,3.9,0,0,1,.65.07,2.25,2.25,0,0,1,.66.23,2,2,0,0,1,.6.47,2.33,2.33,0,0,1,.47.79,2.56,2.56,0,0,1,1-1.14,3.07,3.07,0,0,1,3.58.34A3.17,3.17,0,0,1,171,50v4.75h-1V50.43a3.26,3.26,0,0,0-.4-1.75,1.67,1.67,0,0,0-1.49-.61,1.87,1.87,0,0,0-1.64.85,2.8,2.8,0,0,0-.36.87,4.9,4.9,0,0,0-.11,1v4h-1.06V50.43a3.17,3.17,0,0,0-.4-1.75,1.65,1.65,0,0,0-1.49-.61l-.44.07a1.67,1.67,0,0,0-.71.35,2.67,2.67,0,0,0-.66.86,3.53,3.53,0,0,0-.3,1.6v3.84h-1.05Z"/><path d="M173.45,49c0-.28,0-.55,0-.83s0-.56,0-.83h1.13v1.13h0a2.41,2.41,0,0,1,1.06-1,3.07,3.07,0,0,1,1.35-.34,3.9,3.9,0,0,1,.65.07,2.25,2.25,0,0,1,.66.23,2,2,0,0,1,.6.47,2.52,2.52,0,0,1,.48.79,2.48,2.48,0,0,1,1-1.14,3.07,3.07,0,0,1,3.58.34,3.12,3.12,0,0,1,.69,2.17v4.75h-1.06V50.43a3.17,3.17,0,0,0-.4-1.75,1.67,1.67,0,0,0-1.49-.61,1.87,1.87,0,0,0-1.64.85,3.07,3.07,0,0,0-.36.87,4.9,4.9,0,0,0-.11,1v4H178.5V50.43a3.17,3.17,0,0,0-.4-1.75,1.65,1.65,0,0,0-1.48-.61,4.26,4.26,0,0,0-.44.07,1.71,1.71,0,0,0-.72.35,2.67,2.67,0,0,0-.66.86,3.53,3.53,0,0,0-.3,1.6v3.84h-1.05Z"/></g><line class="cls-3" x1="172.34" y1="65.16" x2="129.9" y2="65.16"/><line class="cls-3" x1="172.34" y1="66.74" x2="172.34" y2="63.37"/><line class="cls-3" x1="129.9" y1="66.92" x2="129.9" y2="62.55"/><path class="cls-1" d="M154,186.71l13.76-14.12c0-.21-.06-.32-.29-.33l-13,13.38Z"/><path class="cls-1" d="M154,186.71l13.76-14.12c0-.21-.06-.32-.29-.33l-13,13.38Z"/><path class="cls-4" d="M154,186.71l13.76-14.12c0-.21-.06-.32-.29-.33l-13,13.38Z"/><path class="cls-5" d="M160.61,176.78l1-1.58c0,.09-.12.15-.27.15s-.26-.06-.26-.15l-.55.83Z"/><path class="cls-6" d="M160.61,176.78l1-1.58c0,.09-.12.15-.27.15s-.26-.06-.26-.15l-.55.83Z"/><path class="cls-4" d="M153.1,97.59l18.63,113.62s-.07.26.46.26.46-.35.46-.35L154,97.59Z"/><g class="cls-7"><polygon class="cls-1" points="135.82 209.28 148.22 97.25 148.01 97.23 135.62 209.26 135.82 209.28"/><polygon class="cls-1" points="136.02 209.3 148.41 97.28 148.21 97.25 135.81 209.28 136.02 209.3"/><polygon class="cls-1" points="136.21 209.32 148.6 97.29 148.4 97.27 136.01 209.3 136.21 209.32"/><polygon class="cls-1" points="136.41 209.34 148.8 97.31 148.59 97.29 136.2 209.32 136.41 209.34"/><polygon class="cls-1" points="136.6 209.36 148.99 97.33 148.79 97.31 136.4 209.34 136.6 209.36"/><polygon class="cls-1" points="136.79 209.38 149.19 97.35 148.98 97.33 136.59 209.36 136.79 209.38"/><polygon class="cls-1" points="136.99 209.4 149.38 97.37 149.18 97.35 136.78 209.38 136.99 209.4"/><polygon class="cls-1" points="137.18 209.42 149.57 97.39 149.37 97.37 136.98 209.4 137.18 209.42"/><polygon class="cls-1" points="137.38 209.44 149.77 97.41 149.56 97.39 137.17 209.42 137.38 209.44"/><polygon class="cls-1" points="137.57 209.46 149.96 97.43 149.76 97.41 137.37 209.44 137.57 209.46"/><polygon class="cls-1" points="137.76 209.47 150.15 97.45 149.95 97.43 137.56 209.46 137.76 209.47"/><polygon class="cls-1" points="137.96 209.5 150.35 97.47 150.14 97.45 137.75 209.47 137.96 209.5"/><polygon class="cls-1" points="138.04 209.5 150.44 97.47 150.28 97.45 137.88 209.49 138.04 209.5"/><polygon class="cls-1" points="138.22 209.52 150.62 97.49 150.46 97.47 138.06 209.51 138.22 209.52"/><rect class="cls-1" x="88.16" y="153.44" width="112.72" height="0.16" transform="translate(-23.95 280.28) rotate(-83.69)"/><polygon class="cls-1" points="138.59 209.56 150.98 97.53 150.82 97.51 138.43 209.54 138.59 209.56"/><polygon class="cls-1" points="138.77 209.57 151.16 97.54 151 97.53 138.61 209.56 138.77 209.57"/><polygon class="cls-1" points="138.95 209.59 151.34 97.56 151.18 97.55 138.79 209.58 138.95 209.59"/><polygon class="cls-1" points="139.13 209.61 151.52 97.58 151.36 97.56 138.97 209.6 139.13 209.61"/><rect class="cls-1" x="89.07" y="153.53" width="112.71" height="0.16" transform="translate(-23.24 281.26) rotate(-83.69)"/><polygon class="cls-1" points="139.49 209.65 151.88 97.62 151.72 97.6 139.33 209.63 139.49 209.65"/><rect class="cls-1" x="89.43" y="153.56" width="112.72" height="0.16" transform="translate(-22.95 281.65) rotate(-83.69)"/><polygon class="cls-1" points="139.85 209.69 152.24 97.65 152.08 97.64 139.69 209.67 139.85 209.69"/><rect class="cls-1" x="89.79" y="153.6" width="112.71" height="0.16" transform="translate(-22.67 282.04) rotate(-83.69)"/><polygon class="cls-1" points="140.21 209.72 152.6 97.69 152.44 97.67 140.05 209.71 140.21 209.72"/><polygon class="cls-1" points="140.39 209.74 152.78 97.71 152.63 97.69 140.23 209.72 140.39 209.74"/><polygon class="cls-1" points="140.57 209.76 152.96 97.72 152.81 97.71 140.41 209.74 140.57 209.76"/><path class="cls-5" d="M140.62,208.86s.1.26-.43.3-.49-.31-.49-.31-1,0-1,.11-.06,1-.06,1a15.47,15.47,0,0,0,1.18,1.06,7.67,7.67,0,0,0,1.37-.37c0-.08.32-1,.31-1s0-.3-.17-.35a4,4,0,0,1-.75-.47"/><path class="cls-8" d="M140.62,208.86s.1.26-.43.3-.49-.31-.49-.31-1,0-1,.11-.06,1-.06,1a15.47,15.47,0,0,0,1.18,1.06,7.67,7.67,0,0,0,1.37-.37c0-.08.32-1,.31-1s0-.3-.17-.35A4,4,0,0,1,140.62,208.86Z"/></g><path class="cls-1" d="M148.93,97.59l-8.38,112.2s.1.25-.43.3-.49-.31-.49-.31l8.43-112.12Z"/><path class="cls-4" d="M148.93,97.59l-8.38,112.2s.1.25-.43.3-.49-.31-.49-.31l8.43-112.12Z"/><path class="cls-1" d="M154.09,101.88l10,115.45s.13.36-.46.41c0,0-.43.06-.49-.19a1.07,1.07,0,0,1-.05-.25l-10-115.42Z"/><g class="cls-9"><polygon class="cls-1" points="163.3 217.78 148.41 98.41 148.23 98.43 163.12 217.8 163.3 217.78"/><rect class="cls-1" x="155.86" y="97.94" width="0.18" height="120.3" transform="translate(-18.37 20.52) rotate(-7.11)"/><polygon class="cls-1" points="163.67 217.74 148.78 98.37 148.6 98.39 163.49 217.76 163.67 217.74"/><polygon class="cls-1" points="164.04 217.69 149.15 98.32 148.97 98.34 163.86 217.72 164.04 217.69"/><polygon class="cls-1" points="164.22 217.67 149.33 98.3 149.16 98.32 164.04 217.69 164.22 217.67"/><polygon class="cls-1" points="164.41 217.65 149.51 98.28 149.34 98.3 164.23 217.67 164.41 217.65"/><polygon class="cls-1" points="164.59 217.63 149.7 98.26 149.52 98.28 164.41 217.65 164.59 217.63"/><polygon class="cls-1" points="164.78 217.6 149.88 98.23 149.71 98.25 164.6 217.63 164.78 217.6"/><rect class="cls-1" x="157.34" y="97.76" width="0.18" height="120.3" transform="translate(-18.33 20.7) rotate(-7.11)"/><rect class="cls-1" x="157.52" y="97.74" width="0.18" height="120.3" transform="translate(-18.33 20.72) rotate(-7.11)"/><polygon class="cls-1" points="165.33 217.54 150.44 98.17 150.26 98.19 165.15 217.56 165.33 217.54"/><polygon class="cls-1" points="165.51 217.52 150.62 98.14 150.45 98.17 165.34 217.54 165.51 217.52"/><rect class="cls-1" x="158.07" y="97.67" width="0.18" height="120.3" transform="translate(-18.32 20.79) rotate(-7.11)"/><polygon class="cls-1" points="165.88 217.47 150.99 98.1 150.81 98.12 165.71 217.49 165.88 217.47"/><polygon class="cls-1" points="165.98 217.46 151.09 98.09 150.91 98.11 165.8 217.48 165.98 217.46"/><polygon class="cls-1" points="166.17 217.44 151.28 98.06 151.1 98.09 165.99 217.46 166.17 217.44"/><polygon class="cls-1" points="166.36 217.41 151.47 98.04 151.29 98.06 166.18 217.44 166.36 217.41"/><polygon class="cls-1" points="166.55 217.39 151.66 98.02 151.48 98.04 166.37 217.41 166.55 217.39"/><polygon class="cls-1" points="166.74 217.37 151.85 98 151.67 98.02 166.56 217.39 166.74 217.37"/><polygon class="cls-1" points="166.93 217.34 152.03 97.97 151.86 98 166.75 217.37 166.93 217.34"/><rect class="cls-1" x="159.49" y="97.5" width="0.18" height="120.3" transform="translate(-18.29 20.97) rotate(-7.11)"/><rect class="cls-1" x="159.68" y="97.48" width="0.18" height="120.3" transform="translate(-18.28 20.99) rotate(-7.11)"/><rect class="cls-1" x="159.87" y="97.45" width="0.18" height="120.3" transform="translate(-18.28 21.01) rotate(-7.11)"/><polygon class="cls-1" points="167.69 217.25 152.79 97.88 152.62 97.9 167.51 217.28 167.69 217.25"/><polygon class="cls-1" points="167.88 217.23 152.98 97.86 152.81 97.88 167.7 217.25 167.88 217.23"/><polygon class="cls-1" points="168.06 217.21 153.17 97.84 153 97.86 167.89 217.23 168.06 217.21"/><polygon class="cls-1" points="168.25 217.19 153.36 97.81 153.19 97.83 168.08 217.21 168.25 217.19"/><polygon class="cls-1" points="168.44 217.16 153.55 97.79 153.38 97.81 168.27 217.18 168.44 217.16"/><polygon class="cls-1" points="168.63 217.14 153.74 97.77 153.57 97.79 168.46 217.16 168.63 217.14"/><rect class="cls-1" x="161.2" y="97.29" width="0.18" height="120.3" transform="translate(-18.25 21.17) rotate(-7.11)"/><rect class="cls-1" x="161.39" y="97.27" width="0.18" height="120.3" transform="translate(-18.24 21.2) rotate(-7.11)"/><path class="cls-1" d="M162.32,216.87c-.21.27,0,.47.11.8s.89.73,1.24.8,1-.53,1-.53-.17-1.37-.19-1.46-.34-.33-.34-.33l-.07.56s.13.38-.46.43c0,0-.43.06-.49-.2a1.15,1.15,0,0,1-.05-.26l0-.31a2.36,2.36,0,0,0-.67.5"/><path class="cls-4" d="M162.32,216.87c-.21.27,0,.47.11.8s.89.73,1.24.8,1-.53,1-.53-.17-1.37-.19-1.46-.34-.33-.34-.33l-.07.56s.13.38-.46.43c0,0-.43.06-.49-.2a1.15,1.15,0,0,1-.05-.26l0-.31A2.36,2.36,0,0,0,162.32,216.87Z"/></g><path class="cls-4" d="M154.09,97.59l10,119.72s.13.38-.46.43c0,0-.43.06-.49-.2a1.07,1.07,0,0,1-.05-.25l-10-119.7Z"/><path class="cls-1" d="M128.94,210.72s.14.26.42,0l11.28-10.7,9.85-9.89.21.41-10,10.17L129.75,211a1.58,1.58,0,0,1-.93.43Z"/><path class="cls-1" d="M128.94,210.72s.14.26.42,0l11.28-10.7,9.85-9.89.21.41-10,10.17L129.75,211a1.58,1.58,0,0,1-.93.43Z"/><path class="cls-4" d="M128.94,210.72s.14.26.42,0l11.28-10.7,9.85-9.89.21.41-10,10.17L129.75,211a1.58,1.58,0,0,1-.93.43Z"/><path class="cls-4" d="M148.18,97.84,128.25,215.41c0,.17-.27.27-.6.28s-.24-.24-.24-.24L147.35,97.88Z"/><path class="cls-1" d="M149.92,188.66l12.29,24.1a1,1,0,0,0,.7.48l-.11-.83a1.09,1.09,0,0,1-.42-.45l-11.58-22.7Z"/><path class="cls-1" d="M149.92,188.66l12.29,24.1a1,1,0,0,0,.7.48l-.11-.83a1.09,1.09,0,0,1-.42-.45l-11.58-22.7Z"/><path class="cls-4" d="M149.92,188.66l12.29,24.1a1,1,0,0,0,.7.48l-.11-.83a1.09,1.09,0,0,1-.42-.45l-11.58-22.7Z"/><path class="cls-10" d="M133.18,174.64s.06-.14.19-.2.25-.06.27,0-.08.12-.19.19-.24.09-.27,0"/><path class="cls-4" d="M133.47,174.59c.17-.16.15,0,.13-.06l17.19,14.76,10.57,9.43,0,.67-10.89-9.74-17.29-15A.33.33,0,0,0,133.47,174.59Z"/><path class="cls-1" d="M162.63,199.48,171,207a1,1,0,0,0,.54.29.19.19,0,0,1,.26.14.24.24,0,0,1-.11.3,1.16,1.16,0,0,1-.86-.25l-8.19-7.31Z"/><path class="cls-4" d="M162.63,199.48,171,207a1,1,0,0,0,.54.29.19.19,0,0,1,.26.14.24.24,0,0,1-.11.3,1.16,1.16,0,0,1-.86-.25l-8.19-7.31Z"/><path class="cls-1" d="M151.09,190.94c-2.19,3.22-10,14.78-10.14,14.89a.57.57,0,0,1-.57.14.28.28,0,0,1-.12-.39c0-.11.27-.13.27-.13s.53-.68.53-.68l9.75-14.38Z"/><path class="cls-1" d="M151.09,190.94c-2.19,3.22-10,14.78-10.14,14.89a.57.57,0,0,1-.57.14.28.28,0,0,1-.12-.39c0-.11.27-.13.27-.13s.53-.68.53-.68l9.75-14.38Z"/><path class="cls-4" d="M151.09,190.94c-2.19,3.22-10,14.78-10.14,14.89a.57.57,0,0,1-.57.14.28.28,0,0,1-.12-.39c0-.11.27-.13.27-.13s.53-.68.53-.68l9.75-14.38Z"/><path class="cls-1" d="M142.11,172.58c0,.07.11.1.26.13a.26.26,0,0,1,.2.29.3.3,0,0,1-.11.23l7.81,15.24-.82-.71-8.28-15.83s.05-.13.17-.19.22-.08.24,0l.53.88"/><path class="cls-1" d="M142.11,172.58c0,.07.11.1.26.13a.26.26,0,0,1,.2.29.3.3,0,0,1-.11.23l7.81,15.24-.82-.71-8.28-15.83s.05-.13.17-.19.22-.08.24,0l.53.88"/><path class="cls-4" d="M142.11,172.6c0,.08.11.1.26.14s.2.13.2.29a.31.31,0,0,1-.11.24l7.81,15.63-.82-.73-8.28-16.23c0-.05.05-.13.17-.2s.22-.08.24,0Z"/><path class="cls-1" d="M161.1,175.2c0-.08.13-.15.27-.15s.27.07.27.15-.12.15-.27.15-.27-.06-.27-.15"/><path class="cls-4" d="M161.1,175.2c0-.08.13-.15.27-.15s.27.07.27.15-.12.15-.27.15S161.1,175.29,161.1,175.2Z"/><path class="cls-1" d="M153.8,186.69s-.59,1-.56.94l-1.84,1.84-.37-.34c.47-.47,2.6-2.57,2.77-2.44"/><path class="cls-4" d="M153.8,186.69s-.59,1-.56.94l-1.84,1.84-.37-.34C151.5,188.66,153.63,186.56,153.8,186.69Z"/><polygon class="cls-1" points="159.87 178.05 151.81 189.83 151.44 189.5 159.8 177.27 159.87 178.05"/><polygon class="cls-4" points="159.87 178.05 151.81 189.83 151.44 189.5 159.8 177.27 159.87 178.05"/><path class="cls-8" d="M141.58,171.7l.78,1.35"/><rect class="cls-11" x="129.9" y="74.45" width="42.68" height="23.39"/></svg>