<svg xmlns="http://www.w3.org/2000/svg" viewBox="0 0 300 263"><defs><style>.cls-1,.cls-2,.cls-3,.cls-4{fill:none;stroke-linecap:round;}.cls-1,.cls-2{stroke:red;}.cls-1,.cls-2,.cls-4{stroke-linejoin:round;}.cls-1,.cls-3,.cls-4{stroke-width:0.6px;}.cls-3,.cls-4{stroke:#000;}.cls-3{stroke-miterlimit:10;}</style></defs><title>ray-floor-2-dordoni-flos-F5920020-spech-tech-02-300x263</title><g id="numeri_esterni_diagramma" data-name="numeri esterni diagramma"><path d="M148.27,239.2a6.85,6.85,0,0,1,.08-1,3.41,3.41,0,0,1,.3-.95,1.94,1.94,0,0,1,.59-.71,1.57,1.57,0,0,1,.95-.27,1.6,1.6,0,0,1,1,.27,2,2,0,0,1,.59.71,3.1,3.1,0,0,1,.29.95,5.7,5.7,0,0,1,.08,1,5.85,5.85,0,0,1-.08,1,3.13,3.13,0,0,1-.29.94,2,2,0,0,1-.59.71,1.6,1.6,0,0,1-1,.27,1.57,1.57,0,0,1-.95-.27,1.94,1.94,0,0,1-.59-.71,3.45,3.45,0,0,1-.3-.94A7.07,7.07,0,0,1,148.27,239.2Zm.68,0c0,.13,0,.29,0,.46a4.88,4.88,0,0,0,.06.52,2.83,2.83,0,0,0,.13.5,1.65,1.65,0,0,0,.22.44,1.24,1.24,0,0,0,.34.31,1,1,0,0,0,.48.12.9.9,0,0,0,.48-.12,1,1,0,0,0,.34-.31,1.41,1.41,0,0,0,.23-.44,4.07,4.07,0,0,0,.13-.5c0-.18,0-.35.06-.52s0-.33,0-.46,0-.3,0-.47,0-.34-.06-.51a3.8,3.8,0,0,0-.13-.51,1.53,1.53,0,0,0-.23-.44,1,1,0,0,0-.34-.31.9.9,0,0,0-.48-.12,1,1,0,0,0-.48.12,1.24,1.24,0,0,0-.34.31,1.81,1.81,0,0,0-.22.44,2.72,2.72,0,0,0-.13.51,4.43,4.43,0,0,0-.06.51C149,238.9,149,239.06,149,239.2Z"/><path d="M152.83,237.41a1.33,1.33,0,0,1,.08-.45,1.11,1.11,0,0,1,.25-.36,1,1,0,0,1,.36-.24,1.17,1.17,0,0,1,.9,0,1,1,0,0,1,.36.24,1.11,1.11,0,0,1,.25.36,1.31,1.31,0,0,1,0,.9,1.23,1.23,0,0,1-.61.61,1.17,1.17,0,0,1-.9,0,1.23,1.23,0,0,1-.61-.61A1.33,1.33,0,0,1,152.83,237.41Zm.43,0a.79.79,0,0,0,.05.25.68.68,0,0,0,.14.23.66.66,0,0,0,.23.17.73.73,0,0,0,.58,0,.76.76,0,0,0,.23-.17.88.88,0,0,0,.14-.23.65.65,0,0,0,0-.5,1.09,1.09,0,0,0-.14-.23,1,1,0,0,0-.23-.17.73.73,0,0,0-.58,0,.81.81,0,0,0-.23.17.75.75,0,0,0-.19.48Z"/><path d="M203.17,238.76h.21l.43,0a1.15,1.15,0,0,0,.42-.13.77.77,0,0,0,.31-.31.94.94,0,0,0,.13-.51.87.87,0,0,0-.27-.68,1,1,0,0,0-.7-.26,1.28,1.28,0,0,0-.63.16,1.14,1.14,0,0,0-.41.48l-.65-.25a1.48,1.48,0,0,1,.65-.72,2.07,2.07,0,0,1,1-.24,2.25,2.25,0,0,1,.64.09,1.72,1.72,0,0,1,.54.28,1.37,1.37,0,0,1,.37.46,1.48,1.48,0,0,1,.14.65,1.29,1.29,0,0,1-.27.8,1.34,1.34,0,0,1-.7.49v0a1.48,1.48,0,0,1,.85.49,1.37,1.37,0,0,1,.23.43,1.69,1.69,0,0,1,.08.5,1.66,1.66,0,0,1-.15.72,1.57,1.57,0,0,1-.41.51,1.71,1.71,0,0,1-.6.31,2.34,2.34,0,0,1-.71.1,2.18,2.18,0,0,1-1.13-.28,1.61,1.61,0,0,1-.7-.91l.68-.22a1.33,1.33,0,0,0,.41.65,1.3,1.3,0,0,0,.74.19,1.33,1.33,0,0,0,.45-.08,1.11,1.11,0,0,0,.36-.23,1.24,1.24,0,0,0,.25-.35,1.13,1.13,0,0,0,.09-.45,1.07,1.07,0,0,0-.12-.53,1,1,0,0,0-.33-.33,1.23,1.23,0,0,0-.46-.18,2.31,2.31,0,0,0-.52-.06h-.21Z"/><path d="M206.24,239.2a6.85,6.85,0,0,1,.08-1,3.11,3.11,0,0,1,.3-.95,1.94,1.94,0,0,1,.59-.71,1.55,1.55,0,0,1,.95-.27,1.6,1.6,0,0,1,1,.27,2,2,0,0,1,.59.71,3.1,3.1,0,0,1,.29.95,5.7,5.7,0,0,1,.08,1,5.85,5.85,0,0,1-.08,1,3.13,3.13,0,0,1-.29.94,2,2,0,0,1-.59.71,1.6,1.6,0,0,1-1,.27,1.55,1.55,0,0,1-.95-.27,1.94,1.94,0,0,1-.59-.71,3.14,3.14,0,0,1-.3-.94A7.07,7.07,0,0,1,206.24,239.2Zm.67,0c0,.13,0,.29,0,.46a4.88,4.88,0,0,0,.06.52,2.83,2.83,0,0,0,.13.5,1.4,1.4,0,0,0,.22.44,1.24,1.24,0,0,0,.34.31,1,1,0,0,0,.48.12.9.9,0,0,0,.48-.12,1,1,0,0,0,.34-.31,1.41,1.41,0,0,0,.23-.44,4.05,4.05,0,0,0,.12-.5,4.88,4.88,0,0,0,.06-.52,3.86,3.86,0,0,0,0-.46,3.94,3.94,0,0,0,0-.47,4.43,4.43,0,0,0-.06-.51,3.81,3.81,0,0,0-.12-.51,1.53,1.53,0,0,0-.23-.44,1,1,0,0,0-.34-.31.9.9,0,0,0-.48-.12,1,1,0,0,0-.48.12,1.24,1.24,0,0,0-.34.31,1.51,1.51,0,0,0-.22.44,2.72,2.72,0,0,0-.13.51,4.43,4.43,0,0,0-.06.51C206.92,238.9,206.91,239.06,206.91,239.2Z"/><path d="M210.84,237.41a1.13,1.13,0,0,1,.09-.45,1.26,1.26,0,0,1,.24-.36,1.2,1.2,0,0,1,.82-.33,1,1,0,0,1,.44.09,1.12,1.12,0,0,1,.37.24,1.26,1.26,0,0,1,.24.36,1.16,1.16,0,0,1-.24,1.26,1.15,1.15,0,0,1-.37.25,1,1,0,0,1-.44.09,1.13,1.13,0,0,1-.45-.09,1.15,1.15,0,0,1-.37-.25,1.15,1.15,0,0,1-.33-.81Zm.43,0a.61.61,0,0,0,.06.25.68.68,0,0,0,.14.23.72.72,0,0,0,.22.17.73.73,0,0,0,.3.06.72.72,0,0,0,.29-.06.62.62,0,0,0,.22-.17.91.91,0,0,0,.15-.23.65.65,0,0,0,0-.5,1.14,1.14,0,0,0-.15-.23.76.76,0,0,0-.22-.17.72.72,0,0,0-.29-.06.73.73,0,0,0-.3.06.92.92,0,0,0-.22.17.79.79,0,0,0-.14.23A.61.61,0,0,0,211.27,237.41Z"/><path d="M93.6,238.76h.21l.44,0a1.1,1.1,0,0,0,.41-.13.86.86,0,0,0,.32-.31.94.94,0,0,0,.12-.51.87.87,0,0,0-.27-.68,1,1,0,0,0-.7-.26,1.21,1.21,0,0,0-.62.16,1.1,1.1,0,0,0-.42.48l-.65-.25a1.45,1.45,0,0,1,.66-.72,2,2,0,0,1,1-.24,2.32,2.32,0,0,1,.65.09,2,2,0,0,1,.54.28,1.67,1.67,0,0,1,.37.46,1.48,1.48,0,0,1,.13.65,1.29,1.29,0,0,1-.27.8,1.34,1.34,0,0,1-.7.49v0a1.31,1.31,0,0,1,.49.18,1.34,1.34,0,0,1,.36.31,1.37,1.37,0,0,1,.23.43,1.42,1.42,0,0,1,.08.5,1.66,1.66,0,0,1-.15.72,1.57,1.57,0,0,1-.41.51,1.75,1.75,0,0,1-.59.31,2.46,2.46,0,0,1-.72.1,2.18,2.18,0,0,1-1.13-.28,1.56,1.56,0,0,1-.69-.91l.68-.22a1.2,1.2,0,0,0,.41.65,1.27,1.27,0,0,0,.73.19,1.33,1.33,0,0,0,.45-.08,1.11,1.11,0,0,0,.36-.23,1.07,1.07,0,0,0,.25-.35,1.13,1.13,0,0,0,.09-.45,1.07,1.07,0,0,0-.12-.53.87.87,0,0,0-.33-.33,1.17,1.17,0,0,0-.46-.18,2.24,2.24,0,0,0-.52-.06H93.6Z"/><path d="M96.68,239.2a5.7,5.7,0,0,1,.08-1,3.1,3.1,0,0,1,.29-.95,2,2,0,0,1,.59-.71,1.6,1.6,0,0,1,1-.27,1.57,1.57,0,0,1,1,.27,1.94,1.94,0,0,1,.59.71,3.41,3.41,0,0,1,.3.95,6.85,6.85,0,0,1,.08,1,7.07,7.07,0,0,1-.08,1,3.45,3.45,0,0,1-.3.94,1.94,1.94,0,0,1-.59.71,1.57,1.57,0,0,1-1,.27,1.6,1.6,0,0,1-1-.27,2,2,0,0,1-.59-.71,3.13,3.13,0,0,1-.29-.94A5.85,5.85,0,0,1,96.68,239.2Zm.67,0c0,.13,0,.29,0,.46a4.88,4.88,0,0,0,.06.52,4.07,4.07,0,0,0,.13.5,1.41,1.41,0,0,0,.23.44,1,1,0,0,0,.34.31.9.9,0,0,0,.48.12,1,1,0,0,0,.48-.12,1.24,1.24,0,0,0,.34-.31,1.65,1.65,0,0,0,.22-.44,2.83,2.83,0,0,0,.13-.5,4.88,4.88,0,0,0,.06-.52c0-.17,0-.33,0-.46s0-.3,0-.47a4.43,4.43,0,0,0-.06-.51,2.72,2.72,0,0,0-.13-.51,1.81,1.81,0,0,0-.22-.44,1.24,1.24,0,0,0-.34-.31,1,1,0,0,0-.48-.12.9.9,0,0,0-.48.12,1,1,0,0,0-.34.31,1.53,1.53,0,0,0-.23.44,3.8,3.8,0,0,0-.13.51,4.43,4.43,0,0,0-.06.51C97.35,238.9,97.35,239.06,97.35,239.2Z"/><path d="M101.28,237.41a1.33,1.33,0,0,1,.08-.45,1.11,1.11,0,0,1,.25-.36,1,1,0,0,1,.36-.24,1.17,1.17,0,0,1,.9,0,1,1,0,0,1,.36.24,1.11,1.11,0,0,1,.25.36,1.31,1.31,0,0,1,0,.9,1.23,1.23,0,0,1-.61.61,1.17,1.17,0,0,1-.9,0,1.23,1.23,0,0,1-.61-.61A1.33,1.33,0,0,1,101.28,237.41Zm.43,0a.79.79,0,0,0,.05.25.68.68,0,0,0,.14.23.76.76,0,0,0,.23.17.73.73,0,0,0,.58,0,.66.66,0,0,0,.23-.17.68.68,0,0,0,.14-.23.71.71,0,0,0-.14-.73.81.81,0,0,0-.23-.17.73.73,0,0,0-.58,0,1,1,0,0,0-.23.17.75.75,0,0,0-.19.48Z"/><path d="M249.93,137.18h0a1.24,1.24,0,0,1-.37.12,1.84,1.84,0,0,1-.39,0,1.91,1.91,0,0,1-.68-.12,1.58,1.58,0,0,1-.54-.37,1.63,1.63,0,0,1-.36-.56,2.05,2.05,0,0,1-.13-.72,1.79,1.79,0,0,1,.15-.75,1.48,1.48,0,0,1,.4-.55,1.79,1.79,0,0,1,.6-.35,2,2,0,0,1,.75-.13,2.11,2.11,0,0,1,.75.13,1.79,1.79,0,0,1,.6.35,1.59,1.59,0,0,1,.4.55,1.79,1.79,0,0,1,.14.75,2.15,2.15,0,0,1,0,.45,1.68,1.68,0,0,1-.11.4,2.59,2.59,0,0,1-.17.38l-.21.36-1.51,2.39h-.78Zm-.59-.42a1.28,1.28,0,0,0,.48-.09,1,1,0,0,0,.39-.24,1.23,1.23,0,0,0,.26-.37,1.43,1.43,0,0,0,0-1,1.1,1.1,0,0,0-.65-.62,1.48,1.48,0,0,0-1,0,1.28,1.28,0,0,0-.39.24,1.12,1.12,0,0,0-.26.38,1.3,1.3,0,0,0,0,1,1.08,1.08,0,0,0,.26.37,1,1,0,0,0,.39.24A1.28,1.28,0,0,0,249.34,136.76Z"/><path d="M251.82,136.71a7.07,7.07,0,0,1,.08-1,3.19,3.19,0,0,1,.29-1,2,2,0,0,1,.59-.7,1.54,1.54,0,0,1,1-.28,1.49,1.49,0,0,1,.95.28,1.91,1.91,0,0,1,.59.7,2.94,2.94,0,0,1,.3,1,6.29,6.29,0,0,1,0,2,2.94,2.94,0,0,1-.3.95,1.91,1.91,0,0,1-.59.7,1.49,1.49,0,0,1-.95.28,1.54,1.54,0,0,1-1-.28,2,2,0,0,1-.59-.7,3.19,3.19,0,0,1-.29-.95A7.07,7.07,0,0,1,251.82,136.71Zm.67,0c0,.14,0,.29,0,.46a4.6,4.6,0,0,0,.06.52,4.7,4.7,0,0,0,.12.51,2,2,0,0,0,.23.44,1,1,0,0,0,.34.31,1,1,0,0,0,.48.11,1.06,1.06,0,0,0,.48-.11,1.24,1.24,0,0,0,.34-.31,1.65,1.65,0,0,0,.22-.44,3.18,3.18,0,0,0,.13-.51,4.6,4.6,0,0,0,.06-.52c0-.17,0-.32,0-.46s0-.29,0-.46a4.6,4.6,0,0,0-.06-.52,3.18,3.18,0,0,0-.13-.51,1.65,1.65,0,0,0-.22-.44,1.24,1.24,0,0,0-.34-.31,1.06,1.06,0,0,0-.48-.11,1,1,0,0,0-.48.11,1,1,0,0,0-.34.31,2,2,0,0,0-.23.44,4.7,4.7,0,0,0-.12.51,4.6,4.6,0,0,0-.06.52C252.5,136.42,252.49,136.57,252.49,136.71Z"/><path d="M256.42,134.93a1.13,1.13,0,0,1,.09-.45,1.31,1.31,0,0,1,.24-.37,1.18,1.18,0,0,1,.37-.24,1,1,0,0,1,.44-.09,1.13,1.13,0,0,1,.45.09,1.06,1.06,0,0,1,.61.61,1.13,1.13,0,0,1,.09.45,1,1,0,0,1-.09.44,1.06,1.06,0,0,1-.61.61,1.13,1.13,0,0,1-.45.09,1,1,0,0,1-.44-.09,1.18,1.18,0,0,1-.37-.24,1.31,1.31,0,0,1-.24-.37A1,1,0,0,1,256.42,134.93Zm.43,0a.69.69,0,0,0,0,.24,1,1,0,0,0,.15.24.73.73,0,0,0,.51.23.54.54,0,0,0,.29-.07.63.63,0,0,0,.23-.16.72.72,0,0,0,.14-.24.52.52,0,0,0,0-.24.56.56,0,0,0,0-.25.59.59,0,0,0-.14-.23.74.74,0,0,0-.52-.24.73.73,0,0,0-.29.07.62.62,0,0,0-.22.17.76.76,0,0,0-.15.23A.74.74,0,0,0,256.85,134.93Z"/><path d="M41.57,137.18h0a1.34,1.34,0,0,1-.37.12,2,2,0,0,1-.39,0,1.92,1.92,0,0,1-.69-.12,1.58,1.58,0,0,1-.54-.37,1.8,1.8,0,0,1-.36-.56,2.05,2.05,0,0,1-.13-.72,1.79,1.79,0,0,1,.15-.75,1.48,1.48,0,0,1,.4-.55,1.79,1.79,0,0,1,.6-.35,2.23,2.23,0,0,1,1.5,0,1.79,1.79,0,0,1,.6.35,1.48,1.48,0,0,1,.4.55,1.79,1.79,0,0,1,.15.75,3.14,3.14,0,0,1,0,.45,2.34,2.34,0,0,1-.12.4,1.84,1.84,0,0,1-.17.38,3.35,3.35,0,0,1-.21.36l-1.5,2.39h-.79Zm-.59-.42a1.28,1.28,0,0,0,.48-.09,1,1,0,0,0,.39-.24,1.23,1.23,0,0,0,.26-.37,1.3,1.3,0,0,0,0-1,1.1,1.1,0,0,0-.65-.62,1.48,1.48,0,0,0-1,0,1.1,1.1,0,0,0-.65.62,1.43,1.43,0,0,0,0,1,1.23,1.23,0,0,0,.26.37,1,1,0,0,0,.39.24A1.28,1.28,0,0,0,41,136.76Z"/><path d="M43.46,136.71a7.07,7.07,0,0,1,.08-1,2.94,2.94,0,0,1,.3-1,1.91,1.91,0,0,1,.59-.7,1.49,1.49,0,0,1,1-.28,1.54,1.54,0,0,1,1,.28,2,2,0,0,1,.59.7,3.19,3.19,0,0,1,.29,1,6.29,6.29,0,0,1,0,2,3.19,3.19,0,0,1-.29.95,2,2,0,0,1-.59.7,1.54,1.54,0,0,1-1,.28,1.49,1.49,0,0,1-1-.28,1.91,1.91,0,0,1-.59-.7,2.94,2.94,0,0,1-.3-.95A7.07,7.07,0,0,1,43.46,136.71Zm.67,0c0,.14,0,.29,0,.46a4.6,4.6,0,0,0,.06.52,3.18,3.18,0,0,0,.13.51,1.65,1.65,0,0,0,.22.44,1.12,1.12,0,0,0,.34.31,1.1,1.1,0,0,0,1,0,1.12,1.12,0,0,0,.34-.31,2,2,0,0,0,.23-.44,4.7,4.7,0,0,0,.12-.51,4.6,4.6,0,0,0,.06-.52c0-.17,0-.32,0-.46s0-.29,0-.46a4.6,4.6,0,0,0-.06-.52,4.7,4.7,0,0,0-.12-.51,2,2,0,0,0-.23-.44,1.12,1.12,0,0,0-.34-.31,1.1,1.1,0,0,0-1,0,1.12,1.12,0,0,0-.34.31,1.65,1.65,0,0,0-.22.44,3.18,3.18,0,0,0-.13.51,4.6,4.6,0,0,0-.06.52C44.14,136.42,44.13,136.57,44.13,136.71Z"/><path d="M48.06,134.93a1.13,1.13,0,0,1,.09-.45,1.06,1.06,0,0,1,.61-.61,1.13,1.13,0,0,1,.45-.09,1.08,1.08,0,0,1,.44.09,1.06,1.06,0,0,1,.61.61,1.13,1.13,0,0,1,.09.45,1,1,0,0,1-.09.44,1.06,1.06,0,0,1-.61.61,1.08,1.08,0,0,1-.44.09,1.13,1.13,0,0,1-.45-.09,1.06,1.06,0,0,1-.61-.61A1,1,0,0,1,48.06,134.93Zm.43,0a.53.53,0,0,0,.06.24.72.72,0,0,0,.14.24.69.69,0,0,0,.22.16.6.6,0,0,0,.3.07.73.73,0,0,0,.51-.23,1,1,0,0,0,.15-.24.69.69,0,0,0,.05-.24.74.74,0,0,0-.05-.25.76.76,0,0,0-.15-.23.62.62,0,0,0-.22-.17.73.73,0,0,0-.29-.07.73.73,0,0,0-.3.07.72.72,0,0,0-.22.17.59.59,0,0,0-.14.23A.57.57,0,0,0,48.49,134.93Z"/><path d="M148.37,38.51h-.68v-4.8h0l-1,.85-.4-.48,1.52-1.24h.59Z"/><path d="M150.49,34.23a1.48,1.48,0,0,1,.13-.61,1.2,1.2,0,0,1,.34-.46,1.44,1.44,0,0,1,.51-.3,1.92,1.92,0,0,1,1.28,0,1.44,1.44,0,0,1,.51.3,1.2,1.2,0,0,1,.34.46,1.33,1.33,0,0,1,.13.61,1.16,1.16,0,0,1-.07.4,1.41,1.41,0,0,1-.18.37,1.33,1.33,0,0,1-.29.29,1.18,1.18,0,0,1-.39.19h0a1.44,1.44,0,0,1,.46.19,1.35,1.35,0,0,1,.35.32,1.42,1.42,0,0,1,.23.44,1.7,1.7,0,0,1,.08.51,1.74,1.74,0,0,1-.14.69,1.43,1.43,0,0,1-.39.52,1.47,1.47,0,0,1-.57.33,2.35,2.35,0,0,1-1.42,0,1.47,1.47,0,0,1-.57-.33,1.55,1.55,0,0,1-.39-.52,1.74,1.74,0,0,1-.14-.69,1.7,1.7,0,0,1,.08-.51,1.67,1.67,0,0,1,.23-.44,1.35,1.35,0,0,1,.35-.32,1.44,1.44,0,0,1,.46-.19h0a1.18,1.18,0,0,1-.39-.19,1.33,1.33,0,0,1-.29-.29,1.41,1.41,0,0,1-.18-.37A1.46,1.46,0,0,1,150.49,34.23ZM151,36.9a1.18,1.18,0,0,0,.09.46,1.07,1.07,0,0,0,.25.35,1,1,0,0,0,.36.23,1.12,1.12,0,0,0,.88,0,1,1,0,0,0,.36-.23,1.07,1.07,0,0,0,.25-.35,1.18,1.18,0,0,0,.09-.46,1.14,1.14,0,0,0-.09-.46,1.13,1.13,0,0,0-.61-.58,1.12,1.12,0,0,0-.88,0,1.13,1.13,0,0,0-.61.58A1.14,1.14,0,0,0,151,36.9Zm.2-2.64a.88.88,0,0,0,.26.67,1,1,0,0,0,1.36,0,1,1,0,0,0,0-1.34,1,1,0,0,0-1.36,0A.88.88,0,0,0,151.17,34.26Z"/><path d="M154.64,35.68a7,7,0,0,1,.08-1,3.1,3.1,0,0,1,.29-1,2,2,0,0,1,.59-.71,1.6,1.6,0,0,1,1-.27,1.55,1.55,0,0,1,.95.27,1.94,1.94,0,0,1,.59.71,2.86,2.86,0,0,1,.3,1,7,7,0,0,1,.08,1,7.07,7.07,0,0,1-.08,1,2.88,2.88,0,0,1-.3.94,1.94,1.94,0,0,1-.59.71,1.55,1.55,0,0,1-.95.27,1.6,1.6,0,0,1-1-.27,2,2,0,0,1-.59-.71,3.13,3.13,0,0,1-.29-.94A7.07,7.07,0,0,1,154.64,35.68Zm.67,0c0,.13,0,.29,0,.46a4.88,4.88,0,0,0,.06.52,4.05,4.05,0,0,0,.12.5,1.66,1.66,0,0,0,.23.44,1.12,1.12,0,0,0,.34.31,1,1,0,0,0,1,0,1.12,1.12,0,0,0,.34-.31,1.4,1.4,0,0,0,.22-.44,2.83,2.83,0,0,0,.13-.5,4.88,4.88,0,0,0,.06-.52c0-.17,0-.33,0-.46s0-.3,0-.47a4.43,4.43,0,0,0-.06-.51,2.72,2.72,0,0,0-.13-.51,1.51,1.51,0,0,0-.22-.44,1.12,1.12,0,0,0-.34-.31,1,1,0,0,0-1,0,1.12,1.12,0,0,0-.34.31,1.83,1.83,0,0,0-.23.44,3.81,3.81,0,0,0-.12.51,4.43,4.43,0,0,0-.06.51C155.32,35.38,155.31,35.54,155.31,35.68Z"/><path d="M159.24,33.89a1.15,1.15,0,0,1,.33-.81,1,1,0,0,1,.37-.24,1,1,0,0,1,.44-.09,1.15,1.15,0,0,1,.82,2,1.15,1.15,0,0,1-.37.25,1.13,1.13,0,0,1-.45.09,1.15,1.15,0,0,1-.81-.34,1.15,1.15,0,0,1-.33-.81Zm.43,0a.79.79,0,0,0,.05.25,1.14,1.14,0,0,0,.15.23.62.62,0,0,0,.22.17.72.72,0,0,0,.29.06.68.68,0,0,0,.52-.23.79.79,0,0,0,.14-.23.65.65,0,0,0,0-.5.79.79,0,0,0-.14-.23.81.81,0,0,0-.23-.17.65.65,0,0,0-.29-.06.72.72,0,0,0-.29.06.76.76,0,0,0-.22.17,1.14,1.14,0,0,0-.15.23A.79.79,0,0,0,159.67,33.89Z"/><path d="M203.18,38.51h-.68v-4.8h0l-1,.85-.4-.48,1.52-1.24h.59Z"/><path d="M208.49,33.47h-2.31l0,1.53a1.08,1.08,0,0,1,.36-.11l.37,0a2,2,0,0,1,.74.14,1.61,1.61,0,0,1,.57.39,1.9,1.9,0,0,1,.37.59,2,2,0,0,1,.13.74,2,2,0,0,1-.15.78,1.74,1.74,0,0,1-.41.59,1.91,1.91,0,0,1-.61.38,2.2,2.2,0,0,1-.78.13,1.73,1.73,0,0,1-1-.28,2,2,0,0,1-.63-.75l.67-.25a1.31,1.31,0,0,0,.42.51,1.1,1.1,0,0,0,.64.2,1.28,1.28,0,0,0,.48-.09,1.26,1.26,0,0,0,.38-.27,1.15,1.15,0,0,0,.26-.41,1.53,1.53,0,0,0,.1-.54,1.38,1.38,0,0,0-.11-.55,1.08,1.08,0,0,0-.3-.4,1.26,1.26,0,0,0-.44-.25,1.67,1.67,0,0,0-.55-.08,1.84,1.84,0,0,0-.6.1,2.58,2.58,0,0,0-.56.25l.06-2.95h3Z"/><path d="M209.45,35.68a7,7,0,0,1,.08-1,3.1,3.1,0,0,1,.29-1,2,2,0,0,1,.59-.71,1.6,1.6,0,0,1,1-.27,1.55,1.55,0,0,1,.95.27,1.94,1.94,0,0,1,.59.71,2.86,2.86,0,0,1,.3,1,7,7,0,0,1,.08,1,7.07,7.07,0,0,1-.08,1,2.88,2.88,0,0,1-.3.94,1.94,1.94,0,0,1-.59.71,1.55,1.55,0,0,1-.95.27,1.6,1.6,0,0,1-1-.27,2,2,0,0,1-.59-.71,3.13,3.13,0,0,1-.29-.94A7.07,7.07,0,0,1,209.45,35.68Zm.67,0c0,.13,0,.29,0,.46a4.88,4.88,0,0,0,.06.52,4.05,4.05,0,0,0,.12.5,1.66,1.66,0,0,0,.23.44,1,1,0,0,0,.34.31.9.9,0,0,0,.48.12,1,1,0,0,0,.48-.12,1.24,1.24,0,0,0,.34-.31,1.4,1.4,0,0,0,.22-.44,2.83,2.83,0,0,0,.13-.5,4.88,4.88,0,0,0,.06-.52c0-.17,0-.33,0-.46s0-.3,0-.47a4.43,4.43,0,0,0-.06-.51,2.72,2.72,0,0,0-.13-.51,1.51,1.51,0,0,0-.22-.44,1.24,1.24,0,0,0-.34-.31,1,1,0,0,0-.48-.12.9.9,0,0,0-.48.12,1,1,0,0,0-.34.31,1.83,1.83,0,0,0-.23.44,3.81,3.81,0,0,0-.12.51,4.43,4.43,0,0,0-.06.51C210.13,35.38,210.12,35.54,210.12,35.68Z"/><path d="M214.05,33.89a1.15,1.15,0,0,1,.33-.81,1,1,0,0,1,.37-.24,1,1,0,0,1,.44-.09,1.13,1.13,0,0,1,.45.09,1,1,0,0,1,.36.24,1,1,0,0,1,.25.36,1.17,1.17,0,0,1,0,.9,1.23,1.23,0,0,1-.61.61,1.13,1.13,0,0,1-.45.09,1.15,1.15,0,0,1-.81-.34,1.15,1.15,0,0,1-.33-.81Zm.43,0a.79.79,0,0,0,.05.25,1.14,1.14,0,0,0,.15.23.62.62,0,0,0,.22.17.72.72,0,0,0,.29.06.68.68,0,0,0,.52-.23.79.79,0,0,0,.14-.23.65.65,0,0,0,0-.5.79.79,0,0,0-.14-.23.81.81,0,0,0-.23-.17.65.65,0,0,0-.29-.06.72.72,0,0,0-.29.06.76.76,0,0,0-.22.17,1.14,1.14,0,0,0-.15.23A.79.79,0,0,0,214.48,33.89Z"/><path d="M93.61,38.51h-.67v-4.8h0l-1,.85-.4-.48L93,32.84h.58Z"/><path d="M98.92,33.47H96.61l0,1.53a1,1,0,0,1,.35-.11l.37,0a1.91,1.91,0,0,1,.74.14,1.65,1.65,0,0,1,.58.39A1.71,1.71,0,0,1,99,36a2,2,0,0,1,.13.74,2,2,0,0,1-.15.78,1.71,1.71,0,0,1-.4.59,2,2,0,0,1-.62.38,2.15,2.15,0,0,1-.77.13,1.78,1.78,0,0,1-1.05-.28,1.85,1.85,0,0,1-.62-.75l.67-.25a1.16,1.16,0,0,0,.42.51,1.05,1.05,0,0,0,.63.2,1.28,1.28,0,0,0,.48-.09,1.23,1.23,0,0,0,.64-.68,1.33,1.33,0,0,0,.1-.54,1.38,1.38,0,0,0-.11-.55,1.18,1.18,0,0,0-.29-.4,1.41,1.41,0,0,0-.45-.25,1.63,1.63,0,0,0-.55-.08,1.78,1.78,0,0,0-.59.1,2.58,2.58,0,0,0-.56.25l0-2.95h3Z"/><path d="M99.88,35.68a7,7,0,0,1,.08-1,3.11,3.11,0,0,1,.3-1,1.94,1.94,0,0,1,.59-.71,1.55,1.55,0,0,1,1-.27,1.6,1.6,0,0,1,1,.27,2,2,0,0,1,.59.71,3.1,3.1,0,0,1,.29,1,5.77,5.77,0,0,1,.08,1,5.85,5.85,0,0,1-.08,1,3.13,3.13,0,0,1-.29.94,2,2,0,0,1-.59.71,1.6,1.6,0,0,1-1,.27,1.55,1.55,0,0,1-1-.27,1.94,1.94,0,0,1-.59-.71,3.14,3.14,0,0,1-.3-.94A7.07,7.07,0,0,1,99.88,35.68Zm.67,0c0,.13,0,.29,0,.46a4.88,4.88,0,0,0,.06.52,2.83,2.83,0,0,0,.13.5,1.4,1.4,0,0,0,.22.44,1.24,1.24,0,0,0,.34.31,1,1,0,0,0,.48.12.9.9,0,0,0,.48-.12,1,1,0,0,0,.34-.31,1.41,1.41,0,0,0,.23-.44,4.05,4.05,0,0,0,.12-.5,4.88,4.88,0,0,0,.06-.52c0-.17,0-.33,0-.46s0-.3,0-.47a4.43,4.43,0,0,0-.06-.51,3.81,3.81,0,0,0-.12-.51,1.53,1.53,0,0,0-.23-.44,1,1,0,0,0-.34-.31.9.9,0,0,0-.48-.12,1,1,0,0,0-.48.12,1.24,1.24,0,0,0-.34.31,1.51,1.51,0,0,0-.22.44,2.72,2.72,0,0,0-.13.51,4.43,4.43,0,0,0-.06.51C100.56,35.38,100.55,35.54,100.55,35.68Z"/><path d="M104.48,33.89a1.15,1.15,0,0,1,1.15-1.14,1,1,0,0,1,.44.09,1.12,1.12,0,0,1,.37.24,1.16,1.16,0,0,1,0,1.62,1.15,1.15,0,0,1-.37.25,1,1,0,0,1-.44.09,1.13,1.13,0,0,1-.45-.09,1.15,1.15,0,0,1-.37-.25,1.15,1.15,0,0,1-.33-.81Zm.43,0a.61.61,0,0,0,.06.25.79.79,0,0,0,.14.23.72.72,0,0,0,.22.17.73.73,0,0,0,.3.06.72.72,0,0,0,.29-.06.62.62,0,0,0,.22-.17,1.14,1.14,0,0,0,.15-.23.65.65,0,0,0,0-.5,1.14,1.14,0,0,0-.15-.23.76.76,0,0,0-.22-.17.72.72,0,0,0-.29-.06.73.73,0,0,0-.3.06.92.92,0,0,0-.22.17.79.79,0,0,0-.14.23A.61.61,0,0,0,104.91,33.89Z"/><path d="M248.75,192.45v0a1.35,1.35,0,0,1,.37-.13,2,2,0,0,1,.39,0,1.73,1.73,0,0,1,.69.13,1.42,1.42,0,0,1,.54.36,1.85,1.85,0,0,1,.36.57,2,2,0,0,1,.12.72,1.78,1.78,0,0,1-.14.74,1.74,1.74,0,0,1-.4.56,2,2,0,0,1-.6.35,2.36,2.36,0,0,1-.75.12,2.27,2.27,0,0,1-.75-.12,2,2,0,0,1-.6-.35,1.6,1.6,0,0,1-.4-.56,1.78,1.78,0,0,1-.15-.74,2.24,2.24,0,0,1,.15-.86,5.28,5.28,0,0,1,.39-.74l1.5-2.39h.79Zm.59.43a1.23,1.23,0,0,0-.87.32,1,1,0,0,0-.26.38,1.31,1.31,0,0,0-.1.5,1.35,1.35,0,0,0,.1.5,1.08,1.08,0,0,0,.26.37,1,1,0,0,0,.39.24,1.32,1.32,0,0,0,1,0,1,1,0,0,0,.39-.24,1.23,1.23,0,0,0,.26-.37,1.35,1.35,0,0,0,.09-.5,1.31,1.31,0,0,0-.09-.5,1.16,1.16,0,0,0-.26-.38,1.23,1.23,0,0,0-.87-.32Z"/><path d="M251.82,192.92a7.07,7.07,0,0,1,.08-1,3.13,3.13,0,0,1,.29-.94,2,2,0,0,1,.59-.71,1.6,1.6,0,0,1,1-.27,1.55,1.55,0,0,1,.95.27,1.94,1.94,0,0,1,.59.71,2.88,2.88,0,0,1,.3.94,7.07,7.07,0,0,1,.08,1,7,7,0,0,1-.08,1,2.86,2.86,0,0,1-.3,1,1.94,1.94,0,0,1-.59.71,1.55,1.55,0,0,1-.95.27,1.6,1.6,0,0,1-1-.27,2,2,0,0,1-.59-.71,3.1,3.1,0,0,1-.29-1A7,7,0,0,1,251.82,192.92Zm.67,0c0,.14,0,.3,0,.47a4.43,4.43,0,0,0,.06.51,3.81,3.81,0,0,0,.12.51,1.83,1.83,0,0,0,.23.44,1,1,0,0,0,.34.31.9.9,0,0,0,.48.12,1,1,0,0,0,.48-.12,1.24,1.24,0,0,0,.34-.31,1.51,1.51,0,0,0,.22-.44,2.72,2.72,0,0,0,.13-.51,4.43,4.43,0,0,0,.06-.51c0-.17,0-.33,0-.47s0-.29,0-.46a4.88,4.88,0,0,0-.06-.52,2.83,2.83,0,0,0-.13-.5,1.4,1.4,0,0,0-.22-.44,1.1,1.1,0,0,0-.34-.31,1,1,0,0,0-.48-.12.9.9,0,0,0-.48.12.92.92,0,0,0-.34.31,1.66,1.66,0,0,0-.23.44,4.05,4.05,0,0,0-.12.5,4.88,4.88,0,0,0-.06.52C252.5,192.63,252.49,192.79,252.49,192.92Z"/><path d="M256.42,191.14a1.15,1.15,0,0,1,.33-.81,1.05,1.05,0,0,1,.37-.25,1.23,1.23,0,0,1,.44-.08,1.33,1.33,0,0,1,.45.08,1.15,1.15,0,0,1,.37.25,1.16,1.16,0,0,1,0,1.62,1.15,1.15,0,0,1-.37.25,1.33,1.33,0,0,1-.45.08,1.23,1.23,0,0,1-.44-.08,1.05,1.05,0,0,1-.37-.25,1.15,1.15,0,0,1-.33-.81Zm.43,0a.79.79,0,0,0,0,.25,1.14,1.14,0,0,0,.15.23.62.62,0,0,0,.22.17.72.72,0,0,0,.29.06.68.68,0,0,0,.52-.23.79.79,0,0,0,.14-.23.65.65,0,0,0,0-.5.79.79,0,0,0-.14-.23.68.68,0,0,0-.52-.23.72.72,0,0,0-.29.06.62.62,0,0,0-.22.17,1.14,1.14,0,0,0-.15.23A.79.79,0,0,0,256.85,191.14Z"/><path d="M250,81.22h-.67v-4.8h0l-1,.86-.4-.49,1.52-1.23H250Z"/><path d="M251.92,80.45l2.13-2.08c.13-.12.25-.24.35-.35a2.16,2.16,0,0,0,.25-.32,1.09,1.09,0,0,0,.15-.33,1.38,1.38,0,0,0,0-.37,1,1,0,0,0-.08-.4.84.84,0,0,0-.22-.3.78.78,0,0,0-.33-.19,1.05,1.05,0,0,0-.4-.07,1,1,0,0,0-.71.25,1.08,1.08,0,0,0-.36.65l-.73-.06a1.83,1.83,0,0,1,.21-.61,1.41,1.41,0,0,1,.39-.45,2,2,0,0,1,.53-.27,2.25,2.25,0,0,1,.64-.09,2.41,2.41,0,0,1,.67.1,1.92,1.92,0,0,1,.55.29,1.44,1.44,0,0,1,.51,1.15,2,2,0,0,1-.09.61,2,2,0,0,1-.25.5,3.47,3.47,0,0,1-.35.43l-.41.4-1.75,1.64v0h2.89v.62h-3.64Z"/><path d="M256.27,78.39a5.85,5.85,0,0,1,.08-1,3.19,3.19,0,0,1,.29-1,2,2,0,0,1,.59-.7,1.54,1.54,0,0,1,1-.28,1.51,1.51,0,0,1,.95.28,1.91,1.91,0,0,1,.59.7,3.2,3.2,0,0,1,.3,1,6.29,6.29,0,0,1,0,2,3.2,3.2,0,0,1-.3,1,1.91,1.91,0,0,1-.59.7,1.51,1.51,0,0,1-.95.28,1.54,1.54,0,0,1-1-.28,2,2,0,0,1-.59-.7,3.19,3.19,0,0,1-.29-1A5.85,5.85,0,0,1,256.27,78.39Zm.67,0a3.78,3.78,0,0,0,0,.46c0,.17,0,.35.05.52a4.77,4.77,0,0,0,.13.51,1.67,1.67,0,0,0,.23.44,1,1,0,0,0,.34.31,1,1,0,0,0,.48.11,1.06,1.06,0,0,0,.48-.11,1.24,1.24,0,0,0,.34-.31,2,2,0,0,0,.22-.44,3.18,3.18,0,0,0,.13-.51,4.6,4.6,0,0,0,.06-.52c0-.17,0-.32,0-.46s0-.29,0-.46a4.35,4.35,0,0,0-.06-.52,3.18,3.18,0,0,0-.13-.51,2,2,0,0,0-.22-.44,1.24,1.24,0,0,0-.34-.31,1.06,1.06,0,0,0-.48-.11,1,1,0,0,0-.48.11,1,1,0,0,0-.34.31,1.67,1.67,0,0,0-.23.44,4.77,4.77,0,0,0-.13.51c0,.17,0,.34-.05.52A3.78,3.78,0,0,0,256.94,78.39Z"/><path d="M260.87,76.61a1.13,1.13,0,0,1,.09-.45,1,1,0,0,1,.24-.37,1.16,1.16,0,0,1,1.62,0,1.15,1.15,0,0,1,.25.37,1.13,1.13,0,0,1,.09.45,1,1,0,0,1-.09.44,1.15,1.15,0,0,1-.25.37,1.16,1.16,0,0,1-1.62,0,1,1,0,0,1-.24-.37A1,1,0,0,1,260.87,76.61Zm.43,0a.69.69,0,0,0,.05.24.75.75,0,0,0,.15.24.6.6,0,0,0,.22.16.64.64,0,0,0,.58,0,.63.63,0,0,0,.23-.16.72.72,0,0,0,.14-.24.52.52,0,0,0,.05-.24.56.56,0,0,0-.05-.25.59.59,0,0,0-.14-.23.66.66,0,0,0-.23-.17.64.64,0,0,0-.58,0,.62.62,0,0,0-.22.17.61.61,0,0,0-.15.23A.74.74,0,0,0,261.3,76.61Z"/><path d="M40.39,192.45v0a1.42,1.42,0,0,1,.38-.13,1.84,1.84,0,0,1,.39,0,1.72,1.72,0,0,1,.68.13,1.42,1.42,0,0,1,.54.36,1.85,1.85,0,0,1,.36.57,2,2,0,0,1,.13.72,1.78,1.78,0,0,1-.15.74,1.6,1.6,0,0,1-.4.56,2,2,0,0,1-.6.35,2.4,2.4,0,0,1-1.5,0,2,2,0,0,1-.6-.35,1.6,1.6,0,0,1-.4-.56,1.78,1.78,0,0,1-.15-.74,2.24,2.24,0,0,1,.16-.86,5.19,5.19,0,0,1,.38-.74l1.5-2.39h.79Zm.59.43a1.23,1.23,0,0,0-.87.32,1.16,1.16,0,0,0-.26.38,1.31,1.31,0,0,0-.09.5,1.35,1.35,0,0,0,.09.5,1.23,1.23,0,0,0,.26.37,1,1,0,0,0,.39.24,1.32,1.32,0,0,0,1,0,1,1,0,0,0,.39-.24,1.23,1.23,0,0,0,.26-.37,1.35,1.35,0,0,0,.1-.5,1.31,1.31,0,0,0-.1-.5,1.16,1.16,0,0,0-.26-.38,1.23,1.23,0,0,0-.87-.32Z"/><path d="M43.46,192.92a7.07,7.07,0,0,1,.08-1,2.88,2.88,0,0,1,.3-.94,1.94,1.94,0,0,1,.59-.71,1.55,1.55,0,0,1,1-.27,1.6,1.6,0,0,1,1,.27,2,2,0,0,1,.59.71,3.13,3.13,0,0,1,.29.94,7.07,7.07,0,0,1,.08,1,7,7,0,0,1-.08,1,3.1,3.1,0,0,1-.29,1,2,2,0,0,1-.59.71,1.6,1.6,0,0,1-1,.27,1.55,1.55,0,0,1-1-.27,1.94,1.94,0,0,1-.59-.71,2.86,2.86,0,0,1-.3-1A7,7,0,0,1,43.46,192.92Zm.67,0c0,.14,0,.3,0,.47a4.43,4.43,0,0,0,.06.51,2.72,2.72,0,0,0,.13.51,1.51,1.51,0,0,0,.22.44,1.12,1.12,0,0,0,.34.31,1,1,0,0,0,1,0,1.12,1.12,0,0,0,.34-.31,1.83,1.83,0,0,0,.23-.44,3.81,3.81,0,0,0,.12-.51,4.43,4.43,0,0,0,.06-.51c0-.17,0-.33,0-.47s0-.29,0-.46a4.88,4.88,0,0,0-.06-.52,4.05,4.05,0,0,0-.12-.5,1.66,1.66,0,0,0-.23-.44,1,1,0,0,0-.34-.31,1,1,0,0,0-1,0,1,1,0,0,0-.34.31,1.4,1.4,0,0,0-.22.44,2.83,2.83,0,0,0-.13.5,4.88,4.88,0,0,0-.06.52C44.14,192.63,44.13,192.79,44.13,192.92Z"/><path d="M48.06,191.14a1.15,1.15,0,0,1,.33-.81,1.15,1.15,0,0,1,.37-.25,1.33,1.33,0,0,1,.45-.08,1.27,1.27,0,0,1,.44.08,1.15,1.15,0,0,1,.37.25A1.16,1.16,0,0,1,50,192a1.15,1.15,0,0,1-.37.25,1.27,1.27,0,0,1-.44.08,1.33,1.33,0,0,1-.45-.08,1.15,1.15,0,0,1-.37-.25,1.15,1.15,0,0,1-.33-.81Zm.43,0a.61.61,0,0,0,.06.25.79.79,0,0,0,.14.23.72.72,0,0,0,.22.17.73.73,0,0,0,.3.06.72.72,0,0,0,.29-.06.62.62,0,0,0,.22-.17,1.14,1.14,0,0,0,.15-.23.65.65,0,0,0,0-.5,1.14,1.14,0,0,0-.15-.23.62.62,0,0,0-.22-.17.72.72,0,0,0-.29-.06.73.73,0,0,0-.3.06.72.72,0,0,0-.22.17.79.79,0,0,0-.14.23A.61.61,0,0,0,48.49,191.14Z"/><path d="M39.15,81.22h-.67v-4.8h0l-1,.86-.4-.49,1.52-1.23h.58Z"/><path d="M41.07,80.45l2.14-2.08c.13-.12.25-.24.35-.35a2.16,2.16,0,0,0,.25-.32,1.09,1.09,0,0,0,.15-.33A1.38,1.38,0,0,0,44,77a1,1,0,0,0-.08-.4.84.84,0,0,0-.22-.3.78.78,0,0,0-.33-.19A1.05,1.05,0,0,0,43,76a1,1,0,0,0-.72.25,1.19,1.19,0,0,0-.36.65l-.72-.06a1.47,1.47,0,0,1,.21-.61,1.41,1.41,0,0,1,.39-.45,2,2,0,0,1,.53-.27,2.2,2.2,0,0,1,.64-.09,2.41,2.41,0,0,1,.67.1,2.06,2.06,0,0,1,.55.29,1.47,1.47,0,0,1,.37.48,1.6,1.6,0,0,1,.14.67,2,2,0,0,1-.09.61,2.34,2.34,0,0,1-.25.5,3.47,3.47,0,0,1-.35.43l-.41.4-1.75,1.64v0h2.89v.62H41.07Z"/><path d="M45.43,78.39a7,7,0,0,1,.07-1,3.52,3.52,0,0,1,.3-1,2,2,0,0,1,.59-.7,1.77,1.77,0,0,1,1.91,0,1.91,1.91,0,0,1,.59.7,3.52,3.52,0,0,1,.3,1,6.29,6.29,0,0,1,0,2,3.52,3.52,0,0,1-.3,1,1.91,1.91,0,0,1-.59.7,1.77,1.77,0,0,1-1.91,0,2,2,0,0,1-.59-.7,3.52,3.52,0,0,1-.3-1A7,7,0,0,1,45.43,78.39Zm.67,0c0,.14,0,.29,0,.46a4.6,4.6,0,0,0,.06.52,4.77,4.77,0,0,0,.13.51,2,2,0,0,0,.22.44,1.15,1.15,0,0,0,.35.31,1,1,0,0,0,.48.11,1.06,1.06,0,0,0,.48-.11,1.24,1.24,0,0,0,.34-.31,2,2,0,0,0,.22-.44,3.18,3.18,0,0,0,.13-.51,4.6,4.6,0,0,0,.06-.52c0-.17,0-.32,0-.46s0-.29,0-.46a4.35,4.35,0,0,0-.06-.52,3.18,3.18,0,0,0-.13-.51,2,2,0,0,0-.22-.44,1.24,1.24,0,0,0-.34-.31,1.06,1.06,0,0,0-.48-.11,1,1,0,0,0-.48.11,1.15,1.15,0,0,0-.35.31,2,2,0,0,0-.22.44,4.77,4.77,0,0,0-.13.51,4.35,4.35,0,0,0-.06.52C46.1,78.1,46.1,78.25,46.1,78.39Z"/><path d="M50,76.61a1.12,1.12,0,0,1,.08-.45,1.15,1.15,0,0,1,.25-.37,1.16,1.16,0,0,1,1.62,0,1.15,1.15,0,0,1,.25.37,1.33,1.33,0,0,1,.08.45,1.23,1.23,0,0,1-.08.44,1.15,1.15,0,0,1-.25.37,1.16,1.16,0,0,1-1.62,0,1.15,1.15,0,0,1-.25-.37A1,1,0,0,1,50,76.61Zm.43,0a.52.52,0,0,0,0,.24.72.72,0,0,0,.14.24.63.63,0,0,0,.23.16.64.64,0,0,0,.58,0,.73.73,0,0,0,.23-.16,1,1,0,0,0,.14-.24.69.69,0,0,0,.05-.24.75.75,0,0,0-.19-.48.76.76,0,0,0-.23-.17.64.64,0,0,0-.58,0,.66.66,0,0,0-.23.17.59.59,0,0,0-.14.23A.56.56,0,0,0,50.46,76.61Z"/></g><g id="numeri_fondo_tabella" data-name="numeri fondo tabella"><path d="M131.83,251.42a1.17,1.17,0,0,0-.43-.35,1.19,1.19,0,0,0-.51-.11,1.35,1.35,0,0,0-.55.11,1.08,1.08,0,0,0-.4.3,1.32,1.32,0,0,0-.23.44,1.76,1.76,0,0,0,0,1.08,1.43,1.43,0,0,0,.26.45,1.31,1.31,0,0,0,.39.3,1.27,1.27,0,0,0,.52.1,1.09,1.09,0,0,0,1-.46l.47.44a1.69,1.69,0,0,1-.64.46,2.29,2.29,0,0,1-.78.14,2.22,2.22,0,0,1-.79-.14,1.75,1.75,0,0,1-1-1,2.27,2.27,0,0,1,0-1.57,1.86,1.86,0,0,1,.39-.63,2,2,0,0,1,.61-.41,2,2,0,0,1,.79-.15,2.09,2.09,0,0,1,.79.15,1.59,1.59,0,0,1,.65.45Z"/><path d="M136.21,253.56h0a1.43,1.43,0,0,1-.55.54,1.7,1.7,0,0,1-.89.22,1.8,1.8,0,0,1-.73-.15,1.78,1.78,0,0,1-.6-.41,1.81,1.81,0,0,1-.39-.62,2.06,2.06,0,0,1-.15-.79,2,2,0,0,1,.15-.78,1.88,1.88,0,0,1,.4-.63,1.81,1.81,0,0,1,.62-.41,2.07,2.07,0,0,1,.8-.15,1.72,1.72,0,0,1,.75.17,1.78,1.78,0,0,1,.59.47h0v-2.84h.62v6h-.62Zm0-1.21a1.63,1.63,0,0,0-.09-.55,1.34,1.34,0,0,0-.27-.44,1.37,1.37,0,0,0-.42-.29,1.35,1.35,0,0,0-.55-.11,1.42,1.42,0,0,0-.55.11,1.22,1.22,0,0,0-.41.29,1.34,1.34,0,0,0-.27.44,1.56,1.56,0,0,0,0,1.1,1.25,1.25,0,0,0,.27.44,1.19,1.19,0,0,0,1,.4,1.35,1.35,0,0,0,.55-.1,1.6,1.6,0,0,0,.42-.3,1.25,1.25,0,0,0,.27-.44A1.63,1.63,0,0,0,136.21,252.35Z"/><path d="M140.1,254.57l-.5-.2,2.4-6.15.51.2Z"/><path d="M147.64,254.22H147v-4.8h0l-1,.86-.4-.49,1.52-1.23h.59Z"/><path d="M149.46,251.39a7.07,7.07,0,0,1,.08-1,3.19,3.19,0,0,1,.29-.95,2,2,0,0,1,.59-.7,1.61,1.61,0,0,1,1-.28,1.55,1.55,0,0,1,1,.28,1.91,1.91,0,0,1,.59.7,2.94,2.94,0,0,1,.3.95,6.29,6.29,0,0,1,0,2,2.94,2.94,0,0,1-.3,1,1.91,1.91,0,0,1-.59.7,1.49,1.49,0,0,1-1,.28,1.54,1.54,0,0,1-1-.28,2,2,0,0,1-.59-.7,3.19,3.19,0,0,1-.29-1A7.07,7.07,0,0,1,149.46,251.39Zm.67,0c0,.14,0,.29,0,.47a4.43,4.43,0,0,0,.06.51,4.7,4.7,0,0,0,.12.51,2,2,0,0,0,.23.44,1.12,1.12,0,0,0,.34.31,1.1,1.1,0,0,0,1,0,1.12,1.12,0,0,0,.34-.31,1.65,1.65,0,0,0,.22-.44,3.18,3.18,0,0,0,.13-.51,4.43,4.43,0,0,0,.06-.51c0-.18,0-.33,0-.47s0-.29,0-.46a4.6,4.6,0,0,0-.06-.52,3.18,3.18,0,0,0-.13-.51,1.65,1.65,0,0,0-.22-.44,1.08,1.08,0,0,0-.34-.3,1,1,0,0,0-1,0,1.08,1.08,0,0,0-.34.3,2,2,0,0,0-.23.44,4.7,4.7,0,0,0-.12.51,4.6,4.6,0,0,0-.06.52C150.14,251.1,150.13,251.25,150.13,251.39Z"/><path d="M153.91,251.39a5.85,5.85,0,0,1,.08-1,3.19,3.19,0,0,1,.29-.95,2,2,0,0,1,.59-.7,1.61,1.61,0,0,1,1-.28,1.55,1.55,0,0,1,.95.28,1.91,1.91,0,0,1,.59.7,3.2,3.2,0,0,1,.3.95,6.29,6.29,0,0,1,0,2,3.2,3.2,0,0,1-.3,1,1.91,1.91,0,0,1-.59.7,1.49,1.49,0,0,1-.95.28,1.54,1.54,0,0,1-1-.28,2,2,0,0,1-.59-.7,3.19,3.19,0,0,1-.29-1A5.85,5.85,0,0,1,153.91,251.39Zm.67,0a4,4,0,0,0,0,.47,4.43,4.43,0,0,0,.06.51,3.14,3.14,0,0,0,.12.51,1.67,1.67,0,0,0,.23.44,1,1,0,0,0,.34.31.9.9,0,0,0,.48.11,1,1,0,0,0,.48-.11,1.24,1.24,0,0,0,.34-.31,1.65,1.65,0,0,0,.22-.44,3.18,3.18,0,0,0,.13-.51,4.43,4.43,0,0,0,.06-.51c0-.18,0-.33,0-.47s0-.29,0-.46a4.6,4.6,0,0,0-.06-.52,3.18,3.18,0,0,0-.13-.51,1.65,1.65,0,0,0-.22-.44,1.21,1.21,0,0,0-.34-.3,1,1,0,0,0-.48-.12.9.9,0,0,0-.48.12,1,1,0,0,0-.34.3,1.67,1.67,0,0,0-.23.44,3.14,3.14,0,0,0-.12.51,4.6,4.6,0,0,0-.06.52A3.78,3.78,0,0,0,154.58,251.39Z"/><path d="M158.31,251.39a5.85,5.85,0,0,1,.08-1,3.19,3.19,0,0,1,.29-.95,2,2,0,0,1,.59-.7,1.61,1.61,0,0,1,1-.28,1.55,1.55,0,0,1,1,.28,1.91,1.91,0,0,1,.59.7,3.2,3.2,0,0,1,.3.95,6.29,6.29,0,0,1,0,2,3.2,3.2,0,0,1-.3,1,1.91,1.91,0,0,1-.59.7,1.49,1.49,0,0,1-1,.28,1.54,1.54,0,0,1-1-.28,2,2,0,0,1-.59-.7,3.19,3.19,0,0,1-.29-1A5.85,5.85,0,0,1,158.31,251.39Zm.67,0c0,.14,0,.29,0,.47a4.43,4.43,0,0,0,.06.51,3.14,3.14,0,0,0,.12.51,1.67,1.67,0,0,0,.23.44,1,1,0,0,0,.34.31.9.9,0,0,0,.48.11,1,1,0,0,0,.48-.11,1.24,1.24,0,0,0,.34-.31,1.65,1.65,0,0,0,.22-.44,3.18,3.18,0,0,0,.13-.51,4.43,4.43,0,0,0,.06-.51c0-.18,0-.33,0-.47s0-.29,0-.46a4.6,4.6,0,0,0-.06-.52,3.18,3.18,0,0,0-.13-.51,1.65,1.65,0,0,0-.22-.44,1.21,1.21,0,0,0-.34-.3,1,1,0,0,0-.48-.12.9.9,0,0,0-.48.12,1,1,0,0,0-.34.3,1.67,1.67,0,0,0-.23.44,3.14,3.14,0,0,0-.12.51,4.6,4.6,0,0,0-.06.52C159,251.1,159,251.25,159,251.39Z"/><path d="M165.32,248.18H166v6h-.63Z"/><path d="M167.19,251.37c0-.17,0-.33,0-.48s0-.29,0-.41h.59c0,.1,0,.2,0,.3v.32h0a.91.91,0,0,1,.18-.27,1.64,1.64,0,0,1,.28-.23,1.5,1.5,0,0,1,.36-.16,1.44,1.44,0,0,1,.43-.06,1.52,1.52,0,0,1,.51.08,1.36,1.36,0,0,1,.34.18.93.93,0,0,1,.21.24,1.64,1.64,0,0,1,.12.22,1.78,1.78,0,0,1,.48-.53,1.27,1.27,0,0,1,.71-.19,1.88,1.88,0,0,1,.67.11,1.1,1.1,0,0,1,.44.31,1.37,1.37,0,0,1,.24.5,2.59,2.59,0,0,1,.07.65v2.27h-.62V252a2.33,2.33,0,0,0,0-.37,1,1,0,0,0-.15-.33.71.71,0,0,0-.28-.23,1,1,0,0,0-.45-.09,1,1,0,0,0-.37.08,1,1,0,0,0-.31.22,1.13,1.13,0,0,0-.21.35,1.33,1.33,0,0,0-.07.45v2.16h-.63V252.1a1.62,1.62,0,0,0-.17-.88A.6.6,0,0,0,169,251a1.18,1.18,0,0,0-.52.1.88.88,0,0,0-.36.3,1.14,1.14,0,0,0-.21.46,2.1,2.1,0,0,0-.07.58v1.82h-.62Z"/><line class="cls-1" x1="38.21" y1="253" x2="46.2" y2="253"/><path d="M235.17,251a1.66,1.66,0,0,0-.63-.52,1.93,1.93,0,0,0-.79-.17,2.13,2.13,0,0,0-.87.19,2.16,2.16,0,0,0-.68.52,2.58,2.58,0,0,0-.45.75,2.69,2.69,0,0,0-.16.89,2.79,2.79,0,0,0,.16.93,2.41,2.41,0,0,0,.45.74,2,2,0,0,0,.68.5,1.92,1.92,0,0,0,.87.19,2,2,0,0,0,1.64-.8l.51.43a2.38,2.38,0,0,1-.93.75,3,3,0,0,1-1.22.24,2.85,2.85,0,0,1-1.13-.22,2.82,2.82,0,0,1-.92-.62,3,3,0,0,1-.61-.94,3.33,3.33,0,0,1-.22-1.2,3.19,3.19,0,0,1,.21-1.16,2.9,2.9,0,0,1,.6-1,3.08,3.08,0,0,1,.91-.63,3,3,0,0,1,2.27,0,2,2,0,0,1,.89.68Z"/><path d="M239,253.1l0,0a1.35,1.35,0,0,1-.37.13,2.87,2.87,0,0,1-.39,0,1.68,1.68,0,0,1-.68-.13,1.5,1.5,0,0,1-.55-.36,1.92,1.92,0,0,1-.36-.56,2.11,2.11,0,0,1-.12-.73,1.75,1.75,0,0,1,.14-.74,1.63,1.63,0,0,1,.4-.56,1.79,1.79,0,0,1,.6-.35,2.36,2.36,0,0,1,.75-.12,2.27,2.27,0,0,1,.75.12,1.94,1.94,0,0,1,.61.35,1.49,1.49,0,0,1,.39.56,1.75,1.75,0,0,1,.15.74,2.19,2.19,0,0,1,0,.46c0,.14-.07.27-.11.4a2.53,2.53,0,0,1-.18.37,3.35,3.35,0,0,1-.21.36l-1.5,2.4h-.79Zm-.6-.43a1.51,1.51,0,0,0,.48-.08,1.28,1.28,0,0,0,.39-.24,1.12,1.12,0,0,0,.26-.38,1.27,1.27,0,0,0,.1-.5,1.26,1.26,0,0,0-.1-.49,1,1,0,0,0-.26-.38,1,1,0,0,0-.39-.24,1.33,1.33,0,0,0-1,0,.88.88,0,0,0-.38.24,1.19,1.19,0,0,0-.27.38,1.26,1.26,0,0,0-.09.49,1.28,1.28,0,0,0,.09.5,1.31,1.31,0,0,0,.27.38,1.12,1.12,0,0,0,.38.24A1.51,1.51,0,0,0,238.35,252.67Z"/><path d="M240.88,252.62a7.07,7.07,0,0,1,.08-1,2.88,2.88,0,0,1,.3-.94,2,2,0,0,1,.58-.71,1.84,1.84,0,0,1,1.92,0,2,2,0,0,1,.58.71,2.88,2.88,0,0,1,.3.94,7.07,7.07,0,0,1,.08,1,7,7,0,0,1-.08,1,2.86,2.86,0,0,1-.3.95,2,2,0,0,1-.58.71,1.84,1.84,0,0,1-1.92,0,2,2,0,0,1-.58-.71,2.86,2.86,0,0,1-.3-.95A7,7,0,0,1,240.88,252.62Zm.67,0c0,.14,0,.3,0,.47a4.43,4.43,0,0,0,.06.51,2.72,2.72,0,0,0,.13.51,1.51,1.51,0,0,0,.22.44,1.12,1.12,0,0,0,.34.31,1,1,0,0,0,1,0,1.12,1.12,0,0,0,.34-.31,1.51,1.51,0,0,0,.22-.44,2.72,2.72,0,0,0,.13-.51,4.43,4.43,0,0,0,.06-.51c0-.17,0-.33,0-.47s0-.29,0-.46a4.88,4.88,0,0,0-.06-.52,2.83,2.83,0,0,0-.13-.5,1.4,1.4,0,0,0-.22-.44,1.12,1.12,0,0,0-.34-.31,1,1,0,0,0-1,0,1.12,1.12,0,0,0-.34.31,1.4,1.4,0,0,0-.22.44,2.83,2.83,0,0,0-.13.5,4.88,4.88,0,0,0-.06.52C241.56,252.33,241.55,252.49,241.55,252.62Z"/><path d="M247.78,255.8l-.51-.2,2.41-6.14.5.19Z"/><path d="M257.1,251a1.66,1.66,0,0,0-.63-.52,1.92,1.92,0,0,0-.78-.17,2.06,2.06,0,0,0-.87.19,2.16,2.16,0,0,0-.68.52,2.21,2.21,0,0,0-.45.75,2.46,2.46,0,0,0-.16.89,2.56,2.56,0,0,0,.16.93,2.2,2.2,0,0,0,.44.74,2.1,2.1,0,0,0,.68.5,2,2,0,0,0,.88.19,2,2,0,0,0,.93-.21,2,2,0,0,0,.71-.59l.5.43a2.29,2.29,0,0,1-.92.75,3,3,0,0,1-1.22.24,2.8,2.8,0,0,1-2.05-.84,2.82,2.82,0,0,1-.61-.94,3.13,3.13,0,0,1-.22-1.2,3.19,3.19,0,0,1,.21-1.16,2.75,2.75,0,0,1,.6-1,3,3,0,0,1,.91-.63,2.93,2.93,0,0,1,1.16-.23,3,3,0,0,1,1.11.21,2,2,0,0,1,.89.68Z"/><path d="M258.46,254.69l2.14-2.08.35-.36a1.75,1.75,0,0,0,.25-.32,1,1,0,0,0,.15-.32,1.46,1.46,0,0,0,0-.38,1,1,0,0,0-.08-.4.93.93,0,0,0-.22-.3,1.13,1.13,0,0,0-.73-.26,1,1,0,0,0-.71.25,1.11,1.11,0,0,0-.36.66l-.73-.07a1.91,1.91,0,0,1,.21-.61,1.28,1.28,0,0,1,.39-.44,1.77,1.77,0,0,1,.53-.27,2.25,2.25,0,0,1,.64-.09,2.09,2.09,0,0,1,.67.1,1.53,1.53,0,0,1,.55.29,1.47,1.47,0,0,1,.37.48,1.39,1.39,0,0,1,.14.66,1.91,1.91,0,0,1-.09.61,1.8,1.8,0,0,1-.25.5,2.86,2.86,0,0,1-.35.43l-.41.41-1.75,1.64h2.89v.63h-3.65Z"/><path d="M266.35,250.42l-2.26,5h-.76l2.3-5H262.9v-.63h3.45Z"/><path d="M267.26,252.62a7.07,7.07,0,0,1,.08-1,3.45,3.45,0,0,1,.3-.94,2,2,0,0,1,.59-.71,1.82,1.82,0,0,1,1.91,0,2,2,0,0,1,.59.71,3.45,3.45,0,0,1,.3.94,7,7,0,0,1,.07,1,6.92,6.92,0,0,1-.07,1,3.41,3.41,0,0,1-.3.95,2,2,0,0,1-.59.71,1.82,1.82,0,0,1-1.91,0,2,2,0,0,1-.59-.71,3.41,3.41,0,0,1-.3-.95A7,7,0,0,1,267.26,252.62Zm.68,0c0,.14,0,.3,0,.47a4.43,4.43,0,0,0,.06.51,2.72,2.72,0,0,0,.13.51,1.53,1.53,0,0,0,.23.44,1,1,0,0,0,.34.31.89.89,0,0,0,.47.12,1,1,0,0,0,.49-.12,1.08,1.08,0,0,0,.33-.31,1.53,1.53,0,0,0,.23-.44,2.72,2.72,0,0,0,.13-.51,4.43,4.43,0,0,0,.06-.51c0-.17,0-.33,0-.47s0-.29,0-.46a4.88,4.88,0,0,0-.06-.52,2.83,2.83,0,0,0-.13-.5,1.41,1.41,0,0,0-.23-.44,1.08,1.08,0,0,0-.33-.31,1,1,0,0,0-.49-.12.89.89,0,0,0-.47.12,1,1,0,0,0-.34.31,1.41,1.41,0,0,0-.23.44,2.83,2.83,0,0,0-.13.5,4.88,4.88,0,0,0-.06.52C267.94,252.33,267.94,252.49,267.94,252.62Z"/><path d="M52.87,251a1.55,1.55,0,0,0-.63-.51,1.82,1.82,0,0,0-.79-.18,2,2,0,0,0-.87.2,2.13,2.13,0,0,0-.68.51,2.58,2.58,0,0,0-.45.75,2.67,2.67,0,0,0,0,1.82,2.29,2.29,0,0,0,.45.74,1.88,1.88,0,0,0,.68.5,1.92,1.92,0,0,0,.87.19,2,2,0,0,0,.93-.21,2.07,2.07,0,0,0,.71-.58l.51.42a2.38,2.38,0,0,1-.93.75,3,3,0,0,1-1.22.24,2.85,2.85,0,0,1-1.13-.22,2.82,2.82,0,0,1-.92-.62,3,3,0,0,1-.61-.94,3.27,3.27,0,0,1-.22-1.19,3.2,3.2,0,0,1,.21-1.17,3,3,0,0,1,.6-.95,3.08,3.08,0,0,1,.91-.63,3,3,0,0,1,2.27,0,2,2,0,0,1,.89.68Z"/><path d="M54.13,252.62a7,7,0,0,1,.08-1,3.11,3.11,0,0,1,.3-1,1.94,1.94,0,0,1,.59-.71,1.55,1.55,0,0,1,.95-.27,1.6,1.6,0,0,1,1,.27,2,2,0,0,1,.59.71,3.1,3.1,0,0,1,.29,1,5.77,5.77,0,0,1,.08,1,5.85,5.85,0,0,1-.08,1,3.13,3.13,0,0,1-.29.94,2,2,0,0,1-.59.71,1.6,1.6,0,0,1-1,.27,1.55,1.55,0,0,1-.95-.27,1.94,1.94,0,0,1-.59-.71,3.14,3.14,0,0,1-.3-.94A7.07,7.07,0,0,1,54.13,252.62Zm.67,0c0,.13,0,.29,0,.46a4.88,4.88,0,0,0,.06.52,2.83,2.83,0,0,0,.13.5,1.4,1.4,0,0,0,.22.44,1.1,1.1,0,0,0,.34.31,1,1,0,0,0,.48.12.9.9,0,0,0,.48-.12.92.92,0,0,0,.34-.31,1.41,1.41,0,0,0,.23-.44,2.8,2.8,0,0,0,.12-.5,4.88,4.88,0,0,0,.06-.52,3.86,3.86,0,0,0,0-.46,3.94,3.94,0,0,0,0-.47,4.43,4.43,0,0,0-.06-.51,2.71,2.71,0,0,0-.12-.51,1.53,1.53,0,0,0-.23-.44,1,1,0,0,0-.34-.31.9.9,0,0,0-.48-.12,1,1,0,0,0-.48.12,1.24,1.24,0,0,0-.34.31,1.51,1.51,0,0,0-.22.44,2.72,2.72,0,0,0-.13.51,4.43,4.43,0,0,0-.06.51C54.81,252.32,54.8,252.48,54.8,252.62Z"/><path d="M61,255.79l-.51-.2,2.41-6.14.51.19Z"/><path d="M70.36,251a1.52,1.52,0,0,0-.64-.51,1.78,1.78,0,0,0-.78-.18,2,2,0,0,0-.87.2,2.13,2.13,0,0,0-.68.51,2.58,2.58,0,0,0-.45.75,2.51,2.51,0,0,0-.16.9,2.54,2.54,0,0,0,.16.92,2.46,2.46,0,0,0,.44.74,2.09,2.09,0,0,0,1.56.69,2,2,0,0,0,.93-.21,2.07,2.07,0,0,0,.71-.58l.5.42a2.29,2.29,0,0,1-.92.75,3,3,0,0,1-1.22.24,2.93,2.93,0,0,1-1.14-.22,2.88,2.88,0,0,1-.91-.62,3,3,0,0,1-.61-.94,3.07,3.07,0,0,1-.22-1.19,3.2,3.2,0,0,1,.21-1.17,2.84,2.84,0,0,1,.6-.95,3,3,0,0,1,.91-.63,2.93,2.93,0,0,1,1.16-.23,3,3,0,0,1,1.11.21,2,2,0,0,1,.89.68Z"/><path d="M74.2,255.45h-.68v-4.8h0l-1,.85-.4-.48,1.52-1.24h.59Z"/><path d="M76.37,251.17a1.33,1.33,0,0,1,.13-.61,1.2,1.2,0,0,1,.34-.46,1.44,1.44,0,0,1,.51-.3,1.92,1.92,0,0,1,1.28,0,1.44,1.44,0,0,1,.51.3,1.32,1.32,0,0,1,.34.46,1.48,1.48,0,0,1,.12.61,1.44,1.44,0,0,1-.06.4,1.41,1.41,0,0,1-.18.37,1.18,1.18,0,0,1-.3.29,1,1,0,0,1-.38.19h0a1.44,1.44,0,0,1,.46.19,1.35,1.35,0,0,1,.35.32,1.67,1.67,0,0,1,.23.44,1.7,1.7,0,0,1,.08.51,1.74,1.74,0,0,1-.14.69,1.46,1.46,0,0,1-.39.52,1.47,1.47,0,0,1-.57.33,2.35,2.35,0,0,1-1.42,0,1.59,1.59,0,0,1-.58-.33,1.43,1.43,0,0,1-.38-.52,1.74,1.74,0,0,1-.14-.69,1.7,1.7,0,0,1,.08-.51,1.65,1.65,0,0,1,.22-.44,1.59,1.59,0,0,1,.36-.32,1.44,1.44,0,0,1,.46-.19h0a1.18,1.18,0,0,1-.39-.19,1.33,1.33,0,0,1-.29-.29,1.41,1.41,0,0,1-.18-.37A1.16,1.16,0,0,1,76.37,251.17Zm.48,2.67a1.14,1.14,0,0,0,.09.46,1.21,1.21,0,0,0,.24.35,1.16,1.16,0,0,0,.36.23A1.13,1.13,0,0,0,78,255a1,1,0,0,0,.44-.09,1,1,0,0,0,.36-.23,1.07,1.07,0,0,0,.25-.35,1.36,1.36,0,0,0,0-.92,1.07,1.07,0,0,0-.25-.35,1,1,0,0,0-.36-.23,1,1,0,0,0-.44-.09,1.13,1.13,0,0,0-.45.09,1.16,1.16,0,0,0-.36.23,1.21,1.21,0,0,0-.24.35A1.14,1.14,0,0,0,76.85,253.84ZM77,251.2a.92.92,0,0,0,.26.67.93.93,0,0,0,.69.27.9.9,0,0,0,.68-.27,1,1,0,0,0,0-1.34.9.9,0,0,0-.68-.27.93.93,0,0,0-.69.27A.92.92,0,0,0,77,251.2Z"/><path d="M80.52,252.62a5.77,5.77,0,0,1,.08-1,3.1,3.1,0,0,1,.29-1,2,2,0,0,1,.59-.71,1.6,1.6,0,0,1,1-.27,1.55,1.55,0,0,1,1,.27,1.94,1.94,0,0,1,.59.71,3.41,3.41,0,0,1,.3,1,7,7,0,0,1,.08,1,7.07,7.07,0,0,1-.08,1,3.45,3.45,0,0,1-.3.94,1.94,1.94,0,0,1-.59.71,1.55,1.55,0,0,1-1,.27,1.6,1.6,0,0,1-1-.27,2,2,0,0,1-.59-.71,3.13,3.13,0,0,1-.29-.94A5.85,5.85,0,0,1,80.52,252.62Zm.67,0a3.86,3.86,0,0,0,0,.46c0,.17,0,.34.05.52a4.07,4.07,0,0,0,.13.5,1.41,1.41,0,0,0,.23.44.92.92,0,0,0,.34.31.9.9,0,0,0,.48.12,1,1,0,0,0,.48-.12,1.1,1.1,0,0,0,.34-.31,1.65,1.65,0,0,0,.22-.44,2.83,2.83,0,0,0,.13-.5,4.88,4.88,0,0,0,.06-.52c0-.17,0-.33,0-.46s0-.3,0-.47a4.43,4.43,0,0,0-.06-.51,2.72,2.72,0,0,0-.13-.51,1.81,1.81,0,0,0-.22-.44,1.24,1.24,0,0,0-.34-.31,1,1,0,0,0-.48-.12.9.9,0,0,0-.48.12,1,1,0,0,0-.34.31,1.53,1.53,0,0,0-.23.44,3.8,3.8,0,0,0-.13.51c0,.17,0,.34-.05.51A3.94,3.94,0,0,0,81.19,252.62Z"/><line class="cls-2" x1="214.49" y1="253.42" x2="215.03" y2="253.42"/><line class="cls-2" x1="217.76" y1="253.42" x2="218.3" y2="253.42"/><line class="cls-2" x1="221.02" y1="253.42" x2="221.56" y2="253.42"/><line class="cls-2" x1="224.29" y1="253.42" x2="224.83" y2="253.42"/><line class="cls-2" x1="227.55" y1="253.42" x2="228.09" y2="253.42"/></g><g id="Ray_F2_F5920020"><path d="M54.64,11.76H59v.78H55.48v2.34h3.3v.78h-3.3v3.18h-.84Z"/><path d="M64.06,12.54H61.17l0,1.91a1.67,1.67,0,0,1,.45-.13,3.91,3.91,0,0,1,.46,0,2.34,2.34,0,0,1,.93.18,2.13,2.13,0,0,1,1.17,1.23,2.71,2.71,0,0,1,0,1.89,2,2,0,0,1-.51.74,2.31,2.31,0,0,1-.77.47,2.57,2.57,0,0,1-1,.17,2.15,2.15,0,0,1-1.3-.35,2.44,2.44,0,0,1-.79-.94l.84-.32a1.54,1.54,0,0,0,.53.65,1.34,1.34,0,0,0,.79.24,1.46,1.46,0,0,0,.6-.11A1.58,1.58,0,0,0,63,17.8a1.52,1.52,0,0,0,.32-.52,1.78,1.78,0,0,0,.12-.67,1.67,1.67,0,0,0-.13-.69,1.42,1.42,0,0,0-.37-.5,1.53,1.53,0,0,0-.56-.31,2.17,2.17,0,0,0-.69-.11,2.51,2.51,0,0,0-.74.13,4,4,0,0,0-.7.31l.07-3.68h3.71Z"/><path d="M68.4,15.89l0,0a1.25,1.25,0,0,1-.46.16,2.37,2.37,0,0,1-1.34-.11,1.84,1.84,0,0,1-.68-.45,2.21,2.21,0,0,1-.45-.7,2.59,2.59,0,0,1-.16-.91,2.34,2.34,0,0,1,.18-.93,2,2,0,0,1,.5-.69,2.3,2.3,0,0,1,.76-.44,2.81,2.81,0,0,1,1.87,0,2.16,2.16,0,0,1,.75.44,1.92,1.92,0,0,1,.5.69,2.34,2.34,0,0,1,.18.93,2.52,2.52,0,0,1,0,.57,2.63,2.63,0,0,1-.14.5,4,4,0,0,1-.21.47q-.12.22-.27.45l-1.88,3h-1Zm-.74-.53a1.64,1.64,0,0,0,.6-.1,1.44,1.44,0,0,0,.49-.3,1.4,1.4,0,0,0,.32-.47,1.54,1.54,0,0,0,.12-.63,1.59,1.59,0,0,0-.12-.62,1.4,1.4,0,0,0-.32-.47,1.44,1.44,0,0,0-.49-.3,1.64,1.64,0,0,0-.6-.11,1.73,1.73,0,0,0-.6.11,1.5,1.5,0,0,0-.48.3,1.43,1.43,0,0,0-.33.47,1.59,1.59,0,0,0-.12.62,1.54,1.54,0,0,0,.12.63,1.43,1.43,0,0,0,.33.47,1.5,1.5,0,0,0,.48.3A1.72,1.72,0,0,0,67.66,15.36Z"/><path d="M70.94,17.88l2.67-2.6a6.07,6.07,0,0,0,.44-.44,2.66,2.66,0,0,0,.32-.4,1.65,1.65,0,0,0,.18-.41,1.68,1.68,0,0,0,.06-.47,1.18,1.18,0,0,0-.1-.5,1,1,0,0,0-.27-.37,1.38,1.38,0,0,0-.41-.24,1.44,1.44,0,0,0-.51-.09,1.34,1.34,0,0,0-.89.31,1.47,1.47,0,0,0-.45.82l-.91-.08a2.29,2.29,0,0,1,.27-.76,1.89,1.89,0,0,1,.49-.56,2.55,2.55,0,0,1,.66-.33,2.63,2.63,0,0,1,.8-.12,2.77,2.77,0,0,1,.83.13,2.06,2.06,0,0,1,.69.36,1.74,1.74,0,0,1,.47.6,1.84,1.84,0,0,1,.17.83,2.25,2.25,0,0,1-.11.76A2.64,2.64,0,0,1,75,15a4.51,4.51,0,0,1-.44.54c-.16.17-.34.34-.52.5l-2.18,2v0H75.5v.78H70.94Z"/><path d="M76.38,15.3a9.26,9.26,0,0,1,.1-1.25,4.07,4.07,0,0,1,.37-1.18,2.44,2.44,0,0,1,.74-.88A2.22,2.22,0,0,1,80,12a2.41,2.41,0,0,1,.73.88,3.79,3.79,0,0,1,.37,1.18,7.88,7.88,0,0,1,.1,1.25,7.79,7.79,0,0,1-.1,1.25,3.77,3.77,0,0,1-.37,1.19,2.41,2.41,0,0,1-.73.88,2.27,2.27,0,0,1-2.39,0,2.44,2.44,0,0,1-.74-.88,4,4,0,0,1-.37-1.19A9.14,9.14,0,0,1,76.38,15.3Zm.84,0c0,.18,0,.37,0,.58s0,.43.08.65a4.15,4.15,0,0,0,.16.63,1.9,1.9,0,0,0,.28.55,1.55,1.55,0,0,0,.42.39,1.16,1.16,0,0,0,.6.14,1.11,1.11,0,0,0,.6-.14,1.45,1.45,0,0,0,.43-.39,1.9,1.9,0,0,0,.28-.55,4.15,4.15,0,0,0,.16-.63,4.78,4.78,0,0,0,.07-.65c0-.21,0-.4,0-.58s0-.36,0-.58a4.81,4.81,0,0,0-.07-.64,4.61,4.61,0,0,0-.16-.64,2,2,0,0,0-.28-.55,1.42,1.42,0,0,0-.43-.38,1.11,1.11,0,0,0-.6-.15,1.16,1.16,0,0,0-.6.15,1.51,1.51,0,0,0-.42.38,2,2,0,0,0-.28.55,4.61,4.61,0,0,0-.16.64c0,.22-.06.43-.08.64S77.22,15.13,77.22,15.3Z"/><path d="M81.94,15.3a9.26,9.26,0,0,1,.1-1.25,4.07,4.07,0,0,1,.37-1.18,2.44,2.44,0,0,1,.74-.88,2.22,2.22,0,0,1,2.39,0,2.41,2.41,0,0,1,.73.88,3.79,3.79,0,0,1,.37,1.18,7.88,7.88,0,0,1,.1,1.25,7.79,7.79,0,0,1-.1,1.25,3.77,3.77,0,0,1-.37,1.19,2.41,2.41,0,0,1-.73.88,2.27,2.27,0,0,1-2.39,0,2.44,2.44,0,0,1-.74-.88A4,4,0,0,1,82,16.55,9.14,9.14,0,0,1,81.94,15.3Zm.84,0c0,.18,0,.37,0,.58s0,.43.08.65a4.15,4.15,0,0,0,.16.63,1.9,1.9,0,0,0,.28.55,1.55,1.55,0,0,0,.42.39,1.16,1.16,0,0,0,.6.14,1.11,1.11,0,0,0,.6-.14,1.45,1.45,0,0,0,.43-.39,1.9,1.9,0,0,0,.28-.55,4.15,4.15,0,0,0,.16-.63,4.78,4.78,0,0,0,.07-.65c0-.21,0-.4,0-.58s0-.36,0-.58a4.81,4.81,0,0,0-.07-.64,4.61,4.61,0,0,0-.16-.64,2,2,0,0,0-.28-.55,1.42,1.42,0,0,0-.43-.38,1.11,1.11,0,0,0-.6-.15,1.16,1.16,0,0,0-.6.15,1.51,1.51,0,0,0-.42.38,2,2,0,0,0-.28.55,4.61,4.61,0,0,0-.16.64c0,.22-.06.43-.08.64S82.78,15.13,82.78,15.3Z"/><path d="M87.62,17.88l2.67-2.6a6.07,6.07,0,0,0,.44-.44,2.66,2.66,0,0,0,.32-.4,1.65,1.65,0,0,0,.18-.41,1.68,1.68,0,0,0,.06-.47,1.18,1.18,0,0,0-.1-.5,1,1,0,0,0-.27-.37,1.38,1.38,0,0,0-.41-.24,1.44,1.44,0,0,0-.51-.09,1.34,1.34,0,0,0-.89.31,1.47,1.47,0,0,0-.45.82l-.91-.08a2.29,2.29,0,0,1,.27-.76,1.89,1.89,0,0,1,.49-.56,2.55,2.55,0,0,1,.66-.33,2.63,2.63,0,0,1,.8-.12,2.77,2.77,0,0,1,.83.13,2.06,2.06,0,0,1,.69.36,1.74,1.74,0,0,1,.47.6,1.84,1.84,0,0,1,.17.83,2.25,2.25,0,0,1-.11.76,2.64,2.64,0,0,1-.31.63,4.51,4.51,0,0,1-.44.54c-.16.17-.34.34-.52.5l-2.18,2v0h3.61v.78H87.62Z"/><path d="M93.06,15.3a9.26,9.26,0,0,1,.1-1.25,4.07,4.07,0,0,1,.37-1.18,2.44,2.44,0,0,1,.74-.88,2.22,2.22,0,0,1,2.39,0,2.41,2.41,0,0,1,.73.88,3.79,3.79,0,0,1,.37,1.18,7.88,7.88,0,0,1,.1,1.25,7.79,7.79,0,0,1-.1,1.25,3.77,3.77,0,0,1-.37,1.19,2.41,2.41,0,0,1-.73.88,2.27,2.27,0,0,1-2.39,0,2.44,2.44,0,0,1-.74-.88,4,4,0,0,1-.37-1.19A9.14,9.14,0,0,1,93.06,15.3Zm.84,0c0,.18,0,.37,0,.58s0,.43.08.65a4.15,4.15,0,0,0,.16.63,1.9,1.9,0,0,0,.28.55,1.55,1.55,0,0,0,.42.39,1.16,1.16,0,0,0,.6.14,1.11,1.11,0,0,0,.6-.14,1.45,1.45,0,0,0,.43-.39,1.9,1.9,0,0,0,.28-.55,4.15,4.15,0,0,0,.16-.63,4.78,4.78,0,0,0,.07-.65c0-.21,0-.4,0-.58s0-.36,0-.58a4.81,4.81,0,0,0-.07-.64,4.61,4.61,0,0,0-.16-.64,2,2,0,0,0-.28-.55,1.42,1.42,0,0,0-.43-.38,1.11,1.11,0,0,0-.6-.15,1.16,1.16,0,0,0-.6.15,1.51,1.51,0,0,0-.42.38,2,2,0,0,0-.28.55,4.61,4.61,0,0,0-.16.64c0,.22-.06.43-.08.64S93.9,15.13,93.9,15.3Z"/><path d="M98.24,19.59h5v.5h-5Z"/><path d="M103.74,17.88l2.67-2.6a6.07,6.07,0,0,0,.44-.44,2.66,2.66,0,0,0,.32-.4,1.65,1.65,0,0,0,.18-.41,1.68,1.68,0,0,0,.06-.47,1.18,1.18,0,0,0-.1-.5,1,1,0,0,0-.27-.37,1.38,1.38,0,0,0-.41-.24,1.44,1.44,0,0,0-.51-.09,1.34,1.34,0,0,0-.89.31,1.47,1.47,0,0,0-.45.82l-.91-.08a2.29,2.29,0,0,1,.27-.76,1.89,1.89,0,0,1,.49-.56,2.55,2.55,0,0,1,.66-.33,2.63,2.63,0,0,1,.8-.12,2.77,2.77,0,0,1,.83.13,2.06,2.06,0,0,1,.69.36,1.74,1.74,0,0,1,.47.6,1.84,1.84,0,0,1,.17.83,2.25,2.25,0,0,1-.11.76,2.64,2.64,0,0,1-.31.63,4.51,4.51,0,0,1-.44.54c-.16.17-.34.34-.52.5l-2.18,2v0h3.61v.78h-4.56Z"/><path d="M113.54,12.54h-2.89l0,1.91a1.67,1.67,0,0,1,.45-.13,3.91,3.91,0,0,1,.46,0,2.34,2.34,0,0,1,.93.18,2.13,2.13,0,0,1,1.17,1.23,2.71,2.71,0,0,1,0,1.89,2,2,0,0,1-.51.74,2.31,2.31,0,0,1-.77.47,2.57,2.57,0,0,1-1,.17,2.15,2.15,0,0,1-1.3-.35,2.44,2.44,0,0,1-.79-.94l.84-.32a1.54,1.54,0,0,0,.53.65,1.34,1.34,0,0,0,.79.24,1.46,1.46,0,0,0,.6-.11,1.58,1.58,0,0,0,.48-.33,1.52,1.52,0,0,0,.32-.52,1.78,1.78,0,0,0,.12-.67,1.67,1.67,0,0,0-.13-.69,1.42,1.42,0,0,0-.37-.5,1.53,1.53,0,0,0-.56-.31,2.17,2.17,0,0,0-.69-.11,2.51,2.51,0,0,0-.74.13,4,4,0,0,0-.7.31l.07-3.68h3.71Z"/><path d="M114.74,15.3a9.26,9.26,0,0,1,.1-1.25,4.07,4.07,0,0,1,.37-1.18A2.44,2.44,0,0,1,116,12a2.22,2.22,0,0,1,2.39,0,2.41,2.41,0,0,1,.73.88,3.79,3.79,0,0,1,.37,1.18,7.88,7.88,0,0,1,.1,1.25,7.79,7.79,0,0,1-.1,1.25,3.77,3.77,0,0,1-.37,1.19,2.41,2.41,0,0,1-.73.88,2.27,2.27,0,0,1-2.39,0,2.44,2.44,0,0,1-.74-.88,4,4,0,0,1-.37-1.19A9.14,9.14,0,0,1,114.74,15.3Zm.84,0c0,.18,0,.37,0,.58s0,.43.08.65a4.15,4.15,0,0,0,.16.63,1.9,1.9,0,0,0,.28.55,1.55,1.55,0,0,0,.42.39,1.16,1.16,0,0,0,.6.14,1.11,1.11,0,0,0,.6-.14,1.45,1.45,0,0,0,.43-.39,1.9,1.9,0,0,0,.28-.55,4.15,4.15,0,0,0,.16-.63,4.78,4.78,0,0,0,.07-.65c0-.21,0-.4,0-.58s0-.36,0-.58a4.81,4.81,0,0,0-.07-.64,4.61,4.61,0,0,0-.16-.64,2,2,0,0,0-.28-.55,1.42,1.42,0,0,0-.43-.38,1.11,1.11,0,0,0-.6-.15,1.16,1.16,0,0,0-.6.15,1.51,1.51,0,0,0-.42.38,2,2,0,0,0-.28.55,4.61,4.61,0,0,0-.16.64c0,.22-.06.43-.08.64S115.58,15.13,115.58,15.3Z"/><path d="M120,11.76h.94l1.6,5.88h0l1.74-5.88h.94L127,17.64h0l1.64-5.88h.88l-2.07,7.08h-.92l-1.75-6h0l-1.76,6h-.92Z"/><path d="M133.14,11.76H134v3h3.78v-3h.84v7.08h-.84v-3.3H134v3.3h-.84Z"/><path d="M140.43,11.76h.84v6.3h3.24v.78h-4.08Z"/><rect class="cls-3" x="54.76" y="42.24" width="189.86" height="189.86"/><circle class="cls-4" cx="149.7" cy="137.11" r="15.77" transform="translate(-20.03 25.75) rotate(-9.22)"/><path d="M151.75,159.16l2.13-2.08c.13-.12.25-.24.35-.35a2.16,2.16,0,0,0,.25-.32,1.09,1.09,0,0,0,.15-.33,1.07,1.07,0,0,0,.05-.37,1,1,0,0,0-.08-.4.84.84,0,0,0-.22-.3.91.91,0,0,0-.33-.2,1.29,1.29,0,0,0-.4-.06,1,1,0,0,0-.71.25,1.08,1.08,0,0,0-.36.65l-.73-.06a2,2,0,0,1,.21-.62,1.65,1.65,0,0,1,.39-.44,1.77,1.77,0,0,1,.53-.27,2.25,2.25,0,0,1,.64-.09,2.09,2.09,0,0,1,.67.1,1.7,1.7,0,0,1,.55.29,1.44,1.44,0,0,1,.51,1.15,1.89,1.89,0,0,1-.09.6,1.67,1.67,0,0,1-.25.5,2.94,2.94,0,0,1-.35.44l-.41.4-1.75,1.64v0h2.89v.62h-3.64Z"/><path d="M156.05,157.1a7.07,7.07,0,0,1,.08-1,3.19,3.19,0,0,1,.29-.95,2,2,0,0,1,.59-.7,1.54,1.54,0,0,1,1-.28,1.49,1.49,0,0,1,.95.28,1.91,1.91,0,0,1,.59.7,2.94,2.94,0,0,1,.3.95,6.29,6.29,0,0,1,0,2,2.94,2.94,0,0,1-.3,1,1.91,1.91,0,0,1-.59.7,1.55,1.55,0,0,1-.95.28,1.61,1.61,0,0,1-1-.28,2,2,0,0,1-.59-.7,3.19,3.19,0,0,1-.29-1A7.07,7.07,0,0,1,156.05,157.1Zm.67,0c0,.14,0,.29,0,.46a4.6,4.6,0,0,0,.06.52,4.7,4.7,0,0,0,.12.51,2,2,0,0,0,.23.44,1,1,0,0,0,.34.3,1,1,0,0,0,1,0,1,1,0,0,0,.34-.3,1.65,1.65,0,0,0,.22-.44,3.18,3.18,0,0,0,.13-.51,4.6,4.6,0,0,0,.06-.52c0-.17,0-.32,0-.46s0-.29,0-.47a4.43,4.43,0,0,0-.06-.51,3.18,3.18,0,0,0-.13-.51,1.65,1.65,0,0,0-.22-.44,1.12,1.12,0,0,0-.34-.31,1.1,1.1,0,0,0-1,0,1.12,1.12,0,0,0-.34.31,2,2,0,0,0-.23.44,4.7,4.7,0,0,0-.12.51,4.43,4.43,0,0,0-.06.51C156.73,156.81,156.72,157,156.72,157.1Z"/><circle class="cls-4" cx="149.7" cy="137.11" r="31.59" transform="translate(-25.2 34.06) rotate(-11.98)"/><path d="M154.7,173.83h.81v.63h-.81v1.29H154v-1.29h-2.4v-.75l2.25-3.62h.83Zm-.68-3h0l-1.81,3H154Z"/><path d="M156.05,172.92a7.07,7.07,0,0,1,.08-1,3.19,3.19,0,0,1,.29-.95,2,2,0,0,1,.59-.7,1.54,1.54,0,0,1,1-.28,1.49,1.49,0,0,1,.95.28,1.91,1.91,0,0,1,.59.7,2.94,2.94,0,0,1,.3.95,6.29,6.29,0,0,1,0,2,2.94,2.94,0,0,1-.3,1,1.91,1.91,0,0,1-.59.7,1.49,1.49,0,0,1-.95.28,1.54,1.54,0,0,1-1-.28,2,2,0,0,1-.59-.7,3.19,3.19,0,0,1-.29-1A7.07,7.07,0,0,1,156.05,172.92Zm.67,0c0,.14,0,.29,0,.46a4.35,4.35,0,0,0,.06.52,4.7,4.7,0,0,0,.12.51,2,2,0,0,0,.23.44,1.12,1.12,0,0,0,.34.31,1.1,1.1,0,0,0,1,0,1.12,1.12,0,0,0,.34-.31,1.65,1.65,0,0,0,.22-.44,3.18,3.18,0,0,0,.13-.51,4.35,4.35,0,0,0,.06-.52c0-.17,0-.32,0-.46s0-.29,0-.46a4.6,4.6,0,0,0-.06-.52,3.18,3.18,0,0,0-.13-.51,1.65,1.65,0,0,0-.22-.44,1.08,1.08,0,0,0-.34-.3,1,1,0,0,0-1,0,1.08,1.08,0,0,0-.34.3,2,2,0,0,0-.23.44,4.7,4.7,0,0,0-.12.51,4.6,4.6,0,0,0-.06.52C156.73,172.63,156.72,172.78,156.72,172.92Z"/><circle class="cls-4" cx="149.7" cy="137.11" r="47.41"/><path d="M153,188.27v0a1.35,1.35,0,0,1,.37-.13,2,2,0,0,1,.39,0,1.73,1.73,0,0,1,.69.13,1.42,1.42,0,0,1,.54.36,1.85,1.85,0,0,1,.36.57,2,2,0,0,1,.12.72,1.78,1.78,0,0,1-.14.74,1.74,1.74,0,0,1-.4.56,2,2,0,0,1-.6.35,2.36,2.36,0,0,1-.75.12,2.27,2.27,0,0,1-.75-.12,2,2,0,0,1-.6-.35,1.6,1.6,0,0,1-.4-.56,1.78,1.78,0,0,1-.15-.74,2.1,2.1,0,0,1,.16-.86,4.33,4.33,0,0,1,.38-.74l1.5-2.39h.79Zm.59.43a1.27,1.27,0,0,0-.48.08,1.11,1.11,0,0,0-.39.24,1,1,0,0,0-.26.38,1.31,1.31,0,0,0-.1.5,1.35,1.35,0,0,0,.1.5,1.08,1.08,0,0,0,.26.37,1.11,1.11,0,0,0,.39.24,1.32,1.32,0,0,0,1,0,1.11,1.11,0,0,0,.39-.24,1.23,1.23,0,0,0,.26-.37,1.35,1.35,0,0,0,.09-.5,1.31,1.31,0,0,0-.09-.5,1.16,1.16,0,0,0-.26-.38,1.11,1.11,0,0,0-.39-.24A1.27,1.27,0,0,0,153.57,188.7Z"/><path d="M156.05,188.74a7.07,7.07,0,0,1,.08-1,3.13,3.13,0,0,1,.29-.94,2,2,0,0,1,.59-.71,1.6,1.6,0,0,1,1-.27,1.55,1.55,0,0,1,.95.27,1.94,1.94,0,0,1,.59.71,2.88,2.88,0,0,1,.3.94,7.07,7.07,0,0,1,.08,1,7,7,0,0,1-.08,1,2.86,2.86,0,0,1-.3.95,1.94,1.94,0,0,1-.59.71,1.55,1.55,0,0,1-.95.27,1.6,1.6,0,0,1-1-.27,2,2,0,0,1-.59-.71,3.1,3.1,0,0,1-.29-.95A7,7,0,0,1,156.05,188.74Zm.67,0c0,.14,0,.3,0,.47a4.43,4.43,0,0,0,.06.51,3.81,3.81,0,0,0,.12.51,1.83,1.83,0,0,0,.23.44,1.12,1.12,0,0,0,.34.31,1,1,0,0,0,1,0,1.12,1.12,0,0,0,.34-.31,1.51,1.51,0,0,0,.22-.44,2.72,2.72,0,0,0,.13-.51,4.43,4.43,0,0,0,.06-.51c0-.17,0-.33,0-.47s0-.29,0-.46a4.88,4.88,0,0,0-.06-.52,2.83,2.83,0,0,0-.13-.5,1.4,1.4,0,0,0-.22-.44,1,1,0,0,0-.34-.31,1,1,0,0,0-1,0,1,1,0,0,0-.34.31,1.66,1.66,0,0,0-.23.44,4.05,4.05,0,0,0-.12.5,4.88,4.88,0,0,0-.06.52C156.73,188.45,156.72,188.6,156.72,188.74Z"/><circle class="cls-4" cx="149.7" cy="137.11" r="63.23"/><path d="M152,203.12a1.33,1.33,0,0,1,.13-.61,1.32,1.32,0,0,1,.34-.47,1.81,1.81,0,0,1,.51-.3,2.1,2.1,0,0,1,1.28,0,1.81,1.81,0,0,1,.51.3,1.45,1.45,0,0,1,.34.47,1.48,1.48,0,0,1,.12.61,1.44,1.44,0,0,1-.06.4,1.22,1.22,0,0,1-.18.36,1.07,1.07,0,0,1-.3.3.89.89,0,0,1-.38.18v0a1.44,1.44,0,0,1,.46.19,1.2,1.2,0,0,1,.35.32,1.67,1.67,0,0,1,.23.44,1.7,1.7,0,0,1,.08.51,1.74,1.74,0,0,1-.14.69,1.55,1.55,0,0,1-.39.52,1.47,1.47,0,0,1-.57.33,2.35,2.35,0,0,1-1.42,0,1.47,1.47,0,0,1-.57-.33,1.43,1.43,0,0,1-.39-.52,1.74,1.74,0,0,1-.14-.69,1.7,1.7,0,0,1,.08-.51,1.65,1.65,0,0,1,.22-.44,1.38,1.38,0,0,1,.36-.32,1.44,1.44,0,0,1,.46-.19v0a1,1,0,0,1-.39-.18,1.18,1.18,0,0,1-.29-.3,1.22,1.22,0,0,1-.18-.36A1.16,1.16,0,0,1,152,203.12Zm.48,2.67a1.1,1.1,0,0,0,.09.45,1.13,1.13,0,0,0,.24.36,1.16,1.16,0,0,0,.36.23,1.13,1.13,0,0,0,.45.09,1,1,0,0,0,.44-.09,1,1,0,0,0,.36-.23,1,1,0,0,0,.25-.36,1.1,1.1,0,0,0,.09-.45,1.14,1.14,0,0,0-.09-.46,1,1,0,0,0-.25-.35,1.13,1.13,0,0,0-.36-.24,1.23,1.23,0,0,0-.44-.08,1.33,1.33,0,0,0-.45.08,1.41,1.41,0,0,0-.36.24,1.09,1.09,0,0,0-.24.35A1.14,1.14,0,0,0,152.43,205.79Zm.19-2.64a.94.94,0,0,0,.26.67.93.93,0,0,0,.69.26.94.94,0,1,0,0-1.87.93.93,0,0,0-.69.27A.92.92,0,0,0,152.62,203.15Z"/><path d="M156.05,204.56a7.07,7.07,0,0,1,.08-1,3.13,3.13,0,0,1,.29-.94,2,2,0,0,1,.59-.71,1.6,1.6,0,0,1,1-.27,1.55,1.55,0,0,1,.95.27,1.94,1.94,0,0,1,.59.71,2.88,2.88,0,0,1,.3.94,7.07,7.07,0,0,1,.08,1,7,7,0,0,1-.08,1,2.86,2.86,0,0,1-.3.95,1.94,1.94,0,0,1-.59.71,1.55,1.55,0,0,1-.95.27,1.6,1.6,0,0,1-1-.27,2,2,0,0,1-.59-.71,3.1,3.1,0,0,1-.29-.95A7,7,0,0,1,156.05,204.56Zm.67,0c0,.14,0,.3,0,.47a4.43,4.43,0,0,0,.06.51,3.81,3.81,0,0,0,.12.51,1.83,1.83,0,0,0,.23.44,1.12,1.12,0,0,0,.34.31,1,1,0,0,0,1,0,1.12,1.12,0,0,0,.34-.31,1.51,1.51,0,0,0,.22-.44,2.72,2.72,0,0,0,.13-.51,4.43,4.43,0,0,0,.06-.51c0-.17,0-.33,0-.47s0-.29,0-.46a4.88,4.88,0,0,0-.06-.52,2.83,2.83,0,0,0-.13-.5,1.4,1.4,0,0,0-.22-.44,1.12,1.12,0,0,0-.34-.31,1,1,0,0,0-1,0,1.12,1.12,0,0,0-.34.31,1.66,1.66,0,0,0-.23.44,4.05,4.05,0,0,0-.12.5,4.88,4.88,0,0,0-.06.52C156.73,204.27,156.72,204.43,156.72,204.56Z"/><circle class="cls-4" cx="149.7" cy="137.11" r="79.06"/><path d="M154.22,223.22h-.67v-4.8h0l-1,.85-.4-.48,1.52-1.24h.58Z"/><path d="M156.05,220.39a7,7,0,0,1,.08-1,3.1,3.1,0,0,1,.29-.95,2,2,0,0,1,.59-.71,1.6,1.6,0,0,1,1-.27,1.55,1.55,0,0,1,.95.27,1.94,1.94,0,0,1,.59.71,2.86,2.86,0,0,1,.3.95,7,7,0,0,1,.08,1,7.07,7.07,0,0,1-.08,1,2.88,2.88,0,0,1-.3.94,1.94,1.94,0,0,1-.59.71,1.55,1.55,0,0,1-.95.27,1.6,1.6,0,0,1-1-.27,2,2,0,0,1-.59-.71,3.13,3.13,0,0,1-.29-.94A7.07,7.07,0,0,1,156.05,220.39Zm.67,0c0,.14,0,.29,0,.46a4.88,4.88,0,0,0,.06.52,4.05,4.05,0,0,0,.12.5,1.66,1.66,0,0,0,.23.44,1,1,0,0,0,.34.31,1,1,0,0,0,1,0,1,1,0,0,0,.34-.31,1.4,1.4,0,0,0,.22-.44,2.83,2.83,0,0,0,.13-.5,4.88,4.88,0,0,0,.06-.52c0-.17,0-.32,0-.46s0-.3,0-.47a4.43,4.43,0,0,0-.06-.51,2.72,2.72,0,0,0-.13-.51,1.51,1.51,0,0,0-.22-.44,1.12,1.12,0,0,0-.34-.31,1.1,1.1,0,0,0-1,0,1.12,1.12,0,0,0-.34.31,1.83,1.83,0,0,0-.23.44,3.81,3.81,0,0,0-.12.51,4.43,4.43,0,0,0-.06.51C156.73,220.09,156.72,220.25,156.72,220.39Z"/><path d="M160.5,220.39a5.77,5.77,0,0,1,.08-1,3.1,3.1,0,0,1,.29-.95,2,2,0,0,1,.59-.71,1.6,1.6,0,0,1,1-.27,1.57,1.57,0,0,1,1,.27,1.94,1.94,0,0,1,.59.71,3.11,3.11,0,0,1,.3.95,7,7,0,0,1,.08,1,7.07,7.07,0,0,1-.08,1,3.14,3.14,0,0,1-.3.94,1.94,1.94,0,0,1-.59.71,1.57,1.57,0,0,1-1,.27,1.6,1.6,0,0,1-1-.27,2,2,0,0,1-.59-.71,3.13,3.13,0,0,1-.29-.94A5.85,5.85,0,0,1,160.5,220.39Zm.67,0a3.78,3.78,0,0,0,0,.46,4.88,4.88,0,0,0,.06.52,2.8,2.8,0,0,0,.12.5,1.41,1.41,0,0,0,.23.44.92.92,0,0,0,.34.31.9.9,0,0,0,.48.12,1,1,0,0,0,.48-.12,1.1,1.1,0,0,0,.34-.31,1.4,1.4,0,0,0,.22-.44,2.83,2.83,0,0,0,.13-.5,4.88,4.88,0,0,0,.06-.52c0-.17,0-.32,0-.46s0-.3,0-.47a4.43,4.43,0,0,0-.06-.51,2.72,2.72,0,0,0-.13-.51,1.51,1.51,0,0,0-.22-.44,1.24,1.24,0,0,0-.34-.31,1,1,0,0,0-.48-.11.9.9,0,0,0-.48.11,1,1,0,0,0-.34.31,1.53,1.53,0,0,0-.23.44,2.71,2.71,0,0,0-.12.51,4.43,4.43,0,0,0-.06.51A3.94,3.94,0,0,0,161.17,220.39Z"/><circle class="cls-4" cx="149.7" cy="137.11" r="94.93"/><line class="cls-4" x1="54.76" y1="137.17" x2="244.68" y2="137.17"/><line class="cls-4" x1="149.7" y1="232.1" x2="149.7" y2="42.18"/><line class="cls-4" x1="94.94" y1="42.18" x2="204.51" y2="232.1"/><line class="cls-4" x1="94.94" y1="232.1" x2="204.51" y2="42.18"/><line class="cls-4" x1="54.76" y1="82.36" x2="244.68" y2="191.92"/><line class="cls-4" x1="54.76" y1="191.92" x2="244.68" y2="82.36"/><line class="cls-1" x1="149.7" y1="160.87" x2="150.45" y2="159.36"/><line class="cls-1" x1="150.45" y1="159.36" x2="151.1" y2="157.53"/><line class="cls-1" x1="151.1" y1="157.53" x2="151.75" y2="156.82"/><line class="cls-1" x1="151.75" y1="156.82" x2="152.5" y2="157.31"/><line class="cls-1" x1="152.5" y1="157.31" x2="153.26" y2="157.36"/><line class="cls-1" x1="153.26" y1="157.36" x2="154.02" y2="157.47"/><line class="cls-1" x1="154.02" y1="157.47" x2="154.72" y2="157.26"/><line class="cls-1" x1="154.72" y1="157.26" x2="155.64" y2="157.9"/><line class="cls-1" x1="155.64" y1="157.9" x2="156.93" y2="159.47"/><line class="cls-1" x1="156.93" y1="159.47" x2="158.23" y2="160.6"/><line class="cls-1" x1="158.23" y1="160.6" x2="159.58" y2="161.63"/><line class="cls-1" x1="159.58" y1="161.63" x2="160.98" y2="162.49"/><line class="cls-1" x1="160.98" y1="162.49" x2="162.44" y2="163.25"/><line class="cls-1" x1="162.44" y1="163.25" x2="163.79" y2="163.57"/><line class="cls-1" x1="163.79" y1="163.57" x2="165.46" y2="164.38"/><line class="cls-1" x1="165.46" y1="164.38" x2="167.41" y2="165.46"/><line class="cls-1" x1="167.41" y1="165.46" x2="169.14" y2="165.95"/><line class="cls-1" x1="169.14" y1="165.95" x2="173.19" y2="169.41"/><line class="cls-1" x1="173.19" y1="169.41" x2="179.94" y2="175.83"/><line class="cls-1" x1="179.94" y1="175.83" x2="186.52" y2="181.02"/><line class="cls-1" x1="186.52" y1="181.02" x2="193.54" y2="185.82"/><line class="cls-1" x1="193.54" y1="185.82" x2="202.35" y2="191.65"/><line class="cls-1" x1="202.35" y1="191.65" x2="206.88" y2="192.36"/><line class="cls-1" x1="206.88" y1="192.36" x2="209.8" y2="191.22"/><line class="cls-1" x1="209.8" y1="191.22" x2="207.64" y2="185.71"/><line class="cls-1" x1="207.64" y1="185.71" x2="200.62" y2="176.91"/><line class="cls-1" x1="200.62" y1="176.91" x2="184.15" y2="162.17"/><line class="cls-1" x1="184.15" y1="162.17" x2="177.67" y2="155.96"/><line class="cls-1" x1="177.67" y1="155.96" x2="177.94" y2="154.77"/><line class="cls-1" x1="177.94" y1="154.77" x2="176.59" y2="152.67"/><line class="cls-1" x1="176.59" y1="152.67" x2="175.56" y2="150.88"/><line class="cls-1" x1="175.56" y1="150.88" x2="175.02" y2="149.48"/><line class="cls-1" x1="175.02" y1="149.48" x2="174.27" y2="148.02"/><line class="cls-1" x1="174.27" y1="148.02" x2="173.51" y2="146.73"/><line class="cls-1" x1="173.51" y1="146.73" x2="172.75" y2="145.54"/><line class="cls-1" x1="172.75" y1="145.54" x2="172.05" y2="144.4"/><line class="cls-1" x1="172.05" y1="144.4" x2="171.4" y2="143.32"/><line class="cls-1" x1="171.4" y1="143.32" x2="170.81" y2="142.35"/><line class="cls-1" x1="170.81" y1="142.35" x2="170.38" y2="141.49"/><line class="cls-1" x1="170.38" y1="141.49" x2="169.89" y2="140.68"/><line class="cls-1" x1="169.89" y1="140.68" x2="169.46" y2="139.87"/><line class="cls-1" x1="169.46" y1="139.87" x2="168.97" y2="139.17"/><line class="cls-1" x1="168.97" y1="139.17" x2="168.54" y2="138.41"/><line class="cls-1" x1="168.54" y1="138.41" x2="167.95" y2="137.76"/><line class="cls-1" x1="167.95" y1="137.76" x2="167.62" y2="137.17"/><line class="cls-1" x1="167.62" y1="137.17" x2="167.52" y2="136.52"/><line class="cls-1" x1="167.52" y1="136.52" x2="167.62" y2="135.93"/><line class="cls-1" x1="167.62" y1="135.93" x2="167.79" y2="135.28"/><line class="cls-1" x1="167.79" y1="135.28" x2="168.16" y2="134.58"/><line class="cls-1" x1="168.16" y1="134.58" x2="168.49" y2="133.87"/><line class="cls-1" x1="168.49" y1="133.87" x2="168.81" y2="133.12"/><line class="cls-1" x1="168.81" y1="133.12" x2="169.14" y2="132.31"/><line class="cls-1" x1="169.14" y1="132.31" x2="169.35" y2="131.55"/><line class="cls-1" x1="169.35" y1="131.55" x2="169.41" y2="130.74"/><line class="cls-1" x1="169.41" y1="130.74" x2="169.51" y2="129.93"/><line class="cls-1" x1="169.51" y1="129.93" x2="169.57" y2="129.12"/><line class="cls-1" x1="169.57" y1="129.12" x2="169.46" y2="128.37"/><line class="cls-1" x1="169.46" y1="128.37" x2="169.89" y2="127.34"/><line class="cls-1" x1="169.89" y1="127.34" x2="170.54" y2="126.1"/><line class="cls-1" x1="170.54" y1="126.1" x2="171.62" y2="124.53"/><line class="cls-1" x1="171.62" y1="124.53" x2="172.97" y2="122.64"/><line class="cls-1" x1="172.97" y1="122.64" x2="174.7" y2="120.32"/><line class="cls-1" x1="174.7" y1="120.32" x2="176.53" y2="117.67"/><line class="cls-1" x1="176.53" y1="117.67" x2="177.78" y2="115.24"/><line class="cls-1" x1="177.78" y1="115.24" x2="180.58" y2="111.25"/><line class="cls-1" x1="180.58" y1="111.25" x2="184.47" y2="105.85"/><line class="cls-1" x1="184.47" y1="105.85" x2="189.93" y2="98.29"/><line class="cls-1" x1="189.93" y1="98.29" x2="193.49" y2="91.81"/><line class="cls-1" x1="193.49" y1="91.81" x2="196.95" y2="84.73"/><line class="cls-1" x1="196.95" y1="84.73" x2="198.4" y2="79.12"/><line class="cls-1" x1="198.4" y1="79.12" x2="198.51" y2="74.69"/><line class="cls-1" x1="198.51" y1="74.69" x2="197.43" y2="71.5"/><line class="cls-1" x1="197.43" y1="71.5" x2="194.95" y2="70.1"/><line class="cls-1" x1="194.95" y1="70.1" x2="191.06" y2="70.96"/><line class="cls-1" x1="191.06" y1="70.96" x2="186.9" y2="72.75"/><line class="cls-1" x1="186.9" y1="72.75" x2="182.37" y2="75.72"/><line class="cls-1" x1="182.37" y1="75.72" x2="177.45" y2="80.25"/><line class="cls-1" x1="177.45" y1="80.25" x2="172.81" y2="85.27"/><line class="cls-1" x1="172.81" y1="85.27" x2="167.89" y2="92.08"/><line class="cls-1" x1="167.89" y1="92.08" x2="163.95" y2="97.96"/><line class="cls-1" x1="163.95" y1="97.96" x2="160.66" y2="103.53"/><line class="cls-1" x1="160.66" y1="103.53" x2="157.8" y2="108.87"/><line class="cls-1" x1="157.8" y1="108.87" x2="155.74" y2="112.98"/><line class="cls-1" x1="155.74" y1="112.98" x2="154.18" y2="116.16"/><line class="cls-1" x1="154.18" y1="116.16" x2="152.99" y2="118.38"/><line class="cls-1" x1="152.99" y1="118.38" x2="152.18" y2="119.62"/><line class="cls-1" x1="152.18" y1="119.62" x2="151.53" y2="119.56"/><line class="cls-1" x1="151.53" y1="119.56" x2="150.94" y2="119.35"/><line class="cls-1" x1="150.94" y1="119.35" x2="150.34" y2="118.81"/><line class="cls-1" x1="150.34" y1="118.81" x2="149.7" y2="118.27"/><line class="cls-1" x1="149.7" y1="160.87" x2="148.94" y2="159.63"/><line class="cls-1" x1="148.94" y1="159.63" x2="148.29" y2="158.07"/><line class="cls-1" x1="148.29" y1="158.07" x2="147.59" y2="157.53"/><line class="cls-1" x1="147.59" y1="157.53" x2="146.83" y2="157.96"/><line class="cls-1" x1="146.83" y1="157.96" x2="146.08" y2="158.07"/><line class="cls-1" x1="146.08" y1="158.07" x2="145.27" y2="158.17"/><line class="cls-1" x1="145.27" y1="158.17" x2="144.57" y2="158.01"/><line class="cls-1" x1="144.57" y1="158.01" x2="143.59" y2="158.61"/><line class="cls-1" x1="143.59" y1="158.61" x2="142.3" y2="160.01"/><line class="cls-1" x1="142.3" y1="160.01" x2="141.06" y2="160.93"/><line class="cls-1" x1="141.06" y1="160.93" x2="139.81" y2="161.74"/><line class="cls-1" x1="139.81" y1="161.74" x2="138.57" y2="162.28"/><line class="cls-1" x1="138.57" y1="162.28" x2="137.11" y2="162.98"/><line class="cls-1" x1="137.11" y1="162.98" x2="135.93" y2="163.14"/><line class="cls-1" x1="135.93" y1="163.14" x2="133.87" y2="164.6"/><line class="cls-1" x1="133.87" y1="164.6" x2="131.17" y2="166.81"/><line class="cls-1" x1="131.17" y1="166.81" x2="127.88" y2="169.57"/><line class="cls-1" x1="127.88" y1="169.57" x2="123.07" y2="173.83"/><line class="cls-1" x1="123.07" y1="173.83" x2="115.73" y2="180.64"/><line class="cls-1" x1="115.73" y1="180.64" x2="109.3" y2="185.34"/><line class="cls-1" x1="109.3" y1="185.34" x2="103.04" y2="189.01"/><line class="cls-1" x1="103.04" y1="189.01" x2="96.34" y2="192.41"/><line class="cls-1" x1="96.34" y1="192.41" x2="92.83" y2="192.09"/><line class="cls-1" x1="92.83" y1="192.09" x2="90.57" y2="190.41"/><line class="cls-1" x1="90.57" y1="190.41" x2="92.94" y2="184.74"/><line class="cls-1" x1="92.94" y1="184.74" x2="99.64" y2="176.26"/><line class="cls-1" x1="99.64" y1="176.26" x2="114.81" y2="162.49"/><line class="cls-1" x1="114.81" y1="162.49" x2="121.29" y2="156.34"/><line class="cls-1" x1="121.29" y1="156.34" x2="122.1" y2="154.39"/><line class="cls-1" x1="122.1" y1="154.39" x2="123.94" y2="152.02"/><line class="cls-1" x1="123.94" y1="152.02" x2="125.29" y2="150.13"/><line class="cls-1" x1="125.29" y1="150.13" x2="125.72" y2="148.83"/><line class="cls-1" x1="125.72" y1="148.83" x2="126.53" y2="147.48"/><line class="cls-1" x1="126.53" y1="147.48" x2="127.23" y2="146.24"/><line class="cls-1" x1="127.23" y1="146.24" x2="127.99" y2="145.05"/><line class="cls-1" x1="127.99" y1="145.05" x2="128.69" y2="143.97"/><line class="cls-1" x1="128.69" y1="143.97" x2="129.5" y2="142.95"/><line class="cls-1" x1="129.5" y1="142.95" x2="130.09" y2="142.03"/><line class="cls-1" x1="130.09" y1="142.03" x2="130.47" y2="141.22"/><line class="cls-1" x1="130.47" y1="141.22" x2="130.9" y2="140.41"/><line class="cls-1" x1="130.9" y1="140.41" x2="131.39" y2="139.71"/><line class="cls-1" x1="131.39" y1="139.71" x2="131.88" y2="139"/><line class="cls-1" x1="131.88" y1="139" x2="132.36" y2="138.36"/><line class="cls-1" x1="132.36" y1="138.36" x2="132.85" y2="137.71"/><line class="cls-1" x1="132.85" y1="137.71" x2="133.12" y2="137.17"/><line class="cls-1" x1="133.12" y1="137.17" x2="133.23" y2="136.57"/><line class="cls-1" x1="133.23" y1="136.57" x2="133.17" y2="136.03"/><line class="cls-1" x1="133.17" y1="136.03" x2="133.01" y2="135.39"/><line class="cls-1" x1="133.01" y1="135.39" x2="132.63" y2="134.74"/><line class="cls-1" x1="132.63" y1="134.74" x2="132.36" y2="134.09"/><line class="cls-1" x1="132.36" y1="134.09" x2="132.15" y2="133.44"/><line class="cls-1" x1="132.15" y1="133.44" x2="131.88" y2="132.74"/><line class="cls-1" x1="131.88" y1="132.74" x2="131.71" y2="131.98"/><line class="cls-1" x1="131.71" y1="131.98" x2="131.55" y2="131.23"/><line class="cls-1" x1="131.55" y1="131.23" x2="131.34" y2="130.47"/><line class="cls-1" x1="131.34" y1="130.47" x2="131.23" y2="129.66"/><line class="cls-1" x1="131.23" y1="129.66" x2="131.17" y2="128.91"/><line class="cls-1" x1="131.17" y1="128.91" x2="130.8" y2="127.93"/><line class="cls-1" x1="130.8" y1="127.93" x2="130.58" y2="126.96"/><line class="cls-1" x1="130.58" y1="126.96" x2="129.77" y2="125.61"/><line class="cls-1" x1="129.77" y1="125.61" x2="128.58" y2="123.94"/><line class="cls-1" x1="128.58" y1="123.94" x2="126.96" y2="121.78"/><line class="cls-1" x1="126.96" y1="121.78" x2="125.5" y2="119.56"/><line class="cls-1" x1="125.5" y1="119.56" x2="124.48" y2="117.4"/><line class="cls-1" x1="124.48" y1="117.4" x2="122.53" y2="114.33"/><line class="cls-1" x1="122.53" y1="114.33" x2="120.05" y2="110.44"/><line class="cls-1" x1="120.05" y1="110.44" x2="116.92" y2="105.47"/><line class="cls-1" x1="116.92" y1="105.47" x2="114.06" y2="100.23"/><line class="cls-1" x1="114.06" y1="100.23" x2="110.76" y2="93.86"/><line class="cls-1" x1="110.76" y1="93.86" x2="108.44" y2="87.92"/><line class="cls-1" x1="108.44" y1="87.92" x2="106.71" y2="82.14"/><line class="cls-1" x1="106.71" y1="82.14" x2="105.15" y2="75.77"/><line class="cls-1" x1="105.15" y1="75.77" x2="105.79" y2="71.99"/><line class="cls-1" x1="105.79" y1="71.99" x2="108.22" y2="70.69"/><line class="cls-1" x1="108.22" y1="70.69" x2="110.76" y2="69.67"/><line class="cls-1" x1="110.76" y1="69.67" x2="113.73" y2="69.4"/><line class="cls-1" x1="113.73" y1="69.4" x2="117.13" y2="70.26"/><line class="cls-1" x1="117.13" y1="70.26" x2="120.27" y2="70.96"/><line class="cls-1" x1="120.27" y1="70.96" x2="123.24" y2="71.61"/><line class="cls-1" x1="123.24" y1="71.61" x2="126.42" y2="73.12"/><line class="cls-1" x1="126.42" y1="73.12" x2="129.66" y2="75.39"/><line class="cls-1" x1="129.66" y1="75.39" x2="132.85" y2="78.25"/><line class="cls-1" x1="132.85" y1="78.25" x2="136.03" y2="82.09"/><line class="cls-1" x1="136.03" y1="82.09" x2="139.06" y2="86.89"/><line class="cls-1" x1="139.06" y1="86.89" x2="141.81" y2="92.29"/><line class="cls-1" x1="141.81" y1="92.29" x2="144.3" y2="98.29"/><line class="cls-1" x1="144.3" y1="98.29" x2="146.46" y2="105.69"/><line class="cls-1" x1="146.46" y1="105.69" x2="147.86" y2="110.38"/><line class="cls-1" x1="147.86" y1="110.38" x2="148.94" y2="114.33"/><line class="cls-1" x1="148.94" y1="114.33" x2="149.7" y2="118.27"/><line class="cls-1" x1="149.7" y1="160.87" x2="149.86" y2="160.66"/><line class="cls-1" x1="150.51" y1="159.58" x2="150.61" y2="159.36"/><line class="cls-1" x1="151.1" y1="158.17" x2="151.15" y2="158.01"/><line class="cls-1" x1="151.15" y1="158.01" x2="151.21" y2="157.96"/><line class="cls-1" x1="152.23" y1="157.85" x2="152.4" y2="158.01"/><line class="cls-1" x1="153.53" y1="158.55" x2="153.75" y2="158.66"/><line class="cls-1" x1="154.99" y1="158.93" x2="155.15" y2="158.93"/><line class="cls-1" x1="155.15" y1="158.93" x2="155.2" y2="158.98"/><line class="cls-1" x1="156.23" y1="159.74" x2="156.39" y2="159.9"/><line class="cls-1" x1="157.31" y1="160.82" x2="157.47" y2="160.98"/><line class="cls-1" x1="158.55" y1="161.74" x2="158.71" y2="161.85"/><line class="cls-1" x1="158.71" y1="161.85" x2="158.77" y2="161.9"/><line class="cls-1" x1="159.9" y1="162.49" x2="159.96" y2="162.55"/><line class="cls-1" x1="159.96" y1="162.55" x2="160.12" y2="162.6"/><line class="cls-1" x1="161.31" y1="162.98" x2="161.52" y2="163.03"/><line class="cls-1" x1="162.71" y1="163.41" x2="162.98" y2="163.41"/><line class="cls-1" x1="164.28" y1="163.68" x2="164.49" y2="163.79"/><line class="cls-1" x1="165.63" y1="164.33" x2="165.84" y2="164.44"/><line class="cls-1" x1="166.92" y1="165.09" x2="167.14" y2="165.19"/><line class="cls-1" x1="168.27" y1="165.68" x2="168.49" y2="165.79"/><line class="cls-1" x1="169.62" y1="166.44" x2="169.84" y2="166.6"/><line class="cls-1" x1="170.81" y1="167.46" x2="171.03" y2="167.62"/><line class="cls-1" x1="172.05" y1="168.49" x2="172.21" y2="168.65"/><line class="cls-1" x1="173.24" y1="169.51" x2="173.24" y2="169.51"/><line class="cls-1" x1="173.24" y1="169.51" x2="173.4" y2="169.68"/><line class="cls-1" x1="174.37" y1="170.59" x2="174.59" y2="170.76"/><line class="cls-1" x1="175.56" y1="171.67" x2="175.72" y2="171.84"/><line class="cls-1" x1="176.7" y1="172.75" x2="176.86" y2="172.92"/><line class="cls-1" x1="177.83" y1="173.83" x2="178.05" y2="174"/><line class="cls-1" x1="179.02" y1="174.91" x2="179.18" y2="175.08"/><line class="cls-1" x1="180.15" y1="175.94" x2="180.37" y2="176.1"/><line class="cls-1" x1="181.39" y1="176.91" x2="181.61" y2="177.07"/><line class="cls-1" x1="182.64" y1="177.88" x2="182.85" y2="178.05"/><line class="cls-1" x1="183.88" y1="178.86" x2="184.09" y2="179.02"/><line class="cls-1" x1="185.12" y1="179.83" x2="185.34" y2="179.99"/><line class="cls-1" x1="186.36" y1="180.75" x2="186.58" y2="180.91"/><line class="cls-1" x1="187.66" y1="181.61" x2="187.87" y2="181.77"/><line class="cls-1" x1="188.95" y1="182.47" x2="189.17" y2="182.64"/><line class="cls-1" x1="190.25" y1="183.34" x2="190.47" y2="183.5"/><line class="cls-1" x1="191.55" y1="184.2" x2="191.76" y2="184.31"/><line class="cls-1" x1="192.84" y1="185.07" x2="192.95" y2="185.12"/><line class="cls-1" x1="192.95" y1="185.12" x2="193.06" y2="185.17"/><line class="cls-1" x1="194.14" y1="185.88" x2="194.35" y2="185.98"/><line class="cls-1" x1="195.43" y1="186.69" x2="195.65" y2="186.79"/><line class="cls-1" x1="196.73" y1="187.5" x2="196.95" y2="187.66"/><line class="cls-1" x1="198.03" y1="188.31" x2="198.24" y2="188.47"/><line class="cls-1" x1="199.32" y1="189.12" x2="199.54" y2="189.28"/><line class="cls-1" x1="200.62" y1="189.93" x2="200.83" y2="190.09"/><line class="cls-1" x1="202.08" y1="190.36" x2="202.35" y2="190.36"/><line class="cls-1" x1="203.59" y1="190.57" x2="203.8" y2="190.63"/><line class="cls-1" x1="205.05" y1="190.84" x2="205.32" y2="190.9"/><line class="cls-1" x1="206.61" y1="190.79" x2="206.88" y2="190.79"/><line class="cls-1" x1="208.18" y1="190.68" x2="208.45" y2="190.68"/><line class="cls-1" x1="208.93" y1="189.98" x2="208.88" y2="189.76"/><line class="cls-1" x1="208.45" y1="188.58" x2="208.39" y2="188.36"/><line class="cls-1" x1="208.02" y1="187.17" x2="207.91" y2="186.96"/><line class="cls-1" x1="207.53" y1="185.77" x2="207.48" y2="185.61"/><line class="cls-1" x1="207.48" y1="185.61" x2="207.42" y2="185.55"/><line class="cls-1" x1="206.67" y1="184.53" x2="206.5" y2="184.36"/><line class="cls-1" x1="205.75" y1="183.34" x2="205.59" y2="183.18"/><line class="cls-1" x1="204.83" y1="182.15" x2="204.67" y2="181.99"/><line class="cls-1" x1="203.91" y1="180.96" x2="203.75" y2="180.75"/><line class="cls-1" x1="202.94" y1="179.72" x2="202.78" y2="179.5"/><line class="cls-1" x1="201.97" y1="178.48" x2="201.81" y2="178.26"/><line class="cls-1" x1="201.05" y1="177.24" x2="201" y2="177.18"/><line class="cls-1" x1="201" y1="177.18" x2="200.89" y2="177.07"/><line class="cls-1" x1="199.92" y1="176.21" x2="199.75" y2="176.05"/><line class="cls-1" x1="198.78" y1="175.18" x2="198.62" y2="175.02"/><line class="cls-1" x1="197.65" y1="174.16" x2="197.49" y2="174"/><line class="cls-1" x1="196.51" y1="173.13" x2="196.35" y2="172.97"/><line class="cls-1" x1="195.38" y1="172.11" x2="195.22" y2="171.94"/><line class="cls-1" x1="194.25" y1="171.08" x2="194.08" y2="170.92"/><line class="cls-1" x1="193.11" y1="170.05" x2="192.95" y2="169.89"/><line class="cls-1" x1="191.98" y1="169.03" x2="191.82" y2="168.87"/><line class="cls-1" x1="190.84" y1="168" x2="190.68" y2="167.84"/><line class="cls-1" x1="189.71" y1="166.98" x2="189.55" y2="166.81"/><line class="cls-1" x1="188.58" y1="165.95" x2="188.41" y2="165.79"/><line class="cls-1" x1="187.44" y1="164.92" x2="187.28" y2="164.76"/><line class="cls-1" x1="186.31" y1="163.9" x2="186.15" y2="163.74"/><line class="cls-1" x1="185.17" y1="162.87" x2="185.17" y2="162.87"/><line class="cls-1" x1="185.17" y1="162.87" x2="185.01" y2="162.71"/><line class="cls-1" x1="184.04" y1="161.79" x2="183.88" y2="161.63"/><line class="cls-1" x1="182.91" y1="160.71" x2="182.74" y2="160.55"/><line class="cls-1" x1="181.77" y1="159.63" x2="181.61" y2="159.47"/><line class="cls-1" x1="180.64" y1="158.55" x2="180.48" y2="158.39"/><line class="cls-1" x1="179.5" y1="157.47" x2="179.34" y2="157.31"/><line class="cls-1" x1="178.48" y1="156.39" x2="178.42" y2="156.18"/><line class="cls-1" x1="177.94" y1="155.04" x2="177.83" y2="154.83"/><line class="cls-1" x1="177.07" y1="153.75" x2="176.91" y2="153.53"/><line class="cls-1" x1="176.1" y1="152.5" x2="175.94" y2="152.29"/><line class="cls-1" x1="175.18" y1="151.21" x2="175.08" y2="150.99"/><line class="cls-1" x1="174.48" y1="149.91" x2="174.43" y2="149.7"/><line class="cls-1" x1="173.94" y1="148.51" x2="173.78" y2="148.29"/><line class="cls-1" x1="173.13" y1="147.16" x2="173.02" y2="146.94"/><line class="cls-1" x1="172.32" y1="145.86" x2="172.16" y2="145.65"/><line class="cls-1" x1="171.46" y1="144.57" x2="171.3" y2="144.35"/><line class="cls-1" x1="170.54" y1="143.32" x2="170.38" y2="143.11"/><line class="cls-1" x1="169.62" y1="142.03" x2="169.51" y2="141.81"/><line class="cls-1" x1="168.87" y1="140.73" x2="168.76" y2="140.52"/><line class="cls-1" x1="168.11" y1="139.44" x2="168" y2="139.22"/><line class="cls-1" x1="167.3" y1="138.14" x2="167.14" y2="137.98"/><line class="cls-1" x1="166.6" y1="136.84" x2="166.54" y2="136.63"/><line class="cls-1" x1="166.87" y1="135.39" x2="166.87" y2="135.39"/><line class="cls-1" x1="166.87" y1="135.39" x2="167.03" y2="135.17"/><line class="cls-1" x1="167.62" y1="134.09" x2="167.68" y2="133.98"/><line class="cls-1" x1="167.68" y1="133.98" x2="167.73" y2="133.87"/><line class="cls-1" x1="168.16" y1="132.69" x2="168.22" y2="132.52"/><line class="cls-1" x1="168.22" y1="132.52" x2="168.22" y2="132.47"/><line class="cls-1" x1="168.49" y1="131.23" x2="168.49" y2="131.07"/><line class="cls-1" x1="168.49" y1="131.07" x2="168.49" y2="130.96"/><line class="cls-1" x1="168.7" y1="129.72" x2="168.76" y2="129.5"/><line class="cls-1" x1="169.03" y1="128.2" x2="169.14" y2="127.99"/><line class="cls-1" x1="169.62" y1="126.85" x2="169.73" y2="126.64"/><line class="cls-1" x1="170.49" y1="125.61" x2="170.65" y2="125.4"/><line class="cls-1" x1="171.46" y1="124.37" x2="171.62" y2="124.15"/><line class="cls-1" x1="172.43" y1="123.18" x2="172.59" y2="123.02"/><line class="cls-1" x1="173.46" y1="121.99" x2="173.62" y2="121.78"/><line class="cls-1" x1="174.43" y1="120.75" x2="174.59" y2="120.59"/><line class="cls-1" x1="175.45" y1="119.56" x2="175.62" y2="119.35"/><line class="cls-1" x1="176.48" y1="118.32" x2="176.64" y2="118.16"/><line class="cls-1" x1="177.51" y1="117.13" x2="177.67" y2="116.92"/><line class="cls-1" x1="178.48" y1="115.89" x2="178.64" y2="115.73"/><line class="cls-1" x1="179.45" y1="114.7" x2="179.61" y2="114.49"/><line class="cls-1" x1="180.42" y1="113.46" x2="180.58" y2="113.25"/><line class="cls-1" x1="181.34" y1="112.22" x2="181.5" y2="112.06"/><line class="cls-1" x1="182.26" y1="111.03" x2="182.42" y2="110.82"/><line class="cls-1" x1="183.18" y1="109.79" x2="183.34" y2="109.57"/><line class="cls-1" x1="184.09" y1="108.55" x2="184.26" y2="108.39"/><line class="cls-1" x1="185.01" y1="107.31" x2="185.17" y2="107.09"/><line class="cls-1" x1="185.93" y1="106.01" x2="186.09" y2="105.79"/><line class="cls-1" x1="186.85" y1="104.71" x2="187.01" y2="104.5"/><line class="cls-1" x1="187.77" y1="103.42" x2="187.93" y2="103.2"/><line class="cls-1" x1="188.68" y1="102.12" x2="188.74" y2="102.01"/><line class="cls-1" x1="188.74" y1="102.01" x2="188.79" y2="101.91"/><line class="cls-1" x1="189.55" y1="100.83" x2="189.66" y2="100.61"/><line class="cls-1" x1="190.41" y1="99.53" x2="190.57" y2="99.31"/><line class="cls-1" x1="191.28" y1="98.23" x2="191.44" y2="98.02"/><line class="cls-1" x1="192.14" y1="96.94" x2="192.3" y2="96.72"/><line class="cls-1" x1="193" y1="95.64" x2="193.17" y2="95.43"/><line class="cls-1" x1="193.81" y1="94.35" x2="193.92" y2="94.13"/><line class="cls-1" x1="194.52" y1="93" x2="194.62" y2="92.78"/><line class="cls-1" x1="195.22" y1="91.65" x2="195.38" y2="91.43"/><line class="cls-1" x1="195.97" y1="90.3" x2="196.08" y2="90.08"/><line class="cls-1" x1="196.68" y1="88.95" x2="196.78" y2="88.73"/><line class="cls-1" x1="197.32" y1="87.6" x2="197.43" y2="87.38"/><line class="cls-1" x1="197.97" y1="86.25" x2="198.08" y2="86.03"/><line class="cls-1" x1="198.62" y1="84.9" x2="198.73" y2="84.68"/><line class="cls-1" x1="199.27" y1="83.55" x2="199.38" y2="83.33"/><line class="cls-1" x1="199.92" y1="82.2" x2="200.02" y2="81.98"/><line class="cls-1" x1="200.56" y1="80.85" x2="200.67" y2="80.63"/><line class="cls-1" x1="201" y1="79.39" x2="201.05" y2="79.17"/><line class="cls-1" x1="201.37" y1="77.93" x2="201.43" y2="77.71"/><line class="cls-1" x1="201.75" y1="76.47" x2="201.81" y2="76.26"/><line class="cls-1" x1="202.13" y1="75.01" x2="202.18" y2="74.8"/><line class="cls-1" x1="202.24" y1="73.5" x2="202.24" y2="73.23"/><line class="cls-1" x1="202.24" y1="71.88" x2="202.24" y2="71.61"/><line class="cls-1" x1="202.24" y1="70.26" x2="202.24" y2="69.99"/><line class="cls-1" x1="201.7" y1="68.86" x2="201.59" y2="68.64"/><line class="cls-1" x1="201" y1="67.51" x2="200.89" y2="67.29"/><line class="cls-1" x1="200.13" y1="66.27" x2="199.97" y2="66.1"/><line class="cls-1" x1="199.11" y1="65.08" x2="198.94" y2="64.86"/><line class="cls-1" x1="197.86" y1="64.21" x2="197.65" y2="64.16"/><line class="cls-1" x1="196.46" y1="63.73" x2="196.24" y2="63.62"/><line class="cls-1" x1="195" y1="63.3" x2="194.73" y2="63.24"/><line class="cls-1" x1="193.49" y1="63.03" x2="193.27" y2="62.97"/><line class="cls-1" x1="191.98" y1="62.86" x2="191.71" y2="62.86"/><line class="cls-1" x1="190.36" y1="62.86" x2="190.09" y2="62.86"/><line class="cls-1" x1="188.79" y1="62.97" x2="188.58" y2="63.03"/><line class="cls-1" x1="187.33" y1="63.3" x2="187.12" y2="63.35"/><line class="cls-1" x1="185.88" y1="63.62" x2="185.66" y2="63.67"/><line class="cls-1" x1="184.47" y1="64.05" x2="184.26" y2="64.11"/><line class="cls-1" x1="183.07" y1="64.48" x2="182.85" y2="64.54"/><line class="cls-1" x1="181.66" y1="64.92" x2="181.45" y2="65.02"/><line class="cls-1" x1="180.26" y1="65.46" x2="180.04" y2="65.51"/><line class="cls-1" x1="178.86" y1="65.94" x2="178.64" y2="66"/><line class="cls-1" x1="177.56" y1="66.64" x2="177.4" y2="66.81"/><line class="cls-1" x1="176.32" y1="67.51" x2="176.16" y2="67.67"/><line class="cls-1" x1="175.08" y1="68.37" x2="174.91" y2="68.53"/><line class="cls-1" x1="173.89" y1="69.4" x2="173.73" y2="69.56"/><line class="cls-1" x1="172.75" y1="70.48" x2="172.54" y2="70.64"/><line class="cls-1" x1="171.57" y1="71.56" x2="171.4" y2="71.72"/><line class="cls-1" x1="170.49" y1="72.64" x2="170.32" y2="72.85"/><line class="cls-1" x1="169.46" y1="73.88" x2="169.3" y2="74.04"/><line class="cls-1" x1="168.49" y1="75.07" x2="168.33" y2="75.23"/><line class="cls-1" x1="167.46" y1="76.26" x2="167.3" y2="76.47"/><line class="cls-1" x1="166.6" y1="77.5" x2="166.44" y2="77.71"/><line class="cls-1" x1="165.79" y1="78.79" x2="165.63" y2="79.01"/><line class="cls-1" x1="164.98" y1="80.09" x2="164.82" y2="80.31"/><line class="cls-1" x1="164.17" y1="81.39" x2="164.01" y2="81.6"/><line class="cls-1" x1="163.36" y1="82.68" x2="163.25" y2="82.84"/><line class="cls-1" x1="163.25" y1="82.84" x2="163.25" y2="82.9"/><line class="cls-1" x1="162.71" y1="84.03" x2="162.66" y2="84.25"/><line class="cls-1" x1="162.12" y1="85.38" x2="162.01" y2="85.6"/><line class="cls-1" x1="161.52" y1="86.79" x2="161.41" y2="87"/><line class="cls-1" x1="160.93" y1="88.14" x2="160.82" y2="88.35"/><line class="cls-1" x1="160.33" y1="89.49" x2="160.23" y2="89.7"/><line class="cls-1" x1="159.74" y1="90.84" x2="159.63" y2="91.05"/><line class="cls-1" x1="159.15" y1="92.19" x2="159.04" y2="92.4"/><line class="cls-1" x1="158.61" y1="93.59" x2="158.5" y2="93.81"/><line class="cls-1" x1="158.01" y1="94.99" x2="157.96" y2="95.21"/><line class="cls-1" x1="157.47" y1="96.4" x2="157.36" y2="96.61"/><line class="cls-1" x1="156.93" y1="97.8" x2="156.82" y2="98.02"/><line class="cls-1" x1="156.39" y1="99.21" x2="156.28" y2="99.42"/><line class="cls-1" x1="155.91" y1="100.61" x2="155.8" y2="100.83"/><line class="cls-1" x1="155.42" y1="102.01" x2="155.31" y2="102.23"/><line class="cls-1" x1="154.93" y1="103.42" x2="154.83" y2="103.63"/><line class="cls-1" x1="154.45" y1="104.82" x2="154.34" y2="105.04"/><line class="cls-1" x1="153.96" y1="106.28" x2="153.91" y2="106.5"/><line class="cls-1" x1="153.58" y1="107.74" x2="153.53" y2="107.95"/><line class="cls-1" x1="153.21" y1="109.2" x2="153.15" y2="109.41"/><line class="cls-1" x1="152.77" y1="110.65" x2="152.72" y2="110.87"/><line class="cls-1" x1="152.4" y1="112.11" x2="152.34" y2="112.33"/><line class="cls-1" x1="151.91" y1="113.52" x2="151.86" y2="113.73"/><line class="cls-1" x1="151.37" y1="114.92" x2="151.32" y2="115.14"/><line class="cls-1" x1="150.72" y1="116.27" x2="150.61" y2="116.49"/><line class="cls-1" x1="150.02" y1="117.62" x2="149.91" y2="117.84"/><line class="cls-1" x1="149.26" y1="160.23" x2="149.16" y2="160.01"/><line class="cls-1" x1="148.56" y1="158.88" x2="148.51" y2="158.66"/><line class="cls-1" x1="147.59" y1="157.74" x2="147.59" y2="157.74"/><line class="cls-1" x1="147.59" y1="157.74" x2="147.37" y2="157.85"/><line class="cls-1" x1="146.24" y1="158.34" x2="146.02" y2="158.39"/><line class="cls-1" x1="144.73" y1="158.44" x2="144.46" y2="158.44"/><line class="cls-1" x1="143.38" y1="159.09" x2="143.22" y2="159.25"/><line class="cls-1" x1="142.24" y1="160.17" x2="142.03" y2="160.28"/><line class="cls-1" x1="141" y1="161.04" x2="140.79" y2="161.14"/><line class="cls-1" x1="139.71" y1="161.79" x2="139.49" y2="161.9"/><line class="cls-1" x1="138.36" y1="162.44" x2="138.14" y2="162.55"/><line class="cls-1" x1="137.01" y1="163.03" x2="136.79" y2="162.98"/><line class="cls-1" x1="135.55" y1="163.25" x2="135.33" y2="163.41"/><line class="cls-1" x1="134.31" y1="164.22" x2="134.09" y2="164.38"/><line class="cls-1" x1="133.12" y1="165.25" x2="132.96" y2="165.41"/><line class="cls-1" x1="131.98" y1="166.27" x2="131.82" y2="166.44"/><line class="cls-1" x1="130.85" y1="167.35" x2="130.69" y2="167.52"/><line class="cls-1" x1="129.72" y1="168.43" x2="129.5" y2="168.6"/><line class="cls-1" x1="128.53" y1="169.51" x2="128.37" y2="169.68"/><line class="cls-1" x1="127.39" y1="170.59" x2="127.18" y2="170.76"/><line class="cls-1" x1="126.21" y1="171.67" x2="126.04" y2="171.84"/><line class="cls-1" x1="125.07" y1="172.7" x2="124.91" y2="172.86"/><line class="cls-1" x1="123.94" y1="173.78" x2="123.72" y2="173.94"/><line class="cls-1" x1="122.75" y1="174.86" x2="122.53" y2="175.02"/><line class="cls-1" x1="121.56" y1="175.94" x2="121.4" y2="176.1"/><line class="cls-1" x1="120.43" y1="177.02" x2="120.21" y2="177.18"/><line class="cls-1" x1="119.24" y1="178.1" x2="119.08" y2="178.26"/><line class="cls-1" x1="118.11" y1="179.18" x2="117.89" y2="179.34"/><line class="cls-1" x1="116.92" y1="180.26" x2="116.76" y2="180.42"/><line class="cls-1" x1="115.78" y1="181.34" x2="115.62" y2="181.5"/><line class="cls-1" x1="114.65" y1="182.37" x2="114.49" y2="182.53"/><line class="cls-1" x1="113.52" y1="183.39" x2="113.35" y2="183.55"/><line class="cls-1" x1="112.27" y1="184.31" x2="112.06" y2="184.42"/><line class="cls-1" x1="111.03" y1="185.17" x2="110.82" y2="185.34"/><line class="cls-1" x1="109.74" y1="186.09" x2="109.52" y2="186.25"/><line class="cls-1" x1="108.44" y1="187.01" x2="108.22" y2="187.12"/><line class="cls-1" x1="107.2" y1="187.87" x2="107.04" y2="187.98"/><line class="cls-1" x1="107.04" y1="187.98" x2="106.98" y2="188.04"/><line class="cls-1" x1="105.85" y1="188.63" x2="105.63" y2="188.74"/><line class="cls-1" x1="104.5" y1="189.33" x2="104.28" y2="189.44"/><line class="cls-1" x1="103.15" y1="190.03" x2="102.93" y2="190.14"/><line class="cls-1" x1="101.8" y1="190.74" x2="101.58" y2="190.84"/><line class="cls-1" x1="100.45" y1="191.44" x2="100.23" y2="191.55"/><line class="cls-1" x1="99.1" y1="192.09" x2="98.88" y2="192.19"/><line class="cls-1" x1="97.75" y1="192.73" x2="97.53" y2="192.84"/><line class="cls-1" x1="96.4" y1="193.38" x2="96.18" y2="193.49"/><line class="cls-1" x1="95.05" y1="194.03" x2="94.83" y2="194.14"/><line class="cls-1" x1="94.29" y1="193.27" x2="94.24" y2="193.06"/><line class="cls-1" x1="93.86" y1="191.87" x2="93.75" y2="191.65"/><line class="cls-1" x1="94.13" y1="190.52" x2="94.29" y2="190.3"/><line class="cls-1" x1="94.94" y1="189.22" x2="95.1" y2="189.01"/><line class="cls-1" x1="95.8" y1="187.93" x2="95.91" y2="187.71"/><line class="cls-1" x1="96.61" y1="186.63" x2="96.78" y2="186.42"/><line class="cls-1" x1="97.42" y1="185.34" x2="97.59" y2="185.12"/><line class="cls-1" x1="98.29" y1="184.04" x2="98.4" y2="183.82"/><line class="cls-1" x1="99.1" y1="182.74" x2="99.1" y2="182.74"/><line class="cls-1" x1="99.1" y1="182.74" x2="99.26" y2="182.53"/><line class="cls-1" x1="100.02" y1="181.45" x2="100.12" y2="181.23"/><line class="cls-1" x1="100.88" y1="180.15" x2="101.04" y2="179.94"/><line class="cls-1" x1="101.8" y1="178.86" x2="101.91" y2="178.64"/><line class="cls-1" x1="102.66" y1="177.56" x2="102.82" y2="177.34"/><line class="cls-1" x1="103.58" y1="176.26" x2="103.69" y2="176.05"/><line class="cls-1" x1="104.44" y1="175.02" x2="104.61" y2="174.86"/><line class="cls-1" x1="105.47" y1="173.83" x2="105.63" y2="173.62"/><line class="cls-1" x1="106.5" y1="172.59" x2="106.66" y2="172.38"/><line class="cls-1" x1="107.52" y1="171.35" x2="107.68" y2="171.19"/><line class="cls-1" x1="108.55" y1="170.16" x2="108.71" y2="169.95"/><line class="cls-1" x1="109.57" y1="168.92" x2="109.74" y2="168.7"/><line class="cls-1" x1="110.6" y1="167.68" x2="110.6" y2="167.68"/><line class="cls-1" x1="110.6" y1="167.68" x2="110.76" y2="167.52"/><line class="cls-1" x1="111.73" y1="166.6" x2="111.9" y2="166.44"/><line class="cls-1" x1="112.87" y1="165.52" x2="113.03" y2="165.36"/><line class="cls-1" x1="114" y1="164.44" x2="114.16" y2="164.28"/><line class="cls-1" x1="115.14" y1="163.36" x2="115.3" y2="163.2"/><line class="cls-1" x1="116.27" y1="162.28" x2="116.49" y2="162.12"/><line class="cls-1" x1="117.4" y1="161.2" x2="117.62" y2="161.04"/><line class="cls-1" x1="118.59" y1="160.12" x2="118.75" y2="159.96"/><line class="cls-1" x1="119.73" y1="159.04" x2="119.89" y2="158.88"/><line class="cls-1" x1="120.81" y1="157.96" x2="120.97" y2="157.74"/><line class="cls-1" x1="121.89" y1="156.82" x2="122.05" y2="156.66"/><line class="cls-1" x1="122.97" y1="155.69" x2="123.13" y2="155.53"/><line class="cls-1" x1="124.05" y1="154.56" x2="124.21" y2="154.39"/><line class="cls-1" x1="124.15" y1="153.31" x2="124.1" y2="153.15"/><line class="cls-1" x1="124.1" y1="153.15" x2="124.15" y2="153.1"/><line class="cls-1" x1="124.69" y1="151.96" x2="124.8" y2="151.75"/><line class="cls-1" x1="125.4" y1="150.61" x2="125.5" y2="150.4"/><line class="cls-1" x1="126.1" y1="149.26" x2="126.21" y2="149.05"/><line class="cls-1" x1="126.8" y1="147.91" x2="126.91" y2="147.7"/><line class="cls-1" x1="127.56" y1="146.62" x2="127.72" y2="146.4"/><line class="cls-1" x1="128.42" y1="145.32" x2="128.58" y2="145.11"/><line class="cls-1" x1="129.23" y1="144.03" x2="129.39" y2="143.81"/><line class="cls-1" x1="130.09" y1="142.73" x2="130.09" y2="142.73"/><line class="cls-1" x1="130.09" y1="142.73" x2="130.2" y2="142.51"/><line class="cls-1" x1="130.8" y1="141.43" x2="130.9" y2="141.22"/><line class="cls-1" x1="131.5" y1="140.08" x2="131.61" y2="139.87"/><line class="cls-1" x1="132.2" y1="138.73" x2="132.31" y2="138.52"/><line class="cls-1" x1="132.69" y1="137.33" x2="132.74" y2="137.17"/><line class="cls-1" x1="132.74" y1="137.17" x2="132.74" y2="137.11"/><line class="cls-1" x1="132.63" y1="135.82" x2="132.63" y2="135.55"/><line class="cls-1" x1="132.25" y1="134.36" x2="132.15" y2="134.14"/><line class="cls-1" x1="131.61" y1="133.01" x2="131.44" y2="132.85"/><line class="cls-1" x1="130.85" y1="131.77" x2="130.85" y2="131.77"/><line class="cls-1" x1="130.85" y1="131.77" x2="130.74" y2="131.55"/><line class="cls-1" x1="130.36" y1="130.36" x2="130.31" y2="130.15"/><line class="cls-1" x1="130.42" y1="128.85" x2="130.53" y2="128.64"/><line class="cls-1" x1="130.04" y1="127.45" x2="129.88" y2="127.23"/><line class="cls-1" x1="129.18" y1="126.15" x2="129.07" y2="125.94"/><line class="cls-1" x1="128.42" y1="124.86" x2="128.42" y2="124.86"/><line class="cls-1" x1="128.42" y1="124.86" x2="128.31" y2="124.64"/><line class="cls-1" x1="127.66" y1="123.56" x2="127.5" y2="123.34"/><line class="cls-1" x1="126.85" y1="122.26" x2="126.75" y2="122.05"/><line class="cls-1" x1="126.1" y1="120.91" x2="125.99" y2="120.7"/><line class="cls-1" x1="125.34" y1="119.56" x2="125.23" y2="119.35"/><line class="cls-1" x1="124.8" y1="118.16" x2="124.69" y2="117.94"/><line class="cls-1" x1="124.15" y1="116.81" x2="124.05" y2="116.59"/><line class="cls-1" x1="123.4" y1="115.51" x2="123.29" y2="115.3"/><line class="cls-1" x1="122.64" y1="114.22" x2="122.48" y2="114"/><line class="cls-1" x1="121.83" y1="112.92" x2="121.67" y2="112.71"/><line class="cls-1" x1="121.02" y1="111.63" x2="120.91" y2="111.41"/><line class="cls-1" x1="120.21" y1="110.33" x2="120.1" y2="110.11"/><line class="cls-1" x1="119.46" y1="109.03" x2="119.29" y2="108.82"/><line class="cls-1" x1="118.65" y1="107.74" x2="118.54" y2="107.52"/><line class="cls-1" x1="117.84" y1="106.44" x2="117.73" y2="106.23"/><line class="cls-1" x1="117.13" y1="105.09" x2="116.97" y2="104.88"/><line class="cls-1" x1="116.38" y1="103.74" x2="116.27" y2="103.53"/><line class="cls-1" x1="115.68" y1="102.45" x2="115.51" y2="102.23"/><line class="cls-1" x1="114.92" y1="101.1" x2="114.92" y2="101.1"/><line class="cls-1" x1="114.92" y1="101.1" x2="114.81" y2="100.88"/><line class="cls-1" x1="114.16" y1="99.75" x2="114.06" y2="99.53"/><line class="cls-1" x1="113.46" y1="98.4" x2="113.35" y2="98.18"/><line class="cls-1" x1="112.71" y1="97.05" x2="112.6" y2="96.83"/><line class="cls-1" x1="112" y1="95.7" x2="111.9" y2="95.48"/><line class="cls-1" x1="111.3" y1="94.35" x2="111.19" y2="94.13"/><line class="cls-1" x1="110.76" y1="92.94" x2="110.65" y2="92.73"/><line class="cls-1" x1="110.22" y1="91.54" x2="110.11" y2="91.32"/><line class="cls-1" x1="109.68" y1="90.13" x2="109.57" y2="89.92"/><line class="cls-1" x1="109.14" y1="88.73" x2="109.09" y2="88.51"/><line class="cls-1" x1="108.71" y1="87.27" x2="108.66" y2="87.06"/><line class="cls-1" x1="108.33" y1="85.81" x2="108.28" y2="85.6"/><line class="cls-1" x1="107.9" y1="84.36" x2="107.85" y2="84.14"/><line class="cls-1" x1="107.52" y1="82.9" x2="107.47" y2="82.63"/><line class="cls-1" x1="107.2" y1="81.39" x2="107.14" y2="81.17"/><line class="cls-1" x1="106.87" y1="79.93" x2="106.82" y2="79.71"/><line class="cls-1" x1="106.55" y1="78.47" x2="106.5" y2="78.2"/><line class="cls-1" x1="106.5" y1="76.96" x2="106.6" y2="76.74"/><line class="cls-1" x1="107.04" y1="75.55" x2="107.14" y2="75.34"/><line class="cls-1" x1="107.85" y1="74.53" x2="108.12" y2="74.53"/><line class="cls-1" x1="109.41" y1="74.69" x2="109.63" y2="74.74"/><line class="cls-1" x1="110.92" y1="74.85" x2="111.19" y2="74.85"/><line class="cls-1" x1="112.49" y1="74.96" x2="112.76" y2="75.01"/><line class="cls-1" x1="114.06" y1="75.12" x2="114.27" y2="75.18"/><line class="cls-1" x1="115.51" y1="75.45" x2="115.73" y2="75.5"/><line class="cls-1" x1="116.97" y1="75.77" x2="117.13" y2="75.82"/><line class="cls-1" x1="117.13" y1="75.82" x2="117.19" y2="75.82"/><line class="cls-1" x1="118.32" y1="76.31" x2="118.54" y2="76.42"/><line class="cls-1" x1="119.67" y1="76.9" x2="119.89" y2="77.01"/><line class="cls-1" x1="121.02" y1="77.55" x2="121.24" y2="77.66"/><line class="cls-1" x1="122.32" y1="78.31" x2="122.53" y2="78.42"/><line class="cls-1" x1="123.61" y1="79.06" x2="123.83" y2="79.17"/><line class="cls-1" x1="124.91" y1="79.87" x2="125.13" y2="80.04"/><line class="cls-1" x1="126.21" y1="80.74" x2="126.42" y2="80.9"/><line class="cls-1" x1="127.45" y1="81.66" x2="127.61" y2="81.82"/><line class="cls-1" x1="128.53" y1="82.74" x2="128.69" y2="82.9"/><line class="cls-1" x1="129.66" y1="83.82" x2="129.82" y2="83.98"/><line class="cls-1" x1="130.74" y1="84.9" x2="130.9" y2="85.11"/><line class="cls-1" x1="131.71" y1="86.14" x2="131.88" y2="86.35"/><line class="cls-1" x1="132.69" y1="87.38" x2="132.85" y2="87.6"/><line class="cls-1" x1="133.66" y1="88.62" x2="133.82" y2="88.84"/><line class="cls-1" x1="134.52" y1="89.86" x2="134.63" y2="90.08"/><line class="cls-1" x1="135.28" y1="91.16" x2="135.39" y2="91.38"/><line class="cls-1" x1="136.03" y1="92.46" x2="136.2" y2="92.67"/><line class="cls-1" x1="136.84" y1="93.81" x2="136.95" y2="94.02"/><line class="cls-1" x1="137.6" y1="95.1" x2="137.71" y2="95.26"/><line class="cls-1" x1="137.71" y1="95.26" x2="137.76" y2="95.32"/><line class="cls-1" x1="138.36" y1="96.45" x2="138.46" y2="96.67"/><line class="cls-1" x1="139.06" y1="97.8" x2="139.22" y2="98.02"/><line class="cls-1" x1="139.81" y1="99.15" x2="139.92" y2="99.37"/><line class="cls-1" x1="140.52" y1="100.5" x2="140.62" y2="100.72"/><line class="cls-1" x1="141.11" y1="101.85" x2="141.22" y2="102.07"/><line class="cls-1" x1="141.7" y1="103.26" x2="141.76" y2="103.47"/><line class="cls-1" x1="142.24" y1="104.61" x2="142.3" y2="104.82"/><line class="cls-1" x1="142.78" y1="105.96" x2="142.89" y2="106.17"/><line class="cls-1" x1="143.38" y1="107.36" x2="143.43" y2="107.58"/><line class="cls-1" x1="143.92" y1="108.76" x2="144.03" y2="108.98"/><line class="cls-1" x1="144.46" y1="110.17" x2="144.57" y2="110.38"/><line class="cls-1" x1="145.05" y1="111.57" x2="145.11" y2="111.79"/><line class="cls-1" x1="145.59" y1="112.92" x2="145.65" y2="113.14"/><line class="cls-1" x1="146.13" y1="114.33" x2="146.19" y2="114.54"/><line class="cls-1" x1="146.67" y1="115.73" x2="146.73" y2="115.95"/><line class="cls-1" x1="147.32" y1="117.08" x2="147.43" y2="117.3"/><line class="cls-1" x1="148.18" y1="118.32" x2="148.4" y2="118.48"/><line class="cls-1" x1="149.64" y1="118.27" x2="149.7" y2="118.27"/></g></svg>