<?xml version="1.0" encoding="utf-8"?>
<!-- Generator: Adobe Illustrator 22.1.0, SVG Export Plug-In . SVG Version: 6.00 Build 0)  -->
<svg version="1.1" id="Ray_T" xmlns="http://www.w3.org/2000/svg" xmlns:xlink="http://www.w3.org/1999/xlink" x="0px" y="0px"
	 viewBox="0 0 300 263" style="enable-background:new 0 0 300 263;" xml:space="preserve">
<style type="text/css">
	.st0{fill:none;stroke:#000000;stroke-width:0.5;}
	.st1{clip-path:url(#SVGID_2_);fill:none;stroke:#1D1D1B;stroke-width:0.5;stroke-miterlimit:3.86;}
	.st2{clip-path:url(#SVGID_2_);fill:none;}
	.st3{clip-path:url(#SVGID_2_);fill:none;stroke:#1D1D1B;stroke-width:0.5;}
</style>
<title>ray-table-dordoni-flos-F5911009-spech-tech-02-300x263</title>
<line class="st0" x1="100.5" y1="36.4" x2="199.5" y2="36.4"/>
<line class="st0" x1="100.5" y1="35.8" x2="100.5" y2="37.1"/>
<line class="st0" x1="199.5" y1="35.8" x2="199.5" y2="37.1"/>
<line class="st0" x1="91.3" y1="218.3" x2="91.3" y2="48.2"/>
<line class="st0" x1="89.6" y1="218.3" x2="93" y2="218.3"/>
<line class="st0" x1="89.6" y1="48.2" x2="93" y2="48.2"/>
<g>
	<path d="M122.7,21.7c0.3,0.3,0.5,0.7,0.7,1.1c0.3,1,0.3,2-0.1,3c-0.4,1-1.2,1.8-2.2,2.1c-1,0.4-2.1,0.4-3.1,0.1
		c-0.4-0.1-0.8-0.3-1.2-0.6l-1.1,1l-0.5-0.5l1.1-1.1c-0.3-0.3-0.6-0.7-0.7-1.2c-0.2-0.5-0.3-0.9-0.2-1.4c0-0.5,0.1-1.1,0.3-1.6
		c0.2-0.5,0.5-0.9,0.9-1.2c0.4-0.4,0.8-0.6,1.3-0.8c1-0.4,2.1-0.4,3.1-0.1c0.4,0.1,0.8,0.3,1.2,0.6l1.1-1.1l0.5,0.5L122.7,21.7z
		 M121.4,22c-0.5-0.4-1.2-0.6-1.9-0.6c-0.4,0-0.8,0.1-1.2,0.2c-0.3,0.1-0.7,0.4-0.9,0.6c-0.3,0.3-0.4,0.6-0.6,0.9
		c-0.1,0.4-0.2,0.8-0.2,1.2c0,0.7,0.2,1.3,0.6,1.8L121.4,22z M117.7,26.7c0.3,0.2,0.5,0.3,0.8,0.5c0.3,0.1,0.7,0.2,1,0.2
		c0.4,0,0.8-0.1,1.2-0.2c0.3-0.1,0.7-0.4,0.9-0.6c0.3-0.3,0.5-0.6,0.6-0.9c0.1-0.4,0.2-0.8,0.2-1.2c0-0.7-0.2-1.3-0.6-1.8
		L117.7,26.7z"/>
	<path d="M132.5,21.6h0.6c0.3,0,0.7,0,1-0.1c0.3-0.1,0.6-0.2,0.8-0.4c0.2-0.2,0.4-0.4,0.6-0.6c0.2-0.3,0.2-0.7,0.2-1
		c0-0.5-0.2-1.1-0.6-1.4c-0.5-0.4-1-0.5-1.6-0.5c-0.5,0-0.9,0.1-1.3,0.3c-0.4,0.2-0.7,0.5-0.9,0.9l-1-0.5c0.3-0.5,0.8-1,1.3-1.3
		c0.6-0.3,1.2-0.5,1.9-0.4c0.4,0,0.9,0.1,1.3,0.2c0.4,0.1,0.8,0.3,1.1,0.6c0.3,0.2,0.6,0.6,0.7,0.9c0.2,0.4,0.3,0.8,0.3,1.3
		c0,0.3,0,0.6-0.1,0.9c-0.1,0.3-0.3,0.5-0.4,0.8c-0.2,0.2-0.4,0.4-0.6,0.6c-0.2,0.2-0.5,0.3-0.8,0.4h0.1c0.3,0.1,0.6,0.2,0.9,0.4
		c0.6,0.4,1,0.9,1.2,1.5c0.1,0.3,0.2,0.7,0.2,1c0,0.9-0.4,1.8-1.1,2.4c-0.4,0.3-0.8,0.5-1.2,0.6c-0.5,0.2-1,0.2-1.4,0.2
		c-0.8,0-1.6-0.2-2.2-0.5c-0.7-0.4-1.2-1-1.5-1.7l1.3-0.4c0.2,0.5,0.5,0.9,0.9,1.2c0.5,0.3,1.1,0.4,1.6,0.4c0.3,0,0.6-0.1,0.9-0.2
		c0.3-0.1,0.6-0.3,0.8-0.5c0.5-0.4,0.8-1,0.8-1.6c0-0.4-0.1-0.7-0.2-1.1c-0.2-0.3-0.4-0.5-0.7-0.7c-0.3-0.2-0.6-0.3-1-0.4
		c-0.4-0.1-0.7-0.1-1.1-0.1h-0.5V21.6z"/>
	<path d="M141.5,21.6L141.5,21.6c0.2-0.1,0.5-0.2,0.8-0.3c0.3-0.1,0.6-0.1,0.9-0.1c0.5,0,1,0.1,1.4,0.3c0.4,0.2,0.8,0.4,1.1,0.7
		c0.3,0.3,0.6,0.7,0.8,1.1c0.2,0.4,0.3,0.9,0.3,1.4c0,0.5-0.1,1-0.3,1.4c-0.2,0.4-0.5,0.8-0.8,1.1c-0.4,0.3-0.8,0.6-1.2,0.7
		c-1,0.3-2,0.3-3,0c-0.4-0.2-0.9-0.4-1.2-0.7c-0.3-0.3-0.6-0.7-0.8-1.1c-0.2-0.4-0.3-0.9-0.3-1.4c0-0.6,0.1-1.1,0.3-1.6
		c0.2-0.5,0.4-0.9,0.7-1.4l3.2-5h1.4L141.5,21.6z M140.3,24.8c0,0.3,0.1,0.7,0.2,1c0.1,0.3,0.3,0.6,0.5,0.8c0.2,0.2,0.5,0.4,0.8,0.5
		c0.7,0.2,1.4,0.2,2.1,0c0.3-0.1,0.6-0.3,0.8-0.5c0.2-0.2,0.4-0.5,0.5-0.8c0.3-0.6,0.3-1.4,0-2c-0.1-0.3-0.3-0.6-0.5-0.8
		c-0.2-0.2-0.5-0.4-0.8-0.5c-0.7-0.2-1.4-0.2-2.1,0c-0.3,0.1-0.6,0.3-0.8,0.5c-0.2,0.2-0.4,0.5-0.5,0.8
		C140.4,24,140.3,24.4,140.3,24.8z"/>
	<path d="M152.2,16.5c0.7,0,1.4,0.2,2,0.6c0.5,0.4,0.9,0.9,1.2,1.4c0.3,0.6,0.5,1.2,0.6,1.9c0.1,0.7,0.1,1.3,0.1,2
		c0,0.7-0.1,1.3-0.1,2c-0.1,0.7-0.3,1.3-0.6,1.9c-0.3,0.6-0.7,1.1-1.2,1.4c-1.3,0.7-2.8,0.7-4.1,0c-0.5-0.4-0.9-0.9-1.2-1.4
		c-0.3-0.6-0.5-1.2-0.6-1.9c-0.1-0.7-0.1-1.3-0.1-2c0-0.7,0.1-1.3,0.1-2c0.1-0.7,0.3-1.3,0.6-1.9c0.3-0.6,0.7-1.1,1.2-1.4
		C150.7,16.7,151.4,16.5,152.2,16.5z M152.2,17.6c-0.6,0-1.1,0.1-1.5,0.5c-0.4,0.3-0.7,0.8-0.8,1.2c-0.2,0.5-0.3,1-0.4,1.6
		c-0.1,0.5-0.1,1-0.1,1.5s0,1,0.1,1.5c0,0.5,0.2,1.1,0.4,1.6c0.2,0.5,0.5,0.9,0.8,1.2c0.9,0.6,2.1,0.6,3,0c0.4-0.3,0.7-0.8,0.8-1.2
		c0.2-0.5,0.3-1,0.4-1.6c0.1-0.6,0.1-1.1,0.1-1.5s0-1-0.1-1.5c0-0.5-0.2-1.1-0.4-1.6c-0.2-0.5-0.5-0.9-0.8-1.2
		C153.2,17.7,152.7,17.6,152.2,17.6z"/>
	<path d="M162.6,22.2c0-0.3,0-0.5,0-0.8l-0.1-0.8h1.2v1.1l0,0c0.3-0.4,0.7-0.8,1.1-1c0.4-0.2,0.9-0.3,1.4-0.3c0.2,0,0.4,0,0.7,0.1
		c0.5,0.1,1,0.3,1.3,0.7c0.2,0.2,0.4,0.5,0.5,0.8c0.2-0.5,0.6-0.9,1-1.1c0.5-0.3,1-0.4,1.5-0.4c0.8-0.1,1.6,0.2,2.2,0.8
		c0.5,0.6,0.8,1.4,0.7,2.2v4.8H173v-4.4c0-0.6-0.1-1.2-0.4-1.8c-0.4-0.4-1-0.7-1.6-0.6c-0.3,0-0.7,0.1-1,0.2
		c-0.3,0.1-0.5,0.4-0.7,0.6c-0.2,0.3-0.3,0.6-0.4,0.9c-0.1,0.3-0.1,0.7-0.1,1v4h-1.1v-4.4c0-0.6-0.1-1.2-0.4-1.8
		c-0.4-0.4-1-0.7-1.6-0.6l-0.5,0.1c-0.3,0.1-0.5,0.2-0.7,0.4c-0.3,0.2-0.5,0.5-0.7,0.9c-0.2,0.5-0.3,1-0.3,1.6v3.8h-1.1L162.6,22.2z
		"/>
	<path d="M176.8,22.2c0-0.3,0-0.5,0-0.8l-0.1-0.8h1.2v1.1l0,0c0.3-0.4,0.6-0.8,1.1-1c0.4-0.2,0.9-0.3,1.4-0.3c0.2,0,0.5,0,0.7,0.1
		c0.2,0,0.5,0.1,0.7,0.2c0.2,0.1,0.4,0.3,0.6,0.5c0.2,0.2,0.4,0.5,0.5,0.8c0.2-0.5,0.6-0.9,1-1.1c0.5-0.3,1-0.4,1.5-0.4
		c0.8-0.1,1.6,0.2,2.2,0.8c0.5,0.6,0.8,1.4,0.7,2.2v4.8h-1.1v-4.4c0-0.6-0.1-1.2-0.4-1.8c-0.4-0.4-1-0.7-1.6-0.6
		c-0.3,0-0.7,0.1-1,0.2c-0.3,0.1-0.5,0.4-0.7,0.6c-0.2,0.3-0.3,0.6-0.4,0.9c-0.1,0.3-0.1,0.7-0.1,1v4H182v-4.4
		c0-0.6-0.1-1.2-0.4-1.8c-0.4-0.4-1-0.7-1.5-0.6l-0.5,0.1c-0.3,0.1-0.5,0.2-0.7,0.4c-0.3,0.2-0.5,0.5-0.7,0.9
		c-0.2,0.5-0.3,1-0.3,1.6v3.8h-1.1V22.2z"/>
</g>
<g>
	<path d="M74.7,159.3L74.7,159.3c-0.1-0.2-0.2-0.5-0.3-0.7c-0.1-0.3-0.1-0.6-0.1-0.8c0-0.5,0.1-0.9,0.3-1.4c0.2-0.4,0.4-0.8,0.7-1.1
		c0.3-0.3,0.7-0.6,1.1-0.7c0.4-0.2,0.9-0.3,1.4-0.3c0.5,0,1,0.1,1.4,0.3c0.4,0.2,0.8,0.4,1.1,0.8c0.3,0.3,0.6,0.7,0.7,1.2
		c0.3,1,0.3,2,0,2.9c-0.2,0.4-0.4,0.8-0.7,1.2c-0.3,0.3-0.7,0.6-1.1,0.8c-0.5,0.2-0.9,0.3-1.4,0.3c-0.6,0-1.1-0.1-1.7-0.3
		c-0.5-0.2-0.9-0.4-1.4-0.7l-5-3.1v-1.4L74.7,159.3z M77.8,160.5c0.3,0,0.7-0.1,1-0.2c0.3-0.1,0.6-0.3,0.8-0.5
		c0.2-0.2,0.4-0.5,0.5-0.8c0.2-0.7,0.2-1.4,0-2.1c-0.1-0.3-0.3-0.6-0.5-0.8c-0.2-0.2-0.5-0.4-0.8-0.5c-0.3-0.1-0.7-0.2-1-0.2
		c-0.3,0-0.7,0.1-1,0.2c-0.3,0.1-0.6,0.3-0.8,0.5c-0.2,0.2-0.4,0.5-0.5,0.8c-0.3,0.7-0.3,1.4,0,2.1c0.1,0.3,0.3,0.6,0.5,0.8
		c0.2,0.2,0.5,0.4,0.8,0.5C77.1,160.4,77.5,160.5,77.8,160.5L77.8,160.5z"/>
	<path d="M70.9,145.9l10.3,4.6v1.3l-10.3-4.7v5.5h-1v-6.7H70.9z"/>
	<path d="M69.6,140.2c0-0.7,0.2-1.4,0.6-2c0.4-0.5,0.9-0.9,1.4-1.2c0.6-0.3,1.2-0.5,1.9-0.6c1.3-0.2,2.7-0.2,4,0
		c0.7,0.1,1.3,0.3,1.9,0.6c0.6,0.3,1.1,0.7,1.4,1.2c0.7,1.2,0.7,2.7,0,3.9c-0.4,0.5-0.9,0.9-1.4,1.2c-0.6,0.3-1.2,0.5-1.9,0.6
		c-1.3,0.2-2.7,0.2-4,0c-0.7-0.1-1.3-0.3-1.9-0.6c-0.6-0.3-1.1-0.7-1.4-1.2C69.8,141.5,69.6,140.9,69.6,140.2z M70.7,140.2
		c0,0.5,0.1,1.1,0.5,1.5c0.3,0.4,0.8,0.6,1.2,0.8c0.5,0.2,1,0.3,1.6,0.3c0.6,0.1,1,0.1,1.5,0.1s1,0,1.5-0.1c0.5,0,1.1-0.2,1.6-0.3
		c0.5-0.2,0.9-0.4,1.2-0.8c0.7-0.9,0.7-2.1,0-2.9c-0.3-0.4-0.8-0.6-1.2-0.8c-0.5-0.2-1-0.3-1.6-0.3c-0.6-0.1-1-0.1-1.5-0.1
		s-1,0-1.5,0.1c-0.5,0-1.1,0.2-1.6,0.3c-0.5,0.2-0.9,0.4-1.2,0.8C70.8,139.1,70.6,139.6,70.7,140.2z"/>
	<path d="M75.3,130.1c-0.3,0-0.6,0-0.8,0l-0.8,0.1v-1.1h1.1l0,0c-0.4-0.2-0.8-0.6-1-1.1c-0.2-0.4-0.3-0.9-0.3-1.3
		c0-0.2,0-0.4,0.1-0.7c0.1-0.5,0.3-0.9,0.7-1.3c0.2-0.2,0.5-0.4,0.8-0.5c-0.5-0.2-0.9-0.6-1.1-1c-0.7-1.1-0.5-2.6,0.3-3.6
		c0.6-0.5,1.4-0.7,2.2-0.7h4.8v1h-4.3c-0.6,0-1.2,0.1-1.8,0.4c-0.4,0.4-0.7,0.9-0.6,1.5c0,0.3,0.1,0.7,0.2,1
		c0.1,0.3,0.4,0.5,0.6,0.7c0.3,0.2,0.6,0.3,0.9,0.4c0.3,0.1,0.7,0.1,1,0.1h4v1.1h-4.4c-0.6,0-1.2,0.1-1.8,0.4
		c-0.4,0.4-0.7,0.9-0.6,1.5c0,0.1,0,0.2,0.1,0.4c0.1,0.3,0.2,0.5,0.3,0.7c0.2,0.3,0.5,0.5,0.9,0.7c0.5,0.2,1.1,0.3,1.6,0.3h3.8v1.1
		H75.3z"/>
	<path d="M75.3,116.5c-0.3,0-0.6,0-0.8,0h-0.8v-1.1h1.1l0,0c-0.4-0.2-0.8-0.6-1-1.1c-0.2-0.4-0.3-0.9-0.3-1.3c0-0.2,0-0.4,0.1-0.7
		c0-0.2,0.1-0.5,0.2-0.7c0.3-0.5,0.7-0.8,1.2-1c-0.5-0.2-0.9-0.6-1.1-1c-0.7-1.1-0.5-2.6,0.3-3.6c0.6-0.5,1.4-0.7,2.2-0.7h4.8v1
		h-4.3c-0.6,0-1.2,0.1-1.8,0.4c-0.4,0.4-0.7,0.9-0.6,1.5c0,0.3,0.1,0.7,0.2,1c0.1,0.3,0.4,0.5,0.6,0.7c0.3,0.2,0.6,0.3,0.9,0.4
		c0.3,0.1,0.7,0.1,1,0.1h4v1.1h-4.4c-0.6,0-1.2,0.1-1.8,0.4c-0.4,0.4-0.7,0.9-0.6,1.5c0,0.1,0,0.2,0.1,0.4c0.1,0.3,0.2,0.5,0.3,0.7
		c0.2,0.3,0.5,0.5,0.9,0.7c0.5,0.2,1.1,0.3,1.6,0.3h3.8v1L75.3,116.5z"/>
</g>
<line class="st0" x1="207.7" y1="109.4" x2="208.1" y2="45.5"/>
<line class="st0" x1="206.8" y1="109.3" x2="208.7" y2="109.4"/>
<line class="st0" x1="207.2" y1="45.5" x2="209.1" y2="45.5"/>
<g>
	<path d="M226.1,106l-0.1,7.5h-1.3l-4.6-4.7c-0.2-0.2-0.3-0.4-0.5-0.5c-0.2-0.2-0.4-0.3-0.6-0.5c-0.2-0.1-0.4-0.3-0.7-0.4
		c-0.2-0.1-0.5-0.1-0.7-0.1c-0.3,0-0.6,0.1-0.8,0.2c-0.2,0.1-0.5,0.3-0.6,0.5c-0.2,0.2-0.3,0.5-0.4,0.7c-0.1,0.3-0.1,0.6-0.1,0.9
		c0,0.5,0.1,1.1,0.5,1.5c0.3,0.4,0.8,0.7,1.3,0.8l-0.1,1.3c-0.8-0.1-1.5-0.6-2-1.2c-0.5-0.7-0.7-1.5-0.7-2.3c0-0.5,0.1-0.9,0.2-1.3
		c0.1-0.4,0.3-0.8,0.6-1.1c0.2-0.3,0.6-0.6,0.9-0.8c0.4-0.2,0.8-0.3,1.3-0.3c0.4,0,0.8,0.1,1.2,0.2c0.4,0.1,0.7,0.3,1,0.6
		c0.3,0.2,0.6,0.5,0.9,0.8c0.3,0.3,0.6,0.6,0.9,0.9l3.5,3.7V106L226.1,106z"/>
	<path d="M226.2,96.8v7.5h-1.3l-4.6-4.7c-0.2-0.2-0.3-0.4-0.5-0.5c-0.2-0.2-0.4-0.3-0.6-0.5c-0.2-0.1-0.4-0.3-0.7-0.3
		c-0.2-0.1-0.5-0.1-0.7-0.1c-0.3,0-0.6,0-0.8,0.2c-0.2,0.1-0.5,0.3-0.6,0.5c-0.2,0.2-0.3,0.5-0.4,0.7c-0.1,0.3-0.1,0.6-0.1,0.9
		c0,0.5,0.1,1.1,0.5,1.5c0.3,0.4,0.8,0.7,1.3,0.8l-0.1,1.3c-0.8-0.1-1.5-0.6-2-1.2c-0.5-0.7-0.7-1.5-0.7-2.3c0-0.5,0.1-0.9,0.2-1.4
		c0.1-0.4,0.3-0.8,0.6-1.1c0.2-0.3,0.6-0.6,0.9-0.8c0.4-0.2,0.8-0.3,1.3-0.3c0.4,0,0.8,0.1,1.2,0.2c0.4,0.1,0.7,0.3,1,0.5
		c0.3,0.2,0.6,0.5,0.9,0.8c0.3,0.3,0.6,0.6,0.8,0.9l3.5,3.7v-6.2H226.2z"/>
	<path d="M214.7,91.1c0-0.7,0.2-1.4,0.6-2c0.4-0.5,0.9-0.9,1.4-1.2c0.6-0.3,1.2-0.5,1.9-0.6c0.7-0.1,1.3-0.1,2-0.1
		c0.7,0,1.3,0.1,2,0.2c0.7,0.1,1.3,0.3,1.9,0.6c0.6,0.3,1,0.7,1.4,1.2c0.4,0.6,0.6,1.3,0.6,2c0,0.7-0.2,1.4-0.6,2
		c-0.4,0.5-0.9,0.9-1.4,1.2c-0.6,0.3-1.2,0.5-1.9,0.6c-0.7,0.1-1.3,0.1-2,0.1c-0.7,0-1.3-0.1-2-0.2c-0.7-0.1-1.3-0.3-1.9-0.6
		c-0.6-0.3-1.1-0.7-1.4-1.2C214.8,92.5,214.7,91.8,214.7,91.1z M215.7,91.1c0,0.6,0.1,1.1,0.5,1.5c0.3,0.4,0.8,0.7,1.2,0.8
		c0.5,0.2,1,0.3,1.6,0.4c0.6,0,1.1,0.1,1.5,0.1s0.9,0,1.5-0.1c0.5,0,1.1-0.2,1.6-0.3c0.5-0.2,0.9-0.5,1.2-0.8c0.4-0.4,0.5-1,0.5-1.5
		c0-0.5-0.1-1.1-0.5-1.5c-0.3-0.4-0.8-0.7-1.2-0.8c-0.5-0.2-1-0.3-1.6-0.4c-0.6,0-1.1-0.1-1.5-0.1s-0.9,0-1.5,0.1
		c-0.5,0-1.1,0.2-1.6,0.3c-0.5,0.2-0.9,0.5-1.2,0.8C215.9,90,215.7,90.6,215.7,91.1L215.7,91.1z"/>
	<path d="M220.5,80.8c-0.3,0-0.6,0-0.8,0l-0.8,0.1v-1.2h1.1l0,0c-0.4-0.3-0.8-0.6-1-1.1c-0.2-0.4-0.3-0.9-0.3-1.4
		c0-0.2,0-0.5,0.1-0.7c0.1-0.2,0.1-0.5,0.2-0.7c0.1-0.2,0.3-0.4,0.5-0.6c0.2-0.2,0.5-0.4,0.8-0.5c-0.5-0.2-0.9-0.6-1.1-1.1
		c-0.3-0.5-0.4-1-0.4-1.5c-0.1-0.8,0.2-1.6,0.8-2.2c0.6-0.5,1.4-0.8,2.2-0.7h4.8v1.1H222c-0.6,0-1.2,0.1-1.7,0.4
		c-0.5,0.4-0.7,1-0.6,1.5c0,0.3,0.1,0.7,0.2,1c0.1,0.3,0.4,0.5,0.6,0.7c0.3,0.2,0.6,0.3,0.9,0.4c0.3,0.1,0.7,0.1,1,0.1h4v1.1h-4.4
		c-0.6,0-1.2,0.1-1.8,0.4c-0.5,0.4-0.7,1-0.6,1.5c0,0.2,0,0.3,0.1,0.5c0.1,0.3,0.2,0.5,0.4,0.7c0.2,0.3,0.5,0.5,0.9,0.7
		c0.5,0.2,1,0.3,1.6,0.3h3.8v1.1L220.5,80.8z"/>
	<path d="M220.6,66.6h-0.8l-0.8,0.1v-1.2h1.1l0,0c-0.4-0.3-0.8-0.6-1-1.1c-0.2-0.4-0.3-0.9-0.3-1.4c0-0.2,0-0.4,0.1-0.7
		c0-0.2,0.1-0.5,0.2-0.7c0.1-0.2,0.3-0.4,0.5-0.6c0.2-0.2,0.5-0.4,0.8-0.5c-0.5-0.2-0.9-0.6-1.1-1.1c-0.3-0.5-0.4-1-0.4-1.5
		c-0.1-0.8,0.2-1.6,0.8-2.2c0.6-0.5,1.4-0.8,2.2-0.7h4.8v1.1H222c-0.6,0-1.2,0.1-1.7,0.4c-0.5,0.4-0.7,1-0.6,1.5
		c0,0.3,0.1,0.7,0.2,1c0.1,0.3,0.4,0.5,0.6,0.7c0.3,0.2,0.6,0.3,0.9,0.4c0.3,0.1,0.7,0.1,1,0.1h4v1.1H222c-0.6,0-1.2,0.1-1.8,0.4
		c-0.5,0.4-0.7,1-0.6,1.5c0,0.2,0,0.3,0.1,0.5c0.1,0.3,0.2,0.5,0.4,0.8c0.2,0.3,0.5,0.5,0.9,0.7c0.5,0.2,1,0.3,1.6,0.3h3.8v1.1
		L220.6,66.6z"/>
</g>
<g>
	<defs>
		<rect id="SVGID_1_" x="98.1" y="42.4" width="103.8" height="178.5"/>
	</defs>
	<clipPath id="SVGID_2_">
		<use xlink:href="#SVGID_1_"  style="overflow:visible;"/>
	</clipPath>
	<path class="st1" d="M138.9,108.3l-22,103.1c-0.1,0.4-0.7,0.6-1.4,0.6s-0.5-0.6-0.5-0.6l22-103.1L138.9,108.3z"/>
	<path class="st2" d="M145.7,185.4l2.6-1.4l0.9,1.1l-1.3,0.7l-27.9,16.4c0,0-1.1,0.6-1.6,0.1c0,0-0.4-0.5,0.1-1.3s0.7-0.5,0.7-0.5
		c0.2,0.3,0.6,0.3,0.9,0.1L145.7,185.4z"/>
	<path class="st1" d="M145.8,185.3l2.6-1.3l0.9,1l-1.2,0.6l-27.1,15.8c0,0-1.1,0.6-1.6,0.1c0,0-0.4-0.5,0.1-1.2
		c0.5-0.8,0.7-0.5,0.7-0.5c0.2,0.3,0.6,0.3,0.8,0.1L145.8,185.3z"/>
	<path class="st2" d="M142.9,108.4l-11.8,109.7c0,0-0.3,0.9,1,1c0,0,1,0.1,1.1-0.5c0.1-0.2,0.1-0.4,0.1-0.6l11.7-109.7L142.9,108.4z
		"/>
	<path class="st1" d="M142.9,108.4l-11.8,109.7c0,0-0.3,0.9,1,1c0,0,1,0.1,1.1-0.5c0.1-0.2,0.1-0.4,0.1-0.6l11.7-109.7L142.9,108.4z
		"/>
	<path class="st2" d="M153.3,108.4L163.8,209c0,0-0.1,0.7,1,0.7s0.8-0.7,0.8-0.7l-10.5-100.6l-1.9,0.1H153.3z"/>
	<path class="st1" d="M153.3,108.4L163.8,209c0,0-0.1,0.7,1,0.7s0.8-0.7,0.8-0.7l-10.5-100.6l-1.9,0.1H153.3z"/>
	<path class="st2" d="M120.5,170l15,8.3l-0.2,1.6l-15.6-8.6c-0.1-0.3,0-0.6,0.1-0.8C120,170.2,120.2,170.1,120.5,170"/>
	<path class="st1" d="M125.4,172.7l10.1,6l-0.1,1.1l-10.5-6.2c0-0.2,0-0.4,0.1-0.6C125.1,172.9,125.2,172.8,125.4,172.7z"/>
	<path class="st2" d="M137.6,179.5l10.1,5.6l33.2,19c0.5,0.3,0.6-0.4,0.6-0.4s0.6,2.4,0.6,2.4c-0.1-0.2-0.4-0.3-1-0.3
		c-0.5-0.1-1-0.3-1.4-0.6l-32.8-18.9l-9.4-5.2L137.6,179.5z"/>
	<path class="st1" d="M137.6,179.5l10.1,5.6l33.2,19c0.5,0.3,0.6-0.4,0.6-0.4s0.6,2.4,0.6,2.4c-0.1-0.2-0.4-0.3-1-0.3
		c-0.5-0.1-1-0.3-1.4-0.6l-32.8-18.9l-9.4-5.2L137.6,179.5z"/>
	<path class="st2" d="M157.4,192.4l4.8,5.8c0,0,0.2,0.4,1,0.5s0.8,1.1,0.8,1.1c0,0.4-0.4,0.7-0.8,0.7c0,0,0,0,0,0
		c-0.4,0-0.8-0.1-1.1-0.4l-8.4-9.8L157.4,192.4z"/>
	<path class="st1" d="M157,192.4l4.2,5.7c0,0,0.2,0.4,0.9,0.5s0.7,1.1,0.7,1.1c0,0.4-0.3,0.7-0.7,0.6c0,0,0,0,0,0
		c-0.3,0-0.7-0.1-1-0.4l-7.4-9.6L157,192.4z"/>
	<path class="st2" d="M137,171.1c-0.3-0.2-0.4-0.7-0.2-1.1c0.2-0.3,0.7-0.4,1.1-0.2c0.3,0.2,0.4,0.7,0.2,1.1c0,0,0,0-0.1,0.1
		C137.8,171.2,137.3,171.3,137,171.1"/>
	<path class="st1" d="M138.7,172.5c-0.3-0.2-0.4-0.6-0.1-0.9c0.2-0.3,0.6-0.4,0.9-0.1c0.3,0.2,0.4,0.6,0.1,0.9c0,0,0,0-0.1,0.1
		C139.3,172.7,139,172.8,138.7,172.5z"/>
	<path class="st2" d="M139.5,171.7L139.5,171.7l15.1,17.4l-3.2-1.8l-12.7-14.5c0.3,0.2,0.7,0.2,0.9-0.1c0.2-0.3,0.2-0.6,0-0.9
		C139.5,171.8,139.5,171.8,139.5,171.7L139.5,171.7z"/>
	<path class="st1" d="M139.4,171.5l0.1,0.1l15.1,17.6l-3.2-1.8l-12.8-14.7c0.3,0.2,0.7,0.2,0.9-0.1c0.2-0.3,0.2-0.7,0-0.9
		C139.4,171.6,139.3,171.6,139.4,171.5L139.4,171.5z"/>
	<polygon class="st2" points="134.8,205.1 147.7,183.2 148.7,184.4 134.4,208.6 	"/>
	<polygon class="st1" points="134.8,205.1 147.7,183.2 148.7,184.4 134.4,208.6 	"/>
	<path class="st2" d="M150.5,184.4l-0.9-1.1l29.5-15.3c0.3,0,0.5,0.2,0.6,0.5c0.1,0.3,0.1,0.6,0,0.8L150.5,184.4z"/>
	<path class="st1" d="M150.4,184.4l-0.8-0.9l23.9-12.5c0.2,0,0.4,0.2,0.5,0.4c0.1,0.2,0.1,0.5,0,0.7L150.4,184.4z"/>
	<path class="st2" d="M159.6,108.4l24.5,107c0,0-0.2,0.6,1,0.6s1-0.8,1-0.8l-24.5-106.8H159.6z"/>
	<path class="st1" d="M159.6,108.4l24.5,107c0,0-0.2,0.6,1,0.6s1-0.8,1-0.8l-24.5-106.8H159.6z"/>
	<rect x="101.9" y="46.2" class="st3" width="96.2" height="62.2"/>
</g>
</svg>
