<svg xmlns="http://www.w3.org/2000/svg" viewBox="0 0 300 263"><defs><style>.cls-1,.cls-2,.cls-3,.cls-4{fill:none;stroke-linecap:round;}.cls-1,.cls-2{stroke:red;}.cls-1,.cls-2,.cls-4{stroke-linejoin:round;}.cls-1,.cls-3,.cls-4{stroke-width:0.6px;}.cls-3,.cls-4{stroke:#000;}.cls-3{stroke-miterlimit:10;}</style></defs><title>ray-floor-1-dordoni-flos-F5915020-curva-fotometrica</title><g id="numeri_esterni_diagramma" data-name="numeri esterni diagramma"><path d="M148.27,239.2a6.85,6.85,0,0,1,.08-1,3.41,3.41,0,0,1,.3-.95,1.94,1.94,0,0,1,.59-.71,1.57,1.57,0,0,1,.95-.27,1.6,1.6,0,0,1,1,.27,2,2,0,0,1,.59.71,3.1,3.1,0,0,1,.29.95,5.7,5.7,0,0,1,.08,1,5.85,5.85,0,0,1-.08,1,3.13,3.13,0,0,1-.29.94,2,2,0,0,1-.59.71,1.6,1.6,0,0,1-1,.27,1.57,1.57,0,0,1-.95-.27,1.94,1.94,0,0,1-.59-.71,3.45,3.45,0,0,1-.3-.94A7.07,7.07,0,0,1,148.27,239.2Zm.68,0c0,.13,0,.29,0,.46a4.88,4.88,0,0,0,.06.52,2.83,2.83,0,0,0,.13.5,1.65,1.65,0,0,0,.22.44,1.24,1.24,0,0,0,.34.31,1,1,0,0,0,.48.12.9.9,0,0,0,.48-.12,1,1,0,0,0,.34-.31,1.41,1.41,0,0,0,.23-.44,4.07,4.07,0,0,0,.13-.5c0-.18,0-.35.06-.52s0-.33,0-.46,0-.3,0-.47,0-.34-.06-.51a3.8,3.8,0,0,0-.13-.51,1.53,1.53,0,0,0-.23-.44,1,1,0,0,0-.34-.31.9.9,0,0,0-.48-.12,1,1,0,0,0-.48.12,1.24,1.24,0,0,0-.34.31,1.81,1.81,0,0,0-.22.44,2.72,2.72,0,0,0-.13.51,4.43,4.43,0,0,0-.06.51C149,238.9,149,239.06,149,239.2Z"/><path d="M152.83,237.41a1.33,1.33,0,0,1,.08-.45,1.11,1.11,0,0,1,.25-.36,1,1,0,0,1,.36-.24,1.17,1.17,0,0,1,.9,0,1,1,0,0,1,.36.24,1.11,1.11,0,0,1,.25.36,1.31,1.31,0,0,1,0,.9,1.23,1.23,0,0,1-.61.61,1.17,1.17,0,0,1-.9,0,1.23,1.23,0,0,1-.61-.61A1.33,1.33,0,0,1,152.83,237.41Zm.43,0a.79.79,0,0,0,.05.25.68.68,0,0,0,.14.23.66.66,0,0,0,.23.17.73.73,0,0,0,.58,0,.76.76,0,0,0,.23-.17.88.88,0,0,0,.14-.23.65.65,0,0,0,0-.5,1.09,1.09,0,0,0-.14-.23,1,1,0,0,0-.23-.17.73.73,0,0,0-.58,0,.81.81,0,0,0-.23.17.75.75,0,0,0-.19.48Z"/><path d="M203.17,238.76h.21l.43,0a1.15,1.15,0,0,0,.42-.13.77.77,0,0,0,.31-.31.94.94,0,0,0,.13-.51.87.87,0,0,0-.27-.68,1,1,0,0,0-.7-.26,1.28,1.28,0,0,0-.63.16,1.14,1.14,0,0,0-.41.48l-.65-.25a1.48,1.48,0,0,1,.65-.72,2.07,2.07,0,0,1,1-.24,2.25,2.25,0,0,1,.64.09,1.72,1.72,0,0,1,.54.28,1.37,1.37,0,0,1,.37.46,1.48,1.48,0,0,1,.14.65,1.29,1.29,0,0,1-.27.8,1.34,1.34,0,0,1-.7.49v0a1.48,1.48,0,0,1,.85.49,1.37,1.37,0,0,1,.23.43,1.69,1.69,0,0,1,.08.5,1.66,1.66,0,0,1-.15.72,1.57,1.57,0,0,1-.41.51,1.71,1.71,0,0,1-.6.31,2.34,2.34,0,0,1-.71.1,2.18,2.18,0,0,1-1.13-.28,1.61,1.61,0,0,1-.7-.91l.68-.22a1.33,1.33,0,0,0,.41.65,1.3,1.3,0,0,0,.74.19,1.33,1.33,0,0,0,.45-.08,1.11,1.11,0,0,0,.36-.23,1.24,1.24,0,0,0,.25-.35,1.13,1.13,0,0,0,.09-.45,1.07,1.07,0,0,0-.12-.53,1,1,0,0,0-.33-.33,1.23,1.23,0,0,0-.46-.18,2.31,2.31,0,0,0-.52-.06h-.21Z"/><path d="M206.24,239.2a6.85,6.85,0,0,1,.08-1,3.11,3.11,0,0,1,.3-.95,1.94,1.94,0,0,1,.59-.71,1.55,1.55,0,0,1,.95-.27,1.6,1.6,0,0,1,1,.27,2,2,0,0,1,.59.71,3.1,3.1,0,0,1,.29.95,5.7,5.7,0,0,1,.08,1,5.85,5.85,0,0,1-.08,1,3.13,3.13,0,0,1-.29.94,2,2,0,0,1-.59.71,1.6,1.6,0,0,1-1,.27,1.55,1.55,0,0,1-.95-.27,1.94,1.94,0,0,1-.59-.71,3.14,3.14,0,0,1-.3-.94A7.07,7.07,0,0,1,206.24,239.2Zm.67,0c0,.13,0,.29,0,.46a4.88,4.88,0,0,0,.06.52,2.83,2.83,0,0,0,.13.5,1.4,1.4,0,0,0,.22.44,1.24,1.24,0,0,0,.34.31,1,1,0,0,0,.48.12.9.9,0,0,0,.48-.12,1,1,0,0,0,.34-.31,1.41,1.41,0,0,0,.23-.44,4.05,4.05,0,0,0,.12-.5,4.88,4.88,0,0,0,.06-.52,3.86,3.86,0,0,0,0-.46,3.94,3.94,0,0,0,0-.47,4.43,4.43,0,0,0-.06-.51,3.81,3.81,0,0,0-.12-.51,1.53,1.53,0,0,0-.23-.44,1,1,0,0,0-.34-.31.9.9,0,0,0-.48-.12,1,1,0,0,0-.48.12,1.24,1.24,0,0,0-.34.31,1.51,1.51,0,0,0-.22.44,2.72,2.72,0,0,0-.13.51,4.43,4.43,0,0,0-.06.51C206.92,238.9,206.91,239.06,206.91,239.2Z"/><path d="M210.84,237.41a1.13,1.13,0,0,1,.09-.45,1.26,1.26,0,0,1,.24-.36,1.2,1.2,0,0,1,.82-.33,1,1,0,0,1,.44.09,1.12,1.12,0,0,1,.37.24,1.26,1.26,0,0,1,.24.36,1.16,1.16,0,0,1-.24,1.26,1.15,1.15,0,0,1-.37.25,1,1,0,0,1-.44.09,1.13,1.13,0,0,1-.45-.09,1.15,1.15,0,0,1-.37-.25,1.15,1.15,0,0,1-.33-.81Zm.43,0a.61.61,0,0,0,.06.25.68.68,0,0,0,.14.23.72.72,0,0,0,.22.17.73.73,0,0,0,.3.06.72.72,0,0,0,.29-.06.62.62,0,0,0,.22-.17.91.91,0,0,0,.15-.23.65.65,0,0,0,0-.5,1.14,1.14,0,0,0-.15-.23.76.76,0,0,0-.22-.17.72.72,0,0,0-.29-.06.73.73,0,0,0-.3.06.92.92,0,0,0-.22.17.79.79,0,0,0-.14.23A.61.61,0,0,0,211.27,237.41Z"/><path d="M93.6,238.76h.21l.44,0a1.1,1.1,0,0,0,.41-.13.86.86,0,0,0,.32-.31.94.94,0,0,0,.12-.51.87.87,0,0,0-.27-.68,1,1,0,0,0-.7-.26,1.21,1.21,0,0,0-.62.16,1.1,1.1,0,0,0-.42.48l-.65-.25a1.45,1.45,0,0,1,.66-.72,2,2,0,0,1,1-.24,2.32,2.32,0,0,1,.65.09,2,2,0,0,1,.54.28,1.67,1.67,0,0,1,.37.46,1.48,1.48,0,0,1,.13.65,1.29,1.29,0,0,1-.27.8,1.34,1.34,0,0,1-.7.49v0a1.31,1.31,0,0,1,.49.18,1.34,1.34,0,0,1,.36.31,1.37,1.37,0,0,1,.23.43,1.42,1.42,0,0,1,.08.5,1.66,1.66,0,0,1-.15.72,1.57,1.57,0,0,1-.41.51,1.75,1.75,0,0,1-.59.31,2.46,2.46,0,0,1-.72.1,2.18,2.18,0,0,1-1.13-.28,1.56,1.56,0,0,1-.69-.91l.68-.22a1.2,1.2,0,0,0,.41.65,1.27,1.27,0,0,0,.73.19,1.33,1.33,0,0,0,.45-.08,1.11,1.11,0,0,0,.36-.23,1.07,1.07,0,0,0,.25-.35,1.13,1.13,0,0,0,.09-.45,1.07,1.07,0,0,0-.12-.53.87.87,0,0,0-.33-.33,1.17,1.17,0,0,0-.46-.18,2.24,2.24,0,0,0-.52-.06H93.6Z"/><path d="M96.68,239.2a5.7,5.7,0,0,1,.08-1,3.1,3.1,0,0,1,.29-.95,2,2,0,0,1,.59-.71,1.6,1.6,0,0,1,1-.27,1.57,1.57,0,0,1,1,.27,1.94,1.94,0,0,1,.59.71,3.41,3.41,0,0,1,.3.95,6.85,6.85,0,0,1,.08,1,7.07,7.07,0,0,1-.08,1,3.45,3.45,0,0,1-.3.94,1.94,1.94,0,0,1-.59.71,1.57,1.57,0,0,1-1,.27,1.6,1.6,0,0,1-1-.27,2,2,0,0,1-.59-.71,3.13,3.13,0,0,1-.29-.94A5.85,5.85,0,0,1,96.68,239.2Zm.67,0c0,.13,0,.29,0,.46a4.88,4.88,0,0,0,.06.52,4.07,4.07,0,0,0,.13.5,1.41,1.41,0,0,0,.23.44,1,1,0,0,0,.34.31.9.9,0,0,0,.48.12,1,1,0,0,0,.48-.12,1.24,1.24,0,0,0,.34-.31,1.65,1.65,0,0,0,.22-.44,2.83,2.83,0,0,0,.13-.5,4.88,4.88,0,0,0,.06-.52c0-.17,0-.33,0-.46s0-.3,0-.47a4.43,4.43,0,0,0-.06-.51,2.72,2.72,0,0,0-.13-.51,1.81,1.81,0,0,0-.22-.44,1.24,1.24,0,0,0-.34-.31,1,1,0,0,0-.48-.12.9.9,0,0,0-.48.12,1,1,0,0,0-.34.31,1.53,1.53,0,0,0-.23.44,3.8,3.8,0,0,0-.13.51,4.43,4.43,0,0,0-.06.51C97.35,238.9,97.35,239.06,97.35,239.2Z"/><path d="M101.28,237.41a1.33,1.33,0,0,1,.08-.45,1.11,1.11,0,0,1,.25-.36,1,1,0,0,1,.36-.24,1.17,1.17,0,0,1,.9,0,1,1,0,0,1,.36.24,1.11,1.11,0,0,1,.25.36,1.31,1.31,0,0,1,0,.9,1.23,1.23,0,0,1-.61.61,1.17,1.17,0,0,1-.9,0,1.23,1.23,0,0,1-.61-.61A1.33,1.33,0,0,1,101.28,237.41Zm.43,0a.79.79,0,0,0,.05.25.68.68,0,0,0,.14.23.76.76,0,0,0,.23.17.73.73,0,0,0,.58,0,.66.66,0,0,0,.23-.17.68.68,0,0,0,.14-.23.71.71,0,0,0-.14-.73.81.81,0,0,0-.23-.17.73.73,0,0,0-.58,0,1,1,0,0,0-.23.17.75.75,0,0,0-.19.48Z"/><path d="M249.93,137.18h0a1.24,1.24,0,0,1-.37.12,1.84,1.84,0,0,1-.39,0,1.91,1.91,0,0,1-.68-.12,1.58,1.58,0,0,1-.54-.37,1.63,1.63,0,0,1-.36-.56,2.05,2.05,0,0,1-.13-.72,1.79,1.79,0,0,1,.15-.75,1.48,1.48,0,0,1,.4-.55,1.79,1.79,0,0,1,.6-.35,2,2,0,0,1,.75-.13,2.11,2.11,0,0,1,.75.13,1.79,1.79,0,0,1,.6.35,1.59,1.59,0,0,1,.4.55,1.79,1.79,0,0,1,.14.75,2.15,2.15,0,0,1,0,.45,1.68,1.68,0,0,1-.11.4,2.59,2.59,0,0,1-.17.38l-.21.36-1.51,2.39h-.78Zm-.59-.42a1.28,1.28,0,0,0,.48-.09,1,1,0,0,0,.39-.24,1.23,1.23,0,0,0,.26-.37,1.43,1.43,0,0,0,0-1,1.1,1.1,0,0,0-.65-.62,1.48,1.48,0,0,0-1,0,1.28,1.28,0,0,0-.39.24,1.12,1.12,0,0,0-.26.38,1.3,1.3,0,0,0,0,1,1.08,1.08,0,0,0,.26.37,1,1,0,0,0,.39.24A1.28,1.28,0,0,0,249.34,136.76Z"/><path d="M251.82,136.71a7.07,7.07,0,0,1,.08-1,3.19,3.19,0,0,1,.29-1,2,2,0,0,1,.59-.7,1.54,1.54,0,0,1,1-.28,1.49,1.49,0,0,1,.95.28,1.91,1.91,0,0,1,.59.7,2.94,2.94,0,0,1,.3,1,6.29,6.29,0,0,1,0,2,2.94,2.94,0,0,1-.3.95,1.91,1.91,0,0,1-.59.7,1.49,1.49,0,0,1-.95.28,1.54,1.54,0,0,1-1-.28,2,2,0,0,1-.59-.7,3.19,3.19,0,0,1-.29-.95A7.07,7.07,0,0,1,251.82,136.71Zm.67,0c0,.14,0,.29,0,.46a4.6,4.6,0,0,0,.06.52,4.7,4.7,0,0,0,.12.51,2,2,0,0,0,.23.44,1,1,0,0,0,.34.31,1,1,0,0,0,.48.11,1.06,1.06,0,0,0,.48-.11,1.24,1.24,0,0,0,.34-.31,1.65,1.65,0,0,0,.22-.44,3.18,3.18,0,0,0,.13-.51,4.6,4.6,0,0,0,.06-.52c0-.17,0-.32,0-.46s0-.29,0-.46a4.6,4.6,0,0,0-.06-.52,3.18,3.18,0,0,0-.13-.51,1.65,1.65,0,0,0-.22-.44,1.24,1.24,0,0,0-.34-.31,1.06,1.06,0,0,0-.48-.11,1,1,0,0,0-.48.11,1,1,0,0,0-.34.31,2,2,0,0,0-.23.44,4.7,4.7,0,0,0-.12.51,4.6,4.6,0,0,0-.06.52C252.5,136.42,252.49,136.57,252.49,136.71Z"/><path d="M256.42,134.93a1.13,1.13,0,0,1,.09-.45,1.31,1.31,0,0,1,.24-.37,1.18,1.18,0,0,1,.37-.24,1,1,0,0,1,.44-.09,1.13,1.13,0,0,1,.45.09,1.06,1.06,0,0,1,.61.61,1.13,1.13,0,0,1,.09.45,1,1,0,0,1-.09.44,1.06,1.06,0,0,1-.61.61,1.13,1.13,0,0,1-.45.09,1,1,0,0,1-.44-.09,1.18,1.18,0,0,1-.37-.24,1.31,1.31,0,0,1-.24-.37A1,1,0,0,1,256.42,134.93Zm.43,0a.69.69,0,0,0,0,.24,1,1,0,0,0,.15.24.73.73,0,0,0,.51.23.54.54,0,0,0,.29-.07.63.63,0,0,0,.23-.16.72.72,0,0,0,.14-.24.52.52,0,0,0,0-.24.56.56,0,0,0,0-.25.59.59,0,0,0-.14-.23.74.74,0,0,0-.52-.24.73.73,0,0,0-.29.07.62.62,0,0,0-.22.17.76.76,0,0,0-.15.23A.74.74,0,0,0,256.85,134.93Z"/><path d="M41.57,137.18h0a1.34,1.34,0,0,1-.37.12,2,2,0,0,1-.39,0,1.92,1.92,0,0,1-.69-.12,1.58,1.58,0,0,1-.54-.37,1.8,1.8,0,0,1-.36-.56,2.05,2.05,0,0,1-.13-.72,1.79,1.79,0,0,1,.15-.75,1.48,1.48,0,0,1,.4-.55,1.79,1.79,0,0,1,.6-.35,2.23,2.23,0,0,1,1.5,0,1.79,1.79,0,0,1,.6.35,1.48,1.48,0,0,1,.4.55,1.79,1.79,0,0,1,.15.75,3.14,3.14,0,0,1,0,.45,2.34,2.34,0,0,1-.12.4,1.84,1.84,0,0,1-.17.38,3.35,3.35,0,0,1-.21.36l-1.5,2.39h-.79Zm-.59-.42a1.28,1.28,0,0,0,.48-.09,1,1,0,0,0,.39-.24,1.23,1.23,0,0,0,.26-.37,1.3,1.3,0,0,0,0-1,1.1,1.1,0,0,0-.65-.62,1.48,1.48,0,0,0-1,0,1.1,1.1,0,0,0-.65.62,1.43,1.43,0,0,0,0,1,1.23,1.23,0,0,0,.26.37,1,1,0,0,0,.39.24A1.28,1.28,0,0,0,41,136.76Z"/><path d="M43.46,136.71a7.07,7.07,0,0,1,.08-1,2.94,2.94,0,0,1,.3-1,1.91,1.91,0,0,1,.59-.7,1.49,1.49,0,0,1,1-.28,1.54,1.54,0,0,1,1,.28,2,2,0,0,1,.59.7,3.19,3.19,0,0,1,.29,1,6.29,6.29,0,0,1,0,2,3.19,3.19,0,0,1-.29.95,2,2,0,0,1-.59.7,1.54,1.54,0,0,1-1,.28,1.49,1.49,0,0,1-1-.28,1.91,1.91,0,0,1-.59-.7,2.94,2.94,0,0,1-.3-.95A7.07,7.07,0,0,1,43.46,136.71Zm.67,0c0,.14,0,.29,0,.46a4.6,4.6,0,0,0,.06.52,3.18,3.18,0,0,0,.13.51,1.65,1.65,0,0,0,.22.44,1.12,1.12,0,0,0,.34.31,1.1,1.1,0,0,0,1,0,1.12,1.12,0,0,0,.34-.31,2,2,0,0,0,.23-.44,4.7,4.7,0,0,0,.12-.51,4.6,4.6,0,0,0,.06-.52c0-.17,0-.32,0-.46s0-.29,0-.46a4.6,4.6,0,0,0-.06-.52,4.7,4.7,0,0,0-.12-.51,2,2,0,0,0-.23-.44,1.12,1.12,0,0,0-.34-.31,1.1,1.1,0,0,0-1,0,1.12,1.12,0,0,0-.34.31,1.65,1.65,0,0,0-.22.44,3.18,3.18,0,0,0-.13.51,4.6,4.6,0,0,0-.06.52C44.14,136.42,44.13,136.57,44.13,136.71Z"/><path d="M48.06,134.93a1.13,1.13,0,0,1,.09-.45,1.06,1.06,0,0,1,.61-.61,1.13,1.13,0,0,1,.45-.09,1.08,1.08,0,0,1,.44.09,1.06,1.06,0,0,1,.61.61,1.13,1.13,0,0,1,.09.45,1,1,0,0,1-.09.44,1.06,1.06,0,0,1-.61.61,1.08,1.08,0,0,1-.44.09,1.13,1.13,0,0,1-.45-.09,1.06,1.06,0,0,1-.61-.61A1,1,0,0,1,48.06,134.93Zm.43,0a.53.53,0,0,0,.06.24.72.72,0,0,0,.14.24.69.69,0,0,0,.22.16.6.6,0,0,0,.3.07.73.73,0,0,0,.51-.23,1,1,0,0,0,.15-.24.69.69,0,0,0,.05-.24.74.74,0,0,0-.05-.25.76.76,0,0,0-.15-.23.62.62,0,0,0-.22-.17.73.73,0,0,0-.29-.07.73.73,0,0,0-.3.07.72.72,0,0,0-.22.17.59.59,0,0,0-.14.23A.57.57,0,0,0,48.49,134.93Z"/><path d="M148.37,38.51h-.68v-4.8h0l-1,.85-.4-.48,1.52-1.24h.59Z"/><path d="M150.49,34.23a1.48,1.48,0,0,1,.13-.61,1.2,1.2,0,0,1,.34-.46,1.44,1.44,0,0,1,.51-.3,1.92,1.92,0,0,1,1.28,0,1.44,1.44,0,0,1,.51.3,1.2,1.2,0,0,1,.34.46,1.33,1.33,0,0,1,.13.61,1.16,1.16,0,0,1-.07.4,1.41,1.41,0,0,1-.18.37,1.33,1.33,0,0,1-.29.29,1.18,1.18,0,0,1-.39.19h0a1.44,1.44,0,0,1,.46.19,1.35,1.35,0,0,1,.35.32,1.42,1.42,0,0,1,.23.44,1.7,1.7,0,0,1,.08.51,1.74,1.74,0,0,1-.14.69,1.43,1.43,0,0,1-.39.52,1.47,1.47,0,0,1-.57.33,2.35,2.35,0,0,1-1.42,0,1.47,1.47,0,0,1-.57-.33,1.55,1.55,0,0,1-.39-.52,1.74,1.74,0,0,1-.14-.69,1.7,1.7,0,0,1,.08-.51,1.67,1.67,0,0,1,.23-.44,1.35,1.35,0,0,1,.35-.32,1.44,1.44,0,0,1,.46-.19h0a1.18,1.18,0,0,1-.39-.19,1.33,1.33,0,0,1-.29-.29,1.41,1.41,0,0,1-.18-.37A1.46,1.46,0,0,1,150.49,34.23ZM151,36.9a1.18,1.18,0,0,0,.09.46,1.07,1.07,0,0,0,.25.35,1,1,0,0,0,.36.23,1.12,1.12,0,0,0,.88,0,1,1,0,0,0,.36-.23,1.07,1.07,0,0,0,.25-.35,1.18,1.18,0,0,0,.09-.46,1.14,1.14,0,0,0-.09-.46,1.13,1.13,0,0,0-.61-.58,1.12,1.12,0,0,0-.88,0,1.13,1.13,0,0,0-.61.58A1.14,1.14,0,0,0,151,36.9Zm.2-2.64a.88.88,0,0,0,.26.67,1,1,0,0,0,1.36,0,1,1,0,0,0,0-1.34,1,1,0,0,0-1.36,0A.88.88,0,0,0,151.17,34.26Z"/><path d="M154.64,35.68a7,7,0,0,1,.08-1,3.1,3.1,0,0,1,.29-1,2,2,0,0,1,.59-.71,1.6,1.6,0,0,1,1-.27,1.55,1.55,0,0,1,.95.27,1.94,1.94,0,0,1,.59.71,2.86,2.86,0,0,1,.3,1,7,7,0,0,1,.08,1,7.07,7.07,0,0,1-.08,1,2.88,2.88,0,0,1-.3.94,1.94,1.94,0,0,1-.59.71,1.55,1.55,0,0,1-.95.27,1.6,1.6,0,0,1-1-.27,2,2,0,0,1-.59-.71,3.13,3.13,0,0,1-.29-.94A7.07,7.07,0,0,1,154.64,35.68Zm.67,0c0,.13,0,.29,0,.46a4.88,4.88,0,0,0,.06.52,4.05,4.05,0,0,0,.12.5,1.66,1.66,0,0,0,.23.44,1.12,1.12,0,0,0,.34.31,1,1,0,0,0,1,0,1.12,1.12,0,0,0,.34-.31,1.4,1.4,0,0,0,.22-.44,2.83,2.83,0,0,0,.13-.5,4.88,4.88,0,0,0,.06-.52c0-.17,0-.33,0-.46s0-.3,0-.47a4.43,4.43,0,0,0-.06-.51,2.72,2.72,0,0,0-.13-.51,1.51,1.51,0,0,0-.22-.44,1.12,1.12,0,0,0-.34-.31,1,1,0,0,0-1,0,1.12,1.12,0,0,0-.34.31,1.83,1.83,0,0,0-.23.44,3.81,3.81,0,0,0-.12.51,4.43,4.43,0,0,0-.06.51C155.32,35.38,155.31,35.54,155.31,35.68Z"/><path d="M159.24,33.89a1.15,1.15,0,0,1,.33-.81,1,1,0,0,1,.37-.24,1,1,0,0,1,.44-.09,1.15,1.15,0,0,1,.82,2,1.15,1.15,0,0,1-.37.25,1.13,1.13,0,0,1-.45.09,1.15,1.15,0,0,1-.81-.34,1.15,1.15,0,0,1-.33-.81Zm.43,0a.79.79,0,0,0,.05.25,1.14,1.14,0,0,0,.15.23.62.62,0,0,0,.22.17.72.72,0,0,0,.29.06.68.68,0,0,0,.52-.23.79.79,0,0,0,.14-.23.65.65,0,0,0,0-.5.79.79,0,0,0-.14-.23.81.81,0,0,0-.23-.17.65.65,0,0,0-.29-.06.72.72,0,0,0-.29.06.76.76,0,0,0-.22.17,1.14,1.14,0,0,0-.15.23A.79.79,0,0,0,159.67,33.89Z"/><path d="M203.18,38.51h-.68v-4.8h0l-1,.85-.4-.48,1.52-1.24h.59Z"/><path d="M208.49,33.47h-2.31l0,1.53a1.08,1.08,0,0,1,.36-.11l.37,0a2,2,0,0,1,.74.14,1.61,1.61,0,0,1,.57.39,1.9,1.9,0,0,1,.37.59,2,2,0,0,1,.13.74,2,2,0,0,1-.15.78,1.74,1.74,0,0,1-.41.59,1.91,1.91,0,0,1-.61.38,2.2,2.2,0,0,1-.78.13,1.73,1.73,0,0,1-1-.28,2,2,0,0,1-.63-.75l.67-.25a1.31,1.31,0,0,0,.42.51,1.1,1.1,0,0,0,.64.2,1.28,1.28,0,0,0,.48-.09,1.26,1.26,0,0,0,.38-.27,1.15,1.15,0,0,0,.26-.41,1.53,1.53,0,0,0,.1-.54,1.38,1.38,0,0,0-.11-.55,1.08,1.08,0,0,0-.3-.4,1.26,1.26,0,0,0-.44-.25,1.67,1.67,0,0,0-.55-.08,1.84,1.84,0,0,0-.6.1,2.58,2.58,0,0,0-.56.25l.06-2.95h3Z"/><path d="M209.45,35.68a7,7,0,0,1,.08-1,3.1,3.1,0,0,1,.29-1,2,2,0,0,1,.59-.71,1.6,1.6,0,0,1,1-.27,1.55,1.55,0,0,1,.95.27,1.94,1.94,0,0,1,.59.71,2.86,2.86,0,0,1,.3,1,7,7,0,0,1,.08,1,7.07,7.07,0,0,1-.08,1,2.88,2.88,0,0,1-.3.94,1.94,1.94,0,0,1-.59.71,1.55,1.55,0,0,1-.95.27,1.6,1.6,0,0,1-1-.27,2,2,0,0,1-.59-.71,3.13,3.13,0,0,1-.29-.94A7.07,7.07,0,0,1,209.45,35.68Zm.67,0c0,.13,0,.29,0,.46a4.88,4.88,0,0,0,.06.52,4.05,4.05,0,0,0,.12.5,1.66,1.66,0,0,0,.23.44,1,1,0,0,0,.34.31.9.9,0,0,0,.48.12,1,1,0,0,0,.48-.12,1.24,1.24,0,0,0,.34-.31,1.4,1.4,0,0,0,.22-.44,2.83,2.83,0,0,0,.13-.5,4.88,4.88,0,0,0,.06-.52c0-.17,0-.33,0-.46s0-.3,0-.47a4.43,4.43,0,0,0-.06-.51,2.72,2.72,0,0,0-.13-.51,1.51,1.51,0,0,0-.22-.44,1.24,1.24,0,0,0-.34-.31,1,1,0,0,0-.48-.12.9.9,0,0,0-.48.12,1,1,0,0,0-.34.31,1.83,1.83,0,0,0-.23.44,3.81,3.81,0,0,0-.12.51,4.43,4.43,0,0,0-.06.51C210.13,35.38,210.12,35.54,210.12,35.68Z"/><path d="M214.05,33.89a1.15,1.15,0,0,1,.33-.81,1,1,0,0,1,.37-.24,1,1,0,0,1,.44-.09,1.13,1.13,0,0,1,.45.09,1,1,0,0,1,.36.24,1,1,0,0,1,.25.36,1.17,1.17,0,0,1,0,.9,1.23,1.23,0,0,1-.61.61,1.13,1.13,0,0,1-.45.09,1.15,1.15,0,0,1-.81-.34,1.15,1.15,0,0,1-.33-.81Zm.43,0a.79.79,0,0,0,.05.25,1.14,1.14,0,0,0,.15.23.62.62,0,0,0,.22.17.72.72,0,0,0,.29.06.68.68,0,0,0,.52-.23.79.79,0,0,0,.14-.23.65.65,0,0,0,0-.5.79.79,0,0,0-.14-.23.81.81,0,0,0-.23-.17.65.65,0,0,0-.29-.06.72.72,0,0,0-.29.06.76.76,0,0,0-.22.17,1.14,1.14,0,0,0-.15.23A.79.79,0,0,0,214.48,33.89Z"/><path d="M93.61,38.51h-.67v-4.8h0l-1,.85-.4-.48L93,32.84h.58Z"/><path d="M98.92,33.47H96.61l0,1.53a1,1,0,0,1,.35-.11l.37,0a1.91,1.91,0,0,1,.74.14,1.65,1.65,0,0,1,.58.39A1.71,1.71,0,0,1,99,36a2,2,0,0,1,.13.74,2,2,0,0,1-.15.78,1.71,1.71,0,0,1-.4.59,2,2,0,0,1-.62.38,2.15,2.15,0,0,1-.77.13,1.78,1.78,0,0,1-1.05-.28,1.85,1.85,0,0,1-.62-.75l.67-.25a1.16,1.16,0,0,0,.42.51,1.05,1.05,0,0,0,.63.2,1.28,1.28,0,0,0,.48-.09,1.23,1.23,0,0,0,.64-.68,1.33,1.33,0,0,0,.1-.54,1.38,1.38,0,0,0-.11-.55,1.18,1.18,0,0,0-.29-.4,1.41,1.41,0,0,0-.45-.25,1.63,1.63,0,0,0-.55-.08,1.78,1.78,0,0,0-.59.1,2.58,2.58,0,0,0-.56.25l0-2.95h3Z"/><path d="M99.88,35.68a7,7,0,0,1,.08-1,3.11,3.11,0,0,1,.3-1,1.94,1.94,0,0,1,.59-.71,1.55,1.55,0,0,1,1-.27,1.6,1.6,0,0,1,1,.27,2,2,0,0,1,.59.71,3.1,3.1,0,0,1,.29,1,5.77,5.77,0,0,1,.08,1,5.85,5.85,0,0,1-.08,1,3.13,3.13,0,0,1-.29.94,2,2,0,0,1-.59.71,1.6,1.6,0,0,1-1,.27,1.55,1.55,0,0,1-1-.27,1.94,1.94,0,0,1-.59-.71,3.14,3.14,0,0,1-.3-.94A7.07,7.07,0,0,1,99.88,35.68Zm.67,0c0,.13,0,.29,0,.46a4.88,4.88,0,0,0,.06.52,2.83,2.83,0,0,0,.13.5,1.4,1.4,0,0,0,.22.44,1.24,1.24,0,0,0,.34.31,1,1,0,0,0,.48.12.9.9,0,0,0,.48-.12,1,1,0,0,0,.34-.31,1.41,1.41,0,0,0,.23-.44,4.05,4.05,0,0,0,.12-.5,4.88,4.88,0,0,0,.06-.52c0-.17,0-.33,0-.46s0-.3,0-.47a4.43,4.43,0,0,0-.06-.51,3.81,3.81,0,0,0-.12-.51,1.53,1.53,0,0,0-.23-.44,1,1,0,0,0-.34-.31.9.9,0,0,0-.48-.12,1,1,0,0,0-.48.12,1.24,1.24,0,0,0-.34.31,1.51,1.51,0,0,0-.22.44,2.72,2.72,0,0,0-.13.51,4.43,4.43,0,0,0-.06.51C100.56,35.38,100.55,35.54,100.55,35.68Z"/><path d="M104.48,33.89a1.15,1.15,0,0,1,1.15-1.14,1,1,0,0,1,.44.09,1.12,1.12,0,0,1,.37.24,1.16,1.16,0,0,1,0,1.62,1.15,1.15,0,0,1-.37.25,1,1,0,0,1-.44.09,1.13,1.13,0,0,1-.45-.09,1.15,1.15,0,0,1-.37-.25,1.15,1.15,0,0,1-.33-.81Zm.43,0a.61.61,0,0,0,.06.25.79.79,0,0,0,.14.23.72.72,0,0,0,.22.17.73.73,0,0,0,.3.06.72.72,0,0,0,.29-.06.62.62,0,0,0,.22-.17,1.14,1.14,0,0,0,.15-.23.65.65,0,0,0,0-.5,1.14,1.14,0,0,0-.15-.23.76.76,0,0,0-.22-.17.72.72,0,0,0-.29-.06.73.73,0,0,0-.3.06.92.92,0,0,0-.22.17.79.79,0,0,0-.14.23A.61.61,0,0,0,104.91,33.89Z"/><path d="M248.75,192.45v0a1.35,1.35,0,0,1,.37-.13,2,2,0,0,1,.39,0,1.73,1.73,0,0,1,.69.13,1.42,1.42,0,0,1,.54.36,1.85,1.85,0,0,1,.36.57,2,2,0,0,1,.12.72,1.78,1.78,0,0,1-.14.74,1.74,1.74,0,0,1-.4.56,2,2,0,0,1-.6.35,2.36,2.36,0,0,1-.75.12,2.27,2.27,0,0,1-.75-.12,2,2,0,0,1-.6-.35,1.6,1.6,0,0,1-.4-.56,1.78,1.78,0,0,1-.15-.74,2.24,2.24,0,0,1,.15-.86,5.28,5.28,0,0,1,.39-.74l1.5-2.39h.79Zm.59.43a1.23,1.23,0,0,0-.87.32,1,1,0,0,0-.26.38,1.31,1.31,0,0,0-.1.5,1.35,1.35,0,0,0,.1.5,1.08,1.08,0,0,0,.26.37,1,1,0,0,0,.39.24,1.32,1.32,0,0,0,1,0,1,1,0,0,0,.39-.24,1.23,1.23,0,0,0,.26-.37,1.35,1.35,0,0,0,.09-.5,1.31,1.31,0,0,0-.09-.5,1.16,1.16,0,0,0-.26-.38,1.23,1.23,0,0,0-.87-.32Z"/><path d="M251.82,192.92a7.07,7.07,0,0,1,.08-1,3.13,3.13,0,0,1,.29-.94,2,2,0,0,1,.59-.71,1.6,1.6,0,0,1,1-.27,1.55,1.55,0,0,1,.95.27,1.94,1.94,0,0,1,.59.71,2.88,2.88,0,0,1,.3.94,7.07,7.07,0,0,1,.08,1,7,7,0,0,1-.08,1,2.86,2.86,0,0,1-.3,1,1.94,1.94,0,0,1-.59.71,1.55,1.55,0,0,1-.95.27,1.6,1.6,0,0,1-1-.27,2,2,0,0,1-.59-.71,3.1,3.1,0,0,1-.29-1A7,7,0,0,1,251.82,192.92Zm.67,0c0,.14,0,.3,0,.47a4.43,4.43,0,0,0,.06.51,3.81,3.81,0,0,0,.12.51,1.83,1.83,0,0,0,.23.44,1,1,0,0,0,.34.31.9.9,0,0,0,.48.12,1,1,0,0,0,.48-.12,1.24,1.24,0,0,0,.34-.31,1.51,1.51,0,0,0,.22-.44,2.72,2.72,0,0,0,.13-.51,4.43,4.43,0,0,0,.06-.51c0-.17,0-.33,0-.47s0-.29,0-.46a4.88,4.88,0,0,0-.06-.52,2.83,2.83,0,0,0-.13-.5,1.4,1.4,0,0,0-.22-.44,1.1,1.1,0,0,0-.34-.31,1,1,0,0,0-.48-.12.9.9,0,0,0-.48.12.92.92,0,0,0-.34.31,1.66,1.66,0,0,0-.23.44,4.05,4.05,0,0,0-.12.5,4.88,4.88,0,0,0-.06.52C252.5,192.63,252.49,192.79,252.49,192.92Z"/><path d="M256.42,191.14a1.15,1.15,0,0,1,.33-.81,1.05,1.05,0,0,1,.37-.25,1.23,1.23,0,0,1,.44-.08,1.33,1.33,0,0,1,.45.08,1.15,1.15,0,0,1,.37.25,1.16,1.16,0,0,1,0,1.62,1.15,1.15,0,0,1-.37.25,1.33,1.33,0,0,1-.45.08,1.23,1.23,0,0,1-.44-.08,1.05,1.05,0,0,1-.37-.25,1.15,1.15,0,0,1-.33-.81Zm.43,0a.79.79,0,0,0,0,.25,1.14,1.14,0,0,0,.15.23.62.62,0,0,0,.22.17.72.72,0,0,0,.29.06.68.68,0,0,0,.52-.23.79.79,0,0,0,.14-.23.65.65,0,0,0,0-.5.79.79,0,0,0-.14-.23.68.68,0,0,0-.52-.23.72.72,0,0,0-.29.06.62.62,0,0,0-.22.17,1.14,1.14,0,0,0-.15.23A.79.79,0,0,0,256.85,191.14Z"/><path d="M250,81.22h-.67v-4.8h0l-1,.86-.4-.49,1.52-1.23H250Z"/><path d="M251.92,80.45l2.13-2.08c.13-.12.25-.24.35-.35a2.16,2.16,0,0,0,.25-.32,1.09,1.09,0,0,0,.15-.33,1.38,1.38,0,0,0,0-.37,1,1,0,0,0-.08-.4.84.84,0,0,0-.22-.3.78.78,0,0,0-.33-.19,1.05,1.05,0,0,0-.4-.07,1,1,0,0,0-.71.25,1.08,1.08,0,0,0-.36.65l-.73-.06a1.83,1.83,0,0,1,.21-.61,1.41,1.41,0,0,1,.39-.45,2,2,0,0,1,.53-.27,2.25,2.25,0,0,1,.64-.09,2.41,2.41,0,0,1,.67.1,1.92,1.92,0,0,1,.55.29,1.44,1.44,0,0,1,.51,1.15,2,2,0,0,1-.09.61,2,2,0,0,1-.25.5,3.47,3.47,0,0,1-.35.43l-.41.4-1.75,1.64v0h2.89v.62h-3.64Z"/><path d="M256.27,78.39a5.85,5.85,0,0,1,.08-1,3.19,3.19,0,0,1,.29-1,2,2,0,0,1,.59-.7,1.54,1.54,0,0,1,1-.28,1.51,1.51,0,0,1,.95.28,1.91,1.91,0,0,1,.59.7,3.2,3.2,0,0,1,.3,1,6.29,6.29,0,0,1,0,2,3.2,3.2,0,0,1-.3,1,1.91,1.91,0,0,1-.59.7,1.51,1.51,0,0,1-.95.28,1.54,1.54,0,0,1-1-.28,2,2,0,0,1-.59-.7,3.19,3.19,0,0,1-.29-1A5.85,5.85,0,0,1,256.27,78.39Zm.67,0a3.78,3.78,0,0,0,0,.46c0,.17,0,.35.05.52a4.77,4.77,0,0,0,.13.51,1.67,1.67,0,0,0,.23.44,1,1,0,0,0,.34.31,1,1,0,0,0,.48.11,1.06,1.06,0,0,0,.48-.11,1.24,1.24,0,0,0,.34-.31,2,2,0,0,0,.22-.44,3.18,3.18,0,0,0,.13-.51,4.6,4.6,0,0,0,.06-.52c0-.17,0-.32,0-.46s0-.29,0-.46a4.35,4.35,0,0,0-.06-.52,3.18,3.18,0,0,0-.13-.51,2,2,0,0,0-.22-.44,1.24,1.24,0,0,0-.34-.31,1.06,1.06,0,0,0-.48-.11,1,1,0,0,0-.48.11,1,1,0,0,0-.34.31,1.67,1.67,0,0,0-.23.44,4.77,4.77,0,0,0-.13.51c0,.17,0,.34-.05.52A3.78,3.78,0,0,0,256.94,78.39Z"/><path d="M260.87,76.61a1.13,1.13,0,0,1,.09-.45,1,1,0,0,1,.24-.37,1.16,1.16,0,0,1,1.62,0,1.15,1.15,0,0,1,.25.37,1.13,1.13,0,0,1,.09.45,1,1,0,0,1-.09.44,1.15,1.15,0,0,1-.25.37,1.16,1.16,0,0,1-1.62,0,1,1,0,0,1-.24-.37A1,1,0,0,1,260.87,76.61Zm.43,0a.69.69,0,0,0,.05.24.75.75,0,0,0,.15.24.6.6,0,0,0,.22.16.64.64,0,0,0,.58,0,.63.63,0,0,0,.23-.16.72.72,0,0,0,.14-.24.52.52,0,0,0,.05-.24.56.56,0,0,0-.05-.25.59.59,0,0,0-.14-.23.66.66,0,0,0-.23-.17.64.64,0,0,0-.58,0,.62.62,0,0,0-.22.17.61.61,0,0,0-.15.23A.74.74,0,0,0,261.3,76.61Z"/><path d="M40.39,192.45v0a1.42,1.42,0,0,1,.38-.13,1.84,1.84,0,0,1,.39,0,1.72,1.72,0,0,1,.68.13,1.42,1.42,0,0,1,.54.36,1.85,1.85,0,0,1,.36.57,2,2,0,0,1,.13.72,1.78,1.78,0,0,1-.15.74,1.6,1.6,0,0,1-.4.56,2,2,0,0,1-.6.35,2.4,2.4,0,0,1-1.5,0,2,2,0,0,1-.6-.35,1.6,1.6,0,0,1-.4-.56,1.78,1.78,0,0,1-.15-.74,2.24,2.24,0,0,1,.16-.86,5.19,5.19,0,0,1,.38-.74l1.5-2.39h.79Zm.59.43a1.23,1.23,0,0,0-.87.32,1.16,1.16,0,0,0-.26.38,1.31,1.31,0,0,0-.09.5,1.35,1.35,0,0,0,.09.5,1.23,1.23,0,0,0,.26.37,1,1,0,0,0,.39.24,1.32,1.32,0,0,0,1,0,1,1,0,0,0,.39-.24,1.23,1.23,0,0,0,.26-.37,1.35,1.35,0,0,0,.1-.5,1.31,1.31,0,0,0-.1-.5,1.16,1.16,0,0,0-.26-.38,1.23,1.23,0,0,0-.87-.32Z"/><path d="M43.46,192.92a7.07,7.07,0,0,1,.08-1,2.88,2.88,0,0,1,.3-.94,1.94,1.94,0,0,1,.59-.71,1.55,1.55,0,0,1,1-.27,1.6,1.6,0,0,1,1,.27,2,2,0,0,1,.59.71,3.13,3.13,0,0,1,.29.94,7.07,7.07,0,0,1,.08,1,7,7,0,0,1-.08,1,3.1,3.1,0,0,1-.29,1,2,2,0,0,1-.59.71,1.6,1.6,0,0,1-1,.27,1.55,1.55,0,0,1-1-.27,1.94,1.94,0,0,1-.59-.71,2.86,2.86,0,0,1-.3-1A7,7,0,0,1,43.46,192.92Zm.67,0c0,.14,0,.3,0,.47a4.43,4.43,0,0,0,.06.51,2.72,2.72,0,0,0,.13.51,1.51,1.51,0,0,0,.22.44,1.12,1.12,0,0,0,.34.31,1,1,0,0,0,1,0,1.12,1.12,0,0,0,.34-.31,1.83,1.83,0,0,0,.23-.44,3.81,3.81,0,0,0,.12-.51,4.43,4.43,0,0,0,.06-.51c0-.17,0-.33,0-.47s0-.29,0-.46a4.88,4.88,0,0,0-.06-.52,4.05,4.05,0,0,0-.12-.5,1.66,1.66,0,0,0-.23-.44,1,1,0,0,0-.34-.31,1,1,0,0,0-1,0,1,1,0,0,0-.34.31,1.4,1.4,0,0,0-.22.44,2.83,2.83,0,0,0-.13.5,4.88,4.88,0,0,0-.06.52C44.14,192.63,44.13,192.79,44.13,192.92Z"/><path d="M48.06,191.14a1.15,1.15,0,0,1,.33-.81,1.15,1.15,0,0,1,.37-.25,1.33,1.33,0,0,1,.45-.08,1.27,1.27,0,0,1,.44.08,1.15,1.15,0,0,1,.37.25A1.16,1.16,0,0,1,50,192a1.15,1.15,0,0,1-.37.25,1.27,1.27,0,0,1-.44.08,1.33,1.33,0,0,1-.45-.08,1.15,1.15,0,0,1-.37-.25,1.15,1.15,0,0,1-.33-.81Zm.43,0a.61.61,0,0,0,.06.25.79.79,0,0,0,.14.23.72.72,0,0,0,.22.17.73.73,0,0,0,.3.06.72.72,0,0,0,.29-.06.62.62,0,0,0,.22-.17,1.14,1.14,0,0,0,.15-.23.65.65,0,0,0,0-.5,1.14,1.14,0,0,0-.15-.23.62.62,0,0,0-.22-.17.72.72,0,0,0-.29-.06.73.73,0,0,0-.3.06.72.72,0,0,0-.22.17.79.79,0,0,0-.14.23A.61.61,0,0,0,48.49,191.14Z"/><path d="M39.15,81.22h-.67v-4.8h0l-1,.86-.4-.49,1.52-1.23h.58Z"/><path d="M41.07,80.45l2.14-2.08c.13-.12.25-.24.35-.35a2.16,2.16,0,0,0,.25-.32,1.09,1.09,0,0,0,.15-.33A1.38,1.38,0,0,0,44,77a1,1,0,0,0-.08-.4.84.84,0,0,0-.22-.3.78.78,0,0,0-.33-.19A1.05,1.05,0,0,0,43,76a1,1,0,0,0-.72.25,1.19,1.19,0,0,0-.36.65l-.72-.06a1.47,1.47,0,0,1,.21-.61,1.41,1.41,0,0,1,.39-.45,2,2,0,0,1,.53-.27,2.2,2.2,0,0,1,.64-.09,2.41,2.41,0,0,1,.67.1,2.06,2.06,0,0,1,.55.29,1.47,1.47,0,0,1,.37.48,1.6,1.6,0,0,1,.14.67,2,2,0,0,1-.09.61,2.34,2.34,0,0,1-.25.5,3.47,3.47,0,0,1-.35.43l-.41.4-1.75,1.64v0h2.89v.62H41.07Z"/><path d="M45.43,78.39a7,7,0,0,1,.07-1,3.52,3.52,0,0,1,.3-1,2,2,0,0,1,.59-.7,1.77,1.77,0,0,1,1.91,0,1.91,1.91,0,0,1,.59.7,3.52,3.52,0,0,1,.3,1,6.29,6.29,0,0,1,0,2,3.52,3.52,0,0,1-.3,1,1.91,1.91,0,0,1-.59.7,1.77,1.77,0,0,1-1.91,0,2,2,0,0,1-.59-.7,3.52,3.52,0,0,1-.3-1A7,7,0,0,1,45.43,78.39Zm.67,0c0,.14,0,.29,0,.46a4.6,4.6,0,0,0,.06.52,4.77,4.77,0,0,0,.13.51,2,2,0,0,0,.22.44,1.15,1.15,0,0,0,.35.31,1,1,0,0,0,.48.11,1.06,1.06,0,0,0,.48-.11,1.24,1.24,0,0,0,.34-.31,2,2,0,0,0,.22-.44,3.18,3.18,0,0,0,.13-.51,4.6,4.6,0,0,0,.06-.52c0-.17,0-.32,0-.46s0-.29,0-.46a4.35,4.35,0,0,0-.06-.52,3.18,3.18,0,0,0-.13-.51,2,2,0,0,0-.22-.44,1.24,1.24,0,0,0-.34-.31,1.06,1.06,0,0,0-.48-.11,1,1,0,0,0-.48.11,1.15,1.15,0,0,0-.35.31,2,2,0,0,0-.22.44,4.77,4.77,0,0,0-.13.51,4.35,4.35,0,0,0-.06.52C46.1,78.1,46.1,78.25,46.1,78.39Z"/><path d="M50,76.61a1.12,1.12,0,0,1,.08-.45,1.15,1.15,0,0,1,.25-.37,1.16,1.16,0,0,1,1.62,0,1.15,1.15,0,0,1,.25.37,1.33,1.33,0,0,1,.08.45,1.23,1.23,0,0,1-.08.44,1.15,1.15,0,0,1-.25.37,1.16,1.16,0,0,1-1.62,0,1.15,1.15,0,0,1-.25-.37A1,1,0,0,1,50,76.61Zm.43,0a.52.52,0,0,0,0,.24.72.72,0,0,0,.14.24.63.63,0,0,0,.23.16.64.64,0,0,0,.58,0,.73.73,0,0,0,.23-.16,1,1,0,0,0,.14-.24.69.69,0,0,0,.05-.24.75.75,0,0,0-.19-.48.76.76,0,0,0-.23-.17.64.64,0,0,0-.58,0,.66.66,0,0,0-.23.17.59.59,0,0,0-.14.23A.56.56,0,0,0,50.46,76.61Z"/></g><g id="numeri_fondo_tabella" data-name="numeri fondo tabella"><path d="M131.83,251.42a1.17,1.17,0,0,0-.43-.35,1.19,1.19,0,0,0-.51-.11,1.35,1.35,0,0,0-.55.11,1.08,1.08,0,0,0-.4.3,1.32,1.32,0,0,0-.23.44,1.76,1.76,0,0,0,0,1.08,1.43,1.43,0,0,0,.26.45,1.31,1.31,0,0,0,.39.3,1.27,1.27,0,0,0,.52.1,1.09,1.09,0,0,0,1-.46l.47.44a1.69,1.69,0,0,1-.64.46,2.29,2.29,0,0,1-.78.14,2.22,2.22,0,0,1-.79-.14,1.75,1.75,0,0,1-1-1,2.27,2.27,0,0,1,0-1.57,1.86,1.86,0,0,1,.39-.63,2,2,0,0,1,.61-.41,2,2,0,0,1,.79-.15,2.09,2.09,0,0,1,.79.15,1.59,1.59,0,0,1,.65.45Z"/><path d="M136.21,253.56h0a1.43,1.43,0,0,1-.55.54,1.7,1.7,0,0,1-.89.22,1.8,1.8,0,0,1-.73-.15,1.78,1.78,0,0,1-.6-.41,1.81,1.81,0,0,1-.39-.62,2.06,2.06,0,0,1-.15-.79,2,2,0,0,1,.15-.78,1.88,1.88,0,0,1,.4-.63,1.81,1.81,0,0,1,.62-.41,2.07,2.07,0,0,1,.8-.15,1.72,1.72,0,0,1,.75.17,1.78,1.78,0,0,1,.59.47h0v-2.84h.62v6h-.62Zm0-1.21a1.63,1.63,0,0,0-.09-.55,1.34,1.34,0,0,0-.27-.44,1.37,1.37,0,0,0-.42-.29,1.35,1.35,0,0,0-.55-.11,1.42,1.42,0,0,0-.55.11,1.22,1.22,0,0,0-.41.29,1.34,1.34,0,0,0-.27.44,1.56,1.56,0,0,0,0,1.1,1.25,1.25,0,0,0,.27.44,1.19,1.19,0,0,0,1,.4,1.35,1.35,0,0,0,.55-.1,1.6,1.6,0,0,0,.42-.3,1.25,1.25,0,0,0,.27-.44A1.63,1.63,0,0,0,136.21,252.35Z"/><path d="M140.1,254.57l-.5-.2,2.4-6.15.51.2Z"/><path d="M147.64,254.22H147v-4.8h0l-1,.86-.4-.49,1.52-1.23h.59Z"/><path d="M149.46,251.39a7.07,7.07,0,0,1,.08-1,3.19,3.19,0,0,1,.29-.95,2,2,0,0,1,.59-.7,1.61,1.61,0,0,1,1-.28,1.55,1.55,0,0,1,1,.28,1.91,1.91,0,0,1,.59.7,2.94,2.94,0,0,1,.3.95,6.29,6.29,0,0,1,0,2,2.94,2.94,0,0,1-.3,1,1.91,1.91,0,0,1-.59.7,1.49,1.49,0,0,1-1,.28,1.54,1.54,0,0,1-1-.28,2,2,0,0,1-.59-.7,3.19,3.19,0,0,1-.29-1A7.07,7.07,0,0,1,149.46,251.39Zm.67,0c0,.14,0,.29,0,.47a4.43,4.43,0,0,0,.06.51,4.7,4.7,0,0,0,.12.51,2,2,0,0,0,.23.44,1.12,1.12,0,0,0,.34.31,1.1,1.1,0,0,0,1,0,1.12,1.12,0,0,0,.34-.31,1.65,1.65,0,0,0,.22-.44,3.18,3.18,0,0,0,.13-.51,4.43,4.43,0,0,0,.06-.51c0-.18,0-.33,0-.47s0-.29,0-.46a4.6,4.6,0,0,0-.06-.52,3.18,3.18,0,0,0-.13-.51,1.65,1.65,0,0,0-.22-.44,1.08,1.08,0,0,0-.34-.3,1,1,0,0,0-1,0,1.08,1.08,0,0,0-.34.3,2,2,0,0,0-.23.44,4.7,4.7,0,0,0-.12.51,4.6,4.6,0,0,0-.06.52C150.14,251.1,150.13,251.25,150.13,251.39Z"/><path d="M153.91,251.39a5.85,5.85,0,0,1,.08-1,3.19,3.19,0,0,1,.29-.95,2,2,0,0,1,.59-.7,1.61,1.61,0,0,1,1-.28,1.55,1.55,0,0,1,.95.28,1.91,1.91,0,0,1,.59.7,3.2,3.2,0,0,1,.3.95,6.29,6.29,0,0,1,0,2,3.2,3.2,0,0,1-.3,1,1.91,1.91,0,0,1-.59.7,1.49,1.49,0,0,1-.95.28,1.54,1.54,0,0,1-1-.28,2,2,0,0,1-.59-.7,3.19,3.19,0,0,1-.29-1A5.85,5.85,0,0,1,153.91,251.39Zm.67,0a4,4,0,0,0,0,.47,4.43,4.43,0,0,0,.06.51,3.14,3.14,0,0,0,.12.51,1.67,1.67,0,0,0,.23.44,1,1,0,0,0,.34.31.9.9,0,0,0,.48.11,1,1,0,0,0,.48-.11,1.24,1.24,0,0,0,.34-.31,1.65,1.65,0,0,0,.22-.44,3.18,3.18,0,0,0,.13-.51,4.43,4.43,0,0,0,.06-.51c0-.18,0-.33,0-.47s0-.29,0-.46a4.6,4.6,0,0,0-.06-.52,3.18,3.18,0,0,0-.13-.51,1.65,1.65,0,0,0-.22-.44,1.21,1.21,0,0,0-.34-.3,1,1,0,0,0-.48-.12.9.9,0,0,0-.48.12,1,1,0,0,0-.34.3,1.67,1.67,0,0,0-.23.44,3.14,3.14,0,0,0-.12.51,4.6,4.6,0,0,0-.06.52A3.78,3.78,0,0,0,154.58,251.39Z"/><path d="M158.31,251.39a5.85,5.85,0,0,1,.08-1,3.19,3.19,0,0,1,.29-.95,2,2,0,0,1,.59-.7,1.61,1.61,0,0,1,1-.28,1.55,1.55,0,0,1,1,.28,1.91,1.91,0,0,1,.59.7,3.2,3.2,0,0,1,.3.95,6.29,6.29,0,0,1,0,2,3.2,3.2,0,0,1-.3,1,1.91,1.91,0,0,1-.59.7,1.49,1.49,0,0,1-1,.28,1.54,1.54,0,0,1-1-.28,2,2,0,0,1-.59-.7,3.19,3.19,0,0,1-.29-1A5.85,5.85,0,0,1,158.31,251.39Zm.67,0c0,.14,0,.29,0,.47a4.43,4.43,0,0,0,.06.51,3.14,3.14,0,0,0,.12.51,1.67,1.67,0,0,0,.23.44,1,1,0,0,0,.34.31.9.9,0,0,0,.48.11,1,1,0,0,0,.48-.11,1.24,1.24,0,0,0,.34-.31,1.65,1.65,0,0,0,.22-.44,3.18,3.18,0,0,0,.13-.51,4.43,4.43,0,0,0,.06-.51c0-.18,0-.33,0-.47s0-.29,0-.46a4.6,4.6,0,0,0-.06-.52,3.18,3.18,0,0,0-.13-.51,1.65,1.65,0,0,0-.22-.44,1.21,1.21,0,0,0-.34-.3,1,1,0,0,0-.48-.12.9.9,0,0,0-.48.12,1,1,0,0,0-.34.3,1.67,1.67,0,0,0-.23.44,3.14,3.14,0,0,0-.12.51,4.6,4.6,0,0,0-.06.52C159,251.1,159,251.25,159,251.39Z"/><path d="M165.32,248.18H166v6h-.63Z"/><path d="M167.19,251.37c0-.17,0-.33,0-.48s0-.29,0-.41h.59c0,.1,0,.2,0,.3v.32h0a.91.91,0,0,1,.18-.27,1.64,1.64,0,0,1,.28-.23,1.5,1.5,0,0,1,.36-.16,1.44,1.44,0,0,1,.43-.06,1.52,1.52,0,0,1,.51.08,1.36,1.36,0,0,1,.34.18.93.93,0,0,1,.21.24,1.64,1.64,0,0,1,.12.22,1.78,1.78,0,0,1,.48-.53,1.27,1.27,0,0,1,.71-.19,1.88,1.88,0,0,1,.67.11,1.1,1.1,0,0,1,.44.31,1.37,1.37,0,0,1,.24.5,2.59,2.59,0,0,1,.07.65v2.27h-.62V252a2.33,2.33,0,0,0,0-.37,1,1,0,0,0-.15-.33.71.71,0,0,0-.28-.23,1,1,0,0,0-.45-.09,1,1,0,0,0-.37.08,1,1,0,0,0-.31.22,1.13,1.13,0,0,0-.21.35,1.33,1.33,0,0,0-.07.45v2.16h-.63V252.1a1.62,1.62,0,0,0-.17-.88A.6.6,0,0,0,169,251a1.18,1.18,0,0,0-.52.1.88.88,0,0,0-.36.3,1.14,1.14,0,0,0-.21.46,2.1,2.1,0,0,0-.07.58v1.82h-.62Z"/><line class="cls-1" x1="38.21" y1="253" x2="46.2" y2="253"/><path d="M235.17,251a1.66,1.66,0,0,0-.63-.52,1.93,1.93,0,0,0-.79-.17,2.13,2.13,0,0,0-.87.19,2.16,2.16,0,0,0-.68.52,2.58,2.58,0,0,0-.45.75,2.69,2.69,0,0,0-.16.89,2.79,2.79,0,0,0,.16.93,2.41,2.41,0,0,0,.45.74,2,2,0,0,0,.68.5,1.92,1.92,0,0,0,.87.19,2,2,0,0,0,1.64-.8l.51.43a2.38,2.38,0,0,1-.93.75,3,3,0,0,1-1.22.24,2.85,2.85,0,0,1-1.13-.22,2.82,2.82,0,0,1-.92-.62,3,3,0,0,1-.61-.94,3.33,3.33,0,0,1-.22-1.2,3.19,3.19,0,0,1,.21-1.16,2.9,2.9,0,0,1,.6-1,3.08,3.08,0,0,1,.91-.63,3,3,0,0,1,2.27,0,2,2,0,0,1,.89.68Z"/><path d="M239,253.1l0,0a1.35,1.35,0,0,1-.37.13,2.87,2.87,0,0,1-.39,0,1.68,1.68,0,0,1-.68-.13,1.5,1.5,0,0,1-.55-.36,1.92,1.92,0,0,1-.36-.56,2.11,2.11,0,0,1-.12-.73,1.75,1.75,0,0,1,.14-.74,1.63,1.63,0,0,1,.4-.56,1.79,1.79,0,0,1,.6-.35,2.36,2.36,0,0,1,.75-.12,2.27,2.27,0,0,1,.75.12,1.94,1.94,0,0,1,.61.35,1.49,1.49,0,0,1,.39.56,1.75,1.75,0,0,1,.15.74,2.19,2.19,0,0,1,0,.46c0,.14-.07.27-.11.4a2.53,2.53,0,0,1-.18.37,3.35,3.35,0,0,1-.21.36l-1.5,2.4h-.79Zm-.6-.43a1.51,1.51,0,0,0,.48-.08,1.28,1.28,0,0,0,.39-.24,1.12,1.12,0,0,0,.26-.38,1.27,1.27,0,0,0,.1-.5,1.26,1.26,0,0,0-.1-.49,1,1,0,0,0-.26-.38,1,1,0,0,0-.39-.24,1.33,1.33,0,0,0-1,0,.88.88,0,0,0-.38.24,1.19,1.19,0,0,0-.27.38,1.26,1.26,0,0,0-.09.49,1.28,1.28,0,0,0,.09.5,1.31,1.31,0,0,0,.27.38,1.12,1.12,0,0,0,.38.24A1.51,1.51,0,0,0,238.35,252.67Z"/><path d="M240.88,252.62a7.07,7.07,0,0,1,.08-1,2.88,2.88,0,0,1,.3-.94,2,2,0,0,1,.58-.71,1.84,1.84,0,0,1,1.92,0,2,2,0,0,1,.58.71,2.88,2.88,0,0,1,.3.94,7.07,7.07,0,0,1,.08,1,7,7,0,0,1-.08,1,2.86,2.86,0,0,1-.3.95,2,2,0,0,1-.58.71,1.84,1.84,0,0,1-1.92,0,2,2,0,0,1-.58-.71,2.86,2.86,0,0,1-.3-.95A7,7,0,0,1,240.88,252.62Zm.67,0c0,.14,0,.3,0,.47a4.43,4.43,0,0,0,.06.51,2.72,2.72,0,0,0,.13.51,1.51,1.51,0,0,0,.22.44,1.12,1.12,0,0,0,.34.31,1,1,0,0,0,1,0,1.12,1.12,0,0,0,.34-.31,1.51,1.51,0,0,0,.22-.44,2.72,2.72,0,0,0,.13-.51,4.43,4.43,0,0,0,.06-.51c0-.17,0-.33,0-.47s0-.29,0-.46a4.88,4.88,0,0,0-.06-.52,2.83,2.83,0,0,0-.13-.5,1.4,1.4,0,0,0-.22-.44,1.12,1.12,0,0,0-.34-.31,1,1,0,0,0-1,0,1.12,1.12,0,0,0-.34.31,1.4,1.4,0,0,0-.22.44,2.83,2.83,0,0,0-.13.5,4.88,4.88,0,0,0-.06.52C241.56,252.33,241.55,252.49,241.55,252.62Z"/><path d="M247.78,255.8l-.51-.2,2.41-6.14.5.19Z"/><path d="M257.1,251a1.66,1.66,0,0,0-.63-.52,1.92,1.92,0,0,0-.78-.17,2.06,2.06,0,0,0-.87.19,2.16,2.16,0,0,0-.68.52,2.21,2.21,0,0,0-.45.75,2.46,2.46,0,0,0-.16.89,2.56,2.56,0,0,0,.16.93,2.2,2.2,0,0,0,.44.74,2.1,2.1,0,0,0,.68.5,2,2,0,0,0,.88.19,2,2,0,0,0,.93-.21,2,2,0,0,0,.71-.59l.5.43a2.29,2.29,0,0,1-.92.75,3,3,0,0,1-1.22.24,2.8,2.8,0,0,1-2.05-.84,2.82,2.82,0,0,1-.61-.94,3.13,3.13,0,0,1-.22-1.2,3.19,3.19,0,0,1,.21-1.16,2.75,2.75,0,0,1,.6-1,3,3,0,0,1,.91-.63,2.93,2.93,0,0,1,1.16-.23,3,3,0,0,1,1.11.21,2,2,0,0,1,.89.68Z"/><path d="M258.46,254.69l2.14-2.08.35-.36a1.75,1.75,0,0,0,.25-.32,1,1,0,0,0,.15-.32,1.46,1.46,0,0,0,0-.38,1,1,0,0,0-.08-.4.93.93,0,0,0-.22-.3,1.13,1.13,0,0,0-.73-.26,1,1,0,0,0-.71.25,1.11,1.11,0,0,0-.36.66l-.73-.07a1.91,1.91,0,0,1,.21-.61,1.28,1.28,0,0,1,.39-.44,1.77,1.77,0,0,1,.53-.27,2.25,2.25,0,0,1,.64-.09,2.09,2.09,0,0,1,.67.1,1.53,1.53,0,0,1,.55.29,1.47,1.47,0,0,1,.37.48,1.39,1.39,0,0,1,.14.66,1.91,1.91,0,0,1-.09.61,1.8,1.8,0,0,1-.25.5,2.86,2.86,0,0,1-.35.43l-.41.41-1.75,1.64h2.89v.63h-3.65Z"/><path d="M266.35,250.42l-2.26,5h-.76l2.3-5H262.9v-.63h3.45Z"/><path d="M267.26,252.62a7.07,7.07,0,0,1,.08-1,3.45,3.45,0,0,1,.3-.94,2,2,0,0,1,.59-.71,1.82,1.82,0,0,1,1.91,0,2,2,0,0,1,.59.71,3.45,3.45,0,0,1,.3.94,7,7,0,0,1,.07,1,6.92,6.92,0,0,1-.07,1,3.41,3.41,0,0,1-.3.95,2,2,0,0,1-.59.71,1.82,1.82,0,0,1-1.91,0,2,2,0,0,1-.59-.71,3.41,3.41,0,0,1-.3-.95A7,7,0,0,1,267.26,252.62Zm.68,0c0,.14,0,.3,0,.47a4.43,4.43,0,0,0,.06.51,2.72,2.72,0,0,0,.13.51,1.53,1.53,0,0,0,.23.44,1,1,0,0,0,.34.31.89.89,0,0,0,.47.12,1,1,0,0,0,.49-.12,1.08,1.08,0,0,0,.33-.31,1.53,1.53,0,0,0,.23-.44,2.72,2.72,0,0,0,.13-.51,4.43,4.43,0,0,0,.06-.51c0-.17,0-.33,0-.47s0-.29,0-.46a4.88,4.88,0,0,0-.06-.52,2.83,2.83,0,0,0-.13-.5,1.41,1.41,0,0,0-.23-.44,1.08,1.08,0,0,0-.33-.31,1,1,0,0,0-.49-.12.89.89,0,0,0-.47.12,1,1,0,0,0-.34.31,1.41,1.41,0,0,0-.23.44,2.83,2.83,0,0,0-.13.5,4.88,4.88,0,0,0-.06.52C267.94,252.33,267.94,252.49,267.94,252.62Z"/><path d="M52.87,251a1.55,1.55,0,0,0-.63-.51,1.82,1.82,0,0,0-.79-.18,2,2,0,0,0-.87.2,2.13,2.13,0,0,0-.68.51,2.58,2.58,0,0,0-.45.75,2.67,2.67,0,0,0,0,1.82,2.29,2.29,0,0,0,.45.74,1.88,1.88,0,0,0,.68.5,1.92,1.92,0,0,0,.87.19,2,2,0,0,0,.93-.21,2.07,2.07,0,0,0,.71-.58l.51.42a2.38,2.38,0,0,1-.93.75,3,3,0,0,1-1.22.24,2.85,2.85,0,0,1-1.13-.22,2.82,2.82,0,0,1-.92-.62,3,3,0,0,1-.61-.94,3.27,3.27,0,0,1-.22-1.19,3.2,3.2,0,0,1,.21-1.17,3,3,0,0,1,.6-.95,3.08,3.08,0,0,1,.91-.63,3,3,0,0,1,2.27,0,2,2,0,0,1,.89.68Z"/><path d="M54.13,252.62a7,7,0,0,1,.08-1,3.11,3.11,0,0,1,.3-1,1.94,1.94,0,0,1,.59-.71,1.55,1.55,0,0,1,.95-.27,1.6,1.6,0,0,1,1,.27,2,2,0,0,1,.59.71,3.1,3.1,0,0,1,.29,1,5.77,5.77,0,0,1,.08,1,5.85,5.85,0,0,1-.08,1,3.13,3.13,0,0,1-.29.94,2,2,0,0,1-.59.71,1.6,1.6,0,0,1-1,.27,1.55,1.55,0,0,1-.95-.27,1.94,1.94,0,0,1-.59-.71,3.14,3.14,0,0,1-.3-.94A7.07,7.07,0,0,1,54.13,252.62Zm.67,0c0,.13,0,.29,0,.46a4.88,4.88,0,0,0,.06.52,2.83,2.83,0,0,0,.13.5,1.4,1.4,0,0,0,.22.44,1.1,1.1,0,0,0,.34.31,1,1,0,0,0,.48.12.9.9,0,0,0,.48-.12.92.92,0,0,0,.34-.31,1.41,1.41,0,0,0,.23-.44,2.8,2.8,0,0,0,.12-.5,4.88,4.88,0,0,0,.06-.52,3.86,3.86,0,0,0,0-.46,3.94,3.94,0,0,0,0-.47,4.43,4.43,0,0,0-.06-.51,2.71,2.71,0,0,0-.12-.51,1.53,1.53,0,0,0-.23-.44,1,1,0,0,0-.34-.31.9.9,0,0,0-.48-.12,1,1,0,0,0-.48.12,1.24,1.24,0,0,0-.34.31,1.51,1.51,0,0,0-.22.44,2.72,2.72,0,0,0-.13.51,4.43,4.43,0,0,0-.06.51C54.81,252.32,54.8,252.48,54.8,252.62Z"/><path d="M61,255.79l-.51-.2,2.41-6.14.51.19Z"/><path d="M70.36,251a1.52,1.52,0,0,0-.64-.51,1.78,1.78,0,0,0-.78-.18,2,2,0,0,0-.87.2,2.13,2.13,0,0,0-.68.51,2.58,2.58,0,0,0-.45.75,2.51,2.51,0,0,0-.16.9,2.54,2.54,0,0,0,.16.92,2.46,2.46,0,0,0,.44.74,2.09,2.09,0,0,0,1.56.69,2,2,0,0,0,.93-.21,2.07,2.07,0,0,0,.71-.58l.5.42a2.29,2.29,0,0,1-.92.75,3,3,0,0,1-1.22.24,2.93,2.93,0,0,1-1.14-.22,2.88,2.88,0,0,1-.91-.62,3,3,0,0,1-.61-.94,3.07,3.07,0,0,1-.22-1.19,3.2,3.2,0,0,1,.21-1.17,2.84,2.84,0,0,1,.6-.95,3,3,0,0,1,.91-.63,2.93,2.93,0,0,1,1.16-.23,3,3,0,0,1,1.11.21,2,2,0,0,1,.89.68Z"/><path d="M74.2,255.45h-.68v-4.8h0l-1,.85-.4-.48,1.52-1.24h.59Z"/><path d="M76.37,251.17a1.33,1.33,0,0,1,.13-.61,1.2,1.2,0,0,1,.34-.46,1.44,1.44,0,0,1,.51-.3,1.92,1.92,0,0,1,1.28,0,1.44,1.44,0,0,1,.51.3,1.32,1.32,0,0,1,.34.46,1.48,1.48,0,0,1,.12.61,1.44,1.44,0,0,1-.06.4,1.41,1.41,0,0,1-.18.37,1.18,1.18,0,0,1-.3.29,1,1,0,0,1-.38.19h0a1.44,1.44,0,0,1,.46.19,1.35,1.35,0,0,1,.35.32,1.67,1.67,0,0,1,.23.44,1.7,1.7,0,0,1,.08.51,1.74,1.74,0,0,1-.14.69,1.46,1.46,0,0,1-.39.52,1.47,1.47,0,0,1-.57.33,2.35,2.35,0,0,1-1.42,0,1.59,1.59,0,0,1-.58-.33,1.43,1.43,0,0,1-.38-.52,1.74,1.74,0,0,1-.14-.69,1.7,1.7,0,0,1,.08-.51,1.65,1.65,0,0,1,.22-.44,1.59,1.59,0,0,1,.36-.32,1.44,1.44,0,0,1,.46-.19h0a1.18,1.18,0,0,1-.39-.19,1.33,1.33,0,0,1-.29-.29,1.41,1.41,0,0,1-.18-.37A1.16,1.16,0,0,1,76.37,251.17Zm.48,2.67a1.14,1.14,0,0,0,.09.46,1.21,1.21,0,0,0,.24.35,1.16,1.16,0,0,0,.36.23A1.13,1.13,0,0,0,78,255a1,1,0,0,0,.44-.09,1,1,0,0,0,.36-.23,1.07,1.07,0,0,0,.25-.35,1.36,1.36,0,0,0,0-.92,1.07,1.07,0,0,0-.25-.35,1,1,0,0,0-.36-.23,1,1,0,0,0-.44-.09,1.13,1.13,0,0,0-.45.09,1.16,1.16,0,0,0-.36.23,1.21,1.21,0,0,0-.24.35A1.14,1.14,0,0,0,76.85,253.84ZM77,251.2a.92.92,0,0,0,.26.67.93.93,0,0,0,.69.27.9.9,0,0,0,.68-.27,1,1,0,0,0,0-1.34.9.9,0,0,0-.68-.27.93.93,0,0,0-.69.27A.92.92,0,0,0,77,251.2Z"/><path d="M80.52,252.62a5.77,5.77,0,0,1,.08-1,3.1,3.1,0,0,1,.29-1,2,2,0,0,1,.59-.71,1.6,1.6,0,0,1,1-.27,1.55,1.55,0,0,1,1,.27,1.94,1.94,0,0,1,.59.71,3.41,3.41,0,0,1,.3,1,7,7,0,0,1,.08,1,7.07,7.07,0,0,1-.08,1,3.45,3.45,0,0,1-.3.94,1.94,1.94,0,0,1-.59.71,1.55,1.55,0,0,1-1,.27,1.6,1.6,0,0,1-1-.27,2,2,0,0,1-.59-.71,3.13,3.13,0,0,1-.29-.94A5.85,5.85,0,0,1,80.52,252.62Zm.67,0a3.86,3.86,0,0,0,0,.46c0,.17,0,.34.05.52a4.07,4.07,0,0,0,.13.5,1.41,1.41,0,0,0,.23.44.92.92,0,0,0,.34.31.9.9,0,0,0,.48.12,1,1,0,0,0,.48-.12,1.1,1.1,0,0,0,.34-.31,1.65,1.65,0,0,0,.22-.44,2.83,2.83,0,0,0,.13-.5,4.88,4.88,0,0,0,.06-.52c0-.17,0-.33,0-.46s0-.3,0-.47a4.43,4.43,0,0,0-.06-.51,2.72,2.72,0,0,0-.13-.51,1.81,1.81,0,0,0-.22-.44,1.24,1.24,0,0,0-.34-.31,1,1,0,0,0-.48-.12.9.9,0,0,0-.48.12,1,1,0,0,0-.34.31,1.53,1.53,0,0,0-.23.44,3.8,3.8,0,0,0-.13.51c0,.17,0,.34-.05.51A3.94,3.94,0,0,0,81.19,252.62Z"/><line class="cls-2" x1="214.49" y1="253.42" x2="215.03" y2="253.42"/><line class="cls-2" x1="217.76" y1="253.42" x2="218.3" y2="253.42"/><line class="cls-2" x1="221.02" y1="253.42" x2="221.56" y2="253.42"/><line class="cls-2" x1="224.29" y1="253.42" x2="224.83" y2="253.42"/><line class="cls-2" x1="227.55" y1="253.42" x2="228.09" y2="253.42"/></g><g id="Ray_F1_F5915020"><path d="M55,12.09H59.4v.78H55.85v2.34h3.3V16h-3.3v3.18H55Z"/><path d="M64.43,12.87H61.54l0,1.91a1.57,1.57,0,0,1,.45-.13,2.53,2.53,0,0,1,.46,0,2.34,2.34,0,0,1,.93.18,2.06,2.06,0,0,1,.71.49,2,2,0,0,1,.46.74,2.71,2.71,0,0,1,0,1.89,2.44,2.44,0,0,1-.51.74,2.42,2.42,0,0,1-.77.47,2.57,2.57,0,0,1-1,.17,2.15,2.15,0,0,1-1.3-.35,2.44,2.44,0,0,1-.79-.94l.84-.32a1.61,1.61,0,0,0,.53.65,1.34,1.34,0,0,0,.79.24,1.68,1.68,0,0,0,.6-.11,1.58,1.58,0,0,0,.48-.33,1.82,1.82,0,0,0,.32-.52,1.78,1.78,0,0,0,.12-.67,1.67,1.67,0,0,0-.13-.69,1.45,1.45,0,0,0-.37-.5,1.53,1.53,0,0,0-.56-.31,2.17,2.17,0,0,0-.69-.11,2.22,2.22,0,0,0-.74.13,4,4,0,0,0-.7.31l.07-3.68h3.71Z"/><path d="M68.77,16.22l0,0a1.32,1.32,0,0,1-.46.16A2.37,2.37,0,0,1,67,16.25a1.88,1.88,0,0,1-.68-.45,2.21,2.21,0,0,1-.45-.7,2.59,2.59,0,0,1-.16-.91,2.34,2.34,0,0,1,.18-.93,2,2,0,0,1,.5-.69,2.3,2.3,0,0,1,.76-.44,2.81,2.81,0,0,1,1.87,0,2.16,2.16,0,0,1,.75.44,1.92,1.92,0,0,1,.5.69,2.34,2.34,0,0,1,.18.93,2.52,2.52,0,0,1-.05.57,2.63,2.63,0,0,1-.14.5,4,4,0,0,1-.21.47c-.09.15-.17.3-.27.45l-1.88,3h-1ZM68,15.69a1.64,1.64,0,0,0,.6-.1,1.44,1.44,0,0,0,.49-.3,1.49,1.49,0,0,0,.44-1.1,1.59,1.59,0,0,0-.12-.62,1.56,1.56,0,0,0-.32-.47,1.44,1.44,0,0,0-.49-.3,1.64,1.64,0,0,0-.6-.11,1.73,1.73,0,0,0-.6.11,1.39,1.39,0,0,0-.48.3,1.43,1.43,0,0,0-.33.47,1.59,1.59,0,0,0-.12.62,1.57,1.57,0,0,0,.12.63,1.43,1.43,0,0,0,.33.47,1.39,1.39,0,0,0,.48.3A1.72,1.72,0,0,0,68,15.69Z"/><path d="M74.41,19.17h-.84v-6h0l-1.27,1.07-.5-.61,1.9-1.54h.73Z"/><path d="M81.11,12.87H78.22l0,1.91a1.57,1.57,0,0,1,.45-.13,2.53,2.53,0,0,1,.46,0,2.34,2.34,0,0,1,.93.18,2.06,2.06,0,0,1,.71.49,2,2,0,0,1,.46.74,2.71,2.71,0,0,1,0,1.89,2.44,2.44,0,0,1-.51.74,2.42,2.42,0,0,1-.77.47,2.57,2.57,0,0,1-1,.17,2.15,2.15,0,0,1-1.3-.35,2.44,2.44,0,0,1-.79-.94l.84-.32a1.61,1.61,0,0,0,.53.65,1.34,1.34,0,0,0,.79.24,1.68,1.68,0,0,0,.6-.11,1.58,1.58,0,0,0,.48-.33,1.82,1.82,0,0,0,.32-.52,1.78,1.78,0,0,0,.12-.67,1.67,1.67,0,0,0-.13-.69,1.45,1.45,0,0,0-.37-.5,1.53,1.53,0,0,0-.56-.31,2.17,2.17,0,0,0-.69-.11,2.22,2.22,0,0,0-.74.13,4,4,0,0,0-.7.31l.07-3.68h3.71Z"/><path d="M82.31,15.63a9.26,9.26,0,0,1,.1-1.25,4,4,0,0,1,.37-1.18,2.44,2.44,0,0,1,.74-.88,2.22,2.22,0,0,1,2.39,0,2.41,2.41,0,0,1,.73.88A3.71,3.71,0,0,1,87,14.38a7.88,7.88,0,0,1,.1,1.25,7.79,7.79,0,0,1-.1,1.25,3.77,3.77,0,0,1-.37,1.19,2.5,2.5,0,0,1-.73.88,2.27,2.27,0,0,1-2.39,0,2.53,2.53,0,0,1-.74-.88,4,4,0,0,1-.37-1.19A9.14,9.14,0,0,1,82.31,15.63Zm.84,0c0,.18,0,.37,0,.58s0,.43.08.65a3.42,3.42,0,0,0,.16.63,1.9,1.9,0,0,0,.28.55,1.42,1.42,0,0,0,.42.39,1.27,1.27,0,0,0,.6.14,1.21,1.21,0,0,0,.6-.14,1.45,1.45,0,0,0,.43-.39,2.19,2.19,0,0,0,.28-.55,4.47,4.47,0,0,0,.16-.63c0-.22.06-.43.07-.65s0-.4,0-.58,0-.36,0-.58,0-.43-.07-.64a4.61,4.61,0,0,0-.16-.64,2.37,2.37,0,0,0-.28-.55,1.3,1.3,0,0,0-.43-.38,1.11,1.11,0,0,0-.6-.15,1.16,1.16,0,0,0-.6.15,1.27,1.27,0,0,0-.42.38,2,2,0,0,0-.28.55,3.53,3.53,0,0,0-.16.64c0,.21-.06.43-.08.64S83.15,15.46,83.15,15.63Z"/><path d="M88,18.21l2.67-2.6c.17-.16.32-.31.44-.44a3.5,3.5,0,0,0,.32-.4,1.65,1.65,0,0,0,.18-.41,1.68,1.68,0,0,0,.06-.47,1.18,1.18,0,0,0-.1-.5,1.11,1.11,0,0,0-.27-.37,1.14,1.14,0,0,0-.41-.24,1.44,1.44,0,0,0-.51-.09,1.34,1.34,0,0,0-.89.31,1.47,1.47,0,0,0-.45.82l-.91-.08a2.29,2.29,0,0,1,.27-.76,1.77,1.77,0,0,1,.49-.56,2.15,2.15,0,0,1,.66-.33,2.63,2.63,0,0,1,.8-.12,2.49,2.49,0,0,1,.83.13,2.06,2.06,0,0,1,.69.36,1.87,1.87,0,0,1,.47.6,2,2,0,0,1,.17.83,2.53,2.53,0,0,1-.11.76,2.64,2.64,0,0,1-.31.63,4.51,4.51,0,0,1-.44.54c-.17.17-.34.34-.52.5l-2.18,2.05v0h3.61v.78H88Z"/><path d="M93.43,15.63a9.26,9.26,0,0,1,.1-1.25,4,4,0,0,1,.37-1.18,2.44,2.44,0,0,1,.74-.88,2.22,2.22,0,0,1,2.39,0,2.41,2.41,0,0,1,.73.88,3.71,3.71,0,0,1,.37,1.18,7.88,7.88,0,0,1,.1,1.25,7.79,7.79,0,0,1-.1,1.25,3.77,3.77,0,0,1-.37,1.19A2.5,2.5,0,0,1,97,19a2.27,2.27,0,0,1-2.39,0,2.53,2.53,0,0,1-.74-.88,4,4,0,0,1-.37-1.19A9.14,9.14,0,0,1,93.43,15.63Zm.84,0c0,.18,0,.37,0,.58s0,.43.08.65a3.42,3.42,0,0,0,.16.63,1.9,1.9,0,0,0,.28.55,1.42,1.42,0,0,0,.42.39,1.27,1.27,0,0,0,.6.14,1.21,1.21,0,0,0,.6-.14,1.45,1.45,0,0,0,.43-.39,2.19,2.19,0,0,0,.28-.55,4.47,4.47,0,0,0,.16-.63c0-.22.06-.43.07-.65s0-.4,0-.58,0-.36,0-.58,0-.43-.07-.64a4.61,4.61,0,0,0-.16-.64,2.37,2.37,0,0,0-.28-.55,1.3,1.3,0,0,0-.43-.38,1.11,1.11,0,0,0-.6-.15,1.16,1.16,0,0,0-.6.15,1.27,1.27,0,0,0-.42.38,2,2,0,0,0-.28.55,3.53,3.53,0,0,0-.16.64c0,.21-.06.43-.08.64S94.27,15.46,94.27,15.63Z"/><path d="M98.61,19.92h5v.5h-5Z"/><path d="M107.21,19.17h-.84v-6h0l-1.27,1.07-.5-.61,1.9-1.54h.73Z"/><path d="M113.91,12.87H111l0,1.91a1.57,1.57,0,0,1,.45-.13,2.53,2.53,0,0,1,.46,0,2.34,2.34,0,0,1,.93.18,2.06,2.06,0,0,1,.71.49A2,2,0,0,1,114,16a2.71,2.71,0,0,1,0,1.89,2.28,2.28,0,0,1-.51.74,2.31,2.31,0,0,1-.77.47,2.57,2.57,0,0,1-1,.17,2.15,2.15,0,0,1-1.3-.35,2.44,2.44,0,0,1-.79-.94l.84-.32a1.61,1.61,0,0,0,.53.65,1.34,1.34,0,0,0,.79.24,1.68,1.68,0,0,0,.6-.11,1.58,1.58,0,0,0,.48-.33,1.62,1.62,0,0,0,.32-.52,1.78,1.78,0,0,0,.12-.67,1.67,1.67,0,0,0-.13-.69,1.34,1.34,0,0,0-.37-.5,1.53,1.53,0,0,0-.56-.31,2.17,2.17,0,0,0-.69-.11,2.22,2.22,0,0,0-.74.13,4,4,0,0,0-.7.31l.07-3.68h3.71Z"/><path d="M115.11,15.63a9.26,9.26,0,0,1,.1-1.25,4,4,0,0,1,.37-1.18,2.44,2.44,0,0,1,.74-.88,2.22,2.22,0,0,1,2.39,0,2.41,2.41,0,0,1,.73.88,3.71,3.71,0,0,1,.37,1.18,7.88,7.88,0,0,1,.1,1.25,7.79,7.79,0,0,1-.1,1.25,3.77,3.77,0,0,1-.37,1.19,2.5,2.5,0,0,1-.73.88,2.27,2.27,0,0,1-2.39,0,2.53,2.53,0,0,1-.74-.88,4,4,0,0,1-.37-1.19A9.14,9.14,0,0,1,115.11,15.63Zm.84,0c0,.18,0,.37,0,.58s0,.43.08.65a3.42,3.42,0,0,0,.16.63,1.9,1.9,0,0,0,.28.55,1.42,1.42,0,0,0,.42.39,1.27,1.27,0,0,0,.6.14,1.21,1.21,0,0,0,.6-.14,1.45,1.45,0,0,0,.43-.39,2.19,2.19,0,0,0,.28-.55,4.47,4.47,0,0,0,.16-.63,4.78,4.78,0,0,0,.07-.65c0-.21,0-.4,0-.58s0-.36,0-.58a4.79,4.79,0,0,0-.23-1.28,2.37,2.37,0,0,0-.28-.55,1.3,1.3,0,0,0-.43-.38,1.11,1.11,0,0,0-.6-.15,1.16,1.16,0,0,0-.6.15,1.27,1.27,0,0,0-.42.38,2,2,0,0,0-.28.55,3.53,3.53,0,0,0-.16.64c0,.21-.06.43-.08.64S116,15.46,116,15.63Z"/><path d="M120.35,12.09h.93L122.89,18h0l1.74-5.88h.94L127.32,18h0L129,12.09h.88l-2.08,7.08h-.91l-1.75-6h0l-1.76,6h-.92Z"/><path d="M133.51,12.09h.84v3h3.78v-3H139v7.08h-.84v-3.3h-3.78v3.3h-.84Z"/><path d="M140.8,12.09h.84v6.3h3.24v.78H140.8Z"/><rect class="cls-3" x="54.49" y="42.43" width="189.86" height="189.86"/><circle class="cls-4" cx="149.43" cy="137.31" r="18.95"/><path d="M151.47,163.55l2.14-2.08.35-.36a1.75,1.75,0,0,0,.25-.32,1,1,0,0,0,.15-.32,1.46,1.46,0,0,0,0-.38,1,1,0,0,0-.08-.4.84.84,0,0,0-.22-.3.89.89,0,0,0-.33-.19,1.05,1.05,0,0,0-.4-.07,1,1,0,0,0-.71.25,1.08,1.08,0,0,0-.36.66l-.73-.07a1.91,1.91,0,0,1,.21-.61,1.28,1.28,0,0,1,.39-.44,1.77,1.77,0,0,1,.53-.27,2.2,2.2,0,0,1,.64-.09,2.09,2.09,0,0,1,.67.1,1.53,1.53,0,0,1,.55.29,1.47,1.47,0,0,1,.37.48,1.39,1.39,0,0,1,.14.66,1.91,1.91,0,0,1-.09.61,1.8,1.8,0,0,1-.25.5,2.86,2.86,0,0,1-.35.43c-.13.14-.27.27-.41.41l-1.75,1.63v0h2.89v.63h-3.65Z"/><path d="M155.78,161.48a7.07,7.07,0,0,1,.08-1,3.13,3.13,0,0,1,.29-.94,2,2,0,0,1,.59-.71,1.6,1.6,0,0,1,1-.27,1.55,1.55,0,0,1,1,.27,1.94,1.94,0,0,1,.59.71,2.88,2.88,0,0,1,.3.94,7.07,7.07,0,0,1,.08,1,7,7,0,0,1-.08,1,2.86,2.86,0,0,1-.3,1,1.83,1.83,0,0,1-.59.7,1.49,1.49,0,0,1-1,.28,1.54,1.54,0,0,1-1-.28,1.92,1.92,0,0,1-.59-.7,3.1,3.1,0,0,1-.29-1A7,7,0,0,1,155.78,161.48Zm.67,0c0,.14,0,.3,0,.47a4.43,4.43,0,0,0,.06.51,3.81,3.81,0,0,0,.12.51,1.83,1.83,0,0,0,.23.44,1,1,0,0,0,.34.31.9.9,0,0,0,.48.11,1,1,0,0,0,.48-.11,1.24,1.24,0,0,0,.34-.31,1.51,1.51,0,0,0,.22-.44,2.72,2.72,0,0,0,.13-.51,4.43,4.43,0,0,0,.06-.51c0-.17,0-.33,0-.47s0-.29,0-.46a4.88,4.88,0,0,0-.06-.52,2.83,2.83,0,0,0-.13-.5,1.4,1.4,0,0,0-.22-.44,1.1,1.1,0,0,0-.34-.31,1,1,0,0,0-.48-.12.9.9,0,0,0-.48.12.92.92,0,0,0-.34.31,1.66,1.66,0,0,0-.23.44,4.05,4.05,0,0,0-.12.5,4.88,4.88,0,0,0-.06.52C156.46,161.19,156.45,161.34,156.45,161.48Z"/><circle class="cls-4" cx="149.43" cy="137.31" r="37.91"/><path d="M154.43,181.35h.81V182h-.81v1.3h-.68V182h-2.4v-.74l2.25-3.62h.83Zm-.68-3h0l-1.81,3h1.82Z"/><path d="M155.78,180.44a7,7,0,0,1,.08-1,3.1,3.1,0,0,1,.29-.95,1.92,1.92,0,0,1,.59-.7,1.54,1.54,0,0,1,1-.28,1.49,1.49,0,0,1,1,.28,1.83,1.83,0,0,1,.59.7,2.86,2.86,0,0,1,.3.95,7,7,0,0,1,.08,1,7.07,7.07,0,0,1-.08,1,3,3,0,0,1-.3.95,1.91,1.91,0,0,1-.59.7,1.55,1.55,0,0,1-1,.28,1.61,1.61,0,0,1-1-.28,2,2,0,0,1-.59-.7,3.28,3.28,0,0,1-.29-.95A7.07,7.07,0,0,1,155.78,180.44Zm.67,0c0,.14,0,.29,0,.46a4.88,4.88,0,0,0,.06.52,4.05,4.05,0,0,0,.12.5,1.9,1.9,0,0,0,.23.45,1,1,0,0,0,.34.3.9.9,0,0,0,.48.12,1,1,0,0,0,.48-.12,1.21,1.21,0,0,0,.34-.3,1.57,1.57,0,0,0,.22-.45,2.83,2.83,0,0,0,.13-.5,4.88,4.88,0,0,0,.06-.52c0-.17,0-.32,0-.46s0-.3,0-.47a4.43,4.43,0,0,0-.06-.51,2.72,2.72,0,0,0-.13-.51,1.51,1.51,0,0,0-.22-.44,1.24,1.24,0,0,0-.34-.31,1,1,0,0,0-.48-.12.9.9,0,0,0-.48.12,1,1,0,0,0-.34.31,1.83,1.83,0,0,0-.23.44,3.81,3.81,0,0,0-.12.51,4.43,4.43,0,0,0-.06.51C156.46,180.14,156.45,180.3,156.45,180.44Z"/><circle class="cls-4" cx="149.43" cy="137.31" r="56.92"/><path d="M152.71,199v0a1.35,1.35,0,0,1,.37-.13,2,2,0,0,1,.39,0,1.73,1.73,0,0,1,.69.13,1.55,1.55,0,0,1,.54.36,1.85,1.85,0,0,1,.36.57,2.09,2.09,0,0,1,.12.72,1.78,1.78,0,0,1-.14.74,1.63,1.63,0,0,1-.4.56,1.79,1.79,0,0,1-.6.35,2.36,2.36,0,0,1-.75.12,2.27,2.27,0,0,1-.75-.12,1.79,1.79,0,0,1-.6-.35,1.51,1.51,0,0,1-.4-.56,1.78,1.78,0,0,1-.15-.74,2.28,2.28,0,0,1,.15-.86,5.9,5.9,0,0,1,.39-.74l1.5-2.39h.79Zm.59.43a1.23,1.23,0,0,0-.87.32,1.12,1.12,0,0,0-.26.38,1.3,1.3,0,0,0,0,1,1.08,1.08,0,0,0,.26.37,1,1,0,0,0,.39.24,1.33,1.33,0,0,0,1,0,1,1,0,0,0,.39-.24,1.23,1.23,0,0,0,.26-.37,1.43,1.43,0,0,0,0-1,1.18,1.18,0,0,0-1.13-.7Z"/><path d="M155.78,199.45a6.85,6.85,0,0,1,.08-1,3.1,3.1,0,0,1,.29-.95,2,2,0,0,1,.59-.71,1.6,1.6,0,0,1,1-.27,1.55,1.55,0,0,1,1,.27,1.94,1.94,0,0,1,.59.71,2.86,2.86,0,0,1,.3.95,6.85,6.85,0,0,1,.08,1,7.19,7.19,0,0,1-.08,1,2.88,2.88,0,0,1-.3.94,1.94,1.94,0,0,1-.59.71,1.55,1.55,0,0,1-1,.27,1.6,1.6,0,0,1-1-.27,2,2,0,0,1-.59-.71,3.13,3.13,0,0,1-.29-.94A7.19,7.19,0,0,1,155.78,199.45Zm.67,0c0,.13,0,.29,0,.46a4.43,4.43,0,0,0,.06.51,3.81,3.81,0,0,0,.12.51,1.66,1.66,0,0,0,.23.44,1,1,0,0,0,.34.31.9.9,0,0,0,.48.12,1,1,0,0,0,.48-.12,1.24,1.24,0,0,0,.34-.31,1.4,1.4,0,0,0,.22-.44,2.72,2.72,0,0,0,.13-.51,4.43,4.43,0,0,0,.06-.51c0-.17,0-.33,0-.46s0-.3,0-.47a4.88,4.88,0,0,0-.06-.52,2.83,2.83,0,0,0-.13-.5,1.51,1.51,0,0,0-.22-.44,1.24,1.24,0,0,0-.34-.31,1,1,0,0,0-.48-.12.9.9,0,0,0-.48.12,1,1,0,0,0-.34.31,1.83,1.83,0,0,0-.23.44,4.05,4.05,0,0,0-.12.5,4.88,4.88,0,0,0-.06.52C156.46,199.15,156.45,199.31,156.45,199.45Z"/><circle class="cls-4" cx="149.43" cy="137.31" r="75.92"/><path d="M151.68,217a1.46,1.46,0,0,1,.47-1.07,1.6,1.6,0,0,1,.51-.3,2.1,2.1,0,0,1,1.28,0,1.6,1.6,0,0,1,.51.3,1.46,1.46,0,0,1,.4,1.48,1.22,1.22,0,0,1-.18.36,1.42,1.42,0,0,1-.3.3,1,1,0,0,1-.38.18v0a1.44,1.44,0,0,1,.46.19,1.07,1.07,0,0,1,.35.32,1.53,1.53,0,0,1,.23.44,1.7,1.7,0,0,1,.08.51,1.74,1.74,0,0,1-.14.69,1.55,1.55,0,0,1-.39.52,1.78,1.78,0,0,1-.57.33,2.35,2.35,0,0,1-1.42,0,1.94,1.94,0,0,1-.58-.33,1.52,1.52,0,0,1-.38-.52,1.74,1.74,0,0,1-.14-.69,1.7,1.7,0,0,1,.08-.51,1.51,1.51,0,0,1,.22-.44,1.22,1.22,0,0,1,.36-.32,1.44,1.44,0,0,1,.46-.19v0a1.15,1.15,0,0,1-.39-.18,1.64,1.64,0,0,1-.29-.3,1.22,1.22,0,0,1-.18-.36A1.18,1.18,0,0,1,151.68,217Zm.48,2.68a1.15,1.15,0,0,0,.33.81,1.16,1.16,0,0,0,.36.23,1.12,1.12,0,0,0,.45.08,1,1,0,0,0,.44-.08,1,1,0,0,0,.36-.23,1,1,0,0,0,.25-.36,1.12,1.12,0,0,0,.08-.45,1.14,1.14,0,0,0-.08-.46.9.9,0,0,0-.25-.35,1.13,1.13,0,0,0-.36-.24,1.23,1.23,0,0,0-.44-.08,1.33,1.33,0,0,0-.45.08,1.41,1.41,0,0,0-.36.24,1,1,0,0,0-.24.35A1.14,1.14,0,0,0,152.16,219.68Zm.19-2.64a.94.94,0,0,0,.26.67,1,1,0,0,0,.69.26.93.93,0,0,0,.68-.26.9.9,0,0,0,.26-.67.88.88,0,0,0-.26-.67.9.9,0,0,0-.68-.27.93.93,0,0,0-.69.27A.92.92,0,0,0,152.35,217Z"/><path d="M155.78,218.45a7.07,7.07,0,0,1,.08-1,3.28,3.28,0,0,1,.29-.95,2.1,2.1,0,0,1,.59-.7,1.6,1.6,0,0,1,1-.27,1.55,1.55,0,0,1,1,.27,2,2,0,0,1,.59.7,3,3,0,0,1,.3.95,7.07,7.07,0,0,1,.08,1,7,7,0,0,1-.08,1,2.86,2.86,0,0,1-.3,1,1.94,1.94,0,0,1-.59.71,1.55,1.55,0,0,1-1,.27,1.6,1.6,0,0,1-1-.27,2,2,0,0,1-.59-.71,3.1,3.1,0,0,1-.29-1A7,7,0,0,1,155.78,218.45Zm.67,0c0,.14,0,.3,0,.47a4.43,4.43,0,0,0,.06.51,3.81,3.81,0,0,0,.12.51,1.83,1.83,0,0,0,.23.44,1,1,0,0,0,.34.31.9.9,0,0,0,.48.11,1,1,0,0,0,.48-.11,1.24,1.24,0,0,0,.34-.31,1.51,1.51,0,0,0,.22-.44,2.72,2.72,0,0,0,.13-.51,4.43,4.43,0,0,0,.06-.51c0-.17,0-.33,0-.47s0-.29,0-.46a4.88,4.88,0,0,0-.06-.52,3.18,3.18,0,0,0-.13-.51,1.45,1.45,0,0,0-.22-.43,1.1,1.1,0,0,0-.34-.31,1,1,0,0,0-.48-.12.9.9,0,0,0-.48.12.92.92,0,0,0-.34.31,1.76,1.76,0,0,0-.23.43,4.7,4.7,0,0,0-.12.51,4.88,4.88,0,0,0-.06.52C156.46,218.16,156.45,218.31,156.45,218.45Z"/><circle class="cls-4" cx="149.43" cy="137.31" r="94.93"/><line class="cls-4" x1="54.49" y1="137.37" x2="244.41" y2="137.37"/><line class="cls-4" x1="149.43" y1="232.3" x2="149.43" y2="42.38"/><line class="cls-4" x1="94.67" y1="42.38" x2="204.24" y2="232.3"/><line class="cls-4" x1="94.67" y1="232.3" x2="204.24" y2="42.38"/><line class="cls-4" x1="54.49" y1="82.56" x2="244.41" y2="192.12"/><line class="cls-4" x1="54.49" y1="192.12" x2="244.41" y2="82.56"/><line class="cls-1" x1="149.43" y1="165.88" x2="150.45" y2="167.28"/><line class="cls-1" x1="150.45" y1="167.28" x2="151.64" y2="168.96"/><line class="cls-1" x1="151.64" y1="168.96" x2="152.83" y2="169.71"/><line class="cls-1" x1="152.83" y1="169.71" x2="153.96" y2="169.71"/><line class="cls-1" x1="153.96" y1="169.71" x2="155.15" y2="169.87"/><line class="cls-1" x1="155.15" y1="169.87" x2="156.39" y2="169.98"/><line class="cls-1" x1="156.39" y1="169.98" x2="157.63" y2="170.25"/><line class="cls-1" x1="157.63" y1="170.25" x2="158.71" y2="169.71"/><line class="cls-1" x1="158.71" y1="169.71" x2="159.31" y2="167.82"/><line class="cls-1" x1="159.31" y1="167.82" x2="160.33" y2="167.34"/><line class="cls-1" x1="160.33" y1="167.34" x2="161.68" y2="167.66"/><line class="cls-1" x1="161.68" y1="167.66" x2="163.57" y2="169.12"/><line class="cls-1" x1="163.57" y1="169.12" x2="165.3" y2="169.87"/><line class="cls-1" x1="165.3" y1="169.87" x2="166.81" y2="169.98"/><line class="cls-1" x1="166.81" y1="169.98" x2="168.87" y2="171.01"/><line class="cls-1" x1="168.87" y1="171.01" x2="171.4" y2="172.52"/><line class="cls-1" x1="171.4" y1="172.52" x2="174.16" y2="173.98"/><line class="cls-1" x1="174.16" y1="173.98" x2="178.8" y2="177.76"/><line class="cls-1" x1="178.8" y1="177.76" x2="185.93" y2="184.02"/><line class="cls-1" x1="185.93" y1="184.02" x2="192.95" y2="189.15"/><line class="cls-1" x1="192.95" y1="189.15" x2="200.4" y2="193.9"/><line class="cls-1" x1="200.4" y1="193.9" x2="210.07" y2="200.11"/><line class="cls-1" x1="210.07" y1="200.11" x2="213.96" y2="199.63"/><line class="cls-1" x1="213.96" y1="199.63" x2="213.47" y2="194.93"/><line class="cls-1" x1="213.47" y1="194.93" x2="210.34" y2="188.4"/><line class="cls-1" x1="210.34" y1="188.4" x2="203.91" y2="179.86"/><line class="cls-1" x1="203.91" y1="179.86" x2="190.79" y2="167.34"/><line class="cls-1" x1="190.79" y1="167.34" x2="185.01" y2="161.34"/><line class="cls-1" x1="185.01" y1="161.34" x2="184.53" y2="159.24"/><line class="cls-1" x1="184.53" y1="159.24" x2="182.91" y2="156.64"/><line class="cls-1" x1="182.91" y1="156.64" x2="181.66" y2="154.48"/><line class="cls-1" x1="181.66" y1="154.48" x2="181.12" y2="152.76"/><line class="cls-1" x1="181.12" y1="152.76" x2="180.21" y2="151.03"/><line class="cls-1" x1="180.21" y1="151.03" x2="179.29" y2="149.35"/><line class="cls-1" x1="179.29" y1="149.35" x2="178.42" y2="147.84"/><line class="cls-1" x1="178.42" y1="147.84" x2="177.61" y2="146.44"/><line class="cls-1" x1="177.61" y1="146.44" x2="176.8" y2="145.14"/><line class="cls-1" x1="176.8" y1="145.14" x2="176.16" y2="143.95"/><line class="cls-1" x1="176.16" y1="143.95" x2="175.72" y2="142.87"/><line class="cls-1" x1="175.72" y1="142.87" x2="175.18" y2="141.85"/><line class="cls-1" x1="175.18" y1="141.85" x2="174.7" y2="140.88"/><line class="cls-1" x1="174.7" y1="140.88" x2="174.16" y2="139.9"/><line class="cls-1" x1="174.16" y1="139.9" x2="173.73" y2="138.99"/><line class="cls-1" x1="173.73" y1="138.99" x2="173.24" y2="138.12"/><line class="cls-1" x1="173.24" y1="138.12" x2="172.92" y2="137.37"/><line class="cls-1" x1="172.92" y1="137.37" x2="172.7" y2="136.56"/><line class="cls-1" x1="172.7" y1="136.56" x2="172.54" y2="135.75"/><line class="cls-1" x1="172.54" y1="135.75" x2="172.7" y2="134.94"/><line class="cls-1" x1="172.7" y1="134.94" x2="173.29" y2="134.02"/><line class="cls-1" x1="173.29" y1="134.02" x2="173.67" y2="133.1"/><line class="cls-1" x1="173.67" y1="133.1" x2="173.94" y2="132.13"/><line class="cls-1" x1="173.94" y1="132.13" x2="174.21" y2="131.21"/><line class="cls-1" x1="174.21" y1="131.21" x2="174.37" y2="130.18"/><line class="cls-1" x1="174.37" y1="130.18" x2="174.48" y2="129.21"/><line class="cls-1" x1="174.48" y1="129.21" x2="174.59" y2="128.24"/><line class="cls-1" x1="174.59" y1="128.24" x2="174.7" y2="127.16"/><line class="cls-1" x1="174.7" y1="127.16" x2="174.64" y2="126.13"/><line class="cls-1" x1="174.64" y1="126.13" x2="175.02" y2="124.89"/><line class="cls-1" x1="175.02" y1="124.89" x2="175.51" y2="123.49"/><line class="cls-1" x1="175.51" y1="123.49" x2="176.43" y2="121.81"/><line class="cls-1" x1="176.43" y1="121.81" x2="177.61" y2="119.76"/><line class="cls-1" x1="177.61" y1="119.76" x2="179.23" y2="117.22"/><line class="cls-1" x1="179.23" y1="117.22" x2="180.53" y2="114.74"/><line class="cls-1" x1="180.53" y1="114.74" x2="180.85" y2="112.8"/><line class="cls-1" x1="180.85" y1="112.8" x2="182.74" y2="109.39"/><line class="cls-1" x1="182.74" y1="109.39" x2="185.55" y2="104.8"/><line class="cls-1" x1="185.55" y1="104.8" x2="189.93" y2="98.27"/><line class="cls-1" x1="189.93" y1="98.27" x2="192.3" y2="92.98"/><line class="cls-1" x1="192.3" y1="92.98" x2="193.98" y2="87.9"/><line class="cls-1" x1="193.98" y1="87.9" x2="194.73" y2="83.37"/><line class="cls-1" x1="194.73" y1="83.37" x2="194.68" y2="79.42"/><line class="cls-1" x1="194.68" y1="79.42" x2="194.52" y2="75.32"/><line class="cls-1" x1="194.52" y1="75.32" x2="191.71" y2="74.67"/><line class="cls-1" x1="191.71" y1="74.67" x2="186.63" y2="77.8"/><line class="cls-1" x1="186.63" y1="77.8" x2="182.1" y2="80.77"/><line class="cls-1" x1="182.1" y1="80.77" x2="177.51" y2="84.55"/><line class="cls-1" x1="177.51" y1="84.55" x2="172.7" y2="89.63"/><line class="cls-1" x1="172.7" y1="89.63" x2="168.92" y2="93.57"/><line class="cls-1" x1="168.92" y1="93.57" x2="165.68" y2="97.08"/><line class="cls-1" x1="165.68" y1="97.08" x2="162.87" y2="100.38"/><line class="cls-1" x1="162.87" y1="100.38" x2="160.5" y2="103.29"/><line class="cls-1" x1="160.5" y1="103.29" x2="158.5" y2="105.83"/><line class="cls-1" x1="158.5" y1="105.83" x2="156.72" y2="108.1"/><line class="cls-1" x1="156.72" y1="108.1" x2="155.26" y2="109.93"/><line class="cls-1" x1="155.26" y1="109.93" x2="153.96" y2="111.66"/><line class="cls-1" x1="153.96" y1="111.66" x2="152.83" y2="113.17"/><line class="cls-1" x1="152.83" y1="113.17" x2="151.8" y2="114.58"/><line class="cls-1" x1="151.8" y1="114.58" x2="150.99" y2="115.01"/><line class="cls-1" x1="150.99" y1="115.01" x2="150.18" y2="115.01"/><line class="cls-1" x1="150.18" y1="115.01" x2="149.43" y2="115.06"/><line class="cls-1" x1="149.43" y1="165.88" x2="148.45" y2="167.07"/><line class="cls-1" x1="148.45" y1="167.07" x2="147.32" y2="168.42"/><line class="cls-1" x1="147.32" y1="168.42" x2="146.13" y2="168.96"/><line class="cls-1" x1="146.13" y1="168.96" x2="145.05" y2="168.69"/><line class="cls-1" x1="145.05" y1="168.69" x2="143.97" y2="168.63"/><line class="cls-1" x1="143.97" y1="168.63" x2="142.84" y2="168.47"/><line class="cls-1" x1="142.84" y1="168.47" x2="141.7" y2="168.52"/><line class="cls-1" x1="141.7" y1="168.52" x2="140.73" y2="167.82"/><line class="cls-1" x1="140.73" y1="167.82" x2="140.25" y2="165.66"/><line class="cls-1" x1="140.25" y1="165.66" x2="139.38" y2="165.07"/><line class="cls-1" x1="139.38" y1="165.07" x2="138.14" y2="165.34"/><line class="cls-1" x1="138.14" y1="165.34" x2="136.36" y2="166.85"/><line class="cls-1" x1="136.36" y1="166.85" x2="134.68" y2="167.66"/><line class="cls-1" x1="134.68" y1="167.66" x2="133.23" y2="167.93"/><line class="cls-1" x1="133.23" y1="167.93" x2="131.07" y2="169.17"/><line class="cls-1" x1="131.07" y1="169.17" x2="128.37" y2="171.06"/><line class="cls-1" x1="128.37" y1="171.06" x2="125.18" y2="173.33"/><line class="cls-1" x1="125.18" y1="173.33" x2="120.81" y2="176.79"/><line class="cls-1" x1="120.81" y1="176.79" x2="114.7" y2="181.81"/><line class="cls-1" x1="114.7" y1="181.81" x2="108.6" y2="186.02"/><line class="cls-1" x1="108.6" y1="186.02" x2="102.23" y2="189.8"/><line class="cls-1" x1="102.23" y1="189.8" x2="94.62" y2="194.12"/><line class="cls-1" x1="94.62" y1="194.12" x2="89.92" y2="194.88"/><line class="cls-1" x1="89.92" y1="194.88" x2="85.49" y2="194.93"/><line class="cls-1" x1="85.49" y1="194.93" x2="86.08" y2="190.5"/><line class="cls-1" x1="86.08" y1="190.5" x2="91.11" y2="182.94"/><line class="cls-1" x1="91.11" y1="182.94" x2="104.12" y2="170.25"/><line class="cls-1" x1="104.12" y1="170.25" x2="110.38" y2="163.72"/><line class="cls-1" x1="110.38" y1="163.72" x2="113.3" y2="159.94"/><line class="cls-1" x1="113.3" y1="159.94" x2="116.16" y2="156.54"/><line class="cls-1" x1="116.16" y1="156.54" x2="118.11" y2="154"/><line class="cls-1" x1="118.11" y1="154" x2="118.59" y2="152.38"/><line class="cls-1" x1="118.59" y1="152.38" x2="119.73" y2="150.54"/><line class="cls-1" x1="119.73" y1="150.54" x2="120.75" y2="148.92"/><line class="cls-1" x1="120.75" y1="148.92" x2="121.72" y2="147.41"/><line class="cls-1" x1="121.72" y1="147.41" x2="122.7" y2="146.01"/><line class="cls-1" x1="122.7" y1="146.01" x2="123.67" y2="144.71"/><line class="cls-1" x1="123.67" y1="144.71" x2="124.42" y2="143.58"/><line class="cls-1" x1="124.42" y1="143.58" x2="125.07" y2="142.5"/><line class="cls-1" x1="125.07" y1="142.5" x2="125.72" y2="141.52"/><line class="cls-1" x1="125.72" y1="141.52" x2="126.31" y2="140.55"/><line class="cls-1" x1="126.31" y1="140.55" x2="126.91" y2="139.69"/><line class="cls-1" x1="126.91" y1="139.69" x2="127.39" y2="138.88"/><line class="cls-1" x1="127.39" y1="138.88" x2="127.93" y2="138.07"/><line class="cls-1" x1="127.93" y1="138.07" x2="128.26" y2="137.37"/><line class="cls-1" x1="128.26" y1="137.37" x2="128.47" y2="136.61"/><line class="cls-1" x1="128.47" y1="136.61" x2="128.47" y2="135.91"/><line class="cls-1" x1="128.47" y1="135.91" x2="128.42" y2="135.15"/><line class="cls-1" x1="128.42" y1="135.15" x2="128.31" y2="134.4"/><line class="cls-1" x1="128.31" y1="134.4" x2="127.99" y2="133.59"/><line class="cls-1" x1="127.99" y1="133.59" x2="127.45" y2="132.67"/><line class="cls-1" x1="127.45" y1="132.67" x2="126.48" y2="131.64"/><line class="cls-1" x1="126.48" y1="131.64" x2="125.99" y2="130.62"/><line class="cls-1" x1="125.99" y1="130.62" x2="125.67" y2="129.64"/><line class="cls-1" x1="125.67" y1="129.64" x2="125.4" y2="128.62"/><line class="cls-1" x1="125.4" y1="128.62" x2="125.18" y2="127.54"/><line class="cls-1" x1="125.18" y1="127.54" x2="125.23" y2="126.57"/><line class="cls-1" x1="125.23" y1="126.57" x2="124.64" y2="125.27"/><line class="cls-1" x1="124.64" y1="125.27" x2="123.72" y2="123.65"/><line class="cls-1" x1="123.72" y1="123.65" x2="122.48" y2="121.76"/><line class="cls-1" x1="122.48" y1="121.76" x2="120.97" y2="119.55"/><line class="cls-1" x1="120.97" y1="119.55" x2="119.46" y2="117.12"/><line class="cls-1" x1="119.46" y1="117.12" x2="116.76" y2="113.61"/><line class="cls-1" x1="116.76" y1="113.61" x2="112.87" y2="108.75"/><line class="cls-1" x1="112.87" y1="108.75" x2="109.47" y2="103.78"/><line class="cls-1" x1="109.47" y1="103.78" x2="106.23" y2="98.43"/><line class="cls-1" x1="106.23" y1="98.43" x2="102.45" y2="91.95"/><line class="cls-1" x1="102.45" y1="91.95" x2="101.2" y2="87.42"/><line class="cls-1" x1="101.2" y1="87.42" x2="101.8" y2="84.45"/><line class="cls-1" x1="101.8" y1="84.45" x2="102.77" y2="81.69"/><line class="cls-1" x1="102.77" y1="81.69" x2="104.28" y2="79.53"/><line class="cls-1" x1="104.28" y1="79.53" x2="106.33" y2="77.97"/><line class="cls-1" x1="106.33" y1="77.97" x2="108.93" y2="77.21"/><line class="cls-1" x1="108.93" y1="77.21" x2="111.95" y2="77.32"/><line class="cls-1" x1="111.95" y1="77.32" x2="115.19" y2="78.02"/><line class="cls-1" x1="115.19" y1="78.02" x2="118.65" y2="79.32"/><line class="cls-1" x1="118.65" y1="79.32" x2="122.32" y2="81.69"/><line class="cls-1" x1="122.32" y1="81.69" x2="125.5" y2="83.53"/><line class="cls-1" x1="125.5" y1="83.53" x2="128.42" y2="85.31"/><line class="cls-1" x1="128.42" y1="85.31" x2="131.28" y2="87.31"/><line class="cls-1" x1="131.28" y1="87.31" x2="133.93" y2="89.47"/><line class="cls-1" x1="133.93" y1="89.47" x2="136.41" y2="91.79"/><line class="cls-1" x1="136.41" y1="91.79" x2="138.79" y2="94.49"/><line class="cls-1" x1="138.79" y1="94.49" x2="141" y2="97.57"/><line class="cls-1" x1="141" y1="97.57" x2="143" y2="100.7"/><line class="cls-1" x1="143" y1="100.7" x2="144.78" y2="103.94"/><line class="cls-1" x1="144.78" y1="103.94" x2="146.35" y2="107.5"/><line class="cls-1" x1="146.35" y1="107.5" x2="147.59" y2="110.15"/><line class="cls-1" x1="147.59" y1="110.15" x2="148.62" y2="112.58"/><line class="cls-1" x1="148.62" y1="112.58" x2="149.43" y2="115.06"/><line class="cls-1" x1="149.43" y1="165.88" x2="149.59" y2="166.09"/><line class="cls-1" x1="150.4" y1="167.12" x2="150.45" y2="167.17"/><line class="cls-1" x1="150.45" y1="167.17" x2="150.56" y2="167.28"/><line class="cls-1" x1="151.37" y1="168.31" x2="151.53" y2="168.52"/><line class="cls-1" x1="152.56" y1="169.28" x2="152.77" y2="169.44"/><line class="cls-1" x1="154.07" y1="169.33" x2="154.29" y2="169.39"/><line class="cls-1" x1="155.58" y1="169.44" x2="155.85" y2="169.44"/><line class="cls-1" x1="157.15" y1="169.6" x2="157.36" y2="169.66"/><line class="cls-1" x1="158.5" y1="169.12" x2="158.55" y2="169.12"/><line class="cls-1" x1="158.55" y1="169.12" x2="158.61" y2="168.9"/><line class="cls-1" x1="158.93" y1="167.66" x2="158.98" y2="167.44"/><line class="cls-1" x1="159.96" y1="166.74" x2="160.12" y2="166.69"/><line class="cls-1" x1="160.12" y1="166.69" x2="160.17" y2="166.69"/><line class="cls-1" x1="161.36" y1="167.07" x2="161.47" y2="167.12"/><line class="cls-1" x1="161.47" y1="167.12" x2="161.58" y2="167.23"/><line class="cls-1" x1="162.6" y1="168.09" x2="162.76" y2="168.25"/><line class="cls-1" x1="163.79" y1="169.01" x2="164.01" y2="169.12"/><line class="cls-1" x1="165.14" y1="169.71" x2="165.25" y2="169.77"/><line class="cls-1" x1="165.25" y1="169.77" x2="165.36" y2="169.77"/><line class="cls-1" x1="166.6" y1="170.09" x2="166.81" y2="170.14"/><line class="cls-1" x1="167.95" y1="170.74" x2="168.16" y2="170.85"/><line class="cls-1" x1="169.3" y1="171.44" x2="169.51" y2="171.55"/><line class="cls-1" x1="170.59" y1="172.25" x2="170.81" y2="172.36"/><line class="cls-1" x1="171.89" y1="173.01" x2="172.11" y2="173.11"/><line class="cls-1" x1="173.24" y1="173.71" x2="173.46" y2="173.82"/><line class="cls-1" x1="174.59" y1="174.46" x2="174.75" y2="174.63"/><line class="cls-1" x1="175.78" y1="175.44" x2="175.99" y2="175.6"/><line class="cls-1" x1="177.02" y1="176.41" x2="177.24" y2="176.57"/><line class="cls-1" x1="178.26" y1="177.38" x2="178.42" y2="177.54"/><line class="cls-1" x1="179.45" y1="178.35" x2="179.61" y2="178.51"/><line class="cls-1" x1="180.64" y1="179.38" x2="180.85" y2="179.54"/><line class="cls-1" x1="181.83" y1="180.4" x2="182.04" y2="180.57"/><line class="cls-1" x1="183.07" y1="181.43" x2="183.23" y2="181.59"/><line class="cls-1" x1="184.26" y1="182.46" x2="184.47" y2="182.62"/><line class="cls-1" x1="185.5" y1="183.48" x2="185.55" y2="183.54"/><line class="cls-1" x1="185.55" y1="183.54" x2="185.71" y2="183.64"/><line class="cls-1" x1="186.74" y1="184.4" x2="186.96" y2="184.51"/><line class="cls-1" x1="187.98" y1="185.26" x2="188.2" y2="185.43"/><line class="cls-1" x1="189.28" y1="186.18" x2="189.49" y2="186.34"/><line class="cls-1" x1="190.57" y1="187.1" x2="190.79" y2="187.26"/><line class="cls-1" x1="191.87" y1="188.02" x2="192.09" y2="188.18"/><line class="cls-1" x1="193.17" y1="188.83" x2="193.38" y2="188.99"/><line class="cls-1" x1="194.46" y1="189.64" x2="194.68" y2="189.8"/><line class="cls-1" x1="195.76" y1="190.45" x2="195.97" y2="190.61"/><line class="cls-1" x1="197.05" y1="191.26" x2="197.27" y2="191.42"/><line class="cls-1" x1="198.35" y1="192.07" x2="198.57" y2="192.23"/><line class="cls-1" x1="199.65" y1="192.88" x2="199.86" y2="192.99"/><line class="cls-1" x1="200.94" y1="193.63" x2="201.16" y2="193.74"/><line class="cls-1" x1="202.24" y1="194.39" x2="202.45" y2="194.55"/><line class="cls-1" x1="203.59" y1="195.2" x2="203.8" y2="195.31"/><line class="cls-1" x1="204.88" y1="195.96" x2="205.1" y2="196.12"/><line class="cls-1" x1="206.23" y1="196.77" x2="206.45" y2="196.87"/><line class="cls-1" x1="207.53" y1="197.52" x2="207.69" y2="197.63"/><line class="cls-1" x1="207.69" y1="197.63" x2="207.75" y2="197.63"/><line class="cls-1" x1="208.99" y1="197.9" x2="209.2" y2="197.95"/><line class="cls-1" x1="210.45" y1="198.22" x2="210.66" y2="198.28"/><line class="cls-1" x1="211.9" y1="198.55" x2="212.17" y2="198.6"/><line class="cls-1" x1="213.42" y1="198.82" x2="213.69" y2="198.82"/><line class="cls-1" x1="214.98" y1="198.98" x2="215.25" y2="198.98"/><line class="cls-1" x1="216.55" y1="199.14" x2="216.82" y2="199.14"/><line class="cls-1" x1="218.11" y1="199.3" x2="218.28" y2="199.3"/><line class="cls-1" x1="218.28" y1="199.3" x2="218.28" y2="199.2"/><line class="cls-1" x1="218.17" y1="197.9" x2="218.17" y2="197.63"/><line class="cls-1" x1="218.06" y1="196.33" x2="218.06" y2="196.06"/><line class="cls-1" x1="217.9" y1="194.77" x2="217.79" y2="194.55"/><line class="cls-1" x1="217.09" y1="193.47" x2="216.93" y2="193.26"/><line class="cls-1" x1="216.22" y1="192.18" x2="216.12" y2="191.96"/><line class="cls-1" x1="215.41" y1="190.88" x2="215.25" y2="190.66"/><line class="cls-1" x1="214.6" y1="189.58" x2="214.44" y2="189.37"/><line class="cls-1" x1="213.74" y1="188.29" x2="213.58" y2="188.07"/><line class="cls-1" x1="212.93" y1="186.99" x2="212.77" y2="186.78"/><line class="cls-1" x1="211.85" y1="185.86" x2="211.63" y2="185.7"/><line class="cls-1" x1="210.72" y1="184.78" x2="210.55" y2="184.62"/><line class="cls-1" x1="209.58" y1="183.7" x2="209.42" y2="183.54"/><line class="cls-1" x1="208.5" y1="182.62" x2="208.34" y2="182.46"/><line class="cls-1" x1="207.37" y1="181.54" x2="207.21" y2="181.38"/><line class="cls-1" x1="206.29" y1="180.46" x2="206.13" y2="180.3"/><line class="cls-1" x1="205.15" y1="179.38" x2="204.99" y2="179.22"/><line class="cls-1" x1="204.07" y1="178.3" x2="203.91" y2="178.14"/><line class="cls-1" x1="202.94" y1="177.22" x2="202.78" y2="177.06"/><line class="cls-1" x1="201.86" y1="176.14" x2="201.64" y2="175.98"/><line class="cls-1" x1="200.73" y1="175.06" x2="200.56" y2="174.9"/><line class="cls-1" x1="199.59" y1="173.98" x2="199.43" y2="173.82"/><line class="cls-1" x1="198.51" y1="172.9" x2="198.35" y2="172.74"/><line class="cls-1" x1="197.43" y1="171.76" x2="197.27" y2="171.55"/><line class="cls-1" x1="196.35" y1="170.63" x2="196.19" y2="170.41"/><line class="cls-1" x1="195.27" y1="169.44" x2="195.11" y2="169.28"/><line class="cls-1" x1="194.19" y1="168.31" x2="194.03" y2="168.15"/><line class="cls-1" x1="193.11" y1="167.17" x2="192.95" y2="167.01"/><line class="cls-1" x1="192.03" y1="166.04" x2="191.98" y2="165.99"/><line class="cls-1" x1="191.98" y1="165.99" x2="191.87" y2="165.88"/><line class="cls-1" x1="191.01" y1="164.85" x2="190.84" y2="164.69"/><line class="cls-1" x1="189.98" y1="163.66" x2="189.82" y2="163.45"/><line class="cls-1" x1="188.95" y1="162.48" x2="188.79" y2="162.26"/><line class="cls-1" x1="187.93" y1="161.29" x2="187.77" y2="161.07"/><line class="cls-1" x1="186.9" y1="160.1" x2="186.74" y2="159.94"/><line class="cls-1" x1="185.88" y1="158.97" x2="185.71" y2="158.75"/><line class="cls-1" x1="184.85" y1="157.78" x2="184.85" y2="157.78"/><line class="cls-1" x1="184.85" y1="157.78" x2="184.69" y2="157.56"/><line class="cls-1" x1="183.93" y1="156.54" x2="183.77" y2="156.37"/><line class="cls-1" x1="183.01" y1="155.35" x2="182.85" y2="155.13"/><line class="cls-1" x1="182.69" y1="153.84" x2="182.69" y2="153.57"/><line class="cls-1" x1="182.1" y1="152.43" x2="181.93" y2="152.22"/><line class="cls-1" x1="181.29" y1="151.08" x2="181.18" y2="150.87"/><line class="cls-1" x1="180.53" y1="149.79" x2="180.42" y2="149.57"/><line class="cls-1" x1="179.72" y1="148.49" x2="179.61" y2="148.27"/><line class="cls-1" x1="178.86" y1="147.25" x2="178.75" y2="147.03"/><line class="cls-1" x1="177.94" y1="146.01" x2="177.78" y2="145.84"/><line class="cls-1" x1="177.02" y1="144.82" x2="176.86" y2="144.6"/><line class="cls-1" x1="176.21" y1="143.52" x2="176.1" y2="143.31"/><line class="cls-1" x1="175.51" y1="142.17" x2="175.4" y2="141.96"/><line class="cls-1" x1="174.75" y1="140.88" x2="174.75" y2="140.88"/><line class="cls-1" x1="174.75" y1="140.88" x2="174.64" y2="140.66"/><line class="cls-1" x1="174.05" y1="139.53" x2="173.94" y2="139.31"/><line class="cls-1" x1="173.24" y1="138.23" x2="173.19" y2="138.12"/><line class="cls-1" x1="173.19" y1="138.12" x2="173.13" y2="138.01"/><line class="cls-1" x1="172.7" y1="136.88" x2="172.65" y2="136.66"/><line class="cls-1" x1="172.59" y1="135.37" x2="172.65" y2="135.15"/><line class="cls-1" x1="172.81" y1="133.86" x2="172.92" y2="133.64"/><line class="cls-1" x1="173.51" y1="132.51" x2="173.62" y2="132.29"/><line class="cls-1" x1="174.48" y1="131.32" x2="174.64" y2="131.1"/><line class="cls-1" x1="175.13" y1="129.97" x2="175.13" y2="129.97"/><line class="cls-1" x1="175.13" y1="129.97" x2="175.18" y2="129.7"/><line class="cls-1" x1="175.29" y1="128.4" x2="175.35" y2="128.19"/><line class="cls-1" x1="175.4" y1="126.89" x2="175.4" y2="126.84"/><line class="cls-1" x1="175.4" y1="126.84" x2="175.35" y2="126.67"/><line class="cls-1" x1="175.4" y1="125.38" x2="175.45" y2="125.16"/><line class="cls-1" x1="175.83" y1="123.97" x2="175.89" y2="123.76"/><line class="cls-1" x1="176.43" y1="122.57" x2="176.59" y2="122.35"/><line class="cls-1" x1="177.24" y1="121.27" x2="177.4" y2="121.06"/><line class="cls-1" x1="178.15" y1="119.98" x2="178.32" y2="119.76"/><line class="cls-1" x1="179.07" y1="118.74" x2="179.23" y2="118.52"/><line class="cls-1" x1="179.99" y1="117.49" x2="180.1" y2="117.28"/><line class="cls-1" x1="180.85" y1="116.25" x2="181.02" y2="116.04"/><line class="cls-1" x1="181.83" y1="115.01" x2="181.99" y2="114.79"/><line class="cls-1" x1="182.74" y1="113.77" x2="182.91" y2="113.61"/><line class="cls-1" x1="183.66" y1="112.58" x2="183.82" y2="112.36"/><line class="cls-1" x1="184.63" y1="111.34" x2="184.8" y2="111.12"/><line class="cls-1" x1="185.61" y1="110.1" x2="185.77" y2="109.88"/><line class="cls-1" x1="186.58" y1="108.85" x2="186.74" y2="108.64"/><line class="cls-1" x1="187.55" y1="107.61" x2="187.55" y2="107.61"/><line class="cls-1" x1="187.55" y1="107.61" x2="187.71" y2="107.4"/><line class="cls-1" x1="188.41" y1="106.32" x2="188.58" y2="106.15"/><line class="cls-1" x1="189.28" y1="105.07" x2="189.44" y2="104.86"/><line class="cls-1" x1="190.2" y1="103.78" x2="190.36" y2="103.56"/><line class="cls-1" x1="191.06" y1="102.48" x2="191.22" y2="102.27"/><line class="cls-1" x1="191.92" y1="101.19" x2="192.03" y2="100.97"/><line class="cls-1" x1="192.73" y1="99.89" x2="192.9" y2="99.67"/><line class="cls-1" x1="193.6" y1="98.59" x2="193.71" y2="98.38"/><line class="cls-1" x1="194.41" y1="97.3" x2="194.57" y2="97.08"/><line class="cls-1" x1="195.22" y1="96" x2="195.38" y2="95.79"/><line class="cls-1" x1="196.03" y1="94.71" x2="196.19" y2="94.49"/><line class="cls-1" x1="196.84" y1="93.41" x2="197" y2="93.19"/><line class="cls-1" x1="197.65" y1="92.11" x2="197.76" y2="91.9"/><line class="cls-1" x1="198.46" y1="90.82" x2="198.57" y2="90.6"/><line class="cls-1" x1="199.27" y1="89.52" x2="199.38" y2="89.31"/><line class="cls-1" x1="199.92" y1="88.17" x2="200.02" y2="87.96"/><line class="cls-1" x1="200.51" y1="86.77" x2="200.62" y2="86.55"/><line class="cls-1" x1="201.1" y1="85.36" x2="201.21" y2="85.15"/><line class="cls-1" x1="201.7" y1="83.96" x2="201.81" y2="83.74"/><line class="cls-1" x1="202.29" y1="82.56" x2="202.35" y2="82.34"/><line class="cls-1" x1="202.72" y1="81.15" x2="202.78" y2="80.94"/><line class="cls-1" x1="203.21" y1="79.75" x2="203.26" y2="79.53"/><line class="cls-1" x1="203.64" y1="78.34" x2="203.7" y2="78.13"/><line class="cls-1" x1="204.07" y1="76.94" x2="204.18" y2="76.72"/><line class="cls-1" x1="204.34" y1="75.43" x2="204.34" y2="75.16"/><line class="cls-1" x1="204.45" y1="73.86" x2="204.45" y2="73.59"/><line class="cls-1" x1="204.56" y1="72.3" x2="204.56" y2="72.03"/><line class="cls-1" x1="204.45" y1="70.78" x2="204.4" y2="70.57"/><line class="cls-1" x1="204.07" y1="69.33" x2="204.02" y2="69.11"/><line class="cls-1" x1="203.75" y1="67.87" x2="203.75" y2="67.81"/><line class="cls-1" x1="203.75" y1="67.81" x2="203.64" y2="67.65"/><line class="cls-1" x1="202.83" y1="66.63" x2="202.67" y2="66.41"/><line class="cls-1" x1="201.91" y1="65.38" x2="201.81" y2="65.22"/><line class="cls-1" x1="201.81" y1="65.22" x2="201.75" y2="65.22"/><line class="cls-1" x1="200.56" y1="64.79" x2="200.35" y2="64.68"/><line class="cls-1" x1="199.16" y1="64.25" x2="198.94" y2="64.2"/><line class="cls-1" x1="197.7" y1="64.36" x2="197.49" y2="64.41"/><line class="cls-1" x1="196.24" y1="64.63" x2="196.03" y2="64.68"/><line class="cls-1" x1="194.79" y1="64.9" x2="194.73" y2="64.9"/><line class="cls-1" x1="194.73" y1="64.9" x2="194.57" y2="64.95"/><line class="cls-1" x1="193.38" y1="65.38" x2="193.17" y2="65.49"/><line class="cls-1" x1="191.98" y1="65.92" x2="191.76" y2="65.98"/><line class="cls-1" x1="190.57" y1="66.41" x2="190.36" y2="66.52"/><line class="cls-1" x1="189.22" y1="67.17" x2="189.01" y2="67.27"/><line class="cls-1" x1="187.93" y1="67.98" x2="187.71" y2="68.08"/><line class="cls-1" x1="186.63" y1="68.73" x2="186.42" y2="68.84"/><line class="cls-1" x1="185.34" y1="69.6" x2="185.12" y2="69.76"/><line class="cls-1" x1="184.15" y1="70.62" x2="183.93" y2="70.78"/><line class="cls-1" x1="182.96" y1="71.65" x2="182.8" y2="71.81"/><line class="cls-1" x1="181.77" y1="72.67" x2="181.61" y2="72.84"/><line class="cls-1" x1="180.64" y1="73.7" x2="180.42" y2="73.86"/><line class="cls-1" x1="179.45" y1="74.78" x2="179.23" y2="74.94"/><line class="cls-1" x1="178.26" y1="75.86" x2="178.1" y2="76.02"/><line class="cls-1" x1="177.13" y1="76.89" x2="176.97" y2="77.05"/><line class="cls-1" x1="175.99" y1="77.91" x2="175.83" y2="78.07"/><line class="cls-1" x1="174.91" y1="79.05" x2="174.75" y2="79.21"/><line class="cls-1" x1="173.83" y1="80.18" x2="173.67" y2="80.34"/><line class="cls-1" x1="172.75" y1="81.31" x2="172.59" y2="81.48"/><line class="cls-1" x1="171.67" y1="82.45" x2="171.57" y2="82.56"/><line class="cls-1" x1="171.57" y1="82.56" x2="171.51" y2="82.61"/><line class="cls-1" x1="170.65" y1="83.64" x2="170.49" y2="83.85"/><line class="cls-1" x1="169.62" y1="84.82" x2="169.46" y2="85.04"/><line class="cls-1" x1="168.6" y1="86.07" x2="168.43" y2="86.23"/><line class="cls-1" x1="167.62" y1="87.25" x2="167.46" y2="87.42"/><line class="cls-1" x1="166.71" y1="88.44" x2="166.54" y2="88.66"/><line class="cls-1" x1="165.79" y1="89.68" x2="165.63" y2="89.9"/><line class="cls-1" x1="164.87" y1="90.98" x2="164.71" y2="91.2"/><line class="cls-1" x1="164.01" y1="92.22" x2="163.84" y2="92.44"/><line class="cls-1" x1="163.2" y1="93.52" x2="163.03" y2="93.73"/><line class="cls-1" x1="162.33" y1="94.81" x2="162.22" y2="95.03"/><line class="cls-1" x1="161.52" y1="96.11" x2="161.41" y2="96.33"/><line class="cls-1" x1="160.71" y1="97.41" x2="160.6" y2="97.62"/><line class="cls-1" x1="159.96" y1="98.7" x2="159.79" y2="98.92"/><line class="cls-1" x1="159.15" y1="100" x2="158.98" y2="100.21"/><line class="cls-1" x1="158.34" y1="101.29" x2="158.23" y2="101.51"/><line class="cls-1" x1="157.58" y1="102.64" x2="157.47" y2="102.86"/><line class="cls-1" x1="156.82" y1="103.94" x2="156.72" y2="104.16"/><line class="cls-1" x1="156.12" y1="105.24" x2="155.96" y2="105.45"/><line class="cls-1" x1="155.37" y1="106.59" x2="155.26" y2="106.8"/><line class="cls-1" x1="154.66" y1="107.94" x2="154.61" y2="107.99"/><line class="cls-1" x1="154.61" y1="107.99" x2="154.5" y2="108.15"/><line class="cls-1" x1="153.91" y1="109.29" x2="153.8" y2="109.5"/><line class="cls-1" x1="153.21" y1="110.64" x2="153.21" y2="110.64"/><line class="cls-1" x1="153.21" y1="110.64" x2="153.1" y2="110.85"/><line class="cls-1" x1="152.45" y1="111.93" x2="152.34" y2="112.15"/><line class="cls-1" x1="151.59" y1="113.23" x2="151.42" y2="113.39"/><line class="cls-1" x1="150.45" y1="114.25" x2="150.24" y2="114.42"/><line class="cls-1" x1="149.26" y1="166.09" x2="149.16" y2="166.31"/><line class="cls-1" x1="148.45" y1="167.39" x2="148.45" y2="167.39"/><line class="cls-1" x1="148.45" y1="167.39" x2="148.29" y2="167.61"/><line class="cls-1" x1="147.54" y1="168.69" x2="147.43" y2="168.9"/><line class="cls-1" x1="146.4" y1="169.71" x2="146.19" y2="169.87"/><line class="cls-1" x1="144.94" y1="169.93" x2="144.89" y2="169.93"/><line class="cls-1" x1="144.89" y1="169.93" x2="144.67" y2="169.98"/><line class="cls-1" x1="143.38" y1="170.14" x2="143.11" y2="170.14"/><line class="cls-1" x1="141.87" y1="170.36" x2="141.65" y2="170.41"/><line class="cls-1" x1="140.46" y1="170.14" x2="140.25" y2="170.04"/><line class="cls-1" x1="139.76" y1="168.9" x2="139.71" y2="168.69"/><line class="cls-1" x1="138.95" y1="167.71" x2="138.73" y2="167.61"/><line class="cls-1" x1="137.49" y1="167.71" x2="137.28" y2="167.77"/><line class="cls-1" x1="136.2" y1="168.47" x2="136.03" y2="168.63"/><line class="cls-1" x1="134.95" y1="169.33" x2="134.74" y2="169.44"/><line class="cls-1" x1="133.6" y1="169.98" x2="133.55" y2="169.98"/><line class="cls-1" x1="133.55" y1="169.98" x2="133.33" y2="169.93"/><line class="cls-1" x1="132.04" y1="169.87" x2="131.82" y2="170.04"/><line class="cls-1" x1="130.74" y1="170.74" x2="130.53" y2="170.9"/><line class="cls-1" x1="129.5" y1="171.66" x2="129.28" y2="171.82"/><line class="cls-1" x1="128.26" y1="172.63" x2="128.1" y2="172.79"/><line class="cls-1" x1="127.07" y1="173.6" x2="126.85" y2="173.76"/><line class="cls-1" x1="125.83" y1="174.63" x2="125.67" y2="174.79"/><line class="cls-1" x1="124.64" y1="175.65" x2="124.48" y2="175.81"/><line class="cls-1" x1="123.45" y1="176.68" x2="123.29" y2="176.84"/><line class="cls-1" x1="122.26" y1="177.7" x2="122.21" y2="177.76"/><line class="cls-1" x1="122.21" y1="177.76" x2="122.1" y2="177.87"/><line class="cls-1" x1="121.08" y1="178.68" x2="120.91" y2="178.84"/><line class="cls-1" x1="119.89" y1="179.65" x2="119.67" y2="179.81"/><line class="cls-1" x1="118.65" y1="180.67" x2="118.43" y2="180.84"/><line class="cls-1" x1="117.4" y1="181.65" x2="117.24" y2="181.81"/><line class="cls-1" x1="116.22" y1="182.62" x2="116.05" y2="182.78"/><line class="cls-1" x1="115.03" y1="183.64" x2="114.81" y2="183.81"/><line class="cls-1" x1="113.79" y1="184.67" x2="113.57" y2="184.83"/><line class="cls-1" x1="112.54" y1="185.7" x2="112.33" y2="185.86"/><line class="cls-1" x1="111.3" y1="186.72" x2="111.14" y2="186.88"/><line class="cls-1" x1="110.11" y1="187.69" x2="110.01" y2="187.8"/><line class="cls-1" x1="110.01" y1="187.8" x2="109.95" y2="187.86"/><line class="cls-1" x1="108.87" y1="188.56" x2="108.66" y2="188.67"/><line class="cls-1" x1="107.58" y1="189.37" x2="107.36" y2="189.53"/><line class="cls-1" x1="106.28" y1="190.23" x2="106.06" y2="190.39"/><line class="cls-1" x1="104.98" y1="191.1" x2="104.77" y2="191.26"/><line class="cls-1" x1="103.69" y1="191.96" x2="103.58" y2="192.01"/><line class="cls-1" x1="103.58" y1="192.01" x2="103.47" y2="192.07"/><line class="cls-1" x1="102.34" y1="192.66" x2="102.12" y2="192.77"/><line class="cls-1" x1="100.99" y1="193.36" x2="100.77" y2="193.47"/><line class="cls-1" x1="99.64" y1="194.07" x2="99.42" y2="194.17"/><line class="cls-1" x1="98.29" y1="194.77" x2="98.07" y2="194.88"/><line class="cls-1" x1="96.94" y1="195.47" x2="96.72" y2="195.58"/><line class="cls-1" x1="95.59" y1="196.17" x2="95.37" y2="196.28"/><line class="cls-1" x1="94.24" y1="196.87" x2="94.02" y2="196.98"/><line class="cls-1" x1="92.89" y1="197.52" x2="92.67" y2="197.68"/><line class="cls-1" x1="91.54" y1="198.22" x2="91.32" y2="198.33"/><line class="cls-1" x1="90.19" y1="198.93" x2="89.97" y2="199.03"/><line class="cls-1" x1="89" y1="198.44" x2="88.84" y2="198.22"/><line class="cls-1" x1="87.97" y1="197.25" x2="87.81" y2="197.09"/><line class="cls-1" x1="88.19" y1="195.96" x2="88.3" y2="195.74"/><line class="cls-1" x1="88.84" y1="194.61" x2="88.95" y2="194.39"/><line class="cls-1" x1="89.49" y1="193.26" x2="89.59" y2="193.04"/><line class="cls-1" x1="90.13" y1="191.85" x2="90.24" y2="191.64"/><line class="cls-1" x1="90.78" y1="190.5" x2="90.89" y2="190.29"/><line class="cls-1" x1="91.48" y1="189.15" x2="91.65" y2="188.94"/><line class="cls-1" x1="92.29" y1="187.86" x2="92.4" y2="187.64"/><line class="cls-1" x1="93.05" y1="186.56" x2="93.21" y2="186.34"/><line class="cls-1" x1="93.86" y1="185.21" x2="93.97" y2="184.99"/><line class="cls-1" x1="94.62" y1="183.91" x2="94.78" y2="183.7"/><line class="cls-1" x1="95.43" y1="182.62" x2="95.59" y2="182.46"/><line class="cls-1" x1="96.34" y1="181.43" x2="96.51" y2="181.27"/><line class="cls-1" x1="97.32" y1="180.24" x2="97.48" y2="180.03"/><line class="cls-1" x1="98.23" y1="179" x2="98.4" y2="178.84"/><line class="cls-1" x1="99.21" y1="177.81" x2="99.37" y2="177.6"/><line class="cls-1" x1="100.18" y1="176.57" x2="100.34" y2="176.35"/><line class="cls-1" x1="101.1" y1="175.33" x2="101.26" y2="175.17"/><line class="cls-1" x1="102.12" y1="174.19" x2="102.28" y2="174.03"/><line class="cls-1" x1="103.26" y1="173.11" x2="103.42" y2="172.95"/><line class="cls-1" x1="104.39" y1="172.03" x2="104.55" y2="171.87"/><line class="cls-1" x1="105.47" y1="170.95" x2="105.63" y2="170.79"/><line class="cls-1" x1="106.6" y1="169.87" x2="106.77" y2="169.71"/><line class="cls-1" x1="107.68" y1="168.79" x2="107.85" y2="168.63"/><line class="cls-1" x1="108.82" y1="167.71" x2="108.98" y2="167.55"/><line class="cls-1" x1="109.95" y1="166.63" x2="110.11" y2="166.47"/><line class="cls-1" x1="111.03" y1="165.55" x2="111.19" y2="165.39"/><line class="cls-1" x1="112.17" y1="164.47" x2="112.33" y2="164.31"/><line class="cls-1" x1="113.25" y1="163.34" x2="113.41" y2="163.12"/><line class="cls-1" x1="114.33" y1="162.15" x2="114.49" y2="161.99"/><line class="cls-1" x1="115.41" y1="161.02" x2="115.57" y2="160.8"/><line class="cls-1" x1="116.49" y1="159.83" x2="116.65" y2="159.67"/><line class="cls-1" x1="117.13" y1="158.53" x2="117.19" y2="158.32"/><line class="cls-1" x1="117.46" y1="157.02" x2="117.57" y2="156.81"/><line class="cls-1" x1="118.16" y1="155.67" x2="118.27" y2="155.46"/><line class="cls-1" x1="118.86" y1="154.32" x2="118.97" y2="154.11"/><line class="cls-1" x1="119.51" y1="152.97" x2="119.62" y2="152.76"/><line class="cls-1" x1="120.1" y1="151.57" x2="120.21" y2="151.35"/><line class="cls-1" x1="120.81" y1="150.22" x2="120.91" y2="150"/><line class="cls-1" x1="121.62" y1="148.92" x2="121.72" y2="148.71"/><line class="cls-1" x1="122.37" y1="147.63" x2="122.48" y2="147.41"/><line class="cls-1" x1="123.13" y1="146.33" x2="123.24" y2="146.11"/><line class="cls-1" x1="123.88" y1="145.03" x2="124.05" y2="144.82"/><line class="cls-1" x1="124.64" y1="143.68" x2="124.75" y2="143.47"/><line class="cls-1" x1="125.23" y1="142.28" x2="125.34" y2="142.06"/><line class="cls-1" x1="125.94" y1="140.93" x2="126.1" y2="140.71"/><line class="cls-1" x1="126.85" y1="139.69" x2="126.85" y2="139.69"/><line class="cls-1" x1="126.85" y1="139.69" x2="126.96" y2="139.47"/><line class="cls-1" x1="127.45" y1="138.28" x2="127.5" y2="138.07"/><line class="cls-1" x1="127.72" y1="136.83" x2="127.72" y2="136.61"/><line class="cls-1" x1="127.72" y1="136.61" x2="127.72" y2="136.56"/><line class="cls-1" x1="127.5" y1="135.26" x2="127.45" y2="135.04"/><line class="cls-1" x1="126.8" y1="133.96" x2="126.69" y2="133.75"/><line class="cls-1" x1="126.26" y1="132.56" x2="126.21" y2="132.4"/><line class="cls-1" x1="126.21" y1="132.4" x2="126.21" y2="132.34"/><line class="cls-1" x1="125.88" y1="131.1" x2="125.83" y2="130.89"/><line class="cls-1" x1="125.5" y1="129.64" x2="125.5" y2="129.59"/><line class="cls-1" x1="125.5" y1="129.59" x2="125.45" y2="129.43"/><line class="cls-1" x1="125.23" y1="128.19" x2="125.23" y2="127.92"/><line class="cls-1" x1="125.4" y1="126.67" x2="125.4" y2="126.62"/><line class="cls-1" x1="125.4" y1="126.62" x2="125.29" y2="126.46"/><line class="cls-1" x1="124.75" y1="125.32" x2="124.75" y2="125.32"/><line class="cls-1" x1="124.75" y1="125.32" x2="124.59" y2="125.11"/><line class="cls-1" x1="123.83" y1="124.08" x2="123.67" y2="123.87"/><line class="cls-1" x1="122.97" y1="122.79" x2="122.8" y2="122.57"/><line class="cls-1" x1="122.1" y1="121.49" x2="121.94" y2="121.27"/><line class="cls-1" x1="121.24" y1="120.19" x2="121.08" y2="119.98"/><line class="cls-1" x1="120.43" y1="118.9" x2="120.27" y2="118.68"/><line class="cls-1" x1="119.62" y1="117.6" x2="119.51" y2="117.39"/><line class="cls-1" x1="118.81" y1="116.31" x2="118.7" y2="116.09"/><line class="cls-1" x1="117.94" y1="115.01" x2="117.84" y2="114.79"/><line class="cls-1" x1="117.13" y1="113.71" x2="117.03" y2="113.5"/><line class="cls-1" x1="116.43" y1="112.36" x2="116.32" y2="112.15"/><line class="cls-1" x1="115.73" y1="111.07" x2="115.62" y2="110.91"/><line class="cls-1" x1="115.62" y1="110.91" x2="115.57" y2="110.85"/><line class="cls-1" x1="114.87" y1="109.77" x2="114.7" y2="109.56"/><line class="cls-1" x1="114" y1="108.48" x2="113.84" y2="108.26"/><line class="cls-1" x1="113.14" y1="107.18" x2="112.98" y2="106.96"/><line class="cls-1" x1="112.27" y1="105.88" x2="112.11" y2="105.67"/><line class="cls-1" x1="111.41" y1="104.59" x2="111.25" y2="104.37"/><line class="cls-1" x1="110.55" y1="103.29" x2="110.38" y2="103.08"/><line class="cls-1" x1="109.68" y1="102" x2="109.52" y2="101.78"/><line class="cls-1" x1="108.82" y1="100.7" x2="108.66" y2="100.48"/><line class="cls-1" x1="107.95" y1="99.4" x2="107.79" y2="99.19"/><line class="cls-1" x1="107.04" y1="98.11" x2="106.87" y2="97.89"/><line class="cls-1" x1="106.17" y1="96.81" x2="106.01" y2="96.6"/><line class="cls-1" x1="105.25" y1="95.52" x2="105.15" y2="95.3"/><line class="cls-1" x1="104.39" y1="94.22" x2="104.23" y2="94"/><line class="cls-1" x1="103.53" y1="92.92" x2="103.42" y2="92.71"/><line class="cls-1" x1="102.93" y1="91.52" x2="102.82" y2="91.3"/><line class="cls-1" x1="102.28" y1="90.17" x2="102.23" y2="89.95"/><line class="cls-1" x1="101.69" y1="88.82" x2="101.58" y2="88.6"/><line class="cls-1" x1="101.1" y1="87.42" x2="100.99" y2="87.2"/><line class="cls-1" x1="100.61" y1="86.01" x2="100.56" y2="85.8"/><line class="cls-1" x1="100.18" y1="84.61" x2="100.07" y2="84.39"/><line class="cls-1" x1="99.69" y1="83.15" x2="99.64" y2="82.93"/><line class="cls-1" x1="99.26" y1="81.75" x2="99.21" y2="81.53"/><line class="cls-1" x1="99.15" y1="80.23" x2="99.15" y2="79.96"/><line class="cls-1" x1="99.1" y1="78.67" x2="99.1" y2="78.4"/><line class="cls-1" x1="99.1" y1="77.1" x2="99.15" y2="76.89"/><line class="cls-1" x1="99.58" y1="75.7" x2="99.64" y2="75.48"/><line class="cls-1" x1="100.02" y1="74.29" x2="100.07" y2="74.13"/><line class="cls-1" x1="100.07" y1="74.13" x2="100.12" y2="74.08"/><line class="cls-1" x1="101.04" y1="73.16" x2="101.26" y2="73"/><line class="cls-1" x1="102.23" y1="72.13" x2="102.5" y2="72.13"/><line class="cls-1" x1="103.85" y1="72.19" x2="104.12" y2="72.19"/><line class="cls-1" x1="105.47" y1="72.19" x2="105.52" y2="72.19"/><line class="cls-1" x1="105.52" y1="72.19" x2="105.69" y2="72.3"/><line class="cls-1" x1="106.82" y1="72.89" x2="107.04" y2="73"/><line class="cls-1" x1="108.17" y1="73.59" x2="108.39" y2="73.7"/><line class="cls-1" x1="109.52" y1="74.29" x2="109.74" y2="74.46"/><line class="cls-1" x1="110.87" y1="75.1" x2="111.09" y2="75.27"/><line class="cls-1" x1="112.17" y1="75.97" x2="112.38" y2="76.13"/><line class="cls-1" x1="113.46" y1="76.83" x2="113.68" y2="76.99"/><line class="cls-1" x1="114.76" y1="77.7" x2="114.97" y2="77.86"/><line class="cls-1" x1="116" y1="78.67" x2="116.16" y2="78.83"/><line class="cls-1" x1="117.19" y1="79.69" x2="117.35" y2="79.86"/><line class="cls-1" x1="118.32" y1="80.72" x2="118.54" y2="80.88"/><line class="cls-1" x1="119.51" y1="81.75" x2="119.73" y2="81.91"/><line class="cls-1" x1="120.64" y1="82.83" x2="120.81" y2="82.99"/><line class="cls-1" x1="121.67" y1="83.96" x2="121.83" y2="84.18"/><line class="cls-1" x1="122.7" y1="85.15" x2="122.86" y2="85.31"/><line class="cls-1" x1="123.72" y1="86.28" x2="123.88" y2="86.44"/><line class="cls-1" x1="124.75" y1="87.42" x2="124.91" y2="87.58"/><line class="cls-1" x1="125.77" y1="88.6" x2="125.94" y2="88.77"/><line class="cls-1" x1="126.8" y1="89.79" x2="126.96" y2="90.01"/><line class="cls-1" x1="127.83" y1="91.03" x2="127.99" y2="91.25"/><line class="cls-1" x1="128.85" y1="92.28" x2="129.01" y2="92.44"/><line class="cls-1" x1="129.82" y1="93.46" x2="129.99" y2="93.63"/><line class="cls-1" x1="130.74" y1="94.71" x2="130.9" y2="94.92"/><line class="cls-1" x1="131.66" y1="96" x2="131.82" y2="96.22"/><line class="cls-1" x1="132.58" y1="97.3" x2="132.74" y2="97.51"/><line class="cls-1" x1="133.5" y1="98.59" x2="133.6" y2="98.81"/><line class="cls-1" x1="134.36" y1="99.84" x2="134.52" y2="100.05"/><line class="cls-1" x1="135.28" y1="101.13" x2="135.39" y2="101.35"/><line class="cls-1" x1="136.14" y1="102.37" x2="136.25" y2="102.59"/><line class="cls-1" x1="137.01" y1="103.62" x2="137.11" y2="103.83"/><line class="cls-1" x1="137.82" y1="104.86" x2="137.98" y2="105.07"/><line class="cls-1" x1="138.73" y1="106.15" x2="138.84" y2="106.37"/><line class="cls-1" x1="139.6" y1="107.45" x2="139.76" y2="107.67"/><line class="cls-1" x1="140.52" y1="108.75" x2="140.68" y2="108.96"/><line class="cls-1" x1="141.43" y1="109.99" x2="141.6" y2="110.2"/><line class="cls-1" x1="142.35" y1="111.23" x2="142.51" y2="111.45"/><line class="cls-1" x1="143.27" y1="112.53" x2="143.27" y2="112.53"/><line class="cls-1" x1="143.27" y1="112.53" x2="143.43" y2="112.69"/><line class="cls-1" x1="144.4" y1="113.61" x2="144.4" y2="113.61"/><line class="cls-1" x1="144.4" y1="113.61" x2="144.57" y2="113.77"/><line class="cls-1" x1="145.48" y1="114.69" x2="145.48" y2="114.69"/><line class="cls-1" x1="145.48" y1="114.69" x2="145.65" y2="114.85"/><line class="cls-1" x1="146.62" y1="115.71" x2="146.78" y2="115.87"/><line class="cls-1" x1="147.91" y1="116.09" x2="147.97" y2="116.09"/><line class="cls-1" x1="147.97" y1="116.09" x2="148.13" y2="115.98"/><line class="cls-1" x1="149.16" y1="115.23" x2="149.37" y2="115.12"/></g></svg>