<svg id="Romeo_Soft_F" data-name="Romeo Soft F" xmlns="http://www.w3.org/2000/svg" viewBox="0 0 300 263"><defs><style>.cls-1{isolation:isolate;}.cls-2,.cls-3,.cls-4,.cls-5,.cls-6{fill:none;}.cls-2{stroke:#000;stroke-width:0.5px;}.cls-3,.cls-4,.cls-5,.cls-6{stroke:#1d1d1b;}.cls-3{stroke-linecap:round;}.cls-3,.cls-6{stroke-linejoin:round;}.cls-3,.cls-4,.cls-6{stroke-width:0.33px;}.cls-4,.cls-5{stroke-miterlimit:3.86;}.cls-5{stroke-width:0.2px;}</style></defs><title>romeo-soft-floor-starck-flos-F6109007-spech-tech-02-300x263</title><g class="cls-1"><path d="M102.4,164.84V166H92.52l1.79,2-.87.72-2.36-2.88v-1Z"/><path d="M95.94,158.44l0,0a2.14,2.14,0,0,1-.29-.73,4.46,4.46,0,0,1-.09-.84,3.63,3.63,0,0,1,.26-1.37,3.47,3.47,0,0,1,.73-1.1,3.28,3.28,0,0,1,1.1-.72,3.62,3.62,0,0,1,1.41-.27,3.68,3.68,0,0,1,1.43.27,3.27,3.27,0,0,1,1.1.77,3.49,3.49,0,0,1,.72,1.17,4.29,4.29,0,0,1,0,2.94,3.49,3.49,0,0,1-.72,1.17,3.27,3.27,0,0,1-1.1.77,3.68,3.68,0,0,1-1.43.27,4.39,4.39,0,0,1-1.65-.28,9.45,9.45,0,0,1-1.39-.69l-5-3.06v-1.36Zm3.15,1.15a2.61,2.61,0,0,0,1-.18,2.35,2.35,0,0,0,.78-.53,2.17,2.17,0,0,0,.5-.79,2.86,2.86,0,0,0,.18-1,2.8,2.8,0,0,0-.18-1,2.13,2.13,0,0,0-.5-.8,2.18,2.18,0,0,0-.78-.52,2.43,2.43,0,0,0-1-.19,2.46,2.46,0,0,0-1,.19,2.14,2.14,0,0,0-.77.52,2.41,2.41,0,0,0-.5.8,2.8,2.8,0,0,0-.19,1,2.86,2.86,0,0,0,.19,1,2.47,2.47,0,0,0,.5.79,2.3,2.3,0,0,0,.77.53A2.64,2.64,0,0,0,99.09,159.59Z"/><path d="M90.88,148.17a3.24,3.24,0,0,1,.56-2A3.89,3.89,0,0,1,92.87,145a6.39,6.39,0,0,1,1.89-.56,14.07,14.07,0,0,1,4,0,6.39,6.39,0,0,1,1.89.56A3.89,3.89,0,0,1,102,146.2a3.73,3.73,0,0,1,0,3.93,3.89,3.89,0,0,1-1.43,1.17,6.11,6.11,0,0,1-1.89.56,13.14,13.14,0,0,1-4,0,6.11,6.11,0,0,1-1.89-.56,3.89,3.89,0,0,1-1.43-1.17A3.21,3.21,0,0,1,90.88,148.17Zm1.06,0a2,2,0,0,0,.5,1.46,3.08,3.08,0,0,0,1.23.81,6.09,6.09,0,0,0,1.57.34c.55.05,1.05.07,1.5.07s1,0,1.5-.07a6.09,6.09,0,0,0,1.57-.34,3.08,3.08,0,0,0,1.23-.81,2.4,2.4,0,0,0,0-2.93,3.08,3.08,0,0,0-1.23-.81,6.09,6.09,0,0,0-1.57-.34c-.55-.05-1-.07-1.5-.07s-.95,0-1.5.07a6.09,6.09,0,0,0-1.57.34,3.08,3.08,0,0,0-1.23.81A2,2,0,0,0,91.94,148.17Z"/><path d="M90.88,139.27a3.24,3.24,0,0,1,.56-2,3.89,3.89,0,0,1,1.43-1.17,6.7,6.7,0,0,1,1.89-.56,14.07,14.07,0,0,1,4,0,6.7,6.7,0,0,1,1.89.56A3.89,3.89,0,0,1,102,137.3a3.75,3.75,0,0,1,0,3.94,3.89,3.89,0,0,1-1.43,1.17,6.38,6.38,0,0,1-1.89.55,13.14,13.14,0,0,1-4,0,6.38,6.38,0,0,1-1.89-.55,3.89,3.89,0,0,1-1.43-1.17A3.24,3.24,0,0,1,90.88,139.27Zm1.06,0a2,2,0,0,0,.5,1.46,3.08,3.08,0,0,0,1.23.81,5.7,5.7,0,0,0,1.57.34c.55.05,1.05.08,1.5.08s1,0,1.5-.08a5.7,5.7,0,0,0,1.57-.34,3.08,3.08,0,0,0,1.23-.81,2.05,2.05,0,0,0,.5-1.46,2.09,2.09,0,0,0-.5-1.47,3.17,3.17,0,0,0-1.23-.8,6.09,6.09,0,0,0-1.57-.35c-.55,0-1-.07-1.5-.07s-.95,0-1.5.07a6.09,6.09,0,0,0-1.57.35,3.17,3.17,0,0,0-1.23.8A2,2,0,0,0,91.94,139.27Z"/><path d="M96.58,129.22c-.28,0-.56,0-.83,0l-.83.05v-1.13h1.13v0a2.41,2.41,0,0,1-1-1.06,3.07,3.07,0,0,1-.34-1.35,3.79,3.79,0,0,1,.07-.65,2.25,2.25,0,0,1,.23-.66,2,2,0,0,1,.47-.6,2.52,2.52,0,0,1,.79-.48,2.48,2.48,0,0,1-1.14-1,3.07,3.07,0,0,1,.34-3.58,3.12,3.12,0,0,1,2.17-.69h4.75v1.06H98a3.17,3.17,0,0,0-1.75.4,1.67,1.67,0,0,0-.61,1.49,1.87,1.87,0,0,0,.85,1.64,3.07,3.07,0,0,0,.87.36,4.9,4.9,0,0,0,1,.11h4v1.06H98a3.27,3.27,0,0,0-1.75.39,1.68,1.68,0,0,0-.61,1.49,4.26,4.26,0,0,0,.07.44,1.71,1.71,0,0,0,.35.72,2.67,2.67,0,0,0,.86.66,3.53,3.53,0,0,0,1.6.3h3.84v1.05Z"/><path d="M96.58,115.59l-.83,0-.83.06v-1.14h1.13v0a2.41,2.41,0,0,1-1-1.06,3.13,3.13,0,0,1-.34-1.35,3.79,3.79,0,0,1,.07-.65,2.42,2.42,0,0,1,.23-.67,2.34,2.34,0,0,1,.47-.6,2.71,2.71,0,0,1,.79-.47,2.48,2.48,0,0,1-1.14-1,3.07,3.07,0,0,1,.34-3.58,3.12,3.12,0,0,1,2.17-.69h4.75v1.06H98a3.17,3.17,0,0,0-1.75.4,1.65,1.65,0,0,0-.61,1.49,1.91,1.91,0,0,0,.24,1,2,2,0,0,0,.61.65,3.07,3.07,0,0,0,.87.36,4.9,4.9,0,0,0,1,.11h4v1H98a3.26,3.26,0,0,0-1.75.4,1.68,1.68,0,0,0-.61,1.49,4.26,4.26,0,0,0,.07.44,1.62,1.62,0,0,0,.35.71,2.55,2.55,0,0,0,.86.67,3.69,3.69,0,0,0,1.6.29h3.84v1.06Z"/></g><line class="cls-2" x1="112.77" y1="46.68" x2="112.77" y2="217.26"/><line class="cls-2" x1="114.35" y1="46.68" x2="110.98" y2="46.68"/><line class="cls-2" x1="114.53" y1="217.26" x2="110.16" y2="217.26"/><g class="cls-1"><path d="M209.37,82.09v7.2H208l-4.59-4.51c-.17-.18-.35-.35-.54-.52a5.41,5.41,0,0,0-.61-.46,3.52,3.52,0,0,0-.67-.34,2.3,2.3,0,0,0-.74-.12,2,2,0,0,0-.83.16,1.82,1.82,0,0,0-.62.48,2.29,2.29,0,0,0-.4.7,2.65,2.65,0,0,0-.13.85,2.32,2.32,0,0,0,.48,1.47,2.11,2.11,0,0,0,1.29.78L200.56,89a3.18,3.18,0,0,1-2-1.16,3.51,3.51,0,0,1-.72-2.23A4.32,4.32,0,0,1,198,84.3a3.07,3.07,0,0,1,.55-1.08,2.63,2.63,0,0,1,.92-.76,2.92,2.92,0,0,1,1.29-.28,3.6,3.6,0,0,1,1.2.2,5.44,5.44,0,0,1,1,.52,7.1,7.1,0,0,1,.91.73c.29.27.57.55.85.84L208.32,88v-6Z"/><path d="M205.63,74.5V72.87h1.05V74.5h2.69v1.16h-2.69v4.89h-1.31L198,76V74.5Zm-6.43,1.16v0l6.43,3.9V75.66Z"/><path d="M197.85,67.82a3.24,3.24,0,0,1,.56-2,3.89,3.89,0,0,1,1.43-1.17,6.3,6.3,0,0,1,1.89-.56,13.76,13.76,0,0,1,2-.14,13.53,13.53,0,0,1,2,.14,6.45,6.45,0,0,1,1.9.56A3.78,3.78,0,0,1,209,65.85a3.67,3.67,0,0,1,0,3.93A3.69,3.69,0,0,1,207.58,71a6.17,6.17,0,0,1-1.9.56,13.58,13.58,0,0,1-2,.15,13.82,13.82,0,0,1-2-.15,6,6,0,0,1-1.89-.56,3.79,3.79,0,0,1-1.43-1.17A3.21,3.21,0,0,1,197.85,67.82Zm1.06,0a2,2,0,0,0,.5,1.46,3.08,3.08,0,0,0,1.23.81,6.09,6.09,0,0,0,1.57.34c.55,0,1,.07,1.5.07s.95,0,1.5-.07a6.09,6.09,0,0,0,1.57-.34,3.08,3.08,0,0,0,1.23-.81,2.4,2.4,0,0,0,0-2.93,3.19,3.19,0,0,0-1.23-.81,6.09,6.09,0,0,0-1.57-.34c-.55,0-1.05-.07-1.5-.07s-1,0-1.5.07a6.09,6.09,0,0,0-1.57.34,3.19,3.19,0,0,0-1.23.81A2,2,0,0,0,198.91,67.82Z"/><path d="M203.55,57.77l-.83,0-.84.06V56.71H203v0a2.47,2.47,0,0,1-1-1.06,2.91,2.91,0,0,1-.27-2A2.42,2.42,0,0,1,202,53a2.34,2.34,0,0,1,.47-.6,2.58,2.58,0,0,1,.79-.47,2.4,2.4,0,0,1-1.14-1,2.73,2.73,0,0,1-.42-1.44,2.76,2.76,0,0,1,.76-2.13,3.12,3.12,0,0,1,2.17-.69h4.75v1.06H205a3.16,3.16,0,0,0-1.74.4,1.65,1.65,0,0,0-.61,1.48,2,2,0,0,0,.23,1,2,2,0,0,0,.62.64,2.58,2.58,0,0,0,.87.36,4.31,4.31,0,0,0,1,.12h4v1.05H205a3.25,3.25,0,0,0-1.74.4,1.67,1.67,0,0,0-.61,1.49,2.67,2.67,0,0,0,.07.44,1.62,1.62,0,0,0,.35.71,2.55,2.55,0,0,0,.86.67,3.69,3.69,0,0,0,1.6.29h3.84v1.06Z"/><path d="M203.55,44.14c-.28,0-.56,0-.83,0l-.84.06V43.08H203v0A2.44,2.44,0,0,1,202,42a2.94,2.94,0,0,1-.34-1.35,3.07,3.07,0,0,1,.07-.65,2.25,2.25,0,0,1,.23-.66,2.34,2.34,0,0,1,.47-.6,2.4,2.4,0,0,1,.79-.47,2.45,2.45,0,0,1-1.14-1,3.06,3.06,0,0,1,.34-3.57,3.12,3.12,0,0,1,2.17-.69h4.75V34H205a3.25,3.25,0,0,0-1.74.4,1.68,1.68,0,0,0-.61,1.49,2,2,0,0,0,.23,1,1.93,1.93,0,0,0,.62.65,2.58,2.58,0,0,0,.87.36,4.31,4.31,0,0,0,1,.11h4v1.06H205a3.16,3.16,0,0,0-1.74.4,1.67,1.67,0,0,0-.61,1.49,2.67,2.67,0,0,0,.07.44,1.67,1.67,0,0,0,.35.71,2.42,2.42,0,0,0,.86.66,3.53,3.53,0,0,0,1.6.3h3.84v1.06Z"/></g><line class="cls-2" x1="188.19" y1="47.01" x2="188.19" y2="74.7"/><line class="cls-2" x1="189.76" y1="47.01" x2="186.39" y2="47.01"/><line class="cls-2" x1="189.94" y1="74.7" x2="185.57" y2="74.7"/><g class="cls-1"><path d="M121.39,21a4,4,0,0,1,.68,1.16,4.44,4.44,0,0,1,0,3,3.73,3.73,0,0,1-2.08,2.07,4.2,4.2,0,0,1-1.61.3,4.15,4.15,0,0,1-1.4-.23,3.72,3.72,0,0,1-1.11-.61l-1.07,1.09-.52-.5,1.06-1.08a3.67,3.67,0,0,1-.69-1.18,4.17,4.17,0,0,1-.24-1.43,4,4,0,0,1,.3-1.57,3.67,3.67,0,0,1,.82-1.25,3.76,3.76,0,0,1,1.26-.82,4.09,4.09,0,0,1,1.59-.3,4.18,4.18,0,0,1,1.39.22,3.65,3.65,0,0,1,1.15.62l1.06-1.09.51.49Zm-1.25.26a2.66,2.66,0,0,0-1.81-.63,3,3,0,0,0-1.18.23,2.7,2.7,0,0,0-.88.64,2.94,2.94,0,0,0-.56.94,3.42,3.42,0,0,0-.2,1.17,2.94,2.94,0,0,0,.55,1.82ZM116.54,26a2.72,2.72,0,0,0,.8.45,3.11,3.11,0,0,0,1,.16,2.8,2.8,0,0,0,1.18-.24,2.54,2.54,0,0,0,.88-.63,2.73,2.73,0,0,0,.57-.94,3.51,3.51,0,0,0,.2-1.17,3.18,3.18,0,0,0-.54-1.83Z"/><path d="M135,17.09h-4.63l-.08,3.41a3.44,3.44,0,0,1,.76-.21,4.87,4.87,0,0,1,.76-.06,3.8,3.8,0,0,1,1.46.27,3.26,3.26,0,0,1,1.13.76,3.42,3.42,0,0,1,.73,1.15,4,4,0,0,1,0,2.94,3.34,3.34,0,0,1-.8,1.17,3.51,3.51,0,0,1-1.21.76,4.14,4.14,0,0,1-1.51.28,3.78,3.78,0,0,1-1.94-.52,3.35,3.35,0,0,1-1.32-1.5l1.15-.5a2.61,2.61,0,0,0,.89,1.07,2.31,2.31,0,0,0,1.33.39,2.55,2.55,0,0,0,1-.2,2.5,2.5,0,0,0,.81-.54A2.68,2.68,0,0,0,134,25a2.54,2.54,0,0,0,.2-1,2.79,2.79,0,0,0-.21-1.09,2.52,2.52,0,0,0-.58-.85,2.35,2.35,0,0,0-.88-.55,3.1,3.1,0,0,0-1.12-.2,4.59,4.59,0,0,0-1.21.17,5.14,5.14,0,0,0-1.14.46l.11-5.88H135Z"/><path d="M140.87,15.84a3.24,3.24,0,0,1,2,.56A3.89,3.89,0,0,1,144,17.83a6.3,6.3,0,0,1,.56,1.89,13.76,13.76,0,0,1,.14,2,13.53,13.53,0,0,1-.14,2,6.45,6.45,0,0,1-.56,1.9A3.78,3.78,0,0,1,142.84,27a3.67,3.67,0,0,1-3.93,0,3.6,3.6,0,0,1-1.17-1.42,6.17,6.17,0,0,1-.56-1.9,13.58,13.58,0,0,1-.15-2,13.82,13.82,0,0,1,.15-2,6,6,0,0,1,.56-1.89,3.7,3.7,0,0,1,1.17-1.43A3.21,3.21,0,0,1,140.87,15.84Zm0,1.06a2,2,0,0,0-1.46.5,3.08,3.08,0,0,0-.81,1.23,6.1,6.1,0,0,0-.34,1.56c0,.56-.07,1.06-.07,1.51s0,.95.07,1.5a6.09,6.09,0,0,0,.34,1.57,3.08,3.08,0,0,0,.81,1.23,2.07,2.07,0,0,0,1.46.5,2.09,2.09,0,0,0,1.47-.5,3.3,3.3,0,0,0,.81-1.23,6.09,6.09,0,0,0,.34-1.57c0-.55.07-1.05.07-1.5s0-.95-.07-1.51a6.1,6.1,0,0,0-.34-1.56,3.3,3.3,0,0,0-.81-1.23A2,2,0,0,0,140.87,16.9Z"/><path d="M149.77,15.84a3.24,3.24,0,0,1,2,.56,3.77,3.77,0,0,1,1.16,1.43,6,6,0,0,1,.56,1.89,13.82,13.82,0,0,1,.15,2,13.58,13.58,0,0,1-.15,2,6.17,6.17,0,0,1-.56,1.9A3.66,3.66,0,0,1,151.74,27a3.69,3.69,0,0,1-3.94,0,3.78,3.78,0,0,1-1.17-1.42,6.77,6.77,0,0,1-.56-1.9,15.09,15.09,0,0,1-.14-2,15.36,15.36,0,0,1,.14-2,6.6,6.6,0,0,1,.56-1.89,3.89,3.89,0,0,1,1.17-1.43A3.24,3.24,0,0,1,149.77,15.84Zm0,1.06a2,2,0,0,0-1.47.5,3.17,3.17,0,0,0-.8,1.23,6.11,6.11,0,0,0-.35,1.56c-.05.56-.07,1.06-.07,1.51s0,.95.07,1.5a6.09,6.09,0,0,0,.35,1.57,3.17,3.17,0,0,0,.8,1.23,2.09,2.09,0,0,0,1.47.5,2.05,2.05,0,0,0,1.46-.5,3.08,3.08,0,0,0,.81-1.23,5.7,5.7,0,0,0,.34-1.57c.05-.55.08-1.05.08-1.5s0-.95-.08-1.51a5.71,5.71,0,0,0-.34-1.56,3.08,3.08,0,0,0-.81-1.23A2,2,0,0,0,149.77,16.9Z"/><path d="M159.82,21.54c0-.28,0-.56,0-.83s0-.56,0-.84h1.13V21h0A2.41,2.41,0,0,1,162,20a2.94,2.94,0,0,1,1.35-.34,3.07,3.07,0,0,1,.65.07,2.25,2.25,0,0,1,.66.23,2,2,0,0,1,.6.47,2.47,2.47,0,0,1,.48.78,2.45,2.45,0,0,1,1-1.13,3.07,3.07,0,0,1,3.58.34,3.17,3.17,0,0,1,.68,2.17v4.75h-1V23a3.25,3.25,0,0,0-.4-1.74,1.67,1.67,0,0,0-1.49-.61,2,2,0,0,0-1,.23,1.93,1.93,0,0,0-.65.62,3.07,3.07,0,0,0-.36.87,4.9,4.9,0,0,0-.11,1v4h-1.06V23a3.16,3.16,0,0,0-.4-1.74,1.65,1.65,0,0,0-1.49-.61,2.67,2.67,0,0,0-.44.07,1.73,1.73,0,0,0-.71.35,2.67,2.67,0,0,0-.66.86,3.53,3.53,0,0,0-.3,1.6v3.84h-1.05Z"/><path d="M173.45,21.54c0-.28,0-.56,0-.83s0-.56,0-.84h1.13V21h0a2.41,2.41,0,0,1,1.06-1,2.94,2.94,0,0,1,1.35-.34,3,3,0,0,1,.65.07,2.25,2.25,0,0,1,.66.23,2,2,0,0,1,.6.47,2.47,2.47,0,0,1,.48.78,2.45,2.45,0,0,1,1-1.13,3.07,3.07,0,0,1,3.58.34,3.12,3.12,0,0,1,.69,2.17v4.75h-1.06V23a3.16,3.16,0,0,0-.4-1.74,1.67,1.67,0,0,0-1.49-.61,2,2,0,0,0-1,.23,1.93,1.93,0,0,0-.65.62,3.07,3.07,0,0,0-.36.87,4.9,4.9,0,0,0-.11,1v4H178.5V23a3.16,3.16,0,0,0-.4-1.74,1.65,1.65,0,0,0-1.48-.61,2.52,2.52,0,0,0-.44.07,1.71,1.71,0,0,0-.72.35,2.67,2.67,0,0,0-.66.86,3.53,3.53,0,0,0-.3,1.6v3.84h-1.05Z"/></g><g class="cls-1"><path d="M121.39,241.44a3.9,3.9,0,0,1,.68,1.16,4.42,4.42,0,0,1,0,3,3.7,3.7,0,0,1-.83,1.25,3.85,3.85,0,0,1-1.25.83,4.39,4.39,0,0,1-1.61.29,4.15,4.15,0,0,1-1.4-.22,3.72,3.72,0,0,1-1.11-.61l-1.07,1.09-.52-.5,1.06-1.09a3.62,3.62,0,0,1-.69-1.17,4.23,4.23,0,0,1-.24-1.44,4,4,0,0,1,.3-1.56,3.67,3.67,0,0,1,.82-1.25,3.62,3.62,0,0,1,1.26-.82,4.09,4.09,0,0,1,1.59-.3,4.18,4.18,0,0,1,1.39.22,3.63,3.63,0,0,1,1.15.61l1.06-1.09.51.5Zm-1.25.25a2.7,2.7,0,0,0-1.81-.62,3,3,0,0,0-1.18.23,2.82,2.82,0,0,0-.88.63,3,3,0,0,0-.56.95,3.41,3.41,0,0,0-.2,1.16,3,3,0,0,0,.55,1.83Zm-3.6,4.72a2.51,2.51,0,0,0,.8.45,2.86,2.86,0,0,0,1,.16,3,3,0,0,0,1.18-.23,2.82,2.82,0,0,0,.88-.63,2.68,2.68,0,0,0,.57-.95,3.42,3.42,0,0,0,.2-1.17,3.13,3.13,0,0,0-.54-1.82Z"/><path d="M134.18,244h1.64v1.06h-1.64v2.69H133V245.1h-4.89v-1.31l4.57-7.33h1.47ZM133,237.61h0L129.1,244H133Z"/><path d="M143.87,237.52h-4.63l-.08,3.4a4.17,4.17,0,0,1,.75-.2,4.08,4.08,0,0,1,.77-.07,3.83,3.83,0,0,1,1.46.27,3.54,3.54,0,0,1,1.13.77,3.33,3.33,0,0,1,.73,1.15,4,4,0,0,1,0,2.94,3.53,3.53,0,0,1-.8,1.17,3.77,3.77,0,0,1-1.21.76,4.13,4.13,0,0,1-1.51.27,3.75,3.75,0,0,1-1.94-.51,3.34,3.34,0,0,1-1.33-1.51l1.16-.49a2.58,2.58,0,0,0,.89,1.06,2.28,2.28,0,0,0,1.32.39,2.43,2.43,0,0,0,1-.2,2.6,2.6,0,0,0,.8-.53,2.46,2.46,0,0,0,.54-.8,2.37,2.37,0,0,0,.2-1,2.94,2.94,0,0,0-.2-1.09,2.72,2.72,0,0,0-.58-.86,2.57,2.57,0,0,0-.88-.55,3.14,3.14,0,0,0-1.12-.19,4.16,4.16,0,0,0-1.21.17,5.64,5.64,0,0,0-1.14.45l.11-5.87h5.78Z"/><path d="M149.77,236.27a3.24,3.24,0,0,1,2,.56,3.74,3.74,0,0,1,1.16,1.42,6.17,6.17,0,0,1,.56,1.9,13.08,13.08,0,0,1,0,3.95,6.17,6.17,0,0,1-.56,1.9,3.74,3.74,0,0,1-1.16,1.42,3.75,3.75,0,0,1-3.94,0,3.86,3.86,0,0,1-1.17-1.42,6.77,6.77,0,0,1-.56-1.9,14,14,0,0,1,0-3.95,6.77,6.77,0,0,1,.56-1.9,3.86,3.86,0,0,1,1.17-1.42A3.24,3.24,0,0,1,149.77,236.27Zm0,1.06a2.09,2.09,0,0,0-1.47.49,3.17,3.17,0,0,0-.8,1.23,6.19,6.19,0,0,0-.35,1.57c-.05.56-.07,1.06-.07,1.5s0,.95.07,1.51a6.19,6.19,0,0,0,.35,1.57,3.17,3.17,0,0,0,.8,1.23,2.09,2.09,0,0,0,1.47.49,2,2,0,0,0,1.46-.49,3.08,3.08,0,0,0,.81-1.23,5.78,5.78,0,0,0,.34-1.57c.05-.56.08-1.06.08-1.51s0-.94-.08-1.5a5.78,5.78,0,0,0-.34-1.57,3.08,3.08,0,0,0-.81-1.23A2,2,0,0,0,149.77,237.33Z"/><path d="M159.82,242c0-.27,0-.55,0-.83s0-.55,0-.83h1.13v1.14h0a2.41,2.41,0,0,1,1.06-1,2.94,2.94,0,0,1,1.35-.34,3.83,3.83,0,0,1,.65.06,2.28,2.28,0,0,1,.66.24,1.89,1.89,0,0,1,.6.47,2.47,2.47,0,0,1,.48.78,2.41,2.41,0,0,1,1-1.13,2.76,2.76,0,0,1,1.45-.42,2.73,2.73,0,0,1,2.13.76A3.17,3.17,0,0,1,171,243v4.75h-1v-4.37a3.2,3.2,0,0,0-.4-1.74,1.64,1.64,0,0,0-1.49-.61,2,2,0,0,0-1,.23,1.93,1.93,0,0,0-.65.62,2.84,2.84,0,0,0-.36.87,4.74,4.74,0,0,0-.11,1v4h-1.06v-4.37a3.11,3.11,0,0,0-.4-1.74,1.63,1.63,0,0,0-1.49-.61l-.44.06a1.77,1.77,0,0,0-.71.36,2.56,2.56,0,0,0-.66.86,3.51,3.51,0,0,0-.3,1.6v3.84h-1.05Z"/><path d="M173.45,242c0-.27,0-.55,0-.83s0-.55,0-.83h1.13v1.14h0a2.41,2.41,0,0,1,1.06-1,2.94,2.94,0,0,1,1.35-.34,3.74,3.74,0,0,1,.65.06,2.28,2.28,0,0,1,.66.24,1.89,1.89,0,0,1,.6.47,2.47,2.47,0,0,1,.48.78,2.41,2.41,0,0,1,1-1.13,2.79,2.79,0,0,1,1.45-.42,2.73,2.73,0,0,1,2.13.76,3.12,3.12,0,0,1,.69,2.17v4.75h-1.06v-4.37a3.11,3.11,0,0,0-.4-1.74,1.64,1.64,0,0,0-1.49-.61,2,2,0,0,0-1,.23,1.93,1.93,0,0,0-.65.62,2.84,2.84,0,0,0-.36.87,4.74,4.74,0,0,0-.11,1v4H178.5v-4.37a3.11,3.11,0,0,0-.4-1.74,1.62,1.62,0,0,0-1.48-.61l-.44.06a1.74,1.74,0,0,0-.72.36,2.56,2.56,0,0,0-.66.86,3.51,3.51,0,0,0-.3,1.6v3.84h-1.05Z"/></g><line class="cls-2" x1="175.2" y1="37.73" x2="124.32" y2="37.73"/><line class="cls-2" x1="175.2" y1="39.31" x2="175.2" y2="35.93"/><line class="cls-2" x1="124.32" y1="39.49" x2="124.32" y2="35.11"/><line class="cls-2" x1="175.2" y1="227.05" x2="124.32" y2="227.05"/><line class="cls-2" x1="175.2" y1="228.63" x2="175.2" y2="225.25"/><line class="cls-2" x1="124.32" y1="228.81" x2="124.32" y2="224.43"/><polygon class="cls-3" points="166.9 46.85 179.25 73.8 120.66 73.8 133.01 46.85 166.9 46.85"/><path class="cls-4" d="M150.89,208.27l0-129.86s.53-4.72,1.87-4.63-7.4,0-5.75,0,1.87,4.63,1.87,4.63l-.08,129.86Z"/><path class="cls-5" d="M150,47.55V73m-2.13-25.49L146.37,73m-.67-25.5L142.79,73m.78-25.52L139.2,73m2.24-25.54L135.64,73m3.67-25.55L132.1,73m5.09-25.51L128.53,73m6.53-25.55L125,73m27.31-25.5L153.74,73m.65-25.5L157.3,73m-.78-25.5L160.91,73m-2.26-25.52L164.45,73m-3.67-25.55L168,73m-5.12-25.57L171.57,73M165,47.44,175.14,73"/><line class="cls-4" x1="148.84" y1="78.41" x2="150.85" y2="78.41"/><rect class="cls-6" x="124.37" y="216" width="50.83" height="1.07"/><path class="cls-6" d="M148.92,208.4s-.41,4.73-4.75,5.53L124.53,216m26.27-7.6s.41,4.73,4.75,5.53L175.19,216"/><line class="cls-3" x1="132.73" y1="47.9" x2="167.12" y2="47.9"/><line class="cls-3" x1="121.47" y1="72.69" x2="178.72" y2="72.69"/></svg>