<svg id="Romeo_Moon_F" data-name="Romeo Moon F" xmlns="http://www.w3.org/2000/svg" viewBox="0 0 300 263"><defs><style>.cls-1{isolation:isolate;}.cls-2,.cls-3,.cls-4,.cls-5,.cls-6{fill:none;}.cls-2{stroke:#000;}.cls-2,.cls-3,.cls-4,.cls-6{stroke-width:0.5px;}.cls-3,.cls-4,.cls-5,.cls-6{stroke:#1d1d1b;}.cls-3{stroke-linecap:round;}.cls-3,.cls-5,.cls-6{stroke-linejoin:round;}.cls-4{stroke-miterlimit:3.86;}.cls-5{stroke-width:0.24px;}</style></defs><title>romeo-moon-floor-starck-flos-F6109000-spech-tech-02-300x263</title><g class="cls-1"><path d="M100.22,164.84V166H90.33l1.79,2-.86.72-2.37-2.88v-1Z"/><path d="M93.75,158.44l0,0a2,2,0,0,1-.29-.73,3.82,3.82,0,0,1-.1-.84,3.45,3.45,0,0,1,.27-1.37,3.28,3.28,0,0,1,.72-1.1,3.23,3.23,0,0,1,1.11-.72,3.55,3.55,0,0,1,1.41-.27,3.63,3.63,0,0,1,1.42.27,3.17,3.17,0,0,1,1.1.77,3.49,3.49,0,0,1,.72,1.17,4.29,4.29,0,0,1,0,2.94,3.49,3.49,0,0,1-.72,1.17,3.17,3.17,0,0,1-1.1.77,3.63,3.63,0,0,1-1.42.27,4.39,4.39,0,0,1-1.65-.28,9,9,0,0,1-1.39-.69l-5-3.06v-1.36Zm3.16,1.15a2.64,2.64,0,0,0,1-.18,2.3,2.3,0,0,0,.77-.53,2.34,2.34,0,0,0,.51-.79,3.09,3.09,0,0,0,.17-1,3,3,0,0,0-.17-1,2.29,2.29,0,0,0-.51-.8,2.14,2.14,0,0,0-.77-.52,2.7,2.7,0,0,0-2,0,2,2,0,0,0-.76.52,2.29,2.29,0,0,0-.51.8,2.8,2.8,0,0,0-.18,1,2.86,2.86,0,0,0,.18,1,2.34,2.34,0,0,0,.51.79,2.17,2.17,0,0,0,.76.53A2.66,2.66,0,0,0,96.91,159.59Z"/><path d="M88.7,148.17a3.17,3.17,0,0,1,.56-2A3.78,3.78,0,0,1,90.68,145a6.45,6.45,0,0,1,1.9-.56,14,14,0,0,1,4,0,6.45,6.45,0,0,1,1.9.56,3.86,3.86,0,0,1,1.42,1.17,3.73,3.73,0,0,1,0,3.93,3.86,3.86,0,0,1-1.42,1.17,6.17,6.17,0,0,1-1.9.56,13.08,13.08,0,0,1-4,0,6.17,6.17,0,0,1-1.9-.56,3.78,3.78,0,0,1-1.42-1.17A3.14,3.14,0,0,1,88.7,148.17Zm1,0a2.09,2.09,0,0,0,.5,1.46,3.08,3.08,0,0,0,1.23.81,6.09,6.09,0,0,0,1.57.34c.55.05,1,.07,1.5.07s1,0,1.51-.07a6.18,6.18,0,0,0,1.57-.34,3.08,3.08,0,0,0,1.23-.81,2.44,2.44,0,0,0,0-2.93,3.08,3.08,0,0,0-1.23-.81,6.18,6.18,0,0,0-1.57-.34c-.56-.05-1.06-.07-1.51-.07s-1,0-1.5.07a6.09,6.09,0,0,0-1.57.34,3.08,3.08,0,0,0-1.23.81A2.09,2.09,0,0,0,89.75,148.17Z"/><path d="M88.7,139.27a3.17,3.17,0,0,1,.56-2,3.78,3.78,0,0,1,1.42-1.17,6.77,6.77,0,0,1,1.9-.56,14,14,0,0,1,4,0,6.77,6.77,0,0,1,1.9.56,3.86,3.86,0,0,1,1.42,1.17,3.75,3.75,0,0,1,0,3.94,3.86,3.86,0,0,1-1.42,1.17,6.44,6.44,0,0,1-1.9.55,13.08,13.08,0,0,1-4,0,6.44,6.44,0,0,1-1.9-.55,3.78,3.78,0,0,1-1.42-1.17A3.17,3.17,0,0,1,88.7,139.27Zm1,0a2.05,2.05,0,0,0,.5,1.46,3.08,3.08,0,0,0,1.23.81,5.7,5.7,0,0,0,1.57.34c.55.05,1,.08,1.5.08s1,0,1.51-.08a5.78,5.78,0,0,0,1.57-.34,3.08,3.08,0,0,0,1.23-.81,2,2,0,0,0,.49-1.46,2.09,2.09,0,0,0-.49-1.47,3.17,3.17,0,0,0-1.23-.8,6.19,6.19,0,0,0-1.57-.35c-.56,0-1.06-.07-1.51-.07s-1,0-1.5.07a6.09,6.09,0,0,0-1.57.35,3.17,3.17,0,0,0-1.23.8A2.09,2.09,0,0,0,89.75,139.27Z"/><path d="M94.39,129.22l-.83,0-.83.05v-1.13h1.14v0a2.5,2.5,0,0,1-1-1.06,3.05,3.05,0,0,1-.33-1.35,3.74,3.74,0,0,1,.06-.65,2.25,2.25,0,0,1,.23-.66,1.93,1.93,0,0,1,.48-.6,2.47,2.47,0,0,1,.78-.48,2.48,2.48,0,0,1-1.14-1,2.87,2.87,0,0,1-.41-1.45,2.73,2.73,0,0,1,.76-2.13,3.11,3.11,0,0,1,2.17-.69h4.75v1.06H95.85a3.17,3.17,0,0,0-1.75.4,1.66,1.66,0,0,0-.6,1.49,1.91,1.91,0,0,0,.23,1,1.84,1.84,0,0,0,.62.65,2.84,2.84,0,0,0,.87.36,4.74,4.74,0,0,0,1,.11h4v1.06H95.85a3.27,3.27,0,0,0-1.75.39,1.67,1.67,0,0,0-.6,1.49,3.37,3.37,0,0,0,.06.44,1.71,1.71,0,0,0,.35.72,2.61,2.61,0,0,0,.87.66,3.48,3.48,0,0,0,1.6.3h3.84v1.05Z"/><path d="M94.39,115.59l-.83,0-.83.06v-1.14h1.14v0a2.5,2.5,0,0,1-1-1.06,3.12,3.12,0,0,1-.33-1.35,3.74,3.74,0,0,1,.06-.65,2.42,2.42,0,0,1,.23-.67,2.19,2.19,0,0,1,.48-.6,2.65,2.65,0,0,1,.78-.47,2.48,2.48,0,0,1-1.14-1,2.87,2.87,0,0,1-.41-1.45,2.73,2.73,0,0,1,.76-2.13,3.11,3.11,0,0,1,2.17-.69h4.75v1.06H95.85a3.17,3.17,0,0,0-1.75.4,1.65,1.65,0,0,0-.6,1.49,1.82,1.82,0,0,0,.85,1.64,2.84,2.84,0,0,0,.87.36,4.74,4.74,0,0,0,1,.11h4v1H95.85a3.26,3.26,0,0,0-1.75.4,1.67,1.67,0,0,0-.6,1.49,3.37,3.37,0,0,0,.06.44,1.62,1.62,0,0,0,.35.71,2.5,2.5,0,0,0,.87.67,3.63,3.63,0,0,0,1.6.29h3.84v1.06Z"/></g><line class="cls-2" x1="110.59" y1="46.68" x2="110.59" y2="217.26"/><line class="cls-2" x1="112.16" y1="46.68" x2="108.79" y2="46.68"/><line class="cls-2" x1="112.34" y1="217.26" x2="107.97" y2="217.26"/><g class="cls-1"><path d="M209.8,82.09v7.2h-1.32l-4.6-4.51c-.17-.18-.35-.35-.54-.52a4.64,4.64,0,0,0-.61-.46,3.52,3.52,0,0,0-.67-.34,2.25,2.25,0,0,0-.74-.12,2,2,0,0,0-.83.16,1.82,1.82,0,0,0-.62.48,2.08,2.08,0,0,0-.39.7,2.41,2.41,0,0,0-.14.85,2.32,2.32,0,0,0,.48,1.47,2.11,2.11,0,0,0,1.3.78L201,89a3.21,3.21,0,0,1-2-1.16,3.51,3.51,0,0,1-.72-2.23,4.32,4.32,0,0,1,.19-1.31,3.07,3.07,0,0,1,.55-1.08,2.72,2.72,0,0,1,.92-.76,2.92,2.92,0,0,1,1.29-.28,3.51,3.51,0,0,1,1.2.2,5.44,5.44,0,0,1,1,.52,7.1,7.1,0,0,1,.91.73c.29.27.57.55.85.84L208.75,88v-6Z"/><path d="M203.34,77.9v-.6a4.26,4.26,0,0,0-.11-1,2.39,2.39,0,0,0-.36-.79,1.92,1.92,0,0,0-.65-.54,2.19,2.19,0,0,0-1-.2,1.83,1.83,0,0,0-1.42.56,2.21,2.21,0,0,0-.5,1.54,2.46,2.46,0,0,0,.32,1.26,2.37,2.37,0,0,0,.93.9l-.51,1a3.44,3.44,0,0,1-1.36-1.31,3.7,3.7,0,0,1-.44-1.83,4,4,0,0,1,.2-1.26,2.9,2.9,0,0,1,.56-1,2.62,2.62,0,0,1,.93-.71,2.84,2.84,0,0,1,1.26-.27,2.58,2.58,0,0,1,.88.15,2.9,2.9,0,0,1,.75.42,3.08,3.08,0,0,1,1,1.35l0,0a2.72,2.72,0,0,1,.36-.88,2.8,2.8,0,0,1,.65-.68,2.72,2.72,0,0,1,.86-.45,3.39,3.39,0,0,1,2.4.13,3,3,0,0,1,1,.78,3.46,3.46,0,0,1,.63,1.15A4.55,4.55,0,0,1,210,77a4.25,4.25,0,0,1-.55,2.18,3.29,3.29,0,0,1-1.74,1.39l-.37-1.21a2.43,2.43,0,0,0,1.21-.86,2.79,2.79,0,0,0,.39-1.59,2.49,2.49,0,0,0-.16-.91,2.24,2.24,0,0,0-.46-.76,2.08,2.08,0,0,0-.71-.52,2.27,2.27,0,0,0-.91-.18,2.21,2.21,0,0,0-1.08.24,2,2,0,0,0-.71.64,2.72,2.72,0,0,0-.39.92,4.83,4.83,0,0,0-.12,1.08v.5Z"/><path d="M198.28,67.82a3.24,3.24,0,0,1,.56-2,3.89,3.89,0,0,1,1.43-1.17,6.39,6.39,0,0,1,1.89-.56,14.07,14.07,0,0,1,4,0,6.39,6.39,0,0,1,1.89.56,3.89,3.89,0,0,1,1.43,1.17,3.73,3.73,0,0,1,0,3.93A3.79,3.79,0,0,1,208,71a6.11,6.11,0,0,1-1.89.56,13.14,13.14,0,0,1-4,0,6.11,6.11,0,0,1-1.89-.56,3.79,3.79,0,0,1-1.43-1.17A3.21,3.21,0,0,1,198.28,67.82Zm1.06,0a2,2,0,0,0,.5,1.46,3.08,3.08,0,0,0,1.23.81,6.09,6.09,0,0,0,1.57.34c.55,0,1.05.07,1.5.07s1,0,1.5-.07a6.09,6.09,0,0,0,1.57-.34,3.08,3.08,0,0,0,1.23-.81,2.4,2.4,0,0,0,0-2.93,3.19,3.19,0,0,0-1.23-.81,6.09,6.09,0,0,0-1.57-.34c-.55,0-1-.07-1.5-.07s-.95,0-1.5.07a6.09,6.09,0,0,0-1.57.34,3.19,3.19,0,0,0-1.23.81A2,2,0,0,0,199.34,67.82Z"/><path d="M204,57.77l-.83,0-.83.06V56.71h1.13v0a2.47,2.47,0,0,1-1-1.06,3.14,3.14,0,0,1-.34-1.36,3.79,3.79,0,0,1,.07-.64,2.42,2.42,0,0,1,.23-.67,2.34,2.34,0,0,1,.47-.6,2.71,2.71,0,0,1,.79-.47,2.45,2.45,0,0,1-1.14-1,2.73,2.73,0,0,1-.42-1.44,2.76,2.76,0,0,1,.76-2.13,3.12,3.12,0,0,1,2.17-.69h4.75v1.06h-4.36a3.17,3.17,0,0,0-1.75.4,1.65,1.65,0,0,0-.61,1.48,1.92,1.92,0,0,0,.24,1,1.87,1.87,0,0,0,.61.64,2.58,2.58,0,0,0,.87.36,4.31,4.31,0,0,0,1,.12h4v1.05h-4.36a3.26,3.26,0,0,0-1.75.4,1.67,1.67,0,0,0-.61,1.49c0,.06,0,.21.07.44a1.62,1.62,0,0,0,.35.71,2.55,2.55,0,0,0,.86.67,3.69,3.69,0,0,0,1.6.29h3.84v1.06Z"/><path d="M204,44.14c-.28,0-.56,0-.83,0s-.56,0-.83.06V43.08h1.13v0a2.44,2.44,0,0,1-1-1.07,3.07,3.07,0,0,1-.34-1.35,3.9,3.9,0,0,1,.07-.65,2.25,2.25,0,0,1,.23-.66,2.34,2.34,0,0,1,.47-.6,2.51,2.51,0,0,1,.79-.47,2.5,2.5,0,0,1-1.14-1,3.06,3.06,0,0,1,.34-3.57,3.12,3.12,0,0,1,2.17-.69h4.75V34h-4.36a3.26,3.26,0,0,0-1.75.4,1.68,1.68,0,0,0-.61,1.49,1.86,1.86,0,0,0,.24,1,1.81,1.81,0,0,0,.61.65,2.58,2.58,0,0,0,.87.36,4.31,4.31,0,0,0,1,.11h4v1.06h-4.36a3.17,3.17,0,0,0-1.75.4,1.67,1.67,0,0,0-.61,1.49c0,.06,0,.21.07.44a1.67,1.67,0,0,0,.35.71,2.42,2.42,0,0,0,.86.66,3.53,3.53,0,0,0,1.6.3h3.84v1.06Z"/></g><line class="cls-2" x1="188.62" y1="47.01" x2="188.62" y2="74.7"/><line class="cls-2" x1="190.19" y1="47.01" x2="186.82" y2="47.01"/><line class="cls-2" x1="190.37" y1="74.7" x2="186" y2="74.7"/><g class="cls-1"><path d="M121.39,21a4,4,0,0,1,.68,1.16,4.44,4.44,0,0,1,0,3,3.73,3.73,0,0,1-2.08,2.07,4.2,4.2,0,0,1-1.61.3,4.15,4.15,0,0,1-1.4-.23,3.72,3.72,0,0,1-1.11-.61l-1.07,1.09-.52-.5,1.06-1.08a3.67,3.67,0,0,1-.69-1.18,4.17,4.17,0,0,1-.24-1.43,4,4,0,0,1,.3-1.57,3.67,3.67,0,0,1,.82-1.25,3.76,3.76,0,0,1,1.26-.82,4.09,4.09,0,0,1,1.59-.3,4.18,4.18,0,0,1,1.39.22,3.65,3.65,0,0,1,1.15.62l1.06-1.09.51.49Zm-1.25.26a2.66,2.66,0,0,0-1.81-.63,3,3,0,0,0-1.18.23,2.7,2.7,0,0,0-.88.64,2.94,2.94,0,0,0-.56.94,3.42,3.42,0,0,0-.2,1.17,2.94,2.94,0,0,0,.55,1.82ZM116.54,26a2.72,2.72,0,0,0,.8.45,3.11,3.11,0,0,0,1,.16,2.8,2.8,0,0,0,1.18-.24,2.54,2.54,0,0,0,.88-.63,2.73,2.73,0,0,0,.57-.94,3.51,3.51,0,0,0,.2-1.17,3.18,3.18,0,0,0-.54-1.83Z"/><path d="M135,17.09h-4.63l-.08,3.41a3.44,3.44,0,0,1,.76-.21,4.87,4.87,0,0,1,.76-.06,3.8,3.8,0,0,1,1.46.27,3.26,3.26,0,0,1,1.13.76,3.42,3.42,0,0,1,.73,1.15,4,4,0,0,1,0,2.94,3.34,3.34,0,0,1-.8,1.17,3.51,3.51,0,0,1-1.21.76,4.14,4.14,0,0,1-1.51.28,3.78,3.78,0,0,1-1.94-.52,3.35,3.35,0,0,1-1.32-1.5l1.15-.5a2.61,2.61,0,0,0,.89,1.07,2.31,2.31,0,0,0,1.33.39,2.55,2.55,0,0,0,1-.2,2.5,2.5,0,0,0,.81-.54A2.68,2.68,0,0,0,134,25a2.54,2.54,0,0,0,.2-1,2.79,2.79,0,0,0-.21-1.09,2.52,2.52,0,0,0-.58-.85,2.35,2.35,0,0,0-.88-.55,3.1,3.1,0,0,0-1.12-.2,4.59,4.59,0,0,0-1.21.17,5.14,5.14,0,0,0-1.14.46l.11-5.88H135Z"/><path d="M140.87,15.84a3.24,3.24,0,0,1,2,.56A3.89,3.89,0,0,1,144,17.83a6.3,6.3,0,0,1,.56,1.89,13.76,13.76,0,0,1,.14,2,13.53,13.53,0,0,1-.14,2,6.45,6.45,0,0,1-.56,1.9A3.78,3.78,0,0,1,142.84,27a3.67,3.67,0,0,1-3.93,0,3.6,3.6,0,0,1-1.17-1.42,6.17,6.17,0,0,1-.56-1.9,13.58,13.58,0,0,1-.15-2,13.82,13.82,0,0,1,.15-2,6,6,0,0,1,.56-1.89,3.7,3.7,0,0,1,1.17-1.43A3.21,3.21,0,0,1,140.87,15.84Zm0,1.06a2,2,0,0,0-1.46.5,3.08,3.08,0,0,0-.81,1.23,6.1,6.1,0,0,0-.34,1.56c0,.56-.07,1.06-.07,1.51s0,.95.07,1.5a6.09,6.09,0,0,0,.34,1.57,3.08,3.08,0,0,0,.81,1.23,2.07,2.07,0,0,0,1.46.5,2.09,2.09,0,0,0,1.47-.5,3.3,3.3,0,0,0,.81-1.23,6.09,6.09,0,0,0,.34-1.57c0-.55.07-1.05.07-1.5s0-.95-.07-1.51a6.1,6.1,0,0,0-.34-1.56,3.3,3.3,0,0,0-.81-1.23A2,2,0,0,0,140.87,16.9Z"/><path d="M149.77,15.84a3.24,3.24,0,0,1,2,.56,3.77,3.77,0,0,1,1.16,1.43,6,6,0,0,1,.56,1.89,13.82,13.82,0,0,1,.15,2,13.58,13.58,0,0,1-.15,2,6.17,6.17,0,0,1-.56,1.9A3.66,3.66,0,0,1,151.74,27a3.69,3.69,0,0,1-3.94,0,3.78,3.78,0,0,1-1.17-1.42,6.77,6.77,0,0,1-.56-1.9,15.09,15.09,0,0,1-.14-2,15.36,15.36,0,0,1,.14-2,6.6,6.6,0,0,1,.56-1.89,3.89,3.89,0,0,1,1.17-1.43A3.24,3.24,0,0,1,149.77,15.84Zm0,1.06a2,2,0,0,0-1.47.5,3.17,3.17,0,0,0-.8,1.23,6.11,6.11,0,0,0-.35,1.56c-.05.56-.07,1.06-.07,1.51s0,.95.07,1.5a6.09,6.09,0,0,0,.35,1.57,3.17,3.17,0,0,0,.8,1.23,2.09,2.09,0,0,0,1.47.5,2.05,2.05,0,0,0,1.46-.5,3.08,3.08,0,0,0,.81-1.23,5.7,5.7,0,0,0,.34-1.57c.05-.55.08-1.05.08-1.5s0-.95-.08-1.51a5.71,5.71,0,0,0-.34-1.56,3.08,3.08,0,0,0-.81-1.23A2,2,0,0,0,149.77,16.9Z"/><path d="M159.82,21.54c0-.28,0-.56,0-.83s0-.56,0-.84h1.13V21h0A2.41,2.41,0,0,1,162,20a2.94,2.94,0,0,1,1.35-.34,3.07,3.07,0,0,1,.65.07,2.25,2.25,0,0,1,.66.23,2,2,0,0,1,.6.47,2.47,2.47,0,0,1,.48.78,2.45,2.45,0,0,1,1-1.13,3.07,3.07,0,0,1,3.58.34,3.17,3.17,0,0,1,.68,2.17v4.75h-1V23a3.25,3.25,0,0,0-.4-1.74,1.67,1.67,0,0,0-1.49-.61,2,2,0,0,0-1,.23,1.93,1.93,0,0,0-.65.62,3.07,3.07,0,0,0-.36.87,4.9,4.9,0,0,0-.11,1v4h-1.06V23a3.16,3.16,0,0,0-.4-1.74,1.65,1.65,0,0,0-1.49-.61,2.67,2.67,0,0,0-.44.07,1.73,1.73,0,0,0-.71.35,2.67,2.67,0,0,0-.66.86,3.53,3.53,0,0,0-.3,1.6v3.84h-1.05Z"/><path d="M173.45,21.54c0-.28,0-.56,0-.83s0-.56,0-.84h1.13V21h0a2.41,2.41,0,0,1,1.06-1,2.94,2.94,0,0,1,1.35-.34,3,3,0,0,1,.65.07,2.25,2.25,0,0,1,.66.23,2,2,0,0,1,.6.47,2.47,2.47,0,0,1,.48.78,2.45,2.45,0,0,1,1-1.13,3.07,3.07,0,0,1,3.58.34,3.12,3.12,0,0,1,.69,2.17v4.75h-1.06V23a3.16,3.16,0,0,0-.4-1.74,1.67,1.67,0,0,0-1.49-.61,2,2,0,0,0-1,.23,1.93,1.93,0,0,0-.65.62,3.07,3.07,0,0,0-.36.87,4.9,4.9,0,0,0-.11,1v4H178.5V23a3.16,3.16,0,0,0-.4-1.74,1.65,1.65,0,0,0-1.48-.61,2.52,2.52,0,0,0-.44.07,1.71,1.71,0,0,0-.72.35,2.67,2.67,0,0,0-.66.86,3.53,3.53,0,0,0-.3,1.6v3.84h-1.05Z"/></g><g class="cls-1"><path d="M121.39,240.94a4,4,0,0,1,.68,1.16,4.28,4.28,0,0,1,.24,1.45,4.22,4.22,0,0,1-.29,1.57,3.73,3.73,0,0,1-2.08,2.07,4.2,4.2,0,0,1-1.61.3,4.15,4.15,0,0,1-1.4-.23,3.94,3.94,0,0,1-1.11-.6l-1.07,1.08-.52-.49,1.06-1.09a3.56,3.56,0,0,1-.69-1.18,4.17,4.17,0,0,1-.24-1.43,4.07,4.07,0,0,1,.3-1.57,3.73,3.73,0,0,1,2.08-2.07,4.09,4.09,0,0,1,1.59-.29,4.45,4.45,0,0,1,1.39.21,3.65,3.65,0,0,1,1.15.62l1.06-1.09.51.49Zm-1.25.26a2.65,2.65,0,0,0-1.81-.62,2.79,2.79,0,0,0-1.18.23,2.54,2.54,0,0,0-.88.63,3,3,0,0,0-.56.94,3.46,3.46,0,0,0-.2,1.17,2.92,2.92,0,0,0,.55,1.82Zm-3.6,4.72a2.72,2.72,0,0,0,.8.45,3.11,3.11,0,0,0,1,.16,2.8,2.8,0,0,0,1.18-.24,2.54,2.54,0,0,0,.88-.63,2.64,2.64,0,0,0,.57-.94,3.42,3.42,0,0,0,.2-1.17,3.13,3.13,0,0,0-.54-1.82Z"/><path d="M134.18,243.55h1.64v1.06h-1.64v2.68H133v-2.68h-4.89v-1.32l4.57-7.32h1.47ZM133,237.12h0l-3.9,6.43H133Z"/><path d="M143.87,237h-4.63l-.08,3.41a4.21,4.21,0,0,1,.75-.21,5.09,5.09,0,0,1,.77-.06,3.83,3.83,0,0,1,1.46.27,3.32,3.32,0,0,1,1.86,1.91,4,4,0,0,1,0,2.95,3.53,3.53,0,0,1-.8,1.17,3.74,3.74,0,0,1-1.21.75,3.94,3.94,0,0,1-1.51.28,3.66,3.66,0,0,1-1.94-.52,3.37,3.37,0,0,1-1.33-1.5l1.16-.5a2.61,2.61,0,0,0,.89,1.07,2.28,2.28,0,0,0,1.32.39,2.57,2.57,0,0,0,1.81-.73,2.5,2.5,0,0,0,.54-.81,2.34,2.34,0,0,0,.2-1,3,3,0,0,0-.2-1.09,2.67,2.67,0,0,0-.58-.85,2.57,2.57,0,0,0-.88-.55,3.14,3.14,0,0,0-1.12-.2,4.53,4.53,0,0,0-1.21.17,6.32,6.32,0,0,0-1.14.46l.11-5.87h5.78Z"/><path d="M149.77,235.78a3.24,3.24,0,0,1,2,.55,3.77,3.77,0,0,1,1.16,1.43,6.09,6.09,0,0,1,.56,1.9,13.58,13.58,0,0,1,.15,2,13.82,13.82,0,0,1-.15,2,6.11,6.11,0,0,1-.56,1.89,3.77,3.77,0,0,1-1.16,1.43,3.75,3.75,0,0,1-3.94,0,3.89,3.89,0,0,1-1.17-1.43,6.7,6.7,0,0,1-.56-1.89,15.36,15.36,0,0,1-.14-2,15.09,15.09,0,0,1,.14-2,6.67,6.67,0,0,1,.56-1.9,3.89,3.89,0,0,1,1.17-1.43A3.24,3.24,0,0,1,149.77,235.78Zm0,1.05a2.09,2.09,0,0,0-1.47.5,3.17,3.17,0,0,0-.8,1.23,6.09,6.09,0,0,0-.35,1.57c-.05.55-.07,1.05-.07,1.5s0,1,.07,1.5a6.09,6.09,0,0,0,.35,1.57,3.17,3.17,0,0,0,.8,1.23,2,2,0,0,0,1.47.5,2,2,0,0,0,1.46-.5,3.08,3.08,0,0,0,.81-1.23,5.7,5.7,0,0,0,.34-1.57c.05-.55.08-1,.08-1.5s0-.95-.08-1.5a5.7,5.7,0,0,0-.34-1.57,3.08,3.08,0,0,0-.81-1.23A2.05,2.05,0,0,0,149.77,236.83Z"/><path d="M159.82,241.47c0-.28,0-.55,0-.83s0-.56,0-.83h1.13v1.13h0a2.47,2.47,0,0,1,1.06-1,3.05,3.05,0,0,1,1.35-.33,3.83,3.83,0,0,1,.65.06,2.25,2.25,0,0,1,.66.23,2,2,0,0,1,.6.47,2.64,2.64,0,0,1,.48.79,2.48,2.48,0,0,1,1-1.14,3.12,3.12,0,0,1,3.58.34,3.17,3.17,0,0,1,.68,2.17v4.75h-1v-4.36a3.26,3.26,0,0,0-.4-1.75,1.66,1.66,0,0,0-1.49-.6,1.84,1.84,0,0,0-1.64.84,3.07,3.07,0,0,0-.36.87,4.9,4.9,0,0,0-.11,1v4h-1.06v-4.36a3.17,3.17,0,0,0-.4-1.75,1.65,1.65,0,0,0-1.49-.6l-.44.06a1.73,1.73,0,0,0-.71.35,2.67,2.67,0,0,0-.66.86,3.55,3.55,0,0,0-.3,1.61v3.83h-1.05Z"/><path d="M173.45,241.47c0-.28,0-.55,0-.83s0-.56,0-.83h1.13v1.13h0a2.47,2.47,0,0,1,1.06-1,3.05,3.05,0,0,1,1.35-.33,3.74,3.74,0,0,1,.65.06,2.25,2.25,0,0,1,.66.23,2,2,0,0,1,.6.47,2.64,2.64,0,0,1,.48.79,2.48,2.48,0,0,1,1-1.14,3.12,3.12,0,0,1,3.58.34,3.12,3.12,0,0,1,.69,2.17v4.75h-1.06v-4.36a3.17,3.17,0,0,0-.4-1.75,1.66,1.66,0,0,0-1.49-.6,1.84,1.84,0,0,0-1.64.84,3.07,3.07,0,0,0-.36.87,4.9,4.9,0,0,0-.11,1v4H178.5v-4.36a3.17,3.17,0,0,0-.4-1.75,1.64,1.64,0,0,0-1.48-.6l-.44.06a1.71,1.71,0,0,0-.72.35,2.67,2.67,0,0,0-.66.86,3.55,3.55,0,0,0-.3,1.61v3.83h-1.05Z"/></g><line class="cls-2" x1="175.2" y1="37.73" x2="124.32" y2="37.73"/><line class="cls-2" x1="175.2" y1="39.31" x2="175.2" y2="35.93"/><line class="cls-2" x1="124.32" y1="39.49" x2="124.32" y2="35.11"/><line class="cls-2" x1="175.2" y1="227" x2="124.32" y2="227"/><line class="cls-2" x1="175.2" y1="228.58" x2="175.2" y2="225.21"/><line class="cls-2" x1="124.32" y1="228.76" x2="124.32" y2="224.39"/><polygon class="cls-3" points="166.89 46.42 179.56 74.04 119.48 74.04 132.15 46.42 166.89 46.42"/><polygon class="cls-3" points="166.96 47 179 73.29 120.03 73.29 132.08 47 166.96 47"/><path class="cls-4" d="M150.48,208.24l0-129.47s.55-4.85,1.92-4.75-7.58,0-5.89,0,1.92,4.75,1.92,4.75l-.09,129.47Z"/><path class="cls-4" d="M149.52,47.13V73.24m-1.09-26.11-.74,26.11m-.35-26.12-1.5,26.12m.4-26.14L144,73.22m1.16-26.12-3,26.14m1.89-26.15-3.72,26.13M143,47.08,138.5,73.24m3.38-26.17-5.21,26.15m4.12-26.16-5.95,26.18m4.86-26.18L133,73.24m5.62-26.19-7.4,26.13M137.52,47,129.38,73.2M136.43,47l-8.88,26.18M135.34,47l-9.62,26.21M134.24,47,123.89,73.25M133.15,47,122.06,73.26m28.73-26.13.76,26.09m.34-26.1,1.51,26.12M153,47.1l2.25,26.16M154.07,47.1l3,26.12m-1.89-26.13,3.74,26.15m-2.65-26.16,4.49,26.14m-3.4-26.15,5.23,26.15m-4.14-26.16,5.95,26.18m-4.85-26.18,6.67,26.16m-5.59-26.17,7.44,26.19M161.7,47l8.14,26.16M162.8,47l8.87,26.18M163.89,47l9.61,26.21M165,47l10.35,26.24M166.07,47l11.09,26.25"/><line class="cls-4" x1="148.38" y1="78.77" x2="150.43" y2="78.77"/><rect class="cls-5" x="123.29" y="216.16" width="52.11" height="1.09"/><path class="cls-6" d="M148.46,208.37s-.42,4.85-4.88,5.67l-20.13,2.12m26.93-7.79s.43,4.85,4.88,5.67l20.13,2.12"/></svg>