<svg xmlns="http://www.w3.org/2000/svg" viewBox="0 0 300 263"><defs><style>.cls-1,.cls-2,.cls-3,.cls-4,.cls-5{fill:none;stroke-linecap:round;}.cls-1,.cls-2,.cls-5{stroke:red;}.cls-1,.cls-2,.cls-4,.cls-5{stroke-linejoin:round;}.cls-1{stroke-width:0.6px;}.cls-3,.cls-4{stroke:#000;}.cls-3{stroke-miterlimit:10;}.cls-3,.cls-4,.cls-5{stroke-width:0.6px;}</style></defs><title>romeo-babe-ceiling-wall-starck-flos-F6260000A-curva-fotometrica</title><g id="numeri_esterni_diagramma" data-name="numeri esterni diagramma"><path d="M148.27,239.2a6.85,6.85,0,0,1,.08-1,3.41,3.41,0,0,1,.3-.95,1.94,1.94,0,0,1,.59-.71,1.57,1.57,0,0,1,.95-.27,1.6,1.6,0,0,1,1,.27,2,2,0,0,1,.59.71,3.1,3.1,0,0,1,.29.95,5.7,5.7,0,0,1,.08,1,5.85,5.85,0,0,1-.08,1,3.13,3.13,0,0,1-.29.94,2,2,0,0,1-.59.71,1.6,1.6,0,0,1-1,.27,1.57,1.57,0,0,1-.95-.27,1.94,1.94,0,0,1-.59-.71,3.45,3.45,0,0,1-.3-.94A7.07,7.07,0,0,1,148.27,239.2Zm.68,0c0,.13,0,.29,0,.46a4.88,4.88,0,0,0,.06.52,2.83,2.83,0,0,0,.13.5,1.65,1.65,0,0,0,.22.44,1.24,1.24,0,0,0,.34.31,1,1,0,0,0,.48.12.9.9,0,0,0,.48-.12,1,1,0,0,0,.34-.31,1.41,1.41,0,0,0,.23-.44,4.07,4.07,0,0,0,.13-.5c0-.18,0-.35.06-.52s0-.33,0-.46,0-.3,0-.47,0-.34-.06-.51a3.8,3.8,0,0,0-.13-.51,1.53,1.53,0,0,0-.23-.44,1,1,0,0,0-.34-.31.9.9,0,0,0-.48-.12,1,1,0,0,0-.48.12,1.24,1.24,0,0,0-.34.31,1.81,1.81,0,0,0-.22.44,2.72,2.72,0,0,0-.13.51,4.43,4.43,0,0,0-.06.51C149,238.9,149,239.06,149,239.2Z"/><path d="M152.83,237.41a1.33,1.33,0,0,1,.08-.45,1.11,1.11,0,0,1,.25-.36,1,1,0,0,1,.36-.24,1.17,1.17,0,0,1,.9,0,1,1,0,0,1,.36.24,1.11,1.11,0,0,1,.25.36,1.31,1.31,0,0,1,0,.9,1.23,1.23,0,0,1-.61.61,1.17,1.17,0,0,1-.9,0,1.23,1.23,0,0,1-.61-.61A1.33,1.33,0,0,1,152.83,237.41Zm.43,0a.79.79,0,0,0,.05.25.68.68,0,0,0,.14.23.66.66,0,0,0,.23.17.73.73,0,0,0,.58,0,.76.76,0,0,0,.23-.17.88.88,0,0,0,.14-.23.65.65,0,0,0,0-.5,1.09,1.09,0,0,0-.14-.23,1,1,0,0,0-.23-.17.73.73,0,0,0-.58,0,.81.81,0,0,0-.23.17.75.75,0,0,0-.19.48Z"/><path d="M203.17,238.76h.21l.43,0a1.15,1.15,0,0,0,.42-.13.77.77,0,0,0,.31-.31.94.94,0,0,0,.13-.51.87.87,0,0,0-.27-.68,1,1,0,0,0-.7-.26,1.28,1.28,0,0,0-.63.16,1.14,1.14,0,0,0-.41.48l-.65-.25a1.48,1.48,0,0,1,.65-.72,2.07,2.07,0,0,1,1-.24,2.25,2.25,0,0,1,.64.09,1.72,1.72,0,0,1,.54.28,1.37,1.37,0,0,1,.37.46,1.48,1.48,0,0,1,.14.65,1.29,1.29,0,0,1-.27.8,1.34,1.34,0,0,1-.7.49v0a1.48,1.48,0,0,1,.85.49,1.37,1.37,0,0,1,.23.43,1.69,1.69,0,0,1,.08.5,1.66,1.66,0,0,1-.15.72,1.57,1.57,0,0,1-.41.51,1.71,1.71,0,0,1-.6.31,2.34,2.34,0,0,1-.71.1,2.18,2.18,0,0,1-1.13-.28,1.61,1.61,0,0,1-.7-.91l.68-.22a1.33,1.33,0,0,0,.41.65,1.3,1.3,0,0,0,.74.19,1.33,1.33,0,0,0,.45-.08,1.11,1.11,0,0,0,.36-.23,1.24,1.24,0,0,0,.25-.35,1.13,1.13,0,0,0,.09-.45,1.07,1.07,0,0,0-.12-.53,1,1,0,0,0-.33-.33,1.23,1.23,0,0,0-.46-.18,2.31,2.31,0,0,0-.52-.06h-.21Z"/><path d="M206.24,239.2a6.85,6.85,0,0,1,.08-1,3.11,3.11,0,0,1,.3-.95,1.94,1.94,0,0,1,.59-.71,1.55,1.55,0,0,1,.95-.27,1.6,1.6,0,0,1,1,.27,2,2,0,0,1,.59.71,3.1,3.1,0,0,1,.29.95,5.7,5.7,0,0,1,.08,1,5.85,5.85,0,0,1-.08,1,3.13,3.13,0,0,1-.29.94,2,2,0,0,1-.59.71,1.6,1.6,0,0,1-1,.27,1.55,1.55,0,0,1-.95-.27,1.94,1.94,0,0,1-.59-.71,3.14,3.14,0,0,1-.3-.94A7.07,7.07,0,0,1,206.24,239.2Zm.67,0c0,.13,0,.29,0,.46a4.88,4.88,0,0,0,.06.52,2.83,2.83,0,0,0,.13.5,1.4,1.4,0,0,0,.22.44,1.24,1.24,0,0,0,.34.31,1,1,0,0,0,.48.12.9.9,0,0,0,.48-.12,1,1,0,0,0,.34-.31,1.41,1.41,0,0,0,.23-.44,4.05,4.05,0,0,0,.12-.5,4.88,4.88,0,0,0,.06-.52,3.86,3.86,0,0,0,0-.46,3.94,3.94,0,0,0,0-.47,4.43,4.43,0,0,0-.06-.51,3.81,3.81,0,0,0-.12-.51,1.53,1.53,0,0,0-.23-.44,1,1,0,0,0-.34-.31.9.9,0,0,0-.48-.12,1,1,0,0,0-.48.12,1.24,1.24,0,0,0-.34.31,1.51,1.51,0,0,0-.22.44,2.72,2.72,0,0,0-.13.51,4.43,4.43,0,0,0-.06.51C206.92,238.9,206.91,239.06,206.91,239.2Z"/><path d="M210.84,237.41a1.13,1.13,0,0,1,.09-.45,1.26,1.26,0,0,1,.24-.36,1.2,1.2,0,0,1,.82-.33,1,1,0,0,1,.44.09,1.12,1.12,0,0,1,.37.24,1.26,1.26,0,0,1,.24.36,1.16,1.16,0,0,1-.24,1.26,1.15,1.15,0,0,1-.37.25,1,1,0,0,1-.44.09,1.13,1.13,0,0,1-.45-.09,1.15,1.15,0,0,1-.37-.25,1.15,1.15,0,0,1-.33-.81Zm.43,0a.61.61,0,0,0,.06.25.68.68,0,0,0,.14.23.72.72,0,0,0,.22.17.73.73,0,0,0,.3.06.72.72,0,0,0,.29-.06.62.62,0,0,0,.22-.17.91.91,0,0,0,.15-.23.65.65,0,0,0,0-.5,1.14,1.14,0,0,0-.15-.23.76.76,0,0,0-.22-.17.72.72,0,0,0-.29-.06.73.73,0,0,0-.3.06.92.92,0,0,0-.22.17.79.79,0,0,0-.14.23A.61.61,0,0,0,211.27,237.41Z"/><path d="M93.6,238.76h.21l.44,0a1.1,1.1,0,0,0,.41-.13.86.86,0,0,0,.32-.31.94.94,0,0,0,.12-.51.87.87,0,0,0-.27-.68,1,1,0,0,0-.7-.26,1.21,1.21,0,0,0-.62.16,1.1,1.1,0,0,0-.42.48l-.65-.25a1.45,1.45,0,0,1,.66-.72,2,2,0,0,1,1-.24,2.32,2.32,0,0,1,.65.09,2,2,0,0,1,.54.28,1.67,1.67,0,0,1,.37.46,1.48,1.48,0,0,1,.13.65,1.29,1.29,0,0,1-.27.8,1.34,1.34,0,0,1-.7.49v0a1.31,1.31,0,0,1,.49.18,1.34,1.34,0,0,1,.36.31,1.37,1.37,0,0,1,.23.43,1.42,1.42,0,0,1,.08.5,1.66,1.66,0,0,1-.15.72,1.57,1.57,0,0,1-.41.51,1.75,1.75,0,0,1-.59.31,2.46,2.46,0,0,1-.72.1,2.18,2.18,0,0,1-1.13-.28,1.56,1.56,0,0,1-.69-.91l.68-.22a1.2,1.2,0,0,0,.41.65,1.27,1.27,0,0,0,.73.19,1.33,1.33,0,0,0,.45-.08,1.11,1.11,0,0,0,.36-.23,1.07,1.07,0,0,0,.25-.35,1.13,1.13,0,0,0,.09-.45,1.07,1.07,0,0,0-.12-.53.87.87,0,0,0-.33-.33,1.17,1.17,0,0,0-.46-.18,2.24,2.24,0,0,0-.52-.06H93.6Z"/><path d="M96.68,239.2a5.7,5.7,0,0,1,.08-1,3.1,3.1,0,0,1,.29-.95,2,2,0,0,1,.59-.71,1.6,1.6,0,0,1,1-.27,1.57,1.57,0,0,1,1,.27,1.94,1.94,0,0,1,.59.71,3.41,3.41,0,0,1,.3.95,6.85,6.85,0,0,1,.08,1,7.07,7.07,0,0,1-.08,1,3.45,3.45,0,0,1-.3.94,1.94,1.94,0,0,1-.59.71,1.57,1.57,0,0,1-1,.27,1.6,1.6,0,0,1-1-.27,2,2,0,0,1-.59-.71,3.13,3.13,0,0,1-.29-.94A5.85,5.85,0,0,1,96.68,239.2Zm.67,0c0,.13,0,.29,0,.46a4.88,4.88,0,0,0,.06.52,4.07,4.07,0,0,0,.13.5,1.41,1.41,0,0,0,.23.44,1,1,0,0,0,.34.31.9.9,0,0,0,.48.12,1,1,0,0,0,.48-.12,1.24,1.24,0,0,0,.34-.31,1.65,1.65,0,0,0,.22-.44,2.83,2.83,0,0,0,.13-.5,4.88,4.88,0,0,0,.06-.52c0-.17,0-.33,0-.46s0-.3,0-.47a4.43,4.43,0,0,0-.06-.51,2.72,2.72,0,0,0-.13-.51,1.81,1.81,0,0,0-.22-.44,1.24,1.24,0,0,0-.34-.31,1,1,0,0,0-.48-.12.9.9,0,0,0-.48.12,1,1,0,0,0-.34.31,1.53,1.53,0,0,0-.23.44,3.8,3.8,0,0,0-.13.51,4.43,4.43,0,0,0-.06.51C97.35,238.9,97.35,239.06,97.35,239.2Z"/><path d="M101.28,237.41a1.33,1.33,0,0,1,.08-.45,1.11,1.11,0,0,1,.25-.36,1,1,0,0,1,.36-.24,1.17,1.17,0,0,1,.9,0,1,1,0,0,1,.36.24,1.11,1.11,0,0,1,.25.36,1.31,1.31,0,0,1,0,.9,1.23,1.23,0,0,1-.61.61,1.17,1.17,0,0,1-.9,0,1.23,1.23,0,0,1-.61-.61A1.33,1.33,0,0,1,101.28,237.41Zm.43,0a.79.79,0,0,0,.05.25.68.68,0,0,0,.14.23.76.76,0,0,0,.23.17.73.73,0,0,0,.58,0,.66.66,0,0,0,.23-.17.68.68,0,0,0,.14-.23.71.71,0,0,0-.14-.73.81.81,0,0,0-.23-.17.73.73,0,0,0-.58,0,1,1,0,0,0-.23.17.75.75,0,0,0-.19.48Z"/><path d="M249.93,137.18h0a1.24,1.24,0,0,1-.37.12,1.84,1.84,0,0,1-.39,0,1.91,1.91,0,0,1-.68-.12,1.58,1.58,0,0,1-.54-.37,1.63,1.63,0,0,1-.36-.56,2.05,2.05,0,0,1-.13-.72,1.79,1.79,0,0,1,.15-.75,1.48,1.48,0,0,1,.4-.55,1.79,1.79,0,0,1,.6-.35,2,2,0,0,1,.75-.13,2.11,2.11,0,0,1,.75.13,1.79,1.79,0,0,1,.6.35,1.59,1.59,0,0,1,.4.55,1.79,1.79,0,0,1,.14.75,2.15,2.15,0,0,1,0,.45,1.68,1.68,0,0,1-.11.4,2.59,2.59,0,0,1-.17.38l-.21.36-1.51,2.39h-.78Zm-.59-.42a1.28,1.28,0,0,0,.48-.09,1,1,0,0,0,.39-.24,1.23,1.23,0,0,0,.26-.37,1.43,1.43,0,0,0,0-1,1.1,1.1,0,0,0-.65-.62,1.48,1.48,0,0,0-1,0,1.28,1.28,0,0,0-.39.24,1.12,1.12,0,0,0-.26.38,1.3,1.3,0,0,0,0,1,1.08,1.08,0,0,0,.26.37,1,1,0,0,0,.39.24A1.28,1.28,0,0,0,249.34,136.76Z"/><path d="M251.82,136.71a7.07,7.07,0,0,1,.08-1,3.19,3.19,0,0,1,.29-1,2,2,0,0,1,.59-.7,1.54,1.54,0,0,1,1-.28,1.49,1.49,0,0,1,.95.28,1.91,1.91,0,0,1,.59.7,2.94,2.94,0,0,1,.3,1,6.29,6.29,0,0,1,0,2,2.94,2.94,0,0,1-.3.95,1.91,1.91,0,0,1-.59.7,1.49,1.49,0,0,1-.95.28,1.54,1.54,0,0,1-1-.28,2,2,0,0,1-.59-.7,3.19,3.19,0,0,1-.29-.95A7.07,7.07,0,0,1,251.82,136.71Zm.67,0c0,.14,0,.29,0,.46a4.6,4.6,0,0,0,.06.52,4.7,4.7,0,0,0,.12.51,2,2,0,0,0,.23.44,1,1,0,0,0,.34.31,1,1,0,0,0,.48.11,1.06,1.06,0,0,0,.48-.11,1.24,1.24,0,0,0,.34-.31,1.65,1.65,0,0,0,.22-.44,3.18,3.18,0,0,0,.13-.51,4.6,4.6,0,0,0,.06-.52c0-.17,0-.32,0-.46s0-.29,0-.46a4.6,4.6,0,0,0-.06-.52,3.18,3.18,0,0,0-.13-.51,1.65,1.65,0,0,0-.22-.44,1.24,1.24,0,0,0-.34-.31,1.06,1.06,0,0,0-.48-.11,1,1,0,0,0-.48.11,1,1,0,0,0-.34.31,2,2,0,0,0-.23.44,4.7,4.7,0,0,0-.12.51,4.6,4.6,0,0,0-.06.52C252.5,136.42,252.49,136.57,252.49,136.71Z"/><path d="M256.42,134.93a1.13,1.13,0,0,1,.09-.45,1.31,1.31,0,0,1,.24-.37,1.18,1.18,0,0,1,.37-.24,1,1,0,0,1,.44-.09,1.13,1.13,0,0,1,.45.09,1.06,1.06,0,0,1,.61.61,1.13,1.13,0,0,1,.09.45,1,1,0,0,1-.09.44,1.06,1.06,0,0,1-.61.61,1.13,1.13,0,0,1-.45.09,1,1,0,0,1-.44-.09,1.18,1.18,0,0,1-.37-.24,1.31,1.31,0,0,1-.24-.37A1,1,0,0,1,256.42,134.93Zm.43,0a.69.69,0,0,0,0,.24,1,1,0,0,0,.15.24.73.73,0,0,0,.51.23.54.54,0,0,0,.29-.07.63.63,0,0,0,.23-.16.72.72,0,0,0,.14-.24.52.52,0,0,0,0-.24.56.56,0,0,0,0-.25.59.59,0,0,0-.14-.23.74.74,0,0,0-.52-.24.73.73,0,0,0-.29.07.62.62,0,0,0-.22.17.76.76,0,0,0-.15.23A.74.74,0,0,0,256.85,134.93Z"/><path d="M41.57,137.18h0a1.34,1.34,0,0,1-.37.12,2,2,0,0,1-.39,0,1.92,1.92,0,0,1-.69-.12,1.58,1.58,0,0,1-.54-.37,1.8,1.8,0,0,1-.36-.56,2.05,2.05,0,0,1-.13-.72,1.79,1.79,0,0,1,.15-.75,1.48,1.48,0,0,1,.4-.55,1.79,1.79,0,0,1,.6-.35,2.23,2.23,0,0,1,1.5,0,1.79,1.79,0,0,1,.6.35,1.48,1.48,0,0,1,.4.55,1.79,1.79,0,0,1,.15.75,3.14,3.14,0,0,1,0,.45,2.34,2.34,0,0,1-.12.4,1.84,1.84,0,0,1-.17.38,3.35,3.35,0,0,1-.21.36l-1.5,2.39h-.79Zm-.59-.42a1.28,1.28,0,0,0,.48-.09,1,1,0,0,0,.39-.24,1.23,1.23,0,0,0,.26-.37,1.3,1.3,0,0,0,0-1,1.1,1.1,0,0,0-.65-.62,1.48,1.48,0,0,0-1,0,1.1,1.1,0,0,0-.65.62,1.43,1.43,0,0,0,0,1,1.23,1.23,0,0,0,.26.37,1,1,0,0,0,.39.24A1.28,1.28,0,0,0,41,136.76Z"/><path d="M43.46,136.71a7.07,7.07,0,0,1,.08-1,2.94,2.94,0,0,1,.3-1,1.91,1.91,0,0,1,.59-.7,1.49,1.49,0,0,1,1-.28,1.54,1.54,0,0,1,1,.28,2,2,0,0,1,.59.7,3.19,3.19,0,0,1,.29,1,6.29,6.29,0,0,1,0,2,3.19,3.19,0,0,1-.29.95,2,2,0,0,1-.59.7,1.54,1.54,0,0,1-1,.28,1.49,1.49,0,0,1-1-.28,1.91,1.91,0,0,1-.59-.7,2.94,2.94,0,0,1-.3-.95A7.07,7.07,0,0,1,43.46,136.71Zm.67,0c0,.14,0,.29,0,.46a4.6,4.6,0,0,0,.06.52,3.18,3.18,0,0,0,.13.51,1.65,1.65,0,0,0,.22.44,1.12,1.12,0,0,0,.34.31,1.1,1.1,0,0,0,1,0,1.12,1.12,0,0,0,.34-.31,2,2,0,0,0,.23-.44,4.7,4.7,0,0,0,.12-.51,4.6,4.6,0,0,0,.06-.52c0-.17,0-.32,0-.46s0-.29,0-.46a4.6,4.6,0,0,0-.06-.52,4.7,4.7,0,0,0-.12-.51,2,2,0,0,0-.23-.44,1.12,1.12,0,0,0-.34-.31,1.1,1.1,0,0,0-1,0,1.12,1.12,0,0,0-.34.31,1.65,1.65,0,0,0-.22.44,3.18,3.18,0,0,0-.13.51,4.6,4.6,0,0,0-.06.52C44.14,136.42,44.13,136.57,44.13,136.71Z"/><path d="M48.06,134.93a1.13,1.13,0,0,1,.09-.45,1.06,1.06,0,0,1,.61-.61,1.13,1.13,0,0,1,.45-.09,1.08,1.08,0,0,1,.44.09,1.06,1.06,0,0,1,.61.61,1.13,1.13,0,0,1,.09.45,1,1,0,0,1-.09.44,1.06,1.06,0,0,1-.61.61,1.08,1.08,0,0,1-.44.09,1.13,1.13,0,0,1-.45-.09,1.06,1.06,0,0,1-.61-.61A1,1,0,0,1,48.06,134.93Zm.43,0a.53.53,0,0,0,.06.24.72.72,0,0,0,.14.24.69.69,0,0,0,.22.16.6.6,0,0,0,.3.07.73.73,0,0,0,.51-.23,1,1,0,0,0,.15-.24.69.69,0,0,0,.05-.24.74.74,0,0,0-.05-.25.76.76,0,0,0-.15-.23.62.62,0,0,0-.22-.17.73.73,0,0,0-.29-.07.73.73,0,0,0-.3.07.72.72,0,0,0-.22.17.59.59,0,0,0-.14.23A.57.57,0,0,0,48.49,134.93Z"/><path d="M148.37,38.51h-.68v-4.8h0l-1,.85-.4-.48,1.52-1.24h.59Z"/><path d="M150.49,34.23a1.48,1.48,0,0,1,.13-.61,1.2,1.2,0,0,1,.34-.46,1.44,1.44,0,0,1,.51-.3,1.92,1.92,0,0,1,1.28,0,1.44,1.44,0,0,1,.51.3,1.2,1.2,0,0,1,.34.46,1.33,1.33,0,0,1,.13.61,1.16,1.16,0,0,1-.07.4,1.41,1.41,0,0,1-.18.37,1.33,1.33,0,0,1-.29.29,1.18,1.18,0,0,1-.39.19h0a1.44,1.44,0,0,1,.46.19,1.35,1.35,0,0,1,.35.32,1.42,1.42,0,0,1,.23.44,1.7,1.7,0,0,1,.08.51,1.74,1.74,0,0,1-.14.69,1.43,1.43,0,0,1-.39.52,1.47,1.47,0,0,1-.57.33,2.35,2.35,0,0,1-1.42,0,1.47,1.47,0,0,1-.57-.33,1.55,1.55,0,0,1-.39-.52,1.74,1.74,0,0,1-.14-.69,1.7,1.7,0,0,1,.08-.51,1.67,1.67,0,0,1,.23-.44,1.35,1.35,0,0,1,.35-.32,1.44,1.44,0,0,1,.46-.19h0a1.18,1.18,0,0,1-.39-.19,1.33,1.33,0,0,1-.29-.29,1.41,1.41,0,0,1-.18-.37A1.46,1.46,0,0,1,150.49,34.23ZM151,36.9a1.18,1.18,0,0,0,.09.46,1.07,1.07,0,0,0,.25.35,1,1,0,0,0,.36.23,1.12,1.12,0,0,0,.88,0,1,1,0,0,0,.36-.23,1.07,1.07,0,0,0,.25-.35,1.18,1.18,0,0,0,.09-.46,1.14,1.14,0,0,0-.09-.46,1.13,1.13,0,0,0-.61-.58,1.12,1.12,0,0,0-.88,0,1.13,1.13,0,0,0-.61.58A1.14,1.14,0,0,0,151,36.9Zm.2-2.64a.88.88,0,0,0,.26.67,1,1,0,0,0,1.36,0,1,1,0,0,0,0-1.34,1,1,0,0,0-1.36,0A.88.88,0,0,0,151.17,34.26Z"/><path d="M154.64,35.68a7,7,0,0,1,.08-1,3.1,3.1,0,0,1,.29-1,2,2,0,0,1,.59-.71,1.6,1.6,0,0,1,1-.27,1.55,1.55,0,0,1,.95.27,1.94,1.94,0,0,1,.59.71,2.86,2.86,0,0,1,.3,1,7,7,0,0,1,.08,1,7.07,7.07,0,0,1-.08,1,2.88,2.88,0,0,1-.3.94,1.94,1.94,0,0,1-.59.71,1.55,1.55,0,0,1-.95.27,1.6,1.6,0,0,1-1-.27,2,2,0,0,1-.59-.71,3.13,3.13,0,0,1-.29-.94A7.07,7.07,0,0,1,154.64,35.68Zm.67,0c0,.13,0,.29,0,.46a4.88,4.88,0,0,0,.06.52,4.05,4.05,0,0,0,.12.5,1.66,1.66,0,0,0,.23.44,1.12,1.12,0,0,0,.34.31,1,1,0,0,0,1,0,1.12,1.12,0,0,0,.34-.31,1.4,1.4,0,0,0,.22-.44,2.83,2.83,0,0,0,.13-.5,4.88,4.88,0,0,0,.06-.52c0-.17,0-.33,0-.46s0-.3,0-.47a4.43,4.43,0,0,0-.06-.51,2.72,2.72,0,0,0-.13-.51,1.51,1.51,0,0,0-.22-.44,1.12,1.12,0,0,0-.34-.31,1,1,0,0,0-1,0,1.12,1.12,0,0,0-.34.31,1.83,1.83,0,0,0-.23.44,3.81,3.81,0,0,0-.12.51,4.43,4.43,0,0,0-.06.51C155.32,35.38,155.31,35.54,155.31,35.68Z"/><path d="M159.24,33.89a1.15,1.15,0,0,1,.33-.81,1,1,0,0,1,.37-.24,1,1,0,0,1,.44-.09,1.15,1.15,0,0,1,.82,2,1.15,1.15,0,0,1-.37.25,1.13,1.13,0,0,1-.45.09,1.15,1.15,0,0,1-.81-.34,1.15,1.15,0,0,1-.33-.81Zm.43,0a.79.79,0,0,0,.05.25,1.14,1.14,0,0,0,.15.23.62.62,0,0,0,.22.17.72.72,0,0,0,.29.06.68.68,0,0,0,.52-.23.79.79,0,0,0,.14-.23.65.65,0,0,0,0-.5.79.79,0,0,0-.14-.23.81.81,0,0,0-.23-.17.65.65,0,0,0-.29-.06.72.72,0,0,0-.29.06.76.76,0,0,0-.22.17,1.14,1.14,0,0,0-.15.23A.79.79,0,0,0,159.67,33.89Z"/><path d="M203.18,38.51h-.68v-4.8h0l-1,.85-.4-.48,1.52-1.24h.59Z"/><path d="M208.49,33.47h-2.31l0,1.53a1.08,1.08,0,0,1,.36-.11l.37,0a2,2,0,0,1,.74.14,1.61,1.61,0,0,1,.57.39,1.9,1.9,0,0,1,.37.59,2,2,0,0,1,.13.74,2,2,0,0,1-.15.78,1.74,1.74,0,0,1-.41.59,1.91,1.91,0,0,1-.61.38,2.2,2.2,0,0,1-.78.13,1.73,1.73,0,0,1-1-.28,2,2,0,0,1-.63-.75l.67-.25a1.31,1.31,0,0,0,.42.51,1.1,1.1,0,0,0,.64.2,1.28,1.28,0,0,0,.48-.09,1.26,1.26,0,0,0,.38-.27,1.15,1.15,0,0,0,.26-.41,1.53,1.53,0,0,0,.1-.54,1.38,1.38,0,0,0-.11-.55,1.08,1.08,0,0,0-.3-.4,1.26,1.26,0,0,0-.44-.25,1.67,1.67,0,0,0-.55-.08,1.84,1.84,0,0,0-.6.1,2.58,2.58,0,0,0-.56.25l.06-2.95h3Z"/><path d="M209.45,35.68a7,7,0,0,1,.08-1,3.1,3.1,0,0,1,.29-1,2,2,0,0,1,.59-.71,1.6,1.6,0,0,1,1-.27,1.55,1.55,0,0,1,.95.27,1.94,1.94,0,0,1,.59.71,2.86,2.86,0,0,1,.3,1,7,7,0,0,1,.08,1,7.07,7.07,0,0,1-.08,1,2.88,2.88,0,0,1-.3.94,1.94,1.94,0,0,1-.59.71,1.55,1.55,0,0,1-.95.27,1.6,1.6,0,0,1-1-.27,2,2,0,0,1-.59-.71,3.13,3.13,0,0,1-.29-.94A7.07,7.07,0,0,1,209.45,35.68Zm.67,0c0,.13,0,.29,0,.46a4.88,4.88,0,0,0,.06.52,4.05,4.05,0,0,0,.12.5,1.66,1.66,0,0,0,.23.44,1,1,0,0,0,.34.31.9.9,0,0,0,.48.12,1,1,0,0,0,.48-.12,1.24,1.24,0,0,0,.34-.31,1.4,1.4,0,0,0,.22-.44,2.83,2.83,0,0,0,.13-.5,4.88,4.88,0,0,0,.06-.52c0-.17,0-.33,0-.46s0-.3,0-.47a4.43,4.43,0,0,0-.06-.51,2.72,2.72,0,0,0-.13-.51,1.51,1.51,0,0,0-.22-.44,1.24,1.24,0,0,0-.34-.31,1,1,0,0,0-.48-.12.9.9,0,0,0-.48.12,1,1,0,0,0-.34.31,1.83,1.83,0,0,0-.23.44,3.81,3.81,0,0,0-.12.51,4.43,4.43,0,0,0-.06.51C210.13,35.38,210.12,35.54,210.12,35.68Z"/><path d="M214.05,33.89a1.15,1.15,0,0,1,.33-.81,1,1,0,0,1,.37-.24,1,1,0,0,1,.44-.09,1.13,1.13,0,0,1,.45.09,1,1,0,0,1,.36.24,1,1,0,0,1,.25.36,1.17,1.17,0,0,1,0,.9,1.23,1.23,0,0,1-.61.61,1.13,1.13,0,0,1-.45.09,1.15,1.15,0,0,1-.81-.34,1.15,1.15,0,0,1-.33-.81Zm.43,0a.79.79,0,0,0,.05.25,1.14,1.14,0,0,0,.15.23.62.62,0,0,0,.22.17.72.72,0,0,0,.29.06.68.68,0,0,0,.52-.23.79.79,0,0,0,.14-.23.65.65,0,0,0,0-.5.79.79,0,0,0-.14-.23.81.81,0,0,0-.23-.17.65.65,0,0,0-.29-.06.72.72,0,0,0-.29.06.76.76,0,0,0-.22.17,1.14,1.14,0,0,0-.15.23A.79.79,0,0,0,214.48,33.89Z"/><path d="M93.61,38.51h-.67v-4.8h0l-1,.85-.4-.48L93,32.84h.58Z"/><path d="M98.92,33.47H96.61l0,1.53a1,1,0,0,1,.35-.11l.37,0a1.91,1.91,0,0,1,.74.14,1.65,1.65,0,0,1,.58.39A1.71,1.71,0,0,1,99,36a2,2,0,0,1,.13.74,2,2,0,0,1-.15.78,1.71,1.71,0,0,1-.4.59,2,2,0,0,1-.62.38,2.15,2.15,0,0,1-.77.13,1.78,1.78,0,0,1-1.05-.28,1.85,1.85,0,0,1-.62-.75l.67-.25a1.16,1.16,0,0,0,.42.51,1.05,1.05,0,0,0,.63.2,1.28,1.28,0,0,0,.48-.09,1.23,1.23,0,0,0,.64-.68,1.33,1.33,0,0,0,.1-.54,1.38,1.38,0,0,0-.11-.55,1.18,1.18,0,0,0-.29-.4,1.41,1.41,0,0,0-.45-.25,1.63,1.63,0,0,0-.55-.08,1.78,1.78,0,0,0-.59.1,2.58,2.58,0,0,0-.56.25l0-2.95h3Z"/><path d="M99.88,35.68a7,7,0,0,1,.08-1,3.11,3.11,0,0,1,.3-1,1.94,1.94,0,0,1,.59-.71,1.55,1.55,0,0,1,1-.27,1.6,1.6,0,0,1,1,.27,2,2,0,0,1,.59.71,3.1,3.1,0,0,1,.29,1,5.77,5.77,0,0,1,.08,1,5.85,5.85,0,0,1-.08,1,3.13,3.13,0,0,1-.29.94,2,2,0,0,1-.59.71,1.6,1.6,0,0,1-1,.27,1.55,1.55,0,0,1-1-.27,1.94,1.94,0,0,1-.59-.71,3.14,3.14,0,0,1-.3-.94A7.07,7.07,0,0,1,99.88,35.68Zm.67,0c0,.13,0,.29,0,.46a4.88,4.88,0,0,0,.06.52,2.83,2.83,0,0,0,.13.5,1.4,1.4,0,0,0,.22.44,1.24,1.24,0,0,0,.34.31,1,1,0,0,0,.48.12.9.9,0,0,0,.48-.12,1,1,0,0,0,.34-.31,1.41,1.41,0,0,0,.23-.44,4.05,4.05,0,0,0,.12-.5,4.88,4.88,0,0,0,.06-.52c0-.17,0-.33,0-.46s0-.3,0-.47a4.43,4.43,0,0,0-.06-.51,3.81,3.81,0,0,0-.12-.51,1.53,1.53,0,0,0-.23-.44,1,1,0,0,0-.34-.31.9.9,0,0,0-.48-.12,1,1,0,0,0-.48.12,1.24,1.24,0,0,0-.34.31,1.51,1.51,0,0,0-.22.44,2.72,2.72,0,0,0-.13.51,4.43,4.43,0,0,0-.06.51C100.56,35.38,100.55,35.54,100.55,35.68Z"/><path d="M104.48,33.89a1.15,1.15,0,0,1,1.15-1.14,1,1,0,0,1,.44.09,1.12,1.12,0,0,1,.37.24,1.16,1.16,0,0,1,0,1.62,1.15,1.15,0,0,1-.37.25,1,1,0,0,1-.44.09,1.13,1.13,0,0,1-.45-.09,1.15,1.15,0,0,1-.37-.25,1.15,1.15,0,0,1-.33-.81Zm.43,0a.61.61,0,0,0,.06.25.79.79,0,0,0,.14.23.72.72,0,0,0,.22.17.73.73,0,0,0,.3.06.72.72,0,0,0,.29-.06.62.62,0,0,0,.22-.17,1.14,1.14,0,0,0,.15-.23.65.65,0,0,0,0-.5,1.14,1.14,0,0,0-.15-.23.76.76,0,0,0-.22-.17.72.72,0,0,0-.29-.06.73.73,0,0,0-.3.06.92.92,0,0,0-.22.17.79.79,0,0,0-.14.23A.61.61,0,0,0,104.91,33.89Z"/><path d="M248.75,192.45v0a1.35,1.35,0,0,1,.37-.13,2,2,0,0,1,.39,0,1.73,1.73,0,0,1,.69.13,1.42,1.42,0,0,1,.54.36,1.85,1.85,0,0,1,.36.57,2,2,0,0,1,.12.72,1.78,1.78,0,0,1-.14.74,1.74,1.74,0,0,1-.4.56,2,2,0,0,1-.6.35,2.36,2.36,0,0,1-.75.12,2.27,2.27,0,0,1-.75-.12,2,2,0,0,1-.6-.35,1.6,1.6,0,0,1-.4-.56,1.78,1.78,0,0,1-.15-.74,2.24,2.24,0,0,1,.15-.86,5.28,5.28,0,0,1,.39-.74l1.5-2.39h.79Zm.59.43a1.23,1.23,0,0,0-.87.32,1,1,0,0,0-.26.38,1.31,1.31,0,0,0-.1.5,1.35,1.35,0,0,0,.1.5,1.08,1.08,0,0,0,.26.37,1,1,0,0,0,.39.24,1.32,1.32,0,0,0,1,0,1,1,0,0,0,.39-.24,1.23,1.23,0,0,0,.26-.37,1.35,1.35,0,0,0,.09-.5,1.31,1.31,0,0,0-.09-.5,1.16,1.16,0,0,0-.26-.38,1.23,1.23,0,0,0-.87-.32Z"/><path d="M251.82,192.92a7.07,7.07,0,0,1,.08-1,3.13,3.13,0,0,1,.29-.94,2,2,0,0,1,.59-.71,1.6,1.6,0,0,1,1-.27,1.55,1.55,0,0,1,.95.27,1.94,1.94,0,0,1,.59.71,2.88,2.88,0,0,1,.3.94,7.07,7.07,0,0,1,.08,1,7,7,0,0,1-.08,1,2.86,2.86,0,0,1-.3,1,1.94,1.94,0,0,1-.59.71,1.55,1.55,0,0,1-.95.27,1.6,1.6,0,0,1-1-.27,2,2,0,0,1-.59-.71,3.1,3.1,0,0,1-.29-1A7,7,0,0,1,251.82,192.92Zm.67,0c0,.14,0,.3,0,.47a4.43,4.43,0,0,0,.06.51,3.81,3.81,0,0,0,.12.51,1.83,1.83,0,0,0,.23.44,1,1,0,0,0,.34.31.9.9,0,0,0,.48.12,1,1,0,0,0,.48-.12,1.24,1.24,0,0,0,.34-.31,1.51,1.51,0,0,0,.22-.44,2.72,2.72,0,0,0,.13-.51,4.43,4.43,0,0,0,.06-.51c0-.17,0-.33,0-.47s0-.29,0-.46a4.88,4.88,0,0,0-.06-.52,2.83,2.83,0,0,0-.13-.5,1.4,1.4,0,0,0-.22-.44,1.1,1.1,0,0,0-.34-.31,1,1,0,0,0-.48-.12.9.9,0,0,0-.48.12.92.92,0,0,0-.34.31,1.66,1.66,0,0,0-.23.44,4.05,4.05,0,0,0-.12.5,4.88,4.88,0,0,0-.06.52C252.5,192.63,252.49,192.79,252.49,192.92Z"/><path d="M256.42,191.14a1.15,1.15,0,0,1,.33-.81,1.05,1.05,0,0,1,.37-.25,1.23,1.23,0,0,1,.44-.08,1.33,1.33,0,0,1,.45.08,1.15,1.15,0,0,1,.37.25,1.16,1.16,0,0,1,0,1.62,1.15,1.15,0,0,1-.37.25,1.33,1.33,0,0,1-.45.08,1.23,1.23,0,0,1-.44-.08,1.05,1.05,0,0,1-.37-.25,1.15,1.15,0,0,1-.33-.81Zm.43,0a.79.79,0,0,0,0,.25,1.14,1.14,0,0,0,.15.23.62.62,0,0,0,.22.17.72.72,0,0,0,.29.06.68.68,0,0,0,.52-.23.79.79,0,0,0,.14-.23.65.65,0,0,0,0-.5.79.79,0,0,0-.14-.23.68.68,0,0,0-.52-.23.72.72,0,0,0-.29.06.62.62,0,0,0-.22.17,1.14,1.14,0,0,0-.15.23A.79.79,0,0,0,256.85,191.14Z"/><path d="M250,81.22h-.67v-4.8h0l-1,.86-.4-.49,1.52-1.23H250Z"/><path d="M251.92,80.45l2.13-2.08c.13-.12.25-.24.35-.35a2.16,2.16,0,0,0,.25-.32,1.09,1.09,0,0,0,.15-.33,1.38,1.38,0,0,0,0-.37,1,1,0,0,0-.08-.4.84.84,0,0,0-.22-.3.78.78,0,0,0-.33-.19,1.05,1.05,0,0,0-.4-.07,1,1,0,0,0-.71.25,1.08,1.08,0,0,0-.36.65l-.73-.06a1.83,1.83,0,0,1,.21-.61,1.41,1.41,0,0,1,.39-.45,2,2,0,0,1,.53-.27,2.25,2.25,0,0,1,.64-.09,2.41,2.41,0,0,1,.67.1,1.92,1.92,0,0,1,.55.29,1.44,1.44,0,0,1,.51,1.15,2,2,0,0,1-.09.61,2,2,0,0,1-.25.5,3.47,3.47,0,0,1-.35.43l-.41.4-1.75,1.64v0h2.89v.62h-3.64Z"/><path d="M256.27,78.39a5.85,5.85,0,0,1,.08-1,3.19,3.19,0,0,1,.29-1,2,2,0,0,1,.59-.7,1.54,1.54,0,0,1,1-.28,1.51,1.51,0,0,1,.95.28,1.91,1.91,0,0,1,.59.7,3.2,3.2,0,0,1,.3,1,6.29,6.29,0,0,1,0,2,3.2,3.2,0,0,1-.3,1,1.91,1.91,0,0,1-.59.7,1.51,1.51,0,0,1-.95.28,1.54,1.54,0,0,1-1-.28,2,2,0,0,1-.59-.7,3.19,3.19,0,0,1-.29-1A5.85,5.85,0,0,1,256.27,78.39Zm.67,0a3.78,3.78,0,0,0,0,.46c0,.17,0,.35.05.52a4.77,4.77,0,0,0,.13.51,1.67,1.67,0,0,0,.23.44,1,1,0,0,0,.34.31,1,1,0,0,0,.48.11,1.06,1.06,0,0,0,.48-.11,1.24,1.24,0,0,0,.34-.31,2,2,0,0,0,.22-.44,3.18,3.18,0,0,0,.13-.51,4.6,4.6,0,0,0,.06-.52c0-.17,0-.32,0-.46s0-.29,0-.46a4.35,4.35,0,0,0-.06-.52,3.18,3.18,0,0,0-.13-.51,2,2,0,0,0-.22-.44,1.24,1.24,0,0,0-.34-.31,1.06,1.06,0,0,0-.48-.11,1,1,0,0,0-.48.11,1,1,0,0,0-.34.31,1.67,1.67,0,0,0-.23.44,4.77,4.77,0,0,0-.13.51c0,.17,0,.34-.05.52A3.78,3.78,0,0,0,256.94,78.39Z"/><path d="M260.87,76.61a1.13,1.13,0,0,1,.09-.45,1,1,0,0,1,.24-.37,1.16,1.16,0,0,1,1.62,0,1.15,1.15,0,0,1,.25.37,1.13,1.13,0,0,1,.09.45,1,1,0,0,1-.09.44,1.15,1.15,0,0,1-.25.37,1.16,1.16,0,0,1-1.62,0,1,1,0,0,1-.24-.37A1,1,0,0,1,260.87,76.61Zm.43,0a.69.69,0,0,0,.05.24.75.75,0,0,0,.15.24.6.6,0,0,0,.22.16.64.64,0,0,0,.58,0,.63.63,0,0,0,.23-.16.72.72,0,0,0,.14-.24.52.52,0,0,0,.05-.24.56.56,0,0,0-.05-.25.59.59,0,0,0-.14-.23.66.66,0,0,0-.23-.17.64.64,0,0,0-.58,0,.62.62,0,0,0-.22.17.61.61,0,0,0-.15.23A.74.74,0,0,0,261.3,76.61Z"/><path d="M40.39,192.45v0a1.42,1.42,0,0,1,.38-.13,1.84,1.84,0,0,1,.39,0,1.72,1.72,0,0,1,.68.13,1.42,1.42,0,0,1,.54.36,1.85,1.85,0,0,1,.36.57,2,2,0,0,1,.13.72,1.78,1.78,0,0,1-.15.74,1.6,1.6,0,0,1-.4.56,2,2,0,0,1-.6.35,2.4,2.4,0,0,1-1.5,0,2,2,0,0,1-.6-.35,1.6,1.6,0,0,1-.4-.56,1.78,1.78,0,0,1-.15-.74,2.24,2.24,0,0,1,.16-.86,5.19,5.19,0,0,1,.38-.74l1.5-2.39h.79Zm.59.43a1.23,1.23,0,0,0-.87.32,1.16,1.16,0,0,0-.26.38,1.31,1.31,0,0,0-.09.5,1.35,1.35,0,0,0,.09.5,1.23,1.23,0,0,0,.26.37,1,1,0,0,0,.39.24,1.32,1.32,0,0,0,1,0,1,1,0,0,0,.39-.24,1.23,1.23,0,0,0,.26-.37,1.35,1.35,0,0,0,.1-.5,1.31,1.31,0,0,0-.1-.5,1.16,1.16,0,0,0-.26-.38,1.23,1.23,0,0,0-.87-.32Z"/><path d="M43.46,192.92a7.07,7.07,0,0,1,.08-1,2.88,2.88,0,0,1,.3-.94,1.94,1.94,0,0,1,.59-.71,1.55,1.55,0,0,1,1-.27,1.6,1.6,0,0,1,1,.27,2,2,0,0,1,.59.71,3.13,3.13,0,0,1,.29.94,7.07,7.07,0,0,1,.08,1,7,7,0,0,1-.08,1,3.1,3.1,0,0,1-.29,1,2,2,0,0,1-.59.71,1.6,1.6,0,0,1-1,.27,1.55,1.55,0,0,1-1-.27,1.94,1.94,0,0,1-.59-.71,2.86,2.86,0,0,1-.3-1A7,7,0,0,1,43.46,192.92Zm.67,0c0,.14,0,.3,0,.47a4.43,4.43,0,0,0,.06.51,2.72,2.72,0,0,0,.13.51,1.51,1.51,0,0,0,.22.44,1.12,1.12,0,0,0,.34.31,1,1,0,0,0,1,0,1.12,1.12,0,0,0,.34-.31,1.83,1.83,0,0,0,.23-.44,3.81,3.81,0,0,0,.12-.51,4.43,4.43,0,0,0,.06-.51c0-.17,0-.33,0-.47s0-.29,0-.46a4.88,4.88,0,0,0-.06-.52,4.05,4.05,0,0,0-.12-.5,1.66,1.66,0,0,0-.23-.44,1,1,0,0,0-.34-.31,1,1,0,0,0-1,0,1,1,0,0,0-.34.31,1.4,1.4,0,0,0-.22.44,2.83,2.83,0,0,0-.13.5,4.88,4.88,0,0,0-.06.52C44.14,192.63,44.13,192.79,44.13,192.92Z"/><path d="M48.06,191.14a1.15,1.15,0,0,1,.33-.81,1.15,1.15,0,0,1,.37-.25,1.33,1.33,0,0,1,.45-.08,1.27,1.27,0,0,1,.44.08,1.15,1.15,0,0,1,.37.25A1.16,1.16,0,0,1,50,192a1.15,1.15,0,0,1-.37.25,1.27,1.27,0,0,1-.44.08,1.33,1.33,0,0,1-.45-.08,1.15,1.15,0,0,1-.37-.25,1.15,1.15,0,0,1-.33-.81Zm.43,0a.61.61,0,0,0,.06.25.79.79,0,0,0,.14.23.72.72,0,0,0,.22.17.73.73,0,0,0,.3.06.72.72,0,0,0,.29-.06.62.62,0,0,0,.22-.17,1.14,1.14,0,0,0,.15-.23.65.65,0,0,0,0-.5,1.14,1.14,0,0,0-.15-.23.62.62,0,0,0-.22-.17.72.72,0,0,0-.29-.06.73.73,0,0,0-.3.06.72.72,0,0,0-.22.17.79.79,0,0,0-.14.23A.61.61,0,0,0,48.49,191.14Z"/><path d="M39.15,81.22h-.67v-4.8h0l-1,.86-.4-.49,1.52-1.23h.58Z"/><path d="M41.07,80.45l2.14-2.08c.13-.12.25-.24.35-.35a2.16,2.16,0,0,0,.25-.32,1.09,1.09,0,0,0,.15-.33A1.38,1.38,0,0,0,44,77a1,1,0,0,0-.08-.4.84.84,0,0,0-.22-.3.78.78,0,0,0-.33-.19A1.05,1.05,0,0,0,43,76a1,1,0,0,0-.72.25,1.19,1.19,0,0,0-.36.65l-.72-.06a1.47,1.47,0,0,1,.21-.61,1.41,1.41,0,0,1,.39-.45,2,2,0,0,1,.53-.27,2.2,2.2,0,0,1,.64-.09,2.41,2.41,0,0,1,.67.1,2.06,2.06,0,0,1,.55.29,1.47,1.47,0,0,1,.37.48,1.6,1.6,0,0,1,.14.67,2,2,0,0,1-.09.61,2.34,2.34,0,0,1-.25.5,3.47,3.47,0,0,1-.35.43l-.41.4-1.75,1.64v0h2.89v.62H41.07Z"/><path d="M45.43,78.39a7,7,0,0,1,.07-1,3.52,3.52,0,0,1,.3-1,2,2,0,0,1,.59-.7,1.77,1.77,0,0,1,1.91,0,1.91,1.91,0,0,1,.59.7,3.52,3.52,0,0,1,.3,1,6.29,6.29,0,0,1,0,2,3.52,3.52,0,0,1-.3,1,1.91,1.91,0,0,1-.59.7,1.77,1.77,0,0,1-1.91,0,2,2,0,0,1-.59-.7,3.52,3.52,0,0,1-.3-1A7,7,0,0,1,45.43,78.39Zm.67,0c0,.14,0,.29,0,.46a4.6,4.6,0,0,0,.06.52,4.77,4.77,0,0,0,.13.51,2,2,0,0,0,.22.44,1.15,1.15,0,0,0,.35.31,1,1,0,0,0,.48.11,1.06,1.06,0,0,0,.48-.11,1.24,1.24,0,0,0,.34-.31,2,2,0,0,0,.22-.44,3.18,3.18,0,0,0,.13-.51,4.6,4.6,0,0,0,.06-.52c0-.17,0-.32,0-.46s0-.29,0-.46a4.35,4.35,0,0,0-.06-.52,3.18,3.18,0,0,0-.13-.51,2,2,0,0,0-.22-.44,1.24,1.24,0,0,0-.34-.31,1.06,1.06,0,0,0-.48-.11,1,1,0,0,0-.48.11,1.15,1.15,0,0,0-.35.31,2,2,0,0,0-.22.44,4.77,4.77,0,0,0-.13.51,4.35,4.35,0,0,0-.06.52C46.1,78.1,46.1,78.25,46.1,78.39Z"/><path d="M50,76.61a1.12,1.12,0,0,1,.08-.45,1.15,1.15,0,0,1,.25-.37,1.16,1.16,0,0,1,1.62,0,1.15,1.15,0,0,1,.25.37,1.33,1.33,0,0,1,.08.45,1.23,1.23,0,0,1-.08.44,1.15,1.15,0,0,1-.25.37,1.16,1.16,0,0,1-1.62,0,1.15,1.15,0,0,1-.25-.37A1,1,0,0,1,50,76.61Zm.43,0a.52.52,0,0,0,0,.24.72.72,0,0,0,.14.24.63.63,0,0,0,.23.16.64.64,0,0,0,.58,0,.73.73,0,0,0,.23-.16,1,1,0,0,0,.14-.24.69.69,0,0,0,.05-.24.75.75,0,0,0-.19-.48.76.76,0,0,0-.23-.17.64.64,0,0,0-.58,0,.66.66,0,0,0-.23.17.59.59,0,0,0-.14.23A.56.56,0,0,0,50.46,76.61Z"/></g><g id="numeri_fondo_tabella" data-name="numeri fondo tabella"><path d="M131.83,251.42a1.17,1.17,0,0,0-.43-.35,1.19,1.19,0,0,0-.51-.11,1.35,1.35,0,0,0-.55.11,1.08,1.08,0,0,0-.4.3,1.32,1.32,0,0,0-.23.44,1.76,1.76,0,0,0,0,1.08,1.43,1.43,0,0,0,.26.45,1.31,1.31,0,0,0,.39.3,1.27,1.27,0,0,0,.52.1,1.09,1.09,0,0,0,1-.46l.47.44a1.69,1.69,0,0,1-.64.46,2.29,2.29,0,0,1-.78.14,2.22,2.22,0,0,1-.79-.14,1.75,1.75,0,0,1-1-1,2.27,2.27,0,0,1,0-1.57,1.86,1.86,0,0,1,.39-.63,2,2,0,0,1,.61-.41,2,2,0,0,1,.79-.15,2.09,2.09,0,0,1,.79.15,1.59,1.59,0,0,1,.65.45Z"/><path d="M136.21,253.56h0a1.43,1.43,0,0,1-.55.54,1.7,1.7,0,0,1-.89.22,1.8,1.8,0,0,1-.73-.15,1.78,1.78,0,0,1-.6-.41,1.81,1.81,0,0,1-.39-.62,2.06,2.06,0,0,1-.15-.79,2,2,0,0,1,.15-.78,1.88,1.88,0,0,1,.4-.63,1.81,1.81,0,0,1,.62-.41,2.07,2.07,0,0,1,.8-.15,1.72,1.72,0,0,1,.75.17,1.78,1.78,0,0,1,.59.47h0v-2.84h.62v6h-.62Zm0-1.21a1.63,1.63,0,0,0-.09-.55,1.34,1.34,0,0,0-.27-.44,1.37,1.37,0,0,0-.42-.29,1.35,1.35,0,0,0-.55-.11,1.42,1.42,0,0,0-.55.11,1.22,1.22,0,0,0-.41.29,1.34,1.34,0,0,0-.27.44,1.56,1.56,0,0,0,0,1.1,1.25,1.25,0,0,0,.27.44,1.19,1.19,0,0,0,1,.4,1.35,1.35,0,0,0,.55-.1,1.6,1.6,0,0,0,.42-.3,1.25,1.25,0,0,0,.27-.44A1.63,1.63,0,0,0,136.21,252.35Z"/><path d="M140.1,254.57l-.5-.2,2.4-6.15.51.2Z"/><path d="M147.64,254.22H147v-4.8h0l-1,.86-.4-.49,1.52-1.23h.59Z"/><path d="M149.46,251.39a7.07,7.07,0,0,1,.08-1,3.19,3.19,0,0,1,.29-.95,2,2,0,0,1,.59-.7,1.61,1.61,0,0,1,1-.28,1.55,1.55,0,0,1,1,.28,1.91,1.91,0,0,1,.59.7,2.94,2.94,0,0,1,.3.95,6.29,6.29,0,0,1,0,2,2.94,2.94,0,0,1-.3,1,1.91,1.91,0,0,1-.59.7,1.49,1.49,0,0,1-1,.28,1.54,1.54,0,0,1-1-.28,2,2,0,0,1-.59-.7,3.19,3.19,0,0,1-.29-1A7.07,7.07,0,0,1,149.46,251.39Zm.67,0c0,.14,0,.29,0,.47a4.43,4.43,0,0,0,.06.51,4.7,4.7,0,0,0,.12.51,2,2,0,0,0,.23.44,1.12,1.12,0,0,0,.34.31,1.1,1.1,0,0,0,1,0,1.12,1.12,0,0,0,.34-.31,1.65,1.65,0,0,0,.22-.44,3.18,3.18,0,0,0,.13-.51,4.43,4.43,0,0,0,.06-.51c0-.18,0-.33,0-.47s0-.29,0-.46a4.6,4.6,0,0,0-.06-.52,3.18,3.18,0,0,0-.13-.51,1.65,1.65,0,0,0-.22-.44,1.08,1.08,0,0,0-.34-.3,1,1,0,0,0-1,0,1.08,1.08,0,0,0-.34.3,2,2,0,0,0-.23.44,4.7,4.7,0,0,0-.12.51,4.6,4.6,0,0,0-.06.52C150.14,251.1,150.13,251.25,150.13,251.39Z"/><path d="M153.91,251.39a5.85,5.85,0,0,1,.08-1,3.19,3.19,0,0,1,.29-.95,2,2,0,0,1,.59-.7,1.61,1.61,0,0,1,1-.28,1.55,1.55,0,0,1,.95.28,1.91,1.91,0,0,1,.59.7,3.2,3.2,0,0,1,.3.95,6.29,6.29,0,0,1,0,2,3.2,3.2,0,0,1-.3,1,1.91,1.91,0,0,1-.59.7,1.49,1.49,0,0,1-.95.28,1.54,1.54,0,0,1-1-.28,2,2,0,0,1-.59-.7,3.19,3.19,0,0,1-.29-1A5.85,5.85,0,0,1,153.91,251.39Zm.67,0a4,4,0,0,0,0,.47,4.43,4.43,0,0,0,.06.51,3.14,3.14,0,0,0,.12.51,1.67,1.67,0,0,0,.23.44,1,1,0,0,0,.34.31.9.9,0,0,0,.48.11,1,1,0,0,0,.48-.11,1.24,1.24,0,0,0,.34-.31,1.65,1.65,0,0,0,.22-.44,3.18,3.18,0,0,0,.13-.51,4.43,4.43,0,0,0,.06-.51c0-.18,0-.33,0-.47s0-.29,0-.46a4.6,4.6,0,0,0-.06-.52,3.18,3.18,0,0,0-.13-.51,1.65,1.65,0,0,0-.22-.44,1.21,1.21,0,0,0-.34-.3,1,1,0,0,0-.48-.12.9.9,0,0,0-.48.12,1,1,0,0,0-.34.3,1.67,1.67,0,0,0-.23.44,3.14,3.14,0,0,0-.12.51,4.6,4.6,0,0,0-.06.52A3.78,3.78,0,0,0,154.58,251.39Z"/><path d="M158.31,251.39a5.85,5.85,0,0,1,.08-1,3.19,3.19,0,0,1,.29-.95,2,2,0,0,1,.59-.7,1.61,1.61,0,0,1,1-.28,1.55,1.55,0,0,1,1,.28,1.91,1.91,0,0,1,.59.7,3.2,3.2,0,0,1,.3.95,6.29,6.29,0,0,1,0,2,3.2,3.2,0,0,1-.3,1,1.91,1.91,0,0,1-.59.7,1.49,1.49,0,0,1-1,.28,1.54,1.54,0,0,1-1-.28,2,2,0,0,1-.59-.7,3.19,3.19,0,0,1-.29-1A5.85,5.85,0,0,1,158.31,251.39Zm.67,0c0,.14,0,.29,0,.47a4.43,4.43,0,0,0,.06.51,3.14,3.14,0,0,0,.12.51,1.67,1.67,0,0,0,.23.44,1,1,0,0,0,.34.31.9.9,0,0,0,.48.11,1,1,0,0,0,.48-.11,1.24,1.24,0,0,0,.34-.31,1.65,1.65,0,0,0,.22-.44,3.18,3.18,0,0,0,.13-.51,4.43,4.43,0,0,0,.06-.51c0-.18,0-.33,0-.47s0-.29,0-.46a4.6,4.6,0,0,0-.06-.52,3.18,3.18,0,0,0-.13-.51,1.65,1.65,0,0,0-.22-.44,1.21,1.21,0,0,0-.34-.3,1,1,0,0,0-.48-.12.9.9,0,0,0-.48.12,1,1,0,0,0-.34.3,1.67,1.67,0,0,0-.23.44,3.14,3.14,0,0,0-.12.51,4.6,4.6,0,0,0-.06.52C159,251.1,159,251.25,159,251.39Z"/><path d="M165.32,248.18H166v6h-.63Z"/><path d="M167.19,251.37c0-.17,0-.33,0-.48s0-.29,0-.41h.59c0,.1,0,.2,0,.3v.32h0a.91.91,0,0,1,.18-.27,1.64,1.64,0,0,1,.28-.23,1.5,1.5,0,0,1,.36-.16,1.44,1.44,0,0,1,.43-.06,1.52,1.52,0,0,1,.51.08,1.36,1.36,0,0,1,.34.18.93.93,0,0,1,.21.24,1.64,1.64,0,0,1,.12.22,1.78,1.78,0,0,1,.48-.53,1.27,1.27,0,0,1,.71-.19,1.88,1.88,0,0,1,.67.11,1.1,1.1,0,0,1,.44.31,1.37,1.37,0,0,1,.24.5,2.59,2.59,0,0,1,.07.65v2.27h-.62V252a2.33,2.33,0,0,0,0-.37,1,1,0,0,0-.15-.33.71.71,0,0,0-.28-.23,1,1,0,0,0-.45-.09,1,1,0,0,0-.37.08,1,1,0,0,0-.31.22,1.13,1.13,0,0,0-.21.35,1.33,1.33,0,0,0-.07.45v2.16h-.63V252.1a1.62,1.62,0,0,0-.17-.88A.6.6,0,0,0,169,251a1.18,1.18,0,0,0-.52.1.88.88,0,0,0-.36.3,1.14,1.14,0,0,0-.21.46,2.1,2.1,0,0,0-.07.58v1.82h-.62Z"/><line class="cls-1" x1="38.21" y1="253" x2="46.2" y2="253"/><path d="M235.17,251a1.66,1.66,0,0,0-.63-.52,1.93,1.93,0,0,0-.79-.17,2.13,2.13,0,0,0-.87.19,2.16,2.16,0,0,0-.68.52,2.58,2.58,0,0,0-.45.75,2.69,2.69,0,0,0-.16.89,2.79,2.79,0,0,0,.16.93,2.41,2.41,0,0,0,.45.74,2,2,0,0,0,.68.5,1.92,1.92,0,0,0,.87.19,2,2,0,0,0,1.64-.8l.51.43a2.38,2.38,0,0,1-.93.75,3,3,0,0,1-1.22.24,2.85,2.85,0,0,1-1.13-.22,2.82,2.82,0,0,1-.92-.62,3,3,0,0,1-.61-.94,3.33,3.33,0,0,1-.22-1.2,3.19,3.19,0,0,1,.21-1.16,2.9,2.9,0,0,1,.6-1,3.08,3.08,0,0,1,.91-.63,3,3,0,0,1,2.27,0,2,2,0,0,1,.89.68Z"/><path d="M239,253.1l0,0a1.35,1.35,0,0,1-.37.13,2.87,2.87,0,0,1-.39,0,1.68,1.68,0,0,1-.68-.13,1.5,1.5,0,0,1-.55-.36,1.92,1.92,0,0,1-.36-.56,2.11,2.11,0,0,1-.12-.73,1.75,1.75,0,0,1,.14-.74,1.63,1.63,0,0,1,.4-.56,1.79,1.79,0,0,1,.6-.35,2.36,2.36,0,0,1,.75-.12,2.27,2.27,0,0,1,.75.12,1.94,1.94,0,0,1,.61.35,1.49,1.49,0,0,1,.39.56,1.75,1.75,0,0,1,.15.74,2.19,2.19,0,0,1,0,.46c0,.14-.07.27-.11.4a2.53,2.53,0,0,1-.18.37,3.35,3.35,0,0,1-.21.36l-1.5,2.4h-.79Zm-.6-.43a1.51,1.51,0,0,0,.48-.08,1.28,1.28,0,0,0,.39-.24,1.12,1.12,0,0,0,.26-.38,1.27,1.27,0,0,0,.1-.5,1.26,1.26,0,0,0-.1-.49,1,1,0,0,0-.26-.38,1,1,0,0,0-.39-.24,1.33,1.33,0,0,0-1,0,.88.88,0,0,0-.38.24,1.19,1.19,0,0,0-.27.38,1.26,1.26,0,0,0-.09.49,1.28,1.28,0,0,0,.09.5,1.31,1.31,0,0,0,.27.38,1.12,1.12,0,0,0,.38.24A1.51,1.51,0,0,0,238.35,252.67Z"/><path d="M240.88,252.62a7.07,7.07,0,0,1,.08-1,2.88,2.88,0,0,1,.3-.94,2,2,0,0,1,.58-.71,1.84,1.84,0,0,1,1.92,0,2,2,0,0,1,.58.71,2.88,2.88,0,0,1,.3.94,7.07,7.07,0,0,1,.08,1,7,7,0,0,1-.08,1,2.86,2.86,0,0,1-.3.95,2,2,0,0,1-.58.71,1.84,1.84,0,0,1-1.92,0,2,2,0,0,1-.58-.71,2.86,2.86,0,0,1-.3-.95A7,7,0,0,1,240.88,252.62Zm.67,0c0,.14,0,.3,0,.47a4.43,4.43,0,0,0,.06.51,2.72,2.72,0,0,0,.13.51,1.51,1.51,0,0,0,.22.44,1.12,1.12,0,0,0,.34.31,1,1,0,0,0,1,0,1.12,1.12,0,0,0,.34-.31,1.51,1.51,0,0,0,.22-.44,2.72,2.72,0,0,0,.13-.51,4.43,4.43,0,0,0,.06-.51c0-.17,0-.33,0-.47s0-.29,0-.46a4.88,4.88,0,0,0-.06-.52,2.83,2.83,0,0,0-.13-.5,1.4,1.4,0,0,0-.22-.44,1.12,1.12,0,0,0-.34-.31,1,1,0,0,0-1,0,1.12,1.12,0,0,0-.34.31,1.4,1.4,0,0,0-.22.44,2.83,2.83,0,0,0-.13.5,4.88,4.88,0,0,0-.06.52C241.56,252.33,241.55,252.49,241.55,252.62Z"/><path d="M247.78,255.8l-.51-.2,2.41-6.14.5.19Z"/><path d="M257.1,251a1.66,1.66,0,0,0-.63-.52,1.92,1.92,0,0,0-.78-.17,2.06,2.06,0,0,0-.87.19,2.16,2.16,0,0,0-.68.52,2.21,2.21,0,0,0-.45.75,2.46,2.46,0,0,0-.16.89,2.56,2.56,0,0,0,.16.93,2.2,2.2,0,0,0,.44.74,2.1,2.1,0,0,0,.68.5,2,2,0,0,0,.88.19,2,2,0,0,0,.93-.21,2,2,0,0,0,.71-.59l.5.43a2.29,2.29,0,0,1-.92.75,3,3,0,0,1-1.22.24,2.8,2.8,0,0,1-2.05-.84,2.82,2.82,0,0,1-.61-.94,3.13,3.13,0,0,1-.22-1.2,3.19,3.19,0,0,1,.21-1.16,2.75,2.75,0,0,1,.6-1,3,3,0,0,1,.91-.63,2.93,2.93,0,0,1,1.16-.23,3,3,0,0,1,1.11.21,2,2,0,0,1,.89.68Z"/><path d="M258.46,254.69l2.14-2.08.35-.36a1.75,1.75,0,0,0,.25-.32,1,1,0,0,0,.15-.32,1.46,1.46,0,0,0,0-.38,1,1,0,0,0-.08-.4.93.93,0,0,0-.22-.3,1.13,1.13,0,0,0-.73-.26,1,1,0,0,0-.71.25,1.11,1.11,0,0,0-.36.66l-.73-.07a1.91,1.91,0,0,1,.21-.61,1.28,1.28,0,0,1,.39-.44,1.77,1.77,0,0,1,.53-.27,2.25,2.25,0,0,1,.64-.09,2.09,2.09,0,0,1,.67.1,1.53,1.53,0,0,1,.55.29,1.47,1.47,0,0,1,.37.48,1.39,1.39,0,0,1,.14.66,1.91,1.91,0,0,1-.09.61,1.8,1.8,0,0,1-.25.5,2.86,2.86,0,0,1-.35.43l-.41.41-1.75,1.64h2.89v.63h-3.65Z"/><path d="M266.35,250.42l-2.26,5h-.76l2.3-5H262.9v-.63h3.45Z"/><path d="M267.26,252.62a7.07,7.07,0,0,1,.08-1,3.45,3.45,0,0,1,.3-.94,2,2,0,0,1,.59-.71,1.82,1.82,0,0,1,1.91,0,2,2,0,0,1,.59.71,3.45,3.45,0,0,1,.3.94,7,7,0,0,1,.07,1,6.92,6.92,0,0,1-.07,1,3.41,3.41,0,0,1-.3.95,2,2,0,0,1-.59.71,1.82,1.82,0,0,1-1.91,0,2,2,0,0,1-.59-.71,3.41,3.41,0,0,1-.3-.95A7,7,0,0,1,267.26,252.62Zm.68,0c0,.14,0,.3,0,.47a4.43,4.43,0,0,0,.06.51,2.72,2.72,0,0,0,.13.51,1.53,1.53,0,0,0,.23.44,1,1,0,0,0,.34.31.89.89,0,0,0,.47.12,1,1,0,0,0,.49-.12,1.08,1.08,0,0,0,.33-.31,1.53,1.53,0,0,0,.23-.44,2.72,2.72,0,0,0,.13-.51,4.43,4.43,0,0,0,.06-.51c0-.17,0-.33,0-.47s0-.29,0-.46a4.88,4.88,0,0,0-.06-.52,2.83,2.83,0,0,0-.13-.5,1.41,1.41,0,0,0-.23-.44,1.08,1.08,0,0,0-.33-.31,1,1,0,0,0-.49-.12.89.89,0,0,0-.47.12,1,1,0,0,0-.34.31,1.41,1.41,0,0,0-.23.44,2.83,2.83,0,0,0-.13.5,4.88,4.88,0,0,0-.06.52C267.94,252.33,267.94,252.49,267.94,252.62Z"/><path d="M52.87,251a1.55,1.55,0,0,0-.63-.51,1.82,1.82,0,0,0-.79-.18,2,2,0,0,0-.87.2,2.13,2.13,0,0,0-.68.51,2.58,2.58,0,0,0-.45.75,2.67,2.67,0,0,0,0,1.82,2.29,2.29,0,0,0,.45.74,1.88,1.88,0,0,0,.68.5,1.92,1.92,0,0,0,.87.19,2,2,0,0,0,.93-.21,2.07,2.07,0,0,0,.71-.58l.51.42a2.38,2.38,0,0,1-.93.75,3,3,0,0,1-1.22.24,2.85,2.85,0,0,1-1.13-.22,2.82,2.82,0,0,1-.92-.62,3,3,0,0,1-.61-.94,3.27,3.27,0,0,1-.22-1.19,3.2,3.2,0,0,1,.21-1.17,3,3,0,0,1,.6-.95,3.08,3.08,0,0,1,.91-.63,3,3,0,0,1,2.27,0,2,2,0,0,1,.89.68Z"/><path d="M54.13,252.62a7,7,0,0,1,.08-1,3.11,3.11,0,0,1,.3-1,1.94,1.94,0,0,1,.59-.71,1.55,1.55,0,0,1,.95-.27,1.6,1.6,0,0,1,1,.27,2,2,0,0,1,.59.71,3.1,3.1,0,0,1,.29,1,5.77,5.77,0,0,1,.08,1,5.85,5.85,0,0,1-.08,1,3.13,3.13,0,0,1-.29.94,2,2,0,0,1-.59.71,1.6,1.6,0,0,1-1,.27,1.55,1.55,0,0,1-.95-.27,1.94,1.94,0,0,1-.59-.71,3.14,3.14,0,0,1-.3-.94A7.07,7.07,0,0,1,54.13,252.62Zm.67,0c0,.13,0,.29,0,.46a4.88,4.88,0,0,0,.06.52,2.83,2.83,0,0,0,.13.5,1.4,1.4,0,0,0,.22.44,1.1,1.1,0,0,0,.34.31,1,1,0,0,0,.48.12.9.9,0,0,0,.48-.12.92.92,0,0,0,.34-.31,1.41,1.41,0,0,0,.23-.44,2.8,2.8,0,0,0,.12-.5,4.88,4.88,0,0,0,.06-.52,3.86,3.86,0,0,0,0-.46,3.94,3.94,0,0,0,0-.47,4.43,4.43,0,0,0-.06-.51,2.71,2.71,0,0,0-.12-.51,1.53,1.53,0,0,0-.23-.44,1,1,0,0,0-.34-.31.9.9,0,0,0-.48-.12,1,1,0,0,0-.48.12,1.24,1.24,0,0,0-.34.31,1.51,1.51,0,0,0-.22.44,2.72,2.72,0,0,0-.13.51,4.43,4.43,0,0,0-.06.51C54.81,252.32,54.8,252.48,54.8,252.62Z"/><path d="M61,255.79l-.51-.2,2.41-6.14.51.19Z"/><path d="M70.36,251a1.52,1.52,0,0,0-.64-.51,1.78,1.78,0,0,0-.78-.18,2,2,0,0,0-.87.2,2.13,2.13,0,0,0-.68.51,2.58,2.58,0,0,0-.45.75,2.51,2.51,0,0,0-.16.9,2.54,2.54,0,0,0,.16.92,2.46,2.46,0,0,0,.44.74,2.09,2.09,0,0,0,1.56.69,2,2,0,0,0,.93-.21,2.07,2.07,0,0,0,.71-.58l.5.42a2.29,2.29,0,0,1-.92.75,3,3,0,0,1-1.22.24,2.93,2.93,0,0,1-1.14-.22,2.88,2.88,0,0,1-.91-.62,3,3,0,0,1-.61-.94,3.07,3.07,0,0,1-.22-1.19,3.2,3.2,0,0,1,.21-1.17,2.84,2.84,0,0,1,.6-.95,3,3,0,0,1,.91-.63,2.93,2.93,0,0,1,1.16-.23,3,3,0,0,1,1.11.21,2,2,0,0,1,.89.68Z"/><path d="M74.2,255.45h-.68v-4.8h0l-1,.85-.4-.48,1.52-1.24h.59Z"/><path d="M76.37,251.17a1.33,1.33,0,0,1,.13-.61,1.2,1.2,0,0,1,.34-.46,1.44,1.44,0,0,1,.51-.3,1.92,1.92,0,0,1,1.28,0,1.44,1.44,0,0,1,.51.3,1.32,1.32,0,0,1,.34.46,1.48,1.48,0,0,1,.12.61,1.44,1.44,0,0,1-.06.4,1.41,1.41,0,0,1-.18.37,1.18,1.18,0,0,1-.3.29,1,1,0,0,1-.38.19h0a1.44,1.44,0,0,1,.46.19,1.35,1.35,0,0,1,.35.32,1.67,1.67,0,0,1,.23.44,1.7,1.7,0,0,1,.08.51,1.74,1.74,0,0,1-.14.69,1.46,1.46,0,0,1-.39.52,1.47,1.47,0,0,1-.57.33,2.35,2.35,0,0,1-1.42,0,1.59,1.59,0,0,1-.58-.33,1.43,1.43,0,0,1-.38-.52,1.74,1.74,0,0,1-.14-.69,1.7,1.7,0,0,1,.08-.51,1.65,1.65,0,0,1,.22-.44,1.59,1.59,0,0,1,.36-.32,1.44,1.44,0,0,1,.46-.19h0a1.18,1.18,0,0,1-.39-.19,1.33,1.33,0,0,1-.29-.29,1.41,1.41,0,0,1-.18-.37A1.16,1.16,0,0,1,76.37,251.17Zm.48,2.67a1.14,1.14,0,0,0,.09.46,1.21,1.21,0,0,0,.24.35,1.16,1.16,0,0,0,.36.23A1.13,1.13,0,0,0,78,255a1,1,0,0,0,.44-.09,1,1,0,0,0,.36-.23,1.07,1.07,0,0,0,.25-.35,1.36,1.36,0,0,0,0-.92,1.07,1.07,0,0,0-.25-.35,1,1,0,0,0-.36-.23,1,1,0,0,0-.44-.09,1.13,1.13,0,0,0-.45.09,1.16,1.16,0,0,0-.36.23,1.21,1.21,0,0,0-.24.35A1.14,1.14,0,0,0,76.85,253.84ZM77,251.2a.92.92,0,0,0,.26.67.93.93,0,0,0,.69.27.9.9,0,0,0,.68-.27,1,1,0,0,0,0-1.34.9.9,0,0,0-.68-.27.93.93,0,0,0-.69.27A.92.92,0,0,0,77,251.2Z"/><path d="M80.52,252.62a5.77,5.77,0,0,1,.08-1,3.1,3.1,0,0,1,.29-1,2,2,0,0,1,.59-.71,1.6,1.6,0,0,1,1-.27,1.55,1.55,0,0,1,1,.27,1.94,1.94,0,0,1,.59.71,3.41,3.41,0,0,1,.3,1,7,7,0,0,1,.08,1,7.07,7.07,0,0,1-.08,1,3.45,3.45,0,0,1-.3.94,1.94,1.94,0,0,1-.59.71,1.55,1.55,0,0,1-1,.27,1.6,1.6,0,0,1-1-.27,2,2,0,0,1-.59-.71,3.13,3.13,0,0,1-.29-.94A5.85,5.85,0,0,1,80.52,252.62Zm.67,0a3.86,3.86,0,0,0,0,.46c0,.17,0,.34.05.52a4.07,4.07,0,0,0,.13.5,1.41,1.41,0,0,0,.23.44.92.92,0,0,0,.34.31.9.9,0,0,0,.48.12,1,1,0,0,0,.48-.12,1.1,1.1,0,0,0,.34-.31,1.65,1.65,0,0,0,.22-.44,2.83,2.83,0,0,0,.13-.5,4.88,4.88,0,0,0,.06-.52c0-.17,0-.33,0-.46s0-.3,0-.47a4.43,4.43,0,0,0-.06-.51,2.72,2.72,0,0,0-.13-.51,1.81,1.81,0,0,0-.22-.44,1.24,1.24,0,0,0-.34-.31,1,1,0,0,0-.48-.12.9.9,0,0,0-.48.12,1,1,0,0,0-.34.31,1.53,1.53,0,0,0-.23.44,3.8,3.8,0,0,0-.13.51c0,.17,0,.34-.05.51A3.94,3.94,0,0,0,81.19,252.62Z"/><line class="cls-2" x1="214.49" y1="253.42" x2="215.03" y2="253.42"/><line class="cls-2" x1="217.76" y1="253.42" x2="218.3" y2="253.42"/><line class="cls-2" x1="221.02" y1="253.42" x2="221.56" y2="253.42"/><line class="cls-2" x1="224.29" y1="253.42" x2="224.83" y2="253.42"/><line class="cls-2" x1="227.55" y1="253.42" x2="228.09" y2="253.42"/></g><g id="Romeo_Babe_W_F6260000A"><path d="M54.34,13h4.39v.78H55.19v2.34h3.29v.78H55.19V20.1h-.85Z"/><path d="M61.06,16l0,0a2,2,0,0,1,.47-.16,3,3,0,0,1,.48-.05,2.39,2.39,0,0,1,.86.16,2,2,0,0,1,.68.46,2.21,2.21,0,0,1,.45.7,2.66,2.66,0,0,1,.15.9,2.45,2.45,0,0,1-.17.93,2,2,0,0,1-.5.7,2.3,2.3,0,0,1-.76.44,3,3,0,0,1-1.87,0,2.3,2.3,0,0,1-.76-.44,2,2,0,0,1-.5-.7,2.45,2.45,0,0,1-.17-.93,3,3,0,0,1,.18-1.07A7.39,7.39,0,0,1,60.1,16L62,13h1Zm.74.53a1.63,1.63,0,0,0-.59.11,1.44,1.44,0,0,0-.49.3,1.4,1.4,0,0,0-.32.47,1.44,1.44,0,0,0-.13.62,1.55,1.55,0,0,0,.45,1.1,1.44,1.44,0,0,0,.49.3,1.63,1.63,0,0,0,.59.1,1.64,1.64,0,0,0,.6-.1,1.44,1.44,0,0,0,.49-.3,1.4,1.4,0,0,0,.32-.47,1.54,1.54,0,0,0,.12-.63,1.59,1.59,0,0,0-.12-.62,1.4,1.4,0,0,0-.32-.47,1.44,1.44,0,0,0-.49-.3A1.64,1.64,0,0,0,61.8,16.5Z"/><path d="M65.08,19.14l2.67-2.6a6.07,6.07,0,0,0,.44-.44,2.66,2.66,0,0,0,.32-.4,1.65,1.65,0,0,0,.18-.41,1.68,1.68,0,0,0,.06-.47,1.18,1.18,0,0,0-.1-.5,1,1,0,0,0-.27-.37,1.38,1.38,0,0,0-.41-.24,1.4,1.4,0,0,0-.51-.09,1.29,1.29,0,0,0-.88.31,1.43,1.43,0,0,0-.46.82l-.91-.08a2.29,2.29,0,0,1,.27-.76,1.89,1.89,0,0,1,.49-.56,2.55,2.55,0,0,1,.66-.33,2.64,2.64,0,0,1,.81-.12,2.88,2.88,0,0,1,.83.13,2.11,2.11,0,0,1,.68.36,1.74,1.74,0,0,1,.47.6,1.84,1.84,0,0,1,.17.83,2.25,2.25,0,0,1-.11.76,2.64,2.64,0,0,1-.31.63,4.51,4.51,0,0,1-.44.54,6.2,6.2,0,0,1-.52.5L66,19.3v0h3.61v.78H65.08Z"/><path d="M72.19,16l0,0a1.77,1.77,0,0,1,.46-.16,3,3,0,0,1,.48-.05,2.39,2.39,0,0,1,.86.16,2,2,0,0,1,.68.46,2.21,2.21,0,0,1,.45.7,2.66,2.66,0,0,1,.15.9,2.45,2.45,0,0,1-.17.93,2,2,0,0,1-.5.7,2.3,2.3,0,0,1-.76.44,3,3,0,0,1-1.87,0,2.3,2.3,0,0,1-.76-.44,2,2,0,0,1-.5-.7,2.45,2.45,0,0,1-.17-.93,2.76,2.76,0,0,1,.19-1.07,5.42,5.42,0,0,1,.48-.92l1.87-3h1Zm.73.53a1.63,1.63,0,0,0-.59.11,1.44,1.44,0,0,0-.49.3,1.4,1.4,0,0,0-.32.47,1.59,1.59,0,0,0-.12.62,1.54,1.54,0,0,0,.12.63,1.4,1.4,0,0,0,.32.47,1.44,1.44,0,0,0,.49.3,1.63,1.63,0,0,0,.59.1,1.64,1.64,0,0,0,.6-.1,1.44,1.44,0,0,0,.49-.3,1.55,1.55,0,0,0,.45-1.1,1.44,1.44,0,0,0-.13-.62,1.4,1.4,0,0,0-.32-.47,1.44,1.44,0,0,0-.49-.3A1.64,1.64,0,0,0,72.92,16.5Z"/><path d="M76.08,16.56a7.93,7.93,0,0,1,.11-1.25,3.79,3.79,0,0,1,.37-1.18,2.32,2.32,0,0,1,.73-.88,2.22,2.22,0,0,1,2.39,0,2.54,2.54,0,0,1,.74.88,4.07,4.07,0,0,1,.37,1.18,9.26,9.26,0,0,1,.1,1.25,9.14,9.14,0,0,1-.1,1.25A4,4,0,0,1,80.42,19a2.54,2.54,0,0,1-.74.88,2.27,2.27,0,0,1-2.39,0,2.32,2.32,0,0,1-.73-.88,3.77,3.77,0,0,1-.37-1.19A7.83,7.83,0,0,1,76.08,16.56Zm.85,0c0,.18,0,.37,0,.58a4.78,4.78,0,0,0,.07.65,4.15,4.15,0,0,0,.16.63,1.9,1.9,0,0,0,.28.55,1.45,1.45,0,0,0,.43.39,1.1,1.1,0,0,0,.59.14,1.11,1.11,0,0,0,.6-.14,1.45,1.45,0,0,0,.43-.39,1.9,1.9,0,0,0,.28-.55,4.15,4.15,0,0,0,.16-.63,4.78,4.78,0,0,0,.07-.65c0-.21,0-.4,0-.58s0-.36,0-.58a4.81,4.81,0,0,0-.07-.64,4.61,4.61,0,0,0-.16-.64,2,2,0,0,0-.28-.55,1.42,1.42,0,0,0-.43-.38,1.11,1.11,0,0,0-.6-.15,1.1,1.1,0,0,0-.59.15,1.42,1.42,0,0,0-.43.38,2,2,0,0,0-.28.55,4.61,4.61,0,0,0-.16.64A4.81,4.81,0,0,0,77,16C76.93,16.2,76.93,16.39,76.93,16.56Z"/><path d="M81.64,16.56a9.26,9.26,0,0,1,.1-1.25,4.07,4.07,0,0,1,.37-1.18,2.44,2.44,0,0,1,.74-.88,2.22,2.22,0,0,1,2.39,0,2.41,2.41,0,0,1,.73.88,3.79,3.79,0,0,1,.37,1.18,7.88,7.88,0,0,1,.1,1.25,7.79,7.79,0,0,1-.1,1.25A3.77,3.77,0,0,1,86,19a2.41,2.41,0,0,1-.73.88,2.27,2.27,0,0,1-2.39,0,2.44,2.44,0,0,1-.74-.88,4,4,0,0,1-.37-1.19A9.14,9.14,0,0,1,81.64,16.56Zm.84,0c0,.18,0,.37,0,.58s0,.43.08.65a4.15,4.15,0,0,0,.16.63A1.9,1.9,0,0,0,83,19a1.55,1.55,0,0,0,.42.39,1.16,1.16,0,0,0,.6.14,1.11,1.11,0,0,0,.6-.14,1.45,1.45,0,0,0,.43-.39,1.9,1.9,0,0,0,.28-.55,4.15,4.15,0,0,0,.16-.63,4.78,4.78,0,0,0,.07-.65c0-.21,0-.4,0-.58s0-.36,0-.58a4.81,4.81,0,0,0-.07-.64,4.61,4.61,0,0,0-.16-.64,2,2,0,0,0-.28-.55,1.42,1.42,0,0,0-.43-.38,1.11,1.11,0,0,0-.6-.15,1.16,1.16,0,0,0-.6.15,1.51,1.51,0,0,0-.42.38,2,2,0,0,0-.28.55,4.61,4.61,0,0,0-.16.64c0,.22-.06.43-.08.64S82.48,16.39,82.48,16.56Z"/><path d="M87.2,16.56a9.26,9.26,0,0,1,.1-1.25,4.07,4.07,0,0,1,.37-1.18,2.44,2.44,0,0,1,.74-.88,2.22,2.22,0,0,1,2.39,0,2.41,2.41,0,0,1,.73.88,3.79,3.79,0,0,1,.37,1.18,7.88,7.88,0,0,1,.1,1.25,7.79,7.79,0,0,1-.1,1.25A3.77,3.77,0,0,1,91.53,19a2.41,2.41,0,0,1-.73.88,2.27,2.27,0,0,1-2.39,0,2.44,2.44,0,0,1-.74-.88,4,4,0,0,1-.37-1.19A9.14,9.14,0,0,1,87.2,16.56Zm.84,0c0,.18,0,.37,0,.58s0,.43.08.65a4.15,4.15,0,0,0,.16.63,1.9,1.9,0,0,0,.28.55,1.55,1.55,0,0,0,.42.39,1.16,1.16,0,0,0,.6.14,1.11,1.11,0,0,0,.6-.14,1.45,1.45,0,0,0,.43-.39,1.9,1.9,0,0,0,.28-.55,4.15,4.15,0,0,0,.16-.63,4.78,4.78,0,0,0,.07-.65c0-.21,0-.4,0-.58s0-.36,0-.58a4.81,4.81,0,0,0-.07-.64,4.61,4.61,0,0,0-.16-.64,2,2,0,0,0-.28-.55,1.42,1.42,0,0,0-.43-.38,1.11,1.11,0,0,0-.6-.15,1.16,1.16,0,0,0-.6.15,1.51,1.51,0,0,0-.42.38,2,2,0,0,0-.28.55,4.61,4.61,0,0,0-.16.64c0,.22-.06.43-.08.64S88,16.39,88,16.56Z"/><path d="M92.76,16.56a9.26,9.26,0,0,1,.1-1.25,4.07,4.07,0,0,1,.37-1.18,2.44,2.44,0,0,1,.74-.88,2.22,2.22,0,0,1,2.39,0,2.41,2.41,0,0,1,.73.88,3.79,3.79,0,0,1,.37,1.18,7.88,7.88,0,0,1,.1,1.25,7.79,7.79,0,0,1-.1,1.25A3.77,3.77,0,0,1,97.09,19a2.41,2.41,0,0,1-.73.88,2.27,2.27,0,0,1-2.39,0,2.44,2.44,0,0,1-.74-.88,4,4,0,0,1-.37-1.19A9.14,9.14,0,0,1,92.76,16.56Zm.84,0c0,.18,0,.37,0,.58s0,.43.08.65a4.15,4.15,0,0,0,.16.63,1.9,1.9,0,0,0,.28.55,1.55,1.55,0,0,0,.42.39,1.16,1.16,0,0,0,.6.14,1.11,1.11,0,0,0,.6-.14,1.45,1.45,0,0,0,.43-.39,1.9,1.9,0,0,0,.28-.55,4.15,4.15,0,0,0,.16-.63,4.78,4.78,0,0,0,.07-.65c0-.21,0-.4,0-.58s0-.36,0-.58a4.81,4.81,0,0,0-.07-.64,4.61,4.61,0,0,0-.16-.64,2,2,0,0,0-.28-.55,1.42,1.42,0,0,0-.43-.38,1.11,1.11,0,0,0-.6-.15,1.16,1.16,0,0,0-.6.15,1.51,1.51,0,0,0-.42.38,2,2,0,0,0-.28.55,4.61,4.61,0,0,0-.16.64c0,.22-.06.43-.08.64S93.6,16.39,93.6,16.56Z"/><path d="M101.12,13h.8l3,7.08h-1l-.72-1.74H99.69L99,20.1H98Zm.38,1.08h0L100,17.58h2.89Z"/><path d="M104.76,20.85h5v.5h-5Z"/><path d="M114,17.7h1v.78h-1V20.1h-.84V18.48h-3v-.93L112.92,13h1Zm-.84-3.7h0l-2.26,3.7h2.28Z"/><path d="M115.7,16.56a9.26,9.26,0,0,1,.1-1.25,4.07,4.07,0,0,1,.37-1.18,2.44,2.44,0,0,1,.74-.88,2.22,2.22,0,0,1,2.39,0,2.41,2.41,0,0,1,.73.88,3.79,3.79,0,0,1,.37,1.18,7.88,7.88,0,0,1,.1,1.25,7.79,7.79,0,0,1-.1,1.25A3.77,3.77,0,0,1,120,19a2.41,2.41,0,0,1-.73.88,2.27,2.27,0,0,1-2.39,0,2.44,2.44,0,0,1-.74-.88,4,4,0,0,1-.37-1.19A9.14,9.14,0,0,1,115.7,16.56Zm.84,0c0,.18,0,.37,0,.58s0,.43.08.65a4.15,4.15,0,0,0,.16.63,1.9,1.9,0,0,0,.28.55,1.55,1.55,0,0,0,.42.39,1.16,1.16,0,0,0,.6.14,1.11,1.11,0,0,0,.6-.14,1.45,1.45,0,0,0,.43-.39,1.9,1.9,0,0,0,.28-.55,4.15,4.15,0,0,0,.16-.63,4.78,4.78,0,0,0,.07-.65c0-.21,0-.4,0-.58s0-.36,0-.58a4.81,4.81,0,0,0-.07-.64,4.61,4.61,0,0,0-.16-.64,2,2,0,0,0-.28-.55,1.42,1.42,0,0,0-.43-.38,1.11,1.11,0,0,0-.6-.15,1.16,1.16,0,0,0-.6.15,1.51,1.51,0,0,0-.42.38,2,2,0,0,0-.28.55,4.61,4.61,0,0,0-.16.64c0,.22-.06.43-.08.64S116.54,16.39,116.54,16.56Z"/><path d="M120.94,13h.94l1.6,5.88h0L125.24,13h.94l1.73,5.88h0L129.57,13h.88l-2.07,7.08h-.92l-1.75-6h0l-1.76,6H123Z"/><path d="M134.16,13H135v3h3.78V13h.84V20.1h-.84V16.8H135v3.3h-.84Z"/><path d="M141.38,13h.84v6.3h3.24v.78h-4.08Z"/><rect class="cls-3" x="54.7" y="41.98" width="189.86" height="189.86"/><circle class="cls-4" cx="149.63" cy="136.86" r="27.05"/><path d="M154.47,170.56h1v.78h-1V173h-.84v-1.62h-3v-.93l2.81-4.53h1Zm-.84-3.7h0l-2.26,3.7h2.28Z"/><path d="M156.16,169.42a7.79,7.79,0,0,1,.1-1.25,4.14,4.14,0,0,1,.37-1.19,2.53,2.53,0,0,1,.74-.88,1.93,1.93,0,0,1,1.19-.34,2,2,0,0,1,1.2.34,2.5,2.5,0,0,1,.73.88,4.14,4.14,0,0,1,.37,1.19,7.86,7.86,0,0,1,0,2.5,4,4,0,0,1-.37,1.18,2.41,2.41,0,0,1-.73.88,2,2,0,0,1-1.2.35,1.93,1.93,0,0,1-1.19-.35,2.44,2.44,0,0,1-.74-.88,4,4,0,0,1-.37-1.18A7.79,7.79,0,0,1,156.16,169.42Zm.84,0c0,.17,0,.37,0,.58a4.66,4.66,0,0,0,.08.64,3.53,3.53,0,0,0,.16.64,1.9,1.9,0,0,0,.28.55,1.18,1.18,0,0,0,.42.38,1.27,1.27,0,0,0,1.2,0,1.3,1.3,0,0,0,.43-.38,2.19,2.19,0,0,0,.28-.55,4.61,4.61,0,0,0,.16-.64c0-.21.06-.43.07-.64s0-.41,0-.58,0-.37,0-.58,0-.43-.07-.65a4.85,4.85,0,0,0-.16-.63,2.19,2.19,0,0,0-.28-.55,1.45,1.45,0,0,0-.43-.39,1.36,1.36,0,0,0-1.2,0,1.31,1.31,0,0,0-.42.39,1.9,1.9,0,0,0-.28.55,3.64,3.64,0,0,0-.16.63,5,5,0,0,0-.08.65C157,169.05,157,169.25,157,169.42Z"/><circle class="cls-4" cx="149.63" cy="136.86" r="54.22"/><path d="M151,194.77a1.73,1.73,0,0,1,.16-.76,1.63,1.63,0,0,1,.42-.58,1.92,1.92,0,0,1,.64-.37,2.36,2.36,0,0,1,1.6,0,1.92,1.92,0,0,1,.64.37,1.79,1.79,0,0,1,.43.58,1.87,1.87,0,0,1,.15.76,1.74,1.74,0,0,1-.08.5,1.53,1.53,0,0,1-.23.46,1.8,1.8,0,0,1-.36.37,1.47,1.47,0,0,1-.49.23v0a1.87,1.87,0,0,1,.58.24,1.68,1.68,0,0,1,.44.4,2,2,0,0,1,.38,1.18,2.21,2.21,0,0,1-.17.87,2.07,2.07,0,0,1-.48.65,2.14,2.14,0,0,1-.72.41,2.86,2.86,0,0,1-.89.14,2.8,2.8,0,0,1-.88-.14,2,2,0,0,1-.72-.41A1.81,1.81,0,0,1,151,199a2.05,2.05,0,0,1-.18-.87,2,2,0,0,1,.38-1.18,1.68,1.68,0,0,1,.44-.4,1.87,1.87,0,0,1,.58-.24v0a1.34,1.34,0,0,1-.48-.23,1.62,1.62,0,0,1-.37-.37,1.53,1.53,0,0,1-.23-.46A1.74,1.74,0,0,1,151,194.77Zm.6,3.34a1.48,1.48,0,0,0,.11.57,1.39,1.39,0,0,0,.31.45,1.51,1.51,0,0,0,.45.29,1.42,1.42,0,0,0,.55.1,1.47,1.47,0,0,0,.56-.1,1.51,1.51,0,0,0,.45-.29,1.37,1.37,0,0,0,.3-.45,1.53,1.53,0,0,0,0-1.14,1.23,1.23,0,0,0-.3-.44,1.34,1.34,0,0,0-.45-.29,1.47,1.47,0,0,0-.56-.11,1.42,1.42,0,0,0-.55.11,1.34,1.34,0,0,0-.45.29,1.25,1.25,0,0,0-.31.44A1.48,1.48,0,0,0,151.64,198.11Zm.24-3.3a1.13,1.13,0,0,0,1.18,1.17,1.17,1.17,0,1,0,0-2.34,1.13,1.13,0,0,0-1.18,1.17Z"/><path d="M156.16,196.58a7.79,7.79,0,0,1,.1-1.25,4,4,0,0,1,.37-1.18,2.44,2.44,0,0,1,.74-.88,1.93,1.93,0,0,1,1.19-.35,2,2,0,0,1,1.2.35,2.41,2.41,0,0,1,.73.88,4,4,0,0,1,.37,1.18,7.86,7.86,0,0,1,0,2.5,4.14,4.14,0,0,1-.37,1.19,2.5,2.5,0,0,1-.73.88,2,2,0,0,1-1.2.34,1.93,1.93,0,0,1-1.19-.34,2.53,2.53,0,0,1-.74-.88,4.14,4.14,0,0,1-.37-1.19A7.79,7.79,0,0,1,156.16,196.58Zm.84,0c0,.17,0,.37,0,.58a5,5,0,0,0,.08.65,3.64,3.64,0,0,0,.16.63,1.9,1.9,0,0,0,.28.55,1.31,1.31,0,0,0,.42.39,1.36,1.36,0,0,0,1.2,0,1.45,1.45,0,0,0,.43-.39,2.19,2.19,0,0,0,.28-.55,4.85,4.85,0,0,0,.16-.63c0-.22.06-.44.07-.65s0-.41,0-.58,0-.37,0-.58,0-.43-.07-.64a4.61,4.61,0,0,0-.16-.64,2.19,2.19,0,0,0-.28-.55,1.3,1.3,0,0,0-.43-.38,1.28,1.28,0,0,0-1.2,0,1.18,1.18,0,0,0-.42.38,1.9,1.9,0,0,0-.28.55,3.53,3.53,0,0,0-.16.64,4.66,4.66,0,0,0-.08.64C157,196.21,157,196.41,157,196.58Z"/><circle class="cls-4" cx="149.63" cy="136.86" r="81.32"/><path d="M153.88,227.23H153v-6h0l-1.27,1.07-.5-.61,1.9-1.54h.73Z"/><path d="M156.28,226.27l2.67-2.6c.17-.16.31-.31.44-.45a2.8,2.8,0,0,0,.32-.4,1.59,1.59,0,0,0,.18-.4A1.73,1.73,0,0,0,160,222a1.15,1.15,0,0,0-.1-.5,1.31,1.31,0,0,0-.27-.38,1.52,1.52,0,0,0-.41-.24,1.7,1.7,0,0,0-.51-.08,1.27,1.27,0,0,0-.89.31,1.47,1.47,0,0,0-.45.82l-.91-.08a2.34,2.34,0,0,1,.27-.77,1.73,1.73,0,0,1,.49-.55,2.06,2.06,0,0,1,.66-.34,2.92,2.92,0,0,1,.8-.11,2.82,2.82,0,0,1,.83.12,2.29,2.29,0,0,1,.69.37,1.87,1.87,0,0,1,.47.6,2,2,0,0,1,.17.83,2.29,2.29,0,0,1-.42,1.38,4.51,4.51,0,0,1-.44.54l-.52.51-2.18,2.05v0h3.61v.78h-4.56Z"/><path d="M161.72,223.69a7.79,7.79,0,0,1,.1-1.25,4,4,0,0,1,.37-1.19,2.53,2.53,0,0,1,.74-.88,1.93,1.93,0,0,1,1.19-.34,2,2,0,0,1,1.2.34,2.5,2.5,0,0,1,.73.88,4,4,0,0,1,.37,1.19,7.79,7.79,0,0,1,.1,1.25,7.88,7.88,0,0,1-.1,1.25,4,4,0,0,1-.37,1.18,2.41,2.41,0,0,1-.73.88,2,2,0,0,1-1.2.35,1.93,1.93,0,0,1-1.19-.35,2.44,2.44,0,0,1-.74-.88,4,4,0,0,1-.37-1.18A7.88,7.88,0,0,1,161.72,223.69Zm.84,0c0,.17,0,.37,0,.58a4.66,4.66,0,0,0,.08.64,3.53,3.53,0,0,0,.16.64,2,2,0,0,0,.28.55,1.18,1.18,0,0,0,.42.38,1.27,1.27,0,0,0,1.2,0,1.3,1.3,0,0,0,.43-.38,2.37,2.37,0,0,0,.28-.55,4.61,4.61,0,0,0,.16-.64c0-.21.06-.43.07-.64s0-.41,0-.58,0-.37,0-.58,0-.43-.07-.65a4.85,4.85,0,0,0-.16-.63,2.19,2.19,0,0,0-.28-.55,1.45,1.45,0,0,0-.43-.39,1.36,1.36,0,0,0-1.2,0,1.31,1.31,0,0,0-.42.39,1.9,1.9,0,0,0-.28.55,3.64,3.64,0,0,0-.16.63,5,5,0,0,0-.08.65C162.57,223.32,162.56,223.52,162.56,223.69Z"/><line class="cls-4" x1="54.7" y1="136.91" x2="244.62" y2="136.91"/><line class="cls-4" x1="149.63" y1="231.84" x2="149.63" y2="41.92"/><line class="cls-4" x1="94.88" y1="41.92" x2="204.44" y2="231.84"/><line class="cls-4" x1="94.88" y1="231.84" x2="204.44" y2="41.92"/><line class="cls-4" x1="54.7" y1="82.1" x2="244.62" y2="191.67"/><line class="cls-4" x1="54.7" y1="191.67" x2="244.62" y2="82.1"/><line class="cls-5" x1="149.63" y1="191.4" x2="150.6" y2="191.5"/><line class="cls-5" x1="150.6" y1="191.5" x2="151.52" y2="191.34"/><line class="cls-5" x1="151.52" y1="191.34" x2="152.49" y2="191.45"/><line class="cls-5" x1="152.49" y1="191.45" x2="153.41" y2="191.23"/><line class="cls-5" x1="153.41" y1="191.23" x2="154.38" y2="191.23"/><line class="cls-5" x1="154.38" y1="191.23" x2="155.36" y2="191.18"/><line class="cls-5" x1="155.36" y1="191.18" x2="156.27" y2="191.13"/><line class="cls-5" x1="156.27" y1="191.13" x2="157.25" y2="191.18"/><line class="cls-5" x1="157.25" y1="191.18" x2="158.22" y2="191.02"/><line class="cls-5" x1="158.22" y1="191.02" x2="159.19" y2="191.18"/><line class="cls-5" x1="159.19" y1="191.18" x2="160.16" y2="191.07"/><line class="cls-5" x1="160.16" y1="191.07" x2="161.19" y2="191.23"/><line class="cls-5" x1="161.19" y1="191.23" x2="162.16" y2="191.18"/><line class="cls-5" x1="162.16" y1="191.18" x2="163.24" y2="191.4"/><line class="cls-5" x1="163.24" y1="191.4" x2="164.32" y2="191.67"/><line class="cls-5" x1="164.32" y1="191.67" x2="165.4" y2="191.77"/><line class="cls-5" x1="165.4" y1="191.77" x2="166.59" y2="192.26"/><line class="cls-5" x1="166.59" y1="192.26" x2="167.67" y2="192.42"/><line class="cls-5" x1="167.67" y1="192.42" x2="168.96" y2="192.91"/><line class="cls-5" x1="168.96" y1="192.91" x2="170.1" y2="193.12"/><line class="cls-5" x1="170.1" y1="193.12" x2="171.45" y2="193.72"/><line class="cls-5" x1="171.45" y1="193.72" x2="172.8" y2="194.15"/><line class="cls-5" x1="172.8" y1="194.15" x2="174.31" y2="194.96"/><line class="cls-5" x1="174.31" y1="194.96" x2="175.77" y2="195.5"/><line class="cls-5" x1="175.77" y1="195.5" x2="177.39" y2="196.42"/><line class="cls-5" x1="177.39" y1="196.42" x2="179.01" y2="197.12"/><line class="cls-5" x1="179.01" y1="197.12" x2="180.84" y2="198.15"/><line class="cls-5" x1="180.84" y1="198.15" x2="182.73" y2="199.17"/><line class="cls-5" x1="182.73" y1="199.17" x2="184.68" y2="200.09"/><line class="cls-5" x1="184.68" y1="200.09" x2="186.78" y2="201.17"/><line class="cls-5" x1="186.78" y1="201.17" x2="188.78" y2="202.03"/><line class="cls-5" x1="188.78" y1="202.03" x2="191" y2="203.06"/><line class="cls-5" x1="191" y1="203.06" x2="192.94" y2="203.49"/><line class="cls-5" x1="192.94" y1="203.49" x2="194.78" y2="203.76"/><line class="cls-5" x1="194.78" y1="203.76" x2="196.4" y2="203.65"/><line class="cls-5" x1="196.4" y1="203.65" x2="198.18" y2="203.65"/><line class="cls-5" x1="198.18" y1="203.65" x2="199.53" y2="203.06"/><line class="cls-5" x1="199.53" y1="203.06" x2="200.93" y2="202.52"/><line class="cls-5" x1="200.93" y1="202.52" x2="201.8" y2="201.28"/><line class="cls-5" x1="201.8" y1="201.28" x2="202.77" y2="200.2"/><line class="cls-5" x1="202.77" y1="200.2" x2="203.42" y2="198.69"/><line class="cls-5" x1="203.42" y1="198.69" x2="204.17" y2="197.44"/><line class="cls-5" x1="204.17" y1="197.44" x2="204.6" y2="195.77"/><line class="cls-5" x1="204.6" y1="195.77" x2="205.04" y2="194.2"/><line class="cls-5" x1="205.04" y1="194.2" x2="204.98" y2="192.21"/><line class="cls-5" x1="204.98" y1="192.21" x2="204.98" y2="190.32"/><line class="cls-5" x1="204.98" y1="190.32" x2="204.87" y2="188.37"/><line class="cls-5" x1="204.87" y1="188.37" x2="204.71" y2="186.43"/><line class="cls-5" x1="204.71" y1="186.43" x2="204.17" y2="184.27"/><line class="cls-5" x1="204.17" y1="184.27" x2="203.63" y2="182.16"/><line class="cls-5" x1="203.63" y1="182.16" x2="202.77" y2="179.89"/><line class="cls-5" x1="202.77" y1="179.89" x2="201.8" y2="177.63"/><line class="cls-5" x1="201.8" y1="177.63" x2="200.61" y2="175.25"/><line class="cls-5" x1="200.61" y1="175.25" x2="199.53" y2="173.09"/><line class="cls-5" x1="199.53" y1="173.09" x2="198.07" y2="170.77"/><line class="cls-5" x1="198.07" y1="170.77" x2="196.77" y2="168.66"/><line class="cls-5" x1="196.77" y1="168.66" x2="195.64" y2="166.72"/><line class="cls-5" x1="195.64" y1="166.72" x2="194.67" y2="164.99"/><line class="cls-5" x1="194.67" y1="164.99" x2="193.7" y2="163.37"/><line class="cls-5" x1="193.7" y1="163.37" x2="192.83" y2="161.8"/><line class="cls-5" x1="192.83" y1="161.8" x2="192.08" y2="160.4"/><line class="cls-5" x1="192.08" y1="160.4" x2="191.37" y2="159.05"/><line class="cls-5" x1="191.37" y1="159.05" x2="190.51" y2="157.7"/><line class="cls-5" x1="190.51" y1="157.7" x2="189.86" y2="156.51"/><line class="cls-5" x1="189.86" y1="156.51" x2="189.27" y2="155.32"/><line class="cls-5" x1="189.27" y1="155.32" x2="188.51" y2="154.19"/><line class="cls-5" x1="188.51" y1="154.19" x2="188.13" y2="153.22"/><line class="cls-5" x1="188.13" y1="153.22" x2="187.76" y2="152.25"/><line class="cls-5" x1="187.76" y1="152.25" x2="187.7" y2="151.49"/><line class="cls-5" x1="187.7" y1="151.49" x2="187.7" y2="150.73"/><line class="cls-5" x1="187.7" y1="150.73" x2="187.86" y2="150.03"/><line class="cls-5" x1="187.86" y1="150.03" x2="187.81" y2="149.28"/><line class="cls-5" x1="187.81" y1="149.28" x2="187.92" y2="148.57"/><line class="cls-5" x1="187.92" y1="148.57" x2="187.97" y2="147.87"/><line class="cls-5" x1="187.97" y1="147.87" x2="188.03" y2="147.17"/><line class="cls-5" x1="188.03" y1="147.17" x2="188.08" y2="146.47"/><line class="cls-5" x1="188.08" y1="146.47" x2="188.35" y2="145.82"/><line class="cls-5" x1="188.35" y1="145.82" x2="188.46" y2="145.12"/><line class="cls-5" x1="188.46" y1="145.12" x2="188.84" y2="144.47"/><line class="cls-5" x1="188.84" y1="144.47" x2="188.95" y2="143.77"/><line class="cls-5" x1="188.95" y1="143.77" x2="189.11" y2="143.12"/><line class="cls-5" x1="189.11" y1="143.12" x2="189.21" y2="142.42"/><line class="cls-5" x1="189.21" y1="142.42" x2="189.54" y2="141.77"/><line class="cls-5" x1="189.54" y1="141.77" x2="189.48" y2="141.07"/><line class="cls-5" x1="189.48" y1="141.07" x2="189.59" y2="140.37"/><line class="cls-5" x1="189.59" y1="140.37" x2="189.65" y2="139.66"/><line class="cls-5" x1="189.65" y1="139.66" x2="189.75" y2="138.96"/><line class="cls-5" x1="189.75" y1="138.96" x2="189.86" y2="138.26"/><line class="cls-5" x1="189.86" y1="138.26" x2="189.92" y2="137.56"/><line class="cls-5" x1="189.92" y1="137.56" x2="189.16" y2="136.91"/><line class="cls-5" x1="189.16" y1="136.91" x2="189.38" y2="136.21"/><line class="cls-5" x1="189.38" y1="136.21" x2="189.54" y2="135.51"/><line class="cls-5" x1="189.54" y1="135.51" x2="189.7" y2="134.8"/><line class="cls-5" x1="189.7" y1="134.8" x2="189.86" y2="134.1"/><line class="cls-5" x1="189.86" y1="134.1" x2="189.97" y2="133.4"/><line class="cls-5" x1="189.97" y1="133.4" x2="190.02" y2="132.64"/><line class="cls-5" x1="190.02" y1="132.64" x2="190.02" y2="131.94"/><line class="cls-5" x1="190.02" y1="131.94" x2="189.86" y2="131.24"/><line class="cls-5" x1="189.86" y1="131.24" x2="189.7" y2="130.54"/><line class="cls-5" x1="189.7" y1="130.54" x2="189.48" y2="129.89"/><line class="cls-5" x1="189.48" y1="129.89" x2="189.16" y2="129.24"/><line class="cls-5" x1="189.16" y1="129.24" x2="188.89" y2="128.59"/><line class="cls-5" x1="188.89" y1="128.59" x2="188.46" y2="127.95"/><line class="cls-5" x1="188.46" y1="127.95" x2="188.03" y2="127.35"/><line class="cls-5" x1="188.03" y1="127.35" x2="187.59" y2="126.76"/><line class="cls-5" x1="187.59" y1="126.76" x2="187.11" y2="126.16"/><line class="cls-5" x1="187.11" y1="126.16" x2="186.62" y2="125.62"/><line class="cls-5" x1="186.62" y1="125.62" x2="186.14" y2="125.03"/><line class="cls-5" x1="186.14" y1="125.03" x2="185.54" y2="124.54"/><line class="cls-5" x1="185.54" y1="124.54" x2="184.95" y2="124.06"/><line class="cls-5" x1="184.95" y1="124.06" x2="184.25" y2="123.63"/><line class="cls-5" x1="184.25" y1="123.63" x2="183.54" y2="123.19"/><line class="cls-5" x1="183.54" y1="123.19" x2="182.84" y2="122.82"/><line class="cls-5" x1="182.84" y1="122.82" x2="182.14" y2="122.44"/><line class="cls-5" x1="182.14" y1="122.44" x2="181.38" y2="122.11"/><line class="cls-5" x1="181.38" y1="122.11" x2="180.63" y2="121.79"/><line class="cls-5" x1="180.63" y1="121.79" x2="179.82" y2="121.52"/><line class="cls-5" x1="179.82" y1="121.52" x2="179.06" y2="121.25"/><line class="cls-5" x1="179.06" y1="121.25" x2="178.25" y2="121.03"/><line class="cls-5" x1="178.25" y1="121.03" x2="177.39" y2="120.87"/><line class="cls-5" x1="177.39" y1="120.87" x2="176.58" y2="120.71"/><line class="cls-5" x1="176.58" y1="120.71" x2="175.71" y2="120.6"/><line class="cls-5" x1="175.71" y1="120.6" x2="174.85" y2="120.55"/><line class="cls-5" x1="174.85" y1="120.55" x2="174.04" y2="120.44"/><line class="cls-5" x1="174.04" y1="120.44" x2="173.23" y2="120.39"/><line class="cls-5" x1="173.23" y1="120.39" x2="172.42" y2="120.39"/><line class="cls-5" x1="172.42" y1="120.39" x2="171.61" y2="120.39"/><line class="cls-5" x1="171.61" y1="120.39" x2="170.8" y2="120.39"/><line class="cls-5" x1="170.8" y1="120.39" x2="170.04" y2="120.39"/><line class="cls-5" x1="170.04" y1="120.39" x2="169.29" y2="120.44"/><line class="cls-5" x1="169.29" y1="120.44" x2="168.53" y2="120.49"/><line class="cls-5" x1="168.53" y1="120.49" x2="167.78" y2="120.55"/><line class="cls-5" x1="167.78" y1="120.55" x2="167.07" y2="120.66"/><line class="cls-5" x1="167.07" y1="120.66" x2="166.37" y2="120.71"/><line class="cls-5" x1="166.37" y1="120.71" x2="165.72" y2="120.82"/><line class="cls-5" x1="165.72" y1="120.82" x2="165.08" y2="120.93"/><line class="cls-5" x1="165.08" y1="120.93" x2="164.43" y2="121.03"/><line class="cls-5" x1="164.43" y1="121.03" x2="163.89" y2="121.09"/><line class="cls-5" x1="163.89" y1="121.09" x2="163.29" y2="121.2"/><line class="cls-5" x1="163.29" y1="121.2" x2="162.75" y2="121.25"/><line class="cls-5" x1="162.75" y1="121.25" x2="162.27" y2="121.36"/><line class="cls-5" x1="162.27" y1="121.36" x2="161.73" y2="121.41"/><line class="cls-5" x1="161.73" y1="121.41" x2="161.24" y2="121.47"/><line class="cls-5" x1="161.24" y1="121.47" x2="160.81" y2="121.52"/><line class="cls-5" x1="160.81" y1="121.52" x2="160.38" y2="121.57"/><line class="cls-5" x1="160.38" y1="121.57" x2="159.95" y2="121.63"/><line class="cls-5" x1="159.95" y1="121.63" x2="159.57" y2="121.63"/><line class="cls-5" x1="159.57" y1="121.63" x2="159.19" y2="121.63"/><line class="cls-5" x1="159.19" y1="121.63" x2="158.81" y2="121.57"/><line class="cls-5" x1="158.81" y1="121.57" x2="158.49" y2="121.57"/><line class="cls-5" x1="158.49" y1="121.57" x2="158.16" y2="121.52"/><line class="cls-5" x1="158.16" y1="121.52" x2="157.84" y2="121.47"/><line class="cls-5" x1="157.84" y1="121.47" x2="157.52" y2="121.41"/><line class="cls-5" x1="157.52" y1="121.41" x2="157.25" y2="121.3"/><line class="cls-5" x1="157.25" y1="121.3" x2="156.92" y2="121.25"/><line class="cls-5" x1="156.92" y1="121.25" x2="156.65" y2="121.2"/><line class="cls-5" x1="156.65" y1="121.2" x2="156.33" y2="121.14"/><line class="cls-5" x1="156.33" y1="121.14" x2="156" y2="121.09"/><line class="cls-5" x1="156" y1="121.09" x2="155.73" y2="121.03"/><line class="cls-5" x1="155.73" y1="121.03" x2="155.41" y2="120.98"/><line class="cls-5" x1="155.41" y1="120.98" x2="155.14" y2="120.82"/><line class="cls-5" x1="155.14" y1="120.82" x2="154.82" y2="120.87"/><line class="cls-5" x1="154.82" y1="120.87" x2="154.49" y2="120.93"/><line class="cls-5" x1="154.49" y1="120.93" x2="154.22" y2="120.82"/><line class="cls-5" x1="154.22" y1="120.82" x2="153.95" y2="120.71"/><line class="cls-5" x1="153.95" y1="120.71" x2="153.74" y2="120.55"/><line class="cls-5" x1="153.74" y1="120.55" x2="153.41" y2="120.44"/><line class="cls-5" x1="153.41" y1="120.44" x2="153.14" y2="120.33"/><line class="cls-5" x1="153.14" y1="120.33" x2="152.87" y2="120.22"/><line class="cls-5" x1="152.87" y1="120.22" x2="152.6" y2="120.17"/><line class="cls-5" x1="152.6" y1="120.17" x2="152.28" y2="120.12"/><line class="cls-5" x1="152.28" y1="120.12" x2="152.01" y2="120.06"/><line class="cls-5" x1="152.01" y1="120.06" x2="151.68" y2="120.01"/><line class="cls-5" x1="151.68" y1="120.01" x2="151.41" y2="119.95"/><line class="cls-5" x1="151.41" y1="119.95" x2="151.09" y2="119.95"/><line class="cls-5" x1="151.09" y1="119.95" x2="150.82" y2="120.01"/><line class="cls-5" x1="150.82" y1="120.01" x2="150.5" y2="120.06"/><line class="cls-5" x1="150.5" y1="120.06" x2="150.23" y2="120.12"/><line class="cls-5" x1="150.23" y1="120.12" x2="149.9" y2="120.22"/><line class="cls-5" x1="149.9" y1="120.22" x2="149.63" y2="120.33"/><line class="cls-5" x1="149.63" y1="191.4" x2="148.71" y2="191.5"/><line class="cls-5" x1="148.71" y1="191.5" x2="147.8" y2="191.34"/><line class="cls-5" x1="147.8" y1="191.34" x2="146.82" y2="191.45"/><line class="cls-5" x1="146.82" y1="191.45" x2="145.91" y2="191.29"/><line class="cls-5" x1="145.91" y1="191.29" x2="144.93" y2="191.34"/><line class="cls-5" x1="144.93" y1="191.34" x2="144.02" y2="191.07"/><line class="cls-5" x1="144.02" y1="191.07" x2="143.04" y2="191.13"/><line class="cls-5" x1="143.04" y1="191.13" x2="142.13" y2="190.8"/><line class="cls-5" x1="142.13" y1="190.8" x2="141.15" y2="190.75"/><line class="cls-5" x1="141.15" y1="190.75" x2="140.18" y2="190.64"/><line class="cls-5" x1="140.18" y1="190.64" x2="139.16" y2="191.07"/><line class="cls-5" x1="139.16" y1="191.07" x2="138.13" y2="191.23"/><line class="cls-5" x1="138.13" y1="191.23" x2="137.16" y2="191.18"/><line class="cls-5" x1="137.16" y1="191.18" x2="136.08" y2="191.4"/><line class="cls-5" x1="136.08" y1="191.4" x2="135" y2="191.67"/><line class="cls-5" x1="135" y1="191.67" x2="133.92" y2="191.77"/><line class="cls-5" x1="133.92" y1="191.77" x2="132.73" y2="192.26"/><line class="cls-5" x1="132.73" y1="192.26" x2="131.65" y2="192.42"/><line class="cls-5" x1="131.65" y1="192.42" x2="130.35" y2="192.91"/><line class="cls-5" x1="130.35" y1="192.91" x2="129.22" y2="193.12"/><line class="cls-5" x1="129.22" y1="193.12" x2="127.87" y2="193.72"/><line class="cls-5" x1="127.87" y1="193.72" x2="126.52" y2="194.15"/><line class="cls-5" x1="126.52" y1="194.15" x2="125.01" y2="194.96"/><line class="cls-5" x1="125.01" y1="194.96" x2="123.55" y2="195.5"/><line class="cls-5" x1="123.55" y1="195.5" x2="121.93" y2="196.42"/><line class="cls-5" x1="121.93" y1="196.42" x2="120.31" y2="197.12"/><line class="cls-5" x1="120.31" y1="197.12" x2="118.47" y2="198.15"/><line class="cls-5" x1="118.47" y1="198.15" x2="116.58" y2="199.17"/><line class="cls-5" x1="116.58" y1="199.17" x2="114.64" y2="200.09"/><line class="cls-5" x1="114.64" y1="200.09" x2="112.53" y2="201.17"/><line class="cls-5" x1="112.53" y1="201.17" x2="110.54" y2="202.03"/><line class="cls-5" x1="110.54" y1="202.03" x2="108.32" y2="203.06"/><line class="cls-5" x1="108.32" y1="203.06" x2="106.38" y2="203.49"/><line class="cls-5" x1="106.38" y1="203.49" x2="104.54" y2="203.76"/><line class="cls-5" x1="104.54" y1="203.76" x2="102.92" y2="203.65"/><line class="cls-5" x1="102.92" y1="203.65" x2="101.14" y2="203.65"/><line class="cls-5" x1="101.14" y1="203.65" x2="99.79" y2="203.06"/><line class="cls-5" x1="99.79" y1="203.06" x2="98.39" y2="202.52"/><line class="cls-5" x1="98.39" y1="202.52" x2="97.52" y2="201.28"/><line class="cls-5" x1="97.52" y1="201.28" x2="96.55" y2="200.2"/><line class="cls-5" x1="96.55" y1="200.2" x2="95.9" y2="198.69"/><line class="cls-5" x1="95.9" y1="198.69" x2="95.15" y2="197.44"/><line class="cls-5" x1="95.15" y1="197.44" x2="94.71" y2="195.77"/><line class="cls-5" x1="94.71" y1="195.77" x2="94.28" y2="194.2"/><line class="cls-5" x1="94.28" y1="194.2" x2="94.34" y2="192.21"/><line class="cls-5" x1="94.34" y1="192.21" x2="94.34" y2="190.32"/><line class="cls-5" x1="94.34" y1="190.32" x2="94.44" y2="188.37"/><line class="cls-5" x1="94.44" y1="188.37" x2="94.61" y2="186.43"/><line class="cls-5" x1="94.61" y1="186.43" x2="95.15" y2="184.27"/><line class="cls-5" x1="95.15" y1="184.27" x2="95.69" y2="182.16"/><line class="cls-5" x1="95.69" y1="182.16" x2="96.55" y2="179.89"/><line class="cls-5" x1="96.55" y1="179.89" x2="97.52" y2="177.63"/><line class="cls-5" x1="97.52" y1="177.63" x2="98.71" y2="175.25"/><line class="cls-5" x1="98.71" y1="175.25" x2="99.79" y2="173.09"/><line class="cls-5" x1="99.79" y1="173.09" x2="101.25" y2="170.77"/><line class="cls-5" x1="101.25" y1="170.77" x2="102.54" y2="168.66"/><line class="cls-5" x1="102.54" y1="168.66" x2="103.68" y2="166.72"/><line class="cls-5" x1="103.68" y1="166.72" x2="104.65" y2="164.99"/><line class="cls-5" x1="104.65" y1="164.99" x2="105.62" y2="163.37"/><line class="cls-5" x1="105.62" y1="163.37" x2="106.49" y2="161.8"/><line class="cls-5" x1="106.49" y1="161.8" x2="107.24" y2="160.4"/><line class="cls-5" x1="107.24" y1="160.4" x2="107.94" y2="159.05"/><line class="cls-5" x1="107.94" y1="159.05" x2="108.81" y2="157.7"/><line class="cls-5" x1="108.81" y1="157.7" x2="109.46" y2="156.51"/><line class="cls-5" x1="109.46" y1="156.51" x2="110.05" y2="155.32"/><line class="cls-5" x1="110.05" y1="155.32" x2="110.81" y2="154.19"/><line class="cls-5" x1="110.81" y1="154.19" x2="111.18" y2="153.22"/><line class="cls-5" x1="111.18" y1="153.22" x2="111.56" y2="152.25"/><line class="cls-5" x1="111.56" y1="152.25" x2="111.62" y2="151.49"/><line class="cls-5" x1="111.62" y1="151.49" x2="111.62" y2="150.73"/><line class="cls-5" x1="111.62" y1="150.73" x2="111.45" y2="150.03"/><line class="cls-5" x1="111.45" y1="150.03" x2="111.51" y2="149.28"/><line class="cls-5" x1="111.51" y1="149.28" x2="111.4" y2="148.57"/><line class="cls-5" x1="111.4" y1="148.57" x2="111.35" y2="147.87"/><line class="cls-5" x1="111.35" y1="147.87" x2="111.29" y2="147.17"/><line class="cls-5" x1="111.29" y1="147.17" x2="111.24" y2="146.47"/><line class="cls-5" x1="111.24" y1="146.47" x2="110.97" y2="145.82"/><line class="cls-5" x1="110.97" y1="145.82" x2="110.86" y2="145.12"/><line class="cls-5" x1="110.86" y1="145.12" x2="110.48" y2="144.47"/><line class="cls-5" x1="110.48" y1="144.47" x2="110.37" y2="143.77"/><line class="cls-5" x1="110.37" y1="143.77" x2="110.21" y2="143.12"/><line class="cls-5" x1="110.21" y1="143.12" x2="110.1" y2="142.42"/><line class="cls-5" x1="110.1" y1="142.42" x2="109.78" y2="141.77"/><line class="cls-5" x1="109.78" y1="141.77" x2="109.83" y2="141.07"/><line class="cls-5" x1="109.83" y1="141.07" x2="109.73" y2="140.37"/><line class="cls-5" x1="109.73" y1="140.37" x2="109.67" y2="139.66"/><line class="cls-5" x1="109.67" y1="139.66" x2="109.56" y2="138.96"/><line class="cls-5" x1="109.56" y1="138.96" x2="109.46" y2="138.26"/><line class="cls-5" x1="109.46" y1="138.26" x2="109.4" y2="137.56"/><line class="cls-5" x1="109.4" y1="137.56" x2="110.16" y2="136.91"/><line class="cls-5" x1="110.16" y1="136.91" x2="109.89" y2="136.21"/><line class="cls-5" x1="109.89" y1="136.21" x2="109.83" y2="135.51"/><line class="cls-5" x1="109.83" y1="135.51" x2="109.78" y2="134.8"/><line class="cls-5" x1="109.78" y1="134.8" x2="109.83" y2="134.1"/><line class="cls-5" x1="109.83" y1="134.1" x2="109.89" y2="133.45"/><line class="cls-5" x1="109.89" y1="133.45" x2="110.05" y2="132.75"/><line class="cls-5" x1="110.05" y1="132.75" x2="110.37" y2="132.1"/><line class="cls-5" x1="110.37" y1="132.1" x2="110.7" y2="131.4"/><line class="cls-5" x1="110.7" y1="131.4" x2="111.13" y2="130.81"/><line class="cls-5" x1="111.13" y1="130.81" x2="111.67" y2="130.21"/><line class="cls-5" x1="111.67" y1="130.21" x2="112.48" y2="129.67"/><line class="cls-5" x1="112.48" y1="129.67" x2="113.29" y2="129.19"/><line class="cls-5" x1="113.29" y1="129.19" x2="114.21" y2="128.7"/><line class="cls-5" x1="114.21" y1="128.7" x2="115.13" y2="128.27"/><line class="cls-5" x1="115.13" y1="128.27" x2="116.1" y2="127.89"/><line class="cls-5" x1="116.1" y1="127.89" x2="117.12" y2="127.57"/><line class="cls-5" x1="117.12" y1="127.57" x2="118.31" y2="127.3"/><line class="cls-5" x1="118.31" y1="127.3" x2="119.55" y2="127.14"/><line class="cls-5" x1="119.55" y1="127.14" x2="120.96" y2="127.03"/><line class="cls-5" x1="120.96" y1="127.03" x2="122.63" y2="127.03"/><line class="cls-5" x1="122.63" y1="127.03" x2="124.47" y2="127.24"/><line class="cls-5" x1="124.47" y1="127.24" x2="126.47" y2="127.51"/><line class="cls-5" x1="126.47" y1="127.51" x2="128.57" y2="127.95"/><line class="cls-5" x1="128.57" y1="127.95" x2="130.84" y2="128.54"/><line class="cls-5" x1="130.84" y1="128.54" x2="133.11" y2="129.19"/><line class="cls-5" x1="133.11" y1="129.19" x2="135.21" y2="129.84"/><line class="cls-5" x1="135.21" y1="129.84" x2="137.16" y2="130.54"/><line class="cls-5" x1="137.16" y1="130.54" x2="138.83" y2="131.13"/><line class="cls-5" x1="138.83" y1="131.13" x2="140.29" y2="131.73"/><line class="cls-5" x1="140.29" y1="131.73" x2="141.53" y2="132.21"/><line class="cls-5" x1="141.53" y1="132.21" x2="142.5" y2="132.59"/><line class="cls-5" x1="142.5" y1="132.59" x2="143.31" y2="132.91"/><line class="cls-5" x1="143.31" y1="132.91" x2="144.02" y2="133.24"/><line class="cls-5" x1="144.02" y1="133.24" x2="144.61" y2="133.45"/><line class="cls-5" x1="144.61" y1="133.45" x2="145.04" y2="133.67"/><line class="cls-5" x1="145.04" y1="133.67" x2="145.42" y2="133.83"/><line class="cls-5" x1="145.42" y1="133.83" x2="145.69" y2="133.89"/><line class="cls-5" x1="145.69" y1="133.89" x2="145.8" y2="133.89"/><line class="cls-5" x1="145.8" y1="133.89" x2="145.91" y2="133.83"/><line class="cls-5" x1="145.91" y1="133.83" x2="145.96" y2="133.78"/><line class="cls-5" x1="145.96" y1="133.78" x2="146.01" y2="133.72"/><line class="cls-5" x1="146.01" y1="133.72" x2="146.01" y2="133.62"/><line class="cls-5" x1="146.01" y1="133.62" x2="146.07" y2="133.56"/><line class="cls-5" x1="146.07" y1="133.56" x2="146.12" y2="133.45"/><line class="cls-5" x1="146.12" y1="133.45" x2="146.12" y2="133.35"/><line class="cls-5" x1="146.12" y1="133.35" x2="146.12" y2="133.24"/><line class="cls-5" x1="146.12" y1="133.24" x2="146.07" y2="133.02"/><line class="cls-5" x1="146.07" y1="133.02" x2="145.91" y2="132.75"/><line class="cls-5" x1="145.91" y1="132.75" x2="145.74" y2="132.37"/><line class="cls-5" x1="145.74" y1="132.37" x2="145.58" y2="132"/><line class="cls-5" x1="145.58" y1="132" x2="145.42" y2="131.62"/><line class="cls-5" x1="145.42" y1="131.62" x2="145.31" y2="131.29"/><line class="cls-5" x1="145.31" y1="131.29" x2="145.2" y2="130.92"/><line class="cls-5" x1="145.2" y1="130.92" x2="145.1" y2="130.54"/><line class="cls-5" x1="145.1" y1="130.54" x2="144.93" y2="130.16"/><line class="cls-5" x1="144.93" y1="130.16" x2="144.88" y2="129.78"/><line class="cls-5" x1="144.88" y1="129.78" x2="144.83" y2="129.4"/><line class="cls-5" x1="144.83" y1="129.4" x2="144.77" y2="129.03"/><line class="cls-5" x1="144.77" y1="129.03" x2="144.72" y2="128.65"/><line class="cls-5" x1="144.72" y1="128.65" x2="144.66" y2="128.16"/><line class="cls-5" x1="144.66" y1="128.16" x2="144.61" y2="127.73"/><line class="cls-5" x1="144.61" y1="127.73" x2="144.61" y2="127.35"/><line class="cls-5" x1="144.61" y1="127.35" x2="144.66" y2="127.03"/><line class="cls-5" x1="144.66" y1="127.03" x2="144.72" y2="126.7"/><line class="cls-5" x1="144.72" y1="126.7" x2="144.77" y2="126.38"/><line class="cls-5" x1="144.77" y1="126.38" x2="144.88" y2="126.16"/><line class="cls-5" x1="144.88" y1="126.16" x2="145.04" y2="125.95"/><line class="cls-5" x1="145.04" y1="125.95" x2="145.2" y2="125.84"/><line class="cls-5" x1="145.2" y1="125.84" x2="145.37" y2="125.68"/><line class="cls-5" x1="145.37" y1="125.68" x2="145.58" y2="125.62"/><line class="cls-5" x1="145.58" y1="125.62" x2="145.74" y2="125.52"/><line class="cls-5" x1="145.74" y1="125.52" x2="145.96" y2="125.41"/><line class="cls-5" x1="145.96" y1="125.41" x2="146.12" y2="125.25"/><line class="cls-5" x1="146.12" y1="125.25" x2="146.28" y2="125.08"/><line class="cls-5" x1="146.28" y1="125.08" x2="146.45" y2="124.81"/><line class="cls-5" x1="146.45" y1="124.81" x2="146.61" y2="124.49"/><line class="cls-5" x1="146.61" y1="124.49" x2="146.72" y2="124.17"/><line class="cls-5" x1="146.72" y1="124.17" x2="146.93" y2="123.84"/><line class="cls-5" x1="146.93" y1="123.84" x2="147.09" y2="123.52"/><line class="cls-5" x1="147.09" y1="123.52" x2="147.26" y2="123.25"/><line class="cls-5" x1="147.26" y1="123.25" x2="147.47" y2="122.98"/><line class="cls-5" x1="147.47" y1="122.98" x2="147.69" y2="122.71"/><line class="cls-5" x1="147.69" y1="122.71" x2="147.9" y2="122.38"/><line class="cls-5" x1="147.9" y1="122.38" x2="148.12" y2="121.9"/><line class="cls-5" x1="148.12" y1="121.9" x2="148.34" y2="121.52"/><line class="cls-5" x1="148.34" y1="121.52" x2="148.61" y2="121.14"/><line class="cls-5" x1="148.61" y1="121.14" x2="148.82" y2="120.82"/><line class="cls-5" x1="148.82" y1="120.82" x2="149.09" y2="120.6"/><line class="cls-5" x1="149.09" y1="120.6" x2="149.42" y2="120.44"/><line class="cls-5" x1="149.42" y1="120.44" x2="149.63" y2="120.33"/><line class="cls-5" x1="149.63" y1="191.4" x2="149.9" y2="191.45"/><line class="cls-5" x1="151.2" y1="191.4" x2="151.41" y2="191.34"/><line class="cls-5" x1="152.71" y1="191.4" x2="152.93" y2="191.34"/><line class="cls-5" x1="154.22" y1="191.23" x2="154.38" y2="191.23"/><line class="cls-5" x1="154.38" y1="191.23" x2="154.49" y2="191.23"/><line class="cls-5" x1="155.79" y1="191.18" x2="156" y2="191.13"/><line class="cls-5" x1="157.3" y1="191.18" x2="157.52" y2="191.13"/><line class="cls-5" x1="158.76" y1="191.13" x2="159.03" y2="191.18"/><line class="cls-5" x1="160.32" y1="191.07" x2="160.54" y2="191.13"/><line class="cls-5" x1="161.84" y1="191.18" x2="162.11" y2="191.18"/><line class="cls-5" x1="163.35" y1="191.45" x2="163.56" y2="191.5"/><line class="cls-5" x1="164.81" y1="191.72" x2="165.08" y2="191.72"/><line class="cls-5" x1="166.26" y1="192.15" x2="166.48" y2="192.21"/><line class="cls-5" x1="167.72" y1="192.42" x2="167.94" y2="192.53"/><line class="cls-5" x1="169.13" y1="192.96" x2="169.4" y2="193.02"/><line class="cls-5" x1="170.64" y1="193.34" x2="170.85" y2="193.45"/><line class="cls-5" x1="172.04" y1="193.93" x2="172.26" y2="193.99"/><line class="cls-5" x1="173.45" y1="194.47" x2="173.66" y2="194.64"/><line class="cls-5" x1="174.8" y1="195.12" x2="175.01" y2="195.23"/><line class="cls-5" x1="176.2" y1="195.77" x2="176.42" y2="195.88"/><line class="cls-5" x1="177.55" y1="196.47" x2="177.77" y2="196.58"/><line class="cls-5" x1="178.9" y1="197.07" x2="179.01" y2="197.12"/><line class="cls-5" x1="179.01" y1="197.12" x2="179.12" y2="197.17"/><line class="cls-5" x1="180.25" y1="197.82" x2="180.47" y2="197.93"/><line class="cls-5" x1="181.6" y1="198.58" x2="181.82" y2="198.69"/><line class="cls-5" x1="182.95" y1="199.28" x2="183.17" y2="199.39"/><line class="cls-5" x1="184.3" y1="199.93" x2="184.52" y2="200.04"/><line class="cls-5" x1="185.65" y1="200.58" x2="185.87" y2="200.68"/><line class="cls-5" x1="187" y1="201.28" x2="187.22" y2="201.33"/><line class="cls-5" x1="188.35" y1="201.87" x2="188.57" y2="201.93"/><line class="cls-5" x1="189.7" y1="202.47" x2="189.92" y2="202.57"/><line class="cls-5" x1="191.05" y1="203.06" x2="191.27" y2="203.11"/><line class="cls-5" x1="192.51" y1="203.38" x2="192.72" y2="203.44"/><line class="cls-5" x1="193.97" y1="203.65" x2="194.24" y2="203.71"/><line class="cls-5" x1="195.53" y1="203.71" x2="195.8" y2="203.71"/><line class="cls-5" x1="197.1" y1="203.65" x2="197.37" y2="203.65"/><line class="cls-5" x1="198.66" y1="203.44" x2="198.88" y2="203.33"/><line class="cls-5" x1="200.07" y1="202.84" x2="200.28" y2="202.79"/><line class="cls-5" x1="201.26" y1="202.03" x2="201.42" y2="201.82"/><line class="cls-5" x1="202.23" y1="200.79" x2="202.39" y2="200.63"/><line class="cls-5" x1="203.04" y1="199.55" x2="203.15" y2="199.33"/><line class="cls-5" x1="203.69" y1="198.2" x2="203.85" y2="197.98"/><line class="cls-5" x1="204.33" y1="196.85" x2="204.39" y2="196.63"/><line class="cls-5" x1="204.71" y1="195.39" x2="204.77" y2="195.18"/><line class="cls-5" x1="205.04" y1="193.93" x2="205.04" y2="193.66"/><line class="cls-5" x1="204.98" y1="192.37" x2="204.98" y2="192.21"/><line class="cls-5" x1="204.98" y1="192.21" x2="204.98" y2="192.1"/><line class="cls-5" x1="204.98" y1="190.75" x2="204.98" y2="190.48"/><line class="cls-5" x1="204.93" y1="189.18" x2="204.93" y2="188.91"/><line class="cls-5" x1="204.82" y1="187.62" x2="204.77" y2="187.4"/><line class="cls-5" x1="204.6" y1="186.1" x2="204.55" y2="185.89"/><line class="cls-5" x1="204.28" y1="184.65" x2="204.23" y2="184.43"/><line class="cls-5" x1="203.9" y1="183.19" x2="203.85" y2="182.97"/><line class="cls-5" x1="203.47" y1="181.73" x2="203.36" y2="181.51"/><line class="cls-5" x1="202.93" y1="180.33" x2="202.88" y2="180.11"/><line class="cls-5" x1="202.39" y1="178.98" x2="202.28" y2="178.76"/><line class="cls-5" x1="201.74" y1="177.57" x2="201.63" y2="177.36"/><line class="cls-5" x1="201.1" y1="176.22" x2="200.99" y2="176.01"/><line class="cls-5" x1="200.39" y1="174.87" x2="200.28" y2="174.66"/><line class="cls-5" x1="199.75" y1="173.52" x2="199.64" y2="173.31"/><line class="cls-5" x1="198.99" y1="172.23" x2="198.83" y2="172.01"/><line class="cls-5" x1="198.18" y1="170.93" x2="198.07" y2="170.77"/><line class="cls-5" x1="198.07" y1="170.77" x2="198.02" y2="170.71"/><line class="cls-5" x1="197.37" y1="169.63" x2="197.26" y2="169.42"/><line class="cls-5" x1="196.56" y1="168.34" x2="196.45" y2="168.12"/><line class="cls-5" x1="195.8" y1="167.04" x2="195.7" y2="166.83"/><line class="cls-5" x1="195.05" y1="165.69" x2="194.94" y2="165.48"/><line class="cls-5" x1="194.29" y1="164.4" x2="194.18" y2="164.18"/><line class="cls-5" x1="193.53" y1="163.1" x2="193.43" y2="162.88"/><line class="cls-5" x1="192.78" y1="161.75" x2="192.67" y2="161.53"/><line class="cls-5" x1="192.08" y1="160.4" x2="192.08" y2="160.4"/><line class="cls-5" x1="192.08" y1="160.4" x2="191.97" y2="160.18"/><line class="cls-5" x1="191.37" y1="159.05" x2="191.37" y2="159.05"/><line class="cls-5" x1="191.37" y1="159.05" x2="191.21" y2="158.83"/><line class="cls-5" x1="190.56" y1="157.75" x2="190.51" y2="157.7"/><line class="cls-5" x1="190.51" y1="157.7" x2="190.4" y2="157.54"/><line class="cls-5" x1="189.81" y1="156.4" x2="189.7" y2="156.19"/><line class="cls-5" x1="189.11" y1="155.05" x2="188.95" y2="154.84"/><line class="cls-5" x1="188.35" y1="153.76" x2="188.24" y2="153.54"/><line class="cls-5" x1="187.81" y1="152.35" x2="187.76" y2="152.25"/><line class="cls-5" x1="187.76" y1="152.25" x2="187.76" y2="152.14"/><line class="cls-5" x1="187.7" y1="150.84" x2="187.7" y2="150.73"/><line class="cls-5" x1="187.7" y1="150.73" x2="187.76" y2="150.57"/><line class="cls-5" x1="187.81" y1="149.28" x2="187.81" y2="149.28"/><line class="cls-5" x1="187.81" y1="149.28" x2="187.86" y2="149.06"/><line class="cls-5" x1="187.97" y1="147.76" x2="188.03" y2="147.49"/><line class="cls-5" x1="188.19" y1="146.2" x2="188.3" y2="145.98"/><line class="cls-5" x1="188.67" y1="144.74" x2="188.78" y2="144.52"/><line class="cls-5" x1="189.05" y1="143.28" x2="189.11" y2="143.12"/><line class="cls-5" x1="189.11" y1="143.12" x2="189.11" y2="143.07"/><line class="cls-5" x1="189.54" y1="141.82" x2="189.54" y2="141.77"/><line class="cls-5" x1="189.54" y1="141.77" x2="189.54" y2="141.55"/><line class="cls-5" x1="189.59" y1="140.26" x2="189.65" y2="139.99"/><line class="cls-5" x1="189.81" y1="138.69" x2="189.86" y2="138.42"/><line class="cls-5" x1="189.48" y1="137.18" x2="189.27" y2="137.02"/><line class="cls-5" x1="189.48" y1="135.83" x2="189.54" y2="135.61"/><line class="cls-5" x1="189.81" y1="134.37" x2="189.86" y2="134.16"/><line class="cls-5" x1="190.02" y1="132.86" x2="190.02" y2="132.64"/><line class="cls-5" x1="190.02" y1="132.64" x2="190.02" y2="132.59"/><line class="cls-5" x1="189.86" y1="131.29" x2="189.86" y2="131.24"/><line class="cls-5" x1="189.86" y1="131.24" x2="189.81" y2="131.08"/><line class="cls-5" x1="189.43" y1="129.84" x2="189.32" y2="129.62"/><line class="cls-5" x1="188.78" y1="128.43" x2="188.62" y2="128.22"/><line class="cls-5" x1="187.86" y1="127.14" x2="187.7" y2="126.92"/><line class="cls-5" x1="186.84" y1="125.89" x2="186.68" y2="125.68"/><line class="cls-5" x1="185.76" y1="124.71" x2="185.54" y2="124.54"/><line class="cls-5" x1="184.52" y1="123.79" x2="184.3" y2="123.68"/><line class="cls-5" x1="183.22" y1="123.03" x2="183" y2="122.92"/><line class="cls-5" x1="181.87" y1="122.33" x2="181.65" y2="122.22"/><line class="cls-5" x1="180.47" y1="121.74" x2="180.25" y2="121.68"/><line class="cls-5" x1="179.06" y1="121.25" x2="179.06" y2="121.25"/><line class="cls-5" x1="179.06" y1="121.25" x2="178.85" y2="121.2"/><line class="cls-5" x1="177.6" y1="120.93" x2="177.39" y2="120.87"/><line class="cls-5" x1="176.15" y1="120.66" x2="175.93" y2="120.6"/><line class="cls-5" x1="174.63" y1="120.49" x2="174.36" y2="120.49"/><line class="cls-5" x1="173.07" y1="120.39" x2="172.8" y2="120.39"/><line class="cls-5" x1="171.45" y1="120.39" x2="171.18" y2="120.39"/><line class="cls-5" x1="169.83" y1="120.39" x2="169.61" y2="120.44"/><line class="cls-5" x1="168.32" y1="120.49" x2="168.1" y2="120.55"/><line class="cls-5" x1="166.8" y1="120.66" x2="166.59" y2="120.71"/><line class="cls-5" x1="165.29" y1="120.87" x2="165.08" y2="120.93"/><line class="cls-5" x1="163.78" y1="121.09" x2="163.56" y2="121.14"/><line class="cls-5" x1="162.32" y1="121.36" x2="162.27" y2="121.36"/><line class="cls-5" x1="162.27" y1="121.36" x2="162.05" y2="121.36"/><line class="cls-5" x1="160.76" y1="121.52" x2="160.54" y2="121.57"/><line class="cls-5" x1="159.24" y1="121.63" x2="159.19" y2="121.63"/><line class="cls-5" x1="159.19" y1="121.63" x2="158.97" y2="121.57"/><line class="cls-5" x1="157.68" y1="121.41" x2="157.52" y2="121.41"/><line class="cls-5" x1="157.52" y1="121.41" x2="157.41" y2="121.36"/><line class="cls-5" x1="156.17" y1="121.09" x2="156" y2="121.09"/><line class="cls-5" x1="156" y1="121.09" x2="155.9" y2="121.09"/><line class="cls-5" x1="154.71" y1="120.87" x2="154.49" y2="120.93"/><line class="cls-5" x1="153.36" y1="120.44" x2="153.14" y2="120.33"/><line class="cls-5" x1="151.9" y1="120.06" x2="151.68" y2="120.01"/><line class="cls-5" x1="150.39" y1="120.06" x2="150.23" y2="120.12"/><line class="cls-5" x1="150.23" y1="120.12" x2="150.17" y2="120.12"/><line class="cls-5" x1="148.93" y1="191.5" x2="148.71" y2="191.5"/><line class="cls-5" x1="148.71" y1="191.5" x2="148.66" y2="191.5"/><line class="cls-5" x1="147.42" y1="191.4" x2="147.15" y2="191.4"/><line class="cls-5" x1="145.91" y1="191.23" x2="145.91" y2="191.23"/><line class="cls-5" x1="145.91" y1="191.23" x2="145.64" y2="191.23"/><line class="cls-5" x1="144.34" y1="191.18" x2="144.07" y2="191.18"/><line class="cls-5" x1="142.77" y1="191.13" x2="142.56" y2="191.18"/><line class="cls-5" x1="141.26" y1="191.02" x2="141.1" y2="191.02"/><line class="cls-5" x1="141.1" y1="191.02" x2="140.99" y2="191.02"/><line class="cls-5" x1="139.75" y1="191.13" x2="139.48" y2="191.13"/><line class="cls-5" x1="138.24" y1="191.23" x2="138.13" y2="191.23"/><line class="cls-5" x1="138.13" y1="191.23" x2="137.97" y2="191.23"/><line class="cls-5" x1="136.67" y1="191.29" x2="136.46" y2="191.34"/><line class="cls-5" x1="135.21" y1="191.61" x2="135" y2="191.67"/><line class="cls-5" x1="133.7" y1="191.88" x2="133.49" y2="191.94"/><line class="cls-5" x1="132.3" y1="192.31" x2="132.08" y2="192.37"/><line class="cls-5" x1="130.84" y1="192.75" x2="130.62" y2="192.8"/><line class="cls-5" x1="129.38" y1="193.07" x2="129.22" y2="193.12"/><line class="cls-5" x1="129.22" y1="193.12" x2="129.17" y2="193.12"/><line class="cls-5" x1="128.03" y1="193.66" x2="127.87" y2="193.72"/><line class="cls-5" x1="127.87" y1="193.72" x2="127.82" y2="193.72"/><line class="cls-5" x1="126.63" y1="194.1" x2="126.52" y2="194.15"/><line class="cls-5" x1="126.52" y1="194.15" x2="126.41" y2="194.2"/><line class="cls-5" x1="125.28" y1="194.8" x2="125.06" y2="194.91"/><line class="cls-5" x1="123.87" y1="195.39" x2="123.66" y2="195.45"/><line class="cls-5" x1="122.52" y1="196.09" x2="122.31" y2="196.2"/><line class="cls-5" x1="121.17" y1="196.74" x2="120.96" y2="196.85"/><line class="cls-5" x1="119.82" y1="197.39" x2="119.61" y2="197.5"/><line class="cls-5" x1="118.53" y1="198.09" x2="118.47" y2="198.15"/><line class="cls-5" x1="118.47" y1="198.15" x2="118.31" y2="198.25"/><line class="cls-5" x1="117.18" y1="198.85" x2="116.96" y2="198.96"/><line class="cls-5" x1="115.83" y1="199.55" x2="115.61" y2="199.66"/><line class="cls-5" x1="114.48" y1="200.2" x2="114.26" y2="200.31"/><line class="cls-5" x1="113.13" y1="200.85" x2="112.91" y2="200.95"/><line class="cls-5" x1="111.78" y1="201.49" x2="111.56" y2="201.6"/><line class="cls-5" x1="110.37" y1="202.09" x2="110.16" y2="202.2"/><line class="cls-5" x1="109.02" y1="202.74" x2="108.81" y2="202.84"/><line class="cls-5" x1="107.62" y1="203.22" x2="107.4" y2="203.28"/><line class="cls-5" x1="106.16" y1="203.55" x2="105.89" y2="203.55"/><line class="cls-5" x1="104.65" y1="203.76" x2="104.54" y2="203.76"/><line class="cls-5" x1="104.54" y1="203.76" x2="104.38" y2="203.76"/><line class="cls-5" x1="103.08" y1="203.65" x2="102.92" y2="203.65"/><line class="cls-5" x1="102.92" y1="203.65" x2="102.81" y2="203.65"/><line class="cls-5" x1="101.46" y1="203.65" x2="101.19" y2="203.65"/><line class="cls-5" x1="100.01" y1="203.17" x2="99.79" y2="203.06"/><line class="cls-5" x1="98.6" y1="202.63" x2="98.39" y2="202.52"/><line class="cls-5" x1="97.63" y1="201.44" x2="97.52" y2="201.28"/><line class="cls-5" x1="97.52" y1="201.28" x2="97.47" y2="201.22"/><line class="cls-5" x1="96.6" y1="200.25" x2="96.55" y2="200.2"/><line class="cls-5" x1="96.55" y1="200.2" x2="96.5" y2="200.04"/><line class="cls-5" x1="96.01" y1="198.9" x2="95.9" y2="198.69"/><line class="cls-5" x1="95.25" y1="197.61" x2="95.15" y2="197.44"/><line class="cls-5" x1="95.15" y1="197.44" x2="95.15" y2="197.39"/><line class="cls-5" x1="94.82" y1="196.15" x2="94.77" y2="195.93"/><line class="cls-5" x1="94.39" y1="194.69" x2="94.34" y2="194.47"/><line class="cls-5" x1="94.34" y1="193.18" x2="94.34" y2="192.91"/><line class="cls-5" x1="94.34" y1="191.56" x2="94.34" y2="191.29"/><line class="cls-5" x1="94.34" y1="189.94" x2="94.39" y2="189.72"/><line class="cls-5" x1="94.44" y1="188.43" x2="94.44" y2="188.37"/><line class="cls-5" x1="94.44" y1="188.37" x2="94.44" y2="188.16"/><line class="cls-5" x1="94.55" y1="186.86" x2="94.61" y2="186.64"/><line class="cls-5" x1="94.88" y1="185.4" x2="94.93" y2="185.19"/><line class="cls-5" x1="95.25" y1="183.94" x2="95.31" y2="183.73"/><line class="cls-5" x1="95.58" y1="182.49" x2="95.63" y2="182.27"/><line class="cls-5" x1="96.12" y1="181.08" x2="96.17" y2="180.87"/><line class="cls-5" x1="96.66" y1="179.68" x2="96.71" y2="179.46"/><line class="cls-5" x1="97.2" y1="178.33" x2="97.31" y2="178.11"/><line class="cls-5" x1="97.85" y1="176.98" x2="97.95" y2="176.76"/><line class="cls-5" x1="98.55" y1="175.63" x2="98.66" y2="175.41"/><line class="cls-5" x1="99.2" y1="174.28" x2="99.3" y2="174.06"/><line class="cls-5" x1="99.9" y1="172.93" x2="100.01" y2="172.71"/><line class="cls-5" x1="100.71" y1="171.63" x2="100.82" y2="171.42"/><line class="cls-5" x1="101.52" y1="170.34" x2="101.63" y2="170.12"/><line class="cls-5" x1="102.33" y1="169.04" x2="102.44" y2="168.82"/><line class="cls-5" x1="103.08" y1="167.74" x2="103.19" y2="167.53"/><line class="cls-5" x1="103.84" y1="166.45" x2="103.95" y2="166.23"/><line class="cls-5" x1="104.6" y1="165.1" x2="104.65" y2="164.99"/><line class="cls-5" x1="104.65" y1="164.99" x2="104.7" y2="164.88"/><line class="cls-5" x1="105.35" y1="163.8" x2="105.51" y2="163.59"/><line class="cls-5" x1="106.11" y1="162.45" x2="106.27" y2="162.24"/><line class="cls-5" x1="106.86" y1="161.1" x2="106.97" y2="160.89"/><line class="cls-5" x1="107.57" y1="159.75" x2="107.67" y2="159.54"/><line class="cls-5" x1="108.32" y1="158.46" x2="108.48" y2="158.24"/><line class="cls-5" x1="109.13" y1="157.11" x2="109.24" y2="156.89"/><line class="cls-5" x1="109.83" y1="155.76" x2="109.94" y2="155.54"/><line class="cls-5" x1="110.64" y1="154.46" x2="110.75" y2="154.24"/><line class="cls-5" x1="111.24" y1="153.11" x2="111.29" y2="152.89"/><line class="cls-5" x1="111.62" y1="151.71" x2="111.62" y2="151.49"/><line class="cls-5" x1="111.62" y1="151.49" x2="111.62" y2="151.44"/><line class="cls-5" x1="111.45" y1="150.14" x2="111.45" y2="150.03"/><line class="cls-5" x1="111.45" y1="150.03" x2="111.45" y2="149.87"/><line class="cls-5" x1="111.4" y1="148.57" x2="111.4" y2="148.57"/><line class="cls-5" x1="111.4" y1="148.57" x2="111.4" y2="148.3"/><line class="cls-5" x1="111.29" y1="147.01" x2="111.24" y2="146.79"/><line class="cls-5" x1="110.91" y1="145.55" x2="110.86" y2="145.28"/><line class="cls-5" x1="110.43" y1="144.09" x2="110.37" y2="143.88"/><line class="cls-5" x1="110.16" y1="142.63" x2="110.1" y2="142.42"/><line class="cls-5" x1="109.83" y1="141.23" x2="109.83" y2="141.07"/><line class="cls-5" x1="109.83" y1="141.07" x2="109.83" y2="140.96"/><line class="cls-5" x1="109.67" y1="139.66" x2="109.67" y2="139.66"/><line class="cls-5" x1="109.67" y1="139.66" x2="109.62" y2="139.45"/><line class="cls-5" x1="109.46" y1="138.15" x2="109.4" y2="137.88"/><line class="cls-5" x1="110.16" y1="136.86" x2="110.05" y2="136.64"/><line class="cls-5" x1="109.78" y1="135.4" x2="109.73" y2="135.18"/><line class="cls-5" x1="109.46" y1="133.94" x2="109.4" y2="133.72"/><line class="cls-5" x1="109.29" y1="132.43" x2="109.29" y2="132.16"/><line class="cls-5" x1="109.51" y1="130.92" x2="109.56" y2="130.7"/><line class="cls-5" x1="110.05" y1="129.51" x2="110.16" y2="129.3"/><line class="cls-5" x1="110.7" y1="128.16" x2="110.86" y2="127.95"/><line class="cls-5" x1="111.62" y1="126.92" x2="111.72" y2="126.76"/><line class="cls-5" x1="111.72" y1="126.76" x2="111.78" y2="126.7"/><line class="cls-5" x1="112.64" y1="125.68" x2="112.7" y2="125.62"/><line class="cls-5" x1="112.7" y1="125.62" x2="112.8" y2="125.52"/><line class="cls-5" x1="113.72" y1="124.6" x2="113.78" y2="124.54"/><line class="cls-5" x1="113.78" y1="124.54" x2="113.88" y2="124.44"/><line class="cls-5" x1="114.96" y1="123.68" x2="115.07" y2="123.63"/><line class="cls-5" x1="115.07" y1="123.63" x2="115.18" y2="123.57"/><line class="cls-5" x1="116.26" y1="122.92" x2="116.48" y2="122.82"/><line class="cls-5" x1="117.61" y1="122.28" x2="117.83" y2="122.17"/><line class="cls-5" x1="118.96" y1="121.68" x2="119.18" y2="121.63"/><line class="cls-5" x1="120.36" y1="121.2" x2="120.58" y2="121.14"/><line class="cls-5" x1="121.82" y1="120.87" x2="121.93" y2="120.87"/><line class="cls-5" x1="121.93" y1="120.87" x2="122.09" y2="120.82"/><line class="cls-5" x1="123.39" y1="120.6" x2="123.6" y2="120.6"/><line class="cls-5" x1="123.6" y1="120.6" x2="123.66" y2="120.6"/><line class="cls-5" x1="124.95" y1="120.49" x2="125.17" y2="120.44"/><line class="cls-5" x1="126.47" y1="120.39" x2="126.74" y2="120.39"/><line class="cls-5" x1="128.09" y1="120.39" x2="128.36" y2="120.39"/><line class="cls-5" x1="129.65" y1="120.44" x2="129.92" y2="120.44"/><line class="cls-5" x1="131.22" y1="120.55" x2="131.49" y2="120.55"/><line class="cls-5" x1="132.78" y1="120.71" x2="132.95" y2="120.71"/><line class="cls-5" x1="132.95" y1="120.71" x2="133.05" y2="120.71"/><line class="cls-5" x1="134.3" y1="120.93" x2="134.51" y2="120.98"/><line class="cls-5" x1="135.81" y1="121.14" x2="136.02" y2="121.2"/><line class="cls-5" x1="137.32" y1="121.41" x2="137.59" y2="121.41"/><line class="cls-5" x1="138.89" y1="121.57" x2="138.94" y2="121.57"/><line class="cls-5" x1="138.94" y1="121.57" x2="139.16" y2="121.63"/><line class="cls-5" x1="140.45" y1="121.57" x2="140.51" y2="121.57"/><line class="cls-5" x1="140.51" y1="121.57" x2="140.72" y2="121.57"/><line class="cls-5" x1="142.02" y1="121.3" x2="142.07" y2="121.3"/><line class="cls-5" x1="142.07" y1="121.3" x2="142.23" y2="121.25"/><line class="cls-5" x1="143.53" y1="121.03" x2="143.58" y2="121.03"/><line class="cls-5" x1="143.58" y1="121.03" x2="143.75" y2="120.98"/><line class="cls-5" x1="144.99" y1="120.87" x2="145.1" y2="120.82"/><line class="cls-5" x1="145.1" y1="120.82" x2="145.2" y2="120.76"/><line class="cls-5" x1="146.34" y1="120.28" x2="146.45" y2="120.22"/><line class="cls-5" x1="146.45" y1="120.22" x2="146.55" y2="120.22"/><line class="cls-5" x1="147.8" y1="119.95" x2="147.9" y2="119.95"/><line class="cls-5" x1="147.9" y1="119.95" x2="148.07" y2="119.95"/><line class="cls-5" x1="149.36" y1="120.22" x2="149.42" y2="120.22"/><line class="cls-5" x1="149.42" y1="120.22" x2="149.58" y2="120.33"/></g></svg>