<svg id="Romeo_Soft_T1" xmlns="http://www.w3.org/2000/svg" viewBox="0 0 300 263"><defs><style>.cls-1,.cls-3{fill:none;stroke-width:0.5px;}.cls-1{stroke:#000;}.cls-2{isolation:isolate;}.cls-3{stroke:#1d1d1b;stroke-miterlimit:3.86;}</style></defs><title>romeo-soft-table-1-starck-flos-F6107007-spech-tech-02-300x263</title><line class="cls-1" x1="112.75" y1="65.19" x2="189.38" y2="65.19"/><line class="cls-1" x1="112.75" y1="64.35" x2="112.75" y2="66.02"/><line class="cls-1" x1="189.38" y1="64.35" x2="189.38" y2="66.02"/><line class="cls-1" x1="99.5" y1="217.27" x2="99.5" y2="73.27"/><line class="cls-1" x1="98.06" y1="217.27" x2="100.94" y2="217.27"/><line class="cls-1" x1="98.06" y1="73.27" x2="100.94" y2="73.27"/><line class="cls-1" x1="120.65" y1="226.96" x2="177.41" y2="226.96"/><line class="cls-1" x1="120.65" y1="225.78" x2="120.65" y2="228.14"/><line class="cls-1" x1="177.41" y1="225.78" x2="177.41" y2="228.14"/><g class="cls-2"><path d="M120.54,241a3.67,3.67,0,0,1,.7,1.16,4.15,4.15,0,0,1,0,3,3.7,3.7,0,0,1-.85,1.25,4,4,0,0,1-1.3.82,4.78,4.78,0,0,1-3.13.07,3.82,3.82,0,0,1-1.15-.61l-1.11,1.09-.54-.49,1.1-1.09a3.45,3.45,0,0,1-.71-1.18,4,4,0,0,1-.25-1.43,4,4,0,0,1,.3-1.57,3.88,3.88,0,0,1,.86-1.25,3.94,3.94,0,0,1,1.3-.82,4.49,4.49,0,0,1,1.66-.3,4.72,4.72,0,0,1,1.44.22,4,4,0,0,1,1.2.62l1.09-1.09.54.49Zm-1.3.26a2.8,2.8,0,0,0-1.87-.63,2.92,2.92,0,0,0-1.22.24,2.6,2.6,0,0,0-.92.63,2.91,2.91,0,0,0-.58.94,3.24,3.24,0,0,0-.21,1.17,2.87,2.87,0,0,0,.57,1.82ZM115.51,246a2.88,2.88,0,0,0,.83.45,3.32,3.32,0,0,0,1,.16,3,3,0,0,0,1.22-.24,2.69,2.69,0,0,0,.92-.63,2.83,2.83,0,0,0,.59-.94,3.2,3.2,0,0,0,.21-1.17,3,3,0,0,0-.57-1.82Z"/><path d="M135.19,247.32h-7.48V246l4.69-4.6c.18-.17.35-.35.53-.54a4,4,0,0,0,.48-.61,2.85,2.85,0,0,0,.35-.67,2,2,0,0,0,.13-.74,1.9,1.9,0,0,0-.17-.83,1.85,1.85,0,0,0-.49-.62,2.22,2.22,0,0,0-.73-.39,2.84,2.84,0,0,0-.88-.14,2.45,2.45,0,0,0-1.53.48,2.15,2.15,0,0,0-.81,1.3l-1.27-.13a3.18,3.18,0,0,1,1.21-2,3.73,3.73,0,0,1,2.32-.72,5,5,0,0,1,1.35.19,3.31,3.31,0,0,1,1.13.55,2.66,2.66,0,0,1,.78.92,2.79,2.79,0,0,1,.29,1.29,3.29,3.29,0,0,1-.21,1.2,5,5,0,0,1-.54,1,6.47,6.47,0,0,1-.75.91c-.29.29-.58.58-.87.85L129,246.27h6.18Z"/><path d="M143.88,237.05h-4.8l-.09,3.41a3.69,3.69,0,0,1,.79-.21,5.25,5.25,0,0,1,.79-.06,4,4,0,0,1,1.51.27,3.38,3.38,0,0,1,1.18.76,3.6,3.6,0,0,1,.76,1.15,3.86,3.86,0,0,1,.27,1.45,3.72,3.72,0,0,1-.3,1.5,3.21,3.21,0,0,1-.83,1.16,3.68,3.68,0,0,1-1.25.76,4.25,4.25,0,0,1-1.57.28,3.91,3.91,0,0,1-2-.52,3.35,3.35,0,0,1-1.38-1.5l1.2-.5a2.67,2.67,0,0,0,.92,1.07,2.48,2.48,0,0,0,1.38.39,2.75,2.75,0,0,0,1-.2,2.63,2.63,0,0,0,.84-.54,2.56,2.56,0,0,0,.56-.8,2.34,2.34,0,0,0,.21-1,2.62,2.62,0,0,0-.22-1.09,2.43,2.43,0,0,0-.6-.85,2.47,2.47,0,0,0-.91-.55,3.32,3.32,0,0,0-1.16-.2,5,5,0,0,0-1.26.17,6,6,0,0,0-1.18.46l.11-5.87h6Z"/><path d="M150,235.8a3.44,3.44,0,0,1,2,.56,3.8,3.8,0,0,1,1.21,1.43,6.14,6.14,0,0,1,.59,1.89,13.14,13.14,0,0,1,0,4,6.14,6.14,0,0,1-.59,1.89,3.8,3.8,0,0,1-1.21,1.43,3.44,3.44,0,0,1-2,.56,3.5,3.5,0,0,1-2-.56,3.9,3.9,0,0,1-1.21-1.43,6.13,6.13,0,0,1-.58-1.89,13.14,13.14,0,0,1,0-4,6.13,6.13,0,0,1,.58-1.89,3.9,3.9,0,0,1,1.21-1.43A3.5,3.5,0,0,1,150,235.8Zm0,1.06a2.21,2.21,0,0,0-1.52.5,3.14,3.14,0,0,0-.84,1.23,5.71,5.71,0,0,0-.36,1.57c0,.55-.07,1.05-.07,1.5s0,1,.07,1.5a5.71,5.71,0,0,0,.36,1.57,3.14,3.14,0,0,0,.84,1.23,2.56,2.56,0,0,0,3,0,3.14,3.14,0,0,0,.84-1.23,5.71,5.71,0,0,0,.35-1.57c.05-.55.08-1,.08-1.5s0-.95-.08-1.5a5.71,5.71,0,0,0-.35-1.57,3.14,3.14,0,0,0-.84-1.23A2.21,2.21,0,0,0,150,236.86Z"/><path d="M160.44,241.5c0-.28,0-.55,0-.83l-.06-.83h1.18V241h0a2.57,2.57,0,0,1,1.1-1,3.35,3.35,0,0,1,1.41-.34,4.13,4.13,0,0,1,.67.07,2.44,2.44,0,0,1,.69.23,2.26,2.26,0,0,1,.62.47,2.47,2.47,0,0,1,.49.79,2.59,2.59,0,0,1,1.06-1.14,3.28,3.28,0,0,1,3.71.34,3,3,0,0,1,.72,2.17v4.75h-1.1V243a3.08,3.08,0,0,0-.42-1.75,1.74,1.74,0,0,0-1.54-.61,2,2,0,0,0-1,.24,1.88,1.88,0,0,0-.67.61,2.84,2.84,0,0,0-.38.87,4.9,4.9,0,0,0-.11,1v4h-1.1V243a3.17,3.17,0,0,0-.41-1.75,1.78,1.78,0,0,0-1.55-.61c-.07,0-.22,0-.46.07a1.83,1.83,0,0,0-.74.35,2.71,2.71,0,0,0-.69.86,3.53,3.53,0,0,0-.3,1.6v3.84h-1.1Z"/><path d="M174.59,241.5c0-.28,0-.55,0-.83l-.06-.83h1.18V241h0a2.6,2.6,0,0,1,1.11-1,3.31,3.31,0,0,1,1.4-.34,4,4,0,0,1,.67.07,2.44,2.44,0,0,1,.69.23,2.3,2.3,0,0,1,.63.47,2.88,2.88,0,0,1,.49.79,2.51,2.51,0,0,1,1-1.14,3,3,0,0,1,1.51-.42,2.9,2.9,0,0,1,2.2.76,3,3,0,0,1,.72,2.17v4.75h-1.1V243a3.17,3.17,0,0,0-.41-1.75,1.76,1.76,0,0,0-1.55-.61,2,2,0,0,0-1,.24,2,2,0,0,0-.67.61,2.6,2.6,0,0,0-.37.87,4.31,4.31,0,0,0-.12,1v4h-1.1V243a3.08,3.08,0,0,0-.41-1.75,1.76,1.76,0,0,0-1.55-.61l-.45.07a1.72,1.72,0,0,0-.74.35,2.46,2.46,0,0,0-.69.86,3.4,3.4,0,0,0-.31,1.6v3.84h-1.1Z"/></g><g class="cls-2"><path d="M120.58,49.21a3.65,3.65,0,0,1,.71,1.15,4.15,4.15,0,0,1-.05,3,3.79,3.79,0,0,1-2.16,2.07,4.51,4.51,0,0,1-1.67.3,4.41,4.41,0,0,1-1.45-.23,4.1,4.1,0,0,1-1.16-.6L113.69,56l-.53-.49,1.09-1.09a3.67,3.67,0,0,1-.71-1.17,4,4,0,0,1-.25-1.44,3.81,3.81,0,0,1,.31-1.56,3.65,3.65,0,0,1,.85-1.25,3.85,3.85,0,0,1,1.31-.83,4.61,4.61,0,0,1,1.65-.29,4.73,4.73,0,0,1,1.44.21,4,4,0,0,1,1.2.62l1.1-1.09.53.5Zm-1.29.25a2.82,2.82,0,0,0-1.88-.62,3,3,0,0,0-1.22.23,2.6,2.6,0,0,0-.92.63,3.1,3.1,0,0,0-.58.94,3.27,3.27,0,0,0-.2,1.17,2.89,2.89,0,0,0,.56,1.83Zm-3.74,4.72a2.88,2.88,0,0,0,.83.45,3.05,3.05,0,0,0,1,.16,3.16,3.16,0,0,0,1.22-.23,2.76,2.76,0,0,0,.92-.64,2.68,2.68,0,0,0,.59-.94,3.2,3.2,0,0,0,.21-1.17,3.07,3.07,0,0,0-.56-1.82Z"/><path d="M130.35,49.09H131a4,4,0,0,0,1-.11,2.23,2.23,0,0,0,.83-.36,1.75,1.75,0,0,0,.55-.65,2,2,0,0,0,.21-1A1.77,1.77,0,0,0,133,45.6a2.36,2.36,0,0,0-1.61-.51,2.65,2.65,0,0,0-1.31.32,2.59,2.59,0,0,0-.93.93l-1.05-.51a3.45,3.45,0,0,1,1.36-1.35,3.89,3.89,0,0,1,1.9-.44,4.32,4.32,0,0,1,1.31.19,3.28,3.28,0,0,1,1.08.57,2.76,2.76,0,0,1,.74.92,2.85,2.85,0,0,1,.28,1.26,2.59,2.59,0,0,1-.16.88,2.77,2.77,0,0,1-.43.75,3.25,3.25,0,0,1-.64.59,3,3,0,0,1-.77.37l0,0a2.94,2.94,0,0,1,.92.36,3.14,3.14,0,0,1,.71.65,3,3,0,0,1,.46.87,2.8,2.8,0,0,1,.17,1,3,3,0,0,1-1.11,2.42,3.53,3.53,0,0,1-1.2.63,4.93,4.93,0,0,1-3.7-.32,3.4,3.4,0,0,1-1.45-1.75l1.26-.37a2.37,2.37,0,0,0,.89,1.21,3,3,0,0,0,1.66.39,2.69,2.69,0,0,0,.94-.16,2.36,2.36,0,0,0,.79-.45,2,2,0,0,0,.53-.72,2.09,2.09,0,0,0,.19-.91,2.27,2.27,0,0,0-.24-1.08,2.07,2.07,0,0,0-.67-.71,2.88,2.88,0,0,0-.95-.39,5.22,5.22,0,0,0-1.13-.12h-.51Z"/><path d="M143.11,51.81h1.69v1.06h-1.69v2.69h-1.2V52.87h-5.08V51.56l4.75-7.33h1.53Zm-1.2-6.43h0l-4,6.43h4.08Z"/><path d="M150.05,44a3.43,3.43,0,0,1,2,.56A3.79,3.79,0,0,1,153.31,46a6.19,6.19,0,0,1,.58,1.9,13.58,13.58,0,0,1,.15,2,13.82,13.82,0,0,1-.15,2,6,6,0,0,1-.58,1.89,3.82,3.82,0,0,1-1.21,1.43,3.5,3.5,0,0,1-2,.56,3.44,3.44,0,0,1-2-.56,3.73,3.73,0,0,1-1.21-1.43,6.06,6.06,0,0,1-.59-1.89,13.82,13.82,0,0,1-.15-2,13.58,13.58,0,0,1,.15-2,6.2,6.2,0,0,1,.59-1.9A3.7,3.7,0,0,1,148,44.6,3.37,3.37,0,0,1,150.05,44Zm0,1.05a2.21,2.21,0,0,0-1.52.5,3.14,3.14,0,0,0-.84,1.23,5.71,5.71,0,0,0-.35,1.57c-.05.55-.08,1-.08,1.5s0,1,.08,1.51a5.72,5.72,0,0,0,.35,1.56,3.1,3.1,0,0,0,.84,1.24,2.6,2.6,0,0,0,3,0,3.1,3.1,0,0,0,.84-1.24,5.73,5.73,0,0,0,.36-1.56c0-.56.07-1.06.07-1.51s0-1-.07-1.5a5.71,5.71,0,0,0-.36-1.57,3.14,3.14,0,0,0-.84-1.23A2.21,2.21,0,0,0,150.05,45.09Z"/><path d="M160.48,49.73c0-.27,0-.55,0-.83l-.06-.83h1.18v1.14h0a2.62,2.62,0,0,1,1.11-1,3.29,3.29,0,0,1,1.4-.33,4,4,0,0,1,.67.06,2.44,2.44,0,0,1,.69.23,2.3,2.3,0,0,1,.63.47,2.88,2.88,0,0,1,.49.79,2.51,2.51,0,0,1,1.05-1.14,3.06,3.06,0,0,1,1.51-.41,2.9,2.9,0,0,1,2.21.76,3.06,3.06,0,0,1,.71,2.16v4.76H171V51.19a3.17,3.17,0,0,0-.41-1.75,1.76,1.76,0,0,0-1.55-.6,2,2,0,0,0-1,.23,2,2,0,0,0-.67.61,2.57,2.57,0,0,0-.37.88,4.17,4.17,0,0,0-.12,1v4h-1.1V51.19a3.08,3.08,0,0,0-.41-1.75,1.76,1.76,0,0,0-1.55-.6l-.45.06a1.72,1.72,0,0,0-.74.35,2.42,2.42,0,0,0-.69.87,3.34,3.34,0,0,0-.31,1.6v3.84h-1.1Z"/><path d="M174.64,49.73c0-.27,0-.55,0-.83s0-.55-.06-.83h1.18v1.14h0a2.54,2.54,0,0,1,1.1-1,3.3,3.3,0,0,1,1.41-.33,4.06,4.06,0,0,1,.67.06,2.44,2.44,0,0,1,.69.23,2.26,2.26,0,0,1,.62.47,2.66,2.66,0,0,1,.49.79,2.48,2.48,0,0,1,1.06-1.14,3,3,0,0,1,1.5-.41,2.89,2.89,0,0,1,2.21.76,3,3,0,0,1,.71,2.16v4.76h-1.09V51.19a3.08,3.08,0,0,0-.42-1.75,1.75,1.75,0,0,0-1.54-.6,1.95,1.95,0,0,0-1.71.84,2.78,2.78,0,0,0-.37.88,4.17,4.17,0,0,0-.12,1v4h-1.09V51.19a3.08,3.08,0,0,0-.42-1.75,1.74,1.74,0,0,0-1.54-.6l-.46.06a1.77,1.77,0,0,0-.74.35,2.65,2.65,0,0,0-.69.87,3.46,3.46,0,0,0-.31,1.6v3.84h-1.09Z"/></g><g class="cls-2"><path d="M83.14,161.34l0,0a1.83,1.83,0,0,1-.29-.73,3.69,3.69,0,0,1-.1-.84,3.45,3.45,0,0,1,.27-1.37,3.27,3.27,0,0,1,1.83-1.82,3.58,3.58,0,0,1,1.41-.26,3.63,3.63,0,0,1,1.42.27,3.08,3.08,0,0,1,1.1.77,3.54,3.54,0,0,1,.72,1.16,4.31,4.31,0,0,1,0,2.95,3.49,3.49,0,0,1-.72,1.17,3.06,3.06,0,0,1-1.1.76,3.46,3.46,0,0,1-1.42.28,4.6,4.6,0,0,1-1.65-.28,9,9,0,0,1-1.39-.7l-5-3.06v-1.36Zm3.16,1.15a2.64,2.64,0,0,0,1-.18,2.18,2.18,0,0,0,.77-.52,2.29,2.29,0,0,0,.51-.8,3.18,3.18,0,0,0,0-2.05,2.38,2.38,0,0,0-.51-.8,2.18,2.18,0,0,0-.77-.52,2.84,2.84,0,0,0-2,0,2.24,2.24,0,0,0-.76.52,2.55,2.55,0,0,0-.51.8A3,3,0,0,0,84,161a2.44,2.44,0,0,0,.51.8,2.24,2.24,0,0,0,.76.52A2.66,2.66,0,0,0,86.3,162.49Z"/><path d="M79.34,147.93l10.27,4.56v1.3l-10.27-4.66v5.52H78.28v-6.72Z"/><path d="M78.09,142.17a3.21,3.21,0,0,1,.56-2A3.86,3.86,0,0,1,80.07,139a6.17,6.17,0,0,1,1.9-.56,13.08,13.08,0,0,1,4,0,6.17,6.17,0,0,1,1.9.56,3.86,3.86,0,0,1,1.42,1.17,3.73,3.73,0,0,1,0,3.93,3.86,3.86,0,0,1-1.42,1.17,6.45,6.45,0,0,1-1.9.56,14,14,0,0,1-4,0,6.45,6.45,0,0,1-1.9-.56,3.86,3.86,0,0,1-1.42-1.17A3.24,3.24,0,0,1,78.09,142.17Zm1,0a2.09,2.09,0,0,0,.5,1.47,3.19,3.19,0,0,0,1.23.81,6.18,6.18,0,0,0,1.57.34c.56.05,1.06.07,1.5.07s1,0,1.51-.07a6.18,6.18,0,0,0,1.57-.34,3.19,3.19,0,0,0,1.23-.81,2.44,2.44,0,0,0,0-2.93A3.08,3.08,0,0,0,87,139.9a6.18,6.18,0,0,0-1.57-.34c-.56-.05-1.06-.07-1.51-.07s-.94,0-1.5.07a6.18,6.18,0,0,0-1.57.34,3.08,3.08,0,0,0-1.23.81A2.09,2.09,0,0,0,79.14,142.17Z"/><path d="M83.78,132.13c-.27,0-.55,0-.83,0l-.83.06v-1.14h1.14v0a2.52,2.52,0,0,1-1-1.07,3.05,3.05,0,0,1-.33-1.35A3.83,3.83,0,0,1,82,128a2.73,2.73,0,0,1,.23-.66,2.39,2.39,0,0,1,.48-.6,2.45,2.45,0,0,1,.78-.47,2.5,2.5,0,0,1-1.14-1,2.82,2.82,0,0,1-.41-1.45,2.69,2.69,0,0,1,.76-2.12,3.12,3.12,0,0,1,2.17-.69h4.75V122H85.24a3.2,3.2,0,0,0-1.74.4,1.65,1.65,0,0,0-.61,1.49,2,2,0,0,0,.23,1,1.84,1.84,0,0,0,.62.65,2.42,2.42,0,0,0,.87.36,4.17,4.17,0,0,0,1,.11h4v1.06H85.24a3.11,3.11,0,0,0-1.74.4,1.64,1.64,0,0,0-.61,1.49,3.61,3.61,0,0,0,.06.44,1.74,1.74,0,0,0,.35.71,2.46,2.46,0,0,0,.87.66,3.51,3.51,0,0,0,1.6.3h3.84v1.06Z"/><path d="M83.78,118.49l-.83,0-.83,0v-1.13h1.14v0a2.52,2.52,0,0,1-1-1.07,3.05,3.05,0,0,1-.33-1.35,3.83,3.83,0,0,1,.06-.65,2.59,2.59,0,0,1,.23-.66,2.39,2.39,0,0,1,.48-.6,2.28,2.28,0,0,1,.78-.47,2.56,2.56,0,0,1-1.14-1,2.85,2.85,0,0,1-.41-1.45,2.73,2.73,0,0,1,.76-2.13,3.17,3.17,0,0,1,2.17-.68h4.75v1H85.24a3.2,3.2,0,0,0-1.74.4,1.65,1.65,0,0,0-.61,1.49,2,2,0,0,0,.23,1,1.84,1.84,0,0,0,.62.65,2.42,2.42,0,0,0,.87.36,4.17,4.17,0,0,0,1,.11h4v1.06H85.24a3.11,3.11,0,0,0-1.74.4,1.64,1.64,0,0,0-.61,1.49,3.61,3.61,0,0,0,.06.44,1.8,1.8,0,0,0,.35.71,2.58,2.58,0,0,0,.87.66,3.51,3.51,0,0,0,1.6.3h3.84v1Z"/></g><line class="cls-1" x1="199.28" y1="122.24" x2="199.61" y2="73.9"/><line class="cls-1" x1="198.55" y1="122.23" x2="200.01" y2="122.24"/><line class="cls-1" x1="198.89" y1="73.9" x2="200.34" y2="73.91"/><g class="cls-2"><path d="M219.11,116.31l-.06,7.48h-1.32l-4.56-4.72q-.25-.27-.54-.54A7.16,7.16,0,0,0,212,118a2.85,2.85,0,0,0-.67-.35,2,2,0,0,0-.73-.14,1.91,1.91,0,0,0-.84.17,1.7,1.7,0,0,0-.62.48,2.07,2.07,0,0,0-.4.73,2.84,2.84,0,0,0-.14.88,2.38,2.38,0,0,0,.47,1.53,2.11,2.11,0,0,0,1.29.82l-.14,1.27a3.21,3.21,0,0,1-2-1.22,3.76,3.76,0,0,1-.7-2.32,5,5,0,0,1,.19-1.36,3.68,3.68,0,0,1,.56-1.12,2.7,2.7,0,0,1,.93-.78,2.79,2.79,0,0,1,1.29-.28,3.29,3.29,0,0,1,1.2.22,5,5,0,0,1,1,.54,6.54,6.54,0,0,1,.9.77c.29.28.57.57.85.87l3.51,3.73,0-6.18Z"/><path d="M219.17,107.07l0,7.48h-1.33l-4.56-4.72-.54-.53a4.85,4.85,0,0,0-.61-.49,3.48,3.48,0,0,0-.66-.35,2.07,2.07,0,0,0-.74-.14,2,2,0,0,0-.83.17,1.68,1.68,0,0,0-.63.49,2.52,2.52,0,0,0-.4.72,2.84,2.84,0,0,0-.14.88,2.49,2.49,0,0,0,.47,1.54,2.21,2.21,0,0,0,1.29.82l-.14,1.26a3.12,3.12,0,0,1-2-1.22,3.74,3.74,0,0,1-.71-2.32,4.89,4.89,0,0,1,.2-1.35,3.32,3.32,0,0,1,.56-1.13,2.75,2.75,0,0,1,.92-.77,2.79,2.79,0,0,1,1.29-.29,3.51,3.51,0,0,1,1.2.22,4.58,4.58,0,0,1,1,.55,7.19,7.19,0,0,1,.91.76c.28.28.57.58.84.88l3.51,3.73,0-6.18Z"/><path d="M209,98.32l0,4.8,3.41.1a4.06,4.06,0,0,1-.2-.78,5.39,5.39,0,0,1-.06-.8,4.31,4.31,0,0,1,.28-1.51,3.46,3.46,0,0,1,.77-1.16,3.39,3.39,0,0,1,1.16-.76,3.63,3.63,0,0,1,1.45-.26,3.49,3.49,0,0,1,1.49.31,3.36,3.36,0,0,1,1.16.84,3.68,3.68,0,0,1,.76,1.25,4.76,4.76,0,0,1,.26,1.58,4,4,0,0,1-.53,2,3.36,3.36,0,0,1-1.51,1.37l-.49-1.2a2.6,2.6,0,0,0,1.07-.92,2.35,2.35,0,0,0,.4-1.37,2.75,2.75,0,0,0-.19-1,2.56,2.56,0,0,0-.53-.84,2.43,2.43,0,0,0-.8-.57,2.55,2.55,0,0,0-1-.22,2.79,2.79,0,0,0-1.09.21,2.59,2.59,0,0,0-.86.59,2.7,2.7,0,0,0-.55.91,3.42,3.42,0,0,0-.21,1.17,4.87,4.87,0,0,0,.16,1.25,6.08,6.08,0,0,0,.45,1.19l-5.87-.15,0-6Z"/><path d="M213.46,91c-.28,0-.56,0-.84,0l-.83,0V89.91h1.14v0a2.54,2.54,0,0,1-1-1.11,3.21,3.21,0,0,1-.32-1.41,4.06,4.06,0,0,1,.06-.67,2.82,2.82,0,0,1,.24-.69,2.12,2.12,0,0,1,.48-.62,2.47,2.47,0,0,1,.78-.48,2.51,2.51,0,0,1-1.12-1.07,3.27,3.27,0,0,1,.37-3.71,3.08,3.08,0,0,1,2.17-.7l4.75,0v1.09l-4.37,0a3.07,3.07,0,0,0-1.74.41,1.71,1.71,0,0,0-.62,1.54,2.15,2.15,0,0,0,.22,1,2,2,0,0,0,.62.68,2.63,2.63,0,0,0,.87.37,4.17,4.17,0,0,0,1,.13l4,0v1.09l-4.37,0a3.17,3.17,0,0,0-1.75.4,1.77,1.77,0,0,0-.62,1.55,3.94,3.94,0,0,0,.06.45,1.84,1.84,0,0,0,.35.74,2.6,2.6,0,0,0,.86.7,3.48,3.48,0,0,0,1.6.32l3.84,0v1.1Z"/><path d="M213.55,76.87c-.27,0-.55,0-.83,0l-.83,0V75.76H213v0a2.47,2.47,0,0,1-1-1.11,3.29,3.29,0,0,1-.33-1.4,5.82,5.82,0,0,1,.07-.68,2.9,2.9,0,0,1,.24-.68,2.26,2.26,0,0,1,.47-.62,2.47,2.47,0,0,1,.79-.49,2.51,2.51,0,0,1-1.13-1.06,3,3,0,0,1-.4-1.51,2.91,2.91,0,0,1,.77-2.2,3.06,3.06,0,0,1,2.18-.7l4.75,0v1.1l-4.37,0a3.05,3.05,0,0,0-1.74.4,1.73,1.73,0,0,0-.62,1.54,2,2,0,0,0,.22,1,1.91,1.91,0,0,0,.61.68,2.84,2.84,0,0,0,.87.38,4.31,4.31,0,0,0,1,.12l4,0v1.1l-4.36,0a3.09,3.09,0,0,0-1.75.4,1.76,1.76,0,0,0-.62,1.54,3.74,3.74,0,0,0,.06.46,1.72,1.72,0,0,0,.35.74,2.6,2.6,0,0,0,.86.7,3.46,3.46,0,0,0,1.6.31l3.84,0v1.1Z"/></g><polygon class="cls-3" points="172.38 74.03 188.54 122.11 111.46 122.11 127.63 74.03 172.38 74.03"/><path class="cls-3" d="M111.91,121h76.27m-60.8-46h45.3"/><path class="cls-3" d="M129,75.17l-13.1,45.7M133,75.15l-10.48,45.72M137,75.13l-7.86,45.74M141,75.1l-5.25,45.77m9.23-45.79-2.63,45.79m26.46-45.7,13.1,45.7M164.79,75.15l10.48,45.72M160.81,75.13l7.87,45.74M156.84,75.1l5.24,45.77m-9.23-45.79,2.63,45.79m-6.6-45.81v45.81"/><rect class="cls-3" x="120.65" y="215.21" width="56.76" height="2.06"/><line class="cls-3" x1="147.21" y1="130.95" x2="151.06" y2="130.95"/><path class="cls-3" d="M151.07,202.34V131s1-9.09,3.6-8.92-14.24,0-11.07,0,3.61,8.92,3.61,8.92v71.39Z"/><path class="cls-3" d="M177.41,215.21s-16-1.13-23.47-3.91c-3.67-1.37-3-8.86-3-8.86l-3.58-.1s.53,7.46-3.09,8.84c-7.13,2.71-23.64,4-23.64,4Z"/></svg>