<svg id="romeo_soft_S1" data-name="romeo soft S1" xmlns="http://www.w3.org/2000/svg" viewBox="0 0 300 263"><defs><style>.cls-1{isolation:isolate;}.cls-2,.cls-3,.cls-4,.cls-5,.cls-6,.cls-7{fill:none;}.cls-2{stroke:#000;}.cls-2,.cls-3,.cls-6{stroke-width:0.5px;}.cls-3,.cls-4,.cls-5,.cls-6,.cls-7{stroke:#1d1d1b;}.cls-3,.cls-4,.cls-5{stroke-miterlimit:3.86;}.cls-4,.cls-7{stroke-width:0.37px;}.cls-5{stroke-width:0.18px;}.cls-6,.cls-7{stroke-linejoin:round;}</style></defs><title>romeo-soft-suspension-1-starck-flos-F6105007-spech-tech-02-300x263</title><g class="cls-1"><path d="M86.51,108.84V107.2h1v1.64h2.69V110H87.56v4.89H86.25l-7.32-4.57v-1.47ZM80.08,110v0l6.43,3.9V110Z"/><path d="M78.73,102.15a3.24,3.24,0,0,1,.56-2A3.89,3.89,0,0,1,80.72,99a6.39,6.39,0,0,1,1.89-.56,13.76,13.76,0,0,1,2-.14,13.53,13.53,0,0,1,2,.14,6.37,6.37,0,0,1,1.9.56,3.89,3.89,0,0,1,1.43,1.17,3.75,3.75,0,0,1,0,3.94,3.77,3.77,0,0,1-1.43,1.16,6.09,6.09,0,0,1-1.9.56,13.58,13.58,0,0,1-2,.15,13.82,13.82,0,0,1-2-.15,6.11,6.11,0,0,1-1.89-.56,3.77,3.77,0,0,1-1.43-1.16A3.26,3.26,0,0,1,78.73,102.15Zm1.06,0a2,2,0,0,0,.5,1.46,3.08,3.08,0,0,0,1.23.81,5.7,5.7,0,0,0,1.57.34c.55,0,1,.08,1.5.08s1,0,1.5-.08a5.7,5.7,0,0,0,1.57-.34,3.08,3.08,0,0,0,1.23-.81,2.07,2.07,0,0,0,.5-1.46,2.09,2.09,0,0,0-.5-1.47,3.3,3.3,0,0,0-1.23-.81,6.09,6.09,0,0,0-1.57-.34c-.55,0-1-.07-1.5-.07s-1,0-1.5.07a6.09,6.09,0,0,0-1.57.34,3.3,3.3,0,0,0-1.23.81A2,2,0,0,0,79.79,102.15Z"/><path d="M78.73,93.25a3.24,3.24,0,0,1,.56-2,3.77,3.77,0,0,1,1.43-1.16,6.11,6.11,0,0,1,1.89-.56,13.82,13.82,0,0,1,2-.15,13.58,13.58,0,0,1,2,.15,6.09,6.09,0,0,1,1.9.56,3.77,3.77,0,0,1,1.43,1.16,3.75,3.75,0,0,1,0,3.94,3.89,3.89,0,0,1-1.43,1.17,6.67,6.67,0,0,1-1.9.56,15.09,15.09,0,0,1-2,.14,15.36,15.36,0,0,1-2-.14,6.7,6.7,0,0,1-1.89-.56,3.89,3.89,0,0,1-1.43-1.17A3.24,3.24,0,0,1,78.73,93.25Zm1.06,0a2,2,0,0,0,.5,1.47,3.17,3.17,0,0,0,1.23.8,6.09,6.09,0,0,0,1.57.35c.55,0,1,.07,1.5.07s1,0,1.5-.07a6.09,6.09,0,0,0,1.57-.35,3.17,3.17,0,0,0,1.23-.8,2.09,2.09,0,0,0,.5-1.47,2.05,2.05,0,0,0-.5-1.46A3.08,3.08,0,0,0,87.66,91a5.7,5.7,0,0,0-1.57-.34c-.55,0-1-.08-1.5-.08s-1,0-1.5.08a5.7,5.7,0,0,0-1.57.34,3.08,3.08,0,0,0-1.23.81A2,2,0,0,0,79.79,93.25Z"/><path d="M78.73,84.35a3.21,3.21,0,0,1,.56-2,3.89,3.89,0,0,1,1.43-1.17,6.39,6.39,0,0,1,1.89-.56,13.76,13.76,0,0,1,2-.14,13.53,13.53,0,0,1,2,.14,6.37,6.37,0,0,1,1.9.56,3.89,3.89,0,0,1,1.43,1.17,3.73,3.73,0,0,1,0,3.93,3.89,3.89,0,0,1-1.43,1.17,6.09,6.09,0,0,1-1.9.56,13.58,13.58,0,0,1-2,.15,13.82,13.82,0,0,1-2-.15,6.11,6.11,0,0,1-1.89-.56,3.89,3.89,0,0,1-1.43-1.17A3.22,3.22,0,0,1,78.73,84.35Zm1.06,0a2,2,0,0,0,.5,1.47,3.08,3.08,0,0,0,1.23.81,6.09,6.09,0,0,0,1.57.34c.55,0,1,.07,1.5.07s1,0,1.5-.07a6.09,6.09,0,0,0,1.57-.34,3.08,3.08,0,0,0,1.23-.81,2.4,2.4,0,0,0,0-2.93,3.08,3.08,0,0,0-1.23-.81,6.09,6.09,0,0,0-1.57-.34c-.55,0-1-.07-1.5-.07s-1,0-1.5.07a6.09,6.09,0,0,0-1.57.34,3.08,3.08,0,0,0-1.23.81A2,2,0,0,0,79.79,84.35Z"/><path d="M84.43,74.31c-.28,0-.56,0-.83,0l-.83.06V73.25H83.9v0a2.44,2.44,0,0,1-1-1.07,3.07,3.07,0,0,1-.34-1.35,3.9,3.9,0,0,1,.07-.65,2.23,2.23,0,0,1,.7-1.26,2.51,2.51,0,0,1,.79-.47,2.45,2.45,0,0,1-1.14-1A2.73,2.73,0,0,1,82.57,66a2.76,2.76,0,0,1,.76-2.13,3.12,3.12,0,0,1,2.17-.69h4.75v1H85.89a3.17,3.17,0,0,0-1.75.41,1.65,1.65,0,0,0-.61,1.48,1.92,1.92,0,0,0,.24,1,1.87,1.87,0,0,0,.61.64,2.58,2.58,0,0,0,.87.36,4.31,4.31,0,0,0,1,.11h4v1.06H85.89a3.17,3.17,0,0,0-1.75.4,1.67,1.67,0,0,0-.61,1.49c0,.06,0,.21.07.44a1.62,1.62,0,0,0,.35.71,2.55,2.55,0,0,0,.86.67,3.69,3.69,0,0,0,1.6.29h3.84v1.06Z"/><path d="M84.43,60.68c-.28,0-.56,0-.83,0s-.56,0-.83.06V59.62H83.9v0a2.44,2.44,0,0,1-1-1.07,3.07,3.07,0,0,1-.34-1.35,3.9,3.9,0,0,1,.07-.65,2.25,2.25,0,0,1,.23-.66,2.34,2.34,0,0,1,.47-.6,2.51,2.51,0,0,1,.79-.47,2.5,2.5,0,0,1-1.14-1,2.76,2.76,0,0,1-.42-1.45,2.73,2.73,0,0,1,.76-2.12,3.12,3.12,0,0,1,2.17-.69h4.75v1.05H85.89a3.26,3.26,0,0,0-1.75.4,1.68,1.68,0,0,0-.61,1.49,1.86,1.86,0,0,0,.24,1,1.81,1.81,0,0,0,.61.65,2.58,2.58,0,0,0,.87.36,4.31,4.31,0,0,0,1,.11h4v1.06H85.89a3.17,3.17,0,0,0-1.75.4,1.67,1.67,0,0,0-.61,1.49c0,.06,0,.21.07.44a1.67,1.67,0,0,0,.35.71,2.53,2.53,0,0,0,.86.66,3.53,3.53,0,0,0,1.6.3h3.84v1.06Z"/></g><g class="cls-1"><path d="M89,182v7.2H87.62L83,184.66c-.17-.17-.35-.34-.55-.51a4.43,4.43,0,0,0-.6-.47,3,3,0,0,0-.68-.33,2,2,0,0,0-.73-.13,1.84,1.84,0,0,0-.83.17,1.63,1.63,0,0,0-.63.47,2.08,2.08,0,0,0-.39.7,2.66,2.66,0,0,0-.14.85,2.28,2.28,0,0,0,.48,1.47,2.2,2.2,0,0,0,1.3.79l-.13,1.21a3.18,3.18,0,0,1-2-1.16,3.51,3.51,0,0,1-.72-2.23,4.59,4.59,0,0,1,.18-1.3,3.49,3.49,0,0,1,.55-1.09,2.67,2.67,0,0,1,.92-.75,2.79,2.79,0,0,1,1.29-.28,3.29,3.29,0,0,1,1.2.2,4.53,4.53,0,0,1,1,.52,6.85,6.85,0,0,1,.91.72l.85.84,3.53,3.57V182Z"/><path d="M89,173.07v7.2H87.62L83,175.76c-.17-.17-.35-.34-.55-.51a4.35,4.35,0,0,0-.6-.46,3.6,3.6,0,0,0-.68-.34,2,2,0,0,0-.73-.13,2,2,0,0,0-.83.17A1.74,1.74,0,0,0,79,175a2.13,2.13,0,0,0-.39.71,2.55,2.55,0,0,0-.14.84A2.33,2.33,0,0,0,79,178a2.23,2.23,0,0,0,1.3.78L80.13,180a3.18,3.18,0,0,1-2-1.16,3.54,3.54,0,0,1-.72-2.24,4.59,4.59,0,0,1,.18-1.3,3.61,3.61,0,0,1,.55-1.09,2.92,2.92,0,0,1,.92-.75,2.79,2.79,0,0,1,1.29-.28,3.51,3.51,0,0,1,1.2.2,5,5,0,0,1,1,.52,6.93,6.93,0,0,1,.91.73c.29.27.57.55.85.84L87.89,179v-6Z"/><path d="M78.68,164.71v4.62l3.4.08a4.17,4.17,0,0,1-.2-.75,4,4,0,0,1-.07-.77,3.83,3.83,0,0,1,.27-1.46A3.38,3.38,0,0,1,84,164.57a3.76,3.76,0,0,1,1.44-.26,3.82,3.82,0,0,1,1.5.28,3.69,3.69,0,0,1,1.17.8,3.77,3.77,0,0,1,.76,1.21,4.17,4.17,0,0,1,.27,1.51,3.75,3.75,0,0,1-.51,1.94,3.34,3.34,0,0,1-1.51,1.33l-.49-1.15a2.68,2.68,0,0,0,1.06-.9,2.28,2.28,0,0,0,.39-1.32,2.43,2.43,0,0,0-.2-1,2.72,2.72,0,0,0-.53-.8,2.46,2.46,0,0,0-.8-.54,2.37,2.37,0,0,0-1-.2,2.75,2.75,0,0,0-1.09.21,2.54,2.54,0,0,0-.86.57,2.57,2.57,0,0,0-.55.88,3.14,3.14,0,0,0-.19,1.12,4.16,4.16,0,0,0,.17,1.21,5.64,5.64,0,0,0,.45,1.14l-5.87-.11v-5.77Z"/><path d="M83.12,157.65l-.83,0-.83.06v-1.14H82.6v0a2.5,2.5,0,0,1-1-1.06,3.12,3.12,0,0,1-.33-1.35,3.74,3.74,0,0,1,.06-.65,2.8,2.8,0,0,1,.23-.67,2.39,2.39,0,0,1,.48-.6,2.65,2.65,0,0,1,.78-.47,2.48,2.48,0,0,1-1.14-1,2.87,2.87,0,0,1-.41-1.45,2.73,2.73,0,0,1,.76-2.13,3.12,3.12,0,0,1,2.17-.69H89v1.06H84.58a3.11,3.11,0,0,0-1.74.4,1.64,1.64,0,0,0-.61,1.49,1.82,1.82,0,0,0,.85,1.64,2.84,2.84,0,0,0,.87.36,4.74,4.74,0,0,0,1,.11h4v1.05H84.58a3.2,3.2,0,0,0-1.74.4,1.65,1.65,0,0,0-.61,1.49,3.37,3.37,0,0,0,.06.44,1.62,1.62,0,0,0,.35.71,2.6,2.6,0,0,0,.87.67,3.52,3.52,0,0,0,1.6.29H89v1.06Z"/><path d="M83.12,144l-.83,0-.83.06V143H82.6v0a2.55,2.55,0,0,1-1-1.06,3.12,3.12,0,0,1-.33-1.36,3.72,3.72,0,0,1,.06-.64,2.8,2.8,0,0,1,.23-.67,2.39,2.39,0,0,1,.48-.6,2.65,2.65,0,0,1,.78-.47,2.45,2.45,0,0,1-1.14-1,2.81,2.81,0,0,1-.41-1.44,2.73,2.73,0,0,1,.76-2.13,3.12,3.12,0,0,1,2.17-.69H89v1.06H84.58a3.11,3.11,0,0,0-1.74.4,1.62,1.62,0,0,0-.61,1.48,2,2,0,0,0,.23,1,1.9,1.9,0,0,0,.62.64,2.42,2.42,0,0,0,.87.36,4.17,4.17,0,0,0,1,.12h4V139H84.58a3.2,3.2,0,0,0-1.74.4,1.64,1.64,0,0,0-.61,1.49,3.61,3.61,0,0,0,.06.44,1.62,1.62,0,0,0,.35.71,2.6,2.6,0,0,0,.87.67,3.66,3.66,0,0,0,1.6.29H89V144Z"/></g><line class="cls-2" x1="108.07" y1="200.51" x2="191.56" y2="200.51"/><line class="cls-2" x1="108.07" y1="198.85" x2="108.07" y2="202.17"/><line class="cls-2" x1="191.56" y1="198.85" x2="191.56" y2="202.17"/><g class="cls-1"><path d="M123.58,214.73a3.62,3.62,0,0,1,.68,1.16,4.29,4.29,0,0,1-.05,3,3.65,3.65,0,0,1-2.08,2.07,4.4,4.4,0,0,1-3,.07,3.78,3.78,0,0,1-1.12-.61l-1.07,1.09-.51-.49,1.06-1.09a3.67,3.67,0,0,1-.69-1.18,4.17,4.17,0,0,1-.24-1.43,4.22,4.22,0,0,1,.29-1.57,4,4,0,0,1,.83-1.25,3.82,3.82,0,0,1,1.25-.82,4.18,4.18,0,0,1,1.6-.3,4.45,4.45,0,0,1,1.39.22,3.65,3.65,0,0,1,1.15.62l1.06-1.09.51.49Zm-1.25.26a2.63,2.63,0,0,0-1.8-.63,2.8,2.8,0,0,0-1.18.24,2.45,2.45,0,0,0-.88.63,2.86,2.86,0,0,0-.56.94,3.46,3.46,0,0,0-.2,1.17,3,3,0,0,0,.54,1.82Zm-3.6,4.72a2.91,2.91,0,0,0,.81.45,3,3,0,0,0,1,.16,2.75,2.75,0,0,0,1.17-.24,2.48,2.48,0,0,0,.89-.63,2.64,2.64,0,0,0,.57-.94,3.42,3.42,0,0,0,.2-1.17,3.06,3.06,0,0,0-.55-1.82Z"/><path d="M133,214.62h.59a4.19,4.19,0,0,0,.95-.11,2.44,2.44,0,0,0,.8-.36,1.79,1.79,0,0,0,.53-.65,2.06,2.06,0,0,0,.2-1,1.82,1.82,0,0,0-.55-1.42,2.23,2.23,0,0,0-1.54-.5,2.49,2.49,0,0,0-1.27.32,2.42,2.42,0,0,0-.89.93l-1-.51a3.42,3.42,0,0,1,1.3-1.36,3.75,3.75,0,0,1,1.83-.44,4.07,4.07,0,0,1,1.27.2,3,3,0,0,1,1,.56,2.76,2.76,0,0,1,1,2.19,2.58,2.58,0,0,1-.15.88,2.72,2.72,0,0,1-.41.75,3.1,3.1,0,0,1-.62.58,2.73,2.73,0,0,1-.74.38l.05,0a2.64,2.64,0,0,1,.88.36,2.67,2.67,0,0,1,.69.65,3.2,3.2,0,0,1,.45.86,3.39,3.39,0,0,1,.16,1,3.2,3.2,0,0,1-.29,1.39,3,3,0,0,1-.78,1,3.34,3.34,0,0,1-1.16.63,4.5,4.5,0,0,1-1.39.22,4.21,4.21,0,0,1-2.17-.55,3.3,3.3,0,0,1-1.4-1.74l1.22-.37a2.37,2.37,0,0,0,.86,1.21,2.79,2.79,0,0,0,1.59.39,2.53,2.53,0,0,0,.91-.16,2.34,2.34,0,0,0,.76-.46,1.93,1.93,0,0,0,.51-.71,2.28,2.28,0,0,0,.19-.91,2.21,2.21,0,0,0-.24-1.08,2.09,2.09,0,0,0-.64-.71,2.81,2.81,0,0,0-.92-.39,4.83,4.83,0,0,0-1.08-.12H133Z"/><path d="M145.28,217.34h1.63v1.06h-1.63v2.68h-1.15V218.4h-4.9v-1.32l4.58-7.32h1.47Zm-1.15-6.43h0l-3.9,6.43h3.94Z"/><path d="M152,209.56a3.21,3.21,0,0,1,2,.56,3.7,3.7,0,0,1,1.17,1.43,6.11,6.11,0,0,1,.56,1.89,13.14,13.14,0,0,1,0,4,6.11,6.11,0,0,1-.56,1.89,3.7,3.7,0,0,1-1.17,1.43,3.73,3.73,0,0,1-3.93,0,3.89,3.89,0,0,1-1.17-1.43,6.39,6.39,0,0,1-.56-1.89,14.07,14.07,0,0,1,0-4,6.39,6.39,0,0,1,.56-1.89,3.89,3.89,0,0,1,1.17-1.43A3.24,3.24,0,0,1,152,209.56Zm0,1.06a2.09,2.09,0,0,0-1.47.5,3.19,3.19,0,0,0-.81,1.23,6.09,6.09,0,0,0-.34,1.57c0,.55-.07,1.05-.07,1.5s0,1,.07,1.5a6.09,6.09,0,0,0,.34,1.57,3.19,3.19,0,0,0,.81,1.23,2.4,2.4,0,0,0,2.93,0,3.08,3.08,0,0,0,.81-1.23,6.09,6.09,0,0,0,.34-1.57c0-.55.07-1,.07-1.5s0-.95-.07-1.5a6.09,6.09,0,0,0-.34-1.57,3.08,3.08,0,0,0-.81-1.23A2.09,2.09,0,0,0,152,210.62Z"/><path d="M162,215.26c0-.28,0-.55,0-.83s0-.56-.06-.83h1.14v1.13h0a2.44,2.44,0,0,1,1.07-1,3.07,3.07,0,0,1,1.35-.34,3.9,3.9,0,0,1,.65.07,2.25,2.25,0,0,1,.66.23,2.34,2.34,0,0,1,.6.47,2.51,2.51,0,0,1,.47.79,2.5,2.5,0,0,1,1-1.14,3.06,3.06,0,0,1,3.57.34,3.12,3.12,0,0,1,.69,2.17v4.75h-1.05v-4.36a3.26,3.26,0,0,0-.4-1.75,1.68,1.68,0,0,0-1.49-.61,1.86,1.86,0,0,0-1,.24,1.81,1.81,0,0,0-.65.61,2.58,2.58,0,0,0-.36.87,4.31,4.31,0,0,0-.11,1v4h-1.06v-4.36a3.17,3.17,0,0,0-.4-1.75,1.67,1.67,0,0,0-1.49-.61l-.44.07a1.67,1.67,0,0,0-.71.35,2.42,2.42,0,0,0-.66.86,3.53,3.53,0,0,0-.3,1.6v3.84H162Z"/><path d="M175.65,215.26c0-.28,0-.55,0-.83s0-.56-.05-.83h1.13v1.13h0a2.44,2.44,0,0,1,1.07-1,3.07,3.07,0,0,1,1.35-.34,3.9,3.9,0,0,1,.65.07,2.25,2.25,0,0,1,.66.23,2.18,2.18,0,0,1,.6.47,2.33,2.33,0,0,1,.47.79,2.56,2.56,0,0,1,1-1.14,3.07,3.07,0,0,1,3.58.34,3.17,3.17,0,0,1,.68,2.17v4.75h-1.05v-4.36a3.26,3.26,0,0,0-.4-1.75,1.68,1.68,0,0,0-1.49-.61,1.87,1.87,0,0,0-1.64.85,2.58,2.58,0,0,0-.36.87,4.31,4.31,0,0,0-.11,1v4H180.7v-4.36a3.17,3.17,0,0,0-.4-1.75,1.65,1.65,0,0,0-1.49-.61l-.44.07a1.67,1.67,0,0,0-.71.35,2.67,2.67,0,0,0-.66.86,3.53,3.53,0,0,0-.3,1.6v3.84h-1Z"/></g><line class="cls-2" x1="98.34" y1="142.18" x2="98.34" y2="45.86"/><line class="cls-2" x1="96.5" y1="45.84" x2="100.04" y2="45.84"/><line class="cls-2" x1="95.82" y1="142.18" x2="100.87" y2="142.18"/><line class="cls-2" x1="98.34" y1="190.15" x2="98.34" y2="142.2"/><line class="cls-2" x1="96.5" y1="142.18" x2="100.04" y2="142.18"/><line class="cls-2" x1="95.82" y1="190.15" x2="100.87" y2="190.15"/><path class="cls-3" d="M164.59,142,154,51.65h1.54S157.07,48,157.65,47H142.24l2.45,4.63h.45c-.2,1.34-10.8,90.34-10.8,90.34"/><line class="cls-4" x1="144.69" y1="51.65" x2="154.08" y2="51.65"/><line class="cls-4" x1="151.81" y1="51.71" x2="157.07" y2="142.18"/><path class="cls-5" d="M150.33,51.84s-1.73,14.06-.77,23.31,1.74,10.59,2.12,23.12-1.81,22.35-2.31,26.58c-.77,6.55,0,15.8,1.35,17.14"/><path class="cls-5" d="M151.1,51.84s-1.73,14.06-.77,23.31,1.74,10.59,2.12,23.12-1.81,22.35-2.31,26.58c-.77,6.55,0,15.8,1.35,17.14"/><polygon class="cls-6" points="172.66 142.16 189.27 191.56 110.08 191.56 126.69 142.16 172.66 142.16"/><line class="cls-7" x1="126.4" y1="143.37" x2="173.07" y2="143.37"/><line class="cls-6" x1="110.31" y1="190.15" x2="188.76" y2="190.15"/><line class="cls-6" x1="127.92" y1="143.36" x2="112.87" y2="189.94"/><line class="cls-6" x1="130.48" y1="143.36" x2="117.2" y2="189.94"/><line class="cls-6" x1="133.05" y1="143.36" x2="121.54" y2="189.94"/><line class="cls-6" x1="135.62" y1="143.36" x2="125.88" y2="189.94"/><line class="cls-6" x1="138.18" y1="143.36" x2="130.22" y2="189.94"/><line class="cls-6" x1="140.75" y1="143.36" x2="134.55" y2="189.94"/><line class="cls-6" x1="143.32" y1="143.36" x2="138.89" y2="189.94"/><line class="cls-6" x1="145.88" y1="143.36" x2="143.23" y2="189.94"/><line class="cls-6" x1="148.45" y1="143.36" x2="147.56" y2="189.94"/><line class="cls-6" x1="151.02" y1="143.36" x2="151.9" y2="189.94"/><line class="cls-6" x1="153.58" y1="143.36" x2="156.24" y2="189.94"/><line class="cls-6" x1="156.15" y1="143.36" x2="160.58" y2="189.94"/><line class="cls-6" x1="158.72" y1="143.36" x2="164.91" y2="189.94"/><line class="cls-6" x1="161.28" y1="143.36" x2="169.25" y2="189.94"/><line class="cls-6" x1="163.85" y1="143.36" x2="173.59" y2="189.94"/><line class="cls-6" x1="166.42" y1="143.36" x2="177.93" y2="189.94"/><line class="cls-6" x1="168.98" y1="143.36" x2="182.26" y2="189.94"/><line class="cls-6" x1="171.55" y1="143.36" x2="186.6" y2="189.94"/></svg>