<svg id="romeo_babe_soft_S" data-name="romeo babe soft S" xmlns="http://www.w3.org/2000/svg" viewBox="0 0 300 263"><defs><style>.cls-1,.cls-3,.cls-4{fill:none;}.cls-1{stroke:#000;stroke-width:0.5px;}.cls-2{isolation:isolate;}.cls-3,.cls-4{stroke:#1d1d1b;stroke-miterlimit:3.86;}.cls-3{stroke-width:0.23px;}.cls-4{stroke-width:0.14px;}</style></defs><title>romeo-babe-soft-suspension-starck-flos-F6124007-spech-tech-02-300x263</title><line class="cls-1" x1="125.15" y1="182.93" x2="174.39" y2="182.93"/><line class="cls-1" x1="125.15" y1="181.7" x2="125.15" y2="184.17"/><line class="cls-1" x1="174.39" y1="181.7" x2="174.39" y2="184.17"/><g class="cls-2"><path d="M123.58,196.71a3.62,3.62,0,0,1,.68,1.16,4.29,4.29,0,0,1-.05,3,3.65,3.65,0,0,1-2.08,2.07,4.4,4.4,0,0,1-3,.07,3.78,3.78,0,0,1-1.12-.61l-1.07,1.09-.51-.49,1.06-1.09a3.56,3.56,0,0,1-.69-1.18,4.17,4.17,0,0,1-.24-1.43,4.22,4.22,0,0,1,.29-1.57,4,4,0,0,1,.83-1.25,3.82,3.82,0,0,1,1.25-.82,4.18,4.18,0,0,1,1.6-.3,4.45,4.45,0,0,1,1.39.22,3.65,3.65,0,0,1,1.15.62l1.06-1.09.51.49Zm-1.25.26a2.63,2.63,0,0,0-1.8-.63,2.8,2.8,0,0,0-1.18.24,2.45,2.45,0,0,0-.88.63,2.86,2.86,0,0,0-.56.94,3.46,3.46,0,0,0-.2,1.17,3,3,0,0,0,.54,1.82Zm-3.6,4.72a2.91,2.91,0,0,0,.81.45,3,3,0,0,0,1,.16,2.75,2.75,0,0,0,1.17-.24,2.48,2.48,0,0,0,.89-.63,2.64,2.64,0,0,0,.57-.94,3.42,3.42,0,0,0,.2-1.17,3.06,3.06,0,0,0-.55-1.82Z"/><path d="M135.29,203.06h-1.15v-9.88l-2,1.79-.72-.87,2.88-2.36h1Z"/><path d="M144.19,203.06H143v-9.88L141,195l-.72-.87,2.88-2.36h1Z"/><path d="M152,191.54a3.21,3.21,0,0,1,2,.56,3.7,3.7,0,0,1,1.17,1.43,6.11,6.11,0,0,1,.56,1.89,13.14,13.14,0,0,1,0,4,6.11,6.11,0,0,1-.56,1.89,3.7,3.7,0,0,1-1.17,1.43,3.73,3.73,0,0,1-3.93,0,3.89,3.89,0,0,1-1.17-1.43,6.39,6.39,0,0,1-.56-1.89,14.07,14.07,0,0,1,0-4,6.39,6.39,0,0,1,.56-1.89A3.89,3.89,0,0,1,150,192.1,3.24,3.24,0,0,1,152,191.54Zm0,1.06a2.09,2.09,0,0,0-1.47.5,3.19,3.19,0,0,0-.81,1.23,6.09,6.09,0,0,0-.34,1.57c0,.55-.07,1-.07,1.5s0,.95.07,1.5a6.09,6.09,0,0,0,.34,1.57,3.19,3.19,0,0,0,.81,1.23,2.4,2.4,0,0,0,2.93,0,3.08,3.08,0,0,0,.81-1.23,6.09,6.09,0,0,0,.34-1.57c0-.55.07-1.05.07-1.5s0-1-.07-1.5a6.09,6.09,0,0,0-.34-1.57,3.08,3.08,0,0,0-.81-1.23A2.09,2.09,0,0,0,152,192.6Z"/><path d="M162,197.24c0-.28,0-.55,0-.83s0-.56-.06-.83h1.14v1.13h0a2.5,2.5,0,0,1,1.07-1,3.07,3.07,0,0,1,1.35-.34,3.9,3.9,0,0,1,.65.07,2.25,2.25,0,0,1,.66.23,2.34,2.34,0,0,1,.6.47,2.63,2.63,0,0,1,.47.79,2.5,2.5,0,0,1,1-1.14,3.06,3.06,0,0,1,3.57.34,3.12,3.12,0,0,1,.69,2.17v4.75h-1.05V198.7a3.26,3.26,0,0,0-.4-1.75,1.68,1.68,0,0,0-1.49-.61,1.86,1.86,0,0,0-1,.24,1.81,1.81,0,0,0-.65.61,2.58,2.58,0,0,0-.36.87,4.31,4.31,0,0,0-.11,1v4h-1.06V198.7a3.17,3.17,0,0,0-.4-1.75,1.67,1.67,0,0,0-1.49-.61l-.44.07a1.67,1.67,0,0,0-.71.35,2.42,2.42,0,0,0-.66.86,3.53,3.53,0,0,0-.3,1.6v3.84H162Z"/><path d="M175.65,197.24c0-.28,0-.55,0-.83s0-.56-.05-.83h1.13v1.13h0a2.5,2.5,0,0,1,1.07-1,3.07,3.07,0,0,1,1.35-.34,3.9,3.9,0,0,1,.65.07,2.25,2.25,0,0,1,.66.23,2.18,2.18,0,0,1,.6.47,2.44,2.44,0,0,1,.47.79,2.56,2.56,0,0,1,1-1.14,3.07,3.07,0,0,1,3.58.34,3.17,3.17,0,0,1,.68,2.17v4.75h-1.05V198.7a3.26,3.26,0,0,0-.4-1.75,1.68,1.68,0,0,0-1.49-.61,1.87,1.87,0,0,0-1.64.85,2.58,2.58,0,0,0-.36.87,4.31,4.31,0,0,0-.11,1v4H180.7V198.7a3.17,3.17,0,0,0-.4-1.75,1.65,1.65,0,0,0-1.49-.61l-.44.07a1.67,1.67,0,0,0-.71.35,2.67,2.67,0,0,0-.66.86,3.53,3.53,0,0,0-.3,1.6v3.84h-1Z"/></g><polygon class="cls-3" points="125.15 174.06 174.39 174.06 163.41 140.25 136.13 140.25 125.15 174.06"/><line class="cls-4" x1="136.79" y1="141.32" x2="126.96" y2="172.89"/><line class="cls-4" x1="138.42" y1="141.32" x2="129.82" y2="172.89"/><line class="cls-4" x1="140.05" y1="141.32" x2="132.68" y2="172.89"/><line class="cls-4" x1="141.68" y1="141.32" x2="135.54" y2="172.89"/><line class="cls-4" x1="143.31" y1="141.32" x2="138.4" y2="172.89"/><line class="cls-4" x1="144.94" y1="141.32" x2="141.26" y2="172.89"/><line class="cls-4" x1="146.57" y1="141.32" x2="144.12" y2="172.89"/><line class="cls-4" x1="148.2" y1="141.32" x2="146.98" y2="172.89"/><line class="cls-4" x1="149.83" y1="141.32" x2="149.83" y2="172.89"/><line class="cls-4" x1="151.47" y1="141.32" x2="152.69" y2="172.89"/><line class="cls-4" x1="153.1" y1="141.32" x2="155.55" y2="172.89"/><line class="cls-4" x1="154.73" y1="141.32" x2="158.41" y2="172.89"/><line class="cls-4" x1="156.36" y1="141.32" x2="161.27" y2="172.89"/><line class="cls-4" x1="157.99" y1="141.32" x2="164.13" y2="172.89"/><line class="cls-4" x1="159.62" y1="141.32" x2="166.99" y2="172.89"/><line class="cls-4" x1="161.25" y1="141.32" x2="169.85" y2="172.89"/><line class="cls-4" x1="162.88" y1="141.32" x2="172.71" y2="172.89"/><path class="cls-3" d="M149.51,45.84S147,64.5,148.35,76.65s2.37,13.91,2.9,30.36a193,193,0,0,1-1.54,33.23"/><line class="cls-3" x1="135.77" y1="141.35" x2="163.64" y2="141.35"/><line class="cls-3" x1="125.52" y1="172.89" x2="173.93" y2="172.89"/><polygon class="cls-3" points="125.15 174.06 174.39 174.06 163.41 140.25 136.13 140.25 125.15 174.06"/><line class="cls-4" x1="136.79" y1="141.32" x2="126.96" y2="172.89"/><line class="cls-4" x1="138.42" y1="141.32" x2="129.82" y2="172.89"/><line class="cls-4" x1="140.05" y1="141.32" x2="132.68" y2="172.89"/><line class="cls-4" x1="141.68" y1="141.32" x2="135.54" y2="172.89"/><line class="cls-4" x1="143.31" y1="141.32" x2="138.4" y2="172.89"/><line class="cls-4" x1="144.94" y1="141.32" x2="141.26" y2="172.89"/><line class="cls-4" x1="146.57" y1="141.32" x2="144.12" y2="172.89"/><line class="cls-4" x1="148.2" y1="141.32" x2="146.98" y2="172.89"/><line class="cls-4" x1="149.83" y1="141.32" x2="149.83" y2="172.89"/><line class="cls-4" x1="151.47" y1="141.32" x2="152.69" y2="172.89"/><line class="cls-4" x1="153.1" y1="141.32" x2="155.55" y2="172.89"/><line class="cls-4" x1="154.73" y1="141.32" x2="158.41" y2="172.89"/><line class="cls-4" x1="156.36" y1="141.32" x2="161.27" y2="172.89"/><line class="cls-4" x1="157.99" y1="141.32" x2="164.13" y2="172.89"/><line class="cls-4" x1="159.62" y1="141.32" x2="166.99" y2="172.89"/><line class="cls-4" x1="161.25" y1="141.32" x2="169.85" y2="172.89"/><line class="cls-4" x1="162.88" y1="141.32" x2="172.71" y2="172.89"/><path class="cls-3" d="M149.51,45.84S147,64.5,148.35,76.65s2.37,13.91,2.9,30.36a193,193,0,0,1-1.54,33.23"/><line class="cls-3" x1="135.77" y1="141.35" x2="163.64" y2="141.35"/><line class="cls-3" x1="125.52" y1="172.89" x2="173.93" y2="172.89"/><g class="cls-2"><path d="M108.14,114v7.2h-1.32l-4.6-4.51-.54-.51a4.71,4.71,0,0,0-.61-.47,3,3,0,0,0-.67-.33,2.14,2.14,0,0,0-1.57,0,1.79,1.79,0,0,0-.62.47,2.18,2.18,0,0,0-.39.7,2.41,2.41,0,0,0-.14.85,2.28,2.28,0,0,0,.48,1.47,2.17,2.17,0,0,0,1.3.79l-.13,1.21a3.16,3.16,0,0,1-2-1.16,3.49,3.49,0,0,1-.72-2.23,4.26,4.26,0,0,1,.19-1.3,3.11,3.11,0,0,1,.55-1.09,2.58,2.58,0,0,1,.92-.75,2.79,2.79,0,0,1,1.29-.28,3.32,3.32,0,0,1,1.2.2,4.46,4.46,0,0,1,1,.52,5.71,5.71,0,0,1,.91.73c.29.27.57.55.85.84l3.54,3.56v-6Z"/><path d="M102.11,110.12a2.38,2.38,0,0,1-.37.68,2.49,2.49,0,0,1-.59.53,3.1,3.1,0,0,1-.73.36,2.94,2.94,0,0,1-.84.12,2.9,2.9,0,0,1-1.22-.25,2.83,2.83,0,0,1-.94-.69,3.16,3.16,0,0,1-.59-1,3.62,3.62,0,0,1,0-2.43,3.27,3.27,0,0,1,.59-1,2.83,2.83,0,0,1,.94-.69,2.9,2.9,0,0,1,1.22-.25,2.63,2.63,0,0,1,.84.13,2.82,2.82,0,0,1,1.32.88,2.38,2.38,0,0,1,.37.68h0a2.68,2.68,0,0,1,1.06-1.53,3.15,3.15,0,0,1,1.92-.58,2.92,2.92,0,0,1,1.33.3,3.22,3.22,0,0,1,1,.78,3.39,3.39,0,0,1,.65,1.14,4.15,4.15,0,0,1,.23,1.37,4.09,4.09,0,0,1-.23,1.36,3.29,3.29,0,0,1-.65,1.14,3.22,3.22,0,0,1-1,.78,2.92,2.92,0,0,1-1.33.3,3.15,3.15,0,0,1-1.92-.58,2.68,2.68,0,0,1-1.06-1.53Zm-2.43-3.49a2.07,2.07,0,0,0-.8.15,1.65,1.65,0,0,0-.63.43,1.87,1.87,0,0,0-.42.64,2.07,2.07,0,0,0-.15.8,2.15,2.15,0,0,0,.15.8,2.09,2.09,0,0,0,.42.64,1.74,1.74,0,0,0,.63.42,2.07,2.07,0,0,0,.8.15,2.11,2.11,0,0,0,.8-.15,1.83,1.83,0,0,0,.63-.42,2.09,2.09,0,0,0,.42-.64,2.15,2.15,0,0,0,.15-.8,2.07,2.07,0,0,0-.15-.8,1.87,1.87,0,0,0-.42-.64,1.73,1.73,0,0,0-.63-.43A2.11,2.11,0,0,0,99.68,106.63Zm5.28-.42a2.34,2.34,0,0,0-1.66.67,2.15,2.15,0,0,0-.48.77,2.87,2.87,0,0,0,0,2,2.1,2.1,0,0,0,.48.76,2.38,2.38,0,0,0,3.32,0,2.1,2.1,0,0,0,.48-.76,2.87,2.87,0,0,0,0-2,2.15,2.15,0,0,0-.48-.77,2.34,2.34,0,0,0-1.66-.67Z"/><path d="M96.62,99.75a3.24,3.24,0,0,1,.56-2,3.89,3.89,0,0,1,1.43-1.17,6.7,6.7,0,0,1,1.89-.56,14.07,14.07,0,0,1,4,0,6.7,6.7,0,0,1,1.89.56,3.89,3.89,0,0,1,1.43,1.17,3.75,3.75,0,0,1,0,3.94,3.89,3.89,0,0,1-1.43,1.17,6.7,6.7,0,0,1-1.89.56,14.07,14.07,0,0,1-4,0,6.7,6.7,0,0,1-1.89-.56,3.89,3.89,0,0,1-1.43-1.17A3.24,3.24,0,0,1,96.62,99.75Zm1.06,0a2,2,0,0,0,.5,1.46,3.08,3.08,0,0,0,1.23.81,6.09,6.09,0,0,0,1.57.35c.55,0,1,.07,1.5.07s1,0,1.5-.07a6.09,6.09,0,0,0,1.57-.35,3.08,3.08,0,0,0,1.23-.81,2.38,2.38,0,0,0,0-2.92,3.08,3.08,0,0,0-1.23-.81,6.09,6.09,0,0,0-1.57-.35c-.55,0-1-.07-1.5-.07s-1,0-1.5.07a6.09,6.09,0,0,0-1.57.35,3.08,3.08,0,0,0-1.23.81A2,2,0,0,0,97.68,99.75Z"/><path d="M96.62,90.85a3.21,3.21,0,0,1,.56-2,3.7,3.7,0,0,1,1.43-1.17,6.11,6.11,0,0,1,1.89-.56,13.14,13.14,0,0,1,4,0,6.11,6.11,0,0,1,1.89.56,3.7,3.7,0,0,1,1.43,1.17,3.73,3.73,0,0,1,0,3.93A3.89,3.89,0,0,1,106.35,94a6.39,6.39,0,0,1-1.89.56,14.07,14.07,0,0,1-4,0A6.39,6.39,0,0,1,98.61,94a3.89,3.89,0,0,1-1.43-1.17A3.24,3.24,0,0,1,96.62,90.85Zm1.06,0a2,2,0,0,0,.5,1.47,3.3,3.3,0,0,0,1.23.81,6.09,6.09,0,0,0,1.57.34c.55,0,1,.07,1.5.07s1,0,1.5-.07a6.09,6.09,0,0,0,1.57-.34,3.3,3.3,0,0,0,1.23-.81,2.09,2.09,0,0,0,.5-1.47,2.07,2.07,0,0,0-.5-1.46,3.08,3.08,0,0,0-1.23-.81,6.09,6.09,0,0,0-1.57-.34c-.55,0-1-.07-1.5-.07s-1,0-1.5.07a6.09,6.09,0,0,0-1.57.34,3.08,3.08,0,0,0-1.23.81A2,2,0,0,0,97.68,90.85Z"/><path d="M102.32,80.81c-.28,0-.56,0-.83,0s-.56,0-.83.06V79.75h1.13v0a2.44,2.44,0,0,1-1-1.07,3.07,3.07,0,0,1-.34-1.35,3.9,3.9,0,0,1,.07-.65,2.25,2.25,0,0,1,.23-.66A2.29,2.29,0,0,1,102,74.92a2.5,2.5,0,0,1-1.14-1,2.76,2.76,0,0,1-.42-1.45,2.73,2.73,0,0,1,.76-2.12,3.12,3.12,0,0,1,2.17-.69h4.75v1h-4.36a3.26,3.26,0,0,0-1.75.4,1.68,1.68,0,0,0-.61,1.49,1.86,1.86,0,0,0,.24,1,1.81,1.81,0,0,0,.61.65,2.58,2.58,0,0,0,.87.36,4.31,4.31,0,0,0,1,.11h4v1.06h-4.36a3.17,3.17,0,0,0-1.75.4,1.67,1.67,0,0,0-.61,1.49c0,.06,0,.21.07.44a1.67,1.67,0,0,0,.35.71,2.53,2.53,0,0,0,.86.66,3.53,3.53,0,0,0,1.6.3h3.84v1.06Z"/><path d="M102.32,67.17c-.28,0-.56,0-.83,0l-.83,0V66.12h1.13v0a2.41,2.41,0,0,1-1-1.06,3.07,3.07,0,0,1-.34-1.35,3.9,3.9,0,0,1,.07-.65,2.25,2.25,0,0,1,.23-.66,2,2,0,0,1,.47-.6,2.33,2.33,0,0,1,.79-.47,2.56,2.56,0,0,1-1.14-1,3.07,3.07,0,0,1,.34-3.58,3.12,3.12,0,0,1,2.17-.68h4.75v1.05h-4.36a3.17,3.17,0,0,0-1.75.4,1.67,1.67,0,0,0-.61,1.49,1.87,1.87,0,0,0,.85,1.64,3.07,3.07,0,0,0,.87.36,4.9,4.9,0,0,0,1,.11h4v1.06h-4.36a3.17,3.17,0,0,0-1.75.4,1.65,1.65,0,0,0-.61,1.49c0,.06,0,.21.07.44a1.73,1.73,0,0,0,.35.71,2.67,2.67,0,0,0,.86.66,3.53,3.53,0,0,0,1.6.3h3.84v1Z"/></g><g class="cls-2"><path d="M103.28,178.35l0,0a2.06,2.06,0,0,1,.29.73,4.3,4.3,0,0,1,.09.84,3.63,3.63,0,0,1-.26,1.37,3.42,3.42,0,0,1-.73,1.09,3.31,3.31,0,0,1-1.1.73,3.62,3.62,0,0,1-1.41.27,3.51,3.51,0,0,1-1.43-.28,3.24,3.24,0,0,1-1.1-.76,3.49,3.49,0,0,1-.72-1.17,4.31,4.31,0,0,1,0-2.95,3.54,3.54,0,0,1,.72-1.16,3.27,3.27,0,0,1,1.1-.77,3.68,3.68,0,0,1,1.43-.27,4.39,4.39,0,0,1,1.65.28,8.55,8.55,0,0,1,1.39.69l5,3.06v1.36Zm-3.15-1.15a2.57,2.57,0,0,0-1,.18,2.18,2.18,0,0,0-.77.52,2.55,2.55,0,0,0-.51.8,3,3,0,0,0,0,2.05,2.44,2.44,0,0,0,.51.8,2.18,2.18,0,0,0,.77.52,2.57,2.57,0,0,0,1,.18,2.64,2.64,0,0,0,1-.18,2.32,2.32,0,0,0,.78-.52,2.41,2.41,0,0,0,.5-.8,3,3,0,0,0,0-2.05,2.52,2.52,0,0,0-.5-.8,2.32,2.32,0,0,0-.78-.52A2.64,2.64,0,0,0,100.13,177.2Z"/><path d="M96.62,170.83a3.24,3.24,0,0,1,.56-2,3.89,3.89,0,0,1,1.43-1.17,6.7,6.7,0,0,1,1.89-.56,14.07,14.07,0,0,1,4,0,6.7,6.7,0,0,1,1.89.56,3.89,3.89,0,0,1,1.43,1.17,3.75,3.75,0,0,1,0,3.94,3.89,3.89,0,0,1-1.43,1.17,6.7,6.7,0,0,1-1.89.56,14.07,14.07,0,0,1-4,0,6.7,6.7,0,0,1-1.89-.56,3.89,3.89,0,0,1-1.43-1.17A3.24,3.24,0,0,1,96.62,170.83Zm1.06,0a2,2,0,0,0,.5,1.46,3.08,3.08,0,0,0,1.23.81,6.09,6.09,0,0,0,1.57.35c.55,0,1,.07,1.5.07s1,0,1.5-.07a6.09,6.09,0,0,0,1.57-.35,3.08,3.08,0,0,0,1.23-.81,2.38,2.38,0,0,0,0-2.92,3.08,3.08,0,0,0-1.23-.81,6.09,6.09,0,0,0-1.57-.35c-.55,0-1-.07-1.5-.07s-1,0-1.5.07a6.09,6.09,0,0,0-1.57.35,3.08,3.08,0,0,0-1.23.81A2,2,0,0,0,97.68,170.83Z"/><path d="M102.32,160.78c-.28,0-.56,0-.83,0l-.83.05v-1.13h1.13v0a2.41,2.41,0,0,1-1-1.06,3.07,3.07,0,0,1-.34-1.35,3.9,3.9,0,0,1,.07-.65,2.25,2.25,0,0,1,.23-.66,2,2,0,0,1,.47-.6,2.52,2.52,0,0,1,.79-.48,2.48,2.48,0,0,1-1.14-1,3.07,3.07,0,0,1,.34-3.58,3.12,3.12,0,0,1,2.17-.69h4.75v1.06h-4.36a3.17,3.17,0,0,0-1.75.4,1.67,1.67,0,0,0-.61,1.49,1.87,1.87,0,0,0,.85,1.64,3.07,3.07,0,0,0,.87.36,4.9,4.9,0,0,0,1,.11h4v1.06h-4.36a3.27,3.27,0,0,0-1.75.39,1.68,1.68,0,0,0-.61,1.49,4.26,4.26,0,0,0,.07.44,1.71,1.71,0,0,0,.35.72,2.67,2.67,0,0,0,.86.66,3.53,3.53,0,0,0,1.6.3h3.84v1.05Z"/><path d="M102.32,147.15l-.83,0-.83.06v-1.14h1.13v0a2.41,2.41,0,0,1-1-1.06,3.13,3.13,0,0,1-.34-1.35,3.79,3.79,0,0,1,.07-.65,2.42,2.42,0,0,1,.23-.67,2.34,2.34,0,0,1,.47-.6,2.71,2.71,0,0,1,.79-.47,2.48,2.48,0,0,1-1.14-1,3.07,3.07,0,0,1,.34-3.58,3.12,3.12,0,0,1,2.17-.69h4.75V137h-4.36a3.17,3.17,0,0,0-1.75.4,1.67,1.67,0,0,0-.61,1.49,1.91,1.91,0,0,0,.24,1,2,2,0,0,0,.61.65,3.07,3.07,0,0,0,.87.36,4.9,4.9,0,0,0,1,.11h4v1.05h-4.36a3.26,3.26,0,0,0-1.75.4,1.68,1.68,0,0,0-.61,1.49,4.26,4.26,0,0,0,.07.44,1.62,1.62,0,0,0,.35.71,2.55,2.55,0,0,0,.86.67,3.55,3.55,0,0,0,1.6.29h3.84v1.06Z"/></g><line class="cls-1" x1="116.54" y1="140.24" x2="116.54" y2="47.05"/><line class="cls-1" x1="114.69" y1="47.02" x2="118.24" y2="47.02"/><line class="cls-1" x1="114.01" y1="140.24" x2="119.06" y2="140.24"/><line class="cls-1" x1="116.54" y1="171.11" x2="116.54" y2="140.25"/><line class="cls-1" x1="114.69" y1="140.24" x2="118.24" y2="140.24"/><line class="cls-1" x1="114.01" y1="171.11" x2="119.06" y2="171.11"/></svg>