<svg xmlns="http://www.w3.org/2000/svg" viewBox="0 0 300 263"><defs><style>.cls-1,.cls-2,.cls-3,.cls-4{fill:none;stroke-linecap:round;}.cls-1,.cls-2{stroke:red;}.cls-1,.cls-2,.cls-4{stroke-linejoin:round;}.cls-1,.cls-3,.cls-4{stroke-width:0.6px;}.cls-3,.cls-4{stroke:#000;}.cls-3{stroke-miterlimit:10;}</style></defs><title>romeo-table-1-starck-flos-F6107000-curva-fotometrica</title><g id="numeri_esterni_diagramma" data-name="numeri esterni diagramma"><path d="M148.27,239.2a6.85,6.85,0,0,1,.08-1,3.41,3.41,0,0,1,.3-.95,1.94,1.94,0,0,1,.59-.71,1.57,1.57,0,0,1,.95-.27,1.6,1.6,0,0,1,1,.27,2,2,0,0,1,.59.71,3.1,3.1,0,0,1,.29.95,5.7,5.7,0,0,1,.08,1,5.85,5.85,0,0,1-.08,1,3.13,3.13,0,0,1-.29.94,2,2,0,0,1-.59.71,1.6,1.6,0,0,1-1,.27,1.57,1.57,0,0,1-.95-.27,1.94,1.94,0,0,1-.59-.71,3.45,3.45,0,0,1-.3-.94A7.07,7.07,0,0,1,148.27,239.2Zm.68,0c0,.13,0,.29,0,.46a4.88,4.88,0,0,0,.06.52,2.83,2.83,0,0,0,.13.5,1.65,1.65,0,0,0,.22.44,1.24,1.24,0,0,0,.34.31,1,1,0,0,0,.48.12.9.9,0,0,0,.48-.12,1,1,0,0,0,.34-.31,1.41,1.41,0,0,0,.23-.44,4.07,4.07,0,0,0,.13-.5c0-.18,0-.35.06-.52s0-.33,0-.46,0-.3,0-.47,0-.34-.06-.51a3.8,3.8,0,0,0-.13-.51,1.53,1.53,0,0,0-.23-.44,1,1,0,0,0-.34-.31.9.9,0,0,0-.48-.12,1,1,0,0,0-.48.12,1.24,1.24,0,0,0-.34.31,1.81,1.81,0,0,0-.22.44,2.72,2.72,0,0,0-.13.51,4.43,4.43,0,0,0-.06.51C149,238.9,149,239.06,149,239.2Z"/><path d="M152.83,237.41a1.33,1.33,0,0,1,.08-.45,1.11,1.11,0,0,1,.25-.36,1,1,0,0,1,.36-.24,1.17,1.17,0,0,1,.9,0,1,1,0,0,1,.36.24,1.11,1.11,0,0,1,.25.36,1.31,1.31,0,0,1,0,.9,1.23,1.23,0,0,1-.61.61,1.17,1.17,0,0,1-.9,0,1.23,1.23,0,0,1-.61-.61A1.33,1.33,0,0,1,152.83,237.41Zm.43,0a.79.79,0,0,0,.05.25.68.68,0,0,0,.14.23.66.66,0,0,0,.23.17.73.73,0,0,0,.58,0,.76.76,0,0,0,.23-.17.88.88,0,0,0,.14-.23.65.65,0,0,0,0-.5,1.09,1.09,0,0,0-.14-.23,1,1,0,0,0-.23-.17.73.73,0,0,0-.58,0,.81.81,0,0,0-.23.17.75.75,0,0,0-.19.48Z"/><path d="M203.17,238.76h.21l.43,0a1.15,1.15,0,0,0,.42-.13.77.77,0,0,0,.31-.31.94.94,0,0,0,.13-.51.87.87,0,0,0-.27-.68,1,1,0,0,0-.7-.26,1.28,1.28,0,0,0-.63.16,1.14,1.14,0,0,0-.41.48l-.65-.25a1.48,1.48,0,0,1,.65-.72,2.07,2.07,0,0,1,1-.24,2.25,2.25,0,0,1,.64.09,1.72,1.72,0,0,1,.54.28,1.37,1.37,0,0,1,.37.46,1.48,1.48,0,0,1,.14.65,1.29,1.29,0,0,1-.27.8,1.34,1.34,0,0,1-.7.49v0a1.48,1.48,0,0,1,.85.49,1.37,1.37,0,0,1,.23.43,1.69,1.69,0,0,1,.08.5,1.66,1.66,0,0,1-.15.72,1.57,1.57,0,0,1-.41.51,1.71,1.71,0,0,1-.6.31,2.34,2.34,0,0,1-.71.1,2.18,2.18,0,0,1-1.13-.28,1.61,1.61,0,0,1-.7-.91l.68-.22a1.33,1.33,0,0,0,.41.65,1.3,1.3,0,0,0,.74.19,1.33,1.33,0,0,0,.45-.08,1.11,1.11,0,0,0,.36-.23,1.24,1.24,0,0,0,.25-.35,1.13,1.13,0,0,0,.09-.45,1.07,1.07,0,0,0-.12-.53,1,1,0,0,0-.33-.33,1.23,1.23,0,0,0-.46-.18,2.31,2.31,0,0,0-.52-.06h-.21Z"/><path d="M206.24,239.2a6.85,6.85,0,0,1,.08-1,3.11,3.11,0,0,1,.3-.95,1.94,1.94,0,0,1,.59-.71,1.55,1.55,0,0,1,.95-.27,1.6,1.6,0,0,1,1,.27,2,2,0,0,1,.59.71,3.1,3.1,0,0,1,.29.95,5.7,5.7,0,0,1,.08,1,5.85,5.85,0,0,1-.08,1,3.13,3.13,0,0,1-.29.94,2,2,0,0,1-.59.71,1.6,1.6,0,0,1-1,.27,1.55,1.55,0,0,1-.95-.27,1.94,1.94,0,0,1-.59-.71,3.14,3.14,0,0,1-.3-.94A7.07,7.07,0,0,1,206.24,239.2Zm.67,0c0,.13,0,.29,0,.46a4.88,4.88,0,0,0,.06.52,2.83,2.83,0,0,0,.13.5,1.4,1.4,0,0,0,.22.44,1.24,1.24,0,0,0,.34.31,1,1,0,0,0,.48.12.9.9,0,0,0,.48-.12,1,1,0,0,0,.34-.31,1.41,1.41,0,0,0,.23-.44,4.05,4.05,0,0,0,.12-.5,4.88,4.88,0,0,0,.06-.52,3.86,3.86,0,0,0,0-.46,3.94,3.94,0,0,0,0-.47,4.43,4.43,0,0,0-.06-.51,3.81,3.81,0,0,0-.12-.51,1.53,1.53,0,0,0-.23-.44,1,1,0,0,0-.34-.31.9.9,0,0,0-.48-.12,1,1,0,0,0-.48.12,1.24,1.24,0,0,0-.34.31,1.51,1.51,0,0,0-.22.44,2.72,2.72,0,0,0-.13.51,4.43,4.43,0,0,0-.06.51C206.92,238.9,206.91,239.06,206.91,239.2Z"/><path d="M210.84,237.41a1.13,1.13,0,0,1,.09-.45,1.26,1.26,0,0,1,.24-.36,1.2,1.2,0,0,1,.82-.33,1,1,0,0,1,.44.09,1.12,1.12,0,0,1,.37.24,1.26,1.26,0,0,1,.24.36,1.16,1.16,0,0,1-.24,1.26,1.15,1.15,0,0,1-.37.25,1,1,0,0,1-.44.09,1.13,1.13,0,0,1-.45-.09,1.15,1.15,0,0,1-.37-.25,1.15,1.15,0,0,1-.33-.81Zm.43,0a.61.61,0,0,0,.06.25.68.68,0,0,0,.14.23.72.72,0,0,0,.22.17.73.73,0,0,0,.3.06.72.72,0,0,0,.29-.06.62.62,0,0,0,.22-.17.91.91,0,0,0,.15-.23.65.65,0,0,0,0-.5,1.14,1.14,0,0,0-.15-.23.76.76,0,0,0-.22-.17.72.72,0,0,0-.29-.06.73.73,0,0,0-.3.06.92.92,0,0,0-.22.17.79.79,0,0,0-.14.23A.61.61,0,0,0,211.27,237.41Z"/><path d="M93.6,238.76h.21l.44,0a1.1,1.1,0,0,0,.41-.13.86.86,0,0,0,.32-.31.94.94,0,0,0,.12-.51.87.87,0,0,0-.27-.68,1,1,0,0,0-.7-.26,1.21,1.21,0,0,0-.62.16,1.1,1.1,0,0,0-.42.48l-.65-.25a1.45,1.45,0,0,1,.66-.72,2,2,0,0,1,1-.24,2.32,2.32,0,0,1,.65.09,2,2,0,0,1,.54.28,1.67,1.67,0,0,1,.37.46,1.48,1.48,0,0,1,.13.65,1.29,1.29,0,0,1-.27.8,1.34,1.34,0,0,1-.7.49v0a1.31,1.31,0,0,1,.49.18,1.34,1.34,0,0,1,.36.31,1.37,1.37,0,0,1,.23.43,1.42,1.42,0,0,1,.08.5,1.66,1.66,0,0,1-.15.72,1.57,1.57,0,0,1-.41.51,1.75,1.75,0,0,1-.59.31,2.46,2.46,0,0,1-.72.1,2.18,2.18,0,0,1-1.13-.28,1.56,1.56,0,0,1-.69-.91l.68-.22a1.2,1.2,0,0,0,.41.65,1.27,1.27,0,0,0,.73.19,1.33,1.33,0,0,0,.45-.08,1.11,1.11,0,0,0,.36-.23,1.07,1.07,0,0,0,.25-.35,1.13,1.13,0,0,0,.09-.45,1.07,1.07,0,0,0-.12-.53.87.87,0,0,0-.33-.33,1.17,1.17,0,0,0-.46-.18,2.24,2.24,0,0,0-.52-.06H93.6Z"/><path d="M96.68,239.2a5.7,5.7,0,0,1,.08-1,3.1,3.1,0,0,1,.29-.95,2,2,0,0,1,.59-.71,1.6,1.6,0,0,1,1-.27,1.57,1.57,0,0,1,1,.27,1.94,1.94,0,0,1,.59.71,3.41,3.41,0,0,1,.3.95,6.85,6.85,0,0,1,.08,1,7.07,7.07,0,0,1-.08,1,3.45,3.45,0,0,1-.3.94,1.94,1.94,0,0,1-.59.71,1.57,1.57,0,0,1-1,.27,1.6,1.6,0,0,1-1-.27,2,2,0,0,1-.59-.71,3.13,3.13,0,0,1-.29-.94A5.85,5.85,0,0,1,96.68,239.2Zm.67,0c0,.13,0,.29,0,.46a4.88,4.88,0,0,0,.06.52,4.07,4.07,0,0,0,.13.5,1.41,1.41,0,0,0,.23.44,1,1,0,0,0,.34.31.9.9,0,0,0,.48.12,1,1,0,0,0,.48-.12,1.24,1.24,0,0,0,.34-.31,1.65,1.65,0,0,0,.22-.44,2.83,2.83,0,0,0,.13-.5,4.88,4.88,0,0,0,.06-.52c0-.17,0-.33,0-.46s0-.3,0-.47a4.43,4.43,0,0,0-.06-.51,2.72,2.72,0,0,0-.13-.51,1.81,1.81,0,0,0-.22-.44,1.24,1.24,0,0,0-.34-.31,1,1,0,0,0-.48-.12.9.9,0,0,0-.48.12,1,1,0,0,0-.34.31,1.53,1.53,0,0,0-.23.44,3.8,3.8,0,0,0-.13.51,4.43,4.43,0,0,0-.06.51C97.35,238.9,97.35,239.06,97.35,239.2Z"/><path d="M101.28,237.41a1.33,1.33,0,0,1,.08-.45,1.11,1.11,0,0,1,.25-.36,1,1,0,0,1,.36-.24,1.17,1.17,0,0,1,.9,0,1,1,0,0,1,.36.24,1.11,1.11,0,0,1,.25.36,1.31,1.31,0,0,1,0,.9,1.23,1.23,0,0,1-.61.61,1.17,1.17,0,0,1-.9,0,1.23,1.23,0,0,1-.61-.61A1.33,1.33,0,0,1,101.28,237.41Zm.43,0a.79.79,0,0,0,.05.25.68.68,0,0,0,.14.23.76.76,0,0,0,.23.17.73.73,0,0,0,.58,0,.66.66,0,0,0,.23-.17.68.68,0,0,0,.14-.23.71.71,0,0,0-.14-.73.81.81,0,0,0-.23-.17.73.73,0,0,0-.58,0,1,1,0,0,0-.23.17.75.75,0,0,0-.19.48Z"/><path d="M249.93,137.18h0a1.24,1.24,0,0,1-.37.12,1.84,1.84,0,0,1-.39,0,1.91,1.91,0,0,1-.68-.12,1.58,1.58,0,0,1-.54-.37,1.63,1.63,0,0,1-.36-.56,2.05,2.05,0,0,1-.13-.72,1.79,1.79,0,0,1,.15-.75,1.48,1.48,0,0,1,.4-.55,1.79,1.79,0,0,1,.6-.35,2,2,0,0,1,.75-.13,2.11,2.11,0,0,1,.75.13,1.79,1.79,0,0,1,.6.35,1.59,1.59,0,0,1,.4.55,1.79,1.79,0,0,1,.14.75,2.15,2.15,0,0,1,0,.45,1.68,1.68,0,0,1-.11.4,2.59,2.59,0,0,1-.17.38l-.21.36-1.51,2.39h-.78Zm-.59-.42a1.28,1.28,0,0,0,.48-.09,1,1,0,0,0,.39-.24,1.23,1.23,0,0,0,.26-.37,1.43,1.43,0,0,0,0-1,1.1,1.1,0,0,0-.65-.62,1.48,1.48,0,0,0-1,0,1.28,1.28,0,0,0-.39.24,1.12,1.12,0,0,0-.26.38,1.3,1.3,0,0,0,0,1,1.08,1.08,0,0,0,.26.37,1,1,0,0,0,.39.24A1.28,1.28,0,0,0,249.34,136.76Z"/><path d="M251.82,136.71a7.07,7.07,0,0,1,.08-1,3.19,3.19,0,0,1,.29-1,2,2,0,0,1,.59-.7,1.54,1.54,0,0,1,1-.28,1.49,1.49,0,0,1,.95.28,1.91,1.91,0,0,1,.59.7,2.94,2.94,0,0,1,.3,1,6.29,6.29,0,0,1,0,2,2.94,2.94,0,0,1-.3.95,1.91,1.91,0,0,1-.59.7,1.49,1.49,0,0,1-.95.28,1.54,1.54,0,0,1-1-.28,2,2,0,0,1-.59-.7,3.19,3.19,0,0,1-.29-.95A7.07,7.07,0,0,1,251.82,136.71Zm.67,0c0,.14,0,.29,0,.46a4.6,4.6,0,0,0,.06.52,4.7,4.7,0,0,0,.12.51,2,2,0,0,0,.23.44,1,1,0,0,0,.34.31,1,1,0,0,0,.48.11,1.06,1.06,0,0,0,.48-.11,1.24,1.24,0,0,0,.34-.31,1.65,1.65,0,0,0,.22-.44,3.18,3.18,0,0,0,.13-.51,4.6,4.6,0,0,0,.06-.52c0-.17,0-.32,0-.46s0-.29,0-.46a4.6,4.6,0,0,0-.06-.52,3.18,3.18,0,0,0-.13-.51,1.65,1.65,0,0,0-.22-.44,1.24,1.24,0,0,0-.34-.31,1.06,1.06,0,0,0-.48-.11,1,1,0,0,0-.48.11,1,1,0,0,0-.34.31,2,2,0,0,0-.23.44,4.7,4.7,0,0,0-.12.51,4.6,4.6,0,0,0-.06.52C252.5,136.42,252.49,136.57,252.49,136.71Z"/><path d="M256.42,134.93a1.13,1.13,0,0,1,.09-.45,1.31,1.31,0,0,1,.24-.37,1.18,1.18,0,0,1,.37-.24,1,1,0,0,1,.44-.09,1.13,1.13,0,0,1,.45.09,1.06,1.06,0,0,1,.61.61,1.13,1.13,0,0,1,.09.45,1,1,0,0,1-.09.44,1.06,1.06,0,0,1-.61.61,1.13,1.13,0,0,1-.45.09,1,1,0,0,1-.44-.09,1.18,1.18,0,0,1-.37-.24,1.31,1.31,0,0,1-.24-.37A1,1,0,0,1,256.42,134.93Zm.43,0a.69.69,0,0,0,0,.24,1,1,0,0,0,.15.24.73.73,0,0,0,.51.23.54.54,0,0,0,.29-.07.63.63,0,0,0,.23-.16.72.72,0,0,0,.14-.24.52.52,0,0,0,0-.24.56.56,0,0,0,0-.25.59.59,0,0,0-.14-.23.74.74,0,0,0-.52-.24.73.73,0,0,0-.29.07.62.62,0,0,0-.22.17.76.76,0,0,0-.15.23A.74.74,0,0,0,256.85,134.93Z"/><path d="M41.57,137.18h0a1.34,1.34,0,0,1-.37.12,2,2,0,0,1-.39,0,1.92,1.92,0,0,1-.69-.12,1.58,1.58,0,0,1-.54-.37,1.8,1.8,0,0,1-.36-.56,2.05,2.05,0,0,1-.13-.72,1.79,1.79,0,0,1,.15-.75,1.48,1.48,0,0,1,.4-.55,1.79,1.79,0,0,1,.6-.35,2.23,2.23,0,0,1,1.5,0,1.79,1.79,0,0,1,.6.35,1.48,1.48,0,0,1,.4.55,1.79,1.79,0,0,1,.15.75,3.14,3.14,0,0,1,0,.45,2.34,2.34,0,0,1-.12.4,1.84,1.84,0,0,1-.17.38,3.35,3.35,0,0,1-.21.36l-1.5,2.39h-.79Zm-.59-.42a1.28,1.28,0,0,0,.48-.09,1,1,0,0,0,.39-.24,1.23,1.23,0,0,0,.26-.37,1.3,1.3,0,0,0,0-1,1.1,1.1,0,0,0-.65-.62,1.48,1.48,0,0,0-1,0,1.1,1.1,0,0,0-.65.62,1.43,1.43,0,0,0,0,1,1.23,1.23,0,0,0,.26.37,1,1,0,0,0,.39.24A1.28,1.28,0,0,0,41,136.76Z"/><path d="M43.46,136.71a7.07,7.07,0,0,1,.08-1,2.94,2.94,0,0,1,.3-1,1.91,1.91,0,0,1,.59-.7,1.49,1.49,0,0,1,1-.28,1.54,1.54,0,0,1,1,.28,2,2,0,0,1,.59.7,3.19,3.19,0,0,1,.29,1,6.29,6.29,0,0,1,0,2,3.19,3.19,0,0,1-.29.95,2,2,0,0,1-.59.7,1.54,1.54,0,0,1-1,.28,1.49,1.49,0,0,1-1-.28,1.91,1.91,0,0,1-.59-.7,2.94,2.94,0,0,1-.3-.95A7.07,7.07,0,0,1,43.46,136.71Zm.67,0c0,.14,0,.29,0,.46a4.6,4.6,0,0,0,.06.52,3.18,3.18,0,0,0,.13.51,1.65,1.65,0,0,0,.22.44,1.12,1.12,0,0,0,.34.31,1.1,1.1,0,0,0,1,0,1.12,1.12,0,0,0,.34-.31,2,2,0,0,0,.23-.44,4.7,4.7,0,0,0,.12-.51,4.6,4.6,0,0,0,.06-.52c0-.17,0-.32,0-.46s0-.29,0-.46a4.6,4.6,0,0,0-.06-.52,4.7,4.7,0,0,0-.12-.51,2,2,0,0,0-.23-.44,1.12,1.12,0,0,0-.34-.31,1.1,1.1,0,0,0-1,0,1.12,1.12,0,0,0-.34.31,1.65,1.65,0,0,0-.22.44,3.18,3.18,0,0,0-.13.51,4.6,4.6,0,0,0-.06.52C44.14,136.42,44.13,136.57,44.13,136.71Z"/><path d="M48.06,134.93a1.13,1.13,0,0,1,.09-.45,1.06,1.06,0,0,1,.61-.61,1.13,1.13,0,0,1,.45-.09,1.08,1.08,0,0,1,.44.09,1.06,1.06,0,0,1,.61.61,1.13,1.13,0,0,1,.09.45,1,1,0,0,1-.09.44,1.06,1.06,0,0,1-.61.61,1.08,1.08,0,0,1-.44.09,1.13,1.13,0,0,1-.45-.09,1.06,1.06,0,0,1-.61-.61A1,1,0,0,1,48.06,134.93Zm.43,0a.53.53,0,0,0,.06.24.72.72,0,0,0,.14.24.69.69,0,0,0,.22.16.6.6,0,0,0,.3.07.73.73,0,0,0,.51-.23,1,1,0,0,0,.15-.24.69.69,0,0,0,.05-.24.74.74,0,0,0-.05-.25.76.76,0,0,0-.15-.23.62.62,0,0,0-.22-.17.73.73,0,0,0-.29-.07.73.73,0,0,0-.3.07.72.72,0,0,0-.22.17.59.59,0,0,0-.14.23A.57.57,0,0,0,48.49,134.93Z"/><path d="M148.37,38.51h-.68v-4.8h0l-1,.85-.4-.48,1.52-1.24h.59Z"/><path d="M150.49,34.23a1.48,1.48,0,0,1,.13-.61,1.2,1.2,0,0,1,.34-.46,1.44,1.44,0,0,1,.51-.3,1.92,1.92,0,0,1,1.28,0,1.44,1.44,0,0,1,.51.3,1.2,1.2,0,0,1,.34.46,1.33,1.33,0,0,1,.13.61,1.16,1.16,0,0,1-.07.4,1.41,1.41,0,0,1-.18.37,1.33,1.33,0,0,1-.29.29,1.18,1.18,0,0,1-.39.19h0a1.44,1.44,0,0,1,.46.19,1.35,1.35,0,0,1,.35.32,1.42,1.42,0,0,1,.23.44,1.7,1.7,0,0,1,.08.51,1.74,1.74,0,0,1-.14.69,1.43,1.43,0,0,1-.39.52,1.47,1.47,0,0,1-.57.33,2.35,2.35,0,0,1-1.42,0,1.47,1.47,0,0,1-.57-.33,1.55,1.55,0,0,1-.39-.52,1.74,1.74,0,0,1-.14-.69,1.7,1.7,0,0,1,.08-.51,1.67,1.67,0,0,1,.23-.44,1.35,1.35,0,0,1,.35-.32,1.44,1.44,0,0,1,.46-.19h0a1.18,1.18,0,0,1-.39-.19,1.33,1.33,0,0,1-.29-.29,1.41,1.41,0,0,1-.18-.37A1.46,1.46,0,0,1,150.49,34.23ZM151,36.9a1.18,1.18,0,0,0,.09.46,1.07,1.07,0,0,0,.25.35,1,1,0,0,0,.36.23,1.12,1.12,0,0,0,.88,0,1,1,0,0,0,.36-.23,1.07,1.07,0,0,0,.25-.35,1.18,1.18,0,0,0,.09-.46,1.14,1.14,0,0,0-.09-.46,1.13,1.13,0,0,0-.61-.58,1.12,1.12,0,0,0-.88,0,1.13,1.13,0,0,0-.61.58A1.14,1.14,0,0,0,151,36.9Zm.2-2.64a.88.88,0,0,0,.26.67,1,1,0,0,0,1.36,0,1,1,0,0,0,0-1.34,1,1,0,0,0-1.36,0A.88.88,0,0,0,151.17,34.26Z"/><path d="M154.64,35.68a7,7,0,0,1,.08-1,3.1,3.1,0,0,1,.29-1,2,2,0,0,1,.59-.71,1.6,1.6,0,0,1,1-.27,1.55,1.55,0,0,1,.95.27,1.94,1.94,0,0,1,.59.71,2.86,2.86,0,0,1,.3,1,7,7,0,0,1,.08,1,7.07,7.07,0,0,1-.08,1,2.88,2.88,0,0,1-.3.94,1.94,1.94,0,0,1-.59.71,1.55,1.55,0,0,1-.95.27,1.6,1.6,0,0,1-1-.27,2,2,0,0,1-.59-.71,3.13,3.13,0,0,1-.29-.94A7.07,7.07,0,0,1,154.64,35.68Zm.67,0c0,.13,0,.29,0,.46a4.88,4.88,0,0,0,.06.52,4.05,4.05,0,0,0,.12.5,1.66,1.66,0,0,0,.23.44,1.12,1.12,0,0,0,.34.31,1,1,0,0,0,1,0,1.12,1.12,0,0,0,.34-.31,1.4,1.4,0,0,0,.22-.44,2.83,2.83,0,0,0,.13-.5,4.88,4.88,0,0,0,.06-.52c0-.17,0-.33,0-.46s0-.3,0-.47a4.43,4.43,0,0,0-.06-.51,2.72,2.72,0,0,0-.13-.51,1.51,1.51,0,0,0-.22-.44,1.12,1.12,0,0,0-.34-.31,1,1,0,0,0-1,0,1.12,1.12,0,0,0-.34.31,1.83,1.83,0,0,0-.23.44,3.81,3.81,0,0,0-.12.51,4.43,4.43,0,0,0-.06.51C155.32,35.38,155.31,35.54,155.31,35.68Z"/><path d="M159.24,33.89a1.15,1.15,0,0,1,.33-.81,1,1,0,0,1,.37-.24,1,1,0,0,1,.44-.09,1.15,1.15,0,0,1,.82,2,1.15,1.15,0,0,1-.37.25,1.13,1.13,0,0,1-.45.09,1.15,1.15,0,0,1-.81-.34,1.15,1.15,0,0,1-.33-.81Zm.43,0a.79.79,0,0,0,.05.25,1.14,1.14,0,0,0,.15.23.62.62,0,0,0,.22.17.72.72,0,0,0,.29.06.68.68,0,0,0,.52-.23.79.79,0,0,0,.14-.23.65.65,0,0,0,0-.5.79.79,0,0,0-.14-.23.81.81,0,0,0-.23-.17.65.65,0,0,0-.29-.06.72.72,0,0,0-.29.06.76.76,0,0,0-.22.17,1.14,1.14,0,0,0-.15.23A.79.79,0,0,0,159.67,33.89Z"/><path d="M203.18,38.51h-.68v-4.8h0l-1,.85-.4-.48,1.52-1.24h.59Z"/><path d="M208.49,33.47h-2.31l0,1.53a1.08,1.08,0,0,1,.36-.11l.37,0a2,2,0,0,1,.74.14,1.61,1.61,0,0,1,.57.39,1.9,1.9,0,0,1,.37.59,2,2,0,0,1,.13.74,2,2,0,0,1-.15.78,1.74,1.74,0,0,1-.41.59,1.91,1.91,0,0,1-.61.38,2.2,2.2,0,0,1-.78.13,1.73,1.73,0,0,1-1-.28,2,2,0,0,1-.63-.75l.67-.25a1.31,1.31,0,0,0,.42.51,1.1,1.1,0,0,0,.64.2,1.28,1.28,0,0,0,.48-.09,1.26,1.26,0,0,0,.38-.27,1.15,1.15,0,0,0,.26-.41,1.53,1.53,0,0,0,.1-.54,1.38,1.38,0,0,0-.11-.55,1.08,1.08,0,0,0-.3-.4,1.26,1.26,0,0,0-.44-.25,1.67,1.67,0,0,0-.55-.08,1.84,1.84,0,0,0-.6.1,2.58,2.58,0,0,0-.56.25l.06-2.95h3Z"/><path d="M209.45,35.68a7,7,0,0,1,.08-1,3.1,3.1,0,0,1,.29-1,2,2,0,0,1,.59-.71,1.6,1.6,0,0,1,1-.27,1.55,1.55,0,0,1,.95.27,1.94,1.94,0,0,1,.59.71,2.86,2.86,0,0,1,.3,1,7,7,0,0,1,.08,1,7.07,7.07,0,0,1-.08,1,2.88,2.88,0,0,1-.3.94,1.94,1.94,0,0,1-.59.71,1.55,1.55,0,0,1-.95.27,1.6,1.6,0,0,1-1-.27,2,2,0,0,1-.59-.71,3.13,3.13,0,0,1-.29-.94A7.07,7.07,0,0,1,209.45,35.68Zm.67,0c0,.13,0,.29,0,.46a4.88,4.88,0,0,0,.06.52,4.05,4.05,0,0,0,.12.5,1.66,1.66,0,0,0,.23.44,1,1,0,0,0,.34.31.9.9,0,0,0,.48.12,1,1,0,0,0,.48-.12,1.24,1.24,0,0,0,.34-.31,1.4,1.4,0,0,0,.22-.44,2.83,2.83,0,0,0,.13-.5,4.88,4.88,0,0,0,.06-.52c0-.17,0-.33,0-.46s0-.3,0-.47a4.43,4.43,0,0,0-.06-.51,2.72,2.72,0,0,0-.13-.51,1.51,1.51,0,0,0-.22-.44,1.24,1.24,0,0,0-.34-.31,1,1,0,0,0-.48-.12.9.9,0,0,0-.48.12,1,1,0,0,0-.34.31,1.83,1.83,0,0,0-.23.44,3.81,3.81,0,0,0-.12.51,4.43,4.43,0,0,0-.06.51C210.13,35.38,210.12,35.54,210.12,35.68Z"/><path d="M214.05,33.89a1.15,1.15,0,0,1,.33-.81,1,1,0,0,1,.37-.24,1,1,0,0,1,.44-.09,1.13,1.13,0,0,1,.45.09,1,1,0,0,1,.36.24,1,1,0,0,1,.25.36,1.17,1.17,0,0,1,0,.9,1.23,1.23,0,0,1-.61.61,1.13,1.13,0,0,1-.45.09,1.15,1.15,0,0,1-.81-.34,1.15,1.15,0,0,1-.33-.81Zm.43,0a.79.79,0,0,0,.05.25,1.14,1.14,0,0,0,.15.23.62.62,0,0,0,.22.17.72.72,0,0,0,.29.06.68.68,0,0,0,.52-.23.79.79,0,0,0,.14-.23.65.65,0,0,0,0-.5.79.79,0,0,0-.14-.23.81.81,0,0,0-.23-.17.65.65,0,0,0-.29-.06.72.72,0,0,0-.29.06.76.76,0,0,0-.22.17,1.14,1.14,0,0,0-.15.23A.79.79,0,0,0,214.48,33.89Z"/><path d="M93.61,38.51h-.67v-4.8h0l-1,.85-.4-.48L93,32.84h.58Z"/><path d="M98.92,33.47H96.61l0,1.53a1,1,0,0,1,.35-.11l.37,0a1.91,1.91,0,0,1,.74.14,1.65,1.65,0,0,1,.58.39A1.71,1.71,0,0,1,99,36a2,2,0,0,1,.13.74,2,2,0,0,1-.15.78,1.71,1.71,0,0,1-.4.59,2,2,0,0,1-.62.38,2.15,2.15,0,0,1-.77.13,1.78,1.78,0,0,1-1.05-.28,1.85,1.85,0,0,1-.62-.75l.67-.25a1.16,1.16,0,0,0,.42.51,1.05,1.05,0,0,0,.63.2,1.28,1.28,0,0,0,.48-.09,1.23,1.23,0,0,0,.64-.68,1.33,1.33,0,0,0,.1-.54,1.38,1.38,0,0,0-.11-.55,1.18,1.18,0,0,0-.29-.4,1.41,1.41,0,0,0-.45-.25,1.63,1.63,0,0,0-.55-.08,1.78,1.78,0,0,0-.59.1,2.58,2.58,0,0,0-.56.25l0-2.95h3Z"/><path d="M99.88,35.68a7,7,0,0,1,.08-1,3.11,3.11,0,0,1,.3-1,1.94,1.94,0,0,1,.59-.71,1.55,1.55,0,0,1,1-.27,1.6,1.6,0,0,1,1,.27,2,2,0,0,1,.59.71,3.1,3.1,0,0,1,.29,1,5.77,5.77,0,0,1,.08,1,5.85,5.85,0,0,1-.08,1,3.13,3.13,0,0,1-.29.94,2,2,0,0,1-.59.71,1.6,1.6,0,0,1-1,.27,1.55,1.55,0,0,1-1-.27,1.94,1.94,0,0,1-.59-.71,3.14,3.14,0,0,1-.3-.94A7.07,7.07,0,0,1,99.88,35.68Zm.67,0c0,.13,0,.29,0,.46a4.88,4.88,0,0,0,.06.52,2.83,2.83,0,0,0,.13.5,1.4,1.4,0,0,0,.22.44,1.24,1.24,0,0,0,.34.31,1,1,0,0,0,.48.12.9.9,0,0,0,.48-.12,1,1,0,0,0,.34-.31,1.41,1.41,0,0,0,.23-.44,4.05,4.05,0,0,0,.12-.5,4.88,4.88,0,0,0,.06-.52c0-.17,0-.33,0-.46s0-.3,0-.47a4.43,4.43,0,0,0-.06-.51,3.81,3.81,0,0,0-.12-.51,1.53,1.53,0,0,0-.23-.44,1,1,0,0,0-.34-.31.9.9,0,0,0-.48-.12,1,1,0,0,0-.48.12,1.24,1.24,0,0,0-.34.31,1.51,1.51,0,0,0-.22.44,2.72,2.72,0,0,0-.13.51,4.43,4.43,0,0,0-.06.51C100.56,35.38,100.55,35.54,100.55,35.68Z"/><path d="M104.48,33.89a1.15,1.15,0,0,1,1.15-1.14,1,1,0,0,1,.44.09,1.12,1.12,0,0,1,.37.24,1.16,1.16,0,0,1,0,1.62,1.15,1.15,0,0,1-.37.25,1,1,0,0,1-.44.09,1.13,1.13,0,0,1-.45-.09,1.15,1.15,0,0,1-.37-.25,1.15,1.15,0,0,1-.33-.81Zm.43,0a.61.61,0,0,0,.06.25.79.79,0,0,0,.14.23.72.72,0,0,0,.22.17.73.73,0,0,0,.3.06.72.72,0,0,0,.29-.06.62.62,0,0,0,.22-.17,1.14,1.14,0,0,0,.15-.23.65.65,0,0,0,0-.5,1.14,1.14,0,0,0-.15-.23.76.76,0,0,0-.22-.17.72.72,0,0,0-.29-.06.73.73,0,0,0-.3.06.92.92,0,0,0-.22.17.79.79,0,0,0-.14.23A.61.61,0,0,0,104.91,33.89Z"/><path d="M248.75,192.45v0a1.35,1.35,0,0,1,.37-.13,2,2,0,0,1,.39,0,1.73,1.73,0,0,1,.69.13,1.42,1.42,0,0,1,.54.36,1.85,1.85,0,0,1,.36.57,2,2,0,0,1,.12.72,1.78,1.78,0,0,1-.14.74,1.74,1.74,0,0,1-.4.56,2,2,0,0,1-.6.35,2.36,2.36,0,0,1-.75.12,2.27,2.27,0,0,1-.75-.12,2,2,0,0,1-.6-.35,1.6,1.6,0,0,1-.4-.56,1.78,1.78,0,0,1-.15-.74,2.24,2.24,0,0,1,.15-.86,5.28,5.28,0,0,1,.39-.74l1.5-2.39h.79Zm.59.43a1.23,1.23,0,0,0-.87.32,1,1,0,0,0-.26.38,1.31,1.31,0,0,0-.1.5,1.35,1.35,0,0,0,.1.5,1.08,1.08,0,0,0,.26.37,1,1,0,0,0,.39.24,1.32,1.32,0,0,0,1,0,1,1,0,0,0,.39-.24,1.23,1.23,0,0,0,.26-.37,1.35,1.35,0,0,0,.09-.5,1.31,1.31,0,0,0-.09-.5,1.16,1.16,0,0,0-.26-.38,1.23,1.23,0,0,0-.87-.32Z"/><path d="M251.82,192.92a7.07,7.07,0,0,1,.08-1,3.13,3.13,0,0,1,.29-.94,2,2,0,0,1,.59-.71,1.6,1.6,0,0,1,1-.27,1.55,1.55,0,0,1,.95.27,1.94,1.94,0,0,1,.59.71,2.88,2.88,0,0,1,.3.94,7.07,7.07,0,0,1,.08,1,7,7,0,0,1-.08,1,2.86,2.86,0,0,1-.3,1,1.94,1.94,0,0,1-.59.71,1.55,1.55,0,0,1-.95.27,1.6,1.6,0,0,1-1-.27,2,2,0,0,1-.59-.71,3.1,3.1,0,0,1-.29-1A7,7,0,0,1,251.82,192.92Zm.67,0c0,.14,0,.3,0,.47a4.43,4.43,0,0,0,.06.51,3.81,3.81,0,0,0,.12.51,1.83,1.83,0,0,0,.23.44,1,1,0,0,0,.34.31.9.9,0,0,0,.48.12,1,1,0,0,0,.48-.12,1.24,1.24,0,0,0,.34-.31,1.51,1.51,0,0,0,.22-.44,2.72,2.72,0,0,0,.13-.51,4.43,4.43,0,0,0,.06-.51c0-.17,0-.33,0-.47s0-.29,0-.46a4.88,4.88,0,0,0-.06-.52,2.83,2.83,0,0,0-.13-.5,1.4,1.4,0,0,0-.22-.44,1.1,1.1,0,0,0-.34-.31,1,1,0,0,0-.48-.12.9.9,0,0,0-.48.12.92.92,0,0,0-.34.31,1.66,1.66,0,0,0-.23.44,4.05,4.05,0,0,0-.12.5,4.88,4.88,0,0,0-.06.52C252.5,192.63,252.49,192.79,252.49,192.92Z"/><path d="M256.42,191.14a1.15,1.15,0,0,1,.33-.81,1.05,1.05,0,0,1,.37-.25,1.23,1.23,0,0,1,.44-.08,1.33,1.33,0,0,1,.45.08,1.15,1.15,0,0,1,.37.25,1.16,1.16,0,0,1,0,1.62,1.15,1.15,0,0,1-.37.25,1.33,1.33,0,0,1-.45.08,1.23,1.23,0,0,1-.44-.08,1.05,1.05,0,0,1-.37-.25,1.15,1.15,0,0,1-.33-.81Zm.43,0a.79.79,0,0,0,0,.25,1.14,1.14,0,0,0,.15.23.62.62,0,0,0,.22.17.72.72,0,0,0,.29.06.68.68,0,0,0,.52-.23.79.79,0,0,0,.14-.23.65.65,0,0,0,0-.5.79.79,0,0,0-.14-.23.68.68,0,0,0-.52-.23.72.72,0,0,0-.29.06.62.62,0,0,0-.22.17,1.14,1.14,0,0,0-.15.23A.79.79,0,0,0,256.85,191.14Z"/><path d="M250,81.22h-.67v-4.8h0l-1,.86-.4-.49,1.52-1.23H250Z"/><path d="M251.92,80.45l2.13-2.08c.13-.12.25-.24.35-.35a2.16,2.16,0,0,0,.25-.32,1.09,1.09,0,0,0,.15-.33,1.38,1.38,0,0,0,0-.37,1,1,0,0,0-.08-.4.84.84,0,0,0-.22-.3.78.78,0,0,0-.33-.19,1.05,1.05,0,0,0-.4-.07,1,1,0,0,0-.71.25,1.08,1.08,0,0,0-.36.65l-.73-.06a1.83,1.83,0,0,1,.21-.61,1.41,1.41,0,0,1,.39-.45,2,2,0,0,1,.53-.27,2.25,2.25,0,0,1,.64-.09,2.41,2.41,0,0,1,.67.1,1.92,1.92,0,0,1,.55.29,1.44,1.44,0,0,1,.51,1.15,2,2,0,0,1-.09.61,2,2,0,0,1-.25.5,3.47,3.47,0,0,1-.35.43l-.41.4-1.75,1.64v0h2.89v.62h-3.64Z"/><path d="M256.27,78.39a5.85,5.85,0,0,1,.08-1,3.19,3.19,0,0,1,.29-1,2,2,0,0,1,.59-.7,1.54,1.54,0,0,1,1-.28,1.51,1.51,0,0,1,.95.28,1.91,1.91,0,0,1,.59.7,3.2,3.2,0,0,1,.3,1,6.29,6.29,0,0,1,0,2,3.2,3.2,0,0,1-.3,1,1.91,1.91,0,0,1-.59.7,1.51,1.51,0,0,1-.95.28,1.54,1.54,0,0,1-1-.28,2,2,0,0,1-.59-.7,3.19,3.19,0,0,1-.29-1A5.85,5.85,0,0,1,256.27,78.39Zm.67,0a3.78,3.78,0,0,0,0,.46c0,.17,0,.35.05.52a4.77,4.77,0,0,0,.13.51,1.67,1.67,0,0,0,.23.44,1,1,0,0,0,.34.31,1,1,0,0,0,.48.11,1.06,1.06,0,0,0,.48-.11,1.24,1.24,0,0,0,.34-.31,2,2,0,0,0,.22-.44,3.18,3.18,0,0,0,.13-.51,4.6,4.6,0,0,0,.06-.52c0-.17,0-.32,0-.46s0-.29,0-.46a4.35,4.35,0,0,0-.06-.52,3.18,3.18,0,0,0-.13-.51,2,2,0,0,0-.22-.44,1.24,1.24,0,0,0-.34-.31,1.06,1.06,0,0,0-.48-.11,1,1,0,0,0-.48.11,1,1,0,0,0-.34.31,1.67,1.67,0,0,0-.23.44,4.77,4.77,0,0,0-.13.51c0,.17,0,.34-.05.52A3.78,3.78,0,0,0,256.94,78.39Z"/><path d="M260.87,76.61a1.13,1.13,0,0,1,.09-.45,1,1,0,0,1,.24-.37,1.16,1.16,0,0,1,1.62,0,1.15,1.15,0,0,1,.25.37,1.13,1.13,0,0,1,.09.45,1,1,0,0,1-.09.44,1.15,1.15,0,0,1-.25.37,1.16,1.16,0,0,1-1.62,0,1,1,0,0,1-.24-.37A1,1,0,0,1,260.87,76.61Zm.43,0a.69.69,0,0,0,.05.24.75.75,0,0,0,.15.24.6.6,0,0,0,.22.16.64.64,0,0,0,.58,0,.63.63,0,0,0,.23-.16.72.72,0,0,0,.14-.24.52.52,0,0,0,.05-.24.56.56,0,0,0-.05-.25.59.59,0,0,0-.14-.23.66.66,0,0,0-.23-.17.64.64,0,0,0-.58,0,.62.62,0,0,0-.22.17.61.61,0,0,0-.15.23A.74.74,0,0,0,261.3,76.61Z"/><path d="M40.39,192.45v0a1.42,1.42,0,0,1,.38-.13,1.84,1.84,0,0,1,.39,0,1.72,1.72,0,0,1,.68.13,1.42,1.42,0,0,1,.54.36,1.85,1.85,0,0,1,.36.57,2,2,0,0,1,.13.72,1.78,1.78,0,0,1-.15.74,1.6,1.6,0,0,1-.4.56,2,2,0,0,1-.6.35,2.4,2.4,0,0,1-1.5,0,2,2,0,0,1-.6-.35,1.6,1.6,0,0,1-.4-.56,1.78,1.78,0,0,1-.15-.74,2.24,2.24,0,0,1,.16-.86,5.19,5.19,0,0,1,.38-.74l1.5-2.39h.79Zm.59.43a1.23,1.23,0,0,0-.87.32,1.16,1.16,0,0,0-.26.38,1.31,1.31,0,0,0-.09.5,1.35,1.35,0,0,0,.09.5,1.23,1.23,0,0,0,.26.37,1,1,0,0,0,.39.24,1.32,1.32,0,0,0,1,0,1,1,0,0,0,.39-.24,1.23,1.23,0,0,0,.26-.37,1.35,1.35,0,0,0,.1-.5,1.31,1.31,0,0,0-.1-.5,1.16,1.16,0,0,0-.26-.38,1.23,1.23,0,0,0-.87-.32Z"/><path d="M43.46,192.92a7.07,7.07,0,0,1,.08-1,2.88,2.88,0,0,1,.3-.94,1.94,1.94,0,0,1,.59-.71,1.55,1.55,0,0,1,1-.27,1.6,1.6,0,0,1,1,.27,2,2,0,0,1,.59.71,3.13,3.13,0,0,1,.29.94,7.07,7.07,0,0,1,.08,1,7,7,0,0,1-.08,1,3.1,3.1,0,0,1-.29,1,2,2,0,0,1-.59.71,1.6,1.6,0,0,1-1,.27,1.55,1.55,0,0,1-1-.27,1.94,1.94,0,0,1-.59-.71,2.86,2.86,0,0,1-.3-1A7,7,0,0,1,43.46,192.92Zm.67,0c0,.14,0,.3,0,.47a4.43,4.43,0,0,0,.06.51,2.72,2.72,0,0,0,.13.51,1.51,1.51,0,0,0,.22.44,1.12,1.12,0,0,0,.34.31,1,1,0,0,0,1,0,1.12,1.12,0,0,0,.34-.31,1.83,1.83,0,0,0,.23-.44,3.81,3.81,0,0,0,.12-.51,4.43,4.43,0,0,0,.06-.51c0-.17,0-.33,0-.47s0-.29,0-.46a4.88,4.88,0,0,0-.06-.52,4.05,4.05,0,0,0-.12-.5,1.66,1.66,0,0,0-.23-.44,1,1,0,0,0-.34-.31,1,1,0,0,0-1,0,1,1,0,0,0-.34.31,1.4,1.4,0,0,0-.22.44,2.83,2.83,0,0,0-.13.5,4.88,4.88,0,0,0-.06.52C44.14,192.63,44.13,192.79,44.13,192.92Z"/><path d="M48.06,191.14a1.15,1.15,0,0,1,.33-.81,1.15,1.15,0,0,1,.37-.25,1.33,1.33,0,0,1,.45-.08,1.27,1.27,0,0,1,.44.08,1.15,1.15,0,0,1,.37.25A1.16,1.16,0,0,1,50,192a1.15,1.15,0,0,1-.37.25,1.27,1.27,0,0,1-.44.08,1.33,1.33,0,0,1-.45-.08,1.15,1.15,0,0,1-.37-.25,1.15,1.15,0,0,1-.33-.81Zm.43,0a.61.61,0,0,0,.06.25.79.79,0,0,0,.14.23.72.72,0,0,0,.22.17.73.73,0,0,0,.3.06.72.72,0,0,0,.29-.06.62.62,0,0,0,.22-.17,1.14,1.14,0,0,0,.15-.23.65.65,0,0,0,0-.5,1.14,1.14,0,0,0-.15-.23.62.62,0,0,0-.22-.17.72.72,0,0,0-.29-.06.73.73,0,0,0-.3.06.72.72,0,0,0-.22.17.79.79,0,0,0-.14.23A.61.61,0,0,0,48.49,191.14Z"/><path d="M39.15,81.22h-.67v-4.8h0l-1,.86-.4-.49,1.52-1.23h.58Z"/><path d="M41.07,80.45l2.14-2.08c.13-.12.25-.24.35-.35a2.16,2.16,0,0,0,.25-.32,1.09,1.09,0,0,0,.15-.33A1.38,1.38,0,0,0,44,77a1,1,0,0,0-.08-.4.84.84,0,0,0-.22-.3.78.78,0,0,0-.33-.19A1.05,1.05,0,0,0,43,76a1,1,0,0,0-.72.25,1.19,1.19,0,0,0-.36.65l-.72-.06a1.47,1.47,0,0,1,.21-.61,1.41,1.41,0,0,1,.39-.45,2,2,0,0,1,.53-.27,2.2,2.2,0,0,1,.64-.09,2.41,2.41,0,0,1,.67.1,2.06,2.06,0,0,1,.55.29,1.47,1.47,0,0,1,.37.48,1.6,1.6,0,0,1,.14.67,2,2,0,0,1-.09.61,2.34,2.34,0,0,1-.25.5,3.47,3.47,0,0,1-.35.43l-.41.4-1.75,1.64v0h2.89v.62H41.07Z"/><path d="M45.43,78.39a7,7,0,0,1,.07-1,3.52,3.52,0,0,1,.3-1,2,2,0,0,1,.59-.7,1.77,1.77,0,0,1,1.91,0,1.91,1.91,0,0,1,.59.7,3.52,3.52,0,0,1,.3,1,6.29,6.29,0,0,1,0,2,3.52,3.52,0,0,1-.3,1,1.91,1.91,0,0,1-.59.7,1.77,1.77,0,0,1-1.91,0,2,2,0,0,1-.59-.7,3.52,3.52,0,0,1-.3-1A7,7,0,0,1,45.43,78.39Zm.67,0c0,.14,0,.29,0,.46a4.6,4.6,0,0,0,.06.52,4.77,4.77,0,0,0,.13.51,2,2,0,0,0,.22.44,1.15,1.15,0,0,0,.35.31,1,1,0,0,0,.48.11,1.06,1.06,0,0,0,.48-.11,1.24,1.24,0,0,0,.34-.31,2,2,0,0,0,.22-.44,3.18,3.18,0,0,0,.13-.51,4.6,4.6,0,0,0,.06-.52c0-.17,0-.32,0-.46s0-.29,0-.46a4.35,4.35,0,0,0-.06-.52,3.18,3.18,0,0,0-.13-.51,2,2,0,0,0-.22-.44,1.24,1.24,0,0,0-.34-.31,1.06,1.06,0,0,0-.48-.11,1,1,0,0,0-.48.11,1.15,1.15,0,0,0-.35.31,2,2,0,0,0-.22.44,4.77,4.77,0,0,0-.13.51,4.35,4.35,0,0,0-.06.52C46.1,78.1,46.1,78.25,46.1,78.39Z"/><path d="M50,76.61a1.12,1.12,0,0,1,.08-.45,1.15,1.15,0,0,1,.25-.37,1.16,1.16,0,0,1,1.62,0,1.15,1.15,0,0,1,.25.37,1.33,1.33,0,0,1,.08.45,1.23,1.23,0,0,1-.08.44,1.15,1.15,0,0,1-.25.37,1.16,1.16,0,0,1-1.62,0,1.15,1.15,0,0,1-.25-.37A1,1,0,0,1,50,76.61Zm.43,0a.52.52,0,0,0,0,.24.72.72,0,0,0,.14.24.63.63,0,0,0,.23.16.64.64,0,0,0,.58,0,.73.73,0,0,0,.23-.16,1,1,0,0,0,.14-.24.69.69,0,0,0,.05-.24.75.75,0,0,0-.19-.48.76.76,0,0,0-.23-.17.64.64,0,0,0-.58,0,.66.66,0,0,0-.23.17.59.59,0,0,0-.14.23A.56.56,0,0,0,50.46,76.61Z"/></g><g id="numeri_fondo_tabella" data-name="numeri fondo tabella"><path d="M131.83,251.42a1.17,1.17,0,0,0-.43-.35,1.19,1.19,0,0,0-.51-.11,1.35,1.35,0,0,0-.55.11,1.08,1.08,0,0,0-.4.3,1.32,1.32,0,0,0-.23.44,1.76,1.76,0,0,0,0,1.08,1.43,1.43,0,0,0,.26.45,1.31,1.31,0,0,0,.39.3,1.27,1.27,0,0,0,.52.1,1.09,1.09,0,0,0,1-.46l.47.44a1.69,1.69,0,0,1-.64.46,2.29,2.29,0,0,1-.78.14,2.22,2.22,0,0,1-.79-.14,1.75,1.75,0,0,1-1-1,2.27,2.27,0,0,1,0-1.57,1.86,1.86,0,0,1,.39-.63,2,2,0,0,1,.61-.41,2,2,0,0,1,.79-.15,2.09,2.09,0,0,1,.79.15,1.59,1.59,0,0,1,.65.45Z"/><path d="M136.21,253.56h0a1.43,1.43,0,0,1-.55.54,1.7,1.7,0,0,1-.89.22,1.8,1.8,0,0,1-.73-.15,1.78,1.78,0,0,1-.6-.41,1.81,1.81,0,0,1-.39-.62,2.06,2.06,0,0,1-.15-.79,2,2,0,0,1,.15-.78,1.88,1.88,0,0,1,.4-.63,1.81,1.81,0,0,1,.62-.41,2.07,2.07,0,0,1,.8-.15,1.72,1.72,0,0,1,.75.17,1.78,1.78,0,0,1,.59.47h0v-2.84h.62v6h-.62Zm0-1.21a1.63,1.63,0,0,0-.09-.55,1.34,1.34,0,0,0-.27-.44,1.37,1.37,0,0,0-.42-.29,1.35,1.35,0,0,0-.55-.11,1.42,1.42,0,0,0-.55.11,1.22,1.22,0,0,0-.41.29,1.34,1.34,0,0,0-.27.44,1.56,1.56,0,0,0,0,1.1,1.25,1.25,0,0,0,.27.44,1.19,1.19,0,0,0,1,.4,1.35,1.35,0,0,0,.55-.1,1.6,1.6,0,0,0,.42-.3,1.25,1.25,0,0,0,.27-.44A1.63,1.63,0,0,0,136.21,252.35Z"/><path d="M140.1,254.57l-.5-.2,2.4-6.15.51.2Z"/><path d="M147.64,254.22H147v-4.8h0l-1,.86-.4-.49,1.52-1.23h.59Z"/><path d="M149.46,251.39a7.07,7.07,0,0,1,.08-1,3.19,3.19,0,0,1,.29-.95,2,2,0,0,1,.59-.7,1.61,1.61,0,0,1,1-.28,1.55,1.55,0,0,1,1,.28,1.91,1.91,0,0,1,.59.7,2.94,2.94,0,0,1,.3.95,6.29,6.29,0,0,1,0,2,2.94,2.94,0,0,1-.3,1,1.91,1.91,0,0,1-.59.7,1.49,1.49,0,0,1-1,.28,1.54,1.54,0,0,1-1-.28,2,2,0,0,1-.59-.7,3.19,3.19,0,0,1-.29-1A7.07,7.07,0,0,1,149.46,251.39Zm.67,0c0,.14,0,.29,0,.47a4.43,4.43,0,0,0,.06.51,4.7,4.7,0,0,0,.12.51,2,2,0,0,0,.23.44,1.12,1.12,0,0,0,.34.31,1.1,1.1,0,0,0,1,0,1.12,1.12,0,0,0,.34-.31,1.65,1.65,0,0,0,.22-.44,3.18,3.18,0,0,0,.13-.51,4.43,4.43,0,0,0,.06-.51c0-.18,0-.33,0-.47s0-.29,0-.46a4.6,4.6,0,0,0-.06-.52,3.18,3.18,0,0,0-.13-.51,1.65,1.65,0,0,0-.22-.44,1.08,1.08,0,0,0-.34-.3,1,1,0,0,0-1,0,1.08,1.08,0,0,0-.34.3,2,2,0,0,0-.23.44,4.7,4.7,0,0,0-.12.51,4.6,4.6,0,0,0-.06.52C150.14,251.1,150.13,251.25,150.13,251.39Z"/><path d="M153.91,251.39a5.85,5.85,0,0,1,.08-1,3.19,3.19,0,0,1,.29-.95,2,2,0,0,1,.59-.7,1.61,1.61,0,0,1,1-.28,1.55,1.55,0,0,1,.95.28,1.91,1.91,0,0,1,.59.7,3.2,3.2,0,0,1,.3.95,6.29,6.29,0,0,1,0,2,3.2,3.2,0,0,1-.3,1,1.91,1.91,0,0,1-.59.7,1.49,1.49,0,0,1-.95.28,1.54,1.54,0,0,1-1-.28,2,2,0,0,1-.59-.7,3.19,3.19,0,0,1-.29-1A5.85,5.85,0,0,1,153.91,251.39Zm.67,0a4,4,0,0,0,0,.47,4.43,4.43,0,0,0,.06.51,3.14,3.14,0,0,0,.12.51,1.67,1.67,0,0,0,.23.44,1,1,0,0,0,.34.31.9.9,0,0,0,.48.11,1,1,0,0,0,.48-.11,1.24,1.24,0,0,0,.34-.31,1.65,1.65,0,0,0,.22-.44,3.18,3.18,0,0,0,.13-.51,4.43,4.43,0,0,0,.06-.51c0-.18,0-.33,0-.47s0-.29,0-.46a4.6,4.6,0,0,0-.06-.52,3.18,3.18,0,0,0-.13-.51,1.65,1.65,0,0,0-.22-.44,1.21,1.21,0,0,0-.34-.3,1,1,0,0,0-.48-.12.9.9,0,0,0-.48.12,1,1,0,0,0-.34.3,1.67,1.67,0,0,0-.23.44,3.14,3.14,0,0,0-.12.51,4.6,4.6,0,0,0-.06.52A3.78,3.78,0,0,0,154.58,251.39Z"/><path d="M158.31,251.39a5.85,5.85,0,0,1,.08-1,3.19,3.19,0,0,1,.29-.95,2,2,0,0,1,.59-.7,1.61,1.61,0,0,1,1-.28,1.55,1.55,0,0,1,1,.28,1.91,1.91,0,0,1,.59.7,3.2,3.2,0,0,1,.3.95,6.29,6.29,0,0,1,0,2,3.2,3.2,0,0,1-.3,1,1.91,1.91,0,0,1-.59.7,1.49,1.49,0,0,1-1,.28,1.54,1.54,0,0,1-1-.28,2,2,0,0,1-.59-.7,3.19,3.19,0,0,1-.29-1A5.85,5.85,0,0,1,158.31,251.39Zm.67,0c0,.14,0,.29,0,.47a4.43,4.43,0,0,0,.06.51,3.14,3.14,0,0,0,.12.51,1.67,1.67,0,0,0,.23.44,1,1,0,0,0,.34.31.9.9,0,0,0,.48.11,1,1,0,0,0,.48-.11,1.24,1.24,0,0,0,.34-.31,1.65,1.65,0,0,0,.22-.44,3.18,3.18,0,0,0,.13-.51,4.43,4.43,0,0,0,.06-.51c0-.18,0-.33,0-.47s0-.29,0-.46a4.6,4.6,0,0,0-.06-.52,3.18,3.18,0,0,0-.13-.51,1.65,1.65,0,0,0-.22-.44,1.21,1.21,0,0,0-.34-.3,1,1,0,0,0-.48-.12.9.9,0,0,0-.48.12,1,1,0,0,0-.34.3,1.67,1.67,0,0,0-.23.44,3.14,3.14,0,0,0-.12.51,4.6,4.6,0,0,0-.06.52C159,251.1,159,251.25,159,251.39Z"/><path d="M165.32,248.18H166v6h-.63Z"/><path d="M167.19,251.37c0-.17,0-.33,0-.48s0-.29,0-.41h.59c0,.1,0,.2,0,.3v.32h0a.91.91,0,0,1,.18-.27,1.64,1.64,0,0,1,.28-.23,1.5,1.5,0,0,1,.36-.16,1.44,1.44,0,0,1,.43-.06,1.52,1.52,0,0,1,.51.08,1.36,1.36,0,0,1,.34.18.93.93,0,0,1,.21.24,1.64,1.64,0,0,1,.12.22,1.78,1.78,0,0,1,.48-.53,1.27,1.27,0,0,1,.71-.19,1.88,1.88,0,0,1,.67.11,1.1,1.1,0,0,1,.44.31,1.37,1.37,0,0,1,.24.5,2.59,2.59,0,0,1,.07.65v2.27h-.62V252a2.33,2.33,0,0,0,0-.37,1,1,0,0,0-.15-.33.71.71,0,0,0-.28-.23,1,1,0,0,0-.45-.09,1,1,0,0,0-.37.08,1,1,0,0,0-.31.22,1.13,1.13,0,0,0-.21.35,1.33,1.33,0,0,0-.07.45v2.16h-.63V252.1a1.62,1.62,0,0,0-.17-.88A.6.6,0,0,0,169,251a1.18,1.18,0,0,0-.52.1.88.88,0,0,0-.36.3,1.14,1.14,0,0,0-.21.46,2.1,2.1,0,0,0-.07.58v1.82h-.62Z"/><line class="cls-1" x1="38.21" y1="253" x2="46.2" y2="253"/><path d="M235.17,251a1.66,1.66,0,0,0-.63-.52,1.93,1.93,0,0,0-.79-.17,2.13,2.13,0,0,0-.87.19,2.16,2.16,0,0,0-.68.52,2.58,2.58,0,0,0-.45.75,2.69,2.69,0,0,0-.16.89,2.79,2.79,0,0,0,.16.93,2.41,2.41,0,0,0,.45.74,2,2,0,0,0,.68.5,1.92,1.92,0,0,0,.87.19,2,2,0,0,0,1.64-.8l.51.43a2.38,2.38,0,0,1-.93.75,3,3,0,0,1-1.22.24,2.85,2.85,0,0,1-1.13-.22,2.82,2.82,0,0,1-.92-.62,3,3,0,0,1-.61-.94,3.33,3.33,0,0,1-.22-1.2,3.19,3.19,0,0,1,.21-1.16,2.9,2.9,0,0,1,.6-1,3.08,3.08,0,0,1,.91-.63,3,3,0,0,1,2.27,0,2,2,0,0,1,.89.68Z"/><path d="M239,253.1l0,0a1.35,1.35,0,0,1-.37.13,2.87,2.87,0,0,1-.39,0,1.68,1.68,0,0,1-.68-.13,1.5,1.5,0,0,1-.55-.36,1.92,1.92,0,0,1-.36-.56,2.11,2.11,0,0,1-.12-.73,1.75,1.75,0,0,1,.14-.74,1.63,1.63,0,0,1,.4-.56,1.79,1.79,0,0,1,.6-.35,2.36,2.36,0,0,1,.75-.12,2.27,2.27,0,0,1,.75.12,1.94,1.94,0,0,1,.61.35,1.49,1.49,0,0,1,.39.56,1.75,1.75,0,0,1,.15.74,2.19,2.19,0,0,1,0,.46c0,.14-.07.27-.11.4a2.53,2.53,0,0,1-.18.37,3.35,3.35,0,0,1-.21.36l-1.5,2.4h-.79Zm-.6-.43a1.51,1.51,0,0,0,.48-.08,1.28,1.28,0,0,0,.39-.24,1.12,1.12,0,0,0,.26-.38,1.27,1.27,0,0,0,.1-.5,1.26,1.26,0,0,0-.1-.49,1,1,0,0,0-.26-.38,1,1,0,0,0-.39-.24,1.33,1.33,0,0,0-1,0,.88.88,0,0,0-.38.24,1.19,1.19,0,0,0-.27.38,1.26,1.26,0,0,0-.09.49,1.28,1.28,0,0,0,.09.5,1.31,1.31,0,0,0,.27.38,1.12,1.12,0,0,0,.38.24A1.51,1.51,0,0,0,238.35,252.67Z"/><path d="M240.88,252.62a7.07,7.07,0,0,1,.08-1,2.88,2.88,0,0,1,.3-.94,2,2,0,0,1,.58-.71,1.84,1.84,0,0,1,1.92,0,2,2,0,0,1,.58.71,2.88,2.88,0,0,1,.3.94,7.07,7.07,0,0,1,.08,1,7,7,0,0,1-.08,1,2.86,2.86,0,0,1-.3.95,2,2,0,0,1-.58.71,1.84,1.84,0,0,1-1.92,0,2,2,0,0,1-.58-.71,2.86,2.86,0,0,1-.3-.95A7,7,0,0,1,240.88,252.62Zm.67,0c0,.14,0,.3,0,.47a4.43,4.43,0,0,0,.06.51,2.72,2.72,0,0,0,.13.51,1.51,1.51,0,0,0,.22.44,1.12,1.12,0,0,0,.34.31,1,1,0,0,0,1,0,1.12,1.12,0,0,0,.34-.31,1.51,1.51,0,0,0,.22-.44,2.72,2.72,0,0,0,.13-.51,4.43,4.43,0,0,0,.06-.51c0-.17,0-.33,0-.47s0-.29,0-.46a4.88,4.88,0,0,0-.06-.52,2.83,2.83,0,0,0-.13-.5,1.4,1.4,0,0,0-.22-.44,1.12,1.12,0,0,0-.34-.31,1,1,0,0,0-1,0,1.12,1.12,0,0,0-.34.31,1.4,1.4,0,0,0-.22.44,2.83,2.83,0,0,0-.13.5,4.88,4.88,0,0,0-.06.52C241.56,252.33,241.55,252.49,241.55,252.62Z"/><path d="M247.78,255.8l-.51-.2,2.41-6.14.5.19Z"/><path d="M257.1,251a1.66,1.66,0,0,0-.63-.52,1.92,1.92,0,0,0-.78-.17,2.06,2.06,0,0,0-.87.19,2.16,2.16,0,0,0-.68.52,2.21,2.21,0,0,0-.45.75,2.46,2.46,0,0,0-.16.89,2.56,2.56,0,0,0,.16.93,2.2,2.2,0,0,0,.44.74,2.1,2.1,0,0,0,.68.5,2,2,0,0,0,.88.19,2,2,0,0,0,.93-.21,2,2,0,0,0,.71-.59l.5.43a2.29,2.29,0,0,1-.92.75,3,3,0,0,1-1.22.24,2.8,2.8,0,0,1-2.05-.84,2.82,2.82,0,0,1-.61-.94,3.13,3.13,0,0,1-.22-1.2,3.19,3.19,0,0,1,.21-1.16,2.75,2.75,0,0,1,.6-1,3,3,0,0,1,.91-.63,2.93,2.93,0,0,1,1.16-.23,3,3,0,0,1,1.11.21,2,2,0,0,1,.89.68Z"/><path d="M258.46,254.69l2.14-2.08.35-.36a1.75,1.75,0,0,0,.25-.32,1,1,0,0,0,.15-.32,1.46,1.46,0,0,0,0-.38,1,1,0,0,0-.08-.4.93.93,0,0,0-.22-.3,1.13,1.13,0,0,0-.73-.26,1,1,0,0,0-.71.25,1.11,1.11,0,0,0-.36.66l-.73-.07a1.91,1.91,0,0,1,.21-.61,1.28,1.28,0,0,1,.39-.44,1.77,1.77,0,0,1,.53-.27,2.25,2.25,0,0,1,.64-.09,2.09,2.09,0,0,1,.67.1,1.53,1.53,0,0,1,.55.29,1.47,1.47,0,0,1,.37.48,1.39,1.39,0,0,1,.14.66,1.91,1.91,0,0,1-.09.61,1.8,1.8,0,0,1-.25.5,2.86,2.86,0,0,1-.35.43l-.41.41-1.75,1.64h2.89v.63h-3.65Z"/><path d="M266.35,250.42l-2.26,5h-.76l2.3-5H262.9v-.63h3.45Z"/><path d="M267.26,252.62a7.07,7.07,0,0,1,.08-1,3.45,3.45,0,0,1,.3-.94,2,2,0,0,1,.59-.71,1.82,1.82,0,0,1,1.91,0,2,2,0,0,1,.59.71,3.45,3.45,0,0,1,.3.94,7,7,0,0,1,.07,1,6.92,6.92,0,0,1-.07,1,3.41,3.41,0,0,1-.3.95,2,2,0,0,1-.59.71,1.82,1.82,0,0,1-1.91,0,2,2,0,0,1-.59-.71,3.41,3.41,0,0,1-.3-.95A7,7,0,0,1,267.26,252.62Zm.68,0c0,.14,0,.3,0,.47a4.43,4.43,0,0,0,.06.51,2.72,2.72,0,0,0,.13.51,1.53,1.53,0,0,0,.23.44,1,1,0,0,0,.34.31.89.89,0,0,0,.47.12,1,1,0,0,0,.49-.12,1.08,1.08,0,0,0,.33-.31,1.53,1.53,0,0,0,.23-.44,2.72,2.72,0,0,0,.13-.51,4.43,4.43,0,0,0,.06-.51c0-.17,0-.33,0-.47s0-.29,0-.46a4.88,4.88,0,0,0-.06-.52,2.83,2.83,0,0,0-.13-.5,1.41,1.41,0,0,0-.23-.44,1.08,1.08,0,0,0-.33-.31,1,1,0,0,0-.49-.12.89.89,0,0,0-.47.12,1,1,0,0,0-.34.31,1.41,1.41,0,0,0-.23.44,2.83,2.83,0,0,0-.13.5,4.88,4.88,0,0,0-.06.52C267.94,252.33,267.94,252.49,267.94,252.62Z"/><path d="M52.87,251a1.55,1.55,0,0,0-.63-.51,1.82,1.82,0,0,0-.79-.18,2,2,0,0,0-.87.2,2.13,2.13,0,0,0-.68.51,2.58,2.58,0,0,0-.45.75,2.67,2.67,0,0,0,0,1.82,2.29,2.29,0,0,0,.45.74,1.88,1.88,0,0,0,.68.5,1.92,1.92,0,0,0,.87.19,2,2,0,0,0,.93-.21,2.07,2.07,0,0,0,.71-.58l.51.42a2.38,2.38,0,0,1-.93.75,3,3,0,0,1-1.22.24,2.85,2.85,0,0,1-1.13-.22,2.82,2.82,0,0,1-.92-.62,3,3,0,0,1-.61-.94,3.27,3.27,0,0,1-.22-1.19,3.2,3.2,0,0,1,.21-1.17,3,3,0,0,1,.6-.95,3.08,3.08,0,0,1,.91-.63,3,3,0,0,1,2.27,0,2,2,0,0,1,.89.68Z"/><path d="M54.13,252.62a7,7,0,0,1,.08-1,3.11,3.11,0,0,1,.3-1,1.94,1.94,0,0,1,.59-.71,1.55,1.55,0,0,1,.95-.27,1.6,1.6,0,0,1,1,.27,2,2,0,0,1,.59.71,3.1,3.1,0,0,1,.29,1,5.77,5.77,0,0,1,.08,1,5.85,5.85,0,0,1-.08,1,3.13,3.13,0,0,1-.29.94,2,2,0,0,1-.59.71,1.6,1.6,0,0,1-1,.27,1.55,1.55,0,0,1-.95-.27,1.94,1.94,0,0,1-.59-.71,3.14,3.14,0,0,1-.3-.94A7.07,7.07,0,0,1,54.13,252.62Zm.67,0c0,.13,0,.29,0,.46a4.88,4.88,0,0,0,.06.52,2.83,2.83,0,0,0,.13.5,1.4,1.4,0,0,0,.22.44,1.1,1.1,0,0,0,.34.31,1,1,0,0,0,.48.12.9.9,0,0,0,.48-.12.92.92,0,0,0,.34-.31,1.41,1.41,0,0,0,.23-.44,2.8,2.8,0,0,0,.12-.5,4.88,4.88,0,0,0,.06-.52,3.86,3.86,0,0,0,0-.46,3.94,3.94,0,0,0,0-.47,4.43,4.43,0,0,0-.06-.51,2.71,2.71,0,0,0-.12-.51,1.53,1.53,0,0,0-.23-.44,1,1,0,0,0-.34-.31.9.9,0,0,0-.48-.12,1,1,0,0,0-.48.12,1.24,1.24,0,0,0-.34.31,1.51,1.51,0,0,0-.22.44,2.72,2.72,0,0,0-.13.51,4.43,4.43,0,0,0-.06.51C54.81,252.32,54.8,252.48,54.8,252.62Z"/><path d="M61,255.79l-.51-.2,2.41-6.14.51.19Z"/><path d="M70.36,251a1.52,1.52,0,0,0-.64-.51,1.78,1.78,0,0,0-.78-.18,2,2,0,0,0-.87.2,2.13,2.13,0,0,0-.68.51,2.58,2.58,0,0,0-.45.75,2.51,2.51,0,0,0-.16.9,2.54,2.54,0,0,0,.16.92,2.46,2.46,0,0,0,.44.74,2.09,2.09,0,0,0,1.56.69,2,2,0,0,0,.93-.21,2.07,2.07,0,0,0,.71-.58l.5.42a2.29,2.29,0,0,1-.92.75,3,3,0,0,1-1.22.24,2.93,2.93,0,0,1-1.14-.22,2.88,2.88,0,0,1-.91-.62,3,3,0,0,1-.61-.94,3.07,3.07,0,0,1-.22-1.19,3.2,3.2,0,0,1,.21-1.17,2.84,2.84,0,0,1,.6-.95,3,3,0,0,1,.91-.63,2.93,2.93,0,0,1,1.16-.23,3,3,0,0,1,1.11.21,2,2,0,0,1,.89.68Z"/><path d="M74.2,255.45h-.68v-4.8h0l-1,.85-.4-.48,1.52-1.24h.59Z"/><path d="M76.37,251.17a1.33,1.33,0,0,1,.13-.61,1.2,1.2,0,0,1,.34-.46,1.44,1.44,0,0,1,.51-.3,1.92,1.92,0,0,1,1.28,0,1.44,1.44,0,0,1,.51.3,1.32,1.32,0,0,1,.34.46,1.48,1.48,0,0,1,.12.61,1.44,1.44,0,0,1-.06.4,1.41,1.41,0,0,1-.18.37,1.18,1.18,0,0,1-.3.29,1,1,0,0,1-.38.19h0a1.44,1.44,0,0,1,.46.19,1.35,1.35,0,0,1,.35.32,1.67,1.67,0,0,1,.23.44,1.7,1.7,0,0,1,.08.51,1.74,1.74,0,0,1-.14.69,1.46,1.46,0,0,1-.39.52,1.47,1.47,0,0,1-.57.33,2.35,2.35,0,0,1-1.42,0,1.59,1.59,0,0,1-.58-.33,1.43,1.43,0,0,1-.38-.52,1.74,1.74,0,0,1-.14-.69,1.7,1.7,0,0,1,.08-.51,1.65,1.65,0,0,1,.22-.44,1.59,1.59,0,0,1,.36-.32,1.44,1.44,0,0,1,.46-.19h0a1.18,1.18,0,0,1-.39-.19,1.33,1.33,0,0,1-.29-.29,1.41,1.41,0,0,1-.18-.37A1.16,1.16,0,0,1,76.37,251.17Zm.48,2.67a1.14,1.14,0,0,0,.09.46,1.21,1.21,0,0,0,.24.35,1.16,1.16,0,0,0,.36.23A1.13,1.13,0,0,0,78,255a1,1,0,0,0,.44-.09,1,1,0,0,0,.36-.23,1.07,1.07,0,0,0,.25-.35,1.36,1.36,0,0,0,0-.92,1.07,1.07,0,0,0-.25-.35,1,1,0,0,0-.36-.23,1,1,0,0,0-.44-.09,1.13,1.13,0,0,0-.45.09,1.16,1.16,0,0,0-.36.23,1.21,1.21,0,0,0-.24.35A1.14,1.14,0,0,0,76.85,253.84ZM77,251.2a.92.92,0,0,0,.26.67.93.93,0,0,0,.69.27.9.9,0,0,0,.68-.27,1,1,0,0,0,0-1.34.9.9,0,0,0-.68-.27.93.93,0,0,0-.69.27A.92.92,0,0,0,77,251.2Z"/><path d="M80.52,252.62a5.77,5.77,0,0,1,.08-1,3.1,3.1,0,0,1,.29-1,2,2,0,0,1,.59-.71,1.6,1.6,0,0,1,1-.27,1.55,1.55,0,0,1,1,.27,1.94,1.94,0,0,1,.59.71,3.41,3.41,0,0,1,.3,1,7,7,0,0,1,.08,1,7.07,7.07,0,0,1-.08,1,3.45,3.45,0,0,1-.3.94,1.94,1.94,0,0,1-.59.71,1.55,1.55,0,0,1-1,.27,1.6,1.6,0,0,1-1-.27,2,2,0,0,1-.59-.71,3.13,3.13,0,0,1-.29-.94A5.85,5.85,0,0,1,80.52,252.62Zm.67,0a3.86,3.86,0,0,0,0,.46c0,.17,0,.34.05.52a4.07,4.07,0,0,0,.13.5,1.41,1.41,0,0,0,.23.44.92.92,0,0,0,.34.31.9.9,0,0,0,.48.12,1,1,0,0,0,.48-.12,1.1,1.1,0,0,0,.34-.31,1.65,1.65,0,0,0,.22-.44,2.83,2.83,0,0,0,.13-.5,4.88,4.88,0,0,0,.06-.52c0-.17,0-.33,0-.46s0-.3,0-.47a4.43,4.43,0,0,0-.06-.51,2.72,2.72,0,0,0-.13-.51,1.81,1.81,0,0,0-.22-.44,1.24,1.24,0,0,0-.34-.31,1,1,0,0,0-.48-.12.9.9,0,0,0-.48.12,1,1,0,0,0-.34.31,1.53,1.53,0,0,0-.23.44,3.8,3.8,0,0,0-.13.51c0,.17,0,.34-.05.51A3.94,3.94,0,0,0,81.19,252.62Z"/><line class="cls-2" x1="214.49" y1="253.42" x2="215.03" y2="253.42"/><line class="cls-2" x1="217.76" y1="253.42" x2="218.3" y2="253.42"/><line class="cls-2" x1="221.02" y1="253.42" x2="221.56" y2="253.42"/><line class="cls-2" x1="224.29" y1="253.42" x2="224.83" y2="253.42"/><line class="cls-2" x1="227.55" y1="253.42" x2="228.09" y2="253.42"/></g><g id="Romeo_Moon_T1_F6107000"><path d="M54.13,12.18h4.39V13H55V15.3h3.3v.78H55v3.18h-.84Z"/><path d="M60.85,15.13l0,0a1.85,1.85,0,0,1,.47-.16,2.8,2.8,0,0,1,.48-.05,2.43,2.43,0,0,1,.86.16,2,2,0,0,1,.68.46,2.09,2.09,0,0,1,.44.7,2.44,2.44,0,0,1,.16.9,2.27,2.27,0,0,1-.18.93,2,2,0,0,1-.5.7,2.32,2.32,0,0,1-.75.44,2.89,2.89,0,0,1-.94.15,2.83,2.83,0,0,1-.93-.15,2.37,2.37,0,0,1-.76-.44,2,2,0,0,1-.5-.7,2.27,2.27,0,0,1-.18-.93,2.76,2.76,0,0,1,.19-1.07,7.39,7.39,0,0,1,.48-.92l1.88-3h1Zm.74.53a1.73,1.73,0,0,0-.6.11,1.31,1.31,0,0,0-.48.3,1.43,1.43,0,0,0-.33.47,1.59,1.59,0,0,0-.12.62,1.57,1.57,0,0,0,.12.63,1.43,1.43,0,0,0,.33.47,1.31,1.31,0,0,0,.48.3,1.85,1.85,0,0,0,1.2,0,1.44,1.44,0,0,0,.49-.3,1.49,1.49,0,0,0,.44-1.1,1.59,1.59,0,0,0-.12-.62,1.56,1.56,0,0,0-.32-.47,1.44,1.44,0,0,0-.49-.3A1.73,1.73,0,0,0,61.59,15.66Z"/><path d="M68,19.26h-.84v-6h0l-1.27,1.07-.5-.61,1.9-1.54H68Z"/><path d="M70.31,15.72a7.88,7.88,0,0,1,.1-1.25,4.07,4.07,0,0,1,.37-1.18,2.44,2.44,0,0,1,.74-.88,1.93,1.93,0,0,1,1.19-.35,2,2,0,0,1,1.2.35,2.41,2.41,0,0,1,.73.88A4.07,4.07,0,0,1,75,14.47a7.88,7.88,0,0,1,.1,1.25A7.79,7.79,0,0,1,75,17a4,4,0,0,1-.37,1.19,2.41,2.41,0,0,1-.73.88,2,2,0,0,1-1.2.34A1.93,1.93,0,0,1,71.52,19a2.44,2.44,0,0,1-.74-.88A4,4,0,0,1,70.41,17,7.79,7.79,0,0,1,70.31,15.72Zm.84,0c0,.18,0,.37,0,.58a4.81,4.81,0,0,0,.08.65,3.23,3.23,0,0,0,.16.63,1.9,1.9,0,0,0,.28.55,1.31,1.31,0,0,0,.42.39,1.36,1.36,0,0,0,1.2,0,1.45,1.45,0,0,0,.43-.39,2.19,2.19,0,0,0,.28-.55,4.15,4.15,0,0,0,.16-.63c0-.22.06-.43.07-.65s0-.4,0-.58,0-.36,0-.58,0-.43-.07-.64a4.61,4.61,0,0,0-.16-.64,2.37,2.37,0,0,0-.28-.55,1.3,1.3,0,0,0-.43-.38,1.27,1.27,0,0,0-1.2,0,1.18,1.18,0,0,0-.42.38,2,2,0,0,0-.28.55,3.53,3.53,0,0,0-.16.64,4.66,4.66,0,0,0-.08.64C71.16,15.36,71.15,15.55,71.15,15.72Z"/><path d="M80.29,13l-2.83,6.3h-.95L79.39,13H76v-.78h4.32Z"/><path d="M81.43,15.72a7.88,7.88,0,0,1,.1-1.25,4.07,4.07,0,0,1,.37-1.18,2.44,2.44,0,0,1,.74-.88,1.93,1.93,0,0,1,1.19-.35,2,2,0,0,1,1.2.35,2.41,2.41,0,0,1,.73.88,4.07,4.07,0,0,1,.37,1.18,7.88,7.88,0,0,1,.1,1.25,7.79,7.79,0,0,1-.1,1.25,4,4,0,0,1-.37,1.19A2.41,2.41,0,0,1,85,19a2,2,0,0,1-1.2.34A1.93,1.93,0,0,1,82.64,19a2.44,2.44,0,0,1-.74-.88A4,4,0,0,1,81.53,17,7.79,7.79,0,0,1,81.43,15.72Zm.84,0c0,.18,0,.37,0,.58a4.81,4.81,0,0,0,.08.65,3.23,3.23,0,0,0,.16.63,1.9,1.9,0,0,0,.28.55,1.31,1.31,0,0,0,.42.39,1.36,1.36,0,0,0,1.2,0,1.45,1.45,0,0,0,.43-.39,2.19,2.19,0,0,0,.28-.55A4.15,4.15,0,0,0,85.3,17c0-.22.06-.43.07-.65s0-.4,0-.58,0-.36,0-.58,0-.43-.07-.64a4.61,4.61,0,0,0-.16-.64,2.37,2.37,0,0,0-.28-.55,1.3,1.3,0,0,0-.43-.38,1.27,1.27,0,0,0-1.2,0,1.18,1.18,0,0,0-.42.38,2,2,0,0,0-.28.55,3.53,3.53,0,0,0-.16.64,4.66,4.66,0,0,0-.08.64C82.28,15.36,82.27,15.55,82.27,15.72Z"/><path d="M87,15.72a7.88,7.88,0,0,1,.1-1.25,4.07,4.07,0,0,1,.37-1.18,2.44,2.44,0,0,1,.74-.88,1.93,1.93,0,0,1,1.19-.35,2,2,0,0,1,1.2.35,2.41,2.41,0,0,1,.73.88,4.07,4.07,0,0,1,.37,1.18,7.88,7.88,0,0,1,.1,1.25,7.79,7.79,0,0,1-.1,1.25,4,4,0,0,1-.37,1.19,2.41,2.41,0,0,1-.73.88,2,2,0,0,1-1.2.34A1.93,1.93,0,0,1,88.2,19a2.44,2.44,0,0,1-.74-.88A4,4,0,0,1,87.09,17,7.79,7.79,0,0,1,87,15.72Zm.84,0c0,.18,0,.37,0,.58a4.81,4.81,0,0,0,.08.65,3.23,3.23,0,0,0,.16.63,1.9,1.9,0,0,0,.28.55,1.31,1.31,0,0,0,.42.39,1.36,1.36,0,0,0,1.2,0,1.45,1.45,0,0,0,.43-.39,2.19,2.19,0,0,0,.28-.55,4.15,4.15,0,0,0,.16-.63c0-.22.06-.43.07-.65s0-.4,0-.58,0-.36,0-.58,0-.43-.07-.64a4.61,4.61,0,0,0-.16-.64,2.37,2.37,0,0,0-.28-.55,1.3,1.3,0,0,0-.43-.38,1.27,1.27,0,0,0-1.2,0,1.18,1.18,0,0,0-.42.38,2,2,0,0,0-.28.55,3.53,3.53,0,0,0-.16.64,4.66,4.66,0,0,0-.08.64C87.84,15.36,87.83,15.55,87.83,15.72Z"/><path d="M92.55,15.72a7.88,7.88,0,0,1,.1-1.25A4.07,4.07,0,0,1,93,13.29a2.44,2.44,0,0,1,.74-.88A1.93,1.93,0,0,1,95,12.06a2,2,0,0,1,1.2.35,2.41,2.41,0,0,1,.73.88,4.07,4.07,0,0,1,.37,1.18,7.88,7.88,0,0,1,.1,1.25,7.79,7.79,0,0,1-.1,1.25,4,4,0,0,1-.37,1.19,2.41,2.41,0,0,1-.73.88,2,2,0,0,1-1.2.34A1.93,1.93,0,0,1,93.76,19a2.44,2.44,0,0,1-.74-.88A4,4,0,0,1,92.65,17,7.79,7.79,0,0,1,92.55,15.72Zm.84,0c0,.18,0,.37,0,.58a4.81,4.81,0,0,0,.08.65,3.23,3.23,0,0,0,.16.63,1.9,1.9,0,0,0,.28.55,1.31,1.31,0,0,0,.42.39,1.36,1.36,0,0,0,1.2,0,1.45,1.45,0,0,0,.43-.39,2.19,2.19,0,0,0,.28-.55,4.15,4.15,0,0,0,.16-.63c0-.22.06-.43.07-.65s0-.4,0-.58,0-.36,0-.58,0-.43-.07-.64a4.61,4.61,0,0,0-.16-.64,2.37,2.37,0,0,0-.28-.55,1.3,1.3,0,0,0-.43-.38,1.28,1.28,0,0,0-1.2,0,1.18,1.18,0,0,0-.42.38,2,2,0,0,0-.28.55,3.53,3.53,0,0,0-.16.64,4.66,4.66,0,0,0-.08.64C93.4,15.36,93.39,15.55,93.39,15.72Z"/><path d="M97.73,20h5v.5h-5Z"/><path d="M106.33,19.26h-.84v-6h0l-1.27,1.07-.5-.61,1.9-1.54h.73Z"/><path d="M113,13h-2.89l0,1.91a1.48,1.48,0,0,1,.45-.13,2.45,2.45,0,0,1,.46,0,2.34,2.34,0,0,1,.93.18,2.2,2.2,0,0,1,.71.49,2.15,2.15,0,0,1,.46.74,2.71,2.71,0,0,1,0,1.89,2.44,2.44,0,0,1-.51.74,2.42,2.42,0,0,1-.77.47,2.57,2.57,0,0,1-1,.17,2.15,2.15,0,0,1-1.3-.35,2.36,2.36,0,0,1-.79-.94l.84-.32a1.61,1.61,0,0,0,.53.65,1.34,1.34,0,0,0,.79.24,1.73,1.73,0,0,0,.6-.11,1.58,1.58,0,0,0,.48-.33,1.82,1.82,0,0,0,.32-.52,1.78,1.78,0,0,0,.12-.67,1.67,1.67,0,0,0-.13-.69,1.55,1.55,0,0,0-.37-.5,1.61,1.61,0,0,0-.56-.31,2.19,2.19,0,0,0-1.43,0,3.71,3.71,0,0,0-.7.31l.07-3.68H113Z"/><path d="M114.23,15.72a7.88,7.88,0,0,1,.1-1.25,4.07,4.07,0,0,1,.37-1.18,2.44,2.44,0,0,1,.74-.88,1.93,1.93,0,0,1,1.19-.35,2,2,0,0,1,1.2.35,2.41,2.41,0,0,1,.73.88,4.07,4.07,0,0,1,.37,1.18,7.88,7.88,0,0,1,.1,1.25,7.79,7.79,0,0,1-.1,1.25,4,4,0,0,1-.37,1.19,2.41,2.41,0,0,1-.73.88,2,2,0,0,1-1.2.34,1.93,1.93,0,0,1-1.19-.34,2.44,2.44,0,0,1-.74-.88,4,4,0,0,1-.37-1.19A7.79,7.79,0,0,1,114.23,15.72Zm.84,0c0,.18,0,.37,0,.58a4.81,4.81,0,0,0,.08.65,3.23,3.23,0,0,0,.16.63,1.9,1.9,0,0,0,.28.55,1.31,1.31,0,0,0,.42.39,1.36,1.36,0,0,0,1.2,0,1.45,1.45,0,0,0,.43-.39,2.19,2.19,0,0,0,.28-.55,4.15,4.15,0,0,0,.16-.63c0-.22.06-.43.07-.65s0-.4,0-.58,0-.36,0-.58,0-.43-.07-.64a4.61,4.61,0,0,0-.16-.64,2.37,2.37,0,0,0-.28-.55,1.3,1.3,0,0,0-.43-.38,1.27,1.27,0,0,0-1.2,0,1.18,1.18,0,0,0-.42.38,2,2,0,0,0-.28.55,3.53,3.53,0,0,0-.16.64,4.66,4.66,0,0,0-.08.64C115.08,15.36,115.07,15.55,115.07,15.72Z"/><path d="M119.47,12.18h.93L122,18.06h0l1.74-5.88h.94l1.73,5.88h0l1.64-5.88H129l-2.08,7.08H126l-1.75-6h0l-1.76,6h-.92Z"/><path d="M132.63,12.18h.84v3h3.78v-3h.84v7.08h-.84V16h-3.78v3.3h-.84Z"/><path d="M139.92,12.18h.84v6.3H144v.78h-4.08Z"/><rect class="cls-3" x="54.25" y="42.2" width="189.86" height="189.86"/><circle class="cls-4" cx="149.18" cy="137.08" r="18.95"/><path d="M150.05,159.65l1.2-1.16.2-.2a1.1,1.1,0,0,0,.14-.18.48.48,0,0,0,.08-.18.66.66,0,0,0,0-.21.56.56,0,0,0,0-.23.7.7,0,0,0-.13-.16.42.42,0,0,0-.18-.11.59.59,0,0,0-.23,0,.61.61,0,0,0-.4.14.64.64,0,0,0-.2.37l-.41,0a.92.92,0,0,1,.12-.34.76.76,0,0,1,.22-.25.85.85,0,0,1,.3-.15,1,1,0,0,1,.36,0,1.5,1.5,0,0,1,.37,0,1,1,0,0,1,.31.17.71.71,0,0,1,.21.27.84.84,0,0,1,.08.37,1.21,1.21,0,0,1-.05.34,2.44,2.44,0,0,1-.14.28l-.2.24-.23.23-1,.92h1.62v.34h-2Z"/><path d="M152.47,158.5a3.6,3.6,0,0,1,0-.56,1.74,1.74,0,0,1,.17-.53,1.16,1.16,0,0,1,.33-.4.88.88,0,0,1,.53-.15.91.91,0,0,1,.54.15,1.16,1.16,0,0,1,.33.4,1.73,1.73,0,0,1,.16.53,3.64,3.64,0,0,1,.05.56,3.75,3.75,0,0,1-.05.56,1.82,1.82,0,0,1-.16.53,1,1,0,0,1-.33.39.85.85,0,0,1-.54.16A.82.82,0,0,1,153,160a1,1,0,0,1-.33-.39,1.83,1.83,0,0,1-.17-.53A3.69,3.69,0,0,1,152.47,158.5Zm.37,0c0,.08,0,.16,0,.26s0,.19,0,.29a1.43,1.43,0,0,0,.07.28,1,1,0,0,0,.12.25.61.61,0,0,0,.19.17.6.6,0,0,0,.27.07.54.54,0,0,0,.27-.07.52.52,0,0,0,.19-.17,1,1,0,0,0,.13-.25,2.86,2.86,0,0,0,.07-.28c0-.1,0-.2,0-.29a2.44,2.44,0,0,0,0-.26,2.35,2.35,0,0,0,0-.26,2.85,2.85,0,0,0,0-.29c0-.1,0-.19-.07-.29a.92.92,0,0,0-.13-.24.52.52,0,0,0-.19-.17.45.45,0,0,0-.27-.07.5.5,0,0,0-.27.07.61.61,0,0,0-.19.17.9.9,0,0,0-.12.24,1.53,1.53,0,0,0-.07.29,2.89,2.89,0,0,0,0,.29C152.85,158.33,152.84,158.42,152.84,158.5Z"/><circle class="cls-4" cx="149.18" cy="137.08" r="37.91"/><path d="M151.71,178h.46v.35h-.46V179h-.38v-.73H150v-.41l1.26-2h.46Zm-.38-1.66h0l-1,1.66h1Z"/><path d="M152.47,177.45a3.69,3.69,0,0,1,0-.56,1.83,1.83,0,0,1,.17-.53A1,1,0,0,1,153,176a.82.82,0,0,1,.53-.16.85.85,0,0,1,.54.16,1,1,0,0,1,.33.39,1.82,1.82,0,0,1,.16.53,3.75,3.75,0,0,1,.05.56,3.64,3.64,0,0,1-.05.56,1.73,1.73,0,0,1-.16.53,1.16,1.16,0,0,1-.33.4.91.91,0,0,1-.54.15.88.88,0,0,1-.53-.15,1.16,1.16,0,0,1-.33-.4,1.74,1.74,0,0,1-.17-.53A3.6,3.6,0,0,1,152.47,177.45Zm.37,0c0,.08,0,.17,0,.26a2.89,2.89,0,0,0,0,.29,1.53,1.53,0,0,0,.07.29.9.9,0,0,0,.12.24.81.81,0,0,0,.19.18.6.6,0,0,0,.27.06.54.54,0,0,0,.27-.06.66.66,0,0,0,.19-.18.92.92,0,0,0,.13-.24c0-.1.05-.19.07-.29a2.85,2.85,0,0,0,0-.29,2.35,2.35,0,0,0,0-.26,2.44,2.44,0,0,0,0-.26c0-.09,0-.19,0-.29a2.86,2.86,0,0,0-.07-.28,1,1,0,0,0-.13-.25.52.52,0,0,0-.19-.17.54.54,0,0,0-.27-.07.6.6,0,0,0-.27.07.61.61,0,0,0-.19.17,1,1,0,0,0-.12.25,1.43,1.43,0,0,0-.07.28c0,.1,0,.2,0,.29S152.84,177.37,152.84,177.45Z"/><circle class="cls-4" cx="149.18" cy="137.08" r="56.92"/><path d="M150.75,196.2h0a.66.66,0,0,1,.21-.08l.22,0a.92.92,0,0,1,.38.07,1,1,0,0,1,.31.21,1,1,0,0,1,.2.31,1.1,1.1,0,0,1,.07.41,1.07,1.07,0,0,1-.08.41.81.81,0,0,1-.23.31.79.79,0,0,1-.33.2,1.3,1.3,0,0,1-.84,0,.9.9,0,0,1-.34-.2.7.7,0,0,1-.22-.31.91.91,0,0,1-.09-.41,1.14,1.14,0,0,1,.09-.48,2.82,2.82,0,0,1,.22-.42l.84-1.34h.44Zm.33.23a.76.76,0,0,0-.27,0,.55.55,0,0,0-.22.14.46.46,0,0,0-.14.21.61.61,0,0,0-.06.28.67.67,0,0,0,.06.28.6.6,0,0,0,.14.21.67.67,0,0,0,.22.13.76.76,0,0,0,.27.05.86.86,0,0,0,.27-.05.74.74,0,0,0,.21-.13.8.8,0,0,0,.15-.21.66.66,0,0,0,0-.28.61.61,0,0,0,0-.28.57.57,0,0,0-.15-.21.6.6,0,0,0-.21-.14A.86.86,0,0,0,151.08,196.43Z"/><path d="M152.47,196.46a3.6,3.6,0,0,1,0-.56,1.83,1.83,0,0,1,.17-.53,1.16,1.16,0,0,1,.33-.4.88.88,0,0,1,.53-.15.91.91,0,0,1,.54.15,1.16,1.16,0,0,1,.33.4,1.82,1.82,0,0,1,.16.53,3.16,3.16,0,0,1,0,1.12,1.82,1.82,0,0,1-.16.53,1.16,1.16,0,0,1-.33.4.91.91,0,0,1-.54.15A.88.88,0,0,1,153,198a1.16,1.16,0,0,1-.33-.4,1.83,1.83,0,0,1-.17-.53A3.6,3.6,0,0,1,152.47,196.46Zm.37,0c0,.08,0,.16,0,.26a2.89,2.89,0,0,0,0,.29,1.28,1.28,0,0,0,.07.28.83.83,0,0,0,.12.25.61.61,0,0,0,.19.17.5.5,0,0,0,.27.07.45.45,0,0,0,.27-.07.52.52,0,0,0,.19-.17.84.84,0,0,0,.13-.25,2.29,2.29,0,0,0,.07-.28,2.85,2.85,0,0,0,0-.29,3.38,3.38,0,0,0,0-.52,2.85,2.85,0,0,0,0-.29,2.29,2.29,0,0,0-.07-.28.84.84,0,0,0-.13-.25.52.52,0,0,0-.19-.17.45.45,0,0,0-.27-.07.5.5,0,0,0-.27.07.61.61,0,0,0-.19.17.83.83,0,0,0-.12.25,1.28,1.28,0,0,0-.07.28,2.89,2.89,0,0,0,0,.29C152.85,196.3,152.84,196.38,152.84,196.46Z"/><circle class="cls-4" cx="149.18" cy="137.08" r="75.92"/><path d="M150.17,214.66a.74.74,0,0,1,.07-.34.73.73,0,0,1,.19-.26.77.77,0,0,1,.29-.17,1.11,1.11,0,0,1,.72,0,.73.73,0,0,1,.28.17.63.63,0,0,1,.19.26.74.74,0,0,1,.07.34.83.83,0,0,1,0,.22.84.84,0,0,1-.11.21.61.61,0,0,1-.16.16.76.76,0,0,1-.22.11h0a.74.74,0,0,1,.26.1.7.7,0,0,1,.2.18.65.65,0,0,1,.12.25.66.66,0,0,1,.05.28,1,1,0,0,1-.08.39.86.86,0,0,1-.21.29,1.06,1.06,0,0,1-.33.19,1.23,1.23,0,0,1-.39.06,1.29,1.29,0,0,1-.4-.06,1.13,1.13,0,0,1-.32-.19.89.89,0,0,1-.22-.29,1,1,0,0,1-.08-.39.87.87,0,0,1,.05-.28.83.83,0,0,1,.12-.25.86.86,0,0,1,.2-.18.82.82,0,0,1,.26-.1h0a.91.91,0,0,1-.22-.11.68.68,0,0,1-.26-.37A.57.57,0,0,1,150.17,214.66Zm.27,1.49a.71.71,0,0,0,.05.26.56.56,0,0,0,.14.2.58.58,0,0,0,.2.13.66.66,0,0,0,.25,0,.7.7,0,0,0,.25,0,.86.86,0,0,0,.2-.13.53.53,0,0,0,.13-.2.55.55,0,0,0,.05-.26.53.53,0,0,0-.05-.25.46.46,0,0,0-.13-.2.63.63,0,0,0-.2-.13.7.7,0,0,0-.25,0,.66.66,0,0,0-.25,0,.46.46,0,0,0-.2.13.48.48,0,0,0-.14.2A.7.7,0,0,0,150.44,216.15Zm.11-1.48a.54.54,0,0,0,.14.38.53.53,0,0,0,.39.15.51.51,0,0,0,.53-.53.5.5,0,0,0-.15-.37.5.5,0,0,0-.38-.15.5.5,0,0,0-.53.52Z"/><path d="M152.47,215.47a3.6,3.6,0,0,1,0-.56,1.74,1.74,0,0,1,.17-.53,1.08,1.08,0,0,1,.33-.4.88.88,0,0,1,.53-.15.91.91,0,0,1,.54.15,1.08,1.08,0,0,1,.33.4,1.73,1.73,0,0,1,.16.53,3.64,3.64,0,0,1,.05.56,3.75,3.75,0,0,1-.05.56,1.82,1.82,0,0,1-.16.53,1,1,0,0,1-.33.39.85.85,0,0,1-.54.16A.82.82,0,0,1,153,217a1,1,0,0,1-.33-.39,1.83,1.83,0,0,1-.17-.53A3.69,3.69,0,0,1,152.47,215.47Zm.37,0c0,.08,0,.16,0,.26s0,.19,0,.29a1.43,1.43,0,0,0,.07.28,1,1,0,0,0,.12.25.61.61,0,0,0,.19.17.6.6,0,0,0,.27.07.54.54,0,0,0,.27-.07.52.52,0,0,0,.19-.17,1,1,0,0,0,.13-.25,2.86,2.86,0,0,0,.07-.28c0-.1,0-.2,0-.29a2.44,2.44,0,0,0,0-.26,2.35,2.35,0,0,0,0-.26,2.85,2.85,0,0,0,0-.29c0-.1,0-.19-.07-.29a.92.92,0,0,0-.13-.24.66.66,0,0,0-.19-.18.54.54,0,0,0-.27-.06.6.6,0,0,0-.27.06.81.81,0,0,0-.19.18.9.9,0,0,0-.12.24,1.53,1.53,0,0,0-.07.29,2.89,2.89,0,0,0,0,.29C152.85,215.3,152.84,215.39,152.84,215.47Z"/><circle class="cls-4" cx="149.18" cy="137.08" r="94.93"/><line class="cls-4" x1="54.25" y1="137.14" x2="244.17" y2="137.14"/><line class="cls-4" x1="149.18" y1="232.07" x2="149.18" y2="42.15"/><line class="cls-4" x1="94.43" y1="42.15" x2="203.99" y2="232.07"/><line class="cls-4" x1="94.43" y1="232.07" x2="203.99" y2="42.15"/><line class="cls-4" x1="54.25" y1="82.33" x2="244.17" y2="191.89"/><line class="cls-4" x1="54.25" y1="191.89" x2="244.17" y2="82.33"/><line class="cls-1" x1="149.18" y1="176.39" x2="150.59" y2="176.72"/><line class="cls-1" x1="150.59" y1="176.72" x2="151.99" y2="176.93"/><line class="cls-1" x1="151.99" y1="176.93" x2="153.39" y2="177.15"/><line class="cls-1" x1="153.39" y1="177.15" x2="154.64" y2="175.96"/><line class="cls-1" x1="154.64" y1="175.96" x2="156.31" y2="177.58"/><line class="cls-1" x1="156.31" y1="177.58" x2="158.52" y2="181.04"/><line class="cls-1" x1="158.52" y1="181.04" x2="161.66" y2="187.09"/><line class="cls-1" x1="161.66" y1="187.09" x2="164.9" y2="191.84"/><line class="cls-1" x1="164.9" y1="191.84" x2="168.62" y2="196.97"/><line class="cls-1" x1="168.62" y1="196.97" x2="172.46" y2="201.07"/><line class="cls-1" x1="172.46" y1="201.07" x2="176.4" y2="204.42"/><line class="cls-1" x1="176.4" y1="204.42" x2="180.5" y2="207.5"/><line class="cls-1" x1="180.5" y1="207.5" x2="183.9" y2="208.25"/><line class="cls-1" x1="183.9" y1="208.25" x2="186.23" y2="206.74"/><line class="cls-1" x1="186.23" y1="206.74" x2="188.6" y2="205.39"/><line class="cls-1" x1="188.6" y1="205.39" x2="190.82" y2="203.72"/><line class="cls-1" x1="190.82" y1="203.72" x2="192.76" y2="201.72"/><line class="cls-1" x1="192.76" y1="201.72" x2="194.43" y2="199.4"/><line class="cls-1" x1="194.43" y1="199.4" x2="196" y2="197.02"/><line class="cls-1" x1="196" y1="197.02" x2="196.81" y2="193.84"/><line class="cls-1" x1="196.81" y1="193.84" x2="196.92" y2="190.06"/><line class="cls-1" x1="196.92" y1="190.06" x2="196.11" y2="185.68"/><line class="cls-1" x1="196.11" y1="185.68" x2="195.03" y2="181.31"/><line class="cls-1" x1="195.03" y1="181.31" x2="192.81" y2="176.39"/><line class="cls-1" x1="192.81" y1="176.39" x2="191.2" y2="172.34"/><line class="cls-1" x1="191.2" y1="172.34" x2="189.79" y2="168.83"/><line class="cls-1" x1="189.79" y1="168.83" x2="188.71" y2="165.81"/><line class="cls-1" x1="188.71" y1="165.81" x2="188.01" y2="163.27"/><line class="cls-1" x1="188.01" y1="163.27" x2="187.85" y2="161.22"/><line class="cls-1" x1="187.85" y1="161.22" x2="187.79" y2="159.38"/><line class="cls-1" x1="187.79" y1="159.38" x2="188.06" y2="157.76"/><line class="cls-1" x1="188.06" y1="157.76" x2="188.71" y2="156.36"/><line class="cls-1" x1="188.71" y1="156.36" x2="189.3" y2="154.96"/><line class="cls-1" x1="189.3" y1="154.96" x2="190.06" y2="153.61"/><line class="cls-1" x1="190.06" y1="153.61" x2="190.87" y2="152.26"/><line class="cls-1" x1="190.87" y1="152.26" x2="191.63" y2="150.85"/><line class="cls-1" x1="191.63" y1="150.85" x2="192.49" y2="149.5"/><line class="cls-1" x1="192.49" y1="149.5" x2="193.19" y2="148.04"/><line class="cls-1" x1="193.19" y1="148.04" x2="193.79" y2="146.59"/><line class="cls-1" x1="193.79" y1="146.59" x2="194.27" y2="145.02"/><line class="cls-1" x1="194.27" y1="145.02" x2="194.6" y2="143.45"/><line class="cls-1" x1="194.6" y1="143.45" x2="194.81" y2="141.89"/><line class="cls-1" x1="194.81" y1="141.89" x2="194.81" y2="140.27"/><line class="cls-1" x1="194.81" y1="140.27" x2="194.49" y2="138.65"/><line class="cls-1" x1="194.49" y1="138.65" x2="194.22" y2="137.14"/><line class="cls-1" x1="194.22" y1="137.14" x2="193.95" y2="135.57"/><line class="cls-1" x1="193.95" y1="135.57" x2="193.68" y2="134"/><line class="cls-1" x1="193.68" y1="134" x2="193.3" y2="132.49"/><line class="cls-1" x1="193.3" y1="132.49" x2="192.76" y2="131.03"/><line class="cls-1" x1="192.76" y1="131.03" x2="192.17" y2="129.58"/><line class="cls-1" x1="192.17" y1="129.58" x2="191.46" y2="128.17"/><line class="cls-1" x1="191.46" y1="128.17" x2="190.65" y2="126.82"/><line class="cls-1" x1="190.65" y1="126.82" x2="189.74" y2="125.53"/><line class="cls-1" x1="189.74" y1="125.53" x2="188.82" y2="124.28"/><line class="cls-1" x1="188.82" y1="124.28" x2="187.68" y2="123.1"/><line class="cls-1" x1="187.68" y1="123.1" x2="186.44" y2="122.07"/><line class="cls-1" x1="186.44" y1="122.07" x2="185.04" y2="121.15"/><line class="cls-1" x1="185.04" y1="121.15" x2="183.63" y2="120.34"/><line class="cls-1" x1="183.63" y1="120.34" x2="182.01" y2="119.69"/><line class="cls-1" x1="182.01" y1="119.69" x2="180.56" y2="119.05"/><line class="cls-1" x1="180.56" y1="119.05" x2="179.1" y2="118.45"/><line class="cls-1" x1="179.1" y1="118.45" x2="177.64" y2="117.91"/><line class="cls-1" x1="177.64" y1="117.91" x2="176.34" y2="117.43"/><line class="cls-1" x1="176.34" y1="117.43" x2="175.05" y2="116.89"/><line class="cls-1" x1="175.05" y1="116.89" x2="173.91" y2="116.4"/><line class="cls-1" x1="173.91" y1="116.4" x2="172.78" y2="115.86"/><line class="cls-1" x1="172.78" y1="115.86" x2="171.7" y2="115.43"/><line class="cls-1" x1="171.7" y1="115.43" x2="170.94" y2="114.62"/><line class="cls-1" x1="170.94" y1="114.62" x2="170.51" y2="113.43"/><line class="cls-1" x1="170.51" y1="113.43" x2="170.03" y2="112.3"/><line class="cls-1" x1="170.03" y1="112.3" x2="169.59" y2="111.05"/><line class="cls-1" x1="169.59" y1="111.05" x2="168.51" y2="110.51"/><line class="cls-1" x1="168.51" y1="110.51" x2="169.49" y2="107"/><line class="cls-1" x1="169.49" y1="107" x2="172.46" y2="99.88"/><line class="cls-1" x1="172.46" y1="99.88" x2="173.97" y2="94.21"/><line class="cls-1" x1="173.97" y1="94.21" x2="174.83" y2="88.91"/><line class="cls-1" x1="174.83" y1="88.91" x2="175.37" y2="83.41"/><line class="cls-1" x1="175.37" y1="83.41" x2="174.4" y2="80.49"/><line class="cls-1" x1="174.4" y1="80.49" x2="172.08" y2="80.49"/><line class="cls-1" x1="172.08" y1="80.49" x2="169.97" y2="80.06"/><line class="cls-1" x1="169.97" y1="80.06" x2="167.76" y2="80"/><line class="cls-1" x1="167.76" y1="80" x2="165.44" y2="80.54"/><line class="cls-1" x1="165.44" y1="80.54" x2="163.22" y2="80.81"/><line class="cls-1" x1="163.22" y1="80.81" x2="161.01" y2="81.41"/><line class="cls-1" x1="161.01" y1="81.41" x2="158.96" y2="81.68"/><line class="cls-1" x1="158.96" y1="81.68" x2="156.96" y2="81.73"/><line class="cls-1" x1="156.96" y1="81.73" x2="155.01" y2="81.62"/><line class="cls-1" x1="155.01" y1="81.62" x2="153.12" y2="80.98"/><line class="cls-1" x1="153.12" y1="80.98" x2="151.18" y2="80.22"/><line class="cls-1" x1="151.18" y1="80.22" x2="149.18" y2="79.52"/><line class="cls-1" x1="149.18" y1="176.39" x2="147.83" y2="176.66"/><line class="cls-1" x1="147.83" y1="176.66" x2="146.48" y2="176.66"/><line class="cls-1" x1="146.48" y1="176.66" x2="145.02" y2="177.26"/><line class="cls-1" x1="145.02" y1="177.26" x2="143.57" y2="177.26"/><line class="cls-1" x1="143.57" y1="177.26" x2="141.78" y2="179.36"/><line class="cls-1" x1="141.78" y1="179.36" x2="139.52" y2="182.93"/><line class="cls-1" x1="139.52" y1="182.93" x2="136.44" y2="188.38"/><line class="cls-1" x1="136.44" y1="188.38" x2="133.04" y2="193.67"/><line class="cls-1" x1="133.04" y1="193.67" x2="128.5" y2="200.8"/><line class="cls-1" x1="128.5" y1="200.8" x2="124.29" y2="205.61"/><line class="cls-1" x1="124.29" y1="205.61" x2="120.18" y2="208.96"/><line class="cls-1" x1="120.18" y1="208.96" x2="116.24" y2="211.17"/><line class="cls-1" x1="116.24" y1="211.17" x2="113" y2="211.33"/><line class="cls-1" x1="113" y1="211.33" x2="111" y2="208.96"/><line class="cls-1" x1="111" y1="208.96" x2="108.9" y2="206.9"/><line class="cls-1" x1="108.9" y1="206.9" x2="107.06" y2="204.58"/><line class="cls-1" x1="107.06" y1="204.58" x2="105.33" y2="202.15"/><line class="cls-1" x1="105.33" y1="202.15" x2="104.15" y2="199.13"/><line class="cls-1" x1="104.15" y1="199.13" x2="103.34" y2="195.83"/><line class="cls-1" x1="103.34" y1="195.83" x2="103.17" y2="192"/><line class="cls-1" x1="103.17" y1="192" x2="103.71" y2="187.68"/><line class="cls-1" x1="103.71" y1="187.68" x2="105.23" y2="182.66"/><line class="cls-1" x1="105.23" y1="182.66" x2="106.52" y2="178.28"/><line class="cls-1" x1="106.52" y1="178.28" x2="108.47" y2="173.8"/><line class="cls-1" x1="108.47" y1="173.8" x2="109.76" y2="170.18"/><line class="cls-1" x1="109.76" y1="170.18" x2="110.73" y2="167.16"/><line class="cls-1" x1="110.73" y1="167.16" x2="111.17" y2="164.73"/><line class="cls-1" x1="111.17" y1="164.73" x2="111.49" y2="162.57"/><line class="cls-1" x1="111.49" y1="162.57" x2="111.44" y2="160.68"/><line class="cls-1" x1="111.44" y1="160.68" x2="111.22" y2="159.01"/><line class="cls-1" x1="111.22" y1="159.01" x2="110.79" y2="157.55"/><line class="cls-1" x1="110.79" y1="157.55" x2="109.92" y2="156.25"/><line class="cls-1" x1="109.92" y1="156.25" x2="109.28" y2="154.85"/><line class="cls-1" x1="109.28" y1="154.85" x2="108.63" y2="153.5"/><line class="cls-1" x1="108.63" y1="153.5" x2="107.98" y2="152.09"/><line class="cls-1" x1="107.98" y1="152.09" x2="107.39" y2="150.69"/><line class="cls-1" x1="107.39" y1="150.69" x2="106.79" y2="149.23"/><line class="cls-1" x1="106.79" y1="149.23" x2="106.36" y2="147.77"/><line class="cls-1" x1="106.36" y1="147.77" x2="105.87" y2="146.32"/><line class="cls-1" x1="105.87" y1="146.32" x2="105.6" y2="144.8"/><line class="cls-1" x1="105.6" y1="144.8" x2="105.5" y2="143.24"/><line class="cls-1" x1="105.5" y1="143.24" x2="105.6" y2="141.67"/><line class="cls-1" x1="105.6" y1="141.67" x2="105.82" y2="140.11"/><line class="cls-1" x1="105.82" y1="140.11" x2="106.41" y2="138.59"/><line class="cls-1" x1="106.41" y1="138.59" x2="106.79" y2="137.14"/><line class="cls-1" x1="106.79" y1="137.14" x2="107.12" y2="135.68"/><line class="cls-1" x1="107.12" y1="135.68" x2="107.22" y2="134.22"/><line class="cls-1" x1="107.22" y1="134.22" x2="107.66" y2="132.76"/><line class="cls-1" x1="107.66" y1="132.76" x2="108.25" y2="131.36"/><line class="cls-1" x1="108.25" y1="131.36" x2="108.95" y2="130.06"/><line class="cls-1" x1="108.95" y1="130.06" x2="109.76" y2="128.77"/><line class="cls-1" x1="109.76" y1="128.77" x2="110.73" y2="127.52"/><line class="cls-1" x1="110.73" y1="127.52" x2="111.65" y2="126.34"/><line class="cls-1" x1="111.65" y1="126.34" x2="112.57" y2="125.2"/><line class="cls-1" x1="112.57" y1="125.2" x2="113.65" y2="124.18"/><line class="cls-1" x1="113.65" y1="124.18" x2="114.78" y2="123.2"/><line class="cls-1" x1="114.78" y1="123.2" x2="116.08" y2="122.39"/><line class="cls-1" x1="116.08" y1="122.39" x2="117.32" y2="121.58"/><line class="cls-1" x1="117.32" y1="121.58" x2="118.62" y2="120.88"/><line class="cls-1" x1="118.62" y1="120.88" x2="119.81" y2="120.13"/><line class="cls-1" x1="119.81" y1="120.13" x2="120.94" y2="119.48"/><line class="cls-1" x1="120.94" y1="119.48" x2="122.02" y2="118.78"/><line class="cls-1" x1="122.02" y1="118.78" x2="122.99" y2="118.07"/><line class="cls-1" x1="122.99" y1="118.07" x2="124.07" y2="117.48"/><line class="cls-1" x1="124.07" y1="117.48" x2="124.77" y2="116.62"/><line class="cls-1" x1="124.77" y1="116.62" x2="125.26" y2="115.59"/><line class="cls-1" x1="125.26" y1="115.59" x2="125.58" y2="114.29"/><line class="cls-1" x1="125.58" y1="114.29" x2="125.64" y2="112.73"/><line class="cls-1" x1="125.64" y1="112.73" x2="127.1" y2="112.51"/><line class="cls-1" x1="127.1" y1="112.51" x2="125.21" y2="108.52"/><line class="cls-1" x1="125.21" y1="108.52" x2="121.37" y2="101.5"/><line class="cls-1" x1="121.37" y1="101.5" x2="114.19" y2="88.91"/><line class="cls-1" x1="114.19" y1="88.91" x2="111.65" y2="81.46"/><line class="cls-1" x1="111.65" y1="81.46" x2="110.9" y2="75.74"/><line class="cls-1" x1="110.9" y1="75.74" x2="111.6" y2="71.96"/><line class="cls-1" x1="111.6" y1="71.96" x2="113.65" y2="70.23"/><line class="cls-1" x1="113.65" y1="70.23" x2="117.21" y2="71.53"/><line class="cls-1" x1="117.21" y1="71.53" x2="120.29" y2="72.17"/><line class="cls-1" x1="120.29" y1="72.17" x2="123.86" y2="74.28"/><line class="cls-1" x1="123.86" y1="74.28" x2="126.72" y2="75.31"/><line class="cls-1" x1="126.72" y1="75.31" x2="129.31" y2="75.79"/><line class="cls-1" x1="129.31" y1="75.79" x2="131.52" y2="75.31"/><line class="cls-1" x1="131.52" y1="75.31" x2="133.9" y2="75.74"/><line class="cls-1" x1="133.9" y1="75.74" x2="136.38" y2="76.66"/><line class="cls-1" x1="136.38" y1="76.66" x2="138.65" y2="77.25"/><line class="cls-1" x1="138.65" y1="77.25" x2="140.87" y2="77.68"/><line class="cls-1" x1="140.87" y1="77.68" x2="143.03" y2="77.9"/><line class="cls-1" x1="143.03" y1="77.9" x2="145.13" y2="78.33"/><line class="cls-1" x1="145.13" y1="78.33" x2="147.18" y2="78.87"/><line class="cls-1" x1="147.18" y1="78.87" x2="149.18" y2="79.52"/><line class="cls-1" x1="149.18" y1="176.39" x2="149.4" y2="176.45"/><line class="cls-1" x1="150.64" y1="176.72" x2="150.86" y2="176.77"/><line class="cls-1" x1="152.15" y1="176.93" x2="152.37" y2="176.99"/><line class="cls-1" x1="153.61" y1="177.2" x2="153.83" y2="177.1"/><line class="cls-1" x1="155.01" y1="177.04" x2="155.23" y2="177.2"/><line class="cls-1" x1="156.2" y1="178.07" x2="156.36" y2="178.23"/><line class="cls-1" x1="157.12" y1="179.26" x2="157.28" y2="179.47"/><line class="cls-1" x1="158.04" y1="180.5" x2="158.2" y2="180.71"/><line class="cls-1" x1="158.9" y1="181.79" x2="159.01" y2="182.01"/><line class="cls-1" x1="159.66" y1="183.09" x2="159.82" y2="183.31"/><line class="cls-1" x1="160.47" y1="184.44" x2="160.58" y2="184.66"/><line class="cls-1" x1="161.22" y1="185.74" x2="161.33" y2="185.9"/><line class="cls-1" x1="161.33" y1="185.9" x2="161.39" y2="185.95"/><line class="cls-1" x1="162.14" y1="187.03" x2="162.25" y2="187.25"/><line class="cls-1" x1="163.01" y1="188.27" x2="163.17" y2="188.49"/><line class="cls-1" x1="163.92" y1="189.57" x2="164.03" y2="189.79"/><line class="cls-1" x1="164.73" y1="190.81" x2="164.9" y2="191.03"/><line class="cls-1" x1="165.6" y1="192.11" x2="165.76" y2="192.32"/><line class="cls-1" x1="166.46" y1="193.4" x2="166.62" y2="193.62"/><line class="cls-1" x1="167.33" y1="194.7" x2="167.49" y2="194.92"/><line class="cls-1" x1="168.19" y1="196" x2="168.35" y2="196.21"/><line class="cls-1" x1="169.22" y1="197.18" x2="169.38" y2="197.35"/><line class="cls-1" x1="170.24" y1="198.32" x2="170.4" y2="198.48"/><line class="cls-1" x1="171.32" y1="199.45" x2="171.48" y2="199.67"/><line class="cls-1" x1="172.4" y1="200.64" x2="172.62" y2="200.8"/><line class="cls-1" x1="173.64" y1="201.61" x2="173.81" y2="201.77"/><line class="cls-1" x1="174.83" y1="202.58" x2="174.99" y2="202.75"/><line class="cls-1" x1="176.02" y1="203.56" x2="176.07" y2="203.61"/><line class="cls-1" x1="176.07" y1="203.61" x2="176.24" y2="203.72"/><line class="cls-1" x1="177.32" y1="204.37" x2="177.53" y2="204.47"/><line class="cls-1" x1="178.61" y1="205.18" x2="178.83" y2="205.28"/><line class="cls-1" x1="179.91" y1="205.88" x2="180.12" y2="205.93"/><line class="cls-1" x1="181.37" y1="206.15" x2="181.58" y2="206.2"/><line class="cls-1" x1="182.82" y1="206.42" x2="183.04" y2="206.47"/><line class="cls-1" x1="184.12" y1="205.82" x2="184.34" y2="205.72"/><line class="cls-1" x1="185.42" y1="205.07" x2="185.63" y2="204.96"/><line class="cls-1" x1="186.71" y1="204.26" x2="186.93" y2="204.1"/><line class="cls-1" x1="188.01" y1="203.29" x2="188.17" y2="203.12"/><line class="cls-1" x1="189.14" y1="202.21" x2="189.3" y2="202.04"/><line class="cls-1" x1="190.11" y1="201.02" x2="190.22" y2="200.8"/><line class="cls-1" x1="190.98" y1="199.72" x2="191.14" y2="199.51"/><line class="cls-1" x1="191.63" y1="198.37" x2="191.73" y2="198.16"/><line class="cls-1" x1="192.22" y1="196.97" x2="192.33" y2="196.75"/><line class="cls-1" x1="192.71" y1="195.51" x2="192.76" y2="195.29"/><line class="cls-1" x1="193.08" y1="194.05" x2="193.14" y2="193.84"/><line class="cls-1" x1="193.25" y1="192.54" x2="193.3" y2="192.32"/><line class="cls-1" x1="193.3" y1="190.97" x2="193.3" y2="190.7"/><line class="cls-1" x1="193.3" y1="189.41" x2="193.3" y2="189.14"/><line class="cls-1" x1="193.14" y1="187.9" x2="193.08" y2="187.68"/><line class="cls-1" x1="192.92" y1="186.38" x2="192.87" y2="186.17"/><line class="cls-1" x1="192.6" y1="184.93" x2="192.55" y2="184.71"/><line class="cls-1" x1="192.17" y1="183.52" x2="192.11" y2="183.31"/><line class="cls-1" x1="191.73" y1="182.12" x2="191.63" y2="181.9"/><line class="cls-1" x1="191.25" y1="180.71" x2="191.25" y2="180.66"/><line class="cls-1" x1="191.25" y1="180.66" x2="191.2" y2="180.5"/><line class="cls-1" x1="190.82" y1="179.26" x2="190.76" y2="179.04"/><line class="cls-1" x1="190.44" y1="177.8" x2="190.33" y2="177.58"/><line class="cls-1" x1="189.95" y1="176.34" x2="189.9" y2="176.12"/><line class="cls-1" x1="189.41" y1="174.94" x2="189.36" y2="174.72"/><line class="cls-1" x1="188.87" y1="173.53" x2="188.82" y2="173.32"/><line class="cls-1" x1="188.39" y1="172.13" x2="188.33" y2="171.91"/><line class="cls-1" x1="187.95" y1="170.72" x2="187.85" y2="170.51"/><line class="cls-1" x1="187.47" y1="169.27" x2="187.47" y2="169.21"/><line class="cls-1" x1="187.47" y1="169.21" x2="187.41" y2="169.05"/><line class="cls-1" x1="187.14" y1="167.81" x2="187.09" y2="167.59"/><line class="cls-1" x1="186.82" y1="166.35" x2="186.82" y2="166.08"/><line class="cls-1" x1="186.71" y1="164.78" x2="186.71" y2="164.51"/><line class="cls-1" x1="186.66" y1="163.22" x2="186.66" y2="162.95"/><line class="cls-1" x1="186.77" y1="161.65" x2="186.82" y2="161.44"/><line class="cls-1" x1="187.04" y1="160.19" x2="187.09" y2="159.98"/><line class="cls-1" x1="187.47" y1="158.74" x2="187.52" y2="158.52"/><line class="cls-1" x1="188.06" y1="157.39" x2="188.22" y2="157.17"/><line class="cls-1" x1="188.93" y1="156.09" x2="189.03" y2="155.87"/><line class="cls-1" x1="189.63" y1="154.74" x2="189.74" y2="154.52"/><line class="cls-1" x1="190.38" y1="153.44" x2="190.49" y2="153.23"/><line class="cls-1" x1="191.09" y1="152.09" x2="191.2" y2="151.88"/><line class="cls-1" x1="191.68" y1="150.69" x2="191.79" y2="150.47"/><line class="cls-1" x1="192.33" y1="149.34" x2="192.38" y2="149.12"/><line class="cls-1" x1="192.81" y1="147.94" x2="192.92" y2="147.72"/><line class="cls-1" x1="193.41" y1="146.53" x2="193.41" y2="146.48"/><line class="cls-1" x1="193.41" y1="146.48" x2="193.46" y2="146.32"/><line class="cls-1" x1="193.73" y1="145.07" x2="193.73" y2="144.97"/><line class="cls-1" x1="193.73" y1="144.97" x2="193.73" y2="144.8"/><line class="cls-1" x1="193.84" y1="143.51" x2="193.84" y2="143.35"/><line class="cls-1" x1="193.84" y1="143.35" x2="193.84" y2="143.24"/><line class="cls-1" x1="193.73" y1="141.94" x2="193.73" y2="141.78"/><line class="cls-1" x1="193.73" y1="141.78" x2="193.73" y2="141.67"/><line class="cls-1" x1="193.57" y1="140.38" x2="193.57" y2="140.16"/><line class="cls-1" x1="193.57" y1="140.16" x2="193.57" y2="140.11"/><line class="cls-1" x1="193.3" y1="138.86" x2="193.25" y2="138.65"/><line class="cls-1" x1="192.98" y1="137.41" x2="192.92" y2="137.19"/><line class="cls-1" x1="192.71" y1="135.95" x2="192.65" y2="135.73"/><line class="cls-1" x1="192.55" y1="134.44" x2="192.49" y2="134.22"/><line class="cls-1" x1="192.11" y1="132.98" x2="192.06" y2="132.76"/><line class="cls-1" x1="191.57" y1="131.57" x2="191.46" y2="131.36"/><line class="cls-1" x1="190.87" y1="130.22" x2="190.76" y2="130.01"/><line class="cls-1" x1="190.11" y1="128.93" x2="189.95" y2="128.71"/><line class="cls-1" x1="189.2" y1="127.63" x2="189.03" y2="127.42"/><line class="cls-1" x1="188.22" y1="126.39" x2="188.06" y2="126.23"/><line class="cls-1" x1="187.14" y1="125.31" x2="186.98" y2="125.15"/><line class="cls-1" x1="186.01" y1="124.28" x2="185.85" y2="124.12"/><line class="cls-1" x1="184.82" y1="123.31" x2="184.61" y2="123.15"/><line class="cls-1" x1="183.53" y1="122.5" x2="183.31" y2="122.34"/><line class="cls-1" x1="182.18" y1="121.69" x2="181.96" y2="121.58"/><line class="cls-1" x1="180.83" y1="121.1" x2="180.61" y2="121.04"/><line class="cls-1" x1="179.42" y1="120.56" x2="179.21" y2="120.45"/><line class="cls-1" x1="178.02" y1="119.91" x2="177.8" y2="119.8"/><line class="cls-1" x1="176.67" y1="119.21" x2="176.45" y2="119.1"/><line class="cls-1" x1="175.32" y1="118.51" x2="175.1" y2="118.4"/><line class="cls-1" x1="173.97" y1="117.8" x2="173.91" y2="117.8"/><line class="cls-1" x1="173.91" y1="117.8" x2="173.75" y2="117.7"/><line class="cls-1" x1="172.67" y1="116.94" x2="172.51" y2="116.78"/><line class="cls-1" x1="171.59" y1="115.86" x2="171.43" y2="115.64"/><line class="cls-1" x1="170.78" y1="114.51" x2="170.67" y2="114.29"/><line class="cls-1" x1="170.3" y1="113.11" x2="170.24" y2="112.89"/><line class="cls-1" x1="170.13" y1="111.59" x2="170.13" y2="111.32"/><line class="cls-1" x1="169.97" y1="110.03" x2="169.86" y2="109.81"/><line class="cls-1" x1="169.7" y1="108.68" x2="169.81" y2="108.46"/><line class="cls-1" x1="170.24" y1="107.27" x2="170.35" y2="107.06"/><line class="cls-1" x1="170.78" y1="105.87" x2="170.89" y2="105.65"/><line class="cls-1" x1="171.32" y1="104.47" x2="171.43" y2="104.25"/><line class="cls-1" x1="171.97" y1="103.12" x2="172.08" y2="102.9"/><line class="cls-1" x1="172.62" y1="101.77" x2="172.73" y2="101.55"/><line class="cls-1" x1="173.27" y1="100.42" x2="173.37" y2="100.2"/><line class="cls-1" x1="173.91" y1="99.07" x2="174.02" y2="98.85"/><line class="cls-1" x1="174.56" y1="97.72" x2="174.67" y2="97.5"/><line class="cls-1" x1="175.21" y1="96.37" x2="175.32" y2="96.15"/><line class="cls-1" x1="175.86" y1="95.02" x2="175.97" y2="94.8"/><line class="cls-1" x1="176.51" y1="93.67" x2="176.61" y2="93.45"/><line class="cls-1" x1="177.15" y1="92.32" x2="177.21" y2="92.1"/><line class="cls-1" x1="177.48" y1="90.86" x2="177.59" y2="90.64"/><line class="cls-1" x1="177.86" y1="89.4" x2="177.91" y2="89.18"/><line class="cls-1" x1="178.23" y1="87.94" x2="178.29" y2="87.73"/><line class="cls-1" x1="178.61" y1="86.48" x2="178.67" y2="86.27"/><line class="cls-1" x1="178.77" y1="85.03" x2="178.77" y2="84.76"/><line class="cls-1" x1="178.72" y1="83.46" x2="178.72" y2="83.19"/><line class="cls-1" x1="178.67" y1="81.89" x2="178.67" y2="81.62"/><line class="cls-1" x1="177.37" y1="81.46" x2="177.1" y2="81.46"/><line class="cls-1" x1="175.91" y1="81.03" x2="175.7" y2="80.92"/><line class="cls-1" x1="174.62" y1="80.22" x2="174.56" y2="80.17"/><line class="cls-1" x1="174.56" y1="80.17" x2="174.4" y2="80.17"/><line class="cls-1" x1="173.1" y1="80.22" x2="172.83" y2="80.22"/><line class="cls-1" x1="171.54" y1="80.17" x2="171.27" y2="80.17"/><line class="cls-1" x1="169.97" y1="80.06" x2="169.97" y2="80.06"/><line class="cls-1" x1="169.97" y1="80.06" x2="169.7" y2="80.06"/><line class="cls-1" x1="168.41" y1="80" x2="168.14" y2="80"/><line class="cls-1" x1="166.79" y1="80" x2="166.57" y2="80.06"/><line class="cls-1" x1="165.27" y1="80.11" x2="165" y2="80.11"/><line class="cls-1" x1="163.71" y1="80.27" x2="163.49" y2="80.33"/><line class="cls-1" x1="162.25" y1="80.65" x2="162.03" y2="80.71"/><line class="cls-1" x1="160.79" y1="81.08" x2="160.58" y2="81.14"/><line class="cls-1" x1="159.33" y1="81.41" x2="159.12" y2="81.46"/><line class="cls-1" x1="157.88" y1="81.79" x2="157.66" y2="81.84"/><line class="cls-1" x1="156.47" y1="82.27" x2="156.26" y2="82.33"/><line class="cls-1" x1="155.12" y1="82.87" x2="154.91" y2="82.97"/><line class="cls-1" x1="153.72" y1="82.49" x2="153.5" y2="82.38"/><line class="cls-1" x1="152.42" y1="81.73" x2="152.21" y2="81.57"/><line class="cls-1" x1="151.13" y1="80.81" x2="151.13" y2="80.81"/><line class="cls-1" x1="151.13" y1="80.81" x2="150.91" y2="80.65"/><line class="cls-1" x1="149.83" y1="79.95" x2="149.61" y2="79.79"/><line class="cls-1" x1="148.43" y1="176.56" x2="148.21" y2="176.61"/><line class="cls-1" x1="146.91" y1="176.83" x2="146.64" y2="176.83"/><line class="cls-1" x1="145.4" y1="177.04" x2="145.19" y2="177.1"/><line class="cls-1" x1="144.21" y1="176.23" x2="144.05" y2="176.02"/><line class="cls-1" x1="143.13" y1="176.45" x2="142.97" y2="176.61"/><line class="cls-1" x1="142.05" y1="177.58" x2="141.95" y2="177.8"/><line class="cls-1" x1="141.3" y1="178.88" x2="141.19" y2="179.09"/><line class="cls-1" x1="140.54" y1="180.17" x2="140.38" y2="180.39"/><line class="cls-1" x1="139.73" y1="181.52" x2="139.62" y2="181.74"/><line class="cls-1" x1="139.08" y1="182.87" x2="138.98" y2="183.09"/><line class="cls-1" x1="138.38" y1="184.22" x2="138.27" y2="184.44"/><line class="cls-1" x1="137.73" y1="185.57" x2="137.63" y2="185.79"/><line class="cls-1" x1="137.09" y1="186.92" x2="136.98" y2="187.14"/><line class="cls-1" x1="136.38" y1="188.27" x2="136.22" y2="188.49"/><line class="cls-1" x1="135.52" y1="189.57" x2="135.36" y2="189.79"/><line class="cls-1" x1="134.66" y1="190.87" x2="134.55" y2="191.08"/><line class="cls-1" x1="133.85" y1="192.16" x2="133.68" y2="192.38"/><line class="cls-1" x1="132.98" y1="193.46" x2="132.82" y2="193.67"/><line class="cls-1" x1="132.12" y1="194.75" x2="132.01" y2="194.97"/><line class="cls-1" x1="131.25" y1="196.05" x2="131.15" y2="196.27"/><line class="cls-1" x1="130.44" y1="197.35" x2="130.28" y2="197.56"/><line class="cls-1" x1="129.58" y1="198.64" x2="129.42" y2="198.86"/><line class="cls-1" x1="128.66" y1="199.88" x2="128.5" y2="200.1"/><line class="cls-1" x1="127.58" y1="201.07" x2="127.42" y2="201.23"/><line class="cls-1" x1="126.56" y1="202.21" x2="126.39" y2="202.37"/><line class="cls-1" x1="125.48" y1="203.34" x2="125.31" y2="203.5"/><line class="cls-1" x1="124.34" y1="204.42" x2="124.18" y2="204.58"/><line class="cls-1" x1="123.15" y1="205.39" x2="122.94" y2="205.55"/><line class="cls-1" x1="121.91" y1="206.36" x2="121.75" y2="206.53"/><line class="cls-1" x1="120.72" y1="207.28" x2="120.51" y2="207.39"/><line class="cls-1" x1="119.43" y1="207.98" x2="119.21" y2="208.15"/><line class="cls-1" x1="118.08" y1="208.74" x2="117.86" y2="208.85"/><line class="cls-1" x1="116.73" y1="209.33" x2="116.46" y2="209.39"/><line class="cls-1" x1="115.16" y1="209.55" x2="114.89" y2="209.55"/><line class="cls-1" x1="113.65" y1="209.6" x2="113.49" y2="209.44"/><line class="cls-1" x1="112.46" y1="208.58" x2="112.25" y2="208.42"/><line class="cls-1" x1="111.22" y1="207.61" x2="111" y2="207.5"/><line class="cls-1" x1="109.92" y1="206.74" x2="109.71" y2="206.58"/><line class="cls-1" x1="108.68" y1="205.77" x2="108.52" y2="205.61"/><line class="cls-1" x1="107.55" y1="204.69" x2="107.33" y2="204.53"/><line class="cls-1" x1="106.47" y1="203.56" x2="106.31" y2="203.34"/><line class="cls-1" x1="105.5" y1="202.37" x2="105.33" y2="202.21"/><line class="cls-1" x1="104.69" y1="201.13" x2="104.52" y2="200.91"/><line class="cls-1" x1="103.88" y1="199.83" x2="103.77" y2="199.67"/><line class="cls-1" x1="103.77" y1="199.67" x2="103.71" y2="199.61"/><line class="cls-1" x1="103.07" y1="198.53" x2="102.96" y2="198.32"/><line class="cls-1" x1="102.31" y1="197.24" x2="102.26" y2="197.18"/><line class="cls-1" x1="102.26" y1="197.18" x2="102.2" y2="197.02"/><line class="cls-1" x1="101.93" y1="195.78" x2="101.88" y2="195.56"/><line class="cls-1" x1="101.66" y1="194.32" x2="101.61" y2="194.11"/><line class="cls-1" x1="101.5" y1="192.81" x2="101.5" y2="192.54"/><line class="cls-1" x1="101.5" y1="191.19" x2="101.45" y2="190.97"/><line class="cls-1" x1="101.5" y1="189.68" x2="101.55" y2="189.46"/><line class="cls-1" x1="101.77" y1="188.22" x2="101.82" y2="188"/><line class="cls-1" x1="101.99" y1="186.71" x2="102.04" y2="186.49"/><line class="cls-1" x1="102.31" y1="185.25" x2="102.36" y2="185.03"/><line class="cls-1" x1="102.69" y1="183.79" x2="102.74" y2="183.58"/><line class="cls-1" x1="103.07" y1="182.33" x2="103.12" y2="182.12"/><line class="cls-1" x1="103.5" y1="180.93" x2="103.61" y2="180.71"/><line class="cls-1" x1="104.09" y1="179.58" x2="104.2" y2="179.36"/><line class="cls-1" x1="104.69" y1="178.23" x2="104.79" y2="178.01"/><line class="cls-1" x1="105.28" y1="176.88" x2="105.39" y2="176.66"/><line class="cls-1" x1="105.87" y1="175.53" x2="105.98" y2="175.31"/><line class="cls-1" x1="106.47" y1="174.18" x2="106.58" y2="173.96"/><line class="cls-1" x1="107.06" y1="172.83" x2="107.17" y2="172.61"/><line class="cls-1" x1="107.66" y1="171.48" x2="107.76" y2="171.26"/><line class="cls-1" x1="108.3" y1="170.13" x2="108.36" y2="169.91"/><line class="cls-1" x1="108.9" y1="168.78" x2="109.01" y2="168.56"/><line class="cls-1" x1="109.55" y1="167.43" x2="109.6" y2="167.21"/><line class="cls-1" x1="110.14" y1="166.08" x2="110.25" y2="165.86"/><line class="cls-1" x1="110.79" y1="164.73" x2="110.84" y2="164.51"/><line class="cls-1" x1="111.33" y1="163.38" x2="111.38" y2="163.16"/><line class="cls-1" x1="111.81" y1="161.98" x2="111.87" y2="161.76"/><line class="cls-1" x1="112.14" y1="160.52" x2="112.19" y2="160.3"/><line class="cls-1" x1="112.35" y1="159.01" x2="112.35" y2="158.74"/><line class="cls-1" x1="112.35" y1="157.44" x2="112.35" y2="157.17"/><line class="cls-1" x1="111.92" y1="155.98" x2="111.81" y2="155.77"/><line class="cls-1" x1="111.33" y1="154.58" x2="111.27" y2="154.36"/><line class="cls-1" x1="110.73" y1="153.23" x2="110.63" y2="153.01"/><line class="cls-1" x1="110.09" y1="151.88" x2="109.98" y2="151.66"/><line class="cls-1" x1="109.49" y1="150.47" x2="109.38" y2="150.26"/><line class="cls-1" x1="108.9" y1="149.12" x2="108.84" y2="148.91"/><line class="cls-1" x1="108.41" y1="147.72" x2="108.3" y2="147.5"/><line class="cls-1" x1="107.98" y1="146.26" x2="107.93" y2="146.05"/><line class="cls-1" x1="107.66" y1="144.8" x2="107.6" y2="144.59"/><line class="cls-1" x1="107.39" y1="143.35" x2="107.33" y2="143.13"/><line class="cls-1" x1="107.22" y1="141.83" x2="107.22" y2="141.56"/><line class="cls-1" x1="107.28" y1="140.27" x2="107.28" y2="140"/><line class="cls-1" x1="107.66" y1="138.81" x2="107.76" y2="138.59"/><line class="cls-1" x1="108.03" y1="137.35" x2="108.09" y2="137.14"/><line class="cls-1" x1="108.25" y1="135.84" x2="108.25" y2="135.73"/><line class="cls-1" x1="108.25" y1="135.73" x2="108.25" y2="135.57"/><line class="cls-1" x1="108.3" y1="134.27" x2="108.3" y2="134.27"/><line class="cls-1" x1="108.3" y1="134.27" x2="108.36" y2="134.06"/><line class="cls-1" x1="108.57" y1="132.82" x2="108.63" y2="132.6"/><line class="cls-1" x1="109.01" y1="131.36" x2="109.06" y2="131.14"/><line class="cls-1" x1="109.49" y1="129.95" x2="109.6" y2="129.74"/><line class="cls-1" x1="110.14" y1="128.6" x2="110.25" y2="128.39"/><line class="cls-1" x1="110.84" y1="127.25" x2="110.95" y2="127.04"/><line class="cls-1" x1="111.6" y1="125.96" x2="111.71" y2="125.74"/><line class="cls-1" x1="112.46" y1="124.72" x2="112.62" y2="124.5"/><line class="cls-1" x1="113.49" y1="123.53" x2="113.65" y2="123.37"/><line class="cls-1" x1="114.62" y1="122.5" x2="114.84" y2="122.34"/><line class="cls-1" x1="115.86" y1="121.58" x2="116.08" y2="121.42"/><line class="cls-1" x1="117.16" y1="120.72" x2="117.38" y2="120.61"/><line class="cls-1" x1="118.46" y1="119.91" x2="118.67" y2="119.8"/><line class="cls-1" x1="119.81" y1="119.21" x2="120.02" y2="119.1"/><line class="cls-1" x1="121.16" y1="118.51" x2="121.37" y2="118.4"/><line class="cls-1" x1="122.51" y1="117.8" x2="122.56" y2="117.75"/><line class="cls-1" x1="122.56" y1="117.75" x2="122.72" y2="117.7"/><line class="cls-1" x1="123.86" y1="117.1" x2="124.07" y2="116.94"/><line class="cls-1" x1="124.94" y1="115.97" x2="125.1" y2="115.75"/><line class="cls-1" x1="125.58" y1="114.62" x2="125.69" y2="114.4"/><line class="cls-1" x1="126.07" y1="113.16" x2="126.07" y2="113.11"/><line class="cls-1" x1="126.07" y1="113.11" x2="126.29" y2="113.05"/><line class="cls-1" x1="127.31" y1="112.62" x2="127.26" y2="112.4"/><line class="cls-1" x1="126.88" y1="111.22" x2="126.83" y2="111"/><line class="cls-1" x1="126.39" y1="109.81" x2="126.34" y2="109.6"/><line class="cls-1" x1="125.85" y1="108.46" x2="125.75" y2="108.25"/><line class="cls-1" x1="125.26" y1="107.06" x2="125.15" y2="106.84"/><line class="cls-1" x1="124.67" y1="105.71" x2="124.61" y2="105.6"/><line class="cls-1" x1="124.61" y1="105.6" x2="124.56" y2="105.49"/><line class="cls-1" x1="124.02" y1="104.36" x2="123.91" y2="104.14"/><line class="cls-1" x1="123.37" y1="102.95" x2="123.26" y2="102.74"/><line class="cls-1" x1="122.72" y1="101.6" x2="122.67" y2="101.39"/><line class="cls-1" x1="122.13" y1="100.25" x2="122.02" y2="100.04"/><line class="cls-1" x1="121.48" y1="98.9" x2="121.37" y2="98.69"/><line class="cls-1" x1="120.89" y1="97.5" x2="120.78" y2="97.28"/><line class="cls-1" x1="120.29" y1="96.15" x2="120.18" y2="95.93"/><line class="cls-1" x1="119.7" y1="94.8" x2="119.59" y2="94.58"/><line class="cls-1" x1="119.1" y1="93.45" x2="119" y2="93.23"/><line class="cls-1" x1="118.46" y1="92.05" x2="118.4" y2="91.83"/><line class="cls-1" x1="117.86" y1="90.7" x2="117.86" y2="90.64"/><line class="cls-1" x1="117.86" y1="90.64" x2="117.81" y2="90.48"/><line class="cls-1" x1="117.27" y1="89.35" x2="117.16" y2="89.13"/><line class="cls-1" x1="116.62" y1="88" x2="116.57" y2="87.78"/><line class="cls-1" x1="116.03" y1="86.65" x2="115.92" y2="86.43"/><line class="cls-1" x1="115.38" y1="85.3" x2="115.32" y2="85.08"/><line class="cls-1" x1="114.78" y1="83.95" x2="114.68" y2="83.73"/><line class="cls-1" x1="114.14" y1="82.6" x2="114.08" y2="82.38"/><line class="cls-1" x1="113.54" y1="81.25" x2="113.43" y2="81.03"/><line class="cls-1" x1="112.89" y1="79.9" x2="112.84" y2="79.68"/><line class="cls-1" x1="112.3" y1="78.55" x2="112.19" y2="78.33"/><line class="cls-1" x1="111.65" y1="77.2" x2="111.6" y2="76.98"/><line class="cls-1" x1="111.17" y1="75.79" x2="111.11" y2="75.58"/><line class="cls-1" x1="110.79" y1="74.33" x2="110.73" y2="74.12"/><line class="cls-1" x1="110.41" y1="72.93" x2="110.36" y2="72.71"/><line class="cls-1" x1="110.03" y1="71.47" x2="109.92" y2="71.26"/><line class="cls-1" x1="109.6" y1="70.01" x2="109.55" y2="69.8"/><line class="cls-1" x1="109.22" y1="68.56" x2="109.17" y2="68.34"/><line class="cls-1" x1="108.9" y1="67.1" x2="108.9" y2="66.83"/><line class="cls-1" x1="108.84" y1="65.53" x2="108.84" y2="65.26"/><line class="cls-1" x1="108.84" y1="63.91" x2="108.84" y2="63.64"/><line class="cls-1" x1="108.79" y1="62.35" x2="108.79" y2="62.08"/><line class="cls-1" x1="109.06" y1="60.78" x2="109.22" y2="60.62"/><line class="cls-1" x1="110.09" y1="59.59" x2="110.25" y2="59.43"/><line class="cls-1" x1="111.17" y1="58.51" x2="111.38" y2="58.4"/><line class="cls-1" x1="112.52" y1="57.86" x2="112.73" y2="57.76"/><line class="cls-1" x1="113.87" y1="57.43" x2="114.08" y2="57.54"/><line class="cls-1" x1="115.22" y1="58.19" x2="115.43" y2="58.3"/><line class="cls-1" x1="116.51" y1="58.94" x2="116.73" y2="59.05"/><line class="cls-1" x1="117.86" y1="59.7" x2="117.97" y2="59.75"/><line class="cls-1" x1="117.97" y1="59.75" x2="118.08" y2="59.81"/><line class="cls-1" x1="119.27" y1="60.29" x2="119.48" y2="60.4"/><line class="cls-1" x1="120.67" y1="60.89" x2="120.89" y2="61"/><line class="cls-1" x1="122.07" y1="61.54" x2="122.29" y2="61.64"/><line class="cls-1" x1="123.42" y1="62.18" x2="123.64" y2="62.29"/><line class="cls-1" x1="124.77" y1="62.83" x2="124.99" y2="62.94"/><line class="cls-1" x1="126.12" y1="63.53" x2="126.34" y2="63.7"/><line class="cls-1" x1="127.47" y1="64.34" x2="127.69" y2="64.45"/><line class="cls-1" x1="128.82" y1="65.1" x2="129.04" y2="65.21"/><line class="cls-1" x1="130.17" y1="65.8" x2="130.39" y2="65.91"/><line class="cls-1" x1="131.47" y1="66.5" x2="131.63" y2="66.61"/><line class="cls-1" x1="131.63" y1="66.61" x2="131.69" y2="66.61"/><line class="cls-1" x1="132.82" y1="67.1" x2="133.04" y2="67.21"/><line class="cls-1" x1="134.22" y1="67.69" x2="134.44" y2="67.8"/><line class="cls-1" x1="135.52" y1="68.45" x2="135.74" y2="68.56"/><line class="cls-1" x1="136.82" y1="69.2" x2="137.03" y2="69.37"/><line class="cls-1" x1="138.06" y1="70.12" x2="138.27" y2="70.28"/><line class="cls-1" x1="139.3" y1="71.09" x2="139.52" y2="71.26"/><line class="cls-1" x1="140.49" y1="72.12" x2="140.65" y2="72.28"/><line class="cls-1" x1="141.57" y1="73.25" x2="141.73" y2="73.42"/><line class="cls-1" x1="142.65" y1="74.33" x2="142.65" y2="74.33"/><line class="cls-1" x1="142.65" y1="74.33" x2="142.86" y2="74.5"/><line class="cls-1" x1="143.89" y1="75.31" x2="144.05" y2="75.47"/><line class="cls-1" x1="145.08" y1="76.22" x2="145.24" y2="76.39"/><line class="cls-1" x1="146.27" y1="77.14" x2="146.48" y2="77.25"/><line class="cls-1" x1="147.51" y1="78.06" x2="147.67" y2="78.22"/><line class="cls-1" x1="148.7" y1="79.09" x2="148.86" y2="79.25"/></g></svg>