<svg id="Romeo_Babe_Soft_W" xmlns="http://www.w3.org/2000/svg" xmlns:xlink="http://www.w3.org/1999/xlink" viewBox="0 0 300 263"><defs><style>.cls-1,.cls-2,.cls-4,.cls-6{fill:none;}.cls-2{stroke:#000;}.cls-2,.cls-4,.cls-6{stroke-width:0.5px;}.cls-3{isolation:isolate;}.cls-4,.cls-6{stroke:#1a171b;}.cls-4{stroke-miterlimit:1;}.cls-5{clip-path:url(#clip-path);}.cls-6{stroke-miterlimit:3.86;}</style><clipPath id="clip-path"><rect class="cls-1" x="78.73" y="71.92" width="142.55" height="145.16"/></clipPath></defs><title>romeo-babe-soft-ceiling-wall-starck-flos-F6260007A-spech-tech-02-300x263-01</title><line class="cls-2" x1="219.32" y1="226.47" x2="117.88" y2="226.47"/><line class="cls-2" x1="219.32" y1="227.32" x2="219.32" y2="225.57"/><line class="cls-2" x1="117.88" y1="227.32" x2="117.88" y2="225.57"/><g class="cls-3"><path d="M140.22,240.43a3.57,3.57,0,0,1,.68,1.15,4.29,4.29,0,0,1-.05,3,3.67,3.67,0,0,1-.82,1.25,3.62,3.62,0,0,1-1.26.82,4.16,4.16,0,0,1-1.61.3,4.47,4.47,0,0,1-1.4-.22,4,4,0,0,1-1.11-.61l-1.07,1.09-.51-.5,1.05-1.09a3.78,3.78,0,0,1-.68-1.17,4.27,4.27,0,0,1-.24-1.44,4.2,4.2,0,0,1,.29-1.56,3.7,3.7,0,0,1,.83-1.25,3.85,3.85,0,0,1,1.25-.83,4.36,4.36,0,0,1,1.59-.29,4.47,4.47,0,0,1,1.4.21,4,4,0,0,1,1.15.62l1-1.09.52.5Zm-1.25.25a2.69,2.69,0,0,0-1.81-.62,2.78,2.78,0,0,0-1.17.23,2.57,2.57,0,0,0-.88.63,2.81,2.81,0,0,0-.56,1,3.41,3.41,0,0,0-.2,1.16,3,3,0,0,0,.54,1.83Zm-3.6,4.72a2.74,2.74,0,0,0,1.79.61,3,3,0,0,0,1.18-.23,2.87,2.87,0,0,0,.89-.63,3.12,3.12,0,0,0,.57-1A3.42,3.42,0,0,0,140,243a3.06,3.06,0,0,0-.55-1.82Z"/><path d="M151.93,246.78h-1.15v-9.89l-2,1.79-.72-.86,2.88-2.37h1Z"/><path d="M160.83,246.78h-1.15v-9.89l-2,1.79-.72-.86,2.88-2.37h1Z"/><path d="M168.6,235.26a3.17,3.17,0,0,1,2,.56,3.86,3.86,0,0,1,1.17,1.42,6.45,6.45,0,0,1,.56,1.9,14,14,0,0,1,0,4,6.45,6.45,0,0,1-.56,1.9,3.86,3.86,0,0,1-1.17,1.42,3.73,3.73,0,0,1-3.93,0,3.76,3.76,0,0,1-1.17-1.42,6.17,6.17,0,0,1-.56-1.9,13.08,13.08,0,0,1,0-4,6.17,6.17,0,0,1,.56-1.9,3.76,3.76,0,0,1,1.17-1.42A3.14,3.14,0,0,1,168.6,235.26Zm0,1.05a2.09,2.09,0,0,0-1.46.5,3.08,3.08,0,0,0-.81,1.23,6.09,6.09,0,0,0-.34,1.57c-.05.55-.07,1.06-.07,1.5s0,.95.07,1.51a6.18,6.18,0,0,0,.34,1.57,3.08,3.08,0,0,0,.81,1.23,2.44,2.44,0,0,0,2.93,0,3.3,3.3,0,0,0,.81-1.23,6.18,6.18,0,0,0,.34-1.57c.05-.56.07-1.06.07-1.51s0-1-.07-1.5a6.09,6.09,0,0,0-.34-1.57,3.3,3.3,0,0,0-.81-1.23A2.09,2.09,0,0,0,168.6,236.31Z"/><path d="M178.65,241c0-.27,0-.55,0-.83l-.06-.83h1.14v1.14h0a2.55,2.55,0,0,1,1.06-1,3.12,3.12,0,0,1,1.36-.33,3.72,3.72,0,0,1,.64.06,2.42,2.42,0,0,1,.67.23,2.19,2.19,0,0,1,.6.48,2.65,2.65,0,0,1,.47.78,2.45,2.45,0,0,1,1-1.14,2.81,2.81,0,0,1,1.44-.41,2.73,2.73,0,0,1,2.13.76,3.11,3.11,0,0,1,.69,2.17v4.75h-1.06v-4.37a3.11,3.11,0,0,0-.4-1.74,1.62,1.62,0,0,0-1.48-.61,1.92,1.92,0,0,0-1,.23,1.81,1.81,0,0,0-.64.62,2.42,2.42,0,0,0-.36.87,4.17,4.17,0,0,0-.12,1v4h-1v-4.37a3.2,3.2,0,0,0-.4-1.74,1.65,1.65,0,0,0-1.49-.61l-.44.06a1.62,1.62,0,0,0-.71.35,2.6,2.6,0,0,0-.67.87,3.63,3.63,0,0,0-.29,1.6v3.84h-1.06Z"/><path d="M192.28,241c0-.27,0-.55,0-.83l-.06-.83h1.14v1.14h0a2.52,2.52,0,0,1,1.07-1,3.05,3.05,0,0,1,1.35-.33,3.83,3.83,0,0,1,.65.06,2.25,2.25,0,0,1,.66.23,2.19,2.19,0,0,1,.6.48,2.45,2.45,0,0,1,.47.78,2.45,2.45,0,0,1,1-1.14,2.82,2.82,0,0,1,1.45-.41,2.7,2.7,0,0,1,2.12.76,3.11,3.11,0,0,1,.69,2.17v4.75h-1v-4.37a3.2,3.2,0,0,0-.4-1.74,1.65,1.65,0,0,0-1.49-.61,1.86,1.86,0,0,0-1,.23,1.76,1.76,0,0,0-.65.62,2.42,2.42,0,0,0-.36.87,4.17,4.17,0,0,0-.11,1v4h-1.06v-4.37a3.11,3.11,0,0,0-.4-1.74,1.64,1.64,0,0,0-1.49-.61l-.44.06a1.62,1.62,0,0,0-.71.35,2.46,2.46,0,0,0-.66.87,3.48,3.48,0,0,0-.3,1.6v3.84h-1.06Z"/></g><line class="cls-2" x1="71.47" y1="75.24" x2="71.54" y2="144.57"/><line class="cls-2" x1="74.43" y1="75.24" x2="68.32" y2="75.24"/><line class="cls-2" x1="74.51" y1="144.57" x2="68.39" y2="144.57"/><g class="cls-3"><path d="M56.35,131.31a3.82,3.82,0,0,1,1.16-.68,4.24,4.24,0,0,1,1.45-.24,4.17,4.17,0,0,1,1.56.31,3.85,3.85,0,0,1,1.25.83,3.76,3.76,0,0,1,.82,1.26,4.58,4.58,0,0,1,0,3,4,4,0,0,1-.61,1.11L63.11,138l-.5.5-1.08-1.06a3.57,3.57,0,0,1-1.18.68,4.24,4.24,0,0,1-3-.07,3.8,3.8,0,0,1-1.24-.83,3.62,3.62,0,0,1-.82-1.26,4.16,4.16,0,0,1-.29-1.59,4.24,4.24,0,0,1,.23-1.4,3.71,3.71,0,0,1,.62-1.14l-1.08-1.07.49-.5Zm.25,1.25a2.69,2.69,0,0,0-.64,1.8,2.79,2.79,0,0,0,.23,1.18,2.55,2.55,0,0,0,.62.88,3.07,3.07,0,0,0,.94.57,3.46,3.46,0,0,0,1.17.2,2.94,2.94,0,0,0,1.83-.53Zm4.69,3.62a2.6,2.6,0,0,0,.46-.79,3.13,3.13,0,0,0,.16-1,2.91,2.91,0,0,0-.22-1.17,2.76,2.76,0,0,0-.63-.89,2.91,2.91,0,0,0-.94-.58,3.42,3.42,0,0,0-1.17-.2,3,3,0,0,0-1.82.53Z"/><path d="M56.72,122.19a2.52,2.52,0,0,1-.38.68,2.73,2.73,0,0,1-.59.53,3,3,0,0,1-.74.35,2.9,2.9,0,0,1-3-.83,3.19,3.19,0,0,1-.58-1,3.49,3.49,0,0,1-.2-1.21,3.56,3.56,0,0,1,.21-1.22,3,3,0,0,1,.6-1,2.67,2.67,0,0,1,.94-.68,2.76,2.76,0,0,1,1.23-.25,2.62,2.62,0,0,1,.83.13,3.07,3.07,0,0,1,.73.35,2.72,2.72,0,0,1,.58.54,2.1,2.1,0,0,1,.37.69h0a2.64,2.64,0,0,1,1.06-1.53,3.25,3.25,0,0,1,1.92-.57,3,3,0,0,1,1.33.3,3.41,3.41,0,0,1,1,.79,3.36,3.36,0,0,1,.64,1.14,4.28,4.28,0,0,1,0,2.74,3.43,3.43,0,0,1-.66,1.13,3.15,3.15,0,0,1-1,.78,2.89,2.89,0,0,1-1.33.29,3.21,3.21,0,0,1-1.91-.59,2.72,2.72,0,0,1-1-1.54Zm-2.41-3.5a2.16,2.16,0,0,0-.81.15,1.93,1.93,0,0,0-1,1,2.37,2.37,0,0,0-.16.8,2.07,2.07,0,0,0,.15.8,2.17,2.17,0,0,0,.41.65,2,2,0,0,0,1.43.58,2.07,2.07,0,0,0,.8-.15,1.87,1.87,0,0,0,.64-.42,2.22,2.22,0,0,0,.42-.64,2.06,2.06,0,0,0,.15-.79,1.9,1.9,0,0,0-.14-.8,2,2,0,0,0-.42-.65,1.74,1.74,0,0,0-.63-.42A1.89,1.89,0,0,0,54.31,118.69Zm5.28-.39a2.51,2.51,0,0,0-.92.17,2.22,2.22,0,0,0-.74.49,2,2,0,0,0-.49.76,3,3,0,0,0-.19,1,2.93,2.93,0,0,0,.17,1,2.21,2.21,0,0,0,.49.76,2,2,0,0,0,.73.49,2.44,2.44,0,0,0,1.84,0,2.33,2.33,0,0,0,.74-.49,2.21,2.21,0,0,0,.49-.76,2.62,2.62,0,0,0,.18-1,2.66,2.66,0,0,0-.17-1,2.15,2.15,0,0,0-.48-.77,2.31,2.31,0,0,0-.73-.5A2.36,2.36,0,0,0,59.59,118.3Z"/><path d="M51.29,111.79a3.15,3.15,0,0,1,.57-2,3.69,3.69,0,0,1,1.43-1.16,6.16,6.16,0,0,1,1.9-.55,13.72,13.72,0,0,1,2-.14,15.5,15.5,0,0,1,2,.16,6.31,6.31,0,0,1,1.89.57,3.71,3.71,0,0,1,1.42,1.18,3.24,3.24,0,0,1,.55,2,3.28,3.28,0,0,1-.57,2A3.84,3.84,0,0,1,61,115a6.16,6.16,0,0,1-1.9.55,14,14,0,0,1-4,0,6.46,6.46,0,0,1-1.9-.57,3.75,3.75,0,0,1-1.41-1.18A3.17,3.17,0,0,1,51.29,111.79Zm1.05,0a2,2,0,0,0,.49,1.46,3.1,3.1,0,0,0,1.23.82,6.11,6.11,0,0,0,1.56.35c.56,0,1.06.08,1.51.08s.95,0,1.5-.06a6.09,6.09,0,0,0,1.57-.34,3,3,0,0,0,1.24-.8,2.42,2.42,0,0,0,0-2.93,3.08,3.08,0,0,0-1.22-.81,6.09,6.09,0,0,0-1.57-.35c-.55,0-1-.08-1.5-.08s-.95,0-1.51.06a5.86,5.86,0,0,0-1.57.34,3,3,0,0,0-1.23.8A2.1,2.1,0,0,0,52.34,111.8Z"/><path d="M57,101.78c-.28,0-.56,0-.83,0l-.84.06v-1.14h1.14v0a2.39,2.39,0,0,1-1-1.07,3.05,3.05,0,0,1-.33-1.35,3.9,3.9,0,0,1,.07-.65,2,2,0,0,1,.24-.66,2.34,2.34,0,0,1,.47-.6,2.61,2.61,0,0,1,.79-.46,2.45,2.45,0,0,1-1.13-1A3.07,3.07,0,0,1,56,91.29a3.14,3.14,0,0,1,2.17-.68l4.76,0V91.7l-4.37,0a3.2,3.2,0,0,0-1.74.39,1.65,1.65,0,0,0-.62,1.49,1.91,1.91,0,0,0,.23,1,1.81,1.81,0,0,0,.61.65,2.63,2.63,0,0,0,.87.37,4.74,4.74,0,0,0,1,.11l4,0v1l-4.37,0a3.08,3.08,0,0,0-1.74.39,1.65,1.65,0,0,0-.62,1.48,3.37,3.37,0,0,0,.06.44,1.71,1.71,0,0,0,.35.72,2.68,2.68,0,0,0,.86.67,3.64,3.64,0,0,0,1.6.3l3.84,0v1.06Z"/><path d="M57.12,88.14l-.84,0-.83,0V87.08h1.13v0a2.47,2.47,0,0,1-1-1.07,3,3,0,0,1-.26-2,2.25,2.25,0,0,1,.23-.66,2.39,2.39,0,0,1,.48-.6,2.58,2.58,0,0,1,.79-.47,2.38,2.38,0,0,1-1.13-1,2.66,2.66,0,0,1-.41-1.45,2.69,2.69,0,0,1,.77-2.12A3.12,3.12,0,0,1,58.25,77L63,77v1l-4.37,0a3.27,3.27,0,0,0-1.75.39,1.65,1.65,0,0,0-.61,1.49,1.91,1.91,0,0,0,.22,1,2,2,0,0,0,.61.65,2.58,2.58,0,0,0,.87.36A4.31,4.31,0,0,0,59,82l4,0v1.06l-4.37,0a3.09,3.09,0,0,0-1.75.39A1.65,1.65,0,0,0,56.24,85a3.37,3.37,0,0,0,.06.44,1.62,1.62,0,0,0,.35.71,2.45,2.45,0,0,0,.86.67,3.45,3.45,0,0,0,1.59.31l3.84,0v1.06Z"/></g><g class="cls-3"><path d="M76.47,55.82l-7.2,0V54.51l4.5-4.61.51-.54a5.41,5.41,0,0,0,.46-.61,3.52,3.52,0,0,0,.34-.67,2.3,2.3,0,0,0,.12-.74,2,2,0,0,0-.17-.83,1.7,1.7,0,0,0-.47-.62,2.13,2.13,0,0,0-.71-.39,2.6,2.6,0,0,0-.84-.14,2.33,2.33,0,0,0-1.48.49,2.21,2.21,0,0,0-.78,1.29L69.54,47a3.2,3.2,0,0,1,1.15-2,3.51,3.51,0,0,1,2.23-.72,4.66,4.66,0,0,1,1.31.18,3.2,3.2,0,0,1,1.09.55,2.65,2.65,0,0,1,1,2.2,3.51,3.51,0,0,1-.19,1.2,5.53,5.53,0,0,1-.52,1,6.93,6.93,0,0,1-.73.91c-.27.29-.55.57-.83.85l-3.56,3.55,6,0Z"/><path d="M81.82,44.28a3.24,3.24,0,0,1,2,.56A3.78,3.78,0,0,1,85,46.26a6.09,6.09,0,0,1,.56,1.9,13.58,13.58,0,0,1,.15,2,13.76,13.76,0,0,1-.14,2A6.38,6.38,0,0,1,85,54a3.81,3.81,0,0,1-1.17,1.43,3.28,3.28,0,0,1-2,.57,3.24,3.24,0,0,1-2-.56A3.78,3.78,0,0,1,78.71,54a6.46,6.46,0,0,1-.57-1.9,13.58,13.58,0,0,1-.15-2,15.36,15.36,0,0,1,.14-2,6.39,6.39,0,0,1,.56-1.89,3.69,3.69,0,0,1,1.16-1.43A3.24,3.24,0,0,1,81.82,44.28Zm0,1.06a2.05,2.05,0,0,0-1.46.5,3.08,3.08,0,0,0-.81,1.23,6.27,6.27,0,0,0-.34,1.57c0,.56-.07,1.06-.06,1.51s0,1,.07,1.5a6.09,6.09,0,0,0,.35,1.57,3.08,3.08,0,0,0,.81,1.23,2.42,2.42,0,0,0,2.93,0,3.17,3.17,0,0,0,.8-1.23,5.78,5.78,0,0,0,.34-1.57c0-.56.07-1.06.07-1.51s0-1-.07-1.5a6.19,6.19,0,0,0-.35-1.57,3.3,3.3,0,0,0-.81-1.23A2.09,2.09,0,0,0,81.82,45.34Z"/><path d="M91.88,50c0-.27,0-.55,0-.83s0-.55,0-.83h1.13v1.13h0a2.47,2.47,0,0,1,1.06-1,2.94,2.94,0,0,1,1.35-.34,3.83,3.83,0,0,1,.65.06,2.25,2.25,0,0,1,.66.23,2,2,0,0,1,.6.47,2.64,2.64,0,0,1,.48.79,2.43,2.43,0,0,1,1-1.14,3.09,3.09,0,0,1,3.58.33,3.12,3.12,0,0,1,.69,2.17v4.75h-1V51.38a3.24,3.24,0,0,0-.41-1.74,1.66,1.66,0,0,0-1.49-.6,2,2,0,0,0-1,.23,1.93,1.93,0,0,0-.65.62,2.79,2.79,0,0,0-.35.87,4.31,4.31,0,0,0-.11,1v4H97V51.4a3.26,3.26,0,0,0-.4-1.75,1.67,1.67,0,0,0-1.49-.6,2.52,2.52,0,0,0-.44.07,1.62,1.62,0,0,0-.71.35,2.55,2.55,0,0,0-.67.86,3.71,3.71,0,0,0-.29,1.61v3.84h-1Z"/><path d="M105.51,49.92c0-.28,0-.55,0-.83l-.06-.83h1.13v1.14h0a2.5,2.5,0,0,1,1.06-1,3.1,3.1,0,0,1,2-.27,2.25,2.25,0,0,1,.66.23,2.22,2.22,0,0,1,.61.47,2.65,2.65,0,0,1,.47.78,2.48,2.48,0,0,1,1-1.14,2.79,2.79,0,0,1,1.45-.42,2.73,2.73,0,0,1,2.13.76,3.1,3.1,0,0,1,.69,2.16l0,4.76h-1.06V51.35a3.11,3.11,0,0,0-.41-1.74,1.63,1.63,0,0,0-1.49-.61,1.91,1.91,0,0,0-1,.24,1.81,1.81,0,0,0-.64.62,2.42,2.42,0,0,0-.36.87,4.74,4.74,0,0,0-.11,1v4h-1.06V51.36a3.16,3.16,0,0,0-.4-1.74,1.63,1.63,0,0,0-1.49-.6l-.44.06a1.55,1.55,0,0,0-.71.36,2.42,2.42,0,0,0-.66.86,3.53,3.53,0,0,0-.3,1.6v3.84h-1Z"/></g><line class="cls-2" x1="229.21" y1="74.03" x2="229.36" y2="216.68"/><line class="cls-2" x1="230.74" y1="74.03" x2="227.58" y2="74.03"/><line class="cls-2" x1="230.89" y1="216.68" x2="227.73" y2="216.68"/><g class="cls-3"><path d="M249.14,170.5v1.15l-9.89-.06,1.78,2-.87.71-2.35-2.89v-1Z"/><path d="M238.92,159.53l10.25,4.62v1.29l-10.24-4.71,0,5.52h-1.06l0-6.72Z"/><path d="M237.71,153.76a3.21,3.21,0,0,1,.57-2,3.77,3.77,0,0,1,1.43-1.16,6.16,6.16,0,0,1,1.9-.55,14,14,0,0,1,3.95,0,6.31,6.31,0,0,1,1.89.57,3.71,3.71,0,0,1,1.42,1.18,3.73,3.73,0,0,1,0,3.93,3.77,3.77,0,0,1-1.43,1.16,6.16,6.16,0,0,1-1.9.55,14,14,0,0,1-4,0,6.31,6.31,0,0,1-1.89-.57,3.71,3.71,0,0,1-1.42-1.18A3.24,3.24,0,0,1,237.71,153.76Zm1.06,0a2,2,0,0,0,.48,1.46,3.1,3.1,0,0,0,1.23.82,6.09,6.09,0,0,0,1.57.35c.55,0,1,.08,1.5.08s.95,0,1.5-.06a6.09,6.09,0,0,0,1.57-.34,2.93,2.93,0,0,0,1.24-.8,2.44,2.44,0,0,0,0-2.93,3.19,3.19,0,0,0-1.23-.81,6.09,6.09,0,0,0-1.57-.35c-.55-.05-1.05-.08-1.5-.08a13.4,13.4,0,0,0-1.5.06,5.7,5.7,0,0,0-1.57.34,2.93,2.93,0,0,0-1.24.8A2.05,2.05,0,0,0,238.77,153.77Z"/><path d="M243.46,143.75a7.67,7.67,0,0,0-.83,0l-.83,0v-1.14h1.14v0a2.47,2.47,0,0,1-1-1.06,3,3,0,0,1-.32-1.36,3.83,3.83,0,0,1,.06-.65,2.76,2.76,0,0,1,.24-.66,2.34,2.34,0,0,1,.47-.6,2.61,2.61,0,0,1,.79-.46,2.5,2.5,0,0,1-1.13-1,2.85,2.85,0,0,1-.41-1.45,2.78,2.78,0,0,1,.77-2.12,3.15,3.15,0,0,1,2.18-.68l4.75,0v1.06l-4.37,0a3.25,3.25,0,0,0-1.74.39,1.67,1.67,0,0,0-.62,1.49,2,2,0,0,0,.23,1,1.9,1.9,0,0,0,.61.65,2.82,2.82,0,0,0,.87.37,4.74,4.74,0,0,0,1,.11l4,0v1.05l-4.36,0a3.09,3.09,0,0,0-1.75.39,1.65,1.65,0,0,0-.62,1.48,2.52,2.52,0,0,0,.07.44,1.68,1.68,0,0,0,.34.72,2.68,2.68,0,0,0,.86.67,3.53,3.53,0,0,0,1.6.3l3.84,0v1.06Z"/><path d="M243.54,130.11l-.83,0-.84.06v-1.14H243v0a2.39,2.39,0,0,1-1-1.07,3.05,3.05,0,0,1-.33-1.35,3.9,3.9,0,0,1,.07-.65,2,2,0,0,1,.24-.66,2.34,2.34,0,0,1,.47-.6,2.71,2.71,0,0,1,.79-.47,2.38,2.38,0,0,1-1.13-1,3.07,3.07,0,0,1,.36-3.57,3.12,3.12,0,0,1,2.17-.68l4.75,0V120l-4.37,0a3.27,3.27,0,0,0-1.75.39,1.67,1.67,0,0,0-.61,1.49,1.91,1.91,0,0,0,.23,1,1.81,1.81,0,0,0,.61.65,2.63,2.63,0,0,0,.87.37,4.74,4.74,0,0,0,1,.11l4,0v1l-4.37,0a3,3,0,0,0-1.74.39,1.63,1.63,0,0,0-.62,1.48,3.37,3.37,0,0,0,.06.44,1.71,1.71,0,0,0,.35.72,2.53,2.53,0,0,0,.86.66,3.46,3.46,0,0,0,1.6.31l3.84,0v1.06Z"/></g><line class="cls-2" x1="80.3" y1="64.75" x2="108.33" y2="64.87"/><line class="cls-2" x1="80.3" y1="64.26" x2="80.3" y2="65.24"/><line class="cls-2" x1="108.33" y1="64.38" x2="108.32" y2="65.36"/><line class="cls-4" x1="155.81" y1="104.67" x2="155.81" y2="114.48"/><rect class="cls-4" x="82.02" y="75.22" width="26.35" height="69.34"/><g class="cls-5"><path class="cls-4" d="M162.37,114.51h0A1.53,1.53,0,0,1,163.9,116v28.6h9.85V74.49H163.9v30.18H108.29"/></g><line class="cls-4" x1="108.29" y1="114.53" x2="162.46" y2="114.53"/><polygon class="cls-6" points="118.7 216.67 219.15 216.67 196.76 144.82 141.1 144.82 118.7 216.67"/><line class="cls-6" x1="169.75" y1="144.92" x2="171.41" y2="216.34"/><line class="cls-6" x1="173.26" y1="145.1" x2="178.68" y2="216.61"/><line class="cls-6" x1="176.91" y1="144.88" x2="185.61" y2="216.43"/><line class="cls-6" x1="181.03" y1="145.1" x2="192.64" y2="216.61"/><line class="cls-6" x1="184.56" y1="144.86" x2="199.96" y2="216.6"/><line class="cls-6" x1="189.31" y1="145.1" x2="207.89" y2="216.61"/><line class="cls-6" x1="193.06" y1="144.86" x2="214.55" y2="216.85"/><line class="cls-6" x1="166.28" y1="145.04" x2="162.96" y2="216.8"/><line class="cls-6" x1="162.88" y1="144.89" x2="155.43" y2="216.81"/><line class="cls-6" x1="158.88" y1="144.89" x2="148.4" y2="216.62"/><line class="cls-6" x1="155.19" y1="145.06" x2="141.7" y2="216.81"/><line class="cls-6" x1="151.57" y1="145" x2="134.88" y2="216.57"/><line class="cls-6" x1="147.82" y1="145.06" x2="128.06" y2="216.81"/><line class="cls-6" x1="144.92" y1="144.95" x2="121.79" y2="216.63"/><line class="cls-2" x1="80.71" y1="34.61" x2="220.29" y2="35"/><line class="cls-2" x1="80.72" y1="32.18" x2="80.7" y2="37.04"/><line class="cls-2" x1="220.3" y1="32.57" x2="220.28" y2="37.43"/><g class="cls-3"><path d="M126.38,24.84h-1.15l0-9.89-2,1.79-.71-.87,2.89-2.36h1Z"/><path d="M137.19,14.61l-4.62,0-.1,3.41a4.08,4.08,0,0,1,.76-.21,4.9,4.9,0,0,1,.77-.06,4,4,0,0,1,1.45.28,3.29,3.29,0,0,1,1.12.77,3.45,3.45,0,0,1,.74,1.15,3.85,3.85,0,0,1,.25,1.45,3.89,3.89,0,0,1-.29,1.5,3.28,3.28,0,0,1-.81,1.16,3.48,3.48,0,0,1-1.21.75,4.13,4.13,0,0,1-1.51.27,3.72,3.72,0,0,1-1.93-.52A3.34,3.34,0,0,1,130.48,23l1.16-.49a2.67,2.67,0,0,0,.89,1.07,2.28,2.28,0,0,0,1.32.39,2.38,2.38,0,0,0,1-.19,2.51,2.51,0,0,0,1.36-1.33,2.54,2.54,0,0,0,.2-1,2.94,2.94,0,0,0-.2-1.09,2.56,2.56,0,0,0-.58-.86,2.44,2.44,0,0,0-.87-.55,3.14,3.14,0,0,0-1.12-.2,4.52,4.52,0,0,0-1.21.16,6,6,0,0,0-1.15.45l.14-5.87,5.78,0Z"/><path d="M143.1,13.39a3.18,3.18,0,0,1,2,.57,3.78,3.78,0,0,1,1.16,1.43,6.36,6.36,0,0,1,.55,1.9,15.09,15.09,0,0,1,.14,2,15.5,15.5,0,0,1-.16,2,6.19,6.19,0,0,1-.56,1.89A3.71,3.71,0,0,1,145,24.55a3.24,3.24,0,0,1-2,.55,3.15,3.15,0,0,1-2-.57,3.81,3.81,0,0,1-1.17-1.43,6.66,6.66,0,0,1-.55-1.9,13.48,13.48,0,0,1-.13-2,13.82,13.82,0,0,1,.15-2,6.4,6.4,0,0,1,.57-1.89,3.78,3.78,0,0,1,1.17-1.42A3.24,3.24,0,0,1,143.1,13.39Zm0,1a2.14,2.14,0,0,0-1.47.49,3.08,3.08,0,0,0-.81,1.23,5.71,5.71,0,0,0-.35,1.57c-.05.55-.08,1.06-.08,1.5s0,.95.06,1.51a6.18,6.18,0,0,0,.34,1.57,3.17,3.17,0,0,0,.8,1.23,2.09,2.09,0,0,0,1.47.5,2,2,0,0,0,1.46-.49,3.1,3.1,0,0,0,.82-1.22,6.19,6.19,0,0,0,.35-1.57c.05-.55.07-1.06.07-1.5s0-1-.06-1.51a6.18,6.18,0,0,0-.34-1.57,3.06,3.06,0,0,0-.8-1.23A2.07,2.07,0,0,0,143.1,14.44Z"/><path d="M153.12,19.13a7.85,7.85,0,0,0,0-.84c0-.27,0-.55,0-.83h1.14V18.6h0a2.45,2.45,0,0,1,1.06-1,3,3,0,0,1,1.36-.33,3.83,3.83,0,0,1,.65.06,2.51,2.51,0,0,1,.66.24,2.34,2.34,0,0,1,.6.47,2.61,2.61,0,0,1,.46.79,2.45,2.45,0,0,1,1-1.13,3.07,3.07,0,0,1,3.57.36,3.1,3.1,0,0,1,.68,2.17l0,4.75h-1.06l0-4.37a3.27,3.27,0,0,0-.39-1.75,1.64,1.64,0,0,0-1.49-.61,2,2,0,0,0-1,.22,1.93,1.93,0,0,0-.65.62,2.42,2.42,0,0,0-.36.87,4.17,4.17,0,0,0-.12,1l0,4h-1.05V20.6a3.08,3.08,0,0,0-.39-1.74,1.62,1.62,0,0,0-1.48-.61l-.44.06a1.6,1.6,0,0,0-.72.35,2.44,2.44,0,0,0-.66.86,3.6,3.6,0,0,0-.31,1.6V25H153.1Z"/><path d="M166.76,19.19c0-.28,0-.56,0-.84l-.06-.83h1.14v1.13h0a2.56,2.56,0,0,1,1.07-1,3.05,3.05,0,0,1,1.35-.33,5.35,5.35,0,0,1,.65.07,2.28,2.28,0,0,1,.66.24,2.34,2.34,0,0,1,.6.47,2.71,2.71,0,0,1,.47.79,2.38,2.38,0,0,1,1-1.13,2.66,2.66,0,0,1,1.45-.41,2.73,2.73,0,0,1,2.12.76,3.15,3.15,0,0,1,.68,2.18l0,4.75h-1.06l0-4.37a3.16,3.16,0,0,0-.39-1.74,1.63,1.63,0,0,0-1.49-.61,1.91,1.91,0,0,0-1,.22,1.93,1.93,0,0,0-.65.62A2.42,2.42,0,0,0,173,20a4.17,4.17,0,0,0-.12,1l0,4h-1.05l0-4.37a3.13,3.13,0,0,0-.4-1.74,1.65,1.65,0,0,0-1.48-.62,2.52,2.52,0,0,0-.44.07,1.59,1.59,0,0,0-.71.34,2.6,2.6,0,0,0-.67.87,3.58,3.58,0,0,0-.31,1.59V25h-1.06Z"/></g></svg>