<svg id="Rosy_Angelis_copia" data-name="Rosy Angelis copia" xmlns="http://www.w3.org/2000/svg" viewBox="0 0 300 263"><defs><style>.cls-1{isolation:isolate;}.cls-2,.cls-3{fill:none;stroke-width:0.5px;}.cls-2{stroke:#000;}.cls-3{stroke:#1d1d1b;stroke-miterlimit:3.86;}</style></defs><title>rosy-angelis-floor-starck-flos-F6160020-spech-tech-02-300x263</title><g class="cls-1"><path d="M106.4,160.09v1.15H96.52l1.79,2-.87.72-2.36-2.88v-1Z"/><path d="M96.13,149.18l10.27,4.56V155l-10.27-4.66v5.52h-1v-6.72Z"/><path d="M100.37,144.89a2.25,2.25,0,0,1-.37.68,2.53,2.53,0,0,1-.59.54,3.07,3.07,0,0,1-.73.35,3,3,0,0,1-.84.13,2.9,2.9,0,0,1-1.22-.26,2.83,2.83,0,0,1-.94-.69,3.06,3.06,0,0,1-.59-1,3.46,3.46,0,0,1-.21-1.21,3.56,3.56,0,0,1,.21-1.22,3.11,3.11,0,0,1,.59-1,2.83,2.83,0,0,1,.94-.69,2.9,2.9,0,0,1,1.22-.26,2.63,2.63,0,0,1,.84.13,2.73,2.73,0,0,1,.73.35,2.53,2.53,0,0,1,.59.54,2.14,2.14,0,0,1,.37.68h0a2.76,2.76,0,0,1,1.06-1.54,3.21,3.21,0,0,1,1.92-.58,2.92,2.92,0,0,1,1.33.3,3.38,3.38,0,0,1,1.66,1.92,4.2,4.2,0,0,1,0,2.74,3.38,3.38,0,0,1-1.66,1.92,3.05,3.05,0,0,1-1.33.29,3.21,3.21,0,0,1-1.92-.57,2.79,2.79,0,0,1-1.06-1.54Zm-2.43-3.49a2.11,2.11,0,0,0-.8.15,2,2,0,0,0-.63.43,1.87,1.87,0,0,0-.42.64,2.21,2.21,0,0,0,0,1.6,2,2,0,0,0,.42.64,1.83,1.83,0,0,0,.63.42,2.11,2.11,0,0,0,.8.16,2.08,2.08,0,0,0,.8-.16,1.74,1.74,0,0,0,.63-.42,2,2,0,0,0,.42-.64,2.21,2.21,0,0,0,0-1.6,1.87,1.87,0,0,0-.42-.64,1.9,1.9,0,0,0-.63-.43A2.07,2.07,0,0,0,97.94,141.4Zm5.28-.41a2.51,2.51,0,0,0-.92.17,2.33,2.33,0,0,0-.74.49,2.24,2.24,0,0,0-.48.77,2.9,2.9,0,0,0,0,2,2.19,2.19,0,0,0,.48.76,2.38,2.38,0,0,0,3.32,0,2.19,2.19,0,0,0,.48-.76,2.9,2.9,0,0,0,0-2,2.24,2.24,0,0,0-.48-.77,2.33,2.33,0,0,0-.74-.49A2.51,2.51,0,0,0,103.22,141Z"/><path d="M94.88,134.52a3.21,3.21,0,0,1,.56-2,3.7,3.7,0,0,1,1.43-1.17,6.11,6.11,0,0,1,1.89-.56,13.14,13.14,0,0,1,4,0,6.11,6.11,0,0,1,1.89.56,3.7,3.7,0,0,1,1.43,1.17,3.73,3.73,0,0,1,0,3.93,3.89,3.89,0,0,1-1.43,1.17,6.39,6.39,0,0,1-1.89.56,14.07,14.07,0,0,1-4,0,6.39,6.39,0,0,1-1.89-.56,3.89,3.89,0,0,1-1.43-1.17A3.24,3.24,0,0,1,94.88,134.52Zm1.06,0a2.09,2.09,0,0,0,.5,1.47,3.17,3.17,0,0,0,1.23.8,5.71,5.71,0,0,0,1.57.35c.55.05,1.05.07,1.5.07s1,0,1.5-.07a5.71,5.71,0,0,0,1.57-.35A3.17,3.17,0,0,0,105,136a2,2,0,0,0,.5-1.47,2,2,0,0,0-.5-1.46,3.08,3.08,0,0,0-1.23-.81,6.09,6.09,0,0,0-1.57-.34c-.55,0-1-.08-1.5-.08s-.95,0-1.5.08a6.09,6.09,0,0,0-1.57.34,3.08,3.08,0,0,0-1.23.81A2.07,2.07,0,0,0,95.94,134.52Z"/><path d="M100.58,124.48c-.28,0-.55,0-.83,0s-.56,0-.83.06v-1.14h1.13v0a2.5,2.5,0,0,1-1-1.07,3.07,3.07,0,0,1-.34-1.35,3.9,3.9,0,0,1,.07-.65,2.25,2.25,0,0,1,.23-.66,2.34,2.34,0,0,1,.47-.6,2.44,2.44,0,0,1,.79-.47,2.5,2.5,0,0,1-1.14-1,2.76,2.76,0,0,1-.42-1.45,2.73,2.73,0,0,1,.76-2.12,3.12,3.12,0,0,1,2.17-.69h4.75v1H102a3.26,3.26,0,0,0-1.75.4,1.68,1.68,0,0,0-.61,1.49,1.86,1.86,0,0,0,.24,1,1.81,1.81,0,0,0,.61.65,2.58,2.58,0,0,0,.87.36,4.31,4.31,0,0,0,1,.11h4v1.06H102a3.17,3.17,0,0,0-1.75.4,1.67,1.67,0,0,0-.61,1.49c0,.06,0,.21.07.44a1.67,1.67,0,0,0,.35.71,2.53,2.53,0,0,0,.86.66,3.53,3.53,0,0,0,1.6.3h3.84v1.06Z"/><path d="M100.58,110.84c-.28,0-.55,0-.83,0l-.83,0v-1.13h1.13v0a2.47,2.47,0,0,1-1-1.06,3.07,3.07,0,0,1-.34-1.35,3.9,3.9,0,0,1,.07-.65A2.25,2.25,0,0,1,99,106a2,2,0,0,1,.47-.6,2.44,2.44,0,0,1,.79-.47,2.56,2.56,0,0,1-1.14-1,3.07,3.07,0,0,1,.34-3.58,3.12,3.12,0,0,1,2.17-.68h4.75v1H102a3.17,3.17,0,0,0-1.75.4,1.67,1.67,0,0,0-.61,1.49,1.87,1.87,0,0,0,.85,1.64,3.07,3.07,0,0,0,.87.36,4.9,4.9,0,0,0,1,.11h4v1.06H102a3.17,3.17,0,0,0-1.75.4,1.65,1.65,0,0,0-.61,1.49c0,.06,0,.21.07.44a1.73,1.73,0,0,0,.35.71,2.67,2.67,0,0,0,.86.66,3.53,3.53,0,0,0,1.6.3h3.84v1Z"/></g><line class="cls-2" x1="116.77" y1="46.72" x2="116.77" y2="217.3"/><line class="cls-2" x1="118.35" y1="46.72" x2="114.98" y2="46.72"/><line class="cls-2" x1="118.53" y1="217.3" x2="114.16" y2="217.3"/><g class="cls-1"><path d="M202.41,92.42V90.79h1.05v1.63h2.69v1.15h-2.69v4.9h-1.31l-7.33-4.58V92.42ZM196,93.57v0l6.43,3.91V93.57Z"/><path d="M195.88,82.74v4.62l3.41.08a3.21,3.21,0,0,1-.21-.75,5,5,0,0,1-.06-.77,3.75,3.75,0,0,1,.27-1.45,3.17,3.17,0,0,1,.76-1.13,3.45,3.45,0,0,1,1.15-.74,4,4,0,0,1,1.45-.26,3.64,3.64,0,0,1,1.49.29,3.21,3.21,0,0,1,1.17.8,3.56,3.56,0,0,1,.76,1.2,4.19,4.19,0,0,1,.27,1.52,3.71,3.71,0,0,1-.51,1.93,3.31,3.31,0,0,1-1.5,1.33l-.5-1.15a2.69,2.69,0,0,0,1.07-.9,2.28,2.28,0,0,0,.39-1.32,2.51,2.51,0,0,0-.2-1,2.67,2.67,0,0,0-.54-.81,2.36,2.36,0,0,0-.8-.54,2.54,2.54,0,0,0-1-.2,2.79,2.79,0,0,0-1.09.21,2.65,2.65,0,0,0-.85.57,2.6,2.6,0,0,0-.56.88,3.37,3.37,0,0,0-.19,1.12,4.53,4.53,0,0,0,.17,1.21,5.42,5.42,0,0,0,.46,1.15l-5.88-.12V82.74Z"/><path d="M194.63,76.83a3.21,3.21,0,0,1,.56-2,3.63,3.63,0,0,1,1.43-1.17,6,6,0,0,1,1.89-.56,13.82,13.82,0,0,1,2-.15,13.58,13.58,0,0,1,2,.15,6.17,6.17,0,0,1,1.9.56,3.6,3.6,0,0,1,1.42,1.17,3.73,3.73,0,0,1,0,3.93A3.78,3.78,0,0,1,204.36,80a6.45,6.45,0,0,1-1.9.56,13.53,13.53,0,0,1-2,.14,13.76,13.76,0,0,1-2-.14,6.3,6.3,0,0,1-1.89-.56,3.81,3.81,0,0,1-1.43-1.17A3.24,3.24,0,0,1,194.63,76.83Zm1.06,0a2.09,2.09,0,0,0,.49,1.47,3.26,3.26,0,0,0,1.24.81,6.1,6.1,0,0,0,1.56.34c.56,0,1.06.07,1.51.07s.95,0,1.5-.07a6.09,6.09,0,0,0,1.57-.34,3.3,3.3,0,0,0,1.23-.81,2.09,2.09,0,0,0,.5-1.47,2.07,2.07,0,0,0-.5-1.46,3.08,3.08,0,0,0-1.23-.81,6.09,6.09,0,0,0-1.57-.34c-.55,0-1.05-.07-1.5-.07s-1,0-1.51.07a6.1,6.1,0,0,0-1.56.34,3,3,0,0,0-1.24.81A2.06,2.06,0,0,0,195.69,76.83Z"/><path d="M200.33,66.79c-.28,0-.56,0-.83,0s-.56,0-.84.06V65.73h1.14v0a2.44,2.44,0,0,1-1-1.07,2.94,2.94,0,0,1-.34-1.35,3.07,3.07,0,0,1,.07-.65,2.25,2.25,0,0,1,.23-.66,2.34,2.34,0,0,1,.47-.6,2.45,2.45,0,0,1,.78-.47,2.48,2.48,0,0,1-1.13-1,2.74,2.74,0,0,1-.42-1.45,2.69,2.69,0,0,1,.76-2.12,3.12,3.12,0,0,1,2.17-.69h4.75v1.05h-4.37a3.25,3.25,0,0,0-1.74.4,1.65,1.65,0,0,0-.61,1.49,2,2,0,0,0,.23,1,1.84,1.84,0,0,0,.62.65,2.58,2.58,0,0,0,.87.36,4.31,4.31,0,0,0,1,.11h4v1.06h-4.37a3.16,3.16,0,0,0-1.74.4,1.64,1.64,0,0,0-.61,1.49,2.67,2.67,0,0,0,.07.44,1.67,1.67,0,0,0,.35.71,2.42,2.42,0,0,0,.86.66,3.53,3.53,0,0,0,1.6.3h3.84v1.06Z"/><path d="M200.33,53.15c-.28,0-.56,0-.83,0l-.84,0V52.1h1.14v0a2.44,2.44,0,0,1-1-1.07,2.94,2.94,0,0,1-.34-1.35,3.07,3.07,0,0,1,.07-.65,2.25,2.25,0,0,1,.23-.66,2,2,0,0,1,.47-.6,2.28,2.28,0,0,1,.78-.47,2.53,2.53,0,0,1-1.13-1,2.76,2.76,0,0,1-.42-1.45,2.73,2.73,0,0,1,.76-2.13A3.17,3.17,0,0,1,201.4,42h4.75v1h-4.37a3.25,3.25,0,0,0-1.74.4,1.64,1.64,0,0,0-.61,1.49,2,2,0,0,0,.23,1,1.93,1.93,0,0,0,.62.65,2.8,2.8,0,0,0,.87.36,4.9,4.9,0,0,0,1,.11h4V48.1h-4.37a3.16,3.16,0,0,0-1.74.4,1.63,1.63,0,0,0-.61,1.49,2.67,2.67,0,0,0,.07.44,1.67,1.67,0,0,0,.35.71,2.67,2.67,0,0,0,.86.66,3.53,3.53,0,0,0,1.6.3h3.84v1Z"/></g><line class="cls-2" x1="184.96" y1="47.12" x2="184.96" y2="92.63"/><line class="cls-2" x1="186.54" y1="47.12" x2="183.17" y2="47.12"/><line class="cls-2" x1="186.72" y1="92.63" x2="182.35" y2="92.63"/><g class="cls-1"><path d="M121.39,22a4,4,0,0,1,.68,1.16,4.44,4.44,0,0,1,0,3,3.73,3.73,0,0,1-2.08,2.07,4.2,4.2,0,0,1-1.61.3,4.15,4.15,0,0,1-1.4-.23,3.72,3.72,0,0,1-1.11-.61l-1.07,1.09-.52-.5,1.06-1.08a3.67,3.67,0,0,1-.69-1.18,4.17,4.17,0,0,1-.24-1.43,4,4,0,0,1,.3-1.57,3.67,3.67,0,0,1,.82-1.25,3.76,3.76,0,0,1,1.26-.82,4.09,4.09,0,0,1,1.59-.3,4.18,4.18,0,0,1,1.39.22,3.65,3.65,0,0,1,1.15.62l1.06-1.09.51.49Zm-1.25.26a2.66,2.66,0,0,0-1.81-.63,3,3,0,0,0-1.18.23,2.7,2.7,0,0,0-.88.64,2.94,2.94,0,0,0-.56.94,3.42,3.42,0,0,0-.2,1.17,2.94,2.94,0,0,0,.55,1.82ZM116.54,27a2.72,2.72,0,0,0,.8.45,3.11,3.11,0,0,0,1,.16,2.8,2.8,0,0,0,1.18-.24,2.54,2.54,0,0,0,.88-.63,2.73,2.73,0,0,0,.57-.94,3.51,3.51,0,0,0,.2-1.17,3.18,3.18,0,0,0-.54-1.83Z"/><path d="M134.18,24.62h1.64v1.05h-1.64v2.69H133V25.67h-4.89V24.36L132.71,17h1.47ZM133,18.19h0l-3.9,6.43H133Z"/><path d="M139.5,21.9l0,0a2,2,0,0,1,.73-.29,4.3,4.3,0,0,1,.84-.09,3.67,3.67,0,0,1,1.37.26,3.42,3.42,0,0,1,1.09.73,3.47,3.47,0,0,1,.73,1.1,3.61,3.61,0,0,1,.26,1.41,3.68,3.68,0,0,1-.27,1.43,3.27,3.27,0,0,1-.77,1.1,3.54,3.54,0,0,1-1.16.72,4.31,4.31,0,0,1-2.95,0,3.49,3.49,0,0,1-1.17-.72,3.24,3.24,0,0,1-.76-1.1,3.51,3.51,0,0,1-.28-1.43,4.6,4.6,0,0,1,.28-1.65,9.53,9.53,0,0,1,.7-1.39l3.06-5h1.36Zm-1.15,3.15a2.64,2.64,0,0,0,.18,1,2.32,2.32,0,0,0,.52.78,2.13,2.13,0,0,0,.8.5,3,3,0,0,0,2.05,0,2.21,2.21,0,0,0,.8-.5,2.48,2.48,0,0,0,.52-.78,2.81,2.81,0,0,0,0-2,2.33,2.33,0,0,0-.52-.77,2.52,2.52,0,0,0-.8-.5,2.86,2.86,0,0,0-2.05,0,2.41,2.41,0,0,0-.8.5,2.18,2.18,0,0,0-.52.77A2.64,2.64,0,0,0,138.35,25.05Z"/><path d="M149.77,16.84a3.24,3.24,0,0,1,2,.56,3.77,3.77,0,0,1,1.16,1.43,6,6,0,0,1,.56,1.89,13.82,13.82,0,0,1,.15,2,13.58,13.58,0,0,1-.15,2,6.17,6.17,0,0,1-.56,1.9A3.66,3.66,0,0,1,151.74,28a3.69,3.69,0,0,1-3.94,0,3.78,3.78,0,0,1-1.17-1.42,6.77,6.77,0,0,1-.56-1.9,15.09,15.09,0,0,1-.14-2,15.36,15.36,0,0,1,.14-2,6.6,6.6,0,0,1,.56-1.89,3.89,3.89,0,0,1,1.17-1.43A3.24,3.24,0,0,1,149.77,16.84Zm0,1.06a2,2,0,0,0-1.47.5,3.17,3.17,0,0,0-.8,1.23,6.11,6.11,0,0,0-.35,1.56c-.05.56-.07,1.06-.07,1.51s0,.95.07,1.5a6.09,6.09,0,0,0,.35,1.57,3.17,3.17,0,0,0,.8,1.23,2.09,2.09,0,0,0,1.47.5,2.05,2.05,0,0,0,1.46-.5,3.08,3.08,0,0,0,.81-1.23,5.7,5.7,0,0,0,.34-1.57c.05-.55.08-1.05.08-1.5s0-.95-.08-1.51a5.71,5.71,0,0,0-.34-1.56,3.08,3.08,0,0,0-.81-1.23A2,2,0,0,0,149.77,17.9Z"/><path d="M159.82,22.54c0-.28,0-.56,0-.83s0-.56,0-.84h1.13V22h0A2.41,2.41,0,0,1,162,21a2.94,2.94,0,0,1,1.35-.34,3.07,3.07,0,0,1,.65.07,2.25,2.25,0,0,1,.66.23,2,2,0,0,1,.6.47,2.47,2.47,0,0,1,.48.78,2.45,2.45,0,0,1,1-1.13,3.07,3.07,0,0,1,3.58.34,3.17,3.17,0,0,1,.68,2.17v4.75h-1V24a3.25,3.25,0,0,0-.4-1.74,1.67,1.67,0,0,0-1.49-.61,2,2,0,0,0-1,.23,1.93,1.93,0,0,0-.65.62,3.07,3.07,0,0,0-.36.87,4.9,4.9,0,0,0-.11,1v4h-1.06V24a3.16,3.16,0,0,0-.4-1.74,1.65,1.65,0,0,0-1.49-.61,2.67,2.67,0,0,0-.44.07,1.73,1.73,0,0,0-.71.35,2.67,2.67,0,0,0-.66.86,3.53,3.53,0,0,0-.3,1.6v3.84h-1.05Z"/><path d="M173.45,22.54c0-.28,0-.56,0-.83s0-.56,0-.84h1.13V22h0a2.41,2.41,0,0,1,1.06-1,2.94,2.94,0,0,1,1.35-.34,3,3,0,0,1,.65.07,2.25,2.25,0,0,1,.66.23,2,2,0,0,1,.6.47,2.47,2.47,0,0,1,.48.78,2.45,2.45,0,0,1,1-1.13,3.07,3.07,0,0,1,3.58.34,3.12,3.12,0,0,1,.69,2.17v4.75h-1.06V24a3.16,3.16,0,0,0-.4-1.74,1.67,1.67,0,0,0-1.49-.61,2,2,0,0,0-1,.23,1.93,1.93,0,0,0-.65.62,3.07,3.07,0,0,0-.36.87,4.9,4.9,0,0,0-.11,1v4H178.5V24a3.16,3.16,0,0,0-.4-1.74,1.65,1.65,0,0,0-1.48-.61,2.52,2.52,0,0,0-.44.07,1.71,1.71,0,0,0-.72.35,2.67,2.67,0,0,0-.66.86,3.53,3.53,0,0,0-.3,1.6v3.84h-1.05Z"/></g><g class="cls-1"><path d="M132.9,237.13h-4.63l-.08,3.41a3.51,3.51,0,0,1,.75-.21,5.09,5.09,0,0,1,.77-.06,3.83,3.83,0,0,1,1.46.27,3.22,3.22,0,0,1,1.12.76,3.55,3.55,0,0,1,.74,1.15,4.17,4.17,0,0,1,0,3,3.54,3.54,0,0,1-.8,1.16,3.6,3.6,0,0,1-1.21.76,3.94,3.94,0,0,1-1.51.28,3.66,3.66,0,0,1-1.94-.52,3.37,3.37,0,0,1-1.33-1.5l1.16-.5a2.61,2.61,0,0,0,.89,1.07,2.28,2.28,0,0,0,1.32.39,2.6,2.6,0,0,0,1-.2,2.57,2.57,0,0,0,.8-.54,2.52,2.52,0,0,0,.74-1.79,3,3,0,0,0-.2-1.09,2.67,2.67,0,0,0-.58-.85,2.43,2.43,0,0,0-.88-.55,3.14,3.14,0,0,0-1.12-.2,4.53,4.53,0,0,0-1.21.17A5.67,5.67,0,0,0,127,242l.11-5.87h5.78Z"/><path d="M137.33,241.37a2.14,2.14,0,0,1-.68-.37,2.53,2.53,0,0,1-.54-.59,2.73,2.73,0,0,1-.35-.73,2.63,2.63,0,0,1-.13-.84,2.9,2.9,0,0,1,.26-1.22,2.83,2.83,0,0,1,.69-.94,3.11,3.11,0,0,1,1-.59,3.65,3.65,0,0,1,2.44,0,3.22,3.22,0,0,1,1,.59,2.83,2.83,0,0,1,.69.94,2.9,2.9,0,0,1,.26,1.22,3,3,0,0,1-.13.84,3.07,3.07,0,0,1-.35.73,2.53,2.53,0,0,1-.54.59,2.25,2.25,0,0,1-.68.37v0a2.79,2.79,0,0,1,1.54,1.06,3.21,3.21,0,0,1,.57,1.92,3.05,3.05,0,0,1-.29,1.33,3.38,3.38,0,0,1-1.92,1.66,4.19,4.19,0,0,1-1.37.23,4.15,4.15,0,0,1-1.37-.23,3.3,3.3,0,0,1-1.92-1.66,2.92,2.92,0,0,1-.3-1.33,3.21,3.21,0,0,1,.58-1.92,2.79,2.79,0,0,1,1.54-1.06Zm3.9,2.85a2.28,2.28,0,0,0-.66-1.66,2.24,2.24,0,0,0-.77-.48,2.9,2.9,0,0,0-2,0,2.19,2.19,0,0,0-.76.48,2.33,2.33,0,0,0-.49.74,2.57,2.57,0,0,0,0,1.84,2.33,2.33,0,0,0,.49.74,2.19,2.19,0,0,0,.76.48,2.9,2.9,0,0,0,2,0,2.24,2.24,0,0,0,.77-.48,2.28,2.28,0,0,0,.66-1.66Zm-.42-5.28a2.11,2.11,0,0,0-.15-.8,1.83,1.83,0,0,0-.42-.63,2,2,0,0,0-.64-.42,2.11,2.11,0,0,0-.8-.15,2.07,2.07,0,0,0-.8.15,1.87,1.87,0,0,0-.64.42,1.83,1.83,0,0,0-.42.63,1.94,1.94,0,0,0-.16.8,1.91,1.91,0,0,0,.16.8,1.74,1.74,0,0,0,.42.63,1.87,1.87,0,0,0,.64.42,2.07,2.07,0,0,0,.8.15,2.11,2.11,0,0,0,.8-.15,2,2,0,0,0,.64-.42,1.74,1.74,0,0,0,.42-.63A2.07,2.07,0,0,0,140.81,238.94Z"/><path d="M147.7,235.88a3.21,3.21,0,0,1,2,.56,3.89,3.89,0,0,1,1.17,1.43,6.39,6.39,0,0,1,.56,1.89,13.14,13.14,0,0,1,0,4,6.39,6.39,0,0,1-.56,1.89,3.89,3.89,0,0,1-1.17,1.43,3.73,3.73,0,0,1-3.93,0,3.89,3.89,0,0,1-1.17-1.43,6.39,6.39,0,0,1-.56-1.89,13.14,13.14,0,0,1,0-4,6.39,6.39,0,0,1,.56-1.89,3.89,3.89,0,0,1,1.17-1.43A3.22,3.22,0,0,1,147.7,235.88Zm0,1.06a2.09,2.09,0,0,0-1.47.5,3.08,3.08,0,0,0-.81,1.23,6.09,6.09,0,0,0-.34,1.57c-.05.55-.07,1-.07,1.5s0,.95.07,1.5a6.09,6.09,0,0,0,.34,1.57,3.08,3.08,0,0,0,.81,1.23,2.4,2.4,0,0,0,2.93,0,3.08,3.08,0,0,0,.81-1.23,6.09,6.09,0,0,0,.34-1.57c.05-.55.07-1.05.07-1.5s0-1-.07-1.5a6.09,6.09,0,0,0-.34-1.57,3.08,3.08,0,0,0-.81-1.23A2.09,2.09,0,0,0,147.7,236.94Z"/><path d="M157.74,241.58c0-.28,0-.55,0-.83l-.06-.83h1.14v1.13h0a2.5,2.5,0,0,1,1.07-1,3.07,3.07,0,0,1,1.35-.34,3.9,3.9,0,0,1,.65.07,2.23,2.23,0,0,1,1.26.7,2.63,2.63,0,0,1,.47.79,2.45,2.45,0,0,1,1-1.14,2.73,2.73,0,0,1,1.44-.42,2.76,2.76,0,0,1,2.13.76,3.12,3.12,0,0,1,.69,2.17v4.75h-1V243a3.26,3.26,0,0,0-.4-1.75,1.68,1.68,0,0,0-1.49-.61,1.92,1.92,0,0,0-1,.24,1.87,1.87,0,0,0-.64.61,2.58,2.58,0,0,0-.36.87,4.31,4.31,0,0,0-.11,1v4H162.8V243a3.17,3.17,0,0,0-.4-1.75,1.67,1.67,0,0,0-1.49-.61l-.44.07a1.62,1.62,0,0,0-.71.35,2.55,2.55,0,0,0-.67.86,3.69,3.69,0,0,0-.29,1.6v3.84h-1.06Z"/><path d="M171.38,241.58c0-.28,0-.55,0-.83s0-.56-.06-.83h1.14v1.13h0a2.5,2.5,0,0,1,1.07-1,3.07,3.07,0,0,1,1.35-.34,3.9,3.9,0,0,1,.65.07,2.25,2.25,0,0,1,.66.23,2.34,2.34,0,0,1,.6.47,2.63,2.63,0,0,1,.47.79,2.5,2.5,0,0,1,1-1.14,2.76,2.76,0,0,1,1.45-.42,2.73,2.73,0,0,1,2.12.76,3.12,3.12,0,0,1,.69,2.17v4.75h-1V243a3.26,3.26,0,0,0-.4-1.75,1.68,1.68,0,0,0-1.49-.61,1.86,1.86,0,0,0-1,.24,1.81,1.81,0,0,0-.65.61,2.58,2.58,0,0,0-.36.87,4.31,4.31,0,0,0-.11,1v4h-1.06V243a3.17,3.17,0,0,0-.4-1.75,1.67,1.67,0,0,0-1.49-.61l-.44.07a1.67,1.67,0,0,0-.71.35,2.53,2.53,0,0,0-.66.86,3.53,3.53,0,0,0-.3,1.6v3.84h-1.05Z"/></g><line class="cls-2" x1="173.86" y1="38.78" x2="124.32" y2="38.78"/><line class="cls-2" x1="173.86" y1="39.42" x2="173.86" y2="38.06"/><line class="cls-2" x1="124.32" y1="39.49" x2="124.32" y2="37.73"/><line class="cls-2" x1="180.1" y1="226.36" x2="129.21" y2="226.36"/><line class="cls-2" x1="180.1" y1="227.93" x2="180.1" y2="224.56"/><line class="cls-2" x1="129.21" y1="228.11" x2="129.21" y2="223.74"/><path class="cls-3" d="M134.76,46.74h33.09l6,46.24H127.81Zm1.71.08v2.55l-.68,3.43m5.76-5.68v2.1c0,1.57-.08,4-1,4.63m1.82-6,.53,1.94v3.37m1.51-6.36c.31.9,1.44,3,1,4.34m.83-1v3.07m4-5.91a26.87,26.87,0,0,1-.53,4.79v2.69m1.59-6.36v2.25m4.39-3.89c-.15,2.47-.53,3.36-.53,5.31,0,1.12.53,1.42.83,2.32m2.28-5.54c0-.37.15-.9.53-.9,1.51,0,2.27,4.34,2.27,6.29m3.63-7.41c.45,1.42,1.29,2.25,1.29,3.82l-.53,2.54a8.57,8.57,0,0,1,.53,2.69M140,68.43l-.31,2.1v1.94l-3,10,.45,1.42M134.2,79.5c-1.06,1.42-1.81,5.08-1.81,6.8l.3,3.44a3.76,3.76,0,0,1-.3,1.5M145.18,82a57.83,57.83,0,0,1-1,9.2l.23,1.49m9.39,0-.76-5.53V84.51c.46-1.12,1.29-1.57,1.52-2.69m6.88,10.91.68-2.69c-.9-2.39-2.49-5.23-2.49-7.77v-.68m9.61,10.92c.3-1.05.83-1.57.83-2.62a11.86,11.86,0,0,0-.07-1.57c-.23-1.27-.76-1.57-.91-2.61-.23-1.65-.3-3.22-1.06-4.12M146.79,93,130.53,215.91h1.7L149.05,93m.85,0-3.77,122.93h1.6L151.78,93m3.09,0,24,122.93h1.51L156.75,93m-25.88,119c-.91,1.12-2.87,4.26-4.69,4.26-1,0-1.36-1.05-2.35-1.05a9.28,9.28,0,0,0-3.18,1.12"/></svg>