<svg id="Serena" xmlns="http://www.w3.org/2000/svg" viewBox="0 0 300 263"><defs><style>.cls-1,.cls-3,.cls-4{fill:none;stroke-width:0.5px;}.cls-1{stroke:#000;}.cls-2{isolation:isolate;}.cls-3,.cls-4{stroke:#12110b;}.cls-3{stroke-linecap:round;stroke-linejoin:round;}.cls-4{stroke-miterlimit:2;}</style></defs><title>serena-table-urquiola-flos-F6582015-spech-tech-02-300x263</title><line class="cls-1" x1="119.84" y1="65.19" x2="180.58" y2="65.19"/><line class="cls-1" x1="119.84" y1="64.52" x2="119.84" y2="65.85"/><line class="cls-1" x1="180.58" y1="64.52" x2="180.58" y2="65.85"/><line class="cls-1" x1="107.86" y1="217.27" x2="107.86" y2="73.27"/><line class="cls-1" x1="106.42" y1="217.27" x2="109.3" y2="217.27"/><line class="cls-1" x1="106.42" y1="73.27" x2="109.3" y2="73.27"/><line class="cls-1" x1="140.07" y1="226.96" x2="159.5" y2="226.96"/><line class="cls-1" x1="140.07" y1="226.56" x2="140.07" y2="227.37"/><line class="cls-1" x1="159.5" y1="226.56" x2="159.5" y2="227.37"/><g class="cls-2"><path d="M132.18,237.05l-4.74,10.27H126.1l4.83-10.27H125.2V236h7Z"/><path d="M136.63,241.29a2.41,2.41,0,0,1-.71-.37,2.86,2.86,0,0,1-.56-.59,3.1,3.1,0,0,1-.36-.73,2.63,2.63,0,0,1-.13-.84,2.76,2.76,0,0,1,1-2.16,3.31,3.31,0,0,1,1-.59,3.92,3.92,0,0,1,2.53,0,3.2,3.2,0,0,1,1,.59,2.91,2.91,0,0,1,.72.94,2.76,2.76,0,0,1,.26,1.22,2.63,2.63,0,0,1-.13.84,3.1,3.1,0,0,1-.36.73,2.62,2.62,0,0,1-.56.59,2.41,2.41,0,0,1-.71.37v0a2.87,2.87,0,0,1,1.6,1.06,3.1,3.1,0,0,1,.6,1.92,2.93,2.93,0,0,1-.31,1.33,3.47,3.47,0,0,1-.81,1,3.57,3.57,0,0,1-1.18.65,4.49,4.49,0,0,1-1.42.23,4.4,4.4,0,0,1-1.42-.23,3.38,3.38,0,0,1-1.18-.65,3.35,3.35,0,0,1-.82-1,2.93,2.93,0,0,1-.31-1.33,3.1,3.1,0,0,1,.6-1.92,2.87,2.87,0,0,1,1.6-1.06Zm4.05,2.85a2.32,2.32,0,0,0-.18-.92,2.23,2.23,0,0,0-.51-.74,2.19,2.19,0,0,0-.8-.48,2.86,2.86,0,0,0-1-.18,2.89,2.89,0,0,0-1,.18,2.33,2.33,0,0,0-.79.48,2.39,2.39,0,0,0-.51.74,2.44,2.44,0,0,0,0,1.84,2.39,2.39,0,0,0,.51.74,2.33,2.33,0,0,0,.79.48,2.89,2.89,0,0,0,1,.18,2.86,2.86,0,0,0,1-.18,2.19,2.19,0,0,0,.8-.48,2.23,2.23,0,0,0,.51-.74A2.32,2.32,0,0,0,140.68,244.14Zm-.43-5.28a1.94,1.94,0,0,0-.16-.8,1.75,1.75,0,0,0-.44-.63A2.06,2.06,0,0,0,139,237a2.31,2.31,0,0,0-.83-.15,2.23,2.23,0,0,0-.83.15,2,2,0,0,0-.67.42,1.88,1.88,0,0,0-.44.63,2.11,2.11,0,0,0-.16.8,2.08,2.08,0,0,0,.16.8,1.79,1.79,0,0,0,.44.63,2,2,0,0,0,.67.42,2.23,2.23,0,0,0,.83.15,2.31,2.31,0,0,0,.83-.15,2.06,2.06,0,0,0,.66-.42,1.67,1.67,0,0,0,.44-.63A1.91,1.91,0,0,0,140.25,238.86Z"/><path d="M148.59,241.5c0-.28,0-.55,0-.83s0-.56-.06-.83h1.18V241h0a2.52,2.52,0,0,1,1.1-1,3.32,3.32,0,0,1,1.41-.34,4.13,4.13,0,0,1,.67.07,2.44,2.44,0,0,1,.69.23,2.26,2.26,0,0,1,.62.47,2.66,2.66,0,0,1,.49.79,2.48,2.48,0,0,1,1.06-1.14,3.28,3.28,0,0,1,3.71.34,3,3,0,0,1,.71,2.17v4.75h-1.09V243a3.08,3.08,0,0,0-.42-1.75,1.75,1.75,0,0,0-1.54-.61,2,2,0,0,0-1.71.85,2.82,2.82,0,0,0-.37.87,4.31,4.31,0,0,0-.12,1v4h-1.09V243a3.08,3.08,0,0,0-.42-1.75,1.74,1.74,0,0,0-1.54-.61c-.07,0-.22,0-.46.07a1.77,1.77,0,0,0-.74.35,2.71,2.71,0,0,0-.69.86,3.52,3.52,0,0,0-.31,1.6v3.84h-1.09Z"/><path d="M162.74,241.5c0-.28,0-.55,0-.83l-.06-.83h1.18V241h0a2.54,2.54,0,0,1,1.11-1,3.27,3.27,0,0,1,1.4-.34,4.13,4.13,0,0,1,.67.07,2.38,2.38,0,0,1,1.32.7,2.88,2.88,0,0,1,.49.79,2.51,2.51,0,0,1,1-1.14,3.28,3.28,0,0,1,3.71.34,3,3,0,0,1,.72,2.17v4.75h-1.1V243a3.17,3.17,0,0,0-.41-1.75,1.78,1.78,0,0,0-1.55-.61,2,2,0,0,0-1,.24,1.88,1.88,0,0,0-.67.61,2.84,2.84,0,0,0-.38.87,4.9,4.9,0,0,0-.11,1v4H168V243a3.17,3.17,0,0,0-.41-1.75,1.78,1.78,0,0,0-1.55-.61c-.07,0-.22,0-.46.07a1.83,1.83,0,0,0-.74.35,2.71,2.71,0,0,0-.69.86,3.53,3.53,0,0,0-.3,1.6v3.84h-1.1Z"/></g><g class="cls-2"><path d="M128,55.56h-7.48V54.23l4.69-4.59c.18-.17.35-.36.53-.55a4,4,0,0,0,.48-.61,2.85,2.85,0,0,0,.35-.67,2,2,0,0,0,.13-.73,1.84,1.84,0,0,0-.17-.83,1.79,1.79,0,0,0-.49-.63,2.33,2.33,0,0,0-.73-.39,2.84,2.84,0,0,0-.88-.14,2.45,2.45,0,0,0-1.53.48,2.15,2.15,0,0,0-.81,1.3l-1.27-.13a3.16,3.16,0,0,1,1.21-2,3.72,3.72,0,0,1,2.31-.72,5,5,0,0,1,1.36.18,3.6,3.6,0,0,1,1.13.55A2.65,2.65,0,0,1,127.9,47a3.29,3.29,0,0,1-.21,1.2,5.33,5.33,0,0,1-.54,1,7.86,7.86,0,0,1-.75.91c-.29.28-.58.57-.88.84l-3.7,3.54H128Z"/><path d="M132.15,49.09l0,0a2.1,2.1,0,0,1,.75-.28,4.08,4.08,0,0,1,.87-.1,3.86,3.86,0,0,1,1.42.26,3.54,3.54,0,0,1,1.14.73,3.48,3.48,0,0,1,.76,1.11,3.55,3.55,0,0,1,.27,1.41,3.46,3.46,0,0,1-.28,1.42,3.12,3.12,0,0,1-.8,1.1,3.67,3.67,0,0,1-1.21.72,4.63,4.63,0,0,1-3.06,0,3.67,3.67,0,0,1-1.21-.72,3.25,3.25,0,0,1-.8-1.1,3.46,3.46,0,0,1-.28-1.42,4.38,4.38,0,0,1,.29-1.65,9.18,9.18,0,0,1,.72-1.39l3.18-5h1.41ZM131,52.25a2.46,2.46,0,0,0,.19,1,2.07,2.07,0,0,0,.54.77,2.41,2.41,0,0,0,.83.51,3.39,3.39,0,0,0,2.12,0,2.46,2.46,0,0,0,.84-.51,2.17,2.17,0,0,0,.53-.77,2.58,2.58,0,0,0,0-2,2.17,2.17,0,0,0-.53-.77,2.6,2.6,0,0,0-.84-.5,3.21,3.21,0,0,0-2.12,0,2.56,2.56,0,0,0-.83.5,2.07,2.07,0,0,0-.54.77A2.48,2.48,0,0,0,131,52.25Z"/><path d="M141.29,49.52a2.41,2.41,0,0,1-.71-.37,2.57,2.57,0,0,1-.55-.59,2.65,2.65,0,0,1-.5-1.56,2.91,2.91,0,0,1,.26-1.23,2.77,2.77,0,0,1,.72-.93,3.06,3.06,0,0,1,1-.59,3.92,3.92,0,0,1,2.53,0,3,3,0,0,1,1,.59,2.74,2.74,0,0,1,.71.93,2.77,2.77,0,0,1,.27,1.23,2.63,2.63,0,0,1-.14.83,2.92,2.92,0,0,1-.36.73,2.62,2.62,0,0,1-.56.59,2.35,2.35,0,0,1-.7.37v0a2.81,2.81,0,0,1,1.59,1,3.14,3.14,0,0,1,.6,1.92,2.78,2.78,0,0,1-.31,1.33,3.35,3.35,0,0,1-.81,1,3.63,3.63,0,0,1-1.18.64,4.5,4.5,0,0,1-2.84,0,3.63,3.63,0,0,1-1.18-.64,3.39,3.39,0,0,1-.82-1,2.89,2.89,0,0,1-.3-1.33,3.19,3.19,0,0,1,.59-1.92,2.8,2.8,0,0,1,1.6-1Zm4.05,2.85a2.36,2.36,0,0,0-.18-.92,2.09,2.09,0,0,0-.51-.73,2.25,2.25,0,0,0-.79-.49,3,3,0,0,0-1-.18,2.89,2.89,0,0,0-1,.18,2.35,2.35,0,0,0-.79.49,2.31,2.31,0,0,0-.69,1.65,2.17,2.17,0,0,0,.19.92,2.25,2.25,0,0,0,.5.74,2.35,2.35,0,0,0,.79.49,3.12,3.12,0,0,0,1,.17,3.19,3.19,0,0,0,1-.17,2.25,2.25,0,0,0,.79-.49,2.13,2.13,0,0,0,.51-.74A2.32,2.32,0,0,0,145.34,52.37Zm-.43-5.28a1.94,1.94,0,0,0-.16-.8,1.84,1.84,0,0,0-.44-.63,2,2,0,0,0-.66-.41,2.08,2.08,0,0,0-.83-.16,2,2,0,0,0-.83.16,1.9,1.9,0,0,0-1.11,1,2.11,2.11,0,0,0-.16.8,2.08,2.08,0,0,0,.16.8,1.79,1.79,0,0,0,.44.63,2,2,0,0,0,.67.42,2.23,2.23,0,0,0,.83.15,2.27,2.27,0,0,0,.83-.15,2.06,2.06,0,0,0,.66-.42,1.67,1.67,0,0,0,.44-.63A1.91,1.91,0,0,0,144.91,47.09Z"/><path d="M153.25,49.73c0-.27,0-.55,0-.83l-.06-.83h1.18v1.14h0a2.6,2.6,0,0,1,1.1-1,3.33,3.33,0,0,1,1.41-.33,4.06,4.06,0,0,1,.67.06,2.44,2.44,0,0,1,.69.23,2.26,2.26,0,0,1,.62.47,2.47,2.47,0,0,1,.49.79,2.53,2.53,0,0,1,1.06-1.14,3,3,0,0,1,1.5-.41,2.89,2.89,0,0,1,2.21.76,3,3,0,0,1,.72,2.16v4.76h-1.1V51.19a3.08,3.08,0,0,0-.42-1.75,1.74,1.74,0,0,0-1.54-.6,2,2,0,0,0-1,.23,1.88,1.88,0,0,0-.67.61,2.58,2.58,0,0,0-.38.88,4.17,4.17,0,0,0-.11,1v4h-1.1V51.19a3.08,3.08,0,0,0-.42-1.75,1.74,1.74,0,0,0-1.54-.6l-.46.06a1.77,1.77,0,0,0-.74.35,2.65,2.65,0,0,0-.69.87,3.48,3.48,0,0,0-.3,1.6v3.84h-1.1Z"/><path d="M167.4,49.73c0-.27,0-.55,0-.83l-.06-.83h1.18v1.14h0a2.62,2.62,0,0,1,1.11-1,3.29,3.29,0,0,1,1.4-.33,4,4,0,0,1,.67.06,2.38,2.38,0,0,1,1.32.7,2.88,2.88,0,0,1,.49.79,2.51,2.51,0,0,1,1-1.14,3,3,0,0,1,1.51-.41,2.86,2.86,0,0,1,2.2.76A3,3,0,0,1,179,50.8v4.76h-1.1V51.19a3.17,3.17,0,0,0-.41-1.75,1.76,1.76,0,0,0-1.55-.6,2,2,0,0,0-1,.23,1.88,1.88,0,0,0-.67.61,2.57,2.57,0,0,0-.37.88,4.17,4.17,0,0,0-.12,1v4h-1.1V51.19a3.17,3.17,0,0,0-.41-1.75,1.76,1.76,0,0,0-1.55-.6l-.45.06a1.72,1.72,0,0,0-.74.35,2.42,2.42,0,0,0-.69.87,3.34,3.34,0,0,0-.31,1.6v3.84h-1.1Z"/></g><g class="cls-2"><path d="M91.51,171.39l0,0a2,2,0,0,1-.29-.73,4.3,4.3,0,0,1-.09-.84,3.48,3.48,0,0,1,.26-1.37,3.42,3.42,0,0,1,.73-1.09,3.47,3.47,0,0,1,1.1-.73,3.91,3.91,0,0,1,2.83,0,3.21,3.21,0,0,1,1.11.77,3.54,3.54,0,0,1,.72,1.16,4.48,4.48,0,0,1,0,3,3.49,3.49,0,0,1-.72,1.17,3.18,3.18,0,0,1-1.11.76,3.43,3.43,0,0,1-1.42.28,4.6,4.6,0,0,1-1.65-.28,9.53,9.53,0,0,1-1.39-.7l-5-3.05V168.3Zm3.15,1.15a2.64,2.64,0,0,0,1-.18,2.32,2.32,0,0,0,.78-.52,2.26,2.26,0,0,0,.5-.8,3,3,0,0,0,0-2,2.36,2.36,0,0,0-.5-.8,2.32,2.32,0,0,0-.78-.52,2.81,2.81,0,0,0-2,0,2.18,2.18,0,0,0-.77.52,2.52,2.52,0,0,0-.5.8,2.86,2.86,0,0,0,0,2,2.41,2.41,0,0,0,.5.8,2.18,2.18,0,0,0,.77.52A2.64,2.64,0,0,0,94.66,172.54Z"/><path d="M91.51,162.3v-.59a4.19,4.19,0,0,0-.11-1A2.39,2.39,0,0,0,91,160a1.9,1.9,0,0,0-.65-.54,2.19,2.19,0,0,0-1-.2,1.83,1.83,0,0,0-1.42.56,2.21,2.21,0,0,0-.5,1.54,2.36,2.36,0,0,0,.32,1.26,2.44,2.44,0,0,0,.93.9l-.52,1a3.48,3.48,0,0,1-1.35-1.31,3.73,3.73,0,0,1-.44-1.83,4.26,4.26,0,0,1,.19-1.26,3.09,3.09,0,0,1,.57-1,2.77,2.77,0,0,1,.93-.72,3,3,0,0,1,1.26-.26,2.58,2.58,0,0,1,.88.15,2.85,2.85,0,0,1,1.33,1A2.89,2.89,0,0,1,92,160l0-.05a2.34,2.34,0,0,1,.36-.88,3,3,0,0,1,.65-.69,2.8,2.8,0,0,1,.86-.44,3.1,3.1,0,0,1,1-.16,3.23,3.23,0,0,1,1.39.28,3.12,3.12,0,0,1,1,.79A3.65,3.65,0,0,1,98,160a4.54,4.54,0,0,1,.21,1.39,4.27,4.27,0,0,1-.54,2.18A3.29,3.29,0,0,1,95.88,165l-.37-1.22a2.4,2.4,0,0,0,1.21-.85,2.79,2.79,0,0,0,.39-1.59,2.82,2.82,0,0,0-.16-.92,2.45,2.45,0,0,0-.46-.76,2.3,2.3,0,0,0-.71-.51,2.27,2.27,0,0,0-.91-.18,2.21,2.21,0,0,0-1.08.24,1.91,1.91,0,0,0-.71.64,2.55,2.55,0,0,0-.4.92,4.83,4.83,0,0,0-.12,1.08v.49Z"/><path d="M94.23,150v-1.64h1V150H98v1.15H95.28v4.89H94l-7.33-4.57V150Zm-6.43,1.15v0l6.43,3.91v-3.94Z"/><path d="M92.15,142.18l-.83,0-.84.06v-1.14h1.14v0a2.47,2.47,0,0,1-1-1.06,3,3,0,0,1-.34-1.36,2.91,2.91,0,0,1,.07-.64,2.31,2.31,0,0,1,.23-.67,2.34,2.34,0,0,1,.47-.6,2.45,2.45,0,0,1,.78-.47,2.42,2.42,0,0,1-1.13-1,3.06,3.06,0,0,1,.34-3.57,3.12,3.12,0,0,1,2.17-.69H98v1.05H93.6a3.15,3.15,0,0,0-1.74.41,1.62,1.62,0,0,0-.61,1.48,2,2,0,0,0,.23,1,1.9,1.9,0,0,0,.62.64A2.58,2.58,0,0,0,93,136a4.31,4.31,0,0,0,1,.11h4v1.06H93.6a3.16,3.16,0,0,0-1.74.4,1.64,1.64,0,0,0-.61,1.49,2.67,2.67,0,0,0,.07.44,1.62,1.62,0,0,0,.35.71,2.55,2.55,0,0,0,.86.67,3.69,3.69,0,0,0,1.6.29H98v1.06Z"/><path d="M92.15,128.55c-.28,0-.56,0-.83,0l-.84.06v-1.14h1.14v0a2.44,2.44,0,0,1-1-1.07,2.94,2.94,0,0,1-.34-1.35,3.07,3.07,0,0,1,.07-.65,2.25,2.25,0,0,1,.23-.66,2.34,2.34,0,0,1,.47-.6,2.45,2.45,0,0,1,.78-.47,2.48,2.48,0,0,1-1.13-1,2.76,2.76,0,0,1-.42-1.45,2.69,2.69,0,0,1,.76-2.12,3.12,3.12,0,0,1,2.17-.69H98v1.05H93.6a3.25,3.25,0,0,0-1.74.4,1.65,1.65,0,0,0-.61,1.49,2,2,0,0,0,.23,1,1.84,1.84,0,0,0,.62.65,2.58,2.58,0,0,0,.87.36,4.31,4.31,0,0,0,1,.11h4v1.06H93.6a3.16,3.16,0,0,0-1.74.4,1.64,1.64,0,0,0-.61,1.49,2.67,2.67,0,0,0,.07.44,1.67,1.67,0,0,0,.35.71,2.53,2.53,0,0,0,.86.66,3.53,3.53,0,0,0,1.6.3H98v1.06Z"/></g><line class="cls-1" x1="171.18" y1="218.36" x2="171.43" y2="182.37"/><line class="cls-1" x1="170.46" y1="218.35" x2="171.91" y2="218.36"/><line class="cls-1" x1="170.71" y1="182.36" x2="172.16" y2="182.37"/><g class="cls-2"><path d="M191.59,213.51v1.19l-9.89-.07,1.78,2.13-.87.74-2.35-3v-1.06Z"/><path d="M181.39,202.26l0,4.8,3.41.1a3.44,3.44,0,0,1-.2-.78,5.29,5.29,0,0,1-.06-.8,4.1,4.1,0,0,1,.28-1.51,3.32,3.32,0,0,1,.77-1.16,3.44,3.44,0,0,1,1.15-.76,3.68,3.68,0,0,1,1.46-.26,3.64,3.64,0,0,1,1.49.31,3.36,3.36,0,0,1,1.16.84,3.77,3.77,0,0,1,.75,1.26,4.21,4.21,0,0,1,.26,1.57,4,4,0,0,1-.52,2,3.33,3.33,0,0,1-1.52,1.37l-.48-1.2a2.59,2.59,0,0,0,1.07-.92,2.51,2.51,0,0,0,.4-1.37,2.57,2.57,0,0,0-.2-1,2.76,2.76,0,0,0-.52-.84,2.54,2.54,0,0,0-.8-.57,2.38,2.38,0,0,0-1-.21,2.58,2.58,0,0,0-1.09.2,2.62,2.62,0,0,0-1.42,1.5,3.42,3.42,0,0,0-.2,1.17,4.82,4.82,0,0,0,.16,1.25,5.85,5.85,0,0,0,.45,1.19l-5.87-.15,0-6Z"/><path d="M191.73,192.54l0,7.48h-1.33l-4.56-4.72-.54-.53a5.58,5.58,0,0,0-.6-.49,3.56,3.56,0,0,0-.67-.35,2,2,0,0,0-.74-.14,1.9,1.9,0,0,0-.83.17,1.86,1.86,0,0,0-.63.49,2.17,2.17,0,0,0-.39.72,2.58,2.58,0,0,0-.14.88,2.44,2.44,0,0,0,.46,1.53,2.18,2.18,0,0,0,1.29.83l-.13,1.26a3.17,3.17,0,0,1-2-1.22,3.74,3.74,0,0,1-.7-2.32,4.89,4.89,0,0,1,.19-1.35,3.42,3.42,0,0,1,.56-1.13,2.78,2.78,0,0,1,.93-.77,2.67,2.67,0,0,1,1.29-.29,3.6,3.6,0,0,1,1.2.22,4.58,4.58,0,0,1,1,.55,6.36,6.36,0,0,1,.9.76c.29.28.57.58.84.88l3.51,3.73.05-6.18Z"/><path d="M186,185.72l-.84,0-.83.06v-1.18h1.14v0a2.54,2.54,0,0,1-1-1.11,3.14,3.14,0,0,1-.32-1.4,4.18,4.18,0,0,1,.06-.68,3,3,0,0,1,.24-.69,2.08,2.08,0,0,1,.48-.61,2.31,2.31,0,0,1,.78-.49,2.49,2.49,0,0,1-1.12-1.06,3,3,0,0,1-.41-1.51,2.89,2.89,0,0,1,.78-2.2,3,3,0,0,1,2.17-.7l4.75,0v1.1l-4.37,0a3.07,3.07,0,0,0-1.74.4,1.72,1.72,0,0,0-.62,1.54,2.12,2.12,0,0,0,.22,1,1.93,1.93,0,0,0,.62.68,2.64,2.64,0,0,0,.87.38,4.17,4.17,0,0,0,1,.12l4,0v1.1l-4.37,0a3.09,3.09,0,0,0-1.75.4,1.75,1.75,0,0,0-.62,1.54,3.74,3.74,0,0,0,.06.46,1.91,1.91,0,0,0,.35.74,2.58,2.58,0,0,0,.86.69,3.36,3.36,0,0,0,1.6.32l3.84,0v1.1Z"/><path d="M186.05,171.57l-.83,0-.83,0v-1.18h1.13v0a2.58,2.58,0,0,1-1-1.11,3.3,3.3,0,0,1-.33-1.41,5.66,5.66,0,0,1,.07-.67,2.82,2.82,0,0,1,.24-.69,2.26,2.26,0,0,1,.47-.62,2.64,2.64,0,0,1,.79-.48,2.53,2.53,0,0,1-1.13-1.07,3.32,3.32,0,0,1,.37-3.71,3.11,3.11,0,0,1,2.18-.7l4.75,0v1.09l-4.37,0a3,3,0,0,0-1.74.41,1.72,1.72,0,0,0-.62,1.54,2,2,0,0,0,.22,1,2,2,0,0,0,.61.68,2.84,2.84,0,0,0,.87.38,4.31,4.31,0,0,0,1,.12l4,0v1.09l-4.36,0a3.08,3.08,0,0,0-1.75.41,1.73,1.73,0,0,0-.62,1.54,3.67,3.67,0,0,0,.06.45,1.81,1.81,0,0,0,.35.75,2.71,2.71,0,0,0,.86.69,3.33,3.33,0,0,0,1.6.32l3.84,0v1.09Z"/></g><line class="cls-3" x1="150" y1="217" x2="141.13" y2="217"/><line class="cls-3" x1="150" y1="182.9" x2="141.13" y2="182.9"/><line class="cls-3" x1="158.86" y1="182.9" x2="150" y2="182.9"/><line class="cls-3" x1="158.86" y1="217" x2="150" y2="217"/><line class="cls-3" x1="141.13" y1="217" x2="141.13" y2="182.9"/><line class="cls-3" x1="158.86" y1="217" x2="158.86" y2="182.9"/><line class="cls-3" x1="158.63" y1="182.9" x2="150" y2="182.9"/><line class="cls-3" x1="150" y1="182.9" x2="141.36" y2="182.9"/><line class="cls-3" x1="150.4" y1="182.36" x2="150.4" y2="181.77"/><polyline class="cls-3" points="150.4 181.77 150.31 181.52 150.08 181.38 149.81 181.42 149.63 181.62 149.6 181.77"/><line class="cls-3" x1="149.6" y1="182.36" x2="149.6" y2="181.77"/><line class="cls-3" x1="150.4" y1="182.36" x2="150.4" y2="182.9"/><line class="cls-3" x1="149.6" y1="182.36" x2="149.6" y2="182.9"/><line class="cls-4" x1="148.91" y1="181.77" x2="149.6" y2="181.77"/><line class="cls-4" x1="150.4" y1="181.77" x2="151.09" y2="181.77"/><polyline class="cls-4" points="151.09 181.77 151.09 181.16 151.08 180.54 151.06 179.93 151.03 179.24 150.99 178.55 150.93 177.86 150.86 177.18 150.8 176.72 150.74 176.26 150.67 175.81 150.59 175.35 150.48 174.75 150.36 174.15 150.22 173.55 150.06 172.9 150 172.68"/><polyline class="cls-4" points="150 172.68 149.87 173.17 149.78 173.54 149.69 173.91 149.59 174.36 149.5 174.81 149.42 175.27 149.34 175.72 149.27 176.17 149.21 176.63 149.15 177.09 149.1 177.54 149.04 178.15 148.99 178.77 148.96 179.38 148.92 180.18 148.91 180.97 148.91 181.77"/><line class="cls-4" x1="148.8" y1="181.77" x2="148.91" y2="181.77"/><polyline class="cls-4" points="149.89 172.67 149.9 172.66 149.95 172.67 150 172.68"/><line class="cls-4" x1="151.2" y1="181.77" x2="151.09" y2="181.77"/><polyline class="cls-4" points="150.11 172.67 150.1 172.66 150.05 172.67 150 172.68"/><line class="cls-3" x1="148.92" y1="182.9" x2="148.91" y2="181.77"/><line class="cls-3" x1="151.09" y1="181.77" x2="151.08" y2="182.9"/><polyline class="cls-3" points="148.79 181.77 148.79 181 148.81 180.23 148.84 179.46 148.88 178.7 148.95 177.93 149.03 177.17 149.07 176.78 149.12 176.4 149.18 176.03 149.24 175.65 149.3 175.27 149.38 174.89 149.45 174.52 149.53 174.14 149.61 173.77 149.7 173.4 149.79 173.03 149.89 172.67"/><polyline class="cls-3" points="150.11 172.67 150.21 173.03 150.3 173.4 150.39 173.77 150.47 174.14 150.55 174.52 150.62 174.89 150.69 175.27 150.76 175.65 150.81 176.03 150.87 176.4 150.92 176.78 150.97 177.17 151.05 177.93 151.11 178.7 151.16 179.46 151.19 180.23 151.2 181 151.2 181.77"/><polyline class="cls-3" points="150.11 172.67 150.08 172.57 150.05 172.5 150.03 172.45 150.02 172.44 150.01 172.42 150 172.42 149.99 172.42 149.98 172.42 149.97 172.44 149.96 172.45 149.94 172.5 149.91 172.57 149.89 172.67"/><line class="cls-4" x1="153.78" y1="217" x2="153.78" y2="217.34"/><line class="cls-3" x1="157.95" y1="217.34" x2="153.78" y2="217.34"/><line class="cls-3" x1="153.78" y1="217.34" x2="152.44" y2="217.34"/><line class="cls-3" x1="157.95" y1="217.34" x2="157.95" y2="217"/><line class="cls-3" x1="152.44" y1="217.34" x2="152.44" y2="217"/><line class="cls-4" x1="146.21" y1="217" x2="146.21" y2="217.34"/><line class="cls-3" x1="146.21" y1="217.34" x2="142.04" y2="217.34"/><line class="cls-3" x1="147.56" y1="217.34" x2="146.21" y2="217.34"/><line class="cls-3" x1="142.04" y1="217.34" x2="142.04" y2="217"/><line class="cls-3" x1="147.56" y1="217.34" x2="147.56" y2="217"/><line class="cls-3" x1="147.56" y1="217.34" x2="147.56" y2="217"/><polyline class="cls-3" points="151.6 182.69 151.74 182.64 151.9 182.59 152.07 182.54 152.24 182.51 152.38 182.48 152.53 182.46 152.88 182.42 153.24 182.4"/><polyline class="cls-3" points="151.28 182.9 151.34 182.85 151.41 182.8 151.48 182.76 151.6 182.69"/><polyline class="cls-3" points="162.9 75.19 162.36 75 161.77 74.81 161.41 74.7 161.01 74.58 160.43 74.42 159.9 74.29 159.37 74.17 158.84 74.06 158.2 73.94 157.55 73.83 156.9 73.73 156.25 73.64 155.6 73.56 154.94 73.49 154.3 73.44 153.67 73.39 152.81 73.33 151.97 73.3 151.12 73.28 150.28 73.27 150 73.27"/><polyline class="cls-3" points="166.84 77.07 166.46 76.85 166.18 76.69 165.68 76.42 165.28 76.21 164.88 76.01 164.47 75.83 164.06 75.65 163.54 75.43 163.25 75.32 162.9 75.19"/><polyline class="cls-3" points="168.62 78.32 168.4 78.14 168.17 77.97 167.94 77.81 167.71 77.64 167.47 77.48 167.24 77.33 167 77.18 166.84 77.07"/><polyline class="cls-3" points="170.26 79.76 170.06 79.56 169.85 79.37 169.64 79.18 169.43 78.98 169.21 78.8 169 78.62 168.78 78.44 168.62 78.32"/><polyline class="cls-3" points="172.36 82.22 172.07 81.83 171.77 81.45 171.47 81.08 171.15 80.71 170.94 80.47 170.72 80.23 170.49 79.99 170.26 79.76"/><polyline class="cls-3" points="172.99 83.15 172.84 82.91 172.68 82.68 172.52 82.44 172.36 82.22"/><polyline class="cls-3" points="175.03 87 174.85 86.59 174.68 86.2 174.5 85.83 174.32 85.47 174.02 84.89 173.85 84.6 173.69 84.3 173.52 84.01 173.35 83.72 173.18 83.43 172.99 83.15"/><polyline class="cls-3" points="176.54 91.09 176.27 90.26 176.13 89.84 175.99 89.42 175.84 89 175.6 88.39 175.37 87.79 175.21 87.4 175.03 87"/><polyline class="cls-3" points="177.68 95.31 177.52 94.65 177.36 94 177.24 93.56 177.03 92.75 176.85 92.15 176.67 91.52 176.54 91.09"/><polyline class="cls-3" points="178.53 99.59 178.38 98.75 178.18 97.69 177.96 96.6 177.77 95.73 177.68 95.31"/><polyline class="cls-3" points="180.23 116.98 180.16 115.44 180.09 114.15 179.99 112.54 179.88 111 179.81 110.11 179.72 109.02 179.62 107.93 179.48 106.54 179.43 106.07 179.31 104.97 179.21 104.18 179.06 103.07 178.9 101.92 178.71 100.65 178.53 99.59"/><polyline class="cls-3" points="180.49 125.7 180.44 123.2 180.41 121.9 180.37 120.58 180.31 118.85 180.23 116.98"/><line class="cls-3" x1="180.49" y1="125.71" x2="180.49" y2="125.7"/><polyline class="cls-3" points="180.56 130.08 180.56 129.8 180.56 129.51 180.55 129.23 180.55 128.94 180.54 128.66 180.54 128.38 180.53 128.09 180.53 127.81 180.53 127.53 180.52 127.24 180.52 126.96 180.52 126.67 180.51 126.39 180.5 126.11 180.5 125.82 180.49 125.71"/><polyline class="cls-3" points="180.29 143.18 180.37 141.89 180.42 140.89 180.46 139.9 180.49 139.25 180.52 137.97 180.54 137.14 180.57 135.54 180.58 134.35 180.58 133.71 180.58 131.86 180.56 130.08"/><line class="cls-3" x1="180.29" y1="143.18" x2="180.29" y2="143.18"/><polyline class="cls-3" points="179.26 151.84 179.4 151.06 179.52 150.25 179.68 149.22 179.82 148.09 179.95 147.04 180.02 146.41 180.08 145.78 180.16 144.91 180.23 144.03 180.29 143.18"/><polyline class="cls-3" points="177.1 160.27 177.36 159.48 177.63 158.63 177.73 158.32 177.97 157.51 178.13 156.91 178.33 156.14 178.54 155.29 178.77 154.3 178.95 153.46 179.06 152.94 179.16 152.4 179.26 151.84"/><polyline class="cls-3" points="173.56 168.16 173.78 167.78 173.98 167.4 174.29 166.83 174.59 166.25 174.78 165.86 175.15 165.1 175.5 164.32 175.85 163.53 176.18 162.74 176.49 161.94 176.79 161.13 177.1 160.27"/><polyline class="cls-3" points="172.44 170.02 172.59 169.78 172.74 169.54 172.89 169.3 173.04 169.06 173.19 168.81 173.33 168.56 173.47 168.32 173.56 168.16"/><polyline class="cls-3" points="168.44 175.08 168.52 175 168.59 174.92 168.66 174.85 168.74 174.77 168.81 174.7 168.88 174.62 168.95 174.54 169.03 174.46 169.1 174.38 169.17 174.3 169.24 174.22 169.31 174.15 169.38 174.07 169.46 173.99 169.52 173.91 169.59 173.82 169.67 173.74 169.74 173.66 169.81 173.58 169.88 173.5 169.94 173.41 170.01 173.33 170.08 173.25 170.15 173.16 170.22 173.08 170.29 172.99 170.36 172.91 170.43 172.82 170.5 172.74 170.56 172.65 170.63 172.56 170.7 172.48 170.76 172.39 170.83 172.3 170.9 172.22 170.97 172.13 171.03 172.04 171.1 171.95 171.17 171.86 171.23 171.77 171.3 171.68 171.36 171.59 171.43 171.5 171.5 171.41 171.56 171.32 171.63 171.23 171.69 171.13 171.75 171.04 171.82 170.94 171.88 170.85 171.95 170.76 172.01 170.66 172.07 170.57 172.14 170.48 172.2 170.38 172.27 170.29 172.33 170.19 172.39 170.09 172.44 170.02"/><polyline class="cls-3" points="165.21 177.91 165.38 177.78 165.55 177.65 165.72 177.52 165.89 177.38 166.06 177.25 166.23 177.11 166.4 176.97 166.56 176.83 166.73 176.69 166.9 176.55 167.06 176.4 167.23 176.26 167.39 176.1 167.55 175.95 167.71 175.8 167.87 175.65 168.03 175.49 168.19 175.33 168.34 175.18 168.44 175.08"/><polyline class="cls-3" points="161.53 180.14 161.96 179.92 162.38 179.7 162.78 179.48 163.15 179.27 163.5 179.06 163.84 178.85 164.19 178.62 164.55 178.38 164.88 178.15 165.21 177.91"/><polyline class="cls-3" points="157.5 181.65 157.89 181.54 158.26 181.43 158.66 181.3 159.1 181.15 159.5 181.01 159.89 180.86 160.27 180.71 160.67 180.54 161.2 180.3 161.53 180.14"/><polyline class="cls-3" points="153.24 182.4 153.87 182.33 154.52 182.25 154.95 182.19 155.37 182.12 155.79 182.04 156.22 181.96 156.67 181.86 157.1 181.75 157.5 181.65"/><line class="cls-4" x1="151.6" y1="182.7" x2="151.61" y2="182.69"/><polyline class="cls-3" points="151.6 182.7 151.75 182.63 151.89 182.59 152.09 182.53 152.21 182.51 152.37 182.48 152.54 182.46 152.89 182.42 153.23 182.4"/><polyline class="cls-3" points="151.6 182.7 151.46 182.77 151.34 182.85 151.28 182.9"/><polyline class="cls-3" points="148.39 182.69 148.53 182.77 148.59 182.81 148.66 182.85 148.72 182.9"/><polyline class="cls-3" points="146.76 182.4 147.01 182.41 147.24 182.43 147.45 182.46 147.74 182.5 147.9 182.53 148.09 182.59 148.16 182.6 148.31 182.66 148.39 182.69"/><polyline class="cls-3" points="146.77 182.4 147.11 182.42 147.29 182.44 147.47 182.46 147.65 182.49 147.89 182.53 147.97 182.55 148.1 182.59 148.25 182.63 148.4 182.7"/><polyline class="cls-3" points="148.72 182.9 148.62 182.82 148.49 182.74 148.4 182.7"/><polyline class="cls-3" points="142.5 181.65 143.11 181.81 143.31 181.85 143.75 181.95 144.19 182.04 144.62 182.12 145.15 182.21 145.68 182.28 146.22 182.34 146.76 182.4"/><polyline class="cls-3" points="138.47 180.14 138.87 180.33 139.27 180.51 139.68 180.69 140.08 180.85 140.5 181.01 140.92 181.16 141.33 181.3 141.74 181.43 142.12 181.54 142.5 181.65"/><polyline class="cls-3" points="134.79 177.91 134.97 178.04 135.48 178.4 135.8 178.62 136.32 178.95 136.51 179.07 136.89 179.3 137.28 179.52 137.68 179.74 138.07 179.94 138.47 180.14"/><polyline class="cls-3" points="131.55 175.08 131.82 175.35 132.11 175.63 132.41 175.92 132.74 176.22 133.08 176.52 133.41 176.81 133.73 177.09 134.08 177.36 134.43 177.64 134.79 177.91"/><polyline class="cls-3" points="128.81 171.84 129.21 172.36 129.6 172.86 129.98 173.33 130.39 173.8 130.82 174.3 131.26 174.78 131.55 175.08"/><polyline class="cls-3" points="126.43 168.16 126.57 168.4 126.7 168.64 126.84 168.86 126.98 169.1 127.12 169.33 127.26 169.55 127.4 169.77 127.54 170 127.69 170.22 127.83 170.44 127.98 170.66 128.12 170.87 128.27 171.09 128.42 171.3 128.57 171.5 128.72 171.71 128.81 171.84"/><polyline class="cls-3" points="122.9 160.27 123.19 161.08 123.34 161.49 123.56 162.1 123.81 162.7 124.14 163.49 124.49 164.31 124.86 165.13 125.15 165.74 125.39 166.23 125.64 166.7 126.03 167.43 126.43 168.16"/><polyline class="cls-3" points="120.73 151.84 120.87 152.58 121.04 153.42 121.18 154.09 121.36 154.88 121.54 155.63 121.76 156.51 122.01 157.42 122.13 157.85 122.39 158.72 122.57 159.28 122.84 160.11 122.9 160.27"/><polyline class="cls-3" points="119.7 143.18 119.75 143.87 119.81 144.54 119.86 145.18 119.92 145.8 120 146.67 120.1 147.54 120.21 148.41 120.36 149.52 120.46 150.19 120.55 150.76 120.69 151.59 120.73 151.84"/><polyline class="cls-3" points="119.44 130.08 119.43 131.15 119.42 132.6 119.42 134.05 119.43 135.78 119.46 137.26 119.49 138.56 119.53 139.87 119.58 140.97 119.64 142.08 119.7 143.18"/><polyline class="cls-3" points="119.5 125.72 119.5 126 119.49 126.28 119.48 126.57 119.48 126.85 119.48 127.14 119.47 127.42 119.47 127.71 119.46 127.99 119.46 128.27 119.46 128.56 119.45 128.84 119.45 129.13 119.44 129.41 119.44 129.7 119.44 129.98 119.44 130.08"/><line class="cls-3" x1="119.5" y1="125.71" x2="119.5" y2="125.72"/><polyline class="cls-3" points="119.76 116.98 119.68 118.99 119.62 120.67 119.58 121.96 119.54 123.69 119.5 125.71"/><polyline class="cls-3" points="121.47 99.59 121.27 100.78 121.14 101.64 121.01 102.52 120.83 103.87 120.69 104.96 120.6 105.75 120.49 106.82 120.36 108.08 120.23 109.62 120.1 111.21 120.03 112.25 119.92 113.88 119.84 115.47 119.76 116.98"/><line class="cls-3" x1="121.47" y1="99.56" x2="121.47" y2="99.6"/><polyline class="cls-3" points="122.32 95.31 122.13 96.16 121.94 97.1 121.76 97.95 121.61 98.76 121.47 99.56"/><line class="cls-3" x1="122.33" y1="95.27" x2="122.32" y2="95.31"/><polyline class="cls-3" points="123.45 91.09 123.19 91.99 123.02 92.57 122.81 93.34 122.61 94.12 122.42 94.87 122.33 95.27"/><polyline class="cls-3" points="124.96 87 124.78 87.42 124.6 87.85 124.44 88.26 124.29 88.66 124 89.46 123.85 89.88 123.71 90.3 123.45 91.09"/><polyline class="cls-3" points="127 83.15 126.77 83.51 126.56 83.87 126.25 84.4 126.14 84.59 125.86 85.11 125.59 85.64 125.34 86.17 125.15 86.57 124.96 87"/><polyline class="cls-3" points="129.74 79.76 129.58 79.92 129.43 80.07 129.28 80.23 129.13 80.39 128.98 80.56 128.83 80.73 128.68 80.9 128.54 81.06 128.4 81.24 128.25 81.41 128.11 81.59 127.98 81.77 127.84 81.95 127.7 82.14 127.57 82.32 127.44 82.51 127.3 82.7 127.17 82.89 127.05 83.08 127 83.15"/><polyline class="cls-3" points="131.37 78.32 131.15 78.49 130.93 78.67 130.71 78.86 130.5 79.04 130.29 79.24 130.08 79.43 129.87 79.62 129.74 79.76"/><polyline class="cls-3" points="133.16 77.07 132.92 77.22 132.68 77.38 132.45 77.53 132.21 77.7 131.98 77.86 131.75 78.03 131.52 78.2 131.37 78.32"/><polyline class="cls-3" points="136.08 75.59 135.88 75.67 135.68 75.76 135.48 75.85 135.28 75.94 135.09 76.03 134.9 76.12 134.7 76.22 134.51 76.31 134.33 76.41 134.14 76.51 133.96 76.61 133.77 76.71 133.59 76.81 133.41 76.92 133.24 77.03 133.16 77.07"/><polyline class="cls-3" points="137.1 75.19 136.83 75.29 136.56 75.39 136.3 75.49 136.08 75.59"/><polyline class="cls-3" points="143.46 73.67 142.81 73.77 142.1 73.88 141.57 73.98 141.05 74.08 140.72 74.15 140.25 74.25 139.78 74.37 139.46 74.45 138.85 74.62 138.27 74.79 137.83 74.94 137.39 75.08 137.1 75.19"/><polyline class="cls-3" points="150 73.27 149.18 73.27 148.36 73.29 147.54 73.32 146.72 73.36 146.06 73.41 145.41 73.46 144.76 73.52 144.1 73.59 143.46 73.67"/><polyline class="cls-3" points="162.89 75.2 162.57 75.08 162.25 74.97 161.64 74.78 161.3 74.67 160.96 74.58 160.48 74.44 159.97 74.32 159.45 74.2 158.71 74.04 158.24 73.95 157.85 73.88 157.45 73.81 156.73 73.7 156.04 73.61 155.41 73.54 154.97 73.49 154.1 73.42 153.72 73.39 153.12 73.35 152.56 73.32 151.72 73.29 151.11 73.28 150.56 73.27 150 73.27"/><polyline class="cls-3" points="166.81 77.09 166.64 76.98 166.46 76.87 166.28 76.77 166.09 76.66 165.91 76.56 165.73 76.46 165.54 76.36 165.34 76.26 165.16 76.17 164.96 76.07 164.77 75.98 164.57 75.89 164.37 75.8 164.18 75.71 163.98 75.62 163.77 75.54 163.57 75.46 163.36 75.38 163.16 75.3 162.95 75.22 162.89 75.2"/><polyline class="cls-3" points="168.6 78.33 168.38 78.16 168.15 77.99 167.92 77.83 167.69 77.66 167.45 77.5 167.22 77.34 166.98 77.19 166.81 77.09"/><polyline class="cls-3" points="170.23 79.78 170.03 79.58 169.82 79.39 169.61 79.19 169.4 79 169.19 78.82 168.97 78.63 168.75 78.45 168.6 78.33"/><polyline class="cls-3" points="172.32 82.25 172.19 82.07 172.06 81.89 171.92 81.71 171.79 81.54 171.65 81.37 171.52 81.2 171.37 81.03 171.23 80.86 171.09 80.7 170.94 80.54 170.8 80.38 170.66 80.22 170.51 80.07 170.36 79.91 170.23 79.78"/><polyline class="cls-3" points="172.95 83.18 172.8 82.94 172.64 82.7 172.48 82.47 172.32 82.25"/><polyline class="cls-3" points="174.99 87.03 174.82 86.65 174.65 86.28 174.48 85.91 174.3 85.54 174.1 85.17 173.89 84.76 173.66 84.36 173.42 83.94 173.18 83.54 172.95 83.18"/><polyline class="cls-3" points="176.48 91.12 176.27 90.46 176.07 89.85 175.88 89.3 175.68 88.75 175.52 88.34 175.35 87.91 175.17 87.47 174.99 87.03"/><polyline class="cls-3" points="177.61 95.34 177.44 94.62 177.28 93.96 177.13 93.39 176.98 92.84 176.78 92.1 176.53 91.28 176.48 91.12"/><polyline class="cls-3" points="178.46 99.58 178.27 98.52 178.06 97.45 177.84 96.39 177.61 95.34"/><line class="cls-3" x1="178.47" y1="99.61" x2="178.46" y2="99.58"/><polyline class="cls-3" points="180.16 116.99 180.07 115.24 179.97 113.5 179.86 111.76 179.79 110.86 179.73 109.97 179.65 109.12 179.58 108.27 179.44 106.83 179.28 105.38 179.2 104.66 179.1 103.94 178.96 102.85 178.81 101.77 178.64 100.69 178.47 99.61"/><polyline class="cls-3" points="180.42 125.7 180.39 124.25 180.36 122.8 180.3 120.86 180.24 118.92 180.16 116.99"/><line class="cls-3" x1="180.42" y1="125.72" x2="180.42" y2="125.7"/><polyline class="cls-3" points="180.48 130.08 180.48 129.8 180.48 129.51 180.48 129.23 180.47 128.95 180.47 128.66 180.46 128.38 180.46 128.09 180.46 127.81 180.45 127.53 180.45 127.25 180.44 126.96 180.44 126.68 180.43 126.39 180.43 126.11 180.42 125.82 180.42 125.72"/><polyline class="cls-3" points="180.22 143.18 180.28 142.07 180.34 141.02 180.38 140.2 180.41 139.41 180.44 138.24 180.47 137.01 180.49 135.23 180.5 133.51 180.5 132.37 180.49 131.23 180.48 130.08"/><polyline class="cls-3" points="179.19 151.83 179.29 151.25 179.39 150.67 179.48 150.07 179.56 149.49 179.67 148.71 179.77 147.95 179.89 146.89 180.01 145.76 180.09 144.82 180.16 144 180.22 143.18"/><polyline class="cls-3" points="177.04 160.25 177.07 160.16 177.1 160.08 177.13 159.98 177.16 159.9 177.19 159.81 177.22 159.72 177.25 159.63 177.28 159.54 177.31 159.45 177.34 159.36 177.36 159.27 177.39 159.18 177.42 159.09 177.45 159 177.48 158.91 177.5 158.82 177.53 158.73 177.56 158.64 177.59 158.54 177.62 158.45 177.64 158.36 177.67 158.27 177.7 158.18 177.72 158.09 177.75 158 177.78 157.9 177.81 157.81 177.83 157.72 177.86 157.63 177.89 157.53 177.91 157.44 177.94 157.35 177.97 157.26 177.99 157.16 178.02 157.07 178.04 156.98 178.06 156.88 178.09 156.79 178.12 156.7 178.14 156.6 178.17 156.51 178.19 156.41 178.21 156.32 178.24 156.23 178.26 156.13 178.29 156.04 178.31 155.94 178.33 155.85 178.36 155.75 178.38 155.66 178.41 155.56 178.43 155.47 178.45 155.37 178.47 155.28 178.5 155.18 178.52 155.08 178.54 154.99 178.56 154.89 178.59 154.8 178.61 154.7 178.63 154.6 178.65 154.51 178.68 154.41 178.69 154.31 178.72 154.22 178.74 154.12 178.76 154.02 178.78 153.93 178.8 153.83 178.82 153.73 178.84 153.63 178.86 153.53 178.88 153.44 178.9 153.34 178.92 153.24 178.94 153.15 178.96 153.04 178.98 152.94 179 152.85 179.02 152.75 179.04 152.65 179.06 152.55 179.08 152.45 179.1 152.35 179.12 152.25 179.13 152.15 179.15 152.05 179.17 151.95 179.19 151.85 179.19 151.83"/><polyline class="cls-3" points="173.51 168.15 173.74 167.75 173.96 167.35 174.17 166.95 174.37 166.55 174.77 165.77 175.12 165.02 175.46 164.27 175.78 163.52 176.08 162.81 176.37 162.08 176.66 161.32 176.94 160.54 177.04 160.25"/><polyline class="cls-3" points="168.41 175.06 168.48 174.99 168.56 174.91 168.63 174.84 168.7 174.76 168.77 174.68 168.84 174.6 168.92 174.53 168.99 174.45 169.06 174.37 169.13 174.3 169.2 174.22 169.27 174.14 169.34 174.06 169.41 173.98 169.48 173.9 169.56 173.81 169.62 173.73 169.69 173.65 169.76 173.57 169.83 173.49 169.9 173.41 169.97 173.32 170.03 173.24 170.1 173.16 170.17 173.08 170.24 172.99 170.31 172.91 170.38 172.82 170.44 172.74 170.51 172.65 170.58 172.57 170.64 172.48 170.71 172.39 170.78 172.31 170.85 172.22 170.91 172.13 170.98 172.04 171.04 171.96 171.11 171.87 171.17 171.78 171.24 171.69 171.31 171.6 171.37 171.51 171.44 171.42 171.5 171.33 171.56 171.24 171.63 171.15 171.69 171.05 171.75 170.96 171.82 170.87 171.88 170.78 171.94 170.68 172.01 170.59 172.07 170.49 172.13 170.4 172.2 170.31 172.26 170.21 172.32 170.11 172.38 170.02 172.44 169.92 172.5 169.83 172.56 169.73 172.63 169.63 172.69 169.54 172.75 169.44 172.81 169.34 172.87 169.24 172.93 169.14 172.99 169.04 173.05 168.94 173.11 168.84 173.17 168.74 173.23 168.64 173.29 168.54 173.35 168.44 173.4 168.34 173.46 168.24 173.51 168.15"/><polyline class="cls-3" points="165.18 177.9 165.35 177.77 165.52 177.64 165.69 177.51 165.86 177.38 166.02 177.25 166.19 177.11 166.35 176.97 166.52 176.84 166.68 176.7 166.84 176.56 167 176.41 167.17 176.27 167.33 176.12 167.49 175.97 167.65 175.82 167.8 175.67 167.96 175.51 168.12 175.36 168.27 175.21 168.41 175.06"/><polyline class="cls-3" points="161.51 180.13 161.75 180.02 161.99 179.9 162.22 179.77 162.45 179.65 162.68 179.52 162.91 179.39 163.14 179.25 163.37 179.11 163.6 178.97 163.83 178.83 164.05 178.69 164.27 178.54 164.5 178.39 164.72 178.23 164.94 178.08 165.16 177.92 165.18 177.9"/><polyline class="cls-3" points="157.48 181.65 157.76 181.57 158.02 181.49 158.3 181.41 158.56 181.32 158.83 181.24 159.1 181.14 159.36 181.05 159.63 180.95 159.89 180.85 160.15 180.75 160.41 180.64 160.67 180.53 160.92 180.41 161.18 180.3 161.43 180.18 161.51 180.13"/><polyline class="cls-3" points="153.23 182.4 153.46 182.37 153.69 182.35 153.92 182.33 154.15 182.3 154.38 182.27 154.61 182.24 154.83 182.21 155.06 182.17 155.28 182.13 155.51 182.09 155.73 182.05 155.95 182.01 156.17 181.96 156.39 181.92 156.61 181.86 156.83 181.82 157.05 181.76 157.26 181.71 157.48 181.65 157.48 181.65"/><line class="cls-4" x1="148.39" y1="182.69" x2="148.4" y2="182.7"/><polyline class="cls-3" points="150 73.27 149.04 73.28 148.55 73.28 148.05 73.3 147.37 73.33 146.68 73.36 146 73.41 145.18 73.48 144.38 73.56 144.07 73.6 143.45 73.68"/><polyline class="cls-3" points="143.45 73.68 142.82 73.77 142.18 73.88 141.53 73.99 140.9 74.12 140.49 74.21 139.92 74.34 139.53 74.44 139.15 74.55 138.71 74.67 138.13 74.85 137.66 75 137.1 75.2"/><polyline class="cls-3" points="137.1 75.2 136.84 75.3 136.57 75.4 136.31 75.5 136.06 75.61"/><polyline class="cls-3" points="136.06 75.61 135.86 75.69 135.67 75.78 135.48 75.86 135.28 75.95 135.1 76.05 134.91 76.13 134.72 76.23 134.53 76.32 134.35 76.42 134.17 76.51 133.99 76.61 133.81 76.71 133.63 76.82 133.46 76.92 133.28 77.03 133.18 77.09"/><polyline class="cls-3" points="133.18 77.09 132.94 77.24 132.7 77.39 132.47 77.55 132.23 77.71 132 77.88 131.77 78.05 131.54 78.22 131.4 78.33"/><polyline class="cls-3" points="131.4 78.33 131.17 78.52 130.95 78.69 130.74 78.88 130.53 79.07 130.31 79.25 130.1 79.45 129.9 79.65 129.76 79.78"/><polyline class="cls-3" points="129.76 79.78 129.61 79.94 129.46 80.09 129.31 80.25 129.16 80.41 129.01 80.58 128.87 80.74 128.72 80.91 128.58 81.08 128.44 81.25 128.3 81.42 128.16 81.6 128.02 81.78 127.89 81.96 127.75 82.14 127.62 82.32 127.49 82.51 127.36 82.7 127.23 82.89 127.11 83.08 127.04 83.18"/><polyline class="cls-3" points="127.04 83.18 126.81 83.54 126.6 83.89 126.4 84.24 126.2 84.58 125.9 85.15 125.59 85.77 125.39 86.19 125.19 86.62 125.01 87.03"/><polyline class="cls-3" points="125.01 87.03 124.78 87.58 124.56 88.13 124.35 88.67 124.2 89.06 124.06 89.46 123.79 90.26 123.51 91.12"/><polyline class="cls-3" points="123.51 91.12 123.25 92 123.01 92.83 122.86 93.42 122.7 94.03 122.54 94.67 122.38 95.34"/><polyline class="cls-3" points="122.38 95.34 122.15 96.4 121.93 97.47 121.72 98.54 121.53 99.61"/><polyline class="cls-3" points="121.53 99.61 121.37 100.58 121.22 101.56 121.08 102.53 120.98 103.25 120.89 103.96 120.8 104.71 120.71 105.45 120.61 106.29 120.49 107.52 120.37 108.79 120.26 110.08 120.19 110.96 120.13 111.84 120.07 112.8 120 113.75 119.91 115.39 119.84 116.99"/><polyline class="cls-3" points="119.84 116.99 119.76 118.93 119.69 120.87 119.64 122.81 119.61 124.26 119.58 125.72"/><line class="cls-3" x1="119.58" y1="125.72" x2="119.58" y2="125.75"/><polyline class="cls-3" points="119.58 125.75 119.57 126.03 119.56 126.31 119.56 126.6 119.56 126.88 119.55 127.17 119.54 127.45 119.54 127.74 119.54 128.02 119.53 128.3 119.53 128.59 119.52 128.87 119.52 129.16 119.52 129.44 119.52 129.73 119.51 130.01 119.51 130.08"/><polyline class="cls-3" points="119.51 130.08 119.5 132.39 119.5 134.12 119.5 135.28 119.52 136.49 119.54 137.43 119.57 138.78 119.61 139.93 119.65 140.88 119.7 141.82 119.77 142.99 119.78 143.18"/><polyline class="cls-3" points="119.78 143.18 119.83 143.87 119.89 144.59 119.97 145.49 120.05 146.4 120.12 147.04 120.19 147.66 120.29 148.44 120.34 148.85 120.48 149.85 120.64 150.84 120.81 151.83"/><polyline class="cls-3" points="120.81 151.83 120.82 151.93 120.84 152.03 120.86 152.13 120.88 152.23 120.89 152.33 120.92 152.43 120.93 152.53 120.95 152.62 120.97 152.72 120.99 152.82 121.01 152.92 121.03 153.02 121.05 153.11 121.07 153.21 121.09 153.31 121.11 153.41 121.13 153.5 121.15 153.6 121.17 153.7 121.19 153.79 121.21 153.89 121.23 153.99 121.25 154.09 121.27 154.18 121.29 154.28 121.31 154.38 121.34 154.47 121.36 154.57 121.38 154.66 121.4 154.76 121.42 154.85 121.44 154.95 121.47 155.04 121.49 155.14 121.51 155.23 121.53 155.33 121.56 155.43 121.58 155.52 121.6 155.61 121.63 155.71 121.65 155.8 121.67 155.9 121.7 155.99 121.72 156.08 121.75 156.18 121.77 156.27 121.79 156.37 121.82 156.46 121.84 156.55 121.87 156.64 121.89 156.74 121.91 156.83 121.94 156.93 121.97 157.02 121.99 157.11 122.02 157.2 122.04 157.29 122.07 157.39 122.09 157.48 122.12 157.57 122.15 157.66 122.17 157.75 122.2 157.85 122.23 157.94 122.25 158.03 122.28 158.12 122.31 158.21 122.33 158.3 122.36 158.39 122.39 158.48 122.42 158.57 122.44 158.66 122.47 158.75 122.5 158.84 122.53 158.93 122.56 159.03 122.58 159.11 122.61 159.2 122.64 159.29 122.67 159.38 122.7 159.47 122.73 159.56 122.76 159.65 122.78 159.74 122.82 159.83 122.84 159.92 122.88 160 122.9 160.09 122.93 160.18 122.96 160.25"/><polyline class="cls-3" points="122.96 160.25 123.18 160.89 123.4 161.5 123.61 162.05 123.83 162.6 124.07 163.19 124.33 163.82 124.71 164.66 124.9 165.08 125.1 165.5 125.3 165.91 125.51 166.32"/><polyline class="cls-3" points="125.51 166.32 125.63 166.57 125.77 166.83 125.89 167.08 126.03 167.33 126.17 167.58 126.3 167.83 126.44 168.08 126.48 168.15"/><polyline class="cls-3" points="126.48 168.15 126.54 168.25 126.6 168.35 126.66 168.45 126.72 168.56 126.78 168.66 126.84 168.76 126.9 168.86 126.96 168.96 127.02 169.06 127.08 169.16 127.14 169.26 127.2 169.36 127.26 169.46 127.32 169.56 127.38 169.66 127.44 169.75 127.51 169.85 127.57 169.95 127.63 170.05 127.69 170.14 127.75 170.24 127.82 170.33 127.88 170.43 127.94 170.52 128.01 170.62 128.07 170.71 128.14 170.81 128.2 170.9 128.26 170.99 128.33 171.09 128.39 171.18 128.46 171.27 128.52 171.36 128.59 171.45 128.65 171.54 128.72 171.63 128.78 171.73 128.85 171.81 128.91 171.91 128.98 172 129.05 172.08 129.11 172.17 129.18 172.26 129.25 172.35 129.31 172.44 129.38 172.52 129.45 172.61 129.52 172.69 129.59 172.78 129.66 172.87 129.72 172.95 129.79 173.04 129.86 173.12 129.93 173.2 130 173.29 130.07 173.37 130.14 173.46 130.21 173.54 130.28 173.62 130.35 173.7 130.42 173.79 130.49 173.87 130.56 173.95 130.63 174.03 130.7 174.11 130.77 174.19 130.84 174.27 130.91 174.35 130.99 174.43 131.06 174.5 131.13 174.59 131.2 174.66 131.28 174.74 131.35 174.81 131.42 174.89 131.49 174.97 131.57 175.04 131.58 175.06"/><polyline class="cls-3" points="131.58 175.06 131.78 175.27 131.99 175.47 132.19 175.66 132.37 175.84"/><polyline class="cls-3" points="132.37 175.84 132.53 175.99 132.68 176.13 132.84 176.28 133 176.42 133.16 176.56 133.32 176.7 133.48 176.84 133.65 176.98 133.81 177.11 133.97 177.25 134.13 177.38 134.3 177.51 134.46 177.63 134.63 177.76 134.79 177.88 134.81 177.9"/><polyline class="cls-3" points="134.81 177.9 135.03 178.06 135.25 178.21 135.47 178.37 135.69 178.52 135.92 178.67 136.14 178.81 136.37 178.96 136.59 179.1 136.82 179.24 137.05 179.37 137.28 179.5 137.51 179.63 137.75 179.76 137.98 179.88 138.22 180 138.45 180.12 138.48 180.13"/><polyline class="cls-3" points="138.48 180.13 138.74 180.25 138.99 180.37 139.24 180.49 139.5 180.6 139.76 180.71 140.02 180.81 140.28 180.91 140.54 181.01 140.8 181.11 141.07 181.2 141.34 181.29 141.61 181.38 141.88 181.46 142.15 181.54 142.42 181.62 142.51 181.65"/><polyline class="cls-3" points="142.51 181.65 142.73 181.7 142.94 181.76 143.16 181.81 143.38 181.86 143.59 181.91 143.82 181.96 144.04 182.01 144.26 182.05 144.48 182.09 144.7 182.13 144.93 182.17 145.15 182.2 145.38 182.24 145.61 182.27 145.83 182.3 146.06 182.32 146.29 182.35 146.52 182.37 146.75 182.4 146.77 182.4"/><line class="cls-4" x1="153.35" y1="217.37" x2="153.35" y2="216.96"/><line class="cls-4" x1="146.65" y1="217.37" x2="146.65" y2="216.96"/><line class="cls-4" x1="150.52" y1="181.77" x2="149.48" y2="181.77"/><line class="cls-3" x1="148.8" y1="181.77" x2="151.2" y2="181.77"/></svg>