<svg xmlns="http://www.w3.org/2000/svg" viewBox="0 0 300 263"><defs><style>.cls-1,.cls-2,.cls-3,.cls-4{fill:none;stroke-linecap:round;}.cls-1,.cls-2{stroke:red;}.cls-1,.cls-2,.cls-4{stroke-linejoin:round;}.cls-1,.cls-3,.cls-4{stroke-width:0.6px;}.cls-3,.cls-4{stroke:#000;}.cls-3{stroke-miterlimit:10;}</style></defs><title>serena-table-urquiola-flos-F65820-curva-fotometrica</title><g id="numeri_esterni_diagramma" data-name="numeri esterni diagramma"><path d="M148.27,239.2a6.85,6.85,0,0,1,.08-1,3.41,3.41,0,0,1,.3-.95,1.94,1.94,0,0,1,.59-.71,1.57,1.57,0,0,1,.95-.27,1.6,1.6,0,0,1,1,.27,2,2,0,0,1,.59.71,3.1,3.1,0,0,1,.29.95,5.7,5.7,0,0,1,.08,1,5.85,5.85,0,0,1-.08,1,3.13,3.13,0,0,1-.29.94,2,2,0,0,1-.59.71,1.6,1.6,0,0,1-1,.27,1.57,1.57,0,0,1-.95-.27,1.94,1.94,0,0,1-.59-.71,3.45,3.45,0,0,1-.3-.94A7.07,7.07,0,0,1,148.27,239.2Zm.68,0c0,.13,0,.29,0,.46a4.88,4.88,0,0,0,.06.52,2.83,2.83,0,0,0,.13.5,1.65,1.65,0,0,0,.22.44,1.24,1.24,0,0,0,.34.31,1,1,0,0,0,.48.12.9.9,0,0,0,.48-.12,1,1,0,0,0,.34-.31,1.41,1.41,0,0,0,.23-.44,4.07,4.07,0,0,0,.13-.5c0-.18,0-.35.06-.52s0-.33,0-.46,0-.3,0-.47,0-.34-.06-.51a3.8,3.8,0,0,0-.13-.51,1.53,1.53,0,0,0-.23-.44,1,1,0,0,0-.34-.31.9.9,0,0,0-.48-.12,1,1,0,0,0-.48.12,1.24,1.24,0,0,0-.34.31,1.81,1.81,0,0,0-.22.44,2.72,2.72,0,0,0-.13.51,4.43,4.43,0,0,0-.06.51C149,238.9,149,239.06,149,239.2Z"/><path d="M152.83,237.41a1.33,1.33,0,0,1,.08-.45,1.11,1.11,0,0,1,.25-.36,1,1,0,0,1,.36-.24,1.17,1.17,0,0,1,.9,0,1,1,0,0,1,.36.24,1.11,1.11,0,0,1,.25.36,1.31,1.31,0,0,1,0,.9,1.23,1.23,0,0,1-.61.61,1.17,1.17,0,0,1-.9,0,1.23,1.23,0,0,1-.61-.61A1.33,1.33,0,0,1,152.83,237.41Zm.43,0a.79.79,0,0,0,.05.25.68.68,0,0,0,.14.23.66.66,0,0,0,.23.17.73.73,0,0,0,.58,0,.76.76,0,0,0,.23-.17.88.88,0,0,0,.14-.23.65.65,0,0,0,0-.5,1.09,1.09,0,0,0-.14-.23,1,1,0,0,0-.23-.17.73.73,0,0,0-.58,0,.81.81,0,0,0-.23.17.75.75,0,0,0-.19.48Z"/><path d="M203.17,238.76h.21l.43,0a1.15,1.15,0,0,0,.42-.13.77.77,0,0,0,.31-.31.94.94,0,0,0,.13-.51.87.87,0,0,0-.27-.68,1,1,0,0,0-.7-.26,1.28,1.28,0,0,0-.63.16,1.14,1.14,0,0,0-.41.48l-.65-.25a1.48,1.48,0,0,1,.65-.72,2.07,2.07,0,0,1,1-.24,2.25,2.25,0,0,1,.64.09,1.72,1.72,0,0,1,.54.28,1.37,1.37,0,0,1,.37.46,1.48,1.48,0,0,1,.14.65,1.29,1.29,0,0,1-.27.8,1.34,1.34,0,0,1-.7.49v0a1.48,1.48,0,0,1,.85.49,1.37,1.37,0,0,1,.23.43,1.69,1.69,0,0,1,.08.5,1.66,1.66,0,0,1-.15.72,1.57,1.57,0,0,1-.41.51,1.71,1.71,0,0,1-.6.31,2.34,2.34,0,0,1-.71.1,2.18,2.18,0,0,1-1.13-.28,1.61,1.61,0,0,1-.7-.91l.68-.22a1.33,1.33,0,0,0,.41.65,1.3,1.3,0,0,0,.74.19,1.33,1.33,0,0,0,.45-.08,1.11,1.11,0,0,0,.36-.23,1.24,1.24,0,0,0,.25-.35,1.13,1.13,0,0,0,.09-.45,1.07,1.07,0,0,0-.12-.53,1,1,0,0,0-.33-.33,1.23,1.23,0,0,0-.46-.18,2.31,2.31,0,0,0-.52-.06h-.21Z"/><path d="M206.24,239.2a6.85,6.85,0,0,1,.08-1,3.11,3.11,0,0,1,.3-.95,1.94,1.94,0,0,1,.59-.71,1.55,1.55,0,0,1,.95-.27,1.6,1.6,0,0,1,1,.27,2,2,0,0,1,.59.71,3.1,3.1,0,0,1,.29.95,5.7,5.7,0,0,1,.08,1,5.85,5.85,0,0,1-.08,1,3.13,3.13,0,0,1-.29.94,2,2,0,0,1-.59.71,1.6,1.6,0,0,1-1,.27,1.55,1.55,0,0,1-.95-.27,1.94,1.94,0,0,1-.59-.71,3.14,3.14,0,0,1-.3-.94A7.07,7.07,0,0,1,206.24,239.2Zm.67,0c0,.13,0,.29,0,.46a4.88,4.88,0,0,0,.06.52,2.83,2.83,0,0,0,.13.5,1.4,1.4,0,0,0,.22.44,1.24,1.24,0,0,0,.34.31,1,1,0,0,0,.48.12.9.9,0,0,0,.48-.12,1,1,0,0,0,.34-.31,1.41,1.41,0,0,0,.23-.44,4.05,4.05,0,0,0,.12-.5,4.88,4.88,0,0,0,.06-.52,3.86,3.86,0,0,0,0-.46,3.94,3.94,0,0,0,0-.47,4.43,4.43,0,0,0-.06-.51,3.81,3.81,0,0,0-.12-.51,1.53,1.53,0,0,0-.23-.44,1,1,0,0,0-.34-.31.9.9,0,0,0-.48-.12,1,1,0,0,0-.48.12,1.24,1.24,0,0,0-.34.31,1.51,1.51,0,0,0-.22.44,2.72,2.72,0,0,0-.13.51,4.43,4.43,0,0,0-.06.51C206.92,238.9,206.91,239.06,206.91,239.2Z"/><path d="M210.84,237.41a1.13,1.13,0,0,1,.09-.45,1.26,1.26,0,0,1,.24-.36,1.2,1.2,0,0,1,.82-.33,1,1,0,0,1,.44.09,1.12,1.12,0,0,1,.37.24,1.26,1.26,0,0,1,.24.36,1.16,1.16,0,0,1-.24,1.26,1.15,1.15,0,0,1-.37.25,1,1,0,0,1-.44.09,1.13,1.13,0,0,1-.45-.09,1.15,1.15,0,0,1-.37-.25,1.15,1.15,0,0,1-.33-.81Zm.43,0a.61.61,0,0,0,.06.25.68.68,0,0,0,.14.23.72.72,0,0,0,.22.17.73.73,0,0,0,.3.06.72.72,0,0,0,.29-.06.62.62,0,0,0,.22-.17.91.91,0,0,0,.15-.23.65.65,0,0,0,0-.5,1.14,1.14,0,0,0-.15-.23.76.76,0,0,0-.22-.17.72.72,0,0,0-.29-.06.73.73,0,0,0-.3.06.92.92,0,0,0-.22.17.79.79,0,0,0-.14.23A.61.61,0,0,0,211.27,237.41Z"/><path d="M93.6,238.76h.21l.44,0a1.1,1.1,0,0,0,.41-.13.86.86,0,0,0,.32-.31.94.94,0,0,0,.12-.51.87.87,0,0,0-.27-.68,1,1,0,0,0-.7-.26,1.21,1.21,0,0,0-.62.16,1.1,1.1,0,0,0-.42.48l-.65-.25a1.45,1.45,0,0,1,.66-.72,2,2,0,0,1,1-.24,2.32,2.32,0,0,1,.65.09,2,2,0,0,1,.54.28,1.67,1.67,0,0,1,.37.46,1.48,1.48,0,0,1,.13.65,1.29,1.29,0,0,1-.27.8,1.34,1.34,0,0,1-.7.49v0a1.31,1.31,0,0,1,.49.18,1.34,1.34,0,0,1,.36.31,1.37,1.37,0,0,1,.23.43,1.42,1.42,0,0,1,.08.5,1.66,1.66,0,0,1-.15.72,1.57,1.57,0,0,1-.41.51,1.75,1.75,0,0,1-.59.31,2.46,2.46,0,0,1-.72.1,2.18,2.18,0,0,1-1.13-.28,1.56,1.56,0,0,1-.69-.91l.68-.22a1.2,1.2,0,0,0,.41.65,1.27,1.27,0,0,0,.73.19,1.33,1.33,0,0,0,.45-.08,1.11,1.11,0,0,0,.36-.23,1.07,1.07,0,0,0,.25-.35,1.13,1.13,0,0,0,.09-.45,1.07,1.07,0,0,0-.12-.53.87.87,0,0,0-.33-.33,1.17,1.17,0,0,0-.46-.18,2.24,2.24,0,0,0-.52-.06H93.6Z"/><path d="M96.68,239.2a5.7,5.7,0,0,1,.08-1,3.1,3.1,0,0,1,.29-.95,2,2,0,0,1,.59-.71,1.6,1.6,0,0,1,1-.27,1.57,1.57,0,0,1,1,.27,1.94,1.94,0,0,1,.59.71,3.41,3.41,0,0,1,.3.95,6.85,6.85,0,0,1,.08,1,7.07,7.07,0,0,1-.08,1,3.45,3.45,0,0,1-.3.94,1.94,1.94,0,0,1-.59.71,1.57,1.57,0,0,1-1,.27,1.6,1.6,0,0,1-1-.27,2,2,0,0,1-.59-.71,3.13,3.13,0,0,1-.29-.94A5.85,5.85,0,0,1,96.68,239.2Zm.67,0c0,.13,0,.29,0,.46a4.88,4.88,0,0,0,.06.52,4.07,4.07,0,0,0,.13.5,1.41,1.41,0,0,0,.23.44,1,1,0,0,0,.34.31.9.9,0,0,0,.48.12,1,1,0,0,0,.48-.12,1.24,1.24,0,0,0,.34-.31,1.65,1.65,0,0,0,.22-.44,2.83,2.83,0,0,0,.13-.5,4.88,4.88,0,0,0,.06-.52c0-.17,0-.33,0-.46s0-.3,0-.47a4.43,4.43,0,0,0-.06-.51,2.72,2.72,0,0,0-.13-.51,1.81,1.81,0,0,0-.22-.44,1.24,1.24,0,0,0-.34-.31,1,1,0,0,0-.48-.12.9.9,0,0,0-.48.12,1,1,0,0,0-.34.31,1.53,1.53,0,0,0-.23.44,3.8,3.8,0,0,0-.13.51,4.43,4.43,0,0,0-.06.51C97.35,238.9,97.35,239.06,97.35,239.2Z"/><path d="M101.28,237.41a1.33,1.33,0,0,1,.08-.45,1.11,1.11,0,0,1,.25-.36,1,1,0,0,1,.36-.24,1.17,1.17,0,0,1,.9,0,1,1,0,0,1,.36.24,1.11,1.11,0,0,1,.25.36,1.31,1.31,0,0,1,0,.9,1.23,1.23,0,0,1-.61.61,1.17,1.17,0,0,1-.9,0,1.23,1.23,0,0,1-.61-.61A1.33,1.33,0,0,1,101.28,237.41Zm.43,0a.79.79,0,0,0,.05.25.68.68,0,0,0,.14.23.76.76,0,0,0,.23.17.73.73,0,0,0,.58,0,.66.66,0,0,0,.23-.17.68.68,0,0,0,.14-.23.71.71,0,0,0-.14-.73.81.81,0,0,0-.23-.17.73.73,0,0,0-.58,0,1,1,0,0,0-.23.17.75.75,0,0,0-.19.48Z"/><path d="M249.93,137.18h0a1.24,1.24,0,0,1-.37.12,1.84,1.84,0,0,1-.39,0,1.91,1.91,0,0,1-.68-.12,1.58,1.58,0,0,1-.54-.37,1.63,1.63,0,0,1-.36-.56,2.05,2.05,0,0,1-.13-.72,1.79,1.79,0,0,1,.15-.75,1.48,1.48,0,0,1,.4-.55,1.79,1.79,0,0,1,.6-.35,2,2,0,0,1,.75-.13,2.11,2.11,0,0,1,.75.13,1.79,1.79,0,0,1,.6.35,1.59,1.59,0,0,1,.4.55,1.79,1.79,0,0,1,.14.75,2.15,2.15,0,0,1,0,.45,1.68,1.68,0,0,1-.11.4,2.59,2.59,0,0,1-.17.38l-.21.36-1.51,2.39h-.78Zm-.59-.42a1.28,1.28,0,0,0,.48-.09,1,1,0,0,0,.39-.24,1.23,1.23,0,0,0,.26-.37,1.43,1.43,0,0,0,0-1,1.1,1.1,0,0,0-.65-.62,1.48,1.48,0,0,0-1,0,1.28,1.28,0,0,0-.39.24,1.12,1.12,0,0,0-.26.38,1.3,1.3,0,0,0,0,1,1.08,1.08,0,0,0,.26.37,1,1,0,0,0,.39.24A1.28,1.28,0,0,0,249.34,136.76Z"/><path d="M251.82,136.71a7.07,7.07,0,0,1,.08-1,3.19,3.19,0,0,1,.29-1,2,2,0,0,1,.59-.7,1.54,1.54,0,0,1,1-.28,1.49,1.49,0,0,1,.95.28,1.91,1.91,0,0,1,.59.7,2.94,2.94,0,0,1,.3,1,6.29,6.29,0,0,1,0,2,2.94,2.94,0,0,1-.3.95,1.91,1.91,0,0,1-.59.7,1.49,1.49,0,0,1-.95.28,1.54,1.54,0,0,1-1-.28,2,2,0,0,1-.59-.7,3.19,3.19,0,0,1-.29-.95A7.07,7.07,0,0,1,251.82,136.71Zm.67,0c0,.14,0,.29,0,.46a4.6,4.6,0,0,0,.06.52,4.7,4.7,0,0,0,.12.51,2,2,0,0,0,.23.44,1,1,0,0,0,.34.31,1,1,0,0,0,.48.11,1.06,1.06,0,0,0,.48-.11,1.24,1.24,0,0,0,.34-.31,1.65,1.65,0,0,0,.22-.44,3.18,3.18,0,0,0,.13-.51,4.6,4.6,0,0,0,.06-.52c0-.17,0-.32,0-.46s0-.29,0-.46a4.6,4.6,0,0,0-.06-.52,3.18,3.18,0,0,0-.13-.51,1.65,1.65,0,0,0-.22-.44,1.24,1.24,0,0,0-.34-.31,1.06,1.06,0,0,0-.48-.11,1,1,0,0,0-.48.11,1,1,0,0,0-.34.31,2,2,0,0,0-.23.44,4.7,4.7,0,0,0-.12.51,4.6,4.6,0,0,0-.06.52C252.5,136.42,252.49,136.57,252.49,136.71Z"/><path d="M256.42,134.93a1.13,1.13,0,0,1,.09-.45,1.31,1.31,0,0,1,.24-.37,1.18,1.18,0,0,1,.37-.24,1,1,0,0,1,.44-.09,1.13,1.13,0,0,1,.45.09,1.06,1.06,0,0,1,.61.61,1.13,1.13,0,0,1,.09.45,1,1,0,0,1-.09.44,1.06,1.06,0,0,1-.61.61,1.13,1.13,0,0,1-.45.09,1,1,0,0,1-.44-.09,1.18,1.18,0,0,1-.37-.24,1.31,1.31,0,0,1-.24-.37A1,1,0,0,1,256.42,134.93Zm.43,0a.69.69,0,0,0,0,.24,1,1,0,0,0,.15.24.73.73,0,0,0,.51.23.54.54,0,0,0,.29-.07.63.63,0,0,0,.23-.16.72.72,0,0,0,.14-.24.52.52,0,0,0,0-.24.56.56,0,0,0,0-.25.59.59,0,0,0-.14-.23.74.74,0,0,0-.52-.24.73.73,0,0,0-.29.07.62.62,0,0,0-.22.17.76.76,0,0,0-.15.23A.74.74,0,0,0,256.85,134.93Z"/><path d="M41.57,137.18h0a1.34,1.34,0,0,1-.37.12,2,2,0,0,1-.39,0,1.92,1.92,0,0,1-.69-.12,1.58,1.58,0,0,1-.54-.37,1.8,1.8,0,0,1-.36-.56,2.05,2.05,0,0,1-.13-.72,1.79,1.79,0,0,1,.15-.75,1.48,1.48,0,0,1,.4-.55,1.79,1.79,0,0,1,.6-.35,2.23,2.23,0,0,1,1.5,0,1.79,1.79,0,0,1,.6.35,1.48,1.48,0,0,1,.4.55,1.79,1.79,0,0,1,.15.75,3.14,3.14,0,0,1,0,.45,2.34,2.34,0,0,1-.12.4,1.84,1.84,0,0,1-.17.38,3.35,3.35,0,0,1-.21.36l-1.5,2.39h-.79Zm-.59-.42a1.28,1.28,0,0,0,.48-.09,1,1,0,0,0,.39-.24,1.23,1.23,0,0,0,.26-.37,1.3,1.3,0,0,0,0-1,1.1,1.1,0,0,0-.65-.62,1.48,1.48,0,0,0-1,0,1.1,1.1,0,0,0-.65.62,1.43,1.43,0,0,0,0,1,1.23,1.23,0,0,0,.26.37,1,1,0,0,0,.39.24A1.28,1.28,0,0,0,41,136.76Z"/><path d="M43.46,136.71a7.07,7.07,0,0,1,.08-1,2.94,2.94,0,0,1,.3-1,1.91,1.91,0,0,1,.59-.7,1.49,1.49,0,0,1,1-.28,1.54,1.54,0,0,1,1,.28,2,2,0,0,1,.59.7,3.19,3.19,0,0,1,.29,1,6.29,6.29,0,0,1,0,2,3.19,3.19,0,0,1-.29.95,2,2,0,0,1-.59.7,1.54,1.54,0,0,1-1,.28,1.49,1.49,0,0,1-1-.28,1.91,1.91,0,0,1-.59-.7,2.94,2.94,0,0,1-.3-.95A7.07,7.07,0,0,1,43.46,136.71Zm.67,0c0,.14,0,.29,0,.46a4.6,4.6,0,0,0,.06.52,3.18,3.18,0,0,0,.13.51,1.65,1.65,0,0,0,.22.44,1.12,1.12,0,0,0,.34.31,1.1,1.1,0,0,0,1,0,1.12,1.12,0,0,0,.34-.31,2,2,0,0,0,.23-.44,4.7,4.7,0,0,0,.12-.51,4.6,4.6,0,0,0,.06-.52c0-.17,0-.32,0-.46s0-.29,0-.46a4.6,4.6,0,0,0-.06-.52,4.7,4.7,0,0,0-.12-.51,2,2,0,0,0-.23-.44,1.12,1.12,0,0,0-.34-.31,1.1,1.1,0,0,0-1,0,1.12,1.12,0,0,0-.34.31,1.65,1.65,0,0,0-.22.44,3.18,3.18,0,0,0-.13.51,4.6,4.6,0,0,0-.06.52C44.14,136.42,44.13,136.57,44.13,136.71Z"/><path d="M48.06,134.93a1.13,1.13,0,0,1,.09-.45,1.06,1.06,0,0,1,.61-.61,1.13,1.13,0,0,1,.45-.09,1.08,1.08,0,0,1,.44.09,1.06,1.06,0,0,1,.61.61,1.13,1.13,0,0,1,.09.45,1,1,0,0,1-.09.44,1.06,1.06,0,0,1-.61.61,1.08,1.08,0,0,1-.44.09,1.13,1.13,0,0,1-.45-.09,1.06,1.06,0,0,1-.61-.61A1,1,0,0,1,48.06,134.93Zm.43,0a.53.53,0,0,0,.06.24.72.72,0,0,0,.14.24.69.69,0,0,0,.22.16.6.6,0,0,0,.3.07.73.73,0,0,0,.51-.23,1,1,0,0,0,.15-.24.69.69,0,0,0,.05-.24.74.74,0,0,0-.05-.25.76.76,0,0,0-.15-.23.62.62,0,0,0-.22-.17.73.73,0,0,0-.29-.07.73.73,0,0,0-.3.07.72.72,0,0,0-.22.17.59.59,0,0,0-.14.23A.57.57,0,0,0,48.49,134.93Z"/><path d="M148.37,38.51h-.68v-4.8h0l-1,.85-.4-.48,1.52-1.24h.59Z"/><path d="M150.49,34.23a1.48,1.48,0,0,1,.13-.61,1.2,1.2,0,0,1,.34-.46,1.44,1.44,0,0,1,.51-.3,1.92,1.92,0,0,1,1.28,0,1.44,1.44,0,0,1,.51.3,1.2,1.2,0,0,1,.34.46,1.33,1.33,0,0,1,.13.61,1.16,1.16,0,0,1-.07.4,1.41,1.41,0,0,1-.18.37,1.33,1.33,0,0,1-.29.29,1.18,1.18,0,0,1-.39.19h0a1.44,1.44,0,0,1,.46.19,1.35,1.35,0,0,1,.35.32,1.42,1.42,0,0,1,.23.44,1.7,1.7,0,0,1,.08.51,1.74,1.74,0,0,1-.14.69,1.43,1.43,0,0,1-.39.52,1.47,1.47,0,0,1-.57.33,2.35,2.35,0,0,1-1.42,0,1.47,1.47,0,0,1-.57-.33,1.55,1.55,0,0,1-.39-.52,1.74,1.74,0,0,1-.14-.69,1.7,1.7,0,0,1,.08-.51,1.67,1.67,0,0,1,.23-.44,1.35,1.35,0,0,1,.35-.32,1.44,1.44,0,0,1,.46-.19h0a1.18,1.18,0,0,1-.39-.19,1.33,1.33,0,0,1-.29-.29,1.41,1.41,0,0,1-.18-.37A1.46,1.46,0,0,1,150.49,34.23ZM151,36.9a1.18,1.18,0,0,0,.09.46,1.07,1.07,0,0,0,.25.35,1,1,0,0,0,.36.23,1.12,1.12,0,0,0,.88,0,1,1,0,0,0,.36-.23,1.07,1.07,0,0,0,.25-.35,1.18,1.18,0,0,0,.09-.46,1.14,1.14,0,0,0-.09-.46,1.13,1.13,0,0,0-.61-.58,1.12,1.12,0,0,0-.88,0,1.13,1.13,0,0,0-.61.58A1.14,1.14,0,0,0,151,36.9Zm.2-2.64a.88.88,0,0,0,.26.67,1,1,0,0,0,1.36,0,1,1,0,0,0,0-1.34,1,1,0,0,0-1.36,0A.88.88,0,0,0,151.17,34.26Z"/><path d="M154.64,35.68a7,7,0,0,1,.08-1,3.1,3.1,0,0,1,.29-1,2,2,0,0,1,.59-.71,1.6,1.6,0,0,1,1-.27,1.55,1.55,0,0,1,.95.27,1.94,1.94,0,0,1,.59.71,2.86,2.86,0,0,1,.3,1,7,7,0,0,1,.08,1,7.07,7.07,0,0,1-.08,1,2.88,2.88,0,0,1-.3.94,1.94,1.94,0,0,1-.59.71,1.55,1.55,0,0,1-.95.27,1.6,1.6,0,0,1-1-.27,2,2,0,0,1-.59-.71,3.13,3.13,0,0,1-.29-.94A7.07,7.07,0,0,1,154.64,35.68Zm.67,0c0,.13,0,.29,0,.46a4.88,4.88,0,0,0,.06.52,4.05,4.05,0,0,0,.12.5,1.66,1.66,0,0,0,.23.44,1.12,1.12,0,0,0,.34.31,1,1,0,0,0,1,0,1.12,1.12,0,0,0,.34-.31,1.4,1.4,0,0,0,.22-.44,2.83,2.83,0,0,0,.13-.5,4.88,4.88,0,0,0,.06-.52c0-.17,0-.33,0-.46s0-.3,0-.47a4.43,4.43,0,0,0-.06-.51,2.72,2.72,0,0,0-.13-.51,1.51,1.51,0,0,0-.22-.44,1.12,1.12,0,0,0-.34-.31,1,1,0,0,0-1,0,1.12,1.12,0,0,0-.34.31,1.83,1.83,0,0,0-.23.44,3.81,3.81,0,0,0-.12.51,4.43,4.43,0,0,0-.06.51C155.32,35.38,155.31,35.54,155.31,35.68Z"/><path d="M159.24,33.89a1.15,1.15,0,0,1,.33-.81,1,1,0,0,1,.37-.24,1,1,0,0,1,.44-.09,1.15,1.15,0,0,1,.82,2,1.15,1.15,0,0,1-.37.25,1.13,1.13,0,0,1-.45.09,1.15,1.15,0,0,1-.81-.34,1.15,1.15,0,0,1-.33-.81Zm.43,0a.79.79,0,0,0,.05.25,1.14,1.14,0,0,0,.15.23.62.62,0,0,0,.22.17.72.72,0,0,0,.29.06.68.68,0,0,0,.52-.23.79.79,0,0,0,.14-.23.65.65,0,0,0,0-.5.79.79,0,0,0-.14-.23.81.81,0,0,0-.23-.17.65.65,0,0,0-.29-.06.72.72,0,0,0-.29.06.76.76,0,0,0-.22.17,1.14,1.14,0,0,0-.15.23A.79.79,0,0,0,159.67,33.89Z"/><path d="M203.18,38.51h-.68v-4.8h0l-1,.85-.4-.48,1.52-1.24h.59Z"/><path d="M208.49,33.47h-2.31l0,1.53a1.08,1.08,0,0,1,.36-.11l.37,0a2,2,0,0,1,.74.14,1.61,1.61,0,0,1,.57.39,1.9,1.9,0,0,1,.37.59,2,2,0,0,1,.13.74,2,2,0,0,1-.15.78,1.74,1.74,0,0,1-.41.59,1.91,1.91,0,0,1-.61.38,2.2,2.2,0,0,1-.78.13,1.73,1.73,0,0,1-1-.28,2,2,0,0,1-.63-.75l.67-.25a1.31,1.31,0,0,0,.42.51,1.1,1.1,0,0,0,.64.2,1.28,1.28,0,0,0,.48-.09,1.26,1.26,0,0,0,.38-.27,1.15,1.15,0,0,0,.26-.41,1.53,1.53,0,0,0,.1-.54,1.38,1.38,0,0,0-.11-.55,1.08,1.08,0,0,0-.3-.4,1.26,1.26,0,0,0-.44-.25,1.67,1.67,0,0,0-.55-.08,1.84,1.84,0,0,0-.6.1,2.58,2.58,0,0,0-.56.25l.06-2.95h3Z"/><path d="M209.45,35.68a7,7,0,0,1,.08-1,3.1,3.1,0,0,1,.29-1,2,2,0,0,1,.59-.71,1.6,1.6,0,0,1,1-.27,1.55,1.55,0,0,1,.95.27,1.94,1.94,0,0,1,.59.71,2.86,2.86,0,0,1,.3,1,7,7,0,0,1,.08,1,7.07,7.07,0,0,1-.08,1,2.88,2.88,0,0,1-.3.94,1.94,1.94,0,0,1-.59.71,1.55,1.55,0,0,1-.95.27,1.6,1.6,0,0,1-1-.27,2,2,0,0,1-.59-.71,3.13,3.13,0,0,1-.29-.94A7.07,7.07,0,0,1,209.45,35.68Zm.67,0c0,.13,0,.29,0,.46a4.88,4.88,0,0,0,.06.52,4.05,4.05,0,0,0,.12.5,1.66,1.66,0,0,0,.23.44,1,1,0,0,0,.34.31.9.9,0,0,0,.48.12,1,1,0,0,0,.48-.12,1.24,1.24,0,0,0,.34-.31,1.4,1.4,0,0,0,.22-.44,2.83,2.83,0,0,0,.13-.5,4.88,4.88,0,0,0,.06-.52c0-.17,0-.33,0-.46s0-.3,0-.47a4.43,4.43,0,0,0-.06-.51,2.72,2.72,0,0,0-.13-.51,1.51,1.51,0,0,0-.22-.44,1.24,1.24,0,0,0-.34-.31,1,1,0,0,0-.48-.12.9.9,0,0,0-.48.12,1,1,0,0,0-.34.31,1.83,1.83,0,0,0-.23.44,3.81,3.81,0,0,0-.12.51,4.43,4.43,0,0,0-.06.51C210.13,35.38,210.12,35.54,210.12,35.68Z"/><path d="M214.05,33.89a1.15,1.15,0,0,1,.33-.81,1,1,0,0,1,.37-.24,1,1,0,0,1,.44-.09,1.13,1.13,0,0,1,.45.09,1,1,0,0,1,.36.24,1,1,0,0,1,.25.36,1.17,1.17,0,0,1,0,.9,1.23,1.23,0,0,1-.61.61,1.13,1.13,0,0,1-.45.09,1.15,1.15,0,0,1-.81-.34,1.15,1.15,0,0,1-.33-.81Zm.43,0a.79.79,0,0,0,.05.25,1.14,1.14,0,0,0,.15.23.62.62,0,0,0,.22.17.72.72,0,0,0,.29.06.68.68,0,0,0,.52-.23.79.79,0,0,0,.14-.23.65.65,0,0,0,0-.5.79.79,0,0,0-.14-.23.81.81,0,0,0-.23-.17.65.65,0,0,0-.29-.06.72.72,0,0,0-.29.06.76.76,0,0,0-.22.17,1.14,1.14,0,0,0-.15.23A.79.79,0,0,0,214.48,33.89Z"/><path d="M93.61,38.51h-.67v-4.8h0l-1,.85-.4-.48L93,32.84h.58Z"/><path d="M98.92,33.47H96.61l0,1.53a1,1,0,0,1,.35-.11l.37,0a1.91,1.91,0,0,1,.74.14,1.65,1.65,0,0,1,.58.39A1.71,1.71,0,0,1,99,36a2,2,0,0,1,.13.74,2,2,0,0,1-.15.78,1.71,1.71,0,0,1-.4.59,2,2,0,0,1-.62.38,2.15,2.15,0,0,1-.77.13,1.78,1.78,0,0,1-1.05-.28,1.85,1.85,0,0,1-.62-.75l.67-.25a1.16,1.16,0,0,0,.42.51,1.05,1.05,0,0,0,.63.2,1.28,1.28,0,0,0,.48-.09,1.23,1.23,0,0,0,.64-.68,1.33,1.33,0,0,0,.1-.54,1.38,1.38,0,0,0-.11-.55,1.18,1.18,0,0,0-.29-.4,1.41,1.41,0,0,0-.45-.25,1.63,1.63,0,0,0-.55-.08,1.78,1.78,0,0,0-.59.1,2.58,2.58,0,0,0-.56.25l0-2.95h3Z"/><path d="M99.88,35.68a7,7,0,0,1,.08-1,3.11,3.11,0,0,1,.3-1,1.94,1.94,0,0,1,.59-.71,1.55,1.55,0,0,1,1-.27,1.6,1.6,0,0,1,1,.27,2,2,0,0,1,.59.71,3.1,3.1,0,0,1,.29,1,5.77,5.77,0,0,1,.08,1,5.85,5.85,0,0,1-.08,1,3.13,3.13,0,0,1-.29.94,2,2,0,0,1-.59.71,1.6,1.6,0,0,1-1,.27,1.55,1.55,0,0,1-1-.27,1.94,1.94,0,0,1-.59-.71,3.14,3.14,0,0,1-.3-.94A7.07,7.07,0,0,1,99.88,35.68Zm.67,0c0,.13,0,.29,0,.46a4.88,4.88,0,0,0,.06.52,2.83,2.83,0,0,0,.13.5,1.4,1.4,0,0,0,.22.44,1.24,1.24,0,0,0,.34.31,1,1,0,0,0,.48.12.9.9,0,0,0,.48-.12,1,1,0,0,0,.34-.31,1.41,1.41,0,0,0,.23-.44,4.05,4.05,0,0,0,.12-.5,4.88,4.88,0,0,0,.06-.52c0-.17,0-.33,0-.46s0-.3,0-.47a4.43,4.43,0,0,0-.06-.51,3.81,3.81,0,0,0-.12-.51,1.53,1.53,0,0,0-.23-.44,1,1,0,0,0-.34-.31.9.9,0,0,0-.48-.12,1,1,0,0,0-.48.12,1.24,1.24,0,0,0-.34.31,1.51,1.51,0,0,0-.22.44,2.72,2.72,0,0,0-.13.51,4.43,4.43,0,0,0-.06.51C100.56,35.38,100.55,35.54,100.55,35.68Z"/><path d="M104.48,33.89a1.15,1.15,0,0,1,1.15-1.14,1,1,0,0,1,.44.09,1.12,1.12,0,0,1,.37.24,1.16,1.16,0,0,1,0,1.62,1.15,1.15,0,0,1-.37.25,1,1,0,0,1-.44.09,1.13,1.13,0,0,1-.45-.09,1.15,1.15,0,0,1-.37-.25,1.15,1.15,0,0,1-.33-.81Zm.43,0a.61.61,0,0,0,.06.25.79.79,0,0,0,.14.23.72.72,0,0,0,.22.17.73.73,0,0,0,.3.06.72.72,0,0,0,.29-.06.62.62,0,0,0,.22-.17,1.14,1.14,0,0,0,.15-.23.65.65,0,0,0,0-.5,1.14,1.14,0,0,0-.15-.23.76.76,0,0,0-.22-.17.72.72,0,0,0-.29-.06.73.73,0,0,0-.3.06.92.92,0,0,0-.22.17.79.79,0,0,0-.14.23A.61.61,0,0,0,104.91,33.89Z"/><path d="M248.75,192.45v0a1.35,1.35,0,0,1,.37-.13,2,2,0,0,1,.39,0,1.73,1.73,0,0,1,.69.13,1.42,1.42,0,0,1,.54.36,1.85,1.85,0,0,1,.36.57,2,2,0,0,1,.12.72,1.78,1.78,0,0,1-.14.74,1.74,1.74,0,0,1-.4.56,2,2,0,0,1-.6.35,2.36,2.36,0,0,1-.75.12,2.27,2.27,0,0,1-.75-.12,2,2,0,0,1-.6-.35,1.6,1.6,0,0,1-.4-.56,1.78,1.78,0,0,1-.15-.74,2.24,2.24,0,0,1,.15-.86,5.28,5.28,0,0,1,.39-.74l1.5-2.39h.79Zm.59.43a1.23,1.23,0,0,0-.87.32,1,1,0,0,0-.26.38,1.31,1.31,0,0,0-.1.5,1.35,1.35,0,0,0,.1.5,1.08,1.08,0,0,0,.26.37,1,1,0,0,0,.39.24,1.32,1.32,0,0,0,1,0,1,1,0,0,0,.39-.24,1.23,1.23,0,0,0,.26-.37,1.35,1.35,0,0,0,.09-.5,1.31,1.31,0,0,0-.09-.5,1.16,1.16,0,0,0-.26-.38,1.23,1.23,0,0,0-.87-.32Z"/><path d="M251.82,192.92a7.07,7.07,0,0,1,.08-1,3.13,3.13,0,0,1,.29-.94,2,2,0,0,1,.59-.71,1.6,1.6,0,0,1,1-.27,1.55,1.55,0,0,1,.95.27,1.94,1.94,0,0,1,.59.71,2.88,2.88,0,0,1,.3.94,7.07,7.07,0,0,1,.08,1,7,7,0,0,1-.08,1,2.86,2.86,0,0,1-.3,1,1.94,1.94,0,0,1-.59.71,1.55,1.55,0,0,1-.95.27,1.6,1.6,0,0,1-1-.27,2,2,0,0,1-.59-.71,3.1,3.1,0,0,1-.29-1A7,7,0,0,1,251.82,192.92Zm.67,0c0,.14,0,.3,0,.47a4.43,4.43,0,0,0,.06.51,3.81,3.81,0,0,0,.12.51,1.83,1.83,0,0,0,.23.44,1,1,0,0,0,.34.31.9.9,0,0,0,.48.12,1,1,0,0,0,.48-.12,1.24,1.24,0,0,0,.34-.31,1.51,1.51,0,0,0,.22-.44,2.72,2.72,0,0,0,.13-.51,4.43,4.43,0,0,0,.06-.51c0-.17,0-.33,0-.47s0-.29,0-.46a4.88,4.88,0,0,0-.06-.52,2.83,2.83,0,0,0-.13-.5,1.4,1.4,0,0,0-.22-.44,1.1,1.1,0,0,0-.34-.31,1,1,0,0,0-.48-.12.9.9,0,0,0-.48.12.92.92,0,0,0-.34.31,1.66,1.66,0,0,0-.23.44,4.05,4.05,0,0,0-.12.5,4.88,4.88,0,0,0-.06.52C252.5,192.63,252.49,192.79,252.49,192.92Z"/><path d="M256.42,191.14a1.15,1.15,0,0,1,.33-.81,1.05,1.05,0,0,1,.37-.25,1.23,1.23,0,0,1,.44-.08,1.33,1.33,0,0,1,.45.08,1.15,1.15,0,0,1,.37.25,1.16,1.16,0,0,1,0,1.62,1.15,1.15,0,0,1-.37.25,1.33,1.33,0,0,1-.45.08,1.23,1.23,0,0,1-.44-.08,1.05,1.05,0,0,1-.37-.25,1.15,1.15,0,0,1-.33-.81Zm.43,0a.79.79,0,0,0,0,.25,1.14,1.14,0,0,0,.15.23.62.62,0,0,0,.22.17.72.72,0,0,0,.29.06.68.68,0,0,0,.52-.23.79.79,0,0,0,.14-.23.65.65,0,0,0,0-.5.79.79,0,0,0-.14-.23.68.68,0,0,0-.52-.23.72.72,0,0,0-.29.06.62.62,0,0,0-.22.17,1.14,1.14,0,0,0-.15.23A.79.79,0,0,0,256.85,191.14Z"/><path d="M250,81.22h-.67v-4.8h0l-1,.86-.4-.49,1.52-1.23H250Z"/><path d="M251.92,80.45l2.13-2.08c.13-.12.25-.24.35-.35a2.16,2.16,0,0,0,.25-.32,1.09,1.09,0,0,0,.15-.33,1.38,1.38,0,0,0,0-.37,1,1,0,0,0-.08-.4.84.84,0,0,0-.22-.3.78.78,0,0,0-.33-.19,1.05,1.05,0,0,0-.4-.07,1,1,0,0,0-.71.25,1.08,1.08,0,0,0-.36.65l-.73-.06a1.83,1.83,0,0,1,.21-.61,1.41,1.41,0,0,1,.39-.45,2,2,0,0,1,.53-.27,2.25,2.25,0,0,1,.64-.09,2.41,2.41,0,0,1,.67.1,1.92,1.92,0,0,1,.55.29,1.44,1.44,0,0,1,.51,1.15,2,2,0,0,1-.09.61,2,2,0,0,1-.25.5,3.47,3.47,0,0,1-.35.43l-.41.4-1.75,1.64v0h2.89v.62h-3.64Z"/><path d="M256.27,78.39a5.85,5.85,0,0,1,.08-1,3.19,3.19,0,0,1,.29-1,2,2,0,0,1,.59-.7,1.54,1.54,0,0,1,1-.28,1.51,1.51,0,0,1,.95.28,1.91,1.91,0,0,1,.59.7,3.2,3.2,0,0,1,.3,1,6.29,6.29,0,0,1,0,2,3.2,3.2,0,0,1-.3,1,1.91,1.91,0,0,1-.59.7,1.51,1.51,0,0,1-.95.28,1.54,1.54,0,0,1-1-.28,2,2,0,0,1-.59-.7,3.19,3.19,0,0,1-.29-1A5.85,5.85,0,0,1,256.27,78.39Zm.67,0a3.78,3.78,0,0,0,0,.46c0,.17,0,.35.05.52a4.77,4.77,0,0,0,.13.51,1.67,1.67,0,0,0,.23.44,1,1,0,0,0,.34.31,1,1,0,0,0,.48.11,1.06,1.06,0,0,0,.48-.11,1.24,1.24,0,0,0,.34-.31,2,2,0,0,0,.22-.44,3.18,3.18,0,0,0,.13-.51,4.6,4.6,0,0,0,.06-.52c0-.17,0-.32,0-.46s0-.29,0-.46a4.35,4.35,0,0,0-.06-.52,3.18,3.18,0,0,0-.13-.51,2,2,0,0,0-.22-.44,1.24,1.24,0,0,0-.34-.31,1.06,1.06,0,0,0-.48-.11,1,1,0,0,0-.48.11,1,1,0,0,0-.34.31,1.67,1.67,0,0,0-.23.44,4.77,4.77,0,0,0-.13.51c0,.17,0,.34-.05.52A3.78,3.78,0,0,0,256.94,78.39Z"/><path d="M260.87,76.61a1.13,1.13,0,0,1,.09-.45,1,1,0,0,1,.24-.37,1.16,1.16,0,0,1,1.62,0,1.15,1.15,0,0,1,.25.37,1.13,1.13,0,0,1,.09.45,1,1,0,0,1-.09.44,1.15,1.15,0,0,1-.25.37,1.16,1.16,0,0,1-1.62,0,1,1,0,0,1-.24-.37A1,1,0,0,1,260.87,76.61Zm.43,0a.69.69,0,0,0,.05.24.75.75,0,0,0,.15.24.6.6,0,0,0,.22.16.64.64,0,0,0,.58,0,.63.63,0,0,0,.23-.16.72.72,0,0,0,.14-.24.52.52,0,0,0,.05-.24.56.56,0,0,0-.05-.25.59.59,0,0,0-.14-.23.66.66,0,0,0-.23-.17.64.64,0,0,0-.58,0,.62.62,0,0,0-.22.17.61.61,0,0,0-.15.23A.74.74,0,0,0,261.3,76.61Z"/><path d="M40.39,192.45v0a1.42,1.42,0,0,1,.38-.13,1.84,1.84,0,0,1,.39,0,1.72,1.72,0,0,1,.68.13,1.42,1.42,0,0,1,.54.36,1.85,1.85,0,0,1,.36.57,2,2,0,0,1,.13.72,1.78,1.78,0,0,1-.15.74,1.6,1.6,0,0,1-.4.56,2,2,0,0,1-.6.35,2.4,2.4,0,0,1-1.5,0,2,2,0,0,1-.6-.35,1.6,1.6,0,0,1-.4-.56,1.78,1.78,0,0,1-.15-.74,2.24,2.24,0,0,1,.16-.86,5.19,5.19,0,0,1,.38-.74l1.5-2.39h.79Zm.59.43a1.23,1.23,0,0,0-.87.32,1.16,1.16,0,0,0-.26.38,1.31,1.31,0,0,0-.09.5,1.35,1.35,0,0,0,.09.5,1.23,1.23,0,0,0,.26.37,1,1,0,0,0,.39.24,1.32,1.32,0,0,0,1,0,1,1,0,0,0,.39-.24,1.23,1.23,0,0,0,.26-.37,1.35,1.35,0,0,0,.1-.5,1.31,1.31,0,0,0-.1-.5,1.16,1.16,0,0,0-.26-.38,1.23,1.23,0,0,0-.87-.32Z"/><path d="M43.46,192.92a7.07,7.07,0,0,1,.08-1,2.88,2.88,0,0,1,.3-.94,1.94,1.94,0,0,1,.59-.71,1.55,1.55,0,0,1,1-.27,1.6,1.6,0,0,1,1,.27,2,2,0,0,1,.59.71,3.13,3.13,0,0,1,.29.94,7.07,7.07,0,0,1,.08,1,7,7,0,0,1-.08,1,3.1,3.1,0,0,1-.29,1,2,2,0,0,1-.59.71,1.6,1.6,0,0,1-1,.27,1.55,1.55,0,0,1-1-.27,1.94,1.94,0,0,1-.59-.71,2.86,2.86,0,0,1-.3-1A7,7,0,0,1,43.46,192.92Zm.67,0c0,.14,0,.3,0,.47a4.43,4.43,0,0,0,.06.51,2.72,2.72,0,0,0,.13.51,1.51,1.51,0,0,0,.22.44,1.12,1.12,0,0,0,.34.31,1,1,0,0,0,1,0,1.12,1.12,0,0,0,.34-.31,1.83,1.83,0,0,0,.23-.44,3.81,3.81,0,0,0,.12-.51,4.43,4.43,0,0,0,.06-.51c0-.17,0-.33,0-.47s0-.29,0-.46a4.88,4.88,0,0,0-.06-.52,4.05,4.05,0,0,0-.12-.5,1.66,1.66,0,0,0-.23-.44,1,1,0,0,0-.34-.31,1,1,0,0,0-1,0,1,1,0,0,0-.34.31,1.4,1.4,0,0,0-.22.44,2.83,2.83,0,0,0-.13.5,4.88,4.88,0,0,0-.06.52C44.14,192.63,44.13,192.79,44.13,192.92Z"/><path d="M48.06,191.14a1.15,1.15,0,0,1,.33-.81,1.15,1.15,0,0,1,.37-.25,1.33,1.33,0,0,1,.45-.08,1.27,1.27,0,0,1,.44.08,1.15,1.15,0,0,1,.37.25A1.16,1.16,0,0,1,50,192a1.15,1.15,0,0,1-.37.25,1.27,1.27,0,0,1-.44.08,1.33,1.33,0,0,1-.45-.08,1.15,1.15,0,0,1-.37-.25,1.15,1.15,0,0,1-.33-.81Zm.43,0a.61.61,0,0,0,.06.25.79.79,0,0,0,.14.23.72.72,0,0,0,.22.17.73.73,0,0,0,.3.06.72.72,0,0,0,.29-.06.62.62,0,0,0,.22-.17,1.14,1.14,0,0,0,.15-.23.65.65,0,0,0,0-.5,1.14,1.14,0,0,0-.15-.23.62.62,0,0,0-.22-.17.72.72,0,0,0-.29-.06.73.73,0,0,0-.3.06.72.72,0,0,0-.22.17.79.79,0,0,0-.14.23A.61.61,0,0,0,48.49,191.14Z"/><path d="M39.15,81.22h-.67v-4.8h0l-1,.86-.4-.49,1.52-1.23h.58Z"/><path d="M41.07,80.45l2.14-2.08c.13-.12.25-.24.35-.35a2.16,2.16,0,0,0,.25-.32,1.09,1.09,0,0,0,.15-.33A1.38,1.38,0,0,0,44,77a1,1,0,0,0-.08-.4.84.84,0,0,0-.22-.3.78.78,0,0,0-.33-.19A1.05,1.05,0,0,0,43,76a1,1,0,0,0-.72.25,1.19,1.19,0,0,0-.36.65l-.72-.06a1.47,1.47,0,0,1,.21-.61,1.41,1.41,0,0,1,.39-.45,2,2,0,0,1,.53-.27,2.2,2.2,0,0,1,.64-.09,2.41,2.41,0,0,1,.67.1,2.06,2.06,0,0,1,.55.29,1.47,1.47,0,0,1,.37.48,1.6,1.6,0,0,1,.14.67,2,2,0,0,1-.09.61,2.34,2.34,0,0,1-.25.5,3.47,3.47,0,0,1-.35.43l-.41.4-1.75,1.64v0h2.89v.62H41.07Z"/><path d="M45.43,78.39a7,7,0,0,1,.07-1,3.52,3.52,0,0,1,.3-1,2,2,0,0,1,.59-.7,1.77,1.77,0,0,1,1.91,0,1.91,1.91,0,0,1,.59.7,3.52,3.52,0,0,1,.3,1,6.29,6.29,0,0,1,0,2,3.52,3.52,0,0,1-.3,1,1.91,1.91,0,0,1-.59.7,1.77,1.77,0,0,1-1.91,0,2,2,0,0,1-.59-.7,3.52,3.52,0,0,1-.3-1A7,7,0,0,1,45.43,78.39Zm.67,0c0,.14,0,.29,0,.46a4.6,4.6,0,0,0,.06.52,4.77,4.77,0,0,0,.13.51,2,2,0,0,0,.22.44,1.15,1.15,0,0,0,.35.31,1,1,0,0,0,.48.11,1.06,1.06,0,0,0,.48-.11,1.24,1.24,0,0,0,.34-.31,2,2,0,0,0,.22-.44,3.18,3.18,0,0,0,.13-.51,4.6,4.6,0,0,0,.06-.52c0-.17,0-.32,0-.46s0-.29,0-.46a4.35,4.35,0,0,0-.06-.52,3.18,3.18,0,0,0-.13-.51,2,2,0,0,0-.22-.44,1.24,1.24,0,0,0-.34-.31,1.06,1.06,0,0,0-.48-.11,1,1,0,0,0-.48.11,1.15,1.15,0,0,0-.35.31,2,2,0,0,0-.22.44,4.77,4.77,0,0,0-.13.51,4.35,4.35,0,0,0-.06.52C46.1,78.1,46.1,78.25,46.1,78.39Z"/><path d="M50,76.61a1.12,1.12,0,0,1,.08-.45,1.15,1.15,0,0,1,.25-.37,1.16,1.16,0,0,1,1.62,0,1.15,1.15,0,0,1,.25.37,1.33,1.33,0,0,1,.08.45,1.23,1.23,0,0,1-.08.44,1.15,1.15,0,0,1-.25.37,1.16,1.16,0,0,1-1.62,0,1.15,1.15,0,0,1-.25-.37A1,1,0,0,1,50,76.61Zm.43,0a.52.52,0,0,0,0,.24.72.72,0,0,0,.14.24.63.63,0,0,0,.23.16.64.64,0,0,0,.58,0,.73.73,0,0,0,.23-.16,1,1,0,0,0,.14-.24.69.69,0,0,0,.05-.24.75.75,0,0,0-.19-.48.76.76,0,0,0-.23-.17.64.64,0,0,0-.58,0,.66.66,0,0,0-.23.17.59.59,0,0,0-.14.23A.56.56,0,0,0,50.46,76.61Z"/></g><g id="numeri_fondo_tabella" data-name="numeri fondo tabella"><path d="M131.83,251.42a1.17,1.17,0,0,0-.43-.35,1.19,1.19,0,0,0-.51-.11,1.35,1.35,0,0,0-.55.11,1.08,1.08,0,0,0-.4.3,1.32,1.32,0,0,0-.23.44,1.76,1.76,0,0,0,0,1.08,1.43,1.43,0,0,0,.26.45,1.31,1.31,0,0,0,.39.3,1.27,1.27,0,0,0,.52.1,1.09,1.09,0,0,0,1-.46l.47.44a1.69,1.69,0,0,1-.64.46,2.29,2.29,0,0,1-.78.14,2.22,2.22,0,0,1-.79-.14,1.75,1.75,0,0,1-1-1,2.27,2.27,0,0,1,0-1.57,1.86,1.86,0,0,1,.39-.63,2,2,0,0,1,.61-.41,2,2,0,0,1,.79-.15,2.09,2.09,0,0,1,.79.15,1.59,1.59,0,0,1,.65.45Z"/><path d="M136.21,253.56h0a1.43,1.43,0,0,1-.55.54,1.7,1.7,0,0,1-.89.22,1.8,1.8,0,0,1-.73-.15,1.78,1.78,0,0,1-.6-.41,1.81,1.81,0,0,1-.39-.62,2.06,2.06,0,0,1-.15-.79,2,2,0,0,1,.15-.78,1.88,1.88,0,0,1,.4-.63,1.81,1.81,0,0,1,.62-.41,2.07,2.07,0,0,1,.8-.15,1.72,1.72,0,0,1,.75.17,1.78,1.78,0,0,1,.59.47h0v-2.84h.62v6h-.62Zm0-1.21a1.63,1.63,0,0,0-.09-.55,1.34,1.34,0,0,0-.27-.44,1.37,1.37,0,0,0-.42-.29,1.35,1.35,0,0,0-.55-.11,1.42,1.42,0,0,0-.55.11,1.22,1.22,0,0,0-.41.29,1.34,1.34,0,0,0-.27.44,1.56,1.56,0,0,0,0,1.1,1.25,1.25,0,0,0,.27.44,1.19,1.19,0,0,0,1,.4,1.35,1.35,0,0,0,.55-.1,1.6,1.6,0,0,0,.42-.3,1.25,1.25,0,0,0,.27-.44A1.63,1.63,0,0,0,136.21,252.35Z"/><path d="M140.1,254.57l-.5-.2,2.4-6.15.51.2Z"/><path d="M147.64,254.22H147v-4.8h0l-1,.86-.4-.49,1.52-1.23h.59Z"/><path d="M149.46,251.39a7.07,7.07,0,0,1,.08-1,3.19,3.19,0,0,1,.29-.95,2,2,0,0,1,.59-.7,1.61,1.61,0,0,1,1-.28,1.55,1.55,0,0,1,1,.28,1.91,1.91,0,0,1,.59.7,2.94,2.94,0,0,1,.3.95,6.29,6.29,0,0,1,0,2,2.94,2.94,0,0,1-.3,1,1.91,1.91,0,0,1-.59.7,1.49,1.49,0,0,1-1,.28,1.54,1.54,0,0,1-1-.28,2,2,0,0,1-.59-.7,3.19,3.19,0,0,1-.29-1A7.07,7.07,0,0,1,149.46,251.39Zm.67,0c0,.14,0,.29,0,.47a4.43,4.43,0,0,0,.06.51,4.7,4.7,0,0,0,.12.51,2,2,0,0,0,.23.44,1.12,1.12,0,0,0,.34.31,1.1,1.1,0,0,0,1,0,1.12,1.12,0,0,0,.34-.31,1.65,1.65,0,0,0,.22-.44,3.18,3.18,0,0,0,.13-.51,4.43,4.43,0,0,0,.06-.51c0-.18,0-.33,0-.47s0-.29,0-.46a4.6,4.6,0,0,0-.06-.52,3.18,3.18,0,0,0-.13-.51,1.65,1.65,0,0,0-.22-.44,1.08,1.08,0,0,0-.34-.3,1,1,0,0,0-1,0,1.08,1.08,0,0,0-.34.3,2,2,0,0,0-.23.44,4.7,4.7,0,0,0-.12.51,4.6,4.6,0,0,0-.06.52C150.14,251.1,150.13,251.25,150.13,251.39Z"/><path d="M153.91,251.39a5.85,5.85,0,0,1,.08-1,3.19,3.19,0,0,1,.29-.95,2,2,0,0,1,.59-.7,1.61,1.61,0,0,1,1-.28,1.55,1.55,0,0,1,.95.28,1.91,1.91,0,0,1,.59.7,3.2,3.2,0,0,1,.3.95,6.29,6.29,0,0,1,0,2,3.2,3.2,0,0,1-.3,1,1.91,1.91,0,0,1-.59.7,1.49,1.49,0,0,1-.95.28,1.54,1.54,0,0,1-1-.28,2,2,0,0,1-.59-.7,3.19,3.19,0,0,1-.29-1A5.85,5.85,0,0,1,153.91,251.39Zm.67,0a4,4,0,0,0,0,.47,4.43,4.43,0,0,0,.06.51,3.14,3.14,0,0,0,.12.51,1.67,1.67,0,0,0,.23.44,1,1,0,0,0,.34.31.9.9,0,0,0,.48.11,1,1,0,0,0,.48-.11,1.24,1.24,0,0,0,.34-.31,1.65,1.65,0,0,0,.22-.44,3.18,3.18,0,0,0,.13-.51,4.43,4.43,0,0,0,.06-.51c0-.18,0-.33,0-.47s0-.29,0-.46a4.6,4.6,0,0,0-.06-.52,3.18,3.18,0,0,0-.13-.51,1.65,1.65,0,0,0-.22-.44,1.21,1.21,0,0,0-.34-.3,1,1,0,0,0-.48-.12.9.9,0,0,0-.48.12,1,1,0,0,0-.34.3,1.67,1.67,0,0,0-.23.44,3.14,3.14,0,0,0-.12.51,4.6,4.6,0,0,0-.06.52A3.78,3.78,0,0,0,154.58,251.39Z"/><path d="M158.31,251.39a5.85,5.85,0,0,1,.08-1,3.19,3.19,0,0,1,.29-.95,2,2,0,0,1,.59-.7,1.61,1.61,0,0,1,1-.28,1.55,1.55,0,0,1,1,.28,1.91,1.91,0,0,1,.59.7,3.2,3.2,0,0,1,.3.95,6.29,6.29,0,0,1,0,2,3.2,3.2,0,0,1-.3,1,1.91,1.91,0,0,1-.59.7,1.49,1.49,0,0,1-1,.28,1.54,1.54,0,0,1-1-.28,2,2,0,0,1-.59-.7,3.19,3.19,0,0,1-.29-1A5.85,5.85,0,0,1,158.31,251.39Zm.67,0c0,.14,0,.29,0,.47a4.43,4.43,0,0,0,.06.51,3.14,3.14,0,0,0,.12.51,1.67,1.67,0,0,0,.23.44,1,1,0,0,0,.34.31.9.9,0,0,0,.48.11,1,1,0,0,0,.48-.11,1.24,1.24,0,0,0,.34-.31,1.65,1.65,0,0,0,.22-.44,3.18,3.18,0,0,0,.13-.51,4.43,4.43,0,0,0,.06-.51c0-.18,0-.33,0-.47s0-.29,0-.46a4.6,4.6,0,0,0-.06-.52,3.18,3.18,0,0,0-.13-.51,1.65,1.65,0,0,0-.22-.44,1.21,1.21,0,0,0-.34-.3,1,1,0,0,0-.48-.12.9.9,0,0,0-.48.12,1,1,0,0,0-.34.3,1.67,1.67,0,0,0-.23.44,3.14,3.14,0,0,0-.12.51,4.6,4.6,0,0,0-.06.52C159,251.1,159,251.25,159,251.39Z"/><path d="M165.32,248.18H166v6h-.63Z"/><path d="M167.19,251.37c0-.17,0-.33,0-.48s0-.29,0-.41h.59c0,.1,0,.2,0,.3v.32h0a.91.91,0,0,1,.18-.27,1.64,1.64,0,0,1,.28-.23,1.5,1.5,0,0,1,.36-.16,1.44,1.44,0,0,1,.43-.06,1.52,1.52,0,0,1,.51.08,1.36,1.36,0,0,1,.34.18.93.93,0,0,1,.21.24,1.64,1.64,0,0,1,.12.22,1.78,1.78,0,0,1,.48-.53,1.27,1.27,0,0,1,.71-.19,1.88,1.88,0,0,1,.67.11,1.1,1.1,0,0,1,.44.31,1.37,1.37,0,0,1,.24.5,2.59,2.59,0,0,1,.07.65v2.27h-.62V252a2.33,2.33,0,0,0,0-.37,1,1,0,0,0-.15-.33.71.71,0,0,0-.28-.23,1,1,0,0,0-.45-.09,1,1,0,0,0-.37.08,1,1,0,0,0-.31.22,1.13,1.13,0,0,0-.21.35,1.33,1.33,0,0,0-.07.45v2.16h-.63V252.1a1.62,1.62,0,0,0-.17-.88A.6.6,0,0,0,169,251a1.18,1.18,0,0,0-.52.1.88.88,0,0,0-.36.3,1.14,1.14,0,0,0-.21.46,2.1,2.1,0,0,0-.07.58v1.82h-.62Z"/><line class="cls-1" x1="38.21" y1="253" x2="46.2" y2="253"/><path d="M235.17,251a1.66,1.66,0,0,0-.63-.52,1.93,1.93,0,0,0-.79-.17,2.13,2.13,0,0,0-.87.19,2.16,2.16,0,0,0-.68.52,2.58,2.58,0,0,0-.45.75,2.69,2.69,0,0,0-.16.89,2.79,2.79,0,0,0,.16.93,2.41,2.41,0,0,0,.45.74,2,2,0,0,0,.68.5,1.92,1.92,0,0,0,.87.19,2,2,0,0,0,1.64-.8l.51.43a2.38,2.38,0,0,1-.93.75,3,3,0,0,1-1.22.24,2.85,2.85,0,0,1-1.13-.22,2.82,2.82,0,0,1-.92-.62,3,3,0,0,1-.61-.94,3.33,3.33,0,0,1-.22-1.2,3.19,3.19,0,0,1,.21-1.16,2.9,2.9,0,0,1,.6-1,3.08,3.08,0,0,1,.91-.63,3,3,0,0,1,2.27,0,2,2,0,0,1,.89.68Z"/><path d="M239,253.1l0,0a1.35,1.35,0,0,1-.37.13,2.87,2.87,0,0,1-.39,0,1.68,1.68,0,0,1-.68-.13,1.5,1.5,0,0,1-.55-.36,1.92,1.92,0,0,1-.36-.56,2.11,2.11,0,0,1-.12-.73,1.75,1.75,0,0,1,.14-.74,1.63,1.63,0,0,1,.4-.56,1.79,1.79,0,0,1,.6-.35,2.36,2.36,0,0,1,.75-.12,2.27,2.27,0,0,1,.75.12,1.94,1.94,0,0,1,.61.35,1.49,1.49,0,0,1,.39.56,1.75,1.75,0,0,1,.15.74,2.19,2.19,0,0,1,0,.46c0,.14-.07.27-.11.4a2.53,2.53,0,0,1-.18.37,3.35,3.35,0,0,1-.21.36l-1.5,2.4h-.79Zm-.6-.43a1.51,1.51,0,0,0,.48-.08,1.28,1.28,0,0,0,.39-.24,1.12,1.12,0,0,0,.26-.38,1.27,1.27,0,0,0,.1-.5,1.26,1.26,0,0,0-.1-.49,1,1,0,0,0-.26-.38,1,1,0,0,0-.39-.24,1.33,1.33,0,0,0-1,0,.88.88,0,0,0-.38.24,1.19,1.19,0,0,0-.27.38,1.26,1.26,0,0,0-.09.49,1.28,1.28,0,0,0,.09.5,1.31,1.31,0,0,0,.27.38,1.12,1.12,0,0,0,.38.24A1.51,1.51,0,0,0,238.35,252.67Z"/><path d="M240.88,252.62a7.07,7.07,0,0,1,.08-1,2.88,2.88,0,0,1,.3-.94,2,2,0,0,1,.58-.71,1.84,1.84,0,0,1,1.92,0,2,2,0,0,1,.58.71,2.88,2.88,0,0,1,.3.94,7.07,7.07,0,0,1,.08,1,7,7,0,0,1-.08,1,2.86,2.86,0,0,1-.3.95,2,2,0,0,1-.58.71,1.84,1.84,0,0,1-1.92,0,2,2,0,0,1-.58-.71,2.86,2.86,0,0,1-.3-.95A7,7,0,0,1,240.88,252.62Zm.67,0c0,.14,0,.3,0,.47a4.43,4.43,0,0,0,.06.51,2.72,2.72,0,0,0,.13.51,1.51,1.51,0,0,0,.22.44,1.12,1.12,0,0,0,.34.31,1,1,0,0,0,1,0,1.12,1.12,0,0,0,.34-.31,1.51,1.51,0,0,0,.22-.44,2.72,2.72,0,0,0,.13-.51,4.43,4.43,0,0,0,.06-.51c0-.17,0-.33,0-.47s0-.29,0-.46a4.88,4.88,0,0,0-.06-.52,2.83,2.83,0,0,0-.13-.5,1.4,1.4,0,0,0-.22-.44,1.12,1.12,0,0,0-.34-.31,1,1,0,0,0-1,0,1.12,1.12,0,0,0-.34.31,1.4,1.4,0,0,0-.22.44,2.83,2.83,0,0,0-.13.5,4.88,4.88,0,0,0-.06.52C241.56,252.33,241.55,252.49,241.55,252.62Z"/><path d="M247.78,255.8l-.51-.2,2.41-6.14.5.19Z"/><path d="M257.1,251a1.66,1.66,0,0,0-.63-.52,1.92,1.92,0,0,0-.78-.17,2.06,2.06,0,0,0-.87.19,2.16,2.16,0,0,0-.68.52,2.21,2.21,0,0,0-.45.75,2.46,2.46,0,0,0-.16.89,2.56,2.56,0,0,0,.16.93,2.2,2.2,0,0,0,.44.74,2.1,2.1,0,0,0,.68.5,2,2,0,0,0,.88.19,2,2,0,0,0,.93-.21,2,2,0,0,0,.71-.59l.5.43a2.29,2.29,0,0,1-.92.75,3,3,0,0,1-1.22.24,2.8,2.8,0,0,1-2.05-.84,2.82,2.82,0,0,1-.61-.94,3.13,3.13,0,0,1-.22-1.2,3.19,3.19,0,0,1,.21-1.16,2.75,2.75,0,0,1,.6-1,3,3,0,0,1,.91-.63,2.93,2.93,0,0,1,1.16-.23,3,3,0,0,1,1.11.21,2,2,0,0,1,.89.68Z"/><path d="M258.46,254.69l2.14-2.08.35-.36a1.75,1.75,0,0,0,.25-.32,1,1,0,0,0,.15-.32,1.46,1.46,0,0,0,0-.38,1,1,0,0,0-.08-.4.93.93,0,0,0-.22-.3,1.13,1.13,0,0,0-.73-.26,1,1,0,0,0-.71.25,1.11,1.11,0,0,0-.36.66l-.73-.07a1.91,1.91,0,0,1,.21-.61,1.28,1.28,0,0,1,.39-.44,1.77,1.77,0,0,1,.53-.27,2.25,2.25,0,0,1,.64-.09,2.09,2.09,0,0,1,.67.1,1.53,1.53,0,0,1,.55.29,1.47,1.47,0,0,1,.37.48,1.39,1.39,0,0,1,.14.66,1.91,1.91,0,0,1-.09.61,1.8,1.8,0,0,1-.25.5,2.86,2.86,0,0,1-.35.43l-.41.41-1.75,1.64h2.89v.63h-3.65Z"/><path d="M266.35,250.42l-2.26,5h-.76l2.3-5H262.9v-.63h3.45Z"/><path d="M267.26,252.62a7.07,7.07,0,0,1,.08-1,3.45,3.45,0,0,1,.3-.94,2,2,0,0,1,.59-.71,1.82,1.82,0,0,1,1.91,0,2,2,0,0,1,.59.71,3.45,3.45,0,0,1,.3.94,7,7,0,0,1,.07,1,6.92,6.92,0,0,1-.07,1,3.41,3.41,0,0,1-.3.95,2,2,0,0,1-.59.71,1.82,1.82,0,0,1-1.91,0,2,2,0,0,1-.59-.71,3.41,3.41,0,0,1-.3-.95A7,7,0,0,1,267.26,252.62Zm.68,0c0,.14,0,.3,0,.47a4.43,4.43,0,0,0,.06.51,2.72,2.72,0,0,0,.13.51,1.53,1.53,0,0,0,.23.44,1,1,0,0,0,.34.31.89.89,0,0,0,.47.12,1,1,0,0,0,.49-.12,1.08,1.08,0,0,0,.33-.31,1.53,1.53,0,0,0,.23-.44,2.72,2.72,0,0,0,.13-.51,4.43,4.43,0,0,0,.06-.51c0-.17,0-.33,0-.47s0-.29,0-.46a4.88,4.88,0,0,0-.06-.52,2.83,2.83,0,0,0-.13-.5,1.41,1.41,0,0,0-.23-.44,1.08,1.08,0,0,0-.33-.31,1,1,0,0,0-.49-.12.89.89,0,0,0-.47.12,1,1,0,0,0-.34.31,1.41,1.41,0,0,0-.23.44,2.83,2.83,0,0,0-.13.5,4.88,4.88,0,0,0-.06.52C267.94,252.33,267.94,252.49,267.94,252.62Z"/><path d="M52.87,251a1.55,1.55,0,0,0-.63-.51,1.82,1.82,0,0,0-.79-.18,2,2,0,0,0-.87.2,2.13,2.13,0,0,0-.68.51,2.58,2.58,0,0,0-.45.75,2.67,2.67,0,0,0,0,1.82,2.29,2.29,0,0,0,.45.74,1.88,1.88,0,0,0,.68.5,1.92,1.92,0,0,0,.87.19,2,2,0,0,0,.93-.21,2.07,2.07,0,0,0,.71-.58l.51.42a2.38,2.38,0,0,1-.93.75,3,3,0,0,1-1.22.24,2.85,2.85,0,0,1-1.13-.22,2.82,2.82,0,0,1-.92-.62,3,3,0,0,1-.61-.94,3.27,3.27,0,0,1-.22-1.19,3.2,3.2,0,0,1,.21-1.17,3,3,0,0,1,.6-.95,3.08,3.08,0,0,1,.91-.63,3,3,0,0,1,2.27,0,2,2,0,0,1,.89.68Z"/><path d="M54.13,252.62a7,7,0,0,1,.08-1,3.11,3.11,0,0,1,.3-1,1.94,1.94,0,0,1,.59-.71,1.55,1.55,0,0,1,.95-.27,1.6,1.6,0,0,1,1,.27,2,2,0,0,1,.59.71,3.1,3.1,0,0,1,.29,1,5.77,5.77,0,0,1,.08,1,5.85,5.85,0,0,1-.08,1,3.13,3.13,0,0,1-.29.94,2,2,0,0,1-.59.71,1.6,1.6,0,0,1-1,.27,1.55,1.55,0,0,1-.95-.27,1.94,1.94,0,0,1-.59-.71,3.14,3.14,0,0,1-.3-.94A7.07,7.07,0,0,1,54.13,252.62Zm.67,0c0,.13,0,.29,0,.46a4.88,4.88,0,0,0,.06.52,2.83,2.83,0,0,0,.13.5,1.4,1.4,0,0,0,.22.44,1.1,1.1,0,0,0,.34.31,1,1,0,0,0,.48.12.9.9,0,0,0,.48-.12.92.92,0,0,0,.34-.31,1.41,1.41,0,0,0,.23-.44,2.8,2.8,0,0,0,.12-.5,4.88,4.88,0,0,0,.06-.52,3.86,3.86,0,0,0,0-.46,3.94,3.94,0,0,0,0-.47,4.43,4.43,0,0,0-.06-.51,2.71,2.71,0,0,0-.12-.51,1.53,1.53,0,0,0-.23-.44,1,1,0,0,0-.34-.31.9.9,0,0,0-.48-.12,1,1,0,0,0-.48.12,1.24,1.24,0,0,0-.34.31,1.51,1.51,0,0,0-.22.44,2.72,2.72,0,0,0-.13.51,4.43,4.43,0,0,0-.06.51C54.81,252.32,54.8,252.48,54.8,252.62Z"/><path d="M61,255.79l-.51-.2,2.41-6.14.51.19Z"/><path d="M70.36,251a1.52,1.52,0,0,0-.64-.51,1.78,1.78,0,0,0-.78-.18,2,2,0,0,0-.87.2,2.13,2.13,0,0,0-.68.51,2.58,2.58,0,0,0-.45.75,2.51,2.51,0,0,0-.16.9,2.54,2.54,0,0,0,.16.92,2.46,2.46,0,0,0,.44.74,2.09,2.09,0,0,0,1.56.69,2,2,0,0,0,.93-.21,2.07,2.07,0,0,0,.71-.58l.5.42a2.29,2.29,0,0,1-.92.75,3,3,0,0,1-1.22.24,2.93,2.93,0,0,1-1.14-.22,2.88,2.88,0,0,1-.91-.62,3,3,0,0,1-.61-.94,3.07,3.07,0,0,1-.22-1.19,3.2,3.2,0,0,1,.21-1.17,2.84,2.84,0,0,1,.6-.95,3,3,0,0,1,.91-.63,2.93,2.93,0,0,1,1.16-.23,3,3,0,0,1,1.11.21,2,2,0,0,1,.89.68Z"/><path d="M74.2,255.45h-.68v-4.8h0l-1,.85-.4-.48,1.52-1.24h.59Z"/><path d="M76.37,251.17a1.33,1.33,0,0,1,.13-.61,1.2,1.2,0,0,1,.34-.46,1.44,1.44,0,0,1,.51-.3,1.92,1.92,0,0,1,1.28,0,1.44,1.44,0,0,1,.51.3,1.32,1.32,0,0,1,.34.46,1.48,1.48,0,0,1,.12.61,1.44,1.44,0,0,1-.06.4,1.41,1.41,0,0,1-.18.37,1.18,1.18,0,0,1-.3.29,1,1,0,0,1-.38.19h0a1.44,1.44,0,0,1,.46.19,1.35,1.35,0,0,1,.35.32,1.67,1.67,0,0,1,.23.44,1.7,1.7,0,0,1,.08.51,1.74,1.74,0,0,1-.14.69,1.46,1.46,0,0,1-.39.52,1.47,1.47,0,0,1-.57.33,2.35,2.35,0,0,1-1.42,0,1.59,1.59,0,0,1-.58-.33,1.43,1.43,0,0,1-.38-.52,1.74,1.74,0,0,1-.14-.69,1.7,1.7,0,0,1,.08-.51,1.65,1.65,0,0,1,.22-.44,1.59,1.59,0,0,1,.36-.32,1.44,1.44,0,0,1,.46-.19h0a1.18,1.18,0,0,1-.39-.19,1.33,1.33,0,0,1-.29-.29,1.41,1.41,0,0,1-.18-.37A1.16,1.16,0,0,1,76.37,251.17Zm.48,2.67a1.14,1.14,0,0,0,.09.46,1.21,1.21,0,0,0,.24.35,1.16,1.16,0,0,0,.36.23A1.13,1.13,0,0,0,78,255a1,1,0,0,0,.44-.09,1,1,0,0,0,.36-.23,1.07,1.07,0,0,0,.25-.35,1.36,1.36,0,0,0,0-.92,1.07,1.07,0,0,0-.25-.35,1,1,0,0,0-.36-.23,1,1,0,0,0-.44-.09,1.13,1.13,0,0,0-.45.09,1.16,1.16,0,0,0-.36.23,1.21,1.21,0,0,0-.24.35A1.14,1.14,0,0,0,76.85,253.84ZM77,251.2a.92.92,0,0,0,.26.67.93.93,0,0,0,.69.27.9.9,0,0,0,.68-.27,1,1,0,0,0,0-1.34.9.9,0,0,0-.68-.27.93.93,0,0,0-.69.27A.92.92,0,0,0,77,251.2Z"/><path d="M80.52,252.62a5.77,5.77,0,0,1,.08-1,3.1,3.1,0,0,1,.29-1,2,2,0,0,1,.59-.71,1.6,1.6,0,0,1,1-.27,1.55,1.55,0,0,1,1,.27,1.94,1.94,0,0,1,.59.71,3.41,3.41,0,0,1,.3,1,7,7,0,0,1,.08,1,7.07,7.07,0,0,1-.08,1,3.45,3.45,0,0,1-.3.94,1.94,1.94,0,0,1-.59.71,1.55,1.55,0,0,1-1,.27,1.6,1.6,0,0,1-1-.27,2,2,0,0,1-.59-.71,3.13,3.13,0,0,1-.29-.94A5.85,5.85,0,0,1,80.52,252.62Zm.67,0a3.86,3.86,0,0,0,0,.46c0,.17,0,.34.05.52a4.07,4.07,0,0,0,.13.5,1.41,1.41,0,0,0,.23.44.92.92,0,0,0,.34.31.9.9,0,0,0,.48.12,1,1,0,0,0,.48-.12,1.1,1.1,0,0,0,.34-.31,1.65,1.65,0,0,0,.22-.44,2.83,2.83,0,0,0,.13-.5,4.88,4.88,0,0,0,.06-.52c0-.17,0-.33,0-.46s0-.3,0-.47a4.43,4.43,0,0,0-.06-.51,2.72,2.72,0,0,0-.13-.51,1.81,1.81,0,0,0-.22-.44,1.24,1.24,0,0,0-.34-.31,1,1,0,0,0-.48-.12.9.9,0,0,0-.48.12,1,1,0,0,0-.34.31,1.53,1.53,0,0,0-.23.44,3.8,3.8,0,0,0-.13.51c0,.17,0,.34-.05.51A3.94,3.94,0,0,0,81.19,252.62Z"/><line class="cls-2" x1="214.49" y1="253.42" x2="215.03" y2="253.42"/><line class="cls-2" x1="217.76" y1="253.42" x2="218.3" y2="253.42"/><line class="cls-2" x1="221.02" y1="253.42" x2="221.56" y2="253.42"/><line class="cls-2" x1="224.29" y1="253.42" x2="224.83" y2="253.42"/><line class="cls-2" x1="227.55" y1="253.42" x2="228.09" y2="253.42"/></g><g id="Serena_F65820"><path d="M54.48,12.17h4.39V13H55.32v2.34h3.3v.78h-3.3v3.18h-.84Z"/><path d="M61.2,15.12l0,0a1.77,1.77,0,0,1,.46-.16,3,3,0,0,1,.49-.05,2.38,2.38,0,0,1,.85.16,1.9,1.9,0,0,1,.68.46,2.11,2.11,0,0,1,.45.7,2.66,2.66,0,0,1,.16.9,2.27,2.27,0,0,1-.18.93,2,2,0,0,1-.5.7,2.48,2.48,0,0,1-.76.44,3,3,0,0,1-1.87,0,2.32,2.32,0,0,1-.75-.44,1.87,1.87,0,0,1-.5-.7,2.27,2.27,0,0,1-.18-.93,2.76,2.76,0,0,1,.19-1.07,5.42,5.42,0,0,1,.48-.92l1.88-3h1Zm.74.53a1.64,1.64,0,0,0-.6.11,1.44,1.44,0,0,0-.49.3,1.4,1.4,0,0,0-.32.47,1.59,1.59,0,0,0-.12.62,1.57,1.57,0,0,0,.12.63,1.4,1.4,0,0,0,.32.47,1.44,1.44,0,0,0,.49.3,1.64,1.64,0,0,0,.6.1,1.72,1.72,0,0,0,.6-.1,1.39,1.39,0,0,0,.48-.3,1.43,1.43,0,0,0,.33-.47,1.57,1.57,0,0,0,.12-.63,1.59,1.59,0,0,0-.12-.62,1.43,1.43,0,0,0-.33-.47,1.39,1.39,0,0,0-.48-.3A1.73,1.73,0,0,0,61.94,15.65Z"/><path d="M69.46,13H66.57l0,1.91a1.5,1.5,0,0,1,.44-.13,2.63,2.63,0,0,1,.47,0,2.25,2.25,0,0,1,.92.18,2,2,0,0,1,.72.49,2.15,2.15,0,0,1,.46.74,2.73,2.73,0,0,1,.16.92,2.33,2.33,0,0,1-.19,1,2.13,2.13,0,0,1-.51.74,2.31,2.31,0,0,1-.77.47,2.52,2.52,0,0,1-1,.17A2.18,2.18,0,0,1,66,19a2.34,2.34,0,0,1-.78-.94l.84-.32a1.58,1.58,0,0,0,.52.65,1.37,1.37,0,0,0,.8.24,1.63,1.63,0,0,0,.59-.11,1.47,1.47,0,0,0,.48-.33,1.65,1.65,0,0,0,.33-.52,1.78,1.78,0,0,0,.12-.67,1.67,1.67,0,0,0-.14-.69,1.34,1.34,0,0,0-.37-.5,1.49,1.49,0,0,0-.55-.31,2.26,2.26,0,0,0-.69-.11,2.18,2.18,0,0,0-.74.13,3.45,3.45,0,0,0-.7.31l.07-3.68h3.71Z"/><path d="M71,13.9a1.87,1.87,0,0,1,.15-.76,1.76,1.76,0,0,1,.43-.58,1.92,1.92,0,0,1,.64-.37,2.28,2.28,0,0,1,.8-.14,2.36,2.36,0,0,1,.8.14,2,2,0,0,1,.64.37,1.73,1.73,0,0,1,.42.58,1.88,1.88,0,0,1,.16.76,1.69,1.69,0,0,1-.08.5,1.8,1.8,0,0,1-.23.46,1.62,1.62,0,0,1-.37.37,1.19,1.19,0,0,1-.48.23v0a2,2,0,0,1,.58.24,1.68,1.68,0,0,1,.44.4,1.9,1.9,0,0,1,.28.55,2.19,2.19,0,0,1,.1.63,2.05,2.05,0,0,1-.18.87,1.93,1.93,0,0,1-.48.65,2,2,0,0,1-.72.41,2.54,2.54,0,0,1-.88.14,2.6,2.6,0,0,1-.89-.14,2.14,2.14,0,0,1-.72-.41,2.07,2.07,0,0,1-.48-.65,2,2,0,0,1-.17-.87,1.89,1.89,0,0,1,.1-.63,1.68,1.68,0,0,1,.28-.55,1.54,1.54,0,0,1,.44-.4,1.77,1.77,0,0,1,.58-.24v0a1.23,1.23,0,0,1-.49-.23,1.58,1.58,0,0,1-.36-.37,1.53,1.53,0,0,1-.23-.46A1.42,1.42,0,0,1,71,13.9Zm.6,3.34a1.32,1.32,0,0,0,.11.57,1.27,1.27,0,0,0,.3.45,1.51,1.51,0,0,0,.45.29,1.47,1.47,0,0,0,.56.1,1.42,1.42,0,0,0,.55-.1,1.51,1.51,0,0,0,.45-.29,1.44,1.44,0,0,0,.31-.45,1.48,1.48,0,0,0,.11-.57,1.56,1.56,0,0,0-.11-.57,1.4,1.4,0,0,0-.31-.44,1.34,1.34,0,0,0-.45-.29,1.42,1.42,0,0,0-.55-.11,1.47,1.47,0,0,0-.56.11,1.34,1.34,0,0,0-.45.29,1.23,1.23,0,0,0-.3.44A1.38,1.38,0,0,0,71.64,17.24Zm.24-3.3a1.17,1.17,0,0,0,.32.84,1.15,1.15,0,0,0,.86.33,1.17,1.17,0,1,0,0-2.34,1.15,1.15,0,0,0-.86.33A1.17,1.17,0,0,0,71.88,13.94Z"/><path d="M76.34,18.29,79,15.69l.44-.44a3.35,3.35,0,0,0,.31-.4,1.38,1.38,0,0,0,.19-.41A1.68,1.68,0,0,0,80,14a1.35,1.35,0,0,0-.1-.5,1.13,1.13,0,0,0-.28-.37,1,1,0,0,0-.41-.24,1.35,1.35,0,0,0-.5-.09,1.32,1.32,0,0,0-.89.31,1.36,1.36,0,0,0-.45.82l-.91-.08a2.07,2.07,0,0,1,.26-.76,1.9,1.9,0,0,1,.49-.56,2.21,2.21,0,0,1,.67-.33,2.72,2.72,0,0,1,1.63,0,1.93,1.93,0,0,1,.68.36,1.63,1.63,0,0,1,.47.6,1.84,1.84,0,0,1,.18.83,2.24,2.24,0,0,1-.12.76,2.31,2.31,0,0,1-.31.63,3.71,3.71,0,0,1-.44.54c-.16.17-.33.34-.51.5l-2.18,2.05v0H80.9v.78H76.34Z"/><path d="M81.78,15.71a7.88,7.88,0,0,1,.1-1.25,3.71,3.71,0,0,1,.37-1.18A2.41,2.41,0,0,1,83,12.4a2.22,2.22,0,0,1,2.39,0,2.44,2.44,0,0,1,.74.88,4,4,0,0,1,.37,1.18,9.26,9.26,0,0,1,.1,1.25,9.14,9.14,0,0,1-.1,1.25,4,4,0,0,1-.37,1.19,2.53,2.53,0,0,1-.74.88A2.27,2.27,0,0,1,83,19a2.5,2.5,0,0,1-.73-.88A3.77,3.77,0,0,1,81.88,17,7.79,7.79,0,0,1,81.78,15.71Zm.84,0c0,.18,0,.37,0,.58s0,.43.07.65a4.47,4.47,0,0,0,.16.63,2.19,2.19,0,0,0,.28.55,1.45,1.45,0,0,0,.43.39,1.21,1.21,0,0,0,.6.14,1.27,1.27,0,0,0,.6-.14,1.42,1.42,0,0,0,.42-.39,1.9,1.9,0,0,0,.28-.55,3.42,3.42,0,0,0,.16-.63c0-.22.06-.43.08-.65s0-.4,0-.58,0-.36,0-.58,0-.43-.08-.64a3.53,3.53,0,0,0-.16-.64,2,2,0,0,0-.28-.55,1.27,1.27,0,0,0-.42-.38,1.16,1.16,0,0,0-.6-.15,1.11,1.11,0,0,0-.6.15,1.3,1.3,0,0,0-.43.38,2.37,2.37,0,0,0-.28.55,4.61,4.61,0,0,0-.16.64c0,.21-.06.43-.07.64S82.62,15.54,82.62,15.71Z"/><path d="M87,20h5v.5H87Z"/><path d="M95.56,19.25h-.84v-6h0l-1.27,1.07-.5-.61,1.9-1.54h.73Z"/><path d="M99.56,15.17h.26a3.44,3.44,0,0,0,.54,0,1.28,1.28,0,0,0,.52-.17,1,1,0,0,0,.39-.37,1.16,1.16,0,0,0,.16-.65,1.09,1.09,0,0,0-.34-.85,1.21,1.21,0,0,0-.87-.32,1.51,1.51,0,0,0-.78.2,1.36,1.36,0,0,0-.52.59l-.81-.31a1.78,1.78,0,0,1,.81-.9,2.56,2.56,0,0,1,1.24-.3,2.63,2.63,0,0,1,.8.12,2.19,2.19,0,0,1,.68.35,1.88,1.88,0,0,1,.46.58,1.85,1.85,0,0,1,.17.8,1.6,1.6,0,0,1-.34,1,1.69,1.69,0,0,1-.87.61v0a1.86,1.86,0,0,1,.6.22,1.77,1.77,0,0,1,.46.4,1.8,1.8,0,0,1,.29.53,2.19,2.19,0,0,1,.1.63,2,2,0,0,1-.19.89,1.9,1.9,0,0,1-.51.64,2,2,0,0,1-.75.39,2.9,2.9,0,0,1-.89.13A2.68,2.68,0,0,1,98.76,19a2,2,0,0,1-.87-1.14l.85-.28a1.3,1.3,0,0,0,1.43,1,1.5,1.5,0,0,0,.56-.1,1.31,1.31,0,0,0,.45-.28,1.35,1.35,0,0,0,.31-.44,1.32,1.32,0,0,0,.12-.57,1.18,1.18,0,0,0-.16-.65,1.1,1.1,0,0,0-.41-.42,1.8,1.8,0,0,0-.57-.23,3.59,3.59,0,0,0-.65-.07h-.26Z"/><path d="M103.14,12.17h.93l1.61,5.88h0l1.74-5.88h.94l1.73,5.88h0l1.64-5.88h.88l-2.08,7.08h-.91l-1.75-6h0l-1.76,6h-.92Z"/><path d="M116.3,12.17h.84v6.3h3.24v.78H116.3Z"/><path d="M121.3,12.17h4.45V13h-3.61v2.22h3.37V16h-3.37v2.52h3.79v.78H121.3Z"/><path d="M127.1,12.17h2.72a4,4,0,0,1,.74.08,3.68,3.68,0,0,1,.77.26,3.57,3.57,0,0,1,.74.45,2.93,2.93,0,0,1,.63.68,3.33,3.33,0,0,1,.43.91,4.12,4.12,0,0,1,.16,1.16,4.19,4.19,0,0,1-.16,1.17,3.64,3.64,0,0,1-.43.91,2.88,2.88,0,0,1-.63.67,3.48,3.48,0,0,1-1.51.71,3.28,3.28,0,0,1-.74.08H127.1Zm.84,6.3h1.6a3.77,3.77,0,0,0,1.13-.16,2.26,2.26,0,0,0,1.5-1.35,3.29,3.29,0,0,0,.22-1.25,3.37,3.37,0,0,0-.22-1.25,2.42,2.42,0,0,0-.6-.85,2.48,2.48,0,0,0-.9-.5,4.11,4.11,0,0,0-1.13-.16h-1.6Z"/><rect class="cls-3" x="54.6" y="42.44" width="189.86" height="189.86"/><circle class="cls-4" cx="149.53" cy="137.32" r="15.77" transform="matrix(0.99, -0.16, 0.16, 0.99, -20.07, 25.73)"/><path d="M154,158.1h-2.31l0,1.53a1.08,1.08,0,0,1,.36-.11l.37,0a2,2,0,0,1,.74.14,1.75,1.75,0,0,1,.57.39,1.68,1.68,0,0,1,.37.6,2,2,0,0,1,.13.74,1.92,1.92,0,0,1-.15.77,1.65,1.65,0,0,1-.41.59,1.8,1.8,0,0,1-.61.38,2.19,2.19,0,0,1-.77.14,1.84,1.84,0,0,1-1-.28,2.06,2.06,0,0,1-.63-.76l.68-.25a1.16,1.16,0,0,0,.42.51,1.05,1.05,0,0,0,.63.2,1.28,1.28,0,0,0,.48-.09,1.1,1.1,0,0,0,.38-.27,1.15,1.15,0,0,0,.26-.41,1.32,1.32,0,0,0,.1-.53,1.4,1.4,0,0,0-.11-.56,1.08,1.08,0,0,0-.3-.4,1.26,1.26,0,0,0-.44-.25,2,2,0,0,0-.55-.08,1.78,1.78,0,0,0-.59.1,2.66,2.66,0,0,0-.57.25l.06-2.94h3Z"/><path d="M154.33,160.31a7,7,0,0,1,.08-1,2.86,2.86,0,0,1,.3-.95,1.9,1.9,0,0,1,.58-.7,1.79,1.79,0,0,1,1.92,0,1.9,1.9,0,0,1,.58.7,2.86,2.86,0,0,1,.3.95,7,7,0,0,1,.08,1,7.07,7.07,0,0,1-.08,1,3,3,0,0,1-.3.95,2,2,0,0,1-.58.7,1.79,1.79,0,0,1-1.92,0,2,2,0,0,1-.58-.7,3,3,0,0,1-.3-.95A7.07,7.07,0,0,1,154.33,160.31Zm.67,0c0,.14,0,.29,0,.46a4.88,4.88,0,0,0,.06.52,2.83,2.83,0,0,0,.13.5,1.57,1.57,0,0,0,.22.45,1.08,1.08,0,0,0,.34.3,1,1,0,0,0,1,0,1.08,1.08,0,0,0,.34-.3,1.57,1.57,0,0,0,.22-.45,2.83,2.83,0,0,0,.13-.5,4.88,4.88,0,0,0,.06-.52c0-.17,0-.32,0-.46s0-.3,0-.47a4.43,4.43,0,0,0-.06-.51,2.72,2.72,0,0,0-.13-.51,1.51,1.51,0,0,0-.22-.44,1.12,1.12,0,0,0-.34-.31,1.1,1.1,0,0,0-1,0,1.12,1.12,0,0,0-.34.31,1.51,1.51,0,0,0-.22.44,2.72,2.72,0,0,0-.13.51,4.43,4.43,0,0,0-.06.51C155,160,155,160.17,155,160.31Z"/><path d="M158.18,160.31a7,7,0,0,1,.08-1,3.1,3.1,0,0,1,.29-.95,1.92,1.92,0,0,1,.59-.7,1.54,1.54,0,0,1,1-.28,1.49,1.49,0,0,1,1,.28,1.83,1.83,0,0,1,.59.7,3.11,3.11,0,0,1,.3.95,7,7,0,0,1,.08,1,7.07,7.07,0,0,1-.08,1,3.3,3.3,0,0,1-.3.95,1.91,1.91,0,0,1-.59.7,1.55,1.55,0,0,1-1,.28,1.61,1.61,0,0,1-1-.28,2,2,0,0,1-.59-.7,3.28,3.28,0,0,1-.29-.95A7.07,7.07,0,0,1,158.18,160.31Zm.67,0c0,.14,0,.29,0,.46a4.88,4.88,0,0,0,.06.52,4.05,4.05,0,0,0,.12.5,1.59,1.59,0,0,0,.23.45,1,1,0,0,0,.34.3.9.9,0,0,0,.48.12,1,1,0,0,0,.48-.12,1.21,1.21,0,0,0,.34-.3,1.57,1.57,0,0,0,.22-.45,2.83,2.83,0,0,0,.13-.5,4.88,4.88,0,0,0,.06-.52c0-.17,0-.32,0-.46s0-.3,0-.47a4.43,4.43,0,0,0-.06-.51,2.72,2.72,0,0,0-.13-.51,1.51,1.51,0,0,0-.22-.44,1.24,1.24,0,0,0-.34-.31,1,1,0,0,0-.48-.11.9.9,0,0,0-.48.11,1,1,0,0,0-.34.31,1.53,1.53,0,0,0-.23.44,3.81,3.81,0,0,0-.12.51,4.43,4.43,0,0,0-.06.51C158.86,160,158.85,160.17,158.85,160.31Z"/><circle class="cls-4" cx="149.53" cy="137.32" r="31.59" transform="translate(-25.25 34.03) rotate(-11.98)"/><path d="M153.06,179h-.67v-4.8h0l-1,.86-.4-.49,1.52-1.23h.59Z"/><path d="M154.33,176.13a7.07,7.07,0,0,1,.08-1,2.94,2.94,0,0,1,.3-.95,2,2,0,0,1,.58-.7,1.79,1.79,0,0,1,1.92,0,2,2,0,0,1,.58.7,2.94,2.94,0,0,1,.3.95,6.29,6.29,0,0,1,0,2,2.94,2.94,0,0,1-.3,1,2,2,0,0,1-.58.7,1.79,1.79,0,0,1-1.92,0,2,2,0,0,1-.58-.7,2.94,2.94,0,0,1-.3-1A7.07,7.07,0,0,1,154.33,176.13Zm.67,0c0,.14,0,.29,0,.46a4.6,4.6,0,0,0,.06.52,3.18,3.18,0,0,0,.13.51,1.65,1.65,0,0,0,.22.44,1.12,1.12,0,0,0,.34.31,1.1,1.1,0,0,0,1,0,1.12,1.12,0,0,0,.34-.31,1.65,1.65,0,0,0,.22-.44,3.18,3.18,0,0,0,.13-.51,4.6,4.6,0,0,0,.06-.52c0-.17,0-.32,0-.46s0-.29,0-.46a4.35,4.35,0,0,0-.06-.52,3.18,3.18,0,0,0-.13-.51,1.65,1.65,0,0,0-.22-.44,1.12,1.12,0,0,0-.34-.31,1.1,1.1,0,0,0-1,0,1.12,1.12,0,0,0-.34.31,1.65,1.65,0,0,0-.22.44,3.18,3.18,0,0,0-.13.51,4.35,4.35,0,0,0-.06.52C155,175.84,155,176,155,176.13Z"/><path d="M158.18,176.13a7.07,7.07,0,0,1,.08-1,3.19,3.19,0,0,1,.29-.95,2,2,0,0,1,.59-.7,1.54,1.54,0,0,1,1-.28,1.49,1.49,0,0,1,1,.28,1.91,1.91,0,0,1,.59.7,3.2,3.2,0,0,1,.3.95,6.29,6.29,0,0,1,0,2,3.2,3.2,0,0,1-.3,1,1.91,1.91,0,0,1-.59.7,1.55,1.55,0,0,1-1,.28,1.61,1.61,0,0,1-1-.28,2,2,0,0,1-.59-.7,3.19,3.19,0,0,1-.29-1A7.07,7.07,0,0,1,158.18,176.13Zm.67,0c0,.14,0,.29,0,.46a4.6,4.6,0,0,0,.06.52,4.7,4.7,0,0,0,.12.51,1.67,1.67,0,0,0,.23.44,1,1,0,0,0,.34.31,1,1,0,0,0,.48.11,1.06,1.06,0,0,0,.48-.11,1.24,1.24,0,0,0,.34-.31,1.65,1.65,0,0,0,.22-.44,3.18,3.18,0,0,0,.13-.51,4.6,4.6,0,0,0,.06-.52c0-.17,0-.32,0-.46s0-.29,0-.46a4.35,4.35,0,0,0-.06-.52,3.18,3.18,0,0,0-.13-.51,1.65,1.65,0,0,0-.22-.44,1.24,1.24,0,0,0-.34-.31,1.06,1.06,0,0,0-.48-.11,1,1,0,0,0-.48.11,1,1,0,0,0-.34.31,1.67,1.67,0,0,0-.23.44,4.7,4.7,0,0,0-.12.51,4.35,4.35,0,0,0-.06.52C158.86,175.84,158.85,176,158.85,176.13Z"/><path d="M162,176.13a5.85,5.85,0,0,1,.08-1,3.19,3.19,0,0,1,.29-.95,2,2,0,0,1,.59-.7,1.54,1.54,0,0,1,1-.28,1.51,1.51,0,0,1,1,.28,1.91,1.91,0,0,1,.59.7,3.52,3.52,0,0,1,.3.95,6.29,6.29,0,0,1,0,2,3.52,3.52,0,0,1-.3,1,1.91,1.91,0,0,1-.59.7,1.57,1.57,0,0,1-1,.28,1.61,1.61,0,0,1-1-.28,2,2,0,0,1-.59-.7,3.19,3.19,0,0,1-.29-1A5.85,5.85,0,0,1,162,176.13Zm.67,0c0,.14,0,.29,0,.46l.06.52a4.77,4.77,0,0,0,.13.51,1.67,1.67,0,0,0,.23.44,1,1,0,0,0,.34.31,1,1,0,0,0,.48.11,1.06,1.06,0,0,0,.48-.11,1.24,1.24,0,0,0,.34-.31,2,2,0,0,0,.22-.44,3.18,3.18,0,0,0,.13-.51,4.6,4.6,0,0,0,.06-.52c0-.17,0-.32,0-.46s0-.29,0-.46a4.35,4.35,0,0,0-.06-.52,3.18,3.18,0,0,0-.13-.51,2,2,0,0,0-.22-.44,1.24,1.24,0,0,0-.34-.31,1.06,1.06,0,0,0-.48-.11,1,1,0,0,0-.48.11,1,1,0,0,0-.34.31,1.67,1.67,0,0,0-.23.44,4.77,4.77,0,0,0-.13.51l-.06.52C162.7,175.84,162.7,176,162.7,176.13Z"/><circle class="cls-4" cx="149.53" cy="137.32" r="47.41"/><path d="M153.06,194.78h-.67V190h0l-1,.86-.4-.49,1.52-1.23h.59Z"/><path d="M157.82,189.74h-2.31l0,1.53a1.37,1.37,0,0,1,.36-.11l.37,0a1.78,1.78,0,0,1,.74.15,1.61,1.61,0,0,1,.57.39,1.69,1.69,0,0,1,.37.59,2,2,0,0,1,.13.74,1.92,1.92,0,0,1-.15.77,1.65,1.65,0,0,1-.41.59,1.75,1.75,0,0,1-.61.38,2.21,2.21,0,0,1-.78.14,1.73,1.73,0,0,1-1-.28,2.11,2.11,0,0,1-.63-.75l.67-.26a1.34,1.34,0,0,0,.42.52,1.1,1.1,0,0,0,.64.19,1.28,1.28,0,0,0,.48-.09A1.22,1.22,0,0,0,157,194a1.25,1.25,0,0,0,.26-.41,1.57,1.57,0,0,0,.1-.54,1.35,1.35,0,0,0-.11-.55,1.12,1.12,0,0,0-.3-.41,1.26,1.26,0,0,0-.44-.25,2,2,0,0,0-.55-.08,1.84,1.84,0,0,0-.6.1,3.17,3.17,0,0,0-.56.25l.06-2.94h3Z"/><path d="M158.18,192a7.07,7.07,0,0,1,.08-1,3.19,3.19,0,0,1,.29-.95,2,2,0,0,1,.59-.7,1.61,1.61,0,0,1,1-.28,1.55,1.55,0,0,1,1,.28,1.91,1.91,0,0,1,.59.7,3.2,3.2,0,0,1,.3.95,6.29,6.29,0,0,1,0,2,3.2,3.2,0,0,1-.3,1,1.91,1.91,0,0,1-.59.7,1.49,1.49,0,0,1-1,.28,1.54,1.54,0,0,1-1-.28,2,2,0,0,1-.59-.7,3.19,3.19,0,0,1-.29-1A7.07,7.07,0,0,1,158.18,192Zm.67,0c0,.14,0,.29,0,.47a4.43,4.43,0,0,0,.06.51,4.7,4.7,0,0,0,.12.51,1.67,1.67,0,0,0,.23.44,1,1,0,0,0,.34.31,1,1,0,0,0,.48.11,1.06,1.06,0,0,0,.48-.11,1.24,1.24,0,0,0,.34-.31,1.65,1.65,0,0,0,.22-.44,3.18,3.18,0,0,0,.13-.51,4.43,4.43,0,0,0,.06-.51c0-.18,0-.33,0-.47s0-.29,0-.46a4.6,4.6,0,0,0-.06-.52,3.18,3.18,0,0,0-.13-.51,1.65,1.65,0,0,0-.22-.44,1.24,1.24,0,0,0-.34-.31,1.06,1.06,0,0,0-.48-.11,1,1,0,0,0-.48.11,1,1,0,0,0-.34.31,1.67,1.67,0,0,0-.23.44,4.7,4.7,0,0,0-.12.51,4.6,4.6,0,0,0-.06.52C158.86,191.66,158.85,191.81,158.85,192Z"/><path d="M162,192a5.85,5.85,0,0,1,.08-1,3.19,3.19,0,0,1,.29-.95,2,2,0,0,1,.59-.7,1.61,1.61,0,0,1,1-.28,1.57,1.57,0,0,1,1,.28,1.91,1.91,0,0,1,.59.7,3.52,3.52,0,0,1,.3.95,6.29,6.29,0,0,1,0,2,3.52,3.52,0,0,1-.3,1,1.91,1.91,0,0,1-.59.7,1.51,1.51,0,0,1-1,.28,1.54,1.54,0,0,1-1-.28,2,2,0,0,1-.59-.7,3.19,3.19,0,0,1-.29-1A5.85,5.85,0,0,1,162,192Zm.67,0c0,.14,0,.29,0,.47l.06.51a4.77,4.77,0,0,0,.13.51,1.67,1.67,0,0,0,.23.44,1,1,0,0,0,.34.31,1,1,0,0,0,.48.11,1.06,1.06,0,0,0,.48-.11,1.24,1.24,0,0,0,.34-.31,2,2,0,0,0,.22-.44,3.18,3.18,0,0,0,.13-.51,4.43,4.43,0,0,0,.06-.51c0-.18,0-.33,0-.47s0-.29,0-.46a4.6,4.6,0,0,0-.06-.52,3.18,3.18,0,0,0-.13-.51,2,2,0,0,0-.22-.44,1.24,1.24,0,0,0-.34-.31,1.06,1.06,0,0,0-.48-.11,1,1,0,0,0-.48.11,1,1,0,0,0-.34.31,1.67,1.67,0,0,0-.23.44,4.77,4.77,0,0,0-.13.51l-.06.52C162.7,191.66,162.7,191.81,162.7,192Z"/><circle class="cls-4" cx="149.53" cy="137.32" r="63.23"/><path d="M150.58,209.84l2.13-2.08.36-.36a2.33,2.33,0,0,0,.25-.32,1.87,1.87,0,0,0,.15-.32,1.48,1.48,0,0,0,0-.38.87.87,0,0,0-.08-.4.73.73,0,0,0-.22-.3,1.13,1.13,0,0,0-.32-.19,1.1,1.1,0,0,0-.41-.07,1,1,0,0,0-.71.25,1.08,1.08,0,0,0-.36.66l-.73-.07a1.91,1.91,0,0,1,.21-.61,1.42,1.42,0,0,1,.4-.44,1.56,1.56,0,0,1,.53-.27,2.15,2.15,0,0,1,.64-.09,2.07,2.07,0,0,1,.66.1,1.53,1.53,0,0,1,.55.29,1.5,1.5,0,0,1,.38.48,1.53,1.53,0,0,1,.14.66,1.66,1.66,0,0,1-.1.61,2.1,2.1,0,0,1-.24.5,3.73,3.73,0,0,1-.36.43c-.13.14-.26.27-.41.41L151.34,210h2.89v.63h-3.65Z"/><path d="M154.33,207.77a7.07,7.07,0,0,1,.08-1,2.88,2.88,0,0,1,.3-.94,2,2,0,0,1,.58-.71,1.84,1.84,0,0,1,1.92,0,2,2,0,0,1,.58.71,2.88,2.88,0,0,1,.3.94,7.07,7.07,0,0,1,.08,1,7,7,0,0,1-.08,1,2.86,2.86,0,0,1-.3.95,2,2,0,0,1-.58.71,1.84,1.84,0,0,1-1.92,0,2,2,0,0,1-.58-.71,2.86,2.86,0,0,1-.3-.95A7,7,0,0,1,154.33,207.77Zm.67,0c0,.14,0,.3,0,.47a4.43,4.43,0,0,0,.06.51,2.72,2.72,0,0,0,.13.51,1.51,1.51,0,0,0,.22.44,1.12,1.12,0,0,0,.34.31,1.1,1.1,0,0,0,1,0,1.12,1.12,0,0,0,.34-.31,1.51,1.51,0,0,0,.22-.44,2.72,2.72,0,0,0,.13-.51,4.43,4.43,0,0,0,.06-.51c0-.17,0-.33,0-.47s0-.29,0-.46a4.88,4.88,0,0,0-.06-.52,2.83,2.83,0,0,0-.13-.5,1.4,1.4,0,0,0-.22-.44,1.12,1.12,0,0,0-.34-.31,1,1,0,0,0-1,0,1.12,1.12,0,0,0-.34.31,1.4,1.4,0,0,0-.22.44,2.83,2.83,0,0,0-.13.5,4.88,4.88,0,0,0-.06.52C155,207.48,155,207.63,155,207.77Z"/><path d="M158.18,207.77a7.07,7.07,0,0,1,.08-1,3.13,3.13,0,0,1,.29-.94,2,2,0,0,1,.59-.71,1.6,1.6,0,0,1,1-.27,1.55,1.55,0,0,1,1,.27,1.94,1.94,0,0,1,.59.71,3.14,3.14,0,0,1,.3.94,7.07,7.07,0,0,1,.08,1,7,7,0,0,1-.08,1,3.11,3.11,0,0,1-.3.95,1.94,1.94,0,0,1-.59.71,1.55,1.55,0,0,1-1,.27,1.6,1.6,0,0,1-1-.27,2,2,0,0,1-.59-.71,3.1,3.1,0,0,1-.29-.95A7,7,0,0,1,158.18,207.77Zm.67,0c0,.14,0,.3,0,.47a4.43,4.43,0,0,0,.06.51,3.81,3.81,0,0,0,.12.51,1.53,1.53,0,0,0,.23.44,1,1,0,0,0,.34.31.9.9,0,0,0,.48.11,1,1,0,0,0,.48-.11,1.24,1.24,0,0,0,.34-.31,1.51,1.51,0,0,0,.22-.44,2.72,2.72,0,0,0,.13-.51,4.43,4.43,0,0,0,.06-.51c0-.17,0-.33,0-.47s0-.29,0-.46a4.88,4.88,0,0,0-.06-.52,2.83,2.83,0,0,0-.13-.5,1.4,1.4,0,0,0-.22-.44,1.24,1.24,0,0,0-.34-.31,1,1,0,0,0-.48-.12.9.9,0,0,0-.48.12,1,1,0,0,0-.34.31,1.41,1.41,0,0,0-.23.44,4.05,4.05,0,0,0-.12.5,4.88,4.88,0,0,0-.06.52C158.86,207.48,158.85,207.63,158.85,207.77Z"/><path d="M162,207.77a5.85,5.85,0,0,1,.08-1,3.13,3.13,0,0,1,.29-.94,2,2,0,0,1,.59-.71,1.6,1.6,0,0,1,1-.27,1.57,1.57,0,0,1,1,.27,1.94,1.94,0,0,1,.59.71,3.45,3.45,0,0,1,.3.94,7.07,7.07,0,0,1,.08,1,7,7,0,0,1-.08,1,3.41,3.41,0,0,1-.3.95,1.94,1.94,0,0,1-.59.71,1.57,1.57,0,0,1-1,.27,1.6,1.6,0,0,1-1-.27,2,2,0,0,1-.59-.71,3.1,3.1,0,0,1-.29-.95A5.77,5.77,0,0,1,162,207.77Zm.67,0c0,.14,0,.3,0,.47l.06.51a3.8,3.8,0,0,0,.13.51,1.53,1.53,0,0,0,.23.44,1,1,0,0,0,.34.31.9.9,0,0,0,.48.11,1,1,0,0,0,.48-.11,1.24,1.24,0,0,0,.34-.31,1.81,1.81,0,0,0,.22-.44,2.72,2.72,0,0,0,.13-.51,4.43,4.43,0,0,0,.06-.51c0-.17,0-.33,0-.47s0-.29,0-.46a4.88,4.88,0,0,0-.06-.52,2.83,2.83,0,0,0-.13-.5,1.65,1.65,0,0,0-.22-.44,1.24,1.24,0,0,0-.34-.31,1,1,0,0,0-.48-.12.9.9,0,0,0-.48.12,1,1,0,0,0-.34.31,1.41,1.41,0,0,0-.23.44,4.07,4.07,0,0,0-.13.5l-.06.52C162.7,207.48,162.7,207.63,162.7,207.77Z"/><circle class="cls-4" cx="149.53" cy="137.32" r="79.06"/><path d="M150.58,225.66l2.13-2.08.36-.36a2.33,2.33,0,0,0,.25-.32,1.87,1.87,0,0,0,.15-.32,1.48,1.48,0,0,0,0-.38.87.87,0,0,0-.08-.4.89.89,0,0,0-.22-.3,1.13,1.13,0,0,0-.32-.19,1.35,1.35,0,0,0-.41-.07,1.06,1.06,0,0,0-.71.25,1.13,1.13,0,0,0-.36.66l-.73-.07a1.91,1.91,0,0,1,.21-.61,1.54,1.54,0,0,1,.4-.44,1.56,1.56,0,0,1,.53-.27,2.15,2.15,0,0,1,.64-.09,2.07,2.07,0,0,1,.66.1,1.53,1.53,0,0,1,.55.29,1.5,1.5,0,0,1,.38.48,1.53,1.53,0,0,1,.14.66,1.66,1.66,0,0,1-.1.61,2.1,2.1,0,0,1-.24.5,3.73,3.73,0,0,1-.36.43l-.41.41-1.74,1.64h2.89v.63h-3.65Z"/><path d="M157.82,221.39h-2.31l0,1.53a1.08,1.08,0,0,1,.36-.11l.37,0a2,2,0,0,1,.74.14,1.61,1.61,0,0,1,.57.39,1.9,1.9,0,0,1,.37.59,2,2,0,0,1,.13.74,2,2,0,0,1-.15.78,1.74,1.74,0,0,1-.41.59,1.91,1.91,0,0,1-.61.38,2.2,2.2,0,0,1-.78.13,1.73,1.73,0,0,1-1-.28,2,2,0,0,1-.63-.75l.67-.25a1.31,1.31,0,0,0,.42.51,1.1,1.1,0,0,0,.64.2,1.28,1.28,0,0,0,.48-.09,1.26,1.26,0,0,0,.38-.27,1.15,1.15,0,0,0,.26-.41,1.53,1.53,0,0,0,.1-.54,1.38,1.38,0,0,0-.11-.55,1.08,1.08,0,0,0-.3-.4,1.26,1.26,0,0,0-.44-.25,1.67,1.67,0,0,0-.55-.08,1.84,1.84,0,0,0-.6.1,2.58,2.58,0,0,0-.56.25l.06-3h3Z"/><path d="M158.18,223.6a7,7,0,0,1,.08-1,3.1,3.1,0,0,1,.29-.95,2,2,0,0,1,.59-.71,1.6,1.6,0,0,1,1-.27,1.55,1.55,0,0,1,1,.27,1.94,1.94,0,0,1,.59.71,3.11,3.11,0,0,1,.3.95,7,7,0,0,1,.08,1,7.07,7.07,0,0,1-.08,1,3.14,3.14,0,0,1-.3.94,1.94,1.94,0,0,1-.59.71,1.55,1.55,0,0,1-1,.27,1.6,1.6,0,0,1-1-.27,2,2,0,0,1-.59-.71,3.13,3.13,0,0,1-.29-.94A7.07,7.07,0,0,1,158.18,223.6Zm.67,0c0,.13,0,.29,0,.46a4.88,4.88,0,0,0,.06.52,4.05,4.05,0,0,0,.12.5,1.41,1.41,0,0,0,.23.44,1,1,0,0,0,.34.31.9.9,0,0,0,.48.12,1,1,0,0,0,.48-.12,1.24,1.24,0,0,0,.34-.31,1.4,1.4,0,0,0,.22-.44,2.83,2.83,0,0,0,.13-.5,4.88,4.88,0,0,0,.06-.52c0-.17,0-.33,0-.46s0-.3,0-.47a4.43,4.43,0,0,0-.06-.51,2.72,2.72,0,0,0-.13-.51,1.51,1.51,0,0,0-.22-.44,1.24,1.24,0,0,0-.34-.31,1,1,0,0,0-.48-.12.9.9,0,0,0-.48.12,1,1,0,0,0-.34.31,1.53,1.53,0,0,0-.23.44,3.81,3.81,0,0,0-.12.51,4.43,4.43,0,0,0-.06.51C158.86,223.3,158.85,223.46,158.85,223.6Z"/><path d="M162,223.6a5.77,5.77,0,0,1,.08-1,3.1,3.1,0,0,1,.29-.95,2,2,0,0,1,.59-.71,1.6,1.6,0,0,1,1-.27,1.57,1.57,0,0,1,1,.27,1.94,1.94,0,0,1,.59.71,3.41,3.41,0,0,1,.3.95,7,7,0,0,1,.08,1,7.07,7.07,0,0,1-.08,1,3.45,3.45,0,0,1-.3.94,1.94,1.94,0,0,1-.59.71,1.57,1.57,0,0,1-1,.27,1.6,1.6,0,0,1-1-.27,2,2,0,0,1-.59-.71,3.13,3.13,0,0,1-.29-.94A5.85,5.85,0,0,1,162,223.6Zm.67,0c0,.13,0,.29,0,.46l.06.52a4.07,4.07,0,0,0,.13.5,1.41,1.41,0,0,0,.23.44,1,1,0,0,0,.34.31.9.9,0,0,0,.48.12,1,1,0,0,0,.48-.12,1.24,1.24,0,0,0,.34-.31,1.65,1.65,0,0,0,.22-.44,2.83,2.83,0,0,0,.13-.5,4.88,4.88,0,0,0,.06-.52c0-.17,0-.33,0-.46s0-.3,0-.47a4.43,4.43,0,0,0-.06-.51,2.72,2.72,0,0,0-.13-.51,1.81,1.81,0,0,0-.22-.44,1.24,1.24,0,0,0-.34-.31,1,1,0,0,0-.48-.12.9.9,0,0,0-.48.12,1,1,0,0,0-.34.31,1.53,1.53,0,0,0-.23.44,3.8,3.8,0,0,0-.13.51l-.06.51C162.7,223.3,162.7,223.46,162.7,223.6Z"/><circle class="cls-4" cx="149.53" cy="137.32" r="94.93"/><line class="cls-4" x1="54.6" y1="137.38" x2="244.51" y2="137.38"/><line class="cls-4" x1="149.53" y1="232.31" x2="149.53" y2="42.39"/><line class="cls-4" x1="94.77" y1="42.39" x2="204.34" y2="232.31"/><line class="cls-4" x1="94.77" y1="232.31" x2="204.34" y2="42.39"/><line class="cls-4" x1="54.6" y1="82.57" x2="244.51" y2="192.13"/><line class="cls-4" x1="54.6" y1="192.13" x2="244.51" y2="82.57"/><line class="cls-1" x1="149.53" y1="137.38" x2="149.53" y2="137.38"/><line class="cls-1" x1="149.53" y1="137.38" x2="149.53" y2="137.38"/><line class="cls-1" x1="149.53" y1="137.38" x2="149.53" y2="137.38"/><line class="cls-1" x1="149.53" y1="137.38" x2="149.53" y2="137.38"/><line class="cls-1" x1="149.53" y1="137.38" x2="149.53" y2="137.43"/><line class="cls-1" x1="149.53" y1="137.43" x2="149.53" y2="137.38"/><line class="cls-1" x1="149.53" y1="137.38" x2="149.53" y2="137.38"/><line class="cls-1" x1="149.53" y1="137.38" x2="149.53" y2="137.43"/><line class="cls-1" x1="149.53" y1="137.43" x2="149.53" y2="137.43"/><line class="cls-1" x1="149.53" y1="137.43" x2="149.53" y2="137.43"/><line class="cls-1" x1="149.53" y1="137.43" x2="149.53" y2="137.43"/><line class="cls-1" x1="149.53" y1="137.43" x2="149.53" y2="137.43"/><line class="cls-1" x1="149.53" y1="137.43" x2="149.53" y2="137.43"/><line class="cls-1" x1="149.53" y1="137.43" x2="149.53" y2="137.43"/><line class="cls-1" x1="149.53" y1="137.43" x2="149.53" y2="137.43"/><line class="cls-1" x1="149.53" y1="137.43" x2="149.58" y2="137.43"/><line class="cls-1" x1="149.58" y1="137.43" x2="149.58" y2="137.43"/><line class="cls-1" x1="149.58" y1="137.43" x2="149.58" y2="137.48"/><line class="cls-1" x1="149.58" y1="137.48" x2="149.58" y2="137.54"/><line class="cls-1" x1="149.58" y1="137.54" x2="149.64" y2="137.59"/><line class="cls-1" x1="149.64" y1="137.59" x2="149.64" y2="137.65"/><line class="cls-1" x1="149.64" y1="137.65" x2="149.69" y2="137.75"/><line class="cls-1" x1="149.69" y1="137.75" x2="149.74" y2="137.86"/><line class="cls-1" x1="149.74" y1="137.86" x2="149.8" y2="137.97"/><line class="cls-1" x1="149.8" y1="137.97" x2="149.85" y2="138.08"/><line class="cls-1" x1="149.85" y1="138.08" x2="149.96" y2="138.19"/><line class="cls-1" x1="149.96" y1="138.19" x2="150.01" y2="138.29"/><line class="cls-1" x1="150.01" y1="138.29" x2="150.12" y2="138.4"/><line class="cls-1" x1="150.12" y1="138.4" x2="150.18" y2="138.46"/><line class="cls-1" x1="150.18" y1="138.46" x2="150.23" y2="138.56"/><line class="cls-1" x1="150.23" y1="138.56" x2="150.28" y2="138.62"/><line class="cls-1" x1="150.28" y1="138.62" x2="150.39" y2="138.67"/><line class="cls-1" x1="150.39" y1="138.67" x2="150.45" y2="138.73"/><line class="cls-1" x1="150.45" y1="138.73" x2="150.5" y2="138.78"/><line class="cls-1" x1="150.5" y1="138.78" x2="150.55" y2="138.78"/><line class="cls-1" x1="150.55" y1="138.78" x2="150.66" y2="138.83"/><line class="cls-1" x1="150.66" y1="138.83" x2="150.72" y2="138.89"/><line class="cls-1" x1="150.72" y1="138.89" x2="150.77" y2="138.89"/><line class="cls-1" x1="150.77" y1="138.89" x2="150.82" y2="138.94"/><line class="cls-1" x1="150.82" y1="138.94" x2="150.93" y2="139"/><line class="cls-1" x1="150.93" y1="139" x2="150.99" y2="139"/><line class="cls-1" x1="150.99" y1="139" x2="151.04" y2="139"/><line class="cls-1" x1="151.04" y1="139" x2="151.15" y2="139.05"/><line class="cls-1" x1="151.15" y1="139.05" x2="151.2" y2="139.05"/><line class="cls-1" x1="151.2" y1="139.05" x2="151.26" y2="139.05"/><line class="cls-1" x1="151.26" y1="139.05" x2="151.36" y2="139.1"/><line class="cls-1" x1="151.36" y1="139.1" x2="151.47" y2="139.1"/><line class="cls-1" x1="151.47" y1="139.1" x2="151.53" y2="139.1"/><line class="cls-1" x1="151.53" y1="139.1" x2="151.58" y2="139.1"/><line class="cls-1" x1="151.58" y1="139.1" x2="151.69" y2="139.1"/><line class="cls-1" x1="151.69" y1="139.1" x2="151.74" y2="139.1"/><line class="cls-1" x1="151.74" y1="139.1" x2="151.85" y2="139.1"/><line class="cls-1" x1="151.85" y1="139.1" x2="151.9" y2="139.1"/><line class="cls-1" x1="151.9" y1="139.1" x2="152.01" y2="139.1"/><line class="cls-1" x1="152.01" y1="139.1" x2="152.07" y2="139.1"/><line class="cls-1" x1="152.07" y1="139.1" x2="152.17" y2="139.1"/><line class="cls-1" x1="152.17" y1="139.1" x2="152.23" y2="139.1"/><line class="cls-1" x1="152.23" y1="139.1" x2="152.34" y2="139.05"/><line class="cls-1" x1="152.34" y1="139.05" x2="152.39" y2="139.05"/><line class="cls-1" x1="152.39" y1="139.05" x2="152.5" y2="139.05"/><line class="cls-1" x1="152.5" y1="139.05" x2="152.55" y2="139"/><line class="cls-1" x1="152.55" y1="139" x2="152.66" y2="139"/><line class="cls-1" x1="152.66" y1="139" x2="152.71" y2="138.94"/><line class="cls-1" x1="152.71" y1="138.94" x2="152.82" y2="138.94"/><line class="cls-1" x1="152.82" y1="138.94" x2="152.88" y2="138.89"/><line class="cls-1" x1="152.88" y1="138.89" x2="152.93" y2="138.83"/><line class="cls-1" x1="152.93" y1="138.83" x2="153.04" y2="138.83"/><line class="cls-1" x1="153.04" y1="138.83" x2="153.09" y2="138.78"/><line class="cls-1" x1="153.09" y1="138.78" x2="153.15" y2="138.73"/><line class="cls-1" x1="153.15" y1="138.73" x2="153.25" y2="138.67"/><line class="cls-1" x1="153.25" y1="138.67" x2="153.31" y2="138.62"/><line class="cls-1" x1="153.31" y1="138.62" x2="153.36" y2="138.56"/><line class="cls-1" x1="153.36" y1="138.56" x2="153.42" y2="138.51"/><line class="cls-1" x1="153.42" y1="138.51" x2="153.47" y2="138.46"/><line class="cls-1" x1="153.47" y1="138.46" x2="153.58" y2="138.4"/><line class="cls-1" x1="153.58" y1="138.4" x2="153.63" y2="138.35"/><line class="cls-1" x1="153.63" y1="138.35" x2="153.69" y2="138.29"/><line class="cls-1" x1="153.69" y1="138.29" x2="153.69" y2="138.19"/><line class="cls-1" x1="153.69" y1="138.19" x2="153.74" y2="138.13"/><line class="cls-1" x1="153.74" y1="138.13" x2="153.79" y2="138.08"/><line class="cls-1" x1="153.79" y1="138.08" x2="153.85" y2="138.02"/><line class="cls-1" x1="153.85" y1="138.02" x2="153.9" y2="137.92"/><line class="cls-1" x1="153.9" y1="137.92" x2="153.9" y2="137.86"/><line class="cls-1" x1="153.9" y1="137.86" x2="153.96" y2="137.81"/><line class="cls-1" x1="153.96" y1="137.81" x2="153.96" y2="137.7"/><line class="cls-1" x1="153.96" y1="137.7" x2="154.01" y2="137.65"/><line class="cls-1" x1="154.01" y1="137.65" x2="154.01" y2="137.54"/><line class="cls-1" x1="154.01" y1="137.54" x2="154.01" y2="137.48"/><line class="cls-1" x1="154.01" y1="137.48" x2="154.01" y2="137.38"/><line class="cls-1" x1="154.01" y1="137.38" x2="154.01" y2="137.38"/><line class="cls-1" x1="154.01" y1="137.38" x2="154.01" y2="137.32"/><line class="cls-1" x1="154.01" y1="137.32" x2="154.01" y2="137.21"/><line class="cls-1" x1="154.01" y1="137.21" x2="154.01" y2="137.16"/><line class="cls-1" x1="154.01" y1="137.16" x2="154.01" y2="137.05"/><line class="cls-1" x1="154.01" y1="137.05" x2="154.01" y2="137"/><line class="cls-1" x1="154.01" y1="137" x2="154.01" y2="136.89"/><line class="cls-1" x1="154.01" y1="136.89" x2="154.01" y2="136.84"/><line class="cls-1" x1="154.01" y1="136.84" x2="153.96" y2="136.73"/><line class="cls-1" x1="153.96" y1="136.73" x2="153.96" y2="136.67"/><line class="cls-1" x1="153.96" y1="136.67" x2="153.96" y2="136.62"/><line class="cls-1" x1="153.96" y1="136.62" x2="153.9" y2="136.51"/><line class="cls-1" x1="153.9" y1="136.51" x2="153.9" y2="136.46"/><line class="cls-1" x1="153.9" y1="136.46" x2="153.85" y2="136.35"/><line class="cls-1" x1="153.85" y1="136.35" x2="153.85" y2="136.3"/><line class="cls-1" x1="153.85" y1="136.3" x2="153.79" y2="136.24"/><line class="cls-1" x1="153.79" y1="136.24" x2="153.79" y2="136.13"/><line class="cls-1" x1="153.79" y1="136.13" x2="153.74" y2="136.08"/><line class="cls-1" x1="153.74" y1="136.08" x2="153.69" y2="136.03"/><line class="cls-1" x1="153.69" y1="136.03" x2="153.69" y2="135.97"/><line class="cls-1" x1="153.69" y1="135.97" x2="153.63" y2="135.86"/><line class="cls-1" x1="153.63" y1="135.86" x2="153.58" y2="135.81"/><line class="cls-1" x1="153.58" y1="135.81" x2="153.52" y2="135.76"/><line class="cls-1" x1="153.52" y1="135.76" x2="153.47" y2="135.7"/><line class="cls-1" x1="153.47" y1="135.7" x2="153.42" y2="135.65"/><line class="cls-1" x1="153.42" y1="135.65" x2="153.36" y2="135.59"/><line class="cls-1" x1="153.36" y1="135.59" x2="153.31" y2="135.54"/><line class="cls-1" x1="153.31" y1="135.54" x2="153.25" y2="135.49"/><line class="cls-1" x1="153.25" y1="135.49" x2="153.2" y2="135.43"/><line class="cls-1" x1="153.2" y1="135.43" x2="153.15" y2="135.38"/><line class="cls-1" x1="153.15" y1="135.38" x2="153.09" y2="135.32"/><line class="cls-1" x1="153.09" y1="135.32" x2="153.04" y2="135.27"/><line class="cls-1" x1="153.04" y1="135.27" x2="152.98" y2="135.22"/><line class="cls-1" x1="152.98" y1="135.22" x2="152.93" y2="135.16"/><line class="cls-1" x1="152.93" y1="135.16" x2="152.88" y2="135.11"/><line class="cls-1" x1="152.88" y1="135.11" x2="152.82" y2="135.05"/><line class="cls-1" x1="152.82" y1="135.05" x2="152.77" y2="135"/><line class="cls-1" x1="152.77" y1="135" x2="152.71" y2="134.95"/><line class="cls-1" x1="152.71" y1="134.95" x2="152.66" y2="134.95"/><line class="cls-1" x1="152.66" y1="134.95" x2="152.61" y2="134.89"/><line class="cls-1" x1="152.61" y1="134.89" x2="152.61" y2="134.84"/><line class="cls-1" x1="152.61" y1="134.84" x2="152.55" y2="134.73"/><line class="cls-1" x1="152.55" y1="134.73" x2="152.5" y2="134.68"/><line class="cls-1" x1="152.5" y1="134.68" x2="152.5" y2="134.62"/><line class="cls-1" x1="152.5" y1="134.62" x2="152.5" y2="134.51"/><line class="cls-1" x1="152.5" y1="134.51" x2="152.44" y2="134.46"/><line class="cls-1" x1="152.44" y1="134.46" x2="152.44" y2="134.35"/><line class="cls-1" x1="152.44" y1="134.35" x2="152.5" y2="134.19"/><line class="cls-1" x1="152.5" y1="134.19" x2="152.5" y2="134.03"/><line class="cls-1" x1="152.5" y1="134.03" x2="152.55" y2="133.87"/><line class="cls-1" x1="152.55" y1="133.87" x2="152.66" y2="133.65"/><line class="cls-1" x1="152.66" y1="133.65" x2="152.71" y2="133.43"/><line class="cls-1" x1="152.71" y1="133.43" x2="152.88" y2="133.11"/><line class="cls-1" x1="152.88" y1="133.11" x2="153.04" y2="132.73"/><line class="cls-1" x1="153.04" y1="132.73" x2="153.2" y2="132.3"/><line class="cls-1" x1="153.2" y1="132.3" x2="153.47" y2="131.76"/><line class="cls-1" x1="153.47" y1="131.76" x2="153.74" y2="131.17"/><line class="cls-1" x1="153.74" y1="131.17" x2="154.01" y2="130.41"/><line class="cls-1" x1="154.01" y1="130.41" x2="154.39" y2="129.55"/><line class="cls-1" x1="154.39" y1="129.55" x2="154.82" y2="128.57"/><line class="cls-1" x1="154.82" y1="128.57" x2="155.31" y2="127.39"/><line class="cls-1" x1="155.31" y1="127.39" x2="155.79" y2="126.04"/><line class="cls-1" x1="155.79" y1="126.04" x2="156.39" y2="124.47"/><line class="cls-1" x1="156.39" y1="124.47" x2="157.09" y2="122.53"/><line class="cls-1" x1="157.09" y1="122.53" x2="157.79" y2="120.42"/><line class="cls-1" x1="157.79" y1="120.42" x2="158.55" y2="118.04"/><line class="cls-1" x1="158.55" y1="118.04" x2="159.3" y2="115.4"/><line class="cls-1" x1="159.3" y1="115.4" x2="160.06" y2="112.59"/><line class="cls-1" x1="160.06" y1="112.59" x2="160.76" y2="109.51"/><line class="cls-1" x1="160.76" y1="109.51" x2="161.41" y2="106.38"/><line class="cls-1" x1="161.41" y1="106.38" x2="161.95" y2="103.19"/><line class="cls-1" x1="161.95" y1="103.19" x2="162.38" y2="100.01"/><line class="cls-1" x1="162.38" y1="100.01" x2="162.65" y2="97.04"/><line class="cls-1" x1="162.65" y1="97.04" x2="162.7" y2="94.28"/><line class="cls-1" x1="162.7" y1="94.28" x2="162.65" y2="91.69"/><line class="cls-1" x1="162.65" y1="91.69" x2="162.33" y2="89.64"/><line class="cls-1" x1="162.33" y1="89.64" x2="161.79" y2="88.18"/><line class="cls-1" x1="161.79" y1="88.18" x2="161.14" y2="87.16"/><line class="cls-1" x1="161.14" y1="87.16" x2="160.38" y2="86.4"/><line class="cls-1" x1="160.38" y1="86.4" x2="159.63" y2="85.54"/><line class="cls-1" x1="159.63" y1="85.54" x2="158.87" y2="84.46"/><line class="cls-1" x1="158.87" y1="84.46" x2="158.17" y2="83"/><line class="cls-1" x1="158.17" y1="83" x2="157.41" y2="81.16"/><line class="cls-1" x1="157.41" y1="81.16" x2="156.71" y2="78.84"/><line class="cls-1" x1="156.71" y1="78.84" x2="156.01" y2="75.92"/><line class="cls-1" x1="156.01" y1="75.92" x2="155.14" y2="73.28"/><line class="cls-1" x1="155.14" y1="73.28" x2="154.23" y2="70.42"/><line class="cls-1" x1="154.23" y1="70.42" x2="153.2" y2="67.72"/><line class="cls-1" x1="153.2" y1="67.72" x2="152.12" y2="63.45"/><line class="cls-1" x1="152.12" y1="63.45" x2="150.93" y2="58.43"/><line class="cls-1" x1="150.93" y1="58.43" x2="149.53" y2="53.41"/><line class="cls-1" x1="149.53" y1="137.38" x2="149.53" y2="137.38"/><line class="cls-1" x1="149.53" y1="137.38" x2="149.53" y2="137.38"/><line class="cls-1" x1="149.53" y1="137.38" x2="149.53" y2="137.38"/><line class="cls-1" x1="149.53" y1="137.38" x2="149.53" y2="137.38"/><line class="cls-1" x1="149.53" y1="137.38" x2="149.53" y2="137.38"/><line class="cls-1" x1="149.53" y1="137.38" x2="149.53" y2="137.38"/><line class="cls-1" x1="149.53" y1="137.38" x2="149.53" y2="137.38"/><line class="cls-1" x1="149.53" y1="137.38" x2="149.53" y2="137.38"/><line class="cls-1" x1="149.53" y1="137.38" x2="149.53" y2="137.38"/><line class="cls-1" x1="149.53" y1="137.38" x2="149.53" y2="137.38"/><line class="cls-1" x1="149.53" y1="137.38" x2="149.53" y2="137.38"/><line class="cls-1" x1="149.53" y1="137.38" x2="149.53" y2="137.38"/><line class="cls-1" x1="149.53" y1="137.38" x2="149.53" y2="137.38"/><line class="cls-1" x1="149.53" y1="137.38" x2="149.53" y2="137.38"/><line class="cls-1" x1="149.53" y1="137.38" x2="149.53" y2="137.38"/><line class="cls-1" x1="149.53" y1="137.38" x2="149.53" y2="137.38"/><line class="cls-1" x1="149.53" y1="137.38" x2="149.53" y2="137.38"/><line class="cls-1" x1="149.53" y1="137.38" x2="149.53" y2="137.43"/><line class="cls-1" x1="149.53" y1="137.43" x2="149.53" y2="137.43"/><line class="cls-1" x1="149.53" y1="137.43" x2="149.53" y2="137.43"/><line class="cls-1" x1="149.53" y1="137.43" x2="149.53" y2="137.43"/><line class="cls-1" x1="149.53" y1="137.43" x2="149.53" y2="137.43"/><line class="cls-1" x1="149.53" y1="137.43" x2="149.53" y2="137.43"/><line class="cls-1" x1="149.53" y1="137.43" x2="149.53" y2="137.43"/><line class="cls-1" x1="149.53" y1="137.43" x2="149.53" y2="137.43"/><line class="cls-1" x1="149.53" y1="137.43" x2="149.53" y2="137.43"/><line class="cls-1" x1="149.53" y1="137.43" x2="149.53" y2="137.43"/><line class="cls-1" x1="149.53" y1="137.43" x2="149.53" y2="137.43"/><line class="cls-1" x1="149.53" y1="137.43" x2="149.53" y2="137.43"/><line class="cls-1" x1="149.53" y1="137.43" x2="149.53" y2="137.43"/><line class="cls-1" x1="149.53" y1="137.43" x2="149.53" y2="137.43"/><line class="cls-1" x1="149.53" y1="137.43" x2="149.53" y2="137.43"/><line class="cls-1" x1="149.53" y1="137.43" x2="149.53" y2="137.43"/><line class="cls-1" x1="149.53" y1="137.43" x2="149.53" y2="137.43"/><line class="cls-1" x1="149.53" y1="137.43" x2="149.53" y2="137.43"/><line class="cls-1" x1="149.53" y1="137.43" x2="149.53" y2="137.43"/><line class="cls-1" x1="149.53" y1="137.43" x2="149.47" y2="137.43"/><line class="cls-1" x1="149.47" y1="137.43" x2="149.47" y2="137.43"/><line class="cls-1" x1="149.47" y1="137.43" x2="149.47" y2="137.43"/><line class="cls-1" x1="149.47" y1="137.43" x2="149.47" y2="137.43"/><line class="cls-1" x1="149.47" y1="137.43" x2="149.47" y2="137.43"/><line class="cls-1" x1="149.47" y1="137.43" x2="149.47" y2="137.43"/><line class="cls-1" x1="149.47" y1="137.43" x2="149.47" y2="137.43"/><line class="cls-1" x1="149.47" y1="137.43" x2="149.47" y2="137.43"/><line class="cls-1" x1="149.47" y1="137.43" x2="149.47" y2="137.43"/><line class="cls-1" x1="149.47" y1="137.43" x2="149.47" y2="137.43"/><line class="cls-1" x1="149.47" y1="137.43" x2="149.47" y2="137.43"/><line class="cls-1" x1="149.47" y1="137.43" x2="149.47" y2="137.43"/><line class="cls-1" x1="149.47" y1="137.43" x2="149.47" y2="137.43"/><line class="cls-1" x1="149.47" y1="137.43" x2="149.47" y2="137.43"/><line class="cls-1" x1="149.47" y1="137.43" x2="149.47" y2="137.38"/><line class="cls-1" x1="149.47" y1="137.38" x2="149.47" y2="137.38"/><line class="cls-1" x1="149.47" y1="137.38" x2="149.47" y2="137.38"/><line class="cls-1" x1="149.47" y1="137.38" x2="149.47" y2="137.38"/><line class="cls-1" x1="149.47" y1="137.38" x2="149.47" y2="137.38"/><line class="cls-1" x1="149.47" y1="137.38" x2="149.47" y2="137.38"/><line class="cls-1" x1="149.47" y1="137.38" x2="149.47" y2="137.38"/><line class="cls-1" x1="149.47" y1="137.38" x2="149.47" y2="137.38"/><line class="cls-1" x1="149.47" y1="137.38" x2="149.53" y2="137.38"/><line class="cls-1" x1="149.53" y1="137.38" x2="149.53" y2="137.38"/><line class="cls-1" x1="149.53" y1="137.38" x2="149.53" y2="137.38"/><line class="cls-1" x1="149.53" y1="137.38" x2="149.53" y2="137.38"/><line class="cls-1" x1="149.53" y1="137.38" x2="149.53" y2="137.38"/><line class="cls-1" x1="149.53" y1="137.38" x2="149.53" y2="137.38"/><line class="cls-1" x1="149.53" y1="137.38" x2="149.53" y2="137.38"/><line class="cls-1" x1="149.53" y1="137.38" x2="149.53" y2="137.38"/><line class="cls-1" x1="149.53" y1="137.38" x2="149.53" y2="137.38"/><line class="cls-1" x1="149.53" y1="137.38" x2="149.53" y2="137.38"/><line class="cls-1" x1="149.53" y1="137.38" x2="149.53" y2="137.38"/><line class="cls-1" x1="149.53" y1="137.38" x2="149.53" y2="137.38"/><line class="cls-1" x1="149.53" y1="137.38" x2="149.53" y2="137.38"/><line class="cls-1" x1="149.53" y1="137.38" x2="149.53" y2="137.38"/><line class="cls-1" x1="149.53" y1="137.38" x2="149.53" y2="137.38"/><line class="cls-1" x1="149.53" y1="137.38" x2="149.53" y2="137.38"/><line class="cls-1" x1="149.53" y1="137.38" x2="149.53" y2="137.38"/><line class="cls-1" x1="149.53" y1="137.38" x2="149.53" y2="137.38"/><line class="cls-1" x1="149.53" y1="137.38" x2="149.53" y2="137.38"/><line class="cls-1" x1="149.53" y1="137.38" x2="149.53" y2="137.38"/><line class="cls-1" x1="149.53" y1="137.38" x2="149.53" y2="137.38"/><line class="cls-1" x1="149.53" y1="137.38" x2="149.53" y2="137.38"/><line class="cls-1" x1="149.53" y1="137.38" x2="149.53" y2="137.38"/><line class="cls-1" x1="149.53" y1="137.38" x2="149.53" y2="137.38"/><line class="cls-1" x1="149.53" y1="137.38" x2="149.53" y2="137.38"/><line class="cls-1" x1="149.53" y1="137.38" x2="149.53" y2="137.38"/><line class="cls-1" x1="149.53" y1="137.38" x2="149.53" y2="137.38"/><line class="cls-1" x1="149.53" y1="137.38" x2="149.53" y2="137.38"/><line class="cls-1" x1="149.53" y1="137.38" x2="149.53" y2="137.38"/><line class="cls-1" x1="149.53" y1="137.38" x2="149.53" y2="137.38"/><line class="cls-1" x1="149.53" y1="137.38" x2="149.53" y2="137.38"/><line class="cls-1" x1="149.53" y1="137.38" x2="149.53" y2="137.38"/><line class="cls-1" x1="149.53" y1="137.38" x2="149.53" y2="137.38"/><line class="cls-1" x1="149.53" y1="137.38" x2="149.53" y2="137.38"/><line class="cls-1" x1="149.53" y1="137.38" x2="149.53" y2="137.38"/><line class="cls-1" x1="149.53" y1="137.38" x2="149.53" y2="137.38"/><line class="cls-1" x1="149.53" y1="137.38" x2="149.53" y2="137.38"/><line class="cls-1" x1="149.53" y1="137.38" x2="149.53" y2="137.38"/><line class="cls-1" x1="149.53" y1="137.38" x2="149.53" y2="137.38"/><line class="cls-1" x1="149.53" y1="137.38" x2="149.53" y2="137.38"/><line class="cls-1" x1="149.53" y1="137.38" x2="149.53" y2="137.38"/><line class="cls-1" x1="149.53" y1="137.38" x2="149.53" y2="137.38"/><line class="cls-1" x1="149.53" y1="137.38" x2="149.53" y2="137.38"/><line class="cls-1" x1="149.53" y1="137.38" x2="149.53" y2="137.38"/><line class="cls-1" x1="149.53" y1="137.38" x2="149.53" y2="137.38"/><line class="cls-1" x1="149.53" y1="137.38" x2="149.53" y2="137.38"/><line class="cls-1" x1="149.53" y1="137.38" x2="149.53" y2="137.38"/><line class="cls-1" x1="149.53" y1="137.38" x2="149.53" y2="137.38"/><line class="cls-1" x1="149.53" y1="137.38" x2="149.53" y2="137.38"/><line class="cls-1" x1="149.53" y1="137.38" x2="149.53" y2="137.38"/><line class="cls-1" x1="149.53" y1="137.38" x2="149.53" y2="137.38"/><line class="cls-1" x1="149.53" y1="137.38" x2="149.53" y2="137.38"/><line class="cls-1" x1="149.53" y1="137.38" x2="149.53" y2="137.38"/><line class="cls-1" x1="149.53" y1="137.38" x2="149.53" y2="137.38"/><line class="cls-1" x1="149.53" y1="137.38" x2="149.53" y2="137.38"/><line class="cls-1" x1="149.53" y1="137.38" x2="149.53" y2="137.38"/><line class="cls-1" x1="149.53" y1="137.38" x2="149.53" y2="137.38"/><line class="cls-1" x1="149.53" y1="137.38" x2="149.53" y2="137.38"/><line class="cls-1" x1="149.53" y1="137.38" x2="149.53" y2="137.38"/><line class="cls-1" x1="149.53" y1="137.38" x2="149.53" y2="137.38"/><line class="cls-1" x1="149.53" y1="137.38" x2="149.53" y2="137.38"/><line class="cls-1" x1="149.53" y1="137.38" x2="149.53" y2="137.38"/><line class="cls-1" x1="149.53" y1="137.38" x2="149.53" y2="137.38"/><line class="cls-1" x1="149.53" y1="137.38" x2="149.53" y2="137.38"/><line class="cls-1" x1="149.53" y1="137.38" x2="149.53" y2="137.38"/><line class="cls-1" x1="149.53" y1="137.38" x2="149.53" y2="137.38"/><line class="cls-1" x1="149.53" y1="137.38" x2="149.53" y2="137.38"/><line class="cls-1" x1="149.53" y1="137.38" x2="149.53" y2="137.38"/><line class="cls-1" x1="149.53" y1="137.38" x2="149.53" y2="137.38"/><line class="cls-1" x1="149.53" y1="137.38" x2="149.53" y2="137.38"/><line class="cls-1" x1="149.53" y1="137.38" x2="149.53" y2="137.38"/><line class="cls-1" x1="149.53" y1="137.38" x2="149.53" y2="137.38"/><line class="cls-1" x1="149.53" y1="137.38" x2="149.53" y2="137.38"/><line class="cls-1" x1="149.53" y1="137.38" x2="149.53" y2="137.38"/><line class="cls-1" x1="149.53" y1="137.38" x2="149.53" y2="137.38"/><line class="cls-1" x1="149.53" y1="137.38" x2="149.53" y2="137.38"/><line class="cls-1" x1="149.53" y1="137.38" x2="149.53" y2="137.38"/><line class="cls-1" x1="149.53" y1="137.38" x2="149.53" y2="137.38"/><line class="cls-1" x1="149.53" y1="137.38" x2="149.53" y2="137.38"/><line class="cls-1" x1="149.53" y1="137.38" x2="149.53" y2="137.38"/><line class="cls-1" x1="149.53" y1="137.38" x2="149.53" y2="137.38"/><line class="cls-1" x1="149.53" y1="137.38" x2="149.53" y2="137.38"/><line class="cls-1" x1="149.53" y1="137.38" x2="149.53" y2="137.38"/><line class="cls-1" x1="149.53" y1="137.38" x2="149.53" y2="137.38"/><line class="cls-1" x1="149.53" y1="137.38" x2="149.53" y2="137.38"/><line class="cls-1" x1="149.53" y1="137.38" x2="149.53" y2="137.38"/><line class="cls-1" x1="149.53" y1="137.38" x2="149.53" y2="137.38"/><line class="cls-1" x1="149.53" y1="137.38" x2="149.53" y2="137.38"/><line class="cls-1" x1="149.53" y1="137.38" x2="149.53" y2="137.38"/><line class="cls-1" x1="149.53" y1="137.38" x2="149.53" y2="137.38"/><line class="cls-1" x1="149.53" y1="137.38" x2="149.53" y2="137.38"/><line class="cls-1" x1="149.53" y1="137.38" x2="149.53" y2="137.38"/><line class="cls-1" x1="149.53" y1="137.38" x2="149.53" y2="137.38"/><line class="cls-1" x1="149.53" y1="137.38" x2="149.53" y2="137.38"/><line class="cls-1" x1="149.53" y1="137.38" x2="149.53" y2="137.38"/><line class="cls-1" x1="149.53" y1="137.38" x2="149.53" y2="137.38"/><line class="cls-1" x1="149.53" y1="137.38" x2="149.53" y2="137.38"/><line class="cls-1" x1="149.53" y1="137.38" x2="149.53" y2="137.38"/><line class="cls-1" x1="149.53" y1="137.38" x2="149.53" y2="137.38"/><line class="cls-1" x1="149.53" y1="137.38" x2="149.53" y2="137.38"/><line class="cls-1" x1="149.53" y1="137.38" x2="149.53" y2="137.38"/><line class="cls-1" x1="149.53" y1="137.38" x2="149.53" y2="137.38"/><line class="cls-1" x1="149.53" y1="137.38" x2="149.53" y2="137.38"/><line class="cls-1" x1="149.53" y1="137.38" x2="149.53" y2="137.38"/><line class="cls-1" x1="149.53" y1="137.38" x2="149.53" y2="137.38"/><line class="cls-1" x1="149.53" y1="137.38" x2="149.53" y2="137.38"/><line class="cls-1" x1="149.53" y1="137.38" x2="149.53" y2="137.38"/><line class="cls-1" x1="149.53" y1="137.38" x2="149.53" y2="137.38"/><line class="cls-1" x1="149.53" y1="137.38" x2="149.53" y2="137.38"/><line class="cls-1" x1="149.53" y1="137.38" x2="149.53" y2="137.38"/><line class="cls-1" x1="149.53" y1="137.38" x2="149.53" y2="137.38"/><line class="cls-1" x1="149.53" y1="137.38" x2="149.53" y2="137.38"/><line class="cls-1" x1="149.53" y1="137.38" x2="149.53" y2="137.38"/><line class="cls-1" x1="149.53" y1="137.38" x2="149.53" y2="137.38"/><line class="cls-1" x1="149.53" y1="137.38" x2="149.53" y2="137.32"/><line class="cls-1" x1="149.53" y1="137.32" x2="149.53" y2="137"/><line class="cls-1" x1="149.53" y1="137" x2="148.12" y2="120.69"/><line class="cls-1" x1="148.12" y1="120.69" x2="145.8" y2="83.16"/><line class="cls-1" x1="145.8" y1="83.16" x2="145.05" y2="50.98"/><line class="cls-1" x1="145.05" y1="50.98" x2="146.34" y2="44.33"/><line class="cls-1" x1="146.34" y1="44.33" x2="148.02" y2="48.65"/><line class="cls-1" x1="148.02" y1="48.65" x2="149.53" y2="53.41"/><line class="cls-1" x1="149.53" y1="137.38" x2="149.53" y2="137.38"/><line class="cls-1" x1="149.53" y1="137.38" x2="149.53" y2="137.38"/><line class="cls-1" x1="149.53" y1="137.38" x2="149.53" y2="137.38"/><line class="cls-1" x1="149.53" y1="137.38" x2="149.53" y2="137.38"/><line class="cls-1" x1="149.53" y1="137.38" x2="149.53" y2="137.38"/><line class="cls-1" x1="149.53" y1="137.38" x2="149.53" y2="137.38"/><line class="cls-1" x1="149.53" y1="137.38" x2="149.53" y2="137.38"/><line class="cls-1" x1="149.53" y1="137.38" x2="149.53" y2="137.38"/><line class="cls-1" x1="149.53" y1="137.38" x2="149.53" y2="137.38"/><line class="cls-1" x1="149.53" y1="137.38" x2="149.53" y2="137.38"/><line class="cls-1" x1="149.53" y1="137.38" x2="149.53" y2="137.38"/><line class="cls-1" x1="149.53" y1="137.38" x2="149.53" y2="137.38"/><line class="cls-1" x1="149.53" y1="137.38" x2="149.53" y2="137.38"/><line class="cls-1" x1="149.53" y1="137.38" x2="149.53" y2="137.43"/><line class="cls-1" x1="149.53" y1="137.43" x2="149.53" y2="137.43"/><line class="cls-1" x1="149.53" y1="137.43" x2="149.58" y2="137.43"/><line class="cls-1" x1="149.58" y1="137.43" x2="149.58" y2="137.43"/><line class="cls-1" x1="149.58" y1="137.43" x2="149.58" y2="137.43"/><line class="cls-1" x1="149.58" y1="137.43" x2="149.58" y2="137.43"/><line class="cls-1" x1="149.58" y1="137.43" x2="149.58" y2="137.43"/><line class="cls-1" x1="149.58" y1="137.43" x2="149.58" y2="137.43"/><line class="cls-1" x1="149.58" y1="137.43" x2="149.58" y2="137.43"/><line class="cls-1" x1="149.58" y1="137.43" x2="149.58" y2="137.43"/><line class="cls-1" x1="149.58" y1="137.43" x2="149.58" y2="137.43"/><line class="cls-1" x1="149.58" y1="137.43" x2="149.58" y2="137.43"/><line class="cls-1" x1="149.58" y1="137.43" x2="149.58" y2="137.43"/><line class="cls-1" x1="149.58" y1="137.43" x2="149.58" y2="137.43"/><line class="cls-1" x1="149.58" y1="137.43" x2="149.58" y2="137.43"/><line class="cls-1" x1="149.58" y1="137.43" x2="149.58" y2="137.43"/><line class="cls-1" x1="149.58" y1="137.43" x2="149.58" y2="137.43"/><line class="cls-1" x1="149.58" y1="137.43" x2="149.58" y2="137.43"/><line class="cls-1" x1="149.58" y1="137.43" x2="149.58" y2="137.43"/><line class="cls-1" x1="149.58" y1="137.43" x2="149.58" y2="137.43"/><line class="cls-1" x1="149.58" y1="137.43" x2="149.64" y2="137.43"/><line class="cls-1" x1="149.64" y1="137.43" x2="149.58" y2="137.43"/><line class="cls-1" x1="149.58" y1="137.43" x2="149.64" y2="137.43"/><line class="cls-1" x1="150.12" y1="136.57" x2="150.12" y2="136.51"/><line class="cls-1" x1="150.12" y1="136.51" x2="150.23" y2="136.35"/><line class="cls-1" x1="150.88" y1="135.27" x2="150.99" y2="135.05"/><line class="cls-1" x1="151.53" y1="133.92" x2="151.63" y2="133.7"/><line class="cls-1" x1="152.23" y1="132.57" x2="152.23" y2="132.52"/><line class="cls-1" x1="152.23" y1="132.52" x2="152.28" y2="132.35"/><line class="cls-1" x1="152.77" y1="131.22" x2="152.88" y2="131"/><line class="cls-1" x1="153.36" y1="129.87" x2="153.36" y2="129.87"/><line class="cls-1" x1="153.36" y1="129.87" x2="153.47" y2="129.65"/><line class="cls-1" x1="153.9" y1="128.47" x2="154.01" y2="128.25"/><line class="cls-1" x1="154.44" y1="127.06" x2="154.5" y2="126.85"/><line class="cls-1" x1="154.93" y1="125.66" x2="154.98" y2="125.44"/><line class="cls-1" x1="155.36" y1="124.25" x2="155.41" y2="124.09"/><line class="cls-1" x1="155.41" y1="124.09" x2="155.41" y2="124.04"/><line class="cls-1" x1="155.79" y1="122.85" x2="155.9" y2="122.63"/><line class="cls-1" x1="156.28" y1="121.45" x2="156.33" y2="121.23"/><line class="cls-1" x1="156.66" y1="119.99" x2="156.71" y2="119.77"/><line class="cls-1" x1="157.03" y1="118.53" x2="157.09" y2="118.31"/><line class="cls-1" x1="157.41" y1="117.07" x2="157.47" y2="116.86"/><line class="cls-1" x1="157.74" y1="115.61" x2="157.79" y2="115.4"/><line class="cls-1" x1="158.01" y1="114.16" x2="158.06" y2="113.94"/><line class="cls-1" x1="158.33" y1="112.7" x2="158.38" y2="112.48"/><line class="cls-1" x1="158.6" y1="111.24" x2="158.65" y2="111.02"/><line class="cls-1" x1="158.87" y1="109.78" x2="158.92" y2="109.57"/><line class="cls-1" x1="159.14" y1="108.27" x2="159.14" y2="108"/><line class="cls-1" x1="159.36" y1="106.76" x2="159.41" y2="106.49"/><line class="cls-1" x1="159.57" y1="105.19" x2="159.63" y2="104.98"/><line class="cls-1" x1="159.79" y1="103.68" x2="159.79" y2="103.41"/><line class="cls-1" x1="159.95" y1="102.11" x2="159.95" y2="101.84"/><line class="cls-1" x1="160.11" y1="100.55" x2="160.11" y2="100.49"/><line class="cls-1" x1="160.11" y1="100.49" x2="160.11" y2="100.28"/><line class="cls-1" x1="160.22" y1="98.98" x2="160.27" y2="98.77"/><line class="cls-1" x1="160.38" y1="97.47" x2="160.38" y2="97.2"/><line class="cls-1" x1="160.49" y1="95.9" x2="160.49" y2="95.63"/><line class="cls-1" x1="160.54" y1="94.34" x2="160.6" y2="94.12"/><line class="cls-1" x1="160.65" y1="92.83" x2="160.65" y2="92.83"/><line class="cls-1" x1="160.65" y1="92.83" x2="160.65" y2="92.56"/><line class="cls-1" x1="160.65" y1="91.21" x2="160.65" y2="90.94"/><line class="cls-1" x1="160.71" y1="89.64" x2="160.71" y2="89.37"/><line class="cls-1" x1="160.71" y1="88.02" x2="160.71" y2="87.75"/><line class="cls-1" x1="160.71" y1="86.4" x2="160.71" y2="86.13"/><line class="cls-1" x1="160.71" y1="84.78" x2="160.71" y2="84.51"/><line class="cls-1" x1="160.65" y1="83.21" x2="160.65" y2="82.94"/><line class="cls-1" x1="160.6" y1="81.65" x2="160.54" y2="81.43"/><line class="cls-1" x1="160.49" y1="80.14" x2="160.44" y2="79.92"/><line class="cls-1" x1="160.33" y1="78.62" x2="160.33" y2="78.35"/><line class="cls-1" x1="160.17" y1="77.06" x2="160.17" y2="76.95"/><line class="cls-1" x1="160.17" y1="76.95" x2="160.17" y2="76.79"/><line class="cls-1" x1="160" y1="75.49" x2="159.95" y2="75.22"/><line class="cls-1" x1="159.84" y1="73.93" x2="159.79" y2="73.71"/><line class="cls-1" x1="159.63" y1="72.41" x2="159.57" y2="72.2"/><line class="cls-1" x1="159.36" y1="70.96" x2="159.3" y2="70.74"/><line class="cls-1" x1="159.09" y1="69.5" x2="159.09" y2="69.44"/><line class="cls-1" x1="159.09" y1="69.44" x2="159.03" y2="69.28"/><line class="cls-1" x1="158.76" y1="68.04" x2="158.71" y2="67.82"/><line class="cls-1" x1="158.38" y1="66.58" x2="158.33" y2="66.37"/><line class="cls-1" x1="158.01" y1="65.12" x2="157.95" y2="64.91"/><line class="cls-1" x1="157.57" y1="63.72" x2="157.52" y2="63.5"/><line class="cls-1" x1="157.14" y1="62.32" x2="157.03" y2="62.1"/><line class="cls-1" x1="156.6" y1="60.91" x2="156.49" y2="60.7"/><line class="cls-1" x1="155.95" y1="59.51" x2="155.85" y2="59.29"/><line class="cls-1" x1="155.31" y1="58.16" x2="155.2" y2="57.94"/><line class="cls-1" x1="154.5" y1="56.86" x2="154.33" y2="56.65"/><line class="cls-1" x1="153.58" y1="55.62" x2="153.42" y2="55.4"/><line class="cls-1" x1="152.5" y1="54.43" x2="152.44" y2="54.38"/><line class="cls-1" x1="152.44" y1="54.38" x2="152.28" y2="54.27"/><line class="cls-1" x1="151.15" y1="53.68" x2="150.99" y2="53.57"/><line class="cls-1" x1="150.99" y1="53.57" x2="150.93" y2="53.57"/><line class="cls-1" x1="149.64" y1="53.41" x2="149.53" y2="53.41"/><line class="cls-1" x1="149.53" y1="137.38" x2="149.53" y2="137.38"/><line class="cls-1" x1="149.53" y1="137.38" x2="149.53" y2="137.38"/><line class="cls-1" x1="149.53" y1="137.38" x2="149.53" y2="137.38"/><line class="cls-1" x1="149.53" y1="137.38" x2="149.53" y2="137.38"/><line class="cls-1" x1="149.53" y1="137.38" x2="149.53" y2="137.38"/><line class="cls-1" x1="149.53" y1="137.38" x2="149.53" y2="137.38"/><line class="cls-1" x1="149.53" y1="137.38" x2="149.53" y2="137.38"/><line class="cls-1" x1="149.53" y1="137.38" x2="149.53" y2="137.38"/><line class="cls-1" x1="149.53" y1="137.38" x2="149.53" y2="137.38"/><line class="cls-1" x1="149.53" y1="137.38" x2="149.53" y2="137.38"/><line class="cls-1" x1="149.53" y1="137.38" x2="149.53" y2="137.38"/><line class="cls-1" x1="149.53" y1="137.38" x2="149.53" y2="137.38"/><line class="cls-1" x1="149.53" y1="137.38" x2="149.53" y2="137.38"/><line class="cls-1" x1="149.53" y1="137.38" x2="149.53" y2="137.43"/><line class="cls-1" x1="149.53" y1="137.43" x2="149.53" y2="137.43"/><line class="cls-1" x1="149.53" y1="137.43" x2="149.53" y2="137.43"/><line class="cls-1" x1="149.53" y1="137.43" x2="149.53" y2="137.43"/><line class="cls-1" x1="149.53" y1="137.43" x2="149.53" y2="137.43"/><line class="cls-1" x1="149.53" y1="137.43" x2="149.53" y2="137.43"/><line class="cls-1" x1="149.53" y1="137.43" x2="149.53" y2="137.43"/><line class="cls-1" x1="149.53" y1="137.43" x2="149.53" y2="137.43"/><line class="cls-1" x1="149.53" y1="137.43" x2="149.53" y2="137.43"/><line class="cls-1" x1="149.53" y1="137.43" x2="149.53" y2="137.43"/><line class="cls-1" x1="149.53" y1="137.43" x2="149.53" y2="137.43"/><line class="cls-1" x1="149.53" y1="137.43" x2="149.53" y2="137.43"/><line class="cls-1" x1="149.53" y1="137.43" x2="149.53" y2="137.43"/><line class="cls-1" x1="149.53" y1="137.43" x2="149.53" y2="137.43"/><line class="cls-1" x1="149.53" y1="137.43" x2="149.53" y2="137.43"/><line class="cls-1" x1="149.53" y1="137.43" x2="149.53" y2="137.43"/><line class="cls-1" x1="149.53" y1="137.43" x2="149.53" y2="137.43"/><line class="cls-1" x1="149.53" y1="137.43" x2="149.53" y2="137.43"/><line class="cls-1" x1="149.53" y1="137.43" x2="149.53" y2="137.43"/><line class="cls-1" x1="149.53" y1="137.43" x2="149.53" y2="137.43"/><line class="cls-1" x1="149.53" y1="137.43" x2="149.47" y2="137.43"/><line class="cls-1" x1="149.47" y1="137.43" x2="149.53" y2="137.43"/><line class="cls-1" x1="148.99" y1="136.51" x2="148.99" y2="136.51"/><line class="cls-1" x1="148.99" y1="136.51" x2="148.83" y2="136.3"/><line class="cls-1" x1="148.18" y1="135.16" x2="148.07" y2="135"/><line class="cls-1" x1="148.07" y1="135" x2="148.07" y2="134.95"/><line class="cls-1" x1="147.53" y1="133.81" x2="147.42" y2="133.6"/><line class="cls-1" x1="146.88" y1="132.46" x2="146.77" y2="132.25"/><line class="cls-1" x1="146.29" y1="131.11" x2="146.18" y2="130.9"/><line class="cls-1" x1="145.69" y1="129.71" x2="145.59" y2="129.49"/><line class="cls-1" x1="145.15" y1="128.3" x2="145.1" y2="128.2"/><line class="cls-1" x1="145.1" y1="128.2" x2="145.05" y2="128.09"/><line class="cls-1" x1="144.61" y1="126.9" x2="144.56" y2="126.68"/><line class="cls-1" x1="144.13" y1="125.5" x2="144.07" y2="125.28"/><line class="cls-1" x1="143.7" y1="124.09" x2="143.7" y2="124.09"/><line class="cls-1" x1="143.7" y1="124.09" x2="143.64" y2="123.88"/><line class="cls-1" x1="143.26" y1="122.69" x2="143.16" y2="122.47"/><line class="cls-1" x1="142.78" y1="121.28" x2="142.72" y2="121.07"/><line class="cls-1" x1="142.4" y1="119.83" x2="142.35" y2="119.61"/><line class="cls-1" x1="142.02" y1="118.37" x2="141.97" y2="118.15"/><line class="cls-1" x1="141.64" y1="116.91" x2="141.59" y2="116.69"/><line class="cls-1" x1="141.37" y1="115.45" x2="141.32" y2="115.24"/><line class="cls-1" x1="141.05" y1="113.99" x2="141" y2="113.78"/><line class="cls-1" x1="140.78" y1="112.54" x2="140.73" y2="112.32"/><line class="cls-1" x1="140.46" y1="111.08" x2="140.4" y2="110.81"/><line class="cls-1" x1="140.19" y1="109.51" x2="140.13" y2="109.24"/><line class="cls-1" x1="139.92" y1="107.95" x2="139.92" y2="107.68"/><line class="cls-1" x1="139.7" y1="106.43" x2="139.7" y2="106.16"/><line class="cls-1" x1="139.48" y1="104.92" x2="139.48" y2="104.65"/><line class="cls-1" x1="139.32" y1="103.36" x2="139.27" y2="103.14"/><line class="cls-1" x1="139.16" y1="101.84" x2="139.11" y2="101.63"/><line class="cls-1" x1="139" y1="100.33" x2="138.94" y2="100.12"/><line class="cls-1" x1="138.84" y1="98.82" x2="138.84" y2="98.55"/><line class="cls-1" x1="138.73" y1="97.25" x2="138.67" y2="96.98"/><line class="cls-1" x1="138.62" y1="95.69" x2="138.62" y2="95.42"/><line class="cls-1" x1="138.51" y1="94.12" x2="138.51" y2="93.85"/><line class="cls-1" x1="138.46" y1="92.56" x2="138.46" y2="92.29"/><line class="cls-1" x1="138.46" y1="90.94" x2="138.4" y2="90.72"/><line class="cls-1" x1="138.4" y1="89.37" x2="138.4" y2="89.1"/><line class="cls-1" x1="138.4" y1="87.75" x2="138.4" y2="87.48"/><line class="cls-1" x1="138.4" y1="86.13" x2="138.4" y2="85.86"/><line class="cls-1" x1="138.4" y1="84.51" x2="138.4" y2="84.24"/><line class="cls-1" x1="138.46" y1="82.94" x2="138.51" y2="82.73"/><line class="cls-1" x1="138.57" y1="81.43" x2="138.57" y2="81.16"/><line class="cls-1" x1="138.67" y1="79.87" x2="138.67" y2="79.6"/><line class="cls-1" x1="138.84" y1="78.3" x2="138.84" y2="78.03"/><line class="cls-1" x1="138.94" y1="76.73" x2="139" y2="76.52"/><line class="cls-1" x1="139.16" y1="75.22" x2="139.16" y2="74.95"/><line class="cls-1" x1="139.32" y1="73.66" x2="139.32" y2="73.39"/><line class="cls-1" x1="139.54" y1="72.14" x2="139.59" y2="71.93"/><line class="cls-1" x1="139.81" y1="70.69" x2="139.86" y2="70.47"/><line class="cls-1" x1="140.08" y1="69.17" x2="140.13" y2="68.96"/><line class="cls-1" x1="140.46" y1="67.72" x2="140.51" y2="67.5"/><line class="cls-1" x1="140.78" y1="66.26" x2="140.83" y2="66.04"/><line class="cls-1" x1="141.21" y1="64.8" x2="141.27" y2="64.58"/><line class="cls-1" x1="141.64" y1="63.34" x2="141.7" y2="63.13"/><line class="cls-1" x1="142.13" y1="61.94" x2="142.18" y2="61.72"/><line class="cls-1" x1="142.67" y1="60.53" x2="142.72" y2="60.32"/><line class="cls-1" x1="143.32" y1="59.18" x2="143.43" y2="58.97"/><line class="cls-1" x1="143.97" y1="57.83" x2="144.02" y2="57.78"/><line class="cls-1" x1="144.02" y1="57.78" x2="144.13" y2="57.62"/><line class="cls-1" x1="144.83" y1="56.54" x2="144.99" y2="56.32"/><line class="cls-1" x1="145.8" y1="55.3" x2="145.96" y2="55.13"/><line class="cls-1" x1="146.88" y1="54.27" x2="147.1" y2="54.16"/><line class="cls-1" x1="148.18" y1="53.57" x2="148.39" y2="53.51"/></g></svg>