<svg id="skygarden_S1" data-name="skygarden S1" xmlns="http://www.w3.org/2000/svg" viewBox="0 0 300 263"><defs><style>.cls-1{isolation:isolate;}.cls-2,.cls-3{fill:none;stroke-width:0.5px;}.cls-2{stroke:#000;}.cls-3{stroke:#231f20;stroke-linecap:round;stroke-linejoin:round;}</style></defs><title>skygarden-suspension-1-eco-wanders-flos-F6411044-spech-tech-02-300x263</title><g class="cls-1"><path d="M121.18,205.77a4,4,0,0,1,.68,1.15,4.28,4.28,0,0,1,.24,1.45,4,4,0,0,1-.29,1.57,3.73,3.73,0,0,1-2.08,2.07,4.2,4.2,0,0,1-1.61.3,4.15,4.15,0,0,1-1.4-.23,3.7,3.7,0,0,1-1.11-.6l-1.07,1.09-.52-.5,1.06-1.09a3.62,3.62,0,0,1-.69-1.17,4.27,4.27,0,0,1-.24-1.44,4,4,0,0,1,.3-1.56,3.71,3.71,0,0,1,2.08-2.08,4.29,4.29,0,0,1,1.59-.29,4.4,4.4,0,0,1,1.39.21,3.86,3.86,0,0,1,1.15.62l1.06-1.09.51.5Zm-1.25.25a2.69,2.69,0,0,0-1.81-.62,2.79,2.79,0,0,0-1.18.23,2.67,2.67,0,0,0-.88.63,3,3,0,0,0-.56,1,3.41,3.41,0,0,0-.2,1.16,3,3,0,0,0,.55,1.83Zm-3.6,4.72a2.72,2.72,0,0,0,.8.45,2.86,2.86,0,0,0,1,.16,3,3,0,0,0,1.18-.23,2.82,2.82,0,0,0,.88-.63,2.77,2.77,0,0,0,.57-1,3.2,3.2,0,0,0,.2-1.17,3.13,3.13,0,0,0-.54-1.82Z"/><path d="M130.39,205.65l0,0a2,2,0,0,1,.73-.29,3.82,3.82,0,0,1,.84-.1,3.45,3.45,0,0,1,1.37.27,3.28,3.28,0,0,1,1.1.72,3.23,3.23,0,0,1,.72,1.11,3.55,3.55,0,0,1,.27,1.41,3.63,3.63,0,0,1-.27,1.42,3.31,3.31,0,0,1-.77,1.1,3.49,3.49,0,0,1-1.17.72,4.13,4.13,0,0,1-1.47.26,4,4,0,0,1-1.47-.26,3.49,3.49,0,0,1-1.17-.72,3.17,3.17,0,0,1-.77-1.1,3.63,3.63,0,0,1-.27-1.42,4.39,4.39,0,0,1,.28-1.65,9,9,0,0,1,.69-1.39l3.06-5h1.36Zm-1.15,3.16a2.64,2.64,0,0,0,.18,1,2.43,2.43,0,0,0,.52.77,2.38,2.38,0,0,0,.8.51,3.09,3.09,0,0,0,1,.17,3,3,0,0,0,1-.17,2.29,2.29,0,0,0,.8-.51,2.14,2.14,0,0,0,.52-.77,2.7,2.7,0,0,0,0-2,2.14,2.14,0,0,0-.52-.77,2.41,2.41,0,0,0-.8-.5,2.8,2.8,0,0,0-1-.18,2.86,2.86,0,0,0-1,.18,2.52,2.52,0,0,0-.8.5,2.43,2.43,0,0,0-.52.77A2.66,2.66,0,0,0,129.24,208.81Z"/><path d="M140.66,200.6a3.17,3.17,0,0,1,2,.56,3.78,3.78,0,0,1,1.17,1.42,6.45,6.45,0,0,1,.56,1.9,14,14,0,0,1,0,4,6.45,6.45,0,0,1-.56,1.9,3.86,3.86,0,0,1-1.17,1.42,3.73,3.73,0,0,1-3.93,0,3.76,3.76,0,0,1-1.17-1.42,6.17,6.17,0,0,1-.56-1.9,13.08,13.08,0,0,1,0-4,6.17,6.17,0,0,1,.56-1.9,3.69,3.69,0,0,1,1.17-1.42A3.14,3.14,0,0,1,140.66,200.6Zm0,1.05a2.09,2.09,0,0,0-1.46.5,3.08,3.08,0,0,0-.81,1.23,6.09,6.09,0,0,0-.34,1.57c-.05.55-.07,1.05-.07,1.5s0,1,.07,1.51a6.18,6.18,0,0,0,.34,1.57,3.08,3.08,0,0,0,.81,1.23,2.44,2.44,0,0,0,2.93,0,3.19,3.19,0,0,0,.81-1.23,6.18,6.18,0,0,0,.34-1.57c.05-.56.07-1.06.07-1.51s0-.95-.07-1.5a6.09,6.09,0,0,0-.34-1.57,3.19,3.19,0,0,0-.81-1.23A2.09,2.09,0,0,0,140.66,201.65Z"/><path d="M149.56,200.6a3.17,3.17,0,0,1,2,.56,3.78,3.78,0,0,1,1.17,1.42,6.77,6.77,0,0,1,.56,1.9,14,14,0,0,1,0,4,6.77,6.77,0,0,1-.56,1.9,3.86,3.86,0,0,1-1.17,1.42,3.75,3.75,0,0,1-3.94,0,3.86,3.86,0,0,1-1.17-1.42,6.77,6.77,0,0,1-.56-1.9,14,14,0,0,1,0-4,6.77,6.77,0,0,1,.56-1.9,3.78,3.78,0,0,1,1.17-1.42A3.17,3.17,0,0,1,149.56,200.6Zm0,1.05a2.05,2.05,0,0,0-1.46.5,3.08,3.08,0,0,0-.81,1.23,6.09,6.09,0,0,0-.35,1.57c0,.55-.07,1.05-.07,1.5s0,1,.07,1.51a6.19,6.19,0,0,0,.35,1.57,3.08,3.08,0,0,0,.81,1.23,2.42,2.42,0,0,0,2.92,0,3.08,3.08,0,0,0,.81-1.23,6.19,6.19,0,0,0,.35-1.57c0-.56.07-1.06.07-1.51s0-.95-.07-1.5a6.09,6.09,0,0,0-.35-1.57,3.08,3.08,0,0,0-.81-1.23A2.05,2.05,0,0,0,149.56,201.65Z"/><path d="M159.61,206.29c0-.27,0-.55,0-.83s0-.55-.05-.83h1.13v1.14h0a2.5,2.5,0,0,1,1.06-1,3.05,3.05,0,0,1,1.35-.33,3.83,3.83,0,0,1,.65.06,2.25,2.25,0,0,1,.66.23,1.93,1.93,0,0,1,.6.48,2.47,2.47,0,0,1,.48.78,2.48,2.48,0,0,1,1-1.14,2.87,2.87,0,0,1,1.45-.41,2.73,2.73,0,0,1,2.13.76,3.11,3.11,0,0,1,.69,2.17v4.75h-1.06v-4.37a3.17,3.17,0,0,0-.4-1.75,1.66,1.66,0,0,0-1.49-.6,1.91,1.91,0,0,0-1,.23,1.84,1.84,0,0,0-.65.62,2.84,2.84,0,0,0-.36.87,4.74,4.74,0,0,0-.11,1v4h-1.06v-4.37a3.17,3.17,0,0,0-.4-1.75,1.64,1.64,0,0,0-1.48-.6l-.44.06a1.71,1.71,0,0,0-.72.35,2.61,2.61,0,0,0-.66.87,3.48,3.48,0,0,0-.3,1.6v3.84h-1Z"/><path d="M173.24,206.29c0-.27,0-.55,0-.83l-.06-.83h1.14v1.14h0a2.5,2.5,0,0,1,1.06-1,3.08,3.08,0,0,1,1.35-.33,3.74,3.74,0,0,1,.65.06,2.42,2.42,0,0,1,.67.23,2.19,2.19,0,0,1,.6.48,2.65,2.65,0,0,1,.47.78,2.48,2.48,0,0,1,1-1.14,2.87,2.87,0,0,1,1.45-.41,2.73,2.73,0,0,1,2.13.76,3.11,3.11,0,0,1,.69,2.17v4.75h-1.06v-4.37A3.17,3.17,0,0,0,183,206a1.66,1.66,0,0,0-1.49-.6,1.82,1.82,0,0,0-1.64.85,2.84,2.84,0,0,0-.36.87,4.74,4.74,0,0,0-.11,1v4h-1v-4.37a3.26,3.26,0,0,0-.4-1.75,1.67,1.67,0,0,0-1.49-.6l-.44.06a1.62,1.62,0,0,0-.71.35,2.5,2.5,0,0,0-.67.87,3.49,3.49,0,0,0-.29,1.6v3.84h-1.06Z"/></g><line class="cls-2" x1="101.2" y1="190.33" x2="197.26" y2="190.33"/><line class="cls-2" x1="101.2" y1="190.03" x2="101.2" y2="190.62"/><line class="cls-2" x1="197.26" y1="190.03" x2="197.26" y2="190.62"/><line class="cls-2" x1="101.2" y1="187.8" x2="101.2" y2="192.85"/><line class="cls-2" x1="197.26" y1="187.8" x2="197.26" y2="192.85"/><line class="cls-3" x1="101.2" y1="182.18" x2="197.26" y2="182.18"/><path class="cls-3" d="M197.26,182.18c0-25.59-21.5-46.33-48-46.33s-48,20.74-48,46.33"/><line class="cls-3" x1="149.23" y1="135.85" x2="149.23" y2="49.31"/><g class="cls-1"><path d="M64.35,189.59V189a4.35,4.35,0,0,0-.11-1,2.48,2.48,0,0,0-.36-.79,1.88,1.88,0,0,0-.65-.53,2.06,2.06,0,0,0-1-.2,1.82,1.82,0,0,0-1.42.55,2.23,2.23,0,0,0-.5,1.54,2.35,2.35,0,0,0,1.25,2.16l-.52,1a3.53,3.53,0,0,1-1.35-1.3,3.76,3.76,0,0,1-.44-1.84,4.37,4.37,0,0,1,.19-1.26,3.18,3.18,0,0,1,.57-1,2.62,2.62,0,0,1,.93-.71,2.84,2.84,0,0,1,1.26-.26,2.58,2.58,0,0,1,.88.15,3,3,0,0,1,.75.41,2.85,2.85,0,0,1,.58.62,2.73,2.73,0,0,1,.38.74l0,0a2.28,2.28,0,0,1,.36-.88,2.67,2.67,0,0,1,.65-.69,3.06,3.06,0,0,1,.86-.45,3.1,3.1,0,0,1,1-.16,3.23,3.23,0,0,1,1.39.29,3,3,0,0,1,1,.78,3.71,3.71,0,0,1,.63,1.16,4.5,4.5,0,0,1,.21,1.39,4.24,4.24,0,0,1-.54,2.17,3.24,3.24,0,0,1-1.74,1.39L68.35,191a2.41,2.41,0,0,0,1.21-.86,2.79,2.79,0,0,0,.39-1.59,2.53,2.53,0,0,0-.16-.91,2.34,2.34,0,0,0-.46-.76,2,2,0,0,0-.71-.51,2.12,2.12,0,0,0-.91-.19,2.21,2.21,0,0,0-1.08.24,2,2,0,0,0-.71.64,2.63,2.63,0,0,0-.4.92,4.83,4.83,0,0,0-.12,1.08v.5Z"/><path d="M59.29,179.51a3.24,3.24,0,0,1,.56-2,3.89,3.89,0,0,1,1.43-1.17,6.6,6.6,0,0,1,1.89-.56,15.36,15.36,0,0,1,2-.14,15.09,15.09,0,0,1,2,.14,6.77,6.77,0,0,1,1.9.56,3.78,3.78,0,0,1,1.42,1.17,3.75,3.75,0,0,1,0,3.94A3.66,3.66,0,0,1,69,182.64a6.46,6.46,0,0,1-1.9.57,15.09,15.09,0,0,1-2,.14,15.36,15.36,0,0,1-2-.14,6.31,6.31,0,0,1-1.89-.57,3.77,3.77,0,0,1-1.43-1.16A3.26,3.26,0,0,1,59.29,179.51Zm1.06,0a2,2,0,0,0,.49,1.46,3.11,3.11,0,0,0,1.24.81,5.71,5.71,0,0,0,1.56.34c.56,0,1.06.08,1.51.08s.95,0,1.5-.08a5.7,5.7,0,0,0,1.57-.34,3.08,3.08,0,0,0,1.23-.81,2.05,2.05,0,0,0,.5-1.46,2.09,2.09,0,0,0-.5-1.47,3.17,3.17,0,0,0-1.23-.8,5.71,5.71,0,0,0-1.57-.35c-.55,0-1.05-.07-1.5-.07s-1,0-1.51.07a5.72,5.72,0,0,0-1.56.35,3.2,3.2,0,0,0-1.24.8A2.09,2.09,0,0,0,60.35,179.51Z"/><path d="M59.29,170.61a3.26,3.26,0,0,1,.56-2,3.77,3.77,0,0,1,1.43-1.16,6,6,0,0,1,1.89-.56,13.82,13.82,0,0,1,2-.15,13.58,13.58,0,0,1,2,.15,6.17,6.17,0,0,1,1.9.56,3.66,3.66,0,0,1,1.42,1.16,3.75,3.75,0,0,1,0,3.94A3.78,3.78,0,0,1,69,173.75a6.45,6.45,0,0,1-1.9.56,15.09,15.09,0,0,1-2,.14,15.36,15.36,0,0,1-2-.14,6.3,6.3,0,0,1-1.89-.56,3.89,3.89,0,0,1-1.43-1.17A3.24,3.24,0,0,1,59.29,170.61Zm1.06,0a2.09,2.09,0,0,0,.49,1.47,3.2,3.2,0,0,0,1.24.8,5.72,5.72,0,0,0,1.56.35c.56.05,1.06.07,1.51.07s.95,0,1.5-.07a5.71,5.71,0,0,0,1.57-.35,3.17,3.17,0,0,0,1.23-.8,2.09,2.09,0,0,0,.5-1.47,2.07,2.07,0,0,0-.5-1.46,3.08,3.08,0,0,0-1.23-.81,5.7,5.7,0,0,0-1.57-.34c-.55-.05-1.05-.08-1.5-.08s-1,0-1.51.08a5.71,5.71,0,0,0-1.56.34,3.11,3.11,0,0,0-1.24.81A2.06,2.06,0,0,0,60.35,170.61Z"/><path d="M65,160.56c-.28,0-.56,0-.83,0l-.84,0v-1.13h1.14v0a2.44,2.44,0,0,1-1-1.07,2.94,2.94,0,0,1-.34-1.35,3.07,3.07,0,0,1,.07-.65,2.25,2.25,0,0,1,.23-.66,2.34,2.34,0,0,1,.47-.6,2.28,2.28,0,0,1,.78-.47,2.53,2.53,0,0,1-1.13-1,3.07,3.07,0,0,1,.34-3.58,3.17,3.17,0,0,1,2.17-.68h4.75v1H66.44a3.25,3.25,0,0,0-1.74.4,1.65,1.65,0,0,0-.61,1.49,2,2,0,0,0,.23,1,1.84,1.84,0,0,0,.62.65,2.58,2.58,0,0,0,.87.36,4.31,4.31,0,0,0,1,.11h4v1.06H66.44a3.16,3.16,0,0,0-1.74.4,1.64,1.64,0,0,0-.61,1.49,2.67,2.67,0,0,0,.07.44,1.67,1.67,0,0,0,.35.71,2.53,2.53,0,0,0,.86.66,3.53,3.53,0,0,0,1.6.3h3.84v1.05Z"/><path d="M65,146.93c-.28,0-.56,0-.83,0l-.84,0v-1.13h1.14v0a2.41,2.41,0,0,1-1-1.06,2.94,2.94,0,0,1-.34-1.35,3.07,3.07,0,0,1,.07-.65,2.25,2.25,0,0,1,.23-.66,2,2,0,0,1,.47-.6,2.47,2.47,0,0,1,.78-.48,2.45,2.45,0,0,1-1.13-1,3.07,3.07,0,0,1,.34-3.58,3.12,3.12,0,0,1,2.17-.68h4.75v1H66.44a3.25,3.25,0,0,0-1.74.4,1.64,1.64,0,0,0-.61,1.49,2,2,0,0,0,.23,1,1.93,1.93,0,0,0,.62.65,3.07,3.07,0,0,0,.87.36,4.9,4.9,0,0,0,1,.11h4v1.06H66.44a3.16,3.16,0,0,0-1.74.4,1.63,1.63,0,0,0-.61,1.49,2.67,2.67,0,0,0,.07.44,1.73,1.73,0,0,0,.35.71,2.67,2.67,0,0,0,.86.66,3.53,3.53,0,0,0,1.6.3h3.84v1.05Z"/></g><line class="cls-2" x1="80.7" y1="182.18" x2="80.7" y2="135.87"/><line class="cls-2" x1="78.86" y1="135.85" x2="82.4" y2="135.85"/><line class="cls-2" x1="78.18" y1="182.18" x2="83.23" y2="182.18"/><line class="cls-2" x1="80.7" y1="135.85" x2="80.7" y2="47.06"/><line class="cls-2" x1="78.86" y1="47.03" x2="82.4" y2="47.03"/><line class="cls-2" x1="78.18" y1="135.85" x2="83.23" y2="135.85"/><g class="cls-1"><path d="M66,128.38V128a2.18,2.18,0,0,0-.08-.63,1.47,1.47,0,0,0-.27-.53,1.3,1.3,0,0,0-.49-.36,1.75,1.75,0,0,0-.72-.13,1.44,1.44,0,0,0-1.06.37,1.37,1.37,0,0,0-.38,1,1.48,1.48,0,0,0,.24.84,1.89,1.89,0,0,0,.7.6l-.38.67a2.46,2.46,0,0,1-1-.87,2.25,2.25,0,0,1-.33-1.22,2.41,2.41,0,0,1,.15-.85,1.89,1.89,0,0,1,.42-.69,1.92,1.92,0,0,1,.7-.47,2.32,2.32,0,0,1,.94-.18,2.07,2.07,0,0,1,.66.1,2,2,0,0,1,.56.28,1.91,1.91,0,0,1,.44.41,1.63,1.63,0,0,1,.28.49l0,0a1.59,1.59,0,0,1,.27-.59,1.91,1.91,0,0,1,.48-.46,2.76,2.76,0,0,1,.65-.3,2.68,2.68,0,0,1,.76-.1,2.61,2.61,0,0,1,1,.19,2.23,2.23,0,0,1,.77.52,2.11,2.11,0,0,1,.47.77,2.71,2.71,0,0,1-.24,2.38,2.48,2.48,0,0,1-1.31.93l-.28-.81a1.83,1.83,0,0,0,.91-.57,1.7,1.7,0,0,0,.29-1.07,1.53,1.53,0,0,0-.12-.6,1.52,1.52,0,0,0-.87-.85,1.93,1.93,0,0,0-.69-.13,1.8,1.8,0,0,0-.81.17,1.38,1.38,0,0,0-.53.42,1.61,1.61,0,0,0-.29.62,2.84,2.84,0,0,0-.09.72v.33Z"/><path d="M63.11,119.8v3.08l2.55.06a2.46,2.46,0,0,1-.15-.51,2.94,2.94,0,0,1-.05-.51,2.37,2.37,0,0,1,.2-1,2.33,2.33,0,0,1,.57-.75,2.85,2.85,0,0,1,.87-.49,3.14,3.14,0,0,1,1.08-.18,3.39,3.39,0,0,1,1.13.19,2.56,2.56,0,0,1,.87.54,2.26,2.26,0,0,1,.57.8,2.44,2.44,0,0,1,.21,1,2.23,2.23,0,0,1-.39,1.29,2.38,2.38,0,0,1-1.13.89l-.37-.77a1.88,1.88,0,0,0,.8-.6,1.37,1.37,0,0,0,.29-.88,1.53,1.53,0,0,0-.15-.67,1.9,1.9,0,0,0-.4-.54,2,2,0,0,0-.6-.36,2,2,0,0,0-.74-.13,2.39,2.39,0,0,0-.82.14,1.94,1.94,0,0,0-.64.38,1.61,1.61,0,0,0-.41.59,1.86,1.86,0,0,0-.15.75,2.44,2.44,0,0,0,.13.8,3.46,3.46,0,0,0,.34.76l-4.4-.07V119.8Z"/><path d="M62.17,116a2,2,0,0,1,.42-1.31,2.73,2.73,0,0,1,1.07-.78,5.29,5.29,0,0,1,1.42-.37,11.08,11.08,0,0,1,3,0,5.29,5.29,0,0,1,1.42.37,2.73,2.73,0,0,1,1.07.78,2.25,2.25,0,0,1,0,2.62,2.73,2.73,0,0,1-1.07.78,5.3,5.3,0,0,1-1.42.38,12.3,12.3,0,0,1-3,0,5.3,5.3,0,0,1-1.42-.38,2.73,2.73,0,0,1-1.07-.78A2,2,0,0,1,62.17,116Zm.79,0a1.3,1.3,0,0,0,.38,1,2.27,2.27,0,0,0,.92.54,5.48,5.48,0,0,0,1.18.23c.41,0,.79,0,1.12,0s.72,0,1.13,0a5.48,5.48,0,0,0,1.18-.23,2.34,2.34,0,0,0,.92-.54,1.48,1.48,0,0,0,0-2,2.45,2.45,0,0,0-.92-.53,4.94,4.94,0,0,0-1.18-.23c-.41,0-.79-.05-1.13-.05s-.71,0-1.12.05a4.94,4.94,0,0,0-1.18.23,2.37,2.37,0,0,0-.92.53A1.3,1.3,0,0,0,63,116Z"/><path d="M62.17,110.21a2,2,0,0,1,.42-1.31,2.73,2.73,0,0,1,1.07-.78,5.3,5.3,0,0,1,1.42-.38,12.3,12.3,0,0,1,3,0,5.3,5.3,0,0,1,1.42.38,2.73,2.73,0,0,1,1.07.78,2.25,2.25,0,0,1,0,2.62,2.94,2.94,0,0,1-1.07.78,5.29,5.29,0,0,1-1.42.37,11.08,11.08,0,0,1-3,0,5.29,5.29,0,0,1-1.42-.37,2.94,2.94,0,0,1-1.07-.78A2,2,0,0,1,62.17,110.21Zm.79,0a1.26,1.26,0,0,0,.38,1,2.27,2.27,0,0,0,.92.54,4.94,4.94,0,0,0,1.18.23c.41,0,.79,0,1.12,0s.72,0,1.13,0a4.94,4.94,0,0,0,1.18-.23,2.34,2.34,0,0,0,.92-.54,1.26,1.26,0,0,0,.37-1,1.3,1.3,0,0,0-.37-1,2.34,2.34,0,0,0-.92-.54,5.48,5.48,0,0,0-1.18-.23c-.41,0-.79,0-1.13,0s-.71,0-1.12,0a5.48,5.48,0,0,0-1.18.23,2.27,2.27,0,0,0-.92.54A1.3,1.3,0,0,0,63,110.21Z"/><path d="M66.44,103.79h-.62l-.62,0v-.76h.85v0a1.78,1.78,0,0,1-.75-.71,1.91,1.91,0,0,1-.25-.9,2.18,2.18,0,0,1,0-.43,1.54,1.54,0,0,1,.17-.45,1.89,1.89,0,0,1,.36-.4,1.92,1.92,0,0,1,.59-.31,1.81,1.81,0,0,1-.86-.68,1.76,1.76,0,0,1-.31-1,1.71,1.71,0,0,1,.57-1.42,2.51,2.51,0,0,1,1.63-.46h3.56V97H67.54a2.59,2.59,0,0,0-1.31.27,1,1,0,0,0-.46,1A1.12,1.12,0,0,0,66,99a1.3,1.3,0,0,0,.46.44,2.19,2.19,0,0,0,.65.24,3.84,3.84,0,0,0,.76.07h3v.7H67.54a2.59,2.59,0,0,0-1.31.27,1,1,0,0,0-.46,1,2.47,2.47,0,0,0,0,.3,1.06,1.06,0,0,0,.26.47,2,2,0,0,0,.65.44,2.82,2.82,0,0,0,1.2.2h2.88v.71Z"/><path d="M66.44,94.83l-.62,0-.62,0v-.76h.85v0a1.78,1.78,0,0,1-.75-.71,1.91,1.91,0,0,1-.25-.9,2.18,2.18,0,0,1,0-.43,1.54,1.54,0,0,1,.17-.45,1.89,1.89,0,0,1,.36-.4,1.92,1.92,0,0,1,.59-.31,1.81,1.81,0,0,1-.86-.68,1.76,1.76,0,0,1-.31-1,1.71,1.71,0,0,1,.57-1.42,2.51,2.51,0,0,1,1.63-.46h3.56v.7H67.54a2.59,2.59,0,0,0-1.31.27,1,1,0,0,0-.46,1A1.16,1.16,0,0,0,66,90a1.27,1.27,0,0,0,.46.43,2,2,0,0,0,.65.25,4.77,4.77,0,0,0,.76.07h3v.7H67.54a2.59,2.59,0,0,0-1.31.27,1,1,0,0,0-.46,1,2.47,2.47,0,0,0,0,.3,1.06,1.06,0,0,0,.26.47,2,2,0,0,0,.65.44,3,3,0,0,0,1.2.2h2.88v.7Z"/><path d="M65.92,80.73v1.19h4.89v.7H65.92v1.06H65.2V82.62H63.66a2.24,2.24,0,0,1-1.59-.46,1.6,1.6,0,0,1-.47-1.22,1.56,1.56,0,0,1,0-.3l.06-.3.72.12-.06.27a1.32,1.32,0,0,0,0,.28.94.94,0,0,0,.1.47.84.84,0,0,0,.31.28,1.55,1.55,0,0,0,.46.12,5.1,5.1,0,0,0,.57,0H65.2V80.73Z"/><path d="M68,75a3.44,3.44,0,0,1,1.18.2,2.84,2.84,0,0,1,.94.55,2.33,2.33,0,0,1,.61.84,2.58,2.58,0,0,1-.61,3,3,3,0,0,1-.94.55,3.73,3.73,0,0,1-2.35,0,3,3,0,0,1-.94-.55,2.7,2.7,0,0,1-.62-.84,2.69,2.69,0,0,1,0-2.13,2.48,2.48,0,0,1,.62-.84,2.84,2.84,0,0,1,.94-.55A3.42,3.42,0,0,1,68,75Zm0,.77a2.73,2.73,0,0,0-.87.13,2.3,2.3,0,0,0-.71.38,1.78,1.78,0,0,0-.47.59,1.73,1.73,0,0,0-.18.79,1.66,1.66,0,0,0,.18.78,1.68,1.68,0,0,0,.47.59,2.28,2.28,0,0,0,.71.37,2.8,2.8,0,0,0,1.75,0,2.28,2.28,0,0,0,.71-.37,1.68,1.68,0,0,0,.47-.59,1.66,1.66,0,0,0,.18-.78,1.73,1.73,0,0,0-.18-.79,1.78,1.78,0,0,0-.47-.59,2.3,2.3,0,0,0-.71-.38A2.75,2.75,0,0,0,68,75.76Z"/><path d="M67,73.78h-.76l-1,0v-.7h1v0a2,2,0,0,1-.44-.21,1.72,1.72,0,0,1-.38-.34,1.68,1.68,0,0,1-.27-.45,1.89,1.89,0,0,1-.1-.6,2,2,0,0,1,.07-.52l.78.14a1.05,1.05,0,0,0-.06.4,1.28,1.28,0,0,0,.18.7,1.55,1.55,0,0,0,.44.48A1.94,1.94,0,0,0,67,73a2.18,2.18,0,0,0,.6.09h3.17v.71Z"/><path d="M70,66.6v-4h.79v4.81H62.32V62.68h.79V66.6H66V62.94h.79V66.6Z"/><path d="M69.47,55a2.93,2.93,0,0,1,.61.47,3.21,3.21,0,0,1,.5.65,3.39,3.39,0,0,1,.33.78,3.24,3.24,0,0,1,.12.89,3.56,3.56,0,0,1-.34,1.56,3.69,3.69,0,0,1-.93,1.25,4.11,4.11,0,0,1-1.41.83,5.46,5.46,0,0,1-3.57,0,4.11,4.11,0,0,1-1.41-.83,3.69,3.69,0,0,1-.93-1.25,3.56,3.56,0,0,1-.34-1.56,3.42,3.42,0,0,1,.31-1.41,2.87,2.87,0,0,1,1-1.2l.57.67a2.27,2.27,0,0,0-.77.78,3.1,3.1,0,0,0-.25.56,1.8,1.8,0,0,0-.1.6,2.74,2.74,0,0,0,.3,1.3A3,3,0,0,0,64,60a3.43,3.43,0,0,0,1.17.61,4.53,4.53,0,0,0,2.79,0A3.43,3.43,0,0,0,69.13,60a3,3,0,0,0,.81-1,2.74,2.74,0,0,0,.3-1.3,3,3,0,0,0-.06-.59,2.13,2.13,0,0,0-.21-.58,2.06,2.06,0,0,0-.39-.53,2.56,2.56,0,0,0-.62-.46Z"/><path d="M66.56,46.44a5.13,5.13,0,0,1,1.79.3,4.28,4.28,0,0,1,1.41.83,3.69,3.69,0,0,1,.93,1.25,3.75,3.75,0,0,1,0,3.12,3.69,3.69,0,0,1-.93,1.25,4.28,4.28,0,0,1-1.41.83,5.46,5.46,0,0,1-3.57,0,4.28,4.28,0,0,1-1.41-.83,3.69,3.69,0,0,1-.93-1.25,3.75,3.75,0,0,1,0-3.12,3.69,3.69,0,0,1,.93-1.25,4.28,4.28,0,0,1,1.41-.83A5.12,5.12,0,0,1,66.56,46.44Zm0,.84a4.59,4.59,0,0,0-1.39.21A3.61,3.61,0,0,0,64,48.1a3,3,0,0,0-.81,1,3,3,0,0,0,0,2.6,3,3,0,0,0,.81,1,3.61,3.61,0,0,0,1.17.61,4.74,4.74,0,0,0,2.79,0,3.61,3.61,0,0,0,1.17-.61,3,3,0,0,0,.81-1,3,3,0,0,0,0-2.6,3,3,0,0,0-.81-1A3.61,3.61,0,0,0,68,47.49,4.61,4.61,0,0,0,66.56,47.28Z"/></g><g class="cls-1"><path d="M53,115.3v-1.63H54v1.63h2.69v1.16H54v4.89H52.72l-7.33-4.58V115.3Zm-6.43,1.16v0l6.43,3.9v-3.93Z"/><path d="M45.2,108.61a3.14,3.14,0,0,1,.56-2,3.78,3.78,0,0,1,1.42-1.17,6.45,6.45,0,0,1,1.9-.56,13.58,13.58,0,0,1,2-.15,13.82,13.82,0,0,1,2,.15,6.3,6.3,0,0,1,1.89.56,3.89,3.89,0,0,1,1.43,1.17,3.73,3.73,0,0,1,0,3.93,3.89,3.89,0,0,1-1.43,1.17,6.3,6.3,0,0,1-1.89.56,13.82,13.82,0,0,1-2,.15,13.58,13.58,0,0,1-2-.15,6.45,6.45,0,0,1-1.9-.56,3.78,3.78,0,0,1-1.42-1.17A3.16,3.16,0,0,1,45.2,108.61Zm1,0a2.09,2.09,0,0,0,.5,1.47,3.08,3.08,0,0,0,1.23.81,6.09,6.09,0,0,0,1.57.34c.55,0,1.05.07,1.5.07s1,0,1.51-.07a6.1,6.1,0,0,0,1.56-.34,3.11,3.11,0,0,0,1.24-.81,2.44,2.44,0,0,0,0-2.93,3.11,3.11,0,0,0-1.24-.81,6.1,6.1,0,0,0-1.56-.34c-.56,0-1.06-.07-1.51-.07s-.95,0-1.5.07a6.09,6.09,0,0,0-1.57.34,3.08,3.08,0,0,0-1.23.81A2.09,2.09,0,0,0,46.25,108.61Z"/><path d="M45.2,99.72a3.17,3.17,0,0,1,.56-2,3.78,3.78,0,0,1,1.42-1.17,6.77,6.77,0,0,1,1.9-.56,15.09,15.09,0,0,1,2-.14A15.36,15.36,0,0,1,53,96a6.6,6.6,0,0,1,1.89.56,3.89,3.89,0,0,1,1.43,1.17,3.75,3.75,0,0,1,0,3.94,3.77,3.77,0,0,1-1.43,1.16,6.31,6.31,0,0,1-1.89.57,15.36,15.36,0,0,1-2,.14,15.09,15.09,0,0,1-2-.14,6.46,6.46,0,0,1-1.9-.57,3.66,3.66,0,0,1-1.42-1.16A3.17,3.17,0,0,1,45.2,99.72Zm1,0a2.05,2.05,0,0,0,.5,1.46A3.08,3.08,0,0,0,48,102a5.7,5.7,0,0,0,1.57.34c.55,0,1.05.08,1.5.08s1,0,1.51-.08a5.71,5.71,0,0,0,1.56-.34,3.11,3.11,0,0,0,1.24-.81,2,2,0,0,0,.49-1.46,2.09,2.09,0,0,0-.49-1.47,3.2,3.2,0,0,0-1.24-.8,6.11,6.11,0,0,0-1.56-.35c-.56,0-1.06-.07-1.51-.07s-.95,0-1.5.07a6.09,6.09,0,0,0-1.57.35,3.17,3.17,0,0,0-1.23.8A2.09,2.09,0,0,0,46.25,99.72Z"/><path d="M45.2,90.82a3.19,3.19,0,0,1,.56-2,3.66,3.66,0,0,1,1.42-1.16,6.17,6.17,0,0,1,1.9-.56,13.58,13.58,0,0,1,2-.15,13.82,13.82,0,0,1,2,.15,6,6,0,0,1,1.89.56,3.77,3.77,0,0,1,1.43,1.16,3.75,3.75,0,0,1,0,3.94A3.89,3.89,0,0,1,54.92,94a6.3,6.3,0,0,1-1.89.56,13.76,13.76,0,0,1-2,.14,13.53,13.53,0,0,1-2-.14,6.45,6.45,0,0,1-1.9-.56,3.78,3.78,0,0,1-1.42-1.17A3.17,3.17,0,0,1,45.2,90.82Zm1,0a2.09,2.09,0,0,0,.5,1.47A3.3,3.3,0,0,0,48,93.1a6.09,6.09,0,0,0,1.57.34c.55,0,1.05.07,1.5.07s1,0,1.51-.07a6.1,6.1,0,0,0,1.56-.34,3.34,3.34,0,0,0,1.24-.81,2.09,2.09,0,0,0,.49-1.47,2.06,2.06,0,0,0-.49-1.46,3.11,3.11,0,0,0-1.24-.81,5.71,5.71,0,0,0-1.56-.34c-.56,0-1.06-.08-1.51-.08s-.95,0-1.5.08a5.7,5.7,0,0,0-1.57.34,3.08,3.08,0,0,0-1.23.81A2.07,2.07,0,0,0,46.25,90.82Z"/><path d="M50.89,80.77c-.28,0-.55,0-.83,0l-.83,0V79.72h1.13v0a2.56,2.56,0,0,1-1-1.07A3.05,3.05,0,0,1,49,77.27a3.83,3.83,0,0,1,.06-.65,2.25,2.25,0,0,1,.23-.66,2.34,2.34,0,0,1,.47-.6,2.44,2.44,0,0,1,.79-.47,2.56,2.56,0,0,1-1.14-1,3.1,3.1,0,0,1,.35-3.58A3.14,3.14,0,0,1,52,69.61h4.76v1H52.35a3.26,3.26,0,0,0-1.75.4,1.67,1.67,0,0,0-.6,1.49,1.86,1.86,0,0,0,.23,1,1.81,1.81,0,0,0,.61.65,2.55,2.55,0,0,0,.88.36,4.17,4.17,0,0,0,1,.11h4v1.06H52.35a3.17,3.17,0,0,0-1.75.4,1.66,1.66,0,0,0-.6,1.49,3.61,3.61,0,0,0,.06.44,1.67,1.67,0,0,0,.35.71,2.48,2.48,0,0,0,.87.66,3.48,3.48,0,0,0,1.6.3h3.84v1Z"/><path d="M50.89,67.14c-.28,0-.55,0-.83,0l-.83,0V66.09h1.13v0a2.53,2.53,0,0,1-1-1.06A3.05,3.05,0,0,1,49,63.64,3.83,3.83,0,0,1,49.1,63a2.25,2.25,0,0,1,.23-.66,2,2,0,0,1,.47-.6,2.64,2.64,0,0,1,.79-.48,2.48,2.48,0,0,1-1.14-1A2.78,2.78,0,0,1,49,58.79a2.73,2.73,0,0,1,.76-2.13A3.09,3.09,0,0,1,52,56h4.76V57H52.35a3.17,3.17,0,0,0-1.75.4,1.66,1.66,0,0,0-.6,1.49,1.84,1.84,0,0,0,.84,1.64,3,3,0,0,0,.88.36,4.74,4.74,0,0,0,1,.11h4v1.06H52.35a3.17,3.17,0,0,0-1.75.4A1.65,1.65,0,0,0,50,64a3.61,3.61,0,0,0,.06.44,1.73,1.73,0,0,0,.35.71,2.61,2.61,0,0,0,.87.66,3.48,3.48,0,0,0,1.6.3h3.84v1Z"/></g></svg>