<svg id="Skygarden_Recessed" xmlns="http://www.w3.org/2000/svg" viewBox="0 0 300 263"><defs><style>.cls-1,.cls-3,.cls-4,.cls-5{fill:none;stroke-width:0.5px;}.cls-1,.cls-5{stroke:#000;}.cls-2{isolation:isolate;font-size:16px;}.cls-2,.cls-6{font-family:Avenir-Book, Avenir;}.cls-3,.cls-4{stroke:#1d1d1b;}.cls-3{stroke-linecap:round;stroke-linejoin:round;}.cls-5{stroke-miterlimit:3.86;}.cls-6{font-size:7.32px;}.cls-7{font-size:14.64px;}</style></defs><title>skygarden-recessed-ceiling-wall-wanders-flos-F6430009-spech-tech-02-300x263-01</title><line class="cls-1" x1="228.42" y1="189.89" x2="71.81" y2="189.89"/><line class="cls-1" x1="228.42" y1="191.2" x2="228.42" y2="188.5"/><line class="cls-1" x1="71.81" y1="191.2" x2="71.81" y2="188.5"/><text class="cls-2" transform="translate(117.76 210.11)">ø 213 mm</text><line class="cls-1" x1="35.15" y1="47.02" x2="35.29" y2="182.22"/><line class="cls-1" x1="37.54" y1="47.02" x2="32.61" y2="47.02"/><line class="cls-1" x1="37.68" y1="182.22" x2="32.75" y2="182.22"/><text class="cls-2" transform="translate(26.32 146.53) rotate(-89.68)">ø 250 mm</text><path class="cls-3" d="M71.81,182.82s2.46,0,2.46-2.9a2.89,2.89,0,0,0-2.41-2.72s1.28-34.67,28.54-55.44c0,0,4.94,1.66,5.4-3.89,0,0,7.47-5.79,14.84-7.78h2.65l2.89,3.26s.15.55,1.67.55a2.5,2.5,0,0,0,2.55-2.59v-4h39.42v4a2.5,2.5,0,0,0,2.55,2.59c1.53,0,1.67-.55,1.67-.55l2.9-3.26h2.64c7.37,2,14.85,7.78,14.85,7.78.45,5.55,5.4,3.89,5.4,3.89,27.25,20.77,28.53,55.44,28.53,55.44a2.89,2.89,0,0,0-2.41,2.72c0,2.93,2.47,2.9,2.47,2.9Z"/><path class="cls-3" d="M120.67,110.19s-10.06,4.59-13.11,8c0,0,.41,3.93-5.06,3.93h-1s-24.32,19.44-26.22,55.28c0,0,2,.75,2,2.43a2.79,2.79,0,0,1-1.74,2.89m-3.65-6.09H228.39M73,177.71H227.12M105.65,117.94H194.5m-89.18,2h89.42m-91.16,2.15h94.79"/><path class="cls-3" d="M150.09,166.61a92.56,92.56,0,0,0,22.9-3.46c2.77-1,2.6-2.46,2.6-2.46l-4.24-37.82c-.28-3.78-4.28-3.87-4.28-3.87H132.93s-4,.09-4.28,3.87l-4.23,37.82s-.18,1.51,2.59,2.46C127,163.15,138.81,166.61,150.09,166.61Z"/><path class="cls-3" d="M149.91,166.61c11.29,0,23.08-3.46,23.08-3.46,2.77-1,2.59-2.46,2.59-2.46l-4.23-37.82c-.27-3.78-4.28-3.87-4.28-3.87h-2.78v1.68h3.42v.91h1.6l4.91,38.24a2.71,2.71,0,0,1-1.68,1.59A100,100,0,0,1,150,164.47a99.87,99.87,0,0,1-22.53-3.05,2.71,2.71,0,0,1-1.68-1.59l4.91-38.24h1.59v-.91h3.42V119h-2.78s-4,.09-4.27,3.87l-4.24,37.82s-.18,1.51,2.6,2.46A92.43,92.43,0,0,0,149.91,166.61Z"/><path class="cls-3" d="M149.37,123.51v5.91s-2,.64-2,2.05v8.15s-.23.82.22.91,1.74.78,1.74,1.27,0,1.33.63,1.33.64-.83.64-1.33,1.28-1.18,1.73-1.27.22-.91.22-.91v-8.15c0-1.41-2-2.05-2-2.05v-5.91Z"/><path class="cls-3" d="M143.87,123.5v-5l-6.1-2.47h-12c-1.89,0-1.55-2.18-1.55-2.18h1.35v.92h4.26v-1.21h1.36v-9.24h-6.68v-1.26s.14-1.4,2.37-1.4h46.47c2.24,0,2.38,1.4,2.38,1.4v1.26h-6.68v9.24h1.35v1.21h4.26v-.92H176s.33,2.18-1.56,2.18h-12l-6.1,2.47v5Z"/><path class="cls-3" d="M137.29,101.67h20.47V86.61s.24-6.2,8.47-7.07l32-4.5s9.4-2.22,13.27,5.18l12.63,22.36s1.31,3.49-.72,4.89l-3.83,2.37s-4.06,1.21-5.52-1.35-9.24-16.55-9.24-16.55-.68-1.56-3.73-1.17l-36.89,5.08a2.6,2.6,0,0,0-2.37,2.67v16.16H137.29Z"/><path class="cls-4" d="M45.47,182.82H71.8s2.47,0,2.47-2.9a2.89,2.89,0,0,0-2.41-2.72s1.28-34.67,28.54-55.44c0,0,4.94,1.66,5.4-3.89,0,0,7.47-5.79,14.84-7.78h2.65l2.89,3.26s.15.55,1.67.55a2.5,2.5,0,0,0,2.55-2.59v-7.72h-9.5v.86S76.19,118,67.42,169.79c0,0-1.17,6.18-7.62,6.18H45.47Z"/><path class="cls-4" d="M254.76,182.82H228.42s-2.47,0-2.47-2.9a2.89,2.89,0,0,1,2.41-2.72s-1.28-34.67-28.53-55.44c0,0-5,1.66-5.4-3.89,0,0-7.48-5.79-14.85-7.78h-2.64l-2.9,3.26s-.14.55-1.67.55a2.5,2.5,0,0,1-2.55-2.59v-7.72h9.51v.86S224,118,232.8,169.79c0,0,1.17,6.18,7.62,6.18h14.34Z"/><path class="cls-3" d="M125.76,159.75h48.58m-47.2,1.46h46.18"/><path class="cls-3" d="M148.16,167.07a1.11,1.11,0,0,1,.56-.91v-7.45h2.48v7.45a1.14,1.14,0,0,1,.55.91c0,.69-.8,1.25-1.8,1.25S148.16,167.76,148.16,167.07Z"/><rect class="cls-3" x="45.17" y="47.02" width="209.67" height="8.39"/><line class="cls-1" x1="254.93" y1="37.59" x2="45.34" y2="37.59"/><line class="cls-1" x1="254.93" y1="39.34" x2="254.93" y2="35.73"/><line class="cls-1" x1="45.34" y1="39.34" x2="45.34" y2="35.73"/><path class="cls-5" d="M89.38,29.22V23.37H88l-1.7,1.83h1.19l-1.86,2H87l-1.35,1.67c-19.51-2.5-9-8.35,3-8.18,10.17,0,21.54,5.51,5.26,8.18"/><text class="cls-6" transform="translate(103.54 29.7) scale(1.1 1)"> <tspan class="cls-7" x="2.03" y="0">410 mm (square)</tspan></text></svg>