<svg id="skygarden_S2" data-name="skygarden S2" xmlns="http://www.w3.org/2000/svg" viewBox="0 0 300 263"><defs><style>.cls-1{isolation:isolate;}.cls-2,.cls-3{fill:none;stroke-width:0.5px;}.cls-2{stroke:#000;}.cls-3{stroke:#231f20;stroke-linecap:round;stroke-linejoin:round;}</style></defs><title>skygarden-suspension-2-eco-wanders-flos-F6421044-spech-tech-02-300x263</title><g class="cls-1"><path d="M121.18,242.31a4,4,0,0,1,.68,1.16,4.28,4.28,0,0,1,.24,1.45,4,4,0,0,1-.29,1.57,3.73,3.73,0,0,1-2.08,2.07,4.2,4.2,0,0,1-1.61.3,4.15,4.15,0,0,1-1.4-.23,3.94,3.94,0,0,1-1.11-.6l-1.07,1.08-.52-.49,1.06-1.09a3.56,3.56,0,0,1-.69-1.18,4.17,4.17,0,0,1-.24-1.43,4.07,4.07,0,0,1,.3-1.57,3.78,3.78,0,0,1,.82-1.24,3.64,3.64,0,0,1,1.26-.83,4.09,4.09,0,0,1,1.59-.29,4.4,4.4,0,0,1,1.39.21,3.65,3.65,0,0,1,1.15.62l1.06-1.09.51.49Zm-1.25.26a2.64,2.64,0,0,0-1.81-.62,2.79,2.79,0,0,0-1.18.23,2.54,2.54,0,0,0-.88.63,3,3,0,0,0-.56.94,3.46,3.46,0,0,0-.2,1.17,3,3,0,0,0,.55,1.83Zm-3.6,4.72a2.72,2.72,0,0,0,.8.45,3.11,3.11,0,0,0,1,.16,3,3,0,0,0,1.18-.23,2.7,2.7,0,0,0,.88-.64,2.64,2.64,0,0,0,.57-.94,3.2,3.2,0,0,0,.2-1.17,3.13,3.13,0,0,0-.54-1.82Z"/><path d="M133.14,243.8l0,0a2,2,0,0,1-.73.29,4.3,4.3,0,0,1-.84.09,3.4,3.4,0,0,1-1.36-.26,3.36,3.36,0,0,1-1.1-.73,3.47,3.47,0,0,1-.73-1.1,3.8,3.8,0,0,1-.26-1.41,3.68,3.68,0,0,1,.27-1.43,3.27,3.27,0,0,1,.77-1.1,3.49,3.49,0,0,1,1.17-.72,4,4,0,0,1,1.47-.25,4.13,4.13,0,0,1,1.47.25,3.49,3.49,0,0,1,1.17.72,3.41,3.41,0,0,1,.77,1.1,3.68,3.68,0,0,1,.27,1.43,4.6,4.6,0,0,1-.28,1.65,9.53,9.53,0,0,1-.7,1.39l-3.05,5h-1.36Zm1.16-3.15a2.64,2.64,0,0,0-.19-1,2.06,2.06,0,0,0-.52-.77,2.61,2.61,0,0,0-.8-.51,2.8,2.8,0,0,0-1-.18,2.86,2.86,0,0,0-1,.18,2.74,2.74,0,0,0-.8.51,2.33,2.33,0,0,0-.52.77,2.81,2.81,0,0,0,0,2,2.48,2.48,0,0,0,.52.78,2.36,2.36,0,0,0,.8.5,2.86,2.86,0,0,0,1,.18,2.8,2.8,0,0,0,1-.18,2.26,2.26,0,0,0,.8-.5,2.18,2.18,0,0,0,.52-.78A2.64,2.64,0,0,0,134.3,240.65Z"/><path d="M140.66,237.15a3.17,3.17,0,0,1,2,.56,3.78,3.78,0,0,1,1.17,1.42,6.45,6.45,0,0,1,.56,1.9,13.53,13.53,0,0,1,.14,2,13.76,13.76,0,0,1-.14,2,6.3,6.3,0,0,1-.56,1.89,3.89,3.89,0,0,1-1.17,1.43,3.73,3.73,0,0,1-3.93,0,3.79,3.79,0,0,1-1.17-1.43A6,6,0,0,1,137,245a13.82,13.82,0,0,1-.15-2,13.58,13.58,0,0,1,.15-2,6.17,6.17,0,0,1,.56-1.9,3.69,3.69,0,0,1,1.17-1.42A3.14,3.14,0,0,1,140.66,237.15Zm0,1a2.09,2.09,0,0,0-1.46.5,3.08,3.08,0,0,0-.81,1.23,6.09,6.09,0,0,0-.34,1.57c-.05.55-.07,1.05-.07,1.5s0,.95.07,1.5a6.09,6.09,0,0,0,.34,1.57,3.08,3.08,0,0,0,.81,1.23,2.4,2.4,0,0,0,2.93,0,3.19,3.19,0,0,0,.81-1.23,6.09,6.09,0,0,0,.34-1.57c.05-.55.07-1.05.07-1.5s0-.95-.07-1.5a6.09,6.09,0,0,0-.34-1.57,3.19,3.19,0,0,0-.81-1.23A2.09,2.09,0,0,0,140.66,238.2Z"/><path d="M149.56,237.15a3.17,3.17,0,0,1,2,.56,3.78,3.78,0,0,1,1.17,1.42,6.77,6.77,0,0,1,.56,1.9,15.09,15.09,0,0,1,.14,2,15.36,15.36,0,0,1-.14,2,6.6,6.6,0,0,1-.56,1.89,3.89,3.89,0,0,1-1.17,1.43,3.75,3.75,0,0,1-3.94,0,3.89,3.89,0,0,1-1.17-1.43,6.6,6.6,0,0,1-.56-1.89,15.36,15.36,0,0,1-.14-2,15.09,15.09,0,0,1,.14-2,6.77,6.77,0,0,1,.56-1.9,3.78,3.78,0,0,1,1.17-1.42A3.17,3.17,0,0,1,149.56,237.15Zm0,1a2.05,2.05,0,0,0-1.46.5,3.08,3.08,0,0,0-.81,1.23,6.09,6.09,0,0,0-.35,1.57c0,.55-.07,1.05-.07,1.5s0,.95.07,1.5a6.09,6.09,0,0,0,.35,1.57,3.08,3.08,0,0,0,.81,1.23,2.38,2.38,0,0,0,2.92,0,3.08,3.08,0,0,0,.81-1.23,6.09,6.09,0,0,0,.35-1.57c0-.55.07-1.05.07-1.5s0-.95-.07-1.5a6.09,6.09,0,0,0-.35-1.57,3.08,3.08,0,0,0-.81-1.23A2.05,2.05,0,0,0,149.56,238.2Z"/><path d="M159.61,242.84c0-.28,0-.55,0-.83s0-.56-.05-.83h1.13v1.13h0a2.47,2.47,0,0,1,1.06-1,3.05,3.05,0,0,1,1.35-.33,3.83,3.83,0,0,1,.65.06,2.25,2.25,0,0,1,.66.23,2,2,0,0,1,.6.47,2.64,2.64,0,0,1,.48.79,2.48,2.48,0,0,1,1-1.14A2.78,2.78,0,0,1,168,241a2.73,2.73,0,0,1,2.13.76,3.08,3.08,0,0,1,.69,2.16v4.76h-1.06V244.3a3.17,3.17,0,0,0-.4-1.75,1.66,1.66,0,0,0-1.49-.6,1.84,1.84,0,0,0-1.64.84,3,3,0,0,0-.36.88,4.74,4.74,0,0,0-.11,1v4h-1.06V244.3a3.17,3.17,0,0,0-.4-1.75,1.64,1.64,0,0,0-1.48-.6l-.44.06a1.71,1.71,0,0,0-.72.35,2.67,2.67,0,0,0-.66.86,3.55,3.55,0,0,0-.3,1.61v3.84h-1Z"/><path d="M173.24,242.84c0-.28,0-.55,0-.83l-.06-.83h1.14v1.13h0a2.47,2.47,0,0,1,1.06-1,3.08,3.08,0,0,1,1.35-.33,3.74,3.74,0,0,1,.65.06,2.42,2.42,0,0,1,.67.23,2.34,2.34,0,0,1,.6.47,2.85,2.85,0,0,1,.47.79,2.48,2.48,0,0,1,1-1.14,2.78,2.78,0,0,1,1.45-.41,2.73,2.73,0,0,1,2.13.76,3.08,3.08,0,0,1,.69,2.16v4.76h-1.06V244.3a3.17,3.17,0,0,0-.4-1.75,1.66,1.66,0,0,0-1.49-.6,1.91,1.91,0,0,0-1,.23,2,2,0,0,0-.65.61,3,3,0,0,0-.36.88,4.74,4.74,0,0,0-.11,1v4h-1V244.3a3.26,3.26,0,0,0-.4-1.75,1.67,1.67,0,0,0-1.49-.6L176,242a1.62,1.62,0,0,0-.71.35,2.55,2.55,0,0,0-.67.86,3.57,3.57,0,0,0-.29,1.61v3.84h-1.06Z"/></g><line class="cls-2" x1="90.32" y1="226.87" x2="208.78" y2="226.87"/><line class="cls-2" x1="90.32" y1="226.58" x2="90.32" y2="227.16"/><line class="cls-2" x1="208.78" y1="226.58" x2="208.78" y2="227.16"/><line class="cls-2" x1="90.32" y1="224.35" x2="90.32" y2="229.4"/><line class="cls-2" x1="208.78" y1="224.35" x2="208.78" y2="229.4"/><line class="cls-3" x1="90.32" y1="217.3" x2="208.78" y2="217.3"/><path class="cls-3" d="M208.78,217.3a59.23,59.23,0,1,0-118.46,0"/><line class="cls-3" x1="149.55" y1="158.06" x2="149.55" y2="47.42"/><g class="cls-1"><path d="M67.07,210.59V209h1.05v1.63h2.69v1.15H68.12v4.89H66.81l-7.33-4.57v-1.47Zm-6.43,1.15v0l6.43,3.91v-3.94Z"/><path d="M60.54,200.91v4.62l3.41.08a3.21,3.21,0,0,1-.21-.75,5,5,0,0,1-.06-.77,3.83,3.83,0,0,1,.27-1.46,3.22,3.22,0,0,1,.76-1.12,3.45,3.45,0,0,1,1.15-.74,4,4,0,0,1,1.45-.26,3.8,3.8,0,0,1,1.49.28,3.36,3.36,0,0,1,1.17.81,3.56,3.56,0,0,1,.76,1.2,4.17,4.17,0,0,1,.27,1.51,3.72,3.72,0,0,1-.51,1.94,3.31,3.31,0,0,1-1.5,1.33l-.5-1.15a2.69,2.69,0,0,0,1.07-.9,2.28,2.28,0,0,0,.39-1.32,2.51,2.51,0,0,0-.2-1,2.67,2.67,0,0,0-.54-.81,2.36,2.36,0,0,0-.8-.54,2.54,2.54,0,0,0-1-.2,2.79,2.79,0,0,0-1.09.21,2.65,2.65,0,0,0-.85.57,2.6,2.6,0,0,0-.56.88,3.37,3.37,0,0,0-.19,1.12,4.53,4.53,0,0,0,.17,1.21,5.14,5.14,0,0,0,.46,1.14l-5.88-.11v-5.77Z"/><path d="M59.29,195a3.21,3.21,0,0,1,.56-2,3.7,3.7,0,0,1,1.43-1.17,6,6,0,0,1,1.89-.56,13.82,13.82,0,0,1,2-.15,13.58,13.58,0,0,1,2,.15,6.17,6.17,0,0,1,1.9.56A3.6,3.6,0,0,1,70.44,193a3.73,3.73,0,0,1,0,3.93A3.78,3.78,0,0,1,69,198.14a6.45,6.45,0,0,1-1.9.56,15.09,15.09,0,0,1-2,.14,15.36,15.36,0,0,1-2-.14,6.3,6.3,0,0,1-1.89-.56A3.89,3.89,0,0,1,59.85,197,3.24,3.24,0,0,1,59.29,195Zm1.06,0a2.09,2.09,0,0,0,.49,1.47,3.34,3.34,0,0,0,1.24.81,6.1,6.1,0,0,0,1.56.34c.56,0,1.06.07,1.51.07s.95,0,1.5-.07a6.09,6.09,0,0,0,1.57-.34,3.3,3.3,0,0,0,1.23-.81A2.09,2.09,0,0,0,70,195a2.07,2.07,0,0,0-.5-1.46,3.08,3.08,0,0,0-1.23-.81,6.09,6.09,0,0,0-1.57-.34c-.55,0-1.05-.08-1.5-.08s-1,0-1.51.08a6.1,6.1,0,0,0-1.56.34,3.11,3.11,0,0,0-1.24.81A2.06,2.06,0,0,0,60.35,195Z"/><path d="M65,185c-.28,0-.56,0-.83,0l-.84.06V183.9h1.14v0a2.44,2.44,0,0,1-1-1.07,2.94,2.94,0,0,1-.34-1.35,3.07,3.07,0,0,1,.07-.65,2.25,2.25,0,0,1,.23-.66,2.34,2.34,0,0,1,.47-.6,2.45,2.45,0,0,1,.78-.47,2.48,2.48,0,0,1-1.13-1,3.06,3.06,0,0,1,.34-3.57,3.12,3.12,0,0,1,2.17-.69h4.75v1.05H66.44a3.25,3.25,0,0,0-1.74.4,1.65,1.65,0,0,0-.61,1.49,2,2,0,0,0,.23,1,1.84,1.84,0,0,0,.62.65,2.58,2.58,0,0,0,.87.36,4.31,4.31,0,0,0,1,.11h4v1.06H66.44a3.16,3.16,0,0,0-1.74.4,1.64,1.64,0,0,0-.61,1.49,2.67,2.67,0,0,0,.07.44,1.67,1.67,0,0,0,.35.71,2.42,2.42,0,0,0,.86.66,3.53,3.53,0,0,0,1.6.3h3.84V185Z"/><path d="M65,171.32c-.28,0-.56,0-.83,0l-.84.05v-1.13h1.14v0a2.49,2.49,0,0,1-1-1.07,2.94,2.94,0,0,1-.34-1.35,3.07,3.07,0,0,1,.07-.65,2.25,2.25,0,0,1,.23-.66,2,2,0,0,1,.47-.6,2.28,2.28,0,0,1,.78-.47,2.53,2.53,0,0,1-1.13-1,3.07,3.07,0,0,1,.34-3.58,3.12,3.12,0,0,1,2.17-.68h4.75v1.05H66.44a3.25,3.25,0,0,0-1.74.4,1.64,1.64,0,0,0-.61,1.49,2,2,0,0,0,.23,1,1.93,1.93,0,0,0,.62.65,2.58,2.58,0,0,0,.87.36,4.9,4.9,0,0,0,1,.11h4v1.06H66.44a3.16,3.16,0,0,0-1.74.4,1.63,1.63,0,0,0-.61,1.49,2.67,2.67,0,0,0,.07.44,1.67,1.67,0,0,0,.35.71,2.67,2.67,0,0,0,.86.66,3.53,3.53,0,0,0,1.6.3h3.84v1Z"/></g><line class="cls-2" x1="80.7" y1="217.52" x2="80.7" y2="158.08"/><line class="cls-2" x1="78.86" y1="158.06" x2="82.4" y2="158.06"/><line class="cls-2" x1="78.18" y1="217.52" x2="83.23" y2="217.52"/><line class="cls-2" x1="80.7" y1="158.06" x2="80.7" y2="47.06"/><line class="cls-2" x1="78.86" y1="47.03" x2="82.4" y2="47.03"/><line class="cls-2" x1="78.18" y1="158.06" x2="83.23" y2="158.06"/><g class="cls-1"><path d="M66,137v-.39a2.25,2.25,0,0,0-.08-.64,1.56,1.56,0,0,0-.27-.53,1.3,1.3,0,0,0-.49-.36,1.93,1.93,0,0,0-.72-.13,1.44,1.44,0,0,0-1.06.37,1.39,1.39,0,0,0-.38,1,1.48,1.48,0,0,0,.24.84,1.89,1.89,0,0,0,.7.6l-.38.67a2.46,2.46,0,0,1-1-.87,2.25,2.25,0,0,1-.33-1.22,2.32,2.32,0,0,1,.15-.84,1.85,1.85,0,0,1,.42-.7,2.21,2.21,0,0,1,.7-.47,2.32,2.32,0,0,1,.94-.18,2.39,2.39,0,0,1,.66.1,2.26,2.26,0,0,1,.56.28,2.16,2.16,0,0,1,.44.41,1.63,1.63,0,0,1,.28.49l0,0a1.54,1.54,0,0,1,.27-.58,1.75,1.75,0,0,1,.48-.46,2.41,2.41,0,0,1,.65-.3,2.68,2.68,0,0,1,.76-.11,2.61,2.61,0,0,1,1,.19,2.25,2.25,0,0,1,.77.53,2.07,2.07,0,0,1,.47.76,2.69,2.69,0,0,1,.17.93,2.57,2.57,0,0,1-.41,1.45,2.38,2.38,0,0,1-1.31.93l-.28-.81a1.83,1.83,0,0,0,.91-.57,1.67,1.67,0,0,0,.29-1.06,1.54,1.54,0,0,0-.12-.61,1.57,1.57,0,0,0-.34-.51,1.61,1.61,0,0,0-.53-.34,1.92,1.92,0,0,0-.69-.12,1.8,1.8,0,0,0-.81.16,1.5,1.5,0,0,0-.53.43,1.57,1.57,0,0,0-.29.61,2.84,2.84,0,0,0-.09.72V137Z"/><path d="M63.11,128.39v3.09l2.55.05a2.21,2.21,0,0,1-.15-.5,2.94,2.94,0,0,1-.05-.51,2.42,2.42,0,0,1,.2-1,2.33,2.33,0,0,1,.57-.75,2.85,2.85,0,0,1,.87-.49,3.48,3.48,0,0,1,2.21,0,2.54,2.54,0,0,1,.87.53,2.3,2.3,0,0,1,.57.81,2.4,2.4,0,0,1,.21,1,2.28,2.28,0,0,1-.39,1.29,2.42,2.42,0,0,1-1.13.88l-.37-.77a2,2,0,0,0,.8-.59,1.39,1.39,0,0,0,.29-.88,1.47,1.47,0,0,0-.15-.67,1.65,1.65,0,0,0-.4-.54A2,2,0,0,0,69,129a2,2,0,0,0-.74-.14,2.39,2.39,0,0,0-.82.14,1.81,1.81,0,0,0-.64.39,1.58,1.58,0,0,0-.41.58,1.86,1.86,0,0,0-.15.75,2.54,2.54,0,0,0,.13.81,3.68,3.68,0,0,0,.34.76l-4.4-.08v-3.85Z"/><path d="M62.17,124.59a2,2,0,0,1,.42-1.31,2.94,2.94,0,0,1,1.07-.78,5.29,5.29,0,0,1,1.42-.37,11.08,11.08,0,0,1,3,0,5.29,5.29,0,0,1,1.42.37,2.94,2.94,0,0,1,1.07.78,2.27,2.27,0,0,1,0,2.63,2.94,2.94,0,0,1-1.07.78,5.29,5.29,0,0,1-1.42.37,11.08,11.08,0,0,1-3,0,5.29,5.29,0,0,1-1.42-.37,2.94,2.94,0,0,1-1.07-.78A2,2,0,0,1,62.17,124.59Zm.79,0a1.29,1.29,0,0,0,.38,1,2.27,2.27,0,0,0,.92.54,4.94,4.94,0,0,0,1.18.23c.41,0,.79,0,1.12,0s.72,0,1.13,0a4.94,4.94,0,0,0,1.18-.23,2.34,2.34,0,0,0,.92-.54,1.47,1.47,0,0,0,0-1.95,2.34,2.34,0,0,0-.92-.54,4.94,4.94,0,0,0-1.18-.23c-.41,0-.79,0-1.13,0s-.71,0-1.12,0a4.94,4.94,0,0,0-1.18.23,2.27,2.27,0,0,0-.92.54A1.28,1.28,0,0,0,63,124.59Z"/><path d="M62.17,118.8a2,2,0,0,1,.42-1.31,2.94,2.94,0,0,1,1.07-.78,5.29,5.29,0,0,1,1.42-.37,11.08,11.08,0,0,1,3,0,5.29,5.29,0,0,1,1.42.37,2.94,2.94,0,0,1,1.07.78,2.25,2.25,0,0,1,0,2.62,2.73,2.73,0,0,1-1.07.78,5.3,5.3,0,0,1-1.42.38,12.3,12.3,0,0,1-3,0,5.3,5.3,0,0,1-1.42-.38,2.73,2.73,0,0,1-1.07-.78A2,2,0,0,1,62.17,118.8Zm.79,0a1.3,1.3,0,0,0,.38,1,2.27,2.27,0,0,0,.92.54,5.48,5.48,0,0,0,1.18.23c.41,0,.79,0,1.12,0s.72,0,1.13,0a5.48,5.48,0,0,0,1.18-.23,2.34,2.34,0,0,0,.92-.54,1.3,1.3,0,0,0,.37-1,1.26,1.26,0,0,0-.37-1,2.34,2.34,0,0,0-.92-.54,4.94,4.94,0,0,0-1.18-.23c-.41,0-.79,0-1.13,0s-.71,0-1.12,0a4.94,4.94,0,0,0-1.18.23,2.27,2.27,0,0,0-.92.54A1.26,1.26,0,0,0,63,118.8Z"/><path d="M66.44,112.38c-.2,0-.41,0-.62,0l-.62,0v-.75h.85v0a1.72,1.72,0,0,1-.75-.71,1.91,1.91,0,0,1-.25-.9,2.27,2.27,0,0,1,0-.43,1.49,1.49,0,0,1,.17-.44,1.67,1.67,0,0,1,.36-.4,1.93,1.93,0,0,1,.59-.32,1.78,1.78,0,0,1-1.17-1.64,1.72,1.72,0,0,1,.57-1.42,2.57,2.57,0,0,1,1.63-.46h3.56v.71H67.54a2.71,2.71,0,0,0-1.31.26,1.05,1.05,0,0,0-.46,1,1.16,1.16,0,0,0,.18.66,1.36,1.36,0,0,0,.46.43,2.19,2.19,0,0,0,.65.24,3.84,3.84,0,0,0,.76.07h3V109H67.54a2.71,2.71,0,0,0-1.31.26,1.05,1.05,0,0,0-.46,1,2.43,2.43,0,0,0,0,.29,1.15,1.15,0,0,0,.26.48,2,2,0,0,0,.65.44,3,3,0,0,0,1.2.2h2.88v.7Z"/><path d="M66.44,103.43h-.62l-.62,0v-.76h.85v0a1.72,1.72,0,0,1-.75-.71,1.91,1.91,0,0,1-.25-.9,2.27,2.27,0,0,1,0-.43,1.49,1.49,0,0,1,.17-.44,1.67,1.67,0,0,1,.36-.4,1.93,1.93,0,0,1,.59-.32,1.85,1.85,0,0,1-.86-.67,1.79,1.79,0,0,1-.31-1,1.72,1.72,0,0,1,.57-1.42A2.57,2.57,0,0,1,67.25,96h3.56v.71H67.54a2.71,2.71,0,0,0-1.31.26,1,1,0,0,0-.46,1,1.17,1.17,0,0,0,.18.67,1.36,1.36,0,0,0,.46.43,2.19,2.19,0,0,0,.65.24,3.84,3.84,0,0,0,.76.07h3v.71H67.54a2.71,2.71,0,0,0-1.31.26,1.05,1.05,0,0,0-.46,1,2.43,2.43,0,0,0,0,.29,1.06,1.06,0,0,0,.26.47,1.86,1.86,0,0,0,.65.45,3,3,0,0,0,1.2.19h2.88v.71Z"/><path d="M65.92,89.33v1.18h4.89v.7H65.92v1.06H65.2V91.21H63.66a2.24,2.24,0,0,1-1.59-.46,1.58,1.58,0,0,1-.47-1.21,1.67,1.67,0,0,1,0-.31l.06-.3.72.13q0,.12-.06.27a1.23,1.23,0,0,0,0,.27.94.94,0,0,0,.1.47.76.76,0,0,0,.31.28,1.55,1.55,0,0,0,.46.13,5.17,5.17,0,0,0,.57,0H65.2V89.33Z"/><path d="M68,83.59a3.44,3.44,0,0,1,1.18.19,3,3,0,0,1,.94.55A2.58,2.58,0,0,1,71,86.24a2.46,2.46,0,0,1-.23,1.06,2.33,2.33,0,0,1-.61.84,2.84,2.84,0,0,1-.94.55,3.55,3.55,0,0,1-2.35,0,2.84,2.84,0,0,1-.94-.55,2.48,2.48,0,0,1-.62-.84,2.61,2.61,0,0,1-.22-1.06,2.66,2.66,0,0,1,.22-1.07,2.7,2.7,0,0,1,.62-.84,3,3,0,0,1,.94-.55A3.42,3.42,0,0,1,68,83.59Zm0,.76a2.74,2.74,0,0,0-.87.14,2.11,2.11,0,0,0-.71.38,1.68,1.68,0,0,0-.47.59,1.66,1.66,0,0,0-.18.78A1.73,1.73,0,0,0,66,87a1.65,1.65,0,0,0,.47.58,2.3,2.3,0,0,0,.71.38,3,3,0,0,0,1.75,0,2.3,2.3,0,0,0,.71-.38,1.65,1.65,0,0,0,.47-.58,1.73,1.73,0,0,0,.18-.79,1.66,1.66,0,0,0-.18-.78,1.68,1.68,0,0,0-.47-.59,2.11,2.11,0,0,0-.71-.38A2.75,2.75,0,0,0,68,84.35Z"/><path d="M67,82.37c-.25,0-.5,0-.76,0l-1,0v-.69h1v0a1.65,1.65,0,0,1-.44-.22,2,2,0,0,1-.38-.33,1.74,1.74,0,0,1-.27-.46,1.78,1.78,0,0,1-.1-.59,2.06,2.06,0,0,1,.07-.53l.78.14a1.11,1.11,0,0,0-.06.41,1.27,1.27,0,0,0,.18.69,1.55,1.55,0,0,0,.44.48,1.94,1.94,0,0,0,.58.28,1.89,1.89,0,0,0,.6.1h3.17v.7Z"/><path d="M70,75.19v-4h.79V76H62.32V71.27h.79v3.92H66V71.53h.79v3.66Z"/><path d="M69.47,63.55a3.38,3.38,0,0,1,.61.48,2.89,2.89,0,0,1,.5.64,3.29,3.29,0,0,1,.33.79,3.19,3.19,0,0,1,.12.89,3.56,3.56,0,0,1-.34,1.56,3.79,3.79,0,0,1-.93,1.25,4.26,4.26,0,0,1-1.41.82,5.46,5.46,0,0,1-3.57,0,4.26,4.26,0,0,1-1.41-.82,3.79,3.79,0,0,1-.93-1.25,3.56,3.56,0,0,1-.34-1.56,3.42,3.42,0,0,1,.31-1.41,3,3,0,0,1,1-1.21l.57.67a2.29,2.29,0,0,0-.41.32,2.09,2.09,0,0,0-.36.47,2.58,2.58,0,0,0-.25.56,1.8,1.8,0,0,0-.1.6,2.8,2.8,0,0,0,.3,1.3,2.92,2.92,0,0,0,.81,1,3.63,3.63,0,0,0,1.17.62,4.74,4.74,0,0,0,2.79,0,3.63,3.63,0,0,0,1.17-.62,2.92,2.92,0,0,0,.81-1,2.8,2.8,0,0,0,.3-1.3,3.05,3.05,0,0,0-.06-.6,2.19,2.19,0,0,0-.21-.57,1.94,1.94,0,0,0-.39-.54,2.85,2.85,0,0,0-.62-.46Z"/><path d="M66.56,55a5.13,5.13,0,0,1,1.79.3,4.26,4.26,0,0,1,1.41.82,3.79,3.79,0,0,1,.93,1.25,3.77,3.77,0,0,1,0,3.13,3.79,3.79,0,0,1-.93,1.25,4.26,4.26,0,0,1-1.41.82,5.46,5.46,0,0,1-3.57,0,4.26,4.26,0,0,1-1.41-.82,3.79,3.79,0,0,1-.93-1.25,3.77,3.77,0,0,1,0-3.13,3.79,3.79,0,0,1,.93-1.25,4.26,4.26,0,0,1,1.41-.82A5.12,5.12,0,0,1,66.56,55Zm0,.83a4.59,4.59,0,0,0-1.39.21A3.63,3.63,0,0,0,64,56.7a2.92,2.92,0,0,0-.81,1,3,3,0,0,0,0,2.61,3,3,0,0,0,.81,1,3.63,3.63,0,0,0,1.17.62,4.74,4.74,0,0,0,2.79,0,3.63,3.63,0,0,0,1.17-.62,3,3,0,0,0,.81-1,3,3,0,0,0,0-2.61,2.92,2.92,0,0,0-.81-1A3.63,3.63,0,0,0,68,56.08,4.61,4.61,0,0,0,66.56,55.87Z"/></g><g class="cls-1"><path d="M53,123.9v-1.64H54v1.64h2.69v1.15H54v4.89H52.72l-7.33-4.57V123.9Zm-6.43,1.15v0L53,129v-3.93Z"/><path d="M45.2,117.21a3.17,3.17,0,0,1,.56-2,3.78,3.78,0,0,1,1.42-1.17,6.77,6.77,0,0,1,1.9-.56,15.09,15.09,0,0,1,2-.14,15.36,15.36,0,0,1,2,.14,6.6,6.6,0,0,1,1.89.56,3.89,3.89,0,0,1,1.43,1.17,3.75,3.75,0,0,1,0,3.94,3.77,3.77,0,0,1-1.43,1.16,6,6,0,0,1-1.89.56,13.82,13.82,0,0,1-2,.15,13.58,13.58,0,0,1-2-.15,6.17,6.17,0,0,1-1.9-.56,3.66,3.66,0,0,1-1.42-1.16A3.17,3.17,0,0,1,45.2,117.21Zm1,0a2.05,2.05,0,0,0,.5,1.46,3.08,3.08,0,0,0,1.23.81,5.7,5.7,0,0,0,1.57.34c.55.05,1.05.08,1.5.08s1,0,1.51-.08a5.71,5.71,0,0,0,1.56-.34,3.11,3.11,0,0,0,1.24-.81,2,2,0,0,0,.49-1.46,2.09,2.09,0,0,0-.49-1.47,3.2,3.2,0,0,0-1.24-.8,6.11,6.11,0,0,0-1.56-.35c-.56,0-1.06-.07-1.51-.07s-.95,0-1.5.07a6.09,6.09,0,0,0-1.57.35,3.17,3.17,0,0,0-1.23.8A2.09,2.09,0,0,0,46.25,117.21Z"/><path d="M45.2,108.31a3.19,3.19,0,0,1,.56-2,3.66,3.66,0,0,1,1.42-1.16,6.17,6.17,0,0,1,1.9-.56,13.58,13.58,0,0,1,2-.15,13.82,13.82,0,0,1,2,.15,6,6,0,0,1,1.89.56,3.77,3.77,0,0,1,1.43,1.16,3.75,3.75,0,0,1,0,3.94,3.89,3.89,0,0,1-1.43,1.17A6.3,6.3,0,0,1,53,112a15.36,15.36,0,0,1-2,.14,15.09,15.09,0,0,1-2-.14,6.45,6.45,0,0,1-1.9-.56,3.78,3.78,0,0,1-1.42-1.17A3.17,3.17,0,0,1,45.2,108.31Zm1,0a2.09,2.09,0,0,0,.5,1.47,3.17,3.17,0,0,0,1.23.8,5.71,5.71,0,0,0,1.57.35c.55,0,1.05.07,1.5.07s1,0,1.51-.07a5.72,5.72,0,0,0,1.56-.35,3.2,3.2,0,0,0,1.24-.8,2.09,2.09,0,0,0,.49-1.47,2.06,2.06,0,0,0-.49-1.46,3.11,3.11,0,0,0-1.24-.81,5.71,5.71,0,0,0-1.56-.34c-.56,0-1.06-.08-1.51-.08s-.95,0-1.5.08A5.7,5.7,0,0,0,48,106a3.08,3.08,0,0,0-1.23.81A2.07,2.07,0,0,0,46.25,108.31Z"/><path d="M45.2,99.42a3.17,3.17,0,0,1,.56-2,3.78,3.78,0,0,1,1.42-1.17,6.45,6.45,0,0,1,1.9-.56,13.53,13.53,0,0,1,2-.14,13.76,13.76,0,0,1,2,.14,6.3,6.3,0,0,1,1.89.56,3.89,3.89,0,0,1,1.43,1.17,3.73,3.73,0,0,1,0,3.93,3.7,3.7,0,0,1-1.43,1.17,6,6,0,0,1-1.89.56,13.82,13.82,0,0,1-2,.15,13.58,13.58,0,0,1-2-.15,6.17,6.17,0,0,1-1.9-.56,3.6,3.6,0,0,1-1.42-1.17A3.14,3.14,0,0,1,45.2,99.42Zm1,0a2.07,2.07,0,0,0,.5,1.46,3.08,3.08,0,0,0,1.23.81,6.09,6.09,0,0,0,1.57.34c.55,0,1.05.07,1.5.07s1,0,1.51-.07a6.1,6.1,0,0,0,1.56-.34,3.11,3.11,0,0,0,1.24-.81,2.06,2.06,0,0,0,.49-1.46A2.09,2.09,0,0,0,55.36,98a3.34,3.34,0,0,0-1.24-.81,6.1,6.1,0,0,0-1.56-.34c-.56,0-1.06-.07-1.51-.07s-.95,0-1.5.07a6.09,6.09,0,0,0-1.57.34,3.3,3.3,0,0,0-1.23.81A2.09,2.09,0,0,0,46.25,99.42Z"/><path d="M50.89,89.37l-.83,0-.83.06V88.31h1.13v0a2.59,2.59,0,0,1-1-1.06A3.12,3.12,0,0,1,49,85.86a3.72,3.72,0,0,1,.06-.64,2.42,2.42,0,0,1,.23-.67,2.34,2.34,0,0,1,.47-.6,2.85,2.85,0,0,1,.79-.47,2.45,2.45,0,0,1-1.14-1,3.09,3.09,0,0,1,.35-3.57A3.1,3.1,0,0,1,52,78.2h4.76v1.06H52.35a3.17,3.17,0,0,0-1.75.4,1.64,1.64,0,0,0-.6,1.48,1.92,1.92,0,0,0,.23,1,1.87,1.87,0,0,0,.61.64,2.55,2.55,0,0,0,.88.36,4.17,4.17,0,0,0,1,.12h4v1H52.35a3.26,3.26,0,0,0-1.75.4A1.67,1.67,0,0,0,50,86.2a3.61,3.61,0,0,0,.06.44,1.62,1.62,0,0,0,.35.71,2.5,2.5,0,0,0,.87.67,3.63,3.63,0,0,0,1.6.29h3.84v1.06Z"/><path d="M50.89,75.74c-.28,0-.55,0-.83,0l-.83.06V74.68h1.13v0a2.56,2.56,0,0,1-1-1.07A3.05,3.05,0,0,1,49,72.23a3.83,3.83,0,0,1,.06-.65,2.23,2.23,0,0,1,.7-1.26,2.63,2.63,0,0,1,.79-.47,2.45,2.45,0,0,1-1.14-1,3.09,3.09,0,0,1,.35-3.57A3.1,3.1,0,0,1,52,64.57h4.76v1.05H52.35a3.26,3.26,0,0,0-1.75.4,1.67,1.67,0,0,0-.6,1.49,1.86,1.86,0,0,0,.23,1,1.81,1.81,0,0,0,.61.65,2.55,2.55,0,0,0,.88.36,4.17,4.17,0,0,0,1,.11h4v1.06H52.35a3.17,3.17,0,0,0-1.75.4,1.66,1.66,0,0,0-.6,1.49,3.61,3.61,0,0,0,.06.44,1.62,1.62,0,0,0,.35.71,2.37,2.37,0,0,0,.87.66,3.48,3.48,0,0,0,1.6.3h3.84v1.06Z"/></g></svg>