<svg id="Skygarden_Recessed" xmlns="http://www.w3.org/2000/svg" viewBox="0 0 300 263"><defs><style>.cls-1,.cls-3,.cls-4,.cls-5{fill:none;stroke-width:0.5px;}.cls-1,.cls-5{stroke:#000;}.cls-2{isolation:isolate;}.cls-3,.cls-4{stroke:#1d1d1b;}.cls-3{stroke-linecap:round;stroke-linejoin:round;}.cls-5{stroke-miterlimit:3.86;}</style></defs><title>skygarden-recessed-ceiling-wall-wanders-flos-F6433009-spech-tech-02-300x263</title><line class="cls-1" x1="228.42" y1="189.89" x2="71.81" y2="189.89"/><line class="cls-1" x1="228.42" y1="191.2" x2="228.42" y2="188.5"/><line class="cls-1" x1="71.81" y1="191.2" x2="71.81" y2="188.5"/><g class="cls-2"><path d="M125.55,203.76a3.62,3.62,0,0,1,.68,1.16,4,4,0,0,1,.25,1.45,4.2,4.2,0,0,1-.29,1.56,3.79,3.79,0,0,1-2.08,2.08,4.43,4.43,0,0,1-1.61.29,4.15,4.15,0,0,1-1.4-.22,3.72,3.72,0,0,1-1.11-.61l-1.08,1.09-.51-.5,1.06-1.09a3.62,3.62,0,0,1-.69-1.17,4.17,4.17,0,0,1-.24-1.43,4,4,0,0,1,.3-1.57,3.67,3.67,0,0,1,.82-1.25,3.62,3.62,0,0,1,1.26-.82,4.09,4.09,0,0,1,1.59-.3,4.18,4.18,0,0,1,1.39.22,3.84,3.84,0,0,1,1.15.61l1.06-1.09.51.5Zm-1.24.25a2.7,2.7,0,0,0-1.81-.62,3,3,0,0,0-1.18.23,2.82,2.82,0,0,0-.88.63,3.1,3.1,0,0,0-.56.95,3.42,3.42,0,0,0-.2,1.17,2.94,2.94,0,0,0,.55,1.82Zm-3.6,4.72a2.33,2.33,0,0,0,.8.45,2.78,2.78,0,0,0,1,.16,2.87,2.87,0,0,0,1.17-.23,2.48,2.48,0,0,0,.89-.63,2.68,2.68,0,0,0,.57-.95,3.41,3.41,0,0,0,.2-1.16,3.16,3.16,0,0,0-.54-1.83Z"/><path d="M135,203.65h.59a3.83,3.83,0,0,0,1-.12,2.11,2.11,0,0,0,.79-.36,1.75,1.75,0,0,0,.53-.64,2.06,2.06,0,0,0,.2-1,1.82,1.82,0,0,0-.55-1.42,2.18,2.18,0,0,0-1.54-.5,2.42,2.42,0,0,0-1.27.32,2.46,2.46,0,0,0-.89.92l-1-.51a3.39,3.39,0,0,1,1.3-1.35,3.76,3.76,0,0,1,1.84-.44,4,4,0,0,1,1.26.19,3.18,3.18,0,0,1,1,.57,2.62,2.62,0,0,1,.71.93,2.83,2.83,0,0,1,.27,1.25,2.55,2.55,0,0,1-.16.88,2.93,2.93,0,0,1-.41.76,3.11,3.11,0,0,1-.62.58,2.83,2.83,0,0,1-.73.38l0,0a2.28,2.28,0,0,1,.88.36,2.51,2.51,0,0,1,.69.65,3.06,3.06,0,0,1,.45.86,3.1,3.1,0,0,1,.16,1,3.23,3.23,0,0,1-.29,1.39,2.84,2.84,0,0,1-.78,1,3.59,3.59,0,0,1-1.15.64,4.61,4.61,0,0,1-1.4.21,4.24,4.24,0,0,1-2.17-.54,3.27,3.27,0,0,1-1.39-1.75l1.21-.36a2.34,2.34,0,0,0,.86,1.2,2.71,2.71,0,0,0,1.59.4,2.76,2.76,0,0,0,.91-.16,2.34,2.34,0,0,0,.76-.46,2,2,0,0,0,.51-.71,2.12,2.12,0,0,0,.19-.91,2.21,2.21,0,0,0-.24-1.08,2.12,2.12,0,0,0-.64-.72,2.81,2.81,0,0,0-.92-.39,4.83,4.83,0,0,0-1.08-.12H135Z"/><path d="M145,198.59a3.24,3.24,0,0,1,2,.56,3.86,3.86,0,0,1,1.17,1.42,6.77,6.77,0,0,1,.56,1.9,14,14,0,0,1,0,3.95,6.77,6.77,0,0,1-.56,1.9,3.86,3.86,0,0,1-1.17,1.42,3.75,3.75,0,0,1-3.94,0,3.74,3.74,0,0,1-1.16-1.42,6.17,6.17,0,0,1-.56-1.9,13.08,13.08,0,0,1,0-3.95,6.17,6.17,0,0,1,.56-1.9,3.74,3.74,0,0,1,1.16-1.42A3.24,3.24,0,0,1,145,198.59Zm0,1.06a2,2,0,0,0-1.46.49,3.08,3.08,0,0,0-.81,1.23,5.86,5.86,0,0,0-.34,1.57c-.05.56-.08,1.06-.08,1.51s0,1,.08,1.5a5.78,5.78,0,0,0,.34,1.57,3.08,3.08,0,0,0,.81,1.23,2.05,2.05,0,0,0,1.46.5,2.09,2.09,0,0,0,1.47-.5,3.17,3.17,0,0,0,.8-1.23,6.19,6.19,0,0,0,.35-1.57c.05-.55.07-1.06.07-1.5s0-.95-.07-1.51a6.29,6.29,0,0,0-.35-1.57,3.17,3.17,0,0,0-.8-1.23A2.09,2.09,0,0,0,145,199.65Z"/><path d="M153.94,198.59a3.26,3.26,0,0,1,2,.56,3.74,3.74,0,0,1,1.16,1.42,6.17,6.17,0,0,1,.56,1.9,13.08,13.08,0,0,1,0,3.95,6.17,6.17,0,0,1-.56,1.9,3.74,3.74,0,0,1-1.16,1.42,3.75,3.75,0,0,1-3.94,0,3.86,3.86,0,0,1-1.17-1.42,6.45,6.45,0,0,1-.56-1.9,14,14,0,0,1,0-3.95,6.45,6.45,0,0,1,.56-1.9,3.86,3.86,0,0,1,1.17-1.42A3.24,3.24,0,0,1,153.94,198.59Zm0,1.06a2.09,2.09,0,0,0-1.47.49,3.17,3.17,0,0,0-.8,1.23,5.87,5.87,0,0,0-.35,1.57c0,.56-.07,1.06-.07,1.51s0,1,.07,1.5a5.79,5.79,0,0,0,.35,1.57,3.17,3.17,0,0,0,.8,1.23,2.09,2.09,0,0,0,1.47.5,2.07,2.07,0,0,0,1.46-.5,3.08,3.08,0,0,0,.81-1.23,5.78,5.78,0,0,0,.34-1.57c0-.55.08-1.06.08-1.5s0-.95-.08-1.51a5.86,5.86,0,0,0-.34-1.57,3.08,3.08,0,0,0-.81-1.23A2.06,2.06,0,0,0,153.94,199.65Z"/><path d="M164,204.29q0-.42,0-.84c0-.27,0-.55-.05-.83H165v1.14h0a2.44,2.44,0,0,1,1.07-1,2.94,2.94,0,0,1,1.35-.34,3.83,3.83,0,0,1,.65.06,2.28,2.28,0,0,1,.66.24,2.34,2.34,0,0,1,.6.47,2.28,2.28,0,0,1,.47.78,2.43,2.43,0,0,1,1-1.13,2.76,2.76,0,0,1,1.45-.42,2.69,2.69,0,0,1,2.12.76,3.12,3.12,0,0,1,.69,2.17v4.75H174.1v-4.37a3.22,3.22,0,0,0-.4-1.74,1.65,1.65,0,0,0-1.49-.61,2,2,0,0,0-1,.23,1.84,1.84,0,0,0-.65.62,2.5,2.5,0,0,0-.36.87,4.25,4.25,0,0,0-.11,1v4H169v-4.37a3.13,3.13,0,0,0-.4-1.74,1.64,1.64,0,0,0-1.49-.61l-.44.06a1.71,1.71,0,0,0-.71.36,2.53,2.53,0,0,0-.66.86,3.51,3.51,0,0,0-.3,1.6v3.84h-1Z"/><path d="M177.62,204.29q0-.42,0-.84c0-.27,0-.55-.05-.83h1.13v1.14h0a2.41,2.41,0,0,1,1.06-1,2.94,2.94,0,0,1,1.35-.34,3.83,3.83,0,0,1,.65.06,2.28,2.28,0,0,1,.66.24,2,2,0,0,1,.6.47,2.28,2.28,0,0,1,.47.78,2.48,2.48,0,0,1,1-1.13,2.79,2.79,0,0,1,1.45-.42,2.73,2.73,0,0,1,2.13.76,3.12,3.12,0,0,1,.69,2.17v4.75h-1.06v-4.37a3.13,3.13,0,0,0-.4-1.74,1.64,1.64,0,0,0-1.49-.61,2,2,0,0,0-1,.23,1.93,1.93,0,0,0-.65.62,3,3,0,0,0-.36.87,4.83,4.83,0,0,0-.11,1v4h-1.06v-4.37a3.13,3.13,0,0,0-.4-1.74,1.62,1.62,0,0,0-1.48-.61l-.45.06a1.77,1.77,0,0,0-.71.36,2.67,2.67,0,0,0-.66.86,3.51,3.51,0,0,0-.3,1.6v3.84h-1Z"/></g><line class="cls-1" x1="35.15" y1="47.02" x2="35.29" y2="182.22"/><line class="cls-1" x1="37.54" y1="47.02" x2="32.61" y2="47.02"/><line class="cls-1" x1="37.68" y1="182.22" x2="32.75" y2="182.22"/><g class="cls-2"><path d="M26.39,134.11l0,7.2H25l-4.56-4.54-.54-.51a6.62,6.62,0,0,0-.61-.47,3.52,3.52,0,0,0-.67-.34,2.26,2.26,0,0,0-.74-.13,2,2,0,0,0-.83.16,1.83,1.83,0,0,0-.63.47,2.18,2.18,0,0,0-.39.7,2.66,2.66,0,0,0-.14.85,2.22,2.22,0,0,0,.47,1.47,2.19,2.19,0,0,0,1.29.8L17.54,141a3.1,3.1,0,0,1-2-1.17,3.51,3.51,0,0,1-.71-2.24,4.64,4.64,0,0,1,.19-1.3,3.26,3.26,0,0,1,.56-1.08,2.65,2.65,0,0,1,2.21-1,3.51,3.51,0,0,1,1.2.2,4.48,4.48,0,0,1,1,.53,7.1,7.1,0,0,1,.91.73c.29.28.57.56.84.85l3.52,3.59,0-6Z"/><path d="M16.17,125.68l0,4.63,3.41.1a3.44,3.44,0,0,1-.21-.76,4.87,4.87,0,0,1-.06-.76,4,4,0,0,1,.28-1.46,3.39,3.39,0,0,1,.77-1.12,3.47,3.47,0,0,1,1.16-.73,3.76,3.76,0,0,1,1.44-.26,3.82,3.82,0,0,1,1.5.3,3.28,3.28,0,0,1,1.16.81,3.51,3.51,0,0,1,.76,1.21,4.35,4.35,0,0,1,.26,1.51,3.69,3.69,0,0,1-.52,1.93,3.31,3.31,0,0,1-1.51,1.32l-.5-1.15a2.54,2.54,0,0,0,1.07-.89,2.22,2.22,0,0,0,.4-1.32,2.35,2.35,0,0,0-.19-1,2.64,2.64,0,0,0-.53-.81,2.38,2.38,0,0,0-.8-.55,2.54,2.54,0,0,0-1-.2,2.61,2.61,0,0,0-1.09.2,2.4,2.4,0,0,0-.86.57,2.44,2.44,0,0,0-.55.87,3.18,3.18,0,0,0-.2,1.12,4.15,4.15,0,0,0,.16,1.21A5.72,5.72,0,0,0,21,131.6l-5.87-.15,0-5.77Z"/><path d="M15,119.77a3.28,3.28,0,0,1,.57-2A3.77,3.77,0,0,1,17,116.65a6.16,6.16,0,0,1,1.9-.55,14,14,0,0,1,3.95,0,6.46,6.46,0,0,1,1.9.57,3.75,3.75,0,0,1,1.41,1.18,3.73,3.73,0,0,1,0,3.93A3.77,3.77,0,0,1,24.66,123a6.16,6.16,0,0,1-1.9.55,13.72,13.72,0,0,1-2,.14,15.5,15.5,0,0,1-2-.16,6.31,6.31,0,0,1-1.89-.57,3.71,3.71,0,0,1-1.42-1.18A3.24,3.24,0,0,1,15,119.77Zm1.06,0a2.09,2.09,0,0,0,.48,1.47,3.08,3.08,0,0,0,1.23.81,5.71,5.71,0,0,0,1.57.35c.55,0,1.05.08,1.5.08a13.4,13.4,0,0,0,1.5-.06,6.25,6.25,0,0,0,1.58-.33,3.08,3.08,0,0,0,1.23-.81,2.1,2.1,0,0,0,.51-1.46,2.06,2.06,0,0,0-.49-1.46,3.21,3.21,0,0,0-1.23-.82,6.09,6.09,0,0,0-1.57-.35c-.55,0-1.05-.08-1.5-.08s-.95,0-1.5.06a6.09,6.09,0,0,0-1.57.34,3.09,3.09,0,0,0-1.24.8A2.05,2.05,0,0,0,16,119.78Z"/><path d="M20.7,109.76c-.28,0-.55,0-.83,0l-.83,0v-1.14h1.14v0a2.53,2.53,0,0,1-1-1.07,2.87,2.87,0,0,1-.33-1.36,3.63,3.63,0,0,1,.06-.64,2.83,2.83,0,0,1,.24-.67,2,2,0,0,1,.48-.59,2.28,2.28,0,0,1,.78-.47,2.53,2.53,0,0,1-1.13-1,2.87,2.87,0,0,1-.41-1.45,2.77,2.77,0,0,1,.78-2.13,3.1,3.1,0,0,1,2.17-.67l4.75,0v1.06l-4.37,0a3.25,3.25,0,0,0-1.74.39,1.67,1.67,0,0,0-.62,1.49,2,2,0,0,0,.23,1,1.81,1.81,0,0,0,.61.65,2.82,2.82,0,0,0,.87.37,4.83,4.83,0,0,0,1,.12l4,0v1l-4.36,0a3.27,3.27,0,0,0-1.75.39,1.62,1.62,0,0,0-.61,1.48,1.57,1.57,0,0,0,.06.44,1.68,1.68,0,0,0,.34.72,2.55,2.55,0,0,0,.86.67,3.53,3.53,0,0,0,1.6.3l3.84,0v1.06Z"/><path d="M20.78,96.13a7.61,7.61,0,0,0-.83,0l-.84,0V95.06h1.14v0a2.49,2.49,0,0,1-1-1.07,3.12,3.12,0,0,1-.33-1.36A3.9,3.9,0,0,1,19,92a2.11,2.11,0,0,1,.24-.66,2.34,2.34,0,0,1,.47-.6,2.61,2.61,0,0,1,.79-.46,2.45,2.45,0,0,1-1.13-1,3.07,3.07,0,0,1,.36-3.57A3.14,3.14,0,0,1,21.91,85l4.76,0v1.06l-4.37,0a3.27,3.27,0,0,0-1.75.39,1.67,1.67,0,0,0-.61,1.49,1.91,1.91,0,0,0,.23,1,1.81,1.81,0,0,0,.61.65,2.63,2.63,0,0,0,.87.37,4.74,4.74,0,0,0,1,.11l4,0v1l-4.37,0a3.06,3.06,0,0,0-1.74.39A1.65,1.65,0,0,0,19.9,93a3.37,3.37,0,0,0,.06.44,1.71,1.71,0,0,0,.35.72,2.68,2.68,0,0,0,.86.67,3.51,3.51,0,0,0,1.6.3l3.84,0v1.06Z"/></g><path class="cls-3" d="M71.81,182.82s2.46,0,2.46-2.9a2.89,2.89,0,0,0-2.41-2.72s1.28-34.67,28.54-55.44c0,0,4.94,1.66,5.4-3.89,0,0,7.47-5.79,14.84-7.78h2.65l2.89,3.26s.15.55,1.67.55a2.5,2.5,0,0,0,2.55-2.59v-4h39.42v4a2.5,2.5,0,0,0,2.55,2.59c1.53,0,1.67-.55,1.67-.55l2.9-3.26h2.64c7.37,2,14.85,7.78,14.85,7.78.45,5.55,5.4,3.89,5.4,3.89,27.25,20.77,28.53,55.44,28.53,55.44a2.89,2.89,0,0,0-2.41,2.72c0,2.93,2.47,2.9,2.47,2.9Z"/><path class="cls-3" d="M120.67,110.19s-10.06,4.59-13.11,8c0,0,.41,3.93-5.06,3.93h-1s-24.32,19.44-26.22,55.28c0,0,2,.75,2,2.43a2.79,2.79,0,0,1-1.74,2.89m-3.65-6.09H228.39M73,177.71H227.12M105.65,117.94H194.5m-89.18,2h89.42m-91.16,2.15h94.79"/><path class="cls-3" d="M150.09,166.61a92.56,92.56,0,0,0,22.9-3.46c2.77-1,2.6-2.46,2.6-2.46l-4.24-37.82c-.28-3.78-4.28-3.87-4.28-3.87H132.93s-4,.09-4.28,3.87l-4.23,37.82s-.18,1.51,2.59,2.46C127,163.15,138.81,166.61,150.09,166.61Z"/><path class="cls-3" d="M149.91,166.61c11.29,0,23.08-3.46,23.08-3.46,2.77-1,2.59-2.46,2.59-2.46l-4.23-37.82c-.27-3.78-4.28-3.87-4.28-3.87h-2.78v1.68h3.42v.91h1.6l4.91,38.24a2.71,2.71,0,0,1-1.68,1.59A100,100,0,0,1,150,164.47a99.87,99.87,0,0,1-22.53-3.05,2.71,2.71,0,0,1-1.68-1.59l4.91-38.24h1.59v-.91h3.42V119h-2.78s-4,.09-4.27,3.87l-4.24,37.82s-.18,1.51,2.6,2.46A92.43,92.43,0,0,0,149.91,166.61Z"/><path class="cls-3" d="M149.37,123.51v5.91s-2,.64-2,2.05v8.15s-.23.82.22.91,1.74.78,1.74,1.27,0,1.33.63,1.33.64-.83.64-1.33,1.28-1.18,1.73-1.27.22-.91.22-.91v-8.15c0-1.41-2-2.05-2-2.05v-5.91Z"/><path class="cls-3" d="M143.87,123.5v-5l-6.1-2.47h-12c-1.89,0-1.55-2.18-1.55-2.18h1.35v.92h4.26v-1.21h1.36v-9.24h-6.68v-1.26s.14-1.4,2.37-1.4h46.47c2.24,0,2.38,1.4,2.38,1.4v1.26h-6.68v9.24h1.35v1.21h4.26v-.92H176s.33,2.18-1.56,2.18h-12l-6.1,2.47v5Z"/><path class="cls-3" d="M137.29,101.67h20.47V86.61s.24-6.2,8.47-7.07l32-4.5s9.4-2.22,13.27,5.18l12.63,22.36s1.31,3.49-.72,4.89l-3.83,2.37s-4.06,1.21-5.52-1.35-9.24-16.55-9.24-16.55-.68-1.56-3.73-1.17l-36.89,5.08a2.6,2.6,0,0,0-2.37,2.67v16.16H137.29Z"/><path class="cls-4" d="M45.47,182.82H71.8s2.47,0,2.47-2.9a2.89,2.89,0,0,0-2.41-2.72s1.28-34.67,28.54-55.44c0,0,4.94,1.66,5.4-3.89,0,0,7.47-5.79,14.84-7.78h2.65l2.89,3.26s.15.55,1.67.55a2.5,2.5,0,0,0,2.55-2.59v-7.72h-9.5v.86S76.19,118,67.42,169.79c0,0-1.17,6.18-7.62,6.18H45.47Z"/><path class="cls-4" d="M254.76,182.82H228.42s-2.47,0-2.47-2.9a2.89,2.89,0,0,1,2.41-2.72s-1.28-34.67-28.53-55.44c0,0-5,1.66-5.4-3.89,0,0-7.48-5.79-14.85-7.78h-2.64l-2.9,3.26s-.14.55-1.67.55a2.5,2.5,0,0,1-2.55-2.59v-7.72h9.51v.86S224,118,232.8,169.79c0,0,1.17,6.18,7.62,6.18h14.34Z"/><path class="cls-3" d="M125.76,159.75h48.58m-47.2,1.46h46.18"/><path class="cls-3" d="M148.16,167.07a1.11,1.11,0,0,1,.56-.91v-7.45h2.48v7.45a1.14,1.14,0,0,1,.55.91c0,.69-.8,1.25-1.8,1.25S148.16,167.76,148.16,167.07Z"/><rect class="cls-3" x="45.17" y="47.02" width="209.67" height="8.39"/><line class="cls-1" x1="254.93" y1="37.59" x2="45.34" y2="37.59"/><line class="cls-1" x1="254.93" y1="39.34" x2="254.93" y2="35.73"/><line class="cls-1" x1="45.34" y1="39.34" x2="45.34" y2="35.73"/><path class="cls-5" d="M89.38,29.22V23.37H88l-1.7,1.83h1.19l-1.86,2H87l-1.35,1.67c-19.51-2.5-9-8.35,3-8.18,10.17,0,21.54,5.51,5.26,8.18"/><path d="M112.45,26.27h1.64v1h-1.64V29.7H111.3V27.24h-4.92V26l4.59-6.7h1.48Zm-1.15-5.88h0l-3.92,5.88h4Z"/><path d="M120.29,29.7h-1.15v-9l-2,1.64-.73-.79,2.9-2.16h1Z"/><path d="M128.1,19.16a3.46,3.46,0,0,1,2,.51A3.59,3.59,0,0,1,131.25,21a5.17,5.17,0,0,1,.56,1.73,10.94,10.94,0,0,1,0,3.61,5.3,5.3,0,0,1-.56,1.74,3.56,3.56,0,0,1-1.17,1.3,4.08,4.08,0,0,1-4,0,3.5,3.5,0,0,1-1.18-1.3,5.55,5.55,0,0,1-.56-1.74,11.71,11.71,0,0,1,0-3.61A5.41,5.41,0,0,1,125,21a3.53,3.53,0,0,1,1.18-1.31A3.45,3.45,0,0,1,128.1,19.16Zm0,1a2.23,2.23,0,0,0-1.47.45,2.8,2.8,0,0,0-.81,1.13,4.83,4.83,0,0,0-.34,1.43c0,.51-.08,1-.08,1.38s0,.87.08,1.37a4.89,4.89,0,0,0,.34,1.44,2.77,2.77,0,0,0,.81,1.12,2.58,2.58,0,0,0,2.94,0,2.77,2.77,0,0,0,.81-1.12,4.9,4.9,0,0,0,.35-1.44c.05-.5.07-1,.07-1.37s0-.87-.07-1.38a4.84,4.84,0,0,0-.35-1.43,2.8,2.8,0,0,0-.81-1.13A2.23,2.23,0,0,0,128.1,20.13Z"/><path d="M138.19,24.37c0-.25,0-.51,0-.76l-.06-.76h1.14v1h0a2.42,2.42,0,0,1,1.06-.91,3.24,3.24,0,0,1,1.36-.31,3.74,3.74,0,0,1,.65.06,2.61,2.61,0,0,1,.67.21,2.43,2.43,0,0,1,.6.44,2.21,2.21,0,0,1,.48.71,2.33,2.33,0,0,1,1-1,3,3,0,0,1,1.45-.38,2.89,2.89,0,0,1,2.14.7,2.68,2.68,0,0,1,.69,2V29.7h-1.06v-4a2.74,2.74,0,0,0-.4-1.59,1.75,1.75,0,0,0-1.5-.56,2.1,2.1,0,0,0-1,.21,1.71,1.71,0,0,0-.65.57,2.39,2.39,0,0,0-.37.79,4.08,4.08,0,0,0-.11.93V29.7h-1.06v-4a2.67,2.67,0,0,0-.4-1.59,1.75,1.75,0,0,0-1.5-.56l-.44.06a1.78,1.78,0,0,0-.71.32,2.43,2.43,0,0,0-.67.79,3,3,0,0,0-.3,1.47V29.7h-1.06Z"/><path d="M151.88,24.37c0-.25,0-.51,0-.76l-.06-.76h1.14v1h0A2.42,2.42,0,0,1,154,23a3.24,3.24,0,0,1,1.36-.31,3.74,3.74,0,0,1,.65.06,2.61,2.61,0,0,1,.67.21,2.43,2.43,0,0,1,.6.44,2.21,2.21,0,0,1,.48.71,2.33,2.33,0,0,1,1-1,3,3,0,0,1,1.45-.38,2.89,2.89,0,0,1,2.14.7,2.68,2.68,0,0,1,.69,2V29.7H162v-4a2.74,2.74,0,0,0-.4-1.59,1.75,1.75,0,0,0-1.5-.56,2.1,2.1,0,0,0-1,.21,1.71,1.71,0,0,0-.65.57,2.39,2.39,0,0,0-.37.79,4.08,4.08,0,0,0-.11.93V29.7H157v-4a2.67,2.67,0,0,0-.4-1.59,1.75,1.75,0,0,0-1.5-.56l-.44.06a1.78,1.78,0,0,0-.71.32,2.43,2.43,0,0,0-.67.79,3,3,0,0,0-.3,1.47V29.7h-1.06Z"/><path d="M172.93,19.42c-.34.5-.64,1-.91,1.45a10.78,10.78,0,0,0-.66,1.43,7.55,7.55,0,0,0-.41,1.5,9.84,9.84,0,0,0-.14,1.68,9.55,9.55,0,0,0,.14,1.67,8.82,8.82,0,0,0,.39,1.47A10.75,10.75,0,0,0,172,30c.26.45.56.94.89,1.45L172,32a10.61,10.61,0,0,1-2.27-6.56,10.5,10.5,0,0,1,.59-3.41,10.2,10.2,0,0,1,1.74-3.14Z"/><path d="M178.2,24.47a1.87,1.87,0,0,0-.64-.67,1.81,1.81,0,0,0-1-.25,2.57,2.57,0,0,0-.55.06,1.92,1.92,0,0,0-.51.18,1.12,1.12,0,0,0-.36.32.77.77,0,0,0-.14.47.75.75,0,0,0,.37.7,4.26,4.26,0,0,0,1.11.38l1.08.23a2.67,2.67,0,0,1,1.3.65,1.63,1.63,0,0,1,.53,1.23,1.85,1.85,0,0,1-.25,1,2.16,2.16,0,0,1-.66.65,2.81,2.81,0,0,1-.94.38,4.83,4.83,0,0,1-1.08.11,4.27,4.27,0,0,1-1.61-.3,2.87,2.87,0,0,1-1.28-1l.92-.57a2.43,2.43,0,0,0,.81.75,2.34,2.34,0,0,0,1.16.28,3.59,3.59,0,0,0,.65-.07,2,2,0,0,0,.57-.2,1.39,1.39,0,0,0,.4-.36.91.91,0,0,0,.15-.52.79.79,0,0,0-.42-.74,3.62,3.62,0,0,0-1-.35l-1-.22-.52-.15a2.51,2.51,0,0,1-.64-.31,1.82,1.82,0,0,1-.54-.53,1.41,1.41,0,0,1-.23-.81,1.79,1.79,0,0,1,.24-.93,1.9,1.9,0,0,1,.62-.64,2.89,2.89,0,0,1,.9-.37,3.86,3.86,0,0,1,1-.13,3.93,3.93,0,0,1,1.47.28,2.08,2.08,0,0,1,1,.95Z"/><path d="M188.57,33.91H187.5V28.56h0a2.67,2.67,0,0,1-.61.6,4.1,4.1,0,0,1-.74.41,4.22,4.22,0,0,1-.79.23,4.42,4.42,0,0,1-.78.07,4.67,4.67,0,0,1-1.62-.27,4,4,0,0,1-1.26-.75,3.32,3.32,0,0,1-.82-1.14,3.58,3.58,0,0,1,0-2.87,3.32,3.32,0,0,1,.82-1.14,4,4,0,0,1,1.26-.76,4.67,4.67,0,0,1,1.62-.27,4.49,4.49,0,0,1,.78.08,3.11,3.11,0,0,1,.79.23,3.57,3.57,0,0,1,.74.41,2.67,2.67,0,0,1,.61.6h0V22.85h1.07Zm-6.86-7.64a2.72,2.72,0,0,0,.2,1.07,2.53,2.53,0,0,0,.57.87,2.62,2.62,0,0,0,.89.57,3,3,0,0,0,1.18.22,3.16,3.16,0,0,0,1.2-.22,3,3,0,0,0,.95-.57,2.7,2.7,0,0,0,.63-.87,2.56,2.56,0,0,0,.22-1.07,2.6,2.6,0,0,0-.22-1.07,2.66,2.66,0,0,0-.63-.86,3,3,0,0,0-.95-.58,3.36,3.36,0,0,0-1.2-.21,3.14,3.14,0,0,0-1.18.21,2.64,2.64,0,0,0-.89.58,2.49,2.49,0,0,0-.57.86A2.75,2.75,0,0,0,181.71,26.27Z"/><path d="M196.31,29.7c0-.19,0-.37,0-.55s0-.36,0-.55h0a2.17,2.17,0,0,1-.45.51,3.25,3.25,0,0,1-.61.41,3.55,3.55,0,0,1-.71.26,3.33,3.33,0,0,1-.75.09,2.91,2.91,0,0,1-2.14-.69,2.7,2.7,0,0,1-.69-2V22.85h1.06v3.79a4.37,4.37,0,0,0,.1,1,1.73,1.73,0,0,0,.33.74,1.37,1.37,0,0,0,.62.45,2.77,2.77,0,0,0,1,.16l.45-.06a2.12,2.12,0,0,0,.78-.32,2.38,2.38,0,0,0,.73-.8,2.73,2.73,0,0,0,.32-1.46V22.85h1.06v5.34c0,.19,0,.42,0,.7s0,.55.05.81Z"/><path d="M204.63,25.5v-.18q0-1.77-1.92-1.77a3.49,3.49,0,0,0-2.3.81l-.65-.69a4.49,4.49,0,0,1,3.19-1,3.7,3.7,0,0,1,1.05.15,2.4,2.4,0,0,1,.87.45,2.21,2.21,0,0,1,.6.75,2.39,2.39,0,0,1,.22,1.08v3.06c0,.27,0,.54,0,.83s.06.52.09.71h-1c0-.17,0-.35-.07-.54s0-.39,0-.57h0a2.77,2.77,0,0,1-1.11,1,3.6,3.6,0,0,1-1.55.3,3.83,3.83,0,0,1-1-.12,2.52,2.52,0,0,1-.83-.38,2.05,2.05,0,0,1-.58-.63,2,2,0,0,1,.26-2.18,3,3,0,0,1,1.19-.71,6.28,6.28,0,0,1,1.53-.29c.54,0,1-.06,1.48-.06Zm-.54.79-1,0a7.08,7.08,0,0,0-1.15.18,2.68,2.68,0,0,0-1,.43,1,1,0,0,0-.4.81,1,1,0,0,0,.16.58,1.18,1.18,0,0,0,.41.39,1.78,1.78,0,0,0,.57.22,3.38,3.38,0,0,0,.63.07,2.6,2.6,0,0,0,1-.18,2.25,2.25,0,0,0,.71-.47,1.91,1.91,0,0,0,.43-.71,2.65,2.65,0,0,0,.13-.85v-.5Z"/><path d="M208.26,25c0-.31,0-.61,0-.93s0-.71,0-1.21h1v1.27h0a2,2,0,0,1,.32-.53,2.44,2.44,0,0,1,1.19-.79,2.79,2.79,0,0,1,.9-.13,3,3,0,0,1,.78.09l-.2.95a2,2,0,0,0-.62-.07,2.38,2.38,0,0,0-1,.21,2.2,2.2,0,0,0-.72.54,2.11,2.11,0,0,0-.43.71,2.21,2.21,0,0,0-.13.73V29.7h-1.07Z"/><path d="M214.22,26.54a2.88,2.88,0,0,0,.28,1,2.6,2.6,0,0,0,.59.79,2.94,2.94,0,0,0,.85.52A3,3,0,0,0,217,29a2.86,2.86,0,0,0,1.47-.36,3,3,0,0,0,.94-.83l.82.62a4.18,4.18,0,0,1-1.49,1.11,4.57,4.57,0,0,1-1.74.33,4.35,4.35,0,0,1-1.55-.27,3.63,3.63,0,0,1-1.23-.75,3.58,3.58,0,0,1-.81-1.14,3.44,3.44,0,0,1-.3-1.44,3.58,3.58,0,0,1,.29-1.43,3.41,3.41,0,0,1,.8-1.14,3.88,3.88,0,0,1,1.21-.76,4.28,4.28,0,0,1,3,0,3.36,3.36,0,0,1,1.13.74,3.1,3.1,0,0,1,.7,1.08,3.69,3.69,0,0,1,.24,1.33v.44Zm5.11-.79a2.07,2.07,0,0,0-.64-1.59,2.5,2.5,0,0,0-1.8-.61,2.8,2.8,0,0,0-1,.18,3.21,3.21,0,0,0-.85.49,2.62,2.62,0,0,0-.58.71,1.7,1.7,0,0,0-.21.82Z"/><path d="M221.39,31.54a17.1,17.1,0,0,0,.91-1.45,11.45,11.45,0,0,0,.67-1.42,9.79,9.79,0,0,0,.41-1.5,9.91,9.91,0,0,0,.13-1.69,9.68,9.68,0,0,0-.13-1.67,10.14,10.14,0,0,0-.4-1.46,9.1,9.1,0,0,0-.64-1.39c-.26-.46-.55-.94-.88-1.45l.85-.58A10.86,10.86,0,0,1,224,22a10.6,10.6,0,0,1,.59,3.48A10.48,10.48,0,0,1,222.24,32Z"/></svg>