<svg id="smithfield" xmlns="http://www.w3.org/2000/svg" viewBox="0 0 300 263"><defs><style>.cls-1{isolation:isolate;}.cls-2,.cls-3{fill:none;stroke-width:0.5px;}.cls-2{stroke:#000;}.cls-3{stroke:#231f20;stroke-linecap:round;stroke-linejoin:round;}</style></defs><title>smithfield-suspension-morrison-flos-F1360030-spech-tech-02-300x263</title><g class="cls-1"><path d="M121.18,242.54a3.9,3.9,0,0,1,.68,1.16,4.2,4.2,0,0,1,.24,1.45,4,4,0,0,1-.29,1.56A3.7,3.7,0,0,1,121,248a3.85,3.85,0,0,1-1.25.83,4.39,4.39,0,0,1-1.61.29,4.15,4.15,0,0,1-1.4-.22,3.72,3.72,0,0,1-1.11-.61l-1.07,1.09-.52-.5,1.06-1.09a3.62,3.62,0,0,1-.69-1.17,4.21,4.21,0,0,1-.24-1.43,4,4,0,0,1,.3-1.57,3.82,3.82,0,0,1,.82-1.25,3.62,3.62,0,0,1,1.26-.82,4.43,4.43,0,0,1,3-.08,3.84,3.84,0,0,1,1.15.61l1.06-1.09.51.5Zm-1.25.25a2.69,2.69,0,0,0-1.81-.62,3,3,0,0,0-1.18.23,2.82,2.82,0,0,0-.88.63,3.1,3.1,0,0,0-.56.95,3.42,3.42,0,0,0-.2,1.17,3,3,0,0,0,.55,1.82Zm-3.6,4.72a2.33,2.33,0,0,0,.8.45,2.86,2.86,0,0,0,1,.16,3,3,0,0,0,1.18-.23,2.7,2.7,0,0,0,1.45-1.58,3.18,3.18,0,0,0,.2-1.16,3.13,3.13,0,0,0-.54-1.83Z"/><path d="M130.39,242.43l0,0a2,2,0,0,1,.73-.29,4.54,4.54,0,0,1,.84-.1,3.45,3.45,0,0,1,1.37.27,3.31,3.31,0,0,1,1.1.73,3.09,3.09,0,0,1,.72,1.1,3.84,3.84,0,0,1,0,2.83,3.35,3.35,0,0,1-.77,1.11,3.49,3.49,0,0,1-1.17.72,4.13,4.13,0,0,1-1.47.25,4,4,0,0,1-1.47-.25,3.49,3.49,0,0,1-1.17-.72,3.21,3.21,0,0,1-.77-1.11,3.59,3.59,0,0,1-.27-1.42,4.39,4.39,0,0,1,.28-1.65,9.45,9.45,0,0,1,.69-1.39l3.06-5h1.36Zm-1.15,3.15a2.64,2.64,0,0,0,.18,1,2.48,2.48,0,0,0,.52.78,2.52,2.52,0,0,0,.8.5,2.86,2.86,0,0,0,1,.18,2.8,2.8,0,0,0,1-.18,2.41,2.41,0,0,0,.8-.5,2.18,2.18,0,0,0,.52-.78,2.64,2.64,0,0,0,.19-1,2.57,2.57,0,0,0-.19-1,2.06,2.06,0,0,0-.52-.77,2.44,2.44,0,0,0-.8-.51,2.8,2.8,0,0,0-1-.18,2.86,2.86,0,0,0-1,.18,2.55,2.55,0,0,0-.8.51,2.33,2.33,0,0,0-.52.77A2.57,2.57,0,0,0,129.24,245.58Z"/><path d="M140.66,237.37a3.24,3.24,0,0,1,2,.56,3.86,3.86,0,0,1,1.17,1.42,6.45,6.45,0,0,1,.56,1.9,14,14,0,0,1,0,3.95,6.45,6.45,0,0,1-.56,1.9,3.86,3.86,0,0,1-1.17,1.42,3.73,3.73,0,0,1-3.93,0,3.76,3.76,0,0,1-1.17-1.42,6.17,6.17,0,0,1-.56-1.9,13.08,13.08,0,0,1,0-3.95,6.17,6.17,0,0,1,.56-1.9,3.76,3.76,0,0,1,1.17-1.42A3.21,3.21,0,0,1,140.66,237.37Zm0,1.06a2.08,2.08,0,0,0-1.46.49,3.08,3.08,0,0,0-.81,1.23,6.18,6.18,0,0,0-.34,1.57c-.05.56-.07,1.06-.07,1.51s0,.94.07,1.5a6.18,6.18,0,0,0,.34,1.57,3.08,3.08,0,0,0,.81,1.23,2.4,2.4,0,0,0,2.93,0,3.19,3.19,0,0,0,.81-1.23,6.18,6.18,0,0,0,.34-1.57c.05-.56.07-1.06.07-1.5s0-.95-.07-1.51a6.18,6.18,0,0,0-.34-1.57,3.19,3.19,0,0,0-.81-1.23A2.09,2.09,0,0,0,140.66,238.43Z"/><path d="M149.56,237.37a3.24,3.24,0,0,1,2,.56,3.86,3.86,0,0,1,1.17,1.42,6.77,6.77,0,0,1,.56,1.9,14,14,0,0,1,0,3.95,6.77,6.77,0,0,1-.56,1.9,3.86,3.86,0,0,1-1.17,1.42,3.75,3.75,0,0,1-3.94,0,3.86,3.86,0,0,1-1.17-1.42,6.77,6.77,0,0,1-.56-1.9,14,14,0,0,1,0-3.95,6.77,6.77,0,0,1,.56-1.9,3.86,3.86,0,0,1,1.17-1.42A3.24,3.24,0,0,1,149.56,237.37Zm0,1.06a2,2,0,0,0-1.46.49,3.08,3.08,0,0,0-.81,1.23,6.19,6.19,0,0,0-.35,1.57c0,.56-.07,1.06-.07,1.51s0,.94.07,1.5a6.19,6.19,0,0,0,.35,1.57,3.08,3.08,0,0,0,.81,1.23,2.38,2.38,0,0,0,2.92,0,3.08,3.08,0,0,0,.81-1.23,6.19,6.19,0,0,0,.35-1.57c0-.56.07-1.06.07-1.5s0-.95-.07-1.51a6.19,6.19,0,0,0-.35-1.57,3.08,3.08,0,0,0-.81-1.23A2,2,0,0,0,149.56,238.43Z"/><path d="M159.61,243.07q0-.42,0-.84c0-.27,0-.55-.05-.83h1.13v1.14h0a2.41,2.41,0,0,1,1.06-1,2.94,2.94,0,0,1,1.35-.34,3.83,3.83,0,0,1,.65.06,2.28,2.28,0,0,1,.66.24,2,2,0,0,1,.6.47,2.47,2.47,0,0,1,.48.78,2.41,2.41,0,0,1,1-1.13,2.79,2.79,0,0,1,1.45-.42,2.73,2.73,0,0,1,2.13.76,3.12,3.12,0,0,1,.69,2.17v4.75h-1.06v-4.37a3.11,3.11,0,0,0-.4-1.74,1.64,1.64,0,0,0-1.49-.61,2,2,0,0,0-1,.23,1.93,1.93,0,0,0-.65.62,2.84,2.84,0,0,0-.36.87,4.76,4.76,0,0,0-.11,1v4h-1.06v-4.37a3.11,3.11,0,0,0-.4-1.74,1.62,1.62,0,0,0-1.48-.61l-.44.06a1.74,1.74,0,0,0-.72.36,2.67,2.67,0,0,0-.66.86,3.51,3.51,0,0,0-.3,1.6v3.84h-1Z"/><path d="M173.24,243.07c0-.28,0-.56,0-.84l-.06-.83h1.14v1.14h0a2.41,2.41,0,0,1,1.06-1,3,3,0,0,1,1.35-.34,3.74,3.74,0,0,1,.65.06,2.45,2.45,0,0,1,.67.24,2.34,2.34,0,0,1,.6.47,2.65,2.65,0,0,1,.47.78,2.41,2.41,0,0,1,1-1.13,2.79,2.79,0,0,1,1.45-.42,2.73,2.73,0,0,1,2.13.76,3.12,3.12,0,0,1,.69,2.17v4.75h-1.06v-4.37a3.11,3.11,0,0,0-.4-1.74,1.64,1.64,0,0,0-1.49-.61,1.82,1.82,0,0,0-1.64.85,2.84,2.84,0,0,0-.36.87,4.76,4.76,0,0,0-.11,1v4h-1v-4.37a3.2,3.2,0,0,0-.4-1.74,1.65,1.65,0,0,0-1.49-.61l-.44.06a1.65,1.65,0,0,0-.71.36,2.55,2.55,0,0,0-.67.86,3.52,3.52,0,0,0-.29,1.6v3.84h-1.06Z"/></g><line class="cls-2" x1="94.41" y1="226.44" x2="206.05" y2="226.44"/><line class="cls-2" x1="94.41" y1="226.15" x2="94.41" y2="226.73"/><line class="cls-2" x1="206.05" y1="226.15" x2="206.05" y2="226.73"/><line class="cls-2" x1="94.41" y1="223.91" x2="94.41" y2="228.97"/><line class="cls-2" x1="206.05" y1="223.91" x2="206.05" y2="228.97"/><g class="cls-1"><path d="M70.81,218.76V226H69.48l-4.59-4.51-.54-.51a4.43,4.43,0,0,0-.61-.46,3,3,0,0,0-.67-.34,2.06,2.06,0,0,0-.74-.13,2,2,0,0,0-.83.17,1.7,1.7,0,0,0-.62.47,2.15,2.15,0,0,0-.4.71,2.55,2.55,0,0,0-.13.84,2.33,2.33,0,0,0,.48,1.48,2.21,2.21,0,0,0,1.29.78L62,225.68a3.18,3.18,0,0,1-2-1.16,3.54,3.54,0,0,1-.72-2.24,4.26,4.26,0,0,1,.19-1.3,3.2,3.2,0,0,1,.55-1.09,2.71,2.71,0,0,1,.92-.75,2.79,2.79,0,0,1,1.29-.28,3.6,3.6,0,0,1,1.2.2,4.9,4.9,0,0,1,1,.52,6.93,6.93,0,0,1,.91.73c.29.27.57.55.85.84l3.54,3.56v-6Z"/><path d="M70.81,212.27v1.15H60.92l1.8,2-.87.72-2.37-2.88v-1Z"/><path d="M60.54,201.5v4.62l3.41.08a3.21,3.21,0,0,1-.21-.75,4.9,4.9,0,0,1-.06-.77,3.78,3.78,0,0,1,.27-1.45,3.17,3.17,0,0,1,.76-1.13,3.61,3.61,0,0,1,1.15-.74,4,4,0,0,1,1.45-.26,3.81,3.81,0,0,1,1.49.29,3.34,3.34,0,0,1,1.17.8,3.51,3.51,0,0,1,.76,1.21,4.1,4.1,0,0,1,.27,1.51,3.71,3.71,0,0,1-.51,1.93,3.31,3.31,0,0,1-1.5,1.33l-.5-1.15a2.67,2.67,0,0,0,1.07-.89A2.34,2.34,0,0,0,70,204.8a2.55,2.55,0,0,0-.2-1,2.67,2.67,0,0,0-.54-.81,2.36,2.36,0,0,0-.8-.54,2.54,2.54,0,0,0-1-.2,2.79,2.79,0,0,0-1.09.21,2.52,2.52,0,0,0-.85.58,2.42,2.42,0,0,0-.56.88,3.33,3.33,0,0,0-.19,1.12,4.52,4.52,0,0,0,.17,1.2,5.21,5.21,0,0,0,.46,1.15l-5.88-.11V201.5Z"/><path d="M65,194.44c-.28,0-.56,0-.83,0l-.84.05v-1.13h1.14v0a2.44,2.44,0,0,1-1-1.07,2.94,2.94,0,0,1-.34-1.35,3.07,3.07,0,0,1,.07-.65,2.25,2.25,0,0,1,.23-.66,2,2,0,0,1,.47-.6,2.28,2.28,0,0,1,.78-.47,2.53,2.53,0,0,1-1.13-1,3.07,3.07,0,0,1,.34-3.58,3.17,3.17,0,0,1,2.17-.68h4.75v1.05H66.44a3.16,3.16,0,0,0-1.74.4,1.64,1.64,0,0,0-.61,1.49,2,2,0,0,0,.23,1,1.93,1.93,0,0,0,.62.65,2.8,2.8,0,0,0,.87.36,4.9,4.9,0,0,0,1,.11h4v1.06H66.44a3.16,3.16,0,0,0-1.74.4,1.63,1.63,0,0,0-.61,1.49,2.67,2.67,0,0,0,.07.44,1.67,1.67,0,0,0,.35.71,2.67,2.67,0,0,0,.86.66,3.53,3.53,0,0,0,1.6.3h3.84v1.05Z"/><path d="M65,180.81c-.28,0-.56,0-.83,0l-.84,0v-1.13h1.14v0a2.41,2.41,0,0,1-1-1.06,2.94,2.94,0,0,1-.34-1.35,3.07,3.07,0,0,1,.07-.65,2.25,2.25,0,0,1,.23-.66,2,2,0,0,1,.47-.6,2.47,2.47,0,0,1,.78-.48,2.45,2.45,0,0,1-1.13-1,3.07,3.07,0,0,1,.34-3.58,3.12,3.12,0,0,1,2.17-.69h4.75v1.06H66.44a3.16,3.16,0,0,0-1.74.4,1.64,1.64,0,0,0-.61,1.49,2,2,0,0,0,.23,1,1.93,1.93,0,0,0,.62.65,3.07,3.07,0,0,0,.87.36,4.9,4.9,0,0,0,1,.11h4v1.06H66.44a3.16,3.16,0,0,0-1.74.4,1.62,1.62,0,0,0-.61,1.48,2.52,2.52,0,0,0,.07.44,1.71,1.71,0,0,0,.35.72,2.67,2.67,0,0,0,.86.66,3.53,3.53,0,0,0,1.6.3h3.84v1.05Z"/></g><line class="cls-2" x1="80.7" y1="217.24" x2="80.7" y2="176.55"/><line class="cls-2" x1="78.86" y1="176.54" x2="82.4" y2="176.54"/><line class="cls-2" x1="78.18" y1="217.24" x2="83.23" y2="217.24"/><line class="cls-2" x1="80.7" y1="176.54" x2="80.7" y2="47.07"/><line class="cls-2" x1="78.86" y1="47.03" x2="82.4" y2="47.03"/><line class="cls-2" x1="78.18" y1="176.54" x2="83.23" y2="176.54"/><g class="cls-1"><path d="M67.07,138.88v-1.63h1.05v1.63h2.69V140H68.12v4.9H66.81l-7.33-4.58v-1.47ZM60.64,140v0l6.43,3.9V140Z"/><path d="M59.29,132.19a3.21,3.21,0,0,1,.56-2,3.72,3.72,0,0,1,1.43-1.17,6,6,0,0,1,1.89-.56,13.82,13.82,0,0,1,2-.15,13.58,13.58,0,0,1,2,.15,6.17,6.17,0,0,1,1.9.56,3.69,3.69,0,0,1,1.42,1.17,3.73,3.73,0,0,1,0,3.93A3.78,3.78,0,0,1,69,135.33a6.45,6.45,0,0,1-1.9.56,13.53,13.53,0,0,1-2,.14,13.76,13.76,0,0,1-2-.14,6.3,6.3,0,0,1-1.89-.56,3.81,3.81,0,0,1-1.43-1.17A3.24,3.24,0,0,1,59.29,132.19Zm1.06,0a2.09,2.09,0,0,0,.49,1.47,3,3,0,0,0,1.24.81,6.1,6.1,0,0,0,1.56.34c.56.05,1.06.07,1.51.07s.95,0,1.5-.07a6.09,6.09,0,0,0,1.57-.34,3.08,3.08,0,0,0,1.23-.81,2.4,2.4,0,0,0,0-2.93,3.08,3.08,0,0,0-1.23-.81,6.09,6.09,0,0,0-1.57-.34c-.55-.05-1.05-.07-1.5-.07s-1,0-1.51.07a6.1,6.1,0,0,0-1.56.34,3,3,0,0,0-1.24.81A2.08,2.08,0,0,0,60.35,132.19Z"/><path d="M59.29,123.3a3.24,3.24,0,0,1,.56-2,3.81,3.81,0,0,1,1.43-1.17,6.3,6.3,0,0,1,1.89-.56,15.36,15.36,0,0,1,2-.14,15.09,15.09,0,0,1,2,.14,6.45,6.45,0,0,1,1.9.56,3.78,3.78,0,0,1,1.42,1.17,3.75,3.75,0,0,1,0,3.94A3.66,3.66,0,0,1,69,126.43a6.17,6.17,0,0,1-1.9.56,13.58,13.58,0,0,1-2,.15,13.82,13.82,0,0,1-2-.15,6,6,0,0,1-1.89-.56,3.69,3.69,0,0,1-1.43-1.16A3.26,3.26,0,0,1,59.29,123.3Zm1.06,0a2.06,2.06,0,0,0,.49,1.46,3,3,0,0,0,1.24.81,5.71,5.71,0,0,0,1.56.34c.56,0,1.06.08,1.51.08s.95,0,1.5-.08a5.7,5.7,0,0,0,1.57-.34,3.08,3.08,0,0,0,1.23-.81,2.07,2.07,0,0,0,.5-1.46,2.09,2.09,0,0,0-.5-1.47,3.17,3.17,0,0,0-1.23-.8,5.71,5.71,0,0,0-1.57-.35c-.55-.05-1.05-.07-1.5-.07s-1,0-1.51.07a5.72,5.72,0,0,0-1.56.35,3.13,3.13,0,0,0-1.24.8A2.09,2.09,0,0,0,60.35,123.3Z"/><path d="M59.29,114.4a3.26,3.26,0,0,1,.56-2,3.69,3.69,0,0,1,1.43-1.16,6,6,0,0,1,1.89-.56,13.82,13.82,0,0,1,2-.15,13.58,13.58,0,0,1,2,.15,6.17,6.17,0,0,1,1.9.56,3.66,3.66,0,0,1,1.42,1.16,3.75,3.75,0,0,1,0,3.94A3.78,3.78,0,0,1,69,117.54a6.45,6.45,0,0,1-1.9.56,15.09,15.09,0,0,1-2,.14,15.36,15.36,0,0,1-2-.14,6.3,6.3,0,0,1-1.89-.56,3.81,3.81,0,0,1-1.43-1.17A3.24,3.24,0,0,1,59.29,114.4Zm1.06,0a2.09,2.09,0,0,0,.49,1.47,3.13,3.13,0,0,0,1.24.8,5.72,5.72,0,0,0,1.56.35c.56,0,1.06.07,1.51.07s.95,0,1.5-.07a5.71,5.71,0,0,0,1.57-.35,3.17,3.17,0,0,0,1.23-.8,2.09,2.09,0,0,0,.5-1.47,2.07,2.07,0,0,0-.5-1.46,3.08,3.08,0,0,0-1.23-.81,5.7,5.7,0,0,0-1.57-.34c-.55-.05-1.05-.08-1.5-.08s-1,0-1.51.08a5.71,5.71,0,0,0-1.56.34,3,3,0,0,0-1.24.81A2.06,2.06,0,0,0,60.35,114.4Z"/><path d="M65,104.35c-.28,0-.56,0-.83,0l-.84.05V103.3h1.14v0a2.44,2.44,0,0,1-1-1.07,2.94,2.94,0,0,1-.34-1.35,3.07,3.07,0,0,1,.07-.65,2.25,2.25,0,0,1,.23-.66,2,2,0,0,1,.47-.6,2.28,2.28,0,0,1,.78-.47,2.53,2.53,0,0,1-1.13-1A2.76,2.76,0,0,1,63.13,96a2.73,2.73,0,0,1,.76-2.13,3.17,3.17,0,0,1,2.17-.68h4.75v1H66.44a3.25,3.25,0,0,0-1.74.4,1.64,1.64,0,0,0-.61,1.49,2,2,0,0,0,.23,1,1.93,1.93,0,0,0,.62.65,2.58,2.58,0,0,0,.87.36,4.9,4.9,0,0,0,1,.11h4V99.3H66.44a3.16,3.16,0,0,0-1.74.4,1.63,1.63,0,0,0-.61,1.49,2.67,2.67,0,0,0,.07.44,1.67,1.67,0,0,0,.35.71,2.67,2.67,0,0,0,.86.66,3.53,3.53,0,0,0,1.6.3h3.84v1Z"/><path d="M65,90.72c-.28,0-.56,0-.83,0l-.84,0V89.67h1.14v0a2.41,2.41,0,0,1-1-1.06,2.94,2.94,0,0,1-.34-1.35,3.07,3.07,0,0,1,.07-.65,2.25,2.25,0,0,1,.23-.66,2,2,0,0,1,.47-.6,2.47,2.47,0,0,1,.78-.48,2.45,2.45,0,0,1-1.13-1,2.79,2.79,0,0,1-.42-1.45,2.73,2.73,0,0,1,.76-2.13,3.12,3.12,0,0,1,2.17-.69h4.75v1.06H66.44a3.16,3.16,0,0,0-1.74.4,1.64,1.64,0,0,0-.61,1.49,2,2,0,0,0,.23,1,1.93,1.93,0,0,0,.62.65,3.07,3.07,0,0,0,.87.36,4.9,4.9,0,0,0,1,.11h4v1.06H66.44a3.16,3.16,0,0,0-1.74.4,1.62,1.62,0,0,0-.61,1.48,2.52,2.52,0,0,0,.07.44,1.71,1.71,0,0,0,.35.72,2.67,2.67,0,0,0,.86.66,3.53,3.53,0,0,0,1.6.3h3.84v1Z"/></g><line class="cls-3" x1="150.24" y1="176.54" x2="150.24" y2="47.37"/><path class="cls-3" d="M150.24,176.54c1.22-2.81,2.45-5.63,3.41-8.5,5.9-17.57,1.93-37.35-3.41-56.09-3.3-11.56-7.12-22.72-7-33.95.15-10.17,3.56-20.4,7-30.63"/><line class="cls-3" x1="94.41" y1="217.24" x2="206.05" y2="217.24"/><path class="cls-3" d="M150.24,176.54c9,.06,18,.12,27,1.24a63.46,63.46,0,0,1,12.37,2.61,35.48,35.48,0,0,1,7.41,3.4,23,23,0,0,1,4.69,3.76,16.58,16.58,0,0,1,3.21,4.89,15.8,15.8,0,0,1,1.06,4.32,33.24,33.24,0,0,1,.08,3.46c0,5.68,0,11.35,0,17"/><path class="cls-3" d="M150.24,176.54c-9,.06-18,.12-27,1.24a63.52,63.52,0,0,0-12.36,2.61,35.48,35.48,0,0,0-7.41,3.4,23,23,0,0,0-4.69,3.76,16.35,16.35,0,0,0-3.2,4.89,15.46,15.46,0,0,0-1.07,4.32,33.24,33.24,0,0,0-.08,3.46c0,5.68,0,11.35,0,17"/></svg>