<svg id="Smithfield_C" data-name="Smithfield C" xmlns="http://www.w3.org/2000/svg" viewBox="0 0 300 263"><defs><style>.cls-1,.cls-3{fill:none;stroke-width:0.5px;}.cls-1{stroke:#000;}.cls-2{isolation:isolate;}.cls-3{stroke:#231f20;stroke-linecap:round;stroke-linejoin:round;}</style></defs><title>smithfield-ceiling-wall-morrison-flos-F1362009-spech-tech-02-300x263-01</title><line class="cls-1" x1="272.4" y1="147.52" x2="34.43" y2="147.52"/><line class="cls-1" x1="272.4" y1="149.57" x2="272.4" y2="145.34"/><line class="cls-1" x1="34.43" y1="149.57" x2="34.43" y2="145.34"/><g class="cls-2"><path d="M131.05,178.2l0,0a1.83,1.83,0,0,1,.73-.29,4.35,4.35,0,0,1,.84-.1,3.49,3.49,0,0,1,1.37.27,3.42,3.42,0,0,1,1.09.73,3.36,3.36,0,0,1,.73,1.1,3.91,3.91,0,0,1,0,2.83,3.21,3.21,0,0,1-.77,1.11,3.54,3.54,0,0,1-1.16.72,4.48,4.48,0,0,1-3,0,3.49,3.49,0,0,1-1.17-.72,3.18,3.18,0,0,1-.76-1.11,3.43,3.43,0,0,1-.28-1.42,4.6,4.6,0,0,1,.28-1.65,9.53,9.53,0,0,1,.7-1.39l3.05-5h1.37Zm-1.15,3.15a2.64,2.64,0,0,0,.18,1,2.32,2.32,0,0,0,.52.78,2.26,2.26,0,0,0,.8.5,3,3,0,0,0,2,0,2.36,2.36,0,0,0,.8-.5,2.48,2.48,0,0,0,.52-.78,2.81,2.81,0,0,0,0-2,2.33,2.33,0,0,0-.52-.77,2.74,2.74,0,0,0-.8-.51,3,3,0,0,0-2,0,2.61,2.61,0,0,0-.8.51,2.18,2.18,0,0,0-.52.77A2.64,2.64,0,0,0,129.9,181.35Z"/><path d="M141.32,173.14a3.24,3.24,0,0,1,2,.56,3.86,3.86,0,0,1,1.17,1.42A6.77,6.77,0,0,1,145,177a15.36,15.36,0,0,1,.14,2,15.09,15.09,0,0,1-.14,2,6.77,6.77,0,0,1-.56,1.9,3.78,3.78,0,0,1-1.17,1.42,3.75,3.75,0,0,1-3.94,0,3.78,3.78,0,0,1-1.17-1.42,6.77,6.77,0,0,1-.56-1.9,15.09,15.09,0,0,1-.14-2,15.36,15.36,0,0,1,.14-2,6.77,6.77,0,0,1,.56-1.9,3.86,3.86,0,0,1,1.17-1.42A3.24,3.24,0,0,1,141.32,173.14Zm0,1.06a2.09,2.09,0,0,0-1.47.49,3.17,3.17,0,0,0-.8,1.23,6.29,6.29,0,0,0-.35,1.57c0,.56-.07,1.06-.07,1.51s0,.95.07,1.5a6.09,6.09,0,0,0,.35,1.57,3.17,3.17,0,0,0,.8,1.23,2.09,2.09,0,0,0,1.47.5,2.05,2.05,0,0,0,1.46-.5,3.08,3.08,0,0,0,.81-1.23,6.09,6.09,0,0,0,.35-1.57c0-.55.07-1.05.07-1.5s0-.95-.07-1.51a6.29,6.29,0,0,0-.35-1.57,3.08,3.08,0,0,0-.81-1.23A2,2,0,0,0,141.32,174.2Z"/><path d="M150.22,173.14a3.21,3.21,0,0,1,2,.56,3.86,3.86,0,0,1,1.17,1.42,6.45,6.45,0,0,1,.56,1.9,13.76,13.76,0,0,1,.14,2,13.53,13.53,0,0,1-.14,2,6.45,6.45,0,0,1-.56,1.9,3.78,3.78,0,0,1-1.17,1.42,3.73,3.73,0,0,1-3.93,0,3.78,3.78,0,0,1-1.17-1.42,6.45,6.45,0,0,1-.56-1.9,13.53,13.53,0,0,1-.14-2,13.76,13.76,0,0,1,.14-2,6.45,6.45,0,0,1,.56-1.9,3.86,3.86,0,0,1,1.17-1.42A3.22,3.22,0,0,1,150.22,173.14Zm0,1.06a2.09,2.09,0,0,0-1.47.49,3.08,3.08,0,0,0-.81,1.23,6.27,6.27,0,0,0-.34,1.57c0,.56-.07,1.06-.07,1.51s0,.95.07,1.5a6.09,6.09,0,0,0,.34,1.57,3.08,3.08,0,0,0,.81,1.23,2.4,2.4,0,0,0,2.93,0,3.08,3.08,0,0,0,.81-1.23,6.09,6.09,0,0,0,.34-1.57c0-.55.07-1.05.07-1.5s0-.95-.07-1.51a6.27,6.27,0,0,0-.34-1.57,3.08,3.08,0,0,0-.81-1.23A2.08,2.08,0,0,0,150.22,174.2Z"/><path d="M160.26,178.84c0-.28,0-.56,0-.84l-.06-.83h1.14v1.14h0a2.44,2.44,0,0,1,1.07-1,2.94,2.94,0,0,1,1.35-.34,3.83,3.83,0,0,1,.65.06,2.76,2.76,0,0,1,.66.24,2.34,2.34,0,0,1,.6.47,2.45,2.45,0,0,1,.47.78,2.38,2.38,0,0,1,1-1.13,3.06,3.06,0,0,1,3.57.34,3.12,3.12,0,0,1,.69,2.17v4.75h-1.05v-4.37a3.15,3.15,0,0,0-.41-1.74,1.62,1.62,0,0,0-1.48-.61,2,2,0,0,0-1,.23,1.9,1.9,0,0,0-.64.62,2.5,2.5,0,0,0-.36.87,4.31,4.31,0,0,0-.11,1v4h-1.06v-4.37a3.16,3.16,0,0,0-.4-1.74,1.64,1.64,0,0,0-1.49-.61L163,178a1.77,1.77,0,0,0-.71.36,2.55,2.55,0,0,0-.67.86,3.69,3.69,0,0,0-.29,1.6v3.84h-1.06Z"/><path d="M173.89,178.84c0-.28,0-.56,0-.84s0-.55-.06-.83H175v1.14h0a2.44,2.44,0,0,1,1.07-1,2.94,2.94,0,0,1,1.35-.34,3.83,3.83,0,0,1,.65.06,2.61,2.61,0,0,1,.66.24,2.34,2.34,0,0,1,.6.47,2.45,2.45,0,0,1,.47.78,2.43,2.43,0,0,1,1-1.13,2.76,2.76,0,0,1,1.45-.42,2.69,2.69,0,0,1,2.12.76,3.12,3.12,0,0,1,.69,2.17v4.75H184v-4.37a3.25,3.25,0,0,0-.4-1.74,1.65,1.65,0,0,0-1.49-.61,2,2,0,0,0-1,.23,1.84,1.84,0,0,0-.65.62,2.5,2.5,0,0,0-.36.87,4.31,4.31,0,0,0-.11,1v4H179v-4.37a3.16,3.16,0,0,0-.4-1.74,1.64,1.64,0,0,0-1.49-.61l-.44.06a1.84,1.84,0,0,0-.71.36,2.53,2.53,0,0,0-.66.86,3.53,3.53,0,0,0-.3,1.6v3.84h-1.06Z"/></g><g class="cls-2"><path d="M16.27,121.87l0,7.2H14.9l-4.56-4.53c-.17-.18-.35-.35-.54-.52a6.62,6.62,0,0,0-.61-.47,3.25,3.25,0,0,0-.67-.34,2.26,2.26,0,0,0-.74-.13,2,2,0,0,0-.83.16,1.79,1.79,0,0,0-.62.47,2,2,0,0,0-.4.7,2.66,2.66,0,0,0-.14.85,2.32,2.32,0,0,0,.47,1.48,2.22,2.22,0,0,0,1.29.79l-.13,1.21a3.15,3.15,0,0,1-2-1.17,3.5,3.5,0,0,1-.71-2.23A5.05,5.05,0,0,1,4.92,124a3.26,3.26,0,0,1,.56-1.08,2.73,2.73,0,0,1,.93-.75,2.89,2.89,0,0,1,1.29-.27,3.6,3.6,0,0,1,1.2.2,5.48,5.48,0,0,1,1,.53,7.76,7.76,0,0,1,.9.73c.29.28.57.56.85.85l3.51,3.59,0-6Z"/><path d="M16.31,115.37v1.16l-9.89-.06,1.78,2-.86.72L5,116.33v-1Z"/><path d="M6.1,104.55l0,4.62,3.41.1a3.79,3.79,0,0,1-.21-.75,4,4,0,0,1,0-.77,3.57,3.57,0,0,1,.28-1.45,3.26,3.26,0,0,1,.76-1.13,3.63,3.63,0,0,1,1.16-.73,4.14,4.14,0,0,1,2.94,0,3.56,3.56,0,0,1,1.16.81,3.6,3.6,0,0,1,.76,1.21,4.19,4.19,0,0,1,.26,1.52A3.74,3.74,0,0,1,16,110a3.43,3.43,0,0,1-1.51,1.32L14,110.11a2.65,2.65,0,0,0,1.07-.88,2.36,2.36,0,0,0,.4-1.32,2.56,2.56,0,0,0-.2-1,2.64,2.64,0,0,0-.53-.81,2.47,2.47,0,0,0-1.79-.75,2.67,2.67,0,0,0-2,.77,2.57,2.57,0,0,0-.55.88,3.1,3.1,0,0,0-.2,1.12,4.57,4.57,0,0,0,.16,1.21,5.64,5.64,0,0,0,.45,1.14L5,110.32l0-5.78Z"/><path d="M10.58,97.52c-.27,0-.55,0-.83,0l-.83,0V96.45h1.13v0a2.53,2.53,0,0,1-1-1.07,3,3,0,0,1-.26-2,2.42,2.42,0,0,1,.23-.67,2,2,0,0,1,.48-.59,2.28,2.28,0,0,1,.78-.47,2.53,2.53,0,0,1-1.13-1,2.76,2.76,0,0,1-.4-1.45A2.73,2.73,0,0,1,9.55,87a3.12,3.12,0,0,1,2.17-.67l4.75,0v1.06l-4.36,0a3.17,3.17,0,0,0-1.75.4,1.64,1.64,0,0,0-.62,1.48,2,2,0,0,0,.23,1,1.81,1.81,0,0,0,.61.65,2.82,2.82,0,0,0,.87.37,4.91,4.91,0,0,0,1,.12l4,0V92.5l-4.37,0a3.27,3.27,0,0,0-1.75.39,1.67,1.67,0,0,0-.61,1.49,3.61,3.61,0,0,0,.06.44,1.67,1.67,0,0,0,.35.71,2.45,2.45,0,0,0,.86.67,3.46,3.46,0,0,0,1.59.3l3.84,0v1Z"/><path d="M10.66,83.89c-.28,0-.55,0-.83,0L9,84V82.82h1.14v0a2.49,2.49,0,0,1-1-1.07,3.12,3.12,0,0,1-.33-1.36,5.35,5.35,0,0,1,.07-.65,2.92,2.92,0,0,1,.24-.66,2.34,2.34,0,0,1,.47-.6,2.61,2.61,0,0,1,.79-.46,2.45,2.45,0,0,1-1.13-1,3.07,3.07,0,0,1,.36-3.57,3.14,3.14,0,0,1,2.17-.67l4.76,0v1.06l-4.37,0a3.23,3.23,0,0,0-1.74.39,1.65,1.65,0,0,0-.62,1.49,1.91,1.91,0,0,0,.23,1,1.81,1.81,0,0,0,.61.65,2.63,2.63,0,0,0,.87.37,5.47,5.47,0,0,0,1,.12l4,0v1l-4.37,0a3.08,3.08,0,0,0-1.74.39,1.65,1.65,0,0,0-.62,1.48,3.37,3.37,0,0,0,.06.44,1.84,1.84,0,0,0,.35.72,2.55,2.55,0,0,0,.86.67,3.53,3.53,0,0,0,1.6.3l3.84,0v1.06Z"/></g><line class="cls-1" x1="25.93" y1="46.48" x2="25.78" y2="131.5"/><line class="cls-1" x1="26.64" y1="46.48" x2="25.17" y2="46.48"/><line class="cls-1" x1="26.49" y1="131.51" x2="25.02" y2="131.5"/><line class="cls-3" x1="34.42" y1="132.19" x2="272.55" y2="132.19"/><path class="cls-3" d="M153.49,46.85c19.23.13,38.47.26,57.57,2.6a138.38,138.38,0,0,1,26.37,5.48,75.22,75.22,0,0,1,15.81,7.13,48.53,48.53,0,0,1,10,7.88,34.36,34.36,0,0,1,6.83,10.25,30.92,30.92,0,0,1,2.27,9.06,64.82,64.82,0,0,1,.18,7.24c-.12,11.91-.06,23.81,0,35.69"/><path class="cls-3" d="M153.49,46.85c-19.24.13-38.47.26-57.57,2.6a138.16,138.16,0,0,0-26.38,5.48,75.69,75.69,0,0,0-15.81,7.13,48.2,48.2,0,0,0-10,7.88A34.2,34.2,0,0,0,36.9,80.19a31.24,31.24,0,0,0-2.27,9.06,67.31,67.31,0,0,0-.18,7.24c.12,11.91.07,23.81,0,35.69"/></svg>