<svg id="Snoopy_Limited_Edition" data-name="Snoopy Limited Edition" xmlns="http://www.w3.org/2000/svg" viewBox="0 0 300 263"><defs><style>.cls-1,.cls-3{fill:none;stroke-width:0.5px;}.cls-1{stroke:#000;}.cls-2{isolation:isolate;}.cls-3{stroke:#1d1d1b;stroke-linecap:round;stroke-linejoin:round;}</style></defs><title>snoopy-limited-edition-table-castiglioni-flos-F6381030-spech-tech-02-300x263</title><line class="cls-1" x1="62.5" y1="216.57" x2="62.5" y2="73.72"/><line class="cls-1" x1="64.89" y1="216.57" x2="60.11" y2="216.57"/><line class="cls-1" x1="64.89" y1="73.72" x2="60.11" y2="73.72"/><line class="cls-1" x1="71.9" y1="226.96" x2="228.1" y2="226.96"/><line class="cls-1" x1="71.9" y1="223.72" x2="71.9" y2="230.21"/><line class="cls-1" x1="228.1" y1="223.72" x2="228.1" y2="230.21"/><g class="cls-2"><path d="M123.07,240.86h.62a4.62,4.62,0,0,0,1-.11,2.65,2.65,0,0,0,.82-.36,1.74,1.74,0,0,0,.55-.65,2.06,2.06,0,0,0,.21-1,1.8,1.8,0,0,0-.57-1.42,2.38,2.38,0,0,0-1.6-.5,2.69,2.69,0,0,0-1.32.32,2.59,2.59,0,0,0-.93.93l-1-.51a3.46,3.46,0,0,1,1.35-1.36,4,4,0,0,1,1.9-.44,4.28,4.28,0,0,1,1.31.2,3.09,3.09,0,0,1,1.08.56,2.8,2.8,0,0,1,.74.93,2.72,2.72,0,0,1,.28,1.26,2.59,2.59,0,0,1-.16.88,2.77,2.77,0,0,1-.43.75,3,3,0,0,1-.64.58,3.06,3.06,0,0,1-.77.38l.05,0a2.85,2.85,0,0,1,.92.36,2.93,2.93,0,0,1,.71.65,3,3,0,0,1,.47.86,3.1,3.1,0,0,1,.16,1,3,3,0,0,1-1.11,2.42,3.44,3.44,0,0,1-1.2.63,4.82,4.82,0,0,1-1.44.22,4.56,4.56,0,0,1-2.26-.55,3.38,3.38,0,0,1-1.45-1.74l1.27-.37a2.35,2.35,0,0,0,.89,1.21,3,3,0,0,0,1.65.39,2.75,2.75,0,0,0,.95-.16,2.44,2.44,0,0,0,.78-.46,2,2,0,0,0,.54-.71,2.28,2.28,0,0,0,.19-.91,2.21,2.21,0,0,0-.25-1.08,2.07,2.07,0,0,0-.67-.71,2.8,2.8,0,0,0-1-.39,5.19,5.19,0,0,0-1.12-.12h-.52Z"/><path d="M135,242.46l0,0a2.18,2.18,0,0,1-.75.29,4.76,4.76,0,0,1-.87.09,4,4,0,0,1-1.43-.26,3.6,3.6,0,0,1-1.13-.73,3.39,3.39,0,0,1-.76-1.1,3.62,3.62,0,0,1-.27-1.41,3.51,3.51,0,0,1,.28-1.43,3.21,3.21,0,0,1,.8-1.1,3.57,3.57,0,0,1,1.21-.72,4.38,4.38,0,0,1,1.53-.26,4.47,4.47,0,0,1,1.53.26,3.67,3.67,0,0,1,1.21.72,3.35,3.35,0,0,1,.8,1.1,3.68,3.68,0,0,1,.28,1.43,4.38,4.38,0,0,1-.29,1.65,10.81,10.81,0,0,1-.72,1.39l-3.18,5h-1.41Zm1.19-3.15a2.46,2.46,0,0,0-.19-1,2.23,2.23,0,0,0-.54-.77,2.58,2.58,0,0,0-.83-.51,3,3,0,0,0-1.06-.18,3.08,3.08,0,0,0-1.07.18,2.69,2.69,0,0,0-.83.51,2.23,2.23,0,0,0-.54.77,2.67,2.67,0,0,0,0,2,2.37,2.37,0,0,0,.54.78,2.67,2.67,0,0,0,.83.5,3.08,3.08,0,0,0,1.07.18,3,3,0,0,0,1.06-.18,2.56,2.56,0,0,0,.83-.5,2.37,2.37,0,0,0,.54-.78A2.46,2.46,0,0,0,136.16,239.31Z"/><path d="M145.07,243.58h1.69v1.06h-1.69v2.68h-1.2v-2.68h-5.08v-1.32l4.75-7.32h1.53Zm-1.2-6.43h0l-4.06,6.43h4.09Z"/><path d="M153.21,241.5c0-.28,0-.55,0-.83s0-.56-.06-.83h1.18V241h0a2.52,2.52,0,0,1,1.1-1,3.31,3.31,0,0,1,1.4-.34,4.24,4.24,0,0,1,.68.07,2.55,2.55,0,0,1,.69.23,2.26,2.26,0,0,1,.62.47,2.66,2.66,0,0,1,.49.79,2.48,2.48,0,0,1,1.06-1.14,3.28,3.28,0,0,1,3.71.34,3.08,3.08,0,0,1,.71,2.17v4.75h-1.09V243a3.08,3.08,0,0,0-.42-1.75,1.75,1.75,0,0,0-1.54-.61,2.05,2.05,0,0,0-1,.24,2,2,0,0,0-.67.61,2.82,2.82,0,0,0-.37.87,4.31,4.31,0,0,0-.12,1v4h-1.09V243a3.08,3.08,0,0,0-.42-1.75,1.75,1.75,0,0,0-1.54-.61c-.07,0-.22,0-.46.07a1.72,1.72,0,0,0-.74.35,2.46,2.46,0,0,0-.69.86,3.4,3.4,0,0,0-.31,1.6v3.84h-1.09Z"/><path d="M167.36,241.5c0-.28,0-.55,0-.83s0-.56-.05-.83h1.18V241h0a2.52,2.52,0,0,1,1.1-1,3.32,3.32,0,0,1,1.41-.34,4.13,4.13,0,0,1,.67.07,2.44,2.44,0,0,1,.69.23,2.26,2.26,0,0,1,.62.47,2.47,2.47,0,0,1,.49.79,2.53,2.53,0,0,1,1.06-1.14,3.28,3.28,0,0,1,3.71.34,3,3,0,0,1,.72,2.17v4.75h-1.1V243a3.08,3.08,0,0,0-.42-1.75,1.74,1.74,0,0,0-1.54-.61,2,2,0,0,0-1,.24,1.88,1.88,0,0,0-.67.61,2.62,2.62,0,0,0-.38.87,4.31,4.31,0,0,0-.11,1v4h-1.1V243a3.08,3.08,0,0,0-.42-1.75,1.74,1.74,0,0,0-1.54-.61c-.07,0-.22,0-.46.07a1.77,1.77,0,0,0-.74.35,2.71,2.71,0,0,0-.69.86,3.53,3.53,0,0,0-.3,1.6v3.84h-1.1Z"/></g><g class="cls-2"><path d="M48,171.08v-.59a4.19,4.19,0,0,0-.11-1,2.3,2.3,0,0,0-.36-.79,1.8,1.8,0,0,0-.65-.54,2.19,2.19,0,0,0-1-.2,1.82,1.82,0,0,0-1.42.55,2.24,2.24,0,0,0-.5,1.55,2.36,2.36,0,0,0,.32,1.26,2.52,2.52,0,0,0,.93.9l-.52,1a3.46,3.46,0,0,1-1.35-1.3,3.75,3.75,0,0,1-.44-1.83,4.38,4.38,0,0,1,.19-1.27,3.18,3.18,0,0,1,.57-1,2.88,2.88,0,0,1,.93-.71,3,3,0,0,1,1.26-.26,2.58,2.58,0,0,1,.88.15,2.85,2.85,0,0,1,1.33,1,2.89,2.89,0,0,1,.38.74l0-.05a2.34,2.34,0,0,1,.36-.88,2.67,2.67,0,0,1,.65-.69,3.06,3.06,0,0,1,.86-.45,3.39,3.39,0,0,1,1-.16,3.23,3.23,0,0,1,1.39.29,3,3,0,0,1,1,.78,3.82,3.82,0,0,1,.63,1.16,4.5,4.5,0,0,1,.21,1.39,4.27,4.27,0,0,1-.54,2.18,3.33,3.33,0,0,1-1.74,1.39L52,172.52a2.46,2.46,0,0,0,1.21-.85,2.8,2.8,0,0,0,.39-1.6,2.76,2.76,0,0,0-.16-.91,2.34,2.34,0,0,0-.46-.76,2,2,0,0,0-.71-.51,2.27,2.27,0,0,0-.91-.18,2.21,2.21,0,0,0-1.08.24,1.91,1.91,0,0,0-.71.64,2.48,2.48,0,0,0-.4.92,4.7,4.7,0,0,0-.12,1.08v.49Z"/><path d="M48,162.38l0,0a2.14,2.14,0,0,1-.29-.73,4.46,4.46,0,0,1-.09-.84,3.43,3.43,0,0,1,1-2.47,3.28,3.28,0,0,1,1.1-.72,3.84,3.84,0,0,1,2.83,0,3.35,3.35,0,0,1,1.11.77,3.49,3.49,0,0,1,.72,1.17,4.13,4.13,0,0,1,.25,1.47,4,4,0,0,1-.25,1.47,3.49,3.49,0,0,1-.72,1.17,3.21,3.21,0,0,1-1.11.77,3.59,3.59,0,0,1-1.42.27,4.39,4.39,0,0,1-1.65-.28,10.56,10.56,0,0,1-1.39-.69l-5-3.06v-1.36Zm3.15,1.15a2.64,2.64,0,0,0,1-.18,2.48,2.48,0,0,0,.78-.52,2.36,2.36,0,0,0,.5-.8,2.86,2.86,0,0,0,.18-1,2.8,2.8,0,0,0-.18-1,2.26,2.26,0,0,0-.5-.8,2.18,2.18,0,0,0-.78-.52,2.67,2.67,0,0,0-2,0,2.06,2.06,0,0,0-.77.52,2.41,2.41,0,0,0-.5.8,2.61,2.61,0,0,0-.19,1,2.66,2.66,0,0,0,.19,1,2.52,2.52,0,0,0,.5.8,2.33,2.33,0,0,0,.77.52A2.64,2.64,0,0,0,51.16,163.53Z"/><path d="M49.61,150.73l0,0a2.06,2.06,0,0,1,.28.73,3.69,3.69,0,0,1,.1.84,3.63,3.63,0,0,1-.26,1.37,3.42,3.42,0,0,1-.73,1.09,3.25,3.25,0,0,1-1.11.73,3.53,3.53,0,0,1-1.4.27,3.48,3.48,0,0,1-1.43-.28,3.24,3.24,0,0,1-1.1-.76,3.49,3.49,0,0,1-.72-1.17,4.31,4.31,0,0,1,0-3,3.54,3.54,0,0,1,.72-1.16,3.13,3.13,0,0,1,1.1-.77,3.64,3.64,0,0,1,1.43-.27,4.37,4.37,0,0,1,1.64.28,8.64,8.64,0,0,1,1.4.69l5,3.06v1.36Zm-3.15-1.15a2.66,2.66,0,0,0-1,.18,2.24,2.24,0,0,0-.76.52,2.38,2.38,0,0,0-.51.8,3,3,0,0,0,0,2,2.29,2.29,0,0,0,.51.8,2.24,2.24,0,0,0,.76.52,2.84,2.84,0,0,0,2,0,2.31,2.31,0,0,0,1.28-1.32,3.18,3.18,0,0,0,0-2,2.38,2.38,0,0,0-.51-.8,2.28,2.28,0,0,0-.77-.52A2.64,2.64,0,0,0,46.46,149.58Z"/><path d="M48.65,142.06l-.83,0-.84.06V141h1.14v0a2.47,2.47,0,0,1-1-1.06,3,3,0,0,1-.34-1.36,2.91,2.91,0,0,1,.07-.64,2.42,2.42,0,0,1,.23-.67,2.34,2.34,0,0,1,.47-.6,2.65,2.65,0,0,1,.78-.47,2.42,2.42,0,0,1-1.13-1,3.06,3.06,0,0,1,.34-3.57,3.12,3.12,0,0,1,2.17-.69h4.75V132H50.1a3.16,3.16,0,0,0-1.74.4,1.62,1.62,0,0,0-.61,1.48,2,2,0,0,0,.23,1,1.9,1.9,0,0,0,.62.64,2.58,2.58,0,0,0,.87.36,4.31,4.31,0,0,0,1,.12h4V137H50.1a3.16,3.16,0,0,0-1.74.4,1.64,1.64,0,0,0-.61,1.49,2.67,2.67,0,0,0,.07.44,1.62,1.62,0,0,0,.35.71,2.55,2.55,0,0,0,.86.67,3.69,3.69,0,0,0,1.6.29h3.84v1.06Z"/><path d="M48.65,128.43c-.28,0-.56,0-.83,0l-.84.06v-1.14h1.14v0a2.44,2.44,0,0,1-1-1.07,2.94,2.94,0,0,1-.34-1.35,3.07,3.07,0,0,1,.07-.65,2.25,2.25,0,0,1,.23-.66,2.34,2.34,0,0,1,.47-.6,2.45,2.45,0,0,1,.78-.47,2.48,2.48,0,0,1-1.13-1,2.74,2.74,0,0,1-.42-1.45,2.69,2.69,0,0,1,.76-2.12,3.12,3.12,0,0,1,2.17-.69h4.75v1H50.1a3.25,3.25,0,0,0-1.74.4,1.65,1.65,0,0,0-.61,1.49,2,2,0,0,0,.23,1,1.84,1.84,0,0,0,.62.65,2.58,2.58,0,0,0,.87.36,4.31,4.31,0,0,0,1,.11h4v1.06H50.1a3.16,3.16,0,0,0-1.74.4,1.64,1.64,0,0,0-.61,1.49,2.67,2.67,0,0,0,.07.44,1.62,1.62,0,0,0,.35.71,2.42,2.42,0,0,0,.86.66,3.53,3.53,0,0,0,1.6.3h3.84v1.06Z"/></g><polygon class="cls-3" points="152.36 140.95 157.56 139.77 158.74 145.61 153.59 146.76 152.36 140.95"/><path class="cls-3" d="M227.81,111.77a29.07,29.07,0,0,0,.29-4.42,30.19,30.19,0,0,0-10-22.06c-5.94-5.49-8.32-6.53-25.77-8.65s-36.3-2.37-41.39-2.59-51.49,1.67-55.19,2.82A35.71,35.71,0,0,0,78.32,89.12c-3.77,5.26-6.59,10.92-6.42,22.15.2,13.11,7.27,25.61,11.56,31.5Z"/><path class="cls-3" d="M112.89,141.42l15.82,73.88H168l-17.18-82.06Zm45.64,3.93-4.61,1.05m4.33-1.7-4.46,1m4.42-1.69-4.46,1m4.3-1.67-4.41,1m4.22-1.65-4.43,1m4.32-1.67-4.45,1m4.36-1.67-4.54,1m4.4-1.67-4.55,1m4.41-1.66-4.59,1"/><polygon class="cls-3" points="167.95 215.25 167.13 216.88 130.07 216.88 128.74 215.3 167.95 215.25"/><polygon class="cls-3" points="226.37 116.97 86.28 147.16 84.92 142.46 225.1 112.45 226.37 116.97"/><path class="cls-3" d="M153.25,75.81c0-.75-13.17-.9-29.36-.33s-29.3,1.63-29.27,2.37,13.17.9,29.36.33S153.28,76.55,153.25,75.81Z"/></svg>