<svg xmlns="http://www.w3.org/2000/svg" viewBox="0 0 300 263"><defs><style>.cls-1,.cls-2,.cls-3,.cls-4{fill:none;stroke-linecap:round;}.cls-1,.cls-2{stroke:red;}.cls-1,.cls-2,.cls-4{stroke-linejoin:round;}.cls-1,.cls-3,.cls-4{stroke-width:0.6px;}.cls-3,.cls-4{stroke:#000;}.cls-3{stroke-miterlimit:10;}</style></defs><title>snoopy-table-castiglioni-flos-F6380030-spech-tech-02-300x263</title><g id="numeri_esterni_diagramma" data-name="numeri esterni diagramma"><path d="M148.27,239.2a6.85,6.85,0,0,1,.08-1,3.41,3.41,0,0,1,.3-.95,1.94,1.94,0,0,1,.59-.71,1.57,1.57,0,0,1,.95-.27,1.6,1.6,0,0,1,1,.27,2,2,0,0,1,.59.71,3.1,3.1,0,0,1,.29.95,5.7,5.7,0,0,1,.08,1,5.85,5.85,0,0,1-.08,1,3.13,3.13,0,0,1-.29.94,2,2,0,0,1-.59.71,1.6,1.6,0,0,1-1,.27,1.57,1.57,0,0,1-.95-.27,1.94,1.94,0,0,1-.59-.71,3.45,3.45,0,0,1-.3-.94A7.07,7.07,0,0,1,148.27,239.2Zm.68,0c0,.13,0,.29,0,.46a4.88,4.88,0,0,0,.06.52,2.83,2.83,0,0,0,.13.5,1.65,1.65,0,0,0,.22.44,1.24,1.24,0,0,0,.34.31,1,1,0,0,0,.48.12.9.9,0,0,0,.48-.12,1,1,0,0,0,.34-.31,1.41,1.41,0,0,0,.23-.44,4.07,4.07,0,0,0,.13-.5c0-.18,0-.35.06-.52s0-.33,0-.46,0-.3,0-.47,0-.34-.06-.51a3.8,3.8,0,0,0-.13-.51,1.53,1.53,0,0,0-.23-.44,1,1,0,0,0-.34-.31.9.9,0,0,0-.48-.12,1,1,0,0,0-.48.12,1.24,1.24,0,0,0-.34.31,1.81,1.81,0,0,0-.22.44,2.72,2.72,0,0,0-.13.51,4.43,4.43,0,0,0-.06.51C149,238.9,149,239.06,149,239.2Z"/><path d="M152.83,237.41a1.33,1.33,0,0,1,.08-.45,1.11,1.11,0,0,1,.25-.36,1,1,0,0,1,.36-.24,1.17,1.17,0,0,1,.9,0,1,1,0,0,1,.36.24,1.11,1.11,0,0,1,.25.36,1.31,1.31,0,0,1,0,.9,1.23,1.23,0,0,1-.61.61,1.17,1.17,0,0,1-.9,0,1.23,1.23,0,0,1-.61-.61A1.33,1.33,0,0,1,152.83,237.41Zm.43,0a.79.79,0,0,0,.05.25.68.68,0,0,0,.14.23.66.66,0,0,0,.23.17.73.73,0,0,0,.58,0,.76.76,0,0,0,.23-.17.88.88,0,0,0,.14-.23.65.65,0,0,0,0-.5,1.09,1.09,0,0,0-.14-.23,1,1,0,0,0-.23-.17.73.73,0,0,0-.58,0,.81.81,0,0,0-.23.17.75.75,0,0,0-.19.48Z"/><path d="M203.17,238.76h.21l.43,0a1.15,1.15,0,0,0,.42-.13.77.77,0,0,0,.31-.31.94.94,0,0,0,.13-.51.87.87,0,0,0-.27-.68,1,1,0,0,0-.7-.26,1.28,1.28,0,0,0-.63.16,1.14,1.14,0,0,0-.41.48l-.65-.25a1.48,1.48,0,0,1,.65-.72,2.07,2.07,0,0,1,1-.24,2.25,2.25,0,0,1,.64.09,1.72,1.72,0,0,1,.54.28,1.37,1.37,0,0,1,.37.46,1.48,1.48,0,0,1,.14.65,1.29,1.29,0,0,1-.27.8,1.34,1.34,0,0,1-.7.49v0a1.48,1.48,0,0,1,.85.49,1.37,1.37,0,0,1,.23.43,1.69,1.69,0,0,1,.08.5,1.66,1.66,0,0,1-.15.72,1.57,1.57,0,0,1-.41.51,1.71,1.71,0,0,1-.6.31,2.34,2.34,0,0,1-.71.1,2.18,2.18,0,0,1-1.13-.28,1.61,1.61,0,0,1-.7-.91l.68-.22a1.33,1.33,0,0,0,.41.65,1.3,1.3,0,0,0,.74.19,1.33,1.33,0,0,0,.45-.08,1.11,1.11,0,0,0,.36-.23,1.24,1.24,0,0,0,.25-.35,1.13,1.13,0,0,0,.09-.45,1.07,1.07,0,0,0-.12-.53,1,1,0,0,0-.33-.33,1.23,1.23,0,0,0-.46-.18,2.31,2.31,0,0,0-.52-.06h-.21Z"/><path d="M206.24,239.2a6.85,6.85,0,0,1,.08-1,3.11,3.11,0,0,1,.3-.95,1.94,1.94,0,0,1,.59-.71,1.55,1.55,0,0,1,.95-.27,1.6,1.6,0,0,1,1,.27,2,2,0,0,1,.59.71,3.1,3.1,0,0,1,.29.95,5.7,5.7,0,0,1,.08,1,5.85,5.85,0,0,1-.08,1,3.13,3.13,0,0,1-.29.94,2,2,0,0,1-.59.71,1.6,1.6,0,0,1-1,.27,1.55,1.55,0,0,1-.95-.27,1.94,1.94,0,0,1-.59-.71,3.14,3.14,0,0,1-.3-.94A7.07,7.07,0,0,1,206.24,239.2Zm.67,0c0,.13,0,.29,0,.46a4.88,4.88,0,0,0,.06.52,2.83,2.83,0,0,0,.13.5,1.4,1.4,0,0,0,.22.44,1.24,1.24,0,0,0,.34.31,1,1,0,0,0,.48.12.9.9,0,0,0,.48-.12,1,1,0,0,0,.34-.31,1.41,1.41,0,0,0,.23-.44,4.05,4.05,0,0,0,.12-.5,4.88,4.88,0,0,0,.06-.52,3.86,3.86,0,0,0,0-.46,3.94,3.94,0,0,0,0-.47,4.43,4.43,0,0,0-.06-.51,3.81,3.81,0,0,0-.12-.51,1.53,1.53,0,0,0-.23-.44,1,1,0,0,0-.34-.31.9.9,0,0,0-.48-.12,1,1,0,0,0-.48.12,1.24,1.24,0,0,0-.34.31,1.51,1.51,0,0,0-.22.44,2.72,2.72,0,0,0-.13.51,4.43,4.43,0,0,0-.06.51C206.92,238.9,206.91,239.06,206.91,239.2Z"/><path d="M210.84,237.41a1.13,1.13,0,0,1,.09-.45,1.26,1.26,0,0,1,.24-.36,1.2,1.2,0,0,1,.82-.33,1,1,0,0,1,.44.09,1.12,1.12,0,0,1,.37.24,1.26,1.26,0,0,1,.24.36,1.16,1.16,0,0,1-.24,1.26,1.15,1.15,0,0,1-.37.25,1,1,0,0,1-.44.09,1.13,1.13,0,0,1-.45-.09,1.15,1.15,0,0,1-.37-.25,1.15,1.15,0,0,1-.33-.81Zm.43,0a.61.61,0,0,0,.06.25.68.68,0,0,0,.14.23.72.72,0,0,0,.22.17.73.73,0,0,0,.3.06.72.72,0,0,0,.29-.06.62.62,0,0,0,.22-.17.91.91,0,0,0,.15-.23.65.65,0,0,0,0-.5,1.14,1.14,0,0,0-.15-.23.76.76,0,0,0-.22-.17.72.72,0,0,0-.29-.06.73.73,0,0,0-.3.06.92.92,0,0,0-.22.17.79.79,0,0,0-.14.23A.61.61,0,0,0,211.27,237.41Z"/><path d="M93.6,238.76h.21l.44,0a1.1,1.1,0,0,0,.41-.13.86.86,0,0,0,.32-.31.94.94,0,0,0,.12-.51.87.87,0,0,0-.27-.68,1,1,0,0,0-.7-.26,1.21,1.21,0,0,0-.62.16,1.1,1.1,0,0,0-.42.48l-.65-.25a1.45,1.45,0,0,1,.66-.72,2,2,0,0,1,1-.24,2.32,2.32,0,0,1,.65.09,2,2,0,0,1,.54.28,1.67,1.67,0,0,1,.37.46,1.48,1.48,0,0,1,.13.65,1.29,1.29,0,0,1-.27.8,1.34,1.34,0,0,1-.7.49v0a1.31,1.31,0,0,1,.49.18,1.34,1.34,0,0,1,.36.31,1.37,1.37,0,0,1,.23.43,1.42,1.42,0,0,1,.08.5,1.66,1.66,0,0,1-.15.72,1.57,1.57,0,0,1-.41.51,1.75,1.75,0,0,1-.59.31,2.46,2.46,0,0,1-.72.1,2.18,2.18,0,0,1-1.13-.28,1.56,1.56,0,0,1-.69-.91l.68-.22a1.2,1.2,0,0,0,.41.65,1.27,1.27,0,0,0,.73.19,1.33,1.33,0,0,0,.45-.08,1.11,1.11,0,0,0,.36-.23,1.07,1.07,0,0,0,.25-.35,1.13,1.13,0,0,0,.09-.45,1.07,1.07,0,0,0-.12-.53.87.87,0,0,0-.33-.33,1.17,1.17,0,0,0-.46-.18,2.24,2.24,0,0,0-.52-.06H93.6Z"/><path d="M96.68,239.2a5.7,5.7,0,0,1,.08-1,3.1,3.1,0,0,1,.29-.95,2,2,0,0,1,.59-.71,1.6,1.6,0,0,1,1-.27,1.57,1.57,0,0,1,1,.27,1.94,1.94,0,0,1,.59.71,3.41,3.41,0,0,1,.3.95,6.85,6.85,0,0,1,.08,1,7.07,7.07,0,0,1-.08,1,3.45,3.45,0,0,1-.3.94,1.94,1.94,0,0,1-.59.71,1.57,1.57,0,0,1-1,.27,1.6,1.6,0,0,1-1-.27,2,2,0,0,1-.59-.71,3.13,3.13,0,0,1-.29-.94A5.85,5.85,0,0,1,96.68,239.2Zm.67,0c0,.13,0,.29,0,.46a4.88,4.88,0,0,0,.06.52,4.07,4.07,0,0,0,.13.5,1.41,1.41,0,0,0,.23.44,1,1,0,0,0,.34.31.9.9,0,0,0,.48.12,1,1,0,0,0,.48-.12,1.24,1.24,0,0,0,.34-.31,1.65,1.65,0,0,0,.22-.44,2.83,2.83,0,0,0,.13-.5,4.88,4.88,0,0,0,.06-.52c0-.17,0-.33,0-.46s0-.3,0-.47a4.43,4.43,0,0,0-.06-.51,2.72,2.72,0,0,0-.13-.51,1.81,1.81,0,0,0-.22-.44,1.24,1.24,0,0,0-.34-.31,1,1,0,0,0-.48-.12.9.9,0,0,0-.48.12,1,1,0,0,0-.34.31,1.53,1.53,0,0,0-.23.44,3.8,3.8,0,0,0-.13.51,4.43,4.43,0,0,0-.06.51C97.35,238.9,97.35,239.06,97.35,239.2Z"/><path d="M101.28,237.41a1.33,1.33,0,0,1,.08-.45,1.11,1.11,0,0,1,.25-.36,1,1,0,0,1,.36-.24,1.17,1.17,0,0,1,.9,0,1,1,0,0,1,.36.24,1.11,1.11,0,0,1,.25.36,1.31,1.31,0,0,1,0,.9,1.23,1.23,0,0,1-.61.61,1.17,1.17,0,0,1-.9,0,1.23,1.23,0,0,1-.61-.61A1.33,1.33,0,0,1,101.28,237.41Zm.43,0a.79.79,0,0,0,.05.25.68.68,0,0,0,.14.23.76.76,0,0,0,.23.17.73.73,0,0,0,.58,0,.66.66,0,0,0,.23-.17.68.68,0,0,0,.14-.23.71.71,0,0,0-.14-.73.81.81,0,0,0-.23-.17.73.73,0,0,0-.58,0,1,1,0,0,0-.23.17.75.75,0,0,0-.19.48Z"/><path d="M249.93,137.18h0a1.24,1.24,0,0,1-.37.12,1.84,1.84,0,0,1-.39,0,1.91,1.91,0,0,1-.68-.12,1.58,1.58,0,0,1-.54-.37,1.63,1.63,0,0,1-.36-.56,2.05,2.05,0,0,1-.13-.72,1.79,1.79,0,0,1,.15-.75,1.48,1.48,0,0,1,.4-.55,1.79,1.79,0,0,1,.6-.35,2,2,0,0,1,.75-.13,2.11,2.11,0,0,1,.75.13,1.79,1.79,0,0,1,.6.35,1.59,1.59,0,0,1,.4.55,1.79,1.79,0,0,1,.14.75,2.15,2.15,0,0,1,0,.45,1.68,1.68,0,0,1-.11.4,2.59,2.59,0,0,1-.17.38l-.21.36-1.51,2.39h-.78Zm-.59-.42a1.28,1.28,0,0,0,.48-.09,1,1,0,0,0,.39-.24,1.23,1.23,0,0,0,.26-.37,1.43,1.43,0,0,0,0-1,1.1,1.1,0,0,0-.65-.62,1.48,1.48,0,0,0-1,0,1.28,1.28,0,0,0-.39.24,1.12,1.12,0,0,0-.26.38,1.3,1.3,0,0,0,0,1,1.08,1.08,0,0,0,.26.37,1,1,0,0,0,.39.24A1.28,1.28,0,0,0,249.34,136.76Z"/><path d="M251.82,136.71a7.07,7.07,0,0,1,.08-1,3.19,3.19,0,0,1,.29-1,2,2,0,0,1,.59-.7,1.54,1.54,0,0,1,1-.28,1.49,1.49,0,0,1,.95.28,1.91,1.91,0,0,1,.59.7,2.94,2.94,0,0,1,.3,1,6.29,6.29,0,0,1,0,2,2.94,2.94,0,0,1-.3.95,1.91,1.91,0,0,1-.59.7,1.49,1.49,0,0,1-.95.28,1.54,1.54,0,0,1-1-.28,2,2,0,0,1-.59-.7,3.19,3.19,0,0,1-.29-.95A7.07,7.07,0,0,1,251.82,136.71Zm.67,0c0,.14,0,.29,0,.46a4.6,4.6,0,0,0,.06.52,4.7,4.7,0,0,0,.12.51,2,2,0,0,0,.23.44,1,1,0,0,0,.34.31,1,1,0,0,0,.48.11,1.06,1.06,0,0,0,.48-.11,1.24,1.24,0,0,0,.34-.31,1.65,1.65,0,0,0,.22-.44,3.18,3.18,0,0,0,.13-.51,4.6,4.6,0,0,0,.06-.52c0-.17,0-.32,0-.46s0-.29,0-.46a4.6,4.6,0,0,0-.06-.52,3.18,3.18,0,0,0-.13-.51,1.65,1.65,0,0,0-.22-.44,1.24,1.24,0,0,0-.34-.31,1.06,1.06,0,0,0-.48-.11,1,1,0,0,0-.48.11,1,1,0,0,0-.34.31,2,2,0,0,0-.23.44,4.7,4.7,0,0,0-.12.51,4.6,4.6,0,0,0-.06.52C252.5,136.42,252.49,136.57,252.49,136.71Z"/><path d="M256.42,134.93a1.13,1.13,0,0,1,.09-.45,1.31,1.31,0,0,1,.24-.37,1.18,1.18,0,0,1,.37-.24,1,1,0,0,1,.44-.09,1.13,1.13,0,0,1,.45.09,1.06,1.06,0,0,1,.61.61,1.13,1.13,0,0,1,.09.45,1,1,0,0,1-.09.44,1.06,1.06,0,0,1-.61.61,1.13,1.13,0,0,1-.45.09,1,1,0,0,1-.44-.09,1.18,1.18,0,0,1-.37-.24,1.31,1.31,0,0,1-.24-.37A1,1,0,0,1,256.42,134.93Zm.43,0a.69.69,0,0,0,0,.24,1,1,0,0,0,.15.24.73.73,0,0,0,.51.23.54.54,0,0,0,.29-.07.63.63,0,0,0,.23-.16.72.72,0,0,0,.14-.24.52.52,0,0,0,0-.24.56.56,0,0,0,0-.25.59.59,0,0,0-.14-.23.74.74,0,0,0-.52-.24.73.73,0,0,0-.29.07.62.62,0,0,0-.22.17.76.76,0,0,0-.15.23A.74.74,0,0,0,256.85,134.93Z"/><path d="M41.57,137.18h0a1.34,1.34,0,0,1-.37.12,2,2,0,0,1-.39,0,1.92,1.92,0,0,1-.69-.12,1.58,1.58,0,0,1-.54-.37,1.8,1.8,0,0,1-.36-.56,2.05,2.05,0,0,1-.13-.72,1.79,1.79,0,0,1,.15-.75,1.48,1.48,0,0,1,.4-.55,1.79,1.79,0,0,1,.6-.35,2.23,2.23,0,0,1,1.5,0,1.79,1.79,0,0,1,.6.35,1.48,1.48,0,0,1,.4.55,1.79,1.79,0,0,1,.15.75,3.14,3.14,0,0,1,0,.45,2.34,2.34,0,0,1-.12.4,1.84,1.84,0,0,1-.17.38,3.35,3.35,0,0,1-.21.36l-1.5,2.39h-.79Zm-.59-.42a1.28,1.28,0,0,0,.48-.09,1,1,0,0,0,.39-.24,1.23,1.23,0,0,0,.26-.37,1.3,1.3,0,0,0,0-1,1.1,1.1,0,0,0-.65-.62,1.48,1.48,0,0,0-1,0,1.1,1.1,0,0,0-.65.62,1.43,1.43,0,0,0,0,1,1.23,1.23,0,0,0,.26.37,1,1,0,0,0,.39.24A1.28,1.28,0,0,0,41,136.76Z"/><path d="M43.46,136.71a7.07,7.07,0,0,1,.08-1,2.94,2.94,0,0,1,.3-1,1.91,1.91,0,0,1,.59-.7,1.49,1.49,0,0,1,1-.28,1.54,1.54,0,0,1,1,.28,2,2,0,0,1,.59.7,3.19,3.19,0,0,1,.29,1,6.29,6.29,0,0,1,0,2,3.19,3.19,0,0,1-.29.95,2,2,0,0,1-.59.7,1.54,1.54,0,0,1-1,.28,1.49,1.49,0,0,1-1-.28,1.91,1.91,0,0,1-.59-.7,2.94,2.94,0,0,1-.3-.95A7.07,7.07,0,0,1,43.46,136.71Zm.67,0c0,.14,0,.29,0,.46a4.6,4.6,0,0,0,.06.52,3.18,3.18,0,0,0,.13.51,1.65,1.65,0,0,0,.22.44,1.12,1.12,0,0,0,.34.31,1.1,1.1,0,0,0,1,0,1.12,1.12,0,0,0,.34-.31,2,2,0,0,0,.23-.44,4.7,4.7,0,0,0,.12-.51,4.6,4.6,0,0,0,.06-.52c0-.17,0-.32,0-.46s0-.29,0-.46a4.6,4.6,0,0,0-.06-.52,4.7,4.7,0,0,0-.12-.51,2,2,0,0,0-.23-.44,1.12,1.12,0,0,0-.34-.31,1.1,1.1,0,0,0-1,0,1.12,1.12,0,0,0-.34.31,1.65,1.65,0,0,0-.22.44,3.18,3.18,0,0,0-.13.51,4.6,4.6,0,0,0-.06.52C44.14,136.42,44.13,136.57,44.13,136.71Z"/><path d="M48.06,134.93a1.13,1.13,0,0,1,.09-.45,1.06,1.06,0,0,1,.61-.61,1.13,1.13,0,0,1,.45-.09,1.08,1.08,0,0,1,.44.09,1.06,1.06,0,0,1,.61.61,1.13,1.13,0,0,1,.09.45,1,1,0,0,1-.09.44,1.06,1.06,0,0,1-.61.61,1.08,1.08,0,0,1-.44.09,1.13,1.13,0,0,1-.45-.09,1.06,1.06,0,0,1-.61-.61A1,1,0,0,1,48.06,134.93Zm.43,0a.53.53,0,0,0,.06.24.72.72,0,0,0,.14.24.69.69,0,0,0,.22.16.6.6,0,0,0,.3.07.73.73,0,0,0,.51-.23,1,1,0,0,0,.15-.24.69.69,0,0,0,.05-.24.74.74,0,0,0-.05-.25.76.76,0,0,0-.15-.23.62.62,0,0,0-.22-.17.73.73,0,0,0-.29-.07.73.73,0,0,0-.3.07.72.72,0,0,0-.22.17.59.59,0,0,0-.14.23A.57.57,0,0,0,48.49,134.93Z"/><path d="M148.37,38.51h-.68v-4.8h0l-1,.85-.4-.48,1.52-1.24h.59Z"/><path d="M150.49,34.23a1.48,1.48,0,0,1,.13-.61,1.2,1.2,0,0,1,.34-.46,1.44,1.44,0,0,1,.51-.3,1.92,1.92,0,0,1,1.28,0,1.44,1.44,0,0,1,.51.3,1.2,1.2,0,0,1,.34.46,1.33,1.33,0,0,1,.13.61,1.16,1.16,0,0,1-.07.4,1.41,1.41,0,0,1-.18.37,1.33,1.33,0,0,1-.29.29,1.18,1.18,0,0,1-.39.19h0a1.44,1.44,0,0,1,.46.19,1.35,1.35,0,0,1,.35.32,1.42,1.42,0,0,1,.23.44,1.7,1.7,0,0,1,.08.51,1.74,1.74,0,0,1-.14.69,1.43,1.43,0,0,1-.39.52,1.47,1.47,0,0,1-.57.33,2.35,2.35,0,0,1-1.42,0,1.47,1.47,0,0,1-.57-.33,1.55,1.55,0,0,1-.39-.52,1.74,1.74,0,0,1-.14-.69,1.7,1.7,0,0,1,.08-.51,1.67,1.67,0,0,1,.23-.44,1.35,1.35,0,0,1,.35-.32,1.44,1.44,0,0,1,.46-.19h0a1.18,1.18,0,0,1-.39-.19,1.33,1.33,0,0,1-.29-.29,1.41,1.41,0,0,1-.18-.37A1.46,1.46,0,0,1,150.49,34.23ZM151,36.9a1.18,1.18,0,0,0,.09.46,1.07,1.07,0,0,0,.25.35,1,1,0,0,0,.36.23,1.12,1.12,0,0,0,.88,0,1,1,0,0,0,.36-.23,1.07,1.07,0,0,0,.25-.35,1.18,1.18,0,0,0,.09-.46,1.14,1.14,0,0,0-.09-.46,1.13,1.13,0,0,0-.61-.58,1.12,1.12,0,0,0-.88,0,1.13,1.13,0,0,0-.61.58A1.14,1.14,0,0,0,151,36.9Zm.2-2.64a.88.88,0,0,0,.26.67,1,1,0,0,0,1.36,0,1,1,0,0,0,0-1.34,1,1,0,0,0-1.36,0A.88.88,0,0,0,151.17,34.26Z"/><path d="M154.64,35.68a7,7,0,0,1,.08-1,3.1,3.1,0,0,1,.29-1,2,2,0,0,1,.59-.71,1.6,1.6,0,0,1,1-.27,1.55,1.55,0,0,1,.95.27,1.94,1.94,0,0,1,.59.71,2.86,2.86,0,0,1,.3,1,7,7,0,0,1,.08,1,7.07,7.07,0,0,1-.08,1,2.88,2.88,0,0,1-.3.94,1.94,1.94,0,0,1-.59.71,1.55,1.55,0,0,1-.95.27,1.6,1.6,0,0,1-1-.27,2,2,0,0,1-.59-.71,3.13,3.13,0,0,1-.29-.94A7.07,7.07,0,0,1,154.64,35.68Zm.67,0c0,.13,0,.29,0,.46a4.88,4.88,0,0,0,.06.52,4.05,4.05,0,0,0,.12.5,1.66,1.66,0,0,0,.23.44,1.12,1.12,0,0,0,.34.31,1,1,0,0,0,1,0,1.12,1.12,0,0,0,.34-.31,1.4,1.4,0,0,0,.22-.44,2.83,2.83,0,0,0,.13-.5,4.88,4.88,0,0,0,.06-.52c0-.17,0-.33,0-.46s0-.3,0-.47a4.43,4.43,0,0,0-.06-.51,2.72,2.72,0,0,0-.13-.51,1.51,1.51,0,0,0-.22-.44,1.12,1.12,0,0,0-.34-.31,1,1,0,0,0-1,0,1.12,1.12,0,0,0-.34.31,1.83,1.83,0,0,0-.23.44,3.81,3.81,0,0,0-.12.51,4.43,4.43,0,0,0-.06.51C155.32,35.38,155.31,35.54,155.31,35.68Z"/><path d="M159.24,33.89a1.15,1.15,0,0,1,.33-.81,1,1,0,0,1,.37-.24,1,1,0,0,1,.44-.09,1.15,1.15,0,0,1,.82,2,1.15,1.15,0,0,1-.37.25,1.13,1.13,0,0,1-.45.09,1.15,1.15,0,0,1-.81-.34,1.15,1.15,0,0,1-.33-.81Zm.43,0a.79.79,0,0,0,.05.25,1.14,1.14,0,0,0,.15.23.62.62,0,0,0,.22.17.72.72,0,0,0,.29.06.68.68,0,0,0,.52-.23.79.79,0,0,0,.14-.23.65.65,0,0,0,0-.5.79.79,0,0,0-.14-.23.81.81,0,0,0-.23-.17.65.65,0,0,0-.29-.06.72.72,0,0,0-.29.06.76.76,0,0,0-.22.17,1.14,1.14,0,0,0-.15.23A.79.79,0,0,0,159.67,33.89Z"/><path d="M203.18,38.51h-.68v-4.8h0l-1,.85-.4-.48,1.52-1.24h.59Z"/><path d="M208.49,33.47h-2.31l0,1.53a1.08,1.08,0,0,1,.36-.11l.37,0a2,2,0,0,1,.74.14,1.61,1.61,0,0,1,.57.39,1.9,1.9,0,0,1,.37.59,2,2,0,0,1,.13.74,2,2,0,0,1-.15.78,1.74,1.74,0,0,1-.41.59,1.91,1.91,0,0,1-.61.38,2.2,2.2,0,0,1-.78.13,1.73,1.73,0,0,1-1-.28,2,2,0,0,1-.63-.75l.67-.25a1.31,1.31,0,0,0,.42.51,1.1,1.1,0,0,0,.64.2,1.28,1.28,0,0,0,.48-.09,1.26,1.26,0,0,0,.38-.27,1.15,1.15,0,0,0,.26-.41,1.53,1.53,0,0,0,.1-.54,1.38,1.38,0,0,0-.11-.55,1.08,1.08,0,0,0-.3-.4,1.26,1.26,0,0,0-.44-.25,1.67,1.67,0,0,0-.55-.08,1.84,1.84,0,0,0-.6.1,2.58,2.58,0,0,0-.56.25l.06-2.95h3Z"/><path d="M209.45,35.68a7,7,0,0,1,.08-1,3.1,3.1,0,0,1,.29-1,2,2,0,0,1,.59-.71,1.6,1.6,0,0,1,1-.27,1.55,1.55,0,0,1,.95.27,1.94,1.94,0,0,1,.59.71,2.86,2.86,0,0,1,.3,1,7,7,0,0,1,.08,1,7.07,7.07,0,0,1-.08,1,2.88,2.88,0,0,1-.3.94,1.94,1.94,0,0,1-.59.71,1.55,1.55,0,0,1-.95.27,1.6,1.6,0,0,1-1-.27,2,2,0,0,1-.59-.71,3.13,3.13,0,0,1-.29-.94A7.07,7.07,0,0,1,209.45,35.68Zm.67,0c0,.13,0,.29,0,.46a4.88,4.88,0,0,0,.06.52,4.05,4.05,0,0,0,.12.5,1.66,1.66,0,0,0,.23.44,1,1,0,0,0,.34.31.9.9,0,0,0,.48.12,1,1,0,0,0,.48-.12,1.24,1.24,0,0,0,.34-.31,1.4,1.4,0,0,0,.22-.44,2.83,2.83,0,0,0,.13-.5,4.88,4.88,0,0,0,.06-.52c0-.17,0-.33,0-.46s0-.3,0-.47a4.43,4.43,0,0,0-.06-.51,2.72,2.72,0,0,0-.13-.51,1.51,1.51,0,0,0-.22-.44,1.24,1.24,0,0,0-.34-.31,1,1,0,0,0-.48-.12.9.9,0,0,0-.48.12,1,1,0,0,0-.34.31,1.83,1.83,0,0,0-.23.44,3.81,3.81,0,0,0-.12.51,4.43,4.43,0,0,0-.06.51C210.13,35.38,210.12,35.54,210.12,35.68Z"/><path d="M214.05,33.89a1.15,1.15,0,0,1,.33-.81,1,1,0,0,1,.37-.24,1,1,0,0,1,.44-.09,1.13,1.13,0,0,1,.45.09,1,1,0,0,1,.36.24,1,1,0,0,1,.25.36,1.17,1.17,0,0,1,0,.9,1.23,1.23,0,0,1-.61.61,1.13,1.13,0,0,1-.45.09,1.15,1.15,0,0,1-.81-.34,1.15,1.15,0,0,1-.33-.81Zm.43,0a.79.79,0,0,0,.05.25,1.14,1.14,0,0,0,.15.23.62.62,0,0,0,.22.17.72.72,0,0,0,.29.06.68.68,0,0,0,.52-.23.79.79,0,0,0,.14-.23.65.65,0,0,0,0-.5.79.79,0,0,0-.14-.23.81.81,0,0,0-.23-.17.65.65,0,0,0-.29-.06.72.72,0,0,0-.29.06.76.76,0,0,0-.22.17,1.14,1.14,0,0,0-.15.23A.79.79,0,0,0,214.48,33.89Z"/><path d="M93.61,38.51h-.67v-4.8h0l-1,.85-.4-.48L93,32.84h.58Z"/><path d="M98.92,33.47H96.61l0,1.53a1,1,0,0,1,.35-.11l.37,0a1.91,1.91,0,0,1,.74.14,1.65,1.65,0,0,1,.58.39A1.71,1.71,0,0,1,99,36a2,2,0,0,1,.13.74,2,2,0,0,1-.15.78,1.71,1.71,0,0,1-.4.59,2,2,0,0,1-.62.38,2.15,2.15,0,0,1-.77.13,1.78,1.78,0,0,1-1.05-.28,1.85,1.85,0,0,1-.62-.75l.67-.25a1.16,1.16,0,0,0,.42.51,1.05,1.05,0,0,0,.63.2,1.28,1.28,0,0,0,.48-.09,1.23,1.23,0,0,0,.64-.68,1.33,1.33,0,0,0,.1-.54,1.38,1.38,0,0,0-.11-.55,1.18,1.18,0,0,0-.29-.4,1.41,1.41,0,0,0-.45-.25,1.63,1.63,0,0,0-.55-.08,1.78,1.78,0,0,0-.59.1,2.58,2.58,0,0,0-.56.25l0-2.95h3Z"/><path d="M99.88,35.68a7,7,0,0,1,.08-1,3.11,3.11,0,0,1,.3-1,1.94,1.94,0,0,1,.59-.71,1.55,1.55,0,0,1,1-.27,1.6,1.6,0,0,1,1,.27,2,2,0,0,1,.59.71,3.1,3.1,0,0,1,.29,1,5.77,5.77,0,0,1,.08,1,5.85,5.85,0,0,1-.08,1,3.13,3.13,0,0,1-.29.94,2,2,0,0,1-.59.71,1.6,1.6,0,0,1-1,.27,1.55,1.55,0,0,1-1-.27,1.94,1.94,0,0,1-.59-.71,3.14,3.14,0,0,1-.3-.94A7.07,7.07,0,0,1,99.88,35.68Zm.67,0c0,.13,0,.29,0,.46a4.88,4.88,0,0,0,.06.52,2.83,2.83,0,0,0,.13.5,1.4,1.4,0,0,0,.22.44,1.24,1.24,0,0,0,.34.31,1,1,0,0,0,.48.12.9.9,0,0,0,.48-.12,1,1,0,0,0,.34-.31,1.41,1.41,0,0,0,.23-.44,4.05,4.05,0,0,0,.12-.5,4.88,4.88,0,0,0,.06-.52c0-.17,0-.33,0-.46s0-.3,0-.47a4.43,4.43,0,0,0-.06-.51,3.81,3.81,0,0,0-.12-.51,1.53,1.53,0,0,0-.23-.44,1,1,0,0,0-.34-.31.9.9,0,0,0-.48-.12,1,1,0,0,0-.48.12,1.24,1.24,0,0,0-.34.31,1.51,1.51,0,0,0-.22.44,2.72,2.72,0,0,0-.13.51,4.43,4.43,0,0,0-.06.51C100.56,35.38,100.55,35.54,100.55,35.68Z"/><path d="M104.48,33.89a1.15,1.15,0,0,1,1.15-1.14,1,1,0,0,1,.44.09,1.12,1.12,0,0,1,.37.24,1.16,1.16,0,0,1,0,1.62,1.15,1.15,0,0,1-.37.25,1,1,0,0,1-.44.09,1.13,1.13,0,0,1-.45-.09,1.15,1.15,0,0,1-.37-.25,1.15,1.15,0,0,1-.33-.81Zm.43,0a.61.61,0,0,0,.06.25.79.79,0,0,0,.14.23.72.72,0,0,0,.22.17.73.73,0,0,0,.3.06.72.72,0,0,0,.29-.06.62.62,0,0,0,.22-.17,1.14,1.14,0,0,0,.15-.23.65.65,0,0,0,0-.5,1.14,1.14,0,0,0-.15-.23.76.76,0,0,0-.22-.17.72.72,0,0,0-.29-.06.73.73,0,0,0-.3.06.92.92,0,0,0-.22.17.79.79,0,0,0-.14.23A.61.61,0,0,0,104.91,33.89Z"/><path d="M248.75,192.45v0a1.35,1.35,0,0,1,.37-.13,2,2,0,0,1,.39,0,1.73,1.73,0,0,1,.69.13,1.42,1.42,0,0,1,.54.36,1.85,1.85,0,0,1,.36.57,2,2,0,0,1,.12.72,1.78,1.78,0,0,1-.14.74,1.74,1.74,0,0,1-.4.56,2,2,0,0,1-.6.35,2.36,2.36,0,0,1-.75.12,2.27,2.27,0,0,1-.75-.12,2,2,0,0,1-.6-.35,1.6,1.6,0,0,1-.4-.56,1.78,1.78,0,0,1-.15-.74,2.24,2.24,0,0,1,.15-.86,5.28,5.28,0,0,1,.39-.74l1.5-2.39h.79Zm.59.43a1.23,1.23,0,0,0-.87.32,1,1,0,0,0-.26.38,1.31,1.31,0,0,0-.1.5,1.35,1.35,0,0,0,.1.5,1.08,1.08,0,0,0,.26.37,1,1,0,0,0,.39.24,1.32,1.32,0,0,0,1,0,1,1,0,0,0,.39-.24,1.23,1.23,0,0,0,.26-.37,1.35,1.35,0,0,0,.09-.5,1.31,1.31,0,0,0-.09-.5,1.16,1.16,0,0,0-.26-.38,1.23,1.23,0,0,0-.87-.32Z"/><path d="M251.82,192.92a7.07,7.07,0,0,1,.08-1,3.13,3.13,0,0,1,.29-.94,2,2,0,0,1,.59-.71,1.6,1.6,0,0,1,1-.27,1.55,1.55,0,0,1,.95.27,1.94,1.94,0,0,1,.59.71,2.88,2.88,0,0,1,.3.94,7.07,7.07,0,0,1,.08,1,7,7,0,0,1-.08,1,2.86,2.86,0,0,1-.3,1,1.94,1.94,0,0,1-.59.71,1.55,1.55,0,0,1-.95.27,1.6,1.6,0,0,1-1-.27,2,2,0,0,1-.59-.71,3.1,3.1,0,0,1-.29-1A7,7,0,0,1,251.82,192.92Zm.67,0c0,.14,0,.3,0,.47a4.43,4.43,0,0,0,.06.51,3.81,3.81,0,0,0,.12.51,1.83,1.83,0,0,0,.23.44,1,1,0,0,0,.34.31.9.9,0,0,0,.48.12,1,1,0,0,0,.48-.12,1.24,1.24,0,0,0,.34-.31,1.51,1.51,0,0,0,.22-.44,2.72,2.72,0,0,0,.13-.51,4.43,4.43,0,0,0,.06-.51c0-.17,0-.33,0-.47s0-.29,0-.46a4.88,4.88,0,0,0-.06-.52,2.83,2.83,0,0,0-.13-.5,1.4,1.4,0,0,0-.22-.44,1.1,1.1,0,0,0-.34-.31,1,1,0,0,0-.48-.12.9.9,0,0,0-.48.12.92.92,0,0,0-.34.31,1.66,1.66,0,0,0-.23.44,4.05,4.05,0,0,0-.12.5,4.88,4.88,0,0,0-.06.52C252.5,192.63,252.49,192.79,252.49,192.92Z"/><path d="M256.42,191.14a1.15,1.15,0,0,1,.33-.81,1.05,1.05,0,0,1,.37-.25,1.23,1.23,0,0,1,.44-.08,1.33,1.33,0,0,1,.45.08,1.15,1.15,0,0,1,.37.25,1.16,1.16,0,0,1,0,1.62,1.15,1.15,0,0,1-.37.25,1.33,1.33,0,0,1-.45.08,1.23,1.23,0,0,1-.44-.08,1.05,1.05,0,0,1-.37-.25,1.15,1.15,0,0,1-.33-.81Zm.43,0a.79.79,0,0,0,0,.25,1.14,1.14,0,0,0,.15.23.62.62,0,0,0,.22.17.72.72,0,0,0,.29.06.68.68,0,0,0,.52-.23.79.79,0,0,0,.14-.23.65.65,0,0,0,0-.5.79.79,0,0,0-.14-.23.68.68,0,0,0-.52-.23.72.72,0,0,0-.29.06.62.62,0,0,0-.22.17,1.14,1.14,0,0,0-.15.23A.79.79,0,0,0,256.85,191.14Z"/><path d="M250,81.22h-.67v-4.8h0l-1,.86-.4-.49,1.52-1.23H250Z"/><path d="M251.92,80.45l2.13-2.08c.13-.12.25-.24.35-.35a2.16,2.16,0,0,0,.25-.32,1.09,1.09,0,0,0,.15-.33,1.38,1.38,0,0,0,0-.37,1,1,0,0,0-.08-.4.84.84,0,0,0-.22-.3.78.78,0,0,0-.33-.19,1.05,1.05,0,0,0-.4-.07,1,1,0,0,0-.71.25,1.08,1.08,0,0,0-.36.65l-.73-.06a1.83,1.83,0,0,1,.21-.61,1.41,1.41,0,0,1,.39-.45,2,2,0,0,1,.53-.27,2.25,2.25,0,0,1,.64-.09,2.41,2.41,0,0,1,.67.1,1.92,1.92,0,0,1,.55.29,1.44,1.44,0,0,1,.51,1.15,2,2,0,0,1-.09.61,2,2,0,0,1-.25.5,3.47,3.47,0,0,1-.35.43l-.41.4-1.75,1.64v0h2.89v.62h-3.64Z"/><path d="M256.27,78.39a5.85,5.85,0,0,1,.08-1,3.19,3.19,0,0,1,.29-1,2,2,0,0,1,.59-.7,1.54,1.54,0,0,1,1-.28,1.51,1.51,0,0,1,.95.28,1.91,1.91,0,0,1,.59.7,3.2,3.2,0,0,1,.3,1,6.29,6.29,0,0,1,0,2,3.2,3.2,0,0,1-.3,1,1.91,1.91,0,0,1-.59.7,1.51,1.51,0,0,1-.95.28,1.54,1.54,0,0,1-1-.28,2,2,0,0,1-.59-.7,3.19,3.19,0,0,1-.29-1A5.85,5.85,0,0,1,256.27,78.39Zm.67,0a3.78,3.78,0,0,0,0,.46c0,.17,0,.35.05.52a4.77,4.77,0,0,0,.13.51,1.67,1.67,0,0,0,.23.44,1,1,0,0,0,.34.31,1,1,0,0,0,.48.11,1.06,1.06,0,0,0,.48-.11,1.24,1.24,0,0,0,.34-.31,2,2,0,0,0,.22-.44,3.18,3.18,0,0,0,.13-.51,4.6,4.6,0,0,0,.06-.52c0-.17,0-.32,0-.46s0-.29,0-.46a4.35,4.35,0,0,0-.06-.52,3.18,3.18,0,0,0-.13-.51,2,2,0,0,0-.22-.44,1.24,1.24,0,0,0-.34-.31,1.06,1.06,0,0,0-.48-.11,1,1,0,0,0-.48.11,1,1,0,0,0-.34.31,1.67,1.67,0,0,0-.23.44,4.77,4.77,0,0,0-.13.51c0,.17,0,.34-.05.52A3.78,3.78,0,0,0,256.94,78.39Z"/><path d="M260.87,76.61a1.13,1.13,0,0,1,.09-.45,1,1,0,0,1,.24-.37,1.16,1.16,0,0,1,1.62,0,1.15,1.15,0,0,1,.25.37,1.13,1.13,0,0,1,.09.45,1,1,0,0,1-.09.44,1.15,1.15,0,0,1-.25.37,1.16,1.16,0,0,1-1.62,0,1,1,0,0,1-.24-.37A1,1,0,0,1,260.87,76.61Zm.43,0a.69.69,0,0,0,.05.24.75.75,0,0,0,.15.24.6.6,0,0,0,.22.16.64.64,0,0,0,.58,0,.63.63,0,0,0,.23-.16.72.72,0,0,0,.14-.24.52.52,0,0,0,.05-.24.56.56,0,0,0-.05-.25.59.59,0,0,0-.14-.23.66.66,0,0,0-.23-.17.64.64,0,0,0-.58,0,.62.62,0,0,0-.22.17.61.61,0,0,0-.15.23A.74.74,0,0,0,261.3,76.61Z"/><path d="M40.39,192.45v0a1.42,1.42,0,0,1,.38-.13,1.84,1.84,0,0,1,.39,0,1.72,1.72,0,0,1,.68.13,1.42,1.42,0,0,1,.54.36,1.85,1.85,0,0,1,.36.57,2,2,0,0,1,.13.72,1.78,1.78,0,0,1-.15.74,1.6,1.6,0,0,1-.4.56,2,2,0,0,1-.6.35,2.4,2.4,0,0,1-1.5,0,2,2,0,0,1-.6-.35,1.6,1.6,0,0,1-.4-.56,1.78,1.78,0,0,1-.15-.74,2.24,2.24,0,0,1,.16-.86,5.19,5.19,0,0,1,.38-.74l1.5-2.39h.79Zm.59.43a1.23,1.23,0,0,0-.87.32,1.16,1.16,0,0,0-.26.38,1.31,1.31,0,0,0-.09.5,1.35,1.35,0,0,0,.09.5,1.23,1.23,0,0,0,.26.37,1,1,0,0,0,.39.24,1.32,1.32,0,0,0,1,0,1,1,0,0,0,.39-.24,1.23,1.23,0,0,0,.26-.37,1.35,1.35,0,0,0,.1-.5,1.31,1.31,0,0,0-.1-.5,1.16,1.16,0,0,0-.26-.38,1.23,1.23,0,0,0-.87-.32Z"/><path d="M43.46,192.92a7.07,7.07,0,0,1,.08-1,2.88,2.88,0,0,1,.3-.94,1.94,1.94,0,0,1,.59-.71,1.55,1.55,0,0,1,1-.27,1.6,1.6,0,0,1,1,.27,2,2,0,0,1,.59.71,3.13,3.13,0,0,1,.29.94,7.07,7.07,0,0,1,.08,1,7,7,0,0,1-.08,1,3.1,3.1,0,0,1-.29,1,2,2,0,0,1-.59.71,1.6,1.6,0,0,1-1,.27,1.55,1.55,0,0,1-1-.27,1.94,1.94,0,0,1-.59-.71,2.86,2.86,0,0,1-.3-1A7,7,0,0,1,43.46,192.92Zm.67,0c0,.14,0,.3,0,.47a4.43,4.43,0,0,0,.06.51,2.72,2.72,0,0,0,.13.51,1.51,1.51,0,0,0,.22.44,1.12,1.12,0,0,0,.34.31,1,1,0,0,0,1,0,1.12,1.12,0,0,0,.34-.31,1.83,1.83,0,0,0,.23-.44,3.81,3.81,0,0,0,.12-.51,4.43,4.43,0,0,0,.06-.51c0-.17,0-.33,0-.47s0-.29,0-.46a4.88,4.88,0,0,0-.06-.52,4.05,4.05,0,0,0-.12-.5,1.66,1.66,0,0,0-.23-.44,1,1,0,0,0-.34-.31,1,1,0,0,0-1,0,1,1,0,0,0-.34.31,1.4,1.4,0,0,0-.22.44,2.83,2.83,0,0,0-.13.5,4.88,4.88,0,0,0-.06.52C44.14,192.63,44.13,192.79,44.13,192.92Z"/><path d="M48.06,191.14a1.15,1.15,0,0,1,.33-.81,1.15,1.15,0,0,1,.37-.25,1.33,1.33,0,0,1,.45-.08,1.27,1.27,0,0,1,.44.08,1.15,1.15,0,0,1,.37.25A1.16,1.16,0,0,1,50,192a1.15,1.15,0,0,1-.37.25,1.27,1.27,0,0,1-.44.08,1.33,1.33,0,0,1-.45-.08,1.15,1.15,0,0,1-.37-.25,1.15,1.15,0,0,1-.33-.81Zm.43,0a.61.61,0,0,0,.06.25.79.79,0,0,0,.14.23.72.72,0,0,0,.22.17.73.73,0,0,0,.3.06.72.72,0,0,0,.29-.06.62.62,0,0,0,.22-.17,1.14,1.14,0,0,0,.15-.23.65.65,0,0,0,0-.5,1.14,1.14,0,0,0-.15-.23.62.62,0,0,0-.22-.17.72.72,0,0,0-.29-.06.73.73,0,0,0-.3.06.72.72,0,0,0-.22.17.79.79,0,0,0-.14.23A.61.61,0,0,0,48.49,191.14Z"/><path d="M39.15,81.22h-.67v-4.8h0l-1,.86-.4-.49,1.52-1.23h.58Z"/><path d="M41.07,80.45l2.14-2.08c.13-.12.25-.24.35-.35a2.16,2.16,0,0,0,.25-.32,1.09,1.09,0,0,0,.15-.33A1.38,1.38,0,0,0,44,77a1,1,0,0,0-.08-.4.84.84,0,0,0-.22-.3.78.78,0,0,0-.33-.19A1.05,1.05,0,0,0,43,76a1,1,0,0,0-.72.25,1.19,1.19,0,0,0-.36.65l-.72-.06a1.47,1.47,0,0,1,.21-.61,1.41,1.41,0,0,1,.39-.45,2,2,0,0,1,.53-.27,2.2,2.2,0,0,1,.64-.09,2.41,2.41,0,0,1,.67.1,2.06,2.06,0,0,1,.55.29,1.47,1.47,0,0,1,.37.48,1.6,1.6,0,0,1,.14.67,2,2,0,0,1-.09.61,2.34,2.34,0,0,1-.25.5,3.47,3.47,0,0,1-.35.43l-.41.4-1.75,1.64v0h2.89v.62H41.07Z"/><path d="M45.43,78.39a7,7,0,0,1,.07-1,3.52,3.52,0,0,1,.3-1,2,2,0,0,1,.59-.7,1.77,1.77,0,0,1,1.91,0,1.91,1.91,0,0,1,.59.7,3.52,3.52,0,0,1,.3,1,6.29,6.29,0,0,1,0,2,3.52,3.52,0,0,1-.3,1,1.91,1.91,0,0,1-.59.7,1.77,1.77,0,0,1-1.91,0,2,2,0,0,1-.59-.7,3.52,3.52,0,0,1-.3-1A7,7,0,0,1,45.43,78.39Zm.67,0c0,.14,0,.29,0,.46a4.6,4.6,0,0,0,.06.52,4.77,4.77,0,0,0,.13.51,2,2,0,0,0,.22.44,1.15,1.15,0,0,0,.35.31,1,1,0,0,0,.48.11,1.06,1.06,0,0,0,.48-.11,1.24,1.24,0,0,0,.34-.31,2,2,0,0,0,.22-.44,3.18,3.18,0,0,0,.13-.51,4.6,4.6,0,0,0,.06-.52c0-.17,0-.32,0-.46s0-.29,0-.46a4.35,4.35,0,0,0-.06-.52,3.18,3.18,0,0,0-.13-.51,2,2,0,0,0-.22-.44,1.24,1.24,0,0,0-.34-.31,1.06,1.06,0,0,0-.48-.11,1,1,0,0,0-.48.11,1.15,1.15,0,0,0-.35.31,2,2,0,0,0-.22.44,4.77,4.77,0,0,0-.13.51,4.35,4.35,0,0,0-.06.52C46.1,78.1,46.1,78.25,46.1,78.39Z"/><path d="M50,76.61a1.12,1.12,0,0,1,.08-.45,1.15,1.15,0,0,1,.25-.37,1.16,1.16,0,0,1,1.62,0,1.15,1.15,0,0,1,.25.37,1.33,1.33,0,0,1,.08.45,1.23,1.23,0,0,1-.08.44,1.15,1.15,0,0,1-.25.37,1.16,1.16,0,0,1-1.62,0,1.15,1.15,0,0,1-.25-.37A1,1,0,0,1,50,76.61Zm.43,0a.52.52,0,0,0,0,.24.72.72,0,0,0,.14.24.63.63,0,0,0,.23.16.64.64,0,0,0,.58,0,.73.73,0,0,0,.23-.16,1,1,0,0,0,.14-.24.69.69,0,0,0,.05-.24.75.75,0,0,0-.19-.48.76.76,0,0,0-.23-.17.64.64,0,0,0-.58,0,.66.66,0,0,0-.23.17.59.59,0,0,0-.14.23A.56.56,0,0,0,50.46,76.61Z"/></g><g id="numeri_fondo_tabella" data-name="numeri fondo tabella"><path d="M131.83,251.42a1.17,1.17,0,0,0-.43-.35,1.19,1.19,0,0,0-.51-.11,1.35,1.35,0,0,0-.55.11,1.08,1.08,0,0,0-.4.3,1.32,1.32,0,0,0-.23.44,1.76,1.76,0,0,0,0,1.08,1.43,1.43,0,0,0,.26.45,1.31,1.31,0,0,0,.39.3,1.27,1.27,0,0,0,.52.1,1.09,1.09,0,0,0,1-.46l.47.44a1.69,1.69,0,0,1-.64.46,2.29,2.29,0,0,1-.78.14,2.22,2.22,0,0,1-.79-.14,1.75,1.75,0,0,1-1-1,2.27,2.27,0,0,1,0-1.57,1.86,1.86,0,0,1,.39-.63,2,2,0,0,1,.61-.41,2,2,0,0,1,.79-.15,2.09,2.09,0,0,1,.79.15,1.59,1.59,0,0,1,.65.45Z"/><path d="M136.21,253.56h0a1.43,1.43,0,0,1-.55.54,1.7,1.7,0,0,1-.89.22,1.8,1.8,0,0,1-.73-.15,1.78,1.78,0,0,1-.6-.41,1.81,1.81,0,0,1-.39-.62,2.06,2.06,0,0,1-.15-.79,2,2,0,0,1,.15-.78,1.88,1.88,0,0,1,.4-.63,1.81,1.81,0,0,1,.62-.41,2.07,2.07,0,0,1,.8-.15,1.72,1.72,0,0,1,.75.17,1.78,1.78,0,0,1,.59.47h0v-2.84h.62v6h-.62Zm0-1.21a1.63,1.63,0,0,0-.09-.55,1.34,1.34,0,0,0-.27-.44,1.37,1.37,0,0,0-.42-.29,1.35,1.35,0,0,0-.55-.11,1.42,1.42,0,0,0-.55.11,1.22,1.22,0,0,0-.41.29,1.34,1.34,0,0,0-.27.44,1.56,1.56,0,0,0,0,1.1,1.25,1.25,0,0,0,.27.44,1.19,1.19,0,0,0,1,.4,1.35,1.35,0,0,0,.55-.1,1.6,1.6,0,0,0,.42-.3,1.25,1.25,0,0,0,.27-.44A1.63,1.63,0,0,0,136.21,252.35Z"/><path d="M140.1,254.57l-.5-.2,2.4-6.15.51.2Z"/><path d="M147.64,254.22H147v-4.8h0l-1,.86-.4-.49,1.52-1.23h.59Z"/><path d="M149.46,251.39a7.07,7.07,0,0,1,.08-1,3.19,3.19,0,0,1,.29-.95,2,2,0,0,1,.59-.7,1.61,1.61,0,0,1,1-.28,1.55,1.55,0,0,1,1,.28,1.91,1.91,0,0,1,.59.7,2.94,2.94,0,0,1,.3.95,6.29,6.29,0,0,1,0,2,2.94,2.94,0,0,1-.3,1,1.91,1.91,0,0,1-.59.7,1.49,1.49,0,0,1-1,.28,1.54,1.54,0,0,1-1-.28,2,2,0,0,1-.59-.7,3.19,3.19,0,0,1-.29-1A7.07,7.07,0,0,1,149.46,251.39Zm.67,0c0,.14,0,.29,0,.47a4.43,4.43,0,0,0,.06.51,4.7,4.7,0,0,0,.12.51,2,2,0,0,0,.23.44,1.12,1.12,0,0,0,.34.31,1.1,1.1,0,0,0,1,0,1.12,1.12,0,0,0,.34-.31,1.65,1.65,0,0,0,.22-.44,3.18,3.18,0,0,0,.13-.51,4.43,4.43,0,0,0,.06-.51c0-.18,0-.33,0-.47s0-.29,0-.46a4.6,4.6,0,0,0-.06-.52,3.18,3.18,0,0,0-.13-.51,1.65,1.65,0,0,0-.22-.44,1.08,1.08,0,0,0-.34-.3,1,1,0,0,0-1,0,1.08,1.08,0,0,0-.34.3,2,2,0,0,0-.23.44,4.7,4.7,0,0,0-.12.51,4.6,4.6,0,0,0-.06.52C150.14,251.1,150.13,251.25,150.13,251.39Z"/><path d="M153.91,251.39a5.85,5.85,0,0,1,.08-1,3.19,3.19,0,0,1,.29-.95,2,2,0,0,1,.59-.7,1.61,1.61,0,0,1,1-.28,1.55,1.55,0,0,1,.95.28,1.91,1.91,0,0,1,.59.7,3.2,3.2,0,0,1,.3.95,6.29,6.29,0,0,1,0,2,3.2,3.2,0,0,1-.3,1,1.91,1.91,0,0,1-.59.7,1.49,1.49,0,0,1-.95.28,1.54,1.54,0,0,1-1-.28,2,2,0,0,1-.59-.7,3.19,3.19,0,0,1-.29-1A5.85,5.85,0,0,1,153.91,251.39Zm.67,0a4,4,0,0,0,0,.47,4.43,4.43,0,0,0,.06.51,3.14,3.14,0,0,0,.12.51,1.67,1.67,0,0,0,.23.44,1,1,0,0,0,.34.31.9.9,0,0,0,.48.11,1,1,0,0,0,.48-.11,1.24,1.24,0,0,0,.34-.31,1.65,1.65,0,0,0,.22-.44,3.18,3.18,0,0,0,.13-.51,4.43,4.43,0,0,0,.06-.51c0-.18,0-.33,0-.47s0-.29,0-.46a4.6,4.6,0,0,0-.06-.52,3.18,3.18,0,0,0-.13-.51,1.65,1.65,0,0,0-.22-.44,1.21,1.21,0,0,0-.34-.3,1,1,0,0,0-.48-.12.9.9,0,0,0-.48.12,1,1,0,0,0-.34.3,1.67,1.67,0,0,0-.23.44,3.14,3.14,0,0,0-.12.51,4.6,4.6,0,0,0-.06.52A3.78,3.78,0,0,0,154.58,251.39Z"/><path d="M158.31,251.39a5.85,5.85,0,0,1,.08-1,3.19,3.19,0,0,1,.29-.95,2,2,0,0,1,.59-.7,1.61,1.61,0,0,1,1-.28,1.55,1.55,0,0,1,1,.28,1.91,1.91,0,0,1,.59.7,3.2,3.2,0,0,1,.3.95,6.29,6.29,0,0,1,0,2,3.2,3.2,0,0,1-.3,1,1.91,1.91,0,0,1-.59.7,1.49,1.49,0,0,1-1,.28,1.54,1.54,0,0,1-1-.28,2,2,0,0,1-.59-.7,3.19,3.19,0,0,1-.29-1A5.85,5.85,0,0,1,158.31,251.39Zm.67,0c0,.14,0,.29,0,.47a4.43,4.43,0,0,0,.06.51,3.14,3.14,0,0,0,.12.51,1.67,1.67,0,0,0,.23.44,1,1,0,0,0,.34.31.9.9,0,0,0,.48.11,1,1,0,0,0,.48-.11,1.24,1.24,0,0,0,.34-.31,1.65,1.65,0,0,0,.22-.44,3.18,3.18,0,0,0,.13-.51,4.43,4.43,0,0,0,.06-.51c0-.18,0-.33,0-.47s0-.29,0-.46a4.6,4.6,0,0,0-.06-.52,3.18,3.18,0,0,0-.13-.51,1.65,1.65,0,0,0-.22-.44,1.21,1.21,0,0,0-.34-.3,1,1,0,0,0-.48-.12.9.9,0,0,0-.48.12,1,1,0,0,0-.34.3,1.67,1.67,0,0,0-.23.44,3.14,3.14,0,0,0-.12.51,4.6,4.6,0,0,0-.06.52C159,251.1,159,251.25,159,251.39Z"/><path d="M165.32,248.18H166v6h-.63Z"/><path d="M167.19,251.37c0-.17,0-.33,0-.48s0-.29,0-.41h.59c0,.1,0,.2,0,.3v.32h0a.91.91,0,0,1,.18-.27,1.64,1.64,0,0,1,.28-.23,1.5,1.5,0,0,1,.36-.16,1.44,1.44,0,0,1,.43-.06,1.52,1.52,0,0,1,.51.08,1.36,1.36,0,0,1,.34.18.93.93,0,0,1,.21.24,1.64,1.64,0,0,1,.12.22,1.78,1.78,0,0,1,.48-.53,1.27,1.27,0,0,1,.71-.19,1.88,1.88,0,0,1,.67.11,1.1,1.1,0,0,1,.44.31,1.37,1.37,0,0,1,.24.5,2.59,2.59,0,0,1,.07.65v2.27h-.62V252a2.33,2.33,0,0,0,0-.37,1,1,0,0,0-.15-.33.71.71,0,0,0-.28-.23,1,1,0,0,0-.45-.09,1,1,0,0,0-.37.08,1,1,0,0,0-.31.22,1.13,1.13,0,0,0-.21.35,1.33,1.33,0,0,0-.07.45v2.16h-.63V252.1a1.62,1.62,0,0,0-.17-.88A.6.6,0,0,0,169,251a1.18,1.18,0,0,0-.52.1.88.88,0,0,0-.36.3,1.14,1.14,0,0,0-.21.46,2.1,2.1,0,0,0-.07.58v1.82h-.62Z"/><line class="cls-1" x1="38.21" y1="253" x2="46.2" y2="253"/><path d="M235.17,251a1.66,1.66,0,0,0-.63-.52,1.93,1.93,0,0,0-.79-.17,2.13,2.13,0,0,0-.87.19,2.16,2.16,0,0,0-.68.52,2.58,2.58,0,0,0-.45.75,2.69,2.69,0,0,0-.16.89,2.79,2.79,0,0,0,.16.93,2.41,2.41,0,0,0,.45.74,2,2,0,0,0,.68.5,1.92,1.92,0,0,0,.87.19,2,2,0,0,0,1.64-.8l.51.43a2.38,2.38,0,0,1-.93.75,3,3,0,0,1-1.22.24,2.85,2.85,0,0,1-1.13-.22,2.82,2.82,0,0,1-.92-.62,3,3,0,0,1-.61-.94,3.33,3.33,0,0,1-.22-1.2,3.19,3.19,0,0,1,.21-1.16,2.9,2.9,0,0,1,.6-1,3.08,3.08,0,0,1,.91-.63,3,3,0,0,1,2.27,0,2,2,0,0,1,.89.68Z"/><path d="M239,253.1l0,0a1.35,1.35,0,0,1-.37.13,2.87,2.87,0,0,1-.39,0,1.68,1.68,0,0,1-.68-.13,1.5,1.5,0,0,1-.55-.36,1.92,1.92,0,0,1-.36-.56,2.11,2.11,0,0,1-.12-.73,1.75,1.75,0,0,1,.14-.74,1.63,1.63,0,0,1,.4-.56,1.79,1.79,0,0,1,.6-.35,2.36,2.36,0,0,1,.75-.12,2.27,2.27,0,0,1,.75.12,1.94,1.94,0,0,1,.61.35,1.49,1.49,0,0,1,.39.56,1.75,1.75,0,0,1,.15.74,2.19,2.19,0,0,1,0,.46c0,.14-.07.27-.11.4a2.53,2.53,0,0,1-.18.37,3.35,3.35,0,0,1-.21.36l-1.5,2.4h-.79Zm-.6-.43a1.51,1.51,0,0,0,.48-.08,1.28,1.28,0,0,0,.39-.24,1.12,1.12,0,0,0,.26-.38,1.27,1.27,0,0,0,.1-.5,1.26,1.26,0,0,0-.1-.49,1,1,0,0,0-.26-.38,1,1,0,0,0-.39-.24,1.33,1.33,0,0,0-1,0,.88.88,0,0,0-.38.24,1.19,1.19,0,0,0-.27.38,1.26,1.26,0,0,0-.09.49,1.28,1.28,0,0,0,.09.5,1.31,1.31,0,0,0,.27.38,1.12,1.12,0,0,0,.38.24A1.51,1.51,0,0,0,238.35,252.67Z"/><path d="M240.88,252.62a7.07,7.07,0,0,1,.08-1,2.88,2.88,0,0,1,.3-.94,2,2,0,0,1,.58-.71,1.84,1.84,0,0,1,1.92,0,2,2,0,0,1,.58.71,2.88,2.88,0,0,1,.3.94,7.07,7.07,0,0,1,.08,1,7,7,0,0,1-.08,1,2.86,2.86,0,0,1-.3.95,2,2,0,0,1-.58.71,1.84,1.84,0,0,1-1.92,0,2,2,0,0,1-.58-.71,2.86,2.86,0,0,1-.3-.95A7,7,0,0,1,240.88,252.62Zm.67,0c0,.14,0,.3,0,.47a4.43,4.43,0,0,0,.06.51,2.72,2.72,0,0,0,.13.51,1.51,1.51,0,0,0,.22.44,1.12,1.12,0,0,0,.34.31,1,1,0,0,0,1,0,1.12,1.12,0,0,0,.34-.31,1.51,1.51,0,0,0,.22-.44,2.72,2.72,0,0,0,.13-.51,4.43,4.43,0,0,0,.06-.51c0-.17,0-.33,0-.47s0-.29,0-.46a4.88,4.88,0,0,0-.06-.52,2.83,2.83,0,0,0-.13-.5,1.4,1.4,0,0,0-.22-.44,1.12,1.12,0,0,0-.34-.31,1,1,0,0,0-1,0,1.12,1.12,0,0,0-.34.31,1.4,1.4,0,0,0-.22.44,2.83,2.83,0,0,0-.13.5,4.88,4.88,0,0,0-.06.52C241.56,252.33,241.55,252.49,241.55,252.62Z"/><path d="M247.78,255.8l-.51-.2,2.41-6.14.5.19Z"/><path d="M257.1,251a1.66,1.66,0,0,0-.63-.52,1.92,1.92,0,0,0-.78-.17,2.06,2.06,0,0,0-.87.19,2.16,2.16,0,0,0-.68.52,2.21,2.21,0,0,0-.45.75,2.46,2.46,0,0,0-.16.89,2.56,2.56,0,0,0,.16.93,2.2,2.2,0,0,0,.44.74,2.1,2.1,0,0,0,.68.5,2,2,0,0,0,.88.19,2,2,0,0,0,.93-.21,2,2,0,0,0,.71-.59l.5.43a2.29,2.29,0,0,1-.92.75,3,3,0,0,1-1.22.24,2.8,2.8,0,0,1-2.05-.84,2.82,2.82,0,0,1-.61-.94,3.13,3.13,0,0,1-.22-1.2,3.19,3.19,0,0,1,.21-1.16,2.75,2.75,0,0,1,.6-1,3,3,0,0,1,.91-.63,2.93,2.93,0,0,1,1.16-.23,3,3,0,0,1,1.11.21,2,2,0,0,1,.89.68Z"/><path d="M258.46,254.69l2.14-2.08.35-.36a1.75,1.75,0,0,0,.25-.32,1,1,0,0,0,.15-.32,1.46,1.46,0,0,0,0-.38,1,1,0,0,0-.08-.4.93.93,0,0,0-.22-.3,1.13,1.13,0,0,0-.73-.26,1,1,0,0,0-.71.25,1.11,1.11,0,0,0-.36.66l-.73-.07a1.91,1.91,0,0,1,.21-.61,1.28,1.28,0,0,1,.39-.44,1.77,1.77,0,0,1,.53-.27,2.25,2.25,0,0,1,.64-.09,2.09,2.09,0,0,1,.67.1,1.53,1.53,0,0,1,.55.29,1.47,1.47,0,0,1,.37.48,1.39,1.39,0,0,1,.14.66,1.91,1.91,0,0,1-.09.61,1.8,1.8,0,0,1-.25.5,2.86,2.86,0,0,1-.35.43l-.41.41-1.75,1.64h2.89v.63h-3.65Z"/><path d="M266.35,250.42l-2.26,5h-.76l2.3-5H262.9v-.63h3.45Z"/><path d="M267.26,252.62a7.07,7.07,0,0,1,.08-1,3.45,3.45,0,0,1,.3-.94,2,2,0,0,1,.59-.71,1.82,1.82,0,0,1,1.91,0,2,2,0,0,1,.59.71,3.45,3.45,0,0,1,.3.94,7,7,0,0,1,.07,1,6.92,6.92,0,0,1-.07,1,3.41,3.41,0,0,1-.3.95,2,2,0,0,1-.59.71,1.82,1.82,0,0,1-1.91,0,2,2,0,0,1-.59-.71,3.41,3.41,0,0,1-.3-.95A7,7,0,0,1,267.26,252.62Zm.68,0c0,.14,0,.3,0,.47a4.43,4.43,0,0,0,.06.51,2.72,2.72,0,0,0,.13.51,1.53,1.53,0,0,0,.23.44,1,1,0,0,0,.34.31.89.89,0,0,0,.47.12,1,1,0,0,0,.49-.12,1.08,1.08,0,0,0,.33-.31,1.53,1.53,0,0,0,.23-.44,2.72,2.72,0,0,0,.13-.51,4.43,4.43,0,0,0,.06-.51c0-.17,0-.33,0-.47s0-.29,0-.46a4.88,4.88,0,0,0-.06-.52,2.83,2.83,0,0,0-.13-.5,1.41,1.41,0,0,0-.23-.44,1.08,1.08,0,0,0-.33-.31,1,1,0,0,0-.49-.12.89.89,0,0,0-.47.12,1,1,0,0,0-.34.31,1.41,1.41,0,0,0-.23.44,2.83,2.83,0,0,0-.13.5,4.88,4.88,0,0,0-.06.52C267.94,252.33,267.94,252.49,267.94,252.62Z"/><path d="M52.87,251a1.55,1.55,0,0,0-.63-.51,1.82,1.82,0,0,0-.79-.18,2,2,0,0,0-.87.2,2.13,2.13,0,0,0-.68.51,2.58,2.58,0,0,0-.45.75,2.67,2.67,0,0,0,0,1.82,2.29,2.29,0,0,0,.45.74,1.88,1.88,0,0,0,.68.5,1.92,1.92,0,0,0,.87.19,2,2,0,0,0,.93-.21,2.07,2.07,0,0,0,.71-.58l.51.42a2.38,2.38,0,0,1-.93.75,3,3,0,0,1-1.22.24,2.85,2.85,0,0,1-1.13-.22,2.82,2.82,0,0,1-.92-.62,3,3,0,0,1-.61-.94,3.27,3.27,0,0,1-.22-1.19,3.2,3.2,0,0,1,.21-1.17,3,3,0,0,1,.6-.95,3.08,3.08,0,0,1,.91-.63,3,3,0,0,1,2.27,0,2,2,0,0,1,.89.68Z"/><path d="M54.13,252.62a7,7,0,0,1,.08-1,3.11,3.11,0,0,1,.3-1,1.94,1.94,0,0,1,.59-.71,1.55,1.55,0,0,1,.95-.27,1.6,1.6,0,0,1,1,.27,2,2,0,0,1,.59.71,3.1,3.1,0,0,1,.29,1,5.77,5.77,0,0,1,.08,1,5.85,5.85,0,0,1-.08,1,3.13,3.13,0,0,1-.29.94,2,2,0,0,1-.59.71,1.6,1.6,0,0,1-1,.27,1.55,1.55,0,0,1-.95-.27,1.94,1.94,0,0,1-.59-.71,3.14,3.14,0,0,1-.3-.94A7.07,7.07,0,0,1,54.13,252.62Zm.67,0c0,.13,0,.29,0,.46a4.88,4.88,0,0,0,.06.52,2.83,2.83,0,0,0,.13.5,1.4,1.4,0,0,0,.22.44,1.1,1.1,0,0,0,.34.31,1,1,0,0,0,.48.12.9.9,0,0,0,.48-.12.92.92,0,0,0,.34-.31,1.41,1.41,0,0,0,.23-.44,2.8,2.8,0,0,0,.12-.5,4.88,4.88,0,0,0,.06-.52,3.86,3.86,0,0,0,0-.46,3.94,3.94,0,0,0,0-.47,4.43,4.43,0,0,0-.06-.51,2.71,2.71,0,0,0-.12-.51,1.53,1.53,0,0,0-.23-.44,1,1,0,0,0-.34-.31.9.9,0,0,0-.48-.12,1,1,0,0,0-.48.12,1.24,1.24,0,0,0-.34.31,1.51,1.51,0,0,0-.22.44,2.72,2.72,0,0,0-.13.51,4.43,4.43,0,0,0-.06.51C54.81,252.32,54.8,252.48,54.8,252.62Z"/><path d="M61,255.79l-.51-.2,2.41-6.14.51.19Z"/><path d="M70.36,251a1.52,1.52,0,0,0-.64-.51,1.78,1.78,0,0,0-.78-.18,2,2,0,0,0-.87.2,2.13,2.13,0,0,0-.68.51,2.58,2.58,0,0,0-.45.75,2.51,2.51,0,0,0-.16.9,2.54,2.54,0,0,0,.16.92,2.46,2.46,0,0,0,.44.74,2.09,2.09,0,0,0,1.56.69,2,2,0,0,0,.93-.21,2.07,2.07,0,0,0,.71-.58l.5.42a2.29,2.29,0,0,1-.92.75,3,3,0,0,1-1.22.24,2.93,2.93,0,0,1-1.14-.22,2.88,2.88,0,0,1-.91-.62,3,3,0,0,1-.61-.94,3.07,3.07,0,0,1-.22-1.19,3.2,3.2,0,0,1,.21-1.17,2.84,2.84,0,0,1,.6-.95,3,3,0,0,1,.91-.63,2.93,2.93,0,0,1,1.16-.23,3,3,0,0,1,1.11.21,2,2,0,0,1,.89.68Z"/><path d="M74.2,255.45h-.68v-4.8h0l-1,.85-.4-.48,1.52-1.24h.59Z"/><path d="M76.37,251.17a1.33,1.33,0,0,1,.13-.61,1.2,1.2,0,0,1,.34-.46,1.44,1.44,0,0,1,.51-.3,1.92,1.92,0,0,1,1.28,0,1.44,1.44,0,0,1,.51.3,1.32,1.32,0,0,1,.34.46,1.48,1.48,0,0,1,.12.61,1.44,1.44,0,0,1-.06.4,1.41,1.41,0,0,1-.18.37,1.18,1.18,0,0,1-.3.29,1,1,0,0,1-.38.19h0a1.44,1.44,0,0,1,.46.19,1.35,1.35,0,0,1,.35.32,1.67,1.67,0,0,1,.23.44,1.7,1.7,0,0,1,.08.51,1.74,1.74,0,0,1-.14.69,1.46,1.46,0,0,1-.39.52,1.47,1.47,0,0,1-.57.33,2.35,2.35,0,0,1-1.42,0,1.59,1.59,0,0,1-.58-.33,1.43,1.43,0,0,1-.38-.52,1.74,1.74,0,0,1-.14-.69,1.7,1.7,0,0,1,.08-.51,1.65,1.65,0,0,1,.22-.44,1.59,1.59,0,0,1,.36-.32,1.44,1.44,0,0,1,.46-.19h0a1.18,1.18,0,0,1-.39-.19,1.33,1.33,0,0,1-.29-.29,1.41,1.41,0,0,1-.18-.37A1.16,1.16,0,0,1,76.37,251.17Zm.48,2.67a1.14,1.14,0,0,0,.09.46,1.21,1.21,0,0,0,.24.35,1.16,1.16,0,0,0,.36.23A1.13,1.13,0,0,0,78,255a1,1,0,0,0,.44-.09,1,1,0,0,0,.36-.23,1.07,1.07,0,0,0,.25-.35,1.36,1.36,0,0,0,0-.92,1.07,1.07,0,0,0-.25-.35,1,1,0,0,0-.36-.23,1,1,0,0,0-.44-.09,1.13,1.13,0,0,0-.45.09,1.16,1.16,0,0,0-.36.23,1.21,1.21,0,0,0-.24.35A1.14,1.14,0,0,0,76.85,253.84ZM77,251.2a.92.92,0,0,0,.26.67.93.93,0,0,0,.69.27.9.9,0,0,0,.68-.27,1,1,0,0,0,0-1.34.9.9,0,0,0-.68-.27.93.93,0,0,0-.69.27A.92.92,0,0,0,77,251.2Z"/><path d="M80.52,252.62a5.77,5.77,0,0,1,.08-1,3.1,3.1,0,0,1,.29-1,2,2,0,0,1,.59-.71,1.6,1.6,0,0,1,1-.27,1.55,1.55,0,0,1,1,.27,1.94,1.94,0,0,1,.59.71,3.41,3.41,0,0,1,.3,1,7,7,0,0,1,.08,1,7.07,7.07,0,0,1-.08,1,3.45,3.45,0,0,1-.3.94,1.94,1.94,0,0,1-.59.71,1.55,1.55,0,0,1-1,.27,1.6,1.6,0,0,1-1-.27,2,2,0,0,1-.59-.71,3.13,3.13,0,0,1-.29-.94A5.85,5.85,0,0,1,80.52,252.62Zm.67,0a3.86,3.86,0,0,0,0,.46c0,.17,0,.34.05.52a4.07,4.07,0,0,0,.13.5,1.41,1.41,0,0,0,.23.44.92.92,0,0,0,.34.31.9.9,0,0,0,.48.12,1,1,0,0,0,.48-.12,1.1,1.1,0,0,0,.34-.31,1.65,1.65,0,0,0,.22-.44,2.83,2.83,0,0,0,.13-.5,4.88,4.88,0,0,0,.06-.52c0-.17,0-.33,0-.46s0-.3,0-.47a4.43,4.43,0,0,0-.06-.51,2.72,2.72,0,0,0-.13-.51,1.81,1.81,0,0,0-.22-.44,1.24,1.24,0,0,0-.34-.31,1,1,0,0,0-.48-.12.9.9,0,0,0-.48.12,1,1,0,0,0-.34.31,1.53,1.53,0,0,0-.23.44,3.8,3.8,0,0,0-.13.51c0,.17,0,.34-.05.51A3.94,3.94,0,0,0,81.19,252.62Z"/><line class="cls-2" x1="214.49" y1="253.42" x2="215.03" y2="253.42"/><line class="cls-2" x1="217.76" y1="253.42" x2="218.3" y2="253.42"/><line class="cls-2" x1="221.02" y1="253.42" x2="221.56" y2="253.42"/><line class="cls-2" x1="224.29" y1="253.42" x2="224.83" y2="253.42"/><line class="cls-2" x1="227.55" y1="253.42" x2="228.09" y2="253.42"/></g><g id="Snoopy_Touch_F6380030"><path d="M54.55,12.09h4.39v.78H55.39v2.34h3.3V16h-3.3v3.18h-.84Z"/><path d="M61.27,15l0,0a2,2,0,0,1,.47-.16,3,3,0,0,1,.48-.05,2.39,2.39,0,0,1,.86.16,2,2,0,0,1,.68.46,1.94,1.94,0,0,1,.44.7,2.44,2.44,0,0,1,.16.9,2.27,2.27,0,0,1-.18.93,1.87,1.87,0,0,1-.5.7,2.32,2.32,0,0,1-.75.44,3,3,0,0,1-1.87,0,2.48,2.48,0,0,1-.76-.44,2,2,0,0,1-.5-.7,2.27,2.27,0,0,1-.18-.93A3,3,0,0,1,59.83,16a7.39,7.39,0,0,1,.48-.92l1.88-3h1Zm.74.53a1.73,1.73,0,0,0-.6.11,1.5,1.5,0,0,0-.48.3,1.43,1.43,0,0,0-.33.47,1.59,1.59,0,0,0-.12.62,1.57,1.57,0,0,0,.12.63,1.43,1.43,0,0,0,.33.47,1.5,1.5,0,0,0,.48.3,1.72,1.72,0,0,0,.6.1,1.64,1.64,0,0,0,.6-.1,1.44,1.44,0,0,0,.49-.3,1.4,1.4,0,0,0,.32-.47,1.57,1.57,0,0,0,.12-.63,1.59,1.59,0,0,0-.12-.62A1.4,1.4,0,0,0,63.1,16a1.44,1.44,0,0,0-.49-.3A1.64,1.64,0,0,0,62,15.57Z"/><path d="M66.83,15.09h.26a3.48,3.48,0,0,0,.55,0,1.33,1.33,0,0,0,.52-.17,1,1,0,0,0,.39-.37,1.25,1.25,0,0,0,.15-.65,1.11,1.11,0,0,0-.33-.85,1.24,1.24,0,0,0-.88-.32,1.51,1.51,0,0,0-.78.2,1.43,1.43,0,0,0-.52.59l-.81-.31a1.85,1.85,0,0,1,.82-.9,2.54,2.54,0,0,1,1.23-.3,2.74,2.74,0,0,1,.81.12,2,2,0,0,1,.67.35,1.62,1.62,0,0,1,.46.58,1.71,1.71,0,0,1,.17.8,1.65,1.65,0,0,1-.33,1,1.72,1.72,0,0,1-.88.61v0a1.92,1.92,0,0,1,.61.22,1.58,1.58,0,0,1,.45.4,1.44,1.44,0,0,1,.29.53,1.89,1.89,0,0,1,.1.63,1.91,1.91,0,0,1-.19.89,1.69,1.69,0,0,1-.51.64,2,2,0,0,1-.74.39,2.92,2.92,0,0,1-.9.13A2.68,2.68,0,0,1,66,18.94a2,2,0,0,1-.87-1.14l.85-.28a1.3,1.3,0,0,0,1.43,1.05,1.47,1.47,0,0,0,.56-.1,1.27,1.27,0,0,0,.46-.28,1.52,1.52,0,0,0,.31-.44,1.32,1.32,0,0,0,.11-.57,1.28,1.28,0,0,0-.15-.65,1.1,1.1,0,0,0-.41-.42,1.76,1.76,0,0,0-.58-.23,3.5,3.5,0,0,0-.65-.07h-.26Z"/><path d="M71.11,13.82a1.88,1.88,0,0,1,.16-.76,1.73,1.73,0,0,1,.42-.58,2,2,0,0,1,.64-.37,2.36,2.36,0,0,1,.8-.14,2.28,2.28,0,0,1,.8.14,1.92,1.92,0,0,1,.64.37,1.76,1.76,0,0,1,.43.58,1.87,1.87,0,0,1,.15.76,1.42,1.42,0,0,1-.08.5,1.53,1.53,0,0,1-.23.46,1.58,1.58,0,0,1-.36.37,1.23,1.23,0,0,1-.49.23v0a1.77,1.77,0,0,1,.58.24A1.54,1.54,0,0,1,75,16a1.68,1.68,0,0,1,.28.55,1.89,1.89,0,0,1,.1.63,2,2,0,0,1-.17.87,2.07,2.07,0,0,1-.48.65,2,2,0,0,1-.72.41,2.87,2.87,0,0,1-1.77,0,2,2,0,0,1-.72-.41,2.07,2.07,0,0,1-.48-.65,2.05,2.05,0,0,1-.18-.87,2.19,2.19,0,0,1,.1-.63,1.9,1.9,0,0,1,.28-.55,1.68,1.68,0,0,1,.44-.4,2,2,0,0,1,.58-.24v0a1.19,1.19,0,0,1-.48-.23,1.62,1.62,0,0,1-.37-.37,1.8,1.8,0,0,1-.23-.46A1.69,1.69,0,0,1,71.11,13.82Zm.6,3.34a1.48,1.48,0,0,0,.11.57,1.44,1.44,0,0,0,.31.45,1.51,1.51,0,0,0,.45.29,1.42,1.42,0,0,0,.55.1,1.47,1.47,0,0,0,.56-.1,1.51,1.51,0,0,0,.45-.29,1.27,1.27,0,0,0,.3-.45,1.32,1.32,0,0,0,.11-.57,1.38,1.38,0,0,0-.11-.57,1.23,1.23,0,0,0-.3-.44,1.34,1.34,0,0,0-.45-.29,1.47,1.47,0,0,0-.56-.11,1.42,1.42,0,0,0-.55.11,1.34,1.34,0,0,0-.45.29,1.4,1.4,0,0,0-.31.44A1.56,1.56,0,0,0,71.71,17.16Zm.24-3.3A1.13,1.13,0,0,0,73.13,15,1.15,1.15,0,0,0,74,14.7,1.26,1.26,0,0,0,74,13a1.27,1.27,0,0,0-1.71,0A1.14,1.14,0,0,0,72,13.86Z"/><path d="M76.29,15.63a9.26,9.26,0,0,1,.1-1.25,4,4,0,0,1,.37-1.18,2.44,2.44,0,0,1,.74-.88,2.22,2.22,0,0,1,2.39,0,2.41,2.41,0,0,1,.73.88A3.71,3.71,0,0,1,81,14.38a7.88,7.88,0,0,1,.1,1.25,7.79,7.79,0,0,1-.1,1.25,3.77,3.77,0,0,1-.37,1.19,2.5,2.5,0,0,1-.73.88,2.27,2.27,0,0,1-2.39,0,2.53,2.53,0,0,1-.74-.88,4,4,0,0,1-.37-1.19A9.14,9.14,0,0,1,76.29,15.63Zm.84,0c0,.18,0,.37,0,.58s0,.43.08.65a4.47,4.47,0,0,0,.16.63,1.9,1.9,0,0,0,.28.55,1.55,1.55,0,0,0,.42.39,1.27,1.27,0,0,0,.6.14,1.21,1.21,0,0,0,.6-.14,1.45,1.45,0,0,0,.43-.39,1.9,1.9,0,0,0,.28-.55,4.47,4.47,0,0,0,.16-.63,4.78,4.78,0,0,0,.07-.65c0-.21,0-.4,0-.58s0-.36,0-.58A4.79,4.79,0,0,0,80,13.77a2,2,0,0,0-.28-.55,1.3,1.3,0,0,0-.43-.38,1.11,1.11,0,0,0-.6-.15,1.16,1.16,0,0,0-.6.15,1.37,1.37,0,0,0-.42.38,2,2,0,0,0-.28.55,4.61,4.61,0,0,0-.16.64c0,.21-.06.43-.08.64S77.13,15.46,77.13,15.63Z"/><path d="M81.85,15.63a9.26,9.26,0,0,1,.1-1.25,4,4,0,0,1,.37-1.18,2.44,2.44,0,0,1,.74-.88,2.22,2.22,0,0,1,2.39,0,2.41,2.41,0,0,1,.73.88,3.71,3.71,0,0,1,.37,1.18,7.88,7.88,0,0,1,.1,1.25,7.79,7.79,0,0,1-.1,1.25,3.77,3.77,0,0,1-.37,1.19,2.5,2.5,0,0,1-.73.88,2.27,2.27,0,0,1-2.39,0,2.53,2.53,0,0,1-.74-.88A4,4,0,0,1,82,16.88,9.14,9.14,0,0,1,81.85,15.63Zm.84,0c0,.18,0,.37,0,.58s0,.43.08.65a4.47,4.47,0,0,0,.16.63,1.9,1.9,0,0,0,.28.55,1.55,1.55,0,0,0,.42.39,1.27,1.27,0,0,0,.6.14,1.21,1.21,0,0,0,.6-.14,1.45,1.45,0,0,0,.43-.39,1.9,1.9,0,0,0,.28-.55,4.47,4.47,0,0,0,.16-.63,4.78,4.78,0,0,0,.07-.65c0-.21,0-.4,0-.58s0-.36,0-.58a4.79,4.79,0,0,0-.23-1.28,2,2,0,0,0-.28-.55,1.3,1.3,0,0,0-.43-.38,1.11,1.11,0,0,0-.6-.15,1.16,1.16,0,0,0-.6.15,1.37,1.37,0,0,0-.42.38,2,2,0,0,0-.28.55,4.61,4.61,0,0,0-.16.64c0,.21-.06.43-.08.64S82.69,15.46,82.69,15.63Z"/><path d="M89.07,15.09h.26a3.48,3.48,0,0,0,.55,0,1.33,1.33,0,0,0,.52-.17,1,1,0,0,0,.39-.37,1.25,1.25,0,0,0,.15-.65,1.11,1.11,0,0,0-.33-.85,1.24,1.24,0,0,0-.88-.32,1.51,1.51,0,0,0-.78.2,1.43,1.43,0,0,0-.52.59l-.81-.31a1.85,1.85,0,0,1,.82-.9,2.54,2.54,0,0,1,1.23-.3,2.74,2.74,0,0,1,.81.12,2,2,0,0,1,.67.35,1.62,1.62,0,0,1,.46.58,1.71,1.71,0,0,1,.17.8,1.65,1.65,0,0,1-.33,1,1.72,1.72,0,0,1-.88.61v0a1.92,1.92,0,0,1,.61.22,1.58,1.58,0,0,1,.45.4,1.44,1.44,0,0,1,.29.53,1.89,1.89,0,0,1,.1.63,1.91,1.91,0,0,1-.19.89,1.69,1.69,0,0,1-.51.64,2,2,0,0,1-.74.39,2.92,2.92,0,0,1-.9.13,2.68,2.68,0,0,1-1.41-.35,2,2,0,0,1-.87-1.14l.85-.28a1.3,1.3,0,0,0,1.43,1.05,1.47,1.47,0,0,0,.56-.1,1.27,1.27,0,0,0,.46-.28,1.52,1.52,0,0,0,.31-.44,1.32,1.32,0,0,0,.11-.57,1.28,1.28,0,0,0-.15-.65,1.1,1.1,0,0,0-.41-.42,1.76,1.76,0,0,0-.58-.23,3.5,3.5,0,0,0-.65-.07h-.26Z"/><path d="M93,15.63a9.26,9.26,0,0,1,.1-1.25,4,4,0,0,1,.37-1.18,2.44,2.44,0,0,1,.74-.88,2.22,2.22,0,0,1,2.39,0,2.41,2.41,0,0,1,.73.88,3.71,3.71,0,0,1,.37,1.18,7.88,7.88,0,0,1,.1,1.25,7.79,7.79,0,0,1-.1,1.25,3.77,3.77,0,0,1-.37,1.19,2.5,2.5,0,0,1-.73.88,2.27,2.27,0,0,1-2.39,0,2.53,2.53,0,0,1-.74-.88,4,4,0,0,1-.37-1.19A9.14,9.14,0,0,1,93,15.63Zm.84,0c0,.18,0,.37,0,.58s0,.43.08.65a4.47,4.47,0,0,0,.16.63,1.9,1.9,0,0,0,.28.55,1.55,1.55,0,0,0,.42.39,1.27,1.27,0,0,0,.6.14,1.21,1.21,0,0,0,.6-.14A1.45,1.45,0,0,0,96.4,18a1.9,1.9,0,0,0,.28-.55,4.47,4.47,0,0,0,.16-.63,4.78,4.78,0,0,0,.07-.65c0-.21,0-.4,0-.58s0-.36,0-.58a4.79,4.79,0,0,0-.23-1.28,2,2,0,0,0-.28-.55,1.3,1.3,0,0,0-.43-.38,1.11,1.11,0,0,0-.6-.15,1.16,1.16,0,0,0-.6.15,1.37,1.37,0,0,0-.42.38,2,2,0,0,0-.28.55,4.61,4.61,0,0,0-.16.64c0,.21-.06.43-.08.64S93.81,15.46,93.81,15.63Z"/><path d="M98.15,19.92h5v.5h-5Z"/><path d="M106.75,19.17h-.84v-6h0l-1.27,1.07-.5-.61,1.9-1.54h.73Z"/><path d="M113.45,12.87h-2.89l0,1.91a1.67,1.67,0,0,1,.45-.13,2.53,2.53,0,0,1,.46,0,2.34,2.34,0,0,1,.93.18,2,2,0,0,1,.71.49,2,2,0,0,1,.46.74,2.71,2.71,0,0,1,0,1.89,2.13,2.13,0,0,1-.51.74,2.31,2.31,0,0,1-.77.47,2.57,2.57,0,0,1-1,.17,2.15,2.15,0,0,1-1.3-.35,2.44,2.44,0,0,1-.79-.94l.84-.32a1.61,1.61,0,0,0,.53.65,1.34,1.34,0,0,0,.79.24,1.64,1.64,0,0,0,.6-.11,1.58,1.58,0,0,0,.48-.33,1.62,1.62,0,0,0,.32-.52,1.78,1.78,0,0,0,.12-.67,1.67,1.67,0,0,0-.13-.69,1.34,1.34,0,0,0-.37-.5,1.53,1.53,0,0,0-.56-.31,2.17,2.17,0,0,0-.69-.11,2.22,2.22,0,0,0-.74.13,4,4,0,0,0-.7.31l.07-3.68h3.71Z"/><path d="M114.65,15.63a9.26,9.26,0,0,1,.1-1.25,4,4,0,0,1,.37-1.18,2.44,2.44,0,0,1,.74-.88,2.22,2.22,0,0,1,2.39,0,2.41,2.41,0,0,1,.73.88,3.71,3.71,0,0,1,.37,1.18,7.88,7.88,0,0,1,.1,1.25,7.79,7.79,0,0,1-.1,1.25,3.77,3.77,0,0,1-.37,1.19,2.5,2.5,0,0,1-.73.88,2.27,2.27,0,0,1-2.39,0,2.53,2.53,0,0,1-.74-.88,4,4,0,0,1-.37-1.19A9.14,9.14,0,0,1,114.65,15.63Zm.84,0c0,.18,0,.37,0,.58s0,.43.08.65a4.47,4.47,0,0,0,.16.63A1.9,1.9,0,0,0,116,18a1.55,1.55,0,0,0,.42.39,1.27,1.27,0,0,0,.6.14,1.21,1.21,0,0,0,.6-.14,1.45,1.45,0,0,0,.43-.39,1.9,1.9,0,0,0,.28-.55,4.47,4.47,0,0,0,.16-.63,4.78,4.78,0,0,0,.07-.65c0-.21,0-.4,0-.58s0-.36,0-.58a4.79,4.79,0,0,0-.23-1.28,2,2,0,0,0-.28-.55,1.3,1.3,0,0,0-.43-.38,1.11,1.11,0,0,0-.6-.15,1.16,1.16,0,0,0-.6.15,1.37,1.37,0,0,0-.42.38,2,2,0,0,0-.28.55,4.61,4.61,0,0,0-.16.64c0,.21-.06.43-.08.64S115.49,15.46,115.49,15.63Z"/><path d="M119.89,12.09h.93L122.43,18h0l1.74-5.88h.94L126.86,18h0l1.64-5.88h.88l-2.08,7.08h-.91l-1.75-6h0l-1.76,6H122Z"/><path d="M133.05,12.09h.84v3h3.78v-3h.84v7.08h-.84v-3.3h-3.78v3.3h-.84Z"/><path d="M140.34,12.09h.84v6.3h3.24v.78h-4.08Z"/><rect class="cls-3" x="54.92" y="41.91" width="189.86" height="189.86"/><circle class="cls-4" cx="149.85" cy="136.79" r="15.77" transform="translate(-19.98 25.77) rotate(-9.22)"/><path d="M151.9,160.84l2.14-2.08.35-.36a1.75,1.75,0,0,0,.25-.32,1,1,0,0,0,.15-.32,1.46,1.46,0,0,0,.05-.38,1.06,1.06,0,0,0-.08-.4,1.29,1.29,0,0,0-.22-.3,1.13,1.13,0,0,0-.73-.26,1.09,1.09,0,0,0-.72.25,1.26,1.26,0,0,0-.36.66l-.72-.07a1.58,1.58,0,0,1,.21-.61,1.38,1.38,0,0,1,.39-.44,1.66,1.66,0,0,1,.53-.27,2.2,2.2,0,0,1,.64-.09,2.09,2.09,0,0,1,.67.1,1.48,1.48,0,0,1,.54.29,1.37,1.37,0,0,1,.38.48,1.53,1.53,0,0,1,.14.66,1.91,1.91,0,0,1-.09.61,2.13,2.13,0,0,1-.25.5,2.86,2.86,0,0,1-.35.43c-.13.14-.27.28-.41.41L152.66,161h2.89v.63H151.9Z"/><path d="M156.21,158.78a5.77,5.77,0,0,1,.08-1,3.1,3.1,0,0,1,.29-.95,2,2,0,0,1,.59-.71,1.6,1.6,0,0,1,1-.27,1.57,1.57,0,0,1,1,.27,1.94,1.94,0,0,1,.59.71,3.41,3.41,0,0,1,.3.95,7,7,0,0,1,.08,1,7.07,7.07,0,0,1-.08,1,3.45,3.45,0,0,1-.3.94,1.94,1.94,0,0,1-.59.71,1.57,1.57,0,0,1-1,.27,1.6,1.6,0,0,1-1-.27,2,2,0,0,1-.59-.71,3.13,3.13,0,0,1-.29-.94A5.85,5.85,0,0,1,156.21,158.78Zm.67,0c0,.14,0,.29,0,.46s0,.34.06.52a4.07,4.07,0,0,0,.13.5,1.41,1.41,0,0,0,.23.44,1,1,0,0,0,.34.31.9.9,0,0,0,.48.12,1,1,0,0,0,.48-.12,1.24,1.24,0,0,0,.34-.31,1.65,1.65,0,0,0,.22-.44,2.83,2.83,0,0,0,.13-.5,4.88,4.88,0,0,0,.06-.52c0-.17,0-.32,0-.46s0-.3,0-.47a4.43,4.43,0,0,0-.06-.51,2.72,2.72,0,0,0-.13-.51,1.81,1.81,0,0,0-.22-.44,1.24,1.24,0,0,0-.34-.31,1,1,0,0,0-.48-.12.9.9,0,0,0-.48.12,1,1,0,0,0-.34.31,1.53,1.53,0,0,0-.23.44,3.8,3.8,0,0,0-.13.51c0,.17,0,.34-.06.51S156.88,158.64,156.88,158.78Z"/><circle class="cls-4" cx="149.85" cy="136.79" r="31.59" transform="translate(-25.13 34.09) rotate(-11.98)"/><path d="M154.85,175.51h.82v.62h-.82v1.3h-.67v-1.3h-2.4v-.74l2.25-3.62h.82Zm-.67-3h0l-1.81,3h1.82Z"/><path d="M156.21,174.6a5.77,5.77,0,0,1,.08-1,3.19,3.19,0,0,1,.29-.95,1.92,1.92,0,0,1,.59-.7,1.54,1.54,0,0,1,1-.28,1.51,1.51,0,0,1,1,.28,1.83,1.83,0,0,1,.59.7,3.52,3.52,0,0,1,.3.95,7,7,0,0,1,.08,1,7.07,7.07,0,0,1-.08,1,3.64,3.64,0,0,1-.3,1,1.91,1.91,0,0,1-.59.7,1.57,1.57,0,0,1-1,.28,1.61,1.61,0,0,1-1-.28,2,2,0,0,1-.59-.7,3.28,3.28,0,0,1-.29-1A5.85,5.85,0,0,1,156.21,174.6Zm.67,0c0,.14,0,.29,0,.46s0,.34.06.52a4.77,4.77,0,0,0,.13.51,1.67,1.67,0,0,0,.23.44,1,1,0,0,0,.34.3.9.9,0,0,0,.48.12,1,1,0,0,0,.48-.12,1.21,1.21,0,0,0,.34-.3,2,2,0,0,0,.22-.44,3.18,3.18,0,0,0,.13-.51,4.88,4.88,0,0,0,.06-.52c0-.17,0-.32,0-.46s0-.3,0-.47a4.43,4.43,0,0,0-.06-.51,2.93,2.93,0,0,0-.13-.51,1.81,1.81,0,0,0-.22-.44,1.24,1.24,0,0,0-.34-.31,1.06,1.06,0,0,0-.48-.11,1,1,0,0,0-.48.11,1,1,0,0,0-.34.31,1.53,1.53,0,0,0-.23.44,4.23,4.23,0,0,0-.13.51c0,.17,0,.34-.06.51S156.88,174.46,156.88,174.6Z"/><circle class="cls-4" cx="149.85" cy="136.79" r="47.41"/><path d="M153.13,190h0a1.34,1.34,0,0,1,.37-.12,1.84,1.84,0,0,1,.39,0,1.87,1.87,0,0,1,.68.12,1.59,1.59,0,0,1,.9.93,1.88,1.88,0,0,1,.13.72,2,2,0,0,1-.14.75,1.69,1.69,0,0,1-.4.55,1.74,1.74,0,0,1-.61.35,2.2,2.2,0,0,1-1.49,0,1.84,1.84,0,0,1-.61-.35,1.69,1.69,0,0,1-.4-.55,2,2,0,0,1-.14-.75,2.22,2.22,0,0,1,.15-.85,4,4,0,0,1,.39-.74l1.5-2.39h.78Zm.6.42a1.28,1.28,0,0,0-.48.09,1,1,0,0,0-.39.24,1,1,0,0,0-.26.38,1.1,1.1,0,0,0-.1.49,1.15,1.15,0,0,0,.1.5,1.12,1.12,0,0,0,.26.38,1.28,1.28,0,0,0,.39.24,1.48,1.48,0,0,0,1,0,1.23,1.23,0,0,0,.38-.24,1.12,1.12,0,0,0,.26-.38,1.15,1.15,0,0,0,.1-.5,1.1,1.1,0,0,0-.1-.49,1,1,0,0,0-.26-.38,1,1,0,0,0-.38-.24A1.28,1.28,0,0,0,153.73,190.37Z"/><path d="M156.21,190.42a5.85,5.85,0,0,1,.08-1,3.19,3.19,0,0,1,.29-.95,2,2,0,0,1,.59-.7,1.54,1.54,0,0,1,1-.28,1.51,1.51,0,0,1,1,.28,1.91,1.91,0,0,1,.59.7,3.52,3.52,0,0,1,.3.95,6.29,6.29,0,0,1,0,2,3.52,3.52,0,0,1-.3,1,1.91,1.91,0,0,1-.59.7,1.51,1.51,0,0,1-1,.28,1.54,1.54,0,0,1-1-.28,2,2,0,0,1-.59-.7,3.19,3.19,0,0,1-.29-1A5.85,5.85,0,0,1,156.21,190.42Zm.67,0c0,.14,0,.29,0,.46s0,.35.06.52a4.77,4.77,0,0,0,.13.51,1.67,1.67,0,0,0,.23.44,1,1,0,0,0,.34.31,1,1,0,0,0,.48.11,1.06,1.06,0,0,0,.48-.11,1.24,1.24,0,0,0,.34-.31,2,2,0,0,0,.22-.44,3.18,3.18,0,0,0,.13-.51,4.6,4.6,0,0,0,.06-.52c0-.17,0-.32,0-.46s0-.29,0-.46a4.6,4.6,0,0,0-.06-.52,3.18,3.18,0,0,0-.13-.51,2,2,0,0,0-.22-.44,1.24,1.24,0,0,0-.34-.31,1.06,1.06,0,0,0-.48-.11,1,1,0,0,0-.48.11,1,1,0,0,0-.34.31,1.67,1.67,0,0,0-.23.44,4.77,4.77,0,0,0-.13.51c0,.17,0,.35-.06.52S156.88,190.28,156.88,190.42Z"/><circle class="cls-4" cx="149.85" cy="136.79" r="63.23"/><path d="M152.11,204.79a1.46,1.46,0,0,1,.12-.6,1.5,1.5,0,0,1,.34-.47,1.58,1.58,0,0,1,.52-.3,1.87,1.87,0,0,1,.64-.11,1.91,1.91,0,0,1,.64.11,1.63,1.63,0,0,1,.51.3,1.5,1.5,0,0,1,.34.47,1.46,1.46,0,0,1,.12.6,1.34,1.34,0,0,1-.06.4,1.18,1.18,0,0,1-.19.37,1.37,1.37,0,0,1-.29.3,1.17,1.17,0,0,1-.39.18v0a1.5,1.5,0,0,1,.47.19,1.19,1.19,0,0,1,.35.32,1.3,1.3,0,0,1,.22.44,1.42,1.42,0,0,1,.08.5,1.59,1.59,0,0,1-.14.7,1.52,1.52,0,0,1-.38.52,1.72,1.72,0,0,1-.58.33,2.28,2.28,0,0,1-.7.11,2.35,2.35,0,0,1-.71-.11,1.83,1.83,0,0,1-.58-.33,1.52,1.52,0,0,1-.38-.52,1.59,1.59,0,0,1-.14-.7,1.42,1.42,0,0,1,.08-.5,1.51,1.51,0,0,1,.22-.44,1.32,1.32,0,0,1,.35-.32,1.5,1.5,0,0,1,.47-.19v0a1.17,1.17,0,0,1-.39-.18,1.64,1.64,0,0,1-.29-.3,1.43,1.43,0,0,1-.19-.37A1.34,1.34,0,0,1,152.11,204.79Zm.48,2.68a1.15,1.15,0,0,0,.33.81,1.38,1.38,0,0,0,.36.23,1.12,1.12,0,0,0,.45.08,1.08,1.08,0,0,0,.44-.08,1.11,1.11,0,0,0,.36-.23,1.17,1.17,0,0,0,0-1.63,1.31,1.31,0,0,0-.36-.23,1.27,1.27,0,0,0-.44-.08,1.33,1.33,0,0,0-.45.08,1.69,1.69,0,0,0-.36.23,1.15,1.15,0,0,0-.33.82Zm.19-2.64a.89.89,0,1,0,.26-.68A.94.94,0,0,0,152.78,204.83Z"/><path d="M156.21,206.24a5.85,5.85,0,0,1,.08-1,3.28,3.28,0,0,1,.29-1,2,2,0,0,1,.59-.7,1.61,1.61,0,0,1,1-.28,1.57,1.57,0,0,1,1,.28,1.91,1.91,0,0,1,.59.7,3.64,3.64,0,0,1,.3,1,7.07,7.07,0,0,1,.08,1,7,7,0,0,1-.08,1,3.41,3.41,0,0,1-.3.95,1.83,1.83,0,0,1-.59.7,1.51,1.51,0,0,1-1,.28,1.54,1.54,0,0,1-1-.28,1.92,1.92,0,0,1-.59-.7,3.1,3.1,0,0,1-.29-.95A5.77,5.77,0,0,1,156.21,206.24Zm.67,0c0,.14,0,.3,0,.47s0,.34.06.51a3.8,3.8,0,0,0,.13.51,1.53,1.53,0,0,0,.23.44,1,1,0,0,0,.34.31.9.9,0,0,0,.48.11,1,1,0,0,0,.48-.11,1.24,1.24,0,0,0,.34-.31,1.81,1.81,0,0,0,.22-.44,2.72,2.72,0,0,0,.13-.51,4.43,4.43,0,0,0,.06-.51c0-.17,0-.33,0-.47s0-.29,0-.46a4.88,4.88,0,0,0-.06-.52,3.18,3.18,0,0,0-.13-.51,2,2,0,0,0-.22-.44,1.21,1.21,0,0,0-.34-.3,1,1,0,0,0-.48-.12.9.9,0,0,0-.48.12,1,1,0,0,0-.34.3,1.67,1.67,0,0,0-.23.44,4.77,4.77,0,0,0-.13.51c0,.18,0,.35-.06.52S156.88,206.1,156.88,206.24Z"/><circle class="cls-4" cx="149.85" cy="136.79" r="79.06"/><path d="M154.38,224.9h-.67v-4.8h0l-1,.85-.4-.49,1.52-1.23h.58Z"/><path d="M156.21,222.06a5.85,5.85,0,0,1,.08-1,3.13,3.13,0,0,1,.29-.94,2,2,0,0,1,.59-.71,1.6,1.6,0,0,1,1-.27,1.57,1.57,0,0,1,1,.27,1.94,1.94,0,0,1,.59.71,3.45,3.45,0,0,1,.3.94,7.07,7.07,0,0,1,.08,1,7,7,0,0,1-.08,1,3.41,3.41,0,0,1-.3.95,1.94,1.94,0,0,1-.59.71,1.57,1.57,0,0,1-1,.27,1.6,1.6,0,0,1-1-.27,2,2,0,0,1-.59-.71,3.1,3.1,0,0,1-.29-.95A5.77,5.77,0,0,1,156.21,222.06Zm.67,0c0,.14,0,.3,0,.47s0,.34.06.51a3.8,3.8,0,0,0,.13.51,1.53,1.53,0,0,0,.23.44,1,1,0,0,0,.34.31.9.9,0,0,0,.48.12,1,1,0,0,0,.48-.12A1.24,1.24,0,0,0,159,224a1.81,1.81,0,0,0,.22-.44,2.72,2.72,0,0,0,.13-.51,4.43,4.43,0,0,0,.06-.51c0-.17,0-.33,0-.47s0-.29,0-.46a4.88,4.88,0,0,0-.06-.52,2.83,2.83,0,0,0-.13-.5,1.65,1.65,0,0,0-.22-.44,1.24,1.24,0,0,0-.34-.31,1,1,0,0,0-.48-.12.9.9,0,0,0-.48.12,1,1,0,0,0-.34.31,1.41,1.41,0,0,0-.23.44,4.07,4.07,0,0,0-.13.5c0,.18,0,.35-.06.52S156.88,221.93,156.88,222.06Z"/><path d="M160.65,222.06a7.07,7.07,0,0,1,.08-1,3.45,3.45,0,0,1,.3-.94,1.94,1.94,0,0,1,.59-.71,1.82,1.82,0,0,1,1.91,0,2,2,0,0,1,.59.71,3.45,3.45,0,0,1,.3.94,7,7,0,0,1,.07,1,6.92,6.92,0,0,1-.07,1,3.41,3.41,0,0,1-.3.95,2,2,0,0,1-.59.71,1.82,1.82,0,0,1-1.91,0A1.94,1.94,0,0,1,161,224a3.41,3.41,0,0,1-.3-.95A7,7,0,0,1,160.65,222.06Zm.68,0c0,.14,0,.3,0,.47a4.43,4.43,0,0,0,.06.51,2.72,2.72,0,0,0,.13.51,1.81,1.81,0,0,0,.22.44,1.24,1.24,0,0,0,.34.31,1,1,0,0,0,.48.12.9.9,0,0,0,.48-.12,1,1,0,0,0,.34-.31,1.53,1.53,0,0,0,.23-.44,3.8,3.8,0,0,0,.13-.51,4.43,4.43,0,0,0,.06-.51c0-.17,0-.33,0-.47s0-.29,0-.46a4.88,4.88,0,0,0-.06-.52,4.07,4.07,0,0,0-.13-.5,1.41,1.41,0,0,0-.23-.44,1,1,0,0,0-.34-.31.9.9,0,0,0-.48-.12,1,1,0,0,0-.48.12,1.24,1.24,0,0,0-.34.31,1.65,1.65,0,0,0-.22.44,2.83,2.83,0,0,0-.13.5,4.88,4.88,0,0,0-.06.52C161.33,221.77,161.33,221.93,161.33,222.06Z"/><circle class="cls-4" cx="149.85" cy="136.79" r="94.93"/><line class="cls-4" x1="54.92" y1="136.84" x2="244.84" y2="136.84"/><line class="cls-4" x1="149.85" y1="231.78" x2="149.85" y2="41.86"/><line class="cls-4" x1="95.1" y1="41.86" x2="204.66" y2="231.78"/><line class="cls-4" x1="95.1" y1="231.78" x2="204.66" y2="41.86"/><line class="cls-4" x1="54.92" y1="82.03" x2="244.84" y2="191.6"/><line class="cls-4" x1="54.92" y1="191.6" x2="244.84" y2="82.03"/><line class="cls-1" x1="149.85" y1="157.74" x2="150.56" y2="157.58"/><line class="cls-1" x1="150.56" y1="157.58" x2="151.26" y2="156.61"/><line class="cls-1" x1="151.26" y1="156.61" x2="152.18" y2="159.09"/><line class="cls-1" x1="152.18" y1="159.09" x2="153.8" y2="164.92"/><line class="cls-1" x1="153.8" y1="164.92" x2="155.63" y2="169.68"/><line class="cls-1" x1="155.63" y1="169.68" x2="157.85" y2="174.32"/><line class="cls-1" x1="157.85" y1="174.32" x2="160.44" y2="179.18"/><line class="cls-1" x1="160.44" y1="179.18" x2="163.19" y2="183.34"/><line class="cls-1" x1="163.19" y1="183.34" x2="166.11" y2="186.79"/><line class="cls-1" x1="166.11" y1="186.79" x2="169.35" y2="190.3"/><line class="cls-1" x1="169.35" y1="190.3" x2="172.8" y2="193.54"/><line class="cls-1" x1="172.8" y1="193.54" x2="175.83" y2="195.16"/><line class="cls-1" x1="175.83" y1="195.16" x2="178.47" y2="195.49"/><line class="cls-1" x1="178.47" y1="195.49" x2="180.74" y2="194.84"/><line class="cls-1" x1="180.74" y1="194.84" x2="183.01" y2="194.19"/><line class="cls-1" x1="183.01" y1="194.19" x2="185.66" y2="194.14"/><line class="cls-1" x1="185.66" y1="194.14" x2="188.19" y2="193.6"/><line class="cls-1" x1="188.19" y1="193.6" x2="190.57" y2="192.84"/><line class="cls-1" x1="190.57" y1="192.84" x2="192.95" y2="191.92"/><line class="cls-1" x1="192.95" y1="191.92" x2="195.97" y2="191.76"/><line class="cls-1" x1="195.97" y1="191.76" x2="200.07" y2="192.57"/><line class="cls-1" x1="200.07" y1="192.57" x2="206.93" y2="195.87"/><line class="cls-1" x1="206.93" y1="195.87" x2="213.3" y2="198.03"/><line class="cls-1" x1="213.3" y1="198.03" x2="218.33" y2="198.46"/><line class="cls-1" x1="218.33" y1="198.46" x2="221.08" y2="196.57"/><line class="cls-1" x1="221.08" y1="196.57" x2="223.62" y2="194.41"/><line class="cls-1" x1="223.62" y1="194.41" x2="225.83" y2="191.98"/><line class="cls-1" x1="225.83" y1="191.98" x2="227.56" y2="189.22"/><line class="cls-1" x1="227.56" y1="189.22" x2="228.86" y2="186.15"/><line class="cls-1" x1="228.86" y1="186.15" x2="229.5" y2="182.8"/><line class="cls-1" x1="229.5" y1="182.8" x2="230.1" y2="179.45"/><line class="cls-1" x1="230.1" y1="179.45" x2="230.42" y2="176.1"/><line class="cls-1" x1="230.42" y1="176.1" x2="229.83" y2="172.38"/><line class="cls-1" x1="229.83" y1="172.38" x2="228.37" y2="168.49"/><line class="cls-1" x1="228.37" y1="168.49" x2="227.02" y2="164.87"/><line class="cls-1" x1="227.02" y1="164.87" x2="224.91" y2="161.2"/><line class="cls-1" x1="224.91" y1="161.2" x2="222.38" y2="157.58"/><line class="cls-1" x1="222.38" y1="157.58" x2="219.46" y2="154.12"/><line class="cls-1" x1="219.46" y1="154.12" x2="216.06" y2="150.88"/><line class="cls-1" x1="216.06" y1="150.88" x2="211.58" y2="147.7"/><line class="cls-1" x1="211.58" y1="147.7" x2="206.72" y2="144.78"/><line class="cls-1" x1="206.72" y1="144.78" x2="201.75" y2="142.24"/><line class="cls-1" x1="201.75" y1="142.24" x2="189.17" y2="139.54"/><line class="cls-1" x1="189.17" y1="139.54" x2="170.64" y2="137.49"/><line class="cls-1" x1="170.64" y1="137.49" x2="162.27" y2="136.84"/><line class="cls-1" x1="162.27" y1="136.84" x2="158.22" y2="136.57"/><line class="cls-1" x1="158.22" y1="136.57" x2="155.36" y2="136.47"/><line class="cls-1" x1="155.36" y1="136.47" x2="153.31" y2="136.47"/><line class="cls-1" x1="153.31" y1="136.47" x2="152.07" y2="136.52"/><line class="cls-1" x1="152.07" y1="136.52" x2="151.64" y2="136.52"/><line class="cls-1" x1="151.64" y1="136.52" x2="151.26" y2="136.57"/><line class="cls-1" x1="151.26" y1="136.57" x2="151.15" y2="136.52"/><line class="cls-1" x1="151.15" y1="136.52" x2="151.1" y2="136.47"/><line class="cls-1" x1="151.1" y1="136.47" x2="151.15" y2="136.41"/><line class="cls-1" x1="151.15" y1="136.41" x2="151.2" y2="136.36"/><line class="cls-1" x1="151.2" y1="136.36" x2="151.26" y2="136.25"/><line class="cls-1" x1="151.26" y1="136.25" x2="151.37" y2="136.2"/><line class="cls-1" x1="151.37" y1="136.2" x2="151.42" y2="136.09"/><line class="cls-1" x1="151.42" y1="136.09" x2="151.47" y2="135.98"/><line class="cls-1" x1="151.47" y1="135.98" x2="151.53" y2="135.87"/><line class="cls-1" x1="151.53" y1="135.87" x2="151.58" y2="135.76"/><line class="cls-1" x1="151.58" y1="135.76" x2="151.58" y2="135.66"/><line class="cls-1" x1="151.58" y1="135.66" x2="151.64" y2="135.55"/><line class="cls-1" x1="151.64" y1="135.55" x2="151.64" y2="135.44"/><line class="cls-1" x1="151.64" y1="135.44" x2="151.64" y2="135.33"/><line class="cls-1" x1="151.64" y1="135.33" x2="151.69" y2="135.22"/><line class="cls-1" x1="151.69" y1="135.22" x2="151.69" y2="135.06"/><line class="cls-1" x1="151.69" y1="135.06" x2="151.69" y2="134.95"/><line class="cls-1" x1="151.69" y1="134.95" x2="151.64" y2="134.85"/><line class="cls-1" x1="151.64" y1="134.85" x2="151.53" y2="134.85"/><line class="cls-1" x1="151.53" y1="134.85" x2="151.42" y2="134.85"/><line class="cls-1" x1="151.42" y1="134.85" x2="151.26" y2="134.9"/><line class="cls-1" x1="151.26" y1="134.9" x2="151.31" y2="134.68"/><line class="cls-1" x1="151.31" y1="134.68" x2="151.47" y2="134.25"/><line class="cls-1" x1="151.47" y1="134.25" x2="151.64" y2="133.77"/><line class="cls-1" x1="151.64" y1="133.77" x2="151.96" y2="132.9"/><line class="cls-1" x1="151.96" y1="132.9" x2="152.34" y2="131.71"/><line class="cls-1" x1="152.34" y1="131.71" x2="152.93" y2="129.99"/><line class="cls-1" x1="152.93" y1="129.99" x2="153.58" y2="127.61"/><line class="cls-1" x1="153.58" y1="127.61" x2="154.55" y2="123.88"/><line class="cls-1" x1="154.55" y1="123.88" x2="155.63" y2="119.08"/><line class="cls-1" x1="155.63" y1="119.08" x2="156.71" y2="112.98"/><line class="cls-1" x1="156.71" y1="112.98" x2="157.41" y2="106.44"/><line class="cls-1" x1="157.41" y1="106.44" x2="157.79" y2="99.53"/><line class="cls-1" x1="157.79" y1="99.53" x2="157.79" y2="91.75"/><line class="cls-1" x1="157.79" y1="91.75" x2="156.17" y2="91.86"/><line class="cls-1" x1="156.17" y1="91.86" x2="154.44" y2="93.37"/><line class="cls-1" x1="154.44" y1="93.37" x2="152.66" y2="96.83"/><line class="cls-1" x1="152.66" y1="96.83" x2="151.04" y2="102.18"/><line class="cls-1" x1="151.04" y1="102.18" x2="149.85" y2="108.12"/><line class="cls-1" x1="149.85" y1="157.74" x2="149.26" y2="156.07"/><line class="cls-1" x1="149.26" y1="156.07" x2="148.72" y2="153.75"/><line class="cls-1" x1="148.72" y1="153.75" x2="148.07" y2="154.18"/><line class="cls-1" x1="148.07" y1="154.18" x2="146.99" y2="157.53"/><line class="cls-1" x1="146.99" y1="157.53" x2="145.7" y2="160.55"/><line class="cls-1" x1="145.7" y1="160.55" x2="144.24" y2="163.47"/><line class="cls-1" x1="144.24" y1="163.47" x2="142.56" y2="166.17"/><line class="cls-1" x1="142.56" y1="166.17" x2="140.89" y2="168.33"/><line class="cls-1" x1="140.89" y1="168.33" x2="138.95" y2="170.49"/><line class="cls-1" x1="138.95" y1="170.49" x2="135.92" y2="175.13"/><line class="cls-1" x1="135.92" y1="175.13" x2="132.47" y2="179.88"/><line class="cls-1" x1="132.47" y1="179.88" x2="129.06" y2="183.55"/><line class="cls-1" x1="129.06" y1="183.55" x2="125.66" y2="186.52"/><line class="cls-1" x1="125.66" y1="186.52" x2="122.31" y2="188.63"/><line class="cls-1" x1="122.31" y1="188.63" x2="119.83" y2="188.9"/><line class="cls-1" x1="119.83" y1="188.9" x2="117.78" y2="188.25"/><line class="cls-1" x1="117.78" y1="188.25" x2="116.16" y2="186.79"/><line class="cls-1" x1="116.16" y1="186.79" x2="114.75" y2="185.17"/><line class="cls-1" x1="114.75" y1="185.17" x2="113.4" y2="183.5"/><line class="cls-1" x1="113.4" y1="183.5" x2="111.84" y2="182.15"/><line class="cls-1" x1="111.84" y1="182.15" x2="111.35" y2="179.61"/><line class="cls-1" x1="111.35" y1="179.61" x2="110.6" y2="177.45"/><line class="cls-1" x1="110.6" y1="177.45" x2="109.89" y2="175.4"/><line class="cls-1" x1="109.89" y1="175.4" x2="109.35" y2="173.29"/><line class="cls-1" x1="109.35" y1="173.29" x2="109.52" y2="170.65"/><line class="cls-1" x1="109.52" y1="170.65" x2="116" y2="163.25"/><line class="cls-1" x1="116" y1="163.25" x2="125.01" y2="154.88"/><line class="cls-1" x1="125.01" y1="154.88" x2="131.06" y2="149.53"/><line class="cls-1" x1="131.06" y1="149.53" x2="133.38" y2="147.1"/><line class="cls-1" x1="133.38" y1="147.1" x2="135.11" y2="145.32"/><line class="cls-1" x1="135.11" y1="145.32" x2="136.73" y2="143.81"/><line class="cls-1" x1="136.73" y1="143.81" x2="138.3" y2="142.46"/><line class="cls-1" x1="138.3" y1="142.46" x2="139.86" y2="141.27"/><line class="cls-1" x1="139.86" y1="141.27" x2="141.32" y2="140.25"/><line class="cls-1" x1="141.32" y1="140.25" x2="142.78" y2="139.38"/><line class="cls-1" x1="142.78" y1="139.38" x2="144.24" y2="138.63"/><line class="cls-1" x1="144.24" y1="138.63" x2="145.48" y2="138.03"/><line class="cls-1" x1="145.48" y1="138.03" x2="146.56" y2="137.6"/><line class="cls-1" x1="146.56" y1="137.6" x2="147.48" y2="137.33"/><line class="cls-1" x1="147.48" y1="137.33" x2="147.86" y2="137.17"/><line class="cls-1" x1="147.86" y1="137.17" x2="148.13" y2="137.06"/><line class="cls-1" x1="148.13" y1="137.06" x2="148.29" y2="136.95"/><line class="cls-1" x1="148.29" y1="136.95" x2="148.45" y2="136.9"/><line class="cls-1" x1="148.45" y1="136.9" x2="148.5" y2="136.84"/><line class="cls-1" x1="148.5" y1="136.84" x2="148.61" y2="136.84"/><line class="cls-1" x1="148.61" y1="136.84" x2="148.67" y2="136.79"/><line class="cls-1" x1="148.67" y1="136.79" x2="148.72" y2="136.74"/><line class="cls-1" x1="148.72" y1="136.74" x2="148.77" y2="136.74"/><line class="cls-1" x1="148.77" y1="136.74" x2="148.83" y2="136.68"/><line class="cls-1" x1="148.83" y1="136.68" x2="148.94" y2="136.68"/><line class="cls-1" x1="148.94" y1="136.68" x2="148.99" y2="136.63"/><line class="cls-1" x1="148.99" y1="136.63" x2="149.04" y2="136.63"/><line class="cls-1" x1="149.04" y1="136.63" x2="149.1" y2="136.63"/><line class="cls-1" x1="149.1" y1="136.63" x2="149.04" y2="136.57"/><line class="cls-1" x1="149.04" y1="136.57" x2="148.99" y2="136.52"/><line class="cls-1" x1="148.99" y1="136.52" x2="149.04" y2="136.52"/><line class="cls-1" x1="149.04" y1="136.52" x2="149.15" y2="136.52"/><line class="cls-1" x1="149.15" y1="136.52" x2="149.26" y2="136.52"/><line class="cls-1" x1="149.26" y1="136.52" x2="149.26" y2="136.52"/><line class="cls-1" x1="149.26" y1="136.52" x2="149.31" y2="136.47"/><line class="cls-1" x1="149.31" y1="136.47" x2="149.31" y2="136.47"/><line class="cls-1" x1="149.31" y1="136.47" x2="149.31" y2="136.47"/><line class="cls-1" x1="149.31" y1="136.47" x2="149.37" y2="136.47"/><line class="cls-1" x1="149.37" y1="136.47" x2="149.37" y2="136.41"/><line class="cls-1" x1="149.37" y1="136.41" x2="149.42" y2="136.41"/><line class="cls-1" x1="149.42" y1="136.41" x2="149.42" y2="136.41"/><line class="cls-1" x1="149.42" y1="136.41" x2="149.48" y2="136.41"/><line class="cls-1" x1="149.48" y1="136.41" x2="149.48" y2="136.41"/><line class="cls-1" x1="149.48" y1="136.41" x2="149.48" y2="136.36"/><line class="cls-1" x1="149.48" y1="136.36" x2="149.53" y2="136.36"/><line class="cls-1" x1="149.53" y1="136.36" x2="149.53" y2="136.36"/><line class="cls-1" x1="149.53" y1="136.36" x2="149.53" y2="136.3"/><line class="cls-1" x1="149.53" y1="136.3" x2="149.53" y2="136.3"/><line class="cls-1" x1="149.53" y1="136.3" x2="149.53" y2="136.25"/><line class="cls-1" x1="149.53" y1="136.25" x2="149.48" y2="136.14"/><line class="cls-1" x1="149.48" y1="136.14" x2="149.26" y2="135.66"/><line class="cls-1" x1="149.26" y1="135.66" x2="148.83" y2="134.68"/><line class="cls-1" x1="148.83" y1="134.68" x2="148.34" y2="133.28"/><line class="cls-1" x1="148.34" y1="133.28" x2="147.8" y2="131.61"/><line class="cls-1" x1="147.8" y1="131.61" x2="147.26" y2="129.55"/><line class="cls-1" x1="147.26" y1="129.55" x2="146.67" y2="126.8"/><line class="cls-1" x1="146.67" y1="126.8" x2="146.02" y2="123.34"/><line class="cls-1" x1="146.02" y1="123.34" x2="145.75" y2="120.16"/><line class="cls-1" x1="145.75" y1="120.16" x2="145.8" y2="117.51"/><line class="cls-1" x1="145.8" y1="117.51" x2="146.29" y2="116.32"/><line class="cls-1" x1="146.29" y1="116.32" x2="146.94" y2="115.89"/><line class="cls-1" x1="146.94" y1="115.89" x2="147.69" y2="116"/><line class="cls-1" x1="147.69" y1="116" x2="148.4" y2="115.41"/><line class="cls-1" x1="148.4" y1="115.41" x2="149.1" y2="113.08"/><line class="cls-1" x1="149.1" y1="113.08" x2="149.85" y2="108.12"/><line class="cls-1" x1="149.85" y1="157.74" x2="150.07" y2="157.63"/><line class="cls-1" x1="150.88" y1="156.72" x2="150.99" y2="156.5"/><line class="cls-1" x1="151.53" y1="156.88" x2="151.58" y2="157.09"/><line class="cls-1" x1="152.07" y1="158.23" x2="152.12" y2="158.39"/><line class="cls-1" x1="152.12" y1="158.39" x2="152.12" y2="158.44"/><line class="cls-1" x1="152.5" y1="159.69" x2="152.55" y2="159.9"/><line class="cls-1" x1="152.88" y1="161.14" x2="152.93" y2="161.36"/><line class="cls-1" x1="153.31" y1="162.6" x2="153.36" y2="162.82"/><line class="cls-1" x1="153.69" y1="164.06" x2="153.69" y2="164.06"/><line class="cls-1" x1="153.69" y1="164.06" x2="153.8" y2="164.28"/><line class="cls-1" x1="154.28" y1="165.46" x2="154.39" y2="165.68"/><line class="cls-1" x1="154.88" y1="166.87" x2="154.93" y2="167.08"/><line class="cls-1" x1="155.47" y1="168.22" x2="155.58" y2="168.43"/><line class="cls-1" x1="156.17" y1="169.57" x2="156.28" y2="169.78"/><line class="cls-1" x1="156.87" y1="170.92" x2="156.98" y2="171.13"/><line class="cls-1" x1="157.63" y1="172.21" x2="157.74" y2="172.43"/><line class="cls-1" x1="158.44" y1="173.51" x2="158.6" y2="173.73"/><line class="cls-1" x1="159.3" y1="174.81" x2="159.36" y2="174.86"/><line class="cls-1" x1="159.36" y1="174.86" x2="159.47" y2="174.97"/><line class="cls-1" x1="160.28" y1="175.99" x2="160.44" y2="176.21"/><line class="cls-1" x1="161.25" y1="177.24" x2="161.41" y2="177.45"/><line class="cls-1" x1="162.27" y1="178.42" x2="162.44" y2="178.59"/><line class="cls-1" x1="163.35" y1="179.5" x2="163.52" y2="179.72"/><line class="cls-1" x1="164.49" y1="180.53" x2="164.7" y2="180.69"/><line class="cls-1" x1="165.73" y1="181.45" x2="165.95" y2="181.56"/><line class="cls-1" x1="167.08" y1="182.04" x2="167.3" y2="182.1"/><line class="cls-1" x1="168.48" y1="182.47" x2="168.75" y2="182.47"/><line class="cls-1" x1="170" y1="182.69" x2="170.21" y2="182.74"/><line class="cls-1" x1="171.4" y1="183.18" x2="171.62" y2="183.28"/><line class="cls-1" x1="172.75" y1="183.77" x2="172.75" y2="183.77"/><line class="cls-1" x1="172.75" y1="183.77" x2="172.97" y2="183.88"/><line class="cls-1" x1="174.05" y1="184.53" x2="174.26" y2="184.69"/><line class="cls-1" x1="175.4" y1="185.34" x2="175.61" y2="185.44"/><line class="cls-1" x1="176.69" y1="186.15" x2="176.91" y2="186.31"/><line class="cls-1" x1="177.99" y1="187.01" x2="178.2" y2="187.17"/><line class="cls-1" x1="179.28" y1="187.87" x2="179.34" y2="187.93"/><line class="cls-1" x1="179.34" y1="187.93" x2="179.5" y2="188.04"/><line class="cls-1" x1="180.53" y1="188.79" x2="180.69" y2="188.95"/><line class="cls-1" x1="181.71" y1="189.71" x2="181.93" y2="189.87"/><line class="cls-1" x1="182.96" y1="190.63" x2="183.17" y2="190.79"/><line class="cls-1" x1="184.2" y1="191.49" x2="184.41" y2="191.6"/><line class="cls-1" x1="185.49" y1="192.19" x2="185.71" y2="192.3"/><line class="cls-1" x1="186.79" y1="192.9" x2="187.01" y2="193"/><line class="cls-1" x1="188.09" y1="193.6" x2="188.25" y2="193.71"/><line class="cls-1" x1="188.25" y1="193.71" x2="188.3" y2="193.71"/><line class="cls-1" x1="189.54" y1="193.92" x2="189.76" y2="193.98"/><line class="cls-1" x1="191.06" y1="194.14" x2="191.27" y2="194.19"/><line class="cls-1" x1="192.46" y1="193.87" x2="192.68" y2="193.76"/><line class="cls-1" x1="193.86" y1="193.27" x2="193.97" y2="193.22"/><line class="cls-1" x1="193.97" y1="193.22" x2="194.08" y2="193.17"/><line class="cls-1" x1="195.21" y1="192.52" x2="195.43" y2="192.41"/><line class="cls-1" x1="196.56" y1="191.82" x2="196.78" y2="191.71"/><line class="cls-1" x1="197.97" y1="191.22" x2="198.18" y2="191.11"/><line class="cls-1" x1="199.26" y1="190.41" x2="199.43" y2="190.25"/><line class="cls-1" x1="200.45" y1="189.44" x2="200.56" y2="189.33"/><line class="cls-1" x1="200.56" y1="189.33" x2="200.61" y2="189.28"/><line class="cls-1" x1="201.48" y1="188.31" x2="201.64" y2="188.14"/><line class="cls-1" x1="202.5" y1="187.17" x2="202.67" y2="186.96"/><line class="cls-1" x1="203.53" y1="185.93" x2="203.69" y2="185.71"/><line class="cls-1" x1="204.39" y1="184.63" x2="204.56" y2="184.42"/><line class="cls-1" x1="205.2" y1="183.34" x2="205.26" y2="183.28"/><line class="cls-1" x1="205.26" y1="183.28" x2="205.31" y2="183.12"/><line class="cls-1" x1="205.8" y1="181.93" x2="205.91" y2="181.72"/><line class="cls-1" x1="206.28" y1="180.53" x2="206.28" y2="180.26"/><line class="cls-1" x1="206.5" y1="179.02" x2="206.5" y2="178.75"/><line class="cls-1" x1="206.61" y1="177.45" x2="206.61" y2="177.18"/><line class="cls-1" x1="206.66" y1="175.89" x2="206.66" y2="175.62"/><line class="cls-1" x1="206.61" y1="174.32" x2="206.55" y2="174.1"/><line class="cls-1" x1="206.45" y1="172.81" x2="206.45" y2="172.54"/><line class="cls-1" x1="206.18" y1="171.3" x2="206.12" y2="171.08"/><line class="cls-1" x1="205.85" y1="169.84" x2="205.8" y2="169.62"/><line class="cls-1" x1="205.42" y1="168.38" x2="205.31" y2="168.16"/><line class="cls-1" x1="204.88" y1="166.98" x2="204.83" y2="166.76"/><line class="cls-1" x1="204.34" y1="165.57" x2="204.23" y2="165.36"/><line class="cls-1" x1="203.69" y1="164.22" x2="203.58" y2="164.01"/><line class="cls-1" x1="203.04" y1="162.87" x2="202.94" y2="162.66"/><line class="cls-1" x1="202.02" y1="161.74" x2="201.86" y2="161.58"/><line class="cls-1" x1="200.94" y1="160.66" x2="200.78" y2="160.44"/><line class="cls-1" x1="199.86" y1="159.52" x2="199.7" y2="159.36"/><line class="cls-1" x1="198.72" y1="158.5" x2="198.51" y2="158.34"/><line class="cls-1" x1="197.43" y1="157.58" x2="197.21" y2="157.47"/><line class="cls-1" x1="196.13" y1="156.72" x2="195.92" y2="156.55"/><line class="cls-1" x1="194.84" y1="155.85" x2="194.62" y2="155.69"/><line class="cls-1" x1="193.54" y1="154.93" x2="193.32" y2="154.83"/><line class="cls-1" x1="192.24" y1="154.07" x2="192.03" y2="153.91"/><line class="cls-1" x1="190.89" y1="153.31" x2="190.68" y2="153.21"/><line class="cls-1" x1="189.54" y1="152.67" x2="189.33" y2="152.56"/><line class="cls-1" x1="188.19" y1="151.96" x2="187.98" y2="151.91"/><line class="cls-1" x1="186.84" y1="151.32" x2="186.63" y2="151.21"/><line class="cls-1" x1="185.49" y1="150.67" x2="185.28" y2="150.56"/><line class="cls-1" x1="184.14" y1="150.02" x2="183.93" y2="149.91"/><line class="cls-1" x1="182.79" y1="149.37" x2="182.58" y2="149.26"/><line class="cls-1" x1="181.44" y1="148.72" x2="181.23" y2="148.62"/><line class="cls-1" x1="180.09" y1="148.08" x2="179.88" y2="147.97"/><line class="cls-1" x1="178.74" y1="147.43" x2="178.53" y2="147.32"/><line class="cls-1" x1="177.39" y1="146.78" x2="177.18" y2="146.67"/><line class="cls-1" x1="176.04" y1="146.13" x2="175.83" y2="146.08"/><line class="cls-1" x1="174.69" y1="145.54" x2="174.48" y2="145.43"/><line class="cls-1" x1="173.29" y1="144.89" x2="173.07" y2="144.78"/><line class="cls-1" x1="171.89" y1="144.24" x2="171.67" y2="144.19"/><line class="cls-1" x1="170.54" y1="143.65" x2="170.32" y2="143.54"/><line class="cls-1" x1="169.13" y1="143" x2="168.92" y2="142.89"/><line class="cls-1" x1="167.73" y1="142.41" x2="167.51" y2="142.3"/><line class="cls-1" x1="166.38" y1="141.76" x2="166.16" y2="141.65"/><line class="cls-1" x1="164.97" y1="141.16" x2="164.76" y2="141.06"/><line class="cls-1" x1="163.62" y1="140.57" x2="163.41" y2="140.46"/><line class="cls-1" x1="162.22" y1="139.98" x2="162" y2="139.87"/><line class="cls-1" x1="160.82" y1="139.38" x2="160.6" y2="139.27"/><line class="cls-1" x1="159.41" y1="138.84" x2="159.2" y2="138.73"/><line class="cls-1" x1="158.01" y1="138.36" x2="157.79" y2="138.25"/><line class="cls-1" x1="156.6" y1="137.92" x2="156.39" y2="137.82"/><line class="cls-1" x1="155.15" y1="137.55" x2="154.93" y2="137.49"/><line class="cls-1" x1="153.69" y1="137.17" x2="153.42" y2="137.11"/><line class="cls-1" x1="152.18" y1="136.84" x2="152.12" y2="136.84"/><line class="cls-1" x1="152.12" y1="136.84" x2="151.91" y2="136.84"/><line class="cls-1" x1="151.04" y1="136.36" x2="151.04" y2="136.3"/><line class="cls-1" x1="151.04" y1="136.3" x2="151.1" y2="136.25"/><line class="cls-1" x1="151.1" y1="136.25" x2="151.1" y2="136.2"/><line class="cls-1" x1="151.1" y1="136.2" x2="151.15" y2="136.14"/><line class="cls-1" x1="150.23" y1="136.3" x2="150.23" y2="136.3"/><line class="cls-1" x1="150.23" y1="136.3" x2="150.34" y2="136.14"/><line class="cls-1" x1="150.34" y1="136.14" x2="150.39" y2="136.09"/><line class="cls-1" x1="150.93" y1="134.95" x2="151.04" y2="134.74"/><line class="cls-1" x1="151.47" y1="133.55" x2="151.53" y2="133.33"/><line class="cls-1" x1="151.96" y1="132.15" x2="151.96" y2="132.15"/><line class="cls-1" x1="151.96" y1="132.15" x2="152.01" y2="131.93"/><line class="cls-1" x1="152.34" y1="130.69" x2="152.34" y2="130.63"/><line class="cls-1" x1="152.34" y1="130.63" x2="152.39" y2="130.47"/><line class="cls-1" x1="152.72" y1="129.23" x2="152.77" y2="129.01"/><line class="cls-1" x1="152.99" y1="127.77" x2="153.04" y2="127.56"/><line class="cls-1" x1="153.26" y1="126.31" x2="153.31" y2="126.1"/><line class="cls-1" x1="153.42" y1="124.8" x2="153.47" y2="124.59"/><line class="cls-1" x1="153.58" y1="123.29" x2="153.58" y2="123.02"/><line class="cls-1" x1="153.69" y1="121.72" x2="153.69" y2="121.45"/><line class="cls-1" x1="153.69" y1="120.1" x2="153.69" y2="119.83"/><line class="cls-1" x1="153.63" y1="118.48" x2="153.63" y2="118.21"/><line class="cls-1" x1="153.53" y1="116.92" x2="153.47" y2="116.65"/><line class="cls-1" x1="153.31" y1="115.35" x2="153.26" y2="115.14"/><line class="cls-1" x1="153.04" y1="113.84" x2="152.99" y2="113.62"/><line class="cls-1" x1="152.66" y1="112.38" x2="152.61" y2="112.17"/><line class="cls-1" x1="152.18" y1="110.98" x2="152.12" y2="110.76"/><line class="cls-1" x1="151.53" y1="109.63" x2="151.42" y2="109.41"/><line class="cls-1" x1="150.56" y1="108.44" x2="150.34" y2="108.33"/><line class="cls-1" x1="149.21" y1="157.36" x2="149.21" y2="157.36"/><line class="cls-1" x1="149.21" y1="157.36" x2="149.1" y2="157.15"/><line class="cls-1" x1="148.5" y1="156.23" x2="148.45" y2="156.45"/><line class="cls-1" x1="147.96" y1="157.58" x2="147.86" y2="157.8"/><line class="cls-1" x1="147.48" y1="158.98" x2="147.42" y2="159.2"/><line class="cls-1" x1="147.1" y1="160.44" x2="146.99" y2="160.66"/><line class="cls-1" x1="146.67" y1="161.9" x2="146.61" y2="162.12"/><line class="cls-1" x1="146.29" y1="163.36" x2="146.18" y2="163.57"/><line class="cls-1" x1="145.8" y1="164.76" x2="145.7" y2="164.98"/><line class="cls-1" x1="145.21" y1="166.11" x2="145.1" y2="166.33"/><line class="cls-1" x1="144.62" y1="167.52" x2="144.56" y2="167.73"/><line class="cls-1" x1="143.97" y1="168.87" x2="143.86" y2="169.08"/><line class="cls-1" x1="143.27" y1="170.22" x2="143.16" y2="170.43"/><line class="cls-1" x1="142.56" y1="171.57" x2="142.51" y2="171.67"/><line class="cls-1" x1="142.51" y1="171.67" x2="142.46" y2="171.78"/><line class="cls-1" x1="141.7" y1="172.86" x2="141.59" y2="173.08"/><line class="cls-1" x1="140.89" y1="174.16" x2="140.73" y2="174.37"/><line class="cls-1" x1="139.97" y1="175.4" x2="139.81" y2="175.62"/><line class="cls-1" x1="139" y1="176.64" x2="138.84" y2="176.86"/><line class="cls-1" x1="137.97" y1="177.88" x2="137.81" y2="178.05"/><line class="cls-1" x1="136.89" y1="179.02" x2="136.73" y2="179.18"/><line class="cls-1" x1="135.81" y1="180.15" x2="135.81" y2="180.15"/><line class="cls-1" x1="135.81" y1="180.15" x2="135.6" y2="180.31"/><line class="cls-1" x1="134.52" y1="181.07" x2="134.3" y2="181.23"/><line class="cls-1" x1="133.22" y1="181.88" x2="133.01" y2="181.93"/><line class="cls-1" x1="131.82" y1="182.31" x2="131.6" y2="182.37"/><line class="cls-1" x1="130.36" y1="182.58" x2="130.14" y2="182.64"/><line class="cls-1" x1="128.9" y1="182.96" x2="128.69" y2="183.07"/><line class="cls-1" x1="127.5" y1="183.55" x2="127.28" y2="183.66"/><line class="cls-1" x1="126.15" y1="184.26" x2="125.93" y2="184.42"/><line class="cls-1" x1="124.85" y1="185.07" x2="124.64" y2="185.17"/><line class="cls-1" x1="123.56" y1="185.82" x2="123.34" y2="185.98"/><line class="cls-1" x1="122.26" y1="186.69" x2="122.04" y2="186.85"/><line class="cls-1" x1="120.96" y1="187.55" x2="120.75" y2="187.71"/><line class="cls-1" x1="119.72" y1="188.47" x2="119.51" y2="188.63"/><line class="cls-1" x1="118.48" y1="189.39" x2="118.26" y2="189.55"/><line class="cls-1" x1="117.24" y1="190.3" x2="117.02" y2="190.47"/><line class="cls-1" x1="116" y1="191.22" x2="115.78" y2="191.38"/><line class="cls-1" x1="114.65" y1="191.98" x2="114.43" y2="192.14"/><line class="cls-1" x1="113.3" y1="192.73" x2="113.08" y2="192.84"/><line class="cls-1" x1="111.95" y1="193.49" x2="111.73" y2="193.6"/><line class="cls-1" x1="110.49" y1="193.87" x2="110.27" y2="193.92"/><line class="cls-1" x1="108.98" y1="194.14" x2="108.71" y2="194.14"/><line class="cls-1" x1="107.46" y1="193.92" x2="107.25" y2="193.87"/><line class="cls-1" x1="106.11" y1="193.38" x2="105.9" y2="193.27"/><line class="cls-1" x1="104.76" y1="192.63" x2="104.55" y2="192.52"/><line class="cls-1" x1="103.41" y1="191.92" x2="103.2" y2="191.82"/><line class="cls-1" x1="102.01" y1="191.33" x2="101.79" y2="191.22"/><line class="cls-1" x1="100.66" y1="190.52" x2="100.44" y2="190.36"/><line class="cls-1" x1="99.42" y1="189.49" x2="99.2" y2="189.33"/><line class="cls-1" x1="98.34" y1="188.36" x2="98.18" y2="188.2"/><line class="cls-1" x1="97.31" y1="187.23" x2="97.15" y2="187.06"/><line class="cls-1" x1="96.34" y1="186.04" x2="96.18" y2="185.88"/><line class="cls-1" x1="95.42" y1="184.8" x2="95.31" y2="184.58"/><line class="cls-1" x1="94.61" y1="183.5" x2="94.5" y2="183.28"/><line class="cls-1" x1="94.02" y1="182.1" x2="93.96" y2="181.88"/><line class="cls-1" x1="93.53" y1="180.69" x2="93.48" y2="180.48"/><line class="cls-1" x1="93.32" y1="179.18" x2="93.26" y2="178.96"/><line class="cls-1" x1="93.15" y1="177.67" x2="93.15" y2="177.4"/><line class="cls-1" x1="93.1" y1="176.1" x2="93.1" y2="175.83"/><line class="cls-1" x1="93.15" y1="174.54" x2="93.15" y2="174.27"/><line class="cls-1" x1="93.32" y1="172.97" x2="93.32" y2="172.7"/><line class="cls-1" x1="93.53" y1="171.4" x2="93.59" y2="171.19"/><line class="cls-1" x1="93.91" y1="169.95" x2="93.96" y2="169.73"/><line class="cls-1" x1="94.29" y1="168.49" x2="94.4" y2="168.27"/><line class="cls-1" x1="94.83" y1="167.08" x2="94.94" y2="166.87"/><line class="cls-1" x1="95.37" y1="165.68" x2="95.48" y2="165.46"/><line class="cls-1" x1="96.02" y1="164.33" x2="96.12" y2="164.11"/><line class="cls-1" x1="96.66" y1="162.98" x2="96.77" y2="162.76"/><line class="cls-1" x1="97.69" y1="161.79" x2="97.85" y2="161.63"/><line class="cls-1" x1="98.77" y1="160.71" x2="98.93" y2="160.5"/><line class="cls-1" x1="99.85" y1="159.58" x2="100.01" y2="159.42"/><line class="cls-1" x1="100.98" y1="158.5" x2="101.2" y2="158.39"/><line class="cls-1" x1="102.23" y1="157.69" x2="102.44" y2="157.53"/><line class="cls-1" x1="103.52" y1="156.77" x2="103.74" y2="156.66"/><line class="cls-1" x1="104.82" y1="155.91" x2="105.03" y2="155.74"/><line class="cls-1" x1="106.11" y1="155.04" x2="106.33" y2="154.88"/><line class="cls-1" x1="107.41" y1="154.18" x2="107.57" y2="154.02"/><line class="cls-1" x1="108.65" y1="153.42" x2="108.87" y2="153.31"/><line class="cls-1" x1="110" y1="152.77" x2="110.22" y2="152.67"/><line class="cls-1" x1="111.35" y1="152.07" x2="111.57" y2="151.96"/><line class="cls-1" x1="112.7" y1="151.42" x2="112.92" y2="151.32"/><line class="cls-1" x1="114.05" y1="150.78" x2="114.27" y2="150.67"/><line class="cls-1" x1="115.4" y1="150.13" x2="115.62" y2="150.02"/><line class="cls-1" x1="116.75" y1="149.48" x2="116.97" y2="149.37"/><line class="cls-1" x1="118.1" y1="148.83" x2="118.32" y2="148.72"/><line class="cls-1" x1="119.45" y1="148.18" x2="119.67" y2="148.08"/><line class="cls-1" x1="120.8" y1="147.54" x2="121.02" y2="147.43"/><line class="cls-1" x1="122.15" y1="146.89" x2="122.37" y2="146.78"/><line class="cls-1" x1="123.5" y1="146.24" x2="123.72" y2="146.13"/><line class="cls-1" x1="124.91" y1="145.59" x2="125.12" y2="145.54"/><line class="cls-1" x1="126.26" y1="145" x2="126.47" y2="144.89"/><line class="cls-1" x1="127.66" y1="144.35" x2="127.88" y2="144.24"/><line class="cls-1" x1="129.06" y1="143.7" x2="129.28" y2="143.65"/><line class="cls-1" x1="130.41" y1="143.11" x2="130.63" y2="143"/><line class="cls-1" x1="131.82" y1="142.46" x2="132.03" y2="142.41"/><line class="cls-1" x1="133.17" y1="141.87" x2="133.38" y2="141.76"/><line class="cls-1" x1="134.57" y1="141.22" x2="134.73" y2="141.16"/><line class="cls-1" x1="134.73" y1="141.16" x2="134.79" y2="141.16"/><line class="cls-1" x1="135.92" y1="140.68" x2="136.14" y2="140.57"/><line class="cls-1" x1="137.27" y1="140.08" x2="137.49" y2="139.98"/><line class="cls-1" x1="138.68" y1="139.49" x2="138.89" y2="139.38"/><line class="cls-1" x1="140.08" y1="138.95" x2="140.3" y2="138.84"/><line class="cls-1" x1="141.48" y1="138.41" x2="141.7" y2="138.36"/><line class="cls-1" x1="142.89" y1="137.98" x2="143.1" y2="137.92"/><line class="cls-1" x1="144.35" y1="137.6" x2="144.56" y2="137.55"/><line class="cls-1" x1="145.8" y1="137.22" x2="145.91" y2="137.22"/><line class="cls-1" x1="145.91" y1="137.22" x2="146.07" y2="137.17"/><line class="cls-1" x1="147.32" y1="136.95" x2="147.53" y2="136.9"/><line class="cls-1" x1="148.77" y1="136.63" x2="148.83" y2="136.63"/><line class="cls-1" x1="148.83" y1="136.63" x2="148.88" y2="136.57"/><line class="cls-1" x1="148.88" y1="136.57" x2="148.88" y2="136.57"/><line class="cls-1" x1="148.88" y1="136.57" x2="148.88" y2="136.52"/><line class="cls-1" x1="148.88" y1="136.52" x2="148.83" y2="136.47"/><line class="cls-1" x1="149.21" y1="136.14" x2="149.26" y2="136.2"/><line class="cls-1" x1="149.26" y1="136.2" x2="149.37" y2="136.25"/><line class="cls-1" x1="149.37" y1="136.25" x2="149.42" y2="136.3"/><line class="cls-1" x1="148.99" y1="135.33" x2="148.88" y2="135.12"/><line class="cls-1" x1="148.45" y1="133.93" x2="148.34" y2="133.71"/><line class="cls-1" x1="147.96" y1="132.52" x2="147.86" y2="132.31"/><line class="cls-1" x1="147.53" y1="131.07" x2="147.48" y2="130.85"/><line class="cls-1" x1="147.15" y1="129.61" x2="147.1" y2="129.39"/><line class="cls-1" x1="146.83" y1="128.15" x2="146.78" y2="127.93"/><line class="cls-1" x1="146.56" y1="126.69" x2="146.51" y2="126.48"/><line class="cls-1" x1="146.34" y1="125.18" x2="146.34" y2="124.91"/><line class="cls-1" x1="146.24" y1="123.61" x2="146.18" y2="123.4"/><line class="cls-1" x1="146.13" y1="122.1" x2="146.07" y2="121.83"/><line class="cls-1" x1="146.07" y1="120.48" x2="146.07" y2="120.21"/><line class="cls-1" x1="146.07" y1="118.86" x2="146.07" y2="118.81"/><line class="cls-1" x1="146.07" y1="118.81" x2="146.07" y2="118.59"/><line class="cls-1" x1="146.18" y1="117.3" x2="146.24" y2="117.08"/><line class="cls-1" x1="146.4" y1="115.78" x2="146.4" y2="115.51"/><line class="cls-1" x1="146.61" y1="114.27" x2="146.67" y2="114.06"/><line class="cls-1" x1="146.99" y1="112.81" x2="147.05" y2="112.6"/><line class="cls-1" x1="147.42" y1="111.36" x2="147.53" y2="111.14"/><line class="cls-1" x1="148.02" y1="109.95" x2="148.02" y2="109.9"/><line class="cls-1" x1="148.02" y1="109.9" x2="148.13" y2="109.74"/><line class="cls-1" x1="148.88" y1="108.71" x2="148.94" y2="108.6"/><line class="cls-1" x1="148.94" y1="108.6" x2="149.04" y2="108.55"/></g></svg>