<svg id="splugen" xmlns="http://www.w3.org/2000/svg" viewBox="0 0 300 263"><defs><style>.cls-1{isolation:isolate;}.cls-2,.cls-3{fill:none;stroke-width:0.5px;}.cls-2{stroke:#000;}.cls-3{stroke:#1d1d1b;stroke-miterlimit:3.86;}</style></defs><title>splugen-brau-suspension-a-pg-castiglioni-flos-F6500000-spech-tech-02-300x263</title><g class="cls-1"><path d="M124.18,238.46a4,4,0,0,1,.68,1.16,4.2,4.2,0,0,1,.24,1.45,4,4,0,0,1-.29,1.56,3.7,3.7,0,0,1-.83,1.25,3.85,3.85,0,0,1-1.25.83,4.39,4.39,0,0,1-1.61.29,4.15,4.15,0,0,1-1.4-.22,3.72,3.72,0,0,1-1.11-.61l-1.07,1.09-.52-.5,1.06-1.09a3.62,3.62,0,0,1-.69-1.17,4.17,4.17,0,0,1-.24-1.43,4,4,0,0,1,.3-1.57,3.82,3.82,0,0,1,.82-1.25,3.62,3.62,0,0,1,1.26-.82,4.43,4.43,0,0,1,3-.08,3.84,3.84,0,0,1,1.15.61l1.06-1.09.51.5Zm-1.25.25a2.69,2.69,0,0,0-1.81-.62,3,3,0,0,0-1.18.23,2.82,2.82,0,0,0-.88.63,3.1,3.1,0,0,0-.56,1,3.42,3.42,0,0,0-.2,1.17,3,3,0,0,0,.55,1.82Zm-3.6,4.72a2.33,2.33,0,0,0,.8.45,2.86,2.86,0,0,0,1,.16,3,3,0,0,0,1.18-.23,2.54,2.54,0,0,0,.88-.63,2.68,2.68,0,0,0,.57-1,3.41,3.41,0,0,0-.34-3Z"/><path d="M133.58,238.35h.6a3.75,3.75,0,0,0,.95-.12,2,2,0,0,0,.79-.36,1.88,1.88,0,0,0,.54-.64,2.19,2.19,0,0,0,.2-1,1.83,1.83,0,0,0-.56-1.42,2.16,2.16,0,0,0-1.54-.5,2.36,2.36,0,0,0-1.26.32,2.41,2.41,0,0,0-.9.92l-1-.51a3.35,3.35,0,0,1,1.31-1.35,3.7,3.7,0,0,1,1.83-.44,4,4,0,0,1,1.26.19,3.09,3.09,0,0,1,1,.57,2.62,2.62,0,0,1,.71.93,2.83,2.83,0,0,1,.27,1.25,2.54,2.54,0,0,1-.15.88,3,3,0,0,1-.42.76,3.08,3.08,0,0,1-1.35,1l.05,0a2.34,2.34,0,0,1,.88.36,2.95,2.95,0,0,1,1.13,1.51,3.39,3.39,0,0,1-.13,2.4,2.84,2.84,0,0,1-.78,1,3.49,3.49,0,0,1-1.15.64,4.54,4.54,0,0,1-1.39.21,4.25,4.25,0,0,1-2.18-.54,3.31,3.31,0,0,1-1.39-1.75l1.21-.36a2.4,2.4,0,0,0,.86,1.2,3.08,3.08,0,0,0,2.5.24,2.24,2.24,0,0,0,.76-.46,2.18,2.18,0,0,0,.52-.71,2.27,2.27,0,0,0,.18-.91,2.21,2.21,0,0,0-.24-1.08,2,2,0,0,0-.64-.72,2.72,2.72,0,0,0-.92-.39,4.83,4.83,0,0,0-1.08-.12h-.5Z"/><path d="M142.29,238.35l0,0a1.83,1.83,0,0,1,.73-.29,4.35,4.35,0,0,1,.84-.1,3.49,3.49,0,0,1,1.37.27,3.26,3.26,0,0,1,1.09.73,3.36,3.36,0,0,1,.73,1.1,3.91,3.91,0,0,1,0,2.83,3.21,3.21,0,0,1-.77,1.11,3.54,3.54,0,0,1-1.16.72,4.48,4.48,0,0,1-2.95,0A3.49,3.49,0,0,1,141,244a3.18,3.18,0,0,1-.76-1.11,3.43,3.43,0,0,1-.28-1.42,4.6,4.6,0,0,1,.28-1.65,9.53,9.53,0,0,1,.7-1.39l3.06-5h1.36Zm-1.15,3.15a2.64,2.64,0,0,0,.18,1,2.32,2.32,0,0,0,.52.78,2.26,2.26,0,0,0,.8.5,3,3,0,0,0,2.05,0,2.36,2.36,0,0,0,.8-.5,2.32,2.32,0,0,0,.52-.78,2.81,2.81,0,0,0,0-2,2.18,2.18,0,0,0-.52-.77,2.74,2.74,0,0,0-.8-.51,3,3,0,0,0-2.05,0,2.61,2.61,0,0,0-.8.51,2.18,2.18,0,0,0-.52.77A2.64,2.64,0,0,0,141.14,241.5Z"/><path d="M152.56,233.29a3.24,3.24,0,0,1,2,.56,3.86,3.86,0,0,1,1.17,1.42,6.77,6.77,0,0,1,.56,1.9,14,14,0,0,1,0,4,6.77,6.77,0,0,1-.56,1.9,3.86,3.86,0,0,1-1.17,1.42,3.75,3.75,0,0,1-3.94,0,3.86,3.86,0,0,1-1.17-1.42,6.77,6.77,0,0,1-.56-1.9,14,14,0,0,1,0-4,6.77,6.77,0,0,1,.56-1.9,3.86,3.86,0,0,1,1.17-1.42A3.24,3.24,0,0,1,152.56,233.29Zm0,1.06a2,2,0,0,0-1.46.49,3.08,3.08,0,0,0-.81,1.23,6.29,6.29,0,0,0-.35,1.57c0,.56-.07,1.06-.07,1.51s0,.95.07,1.5a6.09,6.09,0,0,0,.35,1.57,3.08,3.08,0,0,0,.81,1.23,2.38,2.38,0,0,0,2.92,0,3.08,3.08,0,0,0,.81-1.23,6.09,6.09,0,0,0,.35-1.57c0-.55.07-1.06.07-1.5s0-1-.07-1.51a6.29,6.29,0,0,0-.35-1.57,3.08,3.08,0,0,0-.81-1.23A2,2,0,0,0,152.56,234.35Z"/><path d="M158.16,239c0-.28,0-.56,0-.84l-.06-.83h1.14v1.14h0a2.41,2.41,0,0,1,1.06-1,3,3,0,0,1,1.35-.34,3.74,3.74,0,0,1,.65.06,2.45,2.45,0,0,1,.67.24,2.34,2.34,0,0,1,.6.47,2.65,2.65,0,0,1,.47.78,2.41,2.41,0,0,1,1-1.13,2.79,2.79,0,0,1,1.45-.42,2.73,2.73,0,0,1,2.13.76,3.12,3.12,0,0,1,.69,2.17v4.75h-1.06v-4.37a3.13,3.13,0,0,0-.4-1.74,1.63,1.63,0,0,0-1.49-.61,1.82,1.82,0,0,0-1.64.85,3,3,0,0,0-.36.87,4.83,4.83,0,0,0-.11,1v4h-1.05v-4.37a3.22,3.22,0,0,0-.4-1.74,1.65,1.65,0,0,0-1.49-.61l-.44.06a1.65,1.65,0,0,0-.71.36,2.55,2.55,0,0,0-.67.86,3.66,3.66,0,0,0-.29,1.6v3.84h-1.06Z"/><path d="M171.79,239c0-.28,0-.56,0-.84l-.06-.83h1.14v1.14h0a2.47,2.47,0,0,1,1.06-1,3,3,0,0,1,1.36-.34,3.72,3.72,0,0,1,.64.06,2.45,2.45,0,0,1,.67.24,2.34,2.34,0,0,1,.6.47,2.65,2.65,0,0,1,.47.78,2.38,2.38,0,0,1,1-1.13,3.06,3.06,0,0,1,3.57.34,3.12,3.12,0,0,1,.69,2.17v4.75H181.9v-4.37a3.13,3.13,0,0,0-.4-1.74,1.62,1.62,0,0,0-1.48-.61,2,2,0,0,0-1,.23,1.9,1.9,0,0,0-.64.62,2.5,2.5,0,0,0-.36.87,4.25,4.25,0,0,0-.12,1v4h-1.05v-4.37a3.22,3.22,0,0,0-.4-1.74,1.64,1.64,0,0,0-1.49-.61l-.44.06a1.65,1.65,0,0,0-.71.36,2.55,2.55,0,0,0-.67.86,3.66,3.66,0,0,0-.29,1.6v3.84h-1.06Z"/></g><line class="cls-2" x1="121.8" y1="226.79" x2="179.11" y2="226.79"/><line class="cls-2" x1="121.8" y1="226.53" x2="121.8" y2="227.04"/><line class="cls-2" x1="179.11" y1="226.53" x2="179.11" y2="227.04"/><line class="cls-2" x1="121.8" y1="224.58" x2="121.8" y2="229"/><line class="cls-2" x1="179.11" y1="224.58" x2="179.11" y2="229"/><g class="cls-1"><path d="M94.65,219.39v7.2H93.32l-4.59-4.51-.54-.51a4.51,4.51,0,0,0-.61-.47,3,3,0,0,0-.67-.33,2.06,2.06,0,0,0-.74-.13,1.87,1.87,0,0,0-.83.17,1.68,1.68,0,0,0-.62.47,2.29,2.29,0,0,0-.4.7,2.65,2.65,0,0,0-.13.85,2.28,2.28,0,0,0,.48,1.47,2.17,2.17,0,0,0,1.29.79l-.12,1.21a3.18,3.18,0,0,1-2-1.16,3.51,3.51,0,0,1-.72-2.23,4.26,4.26,0,0,1,.19-1.3,3.11,3.11,0,0,1,.55-1.09,2.5,2.5,0,0,1,.92-.75,2.79,2.79,0,0,1,1.29-.28,3.36,3.36,0,0,1,1.2.2,4.46,4.46,0,0,1,1,.52,6.26,6.26,0,0,1,.91.72l.85.84,3.54,3.57v-6Z"/><path d="M94.65,212.89V214H84.77l1.79,2-.87.72-2.37-2.88v-1Z"/><path d="M83.13,205.12a3.24,3.24,0,0,1,.56-2A3.89,3.89,0,0,1,85.12,202a6.3,6.3,0,0,1,1.89-.56,15.36,15.36,0,0,1,2-.14,15.09,15.09,0,0,1,2,.14,6.45,6.45,0,0,1,1.9.56,3.78,3.78,0,0,1,1.42,1.17,3.69,3.69,0,0,1,0,3.94,3.66,3.66,0,0,1-1.42,1.16,6.17,6.17,0,0,1-1.9.56,13.58,13.58,0,0,1-2,.15,13.82,13.82,0,0,1-2-.15,6,6,0,0,1-1.89-.56,3.77,3.77,0,0,1-1.43-1.16A3.26,3.26,0,0,1,83.13,205.12Zm1.06,0a2,2,0,0,0,.5,1.46,3.08,3.08,0,0,0,1.23.81,5.71,5.71,0,0,0,1.56.34c.56.05,1.06.08,1.51.08s1,0,1.5-.08a5.7,5.7,0,0,0,1.57-.34,3.08,3.08,0,0,0,1.23-.81,2.07,2.07,0,0,0,.5-1.46,2.09,2.09,0,0,0-.5-1.47,3.17,3.17,0,0,0-1.23-.8,5.71,5.71,0,0,0-1.57-.35c-.55-.05-1-.07-1.5-.07s-.95,0-1.51.07a5.72,5.72,0,0,0-1.56.35,3.17,3.17,0,0,0-1.23.8A2,2,0,0,0,84.19,205.12Z"/><path d="M88.83,195.07l-.83,0-.84.06V194H88.3v0a2.41,2.41,0,0,1-1-1.06,2.91,2.91,0,0,1-.27-2,2.42,2.42,0,0,1,.23-.67,2.34,2.34,0,0,1,.47-.6,2.65,2.65,0,0,1,.78-.47,2.45,2.45,0,0,1-1.13-1,3.07,3.07,0,0,1,.34-3.58,3.12,3.12,0,0,1,2.17-.69h4.75V185H90.28a3.16,3.16,0,0,0-1.74.4,1.65,1.65,0,0,0-.61,1.49,1.82,1.82,0,0,0,.85,1.64,3.07,3.07,0,0,0,.87.36,4.9,4.9,0,0,0,1,.11h4v1H90.28a3.25,3.25,0,0,0-1.74.4,1.68,1.68,0,0,0-.61,1.49,2.52,2.52,0,0,0,.07.44,1.62,1.62,0,0,0,.35.71,2.55,2.55,0,0,0,.86.67,3.55,3.55,0,0,0,1.6.29h3.84v1.06Z"/><path d="M88.83,181.44l-.83,0-.84.06v-1.14H88.3v0a2.47,2.47,0,0,1-1-1.06,2.91,2.91,0,0,1-.27-2,2.42,2.42,0,0,1,.23-.67,2.34,2.34,0,0,1,.47-.6,2.65,2.65,0,0,1,.78-.47,2.42,2.42,0,0,1-1.13-1,2.73,2.73,0,0,1-.42-1.44,2.76,2.76,0,0,1,.76-2.13,3.12,3.12,0,0,1,2.17-.69h4.75v1.06H90.28a3.16,3.16,0,0,0-1.74.4,1.65,1.65,0,0,0-.61,1.48,2,2,0,0,0,.23,1,1.9,1.9,0,0,0,.62.64,2.58,2.58,0,0,0,.87.36,4.31,4.31,0,0,0,1,.12h4v1H90.28a3.25,3.25,0,0,0-1.74.4,1.67,1.67,0,0,0-.61,1.49,2.67,2.67,0,0,0,.07.44,1.62,1.62,0,0,0,.35.71,2.55,2.55,0,0,0,.86.67,3.69,3.69,0,0,0,1.6.29h3.84v1.06Z"/></g><line class="cls-2" x1="104.54" y1="217.11" x2="104.54" y2="172.61"/><line class="cls-2" x1="102.7" y1="172.6" x2="106.24" y2="172.6"/><line class="cls-2" x1="102.02" y1="217.11" x2="107.07" y2="217.11"/><line class="cls-2" x1="104.54" y1="172.6" x2="104.54" y2="73.92"/><line class="cls-2" x1="102.7" y1="73.9" x2="106.24" y2="73.9"/><line class="cls-2" x1="102.02" y1="172.6" x2="107.07" y2="172.6"/><g class="cls-1"><path d="M94.65,147.45v7.2H93.32l-4.59-4.51-.54-.51a5.5,5.5,0,0,0-.61-.47,3,3,0,0,0-.67-.33,2.06,2.06,0,0,0-.74-.13,1.87,1.87,0,0,0-.83.17,1.68,1.68,0,0,0-.62.47,2.41,2.41,0,0,0-.4.7,2.65,2.65,0,0,0-.13.85,2.28,2.28,0,0,0,.48,1.47,2.17,2.17,0,0,0,1.29.79l-.12,1.21a3.14,3.14,0,0,1-2-1.16,3.51,3.51,0,0,1-.72-2.23,4.26,4.26,0,0,1,.19-1.3,3.11,3.11,0,0,1,.55-1.09,2.5,2.5,0,0,1,.92-.75,2.79,2.79,0,0,1,1.29-.28,3.36,3.36,0,0,1,1.2.2,4.46,4.46,0,0,1,1,.52,6.26,6.26,0,0,1,.91.72l.85.84,3.54,3.57v-6Z"/><path d="M94.65,138.55v7.2H93.32l-4.59-4.51-.54-.51a4.43,4.43,0,0,0-.61-.46,3.52,3.52,0,0,0-.67-.34,2.06,2.06,0,0,0-.74-.13,2,2,0,0,0-.83.17,1.79,1.79,0,0,0-.62.47,2.34,2.34,0,0,0-.4.71,2.59,2.59,0,0,0-.13.84,2.33,2.33,0,0,0,.48,1.48,2.21,2.21,0,0,0,1.29.78l-.12,1.22a3.18,3.18,0,0,1-2-1.16,3.54,3.54,0,0,1-.72-2.24,4.31,4.31,0,0,1,.19-1.3,3.2,3.2,0,0,1,.55-1.09,2.71,2.71,0,0,1,.92-.75,2.79,2.79,0,0,1,1.29-.28,3.6,3.6,0,0,1,1.2.2,4.9,4.9,0,0,1,1,.52,6.33,6.33,0,0,1,.91.73c.29.27.57.55.85.84l3.54,3.57v-6Z"/><path d="M83.13,133.18a3.24,3.24,0,0,1,.56-2A3.89,3.89,0,0,1,85.12,130a6.3,6.3,0,0,1,1.89-.56,15.36,15.36,0,0,1,2-.14,15.09,15.09,0,0,1,2,.14,6.45,6.45,0,0,1,1.9.56,3.78,3.78,0,0,1,1.42,1.17,3.69,3.69,0,0,1,0,3.94,3.66,3.66,0,0,1-1.42,1.16,6.17,6.17,0,0,1-1.9.56,13.58,13.58,0,0,1-2,.15,13.82,13.82,0,0,1-2-.15,6,6,0,0,1-1.89-.56,3.77,3.77,0,0,1-1.43-1.16A3.26,3.26,0,0,1,83.13,133.18Zm1.06,0a2,2,0,0,0,.5,1.46,3.08,3.08,0,0,0,1.23.81,5.71,5.71,0,0,0,1.56.34c.56.05,1.06.08,1.51.08s1,0,1.5-.08a5.7,5.7,0,0,0,1.57-.34,3.08,3.08,0,0,0,1.23-.81,2.05,2.05,0,0,0,.5-1.46,2.09,2.09,0,0,0-.5-1.47,3.17,3.17,0,0,0-1.23-.8,5.71,5.71,0,0,0-1.57-.35c-.55-.05-1-.07-1.5-.07s-.95,0-1.51.07a5.72,5.72,0,0,0-1.56.35,3.17,3.17,0,0,0-1.23.8A2,2,0,0,0,84.19,133.18Z"/><path d="M83.13,124.28a3.26,3.26,0,0,1,.56-2,3.77,3.77,0,0,1,1.43-1.16,6,6,0,0,1,1.89-.56,13.82,13.82,0,0,1,2-.15,13.58,13.58,0,0,1,2,.15,6.17,6.17,0,0,1,1.9.56,3.66,3.66,0,0,1,1.42,1.16,3.69,3.69,0,0,1,0,3.94,3.78,3.78,0,0,1-1.42,1.17A6.45,6.45,0,0,1,91,128a15.09,15.09,0,0,1-2,.14,15.36,15.36,0,0,1-2-.14,6.3,6.3,0,0,1-1.89-.56,3.89,3.89,0,0,1-1.43-1.17A3.24,3.24,0,0,1,83.13,124.28Zm1.06,0a2,2,0,0,0,.5,1.47,3.17,3.17,0,0,0,1.23.8,5.72,5.72,0,0,0,1.56.35c.56,0,1.06.07,1.51.07s1,0,1.5-.07a5.71,5.71,0,0,0,1.57-.35,3.17,3.17,0,0,0,1.23-.8,2.09,2.09,0,0,0,.5-1.47,2.07,2.07,0,0,0-.5-1.46,3.08,3.08,0,0,0-1.23-.81,5.7,5.7,0,0,0-1.57-.34c-.55,0-1-.08-1.5-.08s-.95,0-1.51.08a5.71,5.71,0,0,0-1.56.34,3.08,3.08,0,0,0-1.23.81A2,2,0,0,0,84.19,124.28Z"/><path d="M88.83,114.23c-.28,0-.56,0-.83,0l-.84,0v-1.13H88.3v0a2.44,2.44,0,0,1-1-1.07,2.94,2.94,0,0,1-.34-1.35,3.07,3.07,0,0,1,.07-.65,2.25,2.25,0,0,1,.23-.66,2,2,0,0,1,.47-.6,2.28,2.28,0,0,1,.78-.47,2.53,2.53,0,0,1-1.13-1,3.07,3.07,0,0,1,.34-3.58,3.17,3.17,0,0,1,2.17-.68h4.75v1.05H90.28a3.25,3.25,0,0,0-1.74.4,1.67,1.67,0,0,0-.61,1.49,2,2,0,0,0,.23,1,1.93,1.93,0,0,0,.62.65,2.58,2.58,0,0,0,.87.36,4.9,4.9,0,0,0,1,.11h4v1.06H90.28a3.16,3.16,0,0,0-1.74.4,1.65,1.65,0,0,0-.61,1.49,2.67,2.67,0,0,0,.07.44,1.67,1.67,0,0,0,.35.71,2.67,2.67,0,0,0,.86.66,3.53,3.53,0,0,0,1.6.3h3.84v1Z"/><path d="M88.83,100.6c-.28,0-.56,0-.83,0l-.84.05V99.55H88.3v0a2.41,2.41,0,0,1-1-1.06A2.94,2.94,0,0,1,87,97.1a3.07,3.07,0,0,1,.07-.65,2.25,2.25,0,0,1,.23-.66,2,2,0,0,1,.47-.6,2.47,2.47,0,0,1,.78-.48,2.45,2.45,0,0,1-1.13-1,3.07,3.07,0,0,1,.34-3.58,3.12,3.12,0,0,1,2.17-.69h4.75v1.06H90.28a3.16,3.16,0,0,0-1.74.4,1.67,1.67,0,0,0-.61,1.49,2,2,0,0,0,.23,1,1.93,1.93,0,0,0,.62.65,3.07,3.07,0,0,0,.87.36,4.9,4.9,0,0,0,1,.11h4v1.06H90.28a3.16,3.16,0,0,0-1.74.4,1.65,1.65,0,0,0-.61,1.48,2.52,2.52,0,0,0,.07.44,1.71,1.71,0,0,0,.35.72,2.67,2.67,0,0,0,.86.66,3.53,3.53,0,0,0,1.6.3h3.84v1Z"/></g><path class="cls-3" d="M117.93,198.49H182.1a2.42,2.42,0,1,1,0,4.81H117.93a2.42,2.42,0,1,1,0-4.81Z"/><path class="cls-3" d="M117.69,203.3h64.76a2.21,2.21,0,1,1,0,4.33H117.69a2.21,2.21,0,1,1,0-4.33Z"/><path class="cls-3" d="M118.63,207.64H182a2.21,2.21,0,1,1,0,4.33H118.63a2.21,2.21,0,1,1,0-4.33Z"/><path class="cls-3" d="M121.56,212h56.91c1.46,0,2.66.89,2.66,2s-1.2,2-2.66,2H121.56c-1.47,0-2.66-.9-2.66-2S120.09,212,121.56,212Z"/><path class="cls-3" d="M132.14,182.44l-.58-1.4c0-.85,1.19-1.53,2.65-1.53h31.95c1.47,0,2.66.68,2.66,1.53l-.23,1.28"/><path class="cls-3" d="M127.92,186.19l-.58-1.88c0-1,1.19-1.76,2.66-1.76h41.08c1.47,0,2.66.79,2.66,1.76l-.82,1.53"/><path class="cls-3" d="M123.94,189.82l-.47-1.76c0-1.09,1.19-2,2.66-2h48.24c1.47,0,2.65.9,2.65,2l-.58,1.88"/><path class="cls-3" d="M121.36,194.27l-.7-2.23c0-1.09,1.19-2,2.66-2h53.86c1.46,0,2.66.89,2.66,2l-.47,1.89"/><path class="cls-3" d="M117.85,198.38a1.79,1.79,0,0,1-.47-2.11A2.47,2.47,0,0,1,120,194h60.2a2.47,2.47,0,0,1,2.65,2.23,2.35,2.35,0,0,1-.82,2.11"/><rect class="cls-3" x="123.59" y="215.95" width="53.2" height="1.29"/><path class="cls-3" d="M136.24,178.75c0-.35.6-.65,1.33-.65h26.17c.73,0,1.33.3,1.33.65s-.6.64-1.33.64H137.57C136.84,179.39,136.24,179.11,136.24,178.75Z"/><path class="cls-3" d="M159.45,178a4.08,4.08,0,0,0-3.4-2c-2.47-.11,0-1-2.81-1.17a14.73,14.73,0,0,1-2.35-.12v-128"/><path class="cls-3" d="M149.25,46.68V174.59s.35.12-2.46.23-.35,1.06-2.81,1.17a4.08,4.08,0,0,0-3.4,2"/><line class="cls-3" x1="149.3" y1="172.6" x2="150.82" y2="172.6"/></svg>