<svg xmlns="http://www.w3.org/2000/svg" viewBox="0 0 300 263"><defs><style>.cls-1,.cls-2,.cls-3,.cls-4{fill:none;stroke-linecap:round;}.cls-1,.cls-2{stroke:red;}.cls-1,.cls-2,.cls-4{stroke-linejoin:round;}.cls-1,.cls-3,.cls-4{stroke-width:0.6px;}.cls-3,.cls-4{stroke:#000;}.cls-3{stroke-miterlimit:10;}</style></defs><title>spun-light-table-2-wrong-flos-F66110-curva-fotometrica</title><g id="numeri_esterni_diagramma" data-name="numeri esterni diagramma"><path d="M148.27,239.2a6.85,6.85,0,0,1,.08-1,3.41,3.41,0,0,1,.3-.95,1.94,1.94,0,0,1,.59-.71,1.57,1.57,0,0,1,.95-.27,1.6,1.6,0,0,1,1,.27,2,2,0,0,1,.59.71,3.1,3.1,0,0,1,.29.95,5.7,5.7,0,0,1,.08,1,5.85,5.85,0,0,1-.08,1,3.13,3.13,0,0,1-.29.94,2,2,0,0,1-.59.71,1.6,1.6,0,0,1-1,.27,1.57,1.57,0,0,1-.95-.27,1.94,1.94,0,0,1-.59-.71,3.45,3.45,0,0,1-.3-.94A7.07,7.07,0,0,1,148.27,239.2Zm.68,0c0,.13,0,.29,0,.46a4.88,4.88,0,0,0,.06.52,2.83,2.83,0,0,0,.13.5,1.65,1.65,0,0,0,.22.44,1.24,1.24,0,0,0,.34.31,1,1,0,0,0,.48.12.9.9,0,0,0,.48-.12,1,1,0,0,0,.34-.31,1.41,1.41,0,0,0,.23-.44,4.07,4.07,0,0,0,.13-.5c0-.18,0-.35.06-.52s0-.33,0-.46,0-.3,0-.47,0-.34-.06-.51a3.8,3.8,0,0,0-.13-.51,1.53,1.53,0,0,0-.23-.44,1,1,0,0,0-.34-.31.9.9,0,0,0-.48-.12,1,1,0,0,0-.48.12,1.24,1.24,0,0,0-.34.31,1.81,1.81,0,0,0-.22.44,2.72,2.72,0,0,0-.13.51,4.43,4.43,0,0,0-.06.51C149,238.9,149,239.06,149,239.2Z"/><path d="M152.83,237.41a1.33,1.33,0,0,1,.08-.45,1.11,1.11,0,0,1,.25-.36,1,1,0,0,1,.36-.24,1.17,1.17,0,0,1,.9,0,1,1,0,0,1,.36.24,1.11,1.11,0,0,1,.25.36,1.31,1.31,0,0,1,0,.9,1.23,1.23,0,0,1-.61.61,1.17,1.17,0,0,1-.9,0,1.23,1.23,0,0,1-.61-.61A1.33,1.33,0,0,1,152.83,237.41Zm.43,0a.79.79,0,0,0,.05.25.68.68,0,0,0,.14.23.66.66,0,0,0,.23.17.73.73,0,0,0,.58,0,.76.76,0,0,0,.23-.17.88.88,0,0,0,.14-.23.65.65,0,0,0,0-.5,1.09,1.09,0,0,0-.14-.23,1,1,0,0,0-.23-.17.73.73,0,0,0-.58,0,.81.81,0,0,0-.23.17.75.75,0,0,0-.19.48Z"/><path d="M203.17,238.76h.21l.43,0a1.15,1.15,0,0,0,.42-.13.77.77,0,0,0,.31-.31.94.94,0,0,0,.13-.51.87.87,0,0,0-.27-.68,1,1,0,0,0-.7-.26,1.28,1.28,0,0,0-.63.16,1.14,1.14,0,0,0-.41.48l-.65-.25a1.48,1.48,0,0,1,.65-.72,2.07,2.07,0,0,1,1-.24,2.25,2.25,0,0,1,.64.09,1.72,1.72,0,0,1,.54.28,1.37,1.37,0,0,1,.37.46,1.48,1.48,0,0,1,.14.65,1.29,1.29,0,0,1-.27.8,1.34,1.34,0,0,1-.7.49v0a1.48,1.48,0,0,1,.85.49,1.37,1.37,0,0,1,.23.43,1.69,1.69,0,0,1,.08.5,1.66,1.66,0,0,1-.15.72,1.57,1.57,0,0,1-.41.51,1.71,1.71,0,0,1-.6.31,2.34,2.34,0,0,1-.71.1,2.18,2.18,0,0,1-1.13-.28,1.61,1.61,0,0,1-.7-.91l.68-.22a1.33,1.33,0,0,0,.41.65,1.3,1.3,0,0,0,.74.19,1.33,1.33,0,0,0,.45-.08,1.11,1.11,0,0,0,.36-.23,1.24,1.24,0,0,0,.25-.35,1.13,1.13,0,0,0,.09-.45,1.07,1.07,0,0,0-.12-.53,1,1,0,0,0-.33-.33,1.23,1.23,0,0,0-.46-.18,2.31,2.31,0,0,0-.52-.06h-.21Z"/><path d="M206.24,239.2a6.85,6.85,0,0,1,.08-1,3.11,3.11,0,0,1,.3-.95,1.94,1.94,0,0,1,.59-.71,1.55,1.55,0,0,1,.95-.27,1.6,1.6,0,0,1,1,.27,2,2,0,0,1,.59.71,3.1,3.1,0,0,1,.29.95,5.7,5.7,0,0,1,.08,1,5.85,5.85,0,0,1-.08,1,3.13,3.13,0,0,1-.29.94,2,2,0,0,1-.59.71,1.6,1.6,0,0,1-1,.27,1.55,1.55,0,0,1-.95-.27,1.94,1.94,0,0,1-.59-.71,3.14,3.14,0,0,1-.3-.94A7.07,7.07,0,0,1,206.24,239.2Zm.67,0c0,.13,0,.29,0,.46a4.88,4.88,0,0,0,.06.52,2.83,2.83,0,0,0,.13.5,1.4,1.4,0,0,0,.22.44,1.24,1.24,0,0,0,.34.31,1,1,0,0,0,.48.12.9.9,0,0,0,.48-.12,1,1,0,0,0,.34-.31,1.41,1.41,0,0,0,.23-.44,4.05,4.05,0,0,0,.12-.5,4.88,4.88,0,0,0,.06-.52,3.86,3.86,0,0,0,0-.46,3.94,3.94,0,0,0,0-.47,4.43,4.43,0,0,0-.06-.51,3.81,3.81,0,0,0-.12-.51,1.53,1.53,0,0,0-.23-.44,1,1,0,0,0-.34-.31.9.9,0,0,0-.48-.12,1,1,0,0,0-.48.12,1.24,1.24,0,0,0-.34.31,1.51,1.51,0,0,0-.22.44,2.72,2.72,0,0,0-.13.51,4.43,4.43,0,0,0-.06.51C206.92,238.9,206.91,239.06,206.91,239.2Z"/><path d="M210.84,237.41a1.13,1.13,0,0,1,.09-.45,1.26,1.26,0,0,1,.24-.36,1.2,1.2,0,0,1,.82-.33,1,1,0,0,1,.44.09,1.12,1.12,0,0,1,.37.24,1.26,1.26,0,0,1,.24.36,1.16,1.16,0,0,1-.24,1.26,1.15,1.15,0,0,1-.37.25,1,1,0,0,1-.44.09,1.13,1.13,0,0,1-.45-.09,1.15,1.15,0,0,1-.37-.25,1.15,1.15,0,0,1-.33-.81Zm.43,0a.61.61,0,0,0,.06.25.68.68,0,0,0,.14.23.72.72,0,0,0,.22.17.73.73,0,0,0,.3.06.72.72,0,0,0,.29-.06.62.62,0,0,0,.22-.17.91.91,0,0,0,.15-.23.65.65,0,0,0,0-.5,1.14,1.14,0,0,0-.15-.23.76.76,0,0,0-.22-.17.72.72,0,0,0-.29-.06.73.73,0,0,0-.3.06.92.92,0,0,0-.22.17.79.79,0,0,0-.14.23A.61.61,0,0,0,211.27,237.41Z"/><path d="M93.6,238.76h.21l.44,0a1.1,1.1,0,0,0,.41-.13.86.86,0,0,0,.32-.31.94.94,0,0,0,.12-.51.87.87,0,0,0-.27-.68,1,1,0,0,0-.7-.26,1.21,1.21,0,0,0-.62.16,1.1,1.1,0,0,0-.42.48l-.65-.25a1.45,1.45,0,0,1,.66-.72,2,2,0,0,1,1-.24,2.32,2.32,0,0,1,.65.09,2,2,0,0,1,.54.28,1.67,1.67,0,0,1,.37.46,1.48,1.48,0,0,1,.13.65,1.29,1.29,0,0,1-.27.8,1.34,1.34,0,0,1-.7.49v0a1.31,1.31,0,0,1,.49.18,1.34,1.34,0,0,1,.36.31,1.37,1.37,0,0,1,.23.43,1.42,1.42,0,0,1,.08.5,1.66,1.66,0,0,1-.15.72,1.57,1.57,0,0,1-.41.51,1.75,1.75,0,0,1-.59.31,2.46,2.46,0,0,1-.72.1,2.18,2.18,0,0,1-1.13-.28,1.56,1.56,0,0,1-.69-.91l.68-.22a1.2,1.2,0,0,0,.41.65,1.27,1.27,0,0,0,.73.19,1.33,1.33,0,0,0,.45-.08,1.11,1.11,0,0,0,.36-.23,1.07,1.07,0,0,0,.25-.35,1.13,1.13,0,0,0,.09-.45,1.07,1.07,0,0,0-.12-.53.87.87,0,0,0-.33-.33,1.17,1.17,0,0,0-.46-.18,2.24,2.24,0,0,0-.52-.06H93.6Z"/><path d="M96.68,239.2a5.7,5.7,0,0,1,.08-1,3.1,3.1,0,0,1,.29-.95,2,2,0,0,1,.59-.71,1.6,1.6,0,0,1,1-.27,1.57,1.57,0,0,1,1,.27,1.94,1.94,0,0,1,.59.71,3.41,3.41,0,0,1,.3.95,6.85,6.85,0,0,1,.08,1,7.07,7.07,0,0,1-.08,1,3.45,3.45,0,0,1-.3.94,1.94,1.94,0,0,1-.59.71,1.57,1.57,0,0,1-1,.27,1.6,1.6,0,0,1-1-.27,2,2,0,0,1-.59-.71,3.13,3.13,0,0,1-.29-.94A5.85,5.85,0,0,1,96.68,239.2Zm.67,0c0,.13,0,.29,0,.46a4.88,4.88,0,0,0,.06.52,4.07,4.07,0,0,0,.13.5,1.41,1.41,0,0,0,.23.44,1,1,0,0,0,.34.31.9.9,0,0,0,.48.12,1,1,0,0,0,.48-.12,1.24,1.24,0,0,0,.34-.31,1.65,1.65,0,0,0,.22-.44,2.83,2.83,0,0,0,.13-.5,4.88,4.88,0,0,0,.06-.52c0-.17,0-.33,0-.46s0-.3,0-.47a4.43,4.43,0,0,0-.06-.51,2.72,2.72,0,0,0-.13-.51,1.81,1.81,0,0,0-.22-.44,1.24,1.24,0,0,0-.34-.31,1,1,0,0,0-.48-.12.9.9,0,0,0-.48.12,1,1,0,0,0-.34.31,1.53,1.53,0,0,0-.23.44,3.8,3.8,0,0,0-.13.51,4.43,4.43,0,0,0-.06.51C97.35,238.9,97.35,239.06,97.35,239.2Z"/><path d="M101.28,237.41a1.33,1.33,0,0,1,.08-.45,1.11,1.11,0,0,1,.25-.36,1,1,0,0,1,.36-.24,1.17,1.17,0,0,1,.9,0,1,1,0,0,1,.36.24,1.11,1.11,0,0,1,.25.36,1.31,1.31,0,0,1,0,.9,1.23,1.23,0,0,1-.61.61,1.17,1.17,0,0,1-.9,0,1.23,1.23,0,0,1-.61-.61A1.33,1.33,0,0,1,101.28,237.41Zm.43,0a.79.79,0,0,0,.05.25.68.68,0,0,0,.14.23.76.76,0,0,0,.23.17.73.73,0,0,0,.58,0,.66.66,0,0,0,.23-.17.68.68,0,0,0,.14-.23.71.71,0,0,0-.14-.73.81.81,0,0,0-.23-.17.73.73,0,0,0-.58,0,1,1,0,0,0-.23.17.75.75,0,0,0-.19.48Z"/><path d="M249.93,137.18h0a1.24,1.24,0,0,1-.37.12,1.84,1.84,0,0,1-.39,0,1.91,1.91,0,0,1-.68-.12,1.58,1.58,0,0,1-.54-.37,1.63,1.63,0,0,1-.36-.56,2.05,2.05,0,0,1-.13-.72,1.79,1.79,0,0,1,.15-.75,1.48,1.48,0,0,1,.4-.55,1.79,1.79,0,0,1,.6-.35,2,2,0,0,1,.75-.13,2.11,2.11,0,0,1,.75.13,1.79,1.79,0,0,1,.6.35,1.59,1.59,0,0,1,.4.55,1.79,1.79,0,0,1,.14.75,2.15,2.15,0,0,1,0,.45,1.68,1.68,0,0,1-.11.4,2.59,2.59,0,0,1-.17.38l-.21.36-1.51,2.39h-.78Zm-.59-.42a1.28,1.28,0,0,0,.48-.09,1,1,0,0,0,.39-.24,1.23,1.23,0,0,0,.26-.37,1.43,1.43,0,0,0,0-1,1.1,1.1,0,0,0-.65-.62,1.48,1.48,0,0,0-1,0,1.28,1.28,0,0,0-.39.24,1.12,1.12,0,0,0-.26.38,1.3,1.3,0,0,0,0,1,1.08,1.08,0,0,0,.26.37,1,1,0,0,0,.39.24A1.28,1.28,0,0,0,249.34,136.76Z"/><path d="M251.82,136.71a7.07,7.07,0,0,1,.08-1,3.19,3.19,0,0,1,.29-1,2,2,0,0,1,.59-.7,1.54,1.54,0,0,1,1-.28,1.49,1.49,0,0,1,.95.28,1.91,1.91,0,0,1,.59.7,2.94,2.94,0,0,1,.3,1,6.29,6.29,0,0,1,0,2,2.94,2.94,0,0,1-.3.95,1.91,1.91,0,0,1-.59.7,1.49,1.49,0,0,1-.95.28,1.54,1.54,0,0,1-1-.28,2,2,0,0,1-.59-.7,3.19,3.19,0,0,1-.29-.95A7.07,7.07,0,0,1,251.82,136.71Zm.67,0c0,.14,0,.29,0,.46a4.6,4.6,0,0,0,.06.52,4.7,4.7,0,0,0,.12.51,2,2,0,0,0,.23.44,1,1,0,0,0,.34.31,1,1,0,0,0,.48.11,1.06,1.06,0,0,0,.48-.11,1.24,1.24,0,0,0,.34-.31,1.65,1.65,0,0,0,.22-.44,3.18,3.18,0,0,0,.13-.51,4.6,4.6,0,0,0,.06-.52c0-.17,0-.32,0-.46s0-.29,0-.46a4.6,4.6,0,0,0-.06-.52,3.18,3.18,0,0,0-.13-.51,1.65,1.65,0,0,0-.22-.44,1.24,1.24,0,0,0-.34-.31,1.06,1.06,0,0,0-.48-.11,1,1,0,0,0-.48.11,1,1,0,0,0-.34.31,2,2,0,0,0-.23.44,4.7,4.7,0,0,0-.12.51,4.6,4.6,0,0,0-.06.52C252.5,136.42,252.49,136.57,252.49,136.71Z"/><path d="M256.42,134.93a1.13,1.13,0,0,1,.09-.45,1.31,1.31,0,0,1,.24-.37,1.18,1.18,0,0,1,.37-.24,1,1,0,0,1,.44-.09,1.13,1.13,0,0,1,.45.09,1.06,1.06,0,0,1,.61.61,1.13,1.13,0,0,1,.09.45,1,1,0,0,1-.09.44,1.06,1.06,0,0,1-.61.61,1.13,1.13,0,0,1-.45.09,1,1,0,0,1-.44-.09,1.18,1.18,0,0,1-.37-.24,1.31,1.31,0,0,1-.24-.37A1,1,0,0,1,256.42,134.93Zm.43,0a.69.69,0,0,0,0,.24,1,1,0,0,0,.15.24.73.73,0,0,0,.51.23.54.54,0,0,0,.29-.07.63.63,0,0,0,.23-.16.72.72,0,0,0,.14-.24.52.52,0,0,0,0-.24.56.56,0,0,0,0-.25.59.59,0,0,0-.14-.23.74.74,0,0,0-.52-.24.73.73,0,0,0-.29.07.62.62,0,0,0-.22.17.76.76,0,0,0-.15.23A.74.74,0,0,0,256.85,134.93Z"/><path d="M41.57,137.18h0a1.34,1.34,0,0,1-.37.12,2,2,0,0,1-.39,0,1.92,1.92,0,0,1-.69-.12,1.58,1.58,0,0,1-.54-.37,1.8,1.8,0,0,1-.36-.56,2.05,2.05,0,0,1-.13-.72,1.79,1.79,0,0,1,.15-.75,1.48,1.48,0,0,1,.4-.55,1.79,1.79,0,0,1,.6-.35,2.23,2.23,0,0,1,1.5,0,1.79,1.79,0,0,1,.6.35,1.48,1.48,0,0,1,.4.55,1.79,1.79,0,0,1,.15.75,3.14,3.14,0,0,1,0,.45,2.34,2.34,0,0,1-.12.4,1.84,1.84,0,0,1-.17.38,3.35,3.35,0,0,1-.21.36l-1.5,2.39h-.79Zm-.59-.42a1.28,1.28,0,0,0,.48-.09,1,1,0,0,0,.39-.24,1.23,1.23,0,0,0,.26-.37,1.3,1.3,0,0,0,0-1,1.1,1.1,0,0,0-.65-.62,1.48,1.48,0,0,0-1,0,1.1,1.1,0,0,0-.65.62,1.43,1.43,0,0,0,0,1,1.23,1.23,0,0,0,.26.37,1,1,0,0,0,.39.24A1.28,1.28,0,0,0,41,136.76Z"/><path d="M43.46,136.71a7.07,7.07,0,0,1,.08-1,2.94,2.94,0,0,1,.3-1,1.91,1.91,0,0,1,.59-.7,1.49,1.49,0,0,1,1-.28,1.54,1.54,0,0,1,1,.28,2,2,0,0,1,.59.7,3.19,3.19,0,0,1,.29,1,6.29,6.29,0,0,1,0,2,3.19,3.19,0,0,1-.29.95,2,2,0,0,1-.59.7,1.54,1.54,0,0,1-1,.28,1.49,1.49,0,0,1-1-.28,1.91,1.91,0,0,1-.59-.7,2.94,2.94,0,0,1-.3-.95A7.07,7.07,0,0,1,43.46,136.71Zm.67,0c0,.14,0,.29,0,.46a4.6,4.6,0,0,0,.06.52,3.18,3.18,0,0,0,.13.51,1.65,1.65,0,0,0,.22.44,1.12,1.12,0,0,0,.34.31,1.1,1.1,0,0,0,1,0,1.12,1.12,0,0,0,.34-.31,2,2,0,0,0,.23-.44,4.7,4.7,0,0,0,.12-.51,4.6,4.6,0,0,0,.06-.52c0-.17,0-.32,0-.46s0-.29,0-.46a4.6,4.6,0,0,0-.06-.52,4.7,4.7,0,0,0-.12-.51,2,2,0,0,0-.23-.44,1.12,1.12,0,0,0-.34-.31,1.1,1.1,0,0,0-1,0,1.12,1.12,0,0,0-.34.31,1.65,1.65,0,0,0-.22.44,3.18,3.18,0,0,0-.13.51,4.6,4.6,0,0,0-.06.52C44.14,136.42,44.13,136.57,44.13,136.71Z"/><path d="M48.06,134.93a1.13,1.13,0,0,1,.09-.45,1.06,1.06,0,0,1,.61-.61,1.13,1.13,0,0,1,.45-.09,1.08,1.08,0,0,1,.44.09,1.06,1.06,0,0,1,.61.61,1.13,1.13,0,0,1,.09.45,1,1,0,0,1-.09.44,1.06,1.06,0,0,1-.61.61,1.08,1.08,0,0,1-.44.09,1.13,1.13,0,0,1-.45-.09,1.06,1.06,0,0,1-.61-.61A1,1,0,0,1,48.06,134.93Zm.43,0a.53.53,0,0,0,.06.24.72.72,0,0,0,.14.24.69.69,0,0,0,.22.16.6.6,0,0,0,.3.07.73.73,0,0,0,.51-.23,1,1,0,0,0,.15-.24.69.69,0,0,0,.05-.24.74.74,0,0,0-.05-.25.76.76,0,0,0-.15-.23.62.62,0,0,0-.22-.17.73.73,0,0,0-.29-.07.73.73,0,0,0-.3.07.72.72,0,0,0-.22.17.59.59,0,0,0-.14.23A.57.57,0,0,0,48.49,134.93Z"/><path d="M148.37,38.51h-.68v-4.8h0l-1,.85-.4-.48,1.52-1.24h.59Z"/><path d="M150.49,34.23a1.48,1.48,0,0,1,.13-.61,1.2,1.2,0,0,1,.34-.46,1.44,1.44,0,0,1,.51-.3,1.92,1.92,0,0,1,1.28,0,1.44,1.44,0,0,1,.51.3,1.2,1.2,0,0,1,.34.46,1.33,1.33,0,0,1,.13.61,1.16,1.16,0,0,1-.07.4,1.41,1.41,0,0,1-.18.37,1.33,1.33,0,0,1-.29.29,1.18,1.18,0,0,1-.39.19h0a1.44,1.44,0,0,1,.46.19,1.35,1.35,0,0,1,.35.32,1.42,1.42,0,0,1,.23.44,1.7,1.7,0,0,1,.08.51,1.74,1.74,0,0,1-.14.69,1.43,1.43,0,0,1-.39.52,1.47,1.47,0,0,1-.57.33,2.35,2.35,0,0,1-1.42,0,1.47,1.47,0,0,1-.57-.33,1.55,1.55,0,0,1-.39-.52,1.74,1.74,0,0,1-.14-.69,1.7,1.7,0,0,1,.08-.51,1.67,1.67,0,0,1,.23-.44,1.35,1.35,0,0,1,.35-.32,1.44,1.44,0,0,1,.46-.19h0a1.18,1.18,0,0,1-.39-.19,1.33,1.33,0,0,1-.29-.29,1.41,1.41,0,0,1-.18-.37A1.46,1.46,0,0,1,150.49,34.23ZM151,36.9a1.18,1.18,0,0,0,.09.46,1.07,1.07,0,0,0,.25.35,1,1,0,0,0,.36.23,1.12,1.12,0,0,0,.88,0,1,1,0,0,0,.36-.23,1.07,1.07,0,0,0,.25-.35,1.18,1.18,0,0,0,.09-.46,1.14,1.14,0,0,0-.09-.46,1.13,1.13,0,0,0-.61-.58,1.12,1.12,0,0,0-.88,0,1.13,1.13,0,0,0-.61.58A1.14,1.14,0,0,0,151,36.9Zm.2-2.64a.88.88,0,0,0,.26.67,1,1,0,0,0,1.36,0,1,1,0,0,0,0-1.34,1,1,0,0,0-1.36,0A.88.88,0,0,0,151.17,34.26Z"/><path d="M154.64,35.68a7,7,0,0,1,.08-1,3.1,3.1,0,0,1,.29-1,2,2,0,0,1,.59-.71,1.6,1.6,0,0,1,1-.27,1.55,1.55,0,0,1,.95.27,1.94,1.94,0,0,1,.59.71,2.86,2.86,0,0,1,.3,1,7,7,0,0,1,.08,1,7.07,7.07,0,0,1-.08,1,2.88,2.88,0,0,1-.3.94,1.94,1.94,0,0,1-.59.71,1.55,1.55,0,0,1-.95.27,1.6,1.6,0,0,1-1-.27,2,2,0,0,1-.59-.71,3.13,3.13,0,0,1-.29-.94A7.07,7.07,0,0,1,154.64,35.68Zm.67,0c0,.13,0,.29,0,.46a4.88,4.88,0,0,0,.06.52,4.05,4.05,0,0,0,.12.5,1.66,1.66,0,0,0,.23.44,1.12,1.12,0,0,0,.34.31,1,1,0,0,0,1,0,1.12,1.12,0,0,0,.34-.31,1.4,1.4,0,0,0,.22-.44,2.83,2.83,0,0,0,.13-.5,4.88,4.88,0,0,0,.06-.52c0-.17,0-.33,0-.46s0-.3,0-.47a4.43,4.43,0,0,0-.06-.51,2.72,2.72,0,0,0-.13-.51,1.51,1.51,0,0,0-.22-.44,1.12,1.12,0,0,0-.34-.31,1,1,0,0,0-1,0,1.12,1.12,0,0,0-.34.31,1.83,1.83,0,0,0-.23.44,3.81,3.81,0,0,0-.12.51,4.43,4.43,0,0,0-.06.51C155.32,35.38,155.31,35.54,155.31,35.68Z"/><path d="M159.24,33.89a1.15,1.15,0,0,1,.33-.81,1,1,0,0,1,.37-.24,1,1,0,0,1,.44-.09,1.15,1.15,0,0,1,.82,2,1.15,1.15,0,0,1-.37.25,1.13,1.13,0,0,1-.45.09,1.15,1.15,0,0,1-.81-.34,1.15,1.15,0,0,1-.33-.81Zm.43,0a.79.79,0,0,0,.05.25,1.14,1.14,0,0,0,.15.23.62.62,0,0,0,.22.17.72.72,0,0,0,.29.06.68.68,0,0,0,.52-.23.79.79,0,0,0,.14-.23.65.65,0,0,0,0-.5.79.79,0,0,0-.14-.23.81.81,0,0,0-.23-.17.65.65,0,0,0-.29-.06.72.72,0,0,0-.29.06.76.76,0,0,0-.22.17,1.14,1.14,0,0,0-.15.23A.79.79,0,0,0,159.67,33.89Z"/><path d="M203.18,38.51h-.68v-4.8h0l-1,.85-.4-.48,1.52-1.24h.59Z"/><path d="M208.49,33.47h-2.31l0,1.53a1.08,1.08,0,0,1,.36-.11l.37,0a2,2,0,0,1,.74.14,1.61,1.61,0,0,1,.57.39,1.9,1.9,0,0,1,.37.59,2,2,0,0,1,.13.74,2,2,0,0,1-.15.78,1.74,1.74,0,0,1-.41.59,1.91,1.91,0,0,1-.61.38,2.2,2.2,0,0,1-.78.13,1.73,1.73,0,0,1-1-.28,2,2,0,0,1-.63-.75l.67-.25a1.31,1.31,0,0,0,.42.51,1.1,1.1,0,0,0,.64.2,1.28,1.28,0,0,0,.48-.09,1.26,1.26,0,0,0,.38-.27,1.15,1.15,0,0,0,.26-.41,1.53,1.53,0,0,0,.1-.54,1.38,1.38,0,0,0-.11-.55,1.08,1.08,0,0,0-.3-.4,1.26,1.26,0,0,0-.44-.25,1.67,1.67,0,0,0-.55-.08,1.84,1.84,0,0,0-.6.1,2.58,2.58,0,0,0-.56.25l.06-2.95h3Z"/><path d="M209.45,35.68a7,7,0,0,1,.08-1,3.1,3.1,0,0,1,.29-1,2,2,0,0,1,.59-.71,1.6,1.6,0,0,1,1-.27,1.55,1.55,0,0,1,.95.27,1.94,1.94,0,0,1,.59.71,2.86,2.86,0,0,1,.3,1,7,7,0,0,1,.08,1,7.07,7.07,0,0,1-.08,1,2.88,2.88,0,0,1-.3.94,1.94,1.94,0,0,1-.59.71,1.55,1.55,0,0,1-.95.27,1.6,1.6,0,0,1-1-.27,2,2,0,0,1-.59-.71,3.13,3.13,0,0,1-.29-.94A7.07,7.07,0,0,1,209.45,35.68Zm.67,0c0,.13,0,.29,0,.46a4.88,4.88,0,0,0,.06.52,4.05,4.05,0,0,0,.12.5,1.66,1.66,0,0,0,.23.44,1,1,0,0,0,.34.31.9.9,0,0,0,.48.12,1,1,0,0,0,.48-.12,1.24,1.24,0,0,0,.34-.31,1.4,1.4,0,0,0,.22-.44,2.83,2.83,0,0,0,.13-.5,4.88,4.88,0,0,0,.06-.52c0-.17,0-.33,0-.46s0-.3,0-.47a4.43,4.43,0,0,0-.06-.51,2.72,2.72,0,0,0-.13-.51,1.51,1.51,0,0,0-.22-.44,1.24,1.24,0,0,0-.34-.31,1,1,0,0,0-.48-.12.9.9,0,0,0-.48.12,1,1,0,0,0-.34.31,1.83,1.83,0,0,0-.23.44,3.81,3.81,0,0,0-.12.51,4.43,4.43,0,0,0-.06.51C210.13,35.38,210.12,35.54,210.12,35.68Z"/><path d="M214.05,33.89a1.15,1.15,0,0,1,.33-.81,1,1,0,0,1,.37-.24,1,1,0,0,1,.44-.09,1.13,1.13,0,0,1,.45.09,1,1,0,0,1,.36.24,1,1,0,0,1,.25.36,1.17,1.17,0,0,1,0,.9,1.23,1.23,0,0,1-.61.61,1.13,1.13,0,0,1-.45.09,1.15,1.15,0,0,1-.81-.34,1.15,1.15,0,0,1-.33-.81Zm.43,0a.79.79,0,0,0,.05.25,1.14,1.14,0,0,0,.15.23.62.62,0,0,0,.22.17.72.72,0,0,0,.29.06.68.68,0,0,0,.52-.23.79.79,0,0,0,.14-.23.65.65,0,0,0,0-.5.79.79,0,0,0-.14-.23.81.81,0,0,0-.23-.17.65.65,0,0,0-.29-.06.72.72,0,0,0-.29.06.76.76,0,0,0-.22.17,1.14,1.14,0,0,0-.15.23A.79.79,0,0,0,214.48,33.89Z"/><path d="M93.61,38.51h-.67v-4.8h0l-1,.85-.4-.48L93,32.84h.58Z"/><path d="M98.92,33.47H96.61l0,1.53a1,1,0,0,1,.35-.11l.37,0a1.91,1.91,0,0,1,.74.14,1.65,1.65,0,0,1,.58.39A1.71,1.71,0,0,1,99,36a2,2,0,0,1,.13.74,2,2,0,0,1-.15.78,1.71,1.71,0,0,1-.4.59,2,2,0,0,1-.62.38,2.15,2.15,0,0,1-.77.13,1.78,1.78,0,0,1-1.05-.28,1.85,1.85,0,0,1-.62-.75l.67-.25a1.16,1.16,0,0,0,.42.51,1.05,1.05,0,0,0,.63.2,1.28,1.28,0,0,0,.48-.09,1.23,1.23,0,0,0,.64-.68,1.33,1.33,0,0,0,.1-.54,1.38,1.38,0,0,0-.11-.55,1.18,1.18,0,0,0-.29-.4,1.41,1.41,0,0,0-.45-.25,1.63,1.63,0,0,0-.55-.08,1.78,1.78,0,0,0-.59.1,2.58,2.58,0,0,0-.56.25l0-2.95h3Z"/><path d="M99.88,35.68a7,7,0,0,1,.08-1,3.11,3.11,0,0,1,.3-1,1.94,1.94,0,0,1,.59-.71,1.55,1.55,0,0,1,1-.27,1.6,1.6,0,0,1,1,.27,2,2,0,0,1,.59.71,3.1,3.1,0,0,1,.29,1,5.77,5.77,0,0,1,.08,1,5.85,5.85,0,0,1-.08,1,3.13,3.13,0,0,1-.29.94,2,2,0,0,1-.59.71,1.6,1.6,0,0,1-1,.27,1.55,1.55,0,0,1-1-.27,1.94,1.94,0,0,1-.59-.71,3.14,3.14,0,0,1-.3-.94A7.07,7.07,0,0,1,99.88,35.68Zm.67,0c0,.13,0,.29,0,.46a4.88,4.88,0,0,0,.06.52,2.83,2.83,0,0,0,.13.5,1.4,1.4,0,0,0,.22.44,1.24,1.24,0,0,0,.34.31,1,1,0,0,0,.48.12.9.9,0,0,0,.48-.12,1,1,0,0,0,.34-.31,1.41,1.41,0,0,0,.23-.44,4.05,4.05,0,0,0,.12-.5,4.88,4.88,0,0,0,.06-.52c0-.17,0-.33,0-.46s0-.3,0-.47a4.43,4.43,0,0,0-.06-.51,3.81,3.81,0,0,0-.12-.51,1.53,1.53,0,0,0-.23-.44,1,1,0,0,0-.34-.31.9.9,0,0,0-.48-.12,1,1,0,0,0-.48.12,1.24,1.24,0,0,0-.34.31,1.51,1.51,0,0,0-.22.44,2.72,2.72,0,0,0-.13.51,4.43,4.43,0,0,0-.06.51C100.56,35.38,100.55,35.54,100.55,35.68Z"/><path d="M104.48,33.89a1.15,1.15,0,0,1,1.15-1.14,1,1,0,0,1,.44.09,1.12,1.12,0,0,1,.37.24,1.16,1.16,0,0,1,0,1.62,1.15,1.15,0,0,1-.37.25,1,1,0,0,1-.44.09,1.13,1.13,0,0,1-.45-.09,1.15,1.15,0,0,1-.37-.25,1.15,1.15,0,0,1-.33-.81Zm.43,0a.61.61,0,0,0,.06.25.79.79,0,0,0,.14.23.72.72,0,0,0,.22.17.73.73,0,0,0,.3.06.72.72,0,0,0,.29-.06.62.62,0,0,0,.22-.17,1.14,1.14,0,0,0,.15-.23.65.65,0,0,0,0-.5,1.14,1.14,0,0,0-.15-.23.76.76,0,0,0-.22-.17.72.72,0,0,0-.29-.06.73.73,0,0,0-.3.06.92.92,0,0,0-.22.17.79.79,0,0,0-.14.23A.61.61,0,0,0,104.91,33.89Z"/><path d="M248.75,192.45v0a1.35,1.35,0,0,1,.37-.13,2,2,0,0,1,.39,0,1.73,1.73,0,0,1,.69.13,1.42,1.42,0,0,1,.54.36,1.85,1.85,0,0,1,.36.57,2,2,0,0,1,.12.72,1.78,1.78,0,0,1-.14.74,1.74,1.74,0,0,1-.4.56,2,2,0,0,1-.6.35,2.36,2.36,0,0,1-.75.12,2.27,2.27,0,0,1-.75-.12,2,2,0,0,1-.6-.35,1.6,1.6,0,0,1-.4-.56,1.78,1.78,0,0,1-.15-.74,2.24,2.24,0,0,1,.15-.86,5.28,5.28,0,0,1,.39-.74l1.5-2.39h.79Zm.59.43a1.23,1.23,0,0,0-.87.32,1,1,0,0,0-.26.38,1.31,1.31,0,0,0-.1.5,1.35,1.35,0,0,0,.1.5,1.08,1.08,0,0,0,.26.37,1,1,0,0,0,.39.24,1.32,1.32,0,0,0,1,0,1,1,0,0,0,.39-.24,1.23,1.23,0,0,0,.26-.37,1.35,1.35,0,0,0,.09-.5,1.31,1.31,0,0,0-.09-.5,1.16,1.16,0,0,0-.26-.38,1.23,1.23,0,0,0-.87-.32Z"/><path d="M251.82,192.92a7.07,7.07,0,0,1,.08-1,3.13,3.13,0,0,1,.29-.94,2,2,0,0,1,.59-.71,1.6,1.6,0,0,1,1-.27,1.55,1.55,0,0,1,.95.27,1.94,1.94,0,0,1,.59.71,2.88,2.88,0,0,1,.3.94,7.07,7.07,0,0,1,.08,1,7,7,0,0,1-.08,1,2.86,2.86,0,0,1-.3,1,1.94,1.94,0,0,1-.59.71,1.55,1.55,0,0,1-.95.27,1.6,1.6,0,0,1-1-.27,2,2,0,0,1-.59-.71,3.1,3.1,0,0,1-.29-1A7,7,0,0,1,251.82,192.92Zm.67,0c0,.14,0,.3,0,.47a4.43,4.43,0,0,0,.06.51,3.81,3.81,0,0,0,.12.51,1.83,1.83,0,0,0,.23.44,1,1,0,0,0,.34.31.9.9,0,0,0,.48.12,1,1,0,0,0,.48-.12,1.24,1.24,0,0,0,.34-.31,1.51,1.51,0,0,0,.22-.44,2.72,2.72,0,0,0,.13-.51,4.43,4.43,0,0,0,.06-.51c0-.17,0-.33,0-.47s0-.29,0-.46a4.88,4.88,0,0,0-.06-.52,2.83,2.83,0,0,0-.13-.5,1.4,1.4,0,0,0-.22-.44,1.1,1.1,0,0,0-.34-.31,1,1,0,0,0-.48-.12.9.9,0,0,0-.48.12.92.92,0,0,0-.34.31,1.66,1.66,0,0,0-.23.44,4.05,4.05,0,0,0-.12.5,4.88,4.88,0,0,0-.06.52C252.5,192.63,252.49,192.79,252.49,192.92Z"/><path d="M256.42,191.14a1.15,1.15,0,0,1,.33-.81,1.05,1.05,0,0,1,.37-.25,1.23,1.23,0,0,1,.44-.08,1.33,1.33,0,0,1,.45.08,1.15,1.15,0,0,1,.37.25,1.16,1.16,0,0,1,0,1.62,1.15,1.15,0,0,1-.37.25,1.33,1.33,0,0,1-.45.08,1.23,1.23,0,0,1-.44-.08,1.05,1.05,0,0,1-.37-.25,1.15,1.15,0,0,1-.33-.81Zm.43,0a.79.79,0,0,0,0,.25,1.14,1.14,0,0,0,.15.23.62.62,0,0,0,.22.17.72.72,0,0,0,.29.06.68.68,0,0,0,.52-.23.79.79,0,0,0,.14-.23.65.65,0,0,0,0-.5.79.79,0,0,0-.14-.23.68.68,0,0,0-.52-.23.72.72,0,0,0-.29.06.62.62,0,0,0-.22.17,1.14,1.14,0,0,0-.15.23A.79.79,0,0,0,256.85,191.14Z"/><path d="M250,81.22h-.67v-4.8h0l-1,.86-.4-.49,1.52-1.23H250Z"/><path d="M251.92,80.45l2.13-2.08c.13-.12.25-.24.35-.35a2.16,2.16,0,0,0,.25-.32,1.09,1.09,0,0,0,.15-.33,1.38,1.38,0,0,0,0-.37,1,1,0,0,0-.08-.4.84.84,0,0,0-.22-.3.78.78,0,0,0-.33-.19,1.05,1.05,0,0,0-.4-.07,1,1,0,0,0-.71.25,1.08,1.08,0,0,0-.36.65l-.73-.06a1.83,1.83,0,0,1,.21-.61,1.41,1.41,0,0,1,.39-.45,2,2,0,0,1,.53-.27,2.25,2.25,0,0,1,.64-.09,2.41,2.41,0,0,1,.67.1,1.92,1.92,0,0,1,.55.29,1.44,1.44,0,0,1,.51,1.15,2,2,0,0,1-.09.61,2,2,0,0,1-.25.5,3.47,3.47,0,0,1-.35.43l-.41.4-1.75,1.64v0h2.89v.62h-3.64Z"/><path d="M256.27,78.39a5.85,5.85,0,0,1,.08-1,3.19,3.19,0,0,1,.29-1,2,2,0,0,1,.59-.7,1.54,1.54,0,0,1,1-.28,1.51,1.51,0,0,1,.95.28,1.91,1.91,0,0,1,.59.7,3.2,3.2,0,0,1,.3,1,6.29,6.29,0,0,1,0,2,3.2,3.2,0,0,1-.3,1,1.91,1.91,0,0,1-.59.7,1.51,1.51,0,0,1-.95.28,1.54,1.54,0,0,1-1-.28,2,2,0,0,1-.59-.7,3.19,3.19,0,0,1-.29-1A5.85,5.85,0,0,1,256.27,78.39Zm.67,0a3.78,3.78,0,0,0,0,.46c0,.17,0,.35.05.52a4.77,4.77,0,0,0,.13.51,1.67,1.67,0,0,0,.23.44,1,1,0,0,0,.34.31,1,1,0,0,0,.48.11,1.06,1.06,0,0,0,.48-.11,1.24,1.24,0,0,0,.34-.31,2,2,0,0,0,.22-.44,3.18,3.18,0,0,0,.13-.51,4.6,4.6,0,0,0,.06-.52c0-.17,0-.32,0-.46s0-.29,0-.46a4.35,4.35,0,0,0-.06-.52,3.18,3.18,0,0,0-.13-.51,2,2,0,0,0-.22-.44,1.24,1.24,0,0,0-.34-.31,1.06,1.06,0,0,0-.48-.11,1,1,0,0,0-.48.11,1,1,0,0,0-.34.31,1.67,1.67,0,0,0-.23.44,4.77,4.77,0,0,0-.13.51c0,.17,0,.34-.05.52A3.78,3.78,0,0,0,256.94,78.39Z"/><path d="M260.87,76.61a1.13,1.13,0,0,1,.09-.45,1,1,0,0,1,.24-.37,1.16,1.16,0,0,1,1.62,0,1.15,1.15,0,0,1,.25.37,1.13,1.13,0,0,1,.09.45,1,1,0,0,1-.09.44,1.15,1.15,0,0,1-.25.37,1.16,1.16,0,0,1-1.62,0,1,1,0,0,1-.24-.37A1,1,0,0,1,260.87,76.61Zm.43,0a.69.69,0,0,0,.05.24.75.75,0,0,0,.15.24.6.6,0,0,0,.22.16.64.64,0,0,0,.58,0,.63.63,0,0,0,.23-.16.72.72,0,0,0,.14-.24.52.52,0,0,0,.05-.24.56.56,0,0,0-.05-.25.59.59,0,0,0-.14-.23.66.66,0,0,0-.23-.17.64.64,0,0,0-.58,0,.62.62,0,0,0-.22.17.61.61,0,0,0-.15.23A.74.74,0,0,0,261.3,76.61Z"/><path d="M40.39,192.45v0a1.42,1.42,0,0,1,.38-.13,1.84,1.84,0,0,1,.39,0,1.72,1.72,0,0,1,.68.13,1.42,1.42,0,0,1,.54.36,1.85,1.85,0,0,1,.36.57,2,2,0,0,1,.13.72,1.78,1.78,0,0,1-.15.74,1.6,1.6,0,0,1-.4.56,2,2,0,0,1-.6.35,2.4,2.4,0,0,1-1.5,0,2,2,0,0,1-.6-.35,1.6,1.6,0,0,1-.4-.56,1.78,1.78,0,0,1-.15-.74,2.24,2.24,0,0,1,.16-.86,5.19,5.19,0,0,1,.38-.74l1.5-2.39h.79Zm.59.43a1.23,1.23,0,0,0-.87.32,1.16,1.16,0,0,0-.26.38,1.31,1.31,0,0,0-.09.5,1.35,1.35,0,0,0,.09.5,1.23,1.23,0,0,0,.26.37,1,1,0,0,0,.39.24,1.32,1.32,0,0,0,1,0,1,1,0,0,0,.39-.24,1.23,1.23,0,0,0,.26-.37,1.35,1.35,0,0,0,.1-.5,1.31,1.31,0,0,0-.1-.5,1.16,1.16,0,0,0-.26-.38,1.23,1.23,0,0,0-.87-.32Z"/><path d="M43.46,192.92a7.07,7.07,0,0,1,.08-1,2.88,2.88,0,0,1,.3-.94,1.94,1.94,0,0,1,.59-.71,1.55,1.55,0,0,1,1-.27,1.6,1.6,0,0,1,1,.27,2,2,0,0,1,.59.71,3.13,3.13,0,0,1,.29.94,7.07,7.07,0,0,1,.08,1,7,7,0,0,1-.08,1,3.1,3.1,0,0,1-.29,1,2,2,0,0,1-.59.71,1.6,1.6,0,0,1-1,.27,1.55,1.55,0,0,1-1-.27,1.94,1.94,0,0,1-.59-.71,2.86,2.86,0,0,1-.3-1A7,7,0,0,1,43.46,192.92Zm.67,0c0,.14,0,.3,0,.47a4.43,4.43,0,0,0,.06.51,2.72,2.72,0,0,0,.13.51,1.51,1.51,0,0,0,.22.44,1.12,1.12,0,0,0,.34.31,1,1,0,0,0,1,0,1.12,1.12,0,0,0,.34-.31,1.83,1.83,0,0,0,.23-.44,3.81,3.81,0,0,0,.12-.51,4.43,4.43,0,0,0,.06-.51c0-.17,0-.33,0-.47s0-.29,0-.46a4.88,4.88,0,0,0-.06-.52,4.05,4.05,0,0,0-.12-.5,1.66,1.66,0,0,0-.23-.44,1,1,0,0,0-.34-.31,1,1,0,0,0-1,0,1,1,0,0,0-.34.31,1.4,1.4,0,0,0-.22.44,2.83,2.83,0,0,0-.13.5,4.88,4.88,0,0,0-.06.52C44.14,192.63,44.13,192.79,44.13,192.92Z"/><path d="M48.06,191.14a1.15,1.15,0,0,1,.33-.81,1.15,1.15,0,0,1,.37-.25,1.33,1.33,0,0,1,.45-.08,1.27,1.27,0,0,1,.44.08,1.15,1.15,0,0,1,.37.25A1.16,1.16,0,0,1,50,192a1.15,1.15,0,0,1-.37.25,1.27,1.27,0,0,1-.44.08,1.33,1.33,0,0,1-.45-.08,1.15,1.15,0,0,1-.37-.25,1.15,1.15,0,0,1-.33-.81Zm.43,0a.61.61,0,0,0,.06.25.79.79,0,0,0,.14.23.72.72,0,0,0,.22.17.73.73,0,0,0,.3.06.72.72,0,0,0,.29-.06.62.62,0,0,0,.22-.17,1.14,1.14,0,0,0,.15-.23.65.65,0,0,0,0-.5,1.14,1.14,0,0,0-.15-.23.62.62,0,0,0-.22-.17.72.72,0,0,0-.29-.06.73.73,0,0,0-.3.06.72.72,0,0,0-.22.17.79.79,0,0,0-.14.23A.61.61,0,0,0,48.49,191.14Z"/><path d="M39.15,81.22h-.67v-4.8h0l-1,.86-.4-.49,1.52-1.23h.58Z"/><path d="M41.07,80.45l2.14-2.08c.13-.12.25-.24.35-.35a2.16,2.16,0,0,0,.25-.32,1.09,1.09,0,0,0,.15-.33A1.38,1.38,0,0,0,44,77a1,1,0,0,0-.08-.4.84.84,0,0,0-.22-.3.78.78,0,0,0-.33-.19A1.05,1.05,0,0,0,43,76a1,1,0,0,0-.72.25,1.19,1.19,0,0,0-.36.65l-.72-.06a1.47,1.47,0,0,1,.21-.61,1.41,1.41,0,0,1,.39-.45,2,2,0,0,1,.53-.27,2.2,2.2,0,0,1,.64-.09,2.41,2.41,0,0,1,.67.1,2.06,2.06,0,0,1,.55.29,1.47,1.47,0,0,1,.37.48,1.6,1.6,0,0,1,.14.67,2,2,0,0,1-.09.61,2.34,2.34,0,0,1-.25.5,3.47,3.47,0,0,1-.35.43l-.41.4-1.75,1.64v0h2.89v.62H41.07Z"/><path d="M45.43,78.39a7,7,0,0,1,.07-1,3.52,3.52,0,0,1,.3-1,2,2,0,0,1,.59-.7,1.77,1.77,0,0,1,1.91,0,1.91,1.91,0,0,1,.59.7,3.52,3.52,0,0,1,.3,1,6.29,6.29,0,0,1,0,2,3.52,3.52,0,0,1-.3,1,1.91,1.91,0,0,1-.59.7,1.77,1.77,0,0,1-1.91,0,2,2,0,0,1-.59-.7,3.52,3.52,0,0,1-.3-1A7,7,0,0,1,45.43,78.39Zm.67,0c0,.14,0,.29,0,.46a4.6,4.6,0,0,0,.06.52,4.77,4.77,0,0,0,.13.51,2,2,0,0,0,.22.44,1.15,1.15,0,0,0,.35.31,1,1,0,0,0,.48.11,1.06,1.06,0,0,0,.48-.11,1.24,1.24,0,0,0,.34-.31,2,2,0,0,0,.22-.44,3.18,3.18,0,0,0,.13-.51,4.6,4.6,0,0,0,.06-.52c0-.17,0-.32,0-.46s0-.29,0-.46a4.35,4.35,0,0,0-.06-.52,3.18,3.18,0,0,0-.13-.51,2,2,0,0,0-.22-.44,1.24,1.24,0,0,0-.34-.31,1.06,1.06,0,0,0-.48-.11,1,1,0,0,0-.48.11,1.15,1.15,0,0,0-.35.31,2,2,0,0,0-.22.44,4.77,4.77,0,0,0-.13.51,4.35,4.35,0,0,0-.06.52C46.1,78.1,46.1,78.25,46.1,78.39Z"/><path d="M50,76.61a1.12,1.12,0,0,1,.08-.45,1.15,1.15,0,0,1,.25-.37,1.16,1.16,0,0,1,1.62,0,1.15,1.15,0,0,1,.25.37,1.33,1.33,0,0,1,.08.45,1.23,1.23,0,0,1-.08.44,1.15,1.15,0,0,1-.25.37,1.16,1.16,0,0,1-1.62,0,1.15,1.15,0,0,1-.25-.37A1,1,0,0,1,50,76.61Zm.43,0a.52.52,0,0,0,0,.24.72.72,0,0,0,.14.24.63.63,0,0,0,.23.16.64.64,0,0,0,.58,0,.73.73,0,0,0,.23-.16,1,1,0,0,0,.14-.24.69.69,0,0,0,.05-.24.75.75,0,0,0-.19-.48.76.76,0,0,0-.23-.17.64.64,0,0,0-.58,0,.66.66,0,0,0-.23.17.59.59,0,0,0-.14.23A.56.56,0,0,0,50.46,76.61Z"/></g><g id="numeri_fondo_tabella" data-name="numeri fondo tabella"><path d="M131.83,251.42a1.17,1.17,0,0,0-.43-.35,1.19,1.19,0,0,0-.51-.11,1.35,1.35,0,0,0-.55.11,1.08,1.08,0,0,0-.4.3,1.32,1.32,0,0,0-.23.44,1.76,1.76,0,0,0,0,1.08,1.43,1.43,0,0,0,.26.45,1.31,1.31,0,0,0,.39.3,1.27,1.27,0,0,0,.52.1,1.09,1.09,0,0,0,1-.46l.47.44a1.69,1.69,0,0,1-.64.46,2.29,2.29,0,0,1-.78.14,2.22,2.22,0,0,1-.79-.14,1.75,1.75,0,0,1-1-1,2.27,2.27,0,0,1,0-1.57,1.86,1.86,0,0,1,.39-.63,2,2,0,0,1,.61-.41,2,2,0,0,1,.79-.15,2.09,2.09,0,0,1,.79.15,1.59,1.59,0,0,1,.65.45Z"/><path d="M136.21,253.56h0a1.43,1.43,0,0,1-.55.54,1.7,1.7,0,0,1-.89.22,1.8,1.8,0,0,1-.73-.15,1.78,1.78,0,0,1-.6-.41,1.81,1.81,0,0,1-.39-.62,2.06,2.06,0,0,1-.15-.79,2,2,0,0,1,.15-.78,1.88,1.88,0,0,1,.4-.63,1.81,1.81,0,0,1,.62-.41,2.07,2.07,0,0,1,.8-.15,1.72,1.72,0,0,1,.75.17,1.78,1.78,0,0,1,.59.47h0v-2.84h.62v6h-.62Zm0-1.21a1.63,1.63,0,0,0-.09-.55,1.34,1.34,0,0,0-.27-.44,1.37,1.37,0,0,0-.42-.29,1.35,1.35,0,0,0-.55-.11,1.42,1.42,0,0,0-.55.11,1.22,1.22,0,0,0-.41.29,1.34,1.34,0,0,0-.27.44,1.56,1.56,0,0,0,0,1.1,1.25,1.25,0,0,0,.27.44,1.19,1.19,0,0,0,1,.4,1.35,1.35,0,0,0,.55-.1,1.6,1.6,0,0,0,.42-.3,1.25,1.25,0,0,0,.27-.44A1.63,1.63,0,0,0,136.21,252.35Z"/><path d="M140.1,254.57l-.5-.2,2.4-6.15.51.2Z"/><path d="M147.64,254.22H147v-4.8h0l-1,.86-.4-.49,1.52-1.23h.59Z"/><path d="M149.46,251.39a7.07,7.07,0,0,1,.08-1,3.19,3.19,0,0,1,.29-.95,2,2,0,0,1,.59-.7,1.61,1.61,0,0,1,1-.28,1.55,1.55,0,0,1,1,.28,1.91,1.91,0,0,1,.59.7,2.94,2.94,0,0,1,.3.95,6.29,6.29,0,0,1,0,2,2.94,2.94,0,0,1-.3,1,1.91,1.91,0,0,1-.59.7,1.49,1.49,0,0,1-1,.28,1.54,1.54,0,0,1-1-.28,2,2,0,0,1-.59-.7,3.19,3.19,0,0,1-.29-1A7.07,7.07,0,0,1,149.46,251.39Zm.67,0c0,.14,0,.29,0,.47a4.43,4.43,0,0,0,.06.51,4.7,4.7,0,0,0,.12.51,2,2,0,0,0,.23.44,1.12,1.12,0,0,0,.34.31,1.1,1.1,0,0,0,1,0,1.12,1.12,0,0,0,.34-.31,1.65,1.65,0,0,0,.22-.44,3.18,3.18,0,0,0,.13-.51,4.43,4.43,0,0,0,.06-.51c0-.18,0-.33,0-.47s0-.29,0-.46a4.6,4.6,0,0,0-.06-.52,3.18,3.18,0,0,0-.13-.51,1.65,1.65,0,0,0-.22-.44,1.08,1.08,0,0,0-.34-.3,1,1,0,0,0-1,0,1.08,1.08,0,0,0-.34.3,2,2,0,0,0-.23.44,4.7,4.7,0,0,0-.12.51,4.6,4.6,0,0,0-.06.52C150.14,251.1,150.13,251.25,150.13,251.39Z"/><path d="M153.91,251.39a5.85,5.85,0,0,1,.08-1,3.19,3.19,0,0,1,.29-.95,2,2,0,0,1,.59-.7,1.61,1.61,0,0,1,1-.28,1.55,1.55,0,0,1,.95.28,1.91,1.91,0,0,1,.59.7,3.2,3.2,0,0,1,.3.95,6.29,6.29,0,0,1,0,2,3.2,3.2,0,0,1-.3,1,1.91,1.91,0,0,1-.59.7,1.49,1.49,0,0,1-.95.28,1.54,1.54,0,0,1-1-.28,2,2,0,0,1-.59-.7,3.19,3.19,0,0,1-.29-1A5.85,5.85,0,0,1,153.91,251.39Zm.67,0a4,4,0,0,0,0,.47,4.43,4.43,0,0,0,.06.51,3.14,3.14,0,0,0,.12.51,1.67,1.67,0,0,0,.23.44,1,1,0,0,0,.34.31.9.9,0,0,0,.48.11,1,1,0,0,0,.48-.11,1.24,1.24,0,0,0,.34-.31,1.65,1.65,0,0,0,.22-.44,3.18,3.18,0,0,0,.13-.51,4.43,4.43,0,0,0,.06-.51c0-.18,0-.33,0-.47s0-.29,0-.46a4.6,4.6,0,0,0-.06-.52,3.18,3.18,0,0,0-.13-.51,1.65,1.65,0,0,0-.22-.44,1.21,1.21,0,0,0-.34-.3,1,1,0,0,0-.48-.12.9.9,0,0,0-.48.12,1,1,0,0,0-.34.3,1.67,1.67,0,0,0-.23.44,3.14,3.14,0,0,0-.12.51,4.6,4.6,0,0,0-.06.52A3.78,3.78,0,0,0,154.58,251.39Z"/><path d="M158.31,251.39a5.85,5.85,0,0,1,.08-1,3.19,3.19,0,0,1,.29-.95,2,2,0,0,1,.59-.7,1.61,1.61,0,0,1,1-.28,1.55,1.55,0,0,1,1,.28,1.91,1.91,0,0,1,.59.7,3.2,3.2,0,0,1,.3.95,6.29,6.29,0,0,1,0,2,3.2,3.2,0,0,1-.3,1,1.91,1.91,0,0,1-.59.7,1.49,1.49,0,0,1-1,.28,1.54,1.54,0,0,1-1-.28,2,2,0,0,1-.59-.7,3.19,3.19,0,0,1-.29-1A5.85,5.85,0,0,1,158.31,251.39Zm.67,0c0,.14,0,.29,0,.47a4.43,4.43,0,0,0,.06.51,3.14,3.14,0,0,0,.12.51,1.67,1.67,0,0,0,.23.44,1,1,0,0,0,.34.31.9.9,0,0,0,.48.11,1,1,0,0,0,.48-.11,1.24,1.24,0,0,0,.34-.31,1.65,1.65,0,0,0,.22-.44,3.18,3.18,0,0,0,.13-.51,4.43,4.43,0,0,0,.06-.51c0-.18,0-.33,0-.47s0-.29,0-.46a4.6,4.6,0,0,0-.06-.52,3.18,3.18,0,0,0-.13-.51,1.65,1.65,0,0,0-.22-.44,1.21,1.21,0,0,0-.34-.3,1,1,0,0,0-.48-.12.9.9,0,0,0-.48.12,1,1,0,0,0-.34.3,1.67,1.67,0,0,0-.23.44,3.14,3.14,0,0,0-.12.51,4.6,4.6,0,0,0-.06.52C159,251.1,159,251.25,159,251.39Z"/><path d="M165.32,248.18H166v6h-.63Z"/><path d="M167.19,251.37c0-.17,0-.33,0-.48s0-.29,0-.41h.59c0,.1,0,.2,0,.3v.32h0a.91.91,0,0,1,.18-.27,1.64,1.64,0,0,1,.28-.23,1.5,1.5,0,0,1,.36-.16,1.44,1.44,0,0,1,.43-.06,1.52,1.52,0,0,1,.51.08,1.36,1.36,0,0,1,.34.18.93.93,0,0,1,.21.24,1.64,1.64,0,0,1,.12.22,1.78,1.78,0,0,1,.48-.53,1.27,1.27,0,0,1,.71-.19,1.88,1.88,0,0,1,.67.11,1.1,1.1,0,0,1,.44.31,1.37,1.37,0,0,1,.24.5,2.59,2.59,0,0,1,.07.65v2.27h-.62V252a2.33,2.33,0,0,0,0-.37,1,1,0,0,0-.15-.33.71.71,0,0,0-.28-.23,1,1,0,0,0-.45-.09,1,1,0,0,0-.37.08,1,1,0,0,0-.31.22,1.13,1.13,0,0,0-.21.35,1.33,1.33,0,0,0-.07.45v2.16h-.63V252.1a1.62,1.62,0,0,0-.17-.88A.6.6,0,0,0,169,251a1.18,1.18,0,0,0-.52.1.88.88,0,0,0-.36.3,1.14,1.14,0,0,0-.21.46,2.1,2.1,0,0,0-.07.58v1.82h-.62Z"/><line class="cls-1" x1="38.21" y1="253" x2="46.2" y2="253"/><path d="M235.17,251a1.66,1.66,0,0,0-.63-.52,1.93,1.93,0,0,0-.79-.17,2.13,2.13,0,0,0-.87.19,2.16,2.16,0,0,0-.68.52,2.58,2.58,0,0,0-.45.75,2.69,2.69,0,0,0-.16.89,2.79,2.79,0,0,0,.16.93,2.41,2.41,0,0,0,.45.74,2,2,0,0,0,.68.5,1.92,1.92,0,0,0,.87.19,2,2,0,0,0,1.64-.8l.51.43a2.38,2.38,0,0,1-.93.75,3,3,0,0,1-1.22.24,2.85,2.85,0,0,1-1.13-.22,2.82,2.82,0,0,1-.92-.62,3,3,0,0,1-.61-.94,3.33,3.33,0,0,1-.22-1.2,3.19,3.19,0,0,1,.21-1.16,2.9,2.9,0,0,1,.6-1,3.08,3.08,0,0,1,.91-.63,3,3,0,0,1,2.27,0,2,2,0,0,1,.89.68Z"/><path d="M239,253.1l0,0a1.35,1.35,0,0,1-.37.13,2.87,2.87,0,0,1-.39,0,1.68,1.68,0,0,1-.68-.13,1.5,1.5,0,0,1-.55-.36,1.92,1.92,0,0,1-.36-.56,2.11,2.11,0,0,1-.12-.73,1.75,1.75,0,0,1,.14-.74,1.63,1.63,0,0,1,.4-.56,1.79,1.79,0,0,1,.6-.35,2.36,2.36,0,0,1,.75-.12,2.27,2.27,0,0,1,.75.12,1.94,1.94,0,0,1,.61.35,1.49,1.49,0,0,1,.39.56,1.75,1.75,0,0,1,.15.74,2.19,2.19,0,0,1,0,.46c0,.14-.07.27-.11.4a2.53,2.53,0,0,1-.18.37,3.35,3.35,0,0,1-.21.36l-1.5,2.4h-.79Zm-.6-.43a1.51,1.51,0,0,0,.48-.08,1.28,1.28,0,0,0,.39-.24,1.12,1.12,0,0,0,.26-.38,1.27,1.27,0,0,0,.1-.5,1.26,1.26,0,0,0-.1-.49,1,1,0,0,0-.26-.38,1,1,0,0,0-.39-.24,1.33,1.33,0,0,0-1,0,.88.88,0,0,0-.38.24,1.19,1.19,0,0,0-.27.38,1.26,1.26,0,0,0-.09.49,1.28,1.28,0,0,0,.09.5,1.31,1.31,0,0,0,.27.38,1.12,1.12,0,0,0,.38.24A1.51,1.51,0,0,0,238.35,252.67Z"/><path d="M240.88,252.62a7.07,7.07,0,0,1,.08-1,2.88,2.88,0,0,1,.3-.94,2,2,0,0,1,.58-.71,1.84,1.84,0,0,1,1.92,0,2,2,0,0,1,.58.71,2.88,2.88,0,0,1,.3.94,7.07,7.07,0,0,1,.08,1,7,7,0,0,1-.08,1,2.86,2.86,0,0,1-.3.95,2,2,0,0,1-.58.71,1.84,1.84,0,0,1-1.92,0,2,2,0,0,1-.58-.71,2.86,2.86,0,0,1-.3-.95A7,7,0,0,1,240.88,252.62Zm.67,0c0,.14,0,.3,0,.47a4.43,4.43,0,0,0,.06.51,2.72,2.72,0,0,0,.13.51,1.51,1.51,0,0,0,.22.44,1.12,1.12,0,0,0,.34.31,1,1,0,0,0,1,0,1.12,1.12,0,0,0,.34-.31,1.51,1.51,0,0,0,.22-.44,2.72,2.72,0,0,0,.13-.51,4.43,4.43,0,0,0,.06-.51c0-.17,0-.33,0-.47s0-.29,0-.46a4.88,4.88,0,0,0-.06-.52,2.83,2.83,0,0,0-.13-.5,1.4,1.4,0,0,0-.22-.44,1.12,1.12,0,0,0-.34-.31,1,1,0,0,0-1,0,1.12,1.12,0,0,0-.34.31,1.4,1.4,0,0,0-.22.44,2.83,2.83,0,0,0-.13.5,4.88,4.88,0,0,0-.06.52C241.56,252.33,241.55,252.49,241.55,252.62Z"/><path d="M247.78,255.8l-.51-.2,2.41-6.14.5.19Z"/><path d="M257.1,251a1.66,1.66,0,0,0-.63-.52,1.92,1.92,0,0,0-.78-.17,2.06,2.06,0,0,0-.87.19,2.16,2.16,0,0,0-.68.52,2.21,2.21,0,0,0-.45.75,2.46,2.46,0,0,0-.16.89,2.56,2.56,0,0,0,.16.93,2.2,2.2,0,0,0,.44.74,2.1,2.1,0,0,0,.68.5,2,2,0,0,0,.88.19,2,2,0,0,0,.93-.21,2,2,0,0,0,.71-.59l.5.43a2.29,2.29,0,0,1-.92.75,3,3,0,0,1-1.22.24,2.8,2.8,0,0,1-2.05-.84,2.82,2.82,0,0,1-.61-.94,3.13,3.13,0,0,1-.22-1.2,3.19,3.19,0,0,1,.21-1.16,2.75,2.75,0,0,1,.6-1,3,3,0,0,1,.91-.63,2.93,2.93,0,0,1,1.16-.23,3,3,0,0,1,1.11.21,2,2,0,0,1,.89.68Z"/><path d="M258.46,254.69l2.14-2.08.35-.36a1.75,1.75,0,0,0,.25-.32,1,1,0,0,0,.15-.32,1.46,1.46,0,0,0,0-.38,1,1,0,0,0-.08-.4.93.93,0,0,0-.22-.3,1.13,1.13,0,0,0-.73-.26,1,1,0,0,0-.71.25,1.11,1.11,0,0,0-.36.66l-.73-.07a1.91,1.91,0,0,1,.21-.61,1.28,1.28,0,0,1,.39-.44,1.77,1.77,0,0,1,.53-.27,2.25,2.25,0,0,1,.64-.09,2.09,2.09,0,0,1,.67.1,1.53,1.53,0,0,1,.55.29,1.47,1.47,0,0,1,.37.48,1.39,1.39,0,0,1,.14.66,1.91,1.91,0,0,1-.09.61,1.8,1.8,0,0,1-.25.5,2.86,2.86,0,0,1-.35.43l-.41.41-1.75,1.64h2.89v.63h-3.65Z"/><path d="M266.35,250.42l-2.26,5h-.76l2.3-5H262.9v-.63h3.45Z"/><path d="M267.26,252.62a7.07,7.07,0,0,1,.08-1,3.45,3.45,0,0,1,.3-.94,2,2,0,0,1,.59-.71,1.82,1.82,0,0,1,1.91,0,2,2,0,0,1,.59.71,3.45,3.45,0,0,1,.3.94,7,7,0,0,1,.07,1,6.92,6.92,0,0,1-.07,1,3.41,3.41,0,0,1-.3.95,2,2,0,0,1-.59.71,1.82,1.82,0,0,1-1.91,0,2,2,0,0,1-.59-.71,3.41,3.41,0,0,1-.3-.95A7,7,0,0,1,267.26,252.62Zm.68,0c0,.14,0,.3,0,.47a4.43,4.43,0,0,0,.06.51,2.72,2.72,0,0,0,.13.51,1.53,1.53,0,0,0,.23.44,1,1,0,0,0,.34.31.89.89,0,0,0,.47.12,1,1,0,0,0,.49-.12,1.08,1.08,0,0,0,.33-.31,1.53,1.53,0,0,0,.23-.44,2.72,2.72,0,0,0,.13-.51,4.43,4.43,0,0,0,.06-.51c0-.17,0-.33,0-.47s0-.29,0-.46a4.88,4.88,0,0,0-.06-.52,2.83,2.83,0,0,0-.13-.5,1.41,1.41,0,0,0-.23-.44,1.08,1.08,0,0,0-.33-.31,1,1,0,0,0-.49-.12.89.89,0,0,0-.47.12,1,1,0,0,0-.34.31,1.41,1.41,0,0,0-.23.44,2.83,2.83,0,0,0-.13.5,4.88,4.88,0,0,0-.06.52C267.94,252.33,267.94,252.49,267.94,252.62Z"/><path d="M52.87,251a1.55,1.55,0,0,0-.63-.51,1.82,1.82,0,0,0-.79-.18,2,2,0,0,0-.87.2,2.13,2.13,0,0,0-.68.51,2.58,2.58,0,0,0-.45.75,2.67,2.67,0,0,0,0,1.82,2.29,2.29,0,0,0,.45.74,1.88,1.88,0,0,0,.68.5,1.92,1.92,0,0,0,.87.19,2,2,0,0,0,.93-.21,2.07,2.07,0,0,0,.71-.58l.51.42a2.38,2.38,0,0,1-.93.75,3,3,0,0,1-1.22.24,2.85,2.85,0,0,1-1.13-.22,2.82,2.82,0,0,1-.92-.62,3,3,0,0,1-.61-.94,3.27,3.27,0,0,1-.22-1.19,3.2,3.2,0,0,1,.21-1.17,3,3,0,0,1,.6-.95,3.08,3.08,0,0,1,.91-.63,3,3,0,0,1,2.27,0,2,2,0,0,1,.89.68Z"/><path d="M54.13,252.62a7,7,0,0,1,.08-1,3.11,3.11,0,0,1,.3-1,1.94,1.94,0,0,1,.59-.71,1.55,1.55,0,0,1,.95-.27,1.6,1.6,0,0,1,1,.27,2,2,0,0,1,.59.71,3.1,3.1,0,0,1,.29,1,5.77,5.77,0,0,1,.08,1,5.85,5.85,0,0,1-.08,1,3.13,3.13,0,0,1-.29.94,2,2,0,0,1-.59.71,1.6,1.6,0,0,1-1,.27,1.55,1.55,0,0,1-.95-.27,1.94,1.94,0,0,1-.59-.71,3.14,3.14,0,0,1-.3-.94A7.07,7.07,0,0,1,54.13,252.62Zm.67,0c0,.13,0,.29,0,.46a4.88,4.88,0,0,0,.06.52,2.83,2.83,0,0,0,.13.5,1.4,1.4,0,0,0,.22.44,1.1,1.1,0,0,0,.34.31,1,1,0,0,0,.48.12.9.9,0,0,0,.48-.12.92.92,0,0,0,.34-.31,1.41,1.41,0,0,0,.23-.44,2.8,2.8,0,0,0,.12-.5,4.88,4.88,0,0,0,.06-.52,3.86,3.86,0,0,0,0-.46,3.94,3.94,0,0,0,0-.47,4.43,4.43,0,0,0-.06-.51,2.71,2.71,0,0,0-.12-.51,1.53,1.53,0,0,0-.23-.44,1,1,0,0,0-.34-.31.9.9,0,0,0-.48-.12,1,1,0,0,0-.48.12,1.24,1.24,0,0,0-.34.31,1.51,1.51,0,0,0-.22.44,2.72,2.72,0,0,0-.13.51,4.43,4.43,0,0,0-.06.51C54.81,252.32,54.8,252.48,54.8,252.62Z"/><path d="M61,255.79l-.51-.2,2.41-6.14.51.19Z"/><path d="M70.36,251a1.52,1.52,0,0,0-.64-.51,1.78,1.78,0,0,0-.78-.18,2,2,0,0,0-.87.2,2.13,2.13,0,0,0-.68.51,2.58,2.58,0,0,0-.45.75,2.51,2.51,0,0,0-.16.9,2.54,2.54,0,0,0,.16.92,2.46,2.46,0,0,0,.44.74,2.09,2.09,0,0,0,1.56.69,2,2,0,0,0,.93-.21,2.07,2.07,0,0,0,.71-.58l.5.42a2.29,2.29,0,0,1-.92.75,3,3,0,0,1-1.22.24,2.93,2.93,0,0,1-1.14-.22,2.88,2.88,0,0,1-.91-.62,3,3,0,0,1-.61-.94,3.07,3.07,0,0,1-.22-1.19,3.2,3.2,0,0,1,.21-1.17,2.84,2.84,0,0,1,.6-.95,3,3,0,0,1,.91-.63,2.93,2.93,0,0,1,1.16-.23,3,3,0,0,1,1.11.21,2,2,0,0,1,.89.68Z"/><path d="M74.2,255.45h-.68v-4.8h0l-1,.85-.4-.48,1.52-1.24h.59Z"/><path d="M76.37,251.17a1.33,1.33,0,0,1,.13-.61,1.2,1.2,0,0,1,.34-.46,1.44,1.44,0,0,1,.51-.3,1.92,1.92,0,0,1,1.28,0,1.44,1.44,0,0,1,.51.3,1.32,1.32,0,0,1,.34.46,1.48,1.48,0,0,1,.12.61,1.44,1.44,0,0,1-.06.4,1.41,1.41,0,0,1-.18.37,1.18,1.18,0,0,1-.3.29,1,1,0,0,1-.38.19h0a1.44,1.44,0,0,1,.46.19,1.35,1.35,0,0,1,.35.32,1.67,1.67,0,0,1,.23.44,1.7,1.7,0,0,1,.08.51,1.74,1.74,0,0,1-.14.69,1.46,1.46,0,0,1-.39.52,1.47,1.47,0,0,1-.57.33,2.35,2.35,0,0,1-1.42,0,1.59,1.59,0,0,1-.58-.33,1.43,1.43,0,0,1-.38-.52,1.74,1.74,0,0,1-.14-.69,1.7,1.7,0,0,1,.08-.51,1.65,1.65,0,0,1,.22-.44,1.59,1.59,0,0,1,.36-.32,1.44,1.44,0,0,1,.46-.19h0a1.18,1.18,0,0,1-.39-.19,1.33,1.33,0,0,1-.29-.29,1.41,1.41,0,0,1-.18-.37A1.16,1.16,0,0,1,76.37,251.17Zm.48,2.67a1.14,1.14,0,0,0,.09.46,1.21,1.21,0,0,0,.24.35,1.16,1.16,0,0,0,.36.23A1.13,1.13,0,0,0,78,255a1,1,0,0,0,.44-.09,1,1,0,0,0,.36-.23,1.07,1.07,0,0,0,.25-.35,1.36,1.36,0,0,0,0-.92,1.07,1.07,0,0,0-.25-.35,1,1,0,0,0-.36-.23,1,1,0,0,0-.44-.09,1.13,1.13,0,0,0-.45.09,1.16,1.16,0,0,0-.36.23,1.21,1.21,0,0,0-.24.35A1.14,1.14,0,0,0,76.85,253.84ZM77,251.2a.92.92,0,0,0,.26.67.93.93,0,0,0,.69.27.9.9,0,0,0,.68-.27,1,1,0,0,0,0-1.34.9.9,0,0,0-.68-.27.93.93,0,0,0-.69.27A.92.92,0,0,0,77,251.2Z"/><path d="M80.52,252.62a5.77,5.77,0,0,1,.08-1,3.1,3.1,0,0,1,.29-1,2,2,0,0,1,.59-.71,1.6,1.6,0,0,1,1-.27,1.55,1.55,0,0,1,1,.27,1.94,1.94,0,0,1,.59.71,3.41,3.41,0,0,1,.3,1,7,7,0,0,1,.08,1,7.07,7.07,0,0,1-.08,1,3.45,3.45,0,0,1-.3.94,1.94,1.94,0,0,1-.59.71,1.55,1.55,0,0,1-1,.27,1.6,1.6,0,0,1-1-.27,2,2,0,0,1-.59-.71,3.13,3.13,0,0,1-.29-.94A5.85,5.85,0,0,1,80.52,252.62Zm.67,0a3.86,3.86,0,0,0,0,.46c0,.17,0,.34.05.52a4.07,4.07,0,0,0,.13.5,1.41,1.41,0,0,0,.23.44.92.92,0,0,0,.34.31.9.9,0,0,0,.48.12,1,1,0,0,0,.48-.12,1.1,1.1,0,0,0,.34-.31,1.65,1.65,0,0,0,.22-.44,2.83,2.83,0,0,0,.13-.5,4.88,4.88,0,0,0,.06-.52c0-.17,0-.33,0-.46s0-.3,0-.47a4.43,4.43,0,0,0-.06-.51,2.72,2.72,0,0,0-.13-.51,1.81,1.81,0,0,0-.22-.44,1.24,1.24,0,0,0-.34-.31,1,1,0,0,0-.48-.12.9.9,0,0,0-.48.12,1,1,0,0,0-.34.31,1.53,1.53,0,0,0-.23.44,3.8,3.8,0,0,0-.13.51c0,.17,0,.34-.05.51A3.94,3.94,0,0,0,81.19,252.62Z"/><line class="cls-2" x1="214.49" y1="253.42" x2="215.03" y2="253.42"/><line class="cls-2" x1="217.76" y1="253.42" x2="218.3" y2="253.42"/><line class="cls-2" x1="221.02" y1="253.42" x2="221.56" y2="253.42"/><line class="cls-2" x1="224.29" y1="253.42" x2="224.83" y2="253.42"/><line class="cls-2" x1="227.55" y1="253.42" x2="228.09" y2="253.42"/></g><g id="Spun_Light_T2_F66110"><path d="M55,12.09H59.4v.78H55.85v2.34h3.3V16h-3.3v3.18H55Z"/><path d="M61.73,15l0,0a2,2,0,0,1,.47-.16,2.9,2.9,0,0,1,.48-.05,2.43,2.43,0,0,1,.86.16,2,2,0,0,1,.68.46,1.94,1.94,0,0,1,.44.7,2.44,2.44,0,0,1,.16.9,2.27,2.27,0,0,1-.18.93,1.87,1.87,0,0,1-.5.7,2.32,2.32,0,0,1-.75.44,3,3,0,0,1-1.87,0,2.48,2.48,0,0,1-.76-.44,2,2,0,0,1-.5-.7,2.27,2.27,0,0,1-.18-.93A3,3,0,0,1,60.29,16a7.39,7.39,0,0,1,.48-.92l1.88-3h1Zm.74.53a1.73,1.73,0,0,0-.6.11,1.39,1.39,0,0,0-.48.3,1.43,1.43,0,0,0-.33.47,1.59,1.59,0,0,0-.12.62,1.57,1.57,0,0,0,.12.63,1.43,1.43,0,0,0,.33.47,1.39,1.39,0,0,0,.48.3,1.72,1.72,0,0,0,.6.1,1.64,1.64,0,0,0,.6-.1,1.44,1.44,0,0,0,.49-.3,1.49,1.49,0,0,0,.44-1.1,1.59,1.59,0,0,0-.12-.62,1.56,1.56,0,0,0-.32-.47,1.44,1.44,0,0,0-.49-.3A1.64,1.64,0,0,0,62.47,15.57Z"/><path d="M67.29,15l0,0a2,2,0,0,1,.47-.16,2.9,2.9,0,0,1,.48-.05,2.43,2.43,0,0,1,.86.16,2,2,0,0,1,.68.46,1.94,1.94,0,0,1,.44.7,2.44,2.44,0,0,1,.16.9,2.27,2.27,0,0,1-.18.93,1.87,1.87,0,0,1-.5.7,2.32,2.32,0,0,1-.75.44,3,3,0,0,1-1.87,0,2.48,2.48,0,0,1-.76-.44,2,2,0,0,1-.5-.7,2.27,2.27,0,0,1-.18-.93A3,3,0,0,1,65.85,16a7.39,7.39,0,0,1,.48-.92l1.88-3h1Zm.74.53a1.73,1.73,0,0,0-.6.11A1.39,1.39,0,0,0,67,16a1.43,1.43,0,0,0-.33.47,1.59,1.59,0,0,0-.12.62,1.57,1.57,0,0,0,.12.63,1.43,1.43,0,0,0,.33.47,1.39,1.39,0,0,0,.48.3,1.72,1.72,0,0,0,.6.1,1.64,1.64,0,0,0,.6-.1,1.44,1.44,0,0,0,.49-.3,1.49,1.49,0,0,0,.44-1.1,1.59,1.59,0,0,0-.12-.62,1.56,1.56,0,0,0-.32-.47,1.44,1.44,0,0,0-.49-.3A1.64,1.64,0,0,0,68,15.57Z"/><path d="M74.41,19.17h-.84v-6h0l-1.27,1.07-.5-.61,1.9-1.54h.73Z"/><path d="M80,19.17h-.84v-6h0l-1.27,1.07-.5-.61,1.9-1.54H80Z"/><path d="M82.31,15.63a9.26,9.26,0,0,1,.1-1.25,4,4,0,0,1,.37-1.18,2.44,2.44,0,0,1,.74-.88,2.22,2.22,0,0,1,2.39,0,2.41,2.41,0,0,1,.73.88A3.71,3.71,0,0,1,87,14.38a7.88,7.88,0,0,1,.1,1.25,7.79,7.79,0,0,1-.1,1.25,3.77,3.77,0,0,1-.37,1.19,2.5,2.5,0,0,1-.73.88,2.27,2.27,0,0,1-2.39,0,2.53,2.53,0,0,1-.74-.88,4,4,0,0,1-.37-1.19A9.14,9.14,0,0,1,82.31,15.63Zm.84,0c0,.18,0,.37,0,.58s0,.43.08.65a3.42,3.42,0,0,0,.16.63,1.9,1.9,0,0,0,.28.55,1.42,1.42,0,0,0,.42.39,1.27,1.27,0,0,0,.6.14,1.21,1.21,0,0,0,.6-.14,1.45,1.45,0,0,0,.43-.39,2.19,2.19,0,0,0,.28-.55,4.47,4.47,0,0,0,.16-.63c0-.22.06-.43.07-.65s0-.4,0-.58,0-.36,0-.58,0-.43-.07-.64a4.61,4.61,0,0,0-.16-.64,2.37,2.37,0,0,0-.28-.55,1.3,1.3,0,0,0-.43-.38,1.11,1.11,0,0,0-.6-.15,1.16,1.16,0,0,0-.6.15,1.27,1.27,0,0,0-.42.38,2,2,0,0,0-.28.55,3.53,3.53,0,0,0-.16.64c0,.21-.06.43-.08.64S83.15,15.46,83.15,15.63Z"/><path d="M87.49,19.92h5v.5h-5Z"/><path d="M93,18.21l2.67-2.6c.17-.16.32-.31.44-.44a3.5,3.5,0,0,0,.32-.4,1.65,1.65,0,0,0,.18-.41,1.68,1.68,0,0,0,.06-.47,1.18,1.18,0,0,0-.1-.5,1.11,1.11,0,0,0-.27-.37,1.14,1.14,0,0,0-.41-.24,1.44,1.44,0,0,0-.51-.09,1.34,1.34,0,0,0-.89.31,1.47,1.47,0,0,0-.45.82l-.91-.08a2.29,2.29,0,0,1,.27-.76,1.77,1.77,0,0,1,.49-.56,2.15,2.15,0,0,1,.66-.33,2.63,2.63,0,0,1,.8-.12,2.49,2.49,0,0,1,.83.13,2.06,2.06,0,0,1,.69.36,1.87,1.87,0,0,1,.47.6,2,2,0,0,1,.17.83,2.53,2.53,0,0,1-.11.76,2.64,2.64,0,0,1-.31.63,4.51,4.51,0,0,1-.44.54c-.17.17-.34.34-.52.5l-2.18,2.05v0h3.61v.78H93Z"/><path d="M102.79,12.87H99.9l0,1.91a1.57,1.57,0,0,1,.45-.13,2.53,2.53,0,0,1,.46,0,2.34,2.34,0,0,1,.93.18,2.06,2.06,0,0,1,.71.49,2,2,0,0,1,.46.74,2.71,2.71,0,0,1,0,1.89,2.44,2.44,0,0,1-.51.74,2.31,2.31,0,0,1-.77.47,2.57,2.57,0,0,1-1,.17,2.15,2.15,0,0,1-1.3-.35,2.44,2.44,0,0,1-.79-.94l.84-.32a1.61,1.61,0,0,0,.53.65,1.34,1.34,0,0,0,.79.24,1.68,1.68,0,0,0,.6-.11,1.58,1.58,0,0,0,.48-.33,1.62,1.62,0,0,0,.32-.52,1.78,1.78,0,0,0,.12-.67,1.67,1.67,0,0,0-.13-.69,1.45,1.45,0,0,0-.37-.5,1.53,1.53,0,0,0-.56-.31,2.17,2.17,0,0,0-.69-.11,2.22,2.22,0,0,0-.74.13,4,4,0,0,0-.7.31l.07-3.68h3.71Z"/><path d="M104,15.63a9.26,9.26,0,0,1,.1-1.25,4,4,0,0,1,.37-1.18,2.44,2.44,0,0,1,.74-.88,2.22,2.22,0,0,1,2.39,0,2.41,2.41,0,0,1,.73.88,3.71,3.71,0,0,1,.37,1.18,7.88,7.88,0,0,1,.1,1.25,7.79,7.79,0,0,1-.1,1.25,3.77,3.77,0,0,1-.37,1.19,2.5,2.5,0,0,1-.73.88,2.27,2.27,0,0,1-2.39,0,2.53,2.53,0,0,1-.74-.88,4,4,0,0,1-.37-1.19A9.14,9.14,0,0,1,104,15.63Zm.84,0c0,.18,0,.37,0,.58s0,.43.08.65a3.42,3.42,0,0,0,.16.63,1.9,1.9,0,0,0,.28.55,1.42,1.42,0,0,0,.42.39,1.27,1.27,0,0,0,.6.14,1.21,1.21,0,0,0,.6-.14,1.45,1.45,0,0,0,.43-.39,2.19,2.19,0,0,0,.28-.55,4.47,4.47,0,0,0,.16-.63,4.78,4.78,0,0,0,.07-.65c0-.21,0-.4,0-.58s0-.36,0-.58a4.79,4.79,0,0,0-.23-1.28,2.37,2.37,0,0,0-.28-.55,1.3,1.3,0,0,0-.43-.38,1.11,1.11,0,0,0-.6-.15,1.16,1.16,0,0,0-.6.15,1.27,1.27,0,0,0-.42.38,2,2,0,0,0-.28.55,3.53,3.53,0,0,0-.16.64c0,.21-.06.43-.08.64S104.83,15.46,104.83,15.63Z"/><path d="M109.23,12.09h.93L111.77,18h0l1.74-5.88h.94L116.2,18h0l1.64-5.88h.88l-2.08,7.08h-.91l-1.75-6h0l-1.76,6h-.92Z"/><path d="M122.39,12.09h.84v3H127v-3h.84v7.08H127v-3.3h-3.78v3.3h-.84Z"/><path d="M129.68,12.09h.84v6.3h3.24v.78h-4.08Z"/><rect class="cls-3" x="55.05" y="41.96" width="189.86" height="189.86"/><circle class="cls-4" cx="149.98" cy="136.84" r="23.71"/><path d="M154,166.67h.81v.63H154v1.29h-.67V167.3h-2.4v-.75l2.24-3.62H154Zm-.67-3h0l-1.81,3h1.83Z"/><path d="M155.33,165.76a7.07,7.07,0,0,1,.08-1,3,3,0,0,1,.3-.95,2,2,0,0,1,.58-.7,1.79,1.79,0,0,1,1.92,0,2,2,0,0,1,.58.7,3,3,0,0,1,.3.95,7.07,7.07,0,0,1,.08,1,7,7,0,0,1-.08,1,2.94,2.94,0,0,1-.3,1,1.9,1.9,0,0,1-.58.7,1.79,1.79,0,0,1-1.92,0,1.9,1.9,0,0,1-.58-.7,2.94,2.94,0,0,1-.3-1A7,7,0,0,1,155.33,165.76Zm.67,0c0,.14,0,.3,0,.47a4.43,4.43,0,0,0,.06.51,2.93,2.93,0,0,0,.13.51,1.51,1.51,0,0,0,.22.44,1.12,1.12,0,0,0,.34.31,1.1,1.1,0,0,0,1,0,1.12,1.12,0,0,0,.34-.31,1.51,1.51,0,0,0,.22-.44,2.93,2.93,0,0,0,.13-.51,4.43,4.43,0,0,0,.06-.51c0-.17,0-.33,0-.47s0-.29,0-.46a4.88,4.88,0,0,0-.06-.52,3.18,3.18,0,0,0-.13-.51,1.65,1.65,0,0,0-.22-.44,1.08,1.08,0,0,0-.34-.3,1,1,0,0,0-1,0,1.08,1.08,0,0,0-.34.3,1.65,1.65,0,0,0-.22.44,3.18,3.18,0,0,0-.13.51,4.88,4.88,0,0,0-.06.52C156,165.47,156,165.62,156,165.76Z"/><circle class="cls-4" cx="149.98" cy="136.84" r="47.41"/><path d="M151.23,188a1.51,1.51,0,0,1,.13-.61,1.28,1.28,0,0,1,.34-.46,1.44,1.44,0,0,1,.51-.3,1.92,1.92,0,0,1,1.28,0,1.44,1.44,0,0,1,.51.3,1.28,1.28,0,0,1,.34.46,1.51,1.51,0,0,1,.13.61,1.4,1.4,0,0,1-.07.4,1.27,1.27,0,0,1-.18.37,1.33,1.33,0,0,1-.29.29,1.18,1.18,0,0,1-.39.19h0a1.44,1.44,0,0,1,.46.19,1.23,1.23,0,0,1,.35.33,1.47,1.47,0,0,1,.23.43,1.75,1.75,0,0,1,.08.51,1.67,1.67,0,0,1-.14.69,1.56,1.56,0,0,1-1,.85,2.16,2.16,0,0,1-1.42,0,1.56,1.56,0,0,1-1-.85,1.67,1.67,0,0,1-.14-.69,1.75,1.75,0,0,1,.08-.51,1.27,1.27,0,0,1,.23-.43,1.23,1.23,0,0,1,.35-.33,1.44,1.44,0,0,1,.46-.19h0a1.18,1.18,0,0,1-.39-.19,1.33,1.33,0,0,1-.29-.29,1.27,1.27,0,0,1-.18-.37A1.12,1.12,0,0,1,151.23,188Zm.48,2.67a1.14,1.14,0,0,0,.09.46.9.9,0,0,0,.25.35,1.13,1.13,0,0,0,.36.24,1.25,1.25,0,0,0,.88,0,1.13,1.13,0,0,0,.36-.24.9.9,0,0,0,.25-.35,1.14,1.14,0,0,0,.09-.46,1.1,1.1,0,0,0-.09-.45,1,1,0,0,0-.25-.36,1,1,0,0,0-.36-.23,1.12,1.12,0,0,0-.88,0,1,1,0,0,0-.36.23,1,1,0,0,0-.25.36A1.1,1.1,0,0,0,151.71,190.69Zm.2-2.64a.88.88,0,0,0,.26.67,1,1,0,0,0,1.36,0,.88.88,0,0,0,.26-.67.94.94,0,1,0-1.88,0Z"/><path d="M155.33,189.47a7.07,7.07,0,0,1,.08-1,2.94,2.94,0,0,1,.3-.95,2,2,0,0,1,.58-.7,1.79,1.79,0,0,1,1.92,0,2,2,0,0,1,.58.7,2.94,2.94,0,0,1,.3.95,6.29,6.29,0,0,1,0,2,2.94,2.94,0,0,1-.3.95,2,2,0,0,1-.58.7,1.79,1.79,0,0,1-1.92,0,2,2,0,0,1-.58-.7,2.94,2.94,0,0,1-.3-.95A7.07,7.07,0,0,1,155.33,189.47Zm.67,0c0,.14,0,.29,0,.46a4.6,4.6,0,0,0,.06.52,3.18,3.18,0,0,0,.13.51,1.65,1.65,0,0,0,.22.44,1.08,1.08,0,0,0,.34.3,1,1,0,0,0,1,0,1.08,1.08,0,0,0,.34-.3,1.65,1.65,0,0,0,.22-.44,3.18,3.18,0,0,0,.13-.51,4.6,4.6,0,0,0,.06-.52c0-.17,0-.32,0-.46s0-.3,0-.47a4.43,4.43,0,0,0-.06-.51,3.18,3.18,0,0,0-.13-.51,1.65,1.65,0,0,0-.22-.44,1.12,1.12,0,0,0-.34-.31,1.1,1.1,0,0,0-1,0,1.12,1.12,0,0,0-.34.31,1.65,1.65,0,0,0-.22.44,3.18,3.18,0,0,0-.13.51,4.43,4.43,0,0,0-.06.51C156,189.17,156,189.33,156,189.47Z"/><circle class="cls-4" cx="149.98" cy="136.84" r="71.17"/><path d="M153.51,216.06h-.68v-4.8h0l-1,.86-.4-.49,1.52-1.23h.59Z"/><path d="M155.43,215.29l2.13-2.08.35-.35a2.29,2.29,0,0,0,.26-.32,1.56,1.56,0,0,0,.14-.33,1.11,1.11,0,0,0,.05-.37.84.84,0,0,0-.08-.4.73.73,0,0,0-.22-.3.91.91,0,0,0-.33-.2,1.29,1.29,0,0,0-.4-.06,1,1,0,0,0-.71.24,1.13,1.13,0,0,0-.36.66l-.73-.06a2,2,0,0,1,.21-.62,1.66,1.66,0,0,1,.39-.44,1.71,1.71,0,0,1,.54-.27,2.15,2.15,0,0,1,.64-.09,2.07,2.07,0,0,1,.66.1,1.7,1.7,0,0,1,.55.29,1.35,1.35,0,0,1,.37.48,1.41,1.41,0,0,1,.14.67,1.89,1.89,0,0,1-.09.6,1.8,1.8,0,0,1-.25.5,2.94,2.94,0,0,1-.35.44l-.41.4-1.74,1.64v0h2.88v.62h-3.64Z"/><path d="M159.78,213.23a7,7,0,0,1,.08-1,3.19,3.19,0,0,1,.29-.95,1.92,1.92,0,0,1,.59-.7,1.54,1.54,0,0,1,1-.28,1.49,1.49,0,0,1,1,.28,1.83,1.83,0,0,1,.59.7,2.94,2.94,0,0,1,.3.95,7,7,0,0,1,.08,1,7.07,7.07,0,0,1-.08,1,3,3,0,0,1-.3,1,1.91,1.91,0,0,1-.59.7,1.55,1.55,0,0,1-1,.28,1.61,1.61,0,0,1-1-.28,2,2,0,0,1-.59-.7,3.28,3.28,0,0,1-.29-1A7.07,7.07,0,0,1,159.78,213.23Zm.67,0c0,.14,0,.29,0,.46a4.88,4.88,0,0,0,.06.52,4.7,4.7,0,0,0,.12.51,2,2,0,0,0,.23.44,1,1,0,0,0,.34.3.9.9,0,0,0,.48.12,1,1,0,0,0,.48-.12,1.21,1.21,0,0,0,.34-.3,1.65,1.65,0,0,0,.22-.44,3.18,3.18,0,0,0,.13-.51,4.88,4.88,0,0,0,.06-.52c0-.17,0-.32,0-.46s0-.3,0-.47a4.43,4.43,0,0,0-.06-.51,2.93,2.93,0,0,0-.13-.51,1.51,1.51,0,0,0-.22-.44,1.24,1.24,0,0,0-.34-.31,1,1,0,0,0-.48-.11.9.9,0,0,0-.48.11,1,1,0,0,0-.34.31,1.83,1.83,0,0,0-.23.44,4.21,4.21,0,0,0-.12.51,4.43,4.43,0,0,0-.06.51C160.46,212.93,160.45,213.09,160.45,213.23Z"/><circle class="cls-4" cx="149.98" cy="136.84" r="94.93"/><line class="cls-4" x1="55.05" y1="136.89" x2="244.96" y2="136.89"/><line class="cls-4" x1="149.98" y1="231.82" x2="149.98" y2="41.91"/><line class="cls-4" x1="95.22" y1="41.91" x2="204.79" y2="231.82"/><line class="cls-4" x1="95.22" y1="231.82" x2="204.79" y2="41.91"/><line class="cls-4" x1="55.05" y1="82.08" x2="244.96" y2="191.65"/><line class="cls-4" x1="55.05" y1="191.65" x2="244.96" y2="82.08"/><line class="cls-1" x1="149.98" y1="147.48" x2="150.36" y2="148.23"/><line class="cls-1" x1="150.36" y1="148.23" x2="150.84" y2="148.99"/><line class="cls-1" x1="150.84" y1="148.99" x2="151.33" y2="149.64"/><line class="cls-1" x1="151.33" y1="149.64" x2="151.81" y2="149.8"/><line class="cls-1" x1="151.81" y1="149.8" x2="152.46" y2="150.93"/><line class="cls-1" x1="152.46" y1="150.93" x2="153.33" y2="152.61"/><line class="cls-1" x1="153.33" y1="152.61" x2="154.46" y2="154.71"/><line class="cls-1" x1="154.46" y1="154.71" x2="156.03" y2="158.01"/><line class="cls-1" x1="156.03" y1="158.01" x2="158.29" y2="162.43"/><line class="cls-1" x1="158.29" y1="162.43" x2="161.05" y2="167.24"/><line class="cls-1" x1="161.05" y1="167.24" x2="164.4" y2="172.53"/><line class="cls-1" x1="164.4" y1="172.53" x2="168.66" y2="178.85"/><line class="cls-1" x1="168.66" y1="178.85" x2="172.71" y2="183.49"/><line class="cls-1" x1="172.71" y1="183.49" x2="176.98" y2="187.6"/><line class="cls-1" x1="176.98" y1="187.6" x2="181.03" y2="190.62"/><line class="cls-1" x1="181.03" y1="190.62" x2="184.86" y2="192.67"/><line class="cls-1" x1="184.86" y1="192.67" x2="188.37" y2="193.75"/><line class="cls-1" x1="188.37" y1="193.75" x2="191.77" y2="194.4"/><line class="cls-1" x1="191.77" y1="194.4" x2="194.91" y2="194.35"/><line class="cls-1" x1="194.91" y1="194.35" x2="197.93" y2="193.97"/><line class="cls-1" x1="197.93" y1="193.97" x2="200.85" y2="193.32"/><line class="cls-1" x1="200.85" y1="193.32" x2="203.55" y2="192.35"/><line class="cls-1" x1="203.55" y1="192.35" x2="206.08" y2="191.05"/><line class="cls-1" x1="206.08" y1="191.05" x2="208.51" y2="189.54"/><line class="cls-1" x1="208.51" y1="189.54" x2="210.51" y2="187.6"/><line class="cls-1" x1="210.51" y1="187.6" x2="212.02" y2="185.33"/><line class="cls-1" x1="212.02" y1="185.33" x2="215.7" y2="184.57"/><line class="cls-1" x1="215.7" y1="184.57" x2="209.81" y2="177.23"/><line class="cls-1" x1="209.81" y1="177.23" x2="189.94" y2="161.79"/><line class="cls-1" x1="189.94" y1="161.79" x2="179.3" y2="153.79"/><line class="cls-1" x1="179.3" y1="153.79" x2="173.14" y2="149.15"/><line class="cls-1" x1="173.14" y1="149.15" x2="174.01" y2="148.56"/><line class="cls-1" x1="174.01" y1="148.56" x2="171.9" y2="146.61"/><line class="cls-1" x1="171.9" y1="146.61" x2="170.61" y2="145.15"/><line class="cls-1" x1="170.61" y1="145.15" x2="168.82" y2="143.7"/><line class="cls-1" x1="168.82" y1="143.7" x2="166.88" y2="142.35"/><line class="cls-1" x1="166.88" y1="142.35" x2="164.61" y2="141.05"/><line class="cls-1" x1="164.61" y1="141.05" x2="162.51" y2="139.97"/><line class="cls-1" x1="162.51" y1="139.97" x2="160.4" y2="139.05"/><line class="cls-1" x1="160.4" y1="139.05" x2="158.35" y2="138.3"/><line class="cls-1" x1="158.35" y1="138.3" x2="156.35" y2="137.76"/><line class="cls-1" x1="156.35" y1="137.76" x2="154.3" y2="137.27"/><line class="cls-1" x1="154.3" y1="137.27" x2="152.68" y2="137.05"/><line class="cls-1" x1="152.68" y1="137.05" x2="150.9" y2="136.89"/><line class="cls-1" x1="150.9" y1="136.89" x2="150.3" y2="136.89"/><line class="cls-1" x1="150.3" y1="136.89" x2="150.73" y2="136.89"/><line class="cls-1" x1="150.73" y1="136.89" x2="152.41" y2="136.73"/><line class="cls-1" x1="152.41" y1="136.73" x2="153.76" y2="136.51"/><line class="cls-1" x1="153.76" y1="136.51" x2="155.49" y2="136.14"/><line class="cls-1" x1="155.49" y1="136.14" x2="157.11" y2="135.65"/><line class="cls-1" x1="157.11" y1="135.65" x2="158.78" y2="135"/><line class="cls-1" x1="158.78" y1="135" x2="160.4" y2="134.3"/><line class="cls-1" x1="160.4" y1="134.3" x2="162.29" y2="133.38"/><line class="cls-1" x1="162.29" y1="133.38" x2="164.4" y2="132.19"/><line class="cls-1" x1="164.4" y1="132.19" x2="166.5" y2="130.9"/><line class="cls-1" x1="166.5" y1="130.9" x2="168.61" y2="129.39"/><line class="cls-1" x1="168.61" y1="129.39" x2="170.71" y2="127.66"/><line class="cls-1" x1="170.71" y1="127.66" x2="172.66" y2="125.82"/><line class="cls-1" x1="172.66" y1="125.82" x2="174.55" y2="123.82"/><line class="cls-1" x1="174.55" y1="123.82" x2="176.28" y2="121.72"/><line class="cls-1" x1="176.28" y1="121.72" x2="177.9" y2="119.45"/><line class="cls-1" x1="177.9" y1="119.45" x2="179.46" y2="117.02"/><line class="cls-1" x1="179.46" y1="117.02" x2="180.65" y2="114.59"/><line class="cls-1" x1="180.65" y1="114.59" x2="181.68" y2="112.11"/><line class="cls-1" x1="181.68" y1="112.11" x2="182.32" y2="109.73"/><line class="cls-1" x1="182.32" y1="109.73" x2="182.7" y2="107.41"/><line class="cls-1" x1="182.7" y1="107.41" x2="182.7" y2="105.25"/><line class="cls-1" x1="182.7" y1="105.25" x2="182.59" y2="103.09"/><line class="cls-1" x1="182.59" y1="103.09" x2="182.27" y2="100.98"/><line class="cls-1" x1="182.27" y1="100.98" x2="181.78" y2="98.98"/><line class="cls-1" x1="181.78" y1="98.98" x2="181.08" y2="97.09"/><line class="cls-1" x1="181.08" y1="97.09" x2="180.22" y2="95.26"/><line class="cls-1" x1="180.22" y1="95.26" x2="179.14" y2="93.64"/><line class="cls-1" x1="179.14" y1="93.64" x2="177.95" y2="92.13"/><line class="cls-1" x1="177.95" y1="92.13" x2="176.55" y2="90.83"/><line class="cls-1" x1="176.55" y1="90.83" x2="175.03" y2="89.75"/><line class="cls-1" x1="175.03" y1="89.75" x2="173.36" y2="88.89"/><line class="cls-1" x1="173.36" y1="88.89" x2="171.63" y2="88.29"/><line class="cls-1" x1="171.63" y1="88.29" x2="169.8" y2="87.86"/><line class="cls-1" x1="169.8" y1="87.86" x2="167.85" y2="87.7"/><line class="cls-1" x1="167.85" y1="87.7" x2="165.91" y2="87.86"/><line class="cls-1" x1="165.91" y1="87.86" x2="163.91" y2="88.29"/><line class="cls-1" x1="163.91" y1="88.29" x2="161.91" y2="88.99"/><line class="cls-1" x1="161.91" y1="88.99" x2="159.86" y2="90.45"/><line class="cls-1" x1="159.86" y1="90.45" x2="158.02" y2="91.26"/><line class="cls-1" x1="158.02" y1="91.26" x2="156.35" y2="91.69"/><line class="cls-1" x1="156.35" y1="91.69" x2="154.68" y2="92.02"/><line class="cls-1" x1="154.68" y1="92.02" x2="153.22" y2="90.88"/><line class="cls-1" x1="153.22" y1="90.88" x2="151.65" y2="89.16"/><line class="cls-1" x1="151.65" y1="89.16" x2="149.98" y2="87.54"/><line class="cls-1" x1="149.98" y1="147.37" x2="149.65" y2="147.91"/><line class="cls-1" x1="149.65" y1="147.91" x2="149.22" y2="148.45"/><line class="cls-1" x1="149.22" y1="148.45" x2="148.79" y2="148.88"/><line class="cls-1" x1="148.79" y1="148.88" x2="148.3" y2="149.04"/><line class="cls-1" x1="148.3" y1="149.04" x2="147.76" y2="149.58"/><line class="cls-1" x1="147.76" y1="149.58" x2="147.17" y2="150.28"/><line class="cls-1" x1="147.17" y1="150.28" x2="146.47" y2="151.2"/><line class="cls-1" x1="146.47" y1="151.2" x2="145.66" y2="152.07"/><line class="cls-1" x1="145.66" y1="152.07" x2="145.06" y2="152.17"/><line class="cls-1" x1="145.06" y1="152.17" x2="143.77" y2="154.01"/><line class="cls-1" x1="143.77" y1="154.01" x2="141.88" y2="156.98"/><line class="cls-1" x1="141.88" y1="156.98" x2="139.29" y2="160.98"/><line class="cls-1" x1="139.29" y1="160.98" x2="135.78" y2="166.11"/><line class="cls-1" x1="135.78" y1="166.11" x2="130.43" y2="173.72"/><line class="cls-1" x1="130.43" y1="173.72" x2="125.57" y2="179.23"/><line class="cls-1" x1="125.57" y1="179.23" x2="120.76" y2="183.66"/><line class="cls-1" x1="120.76" y1="183.66" x2="116.07" y2="187.17"/><line class="cls-1" x1="116.07" y1="187.17" x2="112.02" y2="189.22"/><line class="cls-1" x1="112.02" y1="189.22" x2="108.88" y2="189.54"/><line class="cls-1" x1="108.88" y1="189.54" x2="105.64" y2="189.76"/><line class="cls-1" x1="105.64" y1="189.76" x2="102.57" y2="189.54"/><line class="cls-1" x1="102.57" y1="189.54" x2="99.81" y2="188.84"/><line class="cls-1" x1="99.81" y1="188.84" x2="97.17" y2="187.87"/><line class="cls-1" x1="97.17" y1="187.87" x2="94.9" y2="186.46"/><line class="cls-1" x1="94.9" y1="186.46" x2="92.68" y2="184.95"/><line class="cls-1" x1="92.68" y1="184.95" x2="90.63" y2="183.22"/><line class="cls-1" x1="90.63" y1="183.22" x2="86.74" y2="182.79"/><line class="cls-1" x1="86.74" y1="182.79" x2="89.98" y2="177.34"/><line class="cls-1" x1="89.98" y1="177.34" x2="102.19" y2="166.7"/><line class="cls-1" x1="102.19" y1="166.7" x2="110.34" y2="159.79"/><line class="cls-1" x1="110.34" y1="159.79" x2="117.09" y2="154.33"/><line class="cls-1" x1="117.09" y1="154.33" x2="122.33" y2="150.34"/><line class="cls-1" x1="122.33" y1="150.34" x2="126.22" y2="147.42"/><line class="cls-1" x1="126.22" y1="147.42" x2="127.14" y2="146.07"/><line class="cls-1" x1="127.14" y1="146.07" x2="129.08" y2="144.45"/><line class="cls-1" x1="129.08" y1="144.45" x2="131.13" y2="142.99"/><line class="cls-1" x1="131.13" y1="142.99" x2="133.35" y2="141.64"/><line class="cls-1" x1="133.35" y1="141.64" x2="135.56" y2="140.46"/><line class="cls-1" x1="135.56" y1="140.46" x2="137.94" y2="139.43"/><line class="cls-1" x1="137.94" y1="139.43" x2="140.15" y2="138.57"/><line class="cls-1" x1="140.15" y1="138.57" x2="142.31" y2="137.92"/><line class="cls-1" x1="142.31" y1="137.92" x2="144.42" y2="137.43"/><line class="cls-1" x1="144.42" y1="137.43" x2="146.36" y2="137.11"/><line class="cls-1" x1="146.36" y1="137.11" x2="148.74" y2="136.89"/><line class="cls-1" x1="148.74" y1="136.89" x2="149.65" y2="136.89"/><line class="cls-1" x1="149.65" y1="136.89" x2="149.6" y2="136.89"/><line class="cls-1" x1="149.6" y1="136.89" x2="148.14" y2="136.78"/><line class="cls-1" x1="148.14" y1="136.78" x2="146.85" y2="136.57"/><line class="cls-1" x1="146.85" y1="136.57" x2="144.96" y2="136.19"/><line class="cls-1" x1="144.96" y1="136.19" x2="143.23" y2="135.7"/><line class="cls-1" x1="143.23" y1="135.7" x2="141.5" y2="135.06"/><line class="cls-1" x1="141.5" y1="135.06" x2="139.83" y2="134.35"/><line class="cls-1" x1="139.83" y1="134.35" x2="137.94" y2="133.44"/><line class="cls-1" x1="137.94" y1="133.44" x2="135.99" y2="132.36"/><line class="cls-1" x1="135.99" y1="132.36" x2="133.94" y2="131.06"/><line class="cls-1" x1="133.94" y1="131.06" x2="131.83" y2="129.55"/><line class="cls-1" x1="131.83" y1="129.55" x2="129.51" y2="127.77"/><line class="cls-1" x1="129.51" y1="127.77" x2="127.51" y2="125.93"/><line class="cls-1" x1="127.51" y1="125.93" x2="125.68" y2="123.93"/><line class="cls-1" x1="125.68" y1="123.93" x2="123.95" y2="121.83"/><line class="cls-1" x1="123.95" y1="121.83" x2="122.38" y2="119.61"/><line class="cls-1" x1="122.38" y1="119.61" x2="121.03" y2="117.34"/><line class="cls-1" x1="121.03" y1="117.34" x2="119.74" y2="114.91"/><line class="cls-1" x1="119.74" y1="114.91" x2="118.44" y2="112.21"/><line class="cls-1" x1="118.44" y1="112.21" x2="117.69" y2="109.73"/><line class="cls-1" x1="117.69" y1="109.73" x2="117.2" y2="107.35"/><line class="cls-1" x1="117.2" y1="107.35" x2="117.2" y2="105.19"/><line class="cls-1" x1="117.2" y1="105.19" x2="117.31" y2="102.98"/><line class="cls-1" x1="117.31" y1="102.98" x2="117.63" y2="100.87"/><line class="cls-1" x1="117.63" y1="100.87" x2="118.12" y2="98.88"/><line class="cls-1" x1="118.12" y1="98.88" x2="118.82" y2="96.93"/><line class="cls-1" x1="118.82" y1="96.93" x2="119.68" y2="95.1"/><line class="cls-1" x1="119.68" y1="95.1" x2="120.71" y2="93.48"/><line class="cls-1" x1="120.71" y1="93.48" x2="121.95" y2="91.96"/><line class="cls-1" x1="121.95" y1="91.96" x2="123.36" y2="90.67"/><line class="cls-1" x1="123.36" y1="90.67" x2="124.87" y2="89.53"/><line class="cls-1" x1="124.87" y1="89.53" x2="126.49" y2="88.62"/><line class="cls-1" x1="126.49" y1="88.62" x2="128.22" y2="87.91"/><line class="cls-1" x1="128.22" y1="87.91" x2="130.11" y2="87.54"/><line class="cls-1" x1="130.11" y1="87.54" x2="131.94" y2="87.27"/><line class="cls-1" x1="131.94" y1="87.27" x2="133.89" y2="87.1"/><line class="cls-1" x1="133.89" y1="87.1" x2="135.78" y2="87.1"/><line class="cls-1" x1="135.78" y1="87.1" x2="137.67" y2="87.37"/><line class="cls-1" x1="137.67" y1="87.37" x2="139.72" y2="88.4"/><line class="cls-1" x1="139.72" y1="88.4" x2="141.5" y2="88.62"/><line class="cls-1" x1="141.5" y1="88.62" x2="143.23" y2="88.29"/><line class="cls-1" x1="143.23" y1="88.29" x2="144.79" y2="87"/><line class="cls-1" x1="144.79" y1="87" x2="146.52" y2="86.94"/><line class="cls-1" x1="146.52" y1="86.94" x2="148.3" y2="87.21"/><line class="cls-1" x1="148.3" y1="87.21" x2="149.98" y2="87.54"/><line class="cls-1" x1="149.98" y1="146.45" x2="150.19" y2="146.61"/><line class="cls-1" x1="151.17" y1="147.42" x2="151.27" y2="147.64"/><line class="cls-1" x1="151.92" y1="148.72" x2="152.03" y2="148.93"/><line class="cls-1" x1="152.57" y1="150.07" x2="152.68" y2="150.28"/><line class="cls-1" x1="153.27" y1="151.42" x2="153.38" y2="151.63"/><line class="cls-1" x1="153.92" y1="152.77" x2="153.92" y2="152.77"/><line class="cls-1" x1="153.92" y1="152.77" x2="154.03" y2="152.98"/><line class="cls-1" x1="154.68" y1="154.06" x2="154.84" y2="154.28"/><line class="cls-1" x1="155.65" y1="155.31" x2="155.81" y2="155.47"/><line class="cls-1" x1="156.57" y1="156.49" x2="156.67" y2="156.71"/><line class="cls-1" x1="157.32" y1="157.84" x2="157.43" y2="158.06"/><line class="cls-1" x1="158.08" y1="159.14" x2="158.08" y2="159.14"/><line class="cls-1" x1="158.08" y1="159.14" x2="158.19" y2="159.36"/><line class="cls-1" x1="158.83" y1="160.44" x2="158.94" y2="160.65"/><line class="cls-1" x1="159.59" y1="161.73" x2="159.75" y2="161.95"/><line class="cls-1" x1="160.4" y1="163.08" x2="160.51" y2="163.3"/><line class="cls-1" x1="161.16" y1="164.38" x2="161.26" y2="164.59"/><line class="cls-1" x1="161.91" y1="165.67" x2="162.07" y2="165.89"/><line class="cls-1" x1="162.72" y1="167.02" x2="162.83" y2="167.24"/><line class="cls-1" x1="163.48" y1="168.32" x2="163.59" y2="168.54"/><line class="cls-1" x1="164.23" y1="169.62" x2="164.4" y2="169.83"/><line class="cls-1" x1="165.04" y1="170.97" x2="165.15" y2="171.18"/><line class="cls-1" x1="165.91" y1="172.26" x2="166.07" y2="172.42"/><line class="cls-1" x1="166.93" y1="173.4" x2="167.1" y2="173.56"/><line class="cls-1" x1="167.96" y1="174.53" x2="168.12" y2="174.69"/><line class="cls-1" x1="169.04" y1="175.61" x2="169.26" y2="175.72"/><line class="cls-1" x1="170.39" y1="176.26" x2="170.61" y2="176.37"/><line class="cls-1" x1="171.74" y1="176.91" x2="171.96" y2="177.01"/><line class="cls-1" x1="173.04" y1="177.61" x2="173.25" y2="177.72"/><line class="cls-1" x1="174.39" y1="178.26" x2="174.6" y2="178.36"/><line class="cls-1" x1="175.79" y1="178.85" x2="176.01" y2="178.96"/><line class="cls-1" x1="177.25" y1="179.28" x2="177.46" y2="179.34"/><line class="cls-1" x1="178.71" y1="179.66" x2="178.87" y2="179.71"/><line class="cls-1" x1="178.87" y1="179.71" x2="178.92" y2="179.71"/><line class="cls-1" x1="180.16" y1="180.04" x2="180.38" y2="180.09"/><line class="cls-1" x1="181.62" y1="180.42" x2="181.62" y2="180.42"/><line class="cls-1" x1="181.62" y1="180.42" x2="181.84" y2="180.47"/><line class="cls-1" x1="183.08" y1="180.79" x2="183.3" y2="180.85"/><line class="cls-1" x1="184.54" y1="181.17" x2="184.65" y2="181.23"/><line class="cls-1" x1="184.65" y1="181.23" x2="184.75" y2="181.23"/><line class="cls-1" x1="186.05" y1="181.39" x2="186.32" y2="181.44"/><line class="cls-1" x1="187.62" y1="181.55" x2="187.89" y2="181.55"/><line class="cls-1" x1="189.24" y1="181.55" x2="189.51" y2="181.55"/><line class="cls-1" x1="190.8" y1="181.5" x2="191.07" y2="181.5"/><line class="cls-1" x1="192.37" y1="181.39" x2="192.58" y2="181.33"/><line class="cls-1" x1="193.83" y1="181.06" x2="194.04" y2="181.01"/><line class="cls-1" x1="195.28" y1="180.63" x2="195.34" y2="180.63"/><line class="cls-1" x1="195.34" y1="180.63" x2="195.5" y2="180.58"/><line class="cls-1" x1="196.63" y1="180.04" x2="196.85" y2="179.98"/><line class="cls-1" x1="197.98" y1="179.28" x2="198.2" y2="179.12"/><line class="cls-1" x1="199.23" y1="178.26" x2="199.28" y2="178.2"/><line class="cls-1" x1="199.28" y1="178.2" x2="199.39" y2="178.04"/><line class="cls-1" x1="200.14" y1="177.01" x2="200.25" y2="176.8"/><line class="cls-1" x1="201.22" y1="176.04" x2="201.44" y2="175.93"/><line class="cls-1" x1="202.57" y1="175.34" x2="202.79" y2="175.23"/><line class="cls-1" x1="202.14" y1="174.21" x2="201.98" y2="173.99"/><line class="cls-1" x1="201.28" y1="172.91" x2="201.12" y2="172.69"/><line class="cls-1" x1="200.41" y1="171.61" x2="200.25" y2="171.4"/><line class="cls-1" x1="199.55" y1="170.32" x2="199.5" y2="170.26"/><line class="cls-1" x1="199.5" y1="170.26" x2="199.39" y2="170.16"/><line class="cls-1" x1="198.36" y1="169.29" x2="198.15" y2="169.13"/><line class="cls-1" x1="197.17" y1="168.32" x2="197.01" y2="168.16"/><line class="cls-1" x1="195.99" y1="167.29" x2="195.82" y2="167.13"/><line class="cls-1" x1="194.8" y1="166.27" x2="194.58" y2="166.11"/><line class="cls-1" x1="193.56" y1="165.24" x2="193.39" y2="165.08"/><line class="cls-1" x1="192.37" y1="164.22" x2="192.15" y2="164.05"/><line class="cls-1" x1="191.13" y1="163.19" x2="190.96" y2="163.03"/><line class="cls-1" x1="189.94" y1="162.16" x2="189.72" y2="162"/><line class="cls-1" x1="188.75" y1="161.19" x2="188.59" y2="161.03"/><line class="cls-1" x1="187.56" y1="160.17" x2="187.4" y2="160"/><line class="cls-1" x1="186.37" y1="159.14" x2="186.16" y2="158.98"/><line class="cls-1" x1="185.19" y1="158.11" x2="184.97" y2="157.95"/><line class="cls-1" x1="183.94" y1="157.09" x2="183.78" y2="156.93"/><line class="cls-1" x1="182.76" y1="156.06" x2="182.59" y2="155.9"/><line class="cls-1" x1="181.57" y1="155.04" x2="181.35" y2="154.87"/><line class="cls-1" x1="180.33" y1="154.01" x2="180.16" y2="153.85"/><line class="cls-1" x1="179.14" y1="152.98" x2="178.92" y2="152.82"/><line class="cls-1" x1="177.9" y1="151.96" x2="177.68" y2="151.8"/><line class="cls-1" x1="176.71" y1="150.88" x2="176.55" y2="150.66"/><line class="cls-1" x1="175.74" y1="149.64" x2="175.57" y2="149.47"/><line class="cls-1" x1="174.66" y1="148.56" x2="174.49" y2="148.39"/><line class="cls-1" x1="173.52" y1="147.48" x2="173.31" y2="147.31"/><line class="cls-1" x1="172.44" y1="146.34" x2="172.28" y2="146.18"/><line class="cls-1" x1="171.36" y1="145.26" x2="171.15" y2="145.1"/><line class="cls-1" x1="170.17" y1="144.29" x2="170.01" y2="144.13"/><line class="cls-1" x1="168.99" y1="143.37" x2="168.77" y2="143.21"/><line class="cls-1" x1="167.69" y1="142.51" x2="167.47" y2="142.35"/><line class="cls-1" x1="166.39" y1="141.7" x2="166.18" y2="141.54"/><line class="cls-1" x1="165.04" y1="140.94" x2="164.83" y2="140.83"/><line class="cls-1" x1="163.69" y1="140.24" x2="163.48" y2="140.13"/><line class="cls-1" x1="162.34" y1="139.65" x2="162.13" y2="139.54"/><line class="cls-1" x1="160.94" y1="139.05" x2="160.72" y2="138.94"/><line class="cls-1" x1="159.54" y1="138.51" x2="159.54" y2="138.51"/><line class="cls-1" x1="159.54" y1="138.51" x2="159.32" y2="138.46"/><line class="cls-1" x1="158.13" y1="138.08" x2="157.92" y2="138.03"/><line class="cls-1" x1="156.67" y1="137.7" x2="156.46" y2="137.65"/><line class="cls-1" x1="155.22" y1="137.38" x2="155" y2="137.32"/><line class="cls-1" x1="153.7" y1="137.16" x2="153.49" y2="137.11"/><line class="cls-1" x1="152.19" y1="137" x2="151.98" y2="136.95"/><line class="cls-1" x1="150.68" y1="136.89" x2="150.41" y2="136.89"/><line class="cls-1" x1="151.49" y1="136.78" x2="151.71" y2="136.78"/><line class="cls-1" x1="151.71" y1="136.78" x2="151.76" y2="136.78"/><line class="cls-1" x1="153" y1="136.57" x2="153.22" y2="136.51"/><line class="cls-1" x1="154.46" y1="136.3" x2="154.68" y2="136.24"/><line class="cls-1" x1="155.92" y1="135.87" x2="156.13" y2="135.81"/><line class="cls-1" x1="157.32" y1="135.38" x2="157.54" y2="135.33"/><line class="cls-1" x1="158.73" y1="134.84" x2="158.94" y2="134.79"/><line class="cls-1" x1="160.08" y1="134.25" x2="160.29" y2="134.14"/><line class="cls-1" x1="161.43" y1="133.6" x2="161.64" y2="133.49"/><line class="cls-1" x1="162.78" y1="132.84" x2="162.99" y2="132.73"/><line class="cls-1" x1="164.07" y1="132.09" x2="164.29" y2="131.98"/><line class="cls-1" x1="165.37" y1="131.28" x2="165.58" y2="131.11"/><line class="cls-1" x1="166.66" y1="130.36" x2="166.88" y2="130.2"/><line class="cls-1" x1="167.91" y1="129.44" x2="168.12" y2="129.28"/><line class="cls-1" x1="169.15" y1="128.52" x2="169.36" y2="128.36"/><line class="cls-1" x1="170.39" y1="127.5" x2="170.55" y2="127.33"/><line class="cls-1" x1="171.52" y1="126.47" x2="171.69" y2="126.31"/><line class="cls-1" x1="172.6" y1="125.34" x2="172.77" y2="125.17"/><line class="cls-1" x1="173.68" y1="124.2" x2="173.85" y2="123.99"/><line class="cls-1" x1="174.71" y1="122.96" x2="174.87" y2="122.74"/><line class="cls-1" x1="175.68" y1="121.72" x2="175.84" y2="121.5"/><line class="cls-1" x1="176.6" y1="120.42" x2="176.76" y2="120.21"/><line class="cls-1" x1="177.41" y1="119.13" x2="177.57" y2="118.91"/><line class="cls-1" x1="178.22" y1="117.83" x2="178.27" y2="117.78"/><line class="cls-1" x1="178.27" y1="117.78" x2="178.38" y2="117.61"/><line class="cls-1" x1="178.98" y1="116.48" x2="179.08" y2="116.26"/><line class="cls-1" x1="179.62" y1="115.13" x2="179.73" y2="114.91"/><line class="cls-1" x1="180.27" y1="113.78" x2="180.38" y2="113.56"/><line class="cls-1" x1="180.87" y1="112.43" x2="180.92" y2="112.21"/><line class="cls-1" x1="181.3" y1="111.03" x2="181.35" y2="110.81"/><line class="cls-1" x1="181.62" y1="109.57" x2="181.68" y2="109.35"/><line class="cls-1" x1="181.84" y1="108.06" x2="181.84" y2="107.79"/><line class="cls-1" x1="181.84" y1="106.44" x2="181.84" y2="106.17"/><line class="cls-1" x1="181.78" y1="104.87" x2="181.78" y2="104.6"/><line class="cls-1" x1="181.62" y1="103.3" x2="181.62" y2="103.03"/><line class="cls-1" x1="181.41" y1="101.79" x2="181.35" y2="101.58"/><line class="cls-1" x1="181.08" y1="100.33" x2="181.03" y2="100.12"/><line class="cls-1" x1="180.6" y1="98.93" x2="180.54" y2="98.71"/><line class="cls-1" x1="180.11" y1="97.53" x2="180" y2="97.31"/><line class="cls-1" x1="179.46" y1="96.18" x2="179.35" y2="95.96"/><line class="cls-1" x1="178.71" y1="94.83" x2="178.6" y2="94.61"/><line class="cls-1" x1="177.84" y1="93.58" x2="177.68" y2="93.37"/><line class="cls-1" x1="176.82" y1="92.34" x2="176.65" y2="92.18"/><line class="cls-1" x1="175.74" y1="91.26" x2="175.52" y2="91.1"/><line class="cls-1" x1="174.55" y1="90.29" x2="174.33" y2="90.18"/><line class="cls-1" x1="173.25" y1="89.48" x2="173.14" y2="89.43"/><line class="cls-1" x1="173.14" y1="89.43" x2="173.04" y2="89.37"/><line class="cls-1" x1="171.9" y1="88.89" x2="171.69" y2="88.78"/><line class="cls-1" x1="170.5" y1="88.35" x2="170.28" y2="88.29"/><line class="cls-1" x1="169.09" y1="87.97" x2="168.88" y2="87.91"/><line class="cls-1" x1="167.58" y1="87.75" x2="167.31" y2="87.75"/><line class="cls-1" x1="166.02" y1="87.7" x2="165.96" y2="87.7"/><line class="cls-1" x1="165.96" y1="87.7" x2="165.75" y2="87.75"/><line class="cls-1" x1="164.45" y1="87.91" x2="164.18" y2="87.97"/><line class="cls-1" x1="162.94" y1="88.24" x2="162.72" y2="88.29"/><line class="cls-1" x1="161.53" y1="88.83" x2="161.32" y2="88.94"/><line class="cls-1" x1="160.24" y1="89.64" x2="160.02" y2="89.75"/><line class="cls-1" x1="158.83" y1="90.24" x2="158.62" y2="90.29"/><line class="cls-1" x1="157.43" y1="90.72" x2="157.21" y2="90.78"/><line class="cls-1" x1="156.03" y1="91.15" x2="155.81" y2="91.26"/><line class="cls-1" x1="154.62" y1="91.53" x2="154.41" y2="91.37"/><line class="cls-1" x1="153.33" y1="90.67" x2="153.22" y2="90.61"/><line class="cls-1" x1="153.22" y1="90.61" x2="153.11" y2="90.51"/><line class="cls-1" x1="152.19" y1="89.59" x2="152.03" y2="89.43"/><line class="cls-1" x1="151.06" y1="88.51" x2="150.9" y2="88.35"/><line class="cls-1" x1="149.92" y1="145.91" x2="149.82" y2="146.13"/><line class="cls-1" x1="149.06" y1="147.15" x2="148.95" y2="147.37"/><line class="cls-1" x1="148.41" y1="148.56" x2="148.36" y2="148.72"/><line class="cls-1" x1="148.36" y1="148.72" x2="148.36" y2="148.77"/><line class="cls-1" x1="147.82" y1="149.91" x2="147.71" y2="150.12"/><line class="cls-1" x1="147.12" y1="151.26" x2="147.01" y2="151.47"/><line class="cls-1" x1="146.41" y1="152.61" x2="146.31" y2="152.82"/><line class="cls-1" x1="145.71" y1="153.96" x2="145.55" y2="154.17"/><line class="cls-1" x1="144.9" y1="155.25" x2="144.79" y2="155.47"/><line class="cls-1" x1="144.04" y1="156.49" x2="143.88" y2="156.71"/><line class="cls-1" x1="143.12" y1="157.79" x2="143.01" y2="158.01"/><line class="cls-1" x1="142.31" y1="159.09" x2="142.15" y2="159.3"/><line class="cls-1" x1="141.5" y1="160.38" x2="141.45" y2="160.44"/><line class="cls-1" x1="141.45" y1="160.44" x2="141.34" y2="160.6"/><line class="cls-1" x1="140.64" y1="161.68" x2="140.47" y2="161.89"/><line class="cls-1" x1="139.77" y1="162.97" x2="139.66" y2="163.19"/><line class="cls-1" x1="138.96" y1="164.27" x2="138.91" y2="164.32"/><line class="cls-1" x1="138.91" y1="164.32" x2="138.8" y2="164.49"/><line class="cls-1" x1="138.1" y1="165.57" x2="137.94" y2="165.78"/><line class="cls-1" x1="137.23" y1="166.86" x2="137.07" y2="167.08"/><line class="cls-1" x1="136.37" y1="168.16" x2="136.21" y2="168.37"/><line class="cls-1" x1="135.51" y1="169.45" x2="135.51" y2="169.45"/><line class="cls-1" x1="135.51" y1="169.45" x2="135.34" y2="169.67"/><line class="cls-1" x1="134.48" y1="170.7" x2="134.32" y2="170.91"/><line class="cls-1" x1="133.51" y1="171.94" x2="133.35" y2="172.1"/><line class="cls-1" x1="132.54" y1="173.13" x2="132.37" y2="173.29"/><line class="cls-1" x1="131.51" y1="174.31" x2="131.35" y2="174.53"/><line class="cls-1" x1="130.48" y1="175.5" x2="130.32" y2="175.66"/><line class="cls-1" x1="129.46" y1="176.69" x2="129.3" y2="176.85"/><line class="cls-1" x1="128.43" y1="177.88" x2="128.27" y2="178.04"/><line class="cls-1" x1="127.35" y1="178.96" x2="127.14" y2="179.12"/><line class="cls-1" x1="126.16" y1="179.98" x2="126" y2="180.15"/><line class="cls-1" x1="125.03" y1="181.01" x2="124.87" y2="181.17"/><line class="cls-1" x1="123.84" y1="182.04" x2="123.63" y2="182.2"/><line class="cls-1" x1="122.55" y1="182.95" x2="122.33" y2="183.12"/><line class="cls-1" x1="121.25" y1="183.87" x2="121.03" y2="184.03"/><line class="cls-1" x1="119.95" y1="184.79" x2="119.74" y2="184.9"/><line class="cls-1" x1="118.6" y1="185.44" x2="118.39" y2="185.55"/><line class="cls-1" x1="117.25" y1="186.14" x2="117.04" y2="186.25"/><line class="cls-1" x1="115.9" y1="186.79" x2="115.69" y2="186.9"/><line class="cls-1" x1="114.55" y1="187.38" x2="114.34" y2="187.49"/><line class="cls-1" x1="113.2" y1="188.03" x2="112.99" y2="188.08"/><line class="cls-1" x1="111.85" y1="188.57" x2="111.64" y2="188.62"/><line class="cls-1" x1="110.5" y1="189.11" x2="110.29" y2="189.16"/><line class="cls-1" x1="109.1" y1="189.65" x2="108.88" y2="189.7"/><line class="cls-1" x1="107.7" y1="190.03" x2="107.48" y2="190.08"/><line class="cls-1" x1="106.24" y1="190.35" x2="106.02" y2="190.41"/><line class="cls-1" x1="104.78" y1="190.68" x2="104.51" y2="190.73"/><line class="cls-1" x1="103.21" y1="190.84" x2="102.94" y2="190.84"/><line class="cls-1" x1="101.65" y1="190.95" x2="101.43" y2="191"/><line class="cls-1" x1="100.14" y1="190.95" x2="99.92" y2="190.89"/><line class="cls-1" x1="98.62" y1="190.84" x2="98.35" y2="190.84"/><line class="cls-1" x1="97.11" y1="190.62" x2="96.84" y2="190.62"/><line class="cls-1" x1="95.6" y1="190.41" x2="95.38" y2="190.35"/><line class="cls-1" x1="94.14" y1="190.08" x2="93.93" y2="190.03"/><line class="cls-1" x1="92.74" y1="189.65" x2="92.52" y2="189.6"/><line class="cls-1" x1="91.33" y1="189.16" x2="91.12" y2="189.06"/><line class="cls-1" x1="89.98" y1="188.46" x2="89.77" y2="188.35"/><line class="cls-1" x1="88.69" y1="187.65" x2="88.47" y2="187.49"/><line class="cls-1" x1="87.45" y1="186.68" x2="87.28" y2="186.52"/><line class="cls-1" x1="86.1" y1="186.14" x2="85.83" y2="186.14"/><line class="cls-1" x1="84.53" y1="186.03" x2="84.26" y2="186.03"/><line class="cls-1" x1="82.96" y1="185.98" x2="82.75" y2="185.92"/><line class="cls-1" x1="83.13" y1="185.06" x2="83.29" y2="184.84"/><line class="cls-1" x1="84.04" y1="183.82" x2="84.21" y2="183.6"/><line class="cls-1" x1="84.96" y1="182.58" x2="85.12" y2="182.41"/><line class="cls-1" x1="85.88" y1="181.39" x2="86.04" y2="181.17"/><line class="cls-1" x1="86.8" y1="180.15" x2="86.96" y2="179.93"/><line class="cls-1" x1="87.72" y1="178.9" x2="87.72" y2="178.9"/><line class="cls-1" x1="87.72" y1="178.9" x2="87.93" y2="178.74"/><line class="cls-1" x1="88.96" y1="177.93" x2="89.17" y2="177.77"/><line class="cls-1" x1="90.2" y1="176.96" x2="90.36" y2="176.8"/><line class="cls-1" x1="91.39" y1="175.99" x2="91.6" y2="175.83"/><line class="cls-1" x1="92.63" y1="175.02" x2="92.85" y2="174.85"/><line class="cls-1" x1="93.87" y1="174.04" x2="94.09" y2="173.88"/><line class="cls-1" x1="95.11" y1="173.07" x2="95.33" y2="172.91"/><line class="cls-1" x1="96.36" y1="172.1" x2="96.57" y2="171.94"/><line class="cls-1" x1="97.6" y1="171.13" x2="97.81" y2="170.97"/><line class="cls-1" x1="98.84" y1="170.16" x2="99" y2="169.99"/><line class="cls-1" x1="100.03" y1="169.18" x2="100.24" y2="169.02"/><line class="cls-1" x1="101.27" y1="168.21" x2="101.49" y2="168.05"/><line class="cls-1" x1="102.51" y1="167.24" x2="102.73" y2="167.08"/><line class="cls-1" x1="103.75" y1="166.27" x2="103.97" y2="166.11"/><line class="cls-1" x1="105" y1="165.3" x2="105.21" y2="165.13"/><line class="cls-1" x1="106.24" y1="164.32" x2="106.45" y2="164.16"/><line class="cls-1" x1="107.48" y1="163.35" x2="107.7" y2="163.19"/><line class="cls-1" x1="108.72" y1="162.38" x2="108.94" y2="162.22"/><line class="cls-1" x1="109.96" y1="161.41" x2="110.18" y2="161.25"/><line class="cls-1" x1="111.21" y1="160.44" x2="111.42" y2="160.27"/><line class="cls-1" x1="112.45" y1="159.46" x2="112.66" y2="159.3"/><line class="cls-1" x1="113.69" y1="158.55" x2="113.85" y2="158.38"/><line class="cls-1" x1="114.88" y1="157.57" x2="115.09" y2="157.41"/><line class="cls-1" x1="116.12" y1="156.66" x2="116.28" y2="156.49"/><line class="cls-1" x1="117.31" y1="155.68" x2="117.52" y2="155.52"/><line class="cls-1" x1="118.55" y1="154.77" x2="118.77" y2="154.6"/><line class="cls-1" x1="119.79" y1="153.79" x2="120.01" y2="153.63"/><line class="cls-1" x1="121.03" y1="152.88" x2="121.2" y2="152.71"/><line class="cls-1" x1="122.22" y1="151.96" x2="122.44" y2="151.8"/><line class="cls-1" x1="123.46" y1="150.99" x2="123.63" y2="150.88"/><line class="cls-1" x1="123.63" y1="150.88" x2="123.63" y2="150.82"/><line class="cls-1" x1="123.9" y1="149.53" x2="124.11" y2="149.37"/><line class="cls-1" x1="125.08" y1="148.5" x2="125.25" y2="148.34"/><line class="cls-1" x1="126.27" y1="147.48" x2="126.33" y2="147.42"/><line class="cls-1" x1="126.33" y1="147.42" x2="126.43" y2="147.31"/><line class="cls-1" x1="127.3" y1="146.29" x2="127.46" y2="146.13"/><line class="cls-1" x1="128.43" y1="145.21" x2="128.65" y2="145.05"/><line class="cls-1" x1="129.67" y1="144.18" x2="129.89" y2="144.07"/><line class="cls-1" x1="130.97" y1="143.32" x2="131.19" y2="143.16"/><line class="cls-1" x1="132.27" y1="142.51" x2="132.48" y2="142.35"/><line class="cls-1" x1="133.62" y1="141.7" x2="133.83" y2="141.59"/><line class="cls-1" x1="134.97" y1="141" x2="135.18" y2="140.89"/><line class="cls-1" x1="136.32" y1="140.29" x2="136.48" y2="140.24"/><line class="cls-1" x1="136.48" y1="140.24" x2="136.53" y2="140.24"/><line class="cls-1" x1="137.67" y1="139.7" x2="137.88" y2="139.65"/><line class="cls-1" x1="139.02" y1="139.16" x2="139.23" y2="139.05"/><line class="cls-1" x1="140.42" y1="138.62" x2="140.64" y2="138.57"/><line class="cls-1" x1="141.82" y1="138.19" x2="142.04" y2="138.13"/><line class="cls-1" x1="143.28" y1="137.81" x2="143.5" y2="137.76"/><line class="cls-1" x1="144.74" y1="137.49" x2="144.96" y2="137.43"/><line class="cls-1" x1="146.2" y1="137.22" x2="146.41" y2="137.16"/><line class="cls-1" x1="147.71" y1="137" x2="147.98" y2="137"/><line class="cls-1" x1="149.28" y1="136.89" x2="149.55" y2="136.89"/><line class="cls-1" x1="148.57" y1="136.84" x2="148.3" y2="136.78"/><line class="cls-1" x1="147.01" y1="136.68" x2="146.79" y2="136.62"/><line class="cls-1" x1="145.55" y1="136.41" x2="145.33" y2="136.35"/><line class="cls-1" x1="144.09" y1="136.08" x2="144.09" y2="136.08"/><line class="cls-1" x1="144.09" y1="136.08" x2="143.88" y2="136.03"/><line class="cls-1" x1="142.69" y1="135.65" x2="142.47" y2="135.6"/><line class="cls-1" x1="141.28" y1="135.16" x2="141.07" y2="135.06"/><line class="cls-1" x1="139.88" y1="134.57" x2="139.66" y2="134.46"/><line class="cls-1" x1="138.48" y1="133.92" x2="138.26" y2="133.81"/><line class="cls-1" x1="137.13" y1="133.27" x2="136.91" y2="133.17"/><line class="cls-1" x1="135.78" y1="132.52" x2="135.56" y2="132.41"/><line class="cls-1" x1="134.48" y1="131.76" x2="134.26" y2="131.65"/><line class="cls-1" x1="133.18" y1="130.95" x2="132.97" y2="130.84"/><line class="cls-1" x1="131.89" y1="130.09" x2="131.67" y2="129.93"/><line class="cls-1" x1="130.65" y1="129.17" x2="130.43" y2="129.01"/><line class="cls-1" x1="129.4" y1="128.2" x2="129.24" y2="128.04"/><line class="cls-1" x1="128.22" y1="127.23" x2="128.11" y2="127.12"/><line class="cls-1" x1="128.11" y1="127.12" x2="128.05" y2="127.06"/><line class="cls-1" x1="127.08" y1="126.15" x2="126.92" y2="125.98"/><line class="cls-1" x1="125.95" y1="125.07" x2="125.79" y2="124.9"/><line class="cls-1" x1="124.92" y1="123.93" x2="124.76" y2="123.77"/><line class="cls-1" x1="123.9" y1="122.8" x2="123.73" y2="122.58"/><line class="cls-1" x1="122.92" y1="121.56" x2="122.76" y2="121.39"/><line class="cls-1" x1="122.01" y1="120.37" x2="121.9" y2="120.15"/><line class="cls-1" x1="121.2" y1="119.13" x2="121.03" y2="118.96"/><line class="cls-1" x1="120.39" y1="117.88" x2="120.28" y2="117.67"/><line class="cls-1" x1="119.63" y1="116.53" x2="119.52" y2="116.32"/><line class="cls-1" x1="118.98" y1="115.18" x2="118.87" y2="114.97"/><line class="cls-1" x1="118.33" y1="113.83" x2="118.33" y2="113.83"/><line class="cls-1" x1="118.33" y1="113.83" x2="118.23" y2="113.62"/><line class="cls-1" x1="117.69" y1="112.43" x2="117.63" y2="112.21"/><line class="cls-1" x1="117.09" y1="111.08" x2="117.04" y2="110.86"/><line class="cls-1" x1="116.71" y1="109.62" x2="116.66" y2="109.41"/><line class="cls-1" x1="116.34" y1="108.16" x2="116.34" y2="107.89"/><line class="cls-1" x1="116.12" y1="106.65" x2="116.07" y2="106.44"/><line class="cls-1" x1="116.07" y1="105.09" x2="116.07" y2="104.82"/><line class="cls-1" x1="116.12" y1="103.52" x2="116.12" y2="103.25"/><line class="cls-1" x1="116.23" y1="101.95" x2="116.23" y2="101.9"/><line class="cls-1" x1="116.23" y1="101.9" x2="116.28" y2="101.74"/><line class="cls-1" x1="116.5" y1="100.5" x2="116.55" y2="100.28"/><line class="cls-1" x1="116.88" y1="99.04" x2="116.93" y2="98.82"/><line class="cls-1" x1="117.31" y1="97.63" x2="117.42" y2="97.42"/><line class="cls-1" x1="117.9" y1="96.23" x2="117.96" y2="96.01"/><line class="cls-1" x1="118.6" y1="94.88" x2="118.71" y2="94.66"/><line class="cls-1" x1="119.41" y1="93.58" x2="119.58" y2="93.37"/><line class="cls-1" x1="120.33" y1="92.34" x2="120.49" y2="92.18"/><line class="cls-1" x1="121.41" y1="91.26" x2="121.47" y2="91.21"/><line class="cls-1" x1="121.47" y1="91.21" x2="121.57" y2="91.1"/><line class="cls-1" x1="122.6" y1="90.29" x2="122.82" y2="90.13"/><line class="cls-1" x1="123.9" y1="89.43" x2="124.11" y2="89.26"/><line class="cls-1" x1="125.19" y1="88.67" x2="125.41" y2="88.56"/><line class="cls-1" x1="126.54" y1="88.02" x2="126.76" y2="87.97"/><line class="cls-1" x1="127.95" y1="87.59" x2="128.05" y2="87.54"/><line class="cls-1" x1="128.05" y1="87.54" x2="128.16" y2="87.54"/><line class="cls-1" x1="129.4" y1="87.37" x2="129.62" y2="87.32"/><line class="cls-1" x1="130.92" y1="87.21" x2="131.19" y2="87.21"/><line class="cls-1" x1="132.48" y1="87.21" x2="132.75" y2="87.21"/><line class="cls-1" x1="134.05" y1="87.32" x2="134.32" y2="87.32"/><line class="cls-1" x1="135.56" y1="87.59" x2="135.83" y2="87.64"/><line class="cls-1" x1="137.07" y1="87.86" x2="137.29" y2="87.91"/><line class="cls-1" x1="138.53" y1="88.29" x2="138.75" y2="88.4"/><line class="cls-1" x1="139.93" y1="88.83" x2="140.15" y2="88.89"/><line class="cls-1" x1="141.45" y1="89.1" x2="141.61" y2="89.1"/><line class="cls-1" x1="141.61" y1="89.1" x2="141.72" y2="89.1"/><line class="cls-1" x1="143.01" y1="88.99" x2="143.28" y2="88.99"/><line class="cls-1" x1="144.47" y1="88.56" x2="144.69" y2="88.51"/><line class="cls-1" x1="145.93" y1="88.24" x2="146.14" y2="88.18"/><line class="cls-1" x1="147.39" y1="87.97" x2="147.6" y2="87.91"/><line class="cls-1" x1="148.84" y1="87.7" x2="149.11" y2="87.7"/></g></svg>