<svg id="Spun_light_F" data-name="Spun light F" xmlns="http://www.w3.org/2000/svg" viewBox="0 0 300 263"><defs><style>.cls-1{isolation:isolate;}.cls-2,.cls-3{fill:none;stroke-width:0.5px;}.cls-2{stroke:#000;}.cls-3{stroke:#1a171b;stroke-linecap:round;stroke-linejoin:round;}</style></defs><title>spun-light-floor-wrong-flos-F6612030-spech-tech-02-300x263</title><g class="cls-1"><path d="M107.53,160.09v1.15H97.64l1.8,2-.87.72-2.37-2.88v-1Z"/><path d="M97.26,149.18l10.27,4.56V155l-10.27-4.66v5.52H96.2v-6.72Z"/><path d="M101.07,144.79l0,0a1.84,1.84,0,0,1-.29-.72,4.54,4.54,0,0,1-.1-.84,3.45,3.45,0,0,1,.27-1.37,3.31,3.31,0,0,1,.73-1.1,3.36,3.36,0,0,1,1.1-.73,3.8,3.8,0,0,1,1.41-.26,3.59,3.59,0,0,1,1.42.27,3.21,3.21,0,0,1,1.11.77,3.49,3.49,0,0,1,.72,1.17,4.45,4.45,0,0,1,0,2.94,3.49,3.49,0,0,1-.72,1.17,3.21,3.21,0,0,1-1.11.77,3.59,3.59,0,0,1-1.42.27,4.39,4.39,0,0,1-1.65-.28,9.53,9.53,0,0,1-1.39-.7l-5-3.05v-1.36Zm3.15,1.16a2.46,2.46,0,0,0,1-.19,2.18,2.18,0,0,0,.78-.52,2.26,2.26,0,0,0,.5-.8,2.8,2.8,0,0,0,.18-1,2.9,2.9,0,0,0-.18-1,2.31,2.31,0,0,0-.5-.79,2.18,2.18,0,0,0-.78-.52,2.67,2.67,0,0,0-2,0,2.06,2.06,0,0,0-.77.52,2.68,2.68,0,0,0-.51.79,2.9,2.9,0,0,0-.18,1,2.8,2.8,0,0,0,.18,1,2.61,2.61,0,0,0,.51.8,2.06,2.06,0,0,0,.77.52A2.46,2.46,0,0,0,104.22,146Z"/><path d="M101.07,135.9l0,0a1.89,1.89,0,0,1-.29-.73,4.54,4.54,0,0,1-.1-.84,3.45,3.45,0,0,1,.27-1.37,3.27,3.27,0,0,1,1.83-1.82,3.62,3.62,0,0,1,1.41-.27,3.43,3.43,0,0,1,1.42.28,3.18,3.18,0,0,1,1.11.76,3.49,3.49,0,0,1,.72,1.17,4.48,4.48,0,0,1,0,2.95,3.54,3.54,0,0,1-.72,1.16,3.21,3.21,0,0,1-1.11.77,3.59,3.59,0,0,1-1.42.27,4.39,4.39,0,0,1-1.65-.28,9.45,9.45,0,0,1-1.39-.69l-5-3.06v-1.36Zm3.15,1.15a2.64,2.64,0,0,0,1-.18,2.48,2.48,0,0,0,.78-.52,2.36,2.36,0,0,0,.5-.8,3,3,0,0,0,0-2.05,2.26,2.26,0,0,0-.5-.8,2.32,2.32,0,0,0-.78-.52,2.81,2.81,0,0,0-2,0,2.18,2.18,0,0,0-.77.52,2.61,2.61,0,0,0-.51.8,3,3,0,0,0,0,2.05,2.74,2.74,0,0,0,.51.8,2.33,2.33,0,0,0,.77.52A2.64,2.64,0,0,0,104.22,137.05Z"/><path d="M101.71,124.48c-.28,0-.56,0-.84,0l-.83.06v-1.14h1.14v0a2.44,2.44,0,0,1-1-1.07,2.94,2.94,0,0,1-.34-1.35,3.83,3.83,0,0,1,.06-.65,2.28,2.28,0,0,1,.24-.66,2.34,2.34,0,0,1,.47-.6,2.28,2.28,0,0,1,.78-.47,2.43,2.43,0,0,1-1.13-1,2.76,2.76,0,0,1-.42-1.45,2.69,2.69,0,0,1,.76-2.12,3.12,3.12,0,0,1,2.17-.69h4.75v1h-4.37a3.22,3.22,0,0,0-1.74.4,1.65,1.65,0,0,0-.61,1.49,2,2,0,0,0,.23,1,1.84,1.84,0,0,0,.62.65,2.5,2.5,0,0,0,.87.36,4.25,4.25,0,0,0,1,.11h4v1.06h-4.37a3.13,3.13,0,0,0-1.74.4,1.64,1.64,0,0,0-.61,1.49,3.61,3.61,0,0,0,.06.44,1.71,1.71,0,0,0,.36.71,2.53,2.53,0,0,0,.86.66,3.53,3.53,0,0,0,1.6.3h3.84v1.06Z"/><path d="M101.71,110.84q-.42,0-.84,0l-.83,0v-1.13h1.14v0a2.41,2.41,0,0,1-1-1.06,2.94,2.94,0,0,1-.34-1.35,3.83,3.83,0,0,1,.06-.65,2.28,2.28,0,0,1,.24-.66,2,2,0,0,1,.47-.6,2.28,2.28,0,0,1,.78-.47,2.48,2.48,0,0,1-1.13-1,2.76,2.76,0,0,1-.42-1.45,2.73,2.73,0,0,1,.76-2.13,3.12,3.12,0,0,1,2.17-.68h4.75v1h-4.37a3.13,3.13,0,0,0-1.74.4,1.64,1.64,0,0,0-.61,1.49,2,2,0,0,0,.23,1,1.93,1.93,0,0,0,.62.65,3,3,0,0,0,.87.36,4.83,4.83,0,0,0,1,.11h4v1.06h-4.37a3.13,3.13,0,0,0-1.74.4,1.63,1.63,0,0,0-.61,1.49,3.61,3.61,0,0,0,.06.44,1.77,1.77,0,0,0,.36.71,2.67,2.67,0,0,0,.86.66,3.53,3.53,0,0,0,1.6.3h3.84v1Z"/></g><line class="cls-2" x1="116.53" y1="46.72" x2="116.53" y2="217.3"/><line class="cls-2" x1="118.11" y1="46.72" x2="114.74" y2="46.72"/><line class="cls-2" x1="118.29" y1="217.3" x2="113.92" y2="217.3"/><g class="cls-1"><path d="M121.39,22a4,4,0,0,1,.68,1.16,4.44,4.44,0,0,1,0,3,3.73,3.73,0,0,1-2.08,2.07,4.2,4.2,0,0,1-1.61.3,4.15,4.15,0,0,1-1.4-.23,3.72,3.72,0,0,1-1.11-.61l-1.07,1.09-.52-.5,1.06-1.08a3.67,3.67,0,0,1-.69-1.18,4.17,4.17,0,0,1-.24-1.43,4,4,0,0,1,.3-1.57,3.67,3.67,0,0,1,.82-1.25,3.76,3.76,0,0,1,1.26-.82,4.09,4.09,0,0,1,1.59-.3,4.18,4.18,0,0,1,1.39.22,3.65,3.65,0,0,1,1.15.62l1.06-1.09.51.49Zm-1.25.26a2.66,2.66,0,0,0-1.81-.63,3,3,0,0,0-1.18.23,2.7,2.7,0,0,0-.88.64,2.94,2.94,0,0,0-.56.94,3.42,3.42,0,0,0-.2,1.17,2.94,2.94,0,0,0,.55,1.82ZM116.54,27a2.72,2.72,0,0,0,.8.45,3.11,3.11,0,0,0,1,.16,2.8,2.8,0,0,0,1.18-.24,2.54,2.54,0,0,0,.88-.63,2.73,2.73,0,0,0,.57-.94,3.51,3.51,0,0,0,.2-1.17,3.18,3.18,0,0,0-.54-1.83Z"/><path d="M135,18.09h-4.63l-.08,3.41a3.44,3.44,0,0,1,.76-.21,4.87,4.87,0,0,1,.76-.06,3.8,3.8,0,0,1,1.46.27,3.26,3.26,0,0,1,1.13.76,3.42,3.42,0,0,1,.73,1.15,4,4,0,0,1,0,2.94,3.34,3.34,0,0,1-.8,1.17,3.51,3.51,0,0,1-1.21.76,4.14,4.14,0,0,1-1.51.28,3.78,3.78,0,0,1-1.94-.52,3.35,3.35,0,0,1-1.32-1.5l1.15-.5a2.61,2.61,0,0,0,.89,1.07,2.31,2.31,0,0,0,1.33.39,2.55,2.55,0,0,0,1-.2,2.5,2.5,0,0,0,.81-.54A2.68,2.68,0,0,0,134,26a2.54,2.54,0,0,0,.2-1,2.79,2.79,0,0,0-.21-1.09,2.52,2.52,0,0,0-.58-.85,2.35,2.35,0,0,0-.88-.55,3.1,3.1,0,0,0-1.12-.2,4.59,4.59,0,0,0-1.21.17,5.14,5.14,0,0,0-1.14.46l.11-5.88H135Z"/><path d="M140.87,16.84a3.24,3.24,0,0,1,2,.56A3.89,3.89,0,0,1,144,18.83a6.3,6.3,0,0,1,.56,1.89,13.76,13.76,0,0,1,.14,2,13.53,13.53,0,0,1-.14,2,6.45,6.45,0,0,1-.56,1.9A3.78,3.78,0,0,1,142.84,28a3.67,3.67,0,0,1-3.93,0,3.6,3.6,0,0,1-1.17-1.42,6.17,6.17,0,0,1-.56-1.9,13.58,13.58,0,0,1-.15-2,13.82,13.82,0,0,1,.15-2,6,6,0,0,1,.56-1.89,3.7,3.7,0,0,1,1.17-1.43A3.21,3.21,0,0,1,140.87,16.84Zm0,1.06a2,2,0,0,0-1.46.5,3.08,3.08,0,0,0-.81,1.23,6.1,6.1,0,0,0-.34,1.56c0,.56-.07,1.06-.07,1.51s0,.95.07,1.5a6.09,6.09,0,0,0,.34,1.57,3.08,3.08,0,0,0,.81,1.23,2.07,2.07,0,0,0,1.46.5,2.09,2.09,0,0,0,1.47-.5,3.3,3.3,0,0,0,.81-1.23,6.09,6.09,0,0,0,.34-1.57c0-.55.07-1.05.07-1.5s0-.95-.07-1.51a6.1,6.1,0,0,0-.34-1.56,3.3,3.3,0,0,0-.81-1.23A2,2,0,0,0,140.87,17.9Z"/><path d="M149.77,16.84a3.24,3.24,0,0,1,2,.56,3.77,3.77,0,0,1,1.16,1.43,6,6,0,0,1,.56,1.89,13.82,13.82,0,0,1,.15,2,13.58,13.58,0,0,1-.15,2,6.17,6.17,0,0,1-.56,1.9A3.66,3.66,0,0,1,151.74,28a3.69,3.69,0,0,1-3.94,0,3.78,3.78,0,0,1-1.17-1.42,6.77,6.77,0,0,1-.56-1.9,15.09,15.09,0,0,1-.14-2,15.36,15.36,0,0,1,.14-2,6.6,6.6,0,0,1,.56-1.89,3.89,3.89,0,0,1,1.17-1.43A3.24,3.24,0,0,1,149.77,16.84Zm0,1.06a2,2,0,0,0-1.47.5,3.17,3.17,0,0,0-.8,1.23,6.11,6.11,0,0,0-.35,1.56c-.05.56-.07,1.06-.07,1.51s0,.95.07,1.5a6.09,6.09,0,0,0,.35,1.57,3.17,3.17,0,0,0,.8,1.23,2.09,2.09,0,0,0,1.47.5,2.05,2.05,0,0,0,1.46-.5,3.08,3.08,0,0,0,.81-1.23,5.7,5.7,0,0,0,.34-1.57c.05-.55.08-1.05.08-1.5s0-.95-.08-1.51a5.71,5.71,0,0,0-.34-1.56,3.08,3.08,0,0,0-.81-1.23A2,2,0,0,0,149.77,17.9Z"/><path d="M159.82,22.54c0-.28,0-.56,0-.83s0-.56,0-.84h1.13V22h0A2.41,2.41,0,0,1,162,21a2.94,2.94,0,0,1,1.35-.34,3.07,3.07,0,0,1,.65.07,2.25,2.25,0,0,1,.66.23,2,2,0,0,1,.6.47,2.47,2.47,0,0,1,.48.78,2.45,2.45,0,0,1,1-1.13,3.07,3.07,0,0,1,3.58.34,3.17,3.17,0,0,1,.68,2.17v4.75h-1V24a3.25,3.25,0,0,0-.4-1.74,1.67,1.67,0,0,0-1.49-.61,2,2,0,0,0-1,.23,1.93,1.93,0,0,0-.65.62,3.07,3.07,0,0,0-.36.87,4.9,4.9,0,0,0-.11,1v4h-1.06V24a3.16,3.16,0,0,0-.4-1.74,1.65,1.65,0,0,0-1.49-.61,2.67,2.67,0,0,0-.44.07,1.73,1.73,0,0,0-.71.35,2.67,2.67,0,0,0-.66.86,3.53,3.53,0,0,0-.3,1.6v3.84h-1.05Z"/><path d="M173.45,22.54c0-.28,0-.56,0-.83s0-.56,0-.84h1.13V22h0a2.41,2.41,0,0,1,1.06-1,2.94,2.94,0,0,1,1.35-.34,3,3,0,0,1,.65.07,2.25,2.25,0,0,1,.66.23,2,2,0,0,1,.6.47,2.47,2.47,0,0,1,.48.78,2.45,2.45,0,0,1,1-1.13,3.07,3.07,0,0,1,3.58.34,3.12,3.12,0,0,1,.69,2.17v4.75h-1.06V24a3.16,3.16,0,0,0-.4-1.74,1.67,1.67,0,0,0-1.49-.61,2,2,0,0,0-1,.23,1.93,1.93,0,0,0-.65.62,3.07,3.07,0,0,0-.36.87,4.9,4.9,0,0,0-.11,1v4H178.5V24a3.16,3.16,0,0,0-.4-1.74,1.65,1.65,0,0,0-1.48-.61,2.52,2.52,0,0,0-.44.07,1.71,1.71,0,0,0-.72.35,2.67,2.67,0,0,0-.66.86,3.53,3.53,0,0,0-.3,1.6v3.84h-1.05Z"/></g><g class="cls-1"><path d="M122.84,241.05a3.82,3.82,0,0,1,.68,1.16,4.29,4.29,0,0,1,.25,1.45,4,4,0,0,1-.3,1.57,3.93,3.93,0,0,1-.82,1.25,4,4,0,0,1-1.26.82,4.2,4.2,0,0,1-1.61.3,4.15,4.15,0,0,1-1.4-.23,3.72,3.72,0,0,1-1.11-.61l-1.07,1.09-.51-.49,1-1.09a3.56,3.56,0,0,1-.69-1.18,4.17,4.17,0,0,1-.24-1.43,4,4,0,0,1,.3-1.57,3.93,3.93,0,0,1,.82-1.25,3.87,3.87,0,0,1,1.26-.82,4.13,4.13,0,0,1,1.59-.3,4.4,4.4,0,0,1,1.39.22,3.81,3.81,0,0,1,1.16.62l1-1.09.51.49Zm-1.25.26a2.64,2.64,0,0,0-1.81-.63,2.72,2.72,0,0,0-1.17.24,2.45,2.45,0,0,0-.88.63,2.86,2.86,0,0,0-.56.94,3.23,3.23,0,0,0-.2,1.17,3,3,0,0,0,.54,1.82ZM118,246a2.72,2.72,0,0,0,.8.45,3.11,3.11,0,0,0,1,.16,2.8,2.8,0,0,0,1.18-.24,2.67,2.67,0,0,0,.89-.63,2.77,2.77,0,0,0,.56-.94,3.2,3.2,0,0,0,.2-1.17,3.13,3.13,0,0,0-.54-1.82Z"/><path d="M136.42,237.13H131.8l-.08,3.41a3.21,3.21,0,0,1,.75-.21,5,5,0,0,1,.77-.06,3.75,3.75,0,0,1,1.45.27,3.17,3.17,0,0,1,1.13.76,3.55,3.55,0,0,1,.74,1.15,4.06,4.06,0,0,1,.26,1.45,3.72,3.72,0,0,1-.29,1.5,3.39,3.39,0,0,1-.8,1.16,3.51,3.51,0,0,1-1.21.76,3.9,3.9,0,0,1-1.51.28,3.63,3.63,0,0,1-1.93-.52,3.31,3.31,0,0,1-1.33-1.5l1.15-.5a2.61,2.61,0,0,0,.89,1.07,2.34,2.34,0,0,0,1.33.39,2.55,2.55,0,0,0,1-.2,2.5,2.5,0,0,0,.81-.54,2.36,2.36,0,0,0,.54-.8,2.5,2.5,0,0,0,.2-1,2.79,2.79,0,0,0-.21-1.09,2.52,2.52,0,0,0-.58-.85,2.27,2.27,0,0,0-.88-.55,3.1,3.1,0,0,0-1.12-.2,4.52,4.52,0,0,0-1.2.17,6,6,0,0,0-1.15.46l.12-5.87h5.77Z"/><path d="M142.33,235.88a3.21,3.21,0,0,1,2,.56,3.89,3.89,0,0,1,1.17,1.43,6.11,6.11,0,0,1,.56,1.89,13.14,13.14,0,0,1,0,4,6.11,6.11,0,0,1-.56,1.89,3.89,3.89,0,0,1-1.17,1.43,3.73,3.73,0,0,1-3.93,0,3.89,3.89,0,0,1-1.17-1.43,6.39,6.39,0,0,1-.56-1.89,14.07,14.07,0,0,1,0-4,6.39,6.39,0,0,1,.56-1.89,3.89,3.89,0,0,1,1.17-1.43A3.22,3.22,0,0,1,142.33,235.88Zm0,1.06a2.09,2.09,0,0,0-1.47.5,3.08,3.08,0,0,0-.81,1.23,6.09,6.09,0,0,0-.34,1.57c-.05.55-.07,1-.07,1.5s0,.95.07,1.5a6.09,6.09,0,0,0,.34,1.57,3.08,3.08,0,0,0,.81,1.23,2.4,2.4,0,0,0,2.93,0,3.08,3.08,0,0,0,.81-1.23,6.09,6.09,0,0,0,.34-1.57c.05-.55.07-1.05.07-1.5s0-1-.07-1.5a6.09,6.09,0,0,0-.34-1.57,3.08,3.08,0,0,0-.81-1.23A2.09,2.09,0,0,0,142.33,236.94Z"/><path d="M151.22,235.88a3.24,3.24,0,0,1,2,.56,3.89,3.89,0,0,1,1.17,1.43,6.7,6.7,0,0,1,.56,1.89,14.07,14.07,0,0,1,0,4,6.7,6.7,0,0,1-.56,1.89,3.89,3.89,0,0,1-1.17,1.43,3.75,3.75,0,0,1-3.94,0,3.89,3.89,0,0,1-1.17-1.43,6.7,6.7,0,0,1-.56-1.89,14.07,14.07,0,0,1,0-4,6.7,6.7,0,0,1,.56-1.89,3.89,3.89,0,0,1,1.17-1.43A3.24,3.24,0,0,1,151.22,235.88Zm0,1.06a2.05,2.05,0,0,0-1.46.5,3.08,3.08,0,0,0-.81,1.23,6.09,6.09,0,0,0-.35,1.57c0,.55-.07,1-.07,1.5s0,.95.07,1.5a6.09,6.09,0,0,0,.35,1.57,3.08,3.08,0,0,0,.81,1.23,2.38,2.38,0,0,0,2.92,0,3.08,3.08,0,0,0,.81-1.23,6.09,6.09,0,0,0,.35-1.57c0-.55.07-1.05.07-1.5s0-1-.07-1.5a6.09,6.09,0,0,0-.35-1.57,3.08,3.08,0,0,0-.81-1.23A2.05,2.05,0,0,0,151.22,236.94Z"/><path d="M161.27,241.58c0-.28,0-.55,0-.83l-.06-.83h1.14v1.13h0a2.47,2.47,0,0,1,1.06-1,3.1,3.1,0,0,1,1.35-.34,3.79,3.79,0,0,1,.65.07,2.25,2.25,0,0,1,.66.23,2,2,0,0,1,.6.47,2.64,2.64,0,0,1,.48.79,2.48,2.48,0,0,1,1-1.14,3.07,3.07,0,0,1,3.58.34,3.12,3.12,0,0,1,.69,2.17v4.75h-1.06V243a3.17,3.17,0,0,0-.4-1.75,1.67,1.67,0,0,0-1.49-.61,1.87,1.87,0,0,0-1.64.85,3.07,3.07,0,0,0-.36.87,4.9,4.9,0,0,0-.11,1v4h-1V243a3.17,3.17,0,0,0-.41-1.75,1.65,1.65,0,0,0-1.48-.61,4.26,4.26,0,0,0-.44.07,1.62,1.62,0,0,0-.71.35,2.55,2.55,0,0,0-.67.86,3.55,3.55,0,0,0-.29,1.6v3.84h-1.06Z"/><path d="M174.9,241.58c0-.28,0-.55,0-.83l-.06-.83H176v1.13h0a2.53,2.53,0,0,1,1.06-1,3.13,3.13,0,0,1,1.35-.34,3.79,3.79,0,0,1,.65.07,2.42,2.42,0,0,1,.67.23,2.34,2.34,0,0,1,.6.47,2.85,2.85,0,0,1,.47.79,2.48,2.48,0,0,1,1-1.14,3.07,3.07,0,0,1,3.58.34,3.12,3.12,0,0,1,.69,2.17v4.75H185V243a3.17,3.17,0,0,0-.4-1.75,1.65,1.65,0,0,0-1.49-.61,1.91,1.91,0,0,0-1,.24,2,2,0,0,0-.65.61,3.07,3.07,0,0,0-.36.87,4.9,4.9,0,0,0-.11,1v4h-1V243a3.26,3.26,0,0,0-.4-1.75,1.68,1.68,0,0,0-1.49-.61,4.26,4.26,0,0,0-.44.07,1.62,1.62,0,0,0-.71.35,2.55,2.55,0,0,0-.67.86,3.69,3.69,0,0,0-.29,1.6v3.84H174.9Z"/></g><line class="cls-2" x1="178.08" y1="37.78" x2="124.32" y2="37.78"/><line class="cls-2" x1="178.08" y1="38.42" x2="178.08" y2="37.06"/><line class="cls-2" x1="124.32" y1="38.49" x2="124.32" y2="36.73"/><line class="cls-2" x1="178.38" y1="226.36" x2="124.05" y2="226.36"/><line class="cls-2" x1="178.38" y1="227.93" x2="178.38" y2="224.56"/><line class="cls-2" x1="124.05" y1="228.11" x2="124.05" y2="223.74"/><rect class="cls-3" x="123.76" y="46.68" width="54.33" height="29.32"/><polyline class="cls-3" points="149.52 182.84 149.36 186.03 148.88 189.7 148.09 193.67 147 197.78 145.6 201.88 143.9 205.79 141.91 209.35"/><polyline class="cls-3" points="141.9 209.35 139.86 212.11 137.25 214.47 134.19 216.34"/><polyline class="cls-3" points="134.19 216.34 131.05 216.89 170.79 216.89 167.65 216.34"/><polyline class="cls-3" points="167.65 216.34 164.59 214.47 161.99 212.11 159.93 209.35"/><polyline class="cls-3" points="159.93 209.35 157.94 205.79 156.24 201.88 154.84 197.78 153.75 193.67 152.96 189.7 152.48 186.03 152.32 182.84"/><rect class="cls-3" x="123.76" y="216.89" width="54.32" height="0.37"/><line class="cls-3" x1="149.52" y1="182.83" x2="149.52" y2="75.99"/><line class="cls-3" x1="152.32" y1="75.99" x2="152.32" y2="182.83"/></svg>