<svg xmlns="http://www.w3.org/2000/svg" viewBox="0 0 300 263"><defs><style>.cls-1,.cls-2,.cls-3,.cls-4{fill:none;stroke-linecap:round;}.cls-1,.cls-2{stroke:red;}.cls-1,.cls-2,.cls-4{stroke-linejoin:round;}.cls-1,.cls-3,.cls-4{stroke-width:0.6px;}.cls-3,.cls-4{stroke:#000;}.cls-3{stroke-miterlimit:10;}</style></defs><title>spun-light-floor-wrong-flos-F66120-curva-fotometrica</title><g id="numeri_esterni_diagramma" data-name="numeri esterni diagramma"><path d="M148.27,239.2a6.85,6.85,0,0,1,.08-1,3.41,3.41,0,0,1,.3-.95,1.94,1.94,0,0,1,.59-.71,1.57,1.57,0,0,1,.95-.27,1.6,1.6,0,0,1,1,.27,2,2,0,0,1,.59.71,3.1,3.1,0,0,1,.29.95,5.7,5.7,0,0,1,.08,1,5.85,5.85,0,0,1-.08,1,3.13,3.13,0,0,1-.29.94,2,2,0,0,1-.59.71,1.6,1.6,0,0,1-1,.27,1.57,1.57,0,0,1-.95-.27,1.94,1.94,0,0,1-.59-.71,3.45,3.45,0,0,1-.3-.94A7.07,7.07,0,0,1,148.27,239.2Zm.68,0c0,.13,0,.29,0,.46a4.88,4.88,0,0,0,.06.52,2.83,2.83,0,0,0,.13.5,1.65,1.65,0,0,0,.22.44,1.24,1.24,0,0,0,.34.31,1,1,0,0,0,.48.12.9.9,0,0,0,.48-.12,1,1,0,0,0,.34-.31,1.41,1.41,0,0,0,.23-.44,4.07,4.07,0,0,0,.13-.5c0-.18,0-.35.06-.52s0-.33,0-.46,0-.3,0-.47,0-.34-.06-.51a3.8,3.8,0,0,0-.13-.51,1.53,1.53,0,0,0-.23-.44,1,1,0,0,0-.34-.31.9.9,0,0,0-.48-.12,1,1,0,0,0-.48.12,1.24,1.24,0,0,0-.34.31,1.81,1.81,0,0,0-.22.44,2.72,2.72,0,0,0-.13.51,4.43,4.43,0,0,0-.06.51C149,238.9,149,239.06,149,239.2Z"/><path d="M152.83,237.41a1.33,1.33,0,0,1,.08-.45,1.11,1.11,0,0,1,.25-.36,1,1,0,0,1,.36-.24,1.17,1.17,0,0,1,.9,0,1,1,0,0,1,.36.24,1.11,1.11,0,0,1,.25.36,1.31,1.31,0,0,1,0,.9,1.23,1.23,0,0,1-.61.61,1.17,1.17,0,0,1-.9,0,1.23,1.23,0,0,1-.61-.61A1.33,1.33,0,0,1,152.83,237.41Zm.43,0a.79.79,0,0,0,.05.25.68.68,0,0,0,.14.23.66.66,0,0,0,.23.17.73.73,0,0,0,.58,0,.76.76,0,0,0,.23-.17.88.88,0,0,0,.14-.23.65.65,0,0,0,0-.5,1.09,1.09,0,0,0-.14-.23,1,1,0,0,0-.23-.17.73.73,0,0,0-.58,0,.81.81,0,0,0-.23.17.75.75,0,0,0-.19.48Z"/><path d="M203.17,238.76h.21l.43,0a1.15,1.15,0,0,0,.42-.13.77.77,0,0,0,.31-.31.94.94,0,0,0,.13-.51.87.87,0,0,0-.27-.68,1,1,0,0,0-.7-.26,1.28,1.28,0,0,0-.63.16,1.14,1.14,0,0,0-.41.48l-.65-.25a1.48,1.48,0,0,1,.65-.72,2.07,2.07,0,0,1,1-.24,2.25,2.25,0,0,1,.64.09,1.72,1.72,0,0,1,.54.28,1.37,1.37,0,0,1,.37.46,1.48,1.48,0,0,1,.14.65,1.29,1.29,0,0,1-.27.8,1.34,1.34,0,0,1-.7.49v0a1.48,1.48,0,0,1,.85.49,1.37,1.37,0,0,1,.23.43,1.69,1.69,0,0,1,.08.5,1.66,1.66,0,0,1-.15.72,1.57,1.57,0,0,1-.41.51,1.71,1.71,0,0,1-.6.31,2.34,2.34,0,0,1-.71.1,2.18,2.18,0,0,1-1.13-.28,1.61,1.61,0,0,1-.7-.91l.68-.22a1.33,1.33,0,0,0,.41.65,1.3,1.3,0,0,0,.74.19,1.33,1.33,0,0,0,.45-.08,1.11,1.11,0,0,0,.36-.23,1.24,1.24,0,0,0,.25-.35,1.13,1.13,0,0,0,.09-.45,1.07,1.07,0,0,0-.12-.53,1,1,0,0,0-.33-.33,1.23,1.23,0,0,0-.46-.18,2.31,2.31,0,0,0-.52-.06h-.21Z"/><path d="M206.24,239.2a6.85,6.85,0,0,1,.08-1,3.11,3.11,0,0,1,.3-.95,1.94,1.94,0,0,1,.59-.71,1.55,1.55,0,0,1,.95-.27,1.6,1.6,0,0,1,1,.27,2,2,0,0,1,.59.71,3.1,3.1,0,0,1,.29.95,5.7,5.7,0,0,1,.08,1,5.85,5.85,0,0,1-.08,1,3.13,3.13,0,0,1-.29.94,2,2,0,0,1-.59.71,1.6,1.6,0,0,1-1,.27,1.55,1.55,0,0,1-.95-.27,1.94,1.94,0,0,1-.59-.71,3.14,3.14,0,0,1-.3-.94A7.07,7.07,0,0,1,206.24,239.2Zm.67,0c0,.13,0,.29,0,.46a4.88,4.88,0,0,0,.06.52,2.83,2.83,0,0,0,.13.5,1.4,1.4,0,0,0,.22.44,1.24,1.24,0,0,0,.34.31,1,1,0,0,0,.48.12.9.9,0,0,0,.48-.12,1,1,0,0,0,.34-.31,1.41,1.41,0,0,0,.23-.44,4.05,4.05,0,0,0,.12-.5,4.88,4.88,0,0,0,.06-.52,3.86,3.86,0,0,0,0-.46,3.94,3.94,0,0,0,0-.47,4.43,4.43,0,0,0-.06-.51,3.81,3.81,0,0,0-.12-.51,1.53,1.53,0,0,0-.23-.44,1,1,0,0,0-.34-.31.9.9,0,0,0-.48-.12,1,1,0,0,0-.48.12,1.24,1.24,0,0,0-.34.31,1.51,1.51,0,0,0-.22.44,2.72,2.72,0,0,0-.13.51,4.43,4.43,0,0,0-.06.51C206.92,238.9,206.91,239.06,206.91,239.2Z"/><path d="M210.84,237.41a1.13,1.13,0,0,1,.09-.45,1.26,1.26,0,0,1,.24-.36,1.2,1.2,0,0,1,.82-.33,1,1,0,0,1,.44.09,1.12,1.12,0,0,1,.37.24,1.26,1.26,0,0,1,.24.36,1.16,1.16,0,0,1-.24,1.26,1.15,1.15,0,0,1-.37.25,1,1,0,0,1-.44.09,1.13,1.13,0,0,1-.45-.09,1.15,1.15,0,0,1-.37-.25,1.15,1.15,0,0,1-.33-.81Zm.43,0a.61.61,0,0,0,.06.25.68.68,0,0,0,.14.23.72.72,0,0,0,.22.17.73.73,0,0,0,.3.06.72.72,0,0,0,.29-.06.62.62,0,0,0,.22-.17.91.91,0,0,0,.15-.23.65.65,0,0,0,0-.5,1.14,1.14,0,0,0-.15-.23.76.76,0,0,0-.22-.17.72.72,0,0,0-.29-.06.73.73,0,0,0-.3.06.92.92,0,0,0-.22.17.79.79,0,0,0-.14.23A.61.61,0,0,0,211.27,237.41Z"/><path d="M93.6,238.76h.21l.44,0a1.1,1.1,0,0,0,.41-.13.86.86,0,0,0,.32-.31.94.94,0,0,0,.12-.51.87.87,0,0,0-.27-.68,1,1,0,0,0-.7-.26,1.21,1.21,0,0,0-.62.16,1.1,1.1,0,0,0-.42.48l-.65-.25a1.45,1.45,0,0,1,.66-.72,2,2,0,0,1,1-.24,2.32,2.32,0,0,1,.65.09,2,2,0,0,1,.54.28,1.67,1.67,0,0,1,.37.46,1.48,1.48,0,0,1,.13.65,1.29,1.29,0,0,1-.27.8,1.34,1.34,0,0,1-.7.49v0a1.31,1.31,0,0,1,.49.18,1.34,1.34,0,0,1,.36.31,1.37,1.37,0,0,1,.23.43,1.42,1.42,0,0,1,.08.5,1.66,1.66,0,0,1-.15.72,1.57,1.57,0,0,1-.41.51,1.75,1.75,0,0,1-.59.31,2.46,2.46,0,0,1-.72.1,2.18,2.18,0,0,1-1.13-.28,1.56,1.56,0,0,1-.69-.91l.68-.22a1.2,1.2,0,0,0,.41.65,1.27,1.27,0,0,0,.73.19,1.33,1.33,0,0,0,.45-.08,1.11,1.11,0,0,0,.36-.23,1.07,1.07,0,0,0,.25-.35,1.13,1.13,0,0,0,.09-.45,1.07,1.07,0,0,0-.12-.53.87.87,0,0,0-.33-.33,1.17,1.17,0,0,0-.46-.18,2.24,2.24,0,0,0-.52-.06H93.6Z"/><path d="M96.68,239.2a5.7,5.7,0,0,1,.08-1,3.1,3.1,0,0,1,.29-.95,2,2,0,0,1,.59-.71,1.6,1.6,0,0,1,1-.27,1.57,1.57,0,0,1,1,.27,1.94,1.94,0,0,1,.59.71,3.41,3.41,0,0,1,.3.95,6.85,6.85,0,0,1,.08,1,7.07,7.07,0,0,1-.08,1,3.45,3.45,0,0,1-.3.94,1.94,1.94,0,0,1-.59.71,1.57,1.57,0,0,1-1,.27,1.6,1.6,0,0,1-1-.27,2,2,0,0,1-.59-.71,3.13,3.13,0,0,1-.29-.94A5.85,5.85,0,0,1,96.68,239.2Zm.67,0c0,.13,0,.29,0,.46a4.88,4.88,0,0,0,.06.52,4.07,4.07,0,0,0,.13.5,1.41,1.41,0,0,0,.23.44,1,1,0,0,0,.34.31.9.9,0,0,0,.48.12,1,1,0,0,0,.48-.12,1.24,1.24,0,0,0,.34-.31,1.65,1.65,0,0,0,.22-.44,2.83,2.83,0,0,0,.13-.5,4.88,4.88,0,0,0,.06-.52c0-.17,0-.33,0-.46s0-.3,0-.47a4.43,4.43,0,0,0-.06-.51,2.72,2.72,0,0,0-.13-.51,1.81,1.81,0,0,0-.22-.44,1.24,1.24,0,0,0-.34-.31,1,1,0,0,0-.48-.12.9.9,0,0,0-.48.12,1,1,0,0,0-.34.31,1.53,1.53,0,0,0-.23.44,3.8,3.8,0,0,0-.13.51,4.43,4.43,0,0,0-.06.51C97.35,238.9,97.35,239.06,97.35,239.2Z"/><path d="M101.28,237.41a1.33,1.33,0,0,1,.08-.45,1.11,1.11,0,0,1,.25-.36,1,1,0,0,1,.36-.24,1.17,1.17,0,0,1,.9,0,1,1,0,0,1,.36.24,1.11,1.11,0,0,1,.25.36,1.31,1.31,0,0,1,0,.9,1.23,1.23,0,0,1-.61.61,1.17,1.17,0,0,1-.9,0,1.23,1.23,0,0,1-.61-.61A1.33,1.33,0,0,1,101.28,237.41Zm.43,0a.79.79,0,0,0,.05.25.68.68,0,0,0,.14.23.76.76,0,0,0,.23.17.73.73,0,0,0,.58,0,.66.66,0,0,0,.23-.17.68.68,0,0,0,.14-.23.71.71,0,0,0-.14-.73.81.81,0,0,0-.23-.17.73.73,0,0,0-.58,0,1,1,0,0,0-.23.17.75.75,0,0,0-.19.48Z"/><path d="M249.93,137.18h0a1.24,1.24,0,0,1-.37.12,1.84,1.84,0,0,1-.39,0,1.91,1.91,0,0,1-.68-.12,1.58,1.58,0,0,1-.54-.37,1.63,1.63,0,0,1-.36-.56,2.05,2.05,0,0,1-.13-.72,1.79,1.79,0,0,1,.15-.75,1.48,1.48,0,0,1,.4-.55,1.79,1.79,0,0,1,.6-.35,2,2,0,0,1,.75-.13,2.11,2.11,0,0,1,.75.13,1.79,1.79,0,0,1,.6.35,1.59,1.59,0,0,1,.4.55,1.79,1.79,0,0,1,.14.75,2.15,2.15,0,0,1,0,.45,1.68,1.68,0,0,1-.11.4,2.59,2.59,0,0,1-.17.38l-.21.36-1.51,2.39h-.78Zm-.59-.42a1.28,1.28,0,0,0,.48-.09,1,1,0,0,0,.39-.24,1.23,1.23,0,0,0,.26-.37,1.43,1.43,0,0,0,0-1,1.1,1.1,0,0,0-.65-.62,1.48,1.48,0,0,0-1,0,1.28,1.28,0,0,0-.39.24,1.12,1.12,0,0,0-.26.38,1.3,1.3,0,0,0,0,1,1.08,1.08,0,0,0,.26.37,1,1,0,0,0,.39.24A1.28,1.28,0,0,0,249.34,136.76Z"/><path d="M251.82,136.71a7.07,7.07,0,0,1,.08-1,3.19,3.19,0,0,1,.29-1,2,2,0,0,1,.59-.7,1.54,1.54,0,0,1,1-.28,1.49,1.49,0,0,1,.95.28,1.91,1.91,0,0,1,.59.7,2.94,2.94,0,0,1,.3,1,6.29,6.29,0,0,1,0,2,2.94,2.94,0,0,1-.3.95,1.91,1.91,0,0,1-.59.7,1.49,1.49,0,0,1-.95.28,1.54,1.54,0,0,1-1-.28,2,2,0,0,1-.59-.7,3.19,3.19,0,0,1-.29-.95A7.07,7.07,0,0,1,251.82,136.71Zm.67,0c0,.14,0,.29,0,.46a4.6,4.6,0,0,0,.06.52,4.7,4.7,0,0,0,.12.51,2,2,0,0,0,.23.44,1,1,0,0,0,.34.31,1,1,0,0,0,.48.11,1.06,1.06,0,0,0,.48-.11,1.24,1.24,0,0,0,.34-.31,1.65,1.65,0,0,0,.22-.44,3.18,3.18,0,0,0,.13-.51,4.6,4.6,0,0,0,.06-.52c0-.17,0-.32,0-.46s0-.29,0-.46a4.6,4.6,0,0,0-.06-.52,3.18,3.18,0,0,0-.13-.51,1.65,1.65,0,0,0-.22-.44,1.24,1.24,0,0,0-.34-.31,1.06,1.06,0,0,0-.48-.11,1,1,0,0,0-.48.11,1,1,0,0,0-.34.31,2,2,0,0,0-.23.44,4.7,4.7,0,0,0-.12.51,4.6,4.6,0,0,0-.06.52C252.5,136.42,252.49,136.57,252.49,136.71Z"/><path d="M256.42,134.93a1.13,1.13,0,0,1,.09-.45,1.31,1.31,0,0,1,.24-.37,1.18,1.18,0,0,1,.37-.24,1,1,0,0,1,.44-.09,1.13,1.13,0,0,1,.45.09,1.06,1.06,0,0,1,.61.61,1.13,1.13,0,0,1,.09.45,1,1,0,0,1-.09.44,1.06,1.06,0,0,1-.61.61,1.13,1.13,0,0,1-.45.09,1,1,0,0,1-.44-.09,1.18,1.18,0,0,1-.37-.24,1.31,1.31,0,0,1-.24-.37A1,1,0,0,1,256.42,134.93Zm.43,0a.69.69,0,0,0,0,.24,1,1,0,0,0,.15.24.73.73,0,0,0,.51.23.54.54,0,0,0,.29-.07.63.63,0,0,0,.23-.16.72.72,0,0,0,.14-.24.52.52,0,0,0,0-.24.56.56,0,0,0,0-.25.59.59,0,0,0-.14-.23.74.74,0,0,0-.52-.24.73.73,0,0,0-.29.07.62.62,0,0,0-.22.17.76.76,0,0,0-.15.23A.74.74,0,0,0,256.85,134.93Z"/><path d="M41.57,137.18h0a1.34,1.34,0,0,1-.37.12,2,2,0,0,1-.39,0,1.92,1.92,0,0,1-.69-.12,1.58,1.58,0,0,1-.54-.37,1.8,1.8,0,0,1-.36-.56,2.05,2.05,0,0,1-.13-.72,1.79,1.79,0,0,1,.15-.75,1.48,1.48,0,0,1,.4-.55,1.79,1.79,0,0,1,.6-.35,2.23,2.23,0,0,1,1.5,0,1.79,1.79,0,0,1,.6.35,1.48,1.48,0,0,1,.4.55,1.79,1.79,0,0,1,.15.75,3.14,3.14,0,0,1,0,.45,2.34,2.34,0,0,1-.12.4,1.84,1.84,0,0,1-.17.38,3.35,3.35,0,0,1-.21.36l-1.5,2.39h-.79Zm-.59-.42a1.28,1.28,0,0,0,.48-.09,1,1,0,0,0,.39-.24,1.23,1.23,0,0,0,.26-.37,1.3,1.3,0,0,0,0-1,1.1,1.1,0,0,0-.65-.62,1.48,1.48,0,0,0-1,0,1.1,1.1,0,0,0-.65.62,1.43,1.43,0,0,0,0,1,1.23,1.23,0,0,0,.26.37,1,1,0,0,0,.39.24A1.28,1.28,0,0,0,41,136.76Z"/><path d="M43.46,136.71a7.07,7.07,0,0,1,.08-1,2.94,2.94,0,0,1,.3-1,1.91,1.91,0,0,1,.59-.7,1.49,1.49,0,0,1,1-.28,1.54,1.54,0,0,1,1,.28,2,2,0,0,1,.59.7,3.19,3.19,0,0,1,.29,1,6.29,6.29,0,0,1,0,2,3.19,3.19,0,0,1-.29.95,2,2,0,0,1-.59.7,1.54,1.54,0,0,1-1,.28,1.49,1.49,0,0,1-1-.28,1.91,1.91,0,0,1-.59-.7,2.94,2.94,0,0,1-.3-.95A7.07,7.07,0,0,1,43.46,136.71Zm.67,0c0,.14,0,.29,0,.46a4.6,4.6,0,0,0,.06.52,3.18,3.18,0,0,0,.13.51,1.65,1.65,0,0,0,.22.44,1.12,1.12,0,0,0,.34.31,1.1,1.1,0,0,0,1,0,1.12,1.12,0,0,0,.34-.31,2,2,0,0,0,.23-.44,4.7,4.7,0,0,0,.12-.51,4.6,4.6,0,0,0,.06-.52c0-.17,0-.32,0-.46s0-.29,0-.46a4.6,4.6,0,0,0-.06-.52,4.7,4.7,0,0,0-.12-.51,2,2,0,0,0-.23-.44,1.12,1.12,0,0,0-.34-.31,1.1,1.1,0,0,0-1,0,1.12,1.12,0,0,0-.34.31,1.65,1.65,0,0,0-.22.44,3.18,3.18,0,0,0-.13.51,4.6,4.6,0,0,0-.06.52C44.14,136.42,44.13,136.57,44.13,136.71Z"/><path d="M48.06,134.93a1.13,1.13,0,0,1,.09-.45,1.06,1.06,0,0,1,.61-.61,1.13,1.13,0,0,1,.45-.09,1.08,1.08,0,0,1,.44.09,1.06,1.06,0,0,1,.61.61,1.13,1.13,0,0,1,.09.45,1,1,0,0,1-.09.44,1.06,1.06,0,0,1-.61.61,1.08,1.08,0,0,1-.44.09,1.13,1.13,0,0,1-.45-.09,1.06,1.06,0,0,1-.61-.61A1,1,0,0,1,48.06,134.93Zm.43,0a.53.53,0,0,0,.06.24.72.72,0,0,0,.14.24.69.69,0,0,0,.22.16.6.6,0,0,0,.3.07.73.73,0,0,0,.51-.23,1,1,0,0,0,.15-.24.69.69,0,0,0,.05-.24.74.74,0,0,0-.05-.25.76.76,0,0,0-.15-.23.62.62,0,0,0-.22-.17.73.73,0,0,0-.29-.07.73.73,0,0,0-.3.07.72.72,0,0,0-.22.17.59.59,0,0,0-.14.23A.57.57,0,0,0,48.49,134.93Z"/><path d="M148.37,38.51h-.68v-4.8h0l-1,.85-.4-.48,1.52-1.24h.59Z"/><path d="M150.49,34.23a1.48,1.48,0,0,1,.13-.61,1.2,1.2,0,0,1,.34-.46,1.44,1.44,0,0,1,.51-.3,1.92,1.92,0,0,1,1.28,0,1.44,1.44,0,0,1,.51.3,1.2,1.2,0,0,1,.34.46,1.33,1.33,0,0,1,.13.61,1.16,1.16,0,0,1-.07.4,1.41,1.41,0,0,1-.18.37,1.33,1.33,0,0,1-.29.29,1.18,1.18,0,0,1-.39.19h0a1.44,1.44,0,0,1,.46.19,1.35,1.35,0,0,1,.35.32,1.42,1.42,0,0,1,.23.44,1.7,1.7,0,0,1,.08.51,1.74,1.74,0,0,1-.14.69,1.43,1.43,0,0,1-.39.52,1.47,1.47,0,0,1-.57.33,2.35,2.35,0,0,1-1.42,0,1.47,1.47,0,0,1-.57-.33,1.55,1.55,0,0,1-.39-.52,1.74,1.74,0,0,1-.14-.69,1.7,1.7,0,0,1,.08-.51,1.67,1.67,0,0,1,.23-.44,1.35,1.35,0,0,1,.35-.32,1.44,1.44,0,0,1,.46-.19h0a1.18,1.18,0,0,1-.39-.19,1.33,1.33,0,0,1-.29-.29,1.41,1.41,0,0,1-.18-.37A1.46,1.46,0,0,1,150.49,34.23ZM151,36.9a1.18,1.18,0,0,0,.09.46,1.07,1.07,0,0,0,.25.35,1,1,0,0,0,.36.23,1.12,1.12,0,0,0,.88,0,1,1,0,0,0,.36-.23,1.07,1.07,0,0,0,.25-.35,1.18,1.18,0,0,0,.09-.46,1.14,1.14,0,0,0-.09-.46,1.13,1.13,0,0,0-.61-.58,1.12,1.12,0,0,0-.88,0,1.13,1.13,0,0,0-.61.58A1.14,1.14,0,0,0,151,36.9Zm.2-2.64a.88.88,0,0,0,.26.67,1,1,0,0,0,1.36,0,1,1,0,0,0,0-1.34,1,1,0,0,0-1.36,0A.88.88,0,0,0,151.17,34.26Z"/><path d="M154.64,35.68a7,7,0,0,1,.08-1,3.1,3.1,0,0,1,.29-1,2,2,0,0,1,.59-.71,1.6,1.6,0,0,1,1-.27,1.55,1.55,0,0,1,.95.27,1.94,1.94,0,0,1,.59.71,2.86,2.86,0,0,1,.3,1,7,7,0,0,1,.08,1,7.07,7.07,0,0,1-.08,1,2.88,2.88,0,0,1-.3.94,1.94,1.94,0,0,1-.59.71,1.55,1.55,0,0,1-.95.27,1.6,1.6,0,0,1-1-.27,2,2,0,0,1-.59-.71,3.13,3.13,0,0,1-.29-.94A7.07,7.07,0,0,1,154.64,35.68Zm.67,0c0,.13,0,.29,0,.46a4.88,4.88,0,0,0,.06.52,4.05,4.05,0,0,0,.12.5,1.66,1.66,0,0,0,.23.44,1.12,1.12,0,0,0,.34.31,1,1,0,0,0,1,0,1.12,1.12,0,0,0,.34-.31,1.4,1.4,0,0,0,.22-.44,2.83,2.83,0,0,0,.13-.5,4.88,4.88,0,0,0,.06-.52c0-.17,0-.33,0-.46s0-.3,0-.47a4.43,4.43,0,0,0-.06-.51,2.72,2.72,0,0,0-.13-.51,1.51,1.51,0,0,0-.22-.44,1.12,1.12,0,0,0-.34-.31,1,1,0,0,0-1,0,1.12,1.12,0,0,0-.34.31,1.83,1.83,0,0,0-.23.44,3.81,3.81,0,0,0-.12.51,4.43,4.43,0,0,0-.06.51C155.32,35.38,155.31,35.54,155.31,35.68Z"/><path d="M159.24,33.89a1.15,1.15,0,0,1,.33-.81,1,1,0,0,1,.37-.24,1,1,0,0,1,.44-.09,1.15,1.15,0,0,1,.82,2,1.15,1.15,0,0,1-.37.25,1.13,1.13,0,0,1-.45.09,1.15,1.15,0,0,1-.81-.34,1.15,1.15,0,0,1-.33-.81Zm.43,0a.79.79,0,0,0,.05.25,1.14,1.14,0,0,0,.15.23.62.62,0,0,0,.22.17.72.72,0,0,0,.29.06.68.68,0,0,0,.52-.23.79.79,0,0,0,.14-.23.65.65,0,0,0,0-.5.79.79,0,0,0-.14-.23.81.81,0,0,0-.23-.17.65.65,0,0,0-.29-.06.72.72,0,0,0-.29.06.76.76,0,0,0-.22.17,1.14,1.14,0,0,0-.15.23A.79.79,0,0,0,159.67,33.89Z"/><path d="M203.18,38.51h-.68v-4.8h0l-1,.85-.4-.48,1.52-1.24h.59Z"/><path d="M208.49,33.47h-2.31l0,1.53a1.08,1.08,0,0,1,.36-.11l.37,0a2,2,0,0,1,.74.14,1.61,1.61,0,0,1,.57.39,1.9,1.9,0,0,1,.37.59,2,2,0,0,1,.13.74,2,2,0,0,1-.15.78,1.74,1.74,0,0,1-.41.59,1.91,1.91,0,0,1-.61.38,2.2,2.2,0,0,1-.78.13,1.73,1.73,0,0,1-1-.28,2,2,0,0,1-.63-.75l.67-.25a1.31,1.31,0,0,0,.42.51,1.1,1.1,0,0,0,.64.2,1.28,1.28,0,0,0,.48-.09,1.26,1.26,0,0,0,.38-.27,1.15,1.15,0,0,0,.26-.41,1.53,1.53,0,0,0,.1-.54,1.38,1.38,0,0,0-.11-.55,1.08,1.08,0,0,0-.3-.4,1.26,1.26,0,0,0-.44-.25,1.67,1.67,0,0,0-.55-.08,1.84,1.84,0,0,0-.6.1,2.58,2.58,0,0,0-.56.25l.06-2.95h3Z"/><path d="M209.45,35.68a7,7,0,0,1,.08-1,3.1,3.1,0,0,1,.29-1,2,2,0,0,1,.59-.71,1.6,1.6,0,0,1,1-.27,1.55,1.55,0,0,1,.95.27,1.94,1.94,0,0,1,.59.71,2.86,2.86,0,0,1,.3,1,7,7,0,0,1,.08,1,7.07,7.07,0,0,1-.08,1,2.88,2.88,0,0,1-.3.94,1.94,1.94,0,0,1-.59.71,1.55,1.55,0,0,1-.95.27,1.6,1.6,0,0,1-1-.27,2,2,0,0,1-.59-.71,3.13,3.13,0,0,1-.29-.94A7.07,7.07,0,0,1,209.45,35.68Zm.67,0c0,.13,0,.29,0,.46a4.88,4.88,0,0,0,.06.52,4.05,4.05,0,0,0,.12.5,1.66,1.66,0,0,0,.23.44,1,1,0,0,0,.34.31.9.9,0,0,0,.48.12,1,1,0,0,0,.48-.12,1.24,1.24,0,0,0,.34-.31,1.4,1.4,0,0,0,.22-.44,2.83,2.83,0,0,0,.13-.5,4.88,4.88,0,0,0,.06-.52c0-.17,0-.33,0-.46s0-.3,0-.47a4.43,4.43,0,0,0-.06-.51,2.72,2.72,0,0,0-.13-.51,1.51,1.51,0,0,0-.22-.44,1.24,1.24,0,0,0-.34-.31,1,1,0,0,0-.48-.12.9.9,0,0,0-.48.12,1,1,0,0,0-.34.31,1.83,1.83,0,0,0-.23.44,3.81,3.81,0,0,0-.12.51,4.43,4.43,0,0,0-.06.51C210.13,35.38,210.12,35.54,210.12,35.68Z"/><path d="M214.05,33.89a1.15,1.15,0,0,1,.33-.81,1,1,0,0,1,.37-.24,1,1,0,0,1,.44-.09,1.13,1.13,0,0,1,.45.09,1,1,0,0,1,.36.24,1,1,0,0,1,.25.36,1.17,1.17,0,0,1,0,.9,1.23,1.23,0,0,1-.61.61,1.13,1.13,0,0,1-.45.09,1.15,1.15,0,0,1-.81-.34,1.15,1.15,0,0,1-.33-.81Zm.43,0a.79.79,0,0,0,.05.25,1.14,1.14,0,0,0,.15.23.62.62,0,0,0,.22.17.72.72,0,0,0,.29.06.68.68,0,0,0,.52-.23.79.79,0,0,0,.14-.23.65.65,0,0,0,0-.5.79.79,0,0,0-.14-.23.81.81,0,0,0-.23-.17.65.65,0,0,0-.29-.06.72.72,0,0,0-.29.06.76.76,0,0,0-.22.17,1.14,1.14,0,0,0-.15.23A.79.79,0,0,0,214.48,33.89Z"/><path d="M93.61,38.51h-.67v-4.8h0l-1,.85-.4-.48L93,32.84h.58Z"/><path d="M98.92,33.47H96.61l0,1.53a1,1,0,0,1,.35-.11l.37,0a1.91,1.91,0,0,1,.74.14,1.65,1.65,0,0,1,.58.39A1.71,1.71,0,0,1,99,36a2,2,0,0,1,.13.74,2,2,0,0,1-.15.78,1.71,1.71,0,0,1-.4.59,2,2,0,0,1-.62.38,2.15,2.15,0,0,1-.77.13,1.78,1.78,0,0,1-1.05-.28,1.85,1.85,0,0,1-.62-.75l.67-.25a1.16,1.16,0,0,0,.42.51,1.05,1.05,0,0,0,.63.2,1.28,1.28,0,0,0,.48-.09,1.23,1.23,0,0,0,.64-.68,1.33,1.33,0,0,0,.1-.54,1.38,1.38,0,0,0-.11-.55,1.18,1.18,0,0,0-.29-.4,1.41,1.41,0,0,0-.45-.25,1.63,1.63,0,0,0-.55-.08,1.78,1.78,0,0,0-.59.1,2.58,2.58,0,0,0-.56.25l0-2.95h3Z"/><path d="M99.88,35.68a7,7,0,0,1,.08-1,3.11,3.11,0,0,1,.3-1,1.94,1.94,0,0,1,.59-.71,1.55,1.55,0,0,1,1-.27,1.6,1.6,0,0,1,1,.27,2,2,0,0,1,.59.71,3.1,3.1,0,0,1,.29,1,5.77,5.77,0,0,1,.08,1,5.85,5.85,0,0,1-.08,1,3.13,3.13,0,0,1-.29.94,2,2,0,0,1-.59.71,1.6,1.6,0,0,1-1,.27,1.55,1.55,0,0,1-1-.27,1.94,1.94,0,0,1-.59-.71,3.14,3.14,0,0,1-.3-.94A7.07,7.07,0,0,1,99.88,35.68Zm.67,0c0,.13,0,.29,0,.46a4.88,4.88,0,0,0,.06.52,2.83,2.83,0,0,0,.13.5,1.4,1.4,0,0,0,.22.44,1.24,1.24,0,0,0,.34.31,1,1,0,0,0,.48.12.9.9,0,0,0,.48-.12,1,1,0,0,0,.34-.31,1.41,1.41,0,0,0,.23-.44,4.05,4.05,0,0,0,.12-.5,4.88,4.88,0,0,0,.06-.52c0-.17,0-.33,0-.46s0-.3,0-.47a4.43,4.43,0,0,0-.06-.51,3.81,3.81,0,0,0-.12-.51,1.53,1.53,0,0,0-.23-.44,1,1,0,0,0-.34-.31.9.9,0,0,0-.48-.12,1,1,0,0,0-.48.12,1.24,1.24,0,0,0-.34.31,1.51,1.51,0,0,0-.22.44,2.72,2.72,0,0,0-.13.51,4.43,4.43,0,0,0-.06.51C100.56,35.38,100.55,35.54,100.55,35.68Z"/><path d="M104.48,33.89a1.15,1.15,0,0,1,1.15-1.14,1,1,0,0,1,.44.09,1.12,1.12,0,0,1,.37.24,1.16,1.16,0,0,1,0,1.62,1.15,1.15,0,0,1-.37.25,1,1,0,0,1-.44.09,1.13,1.13,0,0,1-.45-.09,1.15,1.15,0,0,1-.37-.25,1.15,1.15,0,0,1-.33-.81Zm.43,0a.61.61,0,0,0,.06.25.79.79,0,0,0,.14.23.72.72,0,0,0,.22.17.73.73,0,0,0,.3.06.72.72,0,0,0,.29-.06.62.62,0,0,0,.22-.17,1.14,1.14,0,0,0,.15-.23.65.65,0,0,0,0-.5,1.14,1.14,0,0,0-.15-.23.76.76,0,0,0-.22-.17.72.72,0,0,0-.29-.06.73.73,0,0,0-.3.06.92.92,0,0,0-.22.17.79.79,0,0,0-.14.23A.61.61,0,0,0,104.91,33.89Z"/><path d="M248.75,192.45v0a1.35,1.35,0,0,1,.37-.13,2,2,0,0,1,.39,0,1.73,1.73,0,0,1,.69.13,1.42,1.42,0,0,1,.54.36,1.85,1.85,0,0,1,.36.57,2,2,0,0,1,.12.72,1.78,1.78,0,0,1-.14.74,1.74,1.74,0,0,1-.4.56,2,2,0,0,1-.6.35,2.36,2.36,0,0,1-.75.12,2.27,2.27,0,0,1-.75-.12,2,2,0,0,1-.6-.35,1.6,1.6,0,0,1-.4-.56,1.78,1.78,0,0,1-.15-.74,2.24,2.24,0,0,1,.15-.86,5.28,5.28,0,0,1,.39-.74l1.5-2.39h.79Zm.59.43a1.23,1.23,0,0,0-.87.32,1,1,0,0,0-.26.38,1.31,1.31,0,0,0-.1.5,1.35,1.35,0,0,0,.1.5,1.08,1.08,0,0,0,.26.37,1,1,0,0,0,.39.24,1.32,1.32,0,0,0,1,0,1,1,0,0,0,.39-.24,1.23,1.23,0,0,0,.26-.37,1.35,1.35,0,0,0,.09-.5,1.31,1.31,0,0,0-.09-.5,1.16,1.16,0,0,0-.26-.38,1.23,1.23,0,0,0-.87-.32Z"/><path d="M251.82,192.92a7.07,7.07,0,0,1,.08-1,3.13,3.13,0,0,1,.29-.94,2,2,0,0,1,.59-.71,1.6,1.6,0,0,1,1-.27,1.55,1.55,0,0,1,.95.27,1.94,1.94,0,0,1,.59.71,2.88,2.88,0,0,1,.3.94,7.07,7.07,0,0,1,.08,1,7,7,0,0,1-.08,1,2.86,2.86,0,0,1-.3,1,1.94,1.94,0,0,1-.59.71,1.55,1.55,0,0,1-.95.27,1.6,1.6,0,0,1-1-.27,2,2,0,0,1-.59-.71,3.1,3.1,0,0,1-.29-1A7,7,0,0,1,251.82,192.92Zm.67,0c0,.14,0,.3,0,.47a4.43,4.43,0,0,0,.06.51,3.81,3.81,0,0,0,.12.51,1.83,1.83,0,0,0,.23.44,1,1,0,0,0,.34.31.9.9,0,0,0,.48.12,1,1,0,0,0,.48-.12,1.24,1.24,0,0,0,.34-.31,1.51,1.51,0,0,0,.22-.44,2.72,2.72,0,0,0,.13-.51,4.43,4.43,0,0,0,.06-.51c0-.17,0-.33,0-.47s0-.29,0-.46a4.88,4.88,0,0,0-.06-.52,2.83,2.83,0,0,0-.13-.5,1.4,1.4,0,0,0-.22-.44,1.1,1.1,0,0,0-.34-.31,1,1,0,0,0-.48-.12.9.9,0,0,0-.48.12.92.92,0,0,0-.34.31,1.66,1.66,0,0,0-.23.44,4.05,4.05,0,0,0-.12.5,4.88,4.88,0,0,0-.06.52C252.5,192.63,252.49,192.79,252.49,192.92Z"/><path d="M256.42,191.14a1.15,1.15,0,0,1,.33-.81,1.05,1.05,0,0,1,.37-.25,1.23,1.23,0,0,1,.44-.08,1.33,1.33,0,0,1,.45.08,1.15,1.15,0,0,1,.37.25,1.16,1.16,0,0,1,0,1.62,1.15,1.15,0,0,1-.37.25,1.33,1.33,0,0,1-.45.08,1.23,1.23,0,0,1-.44-.08,1.05,1.05,0,0,1-.37-.25,1.15,1.15,0,0,1-.33-.81Zm.43,0a.79.79,0,0,0,0,.25,1.14,1.14,0,0,0,.15.23.62.62,0,0,0,.22.17.72.72,0,0,0,.29.06.68.68,0,0,0,.52-.23.79.79,0,0,0,.14-.23.65.65,0,0,0,0-.5.79.79,0,0,0-.14-.23.68.68,0,0,0-.52-.23.72.72,0,0,0-.29.06.62.62,0,0,0-.22.17,1.14,1.14,0,0,0-.15.23A.79.79,0,0,0,256.85,191.14Z"/><path d="M250,81.22h-.67v-4.8h0l-1,.86-.4-.49,1.52-1.23H250Z"/><path d="M251.92,80.45l2.13-2.08c.13-.12.25-.24.35-.35a2.16,2.16,0,0,0,.25-.32,1.09,1.09,0,0,0,.15-.33,1.38,1.38,0,0,0,0-.37,1,1,0,0,0-.08-.4.84.84,0,0,0-.22-.3.78.78,0,0,0-.33-.19,1.05,1.05,0,0,0-.4-.07,1,1,0,0,0-.71.25,1.08,1.08,0,0,0-.36.65l-.73-.06a1.83,1.83,0,0,1,.21-.61,1.41,1.41,0,0,1,.39-.45,2,2,0,0,1,.53-.27,2.25,2.25,0,0,1,.64-.09,2.41,2.41,0,0,1,.67.1,1.92,1.92,0,0,1,.55.29,1.44,1.44,0,0,1,.51,1.15,2,2,0,0,1-.09.61,2,2,0,0,1-.25.5,3.47,3.47,0,0,1-.35.43l-.41.4-1.75,1.64v0h2.89v.62h-3.64Z"/><path d="M256.27,78.39a5.85,5.85,0,0,1,.08-1,3.19,3.19,0,0,1,.29-1,2,2,0,0,1,.59-.7,1.54,1.54,0,0,1,1-.28,1.51,1.51,0,0,1,.95.28,1.91,1.91,0,0,1,.59.7,3.2,3.2,0,0,1,.3,1,6.29,6.29,0,0,1,0,2,3.2,3.2,0,0,1-.3,1,1.91,1.91,0,0,1-.59.7,1.51,1.51,0,0,1-.95.28,1.54,1.54,0,0,1-1-.28,2,2,0,0,1-.59-.7,3.19,3.19,0,0,1-.29-1A5.85,5.85,0,0,1,256.27,78.39Zm.67,0a3.78,3.78,0,0,0,0,.46c0,.17,0,.35.05.52a4.77,4.77,0,0,0,.13.51,1.67,1.67,0,0,0,.23.44,1,1,0,0,0,.34.31,1,1,0,0,0,.48.11,1.06,1.06,0,0,0,.48-.11,1.24,1.24,0,0,0,.34-.31,2,2,0,0,0,.22-.44,3.18,3.18,0,0,0,.13-.51,4.6,4.6,0,0,0,.06-.52c0-.17,0-.32,0-.46s0-.29,0-.46a4.35,4.35,0,0,0-.06-.52,3.18,3.18,0,0,0-.13-.51,2,2,0,0,0-.22-.44,1.24,1.24,0,0,0-.34-.31,1.06,1.06,0,0,0-.48-.11,1,1,0,0,0-.48.11,1,1,0,0,0-.34.31,1.67,1.67,0,0,0-.23.44,4.77,4.77,0,0,0-.13.51c0,.17,0,.34-.05.52A3.78,3.78,0,0,0,256.94,78.39Z"/><path d="M260.87,76.61a1.13,1.13,0,0,1,.09-.45,1,1,0,0,1,.24-.37,1.16,1.16,0,0,1,1.62,0,1.15,1.15,0,0,1,.25.37,1.13,1.13,0,0,1,.09.45,1,1,0,0,1-.09.44,1.15,1.15,0,0,1-.25.37,1.16,1.16,0,0,1-1.62,0,1,1,0,0,1-.24-.37A1,1,0,0,1,260.87,76.61Zm.43,0a.69.69,0,0,0,.05.24.75.75,0,0,0,.15.24.6.6,0,0,0,.22.16.64.64,0,0,0,.58,0,.63.63,0,0,0,.23-.16.72.72,0,0,0,.14-.24.52.52,0,0,0,.05-.24.56.56,0,0,0-.05-.25.59.59,0,0,0-.14-.23.66.66,0,0,0-.23-.17.64.64,0,0,0-.58,0,.62.62,0,0,0-.22.17.61.61,0,0,0-.15.23A.74.74,0,0,0,261.3,76.61Z"/><path d="M40.39,192.45v0a1.42,1.42,0,0,1,.38-.13,1.84,1.84,0,0,1,.39,0,1.72,1.72,0,0,1,.68.13,1.42,1.42,0,0,1,.54.36,1.85,1.85,0,0,1,.36.57,2,2,0,0,1,.13.72,1.78,1.78,0,0,1-.15.74,1.6,1.6,0,0,1-.4.56,2,2,0,0,1-.6.35,2.4,2.4,0,0,1-1.5,0,2,2,0,0,1-.6-.35,1.6,1.6,0,0,1-.4-.56,1.78,1.78,0,0,1-.15-.74,2.24,2.24,0,0,1,.16-.86,5.19,5.19,0,0,1,.38-.74l1.5-2.39h.79Zm.59.43a1.23,1.23,0,0,0-.87.32,1.16,1.16,0,0,0-.26.38,1.31,1.31,0,0,0-.09.5,1.35,1.35,0,0,0,.09.5,1.23,1.23,0,0,0,.26.37,1,1,0,0,0,.39.24,1.32,1.32,0,0,0,1,0,1,1,0,0,0,.39-.24,1.23,1.23,0,0,0,.26-.37,1.35,1.35,0,0,0,.1-.5,1.31,1.31,0,0,0-.1-.5,1.16,1.16,0,0,0-.26-.38,1.23,1.23,0,0,0-.87-.32Z"/><path d="M43.46,192.92a7.07,7.07,0,0,1,.08-1,2.88,2.88,0,0,1,.3-.94,1.94,1.94,0,0,1,.59-.71,1.55,1.55,0,0,1,1-.27,1.6,1.6,0,0,1,1,.27,2,2,0,0,1,.59.71,3.13,3.13,0,0,1,.29.94,7.07,7.07,0,0,1,.08,1,7,7,0,0,1-.08,1,3.1,3.1,0,0,1-.29,1,2,2,0,0,1-.59.71,1.6,1.6,0,0,1-1,.27,1.55,1.55,0,0,1-1-.27,1.94,1.94,0,0,1-.59-.71,2.86,2.86,0,0,1-.3-1A7,7,0,0,1,43.46,192.92Zm.67,0c0,.14,0,.3,0,.47a4.43,4.43,0,0,0,.06.51,2.72,2.72,0,0,0,.13.51,1.51,1.51,0,0,0,.22.44,1.12,1.12,0,0,0,.34.31,1,1,0,0,0,1,0,1.12,1.12,0,0,0,.34-.31,1.83,1.83,0,0,0,.23-.44,3.81,3.81,0,0,0,.12-.51,4.43,4.43,0,0,0,.06-.51c0-.17,0-.33,0-.47s0-.29,0-.46a4.88,4.88,0,0,0-.06-.52,4.05,4.05,0,0,0-.12-.5,1.66,1.66,0,0,0-.23-.44,1,1,0,0,0-.34-.31,1,1,0,0,0-1,0,1,1,0,0,0-.34.31,1.4,1.4,0,0,0-.22.44,2.83,2.83,0,0,0-.13.5,4.88,4.88,0,0,0-.06.52C44.14,192.63,44.13,192.79,44.13,192.92Z"/><path d="M48.06,191.14a1.15,1.15,0,0,1,.33-.81,1.15,1.15,0,0,1,.37-.25,1.33,1.33,0,0,1,.45-.08,1.27,1.27,0,0,1,.44.08,1.15,1.15,0,0,1,.37.25A1.16,1.16,0,0,1,50,192a1.15,1.15,0,0,1-.37.25,1.27,1.27,0,0,1-.44.08,1.33,1.33,0,0,1-.45-.08,1.15,1.15,0,0,1-.37-.25,1.15,1.15,0,0,1-.33-.81Zm.43,0a.61.61,0,0,0,.06.25.79.79,0,0,0,.14.23.72.72,0,0,0,.22.17.73.73,0,0,0,.3.06.72.72,0,0,0,.29-.06.62.62,0,0,0,.22-.17,1.14,1.14,0,0,0,.15-.23.65.65,0,0,0,0-.5,1.14,1.14,0,0,0-.15-.23.62.62,0,0,0-.22-.17.72.72,0,0,0-.29-.06.73.73,0,0,0-.3.06.72.72,0,0,0-.22.17.79.79,0,0,0-.14.23A.61.61,0,0,0,48.49,191.14Z"/><path d="M39.15,81.22h-.67v-4.8h0l-1,.86-.4-.49,1.52-1.23h.58Z"/><path d="M41.07,80.45l2.14-2.08c.13-.12.25-.24.35-.35a2.16,2.16,0,0,0,.25-.32,1.09,1.09,0,0,0,.15-.33A1.38,1.38,0,0,0,44,77a1,1,0,0,0-.08-.4.84.84,0,0,0-.22-.3.78.78,0,0,0-.33-.19A1.05,1.05,0,0,0,43,76a1,1,0,0,0-.72.25,1.19,1.19,0,0,0-.36.65l-.72-.06a1.47,1.47,0,0,1,.21-.61,1.41,1.41,0,0,1,.39-.45,2,2,0,0,1,.53-.27,2.2,2.2,0,0,1,.64-.09,2.41,2.41,0,0,1,.67.1,2.06,2.06,0,0,1,.55.29,1.47,1.47,0,0,1,.37.48,1.6,1.6,0,0,1,.14.67,2,2,0,0,1-.09.61,2.34,2.34,0,0,1-.25.5,3.47,3.47,0,0,1-.35.43l-.41.4-1.75,1.64v0h2.89v.62H41.07Z"/><path d="M45.43,78.39a7,7,0,0,1,.07-1,3.52,3.52,0,0,1,.3-1,2,2,0,0,1,.59-.7,1.77,1.77,0,0,1,1.91,0,1.91,1.91,0,0,1,.59.7,3.52,3.52,0,0,1,.3,1,6.29,6.29,0,0,1,0,2,3.52,3.52,0,0,1-.3,1,1.91,1.91,0,0,1-.59.7,1.77,1.77,0,0,1-1.91,0,2,2,0,0,1-.59-.7,3.52,3.52,0,0,1-.3-1A7,7,0,0,1,45.43,78.39Zm.67,0c0,.14,0,.29,0,.46a4.6,4.6,0,0,0,.06.52,4.77,4.77,0,0,0,.13.51,2,2,0,0,0,.22.44,1.15,1.15,0,0,0,.35.31,1,1,0,0,0,.48.11,1.06,1.06,0,0,0,.48-.11,1.24,1.24,0,0,0,.34-.31,2,2,0,0,0,.22-.44,3.18,3.18,0,0,0,.13-.51,4.6,4.6,0,0,0,.06-.52c0-.17,0-.32,0-.46s0-.29,0-.46a4.35,4.35,0,0,0-.06-.52,3.18,3.18,0,0,0-.13-.51,2,2,0,0,0-.22-.44,1.24,1.24,0,0,0-.34-.31,1.06,1.06,0,0,0-.48-.11,1,1,0,0,0-.48.11,1.15,1.15,0,0,0-.35.31,2,2,0,0,0-.22.44,4.77,4.77,0,0,0-.13.51,4.35,4.35,0,0,0-.06.52C46.1,78.1,46.1,78.25,46.1,78.39Z"/><path d="M50,76.61a1.12,1.12,0,0,1,.08-.45,1.15,1.15,0,0,1,.25-.37,1.16,1.16,0,0,1,1.62,0,1.15,1.15,0,0,1,.25.37,1.33,1.33,0,0,1,.08.45,1.23,1.23,0,0,1-.08.44,1.15,1.15,0,0,1-.25.37,1.16,1.16,0,0,1-1.62,0,1.15,1.15,0,0,1-.25-.37A1,1,0,0,1,50,76.61Zm.43,0a.52.52,0,0,0,0,.24.72.72,0,0,0,.14.24.63.63,0,0,0,.23.16.64.64,0,0,0,.58,0,.73.73,0,0,0,.23-.16,1,1,0,0,0,.14-.24.69.69,0,0,0,.05-.24.75.75,0,0,0-.19-.48.76.76,0,0,0-.23-.17.64.64,0,0,0-.58,0,.66.66,0,0,0-.23.17.59.59,0,0,0-.14.23A.56.56,0,0,0,50.46,76.61Z"/></g><g id="numeri_fondo_tabella" data-name="numeri fondo tabella"><path d="M131.83,251.42a1.17,1.17,0,0,0-.43-.35,1.19,1.19,0,0,0-.51-.11,1.35,1.35,0,0,0-.55.11,1.08,1.08,0,0,0-.4.3,1.32,1.32,0,0,0-.23.44,1.76,1.76,0,0,0,0,1.08,1.43,1.43,0,0,0,.26.45,1.31,1.31,0,0,0,.39.3,1.27,1.27,0,0,0,.52.1,1.09,1.09,0,0,0,1-.46l.47.44a1.69,1.69,0,0,1-.64.46,2.29,2.29,0,0,1-.78.14,2.22,2.22,0,0,1-.79-.14,1.75,1.75,0,0,1-1-1,2.27,2.27,0,0,1,0-1.57,1.86,1.86,0,0,1,.39-.63,2,2,0,0,1,.61-.41,2,2,0,0,1,.79-.15,2.09,2.09,0,0,1,.79.15,1.59,1.59,0,0,1,.65.45Z"/><path d="M136.21,253.56h0a1.43,1.43,0,0,1-.55.54,1.7,1.7,0,0,1-.89.22,1.8,1.8,0,0,1-.73-.15,1.78,1.78,0,0,1-.6-.41,1.81,1.81,0,0,1-.39-.62,2.06,2.06,0,0,1-.15-.79,2,2,0,0,1,.15-.78,1.88,1.88,0,0,1,.4-.63,1.81,1.81,0,0,1,.62-.41,2.07,2.07,0,0,1,.8-.15,1.72,1.72,0,0,1,.75.17,1.78,1.78,0,0,1,.59.47h0v-2.84h.62v6h-.62Zm0-1.21a1.63,1.63,0,0,0-.09-.55,1.34,1.34,0,0,0-.27-.44,1.37,1.37,0,0,0-.42-.29,1.35,1.35,0,0,0-.55-.11,1.42,1.42,0,0,0-.55.11,1.22,1.22,0,0,0-.41.29,1.34,1.34,0,0,0-.27.44,1.56,1.56,0,0,0,0,1.1,1.25,1.25,0,0,0,.27.44,1.19,1.19,0,0,0,1,.4,1.35,1.35,0,0,0,.55-.1,1.6,1.6,0,0,0,.42-.3,1.25,1.25,0,0,0,.27-.44A1.63,1.63,0,0,0,136.21,252.35Z"/><path d="M140.1,254.57l-.5-.2,2.4-6.15.51.2Z"/><path d="M147.64,254.22H147v-4.8h0l-1,.86-.4-.49,1.52-1.23h.59Z"/><path d="M149.46,251.39a7.07,7.07,0,0,1,.08-1,3.19,3.19,0,0,1,.29-.95,2,2,0,0,1,.59-.7,1.61,1.61,0,0,1,1-.28,1.55,1.55,0,0,1,1,.28,1.91,1.91,0,0,1,.59.7,2.94,2.94,0,0,1,.3.95,6.29,6.29,0,0,1,0,2,2.94,2.94,0,0,1-.3,1,1.91,1.91,0,0,1-.59.7,1.49,1.49,0,0,1-1,.28,1.54,1.54,0,0,1-1-.28,2,2,0,0,1-.59-.7,3.19,3.19,0,0,1-.29-1A7.07,7.07,0,0,1,149.46,251.39Zm.67,0c0,.14,0,.29,0,.47a4.43,4.43,0,0,0,.06.51,4.7,4.7,0,0,0,.12.51,2,2,0,0,0,.23.44,1.12,1.12,0,0,0,.34.31,1.1,1.1,0,0,0,1,0,1.12,1.12,0,0,0,.34-.31,1.65,1.65,0,0,0,.22-.44,3.18,3.18,0,0,0,.13-.51,4.43,4.43,0,0,0,.06-.51c0-.18,0-.33,0-.47s0-.29,0-.46a4.6,4.6,0,0,0-.06-.52,3.18,3.18,0,0,0-.13-.51,1.65,1.65,0,0,0-.22-.44,1.08,1.08,0,0,0-.34-.3,1,1,0,0,0-1,0,1.08,1.08,0,0,0-.34.3,2,2,0,0,0-.23.44,4.7,4.7,0,0,0-.12.51,4.6,4.6,0,0,0-.06.52C150.14,251.1,150.13,251.25,150.13,251.39Z"/><path d="M153.91,251.39a5.85,5.85,0,0,1,.08-1,3.19,3.19,0,0,1,.29-.95,2,2,0,0,1,.59-.7,1.61,1.61,0,0,1,1-.28,1.55,1.55,0,0,1,.95.28,1.91,1.91,0,0,1,.59.7,3.2,3.2,0,0,1,.3.95,6.29,6.29,0,0,1,0,2,3.2,3.2,0,0,1-.3,1,1.91,1.91,0,0,1-.59.7,1.49,1.49,0,0,1-.95.28,1.54,1.54,0,0,1-1-.28,2,2,0,0,1-.59-.7,3.19,3.19,0,0,1-.29-1A5.85,5.85,0,0,1,153.91,251.39Zm.67,0a4,4,0,0,0,0,.47,4.43,4.43,0,0,0,.06.51,3.14,3.14,0,0,0,.12.51,1.67,1.67,0,0,0,.23.44,1,1,0,0,0,.34.31.9.9,0,0,0,.48.11,1,1,0,0,0,.48-.11,1.24,1.24,0,0,0,.34-.31,1.65,1.65,0,0,0,.22-.44,3.18,3.18,0,0,0,.13-.51,4.43,4.43,0,0,0,.06-.51c0-.18,0-.33,0-.47s0-.29,0-.46a4.6,4.6,0,0,0-.06-.52,3.18,3.18,0,0,0-.13-.51,1.65,1.65,0,0,0-.22-.44,1.21,1.21,0,0,0-.34-.3,1,1,0,0,0-.48-.12.9.9,0,0,0-.48.12,1,1,0,0,0-.34.3,1.67,1.67,0,0,0-.23.44,3.14,3.14,0,0,0-.12.51,4.6,4.6,0,0,0-.06.52A3.78,3.78,0,0,0,154.58,251.39Z"/><path d="M158.31,251.39a5.85,5.85,0,0,1,.08-1,3.19,3.19,0,0,1,.29-.95,2,2,0,0,1,.59-.7,1.61,1.61,0,0,1,1-.28,1.55,1.55,0,0,1,1,.28,1.91,1.91,0,0,1,.59.7,3.2,3.2,0,0,1,.3.95,6.29,6.29,0,0,1,0,2,3.2,3.2,0,0,1-.3,1,1.91,1.91,0,0,1-.59.7,1.49,1.49,0,0,1-1,.28,1.54,1.54,0,0,1-1-.28,2,2,0,0,1-.59-.7,3.19,3.19,0,0,1-.29-1A5.85,5.85,0,0,1,158.31,251.39Zm.67,0c0,.14,0,.29,0,.47a4.43,4.43,0,0,0,.06.51,3.14,3.14,0,0,0,.12.51,1.67,1.67,0,0,0,.23.44,1,1,0,0,0,.34.31.9.9,0,0,0,.48.11,1,1,0,0,0,.48-.11,1.24,1.24,0,0,0,.34-.31,1.65,1.65,0,0,0,.22-.44,3.18,3.18,0,0,0,.13-.51,4.43,4.43,0,0,0,.06-.51c0-.18,0-.33,0-.47s0-.29,0-.46a4.6,4.6,0,0,0-.06-.52,3.18,3.18,0,0,0-.13-.51,1.65,1.65,0,0,0-.22-.44,1.21,1.21,0,0,0-.34-.3,1,1,0,0,0-.48-.12.9.9,0,0,0-.48.12,1,1,0,0,0-.34.3,1.67,1.67,0,0,0-.23.44,3.14,3.14,0,0,0-.12.51,4.6,4.6,0,0,0-.06.52C159,251.1,159,251.25,159,251.39Z"/><path d="M165.32,248.18H166v6h-.63Z"/><path d="M167.19,251.37c0-.17,0-.33,0-.48s0-.29,0-.41h.59c0,.1,0,.2,0,.3v.32h0a.91.91,0,0,1,.18-.27,1.64,1.64,0,0,1,.28-.23,1.5,1.5,0,0,1,.36-.16,1.44,1.44,0,0,1,.43-.06,1.52,1.52,0,0,1,.51.08,1.36,1.36,0,0,1,.34.18.93.93,0,0,1,.21.24,1.64,1.64,0,0,1,.12.22,1.78,1.78,0,0,1,.48-.53,1.27,1.27,0,0,1,.71-.19,1.88,1.88,0,0,1,.67.11,1.1,1.1,0,0,1,.44.31,1.37,1.37,0,0,1,.24.5,2.59,2.59,0,0,1,.07.65v2.27h-.62V252a2.33,2.33,0,0,0,0-.37,1,1,0,0,0-.15-.33.71.71,0,0,0-.28-.23,1,1,0,0,0-.45-.09,1,1,0,0,0-.37.08,1,1,0,0,0-.31.22,1.13,1.13,0,0,0-.21.35,1.33,1.33,0,0,0-.07.45v2.16h-.63V252.1a1.62,1.62,0,0,0-.17-.88A.6.6,0,0,0,169,251a1.18,1.18,0,0,0-.52.1.88.88,0,0,0-.36.3,1.14,1.14,0,0,0-.21.46,2.1,2.1,0,0,0-.07.58v1.82h-.62Z"/><line class="cls-1" x1="38.21" y1="253" x2="46.2" y2="253"/><path d="M235.17,251a1.66,1.66,0,0,0-.63-.52,1.93,1.93,0,0,0-.79-.17,2.13,2.13,0,0,0-.87.19,2.16,2.16,0,0,0-.68.52,2.58,2.58,0,0,0-.45.75,2.69,2.69,0,0,0-.16.89,2.79,2.79,0,0,0,.16.93,2.41,2.41,0,0,0,.45.74,2,2,0,0,0,.68.5,1.92,1.92,0,0,0,.87.19,2,2,0,0,0,1.64-.8l.51.43a2.38,2.38,0,0,1-.93.75,3,3,0,0,1-1.22.24,2.85,2.85,0,0,1-1.13-.22,2.82,2.82,0,0,1-.92-.62,3,3,0,0,1-.61-.94,3.33,3.33,0,0,1-.22-1.2,3.19,3.19,0,0,1,.21-1.16,2.9,2.9,0,0,1,.6-1,3.08,3.08,0,0,1,.91-.63,3,3,0,0,1,2.27,0,2,2,0,0,1,.89.68Z"/><path d="M239,253.1l0,0a1.35,1.35,0,0,1-.37.13,2.87,2.87,0,0,1-.39,0,1.68,1.68,0,0,1-.68-.13,1.5,1.5,0,0,1-.55-.36,1.92,1.92,0,0,1-.36-.56,2.11,2.11,0,0,1-.12-.73,1.75,1.75,0,0,1,.14-.74,1.63,1.63,0,0,1,.4-.56,1.79,1.79,0,0,1,.6-.35,2.36,2.36,0,0,1,.75-.12,2.27,2.27,0,0,1,.75.12,1.94,1.94,0,0,1,.61.35,1.49,1.49,0,0,1,.39.56,1.75,1.75,0,0,1,.15.74,2.19,2.19,0,0,1,0,.46c0,.14-.07.27-.11.4a2.53,2.53,0,0,1-.18.37,3.35,3.35,0,0,1-.21.36l-1.5,2.4h-.79Zm-.6-.43a1.51,1.51,0,0,0,.48-.08,1.28,1.28,0,0,0,.39-.24,1.12,1.12,0,0,0,.26-.38,1.27,1.27,0,0,0,.1-.5,1.26,1.26,0,0,0-.1-.49,1,1,0,0,0-.26-.38,1,1,0,0,0-.39-.24,1.33,1.33,0,0,0-1,0,.88.88,0,0,0-.38.24,1.19,1.19,0,0,0-.27.38,1.26,1.26,0,0,0-.09.49,1.28,1.28,0,0,0,.09.5,1.31,1.31,0,0,0,.27.38,1.12,1.12,0,0,0,.38.24A1.51,1.51,0,0,0,238.35,252.67Z"/><path d="M240.88,252.62a7.07,7.07,0,0,1,.08-1,2.88,2.88,0,0,1,.3-.94,2,2,0,0,1,.58-.71,1.84,1.84,0,0,1,1.92,0,2,2,0,0,1,.58.71,2.88,2.88,0,0,1,.3.94,7.07,7.07,0,0,1,.08,1,7,7,0,0,1-.08,1,2.86,2.86,0,0,1-.3.95,2,2,0,0,1-.58.71,1.84,1.84,0,0,1-1.92,0,2,2,0,0,1-.58-.71,2.86,2.86,0,0,1-.3-.95A7,7,0,0,1,240.88,252.62Zm.67,0c0,.14,0,.3,0,.47a4.43,4.43,0,0,0,.06.51,2.72,2.72,0,0,0,.13.51,1.51,1.51,0,0,0,.22.44,1.12,1.12,0,0,0,.34.31,1,1,0,0,0,1,0,1.12,1.12,0,0,0,.34-.31,1.51,1.51,0,0,0,.22-.44,2.72,2.72,0,0,0,.13-.51,4.43,4.43,0,0,0,.06-.51c0-.17,0-.33,0-.47s0-.29,0-.46a4.88,4.88,0,0,0-.06-.52,2.83,2.83,0,0,0-.13-.5,1.4,1.4,0,0,0-.22-.44,1.12,1.12,0,0,0-.34-.31,1,1,0,0,0-1,0,1.12,1.12,0,0,0-.34.31,1.4,1.4,0,0,0-.22.44,2.83,2.83,0,0,0-.13.5,4.88,4.88,0,0,0-.06.52C241.56,252.33,241.55,252.49,241.55,252.62Z"/><path d="M247.78,255.8l-.51-.2,2.41-6.14.5.19Z"/><path d="M257.1,251a1.66,1.66,0,0,0-.63-.52,1.92,1.92,0,0,0-.78-.17,2.06,2.06,0,0,0-.87.19,2.16,2.16,0,0,0-.68.52,2.21,2.21,0,0,0-.45.75,2.46,2.46,0,0,0-.16.89,2.56,2.56,0,0,0,.16.93,2.2,2.2,0,0,0,.44.74,2.1,2.1,0,0,0,.68.5,2,2,0,0,0,.88.19,2,2,0,0,0,.93-.21,2,2,0,0,0,.71-.59l.5.43a2.29,2.29,0,0,1-.92.75,3,3,0,0,1-1.22.24,2.8,2.8,0,0,1-2.05-.84,2.82,2.82,0,0,1-.61-.94,3.13,3.13,0,0,1-.22-1.2,3.19,3.19,0,0,1,.21-1.16,2.75,2.75,0,0,1,.6-1,3,3,0,0,1,.91-.63,2.93,2.93,0,0,1,1.16-.23,3,3,0,0,1,1.11.21,2,2,0,0,1,.89.68Z"/><path d="M258.46,254.69l2.14-2.08.35-.36a1.75,1.75,0,0,0,.25-.32,1,1,0,0,0,.15-.32,1.46,1.46,0,0,0,0-.38,1,1,0,0,0-.08-.4.93.93,0,0,0-.22-.3,1.13,1.13,0,0,0-.73-.26,1,1,0,0,0-.71.25,1.11,1.11,0,0,0-.36.66l-.73-.07a1.91,1.91,0,0,1,.21-.61,1.28,1.28,0,0,1,.39-.44,1.77,1.77,0,0,1,.53-.27,2.25,2.25,0,0,1,.64-.09,2.09,2.09,0,0,1,.67.1,1.53,1.53,0,0,1,.55.29,1.47,1.47,0,0,1,.37.48,1.39,1.39,0,0,1,.14.66,1.91,1.91,0,0,1-.09.61,1.8,1.8,0,0,1-.25.5,2.86,2.86,0,0,1-.35.43l-.41.41-1.75,1.64h2.89v.63h-3.65Z"/><path d="M266.35,250.42l-2.26,5h-.76l2.3-5H262.9v-.63h3.45Z"/><path d="M267.26,252.62a7.07,7.07,0,0,1,.08-1,3.45,3.45,0,0,1,.3-.94,2,2,0,0,1,.59-.71,1.82,1.82,0,0,1,1.91,0,2,2,0,0,1,.59.71,3.45,3.45,0,0,1,.3.94,7,7,0,0,1,.07,1,6.92,6.92,0,0,1-.07,1,3.41,3.41,0,0,1-.3.95,2,2,0,0,1-.59.71,1.82,1.82,0,0,1-1.91,0,2,2,0,0,1-.59-.71,3.41,3.41,0,0,1-.3-.95A7,7,0,0,1,267.26,252.62Zm.68,0c0,.14,0,.3,0,.47a4.43,4.43,0,0,0,.06.51,2.72,2.72,0,0,0,.13.51,1.53,1.53,0,0,0,.23.44,1,1,0,0,0,.34.31.89.89,0,0,0,.47.12,1,1,0,0,0,.49-.12,1.08,1.08,0,0,0,.33-.31,1.53,1.53,0,0,0,.23-.44,2.72,2.72,0,0,0,.13-.51,4.43,4.43,0,0,0,.06-.51c0-.17,0-.33,0-.47s0-.29,0-.46a4.88,4.88,0,0,0-.06-.52,2.83,2.83,0,0,0-.13-.5,1.41,1.41,0,0,0-.23-.44,1.08,1.08,0,0,0-.33-.31,1,1,0,0,0-.49-.12.89.89,0,0,0-.47.12,1,1,0,0,0-.34.31,1.41,1.41,0,0,0-.23.44,2.83,2.83,0,0,0-.13.5,4.88,4.88,0,0,0-.06.52C267.94,252.33,267.94,252.49,267.94,252.62Z"/><path d="M52.87,251a1.55,1.55,0,0,0-.63-.51,1.82,1.82,0,0,0-.79-.18,2,2,0,0,0-.87.2,2.13,2.13,0,0,0-.68.51,2.58,2.58,0,0,0-.45.75,2.67,2.67,0,0,0,0,1.82,2.29,2.29,0,0,0,.45.74,1.88,1.88,0,0,0,.68.5,1.92,1.92,0,0,0,.87.19,2,2,0,0,0,.93-.21,2.07,2.07,0,0,0,.71-.58l.51.42a2.38,2.38,0,0,1-.93.75,3,3,0,0,1-1.22.24,2.85,2.85,0,0,1-1.13-.22,2.82,2.82,0,0,1-.92-.62,3,3,0,0,1-.61-.94,3.27,3.27,0,0,1-.22-1.19,3.2,3.2,0,0,1,.21-1.17,3,3,0,0,1,.6-.95,3.08,3.08,0,0,1,.91-.63,3,3,0,0,1,2.27,0,2,2,0,0,1,.89.68Z"/><path d="M54.13,252.62a7,7,0,0,1,.08-1,3.11,3.11,0,0,1,.3-1,1.94,1.94,0,0,1,.59-.71,1.55,1.55,0,0,1,.95-.27,1.6,1.6,0,0,1,1,.27,2,2,0,0,1,.59.71,3.1,3.1,0,0,1,.29,1,5.77,5.77,0,0,1,.08,1,5.85,5.85,0,0,1-.08,1,3.13,3.13,0,0,1-.29.94,2,2,0,0,1-.59.71,1.6,1.6,0,0,1-1,.27,1.55,1.55,0,0,1-.95-.27,1.94,1.94,0,0,1-.59-.71,3.14,3.14,0,0,1-.3-.94A7.07,7.07,0,0,1,54.13,252.62Zm.67,0c0,.13,0,.29,0,.46a4.88,4.88,0,0,0,.06.52,2.83,2.83,0,0,0,.13.5,1.4,1.4,0,0,0,.22.44,1.1,1.1,0,0,0,.34.31,1,1,0,0,0,.48.12.9.9,0,0,0,.48-.12.92.92,0,0,0,.34-.31,1.41,1.41,0,0,0,.23-.44,2.8,2.8,0,0,0,.12-.5,4.88,4.88,0,0,0,.06-.52,3.86,3.86,0,0,0,0-.46,3.94,3.94,0,0,0,0-.47,4.43,4.43,0,0,0-.06-.51,2.71,2.71,0,0,0-.12-.51,1.53,1.53,0,0,0-.23-.44,1,1,0,0,0-.34-.31.9.9,0,0,0-.48-.12,1,1,0,0,0-.48.12,1.24,1.24,0,0,0-.34.31,1.51,1.51,0,0,0-.22.44,2.72,2.72,0,0,0-.13.51,4.43,4.43,0,0,0-.06.51C54.81,252.32,54.8,252.48,54.8,252.62Z"/><path d="M61,255.79l-.51-.2,2.41-6.14.51.19Z"/><path d="M70.36,251a1.52,1.52,0,0,0-.64-.51,1.78,1.78,0,0,0-.78-.18,2,2,0,0,0-.87.2,2.13,2.13,0,0,0-.68.51,2.58,2.58,0,0,0-.45.75,2.51,2.51,0,0,0-.16.9,2.54,2.54,0,0,0,.16.92,2.46,2.46,0,0,0,.44.74,2.09,2.09,0,0,0,1.56.69,2,2,0,0,0,.93-.21,2.07,2.07,0,0,0,.71-.58l.5.42a2.29,2.29,0,0,1-.92.75,3,3,0,0,1-1.22.24,2.93,2.93,0,0,1-1.14-.22,2.88,2.88,0,0,1-.91-.62,3,3,0,0,1-.61-.94,3.07,3.07,0,0,1-.22-1.19,3.2,3.2,0,0,1,.21-1.17,2.84,2.84,0,0,1,.6-.95,3,3,0,0,1,.91-.63,2.93,2.93,0,0,1,1.16-.23,3,3,0,0,1,1.11.21,2,2,0,0,1,.89.68Z"/><path d="M74.2,255.45h-.68v-4.8h0l-1,.85-.4-.48,1.52-1.24h.59Z"/><path d="M76.37,251.17a1.33,1.33,0,0,1,.13-.61,1.2,1.2,0,0,1,.34-.46,1.44,1.44,0,0,1,.51-.3,1.92,1.92,0,0,1,1.28,0,1.44,1.44,0,0,1,.51.3,1.32,1.32,0,0,1,.34.46,1.48,1.48,0,0,1,.12.61,1.44,1.44,0,0,1-.06.4,1.41,1.41,0,0,1-.18.37,1.18,1.18,0,0,1-.3.29,1,1,0,0,1-.38.19h0a1.44,1.44,0,0,1,.46.19,1.35,1.35,0,0,1,.35.32,1.67,1.67,0,0,1,.23.44,1.7,1.7,0,0,1,.08.51,1.74,1.74,0,0,1-.14.69,1.46,1.46,0,0,1-.39.52,1.47,1.47,0,0,1-.57.33,2.35,2.35,0,0,1-1.42,0,1.59,1.59,0,0,1-.58-.33,1.43,1.43,0,0,1-.38-.52,1.74,1.74,0,0,1-.14-.69,1.7,1.7,0,0,1,.08-.51,1.65,1.65,0,0,1,.22-.44,1.59,1.59,0,0,1,.36-.32,1.44,1.44,0,0,1,.46-.19h0a1.18,1.18,0,0,1-.39-.19,1.33,1.33,0,0,1-.29-.29,1.41,1.41,0,0,1-.18-.37A1.16,1.16,0,0,1,76.37,251.17Zm.48,2.67a1.14,1.14,0,0,0,.09.46,1.21,1.21,0,0,0,.24.35,1.16,1.16,0,0,0,.36.23A1.13,1.13,0,0,0,78,255a1,1,0,0,0,.44-.09,1,1,0,0,0,.36-.23,1.07,1.07,0,0,0,.25-.35,1.36,1.36,0,0,0,0-.92,1.07,1.07,0,0,0-.25-.35,1,1,0,0,0-.36-.23,1,1,0,0,0-.44-.09,1.13,1.13,0,0,0-.45.09,1.16,1.16,0,0,0-.36.23,1.21,1.21,0,0,0-.24.35A1.14,1.14,0,0,0,76.85,253.84ZM77,251.2a.92.92,0,0,0,.26.67.93.93,0,0,0,.69.27.9.9,0,0,0,.68-.27,1,1,0,0,0,0-1.34.9.9,0,0,0-.68-.27.93.93,0,0,0-.69.27A.92.92,0,0,0,77,251.2Z"/><path d="M80.52,252.62a5.77,5.77,0,0,1,.08-1,3.1,3.1,0,0,1,.29-1,2,2,0,0,1,.59-.71,1.6,1.6,0,0,1,1-.27,1.55,1.55,0,0,1,1,.27,1.94,1.94,0,0,1,.59.71,3.41,3.41,0,0,1,.3,1,7,7,0,0,1,.08,1,7.07,7.07,0,0,1-.08,1,3.45,3.45,0,0,1-.3.94,1.94,1.94,0,0,1-.59.71,1.55,1.55,0,0,1-1,.27,1.6,1.6,0,0,1-1-.27,2,2,0,0,1-.59-.71,3.13,3.13,0,0,1-.29-.94A5.85,5.85,0,0,1,80.52,252.62Zm.67,0a3.86,3.86,0,0,0,0,.46c0,.17,0,.34.05.52a4.07,4.07,0,0,0,.13.5,1.41,1.41,0,0,0,.23.44.92.92,0,0,0,.34.31.9.9,0,0,0,.48.12,1,1,0,0,0,.48-.12,1.1,1.1,0,0,0,.34-.31,1.65,1.65,0,0,0,.22-.44,2.83,2.83,0,0,0,.13-.5,4.88,4.88,0,0,0,.06-.52c0-.17,0-.33,0-.46s0-.3,0-.47a4.43,4.43,0,0,0-.06-.51,2.72,2.72,0,0,0-.13-.51,1.81,1.81,0,0,0-.22-.44,1.24,1.24,0,0,0-.34-.31,1,1,0,0,0-.48-.12.9.9,0,0,0-.48.12,1,1,0,0,0-.34.31,1.53,1.53,0,0,0-.23.44,3.8,3.8,0,0,0-.13.51c0,.17,0,.34-.05.51A3.94,3.94,0,0,0,81.19,252.62Z"/><line class="cls-2" x1="214.49" y1="253.42" x2="215.03" y2="253.42"/><line class="cls-2" x1="217.76" y1="253.42" x2="218.3" y2="253.42"/><line class="cls-2" x1="221.02" y1="253.42" x2="221.56" y2="253.42"/><line class="cls-2" x1="224.29" y1="253.42" x2="224.83" y2="253.42"/><line class="cls-2" x1="227.55" y1="253.42" x2="228.09" y2="253.42"/></g><g id="Spun_Light_F_F66120"><path d="M54.85,11.8h4.39v.78H55.69v2.34H59v.78h-3.3v3.18h-.84Z"/><path d="M61.57,14.75l0,0a1.3,1.3,0,0,1,.47-.16,2.06,2.06,0,0,1,.48,0,2.23,2.23,0,0,1,.86.16,2,2,0,0,1,.68.45,2.13,2.13,0,0,1,.44.71,2.36,2.36,0,0,1,.16.9,2.34,2.34,0,0,1-.18.93,2,2,0,0,1-.5.69,2.16,2.16,0,0,1-.75.44,2.65,2.65,0,0,1-.94.16,2.6,2.6,0,0,1-.93-.16,2.2,2.2,0,0,1-.76-.44,2,2,0,0,1-.5-.69,2.34,2.34,0,0,1-.18-.93,2.69,2.69,0,0,1,.19-1.07,6.22,6.22,0,0,1,.48-.92l1.88-3h1Zm.74.53a1.72,1.72,0,0,0-.6.1,1.31,1.31,0,0,0-.48.3,1.37,1.37,0,0,0-.33.48,1.66,1.66,0,0,0,0,1.24,1.33,1.33,0,0,0,.33.47,1.31,1.31,0,0,0,.48.3,1.69,1.69,0,0,0,1.2,0,1.36,1.36,0,0,0,.81-.77,1.66,1.66,0,0,0,0-1.24,1.49,1.49,0,0,0-.32-.48,1.44,1.44,0,0,0-.49-.3A1.72,1.72,0,0,0,62.31,15.28Z"/><path d="M67.13,14.75l0,0a1.3,1.3,0,0,1,.47-.16,2.06,2.06,0,0,1,.48,0,2.23,2.23,0,0,1,.86.16,2,2,0,0,1,.68.45,2.13,2.13,0,0,1,.44.71,2.36,2.36,0,0,1,.16.9,2.34,2.34,0,0,1-.18.93,2,2,0,0,1-.5.69,2.16,2.16,0,0,1-.75.44,2.65,2.65,0,0,1-.94.16,2.6,2.6,0,0,1-.93-.16,2.2,2.2,0,0,1-.76-.44,2,2,0,0,1-.5-.69,2.34,2.34,0,0,1-.18-.93,2.69,2.69,0,0,1,.19-1.07,6.22,6.22,0,0,1,.48-.92l1.88-3h1Zm.74.53a1.72,1.72,0,0,0-.6.1,1.31,1.31,0,0,0-.48.3,1.37,1.37,0,0,0-.33.48,1.66,1.66,0,0,0,0,1.24,1.33,1.33,0,0,0,.33.47,1.31,1.31,0,0,0,.48.3,1.69,1.69,0,0,0,1.2,0,1.36,1.36,0,0,0,.81-.77,1.66,1.66,0,0,0,0-1.24,1.49,1.49,0,0,0-.32-.48,1.44,1.44,0,0,0-.49-.3A1.72,1.72,0,0,0,67.87,15.28Z"/><path d="M74.25,18.88h-.84v-6h0L72.12,14l-.5-.61,1.9-1.54h.73Z"/><path d="M76.71,17.92l2.67-2.6c.17-.16.31-.31.44-.45a2.8,2.8,0,0,0,.32-.4,1.59,1.59,0,0,0,.18-.4,1.73,1.73,0,0,0,.06-.47,1.12,1.12,0,0,0-.1-.5,1.31,1.31,0,0,0-.27-.38,1.52,1.52,0,0,0-.41-.24,1.7,1.7,0,0,0-.51-.08,1.27,1.27,0,0,0-.89.31,1.44,1.44,0,0,0-.45.82l-.91-.08a2.34,2.34,0,0,1,.27-.77,1.73,1.73,0,0,1,.49-.55,2.06,2.06,0,0,1,.66-.34,2.92,2.92,0,0,1,.8-.11,2.82,2.82,0,0,1,.83.12,2.29,2.29,0,0,1,.69.37,1.87,1.87,0,0,1,.47.6,2,2,0,0,1,.17.83,2.58,2.58,0,0,1-.11.76,2.77,2.77,0,0,1-.31.62,4.51,4.51,0,0,1-.44.54l-.52.51-2.18,2v0h3.61v.78H76.71Z"/><path d="M82.15,15.34a7.79,7.79,0,0,1,.1-1.25,4,4,0,0,1,.37-1.19,2.53,2.53,0,0,1,.74-.88,1.93,1.93,0,0,1,1.19-.34,2,2,0,0,1,1.2.34,2.5,2.5,0,0,1,.73.88,4,4,0,0,1,.37,1.19,7.79,7.79,0,0,1,.1,1.25,7.88,7.88,0,0,1-.1,1.25,4,4,0,0,1-.37,1.18,2.41,2.41,0,0,1-.73.88,2,2,0,0,1-1.2.35,1.93,1.93,0,0,1-1.19-.35,2.44,2.44,0,0,1-.74-.88,4,4,0,0,1-.37-1.18A7.88,7.88,0,0,1,82.15,15.34Zm.84,0c0,.17,0,.36,0,.58a4.66,4.66,0,0,0,.08.64,3.53,3.53,0,0,0,.16.64,2,2,0,0,0,.28.55,1.18,1.18,0,0,0,.42.38,1.27,1.27,0,0,0,1.2,0,1.3,1.3,0,0,0,.43-.38,2.37,2.37,0,0,0,.28-.55,4.61,4.61,0,0,0,.16-.64c0-.21.06-.43.07-.64s0-.41,0-.58,0-.37,0-.58,0-.43-.07-.65a4.47,4.47,0,0,0-.16-.63,2.19,2.19,0,0,0-.28-.55,1.45,1.45,0,0,0-.43-.39,1.36,1.36,0,0,0-1.2,0,1.31,1.31,0,0,0-.42.39,1.9,1.9,0,0,0-.28.55,3.42,3.42,0,0,0-.16.63,4.81,4.81,0,0,0-.08.65C83,15,83,15.16,83,15.34Z"/><path d="M87.33,19.63h5v.5h-5Z"/><path d="M92.83,17.92l2.67-2.6c.17-.16.31-.31.44-.45a2.8,2.8,0,0,0,.32-.4,1.59,1.59,0,0,0,.18-.4,1.73,1.73,0,0,0,.06-.47,1.12,1.12,0,0,0-.1-.5,1.31,1.31,0,0,0-.27-.38,1.52,1.52,0,0,0-.41-.24,1.7,1.7,0,0,0-.51-.08,1.27,1.27,0,0,0-.89.31,1.44,1.44,0,0,0-.45.82L93,13.45a2.34,2.34,0,0,1,.27-.77,1.73,1.73,0,0,1,.49-.55,2.06,2.06,0,0,1,.66-.34,3,3,0,0,1,.8-.11,2.82,2.82,0,0,1,.83.12,2.29,2.29,0,0,1,.69.37,1.87,1.87,0,0,1,.47.6,2,2,0,0,1,.17.83,2.58,2.58,0,0,1-.11.76,2.77,2.77,0,0,1-.31.62,4.51,4.51,0,0,1-.44.54L96,16l-2.18,2v0h3.61v.78H92.83Z"/><path d="M102.63,12.58H99.74l0,1.91a1.49,1.49,0,0,1,.45-.14l.46,0a2.52,2.52,0,0,1,.93.17,2.2,2.2,0,0,1,.71.49,2.25,2.25,0,0,1,.46.74,2.56,2.56,0,0,1,.16.93,2.49,2.49,0,0,1-.18,1,2.32,2.32,0,0,1-.51.74,2.44,2.44,0,0,1-.77.48,2.78,2.78,0,0,1-1,.17,2.22,2.22,0,0,1-1.3-.35,2.51,2.51,0,0,1-.79-.94l.84-.32a1.58,1.58,0,0,0,.53.64,1.28,1.28,0,0,0,.79.25,1.53,1.53,0,0,0,.6-.12,1.29,1.29,0,0,0,.48-.33,1.64,1.64,0,0,0,.32-.51,1.81,1.81,0,0,0,.12-.67,1.67,1.67,0,0,0-.13-.69,1.59,1.59,0,0,0-.37-.51,1.79,1.79,0,0,0-.56-.31,2.17,2.17,0,0,0-.69-.1,2.43,2.43,0,0,0-.74.12,3.73,3.73,0,0,0-.7.32l.07-3.68h3.71Z"/><path d="M103.83,15.34a7.79,7.79,0,0,1,.1-1.25,4,4,0,0,1,.37-1.19A2.53,2.53,0,0,1,105,12a2.27,2.27,0,0,1,2.39,0,2.5,2.5,0,0,1,.73.88,4,4,0,0,1,.37,1.19,7.79,7.79,0,0,1,.1,1.25,7.88,7.88,0,0,1-.1,1.25,4,4,0,0,1-.37,1.18,2.41,2.41,0,0,1-.73.88,2.22,2.22,0,0,1-2.39,0,2.44,2.44,0,0,1-.74-.88,4,4,0,0,1-.37-1.18A7.88,7.88,0,0,1,103.83,15.34Zm.84,0c0,.17,0,.36,0,.58s0,.43.08.64a3.53,3.53,0,0,0,.16.64,2,2,0,0,0,.28.55,1.18,1.18,0,0,0,.42.38,1.16,1.16,0,0,0,.6.15,1.14,1.14,0,0,0,.6-.15,1.3,1.3,0,0,0,.43-.38,2.37,2.37,0,0,0,.28-.55,4.61,4.61,0,0,0,.16-.64c0-.21.06-.43.07-.64s0-.41,0-.58,0-.37,0-.58,0-.43-.07-.65a4.47,4.47,0,0,0-.16-.63,2.19,2.19,0,0,0-.28-.55,1.45,1.45,0,0,0-.43-.39,1.24,1.24,0,0,0-.6-.14,1.27,1.27,0,0,0-.6.14,1.31,1.31,0,0,0-.42.39,1.9,1.9,0,0,0-.28.55,3.42,3.42,0,0,0-.16.63c0,.22-.06.43-.08.65S104.67,15.16,104.67,15.34Z"/><path d="M109.07,11.8H110l1.61,5.88h0l1.74-5.88h.94L116,17.68h0l1.64-5.88h.88l-2.08,7.08h-.91l-1.75-6h0l-1.76,6h-.92Z"/><path d="M122.23,11.8h.84v3h3.78v-3h.84v7.08h-.84v-3.3h-3.78v3.3h-.84Z"/><path d="M129.52,11.8h.84v6.3h3.24v.78h-4.08Z"/><rect class="cls-3" x="54.97" y="42.02" width="189.86" height="189.86"/><circle class="cls-4" cx="149.9" cy="136.9" r="23.71"/><path d="M154.9,166.73h.82v.62h-.82v1.3h-.67v-1.3h-2.4v-.74l2.25-3.62h.82Zm-.67-3h0l-1.8,3h1.82Z"/><path d="M156.25,165.82a7.07,7.07,0,0,1,.08-1,3.52,3.52,0,0,1,.3-.95,1.92,1.92,0,0,1,.59-.7,1.77,1.77,0,0,1,1.91,0,1.83,1.83,0,0,1,.59.7,3.52,3.52,0,0,1,.3.95,7.18,7.18,0,0,1,0,2,3.52,3.52,0,0,1-.3,1,1.91,1.91,0,0,1-.59.7,1.77,1.77,0,0,1-1.91,0,2,2,0,0,1-.59-.7,3.52,3.52,0,0,1-.3-1A7.07,7.07,0,0,1,156.25,165.82Zm.68,0c0,.14,0,.29,0,.46a4.88,4.88,0,0,0,.06.52,4.77,4.77,0,0,0,.13.51,1.67,1.67,0,0,0,.23.44,1,1,0,0,0,.34.3.89.89,0,0,0,.47.12,1,1,0,0,0,.49-.12,1.21,1.21,0,0,0,.34-.3,2,2,0,0,0,.22-.44,3.18,3.18,0,0,0,.13-.51,4.88,4.88,0,0,0,.06-.52c0-.17,0-.32,0-.46s0-.29,0-.47a4.43,4.43,0,0,0-.06-.51,3.18,3.18,0,0,0-.13-.51,2,2,0,0,0-.22-.44,1.24,1.24,0,0,0-.34-.31,1.07,1.07,0,0,0-.49-.11,1,1,0,0,0-.47.11,1,1,0,0,0-.34.31,1.67,1.67,0,0,0-.23.44,4.77,4.77,0,0,0-.13.51,4.43,4.43,0,0,0-.06.51C156.93,165.53,156.93,165.68,156.93,165.82Z"/><circle class="cls-4" cx="149.9" cy="136.9" r="47.41"/><path d="M152.16,188.08a1.48,1.48,0,0,1,.12-.61,1.62,1.62,0,0,1,.34-.47,1.83,1.83,0,0,1,.51-.29,1.69,1.69,0,0,1,.64-.11,1.74,1.74,0,0,1,.65.11,1.83,1.83,0,0,1,.51.29,1.62,1.62,0,0,1,.34.47,1.48,1.48,0,0,1,.12.61,1.44,1.44,0,0,1-.06.4,1.55,1.55,0,0,1-.19.36,1,1,0,0,1-.29.3,1,1,0,0,1-.39.19h0a1.5,1.5,0,0,1,.47.19,1.53,1.53,0,0,1,.35.32,1.4,1.4,0,0,1,.22.44,1.44,1.44,0,0,1,.08.51,1.58,1.58,0,0,1-.14.69,1.56,1.56,0,0,1-1,.85,2.31,2.31,0,0,1-1.41,0,1.56,1.56,0,0,1-1-.85,1.58,1.58,0,0,1-.14-.69,1.44,1.44,0,0,1,.08-.51,1.4,1.4,0,0,1,.22-.44,1.53,1.53,0,0,1,.35-.32,1.5,1.5,0,0,1,.47-.19h0a1,1,0,0,1-.39-.19,1,1,0,0,1-.29-.3,1.55,1.55,0,0,1-.19-.36A1.44,1.44,0,0,1,152.16,188.08Zm.48,2.67a1.14,1.14,0,0,0,.09.46,1.21,1.21,0,0,0,.24.35,1.05,1.05,0,0,0,.36.23,1.12,1.12,0,0,0,.44.09,1.13,1.13,0,0,0,.45-.09,1.16,1.16,0,0,0,.36-.23,1.21,1.21,0,0,0,.24-.35,1.22,1.22,0,0,0,0-.92,1.09,1.09,0,0,0-.24-.35,1.16,1.16,0,0,0-.36-.23,1.13,1.13,0,0,0-.45-.09,1.12,1.12,0,0,0-.44.09,1.05,1.05,0,0,0-.36.23,1.09,1.09,0,0,0-.24.35A1.14,1.14,0,0,0,152.64,190.75Zm.19-2.64a.92.92,0,0,0,.26.67,1,1,0,0,0,1.37,0,1,1,0,0,0,0-1.34,1,1,0,0,0-1.37,0A.92.92,0,0,0,152.83,188.11Z"/><path d="M156.25,189.53a7,7,0,0,1,.08-1,3.41,3.41,0,0,1,.3-.95,2,2,0,0,1,.59-.71,1.82,1.82,0,0,1,1.91,0,1.94,1.94,0,0,1,.59.71,3.41,3.41,0,0,1,.3.95,6.92,6.92,0,0,1,.07,1,7.12,7.12,0,0,1-.07,1,3.45,3.45,0,0,1-.3.94,1.94,1.94,0,0,1-.59.71,1.82,1.82,0,0,1-1.91,0,2,2,0,0,1-.59-.71,3.45,3.45,0,0,1-.3-.94A7.19,7.19,0,0,1,156.25,189.53Zm.68,0c0,.13,0,.29,0,.46a4.43,4.43,0,0,0,.06.51,3.8,3.8,0,0,0,.13.51,1.41,1.41,0,0,0,.23.44,1,1,0,0,0,.34.31.89.89,0,0,0,.47.12,1,1,0,0,0,.49-.12,1.24,1.24,0,0,0,.34-.31,1.65,1.65,0,0,0,.22-.44,2.72,2.72,0,0,0,.13-.51,4.43,4.43,0,0,0,.06-.51c0-.17,0-.33,0-.46s0-.3,0-.47a4.88,4.88,0,0,0-.06-.52,2.83,2.83,0,0,0-.13-.5,1.81,1.81,0,0,0-.22-.44,1.24,1.24,0,0,0-.34-.31,1,1,0,0,0-.49-.12.89.89,0,0,0-.47.12,1,1,0,0,0-.34.31,1.53,1.53,0,0,0-.23.44,4.07,4.07,0,0,0-.13.5,4.88,4.88,0,0,0-.06.52C156.93,189.23,156.93,189.39,156.93,189.53Z"/><circle class="cls-4" cx="149.9" cy="136.9" r="71.17"/><path d="M154.43,216.12h-.67v-4.8h0l-1,.85-.4-.49,1.52-1.23h.58Z"/><path d="M156.35,215.35l2.14-2.08.35-.36a2.33,2.33,0,0,0,.25-.32,1,1,0,0,0,.15-.32,1.46,1.46,0,0,0,0-.38,1,1,0,0,0-.08-.4,1.11,1.11,0,0,0-.22-.3,1.13,1.13,0,0,0-.74-.26,1,1,0,0,0-.71.25,1.22,1.22,0,0,0-.36.66l-.72-.07a1.53,1.53,0,0,1,.21-.61,1.28,1.28,0,0,1,.39-.44,1.66,1.66,0,0,1,.53-.27,2.2,2.2,0,0,1,.64-.09,2.09,2.09,0,0,1,.67.1,1.48,1.48,0,0,1,.54.29,1.37,1.37,0,0,1,.38.48,1.53,1.53,0,0,1,.14.66,1.91,1.91,0,0,1-.09.61,2.13,2.13,0,0,1-.25.5,2.86,2.86,0,0,1-.35.43l-.41.41-1.75,1.64H160v.63h-3.65Z"/><path d="M160.7,213.28a7.07,7.07,0,0,1,.08-1,3.45,3.45,0,0,1,.3-.94,1.94,1.94,0,0,1,.59-.71,1.57,1.57,0,0,1,1-.27,1.6,1.6,0,0,1,1,.27,2,2,0,0,1,.59.71,3.13,3.13,0,0,1,.29.94,5.85,5.85,0,0,1,.08,1,5.77,5.77,0,0,1-.08,1,3.1,3.1,0,0,1-.29.95,2,2,0,0,1-.59.71,1.6,1.6,0,0,1-1,.27,1.57,1.57,0,0,1-1-.27,1.94,1.94,0,0,1-.59-.71,3.41,3.41,0,0,1-.3-.95A7,7,0,0,1,160.7,213.28Zm.68,0c0,.14,0,.3,0,.47a4.43,4.43,0,0,0,.06.51,2.72,2.72,0,0,0,.13.51,1.81,1.81,0,0,0,.22.44,1.24,1.24,0,0,0,.34.31,1,1,0,0,0,.48.12.9.9,0,0,0,.48-.12,1,1,0,0,0,.34-.31,1.53,1.53,0,0,0,.23-.44,3.8,3.8,0,0,0,.13-.51l.06-.51c0-.17,0-.33,0-.47s0-.29,0-.46l-.06-.52a4.07,4.07,0,0,0-.13-.5,1.41,1.41,0,0,0-.23-.44,1,1,0,0,0-.34-.31.9.9,0,0,0-.48-.12,1,1,0,0,0-.48.12,1.24,1.24,0,0,0-.34.31,1.65,1.65,0,0,0-.22.44,2.83,2.83,0,0,0-.13.5,4.88,4.88,0,0,0-.06.52C161.38,213,161.38,213.15,161.38,213.28Z"/><circle class="cls-4" cx="149.9" cy="136.9" r="94.93"/><line class="cls-4" x1="54.97" y1="136.95" x2="244.89" y2="136.95"/><line class="cls-4" x1="149.9" y1="231.88" x2="149.9" y2="41.96"/><line class="cls-4" x1="95.15" y1="41.96" x2="204.71" y2="231.88"/><line class="cls-4" x1="95.15" y1="231.88" x2="204.71" y2="41.96"/><line class="cls-4" x1="54.97" y1="82.14" x2="244.89" y2="191.71"/><line class="cls-4" x1="54.97" y1="191.71" x2="244.89" y2="82.14"/><line class="cls-1" x1="149.9" y1="143.21" x2="150.12" y2="143.11"/><line class="cls-1" x1="150.12" y1="143.11" x2="150.33" y2="143.05"/><line class="cls-1" x1="150.33" y1="143.05" x2="150.55" y2="142.84"/><line class="cls-1" x1="150.55" y1="142.84" x2="150.6" y2="141.92"/><line class="cls-1" x1="150.6" y1="141.92" x2="150.82" y2="142.19"/><line class="cls-1" x1="150.82" y1="142.19" x2="151.25" y2="143.21"/><line class="cls-1" x1="151.25" y1="143.21" x2="151.85" y2="144.73"/><line class="cls-1" x1="151.85" y1="144.73" x2="153.09" y2="148.02"/><line class="cls-1" x1="153.09" y1="148.02" x2="155.36" y2="153.69"/><line class="cls-1" x1="155.36" y1="153.69" x2="157.73" y2="158.44"/><line class="cls-1" x1="157.73" y1="158.44" x2="160.43" y2="162.92"/><line class="cls-1" x1="160.43" y1="162.92" x2="163.35" y2="167.14"/><line class="cls-1" x1="163.35" y1="167.14" x2="166.64" y2="171.19"/><line class="cls-1" x1="166.64" y1="171.19" x2="170.26" y2="175.13"/><line class="cls-1" x1="170.26" y1="175.13" x2="174.04" y2="178.75"/><line class="cls-1" x1="174.04" y1="178.75" x2="178.14" y2="182.04"/><line class="cls-1" x1="178.14" y1="182.04" x2="182.46" y2="185.17"/><line class="cls-1" x1="182.46" y1="185.17" x2="186.73" y2="187.55"/><line class="cls-1" x1="186.73" y1="187.55" x2="191" y2="189.49"/><line class="cls-1" x1="191" y1="189.49" x2="195.1" y2="190.73"/><line class="cls-1" x1="195.1" y1="190.73" x2="198.93" y2="191.38"/><line class="cls-1" x1="198.93" y1="191.38" x2="202.55" y2="191.44"/><line class="cls-1" x1="202.55" y1="191.44" x2="205.74" y2="190.84"/><line class="cls-1" x1="205.74" y1="190.84" x2="212" y2="192.84"/><line class="cls-1" x1="212" y1="192.84" x2="210.87" y2="188.03"/><line class="cls-1" x1="210.87" y1="188.03" x2="204.12" y2="179.23"/><line class="cls-1" x1="204.12" y1="179.23" x2="186.78" y2="163.68"/><line class="cls-1" x1="186.78" y1="163.68" x2="178.95" y2="156.5"/><line class="cls-1" x1="178.95" y1="156.5" x2="176.25" y2="153.37"/><line class="cls-1" x1="176.25" y1="153.37" x2="173.18" y2="150.34"/><line class="cls-1" x1="173.18" y1="150.34" x2="171.12" y2="148.18"/><line class="cls-1" x1="171.12" y1="148.18" x2="170.75" y2="147.05"/><line class="cls-1" x1="170.75" y1="147.05" x2="169.34" y2="145.54"/><line class="cls-1" x1="169.34" y1="145.54" x2="167.78" y2="144.13"/><line class="cls-1" x1="167.78" y1="144.13" x2="166.05" y2="142.78"/><line class="cls-1" x1="166.05" y1="142.78" x2="164.21" y2="141.54"/><line class="cls-1" x1="164.21" y1="141.54" x2="162.11" y2="140.41"/><line class="cls-1" x1="162.11" y1="140.41" x2="160.16" y2="139.43"/><line class="cls-1" x1="160.16" y1="139.43" x2="158.16" y2="138.68"/><line class="cls-1" x1="158.16" y1="138.68" x2="156.33" y2="138.03"/><line class="cls-1" x1="156.33" y1="138.03" x2="154.6" y2="137.54"/><line class="cls-1" x1="154.6" y1="137.54" x2="152.87" y2="137.22"/><line class="cls-1" x1="152.87" y1="137.22" x2="151.63" y2="137"/><line class="cls-1" x1="151.63" y1="137" x2="150.28" y2="136.95"/><line class="cls-1" x1="150.28" y1="136.95" x2="150.28" y2="136.95"/><line class="cls-1" x1="150.28" y1="136.95" x2="151.31" y2="136.9"/><line class="cls-1" x1="151.31" y1="136.9" x2="153.84" y2="136.68"/><line class="cls-1" x1="153.84" y1="136.68" x2="155.9" y2="136.3"/><line class="cls-1" x1="155.9" y1="136.3" x2="158.27" y2="135.76"/><line class="cls-1" x1="158.27" y1="135.76" x2="160.54" y2="135.06"/><line class="cls-1" x1="160.54" y1="135.06" x2="162.7" y2="134.25"/><line class="cls-1" x1="162.7" y1="134.25" x2="164.91" y2="133.22"/><line class="cls-1" x1="164.91" y1="133.22" x2="166.8" y2="132.09"/><line class="cls-1" x1="166.8" y1="132.09" x2="168.05" y2="131.06"/><line class="cls-1" x1="168.05" y1="131.06" x2="169.94" y2="129.66"/><line class="cls-1" x1="169.94" y1="129.66" x2="172.1" y2="127.99"/><line class="cls-1" x1="172.1" y1="127.99" x2="171.72" y2="127.23"/><line class="cls-1" x1="171.72" y1="127.23" x2="181.55" y2="121.51"/><line class="cls-1" x1="181.55" y1="121.51" x2="206.28" y2="106.98"/><line class="cls-1" x1="206.28" y1="106.98" x2="217.46" y2="97.96"/><line class="cls-1" x1="217.46" y1="97.96" x2="221.67" y2="92.13"/><line class="cls-1" x1="221.67" y1="92.13" x2="216.54" y2="91.97"/><line class="cls-1" x1="216.54" y1="91.97" x2="215.08" y2="89.59"/><line class="cls-1" x1="215.08" y1="89.59" x2="212.76" y2="87.81"/><line class="cls-1" x1="212.76" y1="87.81" x2="210.33" y2="86.24"/><line class="cls-1" x1="210.33" y1="86.24" x2="207.63" y2="84.95"/><line class="cls-1" x1="207.63" y1="84.95" x2="204.6" y2="84.08"/><line class="cls-1" x1="204.6" y1="84.08" x2="201.8" y2="83.22"/><line class="cls-1" x1="201.8" y1="83.22" x2="198.93" y2="82.46"/><line class="cls-1" x1="198.93" y1="82.46" x2="196.13" y2="81.87"/><line class="cls-1" x1="196.13" y1="81.87" x2="193.32" y2="81.33"/><line class="cls-1" x1="193.32" y1="81.33" x2="190.62" y2="80.9"/><line class="cls-1" x1="190.62" y1="80.9" x2="187.81" y2="80.79"/><line class="cls-1" x1="187.81" y1="80.79" x2="185" y2="80.79"/><line class="cls-1" x1="185" y1="80.79" x2="182.03" y2="81.28"/><line class="cls-1" x1="182.03" y1="81.28" x2="179.01" y2="82.14"/><line class="cls-1" x1="179.01" y1="82.14" x2="175.98" y2="83.49"/><line class="cls-1" x1="175.98" y1="83.49" x2="173.01" y2="85.06"/><line class="cls-1" x1="173.01" y1="85.06" x2="170.1" y2="87"/><line class="cls-1" x1="170.1" y1="87" x2="167.34" y2="89.05"/><line class="cls-1" x1="167.34" y1="89.05" x2="164.81" y2="91.16"/><line class="cls-1" x1="164.81" y1="91.16" x2="162.38" y2="93.43"/><line class="cls-1" x1="162.38" y1="93.43" x2="160.22" y2="95.59"/><line class="cls-1" x1="160.22" y1="95.59" x2="158.22" y2="97.85"/><line class="cls-1" x1="158.22" y1="97.85" x2="156.49" y2="99.74"/><line class="cls-1" x1="156.49" y1="99.74" x2="154.92" y2="101.36"/><line class="cls-1" x1="154.92" y1="101.36" x2="153.47" y2="102.88"/><line class="cls-1" x1="153.47" y1="102.88" x2="152.28" y2="103.36"/><line class="cls-1" x1="152.28" y1="103.36" x2="151.09" y2="103.42"/><line class="cls-1" x1="151.09" y1="103.42" x2="149.9" y2="103.58"/><line class="cls-1" x1="149.9" y1="143.38" x2="149.74" y2="143.11"/><line class="cls-1" x1="149.74" y1="143.11" x2="149.52" y2="142.84"/><line class="cls-1" x1="149.52" y1="142.84" x2="149.36" y2="142.57"/><line class="cls-1" x1="149.36" y1="142.57" x2="149.2" y2="142.13"/><line class="cls-1" x1="149.2" y1="142.13" x2="149.04" y2="142.08"/><line class="cls-1" x1="149.04" y1="142.08" x2="148.82" y2="142.19"/><line class="cls-1" x1="148.82" y1="142.19" x2="148.55" y2="142.57"/><line class="cls-1" x1="148.55" y1="142.57" x2="148.12" y2="143.21"/><line class="cls-1" x1="148.12" y1="143.21" x2="147.9" y2="143.27"/><line class="cls-1" x1="147.9" y1="143.27" x2="146.88" y2="145.37"/><line class="cls-1" x1="146.88" y1="145.37" x2="145.1" y2="148.88"/><line class="cls-1" x1="145.1" y1="148.88" x2="142.18" y2="154.39"/><line class="cls-1" x1="142.18" y1="154.39" x2="139.26" y2="158.82"/><line class="cls-1" x1="139.26" y1="158.82" x2="135.92" y2="163.25"/><line class="cls-1" x1="135.92" y1="163.25" x2="132.35" y2="167.41"/><line class="cls-1" x1="132.35" y1="167.41" x2="128.46" y2="171.29"/><line class="cls-1" x1="128.46" y1="171.29" x2="124.2" y2="175.07"/><line class="cls-1" x1="124.2" y1="175.07" x2="120.09" y2="177.99"/><line class="cls-1" x1="120.09" y1="177.99" x2="116.1" y2="180.2"/><line class="cls-1" x1="116.1" y1="180.2" x2="112.1" y2="181.99"/><line class="cls-1" x1="112.1" y1="181.99" x2="108.16" y2="183.34"/><line class="cls-1" x1="108.16" y1="183.34" x2="104.22" y2="184.25"/><line class="cls-1" x1="104.22" y1="184.25" x2="100.71" y2="184.47"/><line class="cls-1" x1="100.71" y1="184.47" x2="97.63" y2="183.98"/><line class="cls-1" x1="97.63" y1="183.98" x2="94.82" y2="183.12"/><line class="cls-1" x1="94.82" y1="183.12" x2="92.34" y2="181.88"/><line class="cls-1" x1="92.34" y1="181.88" x2="87.48" y2="182.31"/><line class="cls-1" x1="87.48" y1="182.31" x2="92.72" y2="175.51"/><line class="cls-1" x1="92.72" y1="175.51" x2="112.86" y2="160.06"/><line class="cls-1" x1="112.86" y1="160.06" x2="123.12" y2="152.39"/><line class="cls-1" x1="123.12" y1="152.39" x2="128.68" y2="148.24"/><line class="cls-1" x1="128.68" y1="148.24" x2="126.57" y2="148.29"/><line class="cls-1" x1="126.57" y1="148.29" x2="128.14" y2="146.62"/><line class="cls-1" x1="128.14" y1="146.62" x2="129.38" y2="145.21"/><line class="cls-1" x1="129.38" y1="145.21" x2="130.89" y2="143.81"/><line class="cls-1" x1="130.89" y1="143.81" x2="132.62" y2="142.51"/><line class="cls-1" x1="132.62" y1="142.51" x2="134.51" y2="141.32"/><line class="cls-1" x1="134.51" y1="141.32" x2="136.46" y2="140.24"/><line class="cls-1" x1="136.46" y1="140.24" x2="138.56" y2="139.33"/><line class="cls-1" x1="138.56" y1="139.33" x2="140.56" y2="138.57"/><line class="cls-1" x1="140.56" y1="138.57" x2="142.5" y2="137.92"/><line class="cls-1" x1="142.5" y1="137.92" x2="144.34" y2="137.49"/><line class="cls-1" x1="144.34" y1="137.49" x2="146.07" y2="137.17"/><line class="cls-1" x1="146.07" y1="137.17" x2="148.17" y2="136.95"/><line class="cls-1" x1="148.17" y1="136.95" x2="149.09" y2="136.95"/><line class="cls-1" x1="149.09" y1="136.95" x2="149.2" y2="136.95"/><line class="cls-1" x1="149.2" y1="136.95" x2="148.44" y2="136.84"/><line class="cls-1" x1="148.44" y1="136.84" x2="147.15" y2="136.68"/><line class="cls-1" x1="147.15" y1="136.68" x2="144.83" y2="136.25"/><line class="cls-1" x1="144.83" y1="136.25" x2="142.67" y2="135.65"/><line class="cls-1" x1="142.67" y1="135.65" x2="140.45" y2="134.95"/><line class="cls-1" x1="140.45" y1="134.95" x2="137.97" y2="133.98"/><line class="cls-1" x1="137.97" y1="133.98" x2="135.86" y2="132.9"/><line class="cls-1" x1="135.86" y1="132.9" x2="134.03" y2="131.77"/><line class="cls-1" x1="134.03" y1="131.77" x2="132.24" y2="130.52"/><line class="cls-1" x1="132.24" y1="130.52" x2="130.62" y2="129.12"/><line class="cls-1" x1="130.62" y1="129.12" x2="129.87" y2="127.99"/><line class="cls-1" x1="129.87" y1="127.99" x2="126.74" y2="125.61"/><line class="cls-1" x1="126.74" y1="125.61" x2="124.41" y2="123.4"/><line class="cls-1" x1="124.41" y1="123.4" x2="117.02" y2="117.94"/><line class="cls-1" x1="117.02" y1="117.94" x2="106.05" y2="109.52"/><line class="cls-1" x1="106.05" y1="109.52" x2="87.26" y2="94.67"/><line class="cls-1" x1="87.26" y1="94.67" x2="81.75" y2="87.43"/><line class="cls-1" x1="81.75" y1="87.43" x2="85.75" y2="86.78"/><line class="cls-1" x1="85.75" y1="86.78" x2="87.75" y2="84.73"/><line class="cls-1" x1="87.75" y1="84.73" x2="90.29" y2="83.22"/><line class="cls-1" x1="90.29" y1="83.22" x2="93.42" y2="82.36"/><line class="cls-1" x1="93.42" y1="82.36" x2="96.39" y2="81.49"/><line class="cls-1" x1="96.39" y1="81.49" x2="99.52" y2="80.95"/><line class="cls-1" x1="99.52" y1="80.95" x2="102.65" y2="80.57"/><line class="cls-1" x1="102.65" y1="80.57" x2="105.78" y2="80.41"/><line class="cls-1" x1="105.78" y1="80.41" x2="108.97" y2="80.52"/><line class="cls-1" x1="108.97" y1="80.52" x2="112.05" y2="80.74"/><line class="cls-1" x1="112.05" y1="80.74" x2="115.07" y2="81.11"/><line class="cls-1" x1="115.07" y1="81.11" x2="117.99" y2="81.6"/><line class="cls-1" x1="117.99" y1="81.6" x2="120.85" y2="82.19"/><line class="cls-1" x1="120.85" y1="82.19" x2="123.55" y2="82.84"/><line class="cls-1" x1="123.55" y1="82.84" x2="126.2" y2="83.65"/><line class="cls-1" x1="126.2" y1="83.65" x2="128.68" y2="84.3"/><line class="cls-1" x1="128.68" y1="84.3" x2="131.22" y2="85.38"/><line class="cls-1" x1="131.22" y1="85.38" x2="133.7" y2="86.89"/><line class="cls-1" x1="133.7" y1="86.89" x2="136.13" y2="88.84"/><line class="cls-1" x1="136.13" y1="88.84" x2="138.4" y2="90.62"/><line class="cls-1" x1="138.4" y1="90.62" x2="140.51" y2="92.56"/><line class="cls-1" x1="140.51" y1="92.56" x2="142.45" y2="94.45"/><line class="cls-1" x1="142.45" y1="94.45" x2="144.23" y2="96.34"/><line class="cls-1" x1="144.23" y1="96.34" x2="145.85" y2="98.12"/><line class="cls-1" x1="145.85" y1="98.12" x2="147.36" y2="100.23"/><line class="cls-1" x1="147.36" y1="100.23" x2="148.77" y2="102.44"/><line class="cls-1" x1="148.77" y1="102.44" x2="149.9" y2="104.71"/><line class="cls-1" x1="149.9" y1="143.11" x2="150.01" y2="142.89"/><line class="cls-1" x1="150.5" y1="141.7" x2="150.55" y2="141.54"/><line class="cls-1" x1="150.55" y1="141.54" x2="150.6" y2="141.59"/><line class="cls-1" x1="151.2" y1="142.67" x2="151.31" y2="142.89"/><line class="cls-1" x1="151.85" y1="144.02" x2="151.95" y2="144.24"/><line class="cls-1" x1="152.6" y1="145.32" x2="152.66" y2="145.37"/><line class="cls-1" x1="152.66" y1="145.37" x2="152.71" y2="145.54"/><line class="cls-1" x1="153.3" y1="146.67" x2="153.36" y2="146.89"/><line class="cls-1" x1="153.95" y1="148.02" x2="154.01" y2="148.18"/><line class="cls-1" x1="154.01" y1="148.18" x2="154.06" y2="148.24"/><line class="cls-1" x1="154.6" y1="149.37" x2="154.71" y2="149.59"/><line class="cls-1" x1="155.3" y1="150.72" x2="155.41" y2="150.94"/><line class="cls-1" x1="156" y1="152.07" x2="156.11" y2="152.29"/><line class="cls-1" x1="156.71" y1="153.42" x2="156.81" y2="153.64"/><line class="cls-1" x1="157.41" y1="154.77" x2="157.57" y2="154.99"/><line class="cls-1" x1="158.16" y1="156.12" x2="158.27" y2="156.34"/><line class="cls-1" x1="158.87" y1="157.47" x2="158.97" y2="157.69"/><line class="cls-1" x1="159.57" y1="158.82" x2="159.73" y2="159.04"/><line class="cls-1" x1="160.38" y1="160.12" x2="160.54" y2="160.28"/><line class="cls-1" x1="161.35" y1="161.3" x2="161.51" y2="161.52"/><line class="cls-1" x1="162.32" y1="162.55" x2="162.48" y2="162.71"/><line class="cls-1" x1="163.62" y1="163.25" x2="163.83" y2="163.3"/><line class="cls-1" x1="164.97" y1="163.95" x2="165.18" y2="164.06"/><line class="cls-1" x1="166.26" y1="164.65" x2="166.48" y2="164.81"/><line class="cls-1" x1="167.61" y1="165.41" x2="167.78" y2="165.52"/><line class="cls-1" x1="167.78" y1="165.52" x2="167.83" y2="165.52"/><line class="cls-1" x1="168.96" y1="166.06" x2="169.18" y2="166.16"/><line class="cls-1" x1="170.37" y1="166.65" x2="170.58" y2="166.76"/><line class="cls-1" x1="171.77" y1="167.19" x2="171.99" y2="167.3"/><line class="cls-1" x1="173.18" y1="167.78" x2="173.39" y2="167.84"/><line class="cls-1" x1="174.53" y1="168.32" x2="174.74" y2="168.38"/><line class="cls-1" x1="175.98" y1="168.76" x2="176.2" y2="168.81"/><line class="cls-1" x1="177.44" y1="169.08" x2="177.66" y2="169.13"/><line class="cls-1" x1="178.9" y1="169.4" x2="179.12" y2="169.46"/><line class="cls-1" x1="180.41" y1="169.67" x2="180.68" y2="169.73"/><line class="cls-1" x1="181.98" y1="169.89" x2="182.25" y2="169.89"/><line class="cls-1" x1="183.54" y1="169.84" x2="183.81" y2="169.84"/><line class="cls-1" x1="185.16" y1="169.84" x2="185.43" y2="169.84"/><line class="cls-1" x1="186.73" y1="169.67" x2="186.95" y2="169.57"/><line class="cls-1" x1="188.08" y1="168.92" x2="188.08" y2="168.92"/><line class="cls-1" x1="188.08" y1="168.92" x2="188.19" y2="168.7"/><line class="cls-1" x1="188.84" y1="167.62" x2="188.94" y2="167.41"/><line class="cls-1" x1="189.65" y1="166.33" x2="189.81" y2="166.11"/><line class="cls-1" x1="189.27" y1="165.03" x2="189.16" y2="164.81"/><line class="cls-1" x1="188.4" y1="163.79" x2="188.3" y2="163.57"/><line class="cls-1" x1="187.59" y1="162.55" x2="187.43" y2="162.38"/><line class="cls-1" x1="186.51" y1="161.47" x2="186.3" y2="161.3"/><line class="cls-1" x1="185.27" y1="160.44" x2="185.11" y2="160.28"/><line class="cls-1" x1="184.08" y1="159.41" x2="183.87" y2="159.25"/><line class="cls-1" x1="182.84" y1="158.39" x2="182.68" y2="158.23"/><line class="cls-1" x1="181.65" y1="157.36" x2="181.44" y2="157.2"/><line class="cls-1" x1="180.41" y1="156.34" x2="180.25" y2="156.17"/><line class="cls-1" x1="179.22" y1="155.31" x2="179.01" y2="155.15"/><line class="cls-1" x1="177.98" y1="154.28" x2="177.82" y2="154.12"/><line class="cls-1" x1="176.85" y1="153.26" x2="176.63" y2="153.1"/><line class="cls-1" x1="175.66" y1="152.23" x2="175.5" y2="152.07"/><line class="cls-1" x1="174.47" y1="151.21" x2="174.31" y2="151.04"/><line class="cls-1" x1="173.34" y1="150.18" x2="173.18" y2="150.02"/><line class="cls-1" x1="172.2" y1="149.15" x2="172.04" y2="148.99"/><line class="cls-1" x1="171.12" y1="148.07" x2="171.18" y2="147.86"/><line class="cls-1" x1="170.75" y1="146.72" x2="170.58" y2="146.56"/><line class="cls-1" x1="169.67" y1="145.59" x2="169.5" y2="145.37"/><line class="cls-1" x1="168.59" y1="144.4" x2="168.37" y2="144.24"/><line class="cls-1" x1="167.4" y1="143.38" x2="167.18" y2="143.21"/><line class="cls-1" x1="166.16" y1="142.46" x2="165.94" y2="142.3"/><line class="cls-1" x1="164.86" y1="141.59" x2="164.64" y2="141.43"/><line class="cls-1" x1="163.56" y1="140.78" x2="163.35" y2="140.68"/><line class="cls-1" x1="162.21" y1="140.08" x2="162" y2="139.97"/><line class="cls-1" x1="160.86" y1="139.43" x2="160.65" y2="139.38"/><line class="cls-1" x1="159.51" y1="138.89" x2="159.3" y2="138.79"/><line class="cls-1" x1="158.11" y1="138.35" x2="158" y2="138.3"/><line class="cls-1" x1="158" y1="138.3" x2="157.89" y2="138.25"/><line class="cls-1" x1="156.65" y1="137.92" x2="156.44" y2="137.81"/><line class="cls-1" x1="155.19" y1="137.54" x2="154.98" y2="137.49"/><line class="cls-1" x1="153.74" y1="137.27" x2="153.52" y2="137.22"/><line class="cls-1" x1="152.22" y1="137.06" x2="151.95" y2="137.06"/><line class="cls-1" x1="150.66" y1="136.95" x2="150.39" y2="136.95"/><line class="cls-1" x1="151.36" y1="136.84" x2="151.63" y2="136.84"/><line class="cls-1" x1="152.93" y1="136.68" x2="153.14" y2="136.63"/><line class="cls-1" x1="154.44" y1="136.41" x2="154.65" y2="136.36"/><line class="cls-1" x1="155.9" y1="136.14" x2="156.11" y2="136.09"/><line class="cls-1" x1="157.3" y1="135.71" x2="157.52" y2="135.65"/><line class="cls-1" x1="158.7" y1="135.28" x2="158.92" y2="135.17"/><line class="cls-1" x1="160.11" y1="134.74" x2="160.32" y2="134.63"/><line class="cls-1" x1="161.51" y1="134.14" x2="161.73" y2="134.03"/><line class="cls-1" x1="162.86" y1="133.49" x2="163.08" y2="133.39"/><line class="cls-1" x1="164.21" y1="132.79" x2="164.43" y2="132.63"/><line class="cls-1" x1="165.51" y1="131.93" x2="165.67" y2="131.82"/><line class="cls-1" x1="165.67" y1="131.82" x2="165.72" y2="131.77"/><line class="cls-1" x1="166.75" y1="131.01" x2="166.97" y2="130.85"/><line class="cls-1" x1="167.99" y1="130.04" x2="168.15" y2="129.88"/><line class="cls-1" x1="168.96" y1="128.96" x2="169.07" y2="128.74"/><line class="cls-1" x1="169.99" y1="127.82" x2="170.21" y2="127.72"/><line class="cls-1" x1="171.23" y1="127.01" x2="171.39" y2="126.85"/><line class="cls-1" x1="172.47" y1="126.15" x2="172.69" y2="125.99"/><line class="cls-1" x1="173.77" y1="125.23" x2="173.99" y2="125.07"/><line class="cls-1" x1="175.07" y1="124.37" x2="175.23" y2="124.21"/><line class="cls-1" x1="176.31" y1="123.5" x2="176.52" y2="123.34"/><line class="cls-1" x1="177.6" y1="122.59" x2="177.82" y2="122.42"/><line class="cls-1" x1="178.9" y1="121.67" x2="179.12" y2="121.56"/><line class="cls-1" x1="180.14" y1="120.8" x2="180.36" y2="120.64"/><line class="cls-1" x1="181.38" y1="119.89" x2="181.55" y2="119.72"/><line class="cls-1" x1="182.57" y1="118.97" x2="182.79" y2="118.81"/><line class="cls-1" x1="183.81" y1="118.05" x2="183.98" y2="117.89"/><line class="cls-1" x1="185" y1="117.13" x2="185.22" y2="116.97"/><line class="cls-1" x1="186.24" y1="116.16" x2="186.46" y2="116"/><line class="cls-1" x1="187.49" y1="115.24" x2="187.49" y2="115.24"/><line class="cls-1" x1="187.49" y1="115.24" x2="187.7" y2="115.08"/><line class="cls-1" x1="188.73" y1="114.22" x2="188.94" y2="114.05"/><line class="cls-1" x1="189.97" y1="113.19" x2="190.19" y2="113.03"/><line class="cls-1" x1="191.21" y1="112.16" x2="191.43" y2="112"/><line class="cls-1" x1="192.45" y1="111.14" x2="192.67" y2="110.98"/><line class="cls-1" x1="193.7" y1="110.11" x2="193.91" y2="109.95"/><line class="cls-1" x1="194.94" y1="109.09" x2="195.15" y2="108.92"/><line class="cls-1" x1="196.18" y1="108.06" x2="196.4" y2="107.9"/><line class="cls-1" x1="197.37" y1="107.09" x2="197.53" y2="106.93"/><line class="cls-1" x1="198.56" y1="106.06" x2="198.72" y2="105.9"/><line class="cls-1" x1="199.74" y1="105.04" x2="199.96" y2="104.87"/><line class="cls-1" x1="200.93" y1="104.01" x2="201.15" y2="103.85"/><line class="cls-1" x1="202.17" y1="102.98" x2="202.34" y2="102.82"/><line class="cls-1" x1="203.36" y1="101.96" x2="203.52" y2="101.8"/><line class="cls-1" x1="204.55" y1="100.93" x2="204.77" y2="100.77"/><line class="cls-1" x1="205.79" y1="99.91" x2="205.95" y2="99.74"/><line class="cls-1" x1="206.98" y1="98.88" x2="207.14" y2="98.72"/><line class="cls-1" x1="208.17" y1="97.85" x2="208.38" y2="97.69"/><line class="cls-1" x1="209.36" y1="96.88" x2="209.52" y2="96.72"/><line class="cls-1" x1="210.22" y1="95.64" x2="210.33" y2="95.42"/><line class="cls-1" x1="211.03" y1="94.34" x2="211.19" y2="94.13"/><line class="cls-1" x1="211.84" y1="93.05" x2="212" y2="92.83"/><line class="cls-1" x1="212.65" y1="91.75" x2="212.81" y2="91.54"/><line class="cls-1" x1="212.6" y1="90.83" x2="212.33" y2="90.83"/><line class="cls-1" x1="211.08" y1="90.62" x2="210.81" y2="90.62"/><line class="cls-1" x1="209.57" y1="90.4" x2="209.46" y2="90.4"/><line class="cls-1" x1="209.46" y1="90.4" x2="209.36" y2="90.29"/><line class="cls-1" x1="208.33" y1="89.43" x2="208.17" y2="89.27"/><line class="cls-1" x1="207.14" y1="88.46" x2="206.93" y2="88.3"/><line class="cls-1" x1="205.85" y1="87.59" x2="205.63" y2="87.43"/><line class="cls-1" x1="204.5" y1="86.84" x2="204.28" y2="86.78"/><line class="cls-1" x1="203.15" y1="86.24" x2="202.93" y2="86.19"/><line class="cls-1" x1="201.8" y1="85.65" x2="201.58" y2="85.6"/><line class="cls-1" x1="200.45" y1="85.11" x2="200.23" y2="85"/><line class="cls-1" x1="199.04" y1="84.57" x2="198.83" y2="84.52"/><line class="cls-1" x1="197.64" y1="84.14" x2="197.48" y2="84.08"/><line class="cls-1" x1="197.48" y1="84.08" x2="197.42" y2="84.08"/><line class="cls-1" x1="196.23" y1="83.71" x2="196.02" y2="83.6"/><line class="cls-1" x1="194.83" y1="83.22" x2="194.61" y2="83.17"/><line class="cls-1" x1="193.37" y1="82.9" x2="193.16" y2="82.84"/><line class="cls-1" x1="191.91" y1="82.52" x2="191.7" y2="82.46"/><line class="cls-1" x1="190.46" y1="82.19" x2="190.24" y2="82.14"/><line class="cls-1" x1="189" y1="81.87" x2="188.73" y2="81.87"/><line class="cls-1" x1="187.49" y1="81.65" x2="187.27" y2="81.6"/><line class="cls-1" x1="185.97" y1="81.44" x2="185.7" y2="81.38"/><line class="cls-1" x1="184.41" y1="81.28" x2="184.14" y2="81.28"/><line class="cls-1" x1="182.84" y1="81.22" x2="182.63" y2="81.17"/><line class="cls-1" x1="181.33" y1="81.22" x2="181.06" y2="81.22"/><line class="cls-1" x1="179.76" y1="81.28" x2="179.49" y2="81.28"/><line class="cls-1" x1="178.2" y1="81.49" x2="177.93" y2="81.49"/><line class="cls-1" x1="176.69" y1="81.71" x2="176.47" y2="81.76"/><line class="cls-1" x1="175.23" y1="81.98" x2="175.01" y2="82.03"/><line class="cls-1" x1="173.77" y1="82.36" x2="173.55" y2="82.41"/><line class="cls-1" x1="172.31" y1="82.73" x2="172.1" y2="82.79"/><line class="cls-1" x1="170.91" y1="83.27" x2="170.69" y2="83.38"/><line class="cls-1" x1="169.56" y1="83.87" x2="169.34" y2="83.98"/><line class="cls-1" x1="168.26" y1="84.68" x2="168.05" y2="84.79"/><line class="cls-1" x1="166.97" y1="85.54" x2="166.75" y2="85.65"/><line class="cls-1" x1="165.78" y1="86.51" x2="165.56" y2="86.68"/><line class="cls-1" x1="164.59" y1="87.54" x2="164.43" y2="87.7"/><line class="cls-1" x1="163.46" y1="88.57" x2="163.29" y2="88.73"/><line class="cls-1" x1="162.32" y1="89.59" x2="162.16" y2="89.75"/><line class="cls-1" x1="161.24" y1="90.67" x2="161.08" y2="90.83"/><line class="cls-1" x1="160.16" y1="91.81" x2="160" y2="92.02"/><line class="cls-1" x1="159.08" y1="92.99" x2="158.92" y2="93.21"/><line class="cls-1" x1="158.06" y1="94.18" x2="157.89" y2="94.34"/><line class="cls-1" x1="157.03" y1="95.32" x2="156.87" y2="95.48"/><line class="cls-1" x1="156" y1="96.5" x2="155.84" y2="96.72"/><line class="cls-1" x1="155.03" y1="97.75" x2="154.87" y2="97.91"/><line class="cls-1" x1="154.06" y1="98.93" x2="153.9" y2="99.15"/><line class="cls-1" x1="153.03" y1="100.12" x2="152.87" y2="100.34"/><line class="cls-1" x1="152.01" y1="101.31" x2="151.85" y2="101.47"/><line class="cls-1" x1="150.98" y1="102.44" x2="150.82" y2="102.66"/><line class="cls-1" x1="150.01" y1="103.69" x2="149.9" y2="103.85"/><line class="cls-1" x1="149.9" y1="143.48" x2="149.9" y2="143.43"/><line class="cls-1" x1="149.25" y1="142.3" x2="149.2" y2="142.19"/><line class="cls-1" x1="149.2" y1="142.19" x2="149.09" y2="142.3"/><line class="cls-1" x1="148.5" y1="143.38" x2="148.39" y2="143.59"/><line class="cls-1" x1="147.85" y1="144.73" x2="147.74" y2="144.94"/><line class="cls-1" x1="146.99" y1="145.91" x2="146.88" y2="146.13"/><line class="cls-1" x1="146.34" y1="147.26" x2="146.23" y2="147.48"/><line class="cls-1" x1="145.69" y1="148.61" x2="145.58" y2="148.83"/><line class="cls-1" x1="145.04" y1="149.96" x2="144.93" y2="150.18"/><line class="cls-1" x1="144.39" y1="151.31" x2="144.29" y2="151.53"/><line class="cls-1" x1="143.69" y1="152.66" x2="143.58" y2="152.88"/><line class="cls-1" x1="143.04" y1="154.01" x2="142.94" y2="154.23"/><line class="cls-1" x1="142.34" y1="155.36" x2="142.23" y2="155.58"/><line class="cls-1" x1="141.64" y1="156.71" x2="141.53" y2="156.93"/><line class="cls-1" x1="140.94" y1="158.06" x2="140.83" y2="158.28"/><line class="cls-1" x1="140.24" y1="159.41" x2="140.13" y2="159.63"/><line class="cls-1" x1="139.53" y1="160.76" x2="139.43" y2="160.98"/><line class="cls-1" x1="138.83" y1="162.11" x2="138.72" y2="162.33"/><line class="cls-1" x1="138.18" y1="163.46" x2="138.13" y2="163.52"/><line class="cls-1" x1="138.13" y1="163.52" x2="138.02" y2="163.68"/><line class="cls-1" x1="137.27" y1="164.71" x2="137.16" y2="164.92"/><line class="cls-1" x1="136.4" y1="165.95" x2="136.24" y2="166.16"/><line class="cls-1" x1="135.48" y1="167.24" x2="135.32" y2="167.46"/><line class="cls-1" x1="134.57" y1="168.54" x2="134.46" y2="168.7"/><line class="cls-1" x1="134.46" y1="168.7" x2="134.4" y2="168.76"/><line class="cls-1" x1="133.49" y1="169.73" x2="133.32" y2="169.89"/><line class="cls-1" x1="132.41" y1="170.86" x2="132.24" y2="171.02"/><line class="cls-1" x1="131.33" y1="172" x2="131.33" y2="172"/><line class="cls-1" x1="131.33" y1="172" x2="131.16" y2="172.16"/><line class="cls-1" x1="130.19" y1="173.02" x2="129.98" y2="173.18"/><line class="cls-1" x1="129" y1="174.05" x2="128.84" y2="174.21"/><line class="cls-1" x1="127.87" y1="175.07" x2="127.65" y2="175.24"/><line class="cls-1" x1="126.63" y1="175.99" x2="126.41" y2="176.15"/><line class="cls-1" x1="125.39" y1="176.91" x2="125.17" y2="177.07"/><line class="cls-1" x1="124.09" y1="177.72" x2="123.87" y2="177.83"/><line class="cls-1" x1="122.74" y1="178.42" x2="122.52" y2="178.53"/><line class="cls-1" x1="121.39" y1="179.12" x2="121.17" y2="179.23"/><line class="cls-1" x1="120.04" y1="179.83" x2="119.82" y2="179.93"/><line class="cls-1" x1="118.69" y1="180.47" x2="118.47" y2="180.58"/><line class="cls-1" x1="117.29" y1="181.07" x2="117.07" y2="181.12"/><line class="cls-1" x1="115.94" y1="181.61" x2="115.72" y2="181.66"/><line class="cls-1" x1="114.53" y1="182.15" x2="114.32" y2="182.2"/><line class="cls-1" x1="113.07" y1="182.58" x2="112.86" y2="182.63"/><line class="cls-1" x1="111.62" y1="183.01" x2="111.4" y2="183.07"/><line class="cls-1" x1="110.16" y1="183.34" x2="109.94" y2="183.39"/><line class="cls-1" x1="108.7" y1="183.61" x2="108.48" y2="183.66"/><line class="cls-1" x1="107.24" y1="183.88" x2="107.03" y2="183.93"/><line class="cls-1" x1="105.73" y1="184.09" x2="105.46" y2="184.09"/><line class="cls-1" x1="104.16" y1="184.25" x2="103.89" y2="184.25"/><line class="cls-1" x1="102.54" y1="184.25" x2="102.27" y2="184.25"/><line class="cls-1" x1="100.92" y1="184.25" x2="100.87" y2="184.25"/><line class="cls-1" x1="100.87" y1="184.25" x2="100.65" y2="184.31"/><line class="cls-1" x1="99.36" y1="184.47" x2="99.09" y2="184.47"/><line class="cls-1" x1="97.79" y1="184.69" x2="97.52" y2="184.69"/><line class="cls-1" x1="96.28" y1="184.42" x2="96.06" y2="184.25"/><line class="cls-1" x1="95.04" y1="183.44" x2="94.82" y2="183.28"/><line class="cls-1" x1="94.61" y1="182.04" x2="94.55" y2="181.77"/><line class="cls-1" x1="94.39" y1="180.47" x2="94.39" y2="180.31"/><line class="cls-1" x1="94.39" y1="180.31" x2="94.39" y2="180.2"/><line class="cls-1" x1="94.5" y1="178.91" x2="94.55" y2="178.69"/><line class="cls-1" x1="94.66" y1="177.4" x2="94.66" y2="177.13"/><line class="cls-1" x1="95.52" y1="176.1" x2="95.69" y2="175.88"/><line class="cls-1" x1="96.55" y1="174.91" x2="96.71" y2="174.7"/><line class="cls-1" x1="97.58" y1="173.72" x2="97.74" y2="173.51"/><line class="cls-1" x1="98.6" y1="172.54" x2="98.76" y2="172.32"/><line class="cls-1" x1="99.63" y1="171.35" x2="99.79" y2="171.13"/><line class="cls-1" x1="100.65" y1="170.16" x2="100.87" y2="170"/><line class="cls-1" x1="101.9" y1="169.19" x2="102.11" y2="169.03"/><line class="cls-1" x1="103.14" y1="168.22" x2="103.35" y2="168.05"/><line class="cls-1" x1="104.38" y1="167.3" x2="104.54" y2="167.14"/><line class="cls-1" x1="105.57" y1="166.33" x2="105.78" y2="166.16"/><line class="cls-1" x1="106.81" y1="165.41" x2="106.97" y2="165.25"/><line class="cls-1" x1="108" y1="164.44" x2="108.21" y2="164.27"/><line class="cls-1" x1="109.24" y1="163.52" x2="109.4" y2="163.36"/><line class="cls-1" x1="110.43" y1="162.6" x2="110.59" y2="162.44"/><line class="cls-1" x1="111.62" y1="161.63" x2="111.83" y2="161.47"/><line class="cls-1" x1="112.86" y1="160.71" x2="113.02" y2="160.55"/><line class="cls-1" x1="114.05" y1="159.74" x2="114.26" y2="159.58"/><line class="cls-1" x1="115.29" y1="158.82" x2="115.45" y2="158.66"/><line class="cls-1" x1="116.48" y1="157.85" x2="116.69" y2="157.69"/><line class="cls-1" x1="117.72" y1="156.93" x2="117.93" y2="156.77"/><line class="cls-1" x1="118.96" y1="155.96" x2="119.18" y2="155.8"/><line class="cls-1" x1="120.2" y1="155.04" x2="120.42" y2="154.88"/><line class="cls-1" x1="121.44" y1="154.12" x2="121.61" y2="153.96"/><line class="cls-1" x1="122.63" y1="153.2" x2="122.85" y2="153.04"/><line class="cls-1" x1="123.87" y1="152.23" x2="124.09" y2="152.07"/><line class="cls-1" x1="125.12" y1="151.31" x2="125.33" y2="151.15"/><line class="cls-1" x1="126.36" y1="150.34" x2="126.57" y2="150.18"/><line class="cls-1" x1="127.6" y1="149.42" x2="127.76" y2="149.26"/><line class="cls-1" x1="128.79" y1="148.51" x2="128.95" y2="148.34"/><line class="cls-1" x1="129.98" y1="147.59" x2="130.19" y2="147.43"/><line class="cls-1" x1="129" y1="147.37" x2="128.73" y2="147.37"/><line class="cls-1" x1="129.27" y1="146.56" x2="129.44" y2="146.35"/><line class="cls-1" x1="130.35" y1="145.43" x2="130.57" y2="145.27"/><line class="cls-1" x1="131.54" y1="144.35" x2="131.54" y2="144.35"/><line class="cls-1" x1="131.54" y1="144.35" x2="131.76" y2="144.19"/><line class="cls-1" x1="132.78" y1="143.32" x2="133" y2="143.16"/><line class="cls-1" x1="134.08" y1="142.4" x2="134.3" y2="142.24"/><line class="cls-1" x1="135.38" y1="141.54" x2="135.59" y2="141.43"/><line class="cls-1" x1="136.67" y1="140.78" x2="136.89" y2="140.68"/><line class="cls-1" x1="138.02" y1="140.08" x2="138.24" y2="139.97"/><line class="cls-1" x1="139.37" y1="139.49" x2="139.59" y2="139.38"/><line class="cls-1" x1="140.78" y1="138.89" x2="140.88" y2="138.84"/><line class="cls-1" x1="140.88" y1="138.84" x2="140.99" y2="138.79"/><line class="cls-1" x1="142.18" y1="138.35" x2="142.4" y2="138.3"/><line class="cls-1" x1="143.58" y1="137.92" x2="143.8" y2="137.87"/><line class="cls-1" x1="145.04" y1="137.54" x2="145.26" y2="137.49"/><line class="cls-1" x1="146.5" y1="137.22" x2="146.77" y2="137.22"/><line class="cls-1" x1="148.01" y1="137.06" x2="148.23" y2="137"/><line class="cls-1" x1="149.52" y1="136.95" x2="149.63" y2="136.95"/><line class="cls-1" x1="149.63" y1="136.95" x2="149.47" y2="136.95"/><line class="cls-1" x1="148.17" y1="136.84" x2="147.9" y2="136.79"/><line class="cls-1" x1="146.61" y1="136.68" x2="146.39" y2="136.63"/><line class="cls-1" x1="145.1" y1="136.46" x2="144.88" y2="136.41"/><line class="cls-1" x1="143.64" y1="136.14" x2="143.42" y2="136.09"/><line class="cls-1" x1="142.18" y1="135.76" x2="141.96" y2="135.71"/><line class="cls-1" x1="140.78" y1="135.33" x2="140.78" y2="135.33"/><line class="cls-1" x1="140.78" y1="135.33" x2="140.56" y2="135.22"/><line class="cls-1" x1="139.37" y1="134.79" x2="139.16" y2="134.74"/><line class="cls-1" x1="137.97" y1="134.25" x2="137.75" y2="134.14"/><line class="cls-1" x1="136.56" y1="133.66" x2="136.35" y2="133.55"/><line class="cls-1" x1="135.21" y1="132.9" x2="135" y2="132.79"/><line class="cls-1" x1="133.92" y1="132.14" x2="133.76" y2="131.98"/><line class="cls-1" x1="132.68" y1="131.23" x2="132.46" y2="131.06"/><line class="cls-1" x1="131.38" y1="130.31" x2="131.16" y2="130.15"/><line class="cls-1" x1="130.14" y1="129.39" x2="129.92" y2="129.23"/><line class="cls-1" x1="128.9" y1="128.47" x2="128.9" y2="128.47"/><line class="cls-1" x1="128.9" y1="128.47" x2="129.06" y2="128.26"/><line class="cls-1" x1="128.79" y1="127.45" x2="128.57" y2="127.28"/><line class="cls-1" x1="127.44" y1="126.64" x2="127.22" y2="126.53"/><line class="cls-1" x1="126.14" y1="125.88" x2="125.93" y2="125.77"/><line class="cls-1" x1="124.85" y1="125.12" x2="124.63" y2="125.02"/><line class="cls-1" x1="123.55" y1="124.37" x2="123.33" y2="124.26"/><line class="cls-1" x1="122.25" y1="123.61" x2="122.04" y2="123.5"/><line class="cls-1" x1="120.96" y1="122.86" x2="120.74" y2="122.75"/><line class="cls-1" x1="119.66" y1="122.1" x2="119.45" y2="121.99"/><line class="cls-1" x1="118.37" y1="121.34" x2="118.15" y2="121.24"/><line class="cls-1" x1="117.07" y1="120.59" x2="116.85" y2="120.48"/><line class="cls-1" x1="115.77" y1="119.83" x2="115.56" y2="119.67"/><line class="cls-1" x1="114.42" y1="119.02" x2="114.21" y2="118.91"/><line class="cls-1" x1="113.13" y1="118.27" x2="112.91" y2="118.1"/><line class="cls-1" x1="111.78" y1="117.46" x2="111.56" y2="117.35"/><line class="cls-1" x1="110.48" y1="116.7" x2="110.27" y2="116.59"/><line class="cls-1" x1="109.19" y1="115.94" x2="108.97" y2="115.78"/><line class="cls-1" x1="107.84" y1="115.13" x2="107.62" y2="115.03"/><line class="cls-1" x1="106.54" y1="114.38" x2="106.32" y2="114.22"/><line class="cls-1" x1="105.19" y1="113.57" x2="104.97" y2="113.46"/><line class="cls-1" x1="103.89" y1="112.81" x2="103.68" y2="112.65"/><line class="cls-1" x1="102.54" y1="112" x2="102.33" y2="111.89"/><line class="cls-1" x1="101.25" y1="111.25" x2="101.03" y2="111.08"/><line class="cls-1" x1="99.9" y1="110.44" x2="99.68" y2="110.33"/><line class="cls-1" x1="98.6" y1="109.68" x2="98.39" y2="109.57"/><line class="cls-1" x1="97.36" y1="108.82" x2="97.2" y2="108.65"/><line class="cls-1" x1="96.17" y1="107.84" x2="95.96" y2="107.68"/><line class="cls-1" x1="94.93" y1="106.87" x2="94.77" y2="106.71"/><line class="cls-1" x1="93.74" y1="105.9" x2="93.53" y2="105.74"/><line class="cls-1" x1="92.5" y1="104.87" x2="92.28" y2="104.71"/><line class="cls-1" x1="91.26" y1="103.9" x2="91.04" y2="103.74"/><line class="cls-1" x1="90.02" y1="102.93" x2="89.85" y2="102.77"/><line class="cls-1" x1="88.83" y1="101.96" x2="88.61" y2="101.8"/><line class="cls-1" x1="87.59" y1="100.99" x2="87.48" y2="100.88"/><line class="cls-1" x1="87.48" y1="100.88" x2="87.42" y2="100.82"/><line class="cls-1" x1="86.61" y1="99.8" x2="86.45" y2="99.58"/><line class="cls-1" x1="85.64" y1="98.56" x2="85.48" y2="98.39"/><line class="cls-1" x1="84.67" y1="97.37" x2="84.51" y2="97.15"/><line class="cls-1" x1="83.7" y1="96.13" x2="83.54" y2="95.96"/><line class="cls-1" x1="82.83" y1="94.99" x2="83.05" y2="94.88"/><line class="cls-1" x1="84.18" y1="94.4" x2="84.4" y2="94.29"/><line class="cls-1" x1="85.59" y1="93.8" x2="85.8" y2="93.7"/><line class="cls-1" x1="86.13" y1="92.45" x2="86.18" y2="92.24"/><line class="cls-1" x1="86.51" y1="91" x2="86.56" y2="90.89"/><line class="cls-1" x1="86.56" y1="90.89" x2="86.67" y2="90.78"/><line class="cls-1" x1="87.69" y1="89.97" x2="87.86" y2="89.81"/><line class="cls-1" x1="88.88" y1="88.94" x2="89.1" y2="88.78"/><line class="cls-1" x1="90.07" y1="87.92" x2="90.23" y2="87.76"/><line class="cls-1" x1="91.26" y1="86.95" x2="91.47" y2="86.84"/><line class="cls-1" x1="92.55" y1="86.14" x2="92.77" y2="85.97"/><line class="cls-1" x1="93.9" y1="85.38" x2="94.12" y2="85.27"/><line class="cls-1" x1="95.25" y1="84.73" x2="95.47" y2="84.62"/><line class="cls-1" x1="96.6" y1="84.08" x2="96.82" y2="84.03"/><line class="cls-1" x1="97.95" y1="83.49" x2="98.17" y2="83.38"/><line class="cls-1" x1="99.36" y1="82.95" x2="99.57" y2="82.84"/><line class="cls-1" x1="100.76" y1="82.36" x2="100.82" y2="82.36"/><line class="cls-1" x1="100.82" y1="82.36" x2="100.98" y2="82.3"/><line class="cls-1" x1="102.17" y1="81.92" x2="102.38" y2="81.87"/><line class="cls-1" x1="103.62" y1="81.49" x2="103.84" y2="81.44"/><line class="cls-1" x1="105.08" y1="81.17" x2="105.3" y2="81.11"/><line class="cls-1" x1="106.54" y1="80.84" x2="106.76" y2="80.79"/><line class="cls-1" x1="108.05" y1="80.63" x2="108.27" y2="80.57"/><line class="cls-1" x1="109.51" y1="80.36" x2="109.78" y2="80.36"/><line class="cls-1" x1="111.08" y1="80.14" x2="111.35" y2="80.14"/><line class="cls-1" x1="112.59" y1="79.93" x2="112.8" y2="79.87"/><line class="cls-1" x1="114.1" y1="79.66" x2="114.15" y2="79.66"/><line class="cls-1" x1="114.15" y1="79.66" x2="114.37" y2="79.66"/><line class="cls-1" x1="115.72" y1="79.66" x2="115.99" y2="79.66"/><line class="cls-1" x1="117.29" y1="79.71" x2="117.56" y2="79.71"/><line class="cls-1" x1="118.85" y1="79.87" x2="119.12" y2="79.87"/><line class="cls-1" x1="120.42" y1="80.09" x2="120.63" y2="80.14"/><line class="cls-1" x1="121.88" y1="80.41" x2="122.09" y2="80.47"/><line class="cls-1" x1="123.33" y1="80.84" x2="123.55" y2="80.9"/><line class="cls-1" x1="124.79" y1="81.28" x2="125.01" y2="81.33"/><line class="cls-1" x1="126.2" y1="81.71" x2="126.41" y2="81.82"/><line class="cls-1" x1="127.6" y1="82.25" x2="127.82" y2="82.3"/><line class="cls-1" x1="128.95" y1="82.9" x2="129.17" y2="83"/><line class="cls-1" x1="130.25" y1="83.6" x2="130.46" y2="83.71"/><line class="cls-1" x1="131.54" y1="84.46" x2="131.76" y2="84.62"/><line class="cls-1" x1="132.84" y1="85.38" x2="133.05" y2="85.54"/><line class="cls-1" x1="134.08" y1="86.41" x2="134.24" y2="86.57"/><line class="cls-1" x1="135.16" y1="87.49" x2="135.38" y2="87.65"/><line class="cls-1" x1="136.29" y1="88.57" x2="136.51" y2="88.73"/><line class="cls-1" x1="137.48" y1="89.65" x2="137.64" y2="89.81"/><line class="cls-1" x1="138.62" y1="90.73" x2="138.78" y2="90.94"/><line class="cls-1" x1="139.7" y1="91.91" x2="139.86" y2="92.13"/><line class="cls-1" x1="140.78" y1="93.1" x2="140.94" y2="93.32"/><line class="cls-1" x1="141.8" y1="94.29" x2="141.96" y2="94.51"/><line class="cls-1" x1="142.83" y1="95.53" x2="142.99" y2="95.75"/><line class="cls-1" x1="143.8" y1="96.77" x2="143.96" y2="96.94"/><line class="cls-1" x1="144.72" y1="97.96" x2="144.83" y2="98.18"/><line class="cls-1" x1="145.58" y1="99.26" x2="145.69" y2="99.47"/><line class="cls-1" x1="146.5" y1="100.5" x2="146.66" y2="100.72"/><line class="cls-1" x1="147.53" y1="101.69" x2="147.69" y2="101.85"/><line class="cls-1" x1="148.61" y1="102.77" x2="148.77" y2="102.93"/><line class="cls-1" x1="149.63" y1="103.96" x2="149.79" y2="104.17"/></g></svg>