<svg id="Spun_Light_T2" data-name="Spun Light_T2" xmlns="http://www.w3.org/2000/svg" xmlns:xlink="http://www.w3.org/1999/xlink" viewBox="0 0 300 263"><defs><style>.cls-1,.cls-2,.cls-5{fill:none;}.cls-2{stroke:#000;}.cls-2,.cls-5{stroke-width:0.5px;}.cls-3{isolation:isolate;}.cls-4{clip-path:url(#clip-path);}.cls-5{stroke:#1d1d1b;stroke-miterlimit:3.86;}</style><clipPath id="clip-path"><rect class="cls-1" x="72.76" y="43.59" width="153.37" height="177.15"/></clipPath></defs><title>spun-light-table-2-wrong-flos-F6611021-spech-tech-02-300x263-01-01</title><line class="cls-2" x1="110.8" y1="37.55" x2="223.03" y2="37.55"/><line class="cls-2" x1="110.8" y1="36.23" x2="110.8" y2="38.86"/><line class="cls-2" x1="223.03" y1="36.23" x2="223.03" y2="38.86"/><line class="cls-2" x1="97.13" y1="217.27" x2="97.13" y2="47.16"/><line class="cls-2" x1="95.43" y1="217.27" x2="98.83" y2="217.27"/><line class="cls-2" x1="95.43" y1="47.16" x2="98.83" y2="47.16"/><line class="cls-2" x1="125.63" y1="226.96" x2="203.61" y2="226.96"/><line class="cls-2" x1="125.63" y1="225.34" x2="125.63" y2="228.58"/><line class="cls-2" x1="203.61" y1="225.34" x2="203.61" y2="228.58"/><g class="cls-3"><path d="M135.16,241a3.89,3.89,0,0,1,.71,1.16,4.29,4.29,0,0,1-.05,3,3.88,3.88,0,0,1-.86,1.25,3.94,3.94,0,0,1-1.3.82,4.78,4.78,0,0,1-3.13.07,4,4,0,0,1-1.15-.61l-1.11,1.09-.54-.49,1.1-1.09a3.45,3.45,0,0,1-.71-1.18,4,4,0,0,1-.25-1.43,3.79,3.79,0,0,1,2.46-3.64,4.49,4.49,0,0,1,1.66-.3,4.72,4.72,0,0,1,1.44.22,3.91,3.91,0,0,1,1.2.62l1.1-1.09.53.49Zm-1.3.26a2.78,2.78,0,0,0-1.87-.63,3,3,0,0,0-1.22.24,2.6,2.6,0,0,0-.92.63,2.91,2.91,0,0,0-.58.94,3.24,3.24,0,0,0-.21,1.17,2.87,2.87,0,0,0,.57,1.82ZM130.13,246a2.88,2.88,0,0,0,.83.45,3.32,3.32,0,0,0,1,.16,3,3,0,0,0,1.22-.24,2.6,2.6,0,0,0,.92-.63,2.68,2.68,0,0,0,.59-.94,3.2,3.2,0,0,0,.21-1.17,3,3,0,0,0-.57-1.82Z"/><path d="M144.93,240.86h.61a4.48,4.48,0,0,0,1-.11,2.46,2.46,0,0,0,.82-.36,1.77,1.77,0,0,0,.56-.65,2.06,2.06,0,0,0,.21-1,1.78,1.78,0,0,0-.58-1.42,2.36,2.36,0,0,0-1.6-.5,2.65,2.65,0,0,0-1.31.32,2.44,2.44,0,0,0-.93.93l-1-.51a3.55,3.55,0,0,1,1.36-1.36,4,4,0,0,1,1.9-.44,4.33,4.33,0,0,1,1.31.2,3.09,3.09,0,0,1,1.08.56,2.8,2.8,0,0,1,.74.93,2.84,2.84,0,0,1,.27,1.26,2.58,2.58,0,0,1-.15.88,2.55,2.55,0,0,1-.44.75,2.74,2.74,0,0,1-.64.58,2.85,2.85,0,0,1-.76.38l.05,0a2.74,2.74,0,0,1,1.63,1,3,3,0,0,1,.46.86,3.1,3.1,0,0,1,.17,1,3,3,0,0,1-1.11,2.42,3.62,3.62,0,0,1-1.2.63,4.87,4.87,0,0,1-1.44.22,4.53,4.53,0,0,1-2.26-.55,3.29,3.29,0,0,1-1.45-1.74l1.26-.37a2.41,2.41,0,0,0,.89,1.21,3,3,0,0,0,1.65.39,2.71,2.71,0,0,0,.95-.16,2.49,2.49,0,0,0,.79-.46,2,2,0,0,0,.53-.71,2.37,2.37,0,0,0-.06-2,2,2,0,0,0-.66-.71,2.94,2.94,0,0,0-1-.39,5.13,5.13,0,0,0-1.12-.12h-.51Z"/><path d="M155.39,235.8a3.45,3.45,0,0,1,2.05.56,3.9,3.9,0,0,1,1.21,1.43,6.13,6.13,0,0,1,.58,1.89,13.14,13.14,0,0,1,0,4,6.13,6.13,0,0,1-.58,1.89,3.9,3.9,0,0,1-1.21,1.43,4,4,0,0,1-4.09,0,3.9,3.9,0,0,1-1.21-1.43,6.13,6.13,0,0,1-.58-1.89,13.14,13.14,0,0,1,0-4,6.13,6.13,0,0,1,.58-1.89,3.9,3.9,0,0,1,1.21-1.43A3.44,3.44,0,0,1,155.39,235.8Zm0,1.06a2.23,2.23,0,0,0-1.52.5,3,3,0,0,0-.83,1.23,5.71,5.71,0,0,0-.36,1.57c-.05.55-.08,1.05-.08,1.5s0,1,.08,1.5a5.71,5.71,0,0,0,.36,1.57,3,3,0,0,0,.83,1.23,2.23,2.23,0,0,0,1.52.5,2.19,2.19,0,0,0,1.52-.5,3,3,0,0,0,.84-1.23,5.71,5.71,0,0,0,.36-1.57c0-.55.08-1,.08-1.5s0-.95-.08-1.5a5.71,5.71,0,0,0-.36-1.57,3,3,0,0,0-.84-1.23A2.19,2.19,0,0,0,155.39,236.86Z"/><path d="M163.1,241.29a2.35,2.35,0,0,1-.7-.37,2.62,2.62,0,0,1-.56-.59,2.79,2.79,0,0,1-.37-.73,3,3,0,0,1-.13-.84,2.85,2.85,0,0,1,1-2.16,3.36,3.36,0,0,1,1.05-.59,3.89,3.89,0,0,1,2.52,0,3.36,3.36,0,0,1,1.05.59,2.85,2.85,0,0,1,1,2.16,2.63,2.63,0,0,1-.13.84,2.79,2.79,0,0,1-.37.73,2.57,2.57,0,0,1-.55.59,2.54,2.54,0,0,1-.71.37v0a2.84,2.84,0,0,1,1.59,1.06,3.1,3.1,0,0,1,.6,1.92,2.8,2.8,0,0,1-.31,1.33,3.17,3.17,0,0,1-.81,1,3.48,3.48,0,0,1-1.18.65,4.5,4.5,0,0,1-2.84,0,3.48,3.48,0,0,1-1.18-.65,3.17,3.17,0,0,1-.81-1,2.8,2.8,0,0,1-.31-1.33,3.1,3.1,0,0,1,.6-1.92,2.88,2.88,0,0,1,1.59-1.06Zm4.06,2.85a2.33,2.33,0,0,0-.19-.92,2.11,2.11,0,0,0-1.3-1.22,3.12,3.12,0,0,0-2.09,0,2.33,2.33,0,0,0-.79.48,2.36,2.36,0,0,0-.5.74,2.44,2.44,0,0,0,0,1.84,2.36,2.36,0,0,0,.5.74,2.33,2.33,0,0,0,.79.48,3.12,3.12,0,0,0,2.09,0,2.11,2.11,0,0,0,1.3-1.22A2.33,2.33,0,0,0,167.16,244.14Zm-.44-5.28a2.11,2.11,0,0,0-.15-.8,2,2,0,0,0-.44-.63,2,2,0,0,0-.67-.42,2.37,2.37,0,0,0-1.66,0,1.87,1.87,0,0,0-.66.42,1.75,1.75,0,0,0-.44.63,1.94,1.94,0,0,0-.16.8,1.91,1.91,0,0,0,.16.8,1.67,1.67,0,0,0,.44.63,1.87,1.87,0,0,0,.66.42,2.37,2.37,0,0,0,1.66,0,2,2,0,0,0,.67-.42,1.93,1.93,0,0,0,.44-.63A2.07,2.07,0,0,0,166.72,238.86Z"/><path d="M175.06,241.5c0-.28,0-.55,0-.83l-.06-.83h1.18V241h0a2.6,2.6,0,0,1,1.11-1,3.31,3.31,0,0,1,1.4-.34,4,4,0,0,1,.67.07,2.44,2.44,0,0,1,.69.23,2.3,2.3,0,0,1,.63.47,2.88,2.88,0,0,1,.49.79,2.51,2.51,0,0,1,1-1.14,3.28,3.28,0,0,1,3.71.34,3,3,0,0,1,.72,2.17v4.75h-1.1V243a3.17,3.17,0,0,0-.41-1.75,1.78,1.78,0,0,0-1.55-.61,2,2,0,0,0-1,.24,1.88,1.88,0,0,0-.67.61,2.6,2.6,0,0,0-.37.87,4.31,4.31,0,0,0-.12,1v4h-1.1V243a3.17,3.17,0,0,0-.41-1.75,1.76,1.76,0,0,0-1.55-.61l-.45.07a1.72,1.72,0,0,0-.74.35,2.46,2.46,0,0,0-.69.86,3.4,3.4,0,0,0-.31,1.6v3.84h-1.1Z"/><path d="M189.22,241.5c0-.28,0-.55,0-.83s0-.56-.06-.83h1.18V241h0a2.52,2.52,0,0,1,1.1-1,3.31,3.31,0,0,1,1.4-.34,4.24,4.24,0,0,1,.68.07,2.44,2.44,0,0,1,.69.23,2.26,2.26,0,0,1,.62.47,2.66,2.66,0,0,1,.49.79,2.51,2.51,0,0,1,1-1.14,3,3,0,0,1,1.51-.42,2.94,2.94,0,0,1,2.21.76,3.08,3.08,0,0,1,.71,2.17v4.75h-1.1V243a3.08,3.08,0,0,0-.41-1.75,1.76,1.76,0,0,0-1.55-.61,2,2,0,0,0-1,.24,2,2,0,0,0-.67.61,2.82,2.82,0,0,0-.37.87,4.31,4.31,0,0,0-.12,1v4h-1.09V243a3.08,3.08,0,0,0-.42-1.75,1.75,1.75,0,0,0-1.54-.61c-.07,0-.22,0-.46.07a1.72,1.72,0,0,0-.74.35,2.58,2.58,0,0,0-.69.86,3.52,3.52,0,0,0-.31,1.6v3.84h-1.09Z"/></g><g class="cls-3"><path d="M140.69,22.81A3.89,3.89,0,0,1,141.4,24a4,4,0,0,1,.25,1.45,4.07,4.07,0,0,1-.3,1.57,3.88,3.88,0,0,1-.86,1.25,3.94,3.94,0,0,1-1.3.82,4.78,4.78,0,0,1-3.13.07,4,4,0,0,1-1.15-.61l-1.11,1.09-.54-.49,1.1-1.09a3.54,3.54,0,0,1-.71-1.18,4,4,0,0,1-.25-1.43,4,4,0,0,1,.3-1.57,3.88,3.88,0,0,1,.86-1.25,4,4,0,0,1,1.3-.82,4.49,4.49,0,0,1,1.66-.3,4.72,4.72,0,0,1,1.44.22,3.91,3.91,0,0,1,1.2.62l1.09-1.09.54.49Zm-1.3.26a2.78,2.78,0,0,0-1.87-.63,3,3,0,0,0-1.22.24,2.6,2.6,0,0,0-.92.63,2.81,2.81,0,0,0-.58.94,3.2,3.2,0,0,0-.21,1.17,2.87,2.87,0,0,0,.57,1.82Zm-3.73,4.72a2.88,2.88,0,0,0,.83.45,3.32,3.32,0,0,0,1,.16,3,3,0,0,0,1.22-.24,2.6,2.6,0,0,0,.92-.63,2.68,2.68,0,0,0,.59-.94,3.2,3.2,0,0,0,.21-1.17,3,3,0,0,0-.57-1.82Z"/><path d="M154,25.42h1.69v1.06H154v2.68h-1.2V26.48H147.7V25.16l4.75-7.32H154ZM152.78,19h0l-4.05,6.43h4.08Z"/><path d="M164,18.89h-4.8l-.08,3.41a3.46,3.46,0,0,1,.78-.21,5.25,5.25,0,0,1,.79-.06,4.11,4.11,0,0,1,1.52.27,3.43,3.43,0,0,1,1.17.76,3.6,3.6,0,0,1,.76,1.15,3.82,3.82,0,0,1,.28,1.45,3.72,3.72,0,0,1-.3,1.5,3.47,3.47,0,0,1-.83,1.16,3.83,3.83,0,0,1-1.26.76,4.21,4.21,0,0,1-1.57.28,3.91,3.91,0,0,1-2-.52,3.35,3.35,0,0,1-1.38-1.5l1.2-.5a2.62,2.62,0,0,0,.93,1.07,2.42,2.42,0,0,0,1.37.39,2.71,2.71,0,0,0,1-.2,2.63,2.63,0,0,0,.84-.54,2.41,2.41,0,0,0,.56-.8,2.38,2.38,0,0,0,.21-1,2.62,2.62,0,0,0-.22-1.09,2.55,2.55,0,0,0-.59-.85,2.51,2.51,0,0,0-.92-.55,3.32,3.32,0,0,0-1.16-.2,4.83,4.83,0,0,0-1.25.17,5.87,5.87,0,0,0-1.19.46l.11-5.87h6Z"/><path d="M170.16,17.64a3.44,3.44,0,0,1,2,.56,3.92,3.92,0,0,1,1.22,1.43,6.41,6.41,0,0,1,.58,1.89,13.14,13.14,0,0,1,0,4,6.41,6.41,0,0,1-.58,1.89,3.92,3.92,0,0,1-1.22,1.43,4,4,0,0,1-4.08,0,3.92,3.92,0,0,1-1.22-1.43,6.41,6.41,0,0,1-.58-1.89,13.14,13.14,0,0,1,0-4,6.41,6.41,0,0,1,.58-1.89,3.92,3.92,0,0,1,1.22-1.43A3.44,3.44,0,0,1,170.16,17.64Zm0,1.06a2.16,2.16,0,0,0-1.52.5,3.14,3.14,0,0,0-.84,1.23,5.71,5.71,0,0,0-.36,1.57c-.05.55-.07,1.05-.07,1.5s0,.95.07,1.5a5.71,5.71,0,0,0,.36,1.57,3.14,3.14,0,0,0,.84,1.23,2.56,2.56,0,0,0,3,0,3.14,3.14,0,0,0,.84-1.23,5.71,5.71,0,0,0,.36-1.57c.05-.55.07-1.05.07-1.5s0-.95-.07-1.5a5.71,5.71,0,0,0-.36-1.57,3.14,3.14,0,0,0-.84-1.23A2.16,2.16,0,0,0,170.16,18.7Z"/><path d="M180.59,23.34c0-.28,0-.56,0-.83l-.06-.83h1.18v1.13h0a2.54,2.54,0,0,1,1.11-1,3.31,3.31,0,0,1,1.4-.34,4,4,0,0,1,.67.07,2.38,2.38,0,0,1,1.32.7,2.73,2.73,0,0,1,.49.79,2.51,2.51,0,0,1,1-1.14,3.28,3.28,0,0,1,3.71.34,3,3,0,0,1,.72,2.17v4.75h-1.1V24.8a3.17,3.17,0,0,0-.41-1.75,1.78,1.78,0,0,0-1.55-.61,2,2,0,0,0-1,.24,1.88,1.88,0,0,0-.67.61,2.84,2.84,0,0,0-.38.87,4.9,4.9,0,0,0-.11,1v4h-1.1V24.8a3.17,3.17,0,0,0-.41-1.75,1.78,1.78,0,0,0-1.55-.61l-.46.07a1.74,1.74,0,0,0-.73.35,2.46,2.46,0,0,0-.69.86,3.4,3.4,0,0,0-.31,1.6v3.84h-1.1Z"/><path d="M194.75,23.34c0-.28,0-.56,0-.83s0-.56-.06-.83h1.18v1.13h0a2.46,2.46,0,0,1,1.1-1,3.31,3.31,0,0,1,1.4-.34,4.24,4.24,0,0,1,.68.07,2.67,2.67,0,0,1,.69.23,2.26,2.26,0,0,1,.62.47,2.54,2.54,0,0,1,.49.79,2.51,2.51,0,0,1,1-1.14,3,3,0,0,1,1.51-.42,2.94,2.94,0,0,1,2.21.76,3.08,3.08,0,0,1,.71,2.17v4.75h-1.09V24.8a3.08,3.08,0,0,0-.42-1.75,1.75,1.75,0,0,0-1.54-.61,2.08,2.08,0,0,0-1,.24,2,2,0,0,0-.67.61,2.82,2.82,0,0,0-.37.87,4.31,4.31,0,0,0-.12,1v4H200V24.8a3.08,3.08,0,0,0-.42-1.75,1.75,1.75,0,0,0-1.54-.61c-.07,0-.22,0-.46.07a1.72,1.72,0,0,0-.74.35,2.46,2.46,0,0,0-.69.86,3.4,3.4,0,0,0-.31,1.6v3.84h-1.09Z"/></g><g class="cls-3"><path d="M80.31,159.34l0,0a1.83,1.83,0,0,1-.29-.73,4.35,4.35,0,0,1-.1-.84,3.45,3.45,0,0,1,1-2.46,3.36,3.36,0,0,1,1.1-.73,3.91,3.91,0,0,1,2.83,0,3.21,3.21,0,0,1,1.11.77,3.54,3.54,0,0,1,.72,1.16,4.48,4.48,0,0,1,0,2.95,3.49,3.49,0,0,1-.72,1.17,3.18,3.18,0,0,1-1.11.76,3.43,3.43,0,0,1-1.42.28,4.6,4.6,0,0,1-1.65-.28,9.53,9.53,0,0,1-1.39-.7l-5-3.06v-1.36Zm3.15,1.15a2.64,2.64,0,0,0,1-.18,2.32,2.32,0,0,0,.78-.52,2.26,2.26,0,0,0,.5-.8,3,3,0,0,0,0-2.05,2.36,2.36,0,0,0-.5-.8,2.32,2.32,0,0,0-.78-.52,2.81,2.81,0,0,0-2,0,2.18,2.18,0,0,0-.77.52,2.74,2.74,0,0,0-.51.8,3,3,0,0,0,0,2.05,2.61,2.61,0,0,0,.51.8,2.18,2.18,0,0,0,.77.52A2.64,2.64,0,0,0,83.46,160.49Z"/><path d="M80.74,150.54a2.28,2.28,0,0,1-.38.68,2.48,2.48,0,0,1-.58.54,2.65,2.65,0,0,1-.74.35,2.53,2.53,0,0,1-.83.13,2.87,2.87,0,0,1-2.16-1,3.11,3.11,0,0,1-.59-1,3.65,3.65,0,0,1,0-2.44,3.11,3.11,0,0,1,.59-1,2.87,2.87,0,0,1,3-.82,3,3,0,0,1,.74.35,2.48,2.48,0,0,1,.58.54,2.28,2.28,0,0,1,.38.68h0a2.69,2.69,0,0,1,1.06-1.54,3.21,3.21,0,0,1,1.92-.57,2.85,2.85,0,0,1,1.32.29,3.18,3.18,0,0,1,1,.79,3.41,3.41,0,0,1,.65,1.13,4.38,4.38,0,0,1,0,2.74,3.41,3.41,0,0,1-.65,1.13,3.18,3.18,0,0,1-1,.79,2.85,2.85,0,0,1-1.32.29,3.21,3.21,0,0,1-1.92-.57,2.69,2.69,0,0,1-1.06-1.54Zm-2.43-3.49a2.08,2.08,0,0,0-.8.16,1.87,1.87,0,0,0-.64.42,2.16,2.16,0,0,0-.41,2.24,2,2,0,0,0,.41.64,1.87,1.87,0,0,0,.64.42,1.91,1.91,0,0,0,.8.16,2,2,0,0,0,1.43-.58,2,2,0,0,0,.41-.64,2.08,2.08,0,0,0,0-1.6,2.13,2.13,0,0,0-.41-.64,1.93,1.93,0,0,0-.63-.42A2.11,2.11,0,0,0,78.31,147.05Zm5.28-.41a2.51,2.51,0,0,0-.92.17,2.22,2.22,0,0,0-.74.49,2.26,2.26,0,0,0-.49.77,3.06,3.06,0,0,0,0,2,2.18,2.18,0,0,0,1.23,1.25,2.51,2.51,0,0,0,.92.17,2.55,2.55,0,0,0,.92-.17,2.29,2.29,0,0,0,.73-.49,2.21,2.21,0,0,0,.49-.76,2.9,2.9,0,0,0,0-2,2.26,2.26,0,0,0-.49-.77,2.29,2.29,0,0,0-.73-.49A2.55,2.55,0,0,0,83.59,146.64Z"/><path d="M75.25,140.17a3.21,3.21,0,0,1,.56-2A3.86,3.86,0,0,1,77.23,137a6.17,6.17,0,0,1,1.9-.56,13.82,13.82,0,0,1,2-.15,13.58,13.58,0,0,1,2,.15A6.17,6.17,0,0,1,85,137a3.78,3.78,0,0,1,1.42,1.17,3.73,3.73,0,0,1,0,3.93A3.78,3.78,0,0,1,85,143.31a6.45,6.45,0,0,1-1.9.56,13.53,13.53,0,0,1-2,.14,13.76,13.76,0,0,1-2-.14,6.45,6.45,0,0,1-1.9-.56,3.86,3.86,0,0,1-1.42-1.17A3.24,3.24,0,0,1,75.25,140.17Zm1.06,0a2.09,2.09,0,0,0,.49,1.47,3.19,3.19,0,0,0,1.23.81,6.27,6.27,0,0,0,1.57.34c.56.05,1.06.07,1.51.07s1,0,1.5-.07a6.09,6.09,0,0,0,1.57-.34,3.19,3.19,0,0,0,1.23-.81,2.4,2.4,0,0,0,0-2.93,3.08,3.08,0,0,0-1.23-.81,6.09,6.09,0,0,0-1.57-.34c-.55-.05-1-.07-1.5-.07s-1,0-1.51.07a6.27,6.27,0,0,0-1.57.34,3.08,3.08,0,0,0-1.23.81A2.08,2.08,0,0,0,76.31,140.17Z"/><path d="M81,130.13c-.28,0-.56,0-.84,0l-.83.06v-1.14h1.14v0a2.44,2.44,0,0,1-1-1.07,2.94,2.94,0,0,1-.34-1.35,3.83,3.83,0,0,1,.06-.65,2.39,2.39,0,0,1,.24-.66,2.34,2.34,0,0,1,.47-.6,2.45,2.45,0,0,1,.78-.47,2.43,2.43,0,0,1-1.13-1,2.74,2.74,0,0,1-.42-1.45,2.69,2.69,0,0,1,.76-2.12A3.12,3.12,0,0,1,82,119h4.75V120H82.4a3.22,3.22,0,0,0-1.74.4,1.65,1.65,0,0,0-.61,1.49,2,2,0,0,0,.23,1,1.84,1.84,0,0,0,.62.65,2.5,2.5,0,0,0,.87.36,4.31,4.31,0,0,0,1,.11h4v1.06H82.4a3.13,3.13,0,0,0-1.74.4,1.64,1.64,0,0,0-.61,1.49,3.61,3.61,0,0,0,.06.44,1.65,1.65,0,0,0,.36.71,2.42,2.42,0,0,0,.86.66,3.53,3.53,0,0,0,1.6.3h3.84v1.06Z"/><path d="M81,116.49q-.42,0-.84,0l-.83,0v-1.13h1.14v0a2.44,2.44,0,0,1-1-1.07,2.94,2.94,0,0,1-.34-1.35,3.83,3.83,0,0,1,.06-.65,2.28,2.28,0,0,1,.24-.66,2.34,2.34,0,0,1,.47-.6,2.28,2.28,0,0,1,.78-.47,2.48,2.48,0,0,1-1.13-1,2.76,2.76,0,0,1-.42-1.45,2.73,2.73,0,0,1,.76-2.13,3.17,3.17,0,0,1,2.17-.68h4.75v1H82.4a3.22,3.22,0,0,0-1.74.4,1.65,1.65,0,0,0-.61,1.49,2,2,0,0,0,.23,1,1.84,1.84,0,0,0,.62.65,2.5,2.5,0,0,0,.87.36,4.31,4.31,0,0,0,1,.11h4v1.06H82.4a3.13,3.13,0,0,0-1.74.4,1.64,1.64,0,0,0-.61,1.49,3.61,3.61,0,0,0,.06.44,1.71,1.71,0,0,0,.36.71,2.53,2.53,0,0,0,.86.66,3.53,3.53,0,0,0,1.6.3h3.84v1Z"/></g><g class="cls-4"><path class="cls-1" d="M4.2,142.09S4,176.9,1.67,188.56s-6,21.68-24.1,27.62c0,0,.05.37.58.37H34.32c.52,0,.57-.37.57-.37-18-5.94-21.78-16-24.1-27.62s-2.52-46.47-2.52-46.47Z"/><path class="cls-1" d="M4.2,142.09S4,176.9,1.67,188.56s-6,21.68-24.1,27.62c0,0,.05.37.58.37H34.32c.52,0,.57-.37.57-.37-18-5.94-21.78-16-24.1-27.62s-2.52-46.47-2.52-46.47Z"/><path class="cls-5" d="M4.2,142.09S4,176.9,1.67,188.56s-6,21.68-24.1,27.62c0,0,.05.37.58.37H34.32c.52,0,.57-.37.57-.37-18-5.94-21.78-16-24.1-27.62s-2.52-46.47-2.52-46.47Z"/><path class="cls-1" d="M-36.12,90.32a.93.93,0,0,1,.93-.93H47.65a.94.94,0,0,1,.94.93v51.35a.93.93,0,0,1-.94.92H-35.19a.93.93,0,0,1-.93-.92Z"/><path class="cls-1" d="M-36.12,90.32a.93.93,0,0,1,.93-.93H47.65a.94.94,0,0,1,.94.93v51.35a.93.93,0,0,1-.94.92H-35.19a.93.93,0,0,1-.93-.92Z"/><path class="cls-1" d="M-36.12,90.32a.93.93,0,0,1,.93-.93H47.65a.94.94,0,0,1,.94.93v51.35a.93.93,0,0,1-.94.92H-35.19a.93.93,0,0,1-.93-.92Z"/><path class="cls-1" d="M-36.12,90.32a.93.93,0,0,1,.93-.93H47.65a.94.94,0,0,1,.94.93v51.35a.93.93,0,0,1-.94.92H-35.19a.93.93,0,0,1-.93-.92Z"/><path class="cls-1" d="M-36.12,90.32a.93.93,0,0,1,.93-.93H47.65a.94.94,0,0,1,.94.93v51.35a.93.93,0,0,1-.94.92H-35.19a.93.93,0,0,1-.93-.92Z"/><path class="cls-1" d="M-36.12,90.32a.93.93,0,0,1,.93-.93H47.65a.94.94,0,0,1,.94.93v51.35a.93.93,0,0,1-.94.92H-35.19a.93.93,0,0,1-.93-.92Z"/><path class="cls-5" d="M-36.12,90.32a.93.93,0,0,1,.93-.93H47.65a.94.94,0,0,1,.94.93v51.35a.93.93,0,0,1-.94.92H-35.19a.93.93,0,0,1-.93-.92Z"/><rect class="cls-1" x="130.97" y="215.88" width="70.74" height="1.13"/><rect class="cls-1" x="130.97" y="215.88" width="70.74" height="1.13"/><rect class="cls-5" x="130.97" y="215.88" width="70.74" height="1.13"/><path class="cls-1" d="M163.37,117.4s-.29,46.27-3.36,61.79-8,28.81-32,36.72c0,0,.07.48.77.48h74.68c.69,0,.76-.48.76-.48-24-7.91-29-21.22-32-36.72s-3.36-61.79-3.36-61.79Z"/><path class="cls-1" d="M163.37,117.4s-.29,46.27-3.36,61.79-8,28.81-32,36.72c0,0,.07.48.77.48h74.68c.69,0,.76-.48.76-.48-24-7.91-29-21.22-32-36.72s-3.36-61.79-3.36-61.79Z"/><path class="cls-5" d="M163.37,118.06s-.29,45.61-3.36,61.13-8,28.81-32,36.72c0,0,.07.48.77.48h74.68c.69,0,.76-.48.76-.48-24-7.91-29-21.22-32-36.72s-3.36-61.13-3.36-61.13Z"/><path class="cls-1" d="M109.76,48.56A1.24,1.24,0,0,1,111,47.33H221.15a1.23,1.23,0,0,1,1.24,1.23v68.27a1.23,1.23,0,0,1-1.24,1.23H111a1.24,1.24,0,0,1-1.24-1.23Z"/><path class="cls-1" d="M109.76,48.56A1.24,1.24,0,0,1,111,47.33H221.15a1.23,1.23,0,0,1,1.24,1.23v68.27a1.23,1.23,0,0,1-1.24,1.23H111a1.24,1.24,0,0,1-1.24-1.23Z"/><path class="cls-1" d="M109.76,48.56A1.24,1.24,0,0,1,111,47.33H221.15a1.23,1.23,0,0,1,1.24,1.23v68.27a1.23,1.23,0,0,1-1.24,1.23H111a1.24,1.24,0,0,1-1.24-1.23Z"/><path class="cls-1" d="M109.76,48.56A1.24,1.24,0,0,1,111,47.33H221.15a1.23,1.23,0,0,1,1.24,1.23v68.27a1.23,1.23,0,0,1-1.24,1.23H111a1.24,1.24,0,0,1-1.24-1.23Z"/><path class="cls-1" d="M109.76,48.56A1.24,1.24,0,0,1,111,47.33H221.15a1.23,1.23,0,0,1,1.24,1.23v68.27a1.23,1.23,0,0,1-1.24,1.23H111a1.24,1.24,0,0,1-1.24-1.23Z"/><path class="cls-1" d="M109.76,48.56A1.24,1.24,0,0,1,111,47.33H221.15a1.23,1.23,0,0,1,1.24,1.23v68.27a1.23,1.23,0,0,1-1.24,1.23H111a1.24,1.24,0,0,1-1.24-1.23Z"/><path class="cls-5" d="M109.76,48.56A1.24,1.24,0,0,1,111,47.33H221.15a1.23,1.23,0,0,1,1.24,1.23v68.27a1.23,1.23,0,0,1-1.24,1.23H111a1.24,1.24,0,0,1-1.24-1.23Z"/></g></svg>