<svg id="Spun_Light_T1" data-name="Spun Light_T1" xmlns="http://www.w3.org/2000/svg" xmlns:xlink="http://www.w3.org/1999/xlink" viewBox="0 0 300 263"><defs><style>.cls-1,.cls-2,.cls-5{fill:none;}.cls-2{stroke:#000;}.cls-2,.cls-5{stroke-width:0.5px;}.cls-3{isolation:isolate;}.cls-4{clip-path:url(#clip-path);}.cls-5{stroke:#1d1d1b;stroke-miterlimit:3.86;}</style><clipPath id="clip-path"><rect class="cls-1" x="91.56" y="21.86" width="116.88" height="199.5"/></clipPath></defs><title>spun-light-table-1-wrong-flos-F6610030-spech-tech-02-300x263</title><line class="cls-2" x1="94.26" y1="63.89" x2="190.3" y2="63.89"/><line class="cls-2" x1="94.26" y1="62.57" x2="94.26" y2="65.2"/><line class="cls-2" x1="190.3" y1="62.57" x2="190.3" y2="65.2"/><line class="cls-2" x1="78.6" y1="217.27" x2="78.6" y2="74.03"/><line class="cls-2" x1="76.9" y1="217.27" x2="80.3" y2="217.27"/><line class="cls-2" x1="76.9" y1="74.03" x2="80.3" y2="74.03"/><line class="cls-2" x1="109.01" y1="228.4" x2="175.55" y2="228.4"/><line class="cls-2" x1="109.01" y1="227.66" x2="109.01" y2="229.14"/><line class="cls-2" x1="175.55" y1="227.66" x2="175.55" y2="229.14"/><g class="cls-3"><path d="M113.37,241a3.86,3.86,0,0,1,.7,1.16,4.06,4.06,0,0,1,.26,1.45,3.89,3.89,0,0,1-1.16,2.82,4,4,0,0,1-1.31.82,4.75,4.75,0,0,1-3.12.07,4,4,0,0,1-1.16-.61l-1.11,1.09-.53-.49,1.1-1.09a3.64,3.64,0,0,1-.72-1.18,4.17,4.17,0,0,1-.25-1.43,3.86,3.86,0,0,1,.31-1.57,3.73,3.73,0,0,1,.86-1.25,3.94,3.94,0,0,1,1.3-.82,4.4,4.4,0,0,1,1.65-.3,4.84,4.84,0,0,1,1.45.22,3.85,3.85,0,0,1,1.19.62l1.1-1.09.53.49Zm-1.3.26a2.81,2.81,0,0,0-1.88-.63,3,3,0,0,0-1.22.24,2.56,2.56,0,0,0-.91.63,2.75,2.75,0,0,0-.58.94,3.24,3.24,0,0,0-.21,1.17,2.92,2.92,0,0,0,.56,1.82ZM108.33,246a3,3,0,0,0,.83.45,3.37,3.37,0,0,0,1,.16,3,3,0,0,0,1.22-.24,2.73,2.73,0,0,0,.93-.63,2.83,2.83,0,0,0,.59-.94,3.42,3.42,0,0,0,.2-1.17,3.07,3.07,0,0,0-.56-1.82Z"/><path d="M128,247.32h-7.48V246l4.69-4.6.53-.54a4.78,4.78,0,0,0,.48-.61,3.28,3.28,0,0,0,.35-.67,2,2,0,0,0,.13-.74,2.05,2.05,0,0,0-.17-.83,1.85,1.85,0,0,0-.49-.62,2.33,2.33,0,0,0-.73-.39,2.84,2.84,0,0,0-.88-.14,2.45,2.45,0,0,0-1.53.48,2.16,2.16,0,0,0-.82,1.3l-1.26-.13a3.21,3.21,0,0,1,1.2-2,3.75,3.75,0,0,1,2.32-.72,5,5,0,0,1,1.36.19,3.4,3.4,0,0,1,1.13.55,2.9,2.9,0,0,1,.78.92,2.79,2.79,0,0,1,.29,1.29,3.29,3.29,0,0,1-.21,1.2,5,5,0,0,1-.54,1,5.92,5.92,0,0,1-.76.91c-.28.29-.57.58-.87.85l-3.7,3.54H128Z"/><path d="M132.17,240.86l0,0a2.16,2.16,0,0,1,.76-.29,4.76,4.76,0,0,1,.87-.09,3.9,3.9,0,0,1,1.42.26,3.41,3.41,0,0,1,1.9,1.83,3.62,3.62,0,0,1,.27,1.41,3.48,3.48,0,0,1-.28,1.43,3.35,3.35,0,0,1-.8,1.1,3.67,3.67,0,0,1-1.21.72,4.63,4.63,0,0,1-3.06,0,3.67,3.67,0,0,1-1.21-.72,3.21,3.21,0,0,1-.8-1.1,3.48,3.48,0,0,1-.28-1.43,4.38,4.38,0,0,1,.29-1.65,8.76,8.76,0,0,1,.72-1.39l3.17-5h1.42ZM131,244a2.43,2.43,0,0,0,.2,1,2.11,2.11,0,0,0,.54.78,2.17,2.17,0,0,0,.83.5,3.21,3.21,0,0,0,2.12,0,2.25,2.25,0,0,0,.83-.5A2.11,2.11,0,0,0,136,245a2.43,2.43,0,0,0,.19-1,2.46,2.46,0,0,0-.19-1,2.07,2.07,0,0,0-.54-.77,2.56,2.56,0,0,0-.83-.5,3.05,3.05,0,0,0-2.12,0,2.45,2.45,0,0,0-.83.5,2.07,2.07,0,0,0-.54.77A2.47,2.47,0,0,0,131,244Z"/><path d="M145.94,237.05h-4.8l-.08,3.41a3.46,3.46,0,0,1,.78-.21,5.29,5.29,0,0,1,.8-.06,4.1,4.1,0,0,1,1.51.27,3.4,3.4,0,0,1,1.93,1.91,3.67,3.67,0,0,1,.28,1.45,3.72,3.72,0,0,1-.3,1.5,3.47,3.47,0,0,1-.83,1.16,3.73,3.73,0,0,1-1.26.76,4.21,4.21,0,0,1-1.57.28,3.91,3.91,0,0,1-2-.52,3.47,3.47,0,0,1-1.38-1.5l1.2-.5a2.62,2.62,0,0,0,.93,1.07,2.44,2.44,0,0,0,1.37.39,2.8,2.8,0,0,0,1.05-.2,2.59,2.59,0,0,0,.83-.54,2.27,2.27,0,0,0,.56-.8,2.34,2.34,0,0,0,.21-1,2.79,2.79,0,0,0-.21-1.09,2.73,2.73,0,0,0-.6-.85,2.51,2.51,0,0,0-.92-.55,3.32,3.32,0,0,0-1.16-.2,4.83,4.83,0,0,0-1.25.17,6.11,6.11,0,0,0-1.19.46l.11-5.87h6Z"/><path d="M153.27,241.5c0-.28,0-.55,0-.83s0-.56-.06-.83h1.18V241h0a2.52,2.52,0,0,1,1.1-1,3.32,3.32,0,0,1,1.41-.34,4.13,4.13,0,0,1,.67.07,2.44,2.44,0,0,1,.69.23,2.26,2.26,0,0,1,.62.47,2.66,2.66,0,0,1,.49.79,2.48,2.48,0,0,1,1.06-1.14,3.28,3.28,0,0,1,3.71.34,3.08,3.08,0,0,1,.71,2.17v4.75h-1.09V243a3.08,3.08,0,0,0-.42-1.75,1.74,1.74,0,0,0-1.54-.61,2,2,0,0,0-1.71.85,2.82,2.82,0,0,0-.37.87,4.31,4.31,0,0,0-.12,1v4h-1.09V243a3.08,3.08,0,0,0-.42-1.75,1.74,1.74,0,0,0-1.54-.61c-.07,0-.22,0-.46.07a1.77,1.77,0,0,0-.74.35,2.71,2.71,0,0,0-.69.86,3.52,3.52,0,0,0-.31,1.6v3.84h-1.09Z"/><path d="M167.42,241.5c0-.28,0-.55,0-.83l-.06-.83h1.18V241h0a2.54,2.54,0,0,1,1.11-1,3.27,3.27,0,0,1,1.4-.34,4.13,4.13,0,0,1,.67.07,2.44,2.44,0,0,1,.69.23,2.26,2.26,0,0,1,.62.47,2.67,2.67,0,0,1,.5.79,2.51,2.51,0,0,1,1.05-1.14,3.28,3.28,0,0,1,3.71.34,3,3,0,0,1,.72,2.17v4.75h-1.1V243a3.08,3.08,0,0,0-.42-1.75,1.74,1.74,0,0,0-1.54-.61,2,2,0,0,0-1,.24,1.88,1.88,0,0,0-.67.61,2.84,2.84,0,0,0-.38.87,4.9,4.9,0,0,0-.11,1v4h-1.1V243a3.17,3.17,0,0,0-.41-1.75,1.78,1.78,0,0,0-1.55-.61c-.07,0-.22,0-.46.07a1.83,1.83,0,0,0-.74.35,2.56,2.56,0,0,0-.68.86,3.4,3.4,0,0,0-.31,1.6v3.84h-1.1Z"/></g><g class="cls-3"><path d="M115.52,49.15a3.67,3.67,0,0,1,.7,1.16,4,4,0,0,1,.26,1.45,3.89,3.89,0,0,1-.31,1.57,3.7,3.7,0,0,1-.85,1.24,3.85,3.85,0,0,1-1.31.83,4.68,4.68,0,0,1-1.67.29,4.46,4.46,0,0,1-1.45-.22,3.82,3.82,0,0,1-1.15-.61L108.62,56l-.53-.5,1.1-1.08a3.86,3.86,0,0,1-.72-1.18,4.17,4.17,0,0,1-.25-1.43,4,4,0,0,1,.31-1.57,3.77,3.77,0,0,1,.86-1.25,3.94,3.94,0,0,1,1.3-.82,4.44,4.44,0,0,1,1.65-.3,4.5,4.5,0,0,1,1.45.22,4.24,4.24,0,0,1,1.2.61l1.09-1.08.53.49Zm-1.3.26a2.81,2.81,0,0,0-1.88-.63,3.16,3.16,0,0,0-1.22.23,2.72,2.72,0,0,0-.91.64,2.81,2.81,0,0,0-.58.94,3.2,3.2,0,0,0-.21,1.17,2.94,2.94,0,0,0,.56,1.82Zm-3.74,4.72a2.75,2.75,0,0,0,.83.44,3.09,3.09,0,0,0,1,.16,2.92,2.92,0,0,0,1.22-.23,2.73,2.73,0,0,0,.93-.63,2.94,2.94,0,0,0,.59-.94,3.51,3.51,0,0,0,.2-1.17,3,3,0,0,0-.56-1.83Z"/><path d="M125.28,49h.62a4.62,4.62,0,0,0,1-.11,2.55,2.55,0,0,0,.82-.36,2,2,0,0,0,.56-.65,2.19,2.19,0,0,0,.2-1,1.8,1.8,0,0,0-.57-1.42,2.38,2.38,0,0,0-1.6-.5,2.52,2.52,0,0,0-1.31.32,2.44,2.44,0,0,0-.93.93l-1-.52a3.5,3.5,0,0,1,1.35-1.35,4,4,0,0,1,1.9-.44,4.68,4.68,0,0,1,1.32.19,3.28,3.28,0,0,1,1.08.57,2.71,2.71,0,0,1,1,2.19,2.37,2.37,0,0,1-.16.88,2.81,2.81,0,0,1-.43.75,3,3,0,0,1-.64.58,3,3,0,0,1-.76.38l0,0a2.48,2.48,0,0,1,.91.36,2.75,2.75,0,0,1,.71.65,2.87,2.87,0,0,1,.47.86,3.25,3.25,0,0,1-.13,2.4,3,3,0,0,1-.82,1,3.86,3.86,0,0,1-1.19.63,4.94,4.94,0,0,1-1.45.21,4.55,4.55,0,0,1-2.26-.54,3.32,3.32,0,0,1-1.44-1.74l1.26-.37a2.4,2.4,0,0,0,.89,1.21,3,3,0,0,0,1.65.39,3,3,0,0,0,1-.16,2.49,2.49,0,0,0,.79-.46,2.2,2.2,0,0,0,.53-.71,2.37,2.37,0,0,0-.06-2,2.05,2.05,0,0,0-.66-.71,2.75,2.75,0,0,0-1-.4,5.13,5.13,0,0,0-1.12-.12h-.52Z"/><path d="M137.18,50.64l0,0a2.16,2.16,0,0,1-.76.28,4.08,4.08,0,0,1-.87.1,3.9,3.9,0,0,1-1.42-.26A3.54,3.54,0,0,1,133,50a3.48,3.48,0,0,1-.76-1.11,3.53,3.53,0,0,1-.27-1.4,3.48,3.48,0,0,1,.28-1.43A3.35,3.35,0,0,1,133,45a3.67,3.67,0,0,1,1.21-.72,4.63,4.63,0,0,1,3.06,0,3.67,3.67,0,0,1,1.21.72,3.35,3.35,0,0,1,.8,1.1,3.48,3.48,0,0,1,.28,1.43,4.29,4.29,0,0,1-.29,1.64,8.85,8.85,0,0,1-.72,1.4l-3.17,5H134Zm1.2-3.15a2.48,2.48,0,0,0-.2-1,2,2,0,0,0-.54-.76,2.41,2.41,0,0,0-.83-.51,3.21,3.21,0,0,0-2.12,0,2.41,2.41,0,0,0-.83.51,2,2,0,0,0-.54.76,2.7,2.7,0,0,0,0,2,2,2,0,0,0,.54.77,2.41,2.41,0,0,0,.83.51,3.39,3.39,0,0,0,2.12,0,2.41,2.41,0,0,0,.83-.51,2,2,0,0,0,.54-.77A2.47,2.47,0,0,0,138.38,47.49Z"/><path d="M145,44a3.44,3.44,0,0,1,2,.56A3.9,3.9,0,0,1,148.24,46a6,6,0,0,1,.58,1.89,13.82,13.82,0,0,1,.15,2,13.58,13.58,0,0,1-.15,2,6.19,6.19,0,0,1-.58,1.9A3.79,3.79,0,0,1,147,55.13a4,4,0,0,1-4.09,0,3.79,3.79,0,0,1-1.21-1.42,6.19,6.19,0,0,1-.58-1.9,13.58,13.58,0,0,1-.15-2,13.82,13.82,0,0,1,.15-2,6,6,0,0,1,.58-1.89,3.9,3.9,0,0,1,1.21-1.43A3.48,3.48,0,0,1,145,44ZM145,45a2.19,2.19,0,0,0-1.52.49,3.18,3.18,0,0,0-.84,1.24,5.73,5.73,0,0,0-.36,1.56c-.05.56-.07,1.06-.07,1.51s0,.95.07,1.5a5.71,5.71,0,0,0,.36,1.57,3.14,3.14,0,0,0,.84,1.23,2.56,2.56,0,0,0,3,0,3.14,3.14,0,0,0,.84-1.23,6.09,6.09,0,0,0,.35-1.57c.05-.55.08-1.05.08-1.5s0-1-.08-1.51a6.11,6.11,0,0,0-.35-1.56,3.18,3.18,0,0,0-.84-1.24A2.21,2.21,0,0,0,145,45Z"/><path d="M155.42,49.68c0-.28,0-.56,0-.83s0-.56,0-.84h1.18v1.14h0a2.46,2.46,0,0,1,1.1-1,3.18,3.18,0,0,1,1.41-.34,3.25,3.25,0,0,1,.67.07,2.44,2.44,0,0,1,.69.23,2.26,2.26,0,0,1,.62.47,2.31,2.31,0,0,1,.49.78,2.51,2.51,0,0,1,1.06-1.13,3.28,3.28,0,0,1,3.71.34,3,3,0,0,1,.71,2.17V55.5h-1.09V51.13a3.06,3.06,0,0,0-.42-1.74,1.72,1.72,0,0,0-1.54-.61,2.15,2.15,0,0,0-1,.23,2,2,0,0,0-.68.62,2.82,2.82,0,0,0-.37.87,4.31,4.31,0,0,0-.11,1v4h-1.1V51.13a3.06,3.06,0,0,0-.42-1.74,1.72,1.72,0,0,0-1.54-.61,2.79,2.79,0,0,0-.46.07,1.77,1.77,0,0,0-.74.35,2.71,2.71,0,0,0-.69.86,3.53,3.53,0,0,0-.3,1.6V55.5h-1.1Z"/><path d="M169.57,49.68c0-.28,0-.56,0-.83l-.06-.84h1.18v1.14h0a2.54,2.54,0,0,1,1.11-1,3.11,3.11,0,0,1,2.07-.27,2.38,2.38,0,0,1,1.32.7,2.67,2.67,0,0,1,.49.78,2.49,2.49,0,0,1,1.05-1.13,3.28,3.28,0,0,1,3.71.34,3,3,0,0,1,.72,2.17V55.5h-1.1V51.13a3.15,3.15,0,0,0-.41-1.74,1.75,1.75,0,0,0-1.55-.61,2.15,2.15,0,0,0-1,.23,1.9,1.9,0,0,0-.67.62,2.6,2.6,0,0,0-.37.87,4.31,4.31,0,0,0-.12,1v4h-1.1V51.13a3.15,3.15,0,0,0-.41-1.74,1.74,1.74,0,0,0-1.55-.61,2.73,2.73,0,0,0-.45.07,1.72,1.72,0,0,0-.74.35,2.46,2.46,0,0,0-.69.86,3.4,3.4,0,0,0-.31,1.6V55.5h-1.1Z"/></g><g class="cls-3"><path d="M58,155v4.63l3.41.08a4.21,4.21,0,0,1-.21-.75,5.09,5.09,0,0,1-.06-.77,3.8,3.8,0,0,1,.27-1.46,3.26,3.26,0,0,1,.76-1.13,3.52,3.52,0,0,1,1.15-.73,4,4,0,0,1,2.95,0,3.39,3.39,0,0,1,1.16.8,3.6,3.6,0,0,1,.76,1.21,3.94,3.94,0,0,1,.28,1.51,3.66,3.66,0,0,1-.52,1.94,3.37,3.37,0,0,1-1.5,1.33l-.5-1.16A2.61,2.61,0,0,0,67,159.6a2.28,2.28,0,0,0,.39-1.32,2.57,2.57,0,0,0-.73-1.81,2.5,2.5,0,0,0-.81-.54,2.34,2.34,0,0,0-1-.2,2.82,2.82,0,0,0-1.09.2,2.52,2.52,0,0,0-.85.58,2.43,2.43,0,0,0-.55.88,3.14,3.14,0,0,0-.2,1.12,4.53,4.53,0,0,0,.17,1.21,5.67,5.67,0,0,0,.46,1.14l-5.87-.11V155Z"/><path d="M58,145.93l10.27,4.56v1.3L58,147.13v5.52h-1v-6.72Z"/><path d="M58,137.18v4.63l3.41.08a4.08,4.08,0,0,1-.21-.76,4.87,4.87,0,0,1-.06-.76,3.8,3.8,0,0,1,.27-1.46,3.26,3.26,0,0,1,.76-1.13,3.52,3.52,0,0,1,1.15-.73,4,4,0,0,1,2.95,0,3.39,3.39,0,0,1,1.16.8,3.51,3.51,0,0,1,.76,1.21,3.94,3.94,0,0,1,.28,1.51,3.69,3.69,0,0,1-.52,1.94,3.35,3.35,0,0,1-1.5,1.32l-.5-1.15a2.61,2.61,0,0,0,1.07-.89,2.28,2.28,0,0,0,.39-1.32,2.56,2.56,0,0,0-.2-1,2.48,2.48,0,0,0-.53-.8,2.7,2.7,0,0,0-.81-.55,2.5,2.5,0,0,0-1-.2,2.82,2.82,0,0,0-1.09.21,2.52,2.52,0,0,0-.85.58,2.35,2.35,0,0,0-.55.88,3.1,3.1,0,0,0-.2,1.12,4.59,4.59,0,0,0,.17,1.21,5.67,5.67,0,0,0,.46,1.14L56.92,143v-5.78Z"/><path d="M62.42,130.13c-.28,0-.55,0-.83,0l-.83.06v-1.14h1.13v0a2.5,2.5,0,0,1-1-1.07,3.07,3.07,0,0,1-.34-1.35,3.9,3.9,0,0,1,.07-.65,2.23,2.23,0,0,1,.7-1.26,2.63,2.63,0,0,1,.79-.47,2.5,2.5,0,0,1-1.14-1,3.06,3.06,0,0,1,.34-3.57,3.12,3.12,0,0,1,2.17-.69h4.75V120H63.88a3.26,3.26,0,0,0-1.75.4,1.68,1.68,0,0,0-.61,1.49,1.86,1.86,0,0,0,.24,1,1.81,1.81,0,0,0,.61.65,2.58,2.58,0,0,0,.87.36,4.31,4.31,0,0,0,1,.11h4v1.06H63.88a3.17,3.17,0,0,0-1.75.4,1.67,1.67,0,0,0-.61,1.49c0,.06,0,.21.07.44a1.62,1.62,0,0,0,.35.71,2.42,2.42,0,0,0,.86.66,3.53,3.53,0,0,0,1.6.3h3.84v1.06Z"/><path d="M62.42,116.49c-.28,0-.55,0-.83,0l-.83,0v-1.13h1.13v0a2.5,2.5,0,0,1-1-1.07,3.07,3.07,0,0,1-.34-1.35,3.9,3.9,0,0,1,.07-.65,2.25,2.25,0,0,1,.23-.66,2.34,2.34,0,0,1,.47-.6,2.44,2.44,0,0,1,.79-.47,2.56,2.56,0,0,1-1.14-1,3.07,3.07,0,0,1,.34-3.58,3.17,3.17,0,0,1,2.17-.68h4.75v1H63.88a3.26,3.26,0,0,0-1.75.4,1.68,1.68,0,0,0-.61,1.49,1.86,1.86,0,0,0,.24,1,1.81,1.81,0,0,0,.61.65,2.58,2.58,0,0,0,.87.36,4.31,4.31,0,0,0,1,.11h4v1.06H63.88a3.17,3.17,0,0,0-1.75.4,1.67,1.67,0,0,0-.61,1.49c0,.06,0,.21.07.44a1.67,1.67,0,0,0,.35.71,2.53,2.53,0,0,0,.86.66,3.53,3.53,0,0,0,1.6.3h3.84v1Z"/></g><g class="cls-4"><path class="cls-1" d="M139.18,132.78s-.25,39.2-2.85,52.34-6.82,24.41-27.14,31.1c0,0,.06.41.65.41h63.25c.59,0,.65-.41.65-.41-20.32-6.69-24.53-18-27.14-31.1s-2.85-52.34-2.85-52.34Z"/><path class="cls-1" d="M139.18,132.78s-.25,39.2-2.85,52.34-6.82,24.41-27.14,31.1c0,0,.06.41.65.41h63.25c.59,0,.65-.41.65-.41-20.32-6.69-24.53-18-27.14-31.1s-2.85-52.34-2.85-52.34Z"/><path class="cls-5" d="M139.17,133.35s-.24,38.63-2.84,51.77-6.82,24.41-27.14,31.1c0,0,.06.41.65.41h63.25c.59,0,.65-.41.65-.41-20.32-6.69-24.53-18-27.14-31.1s-2.84-51.77-2.84-51.77Z"/><rect class="cls-1" x="93.77" y="73.44" width="95.39" height="59.91" rx="1.05" ry="1.05"/><rect class="cls-1" x="93.77" y="73.44" width="95.39" height="59.91" rx="1.05" ry="1.05"/><rect class="cls-1" x="93.77" y="73.44" width="95.39" height="59.91" rx="1.05" ry="1.05"/><rect class="cls-1" x="93.77" y="73.44" width="95.39" height="59.91" rx="1.05" ry="1.05"/><rect class="cls-1" x="93.77" y="73.44" width="95.39" height="59.91" rx="1.05" ry="1.05"/><rect class="cls-1" x="93.77" y="73.44" width="95.39" height="59.91" rx="1.05" ry="1.05"/><rect class="cls-5" x="93.77" y="73.44" width="95.39" height="59.91" rx="1.05" ry="1.05"/><rect class="cls-1" x="281.93" y="215.88" width="79.67" height="1.27"/><rect class="cls-1" x="281.93" y="215.88" width="79.67" height="1.27"/><rect class="cls-5" x="281.93" y="215.88" width="79.67" height="1.27"/><path class="cls-1" d="M318.43,105s-.33,52.12-3.79,69.59-9.06,32.45-36.08,41.35c0,0,.08.55.86.55h84.11c.78,0,.86-.55.86-.55-27-8.9-32.62-23.89-36.08-41.35S324.52,105,324.52,105Z"/><path class="cls-1" d="M318.43,105s-.33,52.12-3.79,69.59-9.06,32.45-36.08,41.35c0,0,.08.55.86.55h84.11c.78,0,.86-.55.86-.55-27-8.9-32.62-23.89-36.08-41.35S324.52,105,324.52,105Z"/><path class="cls-5" d="M318.43,105s-.33,52.12-3.79,69.59-9.06,32.45-36.08,41.35c0,0,.08.55.86.55h84.11c.78,0,.86-.55.86-.55-27-8.9-32.62-23.89-36.08-41.35S324.52,105,324.52,105Z"/><path class="cls-1" d="M258.05,27.46a1.4,1.4,0,0,1,1.4-1.39H383.5a1.4,1.4,0,0,1,1.4,1.39v76.87a1.4,1.4,0,0,1-1.4,1.4h-124a1.4,1.4,0,0,1-1.4-1.4Z"/><path class="cls-1" d="M258.05,27.46a1.4,1.4,0,0,1,1.4-1.39H383.5a1.4,1.4,0,0,1,1.4,1.39v76.87a1.4,1.4,0,0,1-1.4,1.4h-124a1.4,1.4,0,0,1-1.4-1.4Z"/><path class="cls-1" d="M258.05,27.46a1.4,1.4,0,0,1,1.4-1.39H383.5a1.4,1.4,0,0,1,1.4,1.39v76.87a1.4,1.4,0,0,1-1.4,1.4h-124a1.4,1.4,0,0,1-1.4-1.4Z"/><path class="cls-1" d="M258.05,27.46a1.4,1.4,0,0,1,1.4-1.39H383.5a1.4,1.4,0,0,1,1.4,1.39v76.87a1.4,1.4,0,0,1-1.4,1.4h-124a1.4,1.4,0,0,1-1.4-1.4Z"/><path class="cls-1" d="M258.05,27.46a1.4,1.4,0,0,1,1.4-1.39H383.5a1.4,1.4,0,0,1,1.4,1.39v76.87a1.4,1.4,0,0,1-1.4,1.4h-124a1.4,1.4,0,0,1-1.4-1.4Z"/><path class="cls-1" d="M258.05,27.46a1.4,1.4,0,0,1,1.4-1.39H383.5a1.4,1.4,0,0,1,1.4,1.39v76.87a1.4,1.4,0,0,1-1.4,1.4h-124a1.4,1.4,0,0,1-1.4-1.4Z"/><path class="cls-5" d="M258.05,27.46a1.4,1.4,0,0,1,1.4-1.39H383.5a1.4,1.4,0,0,1,1.4,1.39v76.87a1.4,1.4,0,0,1-1.4,1.4h-124a1.4,1.4,0,0,1-1.4-1.4Z"/></g></svg>