<svg id="string_light_cono_22mt" data-name="string light cono 22mt" xmlns="http://www.w3.org/2000/svg" xmlns:xlink="http://www.w3.org/1999/xlink" viewBox="0 0 300 263"><defs><style>.cls-1,.cls-3,.cls-5{fill:none;}.cls-2{isolation:isolate;}.cls-3{stroke:#000;}.cls-3,.cls-5{stroke-width:0.5px;}.cls-4{clip-path:url(#clip-path);}.cls-5{stroke:#1d1d1b;stroke-linecap:round;stroke-linejoin:round;}</style><clipPath id="clip-path"><rect id="SVGID" class="cls-1" x="112.65" y="46.44" width="74.46" height="170.8"/></clipPath></defs><title>string-light-suspension-cone-22mt-anastassiades-flos-F6491030-spech-tech-02-300x263</title><g class="cls-2"><path d="M124.18,239.29a3.9,3.9,0,0,1,.68,1.16,4.18,4.18,0,0,1,.24,1.44,4,4,0,0,1-.29,1.57,3.73,3.73,0,0,1-2.08,2.07,4.2,4.2,0,0,1-1.61.3,4.42,4.42,0,0,1-1.4-.22,4,4,0,0,1-1.11-.61l-1.07,1.09-.52-.5,1.06-1.09a3.62,3.62,0,0,1-.69-1.17,4.23,4.23,0,0,1-.24-1.44,4,4,0,0,1,.3-1.56,3.71,3.71,0,0,1,2.08-2.08,4.29,4.29,0,0,1,1.59-.29,4.4,4.4,0,0,1,1.39.21,3.86,3.86,0,0,1,1.15.62l1.06-1.09.51.5Zm-1.25.25a2.69,2.69,0,0,0-1.81-.62,3,3,0,0,0-1.18.23,2.67,2.67,0,0,0-.88.63,3,3,0,0,0-.56.95,3.41,3.41,0,0,0-.2,1.16,3,3,0,0,0,.55,1.83Zm-3.6,4.72a2.72,2.72,0,0,0,.8.45,2.86,2.86,0,0,0,1,.16,3,3,0,0,0,1.18-.23,2.82,2.82,0,0,0,.88-.63,2.77,2.77,0,0,0,.57-.95,3.2,3.2,0,0,0,.2-1.17,3.13,3.13,0,0,0-.54-1.82Z"/><path d="M135.89,245.64h-1.15v-9.89l-2,1.79-.72-.86,2.88-2.37h1Z"/><path d="M145,240.77l0,0a1.89,1.89,0,0,1-.73.29,4.35,4.35,0,0,1-.84.1,3.45,3.45,0,0,1-1.37-.27,3.26,3.26,0,0,1-1.09-.73,3.21,3.21,0,0,1-.73-1.1,3.62,3.62,0,0,1-.27-1.41,3.43,3.43,0,0,1,.28-1.42,3.18,3.18,0,0,1,.76-1.11,3.49,3.49,0,0,1,1.17-.72,4.48,4.48,0,0,1,2.95,0,3.54,3.54,0,0,1,1.16.72,3.21,3.21,0,0,1,.77,1.11,3.59,3.59,0,0,1,.27,1.42,4.39,4.39,0,0,1-.28,1.65,8.55,8.55,0,0,1-.69,1.39l-3.06,5H142Zm1.15-3.15a2.64,2.64,0,0,0-.18-1,2.28,2.28,0,0,0-.52-.77,2.52,2.52,0,0,0-.8-.5,2.86,2.86,0,0,0-2.05,0,2.41,2.41,0,0,0-.8.5,2.28,2.28,0,0,0-.52.77,2.64,2.64,0,0,0-.18,1,2.61,2.61,0,0,0,.18,1,2.32,2.32,0,0,0,.52.78,2.13,2.13,0,0,0,.8.5,3,3,0,0,0,2.05,0,2.21,2.21,0,0,0,.8-.5,2.32,2.32,0,0,0,.52-.78A2.61,2.61,0,0,0,146.19,237.62Z"/><path d="M152.56,234.12a3.17,3.17,0,0,1,2,.56,3.86,3.86,0,0,1,1.17,1.42,6.77,6.77,0,0,1,.56,1.9,14,14,0,0,1,0,3.95,6.77,6.77,0,0,1-.56,1.9,3.86,3.86,0,0,1-1.17,1.42,3.75,3.75,0,0,1-3.94,0,3.86,3.86,0,0,1-1.17-1.42,6.77,6.77,0,0,1-.56-1.9,14,14,0,0,1,0-3.95,6.77,6.77,0,0,1,.56-1.9,3.86,3.86,0,0,1,1.17-1.42A3.17,3.17,0,0,1,152.56,234.12Zm0,1a2.05,2.05,0,0,0-1.46.5,3.08,3.08,0,0,0-.81,1.23,6.19,6.19,0,0,0-.35,1.57c0,.55-.07,1.06-.07,1.5s0,.95.07,1.51a6.19,6.19,0,0,0,.35,1.57,3.08,3.08,0,0,0,.81,1.23,2.42,2.42,0,0,0,2.92,0,3.08,3.08,0,0,0,.81-1.23,6.19,6.19,0,0,0,.35-1.57c0-.56.07-1.06.07-1.51s0-.95-.07-1.5a6.19,6.19,0,0,0-.35-1.57,3.08,3.08,0,0,0-.81-1.23A2.05,2.05,0,0,0,152.56,235.17Z"/><path d="M158.16,239.81c0-.27,0-.55,0-.83l-.06-.83h1.14v1.14h0a2.5,2.5,0,0,1,1.06-1,3.12,3.12,0,0,1,1.35-.33,3.74,3.74,0,0,1,.65.06,2.42,2.42,0,0,1,.67.23,2.39,2.39,0,0,1,.6.48,2.65,2.65,0,0,1,.47.78,2.48,2.48,0,0,1,1-1.14,2.87,2.87,0,0,1,1.45-.41,2.73,2.73,0,0,1,2.13.76,3.11,3.11,0,0,1,.69,2.17v4.75h-1.06v-4.37a3.11,3.11,0,0,0-.4-1.74,1.63,1.63,0,0,0-1.49-.61,2,2,0,0,0-1,.23,1.92,1.92,0,0,0-.65.62,2.84,2.84,0,0,0-.36.87,4.74,4.74,0,0,0-.11,1v4h-1.05v-4.37a3.2,3.2,0,0,0-.4-1.74,1.65,1.65,0,0,0-1.49-.61l-.44.06a1.62,1.62,0,0,0-.71.35,2.6,2.6,0,0,0-.67.87,3.66,3.66,0,0,0-.29,1.6v3.84h-1.06Z"/><path d="M171.79,239.81c0-.27,0-.55,0-.83l-.06-.83h1.14v1.14h0a2.55,2.55,0,0,1,1.06-1,3.12,3.12,0,0,1,1.36-.33,3.72,3.72,0,0,1,.64.06,2.42,2.42,0,0,1,.67.23,2.39,2.39,0,0,1,.6.48,2.65,2.65,0,0,1,.47.78,2.45,2.45,0,0,1,1-1.14,2.81,2.81,0,0,1,1.44-.41,2.73,2.73,0,0,1,2.13.76,3.11,3.11,0,0,1,.69,2.17v4.75H181.9v-4.37a3.11,3.11,0,0,0-.4-1.74,1.62,1.62,0,0,0-1.48-.61,2,2,0,0,0-1,.23,1.81,1.81,0,0,0-.64.62,2.42,2.42,0,0,0-.36.87,4.17,4.17,0,0,0-.12,1v4h-1.05v-4.37a3.2,3.2,0,0,0-.4-1.74,1.64,1.64,0,0,0-1.49-.61l-.44.06a1.62,1.62,0,0,0-.71.35,2.6,2.6,0,0,0-.67.87,3.66,3.66,0,0,0-.29,1.6v3.84h-1.06Z"/></g><line class="cls-3" x1="112.65" y1="225.61" x2="187.11" y2="225.61"/><line class="cls-3" x1="112.65" y1="225.36" x2="112.65" y2="225.87"/><line class="cls-3" x1="187.11" y1="225.36" x2="187.11" y2="225.87"/><line class="cls-3" x1="112.65" y1="223.4" x2="112.65" y2="227.82"/><line class="cls-3" x1="187.11" y1="223.4" x2="187.11" y2="227.82"/><g class="cls-2"><path d="M92.06,197v1.15H82.17l1.79,2-.86.72L80.73,198v-1Z"/><path d="M85.6,190.55l0,0a2,2,0,0,1-.29-.73,4.54,4.54,0,0,1-.1-.84,3.45,3.45,0,0,1,.27-1.37,3.31,3.31,0,0,1,.73-1.1,3.09,3.09,0,0,1,1.1-.72,3.84,3.84,0,0,1,2.83,0,3.35,3.35,0,0,1,1.11.77A3.66,3.66,0,0,1,92,187.7a4.13,4.13,0,0,1,.25,1.47,4,4,0,0,1-.25,1.47,3.66,3.66,0,0,1-.72,1.17,3.21,3.21,0,0,1-1.11.77,3.59,3.59,0,0,1-1.42.27,4.39,4.39,0,0,1-1.65-.28,9.53,9.53,0,0,1-1.39-.7l-5-3.05v-1.36Zm3.15,1.15a2.64,2.64,0,0,0,1-.18,2.48,2.48,0,0,0,.78-.52,2.52,2.52,0,0,0,.5-.8,2.86,2.86,0,0,0,.18-1,2.8,2.8,0,0,0-.18-1,2.41,2.41,0,0,0-.5-.8,2.18,2.18,0,0,0-.78-.52,2.64,2.64,0,0,0-1-.19,2.57,2.57,0,0,0-1,.19,2.06,2.06,0,0,0-.77.52,2.44,2.44,0,0,0-.51.8,2.8,2.8,0,0,0-.18,1,2.86,2.86,0,0,0,.18,1,2.55,2.55,0,0,0,.51.8,2.33,2.33,0,0,0,.77.52A2.57,2.57,0,0,0,88.75,191.7Z"/><path d="M80.54,180.28a3.22,3.22,0,0,1,.56-2,3.86,3.86,0,0,1,1.42-1.17,6.45,6.45,0,0,1,1.9-.56,14,14,0,0,1,4,0,6.45,6.45,0,0,1,1.9.56,3.86,3.86,0,0,1,1.42,1.17,3.73,3.73,0,0,1,0,3.93,3.76,3.76,0,0,1-1.42,1.17,6.45,6.45,0,0,1-1.9.56,13.08,13.08,0,0,1-4,0,6.45,6.45,0,0,1-1.9-.56,3.76,3.76,0,0,1-1.42-1.17A3.21,3.21,0,0,1,80.54,180.28Zm1.06,0a2.08,2.08,0,0,0,.49,1.46,3.08,3.08,0,0,0,1.23.81,6.18,6.18,0,0,0,1.57.34c.56.05,1.06.07,1.51.07s.94,0,1.5-.07a6.18,6.18,0,0,0,1.57-.34,3.08,3.08,0,0,0,1.23-.81,2.4,2.4,0,0,0,0-2.93,3.3,3.3,0,0,0-1.23-.81,6.18,6.18,0,0,0-1.57-.34c-.56,0-1.06-.07-1.5-.07s-1,0-1.51.07a6.18,6.18,0,0,0-1.57.34,3.3,3.3,0,0,0-1.23.81A2.09,2.09,0,0,0,81.6,180.28Z"/><path d="M86.24,170.23l-.84,0-.83.06v-1.14h1.14v0a2.47,2.47,0,0,1-1-1.06,3,3,0,0,1-.34-1.36,3.63,3.63,0,0,1,.06-.64,2.31,2.31,0,0,1,.71-1.27,2.45,2.45,0,0,1,.78-.47,2.38,2.38,0,0,1-1.13-1,3.06,3.06,0,0,1,.34-3.57,3.12,3.12,0,0,1,2.17-.69h4.75v1.06H87.69a3.11,3.11,0,0,0-1.74.4,1.62,1.62,0,0,0-.61,1.48,2,2,0,0,0,.23,1,1.9,1.9,0,0,0,.62.64,2.42,2.42,0,0,0,.87.36,4.19,4.19,0,0,0,1,.12h4v1H87.69a3.11,3.11,0,0,0-1.74.4,1.64,1.64,0,0,0-.61,1.49,3.61,3.61,0,0,0,.06.44,1.65,1.65,0,0,0,.36.71,2.55,2.55,0,0,0,.86.67,3.66,3.66,0,0,0,1.6.29h3.84v1.06Z"/><path d="M86.24,156.6c-.28,0-.56,0-.84,0l-.83.06v-1.14h1.14v0a2.44,2.44,0,0,1-1-1.07,2.94,2.94,0,0,1-.34-1.35,3.83,3.83,0,0,1,.06-.65,2.28,2.28,0,0,1,.24-.66,2.34,2.34,0,0,1,.47-.6,2.45,2.45,0,0,1,.78-.47,2.43,2.43,0,0,1-1.13-1,2.74,2.74,0,0,1-.42-1.45,2.69,2.69,0,0,1,.76-2.12,3.12,3.12,0,0,1,2.17-.69h4.75v1H87.69a3.2,3.2,0,0,0-1.74.4,1.65,1.65,0,0,0-.61,1.49,2,2,0,0,0,.23,1,1.84,1.84,0,0,0,.62.65,2.42,2.42,0,0,0,.87.36,4.2,4.2,0,0,0,1,.11h4v1.06H87.69a3.11,3.11,0,0,0-1.74.4,1.64,1.64,0,0,0-.61,1.49,3.61,3.61,0,0,0,.06.44,1.71,1.71,0,0,0,.36.71,2.42,2.42,0,0,0,.86.66,3.51,3.51,0,0,0,1.6.3h3.84v1.06Z"/></g><line class="cls-3" x1="101.95" y1="217.24" x2="101.95" y2="142.92"/><line class="cls-3" x1="100.11" y1="142.9" x2="103.65" y2="142.9"/><line class="cls-3" x1="99.42" y1="217.24" x2="104.48" y2="217.24"/><line class="cls-3" x1="101.95" y1="142.92" x2="101.95" y2="47.39"/><line class="cls-3" x1="100.11" y1="47.37" x2="103.65" y2="47.37"/><line class="cls-3" x1="99.42" y1="142.92" x2="104.48" y2="142.92"/><g class="cls-2"><path d="M92.06,107.55v7.2H90.73l-4.59-4.52-.54-.51a6.5,6.5,0,0,0-.61-.46,3.6,3.6,0,0,0-.68-.34,2.2,2.2,0,0,0-.73-.13,2,2,0,0,0-.83.17,1.74,1.74,0,0,0-.63.47,2.23,2.23,0,0,0-.39.71,2.65,2.65,0,0,0-.13.85,2.37,2.37,0,0,0,.47,1.47,2.21,2.21,0,0,0,1.3.78l-.13,1.22a3.18,3.18,0,0,1-2-1.16,3.51,3.51,0,0,1-.72-2.23,4.66,4.66,0,0,1,.18-1.31,3.61,3.61,0,0,1,.55-1.09,2.69,2.69,0,0,1,2.21-1,3.51,3.51,0,0,1,1.2.2,5.24,5.24,0,0,1,1,.52,7.86,7.86,0,0,1,.91.73c.29.27.57.55.85.84L91,113.5v-6Z"/><path d="M92.06,98.65v7.2H90.73l-4.59-4.51-.54-.51a6.62,6.62,0,0,0-.61-.47,3,3,0,0,0-.68-.33,2,2,0,0,0-.73-.13,1.84,1.84,0,0,0-.83.17,1.74,1.74,0,0,0-.63.47,2.18,2.18,0,0,0-.39.7,2.65,2.65,0,0,0-.13.85,2.33,2.33,0,0,0,.47,1.47,2.23,2.23,0,0,0,1.3.79l-.13,1.21a3.14,3.14,0,0,1-2-1.16,3.49,3.49,0,0,1-.72-2.23,4.59,4.59,0,0,1,.18-1.3,3.49,3.49,0,0,1,.55-1.09,2.67,2.67,0,0,1,.92-.75,2.79,2.79,0,0,1,1.29-.28,3.29,3.29,0,0,1,1.2.2,4.33,4.33,0,0,1,1,.52,6.85,6.85,0,0,1,.91.72l.85.84L91,104.6V98.65Z"/><path d="M86.23,92.12l-.83,0-.83,0V91.07h1.14v0a2.41,2.41,0,0,1-1-1.06,2.94,2.94,0,0,1-.34-1.35,3.83,3.83,0,0,1,.06-.65,2.28,2.28,0,0,1,.24-.66,1.89,1.89,0,0,1,.47-.6,2.47,2.47,0,0,1,.78-.48,2.41,2.41,0,0,1-1.13-1,2.79,2.79,0,0,1-.42-1.45,2.73,2.73,0,0,1,.76-2.13A3.12,3.12,0,0,1,87.31,81h4.75V82H87.69a3.11,3.11,0,0,0-1.74.4,1.64,1.64,0,0,0-.61,1.49,2,2,0,0,0,.23,1,1.93,1.93,0,0,0,.62.65,2.84,2.84,0,0,0,.87.36,4.74,4.74,0,0,0,1,.11h4v1.06H87.69a3.11,3.11,0,0,0-1.74.4A1.62,1.62,0,0,0,85.34,89a3.17,3.17,0,0,0,.06.44,1.74,1.74,0,0,0,.36.72,2.56,2.56,0,0,0,.86.66,3.51,3.51,0,0,0,1.6.3h3.84v1.05Z"/><path d="M85.53,74.62v2.16H90a2.59,2.59,0,0,0,.68-.08.86.86,0,0,0,.4-.23.66.66,0,0,0,.2-.34,1.51,1.51,0,0,0,.06-.44,2.23,2.23,0,0,0-.08-.56A2.25,2.25,0,0,0,91,74.6l1,0A3.44,3.44,0,0,1,92.25,76a2.86,2.86,0,0,1-.08.63,1.42,1.42,0,0,1-.3.6,1.7,1.7,0,0,1-.61.45,2.42,2.42,0,0,1-1,.17H85.53v1.59h-1V77.83H82.46v-1h2.11V74.62Z"/></g><g class="cls-4"><path class="cls-5" d="M152.63,145.28V145m-5.47,0,0,.32m8.32,1.43L153.52,144m-7.28,0-1.93,2.76m6.12-1.38V47.06m-1.09,0v98.27m34.77,42.14L155.59,146.9m-11.42,0-28.5,40.57m56.6,25.13.44-.19,1.64-.78,1.54-.84,1.47-.9,1.38-.94,1.28-1,1.19-1,1.07-1.06,1-1.1.85-1.13.75-1.15.63-1.19.51-1.2.4-1.21.26-1.22,0-.22m-73.59.18.05.23.28,1.21.4,1.21.54,1.2.65,1.17.76,1.16.86,1.11,1,1.11,1.08,1.05,1.2,1,1.3,1,1.39.94.51.3m29.51-65.05v.16m-5.48,0,0-.16m.05,0,0-.36.11-.35.25-.31.35-.29.2-.11m3.66,0h0l.4.26.29.32.17.34,0,.35-.12.35-.24.32-.35.28m-4.06,0-.22-.17-.29-.3-.16-.34m5.26-.72-.11-.18L152,144l-.4-.26-.51-.19-.57-.12-.11,0m-1.09,0h0l-.57.11-.53.2-.42.25-.32.3-.18.33v.05m0,.17V145l.1.35.23.33.36.29.46.23.55.17.59.08h.61l.6-.08.55-.15.47-.22.39-.28.24-.33.1-.23m-1.83-.22-.11-.17-.12-.08m-1.09,0-.08.06-.13.16v.18l.09.17.21.12.28.07.3,0,.29-.08.22-.1.14-.17v-.18m3.15-.28V145l-.12.43-.27.4-.38.37-.5.32-.6.26-.68.19-.71.11-.75,0-.74-.06-.72-.12-.64-.21-.47-.22m-1.59,4,.71.34.77.28.85.2.9.14.9,0,.93,0,.89-.11.87-.19.8-.26.72-.33.63-.39.51-.44.4-.48.26-.51.12-.52,0-.54-.16-.52-.26-.44m-11.14,0-.19.31-.19.53-.06.52.08.54.24.51.35.49.49.44.6.42m1.06.53-.66-.27-.65-.37-.53-.43-.37-.4M153.7,145l0,0,0-.43-.15-.41-.29-.39-.41-.35-.52-.29-.61-.24-.66-.16-.63-.08m-1.09,0-.46,0-.67.15-.64.22-.53.29-.44.33-.32.39-.19.39,0,.43,0,.26m1.67.92-.4-.3-.3-.33-.15-.37,0-.37.13-.37.24-.35.39-.32.5-.24.56-.18.62-.11,0,0m1.09,0,.19,0,.6.14.56.19.46.28.35.32.23.35.09.37-.06.37-.19.37-.32.32-.44.29-.52.22-.61.14-.63.08h-.66l-.64-.1-.59-.16-.51-.24m4.24,0,.28-.18.31-.33.18-.35.06-.35-.09-.38-.22-.34-.34-.3-.44-.26-.54-.2-.59-.12-.16,0m-1.09,0h0l-.61.11-.55.18-.48.25-.36.3-.26.33-.11.36v.36l.15.36.29.33.39.28m5-1-.07-.21-.22-.34-.11-.11m-5,0,0,0-.26.34-.1.29m3.29-97.76.11-.1.05-.12-.05-.12-.11-.1-.17-.07-.21-3.94-.22,3.94-.17.07-.12.1,0,.12,0,.12.12.1.17.07.22,0,.21,0Zm-34.6,140.19-.38.54-.71,1.24L114,190.5l-.45,1.27-.33,1.29-.18,1.3-.06,1.29L113,197l.08.59m73.55-.18,0-.08.12-1.3v-1.31l-.17-1.29-.29-1.29-.42-1.27-.57-1.27-.69-1.24-.55-.84M155.52,146.8h0l.31.51.16.52,0,.53-.11.53-.23.52-.37.48-.48.45-.61.4-.7.36-.77.28-.86.2-.88.14-.92.07-.91,0-.91-.1-.87-.17-.81-.25-.74-.32-.65-.37-.55-.43-.43-.47-.3-.49-.18-.52,0-.54.1-.52.23-.53.18-.25m28,65.79-.56.25-1.87.73-1.91.66-2,.6-2,.53-2.11.45-2.14.39-2.19.3-2.2.22-2.23.15-2.23.07h-2.25l-2.24-.08-2.22-.17-2.2-.25-2.16-.33-2.14-.4-2.09-.47-2-.53-2-.62-1.9-.69-1.83-.74-1.75-.82-1.65-.88-1-.58m32.63-62.48v-.09l-.11-.36m-11.86,0,0,.09-.1.53"/></g></svg>