<svg id="string_light_sfera_22mt" data-name="string light sfera 22mt" xmlns="http://www.w3.org/2000/svg" xmlns:xlink="http://www.w3.org/1999/xlink" viewBox="0 0 300 263"><defs><style>.cls-1,.cls-3,.cls-5,.cls-6{fill:none;}.cls-2{isolation:isolate;}.cls-3,.cls-5,.cls-6{stroke:#000;}.cls-3,.cls-5{stroke-width:0.5px;}.cls-4{clip-path:url(#clip-path);}.cls-5,.cls-6{stroke-linecap:round;stroke-linejoin:round;}</style><clipPath id="clip-path"><rect id="SVGID" class="cls-1" x="114.21" y="144.8" width="71.9" height="72.44"/></clipPath></defs><title>string-light-suspension-sphere-22mt-anastassiades-flos-F6490030-spech-tech-02-300x263</title><g class="cls-2"><path d="M124.18,239.86a4,4,0,0,1,.68,1.16,4.24,4.24,0,0,1,.24,1.45,4,4,0,0,1-.29,1.57,3.73,3.73,0,0,1-2.08,2.07,4.2,4.2,0,0,1-1.61.3,4.15,4.15,0,0,1-1.4-.23,3.72,3.72,0,0,1-1.11-.61l-1.07,1.09-.52-.49,1.06-1.09a3.67,3.67,0,0,1-.69-1.18,4.17,4.17,0,0,1-.24-1.43,4,4,0,0,1,.3-1.57,3.93,3.93,0,0,1,.82-1.25,3.76,3.76,0,0,1,1.26-.82,4.09,4.09,0,0,1,1.59-.3,4.4,4.4,0,0,1,1.39.22,3.65,3.65,0,0,1,1.15.62l1.06-1.09.51.49Zm-1.25.26a2.64,2.64,0,0,0-1.81-.63,2.8,2.8,0,0,0-1.18.24,2.54,2.54,0,0,0-.88.63,2.94,2.94,0,0,0-.56.94,3.46,3.46,0,0,0-.2,1.17,3,3,0,0,0,.55,1.82Zm-3.6,4.72a2.72,2.72,0,0,0,.8.45,3.11,3.11,0,0,0,1,.16,2.8,2.8,0,0,0,1.18-.24,2.54,2.54,0,0,0,.88-.63,2.64,2.64,0,0,0,.57-.94,3.2,3.2,0,0,0,.2-1.17,3.13,3.13,0,0,0-.54-1.82Z"/><path d="M135.89,246.21h-1.15v-9.88l-2,1.79-.72-.87,2.88-2.36h1Z"/><path d="M145,241.35l0,0a2.06,2.06,0,0,1-.73.29,4.3,4.3,0,0,1-.84.09,3.63,3.63,0,0,1-1.37-.26,3.42,3.42,0,0,1-1.09-.73,3.31,3.31,0,0,1-.73-1.1,3.62,3.62,0,0,1-.27-1.41,3.51,3.51,0,0,1,.28-1.43,3.24,3.24,0,0,1,.76-1.1,3.49,3.49,0,0,1,1.17-.72,4.31,4.31,0,0,1,2.95,0,3.54,3.54,0,0,1,1.16.72,3.27,3.27,0,0,1,.77,1.1,3.68,3.68,0,0,1,.27,1.43,4.39,4.39,0,0,1-.28,1.65,8.55,8.55,0,0,1-.69,1.39l-3.06,5H142Zm1.15-3.15a2.57,2.57,0,0,0-.18-1,2.18,2.18,0,0,0-.52-.77,2.55,2.55,0,0,0-.8-.51,3,3,0,0,0-2.05,0,2.44,2.44,0,0,0-.8.51,2.18,2.18,0,0,0-.52.77,2.57,2.57,0,0,0-.18,1,2.64,2.64,0,0,0,.18,1,2.32,2.32,0,0,0,.52.78,2.41,2.41,0,0,0,.8.5,3,3,0,0,0,2.05,0,2.52,2.52,0,0,0,.8-.5,2.32,2.32,0,0,0,.52-.78A2.64,2.64,0,0,0,146.19,238.2Z"/><path d="M152.56,234.69a3.24,3.24,0,0,1,2,.56,3.89,3.89,0,0,1,1.17,1.43,6.7,6.7,0,0,1,.56,1.89,14.07,14.07,0,0,1,0,4,6.7,6.7,0,0,1-.56,1.89,3.89,3.89,0,0,1-1.17,1.43,3.75,3.75,0,0,1-3.94,0,3.89,3.89,0,0,1-1.17-1.43,6.7,6.7,0,0,1-.56-1.89,14.07,14.07,0,0,1,0-4,6.7,6.7,0,0,1,.56-1.89,3.89,3.89,0,0,1,1.17-1.43A3.24,3.24,0,0,1,152.56,234.69Zm0,1.06a2.05,2.05,0,0,0-1.46.5,3.08,3.08,0,0,0-.81,1.23,6.09,6.09,0,0,0-.35,1.57c0,.55-.07,1-.07,1.5s0,.95.07,1.5a6.09,6.09,0,0,0,.35,1.57,3.08,3.08,0,0,0,.81,1.23,2.38,2.38,0,0,0,2.92,0,3.08,3.08,0,0,0,.81-1.23,6.09,6.09,0,0,0,.35-1.57c0-.55.07-1.05.07-1.5s0-1-.07-1.5a6.09,6.09,0,0,0-.35-1.57,3.08,3.08,0,0,0-.81-1.23A2.05,2.05,0,0,0,152.56,235.75Z"/><path d="M158.16,240.39c0-.28,0-.56,0-.83l-.06-.83h1.14v1.13h0a2.41,2.41,0,0,1,1.06-1,3.13,3.13,0,0,1,1.35-.34,3.79,3.79,0,0,1,.65.07,2.42,2.42,0,0,1,.67.23,2.34,2.34,0,0,1,.6.47,2.71,2.71,0,0,1,.47.79,2.48,2.48,0,0,1,1-1.14,3.07,3.07,0,0,1,3.58.34,3.12,3.12,0,0,1,.69,2.17v4.75h-1.06v-4.36a3.17,3.17,0,0,0-.4-1.75,1.65,1.65,0,0,0-1.49-.61,1.91,1.91,0,0,0-1,.24,2,2,0,0,0-.65.61,3.07,3.07,0,0,0-.36.87,4.9,4.9,0,0,0-.11,1v4h-1.05v-4.36a3.26,3.26,0,0,0-.4-1.75,1.68,1.68,0,0,0-1.49-.61,4.26,4.26,0,0,0-.44.07,1.62,1.62,0,0,0-.71.35,2.55,2.55,0,0,0-.67.86,3.69,3.69,0,0,0-.29,1.6v3.84h-1.06Z"/><path d="M171.79,240.39c0-.28,0-.56,0-.83l-.06-.83h1.14v1.13h0a2.47,2.47,0,0,1,1.06-1,3.14,3.14,0,0,1,1.36-.34,3.79,3.79,0,0,1,.64.07,2.42,2.42,0,0,1,.67.23,2.34,2.34,0,0,1,.6.47,2.71,2.71,0,0,1,.47.79,2.45,2.45,0,0,1,1-1.14,2.73,2.73,0,0,1,1.44-.42,2.76,2.76,0,0,1,2.13.76,3.12,3.12,0,0,1,.69,2.17v4.75H181.9v-4.36a3.17,3.17,0,0,0-.4-1.75,1.65,1.65,0,0,0-1.48-.61,1.92,1.92,0,0,0-1,.24,1.87,1.87,0,0,0-.64.61,2.58,2.58,0,0,0-.36.87,4.31,4.31,0,0,0-.12,1v4h-1.05v-4.36a3.26,3.26,0,0,0-.4-1.75,1.67,1.67,0,0,0-1.49-.61l-.44.07a1.62,1.62,0,0,0-.71.35,2.55,2.55,0,0,0-.67.86,3.69,3.69,0,0,0-.29,1.6v3.84h-1.06Z"/></g><line class="cls-3" x1="114.21" y1="226.19" x2="186.11" y2="226.19"/><line class="cls-3" x1="114.21" y1="225.93" x2="114.21" y2="226.44"/><line class="cls-3" x1="186.11" y1="225.93" x2="186.11" y2="226.44"/><line class="cls-3" x1="114.21" y1="223.98" x2="114.21" y2="228.4"/><line class="cls-3" x1="186.11" y1="223.98" x2="186.11" y2="228.4"/><g class="cls-2"><path d="M97.53,208.34v1.15H87.65l1.79,2-.87.72-2.36-2.88v-1Z"/><path d="M91.07,201.94l0,0a2.27,2.27,0,0,1-.29-.73,4.38,4.38,0,0,1-.09-.84A3.63,3.63,0,0,1,91,199a3.27,3.27,0,0,1,1.83-1.82,3.62,3.62,0,0,1,1.41-.27,3.48,3.48,0,0,1,1.43.28,3.24,3.24,0,0,1,1.1.76,3.49,3.49,0,0,1,.72,1.17,4.31,4.31,0,0,1,0,2.95,3.54,3.54,0,0,1-.72,1.16,3.27,3.27,0,0,1-1.1.77,3.64,3.64,0,0,1-1.43.27,4.39,4.39,0,0,1-1.65-.28,9.45,9.45,0,0,1-1.39-.69l-5-3.06v-1.36Zm3.15,1.15a2.57,2.57,0,0,0,1-.18,2.32,2.32,0,0,0,.78-.52,2.21,2.21,0,0,0,.5-.8,3,3,0,0,0,0-2.05,2.13,2.13,0,0,0-.5-.8,2.32,2.32,0,0,0-.78-.52,2.57,2.57,0,0,0-1-.18,2.64,2.64,0,0,0-1,.18,2.28,2.28,0,0,0-.77.52,2.41,2.41,0,0,0-.5.8,2.86,2.86,0,0,0,0,2.05,2.52,2.52,0,0,0,.5.8,2.28,2.28,0,0,0,.77.52A2.64,2.64,0,0,0,94.22,203.09Z"/><path d="M86,191.67a3.24,3.24,0,0,1,.55-2A3.89,3.89,0,0,1,88,188.53a6.37,6.37,0,0,1,1.9-.56,13.53,13.53,0,0,1,2-.14,13.76,13.76,0,0,1,2,.14,6.39,6.39,0,0,1,1.89.56,3.89,3.89,0,0,1,1.43,1.17,3.73,3.73,0,0,1,0,3.93,3.7,3.7,0,0,1-1.43,1.17,6.11,6.11,0,0,1-1.89.56,13.82,13.82,0,0,1-2,.15,13.58,13.58,0,0,1-2-.15,6.09,6.09,0,0,1-1.9-.56,3.7,3.7,0,0,1-1.43-1.17A3.21,3.21,0,0,1,86,191.67Zm1,0a2.07,2.07,0,0,0,.5,1.46,3.08,3.08,0,0,0,1.23.81,5.7,5.7,0,0,0,1.57.34c.55.05,1,.08,1.5.08s.95,0,1.5-.08a5.7,5.7,0,0,0,1.57-.34,3.08,3.08,0,0,0,1.23-.81,2,2,0,0,0,.5-1.46,2,2,0,0,0-.5-1.47,3.3,3.3,0,0,0-1.23-.81,6.09,6.09,0,0,0-1.57-.34c-.55-.05-1.05-.07-1.5-.07s-1,0-1.5.07a6.09,6.09,0,0,0-1.57.34,3.3,3.3,0,0,0-1.23.81A2.09,2.09,0,0,0,87.07,191.67Z"/><path d="M91.71,181.62l-.83,0-.83.06v-1.14h1.13v0a2.47,2.47,0,0,1-1-1.06,3.13,3.13,0,0,1-.34-1.35,3.79,3.79,0,0,1,.07-.65,2.42,2.42,0,0,1,.23-.67,2.34,2.34,0,0,1,.47-.6,2.85,2.85,0,0,1,.79-.47,2.45,2.45,0,0,1-1.14-1,2.73,2.73,0,0,1-.42-1.44,2.76,2.76,0,0,1,.76-2.13,3.12,3.12,0,0,1,2.17-.69h4.75v1.06H93.17a3.17,3.17,0,0,0-1.75.4,1.65,1.65,0,0,0-.61,1.49,1.91,1.91,0,0,0,.24,1,2,2,0,0,0,.61.65,3.07,3.07,0,0,0,.87.36,4.9,4.9,0,0,0,1,.11h4v1.05H93.17a3.26,3.26,0,0,0-1.75.4,1.68,1.68,0,0,0-.61,1.49,4.26,4.26,0,0,0,.07.44,1.62,1.62,0,0,0,.35.71,2.55,2.55,0,0,0,.86.67,3.69,3.69,0,0,0,1.6.29h3.84v1.06Z"/><path d="M91.71,168l-.83,0-.83.06v-1.14h1.13v0a2.53,2.53,0,0,1-1-1.06,3.14,3.14,0,0,1-.34-1.36,3.68,3.68,0,0,1,.07-.64,2.31,2.31,0,0,1,.23-.67,2.34,2.34,0,0,1,.47-.6,2.63,2.63,0,0,1,.79-.47,2.45,2.45,0,0,1-1.14-1,2.73,2.73,0,0,1-.42-1.44,2.76,2.76,0,0,1,.76-2.13,3.12,3.12,0,0,1,2.17-.69h4.75v1.05H93.17a3.17,3.17,0,0,0-1.75.41,1.65,1.65,0,0,0-.61,1.48,1.92,1.92,0,0,0,.24,1,1.87,1.87,0,0,0,.61.64,2.58,2.58,0,0,0,.87.36,4.31,4.31,0,0,0,1,.11h4v1.06H93.17a3.17,3.17,0,0,0-1.75.4,1.67,1.67,0,0,0-.61,1.49c0,.06,0,.21.07.44a1.62,1.62,0,0,0,.35.71,2.55,2.55,0,0,0,.86.67,3.69,3.69,0,0,0,1.6.29h3.84V168Z"/></g><line class="cls-3" x1="107.43" y1="217.67" x2="107.43" y2="144.82"/><line class="cls-3" x1="105.58" y1="144.8" x2="109.13" y2="144.8"/><line class="cls-3" x1="104.9" y1="217.67" x2="109.95" y2="217.67"/><line class="cls-3" x1="107.43" y1="144.8" x2="107.43" y2="61.3"/><line class="cls-3" x1="105.58" y1="61.28" x2="109.13" y2="61.28"/><line class="cls-3" x1="104.9" y1="144.8" x2="109.95" y2="144.8"/><g class="cls-2"><path d="M97.53,107.34v7.2H96.21L91.61,110l-.54-.51a4.64,4.64,0,0,0-.61-.46,3.25,3.25,0,0,0-.67-.34,2.26,2.26,0,0,0-.74-.13,2.05,2.05,0,0,0-.83.17,1.79,1.79,0,0,0-.62.47,2.23,2.23,0,0,0-.39.71,2.66,2.66,0,0,0-.14.85,2.32,2.32,0,0,0,.48,1.47,2.16,2.16,0,0,0,1.3.78l-.13,1.22a3.21,3.21,0,0,1-2-1.16,3.5,3.5,0,0,1-.71-2.23,4.66,4.66,0,0,1,.18-1.31,3.39,3.39,0,0,1,.55-1.09,2.81,2.81,0,0,1,.92-.75,2.92,2.92,0,0,1,1.29-.28,3.51,3.51,0,0,1,1.2.2,5.44,5.44,0,0,1,1,.52,7.1,7.1,0,0,1,.91.73c.29.27.58.55.85.84l3.54,3.57v-6Z"/><path d="M97.53,98.44v7.2H96.21l-4.6-4.51-.54-.51a4.71,4.71,0,0,0-.61-.47,2.78,2.78,0,0,0-.67-.33,2,2,0,0,0-.74-.13,1.9,1.9,0,0,0-.83.17,1.79,1.79,0,0,0-.62.47,2.18,2.18,0,0,0-.39.7,2.66,2.66,0,0,0-.14.85,2.28,2.28,0,0,0,.48,1.47,2.17,2.17,0,0,0,1.3.79l-.13,1.21a3.16,3.16,0,0,1-2-1.16A3.48,3.48,0,0,1,86,102a4.59,4.59,0,0,1,.18-1.3,3.29,3.29,0,0,1,.55-1.09,2.58,2.58,0,0,1,.92-.75A2.79,2.79,0,0,1,89,98.54a3.29,3.29,0,0,1,1.2.2,4.46,4.46,0,0,1,1,.52,6.26,6.26,0,0,1,.91.72c.29.28.58.56.85.84l3.54,3.57v-6Z"/><path d="M91.71,91.91c-.28,0-.55,0-.83,0l-.83,0V90.86h1.13v0a2.47,2.47,0,0,1-1-1.06,3.07,3.07,0,0,1-.34-1.35,3.9,3.9,0,0,1,.07-.65,2.25,2.25,0,0,1,.23-.66,2,2,0,0,1,.47-.6,2.64,2.64,0,0,1,.79-.48,2.48,2.48,0,0,1-1.14-1,3.07,3.07,0,0,1,.34-3.58,3.12,3.12,0,0,1,2.17-.69h4.75V81.8H93.17a3.17,3.17,0,0,0-1.75.4,1.67,1.67,0,0,0-.61,1.49,1.87,1.87,0,0,0,.85,1.64,3.07,3.07,0,0,0,.87.36,4.9,4.9,0,0,0,1,.11h4v1.06H93.17a3.17,3.17,0,0,0-1.75.4,1.65,1.65,0,0,0-.61,1.48,3.87,3.87,0,0,0,.07.44,1.71,1.71,0,0,0,.35.72,2.67,2.67,0,0,0,.86.66,3.53,3.53,0,0,0,1.6.3h3.84v1Z"/><path d="M91,74.41v2.16h4.41a2.48,2.48,0,0,0,.68-.08.9.9,0,0,0,.41-.23.73.73,0,0,0,.2-.34,1.51,1.51,0,0,0,.06-.44,2.23,2.23,0,0,0-.08-.56,3.66,3.66,0,0,0-.21-.53l1,0a3.29,3.29,0,0,1,.28,1.43,2.86,2.86,0,0,1-.08.63,1.56,1.56,0,0,1-.31.6,1.7,1.7,0,0,1-.61.45,2.37,2.37,0,0,1-1,.17H91v1.59h-1V77.62H87.94V76.57h2.11V74.41Z"/></g><g class="cls-4"><path class="cls-5" d="M152.78,152.57v0l-.05-.35-.17-.31-.28-.28-.3-.21m-2.35-.4-.53.09-.48.17-.42.23-.33.28-.22.33-.11.36v0m4.44-1.1-.23-.11-.48-.19-.53-.1h-.05m2.09,1.86v-.3m-5.24,0v.3m3.36-.31,0,0-.06.09-.12.1-.21.09-.25.05H150l-.27-.07-.18-.09-.11-.11,0-.08m-5.06.16v.54m11.62,0v-.54m-3-.28v.16l-.12.32-.24.29-.33.25-.16.09m-2,.44h-.4l-.55-.08-.52-.15-.45-.2-.37-.23-.26-.27-.16-.29-.06-.25m4.77,1-.22.11-.48.17-.54.12-.57.05h-.19m-35.61,27.55.08,2.16.21,2.16.34,2.13.47,2.12.59,2.08.73,2,.85,2,1,1.93,1.08,1.88,1.19,1.8,1.3,1.73,1.4,1.64,1.49,1.57,1.61,1.47,1.66,1.36,1.76,1.27,1.83,1.15,1.91,1,1.95.91,2,.81m0,0,2.09.69,2.13.57,2.16.42,2.18.29,2.2.16,2.2,0,2.2-.12,2.18-.24,2.17-.38,2.15-.52,2.1-.65,2.05-.78,2-.9,1.94-1,1.88-1.14L171.4,210l1.72-1.37,1.64-1.47,1.55-1.57,1.44-1.66,1.34-1.75,1.23-1.82,1.13-1.9,1-2,.87-2,.74-2.08.63-2.11.49-2.14.34-2.17.23-2.2.08-2.2m0-.46-.08-2.19-.23-2.17-.34-2.15-.48-2.15-.61-2.09-.74-2.07-.86-2-1-2-1.1-1.89-1.22-1.81-1.32-1.74-1.43-1.67-1.54-1.56-1.61-1.47-1.71-1.36-1.79-1.26-1.87-1.15-1.91-1-2-.91-2-.8-2.08-.65-2.12-.54-2.16-.4-2.17-.26-2.17-.13-.57,0m-1.06,0-.57,0-2.17.13-2.17.26-2.16.4-2.12.54-2.07.65-2.06.8-2,.91-1.92,1-1.87,1.15-1.79,1.26L127,154.15l-1.61,1.47-1.54,1.56-1.43,1.67-1.32,1.74-1.22,1.81-1.1,1.89-1,2-.86,2-.74,2.07-.61,2.09-.47,2.15-.35,2.15-.22,2.17-.08,2.19m8,13.13.57.4,1.38.89.51.3m46.2,2.05h0l1.63-.74,1.54-.78,1.47-.83.52-.32m-51.36.62.78.44,1,.53m28.36-42.22-.19.17-.5.34-.09.07m0,0-.25.13m-1.37-2.4v.22m-5.19,0,0-.06v-.18m0-.3v-.06m7-2-.08-.05-.62-.36-.71-.29-.76-.22-.82-.16-.84-.08m-1.06,0-.69.06-.83.15-.78.21-.72.28-.63.34-.48.35m.45,4.05.24.13.66.33.74.25.8.2.85.12.86,0,.86,0,.84-.11.81-.19.44-.13M145.9,155l-.41-.29-.48-.44-.34-.46-.23-.5-.09-.51v-.09m11.62,0v.17l-.12.51-.23.5-.39.46-.49.43-.33.22m-10.06-1.75v.24m11.6,0v-.24m-8.63-.8v.05m.28-.41-.08.09-.17.34,0,.14m5.62,0,0-.1-.16-.35-.12-.14M124,195.41l-1-.66-1.35-1-1.25-1-1.14-1.07-1-1.11-.9-1.14-.78-1.18-.65-1.19-.53-1.22-.39-1.23-.27-1.24-.13-1.26v-.78m71.31,0v.14l-.07,1.26-.2,1.25-.33,1.24-.46,1.22-.59,1.22-.71,1.17-.85,1.17-1,1.13-1.09,1.08-1.19,1.05-1.3,1-1.4,1-1,.64m-21.41-40.57-.42.21-.79.28-.83.21-.9.13-.91.07-.92,0-.9-.09-.87-.17-.81-.25-.74-.32-.64-.36m-.54-4.25.24-.2.59-.4.71-.34.78-.29.83-.21.9-.13.61-.06m1.06,0,.16,0,.9.09.87.18.81.24.74.32.65.38.56.43.1.1m20.92,44.24.82-.53,1.37-1,1.25-1,1.16-1.06,1-1.11.91-1.14.8-1.17.66-1.19.54-1.22.41-1.23.29-1.24.15-1.26,0-.86m-71.31,0,0,1.18.19,1.24.3,1.25.45,1.23.57,1.2.7,1.19.82,1.17,1,1.13,1,1.09,1.18,1.06,1.29,1,.41.3M171,197.86l-.33.13-1.81.69-1.86.63-1.94.56-2,.49-2,.42-2.08.35-2.1.28-2.15.2-2.14.11-2.17.06-2.16,0-2.16-.11-2.13-.18-2.12-.25-2.09-.33-2.05-.4-2-.48-1.95-.54-1.88-.61-1.83-.67-1.74-.75-1.42-.67m28.25-42.14.25-.24.36-.48.23-.49.1-.51,0-.51-.16-.5-.29-.49-.18-.22m-11.19,1.67,0,.31.16.51.29.47.41.45.53.41.53.32m-1.84-2.6-.09.41m11.81,0,0-.19-.07-.22"/></g><line class="cls-6" x1="150.16" y1="150.99" x2="150.16" y2="47.37"/></svg>