<svg id="Stylos_copia" data-name="Stylos copia" xmlns="http://www.w3.org/2000/svg" viewBox="0 0 300 263"><defs><style>.cls-1{isolation:isolate;}.cls-2,.cls-3{fill:none;stroke-width:0.5px;}.cls-2{stroke:#000;}.cls-3{stroke:#1d1d1b;stroke-miterlimit:3.86;}</style></defs><title>stylos-floor-castiglioni-flos-F6310004-spech-tech-02-300x263</title><g class="cls-1"><path d="M107.53,157.69v7.2H106.2l-4.59-4.51-.54-.51a6.62,6.62,0,0,0-.61-.47,3,3,0,0,0-.67-.33,2.06,2.06,0,0,0-.74-.13,2,2,0,0,0-.83.17,1.7,1.7,0,0,0-.62.47,2,2,0,0,0-.4.7,2.65,2.65,0,0,0-.13.85,2.28,2.28,0,0,0,.48,1.47,2.17,2.17,0,0,0,1.29.79l-.13,1.21a3.14,3.14,0,0,1-2-1.16,3.49,3.49,0,0,1-.72-2.23,4.59,4.59,0,0,1,.18-1.3,3.31,3.31,0,0,1,.56-1.09,2.5,2.5,0,0,1,.92-.75,2.72,2.72,0,0,1,1.28-.28,3.29,3.29,0,0,1,1.2.2,4.33,4.33,0,0,1,1,.52,6.2,6.2,0,0,1,.91.73c.29.27.57.55.85.84l3.54,3.56v-5.95Z"/><path d="M96,152.31a3.21,3.21,0,0,1,.56-2A3.86,3.86,0,0,1,98,149.18a6.17,6.17,0,0,1,1.9-.56,13.08,13.08,0,0,1,4,0,6.17,6.17,0,0,1,1.9.56,3.86,3.86,0,0,1,1.42,1.17,3.73,3.73,0,0,1,0,3.93,3.76,3.76,0,0,1-1.42,1.17,6.17,6.17,0,0,1-1.9.56,13.08,13.08,0,0,1-4,0,6.17,6.17,0,0,1-1.9-.56,3.76,3.76,0,0,1-1.42-1.17A3.22,3.22,0,0,1,96,152.31Zm1.06,0a2.09,2.09,0,0,0,.49,1.47,3.08,3.08,0,0,0,1.23.81,6.27,6.27,0,0,0,1.57.34c.56,0,1.06.07,1.51.07s.95,0,1.5-.07a6.09,6.09,0,0,0,1.57-.34,3.08,3.08,0,0,0,1.23-.81,2.4,2.4,0,0,0,0-2.93,3.08,3.08,0,0,0-1.23-.81,6.09,6.09,0,0,0-1.57-.34c-.55,0-1.06-.07-1.5-.07s-1,0-1.51.07a6.27,6.27,0,0,0-1.57.34,3.08,3.08,0,0,0-1.23.81A2.08,2.08,0,0,0,97.07,152.31Z"/><path d="M96,143.42a3.24,3.24,0,0,1,.56-2A3.86,3.86,0,0,1,98,140.28a6.77,6.77,0,0,1,1.9-.56,14,14,0,0,1,4,0,6.77,6.77,0,0,1,1.9.56,3.86,3.86,0,0,1,1.42,1.17,3.75,3.75,0,0,1,0,3.94,3.74,3.74,0,0,1-1.42,1.16,6.46,6.46,0,0,1-1.9.57,14,14,0,0,1-4,0,6.46,6.46,0,0,1-1.9-.57,3.74,3.74,0,0,1-1.42-1.16A3.24,3.24,0,0,1,96,143.42Zm1.06,0a2,2,0,0,0,.49,1.46,3.08,3.08,0,0,0,1.23.81,6.29,6.29,0,0,0,1.57.35c.56,0,1.06.07,1.51.07s.95,0,1.5-.07a6.09,6.09,0,0,0,1.57-.35,3.08,3.08,0,0,0,1.23-.81,2.38,2.38,0,0,0,0-2.92,3.08,3.08,0,0,0-1.23-.81,6.09,6.09,0,0,0-1.57-.35c-.55,0-1.06-.07-1.5-.07s-1,0-1.51.07a6.29,6.29,0,0,0-1.57.35,3.08,3.08,0,0,0-1.23.81A2,2,0,0,0,97.07,143.42Z"/><path d="M96,134.52a3.21,3.21,0,0,1,.56-2A3.67,3.67,0,0,1,98,131.39a6.17,6.17,0,0,1,1.9-.56,13.08,13.08,0,0,1,4,0,6.17,6.17,0,0,1,1.9.56,3.67,3.67,0,0,1,1.42,1.17,3.73,3.73,0,0,1,0,3.93,3.86,3.86,0,0,1-1.42,1.17,6.45,6.45,0,0,1-1.9.56,14,14,0,0,1-4,0,6.45,6.45,0,0,1-1.9-.56,3.86,3.86,0,0,1-1.42-1.17A3.24,3.24,0,0,1,96,134.52Zm1.06,0a2.09,2.09,0,0,0,.49,1.47,3.17,3.17,0,0,0,1.23.8,5.87,5.87,0,0,0,1.57.35c.56.05,1.06.07,1.51.07s.95,0,1.5-.07a5.71,5.71,0,0,0,1.57-.35,3.17,3.17,0,0,0,1.23-.8,2.09,2.09,0,0,0,.5-1.47,2.07,2.07,0,0,0-.5-1.46,3.08,3.08,0,0,0-1.23-.81,6.09,6.09,0,0,0-1.57-.34c-.55,0-1.06-.08-1.5-.08s-1,0-1.51.08a6.27,6.27,0,0,0-1.57.34,3.08,3.08,0,0,0-1.23.81A2.06,2.06,0,0,0,97.07,134.52Z"/><path d="M101.71,124.48c-.28,0-.56,0-.84,0l-.83.06v-1.14h1.14v0a2.44,2.44,0,0,1-1-1.07,2.94,2.94,0,0,1-.34-1.35,3.83,3.83,0,0,1,.06-.65,2.28,2.28,0,0,1,.24-.66,2.34,2.34,0,0,1,.47-.6,2.28,2.28,0,0,1,.78-.47,2.43,2.43,0,0,1-1.13-1,2.76,2.76,0,0,1-.42-1.45,2.69,2.69,0,0,1,.76-2.12,3.12,3.12,0,0,1,2.17-.69h4.75v1h-4.37a3.22,3.22,0,0,0-1.74.4,1.65,1.65,0,0,0-.61,1.49,2,2,0,0,0,.23,1,1.84,1.84,0,0,0,.62.65,2.5,2.5,0,0,0,.87.36,4.25,4.25,0,0,0,1,.11h4v1.06h-4.37a3.13,3.13,0,0,0-1.74.4,1.64,1.64,0,0,0-.61,1.49,3.61,3.61,0,0,0,.06.44,1.71,1.71,0,0,0,.36.71,2.53,2.53,0,0,0,.86.66,3.53,3.53,0,0,0,1.6.3h3.84v1.06Z"/><path d="M101.71,110.84q-.42,0-.84,0l-.83,0v-1.13h1.14v0a2.41,2.41,0,0,1-1-1.06,2.94,2.94,0,0,1-.34-1.35,3.83,3.83,0,0,1,.06-.65,2.28,2.28,0,0,1,.24-.66,2,2,0,0,1,.47-.6,2.28,2.28,0,0,1,.78-.47,2.48,2.48,0,0,1-1.13-1,2.76,2.76,0,0,1-.42-1.45,2.73,2.73,0,0,1,.76-2.13,3.12,3.12,0,0,1,2.17-.68h4.75v1h-4.37a3.13,3.13,0,0,0-1.74.4,1.64,1.64,0,0,0-.61,1.49,2,2,0,0,0,.23,1,1.93,1.93,0,0,0,.62.65,3,3,0,0,0,.87.36,4.83,4.83,0,0,0,1,.11h4v1.06h-4.37a3.13,3.13,0,0,0-1.74.4,1.63,1.63,0,0,0-.61,1.49,3.61,3.61,0,0,0,.06.44,1.77,1.77,0,0,0,.36.71,2.67,2.67,0,0,0,.86.66,3.53,3.53,0,0,0,1.6.3h3.84v1Z"/></g><line class="cls-2" x1="116.53" y1="46.72" x2="116.53" y2="217.3"/><line class="cls-2" x1="118.11" y1="46.72" x2="114.74" y2="46.72"/><line class="cls-2" x1="118.29" y1="217.3" x2="113.92" y2="217.3"/><g class="cls-1"><path d="M121.39,22a4,4,0,0,1,.68,1.16,4.44,4.44,0,0,1,0,3,3.73,3.73,0,0,1-2.08,2.07,4.2,4.2,0,0,1-1.61.3,4.15,4.15,0,0,1-1.4-.23,3.72,3.72,0,0,1-1.11-.61l-1.07,1.09-.52-.5,1.06-1.08a3.67,3.67,0,0,1-.69-1.18,4.17,4.17,0,0,1-.24-1.43,4,4,0,0,1,.3-1.57,3.67,3.67,0,0,1,.82-1.25,3.76,3.76,0,0,1,1.26-.82,4.09,4.09,0,0,1,1.59-.3,4.18,4.18,0,0,1,1.39.22,3.65,3.65,0,0,1,1.15.62l1.06-1.09.51.49Zm-1.25.26a2.66,2.66,0,0,0-1.81-.63,3,3,0,0,0-1.18.23,2.7,2.7,0,0,0-.88.64,2.94,2.94,0,0,0-.56.94,3.42,3.42,0,0,0-.2,1.17,2.94,2.94,0,0,0,.55,1.82ZM116.54,27a2.72,2.72,0,0,0,.8.45,3.11,3.11,0,0,0,1,.16,2.8,2.8,0,0,0,1.18-.24,2.54,2.54,0,0,0,.88-.63,2.73,2.73,0,0,0,.57-.94,3.51,3.51,0,0,0,.2-1.17,3.18,3.18,0,0,0-.54-1.83Z"/><path d="M133.1,28.36h-1.16V18.48l-2,1.79-.72-.87L132.07,17h1Z"/><path d="M144,18.09l-4.56,10.27h-1.3l4.66-10.27h-5.52V17H144Z"/><path d="M149.77,16.84a3.24,3.24,0,0,1,2,.56,3.77,3.77,0,0,1,1.16,1.43,6,6,0,0,1,.56,1.89,13.82,13.82,0,0,1,.15,2,13.58,13.58,0,0,1-.15,2,6.17,6.17,0,0,1-.56,1.9A3.66,3.66,0,0,1,151.74,28a3.69,3.69,0,0,1-3.94,0,3.78,3.78,0,0,1-1.17-1.42,6.77,6.77,0,0,1-.56-1.9,15.09,15.09,0,0,1-.14-2,15.36,15.36,0,0,1,.14-2,6.6,6.6,0,0,1,.56-1.89,3.89,3.89,0,0,1,1.17-1.43A3.24,3.24,0,0,1,149.77,16.84Zm0,1.06a2,2,0,0,0-1.47.5,3.17,3.17,0,0,0-.8,1.23,6.11,6.11,0,0,0-.35,1.56c-.05.56-.07,1.06-.07,1.51s0,.95.07,1.5a6.09,6.09,0,0,0,.35,1.57,3.17,3.17,0,0,0,.8,1.23,2.09,2.09,0,0,0,1.47.5,2.05,2.05,0,0,0,1.46-.5,3.08,3.08,0,0,0,.81-1.23,5.7,5.7,0,0,0,.34-1.57c.05-.55.08-1.05.08-1.5s0-.95-.08-1.51a5.71,5.71,0,0,0-.34-1.56,3.08,3.08,0,0,0-.81-1.23A2,2,0,0,0,149.77,17.9Z"/><path d="M159.82,22.54c0-.28,0-.56,0-.83s0-.56,0-.84h1.13V22h0A2.41,2.41,0,0,1,162,21a2.94,2.94,0,0,1,1.35-.34,3.07,3.07,0,0,1,.65.07,2.25,2.25,0,0,1,.66.23,2,2,0,0,1,.6.47,2.47,2.47,0,0,1,.48.78,2.45,2.45,0,0,1,1-1.13,3.07,3.07,0,0,1,3.58.34,3.17,3.17,0,0,1,.68,2.17v4.75h-1V24a3.25,3.25,0,0,0-.4-1.74,1.67,1.67,0,0,0-1.49-.61,2,2,0,0,0-1,.23,1.93,1.93,0,0,0-.65.62,3.07,3.07,0,0,0-.36.87,4.9,4.9,0,0,0-.11,1v4h-1.06V24a3.16,3.16,0,0,0-.4-1.74,1.65,1.65,0,0,0-1.49-.61,2.67,2.67,0,0,0-.44.07,1.73,1.73,0,0,0-.71.35,2.67,2.67,0,0,0-.66.86,3.53,3.53,0,0,0-.3,1.6v3.84h-1.05Z"/><path d="M173.45,22.54c0-.28,0-.56,0-.83s0-.56,0-.84h1.13V22h0a2.41,2.41,0,0,1,1.06-1,2.94,2.94,0,0,1,1.35-.34,3,3,0,0,1,.65.07,2.25,2.25,0,0,1,.66.23,2,2,0,0,1,.6.47,2.47,2.47,0,0,1,.48.78,2.45,2.45,0,0,1,1-1.13,3.07,3.07,0,0,1,3.58.34,3.12,3.12,0,0,1,.69,2.17v4.75h-1.06V24a3.16,3.16,0,0,0-.4-1.74,1.67,1.67,0,0,0-1.49-.61,2,2,0,0,0-1,.23,1.93,1.93,0,0,0-.65.62,3.07,3.07,0,0,0-.36.87,4.9,4.9,0,0,0-.11,1v4H178.5V24a3.16,3.16,0,0,0-.4-1.74,1.65,1.65,0,0,0-1.48-.61,2.52,2.52,0,0,0-.44.07,1.71,1.71,0,0,0-.72.35,2.67,2.67,0,0,0-.66.86,3.53,3.53,0,0,0-.3,1.6v3.84h-1.05Z"/></g><g class="cls-1"><path d="M121.16,241.05a3.82,3.82,0,0,1,.68,1.16,4.29,4.29,0,0,1,.25,1.45,4,4,0,0,1-.3,1.57,3.93,3.93,0,0,1-.82,1.25,3.87,3.87,0,0,1-1.26.82,4.2,4.2,0,0,1-1.61.3,4.15,4.15,0,0,1-1.4-.23,3.72,3.72,0,0,1-1.11-.61l-1.07,1.09-.51-.49,1-1.09a3.56,3.56,0,0,1-.69-1.18,4.17,4.17,0,0,1-.24-1.43,4,4,0,0,1,.3-1.57,3.93,3.93,0,0,1,.82-1.25,3.87,3.87,0,0,1,1.26-.82,4.17,4.17,0,0,1,1.59-.3,4.4,4.4,0,0,1,1.39.22,3.81,3.81,0,0,1,1.16.62l1-1.09.51.49Zm-1.25.26a2.64,2.64,0,0,0-1.81-.63,2.72,2.72,0,0,0-1.17.24,2.45,2.45,0,0,0-.88.63,2.86,2.86,0,0,0-.56.94,3.23,3.23,0,0,0-.2,1.17,3,3,0,0,0,.54,1.82Zm-3.6,4.72a2.72,2.72,0,0,0,.8.45,3.11,3.11,0,0,0,1,.16,2.8,2.8,0,0,0,1.18-.24,2.67,2.67,0,0,0,.89-.63,2.77,2.77,0,0,0,.56-.94,3.2,3.2,0,0,0,.2-1.17,3.13,3.13,0,0,0-.54-1.82Z"/><path d="M130.57,240.94h.59a4.19,4.19,0,0,0,1-.11,2.39,2.39,0,0,0,.79-.36,1.81,1.81,0,0,0,.54-.65,2.19,2.19,0,0,0,.2-1,1.86,1.86,0,0,0-.55-1.42,2.26,2.26,0,0,0-1.55-.5,2.46,2.46,0,0,0-1.26.32,2.52,2.52,0,0,0-.9.93l-1-.51a3.44,3.44,0,0,1,1.31-1.36,3.75,3.75,0,0,1,1.83-.44,4,4,0,0,1,1.26.2,2.9,2.9,0,0,1,1,.56,2.87,2.87,0,0,1,.72.93,3,3,0,0,1,.26,1.26,2.58,2.58,0,0,1-.15.88,2.5,2.5,0,0,1-.42.75,2.8,2.8,0,0,1-.61.58,2.89,2.89,0,0,1-.74.38l0,0a2.72,2.72,0,0,1,.88.36,3,3,0,0,1,.69.65,2.91,2.91,0,0,1,.44.86,3.1,3.1,0,0,1,.16,1,3.19,3.19,0,0,1-.28,1.39,3.12,3.12,0,0,1-.79,1,3.3,3.3,0,0,1-1.15.63,4.55,4.55,0,0,1-1.39.22,4.18,4.18,0,0,1-2.18-.55,3.29,3.29,0,0,1-1.39-1.74l1.22-.37a2.35,2.35,0,0,0,.85,1.21,2.79,2.79,0,0,0,1.59.39,2.58,2.58,0,0,0,.92-.16,2.45,2.45,0,0,0,.76-.46,2.19,2.19,0,0,0,.51-.71,2.27,2.27,0,0,0,.18-.91,2.21,2.21,0,0,0-.24-1.08,2,2,0,0,0-.64-.71,2.72,2.72,0,0,0-.92-.39,4.83,4.83,0,0,0-1.08-.12h-.49Z"/><path d="M143.64,237.13H139l-.08,3.41a3.44,3.44,0,0,1,.76-.21,4.87,4.87,0,0,1,.76-.06,3.8,3.8,0,0,1,1.46.27,3.26,3.26,0,0,1,1.13.76,3.52,3.52,0,0,1,.73,1.15,4,4,0,0,1,0,3,3.39,3.39,0,0,1-.8,1.16,3.51,3.51,0,0,1-1.21.76,3.94,3.94,0,0,1-1.51.28,3.69,3.69,0,0,1-1.94-.52,3.35,3.35,0,0,1-1.32-1.5l1.15-.5a2.61,2.61,0,0,0,.89,1.07,2.28,2.28,0,0,0,1.32.39,2.56,2.56,0,0,0,1-.2,2.36,2.36,0,0,0,.8-.54,2.53,2.53,0,0,0,.55-.8,2.5,2.5,0,0,0,.2-1,2.79,2.79,0,0,0-.21-1.09,2.52,2.52,0,0,0-.58-.85,2.35,2.35,0,0,0-.88-.55,3.1,3.1,0,0,0-1.12-.2,4.59,4.59,0,0,0-1.21.17,5.67,5.67,0,0,0-1.14.46l.11-5.87h5.78Z"/><path d="M152.53,237.13h-4.62l-.08,3.41a3.51,3.51,0,0,1,.75-.21,5,5,0,0,1,.77-.06,3.83,3.83,0,0,1,1.46.27,3.22,3.22,0,0,1,1.12.76,3.55,3.55,0,0,1,.74,1.15,4.17,4.17,0,0,1,0,3,3.54,3.54,0,0,1-.8,1.16,3.7,3.7,0,0,1-1.21.76,4,4,0,0,1-1.51.28,3.66,3.66,0,0,1-1.94-.52,3.31,3.31,0,0,1-1.33-1.5l1.15-.5a2.63,2.63,0,0,0,.9,1.07,2.28,2.28,0,0,0,1.32.39,2.57,2.57,0,0,0,1.81-.74,2.36,2.36,0,0,0,.54-.8,2.5,2.5,0,0,0,.2-1,2.79,2.79,0,0,0-.21-1.09,2.65,2.65,0,0,0-.57-.85,2.43,2.43,0,0,0-.88-.55,3.14,3.14,0,0,0-1.12-.2,4.53,4.53,0,0,0-1.21.17,5.67,5.67,0,0,0-1.14.46l.11-5.87h5.77Z"/><path d="M159.59,241.58c0-.28,0-.55,0-.83l-.06-.83h1.14v1.13h0a2.47,2.47,0,0,1,1.06-1,3.13,3.13,0,0,1,1.35-.34,3.79,3.79,0,0,1,.65.07,2.42,2.42,0,0,1,.67.23,2.34,2.34,0,0,1,.6.47,2.85,2.85,0,0,1,.47.79,2.48,2.48,0,0,1,1-1.14,3.07,3.07,0,0,1,3.58.34,3.12,3.12,0,0,1,.69,2.17v4.75H169.7V243a3.17,3.17,0,0,0-.4-1.75,1.65,1.65,0,0,0-1.49-.61,1.87,1.87,0,0,0-1.64.85,3.07,3.07,0,0,0-.36.87,4.9,4.9,0,0,0-.11,1v4h-1V243a3.26,3.26,0,0,0-.4-1.75,1.68,1.68,0,0,0-1.49-.61,4.26,4.26,0,0,0-.44.07,1.62,1.62,0,0,0-.71.35,2.55,2.55,0,0,0-.67.86,3.55,3.55,0,0,0-.29,1.6v3.84h-1.06Z"/><path d="M173.22,241.58c0-.28,0-.55,0-.83l-.06-.83h1.14v1.13h0a2.53,2.53,0,0,1,1.06-1,3.14,3.14,0,0,1,1.36-.34,3.79,3.79,0,0,1,.64.07,2.42,2.42,0,0,1,.67.23,2.34,2.34,0,0,1,.6.47,2.85,2.85,0,0,1,.47.79,2.45,2.45,0,0,1,1-1.14,2.73,2.73,0,0,1,1.44-.42,2.76,2.76,0,0,1,2.13.76,3.12,3.12,0,0,1,.69,2.17v4.75h-1.06V243a3.17,3.17,0,0,0-.4-1.75,1.65,1.65,0,0,0-1.48-.61,1.92,1.92,0,0,0-1,.24,1.87,1.87,0,0,0-.64.61,2.58,2.58,0,0,0-.36.87,4.31,4.31,0,0,0-.12,1v4h-1.05V243a3.26,3.26,0,0,0-.4-1.75,1.67,1.67,0,0,0-1.49-.61l-.44.07a1.62,1.62,0,0,0-.71.35,2.55,2.55,0,0,0-.67.86,3.69,3.69,0,0,0-.29,1.6v3.84h-1.06Z"/></g><line class="cls-2" x1="157.46" y1="38.48" x2="141.77" y2="38.48"/><line class="cls-2" x1="157.46" y1="38.88" x2="157.46" y2="38.02"/><line class="cls-2" x1="141.77" y1="38.93" x2="141.77" y2="37.82"/><line class="cls-2" x1="167.74" y1="226.36" x2="131.33" y2="226.36"/><line class="cls-2" x1="167.74" y1="227.93" x2="167.74" y2="224.56"/><line class="cls-2" x1="131.33" y1="228.11" x2="131.33" y2="223.74"/><path class="cls-3" d="M131.65,215h36.41v2.27H131.65ZM141.77,46.72h15.69V213H141.77ZM144.45,213v2m3.92-2v2m3.44-2v2m3.66-2v2"/></svg>