<svg id="Superloon" xmlns="http://www.w3.org/2000/svg" viewBox="0 0 300 263"><defs><style>.cls-1{isolation:isolate;}.cls-2,.cls-3,.cls-4,.cls-5{fill:none;}.cls-2{stroke:#000;}.cls-2,.cls-4{stroke-width:0.5px;}.cls-3,.cls-4,.cls-5{stroke:#12110b;}.cls-3,.cls-4{stroke-linecap:round;stroke-linejoin:round;}.cls-3,.cls-5{stroke-width:0.25px;}.cls-5{stroke-miterlimit:2;}</style></defs><title>superloon-floor-morrison-flos-F6630009-spech-tech-02-300x263</title><g class="cls-1"><path d="M100.15,160.09v1.15H90.27l1.79,2-.87.72-2.37-2.88v-1Z"/><path d="M95.29,150.94l0,0a1.83,1.83,0,0,1,.28.73,3.69,3.69,0,0,1,.1.84,3.63,3.63,0,0,1-.26,1.37,3.33,3.33,0,0,1-1.84,1.82,3.53,3.53,0,0,1-1.4.27,3.65,3.65,0,0,1-1.43-.28,3.24,3.24,0,0,1-1.1-.76,3.59,3.59,0,0,1-.72-1.17,4.31,4.31,0,0,1,0-2.95,3.44,3.44,0,0,1,.72-1.16,3.13,3.13,0,0,1,1.1-.77,3.65,3.65,0,0,1,1.43-.28,4.29,4.29,0,0,1,1.64.29,8.64,8.64,0,0,1,1.4.69l5,3.06V154Zm-3.15-1.15a2.57,2.57,0,0,0-1,.18,2.18,2.18,0,0,0-.77.52,2.44,2.44,0,0,0-.51.8,3,3,0,0,0,0,2.05,2.44,2.44,0,0,0,.51.8,2.18,2.18,0,0,0,.77.52,2.57,2.57,0,0,0,1,.18,2.64,2.64,0,0,0,1-.18,2.18,2.18,0,0,0,.77-.52,2.29,2.29,0,0,0,.51-.8,3.18,3.18,0,0,0,0-2.05,2.29,2.29,0,0,0-.51-.8,2.18,2.18,0,0,0-.77-.52A2.64,2.64,0,0,0,92.14,149.79Z"/><path d="M89.88,140.28l10.27,4.56v1.3l-10.27-4.66V147H88.82v-6.72Z"/><path d="M100.15,131v7.2H98.82l-4.59-4.51-.54-.51a4.43,4.43,0,0,0-.61-.46,3,3,0,0,0-.67-.34,2.06,2.06,0,0,0-.74-.13,2,2,0,0,0-.83.17,1.79,1.79,0,0,0-.62.47,2.34,2.34,0,0,0-.4.71,2.55,2.55,0,0,0-.13.84,2.33,2.33,0,0,0,.48,1.48,2.21,2.21,0,0,0,1.29.78l-.12,1.22a3.18,3.18,0,0,1-2-1.16,3.54,3.54,0,0,1-.72-2.24,4.26,4.26,0,0,1,.19-1.3,3.2,3.2,0,0,1,.55-1.09,2.71,2.71,0,0,1,.92-.75,2.79,2.79,0,0,1,1.29-.28,3.6,3.6,0,0,1,1.2.2,4.9,4.9,0,0,1,1,.52,6.33,6.33,0,0,1,.91.73c.29.27.57.55.85.84L99.1,137v-6Z"/><path d="M94.33,124.48c-.28,0-.56,0-.83,0s-.56,0-.84.06v-1.14H93.8v0a2.44,2.44,0,0,1-1-1.07,2.94,2.94,0,0,1-.34-1.35,3.07,3.07,0,0,1,.07-.65,2.25,2.25,0,0,1,.23-.66,2.34,2.34,0,0,1,.47-.6,2.28,2.28,0,0,1,.78-.47,2.48,2.48,0,0,1-1.13-1,2.76,2.76,0,0,1-.42-1.45,2.73,2.73,0,0,1,.76-2.12,3.12,3.12,0,0,1,2.17-.69h4.75v1H95.78a3.25,3.25,0,0,0-1.74.4,1.68,1.68,0,0,0-.61,1.49,2,2,0,0,0,.23,1,1.84,1.84,0,0,0,.62.65,2.58,2.58,0,0,0,.87.36,4.31,4.31,0,0,0,1,.11h4v1.06H95.78a3.16,3.16,0,0,0-1.74.4,1.67,1.67,0,0,0-.61,1.49,2.67,2.67,0,0,0,.07.44,1.67,1.67,0,0,0,.35.71,2.53,2.53,0,0,0,.86.66,3.53,3.53,0,0,0,1.6.3h3.84v1.06Z"/><path d="M94.33,110.84c-.28,0-.56,0-.83,0l-.84,0v-1.13H93.8v0a2.41,2.41,0,0,1-1-1.06,2.94,2.94,0,0,1-.34-1.35,3.07,3.07,0,0,1,.07-.65,2.25,2.25,0,0,1,.23-.66,2,2,0,0,1,.47-.6A2.28,2.28,0,0,1,94,105a2.53,2.53,0,0,1-1.13-1,3.07,3.07,0,0,1,.34-3.58,3.12,3.12,0,0,1,2.17-.68h4.75v1H95.78a3.16,3.16,0,0,0-1.74.4,1.67,1.67,0,0,0-.61,1.49,2,2,0,0,0,.23,1,1.93,1.93,0,0,0,.62.65,3.07,3.07,0,0,0,.87.36,4.9,4.9,0,0,0,1,.11h4v1.06H95.78a3.16,3.16,0,0,0-1.74.4,1.65,1.65,0,0,0-.61,1.49,2.67,2.67,0,0,0,.07.44,1.73,1.73,0,0,0,.35.71,2.67,2.67,0,0,0,.86.66,3.53,3.53,0,0,0,1.6.3h3.84v1Z"/></g><line class="cls-2" x1="109.16" y1="48.09" x2="109.16" y2="217.3"/><line class="cls-2" x1="110.73" y1="48.09" x2="107.36" y2="48.09"/><line class="cls-2" x1="110.91" y1="217.3" x2="106.54" y2="217.3"/><g class="cls-1"><path d="M120.51,241.05a3.62,3.62,0,0,1,.68,1.16,4.29,4.29,0,0,1,0,3,3.65,3.65,0,0,1-2.08,2.07,4.15,4.15,0,0,1-1.6.3,4.21,4.21,0,0,1-1.41-.23,3.72,3.72,0,0,1-1.11-.61l-1.07,1.09-.51-.49,1.06-1.09a3.56,3.56,0,0,1-.69-1.18,4.17,4.17,0,0,1-.24-1.43,4.22,4.22,0,0,1,.29-1.57,3.73,3.73,0,0,1,2.08-2.07,4.18,4.18,0,0,1,1.6-.3,4.45,4.45,0,0,1,1.39.22,3.76,3.76,0,0,1,1.15.62l1-1.09.52.49Zm-1.25.26a2.63,2.63,0,0,0-1.8-.63,2.8,2.8,0,0,0-1.18.24,2.45,2.45,0,0,0-.88.63,2.86,2.86,0,0,0-.56.94,3.46,3.46,0,0,0-.2,1.17,3,3,0,0,0,.54,1.82Zm-3.6,4.72a2.85,2.85,0,0,0,.8.45,3.13,3.13,0,0,0,1,.16,2.78,2.78,0,0,0,1.17-.24,2.57,2.57,0,0,0,.89-.63,3,3,0,0,0,.57-.94,3.42,3.42,0,0,0,.2-1.17,3.06,3.06,0,0,0-.55-1.82Z"/><path d="M134.24,237.13l-4.56,10.27h-1.3L133,237.13h-5.52v-1h6.72Z"/><path d="M143.52,247.4h-7.2v-1.32l4.51-4.6.51-.54a4.71,4.71,0,0,0,.47-.61,2.78,2.78,0,0,0,.33-.67,2,2,0,0,0,.13-.74,2.05,2.05,0,0,0-.17-.83,1.79,1.79,0,0,0-.47-.62,2.18,2.18,0,0,0-.7-.39,2.66,2.66,0,0,0-.85-.14,2.28,2.28,0,0,0-1.47.48,2.17,2.17,0,0,0-.79,1.3l-1.21-.13a3.16,3.16,0,0,1,1.16-2,3.49,3.49,0,0,1,2.23-.72,4.59,4.59,0,0,1,1.3.19,3.11,3.11,0,0,1,1.09.55,2.58,2.58,0,0,1,.75.92,2.79,2.79,0,0,1,.28,1.29,3.29,3.29,0,0,1-.2,1.2,4.46,4.46,0,0,1-.52,1,5.71,5.71,0,0,1-.73.91c-.27.29-.55.58-.84.85l-3.56,3.54h6Z"/><path d="M147.71,240.94h.59a4.19,4.19,0,0,0,.95-.11,2.44,2.44,0,0,0,.8-.36,1.79,1.79,0,0,0,.53-.65,2.06,2.06,0,0,0,.2-1,1.82,1.82,0,0,0-.55-1.42,2.23,2.23,0,0,0-1.54-.5,2.52,2.52,0,0,0-1.27.32,2.42,2.42,0,0,0-.89.93l-1-.51a3.42,3.42,0,0,1,1.3-1.36,3.75,3.75,0,0,1,1.83-.44,4.07,4.07,0,0,1,1.27.2,3,3,0,0,1,1,.56,2.76,2.76,0,0,1,1,2.19,2.58,2.58,0,0,1-.15.88,2.72,2.72,0,0,1-.41.75,2.85,2.85,0,0,1-.62.58,2.73,2.73,0,0,1-.74.38l.05,0a2.64,2.64,0,0,1,.88.36,2.67,2.67,0,0,1,.69.65,3.2,3.2,0,0,1,.45.86,3.39,3.39,0,0,1,.16,1,3.2,3.2,0,0,1-.29,1.39,3,3,0,0,1-.78,1,3.34,3.34,0,0,1-1.16.63,4.5,4.5,0,0,1-1.39.22,4.14,4.14,0,0,1-2.17-.55,3.3,3.3,0,0,1-1.4-1.74l1.22-.37a2.37,2.37,0,0,0,.86,1.21,2.77,2.77,0,0,0,1.59.39,2.53,2.53,0,0,0,.91-.16,2.34,2.34,0,0,0,.76-.46,1.93,1.93,0,0,0,.51-.71,2.12,2.12,0,0,0,.19-.91,2.21,2.21,0,0,0-.24-1.08,2.09,2.09,0,0,0-.64-.71,2.81,2.81,0,0,0-.92-.39,4.83,4.83,0,0,0-1.08-.12h-.5Z"/><path d="M158.94,241.58c0-.28,0-.55,0-.83l-.06-.83H160v1.13h0a2.53,2.53,0,0,1,1.06-1,3.14,3.14,0,0,1,1.36-.34,3.68,3.68,0,0,1,.64.07,2.42,2.42,0,0,1,.67.23,2.34,2.34,0,0,1,.6.47,2.85,2.85,0,0,1,.47.79,2.45,2.45,0,0,1,1-1.14,2.73,2.73,0,0,1,1.44-.42,2.76,2.76,0,0,1,2.13.76,3.12,3.12,0,0,1,.69,2.17v4.75h-1.06V243a3.17,3.17,0,0,0-.4-1.75,1.65,1.65,0,0,0-1.48-.61,1.92,1.92,0,0,0-1,.24,1.87,1.87,0,0,0-.64.61,2.58,2.58,0,0,0-.36.87,4.31,4.31,0,0,0-.12,1v4H164V243a3.17,3.17,0,0,0-.4-1.75,1.67,1.67,0,0,0-1.49-.61l-.44.07a1.62,1.62,0,0,0-.71.35,2.55,2.55,0,0,0-.67.86,3.69,3.69,0,0,0-.29,1.6v3.84h-1.06Z"/><path d="M172.57,241.58c0-.28,0-.55,0-.83s0-.56-.06-.83h1.14v1.13h0a2.5,2.5,0,0,1,1.07-1,3.07,3.07,0,0,1,1.35-.34,3.9,3.9,0,0,1,.65.07,2.25,2.25,0,0,1,.66.23,2.34,2.34,0,0,1,.6.47,2.63,2.63,0,0,1,.47.79,2.5,2.5,0,0,1,1-1.14,3.06,3.06,0,0,1,3.57.34,3.12,3.12,0,0,1,.69,2.17v4.75h-1.05V243a3.26,3.26,0,0,0-.4-1.75,1.68,1.68,0,0,0-1.49-.61,1.86,1.86,0,0,0-1,.24,1.81,1.81,0,0,0-.65.61,2.58,2.58,0,0,0-.36.87,4.31,4.31,0,0,0-.11,1v4h-1.06V243a3.17,3.17,0,0,0-.4-1.75,1.67,1.67,0,0,0-1.49-.61l-.44.07a1.67,1.67,0,0,0-.71.35,2.42,2.42,0,0,0-.66.86,3.53,3.53,0,0,0-.3,1.6v3.84h-1.06Z"/></g><line class="cls-2" x1="181.23" y1="226.51" x2="120.74" y2="226.51"/><line class="cls-2" x1="181.23" y1="227.45" x2="181.23" y2="225.43"/><line class="cls-2" x1="120.74" y1="227.56" x2="120.74" y2="224.94"/><g class="cls-1"><path d="M207.77,107a4,4,0,0,1,1.16-.68,4.29,4.29,0,0,1,1.45-.25,4,4,0,0,1,1.57.3,3.73,3.73,0,0,1,2.07,2.08,4.2,4.2,0,0,1,.3,1.61,4.15,4.15,0,0,1-.23,1.4,3.72,3.72,0,0,1-.61,1.11l1.09,1.07-.49.52L213,113.13a3.67,3.67,0,0,1-1.18.69,4.17,4.17,0,0,1-1.43.24,4,4,0,0,1-1.57-.3,3.93,3.93,0,0,1-1.25-.82,3.87,3.87,0,0,1-.82-1.26,4.09,4.09,0,0,1-.3-1.59,4.4,4.4,0,0,1,.22-1.39,3.65,3.65,0,0,1,.62-1.15l-1.09-1.06.49-.51Zm.26,1.25a2.64,2.64,0,0,0-.63,1.81,2.8,2.8,0,0,0,.24,1.18,2.54,2.54,0,0,0,.63.88,3,3,0,0,0,.94.56,3.46,3.46,0,0,0,1.17.2,3,3,0,0,0,1.82-.55Zm4.72,3.6a2.72,2.72,0,0,0,.45-.8,3.11,3.11,0,0,0,.16-1,2.8,2.8,0,0,0-.24-1.18,2.54,2.54,0,0,0-.63-.88,2.64,2.64,0,0,0-.94-.57,3.2,3.2,0,0,0-1.17-.2,3.13,3.13,0,0,0-1.82.54Z"/><path d="M203.85,93.31l10.27,4.56v1.29l-10.27-4.65V100h-1V93.31Z"/><path d="M203.85,84.55v4.63l3.41.08a3.51,3.51,0,0,1-.21-.75,5.09,5.09,0,0,1-.06-.77,3.8,3.8,0,0,1,.27-1.46,3.26,3.26,0,0,1,.76-1.13,3.52,3.52,0,0,1,1.15-.73,4,4,0,0,1,3,0,3.39,3.39,0,0,1,1.16.8,3.6,3.6,0,0,1,.76,1.21,3.94,3.94,0,0,1,.28,1.51,3.66,3.66,0,0,1-.52,1.94,3.37,3.37,0,0,1-1.5,1.33l-.5-1.16a2.61,2.61,0,0,0,1.07-.89,2.28,2.28,0,0,0,.39-1.32,2.6,2.6,0,0,0-.2-1,2.46,2.46,0,0,0-.54-.8,2.53,2.53,0,0,0-.8-.55,2.5,2.5,0,0,0-1-.19,2.78,2.78,0,0,0-1.09.2,2.52,2.52,0,0,0-.85.58,2.35,2.35,0,0,0-.55.88,3.1,3.1,0,0,0-.2,1.12,4.59,4.59,0,0,0,.17,1.21,5.67,5.67,0,0,0,.46,1.14l-5.87-.11V84.55Z"/><path d="M210.38,76.44V74.81h1.06v1.63h2.68v1.15h-2.68v4.9h-1.32l-7.32-4.58V76.44ZM204,77.59v0l6.43,3.9V77.59Z"/><path d="M208.3,68.6c-.28,0-.55,0-.83,0l-.83.05V67.55h1.13v0a2.41,2.41,0,0,1-1-1.06,3.07,3.07,0,0,1-.34-1.35,3.9,3.9,0,0,1,.07-.65,2.25,2.25,0,0,1,.23-.66,2,2,0,0,1,.47-.6,2.64,2.64,0,0,1,.79-.48,2.48,2.48,0,0,1-1.14-1,3.07,3.07,0,0,1,.34-3.58,3.12,3.12,0,0,1,2.17-.69h4.75v1.06h-4.36a3.17,3.17,0,0,0-1.75.4,1.67,1.67,0,0,0-.61,1.49,1.87,1.87,0,0,0,.85,1.64,3.07,3.07,0,0,0,.87.36,4.9,4.9,0,0,0,1,.11h4v1.06h-4.36A3.17,3.17,0,0,0,208,64a1.65,1.65,0,0,0-.61,1.48,4.26,4.26,0,0,0,.07.44,1.71,1.71,0,0,0,.35.72,2.67,2.67,0,0,0,.86.66,3.53,3.53,0,0,0,1.6.3h3.84v1Z"/><path d="M208.3,55l-.83,0-.83.06V53.91h1.13v0a2.41,2.41,0,0,1-1-1.06,3.13,3.13,0,0,1-.34-1.35,3.79,3.79,0,0,1,.07-.65,2.42,2.42,0,0,1,.23-.67,2.34,2.34,0,0,1,.47-.6,2.85,2.85,0,0,1,.79-.47,2.48,2.48,0,0,1-1.14-1,3.07,3.07,0,0,1,.34-3.58,3.12,3.12,0,0,1,2.17-.69h4.75v1.06h-4.36a3.17,3.17,0,0,0-1.75.4,1.65,1.65,0,0,0-.61,1.49,1.91,1.91,0,0,0,.24,1,2,2,0,0,0,.61.65,3.07,3.07,0,0,0,.87.36,4.9,4.9,0,0,0,1,.11h4v1h-4.36a3.26,3.26,0,0,0-1.75.4,1.68,1.68,0,0,0-.61,1.49,4.26,4.26,0,0,0,.07.44,1.62,1.62,0,0,0,.35.71,2.55,2.55,0,0,0,.86.67,3.69,3.69,0,0,0,1.6.29h3.84V55Z"/></g><line class="cls-2" x1="192.48" y1="47.44" x2="192.48" y2="109.87"/><line class="cls-2" x1="193.43" y1="47.44" x2="191.41" y2="47.44"/><line class="cls-2" x1="193.54" y1="109.87" x2="190.92" y2="109.87"/><line class="cls-3" x1="175.53" y1="94.76" x2="175.5" y2="94.74"/><line class="cls-3" x1="174.87" y1="95.65" x2="174.84" y2="95.63"/><polyline class="cls-3" points="127.63 59.35 127.5 59.53 127.37 59.7 127.25 59.88 127.12 60.05 127 60.22 126.87 60.4 126.75 60.58 126.63 60.76 126.52 60.94 126.4 61.12 126.28 61.3 126.17 61.48 126.06 61.66 125.94 61.85 125.83 62.03 125.72 62.22 125.61 62.4 125.51 62.59 125.4 62.77 125.3 62.96 125.2 63.15 125.1 63.34 125 63.53 124.9 63.72 124.8 63.91 124.71 64.11 124.61 64.3 124.52 64.49 124.43 64.69 124.34 64.88 124.25 65.08 124.17 65.28 124.08 65.47 124 65.67 123.92 65.87 123.83 66.07 123.75 66.27 123.68 66.47 123.6 66.67 123.52 66.87 123.45 67.07 123.38 67.27 123.31 67.47 123.24 67.68 123.17 67.88 123.1 68.09 123.04 68.29 122.97 68.5 122.91 68.7 122.85 68.91 122.79 69.11 122.74 69.32 122.68 69.53 122.63 69.74 122.57 69.94 122.52 70.15 122.47 70.36 122.42 70.57 122.38 70.78 122.33 70.99 122.29 71.2 122.25 71.41 122.21 71.62 122.17 71.83 122.13 72.05 122.09 72.26 122.06 72.47 122.02 72.68 121.99 72.89 121.96 73.11 121.94 73.32 121.91 73.53 121.88 73.75 121.86 73.96 121.84 74.17 121.82 74.39 121.8 74.6 121.78 74.81 121.77 75.03 121.75 75.24 121.74 75.46 121.73 75.67 121.72 75.89 121.71 76.1 121.7 76.32 121.7 76.53 121.7 76.74 121.69 76.96 121.69 77.17 121.7 77.39 121.7 77.61 121.7 77.82 121.71 78.04 121.72 78.25 121.73 78.46 121.74 78.68 121.75 78.89 121.76 79.11 121.78 79.32 121.8 79.54 121.81 79.75 121.83 79.96 121.86 80.17 121.88 80.39 121.9 80.6 121.93 80.82 121.96 81.03 121.99 81.24 122.02 81.45 122.05 81.67 122.08 81.88 122.12 82.09 122.16 82.3 122.2 82.52 122.24 82.72 122.28 82.94 122.32 83.14 122.37 83.35 122.41 83.57 122.46 83.78 122.51 83.98 122.56 84.19 122.61 84.4 122.67 84.61 122.72 84.81 122.78 85.02 122.84 85.23 122.9 85.44 122.96 85.64 123.02 85.85 123.09 86.05 123.15 86.25 123.22 86.46 123.29 86.66 123.36 86.87 123.44 87.07 123.51 87.27 123.58 87.47 123.66 87.67 123.74 87.87 123.82 88.07 123.9 88.27 123.98 88.47 124.06 88.67 124.15 88.86 124.24 89.06 124.32 89.26 124.41 89.45 124.5 89.65 124.6 89.84 124.69 90.03 124.78 90.22 124.88 90.42 124.98 90.61 125.08 90.8 125.18 90.99 125.28 91.18 125.39 91.37 125.49 91.56 125.59 91.74 125.7 91.93 125.81 92.11 125.92 92.3 126.03 92.48 126.15 92.66 126.26 92.84 126.38 93.03 126.49 93.21 126.61 93.39 126.73 93.56 126.85 93.74 126.97 93.92 127.09 94.09 127.22 94.27 127.35 94.44 127.47 94.62 127.6 94.79 127.73 94.96 127.86 95.13 127.99 95.3 128.13 95.47 128.26 95.64 128.4 95.8 128.53 95.97 128.67 96.13 128.81 96.3 128.95 96.46 129.09 96.62 129.24 96.78 129.38 96.94 129.53 97.1 129.67 97.25 129.82 97.41 129.97 97.56 130.12 97.72 130.27 97.87 130.42 98.02 130.58 98.17 130.73 98.32 130.88 98.47 131.04 98.62 131.2 98.77 131.36 98.91 131.52 99.05 131.68 99.2 131.84 99.34 132 99.48 132.16 99.62 132.33 99.75 132.5 99.89 132.66 100.03 132.83 100.16 133 100.29 133.17 100.43 133.34 100.56 133.51 100.68 133.68 100.81 133.85 100.94 134.03 101.07 134.21 101.19 134.38 101.31 134.56 101.44 134.74 101.55 134.92 101.67 135.09 101.79 135.27 101.91 135.46 102.02 135.64 102.14 135.82 102.25 136 102.36 136.19 102.47 136.38 102.58 136.56 102.69 136.75 102.79 136.94 102.9 137.13 103 137.31 103.1 137.5 103.2 137.7 103.3 137.89 103.4 138.08 103.49 138.27 103.59 138.47 103.68 138.66 103.77 138.85 103.86 139.05 103.95 139.24 104.04 139.44 104.13 139.64 104.21 139.84 104.29 140.03 104.38 140.24 104.46 140.44 104.54 140.63 104.61 140.84 104.69 141.04 104.76 141.24 104.84 141.44 104.91 141.64 104.98 141.85 105.05 142.05 105.11 142.26 105.18 142.46 105.24 142.67 105.31 142.87 105.37 143.08 105.43 143.29 105.48 143.49 105.54 143.7 105.6 143.91 105.65 144.12 105.7 144.33 105.75 144.54 105.8 144.75 105.85 144.95 105.9 145.16 105.94 145.38 105.98 145.58 106.02 145.8 106.06 146.01 106.1 146.22 106.14 146.43 106.17 146.64 106.21 146.86 106.24 147.07 106.27 147.28 106.3 147.49 106.33 147.71 106.35 147.92 106.38 148.13 106.4 148.35 106.42 148.56 106.44 148.78 106.46 148.99 106.48 149.2 106.49 149.42 106.51 149.63 106.52 149.85 106.53 150.06 106.54 150.28 106.54 150.49 106.55 150.71 106.55 150.92 106.55 151.14 106.56 151.35 106.55 151.57 106.55 151.78 106.55 151.99 106.55 152.21 106.54 152.43 106.53 152.64 106.52 152.85 106.51 153.07 106.49 153.28 106.48 153.5 106.46 153.71 106.44 153.93 106.43 154.14 106.41 154.35 106.38 154.56 106.36 154.78 106.33 154.99 106.31 155.2 106.28 155.26 106.27"/><line class="cls-3" x1="126.79" y1="59.42" x2="126.82" y2="59.44"/><line class="cls-3" x1="127.45" y1="58.53" x2="127.49" y2="58.55"/><polyline class="cls-3" points="175.17 95.19 175.3 95.01 175.43 94.84 175.56 94.67 175.68 94.49 175.81 94.32 175.93 94.14 176.05 93.96 176.17 93.78 176.29 93.6 176.4 93.43 176.52 93.24 176.63 93.06 176.75 92.88 176.86 92.7 176.97 92.51 177.08 92.33 177.19 92.14 177.3 91.96 177.4 91.77 177.51 91.58 177.61 91.39 177.71 91.2 177.81 91.01 177.91 90.82 178.01 90.63 178.1 90.44 178.2 90.25 178.29 90.05 178.38 89.86 178.47 89.66 178.56 89.47 178.65 89.27 178.74 89.08 178.82 88.88 178.9 88.68 178.99 88.48 179.07 88.28 179.15 88.08 179.22 87.89 179.3 87.68 179.38 87.48 179.45 87.28 179.52 87.08 179.59 86.88 179.66 86.67 179.73 86.47 179.79 86.26 179.86 86.06 179.92 85.86 179.99 85.65 180.05 85.44 180.1 85.24 180.16 85.03 180.22 84.82 180.27 84.61 180.32 84.41 180.38 84.2 180.43 83.99 180.48 83.78 180.52 83.57 180.57 83.36 180.61 83.15 180.66 82.94 180.69 82.73 180.73 82.52 180.77 82.31 180.81 82.09 180.84 81.88 180.88 81.67 180.91 81.46 180.94 81.25 180.97 81.03 181 80.82 181.02 80.61 181.05 80.39 181.07 80.18 181.09 79.97 181.11 79.75 181.13 79.54 181.15 79.32 181.16 79.11 181.17 78.89 181.19 78.68 181.2 78.47 181.21 78.25 181.21 78.04 181.22 77.82 181.22 77.61 181.23 77.39 181.23 77.18 181.23 76.96 181.23 76.75 181.22 76.53 181.22 76.32 181.21 76.11 181.2 75.89 181.19 75.67 181.19 75.46 181.17 75.24 181.16 75.03 181.14 74.82 181.13 74.6 181.11 74.39 181.09 74.17 181.06 73.96 181.04 73.75 181.02 73.53 180.99 73.32 180.97 73.11 180.93 72.89 180.9 72.68 180.87 72.47 180.84 72.26 180.8 72.05 180.77 71.83 180.73 71.62 180.69 71.41 180.65 71.2 180.6 70.99 180.56 70.78 180.51 70.57 180.47 70.36 180.42 70.15 180.37 69.94 180.32 69.73 180.26 69.53 180.21 69.32 180.15 69.11 180.09 68.91 180.03 68.7 179.97 68.49 179.91 68.29 179.85 68.08 179.78 67.88 179.72 67.67 179.65 67.47 179.58 67.27 179.51 67.06 179.44 66.86 179.36 66.66 179.28 66.46 179.21 66.26 179.13 66.06 179.05 65.86 178.97 65.66 178.89 65.46 178.81 65.26 178.72 65.07 178.63 64.87 178.55 64.67 178.46 64.48 178.36 64.28 178.27 64.09 178.18 63.9 178.09 63.7 177.99 63.51 177.89 63.32 177.79 63.13 177.69 62.94 177.59 62.75 177.49 62.56 177.38 62.38 177.28 62.19 177.17 62 177.06 61.81 176.95 61.63 176.84 61.45 176.73 61.26 176.62 61.08 176.5 60.9 176.38 60.72 176.26 60.54 176.15 60.36 176.03 60.19 175.91 60.01 175.78 59.83 175.66 59.65 175.53 59.48 175.41 59.31 175.28 59.13 175.15 58.96 175.02 58.79 174.89 58.62 174.76 58.45 174.62 58.28 174.49 58.12 174.35 57.95 174.22 57.79 174.08 57.62 173.94 57.46 173.8 57.3 173.66 57.14 173.51 56.98 173.37 56.82 173.22 56.66 173.07 56.5 172.93 56.34 172.78 56.19 172.63 56.04 172.48 55.88 172.32 55.73 172.17 55.58 172.02 55.43 171.86 55.28 171.71 55.14 171.55 54.99 171.39 54.84 171.23 54.7 171.07 54.56 170.91 54.42 170.75 54.27 170.59 54.14 170.42 54 170.25 53.86 170.09 53.73 169.92 53.59 169.75 53.46 169.58 53.33 169.41 53.19 169.24 53.07 169.07 52.94 168.9 52.81 168.72 52.68 168.55 52.56 168.37 52.44 168.2 52.31 168.02 52.19 167.84 52.07 167.66 51.95 167.48 51.84 167.3 51.72 167.12 51.6 166.94 51.49 166.75 51.38 166.57 51.27 166.38 51.16 166.2 51.05 166.01 50.94 165.82 50.84 165.63 50.73 165.45 50.63 165.26 50.53 165.07 50.43 164.88 50.33 164.69 50.23 164.49 50.14 164.3 50.04 164.11 49.95 163.91 49.86 163.72 49.77 163.52 49.68 163.33 49.59 163.13 49.51 162.93 49.42 162.74 49.34 162.54 49.26 162.34 49.18 162.14 49.1 161.94 49.02 161.74 48.94 161.53 48.87 161.34 48.8 161.13 48.72 160.93 48.65 160.73 48.58 160.52 48.52 160.32 48.45 160.11 48.38 159.91 48.32 159.7 48.26 159.5 48.2 159.29 48.14 159.1 48.09"/><polyline class="cls-3" points="125.47 92.72 125.58 92.9 125.7 93.08 125.81 93.27 125.93 93.45 126.05 93.63 126.17 93.8 126.29 93.98 126.41 94.16 126.53 94.34 126.66 94.51 126.78 94.69 126.91 94.86 127.03 95.03 127.16 95.2 127.29 95.38 127.42 95.55 127.56 95.72 127.69 95.88 127.82 96.05 127.96 96.22 128.1 96.38 128.24 96.55 128.38 96.71 128.52 96.87 128.66 97.03 128.8 97.19 128.95 97.35 129.09 97.51 129.24 97.67 129.38 97.82 129.53 97.98 129.68 98.13 129.83 98.29 129.99 98.44 130.14 98.59 130.29 98.74 130.45 98.89 130.6 99.03 130.76 99.18 130.92 99.33 131.08 99.47 131.24 99.61 131.4 99.75 131.56 99.89 131.73 100.03 131.89 100.17 132.06 100.31 132.22 100.44 132.39 100.58 132.56 100.71 132.73 100.84 132.9 100.97 133.07 101.11 133.24 101.23 133.41 101.36 133.59 101.49 133.76 101.61 133.94 101.73 134.11 101.86 134.29 101.98 134.47 102.1 134.65 102.22 134.83 102.34 135.01 102.45 135.19 102.57 135.37 102.68 135.56 102.79 135.74 102.9 135.93 103.01 136.11 103.12 136.3 103.23 136.48 103.33 136.67 103.44 136.86 103.54 137.05 103.64 137.24 103.74 137.43 103.84 137.62 103.94 137.81 104.03 138.01 104.13 138.2 104.22 138.4 104.31 138.59 104.4 138.79 104.49 138.98 104.58 139.18 104.67 139.37 104.75 139.57 104.84 139.77 104.92 139.97 105 140.17 105.08 140.37 105.15 140.57 105.23 140.77 105.31 140.97 105.38 141.18 105.45 141.38 105.52 141.58 105.59 141.79 105.66 141.99 105.72 142.2 105.79 142.4 105.85 142.6 105.92 142.81 105.97 143.02 106.03 143.23 106.09 143.43 106.15 143.64 106.2 143.85 106.25 144.06 106.31 144.27 106.36 144.47 106.41 144.68 106.45 144.9 106.5 145.11 106.54 145.32 106.58 145.53 106.62 145.74 106.66 145.95 106.7 146.16 106.74 146.37 106.78 146.58 106.81 146.8 106.84 147.01 106.87 147.22 106.9 147.44 106.93 147.65 106.95 147.86 106.98 148.08 107 148.29 107.02 148.5 107.04 148.72 107.06 148.93 107.08 149.15 107.09 149.36 107.1 149.58 107.11 149.79 107.13 150 107.14 150.22 107.14 150.43 107.15 150.65 107.15 150.86 107.16 151.08 107.16 151.29 107.16 151.51 107.15 151.72 107.15 151.94 107.15 152.15 107.14 152.37 107.13 152.58 107.12 152.79 107.11 153.01 107.1 153.22 107.09 153.44 107.07 153.65 107.05 153.87 107.04 154.08 107.02 154.29 106.99 154.51 106.97 154.72 106.94 154.93 106.92 155.15 106.89 155.36 106.86 155.57 106.83 155.78 106.8 156 106.77 156.21 106.73 156.42 106.69 156.63 106.66 156.84 106.61 157.05 106.58 157.26 106.53 157.47 106.49 157.68 106.44 157.89 106.39 158.1 106.34 158.31 106.3 158.52 106.24 158.73 106.19 158.93 106.14 159.14 106.08 159.35 106.02 159.56 105.96 159.76 105.9 159.97 105.84 160.17 105.78 160.38 105.71 160.58 105.64 160.78 105.58 160.99 105.51 161.19 105.44 161.39 105.36 161.59 105.29 161.79 105.22 162 105.14 162.2 105.06 162.4 104.98 162.6 104.9 162.79 104.82 162.99 104.73 163.19 104.65 163.38 104.56 163.58 104.47 163.78 104.38 163.97 104.29 164.17 104.2 164.36 104.11 164.55 104.01 164.74 103.92 164.93 103.82 165.12 103.72 165.31 103.62 165.5 103.52 165.69 103.42 165.88 103.31 166.07 103.2 166.25 103.1 166.44 102.99 166.62 102.88 166.81 102.77 166.99 102.65 167.17 102.54 167.35 102.43 167.53 102.31 167.71 102.19 167.89 102.07 168.07 101.95 168.25 101.83 168.42 101.71 168.6 101.58 168.77 101.46 168.95 101.33 169.12 101.2 169.29 101.08 169.46 100.95 169.63 100.81 169.8 100.68 169.97 100.55 170.14 100.41 170.3 100.28 170.47 100.14 170.63 100 170.79 99.86 170.96 99.72 171.12 99.58 171.28 99.44 171.44 99.29 171.6 99.15 171.75 99 171.91 98.85 172.06 98.7 172.22 98.55 172.37 98.4 172.52 98.25 172.67 98.1 172.82 97.94 172.97 97.79 173.12 97.63 173.26 97.47 173.41 97.32 173.55 97.16 173.69 97 173.84 96.83 173.98 96.67 174.12 96.51 174.25 96.34 174.39 96.18 174.53 96.01 174.66 95.84 174.79 95.68 174.93 95.51 175.06 95.34 175.17 95.19"/><polyline class="cls-4" points="159.1 48.09 158.9 48.03 158.69 47.98 158.48 47.92 158.27 47.87 158.06 47.83 157.85 47.78 157.64 47.73 157.43 47.68 157.22 47.64 157.01 47.59 156.8 47.56 156.59 47.52 156.38 47.48 156.17 47.44 155.96 47.41 155.75 47.37 155.53 47.34 155.32 47.31 155.11 47.28 154.9 47.25 154.68 47.23 154.47 47.2 154.25 47.18 154.04 47.16 153.83 47.14 153.61 47.12 153.4 47.1 153.19 47.09 152.97 47.08 152.75 47.06 152.54 47.05 152.33 47.04 152.11 47.04 151.9 47.03 151.68 47.03 151.47 47.02 151.25 47.02 151.04 47.02 150.82 47.02 150.61 47.03 150.39 47.03 150.18 47.04 149.96 47.04 149.75 47.05 149.54 47.06 149.32 47.08 149.11 47.09 148.89 47.11 148.68 47.12 148.46 47.14 148.25 47.16 148.04 47.18 147.82 47.21 147.61 47.23 147.4 47.26 147.18 47.29 146.97 47.31"/><polyline class="cls-3" points="146.97 47.31 146.76 47.34 146.55 47.38 146.34 47.41 146.13 47.45 145.91 47.48 145.7 47.52 145.49 47.56 145.28 47.6 145.07 47.64 144.86 47.69 144.65 47.73 144.44 47.78 144.23 47.83 144.02 47.88 143.81 47.93 143.61 47.99 143.4 48.04 143.19 48.09 142.99 48.15 142.78 48.21 142.57 48.27 142.37 48.34 142.16 48.4 141.96 48.47 141.75 48.53 141.55 48.6 141.35 48.67 141.14 48.74 140.94 48.81 140.74 48.88 140.54 48.96 140.34 49.04 140.14 49.11 139.94 49.19 139.74 49.27 139.54 49.36 139.34 49.44 139.15 49.53 138.95 49.61 138.75 49.7 138.56 49.79 138.36 49.88 138.17 49.97 137.98 50.06 137.78 50.16 137.59 50.26 137.4 50.35 137.21 50.45 137.02 50.55 136.83 50.66 136.64 50.76 136.45 50.86 136.27 50.97 136.08 51.08 135.9 51.18 135.71 51.29 135.53 51.41 135.34 51.52 135.16 51.63 134.98 51.74 134.8 51.86 134.62 51.98 134.44 52.1 134.26 52.22 134.09 52.34 133.91 52.46 133.73 52.59 133.56 52.71 133.39 52.84 133.21 52.97 133.04 53.09 132.87 53.22 132.7 53.36 132.53 53.49 132.36 53.62 132.19 53.76 132.03 53.89 131.86 54.03 131.7 54.17 131.54 54.31 131.37 54.45 131.21 54.59 131.05 54.73 130.9 54.88 130.74 55.02 130.58 55.17 130.42 55.32 130.27 55.47 130.11 55.61 129.96 55.77 129.81 55.92 129.66 56.07 129.51 56.22 129.36 56.38 129.21 56.54 129.07 56.69 128.92 56.85 128.78 57.01 128.63 57.17 128.49 57.33 128.35 57.5 128.21 57.66 128.08 57.82 127.94 57.99 127.8 58.15 127.67 58.32 127.53 58.49 127.4 58.66 127.27 58.83 127.14 59 127.01 59.17 126.89 59.34 126.76 59.52 126.63 59.69 126.51 59.87 126.39 60.05 126.27 60.22 126.15 60.4 126.03 60.58 125.91 60.76 125.8 60.94 125.68 61.12 125.57 61.31 125.45 61.49 125.34 61.67 125.24 61.86 125.13 62.04 125.02 62.23 124.92 62.42 124.81 62.61 124.71 62.79 124.61 62.98 124.51 63.17 124.41 63.36 124.31 63.55 124.22 63.75 124.12 63.94 124.03 64.13 123.93 64.33 123.84 64.52 123.75 64.72 123.67 64.92 123.58 65.11 123.5 65.31 123.41 65.51 123.33 65.7 123.25 65.9 123.17 66.1 123.09 66.3 123.02 66.5 122.94 66.71 122.87 66.91 122.8 67.11 122.73 67.31 122.66 67.52 122.59 67.72 122.52 67.92 122.46 68.13 122.4 68.33 122.33 68.54 122.27 68.75 122.22 68.95 122.16 69.16 122.1 69.37 122.05 69.57 121.99 69.78 121.94 69.99 121.89 70.2 121.84 70.41 121.8 70.62 121.75 70.83 121.71 71.04 121.67 71.25 121.62 71.46 121.58 71.67 121.55 71.88 121.51 72.09 121.47 72.31 121.44 72.52 121.41 72.73 121.38 72.94 121.35 73.16 121.32 73.37 121.3 73.58 121.27 73.8 121.25 74.01 121.23 74.22 121.21 74.44 121.19 74.65 121.17 74.86 121.16 75.08 121.14 75.29 121.13 75.51 121.12 75.72 121.11 75.94 121.11 76.15 121.1 76.37 121.1 76.58 121.09 76.8 121.09 77.01 121.09 77.23 121.09 77.44 121.1 77.66 121.1 77.87 121.11 78.08 121.12 78.3 121.13 78.51 121.14 78.73 121.15 78.94 121.16 79.16 121.18 79.37 121.2 79.58 121.22 79.8 121.24 80.02 121.26 80.23 121.28 80.44 121.31 80.65 121.33 80.87 121.36 81.08 121.39 81.29 121.42 81.51 121.45 81.72 121.48 81.93 121.52 82.14 121.56 82.35 121.6 82.56 121.64 82.78 121.67 82.99 121.72 83.2 121.76 83.41 121.81 83.62 121.86 83.83 121.91 84.04 121.96 84.25 122.01 84.45 122.06 84.66 122.11 84.87 122.17 85.08 122.23 85.28 122.29 85.49 122.35 85.69 122.41 85.9 122.47 86.11 122.54 86.31 122.61 86.52 122.67 86.72 122.75 86.92 122.81 87.13 122.89 87.33 122.96 87.53 123.04 87.73 123.11 87.93 123.19 88.13 123.27 88.33 123.35 88.53 123.44 88.73 123.52 88.92 123.61 89.12 123.69 89.32 123.78 89.51 123.87 89.71 123.96 89.9 124.05 90.1 124.14 90.29 124.24 90.48 124.34 90.68 124.43 90.87 124.53 91.06 124.63 91.25 124.74 91.44 124.84 91.63 124.94 91.81 125.05 92 125.16 92.19 125.26 92.37 125.38 92.56 125.47 92.72"/><polyline class="cls-3" points="174.69 94.82 174.82 94.65 174.95 94.48 175.08 94.3 175.2 94.13 175.32 93.95 175.45 93.78 175.57 93.6 175.69 93.42 175.81 93.24 175.92 93.06 176.04 92.88 176.15 92.7 176.27 92.52 176.38 92.33 176.49 92.15 176.6 91.97 176.71 91.78 176.81 91.59 176.92 91.4 177.02 91.22 177.12 91.03 177.22 90.84 177.32 90.65 177.42 90.45 177.52 90.26 177.61 90.07 177.71 89.88 177.8 89.69 177.89 89.49 177.98 89.3 178.07 89.1 178.16 88.9 178.24 88.71 178.32 88.51 178.41 88.31 178.49 88.11 178.57 87.91 178.65 87.71 178.72 87.51 178.8 87.31 178.87 87.11 178.94 86.91 179.02 86.7 179.09 86.5 179.15 86.3 179.22 86.09 179.28 85.89 179.35 85.68 179.41 85.48 179.47 85.27 179.53 85.06 179.59 84.86 179.64 84.65 179.69 84.44 179.75 84.23 179.8 84.02 179.85 83.81 179.9 83.61 179.94 83.4 179.99 83.19 180.03 82.98 180.08 82.77 180.12 82.55 180.16 82.34 180.19 82.13 180.23 81.92 180.26 81.71 180.29 81.5 180.33 81.28 180.36 81.07 180.39 80.86 180.41 80.64 180.44 80.43 180.46 80.22 180.48 80.01 180.5 79.79 180.52 79.58 180.54 79.36 180.56 79.15 180.57 78.94 180.58 78.72 180.59 78.5 180.6 78.29 180.61 78.08 180.62 77.86 180.62 77.65 180.63 77.43 180.63 77.22 180.63 77 180.63 76.79 180.62 76.58 180.62 76.36 180.61 76.14 180.6 75.93 180.59 75.71 180.59 75.5 180.57 75.29 180.56 75.07 180.54 74.86 180.53 74.64 180.51 74.43 180.49 74.22 180.46 74 180.44 73.79 180.42 73.57 180.39 73.36 180.36 73.15 180.33 72.94 180.3 72.72 180.27 72.51 180.23 72.3 180.2 72.09 180.16 71.88 180.13 71.67 180.08 71.45 180.04 71.24 180 71.03 179.95 70.82 179.91 70.61 179.86 70.4 179.81 70.19 179.76 69.99 179.71 69.78 179.65 69.57 179.6 69.36 179.54 69.16 179.48 68.95 179.42 68.74 179.36 68.54 179.29 68.33 179.23 68.13 179.16 67.92 179.1 67.72 179.03 67.52 178.96 67.31 178.88 67.11 178.81 66.91 178.74 66.71 178.66 66.51 178.58 66.31 178.5 66.11 178.43 65.91 178.34 65.71 178.26 65.51 178.17 65.32 178.09 65.12 178 64.92 177.91 64.73 177.82 64.53 177.72 64.34 177.63 64.15 177.54 63.95 177.44 63.76 177.34 63.57 177.24 63.38 177.14 63.19 177.04 63 176.94 62.81 176.83 62.62 176.73 62.44 176.62 62.25 176.51 62.07 176.4 61.88 176.29 61.7 176.18 61.52 176.06 61.33 175.94 61.15 175.83 60.97 175.71 60.79 175.59 60.62 175.47 60.44 175.35 60.26 175.22 60.09 175.1 59.91 174.98 59.74 174.85 59.56 174.72 59.39 174.59 59.22 174.46 59.05 174.33 58.88 174.19 58.71 174.06 58.54 173.92 58.38 173.78 58.21 173.65 58.05 173.51 57.88 173.37 57.72 173.23 57.56 173.09 57.4 172.94 57.24 172.79 57.08 172.65 56.92 172.5 56.77 172.35 56.62 172.2 56.46 172.05 56.31 171.9 56.16 171.75 56.01 171.59 55.86 171.44 55.71 171.28 55.56 171.12 55.41 170.96 55.27 170.81 55.13 170.65 54.98 170.48 54.84 170.32 54.7 170.16 54.56 169.99 54.42 169.82 54.29 169.66 54.15 169.49 54.02 169.32 53.88 169.15 53.75 168.98 53.62 168.81 53.49 168.64 53.37 168.47 53.24 168.29 53.11 168.11 52.99 167.94 52.87 167.76 52.74 167.58 52.62 167.41 52.51 167.23 52.39 167.04 52.27 166.86 52.16 166.68 52.04 166.5 51.93 166.31 51.82 166.13 51.71 165.94 51.6 165.76 51.49 165.57 51.39 165.38 51.28 165.2 51.18 165.01 51.08 164.82 50.98 164.63 50.88 164.44 50.78 164.24 50.69 164.05 50.59 163.86 50.5 163.66 50.41 163.47 50.32 163.27 50.23 163.07 50.14 162.88 50.05 162.68 49.97 162.48 49.88 162.29 49.8 162.09 49.72 161.89 49.64 161.69 49.56 161.49 49.49 161.28 49.42 161.08 49.34 160.88 49.27 160.68 49.2 160.47 49.13 160.27 49.06 160.06 49 159.86 48.94 159.65 48.87 159.45 48.81 159.24 48.75 159.03 48.7 158.83 48.64 158.62 48.58 158.41 48.53 158.2 48.48 158 48.43 157.79 48.38 157.58 48.33 157.37 48.28 157.16 48.24 156.95 48.2 156.73 48.16 156.53 48.11 156.31 48.08 156.1 48.04 155.89 48 155.68 47.97 155.46 47.94 155.25 47.91 155.04 47.88 154.83 47.85 154.61 47.83 154.4 47.8 154.19 47.78 153.97 47.76 153.76 47.74 153.55 47.72 153.33 47.7 153.12 47.69 152.9 47.67 152.69 47.66 152.47 47.65 152.26 47.64 152.04 47.63 151.83 47.63 151.62 47.63 151.4 47.62 151.19 47.62 150.97 47.62 150.75 47.63 150.54 47.63 150.33 47.63 150.11 47.64 149.9 47.65 149.68 47.66 149.47 47.67 149.25 47.68 149.04 47.7 148.82 47.72 148.61 47.73 148.4 47.75 148.18 47.77 147.97 47.8 147.76 47.82 147.54 47.84 147.33 47.87 147.12 47.9 146.91 47.93 146.69 47.96 146.48 47.99 146.27 48.03 146.06 48.07 145.84 48.1 145.63 48.14 145.42 48.19 145.21 48.23 145 48.27 144.79 48.32 144.58 48.37 144.38 48.41 144.17 48.47 143.96 48.52 143.75 48.57 143.54 48.63 143.33 48.68 143.13 48.74 142.92 48.8 142.71 48.86 142.51 48.92 142.31 48.99 142.1 49.05 141.9 49.12 141.69 49.19 141.49 49.26 141.29 49.33 141.08 49.4 140.88 49.47 140.68 49.55 140.48 49.63 140.28 49.7 140.08 49.78 139.88 49.87 139.68 49.95 139.49 50.03 139.29 50.12 139.09 50.21 138.9 50.3 138.71 50.39 138.51 50.48 138.32 50.57 138.12 50.66 137.93 50.76 137.74 50.86 137.55 50.96 137.36 51.06 137.17 51.16 136.98 51.26 136.79 51.36 136.6 51.47 136.42 51.58 136.23 51.68 136.05 51.79 135.87 51.91 135.68 52.02 135.5 52.13 135.32 52.24 135.14 52.36 134.96 52.48 134.78 52.6 134.6 52.72 134.42 52.84 134.25 52.96 134.07 53.08 133.9 53.21 133.72 53.34 133.55 53.46 133.38 53.59 133.21 53.72 133.04 53.85 132.87 53.99 132.7 54.12 132.53 54.26 132.37 54.39 132.2 54.53 132.04 54.67 131.88 54.81 131.71 54.95 131.55 55.09 131.4 55.24 131.23 55.38 131.08 55.53 130.92 55.67 130.76 55.82 130.61 55.97 130.46 56.12 130.3 56.27 130.15 56.42 130 56.58 129.85 56.73 129.71 56.89 129.56 57.05 129.42 57.21 129.27 57.36 129.13 57.52 128.99 57.69 128.84 57.85 128.7 58.01 128.57 58.17 128.43 58.34 128.29 58.51 128.16 58.67 128.03 58.84 127.89 59.01 127.76 59.18 127.63 59.35 127.5 59.52 127.38 59.7 127.25 59.87 127.12 60.05 127 60.22 126.88 60.4 126.76 60.57 126.64 60.75 126.52 60.93 126.4 61.11 126.28 61.29 126.17 61.47 126.06 61.66 125.94 61.84 125.84 62.02 125.73 62.21 125.62 62.39 125.51 62.58 125.41 62.77 125.3 62.96 125.2 63.15 125.1 63.34 125 63.52 124.9 63.72 124.81 63.91 124.71 64.1 124.62 64.29 124.52 64.49 124.43 64.68 124.34 64.88 124.25 65.07 124.17 65.27 124.08 65.47 124 65.66 123.92 65.86 123.84 66.06 123.75 66.26 123.68 66.46 123.6 66.66 123.52 66.86 123.45 67.06 123.38 67.27 123.31 67.47 123.24 67.67 123.17 67.88 123.11 68.08 123.04 68.29 122.97 68.49 122.92 68.69 122.85 68.9 122.79 69.11 122.74 69.32 122.68 69.52 122.63 69.73 122.58 69.94 122.52 70.15 122.47 70.36 122.42 70.56 122.38 70.77 122.33 70.99 122.29 71.19 122.25 71.41 122.21 71.62 122.17 71.83 122.13 72.04 122.09 72.25 122.06 72.46 122.03 72.67 121.99 72.89 121.97 73.1 121.94 73.31 121.91 73.53 121.88 73.74 121.86 73.95 121.84 74.17 121.82 74.38 121.8 74.6 121.78 74.81 121.77 75.02 121.75 75.24 121.74 75.45 121.73 75.67 121.72 75.88 121.71 76.1 121.7 76.31 121.7 76.53 121.7 76.74 121.69 76.95 121.69 77.17 121.7 77.38 121.7 77.6 121.7 77.81 121.71 78.03 121.71 78.24 121.73 78.46 121.74 78.67 121.75 78.89 121.76 79.1 121.78 79.31 121.79 79.53 121.81 79.74 121.83 79.96 121.85 80.17 121.88 80.38 121.9 80.6 121.93 80.81 121.96 81.02 121.99 81.24 122.02 81.45 122.05 81.66 122.08 81.87 122.12 82.08 122.16 82.3 122.2 82.51 122.24 82.72 122.28 82.93 122.32 83.14 122.37 83.35 122.41 83.56 122.46 83.77 122.51 83.98 122.56 84.19 122.61 84.39 122.67 84.6 122.72 84.81 122.78 85.02 122.84 85.22 122.9 85.43 122.96 85.64 123.02 85.84 123.09 86.05 123.15 86.25 123.22 86.45 123.29 86.66 123.36 86.86 123.43 87.06 123.51 87.26 123.58 87.47 123.66 87.67 123.74 87.87 123.81 88.07 123.89 88.26 123.98 88.46 124.06 88.66 124.14 88.86 124.23 89.06 124.32 89.25 124.41 89.45 124.5 89.64 124.59 89.83 124.69 90.03 124.78 90.22 124.88 90.41 124.98 90.6 125.08 90.8 125.18 90.99 125.28 91.17 125.38 91.36 125.48 91.55 125.59 91.74 125.7 91.92 125.81 92.11 125.92 92.29 126.03 92.47 126.14 92.66 126.26 92.84 126.37 93.02 126.49 93.2 126.61 93.38 126.72 93.56 126.85 93.74 126.97 93.91 127.09 94.09 127.22 94.27 127.34 94.44 127.47 94.61 127.6 94.78 127.73 94.96 127.86 95.13 127.99 95.3 128.13 95.46 128.26 95.63 128.39 95.8 128.53 95.96 128.67 96.13 128.81 96.29 128.95 96.45 129.09 96.61 129.23 96.77 129.38 96.94 129.52 97.09 129.67 97.25 129.82 97.41 129.96 97.56 130.12 97.71 130.26 97.87 130.42 98.02 130.57 98.17 130.72 98.32 130.88 98.47 131.04 98.61 131.19 98.76 131.35 98.91 131.51 99.05 131.67 99.19 131.83 99.33 132 99.47 132.16 99.61 132.32 99.75 132.49 99.89 132.66 100.02 132.82 100.16 133 100.29 133.16 100.42 133.33 100.55 133.5 100.68 133.68 100.81 133.85 100.94 134.03 101.06 134.2 101.19 134.38 101.31 134.55 101.43 134.73 101.55 134.91 101.67 135.09 101.79 135.27 101.91 135.45 102.02 135.63 102.13 135.82 102.25 136 102.36 136.19 102.47 136.37 102.58 136.56 102.68 136.74 102.79 136.93 102.89 137.12 103 137.31 103.1 137.5 103.2 137.69 103.3 137.88 103.39 138.07 103.49 138.26 103.58 138.46 103.68 138.65 103.77 138.85 103.86 139.04 103.95 139.24 104.04 139.44 104.12 139.63 104.21 139.83 104.29 140.03 104.37 140.23 104.45 140.43 104.53 140.63 104.61 140.83 104.69 141.03 104.76 141.23 104.83 141.44 104.91 141.64 104.97 141.84 105.05 142.05 105.11 142.25 105.18 142.46 105.24 142.66 105.3 142.87 105.37 143.07 105.42 143.28 105.48 143.49 105.54 143.7 105.59 143.9 105.65 144.11 105.7 144.32 105.75 144.53 105.8 144.74 105.85 144.95 105.89 145.16 105.94 145.37 105.98 145.58 106.02 145.79 106.06 146 106.1 146.22 106.14 146.43 106.17 146.64 106.21 146.85 106.24 147.06 106.27 147.28 106.3 147.49 106.33 147.7 106.35 147.91 106.38 148.13 106.4 148.34 106.42 148.56 106.44 148.77 106.46 148.99 106.48 149.2 106.49 149.41 106.51 149.63 106.52 149.84 106.53 150.06 106.54 150.27 106.54 150.49 106.55 150.7 106.55 150.91 106.55 151.13 106.56 151.34 106.55 151.56 106.55 151.77 106.55 151.99 106.55 152.2 106.54 152.42 106.53 152.63 106.52 152.85 106.51 153.06 106.49 153.28 106.48 153.49 106.46 153.7 106.44 153.92 106.43 154.13 106.41 154.35 106.39 154.56 106.36 154.77 106.33 154.99 106.31 155.2 106.28 155.41 106.25 155.62 106.22 155.83 106.19 156.05 106.15 156.26 106.11 156.47 106.08 156.68 106.03 156.89 105.99 157.1 105.95 157.31 105.91 157.52 105.86 157.73 105.81 157.94 105.77 158.15 105.72 158.36 105.66 158.57 105.61 158.77 105.55 158.98 105.5 159.19 105.44 159.4 105.38 159.6 105.32 159.81 105.26 160.01 105.2 160.22 105.13 160.42 105.06 160.62 105 160.83 104.93 161.03 104.85 161.23 104.78 161.43 104.71 161.63 104.63 161.84 104.55 162.03 104.47 162.24 104.4 162.43 104.31 162.63 104.23 162.83 104.15 163.03 104.06 163.22 103.97 163.42 103.89 163.61 103.8 163.81 103.7 164 103.61 164.19 103.52 164.39 103.42 164.58 103.32 164.77 103.23 164.96 103.13 165.15 103.03 165.34 102.92 165.52 102.82 165.71 102.72 165.9 102.61 166.08 102.5 166.27 102.39 166.45 102.28 166.63 102.17 166.82 102.05 167 101.94 167.18 101.82 167.36 101.7 167.54 101.59 167.72 101.47 167.89 101.34 168.07 101.22 168.25 101.1 168.42 100.97 168.59 100.85 168.77 100.72 168.94 100.59 169.11 100.46 169.28 100.33 169.45 100.2 169.61 100.06 169.78 99.93 169.95 99.79 170.12 99.65 170.28 99.51 170.44 99.38 170.6 99.23 170.76 99.09 170.92 98.95 171.08 98.8 171.24 98.66 171.4 98.51 171.55 98.36 171.71 98.21 171.86 98.06 172.01 97.91 172.16 97.76 172.31 97.61 172.46 97.45 172.61 97.29 172.76 97.14 172.9 96.98 173.05 96.82 173.19 96.66 173.33 96.5 173.47 96.34 173.61 96.17 173.75 96.01 173.89 95.84 174.02 95.68 174.16 95.51 174.29 95.34 174.42 95.17 174.56 95 174.69 94.83 174.69 94.82"/><line class="cls-3" x1="151.16" y1="110.56" x2="152.11" y2="110.56"/><line class="cls-3" x1="150.22" y1="110.56" x2="151.16" y2="110.56"/><line class="cls-3" x1="152.11" y1="110.56" x2="152.11" y2="110.67"/><line class="cls-3" x1="150.22" y1="110.56" x2="150.22" y2="110.67"/><line class="cls-3" x1="151.85" y1="109.47" x2="151.85" y2="110.56"/><line class="cls-3" x1="150.47" y1="109.47" x2="150.47" y2="110.56"/><line class="cls-3" x1="176.36" y1="97.16" x2="176.5" y2="97.26"/><line class="cls-3" x1="176.36" y1="97.16" x2="175.4" y2="96.43"/><line class="cls-3" x1="175.26" y1="96.33" x2="175.4" y2="96.43"/><polyline class="cls-3" points="175.26 96.33 175.4 96.16 175.53 95.99 175.54 95.98"/><polyline class="cls-3" points="177.03 96.57 177.16 96.4 177.29 96.23 177.38 96.1"/><polyline class="cls-3" points="176.5 97.26 176.63 97.09 176.77 96.92 176.9 96.75 177.03 96.58 177.03 96.57"/><polyline class="cls-5" points="176.89 96.47 177.02 96.56 177.03 96.57"/><line class="cls-5" x1="175.92" y1="95.73" x2="176.89" y2="96.47"/><line class="cls-3" x1="175.35" y1="96.23" x2="175.34" y2="96.17"/><line class="cls-3" x1="176.37" y1="95.12" x2="177.35" y2="95.86"/><polyline class="cls-3" points="177.38 96.1 177.4 95.91 177.35 95.86"/><line class="cls-5" x1="175.92" y1="95.73" x2="175.81" y2="95.65"/><line class="cls-3" x1="175.2" y1="95.2" x2="174.79" y2="95.75"/><line class="cls-3" x1="175.61" y1="94.66" x2="175.2" y2="95.2"/><line class="cls-3" x1="175.34" y1="96.17" x2="174.79" y2="95.75"/><line class="cls-3" x1="175.61" y1="94.66" x2="176.18" y2="95.08"/><line class="cls-3" x1="176.18" y1="95.08" x2="176.22" y2="95.09"/><line class="cls-3" x1="176.37" y1="95.12" x2="176.22" y2="95.09"/><line class="cls-3" x1="175.53" y1="94.76" x2="175.5" y2="94.74"/><line class="cls-3" x1="174.87" y1="95.65" x2="174.84" y2="95.63"/><line class="cls-3" x1="126.02" y1="59.22" x2="125.88" y2="59.12"/><line class="cls-3" x1="124.92" y1="58.39" x2="125.88" y2="59.12"/><line class="cls-3" x1="124.92" y1="58.39" x2="124.79" y2="58.29"/><polyline class="cls-3" points="126.28 58.86 126.16 59.04 126.03 59.21 126.02 59.22"/><line class="cls-5" x1="126.42" y1="58.43" x2="125.44" y2="57.69"/><polyline class="cls-5" points="125.44 57.69 125.31 57.6 125.3 57.59"/><polyline class="cls-3" points="125.3 57.59 125.17 57.76 125.04 57.94 124.92 58.11 124.79 58.28 124.79 58.29"/><polyline class="cls-3" points="125.66 57.12 125.53 57.29 125.4 57.46 125.3 57.59"/><line class="cls-3" x1="126.16" y1="59.11" x2="126.1" y2="59.12"/><line class="cls-5" x1="126.53" y1="58.51" x2="126.42" y2="58.43"/><line class="cls-3" x1="126.88" y1="57.83" x2="125.9" y2="57.09"/><polyline class="cls-3" points="125.9 57.09 125.72 57.07 125.66 57.12"/><line class="cls-3" x1="126.16" y1="59.11" x2="126.71" y2="59.52"/><line class="cls-3" x1="127.12" y1="58.98" x2="126.71" y2="59.52"/><line class="cls-3" x1="127.53" y1="58.42" x2="127.12" y2="58.98"/><line class="cls-3" x1="127.53" y1="58.42" x2="126.97" y2="58"/><line class="cls-3" x1="126.95" y1="57.96" x2="126.97" y2="58"/><line class="cls-3" x1="126.11" y1="59.1" x2="126.1" y2="59.12"/><line class="cls-3" x1="126.95" y1="57.96" x2="126.88" y2="57.83"/><line class="cls-3" x1="127.45" y1="58.53" x2="127.49" y2="58.55"/><line class="cls-3" x1="126.79" y1="59.42" x2="126.82" y2="59.44"/><polyline class="cls-3" points="151.49 109.48 151.71 109.47 151.92 109.47 152.14 109.46 152.35 109.45 152.57 109.45 152.78 109.44 152.99 109.42 153.21 109.41 153.43 109.4 153.64 109.38 153.85 109.37 154.07 109.34 154.28 109.33 154.5 109.31 154.71 109.28 154.92 109.26 155.13 109.23 155.35 109.21 155.56 109.18 155.77 109.15 155.99 109.11 156.2 109.08 156.41 109.05 156.62 109.01 156.83 108.98 157.04 108.94 157.25 108.9 157.47 108.86 157.68 108.81 157.89 108.77 158.1 108.73 158.31 108.68 158.52 108.63 158.73 108.58 158.93 108.53 159.14 108.48 159.35 108.42 159.56 108.37 159.76 108.31 159.97 108.25 160.18 108.2 160.38 108.14 160.59 108.08 160.79 108.01 161 107.94 161.2 107.88 161.41 107.81 161.61 107.75 161.81 107.68 162.02 107.6 162.22 107.53 162.42 107.46 162.62 107.38 162.82 107.31 163.02 107.23 163.22 107.15 163.42 107.07 163.62 106.98 163.82 106.9 164.02 106.82 164.21 106.73 164.41 106.64 164.6 106.55 164.8 106.47 164.99 106.38 165.19 106.28 165.38 106.19 165.57 106.09 165.77 106 165.96 105.9 166.15 105.8 166.34 105.7 166.53 105.6 166.72 105.5 166.91 105.39 167.09 105.29 167.28 105.18 167.46 105.08 167.65 104.97 167.83 104.86 168.02 104.75 168.2 104.63 168.38 104.52 168.56 104.4 168.75 104.29 168.92 104.17 169.11 104.05 169.28 103.93 169.46 103.81 169.64 103.69 169.81 103.57 169.99 103.44 170.16 103.32 170.34 103.19 170.51 103.06 170.68 102.93 170.85 102.81 171.02 102.67 171.19 102.54 171.36 102.41 171.53 102.27 171.69 102.14 171.86 102 172.02 101.86 172.19 101.72 172.35 101.58 172.51 101.44 172.67 101.3 172.83 101.16 172.99 101.01 173.15 100.87 173.31 100.72 173.46 100.58 173.62 100.43 173.77 100.28 173.93 100.13 174.08 99.97 174.23 99.82 174.38 99.67 174.53 99.51 174.68 99.36 174.82 99.2 174.97 99.04 175.12 98.89 175.26 98.73 175.4 98.56 175.55 98.41 175.69 98.24 175.82 98.08 175.96 97.92 176.1 97.75 176.24 97.59 176.37 97.42 176.5 97.26"/><line class="cls-3" x1="176.36" y1="97.16" x2="176.5" y2="97.26"/><line class="cls-3" x1="124.79" y1="58.29" x2="124.92" y2="58.39"/><polyline class="cls-3" points="124.79 58.29 124.66 58.47 124.54 58.64 124.42 58.82 124.3 59 124.18 59.17 124.06 59.35 123.94 59.54 123.83 59.72 123.71 59.9 123.6 60.08 123.49 60.26 123.38 60.45 123.27 60.63 123.16 60.82 123.05 61 122.94 61.19 122.84 61.38 122.74 61.57 122.63 61.76 122.53 61.94 122.43 62.13 122.33 62.32 122.24 62.52 122.14 62.71 122.05 62.9 121.95 63.09 121.86 63.29 121.77 63.48 121.68 63.68 121.59 63.87 121.51 64.07 121.42 64.27 121.34 64.46 121.25 64.66 121.17 64.86 121.09 65.06 121.01 65.26 120.93 65.46 120.86 65.66 120.78 65.86 120.71 66.06 120.64 66.27 120.56 66.47 120.49 66.67 120.43 66.88 120.36 67.08 120.29 67.28 120.23 67.49 120.17 67.69 120.1 67.9 120.05 68.11 119.98 68.31 119.93 68.52 119.87 68.73 119.82 68.93 119.76 69.14 119.71 69.35 119.66 69.56 119.61 69.77 119.56 69.98 119.52 70.19 119.47 70.4 119.43 70.61 119.38 70.82 119.34 71.03 119.31 71.24 119.27 71.45 119.23 71.67 119.2 71.87 119.16 72.09 119.13 72.3 119.1 72.51 119.07 72.73 119.04 72.94 119.01 73.15 118.99 73.36 118.96 73.58 118.94 73.79 118.92 74 118.9 74.22 118.88 74.43 118.87 74.65 118.85 74.86 118.83 75.07 118.82 75.29 118.81 75.5 118.8 75.72 118.79 75.93 118.79 76.15 118.78 76.36 118.78 76.58 118.78 76.79 118.77 77.01 118.77 77.22 118.78 77.44 118.78 77.65 118.78 77.87 118.79 78.08 118.8 78.3 118.81 78.51 118.81 78.72 118.83 78.94 118.84 79.15 118.85 79.37 118.87 79.58 118.89 79.8 118.91 80.01 118.92 80.22 118.95 80.44 118.97 80.65 118.99 80.86 119.02 81.08 119.05 81.29 119.08 81.5 119.11 81.72 119.14 81.93 119.17 82.14 119.2 82.35 119.24 82.57 119.28 82.78 119.31 82.99 119.35 83.2 119.4 83.41 119.44 83.62 119.48 83.83 119.53 84.04 119.58 84.25 119.62 84.46 119.67 84.67 119.72 84.88 119.78 85.08 119.83 85.29 119.88 85.5 119.94 85.71 120 85.92 120.06 86.12 120.12 86.33 120.18 86.53 120.24 86.74 120.31 86.94 120.38 87.15 120.44 87.35 120.51 87.56 120.58 87.76 120.65 87.96 120.72 88.16 120.8 88.36 120.88 88.56 120.95 88.76 121.03 88.97 121.11 89.16 121.19 89.36 121.27 89.56 121.35 89.76 121.44 89.96 121.52 90.16 121.61 90.35 121.7 90.55 121.79 90.74 121.88 90.94 121.97 91.13 122.07 91.32 122.16 91.52 122.26 91.71 122.36 91.9 122.46 92.09 122.56 92.28 122.66 92.47 122.76 92.66 122.86 92.85 122.97 93.03 123.08 93.22 123.18 93.41 123.29 93.59 123.4 93.77 123.51 93.96 123.62 94.14 123.74 94.33 123.85 94.5 123.97 94.69 124.09 94.86 124.21 95.05 124.32 95.22 124.44 95.4 124.57 95.58 124.69 95.75 124.81 95.93 124.94 96.11 125.07 96.28 125.2 96.45 125.32 96.62 125.45 96.79 125.58 96.96 125.72 97.13 125.85 97.3 125.98 97.47 126.12 97.63 126.26 97.8 126.4 97.96 126.54 98.13 126.68 98.29 126.81 98.45 126.96 98.61 127.1 98.78 127.25 98.93 127.39 99.09 127.54 99.25 127.69 99.41 127.83 99.56 127.98 99.71 128.13 99.87 128.28 100.02 128.44 100.17 128.59 100.32 128.75 100.47 128.9 100.62 129.06 100.76 129.22 100.91 129.37 101.05 129.53 101.2 129.69 101.34 129.85 101.48 130.02 101.62 130.18 101.76 130.35 101.9 130.51 102.04 130.68 102.18 130.84 102.31 131.01 102.44 131.18 102.58 131.35 102.71 131.52 102.84 131.69 102.97 131.86 103.1 132.03 103.23 132.21 103.35 132.38 103.48 132.56 103.6 132.73 103.73 132.91 103.85 133.09 103.97 133.27 104.09 133.45 104.2 133.63 104.32 133.81 104.44 133.99 104.55 134.17 104.67 134.36 104.78 134.54 104.89 134.72 105 134.91 105.11 135.1 105.21 135.28 105.32 135.47 105.42 135.66 105.53 135.85 105.63 136.04 105.73 136.23 105.83 136.42 105.93 136.61 106.02 136.8 106.12 137 106.22 137.19 106.31 137.38 106.4 137.58 106.49 137.77 106.58 137.97 106.67 138.16 106.76 138.36 106.84 138.56 106.93 138.76 107.01 138.96 107.09 139.16 107.17 139.36 107.25 139.56 107.33 139.76 107.4 139.96 107.48 140.16 107.55 140.36 107.62 140.57 107.69 140.77 107.76 140.97 107.83 141.18 107.9 141.38 107.97 141.58 108.03 141.79 108.09 142 108.16 142.2 108.22 142.41 108.27 142.62 108.33 142.82 108.39 143.03 108.44 143.24 108.49 143.45 108.55 143.66 108.6 143.87 108.64 144.07 108.69 144.28 108.74 144.49 108.78 144.71 108.83 144.91 108.87 145.13 108.91 145.34 108.95 145.55 108.99 145.76 109.02 145.97 109.06 146.18 109.09 146.4 109.12 146.61 109.16 146.82 109.19 147.04 109.21 147.25 109.24 147.46 109.27 147.68 109.29 147.89 109.31 148.1 109.33 148.31 109.35 148.53 109.37 148.75 109.39 148.96 109.4 149.17 109.42 149.39 109.43 149.6 109.44 149.81 109.45 150.03 109.46 150.25 109.46 150.46 109.47 150.68 109.47 150.83 109.48"/><polyline class="cls-3" points="151.16 109.45 151.09 109.46 151.02 109.46 150.91 109.47 150.86 109.48 150.83 109.48"/><polyline class="cls-3" points="151.49 109.48 151.44 109.47 151.41 109.47 151.33 109.46 151.26 109.46 151.23 109.46 151.16 109.45"/><line class="cls-3" x1="175.26" y1="96.33" x2="175.4" y2="96.43"/><line class="cls-3" x1="175.4" y1="96.43" x2="176.36" y2="97.16"/><line class="cls-3" x1="124.92" y1="58.39" x2="125.88" y2="59.12"/><line class="cls-3" x1="125.88" y1="59.12" x2="126.02" y2="59.22"/><polyline class="cls-3" points="126.02 59.22 125.9 59.4 125.78 59.57 125.65 59.75 125.53 59.93 125.42 60.11 125.3 60.29 125.18 60.47 125.07 60.65 124.95 60.83 124.84 61.02 124.73 61.2 124.62 61.38 124.51 61.57 124.4 61.76 124.3 61.94 124.19 62.13 124.09 62.31 123.98 62.51 123.89 62.69 123.78 62.88 123.69 63.08 123.59 63.27 123.49 63.46 123.4 63.65 123.31 63.85 123.22 64.04 123.12 64.24 123.04 64.43 122.95 64.63 122.86 64.83 122.78 65.02 122.69 65.22 122.61 65.42 122.53 65.62 122.45 65.82 122.38 66.02 122.3 66.22 122.22 66.42 122.15 66.62 122.08 66.82 122.01 67.03 121.94 67.23 121.87 67.43 121.8 67.64 121.74 67.84 121.67 68.05 121.61 68.25 121.55 68.46 121.49 68.67 121.43 68.87 121.38 69.08 121.32 69.29 121.27 69.5 121.22 69.7 121.17 69.91 121.12 70.12 121.07 70.33 121.02 70.54 120.98 70.75 120.94 70.96 120.89 71.17 120.85 71.38 120.81 71.59 120.78 71.8 120.74 72.02 120.7 72.23 120.67 72.44 120.64 72.65 120.61 72.86 120.58 73.08 120.55 73.29 120.53 73.5 120.5 73.72 120.48 73.93 120.46 74.14 120.44 74.36 120.42 74.57 120.41 74.79 120.39 75 120.38 75.21 120.36 75.43 120.35 75.64 120.34 75.86 120.34 76.08 120.33 76.29 120.32 76.5 120.32 76.72 120.32 76.93 120.32 77.15 120.32 77.36 120.32 77.58 120.33 77.79 120.33 78 120.34 78.22 120.35 78.44 120.36 78.65 120.37 78.86 120.38 79.08 120.4 79.29 120.41 79.5 120.43 79.72 120.45 79.94 120.47 80.15 120.49 80.36 120.52 80.58 120.54 80.79 120.57 81 120.6 81.22 120.63 81.43 120.66 81.64 120.69 81.85 120.72 82.06 120.76 82.28 120.8 82.49 120.83 82.7 120.87 82.91 120.92 83.12 120.96 83.33 121 83.54 121.05 83.75 121.09 83.96 121.14 84.17 121.19 84.38 121.25 84.59 121.3 84.8 121.35 85 121.41 85.21 121.47 85.42 121.52 85.62 121.58 85.83 121.64 86.04 121.71 86.24 121.77 86.45 121.84 86.65 121.91 86.86 121.97 87.06 122.05 87.26 122.12 87.46 122.19 87.67 122.26 87.87 122.34 88.07 122.42 88.27 122.5 88.47 122.58 88.67 122.66 88.87 122.74 89.06 122.82 89.26 122.91 89.46 123 89.66 123.08 89.85 123.17 90.05 123.26 90.24 123.36 90.44 123.45 90.63 123.55 90.82 123.64 91.01 123.74 91.2 123.84 91.39 123.94 91.59 124.04 91.77 124.14 91.97 124.25 92.15 124.35 92.34 124.46 92.53 124.57 92.71 124.68 92.89 124.79 93.08 124.9 93.26 125.01 93.44 125.13 93.63 125.24 93.81 125.36 93.99 125.48 94.17 125.6 94.35 125.72 94.52 125.84 94.7 125.96 94.87 126.09 95.05 126.22 95.23 126.34 95.4 126.47 95.57 126.6 95.74 126.73 95.91 126.86 96.08 126.99 96.25 127.13 96.42 127.26 96.59 127.4 96.75 127.54 96.92 127.68 97.08 127.81 97.24 127.95 97.41 128.1 97.56 128.24 97.73 128.38 97.89 128.53 98.04 128.68 98.2 128.82 98.36 128.97 98.51 129.12 98.67 129.27 98.82 129.43 98.97 129.58 99.12 129.73 99.27 129.89 99.42 130.04 99.57 130.2 99.71 130.36 99.86 130.52 100 130.68 100.15 130.84 100.29 131 100.43 131.16 100.57 131.33 100.71 131.49 100.85 131.66 100.98 131.82 101.12 132 101.25 132.16 101.38 132.33 101.52 132.5 101.65 132.67 101.78 132.85 101.91 133.02 102.03 133.19 102.16 133.37 102.28 133.54 102.41 133.72 102.53 133.9 102.65 134.08 102.77 134.25 102.89 134.44 103 134.62 103.12 134.8 103.23 134.98 103.35 135.16 103.46 135.35 103.57 135.53 103.68 135.72 103.79 135.9 103.89 136.09 104 136.28 104.1 136.47 104.2 136.66 104.31 136.85 104.41 137.04 104.51 137.23 104.61 137.42 104.7 137.61 104.8 137.81 104.89 138 104.98 138.19 105.07 138.39 105.16 138.59 105.25 138.78 105.34 138.98 105.42 139.18 105.51 139.38 105.59 139.57 105.67 139.78 105.75 139.97 105.83 140.18 105.91 140.38 105.98 140.58 106.06 140.78 106.13 140.98 106.2 141.18 106.27 141.39 106.34 141.59 106.41 141.8 106.48 142 106.54 142.21 106.6 142.41 106.66 142.62 106.72 142.82 106.78 143.03 106.84 143.24 106.9 143.45 106.95 143.65 107 143.86 107.05 144.07 107.11 144.28 107.15 144.49 107.2 144.7 107.25 144.91 107.29 145.12 107.33 145.33 107.38 145.54 107.42 145.75 107.45 145.97 107.49 146.18 107.53 146.39 107.56 146.6 107.59 146.81 107.62 147.03 107.65 147.24 107.68 147.45 107.71 147.67 107.73 147.88 107.76 148.09 107.78 148.31 107.8 148.52 107.82 148.74 107.84 148.95 107.85 149.16 107.87 149.38 107.88 149.59 107.89 149.81 107.9 150.02 107.91 150.24 107.92 150.45 107.92 150.67 107.93 150.88 107.93 151.1 107.93 151.31 107.93 151.52 107.93 151.74 107.92 151.96 107.92 152.17 107.92 152.38 107.91 152.6 107.9 152.81 107.89 153.03 107.88 153.24 107.86 153.46 107.84 153.67 107.83 153.89 107.81 154.1 107.79 154.31 107.77 154.53 107.75 154.74 107.72 154.95 107.7 155.16 107.67 155.38 107.64 155.59 107.61 155.8 107.58 156.02 107.55 156.23 107.51 156.44 107.48 156.65 107.44 156.86 107.4 157.07 107.36 157.28 107.32 157.5 107.27 157.7 107.23 157.91 107.18 158.12 107.14 158.33 107.08 158.54 107.04 158.75 106.98 158.96 106.93 159.16 106.88 159.37 106.82 159.58 106.76 159.79 106.7 159.99 106.64 160.19 106.58 160.4 106.52 160.61 106.45 160.81 106.38 161.01 106.31 161.22 106.25 161.42 106.17 161.62 106.1 161.83 106.03 162.03 105.95 162.23 105.88 162.43 105.8 162.63 105.72 162.83 105.64 163.02 105.56 163.22 105.47 163.42 105.39 163.62 105.3 163.81 105.22 164.01 105.13 164.2 105.04 164.4 104.94 164.59 104.85 164.78 104.76 164.97 104.66 165.17 104.57 165.36 104.47 165.55 104.37 165.74 104.27 165.93 104.17 166.12 104.06 166.3 103.96 166.49 103.85 166.68 103.75 166.86 103.64 167.04 103.53 167.23 103.42 167.41 103.3 167.59 103.19 167.78 103.07 167.96 102.96 168.13 102.84 168.31 102.72 168.49 102.6 168.67 102.48 168.85 102.36 169.02 102.23 169.2 102.11 169.37 101.98 169.54 101.85 169.72 101.73 169.89 101.6 170.06 101.46 170.23 101.33 170.39 101.2 170.56 101.06 170.73 100.93 170.89 100.79 171.06 100.65 171.22 100.51 171.38 100.38 171.54 100.23 171.71 100.09 171.87 99.95 172.02 99.8 172.18 99.66 172.34 99.51 172.49 99.36 172.65 99.21 172.8 99.06 172.95 98.91 173.11 98.76 173.26 98.61 173.41 98.45 173.55 98.3 173.7 98.14 173.85 97.98 173.99 97.82 174.14 97.66 174.28 97.5 174.42 97.34 174.56 97.18 174.7 97.01 174.84 96.85 174.98 96.69 175.11 96.52 175.25 96.35 175.26 96.33"/><line class="cls-3" x1="149.71" y1="114.71" x2="149.82" y2="114.71"/><polyline class="cls-3" points="149.62 114.71 149.65 114.71 149.71 114.71"/><line class="cls-3" x1="149.82" y1="114.71" x2="149.62" y2="114.71"/><line class="cls-3" x1="152.51" y1="114.71" x2="152.7" y2="114.71"/><polyline class="cls-3" points="152.7 114.71 152.67 114.71 152.61 114.71"/><line class="cls-3" x1="152.51" y1="114.71" x2="152.61" y2="114.71"/><line class="cls-3" x1="149.89" y1="114.71" x2="150.39" y2="114.71"/><line class="cls-3" x1="149.82" y1="114.71" x2="149.89" y2="114.71"/><line class="cls-3" x1="149.56" y1="114.71" x2="149.62" y2="114.71"/><line class="cls-3" x1="149.35" y1="114.71" x2="149.56" y2="114.71"/><line class="cls-3" x1="152.96" y1="114.71" x2="152.76" y2="114.71"/><line class="cls-3" x1="152.7" y1="114.71" x2="152.76" y2="114.71"/><line class="cls-3" x1="152.43" y1="114.71" x2="152.51" y2="114.71"/><line class="cls-3" x1="152.43" y1="114.71" x2="151.93" y2="114.71"/><line class="cls-5" x1="149.35" y1="110.67" x2="149.35" y2="114.67"/><line class="cls-3" x1="150.39" y1="110.89" x2="150.39" y2="114.74"/><line class="cls-3" x1="149.64" y1="115.11" x2="149.08" y2="115.11"/><line class="cls-3" x1="153.24" y1="115.11" x2="152.68" y2="115.11"/><polyline class="cls-3" points="148.8 115.05 148.99 115.1 149.09 115.11"/><line class="cls-3" x1="152.65" y1="115.11" x2="152.68" y2="115.11"/><polyline class="cls-3" points="147.77 114.68 147.85 114.73 147.87 114.74"/><polyline class="cls-3" points="154.45 114.74 154.55 114.69 154.55 114.68"/><line class="cls-3" x1="150.6" y1="110.67" x2="151.72" y2="110.67"/><polyline class="cls-3" points="151.93 110.89 151.85 110.72 151.72 110.67"/><line class="cls-3" x1="152.76" y1="110.67" x2="153.36" y2="110.67"/><polyline class="cls-3" points="150.6 110.67 150.43 110.76 150.39 110.89"/><line class="cls-3" x1="150.6" y1="114.67" x2="151.72" y2="114.67"/><polyline class="cls-3" points="151.93 114.74 151.85 114.69 151.72 114.67"/><line class="cls-3" x1="151.93" y1="110.89" x2="151.93" y2="114.74"/><line class="cls-3" x1="152.43" y1="110.67" x2="151.84" y2="110.67"/><line class="cls-3" x1="149.56" y1="110.67" x2="148.97" y2="110.67"/><line class="cls-3" x1="152.76" y1="110.67" x2="152.43" y2="110.67"/><line class="cls-3" x1="149.89" y1="110.67" x2="149.56" y2="110.67"/><line class="cls-3" x1="149.89" y1="110.67" x2="150.48" y2="110.67"/><line class="cls-3" x1="150.6" y1="110.67" x2="150.48" y2="110.67"/><line class="cls-3" x1="151.84" y1="110.67" x2="151.72" y2="110.67"/><line class="cls-3" x1="154.45" y1="114.74" x2="153.52" y2="115.05"/><line class="cls-5" x1="152.96" y1="110.65" x2="152.96" y2="114.69"/><line class="cls-3" x1="151.93" y1="114.74" x2="151.93" y2="115.05"/><polyline class="cls-3" points="153.24 115.11 153.4 115.09 153.52 115.05"/><line class="cls-3" x1="149.64" y1="115.11" x2="149.67" y2="115.11"/><line class="cls-3" x1="147.87" y1="114.74" x2="148.8" y2="115.05"/><polyline class="cls-3" points="150.6 114.67 150.43 114.7 150.39 114.74"/><polyline class="cls-3" points="152.41 114.71 152.44 114.71 152.46 114.72 152.49 114.73 152.51 114.75 152.53 114.77 152.56 114.8 152.57 114.83 152.59 114.87 152.59 114.89"/><line class="cls-3" x1="152.65" y1="115.11" x2="152.59" y2="114.89"/><line class="cls-3" x1="148.76" y1="110.83" x2="147.77" y2="114.68"/><line class="cls-3" x1="153.56" y1="110.83" x2="154.55" y2="114.68"/><polyline class="cls-3" points="153.56 110.83 153.44 110.69 153.35 110.67"/><polyline class="cls-3" points="148.97 110.67 148.79 110.76 148.76 110.83"/><line class="cls-3" x1="149.67" y1="115.11" x2="149.73" y2="114.89"/><polyline class="cls-3" points="149.91 114.71 149.88 114.71 149.85 114.72 149.83 114.73 149.81 114.75 149.79 114.77 149.77 114.8 149.75 114.83 149.74 114.87 149.73 114.89"/><line class="cls-3" x1="152.65" y1="115.11" x2="152.68" y2="115.11"/><line class="cls-3" x1="178.6" y1="216.26" x2="178.63" y2="216.27"/><line class="cls-3" x1="153.24" y1="115.11" x2="152.68" y2="115.11"/><line class="cls-5" x1="153.06" y1="114.69" x2="179.12" y2="216.27"/><line class="cls-3" x1="179.19" y1="216.27" x2="178.63" y2="216.27"/><polyline class="cls-3" points="153.24 115.11 153.4 115.09 153.52 115.05"/><polyline class="cls-3" points="179.19 216.26 179.34 216.24 179.47 216.2"/><line class="cls-3" x1="154.45" y1="114.74" x2="153.52" y2="115.05"/><line class="cls-3" x1="180.4" y1="215.89" x2="179.47" y2="216.2"/><polyline class="cls-3" points="154.45 114.74 154.55 114.69 154.55 114.68"/><polyline class="cls-3" points="180.4 215.89 180.5 215.84 180.5 215.84"/><line class="cls-3" x1="178.6" y1="216.26" x2="152.65" y2="115.11"/><line class="cls-3" x1="180.5" y1="215.83" x2="154.55" y2="114.68"/><polyline class="cls-3" points="147.77 114.68 147.85 114.73 147.87 114.74"/><polyline class="cls-3" points="121.82 215.84 121.9 215.88 121.92 215.89"/><line class="cls-3" x1="148.8" y1="115.05" x2="147.87" y2="114.74"/><line class="cls-3" x1="122.85" y1="216.2" x2="121.92" y2="215.89"/><polyline class="cls-3" points="148.8 115.05 148.99 115.1 149.09 115.11"/><line class="cls-5" x1="149.26" y1="114.67" x2="123.21" y2="216.23"/><polyline class="cls-3" points="122.85 216.2 123.04 216.25 123.14 216.26"/><line class="cls-3" x1="149.64" y1="115.11" x2="149.08" y2="115.11"/><line class="cls-3" x1="123.69" y1="216.27" x2="123.14" y2="216.27"/><line class="cls-3" x1="149.64" y1="115.11" x2="149.67" y2="115.11"/><line class="cls-3" x1="123.69" y1="216.27" x2="123.72" y2="216.26"/><line class="cls-3" x1="121.82" y1="215.83" x2="147.77" y2="114.68"/><line class="cls-3" x1="123.72" y1="216.26" x2="149.67" y2="115.11"/><polyline class="cls-3" points="151.93 114.74 151.85 114.69 151.72 114.67"/><line class="cls-3" x1="151.93" y1="114.74" x2="151.93" y2="215.89"/><polyline class="cls-3" points="151.93 215.89 151.85 215.84 151.72 215.83"/><line class="cls-3" x1="151.93" y1="216.2" x2="151.93" y2="215.89"/><line class="cls-3" x1="151.93" y1="216.2" x2="151.93" y2="216.2"/><line class="cls-3" x1="150.39" y1="216.2" x2="150.39" y2="216.2"/><line class="cls-3" x1="150.39" y1="114.74" x2="150.39" y2="215.89"/><line class="cls-3" x1="150.39" y1="215.89" x2="150.39" y2="216.2"/><polyline class="cls-3" points="150.6 114.67 150.43 114.7 150.39 114.74"/><polyline class="cls-3" points="150.6 215.83 150.43 215.85 150.39 215.89"/><line class="cls-3" x1="151.72" y1="114.67" x2="150.6" y2="114.67"/><line class="cls-3" x1="151.72" y1="215.83" x2="151.46" y2="215.83"/><line class="cls-3" x1="151.72" y1="215.83" x2="150.6" y2="215.83"/><line class="cls-3" x1="150.56" y1="109.61" x2="150.47" y2="109.61"/><line class="cls-3" x1="151.85" y1="109.61" x2="150.56" y2="109.61"/><line class="cls-3" x1="150.47" y1="110.56" x2="150.47" y2="109.61"/><line class="cls-3" x1="151.85" y1="110.56" x2="151.85" y2="109.61"/><polyline class="cls-3" points="151.93 215.89 151.85 215.84 151.72 215.83"/><line class="cls-3" x1="151.93" y1="215.89" x2="151.93" y2="216.2"/><line class="cls-3" x1="151.93" y1="216.2" x2="151.93" y2="216.2"/><line class="cls-3" x1="150.39" y1="216.2" x2="150.39" y2="216.2"/><line class="cls-3" x1="150.39" y1="215.89" x2="150.39" y2="216.2"/><polyline class="cls-3" points="150.6 215.83 150.43 215.85 150.39 215.89"/><line class="cls-3" x1="150.39" y1="216.2" x2="150.41" y2="216.71"/><line class="cls-3" x1="151.93" y1="216.2" x2="151.92" y2="216.71"/><line class="cls-3" x1="150.64" y1="217.29" x2="151.68" y2="217.29"/><polyline class="cls-3" points="150.41 216.71 150.41 216.98 150.42 217.07 150.42 217.1 150.43 217.13 150.44 217.16 150.46 217.19 150.47 217.21 150.49 217.23 150.51 217.25 150.53 217.26 150.56 217.27 150.59 217.28 150.61 217.29 150.64 217.29"/><polyline class="cls-3" points="151.91 216.71 151.9 216.98 151.9 217.07 151.89 217.1 151.89 217.13 151.88 217.16 151.87 217.19 151.85 217.21 151.83 217.23 151.81 217.25 151.79 217.26 151.76 217.27 151.74 217.28 151.71 217.29 151.68 217.29"/><line class="cls-3" x1="123.72" y1="216.26" x2="123.72" y2="216.26"/><line class="cls-3" x1="123.69" y1="216.27" x2="123.72" y2="216.26"/><line class="cls-3" x1="123.14" y1="216.27" x2="123.69" y2="216.27"/><line class="cls-5" x1="123.2" y1="216.27" x2="123.07" y2="216.77"/><polyline class="cls-3" points="122.85 216.2 123.04 216.25 123.14 216.26"/><line class="cls-3" x1="122.85" y1="216.2" x2="121.92" y2="215.89"/><polyline class="cls-3" points="121.82 215.84 121.9 215.88 121.92 215.89"/><line class="cls-3" x1="121.82" y1="215.83" x2="121.82" y2="215.83"/><polyline class="cls-5" points="122.45 217.29 122.64 217.26 122.8 217.17 122.94 217.03 123.04 216.85 123.07 216.77"/><line class="cls-3" x1="123.72" y1="216.26" x2="123.57" y2="216.77"/><polyline class="cls-3" points="123.57 216.77 123.55 216.83 123.52 216.89 123.49 216.95 123.45 217 123.41 217.05 123.37 217.1 123.32 217.14 123.27 217.18 123.21 217.21 123.15 217.24 123.09 217.26 123.03 217.28 122.97 217.29 122.91 217.29"/><line class="cls-3" x1="121.82" y1="215.83" x2="121.71" y2="216.36"/><line class="cls-3" x1="122.39" y1="217.29" x2="122.91" y2="217.29"/><polyline class="cls-3" points="122.39 217.29 122.33 217.29 122.26 217.28 122.2 217.26 122.14 217.24 122.08 217.21 122.03 217.18 121.97 217.13 121.93 217.09 121.88 217.04 121.84 216.99 121.81 216.94 121.78 216.88 121.75 216.82 121.73 216.76 121.71 216.69 121.7 216.62 121.7 216.55 121.7 216.48 121.7 216.43 121.71 216.36"/><line class="cls-3" x1="178.6" y1="216.26" x2="178.63" y2="216.27"/><line class="cls-3" x1="178.6" y1="216.26" x2="178.6" y2="216.26"/><line class="cls-3" x1="180.5" y1="215.83" x2="180.5" y2="215.83"/><polyline class="cls-3" points="180.4 215.89 180.5 215.84 180.5 215.84"/><line class="cls-3" x1="180.4" y1="215.89" x2="179.47" y2="216.2"/><line class="cls-5" x1="179.12" y1="216.27" x2="179.25" y2="216.77"/><polyline class="cls-3" points="179.19 216.26 179.34 216.24 179.47 216.2"/><line class="cls-3" x1="179.19" y1="216.27" x2="178.63" y2="216.27"/><polyline class="cls-5" points="179.25 216.77 179.33 216.96 179.46 217.12 179.61 217.23 179.79 217.28 179.87 217.29"/><polyline class="cls-3" points="179.41 217.29 179.35 217.29 179.29 217.28 179.23 217.26 179.17 217.24 179.11 217.21 179.06 217.18 179 217.14 178.96 217.1 178.91 217.05 178.87 217 178.83 216.95 178.8 216.89 178.78 216.83 178.75 216.77"/><line class="cls-3" x1="178.6" y1="216.26" x2="178.75" y2="216.77"/><line class="cls-3" x1="180.5" y1="215.83" x2="180.6" y2="216.36"/><line class="cls-3" x1="179.93" y1="217.29" x2="179.41" y2="217.29"/><polyline class="cls-3" points="180.6 216.36 180.62 216.43 180.62 216.5 180.62 216.56 180.62 216.63 180.61 216.69 180.59 216.76 180.57 216.82 180.54 216.88 180.51 216.94 180.48 216.99 180.44 217.04 180.39 217.09 180.35 217.13 180.29 217.18 180.24 217.21 180.18 217.24 180.12 217.26 180.06 217.28 180 217.29 179.93 217.29"/><line class="cls-3" x1="176.18" y1="95.08" x2="175.53" y2="95.99"/><line class="cls-3" x1="126.28" y1="58.86" x2="126.97" y2="58"/></svg>