<svg id="Superarchimoon" xmlns="http://www.w3.org/2000/svg" viewBox="0 0 300 263"><defs><style>.cls-1{isolation:isolate;}.cls-2,.cls-3{fill:none;stroke-width:0.5px;}.cls-2{stroke:#000;}.cls-3{stroke:#1d1d1b;stroke-miterlimit:3.86;}</style></defs><title>superarchimoon-floor-starck-flos-F6366020-spech-tech-02-300x263</title><g class="cls-1"><path d="M41.05,157.69v7.2H39.72l-4.59-4.51-.54-.51a6.62,6.62,0,0,0-.61-.47,3.2,3.2,0,0,0-.67-.33,2.06,2.06,0,0,0-.74-.13,2,2,0,0,0-.83.17,1.74,1.74,0,0,0-.63.47,2.18,2.18,0,0,0-.39.7,2.65,2.65,0,0,0-.13.85,2.33,2.33,0,0,0,.47,1.47,2.23,2.23,0,0,0,1.3.79l-.13,1.21a3.14,3.14,0,0,1-2-1.16,3.49,3.49,0,0,1-.72-2.23,4.59,4.59,0,0,1,.18-1.3,3.31,3.31,0,0,1,.56-1.09,2.5,2.5,0,0,1,.92-.75,2.72,2.72,0,0,1,1.28-.28,3.29,3.29,0,0,1,1.2.2,4.33,4.33,0,0,1,1,.52,6.2,6.2,0,0,1,.91.73c.29.27.57.55.85.84L40,163.64v-5.95Z"/><path d="M41.05,151.2v1.15H31.16l1.79,2-.86.72-2.37-2.88v-1Z"/><path d="M37.31,141.21v-1.63h1v1.63h2.69v1.15H38.36v4.9H37.05l-7.33-4.58v-1.47Zm-6.44,1.15v0l6.44,3.91v-3.94Z"/><path d="M29.53,134.52a3.21,3.21,0,0,1,.56-2,3.67,3.67,0,0,1,1.42-1.17,6.17,6.17,0,0,1,1.9-.56,13.08,13.08,0,0,1,4,0,6.17,6.17,0,0,1,1.9.56,3.67,3.67,0,0,1,1.42,1.17,3.73,3.73,0,0,1,0,3.93,3.86,3.86,0,0,1-1.42,1.17,6.45,6.45,0,0,1-1.9.56,14,14,0,0,1-4,0,6.45,6.45,0,0,1-1.9-.56,3.86,3.86,0,0,1-1.42-1.17A3.24,3.24,0,0,1,29.53,134.52Zm1.06,0a2.09,2.09,0,0,0,.49,1.47,3.17,3.17,0,0,0,1.23.8,5.79,5.79,0,0,0,1.57.35c.56.05,1.06.07,1.51.07s.94,0,1.5-.07a5.79,5.79,0,0,0,1.57-.35,3.17,3.17,0,0,0,1.23-.8,2.09,2.09,0,0,0,.5-1.47,2.07,2.07,0,0,0-.5-1.46,3.08,3.08,0,0,0-1.23-.81,6.18,6.18,0,0,0-1.57-.34c-.56,0-1.06-.08-1.5-.08s-1,0-1.51.08a6.18,6.18,0,0,0-1.57.34,3.08,3.08,0,0,0-1.23.81A2.06,2.06,0,0,0,30.59,134.52Z"/><path d="M35.23,124.48c-.28,0-.56,0-.84,0l-.83.06v-1.14H34.7v0a2.44,2.44,0,0,1-1-1.07,2.94,2.94,0,0,1-.34-1.35,3.83,3.83,0,0,1,.06-.65,2.28,2.28,0,0,1,.24-.66,2.34,2.34,0,0,1,.47-.6,2.28,2.28,0,0,1,.78-.47,2.43,2.43,0,0,1-1.13-1,2.76,2.76,0,0,1-.42-1.45,2.69,2.69,0,0,1,.76-2.12,3.12,3.12,0,0,1,2.17-.69h4.75v1H36.68a3.2,3.2,0,0,0-1.74.4,1.65,1.65,0,0,0-.61,1.49,2,2,0,0,0,.23,1,1.84,1.84,0,0,0,.62.65,2.42,2.42,0,0,0,.87.36,4.17,4.17,0,0,0,1,.11h4v1.06H36.68a3.11,3.11,0,0,0-1.74.4,1.64,1.64,0,0,0-.61,1.49,3.61,3.61,0,0,0,.06.44,1.71,1.71,0,0,0,.36.71,2.53,2.53,0,0,0,.86.66,3.51,3.51,0,0,0,1.6.3h3.84v1.06Z"/><path d="M35.23,110.84q-.42,0-.84,0l-.83,0v-1.13H34.7v0a2.41,2.41,0,0,1-1-1.06,2.94,2.94,0,0,1-.34-1.35,3.83,3.83,0,0,1,.06-.65,2.28,2.28,0,0,1,.24-.66,2,2,0,0,1,.47-.6,2.28,2.28,0,0,1,.78-.47,2.48,2.48,0,0,1-1.13-1,2.76,2.76,0,0,1-.42-1.45,2.73,2.73,0,0,1,.76-2.13,3.12,3.12,0,0,1,2.17-.68h4.75v1H36.68a3.11,3.11,0,0,0-1.74.4,1.64,1.64,0,0,0-.61,1.49,2,2,0,0,0,.23,1,1.93,1.93,0,0,0,.62.65,2.84,2.84,0,0,0,.87.36,4.74,4.74,0,0,0,1,.11h4v1.06H36.68a3.11,3.11,0,0,0-1.74.4,1.63,1.63,0,0,0-.61,1.49,3.61,3.61,0,0,0,.06.44,1.77,1.77,0,0,0,.36.71,2.67,2.67,0,0,0,.86.66,3.51,3.51,0,0,0,1.6.3h3.84v1Z"/></g><line class="cls-2" x1="50.05" y1="46.72" x2="50.05" y2="217.3"/><line class="cls-2" x1="51.63" y1="46.72" x2="48.26" y2="46.72"/><line class="cls-2" x1="51.81" y1="217.3" x2="47.43" y2="217.3"/><g class="cls-1"><path d="M121.39,22a4,4,0,0,1,.68,1.16,4.44,4.44,0,0,1,0,3,3.73,3.73,0,0,1-2.08,2.07,4.2,4.2,0,0,1-1.61.3,4.15,4.15,0,0,1-1.4-.23,3.72,3.72,0,0,1-1.11-.61l-1.07,1.09-.52-.5,1.06-1.08a3.67,3.67,0,0,1-.69-1.18,4.17,4.17,0,0,1-.24-1.43,4,4,0,0,1,.3-1.57,3.67,3.67,0,0,1,.82-1.25,3.76,3.76,0,0,1,1.26-.82,4.09,4.09,0,0,1,1.59-.3,4.18,4.18,0,0,1,1.39.22,3.65,3.65,0,0,1,1.15.62l1.06-1.09.51.49Zm-1.25.26a2.66,2.66,0,0,0-1.81-.63,3,3,0,0,0-1.18.23,2.7,2.7,0,0,0-.88.64,2.94,2.94,0,0,0-.56.94,3.42,3.42,0,0,0-.2,1.17,2.94,2.94,0,0,0,.55,1.82ZM116.54,27a2.72,2.72,0,0,0,.8.45,3.11,3.11,0,0,0,1,.16,2.8,2.8,0,0,0,1.18-.24,2.54,2.54,0,0,0,.88-.63,2.73,2.73,0,0,0,.57-.94,3.51,3.51,0,0,0,.2-1.17,3.18,3.18,0,0,0-.54-1.83Z"/><path d="M135.5,28.36h-7.2V27l4.51-4.59q.25-.26.51-.54a4.43,4.43,0,0,0,.46-.61,3,3,0,0,0,.34-.67,2.06,2.06,0,0,0,.13-.74,2,2,0,0,0-.17-.83,1.79,1.79,0,0,0-.47-.62,2.34,2.34,0,0,0-.71-.4,2.55,2.55,0,0,0-.84-.13,2.33,2.33,0,0,0-1.48.48,2.21,2.21,0,0,0-.78,1.29l-1.22-.12a3.18,3.18,0,0,1,1.16-2,3.54,3.54,0,0,1,2.24-.72,4.26,4.26,0,0,1,1.3.19,3.2,3.2,0,0,1,1.09.55,2.71,2.71,0,0,1,.75.92,2.79,2.79,0,0,1,.28,1.29,3.6,3.6,0,0,1-.2,1.2,4.9,4.9,0,0,1-.52,1,6.33,6.33,0,0,1-.73.91c-.27.29-.55.57-.84.85l-3.57,3.54h6Z"/><path d="M143.08,24.62h1.63v1.05h-1.63v2.69h-1.15V25.67H137V24.36L141.61,17h1.47Zm-1.15-6.43h0L138,24.62h3.94Z"/><path d="M153.29,28.36h-7.2V27l4.51-4.59q.26-.26.51-.54a5.5,5.5,0,0,0,.47-.61,3.47,3.47,0,0,0,.33-.67,2.06,2.06,0,0,0,.13-.74,2,2,0,0,0-.17-.83,1.79,1.79,0,0,0-.47-.62,2.41,2.41,0,0,0-.7-.4,2.65,2.65,0,0,0-.85-.13,2.28,2.28,0,0,0-1.47.48,2.17,2.17,0,0,0-.79,1.29l-1.21-.12a3.14,3.14,0,0,1,1.16-2,3.49,3.49,0,0,1,2.23-.72,4.26,4.26,0,0,1,1.3.19,3.11,3.11,0,0,1,1.09.55,2.6,2.6,0,0,1,.75.92,2.79,2.79,0,0,1,.28,1.29A3.36,3.36,0,0,1,153,21a4.46,4.46,0,0,1-.52,1,5.71,5.71,0,0,1-.73.91c-.27.29-.55.57-.84.85l-3.56,3.54h5.95Z"/><path d="M158.67,16.84a3.21,3.21,0,0,1,2,.56,3.89,3.89,0,0,1,1.17,1.43,6.3,6.3,0,0,1,.56,1.89,13.76,13.76,0,0,1,.14,2,13.53,13.53,0,0,1-.14,2,6.45,6.45,0,0,1-.56,1.9A3.78,3.78,0,0,1,160.63,28a3.67,3.67,0,0,1-3.93,0,3.78,3.78,0,0,1-1.17-1.42,6.45,6.45,0,0,1-.56-1.9,13.53,13.53,0,0,1-.14-2,13.76,13.76,0,0,1,.14-2,6.3,6.3,0,0,1,.56-1.89,3.89,3.89,0,0,1,1.17-1.43A3.22,3.22,0,0,1,158.67,16.84Zm0,1.06a2,2,0,0,0-1.47.5,3.08,3.08,0,0,0-.81,1.23,6.1,6.1,0,0,0-.34,1.56c-.05.56-.07,1.06-.07,1.51s0,.95.07,1.5a6.09,6.09,0,0,0,.34,1.57A3.08,3.08,0,0,0,157.2,27a2.4,2.4,0,0,0,2.93,0,3.08,3.08,0,0,0,.81-1.23,6.09,6.09,0,0,0,.34-1.57c.05-.55.07-1.05.07-1.5s0-.95-.07-1.51a6.1,6.1,0,0,0-.34-1.56,3.08,3.08,0,0,0-.81-1.23A2,2,0,0,0,158.67,17.9Z"/><path d="M168.71,22.54c0-.28,0-.56,0-.83l-.06-.84h1.14V22h0a2.44,2.44,0,0,1,1.07-1,2.94,2.94,0,0,1,1.35-.34,3.07,3.07,0,0,1,.65.07,2.23,2.23,0,0,1,1.26.7,2.45,2.45,0,0,1,.47.78,2.42,2.42,0,0,1,1-1.13,2.73,2.73,0,0,1,1.44-.42,2.76,2.76,0,0,1,2.13.76,3.12,3.12,0,0,1,.69,2.17v4.75h-1V24a3.15,3.15,0,0,0-.41-1.74,1.65,1.65,0,0,0-1.48-.61,2,2,0,0,0-1,.23,1.9,1.9,0,0,0-.64.62,2.58,2.58,0,0,0-.36.87,4.31,4.31,0,0,0-.11,1v4h-1.06V24a3.16,3.16,0,0,0-.4-1.74,1.67,1.67,0,0,0-1.49-.61,2.67,2.67,0,0,0-.44.07,1.62,1.62,0,0,0-.71.35,2.55,2.55,0,0,0-.67.86,3.69,3.69,0,0,0-.29,1.6v3.84h-1.06Z"/><path d="M182.34,22.54c0-.28,0-.56,0-.83s0-.56-.06-.84h1.14V22h0a2.44,2.44,0,0,1,1.07-1,2.94,2.94,0,0,1,1.35-.34,3.07,3.07,0,0,1,.65.07,2.25,2.25,0,0,1,.66.23,2.34,2.34,0,0,1,.6.47,2.45,2.45,0,0,1,.47.78,2.48,2.48,0,0,1,1-1.13,2.76,2.76,0,0,1,1.45-.42,2.73,2.73,0,0,1,2.12.76,3.12,3.12,0,0,1,.69,2.17v4.75h-1V24a3.25,3.25,0,0,0-.4-1.74,1.68,1.68,0,0,0-1.49-.61,2,2,0,0,0-1,.23,1.84,1.84,0,0,0-.65.62,2.58,2.58,0,0,0-.36.87,4.31,4.31,0,0,0-.11,1v4H187.4V24a3.16,3.16,0,0,0-.4-1.74,1.67,1.67,0,0,0-1.49-.61,2.67,2.67,0,0,0-.44.07,1.67,1.67,0,0,0-.71.35,2.53,2.53,0,0,0-.66.86,3.53,3.53,0,0,0-.3,1.6v3.84h-1.06Z"/></g><g class="cls-1"><path d="M58.92,241.05a3.62,3.62,0,0,1,.68,1.16,4.29,4.29,0,0,1-.05,3,3.65,3.65,0,0,1-2.08,2.07,4.4,4.4,0,0,1-3,.07,3.66,3.66,0,0,1-1.12-.61l-1.07,1.09-.51-.49,1.06-1.09a3.56,3.56,0,0,1-.69-1.18,4.17,4.17,0,0,1-.24-1.43,4.22,4.22,0,0,1,.29-1.57,4,4,0,0,1,.83-1.25,3.82,3.82,0,0,1,1.25-.82,4.18,4.18,0,0,1,1.6-.3,4.45,4.45,0,0,1,1.39.22,3.76,3.76,0,0,1,1.15.62l1.06-1.09L60,240Zm-1.25.26a2.63,2.63,0,0,0-1.8-.63,2.8,2.8,0,0,0-1.18.24,2.45,2.45,0,0,0-.88.63,2.86,2.86,0,0,0-.56.94,3.46,3.46,0,0,0-.2,1.17,3,3,0,0,0,.54,1.82ZM54.07,246a2.85,2.85,0,0,0,.8.45,3.13,3.13,0,0,0,1,.16A2.78,2.78,0,0,0,57,246.4a2.57,2.57,0,0,0,.89-.63,3,3,0,0,0,.57-.94,3.42,3.42,0,0,0,.2-1.17,3.06,3.06,0,0,0-.55-1.82Z"/><path d="M72.65,237.13,68.09,247.4h-1.3l4.66-10.27H65.93v-1h6.72Z"/><path d="M79.79,242.54l0,0a2,2,0,0,1-.72.29,4.46,4.46,0,0,1-.84.09,3.59,3.59,0,0,1-1.37-.26A3.33,3.33,0,0,1,75,240.8a3.8,3.8,0,0,1-.26-1.41A3.68,3.68,0,0,1,75,238a3.27,3.27,0,0,1,.77-1.1,3.49,3.49,0,0,1,1.17-.72,4.29,4.29,0,0,1,2.94,0,3.49,3.49,0,0,1,1.17.72,3.27,3.27,0,0,1,.77,1.1,3.68,3.68,0,0,1,.27,1.43,4.39,4.39,0,0,1-.28,1.65,9.53,9.53,0,0,1-.7,1.39l-3,5H76.7Zm1.15-3.15a2.46,2.46,0,0,0-.19-1,2.06,2.06,0,0,0-.52-.77,2.61,2.61,0,0,0-.8-.51,2.8,2.8,0,0,0-1-.18,2.76,2.76,0,0,0-1,.18,2.61,2.61,0,0,0-.8.51,2.06,2.06,0,0,0-.52.77,2.67,2.67,0,0,0,0,2,2.18,2.18,0,0,0,.52.78,2.41,2.41,0,0,0,.8.5,2.76,2.76,0,0,0,1,.18,2.8,2.8,0,0,0,1-.18,2.41,2.41,0,0,0,.8-.5,2.18,2.18,0,0,0,.52-.78A2.46,2.46,0,0,0,80.94,239.39Z"/><path d="M87.31,235.88a3.21,3.21,0,0,1,2,.56,3.89,3.89,0,0,1,1.17,1.43,6.39,6.39,0,0,1,.56,1.89,13.14,13.14,0,0,1,0,4,6.39,6.39,0,0,1-.56,1.89A3.89,3.89,0,0,1,89.27,247a3.73,3.73,0,0,1-3.93,0,3.89,3.89,0,0,1-1.17-1.43,6.39,6.39,0,0,1-.56-1.89,13.14,13.14,0,0,1,0-4,6.39,6.39,0,0,1,.56-1.89,3.89,3.89,0,0,1,1.17-1.43A3.22,3.22,0,0,1,87.31,235.88Zm0,1.06a2.09,2.09,0,0,0-1.47.5,3.08,3.08,0,0,0-.81,1.23,6.09,6.09,0,0,0-.34,1.57c0,.55-.07,1-.07,1.5s0,.95.07,1.5a6.09,6.09,0,0,0,.34,1.57,3.08,3.08,0,0,0,.81,1.23,2.4,2.4,0,0,0,2.93,0,3.08,3.08,0,0,0,.81-1.23,6.09,6.09,0,0,0,.34-1.57c0-.55.07-1.05.07-1.5s0-1-.07-1.5a6.09,6.09,0,0,0-.34-1.57,3.08,3.08,0,0,0-.81-1.23A2.09,2.09,0,0,0,87.31,236.94Z"/><path d="M97.35,241.58c0-.28,0-.55,0-.83l-.06-.83h1.14v1.13h0a2.5,2.5,0,0,1,1.07-1,3.07,3.07,0,0,1,1.35-.34,3.9,3.9,0,0,1,.65.07,2.23,2.23,0,0,1,1.26.7,2.63,2.63,0,0,1,.47.79,2.45,2.45,0,0,1,1-1.14,3.06,3.06,0,0,1,3.57.34,3.12,3.12,0,0,1,.69,2.17v4.75h-1V243a3.17,3.17,0,0,0-.41-1.75,1.65,1.65,0,0,0-1.48-.61,1.92,1.92,0,0,0-1,.24,1.87,1.87,0,0,0-.64.61,2.58,2.58,0,0,0-.36.87,4.31,4.31,0,0,0-.11,1v4h-1.06V243a3.17,3.17,0,0,0-.4-1.75,1.67,1.67,0,0,0-1.49-.61l-.44.07a1.62,1.62,0,0,0-.71.35,2.42,2.42,0,0,0-.66.86,3.53,3.53,0,0,0-.3,1.6v3.84H97.35Z"/><path d="M111,241.58c0-.28,0-.55,0-.83s0-.56-.06-.83H112v1.13h0a2.5,2.5,0,0,1,1.07-1,3.07,3.07,0,0,1,1.35-.34,3.9,3.9,0,0,1,.65.07,2.25,2.25,0,0,1,.66.23,2.34,2.34,0,0,1,.6.47,2.44,2.44,0,0,1,.47.79,2.5,2.5,0,0,1,1-1.14,2.76,2.76,0,0,1,1.45-.42,2.73,2.73,0,0,1,2.12.76,3.12,3.12,0,0,1,.69,2.17v4.75H121.1V243a3.26,3.26,0,0,0-.4-1.75,1.68,1.68,0,0,0-1.49-.61,1.86,1.86,0,0,0-1,.24,1.81,1.81,0,0,0-.65.61,2.58,2.58,0,0,0-.36.87,4.31,4.31,0,0,0-.11,1v4H116V243a3.17,3.17,0,0,0-.4-1.75,1.67,1.67,0,0,0-1.49-.61l-.44.07a1.67,1.67,0,0,0-.71.35,2.53,2.53,0,0,0-.66.86,3.53,3.53,0,0,0-.3,1.6v3.84H111Z"/></g><line class="cls-2" x1="242.1" y1="38.48" x2="60.28" y2="38.48"/><line class="cls-2" x1="242.1" y1="38.88" x2="242.1" y2="38.02"/><line class="cls-2" x1="60.28" y1="38.93" x2="60.28" y2="37.82"/><line class="cls-2" x1="115.44" y1="227.23" x2="59.15" y2="227.23"/><line class="cls-2" x1="115.44" y1="228.17" x2="115.44" y2="226.15"/><line class="cls-2" x1="59.15" y1="228.28" x2="59.15" y2="225.66"/><g class="cls-1"><path d="M192.67,123.66a3.62,3.62,0,0,1,.68,1.16,4,4,0,0,1,.25,1.45,4.26,4.26,0,0,1-.29,1.57,3.8,3.8,0,0,1-.83,1.24,3.7,3.7,0,0,1-1.25.83,4.43,4.43,0,0,1-1.61.29,4.15,4.15,0,0,1-1.4-.22,3.72,3.72,0,0,1-1.11-.61L186,130.46l-.51-.5,1.06-1.08a3.78,3.78,0,0,1-.69-1.18,4.17,4.17,0,0,1-.24-1.43,4,4,0,0,1,.3-1.57,3.67,3.67,0,0,1,.82-1.25,3.76,3.76,0,0,1,1.26-.82,4.09,4.09,0,0,1,1.59-.3,4.18,4.18,0,0,1,1.39.22,3.84,3.84,0,0,1,1.15.61l1.06-1.08.51.49Zm-1.24.26a2.66,2.66,0,0,0-1.81-.63,3,3,0,0,0-1.18.23,2.6,2.6,0,0,0-.88.64,2.77,2.77,0,0,0-.56.94,3.42,3.42,0,0,0-.2,1.17,2.94,2.94,0,0,0,.55,1.82Zm-3.6,4.72a2.49,2.49,0,0,0,.8.44,2.78,2.78,0,0,0,1,.16,2.75,2.75,0,0,0,1.17-.23,2.48,2.48,0,0,0,.89-.63,2.73,2.73,0,0,0,.57-.94,3.51,3.51,0,0,0,.2-1.17,3.16,3.16,0,0,0-.54-1.83Z"/><path d="M206.26,119.74h-4.63l-.08,3.41a3.51,3.51,0,0,1,.75-.21,5.09,5.09,0,0,1,.77-.06,3.8,3.8,0,0,1,1.46.27,3.26,3.26,0,0,1,1.13.76,3.42,3.42,0,0,1,.73,1.15,4,4,0,0,1,0,2.94,3.34,3.34,0,0,1-.8,1.17,3.51,3.51,0,0,1-1.21.76,4.13,4.13,0,0,1-1.51.27,3.75,3.75,0,0,1-1.94-.51,3.37,3.37,0,0,1-1.33-1.5l1.16-.5a2.67,2.67,0,0,0,.89,1.07,2.28,2.28,0,0,0,1.32.39,2.56,2.56,0,0,0,1-.2,2.47,2.47,0,0,0,1.54-2.33,2.78,2.78,0,0,0-.2-1.09,2.57,2.57,0,0,0-1.46-1.41,3.33,3.33,0,0,0-1.12-.19,4.59,4.59,0,0,0-1.21.17,5.14,5.14,0,0,0-1.14.46l.11-5.88h5.78Z"/><path d="M215.15,119.74h-4.62l-.08,3.41a3.51,3.51,0,0,1,.75-.21,5,5,0,0,1,.77-.06,3.83,3.83,0,0,1,1.46.27,3.22,3.22,0,0,1,1.12.76,3.45,3.45,0,0,1,.74,1.15,4.14,4.14,0,0,1,0,2.94,3.48,3.48,0,0,1-.8,1.17,3.7,3.7,0,0,1-1.21.76,4.17,4.17,0,0,1-1.51.27,3.75,3.75,0,0,1-1.94-.51,3.31,3.31,0,0,1-1.33-1.5l1.15-.5a2.69,2.69,0,0,0,.9,1.07,2.28,2.28,0,0,0,1.32.39,2.51,2.51,0,0,0,1-.2,2.67,2.67,0,0,0,.81-.54,2.36,2.36,0,0,0,.54-.8,2.54,2.54,0,0,0,.2-1,2.79,2.79,0,0,0-.21-1.09,2.65,2.65,0,0,0-.57-.85,2.6,2.6,0,0,0-.88-.56,3.37,3.37,0,0,0-1.12-.19,4.53,4.53,0,0,0-1.21.17,5.14,5.14,0,0,0-1.14.46l.11-5.88h5.77Z"/><path d="M221.06,118.49a3.26,3.26,0,0,1,2,.56,3.69,3.69,0,0,1,1.16,1.43,6,6,0,0,1,.56,1.89,13.82,13.82,0,0,1,.15,2,13.58,13.58,0,0,1-.15,2,6.17,6.17,0,0,1-.56,1.9,3.66,3.66,0,0,1-1.16,1.42,3.75,3.75,0,0,1-3.94,0,3.78,3.78,0,0,1-1.17-1.42,6.45,6.45,0,0,1-.56-1.9,13.53,13.53,0,0,1-.14-2,13.76,13.76,0,0,1,.14-2,6.3,6.3,0,0,1,.56-1.89,3.81,3.81,0,0,1,1.17-1.43A3.24,3.24,0,0,1,221.06,118.49Zm0,1.06a2.09,2.09,0,0,0-1.47.49,3.2,3.2,0,0,0-.8,1.24,5.72,5.72,0,0,0-.35,1.56c-.05.56-.07,1.06-.07,1.51s0,1,.07,1.5a5.71,5.71,0,0,0,.35,1.57,3.17,3.17,0,0,0,.8,1.23,2.09,2.09,0,0,0,1.47.5,2.07,2.07,0,0,0,1.46-.5,3.08,3.08,0,0,0,.81-1.23,6.09,6.09,0,0,0,.34-1.57c.05-.55.08-1,.08-1.5s0-.95-.08-1.51a6.1,6.1,0,0,0-.34-1.56,3.11,3.11,0,0,0-.81-1.24A2.06,2.06,0,0,0,221.06,119.55Z"/><path d="M231.11,124.19c0-.28,0-.56,0-.83s0-.56-.05-.84h1.13v1.14h0a2.44,2.44,0,0,1,1.07-1,2.94,2.94,0,0,1,1.35-.34,3.07,3.07,0,0,1,.65.07,2.25,2.25,0,0,1,.66.23,2.34,2.34,0,0,1,.6.47,2.28,2.28,0,0,1,.47.78,2.48,2.48,0,0,1,1-1.13,2.76,2.76,0,0,1,1.45-.42,2.69,2.69,0,0,1,2.12.76,3.12,3.12,0,0,1,.69,2.17V130h-1.05v-4.37a3.25,3.25,0,0,0-.4-1.74,1.65,1.65,0,0,0-1.49-.61,2,2,0,0,0-1,.23,1.84,1.84,0,0,0-.65.62,2.58,2.58,0,0,0-.36.87,4.31,4.31,0,0,0-.11,1v4h-1.06v-4.37a3.16,3.16,0,0,0-.4-1.74,1.64,1.64,0,0,0-1.49-.61,2.67,2.67,0,0,0-.44.07,1.67,1.67,0,0,0-.71.35,2.53,2.53,0,0,0-.66.86,3.53,3.53,0,0,0-.3,1.6V130h-1Z"/><path d="M244.74,124.19c0-.28,0-.56,0-.83s0-.56-.05-.84h1.13v1.14h0a2.41,2.41,0,0,1,1.06-1,2.94,2.94,0,0,1,1.35-.34,3.07,3.07,0,0,1,.65.07,2.25,2.25,0,0,1,.66.23,2,2,0,0,1,.6.47,2.28,2.28,0,0,1,.47.78,2.53,2.53,0,0,1,1-1.13,2.79,2.79,0,0,1,1.45-.42,2.73,2.73,0,0,1,2.13.76,3.12,3.12,0,0,1,.69,2.17V130h-1.06v-4.37a3.16,3.16,0,0,0-.4-1.74,1.64,1.64,0,0,0-1.49-.61,2,2,0,0,0-1,.23,1.93,1.93,0,0,0-.65.62,3.07,3.07,0,0,0-.36.87,4.9,4.9,0,0,0-.11,1v4h-1.06v-4.37a3.16,3.16,0,0,0-.4-1.74,1.62,1.62,0,0,0-1.48-.61,2.58,2.58,0,0,0-.45.07,1.73,1.73,0,0,0-.71.35,2.67,2.67,0,0,0-.66.86,3.53,3.53,0,0,0-.3,1.6V130h-1Z"/></g><g class="cls-1"><path d="M266.63,112.49a3.62,3.62,0,0,1,1.16-.68,4.29,4.29,0,0,1,3,0,3.67,3.67,0,0,1,1.25.82,3.62,3.62,0,0,1,.82,1.26,4.4,4.4,0,0,1,.07,3,4,4,0,0,1-.6,1.12l1.08,1.07-.49.51-1.09-1.06a3.56,3.56,0,0,1-1.18.69,4.17,4.17,0,0,1-1.43.24,4.26,4.26,0,0,1-1.57-.29,3.8,3.8,0,0,1-1.24-.83,3.7,3.7,0,0,1-.83-1.25,4.38,4.38,0,0,1-.29-1.6,4.45,4.45,0,0,1,.21-1.39,3.86,3.86,0,0,1,.62-1.15l-1.09-1.06.5-.51Zm.26,1.25a2.63,2.63,0,0,0-.62,1.8,2.79,2.79,0,0,0,.23,1.18,2.45,2.45,0,0,0,.63.88,2.86,2.86,0,0,0,.94.56,3.51,3.51,0,0,0,1.17.2,3,3,0,0,0,1.83-.54Zm4.72,3.6a3,3,0,0,0,.45-.8,2.87,2.87,0,0,0,.16-1,2.91,2.91,0,0,0-.23-1.17,2.75,2.75,0,0,0-1.58-1.46,3.42,3.42,0,0,0-1.17-.2,3.06,3.06,0,0,0-1.82.55Z"/><path d="M266.52,103.08v-.59a3.69,3.69,0,0,0-.11-.95,2.09,2.09,0,0,0-.36-.8,1.79,1.79,0,0,0-.65-.53,2,2,0,0,0-1-.2,1.79,1.79,0,0,0-1.41.55,2.18,2.18,0,0,0-.51,1.54,2.49,2.49,0,0,0,.32,1.27,2.57,2.57,0,0,0,.93.89l-.51,1a3.33,3.33,0,0,1-1.35-1.3,3.65,3.65,0,0,1-.44-1.83,4.07,4.07,0,0,1,.19-1.27,3.18,3.18,0,0,1,.57-1,2.81,2.81,0,0,1,.92-.71,2.84,2.84,0,0,1,1.26-.26,2.58,2.58,0,0,1,.88.15,2.72,2.72,0,0,1,.75.41,3.15,3.15,0,0,1,.59.62,2.7,2.7,0,0,1,.37.74l0,0a2.64,2.64,0,0,1,.36-.88,2.85,2.85,0,0,1,.65-.69,3.26,3.26,0,0,1,.87-.45,3.32,3.32,0,0,1,1-.16,3.27,3.27,0,0,1,1.4.29,3,3,0,0,1,1,.78,3.34,3.34,0,0,1,.63,1.16,4.22,4.22,0,0,1,.22,1.39,4.12,4.12,0,0,1-.55,2.17,3.3,3.3,0,0,1-1.74,1.4l-.37-1.22a2.33,2.33,0,0,0,1.21-.86,2.77,2.77,0,0,0,.39-1.59,2.53,2.53,0,0,0-.16-.91,2.32,2.32,0,0,0-.45-.76,2.05,2.05,0,0,0-.72-.51,2.24,2.24,0,0,0-.91-.19,2.27,2.27,0,0,0-1.08.24,2.09,2.09,0,0,0-.71.64,2.81,2.81,0,0,0-.39.92,4.83,4.83,0,0,0-.12,1.08v.5Z"/><path d="M267,94.47a2.25,2.25,0,0,1-.37.68,2.53,2.53,0,0,1-.59.54,2.9,2.9,0,0,1-.73.35,2.9,2.9,0,0,1-2.06-.13,2.69,2.69,0,0,1-.93-.69,3,3,0,0,1-.6-1,3.82,3.82,0,0,1,0-2.44,3,3,0,0,1,.6-1,2.69,2.69,0,0,1,.93-.69,2.91,2.91,0,0,1,1.23-.26,2.84,2.84,0,0,1,1.56.48,2.53,2.53,0,0,1,.59.54,2.25,2.25,0,0,1,.37.68h0A2.72,2.72,0,0,1,268,90a3.25,3.25,0,0,1,1.92-.57,2.89,2.89,0,0,1,1.33.29,3.29,3.29,0,0,1,1,.79,3.39,3.39,0,0,1,.64,1.13,4.2,4.2,0,0,1,0,2.74,3.39,3.39,0,0,1-.64,1.13,3.29,3.29,0,0,1-1,.79,3,3,0,0,1-1.33.29A3.25,3.25,0,0,1,268,96,2.72,2.72,0,0,1,267,94.47ZM264.52,91a2,2,0,0,0-1.43.58,2,2,0,0,0-.42.64,2.07,2.07,0,0,0-.15.8,2.11,2.11,0,0,0,.15.8,2.15,2.15,0,0,0,.42.64,1.93,1.93,0,0,0,.63.42,2.11,2.11,0,0,0,.8.16,2.08,2.08,0,0,0,.8-.16,1.74,1.74,0,0,0,.63-.42,2,2,0,0,0,.42-.64,2.11,2.11,0,0,0,.15-.8,2.07,2.07,0,0,0-.15-.8,1.87,1.87,0,0,0-.42-.64,1.74,1.74,0,0,0-.63-.42A1.91,1.91,0,0,0,264.52,91Zm5.28-.41a2.55,2.55,0,0,0-.92.17,2.18,2.18,0,0,0-.73.49,2.26,2.26,0,0,0-.49.77,2.9,2.9,0,0,0,0,2,2.21,2.21,0,0,0,.49.76,2.18,2.18,0,0,0,.73.49,2.55,2.55,0,0,0,.92.17,2.51,2.51,0,0,0,.92-.17,2.33,2.33,0,0,0,.74-.49A2.21,2.21,0,0,0,272,94a3.06,3.06,0,0,0,0-2,2.26,2.26,0,0,0-.49-.77,2.33,2.33,0,0,0-.74-.49A2.51,2.51,0,0,0,269.8,90.57Z"/><path d="M261.47,84.1a3.14,3.14,0,0,1,.56-2A3.69,3.69,0,0,1,263.45,81a6.17,6.17,0,0,1,1.9-.56,13.58,13.58,0,0,1,2-.15,13.82,13.82,0,0,1,2,.15,6,6,0,0,1,1.89.56,3.72,3.72,0,0,1,1.43,1.17,3.73,3.73,0,0,1,0,3.93,3.81,3.81,0,0,1-1.43,1.17,6.3,6.3,0,0,1-1.89.56,13.76,13.76,0,0,1-2,.14,13.53,13.53,0,0,1-2-.14,6.45,6.45,0,0,1-1.9-.56A3.78,3.78,0,0,1,262,86.07,3.17,3.17,0,0,1,261.47,84.1Zm1,0a2.09,2.09,0,0,0,.5,1.47,3.19,3.19,0,0,0,1.23.81,6.09,6.09,0,0,0,1.57.34c.55,0,1.05.07,1.5.07s.95,0,1.51-.07a6.1,6.1,0,0,0,1.56-.34,3.22,3.22,0,0,0,1.24-.81,2.44,2.44,0,0,0,0-2.93,3.11,3.11,0,0,0-1.24-.81,6.1,6.1,0,0,0-1.56-.34c-.56,0-1.06-.07-1.51-.07s-.95,0-1.5.07a6.09,6.09,0,0,0-1.57.34,3.08,3.08,0,0,0-1.23.81A2.09,2.09,0,0,0,262.52,84.1Z"/><path d="M267.16,74.06c-.28,0-.55,0-.83,0l-.83.06V73h1.13v0a2.56,2.56,0,0,1-1-1.07,3.05,3.05,0,0,1-.33-1.35,3.83,3.83,0,0,1,.06-.65,2.25,2.25,0,0,1,.23-.66,2.34,2.34,0,0,1,.47-.6,2.63,2.63,0,0,1,.79-.47,2.5,2.5,0,0,1-1.14-1,2.82,2.82,0,0,1-.41-1.45,2.69,2.69,0,0,1,.76-2.12,3.1,3.1,0,0,1,2.16-.69H273v1h-4.37a3.26,3.26,0,0,0-1.75.4,1.67,1.67,0,0,0-.6,1.49,1.86,1.86,0,0,0,.23,1,1.81,1.81,0,0,0,.61.65,2.55,2.55,0,0,0,.88.36,4.17,4.17,0,0,0,1,.11h4V69h-4.37a3.17,3.17,0,0,0-1.75.4,1.66,1.66,0,0,0-.6,1.49,3.61,3.61,0,0,0,.06.44,1.67,1.67,0,0,0,.35.71,2.37,2.37,0,0,0,.87.66,3.48,3.48,0,0,0,1.6.3H273v1.06Z"/><path d="M267.16,60.42c-.28,0-.55,0-.83,0l-.83,0V59.37h1.13v0a2.56,2.56,0,0,1-1-1.07,3.05,3.05,0,0,1-.33-1.35,3.83,3.83,0,0,1,.06-.65,2.25,2.25,0,0,1,.23-.66,2,2,0,0,1,.47-.6,2.44,2.44,0,0,1,.79-.47,2.56,2.56,0,0,1-1.14-1,2.85,2.85,0,0,1-.41-1.45,2.73,2.73,0,0,1,.76-2.13,3.14,3.14,0,0,1,2.16-.68H273v1.05h-4.37a3.26,3.26,0,0,0-1.75.4,1.66,1.66,0,0,0-.6,1.49,1.84,1.84,0,0,0,.84,1.64,2.76,2.76,0,0,0,.88.36,4.74,4.74,0,0,0,1,.11h4v1.06h-4.37a3.17,3.17,0,0,0-1.75.4,1.65,1.65,0,0,0-.6,1.49,3.61,3.61,0,0,0,.06.44,1.67,1.67,0,0,0,.35.71,2.61,2.61,0,0,0,.87.66,3.48,3.48,0,0,0,1.6.3H273v1.05Z"/></g><line class="cls-2" x1="251.35" y1="69.54" x2="251.35" y2="98.68"/><line class="cls-2" x1="252.29" y1="69.54" x2="250.27" y2="69.54"/><line class="cls-2" x1="252.4" y1="98.68" x2="249.78" y2="98.68"/><path class="cls-3" d="M90.54,199.46v-6.89m-5.06,6.9V193m6.23,6.49,24.22,17.36v.76H60.28v-.76l24.26-17.36Zm.35-138.69s-2.14,1-3,1.46M87,50.43v-.24a3.12,3.12,0,0,0-.26-1.2m-.11,8.28L87,50.43M217.86,61.59a2.81,2.81,0,0,0-2-.87h-.1M90,57.82a2.8,2.8,0,0,0,2,.87h.09M219.86,57a2.75,2.75,0,1,0,2.76,2.77A2.76,2.76,0,0,0,219.86,57Zm-4.1,1.74h.1a2.85,2.85,0,0,0,2-.87m-.1.1a2.5,2.5,0,0,0,.63-1.53m2.93,0a3,3,0,0,0,.64,1.53"/><path class="cls-3" d="M218.93,50.42V50.2a3.77,3.77,0,0,0-.19-1.17"/><path class="cls-3" d="M221.08,49a2.73,2.73,0,0,0-.29,1.21c0,.06,0,.17,0,.23"/><path class="cls-3" d="M89.42,56.39a2.56,2.56,0,0,0,.63,1.53M89.15,49a2.5,2.5,0,0,0-.26,1.2v.23m0,0,.5,6m19.29,4.83h90.45m-90.45-3h32.86m-49.49.5,14-.5m-14,2.53,14,.5m2.66,0v-3m-2.66,0h2.66m-2.66,3h2.66m90.45,0v-3m2.63,0,14,.5m-14,2.53,14-.5m2.63-4.33.53-6m1.91,0,.49,6m-132-7.1a.42.42,0,0,0,.26-.1M90,49a.38.38,0,0,0-.27.1m0-1.47a.32.32,0,0,0,.3.17m-.3-.17a.32.32,0,0,0,.3.17m-.3-.17a.48.48,0,0,0-.3-.13m130.47,10a2.22,2.22,0,1,0,2.23,2.23A2.23,2.23,0,0,0,219.86,57.49Z"/><path class="cls-3" d="M219.11,47.27a.73.73,0,0,0-.51.35"/><path class="cls-3" d="M218.75,49.08a1,1,0,0,0-.45-.09"/><path class="cls-3" d="M218.3,47.79a.34.34,0,0,0,.3-.17M153.94,59.19a.53.53,0,0,0,0,1.06.53.53,0,0,0,0-1.06ZM88.69,49.52a1.35,1.35,0,0,0,.6-1.13,1.35,1.35,0,1,0-2.7,0,1.44,1.44,0,0,0,.73,1.23Zm131.74.1a1.42,1.42,0,0,0,.8-1.23,1.35,1.35,0,1,0-2.7,0,1.56,1.56,0,0,0,.66,1.17A1.71,1.71,0,0,0,220.43,49.62ZM90,49h4.86M90,47.79H153.9m-64.28,1.4.1-.1m109.41,9.1h2.63m-2.63,3h2.63M153.9,47.79h64.4M153.9,49h64.43m-129.28.31h.3m-.4-1.8h.44M94.85,49H153.9M95,49l57.22,9.83M89.49,49.25,152,60m0,0,.2-1.17m-3.17-.63h50.06M85.72,193.25a2.75,2.75,0,1,0,.68-3.85A2.75,2.75,0,0,0,85.72,193.25Zm.44-.3a2.22,2.22,0,1,0,.55-3.11A2.23,2.23,0,0,0,86.16,193Zm-.44.3a2.75,2.75,0,1,0,.68-3.85A2.75,2.75,0,0,0,85.72,193.25ZM89,187.56s1,2.14,1.45,2.94m-11.78,2.12h-.23a2.92,2.92,0,0,0-1.2.27m8.28.11-6.85-.38M89.84,61.76a2.85,2.85,0,0,0-.87,2v.1m-2.9,125.8a2.73,2.73,0,0,0,.87-2v-.09M85.21,59.76A2.75,2.75,0,1,0,88,57,2.75,2.75,0,0,0,85.21,59.76Zm1.73,4.1v-.1a2.81,2.81,0,0,0-.87-2m.1.1a2.48,2.48,0,0,0-1.53-.63m0-2.94a3,3,0,0,0,1.53-.63"/><path class="cls-3" d="M78.68,60.69h-.23a3.82,3.82,0,0,0-1.17.19"/><path class="cls-3" d="M77.23,58.53a2.6,2.6,0,0,0,1.21.29l.24,0"/><path class="cls-3" d="M84.64,190.2a2.52,2.52,0,0,0,1.53-.64m-8.93.9a2.54,2.54,0,0,0,1.2.27h.24m0,0,6-.5m4.83-19.3V80.49m-3,90.44V138.07m.5,49.49-.5-14m2.53,14,.5-14m0-2.67h-3m0,2.67v-2.67m3,2.67v-2.67m0-90.44h-3m0-2.63.5-14m2.53,14-.5-14m-4.33-2.63-6-.54m0-1.9,6-.5m-7.1,132a.34.34,0,0,0-.1-.26m-.2-.37a.43.43,0,0,0,.1.27m-1.46,0a.35.35,0,0,0,.16-.3m-.16.3a.35.35,0,0,0,.16-.3m-.16.3a.49.49,0,0,0-.14.3m10-130.47A2.22,2.22,0,1,0,88,57.53,2.23,2.23,0,0,0,85.74,59.76Z"/><path class="cls-3" d="M75.52,60.51a.73.73,0,0,0,.36.5"/><path class="cls-3" d="M77.33,60.87a1,1,0,0,0-.09.45"/><path class="cls-3" d="M76,61.31a.32.32,0,0,0-.16-.29m11.56,64.66a.54.54,0,0,0,1.07,0,.54.54,0,1,0-1.07,0Zm-9.66,65.25a1.35,1.35,0,0,0-1.14-.6,1.35,1.35,0,1,0,0,2.7,1.44,1.44,0,0,0,1.23-.73Zm.09-131.74a1.39,1.39,0,0,0-1.23-.8,1.35,1.35,0,1,0,0,2.7,1.56,1.56,0,0,0,1.17-.66A1.7,1.7,0,0,0,77.87,59.19Zm-.63,130.44v-4.86M76,189.63V125.71M77.44,190l-.1-.1m9.1-109.41V77.86m3,2.63V77.86M76,125.71V61.32m1.2,64.39V61.29m.3,129.27v-.29m-1.8.39v-.43m1.5-5.46V125.71m0,58.89,9.83-57.22m-9.56,62.75,10.73-62.55m0,0-1.17-.2m-.63,3.16v-50m122.86-11h23l9.83,29H200.42Zm8.85-7.27v7.13M221.4,62l0,7.33"/><path class="cls-3" d="M220.68,69.87V98.48M219,69.85l-1.12,28.63m-.52-28.65-2.24,28.65m.61-28.67L212.4,98.48m1.73-28.69-4.47,28.69m2.83-28.7-5.55,28.64m3.91-28.66-6.66,28.69m5-28.71-7.77,28.75m21-28.64,1.13,28.63m.51-28.65,2.24,28.63m-.61-28.65,3.38,28.65m-1.74-28.67,4.46,28.69M229,69.78l5.58,28.7m-3.94-28.72,6.66,28.69m-5-28.71L240,98.49"/><line class="cls-2" x1="242.63" y1="110.42" x2="199.47" y2="110.42"/><line class="cls-2" x1="242.63" y1="111.37" x2="242.63" y2="109.35"/><line class="cls-2" x1="199.47" y1="111.47" x2="199.47" y2="108.86"/></svg>