<svg id="Tab_F" data-name="Tab F" xmlns="http://www.w3.org/2000/svg" viewBox="0 0 300 263"><defs><style>.cls-1{isolation:isolate;}.cls-2,.cls-3{fill:none;stroke-width:0.5px;}.cls-2{stroke:#000;}.cls-3{stroke:#1a171b;stroke-linecap:round;stroke-linejoin:round;}</style></defs><title>tab-floor-barber-osgerby-flos-F6561009-spech-tech-02-300x263</title><g class="cls-1"><path d="M109.36,160.09v1.15H99.47l1.79,2-.86.72L98,161.12v-1Z"/><path d="M109.36,151.2v1.15H99.47l1.79,2-.86.72L98,152.22v-1Z"/><path d="M97.84,143.42a3.17,3.17,0,0,1,.56-2,3.86,3.86,0,0,1,1.42-1.17,6.77,6.77,0,0,1,1.9-.56,14,14,0,0,1,4,0,6.77,6.77,0,0,1,1.9.56,3.86,3.86,0,0,1,1.42,1.17,3.75,3.75,0,0,1,0,3.94,3.74,3.74,0,0,1-1.42,1.16,6.46,6.46,0,0,1-1.9.57,14,14,0,0,1-4,0,6.46,6.46,0,0,1-1.9-.57,3.74,3.74,0,0,1-1.42-1.16A3.17,3.17,0,0,1,97.84,143.42Zm1,0a2.05,2.05,0,0,0,.5,1.46,3.08,3.08,0,0,0,1.23.81,6.09,6.09,0,0,0,1.57.35c.55,0,1.06.07,1.5.07s1,0,1.51-.07a6.19,6.19,0,0,0,1.57-.35,3.08,3.08,0,0,0,1.23-.81,2.42,2.42,0,0,0,0-2.92,3.08,3.08,0,0,0-1.23-.81,6.19,6.19,0,0,0-1.57-.35c-.56,0-1.06-.07-1.51-.07s-1,0-1.5.07a6.09,6.09,0,0,0-1.57.35,3.08,3.08,0,0,0-1.23.81A2.05,2.05,0,0,0,98.89,143.42Z"/><path d="M97.84,134.52a3.14,3.14,0,0,1,.56-2,3.67,3.67,0,0,1,1.42-1.17,6.17,6.17,0,0,1,1.9-.56,13.08,13.08,0,0,1,4,0,6.17,6.17,0,0,1,1.9.56,3.67,3.67,0,0,1,1.42,1.17,3.73,3.73,0,0,1,0,3.93,3.86,3.86,0,0,1-1.42,1.17,6.45,6.45,0,0,1-1.9.56,14,14,0,0,1-4,0,6.45,6.45,0,0,1-1.9-.56,3.86,3.86,0,0,1-1.42-1.17A3.17,3.17,0,0,1,97.84,134.52Zm1,0a2.09,2.09,0,0,0,.5,1.47,3.17,3.17,0,0,0,1.23.8,5.71,5.71,0,0,0,1.57.35c.55.05,1.06.07,1.5.07s1,0,1.51-.07a5.79,5.79,0,0,0,1.57-.35A3.17,3.17,0,0,0,108,136a2.09,2.09,0,0,0,.49-1.47,2.06,2.06,0,0,0-.49-1.46,3.08,3.08,0,0,0-1.23-.81,6.18,6.18,0,0,0-1.57-.34c-.56,0-1.06-.08-1.51-.08s-1,0-1.5.08a6.09,6.09,0,0,0-1.57.34,3.08,3.08,0,0,0-1.23.81A2.07,2.07,0,0,0,98.89,134.52Z"/><path d="M103.53,124.48c-.27,0-.55,0-.83,0l-.83.06v-1.14H103v0a2.52,2.52,0,0,1-1-1.07,3.05,3.05,0,0,1-.33-1.35,3.83,3.83,0,0,1,.06-.65,2.25,2.25,0,0,1,.23-.66,2.19,2.19,0,0,1,.48-.6,2.28,2.28,0,0,1,.78-.47,2.5,2.5,0,0,1-1.14-1,2.85,2.85,0,0,1-.41-1.45,2.69,2.69,0,0,1,.76-2.12,3.11,3.11,0,0,1,2.17-.69h4.75v1H105a3.2,3.2,0,0,0-1.74.4,1.65,1.65,0,0,0-.61,1.49,1.86,1.86,0,0,0,.23,1,1.76,1.76,0,0,0,.62.65,2.42,2.42,0,0,0,.87.36,4.17,4.17,0,0,0,1,.11h4v1.06H105a3.11,3.11,0,0,0-1.74.4,1.64,1.64,0,0,0-.61,1.49,3.61,3.61,0,0,0,.06.44,1.67,1.67,0,0,0,.35.71,2.58,2.58,0,0,0,.87.66,3.48,3.48,0,0,0,1.6.3h3.84v1.06Z"/><path d="M103.53,110.84l-.83,0-.83,0v-1.13H103v0a2.5,2.5,0,0,1-1-1.06,3.05,3.05,0,0,1-.33-1.35,3.83,3.83,0,0,1,.06-.65A2.25,2.25,0,0,1,102,106a1.93,1.93,0,0,1,.48-.6,2.28,2.28,0,0,1,.78-.47,2.56,2.56,0,0,1-1.14-1,2.85,2.85,0,0,1-.41-1.45,2.73,2.73,0,0,1,.76-2.13,3.1,3.1,0,0,1,2.17-.68h4.75v1H105a3.11,3.11,0,0,0-1.74.4,1.64,1.64,0,0,0-.61,1.49,1.91,1.91,0,0,0,.23,1,1.84,1.84,0,0,0,.62.65,2.84,2.84,0,0,0,.87.36,4.74,4.74,0,0,0,1,.11h4v1.06H105a3.11,3.11,0,0,0-1.74.4,1.63,1.63,0,0,0-.61,1.49,3.61,3.61,0,0,0,.06.44,1.73,1.73,0,0,0,.35.71,2.72,2.72,0,0,0,.87.66,3.48,3.48,0,0,0,1.6.3h3.84v1Z"/></g><line class="cls-2" x1="118.78" y1="47.02" x2="118.78" y2="217.3"/><line class="cls-2" x1="120.35" y1="47.02" x2="116.98" y2="47.02"/><line class="cls-2" x1="120.53" y1="217.3" x2="116.16" y2="217.3"/><g class="cls-1"><path d="M117.83,241.05a3.62,3.62,0,0,1,.68,1.16,4.05,4.05,0,0,1,.25,1.45,4.22,4.22,0,0,1-.29,1.57,4,4,0,0,1-.83,1.25,3.82,3.82,0,0,1-1.25.82,4.23,4.23,0,0,1-1.61.3,4.15,4.15,0,0,1-1.4-.23,3.72,3.72,0,0,1-1.11-.61l-1.08,1.09-.51-.49,1.06-1.09a3.56,3.56,0,0,1-.69-1.18,4.17,4.17,0,0,1-.24-1.43,4,4,0,0,1,.3-1.57,3.65,3.65,0,0,1,2.08-2.07,4.09,4.09,0,0,1,1.59-.3,4.45,4.45,0,0,1,1.39.22,3.65,3.65,0,0,1,1.15.62l1.06-1.09.51.49Zm-1.24.26a2.66,2.66,0,0,0-1.81-.63,2.8,2.8,0,0,0-1.18.24,2.45,2.45,0,0,0-.88.63,2.86,2.86,0,0,0-.56.94,3.46,3.46,0,0,0-.2,1.17,2.92,2.92,0,0,0,.55,1.82ZM113,246a2.72,2.72,0,0,0,.8.45,3,3,0,0,0,1,.16,2.75,2.75,0,0,0,1.17-.24,2.48,2.48,0,0,0,.89-.63,2.64,2.64,0,0,0,.57-.94,3.42,3.42,0,0,0,.2-1.17,3.13,3.13,0,0,0-.54-1.82Z"/><path d="M131.56,237.13,127,247.4h-1.29l4.65-10.27h-5.52v-1h6.72Z"/><path d="M140.84,247.4h-7.2v-1.32l4.51-4.6.52-.54a4.64,4.64,0,0,0,.46-.61,3.25,3.25,0,0,0,.34-.67,2.25,2.25,0,0,0,.12-.74,2,2,0,0,0-.16-.83,1.82,1.82,0,0,0-.48-.62,2.08,2.08,0,0,0-.7-.39,2.66,2.66,0,0,0-.85-.14,2.3,2.3,0,0,0-1.47.48,2.11,2.11,0,0,0-.78,1.3l-1.22-.13a3.21,3.21,0,0,1,1.16-2,3.51,3.51,0,0,1,2.23-.72,4.71,4.71,0,0,1,1.31.19,3.07,3.07,0,0,1,1.08.55,2.72,2.72,0,0,1,.76.92,2.92,2.92,0,0,1,.28,1.29,3.51,3.51,0,0,1-.2,1.2,5.44,5.44,0,0,1-.52,1,7.1,7.1,0,0,1-.73.91c-.27.29-.55.58-.84.85l-3.57,3.54h6Z"/><path d="M145,240.94h.59a4.28,4.28,0,0,0,1-.11,2.39,2.39,0,0,0,.79-.36,1.92,1.92,0,0,0,.54-.65,2.19,2.19,0,0,0,.19-1,1.82,1.82,0,0,0-.55-1.42,2.21,2.21,0,0,0-1.54-.5,2.46,2.46,0,0,0-1.26.32,2.37,2.37,0,0,0-.9.93l-1-.51a3.44,3.44,0,0,1,1.31-1.36,3.7,3.7,0,0,1,1.83-.44,4,4,0,0,1,1.26.2,2.9,2.9,0,0,1,1,.56,2.71,2.71,0,0,1,.71.93,2.84,2.84,0,0,1,.27,1.26,2.37,2.37,0,0,1-.16.88,2.48,2.48,0,0,1-.41.75,3.08,3.08,0,0,1-1.35,1l0,0a2.72,2.72,0,0,1,.88.36,2.8,2.8,0,0,1,.68.65,2.94,2.94,0,0,1,.45.86,3.1,3.1,0,0,1,.16,1,3.2,3.2,0,0,1-.29,1.39,3,3,0,0,1-.78,1,3.39,3.39,0,0,1-1.15.63,4.56,4.56,0,0,1-1.4.22,4.14,4.14,0,0,1-2.17-.55,3.29,3.29,0,0,1-1.39-1.74l1.21-.37a2.43,2.43,0,0,0,.86,1.21,2.79,2.79,0,0,0,1.59.39,2.49,2.49,0,0,0,.91-.16,2.34,2.34,0,0,0,.76-.46,2.08,2.08,0,0,0,.52-.71,2.27,2.27,0,0,0,.18-.91,2.21,2.21,0,0,0-.24-1.08,2,2,0,0,0-.64-.71,2.72,2.72,0,0,0-.92-.39,4.83,4.83,0,0,0-1.08-.12H145Z"/><path d="M156.27,241.58c0-.28,0-.55,0-.83s0-.56-.05-.83h1.13v1.13h0a2.5,2.5,0,0,1,1.07-1,3.07,3.07,0,0,1,1.35-.34,3.9,3.9,0,0,1,.65.07,2.25,2.25,0,0,1,.66.23,2.18,2.18,0,0,1,.6.47,2.44,2.44,0,0,1,.47.79,2.56,2.56,0,0,1,1-1.14,3.07,3.07,0,0,1,3.58.34,3.17,3.17,0,0,1,.68,2.17v4.75h-1.05V243a3.26,3.26,0,0,0-.4-1.75,1.68,1.68,0,0,0-1.49-.61,1.86,1.86,0,0,0-1,.24,1.81,1.81,0,0,0-.65.61,2.58,2.58,0,0,0-.36.87,4.9,4.9,0,0,0-.11,1v4h-1.06V243a3.17,3.17,0,0,0-.4-1.75,1.67,1.67,0,0,0-1.49-.61l-.44.07a1.67,1.67,0,0,0-.71.35,2.53,2.53,0,0,0-.66.86,3.53,3.53,0,0,0-.3,1.6v3.84h-1Z"/><path d="M169.9,241.58c0-.28,0-.55,0-.83s0-.56-.05-.83H171v1.13h0a2.47,2.47,0,0,1,1.06-1,3.07,3.07,0,0,1,1.35-.34,3.9,3.9,0,0,1,.65.07,2.25,2.25,0,0,1,.66.23,2,2,0,0,1,.6.47,2.64,2.64,0,0,1,.48.79,2.48,2.48,0,0,1,1-1.14,3.07,3.07,0,0,1,3.58.34,3.12,3.12,0,0,1,.69,2.17v4.75H180V243a3.17,3.17,0,0,0-.4-1.75,1.67,1.67,0,0,0-1.49-.61,1.87,1.87,0,0,0-1.64.85,3.07,3.07,0,0,0-.36.87,4.9,4.9,0,0,0-.11,1v4H175V243a3.17,3.17,0,0,0-.4-1.75,1.65,1.65,0,0,0-1.48-.61,4.29,4.29,0,0,0-.45.07,1.73,1.73,0,0,0-.71.35,2.67,2.67,0,0,0-.66.86,3.53,3.53,0,0,0-.3,1.6v3.84h-1Z"/></g><line class="cls-2" x1="164.73" y1="226.51" x2="128.54" y2="226.51"/><line class="cls-2" x1="164.73" y1="227.45" x2="164.73" y2="225.43"/><line class="cls-2" x1="128.54" y1="227.56" x2="128.54" y2="224.94"/><g class="cls-1"><path d="M193.34,75.22V73.58h1v1.64h2.69v1.15h-2.69v4.9h-1.31l-7.33-4.58V75.22Zm-6.44,1.15v0l6.44,3.91V76.37Z"/><path d="M192.22,67.15l0,0a1.84,1.84,0,0,1,.29.72,3.82,3.82,0,0,1,.1.84,3.45,3.45,0,0,1-.27,1.37,3.28,3.28,0,0,1-.72,1.1,3.23,3.23,0,0,1-1.11.72,3.55,3.55,0,0,1-1.41.27,3.63,3.63,0,0,1-1.42-.27,3.17,3.17,0,0,1-1.1-.77,3.49,3.49,0,0,1-.72-1.17,4.29,4.29,0,0,1,0-2.94,3.49,3.49,0,0,1,.72-1.17,3.17,3.17,0,0,1,1.1-.77,3.63,3.63,0,0,1,1.42-.27,4.39,4.39,0,0,1,1.65.28,9,9,0,0,1,1.39.7l5,3v1.36ZM189.06,66a2.46,2.46,0,0,0-1,.19,2.14,2.14,0,0,0-.77.52,2.47,2.47,0,0,0-.5.79,2.86,2.86,0,0,0-.18,1,2.8,2.8,0,0,0,.18,1,2.41,2.41,0,0,0,.5.8,2.14,2.14,0,0,0,.77.52,2.7,2.7,0,0,0,2,0,2.23,2.23,0,0,0,.77-.52,2.29,2.29,0,0,0,.51-.8,3,3,0,0,0,.17-1,3.09,3.09,0,0,0-.17-1,2.34,2.34,0,0,0-.51-.79,2.23,2.23,0,0,0-.77-.52A2.48,2.48,0,0,0,189.06,66Z"/><path d="M191.26,58.48l-.84,0-.83.06V57.42h1.14v0a2.41,2.41,0,0,1-1-1.06A3,3,0,0,1,189.4,55a3.74,3.74,0,0,1,.06-.65,2.28,2.28,0,0,1,.24-.66,2.22,2.22,0,0,1,.47-.61,2.65,2.65,0,0,1,.78-.47,2.41,2.41,0,0,1-1.13-1,2.79,2.79,0,0,1-.42-1.45,2.73,2.73,0,0,1,.76-2.13,3.12,3.12,0,0,1,2.17-.69h4.75v1.06h-4.37a3.13,3.13,0,0,0-1.74.4,1.64,1.64,0,0,0-.61,1.49,2,2,0,0,0,.23,1,1.93,1.93,0,0,0,.62.65,2.84,2.84,0,0,0,.87.36,4.83,4.83,0,0,0,1,.11h4v1.05h-4.37a3.22,3.22,0,0,0-1.74.4,1.65,1.65,0,0,0-.61,1.49,3.37,3.37,0,0,0,.06.44,1.65,1.65,0,0,0,.36.71,2.55,2.55,0,0,0,.86.67,3.52,3.52,0,0,0,1.6.29h3.84v1.06Z"/><path d="M191.26,44.85l-.84,0-.83.06V43.79h1.14v0a2.47,2.47,0,0,1-1-1.06,3,3,0,0,1-.34-1.35,3.74,3.74,0,0,1,.06-.65,2.45,2.45,0,0,1,.24-.67,2.34,2.34,0,0,1,.47-.6A2.65,2.65,0,0,1,191,39a2.38,2.38,0,0,1-1.13-1,3.06,3.06,0,0,1,.34-3.57,3.12,3.12,0,0,1,2.17-.69h4.75v1.06h-4.37a3.13,3.13,0,0,0-1.74.4,1.62,1.62,0,0,0-.61,1.48,1.82,1.82,0,0,0,.85,1.65,2.6,2.6,0,0,0,.87.35,4.25,4.25,0,0,0,1,.12h4v1h-4.37a3.22,3.22,0,0,0-1.74.4,1.65,1.65,0,0,0-.61,1.49,3.37,3.37,0,0,0,.06.44,1.65,1.65,0,0,0,.36.71,2.55,2.55,0,0,0,.86.67,3.66,3.66,0,0,0,1.6.29h3.84v1.06Z"/></g><line class="cls-2" x1="177.75" y1="53.46" x2="177.75" y2="60.78"/><line class="cls-2" x1="178.69" y1="53.46" x2="176.67" y2="53.46"/><line class="cls-2" x1="178.8" y1="60.78" x2="176.18" y2="60.78"/><rect class="cls-3" x="129.3" y="215.75" width="35.43" height="1.5"/><line class="cls-3" x1="133.35" y1="215.75" x2="133.35" y2="54.26"/><line class="cls-3" x1="129.3" y1="52.76" x2="169.6" y2="52.76"/><line class="cls-3" x1="169.6" y1="52.76" x2="129.3" y2="52.76"/><line class="cls-3" x1="141.88" y1="54.25" x2="129.3" y2="54.25"/><line class="cls-3" x1="129.3" y1="54.25" x2="129.3" y2="52.76"/><line class="cls-3" x1="169.6" y1="52.76" x2="169.6" y2="58.6"/><line class="cls-3" x1="168.13" y1="60.09" x2="146.81" y2="60.09"/><line class="cls-3" x1="145.91" y1="59.48" x2="143.75" y2="55.56"/><path class="cls-3" d="M145.91,59.48a1.07,1.07,0,0,0,1,.61"/><path class="cls-3" d="M143.85,55.75a2.72,2.72,0,0,0-2-1.5"/><path class="cls-3" d="M168.13,60.09h0a1.48,1.48,0,0,0,1.47-1.49"/><line class="cls-3" x1="135.11" y1="215.75" x2="135.11" y2="54.26"/><rect class="cls-3" x="137.45" y="47.02" width="1.02" height="5.74"/></svg>