<svg xmlns="http://www.w3.org/2000/svg" viewBox="0 0 300 263"><defs><style>.cls-1,.cls-2,.cls-3,.cls-4{fill:none;stroke-linecap:round;}.cls-1,.cls-2{stroke:red;}.cls-1,.cls-2,.cls-4{stroke-linejoin:round;}.cls-1,.cls-3,.cls-4{stroke-width:0.6px;}.cls-3,.cls-4{stroke:#000;}.cls-3{stroke-miterlimit:10;}</style></defs><title>tab-floor-barber-osgerby-flos-F65610-curva-fotometrica</title><g id="numeri_esterni_diagramma" data-name="numeri esterni diagramma"><path d="M148.27,239.2a6.85,6.85,0,0,1,.08-1,3.41,3.41,0,0,1,.3-.95,1.94,1.94,0,0,1,.59-.71,1.57,1.57,0,0,1,.95-.27,1.6,1.6,0,0,1,1,.27,2,2,0,0,1,.59.71,3.1,3.1,0,0,1,.29.95,5.7,5.7,0,0,1,.08,1,5.85,5.85,0,0,1-.08,1,3.13,3.13,0,0,1-.29.94,2,2,0,0,1-.59.71,1.6,1.6,0,0,1-1,.27,1.57,1.57,0,0,1-.95-.27,1.94,1.94,0,0,1-.59-.71,3.45,3.45,0,0,1-.3-.94A7.07,7.07,0,0,1,148.27,239.2Zm.68,0c0,.13,0,.29,0,.46a4.88,4.88,0,0,0,.06.52,2.83,2.83,0,0,0,.13.5,1.65,1.65,0,0,0,.22.44,1.24,1.24,0,0,0,.34.31,1,1,0,0,0,.48.12.9.9,0,0,0,.48-.12,1,1,0,0,0,.34-.31,1.41,1.41,0,0,0,.23-.44,4.07,4.07,0,0,0,.13-.5c0-.18,0-.35.06-.52s0-.33,0-.46,0-.3,0-.47,0-.34-.06-.51a3.8,3.8,0,0,0-.13-.51,1.53,1.53,0,0,0-.23-.44,1,1,0,0,0-.34-.31.9.9,0,0,0-.48-.12,1,1,0,0,0-.48.12,1.24,1.24,0,0,0-.34.31,1.81,1.81,0,0,0-.22.44,2.72,2.72,0,0,0-.13.51,4.43,4.43,0,0,0-.06.51C149,238.9,149,239.06,149,239.2Z"/><path d="M152.83,237.41a1.33,1.33,0,0,1,.08-.45,1.11,1.11,0,0,1,.25-.36,1,1,0,0,1,.36-.24,1.17,1.17,0,0,1,.9,0,1,1,0,0,1,.36.24,1.11,1.11,0,0,1,.25.36,1.31,1.31,0,0,1,0,.9,1.23,1.23,0,0,1-.61.61,1.17,1.17,0,0,1-.9,0,1.23,1.23,0,0,1-.61-.61A1.33,1.33,0,0,1,152.83,237.41Zm.43,0a.79.79,0,0,0,.05.25.68.68,0,0,0,.14.23.66.66,0,0,0,.23.17.73.73,0,0,0,.58,0,.76.76,0,0,0,.23-.17.88.88,0,0,0,.14-.23.65.65,0,0,0,0-.5,1.09,1.09,0,0,0-.14-.23,1,1,0,0,0-.23-.17.73.73,0,0,0-.58,0,.81.81,0,0,0-.23.17.75.75,0,0,0-.19.48Z"/><path d="M203.17,238.76h.21l.43,0a1.15,1.15,0,0,0,.42-.13.77.77,0,0,0,.31-.31.94.94,0,0,0,.13-.51.87.87,0,0,0-.27-.68,1,1,0,0,0-.7-.26,1.28,1.28,0,0,0-.63.16,1.14,1.14,0,0,0-.41.48l-.65-.25a1.48,1.48,0,0,1,.65-.72,2.07,2.07,0,0,1,1-.24,2.25,2.25,0,0,1,.64.09,1.72,1.72,0,0,1,.54.28,1.37,1.37,0,0,1,.37.46,1.48,1.48,0,0,1,.14.65,1.29,1.29,0,0,1-.27.8,1.34,1.34,0,0,1-.7.49v0a1.48,1.48,0,0,1,.85.49,1.37,1.37,0,0,1,.23.43,1.69,1.69,0,0,1,.08.5,1.66,1.66,0,0,1-.15.72,1.57,1.57,0,0,1-.41.51,1.71,1.71,0,0,1-.6.31,2.34,2.34,0,0,1-.71.1,2.18,2.18,0,0,1-1.13-.28,1.61,1.61,0,0,1-.7-.91l.68-.22a1.33,1.33,0,0,0,.41.65,1.3,1.3,0,0,0,.74.19,1.33,1.33,0,0,0,.45-.08,1.11,1.11,0,0,0,.36-.23,1.24,1.24,0,0,0,.25-.35,1.13,1.13,0,0,0,.09-.45,1.07,1.07,0,0,0-.12-.53,1,1,0,0,0-.33-.33,1.23,1.23,0,0,0-.46-.18,2.31,2.31,0,0,0-.52-.06h-.21Z"/><path d="M206.24,239.2a6.85,6.85,0,0,1,.08-1,3.11,3.11,0,0,1,.3-.95,1.94,1.94,0,0,1,.59-.71,1.55,1.55,0,0,1,.95-.27,1.6,1.6,0,0,1,1,.27,2,2,0,0,1,.59.71,3.1,3.1,0,0,1,.29.95,5.7,5.7,0,0,1,.08,1,5.85,5.85,0,0,1-.08,1,3.13,3.13,0,0,1-.29.94,2,2,0,0,1-.59.71,1.6,1.6,0,0,1-1,.27,1.55,1.55,0,0,1-.95-.27,1.94,1.94,0,0,1-.59-.71,3.14,3.14,0,0,1-.3-.94A7.07,7.07,0,0,1,206.24,239.2Zm.67,0c0,.13,0,.29,0,.46a4.88,4.88,0,0,0,.06.52,2.83,2.83,0,0,0,.13.5,1.4,1.4,0,0,0,.22.44,1.24,1.24,0,0,0,.34.31,1,1,0,0,0,.48.12.9.9,0,0,0,.48-.12,1,1,0,0,0,.34-.31,1.41,1.41,0,0,0,.23-.44,4.05,4.05,0,0,0,.12-.5,4.88,4.88,0,0,0,.06-.52,3.86,3.86,0,0,0,0-.46,3.94,3.94,0,0,0,0-.47,4.43,4.43,0,0,0-.06-.51,3.81,3.81,0,0,0-.12-.51,1.53,1.53,0,0,0-.23-.44,1,1,0,0,0-.34-.31.9.9,0,0,0-.48-.12,1,1,0,0,0-.48.12,1.24,1.24,0,0,0-.34.31,1.51,1.51,0,0,0-.22.44,2.72,2.72,0,0,0-.13.51,4.43,4.43,0,0,0-.06.51C206.92,238.9,206.91,239.06,206.91,239.2Z"/><path d="M210.84,237.41a1.13,1.13,0,0,1,.09-.45,1.26,1.26,0,0,1,.24-.36,1.2,1.2,0,0,1,.82-.33,1,1,0,0,1,.44.09,1.12,1.12,0,0,1,.37.24,1.26,1.26,0,0,1,.24.36,1.16,1.16,0,0,1-.24,1.26,1.15,1.15,0,0,1-.37.25,1,1,0,0,1-.44.09,1.13,1.13,0,0,1-.45-.09,1.15,1.15,0,0,1-.37-.25,1.15,1.15,0,0,1-.33-.81Zm.43,0a.61.61,0,0,0,.06.25.68.68,0,0,0,.14.23.72.72,0,0,0,.22.17.73.73,0,0,0,.3.06.72.72,0,0,0,.29-.06.62.62,0,0,0,.22-.17.91.91,0,0,0,.15-.23.65.65,0,0,0,0-.5,1.14,1.14,0,0,0-.15-.23.76.76,0,0,0-.22-.17.72.72,0,0,0-.29-.06.73.73,0,0,0-.3.06.92.92,0,0,0-.22.17.79.79,0,0,0-.14.23A.61.61,0,0,0,211.27,237.41Z"/><path d="M93.6,238.76h.21l.44,0a1.1,1.1,0,0,0,.41-.13.86.86,0,0,0,.32-.31.94.94,0,0,0,.12-.51.87.87,0,0,0-.27-.68,1,1,0,0,0-.7-.26,1.21,1.21,0,0,0-.62.16,1.1,1.1,0,0,0-.42.48l-.65-.25a1.45,1.45,0,0,1,.66-.72,2,2,0,0,1,1-.24,2.32,2.32,0,0,1,.65.09,2,2,0,0,1,.54.28,1.67,1.67,0,0,1,.37.46,1.48,1.48,0,0,1,.13.65,1.29,1.29,0,0,1-.27.8,1.34,1.34,0,0,1-.7.49v0a1.31,1.31,0,0,1,.49.18,1.34,1.34,0,0,1,.36.31,1.37,1.37,0,0,1,.23.43,1.42,1.42,0,0,1,.08.5,1.66,1.66,0,0,1-.15.72,1.57,1.57,0,0,1-.41.51,1.75,1.75,0,0,1-.59.31,2.46,2.46,0,0,1-.72.1,2.18,2.18,0,0,1-1.13-.28,1.56,1.56,0,0,1-.69-.91l.68-.22a1.2,1.2,0,0,0,.41.65,1.27,1.27,0,0,0,.73.19,1.33,1.33,0,0,0,.45-.08,1.11,1.11,0,0,0,.36-.23,1.07,1.07,0,0,0,.25-.35,1.13,1.13,0,0,0,.09-.45,1.07,1.07,0,0,0-.12-.53.87.87,0,0,0-.33-.33,1.17,1.17,0,0,0-.46-.18,2.24,2.24,0,0,0-.52-.06H93.6Z"/><path d="M96.68,239.2a5.7,5.7,0,0,1,.08-1,3.1,3.1,0,0,1,.29-.95,2,2,0,0,1,.59-.71,1.6,1.6,0,0,1,1-.27,1.57,1.57,0,0,1,1,.27,1.94,1.94,0,0,1,.59.71,3.41,3.41,0,0,1,.3.95,6.85,6.85,0,0,1,.08,1,7.07,7.07,0,0,1-.08,1,3.45,3.45,0,0,1-.3.94,1.94,1.94,0,0,1-.59.71,1.57,1.57,0,0,1-1,.27,1.6,1.6,0,0,1-1-.27,2,2,0,0,1-.59-.71,3.13,3.13,0,0,1-.29-.94A5.85,5.85,0,0,1,96.68,239.2Zm.67,0c0,.13,0,.29,0,.46a4.88,4.88,0,0,0,.06.52,4.07,4.07,0,0,0,.13.5,1.41,1.41,0,0,0,.23.44,1,1,0,0,0,.34.31.9.9,0,0,0,.48.12,1,1,0,0,0,.48-.12,1.24,1.24,0,0,0,.34-.31,1.65,1.65,0,0,0,.22-.44,2.83,2.83,0,0,0,.13-.5,4.88,4.88,0,0,0,.06-.52c0-.17,0-.33,0-.46s0-.3,0-.47a4.43,4.43,0,0,0-.06-.51,2.72,2.72,0,0,0-.13-.51,1.81,1.81,0,0,0-.22-.44,1.24,1.24,0,0,0-.34-.31,1,1,0,0,0-.48-.12.9.9,0,0,0-.48.12,1,1,0,0,0-.34.31,1.53,1.53,0,0,0-.23.44,3.8,3.8,0,0,0-.13.51,4.43,4.43,0,0,0-.06.51C97.35,238.9,97.35,239.06,97.35,239.2Z"/><path d="M101.28,237.41a1.33,1.33,0,0,1,.08-.45,1.11,1.11,0,0,1,.25-.36,1,1,0,0,1,.36-.24,1.17,1.17,0,0,1,.9,0,1,1,0,0,1,.36.24,1.11,1.11,0,0,1,.25.36,1.31,1.31,0,0,1,0,.9,1.23,1.23,0,0,1-.61.61,1.17,1.17,0,0,1-.9,0,1.23,1.23,0,0,1-.61-.61A1.33,1.33,0,0,1,101.28,237.41Zm.43,0a.79.79,0,0,0,.05.25.68.68,0,0,0,.14.23.76.76,0,0,0,.23.17.73.73,0,0,0,.58,0,.66.66,0,0,0,.23-.17.68.68,0,0,0,.14-.23.71.71,0,0,0-.14-.73.81.81,0,0,0-.23-.17.73.73,0,0,0-.58,0,1,1,0,0,0-.23.17.75.75,0,0,0-.19.48Z"/><path d="M249.93,137.18h0a1.24,1.24,0,0,1-.37.12,1.84,1.84,0,0,1-.39,0,1.91,1.91,0,0,1-.68-.12,1.58,1.58,0,0,1-.54-.37,1.63,1.63,0,0,1-.36-.56,2.05,2.05,0,0,1-.13-.72,1.79,1.79,0,0,1,.15-.75,1.48,1.48,0,0,1,.4-.55,1.79,1.79,0,0,1,.6-.35,2,2,0,0,1,.75-.13,2.11,2.11,0,0,1,.75.13,1.79,1.79,0,0,1,.6.35,1.59,1.59,0,0,1,.4.55,1.79,1.79,0,0,1,.14.75,2.15,2.15,0,0,1,0,.45,1.68,1.68,0,0,1-.11.4,2.59,2.59,0,0,1-.17.38l-.21.36-1.51,2.39h-.78Zm-.59-.42a1.28,1.28,0,0,0,.48-.09,1,1,0,0,0,.39-.24,1.23,1.23,0,0,0,.26-.37,1.43,1.43,0,0,0,0-1,1.1,1.1,0,0,0-.65-.62,1.48,1.48,0,0,0-1,0,1.28,1.28,0,0,0-.39.24,1.12,1.12,0,0,0-.26.38,1.3,1.3,0,0,0,0,1,1.08,1.08,0,0,0,.26.37,1,1,0,0,0,.39.24A1.28,1.28,0,0,0,249.34,136.76Z"/><path d="M251.82,136.71a7.07,7.07,0,0,1,.08-1,3.19,3.19,0,0,1,.29-1,2,2,0,0,1,.59-.7,1.54,1.54,0,0,1,1-.28,1.49,1.49,0,0,1,.95.28,1.91,1.91,0,0,1,.59.7,2.94,2.94,0,0,1,.3,1,6.29,6.29,0,0,1,0,2,2.94,2.94,0,0,1-.3.95,1.91,1.91,0,0,1-.59.7,1.49,1.49,0,0,1-.95.28,1.54,1.54,0,0,1-1-.28,2,2,0,0,1-.59-.7,3.19,3.19,0,0,1-.29-.95A7.07,7.07,0,0,1,251.82,136.71Zm.67,0c0,.14,0,.29,0,.46a4.6,4.6,0,0,0,.06.52,4.7,4.7,0,0,0,.12.51,2,2,0,0,0,.23.44,1,1,0,0,0,.34.31,1,1,0,0,0,.48.11,1.06,1.06,0,0,0,.48-.11,1.24,1.24,0,0,0,.34-.31,1.65,1.65,0,0,0,.22-.44,3.18,3.18,0,0,0,.13-.51,4.6,4.6,0,0,0,.06-.52c0-.17,0-.32,0-.46s0-.29,0-.46a4.6,4.6,0,0,0-.06-.52,3.18,3.18,0,0,0-.13-.51,1.65,1.65,0,0,0-.22-.44,1.24,1.24,0,0,0-.34-.31,1.06,1.06,0,0,0-.48-.11,1,1,0,0,0-.48.11,1,1,0,0,0-.34.31,2,2,0,0,0-.23.44,4.7,4.7,0,0,0-.12.51,4.6,4.6,0,0,0-.06.52C252.5,136.42,252.49,136.57,252.49,136.71Z"/><path d="M256.42,134.93a1.13,1.13,0,0,1,.09-.45,1.31,1.31,0,0,1,.24-.37,1.18,1.18,0,0,1,.37-.24,1,1,0,0,1,.44-.09,1.13,1.13,0,0,1,.45.09,1.06,1.06,0,0,1,.61.61,1.13,1.13,0,0,1,.09.45,1,1,0,0,1-.09.44,1.06,1.06,0,0,1-.61.61,1.13,1.13,0,0,1-.45.09,1,1,0,0,1-.44-.09,1.18,1.18,0,0,1-.37-.24,1.31,1.31,0,0,1-.24-.37A1,1,0,0,1,256.42,134.93Zm.43,0a.69.69,0,0,0,0,.24,1,1,0,0,0,.15.24.73.73,0,0,0,.51.23.54.54,0,0,0,.29-.07.63.63,0,0,0,.23-.16.72.72,0,0,0,.14-.24.52.52,0,0,0,0-.24.56.56,0,0,0,0-.25.59.59,0,0,0-.14-.23.74.74,0,0,0-.52-.24.73.73,0,0,0-.29.07.62.62,0,0,0-.22.17.76.76,0,0,0-.15.23A.74.74,0,0,0,256.85,134.93Z"/><path d="M41.57,137.18h0a1.34,1.34,0,0,1-.37.12,2,2,0,0,1-.39,0,1.92,1.92,0,0,1-.69-.12,1.58,1.58,0,0,1-.54-.37,1.8,1.8,0,0,1-.36-.56,2.05,2.05,0,0,1-.13-.72,1.79,1.79,0,0,1,.15-.75,1.48,1.48,0,0,1,.4-.55,1.79,1.79,0,0,1,.6-.35,2.23,2.23,0,0,1,1.5,0,1.79,1.79,0,0,1,.6.35,1.48,1.48,0,0,1,.4.55,1.79,1.79,0,0,1,.15.75,3.14,3.14,0,0,1,0,.45,2.34,2.34,0,0,1-.12.4,1.84,1.84,0,0,1-.17.38,3.35,3.35,0,0,1-.21.36l-1.5,2.39h-.79Zm-.59-.42a1.28,1.28,0,0,0,.48-.09,1,1,0,0,0,.39-.24,1.23,1.23,0,0,0,.26-.37,1.3,1.3,0,0,0,0-1,1.1,1.1,0,0,0-.65-.62,1.48,1.48,0,0,0-1,0,1.1,1.1,0,0,0-.65.62,1.43,1.43,0,0,0,0,1,1.23,1.23,0,0,0,.26.37,1,1,0,0,0,.39.24A1.28,1.28,0,0,0,41,136.76Z"/><path d="M43.46,136.71a7.07,7.07,0,0,1,.08-1,2.94,2.94,0,0,1,.3-1,1.91,1.91,0,0,1,.59-.7,1.49,1.49,0,0,1,1-.28,1.54,1.54,0,0,1,1,.28,2,2,0,0,1,.59.7,3.19,3.19,0,0,1,.29,1,6.29,6.29,0,0,1,0,2,3.19,3.19,0,0,1-.29.95,2,2,0,0,1-.59.7,1.54,1.54,0,0,1-1,.28,1.49,1.49,0,0,1-1-.28,1.91,1.91,0,0,1-.59-.7,2.94,2.94,0,0,1-.3-.95A7.07,7.07,0,0,1,43.46,136.71Zm.67,0c0,.14,0,.29,0,.46a4.6,4.6,0,0,0,.06.52,3.18,3.18,0,0,0,.13.51,1.65,1.65,0,0,0,.22.44,1.12,1.12,0,0,0,.34.31,1.1,1.1,0,0,0,1,0,1.12,1.12,0,0,0,.34-.31,2,2,0,0,0,.23-.44,4.7,4.7,0,0,0,.12-.51,4.6,4.6,0,0,0,.06-.52c0-.17,0-.32,0-.46s0-.29,0-.46a4.6,4.6,0,0,0-.06-.52,4.7,4.7,0,0,0-.12-.51,2,2,0,0,0-.23-.44,1.12,1.12,0,0,0-.34-.31,1.1,1.1,0,0,0-1,0,1.12,1.12,0,0,0-.34.31,1.65,1.65,0,0,0-.22.44,3.18,3.18,0,0,0-.13.51,4.6,4.6,0,0,0-.06.52C44.14,136.42,44.13,136.57,44.13,136.71Z"/><path d="M48.06,134.93a1.13,1.13,0,0,1,.09-.45,1.06,1.06,0,0,1,.61-.61,1.13,1.13,0,0,1,.45-.09,1.08,1.08,0,0,1,.44.09,1.06,1.06,0,0,1,.61.61,1.13,1.13,0,0,1,.09.45,1,1,0,0,1-.09.44,1.06,1.06,0,0,1-.61.61,1.08,1.08,0,0,1-.44.09,1.13,1.13,0,0,1-.45-.09,1.06,1.06,0,0,1-.61-.61A1,1,0,0,1,48.06,134.93Zm.43,0a.53.53,0,0,0,.06.24.72.72,0,0,0,.14.24.69.69,0,0,0,.22.16.6.6,0,0,0,.3.07.73.73,0,0,0,.51-.23,1,1,0,0,0,.15-.24.69.69,0,0,0,.05-.24.74.74,0,0,0-.05-.25.76.76,0,0,0-.15-.23.62.62,0,0,0-.22-.17.73.73,0,0,0-.29-.07.73.73,0,0,0-.3.07.72.72,0,0,0-.22.17.59.59,0,0,0-.14.23A.57.57,0,0,0,48.49,134.93Z"/><path d="M148.37,38.51h-.68v-4.8h0l-1,.85-.4-.48,1.52-1.24h.59Z"/><path d="M150.49,34.23a1.48,1.48,0,0,1,.13-.61,1.2,1.2,0,0,1,.34-.46,1.44,1.44,0,0,1,.51-.3,1.92,1.92,0,0,1,1.28,0,1.44,1.44,0,0,1,.51.3,1.2,1.2,0,0,1,.34.46,1.33,1.33,0,0,1,.13.61,1.16,1.16,0,0,1-.07.4,1.41,1.41,0,0,1-.18.37,1.33,1.33,0,0,1-.29.29,1.18,1.18,0,0,1-.39.19h0a1.44,1.44,0,0,1,.46.19,1.35,1.35,0,0,1,.35.32,1.42,1.42,0,0,1,.23.44,1.7,1.7,0,0,1,.08.51,1.74,1.74,0,0,1-.14.69,1.43,1.43,0,0,1-.39.52,1.47,1.47,0,0,1-.57.33,2.35,2.35,0,0,1-1.42,0,1.47,1.47,0,0,1-.57-.33,1.55,1.55,0,0,1-.39-.52,1.74,1.74,0,0,1-.14-.69,1.7,1.7,0,0,1,.08-.51,1.67,1.67,0,0,1,.23-.44,1.35,1.35,0,0,1,.35-.32,1.44,1.44,0,0,1,.46-.19h0a1.18,1.18,0,0,1-.39-.19,1.33,1.33,0,0,1-.29-.29,1.41,1.41,0,0,1-.18-.37A1.46,1.46,0,0,1,150.49,34.23ZM151,36.9a1.18,1.18,0,0,0,.09.46,1.07,1.07,0,0,0,.25.35,1,1,0,0,0,.36.23,1.12,1.12,0,0,0,.88,0,1,1,0,0,0,.36-.23,1.07,1.07,0,0,0,.25-.35,1.18,1.18,0,0,0,.09-.46,1.14,1.14,0,0,0-.09-.46,1.13,1.13,0,0,0-.61-.58,1.12,1.12,0,0,0-.88,0,1.13,1.13,0,0,0-.61.58A1.14,1.14,0,0,0,151,36.9Zm.2-2.64a.88.88,0,0,0,.26.67,1,1,0,0,0,1.36,0,1,1,0,0,0,0-1.34,1,1,0,0,0-1.36,0A.88.88,0,0,0,151.17,34.26Z"/><path d="M154.64,35.68a7,7,0,0,1,.08-1,3.1,3.1,0,0,1,.29-1,2,2,0,0,1,.59-.71,1.6,1.6,0,0,1,1-.27,1.55,1.55,0,0,1,.95.27,1.94,1.94,0,0,1,.59.71,2.86,2.86,0,0,1,.3,1,7,7,0,0,1,.08,1,7.07,7.07,0,0,1-.08,1,2.88,2.88,0,0,1-.3.94,1.94,1.94,0,0,1-.59.71,1.55,1.55,0,0,1-.95.27,1.6,1.6,0,0,1-1-.27,2,2,0,0,1-.59-.71,3.13,3.13,0,0,1-.29-.94A7.07,7.07,0,0,1,154.64,35.68Zm.67,0c0,.13,0,.29,0,.46a4.88,4.88,0,0,0,.06.52,4.05,4.05,0,0,0,.12.5,1.66,1.66,0,0,0,.23.44,1.12,1.12,0,0,0,.34.31,1,1,0,0,0,1,0,1.12,1.12,0,0,0,.34-.31,1.4,1.4,0,0,0,.22-.44,2.83,2.83,0,0,0,.13-.5,4.88,4.88,0,0,0,.06-.52c0-.17,0-.33,0-.46s0-.3,0-.47a4.43,4.43,0,0,0-.06-.51,2.72,2.72,0,0,0-.13-.51,1.51,1.51,0,0,0-.22-.44,1.12,1.12,0,0,0-.34-.31,1,1,0,0,0-1,0,1.12,1.12,0,0,0-.34.31,1.83,1.83,0,0,0-.23.44,3.81,3.81,0,0,0-.12.51,4.43,4.43,0,0,0-.06.51C155.32,35.38,155.31,35.54,155.31,35.68Z"/><path d="M159.24,33.89a1.15,1.15,0,0,1,.33-.81,1,1,0,0,1,.37-.24,1,1,0,0,1,.44-.09,1.15,1.15,0,0,1,.82,2,1.15,1.15,0,0,1-.37.25,1.13,1.13,0,0,1-.45.09,1.15,1.15,0,0,1-.81-.34,1.15,1.15,0,0,1-.33-.81Zm.43,0a.79.79,0,0,0,.05.25,1.14,1.14,0,0,0,.15.23.62.62,0,0,0,.22.17.72.72,0,0,0,.29.06.68.68,0,0,0,.52-.23.79.79,0,0,0,.14-.23.65.65,0,0,0,0-.5.79.79,0,0,0-.14-.23.81.81,0,0,0-.23-.17.65.65,0,0,0-.29-.06.72.72,0,0,0-.29.06.76.76,0,0,0-.22.17,1.14,1.14,0,0,0-.15.23A.79.79,0,0,0,159.67,33.89Z"/><path d="M203.18,38.51h-.68v-4.8h0l-1,.85-.4-.48,1.52-1.24h.59Z"/><path d="M208.49,33.47h-2.31l0,1.53a1.08,1.08,0,0,1,.36-.11l.37,0a2,2,0,0,1,.74.14,1.61,1.61,0,0,1,.57.39,1.9,1.9,0,0,1,.37.59,2,2,0,0,1,.13.74,2,2,0,0,1-.15.78,1.74,1.74,0,0,1-.41.59,1.91,1.91,0,0,1-.61.38,2.2,2.2,0,0,1-.78.13,1.73,1.73,0,0,1-1-.28,2,2,0,0,1-.63-.75l.67-.25a1.31,1.31,0,0,0,.42.51,1.1,1.1,0,0,0,.64.2,1.28,1.28,0,0,0,.48-.09,1.26,1.26,0,0,0,.38-.27,1.15,1.15,0,0,0,.26-.41,1.53,1.53,0,0,0,.1-.54,1.38,1.38,0,0,0-.11-.55,1.08,1.08,0,0,0-.3-.4,1.26,1.26,0,0,0-.44-.25,1.67,1.67,0,0,0-.55-.08,1.84,1.84,0,0,0-.6.1,2.58,2.58,0,0,0-.56.25l.06-2.95h3Z"/><path d="M209.45,35.68a7,7,0,0,1,.08-1,3.1,3.1,0,0,1,.29-1,2,2,0,0,1,.59-.71,1.6,1.6,0,0,1,1-.27,1.55,1.55,0,0,1,.95.27,1.94,1.94,0,0,1,.59.71,2.86,2.86,0,0,1,.3,1,7,7,0,0,1,.08,1,7.07,7.07,0,0,1-.08,1,2.88,2.88,0,0,1-.3.94,1.94,1.94,0,0,1-.59.71,1.55,1.55,0,0,1-.95.27,1.6,1.6,0,0,1-1-.27,2,2,0,0,1-.59-.71,3.13,3.13,0,0,1-.29-.94A7.07,7.07,0,0,1,209.45,35.68Zm.67,0c0,.13,0,.29,0,.46a4.88,4.88,0,0,0,.06.52,4.05,4.05,0,0,0,.12.5,1.66,1.66,0,0,0,.23.44,1,1,0,0,0,.34.31.9.9,0,0,0,.48.12,1,1,0,0,0,.48-.12,1.24,1.24,0,0,0,.34-.31,1.4,1.4,0,0,0,.22-.44,2.83,2.83,0,0,0,.13-.5,4.88,4.88,0,0,0,.06-.52c0-.17,0-.33,0-.46s0-.3,0-.47a4.43,4.43,0,0,0-.06-.51,2.72,2.72,0,0,0-.13-.51,1.51,1.51,0,0,0-.22-.44,1.24,1.24,0,0,0-.34-.31,1,1,0,0,0-.48-.12.9.9,0,0,0-.48.12,1,1,0,0,0-.34.31,1.83,1.83,0,0,0-.23.44,3.81,3.81,0,0,0-.12.51,4.43,4.43,0,0,0-.06.51C210.13,35.38,210.12,35.54,210.12,35.68Z"/><path d="M214.05,33.89a1.15,1.15,0,0,1,.33-.81,1,1,0,0,1,.37-.24,1,1,0,0,1,.44-.09,1.13,1.13,0,0,1,.45.09,1,1,0,0,1,.36.24,1,1,0,0,1,.25.36,1.17,1.17,0,0,1,0,.9,1.23,1.23,0,0,1-.61.61,1.13,1.13,0,0,1-.45.09,1.15,1.15,0,0,1-.81-.34,1.15,1.15,0,0,1-.33-.81Zm.43,0a.79.79,0,0,0,.05.25,1.14,1.14,0,0,0,.15.23.62.62,0,0,0,.22.17.72.72,0,0,0,.29.06.68.68,0,0,0,.52-.23.79.79,0,0,0,.14-.23.65.65,0,0,0,0-.5.79.79,0,0,0-.14-.23.81.81,0,0,0-.23-.17.65.65,0,0,0-.29-.06.72.72,0,0,0-.29.06.76.76,0,0,0-.22.17,1.14,1.14,0,0,0-.15.23A.79.79,0,0,0,214.48,33.89Z"/><path d="M93.61,38.51h-.67v-4.8h0l-1,.85-.4-.48L93,32.84h.58Z"/><path d="M98.92,33.47H96.61l0,1.53a1,1,0,0,1,.35-.11l.37,0a1.91,1.91,0,0,1,.74.14,1.65,1.65,0,0,1,.58.39A1.71,1.71,0,0,1,99,36a2,2,0,0,1,.13.74,2,2,0,0,1-.15.78,1.71,1.71,0,0,1-.4.59,2,2,0,0,1-.62.38,2.15,2.15,0,0,1-.77.13,1.78,1.78,0,0,1-1.05-.28,1.85,1.85,0,0,1-.62-.75l.67-.25a1.16,1.16,0,0,0,.42.51,1.05,1.05,0,0,0,.63.2,1.28,1.28,0,0,0,.48-.09,1.23,1.23,0,0,0,.64-.68,1.33,1.33,0,0,0,.1-.54,1.38,1.38,0,0,0-.11-.55,1.18,1.18,0,0,0-.29-.4,1.41,1.41,0,0,0-.45-.25,1.63,1.63,0,0,0-.55-.08,1.78,1.78,0,0,0-.59.1,2.58,2.58,0,0,0-.56.25l0-2.95h3Z"/><path d="M99.88,35.68a7,7,0,0,1,.08-1,3.11,3.11,0,0,1,.3-1,1.94,1.94,0,0,1,.59-.71,1.55,1.55,0,0,1,1-.27,1.6,1.6,0,0,1,1,.27,2,2,0,0,1,.59.71,3.1,3.1,0,0,1,.29,1,5.77,5.77,0,0,1,.08,1,5.85,5.85,0,0,1-.08,1,3.13,3.13,0,0,1-.29.94,2,2,0,0,1-.59.71,1.6,1.6,0,0,1-1,.27,1.55,1.55,0,0,1-1-.27,1.94,1.94,0,0,1-.59-.71,3.14,3.14,0,0,1-.3-.94A7.07,7.07,0,0,1,99.88,35.68Zm.67,0c0,.13,0,.29,0,.46a4.88,4.88,0,0,0,.06.52,2.83,2.83,0,0,0,.13.5,1.4,1.4,0,0,0,.22.44,1.24,1.24,0,0,0,.34.31,1,1,0,0,0,.48.12.9.9,0,0,0,.48-.12,1,1,0,0,0,.34-.31,1.41,1.41,0,0,0,.23-.44,4.05,4.05,0,0,0,.12-.5,4.88,4.88,0,0,0,.06-.52c0-.17,0-.33,0-.46s0-.3,0-.47a4.43,4.43,0,0,0-.06-.51,3.81,3.81,0,0,0-.12-.51,1.53,1.53,0,0,0-.23-.44,1,1,0,0,0-.34-.31.9.9,0,0,0-.48-.12,1,1,0,0,0-.48.12,1.24,1.24,0,0,0-.34.31,1.51,1.51,0,0,0-.22.44,2.72,2.72,0,0,0-.13.51,4.43,4.43,0,0,0-.06.51C100.56,35.38,100.55,35.54,100.55,35.68Z"/><path d="M104.48,33.89a1.15,1.15,0,0,1,1.15-1.14,1,1,0,0,1,.44.09,1.12,1.12,0,0,1,.37.24,1.16,1.16,0,0,1,0,1.62,1.15,1.15,0,0,1-.37.25,1,1,0,0,1-.44.09,1.13,1.13,0,0,1-.45-.09,1.15,1.15,0,0,1-.37-.25,1.15,1.15,0,0,1-.33-.81Zm.43,0a.61.61,0,0,0,.06.25.79.79,0,0,0,.14.23.72.72,0,0,0,.22.17.73.73,0,0,0,.3.06.72.72,0,0,0,.29-.06.62.62,0,0,0,.22-.17,1.14,1.14,0,0,0,.15-.23.65.65,0,0,0,0-.5,1.14,1.14,0,0,0-.15-.23.76.76,0,0,0-.22-.17.72.72,0,0,0-.29-.06.73.73,0,0,0-.3.06.92.92,0,0,0-.22.17.79.79,0,0,0-.14.23A.61.61,0,0,0,104.91,33.89Z"/><path d="M248.75,192.45v0a1.35,1.35,0,0,1,.37-.13,2,2,0,0,1,.39,0,1.73,1.73,0,0,1,.69.13,1.42,1.42,0,0,1,.54.36,1.85,1.85,0,0,1,.36.57,2,2,0,0,1,.12.72,1.78,1.78,0,0,1-.14.74,1.74,1.74,0,0,1-.4.56,2,2,0,0,1-.6.35,2.36,2.36,0,0,1-.75.12,2.27,2.27,0,0,1-.75-.12,2,2,0,0,1-.6-.35,1.6,1.6,0,0,1-.4-.56,1.78,1.78,0,0,1-.15-.74,2.24,2.24,0,0,1,.15-.86,5.28,5.28,0,0,1,.39-.74l1.5-2.39h.79Zm.59.43a1.23,1.23,0,0,0-.87.32,1,1,0,0,0-.26.38,1.31,1.31,0,0,0-.1.5,1.35,1.35,0,0,0,.1.5,1.08,1.08,0,0,0,.26.37,1,1,0,0,0,.39.24,1.32,1.32,0,0,0,1,0,1,1,0,0,0,.39-.24,1.23,1.23,0,0,0,.26-.37,1.35,1.35,0,0,0,.09-.5,1.31,1.31,0,0,0-.09-.5,1.16,1.16,0,0,0-.26-.38,1.23,1.23,0,0,0-.87-.32Z"/><path d="M251.82,192.92a7.07,7.07,0,0,1,.08-1,3.13,3.13,0,0,1,.29-.94,2,2,0,0,1,.59-.71,1.6,1.6,0,0,1,1-.27,1.55,1.55,0,0,1,.95.27,1.94,1.94,0,0,1,.59.71,2.88,2.88,0,0,1,.3.94,7.07,7.07,0,0,1,.08,1,7,7,0,0,1-.08,1,2.86,2.86,0,0,1-.3,1,1.94,1.94,0,0,1-.59.71,1.55,1.55,0,0,1-.95.27,1.6,1.6,0,0,1-1-.27,2,2,0,0,1-.59-.71,3.1,3.1,0,0,1-.29-1A7,7,0,0,1,251.82,192.92Zm.67,0c0,.14,0,.3,0,.47a4.43,4.43,0,0,0,.06.51,3.81,3.81,0,0,0,.12.51,1.83,1.83,0,0,0,.23.44,1,1,0,0,0,.34.31.9.9,0,0,0,.48.12,1,1,0,0,0,.48-.12,1.24,1.24,0,0,0,.34-.31,1.51,1.51,0,0,0,.22-.44,2.72,2.72,0,0,0,.13-.51,4.43,4.43,0,0,0,.06-.51c0-.17,0-.33,0-.47s0-.29,0-.46a4.88,4.88,0,0,0-.06-.52,2.83,2.83,0,0,0-.13-.5,1.4,1.4,0,0,0-.22-.44,1.1,1.1,0,0,0-.34-.31,1,1,0,0,0-.48-.12.9.9,0,0,0-.48.12.92.92,0,0,0-.34.31,1.66,1.66,0,0,0-.23.44,4.05,4.05,0,0,0-.12.5,4.88,4.88,0,0,0-.06.52C252.5,192.63,252.49,192.79,252.49,192.92Z"/><path d="M256.42,191.14a1.15,1.15,0,0,1,.33-.81,1.05,1.05,0,0,1,.37-.25,1.23,1.23,0,0,1,.44-.08,1.33,1.33,0,0,1,.45.08,1.15,1.15,0,0,1,.37.25,1.16,1.16,0,0,1,0,1.62,1.15,1.15,0,0,1-.37.25,1.33,1.33,0,0,1-.45.08,1.23,1.23,0,0,1-.44-.08,1.05,1.05,0,0,1-.37-.25,1.15,1.15,0,0,1-.33-.81Zm.43,0a.79.79,0,0,0,0,.25,1.14,1.14,0,0,0,.15.23.62.62,0,0,0,.22.17.72.72,0,0,0,.29.06.68.68,0,0,0,.52-.23.79.79,0,0,0,.14-.23.65.65,0,0,0,0-.5.79.79,0,0,0-.14-.23.68.68,0,0,0-.52-.23.72.72,0,0,0-.29.06.62.62,0,0,0-.22.17,1.14,1.14,0,0,0-.15.23A.79.79,0,0,0,256.85,191.14Z"/><path d="M250,81.22h-.67v-4.8h0l-1,.86-.4-.49,1.52-1.23H250Z"/><path d="M251.92,80.45l2.13-2.08c.13-.12.25-.24.35-.35a2.16,2.16,0,0,0,.25-.32,1.09,1.09,0,0,0,.15-.33,1.38,1.38,0,0,0,0-.37,1,1,0,0,0-.08-.4.84.84,0,0,0-.22-.3.78.78,0,0,0-.33-.19,1.05,1.05,0,0,0-.4-.07,1,1,0,0,0-.71.25,1.08,1.08,0,0,0-.36.65l-.73-.06a1.83,1.83,0,0,1,.21-.61,1.41,1.41,0,0,1,.39-.45,2,2,0,0,1,.53-.27,2.25,2.25,0,0,1,.64-.09,2.41,2.41,0,0,1,.67.1,1.92,1.92,0,0,1,.55.29,1.44,1.44,0,0,1,.51,1.15,2,2,0,0,1-.09.61,2,2,0,0,1-.25.5,3.47,3.47,0,0,1-.35.43l-.41.4-1.75,1.64v0h2.89v.62h-3.64Z"/><path d="M256.27,78.39a5.85,5.85,0,0,1,.08-1,3.19,3.19,0,0,1,.29-1,2,2,0,0,1,.59-.7,1.54,1.54,0,0,1,1-.28,1.51,1.51,0,0,1,.95.28,1.91,1.91,0,0,1,.59.7,3.2,3.2,0,0,1,.3,1,6.29,6.29,0,0,1,0,2,3.2,3.2,0,0,1-.3,1,1.91,1.91,0,0,1-.59.7,1.51,1.51,0,0,1-.95.28,1.54,1.54,0,0,1-1-.28,2,2,0,0,1-.59-.7,3.19,3.19,0,0,1-.29-1A5.85,5.85,0,0,1,256.27,78.39Zm.67,0a3.78,3.78,0,0,0,0,.46c0,.17,0,.35.05.52a4.77,4.77,0,0,0,.13.51,1.67,1.67,0,0,0,.23.44,1,1,0,0,0,.34.31,1,1,0,0,0,.48.11,1.06,1.06,0,0,0,.48-.11,1.24,1.24,0,0,0,.34-.31,2,2,0,0,0,.22-.44,3.18,3.18,0,0,0,.13-.51,4.6,4.6,0,0,0,.06-.52c0-.17,0-.32,0-.46s0-.29,0-.46a4.35,4.35,0,0,0-.06-.52,3.18,3.18,0,0,0-.13-.51,2,2,0,0,0-.22-.44,1.24,1.24,0,0,0-.34-.31,1.06,1.06,0,0,0-.48-.11,1,1,0,0,0-.48.11,1,1,0,0,0-.34.31,1.67,1.67,0,0,0-.23.44,4.77,4.77,0,0,0-.13.51c0,.17,0,.34-.05.52A3.78,3.78,0,0,0,256.94,78.39Z"/><path d="M260.87,76.61a1.13,1.13,0,0,1,.09-.45,1,1,0,0,1,.24-.37,1.16,1.16,0,0,1,1.62,0,1.15,1.15,0,0,1,.25.37,1.13,1.13,0,0,1,.09.45,1,1,0,0,1-.09.44,1.15,1.15,0,0,1-.25.37,1.16,1.16,0,0,1-1.62,0,1,1,0,0,1-.24-.37A1,1,0,0,1,260.87,76.61Zm.43,0a.69.69,0,0,0,.05.24.75.75,0,0,0,.15.24.6.6,0,0,0,.22.16.64.64,0,0,0,.58,0,.63.63,0,0,0,.23-.16.72.72,0,0,0,.14-.24.52.52,0,0,0,.05-.24.56.56,0,0,0-.05-.25.59.59,0,0,0-.14-.23.66.66,0,0,0-.23-.17.64.64,0,0,0-.58,0,.62.62,0,0,0-.22.17.61.61,0,0,0-.15.23A.74.74,0,0,0,261.3,76.61Z"/><path d="M40.39,192.45v0a1.42,1.42,0,0,1,.38-.13,1.84,1.84,0,0,1,.39,0,1.72,1.72,0,0,1,.68.13,1.42,1.42,0,0,1,.54.36,1.85,1.85,0,0,1,.36.57,2,2,0,0,1,.13.72,1.78,1.78,0,0,1-.15.74,1.6,1.6,0,0,1-.4.56,2,2,0,0,1-.6.35,2.4,2.4,0,0,1-1.5,0,2,2,0,0,1-.6-.35,1.6,1.6,0,0,1-.4-.56,1.78,1.78,0,0,1-.15-.74,2.24,2.24,0,0,1,.16-.86,5.19,5.19,0,0,1,.38-.74l1.5-2.39h.79Zm.59.43a1.23,1.23,0,0,0-.87.32,1.16,1.16,0,0,0-.26.38,1.31,1.31,0,0,0-.09.5,1.35,1.35,0,0,0,.09.5,1.23,1.23,0,0,0,.26.37,1,1,0,0,0,.39.24,1.32,1.32,0,0,0,1,0,1,1,0,0,0,.39-.24,1.23,1.23,0,0,0,.26-.37,1.35,1.35,0,0,0,.1-.5,1.31,1.31,0,0,0-.1-.5,1.16,1.16,0,0,0-.26-.38,1.23,1.23,0,0,0-.87-.32Z"/><path d="M43.46,192.92a7.07,7.07,0,0,1,.08-1,2.88,2.88,0,0,1,.3-.94,1.94,1.94,0,0,1,.59-.71,1.55,1.55,0,0,1,1-.27,1.6,1.6,0,0,1,1,.27,2,2,0,0,1,.59.71,3.13,3.13,0,0,1,.29.94,7.07,7.07,0,0,1,.08,1,7,7,0,0,1-.08,1,3.1,3.1,0,0,1-.29,1,2,2,0,0,1-.59.71,1.6,1.6,0,0,1-1,.27,1.55,1.55,0,0,1-1-.27,1.94,1.94,0,0,1-.59-.71,2.86,2.86,0,0,1-.3-1A7,7,0,0,1,43.46,192.92Zm.67,0c0,.14,0,.3,0,.47a4.43,4.43,0,0,0,.06.51,2.72,2.72,0,0,0,.13.51,1.51,1.51,0,0,0,.22.44,1.12,1.12,0,0,0,.34.31,1,1,0,0,0,1,0,1.12,1.12,0,0,0,.34-.31,1.83,1.83,0,0,0,.23-.44,3.81,3.81,0,0,0,.12-.51,4.43,4.43,0,0,0,.06-.51c0-.17,0-.33,0-.47s0-.29,0-.46a4.88,4.88,0,0,0-.06-.52,4.05,4.05,0,0,0-.12-.5,1.66,1.66,0,0,0-.23-.44,1,1,0,0,0-.34-.31,1,1,0,0,0-1,0,1,1,0,0,0-.34.31,1.4,1.4,0,0,0-.22.44,2.83,2.83,0,0,0-.13.5,4.88,4.88,0,0,0-.06.52C44.14,192.63,44.13,192.79,44.13,192.92Z"/><path d="M48.06,191.14a1.15,1.15,0,0,1,.33-.81,1.15,1.15,0,0,1,.37-.25,1.33,1.33,0,0,1,.45-.08,1.27,1.27,0,0,1,.44.08,1.15,1.15,0,0,1,.37.25A1.16,1.16,0,0,1,50,192a1.15,1.15,0,0,1-.37.25,1.27,1.27,0,0,1-.44.08,1.33,1.33,0,0,1-.45-.08,1.15,1.15,0,0,1-.37-.25,1.15,1.15,0,0,1-.33-.81Zm.43,0a.61.61,0,0,0,.06.25.79.79,0,0,0,.14.23.72.72,0,0,0,.22.17.73.73,0,0,0,.3.06.72.72,0,0,0,.29-.06.62.62,0,0,0,.22-.17,1.14,1.14,0,0,0,.15-.23.65.65,0,0,0,0-.5,1.14,1.14,0,0,0-.15-.23.62.62,0,0,0-.22-.17.72.72,0,0,0-.29-.06.73.73,0,0,0-.3.06.72.72,0,0,0-.22.17.79.79,0,0,0-.14.23A.61.61,0,0,0,48.49,191.14Z"/><path d="M39.15,81.22h-.67v-4.8h0l-1,.86-.4-.49,1.52-1.23h.58Z"/><path d="M41.07,80.45l2.14-2.08c.13-.12.25-.24.35-.35a2.16,2.16,0,0,0,.25-.32,1.09,1.09,0,0,0,.15-.33A1.38,1.38,0,0,0,44,77a1,1,0,0,0-.08-.4.84.84,0,0,0-.22-.3.78.78,0,0,0-.33-.19A1.05,1.05,0,0,0,43,76a1,1,0,0,0-.72.25,1.19,1.19,0,0,0-.36.65l-.72-.06a1.47,1.47,0,0,1,.21-.61,1.41,1.41,0,0,1,.39-.45,2,2,0,0,1,.53-.27,2.2,2.2,0,0,1,.64-.09,2.41,2.41,0,0,1,.67.1,2.06,2.06,0,0,1,.55.29,1.47,1.47,0,0,1,.37.48,1.6,1.6,0,0,1,.14.67,2,2,0,0,1-.09.61,2.34,2.34,0,0,1-.25.5,3.47,3.47,0,0,1-.35.43l-.41.4-1.75,1.64v0h2.89v.62H41.07Z"/><path d="M45.43,78.39a7,7,0,0,1,.07-1,3.52,3.52,0,0,1,.3-1,2,2,0,0,1,.59-.7,1.77,1.77,0,0,1,1.91,0,1.91,1.91,0,0,1,.59.7,3.52,3.52,0,0,1,.3,1,6.29,6.29,0,0,1,0,2,3.52,3.52,0,0,1-.3,1,1.91,1.91,0,0,1-.59.7,1.77,1.77,0,0,1-1.91,0,2,2,0,0,1-.59-.7,3.52,3.52,0,0,1-.3-1A7,7,0,0,1,45.43,78.39Zm.67,0c0,.14,0,.29,0,.46a4.6,4.6,0,0,0,.06.52,4.77,4.77,0,0,0,.13.51,2,2,0,0,0,.22.44,1.15,1.15,0,0,0,.35.31,1,1,0,0,0,.48.11,1.06,1.06,0,0,0,.48-.11,1.24,1.24,0,0,0,.34-.31,2,2,0,0,0,.22-.44,3.18,3.18,0,0,0,.13-.51,4.6,4.6,0,0,0,.06-.52c0-.17,0-.32,0-.46s0-.29,0-.46a4.35,4.35,0,0,0-.06-.52,3.18,3.18,0,0,0-.13-.51,2,2,0,0,0-.22-.44,1.24,1.24,0,0,0-.34-.31,1.06,1.06,0,0,0-.48-.11,1,1,0,0,0-.48.11,1.15,1.15,0,0,0-.35.31,2,2,0,0,0-.22.44,4.77,4.77,0,0,0-.13.51,4.35,4.35,0,0,0-.06.52C46.1,78.1,46.1,78.25,46.1,78.39Z"/><path d="M50,76.61a1.12,1.12,0,0,1,.08-.45,1.15,1.15,0,0,1,.25-.37,1.16,1.16,0,0,1,1.62,0,1.15,1.15,0,0,1,.25.37,1.33,1.33,0,0,1,.08.45,1.23,1.23,0,0,1-.08.44,1.15,1.15,0,0,1-.25.37,1.16,1.16,0,0,1-1.62,0,1.15,1.15,0,0,1-.25-.37A1,1,0,0,1,50,76.61Zm.43,0a.52.52,0,0,0,0,.24.72.72,0,0,0,.14.24.63.63,0,0,0,.23.16.64.64,0,0,0,.58,0,.73.73,0,0,0,.23-.16,1,1,0,0,0,.14-.24.69.69,0,0,0,.05-.24.75.75,0,0,0-.19-.48.76.76,0,0,0-.23-.17.64.64,0,0,0-.58,0,.66.66,0,0,0-.23.17.59.59,0,0,0-.14.23A.56.56,0,0,0,50.46,76.61Z"/></g><g id="numeri_fondo_tabella" data-name="numeri fondo tabella"><path d="M131.83,251.42a1.17,1.17,0,0,0-.43-.35,1.19,1.19,0,0,0-.51-.11,1.35,1.35,0,0,0-.55.11,1.08,1.08,0,0,0-.4.3,1.32,1.32,0,0,0-.23.44,1.76,1.76,0,0,0,0,1.08,1.43,1.43,0,0,0,.26.45,1.31,1.31,0,0,0,.39.3,1.27,1.27,0,0,0,.52.1,1.09,1.09,0,0,0,1-.46l.47.44a1.69,1.69,0,0,1-.64.46,2.29,2.29,0,0,1-.78.14,2.22,2.22,0,0,1-.79-.14,1.75,1.75,0,0,1-1-1,2.27,2.27,0,0,1,0-1.57,1.86,1.86,0,0,1,.39-.63,2,2,0,0,1,.61-.41,2,2,0,0,1,.79-.15,2.09,2.09,0,0,1,.79.15,1.59,1.59,0,0,1,.65.45Z"/><path d="M136.21,253.56h0a1.43,1.43,0,0,1-.55.54,1.7,1.7,0,0,1-.89.22,1.8,1.8,0,0,1-.73-.15,1.78,1.78,0,0,1-.6-.41,1.81,1.81,0,0,1-.39-.62,2.06,2.06,0,0,1-.15-.79,2,2,0,0,1,.15-.78,1.88,1.88,0,0,1,.4-.63,1.81,1.81,0,0,1,.62-.41,2.07,2.07,0,0,1,.8-.15,1.72,1.72,0,0,1,.75.17,1.78,1.78,0,0,1,.59.47h0v-2.84h.62v6h-.62Zm0-1.21a1.63,1.63,0,0,0-.09-.55,1.34,1.34,0,0,0-.27-.44,1.37,1.37,0,0,0-.42-.29,1.35,1.35,0,0,0-.55-.11,1.42,1.42,0,0,0-.55.11,1.22,1.22,0,0,0-.41.29,1.34,1.34,0,0,0-.27.44,1.56,1.56,0,0,0,0,1.1,1.25,1.25,0,0,0,.27.44,1.19,1.19,0,0,0,1,.4,1.35,1.35,0,0,0,.55-.1,1.6,1.6,0,0,0,.42-.3,1.25,1.25,0,0,0,.27-.44A1.63,1.63,0,0,0,136.21,252.35Z"/><path d="M140.1,254.57l-.5-.2,2.4-6.15.51.2Z"/><path d="M147.64,254.22H147v-4.8h0l-1,.86-.4-.49,1.52-1.23h.59Z"/><path d="M149.46,251.39a7.07,7.07,0,0,1,.08-1,3.19,3.19,0,0,1,.29-.95,2,2,0,0,1,.59-.7,1.61,1.61,0,0,1,1-.28,1.55,1.55,0,0,1,1,.28,1.91,1.91,0,0,1,.59.7,2.94,2.94,0,0,1,.3.95,6.29,6.29,0,0,1,0,2,2.94,2.94,0,0,1-.3,1,1.91,1.91,0,0,1-.59.7,1.49,1.49,0,0,1-1,.28,1.54,1.54,0,0,1-1-.28,2,2,0,0,1-.59-.7,3.19,3.19,0,0,1-.29-1A7.07,7.07,0,0,1,149.46,251.39Zm.67,0c0,.14,0,.29,0,.47a4.43,4.43,0,0,0,.06.51,4.7,4.7,0,0,0,.12.51,2,2,0,0,0,.23.44,1.12,1.12,0,0,0,.34.31,1.1,1.1,0,0,0,1,0,1.12,1.12,0,0,0,.34-.31,1.65,1.65,0,0,0,.22-.44,3.18,3.18,0,0,0,.13-.51,4.43,4.43,0,0,0,.06-.51c0-.18,0-.33,0-.47s0-.29,0-.46a4.6,4.6,0,0,0-.06-.52,3.18,3.18,0,0,0-.13-.51,1.65,1.65,0,0,0-.22-.44,1.08,1.08,0,0,0-.34-.3,1,1,0,0,0-1,0,1.08,1.08,0,0,0-.34.3,2,2,0,0,0-.23.44,4.7,4.7,0,0,0-.12.51,4.6,4.6,0,0,0-.06.52C150.14,251.1,150.13,251.25,150.13,251.39Z"/><path d="M153.91,251.39a5.85,5.85,0,0,1,.08-1,3.19,3.19,0,0,1,.29-.95,2,2,0,0,1,.59-.7,1.61,1.61,0,0,1,1-.28,1.55,1.55,0,0,1,.95.28,1.91,1.91,0,0,1,.59.7,3.2,3.2,0,0,1,.3.95,6.29,6.29,0,0,1,0,2,3.2,3.2,0,0,1-.3,1,1.91,1.91,0,0,1-.59.7,1.49,1.49,0,0,1-.95.28,1.54,1.54,0,0,1-1-.28,2,2,0,0,1-.59-.7,3.19,3.19,0,0,1-.29-1A5.85,5.85,0,0,1,153.91,251.39Zm.67,0a4,4,0,0,0,0,.47,4.43,4.43,0,0,0,.06.51,3.14,3.14,0,0,0,.12.51,1.67,1.67,0,0,0,.23.44,1,1,0,0,0,.34.31.9.9,0,0,0,.48.11,1,1,0,0,0,.48-.11,1.24,1.24,0,0,0,.34-.31,1.65,1.65,0,0,0,.22-.44,3.18,3.18,0,0,0,.13-.51,4.43,4.43,0,0,0,.06-.51c0-.18,0-.33,0-.47s0-.29,0-.46a4.6,4.6,0,0,0-.06-.52,3.18,3.18,0,0,0-.13-.51,1.65,1.65,0,0,0-.22-.44,1.21,1.21,0,0,0-.34-.3,1,1,0,0,0-.48-.12.9.9,0,0,0-.48.12,1,1,0,0,0-.34.3,1.67,1.67,0,0,0-.23.44,3.14,3.14,0,0,0-.12.51,4.6,4.6,0,0,0-.06.52A3.78,3.78,0,0,0,154.58,251.39Z"/><path d="M158.31,251.39a5.85,5.85,0,0,1,.08-1,3.19,3.19,0,0,1,.29-.95,2,2,0,0,1,.59-.7,1.61,1.61,0,0,1,1-.28,1.55,1.55,0,0,1,1,.28,1.91,1.91,0,0,1,.59.7,3.2,3.2,0,0,1,.3.95,6.29,6.29,0,0,1,0,2,3.2,3.2,0,0,1-.3,1,1.91,1.91,0,0,1-.59.7,1.49,1.49,0,0,1-1,.28,1.54,1.54,0,0,1-1-.28,2,2,0,0,1-.59-.7,3.19,3.19,0,0,1-.29-1A5.85,5.85,0,0,1,158.31,251.39Zm.67,0c0,.14,0,.29,0,.47a4.43,4.43,0,0,0,.06.51,3.14,3.14,0,0,0,.12.51,1.67,1.67,0,0,0,.23.44,1,1,0,0,0,.34.31.9.9,0,0,0,.48.11,1,1,0,0,0,.48-.11,1.24,1.24,0,0,0,.34-.31,1.65,1.65,0,0,0,.22-.44,3.18,3.18,0,0,0,.13-.51,4.43,4.43,0,0,0,.06-.51c0-.18,0-.33,0-.47s0-.29,0-.46a4.6,4.6,0,0,0-.06-.52,3.18,3.18,0,0,0-.13-.51,1.65,1.65,0,0,0-.22-.44,1.21,1.21,0,0,0-.34-.3,1,1,0,0,0-.48-.12.9.9,0,0,0-.48.12,1,1,0,0,0-.34.3,1.67,1.67,0,0,0-.23.44,3.14,3.14,0,0,0-.12.51,4.6,4.6,0,0,0-.06.52C159,251.1,159,251.25,159,251.39Z"/><path d="M165.32,248.18H166v6h-.63Z"/><path d="M167.19,251.37c0-.17,0-.33,0-.48s0-.29,0-.41h.59c0,.1,0,.2,0,.3v.32h0a.91.91,0,0,1,.18-.27,1.64,1.64,0,0,1,.28-.23,1.5,1.5,0,0,1,.36-.16,1.44,1.44,0,0,1,.43-.06,1.52,1.52,0,0,1,.51.08,1.36,1.36,0,0,1,.34.18.93.93,0,0,1,.21.24,1.64,1.64,0,0,1,.12.22,1.78,1.78,0,0,1,.48-.53,1.27,1.27,0,0,1,.71-.19,1.88,1.88,0,0,1,.67.11,1.1,1.1,0,0,1,.44.31,1.37,1.37,0,0,1,.24.5,2.59,2.59,0,0,1,.07.65v2.27h-.62V252a2.33,2.33,0,0,0,0-.37,1,1,0,0,0-.15-.33.71.71,0,0,0-.28-.23,1,1,0,0,0-.45-.09,1,1,0,0,0-.37.08,1,1,0,0,0-.31.22,1.13,1.13,0,0,0-.21.35,1.33,1.33,0,0,0-.07.45v2.16h-.63V252.1a1.62,1.62,0,0,0-.17-.88A.6.6,0,0,0,169,251a1.18,1.18,0,0,0-.52.1.88.88,0,0,0-.36.3,1.14,1.14,0,0,0-.21.46,2.1,2.1,0,0,0-.07.58v1.82h-.62Z"/><line class="cls-1" x1="38.21" y1="253" x2="46.2" y2="253"/><path d="M235.17,251a1.66,1.66,0,0,0-.63-.52,1.93,1.93,0,0,0-.79-.17,2.13,2.13,0,0,0-.87.19,2.16,2.16,0,0,0-.68.52,2.58,2.58,0,0,0-.45.75,2.69,2.69,0,0,0-.16.89,2.79,2.79,0,0,0,.16.93,2.41,2.41,0,0,0,.45.74,2,2,0,0,0,.68.5,1.92,1.92,0,0,0,.87.19,2,2,0,0,0,1.64-.8l.51.43a2.38,2.38,0,0,1-.93.75,3,3,0,0,1-1.22.24,2.85,2.85,0,0,1-1.13-.22,2.82,2.82,0,0,1-.92-.62,3,3,0,0,1-.61-.94,3.33,3.33,0,0,1-.22-1.2,3.19,3.19,0,0,1,.21-1.16,2.9,2.9,0,0,1,.6-1,3.08,3.08,0,0,1,.91-.63,3,3,0,0,1,2.27,0,2,2,0,0,1,.89.68Z"/><path d="M239,253.1l0,0a1.35,1.35,0,0,1-.37.13,2.87,2.87,0,0,1-.39,0,1.68,1.68,0,0,1-.68-.13,1.5,1.5,0,0,1-.55-.36,1.92,1.92,0,0,1-.36-.56,2.11,2.11,0,0,1-.12-.73,1.75,1.75,0,0,1,.14-.74,1.63,1.63,0,0,1,.4-.56,1.79,1.79,0,0,1,.6-.35,2.36,2.36,0,0,1,.75-.12,2.27,2.27,0,0,1,.75.12,1.94,1.94,0,0,1,.61.35,1.49,1.49,0,0,1,.39.56,1.75,1.75,0,0,1,.15.74,2.19,2.19,0,0,1,0,.46c0,.14-.07.27-.11.4a2.53,2.53,0,0,1-.18.37,3.35,3.35,0,0,1-.21.36l-1.5,2.4h-.79Zm-.6-.43a1.51,1.51,0,0,0,.48-.08,1.28,1.28,0,0,0,.39-.24,1.12,1.12,0,0,0,.26-.38,1.27,1.27,0,0,0,.1-.5,1.26,1.26,0,0,0-.1-.49,1,1,0,0,0-.26-.38,1,1,0,0,0-.39-.24,1.33,1.33,0,0,0-1,0,.88.88,0,0,0-.38.24,1.19,1.19,0,0,0-.27.38,1.26,1.26,0,0,0-.09.49,1.28,1.28,0,0,0,.09.5,1.31,1.31,0,0,0,.27.38,1.12,1.12,0,0,0,.38.24A1.51,1.51,0,0,0,238.35,252.67Z"/><path d="M240.88,252.62a7.07,7.07,0,0,1,.08-1,2.88,2.88,0,0,1,.3-.94,2,2,0,0,1,.58-.71,1.84,1.84,0,0,1,1.92,0,2,2,0,0,1,.58.71,2.88,2.88,0,0,1,.3.94,7.07,7.07,0,0,1,.08,1,7,7,0,0,1-.08,1,2.86,2.86,0,0,1-.3.95,2,2,0,0,1-.58.71,1.84,1.84,0,0,1-1.92,0,2,2,0,0,1-.58-.71,2.86,2.86,0,0,1-.3-.95A7,7,0,0,1,240.88,252.62Zm.67,0c0,.14,0,.3,0,.47a4.43,4.43,0,0,0,.06.51,2.72,2.72,0,0,0,.13.51,1.51,1.51,0,0,0,.22.44,1.12,1.12,0,0,0,.34.31,1,1,0,0,0,1,0,1.12,1.12,0,0,0,.34-.31,1.51,1.51,0,0,0,.22-.44,2.72,2.72,0,0,0,.13-.51,4.43,4.43,0,0,0,.06-.51c0-.17,0-.33,0-.47s0-.29,0-.46a4.88,4.88,0,0,0-.06-.52,2.83,2.83,0,0,0-.13-.5,1.4,1.4,0,0,0-.22-.44,1.12,1.12,0,0,0-.34-.31,1,1,0,0,0-1,0,1.12,1.12,0,0,0-.34.31,1.4,1.4,0,0,0-.22.44,2.83,2.83,0,0,0-.13.5,4.88,4.88,0,0,0-.06.52C241.56,252.33,241.55,252.49,241.55,252.62Z"/><path d="M247.78,255.8l-.51-.2,2.41-6.14.5.19Z"/><path d="M257.1,251a1.66,1.66,0,0,0-.63-.52,1.92,1.92,0,0,0-.78-.17,2.06,2.06,0,0,0-.87.19,2.16,2.16,0,0,0-.68.52,2.21,2.21,0,0,0-.45.75,2.46,2.46,0,0,0-.16.89,2.56,2.56,0,0,0,.16.93,2.2,2.2,0,0,0,.44.74,2.1,2.1,0,0,0,.68.5,2,2,0,0,0,.88.19,2,2,0,0,0,.93-.21,2,2,0,0,0,.71-.59l.5.43a2.29,2.29,0,0,1-.92.75,3,3,0,0,1-1.22.24,2.8,2.8,0,0,1-2.05-.84,2.82,2.82,0,0,1-.61-.94,3.13,3.13,0,0,1-.22-1.2,3.19,3.19,0,0,1,.21-1.16,2.75,2.75,0,0,1,.6-1,3,3,0,0,1,.91-.63,2.93,2.93,0,0,1,1.16-.23,3,3,0,0,1,1.11.21,2,2,0,0,1,.89.68Z"/><path d="M258.46,254.69l2.14-2.08.35-.36a1.75,1.75,0,0,0,.25-.32,1,1,0,0,0,.15-.32,1.46,1.46,0,0,0,0-.38,1,1,0,0,0-.08-.4.93.93,0,0,0-.22-.3,1.13,1.13,0,0,0-.73-.26,1,1,0,0,0-.71.25,1.11,1.11,0,0,0-.36.66l-.73-.07a1.91,1.91,0,0,1,.21-.61,1.28,1.28,0,0,1,.39-.44,1.77,1.77,0,0,1,.53-.27,2.25,2.25,0,0,1,.64-.09,2.09,2.09,0,0,1,.67.1,1.53,1.53,0,0,1,.55.29,1.47,1.47,0,0,1,.37.48,1.39,1.39,0,0,1,.14.66,1.91,1.91,0,0,1-.09.61,1.8,1.8,0,0,1-.25.5,2.86,2.86,0,0,1-.35.43l-.41.41-1.75,1.64h2.89v.63h-3.65Z"/><path d="M266.35,250.42l-2.26,5h-.76l2.3-5H262.9v-.63h3.45Z"/><path d="M267.26,252.62a7.07,7.07,0,0,1,.08-1,3.45,3.45,0,0,1,.3-.94,2,2,0,0,1,.59-.71,1.82,1.82,0,0,1,1.91,0,2,2,0,0,1,.59.71,3.45,3.45,0,0,1,.3.94,7,7,0,0,1,.07,1,6.92,6.92,0,0,1-.07,1,3.41,3.41,0,0,1-.3.95,2,2,0,0,1-.59.71,1.82,1.82,0,0,1-1.91,0,2,2,0,0,1-.59-.71,3.41,3.41,0,0,1-.3-.95A7,7,0,0,1,267.26,252.62Zm.68,0c0,.14,0,.3,0,.47a4.43,4.43,0,0,0,.06.51,2.72,2.72,0,0,0,.13.51,1.53,1.53,0,0,0,.23.44,1,1,0,0,0,.34.31.89.89,0,0,0,.47.12,1,1,0,0,0,.49-.12,1.08,1.08,0,0,0,.33-.31,1.53,1.53,0,0,0,.23-.44,2.72,2.72,0,0,0,.13-.51,4.43,4.43,0,0,0,.06-.51c0-.17,0-.33,0-.47s0-.29,0-.46a4.88,4.88,0,0,0-.06-.52,2.83,2.83,0,0,0-.13-.5,1.41,1.41,0,0,0-.23-.44,1.08,1.08,0,0,0-.33-.31,1,1,0,0,0-.49-.12.89.89,0,0,0-.47.12,1,1,0,0,0-.34.31,1.41,1.41,0,0,0-.23.44,2.83,2.83,0,0,0-.13.5,4.88,4.88,0,0,0-.06.52C267.94,252.33,267.94,252.49,267.94,252.62Z"/><path d="M52.87,251a1.55,1.55,0,0,0-.63-.51,1.82,1.82,0,0,0-.79-.18,2,2,0,0,0-.87.2,2.13,2.13,0,0,0-.68.51,2.58,2.58,0,0,0-.45.75,2.67,2.67,0,0,0,0,1.82,2.29,2.29,0,0,0,.45.74,1.88,1.88,0,0,0,.68.5,1.92,1.92,0,0,0,.87.19,2,2,0,0,0,.93-.21,2.07,2.07,0,0,0,.71-.58l.51.42a2.38,2.38,0,0,1-.93.75,3,3,0,0,1-1.22.24,2.85,2.85,0,0,1-1.13-.22,2.82,2.82,0,0,1-.92-.62,3,3,0,0,1-.61-.94,3.27,3.27,0,0,1-.22-1.19,3.2,3.2,0,0,1,.21-1.17,3,3,0,0,1,.6-.95,3.08,3.08,0,0,1,.91-.63,3,3,0,0,1,2.27,0,2,2,0,0,1,.89.68Z"/><path d="M54.13,252.62a7,7,0,0,1,.08-1,3.11,3.11,0,0,1,.3-1,1.94,1.94,0,0,1,.59-.71,1.55,1.55,0,0,1,.95-.27,1.6,1.6,0,0,1,1,.27,2,2,0,0,1,.59.71,3.1,3.1,0,0,1,.29,1,5.77,5.77,0,0,1,.08,1,5.85,5.85,0,0,1-.08,1,3.13,3.13,0,0,1-.29.94,2,2,0,0,1-.59.71,1.6,1.6,0,0,1-1,.27,1.55,1.55,0,0,1-.95-.27,1.94,1.94,0,0,1-.59-.71,3.14,3.14,0,0,1-.3-.94A7.07,7.07,0,0,1,54.13,252.62Zm.67,0c0,.13,0,.29,0,.46a4.88,4.88,0,0,0,.06.52,2.83,2.83,0,0,0,.13.5,1.4,1.4,0,0,0,.22.44,1.1,1.1,0,0,0,.34.31,1,1,0,0,0,.48.12.9.9,0,0,0,.48-.12.92.92,0,0,0,.34-.31,1.41,1.41,0,0,0,.23-.44,2.8,2.8,0,0,0,.12-.5,4.88,4.88,0,0,0,.06-.52,3.86,3.86,0,0,0,0-.46,3.94,3.94,0,0,0,0-.47,4.43,4.43,0,0,0-.06-.51,2.71,2.71,0,0,0-.12-.51,1.53,1.53,0,0,0-.23-.44,1,1,0,0,0-.34-.31.9.9,0,0,0-.48-.12,1,1,0,0,0-.48.12,1.24,1.24,0,0,0-.34.31,1.51,1.51,0,0,0-.22.44,2.72,2.72,0,0,0-.13.51,4.43,4.43,0,0,0-.06.51C54.81,252.32,54.8,252.48,54.8,252.62Z"/><path d="M61,255.79l-.51-.2,2.41-6.14.51.19Z"/><path d="M70.36,251a1.52,1.52,0,0,0-.64-.51,1.78,1.78,0,0,0-.78-.18,2,2,0,0,0-.87.2,2.13,2.13,0,0,0-.68.51,2.58,2.58,0,0,0-.45.75,2.51,2.51,0,0,0-.16.9,2.54,2.54,0,0,0,.16.92,2.46,2.46,0,0,0,.44.74,2.09,2.09,0,0,0,1.56.69,2,2,0,0,0,.93-.21,2.07,2.07,0,0,0,.71-.58l.5.42a2.29,2.29,0,0,1-.92.75,3,3,0,0,1-1.22.24,2.93,2.93,0,0,1-1.14-.22,2.88,2.88,0,0,1-.91-.62,3,3,0,0,1-.61-.94,3.07,3.07,0,0,1-.22-1.19,3.2,3.2,0,0,1,.21-1.17,2.84,2.84,0,0,1,.6-.95,3,3,0,0,1,.91-.63,2.93,2.93,0,0,1,1.16-.23,3,3,0,0,1,1.11.21,2,2,0,0,1,.89.68Z"/><path d="M74.2,255.45h-.68v-4.8h0l-1,.85-.4-.48,1.52-1.24h.59Z"/><path d="M76.37,251.17a1.33,1.33,0,0,1,.13-.61,1.2,1.2,0,0,1,.34-.46,1.44,1.44,0,0,1,.51-.3,1.92,1.92,0,0,1,1.28,0,1.44,1.44,0,0,1,.51.3,1.32,1.32,0,0,1,.34.46,1.48,1.48,0,0,1,.12.61,1.44,1.44,0,0,1-.06.4,1.41,1.41,0,0,1-.18.37,1.18,1.18,0,0,1-.3.29,1,1,0,0,1-.38.19h0a1.44,1.44,0,0,1,.46.19,1.35,1.35,0,0,1,.35.32,1.67,1.67,0,0,1,.23.44,1.7,1.7,0,0,1,.08.51,1.74,1.74,0,0,1-.14.69,1.46,1.46,0,0,1-.39.52,1.47,1.47,0,0,1-.57.33,2.35,2.35,0,0,1-1.42,0,1.59,1.59,0,0,1-.58-.33,1.43,1.43,0,0,1-.38-.52,1.74,1.74,0,0,1-.14-.69,1.7,1.7,0,0,1,.08-.51,1.65,1.65,0,0,1,.22-.44,1.59,1.59,0,0,1,.36-.32,1.44,1.44,0,0,1,.46-.19h0a1.18,1.18,0,0,1-.39-.19,1.33,1.33,0,0,1-.29-.29,1.41,1.41,0,0,1-.18-.37A1.16,1.16,0,0,1,76.37,251.17Zm.48,2.67a1.14,1.14,0,0,0,.09.46,1.21,1.21,0,0,0,.24.35,1.16,1.16,0,0,0,.36.23A1.13,1.13,0,0,0,78,255a1,1,0,0,0,.44-.09,1,1,0,0,0,.36-.23,1.07,1.07,0,0,0,.25-.35,1.36,1.36,0,0,0,0-.92,1.07,1.07,0,0,0-.25-.35,1,1,0,0,0-.36-.23,1,1,0,0,0-.44-.09,1.13,1.13,0,0,0-.45.09,1.16,1.16,0,0,0-.36.23,1.21,1.21,0,0,0-.24.35A1.14,1.14,0,0,0,76.85,253.84ZM77,251.2a.92.92,0,0,0,.26.67.93.93,0,0,0,.69.27.9.9,0,0,0,.68-.27,1,1,0,0,0,0-1.34.9.9,0,0,0-.68-.27.93.93,0,0,0-.69.27A.92.92,0,0,0,77,251.2Z"/><path d="M80.52,252.62a5.77,5.77,0,0,1,.08-1,3.1,3.1,0,0,1,.29-1,2,2,0,0,1,.59-.71,1.6,1.6,0,0,1,1-.27,1.55,1.55,0,0,1,1,.27,1.94,1.94,0,0,1,.59.71,3.41,3.41,0,0,1,.3,1,7,7,0,0,1,.08,1,7.07,7.07,0,0,1-.08,1,3.45,3.45,0,0,1-.3.94,1.94,1.94,0,0,1-.59.71,1.55,1.55,0,0,1-1,.27,1.6,1.6,0,0,1-1-.27,2,2,0,0,1-.59-.71,3.13,3.13,0,0,1-.29-.94A5.85,5.85,0,0,1,80.52,252.62Zm.67,0a3.86,3.86,0,0,0,0,.46c0,.17,0,.34.05.52a4.07,4.07,0,0,0,.13.5,1.41,1.41,0,0,0,.23.44.92.92,0,0,0,.34.31.9.9,0,0,0,.48.12,1,1,0,0,0,.48-.12,1.1,1.1,0,0,0,.34-.31,1.65,1.65,0,0,0,.22-.44,2.83,2.83,0,0,0,.13-.5,4.88,4.88,0,0,0,.06-.52c0-.17,0-.33,0-.46s0-.3,0-.47a4.43,4.43,0,0,0-.06-.51,2.72,2.72,0,0,0-.13-.51,1.81,1.81,0,0,0-.22-.44,1.24,1.24,0,0,0-.34-.31,1,1,0,0,0-.48-.12.9.9,0,0,0-.48.12,1,1,0,0,0-.34.31,1.53,1.53,0,0,0-.23.44,3.8,3.8,0,0,0-.13.51c0,.17,0,.34-.05.51A3.94,3.94,0,0,0,81.19,252.62Z"/><line class="cls-2" x1="214.49" y1="253.42" x2="215.03" y2="253.42"/><line class="cls-2" x1="217.76" y1="253.42" x2="218.3" y2="253.42"/><line class="cls-2" x1="221.02" y1="253.42" x2="221.56" y2="253.42"/><line class="cls-2" x1="224.29" y1="253.42" x2="224.83" y2="253.42"/><line class="cls-2" x1="227.55" y1="253.42" x2="228.09" y2="253.42"/></g><g id="Tab_F_F65610"><path d="M54.27,11.76h4.4v.78H55.12v2.34h3.3v.78h-3.3v3.18h-.85Z"/><path d="M61,14.71l0,0a1.46,1.46,0,0,1,.46-.16,3,3,0,0,1,.48-.05,2.2,2.2,0,0,1,.86.16,2,2,0,0,1,.68.46,2.11,2.11,0,0,1,.45.7,2.57,2.57,0,0,1,.15.9,2.45,2.45,0,0,1-.17.93,2.08,2.08,0,0,1-.5.7,2.48,2.48,0,0,1-.76.44,3,3,0,0,1-1.87,0,2.48,2.48,0,0,1-.76-.44,2.23,2.23,0,0,1-.5-.7,2.45,2.45,0,0,1-.17-.93,2.73,2.73,0,0,1,.19-1.07,5.07,5.07,0,0,1,.48-.92l1.88-3h1Zm.73.53a1.63,1.63,0,0,0-.59.11,1.44,1.44,0,0,0-.49.3,1.31,1.31,0,0,0-.32.47,1.56,1.56,0,0,0-.12.62,1.61,1.61,0,0,0,.12.63,1.4,1.4,0,0,0,.32.47,1.44,1.44,0,0,0,.49.3,1.63,1.63,0,0,0,.59.1,1.64,1.64,0,0,0,.6-.1,1.44,1.44,0,0,0,.49-.3,1.59,1.59,0,0,0,.33-.47,1.61,1.61,0,0,0,.12-.63,1.56,1.56,0,0,0-.12-.62,1.47,1.47,0,0,0-.33-.47,1.44,1.44,0,0,0-.49-.3A1.64,1.64,0,0,0,61.73,15.24Z"/><path d="M69.26,12.54H66.37l0,1.91a1.37,1.37,0,0,1,.45-.13,2.56,2.56,0,0,1,.47,0,2.32,2.32,0,0,1,.92.18,2,2,0,0,1,.72.49,2.32,2.32,0,0,1,.46.74,2.73,2.73,0,0,1,.16.92,2.54,2.54,0,0,1-.19,1,2.13,2.13,0,0,1-.51.74,2.31,2.31,0,0,1-.77.47,2.77,2.77,0,0,1-1,.17,2.26,2.26,0,0,1-1.31-.35,2.41,2.41,0,0,1-.78-.94l.84-.32a1.58,1.58,0,0,0,.52.65,1.37,1.37,0,0,0,.8.24,1.63,1.63,0,0,0,.59-.11,1.58,1.58,0,0,0,.48-.33,1.46,1.46,0,0,0,.32-.52,1.78,1.78,0,0,0,.13-.67,1.67,1.67,0,0,0-.14-.69,1.34,1.34,0,0,0-.37-.5,1.53,1.53,0,0,0-.56-.31,2.15,2.15,0,0,0-.68-.11,2.18,2.18,0,0,0-.74.13,3,3,0,0,0-.7.31l.06-3.68h3.72Z"/><path d="M72.12,14.71l0,0a1.46,1.46,0,0,1,.46-.16,3,3,0,0,1,.48-.05,2.2,2.2,0,0,1,.86.16,2,2,0,0,1,.68.46,2.11,2.11,0,0,1,.45.7,2.57,2.57,0,0,1,.16.9,2.27,2.27,0,0,1-.18.93,2.08,2.08,0,0,1-.5.7,2.48,2.48,0,0,1-.76.44,3,3,0,0,1-1.87,0,2.32,2.32,0,0,1-.75-.44,2,2,0,0,1-.5-.7,2.27,2.27,0,0,1-.18-.93,2.73,2.73,0,0,1,.19-1.07,5.07,5.07,0,0,1,.48-.92l1.88-3h1Zm.73.53a1.63,1.63,0,0,0-.59.11,1.44,1.44,0,0,0-.49.3,1.31,1.31,0,0,0-.32.47,1.56,1.56,0,0,0-.12.62,1.61,1.61,0,0,0,.12.63,1.4,1.4,0,0,0,.32.47,1.44,1.44,0,0,0,.49.3,1.63,1.63,0,0,0,.59.1,1.74,1.74,0,0,0,.61-.1,1.5,1.5,0,0,0,.48-.3,1.43,1.43,0,0,0,.33-.47,1.61,1.61,0,0,0,.12-.63,1.56,1.56,0,0,0-.12-.62,1.33,1.33,0,0,0-.33-.47,1.5,1.5,0,0,0-.48-.3A1.74,1.74,0,0,0,72.85,15.24Z"/><path d="M79.24,18.84H78.4v-6h0l-1.27,1.07-.5-.61,1.9-1.54h.73Z"/><path d="M81.58,15.3a7.79,7.79,0,0,1,.1-1.25,3.71,3.71,0,0,1,.37-1.18,2.41,2.41,0,0,1,.73-.88,2.22,2.22,0,0,1,2.39,0,2.44,2.44,0,0,1,.74.88,4,4,0,0,1,.37,1.18,9.14,9.14,0,0,1,.1,1.25,9.14,9.14,0,0,1-.1,1.25,4.14,4.14,0,0,1-.37,1.19,2.53,2.53,0,0,1-.74.88,2.27,2.27,0,0,1-2.39,0,2.5,2.5,0,0,1-.73-.88,3.85,3.85,0,0,1-.37-1.19A7.79,7.79,0,0,1,81.58,15.3Zm.84,0c0,.17,0,.37,0,.58a5,5,0,0,0,.07.65,4.85,4.85,0,0,0,.16.63,1.9,1.9,0,0,0,.28.55,1.45,1.45,0,0,0,.43.39,1.21,1.21,0,0,0,.6.14,1.27,1.27,0,0,0,.6-.14,1.55,1.55,0,0,0,.42-.39,1.9,1.9,0,0,0,.28-.55,4.85,4.85,0,0,0,.16-.63c0-.22.06-.44.08-.65s0-.41,0-.58,0-.37,0-.58,0-.43-.08-.64a4.61,4.61,0,0,0-.16-.64,1.9,1.9,0,0,0-.28-.55,1.37,1.37,0,0,0-.42-.38,1.16,1.16,0,0,0-.6-.15,1.11,1.11,0,0,0-.6.15,1.3,1.3,0,0,0-.43.38,1.9,1.9,0,0,0-.28.55,4.79,4.79,0,0,0-.23,1.28C82.42,14.93,82.42,15.13,82.42,15.3Z"/><path d="M86.76,19.59h5v.5h-5Z"/><path d="M96.56,12.54l-2.83,6.3h-1l2.88-6.3H92.24v-.78h4.32Z"/><path d="M97.38,11.76h.93l1.61,5.88h0l1.74-5.88h.94l1.73,5.88h0L106,11.76h.88l-2.08,7.08h-.91l-1.75-6h0l-1.76,6h-.92Z"/><path d="M110.54,11.76h.84v6.3h3.24v.78h-4.08Z"/><path d="M115.54,11.76H120v.78h-3.61v2.22h3.37v.78h-3.37v2.52h3.79v.78h-4.63Z"/><path d="M121.33,11.76h2.73a3.79,3.79,0,0,1,.73.08,3.25,3.25,0,0,1,.78.26,3.24,3.24,0,0,1,1.37,1.13,3.32,3.32,0,0,1,.42.91,3.78,3.78,0,0,1,.16,1.16,3.9,3.9,0,0,1-.16,1.17,3.62,3.62,0,0,1-.42.91,3.36,3.36,0,0,1-.63.67,3.63,3.63,0,0,1-.74.46,3.73,3.73,0,0,1-.78.25,3.79,3.79,0,0,1-.73.08h-2.73Zm.84,6.3h1.6a3.67,3.67,0,0,0,1.13-.16,2.58,2.58,0,0,0,.91-.49,2.31,2.31,0,0,0,.59-.86,3.14,3.14,0,0,0,.22-1.25,3.14,3.14,0,0,0-.22-1.25,2.2,2.2,0,0,0-.59-.85,2.45,2.45,0,0,0-.91-.5,3.67,3.67,0,0,0-1.13-.16h-1.6Z"/><rect class="cls-3" x="54.39" y="42.5" width="189.86" height="189.86"/><circle class="cls-4" cx="149.33" cy="137.38" r="21.06"/><path d="M152.86,166.49h-.68v-4.8h0l-1,.85-.4-.49,1.52-1.23h.59Z"/><path d="M154.68,163.65a7.07,7.07,0,0,1,.08-1,2.88,2.88,0,0,1,.3-.94,2,2,0,0,1,.58-.71,1.84,1.84,0,0,1,1.92,0,2,2,0,0,1,.58.71,2.88,2.88,0,0,1,.3.94,7.07,7.07,0,0,1,.08,1,7,7,0,0,1-.08,1,2.86,2.86,0,0,1-.3.95,2,2,0,0,1-.58.71,1.84,1.84,0,0,1-1.92,0,2,2,0,0,1-.58-.71,2.86,2.86,0,0,1-.3-.95A7,7,0,0,1,154.68,163.65Zm.67,0c0,.14,0,.3,0,.47a4.43,4.43,0,0,0,.06.51,2.72,2.72,0,0,0,.13.51,1.51,1.51,0,0,0,.22.44,1.12,1.12,0,0,0,.34.31,1,1,0,0,0,1,0,1.12,1.12,0,0,0,.34-.31,1.51,1.51,0,0,0,.22-.44,2.72,2.72,0,0,0,.13-.51,4.43,4.43,0,0,0,.06-.51c0-.17,0-.33,0-.47s0-.29,0-.46a4.88,4.88,0,0,0-.06-.52,2.83,2.83,0,0,0-.13-.5,1.4,1.4,0,0,0-.22-.44,1.12,1.12,0,0,0-.34-.31,1,1,0,0,0-1,0,1.12,1.12,0,0,0-.34.31,1.4,1.4,0,0,0-.22.44,2.83,2.83,0,0,0-.13.5,4.88,4.88,0,0,0-.06.52C155.36,163.36,155.35,163.52,155.35,163.65Z"/><path d="M159.13,163.65a7.07,7.07,0,0,1,.08-1,3.13,3.13,0,0,1,.29-.94,2,2,0,0,1,.59-.71,1.6,1.6,0,0,1,1-.27,1.55,1.55,0,0,1,.95.27,1.94,1.94,0,0,1,.59.71,3.14,3.14,0,0,1,.3.94,7.07,7.07,0,0,1,.08,1,7,7,0,0,1-.08,1,3.11,3.11,0,0,1-.3.95,1.94,1.94,0,0,1-.59.71,1.55,1.55,0,0,1-.95.27,1.6,1.6,0,0,1-1-.27,2,2,0,0,1-.59-.71,3.1,3.1,0,0,1-.29-.95A7,7,0,0,1,159.13,163.65Zm.67,0c0,.14,0,.3,0,.47a4.43,4.43,0,0,0,.06.51,3.81,3.81,0,0,0,.12.51,1.53,1.53,0,0,0,.23.44,1,1,0,0,0,.34.31.9.9,0,0,0,.48.12,1,1,0,0,0,.48-.12,1.24,1.24,0,0,0,.34-.31,1.51,1.51,0,0,0,.22-.44,2.72,2.72,0,0,0,.13-.51,4.43,4.43,0,0,0,.06-.51c0-.17,0-.33,0-.47s0-.29,0-.46a4.88,4.88,0,0,0-.06-.52,2.83,2.83,0,0,0-.13-.5,1.4,1.4,0,0,0-.22-.44,1.24,1.24,0,0,0-.34-.31,1,1,0,0,0-.48-.12.9.9,0,0,0-.48.12,1,1,0,0,0-.34.31,1.41,1.41,0,0,0-.23.44,4.05,4.05,0,0,0-.12.5,4.88,4.88,0,0,0-.06.52C159.81,163.36,159.8,163.52,159.8,163.65Z"/><circle class="cls-4" cx="149.33" cy="137.38" r="42.17" transform="translate(-20.08 25.69) rotate(-9.22)"/><path d="M150.38,186.83l2.13-2.08.35-.35a3.33,3.33,0,0,0,.26-.32,1.56,1.56,0,0,0,.14-.33,1.11,1.11,0,0,0,.05-.37.9.9,0,0,0-.3-.7.91.91,0,0,0-.33-.2,1.29,1.29,0,0,0-.4-.06,1,1,0,0,0-.71.24,1.13,1.13,0,0,0-.36.66l-.73-.06a2,2,0,0,1,.21-.62,1.66,1.66,0,0,1,.39-.44,1.71,1.71,0,0,1,.54-.27,2.15,2.15,0,0,1,.64-.09,2.07,2.07,0,0,1,.66.1,1.7,1.7,0,0,1,.55.29,1.47,1.47,0,0,1,.37.48,1.41,1.41,0,0,1,.14.67,1.89,1.89,0,0,1-.09.6,1.67,1.67,0,0,1-.25.5,2.94,2.94,0,0,1-.35.44l-.41.4L151.14,187v0H154v.62h-3.64Z"/><path d="M154.68,184.77a7,7,0,0,1,.08-1,2.94,2.94,0,0,1,.3-1,1.9,1.9,0,0,1,.58-.7,1.79,1.79,0,0,1,1.92,0,1.9,1.9,0,0,1,.58.7,2.94,2.94,0,0,1,.3,1,7,7,0,0,1,.08,1,7.07,7.07,0,0,1-.08,1,3,3,0,0,1-.3.95,2,2,0,0,1-.58.7,1.79,1.79,0,0,1-1.92,0,2,2,0,0,1-.58-.7,3,3,0,0,1-.3-.95A7.07,7.07,0,0,1,154.68,184.77Zm.67,0c0,.14,0,.29,0,.46a4.88,4.88,0,0,0,.06.52,3.18,3.18,0,0,0,.13.51,1.65,1.65,0,0,0,.22.44,1.08,1.08,0,0,0,.34.3,1,1,0,0,0,1,0,1.08,1.08,0,0,0,.34-.3,1.65,1.65,0,0,0,.22-.44,3.18,3.18,0,0,0,.13-.51,4.88,4.88,0,0,0,.06-.52c0-.17,0-.32,0-.46s0-.3,0-.47a4.43,4.43,0,0,0-.06-.51,2.93,2.93,0,0,0-.13-.51,1.51,1.51,0,0,0-.22-.44,1.12,1.12,0,0,0-.34-.31,1.1,1.1,0,0,0-1,0,1.12,1.12,0,0,0-.34.31,1.51,1.51,0,0,0-.22.44,2.93,2.93,0,0,0-.13.51,4.43,4.43,0,0,0-.06.51C155.36,184.47,155.35,184.63,155.35,184.77Z"/><path d="M159.13,184.77a7,7,0,0,1,.08-1,3.19,3.19,0,0,1,.29-1,1.92,1.92,0,0,1,.59-.7,1.54,1.54,0,0,1,1-.28,1.49,1.49,0,0,1,.95.28,1.83,1.83,0,0,1,.59.7,3.2,3.2,0,0,1,.3,1,7,7,0,0,1,.08,1,7.07,7.07,0,0,1-.08,1,3.3,3.3,0,0,1-.3.95,1.91,1.91,0,0,1-.59.7,1.55,1.55,0,0,1-.95.28,1.61,1.61,0,0,1-1-.28,2,2,0,0,1-.59-.7,3.28,3.28,0,0,1-.29-.95A7.07,7.07,0,0,1,159.13,184.77Zm.67,0c0,.14,0,.29,0,.46a4.88,4.88,0,0,0,.06.52,4.7,4.7,0,0,0,.12.51,1.67,1.67,0,0,0,.23.44,1,1,0,0,0,.34.3.9.9,0,0,0,.48.12,1,1,0,0,0,.48-.12,1.21,1.21,0,0,0,.34-.3,1.65,1.65,0,0,0,.22-.44,3.18,3.18,0,0,0,.13-.51,4.88,4.88,0,0,0,.06-.52c0-.17,0-.32,0-.46s0-.3,0-.47a4.43,4.43,0,0,0-.06-.51,2.93,2.93,0,0,0-.13-.51,1.51,1.51,0,0,0-.22-.44,1.24,1.24,0,0,0-.34-.31,1.06,1.06,0,0,0-.48-.11,1,1,0,0,0-.48.11,1,1,0,0,0-.34.31,1.53,1.53,0,0,0-.23.44,4.21,4.21,0,0,0-.12.51,4.43,4.43,0,0,0-.06.51C159.81,184.47,159.8,184.63,159.8,184.77Z"/><circle class="cls-4" cx="149.33" cy="137.38" r="63.23"/><path d="M151.61,205.4h.21a2.22,2.22,0,0,0,.43,0,1.21,1.21,0,0,0,.42-.13.89.89,0,0,0,.31-.3,1,1,0,0,0,.12-.52.91.91,0,0,0-.26-.68,1,1,0,0,0-.7-.25,1.18,1.18,0,0,0-.63.16,1.06,1.06,0,0,0-.41.47l-.65-.25a1.43,1.43,0,0,1,.65-.72,2,2,0,0,1,1-.24,2,2,0,0,1,.64.1,1.39,1.39,0,0,1,.54.28,1.2,1.2,0,0,1,.37.46,1.41,1.41,0,0,1,.14.64,1.27,1.27,0,0,1-.27.8,1.36,1.36,0,0,1-.7.5h0a1.26,1.26,0,0,1,.48.18,1.56,1.56,0,0,1,.37.31,1.61,1.61,0,0,1,.23.43,1.7,1.7,0,0,1,.08.51,1.58,1.58,0,0,1-.15.71,1.61,1.61,0,0,1-1,.82,2.4,2.4,0,0,1-.71.11,2.25,2.25,0,0,1-1.13-.28,1.64,1.64,0,0,1-.7-.92l.68-.22a1.26,1.26,0,0,0,.41.65,1.42,1.42,0,0,0,1.18.11,1.1,1.1,0,0,0,.37-.23,1.3,1.3,0,0,0,.25-.35,1.13,1.13,0,0,0,.09-.45,1,1,0,0,0-.13-.53.92.92,0,0,0-.32-.33,1.7,1.7,0,0,0-.46-.18,2.31,2.31,0,0,0-.52-.06h-.21Z"/><path d="M154.68,205.83a7,7,0,0,1,.08-1,2.94,2.94,0,0,1,.3-1,1.9,1.9,0,0,1,.58-.7,1.79,1.79,0,0,1,1.92,0,1.9,1.9,0,0,1,.58.7,2.94,2.94,0,0,1,.3,1,7,7,0,0,1,.08,1,7.07,7.07,0,0,1-.08,1,3,3,0,0,1-.3.95,2,2,0,0,1-.58.7,1.79,1.79,0,0,1-1.92,0,2,2,0,0,1-.58-.7,3,3,0,0,1-.3-.95A7.07,7.07,0,0,1,154.68,205.83Zm.67,0c0,.14,0,.29,0,.46a4.88,4.88,0,0,0,.06.52,3.18,3.18,0,0,0,.13.51,1.65,1.65,0,0,0,.22.44,1.08,1.08,0,0,0,.34.3,1,1,0,0,0,1,0,1.08,1.08,0,0,0,.34-.3,1.65,1.65,0,0,0,.22-.44,3.18,3.18,0,0,0,.13-.51,4.88,4.88,0,0,0,.06-.52c0-.17,0-.32,0-.46s0-.29,0-.47a4.43,4.43,0,0,0-.06-.51,2.93,2.93,0,0,0-.13-.51,1.51,1.51,0,0,0-.22-.44,1.12,1.12,0,0,0-.34-.31,1.1,1.1,0,0,0-1,0,1.12,1.12,0,0,0-.34.31,1.51,1.51,0,0,0-.22.44,2.93,2.93,0,0,0-.13.51,4.43,4.43,0,0,0-.06.51C155.36,205.54,155.35,205.69,155.35,205.83Z"/><path d="M159.13,205.83a7,7,0,0,1,.08-1,3.19,3.19,0,0,1,.29-1,1.92,1.92,0,0,1,.59-.7,1.54,1.54,0,0,1,1-.28,1.49,1.49,0,0,1,.95.28,1.83,1.83,0,0,1,.59.7,3.2,3.2,0,0,1,.3,1,7,7,0,0,1,.08,1,7.07,7.07,0,0,1-.08,1,3.3,3.3,0,0,1-.3.95,1.91,1.91,0,0,1-.59.7,1.55,1.55,0,0,1-.95.28,1.61,1.61,0,0,1-1-.28,2,2,0,0,1-.59-.7,3.28,3.28,0,0,1-.29-.95A7.07,7.07,0,0,1,159.13,205.83Zm.67,0c0,.14,0,.29,0,.46a4.88,4.88,0,0,0,.06.52,4.7,4.7,0,0,0,.12.51,1.67,1.67,0,0,0,.23.44,1,1,0,0,0,.34.3.9.9,0,0,0,.48.12,1,1,0,0,0,.48-.12,1.21,1.21,0,0,0,.34-.3,1.65,1.65,0,0,0,.22-.44,3.18,3.18,0,0,0,.13-.51,4.88,4.88,0,0,0,.06-.52c0-.17,0-.32,0-.46s0-.29,0-.47a4.43,4.43,0,0,0-.06-.51,2.93,2.93,0,0,0-.13-.51,1.51,1.51,0,0,0-.22-.44,1.24,1.24,0,0,0-.34-.31,1,1,0,0,0-.48-.11.9.9,0,0,0-.48.11,1,1,0,0,0-.34.31,1.53,1.53,0,0,0-.23.44,4.21,4.21,0,0,0-.12.51,4.43,4.43,0,0,0-.06.51C159.81,205.54,159.8,205.69,159.8,205.83Z"/><circle class="cls-4" cx="149.33" cy="137.38" r="84.35"/><path d="M153.33,227.85h.81v.63h-.81v1.29h-.67v-1.29h-2.4v-.75l2.24-3.62h.83Zm-.67-3h0l-1.81,3h1.83Z"/><path d="M154.68,226.94a7.07,7.07,0,0,1,.08-1,2.94,2.94,0,0,1,.3-.95,2,2,0,0,1,.58-.7,1.79,1.79,0,0,1,1.92,0,2,2,0,0,1,.58.7,2.94,2.94,0,0,1,.3.95,6.29,6.29,0,0,1,0,2,2.94,2.94,0,0,1-.3.95,2,2,0,0,1-.58.7,1.79,1.79,0,0,1-1.92,0,2,2,0,0,1-.58-.7,2.94,2.94,0,0,1-.3-.95A7.07,7.07,0,0,1,154.68,226.94Zm.67,0c0,.14,0,.29,0,.47a4.43,4.43,0,0,0,.06.51,3.18,3.18,0,0,0,.13.51,1.65,1.65,0,0,0,.22.44,1.12,1.12,0,0,0,.34.31,1.1,1.1,0,0,0,1,0,1.12,1.12,0,0,0,.34-.31,1.65,1.65,0,0,0,.22-.44,3.18,3.18,0,0,0,.13-.51,4.43,4.43,0,0,0,.06-.51c0-.18,0-.33,0-.47s0-.29,0-.46a4.6,4.6,0,0,0-.06-.52,3.18,3.18,0,0,0-.13-.51,1.65,1.65,0,0,0-.22-.44,1.08,1.08,0,0,0-.34-.3,1,1,0,0,0-1,0,1.08,1.08,0,0,0-.34.3,1.65,1.65,0,0,0-.22.44,3.18,3.18,0,0,0-.13.51,4.6,4.6,0,0,0-.06.52C155.36,226.65,155.35,226.8,155.35,226.94Z"/><path d="M159.13,226.94a7.07,7.07,0,0,1,.08-1,3.19,3.19,0,0,1,.29-.95,2,2,0,0,1,.59-.7,1.61,1.61,0,0,1,1-.28,1.55,1.55,0,0,1,.95.28,1.91,1.91,0,0,1,.59.7,3.2,3.2,0,0,1,.3.95,6.29,6.29,0,0,1,0,2,3.2,3.2,0,0,1-.3.95,1.91,1.91,0,0,1-.59.7,1.49,1.49,0,0,1-.95.28,1.54,1.54,0,0,1-1-.28,2,2,0,0,1-.59-.7,3.19,3.19,0,0,1-.29-.95A7.07,7.07,0,0,1,159.13,226.94Zm.67,0c0,.14,0,.29,0,.47a4.43,4.43,0,0,0,.06.51,4.7,4.7,0,0,0,.12.51,1.67,1.67,0,0,0,.23.44,1,1,0,0,0,.34.31,1,1,0,0,0,.48.11,1.06,1.06,0,0,0,.48-.11,1.24,1.24,0,0,0,.34-.31,1.65,1.65,0,0,0,.22-.44,3.18,3.18,0,0,0,.13-.51,4.43,4.43,0,0,0,.06-.51c0-.18,0-.33,0-.47s0-.29,0-.46a4.6,4.6,0,0,0-.06-.52,3.18,3.18,0,0,0-.13-.51,1.65,1.65,0,0,0-.22-.44,1.21,1.21,0,0,0-.34-.3,1,1,0,0,0-.48-.12.9.9,0,0,0-.48.12,1,1,0,0,0-.34.3,1.67,1.67,0,0,0-.23.44,4.7,4.7,0,0,0-.12.51,4.6,4.6,0,0,0-.06.52C159.81,226.65,159.8,226.8,159.8,226.94Z"/><line class="cls-4" x1="54.39" y1="137.43" x2="244.31" y2="137.43"/><line class="cls-4" x1="149.33" y1="232.36" x2="149.33" y2="42.44"/><line class="cls-4" x1="94.57" y1="42.44" x2="204.14" y2="232.36"/><line class="cls-4" x1="94.57" y1="232.36" x2="204.14" y2="42.44"/><line class="cls-4" x1="54.39" y1="82.62" x2="244.31" y2="192.19"/><line class="cls-4" x1="54.39" y1="192.19" x2="244.31" y2="82.62"/><line class="cls-1" x1="149.33" y1="229.07" x2="150.95" y2="229.01"/><line class="cls-1" x1="150.95" y1="229.01" x2="152.51" y2="228.91"/><line class="cls-1" x1="152.51" y1="228.91" x2="154.13" y2="228.8"/><line class="cls-1" x1="154.13" y1="228.8" x2="155.7" y2="228.58"/><line class="cls-1" x1="155.7" y1="228.58" x2="157.26" y2="228.31"/><line class="cls-1" x1="157.26" y1="228.31" x2="158.83" y2="228.04"/><line class="cls-1" x1="158.83" y1="228.04" x2="160.4" y2="227.72"/><line class="cls-1" x1="160.4" y1="227.72" x2="161.96" y2="227.34"/><line class="cls-1" x1="161.96" y1="227.34" x2="163.53" y2="226.91"/><line class="cls-1" x1="163.53" y1="226.91" x2="165.04" y2="226.48"/><line class="cls-1" x1="165.04" y1="226.48" x2="166.55" y2="225.94"/><line class="cls-1" x1="166.55" y1="225.94" x2="168.01" y2="225.34"/><line class="cls-1" x1="168.01" y1="225.34" x2="169.47" y2="224.75"/><line class="cls-1" x1="169.47" y1="224.75" x2="170.93" y2="224.05"/><line class="cls-1" x1="170.93" y1="224.05" x2="172.33" y2="223.29"/><line class="cls-1" x1="172.33" y1="223.29" x2="173.73" y2="222.43"/><line class="cls-1" x1="173.73" y1="222.43" x2="175.03" y2="221.51"/><line class="cls-1" x1="175.03" y1="221.51" x2="176.33" y2="220.48"/><line class="cls-1" x1="176.33" y1="220.48" x2="177.57" y2="219.4"/><line class="cls-1" x1="177.57" y1="219.4" x2="178.76" y2="218.21"/><line class="cls-1" x1="178.76" y1="218.21" x2="179.89" y2="217.03"/><line class="cls-1" x1="179.89" y1="217.03" x2="181.02" y2="215.78"/><line class="cls-1" x1="181.02" y1="215.78" x2="182.05" y2="214.49"/><line class="cls-1" x1="182.05" y1="214.49" x2="183.08" y2="213.14"/><line class="cls-1" x1="183.08" y1="213.14" x2="183.99" y2="211.73"/><line class="cls-1" x1="183.99" y1="211.73" x2="184.91" y2="210.33"/><line class="cls-1" x1="184.91" y1="210.33" x2="185.72" y2="208.82"/><line class="cls-1" x1="185.72" y1="208.82" x2="186.53" y2="207.31"/><line class="cls-1" x1="186.53" y1="207.31" x2="187.23" y2="205.74"/><line class="cls-1" x1="187.23" y1="205.74" x2="187.83" y2="204.12"/><line class="cls-1" x1="187.83" y1="204.12" x2="188.37" y2="202.39"/><line class="cls-1" x1="188.37" y1="202.39" x2="188.85" y2="200.66"/><line class="cls-1" x1="188.85" y1="200.66" x2="189.23" y2="198.83"/><line class="cls-1" x1="189.23" y1="198.83" x2="189.5" y2="196.94"/><line class="cls-1" x1="189.5" y1="196.94" x2="189.66" y2="194.99"/><line class="cls-1" x1="189.66" y1="194.99" x2="189.72" y2="193"/><line class="cls-1" x1="189.72" y1="193" x2="189.66" y2="190.94"/><line class="cls-1" x1="189.66" y1="190.94" x2="189.5" y2="188.84"/><line class="cls-1" x1="189.5" y1="188.84" x2="189.29" y2="186.68"/><line class="cls-1" x1="189.29" y1="186.68" x2="188.91" y2="184.57"/><line class="cls-1" x1="188.91" y1="184.57" x2="188.48" y2="182.41"/><line class="cls-1" x1="188.48" y1="182.41" x2="187.94" y2="180.25"/><line class="cls-1" x1="187.94" y1="180.25" x2="187.34" y2="178.15"/><line class="cls-1" x1="187.34" y1="178.15" x2="186.64" y2="176.04"/><line class="cls-1" x1="186.64" y1="176.04" x2="185.94" y2="173.99"/><line class="cls-1" x1="185.94" y1="173.99" x2="185.24" y2="172.04"/><line class="cls-1" x1="185.24" y1="172.04" x2="184.48" y2="170.15"/><line class="cls-1" x1="184.48" y1="170.15" x2="183.67" y2="168.32"/><line class="cls-1" x1="183.67" y1="168.32" x2="182.91" y2="166.54"/><line class="cls-1" x1="182.91" y1="166.54" x2="182.11" y2="164.86"/><line class="cls-1" x1="182.11" y1="164.86" x2="181.29" y2="163.24"/><line class="cls-1" x1="181.29" y1="163.24" x2="180.38" y2="161.62"/><line class="cls-1" x1="180.38" y1="161.62" x2="179.3" y2="159.95"/><line class="cls-1" x1="179.3" y1="159.95" x2="178.06" y2="158.22"/><line class="cls-1" x1="178.06" y1="158.22" x2="176.27" y2="156.28"/><line class="cls-1" x1="176.27" y1="156.28" x2="174.01" y2="154.01"/><line class="cls-1" x1="174.01" y1="154.01" x2="170.98" y2="151.47"/><line class="cls-1" x1="170.98" y1="151.47" x2="167.26" y2="148.55"/><line class="cls-1" x1="167.26" y1="148.55" x2="163.15" y2="145.69"/><line class="cls-1" x1="163.15" y1="145.69" x2="160.23" y2="143.69"/><line class="cls-1" x1="160.23" y1="143.69" x2="158.02" y2="142.18"/><line class="cls-1" x1="158.02" y1="142.18" x2="156.56" y2="141.26"/><line class="cls-1" x1="156.56" y1="141.26" x2="155.64" y2="140.62"/><line class="cls-1" x1="155.64" y1="140.62" x2="155" y2="140.13"/><line class="cls-1" x1="155" y1="140.13" x2="154.51" y2="139.81"/><line class="cls-1" x1="154.51" y1="139.81" x2="154.02" y2="139.48"/><line class="cls-1" x1="154.02" y1="139.48" x2="153.65" y2="139.21"/><line class="cls-1" x1="153.65" y1="139.21" x2="153.21" y2="138.94"/><line class="cls-1" x1="153.21" y1="138.94" x2="152.78" y2="138.73"/><line class="cls-1" x1="152.78" y1="138.73" x2="152.35" y2="138.46"/><line class="cls-1" x1="152.35" y1="138.46" x2="151.92" y2="138.24"/><line class="cls-1" x1="151.92" y1="138.24" x2="151.49" y2="138.08"/><line class="cls-1" x1="151.49" y1="138.08" x2="151.06" y2="137.92"/><line class="cls-1" x1="151.06" y1="137.92" x2="150.84" y2="137.81"/><line class="cls-1" x1="150.84" y1="137.81" x2="150.73" y2="137.75"/><line class="cls-1" x1="150.73" y1="137.75" x2="150.68" y2="137.7"/><line class="cls-1" x1="150.68" y1="137.7" x2="150.57" y2="137.65"/><line class="cls-1" x1="150.57" y1="137.65" x2="150.46" y2="137.65"/><line class="cls-1" x1="150.46" y1="137.65" x2="150.41" y2="137.59"/><line class="cls-1" x1="150.41" y1="137.59" x2="150.3" y2="137.54"/><line class="cls-1" x1="150.3" y1="137.54" x2="150.19" y2="137.48"/><line class="cls-1" x1="150.19" y1="137.48" x2="150.08" y2="137.48"/><line class="cls-1" x1="150.08" y1="137.48" x2="149.97" y2="137.43"/><line class="cls-1" x1="149.97" y1="137.43" x2="149.87" y2="137.43"/><line class="cls-1" x1="149.87" y1="137.43" x2="149.81" y2="137.43"/><line class="cls-1" x1="149.81" y1="137.43" x2="149.71" y2="137.43"/><line class="cls-1" x1="149.71" y1="137.43" x2="149.65" y2="137.43"/><line class="cls-1" x1="149.65" y1="137.43" x2="149.6" y2="137.43"/><line class="cls-1" x1="149.6" y1="137.43" x2="149.49" y2="137.43"/><line class="cls-1" x1="149.49" y1="137.43" x2="149.49" y2="137.43"/><line class="cls-1" x1="149.49" y1="137.43" x2="149.33" y2="137.43"/><line class="cls-1" x1="149.33" y1="137.43" x2="149.33" y2="137.43"/><line class="cls-1" x1="149.33" y1="137.43" x2="149.33" y2="137.43"/><line class="cls-1" x1="149.33" y1="137.43" x2="149.33" y2="137.43"/><line class="cls-1" x1="149.33" y1="137.43" x2="149.33" y2="137.43"/><line class="cls-1" x1="149.33" y1="137.43" x2="149.33" y2="137.43"/><line class="cls-1" x1="149.33" y1="137.43" x2="149.33" y2="137.43"/><line class="cls-1" x1="149.33" y1="137.43" x2="149.33" y2="137.43"/><line class="cls-1" x1="149.33" y1="137.43" x2="149.33" y2="137.43"/><line class="cls-1" x1="149.33" y1="137.43" x2="149.33" y2="137.43"/><line class="cls-1" x1="149.33" y1="137.43" x2="149.33" y2="137.43"/><line class="cls-1" x1="149.33" y1="137.43" x2="149.33" y2="137.43"/><line class="cls-1" x1="149.33" y1="137.43" x2="149.33" y2="137.43"/><line class="cls-1" x1="149.33" y1="137.43" x2="149.33" y2="137.43"/><line class="cls-1" x1="149.33" y1="137.43" x2="149.33" y2="137.43"/><line class="cls-1" x1="149.33" y1="137.43" x2="149.33" y2="137.43"/><line class="cls-1" x1="149.33" y1="137.43" x2="149.33" y2="137.43"/><line class="cls-1" x1="149.33" y1="137.43" x2="149.33" y2="137.43"/><line class="cls-1" x1="149.33" y1="137.43" x2="149.33" y2="137.43"/><line class="cls-1" x1="149.33" y1="137.43" x2="149.33" y2="137.43"/><line class="cls-1" x1="149.33" y1="137.43" x2="149.33" y2="137.43"/><line class="cls-1" x1="149.33" y1="137.43" x2="149.33" y2="137.43"/><line class="cls-1" x1="149.33" y1="137.43" x2="149.33" y2="137.43"/><line class="cls-1" x1="149.33" y1="137.43" x2="149.33" y2="137.43"/><line class="cls-1" x1="149.33" y1="137.43" x2="149.33" y2="137.43"/><line class="cls-1" x1="149.33" y1="137.43" x2="149.33" y2="137.43"/><line class="cls-1" x1="149.33" y1="137.43" x2="149.33" y2="137.43"/><line class="cls-1" x1="149.33" y1="137.43" x2="149.33" y2="137.43"/><line class="cls-1" x1="149.33" y1="137.43" x2="149.33" y2="137.43"/><line class="cls-1" x1="149.33" y1="137.43" x2="149.33" y2="137.43"/><line class="cls-1" x1="149.33" y1="137.43" x2="149.33" y2="137.43"/><line class="cls-1" x1="149.33" y1="137.43" x2="149.33" y2="137.43"/><line class="cls-1" x1="149.33" y1="137.43" x2="149.33" y2="137.43"/><line class="cls-1" x1="149.33" y1="137.43" x2="149.33" y2="137.43"/><line class="cls-1" x1="149.33" y1="137.43" x2="149.33" y2="137.43"/><line class="cls-1" x1="149.33" y1="137.43" x2="149.33" y2="137.43"/><line class="cls-1" x1="149.33" y1="137.43" x2="149.33" y2="137.43"/><line class="cls-1" x1="149.33" y1="137.43" x2="149.33" y2="137.43"/><line class="cls-1" x1="149.33" y1="137.43" x2="149.33" y2="137.43"/><line class="cls-1" x1="149.33" y1="137.43" x2="149.33" y2="137.43"/><line class="cls-1" x1="149.33" y1="137.43" x2="149.33" y2="137.43"/><line class="cls-1" x1="149.33" y1="137.43" x2="149.33" y2="137.43"/><line class="cls-1" x1="149.33" y1="137.43" x2="149.33" y2="137.43"/><line class="cls-1" x1="149.33" y1="137.43" x2="149.33" y2="137.43"/><line class="cls-1" x1="149.33" y1="137.43" x2="149.33" y2="137.43"/><line class="cls-1" x1="149.33" y1="137.43" x2="149.33" y2="137.43"/><line class="cls-1" x1="149.33" y1="137.43" x2="149.33" y2="137.43"/><line class="cls-1" x1="149.33" y1="137.43" x2="149.33" y2="137.43"/><line class="cls-1" x1="149.33" y1="137.43" x2="149.33" y2="137.43"/><line class="cls-1" x1="149.33" y1="137.43" x2="149.33" y2="137.43"/><line class="cls-1" x1="149.33" y1="137.43" x2="149.33" y2="137.43"/><line class="cls-1" x1="149.33" y1="137.43" x2="149.33" y2="137.43"/><line class="cls-1" x1="149.33" y1="137.43" x2="149.33" y2="137.43"/><line class="cls-1" x1="149.33" y1="137.43" x2="149.33" y2="137.43"/><line class="cls-1" x1="149.33" y1="137.43" x2="149.33" y2="137.43"/><line class="cls-1" x1="149.33" y1="137.43" x2="149.33" y2="137.43"/><line class="cls-1" x1="149.33" y1="137.43" x2="149.33" y2="137.43"/><line class="cls-1" x1="149.33" y1="137.43" x2="149.33" y2="137.43"/><line class="cls-1" x1="149.33" y1="137.43" x2="149.33" y2="137.43"/><line class="cls-1" x1="149.33" y1="137.43" x2="149.33" y2="137.43"/><line class="cls-1" x1="149.33" y1="137.43" x2="149.33" y2="137.43"/><line class="cls-1" x1="149.33" y1="137.43" x2="149.33" y2="137.43"/><line class="cls-1" x1="149.33" y1="137.43" x2="149.33" y2="137.43"/><line class="cls-1" x1="149.33" y1="137.43" x2="149.33" y2="137.43"/><line class="cls-1" x1="149.33" y1="137.43" x2="149.33" y2="137.43"/><line class="cls-1" x1="149.33" y1="137.43" x2="149.33" y2="137.43"/><line class="cls-1" x1="149.33" y1="137.43" x2="149.33" y2="137.43"/><line class="cls-1" x1="149.33" y1="137.43" x2="149.33" y2="137.43"/><line class="cls-1" x1="149.33" y1="137.43" x2="149.33" y2="137.43"/><line class="cls-1" x1="149.33" y1="137.43" x2="149.33" y2="137.43"/><line class="cls-1" x1="149.33" y1="137.43" x2="149.33" y2="137.43"/><line class="cls-1" x1="149.33" y1="137.43" x2="149.33" y2="137.43"/><line class="cls-1" x1="149.33" y1="137.43" x2="149.33" y2="137.43"/><line class="cls-1" x1="149.33" y1="137.43" x2="149.33" y2="137.43"/><line class="cls-1" x1="149.33" y1="137.43" x2="149.33" y2="137.43"/><line class="cls-1" x1="149.33" y1="137.43" x2="149.33" y2="137.43"/><line class="cls-1" x1="149.33" y1="137.43" x2="149.33" y2="137.43"/><line class="cls-1" x1="149.33" y1="137.43" x2="149.33" y2="137.43"/><line class="cls-1" x1="149.33" y1="137.43" x2="149.33" y2="137.43"/><line class="cls-1" x1="149.33" y1="137.43" x2="149.33" y2="137.43"/><line class="cls-1" x1="149.33" y1="137.43" x2="149.33" y2="137.43"/><line class="cls-1" x1="149.33" y1="137.43" x2="149.33" y2="137.43"/><line class="cls-1" x1="149.33" y1="137.43" x2="149.33" y2="137.43"/><line class="cls-1" x1="149.33" y1="137.43" x2="149.33" y2="137.43"/><line class="cls-1" x1="149.33" y1="137.43" x2="149.33" y2="137.43"/><line class="cls-1" x1="149.33" y1="137.43" x2="149.33" y2="137.43"/><line class="cls-1" x1="149.33" y1="137.43" x2="149.33" y2="137.43"/><line class="cls-1" x1="149.33" y1="137.43" x2="149.33" y2="137.43"/><line class="cls-1" x1="149.33" y1="137.43" x2="149.33" y2="137.43"/><line class="cls-1" x1="149.33" y1="137.43" x2="149.33" y2="137.43"/><line class="cls-1" x1="149.33" y1="229.07" x2="147.76" y2="229.01"/><line class="cls-1" x1="147.76" y1="229.01" x2="146.19" y2="228.91"/><line class="cls-1" x1="146.19" y1="228.91" x2="144.57" y2="228.8"/><line class="cls-1" x1="144.57" y1="228.8" x2="143.01" y2="228.58"/><line class="cls-1" x1="143.01" y1="228.58" x2="141.44" y2="228.31"/><line class="cls-1" x1="141.44" y1="228.31" x2="139.88" y2="228.04"/><line class="cls-1" x1="139.88" y1="228.04" x2="138.31" y2="227.72"/><line class="cls-1" x1="138.31" y1="227.72" x2="136.74" y2="227.34"/><line class="cls-1" x1="136.74" y1="227.34" x2="135.18" y2="226.91"/><line class="cls-1" x1="135.18" y1="226.91" x2="133.67" y2="226.48"/><line class="cls-1" x1="133.67" y1="226.48" x2="132.16" y2="225.94"/><line class="cls-1" x1="132.16" y1="225.94" x2="130.7" y2="225.34"/><line class="cls-1" x1="130.7" y1="225.34" x2="129.24" y2="224.75"/><line class="cls-1" x1="129.24" y1="224.75" x2="127.78" y2="224.05"/><line class="cls-1" x1="127.78" y1="224.05" x2="126.38" y2="223.29"/><line class="cls-1" x1="126.38" y1="223.29" x2="124.97" y2="222.43"/><line class="cls-1" x1="124.97" y1="222.43" x2="123.68" y2="221.51"/><line class="cls-1" x1="123.68" y1="221.51" x2="122.38" y2="220.48"/><line class="cls-1" x1="122.38" y1="220.48" x2="121.14" y2="219.4"/><line class="cls-1" x1="121.14" y1="219.4" x2="119.95" y2="218.21"/><line class="cls-1" x1="119.95" y1="218.21" x2="118.82" y2="217.03"/><line class="cls-1" x1="118.82" y1="217.03" x2="117.68" y2="215.78"/><line class="cls-1" x1="117.68" y1="215.78" x2="116.66" y2="214.49"/><line class="cls-1" x1="116.66" y1="214.49" x2="115.63" y2="213.14"/><line class="cls-1" x1="115.63" y1="213.14" x2="114.71" y2="211.73"/><line class="cls-1" x1="114.71" y1="211.73" x2="113.79" y2="210.33"/><line class="cls-1" x1="113.79" y1="210.33" x2="112.98" y2="208.82"/><line class="cls-1" x1="112.98" y1="208.82" x2="112.17" y2="207.31"/><line class="cls-1" x1="112.17" y1="207.31" x2="111.47" y2="205.74"/><line class="cls-1" x1="111.47" y1="205.74" x2="110.88" y2="204.12"/><line class="cls-1" x1="110.88" y1="204.12" x2="110.34" y2="202.39"/><line class="cls-1" x1="110.34" y1="202.39" x2="109.85" y2="200.66"/><line class="cls-1" x1="109.85" y1="200.66" x2="109.47" y2="198.83"/><line class="cls-1" x1="109.47" y1="198.83" x2="109.21" y2="196.94"/><line class="cls-1" x1="109.21" y1="196.94" x2="109.04" y2="194.99"/><line class="cls-1" x1="109.04" y1="194.99" x2="108.99" y2="193"/><line class="cls-1" x1="108.99" y1="193" x2="109.04" y2="190.94"/><line class="cls-1" x1="109.04" y1="190.94" x2="109.21" y2="188.84"/><line class="cls-1" x1="109.21" y1="188.84" x2="109.42" y2="186.68"/><line class="cls-1" x1="109.42" y1="186.68" x2="109.8" y2="184.57"/><line class="cls-1" x1="109.8" y1="184.57" x2="110.23" y2="182.41"/><line class="cls-1" x1="110.23" y1="182.41" x2="110.77" y2="180.25"/><line class="cls-1" x1="110.77" y1="180.25" x2="111.37" y2="178.15"/><line class="cls-1" x1="111.37" y1="178.15" x2="112.07" y2="176.04"/><line class="cls-1" x1="112.07" y1="176.04" x2="112.77" y2="173.99"/><line class="cls-1" x1="112.77" y1="173.99" x2="113.47" y2="172.04"/><line class="cls-1" x1="113.47" y1="172.04" x2="114.23" y2="170.15"/><line class="cls-1" x1="114.23" y1="170.15" x2="115.04" y2="168.32"/><line class="cls-1" x1="115.04" y1="168.32" x2="115.79" y2="166.54"/><line class="cls-1" x1="115.79" y1="166.54" x2="116.6" y2="164.86"/><line class="cls-1" x1="116.6" y1="164.86" x2="117.41" y2="163.24"/><line class="cls-1" x1="117.41" y1="163.24" x2="118.33" y2="161.62"/><line class="cls-1" x1="118.33" y1="161.62" x2="119.41" y2="159.95"/><line class="cls-1" x1="119.41" y1="159.95" x2="120.65" y2="158.22"/><line class="cls-1" x1="120.65" y1="158.22" x2="122.43" y2="156.28"/><line class="cls-1" x1="122.43" y1="156.28" x2="124.7" y2="154.01"/><line class="cls-1" x1="124.7" y1="154.01" x2="127.73" y2="151.47"/><line class="cls-1" x1="127.73" y1="151.47" x2="131.45" y2="148.55"/><line class="cls-1" x1="131.45" y1="148.55" x2="135.56" y2="145.69"/><line class="cls-1" x1="135.56" y1="145.69" x2="138.47" y2="143.69"/><line class="cls-1" x1="138.47" y1="143.69" x2="140.69" y2="142.18"/><line class="cls-1" x1="140.69" y1="142.18" x2="142.14" y2="141.26"/><line class="cls-1" x1="142.14" y1="141.26" x2="143.06" y2="140.62"/><line class="cls-1" x1="143.06" y1="140.62" x2="143.71" y2="140.13"/><line class="cls-1" x1="143.71" y1="140.13" x2="144.2" y2="139.81"/><line class="cls-1" x1="144.2" y1="139.81" x2="144.68" y2="139.48"/><line class="cls-1" x1="144.68" y1="139.48" x2="145.06" y2="139.21"/><line class="cls-1" x1="145.06" y1="139.21" x2="145.49" y2="138.94"/><line class="cls-1" x1="145.49" y1="138.94" x2="145.92" y2="138.73"/><line class="cls-1" x1="145.92" y1="138.73" x2="146.36" y2="138.46"/><line class="cls-1" x1="146.36" y1="138.46" x2="146.79" y2="138.24"/><line class="cls-1" x1="146.79" y1="138.24" x2="147.22" y2="138.08"/><line class="cls-1" x1="147.22" y1="138.08" x2="147.65" y2="137.92"/><line class="cls-1" x1="147.65" y1="137.92" x2="147.87" y2="137.81"/><line class="cls-1" x1="147.87" y1="137.81" x2="147.98" y2="137.75"/><line class="cls-1" x1="147.98" y1="137.75" x2="148.03" y2="137.7"/><line class="cls-1" x1="148.03" y1="137.7" x2="148.14" y2="137.65"/><line class="cls-1" x1="148.14" y1="137.65" x2="148.25" y2="137.65"/><line class="cls-1" x1="148.25" y1="137.65" x2="148.3" y2="137.59"/><line class="cls-1" x1="148.3" y1="137.59" x2="148.41" y2="137.54"/><line class="cls-1" x1="148.41" y1="137.54" x2="148.52" y2="137.48"/><line class="cls-1" x1="148.52" y1="137.48" x2="148.62" y2="137.48"/><line class="cls-1" x1="148.62" y1="137.48" x2="148.73" y2="137.43"/><line class="cls-1" x1="148.73" y1="137.43" x2="148.84" y2="137.43"/><line class="cls-1" x1="148.84" y1="137.43" x2="148.89" y2="137.43"/><line class="cls-1" x1="148.89" y1="137.43" x2="149" y2="137.43"/><line class="cls-1" x1="149" y1="137.43" x2="149.06" y2="137.43"/><line class="cls-1" x1="149.06" y1="137.43" x2="149.11" y2="137.43"/><line class="cls-1" x1="149.11" y1="137.43" x2="149.22" y2="137.43"/><line class="cls-1" x1="149.22" y1="137.43" x2="149.22" y2="137.43"/><line class="cls-1" x1="149.22" y1="137.43" x2="149.33" y2="137.43"/><line class="cls-1" x1="149.33" y1="137.43" x2="149.33" y2="137.43"/><line class="cls-1" x1="149.33" y1="137.43" x2="149.33" y2="137.43"/><line class="cls-1" x1="149.33" y1="137.43" x2="149.33" y2="137.43"/><line class="cls-1" x1="149.33" y1="137.43" x2="149.33" y2="137.43"/><line class="cls-1" x1="149.33" y1="137.43" x2="149.33" y2="137.43"/><line class="cls-1" x1="149.33" y1="137.43" x2="149.33" y2="137.43"/><line class="cls-1" x1="149.33" y1="137.43" x2="149.33" y2="137.43"/><line class="cls-1" x1="149.33" y1="137.43" x2="149.33" y2="137.43"/><line class="cls-1" x1="149.33" y1="137.43" x2="149.33" y2="137.43"/><line class="cls-1" x1="149.33" y1="137.43" x2="149.33" y2="137.43"/><line class="cls-1" x1="149.33" y1="137.43" x2="149.33" y2="137.43"/><line class="cls-1" x1="149.33" y1="137.43" x2="149.33" y2="137.43"/><line class="cls-1" x1="149.33" y1="137.43" x2="149.33" y2="137.43"/><line class="cls-1" x1="149.33" y1="137.43" x2="149.33" y2="137.43"/><line class="cls-1" x1="149.33" y1="137.43" x2="149.33" y2="137.43"/><line class="cls-1" x1="149.33" y1="137.43" x2="149.33" y2="137.43"/><line class="cls-1" x1="149.33" y1="137.43" x2="149.33" y2="137.43"/><line class="cls-1" x1="149.33" y1="137.43" x2="149.33" y2="137.43"/><line class="cls-1" x1="149.33" y1="137.43" x2="149.33" y2="137.43"/><line class="cls-1" x1="149.33" y1="137.43" x2="149.33" y2="137.43"/><line class="cls-1" x1="149.33" y1="137.43" x2="149.33" y2="137.43"/><line class="cls-1" x1="149.33" y1="137.43" x2="149.33" y2="137.43"/><line class="cls-1" x1="149.33" y1="137.43" x2="149.33" y2="137.43"/><line class="cls-1" x1="149.33" y1="137.43" x2="149.33" y2="137.43"/><line class="cls-1" x1="149.33" y1="137.43" x2="149.33" y2="137.43"/><line class="cls-1" x1="149.33" y1="137.43" x2="149.33" y2="137.43"/><line class="cls-1" x1="149.33" y1="137.43" x2="149.33" y2="137.43"/><line class="cls-1" x1="149.33" y1="137.43" x2="149.33" y2="137.43"/><line class="cls-1" x1="149.33" y1="137.43" x2="149.33" y2="137.43"/><line class="cls-1" x1="149.33" y1="137.43" x2="149.33" y2="137.43"/><line class="cls-1" x1="149.33" y1="137.43" x2="149.33" y2="137.43"/><line class="cls-1" x1="149.33" y1="137.43" x2="149.33" y2="137.43"/><line class="cls-1" x1="149.33" y1="137.43" x2="149.33" y2="137.43"/><line class="cls-1" x1="149.33" y1="137.43" x2="149.33" y2="137.43"/><line class="cls-1" x1="149.33" y1="137.43" x2="149.33" y2="137.43"/><line class="cls-1" x1="149.33" y1="137.43" x2="149.33" y2="137.43"/><line class="cls-1" x1="149.33" y1="137.43" x2="149.33" y2="137.43"/><line class="cls-1" x1="149.33" y1="137.43" x2="149.33" y2="137.43"/><line class="cls-1" x1="149.33" y1="137.43" x2="149.33" y2="137.43"/><line class="cls-1" x1="149.33" y1="137.43" x2="149.33" y2="137.43"/><line class="cls-1" x1="149.33" y1="137.43" x2="149.33" y2="137.43"/><line class="cls-1" x1="149.33" y1="137.43" x2="149.33" y2="137.43"/><line class="cls-1" x1="149.33" y1="137.43" x2="149.33" y2="137.43"/><line class="cls-1" x1="149.33" y1="137.43" x2="149.33" y2="137.43"/><line class="cls-1" x1="149.33" y1="137.43" x2="149.33" y2="137.43"/><line class="cls-1" x1="149.33" y1="137.43" x2="149.33" y2="137.43"/><line class="cls-1" x1="149.33" y1="137.43" x2="149.33" y2="137.43"/><line class="cls-1" x1="149.33" y1="137.43" x2="149.33" y2="137.43"/><line class="cls-1" x1="149.33" y1="137.43" x2="149.33" y2="137.43"/><line class="cls-1" x1="149.33" y1="137.43" x2="149.33" y2="137.43"/><line class="cls-1" x1="149.33" y1="137.43" x2="149.33" y2="137.43"/><line class="cls-1" x1="149.33" y1="137.43" x2="149.33" y2="137.43"/><line class="cls-1" x1="149.33" y1="137.43" x2="149.33" y2="137.43"/><line class="cls-1" x1="149.33" y1="137.43" x2="149.33" y2="137.43"/><line class="cls-1" x1="149.33" y1="137.43" x2="149.33" y2="137.43"/><line class="cls-1" x1="149.33" y1="137.43" x2="149.33" y2="137.43"/><line class="cls-1" x1="149.33" y1="137.43" x2="149.33" y2="137.43"/><line class="cls-1" x1="149.33" y1="137.43" x2="149.33" y2="137.43"/><line class="cls-1" x1="149.33" y1="137.43" x2="149.33" y2="137.43"/><line class="cls-1" x1="149.33" y1="137.43" x2="149.33" y2="137.43"/><line class="cls-1" x1="149.33" y1="137.43" x2="149.33" y2="137.43"/><line class="cls-1" x1="149.33" y1="137.43" x2="149.33" y2="137.43"/><line class="cls-1" x1="149.33" y1="137.43" x2="149.33" y2="137.43"/><line class="cls-1" x1="149.33" y1="137.43" x2="149.33" y2="137.43"/><line class="cls-1" x1="149.33" y1="137.43" x2="149.33" y2="137.43"/><line class="cls-1" x1="149.33" y1="137.43" x2="149.33" y2="137.43"/><line class="cls-1" x1="149.33" y1="137.43" x2="149.33" y2="137.43"/><line class="cls-1" x1="149.33" y1="137.43" x2="149.33" y2="137.43"/><line class="cls-1" x1="149.33" y1="137.43" x2="149.33" y2="137.43"/><line class="cls-1" x1="149.33" y1="137.43" x2="149.33" y2="137.43"/><line class="cls-1" x1="149.33" y1="137.43" x2="149.33" y2="137.43"/><line class="cls-1" x1="149.33" y1="137.43" x2="149.33" y2="137.43"/><line class="cls-1" x1="149.33" y1="137.43" x2="149.33" y2="137.43"/><line class="cls-1" x1="149.33" y1="137.43" x2="149.33" y2="137.43"/><line class="cls-1" x1="149.33" y1="137.43" x2="149.33" y2="137.43"/><line class="cls-1" x1="149.33" y1="137.43" x2="149.33" y2="137.43"/><line class="cls-1" x1="149.33" y1="137.43" x2="149.33" y2="137.43"/><line class="cls-1" x1="149.33" y1="137.43" x2="149.33" y2="137.43"/><line class="cls-1" x1="149.33" y1="137.43" x2="149.33" y2="137.43"/><line class="cls-1" x1="149.33" y1="137.43" x2="149.33" y2="137.43"/><line class="cls-1" x1="149.33" y1="137.43" x2="149.33" y2="137.43"/><line class="cls-1" x1="149.33" y1="137.43" x2="149.33" y2="137.43"/><line class="cls-1" x1="149.33" y1="137.43" x2="149.33" y2="137.43"/><line class="cls-1" x1="149.33" y1="137.43" x2="149.33" y2="137.43"/><line class="cls-1" x1="149.33" y1="137.43" x2="149.33" y2="137.43"/><line class="cls-1" x1="149.33" y1="137.43" x2="149.33" y2="137.43"/><line class="cls-1" x1="149.33" y1="137.43" x2="149.33" y2="137.43"/><line class="cls-1" x1="149.33" y1="137.43" x2="149.33" y2="137.43"/><line class="cls-1" x1="149.33" y1="137.43" x2="149.33" y2="137.43"/><line class="cls-1" x1="149.33" y1="229.07" x2="149.6" y2="229.07"/><line class="cls-1" x1="150.89" y1="229.01" x2="150.95" y2="229.01"/><line class="cls-1" x1="150.95" y1="229.01" x2="151.16" y2="229.01"/><line class="cls-1" x1="152.46" y1="228.91" x2="152.51" y2="228.91"/><line class="cls-1" x1="152.51" y1="228.91" x2="152.73" y2="228.91"/><line class="cls-1" x1="154.02" y1="228.74" x2="154.13" y2="228.74"/><line class="cls-1" x1="154.13" y1="228.74" x2="154.29" y2="228.74"/><line class="cls-1" x1="155.54" y1="228.53" x2="155.7" y2="228.53"/><line class="cls-1" x1="155.7" y1="228.53" x2="155.81" y2="228.53"/><line class="cls-1" x1="157.05" y1="228.31" x2="157.26" y2="228.26"/><line class="cls-1" x1="158.51" y1="227.99" x2="158.72" y2="227.93"/><line class="cls-1" x1="159.96" y1="227.61" x2="160.18" y2="227.56"/><line class="cls-1" x1="161.42" y1="227.23" x2="161.64" y2="227.12"/><line class="cls-1" x1="162.88" y1="226.75" x2="163.1" y2="226.64"/><line class="cls-1" x1="164.28" y1="226.21" x2="164.5" y2="226.1"/><line class="cls-1" x1="165.69" y1="225.61" x2="165.91" y2="225.5"/><line class="cls-1" x1="167.04" y1="224.96" x2="167.26" y2="224.86"/><line class="cls-1" x1="168.39" y1="224.32" x2="168.61" y2="224.21"/><line class="cls-1" x1="169.74" y1="223.56" x2="169.96" y2="223.45"/><line class="cls-1" x1="171.03" y1="222.8" x2="171.25" y2="222.64"/><line class="cls-1" x1="172.33" y1="221.94" x2="172.55" y2="221.78"/><line class="cls-1" x1="173.57" y1="221.02" x2="173.73" y2="220.86"/><line class="cls-1" x1="174.76" y1="220.05" x2="174.98" y2="219.89"/><line class="cls-1" x1="175.95" y1="219.02" x2="176.11" y2="218.86"/><line class="cls-1" x1="177.08" y1="217.94" x2="177.08" y2="217.94"/><line class="cls-1" x1="177.08" y1="217.94" x2="177.24" y2="217.78"/><line class="cls-1" x1="178.11" y1="216.81" x2="178.22" y2="216.7"/><line class="cls-1" x1="178.22" y1="216.7" x2="178.27" y2="216.65"/><line class="cls-1" x1="179.13" y1="215.62" x2="179.3" y2="215.41"/><line class="cls-1" x1="180.11" y1="214.38" x2="180.27" y2="214.16"/><line class="cls-1" x1="181.02" y1="213.08" x2="181.19" y2="212.87"/><line class="cls-1" x1="181.89" y1="211.79" x2="182.05" y2="211.57"/><line class="cls-1" x1="182.7" y1="210.49" x2="182.81" y2="210.28"/><line class="cls-1" x1="183.4" y1="209.14" x2="183.56" y2="208.93"/><line class="cls-1" x1="184.1" y1="207.79" x2="184.21" y2="207.58"/><line class="cls-1" x1="184.75" y1="206.44" x2="184.81" y2="206.23"/><line class="cls-1" x1="185.29" y1="205.09" x2="185.29" y2="205.04"/><line class="cls-1" x1="185.29" y1="205.04" x2="185.34" y2="204.88"/><line class="cls-1" x1="185.83" y1="203.69" x2="185.94" y2="203.47"/><line class="cls-1" x1="186.26" y1="202.23" x2="186.32" y2="202.01"/><line class="cls-1" x1="186.64" y1="200.77" x2="186.69" y2="200.56"/><line class="cls-1" x1="186.96" y1="199.31" x2="187.02" y2="199.1"/><line class="cls-1" x1="187.23" y1="197.86" x2="187.29" y2="197.64"/><line class="cls-1" x1="187.51" y1="196.34" x2="187.51" y2="196.18"/><line class="cls-1" x1="187.51" y1="196.18" x2="187.51" y2="196.07"/><line class="cls-1" x1="187.67" y1="194.78" x2="187.67" y2="194.51"/><line class="cls-1" x1="187.77" y1="193.21" x2="187.77" y2="192.94"/><line class="cls-1" x1="187.77" y1="191.59" x2="187.77" y2="191.32"/><line class="cls-1" x1="187.77" y1="189.97" x2="187.77" y2="189.7"/><line class="cls-1" x1="187.72" y1="188.41" x2="187.72" y2="188.3"/><line class="cls-1" x1="187.72" y1="188.3" x2="187.72" y2="188.14"/><line class="cls-1" x1="187.61" y1="186.84" x2="187.56" y2="186.62"/><line class="cls-1" x1="187.45" y1="185.33" x2="187.4" y2="185.06"/><line class="cls-1" x1="187.29" y1="183.76" x2="187.23" y2="183.55"/><line class="cls-1" x1="187.07" y1="182.25" x2="187.07" y2="181.98"/><line class="cls-1" x1="186.86" y1="180.74" x2="186.8" y2="180.52"/><line class="cls-1" x1="186.59" y1="179.28" x2="186.53" y2="179.06"/><line class="cls-1" x1="186.32" y1="177.77" x2="186.32" y2="177.5"/><line class="cls-1" x1="186.1" y1="176.26" x2="186.05" y2="176.04"/><line class="cls-1" x1="185.83" y1="174.8" x2="185.78" y2="174.58"/><line class="cls-1" x1="185.56" y1="173.34" x2="185.51" y2="173.12"/><line class="cls-1" x1="185.29" y1="171.88" x2="185.24" y2="171.67"/><line class="cls-1" x1="185.02" y1="170.42" x2="184.97" y2="170.21"/><line class="cls-1" x1="184.75" y1="168.91" x2="184.7" y2="168.7"/><line class="cls-1" x1="184.43" y1="167.45" x2="184.37" y2="167.24"/><line class="cls-1" x1="184.1" y1="166" x2="184.05" y2="165.78"/><line class="cls-1" x1="183.67" y1="164.54" x2="183.62" y2="164.32"/><line class="cls-1" x1="183.18" y1="163.13" x2="183.13" y2="162.92"/><line class="cls-1" x1="182.64" y1="161.73" x2="182.59" y2="161.51"/><line class="cls-1" x1="182" y1="160.38" x2="181.94" y2="160.22"/><line class="cls-1" x1="181.94" y1="160.22" x2="181.89" y2="160.16"/><line class="cls-1" x1="181.29" y1="159.03" x2="181.24" y2="158.92"/><line class="cls-1" x1="181.24" y1="158.92" x2="181.19" y2="158.81"/><line class="cls-1" x1="180.54" y1="157.68" x2="180.48" y2="157.57"/><line class="cls-1" x1="180.48" y1="157.57" x2="180.43" y2="157.46"/><line class="cls-1" x1="179.67" y1="156.44" x2="179.57" y2="156.28"/><line class="cls-1" x1="179.57" y1="156.28" x2="179.51" y2="156.22"/><line class="cls-1" x1="178.76" y1="155.14" x2="178.65" y2="154.98"/><line class="cls-1" x1="178.65" y1="154.98" x2="178.59" y2="154.93"/><line class="cls-1" x1="177.73" y1="153.9" x2="177.57" y2="153.68"/><line class="cls-1" x1="176.71" y1="152.71" x2="176.54" y2="152.5"/><line class="cls-1" x1="175.62" y1="151.52" x2="175.46" y2="151.36"/><line class="cls-1" x1="174.54" y1="150.44" x2="174.38" y2="150.28"/><line class="cls-1" x1="173.41" y1="149.36" x2="173.25" y2="149.2"/><line class="cls-1" x1="172.28" y1="148.34" x2="172.06" y2="148.18"/><line class="cls-1" x1="171.03" y1="147.31" x2="170.87" y2="147.15"/><line class="cls-1" x1="169.85" y1="146.34" x2="169.68" y2="146.18"/><line class="cls-1" x1="168.66" y1="145.42" x2="168.5" y2="145.26"/><line class="cls-1" x1="167.42" y1="144.5" x2="167.2" y2="144.34"/><line class="cls-1" x1="166.12" y1="143.64" x2="165.91" y2="143.53"/><line class="cls-1" x1="164.82" y1="142.83" x2="164.61" y2="142.67"/><line class="cls-1" x1="163.53" y1="142.07" x2="163.37" y2="141.97"/><line class="cls-1" x1="163.37" y1="141.97" x2="163.31" y2="141.91"/><line class="cls-1" x1="162.18" y1="141.26" x2="161.96" y2="141.16"/><line class="cls-1" x1="160.83" y1="140.56" x2="160.61" y2="140.45"/><line class="cls-1" x1="159.48" y1="139.91" x2="159.37" y2="139.86"/><line class="cls-1" x1="159.37" y1="139.86" x2="159.26" y2="139.81"/><line class="cls-1" x1="158.07" y1="139.32" x2="157.86" y2="139.21"/><line class="cls-1" x1="156.67" y1="138.78" x2="156.46" y2="138.67"/><line class="cls-1" x1="155.21" y1="138.35" x2="155.11" y2="138.29"/><line class="cls-1" x1="155.11" y1="138.29" x2="155" y2="138.24"/><line class="cls-1" x1="153.76" y1="137.97" x2="153.54" y2="137.92"/><line class="cls-1" x1="152.3" y1="137.65" x2="152.19" y2="137.65"/><line class="cls-1" x1="152.19" y1="137.65" x2="152.03" y2="137.59"/><line class="cls-1" x1="150.73" y1="137.48" x2="150.51" y2="137.43"/><line class="cls-1" x1="149.16" y1="229.07" x2="148.89" y2="229.07"/><line class="cls-1" x1="147.6" y1="229.01" x2="147.33" y2="228.96"/><line class="cls-1" x1="146.03" y1="228.91" x2="145.82" y2="228.85"/><line class="cls-1" x1="144.52" y1="228.74" x2="144.31" y2="228.69"/><line class="cls-1" x1="143.01" y1="228.53" x2="143.01" y2="228.53"/><line class="cls-1" x1="143.01" y1="228.53" x2="142.79" y2="228.47"/><line class="cls-1" x1="141.5" y1="228.26" x2="141.44" y2="228.26"/><line class="cls-1" x1="141.44" y1="228.26" x2="141.28" y2="228.2"/><line class="cls-1" x1="140.04" y1="227.99" x2="139.88" y2="227.93"/><line class="cls-1" x1="139.88" y1="227.93" x2="139.82" y2="227.93"/><line class="cls-1" x1="138.58" y1="227.56" x2="138.36" y2="227.5"/><line class="cls-1" x1="137.12" y1="227.18" x2="136.91" y2="227.12"/><line class="cls-1" x1="135.72" y1="226.69" x2="135.5" y2="226.64"/><line class="cls-1" x1="134.31" y1="226.15" x2="134.1" y2="226.04"/><line class="cls-1" x1="132.91" y1="225.56" x2="132.69" y2="225.45"/><line class="cls-1" x1="131.56" y1="224.91" x2="131.34" y2="224.8"/><line class="cls-1" x1="130.21" y1="224.26" x2="129.99" y2="224.15"/><line class="cls-1" x1="128.86" y1="223.51" x2="128.64" y2="223.4"/><line class="cls-1" x1="127.57" y1="222.7" x2="127.35" y2="222.59"/><line class="cls-1" x1="126.27" y1="221.89" x2="126.11" y2="221.72"/><line class="cls-1" x1="125.08" y1="220.97" x2="124.87" y2="220.81"/><line class="cls-1" x1="123.84" y1="220" x2="123.68" y2="219.83"/><line class="cls-1" x1="122.71" y1="218.97" x2="122.54" y2="218.81"/><line class="cls-1" x1="121.57" y1="217.89" x2="121.41" y2="217.73"/><line class="cls-1" x1="120.54" y1="216.76" x2="120.49" y2="216.7"/><line class="cls-1" x1="120.49" y1="216.7" x2="120.38" y2="216.59"/><line class="cls-1" x1="119.52" y1="215.57" x2="119.41" y2="215.41"/><line class="cls-1" x1="119.41" y1="215.41" x2="119.36" y2="215.35"/><line class="cls-1" x1="118.55" y1="214.33" x2="118.38" y2="214.11"/><line class="cls-1" x1="117.63" y1="213.03" x2="117.47" y2="212.81"/><line class="cls-1" x1="116.77" y1="211.73" x2="116.66" y2="211.52"/><line class="cls-1" x1="116.01" y1="210.44" x2="115.9" y2="210.22"/><line class="cls-1" x1="115.31" y1="209.14" x2="115.14" y2="208.93"/><line class="cls-1" x1="114.61" y1="207.79" x2="114.5" y2="207.58"/><line class="cls-1" x1="113.96" y1="206.44" x2="113.9" y2="206.23"/><line class="cls-1" x1="113.42" y1="205.09" x2="113.42" y2="205.04"/><line class="cls-1" x1="113.42" y1="205.04" x2="113.36" y2="204.88"/><line class="cls-1" x1="112.88" y1="203.69" x2="112.77" y2="203.47"/><line class="cls-1" x1="112.44" y1="202.23" x2="112.39" y2="202.01"/><line class="cls-1" x1="112.07" y1="200.77" x2="112.01" y2="200.56"/><line class="cls-1" x1="111.74" y1="199.31" x2="111.69" y2="199.1"/><line class="cls-1" x1="111.47" y1="197.86" x2="111.42" y2="197.64"/><line class="cls-1" x1="111.2" y1="196.34" x2="111.2" y2="196.18"/><line class="cls-1" x1="111.2" y1="196.18" x2="111.2" y2="196.07"/><line class="cls-1" x1="111.04" y1="194.78" x2="111.04" y2="194.51"/><line class="cls-1" x1="110.93" y1="193.21" x2="110.93" y2="192.94"/><line class="cls-1" x1="110.93" y1="191.59" x2="110.93" y2="191.32"/><line class="cls-1" x1="110.93" y1="189.97" x2="110.93" y2="189.7"/><line class="cls-1" x1="110.99" y1="188.41" x2="110.99" y2="188.3"/><line class="cls-1" x1="110.99" y1="188.3" x2="110.99" y2="188.14"/><line class="cls-1" x1="111.09" y1="186.84" x2="111.15" y2="186.62"/><line class="cls-1" x1="111.26" y1="185.33" x2="111.31" y2="185.06"/><line class="cls-1" x1="111.42" y1="183.76" x2="111.47" y2="183.55"/><line class="cls-1" x1="111.63" y1="182.25" x2="111.63" y2="181.98"/><line class="cls-1" x1="111.85" y1="180.74" x2="111.91" y2="180.52"/><line class="cls-1" x1="112.12" y1="179.28" x2="112.17" y2="179.06"/><line class="cls-1" x1="112.39" y1="177.77" x2="112.39" y2="177.5"/><line class="cls-1" x1="112.61" y1="176.26" x2="112.66" y2="176.04"/><line class="cls-1" x1="112.88" y1="174.8" x2="112.93" y2="174.58"/><line class="cls-1" x1="113.15" y1="173.34" x2="113.2" y2="173.12"/><line class="cls-1" x1="113.42" y1="171.88" x2="113.47" y2="171.67"/><line class="cls-1" x1="113.69" y1="170.42" x2="113.74" y2="170.21"/><line class="cls-1" x1="113.96" y1="168.91" x2="114.01" y2="168.7"/><line class="cls-1" x1="114.28" y1="167.45" x2="114.33" y2="167.24"/><line class="cls-1" x1="114.61" y1="166" x2="114.66" y2="165.78"/><line class="cls-1" x1="115.04" y1="164.54" x2="115.09" y2="164.32"/><line class="cls-1" x1="115.52" y1="163.13" x2="115.58" y2="162.92"/><line class="cls-1" x1="116.06" y1="161.73" x2="116.12" y2="161.51"/><line class="cls-1" x1="116.71" y1="160.38" x2="116.77" y2="160.22"/><line class="cls-1" x1="116.77" y1="160.22" x2="116.82" y2="160.16"/><line class="cls-1" x1="117.41" y1="159.03" x2="117.47" y2="158.92"/><line class="cls-1" x1="117.47" y1="158.92" x2="117.52" y2="158.81"/><line class="cls-1" x1="118.17" y1="157.68" x2="118.22" y2="157.57"/><line class="cls-1" x1="118.22" y1="157.57" x2="118.28" y2="157.46"/><line class="cls-1" x1="119.03" y1="156.44" x2="119.14" y2="156.28"/><line class="cls-1" x1="119.14" y1="156.28" x2="119.19" y2="156.22"/><line class="cls-1" x1="119.95" y1="155.14" x2="120.06" y2="154.98"/><line class="cls-1" x1="120.06" y1="154.98" x2="120.11" y2="154.93"/><line class="cls-1" x1="120.98" y1="153.9" x2="121.14" y2="153.68"/><line class="cls-1" x1="122" y1="152.71" x2="122.17" y2="152.5"/><line class="cls-1" x1="123.08" y1="151.52" x2="123.24" y2="151.36"/><line class="cls-1" x1="124.16" y1="150.44" x2="124.32" y2="150.28"/><line class="cls-1" x1="125.3" y1="149.36" x2="125.46" y2="149.2"/><line class="cls-1" x1="126.43" y1="148.34" x2="126.65" y2="148.18"/><line class="cls-1" x1="127.67" y1="147.31" x2="127.83" y2="147.15"/><line class="cls-1" x1="128.86" y1="146.34" x2="129.02" y2="146.18"/><line class="cls-1" x1="130.05" y1="145.42" x2="130.21" y2="145.26"/><line class="cls-1" x1="131.29" y1="144.5" x2="131.51" y2="144.34"/><line class="cls-1" x1="132.59" y1="143.64" x2="132.8" y2="143.53"/><line class="cls-1" x1="133.88" y1="142.83" x2="134.1" y2="142.67"/><line class="cls-1" x1="135.18" y1="142.07" x2="135.34" y2="141.97"/><line class="cls-1" x1="135.34" y1="141.97" x2="135.39" y2="141.91"/><line class="cls-1" x1="136.53" y1="141.26" x2="136.74" y2="141.16"/><line class="cls-1" x1="137.88" y1="140.56" x2="138.09" y2="140.45"/><line class="cls-1" x1="139.23" y1="139.91" x2="139.34" y2="139.86"/><line class="cls-1" x1="139.34" y1="139.86" x2="139.44" y2="139.81"/><line class="cls-1" x1="140.63" y1="139.32" x2="140.85" y2="139.21"/><line class="cls-1" x1="142.04" y1="138.78" x2="142.25" y2="138.67"/><line class="cls-1" x1="143.49" y1="138.35" x2="143.6" y2="138.29"/><line class="cls-1" x1="143.6" y1="138.29" x2="143.71" y2="138.24"/><line class="cls-1" x1="144.95" y1="137.97" x2="145.17" y2="137.92"/><line class="cls-1" x1="146.41" y1="137.65" x2="146.52" y2="137.65"/><line class="cls-1" x1="146.52" y1="137.65" x2="146.68" y2="137.59"/><line class="cls-1" x1="147.98" y1="137.48" x2="148.19" y2="137.43"/></g></svg>