<svg id="Tab_T" xmlns="http://www.w3.org/2000/svg" xmlns:xlink="http://www.w3.org/1999/xlink" viewBox="0 0 300 263"><defs><style>.cls-1,.cls-2,.cls-4{fill:none;}.cls-2{stroke:#000;}.cls-2,.cls-4{stroke-width:0.5px;}.cls-3{isolation:isolate;}.cls-4{stroke:#1d1d1b;stroke-miterlimit:3.86;}.cls-5{clip-path:url(#clip-path);}.cls-6{fill:#fff;}</style><clipPath id="clip-path"><rect class="cls-1" x="87.19" y="52.42" width="125.62" height="169.78"/></clipPath></defs><title>tab-table-barber-osgerby-flos-F65600301-spech-tech-02-300x263</title><line class="cls-2" x1="89.61" y1="46.68" x2="210.4" y2="46.68"/><line class="cls-2" x1="89.61" y1="45.36" x2="89.61" y2="47.99"/><line class="cls-2" x1="210.4" y1="45.36" x2="210.4" y2="47.99"/><line class="cls-2" x1="81" y1="217.27" x2="81" y2="56.06"/><line class="cls-2" x1="79.3" y1="217.27" x2="82.7" y2="217.27"/><line class="cls-2" x1="79.3" y1="56.06" x2="82.7" y2="56.06"/><line class="cls-2" x1="90.64" y1="226.96" x2="167.16" y2="226.96"/><line class="cls-2" x1="90.64" y1="225.37" x2="90.64" y2="228.55"/><line class="cls-2" x1="167.16" y1="225.37" x2="167.16" y2="228.55"/><g class="cls-3"><path d="M99.54,241a3.67,3.67,0,0,1,.7,1.16,3.82,3.82,0,0,1,.26,1.45,3.89,3.89,0,0,1-.31,1.57,3.7,3.7,0,0,1-.85,1.25,4,4,0,0,1-1.3.82,4.78,4.78,0,0,1-3.13.07,3.82,3.82,0,0,1-1.15-.61l-1.11,1.09-.54-.49,1.1-1.09A3.54,3.54,0,0,1,92.5,245a4,4,0,0,1-.25-1.43,4,4,0,0,1,.3-1.57,3.88,3.88,0,0,1,.86-1.25,3.94,3.94,0,0,1,1.3-.82,4.49,4.49,0,0,1,1.66-.3,4.44,4.44,0,0,1,1.44.22,4,4,0,0,1,1.2.62l1.09-1.09.54.49Zm-1.3.26a2.8,2.8,0,0,0-1.87-.63,3.09,3.09,0,0,0-1.22.23,2.76,2.76,0,0,0-.92.64,2.81,2.81,0,0,0-.58.94,3.2,3.2,0,0,0-.21,1.17A2.89,2.89,0,0,0,94,245.4ZM94.51,246a2.88,2.88,0,0,0,.83.45,3.32,3.32,0,0,0,1,.16,3,3,0,0,0,1.22-.24,2.69,2.69,0,0,0,.92-.63,2.94,2.94,0,0,0,.59-.94,3.24,3.24,0,0,0,.21-1.17,3.06,3.06,0,0,0-.57-1.83Z"/><path d="M111.7,247.32h-1.2v-9.88l-2.11,1.79-.74-.87,3-2.36h1.06Z"/><path d="M123,237.05l-4.74,10.27H117l4.83-10.27h-5.73V236h7Z"/><path d="M132.12,237.05h-4.81l-.08,3.41a3.76,3.76,0,0,1,.78-.21,5.39,5.39,0,0,1,.8-.06,4.06,4.06,0,0,1,1.51.27,3.34,3.34,0,0,1,1.17.76,3.52,3.52,0,0,1,.77,1.15,3.82,3.82,0,0,1,.27,1.45,3.72,3.72,0,0,1-.3,1.5,3.33,3.33,0,0,1-.83,1.16,3.68,3.68,0,0,1-1.25.76,4.47,4.47,0,0,1-1.57.28,4,4,0,0,1-2-.52,3.35,3.35,0,0,1-1.38-1.5l1.19-.5a2.62,2.62,0,0,0,.93,1.07,2.48,2.48,0,0,0,1.38.39,2.75,2.75,0,0,0,1-.2,2.48,2.48,0,0,0,.83-.54,2.43,2.43,0,0,0,.57-.8,2.37,2.37,0,0,0,.2-1,2.79,2.79,0,0,0-.21-1.09,2.73,2.73,0,0,0-.6-.85,2.47,2.47,0,0,0-.91-.55,3.42,3.42,0,0,0-1.17-.2,4.83,4.83,0,0,0-1.25.17,5.53,5.53,0,0,0-1.19.46l.12-5.87h6Z"/><path d="M139.44,241.5c0-.28,0-.56,0-.83l-.06-.84h1.18V241h0a2.48,2.48,0,0,1,1.11-1,3.14,3.14,0,0,1,1.4-.34,4.13,4.13,0,0,1,.67.07,2.44,2.44,0,0,1,.69.23,2.34,2.34,0,0,1,1.11,1.26,2.54,2.54,0,0,1,1.06-1.14,3.28,3.28,0,0,1,3.71.34,3,3,0,0,1,.72,2.17v4.75h-1.1V243a3.08,3.08,0,0,0-.42-1.75,1.74,1.74,0,0,0-1.54-.61,2.15,2.15,0,0,0-1,.23,2,2,0,0,0-.67.62,2.84,2.84,0,0,0-.38.87,4.9,4.9,0,0,0-.11,1v4h-1.1V243a3.17,3.17,0,0,0-.41-1.75,1.78,1.78,0,0,0-1.55-.61,2.79,2.79,0,0,0-.46.07,1.83,1.83,0,0,0-.74.35,2.71,2.71,0,0,0-.69.86,3.53,3.53,0,0,0-.3,1.6v3.84h-1.1Z"/><path d="M153.59,241.5c0-.28,0-.56,0-.83l-.06-.84h1.18V241h0a2.54,2.54,0,0,1,1.11-1,3.17,3.17,0,0,1,1.4-.34,4.24,4.24,0,0,1,.68.07,2.48,2.48,0,0,1,.68.23,2.3,2.3,0,0,1,.63.47,2.6,2.6,0,0,1,.49.79,2.46,2.46,0,0,1,1-1.14,3.3,3.3,0,0,1,3.72.34,3.08,3.08,0,0,1,.71,2.17v4.75h-1.1V243a3.08,3.08,0,0,0-.41-1.75,1.76,1.76,0,0,0-1.55-.61,2.15,2.15,0,0,0-1,.23,2.1,2.1,0,0,0-.67.62,2.6,2.6,0,0,0-.37.87,4.31,4.31,0,0,0-.12,1v4h-1.1V243a3.08,3.08,0,0,0-.41-1.75,1.76,1.76,0,0,0-1.55-.61,2.89,2.89,0,0,0-.45.07,1.72,1.72,0,0,0-.74.35,2.46,2.46,0,0,0-.69.86,3.4,3.4,0,0,0-.31,1.6v3.84h-1.1Z"/></g><g class="cls-3"><path d="M128.11,38.56h-7.48V37.23l4.69-4.59.53-.55a4.78,4.78,0,0,0,.48-.61,3.28,3.28,0,0,0,.35-.67,2,2,0,0,0,.13-.73,2,2,0,0,0-.17-.83,1.79,1.79,0,0,0-.49-.63,2.33,2.33,0,0,0-.73-.39,2.84,2.84,0,0,0-.88-.14,2.45,2.45,0,0,0-1.53.48,2.16,2.16,0,0,0-.82,1.3l-1.26-.13a3.16,3.16,0,0,1,1.21-2,3.7,3.7,0,0,1,2.31-.72,5,5,0,0,1,1.36.18,3.6,3.6,0,0,1,1.13.55,2.9,2.9,0,0,1,.78.92A2.79,2.79,0,0,1,128,30a3.29,3.29,0,0,1-.21,1.2,5.33,5.33,0,0,1-.54,1,7.05,7.05,0,0,1-.76.91c-.28.28-.57.57-.87.84l-3.7,3.54h6.18Z"/><path d="M136.94,28.28l-4.73,10.28h-1.35l4.84-10.28H130V27.23h7Z"/><path d="M141.7,32.09h.61a4.06,4.06,0,0,0,1-.11,2.18,2.18,0,0,0,.82-.36,1.78,1.78,0,0,0,.56-.65,2,2,0,0,0,.21-1,1.77,1.77,0,0,0-.58-1.41,2.31,2.31,0,0,0-1.6-.51,2.62,2.62,0,0,0-1.31.32,2.59,2.59,0,0,0-.93.93l-1.05-.51a3.43,3.43,0,0,1,1.35-1.35,3.93,3.93,0,0,1,1.91-.44,4.32,4.32,0,0,1,1.31.19,3.28,3.28,0,0,1,1.08.57,2.89,2.89,0,0,1,.74.92,2.84,2.84,0,0,1,.27,1.26,2.37,2.37,0,0,1-.16.88,2.53,2.53,0,0,1-.43.75,2.78,2.78,0,0,1-.64.59,3,3,0,0,1-.76.37l0,0a2.89,2.89,0,0,1,.91.36,2.81,2.81,0,0,1,1.18,1.52,3,3,0,0,1,.17,1,3.13,3.13,0,0,1-.3,1.4,3,3,0,0,1-.82,1,3.48,3.48,0,0,1-1.19.63,4.63,4.63,0,0,1-1.45.22,4.58,4.58,0,0,1-2.26-.54,3.38,3.38,0,0,1-1.44-1.75l1.26-.37a2.37,2.37,0,0,0,.89,1.21,3,3,0,0,0,1.65.39,2.75,2.75,0,0,0,.95-.16,2.46,2.46,0,0,0,.79-.45,2.14,2.14,0,0,0,.72-1.63,2.16,2.16,0,0,0-.25-1.08,2,2,0,0,0-.66-.71,2.94,2.94,0,0,0-1-.39,5.13,5.13,0,0,0-1.12-.12h-.51Z"/><path d="M153.36,32.73c0-.27,0-.55,0-.83s0-.55-.06-.83h1.18v1.14h0a2.54,2.54,0,0,1,1.1-1,3.3,3.3,0,0,1,1.41-.33,4.06,4.06,0,0,1,.67.06,2.44,2.44,0,0,1,.69.23,2.26,2.26,0,0,1,.62.47,2.66,2.66,0,0,1,.49.79,2.48,2.48,0,0,1,1.06-1.14,3,3,0,0,1,1.5-.41,2.89,2.89,0,0,1,2.21.76A3.06,3.06,0,0,1,165,33.8v4.76h-1.09V34.19a3.08,3.08,0,0,0-.42-1.75,1.74,1.74,0,0,0-1.54-.6,1.95,1.95,0,0,0-1.71.84,2.78,2.78,0,0,0-.37.88,4.17,4.17,0,0,0-.12,1v4h-1.09V34.19a3.08,3.08,0,0,0-.42-1.75,1.74,1.74,0,0,0-1.54-.6l-.46.06a1.77,1.77,0,0,0-.74.35,2.65,2.65,0,0,0-.69.87,3.46,3.46,0,0,0-.31,1.6v3.84h-1.09Z"/><path d="M167.51,32.73c0-.27,0-.55,0-.83l-.06-.83h1.18v1.14h0a2.56,2.56,0,0,1,1.11-1,3.26,3.26,0,0,1,1.4-.33,4.06,4.06,0,0,1,.67.06,2.44,2.44,0,0,1,.69.23,2.26,2.26,0,0,1,.62.47,2.47,2.47,0,0,1,.49.79,2.59,2.59,0,0,1,1.06-1.14,3,3,0,0,1,1.5-.41,2.87,2.87,0,0,1,2.21.76,3,3,0,0,1,.72,2.16v4.76H178V34.19a3.08,3.08,0,0,0-.42-1.75,1.74,1.74,0,0,0-1.54-.6,2,2,0,0,0-1,.23,1.88,1.88,0,0,0-.67.61,2.79,2.79,0,0,0-.38.88,4.74,4.74,0,0,0-.11,1v4h-1.1V34.19a3.17,3.17,0,0,0-.41-1.75,1.77,1.77,0,0,0-1.55-.6l-.46.06a1.83,1.83,0,0,0-.74.35,2.51,2.51,0,0,0-.68.87,3.34,3.34,0,0,0-.31,1.6v3.84h-1.1Z"/></g><g class="cls-3"><path d="M64.18,159.15v-.59a4.19,4.19,0,0,0-.11-.95,2.44,2.44,0,0,0-.36-.8,1.79,1.79,0,0,0-.65-.53,2.06,2.06,0,0,0-1-.2,1.82,1.82,0,0,0-1.42.55,2.23,2.23,0,0,0-.5,1.54,2.49,2.49,0,0,0,.32,1.27,2.42,2.42,0,0,0,.93.89l-.51,1a3.42,3.42,0,0,1-1.36-1.3,3.75,3.75,0,0,1-.44-1.83,4.07,4.07,0,0,1,.2-1.27,3,3,0,0,1,.56-1,2.74,2.74,0,0,1,.93-.71,2.84,2.84,0,0,1,1.26-.26,2.58,2.58,0,0,1,.88.15,2.69,2.69,0,0,1,1.33,1,2.73,2.73,0,0,1,.38.74l0,0a2.64,2.64,0,0,1,.36-.88,2.67,2.67,0,0,1,.65-.69,3.2,3.2,0,0,1,.86-.45,3.39,3.39,0,0,1,1-.16,3.23,3.23,0,0,1,1.39.29,3,3,0,0,1,1,.78,3.62,3.62,0,0,1,.63,1.16,4.5,4.5,0,0,1,.22,1.39,4.24,4.24,0,0,1-.55,2.17,3.3,3.3,0,0,1-1.74,1.4l-.37-1.22a2.37,2.37,0,0,0,1.21-.86,2.77,2.77,0,0,0,.39-1.59,2.53,2.53,0,0,0-.16-.91,2.34,2.34,0,0,0-.46-.76,1.93,1.93,0,0,0-.71-.51,2.28,2.28,0,0,0-.91-.19,2.21,2.21,0,0,0-1.08.24,2.09,2.09,0,0,0-.71.64,2.81,2.81,0,0,0-.39.92,4.83,4.83,0,0,0-.12,1.08v.5Z"/><path d="M70.64,145.55v7.2H69.32l-4.6-4.51-.54-.51a4.71,4.71,0,0,0-.61-.47,3,3,0,0,0-.67-.33,2,2,0,0,0-.74-.13,1.87,1.87,0,0,0-.83.17,1.79,1.79,0,0,0-.62.47,2.08,2.08,0,0,0-.39.7,2.41,2.41,0,0,0-.14.85,2.28,2.28,0,0,0,.48,1.47,2.17,2.17,0,0,0,1.3.79l-.13,1.21a3.16,3.16,0,0,1-2-1.16,3.49,3.49,0,0,1-.72-2.23,4.26,4.26,0,0,1,.19-1.3,3.11,3.11,0,0,1,.55-1.09,2.58,2.58,0,0,1,.92-.75,2.79,2.79,0,0,1,1.29-.28,3.32,3.32,0,0,1,1.2.2,4.46,4.46,0,0,1,1,.52,6.26,6.26,0,0,1,.91.72l.85.84,3.54,3.57v-5.95Z"/><path d="M60.37,137l10.27,4.56v1.29l-10.27-4.65v5.52h-1V137Z"/><path d="M64.82,130.13c-.28,0-.56,0-.83,0l-.83.06v-1.14h1.13v0a2.44,2.44,0,0,1-1-1.07,3.07,3.07,0,0,1-.34-1.35A3.9,3.9,0,0,1,63,126a2.23,2.23,0,0,1,.7-1.26,2.51,2.51,0,0,1,.79-.47,2.5,2.5,0,0,1-1.14-1,3.06,3.06,0,0,1,.34-3.57,3.12,3.12,0,0,1,2.17-.69h4.75V120H66.28a3.26,3.26,0,0,0-1.75.4,1.68,1.68,0,0,0-.61,1.49,1.86,1.86,0,0,0,.24,1,1.81,1.81,0,0,0,.61.65,2.58,2.58,0,0,0,.87.36,4.31,4.31,0,0,0,1,.11h4v1.06H66.28a3.17,3.17,0,0,0-1.75.4,1.67,1.67,0,0,0-.61,1.49c0,.06,0,.21.07.44a1.62,1.62,0,0,0,.35.71,2.42,2.42,0,0,0,.86.66,3.53,3.53,0,0,0,1.6.3h3.84v1.06Z"/><path d="M64.82,116.49c-.28,0-.56,0-.83,0l-.83,0v-1.13h1.13v0a2.44,2.44,0,0,1-1-1.07A3.07,3.07,0,0,1,63,113a3.9,3.9,0,0,1,.07-.65,2.25,2.25,0,0,1,.23-.66,2.29,2.29,0,0,1,1.26-1.07,2.56,2.56,0,0,1-1.14-1,3.07,3.07,0,0,1,.34-3.58,3.17,3.17,0,0,1,2.17-.68h4.75v1H66.28a3.26,3.26,0,0,0-1.75.4,1.68,1.68,0,0,0-.61,1.49,1.86,1.86,0,0,0,.24,1,1.81,1.81,0,0,0,.61.65,2.58,2.58,0,0,0,.87.36,4.31,4.31,0,0,0,1,.11h4v1.06H66.28a3.17,3.17,0,0,0-1.75.4,1.67,1.67,0,0,0-.61,1.49c0,.06,0,.21.07.44a1.67,1.67,0,0,0,.35.71,2.53,2.53,0,0,0,.86.66,3.53,3.53,0,0,0,1.6.3h3.84v1Z"/></g><polygon class="cls-4" points="91.32 73.63 99.03 73.63 99.03 78.46 98.76 78.45 91.32 78.45 91.32 73.63"/><g class="cls-5"><path class="cls-4" d="M117.15,73.63h92v14.2S207.6,94.75,199,94.75H147.9s-5.18-.16-7.8-3.15L130.45,80a13.13,13.13,0,0,0-5.87-1.58h-7.43ZM199,94.75H147.9s-5.18-.16-7.8-3.15L130.45,80a11.42,11.42,0,0,0-8.94-4.12m12.88,8.74h16.37s2.22,0,2.22-2.86v-8.1"/></g><rect class="cls-4" x="122.63" y="56.06" width="3.81" height="17.48"/><rect class="cls-4" x="143.85" y="217.19" width="9.72" height="1.39"/><rect class="cls-6" x="104.42" y="217.35" width="9.72" height="1.23"/><rect class="cls-4" x="104.41" y="217.34" width="9.72" height="1.23"/><g class="cls-5"><path class="cls-4" d="M110.81,80.38v2.7h-6.4v-2.7c0-1.89-2-1.93-2-1.93H98.1V73.63h19v4.82h-4.29S110.81,78.49,110.81,80.38Z"/></g><rect class="cls-4" x="104.41" y="198.72" width="6.4" height="12.01"/><rect class="cls-4" x="104.41" y="83.08" width="6.4" height="115.64"/><rect class="cls-4" x="90.82" y="210.69" width="76.34" height="6.54"/></svg>