<svg xmlns="http://www.w3.org/2000/svg" viewBox="0 0 300 263"><defs><style>.cls-1,.cls-2,.cls-3,.cls-4{fill:none;stroke-linecap:round;}.cls-1,.cls-2{stroke:red;}.cls-1,.cls-2,.cls-4{stroke-linejoin:round;}.cls-1,.cls-3,.cls-4{stroke-width:0.6px;}.cls-3,.cls-4{stroke:#000;}.cls-3{stroke-miterlimit:10;}</style></defs><title>table-gun-table-starck-flos-F29540-curva-fotometrica</title><g id="numeri_esterni_diagramma" data-name="numeri esterni diagramma"><path d="M148.27,239.2a6.85,6.85,0,0,1,.08-1,3.41,3.41,0,0,1,.3-.95,1.94,1.94,0,0,1,.59-.71,1.57,1.57,0,0,1,.95-.27,1.6,1.6,0,0,1,1,.27,2,2,0,0,1,.59.71,3.1,3.1,0,0,1,.29.95,5.7,5.7,0,0,1,.08,1,5.85,5.85,0,0,1-.08,1,3.13,3.13,0,0,1-.29.94,2,2,0,0,1-.59.71,1.6,1.6,0,0,1-1,.27,1.57,1.57,0,0,1-.95-.27,1.94,1.94,0,0,1-.59-.71,3.45,3.45,0,0,1-.3-.94A7.07,7.07,0,0,1,148.27,239.2Zm.68,0c0,.13,0,.29,0,.46a4.88,4.88,0,0,0,.06.52,2.83,2.83,0,0,0,.13.5,1.65,1.65,0,0,0,.22.44,1.24,1.24,0,0,0,.34.31,1,1,0,0,0,.48.12.9.9,0,0,0,.48-.12,1,1,0,0,0,.34-.31,1.41,1.41,0,0,0,.23-.44,4.07,4.07,0,0,0,.13-.5c0-.18,0-.35.06-.52s0-.33,0-.46,0-.3,0-.47,0-.34-.06-.51a3.8,3.8,0,0,0-.13-.51,1.53,1.53,0,0,0-.23-.44,1,1,0,0,0-.34-.31.9.9,0,0,0-.48-.12,1,1,0,0,0-.48.12,1.24,1.24,0,0,0-.34.31,1.81,1.81,0,0,0-.22.44,2.72,2.72,0,0,0-.13.51,4.43,4.43,0,0,0-.06.51C149,238.9,149,239.06,149,239.2Z"/><path d="M152.83,237.41a1.33,1.33,0,0,1,.08-.45,1.11,1.11,0,0,1,.25-.36,1,1,0,0,1,.36-.24,1.17,1.17,0,0,1,.9,0,1,1,0,0,1,.36.24,1.11,1.11,0,0,1,.25.36,1.31,1.31,0,0,1,0,.9,1.23,1.23,0,0,1-.61.61,1.17,1.17,0,0,1-.9,0,1.23,1.23,0,0,1-.61-.61A1.33,1.33,0,0,1,152.83,237.41Zm.43,0a.79.79,0,0,0,.05.25.68.68,0,0,0,.14.23.66.66,0,0,0,.23.17.73.73,0,0,0,.58,0,.76.76,0,0,0,.23-.17.88.88,0,0,0,.14-.23.65.65,0,0,0,0-.5,1.09,1.09,0,0,0-.14-.23,1,1,0,0,0-.23-.17.73.73,0,0,0-.58,0,.81.81,0,0,0-.23.17.75.75,0,0,0-.19.48Z"/><path d="M203.17,238.76h.21l.43,0a1.15,1.15,0,0,0,.42-.13.77.77,0,0,0,.31-.31.94.94,0,0,0,.13-.51.87.87,0,0,0-.27-.68,1,1,0,0,0-.7-.26,1.28,1.28,0,0,0-.63.16,1.14,1.14,0,0,0-.41.48l-.65-.25a1.48,1.48,0,0,1,.65-.72,2.07,2.07,0,0,1,1-.24,2.25,2.25,0,0,1,.64.09,1.72,1.72,0,0,1,.54.28,1.37,1.37,0,0,1,.37.46,1.48,1.48,0,0,1,.14.65,1.29,1.29,0,0,1-.27.8,1.34,1.34,0,0,1-.7.49v0a1.48,1.48,0,0,1,.85.49,1.37,1.37,0,0,1,.23.43,1.69,1.69,0,0,1,.08.5,1.66,1.66,0,0,1-.15.72,1.57,1.57,0,0,1-.41.51,1.71,1.71,0,0,1-.6.31,2.34,2.34,0,0,1-.71.1,2.18,2.18,0,0,1-1.13-.28,1.61,1.61,0,0,1-.7-.91l.68-.22a1.33,1.33,0,0,0,.41.65,1.3,1.3,0,0,0,.74.19,1.33,1.33,0,0,0,.45-.08,1.11,1.11,0,0,0,.36-.23,1.24,1.24,0,0,0,.25-.35,1.13,1.13,0,0,0,.09-.45,1.07,1.07,0,0,0-.12-.53,1,1,0,0,0-.33-.33,1.23,1.23,0,0,0-.46-.18,2.31,2.31,0,0,0-.52-.06h-.21Z"/><path d="M206.24,239.2a6.85,6.85,0,0,1,.08-1,3.11,3.11,0,0,1,.3-.95,1.94,1.94,0,0,1,.59-.71,1.55,1.55,0,0,1,.95-.27,1.6,1.6,0,0,1,1,.27,2,2,0,0,1,.59.71,3.1,3.1,0,0,1,.29.95,5.7,5.7,0,0,1,.08,1,5.85,5.85,0,0,1-.08,1,3.13,3.13,0,0,1-.29.94,2,2,0,0,1-.59.71,1.6,1.6,0,0,1-1,.27,1.55,1.55,0,0,1-.95-.27,1.94,1.94,0,0,1-.59-.71,3.14,3.14,0,0,1-.3-.94A7.07,7.07,0,0,1,206.24,239.2Zm.67,0c0,.13,0,.29,0,.46a4.88,4.88,0,0,0,.06.52,2.83,2.83,0,0,0,.13.5,1.4,1.4,0,0,0,.22.44,1.24,1.24,0,0,0,.34.31,1,1,0,0,0,.48.12.9.9,0,0,0,.48-.12,1,1,0,0,0,.34-.31,1.41,1.41,0,0,0,.23-.44,4.05,4.05,0,0,0,.12-.5,4.88,4.88,0,0,0,.06-.52,3.86,3.86,0,0,0,0-.46,3.94,3.94,0,0,0,0-.47,4.43,4.43,0,0,0-.06-.51,3.81,3.81,0,0,0-.12-.51,1.53,1.53,0,0,0-.23-.44,1,1,0,0,0-.34-.31.9.9,0,0,0-.48-.12,1,1,0,0,0-.48.12,1.24,1.24,0,0,0-.34.31,1.51,1.51,0,0,0-.22.44,2.72,2.72,0,0,0-.13.51,4.43,4.43,0,0,0-.06.51C206.92,238.9,206.91,239.06,206.91,239.2Z"/><path d="M210.84,237.41a1.13,1.13,0,0,1,.09-.45,1.26,1.26,0,0,1,.24-.36,1.2,1.2,0,0,1,.82-.33,1,1,0,0,1,.44.09,1.12,1.12,0,0,1,.37.24,1.26,1.26,0,0,1,.24.36,1.16,1.16,0,0,1-.24,1.26,1.15,1.15,0,0,1-.37.25,1,1,0,0,1-.44.09,1.13,1.13,0,0,1-.45-.09,1.15,1.15,0,0,1-.37-.25,1.15,1.15,0,0,1-.33-.81Zm.43,0a.61.61,0,0,0,.06.25.68.68,0,0,0,.14.23.72.72,0,0,0,.22.17.73.73,0,0,0,.3.06.72.72,0,0,0,.29-.06.62.62,0,0,0,.22-.17.91.91,0,0,0,.15-.23.65.65,0,0,0,0-.5,1.14,1.14,0,0,0-.15-.23.76.76,0,0,0-.22-.17.72.72,0,0,0-.29-.06.73.73,0,0,0-.3.06.92.92,0,0,0-.22.17.79.79,0,0,0-.14.23A.61.61,0,0,0,211.27,237.41Z"/><path d="M93.6,238.76h.21l.44,0a1.1,1.1,0,0,0,.41-.13.86.86,0,0,0,.32-.31.94.94,0,0,0,.12-.51.87.87,0,0,0-.27-.68,1,1,0,0,0-.7-.26,1.21,1.21,0,0,0-.62.16,1.1,1.1,0,0,0-.42.48l-.65-.25a1.45,1.45,0,0,1,.66-.72,2,2,0,0,1,1-.24,2.32,2.32,0,0,1,.65.09,2,2,0,0,1,.54.28,1.67,1.67,0,0,1,.37.46,1.48,1.48,0,0,1,.13.65,1.29,1.29,0,0,1-.27.8,1.34,1.34,0,0,1-.7.49v0a1.31,1.31,0,0,1,.49.18,1.34,1.34,0,0,1,.36.31,1.37,1.37,0,0,1,.23.43,1.42,1.42,0,0,1,.08.5,1.66,1.66,0,0,1-.15.72,1.57,1.57,0,0,1-.41.51,1.75,1.75,0,0,1-.59.31,2.46,2.46,0,0,1-.72.1,2.18,2.18,0,0,1-1.13-.28,1.56,1.56,0,0,1-.69-.91l.68-.22a1.2,1.2,0,0,0,.41.65,1.27,1.27,0,0,0,.73.19,1.33,1.33,0,0,0,.45-.08,1.11,1.11,0,0,0,.36-.23,1.07,1.07,0,0,0,.25-.35,1.13,1.13,0,0,0,.09-.45,1.07,1.07,0,0,0-.12-.53.87.87,0,0,0-.33-.33,1.17,1.17,0,0,0-.46-.18,2.24,2.24,0,0,0-.52-.06H93.6Z"/><path d="M96.68,239.2a5.7,5.7,0,0,1,.08-1,3.1,3.1,0,0,1,.29-.95,2,2,0,0,1,.59-.71,1.6,1.6,0,0,1,1-.27,1.57,1.57,0,0,1,1,.27,1.94,1.94,0,0,1,.59.71,3.41,3.41,0,0,1,.3.95,6.85,6.85,0,0,1,.08,1,7.07,7.07,0,0,1-.08,1,3.45,3.45,0,0,1-.3.94,1.94,1.94,0,0,1-.59.71,1.57,1.57,0,0,1-1,.27,1.6,1.6,0,0,1-1-.27,2,2,0,0,1-.59-.71,3.13,3.13,0,0,1-.29-.94A5.85,5.85,0,0,1,96.68,239.2Zm.67,0c0,.13,0,.29,0,.46a4.88,4.88,0,0,0,.06.52,4.07,4.07,0,0,0,.13.5,1.41,1.41,0,0,0,.23.44,1,1,0,0,0,.34.31.9.9,0,0,0,.48.12,1,1,0,0,0,.48-.12,1.24,1.24,0,0,0,.34-.31,1.65,1.65,0,0,0,.22-.44,2.83,2.83,0,0,0,.13-.5,4.88,4.88,0,0,0,.06-.52c0-.17,0-.33,0-.46s0-.3,0-.47a4.43,4.43,0,0,0-.06-.51,2.72,2.72,0,0,0-.13-.51,1.81,1.81,0,0,0-.22-.44,1.24,1.24,0,0,0-.34-.31,1,1,0,0,0-.48-.12.9.9,0,0,0-.48.12,1,1,0,0,0-.34.31,1.53,1.53,0,0,0-.23.44,3.8,3.8,0,0,0-.13.51,4.43,4.43,0,0,0-.06.51C97.35,238.9,97.35,239.06,97.35,239.2Z"/><path d="M101.28,237.41a1.33,1.33,0,0,1,.08-.45,1.11,1.11,0,0,1,.25-.36,1,1,0,0,1,.36-.24,1.17,1.17,0,0,1,.9,0,1,1,0,0,1,.36.24,1.11,1.11,0,0,1,.25.36,1.31,1.31,0,0,1,0,.9,1.23,1.23,0,0,1-.61.61,1.17,1.17,0,0,1-.9,0,1.23,1.23,0,0,1-.61-.61A1.33,1.33,0,0,1,101.28,237.41Zm.43,0a.79.79,0,0,0,.05.25.68.68,0,0,0,.14.23.76.76,0,0,0,.23.17.73.73,0,0,0,.58,0,.66.66,0,0,0,.23-.17.68.68,0,0,0,.14-.23.71.71,0,0,0-.14-.73.81.81,0,0,0-.23-.17.73.73,0,0,0-.58,0,1,1,0,0,0-.23.17.75.75,0,0,0-.19.48Z"/><path d="M249.93,137.18h0a1.24,1.24,0,0,1-.37.12,1.84,1.84,0,0,1-.39,0,1.91,1.91,0,0,1-.68-.12,1.58,1.58,0,0,1-.54-.37,1.63,1.63,0,0,1-.36-.56,2.05,2.05,0,0,1-.13-.72,1.79,1.79,0,0,1,.15-.75,1.48,1.48,0,0,1,.4-.55,1.79,1.79,0,0,1,.6-.35,2,2,0,0,1,.75-.13,2.11,2.11,0,0,1,.75.13,1.79,1.79,0,0,1,.6.35,1.59,1.59,0,0,1,.4.55,1.79,1.79,0,0,1,.14.75,2.15,2.15,0,0,1,0,.45,1.68,1.68,0,0,1-.11.4,2.59,2.59,0,0,1-.17.38l-.21.36-1.51,2.39h-.78Zm-.59-.42a1.28,1.28,0,0,0,.48-.09,1,1,0,0,0,.39-.24,1.23,1.23,0,0,0,.26-.37,1.43,1.43,0,0,0,0-1,1.1,1.1,0,0,0-.65-.62,1.48,1.48,0,0,0-1,0,1.28,1.28,0,0,0-.39.24,1.12,1.12,0,0,0-.26.38,1.3,1.3,0,0,0,0,1,1.08,1.08,0,0,0,.26.37,1,1,0,0,0,.39.24A1.28,1.28,0,0,0,249.34,136.76Z"/><path d="M251.82,136.71a7.07,7.07,0,0,1,.08-1,3.19,3.19,0,0,1,.29-1,2,2,0,0,1,.59-.7,1.54,1.54,0,0,1,1-.28,1.49,1.49,0,0,1,.95.28,1.91,1.91,0,0,1,.59.7,2.94,2.94,0,0,1,.3,1,6.29,6.29,0,0,1,0,2,2.94,2.94,0,0,1-.3.95,1.91,1.91,0,0,1-.59.7,1.49,1.49,0,0,1-.95.28,1.54,1.54,0,0,1-1-.28,2,2,0,0,1-.59-.7,3.19,3.19,0,0,1-.29-.95A7.07,7.07,0,0,1,251.82,136.71Zm.67,0c0,.14,0,.29,0,.46a4.6,4.6,0,0,0,.06.52,4.7,4.7,0,0,0,.12.51,2,2,0,0,0,.23.44,1,1,0,0,0,.34.31,1,1,0,0,0,.48.11,1.06,1.06,0,0,0,.48-.11,1.24,1.24,0,0,0,.34-.31,1.65,1.65,0,0,0,.22-.44,3.18,3.18,0,0,0,.13-.51,4.6,4.6,0,0,0,.06-.52c0-.17,0-.32,0-.46s0-.29,0-.46a4.6,4.6,0,0,0-.06-.52,3.18,3.18,0,0,0-.13-.51,1.65,1.65,0,0,0-.22-.44,1.24,1.24,0,0,0-.34-.31,1.06,1.06,0,0,0-.48-.11,1,1,0,0,0-.48.11,1,1,0,0,0-.34.31,2,2,0,0,0-.23.44,4.7,4.7,0,0,0-.12.51,4.6,4.6,0,0,0-.06.52C252.5,136.42,252.49,136.57,252.49,136.71Z"/><path d="M256.42,134.93a1.13,1.13,0,0,1,.09-.45,1.31,1.31,0,0,1,.24-.37,1.18,1.18,0,0,1,.37-.24,1,1,0,0,1,.44-.09,1.13,1.13,0,0,1,.45.09,1.06,1.06,0,0,1,.61.61,1.13,1.13,0,0,1,.09.45,1,1,0,0,1-.09.44,1.06,1.06,0,0,1-.61.61,1.13,1.13,0,0,1-.45.09,1,1,0,0,1-.44-.09,1.18,1.18,0,0,1-.37-.24,1.31,1.31,0,0,1-.24-.37A1,1,0,0,1,256.42,134.93Zm.43,0a.69.69,0,0,0,0,.24,1,1,0,0,0,.15.24.73.73,0,0,0,.51.23.54.54,0,0,0,.29-.07.63.63,0,0,0,.23-.16.72.72,0,0,0,.14-.24.52.52,0,0,0,0-.24.56.56,0,0,0,0-.25.59.59,0,0,0-.14-.23.74.74,0,0,0-.52-.24.73.73,0,0,0-.29.07.62.62,0,0,0-.22.17.76.76,0,0,0-.15.23A.74.74,0,0,0,256.85,134.93Z"/><path d="M41.57,137.18h0a1.34,1.34,0,0,1-.37.12,2,2,0,0,1-.39,0,1.92,1.92,0,0,1-.69-.12,1.58,1.58,0,0,1-.54-.37,1.8,1.8,0,0,1-.36-.56,2.05,2.05,0,0,1-.13-.72,1.79,1.79,0,0,1,.15-.75,1.48,1.48,0,0,1,.4-.55,1.79,1.79,0,0,1,.6-.35,2.23,2.23,0,0,1,1.5,0,1.79,1.79,0,0,1,.6.35,1.48,1.48,0,0,1,.4.55,1.79,1.79,0,0,1,.15.75,3.14,3.14,0,0,1,0,.45,2.34,2.34,0,0,1-.12.4,1.84,1.84,0,0,1-.17.38,3.35,3.35,0,0,1-.21.36l-1.5,2.39h-.79Zm-.59-.42a1.28,1.28,0,0,0,.48-.09,1,1,0,0,0,.39-.24,1.23,1.23,0,0,0,.26-.37,1.3,1.3,0,0,0,0-1,1.1,1.1,0,0,0-.65-.62,1.48,1.48,0,0,0-1,0,1.1,1.1,0,0,0-.65.62,1.43,1.43,0,0,0,0,1,1.23,1.23,0,0,0,.26.37,1,1,0,0,0,.39.24A1.28,1.28,0,0,0,41,136.76Z"/><path d="M43.46,136.71a7.07,7.07,0,0,1,.08-1,2.94,2.94,0,0,1,.3-1,1.91,1.91,0,0,1,.59-.7,1.49,1.49,0,0,1,1-.28,1.54,1.54,0,0,1,1,.28,2,2,0,0,1,.59.7,3.19,3.19,0,0,1,.29,1,6.29,6.29,0,0,1,0,2,3.19,3.19,0,0,1-.29.95,2,2,0,0,1-.59.7,1.54,1.54,0,0,1-1,.28,1.49,1.49,0,0,1-1-.28,1.91,1.91,0,0,1-.59-.7,2.94,2.94,0,0,1-.3-.95A7.07,7.07,0,0,1,43.46,136.71Zm.67,0c0,.14,0,.29,0,.46a4.6,4.6,0,0,0,.06.52,3.18,3.18,0,0,0,.13.51,1.65,1.65,0,0,0,.22.44,1.12,1.12,0,0,0,.34.31,1.1,1.1,0,0,0,1,0,1.12,1.12,0,0,0,.34-.31,2,2,0,0,0,.23-.44,4.7,4.7,0,0,0,.12-.51,4.6,4.6,0,0,0,.06-.52c0-.17,0-.32,0-.46s0-.29,0-.46a4.6,4.6,0,0,0-.06-.52,4.7,4.7,0,0,0-.12-.51,2,2,0,0,0-.23-.44,1.12,1.12,0,0,0-.34-.31,1.1,1.1,0,0,0-1,0,1.12,1.12,0,0,0-.34.31,1.65,1.65,0,0,0-.22.44,3.18,3.18,0,0,0-.13.51,4.6,4.6,0,0,0-.06.52C44.14,136.42,44.13,136.57,44.13,136.71Z"/><path d="M48.06,134.93a1.13,1.13,0,0,1,.09-.45,1.06,1.06,0,0,1,.61-.61,1.13,1.13,0,0,1,.45-.09,1.08,1.08,0,0,1,.44.09,1.06,1.06,0,0,1,.61.61,1.13,1.13,0,0,1,.09.45,1,1,0,0,1-.09.44,1.06,1.06,0,0,1-.61.61,1.08,1.08,0,0,1-.44.09,1.13,1.13,0,0,1-.45-.09,1.06,1.06,0,0,1-.61-.61A1,1,0,0,1,48.06,134.93Zm.43,0a.53.53,0,0,0,.06.24.72.72,0,0,0,.14.24.69.69,0,0,0,.22.16.6.6,0,0,0,.3.07.73.73,0,0,0,.51-.23,1,1,0,0,0,.15-.24.69.69,0,0,0,.05-.24.74.74,0,0,0-.05-.25.76.76,0,0,0-.15-.23.62.62,0,0,0-.22-.17.73.73,0,0,0-.29-.07.73.73,0,0,0-.3.07.72.72,0,0,0-.22.17.59.59,0,0,0-.14.23A.57.57,0,0,0,48.49,134.93Z"/><path d="M148.37,38.51h-.68v-4.8h0l-1,.85-.4-.48,1.52-1.24h.59Z"/><path d="M150.49,34.23a1.48,1.48,0,0,1,.13-.61,1.2,1.2,0,0,1,.34-.46,1.44,1.44,0,0,1,.51-.3,1.92,1.92,0,0,1,1.28,0,1.44,1.44,0,0,1,.51.3,1.2,1.2,0,0,1,.34.46,1.33,1.33,0,0,1,.13.61,1.16,1.16,0,0,1-.07.4,1.41,1.41,0,0,1-.18.37,1.33,1.33,0,0,1-.29.29,1.18,1.18,0,0,1-.39.19h0a1.44,1.44,0,0,1,.46.19,1.35,1.35,0,0,1,.35.32,1.42,1.42,0,0,1,.23.44,1.7,1.7,0,0,1,.08.51,1.74,1.74,0,0,1-.14.69,1.43,1.43,0,0,1-.39.52,1.47,1.47,0,0,1-.57.33,2.35,2.35,0,0,1-1.42,0,1.47,1.47,0,0,1-.57-.33,1.55,1.55,0,0,1-.39-.52,1.74,1.74,0,0,1-.14-.69,1.7,1.7,0,0,1,.08-.51,1.67,1.67,0,0,1,.23-.44,1.35,1.35,0,0,1,.35-.32,1.44,1.44,0,0,1,.46-.19h0a1.18,1.18,0,0,1-.39-.19,1.33,1.33,0,0,1-.29-.29,1.41,1.41,0,0,1-.18-.37A1.46,1.46,0,0,1,150.49,34.23ZM151,36.9a1.18,1.18,0,0,0,.09.46,1.07,1.07,0,0,0,.25.35,1,1,0,0,0,.36.23,1.12,1.12,0,0,0,.88,0,1,1,0,0,0,.36-.23,1.07,1.07,0,0,0,.25-.35,1.18,1.18,0,0,0,.09-.46,1.14,1.14,0,0,0-.09-.46,1.13,1.13,0,0,0-.61-.58,1.12,1.12,0,0,0-.88,0,1.13,1.13,0,0,0-.61.58A1.14,1.14,0,0,0,151,36.9Zm.2-2.64a.88.88,0,0,0,.26.67,1,1,0,0,0,1.36,0,1,1,0,0,0,0-1.34,1,1,0,0,0-1.36,0A.88.88,0,0,0,151.17,34.26Z"/><path d="M154.64,35.68a7,7,0,0,1,.08-1,3.1,3.1,0,0,1,.29-1,2,2,0,0,1,.59-.71,1.6,1.6,0,0,1,1-.27,1.55,1.55,0,0,1,.95.27,1.94,1.94,0,0,1,.59.71,2.86,2.86,0,0,1,.3,1,7,7,0,0,1,.08,1,7.07,7.07,0,0,1-.08,1,2.88,2.88,0,0,1-.3.94,1.94,1.94,0,0,1-.59.71,1.55,1.55,0,0,1-.95.27,1.6,1.6,0,0,1-1-.27,2,2,0,0,1-.59-.71,3.13,3.13,0,0,1-.29-.94A7.07,7.07,0,0,1,154.64,35.68Zm.67,0c0,.13,0,.29,0,.46a4.88,4.88,0,0,0,.06.52,4.05,4.05,0,0,0,.12.5,1.66,1.66,0,0,0,.23.44,1.12,1.12,0,0,0,.34.31,1,1,0,0,0,1,0,1.12,1.12,0,0,0,.34-.31,1.4,1.4,0,0,0,.22-.44,2.83,2.83,0,0,0,.13-.5,4.88,4.88,0,0,0,.06-.52c0-.17,0-.33,0-.46s0-.3,0-.47a4.43,4.43,0,0,0-.06-.51,2.72,2.72,0,0,0-.13-.51,1.51,1.51,0,0,0-.22-.44,1.12,1.12,0,0,0-.34-.31,1,1,0,0,0-1,0,1.12,1.12,0,0,0-.34.31,1.83,1.83,0,0,0-.23.44,3.81,3.81,0,0,0-.12.51,4.43,4.43,0,0,0-.06.51C155.32,35.38,155.31,35.54,155.31,35.68Z"/><path d="M159.24,33.89a1.15,1.15,0,0,1,.33-.81,1,1,0,0,1,.37-.24,1,1,0,0,1,.44-.09,1.15,1.15,0,0,1,.82,2,1.15,1.15,0,0,1-.37.25,1.13,1.13,0,0,1-.45.09,1.15,1.15,0,0,1-.81-.34,1.15,1.15,0,0,1-.33-.81Zm.43,0a.79.79,0,0,0,.05.25,1.14,1.14,0,0,0,.15.23.62.62,0,0,0,.22.17.72.72,0,0,0,.29.06.68.68,0,0,0,.52-.23.79.79,0,0,0,.14-.23.65.65,0,0,0,0-.5.79.79,0,0,0-.14-.23.81.81,0,0,0-.23-.17.65.65,0,0,0-.29-.06.72.72,0,0,0-.29.06.76.76,0,0,0-.22.17,1.14,1.14,0,0,0-.15.23A.79.79,0,0,0,159.67,33.89Z"/><path d="M203.18,38.51h-.68v-4.8h0l-1,.85-.4-.48,1.52-1.24h.59Z"/><path d="M208.49,33.47h-2.31l0,1.53a1.08,1.08,0,0,1,.36-.11l.37,0a2,2,0,0,1,.74.14,1.61,1.61,0,0,1,.57.39,1.9,1.9,0,0,1,.37.59,2,2,0,0,1,.13.74,2,2,0,0,1-.15.78,1.74,1.74,0,0,1-.41.59,1.91,1.91,0,0,1-.61.38,2.2,2.2,0,0,1-.78.13,1.73,1.73,0,0,1-1-.28,2,2,0,0,1-.63-.75l.67-.25a1.31,1.31,0,0,0,.42.51,1.1,1.1,0,0,0,.64.2,1.28,1.28,0,0,0,.48-.09,1.26,1.26,0,0,0,.38-.27,1.15,1.15,0,0,0,.26-.41,1.53,1.53,0,0,0,.1-.54,1.38,1.38,0,0,0-.11-.55,1.08,1.08,0,0,0-.3-.4,1.26,1.26,0,0,0-.44-.25,1.67,1.67,0,0,0-.55-.08,1.84,1.84,0,0,0-.6.1,2.58,2.58,0,0,0-.56.25l.06-2.95h3Z"/><path d="M209.45,35.68a7,7,0,0,1,.08-1,3.1,3.1,0,0,1,.29-1,2,2,0,0,1,.59-.71,1.6,1.6,0,0,1,1-.27,1.55,1.55,0,0,1,.95.27,1.94,1.94,0,0,1,.59.71,2.86,2.86,0,0,1,.3,1,7,7,0,0,1,.08,1,7.07,7.07,0,0,1-.08,1,2.88,2.88,0,0,1-.3.94,1.94,1.94,0,0,1-.59.71,1.55,1.55,0,0,1-.95.27,1.6,1.6,0,0,1-1-.27,2,2,0,0,1-.59-.71,3.13,3.13,0,0,1-.29-.94A7.07,7.07,0,0,1,209.45,35.68Zm.67,0c0,.13,0,.29,0,.46a4.88,4.88,0,0,0,.06.52,4.05,4.05,0,0,0,.12.5,1.66,1.66,0,0,0,.23.44,1,1,0,0,0,.34.31.9.9,0,0,0,.48.12,1,1,0,0,0,.48-.12,1.24,1.24,0,0,0,.34-.31,1.4,1.4,0,0,0,.22-.44,2.83,2.83,0,0,0,.13-.5,4.88,4.88,0,0,0,.06-.52c0-.17,0-.33,0-.46s0-.3,0-.47a4.43,4.43,0,0,0-.06-.51,2.72,2.72,0,0,0-.13-.51,1.51,1.51,0,0,0-.22-.44,1.24,1.24,0,0,0-.34-.31,1,1,0,0,0-.48-.12.9.9,0,0,0-.48.12,1,1,0,0,0-.34.31,1.83,1.83,0,0,0-.23.44,3.81,3.81,0,0,0-.12.51,4.43,4.43,0,0,0-.06.51C210.13,35.38,210.12,35.54,210.12,35.68Z"/><path d="M214.05,33.89a1.15,1.15,0,0,1,.33-.81,1,1,0,0,1,.37-.24,1,1,0,0,1,.44-.09,1.13,1.13,0,0,1,.45.09,1,1,0,0,1,.36.24,1,1,0,0,1,.25.36,1.17,1.17,0,0,1,0,.9,1.23,1.23,0,0,1-.61.61,1.13,1.13,0,0,1-.45.09,1.15,1.15,0,0,1-.81-.34,1.15,1.15,0,0,1-.33-.81Zm.43,0a.79.79,0,0,0,.05.25,1.14,1.14,0,0,0,.15.23.62.62,0,0,0,.22.17.72.72,0,0,0,.29.06.68.68,0,0,0,.52-.23.79.79,0,0,0,.14-.23.65.65,0,0,0,0-.5.79.79,0,0,0-.14-.23.81.81,0,0,0-.23-.17.65.65,0,0,0-.29-.06.72.72,0,0,0-.29.06.76.76,0,0,0-.22.17,1.14,1.14,0,0,0-.15.23A.79.79,0,0,0,214.48,33.89Z"/><path d="M93.61,38.51h-.67v-4.8h0l-1,.85-.4-.48L93,32.84h.58Z"/><path d="M98.92,33.47H96.61l0,1.53a1,1,0,0,1,.35-.11l.37,0a1.91,1.91,0,0,1,.74.14,1.65,1.65,0,0,1,.58.39A1.71,1.71,0,0,1,99,36a2,2,0,0,1,.13.74,2,2,0,0,1-.15.78,1.71,1.71,0,0,1-.4.59,2,2,0,0,1-.62.38,2.15,2.15,0,0,1-.77.13,1.78,1.78,0,0,1-1.05-.28,1.85,1.85,0,0,1-.62-.75l.67-.25a1.16,1.16,0,0,0,.42.51,1.05,1.05,0,0,0,.63.2,1.28,1.28,0,0,0,.48-.09,1.23,1.23,0,0,0,.64-.68,1.33,1.33,0,0,0,.1-.54,1.38,1.38,0,0,0-.11-.55,1.18,1.18,0,0,0-.29-.4,1.41,1.41,0,0,0-.45-.25,1.63,1.63,0,0,0-.55-.08,1.78,1.78,0,0,0-.59.1,2.58,2.58,0,0,0-.56.25l0-2.95h3Z"/><path d="M99.88,35.68a7,7,0,0,1,.08-1,3.11,3.11,0,0,1,.3-1,1.94,1.94,0,0,1,.59-.71,1.55,1.55,0,0,1,1-.27,1.6,1.6,0,0,1,1,.27,2,2,0,0,1,.59.71,3.1,3.1,0,0,1,.29,1,5.77,5.77,0,0,1,.08,1,5.85,5.85,0,0,1-.08,1,3.13,3.13,0,0,1-.29.94,2,2,0,0,1-.59.71,1.6,1.6,0,0,1-1,.27,1.55,1.55,0,0,1-1-.27,1.94,1.94,0,0,1-.59-.71,3.14,3.14,0,0,1-.3-.94A7.07,7.07,0,0,1,99.88,35.68Zm.67,0c0,.13,0,.29,0,.46a4.88,4.88,0,0,0,.06.52,2.83,2.83,0,0,0,.13.5,1.4,1.4,0,0,0,.22.44,1.24,1.24,0,0,0,.34.31,1,1,0,0,0,.48.12.9.9,0,0,0,.48-.12,1,1,0,0,0,.34-.31,1.41,1.41,0,0,0,.23-.44,4.05,4.05,0,0,0,.12-.5,4.88,4.88,0,0,0,.06-.52c0-.17,0-.33,0-.46s0-.3,0-.47a4.43,4.43,0,0,0-.06-.51,3.81,3.81,0,0,0-.12-.51,1.53,1.53,0,0,0-.23-.44,1,1,0,0,0-.34-.31.9.9,0,0,0-.48-.12,1,1,0,0,0-.48.12,1.24,1.24,0,0,0-.34.31,1.51,1.51,0,0,0-.22.44,2.72,2.72,0,0,0-.13.51,4.43,4.43,0,0,0-.06.51C100.56,35.38,100.55,35.54,100.55,35.68Z"/><path d="M104.48,33.89a1.15,1.15,0,0,1,1.15-1.14,1,1,0,0,1,.44.09,1.12,1.12,0,0,1,.37.24,1.16,1.16,0,0,1,0,1.62,1.15,1.15,0,0,1-.37.25,1,1,0,0,1-.44.09,1.13,1.13,0,0,1-.45-.09,1.15,1.15,0,0,1-.37-.25,1.15,1.15,0,0,1-.33-.81Zm.43,0a.61.61,0,0,0,.06.25.79.79,0,0,0,.14.23.72.72,0,0,0,.22.17.73.73,0,0,0,.3.06.72.72,0,0,0,.29-.06.62.62,0,0,0,.22-.17,1.14,1.14,0,0,0,.15-.23.65.65,0,0,0,0-.5,1.14,1.14,0,0,0-.15-.23.76.76,0,0,0-.22-.17.72.72,0,0,0-.29-.06.73.73,0,0,0-.3.06.92.92,0,0,0-.22.17.79.79,0,0,0-.14.23A.61.61,0,0,0,104.91,33.89Z"/><path d="M248.75,192.45v0a1.35,1.35,0,0,1,.37-.13,2,2,0,0,1,.39,0,1.73,1.73,0,0,1,.69.13,1.42,1.42,0,0,1,.54.36,1.85,1.85,0,0,1,.36.57,2,2,0,0,1,.12.72,1.78,1.78,0,0,1-.14.74,1.74,1.74,0,0,1-.4.56,2,2,0,0,1-.6.35,2.36,2.36,0,0,1-.75.12,2.27,2.27,0,0,1-.75-.12,2,2,0,0,1-.6-.35,1.6,1.6,0,0,1-.4-.56,1.78,1.78,0,0,1-.15-.74,2.24,2.24,0,0,1,.15-.86,5.28,5.28,0,0,1,.39-.74l1.5-2.39h.79Zm.59.43a1.23,1.23,0,0,0-.87.32,1,1,0,0,0-.26.38,1.31,1.31,0,0,0-.1.5,1.35,1.35,0,0,0,.1.5,1.08,1.08,0,0,0,.26.37,1,1,0,0,0,.39.24,1.32,1.32,0,0,0,1,0,1,1,0,0,0,.39-.24,1.23,1.23,0,0,0,.26-.37,1.35,1.35,0,0,0,.09-.5,1.31,1.31,0,0,0-.09-.5,1.16,1.16,0,0,0-.26-.38,1.23,1.23,0,0,0-.87-.32Z"/><path d="M251.82,192.92a7.07,7.07,0,0,1,.08-1,3.13,3.13,0,0,1,.29-.94,2,2,0,0,1,.59-.71,1.6,1.6,0,0,1,1-.27,1.55,1.55,0,0,1,.95.27,1.94,1.94,0,0,1,.59.71,2.88,2.88,0,0,1,.3.94,7.07,7.07,0,0,1,.08,1,7,7,0,0,1-.08,1,2.86,2.86,0,0,1-.3,1,1.94,1.94,0,0,1-.59.71,1.55,1.55,0,0,1-.95.27,1.6,1.6,0,0,1-1-.27,2,2,0,0,1-.59-.71,3.1,3.1,0,0,1-.29-1A7,7,0,0,1,251.82,192.92Zm.67,0c0,.14,0,.3,0,.47a4.43,4.43,0,0,0,.06.51,3.81,3.81,0,0,0,.12.51,1.83,1.83,0,0,0,.23.44,1,1,0,0,0,.34.31.9.9,0,0,0,.48.12,1,1,0,0,0,.48-.12,1.24,1.24,0,0,0,.34-.31,1.51,1.51,0,0,0,.22-.44,2.72,2.72,0,0,0,.13-.51,4.43,4.43,0,0,0,.06-.51c0-.17,0-.33,0-.47s0-.29,0-.46a4.88,4.88,0,0,0-.06-.52,2.83,2.83,0,0,0-.13-.5,1.4,1.4,0,0,0-.22-.44,1.1,1.1,0,0,0-.34-.31,1,1,0,0,0-.48-.12.9.9,0,0,0-.48.12.92.92,0,0,0-.34.31,1.66,1.66,0,0,0-.23.44,4.05,4.05,0,0,0-.12.5,4.88,4.88,0,0,0-.06.52C252.5,192.63,252.49,192.79,252.49,192.92Z"/><path d="M256.42,191.14a1.15,1.15,0,0,1,.33-.81,1.05,1.05,0,0,1,.37-.25,1.23,1.23,0,0,1,.44-.08,1.33,1.33,0,0,1,.45.08,1.15,1.15,0,0,1,.37.25,1.16,1.16,0,0,1,0,1.62,1.15,1.15,0,0,1-.37.25,1.33,1.33,0,0,1-.45.08,1.23,1.23,0,0,1-.44-.08,1.05,1.05,0,0,1-.37-.25,1.15,1.15,0,0,1-.33-.81Zm.43,0a.79.79,0,0,0,0,.25,1.14,1.14,0,0,0,.15.23.62.62,0,0,0,.22.17.72.72,0,0,0,.29.06.68.68,0,0,0,.52-.23.79.79,0,0,0,.14-.23.65.65,0,0,0,0-.5.79.79,0,0,0-.14-.23.68.68,0,0,0-.52-.23.72.72,0,0,0-.29.06.62.62,0,0,0-.22.17,1.14,1.14,0,0,0-.15.23A.79.79,0,0,0,256.85,191.14Z"/><path d="M250,81.22h-.67v-4.8h0l-1,.86-.4-.49,1.52-1.23H250Z"/><path d="M251.92,80.45l2.13-2.08c.13-.12.25-.24.35-.35a2.16,2.16,0,0,0,.25-.32,1.09,1.09,0,0,0,.15-.33,1.38,1.38,0,0,0,0-.37,1,1,0,0,0-.08-.4.84.84,0,0,0-.22-.3.78.78,0,0,0-.33-.19,1.05,1.05,0,0,0-.4-.07,1,1,0,0,0-.71.25,1.08,1.08,0,0,0-.36.65l-.73-.06a1.83,1.83,0,0,1,.21-.61,1.41,1.41,0,0,1,.39-.45,2,2,0,0,1,.53-.27,2.25,2.25,0,0,1,.64-.09,2.41,2.41,0,0,1,.67.1,1.92,1.92,0,0,1,.55.29,1.44,1.44,0,0,1,.51,1.15,2,2,0,0,1-.09.61,2,2,0,0,1-.25.5,3.47,3.47,0,0,1-.35.43l-.41.4-1.75,1.64v0h2.89v.62h-3.64Z"/><path d="M256.27,78.39a5.85,5.85,0,0,1,.08-1,3.19,3.19,0,0,1,.29-1,2,2,0,0,1,.59-.7,1.54,1.54,0,0,1,1-.28,1.51,1.51,0,0,1,.95.28,1.91,1.91,0,0,1,.59.7,3.2,3.2,0,0,1,.3,1,6.29,6.29,0,0,1,0,2,3.2,3.2,0,0,1-.3,1,1.91,1.91,0,0,1-.59.7,1.51,1.51,0,0,1-.95.28,1.54,1.54,0,0,1-1-.28,2,2,0,0,1-.59-.7,3.19,3.19,0,0,1-.29-1A5.85,5.85,0,0,1,256.27,78.39Zm.67,0a3.78,3.78,0,0,0,0,.46c0,.17,0,.35.05.52a4.77,4.77,0,0,0,.13.51,1.67,1.67,0,0,0,.23.44,1,1,0,0,0,.34.31,1,1,0,0,0,.48.11,1.06,1.06,0,0,0,.48-.11,1.24,1.24,0,0,0,.34-.31,2,2,0,0,0,.22-.44,3.18,3.18,0,0,0,.13-.51,4.6,4.6,0,0,0,.06-.52c0-.17,0-.32,0-.46s0-.29,0-.46a4.35,4.35,0,0,0-.06-.52,3.18,3.18,0,0,0-.13-.51,2,2,0,0,0-.22-.44,1.24,1.24,0,0,0-.34-.31,1.06,1.06,0,0,0-.48-.11,1,1,0,0,0-.48.11,1,1,0,0,0-.34.31,1.67,1.67,0,0,0-.23.44,4.77,4.77,0,0,0-.13.51c0,.17,0,.34-.05.52A3.78,3.78,0,0,0,256.94,78.39Z"/><path d="M260.87,76.61a1.13,1.13,0,0,1,.09-.45,1,1,0,0,1,.24-.37,1.16,1.16,0,0,1,1.62,0,1.15,1.15,0,0,1,.25.37,1.13,1.13,0,0,1,.09.45,1,1,0,0,1-.09.44,1.15,1.15,0,0,1-.25.37,1.16,1.16,0,0,1-1.62,0,1,1,0,0,1-.24-.37A1,1,0,0,1,260.87,76.61Zm.43,0a.69.69,0,0,0,.05.24.75.75,0,0,0,.15.24.6.6,0,0,0,.22.16.64.64,0,0,0,.58,0,.63.63,0,0,0,.23-.16.72.72,0,0,0,.14-.24.52.52,0,0,0,.05-.24.56.56,0,0,0-.05-.25.59.59,0,0,0-.14-.23.66.66,0,0,0-.23-.17.64.64,0,0,0-.58,0,.62.62,0,0,0-.22.17.61.61,0,0,0-.15.23A.74.74,0,0,0,261.3,76.61Z"/><path d="M40.39,192.45v0a1.42,1.42,0,0,1,.38-.13,1.84,1.84,0,0,1,.39,0,1.72,1.72,0,0,1,.68.13,1.42,1.42,0,0,1,.54.36,1.85,1.85,0,0,1,.36.57,2,2,0,0,1,.13.72,1.78,1.78,0,0,1-.15.74,1.6,1.6,0,0,1-.4.56,2,2,0,0,1-.6.35,2.4,2.4,0,0,1-1.5,0,2,2,0,0,1-.6-.35,1.6,1.6,0,0,1-.4-.56,1.78,1.78,0,0,1-.15-.74,2.24,2.24,0,0,1,.16-.86,5.19,5.19,0,0,1,.38-.74l1.5-2.39h.79Zm.59.43a1.23,1.23,0,0,0-.87.32,1.16,1.16,0,0,0-.26.38,1.31,1.31,0,0,0-.09.5,1.35,1.35,0,0,0,.09.5,1.23,1.23,0,0,0,.26.37,1,1,0,0,0,.39.24,1.32,1.32,0,0,0,1,0,1,1,0,0,0,.39-.24,1.23,1.23,0,0,0,.26-.37,1.35,1.35,0,0,0,.1-.5,1.31,1.31,0,0,0-.1-.5,1.16,1.16,0,0,0-.26-.38,1.23,1.23,0,0,0-.87-.32Z"/><path d="M43.46,192.92a7.07,7.07,0,0,1,.08-1,2.88,2.88,0,0,1,.3-.94,1.94,1.94,0,0,1,.59-.71,1.55,1.55,0,0,1,1-.27,1.6,1.6,0,0,1,1,.27,2,2,0,0,1,.59.71,3.13,3.13,0,0,1,.29.94,7.07,7.07,0,0,1,.08,1,7,7,0,0,1-.08,1,3.1,3.1,0,0,1-.29,1,2,2,0,0,1-.59.71,1.6,1.6,0,0,1-1,.27,1.55,1.55,0,0,1-1-.27,1.94,1.94,0,0,1-.59-.71,2.86,2.86,0,0,1-.3-1A7,7,0,0,1,43.46,192.92Zm.67,0c0,.14,0,.3,0,.47a4.43,4.43,0,0,0,.06.51,2.72,2.72,0,0,0,.13.51,1.51,1.51,0,0,0,.22.44,1.12,1.12,0,0,0,.34.31,1,1,0,0,0,1,0,1.12,1.12,0,0,0,.34-.31,1.83,1.83,0,0,0,.23-.44,3.81,3.81,0,0,0,.12-.51,4.43,4.43,0,0,0,.06-.51c0-.17,0-.33,0-.47s0-.29,0-.46a4.88,4.88,0,0,0-.06-.52,4.05,4.05,0,0,0-.12-.5,1.66,1.66,0,0,0-.23-.44,1,1,0,0,0-.34-.31,1,1,0,0,0-1,0,1,1,0,0,0-.34.31,1.4,1.4,0,0,0-.22.44,2.83,2.83,0,0,0-.13.5,4.88,4.88,0,0,0-.06.52C44.14,192.63,44.13,192.79,44.13,192.92Z"/><path d="M48.06,191.14a1.15,1.15,0,0,1,.33-.81,1.15,1.15,0,0,1,.37-.25,1.33,1.33,0,0,1,.45-.08,1.27,1.27,0,0,1,.44.08,1.15,1.15,0,0,1,.37.25A1.16,1.16,0,0,1,50,192a1.15,1.15,0,0,1-.37.25,1.27,1.27,0,0,1-.44.08,1.33,1.33,0,0,1-.45-.08,1.15,1.15,0,0,1-.37-.25,1.15,1.15,0,0,1-.33-.81Zm.43,0a.61.61,0,0,0,.06.25.79.79,0,0,0,.14.23.72.72,0,0,0,.22.17.73.73,0,0,0,.3.06.72.72,0,0,0,.29-.06.62.62,0,0,0,.22-.17,1.14,1.14,0,0,0,.15-.23.65.65,0,0,0,0-.5,1.14,1.14,0,0,0-.15-.23.62.62,0,0,0-.22-.17.72.72,0,0,0-.29-.06.73.73,0,0,0-.3.06.72.72,0,0,0-.22.17.79.79,0,0,0-.14.23A.61.61,0,0,0,48.49,191.14Z"/><path d="M39.15,81.22h-.67v-4.8h0l-1,.86-.4-.49,1.52-1.23h.58Z"/><path d="M41.07,80.45l2.14-2.08c.13-.12.25-.24.35-.35a2.16,2.16,0,0,0,.25-.32,1.09,1.09,0,0,0,.15-.33A1.38,1.38,0,0,0,44,77a1,1,0,0,0-.08-.4.84.84,0,0,0-.22-.3.78.78,0,0,0-.33-.19A1.05,1.05,0,0,0,43,76a1,1,0,0,0-.72.25,1.19,1.19,0,0,0-.36.65l-.72-.06a1.47,1.47,0,0,1,.21-.61,1.41,1.41,0,0,1,.39-.45,2,2,0,0,1,.53-.27,2.2,2.2,0,0,1,.64-.09,2.41,2.41,0,0,1,.67.1,2.06,2.06,0,0,1,.55.29,1.47,1.47,0,0,1,.37.48,1.6,1.6,0,0,1,.14.67,2,2,0,0,1-.09.61,2.34,2.34,0,0,1-.25.5,3.47,3.47,0,0,1-.35.43l-.41.4-1.75,1.64v0h2.89v.62H41.07Z"/><path d="M45.43,78.39a7,7,0,0,1,.07-1,3.52,3.52,0,0,1,.3-1,2,2,0,0,1,.59-.7,1.77,1.77,0,0,1,1.91,0,1.91,1.91,0,0,1,.59.7,3.52,3.52,0,0,1,.3,1,6.29,6.29,0,0,1,0,2,3.52,3.52,0,0,1-.3,1,1.91,1.91,0,0,1-.59.7,1.77,1.77,0,0,1-1.91,0,2,2,0,0,1-.59-.7,3.52,3.52,0,0,1-.3-1A7,7,0,0,1,45.43,78.39Zm.67,0c0,.14,0,.29,0,.46a4.6,4.6,0,0,0,.06.52,4.77,4.77,0,0,0,.13.51,2,2,0,0,0,.22.44,1.15,1.15,0,0,0,.35.31,1,1,0,0,0,.48.11,1.06,1.06,0,0,0,.48-.11,1.24,1.24,0,0,0,.34-.31,2,2,0,0,0,.22-.44,3.18,3.18,0,0,0,.13-.51,4.6,4.6,0,0,0,.06-.52c0-.17,0-.32,0-.46s0-.29,0-.46a4.35,4.35,0,0,0-.06-.52,3.18,3.18,0,0,0-.13-.51,2,2,0,0,0-.22-.44,1.24,1.24,0,0,0-.34-.31,1.06,1.06,0,0,0-.48-.11,1,1,0,0,0-.48.11,1.15,1.15,0,0,0-.35.31,2,2,0,0,0-.22.44,4.77,4.77,0,0,0-.13.51,4.35,4.35,0,0,0-.06.52C46.1,78.1,46.1,78.25,46.1,78.39Z"/><path d="M50,76.61a1.12,1.12,0,0,1,.08-.45,1.15,1.15,0,0,1,.25-.37,1.16,1.16,0,0,1,1.62,0,1.15,1.15,0,0,1,.25.37,1.33,1.33,0,0,1,.08.45,1.23,1.23,0,0,1-.08.44,1.15,1.15,0,0,1-.25.37,1.16,1.16,0,0,1-1.62,0,1.15,1.15,0,0,1-.25-.37A1,1,0,0,1,50,76.61Zm.43,0a.52.52,0,0,0,0,.24.72.72,0,0,0,.14.24.63.63,0,0,0,.23.16.64.64,0,0,0,.58,0,.73.73,0,0,0,.23-.16,1,1,0,0,0,.14-.24.69.69,0,0,0,.05-.24.75.75,0,0,0-.19-.48.76.76,0,0,0-.23-.17.64.64,0,0,0-.58,0,.66.66,0,0,0-.23.17.59.59,0,0,0-.14.23A.56.56,0,0,0,50.46,76.61Z"/></g><g id="numeri_fondo_tabella" data-name="numeri fondo tabella"><path d="M131.83,251.42a1.17,1.17,0,0,0-.43-.35,1.19,1.19,0,0,0-.51-.11,1.35,1.35,0,0,0-.55.11,1.08,1.08,0,0,0-.4.3,1.32,1.32,0,0,0-.23.44,1.76,1.76,0,0,0,0,1.08,1.43,1.43,0,0,0,.26.45,1.31,1.31,0,0,0,.39.3,1.27,1.27,0,0,0,.52.1,1.09,1.09,0,0,0,1-.46l.47.44a1.69,1.69,0,0,1-.64.46,2.29,2.29,0,0,1-.78.14,2.22,2.22,0,0,1-.79-.14,1.75,1.75,0,0,1-1-1,2.27,2.27,0,0,1,0-1.57,1.86,1.86,0,0,1,.39-.63,2,2,0,0,1,.61-.41,2,2,0,0,1,.79-.15,2.09,2.09,0,0,1,.79.15,1.59,1.59,0,0,1,.65.45Z"/><path d="M136.21,253.56h0a1.43,1.43,0,0,1-.55.54,1.7,1.7,0,0,1-.89.22,1.8,1.8,0,0,1-.73-.15,1.78,1.78,0,0,1-.6-.41,1.81,1.81,0,0,1-.39-.62,2.06,2.06,0,0,1-.15-.79,2,2,0,0,1,.15-.78,1.88,1.88,0,0,1,.4-.63,1.81,1.81,0,0,1,.62-.41,2.07,2.07,0,0,1,.8-.15,1.72,1.72,0,0,1,.75.17,1.78,1.78,0,0,1,.59.47h0v-2.84h.62v6h-.62Zm0-1.21a1.63,1.63,0,0,0-.09-.55,1.34,1.34,0,0,0-.27-.44,1.37,1.37,0,0,0-.42-.29,1.35,1.35,0,0,0-.55-.11,1.42,1.42,0,0,0-.55.11,1.22,1.22,0,0,0-.41.29,1.34,1.34,0,0,0-.27.44,1.56,1.56,0,0,0,0,1.1,1.25,1.25,0,0,0,.27.44,1.19,1.19,0,0,0,1,.4,1.35,1.35,0,0,0,.55-.1,1.6,1.6,0,0,0,.42-.3,1.25,1.25,0,0,0,.27-.44A1.63,1.63,0,0,0,136.21,252.35Z"/><path d="M140.1,254.57l-.5-.2,2.4-6.15.51.2Z"/><path d="M147.64,254.22H147v-4.8h0l-1,.86-.4-.49,1.52-1.23h.59Z"/><path d="M149.46,251.39a7.07,7.07,0,0,1,.08-1,3.19,3.19,0,0,1,.29-.95,2,2,0,0,1,.59-.7,1.61,1.61,0,0,1,1-.28,1.55,1.55,0,0,1,1,.28,1.91,1.91,0,0,1,.59.7,2.94,2.94,0,0,1,.3.95,6.29,6.29,0,0,1,0,2,2.94,2.94,0,0,1-.3,1,1.91,1.91,0,0,1-.59.7,1.49,1.49,0,0,1-1,.28,1.54,1.54,0,0,1-1-.28,2,2,0,0,1-.59-.7,3.19,3.19,0,0,1-.29-1A7.07,7.07,0,0,1,149.46,251.39Zm.67,0c0,.14,0,.29,0,.47a4.43,4.43,0,0,0,.06.51,4.7,4.7,0,0,0,.12.51,2,2,0,0,0,.23.44,1.12,1.12,0,0,0,.34.31,1.1,1.1,0,0,0,1,0,1.12,1.12,0,0,0,.34-.31,1.65,1.65,0,0,0,.22-.44,3.18,3.18,0,0,0,.13-.51,4.43,4.43,0,0,0,.06-.51c0-.18,0-.33,0-.47s0-.29,0-.46a4.6,4.6,0,0,0-.06-.52,3.18,3.18,0,0,0-.13-.51,1.65,1.65,0,0,0-.22-.44,1.08,1.08,0,0,0-.34-.3,1,1,0,0,0-1,0,1.08,1.08,0,0,0-.34.3,2,2,0,0,0-.23.44,4.7,4.7,0,0,0-.12.51,4.6,4.6,0,0,0-.06.52C150.14,251.1,150.13,251.25,150.13,251.39Z"/><path d="M153.91,251.39a5.85,5.85,0,0,1,.08-1,3.19,3.19,0,0,1,.29-.95,2,2,0,0,1,.59-.7,1.61,1.61,0,0,1,1-.28,1.55,1.55,0,0,1,.95.28,1.91,1.91,0,0,1,.59.7,3.2,3.2,0,0,1,.3.95,6.29,6.29,0,0,1,0,2,3.2,3.2,0,0,1-.3,1,1.91,1.91,0,0,1-.59.7,1.49,1.49,0,0,1-.95.28,1.54,1.54,0,0,1-1-.28,2,2,0,0,1-.59-.7,3.19,3.19,0,0,1-.29-1A5.85,5.85,0,0,1,153.91,251.39Zm.67,0a4,4,0,0,0,0,.47,4.43,4.43,0,0,0,.06.51,3.14,3.14,0,0,0,.12.51,1.67,1.67,0,0,0,.23.44,1,1,0,0,0,.34.31.9.9,0,0,0,.48.11,1,1,0,0,0,.48-.11,1.24,1.24,0,0,0,.34-.31,1.65,1.65,0,0,0,.22-.44,3.18,3.18,0,0,0,.13-.51,4.43,4.43,0,0,0,.06-.51c0-.18,0-.33,0-.47s0-.29,0-.46a4.6,4.6,0,0,0-.06-.52,3.18,3.18,0,0,0-.13-.51,1.65,1.65,0,0,0-.22-.44,1.21,1.21,0,0,0-.34-.3,1,1,0,0,0-.48-.12.9.9,0,0,0-.48.12,1,1,0,0,0-.34.3,1.67,1.67,0,0,0-.23.44,3.14,3.14,0,0,0-.12.51,4.6,4.6,0,0,0-.06.52A3.78,3.78,0,0,0,154.58,251.39Z"/><path d="M158.31,251.39a5.85,5.85,0,0,1,.08-1,3.19,3.19,0,0,1,.29-.95,2,2,0,0,1,.59-.7,1.61,1.61,0,0,1,1-.28,1.55,1.55,0,0,1,1,.28,1.91,1.91,0,0,1,.59.7,3.2,3.2,0,0,1,.3.95,6.29,6.29,0,0,1,0,2,3.2,3.2,0,0,1-.3,1,1.91,1.91,0,0,1-.59.7,1.49,1.49,0,0,1-1,.28,1.54,1.54,0,0,1-1-.28,2,2,0,0,1-.59-.7,3.19,3.19,0,0,1-.29-1A5.85,5.85,0,0,1,158.31,251.39Zm.67,0c0,.14,0,.29,0,.47a4.43,4.43,0,0,0,.06.51,3.14,3.14,0,0,0,.12.51,1.67,1.67,0,0,0,.23.44,1,1,0,0,0,.34.31.9.9,0,0,0,.48.11,1,1,0,0,0,.48-.11,1.24,1.24,0,0,0,.34-.31,1.65,1.65,0,0,0,.22-.44,3.18,3.18,0,0,0,.13-.51,4.43,4.43,0,0,0,.06-.51c0-.18,0-.33,0-.47s0-.29,0-.46a4.6,4.6,0,0,0-.06-.52,3.18,3.18,0,0,0-.13-.51,1.65,1.65,0,0,0-.22-.44,1.21,1.21,0,0,0-.34-.3,1,1,0,0,0-.48-.12.9.9,0,0,0-.48.12,1,1,0,0,0-.34.3,1.67,1.67,0,0,0-.23.44,3.14,3.14,0,0,0-.12.51,4.6,4.6,0,0,0-.06.52C159,251.1,159,251.25,159,251.39Z"/><path d="M165.32,248.18H166v6h-.63Z"/><path d="M167.19,251.37c0-.17,0-.33,0-.48s0-.29,0-.41h.59c0,.1,0,.2,0,.3v.32h0a.91.91,0,0,1,.18-.27,1.64,1.64,0,0,1,.28-.23,1.5,1.5,0,0,1,.36-.16,1.44,1.44,0,0,1,.43-.06,1.52,1.52,0,0,1,.51.08,1.36,1.36,0,0,1,.34.18.93.93,0,0,1,.21.24,1.64,1.64,0,0,1,.12.22,1.78,1.78,0,0,1,.48-.53,1.27,1.27,0,0,1,.71-.19,1.88,1.88,0,0,1,.67.11,1.1,1.1,0,0,1,.44.31,1.37,1.37,0,0,1,.24.5,2.59,2.59,0,0,1,.07.65v2.27h-.62V252a2.33,2.33,0,0,0,0-.37,1,1,0,0,0-.15-.33.71.71,0,0,0-.28-.23,1,1,0,0,0-.45-.09,1,1,0,0,0-.37.08,1,1,0,0,0-.31.22,1.13,1.13,0,0,0-.21.35,1.33,1.33,0,0,0-.07.45v2.16h-.63V252.1a1.62,1.62,0,0,0-.17-.88A.6.6,0,0,0,169,251a1.18,1.18,0,0,0-.52.1.88.88,0,0,0-.36.3,1.14,1.14,0,0,0-.21.46,2.1,2.1,0,0,0-.07.58v1.82h-.62Z"/><line class="cls-1" x1="38.21" y1="253" x2="46.2" y2="253"/><path d="M235.17,251a1.66,1.66,0,0,0-.63-.52,1.93,1.93,0,0,0-.79-.17,2.13,2.13,0,0,0-.87.19,2.16,2.16,0,0,0-.68.52,2.58,2.58,0,0,0-.45.75,2.69,2.69,0,0,0-.16.89,2.79,2.79,0,0,0,.16.93,2.41,2.41,0,0,0,.45.74,2,2,0,0,0,.68.5,1.92,1.92,0,0,0,.87.19,2,2,0,0,0,1.64-.8l.51.43a2.38,2.38,0,0,1-.93.75,3,3,0,0,1-1.22.24,2.85,2.85,0,0,1-1.13-.22,2.82,2.82,0,0,1-.92-.62,3,3,0,0,1-.61-.94,3.33,3.33,0,0,1-.22-1.2,3.19,3.19,0,0,1,.21-1.16,2.9,2.9,0,0,1,.6-1,3.08,3.08,0,0,1,.91-.63,3,3,0,0,1,2.27,0,2,2,0,0,1,.89.68Z"/><path d="M239,253.1l0,0a1.35,1.35,0,0,1-.37.13,2.87,2.87,0,0,1-.39,0,1.68,1.68,0,0,1-.68-.13,1.5,1.5,0,0,1-.55-.36,1.92,1.92,0,0,1-.36-.56,2.11,2.11,0,0,1-.12-.73,1.75,1.75,0,0,1,.14-.74,1.63,1.63,0,0,1,.4-.56,1.79,1.79,0,0,1,.6-.35,2.36,2.36,0,0,1,.75-.12,2.27,2.27,0,0,1,.75.12,1.94,1.94,0,0,1,.61.35,1.49,1.49,0,0,1,.39.56,1.75,1.75,0,0,1,.15.74,2.19,2.19,0,0,1,0,.46c0,.14-.07.27-.11.4a2.53,2.53,0,0,1-.18.37,3.35,3.35,0,0,1-.21.36l-1.5,2.4h-.79Zm-.6-.43a1.51,1.51,0,0,0,.48-.08,1.28,1.28,0,0,0,.39-.24,1.12,1.12,0,0,0,.26-.38,1.27,1.27,0,0,0,.1-.5,1.26,1.26,0,0,0-.1-.49,1,1,0,0,0-.26-.38,1,1,0,0,0-.39-.24,1.33,1.33,0,0,0-1,0,.88.88,0,0,0-.38.24,1.19,1.19,0,0,0-.27.38,1.26,1.26,0,0,0-.09.49,1.28,1.28,0,0,0,.09.5,1.31,1.31,0,0,0,.27.38,1.12,1.12,0,0,0,.38.24A1.51,1.51,0,0,0,238.35,252.67Z"/><path d="M240.88,252.62a7.07,7.07,0,0,1,.08-1,2.88,2.88,0,0,1,.3-.94,2,2,0,0,1,.58-.71,1.84,1.84,0,0,1,1.92,0,2,2,0,0,1,.58.71,2.88,2.88,0,0,1,.3.94,7.07,7.07,0,0,1,.08,1,7,7,0,0,1-.08,1,2.86,2.86,0,0,1-.3.95,2,2,0,0,1-.58.71,1.84,1.84,0,0,1-1.92,0,2,2,0,0,1-.58-.71,2.86,2.86,0,0,1-.3-.95A7,7,0,0,1,240.88,252.62Zm.67,0c0,.14,0,.3,0,.47a4.43,4.43,0,0,0,.06.51,2.72,2.72,0,0,0,.13.51,1.51,1.51,0,0,0,.22.44,1.12,1.12,0,0,0,.34.31,1,1,0,0,0,1,0,1.12,1.12,0,0,0,.34-.31,1.51,1.51,0,0,0,.22-.44,2.72,2.72,0,0,0,.13-.51,4.43,4.43,0,0,0,.06-.51c0-.17,0-.33,0-.47s0-.29,0-.46a4.88,4.88,0,0,0-.06-.52,2.83,2.83,0,0,0-.13-.5,1.4,1.4,0,0,0-.22-.44,1.12,1.12,0,0,0-.34-.31,1,1,0,0,0-1,0,1.12,1.12,0,0,0-.34.31,1.4,1.4,0,0,0-.22.44,2.83,2.83,0,0,0-.13.5,4.88,4.88,0,0,0-.06.52C241.56,252.33,241.55,252.49,241.55,252.62Z"/><path d="M247.78,255.8l-.51-.2,2.41-6.14.5.19Z"/><path d="M257.1,251a1.66,1.66,0,0,0-.63-.52,1.92,1.92,0,0,0-.78-.17,2.06,2.06,0,0,0-.87.19,2.16,2.16,0,0,0-.68.52,2.21,2.21,0,0,0-.45.75,2.46,2.46,0,0,0-.16.89,2.56,2.56,0,0,0,.16.93,2.2,2.2,0,0,0,.44.74,2.1,2.1,0,0,0,.68.5,2,2,0,0,0,.88.19,2,2,0,0,0,.93-.21,2,2,0,0,0,.71-.59l.5.43a2.29,2.29,0,0,1-.92.75,3,3,0,0,1-1.22.24,2.8,2.8,0,0,1-2.05-.84,2.82,2.82,0,0,1-.61-.94,3.13,3.13,0,0,1-.22-1.2,3.19,3.19,0,0,1,.21-1.16,2.75,2.75,0,0,1,.6-1,3,3,0,0,1,.91-.63,2.93,2.93,0,0,1,1.16-.23,3,3,0,0,1,1.11.21,2,2,0,0,1,.89.68Z"/><path d="M258.46,254.69l2.14-2.08.35-.36a1.75,1.75,0,0,0,.25-.32,1,1,0,0,0,.15-.32,1.46,1.46,0,0,0,0-.38,1,1,0,0,0-.08-.4.93.93,0,0,0-.22-.3,1.13,1.13,0,0,0-.73-.26,1,1,0,0,0-.71.25,1.11,1.11,0,0,0-.36.66l-.73-.07a1.91,1.91,0,0,1,.21-.61,1.28,1.28,0,0,1,.39-.44,1.77,1.77,0,0,1,.53-.27,2.25,2.25,0,0,1,.64-.09,2.09,2.09,0,0,1,.67.1,1.53,1.53,0,0,1,.55.29,1.47,1.47,0,0,1,.37.48,1.39,1.39,0,0,1,.14.66,1.91,1.91,0,0,1-.09.61,1.8,1.8,0,0,1-.25.5,2.86,2.86,0,0,1-.35.43l-.41.41-1.75,1.64h2.89v.63h-3.65Z"/><path d="M266.35,250.42l-2.26,5h-.76l2.3-5H262.9v-.63h3.45Z"/><path d="M267.26,252.62a7.07,7.07,0,0,1,.08-1,3.45,3.45,0,0,1,.3-.94,2,2,0,0,1,.59-.71,1.82,1.82,0,0,1,1.91,0,2,2,0,0,1,.59.71,3.45,3.45,0,0,1,.3.94,7,7,0,0,1,.07,1,6.92,6.92,0,0,1-.07,1,3.41,3.41,0,0,1-.3.95,2,2,0,0,1-.59.71,1.82,1.82,0,0,1-1.91,0,2,2,0,0,1-.59-.71,3.41,3.41,0,0,1-.3-.95A7,7,0,0,1,267.26,252.62Zm.68,0c0,.14,0,.3,0,.47a4.43,4.43,0,0,0,.06.51,2.72,2.72,0,0,0,.13.51,1.53,1.53,0,0,0,.23.44,1,1,0,0,0,.34.31.89.89,0,0,0,.47.12,1,1,0,0,0,.49-.12,1.08,1.08,0,0,0,.33-.31,1.53,1.53,0,0,0,.23-.44,2.72,2.72,0,0,0,.13-.51,4.43,4.43,0,0,0,.06-.51c0-.17,0-.33,0-.47s0-.29,0-.46a4.88,4.88,0,0,0-.06-.52,2.83,2.83,0,0,0-.13-.5,1.41,1.41,0,0,0-.23-.44,1.08,1.08,0,0,0-.33-.31,1,1,0,0,0-.49-.12.89.89,0,0,0-.47.12,1,1,0,0,0-.34.31,1.41,1.41,0,0,0-.23.44,2.83,2.83,0,0,0-.13.5,4.88,4.88,0,0,0-.06.52C267.94,252.33,267.94,252.49,267.94,252.62Z"/><path d="M52.87,251a1.55,1.55,0,0,0-.63-.51,1.82,1.82,0,0,0-.79-.18,2,2,0,0,0-.87.2,2.13,2.13,0,0,0-.68.51,2.58,2.58,0,0,0-.45.75,2.67,2.67,0,0,0,0,1.82,2.29,2.29,0,0,0,.45.74,1.88,1.88,0,0,0,.68.5,1.92,1.92,0,0,0,.87.19,2,2,0,0,0,.93-.21,2.07,2.07,0,0,0,.71-.58l.51.42a2.38,2.38,0,0,1-.93.75,3,3,0,0,1-1.22.24,2.85,2.85,0,0,1-1.13-.22,2.82,2.82,0,0,1-.92-.62,3,3,0,0,1-.61-.94,3.27,3.27,0,0,1-.22-1.19,3.2,3.2,0,0,1,.21-1.17,3,3,0,0,1,.6-.95,3.08,3.08,0,0,1,.91-.63,3,3,0,0,1,2.27,0,2,2,0,0,1,.89.68Z"/><path d="M54.13,252.62a7,7,0,0,1,.08-1,3.11,3.11,0,0,1,.3-1,1.94,1.94,0,0,1,.59-.71,1.55,1.55,0,0,1,.95-.27,1.6,1.6,0,0,1,1,.27,2,2,0,0,1,.59.71,3.1,3.1,0,0,1,.29,1,5.77,5.77,0,0,1,.08,1,5.85,5.85,0,0,1-.08,1,3.13,3.13,0,0,1-.29.94,2,2,0,0,1-.59.71,1.6,1.6,0,0,1-1,.27,1.55,1.55,0,0,1-.95-.27,1.94,1.94,0,0,1-.59-.71,3.14,3.14,0,0,1-.3-.94A7.07,7.07,0,0,1,54.13,252.62Zm.67,0c0,.13,0,.29,0,.46a4.88,4.88,0,0,0,.06.52,2.83,2.83,0,0,0,.13.5,1.4,1.4,0,0,0,.22.44,1.1,1.1,0,0,0,.34.31,1,1,0,0,0,.48.12.9.9,0,0,0,.48-.12.92.92,0,0,0,.34-.31,1.41,1.41,0,0,0,.23-.44,2.8,2.8,0,0,0,.12-.5,4.88,4.88,0,0,0,.06-.52,3.86,3.86,0,0,0,0-.46,3.94,3.94,0,0,0,0-.47,4.43,4.43,0,0,0-.06-.51,2.71,2.71,0,0,0-.12-.51,1.53,1.53,0,0,0-.23-.44,1,1,0,0,0-.34-.31.9.9,0,0,0-.48-.12,1,1,0,0,0-.48.12,1.24,1.24,0,0,0-.34.31,1.51,1.51,0,0,0-.22.44,2.72,2.72,0,0,0-.13.51,4.43,4.43,0,0,0-.06.51C54.81,252.32,54.8,252.48,54.8,252.62Z"/><path d="M61,255.79l-.51-.2,2.41-6.14.51.19Z"/><path d="M70.36,251a1.52,1.52,0,0,0-.64-.51,1.78,1.78,0,0,0-.78-.18,2,2,0,0,0-.87.2,2.13,2.13,0,0,0-.68.51,2.58,2.58,0,0,0-.45.75,2.51,2.51,0,0,0-.16.9,2.54,2.54,0,0,0,.16.92,2.46,2.46,0,0,0,.44.74,2.09,2.09,0,0,0,1.56.69,2,2,0,0,0,.93-.21,2.07,2.07,0,0,0,.71-.58l.5.42a2.29,2.29,0,0,1-.92.75,3,3,0,0,1-1.22.24,2.93,2.93,0,0,1-1.14-.22,2.88,2.88,0,0,1-.91-.62,3,3,0,0,1-.61-.94,3.07,3.07,0,0,1-.22-1.19,3.2,3.2,0,0,1,.21-1.17,2.84,2.84,0,0,1,.6-.95,3,3,0,0,1,.91-.63,2.93,2.93,0,0,1,1.16-.23,3,3,0,0,1,1.11.21,2,2,0,0,1,.89.68Z"/><path d="M74.2,255.45h-.68v-4.8h0l-1,.85-.4-.48,1.52-1.24h.59Z"/><path d="M76.37,251.17a1.33,1.33,0,0,1,.13-.61,1.2,1.2,0,0,1,.34-.46,1.44,1.44,0,0,1,.51-.3,1.92,1.92,0,0,1,1.28,0,1.44,1.44,0,0,1,.51.3,1.32,1.32,0,0,1,.34.46,1.48,1.48,0,0,1,.12.61,1.44,1.44,0,0,1-.06.4,1.41,1.41,0,0,1-.18.37,1.18,1.18,0,0,1-.3.29,1,1,0,0,1-.38.19h0a1.44,1.44,0,0,1,.46.19,1.35,1.35,0,0,1,.35.32,1.67,1.67,0,0,1,.23.44,1.7,1.7,0,0,1,.08.51,1.74,1.74,0,0,1-.14.69,1.46,1.46,0,0,1-.39.52,1.47,1.47,0,0,1-.57.33,2.35,2.35,0,0,1-1.42,0,1.59,1.59,0,0,1-.58-.33,1.43,1.43,0,0,1-.38-.52,1.74,1.74,0,0,1-.14-.69,1.7,1.7,0,0,1,.08-.51,1.65,1.65,0,0,1,.22-.44,1.59,1.59,0,0,1,.36-.32,1.44,1.44,0,0,1,.46-.19h0a1.18,1.18,0,0,1-.39-.19,1.33,1.33,0,0,1-.29-.29,1.41,1.41,0,0,1-.18-.37A1.16,1.16,0,0,1,76.37,251.17Zm.48,2.67a1.14,1.14,0,0,0,.09.46,1.21,1.21,0,0,0,.24.35,1.16,1.16,0,0,0,.36.23A1.13,1.13,0,0,0,78,255a1,1,0,0,0,.44-.09,1,1,0,0,0,.36-.23,1.07,1.07,0,0,0,.25-.35,1.36,1.36,0,0,0,0-.92,1.07,1.07,0,0,0-.25-.35,1,1,0,0,0-.36-.23,1,1,0,0,0-.44-.09,1.13,1.13,0,0,0-.45.09,1.16,1.16,0,0,0-.36.23,1.21,1.21,0,0,0-.24.35A1.14,1.14,0,0,0,76.85,253.84ZM77,251.2a.92.92,0,0,0,.26.67.93.93,0,0,0,.69.27.9.9,0,0,0,.68-.27,1,1,0,0,0,0-1.34.9.9,0,0,0-.68-.27.93.93,0,0,0-.69.27A.92.92,0,0,0,77,251.2Z"/><path d="M80.52,252.62a5.77,5.77,0,0,1,.08-1,3.1,3.1,0,0,1,.29-1,2,2,0,0,1,.59-.71,1.6,1.6,0,0,1,1-.27,1.55,1.55,0,0,1,1,.27,1.94,1.94,0,0,1,.59.71,3.41,3.41,0,0,1,.3,1,7,7,0,0,1,.08,1,7.07,7.07,0,0,1-.08,1,3.45,3.45,0,0,1-.3.94,1.94,1.94,0,0,1-.59.71,1.55,1.55,0,0,1-1,.27,1.6,1.6,0,0,1-1-.27,2,2,0,0,1-.59-.71,3.13,3.13,0,0,1-.29-.94A5.85,5.85,0,0,1,80.52,252.62Zm.67,0a3.86,3.86,0,0,0,0,.46c0,.17,0,.34.05.52a4.07,4.07,0,0,0,.13.5,1.41,1.41,0,0,0,.23.44.92.92,0,0,0,.34.31.9.9,0,0,0,.48.12,1,1,0,0,0,.48-.12,1.1,1.1,0,0,0,.34-.31,1.65,1.65,0,0,0,.22-.44,2.83,2.83,0,0,0,.13-.5,4.88,4.88,0,0,0,.06-.52c0-.17,0-.33,0-.46s0-.3,0-.47a4.43,4.43,0,0,0-.06-.51,2.72,2.72,0,0,0-.13-.51,1.81,1.81,0,0,0-.22-.44,1.24,1.24,0,0,0-.34-.31,1,1,0,0,0-.48-.12.9.9,0,0,0-.48.12,1,1,0,0,0-.34.31,1.53,1.53,0,0,0-.23.44,3.8,3.8,0,0,0-.13.51c0,.17,0,.34-.05.51A3.94,3.94,0,0,0,81.19,252.62Z"/><line class="cls-2" x1="214.49" y1="253.42" x2="215.03" y2="253.42"/><line class="cls-2" x1="217.76" y1="253.42" x2="218.3" y2="253.42"/><line class="cls-2" x1="221.02" y1="253.42" x2="221.56" y2="253.42"/><line class="cls-2" x1="224.29" y1="253.42" x2="224.83" y2="253.42"/><line class="cls-2" x1="227.55" y1="253.42" x2="228.09" y2="253.42"/></g><g id="Table_Gun_F29540"><path d="M54.21,11.87H58.6v.78H55.05V15h3.3v.78h-3.3V19h-.84Z"/><path d="M59.39,18l2.67-2.6.44-.45a3.35,3.35,0,0,0,.31-.4,1.62,1.62,0,0,0,.19-.4,1.73,1.73,0,0,0,.06-.47,1.27,1.27,0,0,0-.1-.5,1.08,1.08,0,0,0-.28-.38,1.33,1.33,0,0,0-.91-.32,1.27,1.27,0,0,0-.89.31,1.34,1.34,0,0,0-.45.82l-.91-.08a2.06,2.06,0,0,1,.26-.77,1.73,1.73,0,0,1,.49-.55,2.23,2.23,0,0,1,.67-.34,2.54,2.54,0,0,1,.8-.11,2.82,2.82,0,0,1,.83.12,2,2,0,0,1,.68.37,1.74,1.74,0,0,1,.47.6,1.81,1.81,0,0,1,.18.83,2.29,2.29,0,0,1-.12.76,2.77,2.77,0,0,1-.31.62,4.51,4.51,0,0,1-.44.54l-.51.51-2.18,2v0H64V19H59.39Z"/><path d="M68,16l0,0a2,2,0,0,1-.47.16,3,3,0,0,1-.48.05,2.39,2.39,0,0,1-.86-.16,2,2,0,0,1-.68-.46,2,2,0,0,1-.44-.7,2.36,2.36,0,0,1-.16-.9A2.27,2.27,0,0,1,65,13a1.87,1.87,0,0,1,.5-.7,2.16,2.16,0,0,1,.75-.44,3,3,0,0,1,1.87,0,2.3,2.3,0,0,1,.76.44,2,2,0,0,1,.5.7,2.27,2.27,0,0,1,.18.93,3.45,3.45,0,0,1,0,.57,4.1,4.1,0,0,1-.14.5,3.88,3.88,0,0,1-.22.46l-.26.46-1.88,3h-1Zm-.74-.53a1.73,1.73,0,0,0,.6-.11,1.5,1.5,0,0,0,.48-.3,1.43,1.43,0,0,0,.33-.47,1.66,1.66,0,0,0,0-1.24,1.37,1.37,0,0,0-.33-.48,1.5,1.5,0,0,0-.48-.3,1.72,1.72,0,0,0-.6-.1,1.64,1.64,0,0,0-.6.1,1.44,1.44,0,0,0-.49.3,1.35,1.35,0,0,0-.32.48,1.66,1.66,0,0,0,0,1.24,1.4,1.4,0,0,0,.32.47,1.44,1.44,0,0,0,.49.3A1.64,1.64,0,0,0,67.23,15.47Z"/><path d="M74.75,12.65H71.86l0,1.91a1.26,1.26,0,0,1,.44-.14l.47,0a2.29,2.29,0,0,1,.92.17,2.14,2.14,0,0,1,.72.49,2.25,2.25,0,0,1,.46.74,2.75,2.75,0,0,1,.16.93,2.49,2.49,0,0,1-.19,1,2,2,0,0,1-.51.74,2.51,2.51,0,0,1-.77.48,2.77,2.77,0,0,1-1,.17,2.26,2.26,0,0,1-1.31-.35,2.48,2.48,0,0,1-.78-.94l.84-.32a1.55,1.55,0,0,0,.52.64,1.38,1.38,0,0,0,.8.25,1.45,1.45,0,0,0,.59-.12,1.58,1.58,0,0,0,.48-.33,1.5,1.5,0,0,0,.33-.51,1.81,1.81,0,0,0,.12-.67A1.67,1.67,0,0,0,74,16a1.46,1.46,0,0,0-.37-.51,1.57,1.57,0,0,0-.55-.31,2.26,2.26,0,0,0-.69-.1,2.43,2.43,0,0,0-.74.12,3,3,0,0,0-.7.32L71,11.87h3.71Z"/><path d="M79.76,16.55h1v.78h-1V19h-.84V17.33h-3V16.4l2.81-4.53h1Zm-.84-3.7h0l-2.26,3.7h2.28Z"/><path d="M81.51,15.41a7.79,7.79,0,0,1,.1-1.25A3.77,3.77,0,0,1,82,13a2.41,2.41,0,0,1,.73-.88,2.27,2.27,0,0,1,2.39,0,2.44,2.44,0,0,1,.74.88,4,4,0,0,1,.37,1.19,9.14,9.14,0,0,1,.1,1.25,9.26,9.26,0,0,1-.1,1.25,4.07,4.07,0,0,1-.37,1.18,2.44,2.44,0,0,1-.74.88,2.22,2.22,0,0,1-2.39,0,2.41,2.41,0,0,1-.73-.88,3.79,3.79,0,0,1-.37-1.18A7.88,7.88,0,0,1,81.51,15.41Zm.84,0c0,.17,0,.36,0,.58a4.81,4.81,0,0,0,.07.64,4.61,4.61,0,0,0,.16.64,2,2,0,0,0,.28.55,1.42,1.42,0,0,0,.43.38,1.11,1.11,0,0,0,.6.15,1.16,1.16,0,0,0,.6-.15,1.51,1.51,0,0,0,.42-.38,2,2,0,0,0,.28-.55,4.61,4.61,0,0,0,.16-.64c0-.22.06-.43.08-.64s0-.41,0-.58,0-.37,0-.58,0-.43-.08-.65a4.15,4.15,0,0,0-.16-.63,1.9,1.9,0,0,0-.28-.55,1.55,1.55,0,0,0-.42-.39,1.16,1.16,0,0,0-.6-.14,1.11,1.11,0,0,0-.6.14,1.45,1.45,0,0,0-.43.39,1.9,1.9,0,0,0-.28.55,4.15,4.15,0,0,0-.16.63,4.78,4.78,0,0,0-.07.65C82.35,15,82.35,15.23,82.35,15.41Z"/><path d="M86.69,19.7h5v.5h-5Z"/><path d="M95.29,19h-.84V13h0L93.16,14l-.5-.61,1.9-1.54h.73Z"/><path d="M102,12.65H99.1l0,1.91a1.26,1.26,0,0,1,.44-.14l.47,0a2.29,2.29,0,0,1,.92.17,2.14,2.14,0,0,1,.72.49,2.25,2.25,0,0,1,.46.74,2.75,2.75,0,0,1,.16.93,2.49,2.49,0,0,1-.19,1,2,2,0,0,1-.51.74,2.51,2.51,0,0,1-.77.48,2.77,2.77,0,0,1-1,.17,2.26,2.26,0,0,1-1.31-.35,2.48,2.48,0,0,1-.78-.94l.84-.32a1.55,1.55,0,0,0,.52.64,1.38,1.38,0,0,0,.8.25,1.45,1.45,0,0,0,.59-.12,1.58,1.58,0,0,0,.48-.33,1.5,1.5,0,0,0,.33-.51,1.81,1.81,0,0,0,.12-.67,1.67,1.67,0,0,0-.14-.69,1.46,1.46,0,0,0-.37-.51,1.57,1.57,0,0,0-.55-.31,2.26,2.26,0,0,0-.69-.1,2.43,2.43,0,0,0-.74.12,3,3,0,0,0-.7.32l.07-3.68H102Z"/><path d="M103.19,15.41a7.79,7.79,0,0,1,.1-1.25,3.77,3.77,0,0,1,.37-1.19,2.41,2.41,0,0,1,.73-.88,2.27,2.27,0,0,1,2.39,0,2.44,2.44,0,0,1,.74.88,4,4,0,0,1,.37,1.19,9.14,9.14,0,0,1,.1,1.25,9.26,9.26,0,0,1-.1,1.25,4.07,4.07,0,0,1-.37,1.18,2.44,2.44,0,0,1-.74.88,2.22,2.22,0,0,1-2.39,0,2.41,2.41,0,0,1-.73-.88,3.79,3.79,0,0,1-.37-1.18A7.88,7.88,0,0,1,103.19,15.41Zm.84,0c0,.17,0,.36,0,.58a4.81,4.81,0,0,0,.07.64,4.61,4.61,0,0,0,.16.64,2,2,0,0,0,.28.55,1.42,1.42,0,0,0,.43.38,1.11,1.11,0,0,0,.6.15,1.16,1.16,0,0,0,.6-.15,1.51,1.51,0,0,0,.42-.38,2,2,0,0,0,.28-.55,4.61,4.61,0,0,0,.16-.64c0-.22.06-.43.08-.64s0-.41,0-.58,0-.37,0-.58,0-.43-.08-.65a4.15,4.15,0,0,0-.16-.63,1.9,1.9,0,0,0-.28-.55,1.55,1.55,0,0,0-.42-.39,1.16,1.16,0,0,0-.6-.14,1.11,1.11,0,0,0-.6.14,1.45,1.45,0,0,0-.43.39,1.9,1.9,0,0,0-.28.55,4.15,4.15,0,0,0-.16.63,4.78,4.78,0,0,0-.07.65C104,15,104,15.23,104,15.41Z"/><path d="M108.43,11.87h.93L111,17.75h0l1.74-5.88h.94l1.73,5.88h0l1.64-5.88h.88L115.86,19H115l-1.75-6h0l-1.76,6h-.92Z"/><path d="M121.59,11.87h.84v3h3.78v-3h.84V19h-.84v-3.3h-3.78V19h-.84Z"/><path d="M128.88,11.87h.84v6.3H133V19h-4.08Z"/><rect class="cls-3" x="54.33" y="42.69" width="189.86" height="189.86"/><circle class="cls-4" cx="149.26" cy="137.56" r="27.05"/><path d="M154.26,169.75h.81v.62h-.81v1.3h-.67v-1.3h-2.4v-.74l2.24-3.63h.83Zm-.67-3h0l-1.81,3h1.83Z"/><path d="M155.61,168.83a7.19,7.19,0,0,1,.08-1,2.88,2.88,0,0,1,.3-.94,2,2,0,0,1,.58-.71,1.84,1.84,0,0,1,1.92,0,2,2,0,0,1,.58.71,2.88,2.88,0,0,1,.3.94,7.19,7.19,0,0,1,.08,1,6.85,6.85,0,0,1-.08,1,2.86,2.86,0,0,1-.3.95,2,2,0,0,1-.58.71,1.84,1.84,0,0,1-1.92,0,2,2,0,0,1-.58-.71,2.86,2.86,0,0,1-.3-.95A6.85,6.85,0,0,1,155.61,168.83Zm.67,0c0,.14,0,.3,0,.47a4.88,4.88,0,0,0,.06.52,2.83,2.83,0,0,0,.13.5,1.51,1.51,0,0,0,.22.44,1.12,1.12,0,0,0,.34.31,1,1,0,0,0,1,0,1.12,1.12,0,0,0,.34-.31,1.51,1.51,0,0,0,.22-.44,2.83,2.83,0,0,0,.13-.5,4.88,4.88,0,0,0,.06-.52c0-.17,0-.33,0-.47s0-.29,0-.46a4.43,4.43,0,0,0-.06-.51,2.72,2.72,0,0,0-.13-.51,1.51,1.51,0,0,0-.22-.44,1.12,1.12,0,0,0-.34-.31,1,1,0,0,0-1,0,1.12,1.12,0,0,0-.34.31,1.51,1.51,0,0,0-.22.44,2.72,2.72,0,0,0-.13.51,4.43,4.43,0,0,0-.06.51C156.29,168.54,156.28,168.7,156.28,168.83Z"/><circle class="cls-4" cx="149.26" cy="137.56" r="54.22"/><path d="M151.51,194.55a1.51,1.51,0,0,1,.13-.61,1.2,1.2,0,0,1,.34-.46,1.44,1.44,0,0,1,.51-.3,1.92,1.92,0,0,1,1.28,0,1.44,1.44,0,0,1,.51.3,1.2,1.2,0,0,1,.34.46,1.36,1.36,0,0,1,.13.61,1.4,1.4,0,0,1-.07.4,1.27,1.27,0,0,1-.18.37,1.33,1.33,0,0,1-.29.29,1.18,1.18,0,0,1-.39.19h0a1.44,1.44,0,0,1,.46.19,1.23,1.23,0,0,1,.35.33,1.47,1.47,0,0,1,.23.43,1.72,1.72,0,0,1-.06,1.2,1.35,1.35,0,0,1-.39.52,1.47,1.47,0,0,1-.57.33,2.35,2.35,0,0,1-1.42,0,1.47,1.47,0,0,1-.57-.33,1.46,1.46,0,0,1-.39-.52,1.72,1.72,0,0,1-.06-1.2,1.47,1.47,0,0,1,.23-.43A1.23,1.23,0,0,1,152,196a1.44,1.44,0,0,1,.46-.19h0a1.18,1.18,0,0,1-.39-.19,1.33,1.33,0,0,1-.29-.29,1.27,1.27,0,0,1-.18-.37A1.4,1.4,0,0,1,151.51,194.55Zm.48,2.67a1.14,1.14,0,0,0,.09.46,1.13,1.13,0,0,0,.61.58,1.12,1.12,0,0,0,.88,0,1.13,1.13,0,0,0,.61-.58,1.14,1.14,0,0,0,.09-.46,1.18,1.18,0,0,0-.09-.46,1.07,1.07,0,0,0-.25-.35,1,1,0,0,0-.36-.23,1.12,1.12,0,0,0-.88,0,1,1,0,0,0-.36.23,1.07,1.07,0,0,0-.25.35A1.18,1.18,0,0,0,152,197.22Zm.2-2.64a.88.88,0,0,0,.26.67,1,1,0,0,0,1.36,0,1,1,0,0,0,0-1.34,1,1,0,0,0-1.36,0A.88.88,0,0,0,152.19,194.58Z"/><path d="M155.61,196a7,7,0,0,1,.08-1,2.86,2.86,0,0,1,.3-.95,2,2,0,0,1,.58-.71,1.84,1.84,0,0,1,1.92,0,2,2,0,0,1,.58.71,2.86,2.86,0,0,1,.3.95,7,7,0,0,1,.08,1,7.07,7.07,0,0,1-.08,1,3,3,0,0,1-.3.95,2.07,2.07,0,0,1-.58.7,1.84,1.84,0,0,1-1.92,0,2.07,2.07,0,0,1-.58-.7,3,3,0,0,1-.3-.95A7.07,7.07,0,0,1,155.61,196Zm.67,0c0,.14,0,.29,0,.46a4.88,4.88,0,0,0,.06.52,2.83,2.83,0,0,0,.13.5,1.4,1.4,0,0,0,.22.44,1,1,0,0,0,.34.31,1,1,0,0,0,1,0,1,1,0,0,0,.34-.31,1.4,1.4,0,0,0,.22-.44,2.83,2.83,0,0,0,.13-.5,4.88,4.88,0,0,0,.06-.52c0-.17,0-.32,0-.46s0-.3,0-.47a4.43,4.43,0,0,0-.06-.51,2.72,2.72,0,0,0-.13-.51,1.51,1.51,0,0,0-.22-.44,1.12,1.12,0,0,0-.34-.31,1,1,0,0,0-1,0,1.12,1.12,0,0,0-.34.31,1.51,1.51,0,0,0-.22.44,2.72,2.72,0,0,0-.13.51,4.43,4.43,0,0,0-.06.51C156.29,195.7,156.28,195.86,156.28,196Z"/><circle class="cls-4" cx="149.26" cy="137.56" r="81.32"/><path d="M153.79,225.94h-.68v-4.8h0l-1,.85-.4-.48,1.52-1.24h.59Z"/><path d="M155.71,225.17l2.13-2.08c.14-.13.25-.25.35-.36a1.83,1.83,0,0,0,.26-.32,1.3,1.3,0,0,0,.14-.32,1.13,1.13,0,0,0,0-.38.87.87,0,0,0-.08-.4.89.89,0,0,0-.22-.3,1.06,1.06,0,0,0-.33-.19,1.29,1.29,0,0,0-.4-.07,1,1,0,0,0-.71.25,1.13,1.13,0,0,0-.36.66l-.73-.07A1.91,1.91,0,0,1,156,221a1.54,1.54,0,0,1,.4-.44,1.56,1.56,0,0,1,.53-.27,2.15,2.15,0,0,1,.64-.09,2.07,2.07,0,0,1,.66.1,1.53,1.53,0,0,1,.55.29,1.35,1.35,0,0,1,.37.48,1.39,1.39,0,0,1,.14.66,1.91,1.91,0,0,1-.09.61,1.8,1.8,0,0,1-.25.5,2.86,2.86,0,0,1-.35.43l-.41.41-1.74,1.64h2.88v.63h-3.64Z"/><path d="M160.06,223.11a7,7,0,0,1,.08-1,3.1,3.1,0,0,1,.29-1,2,2,0,0,1,.59-.71,1.6,1.6,0,0,1,1-.27,1.55,1.55,0,0,1,1,.27,1.94,1.94,0,0,1,.59.71,2.86,2.86,0,0,1,.3,1,7,7,0,0,1,.08,1,7.07,7.07,0,0,1-.08,1,2.88,2.88,0,0,1-.3.94,1.94,1.94,0,0,1-.59.71,1.55,1.55,0,0,1-1,.27,1.6,1.6,0,0,1-1-.27,2,2,0,0,1-.59-.71,3.13,3.13,0,0,1-.29-.94A7.07,7.07,0,0,1,160.06,223.11Zm.67,0c0,.13,0,.29,0,.46a4.88,4.88,0,0,0,.06.52,4.05,4.05,0,0,0,.12.5,1.66,1.66,0,0,0,.23.44,1.12,1.12,0,0,0,.34.31,1,1,0,0,0,1,0,1.12,1.12,0,0,0,.34-.31,1.4,1.4,0,0,0,.22-.44,2.83,2.83,0,0,0,.13-.5,4.88,4.88,0,0,0,.06-.52c0-.17,0-.33,0-.46s0-.3,0-.47a4.43,4.43,0,0,0-.06-.51,2.72,2.72,0,0,0-.13-.51,1.51,1.51,0,0,0-.22-.44,1.12,1.12,0,0,0-.34-.31,1,1,0,0,0-1,0,1.12,1.12,0,0,0-.34.31,1.83,1.83,0,0,0-.23.44,3.81,3.81,0,0,0-.12.51,4.43,4.43,0,0,0-.06.51C160.74,222.81,160.73,223,160.73,223.11Z"/><line class="cls-4" x1="54.33" y1="137.62" x2="244.24" y2="137.62"/><line class="cls-4" x1="149.26" y1="232.55" x2="149.26" y2="42.63"/><line class="cls-4" x1="94.5" y1="42.63" x2="204.07" y2="232.55"/><line class="cls-4" x1="94.5" y1="232.55" x2="204.07" y2="42.63"/><line class="cls-4" x1="54.33" y1="82.81" x2="244.24" y2="192.37"/><line class="cls-4" x1="54.33" y1="192.37" x2="244.24" y2="82.81"/><line class="cls-1" x1="149.26" y1="137.62" x2="149.37" y2="141.18"/><line class="cls-1" x1="149.37" y1="141.18" x2="149.74" y2="144.85"/><line class="cls-1" x1="149.74" y1="144.85" x2="150.39" y2="148.42"/><line class="cls-1" x1="150.39" y1="148.42" x2="151.36" y2="152.68"/><line class="cls-1" x1="151.36" y1="152.68" x2="152.44" y2="155.49"/><line class="cls-1" x1="152.44" y1="155.49" x2="153.47" y2="157.38"/><line class="cls-1" x1="153.47" y1="157.38" x2="154.12" y2="157.06"/><line class="cls-1" x1="154.12" y1="157.06" x2="155.68" y2="160.03"/><line class="cls-1" x1="155.68" y1="160.03" x2="157.95" y2="164.24"/><line class="cls-1" x1="157.95" y1="164.24" x2="161.03" y2="169.91"/><line class="cls-1" x1="161.03" y1="169.91" x2="165.13" y2="176.88"/><line class="cls-1" x1="165.13" y1="176.88" x2="170.91" y2="186.22"/><line class="cls-1" x1="170.91" y1="186.22" x2="176.2" y2="192.75"/><line class="cls-1" x1="176.2" y1="192.75" x2="181.82" y2="198.8"/><line class="cls-1" x1="181.82" y1="198.8" x2="186.79" y2="202.58"/><line class="cls-1" x1="186.79" y1="202.58" x2="191.16" y2="204.63"/><line class="cls-1" x1="191.16" y1="204.63" x2="194.46" y2="204.52"/><line class="cls-1" x1="194.46" y1="204.52" x2="197.8" y2="204.42"/><line class="cls-1" x1="197.8" y1="204.42" x2="200.61" y2="203.28"/><line class="cls-1" x1="200.61" y1="203.28" x2="203.42" y2="202.09"/><line class="cls-1" x1="203.42" y1="202.09" x2="206.12" y2="200.69"/><line class="cls-1" x1="206.12" y1="200.69" x2="208.82" y2="199.29"/><line class="cls-1" x1="208.82" y1="199.29" x2="210.82" y2="197.02"/><line class="cls-1" x1="210.82" y1="197.02" x2="212.38" y2="194.43"/><line class="cls-1" x1="212.38" y1="194.43" x2="213.09" y2="191.13"/><line class="cls-1" x1="213.09" y1="191.13" x2="212.87" y2="187.3"/><line class="cls-1" x1="212.87" y1="187.3" x2="213.03" y2="183.9"/><line class="cls-1" x1="213.03" y1="183.9" x2="207.79" y2="177.04"/><line class="cls-1" x1="207.79" y1="177.04" x2="195.7" y2="166.62"/><line class="cls-1" x1="195.7" y1="166.62" x2="185.92" y2="158.73"/><line class="cls-1" x1="185.92" y1="158.73" x2="176.47" y2="152.04"/><line class="cls-1" x1="176.47" y1="152.04" x2="166.54" y2="145.99"/><line class="cls-1" x1="166.54" y1="145.99" x2="160.38" y2="142.53"/><line class="cls-1" x1="160.38" y1="142.53" x2="158.44" y2="141.29"/><line class="cls-1" x1="158.44" y1="141.29" x2="156.06" y2="140.05"/><line class="cls-1" x1="156.06" y1="140.05" x2="154.39" y2="139.24"/><line class="cls-1" x1="154.39" y1="139.24" x2="153.69" y2="138.81"/><line class="cls-1" x1="153.69" y1="138.81" x2="152.77" y2="138.43"/><line class="cls-1" x1="152.77" y1="138.43" x2="152.12" y2="138.16"/><line class="cls-1" x1="152.12" y1="138.16" x2="151.53" y2="137.94"/><line class="cls-1" x1="151.53" y1="137.94" x2="151.04" y2="137.83"/><line class="cls-1" x1="151.04" y1="137.83" x2="150.72" y2="137.73"/><line class="cls-1" x1="150.72" y1="137.73" x2="150.34" y2="137.62"/><line class="cls-1" x1="150.34" y1="137.62" x2="149.74" y2="137.62"/><line class="cls-1" x1="149.74" y1="137.62" x2="149.8" y2="137.62"/><line class="cls-1" x1="149.8" y1="137.62" x2="150.23" y2="137.56"/><line class="cls-1" x1="150.23" y1="137.56" x2="151.42" y2="137.46"/><line class="cls-1" x1="151.42" y1="137.46" x2="152.07" y2="137.35"/><line class="cls-1" x1="152.07" y1="137.35" x2="152.5" y2="137.19"/><line class="cls-1" x1="152.5" y1="137.19" x2="152.88" y2="136.97"/><line class="cls-1" x1="152.88" y1="136.97" x2="153.15" y2="136.81"/><line class="cls-1" x1="153.15" y1="136.81" x2="153.31" y2="136.59"/><line class="cls-1" x1="153.31" y1="136.59" x2="153.47" y2="136.43"/><line class="cls-1" x1="153.47" y1="136.43" x2="153.58" y2="136.21"/><line class="cls-1" x1="153.58" y1="136.21" x2="153.63" y2="136"/><line class="cls-1" x1="153.63" y1="136" x2="153.69" y2="135.84"/><line class="cls-1" x1="153.69" y1="135.84" x2="153.69" y2="135.67"/><line class="cls-1" x1="153.69" y1="135.67" x2="153.69" y2="135.46"/><line class="cls-1" x1="153.69" y1="135.46" x2="153.25" y2="135.51"/><line class="cls-1" x1="153.25" y1="135.51" x2="153.63" y2="135.08"/><line class="cls-1" x1="153.63" y1="135.08" x2="154.55" y2="134.32"/><line class="cls-1" x1="154.55" y1="134.32" x2="155.09" y2="133.68"/><line class="cls-1" x1="155.09" y1="133.68" x2="158.98" y2="130.54"/><line class="cls-1" x1="158.98" y1="130.54" x2="166.38" y2="124.23"/><line class="cls-1" x1="166.38" y1="124.23" x2="172.32" y2="118.23"/><line class="cls-1" x1="172.32" y1="118.23" x2="177.88" y2="111.81"/><line class="cls-1" x1="177.88" y1="111.81" x2="184.2" y2="103.87"/><line class="cls-1" x1="184.2" y1="103.87" x2="186.03" y2="99.49"/><line class="cls-1" x1="186.03" y1="99.49" x2="183.98" y2="99.01"/><line class="cls-1" x1="183.98" y1="99.01" x2="182.74" y2="97.71"/><line class="cls-1" x1="182.74" y1="97.71" x2="181.23" y2="96.69"/><line class="cls-1" x1="181.23" y1="96.69" x2="179.28" y2="96.25"/><line class="cls-1" x1="179.28" y1="96.25" x2="177.99" y2="95.01"/><line class="cls-1" x1="177.99" y1="95.01" x2="176.8" y2="93.5"/><line class="cls-1" x1="176.8" y1="93.5" x2="175.99" y2="91.29"/><line class="cls-1" x1="175.99" y1="91.29" x2="175.45" y2="88.37"/><line class="cls-1" x1="175.45" y1="88.37" x2="175.77" y2="83.29"/><line class="cls-1" x1="175.77" y1="83.29" x2="173.77" y2="82.54"/><line class="cls-1" x1="173.77" y1="82.54" x2="170.16" y2="85.89"/><line class="cls-1" x1="170.16" y1="85.89" x2="167.35" y2="87.83"/><line class="cls-1" x1="167.35" y1="87.83" x2="164.81" y2="89.67"/><line class="cls-1" x1="164.81" y1="89.67" x2="162.38" y2="91.83"/><line class="cls-1" x1="162.38" y1="91.83" x2="160.6" y2="92.04"/><line class="cls-1" x1="160.6" y1="92.04" x2="159.46" y2="89.61"/><line class="cls-1" x1="159.46" y1="89.61" x2="157.9" y2="88.64"/><line class="cls-1" x1="157.9" y1="88.64" x2="156.22" y2="88.15"/><line class="cls-1" x1="156.22" y1="88.15" x2="154.39" y2="88.75"/><line class="cls-1" x1="154.39" y1="88.75" x2="152.71" y2="87.88"/><line class="cls-1" x1="152.71" y1="87.88" x2="151.04" y2="86.64"/><line class="cls-1" x1="151.04" y1="86.64" x2="149.26" y2="85.45"/><line class="cls-1" x1="149.26" y1="137.62" x2="149.2" y2="141.18"/><line class="cls-1" x1="149.2" y1="141.18" x2="148.83" y2="144.85"/><line class="cls-1" x1="148.83" y1="144.85" x2="148.18" y2="148.42"/><line class="cls-1" x1="148.18" y1="148.42" x2="147.21" y2="152.68"/><line class="cls-1" x1="147.21" y1="152.68" x2="146.13" y2="155.49"/><line class="cls-1" x1="146.13" y1="155.49" x2="145.1" y2="157.38"/><line class="cls-1" x1="145.1" y1="157.38" x2="144.45" y2="157.06"/><line class="cls-1" x1="144.45" y1="157.06" x2="142.89" y2="160.03"/><line class="cls-1" x1="142.89" y1="160.03" x2="140.62" y2="164.24"/><line class="cls-1" x1="140.62" y1="164.24" x2="137.54" y2="169.91"/><line class="cls-1" x1="137.54" y1="169.91" x2="133.44" y2="176.88"/><line class="cls-1" x1="133.44" y1="176.88" x2="127.66" y2="186.22"/><line class="cls-1" x1="127.66" y1="186.22" x2="122.37" y2="192.75"/><line class="cls-1" x1="122.37" y1="192.75" x2="116.75" y2="198.8"/><line class="cls-1" x1="116.75" y1="198.8" x2="111.78" y2="202.58"/><line class="cls-1" x1="111.78" y1="202.58" x2="107.41" y2="204.63"/><line class="cls-1" x1="107.41" y1="204.63" x2="104.11" y2="204.52"/><line class="cls-1" x1="104.11" y1="204.52" x2="100.77" y2="204.42"/><line class="cls-1" x1="100.77" y1="204.42" x2="97.96" y2="203.28"/><line class="cls-1" x1="97.96" y1="203.28" x2="95.15" y2="202.09"/><line class="cls-1" x1="95.15" y1="202.09" x2="92.45" y2="200.69"/><line class="cls-1" x1="92.45" y1="200.69" x2="89.75" y2="199.29"/><line class="cls-1" x1="89.75" y1="199.29" x2="87.75" y2="197.02"/><line class="cls-1" x1="87.75" y1="197.02" x2="86.19" y2="194.43"/><line class="cls-1" x1="86.19" y1="194.43" x2="85.48" y2="191.13"/><line class="cls-1" x1="85.48" y1="191.13" x2="85.7" y2="187.3"/><line class="cls-1" x1="85.7" y1="187.3" x2="85.54" y2="183.9"/><line class="cls-1" x1="85.54" y1="183.9" x2="90.78" y2="177.04"/><line class="cls-1" x1="90.78" y1="177.04" x2="102.87" y2="166.62"/><line class="cls-1" x1="102.87" y1="166.62" x2="112.65" y2="158.73"/><line class="cls-1" x1="112.65" y1="158.73" x2="122.1" y2="152.04"/><line class="cls-1" x1="122.1" y1="152.04" x2="132.03" y2="145.99"/><line class="cls-1" x1="132.03" y1="145.99" x2="138.19" y2="142.53"/><line class="cls-1" x1="138.19" y1="142.53" x2="140.13" y2="141.29"/><line class="cls-1" x1="140.13" y1="141.29" x2="142.51" y2="140.05"/><line class="cls-1" x1="142.51" y1="140.05" x2="144.18" y2="139.24"/><line class="cls-1" x1="144.18" y1="139.24" x2="144.88" y2="138.81"/><line class="cls-1" x1="144.88" y1="138.81" x2="145.8" y2="138.43"/><line class="cls-1" x1="145.8" y1="138.43" x2="146.45" y2="138.16"/><line class="cls-1" x1="146.45" y1="138.16" x2="147.04" y2="137.94"/><line class="cls-1" x1="147.04" y1="137.94" x2="147.53" y2="137.83"/><line class="cls-1" x1="147.53" y1="137.83" x2="147.85" y2="137.73"/><line class="cls-1" x1="147.85" y1="137.73" x2="148.23" y2="137.62"/><line class="cls-1" x1="148.23" y1="137.62" x2="148.83" y2="137.62"/><line class="cls-1" x1="148.83" y1="137.62" x2="148.77" y2="137.62"/><line class="cls-1" x1="148.77" y1="137.62" x2="148.34" y2="137.56"/><line class="cls-1" x1="148.34" y1="137.56" x2="147.15" y2="137.46"/><line class="cls-1" x1="147.15" y1="137.46" x2="146.5" y2="137.35"/><line class="cls-1" x1="146.5" y1="137.35" x2="146.07" y2="137.19"/><line class="cls-1" x1="146.07" y1="137.19" x2="145.69" y2="136.97"/><line class="cls-1" x1="145.69" y1="136.97" x2="145.42" y2="136.81"/><line class="cls-1" x1="145.42" y1="136.81" x2="145.26" y2="136.59"/><line class="cls-1" x1="145.26" y1="136.59" x2="145.1" y2="136.43"/><line class="cls-1" x1="145.1" y1="136.43" x2="144.99" y2="136.21"/><line class="cls-1" x1="144.99" y1="136.21" x2="144.94" y2="136"/><line class="cls-1" x1="144.94" y1="136" x2="144.88" y2="135.84"/><line class="cls-1" x1="144.88" y1="135.84" x2="144.88" y2="135.67"/><line class="cls-1" x1="144.88" y1="135.67" x2="144.88" y2="135.46"/><line class="cls-1" x1="144.88" y1="135.46" x2="145.32" y2="135.51"/><line class="cls-1" x1="145.32" y1="135.51" x2="144.94" y2="135.08"/><line class="cls-1" x1="144.94" y1="135.08" x2="144.02" y2="134.32"/><line class="cls-1" x1="144.02" y1="134.32" x2="143.48" y2="133.68"/><line class="cls-1" x1="143.48" y1="133.68" x2="139.59" y2="130.54"/><line class="cls-1" x1="139.59" y1="130.54" x2="132.19" y2="124.23"/><line class="cls-1" x1="132.19" y1="124.23" x2="126.25" y2="118.23"/><line class="cls-1" x1="126.25" y1="118.23" x2="120.69" y2="111.81"/><line class="cls-1" x1="120.69" y1="111.81" x2="114.37" y2="103.87"/><line class="cls-1" x1="114.37" y1="103.87" x2="112.54" y2="99.49"/><line class="cls-1" x1="112.54" y1="99.49" x2="114.59" y2="99.01"/><line class="cls-1" x1="114.59" y1="99.01" x2="115.83" y2="97.71"/><line class="cls-1" x1="115.83" y1="97.71" x2="117.34" y2="96.69"/><line class="cls-1" x1="117.34" y1="96.69" x2="119.29" y2="96.25"/><line class="cls-1" x1="119.29" y1="96.25" x2="120.58" y2="95.01"/><line class="cls-1" x1="120.58" y1="95.01" x2="121.77" y2="93.5"/><line class="cls-1" x1="121.77" y1="93.5" x2="122.58" y2="91.29"/><line class="cls-1" x1="122.58" y1="91.29" x2="123.12" y2="88.37"/><line class="cls-1" x1="123.12" y1="88.37" x2="122.8" y2="83.29"/><line class="cls-1" x1="122.8" y1="83.29" x2="124.8" y2="82.54"/><line class="cls-1" x1="124.8" y1="82.54" x2="128.41" y2="85.89"/><line class="cls-1" x1="128.41" y1="85.89" x2="131.22" y2="87.83"/><line class="cls-1" x1="131.22" y1="87.83" x2="133.76" y2="89.67"/><line class="cls-1" x1="133.76" y1="89.67" x2="136.19" y2="91.83"/><line class="cls-1" x1="136.19" y1="91.83" x2="137.97" y2="92.04"/><line class="cls-1" x1="137.97" y1="92.04" x2="139.11" y2="89.61"/><line class="cls-1" x1="139.11" y1="89.61" x2="140.67" y2="88.64"/><line class="cls-1" x1="140.67" y1="88.64" x2="142.35" y2="88.15"/><line class="cls-1" x1="142.35" y1="88.15" x2="144.18" y2="88.75"/><line class="cls-1" x1="144.18" y1="88.75" x2="145.86" y2="87.88"/><line class="cls-1" x1="145.86" y1="87.88" x2="147.53" y2="86.64"/><line class="cls-1" x1="147.53" y1="86.64" x2="149.26" y2="85.45"/><line class="cls-1" x1="149.26" y1="137.62" x2="149.26" y2="137.89"/><line class="cls-1" x1="149.31" y1="139.18" x2="149.31" y2="139.45"/><line class="cls-1" x1="149.37" y1="140.75" x2="149.37" y2="141.02"/><line class="cls-1" x1="149.47" y1="142.32" x2="149.53" y2="142.53"/><line class="cls-1" x1="149.64" y1="143.83" x2="149.69" y2="144.1"/><line class="cls-1" x1="149.85" y1="145.39" x2="149.91" y2="145.61"/><line class="cls-1" x1="150.12" y1="146.91" x2="150.18" y2="147.12"/><line class="cls-1" x1="150.39" y1="148.36" x2="150.39" y2="148.42"/><line class="cls-1" x1="150.39" y1="148.42" x2="150.45" y2="148.58"/><line class="cls-1" x1="150.72" y1="149.82" x2="150.77" y2="150.04"/><line class="cls-1" x1="151.04" y1="151.28" x2="151.09" y2="151.5"/><line class="cls-1" x1="151.36" y1="152.74" x2="151.47" y2="152.95"/><line class="cls-1" x1="151.9" y1="154.14" x2="152.01" y2="154.36"/><line class="cls-1" x1="152.5" y1="155.55" x2="152.61" y2="155.76"/><line class="cls-1" x1="153.2" y1="156.9" x2="153.31" y2="157.11"/><line class="cls-1" x1="154.23" y1="157.27" x2="154.33" y2="157.49"/><line class="cls-1" x1="154.93" y1="158.62" x2="155.04" y2="158.84"/><line class="cls-1" x1="155.63" y1="159.97" x2="155.68" y2="160.03"/><line class="cls-1" x1="155.68" y1="160.03" x2="155.79" y2="160.19"/><line class="cls-1" x1="156.39" y1="161.32" x2="156.49" y2="161.54"/><line class="cls-1" x1="157.09" y1="162.67" x2="157.25" y2="162.89"/><line class="cls-1" x1="157.84" y1="164.02" x2="157.95" y2="164.24"/><line class="cls-1" x1="158.55" y1="165.37" x2="158.71" y2="165.59"/><line class="cls-1" x1="159.3" y1="166.72" x2="159.41" y2="166.94"/><line class="cls-1" x1="160.06" y1="168.07" x2="160.17" y2="168.29"/><line class="cls-1" x1="160.76" y1="169.42" x2="160.87" y2="169.64"/><line class="cls-1" x1="161.52" y1="170.72" x2="161.62" y2="170.94"/><line class="cls-1" x1="162.27" y1="172.02" x2="162.38" y2="172.23"/><line class="cls-1" x1="163.03" y1="173.31" x2="163.14" y2="173.53"/><line class="cls-1" x1="163.78" y1="174.61" x2="163.95" y2="174.82"/><line class="cls-1" x1="164.59" y1="175.96" x2="164.7" y2="176.17"/><line class="cls-1" x1="165.35" y1="177.25" x2="165.51" y2="177.47"/><line class="cls-1" x1="166.16" y1="178.55" x2="166.32" y2="178.77"/><line class="cls-1" x1="166.97" y1="179.85" x2="167.08" y2="180.06"/><line class="cls-1" x1="167.78" y1="181.14" x2="167.89" y2="181.36"/><line class="cls-1" x1="168.59" y1="182.44" x2="168.7" y2="182.65"/><line class="cls-1" x1="169.4" y1="183.73" x2="169.51" y2="183.95"/><line class="cls-1" x1="170.16" y1="185.03" x2="170.32" y2="185.25"/><line class="cls-1" x1="171.02" y1="186.33" x2="171.18" y2="186.54"/><line class="cls-1" x1="171.99" y1="187.57" x2="172.15" y2="187.73"/><line class="cls-1" x1="172.96" y1="188.76" x2="173.13" y2="188.97"/><line class="cls-1" x1="173.99" y1="190" x2="174.15" y2="190.21"/><line class="cls-1" x1="174.96" y1="191.24" x2="175.12" y2="191.4"/><line class="cls-1" x1="175.93" y1="192.43" x2="176.1" y2="192.59"/><line class="cls-1" x1="176.96" y1="193.56" x2="177.12" y2="193.72"/><line class="cls-1" x1="177.99" y1="194.7" x2="178.15" y2="194.86"/><line class="cls-1" x1="179.07" y1="195.83" x2="179.23" y2="195.99"/><line class="cls-1" x1="180.09" y1="196.96" x2="180.25" y2="197.13"/><line class="cls-1" x1="181.17" y1="198.1" x2="181.33" y2="198.26"/><line class="cls-1" x1="182.31" y1="199.18" x2="182.52" y2="199.34"/><line class="cls-1" x1="183.55" y1="200.1" x2="183.71" y2="200.26"/><line class="cls-1" x1="184.74" y1="201.01" x2="184.95" y2="201.18"/><line class="cls-1" x1="185.98" y1="201.99" x2="186.19" y2="202.15"/><line class="cls-1" x1="187.27" y1="202.8" x2="187.49" y2="202.9"/><line class="cls-1" x1="188.62" y1="203.44" x2="188.84" y2="203.55"/><line class="cls-1" x1="189.97" y1="204.09" x2="190.19" y2="204.2"/><line class="cls-1" x1="191.38" y1="204.63" x2="191.65" y2="204.63"/><line class="cls-1" x1="192.94" y1="204.58" x2="193.21" y2="204.58"/><line class="cls-1" x1="194.51" y1="204.52" x2="194.78" y2="204.52"/><line class="cls-1" x1="196.08" y1="204.47" x2="196.35" y2="204.47"/><line class="cls-1" x1="197.64" y1="204.42" x2="197.8" y2="204.42"/><line class="cls-1" x1="197.8" y1="204.42" x2="197.91" y2="204.36"/><line class="cls-1" x1="199.1" y1="203.88" x2="199.32" y2="203.82"/><line class="cls-1" x1="200.45" y1="203.34" x2="200.61" y2="203.28"/><line class="cls-1" x1="200.61" y1="203.28" x2="200.67" y2="203.28"/><line class="cls-1" x1="201.8" y1="202.8" x2="202.02" y2="202.69"/><line class="cls-1" x1="203.2" y1="202.2" x2="203.42" y2="202.09"/><line class="cls-1" x1="204.55" y1="201.5" x2="204.77" y2="201.39"/><line class="cls-1" x1="205.9" y1="200.8" x2="206.12" y2="200.69"/><line class="cls-1" x1="207.25" y1="200.1" x2="207.47" y2="199.99"/><line class="cls-1" x1="208.6" y1="199.39" x2="208.82" y2="199.29"/><line class="cls-1" x1="209.68" y1="198.31" x2="209.85" y2="198.15"/><line class="cls-1" x1="210.71" y1="197.13" x2="210.82" y2="197.02"/><line class="cls-1" x1="210.82" y1="197.02" x2="210.87" y2="196.96"/><line class="cls-1" x1="211.52" y1="195.88" x2="211.63" y2="195.67"/><line class="cls-1" x1="212.28" y1="194.59" x2="212.38" y2="194.43"/><line class="cls-1" x1="212.38" y1="194.43" x2="212.38" y2="194.37"/><line class="cls-1" x1="212.65" y1="193.13" x2="212.71" y2="192.91"/><line class="cls-1" x1="212.98" y1="191.67" x2="213.03" y2="191.46"/><line class="cls-1" x1="213.03" y1="190.16" x2="213.03" y2="189.89"/><line class="cls-1" x1="212.92" y1="188.59" x2="212.92" y2="188.32"/><line class="cls-1" x1="212.87" y1="187.03" x2="212.87" y2="186.76"/><line class="cls-1" x1="212.98" y1="185.46" x2="212.98" y2="185.19"/><line class="cls-1" x1="213.03" y1="183.9" x2="213.03" y2="183.9"/><line class="cls-1" x1="213.03" y1="183.9" x2="212.87" y2="183.68"/><line class="cls-1" x1="212.06" y1="182.65" x2="211.9" y2="182.44"/><line class="cls-1" x1="211.14" y1="181.41" x2="210.98" y2="181.2"/><line class="cls-1" x1="210.17" y1="180.17" x2="210.01" y2="179.95"/><line class="cls-1" x1="209.25" y1="178.93" x2="209.09" y2="178.77"/><line class="cls-1" x1="208.33" y1="177.74" x2="208.17" y2="177.52"/><line class="cls-1" x1="207.25" y1="176.55" x2="207.04" y2="176.39"/><line class="cls-1" x1="206.07" y1="175.53" x2="205.85" y2="175.36"/><line class="cls-1" x1="204.88" y1="174.5" x2="204.66" y2="174.34"/><line class="cls-1" x1="203.64" y1="173.47" x2="203.47" y2="173.31"/><line class="cls-1" x1="202.45" y1="172.45" x2="202.29" y2="172.29"/><line class="cls-1" x1="201.26" y1="171.42" x2="201.1" y2="171.26"/><line class="cls-1" x1="200.07" y1="170.4" x2="199.91" y2="170.23"/><line class="cls-1" x1="198.88" y1="169.37" x2="198.72" y2="169.21"/><line class="cls-1" x1="197.7" y1="168.34" x2="197.53" y2="168.18"/><line class="cls-1" x1="196.51" y1="167.32" x2="196.35" y2="167.16"/><line class="cls-1" x1="195.32" y1="166.29" x2="195.1" y2="166.13"/><line class="cls-1" x1="194.08" y1="165.32" x2="193.92" y2="165.16"/><line class="cls-1" x1="192.89" y1="164.35" x2="192.67" y2="164.19"/><line class="cls-1" x1="191.65" y1="163.38" x2="191.49" y2="163.21"/><line class="cls-1" x1="190.46" y1="162.4" x2="190.3" y2="162.24"/><line class="cls-1" x1="189.27" y1="161.43" x2="189.06" y2="161.27"/><line class="cls-1" x1="188.03" y1="160.41" x2="187.81" y2="160.24"/><line class="cls-1" x1="186.79" y1="159.43" x2="186.63" y2="159.27"/><line class="cls-1" x1="185.6" y1="158.52" x2="185.38" y2="158.35"/><line class="cls-1" x1="184.36" y1="157.6" x2="184.14" y2="157.49"/><line class="cls-1" x1="183.12" y1="156.73" x2="182.9" y2="156.57"/><line class="cls-1" x1="181.82" y1="155.82" x2="181.6" y2="155.65"/><line class="cls-1" x1="180.52" y1="154.9" x2="180.31" y2="154.74"/><line class="cls-1" x1="179.23" y1="153.98" x2="179.01" y2="153.82"/><line class="cls-1" x1="177.93" y1="153.06" x2="177.72" y2="152.9"/><line class="cls-1" x1="176.64" y1="152.14" x2="176.47" y2="152.04"/><line class="cls-1" x1="176.47" y1="152.04" x2="176.42" y2="151.98"/><line class="cls-1" x1="175.34" y1="151.33" x2="175.12" y2="151.23"/><line class="cls-1" x1="174.04" y1="150.58" x2="173.83" y2="150.42"/><line class="cls-1" x1="172.75" y1="149.77" x2="172.53" y2="149.66"/><line class="cls-1" x1="171.45" y1="148.96" x2="171.24" y2="148.85"/><line class="cls-1" x1="170.16" y1="148.2" x2="169.94" y2="148.04"/><line class="cls-1" x1="168.86" y1="147.39" x2="168.64" y2="147.28"/><line class="cls-1" x1="167.56" y1="146.64" x2="167.35" y2="146.47"/><line class="cls-1" x1="166.27" y1="145.83" x2="166.05" y2="145.72"/><line class="cls-1" x1="164.92" y1="145.07" x2="164.7" y2="144.96"/><line class="cls-1" x1="163.57" y1="144.31" x2="163.35" y2="144.21"/><line class="cls-1" x1="162.22" y1="143.56" x2="162" y2="143.45"/><line class="cls-1" x1="160.87" y1="142.8" x2="160.65" y2="142.69"/><line class="cls-1" x1="159.57" y1="141.99" x2="159.36" y2="141.88"/><line class="cls-1" x1="158.28" y1="141.18" x2="158.06" y2="141.07"/><line class="cls-1" x1="156.93" y1="140.48" x2="156.71" y2="140.37"/><line class="cls-1" x1="155.58" y1="139.83" x2="155.36" y2="139.72"/><line class="cls-1" x1="154.23" y1="139.13" x2="154.01" y2="139.02"/><line class="cls-1" x1="152.88" y1="138.48" x2="152.77" y2="138.43"/><line class="cls-1" x1="152.77" y1="138.43" x2="152.66" y2="138.37"/><line class="cls-1" x1="151.47" y1="137.94" x2="151.26" y2="137.89"/><line class="cls-1" x1="150.01" y1="137.62" x2="149.74" y2="137.62"/><line class="cls-1" x1="151.04" y1="137.51" x2="151.26" y2="137.46"/><line class="cls-1" x1="152.5" y1="137.19" x2="152.5" y2="137.19"/><line class="cls-1" x1="152.5" y1="137.19" x2="152.71" y2="137.08"/><line class="cls-1" x1="153.58" y1="136.16" x2="153.63" y2="136"/><line class="cls-1" x1="153.63" y1="136" x2="153.63" y2="135.94"/><line class="cls-1" x1="153.58" y1="135.13" x2="153.63" y2="135.08"/><line class="cls-1" x1="153.63" y1="135.08" x2="153.74" y2="134.97"/><line class="cls-1" x1="154.71" y1="134.11" x2="154.87" y2="133.95"/><line class="cls-1" x1="155.85" y1="133.08" x2="156.01" y2="132.92"/><line class="cls-1" x1="157.03" y1="132.11" x2="157.25" y2="131.95"/><line class="cls-1" x1="158.28" y1="131.08" x2="158.49" y2="130.92"/><line class="cls-1" x1="159.52" y1="130.06" x2="159.73" y2="129.9"/><line class="cls-1" x1="160.76" y1="129.03" x2="160.92" y2="128.87"/><line class="cls-1" x1="161.95" y1="128.01" x2="162.11" y2="127.84"/><line class="cls-1" x1="163.14" y1="126.98" x2="163.35" y2="126.82"/><line class="cls-1" x1="164.32" y1="125.95" x2="164.54" y2="125.79"/><line class="cls-1" x1="165.57" y1="124.93" x2="165.73" y2="124.77"/><line class="cls-1" x1="166.7" y1="123.9" x2="166.86" y2="123.74"/><line class="cls-1" x1="167.78" y1="122.82" x2="167.94" y2="122.66"/><line class="cls-1" x1="168.86" y1="121.74" x2="169.02" y2="121.58"/><line class="cls-1" x1="169.94" y1="120.61" x2="170.1" y2="120.45"/><line class="cls-1" x1="171.02" y1="119.53" x2="171.18" y2="119.37"/><line class="cls-1" x1="172.1" y1="118.45" x2="172.26" y2="118.29"/><line class="cls-1" x1="173.13" y1="117.31" x2="173.29" y2="117.1"/><line class="cls-1" x1="174.15" y1="116.13" x2="174.31" y2="115.91"/><line class="cls-1" x1="175.18" y1="114.94" x2="175.34" y2="114.72"/><line class="cls-1" x1="176.2" y1="113.75" x2="176.37" y2="113.53"/><line class="cls-1" x1="177.23" y1="112.56" x2="177.39" y2="112.35"/><line class="cls-1" x1="178.2" y1="111.37" x2="178.36" y2="111.21"/><line class="cls-1" x1="179.17" y1="110.19" x2="179.34" y2="109.97"/><line class="cls-1" x1="180.15" y1="108.94" x2="180.31" y2="108.78"/><line class="cls-1" x1="181.12" y1="107.76" x2="181.28" y2="107.54"/><line class="cls-1" x1="182.09" y1="106.51" x2="182.25" y2="106.3"/><line class="cls-1" x1="183.06" y1="105.27" x2="183.22" y2="105.11"/><line class="cls-1" x1="184.03" y1="104.08" x2="184.2" y2="103.87"/><line class="cls-1" x1="184.68" y1="102.68" x2="184.79" y2="102.46"/><line class="cls-1" x1="185.28" y1="101.28" x2="185.38" y2="101.06"/><line class="cls-1" x1="185.87" y1="99.87" x2="185.98" y2="99.66"/><line class="cls-1" x1="184.95" y1="99.22" x2="184.74" y2="99.17"/><line class="cls-1" x1="183.55" y1="98.58" x2="183.39" y2="98.41"/><line class="cls-1" x1="182.41" y1="97.5" x2="182.2" y2="97.33"/><line class="cls-1" x1="181.12" y1="96.69" x2="180.9" y2="96.63"/><line class="cls-1" x1="179.66" y1="96.36" x2="179.44" y2="96.31"/><line class="cls-1" x1="178.42" y1="95.44" x2="178.26" y2="95.28"/><line class="cls-1" x1="177.45" y1="94.31" x2="177.28" y2="94.15"/><line class="cls-1" x1="176.64" y1="93.07" x2="176.58" y2="92.85"/><line class="cls-1" x1="176.15" y1="91.66" x2="176.04" y2="91.45"/><line class="cls-1" x1="175.77" y1="90.21" x2="175.72" y2="89.94"/><line class="cls-1" x1="175.5" y1="88.69" x2="175.45" y2="88.48"/><line class="cls-1" x1="175.5" y1="87.18" x2="175.56" y2="86.97"/><line class="cls-1" x1="175.61" y1="85.67" x2="175.66" y2="85.4"/><line class="cls-1" x1="175.72" y1="84.1" x2="175.72" y2="83.83"/><line class="cls-1" x1="174.96" y1="82.97" x2="174.75" y2="82.92"/><line class="cls-1" x1="173.61" y1="82.7" x2="173.45" y2="82.86"/><line class="cls-1" x1="172.48" y1="83.73" x2="172.32" y2="83.89"/><line class="cls-1" x1="171.34" y1="84.81" x2="171.13" y2="84.97"/><line class="cls-1" x1="170.16" y1="85.89" x2="170.16" y2="85.89"/><line class="cls-1" x1="170.16" y1="85.89" x2="169.94" y2="86.05"/><line class="cls-1" x1="168.86" y1="86.8" x2="168.64" y2="86.91"/><line class="cls-1" x1="167.62" y1="87.67" x2="167.4" y2="87.78"/><line class="cls-1" x1="166.38" y1="88.53" x2="166.16" y2="88.69"/><line class="cls-1" x1="165.13" y1="89.45" x2="164.92" y2="89.61"/><line class="cls-1" x1="163.89" y1="90.48" x2="163.73" y2="90.64"/><line class="cls-1" x1="162.76" y1="91.5" x2="162.54" y2="91.66"/><line class="cls-1" x1="161.35" y1="91.93" x2="161.14" y2="91.99"/><line class="cls-1" x1="160.22" y1="91.29" x2="160.17" y2="91.07"/><line class="cls-1" x1="159.63" y1="89.94" x2="159.52" y2="89.72"/><line class="cls-1" x1="158.49" y1="89.02" x2="158.28" y2="88.86"/><line class="cls-1" x1="157.09" y1="88.42" x2="156.87" y2="88.32"/><line class="cls-1" x1="155.63" y1="88.37" x2="155.41" y2="88.42"/><line class="cls-1" x1="154.23" y1="88.64" x2="154.01" y2="88.53"/><line class="cls-1" x1="152.88" y1="87.99" x2="152.71" y2="87.88"/><line class="cls-1" x1="152.71" y1="87.88" x2="152.66" y2="87.83"/><line class="cls-1" x1="151.63" y1="87.07" x2="151.42" y2="86.91"/><line class="cls-1" x1="150.34" y1="86.16" x2="150.12" y2="86.05"/><line class="cls-1" x1="149.26" y1="137.89" x2="149.26" y2="138.16"/><line class="cls-1" x1="149.2" y1="139.45" x2="149.2" y2="139.72"/><line class="cls-1" x1="149.2" y1="141.07" x2="149.2" y2="141.18"/><line class="cls-1" x1="149.2" y1="141.18" x2="149.2" y2="141.34"/><line class="cls-1" x1="149.04" y1="142.64" x2="149.04" y2="142.91"/><line class="cls-1" x1="148.88" y1="144.21" x2="148.88" y2="144.48"/><line class="cls-1" x1="148.66" y1="145.72" x2="148.61" y2="145.93"/><line class="cls-1" x1="148.39" y1="147.18" x2="148.34" y2="147.39"/><line class="cls-1" x1="148.12" y1="148.69" x2="148.07" y2="148.9"/><line class="cls-1" x1="147.8" y1="150.15" x2="147.75" y2="150.36"/><line class="cls-1" x1="147.48" y1="151.6" x2="147.42" y2="151.82"/><line class="cls-1" x1="147.04" y1="153.06" x2="146.99" y2="153.28"/><line class="cls-1" x1="146.5" y1="154.47" x2="146.45" y2="154.68"/><line class="cls-1" x1="145.91" y1="155.87" x2="145.8" y2="156.09"/><line class="cls-1" x1="145.21" y1="157.22" x2="145.1" y2="157.38"/><line class="cls-1" x1="145.1" y1="157.38" x2="145.05" y2="157.33"/><line class="cls-1" x1="144.13" y1="157.65" x2="144.02" y2="157.87"/><line class="cls-1" x1="143.43" y1="159" x2="143.32" y2="159.22"/><line class="cls-1" x1="142.72" y1="160.35" x2="142.62" y2="160.57"/><line class="cls-1" x1="141.97" y1="161.7" x2="141.86" y2="161.92"/><line class="cls-1" x1="141.27" y1="163.05" x2="141.16" y2="163.27"/><line class="cls-1" x1="140.51" y1="164.4" x2="140.4" y2="164.62"/><line class="cls-1" x1="139.81" y1="165.75" x2="139.7" y2="165.97"/><line class="cls-1" x1="139.11" y1="167.05" x2="139" y2="167.26"/><line class="cls-1" x1="138.4" y1="168.34" x2="138.3" y2="168.56"/><line class="cls-1" x1="137.7" y1="169.64" x2="137.59" y2="169.86"/><line class="cls-1" x1="136.95" y1="170.94" x2="136.78" y2="171.15"/><line class="cls-1" x1="136.14" y1="172.29" x2="136.03" y2="172.5"/><line class="cls-1" x1="135.38" y1="173.58" x2="135.27" y2="173.8"/><line class="cls-1" x1="134.62" y1="174.88" x2="134.46" y2="175.09"/><line class="cls-1" x1="133.81" y1="176.23" x2="133.71" y2="176.44"/><line class="cls-1" x1="133.06" y1="177.52" x2="132.9" y2="177.74"/><line class="cls-1" x1="132.25" y1="178.82" x2="132.09" y2="179.04"/><line class="cls-1" x1="131.44" y1="180.12" x2="131.28" y2="180.33"/><line class="cls-1" x1="130.63" y1="181.41" x2="130.52" y2="181.63"/><line class="cls-1" x1="129.82" y1="182.71" x2="129.71" y2="182.92"/><line class="cls-1" x1="129.01" y1="184" x2="128.9" y2="184.22"/><line class="cls-1" x1="128.25" y1="185.3" x2="128.09" y2="185.52"/><line class="cls-1" x1="127.33" y1="186.6" x2="127.17" y2="186.81"/><line class="cls-1" x1="126.36" y1="187.84" x2="126.2" y2="188"/><line class="cls-1" x1="125.39" y1="189.03" x2="125.23" y2="189.19"/><line class="cls-1" x1="124.42" y1="190.21" x2="124.26" y2="190.43"/><line class="cls-1" x1="123.39" y1="191.46" x2="123.23" y2="191.67"/><line class="cls-1" x1="122.42" y1="192.7" x2="122.37" y2="192.75"/><line class="cls-1" x1="122.37" y1="192.75" x2="122.26" y2="192.86"/><line class="cls-1" x1="121.34" y1="193.83" x2="121.18" y2="194.05"/><line class="cls-1" x1="120.26" y1="195.02" x2="120.1" y2="195.18"/><line class="cls-1" x1="119.18" y1="196.15" x2="119.02" y2="196.37"/><line class="cls-1" x1="118.1" y1="197.34" x2="117.94" y2="197.5"/><line class="cls-1" x1="117.07" y1="198.48" x2="116.91" y2="198.64"/><line class="cls-1" x1="115.89" y1="199.45" x2="115.67" y2="199.61"/><line class="cls-1" x1="114.64" y1="200.42" x2="114.43" y2="200.58"/><line class="cls-1" x1="113.4" y1="201.34" x2="113.19" y2="201.5"/><line class="cls-1" x1="112.16" y1="202.31" x2="111.94" y2="202.47"/><line class="cls-1" x1="110.81" y1="203.01" x2="110.59" y2="203.12"/><line class="cls-1" x1="109.46" y1="203.66" x2="109.24" y2="203.77"/><line class="cls-1" x1="108.11" y1="204.31" x2="107.89" y2="204.42"/><line class="cls-1" x1="106.65" y1="204.63" x2="106.44" y2="204.58"/><line class="cls-1" x1="105.09" y1="204.58" x2="104.87" y2="204.52"/><line class="cls-1" x1="103.52" y1="204.52" x2="103.25" y2="204.47"/><line class="cls-1" x1="101.9" y1="204.47" x2="101.63" y2="204.47"/><line class="cls-1" x1="100.33" y1="204.25" x2="100.12" y2="204.15"/><line class="cls-1" x1="98.93" y1="203.66" x2="98.71" y2="203.61"/><line class="cls-1" x1="97.58" y1="203.12" x2="97.36" y2="203.01"/><line class="cls-1" x1="96.18" y1="202.53" x2="95.96" y2="202.42"/><line class="cls-1" x1="94.77" y1="201.88" x2="94.56" y2="201.77"/><line class="cls-1" x1="93.42" y1="201.18" x2="93.21" y2="201.07"/><line class="cls-1" x1="92.07" y1="200.47" x2="91.86" y2="200.37"/><line class="cls-1" x1="90.72" y1="199.77" x2="90.51" y2="199.66"/><line class="cls-1" x1="89.43" y1="198.91" x2="89.26" y2="198.75"/><line class="cls-1" x1="88.4" y1="197.77" x2="88.24" y2="197.56"/><line class="cls-1" x1="87.48" y1="196.53" x2="87.32" y2="196.32"/><line class="cls-1" x1="86.67" y1="195.24" x2="86.56" y2="195.02"/><line class="cls-1" x1="86.08" y1="193.89" x2="86.02" y2="193.67"/><line class="cls-1" x1="85.75" y1="192.43" x2="85.7" y2="192.21"/><line class="cls-1" x1="85.48" y1="190.97" x2="85.48" y2="190.7"/><line class="cls-1" x1="85.59" y1="189.4" x2="85.59" y2="189.13"/><line class="cls-1" x1="85.65" y1="187.84" x2="85.7" y2="187.62"/><line class="cls-1" x1="85.65" y1="186.33" x2="85.65" y2="186.06"/><line class="cls-1" x1="85.59" y1="184.76" x2="85.59" y2="184.49"/><line class="cls-1" x1="85.97" y1="183.3" x2="86.13" y2="183.14"/><line class="cls-1" x1="86.89" y1="182.11" x2="87.05" y2="181.9"/><line class="cls-1" x1="87.86" y1="180.87" x2="88.02" y2="180.66"/><line class="cls-1" x1="88.78" y1="179.63" x2="88.94" y2="179.47"/><line class="cls-1" x1="89.7" y1="178.44" x2="89.86" y2="178.23"/><line class="cls-1" x1="90.67" y1="177.2" x2="90.78" y2="177.04"/><line class="cls-1" x1="90.78" y1="177.04" x2="90.83" y2="176.98"/><line class="cls-1" x1="91.86" y1="176.12" x2="92.02" y2="175.96"/><line class="cls-1" x1="93.04" y1="175.09" x2="93.21" y2="174.93"/><line class="cls-1" x1="94.23" y1="174.07" x2="94.39" y2="173.91"/><line class="cls-1" x1="95.42" y1="173.04" x2="95.58" y2="172.88"/><line class="cls-1" x1="96.61" y1="172.02" x2="96.77" y2="171.85"/><line class="cls-1" x1="97.8" y1="170.99" x2="97.96" y2="170.83"/><line class="cls-1" x1="98.98" y1="169.96" x2="99.15" y2="169.8"/><line class="cls-1" x1="100.17" y1="168.94" x2="100.33" y2="168.78"/><line class="cls-1" x1="101.36" y1="167.91" x2="101.58" y2="167.75"/><line class="cls-1" x1="102.55" y1="166.89" x2="102.76" y2="166.72"/><line class="cls-1" x1="103.79" y1="165.86" x2="104.01" y2="165.7"/><line class="cls-1" x1="105.03" y1="164.89" x2="105.19" y2="164.73"/><line class="cls-1" x1="106.22" y1="163.92" x2="106.44" y2="163.75"/><line class="cls-1" x1="107.46" y1="162.89" x2="107.68" y2="162.73"/><line class="cls-1" x1="108.7" y1="161.92" x2="108.87" y2="161.76"/><line class="cls-1" x1="109.89" y1="160.95" x2="110.11" y2="160.78"/><line class="cls-1" x1="111.13" y1="159.97" x2="111.3" y2="159.81"/><line class="cls-1" x1="112.32" y1="159" x2="112.48" y2="158.84"/><line class="cls-1" x1="113.56" y1="158.08" x2="113.78" y2="157.92"/><line class="cls-1" x1="114.86" y1="157.17" x2="115.08" y2="157"/><line class="cls-1" x1="116.16" y1="156.25" x2="116.37" y2="156.09"/><line class="cls-1" x1="117.45" y1="155.33" x2="117.67" y2="155.17"/><line class="cls-1" x1="118.75" y1="154.41" x2="118.96" y2="154.25"/><line class="cls-1" x1="120.04" y1="153.49" x2="120.26" y2="153.33"/><line class="cls-1" x1="121.34" y1="152.58" x2="121.56" y2="152.41"/><line class="cls-1" x1="122.64" y1="151.71" x2="122.85" y2="151.55"/><line class="cls-1" x1="123.93" y1="150.9" x2="124.15" y2="150.79"/><line class="cls-1" x1="125.23" y1="150.15" x2="125.44" y2="149.98"/><line class="cls-1" x1="126.52" y1="149.34" x2="126.74" y2="149.23"/><line class="cls-1" x1="127.82" y1="148.53" x2="128.04" y2="148.42"/><line class="cls-1" x1="129.12" y1="147.77" x2="129.33" y2="147.61"/><line class="cls-1" x1="130.41" y1="146.96" x2="130.63" y2="146.85"/><line class="cls-1" x1="131.71" y1="146.2" x2="131.92" y2="146.04"/><line class="cls-1" x1="133.06" y1="145.39" x2="133.27" y2="145.29"/><line class="cls-1" x1="134.41" y1="144.64" x2="134.62" y2="144.53"/><line class="cls-1" x1="135.76" y1="143.88" x2="135.97" y2="143.77"/><line class="cls-1" x1="137.11" y1="143.13" x2="137.32" y2="143.02"/><line class="cls-1" x1="138.4" y1="142.37" x2="138.62" y2="142.26"/><line class="cls-1" x1="139.7" y1="141.56" x2="139.92" y2="141.45"/><line class="cls-1" x1="141" y1="140.86" x2="141.21" y2="140.75"/><line class="cls-1" x1="142.35" y1="140.16" x2="142.51" y2="140.05"/><line class="cls-1" x1="142.51" y1="140.05" x2="142.56" y2="140.05"/><line class="cls-1" x1="143.7" y1="139.45" x2="143.91" y2="139.35"/><line class="cls-1" x1="145.05" y1="138.75" x2="145.26" y2="138.64"/><line class="cls-1" x1="146.45" y1="138.16" x2="146.45" y2="138.16"/><line class="cls-1" x1="146.45" y1="138.16" x2="146.67" y2="138.1"/><line class="cls-1" x1="147.85" y1="137.73" x2="147.85" y2="137.73"/><line class="cls-1" x1="147.85" y1="137.73" x2="148.07" y2="137.67"/><line class="cls-1" x1="148.29" y1="137.56" x2="148.02" y2="137.51"/><line class="cls-1" x1="146.72" y1="137.4" x2="146.5" y2="137.35"/><line class="cls-1" x1="145.37" y1="136.75" x2="145.26" y2="136.59"/><line class="cls-1" x1="145.26" y1="136.59" x2="145.21" y2="136.54"/><line class="cls-1" x1="144.99" y1="135.46" x2="145.21" y2="135.51"/><line class="cls-1" x1="144.45" y1="134.7" x2="144.29" y2="134.54"/><line class="cls-1" x1="143.37" y1="133.57" x2="143.16" y2="133.41"/><line class="cls-1" x1="142.13" y1="132.6" x2="141.97" y2="132.43"/><line class="cls-1" x1="140.94" y1="131.62" x2="140.73" y2="131.46"/><line class="cls-1" x1="139.7" y1="130.65" x2="139.59" y2="130.54"/><line class="cls-1" x1="139.59" y1="130.54" x2="139.54" y2="130.49"/><line class="cls-1" x1="138.51" y1="129.63" x2="138.35" y2="129.46"/><line class="cls-1" x1="137.32" y1="128.6" x2="137.11" y2="128.44"/><line class="cls-1" x1="136.14" y1="127.57" x2="135.92" y2="127.41"/><line class="cls-1" x1="134.89" y1="126.55" x2="134.73" y2="126.39"/><line class="cls-1" x1="133.71" y1="125.52" x2="133.54" y2="125.36"/><line class="cls-1" x1="132.52" y1="124.5" x2="132.3" y2="124.33"/><line class="cls-1" x1="131.38" y1="123.42" x2="131.22" y2="123.25"/><line class="cls-1" x1="130.3" y1="122.34" x2="130.14" y2="122.17"/><line class="cls-1" x1="129.22" y1="121.26" x2="129.06" y2="121.04"/><line class="cls-1" x1="128.14" y1="120.12" x2="127.98" y2="119.96"/><line class="cls-1" x1="127.06" y1="119.04" x2="126.9" y2="118.88"/><line class="cls-1" x1="125.98" y1="117.91" x2="125.82" y2="117.75"/><line class="cls-1" x1="124.96" y1="116.72" x2="124.8" y2="116.56"/><line class="cls-1" x1="123.93" y1="115.53" x2="123.77" y2="115.37"/><line class="cls-1" x1="122.91" y1="114.34" x2="122.74" y2="114.18"/><line class="cls-1" x1="121.88" y1="113.16" x2="121.72" y2="112.99"/><line class="cls-1" x1="120.85" y1="112.02" x2="120.69" y2="111.81"/><line class="cls-1" x1="119.88" y1="110.78" x2="119.72" y2="110.62"/><line class="cls-1" x1="118.91" y1="109.59" x2="118.75" y2="109.38"/><line class="cls-1" x1="117.94" y1="108.35" x2="117.78" y2="108.13"/><line class="cls-1" x1="116.97" y1="107.11" x2="116.8" y2="106.95"/><line class="cls-1" x1="115.99" y1="105.92" x2="115.83" y2="105.7"/><line class="cls-1" x1="115.02" y1="104.68" x2="114.86" y2="104.46"/><line class="cls-1" x1="114.16" y1="103.38" x2="114.1" y2="103.17"/><line class="cls-1" x1="113.62" y1="102.03" x2="113.51" y2="101.82"/><line class="cls-1" x1="113.02" y1="100.63" x2="112.92" y2="100.41"/><line class="cls-1" x1="112.86" y1="99.44" x2="113.08" y2="99.39"/><line class="cls-1" x1="114.32" y1="99.06" x2="114.54" y2="99.01"/><line class="cls-1" x1="115.45" y1="98.09" x2="115.62" y2="97.93"/><line class="cls-1" x1="116.64" y1="97.17" x2="116.86" y2="97.01"/><line class="cls-1" x1="117.99" y1="96.52" x2="118.21" y2="96.47"/><line class="cls-1" x1="119.45" y1="96.09" x2="119.61" y2="95.93"/><line class="cls-1" x1="120.58" y1="95.01" x2="120.58" y2="95.01"/><line class="cls-1" x1="120.58" y1="95.01" x2="120.75" y2="94.8"/><line class="cls-1" x1="121.56" y1="93.77" x2="121.72" y2="93.55"/><line class="cls-1" x1="122.2" y1="92.37" x2="122.26" y2="92.15"/><line class="cls-1" x1="122.64" y1="90.96" x2="122.69" y2="90.75"/><line class="cls-1" x1="122.91" y1="89.5" x2="122.96" y2="89.29"/><line class="cls-1" x1="123.12" y1="87.99" x2="123.07" y2="87.78"/><line class="cls-1" x1="123.01" y1="86.48" x2="122.96" y2="86.21"/><line class="cls-1" x1="122.91" y1="84.91" x2="122.91" y2="84.64"/><line class="cls-1" x1="122.8" y1="83.35" x2="122.8" y2="83.29"/><line class="cls-1" x1="122.8" y1="83.29" x2="123.01" y2="83.19"/><line class="cls-1" x1="124.2" y1="82.75" x2="124.42" y2="82.7"/><line class="cls-1" x1="125.5" y1="83.19" x2="125.66" y2="83.35"/><line class="cls-1" x1="126.63" y1="84.21" x2="126.79" y2="84.37"/><line class="cls-1" x1="127.77" y1="85.29" x2="127.93" y2="85.45"/><line class="cls-1" x1="128.95" y1="86.26" x2="129.17" y2="86.43"/><line class="cls-1" x1="130.25" y1="87.18" x2="130.47" y2="87.29"/><line class="cls-1" x1="131.49" y1="88.05" x2="131.71" y2="88.21"/><line class="cls-1" x1="132.79" y1="88.96" x2="133" y2="89.13"/><line class="cls-1" x1="134.03" y1="89.88" x2="134.19" y2="90.04"/><line class="cls-1" x1="135.16" y1="90.91" x2="135.33" y2="91.07"/><line class="cls-1" x1="136.35" y1="91.83" x2="136.57" y2="91.88"/><line class="cls-1" x1="137.86" y1="92.04" x2="137.97" y2="92.04"/><line class="cls-1" x1="137.97" y1="92.04" x2="138.03" y2="91.88"/><line class="cls-1" x1="138.57" y1="90.75" x2="138.67" y2="90.53"/><line class="cls-1" x1="139.32" y1="89.5" x2="139.54" y2="89.34"/><line class="cls-1" x1="140.62" y1="88.69" x2="140.67" y2="88.64"/><line class="cls-1" x1="140.67" y1="88.64" x2="140.83" y2="88.59"/><line class="cls-1" x1="142.08" y1="88.21" x2="142.29" y2="88.15"/><line class="cls-1" x1="143.48" y1="88.53" x2="143.7" y2="88.59"/><line class="cls-1" x1="144.88" y1="88.37" x2="145.1" y2="88.26"/><line class="cls-1" x1="146.23" y1="87.61" x2="146.45" y2="87.45"/><line class="cls-1" x1="147.48" y1="86.7" x2="147.53" y2="86.64"/><line class="cls-1" x1="147.53" y1="86.64" x2="147.69" y2="86.53"/><line class="cls-1" x1="148.77" y1="85.78" x2="148.99" y2="85.62"/></g></svg>