<svg id="Guns_Table_Gun" xmlns="http://www.w3.org/2000/svg" viewBox="0 0 300 263"><defs><style>.cls-1,.cls-3{fill:none;stroke-width:0.5px;}.cls-1{stroke:#000;}.cls-2{isolation:isolate;}.cls-3{stroke:#231f20;stroke-linecap:round;stroke-linejoin:round;}</style></defs><title>table-gun-table-starck-flos-F2954000-spech-tech-02-300x263</title><line class="cls-1" x1="176.55" y1="227.2" x2="125.6" y2="227.2"/><line class="cls-1" x1="176.55" y1="225.52" x2="176.55" y2="228.88"/><line class="cls-1" x1="125.6" y1="225.52" x2="125.6" y2="228.88"/><g class="cls-2"><path d="M121.7,240.51a3.56,3.56,0,0,1,.7,1.16,3.76,3.76,0,0,1,.26,1.44,3.86,3.86,0,0,1-.31,1.57,3.75,3.75,0,0,1-.85,1.25,3.83,3.83,0,0,1-1.31.82,4.47,4.47,0,0,1-1.67.3,4.74,4.74,0,0,1-1.45-.22,4.06,4.06,0,0,1-1.15-.61l-1.12,1.09-.53-.5,1.1-1.09a3.7,3.7,0,0,1-.72-1.17,4.27,4.27,0,0,1-.25-1.44,4,4,0,0,1,.31-1.56,3.77,3.77,0,0,1,.86-1.25,4,4,0,0,1,1.3-.83,4.69,4.69,0,0,1,1.65-.29,4.79,4.79,0,0,1,1.45.21,4.27,4.27,0,0,1,1.2.62l1.09-1.09.53.5Zm-1.3.25a2.86,2.86,0,0,0-1.88-.62,3,3,0,0,0-1.22.23,2.7,2.7,0,0,0-.91.63,2.86,2.86,0,0,0-.58.95,3.19,3.19,0,0,0-.21,1.16,2.9,2.9,0,0,0,.57,1.83Zm-3.74,4.72a3,3,0,0,0,.83.45,3.09,3.09,0,0,0,1,.16,3.17,3.17,0,0,0,1.23-.23,2.71,2.71,0,0,0,1.51-1.58,3.2,3.2,0,0,0,.2-1.17,3,3,0,0,0-.56-1.82Z"/><path d="M136.35,246.86h-7.48v-1.33l4.69-4.59c.18-.17.35-.36.53-.55a4.51,4.51,0,0,0,.48-.6,3.13,3.13,0,0,0,.35-.68,2,2,0,0,0,.13-.73,1.84,1.84,0,0,0-.17-.83,1.79,1.79,0,0,0-.49-.63,2.33,2.33,0,0,0-.73-.39,2.84,2.84,0,0,0-.88-.14,2.45,2.45,0,0,0-1.53.48,2.15,2.15,0,0,0-.81,1.3l-1.27-.13a3.16,3.16,0,0,1,1.21-2,3.72,3.72,0,0,1,2.31-.72,5,5,0,0,1,1.36.18,3.6,3.6,0,0,1,1.13.55,2.9,2.9,0,0,1,.78.92,2.79,2.79,0,0,1,.29,1.29,3.29,3.29,0,0,1-.21,1.2,5.06,5.06,0,0,1-.54,1,7.1,7.1,0,0,1-.75.91l-.88.85-3.7,3.53h6.18Z"/><path d="M140.4,240.83a2.38,2.38,0,0,1-.7-.38,2.56,2.56,0,0,1-.56-.58,2.85,2.85,0,0,1-.37-.74,2.93,2.93,0,0,1-.13-.83,2.77,2.77,0,0,1,.27-1.23,2.71,2.71,0,0,1,.71-.93,3,3,0,0,1,1-.59,3.88,3.88,0,0,1,2.52,0,3,3,0,0,1,1.05.59,2.71,2.71,0,0,1,.71.93,2.77,2.77,0,0,1,.27,1.23,2.62,2.62,0,0,1-.13.83,2.85,2.85,0,0,1-.37.74,2.75,2.75,0,0,1-.55.58,2.57,2.57,0,0,1-.71.38v0a2.78,2.78,0,0,1,1.59,1,3.14,3.14,0,0,1,.6,1.92,2.78,2.78,0,0,1-.31,1.33,3.21,3.21,0,0,1-.81,1,3.65,3.65,0,0,1-1.18.65,4.69,4.69,0,0,1-2.84,0,3.65,3.65,0,0,1-1.18-.65,3.21,3.21,0,0,1-.81-1,2.78,2.78,0,0,1-.31-1.33,3.14,3.14,0,0,1,.6-1.92,2.81,2.81,0,0,1,1.59-1Zm4.06,2.84a2.37,2.37,0,0,0-.19-.92,2.31,2.31,0,0,0-.5-.73,2.39,2.39,0,0,0-.8-.49,3.12,3.12,0,0,0-2.09,0,2.28,2.28,0,0,0-1.29,1.22,2.36,2.36,0,0,0-.18.92,2.32,2.32,0,0,0,.18.92,2.13,2.13,0,0,0,.51.74,2.21,2.21,0,0,0,.78.49,3.3,3.3,0,0,0,2.09,0,2.39,2.39,0,0,0,.8-.49,2.25,2.25,0,0,0,.5-.74A2.33,2.33,0,0,0,144.46,243.67Zm-.44-5.28a1.89,1.89,0,0,0-1.26-1.84,2.23,2.23,0,0,0-1.66,0,2.1,2.1,0,0,0-.66.41,1.84,1.84,0,0,0-.44.63,2,2,0,0,0-.16.8,1.91,1.91,0,0,0,.16.8,1.79,1.79,0,0,0,.44.64,2.1,2.1,0,0,0,.66.41,2.37,2.37,0,0,0,1.66,0,2.15,2.15,0,0,0,.67-.41,1.92,1.92,0,0,0,.59-1.44Z"/><path d="M151.17,235.34a3.37,3.37,0,0,1,2,.56,3.86,3.86,0,0,1,1.21,1.42,6.19,6.19,0,0,1,.58,1.9,13.08,13.08,0,0,1,0,3.95,6.19,6.19,0,0,1-.58,1.9,3.86,3.86,0,0,1-1.21,1.42,4,4,0,0,1-4.09,0,3.86,3.86,0,0,1-1.21-1.42,6.19,6.19,0,0,1-.58-1.9,13.08,13.08,0,0,1,0-3.95,6.19,6.19,0,0,1,.58-1.9,3.86,3.86,0,0,1,1.21-1.42A3.41,3.41,0,0,1,151.17,235.34Zm0,1a2.19,2.19,0,0,0-1.52.5,3.14,3.14,0,0,0-.84,1.23,5.71,5.71,0,0,0-.36,1.57c0,.55-.07,1.06-.07,1.5s0,.95.07,1.51a5.8,5.8,0,0,0,.36,1.57,3.14,3.14,0,0,0,.84,1.23,2.6,2.6,0,0,0,3,0,3.14,3.14,0,0,0,.84-1.23,6.19,6.19,0,0,0,.35-1.57c.05-.56.08-1.06.08-1.51s0-.95-.08-1.5a6.09,6.09,0,0,0-.35-1.57,3.14,3.14,0,0,0-.84-1.23A2.21,2.21,0,0,0,151.17,236.39Z"/><path d="M161.6,241c0-.27,0-.55,0-.83s0-.55,0-.83h1.18v1.14h0a2.54,2.54,0,0,1,1.1-1,3.3,3.3,0,0,1,1.41-.33,4.06,4.06,0,0,1,.67.06,2.44,2.44,0,0,1,.69.23,2.12,2.12,0,0,1,.62.48,2.31,2.31,0,0,1,.49.78,2.53,2.53,0,0,1,1.06-1.14,3,3,0,0,1,1.5-.41,2.89,2.89,0,0,1,2.21.76,3,3,0,0,1,.72,2.17v4.75h-1.1v-4.37a3,3,0,0,0-.42-1.74,1.72,1.72,0,0,0-1.54-.61,2,2,0,0,0-1,.23,1.82,1.82,0,0,0-.67.62,2.45,2.45,0,0,0-.38.87,4.17,4.17,0,0,0-.11,1v4h-1.1v-4.37a3,3,0,0,0-.42-1.74,1.72,1.72,0,0,0-1.54-.61l-.46.06a1.77,1.77,0,0,0-.74.35,2.76,2.76,0,0,0-.69.87,3.48,3.48,0,0,0-.3,1.6v3.84h-1.1Z"/><path d="M175.75,241c0-.27,0-.55,0-.83l-.06-.83h1.18v1.14h0a2.62,2.62,0,0,1,1.11-1,3.29,3.29,0,0,1,1.4-.33,4,4,0,0,1,.67.06,2.44,2.44,0,0,1,.69.23,2.29,2.29,0,0,1,.63.48,2.67,2.67,0,0,1,.49.78,2.51,2.51,0,0,1,1-1.14,3,3,0,0,1,1.5-.41,2.87,2.87,0,0,1,2.21.76,3,3,0,0,1,.72,2.17v4.75h-1.1v-4.37a3.11,3.11,0,0,0-.41-1.74,1.75,1.75,0,0,0-1.55-.61,2,2,0,0,0-1,.23,1.82,1.82,0,0,0-.67.62,2.64,2.64,0,0,0-.38.87,4.74,4.74,0,0,0-.11,1v4H181v-4.37a3.11,3.11,0,0,0-.41-1.74,1.75,1.75,0,0,0-1.55-.61l-.46.06a1.74,1.74,0,0,0-.73.35,2.51,2.51,0,0,0-.69.87,3.34,3.34,0,0,0-.31,1.6v3.84h-1.1Z"/></g><line class="cls-1" x1="196.7" y1="38.27" x2="105.3" y2="38.27"/><line class="cls-1" x1="196.7" y1="37.06" x2="196.7" y2="39.47"/><line class="cls-1" x1="105.3" y1="37.06" x2="105.3" y2="39.47"/><g class="cls-2"><path d="M122.61,23.21a3.84,3.84,0,0,1,.71,1.15,4.29,4.29,0,0,1,0,3,3.77,3.77,0,0,1-.86,1.25,3.89,3.89,0,0,1-1.3.82,4.78,4.78,0,0,1-3.13.07,4.18,4.18,0,0,1-1.15-.6L115.72,30l-.54-.49,1.1-1.09a3.5,3.5,0,0,1-.71-1.17,4,4,0,0,1-.25-1.44,4,4,0,0,1,.3-1.56,3.67,3.67,0,0,1,.86-1.25,3.91,3.91,0,0,1,1.3-.83,5,5,0,0,1,3.1-.08,4.27,4.27,0,0,1,1.2.62l1.09-1.09.54.5Zm-1.3.25a2.78,2.78,0,0,0-1.87-.62,3,3,0,0,0-1.22.23,2.6,2.6,0,0,0-.92.63,2.91,2.91,0,0,0-.58.94,3.28,3.28,0,0,0-.21,1.17,2.9,2.9,0,0,0,.57,1.83Zm-3.73,4.72a2.88,2.88,0,0,0,.83.45,3.05,3.05,0,0,0,1,.16,3.16,3.16,0,0,0,1.22-.23,2.87,2.87,0,0,0,.92-.64,2.83,2.83,0,0,0,.59-.94,3.2,3.2,0,0,0,.21-1.17,3,3,0,0,0-.57-1.82Z"/><path d="M136.71,19.28h-4.8l-.08,3.41a5,5,0,0,1,.78-.21,5.39,5.39,0,0,1,.8-.06,4.1,4.1,0,0,1,1.51.27,3.58,3.58,0,0,1,1.17.76,3.44,3.44,0,0,1,.76,1.15,3.9,3.9,0,0,1,0,2.95,3.61,3.61,0,0,1-.83,1.17,4.08,4.08,0,0,1-1.26.76,4.42,4.42,0,0,1-1.57.27,4,4,0,0,1-2-.51,3.42,3.42,0,0,1-1.37-1.51l1.19-.49a2.66,2.66,0,0,0,.93,1.06,2.44,2.44,0,0,0,1.37.39,2.59,2.59,0,0,0,1.05-.2,2.62,2.62,0,0,0,.83-.53,2.39,2.39,0,0,0,.77-1.79,2.6,2.6,0,0,0-.81-2,2.65,2.65,0,0,0-.92-.55,3.32,3.32,0,0,0-1.16-.19,4.82,4.82,0,0,0-1.25.16,6.82,6.82,0,0,0-1.19.46l.12-5.87h6Z"/><path d="M144,29.56h-1.2V19.67l-2.11,1.79L140,20.6l3-2.37H144Z"/><path d="M153.24,29.56h-1.19V19.67l-2.11,1.79-.75-.86,3-2.37h1.06Z"/><path d="M162.51,23.73c0-.27,0-.55,0-.83l-.06-.83h1.18v1.14h0a2.62,2.62,0,0,1,1.11-1,3.26,3.26,0,0,1,1.4-.33,4.06,4.06,0,0,1,.67.06,2.44,2.44,0,0,1,.69.23,2.26,2.26,0,0,1,.62.47,2.47,2.47,0,0,1,.49.79,2.59,2.59,0,0,1,1.06-1.14,3,3,0,0,1,1.5-.41,2.87,2.87,0,0,1,2.21.76,3,3,0,0,1,.72,2.16v4.76H173V25.19a3.17,3.17,0,0,0-.41-1.75,1.77,1.77,0,0,0-1.55-.6,2,2,0,0,0-1,.23,1.88,1.88,0,0,0-.67.61,2.79,2.79,0,0,0-.38.88,4.74,4.74,0,0,0-.11,1v4h-1.1V25.19a3.17,3.17,0,0,0-.41-1.75,1.77,1.77,0,0,0-1.55-.6l-.46.06a1.83,1.83,0,0,0-.74.35,2.51,2.51,0,0,0-.68.87,3.34,3.34,0,0,0-.31,1.6v3.84h-1.1Z"/><path d="M176.67,23.73c0-.27,0-.55,0-.83l-.06-.83h1.18v1.14h0a2.62,2.62,0,0,1,1.11-1,3.29,3.29,0,0,1,1.4-.33,4.18,4.18,0,0,1,.68.06,2.67,2.67,0,0,1,.69.23,2.42,2.42,0,0,1,.62.47,2.88,2.88,0,0,1,.49.79,2.51,2.51,0,0,1,1.05-1.14,3.06,3.06,0,0,1,1.51-.41,2.9,2.9,0,0,1,2.21.76,3.06,3.06,0,0,1,.71,2.16v4.76h-1.1V25.19a3.08,3.08,0,0,0-.41-1.75,1.76,1.76,0,0,0-1.55-.6,2,2,0,0,0-1,.23,2,2,0,0,0-.67.61,2.57,2.57,0,0,0-.37.88,4.17,4.17,0,0,0-.12,1v4h-1.1V25.19a3.08,3.08,0,0,0-.41-1.75,1.76,1.76,0,0,0-1.55-.6l-.45.06a1.72,1.72,0,0,0-.74.35,2.42,2.42,0,0,0-.69.87,3.34,3.34,0,0,0-.31,1.6v3.84h-1.09Z"/></g><line class="cls-1" x1="210.37" y1="217.41" x2="210.37" y2="47.19"/><line class="cls-1" x1="211.6" y1="217.41" x2="209.15" y2="217.41"/><line class="cls-1" x1="211.6" y1="47.19" x2="209.15" y2="47.19"/><g class="cls-2"><path d="M222.81,158.68l0,0a2,2,0,0,1,.29.73,4.3,4.3,0,0,1,.09.84,3.37,3.37,0,0,1-2.09,3.19,3.61,3.61,0,0,1-1.41.26,3.68,3.68,0,0,1-1.43-.27,3.24,3.24,0,0,1-1.1-.76,3.7,3.7,0,0,1-.72-1.17,4.48,4.48,0,0,1,0-2.95,3.44,3.44,0,0,1,.72-1.16,3.13,3.13,0,0,1,1.1-.77,3.68,3.68,0,0,1,1.43-.28,4.6,4.6,0,0,1,1.65.28,9.53,9.53,0,0,1,1.39.7l5,3.06v1.36Zm-3.15-1.15a2.64,2.64,0,0,0-1,.18,2.18,2.18,0,0,0-.77.52,2.74,2.74,0,0,0-.51.8,3,3,0,0,0,0,2.05,2.74,2.74,0,0,0,.51.8,2.18,2.18,0,0,0,.77.52,2.81,2.81,0,0,0,2,0,2.32,2.32,0,0,0,.78-.52,2.36,2.36,0,0,0,.5-.8,3,3,0,0,0,0-2.05,2.36,2.36,0,0,0-.5-.8,2.32,2.32,0,0,0-.78-.52A2.64,2.64,0,0,0,219.66,157.53Z"/><path d="M227.67,147.64v7.2h-1.32l-4.6-4.51-.54-.52a4.64,4.64,0,0,0-.61-.46,2.78,2.78,0,0,0-.67-.33,2,2,0,0,0-.74-.13,2,2,0,0,0-.83.16,1.82,1.82,0,0,0-.62.48,2.08,2.08,0,0,0-.39.7,2.66,2.66,0,0,0-.14.85,2.3,2.3,0,0,0,.48,1.47,2.11,2.11,0,0,0,1.3.78l-.13,1.22a3.16,3.16,0,0,1-2-1.16,3.45,3.45,0,0,1-.72-2.23,4.59,4.59,0,0,1,.18-1.3,3.2,3.2,0,0,1,.55-1.09,2.58,2.58,0,0,1,.92-.75,2.79,2.79,0,0,1,1.29-.29,3.29,3.29,0,0,1,1.2.21,4.46,4.46,0,0,1,1,.52,6.26,6.26,0,0,1,.91.72c.29.28.58.55.85.84l3.54,3.57v-6Z"/><path d="M223.93,140.05v-1.63H225v1.63h2.68v1.16H225v4.89h-1.32l-7.32-4.57v-1.48Zm-6.43,1.16v0l6.43,3.9v-3.93Z"/><path d="M221.85,132.22c-.28,0-.55,0-.83,0s-.56,0-.83.06v-1.14h1.13v0a2.5,2.5,0,0,1-1-1.07,3.05,3.05,0,0,1-.33-1.35,3.83,3.83,0,0,1,.06-.65,2.25,2.25,0,0,1,.23-.66,2.34,2.34,0,0,1,.47-.6,2.63,2.63,0,0,1,.79-.47,2.5,2.5,0,0,1-1.14-1,2.75,2.75,0,0,1-.41-1.45,2.72,2.72,0,0,1,.75-2.12,3.12,3.12,0,0,1,2.17-.69h4.75v1h-4.36a3.26,3.26,0,0,0-1.75.4A1.67,1.67,0,0,0,221,124a1.86,1.86,0,0,0,.23,1,1.81,1.81,0,0,0,.61.65,2.58,2.58,0,0,0,.87.36,4.31,4.31,0,0,0,1,.11h4v1.06h-4.36a3.17,3.17,0,0,0-1.75.4,1.66,1.66,0,0,0-.6,1.49,3.61,3.61,0,0,0,.06.44,1.67,1.67,0,0,0,.35.71,2.53,2.53,0,0,0,.86.66,3.53,3.53,0,0,0,1.6.3h3.84v1.06Z"/><path d="M221.85,118.58c-.28,0-.55,0-.83,0l-.83,0v-1.13h1.13v0a2.55,2.55,0,0,1-1-1.07,3.05,3.05,0,0,1-.33-1.35,3.83,3.83,0,0,1,.06-.65,2.25,2.25,0,0,1,.23-.66,2,2,0,0,1,.47-.6,2.44,2.44,0,0,1,.79-.47,2.56,2.56,0,0,1-1.14-1,3.12,3.12,0,0,1,.34-3.58,3.17,3.17,0,0,1,2.17-.68h4.75v1h-4.36a3.17,3.17,0,0,0-1.75.4,1.66,1.66,0,0,0-.6,1.49,1.84,1.84,0,0,0,.84,1.64,2.8,2.8,0,0,0,.87.36,4.9,4.9,0,0,0,1,.11h4v1.06h-4.36a3.17,3.17,0,0,0-1.75.4,1.65,1.65,0,0,0-.6,1.49,3.61,3.61,0,0,0,.06.44,1.73,1.73,0,0,0,.35.71,2.67,2.67,0,0,0,.86.66,3.53,3.53,0,0,0,1.6.3h3.84v1Z"/></g><g class="cls-2"><path d="M85.28,91.73v7.2H84l-4.59-4.51-.54-.51a5.13,5.13,0,0,0-.61-.46,3,3,0,0,0-.67-.34A2.06,2.06,0,0,0,76.8,93a2,2,0,0,0-.83.17,1.7,1.7,0,0,0-.62.47,2,2,0,0,0-.4.71,2.55,2.55,0,0,0-.13.84,2.33,2.33,0,0,0,.48,1.48,2.21,2.21,0,0,0,1.29.78l-.13,1.22a3.18,3.18,0,0,1-2-1.16,3.54,3.54,0,0,1-.72-2.24A4.26,4.26,0,0,1,74,94a3.2,3.2,0,0,1,.55-1.09,2.71,2.71,0,0,1,.92-.75,2.76,2.76,0,0,1,1.29-.28,3.6,3.6,0,0,1,1.2.2,4.9,4.9,0,0,1,1,.52,6.93,6.93,0,0,1,.91.73c.29.27.57.55.85.84l3.54,3.57v-6Z"/><path d="M78.82,87.73l0,0a1.83,1.83,0,0,1-.29-.73,4.35,4.35,0,0,1-.1-.84,3.4,3.4,0,0,1,.27-1.36,3.33,3.33,0,0,1,1.83-1.83A3.8,3.8,0,0,1,82,82.68a3.59,3.59,0,0,1,1.42.27,3.21,3.21,0,0,1,1.11.77,3.49,3.49,0,0,1,.72,1.17,4,4,0,0,1,.25,1.47,4.13,4.13,0,0,1-.25,1.47A3.49,3.49,0,0,1,84.5,89a3.35,3.35,0,0,1-1.11.77A3.59,3.59,0,0,1,82,90a4.6,4.6,0,0,1-1.65-.28,9.53,9.53,0,0,1-1.39-.7l-5-3V84.65ZM82,88.89a2.64,2.64,0,0,0,1-.19,2.18,2.18,0,0,0,.78-.52,2.26,2.26,0,0,0,.5-.8,3,3,0,0,0,0-2,2.36,2.36,0,0,0-.5-.8A2.48,2.48,0,0,0,83,84a2.81,2.81,0,0,0-2,0,2.33,2.33,0,0,0-.77.52,2.52,2.52,0,0,0-.5.8,2.86,2.86,0,0,0,0,2,2.41,2.41,0,0,0,.5.8,2.06,2.06,0,0,0,.77.52A2.64,2.64,0,0,0,82,88.89Z"/><path d="M81.54,75.25V73.62h1v1.63h2.69v1.16H82.59V81.3H81.28L74,76.73V75.25Zm-6.43,1.16v0l6.43,3.9V76.41Z"/><path d="M79.46,67.41q-.42,0-.84,0l-.83,0V66.36h1.14v0a2.49,2.49,0,0,1-1-1.07,2.94,2.94,0,0,1-.34-1.35,3.07,3.07,0,0,1,.07-.65,2.25,2.25,0,0,1,.23-.66,2,2,0,0,1,.47-.6,2.28,2.28,0,0,1,.78-.47,2.48,2.48,0,0,1-1.13-1,2.76,2.76,0,0,1-.42-1.45,2.73,2.73,0,0,1,.76-2.13,3.17,3.17,0,0,1,2.17-.68h4.75v1H80.91a3.25,3.25,0,0,0-1.74.4,1.64,1.64,0,0,0-.61,1.49,2,2,0,0,0,.23,1,1.93,1.93,0,0,0,.62.65,2.8,2.8,0,0,0,.87.36,4.9,4.9,0,0,0,1,.11h4v1.06H80.91a3.16,3.16,0,0,0-1.74.4,1.63,1.63,0,0,0-.61,1.49,3.61,3.61,0,0,0,.06.44,1.84,1.84,0,0,0,.36.71,2.67,2.67,0,0,0,.86.66,3.53,3.53,0,0,0,1.6.3h3.84v1Z"/><path d="M79.46,53.78q-.42,0-.84,0l-.83,0V52.73h1.14v0a2.41,2.41,0,0,1-1-1.06,2.94,2.94,0,0,1-.34-1.35,3.07,3.07,0,0,1,.07-.65A2.25,2.25,0,0,1,77.9,49a2,2,0,0,1,.47-.6,2.47,2.47,0,0,1,.78-.48,2.41,2.41,0,0,1-1.13-1,2.79,2.79,0,0,1-.42-1.45,2.73,2.73,0,0,1,.76-2.13,3.12,3.12,0,0,1,2.17-.69h4.75v1.06H80.91a3.16,3.16,0,0,0-1.74.4,1.64,1.64,0,0,0-.61,1.49,2,2,0,0,0,.23,1,1.93,1.93,0,0,0,.62.65,3.07,3.07,0,0,0,.87.36,4.9,4.9,0,0,0,1,.11h4v1.06H80.91a3.16,3.16,0,0,0-1.74.4,1.62,1.62,0,0,0-.61,1.48,3.37,3.37,0,0,0,.06.44,1.87,1.87,0,0,0,.36.72,2.67,2.67,0,0,0,.86.66,3.53,3.53,0,0,0,1.6.3h3.84v1.05Z"/></g><line class="cls-1" x1="94.2" y1="94.8" x2="94.2" y2="45.98"/><line class="cls-1" x1="95.64" y1="94.8" x2="92.75" y2="94.8"/><line class="cls-1" x1="95.64" y1="45.98" x2="92.75" y2="45.98"/><rect class="cls-3" x="125.22" y="214.68" width="51.33" height="2.18"/><polyline class="cls-3" points="105.3 94.8 122.33 46.85 179.67 46.85 196.7 94.8 105.3 94.8"/><polyline class="cls-3" points="149.5 94.8 149.5 99.84 148.75 99.84"/><polyline class="cls-3" points="148.75 99.84 148.61 99.85 148.46 99.9 148.33 99.97 148.22 100.06 148.12 100.18 148.06 100.31 148.01 100.45 148 100.59"/><polyline class="cls-3" points="148 100.59 148 105.78 148.06 105.78 148.06 116.34 148 116.34 148 124.02 148.06 124.02 148.06 134.38 148 134.38 148 136.25 147.39 136.25"/><polyline class="cls-3" points="147.39 136.25 147.29 136.26 147.19 136.29 147.11 136.33 147.03 136.39 146.97 136.46 146.92 136.55 146.89 136.65 146.88 136.74"/><line class="cls-3" x1="146.88" y1="136.74" x2="146.32" y2="155.25"/><polyline class="cls-3" points="146.32 155.25 146.13 156.85 145.66 158.4"/><line class="cls-3" x1="145.66" y1="158.4" x2="144.82" y2="160.48"/><polyline class="cls-3" points="144.82 160.48 144.65 161.03 144.57 161.61 144.58 162.2 144.69 162.77 144.9 163.32"/><polyline class="cls-3" points="144.9 163.32 145.24 164.05 145.86 165.53 145.48 174.38"/><polyline class="cls-3" points="145.48 174.38 138.92 172.52 132.8 169.5"/><polyline class="cls-3" points="132.8 169.5 130.21 167.62 127.94 165.35"/><line class="cls-3" x1="127.94" y1="165.35" x2="122.99" y2="159.33"/><line class="cls-3" x1="122.99" y1="159.33" x2="113.55" y2="165.22"/><polyline class="cls-3" points="113.55 165.22 118.43 171.39 124.21 176.72"/><polyline class="cls-3" points="124.21 176.72 129.9 180.36 136.05 183.15 142.54 185.02"/><polyline class="cls-3" points="142.54 185.02 142.47 186.48 141.43 186.44"/><polyline class="cls-3" points="141.43 186.44 141.14 186.46 140.86 186.53 140.6 186.65 140.37 186.82 140.17 187.03 140.02 187.27 139.93 187.54 139.87 187.83"/><line class="cls-3" x1="139.87" y1="187.83" x2="139.75" y2="189.38"/><polyline class="cls-3" points="139.76 189.38 139.47 189.41 139.2 189.5 138.94 189.63 138.72 189.81 138.53 190.03 138.38 190.27 138.28 190.54 138.23 190.82"/><line class="cls-3" x1="138.23" y1="190.83" x2="137.8" y2="197.23"/><polyline class="cls-3" points="137.8 197.23 137.85 197.77 138 198.28 138.24 198.76 138.57 199.19 138.98 199.54 139.45 199.8"/><polyline class="cls-3" points="139.45 199.81 139.22 200.31 138.93 200.77 138.55 201.16 138.12 201.5"/><polyline class="cls-3" points="138.13 201.5 137.81 201.69 137.47 201.84"/><polyline class="cls-3" points="137.47 201.84 128.07 205.34 127.12 205.43"/><polyline class="cls-3" points="127.12 205.43 126.73 205.5 126.36 205.66 126.03 205.87 125.73 206.13 125.48 206.44 125.3 206.78 125.18 207.16 125.12 207.55"/><line class="cls-3" x1="125.12" y1="207.56" x2="125.08" y2="208.54"/><polyline class="cls-3" points="125.08 208.54 125.13 208.56 125.17 208.6 125.2 208.64 125.22 208.68 125.24 208.74 125.25 208.78 125.24 208.84 125.23 208.88 125.21 208.93 125.18 208.97 125.14 209"/><line class="cls-3" x1="125.14" y1="209" x2="126.07" y2="211.72"/><polyline class="cls-3" points="126.07 211.72 126.13 211.87 126.22 212 126.33 212.11 126.45 212.21"/><line class="cls-3" x1="126.45" y1="212.21" x2="127.54" y2="212.89"/><polyline class="cls-3" points="127.54 212.89 127.64 212.77 127.75 212.69 127.89 212.62 128.03 212.58 128.18 212.56 128.33 212.58 128.48 212.62 128.61 212.68 128.73 212.77 128.83 212.88 128.91 213.02"/><line class="cls-3" x1="128.91" y1="213.02" x2="137.78" y2="209.46"/><polyline class="cls-3" points="137.78 209.46 138.31 209.31 138.86 209.24 139.41 209.26 139.95 209.39 140.47 209.6"/><line class="cls-3" x1="140.47" y1="209.6" x2="141.65" y2="210.21"/><polyline class="cls-3" points="141.65 210.21 141.87 210.31 142.09 210.34 142.31 210.35 142.54 210.31 142.75 210.23"/><polyline class="cls-3" points="142.76 210.23 143.78 210.23 143.59 213.15 148.63 214.54 148.69 214.68 153.35 214.69 153.34 214.18 153.55 214.18"/><polyline class="cls-3" points="153.55 214.18 153.65 214.16 153.75 214.13 153.84 214.09 153.92 214.03 153.99 213.96"/><line class="cls-3" x1="153.99" y1="213.96" x2="157.06" y2="209.91"/><polyline class="cls-3" points="157.06 209.91 157.16 209.76 157.23 209.59 157.28 209.42 157.29 209.23"/><line class="cls-3" x1="157.29" y1="209.23" x2="157.29" y2="169.15"/><polyline class="cls-3" points="157.29 169.15 157.29 169.12 157.3 169.08 157.32 169.05 157.34 169.02 157.37 168.99 157.39 168.97 157.43 168.96 157.46 168.95 157.5 168.95"/><polyline class="cls-3" points="157.5 168.95 157.63 168.94 157.75 168.9 157.86 168.85 157.96 168.77 158.05 168.68 158.12 168.57"/><line class="cls-3" x1="158.12" y1="168.57" x2="158.12" y2="168.18"/><polyline class="cls-3" points="158.12 168.19 158.1 168.07 158.08 167.97 158.03 167.86 157.96 167.77"/><polyline class="cls-3" points="157.96 167.77 157.92 167.73 157.9 167.67 157.88 167.62 157.87 167.56 157.88 167.5"/><line class="cls-3" x1="157.88" y1="167.5" x2="158.47" y2="164.18"/><polyline class="cls-3" points="158.47 164.18 158.53 163.95 158.63 163.73 158.77 163.54 158.94 163.38 159.14 163.24"/><polyline class="cls-3" points="159.14 163.24 159.22 163.19 159.3 163.11 159.35 163.03 159.4 162.94 159.43 162.85"/><line class="cls-3" x1="159.43" y1="162.84" x2="159.33" y2="158.47"/><polyline class="cls-3" points="159.33 158.47 159.31 158.28 159.25 158.11 159.16 157.94 159.04 157.8 158.9 157.68 158.73 157.59 158.55 157.54 158.36 157.52"/><polyline class="cls-3" points="158.36 157.52 157.81 157.52 157.81 156.79 158.46 156.79"/><polyline class="cls-3" points="158.46 156.79 158.54 156.78 158.62 156.76 158.69 156.73 158.75 156.68 158.81 156.63 158.85 156.56 158.89 156.49 158.91 156.41 158.91 156.33"/><line class="cls-3" x1="158.91" y1="156.33" x2="158.41" y2="136.75"/><polyline class="cls-3" points="158.41 136.75 158.4 136.65 158.37 136.55 158.31 136.45 158.25 136.37 158.16 136.31 158.07 136.26 157.97 136.23 157.87 136.22"/><polyline class="cls-3" points="157.87 136.22 157.19 136.22 157.19 133.95 157.17 133.95 157.17 123.59 157.19 123.59 157.19 121.87"/><polyline class="cls-3" points="157.19 121.87 157.19 121.78 157.16 121.7 157.13 121.62 157.08 121.55 157.02 121.49 156.94 121.44"/><line class="cls-3" x1="156.94" y1="121.44" x2="155.05" y2="120.27"/><polyline class="cls-3" points="155.06 120.27 154.42 119.8 153.88 119.23 153.43 118.59 153.09 117.88 152.87 117.12 152.78 116.34"/><polyline class="cls-3" points="152.78 116.34 152.5 116.34 152.51 105.78"/><polyline class="cls-3" points="152.51 105.78 152.52 105.64 152.56 105.51 152.62 105.39 152.71 105.28 152.81 105.19 152.93 105.12"/><line class="cls-3" x1="152.93" y1="105.12" x2="157.65" y2="102.91"/><polyline class="cls-3" points="157.65 102.91 157.81 102.85 157.97 102.82 158.14 102.8"/><line class="cls-3" x1="158.14" y1="102.8" x2="160.57" y2="102.8"/><polyline class="cls-3" points="160.57 102.8 160.64 102.8 160.72 102.77 160.78 102.74 160.84 102.69 160.88 102.64 160.92 102.57 160.94 102.5 160.95 102.42"/><line class="cls-3" x1="160.95" y1="102.42" x2="160.95" y2="100.08"/><polyline class="cls-3" points="160.95 100.08 160.94 100.02 160.93 99.95 160.9 99.89 160.86 99.84 160.81 99.79 160.76 99.75 160.7 99.72 160.64 99.71 160.57 99.7"/><polyline class="cls-3" points="160.57 99.7 152.5 99.7 152.5 94.8"/><line class="cls-3" x1="155.45" y1="100.69" x2="155.45" y2="102.95"/><polyline class="cls-3" points="155.45 102.95 155.44 103.05 155.41 103.14 155.37 103.23 155.31 103.31 155.24 103.38 155.16 103.44"/><line class="cls-3" x1="155.16" y1="103.44" x2="154.06" y2="104.03"/><polyline class="cls-3" points="154.06 104.03 153.98 104.07 153.91 104.08 153.82 104.08 153.75 104.07 153.67 104.04 153.6 104 153.54 103.95 153.49 103.89 153.45 103.81 153.43 103.74 153.42 103.66"/><line class="cls-3" x1="153.42" y1="103.66" x2="153.42" y2="100.67"/><polyline class="cls-3" points="153.42 100.67 153.43 100.59 153.46 100.51 153.49 100.44 153.55 100.38 153.61 100.32 153.68 100.28 153.76 100.26 153.84 100.25"/><line class="cls-3" x1="153.84" y1="100.25" x2="154.97" y2="100.22"/><polyline class="cls-3" points="154.97 100.22 155.05 100.23 155.13 100.25 155.21 100.28 155.28 100.32 155.33 100.38 155.38 100.45 155.41 100.52 155.44 100.61 155.44 100.69"/><polyline class="cls-3" points="152.5 123.11 152.5 134.44 153.19 134.44 153.42 134.39 153.59 134.22 153.65 133.98 154.17 133.98 154.17 123.61 153.65 123.61"/><polyline class="cls-3" points="153.65 123.61 153.64 123.52 153.61 123.44 153.56 123.36 153.51 123.29 153.44 123.23 153.36 123.18 153.28 123.15 153.19 123.14"/><line class="cls-3" x1="153.19" y1="123.13" x2="152.5" y2="123.12"/><line class="cls-3" x1="144.68" y1="190.25" x2="139.89" y2="189.87"/><polyline class="cls-3" points="139.89 189.88 139.69 189.88 139.5 189.91 139.32 189.98 139.15 190.08 139 190.21 138.88 190.36"/><line class="cls-3" x1="138.88" y1="190.36" x2="138.7" y2="193.02"/><polyline class="cls-3" points="138.7 193.02 139.23 193.96 139.93 194.77 140.78 195.44"/><polyline class="cls-3" points="140.78 195.44 141.63 195.92 142.54 196.28"/><polyline class="cls-3" points="142.54 196.28 142.86 196.26 143.17 196.19 143.46 196.06 143.73 195.88"/><line class="cls-3" x1="143.73" y1="195.88" x2="144.44" y2="195.23"/><line class="cls-3" x1="144.44" y1="195.23" x2="144.68" y2="190.25"/><line class="cls-3" x1="138.54" y1="195.52" x2="138.45" y2="197.49"/><polyline class="cls-3" points="138.45 197.48 138.46 197.78 138.53 198.06 138.64 198.34 138.79 198.58 138.99 198.81 139.23 198.98 139.48 199.12 139.76 199.21"/><line class="cls-3" x1="139.76" y1="199.21" x2="140.08" y2="199.28"/><line class="cls-3" x1="140.08" y1="199.28" x2="144.06" y2="199.4"/><polyline class="cls-3" points="144.06 199.4 144.09 199.4 144.11 199.39 144.14 199.37 144.16 199.36 144.18 199.34 144.2 199.31 144.21 199.28 144.22 199.26"/><polyline class="cls-3" points="144.22 199.26 144.22 199.2 144.21 199.14 144.2 199.08 144.17 199.03"/><line class="cls-3" x1="144.17" y1="199.03" x2="144.12" y2="198.95"/><polyline class="cls-3" points="144.12 198.95 143.89 198.74 143.52 198.39"/><polyline class="cls-3" points="143.52 198.39 143.28 198.12 143.08 197.84"/><line class="cls-3" x1="143.08" y1="197.84" x2="142.94" y2="197.59"/><polyline class="cls-3" points="142.94 197.59 142.92 197.57 142.9 197.55 142.88 197.53 142.85 197.52 142.83 197.5"/><line class="cls-3" x1="142.83" y1="197.5" x2="142.54" y2="197.39"/><polyline class="cls-3" points="142.54 197.39 141.62 197.06 140.74 196.64"/><polyline class="cls-3" points="140.74 196.64 140.26 196.33 139.83 195.94"/><line class="cls-3" x1="139.83" y1="195.94" x2="139.59" y2="195.64"/><line class="cls-3" x1="139.59" y1="195.64" x2="139.29" y2="195.2"/><polyline class="cls-3" points="139.28 195.21 139.24 195.16 139.2 195.12 139.15 195.09 139.09 195.07 139.03 195.06 138.97 195.06 138.91 195.08 138.85 195.11 138.81 195.15 138.76 195.18 138.74 195.24"/><line class="cls-3" x1="138.74" y1="195.24" x2="138.54" y2="195.52"/></svg>