<svg id="Taccia_Small" xmlns="http://www.w3.org/2000/svg" viewBox="0 0 300 263"><defs><style>.cls-1,.cls-3{fill:none;stroke-width:0.5px;}.cls-1{stroke:#000;}.cls-2{isolation:isolate;}.cls-3{stroke:#1d1d1b;stroke-miterlimit:3.86;}</style></defs><title>taccia-small-table-castiglioni-flos-F6604004-spech-tech-02-300x263</title><line class="cls-1" x1="81" y1="218.47" x2="81" y2="74.03"/><line class="cls-1" x1="79.48" y1="218.47" x2="82.52" y2="218.47"/><line class="cls-1" x1="79.48" y1="74.03" x2="82.52" y2="74.03"/><line class="cls-1" x1="118.82" y1="226.96" x2="164" y2="226.96"/><line class="cls-1" x1="118.82" y1="226.02" x2="118.82" y2="227.9"/><line class="cls-1" x1="164" y1="226.02" x2="164" y2="227.9"/><g class="cls-2"><path d="M110.6,241a3.69,3.69,0,0,1,.71,1.16,4,4,0,0,1,.26,1.45,3.89,3.89,0,0,1-.31,1.57,3.73,3.73,0,0,1-.86,1.25,3.94,3.94,0,0,1-1.3.82,4.75,4.75,0,0,1-3.12.07,4,4,0,0,1-1.16-.61l-1.11,1.09-.53-.49,1.09-1.09a3.72,3.72,0,0,1-.71-1.18,4,4,0,0,1-.25-1.43,3.89,3.89,0,0,1,1.16-2.82,4,4,0,0,1,1.31-.82,4.4,4.4,0,0,1,1.65-.3,4.54,4.54,0,0,1,1.45.22,3.85,3.85,0,0,1,1.19.62l1.1-1.09.53.49Zm-1.29.26a2.83,2.83,0,0,0-1.88-.63,3.16,3.16,0,0,0-1.22.23,2.72,2.72,0,0,0-.91.64,2.66,2.66,0,0,0-.58.94,3.2,3.2,0,0,0-.21,1.17,2.94,2.94,0,0,0,.56,1.82ZM105.57,246a2.88,2.88,0,0,0,.83.45,3.32,3.32,0,0,0,1,.16,3,3,0,0,0,1.22-.24,2.6,2.6,0,0,0,.92-.63,2.63,2.63,0,0,0,.59-.94,3.24,3.24,0,0,0,.21-1.17,3.12,3.12,0,0,0-.56-1.83Z"/><path d="M122.76,247.32h-1.19v-9.88l-2.11,1.79-.75-.87,3-2.36h1.06Z"/><path d="M133.13,243.58h1.69v1h-1.69v2.69h-1.2v-2.69h-5.08v-1.31L131.6,236h1.53Zm-1.2-6.43h0l-4.05,6.43h4.08Z"/><path d="M143.73,247.32h-7.48V246l4.69-4.6.53-.54a4.59,4.59,0,0,0,.48-.61,3.56,3.56,0,0,0,.35-.67,2.06,2.06,0,0,0,.13-.74,2,2,0,0,0-.17-.83,1.85,1.85,0,0,0-.49-.62A2.33,2.33,0,0,0,141,237a2.58,2.58,0,0,0-.88-.14,2.45,2.45,0,0,0-1.53.48,2.21,2.21,0,0,0-.82,1.29l-1.26-.12a3.18,3.18,0,0,1,1.21-2,3.72,3.72,0,0,1,2.31-.72,4.66,4.66,0,0,1,1.36.19,3.4,3.4,0,0,1,1.13.55,2.9,2.9,0,0,1,.78.92,2.79,2.79,0,0,1,.29,1.29,3.36,3.36,0,0,1-.21,1.2,5,5,0,0,1-.54,1,6.47,6.47,0,0,1-.75.91l-.88.85-3.7,3.54h6.18Z"/><path d="M150.51,241.5c0-.28,0-.56,0-.83s0-.56-.06-.84h1.18V241h0a2.46,2.46,0,0,1,1.1-1,3.17,3.17,0,0,1,1.4-.34,4.24,4.24,0,0,1,.68.07,2.55,2.55,0,0,1,.69.23,2.26,2.26,0,0,1,.62.47,2.42,2.42,0,0,1,.49.79,2.46,2.46,0,0,1,1-1.14,3,3,0,0,1,1.51-.42,2.94,2.94,0,0,1,2.21.76,3.08,3.08,0,0,1,.71,2.17v4.75H161V243a3.08,3.08,0,0,0-.41-1.75,1.76,1.76,0,0,0-1.55-.61,2.15,2.15,0,0,0-1,.23,2.1,2.1,0,0,0-.67.62,2.6,2.6,0,0,0-.37.87,4.31,4.31,0,0,0-.12,1v4h-1.09V243a3.08,3.08,0,0,0-.42-1.75,1.76,1.76,0,0,0-1.55-.61,2.89,2.89,0,0,0-.45.07,1.72,1.72,0,0,0-.74.35,2.58,2.58,0,0,0-.69.86,3.52,3.52,0,0,0-.31,1.6v3.84h-1.09Z"/><path d="M164.66,241.5c0-.28,0-.56,0-.83s0-.56,0-.84h1.18V241h0a2.46,2.46,0,0,1,1.1-1,3.18,3.18,0,0,1,1.41-.34,4.13,4.13,0,0,1,.67.07,2.44,2.44,0,0,1,.69.23,2.34,2.34,0,0,1,1.11,1.26,2.48,2.48,0,0,1,1.06-1.14,3.28,3.28,0,0,1,3.71.34,3,3,0,0,1,.71,2.17v4.75h-1.09V243a3.08,3.08,0,0,0-.42-1.75,1.74,1.74,0,0,0-1.54-.61,2.15,2.15,0,0,0-1,.23,2,2,0,0,0-.67.62,2.62,2.62,0,0,0-.38.87,4.31,4.31,0,0,0-.11,1v4h-1.1V243a3.08,3.08,0,0,0-.42-1.75,1.74,1.74,0,0,0-1.54-.61,2.79,2.79,0,0,0-.46.07,1.77,1.77,0,0,0-.74.35,2.71,2.71,0,0,0-.69.86,3.53,3.53,0,0,0-.3,1.6v3.84h-1.1Z"/></g><line class="cls-1" x1="101.45" y1="64.94" x2="205.71" y2="112.29"/><line class="cls-1" x1="102.02" y1="63.69" x2="100.88" y2="66.2"/><line class="cls-1" x1="206.28" y1="111.03" x2="205.14" y2="113.54"/><g class="cls-2"><path d="M135.16,63.93a4.12,4.12,0,0,1,.08,1.41,4.8,4.8,0,0,1-.44,1.51,4.6,4.6,0,0,1-1,1.39,4.08,4.08,0,0,1-1.32.85,3.86,3.86,0,0,1-3.11-.16,3.77,3.77,0,0,1-1.17-.82,3.63,3.63,0,0,1-.73-1.07l-1.47.59-.24-.7,1.46-.59a4.06,4.06,0,0,1-.08-1.44,4.9,4.9,0,0,1,.44-1.48,4.6,4.6,0,0,1,1-1.39,4.08,4.08,0,0,1,1.32-.85,3.71,3.71,0,0,1,1.52-.25,4,4,0,0,1,1.58.4,3.91,3.91,0,0,1,1.92,1.9l1.46-.59.23.7Zm-1.25-.29a2.56,2.56,0,0,0-1.35-1.38,2.73,2.73,0,0,0-1.18-.29,2.65,2.65,0,0,0-1.08.23,3.36,3.36,0,0,0-1,.67,4.07,4.07,0,0,0-.71,1,3.33,3.33,0,0,0-.35,2Zm-5.44,3a2.73,2.73,0,0,0,.52.78,2.72,2.72,0,0,0,3.09.64,2.79,2.79,0,0,0,.95-.67,3.71,3.71,0,0,0,.72-1,3.46,3.46,0,0,0,.35-2Z"/><path d="M143.73,67.89l.54.25a3.88,3.88,0,0,0,.91.3,2.22,2.22,0,0,0,.89,0,1.82,1.82,0,0,0,.78-.4,2.42,2.42,0,0,0,.62-.84,2,2,0,0,0,.16-1.6,2.14,2.14,0,0,0-1.17-1.16,2.4,2.4,0,0,0-1.29-.23,2.61,2.61,0,0,0-1.24.51l-.68-.93a3.32,3.32,0,0,1,3.67-.38,3.94,3.94,0,0,1,1.05.73,3,3,0,0,1,.68,1,2.82,2.82,0,0,1,.22,1.2,3.2,3.2,0,0,1-.34,1.33,2.72,2.72,0,0,1-.54.78,2.87,2.87,0,0,1-.72.55,3.18,3.18,0,0,1-.83.3,2.67,2.67,0,0,1-.84,0l0,.06a2.41,2.41,0,0,1,.63.72,2.78,2.78,0,0,1,.32.93,3.17,3.17,0,0,1,0,1,3.35,3.35,0,0,1-.32,1.05,3.69,3.69,0,0,1-.9,1.22,3.2,3.2,0,0,1-1.18.65,3.49,3.49,0,0,1-1.33.11,4.15,4.15,0,0,1-1.36-.39,4.06,4.06,0,0,1-1.73-1.47,3.52,3.52,0,0,1-.45-2.28l1.27.17a2.43,2.43,0,0,0,.22,1.53,2.64,2.64,0,0,0,1.26,1.07,2.41,2.41,0,0,0,.9.24,2.48,2.48,0,0,0,.9-.11,2.21,2.21,0,0,0,.79-.47,2.68,2.68,0,0,0,.59-.8,2.76,2.76,0,0,0,.28-1.15,2.08,2.08,0,0,0-.26-1,2.65,2.65,0,0,0-.65-.78,4.61,4.61,0,0,0-.92-.58l-.45-.21Z"/><path d="M157.46,69.92l-8.86,8-1.17-.56,8.94-7.91-5-2.39.49-1,6.09,2.9Z"/><path d="M159.85,75.57l.54.25a3.5,3.5,0,0,0,.91.31,2.22,2.22,0,0,0,.89,0,1.8,1.8,0,0,0,.78-.39,2.42,2.42,0,0,0,.62-.84,2.07,2.07,0,0,0,.16-1.61,2.12,2.12,0,0,0-1.17-1.15,2.32,2.32,0,0,0-1.29-.24,2.61,2.61,0,0,0-1.24.51l-.68-.93a3.37,3.37,0,0,1,3.67-.38,4.19,4.19,0,0,1,1.05.73,3,3,0,0,1,.68,1A2.84,2.84,0,0,1,165,74a3.15,3.15,0,0,1-.34,1.32,2.91,2.91,0,0,1-.54.79,3.08,3.08,0,0,1-.72.54,3.18,3.18,0,0,1-.83.3,2.68,2.68,0,0,1-.84,0l0,0a2.33,2.33,0,0,1,.63.73,2.89,2.89,0,0,1,.33.92,3.55,3.55,0,0,1,0,1,3.38,3.38,0,0,1-.32,1,3.69,3.69,0,0,1-.9,1.22,3.06,3.06,0,0,1-1.18.65,3.3,3.3,0,0,1-1.33.11,4.4,4.4,0,0,1-3.09-1.85,3.53,3.53,0,0,1-.45-2.29l1.27.17a2.47,2.47,0,0,0,.22,1.54,2.63,2.63,0,0,0,1.26,1.06,2.41,2.41,0,0,0,.9.24,2.28,2.28,0,0,0,.9-.11,2.21,2.21,0,0,0,.79-.47,2.56,2.56,0,0,0,.59-.8,2.73,2.73,0,0,0,.28-1.15,2.08,2.08,0,0,0-.26-1,2.51,2.51,0,0,0-.65-.78,5.11,5.11,0,0,0-.92-.58l-.45-.21Z"/><path d="M173.77,83l.36-.82.33-.82,1,.49L175,82.9l0,0a2.55,2.55,0,0,1,1.42-.5,2.84,2.84,0,0,1,1.38.26,3.74,3.74,0,0,1,.55.34,2.2,2.2,0,0,1,.5.51,2.16,2.16,0,0,1,.32.72,2.65,2.65,0,0,1,.07,1,2.58,2.58,0,0,1,1.44-.66,2.73,2.73,0,0,1,1.51.22,2.69,2.69,0,0,1,1.58,1.66,3.52,3.52,0,0,1-.38,2.39l-2.18,4.59-1-.46,2-4.22a3.61,3.61,0,0,0,.44-1.86,1.64,1.64,0,0,0-1.07-1.23,1.9,1.9,0,0,0-1-.2,2,2,0,0,0-.87.31,3.12,3.12,0,0,0-.72.69,5.15,5.15,0,0,0-.57.93l-1.84,3.85-1-.45,2-4.22a3.61,3.61,0,0,0,.44-1.86,1.61,1.61,0,0,0-1.07-1.23,3,3,0,0,0-.43-.13,1.63,1.63,0,0,0-.81,0,2.68,2.68,0,0,0-1,.54,4.08,4.08,0,0,0-1,1.42L172,89l-.95-.46Z"/><path d="M186.12,88.84q.19-.39.36-.81l.33-.83,1,.49-.52,1.1h0a2.54,2.54,0,0,1,1.42-.49,2.84,2.84,0,0,1,1.38.26,3.11,3.11,0,0,1,.56.34,2.38,2.38,0,0,1,.49.51,2.45,2.45,0,0,1,.33.71,3,3,0,0,1,.06,1,2.57,2.57,0,0,1,1.45-.65,2.93,2.93,0,0,1,3.08,1.87,3.45,3.45,0,0,1-.38,2.39l-2.18,4.59-1-.45,2-4.22a3.51,3.51,0,0,0,.44-1.86A1.59,1.59,0,0,0,194,91.53a1.8,1.8,0,0,0-1-.2,1.9,1.9,0,0,0-.87.31,3.16,3.16,0,0,0-.73.69,4.82,4.82,0,0,0-.57.93L189,97.11l-.95-.46,2-4.22a3.6,3.6,0,0,0,.44-1.85,1.61,1.61,0,0,0-1.07-1.23,3,3,0,0,0-.43-.13,1.58,1.58,0,0,0-.8,0,2.65,2.65,0,0,0-1,.55,3.87,3.87,0,0,0-1,1.42l-1.77,3.71-.95-.46Z"/></g><g class="cls-2"><path d="M66.9,154.56v-1.64H68v1.64h2.68v1.15H68v4.9H66.64L59.32,156v-1.47Zm-6.43,1.15v0l6.43,3.9v-3.93Z"/><path d="M64.61,149.34a2.25,2.25,0,0,1-.37.68,2.53,2.53,0,0,1-.59.54,3.07,3.07,0,0,1-.73.35,3,3,0,0,1-.84.13,2.9,2.9,0,0,1-1.22-.26,2.83,2.83,0,0,1-.94-.69,3.16,3.16,0,0,1-.59-1,3.5,3.5,0,0,1-.21-1.21,3.56,3.56,0,0,1,.21-1.22,3.27,3.27,0,0,1,.59-1,3,3,0,0,1,.94-.68,2.9,2.9,0,0,1,1.22-.26,2.63,2.63,0,0,1,.84.13,2.73,2.73,0,0,1,.73.35,2.53,2.53,0,0,1,.59.54,2.14,2.14,0,0,1,.37.68h0a2.74,2.74,0,0,1,1.06-1.54,3.21,3.21,0,0,1,1.92-.57,2.92,2.92,0,0,1,1.33.29,3.38,3.38,0,0,1,1.66,1.92,4.15,4.15,0,0,1,.23,1.37,4.19,4.19,0,0,1-.23,1.37A3.38,3.38,0,0,1,69,151.16a3.05,3.05,0,0,1-1.33.29,3.21,3.21,0,0,1-1.92-.57,2.74,2.74,0,0,1-1.06-1.54Zm-2.43-3.49a2.07,2.07,0,0,0-.8.15,1.9,1.9,0,0,0-.63.43,1.87,1.87,0,0,0-.42.64,2.07,2.07,0,0,0-.15.8,2.11,2.11,0,0,0,.15.8,2,2,0,0,0,.42.64,1.74,1.74,0,0,0,.63.42,2.07,2.07,0,0,0,.8.15,2.11,2.11,0,0,0,.8-.15,1.83,1.83,0,0,0,.63-.42,2,2,0,0,0,.42-.64,2.11,2.11,0,0,0,.15-.8,2.07,2.07,0,0,0-.15-.8,1.87,1.87,0,0,0-.42-.64A2,2,0,0,0,63,146,2.11,2.11,0,0,0,62.18,145.85Zm5.28-.41a2.51,2.51,0,0,0-.92.17,2.33,2.33,0,0,0-.74.49,2.15,2.15,0,0,0-.48.77,2.9,2.9,0,0,0,0,2,2.19,2.19,0,0,0,.48.76,2.41,2.41,0,0,0,3.32,0,2.19,2.19,0,0,0,.48-.76,2.9,2.9,0,0,0,0-2,2.15,2.15,0,0,0-.48-.77,2.33,2.33,0,0,0-.74-.49A2.51,2.51,0,0,0,67.46,145.44Z"/><path d="M60.37,136v4.63l3.41.08a3.44,3.44,0,0,1-.21-.76,4.87,4.87,0,0,1-.06-.76,3.8,3.8,0,0,1,.27-1.46,3.26,3.26,0,0,1,.76-1.13,3.72,3.72,0,0,1,1.15-.74,4,4,0,0,1,1.45-.26,3.89,3.89,0,0,1,1.5.29,3.39,3.39,0,0,1,1.16.8,3.51,3.51,0,0,1,.76,1.21,3.9,3.9,0,0,1,.28,1.51,3.63,3.63,0,0,1-.52,1.93,3.31,3.31,0,0,1-1.5,1.33l-.5-1.15a2.61,2.61,0,0,0,1.07-.89,2.31,2.31,0,0,0,.39-1.33,2.55,2.55,0,0,0-.2-1,2.5,2.5,0,0,0-.54-.81,2.68,2.68,0,0,0-.8-.54,2.54,2.54,0,0,0-1-.2,2.79,2.79,0,0,0-1.09.21,2.52,2.52,0,0,0-.85.58,2.35,2.35,0,0,0-.55.88,3.1,3.1,0,0,0-.2,1.12,4.52,4.52,0,0,0,.17,1.2,5.75,5.75,0,0,0,.46,1.15l-5.87-.11V136Z"/><path d="M64.82,128.93c-.28,0-.56,0-.83,0s-.56,0-.83.06v-1.14h1.13v0a2.44,2.44,0,0,1-1-1.07,3.07,3.07,0,0,1-.34-1.35,3.9,3.9,0,0,1,.07-.65,2.25,2.25,0,0,1,.23-.66,2.34,2.34,0,0,1,.47-.6,2.51,2.51,0,0,1,.79-.47,2.5,2.5,0,0,1-1.14-1,2.76,2.76,0,0,1-.42-1.45,2.73,2.73,0,0,1,.76-2.12,3.12,3.12,0,0,1,2.17-.69h4.75v1H66.28a3.26,3.26,0,0,0-1.75.4,1.68,1.68,0,0,0-.61,1.49,1.86,1.86,0,0,0,.24,1,1.81,1.81,0,0,0,.61.65,2.58,2.58,0,0,0,.87.36,4.31,4.31,0,0,0,1,.11h4v1.06H66.28a3.17,3.17,0,0,0-1.75.4,1.67,1.67,0,0,0-.61,1.49c0,.06,0,.21.07.44a1.67,1.67,0,0,0,.35.71,2.53,2.53,0,0,0,.86.66,3.53,3.53,0,0,0,1.6.3h3.84v1.06Z"/><path d="M64.82,115.29c-.28,0-.56,0-.83,0l-.83.05v-1.13h1.13v0a2.49,2.49,0,0,1-1-1.07,3.07,3.07,0,0,1-.34-1.35,3.9,3.9,0,0,1,.07-.65,2.25,2.25,0,0,1,.23-.66,2,2,0,0,1,.47-.6,2.33,2.33,0,0,1,.79-.47,2.56,2.56,0,0,1-1.14-1,3.07,3.07,0,0,1,.34-3.58,3.12,3.12,0,0,1,2.17-.68h4.75v1.05H66.28a3.17,3.17,0,0,0-1.75.4,1.67,1.67,0,0,0-.61,1.49,1.87,1.87,0,0,0,.85,1.64,3.07,3.07,0,0,0,.87.36,4.9,4.9,0,0,0,1,.11h4v1.06H66.28a3.17,3.17,0,0,0-1.75.4,1.65,1.65,0,0,0-.61,1.49c0,.06,0,.21.07.44a1.73,1.73,0,0,0,.35.71,2.67,2.67,0,0,0,.86.66,3.53,3.53,0,0,0,1.6.3h3.84v1.05Z"/></g><line class="cls-1" x1="174.52" y1="217.35" x2="174.17" y2="162.96"/><line class="cls-1" x1="173.39" y1="217.36" x2="175.65" y2="217.34"/><line class="cls-1" x1="173.04" y1="162.97" x2="175.3" y2="162.96"/><g class="cls-2"><path d="M196.19,212.06v1.19l-9.89.07,1.81,2.09-.86.76-2.39-3v-1.06Z"/><path d="M191.27,202.59l0,0a2.17,2.17,0,0,1,.3.75,4.84,4.84,0,0,1,.1.88,3.73,3.73,0,0,1-.26,1.42,3.35,3.35,0,0,1-.72,1.14,3.19,3.19,0,0,1-1.1.76,3.65,3.65,0,0,1-2.83,0,3.13,3.13,0,0,1-1.11-.79,3.57,3.57,0,0,1-.72-1.21,4.15,4.15,0,0,1-.27-1.52,4.39,4.39,0,0,1,.25-1.53,3.53,3.53,0,0,1,.71-1.22,3.12,3.12,0,0,1,1.1-.8,3.43,3.43,0,0,1,1.42-.3,4.39,4.39,0,0,1,1.65.28,9.78,9.78,0,0,1,1.4.72l5,3.14v1.41Zm-3.16-1.18a2.43,2.43,0,0,0-1,.2,2.23,2.23,0,0,0-.77.54,2.6,2.6,0,0,0-.5.84,3.21,3.21,0,0,0,0,2.12,2.41,2.41,0,0,0,.51.83,2.08,2.08,0,0,0,.77.53,2.61,2.61,0,0,0,2,0,2.23,2.23,0,0,0,.77-.54,2.29,2.29,0,0,0,.5-.84,3.3,3.3,0,0,0,0-2.12,2.41,2.41,0,0,0-.51-.83,2.21,2.21,0,0,0-.78-.53A2.46,2.46,0,0,0,188.11,201.41Z"/><path d="M190.06,196.31a2.29,2.29,0,0,1-.37.71,2.56,2.56,0,0,1-.58.56,2.85,2.85,0,0,1-.74.37,2.54,2.54,0,0,1-.83.14,2.73,2.73,0,0,1-1.22-.26,2.66,2.66,0,0,1-.94-.71,3.05,3.05,0,0,1-.6-1,3.79,3.79,0,0,1-.22-1.26,4.05,4.05,0,0,1,.2-1.26,3.18,3.18,0,0,1,.59-1.05,2.77,2.77,0,0,1,.93-.72,2.88,2.88,0,0,1,1.22-.28,2.53,2.53,0,0,1,.83.13,3,3,0,0,1,.74.36,2.81,2.81,0,0,1,.59.55,2.43,2.43,0,0,1,.38.71h0a2.8,2.8,0,0,1,1.05-1.6,3,3,0,0,1,1.91-.61,2.66,2.66,0,0,1,1.33.3,3.36,3.36,0,0,1,1,.8,3.65,3.65,0,0,1,.65,1.18,4.45,4.45,0,0,1,.23,1.42,4.18,4.18,0,0,1-.21,1.42,3.63,3.63,0,0,1-.64,1.18,3.35,3.35,0,0,1-1,.82,2.81,2.81,0,0,1-1.33.32,3.09,3.09,0,0,1-1.92-.59,2.78,2.78,0,0,1-1.07-1.59Zm-2.46-3.6a1.89,1.89,0,0,0-.79.16,1.81,1.81,0,0,0-.63.45,2,2,0,0,0-.42.66,2.54,2.54,0,0,0-.14.83,2,2,0,0,0,.16.83,2.15,2.15,0,0,0,.41.67,1.9,1.9,0,0,0,.64.43,1.79,1.79,0,0,0,.8.15,1.91,1.91,0,0,0,.8-.16,2,2,0,0,0,.63-.44,2.15,2.15,0,0,0,.41-.67,2.3,2.3,0,0,0,0-1.66,2,2,0,0,0-.42-.66,1.84,1.84,0,0,0-.63-.44A2.16,2.16,0,0,0,187.6,192.71Zm5.28-.47a2.56,2.56,0,0,0-.92.19,2.52,2.52,0,0,0-.73.51,2.22,2.22,0,0,0-.48.8,3,3,0,0,0-.17,1,2.89,2.89,0,0,0,.18,1.05,2.25,2.25,0,0,0,1.23,1.29,2.35,2.35,0,0,0,.92.17,2.17,2.17,0,0,0,.92-.19,2.09,2.09,0,0,0,.73-.51,2.25,2.25,0,0,0,.49-.79,3.12,3.12,0,0,0,.17-1.05,3.37,3.37,0,0,0-.18-1,2.32,2.32,0,0,0-.5-.8,2.25,2.25,0,0,0-.74-.5A2.32,2.32,0,0,0,192.88,192.24Z"/><path d="M190.19,184.35c-.28,0-.55,0-.83,0l-.83.07v-1.18h1.14v0a2.53,2.53,0,0,1-1-1.1,3.33,3.33,0,0,1-.35-1.4,4.18,4.18,0,0,1,.06-.68,2.44,2.44,0,0,1,.23-.69,2.26,2.26,0,0,1,.47-.62,2.5,2.5,0,0,1,.78-.5,2.51,2.51,0,0,1-1.14-1.05,3,3,0,0,1-.43-1.5,2.9,2.9,0,0,1,.75-2.21,3,3,0,0,1,2.16-.73l4.75,0v1.1l-4.37,0a3.1,3.1,0,0,0-1.74.43,1.77,1.77,0,0,0-.6,1.55,2.15,2.15,0,0,0,.24,1,2,2,0,0,0,.62.67,2.82,2.82,0,0,0,.87.37,4.9,4.9,0,0,0,1,.11l4,0v1.1l-4.37,0a3.14,3.14,0,0,0-1.74.43,1.74,1.74,0,0,0-.59,1.55,3.74,3.74,0,0,0,.06.46,1.77,1.77,0,0,0,.36.73,2.53,2.53,0,0,0,.87.69,3.39,3.39,0,0,0,1.6.29l3.84,0v1.1Z"/><path d="M190.1,170.2l-.83,0-.83.06v-1.18h1.14v0a2.51,2.51,0,0,1-1-1.09,3.33,3.33,0,0,1-.35-1.41,4.06,4.06,0,0,1,.06-.67,2.38,2.38,0,0,1,.7-1.32,2.48,2.48,0,0,1,.78-.49,2.51,2.51,0,0,1-1.14-1.05,3,3,0,0,1-.43-1.5,2.89,2.89,0,0,1,.75-2.21,3,3,0,0,1,2.16-.73l4.75,0v1.09l-4.37,0a3.14,3.14,0,0,0-1.74.43,1.76,1.76,0,0,0-.6,1.55,2.15,2.15,0,0,0,.24,1,2,2,0,0,0,.62.66,2.57,2.57,0,0,0,.88.37,4.17,4.17,0,0,0,1,.11l4,0v1.09l-4.36,0a3.16,3.16,0,0,0-1.75.43,1.73,1.73,0,0,0-.59,1.55,3.94,3.94,0,0,0,.06.45,1.87,1.87,0,0,0,.36.74,2.51,2.51,0,0,0,.87.68,3.38,3.38,0,0,0,1.6.3l3.84,0v1.09Z"/></g><path class="cls-3" d="M118.82,213.63H164v3.61H118.82Zm.76-50.67h3.8V210h-3.8Zm4.79,0h3.79V210h-3.79Zm4.78,0H133V210h-3.8Zm4.79,0h3.8V210h-3.8Zm4.78,0h3.8V210h-3.8Zm4.79,0h3.8V210h-3.8Zm4.78,0h3.8V210h-3.8Zm4.79,0h3.8V210h-3.8Zm4.79,0h3.79V210h-3.79Zm-31.14-3.81s-38.41-20.37-25.4-82m52.89,82s31.66-17.3,44.91-37.43M100.7,74.84a1.4,1.4,0,0,1,1.84-.69l98,44.68a1.38,1.38,0,0,1,.69,1.84l0,.08a1.4,1.4,0,0,1-1.85.69l-98-44.67a1.39,1.39,0,0,1-.69-1.84Zm.75,2.09s26.88,40,97.93,44.43m-77.31,34.48h37.54m-32.79,7.08,0-3.77h27.43v3.77m.06,47.05-.06,3.66H126.79V210"/></svg>