<svg id="Taccia" xmlns="http://www.w3.org/2000/svg" viewBox="0 0 300 263"><defs><style>.cls-1,.cls-3{fill:none;stroke-width:0.5px;}.cls-1{stroke:#000;}.cls-2{isolation:isolate;}.cls-3{stroke:#1d1d1b;stroke-miterlimit:3.86;}</style></defs><title>taccia-table-castiglioni-flos-F6602004-spech-tech-02-300x263</title><line class="cls-1" x1="81" y1="218.47" x2="81" y2="45.56"/><line class="cls-1" x1="79.18" y1="218.47" x2="82.82" y2="218.47"/><line class="cls-1" x1="79.18" y1="45.56" x2="82.82" y2="45.56"/><line class="cls-1" x1="112.77" y1="226.96" x2="167.16" y2="226.96"/><line class="cls-1" x1="112.77" y1="225.83" x2="112.77" y2="228.09"/><line class="cls-1" x1="167.16" y1="225.83" x2="167.16" y2="228.09"/><g class="cls-2"><path d="M110.6,241a3.69,3.69,0,0,1,.71,1.16,4,4,0,0,1,.26,1.45,3.89,3.89,0,0,1-.31,1.57,3.73,3.73,0,0,1-.86,1.25,3.94,3.94,0,0,1-1.3.82,4.75,4.75,0,0,1-3.12.07,4,4,0,0,1-1.16-.61l-1.11,1.09-.53-.49,1.09-1.09a3.72,3.72,0,0,1-.71-1.18,4,4,0,0,1-.25-1.43,3.89,3.89,0,0,1,1.16-2.82,4,4,0,0,1,1.31-.82,4.4,4.4,0,0,1,1.65-.3,4.54,4.54,0,0,1,1.45.22,3.85,3.85,0,0,1,1.19.62l1.1-1.09.53.49Zm-1.29.26a2.83,2.83,0,0,0-1.88-.63,3.16,3.16,0,0,0-1.22.23,2.72,2.72,0,0,0-.91.64,2.66,2.66,0,0,0-.58.94,3.2,3.2,0,0,0-.21,1.17,2.94,2.94,0,0,0,.56,1.82ZM105.57,246a2.88,2.88,0,0,0,.83.45,3.32,3.32,0,0,0,1,.16,3,3,0,0,0,1.22-.24,2.6,2.6,0,0,0,.92-.63,2.63,2.63,0,0,0,.59-.94,3.24,3.24,0,0,0,.21-1.17,3.12,3.12,0,0,0-.56-1.83Z"/><path d="M122.76,247.32h-1.19v-9.88l-2.11,1.79-.75-.87,3-2.36h1.06Z"/><path d="M132.27,242.46l0,0a2,2,0,0,1-.75.28,4.09,4.09,0,0,1-.88.1,3.93,3.93,0,0,1-1.42-.26,3.6,3.6,0,0,1-1.13-.73,3.32,3.32,0,0,1-.76-1.11,3.78,3.78,0,0,1,0-2.83,3.21,3.21,0,0,1,.8-1.1,3.57,3.57,0,0,1,1.21-.72,4.38,4.38,0,0,1,1.53-.26,4.47,4.47,0,0,1,1.53.26,3.78,3.78,0,0,1,1.21.72,3.35,3.35,0,0,1,.8,1.1,3.68,3.68,0,0,1,.28,1.43,4.38,4.38,0,0,1-.29,1.65,11.51,11.51,0,0,1-.72,1.39l-3.18,5h-1.41Zm1.19-3.15a2.4,2.4,0,0,0-.19-1,2.23,2.23,0,0,0-.54-.77,2.58,2.58,0,0,0-.83-.51,3,3,0,0,0-1.06-.18,3.08,3.08,0,0,0-1.07.18,2.69,2.69,0,0,0-.83.51,2.23,2.23,0,0,0-.54.77,2.57,2.57,0,0,0-.19,1,2.64,2.64,0,0,0,.19,1,2.37,2.37,0,0,0,.54.78,2.67,2.67,0,0,0,.83.5,3.08,3.08,0,0,0,1.07.17,3,3,0,0,0,1.06-.17,2.56,2.56,0,0,0,.83-.5,2.37,2.37,0,0,0,.54-.78A2.46,2.46,0,0,0,133.46,239.31Z"/><path d="M140.07,235.8a3.45,3.45,0,0,1,2.05.56,3.9,3.9,0,0,1,1.21,1.43,6.13,6.13,0,0,1,.58,1.89,13.82,13.82,0,0,1,.15,2,13.58,13.58,0,0,1-.15,2,6.11,6.11,0,0,1-.58,1.9,3.9,3.9,0,0,1-1.21,1.43,4,4,0,0,1-4.09,0,3.9,3.9,0,0,1-1.21-1.43,6.11,6.11,0,0,1-.58-1.9,13.58,13.58,0,0,1-.15-2,13.82,13.82,0,0,1,.15-2,6.13,6.13,0,0,1,.58-1.89,3.9,3.9,0,0,1,1.21-1.43A3.44,3.44,0,0,1,140.07,235.8Zm0,1.06a2.16,2.16,0,0,0-1.52.5,3.14,3.14,0,0,0-.84,1.23,6.09,6.09,0,0,0-.35,1.57c-.05.55-.08,1.05-.08,1.5s0,1,.08,1.5a6.09,6.09,0,0,0,.35,1.57,3.14,3.14,0,0,0,.84,1.23,2.56,2.56,0,0,0,3,0,3.14,3.14,0,0,0,.84-1.23,5.71,5.71,0,0,0,.36-1.57c.05-.55.07-1,.07-1.5s0-.95-.07-1.5a5.71,5.71,0,0,0-.36-1.57,3.14,3.14,0,0,0-.84-1.23A2.15,2.15,0,0,0,140.07,236.86Z"/><path d="M150.51,241.5c0-.28,0-.56,0-.83s0-.56-.06-.84h1.18V241h0a2.46,2.46,0,0,1,1.1-1,3.17,3.17,0,0,1,1.4-.34,4.24,4.24,0,0,1,.68.07,2.55,2.55,0,0,1,.69.23,2.26,2.26,0,0,1,.62.47,2.42,2.42,0,0,1,.49.79,2.46,2.46,0,0,1,1-1.14,3,3,0,0,1,1.51-.42,2.94,2.94,0,0,1,2.21.76,3.08,3.08,0,0,1,.71,2.17v4.75H161V243a3.08,3.08,0,0,0-.41-1.75,1.76,1.76,0,0,0-1.55-.61,2.15,2.15,0,0,0-1,.23,2.1,2.1,0,0,0-.67.62,2.6,2.6,0,0,0-.37.87,4.31,4.31,0,0,0-.12,1v4h-1.09V243a3.08,3.08,0,0,0-.42-1.75,1.76,1.76,0,0,0-1.55-.61,2.89,2.89,0,0,0-.45.07,1.72,1.72,0,0,0-.74.35,2.58,2.58,0,0,0-.69.86,3.52,3.52,0,0,0-.31,1.6v3.84h-1.09Z"/><path d="M164.66,241.5c0-.28,0-.56,0-.83s0-.56,0-.84h1.18V241h0a2.46,2.46,0,0,1,1.1-1,3.18,3.18,0,0,1,1.41-.34,4.13,4.13,0,0,1,.67.07,2.44,2.44,0,0,1,.69.23,2.34,2.34,0,0,1,1.11,1.26,2.48,2.48,0,0,1,1.06-1.14,3.28,3.28,0,0,1,3.71.34,3,3,0,0,1,.71,2.17v4.75h-1.09V243a3.08,3.08,0,0,0-.42-1.75,1.74,1.74,0,0,0-1.54-.61,2.15,2.15,0,0,0-1,.23,2,2,0,0,0-.67.62,2.62,2.62,0,0,0-.38.87,4.31,4.31,0,0,0-.11,1v4h-1.1V243a3.08,3.08,0,0,0-.42-1.75,1.74,1.74,0,0,0-1.54-.61,2.79,2.79,0,0,0-.46.07,1.77,1.77,0,0,0-.74.35,2.71,2.71,0,0,0-.69.86,3.53,3.53,0,0,0-.3,1.6v3.84h-1.1Z"/></g><line class="cls-1" x1="94.69" y1="39.31" x2="215.13" y2="94"/><line class="cls-1" x1="95.35" y1="37.86" x2="94.03" y2="40.76"/><line class="cls-1" x1="215.79" y1="92.55" x2="214.47" y2="95.46"/><g class="cls-2"><path d="M135.16,40.93a4.12,4.12,0,0,1,.08,1.41,4.8,4.8,0,0,1-.44,1.51,4.6,4.6,0,0,1-1,1.39,4.08,4.08,0,0,1-1.32.85,3.86,3.86,0,0,1-3.11-.16,3.77,3.77,0,0,1-1.17-.82,3.63,3.63,0,0,1-.73-1.07l-1.47.59-.24-.7,1.46-.59a4.06,4.06,0,0,1-.08-1.44,4.9,4.9,0,0,1,.44-1.48,4.6,4.6,0,0,1,1-1.39,4.08,4.08,0,0,1,1.32-.85,3.71,3.71,0,0,1,1.52-.25,4,4,0,0,1,1.58.4,3.91,3.91,0,0,1,1.92,1.9l1.46-.59.23.7Zm-1.25-.29a2.56,2.56,0,0,0-1.35-1.38,2.73,2.73,0,0,0-1.18-.29,2.65,2.65,0,0,0-1.08.23,3.36,3.36,0,0,0-1,.67,4.07,4.07,0,0,0-.71,1,3.33,3.33,0,0,0-.35,2Zm-5.44,3a2.73,2.73,0,0,0,.52.78,2.72,2.72,0,0,0,3.09.64,2.79,2.79,0,0,0,.95-.67,3.71,3.71,0,0,0,.72-1,3.46,3.46,0,0,0,.35-2Z"/><path d="M145.55,49l1.48.7-.48,1-1.48-.7-1.24,2.59-1-.49L144,49.5l-4.43-2.11.6-1.27,7.52-5.1,1.34.63Zm1.92-6.71,0,0-6.5,4.53,3.57,1.7Z"/><path d="M153.38,51.38l0-.05a1.79,1.79,0,0,1-.79,0,4,4,0,0,1-.81-.27,3.49,3.49,0,0,1-1.11-.85A3.35,3.35,0,0,1,150,49a3.5,3.5,0,0,1-.15-1.38,3.92,3.92,0,0,1,.41-1.47,4.1,4.1,0,0,1,.9-1.26,3.44,3.44,0,0,1,2.59-.92,4.17,4.17,0,0,1,2.67,1.27,3.55,3.55,0,0,1,.73,1.2,3.44,3.44,0,0,1,.18,1.4,4.07,4.07,0,0,1-.41,1.49,4.88,4.88,0,0,1-1,1.47,10.06,10.06,0,0,1-1.27,1l-5.06,3.49-1.23-.59Zm2.49-2.55a3,3,0,0,0,.29-1,2.19,2.19,0,0,0-.12-1,2.47,2.47,0,0,0-.49-.84,2.82,2.82,0,0,0-.84-.62,2.55,2.55,0,0,0-2-.12,2.36,2.36,0,0,0-.83.52,3.17,3.17,0,0,0-.91,1.92,2.42,2.42,0,0,0,.11,1,2.23,2.23,0,0,0,.5.83,2.64,2.64,0,0,0,.84.61,2.79,2.79,0,0,0,1,.28,2.2,2.2,0,0,0,1-.15,2.36,2.36,0,0,0,.83-.52A3,3,0,0,0,155.87,48.83Z"/><path d="M165.39,50.69l-4.19-2L159.56,52a4.1,4.1,0,0,1,.78.13,4.44,4.44,0,0,1,.72.27,3.62,3.62,0,0,1,1.2.89,3.39,3.39,0,0,1,.67,1.22,3.77,3.77,0,0,1,.13,1.43,4.28,4.28,0,0,1-.42,1.51,4.22,4.22,0,0,1-.95,1.32,3.86,3.86,0,0,1-1.26.79,3.93,3.93,0,0,1-1.45.21,4.07,4.07,0,0,1-1.49-.39A3.52,3.52,0,0,1,156,58a3.44,3.44,0,0,1-.51-2l1.27,0a2.63,2.63,0,0,0,.32,1.41,2.1,2.1,0,0,0,1,1,2.23,2.23,0,0,0,1,.24,2.45,2.45,0,0,0,1-.17,2.42,2.42,0,0,0,.86-.53,2.81,2.81,0,0,0,.64-.88,3,3,0,0,0,.31-1.14,2.53,2.53,0,0,0-.67-2,3,3,0,0,0-.92-.66,4,4,0,0,0-1.18-.36,5.16,5.16,0,0,0-1.24-.06l2.8-5.62,5.24,2.49Z"/><path d="M173.77,60l.36-.82.33-.82,1,.49L175,59.9l0,0a2.55,2.55,0,0,1,1.42-.5,2.84,2.84,0,0,1,1.38.26,3.74,3.74,0,0,1,.55.34,2.2,2.2,0,0,1,.5.51,2.16,2.16,0,0,1,.32.72,2.65,2.65,0,0,1,.07,1,2.58,2.58,0,0,1,1.44-.66,2.73,2.73,0,0,1,1.51.22,2.69,2.69,0,0,1,1.58,1.66,3.52,3.52,0,0,1-.38,2.39l-2.18,4.59-1-.46,2-4.22a3.61,3.61,0,0,0,.44-1.86,1.64,1.64,0,0,0-1.07-1.23,1.9,1.9,0,0,0-1-.2,2,2,0,0,0-.87.31,3.12,3.12,0,0,0-.72.69,5.15,5.15,0,0,0-.57.93l-1.84,3.85-1-.45,2-4.22a3.61,3.61,0,0,0,.44-1.86,1.61,1.61,0,0,0-1.07-1.23,3,3,0,0,0-.43-.13,1.63,1.63,0,0,0-.81,0,2.68,2.68,0,0,0-1,.54,4.08,4.08,0,0,0-1,1.42L172,66l-.95-.46Z"/><path d="M186.12,65.84q.19-.39.36-.81l.33-.83,1,.49-.52,1.1h0a2.54,2.54,0,0,1,1.42-.49,2.84,2.84,0,0,1,1.38.26,3.11,3.11,0,0,1,.56.34,2.38,2.38,0,0,1,.49.51,2.45,2.45,0,0,1,.33.71,3,3,0,0,1,.06,1,2.57,2.57,0,0,1,1.45-.65,2.93,2.93,0,0,1,3.08,1.87,3.45,3.45,0,0,1-.38,2.39l-2.18,4.59-1-.45,2-4.22a3.51,3.51,0,0,0,.44-1.86A1.59,1.59,0,0,0,194,68.53a1.8,1.8,0,0,0-1-.2,1.9,1.9,0,0,0-.87.31,3.16,3.16,0,0,0-.73.69,4.82,4.82,0,0,0-.57.93L189,74.11l-.95-.46,2-4.22a3.6,3.6,0,0,0,.44-1.85,1.61,1.61,0,0,0-1.07-1.23,3,3,0,0,0-.43-.13,1.58,1.58,0,0,0-.8,0,2.65,2.65,0,0,0-1,.55,3.87,3.87,0,0,0-1,1.42l-1.77,3.71-.95-.46Z"/></g><g class="cls-2"><path d="M64.18,158.14l0,0a2,2,0,0,1-.29-.73,4.3,4.3,0,0,1-.09-.84,3.63,3.63,0,0,1,.26-1.37,3.42,3.42,0,0,1,.73-1.09,3.47,3.47,0,0,1,1.1-.73,3.62,3.62,0,0,1,1.41-.27,3.68,3.68,0,0,1,1.43.28,3.24,3.24,0,0,1,1.1.76,3.59,3.59,0,0,1,.72,1.17,4.31,4.31,0,0,1,0,3,3.44,3.44,0,0,1-.72,1.16,3.13,3.13,0,0,1-1.1.77,3.68,3.68,0,0,1-1.43.28,4.6,4.6,0,0,1-1.65-.28,9.53,9.53,0,0,1-1.39-.7l-5-3.06v-1.36Zm3.15,1.15a2.61,2.61,0,0,0,1-.18,2.32,2.32,0,0,0,.78-.52,2.13,2.13,0,0,0,.5-.8,3,3,0,0,0,0-2,2.21,2.21,0,0,0-.5-.8,2.32,2.32,0,0,0-.78-.52,2.61,2.61,0,0,0-1-.18,2.64,2.64,0,0,0-1,.18,2.28,2.28,0,0,0-.77.52,2.52,2.52,0,0,0-.5.8,2.86,2.86,0,0,0,0,2,2.41,2.41,0,0,0,.5.8,2.28,2.28,0,0,0,.77.52A2.64,2.64,0,0,0,67.33,159.29Z"/><path d="M66.9,145.66V144H68v1.63h2.68v1.15H68v4.9H66.64l-7.32-4.58v-1.47Zm-6.43,1.15v0l6.43,3.91v-3.94Z"/><path d="M60.37,136v4.63l3.41.08a3.44,3.44,0,0,1-.21-.76,4.87,4.87,0,0,1-.06-.76,3.8,3.8,0,0,1,.27-1.46,3.26,3.26,0,0,1,.76-1.13,3.72,3.72,0,0,1,1.15-.74,4,4,0,0,1,1.45-.26,3.89,3.89,0,0,1,1.5.29,3.39,3.39,0,0,1,1.16.8,3.51,3.51,0,0,1,.76,1.21,3.9,3.9,0,0,1,.28,1.51,3.63,3.63,0,0,1-.52,1.93,3.31,3.31,0,0,1-1.5,1.33l-.5-1.15a2.61,2.61,0,0,0,1.07-.89,2.31,2.31,0,0,0,.39-1.33,2.55,2.55,0,0,0-.2-1,2.5,2.5,0,0,0-.54-.81,2.68,2.68,0,0,0-.8-.54,2.54,2.54,0,0,0-1-.2,2.79,2.79,0,0,0-1.09.21,2.52,2.52,0,0,0-.85.58,2.35,2.35,0,0,0-.55.88,3.1,3.1,0,0,0-.2,1.12,4.52,4.52,0,0,0,.17,1.2,5.75,5.75,0,0,0,.46,1.15l-5.87-.11V136Z"/><path d="M64.82,128.93c-.28,0-.56,0-.83,0s-.56,0-.83.06v-1.14h1.13v0a2.44,2.44,0,0,1-1-1.07,3.07,3.07,0,0,1-.34-1.35,3.9,3.9,0,0,1,.07-.65,2.25,2.25,0,0,1,.23-.66,2.34,2.34,0,0,1,.47-.6,2.51,2.51,0,0,1,.79-.47,2.5,2.5,0,0,1-1.14-1,2.76,2.76,0,0,1-.42-1.45,2.73,2.73,0,0,1,.76-2.12,3.12,3.12,0,0,1,2.17-.69h4.75v1H66.28a3.26,3.26,0,0,0-1.75.4,1.68,1.68,0,0,0-.61,1.49,1.86,1.86,0,0,0,.24,1,1.81,1.81,0,0,0,.61.65,2.58,2.58,0,0,0,.87.36,4.31,4.31,0,0,0,1,.11h4v1.06H66.28a3.17,3.17,0,0,0-1.75.4,1.67,1.67,0,0,0-.61,1.49c0,.06,0,.21.07.44a1.67,1.67,0,0,0,.35.71,2.53,2.53,0,0,0,.86.66,3.53,3.53,0,0,0,1.6.3h3.84v1.06Z"/><path d="M64.82,115.29c-.28,0-.56,0-.83,0l-.83.05v-1.13h1.13v0a2.49,2.49,0,0,1-1-1.07,3.07,3.07,0,0,1-.34-1.35,3.9,3.9,0,0,1,.07-.65,2.25,2.25,0,0,1,.23-.66,2,2,0,0,1,.47-.6,2.33,2.33,0,0,1,.79-.47,2.56,2.56,0,0,1-1.14-1,3.07,3.07,0,0,1,.34-3.58,3.12,3.12,0,0,1,2.17-.68h4.75v1.05H66.28a3.17,3.17,0,0,0-1.75.4,1.67,1.67,0,0,0-.61,1.49,1.87,1.87,0,0,0,.85,1.64,3.07,3.07,0,0,0,.87.36,4.9,4.9,0,0,0,1,.11h4v1.06H66.28a3.17,3.17,0,0,0-1.75.4,1.65,1.65,0,0,0-.61,1.49c0,.06,0,.21.07.44a1.73,1.73,0,0,0,.35.71,2.67,2.67,0,0,0,.86.66,3.53,3.53,0,0,0,1.6.3h3.84v1.05Z"/></g><path class="cls-3" d="M112.77,213.4h53.94v4.31H112.77Zm.9-60.52h4.54V209.1h-4.54Zm5.72,0h4.53V209.1h-4.53Zm5.71,0h4.54V209.1H125.1Zm5.72,0h4.53V209.1h-4.53Zm5.71,0h4.54V209.1h-4.54Zm5.72,0h4.53V209.1h-4.53Zm5.71,0h4.54V209.1H148Zm5.72,0h4.53V209.1h-4.53Zm5.72,0h4.53V209.1H159.4Zm-37.19-4.55S76.34,124,91.88,50.44M155,148.33s37.8-20.66,53.63-44.69m-117.55-56a1.66,1.66,0,0,1,2.2-.82l117,53.35a1.65,1.65,0,0,1,.82,2.2l0,.1a1.67,1.67,0,0,1-2.21.82L91.9,50a1.67,1.67,0,0,1-.83-2.21Zm.9,2.5s32.1,47.78,117,53.05m-92.33,41.18h44.84m-39.16,8.45,0-4.5H155v4.5m.07,56.2L155,213.4H122.29V209"/><line class="cls-1" x1="175.82" y1="208.18" x2="175.47" y2="153.79"/><line class="cls-1" x1="174.69" y1="208.19" x2="176.95" y2="208.17"/><line class="cls-1" x1="174.34" y1="153.8" x2="176.61" y2="153.79"/><g class="cls-2"><path d="M196.18,202.83l0,7.48h-1.33l-4.62-4.65c-.17-.18-.35-.35-.54-.53s-.4-.33-.61-.48a3.6,3.6,0,0,0-.68-.34,2,2,0,0,0-.74-.13,1.9,1.9,0,0,0-.83.18,1.85,1.85,0,0,0-.62.49,2.17,2.17,0,0,0-.38.74,2.84,2.84,0,0,0-.14.88,2.47,2.47,0,0,0,.49,1.52,2.21,2.21,0,0,0,1.3.81l-.11,1.26a3.14,3.14,0,0,1-2-1.19,3.77,3.77,0,0,1-.73-2.31,5,5,0,0,1,.17-1.36,3.6,3.6,0,0,1,.55-1.13,2.77,2.77,0,0,1,.91-.79,2.92,2.92,0,0,1,1.29-.3,3.29,3.29,0,0,1,1.2.21,4.37,4.37,0,0,1,1,.53,7.19,7.19,0,0,1,.92.75c.29.28.57.57.85.86l3.56,3.69,0-6.18Z"/><path d="M189.69,198.72l0,0a2.15,2.15,0,0,1-.3-.76,4.65,4.65,0,0,1-.1-.87,3.9,3.9,0,0,1,.26-1.42,3.35,3.35,0,0,1,.72-1.14,3.31,3.31,0,0,1,1.1-.77,3.53,3.53,0,0,1,1.4-.28,3.64,3.64,0,0,1,1.43.27,3.26,3.26,0,0,1,1.11.79,4,4,0,0,1,.73,1.21,4.81,4.81,0,0,1,0,3.06,3.72,3.72,0,0,1-.72,1.22,3.21,3.21,0,0,1-1.09.8,3.48,3.48,0,0,1-1.43.29,4.2,4.2,0,0,1-1.65-.28,9.6,9.6,0,0,1-1.39-.71l-5-3.14v-1.42Zm3.16,1.17a2.46,2.46,0,0,0,1-.19,2.32,2.32,0,0,0,.77-.55,2.39,2.39,0,0,0,.5-.83,3.24,3.24,0,0,0,0-2.13,2.37,2.37,0,0,0-.51-.82,2.23,2.23,0,0,0-.78-.54,2.43,2.43,0,0,0-1-.18,2.46,2.46,0,0,0-1,.19,2.09,2.09,0,0,0-.76.55,2.39,2.39,0,0,0-.5.83,3.16,3.16,0,0,0,0,2.13,2.89,2.89,0,0,0,.51.83,2.17,2.17,0,0,0,.77.53A2.32,2.32,0,0,0,192.85,199.89Z"/><path d="M184.56,188.09a3.47,3.47,0,0,1,.55-2.05,3.81,3.81,0,0,1,1.42-1.22,6.34,6.34,0,0,1,1.89-.6,15.35,15.35,0,0,1,2-.16,13.76,13.76,0,0,1,2,.14,5.92,5.92,0,0,1,1.9.57,3.7,3.7,0,0,1,1.43,1.2,4,4,0,0,1,0,4.09,3.81,3.81,0,0,1-1.42,1.22,6.06,6.06,0,0,1-1.89.59,13.94,13.94,0,0,1-2,.17,15.21,15.21,0,0,1-2-.14,6.37,6.37,0,0,1-1.9-.57,3.79,3.79,0,0,1-1.43-1.2A3.45,3.45,0,0,1,184.56,188.09Zm1.06,0a2.21,2.21,0,0,0,.5,1.52,3.23,3.23,0,0,0,1.24.83,6.19,6.19,0,0,0,1.57.35c.56,0,1.06.06,1.51.06s.94,0,1.5-.08a6.21,6.21,0,0,0,1.57-.37,3.09,3.09,0,0,0,1.22-.85,2.56,2.56,0,0,0,0-3,3.12,3.12,0,0,0-1.23-.83,6.29,6.29,0,0,0-1.57-.35c-.56,0-1.06-.06-1.51-.06s-1,0-1.5.08a6.11,6.11,0,0,0-1.57.37,3,3,0,0,0-1.22.85A2.16,2.16,0,0,0,185.62,188.08Z"/><path d="M190.19,177.62l-.83,0-.83.06v-1.18h1.14v0a2.54,2.54,0,0,1-1-1.1,3.29,3.29,0,0,1-.35-1.4,4.06,4.06,0,0,1,.06-.67,2.8,2.8,0,0,1,.23-.69,2.33,2.33,0,0,1,1.25-1.12,2.51,2.51,0,0,1-1.14-1,3,3,0,0,1-.43-1.5,2.91,2.91,0,0,1,.75-2.22,3,3,0,0,1,2.16-.72l4.75,0v1.09l-4.37,0a3.14,3.14,0,0,0-1.74.43,1.75,1.75,0,0,0-.6,1.54,2.21,2.21,0,0,0,.24,1,1.9,1.9,0,0,0,.62.67,2.57,2.57,0,0,0,.88.37,4.17,4.17,0,0,0,1,.11l4,0v1.09l-4.36,0a3.16,3.16,0,0,0-1.75.43,1.72,1.72,0,0,0-.59,1.54,3.74,3.74,0,0,0,.06.46,1.94,1.94,0,0,0,.36.74,2.51,2.51,0,0,0,.87.68,3.38,3.38,0,0,0,1.6.3l3.84,0v1.09Z"/><path d="M190.1,163.46l-.83,0c-.28,0-.55,0-.83.06v-1.18h1.14v0a2.54,2.54,0,0,1-1-1.1,3.33,3.33,0,0,1-.35-1.4,4,4,0,0,1,.06-.67,3,3,0,0,1,.23-.7,2.26,2.26,0,0,1,.47-.62,2.5,2.5,0,0,1,.78-.5,2.44,2.44,0,0,1-1.14-1,3,3,0,0,1-.43-1.5,2.91,2.91,0,0,1,.75-2.22,3,3,0,0,1,2.16-.73l4.75,0v1.1l-4.37,0a3.06,3.06,0,0,0-1.74.42,1.77,1.77,0,0,0-.6,1.55,2.27,2.27,0,0,0,.24,1,1.9,1.9,0,0,0,.62.67,2.78,2.78,0,0,0,.88.37,4.74,4.74,0,0,0,1,.11l4,0v1.1l-4.36,0a3.08,3.08,0,0,0-1.75.42,1.74,1.74,0,0,0-.59,1.55,3.74,3.74,0,0,0,.06.46,1.84,1.84,0,0,0,.36.73,2.42,2.42,0,0,0,.87.69,3.51,3.51,0,0,0,1.6.3l3.84,0v1.1Z"/></g></svg>