<svg id="Taraxacum_88_C_W" data-name="Taraxacum 88 C/W" xmlns="http://www.w3.org/2000/svg" viewBox="0 0 300 263"><defs><style>.cls-1,.cls-4{fill:none;stroke-width:0.5px;}.cls-1{stroke:#000;}.cls-2{isolation:isolate;}.cls-3{fill:#fff;}.cls-4{stroke:#1d1d1b;stroke-miterlimit:3.86;}</style></defs><title>taraxacum-88-ceiling-wall-castiglioni-flos-F7420000-spech-tech-02-300x263-01</title><line class="cls-1" x1="272.55" y1="165.58" x2="27.45" y2="165.58"/><line class="cls-1" x1="272.55" y1="167.63" x2="272.55" y2="163.41"/><line class="cls-1" x1="27.45" y1="167.63" x2="27.45" y2="163.41"/><g class="cls-2"><path d="M131.05,178.2l0,0a1.83,1.83,0,0,1,.73-.29,4.35,4.35,0,0,1,.84-.1,3.49,3.49,0,0,1,1.37.27,3.42,3.42,0,0,1,1.09.73,3.36,3.36,0,0,1,.73,1.1,3.91,3.91,0,0,1,0,2.83,3.21,3.21,0,0,1-.77,1.11,3.54,3.54,0,0,1-1.16.72,4.48,4.48,0,0,1-3,0,3.49,3.49,0,0,1-1.17-.72,3.18,3.18,0,0,1-.76-1.11,3.43,3.43,0,0,1-.28-1.42,4.6,4.6,0,0,1,.28-1.65,9.53,9.53,0,0,1,.7-1.39l3.05-5h1.37Zm-1.15,3.15a2.64,2.64,0,0,0,.18,1,2.32,2.32,0,0,0,.52.78,2.26,2.26,0,0,0,.8.5,3,3,0,0,0,2,0,2.36,2.36,0,0,0,.8-.5,2.48,2.48,0,0,0,.52-.78,2.81,2.81,0,0,0,0-2,2.33,2.33,0,0,0-.52-.77,2.74,2.74,0,0,0-.8-.51,3,3,0,0,0-2,0,2.61,2.61,0,0,0-.8.51,2.18,2.18,0,0,0-.52.77A2.64,2.64,0,0,0,129.9,181.35Z"/><path d="M142.44,184.66h-1.15v-9.89l-2,1.8-.71-.87,2.88-2.37h1Z"/><path d="M150.22,173.14a3.21,3.21,0,0,1,2,.56,3.86,3.86,0,0,1,1.17,1.42,6.45,6.45,0,0,1,.56,1.9,13.76,13.76,0,0,1,.14,2,13.53,13.53,0,0,1-.14,2,6.45,6.45,0,0,1-.56,1.9,3.78,3.78,0,0,1-1.17,1.42,3.73,3.73,0,0,1-3.93,0,3.78,3.78,0,0,1-1.17-1.42,6.45,6.45,0,0,1-.56-1.9,13.53,13.53,0,0,1-.14-2,13.76,13.76,0,0,1,.14-2,6.45,6.45,0,0,1,.56-1.9,3.86,3.86,0,0,1,1.17-1.42A3.22,3.22,0,0,1,150.22,173.14Zm0,1.06a2.09,2.09,0,0,0-1.47.49,3.08,3.08,0,0,0-.81,1.23,6.27,6.27,0,0,0-.34,1.57c0,.56-.07,1.06-.07,1.51s0,.95.07,1.5a6.09,6.09,0,0,0,.34,1.57,3.08,3.08,0,0,0,.81,1.23,2.4,2.4,0,0,0,2.93,0,3.08,3.08,0,0,0,.81-1.23,6.09,6.09,0,0,0,.34-1.57c0-.55.07-1.05.07-1.5s0-.95-.07-1.51a6.27,6.27,0,0,0-.34-1.57,3.08,3.08,0,0,0-.81-1.23A2.08,2.08,0,0,0,150.22,174.2Z"/><path d="M160.26,178.84c0-.28,0-.56,0-.84l-.06-.83h1.14v1.14h0a2.44,2.44,0,0,1,1.07-1,2.94,2.94,0,0,1,1.35-.34,3.83,3.83,0,0,1,.65.06,2.76,2.76,0,0,1,.66.24,2.34,2.34,0,0,1,.6.47,2.45,2.45,0,0,1,.47.78,2.38,2.38,0,0,1,1-1.13,3.06,3.06,0,0,1,3.57.34,3.12,3.12,0,0,1,.69,2.17v4.75h-1.05v-4.37a3.15,3.15,0,0,0-.41-1.74,1.62,1.62,0,0,0-1.48-.61,2,2,0,0,0-1,.23,1.9,1.9,0,0,0-.64.62,2.5,2.5,0,0,0-.36.87,4.31,4.31,0,0,0-.11,1v4h-1.06v-4.37a3.16,3.16,0,0,0-.4-1.74,1.64,1.64,0,0,0-1.49-.61L163,178a1.77,1.77,0,0,0-.71.36,2.55,2.55,0,0,0-.67.86,3.69,3.69,0,0,0-.29,1.6v3.84h-1.06Z"/><path d="M173.89,178.84c0-.28,0-.56,0-.84s0-.55-.06-.83H175v1.14h0a2.44,2.44,0,0,1,1.07-1,2.94,2.94,0,0,1,1.35-.34,3.83,3.83,0,0,1,.65.06,2.61,2.61,0,0,1,.66.24,2.34,2.34,0,0,1,.6.47,2.45,2.45,0,0,1,.47.78,2.43,2.43,0,0,1,1-1.13,2.76,2.76,0,0,1,1.45-.42,2.69,2.69,0,0,1,2.12.76,3.12,3.12,0,0,1,.69,2.17v4.75H184v-4.37a3.25,3.25,0,0,0-.4-1.74,1.65,1.65,0,0,0-1.49-.61,2,2,0,0,0-1,.23,1.84,1.84,0,0,0-.65.62,2.5,2.5,0,0,0-.36.87,4.31,4.31,0,0,0-.11,1v4H179v-4.37a3.16,3.16,0,0,0-.4-1.74,1.64,1.64,0,0,0-1.49-.61l-.44.06a1.84,1.84,0,0,0-.71.36,2.53,2.53,0,0,0-.66.86,3.53,3.53,0,0,0-.3,1.6v3.84h-1.06Z"/></g><g class="cls-2"><path d="M16.27,121.87l0,7.2H14.9l-4.56-4.53c-.17-.18-.35-.35-.54-.52a6.62,6.62,0,0,0-.61-.47,3.25,3.25,0,0,0-.67-.34,2.26,2.26,0,0,0-.74-.13,2,2,0,0,0-.83.16,1.79,1.79,0,0,0-.62.47,2,2,0,0,0-.4.7,2.66,2.66,0,0,0-.14.85,2.32,2.32,0,0,0,.47,1.48,2.22,2.22,0,0,0,1.29.79l-.13,1.21a3.15,3.15,0,0,1-2-1.17,3.5,3.5,0,0,1-.71-2.23A5.05,5.05,0,0,1,4.92,124a3.26,3.26,0,0,1,.56-1.08,2.73,2.73,0,0,1,.93-.75,2.89,2.89,0,0,1,1.29-.27,3.6,3.6,0,0,1,1.2.2,5.48,5.48,0,0,1,1,.53,7.76,7.76,0,0,1,.9.73c.29.28.57.56.85.85l3.51,3.59,0-6Z"/><path d="M16.31,115.37v1.16l-9.89-.06,1.78,2-.86.72L5,116.33v-1Z"/><path d="M6.1,104.55l0,4.62,3.41.1a3.79,3.79,0,0,1-.21-.75,4,4,0,0,1,0-.77,3.57,3.57,0,0,1,.28-1.45,3.26,3.26,0,0,1,.76-1.13,3.63,3.63,0,0,1,1.16-.73,4.14,4.14,0,0,1,2.94,0,3.56,3.56,0,0,1,1.16.81,3.6,3.6,0,0,1,.76,1.21,4.19,4.19,0,0,1,.26,1.52A3.74,3.74,0,0,1,16,110a3.43,3.43,0,0,1-1.51,1.32L14,110.11a2.65,2.65,0,0,0,1.07-.88,2.36,2.36,0,0,0,.4-1.32,2.56,2.56,0,0,0-.2-1,2.64,2.64,0,0,0-.53-.81,2.47,2.47,0,0,0-1.79-.75,2.67,2.67,0,0,0-2,.77,2.57,2.57,0,0,0-.55.88,3.1,3.1,0,0,0-.2,1.12,4.57,4.57,0,0,0,.16,1.21,5.64,5.64,0,0,0,.45,1.14L5,110.32l0-5.78Z"/><path d="M10.58,97.52c-.27,0-.55,0-.83,0l-.83,0V96.45h1.13v0a2.53,2.53,0,0,1-1-1.07,3,3,0,0,1-.26-2,2.42,2.42,0,0,1,.23-.67,2,2,0,0,1,.48-.59,2.28,2.28,0,0,1,.78-.47,2.53,2.53,0,0,1-1.13-1,2.76,2.76,0,0,1-.4-1.45A2.73,2.73,0,0,1,9.55,87a3.12,3.12,0,0,1,2.17-.67l4.75,0v1.06l-4.36,0a3.17,3.17,0,0,0-1.75.4,1.64,1.64,0,0,0-.62,1.48,2,2,0,0,0,.23,1,1.81,1.81,0,0,0,.61.65,2.82,2.82,0,0,0,.87.37,4.91,4.91,0,0,0,1,.12l4,0V92.5l-4.37,0a3.27,3.27,0,0,0-1.75.39,1.67,1.67,0,0,0-.61,1.49,3.61,3.61,0,0,0,.06.44,1.67,1.67,0,0,0,.35.71,2.45,2.45,0,0,0,.86.67,3.46,3.46,0,0,0,1.59.3l3.84,0v1Z"/><path d="M10.66,83.89c-.28,0-.55,0-.83,0L9,84V82.82h1.14v0a2.49,2.49,0,0,1-1-1.07,3.12,3.12,0,0,1-.33-1.36,5.35,5.35,0,0,1,.07-.65,2.92,2.92,0,0,1,.24-.66,2.34,2.34,0,0,1,.47-.6,2.61,2.61,0,0,1,.79-.46,2.45,2.45,0,0,1-1.13-1,3.07,3.07,0,0,1,.36-3.57,3.14,3.14,0,0,1,2.17-.67l4.76,0v1.06l-4.37,0a3.23,3.23,0,0,0-1.74.39,1.65,1.65,0,0,0-.62,1.49,1.91,1.91,0,0,0,.23,1,1.81,1.81,0,0,0,.61.65,2.63,2.63,0,0,0,.87.37,5.47,5.47,0,0,0,1,.12l4,0v1l-4.37,0a3.08,3.08,0,0,0-1.74.39,1.65,1.65,0,0,0-.62,1.48,3.37,3.37,0,0,0,.06.44,1.84,1.84,0,0,0,.35.72,2.55,2.55,0,0,0,.86.67,3.53,3.53,0,0,0,1.6.3l3.84,0v1.06Z"/></g><path class="cls-3" d="M222.79,78.63a27.4,27.4,0,1,0,27.91-11s-6.85,1.3-8.5-7.54c0,0-.93-5-4-5,0,0-10.31-1.29-15.65,5.89,0,0-1.29,1.47,0,4.24,0,0,6.81,8.28.29,13.38"/><path class="cls-4" d="M222.79,78.63a27.4,27.4,0,1,0,27.91-11s-6.85,1.3-8.5-7.54c0,0-.93-5-4-5,0,0-10.31-1.29-15.65,5.89,0,0-1.29,1.47,0,4.24C222.5,65.25,229.31,73.53,222.79,78.63Z"/><path class="cls-4" d="M223.8,67.46s6.62-9.39,18.4-7.36"/><path class="cls-3" d="M77.21,82.3a27.4,27.4,0,1,1-27.91-11s6.84,1.3,8.5-7.54c0,0,.92-5,4.06-5,0,0,10.3-1.28,15.64,5.89,0,0,1.29,1.47,0,4.24,0,0-6.82,8.28-.29,13.38"/><path class="cls-4" d="M77.21,82.3a27.4,27.4,0,1,1-27.91-11s6.84,1.3,8.5-7.54c0,0,.92-5,4.06-5,0,0,10.3-1.28,15.64,5.89,0,0,1.29,1.47,0,4.24C77.5,68.92,70.68,77.2,77.21,82.3Z"/><path class="cls-4" d="M76.21,71.12s-6.62-9.39-18.41-7.36"/><polygon class="cls-3" points="52.46 53.27 148.72 109.41 244.81 53.09 238.19 47.19 60.19 47.19 52.46 53.27"/><polygon class="cls-4" points="52.46 53.27 148.72 109.41 244.81 53.09 238.19 47.19 60.19 47.19 52.46 53.27"/><path class="cls-4" d="M154.69,104.17a3,3,0,0,1-5.78-.84m-.3.84a2.94,2.94,0,0,1-5.76-.84"/><path class="cls-3" d="M125.2,127.56a27.4,27.4,0,1,1-27.39-27.4,27.4,27.4,0,0,1,27.39,27.4"/><path class="cls-4" d="M125.2,127.56a27.4,27.4,0,1,1-27.39-27.4A27.4,27.4,0,0,1,125.2,127.56Z"/><path class="cls-3" d="M174.86,125.4A27.4,27.4,0,1,1,147.47,98a27.39,27.39,0,0,1,27.39,27.4"/><path class="cls-4" d="M174.86,125.4A27.4,27.4,0,1,1,147.47,98,27.39,27.39,0,0,1,174.86,125.4Z"/><path class="cls-3" d="M224,125.13a27.4,27.4,0,1,1-27.39-27.4A27.39,27.39,0,0,1,224,125.13"/><path class="cls-4" d="M224,125.13a27.4,27.4,0,1,1-27.39-27.4A27.39,27.39,0,0,1,224,125.13Z"/><path class="cls-3" d="M210.45,80.1a27.4,27.4,0,1,0,27.92-11s-6.85,1.3-8.5-7.53c0,0-.93-5-4.05-5,0,0-10.31-1.3-15.65,5.88,0,0-1.29,1.48,0,4.24,0,0,6.81,8.28.28,13.38"/><path class="cls-4" d="M210.45,80.1a27.4,27.4,0,1,0,27.92-11s-6.85,1.3-8.5-7.53c0,0-.93-5-4.05-5,0,0-10.31-1.3-15.65,5.88,0,0-1.29,1.48,0,4.24C210.17,66.72,217,75,210.45,80.1Z"/><path class="cls-4" d="M211.46,68.92s6.62-9.38,18.4-7.36"/><path class="cls-3" d="M205.09,124.86A27.4,27.4,0,1,1,177.7,97.45a27.39,27.39,0,0,1,27.39,27.41"/><path class="cls-4" d="M205.09,124.86A27.4,27.4,0,1,1,177.7,97.45,27.39,27.39,0,0,1,205.09,124.86Z"/><path class="cls-3" d="M146.8,127.29a27.4,27.4,0,1,1-27.4-27.4,27.39,27.39,0,0,1,27.4,27.4"/><path class="cls-4" d="M146.8,127.29a27.4,27.4,0,1,1-27.4-27.4A27.39,27.39,0,0,1,146.8,127.29Z"/><path class="cls-3" d="M87,82.3a27.4,27.4,0,1,1-27.9-11s6.84,1.3,8.5-7.54c0,0,.92-5,4-5,0,0,10.3-1.28,15.64,5.89,0,0,1.29,1.47,0,4.24,0,0-6.81,8.28-.29,13.38"/><path class="cls-4" d="M87,82.3a27.4,27.4,0,1,1-27.9-11s6.84,1.3,8.5-7.54c0,0,.92-5,4-5,0,0,10.3-1.28,15.64,5.89,0,0,1.29,1.47,0,4.24C87.25,68.92,80.44,77.2,87,82.3Z"/><path class="cls-4" d="M86,71.12s-6.63-9.39-18.41-7.36"/><path class="cls-3" d="M140.34,79.16a27.4,27.4,0,1,1-27.91-11s6.86,1.3,8.51-7.54c0,0,.92-5,4-5,0,0,10.3-1.3,15.64,5.88,0,0,1.29,1.48,0,4.24,0,0-6.81,8.28-.29,13.37"/><path class="cls-4" d="M140.34,79.16a27.4,27.4,0,1,1-27.91-11s6.86,1.3,8.51-7.54c0,0,.92-5,4-5,0,0,10.3-1.3,15.64,5.88,0,0,1.29,1.48,0,4.24C140.63,65.79,133.82,74.07,140.34,79.16Z"/><path class="cls-4" d="M139.34,68s-6.62-9.39-18.4-7.37"/><path class="cls-3" d="M157.67,77.88a27.4,27.4,0,1,0,27.91-11s-6.84,1.3-8.5-7.53c0,0-.93-5-4.05-5,0,0-10.32-1.28-15.65,5.9,0,0-1.28,1.46,0,4.23,0,0,6.81,8.28.29,13.38"/><path class="cls-4" d="M157.67,77.88a27.4,27.4,0,1,0,27.91-11s-6.84,1.3-8.5-7.53c0,0-.93-5-4.05-5,0,0-10.32-1.28-15.65,5.9,0,0-1.28,1.46,0,4.23C157.38,64.5,164.19,72.78,157.67,77.88Z"/><path class="cls-4" d="M158.67,66.71s6.62-9.4,18.41-7.36"/><path class="cls-4" d="M243.52,52l-89.64.19-5.16,3.3V97.81m0-42.34-3.86-3.3H54.3"/><line class="cls-1" x1="22.49" y1="46.48" x2="22.29" y2="154.74"/><line class="cls-1" x1="23.39" y1="46.48" x2="21.52" y2="46.47"/><line class="cls-1" x1="23.2" y1="154.74" x2="21.33" y2="154.74"/></svg>