<svg id="taraxacum_S2" data-name="taraxacum S2" xmlns="http://www.w3.org/2000/svg" viewBox="0 0 300 263"><defs><style>.cls-1{isolation:isolate;}.cls-2,.cls-3{fill:none;stroke-width:0.5px;}.cls-2{stroke:#000;}.cls-3{stroke:#1d1d1b;stroke-miterlimit:3.86;}</style></defs><title>taraxacum-suspension-2-a-pg-castiglioni-flos-F7402009-spech-tech-02-300x263</title><g class="cls-1"><path d="M124.18,239a3.9,3.9,0,0,1,.68,1.16,4.2,4.2,0,0,1,.24,1.45,4,4,0,0,1-.29,1.56,3.7,3.7,0,0,1-.83,1.25,3.85,3.85,0,0,1-1.25.83,4.39,4.39,0,0,1-1.61.29,4.15,4.15,0,0,1-1.4-.22,3.72,3.72,0,0,1-1.11-.61l-1.07,1.09-.52-.5,1.06-1.09a3.62,3.62,0,0,1-.69-1.17,4.21,4.21,0,0,1-.24-1.43,4,4,0,0,1,.3-1.57,3.82,3.82,0,0,1,.82-1.25,3.62,3.62,0,0,1,1.26-.82,4.43,4.43,0,0,1,3-.08,3.84,3.84,0,0,1,1.15.61l1.06-1.09.51.5Zm-1.25.25a2.69,2.69,0,0,0-1.81-.62,3,3,0,0,0-1.18.23,2.82,2.82,0,0,0-.88.63,3.1,3.1,0,0,0-.56.95,3.42,3.42,0,0,0-.2,1.17,3,3,0,0,0,.55,1.82Zm-3.6,4.72a2.33,2.33,0,0,0,.8.45,2.86,2.86,0,0,0,1,.16,3,3,0,0,0,1.18-.23,2.7,2.7,0,0,0,1.45-1.58,3.18,3.18,0,0,0,.2-1.16,3.13,3.13,0,0,0-.54-1.83Z"/><path d="M133.3,239.32a2.16,2.16,0,0,1-.68-.38,2.48,2.48,0,0,1-.54-.58,2.79,2.79,0,0,1-.35-.74,2.53,2.53,0,0,1-.13-.83,2.84,2.84,0,0,1,.26-1.22,3,3,0,0,1,.68-.94,3.09,3.09,0,0,1,1-.59,3.56,3.56,0,0,1,1.22-.21A3.5,3.5,0,0,1,136,234a3,3,0,0,1,1,.59,2.87,2.87,0,0,1,.82,3,3.14,3.14,0,0,1-.35.74,2.48,2.48,0,0,1-.54.58,2.28,2.28,0,0,1-.68.38v0a2.69,2.69,0,0,1,1.54,1.06,3.21,3.21,0,0,1,.57,1.92,3,3,0,0,1-.29,1.32,3.18,3.18,0,0,1-.79,1,3.41,3.41,0,0,1-1.13.65,4.18,4.18,0,0,1-1.37.22,4.14,4.14,0,0,1-1.37-.22,3.56,3.56,0,0,1-1.14-.65,3.3,3.3,0,0,1-.78-1,2.85,2.85,0,0,1-.3-1.32,3.21,3.21,0,0,1,.58-1.92,2.66,2.66,0,0,1,1.54-1.06Zm3.9,2.85a2.29,2.29,0,0,0-.18-.92,2.2,2.2,0,0,0-.48-.74,2.26,2.26,0,0,0-.77-.49,3.06,3.06,0,0,0-2,0,2.18,2.18,0,0,0-1.25,1.23,2.47,2.47,0,0,0-.17.92,2.55,2.55,0,0,0,.17.92,2.29,2.29,0,0,0,.49.73,2.21,2.21,0,0,0,.76.49,2.9,2.9,0,0,0,2,0,2.13,2.13,0,0,0,1.25-1.22A2.36,2.36,0,0,0,137.2,242.17Zm-.42-5.28a2.07,2.07,0,0,0-.15-.8,1.87,1.87,0,0,0-.42-.64,2.06,2.06,0,0,0-1.44-.56,2.07,2.07,0,0,0-.8.15,2,2,0,0,0-.64.41,2,2,0,0,0-.58,1.44,1.92,1.92,0,0,0,.58,1.43,2,2,0,0,0,.64.41,2.08,2.08,0,0,0,.8.16,2.13,2.13,0,0,0,1.44-.57,1.93,1.93,0,0,0,.42-.63A2.15,2.15,0,0,0,136.78,236.89Z"/><path d="M146.8,235.08l-4.56,10.27h-1.3l4.66-10.27h-5.52V234h6.72Z"/><path d="M152.56,233.83a3.24,3.24,0,0,1,2,.56,3.86,3.86,0,0,1,1.17,1.42,6.77,6.77,0,0,1,.56,1.9,14,14,0,0,1,0,3.95,6.77,6.77,0,0,1-.56,1.9,3.86,3.86,0,0,1-1.17,1.42,3.75,3.75,0,0,1-3.94,0,3.86,3.86,0,0,1-1.17-1.42,6.77,6.77,0,0,1-.56-1.9,14,14,0,0,1,0-3.95,6.77,6.77,0,0,1,.56-1.9,3.86,3.86,0,0,1,1.17-1.42A3.24,3.24,0,0,1,152.56,233.83Zm0,1.06a2,2,0,0,0-1.46.49,3.08,3.08,0,0,0-.81,1.23,6.19,6.19,0,0,0-.35,1.57c0,.56-.07,1.06-.07,1.51s0,.94.07,1.5a6.19,6.19,0,0,0,.35,1.57,3.08,3.08,0,0,0,.81,1.23,2.38,2.38,0,0,0,2.92,0,3.08,3.08,0,0,0,.81-1.23,6.19,6.19,0,0,0,.35-1.57c0-.56.07-1.06.07-1.5s0-.95-.07-1.51a6.19,6.19,0,0,0-.35-1.57,3.08,3.08,0,0,0-.81-1.23A2,2,0,0,0,152.56,234.89Z"/><path d="M158.16,239.53c0-.28,0-.56,0-.84l-.06-.83h1.14V239h0a2.41,2.41,0,0,1,1.06-1,3,3,0,0,1,1.35-.34,3.74,3.74,0,0,1,.65.06,2.45,2.45,0,0,1,.67.24,2.34,2.34,0,0,1,.6.47,2.65,2.65,0,0,1,.47.78,2.41,2.41,0,0,1,1-1.13,2.79,2.79,0,0,1,1.45-.42,2.73,2.73,0,0,1,2.13.76,3.12,3.12,0,0,1,.69,2.17v4.75h-1.06V241a3.11,3.11,0,0,0-.4-1.74,1.63,1.63,0,0,0-1.49-.61,1.82,1.82,0,0,0-1.64.85,2.84,2.84,0,0,0-.36.87,4.76,4.76,0,0,0-.11,1v4h-1.05V241a3.2,3.2,0,0,0-.4-1.74,1.65,1.65,0,0,0-1.49-.61l-.44.06a1.65,1.65,0,0,0-.71.36,2.55,2.55,0,0,0-.67.86,3.66,3.66,0,0,0-.29,1.6v3.84h-1.06Z"/><path d="M171.79,239.53c0-.28,0-.56,0-.84l-.06-.83h1.14V239h0a2.47,2.47,0,0,1,1.06-1,3,3,0,0,1,1.36-.34,3.72,3.72,0,0,1,.64.06,2.45,2.45,0,0,1,.67.24,2.34,2.34,0,0,1,.6.47,2.65,2.65,0,0,1,.47.78,2.38,2.38,0,0,1,1-1.13,3.06,3.06,0,0,1,3.57.34,3.12,3.12,0,0,1,.69,2.17v4.75H181.9V241a3.11,3.11,0,0,0-.4-1.74,1.62,1.62,0,0,0-1.48-.61,2,2,0,0,0-1,.23,1.9,1.9,0,0,0-.64.62,2.42,2.42,0,0,0-.36.87,4.19,4.19,0,0,0-.12,1v4h-1.05V241a3.2,3.2,0,0,0-.4-1.74,1.64,1.64,0,0,0-1.49-.61l-.44.06a1.65,1.65,0,0,0-.71.36,2.55,2.55,0,0,0-.67.86,3.66,3.66,0,0,0-.29,1.6v3.84h-1.06Z"/></g><line class="cls-2" x1="86.11" y1="225.32" x2="216.98" y2="225.32"/><line class="cls-2" x1="86.11" y1="225.07" x2="86.11" y2="225.58"/><line class="cls-2" x1="216.98" y1="225.07" x2="216.98" y2="225.58"/><line class="cls-2" x1="86.11" y1="223.11" x2="86.11" y2="227.53"/><line class="cls-2" x1="216.98" y1="223.11" x2="216.98" y2="227.53"/><g class="cls-1"><path d="M58.93,180.12l0,0a2.06,2.06,0,0,1-.29-.73,4.46,4.46,0,0,1-.09-.84,3.63,3.63,0,0,1,.26-1.37,3.27,3.27,0,0,1,1.83-1.82,3.62,3.62,0,0,1,1.41-.27,3.68,3.68,0,0,1,1.43.27,3.41,3.41,0,0,1,1.1.77,3.49,3.49,0,0,1,.72,1.17,4.13,4.13,0,0,1,.26,1.47,4,4,0,0,1-.26,1.47,3.49,3.49,0,0,1-.72,1.17,3.27,3.27,0,0,1-1.1.77,3.68,3.68,0,0,1-1.43.27,4.39,4.39,0,0,1-1.65-.28,9.45,9.45,0,0,1-1.39-.69l-5-3.06V177Zm3.15,1.15a2.61,2.61,0,0,0,1-.18,2.48,2.48,0,0,0,.78-.52,2.21,2.21,0,0,0,.5-.8,3,3,0,0,0,0-2.05,2.13,2.13,0,0,0-.5-.8,2.18,2.18,0,0,0-.78-.52,2.61,2.61,0,0,0-1-.19,2.64,2.64,0,0,0-1,.19,2.14,2.14,0,0,0-.77.52,2.41,2.41,0,0,0-.5.8,2.86,2.86,0,0,0,0,2.05,2.52,2.52,0,0,0,.5.8,2.43,2.43,0,0,0,.77.52A2.64,2.64,0,0,0,62.08,181.27Z"/><path d="M61.65,167.64V166h1.06v1.63h2.68v1.15H62.71v4.9H61.39l-7.32-4.58v-1.47Zm-6.43,1.15v0l6.43,3.91v-3.94Z"/><path d="M53.87,161a3.24,3.24,0,0,1,.56-2,3.89,3.89,0,0,1,1.43-1.17,6.7,6.7,0,0,1,1.89-.56,14.07,14.07,0,0,1,4,0,6.7,6.7,0,0,1,1.89.56A3.89,3.89,0,0,1,65,159a3.75,3.75,0,0,1,0,3.94,3.89,3.89,0,0,1-1.43,1.17,6.7,6.7,0,0,1-1.89.56,14.07,14.07,0,0,1-4,0,6.7,6.7,0,0,1-1.89-.56,3.89,3.89,0,0,1-1.43-1.17A3.24,3.24,0,0,1,53.87,161Zm1.06,0a2,2,0,0,0,.5,1.46,3.08,3.08,0,0,0,1.23.81,6.09,6.09,0,0,0,1.57.35c.55,0,1.05.07,1.5.07s1,0,1.5-.07a6.09,6.09,0,0,0,1.57-.35,3.08,3.08,0,0,0,1.23-.81,2.38,2.38,0,0,0,0-2.92,3.08,3.08,0,0,0-1.23-.81,6.09,6.09,0,0,0-1.57-.35c-.55,0-1-.07-1.5-.07s-.95,0-1.5.07a6.09,6.09,0,0,0-1.57.35,3.08,3.08,0,0,0-1.23.81A2,2,0,0,0,54.93,161Z"/><path d="M59.57,150.9c-.28,0-.56,0-.83,0l-.83,0v-1.13H59v0a2.41,2.41,0,0,1-1-1.06,3.07,3.07,0,0,1-.34-1.35,3.9,3.9,0,0,1,.07-.65,2.25,2.25,0,0,1,.23-.66,2,2,0,0,1,.47-.6,2.52,2.52,0,0,1,.79-.48,2.48,2.48,0,0,1-1.14-1,3.07,3.07,0,0,1,.34-3.58,3.12,3.12,0,0,1,2.17-.69h4.75v1.06H61a3.17,3.17,0,0,0-1.75.4,1.67,1.67,0,0,0-.61,1.49,1.87,1.87,0,0,0,.85,1.64,3.07,3.07,0,0,0,.87.36,4.9,4.9,0,0,0,1,.11h4v1.06H61a3.17,3.17,0,0,0-1.75.4,1.65,1.65,0,0,0-.61,1.48,3.87,3.87,0,0,0,.07.44,1.71,1.71,0,0,0,.35.72,2.67,2.67,0,0,0,.86.66,3.53,3.53,0,0,0,1.6.3h3.84v1.05Z"/><path d="M59.57,137.27l-.83,0-.83.06v-1.14H59v0a2.41,2.41,0,0,1-1-1.06,3.1,3.1,0,0,1-.34-1.35,3.79,3.79,0,0,1,.07-.65,2.25,2.25,0,0,1,.23-.66,2.22,2.22,0,0,1,.47-.61,2.71,2.71,0,0,1,.79-.47,2.48,2.48,0,0,1-1.14-1,3.07,3.07,0,0,1,.34-3.58,3.12,3.12,0,0,1,2.17-.69h4.75v1.06H61a3.17,3.17,0,0,0-1.75.4,1.67,1.67,0,0,0-.61,1.49,1.87,1.87,0,0,0,.85,1.64,3.07,3.07,0,0,0,.87.36,4.9,4.9,0,0,0,1,.11h4v1.05H61a3.26,3.26,0,0,0-1.75.4,1.68,1.68,0,0,0-.61,1.49,4.26,4.26,0,0,0,.07.44,1.62,1.62,0,0,0,.35.71,2.55,2.55,0,0,0,.86.67,3.55,3.55,0,0,0,1.6.29h3.84v1.06Z"/></g><line class="cls-2" x1="75.29" y1="217.34" x2="75.29" y2="116.55"/><line class="cls-2" x1="73.44" y1="116.52" x2="76.99" y2="116.52"/><line class="cls-2" x1="72.76" y1="217.34" x2="77.81" y2="217.34"/><line class="cls-2" x1="75.29" y1="116.52" x2="75.29" y2="47.04"/><line class="cls-2" x1="73.44" y1="47.02" x2="76.99" y2="47.02"/><line class="cls-2" x1="72.76" y1="116.52" x2="77.81" y2="116.52"/><g class="cls-1"><path d="M61.65,106.4v-1.63h1.06v1.63h2.68v1.15H62.71v4.9H61.39l-7.32-4.58V106.4Zm-6.43,1.15v0l6.43,3.91v-3.94Z"/><path d="M53.87,99.71a3.26,3.26,0,0,1,.56-2,3.77,3.77,0,0,1,1.43-1.16A6.11,6.11,0,0,1,57.75,96a13.14,13.14,0,0,1,4,0,6.11,6.11,0,0,1,1.89.56A3.77,3.77,0,0,1,65,97.74a3.75,3.75,0,0,1,0,3.94,3.89,3.89,0,0,1-1.43,1.17,6.39,6.39,0,0,1-1.89.56,14.07,14.07,0,0,1-4,0,6.39,6.39,0,0,1-1.89-.56,3.89,3.89,0,0,1-1.43-1.17A3.24,3.24,0,0,1,53.87,99.71Zm1.06,0a2,2,0,0,0,.5,1.47,3.17,3.17,0,0,0,1.23.8,5.71,5.71,0,0,0,1.57.35c.55,0,1.05.07,1.5.07s1,0,1.5-.07A5.71,5.71,0,0,0,62.8,102a3.17,3.17,0,0,0,1.23-.8,2.09,2.09,0,0,0,.5-1.47,2.07,2.07,0,0,0-.5-1.46,3.08,3.08,0,0,0-1.23-.81,5.7,5.7,0,0,0-1.57-.34c-.55,0-1-.08-1.5-.08s-.95,0-1.5.08a5.7,5.7,0,0,0-1.57.34,3.08,3.08,0,0,0-1.23.81A2,2,0,0,0,54.93,99.71Z"/><path d="M53.87,90.82a3.24,3.24,0,0,1,.56-2,3.89,3.89,0,0,1,1.43-1.17,6.39,6.39,0,0,1,1.89-.56,14.07,14.07,0,0,1,4,0,6.39,6.39,0,0,1,1.89.56A3.89,3.89,0,0,1,65,88.85a3.73,3.73,0,0,1,0,3.93A3.7,3.7,0,0,1,63.6,94a6.11,6.11,0,0,1-1.89.56,13.14,13.14,0,0,1-4,0A6.11,6.11,0,0,1,55.86,94a3.7,3.7,0,0,1-1.43-1.17A3.21,3.21,0,0,1,53.87,90.82Zm1.06,0a2,2,0,0,0,.5,1.46,3.08,3.08,0,0,0,1.23.81,6.09,6.09,0,0,0,1.57.34c.55,0,1.05.07,1.5.07s1,0,1.5-.07a6.09,6.09,0,0,0,1.57-.34A3.08,3.08,0,0,0,64,92.28a2.07,2.07,0,0,0,.5-1.46,2.09,2.09,0,0,0-.5-1.47,3.3,3.3,0,0,0-1.23-.81,6.09,6.09,0,0,0-1.57-.34c-.55,0-1-.07-1.5-.07s-.95,0-1.5.07a6.09,6.09,0,0,0-1.57.34,3.3,3.3,0,0,0-1.23.81A2,2,0,0,0,54.93,90.82Z"/><path d="M53.87,81.92a3.24,3.24,0,0,1,.56-2,3.89,3.89,0,0,1,1.43-1.17,6.7,6.7,0,0,1,1.89-.56,14.07,14.07,0,0,1,4,0,6.7,6.7,0,0,1,1.89.56A3.89,3.89,0,0,1,65,80a3.75,3.75,0,0,1,0,3.94,3.89,3.89,0,0,1-1.43,1.17,6.7,6.7,0,0,1-1.89.56,14.07,14.07,0,0,1-4,0,6.7,6.7,0,0,1-1.89-.56,3.89,3.89,0,0,1-1.43-1.17A3.24,3.24,0,0,1,53.87,81.92Zm1.06,0a2,2,0,0,0,.5,1.46,3.08,3.08,0,0,0,1.23.81,6.09,6.09,0,0,0,1.57.35c.55,0,1.05.07,1.5.07s1,0,1.5-.07a6.09,6.09,0,0,0,1.57-.35A3.08,3.08,0,0,0,64,83.38a2.38,2.38,0,0,0,0-2.92,3.08,3.08,0,0,0-1.23-.81,6.09,6.09,0,0,0-1.57-.35c-.55,0-1-.07-1.5-.07s-.95,0-1.5.07a6.09,6.09,0,0,0-1.57.35,3.08,3.08,0,0,0-1.23.81A2,2,0,0,0,54.93,81.92Z"/><path d="M59.57,71.87c-.28,0-.56,0-.83,0l-.83,0V70.82H59v0a2.41,2.41,0,0,1-1-1.06,3.07,3.07,0,0,1-.34-1.35,3.9,3.9,0,0,1,.07-.65,2.25,2.25,0,0,1,.23-.66,2,2,0,0,1,.47-.6,2.52,2.52,0,0,1,.79-.48,2.48,2.48,0,0,1-1.14-1,3.07,3.07,0,0,1,.34-3.58,3.12,3.12,0,0,1,2.17-.69h4.75v1.06H61a3.17,3.17,0,0,0-1.75.4,1.67,1.67,0,0,0-.61,1.49,1.87,1.87,0,0,0,.85,1.64,3.07,3.07,0,0,0,.87.36,4.9,4.9,0,0,0,1,.11h4v1.06H61a3.17,3.17,0,0,0-1.75.4,1.65,1.65,0,0,0-.61,1.48,3.87,3.87,0,0,0,.07.44,1.71,1.71,0,0,0,.35.72,2.67,2.67,0,0,0,.86.66,3.53,3.53,0,0,0,1.6.3h3.84v1.05Z"/><path d="M59.57,58.24l-.83,0-.83.06V57.18H59v0a2.41,2.41,0,0,1-1-1.06,3.1,3.1,0,0,1-.34-1.35,3.79,3.79,0,0,1,.07-.65,2.42,2.42,0,0,1,.23-.67,2.34,2.34,0,0,1,.47-.6,2.71,2.71,0,0,1,.79-.47,2.48,2.48,0,0,1-1.14-1,3.07,3.07,0,0,1,.34-3.58,3.12,3.12,0,0,1,2.17-.69h4.75v1.06H61a3.17,3.17,0,0,0-1.75.4A1.67,1.67,0,0,0,58.67,50a1.87,1.87,0,0,0,.85,1.64,3.07,3.07,0,0,0,.87.36,4.9,4.9,0,0,0,1,.11h4v1H61a3.26,3.26,0,0,0-1.75.4,1.68,1.68,0,0,0-.61,1.49,4.26,4.26,0,0,0,.07.44,1.62,1.62,0,0,0,.35.71,2.55,2.55,0,0,0,.86.67,3.55,3.55,0,0,0,1.6.29h3.84v1.06Z"/></g><path class="cls-3" d="M151.08,47c0,2.37,0,4.52,0,6.43-.41,49.27-.08,63.7-.08,63.7l-1-.55-.12-.23s-.26-13.65.14-62.92q0-2.87.05-6.42"/><path class="cls-3" d="M149.48,116.81s-.75-.61-1.31,0a5,5,0,0,1-4.36.43c-1.71-.65-4.61-1.1-6.15,0s-2.1.78-2.1.78-.22-.11-.76.75a26.92,26.92,0,0,0-2.76,5.81s-11,18.54-25.51,12.61c0,0-2.1-1.89-3.55-.27s-2.37,2.88-2.83,7.64c0,0-.18,2.07,1.64,2.16a3.34,3.34,0,0,1,3,2c.18.63,2,9.08-6.56,11.15,0,0-7.67-.09-8.86-.72s-1.55,0-1.91,1.8a11,11,0,0,0,1,8.17,9.33,9.33,0,0,0,8.31,0s1.1,6.11,3.46,5.75c0,0,.82-.17,1-.54s1-.89,1.27,0,1,7.73-1.55,8.72-2,3.6-.73,6.47,3.37,3.87,4.47,3.68,5.28-1.07,8.19.64,10.39,6.28,13.3,11.94a3.92,3.92,0,0,1,0,1.08c-.09.45-.18,6.21,8,8.45,0,0,2.46,1.26,3.46.63s2.83-1.8,4.19-1.44a9.46,9.46,0,0,1,3.37,1.8,1.54,1.54,0,0,0,2,.45c.82-.54,3.18-2.16,4.91-1.89,0,0,3.28.18,4.92,1.62,0,0,.46,2.43,5-.72,0,0,.91-.18,1.09.18s2.74,2.16,6.29.09a9.87,9.87,0,0,0,4.46-4.95s.45-2.06.73-2.87,5.64-10.6,12.57-12.85c0,0,1.45-.45,2.18.09a2.94,2.94,0,0,0,4.46-.72s3.19-.54,4.19-2.42,2.65-5.84,1.46-6.92-3.37-2.79-2.28-5,4.28-6,5.38-6.46,8-1.44,9.54-1,3.37.63,4.46-1.17,2.82-10.61-.91-9.53-14.37.18-18-5.57-.09-6.92.36-7.28,1.82-1.79,1.55-2.87-2-7.82-4.83-7.82c0,0-1.27-3.15-3-2.69a5.22,5.22,0,0,0-2.73,1.88,16.17,16.17,0,0,1-4.19,1.08c-1.46,0-8-3.14-11.66-8.63s-5-11-6.37-11.59a11.49,11.49,0,0,0-5.83-.45,2.55,2.55,0,0,0-1.91-1.25c-1.19,0-2.1.09-2.1.09s-4.37,1-5.65.17ZM96.74,169.16s-.46-5.47,1.34-5.7a3.78,3.78,0,0,1,1.19,0,6.78,6.78,0,0,0,3-.68,10,10,0,0,0,4.08-4.36m-4.64,15.43a2.2,2.2,0,0,1,1.73-1A11.07,11.07,0,0,1,111.7,175m-13-11.61a7,7,0,0,1,2.51,4.64m.46,5.86a11.93,11.93,0,0,0,0-3.59m24.93,20.62s-2.28,1.62-3-1.44-3.19-11,2.28-9.16m12.84-21.84s-.55,9.17.63,12.22m-6.92-34.15s-3.91,2.7-5.64,1.62-2.46-2.61-4,1.44-.91,8.18-.36,8.45m41,36.12s.18,7.19-1.28,11m-2.64-58.23s1.91.9,2.73-.36,2-4.13,2.46-.71-.36,9.34-.36,9.34m30.41-6.56s3,8-.36,7.91m-.64,48.16s5.47-9.34.64-8.89M148.7,116.44s-.83,1.25-.92,6.28m12.94-4.49s.72,2.34,1.27,5m-25.05-5.48a12.6,12.6,0,0,1-1.54,4.32c-1.28,2.15-2.37,4.4-2.37,4.4m1.73,88.87s-4.83-3.51-4.46-7.91m16.11,9.35s-1.72-2.07-1.36-8.54M162,215.82s3.28-5.39,2.1-6.83m21-48.64s1,1.89,2.12,1.11,3.37-1.43,3,4.87-1.45,7.07-3.25,5.19a2.09,2.09,0,0,0-2.13.56M124.91,137s1.32-.08.52,3.74"/></svg>