<svg id="taraxacum_88_S2" data-name="taraxacum 88 S2" xmlns="http://www.w3.org/2000/svg" xmlns:xlink="http://www.w3.org/1999/xlink" viewBox="0 0 300 263"><defs><style>.cls-1,.cls-3,.cls-5{fill:none;}.cls-2{isolation:isolate;}.cls-3{stroke:#000;}.cls-3,.cls-5{stroke-width:0.5px;}.cls-4{clip-path:url(#clip-path);}.cls-5{stroke:#1a171b;stroke-miterlimit:3.86;}.cls-6{fill:#fff;}</style><clipPath id="clip-path"><rect id="SVGID" class="cls-1" x="88.11" y="47.02" width="122.7" height="170.12"/></clipPath></defs><title>taraxacum-88-suspension-2-castiglioni-flos-F7440000-spech-tech-02-300x263</title><g class="cls-2"><path d="M124.18,241.44a4,4,0,0,1,.68,1.16,4.2,4.2,0,0,1,.24,1.45,4,4,0,0,1-.29,1.56,3.7,3.7,0,0,1-.83,1.25,3.85,3.85,0,0,1-1.25.83,4.39,4.39,0,0,1-1.61.29,4.15,4.15,0,0,1-1.4-.22,3.72,3.72,0,0,1-1.11-.61l-1.07,1.09-.52-.5,1.06-1.09a3.62,3.62,0,0,1-.69-1.17,4.17,4.17,0,0,1-.24-1.43,4,4,0,0,1,.3-1.57,3.82,3.82,0,0,1,.82-1.25,3.62,3.62,0,0,1,1.26-.82,4.43,4.43,0,0,1,3-.08,3.84,3.84,0,0,1,1.15.61l1.06-1.09.51.5Zm-1.25.25a2.69,2.69,0,0,0-1.81-.62,3,3,0,0,0-1.18.23,2.82,2.82,0,0,0-.88.63,3.1,3.1,0,0,0-.56.95,3.42,3.42,0,0,0-.2,1.17,3,3,0,0,0,.55,1.82Zm-3.6,4.72a2.33,2.33,0,0,0,.8.45,2.86,2.86,0,0,0,1,.16,3,3,0,0,0,1.18-.23,2.7,2.7,0,0,0,1.45-1.58,3.41,3.41,0,0,0-.34-3Z"/><path d="M135.89,247.79h-1.15V237.9l-2,1.79-.72-.86,2.88-2.37h1Z"/><path d="M143.66,236.27a3.24,3.24,0,0,1,2,.56,3.86,3.86,0,0,1,1.17,1.42,6.45,6.45,0,0,1,.56,1.9,14,14,0,0,1,0,3.95,6.45,6.45,0,0,1-.56,1.9,3.86,3.86,0,0,1-1.17,1.42,3.73,3.73,0,0,1-3.93,0,3.76,3.76,0,0,1-1.17-1.42,6.17,6.17,0,0,1-.56-1.9,13.08,13.08,0,0,1,0-3.95,6.17,6.17,0,0,1,.56-1.9,3.76,3.76,0,0,1,1.17-1.42A3.21,3.21,0,0,1,143.66,236.27Zm0,1.06a2.08,2.08,0,0,0-1.46.49,3.08,3.08,0,0,0-.81,1.23,6.18,6.18,0,0,0-.34,1.57c-.05.56-.07,1.06-.07,1.51s0,1,.07,1.5a6.18,6.18,0,0,0,.34,1.57,3.08,3.08,0,0,0,.81,1.23,2.4,2.4,0,0,0,2.93,0,3.19,3.19,0,0,0,.81-1.23,6.18,6.18,0,0,0,.34-1.57c.05-.55.07-1.06.07-1.5s0-.95-.07-1.51a6.18,6.18,0,0,0-.34-1.57,3.19,3.19,0,0,0-.81-1.23A2.09,2.09,0,0,0,143.66,237.33Z"/><path d="M155.55,237.52h-4.62l-.08,3.41a3.21,3.21,0,0,1,.75-.21,5,5,0,0,1,.77-.07,3.75,3.75,0,0,1,1.45.28,3.17,3.17,0,0,1,1.13.76,3.45,3.45,0,0,1,.74,1.15,4,4,0,0,1,.26,1.45,3.64,3.64,0,0,1-.29,1.49,3.3,3.3,0,0,1-.8,1.17,3.56,3.56,0,0,1-1.2.76,4.19,4.19,0,0,1-1.52.27,3.71,3.71,0,0,1-1.93-.51,3.31,3.31,0,0,1-1.33-1.5l1.15-.5a2.53,2.53,0,0,0,.9,1.06,2.22,2.22,0,0,0,1.32.4,2.51,2.51,0,0,0,1-.2,2.87,2.87,0,0,0,.81-.54,2.36,2.36,0,0,0,.54-.8,2.54,2.54,0,0,0,.2-1,2.75,2.75,0,0,0-.21-1.09,2.69,2.69,0,0,0-.57-.86,2.57,2.57,0,0,0-.88-.55,3.18,3.18,0,0,0-1.12-.19,4.53,4.53,0,0,0-1.21.17,6,6,0,0,0-1.15.45l.12-5.87h5.77Z"/><path d="M161.46,236.27a3.21,3.21,0,0,1,2,.56,3.67,3.67,0,0,1,1.17,1.42,6.17,6.17,0,0,1,.56,1.9,13.08,13.08,0,0,1,0,3.95,6.17,6.17,0,0,1-.56,1.9,3.67,3.67,0,0,1-1.17,1.42,3.73,3.73,0,0,1-3.93,0,3.86,3.86,0,0,1-1.17-1.42,6.45,6.45,0,0,1-.56-1.9,14,14,0,0,1,0-3.95,6.45,6.45,0,0,1,.56-1.9,3.86,3.86,0,0,1,1.17-1.42A3.24,3.24,0,0,1,161.46,236.27Zm0,1.06a2.09,2.09,0,0,0-1.47.49,3.19,3.19,0,0,0-.81,1.23,6.18,6.18,0,0,0-.34,1.57c-.05.56-.07,1.06-.07,1.51s0,1,.07,1.5a6.18,6.18,0,0,0,.34,1.57,3.19,3.19,0,0,0,.81,1.23,2.09,2.09,0,0,0,1.47.5,2.07,2.07,0,0,0,1.46-.5,3.08,3.08,0,0,0,.81-1.23,6.18,6.18,0,0,0,.34-1.57c.05-.55.07-1.06.07-1.5s0-.95-.07-1.51a6.18,6.18,0,0,0-.34-1.57,3.08,3.08,0,0,0-.81-1.23A2.06,2.06,0,0,0,161.46,237.33Z"/><path d="M171.5,242c0-.28,0-.56,0-.84s0-.55-.06-.83h1.14v1.14h0a2.44,2.44,0,0,1,1.07-1,2.94,2.94,0,0,1,1.35-.34,3.83,3.83,0,0,1,.65.06,2.28,2.28,0,0,1,.66.24,2.34,2.34,0,0,1,.6.47,2.45,2.45,0,0,1,.47.78,2.43,2.43,0,0,1,1-1.13,2.76,2.76,0,0,1,1.45-.42,2.69,2.69,0,0,1,2.12.76,3.12,3.12,0,0,1,.69,2.17v4.75h-1v-4.37a3.22,3.22,0,0,0-.4-1.74,1.65,1.65,0,0,0-1.49-.61,2,2,0,0,0-1,.23,1.84,1.84,0,0,0-.65.62,2.42,2.42,0,0,0-.36.87,4.25,4.25,0,0,0-.11,1v4h-1.06v-4.37a3.13,3.13,0,0,0-.4-1.74,1.64,1.64,0,0,0-1.49-.61l-.44.06a1.71,1.71,0,0,0-.71.36,2.53,2.53,0,0,0-.66.86,3.51,3.51,0,0,0-.3,1.6v3.84H171.5Z"/><path d="M185.14,242q0-.42,0-.84c0-.27,0-.55-.05-.83h1.13v1.14h0a2.44,2.44,0,0,1,1.07-1,2.94,2.94,0,0,1,1.35-.34,3.83,3.83,0,0,1,.65.06,2.28,2.28,0,0,1,.66.24,2,2,0,0,1,.6.47,2.28,2.28,0,0,1,.47.78,2.48,2.48,0,0,1,1-1.13,2.76,2.76,0,0,1,1.45-.42,2.73,2.73,0,0,1,2.13.76,3.12,3.12,0,0,1,.68,2.17v4.75h-1.05v-4.37a3.13,3.13,0,0,0-.4-1.74,1.64,1.64,0,0,0-1.49-.61,2,2,0,0,0-1,.23,1.93,1.93,0,0,0-.65.62,2.62,2.62,0,0,0-.36.87,4.83,4.83,0,0,0-.11,1v4h-1.06v-4.37a3.13,3.13,0,0,0-.4-1.74,1.63,1.63,0,0,0-1.49-.61l-.44.06a1.71,1.71,0,0,0-.71.36,2.67,2.67,0,0,0-.66.86,3.51,3.51,0,0,0-.3,1.6v3.84h-1.05Z"/></g><line class="cls-3" x1="88.11" y1="227.53" x2="210.81" y2="227.53"/><line class="cls-3" x1="88.11" y1="227.28" x2="88.11" y2="227.79"/><line class="cls-3" x1="210.81" y1="227.28" x2="210.81" y2="227.79"/><line class="cls-3" x1="88.11" y1="225.32" x2="88.11" y2="229.74"/><line class="cls-3" x1="210.81" y1="225.32" x2="210.81" y2="229.74"/><line class="cls-3" x1="82.11" y1="101.12" x2="82.11" y2="47.04"/><line class="cls-3" x1="80.26" y1="47.02" x2="83.81" y2="47.02"/><line class="cls-3" x1="79.58" y1="101.12" x2="84.63" y2="101.12"/><g class="cls-2"><path d="M65.75,103.93l0,0a2,2,0,0,1-.29-.73,4.3,4.3,0,0,1-.09-.84,3.67,3.67,0,0,1,.26-1.37,3.42,3.42,0,0,1,.73-1.09,3.47,3.47,0,0,1,1.1-.73,3.61,3.61,0,0,1,1.41-.26,3.68,3.68,0,0,1,1.43.27,3.27,3.27,0,0,1,1.1.77,3.54,3.54,0,0,1,.72,1.16,4.31,4.31,0,0,1,0,3,3.49,3.49,0,0,1-.72,1.17,3.24,3.24,0,0,1-1.1.76,3.51,3.51,0,0,1-1.43.28,4.6,4.6,0,0,1-1.65-.28,9.53,9.53,0,0,1-1.39-.7l-5-3.05v-1.37Zm3.15,1.15a2.64,2.64,0,0,0,1-.18,2.32,2.32,0,0,0,.78-.52,2.13,2.13,0,0,0,.5-.8,3,3,0,0,0,0-2,2.21,2.21,0,0,0-.5-.8,2.48,2.48,0,0,0-.78-.52,2.81,2.81,0,0,0-2,0,2.33,2.33,0,0,0-.77.52,2.52,2.52,0,0,0-.5.8,2.86,2.86,0,0,0,0,2,2.41,2.41,0,0,0,.5.8,2.18,2.18,0,0,0,.77.52A2.64,2.64,0,0,0,68.9,105.08Z"/><path d="M60.69,93.66a3.24,3.24,0,0,1,.56-2,3.89,3.89,0,0,1,1.43-1.17A6.6,6.6,0,0,1,64.57,90a15.36,15.36,0,0,1,2-.14,15.09,15.09,0,0,1,2,.14,6.77,6.77,0,0,1,1.9.56,3.78,3.78,0,0,1,1.42,1.17,3.69,3.69,0,0,1,0,3.94,3.78,3.78,0,0,1-1.42,1.17,6.77,6.77,0,0,1-1.9.56,15.09,15.09,0,0,1-2,.14,15.36,15.36,0,0,1-2-.14,6.6,6.6,0,0,1-1.89-.56,3.89,3.89,0,0,1-1.43-1.17A3.24,3.24,0,0,1,60.69,93.66Zm1.06,0a2,2,0,0,0,.5,1.46,3.08,3.08,0,0,0,1.23.81,6.11,6.11,0,0,0,1.56.35c.56,0,1.06.07,1.51.07s1,0,1.5-.07a6.09,6.09,0,0,0,1.57-.35,3.08,3.08,0,0,0,1.23-.81,2.38,2.38,0,0,0,0-2.92,3.08,3.08,0,0,0-1.23-.81A6.09,6.09,0,0,0,68.05,91c-.55,0-1-.07-1.5-.07s-1,0-1.51.07a6.11,6.11,0,0,0-1.56.35,3.08,3.08,0,0,0-1.23.81A2,2,0,0,0,61.75,93.66Z"/><path d="M60.69,84.76a3.21,3.21,0,0,1,.56-2,3.89,3.89,0,0,1,1.43-1.17,6.3,6.3,0,0,1,1.89-.56,13.82,13.82,0,0,1,2-.15,13.58,13.58,0,0,1,2,.15,6.45,6.45,0,0,1,1.9.56,3.78,3.78,0,0,1,1.42,1.17,3.67,3.67,0,0,1,0,3.93,3.78,3.78,0,0,1-1.42,1.17,6.45,6.45,0,0,1-1.9.56,13.53,13.53,0,0,1-2,.14,13.76,13.76,0,0,1-2-.14,6.3,6.3,0,0,1-1.89-.56,3.89,3.89,0,0,1-1.43-1.17A3.22,3.22,0,0,1,60.69,84.76Zm1.06,0a2,2,0,0,0,.5,1.47,3.08,3.08,0,0,0,1.23.81,6.1,6.1,0,0,0,1.56.34c.56.05,1.06.07,1.51.07s1,0,1.5-.07A6.09,6.09,0,0,0,69.62,87a3.08,3.08,0,0,0,1.23-.81,2.4,2.4,0,0,0,0-2.93,3.08,3.08,0,0,0-1.23-.81,6.09,6.09,0,0,0-1.57-.34c-.55-.05-1-.07-1.5-.07s-1,0-1.51.07a6.1,6.1,0,0,0-1.56.34,3.08,3.08,0,0,0-1.23.81A2,2,0,0,0,61.75,84.76Z"/><path d="M60.69,75.87a3.24,3.24,0,0,1,.56-2,3.89,3.89,0,0,1,1.43-1.17,6.6,6.6,0,0,1,1.89-.56,15.36,15.36,0,0,1,2-.14,15.09,15.09,0,0,1,2,.14,6.77,6.77,0,0,1,1.9.56,3.78,3.78,0,0,1,1.42,1.17,3.69,3.69,0,0,1,0,3.94A3.66,3.66,0,0,1,70.42,79a6.17,6.17,0,0,1-1.9.56,13.58,13.58,0,0,1-2,.15,13.82,13.82,0,0,1-2-.15A6,6,0,0,1,62.68,79a3.77,3.77,0,0,1-1.43-1.16A3.24,3.24,0,0,1,60.69,75.87Zm1.06,0a2,2,0,0,0,.5,1.46,3.08,3.08,0,0,0,1.23.81,5.71,5.71,0,0,0,1.56.34c.56,0,1.06.08,1.51.08s1,0,1.5-.08a5.7,5.7,0,0,0,1.57-.34,3.08,3.08,0,0,0,1.23-.81,2.05,2.05,0,0,0,.5-1.46,2.09,2.09,0,0,0-.5-1.47,3.17,3.17,0,0,0-1.23-.8,6.09,6.09,0,0,0-1.57-.35c-.55,0-1-.07-1.5-.07s-1,0-1.51.07a6.11,6.11,0,0,0-1.56.35,3.17,3.17,0,0,0-1.23.8A2,2,0,0,0,61.75,75.87Z"/><path d="M66.39,65.82l-.83,0-.84.06V64.76h1.14v0a2.41,2.41,0,0,1-1-1.06,3,3,0,0,1-.34-1.35,3,3,0,0,1,.07-.65,2.42,2.42,0,0,1,.23-.67,2.34,2.34,0,0,1,.47-.6,2.65,2.65,0,0,1,.78-.47,2.45,2.45,0,0,1-1.13-1,3.07,3.07,0,0,1,.34-3.58,3.12,3.12,0,0,1,2.17-.69h4.75v1.06H67.84a3.16,3.16,0,0,0-1.74.4,1.67,1.67,0,0,0-.61,1.49,2,2,0,0,0,.23,1,1.93,1.93,0,0,0,.62.65,3.07,3.07,0,0,0,.87.36,4.9,4.9,0,0,0,1,.11h4v1H67.84a3.25,3.25,0,0,0-1.74.4,1.68,1.68,0,0,0-.61,1.49,2.52,2.52,0,0,0,.07.44,1.62,1.62,0,0,0,.35.71,2.55,2.55,0,0,0,.86.67,3.55,3.55,0,0,0,1.6.29h3.84v1.06Z"/><path d="M66.39,52.19l-.83,0-.84.06V51.13h1.14v0a2.47,2.47,0,0,1-1-1.06,2.91,2.91,0,0,1-.27-2,2.42,2.42,0,0,1,.23-.67,2.34,2.34,0,0,1,.47-.6,2.65,2.65,0,0,1,.78-.47,2.42,2.42,0,0,1-1.13-1,2.73,2.73,0,0,1-.42-1.44,2.76,2.76,0,0,1,.76-2.13A3.12,3.12,0,0,1,67.46,41h4.75v1.06H67.84a3.16,3.16,0,0,0-1.74.4A1.65,1.65,0,0,0,65.49,44a2,2,0,0,0,.23,1,1.9,1.9,0,0,0,.62.64,2.58,2.58,0,0,0,.87.36,4.31,4.31,0,0,0,1,.12h4v1.05H67.84a3.25,3.25,0,0,0-1.74.4A1.68,1.68,0,0,0,65.49,49a2.67,2.67,0,0,0,.07.44,1.62,1.62,0,0,0,.35.71,2.55,2.55,0,0,0,.86.67,3.69,3.69,0,0,0,1.6.29h3.84v1.06Z"/></g><g class="cls-4"><path class="cls-5" d="M91.79,173.94a10.41,10.41,0,1,1,10.41,10.41A10.4,10.4,0,0,1,91.79,173.94Zm18.7-55.9a10.4,10.4,0,1,1,10.4,10.41A10.4,10.4,0,0,1,110.49,118Zm29.44-10.22a10.41,10.41,0,1,1,10.4,10.4A10.41,10.41,0,0,1,139.93,107.82Zm29.1,10.4a10.4,10.4,0,1,1,10.4,10.4A10.39,10.39,0,0,1,169,118.22Zm18.48,56.05a10.41,10.41,0,1,1,10.4,10.41A10.4,10.4,0,0,1,187.51,174.27Z"/></g><polygon class="cls-6" points="125.52 123.69 109.24 171.3 150.19 200.65 190.64 171.3 175.1 124.43 150.19 114.81 125.52 123.69"/><polygon class="cls-5" points="125.52 123.69 109.24 171.3 150.19 200.65 190.64 171.3 175.1 124.43 150.19 114.81 125.52 123.69"/><g class="cls-4"><path class="cls-6" d="M169,199.44a10.41,10.41,0,1,1,10.4,10.4,10.39,10.39,0,0,1-10.4-10.4"/><path class="cls-5" d="M169,199.44a10.41,10.41,0,1,1,10.4,10.4A10.39,10.39,0,0,1,169,199.44Z"/><path class="cls-6" d="M157.91,203.14a10.41,10.41,0,1,1,10.4,10.39,10.4,10.4,0,0,1-10.4-10.39"/><path class="cls-5" d="M157.91,203.14a10.41,10.41,0,1,1,10.4,10.39A10.4,10.4,0,0,1,157.91,203.14Z"/><path class="cls-5" d="M139.23,205.15a10.4,10.4,0,1,1,10.4,10.4A10.4,10.4,0,0,1,139.23,205.15Z"/><path class="cls-6" d="M120.89,203a10.41,10.41,0,1,1,10.4,10.4,10.4,10.4,0,0,1-10.4-10.4"/><path class="cls-5" d="M120.89,203a10.41,10.41,0,1,1,10.4,10.4A10.4,10.4,0,0,1,120.89,203Z"/><path class="cls-6" d="M110.66,199.33a10.41,10.41,0,1,1,10.4,10.4,10.4,10.4,0,0,1-10.4-10.4"/><path class="cls-5" d="M110.66,199.33a10.41,10.41,0,1,1,10.4,10.4A10.4,10.4,0,0,1,110.66,199.33Z"/><path class="cls-6" d="M187.89,143.08a10.41,10.41,0,1,1,10.4,10.41,10.4,10.4,0,0,1-10.4-10.41"/><path class="cls-5" d="M187.89,143.08a10.41,10.41,0,1,1,10.4,10.41A10.4,10.4,0,0,1,187.89,143.08Z"/><path class="cls-6" d="M188.42,155.08a10.41,10.41,0,1,1,10.4,10.39,10.41,10.41,0,0,1-10.4-10.39"/><path class="cls-5" d="M188.42,155.08a10.41,10.41,0,1,1,10.4,10.39A10.41,10.41,0,0,1,188.42,155.08Z"/><path class="cls-5" d="M139.58,141.32a10.41,10.41,0,1,1,10.4,10.4A10.39,10.39,0,0,1,139.58,141.32Z"/><path class="cls-6" d="M98.14,132.68a10.41,10.41,0,1,1,10.4,10.4,10.4,10.4,0,0,1-10.4-10.4"/><path class="cls-5" d="M98.14,132.68a10.41,10.41,0,1,1,10.4,10.4A10.4,10.4,0,0,1,98.14,132.68Z"/><path class="cls-6" d="M151.21,111.34a10.41,10.41,0,1,1,10.41,10.4,10.4,10.4,0,0,1-10.41-10.4"/><path class="cls-5" d="M151.21,111.34a10.41,10.41,0,1,1,10.41,10.4A10.4,10.4,0,0,1,151.21,111.34Z"/><path class="cls-6" d="M128.65,111.34a10.41,10.41,0,1,1,10.4,10.4,10.39,10.39,0,0,1-10.4-10.4"/><path class="cls-5" d="M128.65,111.34a10.41,10.41,0,1,1,10.4,10.4A10.39,10.39,0,0,1,128.65,111.34Z"/><path class="cls-6" d="M110.49,136.56a10.4,10.4,0,1,1,10.4,10.4,10.39,10.39,0,0,1-10.4-10.4"/><path class="cls-5" d="M110.49,136.56a10.4,10.4,0,1,1,10.4,10.4A10.39,10.39,0,0,1,110.49,136.56Z"/><path class="cls-6" d="M128.65,123.51a10.41,10.41,0,1,1,10.4,10.4,10.39,10.39,0,0,1-10.4-10.4"/><path class="cls-5" d="M128.65,123.51a10.41,10.41,0,1,1,10.4,10.4A10.39,10.39,0,0,1,128.65,123.51Z"/><path class="cls-6" d="M151,123.51a10.41,10.41,0,1,1,10.4,10.4,10.4,10.4,0,0,1-10.4-10.4"/><path class="cls-5" d="M151,123.51a10.41,10.41,0,1,1,10.4,10.4A10.4,10.4,0,0,1,151,123.51Z"/><path class="cls-6" d="M180.84,132.86a10.4,10.4,0,1,1,10.4,10.4,10.4,10.4,0,0,1-10.4-10.4"/><path class="cls-5" d="M180.84,132.86a10.4,10.4,0,1,1,10.4,10.4A10.4,10.4,0,0,1,180.84,132.86Z"/><path class="cls-6" d="M169,136.56a10.4,10.4,0,1,1,10.4,10.4,10.39,10.39,0,0,1-10.4-10.4"/><path class="cls-5" d="M169,136.56a10.4,10.4,0,1,1,10.4,10.4A10.39,10.39,0,0,1,169,136.56Z"/><path class="cls-6" d="M91.62,143.26a10.41,10.41,0,1,1,10.4,10.4,10.41,10.41,0,0,1-10.4-10.4"/><path class="cls-5" d="M91.62,143.26a10.41,10.41,0,1,1,10.4,10.4A10.41,10.41,0,0,1,91.62,143.26Z"/><path class="cls-6" d="M90.91,154.37a10.41,10.41,0,1,1,10.41,10.4,10.4,10.4,0,0,1-10.41-10.4"/><path class="cls-5" d="M90.91,154.37a10.41,10.41,0,1,1,10.41,10.4A10.4,10.4,0,0,1,90.91,154.37Z"/><path class="cls-6" d="M103.61,158.6A10.41,10.41,0,1,1,114,169a10.4,10.4,0,0,1-10.4-10.4"/><path class="cls-5" d="M103.61,158.6A10.41,10.41,0,1,1,114,169,10.4,10.4,0,0,1,103.61,158.6Z"/><path class="cls-6" d="M123.18,153.31a10.41,10.41,0,1,1,10.4,10.4,10.4,10.4,0,0,1-10.4-10.4"/><path class="cls-5" d="M123.18,153.31a10.41,10.41,0,1,1,10.4,10.4A10.4,10.4,0,0,1,123.18,153.31Z"/><path class="cls-6" d="M156.51,153.31a10.4,10.4,0,1,1,10.4,10.4,10.39,10.39,0,0,1-10.4-10.4"/><path class="cls-5" d="M156.51,153.31a10.4,10.4,0,1,1,10.4,10.4A10.39,10.39,0,0,1,156.51,153.31Z"/><path class="cls-6" d="M176.08,159a10.4,10.4,0,1,1,10.4,10.39A10.41,10.41,0,0,1,176.08,159"/><path class="cls-5" d="M176.08,159a10.4,10.4,0,1,1,10.4,10.39A10.41,10.41,0,0,1,176.08,159Z"/><path class="cls-6" d="M128.47,193.16a10.41,10.41,0,1,1,10.4,10.4,10.4,10.4,0,0,1-10.4-10.4"/><path class="cls-5" d="M128.47,193.16a10.41,10.41,0,1,1,10.4,10.4A10.4,10.4,0,0,1,128.47,193.16Z"/><path class="cls-6" d="M129.7,172.35a10.41,10.41,0,1,1,10.41,10.41,10.41,10.41,0,0,1-10.41-10.41"/><path class="cls-5" d="M129.7,172.35a10.41,10.41,0,1,1,10.41,10.41A10.41,10.41,0,0,1,129.7,172.35Z"/><path class="cls-6" d="M150,172.18a10.41,10.41,0,1,1,10.4,10.4,10.4,10.4,0,0,1-10.4-10.4"/><path class="cls-5" d="M150,172.18a10.41,10.41,0,1,1,10.4,10.4A10.4,10.4,0,0,1,150,172.18Z"/><path class="cls-6" d="M150.51,193.51a10.41,10.41,0,1,1,10.4,10.4,10.4,10.4,0,0,1-10.4-10.4"/><path class="cls-5" d="M150.51,193.51a10.41,10.41,0,1,1,10.4,10.4A10.4,10.4,0,0,1,150.51,193.51Z"/><path class="cls-6" d="M102.2,189.64A10.4,10.4,0,1,1,112.6,200a10.4,10.4,0,0,1-10.4-10.4"/><path class="cls-5" d="M102.2,189.64A10.4,10.4,0,1,1,112.6,200,10.4,10.4,0,0,1,102.2,189.64Z"/><path class="cls-6" d="M110.13,179.76a10.41,10.41,0,1,1,10.4,10.4,10.4,10.4,0,0,1-10.4-10.4"/><path class="cls-5" d="M110.13,179.76a10.41,10.41,0,1,1,10.4,10.4A10.4,10.4,0,0,1,110.13,179.76Z"/><path class="cls-6" d="M176.66,190.55a10.4,10.4,0,1,1,10.4,10.4,10.4,10.4,0,0,1-10.4-10.4"/><circle class="cls-5" cx="187.06" cy="190.55" r="10.4" transform="translate(-79.95 188.08) rotate(-45)"/><path class="cls-6" d="M169.5,180.19a10.41,10.41,0,1,1,10.4,10.41,10.4,10.4,0,0,1-10.4-10.41"/><path class="cls-5" d="M169.5,180.19a10.41,10.41,0,1,1,10.4,10.41A10.4,10.4,0,0,1,169.5,180.19Z"/><path class="cls-5" d="M109.25,171.29l40.69-13.07m0-.25-24.66-34m24.66,34,25.16-33.54m15.54,46.86-40.7-13.07m0,0,.25,42.43m-.11-103.39V48.71m1.84-.11s1.12,38.73-.62,40.77-3.07,7-1.64,8"/><path class="cls-5" d="M-30.55,148.59a8.3,8.3,0,0,1,8.3-8.3,8.29,8.29,0,0,1,8.3,8.3,8.3,8.3,0,0,1-8.3,8.3A8.31,8.31,0,0,1-30.55,148.59ZM-15.64,104a8.31,8.31,0,0,1,8.3-8.31A8.3,8.3,0,0,1,1,104a8.29,8.29,0,0,1-8.3,8.29A8.3,8.3,0,0,1-15.64,104ZM7.85,95.84a8.3,8.3,0,1,1,8.3,8.3A8.3,8.3,0,0,1,7.85,95.84Zm23.21,8.3a8.3,8.3,0,1,1,8.3,8.29A8.29,8.29,0,0,1,31.06,104.14ZM45.8,148.85a8.3,8.3,0,1,1,8.3,8.3A8.31,8.31,0,0,1,45.8,148.85Z"/><polygon class="cls-6" points="-3.64 108.5 -16.63 146.47 16.03 169.89 48.3 146.47 35.91 109.09 16.03 101.42 -3.64 108.5"/><polygon class="cls-5" points="-3.64 108.5 -16.63 146.47 16.03 169.89 48.3 146.47 35.91 109.09 16.03 101.42 -3.64 108.5"/><path class="cls-6" d="M31.05,168.92a8.3,8.3,0,1,1,8.3,8.3,8.29,8.29,0,0,1-8.3-8.3"/><path class="cls-5" d="M31.05,168.92a8.3,8.3,0,1,1,8.3,8.3A8.29,8.29,0,0,1,31.05,168.92Z"/><path class="cls-6" d="M22.19,171.87a8.3,8.3,0,1,1,8.3,8.3,8.3,8.3,0,0,1-8.3-8.3"/><circle class="cls-5" cx="30.49" cy="171.87" r="8.3" transform="translate(-112.6 71.9) rotate(-45)"/><path class="cls-5" d="M7.29,173.48a8.3,8.3,0,1,1,8.3,8.3A8.29,8.29,0,0,1,7.29,173.48Z"/><path class="cls-6" d="M-7.34,171.79A8.3,8.3,0,1,1,1,180.1a8.31,8.31,0,0,1-8.3-8.31"/><path class="cls-5" d="M-7.34,171.79A8.3,8.3,0,1,1,1,180.1,8.31,8.31,0,0,1-7.34,171.79Z"/><path class="cls-6" d="M-15.5,168.84a8.31,8.31,0,0,1,8.3-8.3,8.3,8.3,0,0,1,8.3,8.3,8.29,8.29,0,0,1-8.3,8.3,8.3,8.3,0,0,1-8.3-8.3"/><ellipse class="cls-5" cx="-7.2" cy="168.84" rx="8.3" ry="8.3" transform="translate(-176.02 161.13) rotate(-89.83)"/><path class="cls-6" d="M46.11,124a8.3,8.3,0,1,1,8.3,8.3,8.3,8.3,0,0,1-8.3-8.3"/><path class="cls-5" d="M46.11,124a8.3,8.3,0,1,1,8.3,8.3A8.3,8.3,0,0,1,46.11,124Z"/><path class="cls-6" d="M46.53,133.54a8.3,8.3,0,1,1,8.3,8.29,8.3,8.3,0,0,1-8.3-8.29"/><path class="cls-5" d="M46.53,133.54a8.3,8.3,0,1,1,8.3,8.29A8.3,8.3,0,0,1,46.53,133.54Z"/><path class="cls-5" d="M7.57,122.56a8.3,8.3,0,1,1,8.3,8.3A8.29,8.29,0,0,1,7.57,122.56Z"/><path class="cls-6" d="M16.85,98.65a8.3,8.3,0,1,1,8.3,8.3,8.31,8.31,0,0,1-8.3-8.3"/><path class="cls-5" d="M16.85,98.65a8.3,8.3,0,1,1,8.3,8.3A8.31,8.31,0,0,1,16.85,98.65Z"/><path class="cls-6" d="M-1.15,98.65a8.3,8.3,0,1,1,8.3,8.3,8.3,8.3,0,0,1-8.3-8.3"/><path class="cls-5" d="M-1.15,98.65a8.3,8.3,0,1,1,8.3,8.3A8.3,8.3,0,0,1-1.15,98.65Z"/><path class="cls-6" d="M-15.64,118.77a8.3,8.3,0,0,1,8.3-8.3,8.29,8.29,0,0,1,8.3,8.3,8.29,8.29,0,0,1-8.3,8.29,8.3,8.3,0,0,1-8.3-8.29"/><path class="cls-5" d="M-15.64,118.77a8.3,8.3,0,0,1,8.3-8.3,8.29,8.29,0,0,1,8.3,8.3,8.29,8.29,0,0,1-8.3,8.29A8.3,8.3,0,0,1-15.64,118.77Z"/><path class="cls-6" d="M-1.15,108.36a8.3,8.3,0,1,1,8.3,8.29,8.29,8.29,0,0,1-8.3-8.29"/><circle class="cls-5" cx="7.15" cy="108.36" r="8.3" transform="translate(-99.3 86.9) rotate(-74.83)"/><path class="cls-6" d="M16.71,108.36a8.3,8.3,0,1,1,8.3,8.29,8.3,8.3,0,0,1-8.3-8.29"/><path class="cls-5" d="M16.71,108.36a8.3,8.3,0,1,1,8.3,8.29A8.3,8.3,0,0,1,16.71,108.36Z"/><path class="cls-6" d="M40.48,115.81a8.3,8.3,0,1,1,8.3,8.3,8.31,8.31,0,0,1-8.3-8.3"/><path class="cls-5" d="M40.48,115.81a8.3,8.3,0,1,1,8.3,8.3A8.31,8.31,0,0,1,40.48,115.81Z"/><path class="cls-6" d="M31.06,118.77a8.3,8.3,0,1,1,8.3,8.29,8.29,8.29,0,0,1-8.3-8.29"/><path class="cls-5" d="M31.06,118.77a8.3,8.3,0,1,1,8.3,8.29A8.29,8.29,0,0,1,31.06,118.77Z"/><path class="cls-6" d="M-5.51,132.13a8.3,8.3,0,1,1,8.3,8.3,8.29,8.29,0,0,1-8.3-8.3"/><path class="cls-5" d="M-5.51,132.13a8.3,8.3,0,1,1,8.3,8.3A8.29,8.29,0,0,1-5.51,132.13Z"/><path class="cls-6" d="M21.07,132.13a8.3,8.3,0,1,1,8.3,8.3,8.29,8.29,0,0,1-8.3-8.3"/><path class="cls-5" d="M21.07,132.13a8.3,8.3,0,1,1,8.3,8.3A8.29,8.29,0,0,1,21.07,132.13Z"/><path class="cls-6" d="M36.68,136.63a8.3,8.3,0,1,1,8.31,8.3,8.31,8.31,0,0,1-8.31-8.3"/><path class="cls-5" d="M36.68,136.63a8.3,8.3,0,1,1,8.31,8.3A8.31,8.31,0,0,1,36.68,136.63Z"/><path class="cls-6" d="M-1.29,163.92a8.3,8.3,0,1,1,8.3,8.3,8.29,8.29,0,0,1-8.3-8.3"/><path class="cls-5" d="M-1.29,163.92a8.3,8.3,0,1,1,8.3,8.3A8.29,8.29,0,0,1-1.29,163.92Z"/><path class="cls-6" d="M-.31,147.32a8.3,8.3,0,1,1,8.3,8.3,8.31,8.31,0,0,1-8.3-8.3"/><path class="cls-5" d="M-.31,147.32a8.3,8.3,0,1,1,8.3,8.3A8.31,8.31,0,0,1-.31,147.32Z"/><path class="cls-6" d="M15.87,147.18a8.3,8.3,0,1,1,8.3,8.3,8.3,8.3,0,0,1-8.3-8.3"/><path class="cls-5" d="M15.87,147.18a8.3,8.3,0,1,1,8.3,8.3A8.3,8.3,0,0,1,15.87,147.18Z"/><path class="cls-6" d="M16.29,164.2a8.3,8.3,0,1,1,8.3,8.3,8.31,8.31,0,0,1-8.3-8.3"/><circle class="cls-5" cx="24.59" cy="164.2" r="8.3" transform="translate(-2.41 0.38) rotate(-0.84)"/><path class="cls-6" d="M-15.92,153.23a8.29,8.29,0,0,1,8.3-8.3,8.3,8.3,0,0,1,8.3,8.3,8.31,8.31,0,0,1-8.3,8.3,8.3,8.3,0,0,1-8.3-8.3"/><path class="cls-5" d="M-15.92,153.23a8.29,8.29,0,0,1,8.3-8.3,8.3,8.3,0,0,1,8.3,8.3,8.31,8.31,0,0,1-8.3,8.3A8.3,8.3,0,0,1-15.92,153.23Z"/><path class="cls-6" d="M37.15,161.84a8.3,8.3,0,1,1,8.29,8.3,8.29,8.29,0,0,1-8.29-8.3"/><ellipse class="cls-5" cx="45.44" cy="161.84" rx="8.3" ry="8.3" transform="translate(-0.5 0.14) rotate(-0.18)"/><path class="cls-6" d="M31.44,153.57a8.3,8.3,0,1,1,8.3,8.31,8.3,8.3,0,0,1-8.3-8.31"/><ellipse class="cls-5" cx="39.74" cy="153.57" rx="8.3" ry="8.3" transform="translate(-113.96 192.82) rotate(-89.82)"/><path class="cls-5" d="M-16.63,146.47,15.84,136m0-.19L-3.84,108.7m19.68,27.15,20.07-26.76M48.3,146.47,15.84,136m0,0L16,169.89m-.09-82.48V48.69m1.47-.09s.9,30.89-.49,32.53-2.45,5.55-1.31,6.37"/></g></svg>