<svg id="taraxacum_S1" data-name="taraxacum S1" xmlns="http://www.w3.org/2000/svg" viewBox="0 0 300 263"><defs><style>.cls-1{isolation:isolate;}.cls-2,.cls-3{fill:none;stroke-width:0.5px;}.cls-2{stroke:#000;}.cls-3{stroke:#1d1d1b;stroke-miterlimit:3.86;}</style></defs><title>taraxacum-suspension-1-a-pg-castiglioni-flos-F7401009-spech-tech-02-300x263</title><g class="cls-1"><path d="M124.18,213.93a4,4,0,0,1,.68,1.15,4.28,4.28,0,0,1,.24,1.45,4,4,0,0,1-.29,1.57,3.73,3.73,0,0,1-2.08,2.07,4.2,4.2,0,0,1-1.61.3,4.42,4.42,0,0,1-1.4-.22,4,4,0,0,1-1.11-.61l-1.07,1.09-.52-.5,1.06-1.09a3.62,3.62,0,0,1-.69-1.17,4.27,4.27,0,0,1-.24-1.44,4,4,0,0,1,.3-1.56,3.71,3.71,0,0,1,2.08-2.08,4.29,4.29,0,0,1,1.59-.29,4.4,4.4,0,0,1,1.39.21,3.86,3.86,0,0,1,1.15.62l1.06-1.09.51.5Zm-1.25.25a2.69,2.69,0,0,0-1.81-.62,2.79,2.79,0,0,0-1.18.23,2.67,2.67,0,0,0-.88.63,3,3,0,0,0-.56,1,3.41,3.41,0,0,0-.2,1.16,3,3,0,0,0,.55,1.83Zm-3.6,4.72a2.72,2.72,0,0,0,.8.45,2.86,2.86,0,0,0,1,.16,3,3,0,0,0,1.18-.23,2.82,2.82,0,0,0,.88-.63,2.77,2.77,0,0,0,.57-1,3.2,3.2,0,0,0,.2-1.17,3.13,3.13,0,0,0-.54-1.82Z"/><path d="M133.39,213.81l0,0a2,2,0,0,1,.73-.29,3.82,3.82,0,0,1,.84-.1,3.45,3.45,0,0,1,1.37.27,3.28,3.28,0,0,1,1.1.72,3.23,3.23,0,0,1,.72,1.11,3.55,3.55,0,0,1,.27,1.41,3.63,3.63,0,0,1-.27,1.42,3.31,3.31,0,0,1-.77,1.1,3.49,3.49,0,0,1-1.17.72,4.13,4.13,0,0,1-1.47.26,4,4,0,0,1-1.47-.26,3.49,3.49,0,0,1-1.17-.72,3.17,3.17,0,0,1-.77-1.1,3.63,3.63,0,0,1-.27-1.42,4.39,4.39,0,0,1,.28-1.65,9,9,0,0,1,.69-1.39l3.06-5h1.36ZM132.24,217a2.64,2.64,0,0,0,.18,1,2.43,2.43,0,0,0,.52.77,2.38,2.38,0,0,0,.8.51,3.09,3.09,0,0,0,1,.17,3,3,0,0,0,1-.17,2.29,2.29,0,0,0,.8-.51,2.14,2.14,0,0,0,.52-.77,2.7,2.7,0,0,0,0-2,2,2,0,0,0-.52-.76,2.29,2.29,0,0,0-.8-.51,2.8,2.8,0,0,0-1-.18,2.86,2.86,0,0,0-1,.18,2.38,2.38,0,0,0-.8.51,2.28,2.28,0,0,0-.52.76A2.66,2.66,0,0,0,132.24,217Z"/><path d="M142.19,214.25a2.41,2.41,0,0,1-.68-.38,2.65,2.65,0,0,1-.53-.58,3.17,3.17,0,0,1-.36-.74,3.06,3.06,0,0,1,.13-2.06,2.69,2.69,0,0,1,.69-.93,2.83,2.83,0,0,1,1-.59,3.62,3.62,0,0,1,2.43,0,2.92,2.92,0,0,1,1,.59,2.69,2.69,0,0,1,.69.93,2.91,2.91,0,0,1,.25,1.23,2.62,2.62,0,0,1-.13.83,2.79,2.79,0,0,1-.35.74,2.93,2.93,0,0,1-.53.58,2.41,2.41,0,0,1-.68.38v0a2.67,2.67,0,0,1,1.53,1.05,3.19,3.19,0,0,1,.58,1.92,2.89,2.89,0,0,1-.3,1.33,3.42,3.42,0,0,1-.78,1,3.56,3.56,0,0,1-1.14.65,4.42,4.42,0,0,1-1.37.22,4.35,4.35,0,0,1-1.36-.22,3.46,3.46,0,0,1-1.14-.65,3.12,3.12,0,0,1-.78-1,2.89,2.89,0,0,1-.3-1.33,3.19,3.19,0,0,1,.58-1.92,2.67,2.67,0,0,1,1.53-1.05Zm3.91,2.84a2.36,2.36,0,0,0-.18-.92,2.29,2.29,0,0,0-.49-.73,2.16,2.16,0,0,0-.77-.49,2.66,2.66,0,0,0-1-.18,2.62,2.62,0,0,0-1,.18,2.12,2.12,0,0,0-.76.49,2.29,2.29,0,0,0-.49.73,2.36,2.36,0,0,0-.18.92,2.32,2.32,0,0,0,.18.92,2.22,2.22,0,0,0,.49.74,2.12,2.12,0,0,0,.76.49,2.83,2.83,0,0,0,1,.17,2.87,2.87,0,0,0,1-.17,2.16,2.16,0,0,0,.77-.49,2.22,2.22,0,0,0,.49-.74A2.32,2.32,0,0,0,146.1,217.09Zm-.42-5.28a2.15,2.15,0,0,0-.15-.8,1.81,1.81,0,0,0-.43-.63,2,2,0,0,0-.64-.41,1.91,1.91,0,0,0-.8-.16,2,2,0,0,0-.8.16,2.26,2.26,0,0,0-.64.41,1.93,1.93,0,0,0-.42.63,2.15,2.15,0,0,0-.15.8,2.07,2.07,0,0,0,.15.8,1.87,1.87,0,0,0,.42.64,2.26,2.26,0,0,0,.64.41,2.15,2.15,0,0,0,.8.15,2.07,2.07,0,0,0,.8-.15,2,2,0,0,0,.64-.41,1.76,1.76,0,0,0,.43-.64A2.07,2.07,0,0,0,145.68,211.81Z"/><path d="M152.56,208.76a3.17,3.17,0,0,1,2,.56,3.86,3.86,0,0,1,1.17,1.42,6.77,6.77,0,0,1,.56,1.9,14,14,0,0,1,0,4,6.77,6.77,0,0,1-.56,1.9,3.86,3.86,0,0,1-1.17,1.42,3.75,3.75,0,0,1-3.94,0,3.86,3.86,0,0,1-1.17-1.42,6.77,6.77,0,0,1-.56-1.9,14,14,0,0,1,0-4,6.77,6.77,0,0,1,.56-1.9,3.86,3.86,0,0,1,1.17-1.42A3.17,3.17,0,0,1,152.56,208.76Zm0,1.05a2.05,2.05,0,0,0-1.46.5,3.08,3.08,0,0,0-.81,1.23,6.09,6.09,0,0,0-.35,1.57c0,.55-.07,1.06-.07,1.5s0,.95.07,1.51a6.19,6.19,0,0,0,.35,1.57,3.08,3.08,0,0,0,.81,1.23,2.42,2.42,0,0,0,2.92,0,3.08,3.08,0,0,0,.81-1.23,6.19,6.19,0,0,0,.35-1.57c0-.56.07-1.06.07-1.51s0-1-.07-1.5a6.09,6.09,0,0,0-.35-1.57,3.08,3.08,0,0,0-.81-1.23A2.05,2.05,0,0,0,152.56,209.81Z"/><path d="M162.61,214.45c0-.27,0-.55,0-.83s0-.55-.05-.83h1.13v1.14h0a2.5,2.5,0,0,1,1.06-1,3.05,3.05,0,0,1,1.35-.33,3.83,3.83,0,0,1,.65.06,2.25,2.25,0,0,1,.66.23,1.93,1.93,0,0,1,.6.48,2.47,2.47,0,0,1,.48.78,2.48,2.48,0,0,1,1-1.14,2.87,2.87,0,0,1,1.45-.41,2.73,2.73,0,0,1,2.13.76,3.11,3.11,0,0,1,.69,2.17v4.75h-1.06v-4.37a3.11,3.11,0,0,0-.4-1.74,1.64,1.64,0,0,0-1.49-.61,1.91,1.91,0,0,0-1,.23,1.84,1.84,0,0,0-.65.62,2.84,2.84,0,0,0-.36.87,4.74,4.74,0,0,0-.11,1v4h-1.06v-4.37a3.11,3.11,0,0,0-.4-1.74,1.62,1.62,0,0,0-1.48-.61l-.44.06a1.71,1.71,0,0,0-.72.35,2.72,2.72,0,0,0-.66.87,3.48,3.48,0,0,0-.3,1.6v3.84h-1Z"/><path d="M176.24,214.45c0-.27,0-.55,0-.83l-.06-.83h1.14v1.14h0a2.5,2.5,0,0,1,1.06-1,3.12,3.12,0,0,1,1.35-.33,3.74,3.74,0,0,1,.65.06,2.42,2.42,0,0,1,.67.23,2.19,2.19,0,0,1,.6.48,2.65,2.65,0,0,1,.47.78,2.48,2.48,0,0,1,1-1.14,2.87,2.87,0,0,1,1.45-.41,2.73,2.73,0,0,1,2.13.76,3.11,3.11,0,0,1,.69,2.17v4.75h-1.06v-4.37a3.11,3.11,0,0,0-.4-1.74,1.63,1.63,0,0,0-1.49-.61,1.82,1.82,0,0,0-1.64.85,2.84,2.84,0,0,0-.36.87,4.74,4.74,0,0,0-.11,1v4h-1v-4.37a3.2,3.2,0,0,0-.4-1.74,1.65,1.65,0,0,0-1.49-.61l-.44.06a1.62,1.62,0,0,0-.71.35,2.6,2.6,0,0,0-.67.87,3.49,3.49,0,0,0-.29,1.6v3.84h-1.06Z"/></g><line class="cls-2" x1="97.11" y1="200.25" x2="207.16" y2="200.25"/><line class="cls-2" x1="97.11" y1="200" x2="97.11" y2="200.51"/><line class="cls-2" x1="207.16" y1="200" x2="207.16" y2="200.51"/><line class="cls-2" x1="97.11" y1="198.04" x2="97.11" y2="202.46"/><line class="cls-2" x1="207.16" y1="198.04" x2="207.16" y2="202.46"/><g class="cls-1"><path d="M55.12,172.87v4.62l3.41.08a3.21,3.21,0,0,1-.21-.75,5,5,0,0,1-.06-.77,3.75,3.75,0,0,1,.27-1.45,3.17,3.17,0,0,1,.76-1.13,3.55,3.55,0,0,1,1.15-.74,4,4,0,0,1,1.45-.26,3.72,3.72,0,0,1,1.5.29,3.26,3.26,0,0,1,1.16.8,3.56,3.56,0,0,1,.76,1.2,4,4,0,0,1,.28,1.52,3.63,3.63,0,0,1-.52,1.93,3.31,3.31,0,0,1-1.5,1.33l-.5-1.15a2.61,2.61,0,0,0,1.07-.89,2.34,2.34,0,0,0,.39-1.33,2.55,2.55,0,0,0-.2-1,2.5,2.5,0,0,0-.54-.81,2.36,2.36,0,0,0-.8-.54,2.54,2.54,0,0,0-1-.2,2.79,2.79,0,0,0-1.09.21,2.65,2.65,0,0,0-.85.57,2.39,2.39,0,0,0-.55.89,3.08,3.08,0,0,0-.2,1.11,4.53,4.53,0,0,0,.17,1.21,6,6,0,0,0,.46,1.15l-5.87-.12v-5.77Z"/><path d="M53.87,167a3.21,3.21,0,0,1,.56-2,3.89,3.89,0,0,1,1.43-1.17,6.39,6.39,0,0,1,1.89-.56,13.14,13.14,0,0,1,4,0,6.39,6.39,0,0,1,1.89.56A3.89,3.89,0,0,1,65,165a3.73,3.73,0,0,1,0,3.93,3.89,3.89,0,0,1-1.43,1.17,6.39,6.39,0,0,1-1.89.56,14.07,14.07,0,0,1-4,0,6.39,6.39,0,0,1-1.89-.56,3.89,3.89,0,0,1-1.43-1.17A3.22,3.22,0,0,1,53.87,167Zm1.06,0a2,2,0,0,0,.5,1.47,3.19,3.19,0,0,0,1.23.81,6.09,6.09,0,0,0,1.57.34c.55,0,1.05.07,1.5.07s1,0,1.5-.07a6.09,6.09,0,0,0,1.57-.34,3.19,3.19,0,0,0,1.23-.81,2.4,2.4,0,0,0,0-2.93,3.08,3.08,0,0,0-1.23-.81,6.09,6.09,0,0,0-1.57-.34c-.55,0-1-.07-1.5-.07s-.95,0-1.5.07a6.09,6.09,0,0,0-1.57.34,3.08,3.08,0,0,0-1.23.81A2,2,0,0,0,54.93,167Z"/><path d="M53.87,158.07a3.24,3.24,0,0,1,.56-2,3.89,3.89,0,0,1,1.43-1.17,6.7,6.7,0,0,1,1.89-.56,14.07,14.07,0,0,1,4,0,6.7,6.7,0,0,1,1.89.56A3.89,3.89,0,0,1,65,156.1,3.75,3.75,0,0,1,65,160a3.89,3.89,0,0,1-1.43,1.17,6.38,6.38,0,0,1-1.89.55,13.14,13.14,0,0,1-4,0,6.38,6.38,0,0,1-1.89-.55A3.89,3.89,0,0,1,54.43,160,3.24,3.24,0,0,1,53.87,158.07Zm1.06,0a2,2,0,0,0,.5,1.46,3.08,3.08,0,0,0,1.23.81,5.7,5.7,0,0,0,1.57.34c.55,0,1.05.08,1.5.08s1,0,1.5-.08a5.7,5.7,0,0,0,1.57-.34,3.08,3.08,0,0,0,1.23-.81,2.05,2.05,0,0,0,.5-1.46,2.09,2.09,0,0,0-.5-1.47,3.17,3.17,0,0,0-1.23-.8,6.09,6.09,0,0,0-1.57-.35c-.55,0-1-.07-1.5-.07s-.95,0-1.5.07a6.09,6.09,0,0,0-1.57.35,3.17,3.17,0,0,0-1.23.8A2,2,0,0,0,54.93,158.07Z"/><path d="M59.57,148l-.83,0-.83.06V147H59v0a2.41,2.41,0,0,1-1-1.06,3.1,3.1,0,0,1-.34-1.35,3.79,3.79,0,0,1,.07-.65,2.25,2.25,0,0,1,.23-.66,2,2,0,0,1,.47-.6,2.52,2.52,0,0,1,.79-.48,2.48,2.48,0,0,1-1.14-1,3.07,3.07,0,0,1,.34-3.58,3.12,3.12,0,0,1,2.17-.69h4.75v1.06H61a3.17,3.17,0,0,0-1.75.4,1.67,1.67,0,0,0-.61,1.49,1.87,1.87,0,0,0,.85,1.64,3.07,3.07,0,0,0,.87.36,4.9,4.9,0,0,0,1,.11h4V143H61a3.17,3.17,0,0,0-1.75.41,1.65,1.65,0,0,0-.61,1.48,4.26,4.26,0,0,0,.07.44,1.62,1.62,0,0,0,.35.71,2.55,2.55,0,0,0,.86.67,3.55,3.55,0,0,0,1.6.29h3.84V148Z"/><path d="M59.57,134.39l-.83,0-.83.06v-1.14H59v0a2.47,2.47,0,0,1-1-1.06,3.13,3.13,0,0,1-.34-1.35,3.79,3.79,0,0,1,.07-.65,2.42,2.42,0,0,1,.23-.67,2.34,2.34,0,0,1,.47-.6,2.71,2.71,0,0,1,.79-.47,2.45,2.45,0,0,1-1.14-1,2.73,2.73,0,0,1-.42-1.44,2.76,2.76,0,0,1,.76-2.13,3.12,3.12,0,0,1,2.17-.69h4.75v1.06H61a3.17,3.17,0,0,0-1.75.4,1.65,1.65,0,0,0-.61,1.49,1.91,1.91,0,0,0,.24,1,2,2,0,0,0,.61.65,3.07,3.07,0,0,0,.87.36,4.9,4.9,0,0,0,1,.11h4v1.05H61a3.26,3.26,0,0,0-1.75.4,1.68,1.68,0,0,0-.61,1.49,4.26,4.26,0,0,0,.07.44,1.62,1.62,0,0,0,.35.71A2.55,2.55,0,0,0,60,133a3.69,3.69,0,0,0,1.6.29h3.84v1.06Z"/></g><line class="cls-2" x1="75.29" y1="190.58" x2="75.29" y2="105.42"/><line class="cls-2" x1="73.44" y1="105.39" x2="76.99" y2="105.39"/><line class="cls-2" x1="72.76" y1="190.58" x2="77.81" y2="190.58"/><line class="cls-2" x1="75.29" y1="105.39" x2="75.29" y2="47.04"/><line class="cls-2" x1="73.44" y1="47.02" x2="76.99" y2="47.02"/><line class="cls-2" x1="72.76" y1="105.39" x2="77.81" y2="105.39"/><g class="cls-1"><path d="M61.65,101.38V99.75h1.06v1.63h2.68v1.15H62.71v4.9H61.39l-7.32-4.58v-1.47Zm-6.43,1.15v0l6.43,3.9v-3.94Z"/><path d="M53.87,94.69a3.21,3.21,0,0,1,.56-2,3.79,3.79,0,0,1,1.43-1.17A6.11,6.11,0,0,1,57.75,91a13.14,13.14,0,0,1,4,0,6.11,6.11,0,0,1,1.89.56A3.79,3.79,0,0,1,65,92.73a3.73,3.73,0,0,1,0,3.93,3.89,3.89,0,0,1-1.43,1.17,6.39,6.39,0,0,1-1.89.56,14.07,14.07,0,0,1-4,0,6.39,6.39,0,0,1-1.89-.56,3.89,3.89,0,0,1-1.43-1.17A3.24,3.24,0,0,1,53.87,94.69Zm1.06,0a2,2,0,0,0,.5,1.47,3.19,3.19,0,0,0,1.23.81,6.09,6.09,0,0,0,1.57.34c.55,0,1.05.07,1.5.07s1,0,1.5-.07A6.09,6.09,0,0,0,62.8,97,3.19,3.19,0,0,0,64,96.16a2.4,2.4,0,0,0,0-2.93,3.08,3.08,0,0,0-1.23-.81,6.09,6.09,0,0,0-1.57-.34c-.55,0-1-.07-1.5-.07s-.95,0-1.5.07a6.09,6.09,0,0,0-1.57.34,3.08,3.08,0,0,0-1.23.81A2,2,0,0,0,54.93,94.69Z"/><path d="M53.87,85.8a3.24,3.24,0,0,1,.56-2,3.89,3.89,0,0,1,1.43-1.17,6.39,6.39,0,0,1,1.89-.56,14.07,14.07,0,0,1,4,0,6.39,6.39,0,0,1,1.89.56A3.89,3.89,0,0,1,65,83.83a3.75,3.75,0,0,1,0,3.94,3.77,3.77,0,0,1-1.43,1.16,6.11,6.11,0,0,1-1.89.56,13.14,13.14,0,0,1-4,0,6.11,6.11,0,0,1-1.89-.56,3.77,3.77,0,0,1-1.43-1.16A3.26,3.26,0,0,1,53.87,85.8Zm1.06,0a2,2,0,0,0,.5,1.46,3.08,3.08,0,0,0,1.23.81,5.7,5.7,0,0,0,1.57.34c.55,0,1.05.08,1.5.08s1,0,1.5-.08a5.7,5.7,0,0,0,1.57-.34A3.08,3.08,0,0,0,64,87.26a2.07,2.07,0,0,0,.5-1.46,2.09,2.09,0,0,0-.5-1.47,3.17,3.17,0,0,0-1.23-.8,5.71,5.71,0,0,0-1.57-.35c-.55-.05-1-.07-1.5-.07s-.95,0-1.5.07a5.71,5.71,0,0,0-1.57.35,3.17,3.17,0,0,0-1.23.8A2,2,0,0,0,54.93,85.8Z"/><path d="M53.87,76.9a3.26,3.26,0,0,1,.56-2,3.77,3.77,0,0,1,1.43-1.16,6.11,6.11,0,0,1,1.89-.56,13.14,13.14,0,0,1,4,0,6.11,6.11,0,0,1,1.89.56A3.77,3.77,0,0,1,65,74.93a3.75,3.75,0,0,1,0,3.94A3.89,3.89,0,0,1,63.6,80a6.39,6.39,0,0,1-1.89.56,14.07,14.07,0,0,1-4,0A6.39,6.39,0,0,1,55.86,80a3.89,3.89,0,0,1-1.43-1.17A3.24,3.24,0,0,1,53.87,76.9Zm1.06,0a2,2,0,0,0,.5,1.47,3.17,3.17,0,0,0,1.23.8,5.71,5.71,0,0,0,1.57.35c.55,0,1.05.07,1.5.07s1,0,1.5-.07a5.71,5.71,0,0,0,1.57-.35,3.17,3.17,0,0,0,1.23-.8,2.09,2.09,0,0,0,.5-1.47,2.07,2.07,0,0,0-.5-1.46,3.08,3.08,0,0,0-1.23-.81,5.7,5.7,0,0,0-1.57-.34c-.55-.05-1-.08-1.5-.08s-.95,0-1.5.08a5.7,5.7,0,0,0-1.57.34,3.08,3.08,0,0,0-1.23.81A2,2,0,0,0,54.93,76.9Z"/><path d="M59.57,66.85c-.28,0-.56,0-.83,0l-.83.05V65.8H59v0a2.44,2.44,0,0,1-1-1.07,3.07,3.07,0,0,1-.34-1.35,3.9,3.9,0,0,1,.07-.65A2.25,2.25,0,0,1,58,62a2,2,0,0,1,.47-.6,2.33,2.33,0,0,1,.79-.47,2.56,2.56,0,0,1-1.14-1,3.07,3.07,0,0,1,.34-3.58,3.17,3.17,0,0,1,2.17-.68h4.75v1.05H61a3.26,3.26,0,0,0-1.75.4,1.67,1.67,0,0,0-.61,1.49,1.87,1.87,0,0,0,.85,1.64,2.58,2.58,0,0,0,.87.36,4.9,4.9,0,0,0,1,.11h4V61.8H61a3.17,3.17,0,0,0-1.75.4,1.65,1.65,0,0,0-.61,1.49c0,.06,0,.21.07.44a1.67,1.67,0,0,0,.35.71,2.67,2.67,0,0,0,.86.66,3.53,3.53,0,0,0,1.6.3h3.84v1Z"/><path d="M59.57,53.22c-.28,0-.56,0-.83,0l-.83,0V52.17H59v0a2.41,2.41,0,0,1-1-1.06,3.07,3.07,0,0,1-.34-1.35,3.9,3.9,0,0,1,.07-.65,2.25,2.25,0,0,1,.23-.66,2,2,0,0,1,.47-.6,2.52,2.52,0,0,1,.79-.48,2.48,2.48,0,0,1-1.14-1,3.07,3.07,0,0,1,.34-3.58,3.12,3.12,0,0,1,2.17-.69h4.75v1.06H61a3.17,3.17,0,0,0-1.75.4A1.67,1.67,0,0,0,58.67,45a1.87,1.87,0,0,0,.85,1.64,3.07,3.07,0,0,0,.87.36,4.9,4.9,0,0,0,1,.11h4v1.06H61a3.17,3.17,0,0,0-1.75.4,1.65,1.65,0,0,0-.61,1.48,4.26,4.26,0,0,0,.07.44,1.71,1.71,0,0,0,.35.72,2.67,2.67,0,0,0,.86.66,3.53,3.53,0,0,0,1.6.3h3.84v1Z"/></g><path class="cls-3" d="M149.91,47c0,2,0,3.8,0,5.41-.34,41.43-.07,53.57-.07,53.57l-.86-.47-.1-.19s-.23-11.48.12-52.91q0-2.41,0-5.4"/><path class="cls-3" d="M148.56,105.71s-.63-.51-1.11,0a4.22,4.22,0,0,1-3.66.36c-1.44-.55-3.87-.93-5.17,0s-1.77.65-1.77.65-.18-.09-.64.64a22.44,22.44,0,0,0-2.31,4.88s-9.28,15.6-21.46,10.61c0,0-1.76-1.59-3-.23s-2,2.42-2.37,6.42c0,0-.15,1.74,1.38,1.82a2.76,2.76,0,0,1,2.52,1.66c.16.53,1.69,7.63-5.51,9.37,0,0-6.45-.07-7.45-.6s-1.3,0-1.61,1.51a9.25,9.25,0,0,0,.84,6.88,7.91,7.91,0,0,0,7,0s.92,5.13,2.91,4.83c0,0,.69-.15.85-.46s.84-.75,1.07,0,.84,6.51-1.3,7.33-1.69,3-.62,5.45,2.84,3.25,3.76,3.09,4.44-.9,6.89.54,8.73,5.28,11.18,10a3.13,3.13,0,0,1,0,.91c-.08.38-.15,5.22,6.74,7.1,0,0,2.07,1.06,2.91.53s2.38-1.51,3.52-1.21a8.31,8.31,0,0,1,2.84,1.51,1.28,1.28,0,0,0,1.68.38c.69-.45,2.68-1.81,4.14-1.58,0,0,2.75.15,4.13,1.36,0,0,.39,2,4.21-.61,0,0,.77-.15.92.15s2.3,1.82,5.29.08a8.33,8.33,0,0,0,3.75-4.16s.38-1.74.61-2.42,4.75-8.91,10.57-10.8c0,0,1.23-.38,1.84.07a2.47,2.47,0,0,0,3.75-.6s2.68-.45,3.52-2,2.23-4.91,1.23-5.82-2.83-2.34-1.92-4.16,3.6-5.06,4.52-5.44,6.72-1.2,8-.83,2.83.53,3.75-1,2.37-8.92-.77-8-12.08.15-15.14-4.68-.08-5.82.3-6.13,1.54-1.51,1.31-2.41-1.69-6.58-4.06-6.58c0,0-1.07-2.64-2.53-2.26a4.39,4.39,0,0,0-2.3,1.58,13.51,13.51,0,0,1-3.52.91c-1.22,0-6.74-2.64-9.8-7.26s-4.21-9.21-5.36-9.74a9.72,9.72,0,0,0-4.91-.38,2.14,2.14,0,0,0-1.6-1.06c-1,0-1.76.08-1.76.08s-3.68.83-4.75.15Zm-44.35,44s-.39-4.6,1.13-4.8a3.19,3.19,0,0,1,1,0,5.67,5.67,0,0,0,2.5-.56,8.57,8.57,0,0,0,3.44-3.67m-3.91,13a1.84,1.84,0,0,1,1.46-.88,9.34,9.34,0,0,1,7,1.86m-10.93-9.76a5.82,5.82,0,0,1,2.11,3.9m.39,4.93a10.12,10.12,0,0,0,0-3m21,17.33s-1.91,1.37-2.52-1.2-2.68-9.22,1.91-7.71m10.8-18.36s-.46,7.71.53,10.27m-5.81-28.71s-3.3,2.27-4.75,1.36-2.07-2.19-3.37,1.21-.77,6.87-.31,7.1m34.46,30.38s.16,6-1.07,9.22m-2.22-49s1.61.76,2.3-.3,1.68-3.48,2.06-.6a38.25,38.25,0,0,1-.3,7.85m25.58-5.51s2.52,6.72-.31,6.65m-.54,40.5s4.6-7.86.54-7.48M147.9,105.39s-.69,1.06-.77,5.29M158,106.9s.61,2,1.07,4.24M138,106.53a10.56,10.56,0,0,1-1.3,3.62c-1.08,1.82-2,3.71-2,3.71m1.46,74.73s-4.06-3-3.75-6.65M146,189.8s-1.45-1.74-1.15-7.18M159.08,189s2.76-4.54,1.76-5.75m17.64-40.9s.85,1.59,1.79.94,2.83-1.21,2.55,4.09-1.22,6-2.73,4.37a1.75,1.75,0,0,0-1.8.47m-50.39-29.5s1.11-.06.43,3.15"/></svg>