<svg id="taraxacum_88_S1" data-name="taraxacum 88 S1" xmlns="http://www.w3.org/2000/svg" viewBox="0 0 300 263"><defs><style>.cls-1{isolation:isolate;}.cls-2,.cls-6{fill:none;}.cls-2{stroke:#000;}.cls-2,.cls-3,.cls-6{stroke-width:0.5px;}.cls-3,.cls-4{fill:#dbd9d7;}.cls-3,.cls-6{stroke:#1d1d1b;stroke-miterlimit:3.86;}.cls-5{fill:#fff;}</style></defs><title>taraxacum-88-suspension-1-castiglioni-flos-F7430000-spech-tech-02-300x263</title><g class="cls-1"><path d="M121.18,214.35a4,4,0,0,1,.68,1.16,4.2,4.2,0,0,1,.24,1.45,4.1,4.1,0,0,1-.29,1.57,3.75,3.75,0,0,1-.83,1.24,3.85,3.85,0,0,1-1.25.83,4.39,4.39,0,0,1-1.61.29,4.15,4.15,0,0,1-1.4-.22,3.72,3.72,0,0,1-1.11-.61l-1.07,1.09-.52-.5,1.06-1.08a3.78,3.78,0,0,1-.69-1.18,4.17,4.17,0,0,1-.24-1.43,4,4,0,0,1,.3-1.57,3.82,3.82,0,0,1,.82-1.25,3.62,3.62,0,0,1,1.26-.82,4.43,4.43,0,0,1,3-.08,3.84,3.84,0,0,1,1.15.61l1.06-1.08.51.49Zm-1.25.26a2.64,2.64,0,0,0-1.81-.63,3,3,0,0,0-1.18.23,2.82,2.82,0,0,0-.88.63,3.1,3.1,0,0,0-.56.95,3.42,3.42,0,0,0-.2,1.17,3,3,0,0,0,.55,1.82Zm-3.6,4.72a2.49,2.49,0,0,0,.8.44,2.86,2.86,0,0,0,1,.16,2.79,2.79,0,0,0,1.18-.23,2.54,2.54,0,0,0,.88-.63,2.68,2.68,0,0,0,.57-.95,3.41,3.41,0,0,0-.34-3Z"/><path d="M130.3,214.67a2.16,2.16,0,0,1-.68-.38,2.48,2.48,0,0,1-.54-.58,2.65,2.65,0,0,1-.35-.74,2.53,2.53,0,0,1-.13-.83,2.87,2.87,0,0,1,.26-1.22,3,3,0,0,1,.68-.94,3.27,3.27,0,0,1,1-.59,3.56,3.56,0,0,1,1.22-.21,3.5,3.5,0,0,1,1.21.21,3.16,3.16,0,0,1,1,.59,2.83,2.83,0,0,1,.69.94,2.87,2.87,0,0,1,.26,1.22,2.83,2.83,0,0,1-.13.83,3,3,0,0,1-.35.74,2.48,2.48,0,0,1-.54.58,2.28,2.28,0,0,1-.68.38v0a2.69,2.69,0,0,1,1.54,1.06,3.21,3.21,0,0,1,.57,1.92,3,3,0,0,1-.29,1.32,3.18,3.18,0,0,1-.79,1,3.41,3.41,0,0,1-1.13.65,4.18,4.18,0,0,1-1.37.22,4.14,4.14,0,0,1-1.37-.22,3.56,3.56,0,0,1-1.14-.65,3.3,3.3,0,0,1-.78-1,2.85,2.85,0,0,1-.3-1.32,3.21,3.21,0,0,1,.58-1.92,2.66,2.66,0,0,1,1.54-1.06Zm3.9,2.85a2.32,2.32,0,0,0-.18-.92,2.2,2.2,0,0,0-.48-.74,2.26,2.26,0,0,0-.77-.49,3.06,3.06,0,0,0-2,0,2.18,2.18,0,0,0-1.25,1.23,2.51,2.51,0,0,0-.17.92,2.55,2.55,0,0,0,.17.92,2.29,2.29,0,0,0,.49.73,2.21,2.21,0,0,0,.76.49,2.9,2.9,0,0,0,2,0,2.13,2.13,0,0,0,1.25-1.22A2.36,2.36,0,0,0,134.2,217.52Zm-.42-5.28a2.07,2.07,0,0,0-.15-.8,1.87,1.87,0,0,0-.42-.64,2.06,2.06,0,0,0-1.44-.56,2.07,2.07,0,0,0-.8.15,2,2,0,0,0-.64.41,2,2,0,0,0-.58,1.44,2.11,2.11,0,0,0,.15.8,2.13,2.13,0,0,0,.43.63,2,2,0,0,0,.64.41,1.91,1.91,0,0,0,.8.16,1.94,1.94,0,0,0,.8-.16,2.13,2.13,0,0,0,.64-.41,1.93,1.93,0,0,0,.42-.63A2.11,2.11,0,0,0,133.78,212.24Z"/><path d="M140.66,209.18a3.24,3.24,0,0,1,2,.56,3.81,3.81,0,0,1,1.17,1.43,6.3,6.3,0,0,1,.56,1.89,13.76,13.76,0,0,1,.14,2,13.53,13.53,0,0,1-.14,2,6.45,6.45,0,0,1-.56,1.9,3.78,3.78,0,0,1-1.17,1.42,3.73,3.73,0,0,1-3.93,0,3.69,3.69,0,0,1-1.17-1.42A6.17,6.17,0,0,1,137,217a13.58,13.58,0,0,1-.15-2,13.82,13.82,0,0,1,.15-2,6,6,0,0,1,.56-1.89,3.72,3.72,0,0,1,1.17-1.43A3.21,3.21,0,0,1,140.66,209.18Zm0,1.06a2.08,2.08,0,0,0-1.46.49,3.08,3.08,0,0,0-.81,1.23,6.27,6.27,0,0,0-.34,1.57c-.05.56-.07,1.06-.07,1.51s0,1,.07,1.5a6.09,6.09,0,0,0,.34,1.57,3.08,3.08,0,0,0,.81,1.23,2.4,2.4,0,0,0,2.93,0,3.19,3.19,0,0,0,.81-1.23,6.09,6.09,0,0,0,.34-1.57c.05-.55.07-1,.07-1.5s0-.95-.07-1.51a6.27,6.27,0,0,0-.34-1.57,3.19,3.19,0,0,0-.81-1.23A2.09,2.09,0,0,0,140.66,210.24Z"/><path d="M149.56,209.18a3.24,3.24,0,0,1,2,.56,3.81,3.81,0,0,1,1.17,1.43,6.6,6.6,0,0,1,.56,1.89,15.36,15.36,0,0,1,.14,2,15.09,15.09,0,0,1-.14,2,6.77,6.77,0,0,1-.56,1.9,3.78,3.78,0,0,1-1.17,1.42,3.75,3.75,0,0,1-3.94,0,3.78,3.78,0,0,1-1.17-1.42,6.77,6.77,0,0,1-.56-1.9,15.09,15.09,0,0,1-.14-2,15.36,15.36,0,0,1,.14-2,6.6,6.6,0,0,1,.56-1.89,3.81,3.81,0,0,1,1.17-1.43A3.24,3.24,0,0,1,149.56,209.18Zm0,1.06a2,2,0,0,0-1.46.49,3.08,3.08,0,0,0-.81,1.23,6.29,6.29,0,0,0-.35,1.57c0,.56-.07,1.06-.07,1.51s0,1,.07,1.5a6.09,6.09,0,0,0,.35,1.57,3.08,3.08,0,0,0,.81,1.23,2.38,2.38,0,0,0,2.92,0,3.08,3.08,0,0,0,.81-1.23,6.09,6.09,0,0,0,.35-1.57c0-.55.07-1,.07-1.5s0-.95-.07-1.51a6.29,6.29,0,0,0-.35-1.57,3.08,3.08,0,0,0-.81-1.23A2,2,0,0,0,149.56,210.24Z"/><path d="M159.61,214.88q0-.42,0-.84c0-.27,0-.55-.05-.83h1.13v1.14h0a2.41,2.41,0,0,1,1.06-1,2.94,2.94,0,0,1,1.35-.34,3.83,3.83,0,0,1,.65.06,2.61,2.61,0,0,1,.66.24,2,2,0,0,1,.6.47,2.47,2.47,0,0,1,.48.78,2.41,2.41,0,0,1,1-1.13A2.79,2.79,0,0,1,168,213a2.73,2.73,0,0,1,2.13.76,3.12,3.12,0,0,1,.69,2.17v4.75h-1.06v-4.37a3.16,3.16,0,0,0-.4-1.74,1.64,1.64,0,0,0-1.49-.61,2,2,0,0,0-1,.23,1.93,1.93,0,0,0-.65.62,3,3,0,0,0-.36.87,4.9,4.9,0,0,0-.11,1v4h-1.06v-4.37a3.16,3.16,0,0,0-.4-1.74,1.62,1.62,0,0,0-1.48-.61l-.44.06a1.87,1.87,0,0,0-.72.36,2.67,2.67,0,0,0-.66.86,3.53,3.53,0,0,0-.3,1.6v3.84h-1Z"/><path d="M173.24,214.88c0-.28,0-.56,0-.84l-.06-.83h1.14v1.14h0a2.41,2.41,0,0,1,1.06-1,3,3,0,0,1,1.35-.34,3.74,3.74,0,0,1,.65.06,2.83,2.83,0,0,1,.67.24,2.34,2.34,0,0,1,.6.47,2.65,2.65,0,0,1,.47.78,2.41,2.41,0,0,1,1-1.13,2.79,2.79,0,0,1,1.45-.42,2.73,2.73,0,0,1,2.13.76,3.12,3.12,0,0,1,.69,2.17v4.75h-1.06v-4.37a3.16,3.16,0,0,0-.4-1.74,1.64,1.64,0,0,0-1.49-.61,1.82,1.82,0,0,0-1.64.85,3,3,0,0,0-.36.87,4.9,4.9,0,0,0-.11,1v4h-1v-4.37a3.25,3.25,0,0,0-.4-1.74,1.65,1.65,0,0,0-1.49-.61L176,214a1.77,1.77,0,0,0-.71.36,2.55,2.55,0,0,0-.67.86,3.55,3.55,0,0,0-.29,1.6v3.84h-1.06Z"/></g><line class="cls-2" x1="88.11" y1="199.68" x2="210.81" y2="199.68"/><line class="cls-2" x1="88.11" y1="199.42" x2="88.11" y2="199.93"/><line class="cls-2" x1="210.81" y1="199.42" x2="210.81" y2="199.93"/><line class="cls-2" x1="88.11" y1="197.47" x2="88.11" y2="201.89"/><line class="cls-2" x1="210.81" y1="197.47" x2="210.81" y2="201.89"/><line class="cls-2" x1="79.9" y1="79.25" x2="79.9" y2="47.03"/><line class="cls-2" x1="78.05" y1="47.02" x2="81.6" y2="47.02"/><line class="cls-2" x1="77.37" y1="79.25" x2="82.42" y2="79.25"/><g class="cls-1"><path d="M59.73,99.56v4.63l3.41.08a3.51,3.51,0,0,1-.21-.75,5.09,5.09,0,0,1-.06-.77,3.83,3.83,0,0,1,.27-1.46,3.22,3.22,0,0,1,.76-1.12,3.39,3.39,0,0,1,1.15-.74,4.17,4.17,0,0,1,3,0,3.54,3.54,0,0,1,1.16.8,3.6,3.6,0,0,1,.76,1.21A3.94,3.94,0,0,1,70.2,103a3.66,3.66,0,0,1-.52,1.94,3.37,3.37,0,0,1-1.5,1.33l-.5-1.16a2.61,2.61,0,0,0,1.07-.89,2.28,2.28,0,0,0,.39-1.32,2.6,2.6,0,0,0-.2-1,2.57,2.57,0,0,0-.54-.8,2.52,2.52,0,0,0-1.79-.74,3,3,0,0,0-1.09.2,2.67,2.67,0,0,0-.85.58,2.43,2.43,0,0,0-.55.88,3.14,3.14,0,0,0-.2,1.12,4.53,4.53,0,0,0,.17,1.21,5.67,5.67,0,0,0,.46,1.14l-5.87-.11V99.56Z"/><path d="M59.73,90.67v4.62l3.41.08a3.21,3.21,0,0,1-.21-.75,5,5,0,0,1-.06-.77,3.75,3.75,0,0,1,.27-1.45,3.17,3.17,0,0,1,.76-1.13,3.55,3.55,0,0,1,1.15-.74,4.06,4.06,0,0,1,1.45-.26,3.72,3.72,0,0,1,1.5.29,3.39,3.39,0,0,1,1.16.8,3.56,3.56,0,0,1,.76,1.2,4,4,0,0,1,.28,1.52A3.63,3.63,0,0,1,69.68,96a3.31,3.31,0,0,1-1.5,1.33l-.5-1.15a2.61,2.61,0,0,0,1.07-.89A2.34,2.34,0,0,0,69.14,94a2.55,2.55,0,0,0-.2-1,2.5,2.5,0,0,0-.54-.81,2.36,2.36,0,0,0-.8-.54,2.54,2.54,0,0,0-1-.2,2.79,2.79,0,0,0-1.09.21,2.52,2.52,0,0,0-.85.58,2.31,2.31,0,0,0-.55.87,3.19,3.19,0,0,0-.2,1.13,4.52,4.52,0,0,0,.17,1.2,6,6,0,0,0,.46,1.15l-5.87-.12V90.67Z"/><path d="M58.48,84.76a3.21,3.21,0,0,1,.56-2,3.89,3.89,0,0,1,1.43-1.17,6.39,6.39,0,0,1,1.89-.56,13.14,13.14,0,0,1,4,0,6.39,6.39,0,0,1,1.89.56,3.89,3.89,0,0,1,1.43,1.17,3.73,3.73,0,0,1,0,3.93,3.89,3.89,0,0,1-1.43,1.17,6.39,6.39,0,0,1-1.89.56,14.07,14.07,0,0,1-4,0,6.39,6.39,0,0,1-1.89-.56A3.89,3.89,0,0,1,59,86.73,3.22,3.22,0,0,1,58.48,84.76Zm1.06,0a2.09,2.09,0,0,0,.5,1.47,3.08,3.08,0,0,0,1.23.81,6.09,6.09,0,0,0,1.57.34c.55.05,1,.07,1.5.07s1,0,1.5-.07A6.09,6.09,0,0,0,67.41,87a3.08,3.08,0,0,0,1.23-.81,2.4,2.4,0,0,0,0-2.93,3.08,3.08,0,0,0-1.23-.81,6.09,6.09,0,0,0-1.57-.34c-.55-.05-1-.07-1.5-.07s-1,0-1.5.07a6.09,6.09,0,0,0-1.57.34A3.08,3.08,0,0,0,60,83.3,2.09,2.09,0,0,0,59.54,84.76Z"/><path d="M58.48,75.87a3.24,3.24,0,0,1,.56-2,3.89,3.89,0,0,1,1.43-1.17,6.7,6.7,0,0,1,1.89-.56,14.07,14.07,0,0,1,4,0,6.7,6.7,0,0,1,1.89.56,3.89,3.89,0,0,1,1.43,1.17,3.75,3.75,0,0,1,0,3.94A3.77,3.77,0,0,1,68.21,79a6.11,6.11,0,0,1-1.89.56,13.14,13.14,0,0,1-4,0A6.11,6.11,0,0,1,60.47,79,3.77,3.77,0,0,1,59,77.84,3.24,3.24,0,0,1,58.48,75.87Zm1.06,0a2.05,2.05,0,0,0,.5,1.46,3.08,3.08,0,0,0,1.23.81,5.7,5.7,0,0,0,1.57.34c.55,0,1,.08,1.5.08s1,0,1.5-.08a5.7,5.7,0,0,0,1.57-.34,3.08,3.08,0,0,0,1.23-.81,2.05,2.05,0,0,0,.5-1.46,2.09,2.09,0,0,0-.5-1.47,3.17,3.17,0,0,0-1.23-.8,6.09,6.09,0,0,0-1.57-.35c-.55,0-1-.07-1.5-.07s-1,0-1.5.07a6.09,6.09,0,0,0-1.57.35,3.17,3.17,0,0,0-1.23.8A2.09,2.09,0,0,0,59.54,75.87Z"/><path d="M64.18,65.82l-.83,0-.83.06V64.76h1.13v0a2.41,2.41,0,0,1-1-1.06,3.1,3.1,0,0,1-.34-1.35,3.79,3.79,0,0,1,.07-.65,2.42,2.42,0,0,1,.23-.67,2.34,2.34,0,0,1,.47-.6,2.71,2.71,0,0,1,.79-.47,2.48,2.48,0,0,1-1.14-1,3.07,3.07,0,0,1,.34-3.58,3.12,3.12,0,0,1,2.17-.69H70v1.06H65.64a3.17,3.17,0,0,0-1.75.4,1.67,1.67,0,0,0-.61,1.49,1.87,1.87,0,0,0,.85,1.64,3.07,3.07,0,0,0,.87.36,4.9,4.9,0,0,0,1,.11h4v1H65.64a3.26,3.26,0,0,0-1.75.4,1.68,1.68,0,0,0-.61,1.49,4.26,4.26,0,0,0,.07.44,1.62,1.62,0,0,0,.35.71,2.55,2.55,0,0,0,.86.67,3.55,3.55,0,0,0,1.6.29H70v1.06Z"/><path d="M64.18,52.19l-.83,0-.83.06V51.13h1.13v0a2.47,2.47,0,0,1-1-1.06,3.13,3.13,0,0,1-.34-1.35,3.79,3.79,0,0,1,.07-.65,2.42,2.42,0,0,1,.23-.67,2.34,2.34,0,0,1,.47-.6,2.71,2.71,0,0,1,.79-.47,2.45,2.45,0,0,1-1.14-1,2.73,2.73,0,0,1-.42-1.44,2.76,2.76,0,0,1,.76-2.13A3.12,3.12,0,0,1,65.25,41H70v1.06H65.64a3.17,3.17,0,0,0-1.75.4A1.65,1.65,0,0,0,63.28,44a1.92,1.92,0,0,0,.24,1,1.87,1.87,0,0,0,.61.64A2.58,2.58,0,0,0,65,46a4.31,4.31,0,0,0,1,.12h4v1.05H65.64a3.26,3.26,0,0,0-1.75.4A1.68,1.68,0,0,0,63.28,49c0,.06,0,.21.07.44a1.62,1.62,0,0,0,.35.71,2.55,2.55,0,0,0,.86.67,3.69,3.69,0,0,0,1.6.29H70v1.06Z"/></g><path class="cls-3" d="M94.85,151a9.75,9.75,0,1,1,9.75,9.75A9.76,9.76,0,0,1,94.85,151Zm17.51-52.38a9.75,9.75,0,1,1,9.75,9.75A9.76,9.76,0,0,1,112.36,98.63ZM140,89.05a9.75,9.75,0,1,1,9.75,9.75A9.75,9.75,0,0,1,140,89.05Zm27.26,9.75a9.75,9.75,0,1,1,9.75,9.74A9.76,9.76,0,0,1,167.21,98.8Zm17.32,52.52a9.75,9.75,0,1,1,9.75,9.75A9.75,9.75,0,0,1,184.53,151.32Z"/><polygon class="cls-4" points="126.45 103.92 111.2 148.53 149.56 176.04 187.47 148.53 172.91 104.62 149.56 95.61 126.45 103.92"/><polygon class="cls-3" points="126.45 103.92 111.2 148.53 149.56 176.04 187.47 148.53 172.91 104.62 149.56 95.61 126.45 103.92"/><path class="cls-4" d="M167.2,174.9a9.75,9.75,0,1,1,9.75,9.75,9.75,9.75,0,0,1-9.75-9.75"/><path class="cls-3" d="M167.2,174.9a9.75,9.75,0,1,1,9.75,9.75A9.75,9.75,0,0,1,167.2,174.9Z"/><path class="cls-4" d="M156.8,178.36a9.75,9.75,0,1,1,9.75,9.75,9.75,9.75,0,0,1-9.75-9.75"/><path class="cls-3" d="M156.8,178.36a9.75,9.75,0,1,1,9.75,9.75A9.75,9.75,0,0,1,156.8,178.36Z"/><path class="cls-3" d="M139.3,180.25A9.75,9.75,0,1,1,149,190,9.74,9.74,0,0,1,139.3,180.25Z"/><path class="cls-4" d="M122.11,178.27a9.75,9.75,0,1,1,9.75,9.75,9.74,9.74,0,0,1-9.75-9.75"/><path class="cls-3" d="M122.11,178.27a9.75,9.75,0,1,1,9.75,9.75A9.74,9.74,0,0,1,122.11,178.27Z"/><path class="cls-4" d="M112.53,174.8a9.75,9.75,0,1,1,9.74,9.75,9.75,9.75,0,0,1-9.74-9.75"/><ellipse class="cls-3" cx="122.27" cy="174.8" rx="9.75" ry="9.75" transform="translate(-52.87 296.59) rotate(-89.84)"/><path class="cls-4" d="M184.89,122.1a9.75,9.75,0,1,1,9.75,9.74,9.74,9.74,0,0,1-9.75-9.74"/><path class="cls-3" d="M184.89,122.1a9.75,9.75,0,1,1,9.75,9.74A9.74,9.74,0,0,1,184.89,122.1Z"/><path class="cls-4" d="M185.39,133.33a9.75,9.75,0,1,1,9.75,9.75,9.75,9.75,0,0,1-9.75-9.75"/><path class="cls-3" d="M185.39,133.33a9.75,9.75,0,1,1,9.75,9.75A9.75,9.75,0,0,1,185.39,133.33Z"/><path class="cls-3" d="M139.62,120.44a9.75,9.75,0,1,1,9.76,9.75A9.74,9.74,0,0,1,139.62,120.44Z"/><path class="cls-4" d="M100.8,112.35a9.75,9.75,0,1,1,9.74,9.74,9.74,9.74,0,0,1-9.74-9.74"/><path class="cls-3" d="M100.8,112.35a9.75,9.75,0,1,1,9.74,9.74A9.74,9.74,0,0,1,100.8,112.35Z"/><path class="cls-4" d="M150.53,92.35a9.75,9.75,0,1,1,9.75,9.75,9.74,9.74,0,0,1-9.75-9.75"/><path class="cls-3" d="M150.53,92.35a9.75,9.75,0,1,1,9.75,9.75A9.74,9.74,0,0,1,150.53,92.35Z"/><path class="cls-4" d="M129.38,92.35a9.75,9.75,0,1,1,9.75,9.75,9.74,9.74,0,0,1-9.75-9.75"/><path class="cls-3" d="M129.38,92.35a9.75,9.75,0,1,1,9.75,9.75A9.74,9.74,0,0,1,129.38,92.35Z"/><path class="cls-4" d="M112.36,116a9.75,9.75,0,1,1,9.75,9.75,9.75,9.75,0,0,1-9.75-9.75"/><path class="cls-3" d="M112.36,116a9.75,9.75,0,1,1,9.75,9.75A9.75,9.75,0,0,1,112.36,116Z"/><path class="cls-5" d="M129.38,103.75a9.75,9.75,0,1,1,9.75,9.75,9.74,9.74,0,0,1-9.75-9.75"/><path class="cls-3" d="M129.38,103.75a9.75,9.75,0,1,1,9.75,9.75A9.74,9.74,0,0,1,129.38,103.75Z"/><path class="cls-4" d="M150.36,103.75a9.75,9.75,0,1,1,9.75,9.75,9.74,9.74,0,0,1-9.75-9.75"/><path class="cls-3" d="M150.36,103.75a9.75,9.75,0,1,1,9.75,9.75A9.74,9.74,0,0,1,150.36,103.75Z"/><path class="cls-4" d="M178.28,112.51a9.75,9.75,0,1,1,9.75,9.75,9.74,9.74,0,0,1-9.75-9.75"/><path class="cls-3" d="M178.28,112.51a9.75,9.75,0,1,1,9.75,9.75A9.74,9.74,0,0,1,178.28,112.51Z"/><path class="cls-4" d="M167.22,116a9.75,9.75,0,1,1,9.74,9.75,9.73,9.73,0,0,1-9.74-9.75"/><path class="cls-3" d="M167.22,116a9.75,9.75,0,1,1,9.74,9.75A9.73,9.73,0,0,1,167.22,116Z"/><path class="cls-4" d="M94.68,122.26a9.75,9.75,0,1,1,9.76,9.75,9.75,9.75,0,0,1-9.76-9.75"/><path class="cls-3" d="M94.68,122.26a9.75,9.75,0,1,1,9.76,9.75A9.75,9.75,0,0,1,94.68,122.26Z"/><path class="cls-4" d="M94,132.67a9.75,9.75,0,1,1,9.74,9.74A9.74,9.74,0,0,1,94,132.67"/><path class="cls-3" d="M94,132.67a9.75,9.75,0,1,1,9.74,9.74A9.74,9.74,0,0,1,94,132.67Z"/><path class="cls-4" d="M105.92,136.63a9.75,9.75,0,1,1,9.75,9.75,9.74,9.74,0,0,1-9.75-9.75"/><path class="cls-3" d="M105.92,136.63a9.75,9.75,0,1,1,9.75,9.75A9.74,9.74,0,0,1,105.92,136.63Z"/><path class="cls-4" d="M124.26,131.68a9.75,9.75,0,1,1,9.75,9.75,9.74,9.74,0,0,1-9.75-9.75"/><path class="cls-3" d="M124.26,131.68a9.75,9.75,0,1,1,9.75,9.75A9.74,9.74,0,0,1,124.26,131.68Z"/><path class="cls-4" d="M155.49,131.68a9.75,9.75,0,1,1,9.74,9.75,9.73,9.73,0,0,1-9.74-9.75"/><circle class="cls-3" cx="165.23" cy="131.68" r="9.75" transform="translate(-0.71 0.89) rotate(-0.31)"/><path class="cls-4" d="M173.82,137a9.75,9.75,0,1,1,9.75,9.74,9.75,9.75,0,0,1-9.75-9.74"/><path class="cls-3" d="M173.82,137a9.75,9.75,0,1,1,9.75,9.74A9.75,9.75,0,0,1,173.82,137Z"/><path class="cls-4" d="M129.21,169a9.75,9.75,0,1,1,9.75,9.75,9.75,9.75,0,0,1-9.75-9.75"/><path class="cls-3" d="M129.21,169a9.75,9.75,0,1,1,9.75,9.75A9.75,9.75,0,0,1,129.21,169Z"/><path class="cls-4" d="M130.37,149.52a9.75,9.75,0,1,1,9.75,9.75,9.76,9.76,0,0,1-9.75-9.75"/><path class="cls-3" d="M130.37,149.52a9.75,9.75,0,1,1,9.75,9.75A9.76,9.76,0,0,1,130.37,149.52Z"/><path class="cls-4" d="M149.37,149.36a9.75,9.75,0,1,1,9.75,9.74,9.74,9.74,0,0,1-9.75-9.74"/><path class="cls-3" d="M149.37,149.36a9.75,9.75,0,1,1,9.75,9.74A9.74,9.74,0,0,1,149.37,149.36Z"/><path class="cls-4" d="M149.87,169.35a9.75,9.75,0,1,1,9.75,9.74,9.75,9.75,0,0,1-9.75-9.74"/><path class="cls-3" d="M149.87,169.35a9.75,9.75,0,1,1,9.75,9.74A9.75,9.75,0,0,1,149.87,169.35Z"/><path class="cls-4" d="M104.6,165.72a9.75,9.75,0,1,1,9.74,9.74,9.75,9.75,0,0,1-9.74-9.74"/><path class="cls-3" d="M104.6,165.72a9.75,9.75,0,1,1,9.74,9.74A9.75,9.75,0,0,1,104.6,165.72Z"/><path class="cls-4" d="M112,156.46a9.75,9.75,0,1,1,9.75,9.75,9.75,9.75,0,0,1-9.75-9.75"/><path class="cls-3" d="M112,156.46a9.75,9.75,0,1,1,9.75,9.75A9.75,9.75,0,0,1,112,156.46Z"/><path class="cls-4" d="M174.37,166.57a9.75,9.75,0,1,1,9.74,9.75,9.74,9.74,0,0,1-9.74-9.75"/><ellipse class="cls-3" cx="184.11" cy="166.57" rx="9.75" ry="9.75" transform="translate(17.06 350.25) rotate(-89.85)"/><path class="cls-4" d="M167.66,156.87a9.75,9.75,0,1,1,9.75,9.75,9.75,9.75,0,0,1-9.75-9.75"/><path class="cls-3" d="M167.66,156.87a9.75,9.75,0,1,1,9.75,9.75A9.75,9.75,0,0,1,167.66,156.87Z"/><path class="cls-6" d="M111.2,148.53l38.14-12.25m0-.23-23.12-31.89m23.12,31.89,23.57-31.43m14.56,43.91-38.13-12.25m0,0-.3,34.23m.42-91.35V33.67m1.73-.1s1.05,36.28-.58,38.2-2.88,6.53-1.54,7.48"/></svg>