<svg xmlns="http://www.w3.org/2000/svg" viewBox="0 0 300 263"><defs><style>.cls-1,.cls-2,.cls-3,.cls-4{fill:none;stroke-linecap:round;}.cls-1,.cls-2{stroke:red;}.cls-1,.cls-2,.cls-4{stroke-linejoin:round;}.cls-1,.cls-3,.cls-4{stroke-width:0.6px;}.cls-3,.cls-4{stroke:#000;}.cls-3{stroke-miterlimit:10;}</style></defs><title>tatou-table-urquiola-flos-F7761009-spech-tech-02-300x263</title><g id="numeri_esterni_diagramma" data-name="numeri esterni diagramma"><path d="M148.27,239.2a6.85,6.85,0,0,1,.08-1,3.41,3.41,0,0,1,.3-.95,1.94,1.94,0,0,1,.59-.71,1.57,1.57,0,0,1,.95-.27,1.6,1.6,0,0,1,1,.27,2,2,0,0,1,.59.71,3.1,3.1,0,0,1,.29.95,5.7,5.7,0,0,1,.08,1,5.85,5.85,0,0,1-.08,1,3.13,3.13,0,0,1-.29.94,2,2,0,0,1-.59.71,1.6,1.6,0,0,1-1,.27,1.57,1.57,0,0,1-.95-.27,1.94,1.94,0,0,1-.59-.71,3.45,3.45,0,0,1-.3-.94A7.07,7.07,0,0,1,148.27,239.2Zm.68,0c0,.13,0,.29,0,.46a4.88,4.88,0,0,0,.06.52,2.83,2.83,0,0,0,.13.5,1.65,1.65,0,0,0,.22.44,1.24,1.24,0,0,0,.34.31,1,1,0,0,0,.48.12.9.9,0,0,0,.48-.12,1,1,0,0,0,.34-.31,1.41,1.41,0,0,0,.23-.44,4.07,4.07,0,0,0,.13-.5c0-.18,0-.35.06-.52s0-.33,0-.46,0-.3,0-.47,0-.34-.06-.51a3.8,3.8,0,0,0-.13-.51,1.53,1.53,0,0,0-.23-.44,1,1,0,0,0-.34-.31.9.9,0,0,0-.48-.12,1,1,0,0,0-.48.12,1.24,1.24,0,0,0-.34.31,1.81,1.81,0,0,0-.22.44,2.72,2.72,0,0,0-.13.51,4.43,4.43,0,0,0-.06.51C149,238.9,149,239.06,149,239.2Z"/><path d="M152.83,237.41a1.33,1.33,0,0,1,.08-.45,1.11,1.11,0,0,1,.25-.36,1,1,0,0,1,.36-.24,1.17,1.17,0,0,1,.9,0,1,1,0,0,1,.36.24,1.11,1.11,0,0,1,.25.36,1.31,1.31,0,0,1,0,.9,1.23,1.23,0,0,1-.61.61,1.17,1.17,0,0,1-.9,0,1.23,1.23,0,0,1-.61-.61A1.33,1.33,0,0,1,152.83,237.41Zm.43,0a.79.79,0,0,0,.05.25.68.68,0,0,0,.14.23.66.66,0,0,0,.23.17.73.73,0,0,0,.58,0,.76.76,0,0,0,.23-.17.88.88,0,0,0,.14-.23.65.65,0,0,0,0-.5,1.09,1.09,0,0,0-.14-.23,1,1,0,0,0-.23-.17.73.73,0,0,0-.58,0,.81.81,0,0,0-.23.17.75.75,0,0,0-.19.48Z"/><path d="M203.17,238.76h.21l.43,0a1.15,1.15,0,0,0,.42-.13.77.77,0,0,0,.31-.31.94.94,0,0,0,.13-.51.87.87,0,0,0-.27-.68,1,1,0,0,0-.7-.26,1.28,1.28,0,0,0-.63.16,1.14,1.14,0,0,0-.41.48l-.65-.25a1.48,1.48,0,0,1,.65-.72,2.07,2.07,0,0,1,1-.24,2.25,2.25,0,0,1,.64.09,1.72,1.72,0,0,1,.54.28,1.37,1.37,0,0,1,.37.46,1.48,1.48,0,0,1,.14.65,1.29,1.29,0,0,1-.27.8,1.34,1.34,0,0,1-.7.49v0a1.48,1.48,0,0,1,.85.49,1.37,1.37,0,0,1,.23.43,1.69,1.69,0,0,1,.08.5,1.66,1.66,0,0,1-.15.72,1.57,1.57,0,0,1-.41.51,1.71,1.71,0,0,1-.6.31,2.34,2.34,0,0,1-.71.1,2.18,2.18,0,0,1-1.13-.28,1.61,1.61,0,0,1-.7-.91l.68-.22a1.33,1.33,0,0,0,.41.65,1.3,1.3,0,0,0,.74.19,1.33,1.33,0,0,0,.45-.08,1.11,1.11,0,0,0,.36-.23,1.24,1.24,0,0,0,.25-.35,1.13,1.13,0,0,0,.09-.45,1.07,1.07,0,0,0-.12-.53,1,1,0,0,0-.33-.33,1.23,1.23,0,0,0-.46-.18,2.31,2.31,0,0,0-.52-.06h-.21Z"/><path d="M206.24,239.2a6.85,6.85,0,0,1,.08-1,3.11,3.11,0,0,1,.3-.95,1.94,1.94,0,0,1,.59-.71,1.55,1.55,0,0,1,.95-.27,1.6,1.6,0,0,1,1,.27,2,2,0,0,1,.59.71,3.1,3.1,0,0,1,.29.95,5.7,5.7,0,0,1,.08,1,5.85,5.85,0,0,1-.08,1,3.13,3.13,0,0,1-.29.94,2,2,0,0,1-.59.71,1.6,1.6,0,0,1-1,.27,1.55,1.55,0,0,1-.95-.27,1.94,1.94,0,0,1-.59-.71,3.14,3.14,0,0,1-.3-.94A7.07,7.07,0,0,1,206.24,239.2Zm.67,0c0,.13,0,.29,0,.46a4.88,4.88,0,0,0,.06.52,2.83,2.83,0,0,0,.13.5,1.4,1.4,0,0,0,.22.44,1.24,1.24,0,0,0,.34.31,1,1,0,0,0,.48.12.9.9,0,0,0,.48-.12,1,1,0,0,0,.34-.31,1.41,1.41,0,0,0,.23-.44,4.05,4.05,0,0,0,.12-.5,4.88,4.88,0,0,0,.06-.52,3.86,3.86,0,0,0,0-.46,3.94,3.94,0,0,0,0-.47,4.43,4.43,0,0,0-.06-.51,3.81,3.81,0,0,0-.12-.51,1.53,1.53,0,0,0-.23-.44,1,1,0,0,0-.34-.31.9.9,0,0,0-.48-.12,1,1,0,0,0-.48.12,1.24,1.24,0,0,0-.34.31,1.51,1.51,0,0,0-.22.44,2.72,2.72,0,0,0-.13.51,4.43,4.43,0,0,0-.06.51C206.92,238.9,206.91,239.06,206.91,239.2Z"/><path d="M210.84,237.41a1.13,1.13,0,0,1,.09-.45,1.26,1.26,0,0,1,.24-.36,1.2,1.2,0,0,1,.82-.33,1,1,0,0,1,.44.09,1.12,1.12,0,0,1,.37.24,1.26,1.26,0,0,1,.24.36,1.16,1.16,0,0,1-.24,1.26,1.15,1.15,0,0,1-.37.25,1,1,0,0,1-.44.09,1.13,1.13,0,0,1-.45-.09,1.15,1.15,0,0,1-.37-.25,1.15,1.15,0,0,1-.33-.81Zm.43,0a.61.61,0,0,0,.06.25.68.68,0,0,0,.14.23.72.72,0,0,0,.22.17.73.73,0,0,0,.3.06.72.72,0,0,0,.29-.06.62.62,0,0,0,.22-.17.91.91,0,0,0,.15-.23.65.65,0,0,0,0-.5,1.14,1.14,0,0,0-.15-.23.76.76,0,0,0-.22-.17.72.72,0,0,0-.29-.06.73.73,0,0,0-.3.06.92.92,0,0,0-.22.17.79.79,0,0,0-.14.23A.61.61,0,0,0,211.27,237.41Z"/><path d="M93.6,238.76h.21l.44,0a1.1,1.1,0,0,0,.41-.13.86.86,0,0,0,.32-.31.94.94,0,0,0,.12-.51.87.87,0,0,0-.27-.68,1,1,0,0,0-.7-.26,1.21,1.21,0,0,0-.62.16,1.1,1.1,0,0,0-.42.48l-.65-.25a1.45,1.45,0,0,1,.66-.72,2,2,0,0,1,1-.24,2.32,2.32,0,0,1,.65.09,2,2,0,0,1,.54.28,1.67,1.67,0,0,1,.37.46,1.48,1.48,0,0,1,.13.65,1.29,1.29,0,0,1-.27.8,1.34,1.34,0,0,1-.7.49v0a1.31,1.31,0,0,1,.49.18,1.34,1.34,0,0,1,.36.31,1.37,1.37,0,0,1,.23.43,1.42,1.42,0,0,1,.08.5,1.66,1.66,0,0,1-.15.72,1.57,1.57,0,0,1-.41.51,1.75,1.75,0,0,1-.59.31,2.46,2.46,0,0,1-.72.1,2.18,2.18,0,0,1-1.13-.28,1.56,1.56,0,0,1-.69-.91l.68-.22a1.2,1.2,0,0,0,.41.65,1.27,1.27,0,0,0,.73.19,1.33,1.33,0,0,0,.45-.08,1.11,1.11,0,0,0,.36-.23,1.07,1.07,0,0,0,.25-.35,1.13,1.13,0,0,0,.09-.45,1.07,1.07,0,0,0-.12-.53.87.87,0,0,0-.33-.33,1.17,1.17,0,0,0-.46-.18,2.24,2.24,0,0,0-.52-.06H93.6Z"/><path d="M96.68,239.2a5.7,5.7,0,0,1,.08-1,3.1,3.1,0,0,1,.29-.95,2,2,0,0,1,.59-.71,1.6,1.6,0,0,1,1-.27,1.57,1.57,0,0,1,1,.27,1.94,1.94,0,0,1,.59.71,3.41,3.41,0,0,1,.3.95,6.85,6.85,0,0,1,.08,1,7.07,7.07,0,0,1-.08,1,3.45,3.45,0,0,1-.3.94,1.94,1.94,0,0,1-.59.71,1.57,1.57,0,0,1-1,.27,1.6,1.6,0,0,1-1-.27,2,2,0,0,1-.59-.71,3.13,3.13,0,0,1-.29-.94A5.85,5.85,0,0,1,96.68,239.2Zm.67,0c0,.13,0,.29,0,.46a4.88,4.88,0,0,0,.06.52,4.07,4.07,0,0,0,.13.5,1.41,1.41,0,0,0,.23.44,1,1,0,0,0,.34.31.9.9,0,0,0,.48.12,1,1,0,0,0,.48-.12,1.24,1.24,0,0,0,.34-.31,1.65,1.65,0,0,0,.22-.44,2.83,2.83,0,0,0,.13-.5,4.88,4.88,0,0,0,.06-.52c0-.17,0-.33,0-.46s0-.3,0-.47a4.43,4.43,0,0,0-.06-.51,2.72,2.72,0,0,0-.13-.51,1.81,1.81,0,0,0-.22-.44,1.24,1.24,0,0,0-.34-.31,1,1,0,0,0-.48-.12.9.9,0,0,0-.48.12,1,1,0,0,0-.34.31,1.53,1.53,0,0,0-.23.44,3.8,3.8,0,0,0-.13.51,4.43,4.43,0,0,0-.06.51C97.35,238.9,97.35,239.06,97.35,239.2Z"/><path d="M101.28,237.41a1.33,1.33,0,0,1,.08-.45,1.11,1.11,0,0,1,.25-.36,1,1,0,0,1,.36-.24,1.17,1.17,0,0,1,.9,0,1,1,0,0,1,.36.24,1.11,1.11,0,0,1,.25.36,1.31,1.31,0,0,1,0,.9,1.23,1.23,0,0,1-.61.61,1.17,1.17,0,0,1-.9,0,1.23,1.23,0,0,1-.61-.61A1.33,1.33,0,0,1,101.28,237.41Zm.43,0a.79.79,0,0,0,.05.25.68.68,0,0,0,.14.23.76.76,0,0,0,.23.17.73.73,0,0,0,.58,0,.66.66,0,0,0,.23-.17.68.68,0,0,0,.14-.23.71.71,0,0,0-.14-.73.81.81,0,0,0-.23-.17.73.73,0,0,0-.58,0,1,1,0,0,0-.23.17.75.75,0,0,0-.19.48Z"/><path d="M249.93,137.18h0a1.24,1.24,0,0,1-.37.12,1.84,1.84,0,0,1-.39,0,1.91,1.91,0,0,1-.68-.12,1.58,1.58,0,0,1-.54-.37,1.63,1.63,0,0,1-.36-.56,2.05,2.05,0,0,1-.13-.72,1.79,1.79,0,0,1,.15-.75,1.48,1.48,0,0,1,.4-.55,1.79,1.79,0,0,1,.6-.35,2,2,0,0,1,.75-.13,2.11,2.11,0,0,1,.75.13,1.79,1.79,0,0,1,.6.35,1.59,1.59,0,0,1,.4.55,1.79,1.79,0,0,1,.14.75,2.15,2.15,0,0,1,0,.45,1.68,1.68,0,0,1-.11.4,2.59,2.59,0,0,1-.17.38l-.21.36-1.51,2.39h-.78Zm-.59-.42a1.28,1.28,0,0,0,.48-.09,1,1,0,0,0,.39-.24,1.23,1.23,0,0,0,.26-.37,1.43,1.43,0,0,0,0-1,1.1,1.1,0,0,0-.65-.62,1.48,1.48,0,0,0-1,0,1.28,1.28,0,0,0-.39.24,1.12,1.12,0,0,0-.26.38,1.3,1.3,0,0,0,0,1,1.08,1.08,0,0,0,.26.37,1,1,0,0,0,.39.24A1.28,1.28,0,0,0,249.34,136.76Z"/><path d="M251.82,136.71a7.07,7.07,0,0,1,.08-1,3.19,3.19,0,0,1,.29-1,2,2,0,0,1,.59-.7,1.54,1.54,0,0,1,1-.28,1.49,1.49,0,0,1,.95.28,1.91,1.91,0,0,1,.59.7,2.94,2.94,0,0,1,.3,1,6.29,6.29,0,0,1,0,2,2.94,2.94,0,0,1-.3.95,1.91,1.91,0,0,1-.59.7,1.49,1.49,0,0,1-.95.28,1.54,1.54,0,0,1-1-.28,2,2,0,0,1-.59-.7,3.19,3.19,0,0,1-.29-.95A7.07,7.07,0,0,1,251.82,136.71Zm.67,0c0,.14,0,.29,0,.46a4.6,4.6,0,0,0,.06.52,4.7,4.7,0,0,0,.12.51,2,2,0,0,0,.23.44,1,1,0,0,0,.34.31,1,1,0,0,0,.48.11,1.06,1.06,0,0,0,.48-.11,1.24,1.24,0,0,0,.34-.31,1.65,1.65,0,0,0,.22-.44,3.18,3.18,0,0,0,.13-.51,4.6,4.6,0,0,0,.06-.52c0-.17,0-.32,0-.46s0-.29,0-.46a4.6,4.6,0,0,0-.06-.52,3.18,3.18,0,0,0-.13-.51,1.65,1.65,0,0,0-.22-.44,1.24,1.24,0,0,0-.34-.31,1.06,1.06,0,0,0-.48-.11,1,1,0,0,0-.48.11,1,1,0,0,0-.34.31,2,2,0,0,0-.23.44,4.7,4.7,0,0,0-.12.51,4.6,4.6,0,0,0-.06.52C252.5,136.42,252.49,136.57,252.49,136.71Z"/><path d="M256.42,134.93a1.13,1.13,0,0,1,.09-.45,1.31,1.31,0,0,1,.24-.37,1.18,1.18,0,0,1,.37-.24,1,1,0,0,1,.44-.09,1.13,1.13,0,0,1,.45.09,1.06,1.06,0,0,1,.61.61,1.13,1.13,0,0,1,.09.45,1,1,0,0,1-.09.44,1.06,1.06,0,0,1-.61.61,1.13,1.13,0,0,1-.45.09,1,1,0,0,1-.44-.09,1.18,1.18,0,0,1-.37-.24,1.31,1.31,0,0,1-.24-.37A1,1,0,0,1,256.42,134.93Zm.43,0a.69.69,0,0,0,0,.24,1,1,0,0,0,.15.24.73.73,0,0,0,.51.23.54.54,0,0,0,.29-.07.63.63,0,0,0,.23-.16.72.72,0,0,0,.14-.24.52.52,0,0,0,0-.24.56.56,0,0,0,0-.25.59.59,0,0,0-.14-.23.74.74,0,0,0-.52-.24.73.73,0,0,0-.29.07.62.62,0,0,0-.22.17.76.76,0,0,0-.15.23A.74.74,0,0,0,256.85,134.93Z"/><path d="M41.57,137.18h0a1.34,1.34,0,0,1-.37.12,2,2,0,0,1-.39,0,1.92,1.92,0,0,1-.69-.12,1.58,1.58,0,0,1-.54-.37,1.8,1.8,0,0,1-.36-.56,2.05,2.05,0,0,1-.13-.72,1.79,1.79,0,0,1,.15-.75,1.48,1.48,0,0,1,.4-.55,1.79,1.79,0,0,1,.6-.35,2.23,2.23,0,0,1,1.5,0,1.79,1.79,0,0,1,.6.35,1.48,1.48,0,0,1,.4.55,1.79,1.79,0,0,1,.15.75,3.14,3.14,0,0,1,0,.45,2.34,2.34,0,0,1-.12.4,1.84,1.84,0,0,1-.17.38,3.35,3.35,0,0,1-.21.36l-1.5,2.39h-.79Zm-.59-.42a1.28,1.28,0,0,0,.48-.09,1,1,0,0,0,.39-.24,1.23,1.23,0,0,0,.26-.37,1.3,1.3,0,0,0,0-1,1.1,1.1,0,0,0-.65-.62,1.48,1.48,0,0,0-1,0,1.1,1.1,0,0,0-.65.62,1.43,1.43,0,0,0,0,1,1.23,1.23,0,0,0,.26.37,1,1,0,0,0,.39.24A1.28,1.28,0,0,0,41,136.76Z"/><path d="M43.46,136.71a7.07,7.07,0,0,1,.08-1,2.94,2.94,0,0,1,.3-1,1.91,1.91,0,0,1,.59-.7,1.49,1.49,0,0,1,1-.28,1.54,1.54,0,0,1,1,.28,2,2,0,0,1,.59.7,3.19,3.19,0,0,1,.29,1,6.29,6.29,0,0,1,0,2,3.19,3.19,0,0,1-.29.95,2,2,0,0,1-.59.7,1.54,1.54,0,0,1-1,.28,1.49,1.49,0,0,1-1-.28,1.91,1.91,0,0,1-.59-.7,2.94,2.94,0,0,1-.3-.95A7.07,7.07,0,0,1,43.46,136.71Zm.67,0c0,.14,0,.29,0,.46a4.6,4.6,0,0,0,.06.52,3.18,3.18,0,0,0,.13.51,1.65,1.65,0,0,0,.22.44,1.12,1.12,0,0,0,.34.31,1.1,1.1,0,0,0,1,0,1.12,1.12,0,0,0,.34-.31,2,2,0,0,0,.23-.44,4.7,4.7,0,0,0,.12-.51,4.6,4.6,0,0,0,.06-.52c0-.17,0-.32,0-.46s0-.29,0-.46a4.6,4.6,0,0,0-.06-.52,4.7,4.7,0,0,0-.12-.51,2,2,0,0,0-.23-.44,1.12,1.12,0,0,0-.34-.31,1.1,1.1,0,0,0-1,0,1.12,1.12,0,0,0-.34.31,1.65,1.65,0,0,0-.22.44,3.18,3.18,0,0,0-.13.51,4.6,4.6,0,0,0-.06.52C44.14,136.42,44.13,136.57,44.13,136.71Z"/><path d="M48.06,134.93a1.13,1.13,0,0,1,.09-.45,1.06,1.06,0,0,1,.61-.61,1.13,1.13,0,0,1,.45-.09,1.08,1.08,0,0,1,.44.09,1.06,1.06,0,0,1,.61.61,1.13,1.13,0,0,1,.09.45,1,1,0,0,1-.09.44,1.06,1.06,0,0,1-.61.61,1.08,1.08,0,0,1-.44.09,1.13,1.13,0,0,1-.45-.09,1.06,1.06,0,0,1-.61-.61A1,1,0,0,1,48.06,134.93Zm.43,0a.53.53,0,0,0,.06.24.72.72,0,0,0,.14.24.69.69,0,0,0,.22.16.6.6,0,0,0,.3.07.73.73,0,0,0,.51-.23,1,1,0,0,0,.15-.24.69.69,0,0,0,.05-.24.74.74,0,0,0-.05-.25.76.76,0,0,0-.15-.23.62.62,0,0,0-.22-.17.73.73,0,0,0-.29-.07.73.73,0,0,0-.3.07.72.72,0,0,0-.22.17.59.59,0,0,0-.14.23A.57.57,0,0,0,48.49,134.93Z"/><path d="M148.37,38.51h-.68v-4.8h0l-1,.85-.4-.48,1.52-1.24h.59Z"/><path d="M150.49,34.23a1.48,1.48,0,0,1,.13-.61,1.2,1.2,0,0,1,.34-.46,1.44,1.44,0,0,1,.51-.3,1.92,1.92,0,0,1,1.28,0,1.44,1.44,0,0,1,.51.3,1.2,1.2,0,0,1,.34.46,1.33,1.33,0,0,1,.13.61,1.16,1.16,0,0,1-.07.4,1.41,1.41,0,0,1-.18.37,1.33,1.33,0,0,1-.29.29,1.18,1.18,0,0,1-.39.19h0a1.44,1.44,0,0,1,.46.19,1.35,1.35,0,0,1,.35.32,1.42,1.42,0,0,1,.23.44,1.7,1.7,0,0,1,.08.51,1.74,1.74,0,0,1-.14.69,1.43,1.43,0,0,1-.39.52,1.47,1.47,0,0,1-.57.33,2.35,2.35,0,0,1-1.42,0,1.47,1.47,0,0,1-.57-.33,1.55,1.55,0,0,1-.39-.52,1.74,1.74,0,0,1-.14-.69,1.7,1.7,0,0,1,.08-.51,1.67,1.67,0,0,1,.23-.44,1.35,1.35,0,0,1,.35-.32,1.44,1.44,0,0,1,.46-.19h0a1.18,1.18,0,0,1-.39-.19,1.33,1.33,0,0,1-.29-.29,1.41,1.41,0,0,1-.18-.37A1.46,1.46,0,0,1,150.49,34.23ZM151,36.9a1.18,1.18,0,0,0,.09.46,1.07,1.07,0,0,0,.25.35,1,1,0,0,0,.36.23,1.12,1.12,0,0,0,.88,0,1,1,0,0,0,.36-.23,1.07,1.07,0,0,0,.25-.35,1.18,1.18,0,0,0,.09-.46,1.14,1.14,0,0,0-.09-.46,1.13,1.13,0,0,0-.61-.58,1.12,1.12,0,0,0-.88,0,1.13,1.13,0,0,0-.61.58A1.14,1.14,0,0,0,151,36.9Zm.2-2.64a.88.88,0,0,0,.26.67,1,1,0,0,0,1.36,0,1,1,0,0,0,0-1.34,1,1,0,0,0-1.36,0A.88.88,0,0,0,151.17,34.26Z"/><path d="M154.64,35.68a7,7,0,0,1,.08-1,3.1,3.1,0,0,1,.29-1,2,2,0,0,1,.59-.71,1.6,1.6,0,0,1,1-.27,1.55,1.55,0,0,1,.95.27,1.94,1.94,0,0,1,.59.71,2.86,2.86,0,0,1,.3,1,7,7,0,0,1,.08,1,7.07,7.07,0,0,1-.08,1,2.88,2.88,0,0,1-.3.94,1.94,1.94,0,0,1-.59.71,1.55,1.55,0,0,1-.95.27,1.6,1.6,0,0,1-1-.27,2,2,0,0,1-.59-.71,3.13,3.13,0,0,1-.29-.94A7.07,7.07,0,0,1,154.64,35.68Zm.67,0c0,.13,0,.29,0,.46a4.88,4.88,0,0,0,.06.52,4.05,4.05,0,0,0,.12.5,1.66,1.66,0,0,0,.23.44,1.12,1.12,0,0,0,.34.31,1,1,0,0,0,1,0,1.12,1.12,0,0,0,.34-.31,1.4,1.4,0,0,0,.22-.44,2.83,2.83,0,0,0,.13-.5,4.88,4.88,0,0,0,.06-.52c0-.17,0-.33,0-.46s0-.3,0-.47a4.43,4.43,0,0,0-.06-.51,2.72,2.72,0,0,0-.13-.51,1.51,1.51,0,0,0-.22-.44,1.12,1.12,0,0,0-.34-.31,1,1,0,0,0-1,0,1.12,1.12,0,0,0-.34.31,1.83,1.83,0,0,0-.23.44,3.81,3.81,0,0,0-.12.51,4.43,4.43,0,0,0-.06.51C155.32,35.38,155.31,35.54,155.31,35.68Z"/><path d="M159.24,33.89a1.15,1.15,0,0,1,.33-.81,1,1,0,0,1,.37-.24,1,1,0,0,1,.44-.09,1.15,1.15,0,0,1,.82,2,1.15,1.15,0,0,1-.37.25,1.13,1.13,0,0,1-.45.09,1.15,1.15,0,0,1-.81-.34,1.15,1.15,0,0,1-.33-.81Zm.43,0a.79.79,0,0,0,.05.25,1.14,1.14,0,0,0,.15.23.62.62,0,0,0,.22.17.72.72,0,0,0,.29.06.68.68,0,0,0,.52-.23.79.79,0,0,0,.14-.23.65.65,0,0,0,0-.5.79.79,0,0,0-.14-.23.81.81,0,0,0-.23-.17.65.65,0,0,0-.29-.06.72.72,0,0,0-.29.06.76.76,0,0,0-.22.17,1.14,1.14,0,0,0-.15.23A.79.79,0,0,0,159.67,33.89Z"/><path d="M203.18,38.51h-.68v-4.8h0l-1,.85-.4-.48,1.52-1.24h.59Z"/><path d="M208.49,33.47h-2.31l0,1.53a1.08,1.08,0,0,1,.36-.11l.37,0a2,2,0,0,1,.74.14,1.61,1.61,0,0,1,.57.39,1.9,1.9,0,0,1,.37.59,2,2,0,0,1,.13.74,2,2,0,0,1-.15.78,1.74,1.74,0,0,1-.41.59,1.91,1.91,0,0,1-.61.38,2.2,2.2,0,0,1-.78.13,1.73,1.73,0,0,1-1-.28,2,2,0,0,1-.63-.75l.67-.25a1.31,1.31,0,0,0,.42.51,1.1,1.1,0,0,0,.64.2,1.28,1.28,0,0,0,.48-.09,1.26,1.26,0,0,0,.38-.27,1.15,1.15,0,0,0,.26-.41,1.53,1.53,0,0,0,.1-.54,1.38,1.38,0,0,0-.11-.55,1.08,1.08,0,0,0-.3-.4,1.26,1.26,0,0,0-.44-.25,1.67,1.67,0,0,0-.55-.08,1.84,1.84,0,0,0-.6.1,2.58,2.58,0,0,0-.56.25l.06-2.95h3Z"/><path d="M209.45,35.68a7,7,0,0,1,.08-1,3.1,3.1,0,0,1,.29-1,2,2,0,0,1,.59-.71,1.6,1.6,0,0,1,1-.27,1.55,1.55,0,0,1,.95.27,1.94,1.94,0,0,1,.59.71,2.86,2.86,0,0,1,.3,1,7,7,0,0,1,.08,1,7.07,7.07,0,0,1-.08,1,2.88,2.88,0,0,1-.3.94,1.94,1.94,0,0,1-.59.71,1.55,1.55,0,0,1-.95.27,1.6,1.6,0,0,1-1-.27,2,2,0,0,1-.59-.71,3.13,3.13,0,0,1-.29-.94A7.07,7.07,0,0,1,209.45,35.68Zm.67,0c0,.13,0,.29,0,.46a4.88,4.88,0,0,0,.06.52,4.05,4.05,0,0,0,.12.5,1.66,1.66,0,0,0,.23.44,1,1,0,0,0,.34.31.9.9,0,0,0,.48.12,1,1,0,0,0,.48-.12,1.24,1.24,0,0,0,.34-.31,1.4,1.4,0,0,0,.22-.44,2.83,2.83,0,0,0,.13-.5,4.88,4.88,0,0,0,.06-.52c0-.17,0-.33,0-.46s0-.3,0-.47a4.43,4.43,0,0,0-.06-.51,2.72,2.72,0,0,0-.13-.51,1.51,1.51,0,0,0-.22-.44,1.24,1.24,0,0,0-.34-.31,1,1,0,0,0-.48-.12.9.9,0,0,0-.48.12,1,1,0,0,0-.34.31,1.83,1.83,0,0,0-.23.44,3.81,3.81,0,0,0-.12.51,4.43,4.43,0,0,0-.06.51C210.13,35.38,210.12,35.54,210.12,35.68Z"/><path d="M214.05,33.89a1.15,1.15,0,0,1,.33-.81,1,1,0,0,1,.37-.24,1,1,0,0,1,.44-.09,1.13,1.13,0,0,1,.45.09,1,1,0,0,1,.36.24,1,1,0,0,1,.25.36,1.17,1.17,0,0,1,0,.9,1.23,1.23,0,0,1-.61.61,1.13,1.13,0,0,1-.45.09,1.15,1.15,0,0,1-.81-.34,1.15,1.15,0,0,1-.33-.81Zm.43,0a.79.79,0,0,0,.05.25,1.14,1.14,0,0,0,.15.23.62.62,0,0,0,.22.17.72.72,0,0,0,.29.06.68.68,0,0,0,.52-.23.79.79,0,0,0,.14-.23.65.65,0,0,0,0-.5.79.79,0,0,0-.14-.23.81.81,0,0,0-.23-.17.65.65,0,0,0-.29-.06.72.72,0,0,0-.29.06.76.76,0,0,0-.22.17,1.14,1.14,0,0,0-.15.23A.79.79,0,0,0,214.48,33.89Z"/><path d="M93.61,38.51h-.67v-4.8h0l-1,.85-.4-.48L93,32.84h.58Z"/><path d="M98.92,33.47H96.61l0,1.53a1,1,0,0,1,.35-.11l.37,0a1.91,1.91,0,0,1,.74.14,1.65,1.65,0,0,1,.58.39A1.71,1.71,0,0,1,99,36a2,2,0,0,1,.13.74,2,2,0,0,1-.15.78,1.71,1.71,0,0,1-.4.59,2,2,0,0,1-.62.38,2.15,2.15,0,0,1-.77.13,1.78,1.78,0,0,1-1.05-.28,1.85,1.85,0,0,1-.62-.75l.67-.25a1.16,1.16,0,0,0,.42.51,1.05,1.05,0,0,0,.63.2,1.28,1.28,0,0,0,.48-.09,1.23,1.23,0,0,0,.64-.68,1.33,1.33,0,0,0,.1-.54,1.38,1.38,0,0,0-.11-.55,1.18,1.18,0,0,0-.29-.4,1.41,1.41,0,0,0-.45-.25,1.63,1.63,0,0,0-.55-.08,1.78,1.78,0,0,0-.59.1,2.58,2.58,0,0,0-.56.25l0-2.95h3Z"/><path d="M99.88,35.68a7,7,0,0,1,.08-1,3.11,3.11,0,0,1,.3-1,1.94,1.94,0,0,1,.59-.71,1.55,1.55,0,0,1,1-.27,1.6,1.6,0,0,1,1,.27,2,2,0,0,1,.59.71,3.1,3.1,0,0,1,.29,1,5.77,5.77,0,0,1,.08,1,5.85,5.85,0,0,1-.08,1,3.13,3.13,0,0,1-.29.94,2,2,0,0,1-.59.71,1.6,1.6,0,0,1-1,.27,1.55,1.55,0,0,1-1-.27,1.94,1.94,0,0,1-.59-.71,3.14,3.14,0,0,1-.3-.94A7.07,7.07,0,0,1,99.88,35.68Zm.67,0c0,.13,0,.29,0,.46a4.88,4.88,0,0,0,.06.52,2.83,2.83,0,0,0,.13.5,1.4,1.4,0,0,0,.22.44,1.24,1.24,0,0,0,.34.31,1,1,0,0,0,.48.12.9.9,0,0,0,.48-.12,1,1,0,0,0,.34-.31,1.41,1.41,0,0,0,.23-.44,4.05,4.05,0,0,0,.12-.5,4.88,4.88,0,0,0,.06-.52c0-.17,0-.33,0-.46s0-.3,0-.47a4.43,4.43,0,0,0-.06-.51,3.81,3.81,0,0,0-.12-.51,1.53,1.53,0,0,0-.23-.44,1,1,0,0,0-.34-.31.9.9,0,0,0-.48-.12,1,1,0,0,0-.48.12,1.24,1.24,0,0,0-.34.31,1.51,1.51,0,0,0-.22.44,2.72,2.72,0,0,0-.13.51,4.43,4.43,0,0,0-.06.51C100.56,35.38,100.55,35.54,100.55,35.68Z"/><path d="M104.48,33.89a1.15,1.15,0,0,1,1.15-1.14,1,1,0,0,1,.44.09,1.12,1.12,0,0,1,.37.24,1.16,1.16,0,0,1,0,1.62,1.15,1.15,0,0,1-.37.25,1,1,0,0,1-.44.09,1.13,1.13,0,0,1-.45-.09,1.15,1.15,0,0,1-.37-.25,1.15,1.15,0,0,1-.33-.81Zm.43,0a.61.61,0,0,0,.06.25.79.79,0,0,0,.14.23.72.72,0,0,0,.22.17.73.73,0,0,0,.3.06.72.72,0,0,0,.29-.06.62.62,0,0,0,.22-.17,1.14,1.14,0,0,0,.15-.23.65.65,0,0,0,0-.5,1.14,1.14,0,0,0-.15-.23.76.76,0,0,0-.22-.17.72.72,0,0,0-.29-.06.73.73,0,0,0-.3.06.92.92,0,0,0-.22.17.79.79,0,0,0-.14.23A.61.61,0,0,0,104.91,33.89Z"/><path d="M248.75,192.45v0a1.35,1.35,0,0,1,.37-.13,2,2,0,0,1,.39,0,1.73,1.73,0,0,1,.69.13,1.42,1.42,0,0,1,.54.36,1.85,1.85,0,0,1,.36.57,2,2,0,0,1,.12.72,1.78,1.78,0,0,1-.14.74,1.74,1.74,0,0,1-.4.56,2,2,0,0,1-.6.35,2.36,2.36,0,0,1-.75.12,2.27,2.27,0,0,1-.75-.12,2,2,0,0,1-.6-.35,1.6,1.6,0,0,1-.4-.56,1.78,1.78,0,0,1-.15-.74,2.24,2.24,0,0,1,.15-.86,5.28,5.28,0,0,1,.39-.74l1.5-2.39h.79Zm.59.43a1.23,1.23,0,0,0-.87.32,1,1,0,0,0-.26.38,1.31,1.31,0,0,0-.1.5,1.35,1.35,0,0,0,.1.5,1.08,1.08,0,0,0,.26.37,1,1,0,0,0,.39.24,1.32,1.32,0,0,0,1,0,1,1,0,0,0,.39-.24,1.23,1.23,0,0,0,.26-.37,1.35,1.35,0,0,0,.09-.5,1.31,1.31,0,0,0-.09-.5,1.16,1.16,0,0,0-.26-.38,1.23,1.23,0,0,0-.87-.32Z"/><path d="M251.82,192.92a7.07,7.07,0,0,1,.08-1,3.13,3.13,0,0,1,.29-.94,2,2,0,0,1,.59-.71,1.6,1.6,0,0,1,1-.27,1.55,1.55,0,0,1,.95.27,1.94,1.94,0,0,1,.59.71,2.88,2.88,0,0,1,.3.94,7.07,7.07,0,0,1,.08,1,7,7,0,0,1-.08,1,2.86,2.86,0,0,1-.3,1,1.94,1.94,0,0,1-.59.71,1.55,1.55,0,0,1-.95.27,1.6,1.6,0,0,1-1-.27,2,2,0,0,1-.59-.71,3.1,3.1,0,0,1-.29-1A7,7,0,0,1,251.82,192.92Zm.67,0c0,.14,0,.3,0,.47a4.43,4.43,0,0,0,.06.51,3.81,3.81,0,0,0,.12.51,1.83,1.83,0,0,0,.23.44,1,1,0,0,0,.34.31.9.9,0,0,0,.48.12,1,1,0,0,0,.48-.12,1.24,1.24,0,0,0,.34-.31,1.51,1.51,0,0,0,.22-.44,2.72,2.72,0,0,0,.13-.51,4.43,4.43,0,0,0,.06-.51c0-.17,0-.33,0-.47s0-.29,0-.46a4.88,4.88,0,0,0-.06-.52,2.83,2.83,0,0,0-.13-.5,1.4,1.4,0,0,0-.22-.44,1.1,1.1,0,0,0-.34-.31,1,1,0,0,0-.48-.12.9.9,0,0,0-.48.12.92.92,0,0,0-.34.31,1.66,1.66,0,0,0-.23.44,4.05,4.05,0,0,0-.12.5,4.88,4.88,0,0,0-.06.52C252.5,192.63,252.49,192.79,252.49,192.92Z"/><path d="M256.42,191.14a1.15,1.15,0,0,1,.33-.81,1.05,1.05,0,0,1,.37-.25,1.23,1.23,0,0,1,.44-.08,1.33,1.33,0,0,1,.45.08,1.15,1.15,0,0,1,.37.25,1.16,1.16,0,0,1,0,1.62,1.15,1.15,0,0,1-.37.25,1.33,1.33,0,0,1-.45.08,1.23,1.23,0,0,1-.44-.08,1.05,1.05,0,0,1-.37-.25,1.15,1.15,0,0,1-.33-.81Zm.43,0a.79.79,0,0,0,0,.25,1.14,1.14,0,0,0,.15.23.62.62,0,0,0,.22.17.72.72,0,0,0,.29.06.68.68,0,0,0,.52-.23.79.79,0,0,0,.14-.23.65.65,0,0,0,0-.5.79.79,0,0,0-.14-.23.68.68,0,0,0-.52-.23.72.72,0,0,0-.29.06.62.62,0,0,0-.22.17,1.14,1.14,0,0,0-.15.23A.79.79,0,0,0,256.85,191.14Z"/><path d="M250,81.22h-.67v-4.8h0l-1,.86-.4-.49,1.52-1.23H250Z"/><path d="M251.92,80.45l2.13-2.08c.13-.12.25-.24.35-.35a2.16,2.16,0,0,0,.25-.32,1.09,1.09,0,0,0,.15-.33,1.38,1.38,0,0,0,0-.37,1,1,0,0,0-.08-.4.84.84,0,0,0-.22-.3.78.78,0,0,0-.33-.19,1.05,1.05,0,0,0-.4-.07,1,1,0,0,0-.71.25,1.08,1.08,0,0,0-.36.65l-.73-.06a1.83,1.83,0,0,1,.21-.61,1.41,1.41,0,0,1,.39-.45,2,2,0,0,1,.53-.27,2.25,2.25,0,0,1,.64-.09,2.41,2.41,0,0,1,.67.1,1.92,1.92,0,0,1,.55.29,1.44,1.44,0,0,1,.51,1.15,2,2,0,0,1-.09.61,2,2,0,0,1-.25.5,3.47,3.47,0,0,1-.35.43l-.41.4-1.75,1.64v0h2.89v.62h-3.64Z"/><path d="M256.27,78.39a5.85,5.85,0,0,1,.08-1,3.19,3.19,0,0,1,.29-1,2,2,0,0,1,.59-.7,1.54,1.54,0,0,1,1-.28,1.51,1.51,0,0,1,.95.28,1.91,1.91,0,0,1,.59.7,3.2,3.2,0,0,1,.3,1,6.29,6.29,0,0,1,0,2,3.2,3.2,0,0,1-.3,1,1.91,1.91,0,0,1-.59.7,1.51,1.51,0,0,1-.95.28,1.54,1.54,0,0,1-1-.28,2,2,0,0,1-.59-.7,3.19,3.19,0,0,1-.29-1A5.85,5.85,0,0,1,256.27,78.39Zm.67,0a3.78,3.78,0,0,0,0,.46c0,.17,0,.35.05.52a4.77,4.77,0,0,0,.13.51,1.67,1.67,0,0,0,.23.44,1,1,0,0,0,.34.31,1,1,0,0,0,.48.11,1.06,1.06,0,0,0,.48-.11,1.24,1.24,0,0,0,.34-.31,2,2,0,0,0,.22-.44,3.18,3.18,0,0,0,.13-.51,4.6,4.6,0,0,0,.06-.52c0-.17,0-.32,0-.46s0-.29,0-.46a4.35,4.35,0,0,0-.06-.52,3.18,3.18,0,0,0-.13-.51,2,2,0,0,0-.22-.44,1.24,1.24,0,0,0-.34-.31,1.06,1.06,0,0,0-.48-.11,1,1,0,0,0-.48.11,1,1,0,0,0-.34.31,1.67,1.67,0,0,0-.23.44,4.77,4.77,0,0,0-.13.51c0,.17,0,.34-.05.52A3.78,3.78,0,0,0,256.94,78.39Z"/><path d="M260.87,76.61a1.13,1.13,0,0,1,.09-.45,1,1,0,0,1,.24-.37,1.16,1.16,0,0,1,1.62,0,1.15,1.15,0,0,1,.25.37,1.13,1.13,0,0,1,.09.45,1,1,0,0,1-.09.44,1.15,1.15,0,0,1-.25.37,1.16,1.16,0,0,1-1.62,0,1,1,0,0,1-.24-.37A1,1,0,0,1,260.87,76.61Zm.43,0a.69.69,0,0,0,.05.24.75.75,0,0,0,.15.24.6.6,0,0,0,.22.16.64.64,0,0,0,.58,0,.63.63,0,0,0,.23-.16.72.72,0,0,0,.14-.24.52.52,0,0,0,.05-.24.56.56,0,0,0-.05-.25.59.59,0,0,0-.14-.23.66.66,0,0,0-.23-.17.64.64,0,0,0-.58,0,.62.62,0,0,0-.22.17.61.61,0,0,0-.15.23A.74.74,0,0,0,261.3,76.61Z"/><path d="M40.39,192.45v0a1.42,1.42,0,0,1,.38-.13,1.84,1.84,0,0,1,.39,0,1.72,1.72,0,0,1,.68.13,1.42,1.42,0,0,1,.54.36,1.85,1.85,0,0,1,.36.57,2,2,0,0,1,.13.72,1.78,1.78,0,0,1-.15.74,1.6,1.6,0,0,1-.4.56,2,2,0,0,1-.6.35,2.4,2.4,0,0,1-1.5,0,2,2,0,0,1-.6-.35,1.6,1.6,0,0,1-.4-.56,1.78,1.78,0,0,1-.15-.74,2.24,2.24,0,0,1,.16-.86,5.19,5.19,0,0,1,.38-.74l1.5-2.39h.79Zm.59.43a1.23,1.23,0,0,0-.87.32,1.16,1.16,0,0,0-.26.38,1.31,1.31,0,0,0-.09.5,1.35,1.35,0,0,0,.09.5,1.23,1.23,0,0,0,.26.37,1,1,0,0,0,.39.24,1.32,1.32,0,0,0,1,0,1,1,0,0,0,.39-.24,1.23,1.23,0,0,0,.26-.37,1.35,1.35,0,0,0,.1-.5,1.31,1.31,0,0,0-.1-.5,1.16,1.16,0,0,0-.26-.38,1.23,1.23,0,0,0-.87-.32Z"/><path d="M43.46,192.92a7.07,7.07,0,0,1,.08-1,2.88,2.88,0,0,1,.3-.94,1.94,1.94,0,0,1,.59-.71,1.55,1.55,0,0,1,1-.27,1.6,1.6,0,0,1,1,.27,2,2,0,0,1,.59.71,3.13,3.13,0,0,1,.29.94,7.07,7.07,0,0,1,.08,1,7,7,0,0,1-.08,1,3.1,3.1,0,0,1-.29,1,2,2,0,0,1-.59.71,1.6,1.6,0,0,1-1,.27,1.55,1.55,0,0,1-1-.27,1.94,1.94,0,0,1-.59-.71,2.86,2.86,0,0,1-.3-1A7,7,0,0,1,43.46,192.92Zm.67,0c0,.14,0,.3,0,.47a4.43,4.43,0,0,0,.06.51,2.72,2.72,0,0,0,.13.51,1.51,1.51,0,0,0,.22.44,1.12,1.12,0,0,0,.34.31,1,1,0,0,0,1,0,1.12,1.12,0,0,0,.34-.31,1.83,1.83,0,0,0,.23-.44,3.81,3.81,0,0,0,.12-.51,4.43,4.43,0,0,0,.06-.51c0-.17,0-.33,0-.47s0-.29,0-.46a4.88,4.88,0,0,0-.06-.52,4.05,4.05,0,0,0-.12-.5,1.66,1.66,0,0,0-.23-.44,1,1,0,0,0-.34-.31,1,1,0,0,0-1,0,1,1,0,0,0-.34.31,1.4,1.4,0,0,0-.22.44,2.83,2.83,0,0,0-.13.5,4.88,4.88,0,0,0-.06.52C44.14,192.63,44.13,192.79,44.13,192.92Z"/><path d="M48.06,191.14a1.15,1.15,0,0,1,.33-.81,1.15,1.15,0,0,1,.37-.25,1.33,1.33,0,0,1,.45-.08,1.27,1.27,0,0,1,.44.08,1.15,1.15,0,0,1,.37.25A1.16,1.16,0,0,1,50,192a1.15,1.15,0,0,1-.37.25,1.27,1.27,0,0,1-.44.08,1.33,1.33,0,0,1-.45-.08,1.15,1.15,0,0,1-.37-.25,1.15,1.15,0,0,1-.33-.81Zm.43,0a.61.61,0,0,0,.06.25.79.79,0,0,0,.14.23.72.72,0,0,0,.22.17.73.73,0,0,0,.3.06.72.72,0,0,0,.29-.06.62.62,0,0,0,.22-.17,1.14,1.14,0,0,0,.15-.23.65.65,0,0,0,0-.5,1.14,1.14,0,0,0-.15-.23.62.62,0,0,0-.22-.17.72.72,0,0,0-.29-.06.73.73,0,0,0-.3.06.72.72,0,0,0-.22.17.79.79,0,0,0-.14.23A.61.61,0,0,0,48.49,191.14Z"/><path d="M39.15,81.22h-.67v-4.8h0l-1,.86-.4-.49,1.52-1.23h.58Z"/><path d="M41.07,80.45l2.14-2.08c.13-.12.25-.24.35-.35a2.16,2.16,0,0,0,.25-.32,1.09,1.09,0,0,0,.15-.33A1.38,1.38,0,0,0,44,77a1,1,0,0,0-.08-.4.84.84,0,0,0-.22-.3.78.78,0,0,0-.33-.19A1.05,1.05,0,0,0,43,76a1,1,0,0,0-.72.25,1.19,1.19,0,0,0-.36.65l-.72-.06a1.47,1.47,0,0,1,.21-.61,1.41,1.41,0,0,1,.39-.45,2,2,0,0,1,.53-.27,2.2,2.2,0,0,1,.64-.09,2.41,2.41,0,0,1,.67.1,2.06,2.06,0,0,1,.55.29,1.47,1.47,0,0,1,.37.48,1.6,1.6,0,0,1,.14.67,2,2,0,0,1-.09.61,2.34,2.34,0,0,1-.25.5,3.47,3.47,0,0,1-.35.43l-.41.4-1.75,1.64v0h2.89v.62H41.07Z"/><path d="M45.43,78.39a7,7,0,0,1,.07-1,3.52,3.52,0,0,1,.3-1,2,2,0,0,1,.59-.7,1.77,1.77,0,0,1,1.91,0,1.91,1.91,0,0,1,.59.7,3.52,3.52,0,0,1,.3,1,6.29,6.29,0,0,1,0,2,3.52,3.52,0,0,1-.3,1,1.91,1.91,0,0,1-.59.7,1.77,1.77,0,0,1-1.91,0,2,2,0,0,1-.59-.7,3.52,3.52,0,0,1-.3-1A7,7,0,0,1,45.43,78.39Zm.67,0c0,.14,0,.29,0,.46a4.6,4.6,0,0,0,.06.52,4.77,4.77,0,0,0,.13.51,2,2,0,0,0,.22.44,1.15,1.15,0,0,0,.35.31,1,1,0,0,0,.48.11,1.06,1.06,0,0,0,.48-.11,1.24,1.24,0,0,0,.34-.31,2,2,0,0,0,.22-.44,3.18,3.18,0,0,0,.13-.51,4.6,4.6,0,0,0,.06-.52c0-.17,0-.32,0-.46s0-.29,0-.46a4.35,4.35,0,0,0-.06-.52,3.18,3.18,0,0,0-.13-.51,2,2,0,0,0-.22-.44,1.24,1.24,0,0,0-.34-.31,1.06,1.06,0,0,0-.48-.11,1,1,0,0,0-.48.11,1.15,1.15,0,0,0-.35.31,2,2,0,0,0-.22.44,4.77,4.77,0,0,0-.13.51,4.35,4.35,0,0,0-.06.52C46.1,78.1,46.1,78.25,46.1,78.39Z"/><path d="M50,76.61a1.12,1.12,0,0,1,.08-.45,1.15,1.15,0,0,1,.25-.37,1.16,1.16,0,0,1,1.62,0,1.15,1.15,0,0,1,.25.37,1.33,1.33,0,0,1,.08.45,1.23,1.23,0,0,1-.08.44,1.15,1.15,0,0,1-.25.37,1.16,1.16,0,0,1-1.62,0,1.15,1.15,0,0,1-.25-.37A1,1,0,0,1,50,76.61Zm.43,0a.52.52,0,0,0,0,.24.72.72,0,0,0,.14.24.63.63,0,0,0,.23.16.64.64,0,0,0,.58,0,.73.73,0,0,0,.23-.16,1,1,0,0,0,.14-.24.69.69,0,0,0,.05-.24.75.75,0,0,0-.19-.48.76.76,0,0,0-.23-.17.64.64,0,0,0-.58,0,.66.66,0,0,0-.23.17.59.59,0,0,0-.14.23A.56.56,0,0,0,50.46,76.61Z"/></g><g id="numeri_fondo_tabella" data-name="numeri fondo tabella"><path d="M131.83,251.42a1.17,1.17,0,0,0-.43-.35,1.19,1.19,0,0,0-.51-.11,1.35,1.35,0,0,0-.55.11,1.08,1.08,0,0,0-.4.3,1.32,1.32,0,0,0-.23.44,1.76,1.76,0,0,0,0,1.08,1.43,1.43,0,0,0,.26.45,1.31,1.31,0,0,0,.39.3,1.27,1.27,0,0,0,.52.1,1.09,1.09,0,0,0,1-.46l.47.44a1.69,1.69,0,0,1-.64.46,2.29,2.29,0,0,1-.78.14,2.22,2.22,0,0,1-.79-.14,1.75,1.75,0,0,1-1-1,2.27,2.27,0,0,1,0-1.57,1.86,1.86,0,0,1,.39-.63,2,2,0,0,1,.61-.41,2,2,0,0,1,.79-.15,2.09,2.09,0,0,1,.79.15,1.59,1.59,0,0,1,.65.45Z"/><path d="M136.21,253.56h0a1.43,1.43,0,0,1-.55.54,1.7,1.7,0,0,1-.89.22,1.8,1.8,0,0,1-.73-.15,1.78,1.78,0,0,1-.6-.41,1.81,1.81,0,0,1-.39-.62,2.06,2.06,0,0,1-.15-.79,2,2,0,0,1,.15-.78,1.88,1.88,0,0,1,.4-.63,1.81,1.81,0,0,1,.62-.41,2.07,2.07,0,0,1,.8-.15,1.72,1.72,0,0,1,.75.17,1.78,1.78,0,0,1,.59.47h0v-2.84h.62v6h-.62Zm0-1.21a1.63,1.63,0,0,0-.09-.55,1.34,1.34,0,0,0-.27-.44,1.37,1.37,0,0,0-.42-.29,1.35,1.35,0,0,0-.55-.11,1.42,1.42,0,0,0-.55.11,1.22,1.22,0,0,0-.41.29,1.34,1.34,0,0,0-.27.44,1.56,1.56,0,0,0,0,1.1,1.25,1.25,0,0,0,.27.44,1.19,1.19,0,0,0,1,.4,1.35,1.35,0,0,0,.55-.1,1.6,1.6,0,0,0,.42-.3,1.25,1.25,0,0,0,.27-.44A1.63,1.63,0,0,0,136.21,252.35Z"/><path d="M140.1,254.57l-.5-.2,2.4-6.15.51.2Z"/><path d="M147.64,254.22H147v-4.8h0l-1,.86-.4-.49,1.52-1.23h.59Z"/><path d="M149.46,251.39a7.07,7.07,0,0,1,.08-1,3.19,3.19,0,0,1,.29-.95,2,2,0,0,1,.59-.7,1.61,1.61,0,0,1,1-.28,1.55,1.55,0,0,1,1,.28,1.91,1.91,0,0,1,.59.7,2.94,2.94,0,0,1,.3.95,6.29,6.29,0,0,1,0,2,2.94,2.94,0,0,1-.3,1,1.91,1.91,0,0,1-.59.7,1.49,1.49,0,0,1-1,.28,1.54,1.54,0,0,1-1-.28,2,2,0,0,1-.59-.7,3.19,3.19,0,0,1-.29-1A7.07,7.07,0,0,1,149.46,251.39Zm.67,0c0,.14,0,.29,0,.47a4.43,4.43,0,0,0,.06.51,4.7,4.7,0,0,0,.12.51,2,2,0,0,0,.23.44,1.12,1.12,0,0,0,.34.31,1.1,1.1,0,0,0,1,0,1.12,1.12,0,0,0,.34-.31,1.65,1.65,0,0,0,.22-.44,3.18,3.18,0,0,0,.13-.51,4.43,4.43,0,0,0,.06-.51c0-.18,0-.33,0-.47s0-.29,0-.46a4.6,4.6,0,0,0-.06-.52,3.18,3.18,0,0,0-.13-.51,1.65,1.65,0,0,0-.22-.44,1.08,1.08,0,0,0-.34-.3,1,1,0,0,0-1,0,1.08,1.08,0,0,0-.34.3,2,2,0,0,0-.23.44,4.7,4.7,0,0,0-.12.51,4.6,4.6,0,0,0-.06.52C150.14,251.1,150.13,251.25,150.13,251.39Z"/><path d="M153.91,251.39a5.85,5.85,0,0,1,.08-1,3.19,3.19,0,0,1,.29-.95,2,2,0,0,1,.59-.7,1.61,1.61,0,0,1,1-.28,1.55,1.55,0,0,1,.95.28,1.91,1.91,0,0,1,.59.7,3.2,3.2,0,0,1,.3.95,6.29,6.29,0,0,1,0,2,3.2,3.2,0,0,1-.3,1,1.91,1.91,0,0,1-.59.7,1.49,1.49,0,0,1-.95.28,1.54,1.54,0,0,1-1-.28,2,2,0,0,1-.59-.7,3.19,3.19,0,0,1-.29-1A5.85,5.85,0,0,1,153.91,251.39Zm.67,0a4,4,0,0,0,0,.47,4.43,4.43,0,0,0,.06.51,3.14,3.14,0,0,0,.12.51,1.67,1.67,0,0,0,.23.44,1,1,0,0,0,.34.31.9.9,0,0,0,.48.11,1,1,0,0,0,.48-.11,1.24,1.24,0,0,0,.34-.31,1.65,1.65,0,0,0,.22-.44,3.18,3.18,0,0,0,.13-.51,4.43,4.43,0,0,0,.06-.51c0-.18,0-.33,0-.47s0-.29,0-.46a4.6,4.6,0,0,0-.06-.52,3.18,3.18,0,0,0-.13-.51,1.65,1.65,0,0,0-.22-.44,1.21,1.21,0,0,0-.34-.3,1,1,0,0,0-.48-.12.9.9,0,0,0-.48.12,1,1,0,0,0-.34.3,1.67,1.67,0,0,0-.23.44,3.14,3.14,0,0,0-.12.51,4.6,4.6,0,0,0-.06.52A3.78,3.78,0,0,0,154.58,251.39Z"/><path d="M158.31,251.39a5.85,5.85,0,0,1,.08-1,3.19,3.19,0,0,1,.29-.95,2,2,0,0,1,.59-.7,1.61,1.61,0,0,1,1-.28,1.55,1.55,0,0,1,1,.28,1.91,1.91,0,0,1,.59.7,3.2,3.2,0,0,1,.3.95,6.29,6.29,0,0,1,0,2,3.2,3.2,0,0,1-.3,1,1.91,1.91,0,0,1-.59.7,1.49,1.49,0,0,1-1,.28,1.54,1.54,0,0,1-1-.28,2,2,0,0,1-.59-.7,3.19,3.19,0,0,1-.29-1A5.85,5.85,0,0,1,158.31,251.39Zm.67,0c0,.14,0,.29,0,.47a4.43,4.43,0,0,0,.06.51,3.14,3.14,0,0,0,.12.51,1.67,1.67,0,0,0,.23.44,1,1,0,0,0,.34.31.9.9,0,0,0,.48.11,1,1,0,0,0,.48-.11,1.24,1.24,0,0,0,.34-.31,1.65,1.65,0,0,0,.22-.44,3.18,3.18,0,0,0,.13-.51,4.43,4.43,0,0,0,.06-.51c0-.18,0-.33,0-.47s0-.29,0-.46a4.6,4.6,0,0,0-.06-.52,3.18,3.18,0,0,0-.13-.51,1.65,1.65,0,0,0-.22-.44,1.21,1.21,0,0,0-.34-.3,1,1,0,0,0-.48-.12.9.9,0,0,0-.48.12,1,1,0,0,0-.34.3,1.67,1.67,0,0,0-.23.44,3.14,3.14,0,0,0-.12.51,4.6,4.6,0,0,0-.06.52C159,251.1,159,251.25,159,251.39Z"/><path d="M165.32,248.18H166v6h-.63Z"/><path d="M167.19,251.37c0-.17,0-.33,0-.48s0-.29,0-.41h.59c0,.1,0,.2,0,.3v.32h0a.91.91,0,0,1,.18-.27,1.64,1.64,0,0,1,.28-.23,1.5,1.5,0,0,1,.36-.16,1.44,1.44,0,0,1,.43-.06,1.52,1.52,0,0,1,.51.08,1.36,1.36,0,0,1,.34.18.93.93,0,0,1,.21.24,1.64,1.64,0,0,1,.12.22,1.78,1.78,0,0,1,.48-.53,1.27,1.27,0,0,1,.71-.19,1.88,1.88,0,0,1,.67.11,1.1,1.1,0,0,1,.44.31,1.37,1.37,0,0,1,.24.5,2.59,2.59,0,0,1,.07.65v2.27h-.62V252a2.33,2.33,0,0,0,0-.37,1,1,0,0,0-.15-.33.71.71,0,0,0-.28-.23,1,1,0,0,0-.45-.09,1,1,0,0,0-.37.08,1,1,0,0,0-.31.22,1.13,1.13,0,0,0-.21.35,1.33,1.33,0,0,0-.07.45v2.16h-.63V252.1a1.62,1.62,0,0,0-.17-.88A.6.6,0,0,0,169,251a1.18,1.18,0,0,0-.52.1.88.88,0,0,0-.36.3,1.14,1.14,0,0,0-.21.46,2.1,2.1,0,0,0-.07.58v1.82h-.62Z"/><line class="cls-1" x1="38.21" y1="253" x2="46.2" y2="253"/><path d="M235.17,251a1.66,1.66,0,0,0-.63-.52,1.93,1.93,0,0,0-.79-.17,2.13,2.13,0,0,0-.87.19,2.16,2.16,0,0,0-.68.52,2.58,2.58,0,0,0-.45.75,2.69,2.69,0,0,0-.16.89,2.79,2.79,0,0,0,.16.93,2.41,2.41,0,0,0,.45.74,2,2,0,0,0,.68.5,1.92,1.92,0,0,0,.87.19,2,2,0,0,0,1.64-.8l.51.43a2.38,2.38,0,0,1-.93.75,3,3,0,0,1-1.22.24,2.85,2.85,0,0,1-1.13-.22,2.82,2.82,0,0,1-.92-.62,3,3,0,0,1-.61-.94,3.33,3.33,0,0,1-.22-1.2,3.19,3.19,0,0,1,.21-1.16,2.9,2.9,0,0,1,.6-1,3.08,3.08,0,0,1,.91-.63,3,3,0,0,1,2.27,0,2,2,0,0,1,.89.68Z"/><path d="M239,253.1l0,0a1.35,1.35,0,0,1-.37.13,2.87,2.87,0,0,1-.39,0,1.68,1.68,0,0,1-.68-.13,1.5,1.5,0,0,1-.55-.36,1.92,1.92,0,0,1-.36-.56,2.11,2.11,0,0,1-.12-.73,1.75,1.75,0,0,1,.14-.74,1.63,1.63,0,0,1,.4-.56,1.79,1.79,0,0,1,.6-.35,2.36,2.36,0,0,1,.75-.12,2.27,2.27,0,0,1,.75.12,1.94,1.94,0,0,1,.61.35,1.49,1.49,0,0,1,.39.56,1.75,1.75,0,0,1,.15.74,2.19,2.19,0,0,1,0,.46c0,.14-.07.27-.11.4a2.53,2.53,0,0,1-.18.37,3.35,3.35,0,0,1-.21.36l-1.5,2.4h-.79Zm-.6-.43a1.51,1.51,0,0,0,.48-.08,1.28,1.28,0,0,0,.39-.24,1.12,1.12,0,0,0,.26-.38,1.27,1.27,0,0,0,.1-.5,1.26,1.26,0,0,0-.1-.49,1,1,0,0,0-.26-.38,1,1,0,0,0-.39-.24,1.33,1.33,0,0,0-1,0,.88.88,0,0,0-.38.24,1.19,1.19,0,0,0-.27.38,1.26,1.26,0,0,0-.09.49,1.28,1.28,0,0,0,.09.5,1.31,1.31,0,0,0,.27.38,1.12,1.12,0,0,0,.38.24A1.51,1.51,0,0,0,238.35,252.67Z"/><path d="M240.88,252.62a7.07,7.07,0,0,1,.08-1,2.88,2.88,0,0,1,.3-.94,2,2,0,0,1,.58-.71,1.84,1.84,0,0,1,1.92,0,2,2,0,0,1,.58.71,2.88,2.88,0,0,1,.3.94,7.07,7.07,0,0,1,.08,1,7,7,0,0,1-.08,1,2.86,2.86,0,0,1-.3.95,2,2,0,0,1-.58.71,1.84,1.84,0,0,1-1.92,0,2,2,0,0,1-.58-.71,2.86,2.86,0,0,1-.3-.95A7,7,0,0,1,240.88,252.62Zm.67,0c0,.14,0,.3,0,.47a4.43,4.43,0,0,0,.06.51,2.72,2.72,0,0,0,.13.51,1.51,1.51,0,0,0,.22.44,1.12,1.12,0,0,0,.34.31,1,1,0,0,0,1,0,1.12,1.12,0,0,0,.34-.31,1.51,1.51,0,0,0,.22-.44,2.72,2.72,0,0,0,.13-.51,4.43,4.43,0,0,0,.06-.51c0-.17,0-.33,0-.47s0-.29,0-.46a4.88,4.88,0,0,0-.06-.52,2.83,2.83,0,0,0-.13-.5,1.4,1.4,0,0,0-.22-.44,1.12,1.12,0,0,0-.34-.31,1,1,0,0,0-1,0,1.12,1.12,0,0,0-.34.31,1.4,1.4,0,0,0-.22.44,2.83,2.83,0,0,0-.13.5,4.88,4.88,0,0,0-.06.52C241.56,252.33,241.55,252.49,241.55,252.62Z"/><path d="M247.78,255.8l-.51-.2,2.41-6.14.5.19Z"/><path d="M257.1,251a1.66,1.66,0,0,0-.63-.52,1.92,1.92,0,0,0-.78-.17,2.06,2.06,0,0,0-.87.19,2.16,2.16,0,0,0-.68.52,2.21,2.21,0,0,0-.45.75,2.46,2.46,0,0,0-.16.89,2.56,2.56,0,0,0,.16.93,2.2,2.2,0,0,0,.44.74,2.1,2.1,0,0,0,.68.5,2,2,0,0,0,.88.19,2,2,0,0,0,.93-.21,2,2,0,0,0,.71-.59l.5.43a2.29,2.29,0,0,1-.92.75,3,3,0,0,1-1.22.24,2.8,2.8,0,0,1-2.05-.84,2.82,2.82,0,0,1-.61-.94,3.13,3.13,0,0,1-.22-1.2,3.19,3.19,0,0,1,.21-1.16,2.75,2.75,0,0,1,.6-1,3,3,0,0,1,.91-.63,2.93,2.93,0,0,1,1.16-.23,3,3,0,0,1,1.11.21,2,2,0,0,1,.89.68Z"/><path d="M258.46,254.69l2.14-2.08.35-.36a1.75,1.75,0,0,0,.25-.32,1,1,0,0,0,.15-.32,1.46,1.46,0,0,0,0-.38,1,1,0,0,0-.08-.4.93.93,0,0,0-.22-.3,1.13,1.13,0,0,0-.73-.26,1,1,0,0,0-.71.25,1.11,1.11,0,0,0-.36.66l-.73-.07a1.91,1.91,0,0,1,.21-.61,1.28,1.28,0,0,1,.39-.44,1.77,1.77,0,0,1,.53-.27,2.25,2.25,0,0,1,.64-.09,2.09,2.09,0,0,1,.67.1,1.53,1.53,0,0,1,.55.29,1.47,1.47,0,0,1,.37.48,1.39,1.39,0,0,1,.14.66,1.91,1.91,0,0,1-.09.61,1.8,1.8,0,0,1-.25.5,2.86,2.86,0,0,1-.35.43l-.41.41-1.75,1.64h2.89v.63h-3.65Z"/><path d="M266.35,250.42l-2.26,5h-.76l2.3-5H262.9v-.63h3.45Z"/><path d="M267.26,252.62a7.07,7.07,0,0,1,.08-1,3.45,3.45,0,0,1,.3-.94,2,2,0,0,1,.59-.71,1.82,1.82,0,0,1,1.91,0,2,2,0,0,1,.59.71,3.45,3.45,0,0,1,.3.94,7,7,0,0,1,.07,1,6.92,6.92,0,0,1-.07,1,3.41,3.41,0,0,1-.3.95,2,2,0,0,1-.59.71,1.82,1.82,0,0,1-1.91,0,2,2,0,0,1-.59-.71,3.41,3.41,0,0,1-.3-.95A7,7,0,0,1,267.26,252.62Zm.68,0c0,.14,0,.3,0,.47a4.43,4.43,0,0,0,.06.51,2.72,2.72,0,0,0,.13.51,1.53,1.53,0,0,0,.23.44,1,1,0,0,0,.34.31.89.89,0,0,0,.47.12,1,1,0,0,0,.49-.12,1.08,1.08,0,0,0,.33-.31,1.53,1.53,0,0,0,.23-.44,2.72,2.72,0,0,0,.13-.51,4.43,4.43,0,0,0,.06-.51c0-.17,0-.33,0-.47s0-.29,0-.46a4.88,4.88,0,0,0-.06-.52,2.83,2.83,0,0,0-.13-.5,1.41,1.41,0,0,0-.23-.44,1.08,1.08,0,0,0-.33-.31,1,1,0,0,0-.49-.12.89.89,0,0,0-.47.12,1,1,0,0,0-.34.31,1.41,1.41,0,0,0-.23.44,2.83,2.83,0,0,0-.13.5,4.88,4.88,0,0,0-.06.52C267.94,252.33,267.94,252.49,267.94,252.62Z"/><path d="M52.87,251a1.55,1.55,0,0,0-.63-.51,1.82,1.82,0,0,0-.79-.18,2,2,0,0,0-.87.2,2.13,2.13,0,0,0-.68.51,2.58,2.58,0,0,0-.45.75,2.67,2.67,0,0,0,0,1.82,2.29,2.29,0,0,0,.45.74,1.88,1.88,0,0,0,.68.5,1.92,1.92,0,0,0,.87.19,2,2,0,0,0,.93-.21,2.07,2.07,0,0,0,.71-.58l.51.42a2.38,2.38,0,0,1-.93.75,3,3,0,0,1-1.22.24,2.85,2.85,0,0,1-1.13-.22,2.82,2.82,0,0,1-.92-.62,3,3,0,0,1-.61-.94,3.27,3.27,0,0,1-.22-1.19,3.2,3.2,0,0,1,.21-1.17,3,3,0,0,1,.6-.95,3.08,3.08,0,0,1,.91-.63,3,3,0,0,1,2.27,0,2,2,0,0,1,.89.68Z"/><path d="M54.13,252.62a7,7,0,0,1,.08-1,3.11,3.11,0,0,1,.3-1,1.94,1.94,0,0,1,.59-.71,1.55,1.55,0,0,1,.95-.27,1.6,1.6,0,0,1,1,.27,2,2,0,0,1,.59.71,3.1,3.1,0,0,1,.29,1,5.77,5.77,0,0,1,.08,1,5.85,5.85,0,0,1-.08,1,3.13,3.13,0,0,1-.29.94,2,2,0,0,1-.59.71,1.6,1.6,0,0,1-1,.27,1.55,1.55,0,0,1-.95-.27,1.94,1.94,0,0,1-.59-.71,3.14,3.14,0,0,1-.3-.94A7.07,7.07,0,0,1,54.13,252.62Zm.67,0c0,.13,0,.29,0,.46a4.88,4.88,0,0,0,.06.52,2.83,2.83,0,0,0,.13.5,1.4,1.4,0,0,0,.22.44,1.1,1.1,0,0,0,.34.31,1,1,0,0,0,.48.12.9.9,0,0,0,.48-.12.92.92,0,0,0,.34-.31,1.41,1.41,0,0,0,.23-.44,2.8,2.8,0,0,0,.12-.5,4.88,4.88,0,0,0,.06-.52,3.86,3.86,0,0,0,0-.46,3.94,3.94,0,0,0,0-.47,4.43,4.43,0,0,0-.06-.51,2.71,2.71,0,0,0-.12-.51,1.53,1.53,0,0,0-.23-.44,1,1,0,0,0-.34-.31.9.9,0,0,0-.48-.12,1,1,0,0,0-.48.12,1.24,1.24,0,0,0-.34.31,1.51,1.51,0,0,0-.22.44,2.72,2.72,0,0,0-.13.51,4.43,4.43,0,0,0-.06.51C54.81,252.32,54.8,252.48,54.8,252.62Z"/><path d="M61,255.79l-.51-.2,2.41-6.14.51.19Z"/><path d="M70.36,251a1.52,1.52,0,0,0-.64-.51,1.78,1.78,0,0,0-.78-.18,2,2,0,0,0-.87.2,2.13,2.13,0,0,0-.68.51,2.58,2.58,0,0,0-.45.75,2.51,2.51,0,0,0-.16.9,2.54,2.54,0,0,0,.16.92,2.46,2.46,0,0,0,.44.74,2.09,2.09,0,0,0,1.56.69,2,2,0,0,0,.93-.21,2.07,2.07,0,0,0,.71-.58l.5.42a2.29,2.29,0,0,1-.92.75,3,3,0,0,1-1.22.24,2.93,2.93,0,0,1-1.14-.22,2.88,2.88,0,0,1-.91-.62,3,3,0,0,1-.61-.94,3.07,3.07,0,0,1-.22-1.19,3.2,3.2,0,0,1,.21-1.17,2.84,2.84,0,0,1,.6-.95,3,3,0,0,1,.91-.63,2.93,2.93,0,0,1,1.16-.23,3,3,0,0,1,1.11.21,2,2,0,0,1,.89.68Z"/><path d="M74.2,255.45h-.68v-4.8h0l-1,.85-.4-.48,1.52-1.24h.59Z"/><path d="M76.37,251.17a1.33,1.33,0,0,1,.13-.61,1.2,1.2,0,0,1,.34-.46,1.44,1.44,0,0,1,.51-.3,1.92,1.92,0,0,1,1.28,0,1.44,1.44,0,0,1,.51.3,1.32,1.32,0,0,1,.34.46,1.48,1.48,0,0,1,.12.61,1.44,1.44,0,0,1-.06.4,1.41,1.41,0,0,1-.18.37,1.18,1.18,0,0,1-.3.29,1,1,0,0,1-.38.19h0a1.44,1.44,0,0,1,.46.19,1.35,1.35,0,0,1,.35.32,1.67,1.67,0,0,1,.23.44,1.7,1.7,0,0,1,.08.51,1.74,1.74,0,0,1-.14.69,1.46,1.46,0,0,1-.39.52,1.47,1.47,0,0,1-.57.33,2.35,2.35,0,0,1-1.42,0,1.59,1.59,0,0,1-.58-.33,1.43,1.43,0,0,1-.38-.52,1.74,1.74,0,0,1-.14-.69,1.7,1.7,0,0,1,.08-.51,1.65,1.65,0,0,1,.22-.44,1.59,1.59,0,0,1,.36-.32,1.44,1.44,0,0,1,.46-.19h0a1.18,1.18,0,0,1-.39-.19,1.33,1.33,0,0,1-.29-.29,1.41,1.41,0,0,1-.18-.37A1.16,1.16,0,0,1,76.37,251.17Zm.48,2.67a1.14,1.14,0,0,0,.09.46,1.21,1.21,0,0,0,.24.35,1.16,1.16,0,0,0,.36.23A1.13,1.13,0,0,0,78,255a1,1,0,0,0,.44-.09,1,1,0,0,0,.36-.23,1.07,1.07,0,0,0,.25-.35,1.36,1.36,0,0,0,0-.92,1.07,1.07,0,0,0-.25-.35,1,1,0,0,0-.36-.23,1,1,0,0,0-.44-.09,1.13,1.13,0,0,0-.45.09,1.16,1.16,0,0,0-.36.23,1.21,1.21,0,0,0-.24.35A1.14,1.14,0,0,0,76.85,253.84ZM77,251.2a.92.92,0,0,0,.26.67.93.93,0,0,0,.69.27.9.9,0,0,0,.68-.27,1,1,0,0,0,0-1.34.9.9,0,0,0-.68-.27.93.93,0,0,0-.69.27A.92.92,0,0,0,77,251.2Z"/><path d="M80.52,252.62a5.77,5.77,0,0,1,.08-1,3.1,3.1,0,0,1,.29-1,2,2,0,0,1,.59-.71,1.6,1.6,0,0,1,1-.27,1.55,1.55,0,0,1,1,.27,1.94,1.94,0,0,1,.59.71,3.41,3.41,0,0,1,.3,1,7,7,0,0,1,.08,1,7.07,7.07,0,0,1-.08,1,3.45,3.45,0,0,1-.3.94,1.94,1.94,0,0,1-.59.71,1.55,1.55,0,0,1-1,.27,1.6,1.6,0,0,1-1-.27,2,2,0,0,1-.59-.71,3.13,3.13,0,0,1-.29-.94A5.85,5.85,0,0,1,80.52,252.62Zm.67,0a3.86,3.86,0,0,0,0,.46c0,.17,0,.34.05.52a4.07,4.07,0,0,0,.13.5,1.41,1.41,0,0,0,.23.44.92.92,0,0,0,.34.31.9.9,0,0,0,.48.12,1,1,0,0,0,.48-.12,1.1,1.1,0,0,0,.34-.31,1.65,1.65,0,0,0,.22-.44,2.83,2.83,0,0,0,.13-.5,4.88,4.88,0,0,0,.06-.52c0-.17,0-.33,0-.46s0-.3,0-.47a4.43,4.43,0,0,0-.06-.51,2.72,2.72,0,0,0-.13-.51,1.81,1.81,0,0,0-.22-.44,1.24,1.24,0,0,0-.34-.31,1,1,0,0,0-.48-.12.9.9,0,0,0-.48.12,1,1,0,0,0-.34.31,1.53,1.53,0,0,0-.23.44,3.8,3.8,0,0,0-.13.51c0,.17,0,.34-.05.51A3.94,3.94,0,0,0,81.19,252.62Z"/><line class="cls-2" x1="214.49" y1="253.42" x2="215.03" y2="253.42"/><line class="cls-2" x1="217.76" y1="253.42" x2="218.3" y2="253.42"/><line class="cls-2" x1="221.02" y1="253.42" x2="221.56" y2="253.42"/><line class="cls-2" x1="224.29" y1="253.42" x2="224.83" y2="253.42"/><line class="cls-2" x1="227.55" y1="253.42" x2="228.09" y2="253.42"/></g><g id="Tatou_T1_F7761009"><path d="M55.09,12.09h4.39v.78H55.94v2.34h3.29V16H55.94v3.18h-.85Z"/><path d="M64.57,12.87l-2.82,6.3h-1l2.88-6.3H60.25v-.78h4.32Z"/><path d="M70.13,12.87l-2.82,6.3h-1l2.88-6.3H65.81v-.78h4.32Z"/><path d="M72.94,15l0,0a1.77,1.77,0,0,1,.46-.16,3,3,0,0,1,.48-.05,2.39,2.39,0,0,1,.86.16,2,2,0,0,1,.68.46,2.11,2.11,0,0,1,.45.7,2.66,2.66,0,0,1,.15.9,2.45,2.45,0,0,1-.17.93,2,2,0,0,1-.5.7,2.48,2.48,0,0,1-.76.44,3,3,0,0,1-1.87,0A2.48,2.48,0,0,1,72,18.7a2,2,0,0,1-.5-.7,2.45,2.45,0,0,1-.17-.93A2.76,2.76,0,0,1,71.5,16a5.42,5.42,0,0,1,.48-.92l1.87-3h1Zm.73.53a1.63,1.63,0,0,0-.59.11,1.44,1.44,0,0,0-.49.3,1.4,1.4,0,0,0-.32.47,1.59,1.59,0,0,0-.12.62,1.57,1.57,0,0,0,.12.63,1.4,1.4,0,0,0,.32.47,1.44,1.44,0,0,0,.49.3,1.63,1.63,0,0,0,.59.1,1.64,1.64,0,0,0,.6-.1,1.44,1.44,0,0,0,.49-.3,1.4,1.4,0,0,0,.32-.47,1.42,1.42,0,0,0,.13-.63,1.44,1.44,0,0,0-.13-.62,1.4,1.4,0,0,0-.32-.47,1.44,1.44,0,0,0-.49-.3A1.64,1.64,0,0,0,73.67,15.57Z"/><path d="M80.06,19.17h-.85v-6h0l-1.27,1.07-.5-.61,1.9-1.54h.73Z"/><path d="M82.4,15.63a7.88,7.88,0,0,1,.1-1.25,3.71,3.71,0,0,1,.37-1.18,2.32,2.32,0,0,1,.73-.88,2.22,2.22,0,0,1,2.39,0,2.54,2.54,0,0,1,.74.88,4,4,0,0,1,.37,1.18,9.26,9.26,0,0,1,.1,1.25,9.14,9.14,0,0,1-.1,1.25,4,4,0,0,1-.37,1.19A2.64,2.64,0,0,1,86,19a2.27,2.27,0,0,1-2.39,0,2.4,2.4,0,0,1-.73-.88,3.77,3.77,0,0,1-.37-1.19A7.79,7.79,0,0,1,82.4,15.63Zm.84,0c0,.18,0,.37,0,.58a4.78,4.78,0,0,0,.07.65,4.47,4.47,0,0,0,.16.63,1.9,1.9,0,0,0,.28.55,1.45,1.45,0,0,0,.43.39,1.2,1.2,0,0,0,.59.14,1.28,1.28,0,0,0,.61-.14,1.55,1.55,0,0,0,.42-.39,1.9,1.9,0,0,0,.28-.55,4.47,4.47,0,0,0,.16-.63,4.78,4.78,0,0,0,.07-.65c0-.21,0-.4,0-.58s0-.36,0-.58a4.79,4.79,0,0,0-.23-1.28,2,2,0,0,0-.28-.55,1.37,1.37,0,0,0-.42-.38,1.17,1.17,0,0,0-.61-.15,1.1,1.1,0,0,0-.59.15,1.3,1.3,0,0,0-.43.38,2,2,0,0,0-.28.55,4.79,4.79,0,0,0-.23,1.28C83.24,15.27,83.24,15.46,83.24,15.63Z"/><path d="M88,15.63a7.88,7.88,0,0,1,.1-1.25,3.71,3.71,0,0,1,.37-1.18,2.32,2.32,0,0,1,.73-.88,2.22,2.22,0,0,1,2.39,0,2.54,2.54,0,0,1,.74.88,4,4,0,0,1,.37,1.18,9.26,9.26,0,0,1,.1,1.25,9.14,9.14,0,0,1-.1,1.25,4,4,0,0,1-.37,1.19,2.64,2.64,0,0,1-.74.88,2.27,2.27,0,0,1-2.39,0,2.4,2.4,0,0,1-.73-.88,3.77,3.77,0,0,1-.37-1.19A7.79,7.79,0,0,1,88,15.63Zm.84,0c0,.18,0,.37,0,.58a4.78,4.78,0,0,0,.07.65,4.47,4.47,0,0,0,.16.63,1.9,1.9,0,0,0,.28.55,1.45,1.45,0,0,0,.43.39,1.2,1.2,0,0,0,.59.14,1.28,1.28,0,0,0,.61-.14,1.55,1.55,0,0,0,.42-.39,1.9,1.9,0,0,0,.28-.55,4.47,4.47,0,0,0,.16-.63c0-.22.06-.43.08-.65s0-.4,0-.58,0-.36,0-.58,0-.43-.08-.64a4.61,4.61,0,0,0-.16-.64,2,2,0,0,0-.28-.55,1.37,1.37,0,0,0-.42-.38,1.17,1.17,0,0,0-.61-.15,1.1,1.1,0,0,0-.59.15,1.3,1.3,0,0,0-.43.38,2,2,0,0,0-.28.55,4.79,4.79,0,0,0-.23,1.28C88.8,15.27,88.8,15.46,88.8,15.63Z"/><path d="M96.66,16.22l0,0a1.37,1.37,0,0,1-.47.16,2.37,2.37,0,0,1-1.34-.11,2,2,0,0,1-.68-.45,2,2,0,0,1-.44-.7,2.38,2.38,0,0,1-.16-.91,2.34,2.34,0,0,1,.18-.93,1.92,1.92,0,0,1,.5-.69,2.16,2.16,0,0,1,.75-.44,2.81,2.81,0,0,1,1.87,0,2.3,2.3,0,0,1,.76.44,2,2,0,0,1,.5.69,2.34,2.34,0,0,1,.18.93,3.27,3.27,0,0,1-.05.57,3.65,3.65,0,0,1-.14.5,4,4,0,0,1-.22.47c-.08.15-.17.3-.26.45l-1.88,3h-1Zm-.74-.53a1.72,1.72,0,0,0,.6-.1,1.5,1.5,0,0,0,.48-.3,1.43,1.43,0,0,0,.33-.47,1.57,1.57,0,0,0,.12-.63,1.59,1.59,0,0,0-.12-.62A1.43,1.43,0,0,0,97,13.1a1.5,1.5,0,0,0-.48-.3,1.73,1.73,0,0,0-.6-.11,1.64,1.64,0,0,0-.6.11,1.44,1.44,0,0,0-.49.3,1.4,1.4,0,0,0-.32.47,1.59,1.59,0,0,0-.12.62,1.57,1.57,0,0,0,.12.63,1.4,1.4,0,0,0,.32.47,1.44,1.44,0,0,0,.49.3A1.64,1.64,0,0,0,95.92,15.69Z"/><path d="M98.7,19.92h5v.5h-5Z"/><path d="M108.5,12.87l-2.83,6.3h-1l2.88-6.3h-3.42v-.78h4.32Z"/><path d="M109.64,15.63a7.88,7.88,0,0,1,.1-1.25,3.71,3.71,0,0,1,.37-1.18,2.41,2.41,0,0,1,.73-.88,2.22,2.22,0,0,1,2.39,0,2.44,2.44,0,0,1,.74.88,4,4,0,0,1,.37,1.18,9.26,9.26,0,0,1,.1,1.25,9.14,9.14,0,0,1-.1,1.25,4,4,0,0,1-.37,1.19,2.53,2.53,0,0,1-.74.88,2.27,2.27,0,0,1-2.39,0,2.5,2.5,0,0,1-.73-.88,3.77,3.77,0,0,1-.37-1.19A7.79,7.79,0,0,1,109.64,15.63Zm.84,0c0,.18,0,.37,0,.58a4.78,4.78,0,0,0,.07.65,4.47,4.47,0,0,0,.16.63A1.9,1.9,0,0,0,111,18a1.45,1.45,0,0,0,.43.39,1.21,1.21,0,0,0,.6.14,1.27,1.27,0,0,0,.6-.14,1.55,1.55,0,0,0,.42-.39,1.9,1.9,0,0,0,.28-.55,4.47,4.47,0,0,0,.16-.63c0-.22.06-.43.08-.65s0-.4,0-.58,0-.36,0-.58,0-.43-.08-.64a4.61,4.61,0,0,0-.16-.64,2,2,0,0,0-.28-.55,1.37,1.37,0,0,0-.42-.38,1.16,1.16,0,0,0-.6-.15,1.11,1.11,0,0,0-.6.15,1.3,1.3,0,0,0-.43.38,2,2,0,0,0-.28.55,4.79,4.79,0,0,0-.23,1.28C110.48,15.27,110.48,15.46,110.48,15.63Z"/><path d="M114.88,12.09h.93L117.42,18h0l1.74-5.88h.94L121.85,18h0l1.64-5.88h.88l-2.08,7.08h-.91l-1.75-6h0l-1.76,6H117Z"/><path d="M128,12.09h.84v3h3.78v-3h.84v7.08h-.84v-3.3h-3.78v3.3H128Z"/><path d="M135.32,12.09h.85v6.3h3.23v.78h-4.08Z"/><rect class="cls-3" x="54.21" y="42.22" width="189.86" height="189.86"/><circle class="cls-4" cx="149.15" cy="137.1" r="18.95"/><path d="M151.2,165.33l2.13-2.08.35-.35a2.16,2.16,0,0,0,.25-.32,1.21,1.21,0,0,0,.15-.33,1.13,1.13,0,0,0,0-.38,1,1,0,0,0-.08-.39.84.84,0,0,0-.22-.3.91.91,0,0,0-.33-.2,1.29,1.29,0,0,0-.4-.06,1,1,0,0,0-.71.24,1.13,1.13,0,0,0-.36.66l-.73-.07a2,2,0,0,1,.21-.61,1.66,1.66,0,0,1,.39-.44,1.77,1.77,0,0,1,.53-.27,2.27,2.27,0,0,1,.65-.09,2.07,2.07,0,0,1,.66.1,1.7,1.7,0,0,1,.55.29,1.47,1.47,0,0,1,.37.48,1.39,1.39,0,0,1,.14.66,1.91,1.91,0,0,1-.09.61,1.67,1.67,0,0,1-.25.5,2.94,2.94,0,0,1-.35.44l-.41.4L152,165.46v0h2.88v.62H151.2Z"/><path d="M155.5,163.27a7,7,0,0,1,.08-1,2.86,2.86,0,0,1,.3-1,1.81,1.81,0,0,1,.58-.7,1.79,1.79,0,0,1,1.92,0,1.9,1.9,0,0,1,.58.7,2.86,2.86,0,0,1,.3,1,7,7,0,0,1,.08,1,7.07,7.07,0,0,1-.08,1,3,3,0,0,1-.3.95,2,2,0,0,1-.58.7,1.79,1.79,0,0,1-1.92,0,1.88,1.88,0,0,1-.58-.7,3,3,0,0,1-.3-.95A7.07,7.07,0,0,1,155.5,163.27Zm.67,0c0,.14,0,.29,0,.46a4.88,4.88,0,0,0,.06.52,2.83,2.83,0,0,0,.13.5,1.57,1.57,0,0,0,.22.45,1.08,1.08,0,0,0,.34.3,1,1,0,0,0,1,0,1.08,1.08,0,0,0,.34-.3,1.57,1.57,0,0,0,.22-.45,2.83,2.83,0,0,0,.13-.5,4.88,4.88,0,0,0,.06-.52c0-.17,0-.32,0-.46s0-.3,0-.47a4.43,4.43,0,0,0-.06-.51,2.72,2.72,0,0,0-.13-.51,1.51,1.51,0,0,0-.22-.44,1.12,1.12,0,0,0-.34-.31,1.1,1.1,0,0,0-1,0,1.12,1.12,0,0,0-.34.31,1.51,1.51,0,0,0-.22.44,2.72,2.72,0,0,0-.13.51,4.43,4.43,0,0,0-.06.51C156.18,163,156.17,163.13,156.17,163.27Z"/><circle class="cls-4" cx="149.15" cy="137.1" r="37.91"/><path d="M154.15,183.13H155v.63h-.81v1.29h-.68v-1.29h-2.39V183l2.24-3.62h.83Zm-.68-3h0l-1.81,3h1.82Z"/><path d="M155.5,182.22a7.07,7.07,0,0,1,.08-1,2.94,2.94,0,0,1,.3-.95,1.88,1.88,0,0,1,.58-.7,1.79,1.79,0,0,1,1.92,0,2,2,0,0,1,.58.7,2.94,2.94,0,0,1,.3.95,6.29,6.29,0,0,1,0,2,2.94,2.94,0,0,1-.3.95,1.9,1.9,0,0,1-.58.7,1.79,1.79,0,0,1-1.92,0,1.81,1.81,0,0,1-.58-.7,2.94,2.94,0,0,1-.3-.95A7.07,7.07,0,0,1,155.5,182.22Zm.67,0c0,.14,0,.29,0,.47a4.43,4.43,0,0,0,.06.51,3.18,3.18,0,0,0,.13.51,1.65,1.65,0,0,0,.22.44,1.12,1.12,0,0,0,.34.31,1.1,1.1,0,0,0,1,0,1.12,1.12,0,0,0,.34-.31,1.65,1.65,0,0,0,.22-.44,3.18,3.18,0,0,0,.13-.51,4.43,4.43,0,0,0,.06-.51c0-.18,0-.33,0-.47s0-.29,0-.46a4.88,4.88,0,0,0-.06-.52,3.18,3.18,0,0,0-.13-.51,1.65,1.65,0,0,0-.22-.44,1.08,1.08,0,0,0-.34-.3,1,1,0,0,0-1,0,1.08,1.08,0,0,0-.34.3,1.65,1.65,0,0,0-.22.44,3.18,3.18,0,0,0-.13.51,4.88,4.88,0,0,0-.06.52C156.18,181.93,156.17,182.08,156.17,182.22Z"/><circle class="cls-4" cx="149.15" cy="137.1" r="56.92"/><path d="M152.43,200.76h0a1.07,1.07,0,0,1,.37-.12,2,2,0,0,1,.39,0,1.92,1.92,0,0,1,.69.12,1.58,1.58,0,0,1,.54.37,1.69,1.69,0,0,1,.36.56,2.09,2.09,0,0,1,.13.72,1.72,1.72,0,0,1-.15.74,1.63,1.63,0,0,1-.4.56,1.79,1.79,0,0,1-.6.35,2.23,2.23,0,0,1-1.5,0,1.79,1.79,0,0,1-.6-.35,1.51,1.51,0,0,1-.4-.56,1.72,1.72,0,0,1-.15-.74,2,2,0,0,1,.16-.85,4,4,0,0,1,.38-.74l1.5-2.39H154Zm.59.42a1.28,1.28,0,0,0-.48.09,1.09,1.09,0,0,0-.39.23,1.33,1.33,0,0,0-.26.39,1.26,1.26,0,0,0-.1.49,1.31,1.31,0,0,0,.1.5,1.1,1.1,0,0,0,.65.62,1.48,1.48,0,0,0,1,0,1.1,1.1,0,0,0,.65-.62,1.31,1.31,0,0,0,.09-.5,1.26,1.26,0,0,0-.09-.49,1.33,1.33,0,0,0-.26-.39,1.09,1.09,0,0,0-.39-.23A1.28,1.28,0,0,0,153,201.18Z"/><path d="M155.5,201.23a7.07,7.07,0,0,1,.08-1,2.94,2.94,0,0,1,.3-.95,1.88,1.88,0,0,1,.58-.7,1.79,1.79,0,0,1,1.92,0,2,2,0,0,1,.58.7,2.94,2.94,0,0,1,.3.95,6.29,6.29,0,0,1,0,2,2.94,2.94,0,0,1-.3,1,2,2,0,0,1-.58.7,1.79,1.79,0,0,1-1.92,0,1.88,1.88,0,0,1-.58-.7,2.94,2.94,0,0,1-.3-1A7.07,7.07,0,0,1,155.5,201.23Zm.67,0c0,.14,0,.29,0,.46a4.6,4.6,0,0,0,.06.52,3.18,3.18,0,0,0,.13.51,1.65,1.65,0,0,0,.22.44,1,1,0,0,0,.34.3,1,1,0,0,0,1,0,1,1,0,0,0,.34-.3,1.65,1.65,0,0,0,.22-.44,3.18,3.18,0,0,0,.13-.51,4.6,4.6,0,0,0,.06-.52c0-.17,0-.32,0-.46s0-.29,0-.46a4.35,4.35,0,0,0-.06-.52,3.18,3.18,0,0,0-.13-.51,1.65,1.65,0,0,0-.22-.44,1.12,1.12,0,0,0-.34-.31,1.1,1.1,0,0,0-1,0,1.12,1.12,0,0,0-.34.31,1.65,1.65,0,0,0-.22.44,3.18,3.18,0,0,0-.13.51,4.35,4.35,0,0,0-.06.52C156.18,200.94,156.17,201.09,156.17,201.23Z"/><circle class="cls-4" cx="149.15" cy="137.1" r="75.92"/><path d="M151.4,218.79a1.36,1.36,0,0,1,.13-.61,1.28,1.28,0,0,1,.34-.46,1.44,1.44,0,0,1,.51-.3,1.92,1.92,0,0,1,1.28,0,1.44,1.44,0,0,1,.51.3,1.41,1.41,0,0,1,.34.46,1.51,1.51,0,0,1,.12.61,1.39,1.39,0,0,1-.06.4,1.27,1.27,0,0,1-.18.37,1.18,1.18,0,0,1-.3.29,1,1,0,0,1-.38.19h0a1.44,1.44,0,0,1,.46.19,1.23,1.23,0,0,1,.35.33,1.47,1.47,0,0,1,.23.43,1.7,1.7,0,0,1,.08.51,1.67,1.67,0,0,1-.14.69,1.56,1.56,0,0,1-1,.85,2.16,2.16,0,0,1-1.42,0,1.59,1.59,0,0,1-.57-.32,1.46,1.46,0,0,1-.39-.53,1.67,1.67,0,0,1-.14-.69,1.7,1.7,0,0,1,.08-.51,1.45,1.45,0,0,1,.22-.43,1.42,1.42,0,0,1,.36-.33,1.44,1.44,0,0,1,.46-.19h0a1.18,1.18,0,0,1-.39-.19,1.33,1.33,0,0,1-.29-.29,1.27,1.27,0,0,1-.18-.37A1.12,1.12,0,0,1,151.4,218.79Zm.48,2.67a1.14,1.14,0,0,0,.09.46,1,1,0,0,0,.61.58,1.12,1.12,0,0,0,.88,0,1.13,1.13,0,0,0,.61-.58,1.14,1.14,0,0,0,.09-.46,1.18,1.18,0,0,0-.09-.46,1.07,1.07,0,0,0-.25-.35,1,1,0,0,0-.36-.23,1.12,1.12,0,0,0-.88,0,1.1,1.1,0,0,0-.37.23,1.21,1.21,0,0,0-.24.35A1.18,1.18,0,0,0,151.88,221.46Zm.2-2.64a.91.91,0,0,0,.25.67.93.93,0,0,0,.69.27.9.9,0,0,0,.68-.27.88.88,0,0,0,.26-.67.89.89,0,0,0-.94-.93.88.88,0,0,0-.94.93Z"/><path d="M155.5,220.24a7,7,0,0,1,.08-1,2.94,2.94,0,0,1,.3-1,1.91,1.91,0,0,1,.58-.71,1.84,1.84,0,0,1,1.92,0,2,2,0,0,1,.58.71,2.94,2.94,0,0,1,.3,1,7,7,0,0,1,.08,1,7.07,7.07,0,0,1-.08,1,3,3,0,0,1-.3.95,2,2,0,0,1-.58.7,1.79,1.79,0,0,1-1.92,0,1.88,1.88,0,0,1-.58-.7,3,3,0,0,1-.3-.95A7.07,7.07,0,0,1,155.5,220.24Zm.67,0c0,.14,0,.29,0,.46a4.88,4.88,0,0,0,.06.52,3.18,3.18,0,0,0,.13.51,1.65,1.65,0,0,0,.22.44,1.08,1.08,0,0,0,.34.3,1,1,0,0,0,1,0,1.08,1.08,0,0,0,.34-.3,1.65,1.65,0,0,0,.22-.44,3.18,3.18,0,0,0,.13-.51,4.88,4.88,0,0,0,.06-.52c0-.17,0-.32,0-.46s0-.3,0-.47a4.43,4.43,0,0,0-.06-.51,2.93,2.93,0,0,0-.13-.51,1.51,1.51,0,0,0-.22-.44,1.12,1.12,0,0,0-.34-.31,1.1,1.1,0,0,0-1,0,1.12,1.12,0,0,0-.34.31,1.51,1.51,0,0,0-.22.44,2.93,2.93,0,0,0-.13.51,4.43,4.43,0,0,0-.06.51C156.18,219.94,156.17,220.1,156.17,220.24Z"/><circle class="cls-4" cx="149.15" cy="137.1" r="94.93"/><line class="cls-4" x1="54.21" y1="137.15" x2="244.13" y2="137.15"/><line class="cls-4" x1="149.15" y1="232.08" x2="149.15" y2="42.16"/><line class="cls-4" x1="94.39" y1="42.16" x2="203.96" y2="232.08"/><line class="cls-4" x1="94.39" y1="232.08" x2="203.96" y2="42.16"/><line class="cls-4" x1="54.21" y1="82.34" x2="244.13" y2="191.91"/><line class="cls-4" x1="54.21" y1="191.91" x2="244.13" y2="82.34"/><line class="cls-1" x1="149.15" y1="224.04" x2="150.66" y2="224.2"/><line class="cls-1" x1="150.66" y1="224.2" x2="152.22" y2="224.47"/><line class="cls-1" x1="152.22" y1="224.47" x2="153.74" y2="224.85"/><line class="cls-1" x1="153.74" y1="224.85" x2="155.3" y2="225.12"/><line class="cls-1" x1="155.3" y1="225.12" x2="156.87" y2="225.39"/><line class="cls-1" x1="156.87" y1="225.39" x2="158.43" y2="225.6"/><line class="cls-1" x1="158.43" y1="225.6" x2="160" y2="225.71"/><line class="cls-1" x1="160" y1="225.71" x2="161.62" y2="225.76"/><line class="cls-1" x1="161.62" y1="225.76" x2="163.19" y2="225.82"/><line class="cls-1" x1="163.19" y1="225.82" x2="164.81" y2="225.82"/><line class="cls-1" x1="164.81" y1="225.82" x2="166.37" y2="225.71"/><line class="cls-1" x1="166.37" y1="225.71" x2="167.94" y2="225.44"/><line class="cls-1" x1="167.94" y1="225.44" x2="169.5" y2="225.22"/><line class="cls-1" x1="169.5" y1="225.22" x2="171.07" y2="225.01"/><line class="cls-1" x1="171.07" y1="225.01" x2="172.58" y2="224.63"/><line class="cls-1" x1="172.58" y1="224.63" x2="174.09" y2="224.09"/><line class="cls-1" x1="174.09" y1="224.09" x2="175.5" y2="223.39"/><line class="cls-1" x1="175.5" y1="223.39" x2="176.9" y2="222.47"/><line class="cls-1" x1="176.9" y1="222.47" x2="178.14" y2="221.34"/><line class="cls-1" x1="178.14" y1="221.34" x2="179.33" y2="220.09"/><line class="cls-1" x1="179.33" y1="220.09" x2="180.47" y2="218.69"/><line class="cls-1" x1="180.47" y1="218.69" x2="181.49" y2="217.18"/><line class="cls-1" x1="181.49" y1="217.18" x2="182.41" y2="215.5"/><line class="cls-1" x1="182.41" y1="215.5" x2="183.27" y2="213.78"/><line class="cls-1" x1="183.27" y1="213.78" x2="184.08" y2="212.05"/><line class="cls-1" x1="184.08" y1="212.05" x2="184.84" y2="210.27"/><line class="cls-1" x1="184.84" y1="210.27" x2="185.49" y2="208.43"/><line class="cls-1" x1="185.49" y1="208.43" x2="186.08" y2="206.59"/><line class="cls-1" x1="186.08" y1="206.59" x2="186.62" y2="204.76"/><line class="cls-1" x1="186.62" y1="204.76" x2="187.11" y2="202.81"/><line class="cls-1" x1="187.11" y1="202.81" x2="187.54" y2="200.98"/><line class="cls-1" x1="187.54" y1="200.98" x2="187.86" y2="199.09"/><line class="cls-1" x1="187.86" y1="199.09" x2="188.19" y2="197.2"/><line class="cls-1" x1="188.19" y1="197.2" x2="188.46" y2="195.36"/><line class="cls-1" x1="188.46" y1="195.36" x2="188.67" y2="193.58"/><line class="cls-1" x1="188.67" y1="193.58" x2="188.89" y2="191.8"/><line class="cls-1" x1="188.89" y1="191.8" x2="189.05" y2="190.07"/><line class="cls-1" x1="189.05" y1="190.07" x2="189.16" y2="188.29"/><line class="cls-1" x1="189.16" y1="188.29" x2="189.21" y2="186.61"/><line class="cls-1" x1="189.21" y1="186.61" x2="189.27" y2="184.89"/><line class="cls-1" x1="189.27" y1="184.89" x2="189.27" y2="183.27"/><line class="cls-1" x1="189.27" y1="183.27" x2="189.27" y2="181.65"/><line class="cls-1" x1="189.27" y1="181.65" x2="189.21" y2="180.08"/><line class="cls-1" x1="189.21" y1="180.08" x2="189.16" y2="178.57"/><line class="cls-1" x1="189.16" y1="178.57" x2="189.11" y2="177.06"/><line class="cls-1" x1="189.11" y1="177.06" x2="188.94" y2="175.54"/><line class="cls-1" x1="188.94" y1="175.54" x2="188.84" y2="174.09"/><line class="cls-1" x1="188.84" y1="174.09" x2="188.62" y2="172.68"/><line class="cls-1" x1="188.62" y1="172.68" x2="188.46" y2="171.28"/><line class="cls-1" x1="188.46" y1="171.28" x2="188.24" y2="169.93"/><line class="cls-1" x1="188.24" y1="169.93" x2="188.03" y2="168.58"/><line class="cls-1" x1="188.03" y1="168.58" x2="187.76" y2="167.28"/><line class="cls-1" x1="187.76" y1="167.28" x2="187.49" y2="165.99"/><line class="cls-1" x1="187.49" y1="165.99" x2="187.16" y2="164.69"/><line class="cls-1" x1="187.16" y1="164.69" x2="186.84" y2="163.5"/><line class="cls-1" x1="186.84" y1="163.5" x2="186.51" y2="162.31"/><line class="cls-1" x1="186.51" y1="162.31" x2="186.19" y2="161.18"/><line class="cls-1" x1="186.19" y1="161.18" x2="185.81" y2="159.99"/><line class="cls-1" x1="185.81" y1="159.99" x2="185.43" y2="158.91"/><line class="cls-1" x1="185.43" y1="158.91" x2="185.06" y2="157.83"/><line class="cls-1" x1="185.06" y1="157.83" x2="184.68" y2="156.81"/><line class="cls-1" x1="184.68" y1="156.81" x2="184.25" y2="155.78"/><line class="cls-1" x1="184.25" y1="155.78" x2="183.87" y2="154.81"/><line class="cls-1" x1="183.87" y1="154.81" x2="183.44" y2="153.84"/><line class="cls-1" x1="183.44" y1="153.84" x2="183" y2="152.86"/><line class="cls-1" x1="183" y1="152.86" x2="182.57" y2="152"/><line class="cls-1" x1="182.57" y1="152" x2="182.14" y2="151.08"/><line class="cls-1" x1="182.14" y1="151.08" x2="181.76" y2="150.27"/><line class="cls-1" x1="181.76" y1="150.27" x2="181.33" y2="149.46"/><line class="cls-1" x1="181.33" y1="149.46" x2="180.9" y2="148.65"/><line class="cls-1" x1="180.9" y1="148.65" x2="180.47" y2="147.9"/><line class="cls-1" x1="180.47" y1="147.9" x2="180.03" y2="147.14"/><line class="cls-1" x1="180.03" y1="147.14" x2="179.6" y2="146.38"/><line class="cls-1" x1="179.6" y1="146.38" x2="179.17" y2="145.74"/><line class="cls-1" x1="179.17" y1="145.74" x2="178.74" y2="145.03"/><line class="cls-1" x1="178.74" y1="145.03" x2="178.31" y2="144.39"/><line class="cls-1" x1="178.31" y1="144.39" x2="177.87" y2="143.74"/><line class="cls-1" x1="177.87" y1="143.74" x2="177.33" y2="143.09"/><line class="cls-1" x1="177.33" y1="143.09" x2="176.9" y2="142.5"/><line class="cls-1" x1="176.9" y1="142.5" x2="176.47" y2="141.9"/><line class="cls-1" x1="176.47" y1="141.9" x2="175.98" y2="141.36"/><line class="cls-1" x1="175.98" y1="141.36" x2="175.5" y2="140.82"/><line class="cls-1" x1="175.5" y1="140.82" x2="175.12" y2="140.28"/><line class="cls-1" x1="175.12" y1="140.28" x2="174.53" y2="139.74"/><line class="cls-1" x1="174.53" y1="139.74" x2="173.99" y2="139.26"/><line class="cls-1" x1="173.99" y1="139.26" x2="173.72" y2="138.82"/><line class="cls-1" x1="173.72" y1="138.82" x2="173.18" y2="138.34"/><line class="cls-1" x1="173.18" y1="138.34" x2="172.64" y2="137.91"/><line class="cls-1" x1="172.64" y1="137.91" x2="172.42" y2="137.53"/><line class="cls-1" x1="172.42" y1="137.53" x2="172.15" y2="137.15"/><line class="cls-1" x1="172.15" y1="137.15" x2="172.15" y2="136.77"/><line class="cls-1" x1="172.15" y1="136.77" x2="172.37" y2="136.34"/><line class="cls-1" x1="172.37" y1="136.34" x2="172.42" y2="135.91"/><line class="cls-1" x1="172.42" y1="135.91" x2="172.74" y2="135.48"/><line class="cls-1" x1="172.74" y1="135.48" x2="173.07" y2="135.04"/><line class="cls-1" x1="173.07" y1="135.04" x2="173.23" y2="134.61"/><line class="cls-1" x1="173.23" y1="134.61" x2="173.39" y2="134.18"/><line class="cls-1" x1="173.39" y1="134.18" x2="173.61" y2="133.69"/><line class="cls-1" x1="173.61" y1="133.69" x2="173.77" y2="133.26"/><line class="cls-1" x1="173.77" y1="133.26" x2="173.99" y2="132.78"/><line class="cls-1" x1="173.99" y1="132.78" x2="174.2" y2="132.29"/><line class="cls-1" x1="174.2" y1="132.29" x2="174.47" y2="131.75"/><line class="cls-1" x1="174.47" y1="131.75" x2="174.69" y2="131.26"/><line class="cls-1" x1="174.69" y1="131.26" x2="174.96" y2="130.72"/><line class="cls-1" x1="174.96" y1="130.72" x2="175.23" y2="130.18"/><line class="cls-1" x1="175.23" y1="130.18" x2="175.55" y2="129.59"/><line class="cls-1" x1="175.55" y1="129.59" x2="175.82" y2="129"/><line class="cls-1" x1="175.82" y1="129" x2="176.09" y2="128.4"/><line class="cls-1" x1="176.09" y1="128.4" x2="176.31" y2="127.81"/><line class="cls-1" x1="176.31" y1="127.81" x2="176.52" y2="127.16"/><line class="cls-1" x1="176.52" y1="127.16" x2="176.9" y2="126.51"/><line class="cls-1" x1="176.9" y1="126.51" x2="177.33" y2="125.76"/><line class="cls-1" x1="177.33" y1="125.76" x2="177.71" y2="125"/><line class="cls-1" x1="177.71" y1="125" x2="177.98" y2="124.3"/><line class="cls-1" x1="177.98" y1="124.3" x2="178.04" y2="123.7"/><line class="cls-1" x1="178.04" y1="123.7" x2="178.04" y2="123.06"/><line class="cls-1" x1="178.04" y1="123.06" x2="178.04" y2="122.46"/><line class="cls-1" x1="178.04" y1="122.46" x2="177.98" y2="121.81"/><line class="cls-1" x1="177.98" y1="121.81" x2="177.93" y2="121.17"/><line class="cls-1" x1="177.93" y1="121.17" x2="177.87" y2="120.57"/><line class="cls-1" x1="177.87" y1="120.57" x2="177.82" y2="119.92"/><line class="cls-1" x1="177.82" y1="119.92" x2="177.77" y2="119.28"/><line class="cls-1" x1="177.77" y1="119.28" x2="177.66" y2="118.63"/><line class="cls-1" x1="177.66" y1="118.63" x2="177.55" y2="117.98"/><line class="cls-1" x1="177.55" y1="117.98" x2="177.44" y2="117.33"/><line class="cls-1" x1="177.44" y1="117.33" x2="177.33" y2="116.63"/><line class="cls-1" x1="177.33" y1="116.63" x2="177.23" y2="115.98"/><line class="cls-1" x1="177.23" y1="115.98" x2="177.06" y2="115.33"/><line class="cls-1" x1="177.06" y1="115.33" x2="176.96" y2="114.63"/><line class="cls-1" x1="176.96" y1="114.63" x2="176.85" y2="113.93"/><line class="cls-1" x1="176.85" y1="113.93" x2="176.79" y2="113.12"/><line class="cls-1" x1="176.79" y1="113.12" x2="176.85" y2="112.2"/><line class="cls-1" x1="176.85" y1="112.2" x2="177.06" y2="111.12"/><line class="cls-1" x1="177.06" y1="111.12" x2="177.28" y2="109.99"/><line class="cls-1" x1="177.28" y1="109.99" x2="177.55" y2="108.75"/><line class="cls-1" x1="177.55" y1="108.75" x2="177.71" y2="107.61"/><line class="cls-1" x1="177.71" y1="107.61" x2="177.66" y2="106.59"/><line class="cls-1" x1="177.66" y1="106.59" x2="177.39" y2="105.78"/><line class="cls-1" x1="177.39" y1="105.78" x2="176.96" y2="105.13"/><line class="cls-1" x1="176.96" y1="105.13" x2="176.36" y2="104.7"/><line class="cls-1" x1="176.36" y1="104.7" x2="175.77" y2="104.26"/><line class="cls-1" x1="175.77" y1="104.26" x2="175.23" y2="103.78"/><line class="cls-1" x1="175.23" y1="103.78" x2="174.8" y2="103.08"/><line class="cls-1" x1="174.8" y1="103.08" x2="174.63" y2="102.1"/><line class="cls-1" x1="174.63" y1="102.1" x2="174.8" y2="100.48"/><line class="cls-1" x1="174.8" y1="100.48" x2="175.55" y2="98"/><line class="cls-1" x1="175.55" y1="98" x2="176.96" y2="94.33"/><line class="cls-1" x1="176.96" y1="94.33" x2="178.52" y2="90.17"/><line class="cls-1" x1="178.52" y1="90.17" x2="179.93" y2="85.9"/><line class="cls-1" x1="179.93" y1="85.9" x2="180.84" y2="82.29"/><line class="cls-1" x1="180.84" y1="82.29" x2="181.22" y2="79.32"/><line class="cls-1" x1="181.22" y1="79.32" x2="180.84" y2="77.48"/><line class="cls-1" x1="180.84" y1="77.48" x2="179.93" y2="76.78"/><line class="cls-1" x1="179.93" y1="76.78" x2="178.47" y2="76.99"/><line class="cls-1" x1="178.47" y1="76.99" x2="177.06" y2="77.26"/><line class="cls-1" x1="177.06" y1="77.26" x2="175.77" y2="77.37"/><line class="cls-1" x1="175.77" y1="77.37" x2="174.58" y2="77.26"/><line class="cls-1" x1="174.58" y1="77.26" x2="173.34" y2="77.32"/><line class="cls-1" x1="173.34" y1="77.32" x2="171.99" y2="77.64"/><line class="cls-1" x1="171.99" y1="77.64" x2="170.58" y2="78.24"/><line class="cls-1" x1="170.58" y1="78.24" x2="169.13" y2="79.1"/><line class="cls-1" x1="169.13" y1="79.1" x2="167.72" y2="80.07"/><line class="cls-1" x1="167.72" y1="80.07" x2="166.32" y2="80.94"/><line class="cls-1" x1="166.32" y1="80.94" x2="165.08" y2="81.69"/><line class="cls-1" x1="165.08" y1="81.69" x2="163.83" y2="82.29"/><line class="cls-1" x1="163.83" y1="82.29" x2="162.65" y2="82.99"/><line class="cls-1" x1="162.65" y1="82.99" x2="161.46" y2="83.69"/><line class="cls-1" x1="161.46" y1="83.69" x2="160.32" y2="84.55"/><line class="cls-1" x1="160.32" y1="84.55" x2="159.24" y2="85.26"/><line class="cls-1" x1="159.24" y1="85.26" x2="158.16" y2="85.85"/><line class="cls-1" x1="158.16" y1="85.85" x2="157.19" y2="86.39"/><line class="cls-1" x1="157.19" y1="86.39" x2="156.27" y2="86.28"/><line class="cls-1" x1="156.27" y1="86.28" x2="155.46" y2="85.63"/><line class="cls-1" x1="155.46" y1="85.63" x2="154.65" y2="84.66"/><line class="cls-1" x1="154.65" y1="84.66" x2="153.84" y2="83.42"/><line class="cls-1" x1="153.84" y1="83.42" x2="152.93" y2="82.72"/><line class="cls-1" x1="152.93" y1="82.72" x2="152.01" y2="82.18"/><line class="cls-1" x1="152.01" y1="82.18" x2="151.09" y2="81.85"/><line class="cls-1" x1="151.09" y1="81.85" x2="150.12" y2="82.12"/><line class="cls-1" x1="150.12" y1="82.12" x2="149.15" y2="82.34"/><line class="cls-1" x1="149.15" y1="224.04" x2="147.69" y2="224.2"/><line class="cls-1" x1="147.69" y1="224.2" x2="146.12" y2="224.47"/><line class="cls-1" x1="146.12" y1="224.47" x2="144.61" y2="224.85"/><line class="cls-1" x1="144.61" y1="224.85" x2="143.04" y2="225.12"/><line class="cls-1" x1="143.04" y1="225.12" x2="141.48" y2="225.39"/><line class="cls-1" x1="141.48" y1="225.39" x2="139.91" y2="225.6"/><line class="cls-1" x1="139.91" y1="225.6" x2="138.35" y2="225.71"/><line class="cls-1" x1="138.35" y1="225.71" x2="136.73" y2="225.76"/><line class="cls-1" x1="136.73" y1="225.76" x2="135.16" y2="225.82"/><line class="cls-1" x1="135.16" y1="225.82" x2="133.54" y2="225.82"/><line class="cls-1" x1="133.54" y1="225.82" x2="131.97" y2="225.71"/><line class="cls-1" x1="131.97" y1="225.71" x2="130.41" y2="225.44"/><line class="cls-1" x1="130.41" y1="225.44" x2="128.84" y2="225.22"/><line class="cls-1" x1="128.84" y1="225.22" x2="127.28" y2="225.01"/><line class="cls-1" x1="127.28" y1="225.01" x2="125.76" y2="224.63"/><line class="cls-1" x1="125.76" y1="224.63" x2="124.25" y2="224.09"/><line class="cls-1" x1="124.25" y1="224.09" x2="122.85" y2="223.39"/><line class="cls-1" x1="122.85" y1="223.39" x2="121.44" y2="222.47"/><line class="cls-1" x1="121.44" y1="222.47" x2="120.2" y2="221.34"/><line class="cls-1" x1="120.2" y1="221.34" x2="119.01" y2="220.09"/><line class="cls-1" x1="119.01" y1="220.09" x2="117.88" y2="218.69"/><line class="cls-1" x1="117.88" y1="218.69" x2="116.85" y2="217.18"/><line class="cls-1" x1="116.85" y1="217.18" x2="115.94" y2="215.5"/><line class="cls-1" x1="115.94" y1="215.5" x2="115.07" y2="213.78"/><line class="cls-1" x1="115.07" y1="213.78" x2="114.26" y2="212.05"/><line class="cls-1" x1="114.26" y1="212.05" x2="113.51" y2="210.27"/><line class="cls-1" x1="113.51" y1="210.27" x2="112.86" y2="208.43"/><line class="cls-1" x1="112.86" y1="208.43" x2="112.26" y2="206.59"/><line class="cls-1" x1="112.26" y1="206.59" x2="111.72" y2="204.76"/><line class="cls-1" x1="111.72" y1="204.76" x2="111.24" y2="202.81"/><line class="cls-1" x1="111.24" y1="202.81" x2="110.81" y2="200.98"/><line class="cls-1" x1="110.81" y1="200.98" x2="110.48" y2="199.09"/><line class="cls-1" x1="110.48" y1="199.09" x2="110.16" y2="197.2"/><line class="cls-1" x1="110.16" y1="197.2" x2="109.89" y2="195.36"/><line class="cls-1" x1="109.89" y1="195.36" x2="109.67" y2="193.58"/><line class="cls-1" x1="109.67" y1="193.58" x2="109.46" y2="191.8"/><line class="cls-1" x1="109.46" y1="191.8" x2="109.29" y2="190.07"/><line class="cls-1" x1="109.29" y1="190.07" x2="109.19" y2="188.29"/><line class="cls-1" x1="109.19" y1="188.29" x2="109.13" y2="186.61"/><line class="cls-1" x1="109.13" y1="186.61" x2="109.08" y2="184.89"/><line class="cls-1" x1="109.08" y1="184.89" x2="109.08" y2="183.27"/><line class="cls-1" x1="109.08" y1="183.27" x2="109.08" y2="181.65"/><line class="cls-1" x1="109.08" y1="181.65" x2="109.13" y2="180.08"/><line class="cls-1" x1="109.13" y1="180.08" x2="109.19" y2="178.57"/><line class="cls-1" x1="109.19" y1="178.57" x2="109.24" y2="177.06"/><line class="cls-1" x1="109.24" y1="177.06" x2="109.4" y2="175.54"/><line class="cls-1" x1="109.4" y1="175.54" x2="109.51" y2="174.09"/><line class="cls-1" x1="109.51" y1="174.09" x2="109.73" y2="172.68"/><line class="cls-1" x1="109.73" y1="172.68" x2="109.89" y2="171.28"/><line class="cls-1" x1="109.89" y1="171.28" x2="110.1" y2="169.93"/><line class="cls-1" x1="110.1" y1="169.93" x2="110.32" y2="168.58"/><line class="cls-1" x1="110.32" y1="168.58" x2="110.59" y2="167.28"/><line class="cls-1" x1="110.59" y1="167.28" x2="110.86" y2="165.99"/><line class="cls-1" x1="110.86" y1="165.99" x2="111.18" y2="164.69"/><line class="cls-1" x1="111.18" y1="164.69" x2="111.51" y2="163.5"/><line class="cls-1" x1="111.51" y1="163.5" x2="111.83" y2="162.31"/><line class="cls-1" x1="111.83" y1="162.31" x2="112.16" y2="161.18"/><line class="cls-1" x1="112.16" y1="161.18" x2="112.53" y2="159.99"/><line class="cls-1" x1="112.53" y1="159.99" x2="112.91" y2="158.91"/><line class="cls-1" x1="112.91" y1="158.91" x2="113.29" y2="157.83"/><line class="cls-1" x1="113.29" y1="157.83" x2="113.67" y2="156.81"/><line class="cls-1" x1="113.67" y1="156.81" x2="114.1" y2="155.78"/><line class="cls-1" x1="114.1" y1="155.78" x2="114.48" y2="154.81"/><line class="cls-1" x1="114.48" y1="154.81" x2="114.91" y2="153.84"/><line class="cls-1" x1="114.91" y1="153.84" x2="115.34" y2="152.86"/><line class="cls-1" x1="115.34" y1="152.86" x2="115.77" y2="152"/><line class="cls-1" x1="115.77" y1="152" x2="116.21" y2="151.08"/><line class="cls-1" x1="116.21" y1="151.08" x2="116.58" y2="150.27"/><line class="cls-1" x1="116.58" y1="150.27" x2="117.02" y2="149.46"/><line class="cls-1" x1="117.02" y1="149.46" x2="117.45" y2="148.65"/><line class="cls-1" x1="117.45" y1="148.65" x2="117.88" y2="147.9"/><line class="cls-1" x1="117.88" y1="147.9" x2="118.31" y2="147.14"/><line class="cls-1" x1="118.31" y1="147.14" x2="118.74" y2="146.38"/><line class="cls-1" x1="118.74" y1="146.38" x2="119.18" y2="145.74"/><line class="cls-1" x1="119.18" y1="145.74" x2="119.61" y2="145.03"/><line class="cls-1" x1="119.61" y1="145.03" x2="120.04" y2="144.39"/><line class="cls-1" x1="120.04" y1="144.39" x2="120.47" y2="143.74"/><line class="cls-1" x1="120.47" y1="143.74" x2="121.01" y2="143.09"/><line class="cls-1" x1="121.01" y1="143.09" x2="121.44" y2="142.5"/><line class="cls-1" x1="121.44" y1="142.5" x2="121.88" y2="141.9"/><line class="cls-1" x1="121.88" y1="141.9" x2="122.36" y2="141.36"/><line class="cls-1" x1="122.36" y1="141.36" x2="122.85" y2="140.82"/><line class="cls-1" x1="122.85" y1="140.82" x2="123.23" y2="140.28"/><line class="cls-1" x1="123.23" y1="140.28" x2="123.82" y2="139.74"/><line class="cls-1" x1="123.82" y1="139.74" x2="124.36" y2="139.26"/><line class="cls-1" x1="124.36" y1="139.26" x2="124.63" y2="138.82"/><line class="cls-1" x1="124.63" y1="138.82" x2="125.17" y2="138.34"/><line class="cls-1" x1="125.17" y1="138.34" x2="125.71" y2="137.91"/><line class="cls-1" x1="125.71" y1="137.91" x2="125.93" y2="137.53"/><line class="cls-1" x1="125.93" y1="137.53" x2="126.2" y2="137.15"/><line class="cls-1" x1="126.2" y1="137.15" x2="126.2" y2="136.77"/><line class="cls-1" x1="126.2" y1="136.77" x2="125.98" y2="136.34"/><line class="cls-1" x1="125.98" y1="136.34" x2="125.93" y2="135.91"/><line class="cls-1" x1="125.93" y1="135.91" x2="125.6" y2="135.48"/><line class="cls-1" x1="125.6" y1="135.48" x2="125.28" y2="135.04"/><line class="cls-1" x1="125.28" y1="135.04" x2="125.12" y2="134.61"/><line class="cls-1" x1="125.12" y1="134.61" x2="124.95" y2="134.18"/><line class="cls-1" x1="124.95" y1="134.18" x2="124.74" y2="133.69"/><line class="cls-1" x1="124.74" y1="133.69" x2="124.58" y2="133.26"/><line class="cls-1" x1="124.58" y1="133.26" x2="124.36" y2="132.78"/><line class="cls-1" x1="124.36" y1="132.78" x2="124.14" y2="132.29"/><line class="cls-1" x1="124.14" y1="132.29" x2="123.87" y2="131.75"/><line class="cls-1" x1="123.87" y1="131.75" x2="123.66" y2="131.26"/><line class="cls-1" x1="123.66" y1="131.26" x2="123.39" y2="130.72"/><line class="cls-1" x1="123.39" y1="130.72" x2="123.12" y2="130.18"/><line class="cls-1" x1="123.12" y1="130.18" x2="122.79" y2="129.59"/><line class="cls-1" x1="122.79" y1="129.59" x2="122.52" y2="129"/><line class="cls-1" x1="122.52" y1="129" x2="122.25" y2="128.4"/><line class="cls-1" x1="122.25" y1="128.4" x2="122.04" y2="127.81"/><line class="cls-1" x1="122.04" y1="127.81" x2="121.82" y2="127.16"/><line class="cls-1" x1="121.82" y1="127.16" x2="121.44" y2="126.51"/><line class="cls-1" x1="121.44" y1="126.51" x2="121.01" y2="125.76"/><line class="cls-1" x1="121.01" y1="125.76" x2="120.63" y2="125"/><line class="cls-1" x1="120.63" y1="125" x2="120.36" y2="124.3"/><line class="cls-1" x1="120.36" y1="124.3" x2="120.31" y2="123.7"/><line class="cls-1" x1="120.31" y1="123.7" x2="120.31" y2="123.06"/><line class="cls-1" x1="120.31" y1="123.06" x2="120.31" y2="122.46"/><line class="cls-1" x1="120.31" y1="122.46" x2="120.36" y2="121.81"/><line class="cls-1" x1="120.36" y1="121.81" x2="120.42" y2="121.17"/><line class="cls-1" x1="120.42" y1="121.17" x2="120.47" y2="120.57"/><line class="cls-1" x1="120.47" y1="120.57" x2="120.53" y2="119.92"/><line class="cls-1" x1="120.53" y1="119.92" x2="120.58" y2="119.28"/><line class="cls-1" x1="120.58" y1="119.28" x2="120.69" y2="118.63"/><line class="cls-1" x1="120.69" y1="118.63" x2="120.8" y2="117.98"/><line class="cls-1" x1="120.8" y1="117.98" x2="120.9" y2="117.33"/><line class="cls-1" x1="120.9" y1="117.33" x2="121.01" y2="116.63"/><line class="cls-1" x1="121.01" y1="116.63" x2="121.12" y2="115.98"/><line class="cls-1" x1="121.12" y1="115.98" x2="121.28" y2="115.33"/><line class="cls-1" x1="121.28" y1="115.33" x2="121.39" y2="114.63"/><line class="cls-1" x1="121.39" y1="114.63" x2="121.5" y2="113.93"/><line class="cls-1" x1="121.5" y1="113.93" x2="121.55" y2="113.12"/><line class="cls-1" x1="121.55" y1="113.12" x2="121.5" y2="112.2"/><line class="cls-1" x1="121.5" y1="112.2" x2="121.28" y2="111.12"/><line class="cls-1" x1="121.28" y1="111.12" x2="121.07" y2="109.99"/><line class="cls-1" x1="121.07" y1="109.99" x2="120.8" y2="108.75"/><line class="cls-1" x1="120.8" y1="108.75" x2="120.63" y2="107.61"/><line class="cls-1" x1="120.63" y1="107.61" x2="120.69" y2="106.59"/><line class="cls-1" x1="120.69" y1="106.59" x2="120.96" y2="105.78"/><line class="cls-1" x1="120.96" y1="105.78" x2="121.39" y2="105.13"/><line class="cls-1" x1="121.39" y1="105.13" x2="121.98" y2="104.7"/><line class="cls-1" x1="121.98" y1="104.7" x2="122.58" y2="104.26"/><line class="cls-1" x1="122.58" y1="104.26" x2="123.12" y2="103.78"/><line class="cls-1" x1="123.12" y1="103.78" x2="123.55" y2="103.08"/><line class="cls-1" x1="123.55" y1="103.08" x2="123.71" y2="102.1"/><line class="cls-1" x1="123.71" y1="102.1" x2="123.55" y2="100.48"/><line class="cls-1" x1="123.55" y1="100.48" x2="122.79" y2="98"/><line class="cls-1" x1="122.79" y1="98" x2="121.39" y2="94.33"/><line class="cls-1" x1="121.39" y1="94.33" x2="119.82" y2="90.17"/><line class="cls-1" x1="119.82" y1="90.17" x2="118.42" y2="85.9"/><line class="cls-1" x1="118.42" y1="85.9" x2="117.5" y2="82.29"/><line class="cls-1" x1="117.5" y1="82.29" x2="117.12" y2="79.32"/><line class="cls-1" x1="117.12" y1="79.32" x2="117.5" y2="77.48"/><line class="cls-1" x1="117.5" y1="77.48" x2="118.42" y2="76.78"/><line class="cls-1" x1="118.42" y1="76.78" x2="119.88" y2="76.99"/><line class="cls-1" x1="119.88" y1="76.99" x2="121.28" y2="77.26"/><line class="cls-1" x1="121.28" y1="77.26" x2="122.58" y2="77.37"/><line class="cls-1" x1="122.58" y1="77.37" x2="123.77" y2="77.26"/><line class="cls-1" x1="123.77" y1="77.26" x2="125.01" y2="77.32"/><line class="cls-1" x1="125.01" y1="77.32" x2="126.36" y2="77.64"/><line class="cls-1" x1="126.36" y1="77.64" x2="127.76" y2="78.24"/><line class="cls-1" x1="127.76" y1="78.24" x2="129.22" y2="79.1"/><line class="cls-1" x1="129.22" y1="79.1" x2="130.62" y2="80.07"/><line class="cls-1" x1="130.62" y1="80.07" x2="132.03" y2="80.94"/><line class="cls-1" x1="132.03" y1="80.94" x2="133.27" y2="81.69"/><line class="cls-1" x1="133.27" y1="81.69" x2="134.51" y2="82.29"/><line class="cls-1" x1="134.51" y1="82.29" x2="135.7" y2="82.99"/><line class="cls-1" x1="135.7" y1="82.99" x2="136.89" y2="83.69"/><line class="cls-1" x1="136.89" y1="83.69" x2="138.02" y2="84.55"/><line class="cls-1" x1="138.02" y1="84.55" x2="139.1" y2="85.26"/><line class="cls-1" x1="139.1" y1="85.26" x2="140.18" y2="85.85"/><line class="cls-1" x1="140.18" y1="85.85" x2="141.15" y2="86.39"/><line class="cls-1" x1="141.15" y1="86.39" x2="142.07" y2="86.28"/><line class="cls-1" x1="142.07" y1="86.28" x2="142.88" y2="85.63"/><line class="cls-1" x1="142.88" y1="85.63" x2="143.69" y2="84.66"/><line class="cls-1" x1="143.69" y1="84.66" x2="144.5" y2="83.42"/><line class="cls-1" x1="144.5" y1="83.42" x2="145.42" y2="82.72"/><line class="cls-1" x1="145.42" y1="82.72" x2="146.34" y2="82.18"/><line class="cls-1" x1="146.34" y1="82.18" x2="147.26" y2="81.85"/><line class="cls-1" x1="147.26" y1="81.85" x2="148.23" y2="82.12"/><line class="cls-1" x1="148.23" y1="82.12" x2="149.15" y2="82.34"/><line class="cls-1" x1="149.15" y1="224.04" x2="149.42" y2="224.09"/><line class="cls-1" x1="150.71" y1="224.2" x2="150.93" y2="224.25"/><line class="cls-1" x1="152.17" y1="224.47" x2="152.22" y2="224.47"/><line class="cls-1" x1="152.22" y1="224.47" x2="152.39" y2="224.52"/><line class="cls-1" x1="153.63" y1="224.85" x2="153.74" y2="224.85"/><line class="cls-1" x1="153.74" y1="224.85" x2="153.9" y2="224.9"/><line class="cls-1" x1="155.19" y1="225.12" x2="155.3" y2="225.12"/><line class="cls-1" x1="155.3" y1="225.12" x2="155.46" y2="225.17"/><line class="cls-1" x1="156.76" y1="225.39" x2="156.87" y2="225.39"/><line class="cls-1" x1="156.87" y1="225.39" x2="157.03" y2="225.39"/><line class="cls-1" x1="158.27" y1="225.6" x2="158.43" y2="225.6"/><line class="cls-1" x1="158.43" y1="225.6" x2="158.54" y2="225.6"/><line class="cls-1" x1="159.84" y1="225.71" x2="160" y2="225.71"/><line class="cls-1" x1="160" y1="225.71" x2="160.11" y2="225.71"/><line class="cls-1" x1="161.4" y1="225.76" x2="161.62" y2="225.76"/><line class="cls-1" x1="161.62" y1="225.76" x2="161.67" y2="225.76"/><line class="cls-1" x1="162.97" y1="225.82" x2="163.19" y2="225.82"/><line class="cls-1" x1="163.19" y1="225.82" x2="163.24" y2="225.82"/><line class="cls-1" x1="164.59" y1="225.82" x2="164.81" y2="225.82"/><line class="cls-1" x1="164.81" y1="225.82" x2="164.86" y2="225.82"/><line class="cls-1" x1="166.16" y1="225.71" x2="166.37" y2="225.71"/><line class="cls-1" x1="166.37" y1="225.71" x2="166.43" y2="225.71"/><line class="cls-1" x1="167.67" y1="225.49" x2="167.88" y2="225.44"/><line class="cls-1" x1="169.18" y1="225.28" x2="169.4" y2="225.22"/><line class="cls-1" x1="170.69" y1="225.06" x2="170.91" y2="225.01"/><line class="cls-1" x1="172.15" y1="224.74" x2="172.37" y2="224.68"/><line class="cls-1" x1="173.55" y1="224.31" x2="173.77" y2="224.2"/><line class="cls-1" x1="174.9" y1="223.66" x2="175.12" y2="223.55"/><line class="cls-1" x1="176.2" y1="222.9" x2="176.42" y2="222.79"/><line class="cls-1" x1="177.44" y1="221.98" x2="177.6" y2="221.82"/><line class="cls-1" x1="178.58" y1="220.9" x2="178.74" y2="220.74"/><line class="cls-1" x1="179.6" y1="219.77" x2="179.76" y2="219.55"/><line class="cls-1" x1="180.57" y1="218.53" x2="180.74" y2="218.31"/><line class="cls-1" x1="181.44" y1="217.23" x2="181.49" y2="217.18"/><line class="cls-1" x1="181.49" y1="217.18" x2="181.6" y2="217.02"/><line class="cls-1" x1="182.19" y1="215.88" x2="182.3" y2="215.67"/><line class="cls-1" x1="182.9" y1="214.53" x2="183" y2="214.32"/><line class="cls-1" x1="183.54" y1="213.18" x2="183.65" y2="212.97"/><line class="cls-1" x1="184.19" y1="211.83" x2="184.25" y2="211.62"/><line class="cls-1" x1="184.73" y1="210.48" x2="184.84" y2="210.27"/><line class="cls-1" x1="185.27" y1="209.08" x2="185.33" y2="208.86"/><line class="cls-1" x1="185.76" y1="207.67" x2="185.81" y2="207.46"/><line class="cls-1" x1="186.19" y1="206.27" x2="186.24" y2="206.05"/><line class="cls-1" x1="186.62" y1="204.81" x2="186.62" y2="204.76"/><line class="cls-1" x1="186.62" y1="204.76" x2="186.68" y2="204.6"/><line class="cls-1" x1="187" y1="203.35" x2="187.05" y2="203.14"/><line class="cls-1" x1="187.32" y1="201.9" x2="187.38" y2="201.68"/><line class="cls-1" x1="187.65" y1="200.44" x2="187.7" y2="200.17"/><line class="cls-1" x1="187.92" y1="198.87" x2="187.97" y2="198.6"/><line class="cls-1" x1="188.19" y1="197.31" x2="188.19" y2="197.2"/><line class="cls-1" x1="188.19" y1="197.2" x2="188.19" y2="197.04"/><line class="cls-1" x1="188.4" y1="195.79" x2="188.46" y2="195.52"/><line class="cls-1" x1="188.62" y1="194.23" x2="188.62" y2="193.96"/><line class="cls-1" x1="188.78" y1="192.66" x2="188.84" y2="192.45"/><line class="cls-1" x1="188.94" y1="191.15" x2="189" y2="190.93"/><line class="cls-1" x1="189.05" y1="189.64" x2="189.11" y2="189.42"/><line class="cls-1" x1="189.16" y1="188.13" x2="189.16" y2="187.86"/><line class="cls-1" x1="189.21" y1="186.56" x2="189.21" y2="186.29"/><line class="cls-1" x1="189.27" y1="184.99" x2="189.27" y2="184.89"/><line class="cls-1" x1="189.27" y1="184.89" x2="189.27" y2="184.72"/><line class="cls-1" x1="189.27" y1="183.37" x2="189.27" y2="183.27"/><line class="cls-1" x1="189.27" y1="183.27" x2="189.27" y2="183.1"/><line class="cls-1" x1="189.27" y1="181.75" x2="189.27" y2="181.65"/><line class="cls-1" x1="189.27" y1="181.65" x2="189.27" y2="181.48"/><line class="cls-1" x1="189.21" y1="180.19" x2="189.21" y2="180.08"/><line class="cls-1" x1="189.21" y1="180.08" x2="189.21" y2="179.92"/><line class="cls-1" x1="189.16" y1="178.62" x2="189.16" y2="178.57"/><line class="cls-1" x1="189.16" y1="178.57" x2="189.16" y2="178.35"/><line class="cls-1" x1="189.11" y1="177.06" x2="189.11" y2="177.06"/><line class="cls-1" x1="189.11" y1="177.06" x2="189.05" y2="176.79"/><line class="cls-1" x1="188.94" y1="175.49" x2="188.94" y2="175.22"/><line class="cls-1" x1="188.84" y1="173.92" x2="188.78" y2="173.71"/><line class="cls-1" x1="188.57" y1="172.41" x2="188.57" y2="172.14"/><line class="cls-1" x1="188.4" y1="170.85" x2="188.35" y2="170.63"/><line class="cls-1" x1="188.13" y1="169.39" x2="188.13" y2="169.12"/><line class="cls-1" x1="187.86" y1="167.88" x2="187.81" y2="167.66"/><line class="cls-1" x1="187.59" y1="166.42" x2="187.54" y2="166.2"/><line class="cls-1" x1="187.22" y1="164.96" x2="187.16" y2="164.74"/><line class="cls-1" x1="186.84" y1="163.5" x2="186.84" y2="163.5"/><line class="cls-1" x1="186.84" y1="163.5" x2="186.78" y2="163.29"/><line class="cls-1" x1="186.46" y1="162.04" x2="186.35" y2="161.83"/><line class="cls-1" x1="185.97" y1="160.59" x2="185.92" y2="160.37"/><line class="cls-1" x1="185.54" y1="159.18" x2="185.43" y2="158.97"/><line class="cls-1" x1="185.06" y1="157.78" x2="184.95" y2="157.56"/><line class="cls-1" x1="184.52" y1="156.37" x2="184.41" y2="156.16"/><line class="cls-1" x1="183.92" y1="154.97" x2="183.87" y2="154.81"/><line class="cls-1" x1="183.87" y1="154.81" x2="183.87" y2="154.75"/><line class="cls-1" x1="183.33" y1="153.62" x2="183.22" y2="153.4"/><line class="cls-1" x1="182.68" y1="152.27" x2="182.57" y2="152.05"/><line class="cls-1" x1="182.03" y1="150.87" x2="181.92" y2="150.65"/><line class="cls-1" x1="181.38" y1="149.52" x2="181.33" y2="149.46"/><line class="cls-1" x1="181.33" y1="149.46" x2="181.22" y2="149.3"/><line class="cls-1" x1="180.63" y1="148.17" x2="180.52" y2="147.95"/><line class="cls-1" x1="179.87" y1="146.87" x2="179.76" y2="146.65"/><line class="cls-1" x1="179.06" y1="145.57" x2="178.95" y2="145.36"/><line class="cls-1" x1="178.25" y1="144.28" x2="178.09" y2="144.06"/><line class="cls-1" x1="177.28" y1="143.04" x2="177.12" y2="142.82"/><line class="cls-1" x1="176.36" y1="141.79" x2="176.2" y2="141.63"/><line class="cls-1" x1="175.34" y1="140.61" x2="175.17" y2="140.39"/><line class="cls-1" x1="174.26" y1="139.47" x2="174.04" y2="139.31"/><line class="cls-1" x1="173.18" y1="138.34" x2="173.18" y2="138.34"/><line class="cls-1" x1="173.18" y1="138.34" x2="172.96" y2="138.18"/><line class="cls-1" x1="172.15" y1="137.15" x2="172.15" y2="137.15"/><line class="cls-1" x1="172.15" y1="137.15" x2="172.15" y2="136.88"/><line class="cls-1" x1="172.58" y1="135.69" x2="172.74" y2="135.48"/><line class="cls-1" x1="173.34" y1="134.4" x2="173.39" y2="134.18"/><line class="cls-1" x1="173.88" y1="132.99" x2="173.99" y2="132.78"/><line class="cls-1" x1="174.53" y1="131.64" x2="174.63" y2="131.43"/><line class="cls-1" x1="175.17" y1="130.29" x2="175.23" y2="130.18"/><line class="cls-1" x1="175.23" y1="130.18" x2="175.28" y2="130.08"/><line class="cls-1" x1="175.82" y1="128.94" x2="175.93" y2="128.73"/><line class="cls-1" x1="176.42" y1="127.54" x2="176.47" y2="127.32"/><line class="cls-1" x1="177.06" y1="126.19" x2="177.23" y2="125.97"/><line class="cls-1" x1="177.77" y1="124.84" x2="177.87" y2="124.62"/><line class="cls-1" x1="178.04" y1="123.38" x2="178.04" y2="123.11"/><line class="cls-1" x1="177.98" y1="121.81" x2="177.98" y2="121.81"/><line class="cls-1" x1="177.98" y1="121.81" x2="177.98" y2="121.54"/><line class="cls-1" x1="177.82" y1="120.25" x2="177.82" y2="119.98"/><line class="cls-1" x1="177.66" y1="118.68" x2="177.66" y2="118.63"/><line class="cls-1" x1="177.66" y1="118.63" x2="177.6" y2="118.47"/><line class="cls-1" x1="177.44" y1="117.17" x2="177.39" y2="116.95"/><line class="cls-1" x1="177.17" y1="115.71" x2="177.12" y2="115.5"/><line class="cls-1" x1="176.9" y1="114.25" x2="176.85" y2="114.04"/><line class="cls-1" x1="176.79" y1="112.74" x2="176.85" y2="112.53"/><line class="cls-1" x1="177.06" y1="111.23" x2="177.06" y2="111.12"/><line class="cls-1" x1="177.06" y1="111.12" x2="177.12" y2="110.96"/><line class="cls-1" x1="177.33" y1="109.72" x2="177.39" y2="109.5"/><line class="cls-1" x1="177.6" y1="108.26" x2="177.66" y2="108.04"/><line class="cls-1" x1="177.66" y1="106.75" x2="177.66" y2="106.59"/><line class="cls-1" x1="177.66" y1="106.59" x2="177.6" y2="106.48"/><line class="cls-1" x1="177.06" y1="105.29" x2="176.96" y2="105.13"/><line class="cls-1" x1="176.96" y1="105.13" x2="176.9" y2="105.07"/><line class="cls-1" x1="175.88" y1="104.32" x2="175.77" y2="104.26"/><line class="cls-1" x1="175.77" y1="104.26" x2="175.66" y2="104.16"/><line class="cls-1" x1="174.85" y1="103.18" x2="174.8" y2="103.08"/><line class="cls-1" x1="174.8" y1="103.08" x2="174.8" y2="102.97"/><line class="cls-1" x1="174.69" y1="101.73" x2="174.69" y2="101.46"/><line class="cls-1" x1="174.9" y1="100.16" x2="174.96" y2="99.94"/><line class="cls-1" x1="175.34" y1="98.76" x2="175.39" y2="98.54"/><line class="cls-1" x1="175.82" y1="97.35" x2="175.88" y2="97.14"/><line class="cls-1" x1="176.36" y1="95.95" x2="176.42" y2="95.73"/><line class="cls-1" x1="176.85" y1="94.54" x2="176.96" y2="94.33"/><line class="cls-1" x1="177.39" y1="93.14" x2="177.5" y2="92.92"/><line class="cls-1" x1="177.93" y1="91.74" x2="178.04" y2="91.52"/><line class="cls-1" x1="178.47" y1="90.33" x2="178.52" y2="90.17"/><line class="cls-1" x1="178.52" y1="90.17" x2="178.52" y2="90.12"/><line class="cls-1" x1="178.95" y1="88.93" x2="179.01" y2="88.71"/><line class="cls-1" x1="179.39" y1="87.52" x2="179.44" y2="87.31"/><line class="cls-1" x1="179.87" y1="86.12" x2="179.93" y2="85.9"/><line class="cls-1" x1="180.25" y1="84.66" x2="180.3" y2="84.45"/><line class="cls-1" x1="180.63" y1="83.2" x2="180.68" y2="82.99"/><line class="cls-1" x1="180.9" y1="81.75" x2="180.95" y2="81.53"/><line class="cls-1" x1="181.11" y1="80.23" x2="181.11" y2="79.96"/><line class="cls-1" x1="181.11" y1="78.72" x2="181.06" y2="78.51"/><line class="cls-1" x1="180.63" y1="77.32" x2="180.41" y2="77.16"/><line class="cls-1" x1="179.28" y1="76.89" x2="179.01" y2="76.94"/><line class="cls-1" x1="177.71" y1="77.16" x2="177.44" y2="77.21"/><line class="cls-1" x1="176.15" y1="77.32" x2="175.93" y2="77.37"/><line class="cls-1" x1="174.63" y1="77.26" x2="174.58" y2="77.26"/><line class="cls-1" x1="174.58" y1="77.26" x2="174.36" y2="77.26"/><line class="cls-1" x1="173.07" y1="77.37" x2="172.85" y2="77.43"/><line class="cls-1" x1="171.61" y1="77.8" x2="171.39" y2="77.91"/><line class="cls-1" x1="170.26" y1="78.45" x2="170.04" y2="78.56"/><line class="cls-1" x1="168.96" y1="79.21" x2="168.75" y2="79.37"/><line class="cls-1" x1="167.67" y1="80.13" x2="167.45" y2="80.23"/><line class="cls-1" x1="166.37" y1="80.88" x2="166.32" y2="80.94"/><line class="cls-1" x1="166.32" y1="80.94" x2="166.16" y2="81.04"/><line class="cls-1" x1="165.08" y1="81.69" x2="165.08" y2="81.69"/><line class="cls-1" x1="165.08" y1="81.69" x2="164.86" y2="81.8"/><line class="cls-1" x1="163.73" y1="82.34" x2="163.51" y2="82.5"/><line class="cls-1" x1="162.38" y1="83.15" x2="162.16" y2="83.26"/><line class="cls-1" x1="161.08" y1="83.96" x2="160.92" y2="84.12"/><line class="cls-1" x1="159.84" y1="84.88" x2="159.62" y2="84.99"/><line class="cls-1" x1="158.54" y1="85.63" x2="158.33" y2="85.74"/><line class="cls-1" x1="157.25" y1="86.34" x2="157.19" y2="86.39"/><line class="cls-1" x1="157.19" y1="86.39" x2="157.03" y2="86.39"/><line class="cls-1" x1="155.79" y1="85.9" x2="155.63" y2="85.74"/><line class="cls-1" x1="154.76" y1="84.77" x2="154.65" y2="84.66"/><line class="cls-1" x1="154.65" y1="84.66" x2="154.6" y2="84.61"/><line class="cls-1" x1="153.9" y1="83.53" x2="153.84" y2="83.42"/><line class="cls-1" x1="153.84" y1="83.42" x2="153.74" y2="83.31"/><line class="cls-1" x1="152.66" y1="82.56" x2="152.44" y2="82.45"/><line class="cls-1" x1="151.31" y1="81.91" x2="151.09" y2="81.85"/><line class="cls-1" x1="149.85" y1="82.18" x2="149.63" y2="82.23"/><line class="cls-1" x1="148.39" y1="224.14" x2="148.12" y2="224.14"/><line class="cls-1" x1="146.82" y1="224.36" x2="146.55" y2="224.41"/><line class="cls-1" x1="145.31" y1="224.68" x2="145.1" y2="224.74"/><line class="cls-1" x1="143.85" y1="224.95" x2="143.64" y2="225.01"/><line class="cls-1" x1="142.4" y1="225.22" x2="142.18" y2="225.28"/><line class="cls-1" x1="140.88" y1="225.49" x2="140.61" y2="225.49"/><line class="cls-1" x1="139.32" y1="225.66" x2="139.05" y2="225.66"/><line class="cls-1" x1="137.75" y1="225.71" x2="137.54" y2="225.76"/><line class="cls-1" x1="136.19" y1="225.76" x2="135.92" y2="225.82"/><line class="cls-1" x1="134.57" y1="225.82" x2="134.3" y2="225.82"/><line class="cls-1" x1="133" y1="225.76" x2="132.73" y2="225.76"/><line class="cls-1" x1="131.43" y1="225.6" x2="131.16" y2="225.55"/><line class="cls-1" x1="129.87" y1="225.39" x2="129.65" y2="225.33"/><line class="cls-1" x1="128.36" y1="225.17" x2="128.14" y2="225.12"/><line class="cls-1" x1="126.84" y1="224.9" x2="126.63" y2="224.85"/><line class="cls-1" x1="125.39" y1="224.47" x2="125.17" y2="224.41"/><line class="cls-1" x1="123.98" y1="223.93" x2="123.77" y2="223.82"/><line class="cls-1" x1="122.63" y1="223.23" x2="122.42" y2="223.12"/><line class="cls-1" x1="121.34" y1="222.36" x2="121.17" y2="222.2"/><line class="cls-1" x1="120.2" y1="221.34" x2="120.2" y2="221.34"/><line class="cls-1" x1="120.2" y1="221.34" x2="120.04" y2="221.17"/><line class="cls-1" x1="119.12" y1="220.2" x2="119.01" y2="220.09"/><line class="cls-1" x1="119.01" y1="220.09" x2="118.96" y2="220.04"/><line class="cls-1" x1="118.15" y1="219.01" x2="117.99" y2="218.85"/><line class="cls-1" x1="117.23" y1="217.77" x2="117.12" y2="217.56"/><line class="cls-1" x1="116.48" y1="216.48" x2="116.37" y2="216.26"/><line class="cls-1" x1="115.77" y1="215.18" x2="115.67" y2="214.96"/><line class="cls-1" x1="115.07" y1="213.83" x2="115.07" y2="213.78"/><line class="cls-1" x1="115.07" y1="213.78" x2="115.02" y2="213.61"/><line class="cls-1" x1="114.48" y1="212.48" x2="114.37" y2="212.26"/><line class="cls-1" x1="113.88" y1="211.13" x2="113.78" y2="210.91"/><line class="cls-1" x1="113.29" y1="209.73" x2="113.24" y2="209.51"/><line class="cls-1" x1="112.8" y1="208.32" x2="112.75" y2="208.11"/><line class="cls-1" x1="112.37" y1="206.92" x2="112.32" y2="206.7"/><line class="cls-1" x1="111.94" y1="205.51" x2="111.89" y2="205.3"/><line class="cls-1" x1="111.56" y1="204.06" x2="111.51" y2="203.84"/><line class="cls-1" x1="111.18" y1="202.6" x2="111.13" y2="202.38"/><line class="cls-1" x1="110.86" y1="201.14" x2="110.81" y2="200.98"/><line class="cls-1" x1="110.81" y1="200.98" x2="110.81" y2="200.92"/><line class="cls-1" x1="110.59" y1="199.68" x2="110.54" y2="199.47"/><line class="cls-1" x1="110.32" y1="198.22" x2="110.27" y2="197.95"/><line class="cls-1" x1="110.1" y1="196.66" x2="110.05" y2="196.44"/><line class="cls-1" x1="109.89" y1="195.15" x2="109.83" y2="194.93"/><line class="cls-1" x1="109.67" y1="193.63" x2="109.67" y2="193.58"/><line class="cls-1" x1="109.67" y1="193.58" x2="109.67" y2="193.36"/><line class="cls-1" x1="109.51" y1="192.12" x2="109.46" y2="191.91"/><line class="cls-1" x1="109.35" y1="190.61" x2="109.29" y2="190.34"/><line class="cls-1" x1="109.24" y1="189.04" x2="109.24" y2="188.77"/><line class="cls-1" x1="109.19" y1="187.48" x2="109.13" y2="187.26"/><line class="cls-1" x1="109.13" y1="185.91" x2="109.08" y2="185.7"/><line class="cls-1" x1="109.08" y1="184.35" x2="109.08" y2="184.08"/><line class="cls-1" x1="109.08" y1="182.73" x2="109.08" y2="182.46"/><line class="cls-1" x1="109.08" y1="181.11" x2="109.13" y2="180.84"/><line class="cls-1" x1="109.13" y1="179.49" x2="109.19" y2="179.27"/><line class="cls-1" x1="109.19" y1="177.92" x2="109.24" y2="177.7"/><line class="cls-1" x1="109.29" y1="176.41" x2="109.35" y2="176.19"/><line class="cls-1" x1="109.46" y1="174.9" x2="109.46" y2="174.63"/><line class="cls-1" x1="109.62" y1="173.33" x2="109.67" y2="173.11"/><line class="cls-1" x1="109.83" y1="171.82" x2="109.83" y2="171.55"/><line class="cls-1" x1="110.05" y1="170.31" x2="110.1" y2="170.09"/><line class="cls-1" x1="110.27" y1="168.79" x2="110.32" y2="168.58"/><line class="cls-1" x1="110.59" y1="167.34" x2="110.59" y2="167.28"/><line class="cls-1" x1="110.59" y1="167.28" x2="110.64" y2="167.12"/><line class="cls-1" x1="110.91" y1="165.88" x2="110.97" y2="165.66"/><line class="cls-1" x1="111.24" y1="164.42" x2="111.29" y2="164.2"/><line class="cls-1" x1="111.62" y1="163.02" x2="111.72" y2="162.8"/><line class="cls-1" x1="112.05" y1="161.56" x2="112.1" y2="161.34"/><line class="cls-1" x1="112.48" y1="160.15" x2="112.53" y2="159.99"/><line class="cls-1" x1="112.53" y1="159.99" x2="112.53" y2="159.94"/><line class="cls-1" x1="112.97" y1="158.75" x2="113.02" y2="158.53"/><line class="cls-1" x1="113.45" y1="157.35" x2="113.56" y2="157.13"/><line class="cls-1" x1="114.05" y1="155.94" x2="114.1" y2="155.78"/><line class="cls-1" x1="114.1" y1="155.78" x2="114.1" y2="155.73"/><line class="cls-1" x1="114.59" y1="154.54" x2="114.69" y2="154.32"/><line class="cls-1" x1="115.18" y1="153.19" x2="115.29" y2="152.97"/><line class="cls-1" x1="115.83" y1="151.84" x2="115.94" y2="151.62"/><line class="cls-1" x1="116.48" y1="150.49" x2="116.58" y2="150.27"/><line class="cls-1" x1="117.18" y1="149.14" x2="117.29" y2="148.92"/><line class="cls-1" x1="117.93" y1="147.84" x2="118.04" y2="147.63"/><line class="cls-1" x1="118.69" y1="146.49" x2="118.74" y2="146.38"/><line class="cls-1" x1="118.74" y1="146.38" x2="118.8" y2="146.28"/><line class="cls-1" x1="119.5" y1="145.2" x2="119.61" y2="145.03"/><line class="cls-1" x1="119.61" y1="145.03" x2="119.66" y2="144.98"/><line class="cls-1" x1="120.36" y1="143.9" x2="120.47" y2="143.74"/><line class="cls-1" x1="120.47" y1="143.74" x2="120.53" y2="143.68"/><line class="cls-1" x1="121.34" y1="142.66" x2="121.44" y2="142.5"/><line class="cls-1" x1="121.44" y1="142.5" x2="121.5" y2="142.44"/><line class="cls-1" x1="122.31" y1="141.42" x2="122.36" y2="141.36"/><line class="cls-1" x1="122.36" y1="141.36" x2="122.47" y2="141.25"/><line class="cls-1" x1="123.28" y1="140.23" x2="123.44" y2="140.07"/><line class="cls-1" x1="124.41" y1="139.2" x2="124.52" y2="138.99"/><line class="cls-1" x1="125.49" y1="138.07" x2="125.71" y2="137.91"/><line class="cls-1" x1="126.2" y1="136.77" x2="126.2" y2="136.77"/><line class="cls-1" x1="126.2" y1="136.77" x2="126.09" y2="136.56"/><line class="cls-1" x1="125.49" y1="135.37" x2="125.33" y2="135.15"/><line class="cls-1" x1="124.85" y1="133.96" x2="124.74" y2="133.75"/><line class="cls-1" x1="124.25" y1="132.56" x2="124.14" y2="132.34"/><line class="cls-1" x1="123.6" y1="131.21" x2="123.5" y2="130.99"/><line class="cls-1" x1="122.96" y1="129.86" x2="122.85" y2="129.64"/><line class="cls-1" x1="122.31" y1="128.51" x2="122.25" y2="128.4"/><line class="cls-1" x1="122.25" y1="128.4" x2="122.2" y2="128.29"/><line class="cls-1" x1="121.77" y1="127.11" x2="121.66" y2="126.89"/><line class="cls-1" x1="121.01" y1="125.76" x2="121.01" y2="125.76"/><line class="cls-1" x1="121.01" y1="125.76" x2="120.9" y2="125.54"/><line class="cls-1" x1="120.42" y1="124.41" x2="120.36" y2="124.3"/><line class="cls-1" x1="120.36" y1="124.3" x2="120.36" y2="124.19"/><line class="cls-1" x1="120.31" y1="122.89" x2="120.31" y2="122.62"/><line class="cls-1" x1="120.42" y1="121.33" x2="120.42" y2="121.17"/><line class="cls-1" x1="120.42" y1="121.17" x2="120.42" y2="121.06"/><line class="cls-1" x1="120.53" y1="119.76" x2="120.58" y2="119.55"/><line class="cls-1" x1="120.74" y1="118.25" x2="120.8" y2="118.03"/><line class="cls-1" x1="121.01" y1="116.79" x2="121.01" y2="116.63"/><line class="cls-1" x1="121.01" y1="116.63" x2="121.01" y2="116.52"/><line class="cls-1" x1="121.28" y1="115.28" x2="121.34" y2="115.06"/><line class="cls-1" x1="121.5" y1="113.77" x2="121.55" y2="113.5"/><line class="cls-1" x1="121.5" y1="112.2" x2="121.5" y2="112.2"/><line class="cls-1" x1="121.5" y1="112.2" x2="121.44" y2="111.99"/><line class="cls-1" x1="121.23" y1="110.74" x2="121.17" y2="110.53"/><line class="cls-1" x1="120.9" y1="109.29" x2="120.85" y2="109.07"/><line class="cls-1" x1="120.63" y1="107.77" x2="120.63" y2="107.61"/><line class="cls-1" x1="120.63" y1="107.61" x2="120.63" y2="107.5"/><line class="cls-1" x1="120.8" y1="106.21" x2="120.9" y2="105.99"/><line class="cls-1" x1="121.66" y1="104.91" x2="121.88" y2="104.75"/><line class="cls-1" x1="122.9" y1="103.99" x2="123.06" y2="103.83"/><line class="cls-1" x1="123.6" y1="102.7" x2="123.66" y2="102.48"/><line class="cls-1" x1="123.6" y1="101.19" x2="123.6" y2="100.92"/><line class="cls-1" x1="123.28" y1="99.67" x2="123.23" y2="99.46"/><line class="cls-1" x1="122.85" y1="98.22" x2="122.79" y2="98"/><line class="cls-1" x1="122.36" y1="96.81" x2="122.25" y2="96.6"/><line class="cls-1" x1="121.82" y1="95.41" x2="121.71" y2="95.19"/><line class="cls-1" x1="121.28" y1="94" x2="121.17" y2="93.79"/><line class="cls-1" x1="120.74" y1="92.6" x2="120.63" y2="92.38"/><line class="cls-1" x1="120.2" y1="91.2" x2="120.15" y2="90.98"/><line class="cls-1" x1="119.72" y1="89.79" x2="119.61" y2="89.58"/><line class="cls-1" x1="119.23" y1="88.39" x2="119.18" y2="88.17"/><line class="cls-1" x1="118.8" y1="86.98" x2="118.69" y2="86.77"/><line class="cls-1" x1="118.31" y1="85.58" x2="118.26" y2="85.36"/><line class="cls-1" x1="117.99" y1="84.12" x2="117.93" y2="83.91"/><line class="cls-1" x1="117.61" y1="82.66" x2="117.56" y2="82.45"/><line class="cls-1" x1="117.34" y1="81.21" x2="117.34" y2="80.94"/><line class="cls-1" x1="117.18" y1="79.64" x2="117.12" y2="79.42"/><line class="cls-1" x1="117.34" y1="78.18" x2="117.39" y2="77.97"/><line class="cls-1" x1="118.2" y1="76.94" x2="118.42" y2="76.78"/><line class="cls-1" x1="119.72" y1="76.99" x2="119.88" y2="76.99"/><line class="cls-1" x1="119.88" y1="76.99" x2="119.99" y2="76.99"/><line class="cls-1" x1="121.23" y1="77.26" x2="121.28" y2="77.26"/><line class="cls-1" x1="121.28" y1="77.26" x2="121.5" y2="77.26"/><line class="cls-1" x1="122.79" y1="77.37" x2="123.01" y2="77.32"/><line class="cls-1" x1="124.31" y1="77.26" x2="124.52" y2="77.32"/><line class="cls-1" x1="125.82" y1="77.53" x2="126.03" y2="77.59"/><line class="cls-1" x1="127.22" y1="78.02" x2="127.44" y2="78.07"/><line class="cls-1" x1="128.57" y1="78.72" x2="128.79" y2="78.83"/><line class="cls-1" x1="129.87" y1="79.53" x2="130.08" y2="79.69"/><line class="cls-1" x1="131.16" y1="80.4" x2="131.38" y2="80.56"/><line class="cls-1" x1="132.46" y1="81.21" x2="132.68" y2="81.31"/><line class="cls-1" x1="133.76" y1="81.91" x2="133.97" y2="82.02"/><line class="cls-1" x1="135.11" y1="82.66" x2="135.32" y2="82.77"/><line class="cls-1" x1="136.4" y1="83.42" x2="136.62" y2="83.53"/><line class="cls-1" x1="137.64" y1="84.28" x2="137.86" y2="84.45"/><line class="cls-1" x1="138.94" y1="85.15" x2="139.1" y2="85.26"/><line class="cls-1" x1="139.1" y1="85.26" x2="139.16" y2="85.31"/><line class="cls-1" x1="140.29" y1="85.9" x2="140.51" y2="86.01"/><line class="cls-1" x1="141.64" y1="86.34" x2="141.86" y2="86.28"/><line class="cls-1" x1="142.94" y1="85.58" x2="143.1" y2="85.36"/><line class="cls-1" x1="143.91" y1="84.34" x2="144.07" y2="84.12"/><line class="cls-1" x1="144.88" y1="83.15" x2="145.04" y2="82.99"/><line class="cls-1" x1="146.12" y1="82.29" x2="146.34" y2="82.18"/><line class="cls-1" x1="147.53" y1="81.91" x2="147.74" y2="82.02"/><line class="cls-1" x1="148.98" y1="82.29" x2="149.15" y2="82.34"/></g></svg>