<svg id="Tight_Light" xmlns="http://www.w3.org/2000/svg" viewBox="0 0 300 263"><defs><style>.cls-1,.cls-3,.cls-4{fill:none;stroke-width:0.5px;}.cls-1,.cls-4{stroke:#000;}.cls-2{isolation:isolate;}.cls-3{stroke:#1d1d1b;}.cls-3,.cls-4{stroke-linecap:round;stroke-linejoin:round;}</style></defs><title>tight-light-ceiling-wall-castiglioni-flos-F0011009-spech-tech-02-300x263-01</title><line class="cls-1" x1="181.67" y1="172.47" x2="254.32" y2="172.78"/><line class="cls-1" x1="181.68" y1="170.19" x2="181.66" y2="174.75"/><line class="cls-1" x1="254.33" y1="170.5" x2="254.31" y2="175.06"/><g class="cls-2"><path d="M195,190.55h-1.15l0-9.88-2,1.78-.71-.87,2.89-2.35h1Z"/><path d="M202.85,179.06a3.28,3.28,0,0,1,2,.57,3.89,3.89,0,0,1,1.17,1.43,6.76,6.76,0,0,1,.55,1.9,14,14,0,0,1,0,3.95,6.31,6.31,0,0,1-.57,1.89,3.78,3.78,0,0,1-1.17,1.42,3.24,3.24,0,0,1-2,.56,3.31,3.31,0,0,1-2-.57,3.86,3.86,0,0,1-1.16-1.43,6.44,6.44,0,0,1-.55-1.9,13.08,13.08,0,0,1,0-3.95,6.45,6.45,0,0,1,.56-1.9,3.85,3.85,0,0,1,1.18-1.41A3.17,3.17,0,0,1,202.85,179.06Zm0,1.06a2.08,2.08,0,0,0-1.46.49,3.21,3.21,0,0,0-.82,1.23,6.11,6.11,0,0,0-.35,1.56c-.05.56-.07,1.06-.07,1.51s0,1,.06,1.5a6.09,6.09,0,0,0,.34,1.57,3.2,3.2,0,0,0,.8,1.24,2.07,2.07,0,0,0,1.46.5,2.09,2.09,0,0,0,1.47-.49,3.08,3.08,0,0,0,.81-1.23,5.71,5.71,0,0,0,.35-1.57c0-.55.08-1.05.08-1.5s0-1-.06-1.5a6.09,6.09,0,0,0-.34-1.57,3.2,3.2,0,0,0-.8-1.24A2.09,2.09,0,0,0,202.84,180.12Z"/><path d="M211.75,179.1a3.23,3.23,0,0,1,2,.57,3.69,3.69,0,0,1,1.16,1.43,6.16,6.16,0,0,1,.55,1.9,13.62,13.62,0,0,1,.14,2,13.82,13.82,0,0,1-.15,2,6.31,6.31,0,0,1-.57,1.89,3.78,3.78,0,0,1-1.17,1.42,3.77,3.77,0,0,1-3.94,0,3.84,3.84,0,0,1-1.16-1.43,6.16,6.16,0,0,1-.55-1.9,13.76,13.76,0,0,1-.14-2,13.58,13.58,0,0,1,.15-2,6.46,6.46,0,0,1,.57-1.9,3.86,3.86,0,0,1,1.17-1.42A3.27,3.27,0,0,1,211.75,179.1Zm0,1.06a2.09,2.09,0,0,0-1.47.49,3.22,3.22,0,0,0-.81,1.22,6.29,6.29,0,0,0-.35,1.57c-.05.56-.08,1.06-.08,1.51s0,1,.07,1.5a6.17,6.17,0,0,0,.33,1.57,3.08,3.08,0,0,0,.81,1.23,2.06,2.06,0,0,0,1.46.51,2.09,2.09,0,0,0,1.47-.49A3.3,3.3,0,0,0,214,188a6.09,6.09,0,0,0,.35-1.57c0-.55.08-1.05.08-1.5s0-.95-.07-1.51a5.86,5.86,0,0,0-.34-1.57,3,3,0,0,0-.8-1.23A2.05,2.05,0,0,0,211.74,180.16Z"/><path d="M221.77,184.84c0-.28,0-.55,0-.83s0-.56-.05-.83h1.13v1.14h0a2.44,2.44,0,0,1,1.07-1,3,3,0,0,1,2-.26,2.25,2.25,0,0,1,.66.23,2.19,2.19,0,0,1,.6.48,2.65,2.65,0,0,1,.47.78,2.42,2.42,0,0,1,1-1.13,2.85,2.85,0,0,1,1.45-.41,2.69,2.69,0,0,1,2.12.77,3.07,3.07,0,0,1,.68,2.17l0,4.75h-1v-4.37a3.09,3.09,0,0,0-.39-1.75A1.65,1.65,0,0,0,230,184a1.92,1.92,0,0,0-1,.23,2,2,0,0,0-.65.61,2.8,2.8,0,0,0-.36.87,4.25,4.25,0,0,0-.12,1v4H226.8l0-4.37a3.27,3.27,0,0,0-.39-1.75,1.67,1.67,0,0,0-1.49-.61l-.44.06a1.62,1.62,0,0,0-.71.35,2.55,2.55,0,0,0-.67.86,3.51,3.51,0,0,0-.3,1.6l0,3.84h-1.06Z"/><path d="M235.4,184.9c0-.28,0-.56,0-.83s0-.56,0-.84h1.13v1.14h0a2.44,2.44,0,0,1,1.07-1,3.05,3.05,0,0,1,1.35-.33,3.83,3.83,0,0,1,.65.06,2.61,2.61,0,0,1,.66.24,2.18,2.18,0,0,1,.6.47,2.63,2.63,0,0,1,.47.79,2.38,2.38,0,0,1,1-1.13,2.78,2.78,0,0,1,1.45-.41,2.69,2.69,0,0,1,2.12.77,3.07,3.07,0,0,1,.68,2.17l0,4.75h-1l0-4.37a3.17,3.17,0,0,0-.4-1.75,1.65,1.65,0,0,0-1.48-.61,1.92,1.92,0,0,0-1,.23,1.89,1.89,0,0,0-.65.61,2.84,2.84,0,0,0-.36.87,4.73,4.73,0,0,0-.12,1v4h-1.06l0-4.36a3.27,3.27,0,0,0-.39-1.75,1.64,1.64,0,0,0-1.49-.61l-.44.06a1.62,1.62,0,0,0-.71.35,2.55,2.55,0,0,0-.67.86,3.51,3.51,0,0,0-.3,1.6l0,3.84h-1.05Z"/></g><line class="cls-1" x1="148.59" y1="173.44" x2="42.43" y2="173.44"/><line class="cls-1" x1="148.59" y1="174.79" x2="148.59" y2="172.01"/><line class="cls-1" x1="42.43" y1="174.79" x2="42.43" y2="172.01"/><g class="cls-2"><path d="M71.88,190.73H70.73v-9.89l-2,1.79-.72-.86,2.88-2.37h1Z"/><path d="M78.28,184.26l0,0A2.06,2.06,0,0,1,79,184a3.69,3.69,0,0,1,.84-.1,3.63,3.63,0,0,1,1.37.26,3.31,3.31,0,0,1,1.09.73,3.25,3.25,0,0,1,.73,1.11,3.53,3.53,0,0,1,.27,1.4,3.48,3.48,0,0,1-.28,1.43,3.24,3.24,0,0,1-.76,1.1,3.49,3.49,0,0,1-1.17.72,4.31,4.31,0,0,1-2.95,0,3.54,3.54,0,0,1-1.16-.72,3.27,3.27,0,0,1-.77-1.1,3.64,3.64,0,0,1-.27-1.43,4.33,4.33,0,0,1,.28-1.64,8.64,8.64,0,0,1,.69-1.4l3.06-5h1.36Zm-1.15,3.15a2.66,2.66,0,0,0,.18,1,2.55,2.55,0,0,0,.52.77,2.38,2.38,0,0,0,.8.51,3.18,3.18,0,0,0,2.05,0,2.29,2.29,0,0,0,.8-.51,2.38,2.38,0,0,0,.52-.77,2.84,2.84,0,0,0,0-2,2.28,2.28,0,0,0-.52-.77,2.41,2.41,0,0,0-.8-.5,3,3,0,0,0-2.05,0,2.52,2.52,0,0,0-.8.5,2.43,2.43,0,0,0-.52.77A2.64,2.64,0,0,0,77.13,187.41Z"/><path d="M88.55,179.21a3.17,3.17,0,0,1,2,.56,3.78,3.78,0,0,1,1.17,1.42,6.45,6.45,0,0,1,.56,1.9,15.09,15.09,0,0,1,.14,2,15.36,15.36,0,0,1-.14,2,6.3,6.3,0,0,1-.56,1.89,3.89,3.89,0,0,1-1.17,1.43,3.75,3.75,0,0,1-3.94,0,3.77,3.77,0,0,1-1.16-1.43,6,6,0,0,1-.56-1.89,13.82,13.82,0,0,1-.15-2,13.58,13.58,0,0,1,.15-2,6.17,6.17,0,0,1,.56-1.9,3.66,3.66,0,0,1,1.16-1.42A3.19,3.19,0,0,1,88.55,179.21Zm0,1a2.07,2.07,0,0,0-1.46.5,3.08,3.08,0,0,0-.81,1.23,5.7,5.7,0,0,0-.34,1.57c0,.55-.08,1.05-.08,1.5s0,.95.08,1.51a5.71,5.71,0,0,0,.34,1.56,3.11,3.11,0,0,0,.81,1.24,2.06,2.06,0,0,0,1.46.49,2.09,2.09,0,0,0,1.47-.49,3.2,3.2,0,0,0,.8-1.24,5.72,5.72,0,0,0,.35-1.56c0-.56.07-1.06.07-1.51s0-.95-.07-1.5a5.71,5.71,0,0,0-.35-1.57,3.17,3.17,0,0,0-.8-1.23A2.09,2.09,0,0,0,88.55,180.26Z"/><path d="M98.6,184.9c0-.28,0-.55,0-.83l-.06-.83h1.14v1.13h0a2.53,2.53,0,0,1,1.06-1,3.12,3.12,0,0,1,1.35-.33,3.74,3.74,0,0,1,.65.06,2.42,2.42,0,0,1,.67.23,2.34,2.34,0,0,1,.6.47,2.85,2.85,0,0,1,.47.79,2.48,2.48,0,0,1,1-1.14,2.78,2.78,0,0,1,1.45-.41,2.73,2.73,0,0,1,2.13.76,3.1,3.1,0,0,1,.69,2.16v4.76h-1.06v-4.37a3.17,3.17,0,0,0-.4-1.75,1.65,1.65,0,0,0-1.49-.6,1.91,1.91,0,0,0-1,.23,2,2,0,0,0-.65.61,3,3,0,0,0-.36.88,4.74,4.74,0,0,0-.11,1v4h-1v-4.37a3.26,3.26,0,0,0-.4-1.75,1.67,1.67,0,0,0-1.49-.6l-.44.06a1.62,1.62,0,0,0-.71.35,2.5,2.5,0,0,0-.67.87,3.49,3.49,0,0,0-.29,1.6v3.84H98.6Z"/><path d="M112.23,184.9c0-.28,0-.55,0-.83l-.06-.83h1.14v1.13h0a2.59,2.59,0,0,1,1.06-1,3.12,3.12,0,0,1,1.36-.33,3.72,3.72,0,0,1,.64.06,2.42,2.42,0,0,1,.67.23,2.34,2.34,0,0,1,.6.47,2.85,2.85,0,0,1,.47.79,2.45,2.45,0,0,1,1-1.14,3.09,3.09,0,0,1,3.57.35,3.1,3.1,0,0,1,.69,2.16v4.76h-1.06v-4.37a3.17,3.17,0,0,0-.4-1.75,1.64,1.64,0,0,0-1.48-.6,1.92,1.92,0,0,0-1,.23,1.87,1.87,0,0,0-.64.61,2.55,2.55,0,0,0-.36.88,4.17,4.17,0,0,0-.12,1v4h-1v-4.37a3.26,3.26,0,0,0-.4-1.75,1.66,1.66,0,0,0-1.49-.6l-.44.06a1.62,1.62,0,0,0-.71.35,2.5,2.5,0,0,0-.67.87,3.63,3.63,0,0,0-.29,1.6v3.84h-1.06Z"/></g><line class="cls-1" x1="30.14" y1="73.64" x2="30.23" y2="161.72"/><line class="cls-1" x1="31.15" y1="73.64" x2="29.07" y2="73.65"/><line class="cls-1" x1="31.24" y1="161.72" x2="29.16" y2="161.72"/><g class="cls-2"><path d="M22.49,141.34v1.16l-9.89-.06,1.78,2-.87.72-2.35-2.9v-1Z"/><path d="M16.06,134.72v-.6a3.74,3.74,0,0,0-.1-1,2.2,2.2,0,0,0-.36-.79,1.68,1.68,0,0,0-.64-.54,2.06,2.06,0,0,0-1-.21,1.82,1.82,0,0,0-1.42.55,2.17,2.17,0,0,0-.51,1.54,2.36,2.36,0,0,0,.31,1.26,2.41,2.41,0,0,0,.92.9l-.52,1a3.45,3.45,0,0,1-1.34-1.31,3.76,3.76,0,0,1-.43-1.84,4,4,0,0,1,.2-1.26,3.18,3.18,0,0,1,.57-1,2.8,2.8,0,0,1,2.19-1,2.37,2.37,0,0,1,.88.16,2.5,2.5,0,0,1,.75.42,2.64,2.64,0,0,1,.58.62,2.45,2.45,0,0,1,.37.74l0,0a2.46,2.46,0,0,1,.37-.88,2.84,2.84,0,0,1,.65-.69,3.24,3.24,0,0,1,.87-.44,3.33,3.33,0,0,1,1-.15,3.26,3.26,0,0,1,1.39.29,3.18,3.18,0,0,1,1,.79,3.49,3.49,0,0,1,.62,1.16,4.54,4.54,0,0,1,.21,1.39,4.12,4.12,0,0,1-.56,2.17,3.31,3.31,0,0,1-1.75,1.39l-.36-1.22a2.31,2.31,0,0,0,1.21-.85,2.71,2.71,0,0,0,.4-1.59,2.32,2.32,0,0,0-.15-.91,2.56,2.56,0,0,0-.45-.77,2,2,0,0,0-.71-.51,2.12,2.12,0,0,0-.91-.19,2.21,2.21,0,0,0-1.08.23,1.94,1.94,0,0,0-.72.64,2.72,2.72,0,0,0-.39.92,4.21,4.21,0,0,0-.13,1.08v.49Z"/><path d="M11.06,124.61a3.31,3.31,0,0,1,.57-2,3.86,3.86,0,0,1,1.43-1.16,6.76,6.76,0,0,1,1.9-.55,15.29,15.29,0,0,1,2-.13,13.74,13.74,0,0,1,2,.16,6.31,6.31,0,0,1,1.89.57,3.78,3.78,0,0,1,1.42,1.17,3.75,3.75,0,0,1,0,3.94,3.86,3.86,0,0,1-1.43,1.16,6.44,6.44,0,0,1-1.9.55,15.29,15.29,0,0,1-2,.13,13.79,13.79,0,0,1-2-.15,6.31,6.31,0,0,1-1.89-.57,3.8,3.8,0,0,1-1.42-1.18A3.24,3.24,0,0,1,11.06,124.61Zm1.06,0a2.09,2.09,0,0,0,.48,1.47,3.21,3.21,0,0,0,1.23.82,6.09,6.09,0,0,0,1.57.35c.55,0,1,.08,1.5.08s1,0,1.5-.06a6.09,6.09,0,0,0,1.57-.34,3.13,3.13,0,0,0,1.24-.8,2.07,2.07,0,0,0,.5-1.46,2,2,0,0,0-.48-1.47,3.08,3.08,0,0,0-1.23-.81,5.71,5.71,0,0,0-1.57-.36c-.55,0-1.05-.07-1.5-.08s-.95,0-1.5.07a5.69,5.69,0,0,0-1.57.33,3.2,3.2,0,0,0-1.24.8A2.09,2.09,0,0,0,12.12,124.61Z"/><path d="M16.81,114.59l-.83,0-.83,0v-1.13h1.14v0a2.56,2.56,0,0,1-1-1.07,2.91,2.91,0,0,1-.32-1.35,3.83,3.83,0,0,1,.06-.65,2.61,2.61,0,0,1,.24-.66,2.34,2.34,0,0,1,.47-.6,2.85,2.85,0,0,1,.79-.47,2.42,2.42,0,0,1-1.13-1,2.87,2.87,0,0,1-.41-1.45,2.73,2.73,0,0,1,.78-2.12,3.12,3.12,0,0,1,2.17-.68l4.75,0v1.05l-4.37,0a3.08,3.08,0,0,0-1.74.39,1.65,1.65,0,0,0-.62,1.48,2,2,0,0,0,.23,1,2,2,0,0,0,.61.65,2.58,2.58,0,0,0,.87.36,4.25,4.25,0,0,0,1,.12l4,0v1.06l-4.36,0a3.17,3.17,0,0,0-1.75.4,1.64,1.64,0,0,0-.62,1.48c0,.06,0,.21.07.44a1.59,1.59,0,0,0,.34.71,2.55,2.55,0,0,0,.86.67,3.66,3.66,0,0,0,1.6.31l3.84,0v1.06Z"/><path d="M16.89,101l-.83,0-.84,0V99.9h1.14v0a2.44,2.44,0,0,1-1-1.07,3.05,3.05,0,0,1-.33-1.35,3.79,3.79,0,0,1,.07-.65,2,2,0,0,1,.24-.66,2,2,0,0,1,.47-.6,2.63,2.63,0,0,1,.79-.47,2.38,2.38,0,0,1-1.13-1,2.78,2.78,0,0,1-.41-1.45,2.73,2.73,0,0,1,.77-2.12A3.07,3.07,0,0,1,18,89.8l4.75,0v1l-4.37,0a3,3,0,0,0-1.74.39A1.63,1.63,0,0,0,16,92.73a1.92,1.92,0,0,0,.23,1,1.89,1.89,0,0,0,.61.65,2.62,2.62,0,0,0,.87.36,4.17,4.17,0,0,0,1,.12l4,0v1.06l-4.37,0a3.23,3.23,0,0,0-1.74.39A1.65,1.65,0,0,0,16,97.79a3.61,3.61,0,0,0,.06.44,1.62,1.62,0,0,0,.35.71,2.55,2.55,0,0,0,.86.67,3.63,3.63,0,0,0,1.6.31l3.84,0v1Z"/></g><line class="cls-3" x1="42.46" y1="74.07" x2="42.46" y2="161.11"/><line class="cls-3" x1="149.63" y1="161.11" x2="42.46" y2="161.11"/><line class="cls-3" x1="42.46" y1="74.07" x2="149.63" y2="74.07"/><line class="cls-3" x1="149.63" y1="161.11" x2="149.63" y2="74.07"/><line class="cls-4" x1="252.64" y1="74.03" x2="225.88" y2="74.03"/><line class="cls-4" x1="252.64" y1="161.07" x2="252.64" y2="74.03"/><line class="cls-4" x1="225.88" y1="104.14" x2="183.01" y2="104.14"/><line class="cls-4" x1="183.01" y1="130.96" x2="183.01" y2="104.14"/><line class="cls-4" x1="183.01" y1="128.47" x2="182.84" y2="128.47"/><polyline class="cls-4" points="225.88 161.07 225.88 130.96 183.01 130.96"/><line class="cls-4" x1="225.88" y1="74.03" x2="225.88" y2="104.14"/><line class="cls-4" x1="252.64" y1="161.07" x2="225.88" y2="161.07"/><polyline class="cls-4" points="182.84 128.47 182.84 106.69 183.01 106.69"/></svg>