<svg id="TILEE" xmlns="http://www.w3.org/2000/svg" viewBox="0 0 300 263"><defs><style>.cls-1{isolation:isolate;}.cls-2,.cls-3{fill:none;}.cls-2{stroke:#000;stroke-width:0.5px;}.cls-3{stroke:#1d1d1b;stroke-linecap:round;stroke-linejoin:round;stroke-width:0.35px;}</style></defs><title>tilee-ceiling-wall-ziliani-flos-F7460009-spech-tech-02-300x263</title><g class="cls-1"><path d="M189.52,211.75h-1.15l0-9.89-2,1.79-.71-.87,2.89-2.36h1Z"/><path d="M197.35,200.26a3.15,3.15,0,0,1,2,.57,3.81,3.81,0,0,1,1.17,1.43,6.66,6.66,0,0,1,.55,1.9,13.48,13.48,0,0,1,.13,2,13.82,13.82,0,0,1-.15,2,6.49,6.49,0,0,1-.57,1.89,3.78,3.78,0,0,1-1.17,1.42,3.24,3.24,0,0,1-2,.55,3.18,3.18,0,0,1-2-.57,3.78,3.78,0,0,1-1.16-1.43,6.36,6.36,0,0,1-.55-1.9,15.09,15.09,0,0,1-.14-2,15.5,15.5,0,0,1,.16-2,6.11,6.11,0,0,1,.56-1.89,3.8,3.8,0,0,1,1.18-1.42A3.24,3.24,0,0,1,197.35,200.26Zm0,1.06a2.06,2.06,0,0,0-1.46.48,3.21,3.21,0,0,0-.82,1.23,6.09,6.09,0,0,0-.35,1.57c-.05.55-.07,1.06-.08,1.5s0,1,.07,1.51a6.18,6.18,0,0,0,.34,1.57,3.06,3.06,0,0,0,.8,1.23,2.07,2.07,0,0,0,1.46.51,2.09,2.09,0,0,0,1.47-.5,3,3,0,0,0,.81-1.22,5.79,5.79,0,0,0,.35-1.57c0-.55.08-1.06.08-1.5s0-.95-.06-1.51a6.18,6.18,0,0,0-.34-1.57,3.17,3.17,0,0,0-.8-1.23A2,2,0,0,0,197.34,201.32Z"/><path d="M207.32,211.82h-1.16l.05-9.89-2,1.78-.72-.87,2.89-2.35h1Z"/><path d="M216.27,206c0-.28,0-.56,0-.84l-.06-.83h1.14v1.13h0a2.47,2.47,0,0,1,1.07-1,2.8,2.8,0,0,1,1.35-.33,3.83,3.83,0,0,1,.65.06,2,2,0,0,1,.66.24,2.34,2.34,0,0,1,.6.47,2.71,2.71,0,0,1,.47.79,2.38,2.38,0,0,1,1-1.13,2.66,2.66,0,0,1,1.45-.41,2.73,2.73,0,0,1,2.12.76,3.15,3.15,0,0,1,.68,2.18l0,4.75h-1v-4.36a3.09,3.09,0,0,0-.39-1.75,1.65,1.65,0,0,0-1.48-.62,1.82,1.82,0,0,0-1.65.85,2.62,2.62,0,0,0-.36.87,4.17,4.17,0,0,0-.12,1v4H221.3l0-4.37a3.13,3.13,0,0,0-.4-1.74,1.64,1.64,0,0,0-1.48-.62l-.44.06a1.74,1.74,0,0,0-.71.35,2.55,2.55,0,0,0-.67.86,3.53,3.53,0,0,0-.3,1.6l0,3.84h-1.06Z"/><path d="M229.9,206.09c0-.27,0-.55,0-.83s0-.55,0-.83H231v1.14h0a2.44,2.44,0,0,1,1.07-1,3.05,3.05,0,0,1,1.35-.33,3.9,3.9,0,0,1,.65.07,2.25,2.25,0,0,1,.66.23,2.64,2.64,0,0,1,.6.48,2.4,2.4,0,0,1,.47.79,2.45,2.45,0,0,1,1-1.14,2.87,2.87,0,0,1,1.45-.41,2.73,2.73,0,0,1,2.12.77,3.09,3.09,0,0,1,.68,2.17l0,4.76h-1v-4.37a3.06,3.06,0,0,0-.39-1.74,1.65,1.65,0,0,0-1.48-.62,2,2,0,0,0-1,.23,2,2,0,0,0-.65.61,3.07,3.07,0,0,0-.36.87,4.91,4.91,0,0,0-.12,1v4h-1.06l0-4.37a3.2,3.2,0,0,0-.39-1.74,1.65,1.65,0,0,0-1.49-.62l-.44.06a1.74,1.74,0,0,0-.71.35,2.55,2.55,0,0,0-.67.86,3.53,3.53,0,0,0-.3,1.6l0,3.84h-1.05Z"/></g><line class="cls-2" x1="145.06" y1="190.89" x2="42.43" y2="190.89"/><line class="cls-2" x1="145.11" y1="192.2" x2="145.11" y2="189.42"/><line class="cls-2" x1="42.43" y1="192.24" x2="42.43" y2="189.46"/><g class="cls-1"><path d="M71.88,208.17H70.73v-9.89l-2,1.8-.72-.87,2.88-2.37h1Z"/><path d="M79.66,196.65a3.21,3.21,0,0,1,2,.56,3.67,3.67,0,0,1,1.17,1.42,6.17,6.17,0,0,1,.56,1.9,13.08,13.08,0,0,1,0,3.95,6.17,6.17,0,0,1-.56,1.9,3.6,3.6,0,0,1-1.17,1.42,3.73,3.73,0,0,1-3.93,0,3.78,3.78,0,0,1-1.17-1.42,6.45,6.45,0,0,1-.56-1.9,14,14,0,0,1,0-3.95,6.45,6.45,0,0,1,.56-1.9,3.86,3.86,0,0,1,1.17-1.42A3.24,3.24,0,0,1,79.66,196.65Zm0,1.06a2.09,2.09,0,0,0-1.47.49,3.19,3.19,0,0,0-.81,1.23A6.27,6.27,0,0,0,77,201c-.05.56-.07,1.06-.07,1.51s0,1,.07,1.5a6.09,6.09,0,0,0,.34,1.57,3.19,3.19,0,0,0,.81,1.23,2.4,2.4,0,0,0,2.93,0,3.08,3.08,0,0,0,.81-1.23,6.09,6.09,0,0,0,.34-1.57c0-.55.07-1,.07-1.5s0-.95-.07-1.51a6.27,6.27,0,0,0-.34-1.57,3.08,3.08,0,0,0-.81-1.23A2.08,2.08,0,0,0,79.66,197.71Z"/><path d="M87.08,202.14a2.28,2.28,0,0,1-.68-.38,2.48,2.48,0,0,1-.54-.58,3,3,0,0,1-.35-.74,2.87,2.87,0,0,1,.82-3,3.16,3.16,0,0,1,1-.59,3.5,3.5,0,0,1,1.21-.21,3.56,3.56,0,0,1,1.22.21,3.27,3.27,0,0,1,1,.59,3,3,0,0,1,.68.94,2.84,2.84,0,0,1,.26,1.22,2.53,2.53,0,0,1-.13.83,2.65,2.65,0,0,1-.35.74,2.48,2.48,0,0,1-.54.58,2.16,2.16,0,0,1-.68.38v0a2.66,2.66,0,0,1,1.54,1.06,3.21,3.21,0,0,1,.58,1.92,2.85,2.85,0,0,1-.3,1.32,3.3,3.3,0,0,1-.78,1,3.56,3.56,0,0,1-1.14.65,4.14,4.14,0,0,1-1.37.22,4.18,4.18,0,0,1-1.37-.22,3.41,3.41,0,0,1-1.13-.65,3.18,3.18,0,0,1-.79-1,3,3,0,0,1-.29-1.32,3.21,3.21,0,0,1,.57-1.92,2.69,2.69,0,0,1,1.54-1.06ZM91,205a2.32,2.32,0,0,0-.17-.92,2.22,2.22,0,0,0-.49-.74,2.16,2.16,0,0,0-.77-.49,2.87,2.87,0,0,0-1-.17,2.93,2.93,0,0,0-1,.17,2.31,2.31,0,0,0-.76.49,2.2,2.2,0,0,0-.48.74,2.32,2.32,0,0,0-.18.92,2.36,2.36,0,0,0,.18.92,2.26,2.26,0,0,0,.48.73,2.31,2.31,0,0,0,.76.49,2.71,2.71,0,0,0,1,.18,2.66,2.66,0,0,0,1-.18,2.16,2.16,0,0,0,.77-.49,2.29,2.29,0,0,0,.49-.73A2.35,2.35,0,0,0,91,205Zm-.41-5.28a2,2,0,0,0-.58-1.44,2,2,0,0,0-.64-.41,2.07,2.07,0,0,0-.8-.15,2.06,2.06,0,0,0-1.44.56,1.87,1.87,0,0,0-.42.64,2.07,2.07,0,0,0-.15.8,2.11,2.11,0,0,0,.15.8,1.93,1.93,0,0,0,.42.63,2.13,2.13,0,0,0,.64.41,1.94,1.94,0,0,0,.8.16,1.91,1.91,0,0,0,.8-.16,2,2,0,0,0,.64-.41,2.13,2.13,0,0,0,.43-.63A2.11,2.11,0,0,0,90.57,199.71Z"/><path d="M98.6,202.35c0-.28,0-.56,0-.84l-.06-.83h1.14v1.14h0a2.41,2.41,0,0,1,1.06-1,3,3,0,0,1,1.35-.34,3.74,3.74,0,0,1,.65.06,2.45,2.45,0,0,1,.67.24,2.34,2.34,0,0,1,.6.47,2.65,2.65,0,0,1,.47.78,2.41,2.41,0,0,1,1-1.13,2.79,2.79,0,0,1,1.45-.42,2.73,2.73,0,0,1,2.13.76,3.12,3.12,0,0,1,.69,2.17v4.75h-1.06V203.8a3.13,3.13,0,0,0-.4-1.74,1.63,1.63,0,0,0-1.49-.61,1.82,1.82,0,0,0-1.64.85,3,3,0,0,0-.36.87,4.83,4.83,0,0,0-.11,1v4h-1V203.8a3.22,3.22,0,0,0-.4-1.74,1.65,1.65,0,0,0-1.49-.61l-.44.06a1.65,1.65,0,0,0-.71.36,2.55,2.55,0,0,0-.67.86,3.55,3.55,0,0,0-.29,1.6v3.84H98.6Z"/><path d="M112.23,202.35c0-.28,0-.56,0-.84l-.06-.83h1.14v1.14h0a2.47,2.47,0,0,1,1.06-1,3,3,0,0,1,1.36-.34,3.72,3.72,0,0,1,.64.06,2.45,2.45,0,0,1,.67.24,2.34,2.34,0,0,1,.6.47,2.65,2.65,0,0,1,.47.78,2.38,2.38,0,0,1,1-1.13,3.06,3.06,0,0,1,3.57.34,3.12,3.12,0,0,1,.69,2.17v4.75h-1.06V203.8a3.13,3.13,0,0,0-.4-1.74,1.62,1.62,0,0,0-1.48-.61,2,2,0,0,0-1,.23,1.9,1.9,0,0,0-.64.62,2.5,2.5,0,0,0-.36.87,4.25,4.25,0,0,0-.12,1v4h-1V203.8a3.22,3.22,0,0,0-.4-1.74,1.64,1.64,0,0,0-1.49-.61l-.44.06a1.65,1.65,0,0,0-.71.36,2.55,2.55,0,0,0-.67.86,3.69,3.69,0,0,0-.29,1.6v3.84h-1.06Z"/></g><line class="cls-2" x1="30.08" y1="74.03" x2="30.19" y2="176.66"/><line class="cls-2" x1="31.08" y1="74.03" x2="29" y2="74.03"/><line class="cls-2" x1="31.2" y1="176.66" x2="29.12" y2="176.66"/><g class="cls-1"><path d="M22.49,141.34v1.16l-9.89-.06,1.78,2-.87.72-2.35-2.9v-1Z"/><path d="M11,133.5a3.28,3.28,0,0,1,.57-2A3.77,3.77,0,0,1,13,130.38a6.16,6.16,0,0,1,1.9-.55,14,14,0,0,1,3.95,0,6.31,6.31,0,0,1,1.89.57,3.71,3.71,0,0,1,1.42,1.18,3.75,3.75,0,0,1,0,3.94,3.84,3.84,0,0,1-1.43,1.15,6.16,6.16,0,0,1-1.9.55,13.76,13.76,0,0,1-2,.14,15.5,15.5,0,0,1-2-.16,6.31,6.31,0,0,1-1.89-.57,3.71,3.71,0,0,1-1.42-1.18A3.24,3.24,0,0,1,11,133.5Zm1.06,0a2.09,2.09,0,0,0,.48,1.47,3.08,3.08,0,0,0,1.23.81,5.71,5.71,0,0,0,1.57.35,13.75,13.75,0,0,0,1.5.08,13.4,13.4,0,0,0,1.5-.06,6.08,6.08,0,0,0,1.57-.33,3.13,3.13,0,0,0,1.24-.8,2.15,2.15,0,0,0,.51-1.47,2.08,2.08,0,0,0-.49-1.46,3.21,3.21,0,0,0-1.23-.82,6.09,6.09,0,0,0-1.57-.35c-.55-.05-1.05-.08-1.5-.08s-.95,0-1.5.06a6.09,6.09,0,0,0-1.57.34,3.09,3.09,0,0,0-1.24.8A2.05,2.05,0,0,0,12.07,133.51Z"/><path d="M16.54,126.11a2.28,2.28,0,0,1-.38.68,2.49,2.49,0,0,1-.59.53,2.73,2.73,0,0,1-.73.35,2.94,2.94,0,0,1-.84.12,2.87,2.87,0,0,1-1.22-.26,2.69,2.69,0,0,1-.93-.69,3.09,3.09,0,0,1-.59-1,3.81,3.81,0,0,1-.2-1.22,3.34,3.34,0,0,1,.22-1.22,3.22,3.22,0,0,1,.59-1,2.67,2.67,0,0,1,.94-.68,2.76,2.76,0,0,1,1.23-.25,2.57,2.57,0,0,1,.83.13,2.92,2.92,0,0,1,.73.36,2.46,2.46,0,0,1,.58.53,2.33,2.33,0,0,1,.38.69h0a2.68,2.68,0,0,1,1.06-1.53,3.26,3.26,0,0,1,1.93-.57,2.86,2.86,0,0,1,1.32.31,3.14,3.14,0,0,1,1,.79,3.23,3.23,0,0,1,.64,1.13,4.28,4.28,0,0,1,0,2.74,3.41,3.41,0,0,1-.65,1.13,3.16,3.16,0,0,1-1,.78,2.85,2.85,0,0,1-1.32.29,3.15,3.15,0,0,1-1.92-.59,2.69,2.69,0,0,1-1.05-1.54Zm-2.41-3.5a2.07,2.07,0,0,0-.8.15,1.87,1.87,0,0,0-.64.42,2.31,2.31,0,0,0-.42.63,2.31,2.31,0,0,0,0,1.61,2.09,2.09,0,0,0,.42.64,1.9,1.9,0,0,0,.63.43,2.07,2.07,0,0,0,.8.15,2.15,2.15,0,0,0,.8-.15,1.93,1.93,0,0,0,1.05-1,2.15,2.15,0,0,0,.16-.8,2.07,2.07,0,0,0-.15-.8,2.17,2.17,0,0,0-.41-.65,2,2,0,0,0-1.43-.58Zm5.28-.39a2.51,2.51,0,0,0-.92.17,2.33,2.33,0,0,0-.74.49,2.12,2.12,0,0,0-.49.76,2.73,2.73,0,0,0-.18,1,2.49,2.49,0,0,0,.17,1,2.06,2.06,0,0,0,.48.76,2.31,2.31,0,0,0,.73.5,2.79,2.79,0,0,0,.92.18,2.51,2.51,0,0,0,.92-.17,2.22,2.22,0,0,0,.74-.49,2,2,0,0,0,.49-.75,2.71,2.71,0,0,0,.18-1,2.51,2.51,0,0,0-.17-1,2,2,0,0,0-.48-.77,2.31,2.31,0,0,0-.73-.5A2.74,2.74,0,0,0,19.41,122.22Z"/><path d="M16.81,114.59l-.83,0-.83,0v-1.13h1.14v0a2.56,2.56,0,0,1-1-1.07,2.91,2.91,0,0,1-.32-1.35,3.83,3.83,0,0,1,.06-.65,2.61,2.61,0,0,1,.24-.66,2.34,2.34,0,0,1,.47-.6,2.85,2.85,0,0,1,.79-.47,2.42,2.42,0,0,1-1.13-1,2.87,2.87,0,0,1-.41-1.45,2.73,2.73,0,0,1,.78-2.12,3.12,3.12,0,0,1,2.17-.68l4.75,0v1.05l-4.37,0a3.08,3.08,0,0,0-1.74.39,1.65,1.65,0,0,0-.62,1.48,2,2,0,0,0,.23,1,2,2,0,0,0,.61.65,2.58,2.58,0,0,0,.87.36,4.25,4.25,0,0,0,1,.12l4,0v1.06l-4.36,0a3.17,3.17,0,0,0-1.75.4,1.64,1.64,0,0,0-.62,1.48c0,.06,0,.21.07.44a1.59,1.59,0,0,0,.34.71,2.55,2.55,0,0,0,.86.67,3.66,3.66,0,0,0,1.6.31l3.84,0v1.06Z"/><path d="M16.89,101l-.83,0-.84,0V99.9h1.14v0a2.44,2.44,0,0,1-1-1.07,3.05,3.05,0,0,1-.33-1.35,3.79,3.79,0,0,1,.07-.65,2,2,0,0,1,.24-.66,2,2,0,0,1,.47-.6,2.63,2.63,0,0,1,.79-.47,2.38,2.38,0,0,1-1.13-1,2.78,2.78,0,0,1-.41-1.45,2.73,2.73,0,0,1,.77-2.12A3.07,3.07,0,0,1,18,89.8l4.75,0v1l-4.37,0a3,3,0,0,0-1.74.39A1.63,1.63,0,0,0,16,92.73a1.92,1.92,0,0,0,.23,1,1.89,1.89,0,0,0,.61.65,2.62,2.62,0,0,0,.87.36,4.17,4.17,0,0,0,1,.12l4,0v1.06l-4.37,0a3.23,3.23,0,0,0-1.74.39A1.65,1.65,0,0,0,16,97.79a3.61,3.61,0,0,0,.06.44,1.62,1.62,0,0,0,.35.71,2.55,2.55,0,0,0,.86.67,3.63,3.63,0,0,0,1.6.31l3.84,0v1Z"/></g><line class="cls-3" x1="42.43" y1="74.03" x2="145.11" y2="74.03"/><line class="cls-3" x1="145.11" y1="74.03" x2="145.06" y2="74.07"/><line class="cls-3" x1="42.51" y1="74.07" x2="145.07" y2="74.07"/><line class="cls-3" x1="42.43" y1="74.03" x2="42.51" y2="74.07"/><line class="cls-3" x1="145.07" y1="176.66" x2="145.07" y2="74.07"/><line class="cls-3" x1="145.11" y1="176.66" x2="145.11" y2="74.03"/><line class="cls-3" x1="145.11" y1="176.66" x2="145.06" y2="176.66"/><line class="cls-3" x1="107.95" y1="176.66" x2="107.95" y2="174.74"/><line class="cls-3" x1="107.95" y1="176.66" x2="79.58" y2="176.66"/><line class="cls-3" x1="79.59" y1="176.66" x2="79.59" y2="174.74"/><line class="cls-3" x1="79.59" y1="174.74" x2="79.59" y2="162.46"/><line class="cls-3" x1="107.95" y1="174.74" x2="107.95" y2="162.46"/><line class="cls-3" x1="79.59" y1="176.66" x2="78.8" y2="176.66"/><line class="cls-3" x1="78.8" y1="176.66" x2="78.8" y2="162.46"/><line class="cls-3" x1="78.8" y1="176.66" x2="64.64" y2="176.66"/><line class="cls-3" x1="64.64" y1="176.66" x2="64.64" y2="162.46"/><line class="cls-3" x1="42.51" y1="74.07" x2="42.51" y2="176.66"/><line class="cls-3" x1="42.43" y1="176.66" x2="42.51" y2="176.66"/><line class="cls-3" x1="42.43" y1="74.03" x2="42.43" y2="176.66"/><line class="cls-3" x1="145.07" y1="176.66" x2="122.9" y2="176.66"/><line class="cls-3" x1="64.64" y1="176.66" x2="42.51" y2="176.66"/><line class="cls-3" x1="122.9" y1="176.66" x2="122.9" y2="162.46"/><line class="cls-3" x1="108.74" y1="176.66" x2="108.74" y2="162.46"/><line class="cls-3" x1="107.95" y1="176.66" x2="108.74" y2="176.66"/><line class="cls-3" x1="122.9" y1="176.66" x2="108.74" y2="176.66"/><line class="cls-3" x1="51.26" y1="162.46" x2="51.26" y2="74.07"/><line class="cls-3" x1="136.32" y1="162.46" x2="136.32" y2="74.07"/><line class="cls-3" x1="136.32" y1="162.46" x2="51.26" y2="162.46"/><line class="cls-3" x1="136.32" y1="74.07" x2="51.26" y2="74.07"/><line class="cls-3" x1="163.39" y1="125.35" x2="162.25" y2="125.35"/><line class="cls-3" x1="165" y1="93.6" x2="161.58" y2="93.6"/><line class="cls-3" x1="165" y1="157.13" x2="161.58" y2="157.13"/><line class="cls-3" x1="163.23" y1="111.77" x2="163.23" y2="148.89"/><line class="cls-3" x1="163.11" y1="111.77" x2="163.11" y2="149"/><line class="cls-3" x1="163.23" y1="101.84" x2="163.23" y2="111.77"/><line class="cls-3" x1="163.11" y1="101.73" x2="163.11" y2="111.77"/><line class="cls-3" x1="162.33" y1="112.12" x2="162.33" y2="149.71"/><line class="cls-3" x1="162.33" y1="101.02" x2="162.33" y2="112.12"/><line class="cls-3" x1="171.31" y1="145.43" x2="176.69" y2="145.43"/><line class="cls-3" x1="164.68" y1="74.03" x2="171.32" y2="74.07"/><line class="cls-3" x1="228.99" y1="176.66" x2="215.18" y2="176.66"/><line class="cls-3" x1="215.18" y1="176.66" x2="215.18" y2="174.74"/><line class="cls-3" x1="215.18" y1="174.74" x2="215.18" y2="162.46"/><line class="cls-3" x1="215.18" y1="176.66" x2="185.12" y2="176.66"/><line class="cls-3" x1="185.12" y1="176.66" x2="185.12" y2="162.46"/><line class="cls-3" x1="185.12" y1="176.66" x2="171.32" y2="176.66"/><line class="cls-3" x1="171.31" y1="74.07" x2="171.31" y2="176.66"/><line class="cls-3" x1="164.68" y1="176.66" x2="171.32" y2="176.66"/><line class="cls-3" x1="164.68" y1="74.03" x2="164.68" y2="176.66"/><line class="cls-3" x1="228.99" y1="162.46" x2="228.99" y2="176.67"/><line class="cls-3" x1="214.82" y1="162.46" x2="176.69" y2="162.46"/><line class="cls-3" x1="214.82" y1="74.07" x2="172.25" y2="74.07"/><line class="cls-3" x1="176.69" y1="162.46" x2="176.69" y2="145.43"/><line class="cls-3" x1="257.36" y1="162.46" x2="214.82" y2="162.46"/><line class="cls-3" x1="257.36" y1="74.07" x2="214.82" y2="74.07"/><line class="cls-3" x1="172.25" y1="145.43" x2="172.25" y2="142.14"/><line class="cls-3" x1="172.25" y1="113.77" x2="172.25" y2="74.07"/><line class="cls-3" x1="257.36" y1="162.46" x2="257.36" y2="74.07"/><line class="cls-3" x1="164.53" y1="102.95" x2="164.53" y2="85.44"/><line class="cls-3" x1="164.53" y1="85.45" x2="164.53" y2="84.31"/><line class="cls-3" x1="164.64" y1="147.67" x2="164.64" y2="103.06"/><line class="cls-3" x1="164.53" y1="161.6" x2="164.53" y2="147.79"/><line class="cls-3" x1="164.53" y1="166.42" x2="164.53" y2="161.6"/><line class="cls-3" x1="162.72" y1="101.41" x2="162.72" y2="86.78"/><line class="cls-3" x1="162.72" y1="86.78" x2="162.72" y2="85.8"/><line class="cls-3" x1="163.62" y1="148.57" x2="163.62" y2="102.16"/><line class="cls-3" x1="162.72" y1="160.85" x2="162.72" y2="149.32"/><line class="cls-3" x1="162.72" y1="164.93" x2="162.72" y2="160.86"/><line class="cls-3" x1="161.86" y1="99.61" x2="161.86" y2="88.35"/><line class="cls-3" x1="161.86" y1="88.35" x2="161.86" y2="87.64"/><line class="cls-3" x1="163.27" y1="148.85" x2="163.27" y2="101.88"/><line class="cls-3" x1="161.86" y1="159.99" x2="161.86" y2="151.12"/><line class="cls-3" x1="161.86" y1="163.09" x2="161.86" y2="159.99"/><path class="cls-3" d="M164.68,103.3a.56.56,0,0,0,0-.2.24.24,0,0,0-.12-.15"/><path class="cls-3" d="M164.53,84.31a.51.51,0,0,0,.11-.16.58.58,0,0,0,.05-.2"/><path class="cls-3" d="M164.53,147.79a.24.24,0,0,0,.11-.16.39.39,0,0,0,.05-.2"/><path class="cls-3" d="M164.68,166.78a.88.88,0,0,0,0-.2,1.33,1.33,0,0,0-.12-.16"/><line class="cls-3" x1="162.72" y1="101.41" x2="164.53" y2="102.94"/><line class="cls-3" x1="162.72" y1="85.8" x2="164.53" y2="84.31"/><line class="cls-3" x1="162.72" y1="164.93" x2="164.53" y2="166.42"/><line class="cls-3" x1="162.72" y1="149.32" x2="164.53" y2="147.79"/><line class="cls-3" x1="162.72" y1="164.93" x2="164.53" y2="166.42"/><path class="cls-3" d="M161.86,99.61a2.27,2.27,0,0,0,.23,1,2.65,2.65,0,0,0,.63.82"/><path class="cls-3" d="M162.72,85.8a2.81,2.81,0,0,0-.63.82,2.35,2.35,0,0,0-.23,1"/><path class="cls-3" d="M162.72,149.32a2.81,2.81,0,0,0-.63.82,2.3,2.3,0,0,0-.23,1"/><path class="cls-3" d="M161.86,163.09a2.35,2.35,0,0,0,.23,1,2.65,2.65,0,0,0,.63.82"/><polyline class="cls-3" points="172.49 113.77 172.53 113.81 172.57 113.89 172.61 114.13 172.65 114.64 172.72 115.42 172.72 115.66"/><line class="cls-3" x1="172.72" y1="140.26" x2="172.72" y2="115.66"/><polyline class="cls-3" points="172.49 142.14 172.53 142.1 172.57 142.02 172.61 141.78 172.65 141.31 172.72 140.49 172.72 140.26"/><line class="cls-3" x1="172.49" y1="113.77" x2="171.31" y2="113.77"/><line class="cls-3" x1="171.31" y1="115.65" x2="171.31" y2="113.77"/><line class="cls-3" x1="172.72" y1="115.65" x2="171.31" y2="115.65"/><line class="cls-3" x1="171.31" y1="140.26" x2="171.31" y2="115.66"/><line class="cls-3" x1="172.72" y1="140.26" x2="171.31" y2="140.26"/><line class="cls-3" x1="172.49" y1="142.14" x2="171.31" y2="142.14"/><line class="cls-3" x1="171.31" y1="142.14" x2="171.31" y2="140.26"/><line class="cls-2" x1="259.13" y1="190.93" x2="161.58" y2="190.93"/><line class="cls-2" x1="259.13" y1="192.48" x2="259.13" y2="189.7"/><line class="cls-2" x1="161.58" y1="192.28" x2="161.58" y2="189.5"/></svg>