<svg id="Toio" xmlns="http://www.w3.org/2000/svg" viewBox="0 0 300 263"><defs><style>.cls-1{isolation:isolate;}.cls-2,.cls-3{fill:none;stroke-width:0.5px;}.cls-2{stroke:#000;}.cls-3{stroke:#1d1d1b;stroke-miterlimit:3.86;}</style></defs><title>toio-floor-castiglioni-flos-F7600035-spech-tech-02-300x263</title><g class="cls-1"><path d="M115.86,160.09v1.15H106l1.79,2-.86.72-2.37-2.88v-1Z"/><path d="M105.58,149.32V154L109,154a5.26,5.26,0,0,1-.21-.75,5.09,5.09,0,0,1-.06-.77,3.8,3.8,0,0,1,.27-1.46,3.41,3.41,0,0,1,.76-1.13,3.52,3.52,0,0,1,1.15-.73,4,4,0,0,1,2.95,0,3.53,3.53,0,0,1,1.17.8,3.94,3.94,0,0,1,.76,1.21,4.13,4.13,0,0,1,.27,1.51,3.75,3.75,0,0,1-.51,1.94A3.39,3.39,0,0,1,114,156l-.49-1.16a2.64,2.64,0,0,0,1.06-.89,2.28,2.28,0,0,0,.39-1.32,2.43,2.43,0,0,0-.2-1,2.48,2.48,0,0,0-.53-.8,2.46,2.46,0,0,0-.8-.54,2.38,2.38,0,0,0-1-.2,2.73,2.73,0,0,0-1.08.2,2.56,2.56,0,0,0-.86.58,2.48,2.48,0,0,0-.55.88,3.1,3.1,0,0,0-.19,1.12,4.57,4.57,0,0,0,.16,1.21,6.32,6.32,0,0,0,.46,1.14l-5.87-.11v-5.78Z"/><path d="M109.82,144.89a2.25,2.25,0,0,1-.37.68,2.53,2.53,0,0,1-.59.54,2.9,2.9,0,0,1-.73.35,2.9,2.9,0,0,1-2.06-.13,2.69,2.69,0,0,1-.93-.69,2.92,2.92,0,0,1-.6-1,3.7,3.7,0,0,1-.2-1.21,3.81,3.81,0,0,1,.2-1.22,3,3,0,0,1,.6-1,2.69,2.69,0,0,1,.93-.69,2.91,2.91,0,0,1,1.23-.26,2.84,2.84,0,0,1,1.56.48,2.53,2.53,0,0,1,.59.54,2.14,2.14,0,0,1,.37.68h0a2.69,2.69,0,0,1,1-1.54,3.26,3.26,0,0,1,1.92-.58,2.89,2.89,0,0,1,1.33.3,3.29,3.29,0,0,1,1,.79,3.39,3.39,0,0,1,.64,1.13,4.2,4.2,0,0,1,0,2.74,3.39,3.39,0,0,1-.64,1.13,3.29,3.29,0,0,1-1,.79,3,3,0,0,1-1.33.29,3.25,3.25,0,0,1-1.92-.57,2.72,2.72,0,0,1-1-1.54Zm-2.43-3.49a2.11,2.11,0,0,0-.8.15,2.13,2.13,0,0,0-.63.43,2,2,0,0,0-.42.64,2.21,2.21,0,0,0,0,1.6,2.15,2.15,0,0,0,.42.64,1.93,1.93,0,0,0,.63.42,2.11,2.11,0,0,0,.8.16,2.08,2.08,0,0,0,.8-.16,1.74,1.74,0,0,0,.63-.42,2,2,0,0,0,.42-.64,2.21,2.21,0,0,0,0-1.6,1.87,1.87,0,0,0-.42-.64,1.9,1.9,0,0,0-.63-.43A2.07,2.07,0,0,0,107.39,141.4Zm5.28-.41a2.55,2.55,0,0,0-.92.17,2.18,2.18,0,0,0-.73.49,2.26,2.26,0,0,0-.49.77,2.9,2.9,0,0,0,0,2,2.21,2.21,0,0,0,.49.76,2.34,2.34,0,0,0,.73.49,2.55,2.55,0,0,0,.92.17,2.51,2.51,0,0,0,.92-.17,2.39,2.39,0,0,0,.74-.49,2.21,2.21,0,0,0,.49-.76,3.06,3.06,0,0,0,0-2,2.26,2.26,0,0,0-.49-.77,2.22,2.22,0,0,0-.74-.49A2.51,2.51,0,0,0,112.67,141Z"/><path d="M104.34,134.52a3.14,3.14,0,0,1,.56-2,3.6,3.6,0,0,1,1.42-1.17,6.17,6.17,0,0,1,1.9-.56,13.58,13.58,0,0,1,2-.15,13.82,13.82,0,0,1,2,.15,6,6,0,0,1,1.89.56,3.63,3.63,0,0,1,1.43,1.17,3.73,3.73,0,0,1,0,3.93,3.81,3.81,0,0,1-1.43,1.17,6.3,6.3,0,0,1-1.89.56,13.76,13.76,0,0,1-2,.14,13.53,13.53,0,0,1-2-.14,6.45,6.45,0,0,1-1.9-.56,3.78,3.78,0,0,1-1.42-1.17A3.17,3.17,0,0,1,104.34,134.52Zm1,0a2.09,2.09,0,0,0,.5,1.47,3.17,3.17,0,0,0,1.23.8,5.71,5.71,0,0,0,1.57.35c.55.05,1,.07,1.5.07s1,0,1.51-.07a5.72,5.72,0,0,0,1.56-.35,3.2,3.2,0,0,0,1.24-.8,2.09,2.09,0,0,0,.49-1.47,2.06,2.06,0,0,0-.49-1.46,3.11,3.11,0,0,0-1.24-.81,6.1,6.1,0,0,0-1.56-.34c-.56,0-1.06-.08-1.51-.08s-1,0-1.5.08a6.09,6.09,0,0,0-1.57.34,3.08,3.08,0,0,0-1.23.81A2.07,2.07,0,0,0,105.39,134.52Z"/><path d="M116.14,129.07l-.3.93-11.6-4.85.32-.91Z"/><path d="M115.86,118.59v1.15H106l1.79,2-.86.72-2.37-2.88v-1Z"/><path d="M111,109.44l0,0a2,2,0,0,1,.29.73,4.3,4.3,0,0,1,.09.84,3.4,3.4,0,0,1-.26,1.36,3.33,3.33,0,0,1-1.83,1.83,3.8,3.8,0,0,1-1.41.26,3.59,3.59,0,0,1-1.42-.27,3.21,3.21,0,0,1-1.11-.77,3.49,3.49,0,0,1-.72-1.17,4.45,4.45,0,0,1,0-2.94,3.49,3.49,0,0,1,.72-1.17,3.21,3.21,0,0,1,1.11-.77,3.59,3.59,0,0,1,1.42-.27,4.39,4.39,0,0,1,1.65.28,9.53,9.53,0,0,1,1.39.7l5,3v1.36Zm-3.15-1.16a2.46,2.46,0,0,0-1,.19,2.06,2.06,0,0,0-.77.52,2.41,2.41,0,0,0-.5.8,2.61,2.61,0,0,0-.19,1,2.66,2.66,0,0,0,.19,1,2.52,2.52,0,0,0,.5.8,2.33,2.33,0,0,0,.77.52,2.81,2.81,0,0,0,2,0,2.48,2.48,0,0,0,.78-.52,2.21,2.21,0,0,0,.5-.8,2.86,2.86,0,0,0,.18-1,2.8,2.8,0,0,0-.18-1,2.13,2.13,0,0,0-.5-.8,2.18,2.18,0,0,0-.78-.52A2.46,2.46,0,0,0,107.84,108.28Z"/><path d="M105.58,98.92v4.63l3.41.08a5.26,5.26,0,0,1-.21-.75,5.09,5.09,0,0,1-.06-.77,3.8,3.8,0,0,1,.27-1.46,3.41,3.41,0,0,1,.76-1.13,3.52,3.52,0,0,1,1.15-.73,4,4,0,0,1,2.95,0,3.53,3.53,0,0,1,1.17.8,3.94,3.94,0,0,1,.76,1.21,4.13,4.13,0,0,1,.27,1.51,3.75,3.75,0,0,1-.51,1.94A3.39,3.39,0,0,1,114,105.6l-.49-1.16a2.64,2.64,0,0,0,1.06-.89,2.28,2.28,0,0,0,.39-1.32,2.43,2.43,0,0,0-.2-1,2.6,2.6,0,0,0-.53-.8,2.65,2.65,0,0,0-.8-.55,2.54,2.54,0,0,0-1-.19,2.73,2.73,0,0,0-1.08.2,2.56,2.56,0,0,0-.86.58,2.48,2.48,0,0,0-.55.88,3.1,3.1,0,0,0-.19,1.12,4.57,4.57,0,0,0,.16,1.21,6.32,6.32,0,0,0,.46,1.14l-5.87-.11V98.92Z"/><path d="M104.34,93a3.17,3.17,0,0,1,.56-2,3.78,3.78,0,0,1,1.42-1.17,6.77,6.77,0,0,1,1.9-.56,15.09,15.09,0,0,1,2-.14,15.36,15.36,0,0,1,2,.14,6.6,6.6,0,0,1,1.89.56,3.81,3.81,0,0,1,1.43,1.17,3.75,3.75,0,0,1,0,3.94,3.81,3.81,0,0,1-1.43,1.17,6.6,6.6,0,0,1-1.89.56,15.36,15.36,0,0,1-2,.14,15.09,15.09,0,0,1-2-.14,6.77,6.77,0,0,1-1.9-.56A3.78,3.78,0,0,1,104.9,95,3.17,3.17,0,0,1,104.34,93Zm1,0a2.05,2.05,0,0,0,.5,1.46,3.08,3.08,0,0,0,1.23.81,6.09,6.09,0,0,0,1.57.35c.55,0,1,.07,1.5.07s1,0,1.51-.07a6.11,6.11,0,0,0,1.56-.35,3.11,3.11,0,0,0,1.24-.81,2.42,2.42,0,0,0,0-2.92,3.11,3.11,0,0,0-1.24-.81,6.11,6.11,0,0,0-1.56-.35c-.56,0-1.06-.07-1.51-.07s-1,0-1.5.07a6.09,6.09,0,0,0-1.57.35,3.08,3.08,0,0,0-1.23.81A2.05,2.05,0,0,0,105.39,93Z"/><path d="M110,83c-.28,0-.55,0-.83,0l-.83,0V81.92h1.13v0a2.53,2.53,0,0,1-1-1.06,3.05,3.05,0,0,1-.33-1.35,3.74,3.74,0,0,1,.06-.65,2.25,2.25,0,0,1,.23-.66,2,2,0,0,1,.47-.6,2.64,2.64,0,0,1,.79-.48,2.48,2.48,0,0,1-1.14-1,2.87,2.87,0,0,1-.41-1.45,2.73,2.73,0,0,1,.76-2.13,3.1,3.1,0,0,1,2.16-.69h4.76v1.06h-4.37a3.17,3.17,0,0,0-1.75.4,1.66,1.66,0,0,0-.6,1.49,1.84,1.84,0,0,0,.84,1.64,3,3,0,0,0,.88.36,4.74,4.74,0,0,0,1,.11h4v1.06h-4.37a3.27,3.27,0,0,0-1.75.39,1.67,1.67,0,0,0-.6,1.49,3.37,3.37,0,0,0,.06.44,1.71,1.71,0,0,0,.35.72,2.61,2.61,0,0,0,.87.66,3.48,3.48,0,0,0,1.6.3h3.84v1Z"/><path d="M110,69.34l-.83,0-.83.06V68.28h1.13v0a2.53,2.53,0,0,1-1-1.06,3.12,3.12,0,0,1-.33-1.35,3.74,3.74,0,0,1,.06-.65,2.42,2.42,0,0,1,.23-.67,2.34,2.34,0,0,1,.47-.6,2.85,2.85,0,0,1,.79-.47,2.48,2.48,0,0,1-1.14-1,2.87,2.87,0,0,1-.41-1.45,2.73,2.73,0,0,1,.76-2.13,3.1,3.1,0,0,1,2.16-.69h4.76v1.06h-4.37a3.17,3.17,0,0,0-1.75.4,1.65,1.65,0,0,0-.6,1.49,1.91,1.91,0,0,0,.23,1,2,2,0,0,0,.61.65,3,3,0,0,0,.88.36,4.74,4.74,0,0,0,1,.11h4v1.05h-4.37a3.26,3.26,0,0,0-1.75.4,1.67,1.67,0,0,0-.6,1.49,3.37,3.37,0,0,0,.06.44,1.62,1.62,0,0,0,.35.71,2.5,2.5,0,0,0,.87.67,3.63,3.63,0,0,0,1.6.29h3.84v1.06Z"/></g><line class="cls-2" x1="124.94" y1="47.02" x2="124.94" y2="217.3"/><line class="cls-2" x1="126.52" y1="47.02" x2="123.15" y2="47.02"/><line class="cls-2" x1="126.7" y1="217.3" x2="122.33" y2="217.3"/><g class="cls-1"><path d="M126.54,247.4h-7.2v-1.32l4.51-4.6q.25-.25.51-.54a3.9,3.9,0,0,0,.46-.61,3.25,3.25,0,0,0,.34-.67,2,2,0,0,0,.13-.74,2.05,2.05,0,0,0-.17-.83,1.79,1.79,0,0,0-.47-.62,2.13,2.13,0,0,0-.71-.39,2.6,2.6,0,0,0-.84-.14,2.33,2.33,0,0,0-1.48.48,2.2,2.2,0,0,0-.78,1.3l-1.22-.13a3.21,3.21,0,0,1,1.16-2,3.54,3.54,0,0,1,2.24-.72,4.64,4.64,0,0,1,1.3.19,3.2,3.2,0,0,1,1.09.55,2.69,2.69,0,0,1,1,2.21,3.51,3.51,0,0,1-.2,1.2,4.9,4.9,0,0,1-.52,1,6.33,6.33,0,0,1-.73.91c-.27.29-.55.58-.84.85l-3.57,3.54h6Z"/><path d="M133,247.4h-1.15v-9.88l-2,1.79-.72-.87,2.88-2.36h1Z"/><path d="M140.81,235.88a3.26,3.26,0,0,1,2,.56,3.77,3.77,0,0,1,1.16,1.43,6.11,6.11,0,0,1,.56,1.89,13.14,13.14,0,0,1,0,4,6.11,6.11,0,0,1-.56,1.89,3.77,3.77,0,0,1-1.16,1.43,3.75,3.75,0,0,1-3.94,0,3.89,3.89,0,0,1-1.17-1.43,6.39,6.39,0,0,1-.56-1.89,14.07,14.07,0,0,1,0-4,6.39,6.39,0,0,1,.56-1.89,3.89,3.89,0,0,1,1.17-1.43A3.24,3.24,0,0,1,140.81,235.88Zm0,1.06a2.09,2.09,0,0,0-1.47.5,3.17,3.17,0,0,0-.8,1.23,5.71,5.71,0,0,0-.35,1.57c-.05.55-.07,1-.07,1.5s0,.95.07,1.5a5.71,5.71,0,0,0,.35,1.57,3.17,3.17,0,0,0,.8,1.23,2.09,2.09,0,0,0,1.47.5,2.07,2.07,0,0,0,1.46-.5,3.08,3.08,0,0,0,.81-1.23,5.7,5.7,0,0,0,.34-1.57c.05-.55.08-1.05.08-1.5s0-1-.08-1.5a5.7,5.7,0,0,0-.34-1.57,3.08,3.08,0,0,0-.81-1.23A2.07,2.07,0,0,0,140.81,236.94Z"/><path d="M150.86,241.58c0-.28,0-.55,0-.83s0-.56-.05-.83h1.13v1.13h0a2.5,2.5,0,0,1,1.07-1,3.07,3.07,0,0,1,1.35-.34,3.9,3.9,0,0,1,.65.07,2.25,2.25,0,0,1,.66.23,2.34,2.34,0,0,1,.6.47,2.44,2.44,0,0,1,.47.79,2.56,2.56,0,0,1,1-1.14,3.07,3.07,0,0,1,3.58.34,3.17,3.17,0,0,1,.68,2.17v4.75H161V243a3.26,3.26,0,0,0-.4-1.75,1.68,1.68,0,0,0-1.49-.61,1.87,1.87,0,0,0-1.64.85,2.58,2.58,0,0,0-.36.87,4.31,4.31,0,0,0-.11,1v4h-1.06V243a3.17,3.17,0,0,0-.4-1.75,1.65,1.65,0,0,0-1.49-.61l-.44.07a1.67,1.67,0,0,0-.71.35,2.67,2.67,0,0,0-.66.86,3.53,3.53,0,0,0-.3,1.6v3.84h-1Z"/><path d="M164.49,241.58c0-.28,0-.55,0-.83s0-.56-.05-.83h1.13v1.13h0a2.47,2.47,0,0,1,1.06-1,3.07,3.07,0,0,1,1.35-.34,3.9,3.9,0,0,1,.65.07,2.25,2.25,0,0,1,.66.23,2,2,0,0,1,.6.47,2.64,2.64,0,0,1,.48.79,2.48,2.48,0,0,1,1-1.14,3.07,3.07,0,0,1,3.58.34,3.12,3.12,0,0,1,.69,2.17v4.75H174.6V243a3.17,3.17,0,0,0-.4-1.75,1.67,1.67,0,0,0-1.49-.61,1.87,1.87,0,0,0-1.64.85,3.07,3.07,0,0,0-.36.87,4.9,4.9,0,0,0-.11,1v4h-1.06V243a3.17,3.17,0,0,0-.4-1.75,1.65,1.65,0,0,0-1.48-.61,4.26,4.26,0,0,0-.44.07,1.71,1.71,0,0,0-.72.35,2.67,2.67,0,0,0-.66.86,3.53,3.53,0,0,0-.3,1.6v3.84h-1Z"/></g><g class="cls-1"><path d="M121.43,22.14a3.62,3.62,0,0,1,.68,1.16,4,4,0,0,1,.25,1.45,4.07,4.07,0,0,1-.3,1.57,3.63,3.63,0,0,1-.82,1.24,3.7,3.7,0,0,1-1.25.83,4.23,4.23,0,0,1-1.61.3,4.15,4.15,0,0,1-1.4-.23,3.72,3.72,0,0,1-1.11-.61l-1.08,1.09-.51-.5,1.06-1.08a3.67,3.67,0,0,1-.69-1.18,4.17,4.17,0,0,1-.24-1.43,4,4,0,0,1,.3-1.57,3.67,3.67,0,0,1,.82-1.25,3.76,3.76,0,0,1,1.26-.82,4.09,4.09,0,0,1,1.59-.3,4.18,4.18,0,0,1,1.39.22,3.65,3.65,0,0,1,1.15.62L122,20.56l.51.49Zm-1.24.26a2.66,2.66,0,0,0-1.81-.63,3,3,0,0,0-1.18.23,2.6,2.6,0,0,0-.88.64,2.77,2.77,0,0,0-.56.94,3.42,3.42,0,0,0-.2,1.17,3,3,0,0,0,.54,1.82Zm-3.61,4.72a2.65,2.65,0,0,0,.81.44,3,3,0,0,0,2.16-.07,2.48,2.48,0,0,0,.89-.63,2.73,2.73,0,0,0,.57-.94,3.51,3.51,0,0,0,.2-1.17,3.18,3.18,0,0,0-.54-1.83Z"/><path d="M133.14,28.49H132V18.6l-2,1.8-.72-.87,2.88-2.37h1Z"/><path d="M144.06,18.22,139.5,28.49h-1.3l4.66-10.27h-5.52V17.16h6.72Z"/><path d="M149.82,17a3.26,3.26,0,0,1,2,.56A3.77,3.77,0,0,1,153,19a6,6,0,0,1,.56,1.89,13.82,13.82,0,0,1,.15,2,13.58,13.58,0,0,1-.15,2,6.17,6.17,0,0,1-.56,1.9,3.66,3.66,0,0,1-1.16,1.42,3.69,3.69,0,0,1-3.94,0,3.78,3.78,0,0,1-1.17-1.42,6.45,6.45,0,0,1-.56-1.9,13.53,13.53,0,0,1-.14-2,13.76,13.76,0,0,1,.14-2,6.3,6.3,0,0,1,.56-1.89,3.89,3.89,0,0,1,1.17-1.43A3.24,3.24,0,0,1,149.82,17Zm0,1.06a2.09,2.09,0,0,0-1.47.49,3.34,3.34,0,0,0-.81,1.24,6.1,6.1,0,0,0-.34,1.56c0,.56-.07,1.06-.07,1.51s0,1,.07,1.5a6.09,6.09,0,0,0,.34,1.57,3.3,3.3,0,0,0,.81,1.23,2.09,2.09,0,0,0,1.47.5,2.07,2.07,0,0,0,1.46-.5,3.08,3.08,0,0,0,.81-1.23,6.09,6.09,0,0,0,.34-1.57c0-.55.07-1,.07-1.5s0-.95-.07-1.51a6.1,6.1,0,0,0-.34-1.56,3.11,3.11,0,0,0-.81-1.24A2.06,2.06,0,0,0,149.82,18Z"/><path d="M159.87,22.67c0-.28,0-.56,0-.83s0-.56-.05-.84h1.13v1.14h0a2.44,2.44,0,0,1,1.07-1,2.94,2.94,0,0,1,1.35-.34,3.07,3.07,0,0,1,.65.07,2.25,2.25,0,0,1,.66.23,2.34,2.34,0,0,1,.6.47,2.45,2.45,0,0,1,.47.78,2.48,2.48,0,0,1,1-1.13,2.76,2.76,0,0,1,1.45-.42,2.73,2.73,0,0,1,2.12.76,3.12,3.12,0,0,1,.69,2.17v4.75H170V24.12a3.25,3.25,0,0,0-.4-1.74,1.68,1.68,0,0,0-1.49-.61,2,2,0,0,0-1,.23,1.84,1.84,0,0,0-.65.62,2.58,2.58,0,0,0-.36.87,4.31,4.31,0,0,0-.11,1v4h-1.06V24.12a3.16,3.16,0,0,0-.4-1.74,1.67,1.67,0,0,0-1.49-.61,2.67,2.67,0,0,0-.44.07,1.67,1.67,0,0,0-.71.35,2.53,2.53,0,0,0-.66.86,3.53,3.53,0,0,0-.3,1.6v3.84h-1Z"/><path d="M173.5,22.67c0-.28,0-.56,0-.83s0-.56-.05-.84h1.13v1.14h0a2.49,2.49,0,0,1,1.07-1,2.94,2.94,0,0,1,1.35-.34,3.07,3.07,0,0,1,.65.07,2.25,2.25,0,0,1,.66.23,2,2,0,0,1,.6.47,2.28,2.28,0,0,1,.47.78,2.53,2.53,0,0,1,1-1.13,3.07,3.07,0,0,1,3.58.34,3.12,3.12,0,0,1,.69,2.17v4.75h-1.06V24.12a3.16,3.16,0,0,0-.4-1.74,1.67,1.67,0,0,0-1.49-.61,2,2,0,0,0-1,.23,1.93,1.93,0,0,0-.65.62,3.07,3.07,0,0,0-.36.87,4.9,4.9,0,0,0-.11,1v4h-1.06V24.12a3.16,3.16,0,0,0-.4-1.74,1.65,1.65,0,0,0-1.48-.61,2.58,2.58,0,0,0-.45.07,1.73,1.73,0,0,0-.71.35,2.67,2.67,0,0,0-.66.86,3.53,3.53,0,0,0-.3,1.6v3.84H173.5Z"/></g><line class="cls-2" x1="157.83" y1="227.09" x2="137.12" y2="227.09"/><line class="cls-2" x1="157.83" y1="227.73" x2="157.83" y2="226.35"/><line class="cls-2" x1="137.12" y1="227.8" x2="137.12" y2="226.02"/><line class="cls-2" x1="168.7" y1="37.59" x2="130.92" y2="37.59"/><line class="cls-2" x1="168.7" y1="38.23" x2="168.7" y2="36.86"/><line class="cls-2" x1="130.92" y1="38.3" x2="130.92" y2="36.52"/><path class="cls-3" d="M153.91,159.31h-7.84s-5.45-.73-5.43,5.52c0,5,0,52.47,0,52.47h13.27Zm3.92,58H136.72m14.77-45.23a1.61,1.61,0,1,1,1.61,1.61A1.61,1.61,0,0,1,151.49,172.07Zm-1.3-.25c0-2,1.26-3.57,2.81-3.57s2.81,1.6,2.81,3.57-1.25,3.57-2.81,3.57S150.19,173.79,150.19,171.82Zm0,.45s-.1,9-.4,10.76-1.11,10.95-1.61,11.86-.8,10.65-.8,10.65m2.81-33.27a20.52,20.52,0,0,1-4.43-12.56c.11-7.34.78-12.1,2.92-16.89s2-3.42,3.62-6.43m1.61-5.33a23.42,23.42,0,0,0,1.3-11,73.28,73.28,0,0,1-.6-11.16l-.1-12.37s1.51-18-.6-19.8m-1.61-3.22s-6-3.71-6.54-7.13-.3-.6-.9-3.92a24,24,0,0,0-.91-4l1.92.3-1,3.72m7.55-10.08c-2.92,4.11-5.31,5.07-8.06,5-4.36-.14-7.13-4.41-7.13-4.41h1.13s-3.11,2.65.58,4.49c.4.2,5,1,5,1l1.93.34,3.92.7a2.65,2.65,0,0,1,2.51,1.91m0,.1h1.61v98H152.3Zm1.61,152.48,9.85.91m-21.11-9.15h9.65V217.2h-9.65Zm1.81,1.31h5.93v8.54h-5.93Zm.3.9h4.83v6.44h-4.83Zm3.92-.3v3h-2.81v-3s.62-2.18,1.4-2S148.68,207.55,148.68,207.55Zm3.65-48.34h1.49v58h-1.49Zm-16.91-109c0-1.64,4.14-3,9.25-3s9.24,1.32,9.24,3a3.41,3.41,0,0,0,.09.91c.91.92-.56,1.26-.56,1.26h-4.05l-1,.56H137.24s.23-.48-1.27-.63-.47-.95-.47-.95Zm.16.36h18.26"/></svg>