<svg id="viscontea" xmlns="http://www.w3.org/2000/svg" viewBox="0 0 300 263"><defs><style>.cls-1{isolation:isolate;}.cls-2,.cls-3{fill:none;stroke-width:0.5px;}.cls-2{stroke:#000;}.cls-3{stroke:#1d1d1b;stroke-miterlimit:3.86;}</style></defs><title>viscontea-suspension-a-pg-castiglioni-flos-F8001009-spech-tech-02-300x263</title><g class="cls-1"><path d="M124.18,241.44a4,4,0,0,1,.68,1.16,4.2,4.2,0,0,1,.24,1.45,4,4,0,0,1-.29,1.56,3.7,3.7,0,0,1-.83,1.25,3.85,3.85,0,0,1-1.25.83,4.39,4.39,0,0,1-1.61.29,4.15,4.15,0,0,1-1.4-.22,3.72,3.72,0,0,1-1.11-.61l-1.07,1.09-.52-.5,1.06-1.09a3.62,3.62,0,0,1-.69-1.17,4.17,4.17,0,0,1-.24-1.43,4,4,0,0,1,.3-1.57,3.82,3.82,0,0,1,.82-1.25,3.62,3.62,0,0,1,1.26-.82,4.43,4.43,0,0,1,3-.08,3.84,3.84,0,0,1,1.15.61l1.06-1.09.51.5Zm-1.25.25a2.69,2.69,0,0,0-1.81-.62,3,3,0,0,0-1.18.23,2.82,2.82,0,0,0-.88.63,3.1,3.1,0,0,0-.56.95,3.42,3.42,0,0,0-.2,1.17,3,3,0,0,0,.55,1.82Zm-3.6,4.72a2.33,2.33,0,0,0,.8.45,2.86,2.86,0,0,0,1,.16,3,3,0,0,0,1.18-.23,2.7,2.7,0,0,0,1.45-1.58,3.41,3.41,0,0,0-.34-3Z"/><path d="M133.39,241.33l0,0a2,2,0,0,1,.73-.29,4.54,4.54,0,0,1,.84-.1,3.45,3.45,0,0,1,1.37.27,3.31,3.31,0,0,1,1.1.73,3.18,3.18,0,0,1,.72,1.1,3.84,3.84,0,0,1,0,2.83,3.35,3.35,0,0,1-.77,1.11,3.49,3.49,0,0,1-1.17.72,4.13,4.13,0,0,1-1.47.25,4,4,0,0,1-1.47-.25,3.49,3.49,0,0,1-1.17-.72,3.21,3.21,0,0,1-.77-1.11,3.59,3.59,0,0,1-.27-1.42,4.39,4.39,0,0,1,.28-1.65,9.45,9.45,0,0,1,.69-1.39l3.06-5h1.36Zm-1.15,3.15a2.64,2.64,0,0,0,.18,1,2.48,2.48,0,0,0,.52.78,2.52,2.52,0,0,0,.8.5,2.86,2.86,0,0,0,1,.18,2.8,2.8,0,0,0,1-.18,2.41,2.41,0,0,0,.8-.5,2.18,2.18,0,0,0,.52-.78,2.67,2.67,0,0,0,0-2,2.06,2.06,0,0,0-.52-.77,2.44,2.44,0,0,0-.8-.51,2.8,2.8,0,0,0-1-.18,2.86,2.86,0,0,0-1,.18,2.55,2.55,0,0,0-.8.51,2.33,2.33,0,0,0-.52.77A2.64,2.64,0,0,0,132.24,244.48Z"/><path d="M142.19,241.76a2.41,2.41,0,0,1-.68-.38,2.44,2.44,0,0,1-.53-.58,3.17,3.17,0,0,1-.36-.74,2.87,2.87,0,0,1,.82-3,3,3,0,0,1,1-.59,3.62,3.62,0,0,1,2.43,0,3.09,3.09,0,0,1,1,.59,2.82,2.82,0,0,1,.94,2.16,2.53,2.53,0,0,1-.13.83,2.79,2.79,0,0,1-.35.74,2.67,2.67,0,0,1-.53.58,2.41,2.41,0,0,1-.68.38v0a2.64,2.64,0,0,1,1.53,1.06,3.15,3.15,0,0,1,.58,1.92,2.85,2.85,0,0,1-.3,1.32,3.3,3.3,0,0,1-.78,1,3.56,3.56,0,0,1-1.14.65,4.14,4.14,0,0,1-1.37.22,4.08,4.08,0,0,1-1.36-.22,3.46,3.46,0,0,1-1.14-.65,3,3,0,0,1-.78-1,2.85,2.85,0,0,1-.3-1.32,3.15,3.15,0,0,1,.58-1.92,2.64,2.64,0,0,1,1.53-1.06Zm3.91,2.85a2.32,2.32,0,0,0-.18-.92,2.22,2.22,0,0,0-.49-.74,2.16,2.16,0,0,0-.77-.49,2.66,2.66,0,0,0-1-.17,2.62,2.62,0,0,0-1,.17,2.12,2.12,0,0,0-.76.49,2.22,2.22,0,0,0-.49.74,2.32,2.32,0,0,0-.18.92,2.36,2.36,0,0,0,.18.92,2.29,2.29,0,0,0,.49.73,2.12,2.12,0,0,0,.76.49,2.62,2.62,0,0,0,1,.18,2.66,2.66,0,0,0,1-.18,2.16,2.16,0,0,0,.77-.49,2.29,2.29,0,0,0,.49-.73A2.36,2.36,0,0,0,146.1,244.61Zm-.42-5.28a2.07,2.07,0,0,0-.15-.8,1.76,1.76,0,0,0-.43-.64,2,2,0,0,0-.64-.41,2.07,2.07,0,0,0-.8-.15,2.15,2.15,0,0,0-.8.15,2.26,2.26,0,0,0-.64.41,1.87,1.87,0,0,0-.42.64,2.07,2.07,0,0,0-.15.8,2.15,2.15,0,0,0,.15.8,1.93,1.93,0,0,0,.42.63,2.26,2.26,0,0,0,.64.41,2,2,0,0,0,.8.16,1.91,1.91,0,0,0,.8-.16,2,2,0,0,0,.64-.41,1.81,1.81,0,0,0,.43-.63A2.15,2.15,0,0,0,145.68,239.33Z"/><path d="M152.56,236.27a3.24,3.24,0,0,1,2,.56,3.86,3.86,0,0,1,1.17,1.42,6.77,6.77,0,0,1,.56,1.9,14,14,0,0,1,0,3.95,6.77,6.77,0,0,1-.56,1.9,3.86,3.86,0,0,1-1.17,1.42,3.75,3.75,0,0,1-3.94,0,3.86,3.86,0,0,1-1.17-1.42,6.77,6.77,0,0,1-.56-1.9,14,14,0,0,1,0-3.95,6.77,6.77,0,0,1,.56-1.9,3.86,3.86,0,0,1,1.17-1.42A3.24,3.24,0,0,1,152.56,236.27Zm0,1.06a2,2,0,0,0-1.46.49,3.08,3.08,0,0,0-.81,1.23,6.19,6.19,0,0,0-.35,1.57c0,.56-.07,1.06-.07,1.51s0,1,.07,1.5a6.19,6.19,0,0,0,.35,1.57,3.08,3.08,0,0,0,.81,1.23,2.38,2.38,0,0,0,2.92,0,3.08,3.08,0,0,0,.81-1.23,6.19,6.19,0,0,0,.35-1.57c0-.55.07-1.06.07-1.5s0-.95-.07-1.51a6.19,6.19,0,0,0-.35-1.57,3.08,3.08,0,0,0-.81-1.23A2,2,0,0,0,152.56,237.33Z"/><path d="M162.61,242q0-.42,0-.84c0-.27,0-.55-.05-.83h1.13v1.14h0a2.41,2.41,0,0,1,1.06-1,2.94,2.94,0,0,1,1.35-.34,3.83,3.83,0,0,1,.65.06,2.28,2.28,0,0,1,.66.24,2,2,0,0,1,.6.47,2.47,2.47,0,0,1,.48.78,2.41,2.41,0,0,1,1-1.13,2.79,2.79,0,0,1,1.45-.42,2.73,2.73,0,0,1,2.13.76,3.12,3.12,0,0,1,.69,2.17v4.75h-1.06v-4.37a3.13,3.13,0,0,0-.4-1.74,1.64,1.64,0,0,0-1.49-.61,2,2,0,0,0-1,.23,1.93,1.93,0,0,0-.65.62,2.84,2.84,0,0,0-.36.87,4.83,4.83,0,0,0-.11,1v4h-1.06v-4.37a3.13,3.13,0,0,0-.4-1.74,1.62,1.62,0,0,0-1.48-.61l-.44.06a1.74,1.74,0,0,0-.72.36,2.67,2.67,0,0,0-.66.86,3.51,3.51,0,0,0-.3,1.6v3.84h-1Z"/><path d="M176.24,242c0-.28,0-.56,0-.84l-.06-.83h1.14v1.14h0a2.41,2.41,0,0,1,1.06-1,3,3,0,0,1,1.35-.34,3.74,3.74,0,0,1,.65.06,2.45,2.45,0,0,1,.67.24,2.34,2.34,0,0,1,.6.47,2.65,2.65,0,0,1,.47.78,2.41,2.41,0,0,1,1-1.13,2.79,2.79,0,0,1,1.45-.42,2.73,2.73,0,0,1,2.13.76,3.12,3.12,0,0,1,.69,2.17v4.75h-1.06v-4.37a3.13,3.13,0,0,0-.4-1.74,1.63,1.63,0,0,0-1.49-.61,1.82,1.82,0,0,0-1.64.85,2.84,2.84,0,0,0-.36.87,4.83,4.83,0,0,0-.11,1v4h-1v-4.37a3.22,3.22,0,0,0-.4-1.74,1.65,1.65,0,0,0-1.49-.61l-.44.06a1.65,1.65,0,0,0-.71.36,2.55,2.55,0,0,0-.67.86,3.52,3.52,0,0,0-.29,1.6v3.84h-1.06Z"/></g><line class="cls-2" x1="88.11" y1="227.53" x2="210.81" y2="227.53"/><line class="cls-2" x1="88.11" y1="227.28" x2="88.11" y2="227.79"/><line class="cls-2" x1="210.81" y1="227.28" x2="210.81" y2="227.79"/><line class="cls-2" x1="88.11" y1="225.32" x2="88.11" y2="229.74"/><line class="cls-2" x1="210.81" y1="225.32" x2="210.81" y2="229.74"/><line class="cls-2" x1="69.91" y1="115.73" x2="69.91" y2="47.04"/><line class="cls-2" x1="68.07" y1="47.02" x2="71.61" y2="47.02"/><line class="cls-2" x1="67.39" y1="115.73" x2="72.44" y2="115.73"/><g class="cls-1"><path d="M56.28,116.2v-1.63h1v1.63H60v1.15H57.33v4.9H56l-7.33-4.58V116.2Zm-6.43,1.15v0l6.43,3.91v-3.94Z"/><path d="M48.5,109.51a3.24,3.24,0,0,1,.56-2,3.77,3.77,0,0,1,1.43-1.16,6,6,0,0,1,1.89-.56,13.82,13.82,0,0,1,2-.15,13.58,13.58,0,0,1,2,.15,6.17,6.17,0,0,1,1.9.56,3.66,3.66,0,0,1,1.42,1.16,3.75,3.75,0,0,1,0,3.94,3.78,3.78,0,0,1-1.42,1.17,6.77,6.77,0,0,1-1.9.56,15.09,15.09,0,0,1-2,.14,15.36,15.36,0,0,1-2-.14,6.6,6.6,0,0,1-1.89-.56,3.89,3.89,0,0,1-1.43-1.17A3.24,3.24,0,0,1,48.5,109.51Zm1.06,0a2.09,2.09,0,0,0,.49,1.47,3.2,3.2,0,0,0,1.24.8,6.11,6.11,0,0,0,1.56.35c.56.05,1.06.07,1.51.07s1,0,1.5-.07a6.09,6.09,0,0,0,1.57-.35,3.17,3.17,0,0,0,1.23-.8,2.09,2.09,0,0,0,.5-1.47,2.05,2.05,0,0,0-.5-1.46,3.08,3.08,0,0,0-1.23-.81,5.7,5.7,0,0,0-1.57-.34c-.55-.05-1-.08-1.5-.08s-1,0-1.51.08a5.71,5.71,0,0,0-1.56.34,3.11,3.11,0,0,0-1.24.81A2,2,0,0,0,49.56,109.51Z"/><path d="M48.5,100.62a3.24,3.24,0,0,1,.56-2,3.89,3.89,0,0,1,1.43-1.17,6.3,6.3,0,0,1,1.89-.56,13.76,13.76,0,0,1,2-.14,13.53,13.53,0,0,1,2,.14,6.45,6.45,0,0,1,1.9.56,3.78,3.78,0,0,1,1.42,1.17,3.73,3.73,0,0,1,0,3.93,3.78,3.78,0,0,1-1.42,1.17,6.17,6.17,0,0,1-1.9.56,13.58,13.58,0,0,1-2,.15,13.82,13.82,0,0,1-2-.15,6,6,0,0,1-1.89-.56,3.89,3.89,0,0,1-1.43-1.17A3.21,3.21,0,0,1,48.5,100.62Zm1.06,0a2.08,2.08,0,0,0,.49,1.46,3.11,3.11,0,0,0,1.24.81,6.1,6.1,0,0,0,1.56.34c.56,0,1.06.07,1.51.07s1,0,1.5-.07a6.09,6.09,0,0,0,1.57-.34,3.08,3.08,0,0,0,1.23-.81,2.4,2.4,0,0,0,0-2.93,3.08,3.08,0,0,0-1.23-.81A6.09,6.09,0,0,0,55.86,98c-.55,0-1-.07-1.5-.07s-1,0-1.51.07a6.1,6.1,0,0,0-1.56.34,3.11,3.11,0,0,0-1.24.81A2.09,2.09,0,0,0,49.56,100.62Z"/><path d="M48.5,91.72a3.24,3.24,0,0,1,.56-2,3.89,3.89,0,0,1,1.43-1.17A6.6,6.6,0,0,1,52.38,88a15.36,15.36,0,0,1,2-.14,15.09,15.09,0,0,1,2,.14,6.77,6.77,0,0,1,1.9.56,3.78,3.78,0,0,1,1.42,1.17,3.75,3.75,0,0,1,0,3.94,3.78,3.78,0,0,1-1.42,1.17,6.77,6.77,0,0,1-1.9.56,15.09,15.09,0,0,1-2,.14,15.36,15.36,0,0,1-2-.14,6.6,6.6,0,0,1-1.89-.56,3.89,3.89,0,0,1-1.43-1.17A3.24,3.24,0,0,1,48.5,91.72Zm1.06,0a2,2,0,0,0,.49,1.46,3.11,3.11,0,0,0,1.24.81,6.11,6.11,0,0,0,1.56.35c.56,0,1.06.07,1.51.07s1,0,1.5-.07A6.09,6.09,0,0,0,57.43,94a3.08,3.08,0,0,0,1.23-.81,2.38,2.38,0,0,0,0-2.92,3.08,3.08,0,0,0-1.23-.81,6.09,6.09,0,0,0-1.57-.35c-.55,0-1-.07-1.5-.07s-1,0-1.51.07a6.11,6.11,0,0,0-1.56.35,3.11,3.11,0,0,0-1.24.81A2,2,0,0,0,49.56,91.72Z"/><path d="M54.2,81.67c-.28,0-.56,0-.83,0l-.84,0V80.62h1.14v0a2.41,2.41,0,0,1-1-1.06,2.94,2.94,0,0,1-.34-1.35,3,3,0,0,1,.07-.65,2.25,2.25,0,0,1,.23-.66,2,2,0,0,1,.47-.6,2.47,2.47,0,0,1,.78-.48,2.45,2.45,0,0,1-1.13-1,3.07,3.07,0,0,1,.34-3.58,3.12,3.12,0,0,1,2.17-.69H60v1.06H55.65a3.16,3.16,0,0,0-1.74.4,1.64,1.64,0,0,0-.61,1.49,2,2,0,0,0,.23,1,1.93,1.93,0,0,0,.62.65,3.07,3.07,0,0,0,.87.36,4.9,4.9,0,0,0,1,.11h4v1.06H55.65a3.16,3.16,0,0,0-1.74.4,1.62,1.62,0,0,0-.61,1.48,2.52,2.52,0,0,0,.07.44,1.71,1.71,0,0,0,.35.72,2.67,2.67,0,0,0,.86.66,3.53,3.53,0,0,0,1.6.3H60v1Z"/><path d="M54.2,68l-.83,0-.84.06V67h1.14v0a2.41,2.41,0,0,1-1-1.06,2.91,2.91,0,0,1-.27-2,2.42,2.42,0,0,1,.23-.67,2.34,2.34,0,0,1,.47-.6,2.65,2.65,0,0,1,.78-.47,2.45,2.45,0,0,1-1.13-1,3.07,3.07,0,0,1,.34-3.58,3.12,3.12,0,0,1,2.17-.69H60v1.06H55.65a3.16,3.16,0,0,0-1.74.4,1.63,1.63,0,0,0-.61,1.49,1.82,1.82,0,0,0,.85,1.64,3.07,3.07,0,0,0,.87.36,4.9,4.9,0,0,0,1,.11h4v1H55.65a3.25,3.25,0,0,0-1.74.4,1.65,1.65,0,0,0-.61,1.49,2.52,2.52,0,0,0,.07.44,1.62,1.62,0,0,0,.35.71,2.55,2.55,0,0,0,.86.67,3.69,3.69,0,0,0,1.6.29H60V68Z"/></g><line class="cls-2" x1="69.91" y1="216.84" x2="69.91" y2="115.76"/><line class="cls-2" x1="68.07" y1="115.73" x2="71.61" y2="115.73"/><line class="cls-2" x1="67.39" y1="216.84" x2="72.44" y2="216.84"/><g class="cls-1"><path d="M56.28,195.74v-1.63h1v1.63H60v1.16H57.33v4.89H56l-7.33-4.57v-1.48Zm-6.43,1.16v0l6.43,3.9V196.9Z"/><path d="M55.16,187.68l0,0a2.06,2.06,0,0,1,.28.73,3.69,3.69,0,0,1,.1.84,3.63,3.63,0,0,1-.26,1.37,3.31,3.31,0,0,1-.73,1.09,3.25,3.25,0,0,1-1.11.73,3.53,3.53,0,0,1-1.4.27,3.48,3.48,0,0,1-1.43-.28,3.24,3.24,0,0,1-1.1-.76,3.49,3.49,0,0,1-.72-1.17,4.31,4.31,0,0,1,0-2.95,3.54,3.54,0,0,1,.72-1.16,3.27,3.27,0,0,1,1.1-.77,3.64,3.64,0,0,1,1.43-.27,4.3,4.3,0,0,1,1.64.28,9.55,9.55,0,0,1,1.4.69l5,3.06v1.36ZM52,186.53a2.66,2.66,0,0,0-1,.18,2.24,2.24,0,0,0-.76.52,2.38,2.38,0,0,0-.51.8,3,3,0,0,0,0,2.05,2.29,2.29,0,0,0,.51.8,2.24,2.24,0,0,0,.76.52,2.84,2.84,0,0,0,2,0,2.18,2.18,0,0,0,.77-.52,2.29,2.29,0,0,0,.51-.8,3.18,3.18,0,0,0,0-2.05,2.38,2.38,0,0,0-.51-.8,2.18,2.18,0,0,0-.77-.52A2.64,2.64,0,0,0,52,186.53Z"/><path d="M48.5,180.16a3.24,3.24,0,0,1,.56-2A3.89,3.89,0,0,1,50.49,177a6.6,6.6,0,0,1,1.89-.56,15.36,15.36,0,0,1,2-.14,15.09,15.09,0,0,1,2,.14,6.77,6.77,0,0,1,1.9.56,3.78,3.78,0,0,1,1.42,1.17,3.75,3.75,0,0,1,0,3.94,3.78,3.78,0,0,1-1.42,1.17,6.77,6.77,0,0,1-1.9.56,15.09,15.09,0,0,1-2,.14,15.36,15.36,0,0,1-2-.14,6.6,6.6,0,0,1-1.89-.56,3.89,3.89,0,0,1-1.43-1.17A3.24,3.24,0,0,1,48.5,180.16Zm1.06,0a2,2,0,0,0,.49,1.46,3.11,3.11,0,0,0,1.24.81,6.11,6.11,0,0,0,1.56.35c.56,0,1.06.07,1.51.07s1,0,1.5-.07a6.09,6.09,0,0,0,1.57-.35,3.08,3.08,0,0,0,1.23-.81,2.38,2.38,0,0,0,0-2.92,3.08,3.08,0,0,0-1.23-.81,6.09,6.09,0,0,0-1.57-.35c-.55,0-1-.07-1.5-.07s-1,0-1.51.07a6.11,6.11,0,0,0-1.56.35,3.11,3.11,0,0,0-1.24.81A2,2,0,0,0,49.56,180.16Z"/><path d="M54.2,170.11c-.28,0-.56,0-.83,0l-.84.05v-1.13h1.14v0a2.41,2.41,0,0,1-1-1.06,2.94,2.94,0,0,1-.34-1.35,3.07,3.07,0,0,1,.07-.65,2.25,2.25,0,0,1,.23-.66,2,2,0,0,1,.47-.6,2.47,2.47,0,0,1,.78-.48,2.45,2.45,0,0,1-1.13-1,3.07,3.07,0,0,1,.34-3.58,3.12,3.12,0,0,1,2.17-.68H60V160H55.65a3.16,3.16,0,0,0-1.74.4,1.64,1.64,0,0,0-.61,1.49,2,2,0,0,0,.23,1,1.93,1.93,0,0,0,.62.65,3.07,3.07,0,0,0,.87.36,4.9,4.9,0,0,0,1,.11h4v1.06H55.65a3.16,3.16,0,0,0-1.74.4A1.63,1.63,0,0,0,53.3,167a2.46,2.46,0,0,0,.07.43,1.71,1.71,0,0,0,.35.72,2.67,2.67,0,0,0,.86.66,3.53,3.53,0,0,0,1.6.3H60v1.05Z"/><path d="M54.2,156.48l-.83,0-.84.06v-1.14h1.14v0a2.41,2.41,0,0,1-1-1.06,2.91,2.91,0,0,1-.27-2,2.25,2.25,0,0,1,.23-.66,2.22,2.22,0,0,1,.47-.61,2.65,2.65,0,0,1,.78-.47,2.45,2.45,0,0,1-1.13-1A3.07,3.07,0,0,1,53.1,146a3.12,3.12,0,0,1,2.17-.69H60v1.06H55.65a3.16,3.16,0,0,0-1.74.4,1.64,1.64,0,0,0-.61,1.49,2,2,0,0,0,.23,1,1.93,1.93,0,0,0,.62.65,3.07,3.07,0,0,0,.87.36,4.9,4.9,0,0,0,1,.11h4v1H55.65a3.25,3.25,0,0,0-1.74.4,1.65,1.65,0,0,0-.61,1.49,2.52,2.52,0,0,0,.07.44,1.62,1.62,0,0,0,.35.71,2.55,2.55,0,0,0,.86.67,3.55,3.55,0,0,0,1.6.29H60v1.06Z"/></g><rect class="cls-3" x="149.48" y="47.02" width="1.58" height="69.66"/><path class="cls-3" d="M150.38,116.68a29.93,29.93,0,0,1-5.47-.29c-1.2-.39-2.09,0-2.29.52,0,0-5,.19-6.25,0a3.09,3.09,0,0,0-2.58.59,27.76,27.76,0,0,0-3.08,4.75c-.39,1.1-1.47,2-6.05,6s-12.23,7.14-12.23,7.14-3.35-1.68-4.06-3.47c0,0-1.83-4.48-6.38,6.25,0,0-5.69.68-8.14-3.28,0,0-2-4-6.26,4.29A48.51,48.51,0,0,0,81,162.78c0,13.22,4,23.53,10.24,30.59a2.36,2.36,0,0,0,2.88,0c1.67-1.08,8.76-2.19,19.46,5.07S125.15,211,125.15,211s-.13,2.68,4.46,4.28,5.88,1.28,6.86.4,1.35-1.77,2-1.38,3.72,4.53,6,2.17a9.58,9.58,0,0,1,11.81-.3s1.58,2.88,4.16-1c0,0,3.18-2.88,5.17-.2,0,0,1.38,2.29,6.05-.3s4.68-3.1,4.68-4.28,4.87-8.15,10.63-11.42,13.88-9,20.45-6.84c0,0,1.9,2.29,4.29-.19s9.72-12.41,9.72-27.52-4.45-22.74-9.92-30.59c0,0-1.63-2.68-3.59.39a8.33,8.33,0,0,1-7.34,3.57s-3-8.15-5.36-8.15c0,0-.82-.07-1.4,1.31s-2.17,4.26-4.56,4.36c0,0-17.1-6.65-21.36-17.58,0,0-.72-2.09-2.29-1.89s-4.06.39-4.06.39a2.3,2.3,0,0,0-1.4-.2,7.53,7.53,0,0,1-1.77.2s.07-.79-1.51-.49S150.38,116.68,150.38,116.68Z"/><path class="cls-3" d="M142.62,116.91a22.06,22.06,0,0,0-1.79,4.94m17.4-5.66a24,24,0,0,1,1.57,5.37m-17.08,15.11s4.75,1.08,6.84-5.17c0,0,.23-1.33.92-1.11s.59,1.21.59,1.21,4,10,12,10.44m26-6.68s-3.27,1-8.64-.68m-68.14.59s3.86,2.12,8.14-1.48m-18.58,4.26a81.78,81.78,0,0,0-4.35,26.33c0,14.89,7,28.67,7.75,29.49a2.4,2.4,0,0,0,3.27-.4,7.4,7.4,0,0,1,7.53,2.09m30.82-.19S149,193,150,194.78s1.77,2,1.87.78a2.41,2.41,0,0,1,2.29-1.9m-2.48,2.39L151,131.5m9.42,83.63s.72-.92,1.21-4.68m-22.84,1.11s1.06,6.81,4.94,5.54M175,198.64s13.93-9.06,19.07-5.07c0,0,1.51,1.58,3.48-1.8a55.13,55.13,0,0,0,7.33-27.68,86,86,0,0,0-4.43-26.44"/></svg>