<svg id="WAN_CW" xmlns="http://www.w3.org/2000/svg" viewBox="0 0 300 263"><defs><style>.cls-1,.cls-3{fill:none;stroke-width:0.5px;}.cls-1{stroke:#000;}.cls-2{isolation:isolate;}.cls-3{stroke:#1d1d1b;stroke-linecap:round;stroke-linejoin:round;}</style></defs><title>wan-ceiling-wall-grawunder-flos-F9550039-spech-tech-02-300x263-01</title><line class="cls-1" x1="203.88" y1="166.27" x2="94.73" y2="166.27"/><line class="cls-1" x1="203.88" y1="168.36" x2="203.88" y2="164.05"/><line class="cls-1" x1="94.73" y1="168.36" x2="94.73" y2="164.05"/><g class="cls-2"><path d="M135.43,179.19a3.82,3.82,0,0,1,.68,1.16,4.24,4.24,0,0,1,.25,1.45,4.07,4.07,0,0,1-.3,1.57,3.78,3.78,0,0,1-.82,1.24,3.64,3.64,0,0,1-1.26.83,4.35,4.35,0,0,1-1.61.29,4.15,4.15,0,0,1-1.4-.22,3.72,3.72,0,0,1-1.11-.61L128.79,186l-.51-.5,1.05-1.08a3.75,3.75,0,0,1-.68-1.18,4.17,4.17,0,0,1-.24-1.43,4,4,0,0,1,.29-1.57,3.7,3.7,0,0,1,.83-1.25,3.82,3.82,0,0,1,1.25-.82,4.17,4.17,0,0,1,1.59-.3,4.24,4.24,0,0,1,1.4.22,4,4,0,0,1,1.15.61l1.05-1.08.52.49Zm-1.25.26a2.64,2.64,0,0,0-1.81-.63,2.91,2.91,0,0,0-1.17.23,2.6,2.6,0,0,0-.88.64,2.77,2.77,0,0,0-.56.94,3.2,3.2,0,0,0-.2,1.17,3,3,0,0,0,.54,1.82Zm-3.6,4.72a2.6,2.6,0,0,0,.8.44,2.86,2.86,0,0,0,1,.16,2.79,2.79,0,0,0,1.18-.23,2.57,2.57,0,0,0,.89-.63A3.07,3.07,0,0,0,135,183a3.51,3.51,0,0,0,.2-1.17,3.16,3.16,0,0,0-.55-1.83Z"/><path d="M147.14,185.54H146v-9.89l-2,1.8-.72-.87,2.88-2.37h1Z"/><path d="M156,185.54h-1.16v-9.89l-2,1.8-.72-.87,2.88-2.37h1Z"/><path d="M166.8,175.27h-4.62l-.08,3.41a3.51,3.51,0,0,1,.75-.21,5,5,0,0,1,.77-.06,3.83,3.83,0,0,1,1.46.27,3.22,3.22,0,0,1,1.12.76,3.45,3.45,0,0,1,.74,1.15,4.14,4.14,0,0,1,0,2.94,3.48,3.48,0,0,1-.8,1.17,3.6,3.6,0,0,1-1.21.76,4.17,4.17,0,0,1-1.51.27,3.75,3.75,0,0,1-1.94-.51,3.31,3.31,0,0,1-1.33-1.5l1.15-.5a2.69,2.69,0,0,0,.9,1.07,2.28,2.28,0,0,0,1.32.39,2.6,2.6,0,0,0,1-.2,2.75,2.75,0,0,0,.8-.54,2.52,2.52,0,0,0,.74-1.79,2.79,2.79,0,0,0-.21-1.09,2.49,2.49,0,0,0-.57-.85,2.6,2.6,0,0,0-.88-.56,3.37,3.37,0,0,0-1.12-.19,4.53,4.53,0,0,0-1.21.17,5.14,5.14,0,0,0-1.14.46l.11-5.88h5.77Z"/><path d="M173.86,179.72c0-.28,0-.56,0-.83l-.06-.84h1.14v1.14h0a2.41,2.41,0,0,1,1.06-1,2.91,2.91,0,0,1,2-.27,2.42,2.42,0,0,1,.67.23,2.34,2.34,0,0,1,.6.47,2.65,2.65,0,0,1,.47.78,2.45,2.45,0,0,1,1-1.13,3.07,3.07,0,0,1,3.58.34,3.12,3.12,0,0,1,.69,2.17v4.75H184v-4.37a3.16,3.16,0,0,0-.4-1.74,1.63,1.63,0,0,0-1.49-.61,1.82,1.82,0,0,0-1.64.85,3.07,3.07,0,0,0-.36.87,4.9,4.9,0,0,0-.11,1v4h-1.05v-4.37a3.25,3.25,0,0,0-.4-1.74,1.65,1.65,0,0,0-1.49-.61,2.52,2.52,0,0,0-.44.07,1.62,1.62,0,0,0-.71.35,2.55,2.55,0,0,0-.67.86,3.55,3.55,0,0,0-.29,1.6v3.84h-1.06Z"/><path d="M187.49,179.72c0-.28,0-.56,0-.83l-.06-.84h1.14v1.14h0a2.47,2.47,0,0,1,1.06-1,3,3,0,0,1,1.36-.34,2.91,2.91,0,0,1,.64.07,2.42,2.42,0,0,1,.67.23,2.34,2.34,0,0,1,.6.47,2.65,2.65,0,0,1,.47.78,2.42,2.42,0,0,1,1-1.13,2.73,2.73,0,0,1,1.44-.42,2.76,2.76,0,0,1,2.13.76,3.12,3.12,0,0,1,.69,2.17v4.75H197.6v-4.37a3.16,3.16,0,0,0-.4-1.74,1.62,1.62,0,0,0-1.48-.61,2,2,0,0,0-1,.23,1.9,1.9,0,0,0-.64.62,2.58,2.58,0,0,0-.36.87,4.31,4.31,0,0,0-.12,1v4h-1v-4.37a3.16,3.16,0,0,0-.4-1.74,1.64,1.64,0,0,0-1.49-.61,2.67,2.67,0,0,0-.44.07,1.62,1.62,0,0,0-.71.35,2.55,2.55,0,0,0-.67.86,3.69,3.69,0,0,0-.29,1.6v3.84h-1.06Z"/></g><line class="cls-1" x1="82.42" y1="158.13" x2="83.29" y2="72.35"/><line class="cls-1" x1="79.72" y1="158.1" x2="85.13" y2="158.16"/><line class="cls-1" x1="80.59" y1="72.33" x2="86" y2="72.38"/><g class="cls-2"><path d="M67.53,124.58a2.44,2.44,0,0,1-.39.68,2.51,2.51,0,0,1-.59.53,3,3,0,0,1-.73.34,2.94,2.94,0,0,1-.84.12,2.73,2.73,0,0,1-1.22-.27,2.6,2.6,0,0,1-.93-.7,3,3,0,0,1-.58-1,3.81,3.81,0,0,1-.2-1.22,3.76,3.76,0,0,1,.22-1.21,3.16,3.16,0,0,1,.61-1,2.71,2.71,0,0,1,.94-.68,2.91,2.91,0,0,1,1.23-.25,3,3,0,0,1,.83.14,3.1,3.1,0,0,1,.73.36,2.7,2.7,0,0,1,.58.54,2.55,2.55,0,0,1,.37.69h0a2.7,2.7,0,0,1,1.07-1.53,3.25,3.25,0,0,1,1.93-.56,3,3,0,0,1,1.32.31,3.44,3.44,0,0,1,1,.8,3.54,3.54,0,0,1,.64,1.14,4.28,4.28,0,0,1,0,2.74,3.73,3.73,0,0,1-.66,1.13,3.27,3.27,0,0,1-1,.77,2.88,2.88,0,0,1-1.33.28,3.14,3.14,0,0,1-1.91-.59,2.68,2.68,0,0,1-1-1.55Zm-2.4-3.51a1.93,1.93,0,0,0-.8.14,1.87,1.87,0,0,0-.64.42,1.93,1.93,0,0,0-.42.63,2.15,2.15,0,0,0-.16.8,2.28,2.28,0,0,0,.14.8,2.06,2.06,0,0,0,.41.65,2,2,0,0,0,.63.43,2.11,2.11,0,0,0,.8.16,2.32,2.32,0,0,0,.8-.14,1.87,1.87,0,0,0,.64-.42,2,2,0,0,0,.42-.64,2.08,2.08,0,0,0,.16-.8,2.36,2.36,0,0,0-.14-.8,2.13,2.13,0,0,0-.41-.64,2,2,0,0,0-.63-.43A1.94,1.94,0,0,0,65.13,121.07Zm5.29-.36a2.36,2.36,0,0,0-.93.16,2.48,2.48,0,0,0-.74.48,2.21,2.21,0,0,0-.49.76,2.74,2.74,0,0,0-.19,1,2.68,2.68,0,0,0,.17,1,2.1,2.1,0,0,0,.48.77,2.18,2.18,0,0,0,.73.49,2.29,2.29,0,0,0,.92.19,2.35,2.35,0,0,0,.92-.17,2.15,2.15,0,0,0,1.23-1.23,2.9,2.9,0,0,0,0-2,2,2,0,0,0-.48-.77,2.21,2.21,0,0,0-.73-.5A2.27,2.27,0,0,0,70.42,120.71Z"/><path d="M68.81,112.85l0,0a1.89,1.89,0,0,1,.28.73,4.46,4.46,0,0,1,.09.84,3.64,3.64,0,0,1-.28,1.37,3.29,3.29,0,0,1-.74,1.09,3.35,3.35,0,0,1-1.11.71,3.91,3.91,0,0,1-2.83,0,3.34,3.34,0,0,1-1.1-.78,3.79,3.79,0,0,1-.71-1.18,4.36,4.36,0,0,1-.24-1.47,4,4,0,0,1,.28-1.47,3.23,3.23,0,0,1,.73-1.16,3.18,3.18,0,0,1,1.11-.76,3.64,3.64,0,0,1,1.43-.26,4.57,4.57,0,0,1,1.64.3,9.6,9.6,0,0,1,1.39.71l4.94,3.11V116Zm-3.14-1.19a2.64,2.64,0,0,0-1,.18,2.16,2.16,0,0,0-.77.51,2.46,2.46,0,0,0-.52.8,2.73,2.73,0,0,0-.19,1,2.8,2.8,0,0,0,.17,1,2.57,2.57,0,0,0,.5.81,2.31,2.31,0,0,0,.76.53,2.64,2.64,0,0,0,1,.19,2.69,2.69,0,0,0,1-.17,2.18,2.18,0,0,0,.78-.52,2.24,2.24,0,0,0,.51-.79,3,3,0,0,0,0-2,2.13,2.13,0,0,0-.5-.8,2.08,2.08,0,0,0-.77-.53A2.57,2.57,0,0,0,65.67,111.66Z"/><path d="M67.94,104.17c-.28,0-.55,0-.83,0l-.83,0v-1.14l1.13,0v0a2.47,2.47,0,0,1-1-1.07,3.11,3.11,0,0,1-.32-1.36,3.79,3.79,0,0,1,.07-.64,2.61,2.61,0,0,1,.24-.66,1.93,1.93,0,0,1,.48-.6,2.49,2.49,0,0,1,.79-.46,2.45,2.45,0,0,1-1.13-1,2.86,2.86,0,0,1-.4-1.45A2.73,2.73,0,0,1,67,93.68,3.1,3.1,0,0,1,69.13,93l4.75,0v1l-4.37,0a3.18,3.18,0,0,0-1.75.38,1.66,1.66,0,0,0-.62,1.48,1.92,1.92,0,0,0,.22,1,1.81,1.81,0,0,0,.61.65,2.63,2.63,0,0,0,.87.37,4.17,4.17,0,0,0,1,.12l4,0v1.06l-4.37,0a3.18,3.18,0,0,0-1.75.38,1.62,1.62,0,0,0-.62,1.48,3.61,3.61,0,0,0,.06.44,1.68,1.68,0,0,0,.34.72,2.68,2.68,0,0,0,.86.67,3.6,3.6,0,0,0,1.6.31l3.84,0v1.06Z"/><path d="M68.08,90.54c-.28,0-.56,0-.83,0l-.83,0V89.46h1.13v0a2.53,2.53,0,0,1-1-1.07A3,3,0,0,1,66.26,87a3.68,3.68,0,0,1,.07-.64,2.45,2.45,0,0,1,.24-.67,2,2,0,0,1,.48-.59,2.23,2.23,0,0,1,.79-.46,2.5,2.5,0,0,1-1.13-1,2.76,2.76,0,0,1-.4-1.45,2.73,2.73,0,0,1,.78-2.12,3.1,3.1,0,0,1,2.18-.67l4.75.05v1l-4.37,0a3.18,3.18,0,0,0-1.75.38,1.63,1.63,0,0,0-.62,1.48,1.92,1.92,0,0,0,.22,1,1.81,1.81,0,0,0,.61.65,2.63,2.63,0,0,0,.87.37,4.17,4.17,0,0,0,1,.12l4,0v1.06l-4.37-.05a3.18,3.18,0,0,0-1.75.39,1.62,1.62,0,0,0-.62,1.48,3.61,3.61,0,0,0,.06.44,1.68,1.68,0,0,0,.34.72,2.68,2.68,0,0,0,.86.67,3.6,3.6,0,0,0,1.6.31l3.84,0,0,1.06Z"/></g><line class="cls-1" x1="181.42" y1="64.59" x2="118.58" y2="64.85"/><line class="cls-1" x1="181.42" y1="65.61" x2="181.41" y2="63.51"/><line class="cls-1" x1="118.59" y1="65.87" x2="118.58" y2="63.77"/><g class="cls-2"><path d="M135,46h-4.62l-.08,3.41a3.35,3.35,0,0,1,.75-.21,5,5,0,0,1,.77-.06,3.83,3.83,0,0,1,1.46.27,3.22,3.22,0,0,1,1.12.76,3.45,3.45,0,0,1,.74,1.15,4,4,0,0,1,0,2.94,3.34,3.34,0,0,1-.8,1.17,3.51,3.51,0,0,1-1.21.76,4.36,4.36,0,0,1-1.51.28,3.69,3.69,0,0,1-1.94-.52,3.29,3.29,0,0,1-1.32-1.5l1.15-.5a2.61,2.61,0,0,0,.89,1.07,2.28,2.28,0,0,0,1.32.39,2.56,2.56,0,0,0,1-.2,2.51,2.51,0,0,0,.8-.54,2.52,2.52,0,0,0,.74-1.79,2.94,2.94,0,0,0-.2-1.09,2.83,2.83,0,0,0-.58-.86,2.73,2.73,0,0,0-.88-.55,3.37,3.37,0,0,0-1.12-.19,4.53,4.53,0,0,0-1.21.17,5.67,5.67,0,0,0-1.14.46l.1-5.87H135Z"/><path d="M140.85,44.72a3.24,3.24,0,0,1,2,.55A3.89,3.89,0,0,1,144,46.7a6,6,0,0,1,.56,1.89,13.82,13.82,0,0,1,.15,2,15.09,15.09,0,0,1-.14,2,6.77,6.77,0,0,1-.56,1.9,3.89,3.89,0,0,1-1.17,1.43,3.75,3.75,0,0,1-3.94,0,3.74,3.74,0,0,1-1.16-1.42,6.46,6.46,0,0,1-.57-1.9,15.36,15.36,0,0,1-.14-2,13.72,13.72,0,0,1,.14-2,6.45,6.45,0,0,1,.56-1.9,3.86,3.86,0,0,1,1.17-1.42A3.14,3.14,0,0,1,140.85,44.72Zm0,1.05a2.09,2.09,0,0,0-1.46.5,3.19,3.19,0,0,0-.81,1.23,6.18,6.18,0,0,0-.34,1.57c-.05.55-.07,1.06-.07,1.5s0,1,.07,1.51a6.19,6.19,0,0,0,.35,1.57,3.08,3.08,0,0,0,.81,1.23,2.42,2.42,0,0,0,2.93,0,3.17,3.17,0,0,0,.8-1.23,6.09,6.09,0,0,0,.35-1.57c0-.55.07-1,.07-1.5s0-1-.08-1.5a6.09,6.09,0,0,0-.34-1.57,3.08,3.08,0,0,0-.81-1.23A2.09,2.09,0,0,0,140.85,45.77Z"/><path d="M150.91,50.4c0-.27,0-.55,0-.83s0-.55-.06-.83H152v1.14h0a2.52,2.52,0,0,1,1.07-1,3.05,3.05,0,0,1,1.35-.33,3.83,3.83,0,0,1,.65.06,2.25,2.25,0,0,1,.66.23,2.34,2.34,0,0,1,.6.47,2.44,2.44,0,0,1,.47.79,2.56,2.56,0,0,1,1-1.14,2.76,2.76,0,0,1,1.45-.42,2.69,2.69,0,0,1,2.12.76,3.12,3.12,0,0,1,.69,2.17v4.75H161V51.85a3.25,3.25,0,0,0-.4-1.74,1.64,1.64,0,0,0-1.49-.61,2,2,0,0,0-1,.23,2,2,0,0,0-.65.62,2.8,2.8,0,0,0-.36.87,4.9,4.9,0,0,0-.11,1v4H156V51.86a3.17,3.17,0,0,0-.4-1.75,1.66,1.66,0,0,0-1.49-.6l-.44.06a1.67,1.67,0,0,0-.71.35,2.61,2.61,0,0,0-.66.87,3.51,3.51,0,0,0-.3,1.6v3.84h-1.06Z"/><path d="M164.54,50.39c0-.27,0-.55,0-.83s0-.55,0-.83h1.13v1.14h0a2.5,2.5,0,0,1,1.06-1,3.05,3.05,0,0,1,1.35-.33,3.83,3.83,0,0,1,.65.06,2.25,2.25,0,0,1,.66.23,2,2,0,0,1,.6.47,2.64,2.64,0,0,1,.48.79,2.48,2.48,0,0,1,1-1.14,2.76,2.76,0,0,1,1.45-.42,2.73,2.73,0,0,1,2.13.76,3.12,3.12,0,0,1,.69,2.17v4.75h-1.06V51.84a3.16,3.16,0,0,0-.4-1.74,1.64,1.64,0,0,0-1.49-.61,1.87,1.87,0,0,0-1.64.85,3.07,3.07,0,0,0-.36.87,4.9,4.9,0,0,0-.11,1v4H169.6V51.85a3.25,3.25,0,0,0-.41-1.75,1.64,1.64,0,0,0-1.48-.6l-.44.06a1.71,1.71,0,0,0-.72.35,2.61,2.61,0,0,0-.66.87,3.49,3.49,0,0,0-.29,1.6v3.84h-1.06Z"/></g><path class="cls-3" d="M201.16,157.83h-.85m-102,0h-.86m-2.23,0h2.23m103.71,0h2.23m0,0a.44.44,0,0,0,.34-.14.49.49,0,0,0,.15-.35m-109.15,0a.53.53,0,0,0,.15.35.48.48,0,0,0,.34.14m108.35-35.54.31,35.05m-108.83-35-.32,35.05m108.84-35a54.29,54.29,0,0,0-29.93-48m-48.67,0a54.31,54.31,0,0,0-29.92,48M169,72.34h-3.84m-31.69,0h-3.84m39.86,0H169m-39.37,0h-.48m8.17,0h-3.85m6.27,0h-2.42m2.81,0h-.39m19.16,0H140.12m18.77,0h-.4m2.82,0h-2.42m6.26,0h-3.84m8.17,0,0,1m-40.36-1,0,1m44.19,0,0,1m-48-1v1m48-1H169.5m-40.38,0h-3.8m73,84.53h2m-98.92,0h97m-98,0h1.1m-3.08,0h2M125,74.26h.34m48.33,0h-.31m-44.21-1H169.5m3.83,1h-48"/></svg>