<svg id="wan" xmlns="http://www.w3.org/2000/svg" viewBox="0 0 300 263"><defs><style>.cls-1{isolation:isolate;}.cls-2,.cls-3,.cls-4{fill:none;stroke-width:0.5px;}.cls-2{stroke:#000;}.cls-3,.cls-4{stroke:#1d1d1b;}.cls-3{stroke-linecap:round;stroke-linejoin:round;}.cls-4{stroke-miterlimit:3.86;}</style></defs><title>wan-suspension-grawunder-flos-F9560039-spech-tech-02-300x263</title><g class="cls-1"><path d="M121.18,239.18a4,4,0,0,1,.68,1.15,4.28,4.28,0,0,1,.24,1.45,4,4,0,0,1-.29,1.57,3.73,3.73,0,0,1-2.08,2.07,4.2,4.2,0,0,1-1.61.3,4.42,4.42,0,0,1-1.4-.22,4,4,0,0,1-1.11-.61L114.54,246l-.52-.5,1.06-1.09a3.62,3.62,0,0,1-.69-1.17,4.27,4.27,0,0,1-.24-1.44,4,4,0,0,1,.3-1.56,3.71,3.71,0,0,1,2.08-2.08,4.29,4.29,0,0,1,1.59-.29,4.4,4.4,0,0,1,1.39.21,3.86,3.86,0,0,1,1.15.62l1.06-1.09.51.5Zm-1.25.25a2.69,2.69,0,0,0-1.81-.62,2.79,2.79,0,0,0-1.18.23,2.67,2.67,0,0,0-.88.63,3,3,0,0,0-.56,1,3.41,3.41,0,0,0-.2,1.16,3,3,0,0,0,.55,1.83Zm-3.6,4.72a2.72,2.72,0,0,0,.8.45,2.86,2.86,0,0,0,1,.16,3,3,0,0,0,1.18-.23,2.82,2.82,0,0,0,.88-.63,2.77,2.77,0,0,0,.57-1,3.2,3.2,0,0,0,.2-1.17,3.13,3.13,0,0,0-.54-1.82Z"/><path d="M132.89,245.53h-1.15v-9.89l-2,1.79-.72-.86,2.88-2.37h1Z"/><path d="M141.78,245.53h-1.15v-9.89l-2,1.79-.72-.86,2.88-2.37h1Z"/><path d="M152.55,235.25h-4.62l-.08,3.41a3.77,3.77,0,0,1,.75-.2,4,4,0,0,1,.77-.07,3.75,3.75,0,0,1,1.45.27,3.31,3.31,0,0,1,1.13.76,3.49,3.49,0,0,1,.74,1.16A4,4,0,0,1,153,242a3.65,3.65,0,0,1-.29,1.5,3.39,3.39,0,0,1-.8,1.17,3.72,3.72,0,0,1-1.2.76,4.19,4.19,0,0,1-1.52.27,3.71,3.71,0,0,1-1.93-.51,3.28,3.28,0,0,1-1.33-1.51l1.15-.49a2.53,2.53,0,0,0,.9,1.06,2.28,2.28,0,0,0,1.32.39,2.38,2.38,0,0,0,1-.2,2.64,2.64,0,0,0,.81-.53,2.46,2.46,0,0,0,.54-.8,2.54,2.54,0,0,0,.2-1,2.75,2.75,0,0,0-.21-1.09,2.69,2.69,0,0,0-.57-.86,2.57,2.57,0,0,0-.88-.55,3.18,3.18,0,0,0-1.12-.19,4.16,4.16,0,0,0-1.21.17,6,6,0,0,0-1.15.45l.12-5.87h5.77Z"/><path d="M159.61,239.7c0-.27,0-.55,0-.83s0-.55-.05-.83h1.13v1.14h0a2.5,2.5,0,0,1,1.06-1,3.05,3.05,0,0,1,1.35-.33,3.83,3.83,0,0,1,.65.06,2.25,2.25,0,0,1,.66.23,1.93,1.93,0,0,1,.6.48,2.47,2.47,0,0,1,.48.78,2.48,2.48,0,0,1,1-1.14,2.87,2.87,0,0,1,1.45-.41,2.73,2.73,0,0,1,2.13.76,3.11,3.11,0,0,1,.69,2.17v4.75h-1.06v-4.37a3.11,3.11,0,0,0-.4-1.74,1.64,1.64,0,0,0-1.49-.61,1.91,1.91,0,0,0-1,.23,1.84,1.84,0,0,0-.65.62,2.84,2.84,0,0,0-.36.87,4.74,4.74,0,0,0-.11,1v4h-1.06v-4.37a3.11,3.11,0,0,0-.4-1.74,1.62,1.62,0,0,0-1.48-.61l-.44.06a1.71,1.71,0,0,0-.72.35,2.72,2.72,0,0,0-.66.87,3.48,3.48,0,0,0-.3,1.6v3.84h-1Z"/><path d="M173.24,239.7c0-.27,0-.55,0-.83l-.06-.83h1.14v1.14h0a2.5,2.5,0,0,1,1.06-1,3.08,3.08,0,0,1,1.35-.33,3.74,3.74,0,0,1,.65.06,2.42,2.42,0,0,1,.67.23,2.19,2.19,0,0,1,.6.48,2.65,2.65,0,0,1,.47.78,2.48,2.48,0,0,1,1-1.14,2.87,2.87,0,0,1,1.45-.41,2.73,2.73,0,0,1,2.13.76,3.11,3.11,0,0,1,.69,2.17v4.75h-1.06v-4.37a3.11,3.11,0,0,0-.4-1.74,1.64,1.64,0,0,0-1.49-.61,1.82,1.82,0,0,0-1.64.85,2.84,2.84,0,0,0-.36.87,4.74,4.74,0,0,0-.11,1v4h-1v-4.37a3.2,3.2,0,0,0-.4-1.74,1.65,1.65,0,0,0-1.49-.61l-.44.06a1.62,1.62,0,0,0-.71.35,2.6,2.6,0,0,0-.67.87,3.49,3.49,0,0,0-.29,1.6v3.84h-1.06Z"/></g><line class="cls-2" x1="122.21" y1="226.48" x2="176.36" y2="226.48"/><line class="cls-2" x1="122.21" y1="226.34" x2="122.21" y2="226.62"/><line class="cls-2" x1="176.36" y1="226.34" x2="176.36" y2="226.62"/><line class="cls-2" x1="122.21" y1="225.27" x2="122.21" y2="227.69"/><line class="cls-2" x1="176.36" y1="225.27" x2="176.36" y2="227.69"/><line class="cls-2" x1="110.86" y1="174.51" x2="110.86" y2="73.49"/><line class="cls-2" x1="109.01" y1="73.46" x2="112.56" y2="73.46"/><line class="cls-2" x1="108.33" y1="174.51" x2="113.38" y2="174.51"/><g class="cls-1"><path d="M101,141.33v7.2H99.64L95.05,144l-.55-.51a4.64,4.64,0,0,0-.61-.46,3.25,3.25,0,0,0-.67-.34,2.26,2.26,0,0,0-.74-.13,2.05,2.05,0,0,0-.83.17,1.79,1.79,0,0,0-.62.47,2.23,2.23,0,0,0-.39.71,2.61,2.61,0,0,0-.14.85,2.32,2.32,0,0,0,.48,1.47,2.2,2.2,0,0,0,1.3.78l-.13,1.22a3.18,3.18,0,0,1-2-1.16,3.54,3.54,0,0,1-.72-2.24,4.64,4.64,0,0,1,.18-1.3,3.39,3.39,0,0,1,.55-1.09,2.69,2.69,0,0,1,2.21-1,3.51,3.51,0,0,1,1.2.2,4.9,4.9,0,0,1,1,.52,6.33,6.33,0,0,1,.91.73c.29.27.58.55.85.84l3.54,3.57v-5.95Z"/><path d="M94.93,137.42a2.25,2.25,0,0,1-.37.68,2.53,2.53,0,0,1-.59.54,3.07,3.07,0,0,1-.73.35,2.9,2.9,0,0,1-2.06-.13,2.69,2.69,0,0,1-.93-.69,3.07,3.07,0,0,1-.6-1,3.85,3.85,0,0,1-.2-1.22,3.81,3.81,0,0,1,.2-1.22,3.11,3.11,0,0,1,.6-1,2.8,2.8,0,0,1,.93-.68,2.91,2.91,0,0,1,1.23-.26,2.62,2.62,0,0,1,.83.13,2.73,2.73,0,0,1,.73.35,2.53,2.53,0,0,1,.59.54,2.14,2.14,0,0,1,.37.68h0a2.72,2.72,0,0,1,1-1.54,3.24,3.24,0,0,1,1.92-.58,2.92,2.92,0,0,1,1.33.3,3.29,3.29,0,0,1,1.66,1.92,4.15,4.15,0,0,1,.23,1.37,4.19,4.19,0,0,1-.23,1.37,3.29,3.29,0,0,1-1.66,1.92,3.05,3.05,0,0,1-1.33.29A3.23,3.23,0,0,1,96,139a2.72,2.72,0,0,1-1-1.54Zm-2.43-3.49a2.11,2.11,0,0,0-.8.15,2.13,2.13,0,0,0-.63.43,1.87,1.87,0,0,0-.42.64,2.07,2.07,0,0,0-.15.8,2.11,2.11,0,0,0,.15.8,2,2,0,0,0,.42.64,1.93,1.93,0,0,0,.63.42,2.11,2.11,0,0,0,.8.15,2.07,2.07,0,0,0,.8-.15,1.74,1.74,0,0,0,.63-.42,2,2,0,0,0,.42-.64,2.11,2.11,0,0,0,.15-.8,2.07,2.07,0,0,0-.15-.8,1.87,1.87,0,0,0-.42-.64,1.9,1.9,0,0,0-.63-.43A2.07,2.07,0,0,0,92.5,133.93Zm5.28-.41a2.51,2.51,0,0,0-.92.17,2.18,2.18,0,0,0-.73.49,2,2,0,0,0-.49.77,2.9,2.9,0,0,0,0,2,2.08,2.08,0,0,0,.49.76,2.34,2.34,0,0,0,.73.49,2.38,2.38,0,0,0,2.58-.49,2.21,2.21,0,0,0,.49-.76,3.06,3.06,0,0,0,0-2,2.16,2.16,0,0,0-.49-.77,2.33,2.33,0,0,0-.74-.49A2.51,2.51,0,0,0,97.78,133.52Z"/><path d="M89.45,127.05a3.19,3.19,0,0,1,.56-2,3.66,3.66,0,0,1,1.42-1.16,6.17,6.17,0,0,1,1.9-.56,13.58,13.58,0,0,1,2-.15,13.82,13.82,0,0,1,2,.15,6,6,0,0,1,1.89.56,3.77,3.77,0,0,1,1.43,1.16,3.75,3.75,0,0,1,0,3.94,3.89,3.89,0,0,1-1.43,1.17,6.3,6.3,0,0,1-1.89.56,13.76,13.76,0,0,1-2,.14,13.53,13.53,0,0,1-2-.14,6.45,6.45,0,0,1-1.9-.56A3.78,3.78,0,0,1,90,129,3.17,3.17,0,0,1,89.45,127.05Zm1,0a2.09,2.09,0,0,0,.5,1.47,3.3,3.3,0,0,0,1.23.81,6.09,6.09,0,0,0,1.57.34c.55.05,1,.07,1.5.07s1,0,1.51-.07a6.1,6.1,0,0,0,1.56-.34,3.3,3.3,0,0,0,1.23-.81,2,2,0,0,0,.5-1.47,2,2,0,0,0-.5-1.46,3.08,3.08,0,0,0-1.23-.81,5.71,5.71,0,0,0-1.56-.34c-.56,0-1.06-.08-1.51-.08s-1,0-1.5.08a5.7,5.7,0,0,0-1.57.34,3.08,3.08,0,0,0-1.23.81A2.07,2.07,0,0,0,90.5,127.05Z"/><path d="M89.45,118.16a3.17,3.17,0,0,1,.56-2A3.78,3.78,0,0,1,91.43,115a6.45,6.45,0,0,1,1.9-.56,13.53,13.53,0,0,1,2-.14,13.76,13.76,0,0,1,2,.14,6.3,6.3,0,0,1,1.89.56,3.89,3.89,0,0,1,1.43,1.17,3.73,3.73,0,0,1,0,3.93,3.7,3.7,0,0,1-1.43,1.17,6,6,0,0,1-1.89.56,13.82,13.82,0,0,1-2,.15,13.58,13.58,0,0,1-2-.15,6.17,6.17,0,0,1-1.9-.56A3.6,3.6,0,0,1,90,120.12,3.14,3.14,0,0,1,89.45,118.16Zm1,0a2.07,2.07,0,0,0,.5,1.46,3.08,3.08,0,0,0,1.23.81,5.7,5.7,0,0,0,1.57.34c.55,0,1,.08,1.5.08s1,0,1.51-.08a5.71,5.71,0,0,0,1.56-.34,3.08,3.08,0,0,0,1.23-.81,2,2,0,0,0,.5-1.46,2,2,0,0,0-.5-1.47,3.3,3.3,0,0,0-1.23-.81,6.1,6.1,0,0,0-1.56-.34c-.56-.05-1.06-.07-1.51-.07s-1,0-1.5.07a6.09,6.09,0,0,0-1.57.34,3.3,3.3,0,0,0-1.23.81A2.09,2.09,0,0,0,90.5,118.16Z"/><path d="M95.14,108.11l-.83,0-.83.06v-1.14h1.13v0a2.59,2.59,0,0,1-1-1.06,3.12,3.12,0,0,1-.33-1.36,3.72,3.72,0,0,1,.06-.64,2.42,2.42,0,0,1,.23-.67,2.34,2.34,0,0,1,.47-.6,2.85,2.85,0,0,1,.79-.47,2.45,2.45,0,0,1-1.14-1,3.09,3.09,0,0,1,.35-3.57,3.08,3.08,0,0,1,2.16-.69H101V98H96.6a3.17,3.17,0,0,0-1.75.4,1.64,1.64,0,0,0-.6,1.48,1.92,1.92,0,0,0,.23,1,1.87,1.87,0,0,0,.61.64,2.55,2.55,0,0,0,.88.36,4.17,4.17,0,0,0,1,.12h4v1H96.6a3.26,3.26,0,0,0-1.75.4,1.67,1.67,0,0,0-.6,1.49,3.61,3.61,0,0,0,.06.44,1.62,1.62,0,0,0,.35.71,2.55,2.55,0,0,0,.86.67,3.71,3.71,0,0,0,1.61.29H101v1.06Z"/><path d="M95.14,94.48c-.28,0-.55,0-.83,0l-.83.06V93.42h1.13v0a2.56,2.56,0,0,1-1-1.07A3.05,3.05,0,0,1,93.29,91a3.83,3.83,0,0,1,.06-.65,2.23,2.23,0,0,1,.7-1.26,2.63,2.63,0,0,1,.79-.47,2.45,2.45,0,0,1-1.14-1A3.09,3.09,0,0,1,94.05,84a3.08,3.08,0,0,1,2.16-.69H101v1H96.6a3.17,3.17,0,0,0-1.75.41,1.64,1.64,0,0,0-.6,1.48,1.92,1.92,0,0,0,.23,1,1.87,1.87,0,0,0,.61.64,2.55,2.55,0,0,0,.88.36,4.17,4.17,0,0,0,1,.11h4v1.06H96.6a3.17,3.17,0,0,0-1.75.4,1.66,1.66,0,0,0-.6,1.49,3.61,3.61,0,0,0,.06.44,1.62,1.62,0,0,0,.35.71,2.42,2.42,0,0,0,.86.66,3.55,3.55,0,0,0,1.61.3H101v1.06Z"/></g><line class="cls-2" x1="110.86" y1="217.02" x2="110.86" y2="174.51"/><line class="cls-2" x1="109.01" y1="174.5" x2="112.56" y2="174.5"/><line class="cls-2" x1="108.33" y1="217.02" x2="113.38" y2="217.02"/><g class="cls-1"><path d="M94.93,216.37a2.2,2.2,0,0,1-.37.67,2.53,2.53,0,0,1-.59.54,2.73,2.73,0,0,1-.73.35,2.62,2.62,0,0,1-.83.13,2.77,2.77,0,0,1-1.23-.26,2.8,2.8,0,0,1-.93-.68,3.11,3.11,0,0,1-.6-1,3.81,3.81,0,0,1-.2-1.22,3.74,3.74,0,0,1,.2-1.21,3,3,0,0,1,.6-1,2.69,2.69,0,0,1,.93-.69,2.9,2.9,0,0,1,2.06-.13,3.1,3.1,0,0,1,.73.36,2.29,2.29,0,0,1,.59.53,2.38,2.38,0,0,1,.37.68h0a2.72,2.72,0,0,1,1-1.54,3.23,3.23,0,0,1,1.92-.57,2.92,2.92,0,0,1,1.33.3,3.23,3.23,0,0,1,1,.78,3.34,3.34,0,0,1,.64,1.14,4.09,4.09,0,0,1,.23,1.36,4.15,4.15,0,0,1-.23,1.37,3.21,3.21,0,0,1-1.66,1.92,2.92,2.92,0,0,1-1.33.3A3.17,3.17,0,0,1,96,217.9a2.7,2.7,0,0,1-1-1.53Zm-2.43-3.49a2.11,2.11,0,0,0-.8.15,1.93,1.93,0,0,0-.63.42,2,2,0,0,0-.42.64,2.15,2.15,0,0,0-.15.8,2.07,2.07,0,0,0,.15.8,1.87,1.87,0,0,0,.42.64,2,2,0,0,0,.63.43,2.11,2.11,0,0,0,.8.15,2.07,2.07,0,0,0,.8-.15,1.76,1.76,0,0,0,.63-.43,1.87,1.87,0,0,0,.42-.64,2.07,2.07,0,0,0,.15-.8,2.15,2.15,0,0,0-.15-.8,2,2,0,0,0-.42-.64,1.74,1.74,0,0,0-.63-.42A2.07,2.07,0,0,0,92.5,212.88Zm5.28-.42a2.32,2.32,0,0,0-.92.18,2.16,2.16,0,0,0-.73.48,2.12,2.12,0,0,0-.49.77,2.73,2.73,0,0,0-.18,1,2.67,2.67,0,0,0,.18,1,2.08,2.08,0,0,0,.49.76,2.18,2.18,0,0,0,.73.49,2.38,2.38,0,0,0,2.58-.49,2.21,2.21,0,0,0,.49-.76,2.89,2.89,0,0,0,.17-1,3,3,0,0,0-.17-1,2.26,2.26,0,0,0-.49-.77,2.39,2.39,0,0,0-1.66-.66Z"/><path d="M96.1,204.62l0,0a2.06,2.06,0,0,1,.29.73,4.38,4.38,0,0,1,.09.84,3.45,3.45,0,0,1-.26,1.37,3.58,3.58,0,0,1-.73,1.1,3.44,3.44,0,0,1-1.1.72,3.62,3.62,0,0,1-1.41.27,3.51,3.51,0,0,1-1.43-.28,3.24,3.24,0,0,1-1.1-.76,3.49,3.49,0,0,1-.72-1.17,4.13,4.13,0,0,1-.25-1.47,4,4,0,0,1,.25-1.47,3.49,3.49,0,0,1,.72-1.17,3.27,3.27,0,0,1,1.1-.77,3.68,3.68,0,0,1,1.43-.27,4.39,4.39,0,0,1,1.65.28,9.45,9.45,0,0,1,1.39.69l5,3.06v1.36ZM93,203.47a2.64,2.64,0,0,0-1,.18,2.33,2.33,0,0,0-.77.52,2.52,2.52,0,0,0-.5.8,2.86,2.86,0,0,0,0,2.05,2.41,2.41,0,0,0,.5.8,2.18,2.18,0,0,0,.77.52,2.67,2.67,0,0,0,2,0,2.32,2.32,0,0,0,.78-.52,2.26,2.26,0,0,0,.5-.8,3,3,0,0,0,0-2.05,2.36,2.36,0,0,0-.5-.8,2.48,2.48,0,0,0-.78-.52A2.64,2.64,0,0,0,93,203.47Z"/><path d="M95.14,196l-.83,0-.83.06v-1.14h1.13v0a2.59,2.59,0,0,1-1-1.06,3.12,3.12,0,0,1-.33-1.35,3.74,3.74,0,0,1,.06-.65,2.42,2.42,0,0,1,.23-.67,2.34,2.34,0,0,1,.47-.6,2.85,2.85,0,0,1,.79-.47,2.45,2.45,0,0,1-1.14-1,3.09,3.09,0,0,1,.35-3.57,3.08,3.08,0,0,1,2.16-.69H101v1.06H96.6a3.17,3.17,0,0,0-1.75.4,1.64,1.64,0,0,0-.6,1.48,1.92,1.92,0,0,0,.23,1,2,2,0,0,0,.61.65,2.75,2.75,0,0,0,.88.35,4.17,4.17,0,0,0,1,.12h4v1H96.6a3.26,3.26,0,0,0-1.75.4,1.66,1.66,0,0,0-.6,1.49,3.61,3.61,0,0,0,.06.44,1.62,1.62,0,0,0,.35.71,2.55,2.55,0,0,0,.86.67,3.71,3.71,0,0,0,1.61.29H101V196Z"/><path d="M95.14,182.32c-.28,0-.55,0-.83,0s-.56,0-.83.06v-1.14h1.13v0a2.56,2.56,0,0,1-1-1.07,3.05,3.05,0,0,1-.33-1.35,3.83,3.83,0,0,1,.06-.65,2.23,2.23,0,0,1,.7-1.26,2.63,2.63,0,0,1,.79-.47,2.5,2.5,0,0,1-1.14-1,2.73,2.73,0,0,1-.41-1.45,2.69,2.69,0,0,1,.76-2.12,3.08,3.08,0,0,1,2.16-.69H101v1.06H96.6a3.17,3.17,0,0,0-1.75.4,1.64,1.64,0,0,0-.6,1.48,1.86,1.86,0,0,0,.23,1,1.81,1.81,0,0,0,.61.65,2.55,2.55,0,0,0,.88.36,4.17,4.17,0,0,0,1,.12h4v1H96.6a3.17,3.17,0,0,0-1.75.4,1.66,1.66,0,0,0-.6,1.49,3.61,3.61,0,0,0,.06.44,1.62,1.62,0,0,0,.35.71,2.42,2.42,0,0,0,.86.66,3.55,3.55,0,0,0,1.61.3H101v1.06Z"/></g><path class="cls-3" d="M175,217.26h-.43m-50.61,0h-.42m-1.11,0h1.11m51.46,0h1.1m0,0a.24.24,0,0,0,.17-.07.23.23,0,0,0,.07-.17m-54.15,0a.23.23,0,0,0,.07.17.28.28,0,0,0,.17.07m53.76-17.63.15,17.39m-54-17.39L122.21,217m54-17.39a26.89,26.89,0,0,0-14.85-23.83m-24.15,0a26.91,26.91,0,0,0-14.84,23.83m36.68-24.78h-1.9m-15.72,0h-1.91m19.77,0h-.24m-19.53,0h-.25m4.06,0h-1.9m3.1,0h-1.2m1.4,0h-.2m9.51,0h-9.31m9.31,0h-.2m1.4,0H154m3.11,0h-1.91m4,0,0,.47m-20-.47v.47m21.93,0v.48m-23.81-.48v.48m23.82-.48h-1.89m-20,0h-1.88m36.22,41.94h1m-49.08,0h48.1m-48.64,0h.54m-1.53,0h1m12.24-41.46h.17m24,0h-.16m-21.93-.48h20m1.89.48H137.38"/><path class="cls-4" d="M149.27,174.5s3.35-42.71,3.35-54.72c0-10.69-4.85-55.87-5.92-72.7m3.46,127.42s3.36-42.71,3.36-54.72c0-10.7-4.86-56-5.93-72.76"/></svg>