<?xml version="1.0" encoding="utf-8"?>
<!-- Generator: Adobe Illustrator 22.0.1, SVG Export Plug-In . SVG Version: 6.00 Build 0)  -->
<!DOCTYPE svg PUBLIC "-//W3C//DTD SVG 1.1//EN" "http://www.w3.org/Graphics/SVG/1.1/DTD/svg11.dtd">
<svg version="1.1" id="wirering" xmlns="http://www.w3.org/2000/svg" xmlns:xlink="http://www.w3.org/1999/xlink" x="0px" y="0px"
	 viewBox="0 0 300 263" style="enable-background:new 0 0 300 263;" xml:space="preserve">
<style type="text/css">
	.st0{fill:none;stroke:#000000;stroke-width:0.5;}
	.st1{fill:none;stroke:#000000;stroke-width:0.25;stroke-linecap:round;stroke-linejoin:round;stroke-miterlimit:10;}
</style>
<title>wirering-ceiling-wall-formafantasma-flos-F951-spech-tech-01-300x263-01</title>
<line class="st0" x1="163.2" y1="226.7" x2="135.3" y2="226.7"/>
<line class="st0" x1="163.2" y1="228.8" x2="163.2" y2="224.5"/>
<line class="st0" x1="135.3" y1="228.8" x2="135.3" y2="224.5"/>
<g>
	<path d="M123.3,239.5h0.6c0.3,0,0.7,0,1-0.1s0.6-0.2,0.8-0.4c0.2-0.2,0.4-0.4,0.5-0.6c0.1-0.3,0.2-0.7,0.2-1c0-0.5-0.2-1-0.6-1.4
		s-1-0.5-1.6-0.5c-0.4,0-0.9,0.1-1.3,0.3s-0.7,0.6-0.9,0.9l-1-0.5c0.3-0.6,0.8-1,1.3-1.4c0.6-0.3,1.2-0.5,1.8-0.4
		c0.4,0,0.9,0.1,1.3,0.2c0.4,0.1,0.7,0.3,1,0.6s0.5,0.6,0.7,0.9c0.2,0.4,0.3,0.8,0.3,1.2c0,0.3,0,0.6-0.2,0.9
		c-0.1,0.3-0.2,0.5-0.4,0.8c-0.3,0.5-0.8,0.8-1.3,1l0,0c0.3,0.1,0.6,0.2,0.9,0.4c0.5,0.4,0.9,0.9,1.1,1.5c0.1,0.3,0.2,0.7,0.2,1
		c0,0.5-0.1,1-0.3,1.4c-0.2,0.4-0.5,0.7-0.8,1s-0.7,0.5-1.2,0.6c-1.2,0.4-2.5,0.3-3.6-0.3c-0.6-0.4-1.1-1-1.4-1.8l1.2-0.4
		c0.1,0.5,0.4,0.9,0.8,1.2c0.5,0.3,1,0.4,1.6,0.4c0.3,0,0.6-0.1,0.9-0.2c0.6-0.2,1-0.6,1.3-1.2c0.1-0.3,0.2-0.6,0.2-0.9
		c0-0.4-0.1-0.7-0.2-1.1c-0.2-0.3-0.4-0.5-0.6-0.7c-0.3-0.2-0.6-0.3-0.9-0.4c-0.4-0.1-0.7-0.1-1.1-0.1h-0.5L123.3,239.5z"/>
	<path d="M137,246h-7.2v-1.3l4.5-4.6c0.2-0.2,0.3-0.4,0.5-0.6c0.2-0.2,0.3-0.4,0.5-0.6c0.1-0.2,0.3-0.4,0.3-0.7
		c0.1-0.2,0.1-0.5,0.1-0.7c0-0.3-0.1-0.6-0.2-0.8c-0.1-0.2-0.3-0.5-0.5-0.6c-0.2-0.2-0.5-0.3-0.7-0.4c-0.3-0.1-0.6-0.1-0.8-0.1
		c-0.6,0-1.1,0.1-1.6,0.5c-0.4,0.3-0.7,0.8-0.8,1.3l-1.2-0.1c0.1-0.8,0.5-1.5,1.2-2c0.6-0.5,1.4-0.7,2.2-0.7c0.4,0,0.9,0.1,1.3,0.2
		c0.4,0.1,0.8,0.3,1.1,0.6s0.6,0.6,0.8,0.9c0.2,0.4,0.3,0.8,0.3,1.3c0,0.4-0.1,0.8-0.2,1.2c-0.1,0.4-0.3,0.7-0.5,1s-0.5,0.6-0.7,0.9
		c-0.3,0.3-0.6,0.6-0.8,0.9l-3.5,3.6h6v0.8H137z"/>
	<path d="M142.3,234.5c0.7,0,1.4,0.2,2,0.6c0.5,0.4,0.9,0.9,1.2,1.4c0.3,0.6,0.5,1.2,0.6,1.9c0.2,1.3,0.2,2.6,0,3.9
		c-0.1,0.7-0.3,1.3-0.6,1.9c-0.3,0.6-0.7,1-1.2,1.4c-1.2,0.7-2.7,0.7-3.9,0c-0.5-0.4-0.9-0.9-1.2-1.4c-0.3-0.6-0.5-1.2-0.6-1.9
		c-0.2-1.3-0.2-2.6,0-3.9c0.1-0.7,0.3-1.3,0.6-1.9c0.3-0.6,0.7-1.1,1.2-1.4C140.9,234.6,141.6,234.4,142.3,234.5z M142.3,235.5
		c-0.5,0-1.1,0.2-1.5,0.5s-0.6,0.8-0.8,1.2c-0.2,0.5-0.3,1-0.3,1.6c-0.1,0.6-0.1,1.1-0.1,1.5s0,0.9,0.1,1.5c0,0.5,0.2,1.1,0.3,1.6
		c0.2,0.5,0.4,0.9,0.8,1.2c0.4,0.3,0.9,0.5,1.5,0.5c0.5,0,1.1-0.1,1.5-0.5c0.4-0.3,0.6-0.8,0.8-1.2c0.2-0.5,0.3-1,0.4-1.6
		c0.1-0.6,0.1-1.1,0.1-1.5s0-0.9-0.1-1.5c0-0.5-0.2-1.1-0.4-1.6s-0.4-0.9-0.8-1.2C143.4,235.6,142.8,235.5,142.3,235.5L142.3,235.5z
		"/>
	<path d="M152.4,240.1c0-0.3,0-0.6,0-0.8l-0.1-0.8h1.1v1.1l0,0c0.2-0.4,0.6-0.8,1.1-1c0.4-0.2,0.9-0.3,1.4-0.3c0.2,0,0.4,0,0.6,0.1
		c0.2,0,0.5,0.1,0.7,0.2c0.2,0.1,0.4,0.3,0.6,0.5c0.2,0.2,0.4,0.5,0.5,0.8c0.2-0.5,0.6-0.9,1-1.1c0.4-0.3,0.9-0.4,1.4-0.4
		c0.8-0.1,1.6,0.2,2.1,0.8s0.7,1.4,0.7,2.2v4.8h-1.1v-4.4c0-0.6-0.1-1.2-0.4-1.7c-0.4-0.5-0.9-0.7-1.5-0.6c-0.3,0-0.7,0.1-1,0.2
		c-0.3,0.1-0.5,0.4-0.6,0.6c-0.2,0.3-0.3,0.6-0.4,0.9c-0.1,0.3-0.1,0.7-0.1,1v4h-1v-4.4c0-0.6-0.1-1.2-0.4-1.7
		c-0.4-0.4-0.9-0.7-1.5-0.6l-0.4,0.1c-0.3,0.1-0.5,0.2-0.7,0.4c-0.3,0.2-0.5,0.5-0.7,0.9c-0.2,0.5-0.3,1.1-0.3,1.6v3.8h-1.1
		L152.4,240.1z"/>
	<path d="M166,240.1c0-0.3,0-0.6,0-0.8l-0.1-0.8h1.1v1.1l0,0c0.2-0.4,0.6-0.8,1.1-1c0.4-0.2,0.9-0.3,1.4-0.3c0.2,0,0.4,0,0.6,0.1
		c0.2,0,0.5,0.1,0.7,0.2c0.2,0.1,0.4,0.3,0.6,0.5c0.2,0.2,0.4,0.5,0.5,0.8c0.2-0.5,0.6-0.9,1-1.1c0.4-0.3,0.9-0.4,1.4-0.4
		c0.8-0.1,1.6,0.2,2.1,0.8s0.7,1.4,0.7,2.2v4.8H176v-4.4c0-0.6-0.1-1.2-0.4-1.7c-0.4-0.4-0.9-0.7-1.5-0.6c-0.3,0-0.7,0.1-1,0.2
		c-0.3,0.2-0.5,0.4-0.6,0.6c-0.2,0.3-0.3,0.6-0.4,0.9c-0.1,0.3-0.1,0.7-0.1,1v4h-1v-4.4c0-0.6-0.1-1.2-0.4-1.7
		c-0.4-0.4-0.9-0.7-1.5-0.6l-0.4,0.1c-0.3,0.1-0.5,0.2-0.7,0.4c-0.3,0.2-0.5,0.5-0.7,0.9c-0.2,0.5-0.3,1.1-0.3,1.6v3.8h-1L166,240.1
		L166,240.1z"/>
</g>
<line class="st0" x1="171.6" y1="77.8" x2="171.6" y2="103.9"/>
<line class="st0" x1="172.7" y1="77.8" x2="170.5" y2="77.8"/>
<line class="st0" x1="172.7" y1="103.9" x2="170.5" y2="103.9"/>
<g>
	<path d="M183.2,119.8c0.3-0.3,0.7-0.5,1.2-0.7s1-0.3,1.4-0.2c0.5,0,1.1,0.1,1.6,0.3c0.9,0.4,1.7,1.1,2.1,2.1
		c0.2,0.5,0.3,1.1,0.3,1.6s-0.1,0.9-0.2,1.4c-0.1,0.4-0.3,0.8-0.6,1.1l1.1,1.1l-0.5,0.5l-1.1-1.1c-0.3,0.3-0.7,0.5-1.2,0.7
		s-0.9,0.2-1.4,0.2s-1.1-0.1-1.6-0.3c-0.5-0.2-0.9-0.5-1.2-0.8c-0.4-0.4-0.6-0.8-0.8-1.3s-0.3-1-0.3-1.6c0-0.5,0.1-0.9,0.2-1.4
		c0.1-0.4,0.3-0.8,0.6-1.2l-1.1-1.1l0.5-0.5L183.2,119.8z M183.5,121.1c-0.4,0.5-0.6,1.2-0.6,1.8c0,0.4,0.1,0.8,0.2,1.2
		c0.2,0.3,0.4,0.6,0.6,0.9c0.3,0.2,0.6,0.4,0.9,0.6c0.4,0.1,0.8,0.2,1.2,0.2c0.7,0,1.3-0.2,1.8-0.6L183.5,121.1z M188.2,124.7
		c0.2-0.2,0.4-0.5,0.4-0.8c0.2-0.7,0.2-1.5-0.1-2.2c-0.1-0.3-0.4-0.6-0.6-0.9c-0.3-0.3-0.6-0.4-0.9-0.6c-0.4-0.1-0.8-0.2-1.2-0.2
		c-0.7,0-1.3,0.2-1.8,0.5L188.2,124.7z"/>
	<path d="M183.1,110.4v-0.6c0-0.3,0-0.7-0.1-1s-0.2-0.6-0.4-0.8c-0.2-0.2-0.4-0.4-0.6-0.5c-0.3-0.1-0.7-0.2-1-0.2
		c-0.5,0-1,0.2-1.4,0.6s-0.5,1-0.5,1.5c0,0.4,0.1,0.9,0.3,1.3s0.5,0.7,0.9,0.9l-0.5,1c-0.6-0.3-1-0.7-1.4-1.3
		c-0.3-0.6-0.5-1.2-0.4-1.8c0-0.4,0.1-0.9,0.2-1.3c0.1-0.4,0.3-0.7,0.6-1s0.6-0.5,0.9-0.7c0.4-0.2,0.8-0.3,1.2-0.3
		c0.3,0,0.6,0.1,0.9,0.2c0.3,0.1,0.5,0.2,0.8,0.4c0.2,0.2,0.4,0.4,0.6,0.6c0.2,0.2,0.3,0.5,0.4,0.7l0,0c0.1-0.3,0.2-0.6,0.4-0.9
		s0.4-0.5,0.6-0.7c0.3-0.2,0.6-0.3,0.9-0.4c0.3-0.1,0.7-0.2,1-0.2c0.5,0,1,0.1,1.4,0.3c0.4,0.2,0.7,0.4,1,0.8
		c0.3,0.3,0.5,0.7,0.6,1.2s0.2,0.9,0.2,1.4c0,0.8-0.2,1.5-0.5,2.2c-0.4,0.6-1,1.1-1.8,1.4L187,112c0.5-0.1,0.9-0.5,1.2-0.9
		c0.3-0.5,0.4-1,0.4-1.6c0-0.3-0.1-0.6-0.2-0.9c-0.1-0.3-0.3-0.5-0.5-0.8c-0.2-0.2-0.4-0.4-0.7-0.5s-0.6-0.2-0.9-0.2
		c-0.4,0-0.7,0.1-1.1,0.2c-0.3,0.2-0.5,0.4-0.7,0.6c-0.2,0.3-0.3,0.6-0.4,0.9c-0.1,0.4-0.1,0.7-0.1,1.1v0.5L183.1,110.4z"/>
	<path d="M189.6,99.2v1.2h-9.9l1.8,2l-0.9,0.7l-2.4-2.9v-1L189.6,99.2z"/>
	<path d="M178.1,91.4c0-0.7,0.2-1.4,0.6-2c0.4-0.5,0.9-0.9,1.4-1.2c0.6-0.3,1.2-0.5,1.9-0.6c1.3-0.2,2.6-0.2,3.9,0
		c0.7,0.1,1.3,0.3,1.9,0.6c0.6,0.3,1.1,0.7,1.4,1.2c0.7,1.2,0.7,2.7,0,3.9c-0.4,0.5-0.9,0.9-1.4,1.2c-0.6,0.3-1.2,0.5-1.9,0.6
		c-1.3,0.2-2.6,0.2-3.9,0c-0.7-0.1-1.3-0.3-1.9-0.6c-0.6-0.3-1-0.7-1.4-1.2C178.3,92.8,178.1,92.1,178.1,91.4z M179.1,91.4
		c0,0.5,0.1,1.1,0.5,1.5c0.3,0.4,0.8,0.6,1.2,0.8c0.5,0.2,1,0.3,1.6,0.3s1.1,0.1,1.5,0.1s0.9,0,1.5-0.1c0.5,0,1.1-0.2,1.6-0.3
		c0.5-0.2,0.9-0.4,1.2-0.8s0.5-0.9,0.5-1.5c0-0.5-0.1-1.1-0.5-1.5c-0.3-0.4-0.8-0.6-1.2-0.8c-0.5-0.2-1-0.3-1.6-0.3
		s-1.1-0.1-1.5-0.1s-0.9,0-1.5,0.1c-0.5,0-1.1,0.2-1.6,0.3c-0.5,0.2-0.9,0.4-1.2,0.8C179.3,90.4,179.1,90.9,179.1,91.4z"/>
	<path d="M183.8,81.4c-0.3,0-0.6,0-0.8,0h-0.8v-1.1h1.1l0,0c-0.4-0.2-0.8-0.6-1-1.1c-0.2-0.4-0.3-0.9-0.3-1.3c0-0.2,0-0.4,0.1-0.7
		c0-0.2,0.1-0.5,0.2-0.7c0.1-0.2,0.3-0.4,0.5-0.6s0.5-0.4,0.8-0.5c-0.5-0.2-0.9-0.6-1.1-1c-0.3-0.4-0.4-0.9-0.4-1.4
		c-0.1-0.8,0.2-1.6,0.8-2.1s1.4-0.7,2.2-0.7h4.8v1h-4.4c-0.6,0-1.2,0.1-1.7,0.4c-0.4,0.4-0.7,0.9-0.6,1.5c0,0.3,0.1,0.7,0.2,1
		c0.2,0.3,0.4,0.5,0.6,0.7c0.3,0.2,0.6,0.3,0.9,0.4c0.3,0.1,0.7,0.1,1,0.1h4v1.1h-4.4c-0.6,0-1.2,0.1-1.7,0.4
		c-0.5,0.4-0.7,0.9-0.6,1.5c0,0.1,0,0.3,0.1,0.4c0.1,0.3,0.2,0.5,0.4,0.7c0.2,0.3,0.5,0.5,0.9,0.7c0.5,0.2,1.1,0.3,1.6,0.3h3.8v1
		L183.8,81.4z"/>
	<path d="M183.8,67.8c-0.3,0-0.6,0-0.8,0h-0.8v-1.1h1.1l0,0c-0.4-0.2-0.8-0.6-1-1.1c-0.2-0.4-0.3-0.9-0.3-1.3c0-0.2,0-0.4,0.1-0.7
		c0-0.2,0.1-0.5,0.2-0.7c0.1-0.2,0.3-0.4,0.5-0.6c0.2-0.2,0.5-0.4,0.8-0.5c-0.5-0.2-0.9-0.6-1.1-1c-0.3-0.4-0.4-0.9-0.4-1.5
		c-0.1-0.8,0.2-1.6,0.8-2.1s1.4-0.7,2.2-0.7h4.8v1.1h-4.4c-0.6,0-1.2,0.1-1.7,0.4c-0.4,0.4-0.7,0.9-0.6,1.5c0,0.3,0.1,0.7,0.2,1
		c0.2,0.3,0.4,0.5,0.6,0.7c0.3,0.2,0.6,0.3,0.9,0.4c0.3,0.1,0.7,0.1,1,0.1h4v1.1h-4.4c-0.6,0-1.2,0.1-1.7,0.4
		c-0.4,0.4-0.7,0.9-0.6,1.5c0,0.1,0,0.3,0.1,0.4c0.1,0.3,0.2,0.5,0.4,0.7c0.2,0.3,0.5,0.5,0.9,0.7c0.5,0.2,1.1,0.3,1.6,0.3h3.8v1.1
		L183.8,67.8z"/>
</g>
<line class="st0" x1="123.9" y1="217.2" x2="125.8" y2="32.8"/>
<line class="st0" x1="121.2" y1="217.2" x2="126.6" y2="217.2"/>
<line class="st0" x1="123.1" y1="32.8" x2="128.5" y2="32.8"/>
<g>
	<path d="M115.7,150.1l-0.1,7.2h-1.3l-4.6-4.6l-0.5-0.5c-0.2-0.2-0.4-0.3-0.6-0.5c-0.2-0.1-0.4-0.3-0.7-0.4
		c-0.2-0.1-0.5-0.1-0.7-0.1c-0.3,0-0.6,0-0.8,0.2c-0.2,0.1-0.5,0.3-0.6,0.5c-0.2,0.2-0.3,0.4-0.4,0.7s-0.1,0.6-0.1,0.9
		c0,0.5,0.1,1.1,0.5,1.5c0.3,0.4,0.8,0.7,1.3,0.8L107,157c-0.8-0.1-1.5-0.5-2-1.2c-0.5-0.6-0.7-1.4-0.7-2.2c0-0.4,0.1-0.9,0.2-1.3
		c0.1-0.4,0.3-0.8,0.6-1.1c0.3-0.3,0.6-0.6,0.9-0.7c0.4-0.2,0.8-0.3,1.3-0.3c0.4,0,0.8,0.1,1.2,0.2c0.4,0.1,0.7,0.3,1,0.5
		s0.6,0.5,0.9,0.7c0.3,0.3,0.6,0.6,0.8,0.9l3.5,3.6l0.1-6L115.7,150.1z"/>
	<path d="M104.2,144.6c0-0.7,0.2-1.4,0.6-2c0.4-0.5,0.9-0.9,1.4-1.1c0.6-0.3,1.2-0.5,1.9-0.5c0.7-0.1,1.3-0.1,2-0.1s1.3,0.1,2,0.2
		c0.7,0.1,1.3,0.3,1.9,0.6s1,0.7,1.4,1.2c0.4,0.6,0.6,1.3,0.6,2s-0.2,1.4-0.6,2c-0.4,0.5-0.9,0.9-1.4,1.2c-0.6,0.3-1.2,0.5-1.9,0.5
		c-1.3,0.2-2.7,0.2-4,0c-0.7-0.1-1.3-0.3-1.9-0.6s-1-0.7-1.4-1.2C104.4,146,104.2,145.3,104.2,144.6z M105.3,144.6
		c0,0.5,0.1,1.1,0.5,1.5c0.3,0.4,0.8,0.6,1.2,0.8c0.5,0.2,1,0.3,1.6,0.4c0.5,0.1,1,0.1,1.5,0.1s1,0,1.5-0.1c0.5,0,1.1-0.1,1.6-0.3
		s0.9-0.4,1.2-0.8c0.3-0.4,0.5-0.9,0.5-1.5c0-0.5-0.1-1.1-0.5-1.5c-0.3-0.4-0.8-0.6-1.2-0.8c-0.5-0.2-1-0.3-1.6-0.4
		c-0.6-0.1-1.1-0.1-1.5-0.1s-1,0-1.5,0.1c-0.5,0-1.1,0.1-1.6,0.3s-0.9,0.4-1.2,0.8C105.4,143.5,105.3,144,105.3,144.6L105.3,144.6z"
		/>
	<path d="M109.8,137.2c-0.1,0.2-0.2,0.5-0.4,0.7c-0.2,0.2-0.4,0.4-0.6,0.5s-0.5,0.3-0.7,0.4c-0.3,0.1-0.5,0.1-0.8,0.1
		c-0.4,0-0.8-0.1-1.2-0.3c-0.4-0.2-0.7-0.4-0.9-0.7c-0.3-0.3-0.5-0.6-0.6-1s-0.2-0.8-0.2-1.2s0.1-0.8,0.2-1.2s0.3-0.7,0.6-1
		c0.3-0.3,0.6-0.5,0.9-0.7c0.4-0.2,0.8-0.2,1.2-0.2c0.3,0,0.6,0,0.8,0.1c0.3,0.1,0.5,0.2,0.7,0.4s0.4,0.3,0.6,0.5s0.3,0.4,0.4,0.7
		l0,0c0.2-0.6,0.5-1.2,1.1-1.5c0.6-0.4,1.2-0.6,1.9-0.6c0.5,0,0.9,0.1,1.3,0.3s0.7,0.5,1,0.8s0.5,0.7,0.6,1.1
		c0.1,0.4,0.2,0.9,0.2,1.4s-0.1,0.9-0.2,1.4c-0.1,0.4-0.4,0.8-0.7,1.1c-0.3,0.3-0.6,0.6-1,0.8s-0.9,0.3-1.3,0.3
		c-0.7,0-1.4-0.2-1.9-0.6C110.4,138.4,110,137.8,109.8,137.2L109.8,137.2z M107.4,133.7c-0.3,0-0.5,0-0.8,0.1
		c-0.2,0.1-0.5,0.2-0.6,0.4c-0.2,0.2-0.3,0.4-0.4,0.6c-0.1,0.3-0.2,0.5-0.2,0.8s0,0.5,0.1,0.8c0.1,0.2,0.2,0.5,0.4,0.6
		c0.2,0.2,0.4,0.3,0.6,0.4c0.3,0.1,0.5,0.2,0.8,0.2s0.5,0,0.8-0.1c0.2-0.1,0.5-0.2,0.6-0.4c0.4-0.4,0.6-0.9,0.6-1.4
		c0-0.3,0-0.5-0.2-0.8c-0.1-0.2-0.2-0.5-0.4-0.6c-0.2-0.2-0.4-0.3-0.6-0.4C107.9,133.7,107.7,133.7,107.4,133.7z M112.7,133.3
		c-0.3,0-0.6,0.1-0.9,0.2c-0.3,0.1-0.5,0.3-0.7,0.5s-0.4,0.5-0.5,0.8c-0.2,0.6-0.2,1.4,0,2c0.1,0.3,0.3,0.5,0.5,0.8
		c0.2,0.2,0.5,0.4,0.7,0.5c0.3,0.1,0.6,0.2,0.9,0.2s0.6,0,0.9-0.2c0.3-0.1,0.5-0.3,0.7-0.5s0.4-0.5,0.5-0.8s0.2-0.7,0.2-1
		s-0.1-0.7-0.2-1s-0.3-0.6-0.5-0.8C113.9,133.6,113.3,133.3,112.7,133.3L112.7,133.3z"/>
	<path d="M104.4,126.8c0-0.7,0.2-1.4,0.6-2c0.4-0.5,0.9-0.9,1.4-1.2c0.6-0.3,1.2-0.5,1.9-0.5c0.7-0.1,1.3-0.1,2-0.1s1.3,0.1,2,0.2
		s1.3,0.3,1.9,0.6c0.6,0.3,1,0.7,1.4,1.2c0.4,0.6,0.6,1.3,0.5,2c0,0.7-0.2,1.4-0.6,2c-0.4,0.5-0.9,0.9-1.4,1.2
		c-0.6,0.3-1.2,0.5-1.9,0.5c-1.3,0.2-2.6,0.2-3.9,0c-0.7-0.1-1.3-0.3-1.9-0.6s-1.1-0.7-1.4-1.2C104.6,128.2,104.4,127.5,104.4,126.8
		z M105.5,126.8c0,0.5,0.1,1.1,0.5,1.5c0.3,0.4,0.8,0.6,1.2,0.8c0.5,0.2,1,0.3,1.6,0.4c0.5,0.1,1,0.1,1.5,0.1c0.4,0,1,0,1.5-0.1
		c0.5,0,1.1-0.1,1.6-0.3s0.9-0.4,1.2-0.8c0.3-0.4,0.5-0.9,0.5-1.5c0-0.5-0.1-1.1-0.5-1.5c-0.3-0.4-0.8-0.6-1.2-0.8
		c-0.5-0.2-1-0.3-1.6-0.4c-0.6,0-1.1-0.1-1.5-0.1s-1,0-1.5,0.1c-0.5,0-1.1,0.1-1.6,0.3c-0.5,0.2-0.9,0.4-1.2,0.8
		C105.6,125.7,105.4,126.2,105.5,126.8L105.5,126.8z"/>
	<path d="M110.2,116.8c-0.3,0-0.6,0-0.8,0h-0.8v-1.1h1.1l0,0c-0.4-0.3-0.8-0.6-1-1.1c-0.2-0.4-0.3-0.9-0.3-1.3c0-0.2,0-0.4,0.1-0.7
		c0-0.2,0.1-0.5,0.2-0.7s0.3-0.4,0.5-0.6s0.5-0.4,0.8-0.5c-0.5-0.2-0.9-0.6-1.1-1c-0.7-1.1-0.5-2.6,0.4-3.6c0.6-0.5,1.4-0.7,2.2-0.7
		h4.8v1.1h-4.4c-0.6,0-1.2,0.1-1.8,0.4c-0.5,0.4-0.7,0.9-0.6,1.5c0,0.3,0.1,0.7,0.2,1s0.4,0.5,0.6,0.7c0.3,0.2,0.6,0.3,0.9,0.4
		s0.7,0.1,1,0.1h4v1.1l-4.4-0.1c-0.6,0-1.2,0.1-1.8,0.4c-0.5,0.4-0.7,0.9-0.6,1.5c0,0.2,0,0.3,0.1,0.4c0.1,0.3,0.2,0.5,0.3,0.7
		c0.2,0.3,0.5,0.5,0.9,0.7c0.5,0.2,1,0.3,1.6,0.3h3.8v1L110.2,116.8z"/>
	<path d="M110.3,103.2c-0.3,0-0.6,0-0.8,0h-0.8V102h1.1l0,0c-0.4-0.3-0.8-0.6-1-1.1c-0.2-0.4-0.3-0.9-0.3-1.3c0-0.2,0-0.4,0.1-0.7
		c0-0.2,0.1-0.5,0.2-0.7s0.3-0.4,0.5-0.6s0.5-0.4,0.8-0.5c-0.5-0.2-0.9-0.6-1.1-1c-0.7-1.1-0.5-2.6,0.4-3.6c0.6-0.5,1.4-0.7,2.2-0.7
		l4.8,0.1V93H112c-0.6,0-1.2,0.1-1.8,0.4c-0.5,0.3-0.7,0.9-0.6,1.5c0,0.3,0.1,0.7,0.2,1s0.4,0.5,0.6,0.7c0.3,0.2,0.6,0.3,0.9,0.4
		s0.7,0.1,1,0.1h4v1.1h-4.4c-0.6,0-1.2,0.1-1.8,0.4c-0.5,0.4-0.7,0.9-0.6,1.5c0,0.2,0,0.3,0.1,0.4c0.1,0.3,0.2,0.5,0.3,0.7
		c0.2,0.3,0.5,0.5,0.9,0.7c0.5,0.2,1,0.3,1.6,0.3h3.8v1.1L110.3,103.2z"/>
</g>
<g>
	<g id="POLYLINE_207_">
		<polygon class="st1" points="163,218 162.3,218 162.3,212.7 163,212.7 		"/>
	</g>
	<g id="POLYLINE_208_">
		<polygon class="st1" points="162.9,92 162.7,93.3 162.4,94.7 161.9,95.9 161.3,97.2 160.5,98.4 159.7,99.5 158.7,100.5 
			157.7,101.4 156.6,102.1 155.4,102.8 154.1,103.4 152.8,103.8 151.4,104 150,104.2 148.7,104.2 147.3,104 145.9,103.7 
			144.6,103.3 143.4,102.8 142.2,102.1 141,101.3 140,100.4 139,99.4 138.2,98.3 137.5,97.1 136.9,95.8 136.4,94.5 136,93.1 
			135.9,91.7 135.8,90.3 135.9,88.9 136.2,87.5 136.6,86.1 137.1,84.8 137.8,83.5 138.6,82.4 139.5,81.3 140.5,80.3 141.7,79.4 
			142.9,78.7 144.2,78.1 145.5,77.6 146.9,77.3 148.3,77.1 149.7,77 151.1,77.1 152.5,77.4 153.9,77.8 155.2,78.3 156.5,79 
			157.6,79.8 158.7,80.7 159.7,81.8 160.6,82.9 161.3,84.1 161.9,85.3 162.4,86.6 162.7,87.9 162.9,89.2 163,90.6 162.4,90.7 
			162.3,89.3 162.2,88.1 161.8,86.8 161.4,85.6 160.8,84.4 160.1,83.2 159.3,82.1 158.3,81.2 157.3,80.3 156.2,79.5 155,78.9 
			153.7,78.3 152.4,78 151.1,77.7 149.7,77.6 148.3,77.6 147,77.8 145.7,78.1 144.4,78.6 143.2,79.2 142,79.9 140.9,80.7 
			139.9,81.7 139,82.7 138.3,83.8 137.6,85 137.1,86.3 136.7,87.6 136.5,88.9 136.4,90.3 136.4,91.7 136.6,93 136.9,94.3 
			137.4,95.6 138,96.9 138.7,98 139.5,99.1 140.5,100.1 141.5,101 142.7,101.8 143.9,102.4 145.1,102.9 146.5,103.3 147.8,103.5 
			149.2,103.6 150.6,103.6 151.9,103.4 153.2,103 154.5,102.6 155.8,102 156.9,101.2 158,100.4 159,99.4 159.9,98.4 160.6,97.2 
			161.2,96 161.7,94.7 162.1,93.4 162.3,92 162.4,90.7 163,90.6 		"/>
	</g>
	<g id="POLYLINE_209_">
		<polygon class="st1" points="161.7,213.8 161.7,213.9 161.4,215.5 160.8,216.5 159.8,218.1 159.7,218.7 159.9,219.1 160.2,219.4 
			160.6,219.5 161,219.4 161.3,219.2 161.5,218.8 161.5,218.2 161.7,214.2 		"/>
	</g>
	<g id="POLYLINE_210_">
		<polygon class="st1" points="163,34.9 163,40 162.1,40 162.1,34.9 		"/>
	</g>
	<g id="POLYLINE_211_">
		<polyline class="st1" points="162.3,34.9 162.2,33.6 162,33.3 161.8,33.1 161.5,33.1 161.2,33.2 160.9,33.6 160.8,34.1 
			161.1,36.1 161.8,37.9 162,38.8 162,39.2 162,39.3 161.8,40.1 137.5,84 136.5,86.1 135.9,88.3 135.7,90.6 136,93.5 161.7,213.2 
			161.7,213.6 161.6,211.8 161.1,210 161,209.7 161,209.2 161.2,208.8 161.6,208.6 162.1,208.5 162.5,208.7 162.8,209.1 
			162.9,209.4 162.9,209.8 163,212.7 		"/>
	</g>
	<g id="POLYLINE_212_">
		<polyline class="st1" points="163,218 163,228.7 162.6,230.8 161.7,232.7 160.3,234.3 159.7,234.7 158.2,235.2 156.6,235.4 
			149.3,235.4 149.3,234.9 156.6,234.9 158.1,234.7 159.5,234.2 160,233.9 161.3,232.4 162.1,230.7 162.4,228.7 162.4,218 		"/>
	</g>
	<g id="POLYLINE_213_">
		<polyline class="st1" points="162.4,212.7 162.4,209.8 162.4,209.5 162.3,209.3 162.2,209.1 162.1,209.1 161.9,209.1 161.8,209.1 
			161.7,209.2 161.6,209.3 161.5,209.4 161.5,209.6 161.6,209.9 162.1,211.7 162.3,213.6 162.3,214.2 162.1,218.2 162,218.9 
			161.7,219.5 161.2,219.9 160.6,220.1 159.9,219.9 159.4,219.4 159.2,218.8 159.3,217.9 159.7,216.9 160.4,216.1 160.9,215.3 
			161.2,213.9 161.2,213.6 161.1,213.3 135.5,93.6 135.2,90.6 135.4,88.2 136,85.9 137,83.7 161.3,39.9 161.5,39.2 161.5,38.8 
			161.3,38.1 160.6,36.2 160.2,34.2 160.4,33.4 160.9,32.7 161.4,32.5 162,32.6 162.5,33 162.7,33.5 162.8,34.9 		"/>
	</g>
	<g id="POLYLINE_214_">
		<line class="st1" x1="161.7" y1="213.6" x2="161.7" y2="213.8"/>
	</g>
</g>
</svg>
