<svg id="zeppelin_S2" data-name="zeppelin S2" xmlns="http://www.w3.org/2000/svg" viewBox="0 0 300 263"><defs><style>.cls-1{isolation:isolate;}.cls-2,.cls-3{fill:none;stroke-width:0.5px;}.cls-2{stroke:#000;}.cls-3{stroke:#1a171b;stroke-linecap:round;stroke-linejoin:round;}</style></defs><title>zeppelin-suspension-2-wanders-flos-F9805009-spech-tech-02-300x263</title><g class="cls-1"><path d="M124.18,241.44a4,4,0,0,1,.68,1.16,4.2,4.2,0,0,1,.24,1.45,4,4,0,0,1-.29,1.56,3.7,3.7,0,0,1-.83,1.25,3.85,3.85,0,0,1-1.25.83,4.39,4.39,0,0,1-1.61.29,4.15,4.15,0,0,1-1.4-.22,3.72,3.72,0,0,1-1.11-.61l-1.07,1.09-.52-.5,1.06-1.09a3.62,3.62,0,0,1-.69-1.17,4.17,4.17,0,0,1-.24-1.43,4,4,0,0,1,.3-1.57,3.82,3.82,0,0,1,.82-1.25,3.62,3.62,0,0,1,1.26-.82,4.43,4.43,0,0,1,3-.08,3.84,3.84,0,0,1,1.15.61l1.06-1.09.51.5Zm-1.25.25a2.69,2.69,0,0,0-1.81-.62,3,3,0,0,0-1.18.23,2.82,2.82,0,0,0-.88.63,3.1,3.1,0,0,0-.56.95,3.42,3.42,0,0,0-.2,1.17,3,3,0,0,0,.55,1.82Zm-3.6,4.72a2.33,2.33,0,0,0,.8.45,2.86,2.86,0,0,0,1,.16,3,3,0,0,0,1.18-.23,2.7,2.7,0,0,0,1.45-1.58,3.41,3.41,0,0,0-.34-3Z"/><path d="M135.89,247.79h-1.15V237.9l-2,1.79-.72-.86,2.88-2.37h1Z"/><path d="M142.19,241.76a2.41,2.41,0,0,1-.68-.38,2.44,2.44,0,0,1-.53-.58,3.17,3.17,0,0,1-.36-.74,2.87,2.87,0,0,1,.82-3,3,3,0,0,1,1-.59,3.62,3.62,0,0,1,2.43,0,3.09,3.09,0,0,1,1,.59,2.82,2.82,0,0,1,.94,2.16,2.53,2.53,0,0,1-.13.83,2.79,2.79,0,0,1-.35.74,2.67,2.67,0,0,1-.53.58,2.41,2.41,0,0,1-.68.38v0a2.64,2.64,0,0,1,1.53,1.06,3.15,3.15,0,0,1,.58,1.92,2.85,2.85,0,0,1-.3,1.32,3.3,3.3,0,0,1-.78,1,3.56,3.56,0,0,1-1.14.65,4.14,4.14,0,0,1-1.37.22,4.08,4.08,0,0,1-1.36-.22,3.46,3.46,0,0,1-1.14-.65,3,3,0,0,1-.78-1,2.85,2.85,0,0,1-.3-1.32,3.15,3.15,0,0,1,.58-1.92,2.64,2.64,0,0,1,1.53-1.06Zm3.91,2.85a2.32,2.32,0,0,0-.18-.92,2.22,2.22,0,0,0-.49-.74,2.16,2.16,0,0,0-.77-.49,2.66,2.66,0,0,0-1-.17,2.62,2.62,0,0,0-1,.17,2.12,2.12,0,0,0-.76.49,2.22,2.22,0,0,0-.49.74,2.32,2.32,0,0,0-.18.92,2.36,2.36,0,0,0,.18.92,2.29,2.29,0,0,0,.49.73,2.12,2.12,0,0,0,.76.49,2.62,2.62,0,0,0,1,.18,2.66,2.66,0,0,0,1-.18,2.16,2.16,0,0,0,.77-.49,2.29,2.29,0,0,0,.49-.73A2.36,2.36,0,0,0,146.1,244.61Zm-.42-5.28a2.07,2.07,0,0,0-.15-.8,1.76,1.76,0,0,0-.43-.64,2,2,0,0,0-.64-.41,2.07,2.07,0,0,0-.8-.15,2.15,2.15,0,0,0-.8.15,2.26,2.26,0,0,0-.64.41,1.87,1.87,0,0,0-.42.64,2.07,2.07,0,0,0-.15.8,2.15,2.15,0,0,0,.15.8,1.93,1.93,0,0,0,.42.63,2.26,2.26,0,0,0,.64.41,2,2,0,0,0,.8.16,1.91,1.91,0,0,0,.8-.16,2,2,0,0,0,.64-.41,1.81,1.81,0,0,0,.43-.63A2.15,2.15,0,0,0,145.68,239.33Z"/><path d="M152.56,236.27a3.24,3.24,0,0,1,2,.56,3.86,3.86,0,0,1,1.17,1.42,6.77,6.77,0,0,1,.56,1.9,14,14,0,0,1,0,3.95,6.77,6.77,0,0,1-.56,1.9,3.86,3.86,0,0,1-1.17,1.42,3.75,3.75,0,0,1-3.94,0,3.86,3.86,0,0,1-1.17-1.42,6.77,6.77,0,0,1-.56-1.9,14,14,0,0,1,0-3.95,6.77,6.77,0,0,1,.56-1.9,3.86,3.86,0,0,1,1.17-1.42A3.24,3.24,0,0,1,152.56,236.27Zm0,1.06a2,2,0,0,0-1.46.49,3.08,3.08,0,0,0-.81,1.23,6.19,6.19,0,0,0-.35,1.57c0,.56-.07,1.06-.07,1.51s0,1,.07,1.5a6.19,6.19,0,0,0,.35,1.57,3.08,3.08,0,0,0,.81,1.23,2.38,2.38,0,0,0,2.92,0,3.08,3.08,0,0,0,.81-1.23,6.19,6.19,0,0,0,.35-1.57c0-.55.07-1.06.07-1.5s0-.95-.07-1.51a6.19,6.19,0,0,0-.35-1.57,3.08,3.08,0,0,0-.81-1.23A2,2,0,0,0,152.56,237.33Z"/><path d="M161.46,236.27a3.21,3.21,0,0,1,2,.56,3.67,3.67,0,0,1,1.17,1.42,6.17,6.17,0,0,1,.56,1.9,13.08,13.08,0,0,1,0,3.95,6.17,6.17,0,0,1-.56,1.9,3.67,3.67,0,0,1-1.17,1.42,3.73,3.73,0,0,1-3.93,0,3.86,3.86,0,0,1-1.17-1.42,6.45,6.45,0,0,1-.56-1.9,14,14,0,0,1,0-3.95,6.45,6.45,0,0,1,.56-1.9,3.86,3.86,0,0,1,1.17-1.42A3.24,3.24,0,0,1,161.46,236.27Zm0,1.06a2.09,2.09,0,0,0-1.47.49,3.19,3.19,0,0,0-.81,1.23,6.18,6.18,0,0,0-.34,1.57c-.05.56-.07,1.06-.07,1.51s0,1,.07,1.5a6.18,6.18,0,0,0,.34,1.57,3.19,3.19,0,0,0,.81,1.23,2.09,2.09,0,0,0,1.47.5,2.07,2.07,0,0,0,1.46-.5,3.08,3.08,0,0,0,.81-1.23,6.18,6.18,0,0,0,.34-1.57c.05-.55.07-1.06.07-1.5s0-.95-.07-1.51a6.18,6.18,0,0,0-.34-1.57,3.08,3.08,0,0,0-.81-1.23A2.06,2.06,0,0,0,161.46,237.33Z"/><path d="M171.5,242c0-.28,0-.56,0-.84s0-.55-.06-.83h1.14v1.14h0a2.44,2.44,0,0,1,1.07-1,2.94,2.94,0,0,1,1.35-.34,3.83,3.83,0,0,1,.65.06,2.28,2.28,0,0,1,.66.24,2.34,2.34,0,0,1,.6.47,2.45,2.45,0,0,1,.47.78,2.43,2.43,0,0,1,1-1.13,2.76,2.76,0,0,1,1.45-.42,2.69,2.69,0,0,1,2.12.76,3.12,3.12,0,0,1,.69,2.17v4.75h-1v-4.37a3.22,3.22,0,0,0-.4-1.74,1.65,1.65,0,0,0-1.49-.61,2,2,0,0,0-1,.23,1.84,1.84,0,0,0-.65.62,2.42,2.42,0,0,0-.36.87,4.25,4.25,0,0,0-.11,1v4h-1.06v-4.37a3.13,3.13,0,0,0-.4-1.74,1.64,1.64,0,0,0-1.49-.61l-.44.06a1.71,1.71,0,0,0-.71.36,2.53,2.53,0,0,0-.66.86,3.51,3.51,0,0,0-.3,1.6v3.84H171.5Z"/><path d="M185.14,242q0-.42,0-.84c0-.27,0-.55-.05-.83h1.13v1.14h0a2.44,2.44,0,0,1,1.07-1,2.94,2.94,0,0,1,1.35-.34,3.83,3.83,0,0,1,.65.06,2.28,2.28,0,0,1,.66.24,2,2,0,0,1,.6.47,2.28,2.28,0,0,1,.47.78,2.48,2.48,0,0,1,1-1.13,2.76,2.76,0,0,1,1.45-.42,2.73,2.73,0,0,1,2.13.76,3.12,3.12,0,0,1,.68,2.17v4.75h-1.05v-4.37a3.13,3.13,0,0,0-.4-1.74,1.64,1.64,0,0,0-1.49-.61,2,2,0,0,0-1,.23,1.93,1.93,0,0,0-.65.62,2.62,2.62,0,0,0-.36.87,4.83,4.83,0,0,0-.11,1v4h-1.06v-4.37a3.13,3.13,0,0,0-.4-1.74,1.63,1.63,0,0,0-1.49-.61l-.44.06a1.71,1.71,0,0,0-.71.36,2.67,2.67,0,0,0-.66.86,3.51,3.51,0,0,0-.3,1.6v3.84h-1.05Z"/></g><line class="cls-2" x1="88.11" y1="227.53" x2="210.81" y2="227.53"/><line class="cls-2" x1="88.11" y1="227.28" x2="88.11" y2="227.79"/><line class="cls-2" x1="210.81" y1="227.28" x2="210.81" y2="227.79"/><line class="cls-2" x1="88.11" y1="225.32" x2="88.11" y2="229.74"/><line class="cls-2" x1="210.81" y1="225.32" x2="210.81" y2="229.74"/><line class="cls-2" x1="69.91" y1="123.85" x2="69.91" y2="47.04"/><line class="cls-2" x1="68.07" y1="47.02" x2="71.61" y2="47.02"/><line class="cls-2" x1="67.39" y1="123.85" x2="72.44" y2="123.85"/><g class="cls-1"><path d="M49.75,115.42V120l3.41.08a3.51,3.51,0,0,1-.21-.75,5,5,0,0,1-.06-.77,3.83,3.83,0,0,1,.27-1.46,3.22,3.22,0,0,1,.76-1.12,3.45,3.45,0,0,1,1.15-.74,4.14,4.14,0,0,1,2.94,0,3.48,3.48,0,0,1,1.17.8,3.6,3.6,0,0,1,.76,1.21,4.17,4.17,0,0,1,.27,1.51,3.75,3.75,0,0,1-.51,1.94,3.31,3.31,0,0,1-1.5,1.33l-.5-1.15a2.69,2.69,0,0,0,1.07-.9,2.28,2.28,0,0,0,.39-1.32,2.6,2.6,0,0,0-.2-1,2.75,2.75,0,0,0-.54-.8,2.52,2.52,0,0,0-1.79-.74,2.79,2.79,0,0,0-1.09.21,2.49,2.49,0,0,0-.85.57,2.6,2.6,0,0,0-.56.88,3.37,3.37,0,0,0-.19,1.12,4.53,4.53,0,0,0,.17,1.21,5.14,5.14,0,0,0,.46,1.14l-5.88-.11v-5.77Z"/><path d="M48.5,109.51a3.24,3.24,0,0,1,.56-2,3.77,3.77,0,0,1,1.43-1.16,6,6,0,0,1,1.89-.56,13.82,13.82,0,0,1,2-.15,13.58,13.58,0,0,1,2,.15,6.17,6.17,0,0,1,1.9.56,3.66,3.66,0,0,1,1.42,1.16,3.75,3.75,0,0,1,0,3.94,3.78,3.78,0,0,1-1.42,1.17,6.77,6.77,0,0,1-1.9.56,15.09,15.09,0,0,1-2,.14,15.36,15.36,0,0,1-2-.14,6.6,6.6,0,0,1-1.89-.56,3.89,3.89,0,0,1-1.43-1.17A3.24,3.24,0,0,1,48.5,109.51Zm1.06,0a2.09,2.09,0,0,0,.49,1.47,3.2,3.2,0,0,0,1.24.8,6.11,6.11,0,0,0,1.56.35c.56.05,1.06.07,1.51.07s1,0,1.5-.07a6.09,6.09,0,0,0,1.57-.35,3.17,3.17,0,0,0,1.23-.8,2.09,2.09,0,0,0,.5-1.47,2.05,2.05,0,0,0-.5-1.46,3.08,3.08,0,0,0-1.23-.81,5.7,5.7,0,0,0-1.57-.34c-.55-.05-1-.08-1.5-.08s-1,0-1.51.08a5.71,5.71,0,0,0-1.56.34,3.11,3.11,0,0,0-1.24.81A2,2,0,0,0,49.56,109.51Z"/><path d="M48.5,100.62a3.24,3.24,0,0,1,.56-2,3.89,3.89,0,0,1,1.43-1.17,6.3,6.3,0,0,1,1.89-.56,13.76,13.76,0,0,1,2-.14,13.53,13.53,0,0,1,2,.14,6.45,6.45,0,0,1,1.9.56,3.78,3.78,0,0,1,1.42,1.17,3.73,3.73,0,0,1,0,3.93,3.78,3.78,0,0,1-1.42,1.17,6.17,6.17,0,0,1-1.9.56,13.58,13.58,0,0,1-2,.15,13.82,13.82,0,0,1-2-.15,6,6,0,0,1-1.89-.56,3.89,3.89,0,0,1-1.43-1.17A3.21,3.21,0,0,1,48.5,100.62Zm1.06,0a2.08,2.08,0,0,0,.49,1.46,3.11,3.11,0,0,0,1.24.81,6.1,6.1,0,0,0,1.56.34c.56,0,1.06.07,1.51.07s1,0,1.5-.07a6.09,6.09,0,0,0,1.57-.34,3.08,3.08,0,0,0,1.23-.81,2.4,2.4,0,0,0,0-2.93,3.08,3.08,0,0,0-1.23-.81A6.09,6.09,0,0,0,55.86,98c-.55,0-1-.07-1.5-.07s-1,0-1.51.07a6.1,6.1,0,0,0-1.56.34,3.11,3.11,0,0,0-1.24.81A2.09,2.09,0,0,0,49.56,100.62Z"/><path d="M48.5,91.72a3.24,3.24,0,0,1,.56-2,3.89,3.89,0,0,1,1.43-1.17A6.6,6.6,0,0,1,52.38,88a15.36,15.36,0,0,1,2-.14,15.09,15.09,0,0,1,2,.14,6.77,6.77,0,0,1,1.9.56,3.78,3.78,0,0,1,1.42,1.17,3.75,3.75,0,0,1,0,3.94,3.78,3.78,0,0,1-1.42,1.17,6.77,6.77,0,0,1-1.9.56,15.09,15.09,0,0,1-2,.14,15.36,15.36,0,0,1-2-.14,6.6,6.6,0,0,1-1.89-.56,3.89,3.89,0,0,1-1.43-1.17A3.24,3.24,0,0,1,48.5,91.72Zm1.06,0a2,2,0,0,0,.49,1.46,3.11,3.11,0,0,0,1.24.81,6.11,6.11,0,0,0,1.56.35c.56,0,1.06.07,1.51.07s1,0,1.5-.07A6.09,6.09,0,0,0,57.43,94a3.08,3.08,0,0,0,1.23-.81,2.38,2.38,0,0,0,0-2.92,3.08,3.08,0,0,0-1.23-.81,6.09,6.09,0,0,0-1.57-.35c-.55,0-1-.07-1.5-.07s-1,0-1.51.07a6.11,6.11,0,0,0-1.56.35,3.11,3.11,0,0,0-1.24.81A2,2,0,0,0,49.56,91.72Z"/><path d="M54.2,81.67c-.28,0-.56,0-.83,0l-.84,0V80.62h1.14v0a2.41,2.41,0,0,1-1-1.06,2.94,2.94,0,0,1-.34-1.35,3,3,0,0,1,.07-.65,2.25,2.25,0,0,1,.23-.66,2,2,0,0,1,.47-.6,2.47,2.47,0,0,1,.78-.48,2.45,2.45,0,0,1-1.13-1,3.07,3.07,0,0,1,.34-3.58,3.12,3.12,0,0,1,2.17-.69H60v1.06H55.65a3.16,3.16,0,0,0-1.74.4,1.64,1.64,0,0,0-.61,1.49,2,2,0,0,0,.23,1,1.93,1.93,0,0,0,.62.65,3.07,3.07,0,0,0,.87.36,4.9,4.9,0,0,0,1,.11h4v1.06H55.65a3.16,3.16,0,0,0-1.74.4,1.62,1.62,0,0,0-.61,1.48,2.52,2.52,0,0,0,.07.44,1.71,1.71,0,0,0,.35.72,2.67,2.67,0,0,0,.86.66,3.53,3.53,0,0,0,1.6.3H60v1Z"/><path d="M54.2,68l-.83,0-.84.06V67h1.14v0a2.41,2.41,0,0,1-1-1.06,2.91,2.91,0,0,1-.27-2,2.42,2.42,0,0,1,.23-.67,2.34,2.34,0,0,1,.47-.6,2.65,2.65,0,0,1,.78-.47,2.45,2.45,0,0,1-1.13-1,3.07,3.07,0,0,1,.34-3.58,3.12,3.12,0,0,1,2.17-.69H60v1.06H55.65a3.16,3.16,0,0,0-1.74.4,1.63,1.63,0,0,0-.61,1.49,1.82,1.82,0,0,0,.85,1.64,3.07,3.07,0,0,0,.87.36,4.9,4.9,0,0,0,1,.11h4v1H55.65a3.25,3.25,0,0,0-1.74.4,1.65,1.65,0,0,0-.61,1.49,2.52,2.52,0,0,0,.07.44,1.62,1.62,0,0,0,.35.71,2.55,2.55,0,0,0,.86.67,3.69,3.69,0,0,0,1.6.29H60V68Z"/></g><line class="cls-2" x1="69.91" y1="216.84" x2="69.91" y2="123.85"/><line class="cls-2" x1="68.07" y1="123.83" x2="71.61" y2="123.83"/><line class="cls-2" x1="67.39" y1="216.84" x2="72.44" y2="216.84"/><line class="cls-2" x1="133.97" y1="162.74" x2="133.97" y2="122.87"/><line class="cls-2" x1="132.13" y1="122.86" x2="135.67" y2="122.86"/><line class="cls-2" x1="131.44" y1="162.74" x2="136.5" y2="162.74"/><g class="cls-1"><path d="M60,205.17v1.15H50.13l1.8,2-.87.72-2.37-2.88v-1Z"/><path d="M53.56,198.57V198a4.19,4.19,0,0,0-.11-.95,2.39,2.39,0,0,0-.36-.79,1.8,1.8,0,0,0-.65-.54,2.19,2.19,0,0,0-1-.2,1.86,1.86,0,0,0-1.42.55,2.26,2.26,0,0,0-.5,1.55,2.36,2.36,0,0,0,.32,1.26,2.52,2.52,0,0,0,.93.9l-.52,1a3.55,3.55,0,0,1-1.35-1.31,3.75,3.75,0,0,1-.44-1.83,4.26,4.26,0,0,1,.19-1.26,3,3,0,0,1,.57-1,2.77,2.77,0,0,1,.93-.72,3,3,0,0,1,1.26-.26,2.58,2.58,0,0,1,.88.15,2.85,2.85,0,0,1,1.33,1,2.89,2.89,0,0,1,.38.74l0-.05a2.34,2.34,0,0,1,.36-.88,2.84,2.84,0,0,1,.65-.69,2.8,2.8,0,0,1,.86-.44,3.1,3.1,0,0,1,1-.17,3.23,3.23,0,0,1,1.39.29,3.12,3.12,0,0,1,1,.79,3.65,3.65,0,0,1,.63,1.15,4.54,4.54,0,0,1,.21,1.39,4.27,4.27,0,0,1-.54,2.18,3.29,3.29,0,0,1-1.74,1.39L57.56,200a2.4,2.4,0,0,0,1.21-.85,2.79,2.79,0,0,0,.39-1.59,2.82,2.82,0,0,0-.16-.92,2.45,2.45,0,0,0-.46-.76,2,2,0,0,0-.71-.51,2.27,2.27,0,0,0-.91-.18,2.21,2.21,0,0,0-1.08.24,1.91,1.91,0,0,0-.71.64,2.48,2.48,0,0,0-.4.92,4.7,4.7,0,0,0-.12,1.08v.49Z"/><path d="M49.75,185.5v4.62l3.41.09a3.44,3.44,0,0,1-.21-.76,4.87,4.87,0,0,1-.06-.76,3.8,3.8,0,0,1,.27-1.46,3.26,3.26,0,0,1,.76-1.13,3.42,3.42,0,0,1,1.15-.73,4,4,0,0,1,2.94,0,3.34,3.34,0,0,1,1.17.8,3.51,3.51,0,0,1,.76,1.21,4.13,4.13,0,0,1,.27,1.51,3.77,3.77,0,0,1-.51,1.94,3.35,3.35,0,0,1-1.5,1.32L57.7,191a2.67,2.67,0,0,0,1.07-.89,2.31,2.31,0,0,0,.39-1.33,2.55,2.55,0,0,0-.2-1,2.6,2.6,0,0,0-1.34-1.35,2.54,2.54,0,0,0-1-.2,2.79,2.79,0,0,0-1.09.21,2.57,2.57,0,0,0-1.41,1.46,3.33,3.33,0,0,0-.19,1.12,4.59,4.59,0,0,0,.17,1.21,5.14,5.14,0,0,0,.46,1.14l-5.88-.11V185.5Z"/><path d="M48.5,179.6a3.24,3.24,0,0,1,.56-2,3.89,3.89,0,0,1,1.43-1.17,6.3,6.3,0,0,1,1.89-.56,13.76,13.76,0,0,1,2-.14,13.53,13.53,0,0,1,2,.14,6.45,6.45,0,0,1,1.9.56,3.78,3.78,0,0,1,1.42,1.17,3.75,3.75,0,0,1,0,3.94,3.66,3.66,0,0,1-1.42,1.16,6.17,6.17,0,0,1-1.9.56,13.58,13.58,0,0,1-2,.15,13.82,13.82,0,0,1-2-.15,6,6,0,0,1-1.89-.56,3.77,3.77,0,0,1-1.43-1.16A3.26,3.26,0,0,1,48.5,179.6Zm1.06,0a2.06,2.06,0,0,0,.49,1.46,3.11,3.11,0,0,0,1.24.81,5.71,5.71,0,0,0,1.56.34c.56,0,1.06.08,1.51.08s1,0,1.5-.08a5.7,5.7,0,0,0,1.57-.34,3.08,3.08,0,0,0,1.23-.81,2.07,2.07,0,0,0,.5-1.46,2.09,2.09,0,0,0-.5-1.47,3.17,3.17,0,0,0-1.23-.8,5.71,5.71,0,0,0-1.57-.35c-.55,0-1-.07-1.5-.07s-1,0-1.51.07a5.72,5.72,0,0,0-1.56.35,3.2,3.2,0,0,0-1.24.8A2.09,2.09,0,0,0,49.56,179.6Z"/><path d="M54.2,169.55l-.83,0-.84.06v-1.14h1.14v0a2.41,2.41,0,0,1-1-1.06,2.91,2.91,0,0,1-.27-2,2.42,2.42,0,0,1,.23-.67,2.34,2.34,0,0,1,.47-.6,2.65,2.65,0,0,1,.78-.47,2.42,2.42,0,0,1-1.13-1,2.73,2.73,0,0,1-.42-1.44,2.76,2.76,0,0,1,.76-2.13,3.12,3.12,0,0,1,2.17-.69H60v1.06H55.65a3.16,3.16,0,0,0-1.74.4,1.63,1.63,0,0,0-.61,1.49,2,2,0,0,0,.23,1,1.9,1.9,0,0,0,.62.64,2.82,2.82,0,0,0,.87.37,4.9,4.9,0,0,0,1,.11h4v1.05H55.65a3.25,3.25,0,0,0-1.74.4,1.65,1.65,0,0,0-.61,1.49,2.52,2.52,0,0,0,.07.44,1.62,1.62,0,0,0,.35.71,2.55,2.55,0,0,0,.86.67,3.69,3.69,0,0,0,1.6.29H60v1.06Z"/><path d="M54.2,155.92l-.83,0-.84.06v-1.14h1.14v0a2.47,2.47,0,0,1-1-1.06,3,3,0,0,1-.34-1.36,2.91,2.91,0,0,1,.07-.64,2.31,2.31,0,0,1,.23-.67,2.34,2.34,0,0,1,.47-.6,2.45,2.45,0,0,1,.78-.47,2.42,2.42,0,0,1-1.13-1,2.73,2.73,0,0,1-.42-1.44,2.76,2.76,0,0,1,.76-2.13,3.12,3.12,0,0,1,2.17-.69H60v1.05H55.65a3.15,3.15,0,0,0-1.74.41,1.62,1.62,0,0,0-.61,1.48,2,2,0,0,0,.23,1,1.9,1.9,0,0,0,.62.64,2.58,2.58,0,0,0,.87.36,4.31,4.31,0,0,0,1,.11h4v1.06H55.65a3.16,3.16,0,0,0-1.74.4,1.64,1.64,0,0,0-.61,1.49,2.67,2.67,0,0,0,.07.44,1.62,1.62,0,0,0,.35.71,2.55,2.55,0,0,0,.86.67,3.69,3.69,0,0,0,1.6.29H60v1.06Z"/></g><g class="cls-1"><path d="M121.41,153.84V152.2h1v1.64h2.69V155h-2.69v4.89h-1.31l-7.33-4.57v-1.47ZM115,155v0l6.43,3.9V155Z"/><path d="M119.12,148.62a2.08,2.08,0,0,1-.38.68,2.3,2.3,0,0,1-.58.54,3.07,3.07,0,0,1-.73.35,3,3,0,0,1-.84.13,2.9,2.9,0,0,1-1.22-.26,2.83,2.83,0,0,1-.94-.69,3.16,3.16,0,0,1-.59-1,3.5,3.5,0,0,1-.21-1.21,3.56,3.56,0,0,1,.21-1.22,3.27,3.27,0,0,1,.59-1,3,3,0,0,1,.94-.68,2.9,2.9,0,0,1,1.22-.26,2.63,2.63,0,0,1,.84.13,2.73,2.73,0,0,1,.73.35,2.3,2.3,0,0,1,.58.54,2,2,0,0,1,.38.68h0a2.71,2.71,0,0,1,1.06-1.54,3.21,3.21,0,0,1,1.92-.58,2.92,2.92,0,0,1,1.33.3,3.3,3.3,0,0,1,1.66,1.92,4.15,4.15,0,0,1,.23,1.37,4.19,4.19,0,0,1-.23,1.37,3.38,3.38,0,0,1-1.66,1.92,3.05,3.05,0,0,1-1.33.29,3.21,3.21,0,0,1-1.92-.57,2.74,2.74,0,0,1-1.06-1.54Zm-2.43-3.49a2.07,2.07,0,0,0-.8.15,1.9,1.9,0,0,0-.63.43,1.87,1.87,0,0,0-.42.64,2.07,2.07,0,0,0-.15.8,2.11,2.11,0,0,0,.15.8,2,2,0,0,0,.42.64,1.74,1.74,0,0,0,.63.42,2.07,2.07,0,0,0,.8.15,2.11,2.11,0,0,0,.8-.15,1.93,1.93,0,0,0,.63-.42,2,2,0,0,0,.42-.64,2.11,2.11,0,0,0,.15-.8,2.07,2.07,0,0,0-.15-.8,1.87,1.87,0,0,0-.42-.64,2.13,2.13,0,0,0-.63-.43A2.11,2.11,0,0,0,116.69,145.13Zm5.28-.41a2.51,2.51,0,0,0-.92.17,2.33,2.33,0,0,0-.74.49,2.16,2.16,0,0,0-.49.77,3.06,3.06,0,0,0,0,2,2.21,2.21,0,0,0,.49.76,2.43,2.43,0,0,0,2.58.48,2.16,2.16,0,0,0,.73-.48,2.08,2.08,0,0,0,.49-.76,2.9,2.9,0,0,0,0-2,2,2,0,0,0-.49-.77,2.18,2.18,0,0,0-.73-.49A2.51,2.51,0,0,0,122,144.72Z"/><path d="M113.63,138.25a3.26,3.26,0,0,1,.56-2,3.77,3.77,0,0,1,1.43-1.16,6,6,0,0,1,1.89-.56,13.82,13.82,0,0,1,2-.15,13.58,13.58,0,0,1,2,.15,6.17,6.17,0,0,1,1.9.56,3.66,3.66,0,0,1,1.42,1.16,3.69,3.69,0,0,1,0,3.94,3.78,3.78,0,0,1-1.42,1.17,6.45,6.45,0,0,1-1.9.56,15.09,15.09,0,0,1-2,.14,15.36,15.36,0,0,1-2-.14,6.3,6.3,0,0,1-1.89-.56,3.89,3.89,0,0,1-1.43-1.17A3.24,3.24,0,0,1,113.63,138.25Zm1.06,0a2,2,0,0,0,.5,1.47,3.17,3.17,0,0,0,1.23.8,5.72,5.72,0,0,0,1.56.35c.56,0,1.06.07,1.51.07s1,0,1.5-.07a5.71,5.71,0,0,0,1.57-.35,3.17,3.17,0,0,0,1.23-.8,2.09,2.09,0,0,0,.5-1.47,2.07,2.07,0,0,0-.5-1.46,3.08,3.08,0,0,0-1.23-.81,5.7,5.7,0,0,0-1.57-.34c-.55,0-1-.08-1.5-.08s-.95,0-1.51.08a5.71,5.71,0,0,0-1.56.34,3.08,3.08,0,0,0-1.23.81A2,2,0,0,0,114.69,138.25Z"/><path d="M119.33,128.2c-.28,0-.56,0-.83,0l-.84.05v-1.13h1.14v0a2.44,2.44,0,0,1-1-1.07,2.94,2.94,0,0,1-.34-1.35,3.07,3.07,0,0,1,.07-.65,2.25,2.25,0,0,1,.23-.66,2.34,2.34,0,0,1,.47-.6,2.28,2.28,0,0,1,.78-.47,2.53,2.53,0,0,1-1.13-1,3.07,3.07,0,0,1,.34-3.58,3.17,3.17,0,0,1,2.17-.68h4.75v1h-4.37a3.25,3.25,0,0,0-1.74.4,1.68,1.68,0,0,0-.61,1.49,2,2,0,0,0,.23,1,1.84,1.84,0,0,0,.62.65,2.58,2.58,0,0,0,.87.36,4.31,4.31,0,0,0,1,.11h4v1.06h-4.37a3.16,3.16,0,0,0-1.74.4,1.67,1.67,0,0,0-.61,1.49,2.67,2.67,0,0,0,.07.44,1.67,1.67,0,0,0,.35.71,2.53,2.53,0,0,0,.86.66,3.53,3.53,0,0,0,1.6.3h3.84v1Z"/><path d="M119.33,114.57c-.28,0-.56,0-.83,0l-.84.05v-1.13h1.14v0a2.41,2.41,0,0,1-1-1.06,2.94,2.94,0,0,1-.34-1.35,3.07,3.07,0,0,1,.07-.65,2.25,2.25,0,0,1,.23-.66,2,2,0,0,1,.47-.6,2.47,2.47,0,0,1,.78-.48,2.45,2.45,0,0,1-1.13-1,3.07,3.07,0,0,1,.34-3.58,3.12,3.12,0,0,1,2.17-.69h4.75v1.06h-4.37a3.16,3.16,0,0,0-1.74.4,1.67,1.67,0,0,0-.61,1.49,2,2,0,0,0,.23,1,1.93,1.93,0,0,0,.62.65,3.07,3.07,0,0,0,.87.36,4.9,4.9,0,0,0,1,.11h4v1.06h-4.37a3.16,3.16,0,0,0-1.74.4,1.65,1.65,0,0,0-.61,1.48,2.39,2.39,0,0,0,.07.44,1.71,1.71,0,0,0,.35.72,2.67,2.67,0,0,0,.86.66,3.53,3.53,0,0,0,1.6.3h3.84v1Z"/></g><line class="cls-3" x1="146.73" y1="124.13" x2="153.27" y2="124.13"/><line class="cls-3" x1="86.15" y1="185.29" x2="84.51" y2="188.74"/><line class="cls-3" x1="84.51" y1="188.74" x2="84.51" y2="190.01"/><polyline class="cls-3" points="110.28 216.52 103.4 217.01 96.53 216.47 89.81 214.91"/><polyline class="cls-3" points="89.81 214.91 88.92 214.41 88.12 213.76 87.44 212.99 86.9 212.13"/><polyline class="cls-3" points="86.9 212.13 86.09 210.88 85.5 209.53 85.13 208.1 84.99 206.63 85.08 205.16"/><polyline class="cls-3" points="85.08 205.16 85.09 204.77 85.03 204.4 84.91 204.04 84.72 203.7 84.47 203.41 84.17 203.17 83.83 202.99 83.47 202.86"/><polyline class="cls-3" points="83.47 202.86 82.77 202.74 82.11 202.5 81.49 202.16 80.94 201.72 80.46 201.2"/><polyline class="cls-3" points="84.51 190.01 84.7 190.12 84.87 190.26 85.01 190.42 85.11 190.61 85.18 190.82 85.2 191.03 85.19 191.25 85.13 191.46 85.04 191.66 84.91 191.83 84.75 191.98 84.57 192.09 84.36 192.17 84.15 192.21 83.93 192.2"/><line class="cls-3" x1="83.93" y1="192.2" x2="83.93" y2="196.82"/><polyline class="cls-3" points="83.93 196.82 83.85 197.67 83.61 198.5 83.21 199.27 82.68 199.94 82.03 200.5 81.28 200.92 80.46 201.2"/><line class="cls-3" x1="99.21" y1="181.37" x2="97.58" y2="184.82"/><line class="cls-3" x1="97.58" y1="184.82" x2="97.58" y2="186.09"/><polyline class="cls-3" points="96.53 198.94 95.84 198.81 95.18 198.58 94.56 198.24 94 197.8 93.53 197.28"/><polyline class="cls-3" points="97.58 186.09 97.77 186.19 97.94 186.33 98.07 186.5 98.18 186.69 98.25 186.9 98.27 187.12 98.26 187.33 98.2 187.54 98.1 187.73 97.97 187.91 97.82 188.06 97.63 188.17 97.43 188.25 97.22 188.28 97 188.28"/><line class="cls-3" x1="97" y1="188.28" x2="97" y2="192.89"/><polyline class="cls-3" points="97 192.9 96.92 193.75 96.67 194.58 96.28 195.34 95.74 196.02 95.09 196.58 94.34 197 93.53 197.28"/><polyline class="cls-3" points="128.4 216.59 119.96 217.27 111.51 216.71 103.24 214.91"/><polyline class="cls-3" points="103.24 214.91 102.34 214.41 101.55 213.76 100.87 212.99 100.32 212.13"/><polyline class="cls-3" points="100.32 212.13 99.01 209.61 98.19 206.89 97.89 204.07 98.14 201.24"/><polyline class="cls-3" points="98.15 201.24 98.16 200.85 98.1 200.48 97.97 200.12 97.78 199.78 97.53 199.49 97.23 199.25 96.9 199.06 96.53 198.94"/><line class="cls-3" x1="118.08" y1="185.29" x2="116.44" y2="188.75"/><line class="cls-3" x1="116.44" y1="188.75" x2="116.44" y2="190.01"/><polyline class="cls-3" points="129.54 216.59 126.86 216.45 124.24 215.88 121.74 214.91"/><polyline class="cls-3" points="121.74 214.91 120.85 214.41 120.05 213.76 119.37 212.99 118.83 212.13"/><polyline class="cls-3" points="118.83 212.13 118.03 210.88 117.43 209.53 117.06 208.1 116.92 206.63 117.01 205.16"/><polyline class="cls-3" points="117.01 205.16 117.02 204.78 116.96 204.4 116.83 204.04 116.65 203.71 116.39 203.41 116.1 203.17 115.76 202.99 115.4 202.87"/><polyline class="cls-3" points="115.4 202.87 114.7 202.74 114.04 202.5 113.42 202.16 112.87 201.72 112.39 201.2"/><polyline class="cls-3" points="116.44 190.01 116.63 190.12 116.8 190.26 116.94 190.42 117.04 190.61 117.11 190.82 117.13 191.04 117.12 191.26 117.06 191.46 116.97 191.66 116.84 191.83 116.68 191.98 116.5 192.09 116.29 192.17 116.08 192.21 115.86 192.2"/><line class="cls-3" x1="115.86" y1="192.2" x2="115.86" y2="196.82"/><polyline class="cls-3" points="115.86 196.82 115.78 197.68 115.53 198.5 115.14 199.27 114.61 199.94 113.95 200.5 113.21 200.92 112.39 201.2"/><polyline class="cls-3" points="147.32 198.87 146.63 198.75 145.96 198.51 145.35 198.16 144.79 197.73 144.32 197.21"/><polyline class="cls-3" points="152.68 198.87 153.37 198.75 154.04 198.51 154.66 198.16 155.21 197.73 155.69 197.21"/><line class="cls-3" x1="144.32" y1="197.21" x2="155.69" y2="197.21"/><line class="cls-3" x1="147.79" y1="188.21" x2="152.22" y2="188.21"/><line class="cls-3" x1="148.37" y1="184.75" x2="151.64" y2="184.75"/><path class="cls-3" d="M149.62,216a.39.39,0,1,0,.77,0"/><line class="cls-3" x1="149.62" y1="216.02" x2="149.62" y2="200.67"/><line class="cls-3" x1="150.39" y1="216.02" x2="150.39" y2="200.67"/><path class="cls-3" d="M141,187.1a21.76,21.76,0,0,0,9-5.8"/><path class="cls-3" d="M134,193.47a20,20,0,0,0,13.82-5.26"/><path class="cls-3" d="M128.61,201.53a56.85,56.85,0,0,0,15.71-4.32"/><line class="cls-3" x1="147.79" y1="188.21" x2="147.79" y2="192.91"/><line class="cls-3" x1="152.22" y1="188.21" x2="152.22" y2="192.28"/><path class="cls-3" d="M86.15,185.29a10.23,10.23,0,0,0,8.68,2.14"/><path class="cls-3" d="M99.21,181.37a9,9,0,0,0,12.76.16,9.19,9.19,0,0,0,2.29-3.7"/><path class="cls-3" d="M118.08,185.29a23.44,23.44,0,0,0,14.15,3.94"/><path class="cls-3" d="M135.93,188.76a23.36,23.36,0,0,0,5-1.66"/><path class="cls-3" d="M114,187.66a4.78,4.78,0,0,0,4-2.37"/><polyline class="cls-3" points="149.62 216.02 149.42 215.83 149.19 215.67 148.93 215.57 148.66 215.51 148.38 215.5 148.1 215.55"/><polyline class="cls-3" points="148.1 215.55 141.98 216.73 135.76 217.09 129.54 216.59"/><line class="cls-3" x1="107.6" y1="166.73" x2="105.97" y2="170.19"/><line class="cls-3" x1="105.97" y1="170.19" x2="105.97" y2="171.46"/><polyline class="cls-3" points="105.97 171.46 106.16 171.56 106.33 171.7 106.46 171.87 106.57 172.06 106.63 172.26 106.66 172.48 106.64 172.7 106.59 172.91 106.49 173.1 106.36 173.27 106.2 173.42 106.02 173.54 105.82 173.61 105.6 173.65 105.39 173.65"/><path class="cls-3" d="M107.6,166.73a4.43,4.43,0,0,0,6.24.57,4.35,4.35,0,0,0,1.19-1.54"/><path class="cls-3" d="M94.83,187.43a14.68,14.68,0,0,0,3.06-1.15"/><path class="cls-3" d="M102,183.29a11.56,11.56,0,0,0,3.44-9.64"/><line class="cls-3" x1="116.67" y1="161.03" x2="115.03" y2="164.49"/><line class="cls-3" x1="115.03" y1="164.49" x2="115.03" y2="165.76"/><path class="cls-3" d="M116.67,161a6.78,6.78,0,0,0,12.63,2.5"/><line class="cls-3" x1="129.3" y1="163.53" x2="127.67" y2="166.99"/><line class="cls-3" x1="127.67" y1="166.99" x2="127.67" y2="168.25"/><path class="cls-3" d="M129.3,163.53a12.9,12.9,0,0,0,18.22,1.19c.2-.17.58-.53.77-.73"/><path class="cls-3" d="M118.08,185.33a13.63,13.63,0,0,0,8.83-8.4"/><line class="cls-3" x1="150.01" y1="160.49" x2="148.37" y2="163.95"/><line class="cls-3" x1="213.85" y1="185.3" x2="215.49" y2="188.75"/><line class="cls-3" x1="215.49" y1="188.76" x2="215.49" y2="190.02"/><polyline class="cls-3" points="189.72 216.53 196.6 217.02 203.47 216.48 210.19 214.92"/><polyline class="cls-3" points="210.19 214.92 211.07 214.41 211.87 213.77 212.55 213 213.1 212.13"/><polyline class="cls-3" points="213.1 212.13 213.9 210.89 214.5 209.54 214.87 208.11 215.01 206.64 214.92 205.17"/><polyline class="cls-3" points="214.92 205.17 214.91 204.78 214.96 204.41 215.09 204.04 215.28 203.71 215.53 203.42 215.83 203.18 216.16 203 216.53 202.87"/><polyline class="cls-3" points="216.53 202.88 217.22 202.75 217.89 202.51 218.51 202.17 219.06 201.73 219.54 201.21"/><polyline class="cls-3" points="215.49 190.02 215.3 190.13 215.13 190.26 214.99 190.43 214.89 190.62 214.82 190.83 214.8 191.04 214.81 191.26 214.87 191.47 214.96 191.67 215.09 191.84 215.25 191.99 215.44 192.1 215.64 192.18 215.85 192.22 216.07 192.21"/><line class="cls-3" x1="216.07" y1="192.21" x2="216.07" y2="196.83"/><polyline class="cls-3" points="216.07 196.83 216.15 197.68 216.39 198.51 216.79 199.27 217.32 199.95 217.97 200.51 218.72 200.94 219.54 201.21"/><line class="cls-3" x1="200.79" y1="181.37" x2="202.42" y2="184.83"/><line class="cls-3" x1="202.42" y1="184.83" x2="202.42" y2="186.1"/><polyline class="cls-3" points="203.47 198.95 204.16 198.82 204.82 198.59 205.44 198.24 206 197.81 206.47 197.29"/><polyline class="cls-3" points="202.42 186.09 202.23 186.2 202.06 186.34 201.93 186.51 201.82 186.7 201.75 186.91 201.73 187.12 201.75 187.34 201.8 187.55 201.9 187.74 202.03 187.92 202.18 188.06 202.37 188.18 202.57 188.25 202.79 188.29 203 188.29"/><line class="cls-3" x1="203" y1="188.29" x2="203" y2="192.9"/><polyline class="cls-3" points="203 192.9 203.08 193.76 203.33 194.58 203.72 195.35 204.25 196.02 204.91 196.58 205.66 197.01 206.47 197.29"/><polyline class="cls-3" points="171.6 216.59 180.04 217.28 188.49 216.72 196.76 214.92"/><polyline class="cls-3" points="196.76 214.92 197.65 214.41 198.45 213.77 199.13 213 199.67 212.13"/><polyline class="cls-3" points="199.67 212.13 200.99 209.61 201.81 206.9 202.1 204.07 201.85 201.25"/><polyline class="cls-3" points="201.85 201.25 201.84 200.86 201.9 200.48 202.03 200.12 202.22 199.79 202.47 199.5 202.76 199.25 203.1 199.07 203.47 198.95"/><line class="cls-3" x1="181.92" y1="185.29" x2="183.56" y2="188.75"/><line class="cls-3" x1="183.56" y1="188.75" x2="183.56" y2="190.02"/><polyline class="cls-3" points="170.45 216.6 173.13 216.46 175.76 215.89 178.26 214.92"/><polyline class="cls-3" points="178.26 214.92 179.15 214.41 179.94 213.76 180.62 212.99 181.17 212.13"/><polyline class="cls-3" points="181.17 212.13 181.97 210.89 182.57 209.54 182.94 208.11 183.08 206.64 182.99 205.17"/><polyline class="cls-3" points="182.99 205.17 182.98 204.78 183.04 204.41 183.16 204.04 183.35 203.71 183.6 203.42 183.9 203.17 184.24 202.99 184.6 202.87"/><polyline class="cls-3" points="184.6 202.87 185.29 202.74 185.96 202.51 186.58 202.16 187.13 201.73 187.61 201.21"/><polyline class="cls-3" points="183.56 190.02 183.37 190.12 183.2 190.26 183.06 190.43 182.96 190.62 182.89 190.82 182.87 191.04 182.88 191.26 182.94 191.47 183.03 191.66 183.16 191.84 183.32 191.98 183.5 192.1 183.71 192.18 183.92 192.21 184.14 192.21"/><line class="cls-3" x1="184.14" y1="192.21" x2="184.14" y2="196.82"/><polyline class="cls-3" points="184.14 196.82 184.22 197.68 184.47 198.5 184.86 199.27 185.39 199.94 186.04 200.51 186.79 200.93 187.61 201.21"/><path class="cls-3" d="M152.21,188.21A20,20,0,0,0,166,193.47"/><path class="cls-3" d="M155.68,197.21a56.75,56.75,0,0,0,15.71,4.32"/><path class="cls-3" d="M205.17,187.44a10.23,10.23,0,0,0,8.68-2.14"/><path class="cls-3" d="M185.75,177.84a9,9,0,0,0,15,3.53"/><path class="cls-3" d="M181.92,185.29a4.75,4.75,0,0,0,4,2.37"/><polyline class="cls-3" points="150.38 216.02 150.58 215.83 150.81 215.67 151.07 215.57 151.34 215.51 151.62 215.5 151.89 215.55"/><polyline class="cls-3" points="151.89 215.55 158.01 216.74 164.24 217.09 170.45 216.6"/><line class="cls-3" x1="192.4" y1="166.74" x2="194.04" y2="170.2"/><line class="cls-3" x1="194.04" y1="170.2" x2="194.03" y2="171.46"/><polyline class="cls-3" points="194.03 171.46 193.84 171.57 193.68 171.71 193.54 171.87 193.44 172.06 193.37 172.27 193.34 172.49 193.36 172.7 193.41 172.91 193.51 173.11 193.64 173.28 193.8 173.43 193.98 173.54 194.19 173.62 194.4 173.66 194.62 173.65"/><path class="cls-3" d="M185,165.76a4.45,4.45,0,0,0,7.43,1"/><path class="cls-3" d="M202.11,186.29a15.26,15.26,0,0,0,3.06,1.15"/><path class="cls-3" d="M194.62,173.65a11.51,11.51,0,0,0,3.43,9.64"/><line class="cls-3" x1="183.34" y1="161.04" x2="184.97" y2="164.5"/><line class="cls-3" x1="184.97" y1="164.5" x2="184.97" y2="165.76"/><path class="cls-3" d="M170.7,163.54a6.79,6.79,0,0,0,12.64-2.5"/><line class="cls-3" x1="170.7" y1="163.53" x2="172.34" y2="166.99"/><line class="cls-3" x1="172.34" y1="166.99" x2="172.34" y2="168.26"/><path class="cls-3" d="M151.72,164a12.9,12.9,0,0,0,18.25.31,8.86,8.86,0,0,0,.73-.77"/><path class="cls-3" d="M173.09,176.93a13.65,13.65,0,0,0,8.83,8.41"/><line class="cls-3" x1="150.01" y1="160.49" x2="151.64" y2="163.95"/><path class="cls-3" d="M150,181.3a21.93,21.93,0,0,0,9,5.8"/><path class="cls-3" d="M167.77,189.23a23.47,23.47,0,0,0,14.16-3.94"/><line class="cls-3" x1="150.01" y1="123.52" x2="146.94" y2="123.52"/><polyline class="cls-3" points="146.94 123.53 146.88 123.53 146.82 123.55 146.76 123.58 146.71 123.62 146.67 123.67 146.64 123.72 146.61 123.79 146.6 123.85 146.61 123.92 146.63 123.98 146.65 124.04 146.69 124.09 146.73 124.13"/><polyline class="cls-3" points="146.73 124.13 144.48 131.04 143.42 138.24 143.6 145.51 144.99 152.65"/><polyline class="cls-3" points="144.99 152.65 145.41 154.44 145.65 156.26"/><polyline class="cls-3" points="145.65 156.26 145.46 158.16 144.92 159.99 144.06 161.68 142.91 163.19 141.5 164.47 139.88 165.47 138.11 166.15 136.24 166.5 134.34 166.5 132.47 166.15"/><polyline class="cls-3" points="148.72 123.53 148.65 123.53 148.59 123.55 148.54 123.58 148.48 123.62 148.44 123.67 148.41 123.72 148.39 123.79 148.38 123.85 148.38 123.92 148.4 123.98 148.43 124.04 148.47 124.09 148.51 124.13"/><polyline class="cls-3" points="148.51 124.13 146.25 131.04 145.2 138.24 145.37 145.51 146.77 152.65"/><polyline class="cls-3" points="146.76 152.65 147.19 154.44 147.42 156.26"/><polyline class="cls-3" points="147.42 156.26 147.06 158.78 146.23 161.17 144.96 163.35 143.28 165.26 141.28 166.8 139.01 167.93"/><polyline class="cls-3" points="151.29 123.53 151.35 123.53 151.42 123.55 151.47 123.58 151.53 123.62 151.57 123.67 151.6 123.72 151.62 123.79 151.63 123.85 151.63 123.92 151.61 123.98 151.58 124.04 151.54 124.09 151.5 124.13"/><polyline class="cls-3" points="151.5 124.13 153.75 131.04 154.81 138.24 154.63 145.51 153.24 152.65"/><polyline class="cls-3" points="153.24 152.65 152.82 154.44 152.59 156.26"/><polyline class="cls-3" points="152.59 156.26 152.94 158.78 153.78 161.17 155.05 163.35 156.72 165.26 158.73 166.8 161 167.93"/><line class="cls-3" x1="150.01" y1="123.52" x2="153.06" y2="123.52"/><polyline class="cls-3" points="153.06 123.53 153.13 123.54 153.19 123.55 153.25 123.58 153.3 123.62 153.34 123.67 153.37 123.72 153.39 123.79 153.4 123.85 153.4 123.92 153.38 123.98 153.36 124.04 153.32 124.09 153.27 124.13"/><polyline class="cls-3" points="153.27 124.13 155.53 131.05 156.58 138.24 156.41 145.51 155.01 152.65"/><polyline class="cls-3" points="155.01 152.65 154.6 154.44 154.36 156.27"/><polyline class="cls-3" points="154.36 156.27 154.55 158.16 155.08 159.98 155.94 161.68 157.09 163.19 158.5 164.47 160.12 165.47 161.89 166.15 163.76 166.5 165.66 166.5 167.53 166.15"/><line class="cls-3" x1="150.01" y1="123.52" x2="150.01" y2="45.19"/></svg>