<svg id="zeppelin_S1" data-name="zeppelin S1" xmlns="http://www.w3.org/2000/svg" viewBox="0 0 300 263"><defs><style>.cls-1{isolation:isolate;}.cls-2,.cls-3{fill:none;stroke-width:0.5px;}.cls-2{stroke:#000;}.cls-3{stroke:#1a171b;stroke-linecap:round;stroke-linejoin:round;}</style></defs><title>zeppelin-suspension-1-wanders-flos-F9800009-spech-tech-02-300x263</title><g class="cls-1"><path d="M124.18,213.89a4,4,0,0,1,.68,1.16,4.24,4.24,0,0,1,.24,1.45,4.06,4.06,0,0,1-.29,1.57,3.73,3.73,0,0,1-2.08,2.07,4.2,4.2,0,0,1-1.61.3,4.15,4.15,0,0,1-1.4-.23,3.72,3.72,0,0,1-1.11-.61l-1.07,1.09-.52-.49,1.06-1.09a3.67,3.67,0,0,1-.69-1.18,4.17,4.17,0,0,1-.24-1.43,4,4,0,0,1,.3-1.57,3.93,3.93,0,0,1,.82-1.25,3.76,3.76,0,0,1,1.26-.82,4.43,4.43,0,0,1,3-.08,3.65,3.65,0,0,1,1.15.62l1.06-1.09.51.49Zm-1.25.26a2.64,2.64,0,0,0-1.81-.63,3,3,0,0,0-1.18.23,2.7,2.7,0,0,0-.88.64,2.94,2.94,0,0,0-.56.94,3.42,3.42,0,0,0-.2,1.17,3,3,0,0,0,.55,1.82Zm-3.6,4.72a2.72,2.72,0,0,0,.8.45,3.11,3.11,0,0,0,1,.16,2.8,2.8,0,0,0,1.18-.24,2.54,2.54,0,0,0,.88-.63,2.73,2.73,0,0,0,.57-.94,3.23,3.23,0,0,0,.2-1.17,3.18,3.18,0,0,0-.54-1.83Z"/><path d="M135.89,220.24h-1.15v-9.88l-2,1.79-.72-.87,2.88-2.36h1Z"/><path d="M144.78,220.24h-1.15v-9.88l-2,1.79-.72-.87,2.88-2.36h1Z"/><path d="M152.56,208.72a3.24,3.24,0,0,1,2,.56,3.89,3.89,0,0,1,1.17,1.43,6.7,6.7,0,0,1,.56,1.89,15.36,15.36,0,0,1,.14,2,15.09,15.09,0,0,1-.14,2,6.77,6.77,0,0,1-.56,1.9,3.78,3.78,0,0,1-1.17,1.42,3.69,3.69,0,0,1-3.94,0,3.78,3.78,0,0,1-1.17-1.42,6.77,6.77,0,0,1-.56-1.9,15.09,15.09,0,0,1-.14-2,15.36,15.36,0,0,1,.14-2,6.7,6.7,0,0,1,.56-1.89,3.89,3.89,0,0,1,1.17-1.43A3.24,3.24,0,0,1,152.56,208.72Zm0,1.06a2,2,0,0,0-1.46.5,3.08,3.08,0,0,0-.81,1.23,6.09,6.09,0,0,0-.35,1.57c0,.55-.07,1-.07,1.5s0,.95.07,1.5a6.09,6.09,0,0,0,.35,1.57,3.08,3.08,0,0,0,.81,1.23,2.38,2.38,0,0,0,2.92,0,3.08,3.08,0,0,0,.81-1.23,6.09,6.09,0,0,0,.35-1.57c0-.55.07-1.05.07-1.5s0-1-.07-1.5a6.09,6.09,0,0,0-.35-1.57,3.08,3.08,0,0,0-.81-1.23A2,2,0,0,0,152.56,209.78Z"/><path d="M161.46,208.72a3.21,3.21,0,0,1,2,.56,3.7,3.7,0,0,1,1.17,1.43,6.11,6.11,0,0,1,.56,1.89,13.82,13.82,0,0,1,.15,2,13.58,13.58,0,0,1-.15,2,6.17,6.17,0,0,1-.56,1.9,3.6,3.6,0,0,1-1.17,1.42,3.67,3.67,0,0,1-3.93,0,3.78,3.78,0,0,1-1.17-1.42,6.45,6.45,0,0,1-.56-1.9,13.53,13.53,0,0,1-.14-2,13.76,13.76,0,0,1,.14-2,6.39,6.39,0,0,1,.56-1.89,3.89,3.89,0,0,1,1.17-1.43A3.24,3.24,0,0,1,161.46,208.72Zm0,1.06a2,2,0,0,0-1.47.5,3.19,3.19,0,0,0-.81,1.23,6.09,6.09,0,0,0-.34,1.57c-.05.55-.07,1-.07,1.5s0,.95.07,1.5a6.09,6.09,0,0,0,.34,1.57,3.19,3.19,0,0,0,.81,1.23,2.09,2.09,0,0,0,1.47.5,2.07,2.07,0,0,0,1.46-.5,3.08,3.08,0,0,0,.81-1.23,6.09,6.09,0,0,0,.34-1.57c.05-.55.07-1.05.07-1.5s0-1-.07-1.5a6.09,6.09,0,0,0-.34-1.57,3.08,3.08,0,0,0-.81-1.23A2,2,0,0,0,161.46,209.78Z"/><path d="M171.5,214.42c0-.28,0-.56,0-.83s0-.56-.06-.84h1.14v1.14h0a2.44,2.44,0,0,1,1.07-1,2.94,2.94,0,0,1,1.35-.34,3.07,3.07,0,0,1,.65.07,2.25,2.25,0,0,1,.66.23,2.34,2.34,0,0,1,.6.47,2.4,2.4,0,0,1,.47.79,2.45,2.45,0,0,1,1-1.14,2.76,2.76,0,0,1,1.45-.42,2.73,2.73,0,0,1,2.12.76,3.12,3.12,0,0,1,.69,2.17v4.75h-1v-4.37a3.25,3.25,0,0,0-.4-1.74,1.68,1.68,0,0,0-1.49-.61,2,2,0,0,0-1,.23,1.93,1.93,0,0,0-.65.62,2.58,2.58,0,0,0-.36.87,4.31,4.31,0,0,0-.11,1v4h-1.06v-4.37a3.16,3.16,0,0,0-.4-1.74,1.67,1.67,0,0,0-1.49-.61,2.67,2.67,0,0,0-.44.07,1.67,1.67,0,0,0-.71.35,2.53,2.53,0,0,0-.66.86,3.53,3.53,0,0,0-.3,1.6v3.84H171.5Z"/><path d="M185.14,214.42c0-.28,0-.56,0-.83s0-.56-.05-.84h1.13v1.14h0a2.44,2.44,0,0,1,1.07-1,2.94,2.94,0,0,1,1.35-.34,3.07,3.07,0,0,1,.65.07,2.25,2.25,0,0,1,.66.23,2,2,0,0,1,.6.47,2.24,2.24,0,0,1,.47.79,2.51,2.51,0,0,1,1-1.14,3.07,3.07,0,0,1,3.58.34,3.12,3.12,0,0,1,.68,2.17v4.75h-1.05v-4.37a3.16,3.16,0,0,0-.4-1.74,1.67,1.67,0,0,0-1.49-.61,2,2,0,0,0-1,.23,2,2,0,0,0-.65.62,2.8,2.8,0,0,0-.36.87,4.9,4.9,0,0,0-.11,1v4h-1.06v-4.37a3.16,3.16,0,0,0-.4-1.74,1.65,1.65,0,0,0-1.49-.61,2.67,2.67,0,0,0-.44.07,1.67,1.67,0,0,0-.71.35,2.67,2.67,0,0,0-.66.86,3.53,3.53,0,0,0-.3,1.6v3.84h-1.05Z"/></g><line class="cls-2" x1="90.56" y1="199.99" x2="206.63" y2="199.99"/><line class="cls-2" x1="90.56" y1="199.73" x2="90.56" y2="200.24"/><line class="cls-2" x1="206.63" y1="199.73" x2="206.63" y2="200.24"/><line class="cls-2" x1="90.56" y1="197.78" x2="90.56" y2="202.2"/><line class="cls-2" x1="206.63" y1="197.78" x2="206.63" y2="202.2"/><line class="cls-2" x1="69.91" y1="119.54" x2="69.91" y2="47.04"/><line class="cls-2" x1="68.07" y1="47.02" x2="71.61" y2="47.02"/><line class="cls-2" x1="67.39" y1="119.54" x2="72.44" y2="119.54"/><g class="cls-1"><path d="M56.28,116.2v-1.63h1v1.63H60v1.15H57.33v4.9H56l-7.33-4.58V116.2Zm-6.43,1.15v0l6.43,3.91v-3.94Z"/><path d="M48.5,109.51a3.24,3.24,0,0,1,.56-2,3.77,3.77,0,0,1,1.43-1.16,6,6,0,0,1,1.89-.56,13.82,13.82,0,0,1,2-.15,13.58,13.58,0,0,1,2,.15,6.17,6.17,0,0,1,1.9.56,3.66,3.66,0,0,1,1.42,1.16,3.75,3.75,0,0,1,0,3.94,3.78,3.78,0,0,1-1.42,1.17,6.77,6.77,0,0,1-1.9.56,15.09,15.09,0,0,1-2,.14,15.36,15.36,0,0,1-2-.14,6.6,6.6,0,0,1-1.89-.56,3.89,3.89,0,0,1-1.43-1.17A3.24,3.24,0,0,1,48.5,109.51Zm1.06,0a2.09,2.09,0,0,0,.49,1.47,3.2,3.2,0,0,0,1.24.8,6.11,6.11,0,0,0,1.56.35c.56.05,1.06.07,1.51.07s1,0,1.5-.07a6.09,6.09,0,0,0,1.57-.35,3.17,3.17,0,0,0,1.23-.8,2.09,2.09,0,0,0,.5-1.47,2.05,2.05,0,0,0-.5-1.46,3.08,3.08,0,0,0-1.23-.81,5.7,5.7,0,0,0-1.57-.34c-.55-.05-1-.08-1.5-.08s-1,0-1.51.08a5.71,5.71,0,0,0-1.56.34,3.11,3.11,0,0,0-1.24.81A2,2,0,0,0,49.56,109.51Z"/><path d="M48.5,100.62a3.24,3.24,0,0,1,.56-2,3.89,3.89,0,0,1,1.43-1.17,6.3,6.3,0,0,1,1.89-.56,13.76,13.76,0,0,1,2-.14,13.53,13.53,0,0,1,2,.14,6.45,6.45,0,0,1,1.9.56,3.78,3.78,0,0,1,1.42,1.17,3.73,3.73,0,0,1,0,3.93,3.78,3.78,0,0,1-1.42,1.17,6.17,6.17,0,0,1-1.9.56,13.58,13.58,0,0,1-2,.15,13.82,13.82,0,0,1-2-.15,6,6,0,0,1-1.89-.56,3.89,3.89,0,0,1-1.43-1.17A3.21,3.21,0,0,1,48.5,100.62Zm1.06,0a2.08,2.08,0,0,0,.49,1.46,3.11,3.11,0,0,0,1.24.81,6.1,6.1,0,0,0,1.56.34c.56,0,1.06.07,1.51.07s1,0,1.5-.07a6.09,6.09,0,0,0,1.57-.34,3.08,3.08,0,0,0,1.23-.81,2.4,2.4,0,0,0,0-2.93,3.08,3.08,0,0,0-1.23-.81A6.09,6.09,0,0,0,55.86,98c-.55,0-1-.07-1.5-.07s-1,0-1.51.07a6.1,6.1,0,0,0-1.56.34,3.11,3.11,0,0,0-1.24.81A2.09,2.09,0,0,0,49.56,100.62Z"/><path d="M48.5,91.72a3.24,3.24,0,0,1,.56-2,3.89,3.89,0,0,1,1.43-1.17A6.6,6.6,0,0,1,52.38,88a15.36,15.36,0,0,1,2-.14,15.09,15.09,0,0,1,2,.14,6.77,6.77,0,0,1,1.9.56,3.78,3.78,0,0,1,1.42,1.17,3.75,3.75,0,0,1,0,3.94,3.78,3.78,0,0,1-1.42,1.17,6.77,6.77,0,0,1-1.9.56,15.09,15.09,0,0,1-2,.14,15.36,15.36,0,0,1-2-.14,6.6,6.6,0,0,1-1.89-.56,3.89,3.89,0,0,1-1.43-1.17A3.24,3.24,0,0,1,48.5,91.72Zm1.06,0a2,2,0,0,0,.49,1.46,3.11,3.11,0,0,0,1.24.81,6.11,6.11,0,0,0,1.56.35c.56,0,1.06.07,1.51.07s1,0,1.5-.07A6.09,6.09,0,0,0,57.43,94a3.08,3.08,0,0,0,1.23-.81,2.38,2.38,0,0,0,0-2.92,3.08,3.08,0,0,0-1.23-.81,6.09,6.09,0,0,0-1.57-.35c-.55,0-1-.07-1.5-.07s-1,0-1.51.07a6.11,6.11,0,0,0-1.56.35,3.11,3.11,0,0,0-1.24.81A2,2,0,0,0,49.56,91.72Z"/><path d="M54.2,81.67c-.28,0-.56,0-.83,0l-.84,0V80.62h1.14v0a2.41,2.41,0,0,1-1-1.06,2.94,2.94,0,0,1-.34-1.35,3,3,0,0,1,.07-.65,2.25,2.25,0,0,1,.23-.66,2,2,0,0,1,.47-.6,2.47,2.47,0,0,1,.78-.48,2.45,2.45,0,0,1-1.13-1,3.07,3.07,0,0,1,.34-3.58,3.12,3.12,0,0,1,2.17-.69H60v1.06H55.65a3.16,3.16,0,0,0-1.74.4,1.64,1.64,0,0,0-.61,1.49,2,2,0,0,0,.23,1,1.93,1.93,0,0,0,.62.65,3.07,3.07,0,0,0,.87.36,4.9,4.9,0,0,0,1,.11h4v1.06H55.65a3.16,3.16,0,0,0-1.74.4,1.62,1.62,0,0,0-.61,1.48,2.52,2.52,0,0,0,.07.44,1.71,1.71,0,0,0,.35.72,2.67,2.67,0,0,0,.86.66,3.53,3.53,0,0,0,1.6.3H60v1Z"/><path d="M54.2,68l-.83,0-.84.06V67h1.14v0a2.41,2.41,0,0,1-1-1.06,2.91,2.91,0,0,1-.27-2,2.42,2.42,0,0,1,.23-.67,2.34,2.34,0,0,1,.47-.6,2.65,2.65,0,0,1,.78-.47,2.45,2.45,0,0,1-1.13-1,3.07,3.07,0,0,1,.34-3.58,3.12,3.12,0,0,1,2.17-.69H60v1.06H55.65a3.16,3.16,0,0,0-1.74.4,1.63,1.63,0,0,0-.61,1.49,1.82,1.82,0,0,0,.85,1.64,3.07,3.07,0,0,0,.87.36,4.9,4.9,0,0,0,1,.11h4v1H55.65a3.25,3.25,0,0,0-1.74.4,1.65,1.65,0,0,0-.61,1.49,2.52,2.52,0,0,0,.07.44,1.62,1.62,0,0,0,.35.71,2.55,2.55,0,0,0,.86.67,3.69,3.69,0,0,0,1.6.29H60V68Z"/></g><line class="cls-2" x1="69.91" y1="190.58" x2="69.91" y2="119.54"/><line class="cls-2" x1="68.07" y1="119.52" x2="71.61" y2="119.52"/><line class="cls-2" x1="67.39" y1="190.58" x2="72.44" y2="190.58"/><line class="cls-2" x1="134.93" y1="144.34" x2="134.93" y2="104.47"/><line class="cls-2" x1="133.08" y1="104.46" x2="136.63" y2="104.46"/><line class="cls-2" x1="132.4" y1="144.34" x2="137.45" y2="144.34"/><g class="cls-1"><path d="M49.75,183,60,187.56v1.29L49.75,184.2v5.52H48.69V183Z"/><path d="M56.28,175V173.4h1V175H60v1.15H57.33v4.9H56l-7.33-4.58V175Zm-6.43,1.15v0l6.43,3.91v-3.94Z"/><path d="M48.5,168.34a3.24,3.24,0,0,1,.56-2,3.89,3.89,0,0,1,1.43-1.17,6.6,6.6,0,0,1,1.89-.56,15.36,15.36,0,0,1,2-.14,15.09,15.09,0,0,1,2,.14,6.77,6.77,0,0,1,1.9.56,3.78,3.78,0,0,1,1.42,1.17,3.75,3.75,0,0,1,0,3.94,3.78,3.78,0,0,1-1.42,1.17,6.77,6.77,0,0,1-1.9.56,15.09,15.09,0,0,1-2,.14,15.36,15.36,0,0,1-2-.14,6.6,6.6,0,0,1-1.89-.56,3.89,3.89,0,0,1-1.43-1.17A3.24,3.24,0,0,1,48.5,168.34Zm1.06,0a2,2,0,0,0,.49,1.46,3.11,3.11,0,0,0,1.24.81,6.11,6.11,0,0,0,1.56.35c.56,0,1.06.07,1.51.07s1,0,1.5-.07a6.09,6.09,0,0,0,1.57-.35,3.08,3.08,0,0,0,1.23-.81,2.38,2.38,0,0,0,0-2.92,3.08,3.08,0,0,0-1.23-.81,6.09,6.09,0,0,0-1.57-.35c-.55,0-1-.07-1.5-.07s-1,0-1.51.07a6.11,6.11,0,0,0-1.56.35,3.11,3.11,0,0,0-1.24.81A2,2,0,0,0,49.56,168.34Z"/><path d="M54.2,158.29c-.28,0-.56,0-.83,0l-.84.05v-1.13h1.14v0a2.41,2.41,0,0,1-1-1.06,2.94,2.94,0,0,1-.34-1.35,3.07,3.07,0,0,1,.07-.65,2.25,2.25,0,0,1,.23-.66,2,2,0,0,1,.47-.6,2.47,2.47,0,0,1,.78-.48,2.45,2.45,0,0,1-1.13-1,3.07,3.07,0,0,1,.34-3.58,3.12,3.12,0,0,1,2.17-.69H60v1.06H55.65a3.16,3.16,0,0,0-1.74.4,1.64,1.64,0,0,0-.61,1.49,2,2,0,0,0,.23,1,1.93,1.93,0,0,0,.62.65,3.07,3.07,0,0,0,.87.36,4.9,4.9,0,0,0,1,.11h4v1.06H55.65a3.16,3.16,0,0,0-1.74.4,1.62,1.62,0,0,0-.61,1.48,2.52,2.52,0,0,0,.07.44,1.71,1.71,0,0,0,.35.72,2.67,2.67,0,0,0,.86.66,3.53,3.53,0,0,0,1.6.3H60v1Z"/><path d="M54.2,144.66l-.83,0-.84.06V143.6h1.14v0a2.41,2.41,0,0,1-1-1.06,2.91,2.91,0,0,1-.27-2,2.42,2.42,0,0,1,.23-.67,2.34,2.34,0,0,1,.47-.6,2.65,2.65,0,0,1,.78-.47,2.45,2.45,0,0,1-1.13-1,3.07,3.07,0,0,1,.34-3.58,3.12,3.12,0,0,1,2.17-.69H60v1.06H55.65a3.16,3.16,0,0,0-1.74.4,1.63,1.63,0,0,0-.61,1.49,2,2,0,0,0,.23,1,1.93,1.93,0,0,0,.62.65,3.07,3.07,0,0,0,.87.36,4.9,4.9,0,0,0,1,.11h4v1H55.65a3.25,3.25,0,0,0-1.74.4,1.65,1.65,0,0,0-.61,1.49,2.52,2.52,0,0,0,.07.44,1.62,1.62,0,0,0,.35.71,2.55,2.55,0,0,0,.86.67,3.55,3.55,0,0,0,1.6.29H60v1.06Z"/></g><g class="cls-1"><path d="M126.11,134.13v7.2h-1.33l-4.59-4.51c-.17-.18-.35-.35-.54-.52a6.5,6.5,0,0,0-.61-.46,3.84,3.84,0,0,0-.67-.34,2.3,2.3,0,0,0-.74-.13,2,2,0,0,0-.83.17,1.76,1.76,0,0,0-.63.48,2.08,2.08,0,0,0-.39.7,2.65,2.65,0,0,0-.13.85,2.37,2.37,0,0,0,.47,1.47,2.17,2.17,0,0,0,1.3.78l-.13,1.22a3.18,3.18,0,0,1-2-1.16,3.51,3.51,0,0,1-.72-2.23,4.66,4.66,0,0,1,.18-1.31,3.26,3.26,0,0,1,.56-1.08,2.63,2.63,0,0,1,.92-.76,2.84,2.84,0,0,1,1.28-.28,3.51,3.51,0,0,1,1.2.2,5.24,5.24,0,0,1,1,.52,7.86,7.86,0,0,1,.91.73c.29.27.57.55.85.84l3.53,3.57v-6Z"/><path d="M119.65,130.13l0,0a2,2,0,0,1-.29-.73,4.54,4.54,0,0,1-.1-.84,3.45,3.45,0,0,1,.27-1.37,3.31,3.31,0,0,1,.73-1.1,3.09,3.09,0,0,1,1.1-.72,3.84,3.84,0,0,1,2.83,0,3.35,3.35,0,0,1,1.11.77,3.46,3.46,0,0,1,.71,1.17,3.92,3.92,0,0,1,.26,1.47,3.85,3.85,0,0,1-.26,1.47,3.46,3.46,0,0,1-.71,1.17,3.21,3.21,0,0,1-1.11.77,3.63,3.63,0,0,1-1.42.27,4.39,4.39,0,0,1-1.65-.28,9.45,9.45,0,0,1-1.39-.69l-5-3.06V127Zm3.15,1.15a2.64,2.64,0,0,0,1-.18,2.48,2.48,0,0,0,.78-.52,2.52,2.52,0,0,0,.5-.8,2.86,2.86,0,0,0,.18-1,2.8,2.8,0,0,0-.18-1,2.41,2.41,0,0,0-.5-.8,2.18,2.18,0,0,0-.78-.52,2.64,2.64,0,0,0-1-.19,2.57,2.57,0,0,0-1,.19,2.06,2.06,0,0,0-.77.52,2.44,2.44,0,0,0-.51.8,2.8,2.8,0,0,0-.18,1,2.86,2.86,0,0,0,.18,1,2.55,2.55,0,0,0,.51.8,2.33,2.33,0,0,0,.77.52A2.57,2.57,0,0,0,122.8,131.28Z"/><path d="M114.59,119.86a3.24,3.24,0,0,1,.56-2,3.86,3.86,0,0,1,1.42-1.17,6.45,6.45,0,0,1,1.9-.56,14,14,0,0,1,4,0,6.45,6.45,0,0,1,1.9.56,3.86,3.86,0,0,1,1.42,1.17,3.73,3.73,0,0,1,0,3.93,3.76,3.76,0,0,1-1.42,1.17,6.17,6.17,0,0,1-1.9.56,13.08,13.08,0,0,1-4,0,6.17,6.17,0,0,1-1.9-.56,3.76,3.76,0,0,1-1.42-1.17A3.21,3.21,0,0,1,114.59,119.86Zm1.06,0a2.08,2.08,0,0,0,.49,1.46,3.08,3.08,0,0,0,1.23.81,6.18,6.18,0,0,0,1.57.34c.56,0,1.06.07,1.51.07s.94,0,1.5-.07a6.18,6.18,0,0,0,1.57-.34,3.08,3.08,0,0,0,1.23-.81,2.4,2.4,0,0,0,0-2.93,3.19,3.19,0,0,0-1.23-.81,6.18,6.18,0,0,0-1.57-.34c-.56,0-1.06-.07-1.5-.07s-1,0-1.51.07a6.18,6.18,0,0,0-1.57.34,3.19,3.19,0,0,0-1.23.81A2.09,2.09,0,0,0,115.65,119.86Z"/><path d="M120.29,109.81l-.84,0-.83.06v-1.14h1.14v0a2.47,2.47,0,0,1-1-1.06,3,3,0,0,1-.34-1.36,3.72,3.72,0,0,1,.06-.64,2.45,2.45,0,0,1,.24-.67,2.34,2.34,0,0,1,.47-.6,2.65,2.65,0,0,1,.78-.47,2.38,2.38,0,0,1-1.13-1,3.06,3.06,0,0,1,.34-3.57,3.12,3.12,0,0,1,2.17-.69h4.75V99.7h-4.37a3.11,3.11,0,0,0-1.74.4,1.62,1.62,0,0,0-.61,1.48,2,2,0,0,0,.23,1,1.9,1.9,0,0,0,.62.64,2.42,2.42,0,0,0,.87.36,4.17,4.17,0,0,0,1,.12h4v1h-4.37a3.2,3.2,0,0,0-1.74.4,1.64,1.64,0,0,0-.61,1.49,3.61,3.61,0,0,0,.06.44,1.65,1.65,0,0,0,.36.71,2.55,2.55,0,0,0,.86.67,3.66,3.66,0,0,0,1.6.29h3.84v1.06Z"/><path d="M120.29,96.18c-.28,0-.56,0-.84,0l-.83.06V95.12h1.14v0a2.44,2.44,0,0,1-1-1.07,2.94,2.94,0,0,1-.34-1.35,3.83,3.83,0,0,1,.06-.65,2.28,2.28,0,0,1,.24-.66,2.34,2.34,0,0,1,.47-.6,2.45,2.45,0,0,1,.78-.47,2.43,2.43,0,0,1-1.13-1,2.74,2.74,0,0,1-.42-1.45,2.69,2.69,0,0,1,.76-2.12,3.12,3.12,0,0,1,2.17-.69h4.75v1h-4.37a3.2,3.2,0,0,0-1.74.4,1.65,1.65,0,0,0-.61,1.49,2,2,0,0,0,.23,1,1.84,1.84,0,0,0,.62.65,2.42,2.42,0,0,0,.87.36,4.17,4.17,0,0,0,1,.11h4v1.06h-4.37a3.11,3.11,0,0,0-1.74.4,1.64,1.64,0,0,0-.61,1.49,3.61,3.61,0,0,0,.06.44,1.65,1.65,0,0,0,.36.71,2.42,2.42,0,0,0,.86.66,3.51,3.51,0,0,0,1.6.3h3.84v1.06Z"/></g><line class="cls-3" x1="146.57" y1="111.89" x2="152.1" y2="111.89"/><line class="cls-3" x1="95.37" y1="163.55" x2="93.98" y2="166.47"/><line class="cls-3" x1="93.98" y1="166.47" x2="93.98" y2="167.55"/><polyline class="cls-3" points="115.76 189.94 109.95 190.36 104.14 189.9 98.46 188.59"/><polyline class="cls-3" points="98.46 188.58 97.71 188.15 97.03 187.61 96.46 186.96 96 186.23"/><polyline class="cls-3" points="96 186.23 95.32 185.18 94.82 184.04 94.5 182.83 94.38 181.59 94.46 180.34"/><polyline class="cls-3" points="94.46 180.34 94.47 180.02 94.42 179.7 94.31 179.39 94.16 179.11 93.94 178.87 93.69 178.66 93.41 178.5 93.1 178.4"/><polyline class="cls-3" points="93.1 178.4 92.51 178.3 91.95 178.09 91.43 177.81 90.96 177.44 90.56 177"/><polyline class="cls-3" points="93.98 167.54 94.14 167.63 94.29 167.75 94.4 167.89 94.49 168.05 94.55 168.23 94.57 168.41 94.56 168.59 94.51 168.77 94.43 168.94 94.32 169.08 94.19 169.21 94.03 169.3 93.86 169.37 93.68 169.4 93.49 169.4"/><line class="cls-3" x1="93.49" y1="169.4" x2="93.49" y2="173.29"/><polyline class="cls-3" points="93.49 173.29 93.42 174.02 93.22 174.72 92.88 175.36 92.43 175.93 91.88 176.4 91.25 176.76 90.56 177"/><line class="cls-3" x1="106.41" y1="160.24" x2="105.03" y2="163.16"/><line class="cls-3" x1="105.03" y1="163.16" x2="105.03" y2="164.23"/><polyline class="cls-3" points="104.14 175.09 103.56 174.98 103 174.78 102.47 174.49 102 174.12 101.6 173.69"/><polyline class="cls-3" points="105.03 164.23 105.19 164.32 105.33 164.44 105.44 164.58 105.53 164.74 105.59 164.91 105.61 165.1 105.6 165.28 105.55 165.46 105.47 165.62 105.36 165.77 105.23 165.89 105.07 165.99 104.9 166.05 104.72 166.09 104.53 166.08"/><line class="cls-3" x1="104.53" y1="166.08" x2="104.53" y2="169.98"/><polyline class="cls-3" points="104.53 169.98 104.47 170.7 104.26 171.4 103.92 172.05 103.47 172.62 102.92 173.09 102.29 173.45 101.6 173.69"/><polyline class="cls-3" points="131.07 190 123.94 190.58 116.8 190.1 109.81 188.59"/><polyline class="cls-3" points="109.81 188.58 109.06 188.15 108.38 187.61 107.81 186.96 107.35 186.23"/><polyline class="cls-3" points="107.35 186.23 106.23 184.1 105.54 181.81 105.29 179.42 105.5 177.03"/><polyline class="cls-3" points="105.51 177.03 105.52 176.7 105.46 176.38 105.36 176.08 105.2 175.8 104.98 175.55 104.73 175.35 104.45 175.19 104.14 175.09"/><line class="cls-3" x1="122.35" y1="163.55" x2="120.97" y2="166.48"/><line class="cls-3" x1="120.97" y1="166.48" x2="120.97" y2="167.55"/><polyline class="cls-3" points="132.04 190 129.78 189.88 127.56 189.4 125.45 188.58"/><polyline class="cls-3" points="125.45 188.58 124.69 188.15 124.02 187.61 123.45 186.96 122.99 186.23"/><polyline class="cls-3" points="122.98 186.23 122.31 185.18 121.8 184.04 121.49 182.83 121.37 181.59 121.45 180.34"/><polyline class="cls-3" points="121.45 180.34 121.46 180.02 121.41 179.7 121.3 179.4 121.14 179.11 120.93 178.87 120.68 178.66 120.39 178.5 120.08 178.4"/><polyline class="cls-3" points="120.08 178.4 119.5 178.29 118.94 178.1 118.42 177.81 117.95 177.44 117.55 177"/><polyline class="cls-3" points="120.97 167.54 121.13 167.63 121.27 167.75 121.39 167.89 121.48 168.05 121.53 168.23 121.55 168.41 121.54 168.6 121.49 168.77 121.41 168.94 121.3 169.08 121.17 169.21 121.01 169.3 120.84 169.37 120.66 169.4 120.48 169.4"/><line class="cls-3" x1="120.48" y1="169.4" x2="120.48" y2="173.29"/><polyline class="cls-3" points="120.48 173.29 120.41 174.02 120.2 174.72 119.87 175.36 119.42 175.93 118.86 176.41 118.23 176.76 117.55 177"/><polyline class="cls-3" points="147.07 175.03 146.48 174.92 145.92 174.72 145.4 174.43 144.93 174.07 144.53 173.63"/><polyline class="cls-3" points="151.6 175.03 152.18 174.92 152.75 174.72 153.27 174.43 153.73 174.07 154.14 173.63"/><line class="cls-3" x1="144.53" y1="173.63" x2="154.14" y2="173.63"/><line class="cls-3" x1="147.46" y1="166.02" x2="151.21" y2="166.02"/><line class="cls-3" x1="147.95" y1="163.1" x2="150.71" y2="163.1"/><path class="cls-3" d="M149,189.52a.32.32,0,0,0,.32.33.33.33,0,0,0,.33-.33"/><line class="cls-3" x1="149.01" y1="189.52" x2="149.01" y2="176.55"/><line class="cls-3" x1="149.66" y1="189.52" x2="149.66" y2="176.55"/><path class="cls-3" d="M141.69,165.09a18.57,18.57,0,0,0,7.64-4.91"/><path class="cls-3" d="M135.78,170.46A16.84,16.84,0,0,0,147.46,166"/><path class="cls-3" d="M131.25,177.28a47.91,47.91,0,0,0,13.28-3.66"/><line class="cls-3" x1="147.46" y1="166.02" x2="147.46" y2="169.99"/><line class="cls-3" x1="151.21" y1="166.02" x2="151.21" y2="169.46"/><path class="cls-3" d="M95.37,163.55a8.61,8.61,0,0,0,7.33,1.81"/><path class="cls-3" d="M106.41,160.24a7.63,7.63,0,0,0,12.71-3"/><path class="cls-3" d="M122.35,163.55a19.84,19.84,0,0,0,12,3.33"/><path class="cls-3" d="M137.44,166.49a20.55,20.55,0,0,0,4.25-1.4"/><path class="cls-3" d="M118.94,165.56a4,4,0,0,0,3.41-2"/><polyline class="cls-3" points="149.01 189.52 148.84 189.36 148.64 189.23 148.43 189.14 148.19 189.09 147.96 189.08 147.73 189.12"/><polyline class="cls-3" points="147.73 189.12 142.55 190.12 137.29 190.42 132.04 190"/><line class="cls-3" x1="113.5" y1="147.88" x2="112.12" y2="150.8"/><line class="cls-3" x1="112.12" y1="150.8" x2="112.12" y2="151.87"/><polyline class="cls-3" points="112.12 151.87 112.28 151.96 112.42 152.07 112.54 152.21 112.62 152.38 112.68 152.55 112.7 152.73 112.69 152.92 112.64 153.09 112.56 153.26 112.45 153.4 112.32 153.53 112.16 153.63 111.99 153.69 111.81 153.72 111.63 153.72"/><path class="cls-3" d="M113.5,147.88a3.74,3.74,0,0,0,5.27.48,3.79,3.79,0,0,0,1-1.31"/><path class="cls-3" d="M102.7,165.36a12.82,12.82,0,0,0,2.59-1"/><path class="cls-3" d="M108.72,161.86a9.78,9.78,0,0,0,2.91-8.14"/><line class="cls-3" x1="121.16" y1="143.06" x2="119.78" y2="145.98"/><line class="cls-3" x1="119.78" y1="145.98" x2="119.78" y2="147.05"/><path class="cls-3" d="M121.16,143.06a5.73,5.73,0,0,0,10.67,2.11"/><line class="cls-3" x1="131.83" y1="145.17" x2="130.45" y2="148.09"/><line class="cls-3" x1="130.45" y1="148.09" x2="130.45" y2="149.16"/><path class="cls-3" d="M131.83,145.17a10.92,10.92,0,0,0,15.4,1c.17-.15.5-.45.65-.62"/><path class="cls-3" d="M122.35,163.59a11.54,11.54,0,0,0,7.47-7.1"/><line class="cls-3" x1="149.33" y1="142.6" x2="147.95" y2="145.53"/><line class="cls-3" x1="203.29" y1="163.56" x2="204.68" y2="166.48"/><line class="cls-3" x1="204.68" y1="166.48" x2="204.68" y2="167.55"/><polyline class="cls-3" points="182.89 189.95 188.71 190.37 194.51 189.91 200.19 188.59"/><polyline class="cls-3" points="200.19 188.59 200.94 188.16 201.62 187.62 202.2 186.97 202.66 186.23"/><polyline class="cls-3" points="202.66 186.23 203.33 185.18 203.84 184.04 204.15 182.84 204.27 181.6 204.19 180.35"/><polyline class="cls-3" points="204.19 180.35 204.18 180.03 204.23 179.71 204.34 179.4 204.5 179.12 204.71 178.87 204.96 178.67 205.25 178.51 205.55 178.41"/><polyline class="cls-3" points="205.55 178.41 206.14 178.3 206.71 178.1 207.23 177.81 207.69 177.45 208.1 177.01"/><polyline class="cls-3" points="204.68 167.55 204.51 167.64 204.37 167.76 204.26 167.9 204.17 168.06 204.11 168.24 204.09 168.42 204.11 168.6 204.15 168.78 204.23 168.94 204.34 169.09 204.47 169.21 204.63 169.31 204.8 169.38 204.98 169.41 205.17 169.4"/><line class="cls-3" x1="205.17" y1="169.4" x2="205.17" y2="173.3"/><polyline class="cls-3" points="205.17 173.3 205.23 174.02 205.44 174.72 205.77 175.37 206.23 175.94 206.78 176.41 207.41 176.77 208.1 177.01"/><line class="cls-3" x1="192.25" y1="160.25" x2="193.63" y2="163.17"/><line class="cls-3" x1="193.63" y1="163.17" x2="193.63" y2="164.24"/><polyline class="cls-3" points="194.52 175.1 195.1 174.99 195.66 174.79 196.18 174.5 196.65 174.13 197.06 173.69"/><polyline class="cls-3" points="193.63 164.24 193.47 164.32 193.33 164.44 193.21 164.59 193.13 164.75 193.07 164.92 193.05 165.1 193.06 165.28 193.11 165.46 193.19 165.63 193.3 165.78 193.43 165.9 193.59 166 193.76 166.06 193.94 166.09 194.12 166.09"/><line class="cls-3" x1="194.12" y1="166.09" x2="194.12" y2="169.99"/><polyline class="cls-3" points="194.12 169.99 194.19 170.71 194.4 171.41 194.73 172.05 195.18 172.62 195.74 173.1 196.37 173.46 197.06 173.69"/><polyline class="cls-3" points="167.59 190 174.72 190.58 181.86 190.11 188.85 188.59"/><polyline class="cls-3" points="188.85 188.59 189.6 188.16 190.28 187.61 190.85 186.96 191.31 186.23"/><polyline class="cls-3" points="191.31 186.23 192.43 184.11 193.12 181.81 193.36 179.42 193.15 177.04"/><polyline class="cls-3" points="193.15 177.04 193.14 176.71 193.19 176.39 193.3 176.09 193.46 175.8 193.67 175.56 193.92 175.35 194.21 175.2 194.52 175.09"/><line class="cls-3" x1="176.31" y1="163.56" x2="177.69" y2="166.48"/><line class="cls-3" x1="177.69" y1="166.48" x2="177.69" y2="167.55"/><polyline class="cls-3" points="166.61 190.01 168.88 189.89 171.1 189.41 173.21 188.59"/><polyline class="cls-3" points="173.21 188.59 173.96 188.16 174.63 187.61 175.21 186.96 175.67 186.23"/><polyline class="cls-3" points="175.67 186.23 176.35 185.18 176.85 184.04 177.17 182.83 177.29 181.59 177.21 180.35"/><polyline class="cls-3" points="177.21 180.35 177.2 180.02 177.25 179.71 177.36 179.4 177.52 179.12 177.73 178.87 177.98 178.66 178.26 178.51 178.57 178.41"/><polyline class="cls-3" points="178.57 178.41 179.16 178.3 179.72 178.1 180.24 177.81 180.71 177.44 181.11 177"/><polyline class="cls-3" points="177.69 167.55 177.53 167.64 177.39 167.75 177.27 167.9 177.18 168.06 177.13 168.23 177.11 168.42 177.12 168.6 177.17 168.78 177.24 168.94 177.36 169.09 177.49 169.21 177.65 169.31 177.82 169.37 178 169.4 178.18 169.4"/><line class="cls-3" x1="178.18" y1="169.4" x2="178.18" y2="173.3"/><polyline class="cls-3" points="178.18 173.3 178.25 174.02 178.46 174.72 178.79 175.37 179.24 175.94 179.79 176.41 180.42 176.77 181.11 177"/><path class="cls-3" d="M151.2,166a16.82,16.82,0,0,0,11.68,4.44"/><path class="cls-3" d="M154.13,173.62a47.57,47.57,0,0,0,13.28,3.66"/><path class="cls-3" d="M196,165.37a8.62,8.62,0,0,0,7.34-1.81"/><path class="cls-3" d="M179.54,157.26a7.62,7.62,0,0,0,9.59,4.92,7.48,7.48,0,0,0,3.12-1.94"/><path class="cls-3" d="M176.31,163.56a4,4,0,0,0,3.41,2"/><polyline class="cls-3" points="149.65 189.52 149.82 189.36 150.01 189.23 150.23 189.14 150.46 189.09 150.7 189.08 150.93 189.12"/><polyline class="cls-3" points="150.93 189.12 156.1 190.12 161.36 190.42 166.61 190.01"/><line class="cls-3" x1="185.17" y1="147.88" x2="186.55" y2="150.8"/><line class="cls-3" x1="186.55" y1="150.8" x2="186.54" y2="151.87"/><polyline class="cls-3" points="186.54 151.87 186.38 151.96 186.24 152.08 186.12 152.22 186.04 152.38 185.98 152.56 185.96 152.74 185.97 152.92 186.02 153.1 186.1 153.26 186.21 153.41 186.34 153.53 186.5 153.63 186.67 153.7 186.85 153.73 187.04 153.72"/><path class="cls-3" d="M178.89,147.06a3.74,3.74,0,0,0,5,1.82,3.64,3.64,0,0,0,1.31-1"/><path class="cls-3" d="M193.37,164.4a12.77,12.77,0,0,0,2.58,1"/><path class="cls-3" d="M187,153.72a9.75,9.75,0,0,0,2.9,8.15"/><line class="cls-3" x1="177.5" y1="143.06" x2="178.89" y2="145.99"/><line class="cls-3" x1="178.89" y1="145.99" x2="178.89" y2="147.06"/><path class="cls-3" d="M166.83,145.18a5.73,5.73,0,0,0,10.67-2.12"/><line class="cls-3" x1="166.83" y1="145.17" x2="168.21" y2="148.1"/><line class="cls-3" x1="168.21" y1="148.1" x2="168.21" y2="149.16"/><path class="cls-3" d="M150.78,145.56a10.91,10.91,0,0,0,15.43.26c.16-.15.47-.47.62-.65"/><path class="cls-3" d="M168.84,156.5a11.56,11.56,0,0,0,7.47,7.1"/><line class="cls-3" x1="149.33" y1="142.6" x2="150.71" y2="145.53"/><path class="cls-3" d="M149.33,160.18a18.47,18.47,0,0,0,7.64,4.91"/><path class="cls-3" d="M164.35,166.89a19.83,19.83,0,0,0,12-3.34"/><line class="cls-3" x1="149.33" y1="111.37" x2="146.75" y2="111.37"/><polyline class="cls-3" points="146.75 111.37 146.69 111.38 146.64 111.4 146.59 111.42 146.55 111.45 146.51 111.49 146.49 111.54 146.47 111.59 146.46 111.65 146.46 111.7 146.48 111.75 146.5 111.8 146.53 111.85 146.57 111.89"/><polyline class="cls-3" points="146.57 111.89 144.66 117.73 143.77 123.81 143.92 129.94 145.1 135.97"/><polyline class="cls-3" points="145.1 135.97 145.45 137.49 145.65 139.03"/><polyline class="cls-3" points="145.65 139.03 145.49 140.63 145.04 142.18 144.31 143.61 143.34 144.89 142.15 145.96 140.78 146.81 139.28 147.38 137.7 147.68 136.1 147.68 134.52 147.38"/><polyline class="cls-3" points="148.25 111.37 148.19 111.38 148.14 111.4 148.09 111.42 148.05 111.45 148.01 111.49 147.99 111.54 147.97 111.59 147.96 111.65 147.96 111.7 147.98 111.75 148 111.8 148.03 111.85 148.07 111.89"/><polyline class="cls-3" points="148.07 111.89 146.16 117.73 145.27 123.81 145.42 129.94 146.6 135.97"/><polyline class="cls-3" points="146.59 135.97 146.95 137.49 147.15 139.03"/><polyline class="cls-3" points="147.15 139.03 146.85 141.15 146.15 143.17 145.07 145.02 143.65 146.63 141.96 147.93 140.04 148.89"/><polyline class="cls-3" points="150.42 111.37 150.47 111.38 150.53 111.4 150.57 111.42 150.62 111.45 150.65 111.49 150.68 111.54 150.7 111.59 150.71 111.65 150.7 111.7 150.69 111.75 150.67 111.8 150.63 111.85 150.59 111.89"/><polyline class="cls-3" points="150.59 111.89 152.5 117.73 153.39 123.81 153.25 129.94 152.07 135.97"/><polyline class="cls-3" points="152.07 135.97 151.72 137.49 151.51 139.03"/><polyline class="cls-3" points="151.51 139.03 151.82 141.15 152.52 143.17 153.6 145.02 155.01 146.63 156.71 147.94 158.62 148.89"/><line class="cls-3" x1="149.33" y1="111.37" x2="151.92" y2="111.37"/><polyline class="cls-3" points="151.92 111.37 151.97 111.38 152.03 111.4 152.07 111.42 152.12 111.45 152.15 111.49 152.18 111.54 152.2 111.59 152.21 111.65 152.2 111.7 152.19 111.75 152.17 111.8 152.13 111.85 152.1 111.89"/><polyline class="cls-3" points="152.1 111.89 154 117.73 154.89 123.81 154.75 129.94 153.56 135.97"/><polyline class="cls-3" points="153.56 135.97 153.21 137.49 153.01 139.04"/><polyline class="cls-3" points="153.01 139.04 153.18 140.63 153.63 142.18 154.35 143.61 155.32 144.89 156.51 145.96 157.88 146.81 159.38 147.38 160.96 147.68 162.57 147.68 164.15 147.39"/><line class="cls-3" x1="149.33" y1="111.37" x2="149.33" y2="45.19"/></svg>