<?xml version="1.0" encoding="UTF-8"?> <!-- Generator: Adobe Illustrator 23.0.3, SVG Export Plug-In . SVG Version: 6.00 Build 0) --> <svg xmlns="http://www.w3.org/2000/svg" xmlns:xlink="http://www.w3.org/1999/xlink" id="Livello_1" x="0px" y="0px" viewBox="0 0 623.4 1000" style="enable-background:new 0 0 623.4 1000;" xml:space="preserve"> <style type="text/css"> .st0{fill:#FFFFFF;} .st1{fill:none;stroke:#000000;stroke-width:0.5;} .st2{fill:none;stroke:#231F20;stroke-width:0.5;} .st3{fill:none;stroke:#231F20;stroke-width:0.5;stroke-miterlimit:10;} .st4{fill:#231F20;} </style> <title>Acorn medium</title> <rect id="quadrato" class="st0" width="623.4" height="1000"></rect> <path class="st1" d="M134.5,800.5h274.3 M477.6,402.4v358.4"></path> <path d="M536.6,598.3v-3c-0.1-1.8,0.5-3.5,1.5-4.9c1.1-1.2,2.6-1.8,4.2-1.7c1.6-0.1,3.2,0.4,4.4,1.5c1.1,1.2,1.6,2.9,1.5,4.5 c0.1,1.6-0.5,3.2-1.5,4.4c-1,1.1-2.5,1.7-4,1.6v4.1c2.4,0.1,4.8-0.9,6.4-2.8c3.2-4.3,3.2-10.2-0.1-14.5c-1.7-1.9-4.2-2.9-6.8-2.8 c-1.7,0-3.3,0.5-4.7,1.4c-1.3,1-2.3,2.5-2.7,4.1c-0.6-1.5-1.6-2.7-2.9-3.7c-1.2-0.8-2.6-1.3-4-1.3c-2.5-0.1-4.9,0.8-6.7,2.5 c-3.2,4.2-3.2,10,0.1,14.1c1.6,1.8,3.9,2.8,6.3,2.8v-4.1c-1.5,0.1-2.9-0.5-3.9-1.5c-1-1.1-1.6-2.7-1.5-4.2c0-3.7,1.9-5.6,5.6-5.6 c1.5-0.1,3,0.5,4,1.7c1,1.3,1.6,2.9,1.5,4.5v3H536.6z M547.8,558.2v15.9l-9.3-8.5c-4.3-4-8-6-11.2-6c-2.3-0.1-4.6,0.8-6.2,2.5 c-1.6,2-2.5,4.5-2.3,7c-0.2,2.8,0.8,5.5,2.7,7.5c1.8,1.9,4.4,3,7,2.9v-4.1c-1.7,0.1-3.5-0.5-4.8-1.7c-1.2-1.3-1.8-3-1.7-4.7 c-0.1-1.5,0.5-3,1.6-4c1.1-1,2.6-1.5,4.1-1.5c1.2,0,2.5,0.3,3.6,0.9c1.6,0.9,3.2,2.1,4.5,3.4l12.2,11h2.9v-20.8L547.8,558.2z"></path> <path d="M238.6,874.6l-2.2,4.4h2.7l1.6-3.3c1.3,0.5,2.7,0.8,4.1,0.8c2,0,3.9-0.5,5.6-1.5c1.6-1.1,3-2.5,3.8-4.3 c0.9-1.9,1.4-4.1,1.3-6.2c0-4.6-1.4-8.1-4.3-10.4l2.2-4.5h-2.7l-1.6,3.3c-1.4-0.6-2.9-1-4.5-0.9c-2,0-3.9,0.5-5.6,1.5 c-1.7,1-3,2.5-3.8,4.3c-0.9,1.9-1.4,4.1-1.3,6.2C234.1,868.9,235.7,872.4,238.6,874.6L238.6,874.6z M240,857.7 c1.1-1.5,2.9-2.4,4.8-2.4c1,0,2,0.2,2.9,0.7l-7.5,15.1c-1.5-1.9-2.2-4.3-2.1-6.7C238.2,861.6,238.8,859.3,240,857.7L240,857.7z M251.6,864.4c0.1,2.3-0.5,4.5-1.8,6.4c-1.1,1.5-3,2.4-4.9,2.4c-0.9,0-1.8-0.2-2.6-0.5l7.4-15c1.3,1.9,2,4.1,1.9,6.4V864.4z M280.9,872.8H265l8.5-9.2c4-4.3,6-8,6-11.2c0.1-2.3-0.8-4.6-2.5-6.2c-2-1.6-4.5-2.5-7-2.3c-2.8-0.2-5.5,0.8-7.5,2.7 c-1.9,1.8-3,4.4-2.9,7.1h4.1c-0.1-1.7,0.5-3.5,1.6-4.8c1.3-1.2,3-1.8,4.7-1.7c1.5-0.1,3,0.5,4,1.6c1,1.1,1.5,2.6,1.5,4.1 c0,1.2-0.3,2.5-0.9,3.6c-1,1.6-2.1,3.1-3.4,4.5l-11,12.2v2.9h20.8L280.9,872.8z M291,861.5h3c1.8-0.1,3.5,0.4,4.9,1.5 c1.2,1.1,1.8,2.6,1.7,4.2c0.1,1.6-0.4,3.2-1.5,4.4c-1.2,1.1-2.9,1.6-4.5,1.5c-1.6,0.1-3.2-0.5-4.4-1.5c-1.1-1-1.7-2.5-1.6-4h-4.1 c-0.1,2.4,0.9,4.8,2.8,6.4c4.3,3.3,10.3,3.3,14.6-0.1c1.9-1.7,2.9-4.2,2.8-6.8c0-1.7-0.5-3.3-1.4-4.7c-1-1.3-2.5-2.3-4.1-2.7 c1.5-0.6,2.7-1.6,3.7-2.9c0.8-1.2,1.3-2.6,1.3-4c0.1-2.5-0.8-4.9-2.5-6.7c-2-1.7-4.5-2.5-7-2.4c-2.6-0.1-5.1,0.8-7,2.5 c-1.8,1.6-2.8,3.9-2.8,6.3h4c-0.1-1.5,0.5-2.9,1.5-3.9c1.1-1,2.7-1.6,4.2-1.5c3.7,0,5.6,1.9,5.6,5.6c0.1,1.5-0.5,3-1.6,4 c-1.3,1-2.9,1.6-4.5,1.5h-3L291,861.5z"></path> <path class="st0" d="M286,311.7h-26v-46.5h26V311.7z M279.8,690.5h107.8c5.9,0.7,5.9-6.7,5.9-6.7s6.5-71.1,6.5-90.4 s-16.3-19.9-16.3-19.9s-64.3-12-77.3-16.6s-11-16.6-11-16.6l0.7-136.9h-46.1l0.6,136.9c0,0,1.9,12-11,16.6s-77.3,16.6-77.3,16.6 s-16.2,0.7-16.2,19.9s6.5,90.4,6.5,90.4s0,7.3,5.8,6.7L279.8,690.5L279.8,690.5z M250.8,540.3h44.8 M239.8,556.9h66.9 M162.4,573.5 H384 M146.2,593.4h254 M152.7,683.8h241 M275.5,763.9H390l3.4-59.5c0.2-6-6.3-6-6.3-6H159.2c0,0-6.5,0-6.3,6l3.4,59.5H275.5z M152.9,704.4h240.5 M276.6,401.6h-7.4v-47.4h7.4V401.6z"></path> <path class="st2" d="M286,311.7h-26v-46.5h26V311.7z M279.8,690.5h107.8c5.9,0.7,5.9-6.7,5.9-6.7s6.5-71.1,6.5-90.4 s-16.3-19.9-16.3-19.9s-64.3-12-77.3-16.6s-11-16.6-11-16.6l0.7-136.9h-46.1l0.6,136.9c0,0,1.9,12-11,16.6s-77.3,16.6-77.3,16.6 s-16.2,0.7-16.2,19.9s6.5,90.4,6.5,90.4s0,7.3,5.8,6.7L279.8,690.5L279.8,690.5z M250.8,540.3h44.8 M239.8,556.9h66.9 M162.4,573.5 H384 M146.2,593.4h254 M152.7,683.8h241 M275.5,763.9H390l3.4-59.5c0.2-6-6.3-6-6.3-6H159.2c0,0-6.5,0-6.3,6l3.4,59.5H275.5z M152.9,704.4h240.5 M276.6,401.6h-7.4v-47.4h7.4V401.6z"></path> <path class="st0" d="M153.2,697.8c0,0,6.3,0.6,0.9,2 M392.5,697.8c0,0-5.8,0.7-0.6,2"></path> <path class="st3" d="M153.2,697.8c0,0,6.3,0.6,0.9,2 M392.5,697.8c0,0-5.8,0.7-0.6,2"></path> <path class="st4" d="M190.9,0.5h-0.8l-16.4,5.9v6.4l9.3-2.9v30.4h7.9L190.9,0.5z M211.3,22.3c0.3-0.3,0.6-0.5,0.9-0.8 c0.3-0.3,0.7-0.5,1.1-0.7c0.5-0.2,1-0.3,1.4-0.5c0.6-0.2,1.3-0.2,1.9-0.2c1,0,1.9,0.2,2.9,0.5c0.8,0.3,1.5,0.8,2,1.5 c0.6,0.6,1,1.4,1.2,2.2c0.3,0.9,0.4,1.9,0.4,2.9c0,1-0.1,1.9-0.3,2.9c-0.2,0.8-0.5,1.6-1,2.3c-0.4,0.7-1,1.2-1.7,1.6 c-0.8,0.4-1.6,0.6-2.5,0.6c-1.4,0.1-2.8-0.4-3.9-1.4c-1.1-1-1.7-2.4-1.7-3.9H204c0,1.7,0.5,3.4,1.2,4.9c0.7,1.4,1.8,2.6,3,3.6 c1.3,1,2.7,1.8,4.3,2.3c1.6,0.5,3.3,0.8,5,0.8c2,0,4-0.3,5.9-1.1c1.6-0.7,3-1.7,4.2-2.9c1.1-1.2,2-2.7,2.5-4.3 c0.5-1.6,0.8-3.3,0.8-5c0-1.9-0.2-3.8-0.8-5.6c-0.5-1.5-1.3-3-2.4-4.2c-1-1.2-2.3-2.1-3.8-2.6c-1.6-0.6-3.4-0.9-5.1-0.9 c-0.6,0-1.2,0-1.9,0.1c-0.6,0.1-1.2,0.2-1.7,0.4c-0.5,0.2-1,0.3-1.3,0.5c-0.4,0.1-0.7,0.3-1,0.5l0.9-8.6h15.8V0.6h-22.3L205,20.7 L211.3,22.3z M262.6,17c0.1-2.6-0.3-5.2-1-7.7c-0.5-1.9-1.5-3.7-2.7-5.3c-1.1-1.3-2.6-2.4-4.3-3c-1.7-0.7-3.6-1-5.5-1 c-1.9,0-3.7,0.3-5.5,1c-1.6,0.6-3.1,1.7-4.2,3c-1.3,1.5-2.2,3.3-2.7,5.3c-0.7,2.5-1.1,5.1-1,7.7v6.9c-0.1,2.6,0.3,5.2,1,7.7 c0.5,1.9,1.5,3.7,2.7,5.3c1.1,1.3,2.6,2.4,4.3,3c1.7,0.7,3.6,1,5.5,1c1.9,0,3.7-0.3,5.5-1c1.6-0.6,3.1-1.7,4.2-3 c1.3-1.6,2.2-3.4,2.7-5.3c0.7-2.5,1-5.1,1-7.7V17z M254.7,24.9c0,1.5-0.1,3-0.4,4.5c-0.2,1.1-0.5,2.1-1.1,3c-0.4,0.7-1,1.2-1.7,1.6 c-1.5,0.7-3.2,0.7-4.7,0c-0.7-0.4-1.3-0.9-1.7-1.6c-0.6-0.9-0.9-1.9-1.1-3c-0.2-1.5-0.4-3-0.3-4.5v-9.1c0-1.5,0.1-3,0.3-4.4 c0.2-1,0.5-2,1.1-2.9c0.4-0.7,1-1.2,1.7-1.6c0.7-0.3,1.5-0.5,2.3-0.4c0.8,0,1.6,0.1,2.4,0.4c0.7,0.4,1.4,0.9,1.8,1.6 c0.5,0.9,0.9,1.9,1.1,2.9c0.3,1.5,0.4,2.9,0.4,4.4L254.7,24.9z M287.1,0.5h-0.8l-16.4,5.9v6.4l9.4-2.9v30.4h7.9V0.5z M315.6,20.1 h-15.4v6.3h15.4V20.1z M348.9,33.9h-17.1l7-7.4c1.3-1.4,2.6-2.7,3.6-4c1-1.2,2-2.4,2.8-3.8c0.7-1.2,1.3-2.4,1.7-3.7 c0.4-1.2,0.7-2.5,0.7-3.9c0-1.6-0.3-3.2-0.8-4.8c-0.6-1.3-1.4-2.6-2.5-3.5c-1.2-1-2.5-1.8-4-2.2c-1.8-0.5-3.7-0.8-5.6-0.8 c-2,0-3.9,0.3-5.8,1.1c-1.6,0.6-3.1,1.6-4.3,2.8c-1.2,1.2-2.2,2.6-2.8,4.1c-0.6,1.6-1,3.3-1,5.1h7.9c0-0.9,0.1-1.8,0.4-2.7 c0.2-0.8,0.6-1.5,1.1-2.1c0.5-0.6,1.1-1.1,1.8-1.4c0.8-0.4,1.6-0.5,2.5-0.5c1.4-0.1,2.8,0.5,3.8,1.5c1,1.2,1.4,2.7,1.3,4.2 c0,0.6-0.1,1.2-0.3,1.8c-0.2,0.7-0.5,1.4-0.8,2c-0.5,0.8-1,1.7-1.6,2.4c-0.8,1-1.6,2-2.5,2.9l-12.9,13.7v5.4h27.3V33.9z M380.9,33.9 h-17.1l7-7.4c1.3-1.4,2.6-2.7,3.6-4c1-1.2,2-2.4,2.8-3.8c0.7-1.1,1.3-2.4,1.8-3.7c0.4-1.2,0.7-2.5,0.7-3.9c0-1.6-0.3-3.2-0.8-4.8 c-0.6-1.4-1.4-2.6-2.5-3.5c-1.2-1-2.5-1.8-4-2.2c-1.8-0.5-3.7-0.8-5.6-0.8c-2,0-3.9,0.3-5.8,1.1c-1.6,0.6-3.1,1.6-4.3,2.8 c-1.2,1.2-2.2,2.6-2.8,4.1c-0.6,1.6-1,3.3-1,5.1h7.9c0-0.9,0.1-1.8,0.4-2.7c0.2-0.8,0.6-1.5,1.1-2.1c0.5-0.6,1.1-1.1,1.8-1.4 c0.8-0.4,1.6-0.5,2.5-0.5c1.4-0.1,2.8,0.5,3.8,1.5c1,1.2,1.4,2.7,1.3,4.2c0,0.6-0.1,1.2-0.3,1.8c-0.2,0.7-0.5,1.4-0.8,2 c-0.5,0.8-1,1.7-1.6,2.4c-0.8,1-1.6,2-2.5,2.9l-12.9,13.7v5.4h27.3L380.9,33.9z"></path> <path class="st4" d="M179.1,85.2v29.5h3.3V94.5c0.3-0.9,0.6-1.8,1.1-2.6c0.5-0.8,1.1-1.6,1.7-2.2c0.8-0.7,1.6-1.2,2.5-1.6 c1-0.4,2.1-0.6,3.2-0.6c1,0,2,0.1,3,0.4c0.8,0.2,1.6,0.6,2.2,1.2c0.7,0.7,1.2,1.5,1.5,2.4c0.4,1.2,0.5,2.4,0.5,3.7v19.5h3.3V95.2 c0.1-0.9,0.3-1.8,0.7-2.6c0.4-0.9,1-1.7,1.7-2.4c0.8-0.8,1.7-1.4,2.7-1.8c1.1-0.5,2.3-0.8,3.6-0.7c1,0,2,0.1,2.9,0.3 c0.9,0.2,1.7,0.7,2.3,1.3c0.7,0.7,1.2,1.5,1.5,2.5c0.4,1.3,0.5,2.6,0.5,3.9v19.3h3.2V95.5c0.1-1.7-0.2-3.3-0.6-4.9 c-0.4-1.3-1-2.4-1.9-3.4c-0.8-0.9-1.9-1.6-3.1-1.9c-1.3-0.4-2.7-0.6-4.1-0.6c-1.1,0-2.2,0.2-3.3,0.4c-1,0.3-1.9,0.7-2.8,1.2 c-0.8,0.5-1.6,1.1-2.3,1.8c-0.6,0.7-1.2,1.4-1.7,2.2c-0.5-1.8-1.7-3.3-3.3-4.3c-1.7-0.9-3.6-1.4-5.6-1.3c-1,0-2,0.1-3,0.4 c-0.9,0.2-1.8,0.6-2.6,1.1c-0.8,0.4-1.5,1-2.2,1.7c-0.7,0.7-1.3,1.4-1.8,2.2l-0.1-4.8L179.1,85.2z M243.7,114.9 c1.9-0.4,3.7-1.4,5.1-2.7c0.6-0.6,1.2-1.3,1.7-2.1l-2.1-1.5c-0.9,1.3-2.2,2.3-3.6,3c-1.4,0.7-3,1-4.6,1c-1.4,0-2.8-0.3-4.1-0.9 c-1.2-0.6-2.3-1.5-3.1-2.5c-0.9-1.1-1.6-2.3-2.1-3.7c-0.5-1.5-0.8-3-0.7-4.6v-0.6h21.1v-2c0-1.8-0.3-3.7-0.8-5.4 c-0.4-1.6-1.2-3-2.2-4.3c-1-1.2-2.3-2.1-3.7-2.8c-1.6-0.7-3.3-1-5-1c-1.7,0-3.3,0.4-4.8,1.1c-1.5,0.7-2.9,1.8-4,3 c-1.2,1.4-2.2,3-2.8,4.7c-0.7,2-1,4.1-1,6.2v1.2c0,2,0.3,4,1,5.8c0.6,1.7,1.5,3.3,2.7,4.6c1.2,1.3,2.6,2.3,4.2,3 c1.7,0.8,3.5,1.1,5.3,1.1C241.4,115.4,242.6,115.2,243.7,114.9L243.7,114.9z M243.2,88.3c1,0.5,1.9,1.3,2.6,2.1 c0.7,0.9,1.2,2,1.6,3.1c0.4,1.2,0.6,2.4,0.6,3.6v0.3h-17.7c0.2-1.4,0.5-2.8,1.1-4.1c0.5-1.2,1.2-2.2,2-3.1c0.8-0.9,1.7-1.6,2.8-2.1 c1.1-0.5,2.3-0.7,3.5-0.7C240.8,87.5,242.1,87.7,243.2,88.3L243.2,88.3z M256.3,100.3c0,2.1,0.2,4.1,0.8,6.1 c0.5,1.7,1.2,3.3,2.2,4.8c1,1.3,2.2,2.3,3.6,3.1c1.5,0.8,3.1,1.1,4.8,1.1c1.9,0.1,3.8-0.3,5.5-1.2c1.5-0.8,2.8-1.9,3.8-3.3l0.1,3.9 h3V72.8h-3.2v16.5c-1-1.4-2.2-2.6-3.8-3.5c-1.7-0.9-3.5-1.3-5.4-1.2c-1.6,0-3.3,0.3-4.8,1.1c-1.4,0.7-2.7,1.7-3.6,3 c-1,1.4-1.8,3-2.2,4.8c-0.6,2-0.8,4.1-0.8,6.2V100.3z M259.6,99.7c0-1.6,0.2-3.2,0.5-4.8c0.3-1.4,0.8-2.7,1.6-3.8 c0.7-1.1,1.6-2,2.7-2.6c1.2-0.7,2.5-1,3.9-1c1.1,0,2.1,0.1,3.1,0.4c0.9,0.3,1.7,0.7,2.4,1.3c0.7,0.5,1.3,1.1,1.7,1.8 c0.5,0.7,0.9,1.4,1.2,2.2v13.9c-0.4,0.8-0.8,1.5-1.3,2.1c-0.5,0.7-1.1,1.2-1.8,1.7c-0.7,0.5-1.5,0.9-2.4,1.1c-1,0.3-2,0.4-3,0.4 c-2.7,0.1-5.2-1.3-6.6-3.5c-0.7-1.2-1.3-2.5-1.6-3.9c-0.3-1.6-0.5-3.2-0.5-4.8L259.6,99.7z M292.3,85.2H289v29.5h3.3L292.3,85.2z M289,78.2c0.5,0.4,1.1,0.6,1.7,0.6c0.6,0,1.2-0.2,1.6-0.6c0.4-0.4,0.6-1,0.6-1.6c0-0.6-0.2-1.2-0.6-1.6c-0.4-0.5-1-0.7-1.6-0.7 c-0.6,0-1.2,0.2-1.7,0.7c-0.4,0.4-0.6,1-0.6,1.6C288.4,77.2,288.6,77.8,289,78.2z M320.2,114.7h3.2V85.2h-3.3v21.3 c-0.3,0.8-0.7,1.6-1.1,2.3c-0.5,0.7-1.1,1.4-1.8,1.8c-0.8,0.6-1.7,1-2.6,1.2c-1.1,0.3-2.3,0.5-3.5,0.4c-0.9,0-1.8-0.1-2.6-0.4 c-0.8-0.3-1.6-0.8-2.2-1.4c-0.7-0.7-1.2-1.6-1.5-2.5c-0.4-1.3-0.6-2.6-0.6-4v-19H301V104c0,1.7,0.2,3.5,0.7,5.1 c0.4,1.3,1.1,2.5,2,3.5c0.9,0.9,1.9,1.6,3.1,2c3.2,1,6.6,0.8,9.7-0.6c1.5-0.7,2.7-1.8,3.7-3.1L320.2,114.7z M331.6,85.2v29.5h3.3 V94.5c0.3-0.9,0.6-1.8,1.1-2.6c0.5-0.8,1.1-1.6,1.7-2.2c0.8-0.7,1.6-1.2,2.5-1.6c1-0.4,2.1-0.6,3.2-0.6c1,0,2,0.1,3,0.4 c1.8,0.5,3.2,1.8,3.7,3.6c0.4,1.2,0.5,2.4,0.5,3.7v19.5h3.3V95.2c0.1-0.9,0.3-1.8,0.7-2.6c0.4-0.9,1-1.7,1.7-2.4 c0.8-0.8,1.7-1.4,2.7-1.9c1.1-0.5,2.3-0.8,3.6-0.7c1,0,2,0.1,2.9,0.3c0.9,0.2,1.7,0.7,2.3,1.3c0.7,0.7,1.2,1.5,1.5,2.5 c0.4,1.3,0.5,2.6,0.5,3.9v19.3h3.2V95.5c0.1-1.7-0.2-3.3-0.6-4.9c-0.4-1.3-1-2.4-1.9-3.4c-0.8-0.9-1.9-1.6-3.1-1.9 c-1.3-0.4-2.7-0.6-4.1-0.6c-1.1,0-2.2,0.2-3.3,0.4c-1,0.3-1.9,0.7-2.8,1.2c-0.8,0.5-1.6,1.1-2.2,1.9c-0.6,0.7-1.2,1.4-1.7,2.2 c-0.5-1.8-1.7-3.4-3.3-4.4c-1.7-0.9-3.6-1.4-5.6-1.3c-1,0-2,0.1-3,0.4c-0.9,0.2-1.8,0.6-2.6,1.1c-0.8,0.4-1.6,1-2.2,1.7 c-0.7,0.7-1.3,1.4-1.8,2.2l-0.1-4.8L331.6,85.2z"></path> <line class="st3" x1="273" y1="311.2" x2="273" y2="353.1"></line> </svg> 