<?xml version="1.0" encoding="UTF-8"?> <!-- Generator: Adobe Illustrator 23.0.3, SVG Export Plug-In . SVG Version: 6.00 Build 0) --> <svg xmlns="http://www.w3.org/2000/svg" xmlns:xlink="http://www.w3.org/1999/xlink" id="Livello_1" x="0px" y="0px" viewBox="0 0 623.4 1000" style="enable-background:new 0 0 623.4 1000;" xml:space="preserve"> <style type="text/css"> .st0{fill:#FFFFFF;} .st1{fill:none;stroke:#000000;stroke-width:0.5;} .st2{fill:none;stroke:#231F20;stroke-width:0.5;} .st3{fill:none;stroke:#231F20;stroke-width:0.5;stroke-miterlimit:10;} .st4{fill:#231F20;} </style> <title>Acorn mini</title> <rect id="quadrato" class="st0" width="623.4" height="1000"></rect> <path class="st1" d="M178.7,676.8h198 M454.8,367.5v259.5"></path> <path d="M508.5,498.9v15.9l-9.3-8.5c-4.3-4-8-6-11.2-6c-2.3-0.1-4.6,0.8-6.2,2.5c-1.6,2-2.5,4.5-2.3,7c-0.1,2.8,0.8,5.5,2.7,7.5 c1.8,1.9,4.4,3,7.1,2.8v-4.1c-1.7,0.1-3.5-0.5-4.8-1.7c-1.2-1.3-1.8-3-1.7-4.7c-0.1-1.5,0.5-3,1.6-4c1.1-1,2.6-1.5,4.1-1.5 c1.2,0,2.5,0.3,3.6,0.9c1.6,1,3.1,2.1,4.5,3.4l12.2,11h2.9v-20.8H508.5z M508.5,473.8v15.9l-9.3-8.5c-4.3-4-8-6-11.2-6 c-2.3-0.1-4.6,0.8-6.2,2.5c-1.6,2-2.5,4.5-2.3,7c-0.2,2.8,0.8,5.5,2.7,7.5c1.8,1.9,4.4,3,7.1,2.9v-4.1c-1.7,0.1-3.5-0.5-4.8-1.6 c-1.2-1.3-1.8-3-1.7-4.7c-0.1-1.5,0.5-3,1.6-4c1.1-1,2.6-1.5,4.1-1.5c1.2,0,2.5,0.3,3.6,0.9c1.6,1,3.1,2.1,4.5,3.4l12.2,11h2.9 v-20.8H508.5z"></path> <path d="M244.6,766.5l-2.2,4.4h2.7l1.6-3.3c1.3,0.5,2.7,0.8,4.2,0.8c2,0,3.9-0.5,5.6-1.5c1.6-1,2.9-2.5,3.8-4.3 c0.9-1.9,1.4-4.1,1.3-6.2c0-4.6-1.4-8.1-4.2-10.4l2.2-4.5h-2.7l-1.6,3.3c-1.4-0.6-2.9-1-4.5-0.9c-2,0-3.9,0.5-5.6,1.5 c-1.6,1-3,2.5-3.8,4.3c-0.9,1.9-1.4,4.1-1.3,6.2C240.1,760.9,241.6,764.3,244.6,766.5L244.6,766.5z M246,749.7 c1.1-1.5,2.9-2.4,4.8-2.4c1,0,2,0.2,2.9,0.7l-7.4,15.1c-1.5-1.9-2.2-4.3-2.1-6.7C244.2,753.5,244.8,751.3,246,749.7L246,749.7z M257.5,756.4c0.1,2.3-0.5,4.5-1.8,6.4c-1.1,1.5-3,2.4-4.9,2.4c-0.9,0-1.8-0.2-2.6-0.5l7.4-15c1.3,1.9,2,4.1,1.9,6.4V756.4z M279.3,736.1h-0.6l-11.6,4.3v3.7l8.1-3V768h4.1V736.1z"></path> <path d="M296.2,752.9l1.1-0.8c1.2-0.8,2.7-1.2,4.1-1.2c1.7-0.1,3.4,0.6,4.6,1.9c1.2,1.4,1.8,3.3,1.7,5.2c0.1,1.9-0.5,3.8-1.6,5.3 c-1.1,1.3-2.7,2-4.4,1.9c-1.5,0.1-3-0.4-4.2-1.4c-1.1-1.1-1.8-2.6-1.9-4.1h-3.8c0.1,2.5,1.2,4.8,3,6.5c1.9,1.6,4.4,2.4,6.9,2.3 c2.8,0.2,5.5-0.9,7.4-2.8c1.8-2.1,2.8-4.9,2.6-7.7c0.1-2.8-0.8-5.6-2.5-7.8c-1.8-1.9-4.3-3-6.9-2.9c-1.9,0-3.7,0.4-5.3,1.4l0.9-8.7 h12.9v-3.8h-16.2l-1.6,15.9L296.2,752.9z"></path> <path class="st0" d="M290.4,299.7h-19.2v-34.5h19.2V299.7z M285.8,580.7h79.8c4.3,0.5,4.3-4.9,4.3-4.9s4.8-52.8,4.8-67.1 s-12-14.8-12-14.8s-47.6-8.9-57.2-12.3s-8.2-12.3-8.2-12.3l0.5-101.6h-34.2l0.5,101.6c0,0,1.4,8.9-8.2,12.3S198.8,494,198.8,494 s-12,0.5-12,14.8s4.8,67.1,4.8,67.1s0,5.4,4.3,4.9L285.8,580.7L285.8,580.7z M264.4,469.3h33.2 M256.2,481.6h49.5 M199,494h164 M187,508.8h188 M191.8,575.8h178.4 M282.6,635.2h84.8l2.5-44.1c0.1-4.4-4.7-4.4-4.7-4.4H196.6c0,0-4.8,0-4.7,4.4l2.5,44.1H282.6 L282.6,635.2z M191.9,591.1h178 M283.5,366.4H278v-35.2h5.5L283.5,366.4z"></path> <path class="st2" d="M290.4,299.7h-19.2v-34.5h19.2V299.7z M285.8,580.7h79.8c4.3,0.5,4.3-4.9,4.3-4.9s4.8-52.8,4.8-67.1 s-12-14.8-12-14.8s-47.6-8.9-57.2-12.3s-8.2-12.3-8.2-12.3l0.5-101.6h-34.2l0.5,101.6c0,0,1.4,8.9-8.2,12.3S198.8,494,198.8,494 s-12,0.5-12,14.8s4.8,67.1,4.8,67.1s0,5.4,4.3,4.9L285.8,580.7L285.8,580.7z M264.4,469.3h33.2 M256.2,481.6h49.5 M199,494h164 M187,508.8h188 M191.8,575.8h178.4 M282.6,635.2h84.8l2.5-44.1c0.1-4.4-4.7-4.4-4.7-4.4H196.6c0,0-4.8,0-4.7,4.4l2.5,44.1H282.6 L282.6,635.2z M191.9,591.1h178 M283.5,366.4H278v-35.2h5.5L283.5,366.4z"></path> <path class="st0" d="M191.6,587c0,0,4.6,0.1,0.7,0.5 M369.8,587c0,0-4.4,0.2-0.4,0.5"></path> <path class="st3" d="M191.6,587c0,0,4.6,0.1,0.7,0.5 M369.8,587c0,0-4.4,0.2-0.4,0.5"></path> <path class="st4" d="M208.4,0.5h-0.8l-16.4,5.9v6.4l9.4-2.9v30.4h7.9L208.4,0.5z M228.8,22.3c0.3-0.3,0.6-0.5,0.9-0.8 c0.3-0.3,0.7-0.5,1.1-0.7c0.5-0.2,1-0.3,1.4-0.5c0.6-0.2,1.3-0.2,1.9-0.2c1,0,1.9,0.2,2.9,0.5c0.8,0.3,1.4,0.8,1.9,1.5 c0.6,0.6,1,1.4,1.2,2.2c0.3,0.9,0.4,1.9,0.4,2.9c0,1-0.1,1.9-0.3,2.9c-0.2,0.8-0.5,1.6-1,2.3c-0.4,0.7-1,1.2-1.7,1.6 c-0.8,0.4-1.6,0.6-2.5,0.6c-1.5,0.1-2.9-0.4-4-1.4c-1-1-1.7-2.4-1.7-3.9h-7.8c0,1.7,0.5,3.4,1.2,4.9c0.7,1.4,1.8,2.6,3,3.6 c1.3,1,2.7,1.8,4.3,2.3c1.6,0.5,3.3,0.8,5,0.8c2,0,4-0.3,5.9-1.1c3.2-1.3,5.6-3.9,6.7-7.2c0.5-1.6,0.8-3.3,0.8-5 c0-1.9-0.2-3.8-0.8-5.6c-0.5-1.5-1.3-3-2.4-4.2c-1-1.2-2.3-2.1-3.8-2.6c-1.6-0.6-3.4-0.9-5.1-0.9c-0.6,0-1.2,0-1.8,0.1 c-0.6,0.1-1.2,0.2-1.7,0.4c-0.5,0.2-0.9,0.3-1.4,0.5c-0.4,0.1-0.7,0.3-1,0.5l0.9-8.6h15.8V0.6h-22.3l-2.3,20.2L228.8,22.3z M280.1,17c0.1-2.6-0.3-5.2-1-7.7c-0.5-1.9-1.5-3.8-2.8-5.3c-1.1-1.3-2.6-2.4-4.2-3c-1.7-0.7-3.6-1-5.5-1c-1.9,0-3.7,0.3-5.5,1 c-1.6,0.6-3.1,1.7-4.2,3c-1.3,1.5-2.2,3.3-2.7,5.3c-0.7,2.5-1.1,5.1-1,7.7v6.9c-0.1,2.6,0.3,5.2,1,7.7c0.5,1.9,1.5,3.8,2.7,5.3 c1.1,1.3,2.6,2.4,4.3,3c1.7,0.7,3.6,1,5.5,1c1.9,0,3.7-0.3,5.5-1c1.7-0.6,3.1-1.7,4.3-3c1.3-1.6,2.2-3.4,2.7-5.3 c0.7-2.5,1-5.1,1-7.7L280.1,17z M272.3,24.9c0,1.5-0.1,3-0.4,4.5c-0.2,1.1-0.5,2.1-1.1,3c-0.4,0.7-1,1.2-1.7,1.6 c-1.5,0.7-3.2,0.7-4.7,0c-0.7-0.3-1.3-0.9-1.7-1.6c-0.6-0.9-0.9-1.9-1.1-3c-0.2-1.5-0.4-3-0.3-4.5v-9.1c0-1.5,0.1-3,0.3-4.4 c0.2-1,0.5-2,1.1-2.9c0.4-0.7,1-1.2,1.7-1.6c0.7-0.3,1.5-0.5,2.4-0.4c0.8,0,1.6,0.1,2.4,0.4c0.7,0.4,1.3,0.9,1.8,1.6 c0.5,0.9,0.9,1.9,1.1,2.9c0.3,1.5,0.4,2.9,0.4,4.4V24.9z M304.6,0.5h-0.8l-16.4,5.9v6.4l9.4-2.9v30.4h7.9L304.6,0.5z M333.2,20.1 h-15.4v6.3h15.4L333.2,20.1z M366.4,33.9h-17.1l7-7.4c1.3-1.4,2.6-2.7,3.6-4c1-1.2,2-2.4,2.8-3.8c0.7-1.2,1.3-2.4,1.7-3.7 c0.4-1.2,0.7-2.5,0.7-3.9c0-1.6-0.3-3.2-0.8-4.8c-0.6-1.3-1.4-2.6-2.5-3.5c-1.2-1-2.5-1.8-4-2.2C355.9,0.2,354,0,352.1,0 c-2,0-3.9,0.3-5.8,1.1c-1.6,0.6-3.1,1.6-4.3,2.8c-1.2,1.2-2.2,2.6-2.8,4.1c-0.6,1.6-1,3.3-1,5.1h7.9c0-0.9,0.1-1.8,0.4-2.7 c0.2-0.8,0.6-1.5,1.1-2.1c0.5-0.6,1.1-1.1,1.8-1.4c0.8-0.4,1.6-0.5,2.5-0.5c1.4-0.1,2.8,0.5,3.8,1.5c1,1.2,1.4,2.7,1.3,4.2 c0,0.6-0.1,1.2-0.3,1.8c-0.2,0.7-0.5,1.4-0.8,2c-0.5,0.8-1,1.7-1.6,2.4c-0.8,1-1.6,2-2.5,2.9l-12.8,13.7v5.4h27.3V33.9z M397.9,17 c0.1-2.6-0.3-5.2-1-7.7c-0.5-1.9-1.5-3.8-2.8-5.3c-1.1-1.3-2.6-2.4-4.2-3c-1.7-0.7-3.6-1-5.5-1c-1.9,0-3.8,0.3-5.5,1 c-1.6,0.6-3.1,1.7-4.2,3c-1.3,1.5-2.2,3.3-2.7,5.3c-0.7,2.5-1.1,5.1-1,7.7v6.9c-0.1,2.6,0.3,5.2,1,7.7c0.5,1.9,1.5,3.7,2.7,5.3 c1.1,1.3,2.6,2.4,4.3,3c1.7,0.7,3.6,1,5.5,1c1.9,0,3.7-0.3,5.5-1c1.6-0.6,3.1-1.7,4.3-3c1.3-1.6,2.2-3.4,2.7-5.3 c0.7-2.5,1-5.1,1-7.7L397.9,17z M390.1,24.9c0,1.5-0.1,3-0.4,4.5c-0.2,1.1-0.5,2.1-1.1,3c-0.4,0.7-1,1.2-1.7,1.6 c-1.5,0.7-3.2,0.7-4.7,0c-0.7-0.4-1.3-0.9-1.7-1.6c-0.6-0.9-0.9-1.9-1.1-3c-0.2-1.5-0.4-3-0.3-4.5v-9.1c0-1.5,0.1-3,0.3-4.4 c0.2-1,0.5-2,1.1-2.9c0.4-0.7,1-1.2,1.7-1.6c0.7-0.3,1.5-0.5,2.4-0.4c0.8,0,1.6,0.1,2.4,0.4c0.7,0.4,1.3,0.9,1.8,1.6 c0.5,0.9,0.9,1.9,1.1,2.9c0.3,1.5,0.4,2.9,0.4,4.4L390.1,24.9z"></path> <path class="st4" d="M245,85.2v29.5h3.3V94.5c0.3-0.9,0.6-1.8,1.1-2.6c0.5-0.8,1.1-1.6,1.7-2.2c0.7-0.7,1.6-1.2,2.5-1.6 c1-0.4,2.1-0.6,3.2-0.6c1,0,2,0.1,3,0.4c0.8,0.2,1.5,0.7,2.2,1.2c0.7,0.7,1.2,1.5,1.5,2.4c0.4,1.2,0.5,2.4,0.5,3.7v19.5h3.3V95.2 c0.1-0.9,0.3-1.8,0.7-2.6c0.4-0.9,1-1.7,1.7-2.4c0.8-0.8,1.7-1.4,2.7-1.8c1.1-0.5,2.3-0.8,3.6-0.7c1,0,2,0.1,2.9,0.3 c0.9,0.2,1.7,0.7,2.3,1.3c0.7,0.7,1.2,1.5,1.5,2.5c0.4,1.3,0.5,2.6,0.5,3.9v19.3h3.2V95.5c0.1-1.7-0.2-3.3-0.6-4.9 c-0.4-1.3-1-2.4-1.9-3.4c-0.8-0.9-1.9-1.6-3.1-1.9c-1.3-0.4-2.7-0.6-4.1-0.6c-1.1,0-2.2,0.2-3.3,0.4c-1,0.3-1.9,0.7-2.8,1.2 c-0.8,0.5-1.6,1.1-2.3,1.8c-0.6,0.7-1.2,1.4-1.7,2.2c-0.5-1.8-1.7-3.3-3.3-4.3c-1.7-0.9-3.6-1.4-5.6-1.3c-1,0-2,0.1-3,0.4 c-0.9,0.2-1.8,0.6-2.6,1.1c-0.8,0.4-1.5,1-2.1,1.7c-0.7,0.7-1.3,1.4-1.8,2.2l-0.1-4.8L245,85.2z M298.3,85.2H295v29.5h3.3 L298.3,85.2z M295,78.2c0.5,0.4,1.1,0.6,1.7,0.6c0.6,0,1.2-0.2,1.6-0.6c0.4-0.4,0.6-1,0.6-1.6c0-0.6-0.2-1.2-0.6-1.6 c-0.4-0.5-1-0.7-1.6-0.7c-0.6,0-1.2,0.2-1.7,0.7c-0.4,0.4-0.6,1-0.5,1.6C294.4,77.2,294.6,77.8,295,78.2z M307.1,85.2v29.5h3.2V94.5 c0.3-0.9,0.8-1.8,1.3-2.6c0.5-0.9,1.1-1.6,1.8-2.3c0.7-0.6,1.6-1.2,2.5-1.6c1-0.4,2.1-0.6,3.2-0.6c1,0,2,0.1,2.9,0.4 c0.8,0.2,1.6,0.7,2.2,1.3c0.6,0.7,1.1,1.5,1.4,2.5c0.4,1.3,0.5,2.6,0.5,3.9v19.2h3.2V95.5c0-1.7-0.2-3.4-0.7-5 c-0.4-1.2-1-2.4-1.9-3.3c-0.8-0.9-1.8-1.5-3-1.9c-1.3-0.5-2.6-0.7-4-0.6c-1,0-2,0.1-3,0.4c-0.9,0.3-1.8,0.6-2.6,1.1 c-0.8,0.5-1.5,1.1-2.1,1.8c-0.7,0.7-1.3,1.5-1.7,2.3l-0.1-5L307.1,85.2z M341.5,85.2h-3.3v29.5h3.3V85.2z M338.2,78.2 c0.5,0.4,1.1,0.6,1.7,0.6c0.6,0,1.2-0.2,1.6-0.6c0.4-0.4,0.6-1,0.6-1.6c0-0.6-0.2-1.2-0.6-1.6c-0.4-0.5-1-0.7-1.6-0.7 c-0.6,0-1.2,0.2-1.7,0.7c-0.4,0.4-0.6,1-0.6,1.6C337.6,77.2,337.8,77.8,338.2,78.2z"></path> <line class="st3" x1="280.8" y1="300.7" x2="280.8" y2="330.6"></line> </svg> 