<?xml version="1.0" encoding="UTF-8"?> <svg xmlns="http://www.w3.org/2000/svg" id="Livello_1" data-name="Livello 1" viewBox="0 0 1000 1000"><defs><style>.cls-1{fill:#fff;}.cls-2{font-size:72.25px;font-family:Roboto-Bold, Roboto;font-weight:700;}.cls-3,.cls-5{fill:none;}.cls-3{stroke:#000;}.cls-4{font-size:43.35px;font-family:Roboto-Regular, Roboto;}.cls-5{stroke:#231f20;stroke-miterlimit:10;}</style></defs><title>Altura sosp</title><rect class="cls-1" width="1000" height="1000"></rect><text class="cls-2" transform="translate(325.76 61.8)">1907-20</text><line class="cls-3" x1="372.47" y1="909.87" x2="577.96" y2="909.87"></line><line class="cls-3" x1="670.56" y1="746.93" x2="670.56" y2="860.57"></line><text class="cls-4" transform="translate(743.12 826.08) rotate(-90)">20</text><text class="cls-4" transform="translate(429.06 988.25)">ø40</text><path class="cls-5" d="M472.84,241.71s2.31-5.93,2.21,11.86,0,491.6,0,491.6m-.68,0h-5.77v65.34h12.88V745.17ZM474,859.66l-43.46-1-32.11-1.17s-22.12-1.56-27.51-2.93-4.22-2.34-4.22-2.34l100.57-41.74h14.23l100.58,41.74s1.16,1-4.23,2.34-27.5,2.93-27.5,2.93l-32.12,1.17-43.46,1Z" transform="translate(0 0)"></path><rect class="cls-3" x="468.76" y="222.84" width="10.27" height="18.59"></rect></svg> 