<?xml version="1.0" encoding="UTF-8"?> <svg xmlns="http://www.w3.org/2000/svg" id="Livello_1" data-name="Livello 1" viewBox="0 0 1130.91 1073.53"><defs><style>.cls-1{fill:#fff;}.cls-2{font-size:59.48px;font-family:Roboto-Bold, Roboto;font-weight:700;}.cls-3,.cls-4,.cls-6{fill:none;}.cls-4{stroke:#000;}.cls-5{font-size:35.69px;font-family:Roboto-Regular, Roboto;}.cls-6{stroke:#231f20;stroke-miterlimit:10;}</style></defs><title>Altura terra</title><rect class="cls-1" x="130.91" width="1000" height="1000"></rect><text class="cls-2" transform="translate(543.52 50.88)">1907-10</text><rect class="cls-3" y="159.74" width="1064.5" height="913.79"></rect><line class="cls-4" x1="434.1" y1="928.35" x2="543.52" y2="928.35"></line><line class="cls-4" x1="964.5" y1="277.24" x2="964.5" y2="871.99"></line><text class="cls-5" transform="translate(1010.97 606.46) rotate(-90)">226</text><text class="cls-5" transform="translate(458.58 992.88)">ø40</text><text class="cls-5" transform="translate(608.67 228.14)"><tspan xml:space="preserve"> 212</tspan></text><path class="cls-6" d="M231.83,440.3s-4.7,54.09-4.7,63.26-1,75.31,1.71,87.75c0,0,2.62,30,5,39.17s9.7,54.22,5.24,82-11.4,54.75-25.17,75-40,49.12-67,62.09S110.17,867.54,90.63,873s-48.47,11.52-48.47,11.52m317.54-12.7h33.83s8.78-.4,14.35-.4,5.51-.45,5.51-.45l-.06-2.62h1.38v-.92a9,9,0,0,0-2.69-.32h-6.3l-13.63-.27-15.74-.26H343l-15.73.26-13.63.27h-6.3a9,9,0,0,0-2.69.32v.92h1.38L306,871s-.06.45,5.51.45,14.36.4,14.36.4H359.7Zm-5.36-467.55s4.57,1.28,4.31,10.06S358,866.62,358,866.62h3.28l.53-452.32s.59-4.32-.89-7.27a10.76,10.76,0,0,0-2.78-3.87m24.12-7.39s3.15,1.09.66,3.1l-13.37,2.4-4.31-.29m-.53-3.31a7.48,7.48,0,0,1-3.43-3.47l-2.62,1.31a15.91,15.91,0,0,0,2.12,3.36l-22.71,3.18s-3.54,1.71,0,3.28M756.15,278.16l1.08,2.94L232.38,441.61l-1.32-3.14Zm1.08,1.67s1.18-.79,1.13,1.57,0,65.12,0,65.12m-.34,0h-2.95v32.91h6.59V346.52Zm-.2,57.66-22.23-.49-16.42-.59s-11.31-.78-14.06-1.47-2.17-1.18-2.17-1.18l51.44-21h7.28l51.43,21s.59.49-2.16,1.18-14.07,1.47-14.07,1.47l-16.42.59-22.23.49Z" transform="translate(130.91)"></path><rect class="cls-3" y="159.74" width="1064.5" height="913.79"></rect><line class="cls-4" x1="936.89" y1="241.96" x2="362.47" y2="241.96"></line></svg> 