<?xml version="1.0" encoding="UTF-8"?> <svg xmlns="http://www.w3.org/2000/svg" id="Livello_1" data-name="Livello 1" viewBox="0 0 396.47 1000"><defs><style>.cls-1{fill:#fff;}.cls-2{fill:#231f20;}.cls-3,.cls-4{fill:none;stroke-width:0.5px;}.cls-3{stroke:#000;}.cls-4{stroke:#231f20;stroke-miterlimit:10;}</style></defs><title>Angolo smnall horizontal</title><rect class="cls-1" width="396.47" height="1000"></rect><path class="cls-2" d="M125.74,674.51h-.51l-9.87,3.56v3.83l5.64-1.75v18.27h4.74ZM148.48,678A5.15,5.15,0,0,0,146.9,676a6.93,6.93,0,0,0-2.38-1.31,10.9,10.9,0,0,0-3-.43,11.36,11.36,0,0,0-3.06.43,7.32,7.32,0,0,0-2.38,1.31,5.85,5.85,0,0,0-1.58,2.09,6.84,6.84,0,0,0-.54,2.85,5.62,5.62,0,0,0,.84,3.09,6.16,6.16,0,0,0,2.39,2.15,6.7,6.7,0,0,0-2.72,2.28,5.74,5.74,0,0,0-1,3.46,6.52,6.52,0,0,0,.63,3,6.36,6.36,0,0,0,1.68,2.15,8,8,0,0,0,2.59,1.31,12.16,12.16,0,0,0,6.41,0,8.2,8.2,0,0,0,2.55-1.31,6.12,6.12,0,0,0,1.68-2.15,6.94,6.94,0,0,0,.61-3,6.09,6.09,0,0,0-1-3.46,7.14,7.14,0,0,0-2.75-2.28,6.2,6.2,0,0,0,2.38-2.15,5.64,5.64,0,0,0,.87-3.09,6.83,6.83,0,0,0-.57-2.85Zm-4.57,16a3.17,3.17,0,0,1-2.41.91,3.54,3.54,0,0,1-1.38-.24,2.43,2.43,0,0,1-1-.67,2.51,2.51,0,0,1-.67-1.08,3.59,3.59,0,0,1-.24-1.41,3.92,3.92,0,0,1,.24-1.44,2.73,2.73,0,0,1,.67-1.07,2.77,2.77,0,0,1,1-.68,3.56,3.56,0,0,1,1.34-.23,3.73,3.73,0,0,1,1.38.23,2.77,2.77,0,0,1,1,.68,3.13,3.13,0,0,1,.67,1.07,3.92,3.92,0,0,1,.24,1.44,3.36,3.36,0,0,1-.88,2.49Zm-.33-10.61a2.92,2.92,0,0,1-4.16,0,3.31,3.31,0,0,1-.74-2.29,3.25,3.25,0,0,1,.74-2.28,2.66,2.66,0,0,1,2.08-.8,2.6,2.6,0,0,1,2.08.84,3.39,3.39,0,0,1,.74,2.24,3.51,3.51,0,0,1-.74,2.29Zm14,4.67h2.52a6.17,6.17,0,0,1,1.65.2,4.82,4.82,0,0,1,1.24.63,3.5,3.5,0,0,1,.77,1.11,4.79,4.79,0,0,1,.27,1.65,3.48,3.48,0,0,1-.27,1.34,2.26,2.26,0,0,1-.71,1,2.55,2.55,0,0,1-1.14.67,4.13,4.13,0,0,1-1.51.24,3.62,3.62,0,0,1-1.37-.24,2.9,2.9,0,0,1-1.11-.64,2.94,2.94,0,0,1-.74-.94,2.9,2.9,0,0,1-.27-1.24h-4.73a6.26,6.26,0,0,0,.7,3.06,6.38,6.38,0,0,0,1.85,2.14,8.1,8.1,0,0,0,2.58,1.28,11.22,11.22,0,0,0,3,.4,11.66,11.66,0,0,0,3.36-.47,8,8,0,0,0,2.69-1.37,6.39,6.39,0,0,0,1.78-2.19,7.12,7.12,0,0,0,.63-3,5.57,5.57,0,0,0-4-5.58,8,8,0,0,0,1.54-1,7.22,7.22,0,0,0,1.14-1.21,5.12,5.12,0,0,0,.94-3,7,7,0,0,0-.6-2.95,5.94,5.94,0,0,0-1.65-2.12,7.69,7.69,0,0,0-2.55-1.31,13,13,0,0,0-3.29-.43,10.09,10.09,0,0,0-3.05.47,8.31,8.31,0,0,0-2.49,1.31,6.7,6.7,0,0,0-1.68,2,6,6,0,0,0-.6,2.68h4.73a2.46,2.46,0,0,1,.27-1.11,2.54,2.54,0,0,1,.67-.84,2.85,2.85,0,0,1,1-.53,3.42,3.42,0,0,1,1.21-.2,3.74,3.74,0,0,1,1.45.23,2.65,2.65,0,0,1,1,.64,2.47,2.47,0,0,1,.61,1,3.61,3.61,0,0,1,.2,1.21,3.32,3.32,0,0,1-.87,2.39,3.64,3.64,0,0,1-2.69.9h-2.52Zm30.81,6.51H178.09l4.2-4.43c.8-.84,1.54-1.61,2.18-2.39a16.41,16.41,0,0,0,1.68-2.25,10.49,10.49,0,0,0,1-2.21,6.7,6.7,0,0,0,.4-2.32,7.72,7.72,0,0,0-.5-2.85,5.71,5.71,0,0,0-1.51-2.12,6.75,6.75,0,0,0-2.42-1.34,11.31,11.31,0,0,0-3.36-.47,8.73,8.73,0,0,0-3.45.64,7.71,7.71,0,0,0-2.59,1.67,7.4,7.4,0,0,0-1.68,2.49,8.48,8.48,0,0,0-.57,3.06h4.77a5,5,0,0,1,.23-1.62,3.89,3.89,0,0,1,.64-1.27,3,3,0,0,1,1.11-.84,3.34,3.34,0,0,1,1.48-.3,2.92,2.92,0,0,1,2.28.9,3.67,3.67,0,0,1,.81,2.52,3.24,3.24,0,0,1-.17,1.08,5.58,5.58,0,0,1-.51,1.2,9.89,9.89,0,0,1-1,1.45,17.05,17.05,0,0,1-1.48,1.74L172,695.16v3.26h16.39Zm12.3-8.29h-9.23v3.79h9.23Zm15.1-11.79h-.51l-9.87,3.56v3.83l5.64-1.75v18.27h4.74Zm12.33,0h-5.67l6.95,11.86-7.12,12H228l4.6-8.36,4.6,8.36h5.71l-7.12-12,7-11.86H237l-4.47,8.23Z"></path><path class="cls-2" d="M93.62,739.82a3.19,3.19,0,0,1-.87,1,6.66,6.66,0,0,1-1.44.71,7.43,7.43,0,0,1-2,.23,7,7,0,0,1-1.68-.17,4.93,4.93,0,0,1-1.58-.6,3.34,3.34,0,0,1-1.71-2.86h-2a4.37,4.37,0,0,0,.47,2,4.94,4.94,0,0,0,1.34,1.72A6.6,6.6,0,0,0,86.34,743a10.11,10.11,0,0,0,3,.44,9.94,9.94,0,0,0,2.72-.37,5.82,5.82,0,0,0,2-1,4.83,4.83,0,0,0,1.35-1.54,4.49,4.49,0,0,0,.43-2,4.19,4.19,0,0,0-.37-1.88,3.78,3.78,0,0,0-1.1-1.44,8.38,8.38,0,0,0-2-1.11,18,18,0,0,0-2.75-.8,18.14,18.14,0,0,1-2.42-.71,5.34,5.34,0,0,1-1.45-.77,1.81,1.81,0,0,1-.7-.91,2.83,2.83,0,0,1-.2-1.07,2.66,2.66,0,0,1,.27-1.11,2.51,2.51,0,0,1,.74-1,4.4,4.4,0,0,1,1.34-.7,5.37,5.37,0,0,1,2-.27,5.81,5.81,0,0,1,1.94.3,4.22,4.22,0,0,1,1.45.81,3.26,3.26,0,0,1,.9,1.17,3,3,0,0,1,.31,1.34h1.94a4.89,4.89,0,0,0-.43-2.11,5.25,5.25,0,0,0-1.28-1.68A6.45,6.45,0,0,0,92,725.48a8.61,8.61,0,0,0-2.75-.4,8.43,8.43,0,0,0-2.59.37,6.51,6.51,0,0,0-2,1A4.52,4.52,0,0,0,83.42,728a4,4,0,0,0-.44,1.88,4.13,4.13,0,0,0,.4,1.88,3.71,3.71,0,0,0,1.21,1.38,7.29,7.29,0,0,0,2,1,20.53,20.53,0,0,0,2.62.7,14.5,14.5,0,0,1,2.42.74,4.89,4.89,0,0,1,1.44.91,3,3,0,0,1,.71,1,3.28,3.28,0,0,1,.2,1.1,2.37,2.37,0,0,1-.31,1.18Zm6.54-14.41v17.73h2V731a9,9,0,0,1,.63-1.58,6.91,6.91,0,0,1,1-1.34,5.5,5.5,0,0,1,1.51-.94,4.81,4.81,0,0,1,1.94-.34,5.9,5.9,0,0,1,1.78.24,3.28,3.28,0,0,1,1.35.73,3.32,3.32,0,0,1,.9,1.45,7,7,0,0,1,.31,2.21v11.72h2V731.39a4.6,4.6,0,0,1,.4-1.58,6.2,6.2,0,0,1,1-1.47,5.47,5.47,0,0,1,1.61-1.11,4.83,4.83,0,0,1,2.15-.44,7.05,7.05,0,0,1,1.74.2,3.08,3.08,0,0,1,1.38.77,3.66,3.66,0,0,1,.91,1.48,7.55,7.55,0,0,1,.3,2.32v11.58h2V731.59a9.5,9.5,0,0,0-.37-3,5,5,0,0,0-1.14-2,4.31,4.31,0,0,0-1.85-1.17,7.74,7.74,0,0,0-2.45-.37,7.29,7.29,0,0,0-2,.27,6.83,6.83,0,0,0-1.68.7,5.91,5.91,0,0,0-1.38,1.11,7.72,7.72,0,0,0-1,1.34,4.71,4.71,0,0,0-2-2.62,6.71,6.71,0,0,0-3.36-.8,6.55,6.55,0,0,0-1.81.23,6.16,6.16,0,0,0-1.58.64,5,5,0,0,0-1.31,1,7.27,7.27,0,0,0-1,1.34l-.06-2.89Zm43.11,17.73v-.2a6.07,6.07,0,0,1-.23-.74c-.07-.27-.1-.57-.17-.87s-.07-.6-.1-.94,0-.64,0-.94v-8.6a6.35,6.35,0,0,0-.47-2.51,5,5,0,0,0-1.35-1.82,5.71,5.71,0,0,0-2-1.07,8.22,8.22,0,0,0-2.62-.37,8,8,0,0,0-2.79.44,7.74,7.74,0,0,0-2.15,1.17,5.39,5.39,0,0,0-1.37,1.68,3.78,3.78,0,0,0-.47,1.91l1.94,0a3,3,0,0,1,.37-1.41,3.88,3.88,0,0,1,1-1.15,4.34,4.34,0,0,1,1.51-.73,5.45,5.45,0,0,1,1.88-.31,4.76,4.76,0,0,1,3.42,1.11,3.88,3.88,0,0,1,1.18,3v2h-3.63a15.13,15.13,0,0,0-3.39.36,7.58,7.58,0,0,0-2.55,1.15,4.64,4.64,0,0,0-2.15,4.09,4.8,4.8,0,0,0,.4,2,4.74,4.74,0,0,0,1.14,1.62,5.47,5.47,0,0,0,1.82,1.07,7.62,7.62,0,0,0,2.35.37,8.6,8.6,0,0,0,1.95-.24,10.54,10.54,0,0,0,1.67-.6,6.39,6.39,0,0,0,1.35-.91,5.25,5.25,0,0,0,1-1.07c0,.47.07.91.13,1.38a4.78,4.78,0,0,0,.27,1.1Zm-9.9-1.68a3.82,3.82,0,0,1-1.28-.73,3.55,3.55,0,0,1-1.07-2.46,3.31,3.31,0,0,1,.43-1.64,3.55,3.55,0,0,1,1.28-1.24,6.16,6.16,0,0,1,2-.78,11,11,0,0,1,2.69-.26h3.36v3.89a6.32,6.32,0,0,1-.88,1.38,6.93,6.93,0,0,1-1.27,1.11,6.32,6.32,0,0,1-1.65.73,7.29,7.29,0,0,1-2,.27,4.9,4.9,0,0,1-1.64-.27Zm16.8-23.5h-2v25.18h2Zm7.52,0h-2v25.18h2Zm13.55,7.45h-2l6.65,17.73h1.58l6.61-17.73h-2l-5.38,15Zm25.06,17.8a5.74,5.74,0,0,0,1.75-.67,6.14,6.14,0,0,0,1.34-1,9.19,9.19,0,0,0,1-1.25l-1.24-.9a5.84,5.84,0,0,1-2.18,1.81,6.25,6.25,0,0,1-2.79.57,5.63,5.63,0,0,1-2.49-.54,6.06,6.06,0,0,1-1.91-1.51,6.61,6.61,0,0,1-1.24-2.21,8.4,8.4,0,0,1-.44-2.76v-.37H200.8V733.2a11.24,11.24,0,0,0-.47-3.25,7.33,7.33,0,0,0-1.34-2.59,6.73,6.73,0,0,0-2.22-1.68,7,7,0,0,0-3-.6,6.51,6.51,0,0,0-2.88.64,7.72,7.72,0,0,0-2.42,1.81,8.23,8.23,0,0,0-1.68,2.82,10.93,10.93,0,0,0-.61,3.73v.7a9.8,9.8,0,0,0,.61,3.49,7.85,7.85,0,0,0,1.64,2.76,7.23,7.23,0,0,0,2.52,1.78,7.78,7.78,0,0,0,3.19.67,8.26,8.26,0,0,0,2.15-.27Zm-.33-16a5.32,5.32,0,0,1,1.57,1.27,5.88,5.88,0,0,1,.94,1.85,7.55,7.55,0,0,1,.37,2.18v.2H188.21a9.17,9.17,0,0,1,.64-2.45,5.72,5.72,0,0,1,2.85-3.12,5.32,5.32,0,0,1,2.08-.4,5,5,0,0,1,2.19.47Zm16.9-2a3.55,3.55,0,0,0-.57-.13,4.53,4.53,0,0,0-.74-.07,5.1,5.1,0,0,0-3,.84,6,6,0,0,0-2,2.31l0-2.82h-1.92v17.73h1.95V731a8.81,8.81,0,0,1,.67-1.61,4.8,4.8,0,0,1,1-1.24,4.16,4.16,0,0,1,1.41-.84,5.17,5.17,0,0,1,1.81-.3,7.66,7.66,0,0,1,1.31.1Z"></path><path class="cls-2" d="M217.59,720.85v4.56h-3.26V727h3.26v11.82a7.07,7.07,0,0,0,.3,2.21,3.81,3.81,0,0,0,.8,1.41,2.57,2.57,0,0,0,1.21.77,4.62,4.62,0,0,0,1.55.24,11.48,11.48,0,0,0,1.17-.07,5.88,5.88,0,0,0,.94-.23l-.1-1.58-.74.1a7.49,7.49,0,0,1-.84,0,3.52,3.52,0,0,1-.87-.1,1.41,1.41,0,0,1-.74-.4,2.07,2.07,0,0,1-.5-.91,4.31,4.31,0,0,1-.2-1.47V727h3.66v-1.62h-3.66v-4.56Zm11.9,4.56h-2v17.73h2Zm-2-4.19a1.45,1.45,0,0,0,1,.37,1.35,1.35,0,0,0,1-.37,1.24,1.24,0,0,0,.37-.94,1.18,1.18,0,0,0-.37-.94,1.23,1.23,0,0,0-1-.41,1.32,1.32,0,0,0-1,.41,1.3,1.3,0,0,0-.33.94,1.37,1.37,0,0,0,.33.94Zm11.24,20a5.6,5.6,0,0,1-1.74-1.58,7,7,0,0,1-.94-2.32,11.93,11.93,0,0,1-.3-2.72v-.67a12.19,12.19,0,0,1,.3-2.72,6.32,6.32,0,0,1,1-2.28,5,5,0,0,1,1.71-1.61,5.57,5.57,0,0,1,2.59-.57,5.83,5.83,0,0,1,1.88.3,5,5,0,0,1,1.54.94,4.58,4.58,0,0,1,1.08,1.44,5.13,5.13,0,0,1,.44,1.95h1.91a8.12,8.12,0,0,0-.6-2.62,6.39,6.39,0,0,0-1.48-2,6.15,6.15,0,0,0-2.12-1.27,7.37,7.37,0,0,0-2.65-.44,7.59,7.59,0,0,0-3.26.67,7,7,0,0,0-2.38,1.88,8.55,8.55,0,0,0-1.44,2.82,12.47,12.47,0,0,0-.48,3.49v.67a12.65,12.65,0,0,0,.48,3.5,8.55,8.55,0,0,0,1.44,2.82,6.75,6.75,0,0,0,2.38,1.84,7.18,7.18,0,0,0,3.26.71,8.18,8.18,0,0,0,2.59-.44,7.05,7.05,0,0,0,2.11-1.21,5.69,5.69,0,0,0,1.51-1.84,6,6,0,0,0,.64-2.32h-1.91a4.45,4.45,0,0,1-.47,1.78,5.63,5.63,0,0,1-1.11,1.31,5.11,5.11,0,0,1-1.55.77,5.4,5.4,0,0,1-1.81.27,5.22,5.22,0,0,1-2.59-.57Zm26.61,1.91v-.2c-.06-.2-.16-.43-.23-.74s-.1-.57-.17-.87-.07-.6-.1-.94,0-.64,0-.94v-8.6a6.35,6.35,0,0,0-.47-2.51,5,5,0,0,0-1.35-1.82,5.71,5.71,0,0,0-2-1.07,8.22,8.22,0,0,0-2.62-.37,8,8,0,0,0-2.79.44,7.74,7.74,0,0,0-2.15,1.17,5.39,5.39,0,0,0-1.37,1.68,3.78,3.78,0,0,0-.47,1.91l1.94,0a3,3,0,0,1,.37-1.41,3.88,3.88,0,0,1,1-1.15,4.34,4.34,0,0,1,1.51-.73,5.45,5.45,0,0,1,1.88-.31,4.76,4.76,0,0,1,3.42,1.11,3.85,3.85,0,0,1,1.18,3v2h-3.63a15.13,15.13,0,0,0-3.39.36,7.67,7.67,0,0,0-2.55,1.15,5,5,0,0,0-1.75,6.07,4.77,4.77,0,0,0,1.15,1.62,5.33,5.33,0,0,0,1.81,1.07,7.62,7.62,0,0,0,2.35.37,8.6,8.6,0,0,0,1.95-.24,11,11,0,0,0,1.68-.6,6.32,6.32,0,0,0,1.34-.91,5.25,5.25,0,0,0,1-1.07c0,.47.07.91.13,1.38a4.78,4.78,0,0,0,.27,1.1Zm-9.9-1.68a3.92,3.92,0,0,1-1.28-.73,3.55,3.55,0,0,1-1.07-2.46,3.42,3.42,0,0,1,.43-1.64,3.55,3.55,0,0,1,1.28-1.24,6.13,6.13,0,0,1,2-.78,10.88,10.88,0,0,1,2.68-.26h3.36v3.89a6.27,6.27,0,0,1-.87,1.38,7.35,7.35,0,0,1-1.28,1.11,6.4,6.4,0,0,1-1.64.73,7.42,7.42,0,0,1-2,.27,4.9,4.9,0,0,1-1.64-.27Zm16.8-23.5h-2v25.18h2Z"></path><path class="cls-2" d="M150,764h-2v23.87h2Zm14.6,14.13a11,11,0,0,0,3.49-.47,7.14,7.14,0,0,0,2.52-1.37,5.94,5.94,0,0,0,1.51-2.19,8.44,8.44,0,0,0,.5-3,7.93,7.93,0,0,0-.5-2.85,6,6,0,0,0-1.55-2.28,7,7,0,0,0-2.52-1.45,9.77,9.77,0,0,0-3.45-.53h-8.13v23.87h2v-9.74Zm-6.11-12.42h6.11a8.53,8.53,0,0,1,2.75.43,5.77,5.77,0,0,1,1.85,1.18,4.39,4.39,0,0,1,1.07,1.75,6.13,6.13,0,0,1,.34,2.08,5.79,5.79,0,0,1-.34,2.08,4,4,0,0,1-1.07,1.68,4.72,4.72,0,0,1-1.85,1.14,8.31,8.31,0,0,1-2.75.4h-6.11Zm29.15-1.88a12.3,12.3,0,0,0-5,.94,9.66,9.66,0,0,0-3.56,2.75,12.13,12.13,0,0,0-2.12,4.27,20.13,20.13,0,0,0-.7,5.54v2.11a10.34,10.34,0,0,0,.53,3.39,8.17,8.17,0,0,0,1.55,2.79,6.66,6.66,0,0,0,2.42,1.88,7.27,7.27,0,0,0,3.22.7,7,7,0,0,0,3-.63,7,7,0,0,0,2.25-1.72,8.05,8.05,0,0,0,1.41-2.58,10.9,10.9,0,0,0,.47-3.22,9.79,9.79,0,0,0-.43-3,7.15,7.15,0,0,0-1.28-2.52,6.57,6.57,0,0,0-2.15-1.71,6.5,6.5,0,0,0-3-.64,8,8,0,0,0-3.39.74,6.27,6.27,0,0,0-2.52,2.15,12.36,12.36,0,0,1,.81-4,8.76,8.76,0,0,1,1.88-3,8.06,8.06,0,0,1,2.89-1.91,10.27,10.27,0,0,1,3.82-.64h.31v-1.71Zm-1.47,10.54a4.78,4.78,0,0,1,1.61,1.38,6.37,6.37,0,0,1,1,2,9.13,9.13,0,0,1,.3,2.38,8.37,8.37,0,0,1-.34,2.49,6.44,6.44,0,0,1-1,2,5.25,5.25,0,0,1-1.64,1.37,4.38,4.38,0,0,1-2.15.51,5.66,5.66,0,0,1-2.25-.47,5.41,5.41,0,0,1-1.81-1.41,6.65,6.65,0,0,1-1.25-2.22,9,9,0,0,1-.43-3v-1.61a4.18,4.18,0,0,1,.77-1.57,5.76,5.76,0,0,1,1.31-1.25,5.88,5.88,0,0,1,1.68-.84,6,6,0,0,1,1.88-.33,5.24,5.24,0,0,1,2.32.5Zm11.66,1.71a6.92,6.92,0,0,1,.88-.7,3.57,3.57,0,0,1,1-.54,6.33,6.33,0,0,1,1.21-.37,9.71,9.71,0,0,1,1.51-.1,5.62,5.62,0,0,1,2.32.44,4.58,4.58,0,0,1,1.71,1.24,5.28,5.28,0,0,1,1,1.91,6.46,6.46,0,0,1,.37,2.32,7.12,7.12,0,0,1-1.31,4.63,4.65,4.65,0,0,1-3.86,1.62,5.22,5.22,0,0,1-3.69-1.25,5.68,5.68,0,0,1-1.68-3.69h-1.88a8.52,8.52,0,0,0,.77,2.92,6.38,6.38,0,0,0,3.8,3.29,8.69,8.69,0,0,0,2.68.4,7.91,7.91,0,0,0,3.22-.6,6.3,6.3,0,0,0,2.22-1.64,7,7,0,0,0,1.28-2.52,10.75,10.75,0,0,0,.43-3.19,9.37,9.37,0,0,0-.5-3.19,7.37,7.37,0,0,0-1.44-2.42,6.5,6.5,0,0,0-2.25-1.54,7.71,7.71,0,0,0-2.89-.54,10,10,0,0,0-1.41.13c-.47.1-.87.2-1.28.3a10.82,10.82,0,0,0-1,.44c-.3.17-.54.3-.74.44l.81-8.06h10.27V764H197.4l-1.18,11.65Z"></path><path class="cls-2" d="M126.76,886.31h-.5l-9.87,3.55v3.83L122,892v18.26h4.73Zm22.75,3.52a5.11,5.11,0,0,0-1.58-2.08,6.77,6.77,0,0,0-2.38-1.31,10.58,10.58,0,0,0-3-.44,11,11,0,0,0-3.06.44,7,7,0,0,0-2.38,1.31,5.81,5.81,0,0,0-1.58,2.08,6.87,6.87,0,0,0-.54,2.85,5.59,5.59,0,0,0,.84,3.09,6.12,6.12,0,0,0,2.38,2.15,6.68,6.68,0,0,0-2.71,2.29,5.73,5.73,0,0,0-1,3.45,6.5,6.5,0,0,0,.64,3,6.36,6.36,0,0,0,1.68,2.15,7.8,7.8,0,0,0,2.59,1.31,11.89,11.89,0,0,0,6.41,0,8,8,0,0,0,2.55-1.31,6.12,6.12,0,0,0,1.68-2.15,6.91,6.91,0,0,0,.6-3,6,6,0,0,0-1-3.45,7,7,0,0,0-2.76-2.29,6.08,6.08,0,0,0,2.39-2.15,5.61,5.61,0,0,0,.87-3.09,6.87,6.87,0,0,0-.57-2.85Zm-4.57,16a3.13,3.13,0,0,1-2.41.91,3.73,3.73,0,0,1-1.38-.23,2.92,2.92,0,0,1-1.71-1.75,3.59,3.59,0,0,1-.24-1.41,3.85,3.85,0,0,1,.24-1.44,2.7,2.7,0,0,1,.67-1.08,2.87,2.87,0,0,1,1-.67,3.37,3.37,0,0,1,1.34-.24,3.54,3.54,0,0,1,1.38.24,2.87,2.87,0,0,1,1,.67,3.23,3.23,0,0,1,.67,1.08,3.85,3.85,0,0,1,.24,1.44,3.32,3.32,0,0,1-.88,2.48Zm-.33-10.61a2.91,2.91,0,0,1-4.17,0,3.34,3.34,0,0,1-.73-2.28,3.29,3.29,0,0,1,.73-2.28,2.7,2.7,0,0,1,2.09-.81,2.65,2.65,0,0,1,2.08.84,3.42,3.42,0,0,1,.74,2.25,3.5,3.5,0,0,1-.74,2.28Zm14,4.67h2.52a6.46,6.46,0,0,1,1.64.2,4.91,4.91,0,0,1,1.25.64,3.29,3.29,0,0,1,.77,1.11,4.77,4.77,0,0,1,.27,1.64,3.57,3.57,0,0,1-.27,1.35,2.31,2.31,0,0,1-.71,1,2.56,2.56,0,0,1-1.14.68,4.36,4.36,0,0,1-1.51.23,3.92,3.92,0,0,1-1.38-.23,3.07,3.07,0,0,1-1.1-.64,2.81,2.81,0,0,1-.74-.94,2.94,2.94,0,0,1-.27-1.25h-4.74a6.23,6.23,0,0,0,.71,3.06,6.31,6.31,0,0,0,1.85,2.15,8.31,8.31,0,0,0,2.58,1.28,11.64,11.64,0,0,0,3,.4,12,12,0,0,0,3.36-.47,7.66,7.66,0,0,0,2.68-1.38,6.22,6.22,0,0,0,1.78-2.18,7,7,0,0,0,.64-3,5.6,5.6,0,0,0-4-5.57,8.07,8.07,0,0,0,1.54-1,7.22,7.22,0,0,0,1.14-1.21,6.64,6.64,0,0,0,.71-1.44,6.07,6.07,0,0,0,.23-1.51,7,7,0,0,0-.6-3,5.9,5.9,0,0,0-1.65-2.11,7.6,7.6,0,0,0-2.55-1.31,12.52,12.52,0,0,0-3.29-.44,10.21,10.21,0,0,0-3.06.47,8.73,8.73,0,0,0-2.48,1.31,6.7,6.7,0,0,0-1.68,2.05,6,6,0,0,0-.6,2.69h4.73a2.4,2.4,0,0,1,.27-1.11,2.35,2.35,0,0,1,.67-.84,2.72,2.72,0,0,1,1-.54,3.61,3.61,0,0,1,1.21-.2,3.65,3.65,0,0,1,1.44.24,2.59,2.59,0,0,1,1,.63,2.44,2.44,0,0,1,.61,1,3.61,3.61,0,0,1,.2,1.21,3.3,3.3,0,0,1-.87,2.38,3.64,3.64,0,0,1-2.69.91h-2.52Zm30.81,6.51H179.12l4.2-4.43c.8-.84,1.54-1.61,2.18-2.38a16.41,16.41,0,0,0,1.68-2.25,10.56,10.56,0,0,0,1-2.22,6.68,6.68,0,0,0,.4-2.31,7.74,7.74,0,0,0-.5-2.86,5.67,5.67,0,0,0-1.51-2.11,6.92,6.92,0,0,0-2.42-1.35,11.31,11.31,0,0,0-3.36-.47,8.81,8.81,0,0,0-3.46.64,7.54,7.54,0,0,0-2.58,1.68,7.27,7.27,0,0,0-1.68,2.48,8.56,8.56,0,0,0-.57,3.06h4.77a4.75,4.75,0,0,1,.23-1.61,3.85,3.85,0,0,1,.64-1.28,3,3,0,0,1,1.11-.84,3.34,3.34,0,0,1,1.48-.3,2.9,2.9,0,0,1,2.28.91,3.63,3.63,0,0,1,.81,2.52,3.22,3.22,0,0,1-.17,1.07,5.64,5.64,0,0,1-.51,1.21,9.33,9.33,0,0,1-1,1.44,18.21,18.21,0,0,1-1.48,1.75L173,907v3.25H189.4Zm12.3-8.29h-9.23v3.8h9.23Zm15.1-11.78h-.51l-9.87,3.55v3.83l5.64-1.74v18.26h4.74Zm23.82,9.9a15.56,15.56,0,0,0-.61-4.63,8.36,8.36,0,0,0-1.64-3.16,6.17,6.17,0,0,0-2.56-1.81,8.42,8.42,0,0,0-3.29-.61,8.6,8.6,0,0,0-3.29.61,6,6,0,0,0-2.51,1.81,8.24,8.24,0,0,0-1.65,3.16,15.58,15.58,0,0,0-.6,4.63v4.13a15.56,15.56,0,0,0,.6,4.6,8.82,8.82,0,0,0,1.65,3.19,6.08,6.08,0,0,0,2.55,1.81,9.18,9.18,0,0,0,6.58,0,6.21,6.21,0,0,0,2.55-1.81,9,9,0,0,0,1.65-3.19,17.09,17.09,0,0,0,.57-4.6ZM235.88,901a12.73,12.73,0,0,1-.23,2.68,5.24,5.24,0,0,1-.64,1.78,2.43,2.43,0,0,1-1,1,3.18,3.18,0,0,1-1.41.3,3.12,3.12,0,0,1-1.41-.3,2.38,2.38,0,0,1-1-1,5,5,0,0,1-.68-1.78,15.44,15.44,0,0,1-.2-2.68v-5.47a15.19,15.19,0,0,1,.2-2.66,5,5,0,0,1,.64-1.74,2.92,2.92,0,0,1,1-1,3.35,3.35,0,0,1,1.41-.27,3.12,3.12,0,0,1,1.41.27,2.66,2.66,0,0,1,1.08,1,5,5,0,0,1,.64,1.74,12.52,12.52,0,0,1,.23,2.66Z"></path><path class="cls-2" d="M93.62,951.61a3.09,3.09,0,0,1-.87,1,6.23,6.23,0,0,1-1.44.71,7,7,0,0,1-2,.24,7.55,7.55,0,0,1-1.68-.17,5,5,0,0,1-1.58-.61A3.34,3.34,0,0,1,84.36,950h-2a4.43,4.43,0,0,0,.47,2,4.82,4.82,0,0,0,1.34,1.71,6.43,6.43,0,0,0,2.15,1.18,10.12,10.12,0,0,0,3,.43,9.57,9.57,0,0,0,2.72-.37,5.81,5.81,0,0,0,2-1,4.87,4.87,0,0,0,1.35-1.55,4.42,4.42,0,0,0,.43-2,4.16,4.16,0,0,0-.37-1.88A3.81,3.81,0,0,0,94.4,947a8.37,8.37,0,0,0-2-1.1,18,18,0,0,0-2.75-.81,16.75,16.75,0,0,1-2.42-.71,5.07,5.07,0,0,1-1.45-.77,1.83,1.83,0,0,1-.7-.9,2.92,2.92,0,0,1-.2-1.08,2.66,2.66,0,0,1,.27-1.11,2.49,2.49,0,0,1,.74-1,4.4,4.4,0,0,1,1.34-.71,5.6,5.6,0,0,1,2-.27,5.81,5.81,0,0,1,1.94.3,4.39,4.39,0,0,1,1.45.81,3.38,3.38,0,0,1,.9,1.18,3,3,0,0,1,.31,1.34h1.94a4.93,4.93,0,0,0-.43-2.12,5.36,5.36,0,0,0-1.28-1.68,6.43,6.43,0,0,0-2.08-1.1,8.6,8.6,0,0,0-2.75-.41,8.74,8.74,0,0,0-2.59.37,6.74,6.74,0,0,0-2,1,4.55,4.55,0,0,0-1.24,1.55,4,4,0,0,0-.44,1.88,4.19,4.19,0,0,0,.4,1.88A3.71,3.71,0,0,0,84.59,945a7.28,7.28,0,0,0,2,1,20.46,20.46,0,0,0,2.62.71,13.62,13.62,0,0,1,2.42.74,5.09,5.09,0,0,1,1.44.9,3.23,3.23,0,0,1,.71,1,3.34,3.34,0,0,1,.2,1.11,2.36,2.36,0,0,1-.31,1.17Zm6.54-14.4v17.73h2V942.78a9.19,9.19,0,0,1,.63-1.57,7,7,0,0,1,1-1.35,5.75,5.75,0,0,1,1.51-.94,5,5,0,0,1,1.94-.33,5.9,5.9,0,0,1,1.78.23,3.3,3.3,0,0,1,1.35.74,3.35,3.35,0,0,1,.9,1.44,7.16,7.16,0,0,1,.31,2.22v11.72h2V943.19a4.54,4.54,0,0,1,.4-1.58,6.25,6.25,0,0,1,1-1.48,5.47,5.47,0,0,1,1.61-1.11,4.83,4.83,0,0,1,2.15-.43,6.6,6.6,0,0,1,1.74.2,2.9,2.9,0,0,1,1.38.77,3.66,3.66,0,0,1,.91,1.48,7.44,7.44,0,0,1,.3,2.31v11.59h2V943.39a9.61,9.61,0,0,0-.37-3,4.89,4.89,0,0,0-1.14-2,4.33,4.33,0,0,0-1.85-1.18,8,8,0,0,0-2.45-.37,7.29,7.29,0,0,0-2,.27,6.85,6.85,0,0,0-1.68.71,5.91,5.91,0,0,0-1.38,1.11,7.72,7.72,0,0,0-1,1.34,4.65,4.65,0,0,0-2-2.62,6.61,6.61,0,0,0-3.36-.81,6.19,6.19,0,0,0-1.81.24,5.82,5.82,0,0,0-1.58.64,5,5,0,0,0-1.31,1,7.34,7.34,0,0,0-1,1.35l-.06-2.89Zm43.11,17.73v-.2A6.69,6.69,0,0,1,143,954c-.07-.27-.1-.57-.17-.87s-.07-.61-.1-1,0-.63,0-.94v-8.59a6.44,6.44,0,0,0-.47-2.52,5,5,0,0,0-1.35-1.81,5.89,5.89,0,0,0-2-1.08,9.25,9.25,0,0,0-5.41.07,7.76,7.76,0,0,0-2.15,1.18,5.47,5.47,0,0,0-1.37,1.67,3.84,3.84,0,0,0-.47,1.92l1.94,0a3,3,0,0,1,.37-1.41,4,4,0,0,1,1-1.14,4.53,4.53,0,0,1,1.51-.74,5.7,5.7,0,0,1,1.88-.3,4.76,4.76,0,0,1,3.42,1.11,3.87,3.87,0,0,1,1.18,3v2h-3.63a14.54,14.54,0,0,0-3.39.37,7.77,7.77,0,0,0-2.55,1.14,5,5,0,0,0-1.61,1.75,5.25,5.25,0,0,0-.14,4.33,4.7,4.7,0,0,0,1.14,1.61,5.31,5.31,0,0,0,1.82,1.07,7.33,7.33,0,0,0,2.35.37,9.22,9.22,0,0,0,1.95-.23,10.54,10.54,0,0,0,1.67-.61,6,6,0,0,0,1.35-.9,5.29,5.29,0,0,0,1-1.08c0,.47.07.91.13,1.38a4.75,4.75,0,0,0,.27,1.11Zm-9.9-1.68a4,4,0,0,1-1.28-.74,2.92,2.92,0,0,1-.77-1.11,3,3,0,0,1-.3-1.34,3.35,3.35,0,0,1,.43-1.65,3.63,3.63,0,0,1,1.28-1.24,6.39,6.39,0,0,1,2-.77,11,11,0,0,1,2.69-.27h3.36V950a6,6,0,0,1-.88,1.37,6.57,6.57,0,0,1-1.27,1.11,6.69,6.69,0,0,1-1.65.74,7.29,7.29,0,0,1-2,.27,4.9,4.9,0,0,1-1.64-.27Zm16.8-23.5h-2v25.18h2Zm7.52,0h-2v25.18h2Zm13.55,7.45h-2l6.65,17.73h1.58l6.61-17.73h-2l-5.38,15ZM196.3,955a5.75,5.75,0,0,0,1.75-.68,5.55,5.55,0,0,0,1.34-1,9.12,9.12,0,0,0,1-1.24l-1.24-.91A5.84,5.84,0,0,1,197,953a6.11,6.11,0,0,1-2.79.58,5.63,5.63,0,0,1-2.49-.54,6.2,6.2,0,0,1-1.91-1.51,6.76,6.76,0,0,1-1.24-2.22,8.34,8.34,0,0,1-.44-2.75v-.37H200.8V945a11.31,11.31,0,0,0-.47-3.26,7.37,7.37,0,0,0-1.34-2.58,6.47,6.47,0,0,0-2.22-1.68,7,7,0,0,0-3-.61,6.65,6.65,0,0,0-2.88.64,7.88,7.88,0,0,0-2.42,1.81,8.37,8.37,0,0,0-1.68,2.83,10.87,10.87,0,0,0-.61,3.72v.71a9.84,9.84,0,0,0,.61,3.49,7.9,7.9,0,0,0,1.64,2.75A7,7,0,0,0,191,954.6a7.63,7.63,0,0,0,3.19.67,8.73,8.73,0,0,0,2.15-.26ZM196,939a5.35,5.35,0,0,1,1.57,1.28,5.77,5.77,0,0,1,.94,1.85,7.49,7.49,0,0,1,.37,2.18v.2H188.21a9.07,9.07,0,0,1,.64-2.45A6.07,6.07,0,0,1,190,940.2,5.94,5.94,0,0,1,191.7,939a5.32,5.32,0,0,1,2.08-.41A5,5,0,0,1,196,939Zm16.9-1.94a2.6,2.6,0,0,0-.57-.14,6,6,0,0,0-.74-.07,5.1,5.1,0,0,0-3,.84,6.08,6.08,0,0,0-2,2.32l0-2.82h-1.92v17.73h1.95V942.75a8.52,8.52,0,0,1,.67-1.61,4.64,4.64,0,0,1,1-1.24,4.16,4.16,0,0,1,1.41-.84,5,5,0,0,1,1.81-.31,8.83,8.83,0,0,1,1.31.1Z"></path><path class="cls-2" d="M217.59,932.64v4.57h-3.26v1.61h3.26v11.82a7.18,7.18,0,0,0,.3,2.22,3.89,3.89,0,0,0,.8,1.41,2.65,2.65,0,0,0,1.21.77,4.62,4.62,0,0,0,1.55.23c.4,0,.77,0,1.17-.06a5.81,5.81,0,0,0,.94-.24l-.1-1.58c-.2,0-.47.07-.74.1a5.63,5.63,0,0,1-.84,0,4.07,4.07,0,0,1-.87-.1,1.43,1.43,0,0,1-.74-.41,2,2,0,0,1-.5-.9,4.37,4.37,0,0,1-.2-1.48V938.82h3.66v-1.61h-3.66v-4.57Zm11.9,4.57h-2v17.73h2Zm-2-4.2a1.41,1.41,0,0,0,1,.37,1.31,1.31,0,0,0,1-.37,1.24,1.24,0,0,0,.37-.94,1.19,1.19,0,0,0-.37-.94,1.22,1.22,0,0,0-1-.4,1.25,1.25,0,0,0-1.34,1.34,1.37,1.37,0,0,0,.33.94Zm11.24,20a5.7,5.7,0,0,1-1.74-1.57,7.16,7.16,0,0,1-.94-2.32,11.93,11.93,0,0,1-.3-2.72v-.67a12.13,12.13,0,0,1,.3-2.72,6.32,6.32,0,0,1,1-2.28,5,5,0,0,1,1.71-1.62,5.57,5.57,0,0,1,2.59-.57,5.83,5.83,0,0,1,1.88.3,5.22,5.22,0,0,1,1.54.94,4.74,4.74,0,0,1,1.08,1.45,5.13,5.13,0,0,1,.44,2h1.91a8.06,8.06,0,0,0-.6-2.62,6.45,6.45,0,0,0-3.6-3.26,8.17,8.17,0,0,0-5.91.24,6.93,6.93,0,0,0-2.38,1.88,8.35,8.35,0,0,0-1.44,2.82,12.37,12.37,0,0,0-.48,3.49v.67a12.58,12.58,0,0,0,.48,3.49,8.35,8.35,0,0,0,1.44,2.82,6.89,6.89,0,0,0,2.38,1.85,7.18,7.18,0,0,0,3.26.7,8.18,8.18,0,0,0,2.59-.43,7.27,7.27,0,0,0,2.11-1.21,5.62,5.62,0,0,0,1.51-1.85,6,6,0,0,0,.64-2.31h-1.91a4.4,4.4,0,0,1-.47,1.77,5.43,5.43,0,0,1-1.11,1.31,5.14,5.14,0,0,1-1.55.78,5.4,5.4,0,0,1-1.81.27,5.11,5.11,0,0,1-2.59-.58Zm26.61,1.92v-.2c-.06-.2-.16-.44-.23-.74s-.1-.57-.17-.87-.07-.61-.1-1,0-.63,0-.94v-8.59a6.44,6.44,0,0,0-.47-2.52,5,5,0,0,0-1.35-1.81,5.89,5.89,0,0,0-2-1.08,9.25,9.25,0,0,0-5.41.07,7.76,7.76,0,0,0-2.15,1.18,5.47,5.47,0,0,0-1.37,1.67,3.84,3.84,0,0,0-.47,1.92l1.94,0a3,3,0,0,1,.37-1.41,4,4,0,0,1,1-1.14,4.53,4.53,0,0,1,1.51-.74,5.7,5.7,0,0,1,1.88-.3,4.76,4.76,0,0,1,3.42,1.11,3.83,3.83,0,0,1,1.18,3v2h-3.63a14.54,14.54,0,0,0-3.39.37,7.87,7.87,0,0,0-2.55,1.14,5,5,0,0,0-1.61,1.75,4.91,4.91,0,0,0-.54,2.35,5,5,0,0,0,.4,2,4.73,4.73,0,0,0,1.15,1.61,5.17,5.17,0,0,0,1.81,1.07,7.33,7.33,0,0,0,2.35.37,9.22,9.22,0,0,0,1.95-.23,11,11,0,0,0,1.68-.61,5.93,5.93,0,0,0,1.34-.9,5.29,5.29,0,0,0,1-1.08c0,.47.07.91.13,1.38a4.75,4.75,0,0,0,.27,1.11Zm-9.9-1.68a4.13,4.13,0,0,1-1.28-.74,2.92,2.92,0,0,1-.77-1.11,3,3,0,0,1-.3-1.34,3.46,3.46,0,0,1,.43-1.65,3.63,3.63,0,0,1,1.28-1.24,6.36,6.36,0,0,1,2-.77,10.84,10.84,0,0,1,2.68-.27h3.36V950a6,6,0,0,1-.87,1.37,7,7,0,0,1-1.28,1.11,6.79,6.79,0,0,1-1.64.74,7.42,7.42,0,0,1-2,.27,4.9,4.9,0,0,1-1.64-.27Zm16.8-23.5h-2v25.18h2Z"></path><path class="cls-2" d="M150,975.79h-2v23.87h2Zm14.6,14.14a11.3,11.3,0,0,0,3.49-.47,7.32,7.32,0,0,0,2.52-1.38,5.82,5.82,0,0,0,1.51-2.18,8.48,8.48,0,0,0,.5-3,7.93,7.93,0,0,0-.5-2.85,6.08,6.08,0,0,0-1.55-2.29,7,7,0,0,0-2.52-1.44,9.77,9.77,0,0,0-3.45-.54h-8.13v23.87h2v-9.73Zm-6.11-12.43h6.11a8.25,8.25,0,0,1,2.75.44,5.59,5.59,0,0,1,1.85,1.17,4.53,4.53,0,0,1,1.07,1.75,6.17,6.17,0,0,1,.34,2.08,5.71,5.71,0,0,1-.34,2.08,4,4,0,0,1-1.07,1.68,4.63,4.63,0,0,1-1.85,1.15,8.58,8.58,0,0,1-2.75.4h-6.11ZM191.27,998H178.75l6.65-7.52c.6-.71,1.17-1.41,1.74-2.12a16.75,16.75,0,0,0,1.51-2.15,9.91,9.91,0,0,0,1-2.18,6.45,6.45,0,0,0,.4-2.18,7.42,7.42,0,0,0-.47-2.69,5.53,5.53,0,0,0-1.41-2,5.91,5.91,0,0,0-2.18-1.28,9.84,9.84,0,0,0-2.89-.43,8,8,0,0,0-3.09.57,7,7,0,0,0-2.32,1.57,6.91,6.91,0,0,0-1.44,2.29,7.62,7.62,0,0,0-.51,2.78h2a6.07,6.07,0,0,1,.4-2.21,5.09,5.09,0,0,1,1.08-1.75,4.36,4.36,0,0,1,1.68-1.14,5.41,5.41,0,0,1,2.25-.44,6.29,6.29,0,0,1,2.15.37,4.13,4.13,0,0,1,1.54,1,4,4,0,0,1,.94,1.55,5.32,5.32,0,0,1,.34,2,6.09,6.09,0,0,1-.2,1.51,8.07,8.07,0,0,1-.68,1.64A13.88,13.88,0,0,1,186,987c-.5.67-1.11,1.41-1.84,2.25l-7.83,8.86v1.51h14.94Zm18-12.36a18.28,18.28,0,0,0-.5-4.53,9.61,9.61,0,0,0-1.45-3.19,6,6,0,0,0-2.31-1.85,7.89,7.89,0,0,0-6.18,0,5.91,5.91,0,0,0-2.32,1.85,9.6,9.6,0,0,0-1.44,3.19,19.4,19.4,0,0,0-.47,4.53v4.07a17.81,17.81,0,0,0,.5,4.53,9.13,9.13,0,0,0,1.44,3.22,5.9,5.9,0,0,0,2.32,1.88,7.78,7.78,0,0,0,6.18,0,5.52,5.52,0,0,0,2.28-1.88,9,9,0,0,0,1.45-3.22,18.28,18.28,0,0,0,.5-4.53Zm-2,4.27a16.22,16.22,0,0,1-.34,3.59,7.7,7.7,0,0,1-1,2.62,4.39,4.39,0,0,1-1.68,1.64,5.38,5.38,0,0,1-4.7,0,4.69,4.69,0,0,1-1.71-1.64,8.38,8.38,0,0,1-1-2.62,16.22,16.22,0,0,1-.34-3.59v-4.5c0-2.72.44-4.8,1.35-6.18a4.89,4.89,0,0,1,8.06,0,11.48,11.48,0,0,1,1.34,6.18Z"></path><line class="cls-3" x1="93.56" y1="569.35" x2="247.25" y2="569.35"></line><path d="M171.65,610.21h-9.57l5.09-5.55c2.42-2.58,3.6-4.83,3.6-6.71a4.79,4.79,0,0,0-1.53-3.7,6,6,0,0,0-4.21-1.39,6.2,6.2,0,0,0-4.54,1.63,5.55,5.55,0,0,0-1.71,4.24h2.44a4,4,0,0,1,1-2.87,3.82,3.82,0,0,1,2.82-1,3.17,3.17,0,0,1,2.41,1,3.4,3.4,0,0,1,.88,2.44,4.58,4.58,0,0,1-.53,2.14,15.23,15.23,0,0,1-2,2.71l-6.6,7.35v1.74h12.5Zm15.08,0h-9.57l5.09-5.55c2.42-2.58,3.6-4.83,3.6-6.71a4.79,4.79,0,0,0-1.53-3.7,6,6,0,0,0-4.21-1.39,6.2,6.2,0,0,0-4.54,1.63,5.55,5.55,0,0,0-1.71,4.24h2.44a4,4,0,0,1,1-2.87,3.82,3.82,0,0,1,2.82-1,3.17,3.17,0,0,1,2.41,1,3.41,3.41,0,0,1,.89,2.44,4.59,4.59,0,0,1-.54,2.14,15.23,15.23,0,0,1-2,2.71l-6.6,7.35v1.74h12.5Z"></path><line class="cls-3" x1="304.23" y1="295.82" x2="304.23" y2="510.62"></line><path d="M341.7,420.78V419a4.52,4.52,0,0,1,.91-2.95,3.14,3.14,0,0,1,2.55-1,3.55,3.55,0,0,1,2.63.91,3.72,3.72,0,0,1,.91,2.71,3.68,3.68,0,0,1-.91,2.63,3.1,3.1,0,0,1-2.39,1v2.44a4.84,4.84,0,0,0,3.84-1.69,6.44,6.44,0,0,0,1.45-4.35,6.33,6.33,0,0,0-1.51-4.37,5.17,5.17,0,0,0-4.07-1.69,4.72,4.72,0,0,0-2.82.86,4.79,4.79,0,0,0-1.63,2.44,5,5,0,0,0-1.75-2.2,4.16,4.16,0,0,0-2.41-.8,5.22,5.22,0,0,0-4,1.52,6.84,6.84,0,0,0,.08,8.45,4.9,4.9,0,0,0,3.76,1.67V422a3.08,3.08,0,0,1-2.36-.91,3.44,3.44,0,0,1-.91-2.52c0-2.22,1.12-3.35,3.35-3.35a3.09,3.09,0,0,1,2.39,1,4.09,4.09,0,0,1,.91,2.71v1.82Zm6.73-24.06v9.57l-5.55-5.09c-2.57-2.42-4.83-3.6-6.7-3.6a4.78,4.78,0,0,0-3.7,1.53,6,6,0,0,0-1.4,4.21,6.2,6.2,0,0,0,1.64,4.54,5.51,5.51,0,0,0,4.23,1.71v-2.44a4,4,0,0,1-2.87-1,3.81,3.81,0,0,1-1-2.82,3.2,3.2,0,0,1,1-2.41,3.42,3.42,0,0,1,2.44-.89,4.63,4.63,0,0,1,2.15.54,15.6,15.6,0,0,1,2.71,2l7.35,6.6h1.74v-12.5Z"></path><path class="cls-1" d="M179.94,296.94a66.3,66.3,0,0,0-66.18,66.42l66.18,66.43a66.43,66.43,0,0,0,0-132.85m0,117.85L128.7,363.36a51.24,51.24,0,1,1,51.24,51.43"></path><path class="cls-4" d="M179.94,296.94a66.3,66.3,0,0,0-66.18,66.42l66.18,66.43a66.43,66.43,0,0,0,0-132.85Zm0,117.85L128.7,363.36a51.24,51.24,0,1,1,51.24,51.43Z"></path><polygon class="cls-1" points="177.84 501.8 99.15 501.8 99.15 363.86 177.84 363.86 177.84 393.14 177.84 400.87 177.84 501.8"></polygon><polygon class="cls-4" points="177.84 501.8 99.15 501.8 99.15 363.86 177.84 363.86 177.84 393.14 177.84 400.87 177.84 501.8 177.84 501.8"></polygon><rect class="cls-1" x="99.15" y="501.86" width="79.42" height="7.64"></rect><rect class="cls-4" x="99.15" y="501.86" width="79.42" height="7.64"></rect></svg> 