<?xml version="1.0" encoding="UTF-8"?> <svg xmlns="http://www.w3.org/2000/svg" id="Livello_1" data-name="Livello 1" viewBox="0 0 396.47 1000"><defs><style>.cls-1{fill:#fff;}.cls-2{fill:#231f20;}.cls-3,.cls-4{fill:none;stroke-width:0.5px;}.cls-3{stroke:#000;}.cls-4{stroke:#231f20;stroke-miterlimit:10;}</style></defs><title>Angolo medium horiziontal</title><rect class="cls-1" width="396.47" height="1000"></rect><path class="cls-2" d="M139.11,674.51h-.51l-9.87,3.56v3.83l5.64-1.75v18.27h4.74ZM161.85,678a5.21,5.21,0,0,0-1.57-2.09,7.08,7.08,0,0,0-2.39-1.31,10.84,10.84,0,0,0-3-.43,11.36,11.36,0,0,0-3.06.43,7.32,7.32,0,0,0-2.38,1.31,6,6,0,0,0-1.58,2.09,6.84,6.84,0,0,0-.53,2.85,5.61,5.61,0,0,0,.83,3.09,6.23,6.23,0,0,0,2.39,2.15,6.77,6.77,0,0,0-2.72,2.28,5.74,5.74,0,0,0-1,3.46,6.4,6.4,0,0,0,.64,3,6.21,6.21,0,0,0,1.67,2.15,8,8,0,0,0,2.59,1.31,12.16,12.16,0,0,0,6.41,0,8.15,8.15,0,0,0,2.56-1.31,6.21,6.21,0,0,0,1.67-2.15,6.79,6.79,0,0,0,.61-3,6.09,6.09,0,0,0-1-3.46,7.07,7.07,0,0,0-2.75-2.28,6.13,6.13,0,0,0,2.38-2.15,5.64,5.64,0,0,0,.87-3.09,6.83,6.83,0,0,0-.57-2.85Zm-4.56,16a3.19,3.19,0,0,1-2.42.91,3.61,3.61,0,0,1-1.38-.24,2.43,2.43,0,0,1-1-.67,2.61,2.61,0,0,1-.67-1.08,3.6,3.6,0,0,1-.23-1.41,3.92,3.92,0,0,1,.23-1.44,2.85,2.85,0,0,1,.67-1.07,2.77,2.77,0,0,1,1-.68,3.61,3.61,0,0,1,1.35-.23,3.72,3.72,0,0,1,1.37.23,2.62,2.62,0,0,1,1,.68,3.15,3.15,0,0,1,.68,1.07,4.14,4.14,0,0,1,.23,1.44,3.4,3.4,0,0,1-.87,2.49ZM157,683.41a2.92,2.92,0,0,1-4.16,0,3.31,3.31,0,0,1-.74-2.29,3.25,3.25,0,0,1,.74-2.28,2.66,2.66,0,0,1,2.08-.8,2.6,2.6,0,0,1,2.08.84,3.39,3.39,0,0,1,.74,2.24,3.51,3.51,0,0,1-.74,2.29Zm14,4.67h2.52a6.12,6.12,0,0,1,1.65.2,4.82,4.82,0,0,1,1.24.63,3.35,3.35,0,0,1,.77,1.11,4.79,4.79,0,0,1,.27,1.65,3.48,3.48,0,0,1-.27,1.34,2.31,2.31,0,0,1-.7,1,2.55,2.55,0,0,1-1.14.67,4.18,4.18,0,0,1-1.52.24,3.62,3.62,0,0,1-1.37-.24,2.9,2.9,0,0,1-1.11-.64,2.94,2.94,0,0,1-.74-.94,2.9,2.9,0,0,1-.27-1.24h-4.73a6.26,6.26,0,0,0,.7,3.06,6.38,6.38,0,0,0,1.85,2.14,8,8,0,0,0,2.59,1.28,11.15,11.15,0,0,0,3,.4,11.66,11.66,0,0,0,3.36-.47,7.86,7.86,0,0,0,2.69-1.37,6.28,6.28,0,0,0,1.78-2.19,7.12,7.12,0,0,0,.64-3,5.59,5.59,0,0,0-4-5.58,8,8,0,0,0,1.54-1,7.72,7.72,0,0,0,1.15-1.21,6.59,6.59,0,0,0,.7-1.44,5.73,5.73,0,0,0,.24-1.52,7,7,0,0,0-.61-2.95A6,6,0,0,0,179.5,676a7.84,7.84,0,0,0-2.56-1.31,12.91,12.91,0,0,0-3.29-.43,10.09,10.09,0,0,0-3.05.47,8.31,8.31,0,0,0-2.49,1.31,6.7,6.7,0,0,0-1.68,2,6,6,0,0,0-.6,2.68h4.73a2.6,2.6,0,0,1,.27-1.11,2.57,2.57,0,0,1,.68-.84,2.77,2.77,0,0,1,1-.53,3.36,3.36,0,0,1,1.2-.2,3.68,3.68,0,0,1,1.45.23,2.69,2.69,0,0,1,1,.64,2.46,2.46,0,0,1,.6,1,3.61,3.61,0,0,1,.2,1.21,3.32,3.32,0,0,1-.87,2.39,3.64,3.64,0,0,1-2.69.9h-2.52Zm30.81,6.51H191.46l4.2-4.43c.81-.84,1.55-1.61,2.18-2.39a15.63,15.63,0,0,0,1.68-2.25,10.49,10.49,0,0,0,1-2.21A6.71,6.71,0,0,0,201,681a7.73,7.73,0,0,0-.51-2.85A5.71,5.71,0,0,0,199,676a6.75,6.75,0,0,0-2.42-1.34,11.29,11.29,0,0,0-3.35-.47,8.74,8.74,0,0,0-3.46.64,7.71,7.71,0,0,0-2.59,1.67,7.55,7.55,0,0,0-1.68,2.49,8.48,8.48,0,0,0-.57,3.06h4.77a4.76,4.76,0,0,1,.24-1.62,3.87,3.87,0,0,1,.63-1.27,3.14,3.14,0,0,1,1.11-.84,3.37,3.37,0,0,1,1.48-.3,2.91,2.91,0,0,1,2.28.9,3.67,3.67,0,0,1,.81,2.52,3,3,0,0,1-.17,1.08,6,6,0,0,1-.5,1.2,10,10,0,0,1-1,1.45,18.2,18.2,0,0,1-1.47,1.74l-7.73,8.23v3.26h16.39ZM214,686.3h-9.23v3.79H214Zm15.1-11.79h-.5l-9.88,3.56v3.83l5.64-1.75v18.27h4.74ZM251,698.42h5.84l-8.73-13.27,8.5-10.61h-6l-6.12,7.86-2.14,3V674.54h-4.94v23.88h4.94V691.6l2.55-2.75Z"></path><path class="cls-2" d="M56.17,725.41v17.73h2V731a9,9,0,0,1,.64-1.58,6.5,6.5,0,0,1,1-1.34,5.5,5.5,0,0,1,1.51-.94,4.83,4.83,0,0,1,1.95-.34,5.87,5.87,0,0,1,1.77.24,3.28,3.28,0,0,1,1.35.73,3.32,3.32,0,0,1,.9,1.45,6.77,6.77,0,0,1,.31,2.21v11.72h2V731.39a4.84,4.84,0,0,1,.4-1.58,6.2,6.2,0,0,1,1-1.47,5.47,5.47,0,0,1,1.61-1.11,4.83,4.83,0,0,1,2.15-.44,7.05,7.05,0,0,1,1.74.2,3.08,3.08,0,0,1,1.38.77,3.66,3.66,0,0,1,.91,1.48,7.55,7.55,0,0,1,.3,2.32v11.58h2V731.59a9.5,9.5,0,0,0-.37-3,5,5,0,0,0-1.14-2,4.31,4.31,0,0,0-1.85-1.17,7.69,7.69,0,0,0-2.45-.37,7.29,7.29,0,0,0-2,.27,6.83,6.83,0,0,0-1.68.7,5.91,5.91,0,0,0-1.38,1.11,7.72,7.72,0,0,0-1,1.34,4.71,4.71,0,0,0-2-2.62,6.67,6.67,0,0,0-3.35-.8,6.57,6.57,0,0,0-1.82.23,6.16,6.16,0,0,0-1.58.64,4.83,4.83,0,0,0-1.3,1,6.91,6.91,0,0,0-1,1.34l-.06-2.89ZM95,743.21a5.74,5.74,0,0,0,1.75-.67,6.14,6.14,0,0,0,1.34-1,9.19,9.19,0,0,0,1-1.25l-1.24-.9a5.8,5.8,0,0,1-2.19,1.81,6.17,6.17,0,0,1-2.78.57,5.63,5.63,0,0,1-2.49-.54,6,6,0,0,1-1.91-1.51,6.61,6.61,0,0,1-1.24-2.21,8.15,8.15,0,0,1-.44-2.76v-.37H99.52V733.2a11.24,11.24,0,0,0-.47-3.25,7.33,7.33,0,0,0-1.34-2.59,6.73,6.73,0,0,0-2.22-1.68,7,7,0,0,0-3-.6,6.56,6.56,0,0,0-2.89.64,7.8,7.8,0,0,0-2.41,1.81,8.23,8.23,0,0,0-1.68,2.82,10.69,10.69,0,0,0-.61,3.73v.7a9.58,9.58,0,0,0,.61,3.49A7.85,7.85,0,0,0,87.16,741a7.23,7.23,0,0,0,2.52,1.78,7.75,7.75,0,0,0,3.19.67,8.26,8.26,0,0,0,2.15-.27Zm-.34-16a5.23,5.23,0,0,1,1.58,1.27,6.1,6.1,0,0,1,.94,1.85,7.55,7.55,0,0,1,.37,2.18v.2H86.93a8.81,8.81,0,0,1,.64-2.45,6.19,6.19,0,0,1,1.17-1.88,6,6,0,0,1,1.68-1.24,5.32,5.32,0,0,1,2.08-.4,5,5,0,0,1,2.18.47Zm7.88,7.22a12.43,12.43,0,0,0,.47,3.66,9,9,0,0,0,1.34,2.85,6.78,6.78,0,0,0,2.15,1.85,6.24,6.24,0,0,0,2.85.67,7.07,7.07,0,0,0,3.29-.71,6.6,6.6,0,0,0,2.25-2l.07,2.35h1.85V718h-2v9.94a6.58,6.58,0,0,0-2.25-2.08,6.47,6.47,0,0,0-3.22-.74,6,6,0,0,0-2.86.64,6.34,6.34,0,0,0-2.18,1.81,9,9,0,0,0-1.34,2.85,12.74,12.74,0,0,0-.47,3.73Zm2-.34a13.28,13.28,0,0,1,.3-2.89,7.26,7.26,0,0,1,.94-2.31,4.45,4.45,0,0,1,1.65-1.55,4.36,4.36,0,0,1,2.35-.57,6.31,6.31,0,0,1,1.88.27,5.3,5.3,0,0,1,1.44.77,4.7,4.7,0,0,1,1,1.11,7.43,7.43,0,0,1,.74,1.31v8.33a7,7,0,0,1-.81,1.27,4.27,4.27,0,0,1-1.07,1,5.42,5.42,0,0,1-1.44.67,6.35,6.35,0,0,1-1.82.24,4.58,4.58,0,0,1-4-2.12,7.32,7.32,0,0,1-.94-2.32,12.93,12.93,0,0,1-.3-2.88Zm19.66-8.7h-2v17.73h2Zm-2-4.19a1.43,1.43,0,0,0,1,.37,1.38,1.38,0,0,0,1-.37,1.24,1.24,0,0,0,.37-.94,1.18,1.18,0,0,0-.37-.94,1.25,1.25,0,0,0-1-.41,1.3,1.3,0,0,0-1,.41,1.27,1.27,0,0,0-.34.94,1.33,1.33,0,0,0,.34.94Zm18.72,21.92h1.92V725.41h-2v12.83a7.61,7.61,0,0,1-.67,1.41,3.68,3.68,0,0,1-1.08,1.11,4.53,4.53,0,0,1-1.58.74,7.35,7.35,0,0,1-2.08.27,5,5,0,0,1-1.58-.24,3.27,3.27,0,0,1-1.31-.84,4.12,4.12,0,0,1-.87-1.51,8,8,0,0,1-.34-2.38V725.41h-1.94v11.35a9.33,9.33,0,0,0,.43,3.09,5.45,5.45,0,0,0,1.18,2.08,4.78,4.78,0,0,0,1.85,1.18,7.67,7.67,0,0,0,2.38.37,7.58,7.58,0,0,0,3.42-.71,5.63,5.63,0,0,0,2.22-1.88Zm6.87-17.73v17.73h2V731a9,9,0,0,1,.64-1.58,6.86,6.86,0,0,1,1-1.34,5.66,5.66,0,0,1,1.51-.94,4.86,4.86,0,0,1,2-.34,5.94,5.94,0,0,1,1.78.24,3.2,3.2,0,0,1,2.25,2.18,7.07,7.07,0,0,1,.3,2.21v11.72h2V731.39a4.84,4.84,0,0,1,.4-1.58,6.5,6.5,0,0,1,1-1.47,5.61,5.61,0,0,1,1.61-1.11,4.89,4.89,0,0,1,2.15-.44,7.2,7.2,0,0,1,1.75.2,3.1,3.1,0,0,1,1.37.77,3.46,3.46,0,0,1,.91,1.48,7.55,7.55,0,0,1,.3,2.32v11.58h1.95V731.59a9.5,9.5,0,0,0-.37-3,5,5,0,0,0-1.14-2,4.25,4.25,0,0,0-1.85-1.17,7.65,7.65,0,0,0-2.45-.37,7.34,7.34,0,0,0-2,.27,7,7,0,0,0-1.68.7,6.35,6.35,0,0,0-1.38,1.11,8.2,8.2,0,0,0-1,1.34,4.76,4.76,0,0,0-2-2.62,6.71,6.71,0,0,0-3.36-.8,6.45,6.45,0,0,0-1.81.23,6,6,0,0,0-1.58.64,4.87,4.87,0,0,0-1.31,1,6.5,6.5,0,0,0-1,1.34l-.07-2.89ZM187.73,718h-1.95v25.18h1.95V731a7.72,7.72,0,0,1,.77-1.55,5.47,5.47,0,0,1,1.11-1.37,5.66,5.66,0,0,1,1.51-.94,4.89,4.89,0,0,1,1.91-.34,5.74,5.74,0,0,1,1.75.24,2.87,2.87,0,0,1,1.31.77,3.88,3.88,0,0,1,.84,1.48,7.57,7.57,0,0,1,.3,2.31v11.55h2V731.59a10.07,10.07,0,0,0-.4-3,5.53,5.53,0,0,0-1.11-2,4.17,4.17,0,0,0-1.78-1.14,6.6,6.6,0,0,0-2.39-.37,6.34,6.34,0,0,0-1.78.23,5.83,5.83,0,0,0-1.57.68,6.56,6.56,0,0,0-1.35,1,7.2,7.2,0,0,0-1.07,1.37Zm15.39,16.59a11.17,11.17,0,0,0,.57,3.59A8.54,8.54,0,0,0,205.3,741a7.41,7.41,0,0,0,2.49,1.85,8.24,8.24,0,0,0,6.51,0,7.63,7.63,0,0,0,2.52-1.85,9,9,0,0,0,1.58-2.82,11.17,11.17,0,0,0,.57-3.59V734a11,11,0,0,0-.57-3.56,8.65,8.65,0,0,0-1.58-2.85,7.49,7.49,0,0,0-2.52-1.85,7.93,7.93,0,0,0-3.29-.67,7.55,7.55,0,0,0-5.74,2.52,8.65,8.65,0,0,0-1.58,2.85,11,11,0,0,0-.57,3.56Zm2-.54a9.32,9.32,0,0,1,.37-2.75,7.5,7.5,0,0,1,1.14-2.32,5.48,5.48,0,0,1,1.88-1.58,5.21,5.21,0,0,1,2.52-.6,5.47,5.47,0,0,1,2.59.6,5.31,5.31,0,0,1,1.88,1.58,7.5,7.5,0,0,1,1.14,2.32A9.34,9.34,0,0,1,217,734v.54a9.39,9.39,0,0,1-.4,2.78,7.5,7.5,0,0,1-1.14,2.32,6,6,0,0,1-1.88,1.58,5.24,5.24,0,0,1-2.55.57,5.36,5.36,0,0,1-2.56-.57,6.24,6.24,0,0,1-1.88-1.58,7.5,7.5,0,0,1-1.14-2.32,9.39,9.39,0,0,1-.37-2.78Zm26.14-8.73a3.55,3.55,0,0,0-.57-.13,4.53,4.53,0,0,0-.74-.07,5.1,5.1,0,0,0-3,.84,6,6,0,0,0-2,2.31l0-2.82H223v17.73h2V731a8.81,8.81,0,0,1,.67-1.61,4.8,4.8,0,0,1,1-1.24,4.16,4.16,0,0,1,1.41-.84,5.17,5.17,0,0,1,1.81-.3,7.58,7.58,0,0,1,1.31.1Zm5.23.13h-2v17.73h2Zm-2-4.19a1.44,1.44,0,0,0,1,.37,1.38,1.38,0,0,0,1-.37,1.24,1.24,0,0,0,.37-.94,1.18,1.18,0,0,0-.37-.94,1.25,1.25,0,0,0-1-.41,1.31,1.31,0,0,0-1,.41,1.27,1.27,0,0,0-.34.94,1.33,1.33,0,0,0,.34.94Zm19.4,5.64v-1.45H241v1.68H251.4L240.62,741.7v1.44h14V741.5H243.08Zm3.1,7.69a11.16,11.16,0,0,0,.58,3.59,8.2,8.2,0,0,0,1.61,2.82,7.27,7.27,0,0,0,2.48,1.85,8.27,8.27,0,0,0,6.52,0,7.69,7.69,0,0,0,2.51-1.85,8.83,8.83,0,0,0,1.58-2.82,11.17,11.17,0,0,0,.57-3.59V734a11,11,0,0,0-.57-3.56,8.47,8.47,0,0,0-1.58-2.85,7.55,7.55,0,0,0-2.51-1.85,8,8,0,0,0-3.3-.67,7.55,7.55,0,0,0-5.74,2.52,8.45,8.45,0,0,0-1.57,2.85A11,11,0,0,0,257,734Zm2-.54a9.66,9.66,0,0,1,.36-2.75,7.3,7.3,0,0,1,1.15-2.32,5.31,5.31,0,0,1,1.88-1.58,5.17,5.17,0,0,1,2.51-.6,5.47,5.47,0,0,1,2.59.6,5.31,5.31,0,0,1,1.88,1.58,7.5,7.5,0,0,1,1.14,2.32,9.34,9.34,0,0,1,.41,2.75v.54a9.39,9.39,0,0,1-.41,2.78,7.5,7.5,0,0,1-1.14,2.32,6,6,0,0,1-1.88,1.58,5.24,5.24,0,0,1-2.55.57,5.32,5.32,0,0,1-2.55-.57,6,6,0,0,1-1.88-1.58,7.3,7.3,0,0,1-1.15-2.32,9.72,9.72,0,0,1-.36-2.78Zm17.87-8.6v17.73h1.95V731a7.72,7.72,0,0,1,.77-1.55,5.34,5.34,0,0,1,2.62-2.31,4.9,4.9,0,0,1,1.92-.34,5.72,5.72,0,0,1,1.74.24,2.82,2.82,0,0,1,1.31.77,3.88,3.88,0,0,1,.84,1.48,7.57,7.57,0,0,1,.3,2.31v11.55h1.95V731.59a9.75,9.75,0,0,0-.4-3,5.53,5.53,0,0,0-1.11-2,4,4,0,0,0-1.78-1.14,6.54,6.54,0,0,0-2.38-.37,6.73,6.73,0,0,0-1.82.23,7.25,7.25,0,0,0-1.58.68,7,7,0,0,0-1.34,1.07,6.84,6.84,0,0,0-1,1.38l-.07-3Zm19.49-4.56v4.56h-3.25V727h3.25v11.82a6.77,6.77,0,0,0,.31,2.21,3.81,3.81,0,0,0,.8,1.41,2.57,2.57,0,0,0,1.21.77,4.62,4.62,0,0,0,1.55.24,11.48,11.48,0,0,0,1.17-.07,5.88,5.88,0,0,0,.94-.23l-.1-1.58-.74.1a7.58,7.58,0,0,1-.84,0,3.52,3.52,0,0,1-.87-.1,1.41,1.41,0,0,1-.74-.4,2,2,0,0,1-.5-.91,4.28,4.28,0,0,1-.21-1.47V727H302v-1.62h-3.66v-4.56Zm23,22.29v-.2c-.06-.2-.16-.43-.23-.74s-.1-.57-.17-.87-.07-.6-.1-.94,0-.64,0-.94v-8.6a6.35,6.35,0,0,0-.47-2.51,5,5,0,0,0-1.35-1.82,5.71,5.71,0,0,0-2-1.07,8.22,8.22,0,0,0-2.62-.37,8,8,0,0,0-2.79.44,7.74,7.74,0,0,0-2.15,1.17,5.39,5.39,0,0,0-1.37,1.68,3.78,3.78,0,0,0-.47,1.91l1.94,0a3,3,0,0,1,.37-1.41,3.88,3.88,0,0,1,1-1.15,4.34,4.34,0,0,1,1.51-.73,5.45,5.45,0,0,1,1.88-.31,4.76,4.76,0,0,1,3.42,1.11,3.85,3.85,0,0,1,1.18,3v2h-3.63a15.13,15.13,0,0,0-3.39.36,7.58,7.58,0,0,0-2.55,1.15,4.64,4.64,0,0,0-2.15,4.09,4.8,4.8,0,0,0,.4,2,4.74,4.74,0,0,0,1.14,1.62,5.47,5.47,0,0,0,1.82,1.07,7.62,7.62,0,0,0,2.35.37,8.6,8.6,0,0,0,2-.24,10.54,10.54,0,0,0,1.67-.6,6.39,6.39,0,0,0,1.35-.91,5.25,5.25,0,0,0,1-1.07c0,.47.07.91.13,1.38a4.78,4.78,0,0,0,.27,1.1Zm-9.9-1.68a3.82,3.82,0,0,1-1.28-.73,3.55,3.55,0,0,1-1.07-2.46,3.42,3.42,0,0,1,.43-1.64,3.55,3.55,0,0,1,1.28-1.24,6.16,6.16,0,0,1,2-.78,11,11,0,0,1,2.69-.26h3.36v3.89a6.27,6.27,0,0,1-.87,1.38,7.35,7.35,0,0,1-1.28,1.11,6.32,6.32,0,0,1-1.65.73,7.29,7.29,0,0,1-2,.27,4.9,4.9,0,0,1-1.64-.27Zm16.8-23.5h-2v25.18h2Z"></path><path class="cls-2" d="M163.34,764h-2v23.87h2Zm14.59,14.13a11.07,11.07,0,0,0,3.5-.47,7,7,0,0,0,2.51-1.37,5.85,5.85,0,0,0,1.52-2.19,8.44,8.44,0,0,0,.5-3,7.93,7.93,0,0,0-.5-2.85,6,6,0,0,0-1.55-2.28,7,7,0,0,0-2.52-1.45,9.83,9.83,0,0,0-3.46-.53h-8.12v23.87h2v-9.74Zm-6.11-12.42h6.11a8.55,8.55,0,0,1,2.76.43,5.72,5.72,0,0,1,1.84,1.18,4.41,4.41,0,0,1,1.08,1.75,6.38,6.38,0,0,1,.33,2.08,6,6,0,0,1-.33,2.08,4,4,0,0,1-1.08,1.68,4.68,4.68,0,0,1-1.84,1.14,8.33,8.33,0,0,1-2.76.4h-6.11ZM201,763.83a12.3,12.3,0,0,0-5,.94,9.66,9.66,0,0,0-3.56,2.75,12.13,12.13,0,0,0-2.12,4.27,20.13,20.13,0,0,0-.7,5.54v2.11a10.08,10.08,0,0,0,.53,3.39,8.17,8.17,0,0,0,1.55,2.79,6.63,6.63,0,0,0,2.41,1.88,7.35,7.35,0,0,0,3.23.7,7,7,0,0,0,3-.63,7,7,0,0,0,2.25-1.72,8.05,8.05,0,0,0,1.41-2.58,10.9,10.9,0,0,0,.47-3.22,9.79,9.79,0,0,0-.43-3,7.15,7.15,0,0,0-1.28-2.52,6.36,6.36,0,0,0-5.17-2.35,8,8,0,0,0-3.39.74,6.27,6.27,0,0,0-2.52,2.15,12.36,12.36,0,0,1,.81-4,8.76,8.76,0,0,1,1.88-3,8.11,8.11,0,0,1,2.88-1.91,10.36,10.36,0,0,1,3.83-.64h.3v-1.71Zm-1.48,10.54a4.72,4.72,0,0,1,1.62,1.38,6.15,6.15,0,0,1,1,2,9.12,9.12,0,0,1,.31,2.38,8.71,8.71,0,0,1-.34,2.49,6.65,6.65,0,0,1-1,2,5.25,5.25,0,0,1-1.64,1.37,4.41,4.41,0,0,1-2.15.51,5.63,5.63,0,0,1-2.25-.47,5.31,5.31,0,0,1-1.81-1.41,6.65,6.65,0,0,1-1.25-2.22,9,9,0,0,1-.43-3v-1.61a4.18,4.18,0,0,1,.77-1.57,5.56,5.56,0,0,1,1.31-1.25,5.88,5.88,0,0,1,1.68-.84,6,6,0,0,1,1.88-.33,5.16,5.16,0,0,1,2.31.5Zm11.67,1.71a7.62,7.62,0,0,1,.87-.7,3.78,3.78,0,0,1,1-.54,6.12,6.12,0,0,1,1.21-.37,9.71,9.71,0,0,1,1.51-.1,5.65,5.65,0,0,1,2.32.44,4.58,4.58,0,0,1,1.71,1.24,5.28,5.28,0,0,1,1,1.91,6.46,6.46,0,0,1,.37,2.32,7.17,7.17,0,0,1-1.31,4.63,4.65,4.65,0,0,1-3.86,1.62,5.21,5.21,0,0,1-3.69-1.25,5.68,5.68,0,0,1-1.68-3.69h-1.88a8.52,8.52,0,0,0,.77,2.92,6.4,6.4,0,0,0,3.79,3.29,8.8,8.8,0,0,0,2.69.4,7.91,7.91,0,0,0,3.22-.6,6.4,6.4,0,0,0,2.22-1.64,6.81,6.81,0,0,0,1.27-2.52,10.43,10.43,0,0,0,.44-3.19,9.62,9.62,0,0,0-.5-3.19,7.23,7.23,0,0,0-1.45-2.42A6.32,6.32,0,0,0,219,773.1a7.66,7.66,0,0,0-2.88-.54,10,10,0,0,0-1.41.13c-.47.1-.88.2-1.28.3a10.82,10.82,0,0,0-1,.44c-.3.17-.54.3-.74.44l.81-8.06h10.27V764H210.77l-1.18,11.65Z"></path><path class="cls-2" d="M140.13,886.31h-.5l-9.87,3.55v3.83L135.4,892v18.26h4.73Zm22.75,3.52a5.11,5.11,0,0,0-1.58-2.08,6.77,6.77,0,0,0-2.38-1.31,10.6,10.6,0,0,0-3-.44,11,11,0,0,0-3,.44,7.19,7.19,0,0,0-2.39,1.31,5.78,5.78,0,0,0-1.57,2.08,6.87,6.87,0,0,0-.54,2.85,5.59,5.59,0,0,0,.84,3.09,6.12,6.12,0,0,0,2.38,2.15,6.71,6.71,0,0,0-2.72,2.29,5.79,5.79,0,0,0-1,3.45,6.37,6.37,0,0,0,.64,3,6.12,6.12,0,0,0,1.68,2.15,7.85,7.85,0,0,0,2.58,1.31,11.93,11.93,0,0,0,6.42,0,8,8,0,0,0,2.55-1.31,6.24,6.24,0,0,0,1.68-2.15,6.91,6.91,0,0,0,.6-3,6,6,0,0,0-1-3.45,7.11,7.11,0,0,0-2.76-2.29,6.08,6.08,0,0,0,2.39-2.15,5.61,5.61,0,0,0,.87-3.09,6.87,6.87,0,0,0-.57-2.85Zm-4.57,16a3.14,3.14,0,0,1-2.42.91,3.72,3.72,0,0,1-1.37-.23,2.92,2.92,0,0,1-1.71-1.75,3.59,3.59,0,0,1-.24-1.41,3.85,3.85,0,0,1,.24-1.44,2.59,2.59,0,0,1,.67-1.08,2.79,2.79,0,0,1,1-.67,3.37,3.37,0,0,1,1.34-.24,3.61,3.61,0,0,1,1.38.24,2.87,2.87,0,0,1,1,.67,3.23,3.23,0,0,1,.67,1.08,3.86,3.86,0,0,1,.23,1.44,3.32,3.32,0,0,1-.87,2.48ZM158,895.2a2.91,2.91,0,0,1-4.17,0,3.35,3.35,0,0,1-.74-2.28,3.29,3.29,0,0,1,.74-2.28,2.69,2.69,0,0,1,2.08-.81,2.66,2.66,0,0,1,2.09.84,3.42,3.42,0,0,1,.73,2.25,3.5,3.5,0,0,1-.73,2.28Zm14,4.67h2.52a6.46,6.46,0,0,1,1.64.2,4.68,4.68,0,0,1,1.24.64,3.18,3.18,0,0,1,.78,1.11,5,5,0,0,1,.27,1.64,3.78,3.78,0,0,1-.27,1.35,2.31,2.31,0,0,1-.71,1,2.56,2.56,0,0,1-1.14.68,4.4,4.4,0,0,1-1.51.23,3.92,3.92,0,0,1-1.38-.23,3.2,3.2,0,0,1-1.11-.64,2.78,2.78,0,0,1-.73-.94,2.94,2.94,0,0,1-.27-1.25h-4.74a6.23,6.23,0,0,0,.71,3.06,6.39,6.39,0,0,0,1.84,2.15,8.36,8.36,0,0,0,2.59,1.28,11.58,11.58,0,0,0,3,.4,12,12,0,0,0,3.36-.47,7.66,7.66,0,0,0,2.68-1.38,6.22,6.22,0,0,0,1.78-2.18,7.13,7.13,0,0,0,.64-3,5.87,5.87,0,0,0-1-3.42,5.81,5.81,0,0,0-3-2.15,8.15,8.15,0,0,0,1.55-1,7.65,7.65,0,0,0,1.14-1.21,6.64,6.64,0,0,0,.71-1.44,6.07,6.07,0,0,0,.23-1.51,7,7,0,0,0-.6-3,6,6,0,0,0-1.65-2.11,7.6,7.6,0,0,0-2.55-1.31,12.52,12.52,0,0,0-3.29-.44,10.11,10.11,0,0,0-3.06.47,8.6,8.6,0,0,0-2.48,1.31,6.55,6.55,0,0,0-1.68,2.05,6,6,0,0,0-.61,2.69h4.74a2.4,2.4,0,0,1,.27-1.11,2.35,2.35,0,0,1,.67-.84,2.72,2.72,0,0,1,1-.54,3.61,3.61,0,0,1,1.21-.2,3.65,3.65,0,0,1,1.44.24,2.59,2.59,0,0,1,1,.63,2.32,2.32,0,0,1,.6,1,3.38,3.38,0,0,1,.21,1.21,3.31,3.31,0,0,1-.88,2.38,3.6,3.6,0,0,1-2.68.91H172Zm30.8,6.51H192.49l4.2-4.43c.8-.84,1.54-1.61,2.18-2.38a16.41,16.41,0,0,0,1.68-2.25,11.67,11.67,0,0,0,1-2.22,6.68,6.68,0,0,0,.4-2.31,8,8,0,0,0-.5-2.86,5.67,5.67,0,0,0-1.51-2.11,6.92,6.92,0,0,0-2.42-1.35,11.31,11.31,0,0,0-3.36-.47,8.78,8.78,0,0,0-3.46.64,7.54,7.54,0,0,0-2.58,1.68,7.27,7.27,0,0,0-1.68,2.48,8.56,8.56,0,0,0-.57,3.06h4.77a4.75,4.75,0,0,1,.23-1.61,3.67,3.67,0,0,1,.64-1.28,3,3,0,0,1,1.11-.84,3.29,3.29,0,0,1,1.47-.3,2.9,2.9,0,0,1,2.29.91,3.68,3.68,0,0,1,.8,2.52,3.2,3.2,0,0,1-.16,1.07,6.2,6.2,0,0,1-.51,1.21,9.33,9.33,0,0,1-1,1.44,21.67,21.67,0,0,1-1.48,1.75L186.38,907v3.25h16.38Zm12.31-8.29h-9.24v3.8h9.24Zm15.09-11.78h-.5l-9.87,3.55v3.83l5.64-1.74v18.26h4.73Zm12.58,13.56h2.51a6.49,6.49,0,0,1,1.65.2,4.84,4.84,0,0,1,1.24.64,3.16,3.16,0,0,1,.77,1.11,4.77,4.77,0,0,1,.27,1.64,3.57,3.57,0,0,1-.27,1.35,2.29,2.29,0,0,1-.7,1,2.56,2.56,0,0,1-1.14.68,4.4,4.4,0,0,1-1.51.23,3.88,3.88,0,0,1-1.38-.23,3,3,0,0,1-1.11-.64,2.75,2.75,0,0,1-1-2.19h-4.73a6.23,6.23,0,0,0,.7,3.06,6.42,6.42,0,0,0,1.85,2.15,8.25,8.25,0,0,0,2.59,1.28,11.58,11.58,0,0,0,3,.4,12,12,0,0,0,3.35-.47,7.71,7.71,0,0,0,2.69-1.38,6.33,6.33,0,0,0,1.78-2.18,7.13,7.13,0,0,0,.64-3,5.59,5.59,0,0,0-4-5.57,7,7,0,0,0,2.69-2.19,6.59,6.59,0,0,0,.7-1.44,5.66,5.66,0,0,0,.24-1.51,6.87,6.87,0,0,0-.61-3,6,6,0,0,0-1.64-2.11,7.69,7.69,0,0,0-2.55-1.31,12.58,12.58,0,0,0-3.29-.44,10.11,10.11,0,0,0-3.06.47,8.6,8.6,0,0,0-2.48,1.31,6.42,6.42,0,0,0-1.68,2.05,5.88,5.88,0,0,0-.61,2.69h4.74a2.52,2.52,0,0,1,.26-1.11,2.38,2.38,0,0,1,.68-.84,2.65,2.65,0,0,1,1-.54,3.61,3.61,0,0,1,1.21-.2,3.65,3.65,0,0,1,1.44.24,2.67,2.67,0,0,1,1,.63,2.32,2.32,0,0,1,.6,1,3.38,3.38,0,0,1,.2,1.21,3.3,3.3,0,0,1-.87,2.38,3.63,3.63,0,0,1-2.69.91h-2.51Z"></path><path class="cls-2" d="M56.17,937.21v17.73h2V942.78a9.24,9.24,0,0,1,.64-1.57,6.56,6.56,0,0,1,1-1.35,5.75,5.75,0,0,1,1.51-.94,5,5,0,0,1,1.95-.33,5.88,5.88,0,0,1,1.77.23,3.3,3.3,0,0,1,1.35.74,3.35,3.35,0,0,1,.9,1.44,6.87,6.87,0,0,1,.31,2.22v11.72h2V943.19a4.78,4.78,0,0,1,.4-1.58,6.25,6.25,0,0,1,1-1.48A5.47,5.47,0,0,1,72.62,939a4.83,4.83,0,0,1,2.15-.43,6.6,6.6,0,0,1,1.74.2,2.9,2.9,0,0,1,1.38.77A3.66,3.66,0,0,1,78.8,941a7.44,7.44,0,0,1,.3,2.31v11.59h2V943.39a9.61,9.61,0,0,0-.37-3,4.89,4.89,0,0,0-1.14-2,4.33,4.33,0,0,0-1.85-1.18,8,8,0,0,0-2.45-.37,7.29,7.29,0,0,0-2,.27,6.85,6.85,0,0,0-1.68.71A5.91,5.91,0,0,0,70.2,939a7.72,7.72,0,0,0-1,1.34,4.65,4.65,0,0,0-2-2.62,6.57,6.57,0,0,0-3.35-.81,6.21,6.21,0,0,0-1.82.24,5.82,5.82,0,0,0-1.58.64,4.79,4.79,0,0,0-1.3,1,7,7,0,0,0-1,1.35l-.06-2.89ZM95,955a5.75,5.75,0,0,0,1.75-.68,5.55,5.55,0,0,0,1.34-1,9.12,9.12,0,0,0,1-1.24l-1.24-.91A5.8,5.8,0,0,1,95.72,953a6,6,0,0,1-2.78.58,5.63,5.63,0,0,1-2.49-.54,6.09,6.09,0,0,1-1.91-1.51,6.76,6.76,0,0,1-1.24-2.22,8.09,8.09,0,0,1-.44-2.75v-.37H99.52V945a11.31,11.31,0,0,0-.47-3.26,7.37,7.37,0,0,0-1.34-2.58,6.47,6.47,0,0,0-2.22-1.68,7,7,0,0,0-3-.61,6.7,6.7,0,0,0-2.89.64,8,8,0,0,0-2.41,1.81,8.37,8.37,0,0,0-1.68,2.83,10.63,10.63,0,0,0-.61,3.72v.71a9.62,9.62,0,0,0,.61,3.49,7.9,7.9,0,0,0,1.64,2.75,7,7,0,0,0,2.52,1.78,7.59,7.59,0,0,0,3.19.67A8.73,8.73,0,0,0,95,955Zm-.34-16a5.26,5.26,0,0,1,1.58,1.28,6,6,0,0,1,.94,1.85,7.49,7.49,0,0,1,.37,2.18v.2H86.93a8.72,8.72,0,0,1,.64-2.45,6.07,6.07,0,0,1,1.17-1.88A5.8,5.8,0,0,1,90.42,939a5.32,5.32,0,0,1,2.08-.41,5,5,0,0,1,2.18.47Zm7.88,7.22a12.43,12.43,0,0,0,.47,3.66,9,9,0,0,0,1.34,2.86,6.62,6.62,0,0,0,2.15,1.84,6.11,6.11,0,0,0,2.85.67,7.08,7.08,0,0,0,3.29-.7,6.6,6.6,0,0,0,2.25-2l.07,2.35h1.85V929.76h-2v9.93a6.68,6.68,0,0,0-2.25-2.08,6.57,6.57,0,0,0-3.22-.74,6.15,6.15,0,0,0-2.86.64,6.45,6.45,0,0,0-2.18,1.81,9,9,0,0,0-1.34,2.86,12.74,12.74,0,0,0-.47,3.73Zm2-.33a13.22,13.22,0,0,1,.3-2.89,7.32,7.32,0,0,1,.94-2.32,4.5,4.5,0,0,1,1.65-1.54,4.27,4.27,0,0,1,2.35-.57,6.67,6.67,0,0,1,1.88.26,5.31,5.31,0,0,1,1.44.78,4.34,4.34,0,0,1,1,1.11,7,7,0,0,1,.74,1.3v8.33a7,7,0,0,1-.81,1.28,4.22,4.22,0,0,1-1.07,1,5.15,5.15,0,0,1-1.44.68,6.73,6.73,0,0,1-1.82.23,4.6,4.6,0,0,1-4-2.11,7.32,7.32,0,0,1-.94-2.32,13,13,0,0,1-.3-2.89Zm19.66-8.7h-2v17.73h2Zm-2-4.2a1.38,1.38,0,0,0,1,.37,1.34,1.34,0,0,0,1-.37,1.24,1.24,0,0,0,.37-.94,1.19,1.19,0,0,0-.37-.94,1.25,1.25,0,0,0-1-.4,1.27,1.27,0,0,0-1.34,1.34,1.33,1.33,0,0,0,.34.94Zm18.72,21.93h1.92V937.21h-2V950a7.61,7.61,0,0,1-.67,1.41,3.77,3.77,0,0,1-1.08,1.1,4.36,4.36,0,0,1-1.58.74,7.35,7.35,0,0,1-2.08.27,5.25,5.25,0,0,1-1.58-.23,3.38,3.38,0,0,1-1.31-.84,4.2,4.2,0,0,1-.87-1.51,8.07,8.07,0,0,1-.34-2.39V937.21h-1.94v11.35a9.33,9.33,0,0,0,.43,3.09,5.53,5.53,0,0,0,1.18,2.08,4.64,4.64,0,0,0,1.85,1.17,7.38,7.38,0,0,0,2.38.37,7.58,7.58,0,0,0,3.42-.7,5.8,5.8,0,0,0,2.22-1.88Zm6.87-17.73v17.73h2V942.78a9.24,9.24,0,0,1,.64-1.57,6.93,6.93,0,0,1,1-1.35,5.92,5.92,0,0,1,1.51-.94,5,5,0,0,1,2-.33,6,6,0,0,1,1.78.23,3.33,3.33,0,0,1,1.34.74A3.36,3.36,0,0,1,159,941a7.18,7.18,0,0,1,.3,2.22v11.72h2V943.19a4.78,4.78,0,0,1,.4-1.58,6.57,6.57,0,0,1,1-1.48,5.61,5.61,0,0,1,1.61-1.11,4.89,4.89,0,0,1,2.15-.43,6.74,6.74,0,0,1,1.75.2,2.92,2.92,0,0,1,1.37.77,3.46,3.46,0,0,1,.91,1.48,7.44,7.44,0,0,1,.3,2.31v11.59h1.95V943.39a9.61,9.61,0,0,0-.37-3,4.89,4.89,0,0,0-1.14-2,4.27,4.27,0,0,0-1.85-1.18,7.94,7.94,0,0,0-2.45-.37,7.34,7.34,0,0,0-2,.27,7,7,0,0,0-1.68.71,6.35,6.35,0,0,0-1.38,1.11,8.2,8.2,0,0,0-1,1.34,4.69,4.69,0,0,0-2-2.62,6.61,6.61,0,0,0-3.36-.81,6.1,6.1,0,0,0-1.81.24,5.69,5.69,0,0,0-1.58.64,4.84,4.84,0,0,0-1.31,1,6.56,6.56,0,0,0-1,1.35l-.07-2.89Zm39.92-7.45h-1.95v25.18h1.95V942.78a7.64,7.64,0,0,1,.77-1.54,5.52,5.52,0,0,1,1.11-1.38,5.92,5.92,0,0,1,1.51-.94,5.07,5.07,0,0,1,1.91-.33,5.75,5.75,0,0,1,1.75.23,3,3,0,0,1,1.31.77,4,4,0,0,1,.84,1.48,7.69,7.69,0,0,1,.3,2.32v11.55h2V943.39a10,10,0,0,0-.4-3,5.58,5.58,0,0,0-1.11-2,4.36,4.36,0,0,0-1.78-1.14,6.6,6.6,0,0,0-2.39-.37,6,6,0,0,0-1.78.24,6.14,6.14,0,0,0-1.57.67,6.79,6.79,0,0,0-2.42,2.42Zm15.39,16.58a11.23,11.23,0,0,0,.57,3.6,8.54,8.54,0,0,0,1.61,2.82,7.25,7.25,0,0,0,2.49,1.84,8.24,8.24,0,0,0,6.51,0,7.46,7.46,0,0,0,2.52-1.84,9,9,0,0,0,1.58-2.82,11.23,11.23,0,0,0,.57-3.6v-.53a10.94,10.94,0,0,0-.57-3.56,8.8,8.8,0,0,0-1.58-2.86,7.46,7.46,0,0,0-2.52-1.84,7.93,7.93,0,0,0-3.29-.68,7.64,7.64,0,0,0-5.74,2.52,8.8,8.8,0,0,0-1.58,2.86,10.94,10.94,0,0,0-.57,3.56Zm2-.53a9.39,9.39,0,0,1,.37-2.76,7.56,7.56,0,0,1,1.14-2.31,5.38,5.38,0,0,1,1.88-1.58,5.11,5.11,0,0,1,2.52-.61,5.36,5.36,0,0,1,2.59.61,5.21,5.21,0,0,1,1.88,1.58,7.56,7.56,0,0,1,1.14,2.31,9.4,9.4,0,0,1,.4,2.76v.53a9.41,9.41,0,0,1-.4,2.79,7.73,7.73,0,0,1-1.14,2.32A6.11,6.11,0,0,1,213.6,953a5.13,5.13,0,0,1-2.55.58,5.25,5.25,0,0,1-2.56-.58,6.36,6.36,0,0,1-1.88-1.57,7.73,7.73,0,0,1-1.14-2.32,9.41,9.41,0,0,1-.37-2.79Zm26.14-8.73a2.6,2.6,0,0,0-.57-.14,6,6,0,0,0-.74-.07,5.1,5.1,0,0,0-3,.84,6.08,6.08,0,0,0-2,2.32l0-2.82H223v17.73h2V942.75a8.52,8.52,0,0,1,.67-1.61,4.64,4.64,0,0,1,1-1.24,4.16,4.16,0,0,1,1.41-.84,5,5,0,0,1,1.81-.31,8.73,8.73,0,0,1,1.31.1Zm5.23.13h-2v17.73h2Zm-2-4.2a1.4,1.4,0,0,0,1,.37,1.34,1.34,0,0,0,1-.37,1.24,1.24,0,0,0,.37-.94,1.19,1.19,0,0,0-.37-.94,1.25,1.25,0,0,0-1-.4,1.3,1.3,0,0,0-1,.4,1.28,1.28,0,0,0-.34.94,1.33,1.33,0,0,0,.34.94Zm19.4,5.64v-1.44H241v1.68H251.4l-10.78,14.6v1.45h14v-1.65H243.08Zm3.1,7.69a11.23,11.23,0,0,0,.58,3.6,8.2,8.2,0,0,0,1.61,2.82,7.12,7.12,0,0,0,2.48,1.84,8.27,8.27,0,0,0,6.52,0,7.52,7.52,0,0,0,2.51-1.84,8.83,8.83,0,0,0,1.58-2.82,11.23,11.23,0,0,0,.57-3.6v-.53a10.94,10.94,0,0,0-.57-3.56,8.62,8.62,0,0,0-1.58-2.86,7.52,7.52,0,0,0-2.51-1.84,8,8,0,0,0-3.3-.68,7.77,7.77,0,0,0-3.22.68,7.66,7.66,0,0,0-2.52,1.84,8.6,8.6,0,0,0-1.57,2.86,10.93,10.93,0,0,0-.58,3.56Zm2-.53a9.73,9.73,0,0,1,.36-2.76,7.36,7.36,0,0,1,1.15-2.31,5.21,5.21,0,0,1,1.88-1.58,5.07,5.07,0,0,1,2.51-.61,5.36,5.36,0,0,1,2.59.61,5.21,5.21,0,0,1,1.88,1.58,7.56,7.56,0,0,1,1.14,2.31,9.41,9.41,0,0,1,.41,2.76v.53a9.41,9.41,0,0,1-.41,2.79,7.73,7.73,0,0,1-1.14,2.32,6.11,6.11,0,0,1-1.88,1.57,5.13,5.13,0,0,1-2.55.58,5.21,5.21,0,0,1-2.55-.58,6.11,6.11,0,0,1-1.88-1.57,7.52,7.52,0,0,1-1.15-2.32,9.75,9.75,0,0,1-.36-2.79Zm17.87-8.6v17.73h1.95V942.78a7.64,7.64,0,0,1,.77-1.54,5.75,5.75,0,0,1,1.11-1.38,5.92,5.92,0,0,1,1.51-.94,5.09,5.09,0,0,1,1.92-.33,5.72,5.72,0,0,1,1.74.23,2.91,2.91,0,0,1,1.31.77,4,4,0,0,1,.84,1.48,7.69,7.69,0,0,1,.3,2.32v11.55h1.95V943.39a9.71,9.71,0,0,0-.4-3,5.58,5.58,0,0,0-1.11-2,4.23,4.23,0,0,0-1.78-1.14,6.54,6.54,0,0,0-2.38-.37,6.35,6.35,0,0,0-1.82.24,7.72,7.72,0,0,0-1.58.67,7,7,0,0,0-1.34,1.07,7.45,7.45,0,0,0-1,1.38l-.07-3Zm19.49-4.57v4.57h-3.25v1.61h3.25v11.82a6.87,6.87,0,0,0,.31,2.22,3.89,3.89,0,0,0,.8,1.41,2.65,2.65,0,0,0,1.21.77,4.62,4.62,0,0,0,1.55.23c.4,0,.77,0,1.17-.06a5.81,5.81,0,0,0,.94-.24l-.1-1.58c-.2,0-.47.07-.74.1a5.7,5.7,0,0,1-.84,0,4.07,4.07,0,0,1-.87-.1A1.43,1.43,0,0,1,299,953a1.89,1.89,0,0,1-.5-.9,4.34,4.34,0,0,1-.21-1.48V938.82H302v-1.61h-3.66v-4.57Zm23,22.3v-.2c-.06-.2-.16-.44-.23-.74s-.1-.57-.17-.87-.07-.61-.1-1,0-.63,0-.94v-8.59a6.44,6.44,0,0,0-.47-2.52,5,5,0,0,0-1.35-1.81,5.89,5.89,0,0,0-2-1.08,9.25,9.25,0,0,0-5.41.07,7.76,7.76,0,0,0-2.15,1.18,5.47,5.47,0,0,0-1.37,1.67,3.84,3.84,0,0,0-.47,1.92l1.94,0a3,3,0,0,1,.37-1.41,4,4,0,0,1,1-1.14,4.53,4.53,0,0,1,1.51-.74,5.7,5.7,0,0,1,1.88-.3,4.76,4.76,0,0,1,3.42,1.11,3.83,3.83,0,0,1,1.18,3v2h-3.63a14.54,14.54,0,0,0-3.39.37,7.77,7.77,0,0,0-2.55,1.14,5,5,0,0,0-1.61,1.75,5.25,5.25,0,0,0-.14,4.33,4.7,4.7,0,0,0,1.14,1.61,5.31,5.31,0,0,0,1.82,1.07,7.33,7.33,0,0,0,2.35.37,9.22,9.22,0,0,0,2-.23,10.54,10.54,0,0,0,1.67-.61,6,6,0,0,0,1.35-.9,5.29,5.29,0,0,0,1-1.08c0,.47.07.91.13,1.38a4.75,4.75,0,0,0,.27,1.11Zm-9.9-1.68a4,4,0,0,1-1.28-.74,2.92,2.92,0,0,1-.77-1.11,3,3,0,0,1-.3-1.34,3.46,3.46,0,0,1,.43-1.65,3.63,3.63,0,0,1,1.28-1.24,6.39,6.39,0,0,1,2-.77,11,11,0,0,1,2.69-.27h3.36V950a6,6,0,0,1-.87,1.37,7,7,0,0,1-1.28,1.11,6.69,6.69,0,0,1-1.65.74,7.29,7.29,0,0,1-2,.27,4.9,4.9,0,0,1-1.64-.27Zm16.8-23.5h-2v25.18h2Z"></path><path class="cls-2" d="M163.34,975.79h-2v23.87h2Zm14.59,14.14a11.36,11.36,0,0,0,3.5-.47,7.19,7.19,0,0,0,2.51-1.38,5.74,5.74,0,0,0,1.52-2.18,8.48,8.48,0,0,0,.5-3,7.93,7.93,0,0,0-.5-2.85,6.08,6.08,0,0,0-1.55-2.29,7,7,0,0,0-2.52-1.44,9.82,9.82,0,0,0-3.46-.54h-8.12v23.87h2v-9.73Zm-6.11-12.43h6.11a8.27,8.27,0,0,1,2.76.44,5.54,5.54,0,0,1,1.84,1.17,4.55,4.55,0,0,1,1.08,1.75,6.42,6.42,0,0,1,.33,2.08,5.94,5.94,0,0,1-.33,2.08,4,4,0,0,1-1.08,1.68,4.59,4.59,0,0,1-1.84,1.15,8.6,8.6,0,0,1-2.76.4h-6.11ZM204.64,998H192.12l6.65-7.52c.6-.71,1.17-1.41,1.74-2.12a16.75,16.75,0,0,0,1.51-2.15,9.44,9.44,0,0,0,1-2.18,6.23,6.23,0,0,0,.41-2.18,7.42,7.42,0,0,0-.47-2.69,5.53,5.53,0,0,0-1.41-2,5.87,5.87,0,0,0-2.19-1.28,9.72,9.72,0,0,0-2.88-.43,8,8,0,0,0-3.09.57,7,7,0,0,0-2.32,1.57,6.91,6.91,0,0,0-1.44,2.29,7.62,7.62,0,0,0-.51,2.78h2a5.87,5.87,0,0,1,.4-2.21,5.09,5.09,0,0,1,1.08-1.75,4.21,4.21,0,0,1,1.68-1.14,5.41,5.41,0,0,1,2.25-.44,6.19,6.19,0,0,1,2.14.37,4.09,4.09,0,0,1,1.55,1,4,4,0,0,1,.94,1.55,5.53,5.53,0,0,1,.34,2,5.67,5.67,0,0,1-.21,1.51,8,8,0,0,1-.67,1.64,14.93,14.93,0,0,1-1.24,1.85c-.5.67-1.11,1.41-1.85,2.25l-7.82,8.86v1.51h14.94Zm18.05-12.36a17.78,17.78,0,0,0-.51-4.53,9.6,9.6,0,0,0-1.44-3.19,5.91,5.91,0,0,0-2.32-1.85,7.87,7.87,0,0,0-6.17,0,5.91,5.91,0,0,0-2.32,1.85,9.61,9.61,0,0,0-1.45,3.19,20,20,0,0,0-.47,4.53v4.07a17.78,17.78,0,0,0,.51,4.53,8.79,8.79,0,0,0,1.44,3.22,5.9,5.9,0,0,0,2.32,1.88,7.78,7.78,0,0,0,6.18,0,5.59,5.59,0,0,0,2.28-1.88,8.79,8.79,0,0,0,1.44-3.22,17.78,17.78,0,0,0,.51-4.53Zm-2,4.27a16.22,16.22,0,0,1-.34,3.59,7.91,7.91,0,0,1-1,2.62,4.39,4.39,0,0,1-1.68,1.64,4.8,4.8,0,0,1-6.42-1.64,8.63,8.63,0,0,1-1-2.62,16.22,16.22,0,0,1-.34-3.59v-4.5a11.48,11.48,0,0,1,1.34-6.18,4.89,4.89,0,0,1,8.06,0c.91,1.38,1.35,3.46,1.35,6.18Z"></path><path class="cls-3" d="M123,559.16H275.32m55.42-336.62v289.2"></path><path d="M357.86,378v2.57l13.22,8.53h1.43v-8.69h4.42V378h-4.42v-2.66h-2V378Zm3.84,2.71-.51-.3h9.33v6ZM375,360.64v9.57l-5.55-5.09c-2.58-2.42-4.83-3.6-6.71-3.6a4.79,4.79,0,0,0-3.7,1.53,6,6,0,0,0-1.4,4.21,6.16,6.16,0,0,0,1.64,4.53,5.49,5.49,0,0,0,4.24,1.72v-2.44a4,4,0,0,1-2.87-1,3.82,3.82,0,0,1-1-2.82,3.19,3.19,0,0,1,1-2.41A3.42,3.42,0,0,1,363,364a4.6,4.6,0,0,1,2.15.54,14.75,14.75,0,0,1,2.71,2l7.35,6.6h1.74v-12.5Z"></path><path d="M198.16,600h-9.57l5.09-5.55c2.42-2.58,3.6-4.83,3.6-6.71a4.79,4.79,0,0,0-1.53-3.7,6,6,0,0,0-4.21-1.4A6.16,6.16,0,0,0,187,584.3a5.49,5.49,0,0,0-1.72,4.24h2.44a4,4,0,0,1,1-2.87,3.82,3.82,0,0,1,2.82-1,3.19,3.19,0,0,1,2.41,1,3.42,3.42,0,0,1,.89,2.44,4.6,4.6,0,0,1-.54,2.15,14.3,14.3,0,0,1-2,2.71l-6.59,7.35V602h12.49Zm15.09,0h-9.58l5.1-5.55c2.41-2.58,3.59-4.83,3.59-6.71a4.79,4.79,0,0,0-1.53-3.7,6,6,0,0,0-4.21-1.4,6.18,6.18,0,0,0-4.53,1.64,5.49,5.49,0,0,0-1.72,4.24h2.44a4,4,0,0,1,1-2.87,3.82,3.82,0,0,1,2.82-1,3.19,3.19,0,0,1,2.41,1,3.42,3.42,0,0,1,.89,2.44,4.6,4.6,0,0,1-.54,2.15,14.3,14.3,0,0,1-2,2.71l-6.59,7.35V602h12.5Z"></path><polygon class="cls-1" points="205.22 495.03 124.66 495.03 124.66 224.22 205.22 224.22 205.22 281.7 205.22 296.87 205.22 495.03"></polygon><polygon class="cls-4" points="205.22 495.03 124.66 495.03 124.66 224.22 205.22 224.22 205.22 281.7 205.22 296.87 205.22 495.03 205.22 495.03"></polygon><rect class="cls-1" x="124.66" y="496.57" width="80.56" height="13.49"></rect><rect class="cls-4" x="124.66" y="496.57" width="80.56" height="13.49"></rect><path class="cls-1" d="M263.53,270.07H148.47c-5.57,0-10.12-4.25-10.12-9.46s4.55-9.46,10.12-9.46H263.53c5.57,0,10.12,4.25,10.12,9.46s-4.55,9.46-10.12,9.46"></path><path class="cls-4" d="M263.53,270.07H148.47c-5.57,0-10.12-4.25-10.12-9.46s4.55-9.46,10.12-9.46H263.53c5.57,0,10.12,4.25,10.12,9.46s-4.55,9.46-10.12,9.46Z"></path></svg> 