<?xml version="1.0" encoding="UTF-8"?> <!-- Generator: Adobe Illustrator 23.0.3, SVG Export Plug-In . SVG Version: 6.00 Build 0) --> <svg xmlns="http://www.w3.org/2000/svg" xmlns:xlink="http://www.w3.org/1999/xlink" id="Livello_1" x="0px" y="0px" viewBox="0 0 525.7 1000" style="enable-background:new 0 0 525.7 1000;" xml:space="preserve"> <style type="text/css"> .st0{fill:#FFFFFF;} .st1{fill:#231F20;} .st2{fill:none;stroke:#000000;stroke-width:0.5;} .st3{fill:none;stroke:#231F20;stroke-width:0.5;stroke-miterlimit:10;} </style> <rect y="0" class="st0" width="525.7" height="1000"></rect> <title>Bag</title> <path class="st1" d="M114,14.4c0-2.2-0.2-4.4-0.9-6.6c-0.4-1.6-1.2-3.2-2.3-4.5c-1-1.2-2.2-2-3.6-2.6c-1.5-0.6-3.1-0.9-4.7-0.9 c-1.6,0-3.2,0.3-4.7,0.9c-1.4,0.5-2.6,1.4-3.6,2.6c-1.1,1.3-1.9,2.8-2.3,4.5c-0.6,2.1-0.9,4.3-0.9,6.6v5.8c0,2.2,0.2,4.4,0.9,6.5 c0.5,1.6,1.3,3.2,2.3,4.5c1,1.2,2.2,2,3.6,2.6c1.5,0.6,3.1,0.9,4.7,0.8c1.6,0,3.2-0.3,4.6-0.8c1.4-0.5,2.6-1.4,3.6-2.6 c1.1-1.3,1.9-2.9,2.3-4.5c0.6-2.1,0.8-4.3,0.8-6.5V14.4z M107.3,21.2c0,1.3-0.1,2.5-0.3,3.8c-0.1,0.9-0.5,1.7-0.9,2.5 c-0.3,0.6-0.9,1.1-1.5,1.4c-1.3,0.6-2.7,0.6-4,0c-0.6-0.3-1.1-0.8-1.5-1.4c-0.5-0.8-0.8-1.6-0.9-2.5c-0.2-1.3-0.3-2.5-0.3-3.8v-7.7 c0-1.3,0.1-2.5,0.3-3.8c0.1-0.9,0.4-1.7,0.9-2.5c0.4-0.6,0.9-1.1,1.5-1.4c0.6-0.3,1.3-0.4,2-0.4c0.7,0,1.4,0.1,2,0.4 c0.6,0.3,1.2,0.8,1.5,1.4c0.5,0.8,0.8,1.6,0.9,2.5c0.3,1.2,0.4,2.5,0.3,3.8L107.3,21.2z M139.7,5.4c-0.5-1.2-1.2-2.2-2.2-2.9 c-1-0.8-2.2-1.5-3.4-1.8c-1.4-0.4-2.8-0.6-4.2-0.6c-1.5,0-2.9,0.2-4.3,0.6c-1.2,0.4-2.4,1-3.4,1.9c-1,0.8-1.7,1.8-2.2,2.9 c-0.5,1.3-0.8,2.6-0.8,4c0,1.5,0.4,3.1,1.2,4.4c0.8,1.3,2,2.3,3.4,3c-1.5,0.7-2.9,1.8-3.9,3.2c-1,1.5-1.5,3.2-1.5,5 c0,1.5,0.3,2.9,0.9,4.2c0.6,1.2,1.4,2.2,2.4,3c1.1,0.8,2.3,1.5,3.6,1.9c3,0.8,6.1,0.8,9.1,0c1.3-0.4,2.5-1,3.6-1.9 c1-0.8,1.8-1.8,2.4-3c0.6-1.3,0.9-2.8,0.9-4.2c0-1.7-0.5-3.4-1.4-4.9c-1-1.4-2.3-2.5-3.9-3.2c1.4-0.7,2.5-1.7,3.4-3 c0.8-1.3,1.3-2.8,1.2-4.4c0-1.4-0.3-2.7-0.8-4L139.7,5.4z M133.2,28c-0.9,0.9-2.1,1.4-3.4,1.3c-0.7,0-1.3-0.1-1.9-0.3 c-0.6-0.2-1.1-0.5-1.5-1c-0.5-0.4-0.8-0.9-1-1.5c-0.2-0.6-0.4-1.3-0.3-2c0-0.7,0.1-1.4,0.3-2c0.4-1.2,1.3-2.1,2.5-2.5 c0.6-0.2,1.3-0.3,1.9-0.3c0.7,0,1.3,0.1,1.9,0.3c0.6,0.2,1.1,0.6,1.5,1c0.4,0.4,0.8,1,1,1.5c0.2,0.6,0.3,1.3,0.3,2 C134.6,25.8,134.1,27.1,133.2,28z M132.8,13c-1.6,1.6-4.2,1.7-5.8,0.1c0,0,0,0-0.1-0.1c-0.7-0.9-1.1-2.1-1-3.2 c-0.1-1.2,0.3-2.3,1-3.2c0.8-0.8,1.8-1.2,2.9-1.1c1.1-0.1,2.2,0.4,2.9,1.2c0.7,0.9,1.1,2,1,3.2C133.8,10.9,133.5,12.1,132.8,13 L132.8,13z M168.4,14.4c0-2.2-0.2-4.4-0.9-6.6c-0.4-1.6-1.2-3.2-2.3-4.5c-1-1.1-2.2-2-3.6-2.6C160.2,0.3,158.6,0,157,0 c-1.6,0-3.2,0.3-4.6,0.9c-1.4,0.5-2.6,1.4-3.6,2.6c-1.1,1.3-1.9,2.8-2.3,4.5c-0.6,2.1-0.9,4.3-0.9,6.6v5.8c0,2.2,0.2,4.4,0.9,6.5 c0.5,1.6,1.3,3.2,2.3,4.5c1,1.2,2.2,2,3.6,2.6c1.5,0.6,3.1,0.9,4.7,0.8c1.6,0,3.2-0.3,4.6-0.8c1.4-0.5,2.6-1.4,3.6-2.6 c1.1-1.3,1.9-2.9,2.3-4.5c0.6-2.1,0.8-4.3,0.8-6.5V14.4z M161.8,21.2c0,1.3-0.1,2.5-0.3,3.8c-0.1,0.9-0.5,1.7-0.9,2.5 c-0.3,0.6-0.8,1.1-1.4,1.4c-1.3,0.6-2.7,0.6-4,0c-0.6-0.3-1.1-0.8-1.5-1.4c-0.5-0.8-0.8-1.6-1-2.5c-0.2-1.3-0.3-2.5-0.3-3.8v-7.7 c0-1.3,0.1-2.5,0.3-3.8c0.1-0.9,0.4-1.7,0.9-2.5c0.4-0.6,0.9-1.1,1.5-1.4c0.6-0.3,1.3-0.4,2-0.4c0.7,0,1.4,0.1,2,0.4 c0.6,0.3,1.2,0.8,1.5,1.4c0.5,0.8,0.8,1.6,0.9,2.5c0.2,1.2,0.4,2.5,0.3,3.8L161.8,21.2z M196.1,28.8h-14.5l5.9-6.3 c1.1-1.2,2.2-2.3,3.1-3.4c0.9-1,1.7-2.1,2.4-3.2c0.6-1,1.1-2,1.5-3.1c0.4-1,0.6-2.2,0.6-3.3c0-1.4-0.2-2.7-0.7-4 c-0.5-1.2-1.2-2.2-2.1-3c-1-0.9-2.2-1.5-3.4-1.9C187.2,0.2,185.6,0,184,0c-1.7,0-3.4,0.3-4.9,0.9c-1.4,0.5-2.6,1.3-3.7,2.4 c-1,1-1.8,2.2-2.3,3.5c-0.5,1.4-0.8,2.8-0.8,4.3h6.8c0-0.8,0.1-1.5,0.3-2.3c0.2-0.7,0.5-1.3,0.9-1.8c0.4-0.5,1-0.9,1.6-1.2 c0.7-0.3,1.4-0.4,2.1-0.4c1.2-0.1,2.4,0.4,3.2,1.3c0.8,1,1.2,2.3,1.1,3.6c0,0.5-0.1,1-0.2,1.5c-0.2,0.6-0.4,1.2-0.7,1.7 c-0.4,0.7-0.9,1.4-1.4,2c-0.7,0.9-1.4,1.7-2.1,2.5l-10.9,11.6v4.6h23.1V28.8z M213.5,17.1h-13v5.4h13.1L213.5,17.1z M234.9,0.4h-0.7 l-14,5v5.4l8-2.5v25.9h6.7L234.9,0.4z M252.3,0.4h-8l9.8,16.8l-10,17h8.1l6.5-11.8l6.5,11.8h8.1l-10.1-17L273,0.5h-8l-6.3,11.6 L252.3,0.4z"></path> <path class="st2" d="M0,937.1h359.4 M460,177.2v719.9"></path> <path d="M498.2,555.7v0.5l3.7,9.8h3.1l-2.5-6.9h22.8v-3.5H498.2z M498.3,531.2v3.6l18.8,12.1h2v-12.3h6.3v-3.4h-6.3v-3.8h-2.8v3.8 H498.3z M503.7,535l-0.7-0.4h13.2v8.4L503.7,535z M509.3,507.4c-3.9,0-6.8,0.8-8.6,2.1s-2.8,3.5-2.8,6.4s1,5.1,2.9,6.5s4.9,2,8.8,2 h4.6c3.8,0,6.6-0.8,8.6-2.2s2.8-3.5,2.8-6.4s-1-5.1-2.9-6.5s-4.9-2-9-2L509.3,507.4z M514.7,510.8c2.1-0.1,4.3,0.3,6.2,1.3 c2.1,1.4,2.6,4.3,1.2,6.4c-0.3,0.5-0.8,0.9-1.3,1.2c-2,1-4.2,1.4-6.5,1.3h-5.5c-2.1,0.1-4.2-0.3-6.1-1.3c-1.3-0.8-2.1-2.3-2-3.8 c-0.1-1.6,0.7-3.1,2-3.9c1.3-0.8,3.4-1.3,6.3-1.3L514.7,510.8z"></path> <path d="M139.4,970.7c-4.2,0.1-7.3,1.4-9.4,4s-3.2,6.4-3.2,11.4v1.3c-0.1,2.8,0.8,5.5,2.4,7.7c1.5,1.9,3.8,3.1,6.3,3 c2.3,0.1,4.5-0.8,6.1-2.5c1.6-1.8,2.4-4.2,2.3-6.7c0.1-2.3-0.7-4.6-2.1-6.4c-1.4-1.6-3.5-2.6-5.6-2.5c-2.2-0.1-4.3,0.8-5.8,2.4 c0.1-2.4,1-4.7,2.7-6.5c1.7-1.6,4-2.4,6.4-2.3h0.6v-2.9L139.4,970.7z M139.1,984.6c0.9,1.3,1.4,2.9,1.3,4.4c0.1,1.6-0.4,3.2-1.3,4.4 c-0.9,1.1-2.2,1.8-3.6,1.7c-1.5,0-2.9-0.8-3.7-2c-1.1-1.6-1.6-3.4-1.5-5.3v-1.3c0.4-1.1,1.1-2,2-2.6c0.9-0.7,2.1-1.1,3.3-1.1 C136.9,982.9,138.3,983.5,139.1,984.6L139.1,984.6z M162.1,972.3c-3.4-2.7-8.1-2.7-11.5,0c-1.5,1.4-2.3,3.4-2.2,5.4 c0,1.3,0.3,2.5,1.1,3.6c0.7,1,1.7,1.9,2.8,2.5c-1.3,0.5-2.5,1.5-3.3,2.7c-0.8,1.2-1.2,2.5-1.2,3.9c-0.1,2.1,0.8,4.2,2.3,5.6 c3.7,2.8,8.8,2.8,12.5,0c1.6-1.4,2.5-3.5,2.4-5.6c0-1.4-0.4-2.8-1.3-3.9c-0.8-1.2-2-2.1-3.3-2.7c1.2-0.5,2.2-1.4,2.9-2.5 c0.7-1.1,1.1-2.3,1.1-3.6C164.5,975.7,163.6,973.7,162.1,972.3z M160.1,993.9c-2.2,1.8-5.3,1.8-7.6,0c-0.9-1-1.4-2.3-1.4-3.6 c-0.1-1.4,0.4-2.7,1.4-3.7c1-1,2.3-1.5,3.7-1.4c1.4,0,2.7,0.5,3.8,1.4c1,1,1.5,2.3,1.4,3.7C161.6,991.7,161.1,993,160.1,993.9 L160.1,993.9z M159.6,974.4c1.7,1.9,1.7,4.8,0,6.7c-0.9,0.9-2,1.3-3.3,1.3c-1.2,0-2.4-0.4-3.3-1.3c-1.6-2-1.6-4.8,0-6.8 C154.9,972.7,157.7,972.7,159.6,974.4L159.6,974.4z M181.6,970.7h-3l-11.3,29.3h2.9L181.6,970.7z M199.3,985.4h2.6 c1.5-0.1,3,0.4,4.2,1.3c1,0.9,1.5,2.2,1.4,3.6c0.1,1.4-0.4,2.7-1.3,3.7c-2.2,1.7-5.3,1.7-7.6,0c-0.9-0.9-1.4-2.1-1.4-3.4h-3.5 c-0.1,2.1,0.8,4.1,2.4,5.4c1.7,1.4,3.9,2.1,6.1,2c2.3,0.1,4.5-0.7,6.2-2.1c1.6-1.5,2.5-3.6,2.4-5.8c0-1.4-0.4-2.8-1.2-4 c-0.9-1.1-2.1-1.9-3.5-2.3c1.3-0.5,2.3-1.4,3.1-2.5c0.7-1,1.1-2.2,1.1-3.4c0.1-2.1-0.7-4.2-2.2-5.7c-1.7-1.4-3.8-2.1-6-2 c-2.2-0.1-4.3,0.7-6,2.1c-1.5,1.3-2.4,3.3-2.4,5.3h3.4c-0.1-1.2,0.4-2.5,1.3-3.3c1-0.9,2.3-1.4,3.6-1.3c3.1,0,4.7,1.6,4.7,4.8 c0.1,1.3-0.5,2.5-1.4,3.4c-1.1,0.9-2.4,1.3-3.8,1.3h-2.6L199.3,985.4z M227,970.6h-0.5l-9.8,3.7v3.1l6.9-2.5v22.8h3.5V970.6z"></path> <path class="st0" d="M25.8,178.8h316.7l15.2,162.6H9.8L25.8,178.8z M31.7,178.8L17.4,341.4 M38.5,178.8L24.5,341.4 M329,178.8 l13.5,162.6 M335.8,178.8l14.4,162.6 M126.3,341.4L33.4,893.9h299l-88.7-552.5"></path> <path class="st3" d="M25.8,178.8h316.7l15.2,162.6H9.8L25.8,178.8L25.8,178.8z M31.7,178.8L17.4,341.4 M38.5,178.8L24.5,341.4 M329,178.8l13.5,162.6 M335.8,178.8l14.4,162.6 M126.3,341.4L33.4,893.9h299l-88.7-552.5"></path> </svg> 