<?xml version="1.0" encoding="UTF-8"?> <svg xmlns="http://www.w3.org/2000/svg" id="Livello_1" data-name="Livello 1" viewBox="0 0 732.89 1000"><defs><style>.cls-1{fill:#fff;}.cls-2{fill:#231f20;}.cls-3,.cls-4{fill:none;stroke-width:0.25px;}.cls-3{stroke:#000;}.cls-4{stroke:#231f20;stroke-miterlimit:10;}</style></defs><title>C&amp;apos;hi wall large</title><rect class="cls-1" width="732.89" height="1000"></rect><path class="cls-1" d="M387.17,838.93c-17.23-6.09-9.36-24.38-9.36-24.38-16.94-6.67-8.78-23.5-8.78-23.5-16.64-4.64-8.77-26.12-8.77-26.12H199.05s7.86,21.48-8.77,26.12c0,0,8.16,16.83-8.78,23.5,0,0,7.87,18.29-9.37,24.38,0,0,7.86,17.42-7.57,24.68H394.74c-15.43-7.26-7.57-24.68-7.57-24.68"></path><rect class="cls-1" width="732.89" height="1000"></rect><path class="cls-2" d="M159.75,44.09v8.53h.8a29.49,29.49,0,0,0,11.49-2,21.61,21.61,0,0,0,8.17-5.71,23.36,23.36,0,0,0,4.91-8.82,38.23,38.23,0,0,0,1.59-11.49V21a26.7,26.7,0,0,0-1.23-8.53A19.3,19.3,0,0,0,182,5.78a15.84,15.84,0,0,0-5.49-4.26A16.74,16.74,0,0,0,169.36,0a17.29,17.29,0,0,0-7.15,1.45,15.91,15.91,0,0,0-5.42,4,16.26,16.26,0,0,0-3.47,5.71,20.75,20.75,0,0,0-1.23,7.09,23.18,23.18,0,0,0,.94,6.86,16.07,16.07,0,0,0,2.89,5.42,14.43,14.43,0,0,0,4.7,3.69,15.33,15.33,0,0,0,6.5,1.3,12,12,0,0,0,5.06-1.08,13.79,13.79,0,0,0,4.2-2.82,14.92,14.92,0,0,1-1.31,5.35,10.14,10.14,0,0,1-3,3.9,13.9,13.9,0,0,1-4.84,2.46,25.84,25.84,0,0,1-6.73.79ZM166.33,27a6.87,6.87,0,0,1-2.24-2.09,8.38,8.38,0,0,1-1.38-3,15.34,15.34,0,0,1-.43-3.76,14.87,14.87,0,0,1,.43-3.61,9.06,9.06,0,0,1,1.38-3.18,6.17,6.17,0,0,1,2.17-2.17,5.31,5.31,0,0,1,3-.87,6.81,6.81,0,0,1,2.89.65,8.78,8.78,0,0,1,2.32,2A10.8,10.8,0,0,1,176,14.38a18.28,18.28,0,0,1,.51,4.78v4.19a8.52,8.52,0,0,1-2.67,3.11,7.49,7.49,0,0,1-4.27,1.23,6.69,6.69,0,0,1-3.25-.73ZM201.2,44.09v8.53h.8a29.46,29.46,0,0,0,11.49-2,21.61,21.61,0,0,0,8.17-5.71,23.36,23.36,0,0,0,4.91-8.82,38.23,38.23,0,0,0,1.59-11.49V21a26.7,26.7,0,0,0-1.23-8.53,19.45,19.45,0,0,0-3.46-6.65A16,16,0,0,0,218,1.52,16.73,16.73,0,0,0,210.82,0a17.33,17.33,0,0,0-7.16,1.45,15.91,15.91,0,0,0-5.42,4,16.26,16.26,0,0,0-3.47,5.71,20.75,20.75,0,0,0-1.23,7.09,23.18,23.18,0,0,0,.94,6.86,16.07,16.07,0,0,0,2.89,5.42,14.43,14.43,0,0,0,4.7,3.69,15.33,15.33,0,0,0,6.5,1.3,12,12,0,0,0,5.06-1.08,13.79,13.79,0,0,0,4.2-2.82,15.13,15.13,0,0,1-1.3,5.35,10.26,10.26,0,0,1-3,3.9,13.81,13.81,0,0,1-4.84,2.46,25.84,25.84,0,0,1-6.73.79ZM207.78,27a6.87,6.87,0,0,1-2.24-2.09,8.38,8.38,0,0,1-1.38-3,15.84,15.84,0,0,1-.43-3.76,15.38,15.38,0,0,1,.43-3.61,9.06,9.06,0,0,1,1.38-3.18,6.17,6.17,0,0,1,2.17-2.17,5.31,5.31,0,0,1,3-.87,6.81,6.81,0,0,1,2.89.65,8.78,8.78,0,0,1,2.32,2,11,11,0,0,1,1.52,3.46,18.76,18.76,0,0,1,.5,4.78v4.19a8.52,8.52,0,0,1-2.67,3.11A7.49,7.49,0,0,1,211,27.69a6.69,6.69,0,0,1-3.25-.73Zm62.27-5a33.64,33.64,0,0,0-1.3-10,18,18,0,0,0-3.54-6.8,13.38,13.38,0,0,0-5.5-3.9A18.38,18.38,0,0,0,252.63,0a18.72,18.72,0,0,0-7.09,1.3,13.2,13.2,0,0,0-5.42,3.9,17.88,17.88,0,0,0-3.54,6.8,33.31,33.31,0,0,0-1.3,10v8.9a33.15,33.15,0,0,0,1.3,9.9,19.27,19.27,0,0,0,3.54,6.87,13.38,13.38,0,0,0,5.5,3.9,18.63,18.63,0,0,0,7.08,1.3,18.38,18.38,0,0,0,7.08-1.3,13.38,13.38,0,0,0,5.5-3.9,19.27,19.27,0,0,0,3.54-6.87,36.15,36.15,0,0,0,1.23-9.9ZM259.86,32.24a26.47,26.47,0,0,1-.51,5.78A11.2,11.2,0,0,1,258,41.85a5.16,5.16,0,0,1-2.24,2.1,7.43,7.43,0,0,1-6.08,0,5.16,5.16,0,0,1-2.24-2.1A11.16,11.16,0,0,1,246,38a32.38,32.38,0,0,1-.44-5.78V20.46a31.46,31.46,0,0,1,.44-5.71A10.78,10.78,0,0,1,247.35,11a6.1,6.1,0,0,1,2.24-2.1,7.17,7.17,0,0,1,3-.58,6.73,6.73,0,0,1,3,.58A5.8,5.8,0,0,1,258,11a10.78,10.78,0,0,1,1.37,3.76,25.73,25.73,0,0,1,.51,5.71Zm52-31.52H275.57V9h25.52L281.21,52.12H292L311.86,6.43ZM338.64,26H318.76v8.17h19.88Zm18.11,3.83h5.42a13.59,13.59,0,0,1,3.55.44,10.19,10.19,0,0,1,2.67,1.37,7.07,7.07,0,0,1,1.66,2.39,10.17,10.17,0,0,1,.58,3.54,7.49,7.49,0,0,1-.58,2.89,5,5,0,0,1-1.51,2.17,5.49,5.49,0,0,1-2.46,1.44,8.88,8.88,0,0,1-3.25.51,7.83,7.83,0,0,1-3-.51A6.26,6.26,0,0,1,355.31,38H345.12a13.44,13.44,0,0,0,1.51,6.58,13.84,13.84,0,0,0,4,4.63A17.36,17.36,0,0,0,356.18,52a24.08,24.08,0,0,0,6.43.87,25.72,25.72,0,0,0,7.23-1,16.82,16.82,0,0,0,5.78-3,13.57,13.57,0,0,0,3.83-4.7,15.26,15.26,0,0,0,1.37-6.44,12,12,0,0,0-8.6-12,17,17,0,0,0,3.33-2.09A17.7,17.7,0,0,0,378,21a13.93,13.93,0,0,0,1.51-3.11,12.72,12.72,0,0,0,.51-3.26,14.91,14.91,0,0,0-1.3-6.36,13.11,13.11,0,0,0-3.54-4.55,16.44,16.44,0,0,0-5.5-2.82A27,27,0,0,0,362.61,0,21.64,21.64,0,0,0,356,1a17.93,17.93,0,0,0-5.35,2.82,14.29,14.29,0,0,0-3.61,4.41,12.81,12.81,0,0,0-1.3,5.78H356a5.29,5.29,0,0,1,.58-2.38A5.12,5.12,0,0,1,358,9.83a6.06,6.06,0,0,1,2.24-1.16,7.85,7.85,0,0,1,2.61-.43,8,8,0,0,1,3.1.51,5.56,5.56,0,0,1,2.17,1.37,5.16,5.16,0,0,1,1.3,2.1,7.51,7.51,0,0,1,.44,2.6A7.1,7.1,0,0,1,368,20c-1.3,1.3-3.18,1.95-5.79,1.95h-5.42Zm41.45,0h5.43a13.56,13.56,0,0,1,3.54.44,10.19,10.19,0,0,1,2.67,1.37,6.93,6.93,0,0,1,1.66,2.39,10.17,10.17,0,0,1,.58,3.54,7.49,7.49,0,0,1-.58,2.89A4.87,4.87,0,0,1,410,42.65a5.49,5.49,0,0,1-2.46,1.44,8.84,8.84,0,0,1-3.25.51,7.83,7.83,0,0,1-3-.51,7,7,0,0,1-4-3.39,6.39,6.39,0,0,1-.58-2.68H386.57a13.44,13.44,0,0,0,1.51,6.58,13.84,13.84,0,0,0,4,4.63A17.36,17.36,0,0,0,397.63,52a24.08,24.08,0,0,0,6.43.87,25.72,25.72,0,0,0,7.23-1,16.82,16.82,0,0,0,5.78-3,13.57,13.57,0,0,0,3.83-4.7,15.26,15.26,0,0,0,1.38-6.44,12,12,0,0,0-8.61-12A17,17,0,0,0,417,23.64a17.7,17.7,0,0,0,2.46-2.6A13.93,13.93,0,0,0,421,17.93a12.72,12.72,0,0,0,.51-3.26,14.91,14.91,0,0,0-1.3-6.36,13,13,0,0,0-3.54-4.55,16.44,16.44,0,0,0-5.5-2.82A27,27,0,0,0,404.06,0a21.69,21.69,0,0,0-6.58,1,17.93,17.93,0,0,0-5.35,2.82,14.29,14.29,0,0,0-3.61,4.41,12.81,12.81,0,0,0-1.3,5.78h10.19a5.29,5.29,0,0,1,.58-2.38,5.12,5.12,0,0,1,1.44-1.81,6.06,6.06,0,0,1,2.24-1.16,7.85,7.85,0,0,1,2.61-.43,8,8,0,0,1,3.1.51,5.56,5.56,0,0,1,2.17,1.37,5.06,5.06,0,0,1,1.3,2.1,7.51,7.51,0,0,1,.44,2.6A7.1,7.1,0,0,1,409.41,20c-1.3,1.3-3.18,1.95-5.78,1.95H398.2Z"></path><path class="cls-2" d="M219.68,94.19h-4.27v54.22h4.27Zm40,54.22V148a13.72,13.72,0,0,1-.51-1.59c-.14-.58-.21-1.23-.36-1.88s-.14-1.3-.21-2a17.83,17.83,0,0,1-.08-2V122a13.69,13.69,0,0,0-1-5.42,10.66,10.66,0,0,0-2.89-3.91,12.64,12.64,0,0,0-4.34-2.31,20,20,0,0,0-11.64.15,16.46,16.46,0,0,0-4.62,2.53,12,12,0,0,0-3,3.61,8.3,8.3,0,0,0-1,4.12l4.19.07a6.29,6.29,0,0,1,.8-3,8.28,8.28,0,0,1,2.1-2.46,9.67,9.67,0,0,1,3.25-1.59,12,12,0,0,1,4.05-.65q4.88,0,7.37,2.38a8.35,8.35,0,0,1,2.53,6.44v4.33h-7.81a31.61,31.61,0,0,0-7.3.8,16.6,16.6,0,0,0-5.49,2.46,10,10,0,0,0-4.63,8.82,10.44,10.44,0,0,0,.87,4.26,10.17,10.17,0,0,0,2.46,3.47,11.47,11.47,0,0,0,3.9,2.31,16,16,0,0,0,5.06.8,18.92,18.92,0,0,0,4.19-.51,23.27,23.27,0,0,0,3.62-1.3,14,14,0,0,0,2.89-1.95,11.34,11.34,0,0,0,2.24-2.31c.07,1,.14,1.95.29,3a9.4,9.4,0,0,0,.58,2.39Zm-21.33-3.62a8.51,8.51,0,0,1-2.74-1.59,6.17,6.17,0,0,1-1.66-2.38,6.46,6.46,0,0,1-.66-2.9,7.26,7.26,0,0,1,.94-3.54,7.59,7.59,0,0,1,2.75-2.67,13.07,13.07,0,0,1,4.34-1.66,23,23,0,0,1,5.78-.58h7.23v8.38a12.72,12.72,0,0,1-1.88,3,14.64,14.64,0,0,1-2.75,2.38,14.22,14.22,0,0,1-3.54,1.59,16.06,16.06,0,0,1-4.26.58,10.82,10.82,0,0,1-3.55-.58ZM287.57,110a7.79,7.79,0,0,0-1.23-.29,12,12,0,0,0-1.59-.14,10.93,10.93,0,0,0-6.5,1.8,13.12,13.12,0,0,0-4.27,5l-.07-6.07h-4.12v38.17H274V122.17a18.78,18.78,0,0,1,1.45-3.47,9.88,9.88,0,0,1,2.24-2.68,9.37,9.37,0,0,1,3-1.81,11.07,11.07,0,0,1,3.9-.65,17.73,17.73,0,0,1,2.82.22Zm4.82,19.73a27.07,27.07,0,0,0,1,7.88,18.14,18.14,0,0,0,2.9,6.15,14.35,14.35,0,0,0,4.62,4,13.08,13.08,0,0,0,6.15,1.45,15.22,15.22,0,0,0,7-1.52,13.13,13.13,0,0,0,4.77-4.12v4.41a16.18,16.18,0,0,1-.72,5.13,9.87,9.87,0,0,1-2.24,3.76,8.89,8.89,0,0,1-3.55,2.46,13.85,13.85,0,0,1-4.77.79,12.51,12.51,0,0,1-5.71-1.3,16.34,16.34,0,0,1-5-4.19l-2.31,2.53a12.49,12.49,0,0,0,2.68,2.89,19,19,0,0,0,3.32,2,21.12,21.12,0,0,0,3.62,1.22,15.8,15.8,0,0,0,3.68.37,17.44,17.44,0,0,0,6.29-1.09,13.43,13.43,0,0,0,4.84-3.11,14.23,14.23,0,0,0,3-5,19.26,19.26,0,0,0,1.16-6.65V110.24h-4l-.22,5.49a13.83,13.83,0,0,0-4.84-4.55,15.23,15.23,0,0,0-13.23-.29,14.12,14.12,0,0,0-4.62,3.9,18.14,18.14,0,0,0-2.9,6.15,27.77,27.77,0,0,0-1,8Zm4.27-.72a28,28,0,0,1,.65-6.22,15.46,15.46,0,0,1,2-5,9.8,9.8,0,0,1,3.54-3.33,9.38,9.38,0,0,1,5.06-1.23,13.68,13.68,0,0,1,4.05.58,11.44,11.44,0,0,1,3.11,1.66,11.69,11.69,0,0,1,2.24,2.39,12.34,12.34,0,0,1,1.52,2.89v17.71a13.74,13.74,0,0,1-1.66,2.82,9.36,9.36,0,0,1-2.32,2.17,11.62,11.62,0,0,1-3.1,1.52,13.2,13.2,0,0,1-3.91.5,9.87,9.87,0,0,1-8.53-4.55,15.61,15.61,0,0,1-2-5,27.5,27.5,0,0,1-.65-6.22Zm56.92,19.59a12.22,12.22,0,0,0,3.76-1.45,12.44,12.44,0,0,0,2.89-2.09,19.06,19.06,0,0,0,2.24-2.68l-2.67-2a12.62,12.62,0,0,1-4.7,3.91,13.42,13.42,0,0,1-6,1.22,12.13,12.13,0,0,1-5.35-1.15,12.78,12.78,0,0,1-4.12-3.26,14.49,14.49,0,0,1-2.68-4.77,17.87,17.87,0,0,1-.94-5.92v-.8h27.26V127a24.18,24.18,0,0,0-1-7,15.7,15.7,0,0,0-2.89-5.57,13.78,13.78,0,0,0-4.77-3.61,15,15,0,0,0-6.43-1.3,14.19,14.19,0,0,0-6.22,1.37,16.92,16.92,0,0,0-5.2,3.9,18.22,18.22,0,0,0-3.62,6.07,23.56,23.56,0,0,0-1.3,8v1.52a21.19,21.19,0,0,0,1.3,7.51,16.94,16.94,0,0,0,3.54,5.93,15.08,15.08,0,0,0,5.43,3.83,16.39,16.39,0,0,0,6.86,1.45,18,18,0,0,0,4.63-.58Zm-.72-34.41a11.64,11.64,0,0,1,3.39,2.75,13.08,13.08,0,0,1,2,4,17,17,0,0,1,.79,4.7V126H336.16a19.65,19.65,0,0,1,1.37-5.28,13.42,13.42,0,0,1,2.53-4,12.89,12.89,0,0,1,3.62-2.67,11.47,11.47,0,0,1,4.48-.87,10.73,10.73,0,0,1,4.7,1Z"></path><path class="cls-3" d="M104,911.24H451.31M529.43,682.5v182"></path><path d="M587.64,785.46v.81l5.6,15H598l-3.87-10.51h34.76v-5.26Zm33.44-31.54c2.13,2.31,3.29,5.6,3.34,9.93V765h4.45v-1c-.11-6.35-2-11.09-5.66-14.26s-9.47-4.74-17.49-4.74h-1.5c-5.26,0-9.42,1.16-12.42,3.52a11.37,11.37,0,0,0-4.56,9.59,12.78,12.78,0,0,0,1.73,6.7,11.69,11.69,0,0,0,5.08,4.44,17.13,17.13,0,0,0,7.39,1.56,16.31,16.31,0,0,0,7-1.44,10.59,10.59,0,0,0,6.7-10.22,10.64,10.64,0,0,0-1.21-5,11.65,11.65,0,0,0-3.12-3.87c4.67.17,8.08,1.44,10.28,3.75Zm-13,9.64a12.64,12.64,0,0,1-13.8-.06,6.72,6.72,0,0,1-2.59-5.54,6.61,6.61,0,0,1,3.17-5.6,14.18,14.18,0,0,1,8.32-2.25h2.07a9.65,9.65,0,0,1,3.93,3.23,8,8,0,0,1,1.62,4.85,6.38,6.38,0,0,1-2.72,5.37Z"></path><path d="M250.2,980.66h3.92c2.77.05,4.91.69,6.35,2a6.79,6.79,0,0,1,2.2,5.49,7.55,7.55,0,0,1-2,5.65,9.36,9.36,0,0,1-11.49,0,6.66,6.66,0,0,1-2.07-5.13h-5.26a10.35,10.35,0,0,0,3.64,8.25,15.44,15.44,0,0,0,18.76-.11,11.2,11.2,0,0,0,3.64-8.78,10,10,0,0,0-1.85-6.06,10.42,10.42,0,0,0-5.25-3.53,10.48,10.48,0,0,0,4.73-3.75,9,9,0,0,0,1.74-5.19c0-3.7-1.1-6.53-3.29-8.61s-5.26-3.06-9.13-3.06a13.06,13.06,0,0,0-9.06,3.24,10.46,10.46,0,0,0-3.58,8.08h5.25a6.67,6.67,0,0,1,2-5.08,7.48,7.48,0,0,1,5.43-2c4.79,0,7.22,2.43,7.22,7.22a6.59,6.59,0,0,1-2.14,5.14,8.71,8.71,0,0,1-5.83,2H250.2Zm51.4-22.29H273.89v4.27h22.17l-16.92,36.78h5.49l17-38.11Z"></path><path class="cls-4" d="M430.23,718.9H144.47s18.59,11.4,9.91,35c0,0,21.49,7.17,13.23,37.15,0,0,22.71,10.12,12,35.89,0,0,20.24,8.44,11.15,36.3H384c-9.09-27.86,11.15-36.3,11.15-36.3-10.73-25.77,12-35.89,12-35.89-8.26-30,13.22-37.15,13.22-37.15-8.67-23.64,9.91-35,9.91-35Z"></path><line class="cls-4" x1="181.74" y1="826.18" x2="394.62" y2="826.18"></line><line class="cls-4" x1="169.91" y1="791.07" x2="406.46" y2="791.07"></line><line class="cls-4" x1="154.18" y1="753.98" x2="419.51" y2="753.98"></line></svg> 