<?xml version="1.0" encoding="UTF-8"?> <!-- Generator: Adobe Illustrator 23.0.3, SVG Export Plug-In . SVG Version: 6.00 Build 0) --> <svg xmlns="http://www.w3.org/2000/svg" xmlns:xlink="http://www.w3.org/1999/xlink" id="Livello_1" x="0px" y="0px" viewBox="0 0 667.2 1000.5" style="enable-background:new 0 0 667.2 1000.5;" xml:space="preserve"> <style type="text/css"> .st0{fill:#FFFFFF;} .st1{fill:#231F20;} .st2{fill:none;stroke:#000000;stroke-width:0.5;} .st3{fill:#FFFFFF;stroke:#231F20;stroke-width:0.5;stroke-miterlimit:10;} .st4{fill:none;stroke:#231F20;stroke-width:0.5;stroke-miterlimit:10;} </style> <title>c&amp;apos;hi wall small</title> <rect x="0.3" y="0.3" class="st0" width="666.7" height="1000"></rect> <path class="st1" d="M176.5,44.3v8.5h0.8c3.9,0.1,7.8-0.6,11.5-2c3.1-1.2,5.9-3.2,8.2-5.7c2.3-2.5,3.9-5.6,4.9-8.8 c1.1-3.7,1.6-7.6,1.6-11.5v-3.6c0.1-2.9-0.4-5.8-1.2-8.5c-0.7-2.4-1.9-4.7-3.5-6.7c-1.5-1.8-3.4-3.3-5.5-4.3c-2.3-1-4.7-1.5-7.2-1.5 c-2.5,0-4.9,0.5-7.2,1.5c-2.1,0.9-3.9,2.3-5.4,4c-1.5,1.6-2.7,3.6-3.5,5.7c-0.8,2.3-1.2,4.7-1.2,7.1c0,2.3,0.3,4.6,0.9,6.9 c0.6,2,1.6,3.8,2.9,5.4c1.3,1.5,2.9,2.8,4.7,3.7c2,0.9,4.3,1.3,6.5,1.3c1.7,0,3.5-0.4,5.1-1.1c1.6-0.7,3-1.6,4.2-2.8 c-0.1,1.8-0.5,3.7-1.3,5.3c-0.7,1.5-1.7,2.9-3,3.9c-1.4,1.1-3.1,2-4.9,2.5c-2.2,0.6-4.5,0.8-6.7,0.8L176.5,44.3z M183,27.3 c-0.9-0.5-1.7-1.2-2.3-2.1c-0.7-0.9-1.1-1.9-1.4-3c-0.3-1.2-0.4-2.5-0.4-3.8c0-1.2,0.1-2.4,0.4-3.6c0.2-1.1,0.7-2.2,1.4-3.2 c0.5-0.9,1.3-1.6,2.2-2.2c0.9-0.6,1.9-0.9,3-0.9c1,0,2,0.2,2.9,0.6c0.9,0.5,1.7,1.2,2.3,2c0.7,1.1,1.2,2.2,1.5,3.5 c0.4,1.6,0.5,3.2,0.5,4.8v4.2c-0.6,1.2-1.5,2.3-2.7,3.1c-1.3,0.8-2.8,1.2-4.3,1.2C185.1,28,184,27.7,183,27.3L183,27.3z M217.9,44.4 v8.5h0.8c3.9,0.1,7.8-0.6,11.5-2c3.1-1.2,5.9-3.2,8.2-5.7c2.3-2.6,3.9-5.6,4.9-8.9c1.1-3.7,1.6-7.6,1.6-11.5v-3.6 c0.1-2.9-0.4-5.8-1.2-8.5c-0.7-2.4-1.9-4.7-3.5-6.7c-1.5-1.8-3.4-3.3-5.5-4.3c-2.2-1-4.7-1.6-7.1-1.6c-2.5,0-4.9,0.5-7.1,1.5 c-2.1,0.9-3.9,2.3-5.4,4c-1.5,1.6-2.7,3.6-3.5,5.7c-0.8,2.3-1.2,4.7-1.2,7.1c0,2.3,0.3,4.6,0.9,6.9c0.6,2,1.6,3.8,2.9,5.4 c1.3,1.5,2.9,2.8,4.7,3.7c2,0.9,4.3,1.3,6.5,1.3c1.7,0,3.5-0.4,5.1-1.1c1.6-0.7,3-1.6,4.2-2.8c-0.1,1.8-0.5,3.7-1.3,5.3 c-0.7,1.5-1.7,2.9-3,3.9c-1.4,1.1-3.1,2-4.9,2.5c-2.2,0.6-4.5,0.8-6.7,0.8L217.9,44.4z M224.5,27.3c-0.9-0.5-1.7-1.3-2.2-2.1 c-0.7-0.9-1.1-1.9-1.4-3c-0.3-1.2-0.4-2.5-0.4-3.8c0-1.2,0.1-2.4,0.4-3.6c0.2-1.2,0.7-2.2,1.4-3.2c0.5-0.9,1.3-1.6,2.2-2.2 c0.9-0.6,1.9-0.9,3-0.9c1,0,2,0.2,2.9,0.6c0.9,0.5,1.7,1.2,2.3,2c0.7,1.1,1.2,2.2,1.5,3.5c0.4,1.6,0.5,3.2,0.5,4.8v4.2 c-0.6,1.2-1.5,2.3-2.7,3.1c-1.3,0.8-2.7,1.3-4.3,1.2C226.6,27.9,225.5,27.7,224.5,27.3L224.5,27.3z M286.8,22.3 c0.1-3.4-0.4-6.8-1.3-10c-0.7-2.5-1.9-4.8-3.5-6.8c-1.5-1.7-3.4-3.1-5.5-3.9c-2.3-0.9-4.7-1.3-7.1-1.3c-2.4,0-4.8,0.4-7.1,1.3 c-2.1,0.8-4,2.2-5.4,3.9c-1.7,2-2.9,4.3-3.6,6.8c-0.9,3.2-1.4,6.6-1.3,10v8.9c-0.1,3.3,0.4,6.7,1.3,9.9c0.7,2.5,1.9,4.8,3.5,6.9 c1.5,1.7,3.4,3.1,5.5,3.9c2.3,0.9,4.7,1.3,7.1,1.3c2.4,0,4.8-0.4,7.1-1.3c2.1-0.8,4-2.1,5.5-3.9c1.6-2,2.8-4.4,3.5-6.9 c0.9-3.2,1.3-6.6,1.2-9.9L286.8,22.3z M276.6,32.5c0,1.9-0.1,3.9-0.5,5.8c-0.2,1.4-0.7,2.6-1.4,3.8c-0.5,0.9-1.3,1.6-2.2,2.1 c-1.9,0.9-4.1,0.9-6.1,0c-0.9-0.5-1.7-1.2-2.2-2.1c-0.7-1.2-1.2-2.5-1.5-3.9c-0.3-1.9-0.5-3.8-0.4-5.8V20.7c0-1.9,0.1-3.8,0.4-5.7 c0.2-1.3,0.7-2.6,1.4-3.7c0.6-0.9,1.3-1.6,2.2-2.1c0.9-0.4,2-0.6,3-0.6c1,0,2.1,0.2,3,0.6c0.9,0.5,1.7,1.2,2.3,2.1 c0.7,1.2,1.2,2.4,1.4,3.8c0.4,1.9,0.5,3.8,0.5,5.7L276.6,32.5z M328.6,1h-36.3v8.3h25.5l-19.8,43.1h10.8l19.9-45.7L328.6,1z M355.4,26.3h-19.9v8.2h19.9V26.3z M373.5,30.1h5.4c1.2,0,2.4,0.1,3.5,0.4c1,0.3,1.9,0.8,2.7,1.4c0.7,0.7,1.3,1.5,1.7,2.4 c0.4,1.1,0.6,2.3,0.6,3.5c0,1-0.2,2-0.6,2.9c-0.3,0.9-0.8,1.6-1.5,2.2c-0.7,0.7-1.5,1.2-2.5,1.4c-1,0.4-2.2,0.5-3.3,0.5 c-1,0-2-0.1-3-0.5c-0.9-0.3-1.7-0.7-2.4-1.4c-0.7-0.5-1.2-1.2-1.6-2c-0.4-0.8-0.6-1.8-0.6-2.7h-10.2c-0.1,2.3,0.5,4.6,1.5,6.6 c1,1.8,2.3,3.4,4,4.6c1.7,1.2,3.5,2.2,5.5,2.7c2.1,0.6,4.3,0.9,6.4,0.9c2.4,0,4.9-0.3,7.2-1c2.1-0.6,4.1-1.6,5.8-3 c1.6-1.3,2.9-2.9,3.8-4.7c0.9-2,1.4-4.2,1.4-6.4c0.2-5.5-3.3-10.4-8.6-12c1.2-0.6,2.3-1.3,3.3-2.1c0.9-0.8,1.7-1.7,2.5-2.6 c0.6-1,1.2-2,1.5-3.1c0.3-1.1,0.5-2.2,0.5-3.3c0-2.2-0.4-4.4-1.3-6.4c-0.8-1.8-2-3.3-3.5-4.6c-1.6-1.3-3.5-2.2-5.5-2.8 c-2.3-0.6-4.7-0.9-7.1-0.9c-2.2,0-4.5,0.3-6.6,1c-1.9,0.6-3.7,1.6-5.4,2.8c-1.5,1.2-2.7,2.7-3.6,4.4c-0.9,1.8-1.3,3.8-1.3,5.8h10.2 c0-0.8,0.2-1.6,0.6-2.4c0.3-0.7,0.8-1.3,1.5-1.8c0.7-0.5,1.4-0.9,2.2-1.2c0.8-0.3,1.7-0.4,2.6-0.4c1.1,0,2.1,0.1,3.1,0.5 c0.8,0.3,1.6,0.8,2.2,1.4c0.6,0.6,1,1.3,1.3,2.1c0.3,0.8,0.4,1.7,0.4,2.6c0.1,1.9-0.6,3.8-1.9,5.2c-1.3,1.3-3.2,2-5.8,2h-5.4 L373.5,30.1z M429.3,0.9h-1L407,8.6v8.2l12.1-3.8v39.3h10.2L429.3,0.9z"></path> <path class="st1" d="M246,141.5c-0.5,0.9-1.1,1.6-1.9,2.2c-1,0.6-2,1.1-3.1,1.5c-2.6,0.6-5.3,0.7-7.9,0.1c-1.2-0.2-2.3-0.7-3.4-1.3 c-1-0.6-1.9-1.4-2.5-2.4c-0.7-1.1-1.1-2.4-1.2-3.8h-4.3c0,1.5,0.3,2.9,1,4.3c0.7,1.4,1.7,2.7,2.9,3.7c1.4,1.1,2.9,2,4.6,2.5 c2.1,0.6,4.3,0.9,6.4,0.9c2,0,4-0.3,5.9-0.8c1.6-0.4,3.1-1.2,4.4-2.2c1.2-0.9,2.2-2,2.9-3.3c0.6-1.4,1-2.8,0.9-4.3 c0.1-1.4-0.2-2.8-0.8-4.1c-0.5-1.2-1.3-2.3-2.4-3.1c-1.3-1-2.7-1.8-4.2-2.4c-1.9-0.7-3.9-1.3-5.9-1.7c-1.8-0.4-3.5-0.9-5.2-1.5 c-1.1-0.4-2.2-1-3.1-1.7c-0.7-0.5-1.2-1.2-1.5-2c-0.3-0.7-0.4-1.5-0.4-2.3c0-0.8,0.2-1.6,0.6-2.4c0.3-0.8,0.9-1.6,1.6-2.2 c0.9-0.7,1.8-1.2,2.9-1.5c1.4-0.4,2.8-0.6,4.2-0.6c1.4,0,2.8,0.2,4.2,0.7c1.1,0.4,2.2,1,3.1,1.7c0.8,0.7,1.5,1.5,2,2.5 c0.4,0.9,0.6,1.9,0.6,2.9h4.2c0-1.6-0.3-3.1-0.9-4.6c-0.7-1.4-1.6-2.6-2.8-3.6c-1.3-1.1-2.9-1.9-4.5-2.4c-1.9-0.6-3.9-0.9-5.9-0.9 c-1.9,0-3.8,0.2-5.6,0.8c-1.5,0.5-3,1.3-4.3,2.2c-1.1,0.9-2,2-2.7,3.3c-0.6,1.3-1,2.6-0.9,4.1c0,1.4,0.3,2.8,0.9,4 c0.6,1.2,1.5,2.2,2.6,3c1.3,0.9,2.7,1.7,4.2,2.2c1.8,0.6,3.7,1.1,5.6,1.5c1.8,0.4,3.5,0.9,5.2,1.6c1.1,0.5,2.2,1.2,3.1,2 c0.6,0.6,1.2,1.3,1.5,2.2c0.3,0.8,0.4,1.6,0.4,2.4C246.7,139.8,246.5,140.7,246,141.5L246,141.5z M260.1,110.5v38.2h4.3v-26.2 c0.3-1.2,0.8-2.3,1.4-3.4c0.6-1.1,1.4-2,2.2-2.9c1-0.8,2.1-1.5,3.3-2c1.3-0.5,2.8-0.8,4.2-0.7c1.3,0,2.6,0.2,3.8,0.5 c1.1,0.3,2.1,0.8,2.9,1.6c0.9,0.8,1.6,1.9,2,3.1c0.5,1.5,0.7,3.2,0.6,4.8v25.2h4.3v-25.3c0.1-1.2,0.4-2.3,0.9-3.4 c0.6-1.2,1.3-2.2,2.2-3.2c1-1,2.2-1.8,3.5-2.4c1.5-0.7,3-1,4.6-0.9c1.3,0,2.5,0.1,3.8,0.4c1.1,0.3,2.2,0.8,3,1.7 c0.9,0.9,1.6,2,2,3.2c0.5,1.6,0.7,3.3,0.6,5v24.9h4.2v-24.9c0.1-2.1-0.2-4.3-0.8-6.4c-0.5-1.6-1.3-3.1-2.5-4.3 c-1.1-1.2-2.5-2.1-4-2.5c-1.7-0.5-3.5-0.8-5.3-0.8c-1.4,0-2.9,0.2-4.3,0.6c-1.3,0.3-2.5,0.9-3.6,1.5c-1.1,0.7-2.1,1.5-3,2.4 c-0.8,0.9-1.6,1.9-2.2,2.9c-0.7-2.3-2.2-4.3-4.3-5.6c-2.2-1.2-4.7-1.8-7.2-1.7c-1.3,0-2.6,0.1-3.9,0.5c-1.2,0.3-2.3,0.8-3.4,1.4 c-1.1,0.6-2,1.3-2.8,2.2c-0.9,0.9-1.6,1.8-2.2,2.9l-0.1-6.2L260.1,110.5z M352.9,148.7v-0.4c-0.2-0.5-0.4-1.1-0.5-1.6 c-0.1-0.6-0.2-1.2-0.4-1.9s-0.1-1.3-0.2-2s-0.1-1.4-0.1-2v-18.5c0-1.9-0.3-3.7-1-5.4c-0.6-1.5-1.6-2.8-2.9-3.9 c-1.3-1-2.8-1.8-4.3-2.3c-3.8-1.1-7.9-1.1-11.6,0.2c-1.7,0.6-3.2,1.4-4.6,2.5c-1.2,1-2.3,2.2-3,3.6c-0.7,1.3-1,2.7-1,4.1l4.2,0.1 c0-1.1,0.3-2.1,0.8-3c0.5-1,1.2-1.8,2.1-2.5c1-0.7,2.1-1.3,3.3-1.6c1.3-0.4,2.6-0.7,4-0.7c3.3,0,5.7,0.8,7.4,2.4 c1.7,1.7,2.7,4,2.5,6.4v4.3h-7.8c-2.5,0-4.9,0.3-7.3,0.8c-2,0.5-3.8,1.3-5.5,2.5c-3,1.9-4.8,5.3-4.6,8.8c0,1.5,0.3,2.9,0.9,4.3 c0.6,1.3,1.4,2.5,2.5,3.5c1.1,1,2.5,1.8,3.9,2.3c1.6,0.5,3.3,0.8,5.1,0.8c1.4,0,2.8-0.2,4.2-0.5c1.2-0.3,2.5-0.8,3.6-1.3 c1-0.5,2-1.2,2.9-1.9c0.9-0.7,1.6-1.4,2.2-2.3c0.1,1,0.1,1.9,0.3,3c0.1,0.8,0.3,1.6,0.6,2.4L352.9,148.7z M331.6,145.1 c-1-0.4-1.9-0.9-2.7-1.6c-0.7-0.6-1.3-1.5-1.7-2.4c-0.4-0.9-0.7-1.9-0.6-2.9c0-1.2,0.3-2.5,0.9-3.5c0.7-1.1,1.6-2,2.8-2.7 c1.3-0.8,2.8-1.4,4.3-1.7c1.9-0.4,3.8-0.6,5.8-0.6h7.2v8.4c-0.5,1.1-1.1,2.1-1.9,3c-0.8,0.9-1.7,1.7-2.8,2.4 c-1.1,0.7-2.3,1.2-3.5,1.6c-1.4,0.4-2.8,0.6-4.3,0.6C333.9,145.7,332.7,145.5,331.6,145.1L331.6,145.1z M367.7,94.5h-4.3v54.2h4.3 V94.5z M383.9,94.5h-4.3v54.2h4.3L383.9,94.5z"></path> <path class="st2" d="M152.2,911.5h282.4 M490.6,716.5v148.3"></path> <path d="M548.8,802.6v0.8l5.6,15h4.7l-3.9-10.5H590v-5.3H548.8z M549,765.3v5.5l28.5,18.4h3.1v-18.7h9.5v-5.2h-9.5v-5.7h-4.2v5.7 H549z M557.2,771.1l-1.1-0.6h20.1v12.8L557.2,771.1z"></path> <path d="M285.3,995.4h-20.6l11-12c5.2-5.5,7.7-10.4,7.7-14.4c0.1-3-1.1-5.9-3.3-8c-2.3-2-5.3-3-9.1-3c-4.1,0-7.3,1.2-9.8,3.5 c-2.5,2.4-3.8,5.7-3.7,9.1h5.3c-0.1-2.3,0.6-4.5,2.1-6.2c1.6-1.5,3.8-2.3,6.1-2.2c1.9-0.1,3.8,0.7,5.2,2.1c1.3,1.4,2,3.3,1.9,5.3 c0,1.6-0.4,3.2-1.2,4.6c-1.2,2.1-2.7,4.1-4.4,5.8l-14.2,15.8v3.8h26.9V995.4z M317.3,958.6h-27.7v4.3h22.2l-16.9,36.8h5.5l17-38.1 L317.3,958.6z"></path> <path class="st3" d="M410.7,747.3h-238c0,0,15.5,9.2,8.3,28.2c0,0,17.9,5.8,11,29.9c0,0,18.9,8.2,10,28.9c0,0,16.9,6.8,9.3,29.3 h160.9c-7.6-22.4,9.3-29.3,9.3-29.3c-8.9-20.8,10-28.9,10-28.9c-6.9-24.2,11-29.9,11-29.9C395.2,756.4,410.7,747.3,410.7,747.3"></path> <line class="st4" x1="202.5" y1="832.8" x2="380.8" y2="832.8"></line> <line class="st4" x1="192.7" y1="805.3" x2="391.4" y2="805.3"></line> <line class="st4" x1="180.9" y1="775.1" x2="402.4" y2="775.1"></line> </svg> 