<?xml version="1.0" encoding="UTF-8"?> <!-- Generator: Adobe Illustrator 23.0.3, SVG Export Plug-In . SVG Version: 6.00 Build 0) --> <svg xmlns="http://www.w3.org/2000/svg" xmlns:xlink="http://www.w3.org/1999/xlink" id="Livello_1" x="0px" y="0px" viewBox="0 0 732.9 1000" style="enable-background:new 0 0 732.9 1000;" xml:space="preserve"> <style type="text/css"> .st0{fill:#FFFFFF;} .st1{fill:#231F20;} .st2{fill:none;stroke:#000000;stroke-width:0.5;} .st3{fill:none;stroke:#231F20;stroke-width:0.5;stroke-miterlimit:10;} .st4{fill:none;stroke:#231F20;stroke-width:0.5;stroke-linejoin:round;} .st5{fill:none;} </style> <title>c&amp;apos;hi sospensione media</title> <rect class="st0" width="732.9" height="1000"></rect> <path class="st1" d="M144.2,44v8.5h0.8c3.9,0.1,7.8-0.6,11.5-2c3.1-1.2,5.9-3.2,8.1-5.7c2.3-2.5,3.9-5.5,4.9-8.8 c1.1-3.7,1.6-7.6,1.6-11.5v-3.7c0.1-2.9-0.4-5.8-1.2-8.5c-0.7-2.4-1.9-4.7-3.5-6.6c-1.5-1.8-3.4-3.3-5.5-4.3c-2.2-1-4.7-1.5-7.1-1.5 c-2.5,0-4.9,0.5-7.1,1.4c-2.1,0.9-3.9,2.3-5.4,4c-1.5,1.6-2.7,3.6-3.5,5.7c-0.8,2.3-1.2,4.7-1.2,7.1c0,2.3,0.3,4.6,0.9,6.8 c0.6,2,1.6,3.8,2.9,5.4c1.3,1.5,2.9,2.8,4.7,3.7c2,0.9,4.3,1.3,6.5,1.3c1.7,0,3.4-0.4,5-1.1c1.6-0.7,3-1.6,4.2-2.8 c-0.1,1.8-0.5,3.6-1.3,5.3c-0.7,1.5-1.7,2.9-3,3.9c-1.4,1.1-3.1,2-4.8,2.5c-2.2,0.6-4.4,0.8-6.7,0.8L144.2,44z M150.8,26.9 c-0.9-0.5-1.7-1.2-2.2-2.1c-0.6-0.9-1.1-1.9-1.4-3c-0.3-1.2-0.4-2.5-0.4-3.8c0-1.2,0.1-2.4,0.4-3.6c0.2-1.1,0.7-2.2,1.4-3.2 c0.5-0.9,1.3-1.6,2.2-2.2c0.9-0.6,1.9-0.9,3-0.9c1,0,2,0.2,2.9,0.6c0.9,0.5,1.7,1.2,2.3,2c0.7,1.1,1.2,2.2,1.5,3.5 c0.4,1.6,0.5,3.2,0.5,4.8v4.2c-0.6,1.2-1.5,2.3-2.7,3.1c-1.3,0.8-2.7,1.2-4.2,1.2C152.9,27.6,151.8,27.4,150.8,26.9L150.8,26.9z M185.5,44v8.5h0.8c3.9,0.1,7.8-0.6,11.5-2c3.1-1.2,5.9-3.2,8.1-5.7c2.3-2.5,3.9-5.5,4.9-8.8c1.1-3.7,1.6-7.6,1.6-11.5v-3.7 c0.1-2.9-0.4-5.8-1.2-8.5c-0.7-2.4-1.9-4.7-3.5-6.6c-1.5-1.8-3.4-3.3-5.5-4.3c-2.2-1-4.7-1.5-7.1-1.5c-2.4,0-4.9,0.5-7.1,1.4 c-2.1,0.9-3.9,2.3-5.4,4c-1.5,1.6-2.7,3.6-3.4,5.7c-0.8,2.3-1.2,4.7-1.2,7.1c0,2.3,0.3,4.6,0.9,6.8c0.6,2,1.6,3.8,2.9,5.4 c1.3,1.5,2.9,2.8,4.7,3.7c2,0.9,4.3,1.3,6.5,1.3c1.7,0,3.4-0.4,5-1.1c1.6-0.7,3-1.6,4.2-2.8c-0.1,1.8-0.5,3.6-1.3,5.3 c-0.7,1.5-1.7,2.9-3,3.9c-1.4,1.1-3.1,2-4.8,2.5c-2.2,0.6-4.4,0.8-6.7,0.8L185.5,44z M192.1,26.9c-0.9-0.5-1.6-1.2-2.2-2.1 c-0.7-0.9-1.1-1.9-1.4-3c-0.3-1.3-0.5-2.5-0.5-3.8c0-1.2,0.1-2.4,0.4-3.6c0.2-1.1,0.7-2.2,1.4-3.2c0.5-0.9,1.3-1.6,2.2-2.1 c0.9-0.6,1.9-0.9,3-0.9c1,0,2,0.2,2.9,0.6c0.9,0.5,1.7,1.2,2.3,2c0.7,1.1,1.2,2.2,1.5,3.5c0.4,1.6,0.5,3.2,0.5,4.8v4.2 c-0.6,1.2-1.5,2.3-2.7,3.1c-1.3,0.8-2.7,1.3-4.3,1.2C194.2,27.6,193,27.4,192.1,26.9L192.1,26.9z M254.1,21.9 c0.1-3.4-0.4-6.7-1.3-9.9c-0.7-2.5-1.9-4.8-3.5-6.8c-1.5-1.7-3.3-3.1-5.5-3.9c-2.2-0.9-4.6-1.4-7.1-1.3c-2.4,0-4.8,0.4-7.1,1.3 c-2.1,0.8-4,2.1-5.4,3.9c-1.7,2-2.9,4.3-3.5,6.8c-0.9,3.2-1.4,6.6-1.3,9.9v8.9c-0.1,3.3,0.4,6.7,1.3,9.9c0.7,2.5,1.9,4.8,3.5,6.8 c1.5,1.7,3.3,3.1,5.5,3.9c2.2,0.9,4.6,1.3,7.1,1.3c2.4,0,4.8-0.4,7.1-1.3c2.1-0.8,4-2.1,5.5-3.9c1.6-2,2.8-4.3,3.5-6.8 c0.9-3.2,1.3-6.5,1.2-9.9L254.1,21.9z M244,32.1c0,1.9-0.1,3.9-0.5,5.8c-0.2,1.3-0.7,2.6-1.4,3.8c-0.5,0.9-1.3,1.6-2.2,2.1 c-1.9,0.9-4.1,0.9-6.1,0c-0.9-0.5-1.7-1.2-2.2-2.1c-0.7-1.2-1.2-2.5-1.4-3.8c-0.3-1.9-0.5-3.8-0.4-5.8V20.4c0-1.9,0.1-3.8,0.4-5.7 c0.2-1.3,0.7-2.6,1.3-3.7c0.6-0.9,1.3-1.6,2.2-2.1c0.9-0.4,2-0.6,3-0.6c1,0,2.1,0.2,3,0.6c0.9,0.5,1.7,1.2,2.3,2.1 c0.7,1.2,1.2,2.4,1.4,3.8c0.4,1.9,0.5,3.8,0.5,5.7L244,32.1z M295.8,0.7h-36.2v8.2h25.4L265.3,52H276l19.8-45.6V0.7z M322.5,25.9 h-19.8v8.1h19.8V25.9z M365.4,43.7h-22l9-9.5c1.7-1.8,3.3-3.5,4.7-5.1c1.3-1.5,2.5-3.1,3.6-4.8c0.9-1.5,1.7-3.1,2.2-4.8 c0.6-1.6,0.9-3.3,0.9-5c0-2.1-0.3-4.2-1.1-6.1c-0.7-1.7-1.8-3.3-3.3-4.5c-1.5-1.3-3.3-2.3-5.2-2.9c-2.3-0.7-4.8-1-7.2-1 c-2.5,0-5.1,0.4-7.4,1.4c-2.1,0.8-4,2.1-5.6,3.6c-1.6,1.5-2.8,3.3-3.6,5.3c-0.8,2.1-1.2,4.3-1.2,6.6h10.2c0-1.2,0.1-2.3,0.5-3.5 c0.3-1,0.7-1.9,1.4-2.7c0.6-0.8,1.5-1.4,2.4-1.8c1-0.5,2.1-0.7,3.2-0.6c1.8-0.1,3.6,0.6,4.9,1.9c1.2,1.5,1.8,3.4,1.7,5.4 c0,0.8-0.1,1.6-0.4,2.3c-0.3,0.9-0.6,1.7-1.1,2.6c-0.6,1.1-1.3,2.1-2.1,3.1c-1,1.3-2,2.6-3.2,3.8L330.2,45v7h35.2V43.7z M406.7,43.7 h-22.1l9-9.5c1.7-1.8,3.3-3.5,4.7-5.1c1.3-1.5,2.6-3.1,3.6-4.8c0.9-1.5,1.7-3.1,2.2-4.8c0.6-1.6,0.9-3.3,0.9-5 c0-2.1-0.3-4.2-1.1-6.1c-0.7-1.7-1.8-3.3-3.2-4.5c-1.5-1.3-3.3-2.3-5.2-2.9c-2.3-0.7-4.8-1-7.2-1c-2.5,0-5.1,0.4-7.4,1.4 c-2.1,0.8-4,2.1-5.5,3.6c-1.6,1.5-2.8,3.3-3.6,5.3c-0.8,2.1-1.2,4.3-1.2,6.6h10.2c0-1.2,0.1-2.3,0.5-3.5c0.3-1,0.7-1.9,1.4-2.7 c0.6-0.8,1.5-1.4,2.4-1.8c1-0.5,2.1-0.7,3.2-0.6c1.8-0.1,3.6,0.6,4.9,1.9c1.2,1.5,1.8,3.4,1.7,5.4c0,0.8-0.1,1.6-0.4,2.3 c-0.3,0.9-0.6,1.8-1.1,2.6c-0.6,1.1-1.3,2.1-2.1,3.1c-1,1.3-2,2.6-3.2,3.8L371.5,45v7h35.2V43.7z"></path> <path class="st1" d="M146.4,109.9v38h4.3v-26.1c0.3-1.2,0.8-2.3,1.4-3.4c0.6-1,1.4-2,2.2-2.9c1-0.8,2.1-1.5,3.2-2 c1.3-0.5,2.8-0.8,4.2-0.7c1.3,0,2.6,0.1,3.8,0.5c2.3,0.6,4.1,2.4,4.8,4.7c0.5,1.5,0.7,3.1,0.6,4.8v25.1h4.3v-25.2 c0.1-1.2,0.4-2.3,0.9-3.4c0.6-1.2,1.3-2.2,2.2-3.2c1-1,2.2-1.8,3.5-2.4c1.4-0.7,3-1,4.6-0.9c1.3,0,2.5,0.1,3.8,0.4 c1.1,0.3,2.2,0.8,3,1.7c0.9,0.9,1.5,2,1.9,3.2c0.5,1.6,0.7,3.3,0.6,5V148h4.2v-24.8c0.1-2.1-0.2-4.3-0.8-6.3 c-0.5-1.6-1.3-3.1-2.4-4.3c-1.1-1.2-2.5-2.1-4-2.5c-1.7-0.5-3.5-0.8-5.3-0.8c-1.4,0-2.9,0.2-4.3,0.6c-1.3,0.3-2.5,0.8-3.6,1.5 c-1.1,0.6-2.1,1.4-2.9,2.4c-0.8,0.9-1.6,1.8-2.2,2.9c-0.7-2.3-2.2-4.3-4.3-5.6c-2.2-1.2-4.7-1.8-7.2-1.7c-1.3,0-2.6,0.1-3.9,0.5 c-1.2,0.3-2.3,0.8-3.4,1.4c-1.1,0.6-2,1.3-2.8,2.2c-0.9,0.9-1.6,1.8-2.2,2.9l-0.1-6.2L146.4,109.9z M229.8,148.1 c1.3-0.3,2.6-0.8,3.8-1.4c1.1-0.6,2-1.3,2.9-2.1c0.8-0.8,1.6-1.7,2.2-2.7l-2.7-1.9c-1.2,1.7-2.8,3-4.7,3.9c-1.9,0.9-3.9,1.3-6,1.2 c-1.8,0-3.7-0.4-5.3-1.2c-1.6-0.8-3-1.9-4.1-3.2c-1.2-1.4-2.1-3-2.7-4.8c-0.6-1.9-1-3.9-0.9-5.9v-0.8h27.2v-2.6c0-2.4-0.3-4.7-1-7 c-0.6-2-1.6-3.9-2.9-5.6c-1.3-1.5-2.9-2.8-4.8-3.6c-2-0.9-4.2-1.3-6.4-1.3c-2.1,0-4.3,0.5-6.2,1.4c-2,1-3.7,2.3-5.2,3.9 c-1.6,1.8-2.8,3.8-3.6,6.1c-0.9,2.6-1.3,5.3-1.3,8v1.5c0,2.6,0.4,5.1,1.3,7.5c0.8,2.2,2,4.2,3.5,5.9c1.5,1.7,3.3,3,5.4,3.8 c2.2,1,4.5,1.5,6.9,1.4C226.7,148.7,228.3,148.5,229.8,148.1L229.8,148.1z M229.1,113.8c1.3,0.7,2.4,1.6,3.4,2.7 c0.9,1.2,1.6,2.6,2,4c0.5,1.5,0.8,3.1,0.8,4.7v0.4h-22.8c0.2-1.8,0.7-3.6,1.4-5.3c0.6-1.5,1.4-2.8,2.5-4c1-1.1,2.2-2,3.6-2.7 c1.4-0.6,2.9-0.9,4.5-0.9C226,112.8,227.6,113.2,229.1,113.8L229.1,113.8z M246,129.3c-0.1,2.7,0.3,5.3,1,7.9 c0.6,2.2,1.6,4.3,2.9,6.1c1.2,1.7,2.8,3,4.6,4c1.9,1,4,1.5,6.1,1.4c2.4,0.1,4.9-0.5,7.1-1.5c1.9-1,3.6-2.5,4.8-4.3l0.1,5.1h4V94 h-4.2v21.3c-1.2-1.8-2.9-3.4-4.8-4.5c-2.1-1.1-4.5-1.7-6.9-1.6c-2.1,0-4.2,0.4-6.1,1.4c-1.8,0.9-3.4,2.3-4.7,3.9 c-1.3,1.9-2.3,3.9-2.9,6.1c-0.7,2.6-1.1,5.3-1,8L246,129.3z M250.2,128.5c0-2.1,0.2-4.2,0.6-6.2c0.4-1.8,1-3.5,2-5 c0.9-1.4,2.1-2.5,3.5-3.3c1.5-0.9,3.3-1.3,5-1.2c1.4,0,2.7,0.2,4,0.6c1.1,0.4,2.2,1,3.1,1.7c0.9,0.7,1.6,1.5,2.2,2.4 c0.6,0.9,1.2,1.8,1.6,2.8v17.9c-0.5,1-1.1,1.9-1.7,2.7c-0.6,0.8-1.4,1.6-2.3,2.2c-1,0.6-2,1.1-3.1,1.4c-1.3,0.4-2.6,0.5-3.9,0.5 c-1.7,0-3.5-0.4-5-1.2c-1.4-0.8-2.7-1.9-3.5-3.3c-1-1.5-1.6-3.2-2-5c-0.5-2-0.7-4.1-0.6-6.2L250.2,128.5z M292.4,109.9h-4.3v38.1 h4.3V109.9z M288.2,100.9c0.6,0.5,1.4,0.8,2.2,0.8c0.8,0,1.5-0.3,2.1-0.8c0.5-0.5,0.8-1.3,0.8-2c0-0.8-0.2-1.5-0.8-2 c-0.5-0.6-1.3-0.9-2.1-0.9c-0.8,0-1.6,0.3-2.2,0.9c-0.5,0.5-0.8,1.3-0.7,2C287.4,99.6,287.7,100.3,288.2,100.9z M328.3,147.9h4.1 v-38h-4.3v27.5c-0.4,1.1-0.8,2.1-1.4,3c-0.6,0.9-1.4,1.8-2.3,2.4c-1,0.7-2.2,1.3-3.4,1.6c-1.5,0.4-3,0.6-4.5,0.6 c-1.1,0-2.3-0.2-3.4-0.5c-1.1-0.4-2-1-2.8-1.8c-0.8-0.9-1.5-2-1.9-3.2c-0.5-1.7-0.7-3.4-0.7-5.1v-24.4h-4.2v24.4 c-0.1,2.2,0.2,4.5,0.9,6.6c0.5,1.7,1.4,3.2,2.5,4.5c1.1,1.1,2.5,2,4,2.5c4.1,1.3,8.5,1,12.5-0.7c1.9-0.9,3.5-2.3,4.8-4L328.3,147.9z M343.1,109.9v38.1h4.3v-26.1c0.4-1.2,0.8-2.3,1.4-3.4c0.6-1.1,1.4-2,2.2-2.9c1-0.8,2.1-1.5,3.2-2c1.3-0.5,2.8-0.8,4.2-0.7 c1.3,0,2.6,0.1,3.8,0.5c2.3,0.6,4.1,2.4,4.8,4.6c0.5,1.5,0.7,3.1,0.6,4.8v25.1h4.3v-25.2c0.1-1.2,0.4-2.3,0.9-3.4 c0.6-1.2,1.3-2.2,2.2-3.2c1-1,2.2-1.8,3.5-2.4c1.4-0.7,3-1,4.6-0.9c1.3,0,2.5,0.1,3.8,0.4c1.1,0.3,2.1,0.8,3,1.7 c0.9,0.9,1.6,2,2,3.2c0.5,1.6,0.7,3.3,0.6,5V148h4.2v-24.8c0.1-2.1-0.2-4.3-0.8-6.3c-0.5-1.6-1.3-3.1-2.5-4.3c-1.1-1.2-2.5-2-4-2.5 c-1.7-0.5-3.5-0.8-5.3-0.8c-1.4,0-2.9,0.2-4.3,0.6c-1.3,0.3-2.5,0.8-3.6,1.5c-1.1,0.7-2.1,1.5-3,2.4c-0.8,0.9-1.5,1.8-2.2,2.9 c-0.7-2.3-2.2-4.3-4.3-5.6c-2.2-1.2-4.7-1.8-7.2-1.7c-1.3,0-2.6,0.1-3.9,0.5c-1.2,0.3-2.3,0.8-3.4,1.4c-1.1,0.5-2,1.3-2.8,2.2 c-0.9,0.9-1.6,1.8-2.2,2.9l-0.1-6.2L343.1,109.9z"></path> <path class="st2" d="M128.7,908.3h287.8 M505.1,738.7v118.8"></path> <path d="M563.1,810v0.8l5.6,14.9h4.7l-3.9-10.5h34.7V810H563.1z M563.3,768.3v27.6h4.3v-22.1l36.7,16.9v-5.5l-38-16.9L563.3,768.3z"></path> <path d="M221.4,994.3l-2.8,5.7h3.5l2.1-4.2c1.7,0.7,3.5,1,5.4,1c2.5,0,5-0.6,7.2-1.9c2.1-1.4,3.8-3.3,4.9-5.5c1.2-2.5,1.8-5.2,1.7-8 c0-6-1.8-10.5-5.5-13.3l2.9-5.8h-3.5l-2,4.2c-1.8-0.8-3.8-1.2-5.8-1.2c-2.5,0-5,0.7-7.2,2c-2.1,1.3-3.8,3.3-4.9,5.5 c-1.2,2.5-1.8,5.2-1.7,8C215.6,987.1,217.6,991.5,221.4,994.3L221.4,994.3z M223.2,972.5c1.5-2,3.8-3.1,6.2-3c1.3,0,2.6,0.3,3.7,0.9 l-9.6,19.5c-1.8-2.1-2.7-5-2.7-8.6C220.8,977.6,221.6,974.7,223.2,972.5L223.2,972.5z M238.1,981.2c0.2,2.9-0.7,5.9-2.3,8.3 c-1.5,1.9-3.8,3.1-6.3,3c-1.2,0-2.3-0.2-3.4-0.7l9.6-19.3c1.7,2.4,2.6,5.3,2.4,8.2V981.2z M256.6,977.5h3.9c2.8,0,4.9,0.7,6.3,2 c1.5,1.4,2.3,3.4,2.2,5.5c0.1,2.1-0.6,4.1-2,5.6c-3.4,2.6-8.1,2.6-11.5,0c-1.4-1.3-2.2-3.2-2.1-5.1h-5.2c-0.1,3.2,1.2,6.2,3.6,8.2 c5.5,4.2,13.2,4.1,18.7-0.1c2.4-2.2,3.8-5.4,3.6-8.7c0-2.1-0.6-4.2-1.8-6c-1.3-1.7-3.2-2.9-5.2-3.5c1.9-0.8,3.5-2.1,4.7-3.7 c1.1-1.5,1.7-3.3,1.7-5.2c0-3.7-1.1-6.5-3.3-8.6s-5.2-3-9.1-3c-3.3-0.1-6.5,1.1-9,3.2c-2.3,2-3.6,5-3.6,8.1h5.2 c-0.1-1.9,0.6-3.7,2-5.1c1.5-1.4,3.4-2.1,5.4-2c4.8,0,7.2,2.4,7.2,7.2c0.1,1.9-0.7,3.8-2.1,5.1c-1.6,1.3-3.7,2.1-5.8,2h-3.9 L256.6,977.5z M288,976.8l1.4-1.1c1.6-1.1,3.5-1.6,5.4-1.5c2.2-0.1,4.4,0.8,5.9,2.5c1.6,1.8,2.4,4.2,2.2,6.6 c0.1,2.4-0.6,4.8-2.1,6.8c-1.4,1.7-3.5,2.6-5.7,2.5c-1.9,0.1-3.9-0.5-5.4-1.8c-1.4-1.4-2.3-3.3-2.5-5.3h-5c0.1,3.2,1.5,6.2,3.9,8.3 c2.5,2.1,5.6,3.1,8.9,3c4.1,0,7.3-1.2,9.6-3.6s3.4-5.8,3.4-10s-1.1-7.5-3.3-10c-2.3-2.5-5.5-3.8-8.9-3.7c-2.4-0.1-4.8,0.6-6.9,1.8 l1.2-11.2h16.6v-4.8h-20.9l-2.1,20.4L288,976.8z"></path> <path class="st3" d="M307.1,367.2l31.7,371.3 M254.9,367.2l-30.2,371.3 M238.1,367.2l-28.9,371.4"></path> <path class="st4" d="M171.5,738.6H369c0,0-9.7,26.5,10.8,32.3c0,0-10,20.8,10.8,29c0,0-9.7,22.6,11.5,30.1c0,0-9.7,21.5,9.3,30.5 h-283c19-9,9.3-30.5,9.3-30.5c21.2-7.5,11.5-30.1,11.5-30.1c20.8-8.3,10.8-29,10.8-29c20.4-5.7,10.8-32.3,10.8-32.3h99.7"></path> <path class="st0" d="M253.5,736.8c0-13.7,8.9-24.7,19.9-24.7s20,11.1,20,24.7"></path> <line class="st5" x1="162.1" y1="771.1" x2="379.4" y2="771.1"></line> <line class="st5" x1="151.4" y1="800.1" x2="390.1" y2="800.1"></line> <line class="st5" x1="135.6" y1="830.1" x2="400.5" y2="830.1"></line> <path class="st3" d="M253.5,736.8c0-13.7,8.9-24.7,19.9-24.7s20,11.1,20,24.7"></path> <line class="st3" x1="162.1" y1="771.1" x2="379.4" y2="771.1"></line> <line class="st3" x1="151.4" y1="800.1" x2="390.1" y2="800.1"></line> <line class="st3" x1="138.8" y1="829.8" x2="400.5" y2="829.8"></line> <path class="st3" d="M278.2,367.2c0,0,5.5,108.4,0,132.2c-2.8,12-36.9,147.7-6.5,212.3"></path> <rect x="217.8" y="321.2" class="st0" width="109.8" height="46"></rect> <rect x="217.8" y="321.2" class="st3" width="109.8" height="46"></rect> <line class="st3" x1="210.9" y1="367.2" x2="334.1" y2="367.2"></line> </svg> 