<?xml version="1.0" encoding="UTF-8"?> <svg xmlns="http://www.w3.org/2000/svg" id="Livello_1" data-name="Livello 1" viewBox="0 0 732.89 1003"><defs><style>.cls-1{fill:#fff;}.cls-2{fill:#231f20;}.cls-3,.cls-4,.cls-5{fill:none;stroke-width:0.25px;}.cls-3{stroke:#000;}.cls-4,.cls-5{stroke:#231f20;}.cls-4{stroke-miterlimit:10;}.cls-5{stroke-linejoin:round;}</style></defs><title>C&amp;apos;hi small tavolo</title><rect class="cls-1" y="3" width="732.89" height="1000"></rect><path class="cls-2" d="M121.6,41.73v8.65h.81a29.92,29.92,0,0,0,11.66-2.05,22,22,0,0,0,8.28-5.79,23.71,23.71,0,0,0,5-8.95A39,39,0,0,0,149,21.93V18.26a27.13,27.13,0,0,0-1.24-8.65,19.64,19.64,0,0,0-3.52-6.74,16.11,16.11,0,0,0-5.58-4.33A16.91,16.91,0,0,0,131.35-3a17.49,17.49,0,0,0-7.26,1.47,16,16,0,0,0-5.49,4,16.48,16.48,0,0,0-3.52,5.79,21.1,21.1,0,0,0-1.25,7.19,23.48,23.48,0,0,0,1,7,16.37,16.37,0,0,0,2.94,5.5,14.67,14.67,0,0,0,4.76,3.74,15.62,15.62,0,0,0,6.6,1.32,12.06,12.06,0,0,0,5.13-1.1A13.88,13.88,0,0,0,138.47,29a15.26,15.26,0,0,1-1.32,5.43,10.46,10.46,0,0,1-3.08,4,14,14,0,0,1-4.92,2.49,26,26,0,0,1-6.82.81Zm6.67-17.38A7,7,0,0,1,126,22.22a8.34,8.34,0,0,1-1.39-3.08,15.21,15.21,0,0,1-.44-3.81,14.79,14.79,0,0,1,.44-3.66A9.07,9.07,0,0,1,126,8.44a6.34,6.34,0,0,1,2.2-2.2,5.4,5.4,0,0,1,3.08-.88,6.81,6.81,0,0,1,2.93.66,8.65,8.65,0,0,1,2.35,2.05,11.28,11.28,0,0,1,1.54,3.52,18.72,18.72,0,0,1,.51,4.84v4.25a8.51,8.51,0,0,1-2.71,3.16,7.57,7.57,0,0,1-4.33,1.24,6.91,6.91,0,0,1-3.3-.73Zm35.38,17.38v8.65h.8a29.89,29.89,0,0,0,11.66-2.05,22,22,0,0,0,8.29-5.79,23.85,23.85,0,0,0,5-8.95A39,39,0,0,0,191,21.93V18.26a27.12,27.12,0,0,0-1.25-8.65,19.47,19.47,0,0,0-3.52-6.74,16.08,16.08,0,0,0-5.57-4.33A16.91,16.91,0,0,0,173.4-3a17.49,17.49,0,0,0-7.26,1.47,16.12,16.12,0,0,0-5.5,4,16.62,16.62,0,0,0-3.52,5.79,21.34,21.34,0,0,0-1.24,7.19,23.48,23.48,0,0,0,1,7,16.53,16.53,0,0,0,2.93,5.5,14.7,14.7,0,0,0,4.77,3.74,15.55,15.55,0,0,0,6.6,1.32,12.06,12.06,0,0,0,5.13-1.1A13.83,13.83,0,0,0,180.51,29a14.84,14.84,0,0,1-1.32,5.43,10.36,10.36,0,0,1-3.08,4,13.94,13.94,0,0,1-4.91,2.49,26.07,26.07,0,0,1-6.82.81Zm6.67-17.38a6.89,6.89,0,0,1-2.27-2.13,8.52,8.52,0,0,1-1.4-3.08,15.69,15.69,0,0,1-.44-3.81,15.28,15.28,0,0,1,.44-3.66,9.26,9.26,0,0,1,1.4-3.23,6.26,6.26,0,0,1,2.2-2.2,5.38,5.38,0,0,1,3.08-.88,6.85,6.85,0,0,1,2.93.66,8.8,8.8,0,0,1,2.35,2.05,11.28,11.28,0,0,1,1.54,3.52,19.17,19.17,0,0,1,.51,4.84v4.25A8.61,8.61,0,0,1,178,23.84a7.59,7.59,0,0,1-4.33,1.24,6.86,6.86,0,0,1-3.3-.73Zm63.17-5.06a33.9,33.9,0,0,0-1.32-10.12,18.15,18.15,0,0,0-3.6-6.89,13.49,13.49,0,0,0-5.57-4A18.76,18.76,0,0,0,215.81-3a19,19,0,0,0-7.18,1.32,13.28,13.28,0,0,0-5.5,4,18,18,0,0,0-3.59,6.89,33.9,33.9,0,0,0-1.32,10.12v9a33.73,33.73,0,0,0,1.32,10.05,19.44,19.44,0,0,0,3.59,7,13.55,13.55,0,0,0,5.57,4,19,19,0,0,0,7.19,1.32,18.67,18.67,0,0,0,7.18-1.32,13.52,13.52,0,0,0,5.58-4,19.44,19.44,0,0,0,3.59-7,36.37,36.37,0,0,0,1.25-10ZM223.15,29.7a26.55,26.55,0,0,1-.52,5.87,11.35,11.35,0,0,1-1.39,3.89A5.28,5.28,0,0,1,219,41.58a7.52,7.52,0,0,1-6.16,0,5.3,5.3,0,0,1-2.28-2.12,11.3,11.3,0,0,1-1.46-3.89,33.31,33.31,0,0,1-.44-5.87V17.75a32.42,32.42,0,0,1,.44-5.79,10.79,10.79,0,0,1,1.39-3.81A6.18,6.18,0,0,1,212.73,6a7.23,7.23,0,0,1,3.08-.59,6.78,6.78,0,0,1,3.08.59,5.82,5.82,0,0,1,2.35,2.13A10.79,10.79,0,0,1,222.63,12a25.84,25.84,0,0,1,.52,5.79Zm52.75-32H239.09V6.09H265L244.81,49.87h10.92L275.9,3.53ZM303.06,23.4H282.9v8.28h20.16ZM346,19.29a33.9,33.9,0,0,0-1.32-10.12,18.14,18.14,0,0,0-3.59-6.89,13.55,13.55,0,0,0-5.57-4A18.76,18.76,0,0,0,328.33-3a19,19,0,0,0-7.19,1.32,13.34,13.34,0,0,0-5.5,4,18.14,18.14,0,0,0-3.59,6.89,33.9,33.9,0,0,0-1.32,10.12v9a33.73,33.73,0,0,0,1.32,10.05,19.44,19.44,0,0,0,3.59,7,13.52,13.52,0,0,0,5.58,4,19,19,0,0,0,7.18,1.32,18.76,18.76,0,0,0,7.19-1.32,13.49,13.49,0,0,0,5.57-4,19.44,19.44,0,0,0,3.59-7,36.37,36.37,0,0,0,1.25-10ZM335.66,29.7a26.61,26.61,0,0,1-.51,5.87,11.56,11.56,0,0,1-1.39,3.89,5.3,5.3,0,0,1-2.28,2.12,7.52,7.52,0,0,1-6.16,0,5.28,5.28,0,0,1-2.27-2.12,11.5,11.5,0,0,1-1.47-3.89,33.31,33.31,0,0,1-.44-5.87V17.75a32.42,32.42,0,0,1,.44-5.79A11,11,0,0,1,323,8.15,6.18,6.18,0,0,1,325.25,6a7.21,7.21,0,0,1,3.08-.59,6.81,6.81,0,0,1,3.08.59,5.88,5.88,0,0,1,2.35,2.13A11,11,0,0,1,335.15,12a25.9,25.9,0,0,1,.51,5.79Zm42.42-32H377L355.42,5.43v8.36L367.74,10V49.87h10.34Z" transform="translate(0 3)"></path><path class="cls-2" d="M192.15,140.28a7,7,0,0,1-1.91,2.27,14,14,0,0,1-3.15,1.54,15.48,15.48,0,0,1-4.33.52,16.07,16.07,0,0,1-3.66-.37,10.8,10.8,0,0,1-3.45-1.32,7.34,7.34,0,0,1-2.57-2.42,7.53,7.53,0,0,1-1.17-3.81h-4.33a9.84,9.84,0,0,0,1,4.32,10.8,10.8,0,0,0,2.93,3.74,14.39,14.39,0,0,0,4.7,2.57,22,22,0,0,0,6.52,1,21.29,21.29,0,0,0,5.94-.8,12.89,12.89,0,0,0,4.47-2.2,10.89,10.89,0,0,0,2.94-3.38,9.66,9.66,0,0,0,.95-4.4,9.05,9.05,0,0,0-.81-4.1,8.23,8.23,0,0,0-2.42-3.16,18.16,18.16,0,0,0-4.25-2.42,41.09,41.09,0,0,0-6-1.76,40.63,40.63,0,0,1-5.28-1.53,11.32,11.32,0,0,1-3.15-1.69,3.88,3.88,0,0,1-1.54-2,5.85,5.85,0,0,1,.14-4.77,5.76,5.76,0,0,1,1.62-2.2,10,10,0,0,1,2.93-1.54,12.17,12.17,0,0,1,4.25-.58,12.6,12.6,0,0,1,4.25.66,9.23,9.23,0,0,1,3.16,1.76,7.32,7.32,0,0,1,2,2.56,6.89,6.89,0,0,1,.66,2.94h4.25a10.62,10.62,0,0,0-1-4.62,11.36,11.36,0,0,0-2.79-3.67,14.2,14.2,0,0,0-4.55-2.42,18.77,18.77,0,0,0-6-.88,18.48,18.48,0,0,0-5.64.81,14.08,14.08,0,0,0-4.33,2.27,9.83,9.83,0,0,0-2.71,3.37,8.9,8.9,0,0,0-1,4.11,9.27,9.27,0,0,0,.88,4.11,8,8,0,0,0,2.64,3,15.64,15.64,0,0,0,4.26,2.2,44.89,44.89,0,0,0,5.71,1.54,31.06,31.06,0,0,1,5.28,1.61,10.87,10.87,0,0,1,3.16,2,7,7,0,0,1,1.54,2.2,7.16,7.16,0,0,1,.44,2.42,5.37,5.37,0,0,1-.66,2.57Zm14.26-31.46v38.72h4.33V121a19,19,0,0,1,1.39-3.45,14.89,14.89,0,0,1,2.27-2.93,12.53,12.53,0,0,1,3.3-2.06,10.81,10.81,0,0,1,4.25-.73,13.32,13.32,0,0,1,3.89.51,7.08,7.08,0,0,1,4.91,4.77,15.42,15.42,0,0,1,.66,4.84v25.59h4.33V121.88a10.39,10.39,0,0,1,.88-3.45,14.29,14.29,0,0,1,2.2-3.23,12.53,12.53,0,0,1,3.52-2.42,10.51,10.51,0,0,1,4.69-1,15.28,15.28,0,0,1,3.81.44,6.38,6.38,0,0,1,3,1.69,7.72,7.72,0,0,1,2,3.22,16.3,16.3,0,0,1,.66,5.06v25.3h4.25V122.32a21.19,21.19,0,0,0-.8-6.46,10.73,10.73,0,0,0-2.5-4.4,9.3,9.3,0,0,0-4-2.56,16.89,16.89,0,0,0-5.35-.81,16.12,16.12,0,0,0-4.33.59,14.59,14.59,0,0,0-3.66,1.54,13.45,13.45,0,0,0-3,2.42,16.87,16.87,0,0,0-2.2,2.93,10.19,10.19,0,0,0-4.33-5.72,14.49,14.49,0,0,0-7.33-1.76,13.85,13.85,0,0,0-4,.51,13.21,13.21,0,0,0-3.45,1.4,10.5,10.5,0,0,0-2.85,2.2,14.94,14.94,0,0,0-2.28,2.93l-.14-6.31Zm94.16,38.72v-.44a12.42,12.42,0,0,1-.51-1.61c-.15-.59-.22-1.25-.37-1.91s-.15-1.32-.22-2.05-.07-1.4-.07-2.06V120.7a13.91,13.91,0,0,0-1-5.5,10.85,10.85,0,0,0-2.93-4,12.81,12.81,0,0,0-4.4-2.34,20.28,20.28,0,0,0-11.81.14,16.82,16.82,0,0,0-4.69,2.57,11.91,11.91,0,0,0-3,3.67,8.44,8.44,0,0,0-1,4.18l4.26.07a6.45,6.45,0,0,1,.8-3.08,8.5,8.5,0,0,1,2.13-2.49,10,10,0,0,1,3.3-1.62,12.39,12.39,0,0,1,4.11-.66q4.95,0,7.48,2.42a8.47,8.47,0,0,1,2.56,6.53V125h-7.92a31.87,31.87,0,0,0-7.4.81,16.83,16.83,0,0,0-5.58,2.49,10.13,10.13,0,0,0-4.69,8.94,10.58,10.58,0,0,0,.88,4.33,10.35,10.35,0,0,0,2.49,3.52,11.83,11.83,0,0,0,4,2.35,16.48,16.48,0,0,0,5.14.8,19.48,19.48,0,0,0,4.25-.51,24.61,24.61,0,0,0,3.67-1.32,13.7,13.7,0,0,0,2.93-2,11.17,11.17,0,0,0,2.27-2.35c.08,1,.15,2,.3,3a9.66,9.66,0,0,0,.58,2.42Zm-21.63-3.67a8.62,8.62,0,0,1-2.79-1.61,6.38,6.38,0,0,1-1.69-2.42,6.62,6.62,0,0,1-.66-2.93,7.29,7.29,0,0,1,1-3.6,7.62,7.62,0,0,1,2.78-2.71,13.66,13.66,0,0,1,4.4-1.69,23.77,23.77,0,0,1,5.87-.58h7.33v8.5a13,13,0,0,1-1.9,3,15,15,0,0,1-2.79,2.42,14.25,14.25,0,0,1-3.59,1.61,16.12,16.12,0,0,1-4.33.59,10.72,10.72,0,0,1-3.59-.59Zm36.69-51.32h-4.32v55h4.32Zm16.41,0h-4.32v55H332Z" transform="translate(0 3)"></path><path class="cls-3" d="M93.2,899.57H405M538.23,461V834.54" transform="translate(0 3)"></path><path d="M620.07,669.61v-4c.06-2.81.7-5,2-6.44a6.86,6.86,0,0,1,5.57-2.23,7.74,7.74,0,0,1,5.74,2,9.53,9.53,0,0,1,0,11.66,6.79,6.79,0,0,1-5.22,2.11v5.33a10.52,10.52,0,0,0,8.38-3.69,15.68,15.68,0,0,0-.12-19,11.35,11.35,0,0,0-8.9-3.69,10.22,10.22,0,0,0-6.15,1.87,10.54,10.54,0,0,0-3.57,5.33A10.74,10.74,0,0,0,614,654a9.19,9.19,0,0,0-5.27-1.76c-3.75,0-6.62,1.12-8.73,3.34s-3.1,5.33-3.1,9.26a13.26,13.26,0,0,0,3.28,9.19,10.62,10.62,0,0,0,8.2,3.63v-5.33a6.75,6.75,0,0,1-5.16-2,7.55,7.55,0,0,1-2-5.5c0-4.86,2.46-7.32,7.32-7.32a6.7,6.7,0,0,1,5.21,2.16,8.91,8.91,0,0,1,2,5.92v4Zm-5.56-51.38c-6,.06-10.43,1.17-13.3,3.28s-4.33,5.39-4.33,9.9,1.46,7.84,4.45,10,7.55,3.17,13.64,3.17h7.09c5.86-.06,10.25-1.18,13.24-3.34s4.39-5.39,4.39-9.84-1.52-7.85-4.51-10-7.61-3.16-13.82-3.16Zm8.25,5.27c4.34.06,7.56.76,9.55,2a7.09,7.09,0,0,1-.17,11.77c-2.17,1.29-5.45,2-10,2h-8.49c-4.22,0-7.38-.7-9.43-1.93a6.38,6.38,0,0,1-3-5.91,6.45,6.45,0,0,1,3.1-6c2.05-1.29,5.28-1.93,9.79-1.93Z" transform="translate(0 3)"></path><path d="M208,991.2l-2.87,5.8h3.57l2.11-4.28a14.63,14.63,0,0,0,5.44,1,14,14,0,0,0,7.33-1.93,13.7,13.7,0,0,0,5-5.63,18.31,18.31,0,0,0,1.76-8.14c0-6.09-1.87-10.66-5.56-13.59l2.93-5.85h-3.58l-2.05,4.27a14,14,0,0,0-5.85-1.23,13.55,13.55,0,0,0-7.33,2,13.39,13.39,0,0,0-5,5.63,18.13,18.13,0,0,0-1.76,8.14c0,6.38,2,11,5.86,13.82Zm1.87-22.14a7.61,7.61,0,0,1,6.33-3.1,7.83,7.83,0,0,1,3.8.93l-9.78,19.86c-1.87-2.17-2.75-5-2.75-8.73,0-3.86.76-6.85,2.4-9ZM225,977.85c0,3.51-.76,6.32-2.34,8.43a7.81,7.81,0,0,1-6.39,3.11,8.25,8.25,0,0,1-3.45-.71L222.53,969a13.32,13.32,0,0,1,2.46,8.38Zm38.5,10.95H242.58l11.13-12.12c5.27-5.63,7.85-10.55,7.85-14.65a10.45,10.45,0,0,0-3.34-8.08c-2.28-2.05-5.33-3.05-9.2-3.05-4.15,0-7.43,1.18-9.89,3.58a12,12,0,0,0-3.75,9.25h5.33a8.73,8.73,0,0,1,2.16-6.27,8.36,8.36,0,0,1,6.15-2.22,7,7,0,0,1,5.28,2.11,7.47,7.47,0,0,1,1.93,5.33,10.08,10.08,0,0,1-1.17,4.68,32.68,32.68,0,0,1-4.45,5.92L236.2,989.33v3.8h27.29Zm12.32-15.46,1.4-1.12a8.79,8.79,0,0,1,5.45-1.52,7.65,7.65,0,0,1,6,2.52A9.65,9.65,0,0,1,291,980a10.47,10.47,0,0,1-2.11,6.91,7.1,7.1,0,0,1-5.8,2.52,7.88,7.88,0,0,1-5.45-1.82,8.38,8.38,0,0,1-2.51-5.39h-5a12.29,12.29,0,0,0,4,8.49,13.14,13.14,0,0,0,9,3.05c4.16,0,7.38-1.23,9.72-3.69s3.46-5.86,3.46-10.13-1.11-7.68-3.34-10.19a11.45,11.45,0,0,0-9-3.75,13.18,13.18,0,0,0-7,1.81l1.23-11.36H295v-4.92H273.7l-2.11,20.79Z" transform="translate(0 3)"></path><polyline class="cls-1" points="257.72 602.42 257.72 760.27 237.63 760.27 237.63 602.42"></polyline><polyline class="cls-4" points="257.72 602.42 257.72 760.27 237.63 760.27 237.63 602.42"></polyline><polyline class="cls-1" points="200.98 450.61 200.98 439.5 288.2 439.5 288.2 448.41"></polyline><polyline class="cls-4" points="200.98 450.61 200.98 439.5 288.2 439.5 288.2 448.41"></polyline><path class="cls-1" d="M253.64,445.77H203m-10.25,0h160s-18.86,28.81,12.06,39.15c0,0-13.57,27,12.08,37.12,0,0-12.83,32.31,14.32,40.44,0,0-14.32,24.38,11.31,36.94H244.89" transform="translate(0 3)"></path><path class="cls-5" d="M253.64,445.77H203m-10.25,0h160s-18.86,28.81,12.06,39.15c0,0-13.57,27,12.08,37.12,0,0-12.83,32.31,14.32,40.44,0,0-14.32,24.38,11.31,36.94H244.89" transform="translate(0 3)"></path><path class="cls-1" d="M202.69,445.77H145.46s18.88,28.81-12.07,39.15c0,0,13.59,27-12.08,37.12,0,0,12.83,32.31-14.35,40.44,0,0,14.35,24.38-11.32,36.94H253.43" transform="translate(0 3)"></path><path class="cls-5" d="M202.69,445.77H145.46s18.88,28.81-12.07,39.15c0,0,13.59,27-12.08,37.12,0,0,12.83,32.31-14.35,40.44,0,0,14.35,24.38-11.32,36.94H253.43" transform="translate(0 3)"></path><path class="cls-4" d="M103.72,566.05H394.43m-276-41.37H379.75m-249-38H367.39" transform="translate(0 3)"></path><polyline class="cls-1" points="314.87 797.29 314.87 808.63 174.16 808.63 174.16 797.29"></polyline><polyline class="cls-4" points="314.87 797.29 314.87 808.63 174.16 808.63 174.16 797.29"></polyline><rect class="cls-1" x="160.41" y="780.67" width="168.37" height="16.62"></rect><rect class="cls-4" x="160.41" y="780.67" width="168.37" height="16.62"></rect><polygon class="cls-1" points="266.21 780.67 257.72 760.27 237.63 760.27 232.23 780.67 266.21 780.67"></polygon><polygon class="cls-4" points="266.21 780.67 257.72 760.27 237.63 760.27 232.23 780.67 266.21 780.67 266.21 780.67"></polygon></svg> 