<?xml version="1.0" encoding="UTF-8"?> <!-- Generator: Adobe Illustrator 23.0.3, SVG Export Plug-In . SVG Version: 6.00 Build 0) --> <svg xmlns="http://www.w3.org/2000/svg" xmlns:xlink="http://www.w3.org/1999/xlink" id="Livello_1" x="0px" y="0px" viewBox="0 0 732.9 1000" style="enable-background:new 0 0 732.9 1000;" xml:space="preserve"> <style type="text/css"> .st0{fill:#FFFFFF;} .st1{fill:#231F20;} .st2{fill:none;stroke:#000000;stroke-width:0.25;} .st3{fill:none;stroke:#231F20;stroke-width:0.25;stroke-miterlimit:10;} .st4{fill:none;stroke:#231F20;stroke-width:0.25;stroke-linejoin:round;} .st5{fill:none;stroke:#000000;stroke-width:0.25;stroke-miterlimit:10;} </style> <title>C&amp;apos;hi terra</title> <rect class="st0" width="732.9" height="1000"></rect> <path class="st1" d="M231.1,32.5v6.3h0.6c2.9,0.1,5.8-0.4,8.5-1.5c2.3-0.9,4.4-2.4,6-4.2c1.7-1.9,2.9-4.1,3.6-6.5 c0.8-2.7,1.2-5.6,1.2-8.5v-2.7c0-2.1-0.3-4.3-0.9-6.3c-0.5-1.8-1.4-3.4-2.6-4.9c-1.1-1.3-2.5-2.4-4-3.1C241.8,0.4,240,0,238.1,0 c-1.8,0-3.6,0.3-5.3,1.1c-1.5,0.7-2.9,1.7-4,2.9c-1.1,1.2-2,2.6-2.6,4.2c-0.6,1.7-0.9,3.4-0.9,5.2c0,1.7,0.2,3.4,0.7,5.1 c0.5,1.5,1.2,2.8,2.1,4c1,1.1,2.1,2.1,3.5,2.7c1.5,0.7,3.1,1,4.8,1c1.3,0,2.6-0.3,3.7-0.8c1.1-0.5,2.2-1.2,3.1-2.1 c-0.1,1.4-0.4,2.7-1,3.9c-0.5,1.1-1.3,2.1-2.2,2.9c-1.1,0.8-2.3,1.4-3.6,1.8c-1.6,0.4-3.3,0.6-5,0.6L231.1,32.5z M235.9,19.9 c-0.7-0.4-1.2-0.9-1.6-1.5c-0.5-0.7-0.8-1.4-1-2.2c-0.2-0.9-0.3-1.8-0.3-2.8c0-0.9,0.1-1.8,0.3-2.7c0.2-0.8,0.5-1.6,1-2.3 c0.4-0.7,0.9-1.2,1.6-1.6c0.7-0.4,1.4-0.7,2.2-0.6c0.7,0,1.5,0.2,2.1,0.5c0.6,0.4,1.2,0.9,1.7,1.5c0.5,0.8,0.9,1.6,1.1,2.6 c0.3,1.2,0.4,2.3,0.4,3.5v3.1c-0.5,0.9-1.2,1.7-2,2.3c-0.9,0.6-2,0.9-3.1,0.9C237.5,20.4,236.6,20.2,235.9,19.9L235.9,19.9z M261.6,32.5v6.3h0.6c2.9,0.1,5.8-0.4,8.5-1.5c2.3-0.9,4.4-2.4,6-4.2c1.7-1.9,2.9-4.1,3.6-6.5c0.8-2.7,1.2-5.6,1.2-8.5v-2.7 c0-2.1-0.3-4.3-0.9-6.3c-0.5-1.8-1.4-3.4-2.6-4.9c-1.1-1.3-2.5-2.4-4-3.1c-1.7-0.8-3.5-1.1-5.3-1.1c-1.8,0-3.6,0.3-5.3,1.1 c-1.5,0.7-2.9,1.7-4,2.9c-1.1,1.2-2,2.6-2.6,4.2c-0.6,1.7-0.9,3.4-0.9,5.2c0,1.7,0.2,3.4,0.7,5.1c0.5,1.5,1.2,2.8,2.1,4 c1,1.1,2.1,2.1,3.5,2.7c1.5,0.7,3.1,1,4.8,1c1.3,0,2.6-0.3,3.7-0.8c1.1-0.5,2.2-1.2,3.1-2.1c-0.1,1.4-0.4,2.7-1,3.9 c-0.5,1.1-1.3,2.1-2.2,2.9c-1.1,0.8-2.3,1.4-3.6,1.8c-1.6,0.4-3.3,0.6-5,0.6L261.6,32.5z M266.5,19.9c-0.7-0.4-1.2-0.9-1.6-1.5 c-0.5-0.7-0.8-1.4-1-2.2c-0.2-0.9-0.3-1.8-0.3-2.8c0-0.9,0.1-1.8,0.3-2.7c0.2-0.8,0.5-1.6,1-2.3c0.4-0.7,0.9-1.2,1.6-1.6 c0.7-0.4,1.4-0.7,2.2-0.6c0.7,0,1.5,0.2,2.1,0.5c0.6,0.4,1.2,0.9,1.7,1.5c0.5,0.8,0.9,1.6,1.1,2.6c0.3,1.2,0.4,2.3,0.4,3.5v3.1 c-0.5,0.9-1.2,1.7-2,2.3c-0.9,0.6-2,0.9-3.1,0.9C268,20.4,267.2,20.2,266.5,19.9L266.5,19.9z M312.4,16.2c0-2.5-0.3-5-1-7.4 c-0.5-1.8-1.4-3.5-2.6-5c-1.1-1.3-2.4-2.3-4-2.8c-1.7-0.7-3.4-1-5.2-1c-1.8,0-3.6,0.3-5.2,1c-1.6,0.6-2.9,1.6-4,2.9 c-1.2,1.5-2.1,3.2-2.6,5c-0.7,2.4-1,4.9-1,7.4v6.6c0,2.5,0.3,4.9,1,7.3c0.5,1.8,1.4,3.6,2.6,5.1c1.1,1.3,2.5,2.3,4.1,2.8 c1.7,0.7,3.4,1,5.2,1c1.8,0,3.6-0.3,5.2-1c1.6-0.6,2.9-1.6,4-2.9c1.2-1.5,2.1-3.2,2.6-5.1c0.6-2.4,0.9-4.8,0.9-7.3L312.4,16.2z M304.8,23.8c0,1.4-0.1,2.9-0.4,4.3c-0.2,1-0.5,2-1,2.8c-0.4,0.7-1,1.2-1.6,1.5c-1.4,0.6-3.1,0.6-4.5,0c-0.7-0.3-1.3-0.9-1.6-1.5 c-0.5-0.9-0.9-1.8-1.1-2.8c-0.2-1.4-0.3-2.8-0.3-4.3v-8.7c0-1.4,0.1-2.8,0.3-4.2c0.2-1,0.5-1.9,1-2.8c0.4-0.6,1-1.2,1.6-1.6 c0.7-0.3,1.5-0.4,2.2-0.4c0.8,0,1.5,0.1,2.2,0.4c0.7,0.4,1.3,0.9,1.7,1.6c0.5,0.9,0.8,1.8,1,2.8c0.3,1.4,0.4,2.8,0.4,4.2L304.8,23.8 z M343.2,0.5h-26.7v6.1h18.8l-14.6,31.8h7.9l14.7-33.7V0.5z M362.9,19.2h-14.6v6h14.6V19.2z M386.9,0.5h-0.8l-15.7,5.7v6.1l9-2.8v29 h7.5L386.9,0.5z M424.6,16.2c0-2.5-0.3-5-1-7.4c-0.5-1.8-1.4-3.5-2.6-5c-1.1-1.3-2.5-2.3-4-2.8c-1.7-0.7-3.4-1-5.2-1 c-1.8,0-3.6,0.3-5.2,1c-1.6,0.6-2.9,1.6-4,2.9c-1.2,1.5-2.1,3.2-2.6,5c-0.7,2.4-1,4.9-1,7.4v6.6c0,2.5,0.3,4.9,1,7.3 c0.5,1.8,1.4,3.6,2.6,5.1c1.1,1.3,2.4,2.3,4,2.9c1.7,0.7,3.4,1,5.2,1c1.8,0,3.6-0.3,5.2-1c1.6-0.6,2.9-1.6,4-2.9 c1.2-1.5,2.1-3.2,2.6-5.1c0.6-2.4,0.9-4.8,0.9-7.3L424.6,16.2z M417.1,23.8c0,1.4-0.1,2.9-0.4,4.3c-0.2,1-0.5,2-1,2.8 c-0.4,0.7-1,1.2-1.6,1.5c-1.4,0.6-3,0.6-4.5,0c-0.7-0.3-1.3-0.9-1.6-1.5c-0.5-0.9-0.9-1.8-1.1-2.9c-0.2-1.4-0.3-2.8-0.3-4.3v-8.7 c0-1.4,0.1-2.8,0.3-4.2c0.2-1,0.5-1.9,1-2.8c0.4-0.6,1-1.2,1.6-1.6c0.7-0.3,1.5-0.4,2.2-0.4c0.8,0,1.5,0.1,2.2,0.4 c0.7,0.4,1.3,0.9,1.7,1.6c0.5,0.9,0.8,1.8,1,2.8c0.3,1.4,0.4,2.8,0.4,4.2L417.1,23.8z"></path> <path class="st2" d="M217.7,931h214.8 M529.5,161.7v734.8"></path> <path d="M572.4,548.6v0.6l4.1,11h3.5l-2.8-7.8h25.6v-3.9L572.4,548.6z M572.5,517.7v20.4h3.2v-16.3l27.1,12.5v-4l-28.1-12.5 L572.5,517.7z M584.9,494.4c-4.4,0-7.6,0.9-9.7,2.4s-3.2,3.9-3.2,7.2s1.1,5.7,3.2,7.2s5.5,2.3,9.9,2.3h5.2c4.3,0,7.4-0.8,9.6-2.4 s3.2-3.9,3.2-7.1s-1.1-5.7-3.3-7.2s-5.5-2.3-10-2.3L584.9,494.4z M590.9,498.2c3.2,0,5.5,0.6,6.9,1.5c2.3,1.6,2.9,4.8,1.3,7.2 c-0.4,0.5-0.9,1-1.4,1.4c-1.6,0.9-4,1.5-7.2,1.5h-6.2c-3.1,0-5.4-0.5-6.8-1.4c-2.4-1.7-2.9-5-1.2-7.4c0.3-0.5,0.8-0.9,1.2-1.2 c1.5-0.9,3.8-1.4,7.1-1.4H590.9z"></path> <path d="M289.6,994.6l-2.1,4.2h2.6l1.5-3.1c1.3,0.5,2.6,0.7,4,0.7c1.9,0,3.7-0.5,5.3-1.4c1.6-1,2.8-2.4,3.6-4.1 c0.9-1.9,1.3-3.9,1.2-6c0-4.4-1.4-7.7-4-9.9l2.1-4.3h-2.6l-1.5,3.1c-1.3-0.6-2.8-0.9-4.3-0.9c-1.9,0-3.7,0.5-5.3,1.4 c-1.6,1-2.8,2.4-3.6,4.1c-0.9,1.8-1.3,3.9-1.3,5.9C285.3,989.2,286.8,992.5,289.6,994.6L289.6,994.6z M291,978.5 c1.1-1.5,2.8-2.3,4.6-2.3c1,0,1.9,0.2,2.8,0.7l-7.1,14.4c-1.4-1.8-2.1-4.1-2-6.3C289.3,982.2,289.8,980,291,978.5L291,978.5z M302,984.9c0.1,2.2-0.5,4.3-1.7,6.1c-1.1,1.5-2.8,2.3-4.6,2.3c-0.9,0-1.7-0.2-2.5-0.5l7.1-14.3c1.3,1.8,1.9,3.9,1.8,6.1L302,984.9z M326.4,965.8h-4.2l-13.5,21v2.2h13.8v7h3.8v-7h4.2v-3.2h-4.2L326.4,965.8z M322.1,971.9l0.5-0.8v14.8H313L322.1,971.9z M338.9,981.6l1-0.8c1.2-0.8,2.6-1.2,4-1.1c1.7-0.1,3.3,0.6,4.4,1.8c1.2,1.4,1.8,3.1,1.7,4.9c0.1,1.8-0.4,3.6-1.5,5 c-1,1.2-2.6,1.9-4.2,1.8c-1.5,0.1-2.9-0.4-4-1.3c-1.1-1-1.7-2.4-1.8-3.9h-3.7c0.1,2.4,1.2,4.6,2.9,6.2c1.8,1.5,4.2,2.3,6.5,2.2 c2.6,0.1,5.2-0.8,7.1-2.7c1.8-2,2.7-4.7,2.5-7.4c0.1-2.7-0.7-5.3-2.4-7.4c-1.7-1.8-4.1-2.8-6.5-2.7c-1.8,0-3.5,0.4-5.1,1.3l0.9-8.3 h12.3v-3.6h-15.5l-1.5,15.1L338.9,981.6z"></path> <rect x="284.1" y="148.4" class="st0" width="82.1" height="4"></rect> <polyline class="st3" points="284.1,152.4 284.1,148.4 366.1,148.4 366.1,152.4 "></polyline> <path class="st0" d="M260.1,153.8c0,0,7.1,13.1-6,22c0,0,5.5,18.4-8.1,21c0,0,6.5,14.7-6.6,22c0,0,7.1,15.7-7,21.5h185.2 c-14.1-5.8-7-21.5-7-21.5c-13.1-7.3-6.5-22-6.5-22c-13.6-2.6-8.1-21-8.1-21c-13.1-8.9-6-22-6-22H260.1z"></path> <path class="st4" d="M260.1,153.8c0,0,7.1,13.1-6,22c0,0,5.5,18.4-8.1,21c0,0,6.5,14.7-6.6,22c0,0,7.1,15.7-7,21.5h185.2 c-14.1-5.8-7-21.5-7-21.5c-13.1-7.3-6.5-22-6.5-22c-13.6-2.6-8.1-21-8.1-21c-13.1-8.9-6-22-6-22H260.1z"></path> <path class="st3" d="M238.2,220.7L238.2,220.7z"></path> <path class="st3" d="M244.8,198.1L244.8,198.1z"></path> <path class="st3" d="M253,176.5L253,176.5z"></path> <rect x="280.8" y="890.3" class="st3" width="88.4" height="5.4"></rect> <rect x="274.1" y="884.4" class="st3" width="101.7" height="5.9"></rect> <polygon class="st0" points="322,240.3 322,876.8 322.2,876.8 328.2,876.8 328.2,240.3 "></polygon> <polyline class="st3" points="322,240.3 322,876.8 328.2,876.8 328.2,240.3 "></polyline> <polyline class="st0" points="319.1,884.4 330.4,884.4 328.3,876.8 322.2,876.8 319.1,884.4 "></polyline> <polyline class="st3" points="319.1,884.4 330.4,884.4 328.3,876.8 322.2,876.8 319.1,884.4 "></polyline> <line class="st5" x1="253" y1="176.5" x2="396.2" y2="176.5"></line> <line class="st5" x1="244.8" y1="197.3" x2="403" y2="197.3"></line> <line class="st5" x1="239.5" y1="219.2" x2="410.8" y2="219.2"></line> </svg> 