<?xml version="1.0" encoding="UTF-8"?> <!-- Generator: Adobe Illustrator 23.0.3, SVG Export Plug-In . SVG Version: 6.00 Build 0) --> <svg xmlns="http://www.w3.org/2000/svg" xmlns:xlink="http://www.w3.org/1999/xlink" id="Livello_1" x="0px" y="0px" viewBox="0 0 732.9 1000" style="enable-background:new 0 0 732.9 1000;" xml:space="preserve"> <style type="text/css"> .st0{fill:#FFFFFF;} .st1{fill:#231F20;} .st2{fill:none;stroke:#000000;stroke-width:0.5;} .st3{fill:none;stroke:#231F20;stroke-width:0.5;stroke-miterlimit:10;} </style> <title>C&amp;apos;hi sospensione maxi</title> <rect class="st0" width="732.9" height="1000"></rect> <path class="st1" d="M159.2,44v8.5h0.8c3.9,0.1,7.8-0.6,11.4-2c3.1-1.2,5.9-3.2,8.1-5.7c2.3-2.5,3.9-5.5,4.9-8.8 c1.1-3.7,1.6-7.6,1.6-11.5v-3.6c0.1-2.9-0.4-5.8-1.2-8.5c-0.7-2.4-1.9-4.7-3.4-6.6c-1.5-1.8-3.4-3.3-5.5-4.3c-2.2-1-4.7-1.5-7.1-1.5 c-2.5,0-4.9,0.5-7.1,1.4c-2.1,0.9-3.9,2.3-5.4,4c-1.5,1.6-2.7,3.6-3.5,5.7c-0.8,2.3-1.2,4.7-1.2,7.1c0,2.3,0.3,4.6,0.9,6.8 c0.6,2,1.6,3.8,2.9,5.4c1.3,1.5,2.9,2.8,4.7,3.7c2,0.9,4.3,1.3,6.5,1.3c1.7,0,3.5-0.4,5.1-1.1c1.6-0.7,3-1.6,4.2-2.8 c-0.1,1.8-0.5,3.6-1.3,5.3c-0.7,1.5-1.7,2.9-3,3.9c-1.4,1.1-3.1,2-4.8,2.5c-2.2,0.6-4.4,0.8-6.7,0.8L159.2,44z M165.8,26.9 c-0.9-0.5-1.6-1.2-2.2-2.1c-0.7-0.9-1.1-1.9-1.4-3c-0.3-1.2-0.4-2.5-0.4-3.8c0-1.2,0.1-2.4,0.4-3.6c0.2-1.1,0.7-2.2,1.4-3.2 c0.5-0.9,1.3-1.6,2.2-2.2c0.9-0.6,1.9-0.9,3-0.9c1,0,2,0.2,2.9,0.6c0.9,0.5,1.7,1.2,2.3,2c0.7,1.1,1.2,2.2,1.5,3.5 c0.4,1.6,0.6,3.2,0.5,4.8v4.2c-0.6,1.2-1.5,2.3-2.7,3.1c-1.3,0.8-2.7,1.2-4.3,1.2C167.9,27.6,166.8,27.4,165.8,26.9L165.8,26.9z M200.5,44v8.5h0.8c3.9,0.1,7.8-0.6,11.5-2c3.1-1.2,5.9-3.2,8.1-5.7c2.3-2.5,3.9-5.5,4.9-8.8c1.1-3.7,1.6-7.6,1.6-11.5v-3.7 c0.1-2.9-0.4-5.8-1.2-8.5c-0.7-2.4-1.9-4.7-3.5-6.6c-1.5-1.8-3.4-3.3-5.5-4.3c-2.2-1-4.7-1.5-7.1-1.5c-2.4,0-4.9,0.5-7.1,1.4 c-2.1,0.9-3.9,2.3-5.4,4c-1.5,1.6-2.7,3.6-3.5,5.7c-0.8,2.3-1.2,4.7-1.2,7.1c0,2.3,0.3,4.6,0.9,6.8c0.6,2,1.6,3.8,2.9,5.4 c1.3,1.5,2.9,2.8,4.7,3.7c2,0.9,4.3,1.3,6.5,1.3c1.7,0,3.4-0.4,5-1.1c1.6-0.7,3-1.6,4.2-2.8c-0.1,1.8-0.5,3.6-1.3,5.3 c-0.7,1.5-1.7,2.9-3,3.9c-1.4,1.1-3.1,1.9-4.8,2.4c-2.2,0.6-4.4,0.8-6.7,0.8L200.5,44z M207.1,26.9c-0.9-0.5-1.7-1.2-2.2-2.1 c-0.7-0.9-1.1-1.9-1.4-3c-0.3-1.2-0.4-2.5-0.4-3.8c0-1.2,0.1-2.4,0.4-3.6c0.2-1.1,0.7-2.2,1.4-3.2c0.5-0.9,1.2-1.7,2.1-2.2 c0.9-0.6,1.9-0.9,3-0.9c1,0,2,0.2,2.9,0.6c0.9,0.5,1.7,1.2,2.3,2c0.7,1.1,1.2,2.2,1.5,3.5c0.4,1.6,0.5,3.2,0.5,4.8v4.2 c-0.6,1.2-1.5,2.3-2.7,3.1c-1.3,0.8-2.7,1.3-4.3,1.2C209.2,27.6,208.1,27.4,207.1,26.9L207.1,26.9z M269.2,21.9 c0.1-3.4-0.4-6.7-1.3-9.9c-0.7-2.5-1.9-4.8-3.5-6.8c-1.5-1.7-3.3-3.1-5.5-3.9c-2.2-0.9-4.6-1.4-7.1-1.3c-2.4,0-4.8,0.4-7.1,1.3 c-2.1,0.8-4,2.1-5.4,3.9c-1.7,2-2.9,4.3-3.5,6.8c-0.9,3.2-1.4,6.6-1.3,9.9v8.9c-0.1,3.3,0.4,6.7,1.3,9.9c0.7,2.5,1.9,4.8,3.5,6.8 c1.5,1.7,3.3,3.1,5.5,3.9c2.2,0.9,4.6,1.3,7.1,1.3c2.4,0,4.8-0.4,7.1-1.3c2.1-0.8,4-2.1,5.5-3.9c1.6-2,2.8-4.3,3.5-6.8 c0.9-3.2,1.3-6.5,1.2-9.9L269.2,21.9z M259,32.1c0,1.9-0.1,3.9-0.5,5.8c-0.2,1.3-0.7,2.6-1.4,3.8c-0.5,0.9-1.3,1.6-2.2,2.1 c-1.9,0.9-4.1,0.9-6.1,0c-0.9-0.5-1.7-1.2-2.2-2.1c-0.7-1.2-1.2-2.5-1.4-3.8c-0.3-1.9-0.5-3.8-0.4-5.8V20.4c0-1.9,0.1-3.8,0.4-5.7 c0.2-1.3,0.7-2.6,1.4-3.7c0.6-0.9,1.3-1.6,2.2-2.1c0.9-0.4,2-0.6,3-0.6c1,0,2.1,0.2,3,0.6c0.9,0.5,1.7,1.2,2.3,2.1 c0.7,1.2,1.2,2.4,1.4,3.8c0.4,1.9,0.6,3.8,0.5,5.7L259,32.1z M310.8,0.7h-36.2v8.2h25.4L280.3,52H291l19.8-45.6V0.7z M337.5,25.9 h-19.8v8.1h19.8V25.9z M380.4,43.7h-22.1l9-9.5c1.7-1.8,3.3-3.5,4.7-5.1c1.3-1.5,2.5-3.1,3.6-4.8c0.9-1.5,1.7-3.1,2.2-4.8 c0.6-1.6,0.9-3.3,0.9-5c0-2.1-0.3-4.2-1.1-6.1c-0.7-1.7-1.8-3.3-3.2-4.5c-1.5-1.3-3.3-2.3-5.2-2.9c-2.3-0.7-4.8-1-7.2-1 c-2.5,0-5.1,0.4-7.4,1.4c-2.1,0.8-4,2.1-5.6,3.6c-1.5,1.5-2.8,3.3-3.6,5.3c-0.8,2.1-1.2,4.3-1.2,6.6h10.2c0-1.2,0.1-2.3,0.5-3.5 c0.3-1,0.7-1.9,1.4-2.7c0.6-0.8,1.5-1.4,2.4-1.8c1-0.5,2.1-0.7,3.2-0.6c1.8-0.1,3.6,0.6,4.9,1.9c1.2,1.5,1.8,3.4,1.7,5.4 c0,0.8-0.1,1.6-0.4,2.3c-0.3,0.9-0.6,1.8-1.1,2.6c-0.6,1.1-1.3,2.1-2.1,3.1c-1,1.3-2,2.6-3.2,3.8L345.2,45v7h35.2V43.7z M416.6,0.7 h-10.3L385,34.4l0.4,6.4h21V52h10.2V40.8h5.8v-8.2h-5.8L416.6,0.7z M405.8,15.8l0.7-1.2v18.1h-11.4L405.8,15.8z"></path> <path class="st1" d="M214.9,109.9v38h4.3v-26.1c0.3-1.2,0.8-2.3,1.4-3.4c0.6-1.1,1.4-2,2.2-2.9c1-0.8,2.1-1.5,3.2-2 c1.3-0.5,2.8-0.8,4.2-0.7c1.3,0,2.6,0.1,3.8,0.5c1.1,0.3,2.1,0.8,2.9,1.6c0.9,0.8,1.6,1.9,1.9,3.1c0.5,1.5,0.7,3.1,0.6,4.8v25.2h4.3 v-25.2c0.1-1.2,0.4-2.3,0.9-3.4c0.6-1.2,1.3-2.2,2.2-3.2c1-1,2.2-1.8,3.5-2.4c1.4-0.7,3-1,4.6-0.9c1.3,0,2.5,0.1,3.8,0.4 c1.1,0.3,2.2,0.8,3,1.7c0.9,0.9,1.6,2,2,3.2c0.5,1.6,0.7,3.3,0.6,5V148h4.2v-24.8c0.1-2.1-0.2-4.3-0.8-6.3c-0.5-1.6-1.3-3.1-2.5-4.3 c-1.1-1.2-2.5-2.1-4-2.5c-1.7-0.5-3.5-0.8-5.3-0.8c-1.4,0-2.9,0.2-4.3,0.6c-1.3,0.3-2.5,0.8-3.6,1.5c-1.1,0.6-2.1,1.4-3,2.4 c-0.8,0.9-1.5,1.8-2.2,2.9c-0.7-2.3-2.2-4.3-4.3-5.6c-2.2-1.2-4.7-1.8-7.2-1.7c-1.3,0-2.6,0.2-3.9,0.5c-1.2,0.3-2.3,0.8-3.4,1.4 c-1.1,0.6-2,1.3-2.8,2.2c-0.9,0.9-1.6,1.8-2.2,2.9l-0.1-6.2L214.9,109.9z M307.5,147.9v-0.4c-0.2-0.5-0.4-1.1-0.5-1.6 c-0.1-0.6-0.2-1.2-0.4-1.9s-0.1-1.3-0.2-2c-0.1-0.7-0.1-1.3-0.1-2v-18.5c0-1.9-0.3-3.7-1-5.4c-0.6-1.5-1.6-2.8-2.9-3.9 c-1.3-1-2.7-1.8-4.3-2.3c-3.8-1.1-7.8-1.1-11.6,0.1c-1.7,0.6-3.2,1.4-4.6,2.5c-1.2,1-2.2,2.2-3,3.6c-0.7,1.3-1,2.7-1,4.1l4.2,0.1 c0-1.1,0.3-2.1,0.8-3c0.5-0.9,1.2-1.8,2.1-2.4c1-0.7,2.1-1.3,3.2-1.6c1.3-0.4,2.6-0.7,4-0.7c3.2,0,5.7,0.8,7.4,2.4 c1.7,1.7,2.6,4,2.5,6.4v4.3h-7.8c-2.4,0-4.9,0.2-7.3,0.8c-2,0.5-3.8,1.3-5.5,2.5c-1.4,1-2.6,2.2-3.5,3.8c-0.8,1.5-1.2,3.3-1.1,5 c0,1.5,0.3,2.9,0.9,4.3c0.6,1.3,1.4,2.5,2.5,3.5c1.1,1,2.5,1.8,3.9,2.3c1.6,0.5,3.3,0.8,5,0.8c1.4,0,2.8-0.2,4.2-0.5 c1.2-0.3,2.4-0.8,3.6-1.3c1-0.5,2-1.2,2.9-1.9c0.9-0.7,1.6-1.4,2.2-2.3c0.1,1,0.1,1.9,0.3,3c0.1,0.8,0.3,1.6,0.6,2.4L307.5,147.9z M286.2,144.3c-1-0.4-1.9-0.9-2.7-1.6c-0.7-0.6-1.3-1.5-1.7-2.4c-0.4-0.9-0.7-1.9-0.6-2.9c0-1.2,0.3-2.5,0.9-3.5 c0.7-1.1,1.6-2,2.7-2.7c1.3-0.8,2.8-1.4,4.3-1.6c1.9-0.4,3.8-0.6,5.8-0.6h7.2v8.4c-0.5,1.1-1.1,2.1-1.9,3c-1.6,1.9-3.8,3.3-6.3,4 c-1.4,0.4-2.8,0.6-4.3,0.6C288.5,145,287.3,144.8,286.2,144.3L286.2,144.3z M319.2,109.9h-5l12.9,18.7l-13.5,19.4h5l10.9-16.1 l10.8,16.1h5l-13.5-19.4l12.9-18.7h-5l-10.3,15.4L319.2,109.9z M357.2,109.9H353v38.1h4.3L357.2,109.9z M352.9,100.9 c0.6,0.5,1.4,0.8,2.2,0.8c0.8,0,1.5-0.3,2.1-0.8c0.5-0.5,0.8-1.3,0.8-2c0-0.7-0.3-1.5-0.8-2c-0.5-0.6-1.3-0.9-2.1-0.9 c-0.8,0-1.6,0.3-2.2,0.9c-0.5,0.5-0.8,1.3-0.7,2C352.2,99.6,352.5,100.3,352.9,100.9z"></path> <path class="st2" d="M51.7,908.3h503.4 M587.6,730.8v126.7"></path> <path d="M645.6,810v0.8l5.6,14.9h4.7l-3.9-10.5h34.7V810H645.6z M667.2,788.2l-1.1-1.4c-1.1-1.6-1.6-3.5-1.5-5.4 c-0.1-2.2,0.8-4.4,2.5-5.9c1.8-1.6,4.2-2.4,6.6-2.3c2.4-0.1,4.8,0.6,6.8,2.1c1.7,1.4,2.6,3.5,2.5,5.7c0.1,1.9-0.5,3.9-1.8,5.3 c-1.4,1.4-3.3,2.3-5.3,2.5v5c3.2-0.1,6.2-1.6,8.3-3.9c2.1-2.5,3.1-5.6,3-8.9c0-4.1-1.2-7.3-3.6-9.5s-5.8-3.4-10-3.4s-7.5,1.1-10,3.3 c-2.5,2.3-3.8,5.5-3.7,8.9c-0.1,2.4,0.6,4.8,1.8,6.8l-11.2-1.2v-16.5h-4.8v21l20.4,2.1L667.2,788.2z"></path> <path d="M255.9,994.3l-2.8,5.7h3.5l2.1-4.2c1.7,0.7,3.5,1,5.4,1c2.5,0,5-0.6,7.2-1.9c2.1-1.4,3.8-3.3,4.9-5.5c1.2-2.5,1.8-5.2,1.7-8 c0-6-1.8-10.5-5.5-13.3l2.9-5.8h-3.5l-2,4.2c-1.8-0.8-3.8-1.2-5.8-1.2c-2.5,0-5,0.7-7.2,2c-2.1,1.3-3.8,3.3-4.9,5.5 c-1.2,2.5-1.8,5.2-1.7,8C250.2,987.1,252.2,991.5,255.9,994.3L255.9,994.3z M257.8,972.5c1.5-2,3.8-3.1,6.2-3c1.3,0,2.6,0.3,3.7,0.9 l-9.6,19.5c-1.8-2.1-2.7-5-2.7-8.6C255.4,977.6,256.2,974.7,257.8,972.5L257.8,972.5z M272.6,981.2c0.2,2.9-0.7,5.9-2.3,8.3 c-1.5,1.9-3.8,3.1-6.3,3c-1.2,0-2.3-0.2-3.4-0.7l9.5-19.3c1.7,2.4,2.6,5.3,2.4,8.2L272.6,981.2z M317.4,955.3 c-6.3,0.1-11.1,2.1-14.3,6.1s-4.8,9.7-4.8,17.3v2c-0.1,4.2,1.2,8.3,3.7,11.6c2.3,2.9,5.8,4.6,9.5,4.5c3.5,0.2,6.9-1.2,9.3-3.8 c2.3-2.5,3.5-5.9,3.5-10.1c0.1-3.5-1-7-3.2-9.7c-2.1-2.5-5.3-3.9-8.5-3.7c-3.3-0.2-6.6,1.2-8.8,3.7c0.4-4.2,1.7-7.4,4.1-9.8 c2.6-2.4,6.1-3.7,9.7-3.6h1v-4.4L317.4,955.3z M316.9,976.4c1.4,1.9,2.1,4.3,2,6.7c0.2,2.4-0.6,4.8-2,6.7c-1.3,1.7-3.4,2.7-5.5,2.6 c-2.3,0-4.4-1.2-5.6-3c-1.6-2.4-2.4-5.2-2.3-8.1v-1.9c0.6-1.6,1.7-3,3.1-4c1.4-1,3.2-1.6,5-1.6C313.6,973.7,315.6,974.7,316.9,976.4 L316.9,976.4z"></path> <path d="M356,972c-0.1-5.9-1.2-10.3-3.2-13.1s-5.3-4.3-9.7-4.3s-7.7,1.4-9.8,4.4s-3.1,7.4-3.1,13.4v7c0.1,5.8,1.1,10.1,3.3,13 s5.3,4.3,9.7,4.3s7.7-1.5,9.8-4.4s3.1-7.5,3.1-13.6V972z M350.8,980.1c-0.1,4.3-0.8,7.4-2,9.4c-2.2,3.2-6.6,3.9-9.8,1.7 c-0.7-0.5-1.3-1.1-1.8-1.9c-1.3-2.1-2-5.3-2-9.8v-8.3c0.1-4.1,0.7-7.3,1.9-9.3c1.2-2,3.5-3.2,5.8-3c2.4-0.2,4.6,1,5.9,3 c1.3,2,1.9,5.2,1.9,9.6L350.8,980.1z"></path> <path class="st3" d="M56,864.8h479.3c-25.1-10.4-12.3-38.7-12.3-38.7c-28.5-10.4-14.3-37.2-14.3-37.2 c-26.6-13.7-13.8-39.6-13.8-39.6H96.3c0,0,12.8,25.9-13.8,39.6c0,0,14.3,26.9-14.3,37.2C68.3,826.2,81.1,854.4,56,864.8L56,864.8z"></path> <path class="st3" d="M273,350.9l-32.2,398.4 M258.7,350.9l-35.8,398.4 M337.4,350.9l33.6,398.4"></path> <polygon class="st0" points="196,300.5 395.3,300.5 395.3,316.5 363.4,353.4 228.4,353.4 196,316 "></polygon> <polygon class="st3" points="196,300.5 395.3,300.5 395.3,316.5 363.4,353.4 228.4,353.4 196,316 196,300.5 "></polygon> <path class="st3" d="M297.6,724.4c10.9,0,19.8,11.2,19.8,25h-39.6C277.8,735.6,286.6,724.4,297.6,724.4"></path> <line class="st3" x1="70.1" y1="826.7" x2="524" y2="826.7"></line> <line class="st3" x1="84.5" y1="789.2" x2="509.2" y2="789.2"></line> <path class="st3" d="M303.3,353.1c0,0,23.2,157.8,4.7,198.1s-36.9,158.7-5,173.2"></path> </svg> 