<?xml version="1.0" encoding="UTF-8"?> <!-- Generator: Adobe Illustrator 23.0.3, SVG Export Plug-In . SVG Version: 6.00 Build 0) --> <svg xmlns="http://www.w3.org/2000/svg" xmlns:xlink="http://www.w3.org/1999/xlink" id="Livello_1" x="0px" y="0px" viewBox="0 0 732.9 1000" style="enable-background:new 0 0 732.9 1000;" xml:space="preserve"> <style type="text/css"> .st0{fill:#FFFFFF;} .st1{fill:#231F20;} .st2{fill:none;stroke:#000000;stroke-width:0.5;} .st3{fill:none;stroke:#231F20;stroke-width:0.5;stroke-miterlimit:10;} .st4{fill:none;stroke:#231F20;stroke-width:0.5;stroke-linejoin:round;} </style> <title>C&amp;apos;hi sospensione piccola</title> <rect class="st0" width="732.9" height="1000"></rect> <path class="st1" d="M151.4,44v8.5h0.8c3.9,0.1,7.8-0.6,11.5-2c3.1-1.2,5.9-3.2,8.1-5.7c2.3-2.5,3.9-5.5,4.9-8.8 c1.1-3.7,1.6-7.6,1.6-11.5v-3.7c0.1-2.9-0.4-5.8-1.2-8.5c-0.7-2.4-1.9-4.7-3.5-6.6c-1.5-1.8-3.4-3.3-5.5-4.3c-2.2-1-4.7-1.5-7.1-1.5 c-2.5,0-4.9,0.5-7.1,1.4c-2.1,0.9-3.9,2.3-5.4,4c-1.5,1.6-2.7,3.6-3.5,5.7c-0.8,2.3-1.2,4.7-1.2,7.1c0,2.3,0.3,4.6,0.9,6.8 c0.6,2,1.6,3.8,2.9,5.4c1.3,1.5,2.9,2.8,4.7,3.7c2,0.9,4.3,1.3,6.5,1.3c1.7,0,3.4-0.4,5-1.1c1.6-0.7,3-1.6,4.2-2.8 c-0.1,1.8-0.5,3.7-1.3,5.3c-0.7,1.5-1.7,2.9-3,3.9c-1.4,1.1-3.1,2-4.8,2.5c-2.2,0.6-4.4,0.8-6.7,0.8L151.4,44z M157.9,26.9 c-0.9-0.5-1.7-1.2-2.2-2.1c-0.7-0.9-1.1-1.9-1.4-3c-0.3-1.2-0.4-2.5-0.4-3.8c0-1.2,0.1-2.4,0.4-3.6c0.2-1.1,0.7-2.2,1.4-3.2 c0.5-0.9,1.3-1.6,2.2-2.2c0.9-0.6,1.9-0.9,3-0.9c1,0,2,0.2,2.9,0.6c0.9,0.5,1.7,1.2,2.3,2c0.7,1.1,1.2,2.2,1.5,3.5 c0.4,1.6,0.5,3.2,0.5,4.8v4.2c-0.6,1.2-1.5,2.3-2.7,3.1c-1.3,0.8-2.7,1.3-4.3,1.2C160,27.7,158.9,27.4,157.9,26.9L157.9,26.9z M192.7,44v8.5h0.8c3.9,0.1,7.8-0.6,11.5-2c3.1-1.2,5.9-3.2,8.1-5.7c2.3-2.5,4-5.5,4.9-8.8c1.1-3.7,1.6-7.6,1.6-11.5v-3.6 c0.1-2.9-0.4-5.8-1.2-8.5c-0.7-2.4-1.9-4.7-3.5-6.6c-1.5-1.8-3.4-3.3-5.5-4.3c-2.2-1-4.7-1.5-7.2-1.5c-2.5,0-4.9,0.5-7.1,1.4 c-2.1,0.9-3.9,2.3-5.4,4c-1.5,1.6-2.7,3.6-3.5,5.7c-0.8,2.3-1.2,4.6-1.2,7c0,2.3,0.3,4.6,1,6.8c0.6,2,1.6,3.8,2.9,5.4 c1.3,1.5,2.9,2.8,4.7,3.7c2,0.9,4.3,1.3,6.5,1.3c1.7,0,3.4-0.4,5-1.1c1.6-0.7,3-1.6,4.2-2.8c-0.1,1.8-0.5,3.6-1.3,5.3 c-0.7,1.5-1.7,2.9-3,3.9c-1.4,1.1-3.1,2-4.8,2.5c-2.2,0.6-4.4,0.8-6.7,0.8L192.7,44z M199.2,26.9c-0.9-0.5-1.6-1.3-2.2-2.1 c-0.7-0.9-1.1-1.9-1.4-3c-0.3-1.2-0.4-2.5-0.4-3.8c0-1.2,0.1-2.4,0.4-3.6c0.2-1.1,0.7-2.2,1.4-3.2c0.5-0.9,1.3-1.6,2.2-2.2 c0.9-0.6,1.9-0.9,3-0.9c1,0,2,0.2,2.9,0.6c0.9,0.5,1.7,1.2,2.3,2c0.7,1.1,1.2,2.2,1.5,3.5c0.4,1.6,0.5,3.2,0.5,4.8v4.2 c-0.6,1.2-1.5,2.3-2.7,3.1c-1.3,0.8-2.7,1.3-4.3,1.2C201.3,27.6,200.2,27.4,199.2,26.9L199.2,26.9z M261.3,21.9 c0.1-3.4-0.4-6.7-1.3-9.9c-0.7-2.5-1.9-4.8-3.5-6.8c-1.4-1.8-3.3-3.1-5.5-3.9c-2.2-0.9-4.7-1.3-7.1-1.3c-2.4,0-4.8,0.4-7.1,1.3 c-2.1,0.8-4,2.1-5.4,3.9c-1.7,2-2.9,4.3-3.5,6.8c-0.9,3.2-1.4,6.6-1.3,9.9v8.9c-0.1,3.3,0.4,6.7,1.3,9.9c0.7,2.5,1.9,4.8,3.5,6.8 c1.5,1.7,3.3,3.1,5.5,3.9c2.2,0.9,4.6,1.3,7.1,1.3c2.4,0,4.8-0.4,7.1-1.3c2.1-0.8,4-2.1,5.5-3.9c1.6-2,2.8-4.3,3.5-6.8 c0.9-3.2,1.3-6.5,1.2-9.9L261.3,21.9z M251.1,32.1c0,1.9-0.1,3.9-0.5,5.8c-0.2,1.3-0.7,2.6-1.4,3.8c-0.5,0.9-1.3,1.6-2.3,2.1 c-1.9,0.9-4.1,0.9-6.1,0c-0.9-0.5-1.7-1.2-2.2-2.1c-0.7-1.2-1.2-2.5-1.4-3.8c-0.3-1.9-0.5-3.8-0.4-5.8V20.4c0-1.9,0.1-3.8,0.4-5.7 c0.2-1.3,0.7-2.6,1.4-3.7c0.6-0.9,1.3-1.6,2.2-2.1c0.9-0.4,2-0.6,3-0.6c1,0,2.1,0.2,3,0.6c1,0.5,1.8,1.2,2.4,2.1 c0.7,1.2,1.2,2.4,1.4,3.8c0.4,1.9,0.5,3.8,0.5,5.7L251.1,32.1z M303,0.7h-36.2v8.2h25.4L272.4,52h10.7L303,6.4V0.7z M329.7,25.9 h-19.8v8.1h19.8L329.7,25.9z M372.5,43.7h-22l9-9.5c1.7-1.8,3.3-3.5,4.7-5.1c1.3-1.5,2.5-3.1,3.6-4.8c0.9-1.5,1.6-3.1,2.2-4.7 c0.6-1.6,0.9-3.3,0.9-5c0-2.1-0.3-4.2-1.1-6.1c-0.7-1.7-1.8-3.3-3.3-4.5c-1.5-1.3-3.3-2.3-5.2-2.9c-2.3-0.7-4.8-1-7.2-1 c-2.5,0-5.1,0.4-7.4,1.4c-2.1,0.8-4,2.1-5.5,3.6c-1.6,1.5-2.8,3.3-3.6,5.3c-0.8,2.1-1.2,4.3-1.2,6.6h10.2c0-1.2,0.1-2.3,0.5-3.5 c0.3-1,0.7-1.9,1.4-2.7c0.6-0.8,1.5-1.4,2.4-1.8c1-0.5,2.1-0.7,3.2-0.7c1.8-0.1,3.6,0.6,4.9,1.9c1.2,1.5,1.8,3.4,1.7,5.4 c0,0.8-0.1,1.6-0.4,2.3c-0.3,0.9-0.6,1.8-1.1,2.6c-0.6,1.1-1.3,2.1-2.1,3.1c-1,1.3-2,2.6-3.2,3.8L337.3,45v7h35.2L372.5,43.7z M403.4,0.6h-1.1l-21.2,7.6v8.2l12.1-3.8V52h10.2V0.6z"></path> <path class="st1" d="M220.7,140.8c-0.5,0.9-1.1,1.6-1.9,2.2c-1,0.6-2,1.1-3.1,1.5c-1.4,0.4-2.8,0.5-4.3,0.5c-1.2,0-2.4-0.1-3.6-0.4 c-1.2-0.2-2.3-0.7-3.4-1.3c-1-0.6-1.9-1.4-2.5-2.4c-0.7-1.1-1.1-2.4-1.2-3.8h-4.3c0,1.5,0.3,2.9,1,4.3c0.7,1.4,1.7,2.7,2.9,3.7 c1.4,1.1,2.9,2,4.6,2.5c2.1,0.6,4.2,0.9,6.4,0.9c2,0,3.9-0.3,5.8-0.8c1.6-0.4,3.1-1.2,4.4-2.2c1.2-0.9,2.2-2,2.9-3.3 c0.6-1.3,1-2.8,0.9-4.3c0-1.4-0.2-2.7-0.8-4c-0.5-1.2-1.4-2.3-2.4-3.1c-1.3-1-2.7-1.8-4.2-2.4c-1.9-0.7-3.9-1.3-5.9-1.7 c-1.8-0.4-3.5-0.9-5.2-1.5c-1.1-0.4-2.2-0.9-3.1-1.7c-0.7-0.5-1.2-1.2-1.5-2c-0.3-0.7-0.4-1.5-0.4-2.3c0-0.8,0.2-1.6,0.6-2.4 c0.3-0.8,0.9-1.6,1.6-2.2c0.9-0.7,1.8-1.2,2.9-1.5c1.3-0.4,2.8-0.6,4.2-0.6c1.4,0,2.8,0.2,4.2,0.6c1.1,0.4,2.2,1,3.1,1.7 c0.8,0.7,1.5,1.5,2,2.5c0.4,0.9,0.6,1.9,0.6,2.9h4.2c0-1.6-0.3-3.1-0.9-4.5c-0.7-1.4-1.6-2.6-2.7-3.6c-1.3-1.1-2.8-1.9-4.5-2.4 c-3.7-1.1-7.7-1.2-11.5-0.1c-1.5,0.5-3,1.2-4.3,2.2c-1.1,0.9-2,2-2.7,3.3c-0.6,1.2-0.9,2.6-0.9,4c0,1.4,0.3,2.8,0.9,4 c0.6,1.2,1.5,2.2,2.6,3c1.3,0.9,2.7,1.7,4.2,2.2c1.8,0.6,3.7,1.1,5.6,1.5c1.8,0.4,3.5,0.9,5.2,1.6c1.1,0.5,2.2,1.1,3.1,1.9 c0.6,0.6,1.2,1.3,1.5,2.2c0.3,0.8,0.4,1.6,0.4,2.4C221.4,139.1,221.1,139.9,220.7,140.8L220.7,140.8z M234.7,109.9v38.1h4.3v-26.1 c0.3-1.2,0.8-2.3,1.4-3.4c0.6-1.1,1.4-2,2.2-2.9c1-0.8,2.1-1.5,3.2-2c1.3-0.5,2.8-0.8,4.2-0.7c1.3,0,2.6,0.1,3.8,0.5 c2.3,0.6,4.1,2.4,4.8,4.7c0.5,1.5,0.7,3.1,0.6,4.8v25.1h4.3v-25.2c0.1-1.2,0.4-2.3,0.9-3.4c0.6-1.2,1.3-2.2,2.2-3.2 c1-1,2.2-1.8,3.5-2.4c1.4-0.7,3-1,4.6-0.9c1.3,0,2.5,0.1,3.8,0.4c1.1,0.3,2.1,0.8,3,1.7c0.9,0.9,1.6,2,2,3.2c0.5,1.6,0.7,3.3,0.6,5 V148h4.2v-24.8c0.1-2.1-0.2-4.3-0.8-6.3c-0.5-1.6-1.3-3.1-2.5-4.3c-1.1-1.2-2.5-2.1-4-2.5c-1.7-0.5-3.5-0.8-5.3-0.8 c-1.4,0-2.9,0.2-4.3,0.6c-1.3,0.3-2.5,0.8-3.6,1.5c-1.1,0.6-2.1,1.4-3,2.4c-0.8,0.9-1.5,1.8-2.2,2.9c-0.7-2.3-2.2-4.3-4.3-5.6 c-2.2-1.2-4.7-1.8-7.2-1.7c-1.3,0-2.6,0.2-3.9,0.5c-1.2,0.3-2.3,0.8-3.4,1.4c-1.1,0.6-2,1.3-2.8,2.2c-0.9,0.9-1.6,1.8-2.2,2.9 l-0.1-6.2L234.7,109.9z M327.2,147.9v-0.4c-0.2-0.5-0.4-1.1-0.5-1.6c-0.1-0.6-0.2-1.2-0.4-1.9s-0.1-1.3-0.2-2 c-0.1-0.7-0.1-1.3-0.1-2v-18.5c0-1.9-0.3-3.7-1-5.4c-0.6-1.5-1.6-2.8-2.9-3.9c-1.3-1-2.7-1.8-4.3-2.3c-3.8-1.1-7.8-1.1-11.6,0.1 c-1.7,0.6-3.2,1.4-4.6,2.5c-1.2,1-2.2,2.2-3,3.6c-0.7,1.3-1,2.7-1,4.1l4.2,0.1c0-1.1,0.3-2.1,0.8-3c0.5-0.9,1.2-1.8,2.1-2.4 c1-0.7,2.1-1.3,3.2-1.6c1.3-0.4,2.6-0.7,4-0.7c3.2,0,5.7,0.8,7.4,2.4c1.7,1.7,2.6,4,2.5,6.4v4.3h-7.7c-2.4,0-4.9,0.2-7.3,0.8 c-2,0.5-3.8,1.3-5.5,2.5c-1.4,1-2.6,2.2-3.5,3.8c-0.8,1.5-1.2,3.3-1.1,5c0,1.5,0.3,2.9,0.9,4.3c0.6,1.3,1.4,2.5,2.5,3.5 c1.1,1,2.5,1.8,3.9,2.3c1.6,0.5,3.3,0.8,5,0.8c1.4,0,2.8-0.2,4.2-0.5c1.2-0.3,2.4-0.8,3.6-1.3c1-0.5,2-1.2,2.9-1.9 c0.9-0.7,1.6-1.4,2.2-2.3c0.1,1,0.1,1.9,0.3,3c0.1,0.8,0.3,1.6,0.6,2.4L327.2,147.9z M306,144.3c-1-0.4-1.9-0.9-2.7-1.6 c-0.7-0.7-1.3-1.5-1.7-2.4c-0.4-0.9-0.7-1.9-0.6-2.9c0-1.2,0.3-2.5,0.9-3.5c0.7-1.1,1.6-2,2.7-2.7c1.3-0.8,2.8-1.4,4.3-1.6 c1.9-0.4,3.8-0.6,5.8-0.6h7.2v8.4c-0.5,1.1-1.1,2.1-1.9,3c-0.8,0.9-1.7,1.7-2.7,2.4c-1.1,0.7-2.3,1.2-3.5,1.6 c-1.4,0.4-2.8,0.6-4.3,0.6C308.3,145,307.1,144.8,306,144.3L306,144.3z M342,93.9h-4.3v54h4.3V93.9z M358.1,93.9h-4.3v54h4.3V93.9z"></path> <path class="st2" d="M163.4,908.3h235 M490,766v97.6"></path> <path d="M548.1,826.7v0.8l5.6,14.9h4.7l-3.9-10.4h34.7v-5.2L548.1,826.7z M584.9,784.6v20.5L573,794.2c-5.5-5.2-10.4-7.7-14.4-7.7 c-3-0.1-5.9,1.1-8,3.3c-2,2.2-3,5.2-3,9c0,4.1,1.2,7.3,3.5,9.7c2.4,2.5,5.7,3.8,9.1,3.7V807c-2.3,0.1-4.5-0.6-6.2-2.1 c-1.5-1.6-2.3-3.8-2.2-6c-0.1-1.9,0.7-3.8,2.1-5.2c1.4-1.3,3.3-2,5.2-1.9c1.6,0,3.2,0.4,4.6,1.2c2.1,1.2,4.1,2.7,5.8,4.4l15.8,14.2 h3.7v-26.8L584.9,784.6z"></path> <path d="M240.5,994.3l-2.8,5.7h3.5l2.1-4.2c1.7,0.7,3.5,1,5.4,1c2.5,0,5-0.6,7.2-1.9c2.1-1.4,3.8-3.3,4.9-5.5c1.2-2.5,1.8-5.2,1.7-8 c0-6-1.9-10.5-5.5-13.3l2.9-5.8h-3.5l-2,4.2c-1.8-0.8-3.8-1.2-5.8-1.2c-5.2-0.1-9.9,2.8-12.1,7.5c-1.2,2.5-1.8,5.2-1.7,8 C234.8,987,236.8,991.5,240.5,994.3L240.5,994.3z M242.3,972.5c1.5-2,3.8-3.1,6.2-3c1.3,0,2.6,0.3,3.8,0.9l-9.6,19.5 c-1.8-2.1-2.7-5-2.7-8.6C240,977.6,240.7,974.7,242.3,972.5L242.3,972.5z M257.2,981.2c0.2,2.9-0.7,5.9-2.3,8.3 c-1.5,1.9-3.8,3.1-6.3,3c-1.2,0-2.3-0.2-3.4-0.7l9.6-19.3c1.7,2.4,2.6,5.3,2.4,8.2V981.2z M295,991.9h-20.5l10.9-11.9 c5.2-5.5,7.7-10.4,7.7-14.4c0.1-3-1.1-5.9-3.3-7.9c-2.3-2-5.2-3-9-3c-4.1,0-7.3,1.2-9.7,3.5c-2.5,2.4-3.8,5.7-3.7,9.1h5.2 c-0.1-2.3,0.6-4.5,2.1-6.2c1.6-1.5,3.8-2.3,6-2.2c1.9-0.1,3.8,0.7,5.2,2.1c1.3,1.4,2,3.3,1.9,5.2c0,1.6-0.4,3.2-1.1,4.6 c-1.2,2.1-2.7,4-4.4,5.8l-14.2,15.8v3.7H295V991.9z M307.1,976.8l1.4-1.1c1.6-1.1,3.5-1.6,5.4-1.5c2.2-0.1,4.4,0.8,5.9,2.5 c1.6,1.8,2.4,4.2,2.3,6.6c0.1,2.4-0.6,4.8-2,6.8c-1.4,1.7-3.5,2.6-5.7,2.5c-1.9,0.1-3.9-0.5-5.4-1.8c-1.5-1.4-2.3-3.3-2.5-5.3h-5 c0.1,3.2,1.6,6.2,3.9,8.3c2.5,2.1,5.6,3.1,8.9,3c4.1,0,7.3-1.2,9.5-3.6s3.4-5.8,3.4-10s-1.1-7.5-3.3-10c-2.3-2.5-5.5-3.8-8.9-3.7 c-2.4-0.1-4.8,0.6-6.9,1.8l1.2-11.2H326v-4.8h-21l-2,20.5L307.1,976.8z"></path> <path class="st0" d="M387.2,838.9c-17.2-6.1-9.4-24.4-9.4-24.4c-16.9-6.7-8.8-23.5-8.8-23.5c-16.6-4.6-8.8-26.1-8.8-26.1H199.1 c0,0,7.9,21.5-8.8,26.1c0,0,8.2,16.8-8.8,23.5c0,0,7.9,18.3-9.4,24.4c0,0,7.9,17.4-7.6,24.7h230.2 C379.3,856.3,387.2,838.9,387.2,838.9"></path> <path class="st3" d="M309.2,460.8l25,304.1 M265.7,460.8L242,764.9 M252.1,460.8l-22.7,304.1"></path> <path class="st4" d="M280.1,764.9h-81.1c0,0,7.9,21.5-8.8,26.1c0,0,8.2,16.8-8.8,23.5c0,0,7.9,18.3-9.4,24.4c0,0,7.9,17.4-7.6,24.7 h115.5 M199,764.9h161.2c0,0-7.9,21.5,8.8,26.1c0,0-8.2,16.8,8.8,23.5c0,0-7.9,18.3,9.4,24.4c0,0-7.9,17.4,7.6,24.7H279.2"></path> <path class="st3" d="M265.1,763.5c0-11.2,7.3-20.3,16.3-20.3s16.3,9.1,16.3,20.3"></path> <line class="st3" x1="190.1" y1="790.8" x2="368.4" y2="790.8"></line> <line class="st3" x1="181.4" y1="814.6" x2="377.1" y2="814.6"></line> <line class="st3" x1="172" y1="839.2" x2="385.6" y2="839.2"></line> <path class="st3" d="M284.9,462c0,0,4.3,88.5,0,108c-2.2,9.8-28.6,120.6-5.1,173.3"></path> <rect x="236.3" y="424.1" class="st0" width="88.8" height="36.7"></rect> <rect x="236.3" y="424.1" class="st3" width="88.8" height="36.7"></rect> <line class="st3" x1="230.3" y1="460.8" x2="330.9" y2="460.8"></line> </svg> 