<?xml version="1.0" encoding="UTF-8"?> <svg xmlns="http://www.w3.org/2000/svg" id="Livello_1" data-name="Livello 1" viewBox="0 0 623.12 1000"><defs><style>.cls-1{fill:#fff;}.cls-2{fill:#231f20;}.cls-3,.cls-4{fill:none;stroke-width:0.25px;}.cls-3{stroke:#000;}.cls-4{stroke:#231f20;stroke-miterlimit:10;}</style></defs><title>China terra alta</title><rect class="cls-1" width="623.12" height="1000"></rect><path class="cls-2" d="M159.48,16.54a25.25,25.25,0,0,0-1-7.51,13.37,13.37,0,0,0-2.66-5.11A10.06,10.06,0,0,0,151.7,1a13.94,13.94,0,0,0-5.33-1A14.13,14.13,0,0,0,141,1,9.81,9.81,0,0,0,137,3.92,13.23,13.23,0,0,0,134.3,9a24.93,24.93,0,0,0-1,7.51v6.69a24.78,24.78,0,0,0,1,7.45A14.48,14.48,0,0,0,137,35.85a9.91,9.91,0,0,0,4.13,2.93,14,14,0,0,0,5.34,1,13.79,13.79,0,0,0,5.33-1,9.91,9.91,0,0,0,4.13-2.93,14.65,14.65,0,0,0,2.67-5.17,27.41,27.41,0,0,0,.92-7.45Zm-7.67,7.72a20,20,0,0,1-.38,4.35,8.51,8.51,0,0,1-1,2.88,3.86,3.86,0,0,1-1.69,1.58,5.57,5.57,0,0,1-4.57,0,3.86,3.86,0,0,1-1.69-1.58,8.47,8.47,0,0,1-1.08-2.88,24.23,24.23,0,0,1-.33-4.35V15.39a23.52,23.52,0,0,1,.33-4.29,8.07,8.07,0,0,1,1-2.83,4.6,4.6,0,0,1,1.69-1.58,5.27,5.27,0,0,1,2.28-.43,5,5,0,0,1,2.29.43,4.43,4.43,0,0,1,1.74,1.58,8.28,8.28,0,0,1,1,2.83,19.43,19.43,0,0,1,.38,4.29Zm20.64-1.79h4.08a10.05,10.05,0,0,1,2.66.32,7.83,7.83,0,0,1,2,1,5.43,5.43,0,0,1,1.25,1.8,7.86,7.86,0,0,1,.43,2.67,5.75,5.75,0,0,1-.43,2.17,3.73,3.73,0,0,1-1.14,1.63,4.22,4.22,0,0,1-1.85,1.09,6.89,6.89,0,0,1-2.45.38,6,6,0,0,1-2.23-.38,5,5,0,0,1-1.8-1,4.66,4.66,0,0,1-1.19-1.53,4.61,4.61,0,0,1-.44-2h-7.67a10.09,10.09,0,0,0,1.14,5,10.22,10.22,0,0,0,3,3.48A13,13,0,0,0,172,39.11a18.47,18.47,0,0,0,4.85.65,19.26,19.26,0,0,0,5.43-.76,12.67,12.67,0,0,0,4.36-2.23,10.28,10.28,0,0,0,2.88-3.53,11.58,11.58,0,0,0,1-4.85,9.06,9.06,0,0,0-6.47-9,12.72,12.72,0,0,0,2.5-1.57,12.2,12.2,0,0,0,1.85-2,10.12,10.12,0,0,0,1.14-2.34A9.46,9.46,0,0,0,190,11a11.25,11.25,0,0,0-1-4.78,9.82,9.82,0,0,0-2.67-3.43A12.32,12.32,0,0,0,182.19.71,20.27,20.27,0,0,0,176.86,0a16.19,16.19,0,0,0-5,.76,13.43,13.43,0,0,0-4,2.12,10.93,10.93,0,0,0-2.72,3.32,9.71,9.71,0,0,0-1,4.35h7.67a3.85,3.85,0,0,1,.44-1.79,3.79,3.79,0,0,1,1.08-1.36,4.53,4.53,0,0,1,1.69-.87,5.64,5.64,0,0,1,2-.33,6.11,6.11,0,0,1,2.34.38,4.23,4.23,0,0,1,1.63,1,3.93,3.93,0,0,1,1,1.57,5.64,5.64,0,0,1,.32,2A5.33,5.33,0,0,1,180.88,15a5.84,5.84,0,0,1-4.35,1.47h-4.08Zm49.41-5.93a24.93,24.93,0,0,0-1-7.51,13.23,13.23,0,0,0-2.66-5.11A10,10,0,0,0,214.08,1a13.91,13.91,0,0,0-5.33-1,14.2,14.2,0,0,0-5.33,1,9.94,9.94,0,0,0-4.08,2.94A13.37,13.37,0,0,0,196.68,9a25.25,25.25,0,0,0-1,7.51v6.69a25.1,25.1,0,0,0,1,7.45,14.48,14.48,0,0,0,2.66,5.17,9.94,9.94,0,0,0,4.14,2.93,13.93,13.93,0,0,0,5.33,1,13.76,13.76,0,0,0,5.33-1,9.85,9.85,0,0,0,4.13-2.93,14.33,14.33,0,0,0,2.67-5.17,27,27,0,0,0,.92-7.45Zm-7.67,7.72a20,20,0,0,1-.38,4.35,8.3,8.3,0,0,1-1,2.88,3.81,3.81,0,0,1-1.69,1.58,5,5,0,0,1-2.28.49,5,5,0,0,1-2.29-.49,3.79,3.79,0,0,1-1.68-1.58,8.26,8.26,0,0,1-1.09-2.88,24.23,24.23,0,0,1-.33-4.35V15.39a23.52,23.52,0,0,1,.33-4.29,8.28,8.28,0,0,1,1-2.83,4.67,4.67,0,0,1,1.69-1.58,5.3,5.3,0,0,1,2.28-.43,5,5,0,0,1,2.29.43,4.37,4.37,0,0,1,1.74,1.58,8.07,8.07,0,0,1,1,2.83,19.43,19.43,0,0,1,.38,4.29ZM251.31,6.2a8.24,8.24,0,0,0-2.55-3.37A11,11,0,0,0,244.9.71,17,17,0,0,0,240,0a17.66,17.66,0,0,0-4.95.71,11.47,11.47,0,0,0-3.86,2.12,9.35,9.35,0,0,0-2.56,3.37,11.11,11.11,0,0,0-.87,4.62,9.14,9.14,0,0,0,1.36,5A10,10,0,0,0,233,19.31a10.86,10.86,0,0,0-4.4,3.7,9.3,9.3,0,0,0-1.69,5.6,10.5,10.5,0,0,0,1,4.84,10.14,10.14,0,0,0,2.72,3.48,12.64,12.64,0,0,0,4.19,2.13,19.63,19.63,0,0,0,10.39,0,12.89,12.89,0,0,0,4.14-2.13,10.14,10.14,0,0,0,2.72-3.48,11.18,11.18,0,0,0,1-4.84,9.8,9.8,0,0,0-1.63-5.6,11.38,11.38,0,0,0-4.46-3.7,9.94,9.94,0,0,0,3.86-3.48,9.09,9.09,0,0,0,1.42-5,11.1,11.1,0,0,0-.93-4.62Zm-7.39,25.89A5.14,5.14,0,0,1,240,33.56a5.83,5.83,0,0,1-2.23-.38A4.62,4.62,0,0,1,235,30.35a5.74,5.74,0,0,1-.38-2.28,6.25,6.25,0,0,1,.38-2.34A4.4,4.4,0,0,1,236.08,24a4.57,4.57,0,0,1,1.69-1.09,5.58,5.58,0,0,1,2.18-.38,5.9,5.9,0,0,1,2.23.38A4.45,4.45,0,0,1,243.86,24,5.23,5.23,0,0,1,245,25.73a6.46,6.46,0,0,1,.38,2.34,5.43,5.43,0,0,1-1.41,4Zm-.55-17.19a4.71,4.71,0,0,1-6.74,0,5.36,5.36,0,0,1-1.2-3.69,5.29,5.29,0,0,1,1.2-3.7A4.33,4.33,0,0,1,240,6.2a4.28,4.28,0,0,1,3.37,1.36,5.56,5.56,0,0,1,1.2,3.65,5.67,5.67,0,0,1-1.2,3.69Zm30.11,4.68h-15v6.15h15ZM297.93.49h-.81l-16,5.77v6.2l9.14-2.83V39.22h7.67ZM337,33H320.37l6.8-7.18c1.3-1.36,2.5-2.61,3.53-3.86a26.12,26.12,0,0,0,2.72-3.65,17.62,17.62,0,0,0,1.69-3.59,11,11,0,0,0,.65-3.75,12.62,12.62,0,0,0-.82-4.63,9.11,9.11,0,0,0-2.44-3.42A11,11,0,0,0,328.58.76,18.23,18.23,0,0,0,323.14,0a14.36,14.36,0,0,0-5.6,1,12.55,12.55,0,0,0-4.19,2.72,12,12,0,0,0-2.72,4,13.76,13.76,0,0,0-.92,5h7.72a7.79,7.79,0,0,1,.38-2.61,6.28,6.28,0,0,1,1-2.07,4.94,4.94,0,0,1,1.8-1.36A5.31,5.31,0,0,1,323,6.2a4.71,4.71,0,0,1,3.7,1.47A5.93,5.93,0,0,1,328,11.75a5,5,0,0,1-.28,1.74,9.28,9.28,0,0,1-.81,2,16.34,16.34,0,0,1-1.58,2.34A32,32,0,0,1,323,20.62L310.47,33.94v5.28H337Z"></path><path class="cls-2" d="M191.18,70.88H188v40.79h3.15V92a12,12,0,0,1,1.26-2.5,8.66,8.66,0,0,1,1.79-2.23,9.2,9.2,0,0,1,2.45-1.52,8.08,8.08,0,0,1,3.1-.55,9.45,9.45,0,0,1,2.83.38,4.75,4.75,0,0,1,2.12,1.26,6.4,6.4,0,0,1,1.36,2.39,12.5,12.5,0,0,1,.49,3.75v18.71h3.15V93a15.66,15.66,0,0,0-.65-4.84,8.87,8.87,0,0,0-1.8-3.26A6.72,6.72,0,0,0,204.4,83a10.54,10.54,0,0,0-3.86-.6,9.79,9.79,0,0,0-2.88.38,9.64,9.64,0,0,0-2.56,1.09,11.29,11.29,0,0,0-2.18,1.68,12.25,12.25,0,0,0-1.74,2.23ZM221.45,83h-3.21v28.72h3.21Zm-3.21-6.8a2.34,2.34,0,0,0,1.64.6,2.17,2.17,0,0,0,1.57-.6,2,2,0,0,0,.6-1.52,1.91,1.91,0,0,0-.6-1.52,2,2,0,0,0-1.57-.65,2.13,2.13,0,0,0-1.64.65,2.09,2.09,0,0,0-.54,1.52,2.17,2.17,0,0,0,.54,1.52Zm10.54,21.44a20.07,20.07,0,0,0,.77,5.92,13.48,13.48,0,0,0,2.17,4.63,10.8,10.8,0,0,0,3.48,3,9.83,9.83,0,0,0,4.63,1.09,11.44,11.44,0,0,0,5.27-1.14,10,10,0,0,0,3.59-3.1v3.31a12.15,12.15,0,0,1-.54,3.87,7.44,7.44,0,0,1-1.69,2.82,6.61,6.61,0,0,1-2.66,1.85,10.38,10.38,0,0,1-3.59.6,9.34,9.34,0,0,1-4.3-1,12.21,12.21,0,0,1-3.75-3.15l-1.74,1.9a9.49,9.49,0,0,0,2,2.18,14.76,14.76,0,0,0,2.5,1.52,15.55,15.55,0,0,0,2.72.92,11.9,11.9,0,0,0,2.77.28,13.2,13.2,0,0,0,4.74-.82,10.09,10.09,0,0,0,3.64-2.34,10.9,10.9,0,0,0,2.29-3.75,14.52,14.52,0,0,0,.87-5V83h-3l-.16,4.14a10.46,10.46,0,0,0-3.64-3.43,11.47,11.47,0,0,0-10-.22,10.64,10.64,0,0,0-3.48,2.94A13.52,13.52,0,0,0,229.55,91a20.67,20.67,0,0,0-.77,6ZM232,97a21.75,21.75,0,0,1,.49-4.68A11.74,11.74,0,0,1,234,88.61a7.23,7.23,0,0,1,2.66-2.5,7.09,7.09,0,0,1,3.81-.93,10.31,10.31,0,0,1,3,.44,7.94,7.94,0,0,1,4,3,9.29,9.29,0,0,1,1.14,2.18v13.33a10,10,0,0,1-1.25,2.12,7.07,7.07,0,0,1-1.74,1.63,8.48,8.48,0,0,1-2.34,1.14,9.93,9.93,0,0,1-2.94.38A7.39,7.39,0,0,1,234,106a11.8,11.8,0,0,1-1.53-3.76,21.25,21.25,0,0,1-.49-4.67Zm31.36-26.16h-3.16v40.79h3.16V92a12.43,12.43,0,0,1,1.25-2.5,8.91,8.91,0,0,1,1.8-2.23,9.14,9.14,0,0,1,2.44-1.52,8.11,8.11,0,0,1,3.1-.55,9.41,9.41,0,0,1,2.83.38,4.65,4.65,0,0,1,2.12,1.26,6.27,6.27,0,0,1,1.36,2.39,12.18,12.18,0,0,1,.49,3.75v18.71h3.16V93a16,16,0,0,0-.65-4.84,9,9,0,0,0-1.8-3.26A6.78,6.78,0,0,0,276.57,83a10.61,10.61,0,0,0-3.86-.6,9.81,9.81,0,0,0-2.89.38,9.71,9.71,0,0,0-2.55,1.09,11,11,0,0,0-2.18,1.68,12.25,12.25,0,0,0-1.74,2.23Z"></path><path class="cls-3" d="M156,927.72H307.53M443.59,197.37V878.55"></path><path d="M487.4,560.78v.61l4.21,11.25h3.57l-2.91-7.91h26.15v-4Zm.13-26.22c.09,4.78,1.61,8.39,4.61,10.82s7.34,3.65,13,3.65h1.52a13.67,13.67,0,0,0,8.78-2.78,8.76,8.76,0,0,0,3.39-7.17,8.94,8.94,0,0,0-2.87-7,10.87,10.87,0,0,0-7.65-2.61,11,11,0,0,0-7.34,2.43,8.05,8.05,0,0,0-2.82,6.43A8.29,8.29,0,0,0,501,545a11.11,11.11,0,0,1-7.39-3.13,10.35,10.35,0,0,1-2.69-7.3v-.74h-3.35Zm16,.35a7.86,7.86,0,0,1,5.08-1.52,7.72,7.72,0,0,1,5.08,1.52,5,5,0,0,1,2,4.17,5.15,5.15,0,0,1-2.3,4.26,10,10,0,0,1-6.13,1.74h-1.43a6.09,6.09,0,0,1-3-2.35,6.25,6.25,0,0,1-1.22-3.73,5,5,0,0,1,2-4.09Zm-3.31-29.47c-4.47,0-7.73.87-9.86,2.43s-3.21,4-3.21,7.35,1.08,5.82,3.3,7.38S496,525,500.52,525h5.26c4.34-.05,7.6-.87,9.82-2.48s3.26-4,3.26-7.3-1.13-5.82-3.35-7.38-5.65-2.35-10.25-2.35Zm6.13,3.91c3.22,0,5.61.56,7.08,1.48a5.26,5.26,0,0,1-.13,8.73c-1.61,1-4,1.48-7.38,1.48h-6.3c-3.13,0-5.48-.52-7-1.44a4.73,4.73,0,0,1-2.26-4.38,4.8,4.8,0,0,1,2.3-4.44c1.52-.95,3.91-1.43,7.26-1.43Z"></path><path d="M198.62,995.7l-2.13,4.3h2.65l1.57-3.17a10.88,10.88,0,0,0,4,.74,10.32,10.32,0,0,0,5.43-1.44,10.19,10.19,0,0,0,3.69-4.17,13.66,13.66,0,0,0,1.31-6c0-4.52-1.39-7.91-4.13-10.08l2.17-4.34h-2.65l-1.52,3.17a10.37,10.37,0,0,0-4.35-.91,9.75,9.75,0,0,0-9.12,5.64,13.6,13.6,0,0,0-1.3,6c0,4.74,1.47,8.13,4.34,10.26ZM200,979.27a5.66,5.66,0,0,1,4.69-2.3,5.79,5.79,0,0,1,2.83.7l-7.26,14.73a9.51,9.51,0,0,1-2-6.48c0-2.87.57-5.08,1.78-6.65Zm11.21,6.52a10.15,10.15,0,0,1-1.74,6.26,5.77,5.77,0,0,1-4.73,2.3,6.15,6.15,0,0,1-2.57-.52l7.22-14.6a9.92,9.92,0,0,1,1.82,6.21Zm14-2.78h3a7.26,7.26,0,0,1,4.78,1.48,5.08,5.08,0,0,1,1.65,4.13,5.7,5.7,0,0,1-1.48,4.25,7,7,0,0,1-8.64,0,5,5,0,0,1-1.57-3.86H219a7.78,7.78,0,0,0,2.74,6.21,11.6,11.6,0,0,0,14.12-.09,8.44,8.44,0,0,0,2.74-6.6,7.53,7.53,0,0,0-1.4-4.56,7.73,7.73,0,0,0-3.95-2.65,8,8,0,0,0,3.56-2.83,6.79,6.79,0,0,0,1.31-3.91,8.44,8.44,0,0,0-2.48-6.47,9.77,9.77,0,0,0-6.86-2.3,9.88,9.88,0,0,0-6.83,2.43,7.89,7.89,0,0,0-2.69,6.08h4a5,5,0,0,1,1.48-3.82,5.62,5.62,0,0,1,4.09-1.48c3.6,0,5.43,1.83,5.43,5.43a5,5,0,0,1-1.61,3.87,6.67,6.67,0,0,1-4.39,1.48h-3Zm24.43,0h3a7.24,7.24,0,0,1,4.78,1.48,5.08,5.08,0,0,1,1.65,4.13,5.69,5.69,0,0,1-1.47,4.25,7.06,7.06,0,0,1-8.65,0,5,5,0,0,1-1.56-3.86h-4a7.78,7.78,0,0,0,2.74,6.21,11.6,11.6,0,0,0,14.12-.09,8.44,8.44,0,0,0,2.74-6.6,7.59,7.59,0,0,0-1.39-4.56,7.8,7.8,0,0,0-4-2.65,8.08,8.08,0,0,0,3.57-2.83,6.85,6.85,0,0,0,1.3-3.91,8.44,8.44,0,0,0-2.48-6.47,11.07,11.07,0,0,0-13.68.13,7.86,7.86,0,0,0-2.7,6.08h4a5,5,0,0,1,1.47-3.82,5.64,5.64,0,0,1,4.09-1.48c3.6,0,5.43,1.83,5.43,5.43a5,5,0,0,1-1.61,3.87,6.67,6.67,0,0,1-4.39,1.48h-3Z"></path><path class="cls-1" d="M174.29,199.18h120l9.23,45.4H165.06Zm65.27,45.4,1.67,623.05s-2.69,23.94,56.35,20.18c0,0,9-.59,8.08,5.35H164.1c-1-5.94,8.08-5.35,8.08-5.35,59,3.76,56.35-20.18,56.35-20.18l1.66-623"></path><path class="cls-4" d="M174.29,199.18h120l9.23,45.4H165.06l9.23-45.4Zm65.27,45.4,1.67,623.05s-2.69,23.94,56.35,20.18c0,0,9-.59,8.08,5.35H164.1c-1-5.94,8.08-5.35,8.08-5.35,59,3.76,56.35-20.18,56.35-20.18l1.66-623"></path></svg> 