<?xml version="1.0" encoding="UTF-8"?> <svg xmlns="http://www.w3.org/2000/svg" id="Livello_1" data-name="Livello 1" viewBox="0 0 623.12 1000"><defs><style>.cls-1{fill:#fff;}.cls-2{fill:#231f20;}.cls-3,.cls-4{fill:none;stroke-width:0.25px;}.cls-3{stroke:#000;}.cls-4{stroke:#231f20;stroke-miterlimit:10;}</style></defs><title>China tavolo small</title><rect class="cls-1" width="623.12" height="1000"></rect><path class="cls-2" d="M162.23,16.54a24.93,24.93,0,0,0-1-7.51,13.37,13.37,0,0,0-2.66-5.11A10,10,0,0,0,154.45,1a13.91,13.91,0,0,0-5.33-1,14.13,14.13,0,0,0-5.33,1,9.94,9.94,0,0,0-4.08,2.94A13.37,13.37,0,0,0,137.05,9a24.93,24.93,0,0,0-1,7.51v6.69a24.78,24.78,0,0,0,1,7.45,14.48,14.48,0,0,0,2.66,5.17,9.94,9.94,0,0,0,4.14,2.93,13.93,13.93,0,0,0,5.33,1,13.76,13.76,0,0,0,5.33-1,9.85,9.85,0,0,0,4.13-2.93,14.65,14.65,0,0,0,2.67-5.17,27,27,0,0,0,.92-7.45Zm-7.67,7.72a20,20,0,0,1-.38,4.35,8.51,8.51,0,0,1-1,2.88,3.86,3.86,0,0,1-1.69,1.58,5,5,0,0,1-2.28.49,5,5,0,0,1-2.29-.49,3.79,3.79,0,0,1-1.68-1.58,8.26,8.26,0,0,1-1.09-2.88,24.23,24.23,0,0,1-.33-4.35V15.39a23.52,23.52,0,0,1,.33-4.29,8.28,8.28,0,0,1,1-2.83,4.67,4.67,0,0,1,1.69-1.58,5.3,5.3,0,0,1,2.28-.43,5,5,0,0,1,2.29.43,4.43,4.43,0,0,1,1.74,1.58,8.28,8.28,0,0,1,1,2.83,19.43,19.43,0,0,1,.38,4.29Zm20.64-1.79h4.08a10.18,10.18,0,0,1,2.67.32,7.93,7.93,0,0,1,2,1,5.43,5.43,0,0,1,1.25,1.8,7.85,7.85,0,0,1,.44,2.67,5.76,5.76,0,0,1-.44,2.17,3.73,3.73,0,0,1-1.14,1.63,4.22,4.22,0,0,1-1.85,1.09,6.86,6.86,0,0,1-2.45.38,6,6,0,0,1-2.23-.38,4.92,4.92,0,0,1-1.79-1,4.69,4.69,0,0,1-1.2-1.53,4.75,4.75,0,0,1-.44-2h-7.67a10,10,0,0,0,1.15,5,10.19,10.19,0,0,0,3,3.48,12.93,12.93,0,0,0,4.19,2.07,18.39,18.39,0,0,0,4.84.65,19.33,19.33,0,0,0,5.44-.76,12.71,12.71,0,0,0,4.35-2.23,10.16,10.16,0,0,0,2.88-3.53,11.59,11.59,0,0,0,1-4.85,9.08,9.08,0,0,0-6.48-9,12.44,12.44,0,0,0,2.5-1.57,12.2,12.2,0,0,0,1.85-2,10.58,10.58,0,0,0,1.15-2.34,9.91,9.91,0,0,0,.38-2.45,11.25,11.25,0,0,0-1-4.78,9.82,9.82,0,0,0-2.67-3.43A12.23,12.23,0,0,0,184.94.71,20.15,20.15,0,0,0,179.61,0a16.24,16.24,0,0,0-5,.76,13.43,13.43,0,0,0-4,2.12,10.93,10.93,0,0,0-2.72,3.32,9.71,9.71,0,0,0-1,4.35h7.67A4,4,0,0,1,175,8.76a3.71,3.71,0,0,1,1.09-1.36,4.49,4.49,0,0,1,1.68-.87,5.64,5.64,0,0,1,2-.33,6,6,0,0,1,2.34.38,4.16,4.16,0,0,1,1.63,1,3.82,3.82,0,0,1,1,1.57,5.64,5.64,0,0,1,.33,2A5.33,5.33,0,0,1,183.63,15a5.84,5.84,0,0,1-4.35,1.47H175.2Zm49.42-5.93a25.25,25.25,0,0,0-1-7.51A13.38,13.38,0,0,0,221,3.92,10,10,0,0,0,216.84,1a14,14,0,0,0-5.33-1,14.13,14.13,0,0,0-5.33,1,9.81,9.81,0,0,0-4.08,2.94A13.25,13.25,0,0,0,199.43,9a25.25,25.25,0,0,0-1,7.51v6.69a25.1,25.1,0,0,0,1,7.45,14.33,14.33,0,0,0,2.67,5.17,9.85,9.85,0,0,0,4.13,2.93,13.93,13.93,0,0,0,5.33,1,13.76,13.76,0,0,0,5.33-1A9.94,9.94,0,0,0,221,35.85a14.48,14.48,0,0,0,2.66-5.17,27,27,0,0,0,.93-7.45ZM217,24.26a19.35,19.35,0,0,1-.39,4.35,8.1,8.1,0,0,1-1,2.88,3.79,3.79,0,0,1-1.68,1.58,5,5,0,0,1-2.29.49,5,5,0,0,1-2.28-.49,3.76,3.76,0,0,1-1.69-1.58,8.26,8.26,0,0,1-1.09-2.88,24.33,24.33,0,0,1-.32-4.35V15.39a23.62,23.62,0,0,1,.32-4.29,8.07,8.07,0,0,1,1-2.83,4.57,4.57,0,0,1,1.68-1.58,5.31,5.31,0,0,1,2.29-.43,5,5,0,0,1,2.28.43,4.37,4.37,0,0,1,1.74,1.58,7.88,7.88,0,0,1,1,2.83,18.79,18.79,0,0,1,.39,4.29ZM254.07,6.2a8.35,8.35,0,0,0-2.56-3.37A11,11,0,0,0,247.65.71a17,17,0,0,0-4.9-.71,17.72,17.72,0,0,0-4.95.71,11.47,11.47,0,0,0-3.86,2.12,9.46,9.46,0,0,0-2.56,3.37,11.27,11.27,0,0,0-.87,4.62,9.14,9.14,0,0,0,1.36,5,10,10,0,0,0,3.87,3.48,10.89,10.89,0,0,0-4.41,3.7,9.37,9.37,0,0,0-1.69,5.6,10.37,10.37,0,0,0,1,4.84,9.9,9.9,0,0,0,2.72,3.48,12.5,12.5,0,0,0,4.18,2.13,19.63,19.63,0,0,0,10.39,0,12.89,12.89,0,0,0,4.14-2.13,10.14,10.14,0,0,0,2.72-3.48,11.18,11.18,0,0,0,1-4.84,9.81,9.81,0,0,0-1.64-5.6,11.38,11.38,0,0,0-4.46-3.7,10,10,0,0,0,3.87-3.48,9.17,9.17,0,0,0,1.41-5,11.26,11.26,0,0,0-.92-4.62Zm-7.4,25.89a5.14,5.14,0,0,1-3.92,1.47,5.87,5.87,0,0,1-2.23-.38,3.93,3.93,0,0,1-1.68-1.09,4.13,4.13,0,0,1-1.09-1.74,5.93,5.93,0,0,1-.38-2.28,6.46,6.46,0,0,1,.38-2.34A4.54,4.54,0,0,1,238.84,24a4.45,4.45,0,0,1,1.68-1.09,5.58,5.58,0,0,1,2.18-.38,5.87,5.87,0,0,1,2.23.38A4.45,4.45,0,0,1,246.61,24a5.23,5.23,0,0,1,1.09,1.74,6.46,6.46,0,0,1,.38,2.34,5.43,5.43,0,0,1-1.41,4Zm-.55-17.19a4.71,4.71,0,0,1-6.74,0,5.36,5.36,0,0,1-1.2-3.69,5.29,5.29,0,0,1,1.2-3.7,4.35,4.35,0,0,1,3.37-1.31,4.27,4.27,0,0,1,3.37,1.36,5.51,5.51,0,0,1,1.2,3.65,5.62,5.62,0,0,1-1.2,3.69Zm30.11,4.68h-15v6.15h15Zm31.85-3a24.93,24.93,0,0,0-1-7.51,13.37,13.37,0,0,0-2.66-5.11A10,10,0,0,0,300.3,1,13.91,13.91,0,0,0,295,0a14.13,14.13,0,0,0-5.33,1,9.81,9.81,0,0,0-4.08,2.94A13.37,13.37,0,0,0,282.9,9a24.93,24.93,0,0,0-1,7.51v6.69a24.78,24.78,0,0,0,1,7.45,14.48,14.48,0,0,0,2.66,5.17,9.88,9.88,0,0,0,4.14,2.93,13.93,13.93,0,0,0,5.33,1,13.76,13.76,0,0,0,5.33-1,9.85,9.85,0,0,0,4.13-2.93,14.65,14.65,0,0,0,2.67-5.17,27,27,0,0,0,.92-7.45Zm-7.67,7.72a20,20,0,0,1-.38,4.35,8.51,8.51,0,0,1-1,2.88,3.86,3.86,0,0,1-1.69,1.58,5,5,0,0,1-2.28.49,5,5,0,0,1-2.29-.49,3.79,3.79,0,0,1-1.68-1.58A8.26,8.26,0,0,1,290,28.61a24.23,24.23,0,0,1-.33-4.35V15.39A23.52,23.52,0,0,1,290,11.1a8.28,8.28,0,0,1,1-2.83,4.67,4.67,0,0,1,1.69-1.58A5.3,5.3,0,0,1,295,6.26a5,5,0,0,1,2.29.43A4.43,4.43,0,0,1,299,8.27a8.28,8.28,0,0,1,1,2.83,19.43,19.43,0,0,1,.38,4.29ZM331.88.49h-.82l-16,5.77v6.2l9.14-2.83V39.22h7.67Z"></path><path class="cls-2" d="M194,106.29a5.3,5.3,0,0,1-1.42,1.69,10.63,10.63,0,0,1-2.34,1.14,11.59,11.59,0,0,1-3.21.38,12.3,12.3,0,0,1-2.72-.27,8.1,8.1,0,0,1-2.55-1,5.57,5.57,0,0,1-1.91-1.8,5.64,5.64,0,0,1-.87-2.83h-3.21a7.29,7.29,0,0,0,.77,3.21,8,8,0,0,0,2.17,2.78,10.83,10.83,0,0,0,3.48,1.9,16.37,16.37,0,0,0,4.84.71,15.73,15.73,0,0,0,4.41-.6,9.54,9.54,0,0,0,3.32-1.63,8.07,8.07,0,0,0,2.17-2.5,7.2,7.2,0,0,0,.71-3.27,6.69,6.69,0,0,0-.6-3,6.17,6.17,0,0,0-1.79-2.34,13.5,13.5,0,0,0-3.16-1.8,29.53,29.53,0,0,0-4.46-1.3,29.83,29.83,0,0,1-3.91-1.15,8.08,8.08,0,0,1-2.34-1.25,2.88,2.88,0,0,1-1.15-1.47,4.61,4.61,0,0,1-.32-1.74,4.39,4.39,0,0,1,.43-1.79,4.28,4.28,0,0,1,1.2-1.63,7.25,7.25,0,0,1,2.18-1.15,9.16,9.16,0,0,1,3.15-.43,9.32,9.32,0,0,1,3.16.49,6.94,6.94,0,0,1,2.33,1.3,5.34,5.34,0,0,1,1.47,1.91,5,5,0,0,1,.49,2.17h3.16a7.85,7.85,0,0,0-.71-3.42,8.34,8.34,0,0,0-2.07-2.72,10.51,10.51,0,0,0-3.37-1.8,14.11,14.11,0,0,0-4.46-.65,13.92,13.92,0,0,0-4.19.6,10.59,10.59,0,0,0-3.21,1.68,7.37,7.37,0,0,0-2,2.51,6.56,6.56,0,0,0-.71,3,6.74,6.74,0,0,0,.66,3.05,5.84,5.84,0,0,0,1.95,2.23,11.44,11.44,0,0,0,3.16,1.63,31.84,31.84,0,0,0,4.24,1.14,22.39,22.39,0,0,1,3.92,1.2A7.72,7.72,0,0,1,193,101a5.05,5.05,0,0,1,1.14,1.63,5.19,5.19,0,0,1,.33,1.79,4.05,4.05,0,0,1-.49,1.91ZM204.54,83v28.72h3.21V92a14,14,0,0,1,1-2.55,10.68,10.68,0,0,1,1.69-2.18,9.14,9.14,0,0,1,2.44-1.52,8,8,0,0,1,3.16-.55,9.79,9.79,0,0,1,2.88.38,5.24,5.24,0,0,1,3.65,3.54,11.66,11.66,0,0,1,.49,3.59v19h3.2v-19a7.88,7.88,0,0,1,.66-2.56,10.1,10.1,0,0,1,1.63-2.39,9.29,9.29,0,0,1,2.61-1.8,7.81,7.81,0,0,1,3.48-.71,11.16,11.16,0,0,1,2.83.33,4.79,4.79,0,0,1,2.23,1.25,5.83,5.83,0,0,1,1.47,2.39,12.29,12.29,0,0,1,.49,3.76v18.76h3.15V93a15.32,15.32,0,0,0-.6-4.78,8,8,0,0,0-1.84-3.27,6.92,6.92,0,0,0-3-1.9,12.69,12.69,0,0,0-4-.6,12.15,12.15,0,0,0-3.21.43A11.41,11.41,0,0,0,229.5,84a10.32,10.32,0,0,0-2.23,1.79A13.31,13.31,0,0,0,225.64,88a7.55,7.55,0,0,0-3.21-4.25,10.74,10.74,0,0,0-5.44-1.3,10.14,10.14,0,0,0-2.93.38,9.87,9.87,0,0,0-2.56,1,7.82,7.82,0,0,0-2.12,1.64,10.89,10.89,0,0,0-1.69,2.17L207.58,83Zm69.85,28.72v-.32a9.07,9.07,0,0,1-.38-1.2c-.11-.43-.17-.92-.28-1.41s-.11-1-.16-1.53-.05-1-.05-1.52V91.77a10.27,10.27,0,0,0-.77-4.08,8,8,0,0,0-2.17-2.94A9.41,9.41,0,0,0,267.31,83a15,15,0,0,0-8.75.11,12.42,12.42,0,0,0-3.48,1.9,8.81,8.81,0,0,0-2.23,2.72,6.17,6.17,0,0,0-.77,3.1l3.16.06a4.8,4.8,0,0,1,.6-2.29,6.41,6.41,0,0,1,1.57-1.85,7.57,7.57,0,0,1,2.45-1.2,9.38,9.38,0,0,1,3.05-.49,7.72,7.72,0,0,1,5.55,1.8,6.26,6.26,0,0,1,1.9,4.84V95h-5.87a24,24,0,0,0-5.5.6,12.76,12.76,0,0,0-4.13,1.85,8.07,8.07,0,0,0-2.61,2.83,8,8,0,0,0-.87,3.81,7.81,7.81,0,0,0,.65,3.21,7.59,7.59,0,0,0,1.85,2.61,8.85,8.85,0,0,0,2.94,1.74,12.11,12.11,0,0,0,3.8.6,14.78,14.78,0,0,0,3.16-.38,17.68,17.68,0,0,0,2.72-1,10.35,10.35,0,0,0,2.17-1.47,8.16,8.16,0,0,0,1.69-1.74c.06.76.11,1.47.22,2.23a7.58,7.58,0,0,0,.43,1.79ZM258.34,109a6.38,6.38,0,0,1-2.07-1.19A4.67,4.67,0,0,1,255,106a5,5,0,0,1-.49-2.17,5.37,5.37,0,0,1,.71-2.67,5.64,5.64,0,0,1,2.07-2,9.73,9.73,0,0,1,3.26-1.25,17.39,17.39,0,0,1,4.35-.44h5.44v6.31A9.65,9.65,0,0,1,269,106a11.07,11.07,0,0,1-2.07,1.8,10.75,10.75,0,0,1-2.67,1.19,11.64,11.64,0,0,1-3.21.44,7.85,7.85,0,0,1-2.66-.44Zm27.22-38.07h-3.21v40.79h3.21Zm12.18,0h-3.21v40.79h3.21Z"></path><line class="cls-3" x1="108.97" y1="927.72" x2="366.29" y2="927.72"></line><path d="M218.84,995.7l-2.13,4.3h2.65l1.57-3.17a10.92,10.92,0,0,0,4,.74,10.32,10.32,0,0,0,5.43-1.44,10.19,10.19,0,0,0,3.69-4.17,13.66,13.66,0,0,0,1.31-6c0-4.52-1.39-7.91-4.13-10.08l2.17-4.34h-2.65l-1.52,3.17a10.36,10.36,0,0,0-4.34-.91,9.75,9.75,0,0,0-9.13,5.64,13.6,13.6,0,0,0-1.3,6c0,4.74,1.48,8.13,4.34,10.26Zm1.39-16.43a5.66,5.66,0,0,1,4.7-2.3,5.75,5.75,0,0,1,2.82.7l-7.26,14.73a9.51,9.51,0,0,1-2-6.48c0-2.87.57-5.08,1.78-6.65Zm11.21,6.52a10.21,10.21,0,0,1-1.73,6.26,5.8,5.8,0,0,1-4.74,2.3,6.07,6.07,0,0,1-2.56-.52l7.21-14.6a9.86,9.86,0,0,1,1.82,6.21ZM260,993.92H244.49l8.26-9c3.91-4.17,5.82-7.82,5.82-10.86a7.79,7.79,0,0,0-2.48-6,9.78,9.78,0,0,0-6.82-2.25,10,10,0,0,0-7.34,2.65,8.92,8.92,0,0,0-2.78,6.86h3.95a6.44,6.44,0,0,1,1.61-4.65,6.2,6.2,0,0,1,4.56-1.65,5.17,5.17,0,0,1,3.91,1.56,5.53,5.53,0,0,1,1.44,4,7.5,7.5,0,0,1-.87,3.47,24.25,24.25,0,0,1-3.31,4.39l-10.68,11.91v2.82H260ZM269.88,983h2.95a7.24,7.24,0,0,1,4.78,1.48,5.08,5.08,0,0,1,1.65,4.13,5.69,5.69,0,0,1-1.47,4.25,7.06,7.06,0,0,1-8.65,0,5,5,0,0,1-1.56-3.86h-4a7.78,7.78,0,0,0,2.74,6.21,11.6,11.6,0,0,0,14.12-.09,8.41,8.41,0,0,0,2.74-6.6,7.59,7.59,0,0,0-1.39-4.56,7.8,7.8,0,0,0-4-2.65,8.08,8.08,0,0,0,3.57-2.83,6.78,6.78,0,0,0,1.3-3.91,8.44,8.44,0,0,0-2.48-6.47,11.07,11.07,0,0,0-13.68.13,7.9,7.9,0,0,0-2.7,6.08h4a5,5,0,0,1,1.47-3.82A5.64,5.64,0,0,1,273.4,969c3.6,0,5.43,1.83,5.43,5.43a5,5,0,0,1-1.61,3.87,6.65,6.65,0,0,1-4.39,1.48h-2.95Z"></path><line class="cls-3" x1="463.81" y1="635.26" x2="463.81" y2="884.69"></line><path d="M535.44,779.65v15.52l-9-8.26c-4.17-3.91-7.82-5.82-10.86-5.82a7.74,7.74,0,0,0-6,2.48,9.79,9.79,0,0,0-2.26,6.82,10,10,0,0,0,2.65,7.34,8.94,8.94,0,0,0,6.87,2.78v-4a6.42,6.42,0,0,1-4.65-1.61,6.17,6.17,0,0,1-1.65-4.56,5.17,5.17,0,0,1,1.56-3.91,5.53,5.53,0,0,1,4-1.44,7.53,7.53,0,0,1,3.47.87,24.58,24.58,0,0,1,4.39,3.3l11.91,10.69h2.82V779.65Zm0-24.43v15.51l-9-8.25c-4.17-3.91-7.82-5.82-10.86-5.82a7.77,7.77,0,0,0-6,2.47,9.83,9.83,0,0,0-2.26,6.83A10,10,0,0,0,510,773.3a8.94,8.94,0,0,0,6.87,2.78v-4a6.46,6.46,0,0,1-4.65-1.6,6.17,6.17,0,0,1-1.65-4.56A5.2,5.2,0,0,1,512.1,762a5.56,5.56,0,0,1,4-1.43,7.41,7.41,0,0,1,3.47.87,24.1,24.1,0,0,1,4.39,3.3l11.91,10.69h2.82V755.22Zm5.95-7.09a9.76,9.76,0,0,0-4.3-1H534v3.83h3.56A10.13,10.13,0,0,1,543.3,753l1.52-2.21a9.62,9.62,0,0,0-3.43-2.65ZM524,737.56l-.82-1a6.45,6.45,0,0,1-1.13-4,5.67,5.67,0,0,1,1.87-4.47,7.17,7.17,0,0,1,5-1.7,7.73,7.73,0,0,1,5.13,1.57,5.25,5.25,0,0,1,1.87,4.3,5.81,5.81,0,0,1-1.35,4,6.19,6.19,0,0,1-4,1.87v3.73a9.11,9.11,0,0,0,6.3-3,9.77,9.77,0,0,0,2.26-6.69,9.5,9.5,0,0,0-2.74-7.22,10.69,10.69,0,0,0-7.52-2.56,11,11,0,0,0-7.56,2.48,8.49,8.49,0,0,0-2.78,6.69,9.71,9.71,0,0,0,1.35,5.17l-8.43-.91V723.31h-3.65v15.82l15.42,1.56Z"></path><path class="cls-1" d="M237.36,883.79H363.08c5-11.88-13.26-11.88-13.26-11.88-112,5-101.95-40.66-101.95-40.66l-3.65-113.76H230.5l-3.65,113.76s10.05,45.69-101.94,40.66c0,0-18.29,0-13.26,11.88H237.37"></path><path class="cls-4" d="M237.36,883.79H363.08c5-11.88-13.26-11.88-13.26-11.88-112,5-101.95-40.66-101.95-40.66l-3.65-113.76H230.5l-3.65,113.76s10.05,45.69-101.94,40.66c0,0-18.29,0-13.26,11.88H237.37"></path><polygon class="cls-1" points="130.39 637.99 344.33 637.99 361.24 717.48 113.47 717.48 130.39 637.99"></polygon><polygon class="cls-4" points="130.39 637.99 344.33 637.99 361.24 717.48 113.47 717.48 130.39 637.99 130.39 637.99"></polygon></svg> 