<?xml version="1.0" encoding="UTF-8"?> <svg xmlns="http://www.w3.org/2000/svg" id="Livello_1" data-name="Livello 1" viewBox="0 0 623.12 1000"><defs><style>.cls-1{fill:#fff;}.cls-2{fill:#231f20;}.cls-3,.cls-4{fill:none;stroke-width:0.25px;}.cls-3{stroke:#000;}.cls-4{stroke:#231f20;stroke-miterlimit:10;}</style></defs><title>China terra bassa</title><rect class="cls-1" width="623.12" height="1000"></rect><path class="cls-2" d="M159.07,16.54a25.25,25.25,0,0,0-1-7.51,13.37,13.37,0,0,0-2.66-5.11A10.06,10.06,0,0,0,151.29,1,13.94,13.94,0,0,0,146,0a14.13,14.13,0,0,0-5.33,1,9.81,9.81,0,0,0-4.08,2.94A13.23,13.23,0,0,0,133.89,9a24.93,24.93,0,0,0-1,7.51v6.69a24.78,24.78,0,0,0,1,7.45,14.48,14.48,0,0,0,2.66,5.17,9.91,9.91,0,0,0,4.13,2.93,14,14,0,0,0,5.34,1,13.79,13.79,0,0,0,5.33-1,9.91,9.91,0,0,0,4.13-2.93,14.65,14.65,0,0,0,2.67-5.17,27.41,27.41,0,0,0,.92-7.45Zm-7.67,7.72a20,20,0,0,1-.38,4.35,8.51,8.51,0,0,1-1,2.88,3.86,3.86,0,0,1-1.69,1.58,5.57,5.57,0,0,1-4.57,0A3.86,3.86,0,0,1,142,31.49,8.47,8.47,0,0,1,141,28.61a24.23,24.23,0,0,1-.33-4.35V15.39A23.52,23.52,0,0,1,141,11.1a8.07,8.07,0,0,1,1-2.83,4.6,4.6,0,0,1,1.69-1.58A5.27,5.27,0,0,1,146,6.26a5,5,0,0,1,2.29.43A4.43,4.43,0,0,1,150,8.27a8.28,8.28,0,0,1,1,2.83,19.43,19.43,0,0,1,.38,4.29ZM172,22.47h4.08a10.05,10.05,0,0,1,2.66.32,7.83,7.83,0,0,1,2,1,5.43,5.43,0,0,1,1.25,1.8,7.86,7.86,0,0,1,.43,2.67,5.75,5.75,0,0,1-.43,2.17,3.73,3.73,0,0,1-1.14,1.63,4.22,4.22,0,0,1-1.85,1.09,6.89,6.89,0,0,1-2.45.38,6,6,0,0,1-2.23-.38,5,5,0,0,1-1.8-1,4.66,4.66,0,0,1-1.19-1.53,4.61,4.61,0,0,1-.44-2h-7.67a10.09,10.09,0,0,0,1.14,5,10.22,10.22,0,0,0,3,3.48,13,13,0,0,0,4.18,2.07,18.47,18.47,0,0,0,4.85.65,19.26,19.26,0,0,0,5.43-.76,12.67,12.67,0,0,0,4.36-2.23,10.28,10.28,0,0,0,2.88-3.53,11.58,11.58,0,0,0,1-4.85,9.06,9.06,0,0,0-6.47-9,12.72,12.72,0,0,0,2.5-1.57,12.2,12.2,0,0,0,1.85-2,10.12,10.12,0,0,0,1.14-2.34,9.46,9.46,0,0,0,.38-2.45,11.25,11.25,0,0,0-1-4.78,9.82,9.82,0,0,0-2.67-3.43A12.32,12.32,0,0,0,181.78.71,20.27,20.27,0,0,0,176.45,0a16.19,16.19,0,0,0-4.95.76,13.43,13.43,0,0,0-4,2.12,10.93,10.93,0,0,0-2.72,3.32,9.71,9.71,0,0,0-1,4.35h7.67a3.85,3.85,0,0,1,.44-1.79A3.79,3.79,0,0,1,173,7.4a4.53,4.53,0,0,1,1.69-.87,5.64,5.64,0,0,1,2-.33,6.11,6.11,0,0,1,2.34.38,4.23,4.23,0,0,1,1.63,1,3.93,3.93,0,0,1,1,1.57,5.64,5.64,0,0,1,.32,2A5.33,5.33,0,0,1,180.47,15a5.84,5.84,0,0,1-4.35,1.47H172Zm49.41-5.93a24.93,24.93,0,0,0-1-7.51,13.23,13.23,0,0,0-2.66-5.11A10,10,0,0,0,213.67,1a13.91,13.91,0,0,0-5.33-1A14.2,14.2,0,0,0,203,1a9.94,9.94,0,0,0-4.08,2.94A13.37,13.37,0,0,0,196.27,9a25.25,25.25,0,0,0-1,7.51v6.69a25.1,25.1,0,0,0,1,7.45,14.48,14.48,0,0,0,2.66,5.17,9.94,9.94,0,0,0,4.14,2.93,13.93,13.93,0,0,0,5.33,1,13.76,13.76,0,0,0,5.33-1,9.85,9.85,0,0,0,4.13-2.93,14.33,14.33,0,0,0,2.67-5.17,27,27,0,0,0,.92-7.45Zm-7.67,7.72a20,20,0,0,1-.38,4.35,8.3,8.3,0,0,1-1,2.88,3.81,3.81,0,0,1-1.69,1.58,5,5,0,0,1-2.28.49,5,5,0,0,1-2.29-.49,3.79,3.79,0,0,1-1.68-1.58,8.26,8.26,0,0,1-1.09-2.88,24.23,24.23,0,0,1-.33-4.35V15.39a23.52,23.52,0,0,1,.33-4.29,8.28,8.28,0,0,1,1-2.83,4.67,4.67,0,0,1,1.69-1.58,5.3,5.3,0,0,1,2.28-.43,5,5,0,0,1,2.29.43,4.37,4.37,0,0,1,1.74,1.58,8.07,8.07,0,0,1,1,2.83,19.43,19.43,0,0,1,.38,4.29ZM250.9,6.2a8.24,8.24,0,0,0-2.55-3.37A11,11,0,0,0,244.49.71a17,17,0,0,0-4.9-.71,17.66,17.66,0,0,0-5,.71,11.47,11.47,0,0,0-3.86,2.12,9.35,9.35,0,0,0-2.56,3.37,11.11,11.11,0,0,0-.87,4.62,9.14,9.14,0,0,0,1.36,5,10,10,0,0,0,3.86,3.48,10.86,10.86,0,0,0-4.4,3.7,9.37,9.37,0,0,0-1.69,5.6,10.5,10.5,0,0,0,1,4.84,10.14,10.14,0,0,0,2.72,3.48,12.64,12.64,0,0,0,4.19,2.13,19.63,19.63,0,0,0,10.39,0A12.89,12.89,0,0,0,249,36.93a10.14,10.14,0,0,0,2.72-3.48,11.18,11.18,0,0,0,1-4.84A9.8,9.8,0,0,0,251,23a11.38,11.38,0,0,0-4.46-3.7,9.94,9.94,0,0,0,3.86-3.48,9.09,9.09,0,0,0,1.42-5,11.1,11.1,0,0,0-.93-4.62Zm-7.39,25.89a5.14,5.14,0,0,1-3.92,1.47,5.83,5.83,0,0,1-2.23-.38,4.62,4.62,0,0,1-2.77-2.83,5.74,5.74,0,0,1-.38-2.28,6.25,6.25,0,0,1,.38-2.34A4.4,4.4,0,0,1,235.67,24a4.57,4.57,0,0,1,1.69-1.09,5.58,5.58,0,0,1,2.18-.38,5.9,5.9,0,0,1,2.23.38A4.45,4.45,0,0,1,243.45,24a5.23,5.23,0,0,1,1.09,1.74,6.46,6.46,0,0,1,.38,2.34,5.43,5.43,0,0,1-1.41,4ZM243,14.9a4.71,4.71,0,0,1-6.74,0,5.36,5.36,0,0,1-1.2-3.69,5.29,5.29,0,0,1,1.2-3.7,4.33,4.33,0,0,1,3.37-1.31A4.28,4.28,0,0,1,243,7.56a5.56,5.56,0,0,1,1.2,3.65A5.67,5.67,0,0,1,243,14.9Zm30.11,4.68h-15v6.15h15ZM297.52.49h-.81l-16,5.77v6.2l9.14-2.83V39.22h7.67Zm31.19,0h-.81l-16,5.77v6.2L321,9.63V39.22h7.67Z"></path><path class="cls-2" d="M200.4,70.88h-3.21v40.79h3.21Zm6.85,26.87a18.12,18.12,0,0,0,.92,5.82,13.66,13.66,0,0,0,2.61,4.57,11.7,11.7,0,0,0,4,3,13.31,13.31,0,0,0,10.55,0,12.39,12.39,0,0,0,4.08-3,14.46,14.46,0,0,0,2.56-4.57,18.39,18.39,0,0,0,.92-5.82v-.87a18,18,0,0,0-.92-5.77,14.08,14.08,0,0,0-2.56-4.62,12.25,12.25,0,0,0-4.08-3A12.92,12.92,0,0,0,220,82.41a12.53,12.53,0,0,0-5.22,1.09,12.25,12.25,0,0,0-4.08,3,14.08,14.08,0,0,0-2.56,4.62,17.76,17.76,0,0,0-.92,5.77Zm3.2-.87a15.39,15.39,0,0,1,.6-4.46,12.34,12.34,0,0,1,1.85-3.76,8.72,8.72,0,0,1,3-2.55,8.43,8.43,0,0,1,4.08-1,8.84,8.84,0,0,1,4.19,1,8.69,8.69,0,0,1,3,2.55,11.9,11.9,0,0,1,1.85,3.76,15.1,15.1,0,0,1,.66,4.46v.87a15.14,15.14,0,0,1-.66,4.51,11.9,11.9,0,0,1-1.85,3.76,9.9,9.9,0,0,1-3,2.55,8.38,8.38,0,0,1-4.14.93,8.49,8.49,0,0,1-4.13-.93,9.94,9.94,0,0,1-3-2.55,12.34,12.34,0,0,1-1.85-3.76,15.46,15.46,0,0,1-.6-4.51ZM240.23,83H237l8.32,28.72H248l7.24-22.73.38-1.63.32,1.57,7.4,22.79H266L274.39,83h-3.26l-5.93,22-.6,2.78-.76-3L257,83h-2.72l-6.91,22-.65,2.61-.43-2.5Z"></path><path class="cls-3" d="M161.81,927.72h143M443.18,318.48V894.06"></path><path d="M487,619v.61l4.21,11.25h3.56l-2.91-7.91H518v-4Zm0-24.43v.6l4.21,11.26h3.56l-2.91-7.91H518v-4Zm16.33-16.48-.82-1.05a6.45,6.45,0,0,1-1.13-4,5.67,5.67,0,0,1,1.87-4.47,7.17,7.17,0,0,1,5-1.7,7.73,7.73,0,0,1,5.13,1.57,5.25,5.25,0,0,1,1.87,4.3,5.84,5.84,0,0,1-1.35,4,6.19,6.19,0,0,1-4,1.87v3.73a9.09,9.09,0,0,0,6.3-3,9.72,9.72,0,0,0,2.26-6.69,9.49,9.49,0,0,0-2.73-7.22,10.69,10.69,0,0,0-7.52-2.56,11,11,0,0,0-7.56,2.48,8.49,8.49,0,0,0-2.78,6.69,9.71,9.71,0,0,0,1.35,5.17l-8.43-.91V563.82h-3.65v15.82l15.42,1.56Z"></path><path d="M198.21,995.7l-2.13,4.3h2.65l1.57-3.17a10.88,10.88,0,0,0,4,.74,10.32,10.32,0,0,0,5.43-1.44,10.19,10.19,0,0,0,3.69-4.17,13.66,13.66,0,0,0,1.31-6c0-4.52-1.39-7.91-4.13-10.08l2.17-4.34h-2.65l-1.52,3.17a10.37,10.37,0,0,0-4.35-.91,9.75,9.75,0,0,0-9.12,5.64,13.6,13.6,0,0,0-1.3,6c0,4.74,1.47,8.13,4.34,10.26Zm1.39-16.43a5.66,5.66,0,0,1,4.69-2.3,5.79,5.79,0,0,1,2.83.7l-7.26,14.73a9.51,9.51,0,0,1-2-6.48c0-2.87.57-5.08,1.78-6.65Zm11.21,6.52a10.15,10.15,0,0,1-1.74,6.26,5.77,5.77,0,0,1-4.73,2.3,6.15,6.15,0,0,1-2.57-.52l7.22-14.6a9.92,9.92,0,0,1,1.82,6.21Zm14-2.78h3a7.26,7.26,0,0,1,4.78,1.48,5.08,5.08,0,0,1,1.65,4.13,5.7,5.7,0,0,1-1.48,4.25,7,7,0,0,1-8.64,0,5,5,0,0,1-1.57-3.86h-3.95a7.78,7.78,0,0,0,2.74,6.21,11.6,11.6,0,0,0,14.12-.09,8.44,8.44,0,0,0,2.74-6.6,7.53,7.53,0,0,0-1.4-4.56,7.73,7.73,0,0,0-3.95-2.65,8,8,0,0,0,3.56-2.83,6.79,6.79,0,0,0,1.31-3.91,8.44,8.44,0,0,0-2.48-6.47,9.77,9.77,0,0,0-6.86-2.3,9.88,9.88,0,0,0-6.83,2.43,7.89,7.89,0,0,0-2.69,6.08h4a5,5,0,0,1,1.48-3.82,5.62,5.62,0,0,1,4.09-1.48c3.6,0,5.43,1.83,5.43,5.43a5,5,0,0,1-1.61,3.87,6.67,6.67,0,0,1-4.39,1.48h-3Zm24.43,0h2.95a7.24,7.24,0,0,1,4.78,1.48,5.08,5.08,0,0,1,1.65,4.13,5.69,5.69,0,0,1-1.47,4.25,7.06,7.06,0,0,1-8.65,0A5,5,0,0,1,247,989h-4a7.78,7.78,0,0,0,2.74,6.21,11.6,11.6,0,0,0,14.12-.09,8.44,8.44,0,0,0,2.74-6.6A7.59,7.59,0,0,0,261.2,984a7.8,7.8,0,0,0-4-2.65,8.08,8.08,0,0,0,3.57-2.83,6.85,6.85,0,0,0,1.3-3.91,8.44,8.44,0,0,0-2.48-6.47,11.07,11.07,0,0,0-13.68.13,7.86,7.86,0,0,0-2.7,6.08h4a5,5,0,0,1,1.47-3.82,5.64,5.64,0,0,1,4.09-1.48c3.6,0,5.43,1.83,5.43,5.43a5,5,0,0,1-1.61,3.87,6.67,6.67,0,0,1-4.39,1.48h-2.95Z"></path><path class="cls-1" d="M175.88,299.17H291.93L300.86,338H167ZM239,338l1.62,533.27S238,891.8,295.1,888.58c0,0,8.74-.51,7.81,4.57H166c-.93-5.08,7.81-4.57,7.81-4.57,57.09,3.22,54.49-17.28,54.49-17.28L229.94,338"></path><path class="cls-4" d="M175.88,299.17H291.93L300.86,338H167l8.92-38.86ZM239,338l1.62,533.27S238,891.8,295.1,888.58c0,0,8.74-.51,7.81,4.57H166c-.93-5.08,7.81-4.57,7.81-4.57,57.09,3.22,54.49-17.28,54.49-17.28L229.94,338"></path></svg> 