<?xml version="1.0" encoding="UTF-8"?> <svg xmlns="http://www.w3.org/2000/svg" id="Livello_1" data-name="Livello 1" viewBox="0 0 732.89 1000"><defs><style>.cls-1{fill:#fff;}.cls-2{fill:#231f20;}.cls-3,.cls-4{fill:none;stroke-width:0.25px;}.cls-3{stroke:#000;}.cls-4{stroke:#231f20;stroke-miterlimit:10;}</style></defs><title>China tavolo medium</title><rect class="cls-1" width="732.89" height="1000"></rect><path class="cls-2" d="M183.57,16.54a25.25,25.25,0,0,0-1-7.51,13.37,13.37,0,0,0-2.66-5.11A10.06,10.06,0,0,0,175.79,1a13.94,13.94,0,0,0-5.33-1,14.13,14.13,0,0,0-5.33,1,9.81,9.81,0,0,0-4.08,2.94A13.38,13.38,0,0,0,158.38,9a25.27,25.27,0,0,0-1,7.51v6.69a25.13,25.13,0,0,0,1,7.45,14.65,14.65,0,0,0,2.67,5.17,9.91,9.91,0,0,0,4.13,2.93,14,14,0,0,0,5.33,1,13.81,13.81,0,0,0,5.34-1A9.91,9.91,0,0,0,180,35.85a14.48,14.48,0,0,0,2.66-5.17,27,27,0,0,0,.93-7.45Zm-7.67,7.72a20,20,0,0,1-.38,4.35,8.51,8.51,0,0,1-1,2.88,3.86,3.86,0,0,1-1.69,1.58,5.57,5.57,0,0,1-4.57,0,3.86,3.86,0,0,1-1.69-1.58,8.26,8.26,0,0,1-1.08-2.88,24.23,24.23,0,0,1-.33-4.35V15.39a23.52,23.52,0,0,1,.33-4.29,7.88,7.88,0,0,1,1-2.83,4.6,4.6,0,0,1,1.69-1.58,5.24,5.24,0,0,1,2.28-.43,5,5,0,0,1,2.28.43,4.39,4.39,0,0,1,1.75,1.58,8.28,8.28,0,0,1,1,2.83,19.43,19.43,0,0,1,.38,4.29Zm20.64-1.79h4.08a10.05,10.05,0,0,1,2.66.32,7.83,7.83,0,0,1,2,1,5.43,5.43,0,0,1,1.25,1.8,7.86,7.86,0,0,1,.43,2.67,5.75,5.75,0,0,1-.43,2.17,3.73,3.73,0,0,1-1.14,1.63,4.22,4.22,0,0,1-1.85,1.09,6.89,6.89,0,0,1-2.45.38,6,6,0,0,1-2.23-.38,5,5,0,0,1-1.8-1,4.66,4.66,0,0,1-1.19-1.53,4.61,4.61,0,0,1-.44-2h-7.67a10.09,10.09,0,0,0,1.14,5,10.22,10.22,0,0,0,3,3.48,13,13,0,0,0,4.18,2.07,18.45,18.45,0,0,0,4.84.65,19.27,19.27,0,0,0,5.44-.76,12.76,12.76,0,0,0,4.36-2.23,10.28,10.28,0,0,0,2.88-3.53,11.58,11.58,0,0,0,1-4.85,9.06,9.06,0,0,0-6.47-9,12.72,12.72,0,0,0,2.5-1.57,12.2,12.2,0,0,0,1.85-2,10.12,10.12,0,0,0,1.14-2.34,9.46,9.46,0,0,0,.38-2.45,11.1,11.1,0,0,0-1-4.78,9.68,9.68,0,0,0-2.66-3.43A12.32,12.32,0,0,0,206.28.71,20.29,20.29,0,0,0,200.94,0,16.29,16.29,0,0,0,196,.76a13.5,13.5,0,0,0-4,2.12,10.93,10.93,0,0,0-2.72,3.32,9.71,9.71,0,0,0-1,4.35h7.67a3.85,3.85,0,0,1,.44-1.79,3.79,3.79,0,0,1,1.08-1.36,4.53,4.53,0,0,1,1.69-.87,5.64,5.64,0,0,1,2-.33,6.11,6.11,0,0,1,2.34.38,4.23,4.23,0,0,1,1.63,1,3.93,3.93,0,0,1,1,1.57,5.64,5.64,0,0,1,.32,2A5.37,5.37,0,0,1,205,15a5.84,5.84,0,0,1-4.35,1.47h-4.08ZM246,16.54A24.93,24.93,0,0,0,245,9a13.23,13.23,0,0,0-2.66-5.11A10,10,0,0,0,238.17,1a13.91,13.91,0,0,0-5.33-1,14.16,14.16,0,0,0-5.33,1,9.94,9.94,0,0,0-4.08,2.94A13.37,13.37,0,0,0,220.77,9a25.25,25.25,0,0,0-1,7.51v6.69a25.1,25.1,0,0,0,1,7.45,14.48,14.48,0,0,0,2.66,5.17,9.94,9.94,0,0,0,4.14,2.93,13.93,13.93,0,0,0,5.33,1,13.76,13.76,0,0,0,5.33-1,9.85,9.85,0,0,0,4.13-2.93A14.49,14.49,0,0,0,245,30.68a27,27,0,0,0,.92-7.45Zm-7.67,7.72a20,20,0,0,1-.38,4.35,8.51,8.51,0,0,1-1,2.88,3.81,3.81,0,0,1-1.69,1.58,5,5,0,0,1-2.28.49,5,5,0,0,1-2.29-.49,3.79,3.79,0,0,1-1.68-1.58,8.26,8.26,0,0,1-1.09-2.88,24.23,24.23,0,0,1-.33-4.35V15.39a23.52,23.52,0,0,1,.33-4.29,8.28,8.28,0,0,1,1-2.83,4.67,4.67,0,0,1,1.69-1.58,5.3,5.3,0,0,1,2.28-.43,5,5,0,0,1,2.29.43,4.37,4.37,0,0,1,1.74,1.58,8.28,8.28,0,0,1,1,2.83,19.43,19.43,0,0,1,.38,4.29ZM275.4,6.2a8.24,8.24,0,0,0-2.55-3.37A11,11,0,0,0,269,.71,16.92,16.92,0,0,0,264.09,0a17.61,17.61,0,0,0-4.95.71,11.47,11.47,0,0,0-3.86,2.12,9.35,9.35,0,0,0-2.56,3.37,11.11,11.11,0,0,0-.87,4.62,9.14,9.14,0,0,0,1.36,5,10,10,0,0,0,3.86,3.48,10.8,10.8,0,0,0-4.4,3.7,9.3,9.3,0,0,0-1.69,5.6,10.5,10.5,0,0,0,1,4.84,10.14,10.14,0,0,0,2.72,3.48,12.64,12.64,0,0,0,4.19,2.13,19.63,19.63,0,0,0,10.39,0,12.89,12.89,0,0,0,4.14-2.13,10,10,0,0,0,2.71-3.48,11,11,0,0,0,1-4.84,9.8,9.8,0,0,0-1.63-5.6,11.38,11.38,0,0,0-4.46-3.7,9.94,9.94,0,0,0,3.86-3.48,9.09,9.09,0,0,0,1.42-5,11.1,11.1,0,0,0-.93-4.62ZM268,32.09a5.14,5.14,0,0,1-3.92,1.47,5.83,5.83,0,0,1-2.23-.38,4,4,0,0,1-1.69-1.09,4.13,4.13,0,0,1-1.09-1.74,5.93,5.93,0,0,1-.38-2.28,6.46,6.46,0,0,1,.38-2.34,4.67,4.67,0,0,1,2.78-2.83,5.56,5.56,0,0,1,2.17-.38,5.92,5.92,0,0,1,2.24.38A4.45,4.45,0,0,1,268,24,5.23,5.23,0,0,1,269,25.73a6.46,6.46,0,0,1,.38,2.34,5.47,5.47,0,0,1-1.41,4Zm-.55-17.19a4.71,4.71,0,0,1-6.74,0,5.36,5.36,0,0,1-1.2-3.69,5.29,5.29,0,0,1,1.2-3.7,4.33,4.33,0,0,1,3.37-1.31,4.28,4.28,0,0,1,3.37,1.36,5.56,5.56,0,0,1,1.2,3.65,5.67,5.67,0,0,1-1.2,3.69Zm30.11,4.68h-15v6.15h15Zm31.85-3a25.25,25.25,0,0,0-1-7.51,13.25,13.25,0,0,0-2.67-5.11A10,10,0,0,0,321.64,1a13.94,13.94,0,0,0-5.33-1A14.13,14.13,0,0,0,311,1a9.81,9.81,0,0,0-4.08,2.94A13.38,13.38,0,0,0,304.23,9a25.27,25.27,0,0,0-1,7.51v6.69a25.13,25.13,0,0,0,1,7.45,14.65,14.65,0,0,0,2.67,5.17A9.91,9.91,0,0,0,311,38.78a14,14,0,0,0,5.33,1,13.81,13.81,0,0,0,5.34-1,9.91,9.91,0,0,0,4.13-2.93,14.48,14.48,0,0,0,2.66-5.17,27,27,0,0,0,.93-7.45Zm-7.67,7.72a20,20,0,0,1-.38,4.35,8.51,8.51,0,0,1-1,2.88,3.86,3.86,0,0,1-1.69,1.58,5.57,5.57,0,0,1-4.57,0,3.86,3.86,0,0,1-1.69-1.58,8.26,8.26,0,0,1-1.08-2.88,24.23,24.23,0,0,1-.33-4.35V15.39a23.52,23.52,0,0,1,.33-4.29,7.88,7.88,0,0,1,1-2.83A4.6,4.6,0,0,1,314,6.69a5.24,5.24,0,0,1,2.28-.43,5,5,0,0,1,2.28.43,4.39,4.39,0,0,1,1.75,1.58,8.28,8.28,0,0,1,1,2.83,19.43,19.43,0,0,1,.38,4.29Zm38.86-7.72a25.25,25.25,0,0,0-1-7.51A13.37,13.37,0,0,0,357,3.92,10.06,10.06,0,0,0,352.83,1a13.94,13.94,0,0,0-5.33-1,14.13,14.13,0,0,0-5.33,1,9.81,9.81,0,0,0-4.08,2.94A13.23,13.23,0,0,0,335.43,9a24.93,24.93,0,0,0-1,7.51v6.69a24.78,24.78,0,0,0,1,7.45,14.48,14.48,0,0,0,2.66,5.17,9.88,9.88,0,0,0,4.14,2.93,13.93,13.93,0,0,0,5.33,1,13.79,13.79,0,0,0,5.33-1A9.91,9.91,0,0,0,357,35.85a14.65,14.65,0,0,0,2.67-5.17,27.41,27.41,0,0,0,.92-7.45Zm-7.67,7.72a20,20,0,0,1-.38,4.35,8.51,8.51,0,0,1-1,2.88,3.86,3.86,0,0,1-1.69,1.58,5.57,5.57,0,0,1-4.57,0,3.79,3.79,0,0,1-1.68-1.58,8.26,8.26,0,0,1-1.09-2.88,24.23,24.23,0,0,1-.33-4.35V15.39a23.52,23.52,0,0,1,.33-4.29,8.07,8.07,0,0,1,1-2.83,4.6,4.6,0,0,1,1.69-1.58,5.27,5.27,0,0,1,2.28-.43,5,5,0,0,1,2.29.43,4.43,4.43,0,0,1,1.74,1.58,8.28,8.28,0,0,1,1,2.83,19.43,19.43,0,0,1,.38,4.29Z"></path><path class="cls-2" d="M164.63,83v28.72h3.21V92a14.07,14.07,0,0,1,1-2.55,10.63,10.63,0,0,1,1.68-2.18A9.2,9.2,0,0,1,173,85.73a8,8,0,0,1,3.15-.55,9.81,9.81,0,0,1,2.89.38,5.44,5.44,0,0,1,2.17,1.2,5.37,5.37,0,0,1,1.47,2.34,11.37,11.37,0,0,1,.49,3.59v19h3.21v-19a7.61,7.61,0,0,1,.65-2.56,10.41,10.41,0,0,1,1.63-2.39,9.21,9.21,0,0,1,2.62-1.8,7.76,7.76,0,0,1,3.48-.71,11.16,11.16,0,0,1,2.83.33,4.79,4.79,0,0,1,2.23,1.25,5.82,5.82,0,0,1,1.46,2.39,12,12,0,0,1,.49,3.76v18.76h3.16V93a15.32,15.32,0,0,0-.6-4.78,7.86,7.86,0,0,0-1.85-3.27,6.83,6.83,0,0,0-3-1.9,12.69,12.69,0,0,0-4-.6,12.15,12.15,0,0,0-3.21.43A11.41,11.41,0,0,0,189.6,84a9.86,9.86,0,0,0-2.23,1.79A12.26,12.26,0,0,0,185.74,88a7.63,7.63,0,0,0-3.21-4.25,10.74,10.74,0,0,0-5.44-1.3,11.3,11.3,0,0,0-5.5,1.41,8,8,0,0,0-2.12,1.64,11.23,11.23,0,0,0-1.68,2.17L167.68,83Zm62.94,28.83a9,9,0,0,0,2.83-1.09,9.07,9.07,0,0,0,2.18-1.57,14.87,14.87,0,0,0,1.68-2l-2-1.46a9.3,9.3,0,0,1-3.53,2.93,9.94,9.94,0,0,1-4.52.93,9,9,0,0,1-4-.87,9.7,9.7,0,0,1-3.1-2.45,11,11,0,0,1-2-3.59,13.4,13.4,0,0,1-.7-4.46v-.6h20.5v-2a18.14,18.14,0,0,0-.76-5.27,11.92,11.92,0,0,0-2.17-4.19,10.52,10.52,0,0,0-3.59-2.72,11.41,11.41,0,0,0-4.85-1,10.72,10.72,0,0,0-4.67,1,12.82,12.82,0,0,0-3.92,2.94A13.54,13.54,0,0,0,212.18,91a17.63,17.63,0,0,0-1,6v1.14a15.9,15.9,0,0,0,1,5.66,12.58,12.58,0,0,0,2.67,4.46,11.36,11.36,0,0,0,4.07,2.88,12.37,12.37,0,0,0,5.17,1.09,13.56,13.56,0,0,0,3.48-.44ZM227,85.89A8.7,8.7,0,0,1,229.59,88a9.81,9.81,0,0,1,1.52,3,12.87,12.87,0,0,1,.6,3.54v.32H214.46a14.91,14.91,0,0,1,1-4,10.07,10.07,0,0,1,1.9-3,9.59,9.59,0,0,1,2.72-2,8.8,8.8,0,0,1,3.37-.65,8.06,8.06,0,0,1,3.54.76Zm12.75,11.7a20.07,20.07,0,0,0,.77,5.92,14.68,14.68,0,0,0,2.17,4.63,10.8,10.8,0,0,0,3.48,3,10,10,0,0,0,4.63,1.09,11.55,11.55,0,0,0,5.33-1.14,10.91,10.91,0,0,0,3.64-3.21l.11,3.8h3V70.88h-3.15V87a10.68,10.68,0,0,0-3.65-3.37,10.54,10.54,0,0,0-5.22-1.2,9.88,9.88,0,0,0-4.62,1,10.26,10.26,0,0,0-3.54,2.94A14.73,14.73,0,0,0,240.55,91a20.67,20.67,0,0,0-.77,6ZM243,97a21.75,21.75,0,0,1,.49-4.68A11.74,11.74,0,0,1,245,88.61a7.23,7.23,0,0,1,2.66-2.5,7.11,7.11,0,0,1,3.81-.93,10.38,10.38,0,0,1,3.05.44,8.71,8.71,0,0,1,2.33,1.25,7.28,7.28,0,0,1,1.69,1.79,11.83,11.83,0,0,1,1.2,2.13v13.49a11.7,11.7,0,0,1-1.31,2.06A7.11,7.11,0,0,1,256.7,108a8.64,8.64,0,0,1-2.34,1.08,10.37,10.37,0,0,1-2.93.38,7.4,7.4,0,0,1-3.76-.92A7.32,7.32,0,0,1,245,106a11.8,11.8,0,0,1-1.53-3.76,21.25,21.25,0,0,1-.49-4.67ZM274.84,83h-3.21v28.72h3.21Zm-3.21-6.8a2.33,2.33,0,0,0,1.63.6,2.17,2.17,0,0,0,1.58-.6,2,2,0,0,0,.6-1.52,1.91,1.91,0,0,0-.6-1.52,2,2,0,0,0-1.58-.65,2.13,2.13,0,0,0-1.63.65,2.09,2.09,0,0,0-.54,1.52,2.17,2.17,0,0,0,.54,1.52ZM302,111.67h3.1V83h-3.21v20.78a10.72,10.72,0,0,1-1.09,2.29,6,6,0,0,1-1.74,1.79,7.17,7.17,0,0,1-2.55,1.2,12.24,12.24,0,0,1-3.38.43,8.08,8.08,0,0,1-2.55-.38,5.11,5.11,0,0,1-2.12-1.36,6.58,6.58,0,0,1-1.42-2.44,13.21,13.21,0,0,1-.54-3.87V83h-3.16v18.39a15,15,0,0,0,.71,5,9,9,0,0,0,1.9,3.38,7.89,7.89,0,0,0,3,1.9,12.21,12.21,0,0,0,3.86.6,12.37,12.37,0,0,0,5.55-1.14,9.4,9.4,0,0,0,3.59-3ZM313.09,83v28.72h3.21V92a14.07,14.07,0,0,1,1-2.55A10.63,10.63,0,0,1,319,87.25a9.2,9.2,0,0,1,2.45-1.52,8,8,0,0,1,3.15-.55,9.81,9.81,0,0,1,2.89.38,5.44,5.44,0,0,1,2.17,1.2,5.28,5.28,0,0,1,1.47,2.34,11.37,11.37,0,0,1,.49,3.59v19h3.21v-19a7.61,7.61,0,0,1,.65-2.56,10.14,10.14,0,0,1,1.64-2.39,9,9,0,0,1,2.61-1.8,7.79,7.79,0,0,1,3.48-.71,11.16,11.16,0,0,1,2.83.33,4.79,4.79,0,0,1,2.23,1.25,5.82,5.82,0,0,1,1.46,2.39,12,12,0,0,1,.49,3.76v18.76h3.16V93a15.32,15.32,0,0,0-.6-4.78A7.86,7.86,0,0,0,351,84.91a6.83,6.83,0,0,0-3-1.9,12.69,12.69,0,0,0-4-.6,12.15,12.15,0,0,0-3.21.43A11.41,11.41,0,0,0,338.06,84a9.86,9.86,0,0,0-2.23,1.79A12.26,12.26,0,0,0,334.2,88,7.59,7.59,0,0,0,331,83.71a10.74,10.74,0,0,0-5.44-1.3,10.21,10.21,0,0,0-2.94.38,10,10,0,0,0-2.55,1,7.86,7.86,0,0,0-2.13,1.64,11.23,11.23,0,0,0-1.68,2.17L316.14,83Z"></path><line class="cls-3" x1="93.61" y1="927.72" x2="424.32" y2="927.72"></line><path d="M234.81,995.7l-2.13,4.3h2.65l1.56-3.17a11,11,0,0,0,4,.74,10.33,10.33,0,0,0,5.44-1.44,10.19,10.19,0,0,0,3.69-4.17,13.66,13.66,0,0,0,1.3-6c0-4.52-1.39-7.91-4.13-10.08l2.18-4.34h-2.65l-1.52,3.17a10.4,10.4,0,0,0-4.35-.91,9.75,9.75,0,0,0-9.12,5.64,13.6,13.6,0,0,0-1.31,6c0,4.74,1.48,8.13,4.35,10.26Zm1.39-16.43a5.64,5.64,0,0,1,4.69-2.3,5.73,5.73,0,0,1,2.82.7l-7.25,14.73a9.51,9.51,0,0,1-2-6.48c0-2.87.56-5.08,1.78-6.65Zm11.21,6.52a10.21,10.21,0,0,1-1.74,6.26,5.79,5.79,0,0,1-4.74,2.3,6.1,6.1,0,0,1-2.56-.52l7.21-14.6a9.86,9.86,0,0,1,1.83,6.21ZM272.19,983h3a7.27,7.27,0,0,1,4.78,1.48,5.08,5.08,0,0,1,1.65,4.13,5.7,5.7,0,0,1-1.48,4.25,7.06,7.06,0,0,1-8.65,0,5,5,0,0,1-1.56-3.86h-3.95a7.8,7.8,0,0,0,2.73,6.21,11.6,11.6,0,0,0,14.12-.09,8.41,8.41,0,0,0,2.74-6.6,7.59,7.59,0,0,0-1.39-4.56,7.77,7.77,0,0,0-3.95-2.65,8,8,0,0,0,3.56-2.83,6.78,6.78,0,0,0,1.3-3.91,8.43,8.43,0,0,0-2.47-6.47,11.09,11.09,0,0,0-13.69.13,7.89,7.89,0,0,0-2.69,6.08h3.95a5,5,0,0,1,1.48-3.82,5.61,5.61,0,0,1,4.08-1.48c3.61,0,5.43,1.83,5.43,5.43a5,5,0,0,1-1.6,3.87,6.67,6.67,0,0,1-4.39,1.48h-3Zm24.43,0h3a7.27,7.27,0,0,1,4.78,1.48,5.08,5.08,0,0,1,1.65,4.13,5.7,5.7,0,0,1-1.48,4.25,6,6,0,0,1-4.39,1.48,6,6,0,0,1-4.25-1.48,5,5,0,0,1-1.57-3.86h-3.95a7.78,7.78,0,0,0,2.74,6.21,11.6,11.6,0,0,0,14.12-.09,8.43,8.43,0,0,0,2.73-6.6,7.53,7.53,0,0,0-1.39-4.56,7.77,7.77,0,0,0-3.95-2.65,8,8,0,0,0,3.56-2.83,6.79,6.79,0,0,0,1.31-3.91,8.44,8.44,0,0,0-2.48-6.47,11.09,11.09,0,0,0-13.69.13,7.89,7.89,0,0,0-2.69,6.08h3.95a5,5,0,0,1,1.48-3.82,5.61,5.61,0,0,1,4.08-1.48c3.61,0,5.44,1.83,5.44,5.43a5,5,0,0,1-1.61,3.87,6.67,6.67,0,0,1-4.39,1.48h-3Z"></path><line class="cls-3" x1="485.16" y1="564.82" x2="485.16" y2="894.06"></line><path d="M545.87,745.66v-3a7.39,7.39,0,0,1,1.48-4.78,5.11,5.11,0,0,1,4.13-1.65,5.71,5.71,0,0,1,4.26,1.48,7.1,7.1,0,0,1,0,8.65,5,5,0,0,1-3.87,1.56v3.95a7.8,7.8,0,0,0,6.21-2.73,11.62,11.62,0,0,0-.08-14.12,8.43,8.43,0,0,0-6.61-2.74,7.59,7.59,0,0,0-4.56,1.39,7.81,7.81,0,0,0-2.65,3.95,8,8,0,0,0-2.82-3.56,6.8,6.8,0,0,0-3.91-1.3,8.46,8.46,0,0,0-6.48,2.47A11.09,11.09,0,0,0,531.1,749a7.89,7.89,0,0,0,6.08,2.69V747.7a5,5,0,0,1-3.82-1.48,5.61,5.61,0,0,1-1.48-4.08c0-3.61,1.83-5.43,5.43-5.43a5,5,0,0,1,3.87,1.6,6.56,6.56,0,0,1,1.48,4.39v3Zm10.91-39v15.51l-9-8.25c-4.18-3.91-7.82-5.83-10.87-5.83a7.77,7.77,0,0,0-6,2.48,9.8,9.8,0,0,0-2.26,6.82,10,10,0,0,0,2.65,7.35,9,9,0,0,0,6.86,2.78v-4a6.44,6.44,0,0,1-4.65-1.61,6.18,6.18,0,0,1-1.65-4.56,5.15,5.15,0,0,1,1.57-3.91,5.54,5.54,0,0,1,3.95-1.43,7.45,7.45,0,0,1,3.48.87,24.45,24.45,0,0,1,4.39,3.3l11.9,10.69H560V706.67Z"></path><path class="cls-1" d="M259.41,883.79H421.58c6.49-15.33-17.1-15.33-17.1-15.33C260,875,273,816,273,816l-4.72-146.78H250.56L245.84,816s13,59-131.52,52.47c0,0-23.59,0-17.1,15.33Z"></path><path class="cls-4" d="M259.41,883.79H421.58c6.49-15.33-17.1-15.33-17.1-15.33C260,875,273,816,273,816l-4.72-146.78H250.56L245.84,816s13,59-131.52,52.47c0,0-23.59,0-17.1,15.33Z"></path><polygon class="cls-1" points="121.4 566.63 397.4 566.63 419.23 669.21 99.58 669.21 121.4 566.63"></polygon><polygon class="cls-4" points="121.4 566.63 397.4 566.63 419.23 669.21 99.58 669.21 121.4 566.63 121.4 566.63"></polygon></svg> 