<?xml version="1.0" encoding="UTF-8"?> <svg xmlns="http://www.w3.org/2000/svg" id="Livello_1" data-name="Livello 1" viewBox="0 0 892.77 1000"><defs><style>.cls-1{fill:#fff;}.cls-2{fill:#231f20;}.cls-3,.cls-4{fill:none;stroke-width:0.25px;}.cls-3{stroke:#000;}.cls-4{stroke:#231f20;stroke-miterlimit:10;}</style></defs><title>Clash adjustable</title><rect class="cls-1" width="892.77" height="1000"></rect><path class="cls-2" d="M246.38.59h-1l-19.33,7v7.49l11.05-3.42V47.39h9.26Zm39-.39a24.58,24.58,0,0,0-10.05,1.9,21.14,21.14,0,0,0-7.49,5.26,24.31,24.31,0,0,0-4.67,8.15,32.11,32.11,0,0,0-1.58,10.32v3.61A23.05,23.05,0,0,0,262.78,37a17.41,17.41,0,0,0,3.28,5.85,15.13,15.13,0,0,0,5.19,3.81A16.23,16.23,0,0,0,278,48a16.9,16.9,0,0,0,6.51-1.25,15,15,0,0,0,5-3.41,14.59,14.59,0,0,0,3.16-5.06A18.33,18.33,0,0,0,293.8,32a22.79,22.79,0,0,0-.86-6.12,15.17,15.17,0,0,0-2.5-5.06,12.16,12.16,0,0,0-4.14-3.41,12.7,12.7,0,0,0-5.85-1.32,13.86,13.86,0,0,0-5.32,1A13,13,0,0,0,271.06,20a15.08,15.08,0,0,1,1.57-5.06,11.52,11.52,0,0,1,3-3.81,14.51,14.51,0,0,1,4.6-2.43,17.86,17.86,0,0,1,5.91-.86h.53V.2Zm-4.86,24A7.21,7.21,0,0,1,282.69,26a8.76,8.76,0,0,1,1.38,2.69,11.32,11.32,0,0,1,.46,3.42,11.28,11.28,0,0,1-.46,3.42,8.33,8.33,0,0,1-1.38,2.63,6.05,6.05,0,0,1-4.86,2.43A6.86,6.86,0,0,1,275,40a6.71,6.71,0,0,1-2.24-1.84A10.43,10.43,0,0,1,271.38,35a17.5,17.5,0,0,1-.52-4.34V27.87a6.22,6.22,0,0,1,1.05-1.65,6.28,6.28,0,0,1,1.51-1.38,7.47,7.47,0,0,1,1.91-.92,6.78,6.78,0,0,1,2.3-.33,6.57,6.57,0,0,1,2.89.6Zm25.2,15.9v7.76h.72A26.7,26.7,0,0,0,316.89,46a19.45,19.45,0,0,0,7.43-5.19,21.28,21.28,0,0,0,4.47-8,35,35,0,0,0,1.44-10.44V19.06a24.31,24.31,0,0,0-1.11-7.76,17.8,17.8,0,0,0-3.16-6,14.37,14.37,0,0,0-5-3.88A15.19,15.19,0,0,0,314.46,0,15.86,15.86,0,0,0,308,1.31,14.51,14.51,0,0,0,303,4.93a14.82,14.82,0,0,0-3.16,5.19,19,19,0,0,0-1.12,6.44,21.18,21.18,0,0,0,.86,6.25,14.68,14.68,0,0,0,2.63,4.92,13.29,13.29,0,0,0,4.27,3.36,14.1,14.1,0,0,0,5.91,1.18,10.83,10.83,0,0,0,4.6-1,12.56,12.56,0,0,0,3.82-2.56,13.66,13.66,0,0,1-1.19,4.86,9.11,9.11,0,0,1-2.76,3.55,12.6,12.6,0,0,1-4.4,2.24,23.65,23.65,0,0,1-6.11.72Zm6-15.58a6.27,6.27,0,0,1-2-1.9,7.74,7.74,0,0,1-1.25-2.76,14.09,14.09,0,0,1-.39-3.42,13.84,13.84,0,0,1,.39-3.29,8.48,8.48,0,0,1,1.25-2.89,5.8,5.8,0,0,1,2-2,4.92,4.92,0,0,1,2.77-.79,6.15,6.15,0,0,1,2.62.59,8.05,8.05,0,0,1,2.11,1.84,10.09,10.09,0,0,1,1.38,3.16,16.79,16.79,0,0,1,.46,4.34v3.81a7.61,7.61,0,0,1-2.43,2.82,6.72,6.72,0,0,1-3.88,1.12,6.15,6.15,0,0,1-3-.66Zm31.71,15.58v7.76h.72A26.73,26.73,0,0,0,354.58,46,19.6,19.6,0,0,0,362,40.81a21.26,21.26,0,0,0,4.46-8,34.72,34.72,0,0,0,1.45-10.44V19.06a24.31,24.31,0,0,0-1.12-7.76,17.61,17.61,0,0,0-3.15-6,14.31,14.31,0,0,0-5-3.88A15.18,15.18,0,0,0,352.15,0a15.86,15.86,0,0,0-6.51,1.31,14.65,14.65,0,0,0-4.93,3.62,14.8,14.8,0,0,0-3.15,5.19,18.79,18.79,0,0,0-1.12,6.44,21.18,21.18,0,0,0,.85,6.25,15,15,0,0,0,2.63,4.92,13.33,13.33,0,0,0,4.28,3.36,14.07,14.07,0,0,0,5.91,1.18,10.9,10.9,0,0,0,4.6-1,12.4,12.4,0,0,0,3.81-2.56,13.46,13.46,0,0,1-1.18,4.86,9.3,9.3,0,0,1-2.76,3.55,12.68,12.68,0,0,1-4.4,2.24,23.68,23.68,0,0,1-6.12.72Zm6-15.58a6.27,6.27,0,0,1-2-1.9,7.57,7.57,0,0,1-1.25-2.76,14.09,14.09,0,0,1-.39-3.42,13.84,13.84,0,0,1,.39-3.29,8.29,8.29,0,0,1,1.25-2.89,5.71,5.71,0,0,1,2-2,4.91,4.91,0,0,1,2.76-.79,6.19,6.19,0,0,1,2.63.59,7.86,7.86,0,0,1,2.1,1.84,9.65,9.65,0,0,1,1.38,3.16,16.79,16.79,0,0,1,.46,4.34v3.81a7.52,7.52,0,0,1-2.43,2.82,6.68,6.68,0,0,1-3.88,1.12,6.11,6.11,0,0,1-2.95-.66Zm43.6-.85H374.92v7.43H393Zm16.47,3.48h4.93a12.08,12.08,0,0,1,3.22.4A9.29,9.29,0,0,1,420,28.79,6.32,6.32,0,0,1,421.55,31a9.46,9.46,0,0,1,.53,3.23,6.84,6.84,0,0,1-.53,2.62,4.47,4.47,0,0,1-1.38,2,5,5,0,0,1-2.23,1.31,8.22,8.22,0,0,1-3,.46,7.27,7.27,0,0,1-2.7-.46,5.77,5.77,0,0,1-2.16-1.25A5.51,5.51,0,0,1,408.67,37a5.71,5.71,0,0,1-.53-2.43h-9.26a12.18,12.18,0,0,0,1.38,6,12.48,12.48,0,0,0,3.61,4.21,16.05,16.05,0,0,0,5.06,2.49,21.88,21.88,0,0,0,5.85.79,23.33,23.33,0,0,0,6.57-.92,15.31,15.31,0,0,0,5.26-2.69,12.46,12.46,0,0,0,3.49-4.27,14,14,0,0,0,1.24-5.85,10.91,10.91,0,0,0-7.82-10.91,16,16,0,0,0,3-1.91,15.11,15.11,0,0,0,2.23-2.37,12.69,12.69,0,0,0,1.38-2.82,11.69,11.69,0,0,0,.46-3,13.54,13.54,0,0,0-1.18-5.78,11.65,11.65,0,0,0-3.22-4.14,15.07,15.07,0,0,0-5-2.57A24.84,24.84,0,0,0,414.78,0a19.7,19.7,0,0,0-6,.92,16.29,16.29,0,0,0-4.86,2.56,13.06,13.06,0,0,0-3.29,4,11.64,11.64,0,0,0-1.18,5.26h9.27a4.79,4.79,0,0,1,.52-2.17,4.6,4.6,0,0,1,1.32-1.64,5.31,5.31,0,0,1,2-1,6.74,6.74,0,0,1,2.37-.4,7.27,7.27,0,0,1,2.83.46,5.32,5.32,0,0,1,2,1.25A4.76,4.76,0,0,1,421,11.11a6.91,6.91,0,0,1,.39,2.36,6.5,6.5,0,0,1-1.7,4.67,7.1,7.1,0,0,1-5.26,1.77h-4.93ZM460.22.59h-1l-19.32,7v7.49l11-3.42V47.39h9.26Z"></path><path class="cls-3" d="M365.28,912H581.47m174-672.43V819.75"></path><path d="M828.85,549.26v-3.57c.06-2.52.63-4.47,1.79-5.78a6.16,6.16,0,0,1,5-2,6.89,6.89,0,0,1,5.14,1.78,8.52,8.52,0,0,1,0,10.45A6,6,0,0,1,836.1,552v4.78a9.44,9.44,0,0,0,7.51-3.31,14.05,14.05,0,0,0-.11-17.06,10.16,10.16,0,0,0-8-3.31,9.17,9.17,0,0,0-5.51,1.68,9.41,9.41,0,0,0-3.2,4.78,9.67,9.67,0,0,0-3.41-4.31,8.24,8.24,0,0,0-4.73-1.57,10.18,10.18,0,0,0-7.82,3c-1.84,2-2.78,4.78-2.78,8.29a11.9,11.9,0,0,0,2.94,8.25,9.53,9.53,0,0,0,7.35,3.25v-4.78a6,6,0,0,1-4.62-1.78A6.79,6.79,0,0,1,812,545c0-4.35,2.21-6.56,6.56-6.56a6,6,0,0,1,4.68,1.94,8,8,0,0,1,1.78,5.31v3.57Zm-5-46.06c-5.41.05-9.35,1.05-11.92,2.94s-3.88,4.83-3.88,8.87,1.31,7,4,8.93,6.77,2.83,12.23,2.83h6.35c5.25,0,9.19-1,11.86-3s3.94-4.83,3.94-8.82-1.36-7-4-8.92-6.83-2.84-12.39-2.84Zm7.4,4.73c3.88.05,6.77.68,8.56,1.78a6.36,6.36,0,0,1-.16,10.55c-1.94,1.16-4.88,1.79-8.93,1.79h-7.61c-3.78-.06-6.61-.63-8.45-1.74A5.7,5.7,0,0,1,812,515a5.8,5.8,0,0,1,2.78-5.35c1.84-1.16,4.73-1.73,8.77-1.73Z"></path><path d="M476.47,992.91c-2.1,2-5.1,3-9,3.05h-1v4h.94c5.78-.1,10.08-1.78,13-5.14s4.31-8.61,4.31-15.91v-1.37c0-4.77-1.05-8.55-3.21-11.28a10.31,10.31,0,0,0-8.71-4.15,11.55,11.55,0,0,0-6.09,1.57,10.57,10.57,0,0,0-4,4.62,15.53,15.53,0,0,0-1.42,6.72,14.86,14.86,0,0,0,1.31,6.36,10.15,10.15,0,0,0,3.68,4.51,10,10,0,0,0,5.61,1.58,9.59,9.59,0,0,0,4.57-1.11,10.66,10.66,0,0,0,3.52-2.83c-.16,4.25-1.31,7.35-3.41,9.34ZM467.7,981.1a11.49,11.49,0,0,1,.05-12.55,6.14,6.14,0,0,1,5-2.36,6,6,0,0,1,5.09,2.89,12.82,12.82,0,0,1,2.05,7.56v1.89A8.81,8.81,0,0,1,477,982.1a7.26,7.26,0,0,1-4.41,1.47,5.78,5.78,0,0,1-4.88-2.47Z"></path><path d="M107.79,958.53h-5l-16.7,25.88v2.78h17v8.66h4.73v-8.66H113V983.3h-5.19Zm-5.31,7.5.58-1V983.3H91.41Zm20.81,12.08,1.26-1a7.83,7.83,0,0,1,4.88-1.37,6.89,6.89,0,0,1,5.41,2.26,8.7,8.7,0,0,1,2,6,9.38,9.38,0,0,1-1.89,6.19,6.35,6.35,0,0,1-5.2,2.26,7,7,0,0,1-4.88-1.63,7.44,7.44,0,0,1-2.26-4.83h-4.52a11.05,11.05,0,0,0,3.57,7.62,11.83,11.83,0,0,0,8.09,2.73c3.73,0,6.61-1.11,8.71-3.31s3.1-5.25,3.1-9.08-1-6.88-3-9.14a10.28,10.28,0,0,0-8.09-3.36,11.79,11.79,0,0,0-6.24,1.63l1.1-10.18h15.12v-4.41H121.4l-1.89,18.63ZM149,969.29a6.27,6.27,0,0,0,4.62,1.94,6.07,6.07,0,0,0,4.56-1.94,6.35,6.35,0,0,0,1.89-4.62,6.53,6.53,0,0,0-1.89-4.67,6.27,6.27,0,0,0-9.18,0,6.59,6.59,0,0,0-1.95,4.67,6.41,6.41,0,0,0,1.95,4.62Zm2.25-2.31a3.09,3.09,0,0,1-.94-2.31,3.37,3.37,0,0,1,.94-2.36,3,3,0,0,1,2.37-1,3.09,3.09,0,0,1,2.31.94,3.33,3.33,0,0,1,.94,2.42,3.11,3.11,0,0,1-.94,2.36,3.25,3.25,0,0,1-2.31.89,3.21,3.21,0,0,1-2.37-.94Z"></path><path d="M250,959.7h-5l-16.7,25.88v2.78h17V997H250v-8.66h5.19v-3.88H250Zm-5.31,7.51.58-1v18.27H233.64Zm20.81,12.07,1.26-1a7.83,7.83,0,0,1,4.88-1.36,6.88,6.88,0,0,1,5.41,2.25,8.72,8.72,0,0,1,2.05,6,9.41,9.41,0,0,1-1.89,6.2,6.38,6.38,0,0,1-5.2,2.25,7,7,0,0,1-4.88-1.62,7.49,7.49,0,0,1-2.26-4.83h-4.52a11,11,0,0,0,3.57,7.61,11.78,11.78,0,0,0,8.09,2.73c3.73,0,6.61-1.1,8.71-3.31s3.1-5.25,3.1-9.08-1-6.88-3-9.14a10.32,10.32,0,0,0-8.09-3.36,11.79,11.79,0,0,0-6.24,1.63l1.1-10.18h15.12V959.7H263.63l-1.89,18.63Zm25.69-8.82a6.27,6.27,0,0,0,4.62,1.94,6.07,6.07,0,0,0,4.56-1.94,6.33,6.33,0,0,0,1.89-4.62,6.55,6.55,0,0,0-1.89-4.67,6.27,6.27,0,0,0-9.18,0,6.6,6.6,0,0,0-1.95,4.67,6.39,6.39,0,0,0,1.95,4.62Zm2.25-2.31a3.08,3.08,0,0,1-.94-2.31,3.37,3.37,0,0,1,.94-2.36,3.3,3.3,0,0,1,4.68-.05,3.32,3.32,0,0,1,.94,2.41,3.11,3.11,0,0,1-.94,2.36,3.25,3.25,0,0,1-2.31.89,3.21,3.21,0,0,1-2.37-.94Z"></path><path class="cls-4" d="M259.79,887.62c-8.23,7-24.52,17.34-52.11,21.3"></path><polygon class="cls-2" points="250.69 887.67 265.9 883.66 261.77 898.84 250.69 887.67"></polygon><polygon class="cls-4" points="250.69 887.67 265.9 883.66 261.77 898.84 250.69 887.67 250.69 887.67"></polygon><polygon class="cls-2" points="206.71 904.92 194.12 914.34 208.57 920.53 206.71 904.92"></polygon><path class="cls-4" d="M206.7,904.92l-12.58,9.42,14.45,6.19-1.87-15.61ZM96.37,895.38c8,4.45,23.94,11,50.87,13.51"></path><polygon class="cls-2" points="90.91 898.84 86.78 883.66 101.99 887.66 90.91 898.84"></polygon><polygon class="cls-4" points="90.91 898.84 86.78 883.66 101.99 887.66 90.91 898.84 90.91 898.84"></polygon><polygon class="cls-2" points="144.1 920.53 158.56 914.34 145.97 904.92 144.1 920.53"></polygon><path class="cls-4" d="M144.1,920.53l14.46-6.19L146,904.92l-1.87,15.61Zm36.38-49.92V1000"></path><polyline class="cls-1" points="139.03 681.02 214.9 681.02 214.9 582.67 139.03 582.67"></polyline><rect class="cls-1" x="116.75" y="241.76" width="121.62" height="388.09"></rect><rect class="cls-4" x="116.75" y="241.76" width="121.62" height="388.09"></rect><polygon class="cls-1" points="139.59 764.28 146.41 764.28 139.59 757.53 139.59 764.28"></polygon><path class="cls-4" d="M139.59,757.53v6.75h6.82M139,583v93.15M214.9,583v95.68"></path><path class="cls-1" d="M230.89,547.18c0,30.42-23.68,47.57-53.93,47.57s-54.78-17.15-54.78-47.57V241.75H230.89Z"></path><path class="cls-4" d="M230.89,547.18c0,30.42-23.68,47.57-53.93,47.57s-54.78-17.15-54.78-47.57V241.75H230.89V547.18Z"></path><path class="cls-1" d="M208.19,672c-21.55-21.35-49.41-15.53-70.64,6.14s-27.2,50.38-5.65,71.74l94.39,93.5,76.29-77.88Z"></path><path class="cls-4" d="M208.19,672c-21.55-21.35-49.41-15.52-70.64,6.14s-27.2,50.38-5.65,71.74l94.39,93.5,76.29-77.88L208.19,672Z"></path><rect class="cls-1" x="403.97" y="241.76" width="123.65" height="388.09"></rect><rect class="cls-4" x="403.97" y="241.76" width="123.65" height="388.09"></rect><polyline class="cls-1" points="527.63 751.47 519.82 751.47 519.82 842.34 411.45 842.34 411.45 709.1"></polyline><polyline class="cls-4" points="527.63 751.47 519.82 751.47 519.82 842.34 411.45 842.34 411.45 709.1"></polyline><path class="cls-1" d="M411.45,709.1c0-30,24.26-47.14,54.18-47.14S519.71,683,519.71,713l.11-3.93"></path><path class="cls-4" d="M411.45,709.1c0-30,24.26-47.14,54.18-47.14S519.71,683,519.71,713l.11-3.93"></path><path class="cls-1" d="M519.82,241.75H411.45V546.49c0,30,24.35,50.9,54.18,50.9s54.19-20.9,54.19-50.9v0"></path><path class="cls-4" d="M519.82,241.75H411.45V546.49c0,30,24.35,50.9,54.18,50.9s54.19-20.9,54.19-50.9v0"></path><rect class="cls-1" x="527.64" y="337.41" width="51.63" height="440.28"></rect><rect class="cls-4" x="527.64" y="337.41" width="51.63" height="440.28"></rect><rect class="cls-1" x="512" y="241.75" width="15.63" height="297.91"></rect><rect class="cls-4" x="512" y="241.75" width="15.63" height="297.91"></rect><polygon class="cls-1" points="519.71 713.04 527.63 751.48 527.63 713.04 519.71 713.04"></polygon><polyline class="cls-4" points="527.63 751.47 527.63 713.03 519.71 713.03"></polyline><rect class="cls-1" x="412.57" y="709.11" width="105.6" height="60.19"></rect><rect class="cls-1" x="516.34" y="713.85" width="10.03" height="36.3"></rect><path class="cls-1" d="M519.71,713s-7.71,22.72.11,38.44"></path><path class="cls-4" d="M519.71,713s-7.71,22.72.11,38.44M527.63,487s-10.87,16.4,0,33.49m0-155.11s-10.87,19.15,0,36.9"></path><path class="cls-2" d="M245.76,102.32c0-5-2.7-7.41-7.66-7.41a12.14,12.14,0,0,0-8.51,3.37l-2.33-2.76a16.05,16.05,0,0,1,11.27-4.11c6.19,0,11.15,3.43,11.15,10.42v12.56a39.91,39.91,0,0,0,.49,6.43h-3.74a29.13,29.13,0,0,1-.42-4.65h-.13a11.51,11.51,0,0,1-10.41,5.39c-4.35,0-9.93-2.33-9.93-8.7,0-8.82,9.74-9.62,20.22-9.62Zm-1.23,4.17c-6.8,0-14.7.73-14.7,6.18,0,4.11,3.49,5.46,6.74,5.46,5.88,0,9.19-4.41,9.19-9.5v-2.14Z"></path><path class="cls-2" d="M273.15,121.56c-8.95,0-14.83-6.62-14.83-15.07s5.88-15.08,14.83-15.08A13,13,0,0,1,284,97.11h.12V74.5h4.17v46.32h-4.17V116H284A13.21,13.21,0,0,1,273.15,121.56Zm.42-3.55c6.44,0,11-5,11-11.52s-4.59-11.58-11-11.58c-6.92,0-10.84,5.2-10.84,11.58S266.65,118,273.57,118Z"></path><path class="cls-2" d="M292.87,131.61a10,10,0,0,0,2.63.36c3.5,0,4.05-2.51,4.05-6.12V92.15h4.16v34.37c0,4.6-1.65,9-8.14,9a13.09,13.09,0,0,1-3.31-.43Zm8.76-47.55a2.94,2.94,0,1,1,2.94-2.94A3,3,0,0,1,301.63,84.06Z"></path><path class="cls-2" d="M335.63,120.82c-.12-1.53-.24-3.67-.24-4.9h-.12c-1.6,3.31-5.76,5.64-9.81,5.64-7.29,0-10.9-4.72-10.9-11.83V92.15h4.16V108c0,6,1.78,10,7.79,10,4.41,0,8.7-3.56,8.7-11.22V92.15h4.16v22.36c0,1.53.06,4.35.25,6.31Z"></path><path class="cls-2" d="M365.65,99a7.76,7.76,0,0,0-7-4c-3,0-6.07,1.28-6.07,4.47,0,2.69,2.15,3.92,6.86,4.9,6.74,1.41,9.93,3.92,9.93,8.39,0,6.56-5.51,8.89-10.78,8.89A13.41,13.41,0,0,1,347.21,116l3.31-2.45a9.51,9.51,0,0,0,8,4.48c3.55,0,6.74-1.29,6.74-5,0-3-3-4.23-8.46-5.51-3.37-.8-8.21-2.27-8.21-7.72,0-5.82,5-8.34,10.23-8.34,4,0,8.21,1.9,10,5.15Z"></path><path class="cls-2" d="M390.53,95.64h-8.09v16.73c0,4.29,1.78,5.27,4.29,5.27a8.55,8.55,0,0,0,3.61-.92l.19,3.61a13.51,13.51,0,0,1-4.9.86c-3.07,0-7.36-1.35-7.36-7.66V95.64h-5.94V92.15h5.94V84.06h4.17v8.09h8.09Z"></path><path class="cls-2" d="M415.09,102.32c0-5-2.69-7.41-7.65-7.41a12.16,12.16,0,0,0-8.52,3.37l-2.33-2.76a16.05,16.05,0,0,1,11.27-4.11c6.19,0,11.16,3.43,11.16,10.42v12.56a38.8,38.8,0,0,0,.49,6.43h-3.74a28,28,0,0,1-.43-4.65h-.12a11.53,11.53,0,0,1-10.42,5.39c-4.35,0-9.92-2.33-9.92-8.7,0-8.82,9.74-9.62,20.21-9.62Zm-1.22,4.17c-6.8,0-14.71.73-14.71,6.18,0,4.11,3.5,5.46,6.74,5.46,5.89,0,9.19-4.41,9.19-9.5v-2.14Z"></path><path class="cls-2" d="M434,116v4.84h-4.16V74.5H434V97.11h.12A13,13,0,0,1,445,91.41c8.95,0,14.83,6.62,14.83,15.08s-5.88,15.07-14.83,15.07A13.23,13.23,0,0,1,434.14,116Zm10.54-21.07c-6.43,0-11,5-11,11.58s4.6,11.52,11,11.52c6.93,0,10.85-5.15,10.85-11.52S451.49,94.91,444.56,94.91Z"></path><path class="cls-2" d="M473.05,120.82h-4.17V74.5h4.17Z"></path><path class="cls-2" d="M510.24,107.59H486.47A10.46,10.46,0,0,0,496.94,118a10.84,10.84,0,0,0,9.19-5l3.13,2.45a15,15,0,0,1-12.32,6.07c-8.51,0-14.82-6.43-14.82-15.07s6.31-15.08,14.45-15.08c9,0,13.73,6.38,13.73,14.22C510.3,106.18,510.3,106.85,510.24,107.59Zm-4.17-3.31c-.24-5.39-3.55-9.37-9.5-9.37a10.14,10.14,0,0,0-10,9.37Z"></path></svg> 