<?xml version="1.0" encoding="UTF-8"?> <svg xmlns="http://www.w3.org/2000/svg" id="Livello_1" data-name="Livello 1" viewBox="0 0 892.77 1000"><defs><style>.cls-1{fill:#fff;}.cls-2{fill:#231f20;}.cls-3,.cls-4{fill:none;stroke-width:0.25px;}.cls-3{stroke:#000;}.cls-4{stroke:#231f20;stroke-miterlimit:10;}</style></defs><title>Clash fix</title><rect class="cls-1" width="892.77" height="1000"></rect><path class="cls-2" d="M208.19.65h-1.08L185.94,8.28v8.21L198,12.75V51.93h10.15ZM250.93.22a26.91,26.91,0,0,0-11,2.08,23.28,23.28,0,0,0-8.21,5.77A26.5,26.5,0,0,0,226.59,17a35.16,35.16,0,0,0-1.73,11.3v4a25.14,25.14,0,0,0,1.3,8.28,19,19,0,0,0,3.6,6.41,16.46,16.46,0,0,0,5.69,4.18,17.86,17.86,0,0,0,7.42,1.51A18.6,18.6,0,0,0,250,51.28a16.39,16.39,0,0,0,5.47-3.75A16,16,0,0,0,258.93,42a20,20,0,0,0,1.22-6.92,25.26,25.26,0,0,0-.93-6.69,16.85,16.85,0,0,0-2.74-5.55,13.51,13.51,0,0,0-4.54-3.74,14,14,0,0,0-6.41-1.44,15,15,0,0,0-5.83,1.15,14.28,14.28,0,0,0-4.47,3.09A16.89,16.89,0,0,1,237,16.35a12.55,12.55,0,0,1,3.31-4.18,15.88,15.88,0,0,1,5-2.66,19.75,19.75,0,0,1,6.48-.94h.57V.22ZM245.6,26.5A8,8,0,0,1,248,28.45a9.45,9.45,0,0,1,1.51,2.95,12.42,12.42,0,0,1,.51,3.75,12.39,12.39,0,0,1-.51,3.74A9.07,9.07,0,0,1,248,41.77a6,6,0,0,1-2.3,1.95,6,6,0,0,1-3,.72,7.52,7.52,0,0,1-3.1-.65,7.16,7.16,0,0,1-2.44-2,11.17,11.17,0,0,1-1.52-3.38,18.76,18.76,0,0,1-.57-4.76V30.54a6.46,6.46,0,0,1,1.15-1.8,6.75,6.75,0,0,1,1.66-1.52,7.67,7.67,0,0,1,2.08-1,8.51,8.51,0,0,1,5.69.28Zm27.62,17.43v8.5H274a29.25,29.25,0,0,0,11.45-2,21.47,21.47,0,0,0,8.14-5.68,23.43,23.43,0,0,0,4.9-8.79,38.33,38.33,0,0,0,1.58-11.45v-3.6a26.75,26.75,0,0,0-1.22-8.5,19.26,19.26,0,0,0-3.46-6.63,15.83,15.83,0,0,0-5.47-4.25A16.63,16.63,0,0,0,282.8,0a17.19,17.19,0,0,0-7.13,1.44,16,16,0,0,0-5.4,4,16.24,16.24,0,0,0-3.46,5.69,20.82,20.82,0,0,0-1.22,7.06,23,23,0,0,0,.93,6.84,16.22,16.22,0,0,0,2.88,5.4,14.56,14.56,0,0,0,4.68,3.68,15.44,15.44,0,0,0,6.49,1.29,12,12,0,0,0,5-1.08,13.62,13.62,0,0,0,4.17-2.81,14.76,14.76,0,0,1-1.29,5.33,10.11,10.11,0,0,1-3,3.89,13.86,13.86,0,0,1-4.82,2.45,26.09,26.09,0,0,1-6.7.79Zm6.55-17.07a6.91,6.91,0,0,1-2.23-2.08,8.39,8.39,0,0,1-1.37-3,15.18,15.18,0,0,1-.43-3.74,14.93,14.93,0,0,1,.43-3.61,9,9,0,0,1,1.37-3.16,6.32,6.32,0,0,1,2.16-2.17,5.38,5.38,0,0,1,3-.86,6.8,6.8,0,0,1,2.88.65,8.49,8.49,0,0,1,2.3,2,10.74,10.74,0,0,1,1.51,3.45,18.56,18.56,0,0,1,.51,4.76v4.17a8.32,8.32,0,0,1-2.67,3.1A7.39,7.39,0,0,1,283,27.58a6.67,6.67,0,0,1-3.24-.72Zm34.75,17.07v8.5h.79a29.29,29.29,0,0,0,11.45-2,21.47,21.47,0,0,0,8.14-5.68,23.43,23.43,0,0,0,4.9-8.79,38.33,38.33,0,0,0,1.58-11.45v-3.6a26.75,26.75,0,0,0-1.22-8.5,19.26,19.26,0,0,0-3.46-6.63,15.83,15.83,0,0,0-5.47-4.25A16.63,16.63,0,0,0,324.1,0,17.19,17.19,0,0,0,317,1.44a16,16,0,0,0-5.4,4,16.24,16.24,0,0,0-3.46,5.69,20.82,20.82,0,0,0-1.23,7.06,23,23,0,0,0,.94,6.84,16.22,16.22,0,0,0,2.88,5.4,14.56,14.56,0,0,0,4.68,3.68,15.42,15.42,0,0,0,6.48,1.29,12,12,0,0,0,5.05-1.08,13.62,13.62,0,0,0,4.17-2.81,14.76,14.76,0,0,1-1.29,5.33,10.11,10.11,0,0,1-3,3.89,13.86,13.86,0,0,1-4.82,2.45,26.15,26.15,0,0,1-6.7.79Zm6.55-17.07a6.91,6.91,0,0,1-2.23-2.08,8.39,8.39,0,0,1-1.37-3A15.18,15.18,0,0,1,317,18a14.93,14.93,0,0,1,.43-3.61,9,9,0,0,1,1.37-3.16A6.32,6.32,0,0,1,321,9.07a5.36,5.36,0,0,1,3-.86,6.8,6.8,0,0,1,2.88.65,8.49,8.49,0,0,1,2.3,2,10.74,10.74,0,0,1,1.51,3.45,18.56,18.56,0,0,1,.51,4.76v4.17a8.32,8.32,0,0,1-2.67,3.1,7.39,7.39,0,0,1-4.25,1.22,6.67,6.67,0,0,1-3.24-.72Zm47.78-.93h-19.8v8.14h19.8Zm18,3.81h5.4a13.43,13.43,0,0,1,3.53.44,10.19,10.19,0,0,1,2.67,1.37,7,7,0,0,1,1.65,2.37,10.35,10.35,0,0,1,.58,3.53,7.59,7.59,0,0,1-.58,2.88,4.85,4.85,0,0,1-1.51,2.16,5.55,5.55,0,0,1-2.45,1.44,9,9,0,0,1-3.24.51,8,8,0,0,1-2.95-.51,6.42,6.42,0,0,1-2.38-1.37,6.05,6.05,0,0,1-1.58-2,6.31,6.31,0,0,1-.58-2.67H375.31a13.36,13.36,0,0,0,1.51,6.56,13.7,13.7,0,0,0,4,4.61,17.34,17.34,0,0,0,5.55,2.73,23.93,23.93,0,0,0,6.41.87,25.51,25.51,0,0,0,7.2-1,17,17,0,0,0,5.76-3A13.62,13.62,0,0,0,409.52,44a15.26,15.26,0,0,0,1.37-6.4,12.57,12.57,0,0,0-2.17-7.35,12.42,12.42,0,0,0-6.4-4.61,17.68,17.68,0,0,0,3.31-2.09A17.08,17.08,0,0,0,408.08,21a14.09,14.09,0,0,0,1.51-3.1,12.55,12.55,0,0,0,.5-3.24,14.93,14.93,0,0,0-1.29-6.34,12.92,12.92,0,0,0-3.53-4.53A16.14,16.14,0,0,0,399.79.94,26.77,26.77,0,0,0,392.74,0a21.51,21.51,0,0,0-6.56,1,17.92,17.92,0,0,0-5.33,2.81,14.2,14.2,0,0,0-3.6,4.39A12.82,12.82,0,0,0,376,14h10.15a5.25,5.25,0,0,1,.58-2.37,5.21,5.21,0,0,1,1.44-1.81,6.14,6.14,0,0,1,2.23-1.15A7.49,7.49,0,0,1,393,8.21a8,8,0,0,1,3.1.5,5.71,5.71,0,0,1,2.16,1.37,5.19,5.19,0,0,1,1.3,2.09,7.73,7.73,0,0,1,.43,2.59,7.12,7.12,0,0,1-1.87,5.12c-1.3,1.29-3.17,1.94-5.77,1.94h-5.4Zm65.43-7.85A33,33,0,0,0,451,12a17.52,17.52,0,0,0-3.53-6.77A13.08,13.08,0,0,0,442,1.3,18.31,18.31,0,0,0,435,0a18.56,18.56,0,0,0-7.06,1.3,12.87,12.87,0,0,0-5.4,3.89A17.8,17.8,0,0,0,419,12a33.38,33.38,0,0,0-1.29,9.93v8.86A33.28,33.28,0,0,0,419,40.62a19.27,19.27,0,0,0,3.53,6.84A13.2,13.2,0,0,0,428,51.35a18.51,18.51,0,0,0,7.05,1.3,18.28,18.28,0,0,0,7.06-1.3,13.26,13.26,0,0,0,5.48-3.89,19.1,19.1,0,0,0,3.52-6.84,35.54,35.54,0,0,0,1.23-9.87ZM442.17,32.12a26.28,26.28,0,0,1-.5,5.76,11.14,11.14,0,0,1-1.37,3.82,5.17,5.17,0,0,1-2.23,2.09,7.36,7.36,0,0,1-6.05,0,5.06,5.06,0,0,1-2.23-2.09,11.1,11.1,0,0,1-1.44-3.82,32.06,32.06,0,0,1-.44-5.76V20.38a31.3,31.3,0,0,1,.44-5.69A10.67,10.67,0,0,1,429.71,11,6.07,6.07,0,0,1,432,8.86a7.08,7.08,0,0,1,3-.58,6.75,6.75,0,0,1,3,.58A5.79,5.79,0,0,1,440.3,11a10.66,10.66,0,0,1,1.37,3.74,25.66,25.66,0,0,1,.5,5.69Z"></path><path class="cls-3" d="M70.6,904.3H192.33m252.89,0H615.08m147.56-621V859.74"></path><path d="M843,617.94V614c.06-2.77.69-4.89,2-6.33a6.76,6.76,0,0,1,5.47-2.19,7.55,7.55,0,0,1,5.64,2,9.38,9.38,0,0,1,0,11.45A6.64,6.64,0,0,1,851,621v5.23a10.33,10.33,0,0,0,8.22-3.62,15.39,15.39,0,0,0-.11-18.7,11.15,11.15,0,0,0-8.75-3.62,10,10,0,0,0-6,1.84,10.33,10.33,0,0,0-3.51,5.23,10.53,10.53,0,0,0-3.74-4.71,8.91,8.91,0,0,0-5.17-1.73c-3.68,0-6.5,1.09-8.57,3.28s-3,5.23-3,9.09a13,13,0,0,0,3.22,9,10.43,10.43,0,0,0,8,3.57v-5.24a6.64,6.64,0,0,1-5.06-1.95,7.47,7.47,0,0,1-2-5.41c0-4.78,2.42-7.19,7.19-7.19a6.54,6.54,0,0,1,5.12,2.13,8.69,8.69,0,0,1,2,5.81v3.91Zm-5.47-50.47c-5.92,0-10.24,1.15-13.06,3.22s-4.25,5.29-4.25,9.72,1.43,7.71,4.37,9.78S832,593.3,838,593.3h7c5.76-.06,10.07-1.15,13-3.28s4.31-5.29,4.31-9.67-1.5-7.71-4.43-9.78-7.48-3.1-13.58-3.1Zm8.11,5.17c4.26.06,7.43.75,9.38,2a7,7,0,0,1-.17,11.56c-2.13,1.27-5.35,2-9.78,2h-8.34c-4.14-.06-7.25-.69-9.26-1.9a6.26,6.26,0,0,1-3-5.81,6.36,6.36,0,0,1,3-5.87c2-1.26,5.18-1.9,9.61-1.9Z"></path><path d="M100.16,994.3l-2.82,5.7h3.51l2.07-4.2a14.6,14.6,0,0,0,5.35,1,13.67,13.67,0,0,0,7.19-1.9,13.41,13.41,0,0,0,4.89-5.52,18.16,18.16,0,0,0,1.73-8c0-6-1.84-10.47-5.47-13.35l2.88-5.75H116l-2,4.2a13.89,13.89,0,0,0-5.76-1.21,13.27,13.27,0,0,0-7.19,2,13,13,0,0,0-4.89,5.52,18,18,0,0,0-1.72,8c0,6.27,2,10.76,5.75,13.57ZM102,972.56a7.48,7.48,0,0,1,6.21-3,7.67,7.67,0,0,1,3.74.92l-9.6,19.5c-1.85-2.13-2.71-4.95-2.71-8.57,0-3.8.75-6.73,2.36-8.8Zm14.84,8.63c0,3.45-.74,6.21-2.3,8.28a7.64,7.64,0,0,1-6.27,3,8.12,8.12,0,0,1-3.39-.69l9.55-19.33a13.07,13.07,0,0,1,2.41,8.23Zm44.73-25.89c-6.33.11-11.11,2.13-14.33,6.1s-4.83,9.72-4.83,17.26v2a18.15,18.15,0,0,0,3.68,11.62,11.63,11.63,0,0,0,9.49,4.49,11.86,11.86,0,0,0,9.27-3.8c2.3-2.53,3.45-5.87,3.45-10.12a14.6,14.6,0,0,0-3.22-9.73,10.69,10.69,0,0,0-8.52-3.74,11,11,0,0,0-8.8,3.69c.35-4.2,1.73-7.42,4.14-9.78a13.78,13.78,0,0,1,9.67-3.57h1V955.3Zm-.46,21.11a10.43,10.43,0,0,1,2,6.73,10.2,10.2,0,0,1-2,6.73,6.58,6.58,0,0,1-5.53,2.59,6.8,6.8,0,0,1-5.63-3.05,13.11,13.11,0,0,1-2.3-8.11v-1.9a8,8,0,0,1,3.1-4,8.32,8.32,0,0,1,4.95-1.62,6.6,6.6,0,0,1,5.41,2.59Z"></path><path d="M533.55,988.44c-2.3,2.13-5.58,3.28-9.89,3.33h-1.1v4.43h1c6.33-.11,11-2,14.21-5.63s4.72-9.44,4.72-17.44v-1.49c0-5.24-1.16-9.38-3.51-12.37a11.34,11.34,0,0,0-9.55-4.55,12.68,12.68,0,0,0-6.68,1.73,11.62,11.62,0,0,0-4.43,5.06,17.15,17.15,0,0,0-1.55,7.37,16.18,16.18,0,0,0,1.44,7,11.22,11.22,0,0,0,4,4.95,11,11,0,0,0,6.16,1.72,10.54,10.54,0,0,0,5-1.21,11.72,11.72,0,0,0,3.85-3.1c-.17,4.66-1.44,8-3.74,10.24Zm-9.61-13a10.85,10.85,0,0,1-2-6.84,11,11,0,0,1,2.07-6.91,6.73,6.73,0,0,1,5.52-2.59,6.57,6.57,0,0,1,5.58,3.17,14.07,14.07,0,0,1,2.25,8.28v2.07a9.68,9.68,0,0,1-3.22,3.92,8,8,0,0,1-4.84,1.61,6.35,6.35,0,0,1-5.35-2.71Z"></path><rect class="cls-1" x="558.97" y="376.33" width="9.14" height="30.36"></rect><rect class="cls-1" x="558.97" y="586.96" width="9.14" height="28.43"></rect><rect class="cls-1" x="558.97" y="695.41" width="9.14" height="29.39"></rect><path class="cls-1" d="M549.5,424.11c-5.1,11.89-16.81,29.44-42.61,35.26l-12.77.31c-41.67-8.52-47.7-47.2-47.7-47.2V290.06H554.65Z"></path><path class="cls-4" d="M549.5,424.11c-5.1,11.89-16.81,29.44-42.61,35.26l-12.77.31c-41.67-8.52-47.7-47.2-47.7-47.2V290.06H554.65L549.5,424.11Z"></path><path class="cls-1" d="M446.42,570.33V853h92.36V582.63l15.87-12.3s-6-38.43-47-47.64l-15.14.21c-40.2,9.57-46.09,47.43-46.09,47.43"></path><path class="cls-4" d="M446.42,570.33V853h92.36V582.63l15.87-12.3s-6-38.43-47-47.64l-15.14.21c-40.2,9.57-46.09,47.43-46.09,47.43M554.65,424.05V571.77M446.42,398.56V571.77m113,154h7.23M558,695.4h9.15m-7.71-80h8.67M559.45,587h7.71M559,406.69h9.15m-8.18-30.36h7.7"></path><path class="cls-1" d="M559,853H538.78V579.24a6.73,6.73,0,0,1,6.73-6.74H559Z"></path><path class="cls-4" d="M559,853H538.78V579.24a6.73,6.73,0,0,1,6.73-6.74H559V853Z"></path><path class="cls-1" d="M559,424.05h-9.61a9.63,9.63,0,0,1-9.62-9.64V290.06H559Z"></path><path class="cls-4" d="M559,424.05h-9.61a9.63,9.63,0,0,1-9.62-9.64V290.06H559v134Z"></path><path class="cls-1" d="M616.7,744.08H580.14a12.52,12.52,0,0,1-12.5-12.53V375.37a11.07,11.07,0,0,1,11.06-11.09h38Z"></path><path class="cls-4" d="M616.7,744.08H580.14a12.52,12.52,0,0,1-12.5-12.53V375.37a11.07,11.07,0,0,1,11.06-11.09h38v379.8Z"></path><polygon class="cls-1" points="71.8 411.58 71.8 570.58 92.49 535.92 92.49 442.51 71.8 411.58"></polygon><polygon class="cls-4" points="71.8 411.58 71.8 570.58 92.49 535.92 92.49 442.51 71.8 411.58 71.8 411.58"></polygon><polygon class="cls-1" points="183.39 411.58 183.39 570.58 162.71 535.92 162.71 442.51 183.39 411.58"></polygon><polygon class="cls-4" points="183.39 411.58 183.39 570.58 162.71 535.92 162.71 442.51 183.39 411.58 183.39 411.58"></polygon><polygon class="cls-1" points="94.3 447.31 79.41 430.48 73.75 418.05 72.29 410.23 95.84 392.11 169.99 402.74 183.4 412.52 175.95 431.09 162.24 447.31 94.3 447.31"></polygon><path class="cls-1" d="M92.49,445.85a60.63,60.63,0,0,1-20.21-33.33,60.63,60.63,0,0,0,20.21,33.33v0a62.23,62.23,0,0,0,27.83,13l14.72.23a56,56,0,0,0,28.62-13v0c16.53-14.31,19.73-34.54,19.73-34.54s-3.2,20.23-19.73,34.54"></path><path class="cls-4" d="M92.49,445.85a60.63,60.63,0,0,1-20.21-33.33,60.63,60.63,0,0,0,20.21,33.33v0a62.23,62.23,0,0,0,27.83,13l14.72.23a56,56,0,0,0,28.62-13v0c16.53-14.31,19.73-34.54,19.73-34.54s-3.2,20.23-19.73,34.54"></path><polyline class="cls-1" points="183.39 411.57 183.39 290.06 72.28 290.06 72.28 412.52"></polyline><polyline class="cls-4" points="183.39 411.57 183.39 290.06 72.28 290.06 72.28 412.52"></polyline><path class="cls-1" d="M162.23,535.46v0Z"></path><polygon class="cls-4" points="162.23 535.41 162.23 535.46 162.23 535.41 162.23 535.41"></polygon><polygon class="cls-1" points="161.37 535.23 176.26 552.06 181.92 564.49 183.39 572.33 159.84 590.43 85.69 579.8 72.28 570.02 79.72 551.46 93.43 535.23 161.37 535.23"></polygon><path class="cls-1" d="M163.19,536.68A60.62,60.62,0,0,1,183.39,570a60.62,60.62,0,0,0-20.2-33.34v0a62.33,62.33,0,0,0-27.83-13l-14.73-.23a55.94,55.94,0,0,0-28.61,13v0C75.49,550.73,72.28,571,72.28,571S75.49,550.73,92,536.42"></path><path class="cls-4" d="M163.19,536.68A60.62,60.62,0,0,1,183.39,570a60.62,60.62,0,0,0-20.2-33.34v0a62.33,62.33,0,0,0-27.83-13l-14.73-.23a55.94,55.94,0,0,0-28.61,13v0C75.49,550.73,72.28,571,72.28,571S75.49,550.73,92,536.42"></path><polyline class="cls-1" points="183.39 570.02 183.39 853 72.28 853 72.28 570.97"></polyline><polyline class="cls-4" points="183.39 570.02 183.39 853 72.28 853 72.28 570.97"></polyline><path class="cls-2" d="M207.8,108.84h-8.38v31.31h-5.18V108.84h-7.46V104.5h7.46V94.75c0-8.08,4-13.1,12.11-13.1a16.43,16.43,0,0,1,4.27.53l-.91,4.57a12.5,12.5,0,0,0-3.59-.53c-5.56,0-6.7,4-6.7,9.14v9.14h8.38Zm10-14.4a3.66,3.66,0,1,1,3.66-3.65A3.7,3.7,0,0,1,217.78,94.44Zm2.51,45.71h-5.18V104.5h5.18Z"></path><path class="cls-2" d="M242.53,121.71,229.35,104.5H236l9.75,13.56,9.75-13.56h6.25l-13,17L263,140.15h-6.71l-10.59-14.86-10.89,14.86h-6.24Z"></path></svg> 