<?xml version="1.0" encoding="UTF-8"?> <svg xmlns="http://www.w3.org/2000/svg" id="Livello_1" data-name="Livello 1" viewBox="0 0 951.43 1000"><defs><style>.cls-1{fill:#fff;}.cls-2{fill:#231f20;}.cls-3,.cls-4{fill:none;stroke-width:0.25px;}.cls-3{stroke:#000;}.cls-4{stroke:#231f20;stroke-miterlimit:10;}</style></defs><title>Clip large closed</title><rect class="cls-1" width="951.43" height="1000"></rect><path class="cls-2" d="M215.16.73h-1.22L190,9.38v9.31l13.71-4.25V58.83h11.5Zm58.3.09h-41v9.3h28.8L238.86,58.83H251L273.46,7.26Zm46.38,24a37.65,37.65,0,0,0-1.47-11.26,19.91,19.91,0,0,0-4-7.67,15.05,15.05,0,0,0-6.21-4.41,20.76,20.76,0,0,0-8-1.47,21.14,21.14,0,0,0-8,1.47,14.84,14.84,0,0,0-6.12,4.41,20.05,20.05,0,0,0-4,7.67,37.65,37.65,0,0,0-1.47,11.26v10A37.46,37.46,0,0,0,282.06,46a21.79,21.79,0,0,0,4,7.75,15.08,15.08,0,0,0,6.2,4.41,21.14,21.14,0,0,0,8,1.47,20.85,20.85,0,0,0,8-1.47,15.08,15.08,0,0,0,6.2-4.41,21.79,21.79,0,0,0,4-7.75,40.88,40.88,0,0,0,1.38-11.18Zm-11.5,11.58a30.33,30.33,0,0,1-.57,6.53,12.87,12.87,0,0,1-1.55,4.33,5.87,5.87,0,0,1-2.53,2.36,8.32,8.32,0,0,1-6.86,0,5.87,5.87,0,0,1-2.53-2.36,12.81,12.81,0,0,1-1.63-4.33,36.38,36.38,0,0,1-.49-6.53V23.09a35.31,35.31,0,0,1,.49-6.44,12.3,12.3,0,0,1,1.55-4.25A7,7,0,0,1,296.75,10a8,8,0,0,1,3.43-.66,7.59,7.59,0,0,1,3.43.66,6.59,6.59,0,0,1,2.61,2.36,12.3,12.3,0,0,1,1.55,4.25,29.44,29.44,0,0,1,.57,6.44ZM367,.82h-41v9.3h28.8L332.44,58.83H344.6L367,7.26Zm30.23,28.56H374.83V38.6h22.44Zm48.52,20.15h-25L431,38.76c2-2,3.75-3.92,5.3-5.79a40.16,40.16,0,0,0,4.08-5.47,26.71,26.71,0,0,0,2.53-5.39,16.38,16.38,0,0,0,1-5.63,19.14,19.14,0,0,0-1.22-6.93A13.69,13.69,0,0,0,439,4.41a16.46,16.46,0,0,0-5.87-3.27A27.53,27.53,0,0,0,425,0a21.47,21.47,0,0,0-8.41,1.55,18.79,18.79,0,0,0-6.28,4.08,18,18,0,0,0-4.08,6,20.59,20.59,0,0,0-1.39,7.42h11.59a11.57,11.57,0,0,1,.57-3.91,9.21,9.21,0,0,1,1.55-3.1,7.44,7.44,0,0,1,2.7-2,8,8,0,0,1,3.59-.74,7.09,7.09,0,0,1,5.55,2.21,8.89,8.89,0,0,1,1.95,6.12,7.72,7.72,0,0,1-.4,2.61,14.66,14.66,0,0,1-1.23,2.93,24.52,24.52,0,0,1-2.36,3.51,47.1,47.1,0,0,1-3.6,4.25L406,50.92v7.91h39.82ZM464.51,33.7h6.12a15.22,15.22,0,0,1,4,.49,11.94,11.94,0,0,1,3,1.55,8,8,0,0,1,1.87,2.69,11.72,11.72,0,0,1,.65,4,8.54,8.54,0,0,1-.65,3.26,5.56,5.56,0,0,1-1.71,2.45A6.18,6.18,0,0,1,475,49.77a10.14,10.14,0,0,1-3.67.58,9,9,0,0,1-3.34-.58,7.19,7.19,0,0,1-2.7-1.55,7,7,0,0,1-1.79-2.28,7.12,7.12,0,0,1-.65-3H451.37a15.17,15.17,0,0,0,1.71,7.43,15.65,15.65,0,0,0,4.49,5.22,19.78,19.78,0,0,0,6.29,3.1,27.39,27.39,0,0,0,7.26,1,29.15,29.15,0,0,0,8.16-1.14,19.14,19.14,0,0,0,6.53-3.35,15.36,15.36,0,0,0,4.32-5.3,17.28,17.28,0,0,0,1.55-7.27,14.32,14.32,0,0,0-2.45-8.32A14.17,14.17,0,0,0,482,29.05a19.08,19.08,0,0,0,3.75-2.37,18.73,18.73,0,0,0,2.78-2.93,16,16,0,0,0,1.71-3.51,14.23,14.23,0,0,0,.57-3.68,16.88,16.88,0,0,0-1.47-7.18,14.65,14.65,0,0,0-4-5.14,18.88,18.88,0,0,0-6.21-3.18,30.58,30.58,0,0,0-8-1.06,24.59,24.59,0,0,0-7.43,1.14,20.66,20.66,0,0,0-6,3.18,16.15,16.15,0,0,0-4.08,5,14.46,14.46,0,0,0-1.46,6.53h11.5a6,6,0,0,1,.65-2.69,5.76,5.76,0,0,1,1.64-2,6.89,6.89,0,0,1,2.52-1.31,8.72,8.72,0,0,1,2.94-.49,9.19,9.19,0,0,1,3.51.57,6.35,6.35,0,0,1,2.45,1.55,6,6,0,0,1,1.47,2.37,8.72,8.72,0,0,1,.49,2.94,8,8,0,0,1-2.12,5.79c-1.47,1.47-3.59,2.2-6.53,2.2h-6.12Z"></path><path class="cls-2" d="M135.77,106.32H131v61.2h4.81ZM181,167.52V167a16,16,0,0,1-.57-1.79c-.16-.65-.25-1.39-.41-2.12s-.16-1.47-.24-2.29a20,20,0,0,1-.09-2.28V137.66a15.33,15.33,0,0,0-1.14-6.12,11.83,11.83,0,0,0-3.26-4.41,14.14,14.14,0,0,0-4.9-2.61,22.55,22.55,0,0,0-13.14.16,19.14,19.14,0,0,0-5.22,2.86,13.36,13.36,0,0,0-3.34,4.08,9.32,9.32,0,0,0-1.15,4.65l4.74.08a7,7,0,0,1,.9-3.42,9.37,9.37,0,0,1,2.36-2.78,10.93,10.93,0,0,1,3.67-1.79,13.77,13.77,0,0,1,4.57-.74q5.5,0,8.33,2.69a9.45,9.45,0,0,1,2.85,7.27v4.89h-8.81a36,36,0,0,0-8.24.9,18.8,18.8,0,0,0-6.2,2.77,12.17,12.17,0,0,0-3.92,4.25,12,12,0,0,0-1.31,5.71,11.82,11.82,0,0,0,1,4.81,11.53,11.53,0,0,0,2.78,3.92,13.11,13.11,0,0,0,4.4,2.61,18.34,18.34,0,0,0,5.72.9,21.88,21.88,0,0,0,4.73-.57,27.06,27.06,0,0,0,4.08-1.47,15.53,15.53,0,0,0,3.26-2.2,13,13,0,0,0,2.53-2.61c.08,1.14.16,2.2.33,3.34a10.5,10.5,0,0,0,.65,2.69Zm-24.07-4.08a9.55,9.55,0,0,1-3.1-1.79,7,7,0,0,1-1.88-2.69,7.39,7.39,0,0,1-.73-3.27,8.06,8.06,0,0,1,1.06-4,8.49,8.49,0,0,1,3.1-3,15.13,15.13,0,0,1,4.89-1.87,26.37,26.37,0,0,1,6.53-.66h8.16v9.47A14.66,14.66,0,0,1,172.8,159a17.43,17.43,0,0,1-3.1,2.69,15.94,15.94,0,0,1-4,1.79,18,18,0,0,1-4.81.66,12,12,0,0,1-4-.66Zm55.52-39.33a8.73,8.73,0,0,0-1.38-.32,13.7,13.7,0,0,0-1.8-.17,12.41,12.41,0,0,0-7.34,2,14.92,14.92,0,0,0-4.82,5.63l-.08-6.85h-4.65v43.08h4.73V137.9a20.55,20.55,0,0,1,1.64-3.91,11.21,11.21,0,0,1,2.52-3,10.38,10.38,0,0,1,3.43-2,12.51,12.51,0,0,1,4.41-.74,18.65,18.65,0,0,1,3.18.25Zm5.44,22.28a30.34,30.34,0,0,0,1.15,8.89,20.07,20.07,0,0,0,3.26,6.94,16.09,16.09,0,0,0,5.22,4.49,14.78,14.78,0,0,0,6.94,1.63,17.15,17.15,0,0,0,7.91-1.71,14.94,14.94,0,0,0,5.39-4.66v5a18.14,18.14,0,0,1-.82,5.8,11,11,0,0,1-2.53,4.24,10.06,10.06,0,0,1-4,2.77,15.6,15.6,0,0,1-5.39.9,14.13,14.13,0,0,1-6.45-1.47,18.7,18.7,0,0,1-5.63-4.73l-2.61,2.86a14.64,14.64,0,0,0,3,3.26,21.69,21.69,0,0,0,3.75,2.28,23.94,23.94,0,0,0,4.08,1.39,17.88,17.88,0,0,0,4.17.41,19.81,19.81,0,0,0,7.1-1.22,15.4,15.4,0,0,0,5.46-3.51,16.38,16.38,0,0,0,3.43-5.63,21.57,21.57,0,0,0,1.3-7.51V124.44h-4.48l-.25,6.2a15.67,15.67,0,0,0-5.46-5.14,17.16,17.16,0,0,0-14.94-.33,15.84,15.84,0,0,0-5.22,4.41,20.07,20.07,0,0,0-3.26,6.94,31.09,31.09,0,0,0-1.15,9Zm4.82-.82a31.82,31.82,0,0,1,.73-7,17.61,17.61,0,0,1,2.29-5.63,10.9,10.9,0,0,1,4-3.76,10.57,10.57,0,0,1,5.71-1.38,15.41,15.41,0,0,1,4.57.65,13.23,13.23,0,0,1,3.51,1.87A13.37,13.37,0,0,1,246,133a14.15,14.15,0,0,1,1.71,3.26v20a15.2,15.2,0,0,1-1.88,3.19,10.6,10.6,0,0,1-2.61,2.44,12.61,12.61,0,0,1-3.51,1.72,15,15,0,0,1-4.4.57,11.16,11.16,0,0,1-9.63-5.14,17.71,17.71,0,0,1-2.29-5.63,31.4,31.4,0,0,1-.73-7Zm64.25,22.12a16.65,16.65,0,0,0,7.51-4,21.33,21.33,0,0,0,2.53-3l-3-2.2a14.15,14.15,0,0,1-5.3,4.4,15,15,0,0,1-6.78,1.39,13.54,13.54,0,0,1-6-1.31,14.43,14.43,0,0,1-4.66-3.67,16.46,16.46,0,0,1-3-5.38,20,20,0,0,1-1.07-6.69v-.9h30.77v-2.94a27,27,0,0,0-1.15-7.91,17.67,17.67,0,0,0-3.26-6.29,15.78,15.78,0,0,0-5.38-4.08,17,17,0,0,0-7.27-1.47,16,16,0,0,0-7,1.55,19,19,0,0,0-5.88,4.41,20.52,20.52,0,0,0-4.08,6.85,26.41,26.41,0,0,0-1.47,9.06v1.72a23.71,23.71,0,0,0,1.47,8.48,19,19,0,0,0,4,6.69,17,17,0,0,0,6.12,4.33,18.57,18.57,0,0,0,7.75,1.63,20.64,20.64,0,0,0,5.22-.65Zm-.81-38.84a12.87,12.87,0,0,1,3.83,3.1,14.5,14.5,0,0,1,2.29,4.48,19.05,19.05,0,0,1,.89,5.31v.49H267.26a21.62,21.62,0,0,1,1.55-6,15.11,15.11,0,0,1,2.85-4.57,14.74,14.74,0,0,1,4.08-3,13.07,13.07,0,0,1,5.06-1,12,12,0,0,1,5.31,1.15Zm50.45,34a13.59,13.59,0,0,1-4.25-3.83,17.39,17.39,0,0,1-2.28-5.63,28.79,28.79,0,0,1-.74-6.61v-1.63a29.24,29.24,0,0,1,.74-6.61,15.41,15.41,0,0,1,2.36-5.55,12,12,0,0,1,4.17-3.92,13.42,13.42,0,0,1,6.28-1.39,14.12,14.12,0,0,1,4.57.74,12.52,12.52,0,0,1,3.75,2.28,11.22,11.22,0,0,1,2.61,3.51,12.09,12.09,0,0,1,1.06,4.73h4.65A19.27,19.27,0,0,0,358,132.6a15.24,15.24,0,0,0-3.59-4.81,15.05,15.05,0,0,0-5.15-3.11,20,20,0,0,0-14.36.58,17,17,0,0,0-5.79,4.57,20.94,20.94,0,0,0-3.51,6.85,31.07,31.07,0,0,0-1.14,8.49v1.63a31.49,31.49,0,0,0,1.14,8.48,21.09,21.09,0,0,0,3.51,6.86,16.66,16.66,0,0,0,5.79,4.49,17.46,17.46,0,0,0,7.92,1.71,20,20,0,0,0,6.28-1.06,17.6,17.6,0,0,0,5.14-2.94,13.7,13.7,0,0,0,3.67-4.49,14.34,14.34,0,0,0,1.55-5.63h-4.65a10.3,10.3,0,0,1-1.14,4.33,12.69,12.69,0,0,1-2.69,3.18,12.4,12.4,0,0,1-3.76,1.88,13,13,0,0,1-4.4.65,12.52,12.52,0,0,1-6.28-1.39Zm37.73-56.55h-4.81v61.2h4.81Zm10.27,40.31a27.47,27.47,0,0,0,1.38,8.74,20.43,20.43,0,0,0,3.92,6.85,17.38,17.38,0,0,0,6,4.49,20,20,0,0,0,15.83,0,18.46,18.46,0,0,0,6.12-4.49,21.49,21.49,0,0,0,3.83-6.85,27.19,27.19,0,0,0,1.39-8.74v-1.3a26.63,26.63,0,0,0-1.39-8.65,21.1,21.1,0,0,0-3.83-6.94,18.57,18.57,0,0,0-6.12-4.48,19.32,19.32,0,0,0-8-1.64,18.83,18.83,0,0,0-7.83,1.64,18.57,18.57,0,0,0-6.12,4.48,21.31,21.31,0,0,0-3.84,6.94,26.91,26.91,0,0,0-1.38,8.65Zm4.81-1.3a22.9,22.9,0,0,1,.9-6.69A18.16,18.16,0,0,1,393,133a13.09,13.09,0,0,1,4.57-3.84,12.59,12.59,0,0,1,6.12-1.47,13.24,13.24,0,0,1,6.29,1.47,13.09,13.09,0,0,1,4.57,3.84,18.16,18.16,0,0,1,2.77,5.63,22.94,22.94,0,0,1,1,6.69v1.3a23.16,23.16,0,0,1-1,6.78,18.16,18.16,0,0,1-2.77,5.63,15,15,0,0,1-4.57,3.83,12.67,12.67,0,0,1-6.21,1.39,12.87,12.87,0,0,1-6.2-1.39A15,15,0,0,1,393,159a18.16,18.16,0,0,1-2.77-5.63,23.14,23.14,0,0,1-.9-6.78ZM458,159.45a7.81,7.81,0,0,1-2.12,2.52,15.3,15.3,0,0,1-3.51,1.72,17.25,17.25,0,0,1-4.81.57,17.5,17.5,0,0,1-4.08-.41,11.79,11.79,0,0,1-3.84-1.47,8.15,8.15,0,0,1-2.85-2.69,8.34,8.34,0,0,1-1.31-4.24h-4.81a10.9,10.9,0,0,0,1.14,4.81,12,12,0,0,0,3.26,4.16,16,16,0,0,0,5.22,2.86,24.88,24.88,0,0,0,7.27,1.06,23.63,23.63,0,0,0,6.61-.9,14.18,14.18,0,0,0,5-2.45,11.93,11.93,0,0,0,3.27-3.75,10.84,10.84,0,0,0,1.06-4.9,10.16,10.16,0,0,0-.9-4.56,9.23,9.23,0,0,0-2.69-3.51,20.38,20.38,0,0,0-4.73-2.7,44.87,44.87,0,0,0-6.7-1.95,46.82,46.82,0,0,1-5.87-1.72A12.39,12.39,0,0,1,439,140a4.23,4.23,0,0,1-1.71-2.2,6.67,6.67,0,0,1-.49-2.61,6.48,6.48,0,0,1,.65-2.69,6.3,6.3,0,0,1,1.8-2.45,11,11,0,0,1,3.26-1.71,13.47,13.47,0,0,1,4.73-.66,14,14,0,0,1,4.73.74,10.2,10.2,0,0,1,3.51,2,8.12,8.12,0,0,1,2.21,2.85,7.61,7.61,0,0,1,.73,3.27h4.73a11.74,11.74,0,0,0-1.06-5.14,12.46,12.46,0,0,0-3.1-4.08,15.76,15.76,0,0,0-5.06-2.7,21.08,21.08,0,0,0-6.69-1,20.85,20.85,0,0,0-6.28.9,15.82,15.82,0,0,0-4.82,2.53,11,11,0,0,0-3,3.75,9.84,9.84,0,0,0-1.07,4.57,10.18,10.18,0,0,0,1,4.57,9,9,0,0,0,2.94,3.35,17.52,17.52,0,0,0,4.73,2.45,51.43,51.43,0,0,0,6.37,1.71,33.31,33.31,0,0,1,5.87,1.8,11.58,11.58,0,0,1,3.51,2.2,7.39,7.39,0,0,1,1.72,2.45,7.93,7.93,0,0,1,.49,2.69,6,6,0,0,1-.74,2.86ZM496,167.69a16.69,16.69,0,0,0,7.5-4,21.33,21.33,0,0,0,2.53-3l-3-2.2a14.07,14.07,0,0,1-5.3,4.4,15,15,0,0,1-6.77,1.39,13.58,13.58,0,0,1-6-1.31,14.28,14.28,0,0,1-4.65-3.67,16.3,16.3,0,0,1-3-5.38,20,20,0,0,1-1.06-6.69v-.9H507v-2.94a27.33,27.33,0,0,0-1.14-7.91,17.85,17.85,0,0,0-3.27-6.29,15.68,15.68,0,0,0-5.38-4.08,17,17,0,0,0-7.26-1.47,16,16,0,0,0-7,1.55,19.25,19.25,0,0,0-5.88,4.41,20.52,20.52,0,0,0-4.08,6.85,26.66,26.66,0,0,0-1.46,9.06v1.72a23.93,23.93,0,0,0,1.46,8.48,19,19,0,0,0,4,6.69,17.17,17.17,0,0,0,6.12,4.33,18.6,18.6,0,0,0,7.75,1.63,20.72,20.72,0,0,0,5.23-.65Zm-.82-38.84A12.91,12.91,0,0,1,499,132a14.47,14.47,0,0,1,2.28,4.48,19.06,19.06,0,0,1,.9,5.31v.49H476.35a22.35,22.35,0,0,1,1.55-6,15.33,15.33,0,0,1,2.86-4.57,14.45,14.45,0,0,1,4.08-3,13,13,0,0,1,5.06-1,12,12,0,0,1,5.3,1.15Zm19.14,17.54a30.35,30.35,0,0,0,1.14,8.89,21.63,21.63,0,0,0,3.26,6.94,16.09,16.09,0,0,0,5.22,4.49,15,15,0,0,0,6.94,1.63,17.34,17.34,0,0,0,8-1.71,16.42,16.42,0,0,0,5.46-4.82l.17,5.71H549v-61.2h-4.73v24.16a16.13,16.13,0,0,0-5.47-5.06,15.79,15.79,0,0,0-7.83-1.8,14.71,14.71,0,0,0-6.93,1.55,15.29,15.29,0,0,0-5.31,4.41,21.63,21.63,0,0,0-3.26,6.94,31.1,31.1,0,0,0-1.14,9Zm4.81-.82a31.82,31.82,0,0,1,.73-7,17.61,17.61,0,0,1,2.29-5.63,10.9,10.9,0,0,1,4-3.76,10.59,10.59,0,0,1,5.71-1.38,15.41,15.41,0,0,1,4.57.65,13.08,13.08,0,0,1,3.51,1.87,11.44,11.44,0,0,1,2.53,2.7,17.92,17.92,0,0,1,1.79,3.18v20.24a17.69,17.69,0,0,1-2,3.1,10.41,10.41,0,0,1-2.61,2.44,12.43,12.43,0,0,1-3.51,1.64,15.75,15.75,0,0,1-4.4.57,11.16,11.16,0,0,1-9.63-5.14,17.71,17.71,0,0,1-2.29-5.63,31.4,31.4,0,0,1-.73-7Z"></path><path class="cls-3" d="M49.46,891.57H644.52M770.44,412.11v429"></path><path d="M877.88,629.09v23.27L864.38,640c-6.25-5.86-11.73-8.73-16.29-8.73a11.63,11.63,0,0,0-9,3.72c-2.29,2.54-3.39,5.93-3.39,10.23,0,4.63,1.3,8.28,4,11a13.4,13.4,0,0,0,10.3,4.18v-5.94a9.65,9.65,0,0,1-7-2.41,9.26,9.26,0,0,1-2.48-6.84,7.75,7.75,0,0,1,2.35-5.87,8.3,8.3,0,0,1,5.93-2.15,11.21,11.21,0,0,1,5.21,1.31,36,36,0,0,1,6.58,4.95l17.86,16h4.24V629.09ZM839.16,598.5a15.86,15.86,0,0,0,0,19.75,12,12,0,0,0,9.26,3.78,10.86,10.86,0,0,0,6.19-1.82,12.75,12.75,0,0,0,4.23-4.83,12.36,12.36,0,0,0,4.57,5.67,11.82,11.82,0,0,0,6.78,2,12.26,12.26,0,0,0,9.58-4c2.41-2.74,3.58-6.26,3.58-10.76s-1.17-8-3.58-10.69a12.13,12.13,0,0,0-9.58-4,11.36,11.36,0,0,0-6.78,2.15,13,13,0,0,0-4.57,5.74,12.48,12.48,0,0,0-4.23-5,10.66,10.66,0,0,0-6.19-1.83,11.76,11.76,0,0,0-9.26,3.78Zm37.09,3.39a10.36,10.36,0,0,1,0,13,8.19,8.19,0,0,1-6.19,2.35,8.65,8.65,0,0,1-6.39-2.41,8.47,8.47,0,0,1-2.41-6.39,8.93,8.93,0,0,1,2.47-6.45,8.56,8.56,0,0,1,6.33-2.48,8.27,8.27,0,0,1,6.19,2.41Zm-33.5.91a8.71,8.71,0,0,1,11.53-.06,7.39,7.39,0,0,1,2.15,5.6,7.63,7.63,0,0,1-2.15,5.67,7.86,7.86,0,0,1-5.73,2.09,7.94,7.94,0,0,1-5.87-2.15,7.54,7.54,0,0,1-2.15-5.61,7.38,7.38,0,0,1,2.22-5.54Z"></path><path d="M293.22,993.55,290,1000h4l2.35-4.76a16.34,16.34,0,0,0,6.06,1.11,15.6,15.6,0,0,0,8.15-2.15,15.35,15.35,0,0,0,5.54-6.26,20.55,20.55,0,0,0,1.95-9.06c0-6.78-2.09-11.86-6.19-15.12l3.26-6.52h-4L308.86,962a15.61,15.61,0,0,0-6.52-1.37,14.71,14.71,0,0,0-13.69,8.48,20.37,20.37,0,0,0-1.95,9.06c0,7.1,2.22,12.18,6.52,15.38Zm2.08-24.64a8.48,8.48,0,0,1,7-3.45,8.65,8.65,0,0,1,4.24,1l-10.89,22.09c-2.08-2.41-3.06-5.6-3.06-9.71,0-4.3.85-7.62,2.67-10Zm16.82,9.78c0,3.91-.85,7-2.61,9.38a8.68,8.68,0,0,1-7.1,3.46,9.11,9.11,0,0,1-3.85-.79l10.82-21.9c1.83,2.35,2.74,5.48,2.74,9.33Zm53.47-29.33h-6.25l-20.73,32.13v3.45h21.12V995.7h5.86V984.94h6.46v-4.82h-6.46ZM359,958.68l.72-1.24v22.68H345.26Zm47.47,9.64c-.06-6.71-1.3-11.6-3.65-14.79s-6-4.83-11-4.83-8.74,1.63-11.08,5-3.52,8.41-3.52,15.18v7.89c.06,6.52,1.3,11.41,3.71,14.73s6,4.89,10.95,4.89,8.74-1.69,11.08-5,3.52-8.47,3.52-15.38Zm-5.86,9.19c-.07,4.83-.85,8.41-2.22,10.63a7.89,7.89,0,0,1-13.1-.2c-1.44-2.41-2.22-6.06-2.22-11.08v-9.45c.07-4.69.78-8.21,2.15-10.49s3.59-3.39,6.59-3.39,5.28,1.17,6.64,3.45,2.16,5.87,2.16,10.89Z"></path><path class="cls-1" d="M641.81,826H52.18A23.84,23.84,0,0,1,76.1,802.17H617.87A23.86,23.86,0,0,1,641.81,826"></path><path class="cls-4" d="M641.81,826H52.18A23.84,23.84,0,0,1,76.1,802.17H617.87A23.86,23.86,0,0,1,641.81,826"></path><path class="cls-1" d="M348.7,414.83c-22.15,0-40.16,17-40.16,37.8V764.37c0,20.85,18,37.8,40.16,37.8s40.16-16.95,40.16-37.8V452.63c0-20.84-18-37.8-40.16-37.8m27.35,349.54c0,13.84-12.25,25.06-27.35,25.06s-27.35-11.22-27.35-25.06V452.62c0-13.84,12.24-25.05,27.35-25.05s27.35,11.21,27.35,25.05Z"></path><path class="cls-4" d="M348.7,414.83c-22.15,0-40.16,17-40.16,37.8V764.37c0,20.85,18,37.8,40.16,37.8s40.16-16.95,40.16-37.8V452.63c0-20.84-18-37.8-40.16-37.8Zm27.35,349.54c0,13.84-12.25,25.06-27.35,25.06s-27.35-11.22-27.35-25.06V452.62c0-13.84,12.24-25.05,27.35-25.05s27.35,11.21,27.35,25.05V764.37Z"></path></svg> 