<?xml version="1.0" encoding="UTF-8"?> <svg xmlns="http://www.w3.org/2000/svg" id="Livello_1" data-name="Livello 1" viewBox="0 0 951.43 1000"><defs><style>.cls-1{fill:#fff;}.cls-2{fill:#231f20;}.cls-3,.cls-4{fill:none;stroke-width:0.25px;}.cls-3{stroke:#000;}.cls-4{stroke:#231f20;stroke-miterlimit:10;}</style></defs><title>Clip small open</title><rect class="cls-1" width="951.43" height="1000"></rect><path class="cls-2" d="M244.5.73h-1.22l-24,8.65v9.31L233,14.44V58.83h11.5Zm58.3.09h-41v9.3h28.8L268.2,58.83h12.16L302.8,7.26Zm46.38,24a38,38,0,0,0-1.46-11.26,20.05,20.05,0,0,0-4-7.67,15.08,15.08,0,0,0-6.2-4.41,20.85,20.85,0,0,0-8-1.47,21.14,21.14,0,0,0-8,1.47,14.84,14.84,0,0,0-6.12,4.41,20.05,20.05,0,0,0-4,7.67,37.68,37.68,0,0,0-1.46,11.26v10A37.48,37.48,0,0,0,311.4,46a21.79,21.79,0,0,0,4,7.75,15.08,15.08,0,0,0,6.2,4.41,21.14,21.14,0,0,0,8,1.47,20.85,20.85,0,0,0,8-1.47,15.08,15.08,0,0,0,6.2-4.41,21.79,21.79,0,0,0,4-7.75,40.88,40.88,0,0,0,1.38-11.18Zm-11.5,11.58a29.71,29.71,0,0,1-.57,6.53,12.87,12.87,0,0,1-1.55,4.33A5.87,5.87,0,0,1,333,49.61a8.32,8.32,0,0,1-6.86,0,5.87,5.87,0,0,1-2.53-2.36A12.81,12.81,0,0,1,322,42.92a37.33,37.33,0,0,1-.49-6.53V23.09a36.23,36.23,0,0,1,.49-6.44,12.3,12.3,0,0,1,1.55-4.25A7,7,0,0,1,326.09,10a8,8,0,0,1,3.43-.66A7.59,7.59,0,0,1,333,10a6.59,6.59,0,0,1,2.61,2.36,12.3,12.3,0,0,1,1.55,4.25,28.84,28.84,0,0,1,.57,6.44ZM396.38.82h-41v9.3h28.8L361.79,58.83h12.15L396.38,7.26Zm30.23,28.56H404.17V38.6h22.44Zm48.52,20.15h-25l10.2-10.77c2-2,3.75-3.92,5.3-5.79a40.16,40.16,0,0,0,4.08-5.47,26.71,26.71,0,0,0,2.53-5.39,16.38,16.38,0,0,0,1-5.63A19.14,19.14,0,0,0,472,9.55a13.78,13.78,0,0,0-3.67-5.14,16.59,16.59,0,0,0-5.88-3.27A27.53,27.53,0,0,0,454.32,0a21.42,21.42,0,0,0-8.4,1.55,18.74,18.74,0,0,0-6.29,4.08,18,18,0,0,0-4.08,6,20.79,20.79,0,0,0-1.38,7.42h11.58a11.83,11.83,0,0,1,.57-3.91,9.21,9.21,0,0,1,1.55-3.1,7.44,7.44,0,0,1,2.7-2,8,8,0,0,1,3.59-.74,7.09,7.09,0,0,1,5.55,2.21,8.89,8.89,0,0,1,2,6.12,7.72,7.72,0,0,1-.4,2.61A14.66,14.66,0,0,1,460,23.17a23.71,23.71,0,0,1-2.36,3.51,48.53,48.53,0,0,1-3.59,4.25l-18.77,20v7.91h39.82Zm46.79,0H497l10.2-10.77c2-2,3.75-3.92,5.3-5.79a39.35,39.35,0,0,0,4.08-5.47,26.71,26.71,0,0,0,2.53-5.39,16.15,16.15,0,0,0,1-5.63,19.14,19.14,0,0,0-1.22-6.93,13.78,13.78,0,0,0-3.67-5.14,16.42,16.42,0,0,0-5.88-3.27A27.53,27.53,0,0,0,501.11,0a21.42,21.42,0,0,0-8.4,1.55,18.74,18.74,0,0,0-6.29,4.08,18,18,0,0,0-4.08,6A20.79,20.79,0,0,0,481,19.09h11.58a11.83,11.83,0,0,1,.57-3.91,9.21,9.21,0,0,1,1.55-3.1,7.44,7.44,0,0,1,2.7-2A8,8,0,0,1,501,9.3a7.09,7.09,0,0,1,5.55,2.21,8.89,8.89,0,0,1,1.95,6.12,7.72,7.72,0,0,1-.4,2.61,14.66,14.66,0,0,1-1.23,2.93,23.71,23.71,0,0,1-2.36,3.51,48.53,48.53,0,0,1-3.59,4.25l-18.77,20v7.91h39.82Z"></path><path class="cls-2" d="M199.11,124.44v43.08h4.82V138a20.85,20.85,0,0,1,1.55-3.84,16.53,16.53,0,0,1,2.53-3.26,13.8,13.8,0,0,1,3.67-2.29,12,12,0,0,1,4.73-.81,14.59,14.59,0,0,1,4.33.57,7.81,7.81,0,0,1,5.46,5.3,17.15,17.15,0,0,1,.74,5.39v28.47h4.81V139a11.52,11.52,0,0,1,1-3.83,15.31,15.31,0,0,1,2.45-3.59,13.75,13.75,0,0,1,3.91-2.69,11.67,11.67,0,0,1,5.23-1.06,17.11,17.11,0,0,1,4.24.48,7.18,7.18,0,0,1,3.35,1.88,8.78,8.78,0,0,1,2.2,3.59,18.14,18.14,0,0,1,.73,5.63v28.15h4.74V139.45a23.42,23.42,0,0,0-.9-7.18,11.73,11.73,0,0,0-2.78-4.89,10.29,10.29,0,0,0-4.48-2.86,19.14,19.14,0,0,0-6-.9,17.92,17.92,0,0,0-4.81.66,16.34,16.34,0,0,0-4.08,1.71,15,15,0,0,0-3.35,2.69,18.48,18.48,0,0,0-2.45,3.27,11.39,11.39,0,0,0-4.81-6.37,16.19,16.19,0,0,0-8.16-2,15.48,15.48,0,0,0-4.41.57,14.32,14.32,0,0,0-3.83,1.56,11.71,11.71,0,0,0-3.19,2.44,16.68,16.68,0,0,0-2.53,3.27l-.16-7Zm77.86,0h-4.82v43.08H277Zm-4.82-10.2a3.47,3.47,0,0,0,2.45.9,3.28,3.28,0,0,0,2.37-.9,3,3,0,0,0,.89-2.28,2.91,2.91,0,0,0-.89-2.29,3,3,0,0,0-2.37-1,3.21,3.21,0,0,0-2.45,1,3.16,3.16,0,0,0-.81,2.29,3.28,3.28,0,0,0,.81,2.28Zm17.69,10.2v43.08h4.73V138a17.86,17.86,0,0,1,1.88-3.76,13.48,13.48,0,0,1,2.69-3.34,13.86,13.86,0,0,1,3.68-2.29,12.08,12.08,0,0,1,4.65-.81,14,14,0,0,1,4.24.57,7.06,7.06,0,0,1,3.18,1.87,9.59,9.59,0,0,1,2,3.59,18.47,18.47,0,0,1,.74,5.63v28.07h4.73V139.45a23.79,23.79,0,0,0-1-7.26,13.32,13.32,0,0,0-2.69-4.89,10.11,10.11,0,0,0-4.33-2.78,16,16,0,0,0-5.79-.9,15.87,15.87,0,0,0-4.41.57,17.34,17.34,0,0,0-3.83,1.64,16.67,16.67,0,0,0-3.27,2.61,17.47,17.47,0,0,0-2.53,3.34l-.16-7.34Zm50.14,0h-4.81v43.08H340Zm-4.81-10.2a3.45,3.45,0,0,0,2.44.9,3.28,3.28,0,0,0,2.37-.9,3,3,0,0,0,.9-2.28,2.92,2.92,0,0,0-.9-2.29,3,3,0,0,0-2.37-1,3.19,3.19,0,0,0-2.44,1,3.12,3.12,0,0,0-.82,2.29,3.24,3.24,0,0,0,.82,2.28Zm34.88,32.39a27.19,27.19,0,0,0,1.39,8.74,20.26,20.26,0,0,0,3.92,6.85,17.43,17.43,0,0,0,6,4.49,20,20,0,0,0,15.83,0,18.46,18.46,0,0,0,6.12-4.49,21.51,21.51,0,0,0,3.84-6.85,27.19,27.19,0,0,0,1.39-8.74v-1.3a26.63,26.63,0,0,0-1.39-8.65,21.12,21.12,0,0,0-3.84-6.94,18.57,18.57,0,0,0-6.12-4.48,19.27,19.27,0,0,0-8-1.64,18.46,18.46,0,0,0-14,6.12,21.29,21.29,0,0,0-3.83,6.94,26.63,26.63,0,0,0-1.39,8.65Zm4.82-1.3a22.89,22.89,0,0,1,.89-6.69,18.18,18.18,0,0,1,2.78-5.63,12.92,12.92,0,0,1,4.57-3.84,12.53,12.53,0,0,1,6.12-1.47,13.23,13.23,0,0,1,6.28,1.47,12.92,12.92,0,0,1,4.57,3.84,18.16,18.16,0,0,1,2.77,5.63,22.61,22.61,0,0,1,1,6.69v1.3a22.83,22.83,0,0,1-1,6.78,18.16,18.16,0,0,1-2.77,5.63,14.79,14.79,0,0,1-4.57,3.83,12.61,12.61,0,0,1-6.2,1.39,12.82,12.82,0,0,1-6.2-1.39,14.79,14.79,0,0,1-4.57-3.83,18.18,18.18,0,0,1-2.78-5.63,23.14,23.14,0,0,1-.89-6.78Zm78.12.24a34.22,34.22,0,0,0-1.06-9,21.84,21.84,0,0,0-3.26-6.94,14.82,14.82,0,0,0-5.14-4.41,15.41,15.41,0,0,0-7.1-1.55,16.17,16.17,0,0,0-7.92,1.8,15.76,15.76,0,0,0-5.55,5.06l-.24-6h-4.41v59.65h4.74v-22a15,15,0,0,0,5.54,4.49,17.34,17.34,0,0,0,8,1.71,14.78,14.78,0,0,0,6.94-1.63,15.05,15.05,0,0,0,5.14-4.49,21.84,21.84,0,0,0,3.26-6.94,33.4,33.4,0,0,0,1.06-8.89Zm-4.81.82a32.64,32.64,0,0,1-.74,7.1,16.77,16.77,0,0,1-2.36,5.63,12,12,0,0,1-4,3.83,11,11,0,0,1-5.63,1.31,14.78,14.78,0,0,1-4.41-.57,11.06,11.06,0,0,1-3.42-1.55,9.59,9.59,0,0,1-2.7-2.45,12.79,12.79,0,0,1-1.87-3V136a13.1,13.1,0,0,1,4.24-5.8,14.28,14.28,0,0,1,3.51-1.79,13.11,13.11,0,0,1,4.57-.65,10.77,10.77,0,0,1,5.71,1.38,11,11,0,0,1,4,3.76,16,16,0,0,1,2.36,5.63,31.8,31.8,0,0,1,.74,7Zm37.24,21.3a16.65,16.65,0,0,0,7.51-4,21.33,21.33,0,0,0,2.53-3l-3-2.2a14.15,14.15,0,0,1-5.3,4.4,15,15,0,0,1-6.78,1.39,13.54,13.54,0,0,1-6-1.31,14.43,14.43,0,0,1-4.66-3.67,16.46,16.46,0,0,1-3-5.38,20,20,0,0,1-1.07-6.69v-.9h30.77v-2.94a27,27,0,0,0-1.15-7.91,17.67,17.67,0,0,0-3.26-6.29,15.78,15.78,0,0,0-5.38-4.08,17,17,0,0,0-7.27-1.47,16,16,0,0,0-7,1.55,19,19,0,0,0-5.88,4.41,20.52,20.52,0,0,0-4.08,6.85,26.41,26.41,0,0,0-1.47,9.06v1.72a23.71,23.71,0,0,0,1.47,8.48,19,19,0,0,0,4,6.69,17,17,0,0,0,6.12,4.33,18.57,18.57,0,0,0,7.75,1.63,20.64,20.64,0,0,0,5.22-.65Zm-.81-38.84a12.87,12.87,0,0,1,3.83,3.1,14.5,14.5,0,0,1,2.29,4.48,19.05,19.05,0,0,1,.89,5.31v.49H465.76a21.62,21.62,0,0,1,1.55-6,15.11,15.11,0,0,1,2.85-4.57,14.74,14.74,0,0,1,4.08-3,13.07,13.07,0,0,1,5.06-1,12,12,0,0,1,5.31,1.15Zm21-4.41v43.08h4.73V138a17.86,17.86,0,0,1,1.88-3.76,13.48,13.48,0,0,1,2.69-3.34,14,14,0,0,1,3.67-2.29,12.15,12.15,0,0,1,4.65-.81,14.05,14.05,0,0,1,4.25.57,7.06,7.06,0,0,1,3.18,1.87,9.59,9.59,0,0,1,2,3.59,18.5,18.5,0,0,1,.73,5.63v28.07h4.74V139.45a23.79,23.79,0,0,0-1-7.26,13.33,13.33,0,0,0-2.7-4.89,10.08,10.08,0,0,0-4.32-2.78,16,16,0,0,0-5.79-.9,15.87,15.87,0,0,0-4.41.57,17.41,17.41,0,0,0-3.84,1.64,16.91,16.91,0,0,0-3.26,2.61,17.47,17.47,0,0,0-2.53,3.34l-.16-7.34Z"></path><path class="cls-3" d="M183.58,891.57H529.39m106.53-420V827.31"></path><path d="M701.65,640.1V641L708,657.9h5.35L709,646h39.24V640.1Zm37.74-35.6c2.41,2.6,3.71,6.32,3.78,11.21V617h5v-1.18c-.13-7.17-2.22-12.51-6.39-16.1s-10.69-5.34-19.75-5.34h-1.69c-5.94,0-10.63,1.3-14,4a12.81,12.81,0,0,0-5.15,10.81,14.44,14.44,0,0,0,2,7.57,13.08,13.08,0,0,0,5.73,5,19.24,19.24,0,0,0,8.35,1.76,18.28,18.28,0,0,0,7.88-1.63,11.94,11.94,0,0,0,7.56-11.53,12,12,0,0,0-1.36-5.67,13.35,13.35,0,0,0-3.52-4.37c5.28.2,9.12,1.63,11.6,4.24Zm-14.67,10.88a12.26,12.26,0,0,1-7.75,2.28,12.42,12.42,0,0,1-7.82-2.34,7.61,7.61,0,0,1-2.94-6.26,7.46,7.46,0,0,1,3.59-6.32,15.92,15.92,0,0,1,9.38-2.54h2.35a10.84,10.84,0,0,1,4.43,3.65,9,9,0,0,1,1.83,5.47,7.2,7.2,0,0,1-3.07,6.06Z"></path><path d="M300.62,993.55l-3.19,6.45h4l2.34-4.76a16.42,16.42,0,0,0,6.06,1.11A15.55,15.55,0,0,0,318,994.2a15.2,15.2,0,0,0,5.54-6.26,20.42,20.42,0,0,0,2-9.06c0-6.78-2.09-11.86-6.2-15.12l3.26-6.52h-4L316.27,962a15.61,15.61,0,0,0-6.52-1.37,15,15,0,0,0-8.15,2.22,14.78,14.78,0,0,0-5.54,6.26,20.37,20.37,0,0,0-1.95,9.06c0,7.1,2.21,12.18,6.51,15.38Zm2.09-24.64a8.48,8.48,0,0,1,7-3.45,8.67,8.67,0,0,1,4.24,1L303.1,988.59C301,986.18,300,983,300,978.88c0-4.3.84-7.62,2.67-10Zm16.82,9.78c0,3.91-.85,7-2.61,9.38a8.69,8.69,0,0,1-7.11,3.46,9.06,9.06,0,0,1-3.84-.79l10.82-21.9a14.87,14.87,0,0,1,2.74,9.33Zm48-29.53h-.92l-16.88,6.32v5.35l11.86-4.37V995.7h5.94Zm41.6,3a15.82,15.82,0,0,0-19.75,0,12,12,0,0,0-3.78,9.25,10.87,10.87,0,0,0,1.82,6.2,12.75,12.75,0,0,0,4.83,4.23,12.3,12.3,0,0,0-5.67,4.57,11.81,11.81,0,0,0-2,6.77,12.29,12.29,0,0,0,4,9.59c2.74,2.41,6.26,3.58,10.76,3.58s7.95-1.17,10.69-3.58a12.15,12.15,0,0,0,4-9.59,11.35,11.35,0,0,0-2.15-6.77,13,13,0,0,0-5.74-4.57,12.48,12.48,0,0,0,4.95-4.23,10.67,10.67,0,0,0,1.83-6.2,11.75,11.75,0,0,0-3.78-9.25Zm-3.39,37.09a10.36,10.36,0,0,1-13,0,8.2,8.2,0,0,1-2.35-6.2,8.64,8.64,0,0,1,2.41-6.38,8.47,8.47,0,0,1,6.39-2.42,8.94,8.94,0,0,1,6.45,2.48,8.55,8.55,0,0,1,2.48,6.32,8.27,8.27,0,0,1-2.41,6.2Zm-.91-33.51a8.73,8.73,0,0,1,.06,11.54,7.43,7.43,0,0,1-5.6,2.15,7.67,7.67,0,0,1-5.67-2.15,9,9,0,0,1,.06-11.6,7.5,7.5,0,0,1,5.61-2.15,7.38,7.38,0,0,1,5.54,2.21Z"></path><path class="cls-1" d="M521.39,826H186.29a23,23,0,0,1,23-23H498.39a23,23,0,0,1,23,23"></path><path class="cls-4" d="M521.39,826H186.29a23,23,0,0,1,23-23H498.39a23,23,0,0,1,23,23Z"></path><path class="cls-1" d="M354.25,481c-21.51,0-39,18.24-39,40.65v54.7a8.34,8.34,0,0,0,16.42,0V519c0-13.84,10.48-25.07,23.41-25.07s23.4,11.23,23.4,25.07V763.29c0,13.84-10.47,25.07-23.4,25.07s-23.41-11.23-23.41-25.07v-114a8.34,8.34,0,0,0-16.42,0V760.86c0,22.41,17.5,40.65,39,40.65s39-18.24,39-40.65V521.61c0-22.41-17.51-40.65-39-40.65"></path><path class="cls-4" d="M354.25,481c-21.51,0-39,18.24-39,40.65v54.7a8.34,8.34,0,0,0,16.42,0V519c0-13.84,10.48-25.07,23.41-25.07s23.4,11.23,23.4,25.07V763.29c0,13.84-10.47,25.07-23.4,25.07s-23.41-11.23-23.41-25.07v-114a8.34,8.34,0,0,0-16.42,0V760.86c0,22.41,17.5,40.65,39,40.65s39-18.24,39-40.65V521.61c0-22.41-17.51-40.65-39-40.65Z"></path></svg> 