<?xml version="1.0" encoding="UTF-8"?> <svg xmlns="http://www.w3.org/2000/svg" id="Livello_1" data-name="Livello 1" viewBox="0 0 951.43 1000"><defs><style>.cls-1{fill:#fff;}.cls-2{fill:#231f20;}.cls-3,.cls-4{fill:none;stroke-width:0.25px;}.cls-3{stroke:#000;}.cls-4{stroke:#231f20;stroke-miterlimit:10;}</style></defs><title>Clip small closed</title><rect class="cls-1" width="951.43" height="1000"></rect><path class="cls-2" d="M247,.73h-1.22l-24,8.65v9.31l13.71-4.25V58.83H247Zm58.3.09h-41v9.3h28.8L270.68,58.83h12.16L305.28,7.26Zm46.38,24a37.65,37.65,0,0,0-1.47-11.26,19.92,19.92,0,0,0-4-7.67A15,15,0,0,0,340,1.47,20.79,20.79,0,0,0,332,0a21.14,21.14,0,0,0-8,1.47,14.71,14.71,0,0,0-6.12,4.41,20.05,20.05,0,0,0-4,7.67,37.65,37.65,0,0,0-1.47,11.26v10A37.46,37.46,0,0,0,313.88,46a21.79,21.79,0,0,0,4,7.75,15,15,0,0,0,6.2,4.41,21.14,21.14,0,0,0,8,1.47,20.79,20.79,0,0,0,8-1.47,15.05,15.05,0,0,0,6.21-4.41,21.78,21.78,0,0,0,4-7.75,40.47,40.47,0,0,0,1.39-11.18Zm-11.5,11.58a29.64,29.64,0,0,1-.58,6.53A12.45,12.45,0,0,1,338,47.25a5.82,5.82,0,0,1-2.53,2.36,8.3,8.3,0,0,1-6.85,0,5.82,5.82,0,0,1-2.53-2.36,12.81,12.81,0,0,1-1.63-4.33,36.38,36.38,0,0,1-.49-6.53V23.09a35.31,35.31,0,0,1,.49-6.44A12.1,12.1,0,0,1,326,12.4,6.89,6.89,0,0,1,328.57,10,8,8,0,0,1,332,9.38a7.55,7.55,0,0,1,3.42.66A6.52,6.52,0,0,1,338,12.4a11.91,11.91,0,0,1,1.55,4.25,28.78,28.78,0,0,1,.58,6.44ZM398.86.82h-41v9.3h28.8L364.26,58.83h12.16L398.86,7.26Zm30.23,28.56H406.65V38.6h22.44ZM477.6,49.53h-25l10.2-10.77c2-2,3.75-3.92,5.3-5.79a40.16,40.16,0,0,0,4.08-5.47,26.71,26.71,0,0,0,2.53-5.39,16.38,16.38,0,0,0,1-5.63,18.94,18.94,0,0,0-1.23-6.93,13.67,13.67,0,0,0-3.67-5.14A16.46,16.46,0,0,0,465,1.14,27.53,27.53,0,0,0,456.8,0a21.47,21.47,0,0,0-8.41,1.55,18.59,18.59,0,0,0-6.28,4.08,17.82,17.82,0,0,0-4.08,6,20.59,20.59,0,0,0-1.39,7.42h11.59a11.57,11.57,0,0,1,.57-3.91,9.21,9.21,0,0,1,1.55-3.1A7.4,7.4,0,0,1,453,10a8.07,8.07,0,0,1,3.59-.74,7.06,7.06,0,0,1,5.55,2.21,8.84,8.84,0,0,1,2,6.12,7.5,7.5,0,0,1-.41,2.61,14,14,0,0,1-1.22,2.93,23.84,23.84,0,0,1-2.37,3.51,46.84,46.84,0,0,1-3.59,4.25l-18.77,20v7.91H477.6Zm35-48.8h-1.22l-24,8.65v9.31l13.71-4.25V58.83h11.5Z"></path><path class="cls-2" d="M173.16,124.44v43.08H178V138a22.36,22.36,0,0,1,1.55-3.84,16.53,16.53,0,0,1,2.53-3.26,13.8,13.8,0,0,1,3.67-2.29,12,12,0,0,1,4.73-.81,14.59,14.59,0,0,1,4.33.57,8,8,0,0,1,3.26,1.79,8.11,8.11,0,0,1,2.21,3.51,17.17,17.17,0,0,1,.73,5.39v28.47h4.81V139a11.77,11.77,0,0,1,1-3.83,15.61,15.61,0,0,1,2.45-3.59,13.8,13.8,0,0,1,3.92-2.69,11.62,11.62,0,0,1,5.22-1.06,17.11,17.11,0,0,1,4.24.48,7.18,7.18,0,0,1,3.35,1.88,8.67,8.67,0,0,1,2.2,3.59,18.11,18.11,0,0,1,.74,5.63v28.15h4.73V139.45a23.42,23.42,0,0,0-.9-7.18,11.83,11.83,0,0,0-2.77-4.89,10.38,10.38,0,0,0-4.49-2.86,19,19,0,0,0-6-.9,18,18,0,0,0-4.81.66,16.34,16.34,0,0,0-4.08,1.71,15,15,0,0,0-3.35,2.69,18.93,18.93,0,0,0-2.44,3.27,11.36,11.36,0,0,0-4.82-6.37,16.16,16.16,0,0,0-8.16-2,15.48,15.48,0,0,0-4.41.57,14.46,14.46,0,0,0-3.83,1.56,11.66,11.66,0,0,0-3.18,2.44,16.31,16.31,0,0,0-2.53,3.27l-.17-7Zm77.85,0H246.2v43.08H251Zm-4.81-10.2a3.45,3.45,0,0,0,2.44.9,3.28,3.28,0,0,0,2.37-.9,3,3,0,0,0,.9-2.28,2.92,2.92,0,0,0-.9-2.29,3,3,0,0,0-2.37-1,3.19,3.19,0,0,0-2.44,1,3.12,3.12,0,0,0-.82,2.29,3.24,3.24,0,0,0,.82,2.28Zm17.68,10.2v43.08h4.74V138a18.3,18.3,0,0,1,1.87-3.76,13,13,0,0,1,6.37-5.63,12.15,12.15,0,0,1,4.65-.81,13.94,13.94,0,0,1,4.24.57,7,7,0,0,1,3.19,1.87,9.58,9.58,0,0,1,2,3.59,18.47,18.47,0,0,1,.74,5.63v28.07h4.73V139.45a23.48,23.48,0,0,0-1-7.26,13.32,13.32,0,0,0-2.69-4.89,10.08,10.08,0,0,0-4.32-2.78,16.1,16.1,0,0,0-5.8-.9,15.75,15.75,0,0,0-4.4.57,17.21,17.21,0,0,0-3.84,1.64,17,17,0,0,0-5.79,6l-.17-7.34Zm50.14,0h-4.81v43.08H314Zm-4.81-10.2a3.47,3.47,0,0,0,2.45.9,3.25,3.25,0,0,0,2.36-.9,3,3,0,0,0,.9-2.28,2.88,2.88,0,0,0-.9-2.29,3,3,0,0,0-2.36-1,3.21,3.21,0,0,0-2.45,1,3.16,3.16,0,0,0-.82,2.29,3.28,3.28,0,0,0,.82,2.28Zm47.12,48.63a13.67,13.67,0,0,1-4.24-3.83,17.39,17.39,0,0,1-2.28-5.63,28.79,28.79,0,0,1-.74-6.61v-1.63a29.24,29.24,0,0,1,.74-6.61,15.41,15.41,0,0,1,2.36-5.55,12,12,0,0,1,4.16-3.92,13.49,13.49,0,0,1,6.29-1.39,14.12,14.12,0,0,1,4.57.74,12.52,12.52,0,0,1,3.75,2.28,11.22,11.22,0,0,1,2.61,3.51,12.27,12.27,0,0,1,1.06,4.73h4.65a19.27,19.27,0,0,0-1.46-6.36,15.11,15.11,0,0,0-3.6-4.81,14.91,14.91,0,0,0-5.14-3.11,20,20,0,0,0-14.36.58,17,17,0,0,0-5.79,4.57,20.94,20.94,0,0,0-3.51,6.85,31.07,31.07,0,0,0-1.14,8.49v1.63a31.49,31.49,0,0,0,1.14,8.48,21.09,21.09,0,0,0,3.51,6.86,16.66,16.66,0,0,0,5.79,4.49,17.46,17.46,0,0,0,7.92,1.71,20,20,0,0,0,6.28-1.06,17.6,17.6,0,0,0,5.14-2.94,13.7,13.7,0,0,0,3.67-4.49,14.34,14.34,0,0,0,1.55-5.63h-4.65a10.3,10.3,0,0,1-1.14,4.33,12.69,12.69,0,0,1-2.69,3.18,12.4,12.4,0,0,1-3.76,1.88,13,13,0,0,1-4.4.65,12.58,12.58,0,0,1-6.29-1.39Zm37.74-56.55h-4.81v61.2h4.81Zm10.27,40.31a27.47,27.47,0,0,0,1.38,8.74,20.43,20.43,0,0,0,3.92,6.85,17.38,17.38,0,0,0,6,4.49,20,20,0,0,0,15.83,0,18.46,18.46,0,0,0,6.12-4.49,21.49,21.49,0,0,0,3.83-6.85,27.19,27.19,0,0,0,1.39-8.74v-1.3a26.63,26.63,0,0,0-1.39-8.65,21.1,21.1,0,0,0-3.83-6.94,18.57,18.57,0,0,0-6.12-4.48,19.32,19.32,0,0,0-8-1.64,18.83,18.83,0,0,0-7.83,1.64,18.57,18.57,0,0,0-6.12,4.48,21.31,21.31,0,0,0-3.84,6.94,26.91,26.91,0,0,0-1.38,8.65Zm4.81-1.3a22.9,22.9,0,0,1,.9-6.69,18.16,18.16,0,0,1,2.77-5.63,13.09,13.09,0,0,1,4.57-3.84,12.59,12.59,0,0,1,6.12-1.47,13.24,13.24,0,0,1,6.29,1.47,13.09,13.09,0,0,1,4.57,3.84,18.16,18.16,0,0,1,2.77,5.63,22.94,22.94,0,0,1,1,6.69v1.3a23.16,23.16,0,0,1-1,6.78,18.16,18.16,0,0,1-2.77,5.63,15,15,0,0,1-4.57,3.83,12.67,12.67,0,0,1-6.21,1.39,12.87,12.87,0,0,1-6.2-1.39,15,15,0,0,1-4.57-3.83,18.16,18.16,0,0,1-2.77-5.63,23.14,23.14,0,0,1-.9-6.78Zm68.58,14.12a7.81,7.81,0,0,1-2.12,2.52,15.3,15.3,0,0,1-3.51,1.72,17.25,17.25,0,0,1-4.81.57,17.5,17.5,0,0,1-4.08-.41,11.79,11.79,0,0,1-3.84-1.47,8.15,8.15,0,0,1-2.85-2.69,8.34,8.34,0,0,1-1.31-4.24H450.4a10.9,10.9,0,0,0,1.14,4.81,12,12,0,0,0,3.26,4.16,16,16,0,0,0,5.22,2.86,24.88,24.88,0,0,0,7.27,1.06,23.63,23.63,0,0,0,6.61-.9,14.18,14.18,0,0,0,5-2.45,11.93,11.93,0,0,0,3.27-3.75,10.84,10.84,0,0,0,1.06-4.9,10.16,10.16,0,0,0-.9-4.56,9.23,9.23,0,0,0-2.69-3.51,20.25,20.25,0,0,0-4.74-2.7,44.71,44.71,0,0,0-6.69-1.95,46.82,46.82,0,0,1-5.87-1.72A12.39,12.39,0,0,1,458.8,140a4.23,4.23,0,0,1-1.71-2.2,6.67,6.67,0,0,1-.49-2.61,6.48,6.48,0,0,1,.65-2.69,6.37,6.37,0,0,1,1.79-2.45,11.17,11.17,0,0,1,3.27-1.71,13.47,13.47,0,0,1,4.73-.66,14,14,0,0,1,4.73.74,10.2,10.2,0,0,1,3.51,2,8.12,8.12,0,0,1,2.21,2.85,7.61,7.61,0,0,1,.73,3.27H483a11.74,11.74,0,0,0-1.06-5.14,12.46,12.46,0,0,0-3.1-4.08,15.76,15.76,0,0,0-5.06-2.7,21.08,21.08,0,0,0-6.69-1,20.8,20.8,0,0,0-6.28.9,15.82,15.82,0,0,0-4.82,2.53,11.18,11.18,0,0,0-3,3.75,10,10,0,0,0-1.06,4.57,10.18,10.18,0,0,0,1,4.57,9,9,0,0,0,2.94,3.35,17.52,17.52,0,0,0,4.73,2.45,51.43,51.43,0,0,0,6.37,1.71,33.31,33.31,0,0,1,5.87,1.8,11.58,11.58,0,0,1,3.51,2.2A7.39,7.39,0,0,1,478,153.9a7.93,7.93,0,0,1,.49,2.69,6,6,0,0,1-.74,2.86Zm38.07,8.24a16.69,16.69,0,0,0,7.5-4,21.33,21.33,0,0,0,2.53-3l-3-2.2a14.07,14.07,0,0,1-5.3,4.4,15,15,0,0,1-6.77,1.39,13.58,13.58,0,0,1-6-1.31,14.28,14.28,0,0,1-4.65-3.67,16.3,16.3,0,0,1-3-5.38,20,20,0,0,1-1.06-6.69v-.9h30.76v-2.94a27.33,27.33,0,0,0-1.14-7.91,17.85,17.85,0,0,0-3.27-6.29,15.68,15.68,0,0,0-5.38-4.08,17,17,0,0,0-7.26-1.47,16,16,0,0,0-7,1.55,19.25,19.25,0,0,0-5.88,4.41,20.52,20.52,0,0,0-4.08,6.85,26.41,26.41,0,0,0-1.46,9.06v1.72a23.71,23.71,0,0,0,1.46,8.48,19,19,0,0,0,4,6.69,17.17,17.17,0,0,0,6.12,4.33,18.6,18.6,0,0,0,7.75,1.63,20.72,20.72,0,0,0,5.23-.65ZM515,128.85a13,13,0,0,1,3.84,3.1,14.69,14.69,0,0,1,2.28,4.48,19.06,19.06,0,0,1,.9,5.31v.49H496.13a22.35,22.35,0,0,1,1.55-6,15.13,15.13,0,0,1,2.86-4.57,14.45,14.45,0,0,1,4.08-3,13,13,0,0,1,5.06-1,12,12,0,0,1,5.3,1.15Zm19.13,17.54a30.34,30.34,0,0,0,1.15,8.89,21.63,21.63,0,0,0,3.26,6.94,16.09,16.09,0,0,0,5.22,4.49,15,15,0,0,0,6.94,1.63,17.34,17.34,0,0,0,8-1.71,16.42,16.42,0,0,0,5.46-4.82l.17,5.71h4.48v-61.2h-4.73v24.16a16.13,16.13,0,0,0-5.47-5.06,15.79,15.79,0,0,0-7.83-1.8,14.75,14.75,0,0,0-6.94,1.55,15.34,15.34,0,0,0-5.3,4.41,21.63,21.63,0,0,0-3.26,6.94,31.09,31.09,0,0,0-1.15,9Zm4.82-.82a31.82,31.82,0,0,1,.73-7,17.61,17.61,0,0,1,2.29-5.63,10.9,10.9,0,0,1,4-3.76,10.59,10.59,0,0,1,5.71-1.38,15.41,15.41,0,0,1,4.57.65,13.23,13.23,0,0,1,3.51,1.87,11.44,11.44,0,0,1,2.53,2.7,17.92,17.92,0,0,1,1.79,3.18v20.24a17.69,17.69,0,0,1-2,3.1,10.41,10.41,0,0,1-2.61,2.44,12.43,12.43,0,0,1-3.51,1.64,15.75,15.75,0,0,1-4.4.57A11.16,11.16,0,0,1,542,159a17.71,17.71,0,0,1-2.29-5.63,31.4,31.4,0,0,1-.73-7Z"></path><path class="cls-3" d="M202,891.57H547.82m98-420V827.31"></path><path d="M711.51,640.1V641l6.32,16.88h5.34L718.81,646H758V640.1Zm37.74-35.6c2.41,2.6,3.71,6.32,3.78,11.21V617h5v-1.18c-.13-7.17-2.21-12.51-6.38-16.1s-10.69-5.34-19.75-5.34h-1.7c-5.93,0-10.62,1.3-14,4a12.81,12.81,0,0,0-5.15,10.81,14.35,14.35,0,0,0,2,7.57,13.08,13.08,0,0,0,5.73,5,19.23,19.23,0,0,0,8.34,1.76,18.36,18.36,0,0,0,7.89-1.63,12.63,12.63,0,0,0,5.61-4.56,12.49,12.49,0,0,0,1.95-7,11.85,11.85,0,0,0-1.37-5.67,13.23,13.23,0,0,0-3.52-4.37c5.28.2,9.13,1.63,11.61,4.24Zm-14.67,10.88a12.29,12.29,0,0,1-7.76,2.28,12.44,12.44,0,0,1-7.82-2.34,7.63,7.63,0,0,1-2.93-6.26,7.45,7.45,0,0,1,3.58-6.32A16,16,0,0,1,729,600.2h2.35a10.84,10.84,0,0,1,4.43,3.65,9,9,0,0,1,1.82,5.47,7.19,7.19,0,0,1-3.06,6.06Z"></path><path d="M319.07,993.55l-3.2,6.45h4l2.35-4.76a16.34,16.34,0,0,0,6.06,1.11,15.6,15.6,0,0,0,8.15-2.15,15.35,15.35,0,0,0,5.54-6.26,20.55,20.55,0,0,0,1.95-9.06c0-6.78-2.09-11.86-6.19-15.12l3.26-6.52h-4L334.71,962a15.61,15.61,0,0,0-6.52-1.37,15,15,0,0,0-8.14,2.22,14.78,14.78,0,0,0-5.54,6.26,20.24,20.24,0,0,0-2,9.06c0,7.1,2.22,12.18,6.52,15.38Zm2.08-24.64a8.48,8.48,0,0,1,7-3.45,8.65,8.65,0,0,1,4.24,1l-10.89,22.09c-2.08-2.41-3.06-5.6-3.06-9.71,0-4.3.85-7.62,2.67-10ZM338,978.69c0,3.91-.85,7-2.61,9.38a8.68,8.68,0,0,1-7.1,3.46,9.11,9.11,0,0,1-3.85-.79l10.82-21.9c1.83,2.35,2.74,5.48,2.74,9.33Zm48-29.53h-.91l-16.88,6.32v5.35L380,956.46V995.7H386Zm41.6,3a15.82,15.82,0,0,0-19.75,0,12,12,0,0,0-3.78,9.25,10.8,10.8,0,0,0,1.83,6.2,12.64,12.64,0,0,0,4.82,4.23,12.3,12.3,0,0,0-5.67,4.57,11.81,11.81,0,0,0-2,6.77,12.26,12.26,0,0,0,4,9.59c2.73,2.41,6.25,3.58,10.75,3.58s7.95-1.17,10.69-3.58a12.15,12.15,0,0,0,4-9.59,11.35,11.35,0,0,0-2.15-6.77,12.92,12.92,0,0,0-5.73-4.57,12.62,12.62,0,0,0,4.95-4.23,10.66,10.66,0,0,0,1.82-6.2,11.72,11.72,0,0,0-3.78-9.25Zm-3.39,37.09a9,9,0,0,1-6.45,2.28,9.07,9.07,0,0,1-6.52-2.28,8.23,8.23,0,0,1-2.34-6.2,8.64,8.64,0,0,1,2.41-6.38,8.44,8.44,0,0,1,6.39-2.42,9,9,0,0,1,6.45,2.48,8.55,8.55,0,0,1,2.48,6.32,8.24,8.24,0,0,1-2.42,6.2Zm-.91-33.51a8.71,8.71,0,0,1,.07,11.54,7.44,7.44,0,0,1-5.61,2.15,7.67,7.67,0,0,1-5.67-2.15,9,9,0,0,1,.07-11.6,7.47,7.47,0,0,1,5.6-2.15,7.35,7.35,0,0,1,5.54,2.21Z"></path><path class="cls-1" d="M545.11,826H204.73a23.36,23.36,0,0,1,23.36-23.36H521.75A23.36,23.36,0,0,1,545.11,826"></path><path class="cls-4" d="M545.11,826H204.73a23.36,23.36,0,0,1,23.36-23.36H521.75A23.36,23.36,0,0,1,545.11,826Z"></path><path class="cls-1" d="M375.33,475.52c-21.85,0-39.63,18.52-39.63,41.29v243c0,22.77,17.78,41.28,39.63,41.28S415,782.61,415,759.84v-243c0-22.77-17.77-41.29-39.63-41.29M399.94,762.3c0,14.07-10.64,25.47-23.77,25.47s-23.78-11.4-23.78-25.47V514.16c0-14,10.65-25.45,23.78-25.45s23.77,11.4,23.77,25.45Z"></path><path class="cls-4" d="M375.33,475.52c-21.85,0-39.63,18.52-39.63,41.29v243c0,22.77,17.78,41.28,39.63,41.28S415,782.61,415,759.84v-243c0-22.77-17.77-41.29-39.63-41.29ZM399.94,762.3c0,14.07-10.64,25.47-23.77,25.47s-23.78-11.4-23.78-25.47V514.16c0-14,10.65-25.45,23.78-25.45s23.77,11.4,23.77,25.45V762.3Z"></path></svg> 