<?xml version="1.0" encoding="UTF-8"?> <svg xmlns="http://www.w3.org/2000/svg" id="Livello_1" data-name="Livello 1" viewBox="0 0 1101.33 998.95"><defs><style>.cls-1{fill:#fff;}.cls-2{fill:#231f20;}.cls-3,.cls-4{fill:none;stroke-width:0.25px;}.cls-3{stroke:#000;}.cls-4{stroke:#231f20;}</style></defs><title>Club House wall 32</title><rect class="cls-1" width="1101.33" height="998.95"></rect><path class="cls-2" d="M174.13,1.31h-2.19L129.1,16.76V33.37l24.48-7.58v79.28h20.55Zm94.49.15H247.78l-43.13,68.2.87,13h42.55v22.44h20.55V82.63h11.66V66H268.62Zm-22,30.45,1.45-2.47V66h-23ZM361.07,44.3a67.31,67.31,0,0,0-2.62-20.11,35.87,35.87,0,0,0-7.14-13.7,26.86,26.86,0,0,0-11.07-7.87A37.24,37.24,0,0,0,326,0a37.73,37.73,0,0,0-14.28,2.62,26.44,26.44,0,0,0-10.93,7.87,36,36,0,0,0-7.14,13.7A67.31,67.31,0,0,0,291,44.3V62.22a67,67,0,0,0,2.62,20A38.77,38.77,0,0,0,300.74,96a26.65,26.65,0,0,0,11.08,7.87,37.7,37.7,0,0,0,14.28,2.63,37.19,37.19,0,0,0,14.28-2.63A26.65,26.65,0,0,0,351.46,96a38.77,38.77,0,0,0,7.14-13.84,72.65,72.65,0,0,0,2.47-20ZM340.53,65a53.12,53.12,0,0,1-1,11.66,23,23,0,0,1-2.77,7.73,10.4,10.4,0,0,1-4.52,4.22,15,15,0,0,1-12.24,0,10.4,10.4,0,0,1-4.52-4.22,22.64,22.64,0,0,1-2.91-7.73A64.8,64.8,0,0,1,311.67,65V41.24a63.09,63.09,0,0,1,.88-11.51,21.55,21.55,0,0,1,2.77-7.58,12.45,12.45,0,0,1,4.51-4.23A14.43,14.43,0,0,1,326,16.76a13.53,13.53,0,0,1,6.12,1.16,11.77,11.77,0,0,1,4.67,4.23,22,22,0,0,1,2.77,7.58,51.73,51.73,0,0,1,1,11.51ZM446,88.46H401.36l18.21-19.24c3.5-3.64,6.71-7,9.47-10.35a69.63,69.63,0,0,0,7.29-9.76,47.4,47.4,0,0,0,4.52-9.62,29.31,29.31,0,0,0,1.75-10,34,34,0,0,0-2.19-12.39,24.6,24.6,0,0,0-6.56-9.18A29.21,29.21,0,0,0,423.36,2a48.86,48.86,0,0,0-14.57-2,38.16,38.16,0,0,0-15,2.77,33.11,33.11,0,0,0-11.22,7.29,32,32,0,0,0-7.29,10.78,37,37,0,0,0-2.48,13.26h20.7a20.83,20.83,0,0,1,1-7,16.33,16.33,0,0,1,2.77-5.53,13.13,13.13,0,0,1,4.81-3.65,14.39,14.39,0,0,1,6.41-1.31c4.22,0,7.57,1.31,9.91,3.94s3.49,6.26,3.49,10.93a13.55,13.55,0,0,1-.72,4.66A25.66,25.66,0,0,1,419,41.39a42.9,42.9,0,0,1-4.23,6.26,86.07,86.07,0,0,1-6.41,7.58l-33.52,35.7v14.14H446Zm53.4-36H459.27V68.93h40.08Zm36.52,7.72H546.8a27.54,27.54,0,0,1,7.14.88,20.76,20.76,0,0,1,5.39,2.77,14.09,14.09,0,0,1,3.35,4.81,20.89,20.89,0,0,1,1.17,7.14,15.39,15.39,0,0,1-1.17,5.83A10,10,0,0,1,559.62,86a11.17,11.17,0,0,1-5,2.91,18.27,18.27,0,0,1-6.56,1,16.1,16.1,0,0,1-6-1,13,13,0,0,1-4.81-2.77,12.35,12.35,0,0,1-3.2-4.08A12.7,12.7,0,0,1,533,76.65H512.4a27,27,0,0,0,3.06,13.26,27.66,27.66,0,0,0,8,9.33,35,35,0,0,0,11.22,5.54,49.09,49.09,0,0,0,13,1.75,51.76,51.76,0,0,0,14.57-2,34.15,34.15,0,0,0,11.66-6A27.23,27.23,0,0,0,581.62,89a30.79,30.79,0,0,0,2.77-13A25.53,25.53,0,0,0,580,61.2c-2.77-4.08-7.14-7.28-13-9.32a35,35,0,0,0,6.71-4.23,33.94,33.94,0,0,0,5-5.24,27.75,27.75,0,0,0,3.06-6.27,25.74,25.74,0,0,0,1-6.56,30.06,30.06,0,0,0-2.62-12.82A26.14,26.14,0,0,0,573,7.58,33.28,33.28,0,0,0,562,1.89,54.82,54.82,0,0,0,547.67,0a43.62,43.62,0,0,0-13.26,2,36.15,36.15,0,0,0-10.78,5.68,28.8,28.8,0,0,0-7.29,8.89,25.83,25.83,0,0,0-2.62,11.66h20.54a10.64,10.64,0,0,1,1.17-4.81,10.4,10.4,0,0,1,2.91-3.64,12.08,12.08,0,0,1,4.52-2.33,15.06,15.06,0,0,1,5.25-.88,16.11,16.11,0,0,1,6.26,1,11.45,11.45,0,0,1,4.38,2.77,10.48,10.48,0,0,1,2.62,4.23,15.28,15.28,0,0,1,.87,5.24,14.31,14.31,0,0,1-3.79,10.35c-2.62,2.62-6.41,3.93-11.65,3.93H535.87ZM669.56,88.46H625l18.21-19.24c3.5-3.64,6.71-7,9.48-10.35a70.32,70.32,0,0,0,7.28-9.76,47.4,47.4,0,0,0,4.52-9.62,29.31,29.31,0,0,0,1.75-10A34,34,0,0,0,664,17.05a24.6,24.6,0,0,0-6.56-9.18A29.13,29.13,0,0,0,647,2,48.86,48.86,0,0,0,632.4,0a38.16,38.16,0,0,0-15,2.77,33.11,33.11,0,0,0-11.22,7.29,32,32,0,0,0-7.29,10.78,37,37,0,0,0-2.47,13.26H617.1a20.83,20.83,0,0,1,1-7,16.33,16.33,0,0,1,2.77-5.53,13.13,13.13,0,0,1,4.81-3.65,14.39,14.39,0,0,1,6.41-1.31c4.22,0,7.58,1.31,9.91,3.94s3.49,6.26,3.49,10.93a13.55,13.55,0,0,1-.72,4.66,25.66,25.66,0,0,1-2.19,5.25,42.9,42.9,0,0,1-4.23,6.26A82.74,82.74,0,0,1,632,55.23l-33.51,35.7v14.14h71.11Z"></path><line class="cls-3" x1="773.91" y1="537.32" x2="773.91" y2="998.9"></line><path d="M962.45,772.39v41.55l-24.09-22.11c-11.18-10.48-21-15.6-29.11-15.6q-9.94,0-16.06,6.63c-4.07,4.54-6.05,10.6-6.05,18.28,0,8.26,2.33,14.78,7.1,19.67s10.82,7.45,18.39,7.45V817.67c-5.24,0-9.43-1.4-12.45-4.31s-4.43-7-4.43-12.22a13.87,13.87,0,0,1,4.19-10.48,14.83,14.83,0,0,1,10.6-3.84,20.13,20.13,0,0,1,9.31,2.33A65,65,0,0,1,931.6,798l31.9,28.63h7.56V772.39Zm-69.14-54.63c-4.08,4.42-6.17,10.36-6.17,17.58s2.09,13.27,6.17,17.69,9.54,6.75,16.53,6.75a19.25,19.25,0,0,0,11-3.26,22.57,22.57,0,0,0,7.57-8.61A22,22,0,0,0,936.61,758a21.1,21.1,0,0,0,12.11,3.61c7.1,0,12.8-2.33,17.11-7.1s6.4-11.17,6.4-19.2c0-7.8-2.1-14.21-6.4-19.09s-9.9-7.22-17.11-7.22a20.28,20.28,0,0,0-12.11,3.84,23.05,23.05,0,0,0-8.15,10.24,22.45,22.45,0,0,0-7.57-8.84,19,19,0,0,0-11-3.26c-7,0-12.46,2.21-16.53,6.75Zm66.23,6c2.68,2.8,4.07,6.64,4.07,11.53s-1.39,8.84-4.07,11.64-6.4,4.19-11.06,4.19-8.5-1.4-11.41-4.31-4.3-6.64-4.3-11.41a16,16,0,0,1,4.42-11.52,15.26,15.26,0,0,1,11.29-4.42c4.66,0,8.38,1.51,11.06,4.3Zm-59.83,1.63a15.55,15.55,0,0,1,20.6-.12c2.56,2.45,3.84,5.83,3.84,10a13.68,13.68,0,0,1-3.84,10.12c-2.67,2.56-6,3.73-10.24,3.73q-6.63,0-10.48-3.84a13.42,13.42,0,0,1-3.84-10,13.16,13.16,0,0,1,4-9.9Z"></path><path class="cls-1" d="M427.32,520.75H641l53,446.69H654.24s-99.39-39.7-197.1,0l-24.29,20.38a26.66,26.66,0,0,1-34.26,0l-24.26-20.38c-97.74-39.7-197.1,0-197.1,0H137.47l53-446.69H427.32Z"></path><path class="cls-4" d="M427.32,520.75H641l53,446.69H654.24s-99.39-39.7-197.1,0l-24.29,20.38a26.66,26.66,0,0,1-34.26,0l-24.26-20.38c-97.74-39.7-197.1,0-197.1,0H137.47l53-446.69H427.32Z"></path></svg> 