<?xml version="1.0" encoding="UTF-8"?> <svg xmlns="http://www.w3.org/2000/svg" id="Livello_1" data-name="Livello 1" viewBox="0 0 1101.33 998.95"><defs><style>.cls-1{fill:#fff;}.cls-2{fill:#231f20;}.cls-3,.cls-4{fill:none;stroke-width:0.25px;}.cls-3{stroke:#000;}.cls-4{stroke:#231f20;}</style></defs><title>Club House wall 30</title><rect class="cls-1" width="1101.33" height="998.95"></rect><path class="cls-2" d="M288,1.31h-2.19L243,16.76V33.37l24.48-7.58v79.28H288Zm94.49.15H361.63L318.5,69.66l.87,13h42.56v22.44h20.54V82.63h11.66V66H382.47Zm-22,30.45,1.46-2.47V66h-23ZM474.93,44.3a67.28,67.28,0,0,0-2.63-20.11,35.87,35.87,0,0,0-7.14-13.7,26.86,26.86,0,0,0-11.07-7.87A37.22,37.22,0,0,0,439.81,0a37.78,37.78,0,0,0-14.29,2.62,26.41,26.41,0,0,0-10.92,7.87,35.88,35.88,0,0,0-7.15,13.7,67.63,67.63,0,0,0-2.62,20.11V62.22a67.3,67.3,0,0,0,2.62,20A38.62,38.62,0,0,0,414.6,96a26.62,26.62,0,0,0,11.07,7.87A37.73,37.73,0,0,0,440,106.53a37.15,37.15,0,0,0,14.28-2.63A26.65,26.65,0,0,0,465.31,96a38.77,38.77,0,0,0,7.14-13.84,72.62,72.62,0,0,0,2.48-20ZM454.38,65a53.12,53.12,0,0,1-1,11.66,22.52,22.52,0,0,1-2.77,7.73,10.4,10.4,0,0,1-4.52,4.22,15,15,0,0,1-12.24,0,10.4,10.4,0,0,1-4.52-4.22,22.64,22.64,0,0,1-2.91-7.73A65.73,65.73,0,0,1,425.52,65V41.24a64,64,0,0,1,.88-11.51,21.55,21.55,0,0,1,2.77-7.58,12.48,12.48,0,0,1,4.52-4.23,14.37,14.37,0,0,1,6.12-1.16,13.58,13.58,0,0,1,6.12,1.16,11.81,11.81,0,0,1,4.66,4.23,21.55,21.55,0,0,1,2.77,7.58,51.73,51.73,0,0,1,1,11.51ZM559.8,88.46H515.21l18.21-19.24c3.5-3.64,6.71-7,9.48-10.35a70.32,70.32,0,0,0,7.28-9.76,47.4,47.4,0,0,0,4.52-9.62,29.07,29.07,0,0,0,1.75-10,34,34,0,0,0-2.19-12.39,24.6,24.6,0,0,0-6.56-9.18A29.13,29.13,0,0,0,537.21,2a48.86,48.86,0,0,0-14.57-2,38.16,38.16,0,0,0-15,2.77,33.11,33.11,0,0,0-11.22,7.29,32,32,0,0,0-7.29,10.78,37,37,0,0,0-2.47,13.26h20.69a20.83,20.83,0,0,1,1-7,16.33,16.33,0,0,1,2.77-5.53,13.13,13.13,0,0,1,4.81-3.65,14.42,14.42,0,0,1,6.41-1.31c4.22,0,7.58,1.31,9.91,3.94s3.5,6.26,3.5,10.93a13.57,13.57,0,0,1-.73,4.66,25.66,25.66,0,0,1-2.19,5.25,42.9,42.9,0,0,1-4.23,6.26,82.74,82.74,0,0,1-6.41,7.58l-33.51,35.7v14.14H559.8Zm53.4-36H573.12V68.93H613.2Zm36.52,7.72h10.93a27.54,27.54,0,0,1,7.14.88,20.76,20.76,0,0,1,5.39,2.77,14.09,14.09,0,0,1,3.35,4.81,20.89,20.89,0,0,1,1.17,7.14,15.39,15.39,0,0,1-1.17,5.83A10,10,0,0,1,673.47,86a11.17,11.17,0,0,1-5,2.91,18.23,18.23,0,0,1-6.56,1,16.1,16.1,0,0,1-6-1,12.92,12.92,0,0,1-4.8-2.77A12.25,12.25,0,0,1,648,82a12.7,12.7,0,0,1-1.17-5.39H626.26a27,27,0,0,0,3.06,13.26,27.63,27.63,0,0,0,8,9.33,35.14,35.14,0,0,0,11.22,5.54,49.09,49.09,0,0,0,13,1.75,51.76,51.76,0,0,0,14.57-2,34.15,34.15,0,0,0,11.66-6A27.37,27.37,0,0,0,695.48,89a30.94,30.94,0,0,0,2.76-13,25.53,25.53,0,0,0-4.37-14.87c-2.77-4.08-7.14-7.28-13-9.32a34.67,34.67,0,0,0,6.71-4.23,33.94,33.94,0,0,0,4.95-5.24,27.75,27.75,0,0,0,3.06-6.27,25.74,25.74,0,0,0,1-6.56A30.06,30.06,0,0,0,694,16.76a26.14,26.14,0,0,0-7.14-9.18A33.28,33.28,0,0,0,675.8,1.89,54.82,54.82,0,0,0,661.52,0a43.62,43.62,0,0,0-13.26,2,36.15,36.15,0,0,0-10.78,5.68,29,29,0,0,0-7.29,8.89,25.83,25.83,0,0,0-2.62,11.66h20.54a10.64,10.64,0,0,1,1.17-4.81,10.31,10.31,0,0,1,2.92-3.64,12,12,0,0,1,4.51-2.33,15.1,15.1,0,0,1,5.25-.88,16.13,16.13,0,0,1,6.27,1,11.48,11.48,0,0,1,4.37,2.77,10.48,10.48,0,0,1,2.62,4.23,15.28,15.28,0,0,1,.87,5.24,14.35,14.35,0,0,1-3.78,10.35c-2.63,2.62-6.42,3.93-11.66,3.93H649.72ZM782.1,44.3a67.63,67.63,0,0,0-2.62-20.11,36,36,0,0,0-7.14-13.7,26.83,26.83,0,0,0-11.08-7.87A37.19,37.19,0,0,0,747,0,37.69,37.69,0,0,0,732.7,2.62a26.37,26.37,0,0,0-10.93,7.87,35.87,35.87,0,0,0-7.14,13.7A67.31,67.31,0,0,0,712,44.3V62.22a67,67,0,0,0,2.62,20A38.77,38.77,0,0,0,721.77,96a26.68,26.68,0,0,0,11.07,7.87,37.79,37.79,0,0,0,14.29,2.63,37.22,37.22,0,0,0,14.28-2.63A26.68,26.68,0,0,0,772.48,96a38.77,38.77,0,0,0,7.14-13.84,72.62,72.62,0,0,0,2.48-20ZM761.55,65a53.12,53.12,0,0,1-1,11.66,22.52,22.52,0,0,1-2.77,7.73,10.38,10.38,0,0,1-4.51,4.22,15,15,0,0,1-12.25,0,10.38,10.38,0,0,1-4.51-4.22,22.63,22.63,0,0,1-2.92-7.73A65.84,65.84,0,0,1,732.7,65V41.24a64.1,64.1,0,0,1,.87-11.51,22,22,0,0,1,2.77-7.58,12.48,12.48,0,0,1,4.52-4.23A14.37,14.37,0,0,1,747,16.76a13.58,13.58,0,0,1,6.12,1.16,11.81,11.81,0,0,1,4.66,4.23,21.55,21.55,0,0,1,2.77,7.58,51.73,51.73,0,0,1,1,11.51Z"></path><line class="cls-3" x1="815.14" y1="459.87" x2="815.14" y2="974.03"></line><path d="M986.06,721.23v41.56L962,740.67c-11.17-10.48-21-15.6-29.1-15.6q-9.95,0-16.06,6.64c-4.08,4.54-6,10.59-6,18.27,0,8.27,2.32,14.79,7.1,19.67s10.82,7.45,18.39,7.45V766.51c-5.24,0-9.43-1.4-12.46-4.31s-4.42-7-4.42-12.22a13.85,13.85,0,0,1,4.19-10.47,14.78,14.78,0,0,1,10.59-3.84,20.09,20.09,0,0,1,9.31,2.32,64.61,64.61,0,0,1,11.76,8.85l31.9,28.63h7.56V721.23Zm-74.15-64.64v55.88h8.61v-44.7l74.15,34.1V690.81l-76.82-34.22Z"></path><path class="cls-1" d="M702.24,712.54c7.28,56.27-36.41,87.12-36.41,87.12-60.1,34.49-29.14,128.87-29.14,128.87s-49.17-63.53-107.44,0c0,0-40.07,47.11-142,45.36h25.5c-102,1.75-142-45.36-142-45.36-58.27-63.53-107.44,0-107.44,0s31-94.38-29.13-128.87c0,0-43.7-30.85-36.42-87.12v13.59C90.42,669.86,134.12,639,134.12,639c60.09-34.47,29.13-128.85,29.13-128.85s49.17,63.53,107.44,0c0,0,40.05-47.11,142-45.36h-25.5c102-1.75,142,45.36,142,45.36,58.27,63.53,107.44,0,107.44,0s-31,94.38,29.14,128.85c0,0,43.69,30.87,36.41,87.14"></path><path class="cls-4" d="M702.24,712.54c7.28,56.27-36.41,87.12-36.41,87.12-60.1,34.49-29.14,128.87-29.14,128.87s-49.17-63.53-107.44,0c0,0-40.07,47.11-142,45.36h25.5c-102,1.75-142-45.36-142-45.36-58.27-63.53-107.44,0-107.44,0s31-94.38-29.13-128.87c0,0-43.7-30.85-36.42-87.12v13.59C90.42,669.86,134.12,639,134.12,639c60.09-34.47,29.13-128.85,29.13-128.85s49.17,63.53,107.44,0c0,0,40.05-47.11,142-45.36h-25.5c102-1.75,142,45.36,142,45.36,58.27,63.53,107.44,0,107.44,0s-31,94.38,29.14,128.85c0,0,43.69,30.87,36.41,87.14"></path></svg> 