<?xml version="1.0" encoding="UTF-8"?> <svg xmlns="http://www.w3.org/2000/svg" id="Livello_1" data-name="Livello 1" viewBox="0 0 804 1000"><defs><style>.cls-1{fill:#fff;}.cls-2{fill:#231f20;}.cls-3,.cls-4{fill:none;stroke-width:0.25px;}.cls-3{stroke:#000;}.cls-4{stroke:#231f20;}</style></defs><title>Elisabeth tavolo grande</title><rect class="cls-1" width="804" height="1000"></rect><path class="cls-2" d="M189,.67h-1.11L166.06,8.55V17l12.49-3.87V53.63H189Zm53.14.07H204.84V9.22H231.1L210.64,53.63h11.08l20.46-47ZM274.34.67h-1.12L251.36,8.55V17l12.49-3.87V53.63h10.49ZM317,.67h-1.12L294,8.55V17l12.49-3.87V53.63H317Zm38,26.11H334.57v8.4H355Zm43.55-4.17a34.05,34.05,0,0,0-1.34-10.26,18.16,18.16,0,0,0-3.64-7,13.7,13.7,0,0,0-5.65-4A19.05,19.05,0,0,0,380.66,0a19.31,19.31,0,0,0-7.29,1.34,13.42,13.42,0,0,0-5.58,4,18.3,18.3,0,0,0-3.64,7,34.05,34.05,0,0,0-1.34,10.26v9.15A34,34,0,0,0,364.15,42,19.75,19.75,0,0,0,367.79,49a13.7,13.7,0,0,0,5.65,4,19.38,19.38,0,0,0,7.29,1.34A19,19,0,0,0,388,53a13.63,13.63,0,0,0,5.65-4A19.6,19.6,0,0,0,397.32,42a37,37,0,0,0,1.26-10.19ZM388.1,33.17a27.27,27.27,0,0,1-.52,5.95,11.39,11.39,0,0,1-1.42,3.94,5.27,5.27,0,0,1-2.3,2.16,6.9,6.9,0,0,1-3.13.67,6.83,6.83,0,0,1-3.12-.67,5.35,5.35,0,0,1-2.31-2.16,11.35,11.35,0,0,1-1.48-3.94,33.16,33.16,0,0,1-.45-5.95V21.05a32.32,32.32,0,0,1,.45-5.88,10.8,10.8,0,0,1,1.41-3.86,6.22,6.22,0,0,1,2.31-2.16,7.21,7.21,0,0,1,3.12-.6,6.83,6.83,0,0,1,3.12.6,5.9,5.9,0,0,1,2.38,2.16,11,11,0,0,1,1.42,3.86,26.59,26.59,0,0,1,.52,5.88Zm28.22-2.45h5.58a14.35,14.35,0,0,1,3.64.44,10.82,10.82,0,0,1,2.75,1.42A7.06,7.06,0,0,1,430,35a10.72,10.72,0,0,1,.6,3.65,7.87,7.87,0,0,1-.6,3,5.1,5.1,0,0,1-1.56,2.23,5.76,5.76,0,0,1-2.53,1.49,9.36,9.36,0,0,1-3.35.52,8.2,8.2,0,0,1-3-.52A6.76,6.76,0,0,1,417.06,44a6.08,6.08,0,0,1-2.23-4.84H404.34a13.8,13.8,0,0,0,1.56,6.77,14.1,14.1,0,0,0,4.1,4.76,18,18,0,0,0,5.72,2.83,25.15,25.15,0,0,0,6.62.89,26.43,26.43,0,0,0,7.44-1,17.37,17.37,0,0,0,6-3,14,14,0,0,0,3.94-4.84,15.73,15.73,0,0,0,1.41-6.62,13,13,0,0,0-2.23-7.58,12.87,12.87,0,0,0-6.62-4.76,18.11,18.11,0,0,0,3.43-2.16,17.2,17.2,0,0,0,2.52-2.68,14.53,14.53,0,0,0,1.57-3.19,13.49,13.49,0,0,0,.52-3.35,15.43,15.43,0,0,0-1.34-6.55,13.14,13.14,0,0,0-3.65-4.68A16.78,16.78,0,0,0,429.63,1a27.65,27.65,0,0,0-7.29-1,22.27,22.27,0,0,0-6.77,1,18.46,18.46,0,0,0-5.5,2.9,14.76,14.76,0,0,0-3.72,4.54A13.2,13.2,0,0,0,405,14.43H415.5a5.51,5.51,0,0,1,.59-2.46,5.41,5.41,0,0,1,1.49-1.85,6,6,0,0,1,2.31-1.19,7.71,7.71,0,0,1,2.67-.45,8.26,8.26,0,0,1,3.2.52A5.72,5.72,0,0,1,428,10.41a5.25,5.25,0,0,1,1.34,2.16,7.73,7.73,0,0,1,.45,2.68,7.34,7.34,0,0,1-1.93,5.28c-1.34,1.34-3.28,2-6,2h-5.58Z"></path><path class="cls-2" d="M232.63,96.92h-4.38V152.7h4.38Zm41.19,55.78v-.45a14.48,14.48,0,0,1-.52-1.63c-.15-.6-.22-1.27-.37-1.94s-.15-1.34-.22-2.08a18.79,18.79,0,0,1-.08-2.08v-19a14.06,14.06,0,0,0-1-5.58,10.89,10.89,0,0,0-3-4,13,13,0,0,0-4.47-2.38,20.49,20.49,0,0,0-12,.15,17.17,17.17,0,0,0-4.76,2.6,12.23,12.23,0,0,0-3,3.72,8.56,8.56,0,0,0-1,4.24l4.31.08a6.55,6.55,0,0,1,.82-3.13,8.58,8.58,0,0,1,2.16-2.53A10,10,0,0,1,254,117a12.49,12.49,0,0,1,4.17-.67q5,0,7.59,2.45a8.58,8.58,0,0,1,2.6,6.62v4.46h-8a32.85,32.85,0,0,0-7.52.82,17.38,17.38,0,0,0-5.65,2.53,11,11,0,0,0-3.57,3.87,11.64,11.64,0,0,0-.3,9.59,10.32,10.32,0,0,0,2.53,3.57,12,12,0,0,0,4,2.38,16.64,16.64,0,0,0,5.21.82,19.42,19.42,0,0,0,4.31-.52,24.18,24.18,0,0,0,3.72-1.34,13.72,13.72,0,0,0,3-2,11.28,11.28,0,0,0,2.31-2.38c.07,1.05.15,2,.3,3.05a9.87,9.87,0,0,0,.59,2.46ZM251.88,149a8.72,8.72,0,0,1-2.82-1.64,6.32,6.32,0,0,1-1.71-2.45,6.68,6.68,0,0,1-.67-3,7.42,7.42,0,0,1,1-3.64,7.64,7.64,0,0,1,2.83-2.75,13.49,13.49,0,0,1,4.46-1.71,23.86,23.86,0,0,1,5.95-.6h7.44v8.63a13.63,13.63,0,0,1-1.93,3,15.45,15.45,0,0,1-2.83,2.45,14.74,14.74,0,0,1-3.65,1.64,16.44,16.44,0,0,1-4.38.59,11.08,11.08,0,0,1-3.65-.59Zm50.61-35.85a7.83,7.83,0,0,0-1.26-.3,13,13,0,0,0-1.64-.15,11.28,11.28,0,0,0-6.69,1.86,13.6,13.6,0,0,0-4.39,5.13l-.07-6.24H284.2V152.7h4.31v-27a18.26,18.26,0,0,1,1.49-3.57,10.22,10.22,0,0,1,2.3-2.75,9.39,9.39,0,0,1,3.13-1.86,11.28,11.28,0,0,1,4-.67,17.44,17.44,0,0,1,2.9.22Zm5,20.3a27.91,27.91,0,0,0,1,8.11,18.31,18.31,0,0,0,3,6.32,14.63,14.63,0,0,0,4.76,4.09,13.4,13.4,0,0,0,6.32,1.49,15.62,15.62,0,0,0,7.21-1.56,13.46,13.46,0,0,0,4.91-4.24v4.54a16.47,16.47,0,0,1-.74,5.28,10.07,10.07,0,0,1-2.31,3.87,9.09,9.09,0,0,1-3.64,2.52,14.14,14.14,0,0,1-4.91.82,12.74,12.74,0,0,1-5.87-1.34,16.89,16.89,0,0,1-5.14-4.31l-2.38,2.6a13.05,13.05,0,0,0,2.76,3,19.51,19.51,0,0,0,3.42,2.08,21.16,21.16,0,0,0,3.72,1.26,16.2,16.2,0,0,0,3.79.38,18,18,0,0,0,6.47-1.12,13.85,13.85,0,0,0,5-3.2,14.89,14.89,0,0,0,3.13-5.13,19.76,19.76,0,0,0,1.19-6.84v-38.6h-4.09l-.23,5.65a14.29,14.29,0,0,0-5-4.69,13.84,13.84,0,0,0-7.22-1.71,13.66,13.66,0,0,0-6.39,1.42,14.38,14.38,0,0,0-4.76,4,18.48,18.48,0,0,0-3,6.32,28.69,28.69,0,0,0-1,8.26Zm4.39-.74a28.89,28.89,0,0,1,.67-6.4,16.4,16.4,0,0,1,2.08-5.13,10,10,0,0,1,3.65-3.42,9.65,9.65,0,0,1,5.2-1.26,14.17,14.17,0,0,1,4.17.59,12.11,12.11,0,0,1,3.2,1.71,11.81,11.81,0,0,1,2.3,2.46,12.44,12.44,0,0,1,1.56,3v18.22a13.82,13.82,0,0,1-1.71,2.9,9.54,9.54,0,0,1-2.38,2.24,11.47,11.47,0,0,1-3.2,1.56,13.49,13.49,0,0,1-4,.52,10.05,10.05,0,0,1-5.13-1.27,10,10,0,0,1-3.65-3.42,16.21,16.21,0,0,1-2.08-5.13,28.39,28.39,0,0,1-.67-6.4Zm58.57,20.16a12.83,12.83,0,0,0,3.87-1.49,13,13,0,0,0,3-2.16,19.59,19.59,0,0,0,2.31-2.75l-2.76-2a12.87,12.87,0,0,1-4.83,4,13.73,13.73,0,0,1-6.17,1.26,12.41,12.41,0,0,1-5.51-1.19,13.34,13.34,0,0,1-4.24-3.34,15,15,0,0,1-2.75-4.91,18.43,18.43,0,0,1-1-6.1v-.82h28v-2.68a24.82,24.82,0,0,0-1-7.21,16.18,16.18,0,0,0-3-5.73,14.37,14.37,0,0,0-4.91-3.72,15.49,15.49,0,0,0-6.62-1.34,14.59,14.59,0,0,0-6.4,1.42,17.41,17.41,0,0,0-5.35,4,18.64,18.64,0,0,0-3.72,6.25,24.09,24.09,0,0,0-1.34,8.26v1.56a21.71,21.71,0,0,0,1.34,7.73A17.36,17.36,0,0,0,353,148a15.67,15.67,0,0,0,5.58,3.94,16.89,16.89,0,0,0,7.07,1.49,18.67,18.67,0,0,0,4.76-.59Zm-.75-35.41a11.94,11.94,0,0,1,3.5,2.83,13.17,13.17,0,0,1,2.08,4.09,17.15,17.15,0,0,1,.82,4.83v.45H352.48a20.3,20.3,0,0,1,1.42-5.43,13.7,13.7,0,0,1,2.6-4.16,13.13,13.13,0,0,1,3.72-2.76,11.91,11.91,0,0,1,4.61-.89,11,11,0,0,1,4.83,1Z"></path><path class="cls-3" d="M137,904.49H457.23M598.89,333.31v495"></path><path d="M659,590.69c.12,6.53,2.2,11.46,6.3,14.79s10,5,17.82,5h2.08a18.75,18.75,0,0,0,12-3.8,12,12,0,0,0,4.63-9.8,12.23,12.23,0,0,0-3.92-9.57c-2.61-2.38-6.06-3.56-10.45-3.56a15.12,15.12,0,0,0-10.05,3.32,11,11,0,0,0-3.86,8.8c0,3.86,1.25,6.89,3.81,9.09-4.34-.36-7.67-1.79-10.1-4.28a14.19,14.19,0,0,1-3.69-10v-1H659Zm21.8.47a10.79,10.79,0,0,1,7-2.08,10.57,10.57,0,0,1,6.95,2.08,6.78,6.78,0,0,1,2.68,5.71,7.07,7.07,0,0,1-3.15,5.82,13.63,13.63,0,0,1-8.38,2.38h-2a8.39,8.39,0,0,1-4.1-3.21,8.61,8.61,0,0,1-1.66-5.11,6.8,6.8,0,0,1,2.67-5.59Zm-4.51-40.3c-6.12.06-10.58,1.19-13.49,3.33s-4.4,5.47-4.4,10,1.49,8,4.52,10.1,7.66,3.21,13.84,3.21h7.19c5.94-.06,10.4-1.19,13.43-3.39s4.45-5.46,4.45-10-1.54-8-4.57-10.1-7.73-3.21-14-3.21Zm8.37,5.35c4.4.06,7.67.77,9.69,2a7.2,7.2,0,0,1-.18,11.94c-2.2,1.31-5.53,2-10.1,2h-8.62c-4.27-.06-7.48-.71-9.56-2a6.47,6.47,0,0,1-3.09-6,6.55,6.55,0,0,1,3.15-6.06c2.08-1.31,5.35-2,9.92-2Z"></path><path d="M288,957.17h-5.71L263.4,986.45v3.15h19.25v9.81H288V989.6h5.88v-4.39H288Zm-6,8.49.66-1.13v20.68H269.46Zm43.27,8.79c-.06-6.12-1.18-10.57-3.32-13.48s-5.47-4.4-10-4.4-8,1.49-10.1,4.52-3.21,7.66-3.21,13.84v7.19c.06,5.94,1.19,10.39,3.38,13.42s5.47,4.46,10,4.46,8-1.54,10.1-4.57,3.2-7.73,3.2-14Zm-5.34,8.38c-.06,4.4-.78,7.66-2,9.68a7.2,7.2,0,0,1-11.94-.17c-1.31-2.2-2-5.53-2-10.1v-8.62c.05-4.28.71-7.48,2-9.56a6.45,6.45,0,0,1,6-3.09,6.55,6.55,0,0,1,6.06,3.15c1.3,2.08,2,5.34,2,9.92Z"></path><rect class="cls-1" x="289.84" y="455.48" width="11.97" height="173.98"></rect><rect class="cls-4" x="289.84" y="455.48" width="11.97" height="173.98"></rect><rect class="cls-1" x="247.97" y="629.45" width="95.7" height="196.38"></rect><rect class="cls-4" x="247.97" y="629.45" width="95.7" height="196.38"></rect><path class="cls-1" d="M302.1,437.82c.13,2.25.2,4.51.19,6.8-.16,52-36.74,94-81.69,93.87s-81.26-42.4-81.1-94.39c0-1.94.07-3.88.17-5.8Z"></path><path class="cls-4" d="M302.1,437.82c.13,2.25.2,4.51.19,6.8-.16,52-36.74,94-81.69,93.87s-81.26-42.4-81.1-94.39c0-1.94.07-3.88.17-5.8l162.43-.48Z"></path><path class="cls-1" d="M454.63,435.67q.17-3.37.12-6.8c-.67-52-37.64-93.66-82.59-93.08S291.32,379,292,431c0,1.94.1,3.87.23,5.8Z"></path><path class="cls-4" d="M454.63,435.67q.17-3.37.12-6.8c-.67-52-37.64-93.66-82.59-93.08S291.32,379,292,431c0,1.94.1,3.87.23,5.8l162.42-1.11Z"></path></svg> 