<?xml version="1.0" encoding="UTF-8"?> <svg xmlns="http://www.w3.org/2000/svg" id="Livello_1" data-name="Livello 1" viewBox="0 0 804 1000"><defs><style>.cls-1{fill:#fff;}.cls-2{fill:#231f20;}.cls-3,.cls-4{fill:none;stroke-width:0.25px;}.cls-3{stroke:#000;}.cls-4{stroke:#231f20;stroke-miterlimit:10;}.cls-5{fill:#d9e25a;}</style></defs><title>Elisabeth sospensione grande</title><rect class="cls-1" width="804" height="1000"></rect><path class="cls-2" d="M212.7.68h-1.14l-22.29,8v8.65l12.74-4V54.68H212.7Zm54.18.08H228.81V9.4h26.77L234.73,54.68H246L266.88,6.75Zm32.8-.08h-1.14l-22.3,8v8.65l12.75-4V54.68h10.69Zm43.49,0H342l-22.3,8v8.65l12.74-4V54.68h10.7ZM382,27.3H361.1v8.57H382ZM427.05,46H403.84l9.48-10c1.82-1.89,3.49-3.64,4.93-5.38A36.35,36.35,0,0,0,422,25.56a24.57,24.57,0,0,0,2.35-5,15.11,15.11,0,0,0,.91-5.23,17.91,17.91,0,0,0-1.13-6.45,12.81,12.81,0,0,0-3.42-4.77,15.13,15.13,0,0,0-5.46-3A25.5,25.5,0,0,0,407.71,0a20,20,0,0,0-7.81,1.44,17.25,17.25,0,0,0-5.84,3.79,16.76,16.76,0,0,0-3.79,5.61A19.14,19.14,0,0,0,389,17.75h10.77a10.77,10.77,0,0,1,.53-3.64,8.52,8.52,0,0,1,1.44-2.89,6.77,6.77,0,0,1,2.5-1.89,7.43,7.43,0,0,1,3.34-.68,6.57,6.57,0,0,1,5.15,2,8.24,8.24,0,0,1,1.82,5.69,6.91,6.91,0,0,1-.38,2.43A12.9,12.9,0,0,1,413,21.54a22.81,22.81,0,0,1-2.2,3.26,43.82,43.82,0,0,1-3.34,3.94L390,47.32v7.36h37Zm17.4-14.71h5.68a14,14,0,0,1,3.72.46,11,11,0,0,1,2.81,1.44,7.38,7.38,0,0,1,1.74,2.5,10.89,10.89,0,0,1,.61,3.72,8,8,0,0,1-.61,3,5.13,5.13,0,0,1-1.59,2.27,5.74,5.74,0,0,1-2.58,1.52,9.47,9.47,0,0,1-3.41.53,8.33,8.33,0,0,1-3.11-.53,6.75,6.75,0,0,1-2.51-1.44,6.57,6.57,0,0,1-1.66-2.12,6.66,6.66,0,0,1-.61-2.81H432.24a14,14,0,0,0,1.59,6.9A14.43,14.43,0,0,0,438,51.65a18.22,18.22,0,0,0,5.84,2.88,25.66,25.66,0,0,0,6.75.91,27,27,0,0,0,7.58-1.06,17.88,17.88,0,0,0,6.07-3.11,14.28,14.28,0,0,0,4-4.93,16,16,0,0,0,1.44-6.75,13.34,13.34,0,0,0-2.27-7.74A13.21,13.21,0,0,0,460.68,27a18.35,18.35,0,0,0,3.48-2.2,17.91,17.91,0,0,0,2.58-2.73,14.08,14.08,0,0,0,1.6-3.26,13.51,13.51,0,0,0,.53-3.41,15.67,15.67,0,0,0-1.37-6.68,13.65,13.65,0,0,0-3.71-4.78A17.29,17.29,0,0,0,458,1a28.23,28.23,0,0,0-7.43-1,22.71,22.71,0,0,0-6.9,1.06,18.73,18.73,0,0,0-5.61,3,15,15,0,0,0-3.8,4.63,13.42,13.42,0,0,0-1.36,6.06h10.69a5.53,5.53,0,0,1,.61-2.5,5.44,5.44,0,0,1,1.52-1.9,6.33,6.33,0,0,1,2.35-1.21,8,8,0,0,1,2.73-.45,8.38,8.38,0,0,1,3.26.53,5.71,5.71,0,0,1,2.27,1.44,5.42,5.42,0,0,1,1.37,2.2,8,8,0,0,1,.45,2.73,7.45,7.45,0,0,1-2,5.38c-1.36,1.37-3.34,2.05-6.07,2.05h-5.68Z"></path><path class="cls-2" d="M257.15,98.82h-4.48V155.7h4.48Zm42,56.88v-.46a14.16,14.16,0,0,1-.54-1.66c-.15-.61-.22-1.29-.37-2s-.16-1.36-.23-2.12a19.5,19.5,0,0,1-.08-2.12V127.94a14.44,14.44,0,0,0-1.06-5.69,11.17,11.17,0,0,0-3-4.09,13.17,13.17,0,0,0-4.55-2.43,18.84,18.84,0,0,0-5.92-.83,18.61,18.61,0,0,0-6.29,1,17.75,17.75,0,0,0-4.86,2.66,12.43,12.43,0,0,0-3.11,3.79,8.8,8.8,0,0,0-1.06,4.32l4.4.08a6.68,6.68,0,0,1,.83-3.19,8.77,8.77,0,0,1,2.2-2.57,10.11,10.11,0,0,1,3.42-1.67,12.65,12.65,0,0,1,4.24-.69c3.42,0,6,.84,7.74,2.51a8.73,8.73,0,0,1,2.65,6.75v4.55h-8.19a33.47,33.47,0,0,0-7.66.83,17.54,17.54,0,0,0-5.76,2.58,10.48,10.48,0,0,0-4.85,9.25,11,11,0,0,0,.91,4.48,10.53,10.53,0,0,0,2.57,3.64,12.2,12.2,0,0,0,4.1,2.42,16.94,16.94,0,0,0,5.31.84,20.24,20.24,0,0,0,4.4-.53,25.1,25.1,0,0,0,3.79-1.37,13.67,13.67,0,0,0,3-2.05,11.42,11.42,0,0,0,2.35-2.42c.08,1.06.16,2,.31,3.11a10.19,10.19,0,0,0,.6,2.5Zm-22.38-3.79a9.19,9.19,0,0,1-2.88-1.67,6.49,6.49,0,0,1-1.74-2.5,6.81,6.81,0,0,1-.69-3,7.49,7.49,0,0,1,1-3.71,7.86,7.86,0,0,1,2.88-2.81,13.94,13.94,0,0,1,4.55-1.74,24.3,24.3,0,0,1,6.07-.61h7.58v8.8a13.48,13.48,0,0,1-2,3.11,15.37,15.37,0,0,1-2.88,2.5,15.13,15.13,0,0,1-3.72,1.67,16.71,16.71,0,0,1-4.47.6,11.2,11.2,0,0,1-3.72-.6Zm51.61-36.56a9.39,9.39,0,0,0-1.29-.3,11.78,11.78,0,0,0-1.67-.15,11.48,11.48,0,0,0-6.82,1.89,13.77,13.77,0,0,0-4.48,5.24l-.07-6.37h-4.33v40h4.4V128.17a19.26,19.26,0,0,1,1.52-3.64,10.48,10.48,0,0,1,2.35-2.81,9.59,9.59,0,0,1,3.18-1.89,11.53,11.53,0,0,1,4.1-.68,18.28,18.28,0,0,1,3,.22Zm5.06,20.71a28.26,28.26,0,0,0,1.06,8.26,18.77,18.77,0,0,0,3,6.45,15.07,15.07,0,0,0,4.85,4.17,13.68,13.68,0,0,0,6.45,1.52,16,16,0,0,0,7.36-1.59,14,14,0,0,0,5-4.33v4.63a16.77,16.77,0,0,1-.76,5.38,10.4,10.4,0,0,1-2.35,3.95,9.46,9.46,0,0,1-3.71,2.58,14.44,14.44,0,0,1-5,.83,13.13,13.13,0,0,1-6-1.37,17.22,17.22,0,0,1-5.23-4.39l-2.43,2.65a13.08,13.08,0,0,0,2.81,3A20,20,0,0,0,342,170a22.87,22.87,0,0,0,3.79,1.29,16.91,16.91,0,0,0,3.86.38,18.21,18.21,0,0,0,6.6-1.14,14.31,14.31,0,0,0,5.08-3.26,15.11,15.11,0,0,0,3.19-5.24,20,20,0,0,0,1.21-7V115.66h-4.17l-.23,5.76a14.49,14.49,0,0,0-5.08-4.78,16,16,0,0,0-13.88-.3,14.94,14.94,0,0,0-4.85,4.09,18.86,18.86,0,0,0-3,6.45,29,29,0,0,0-1.06,8.42Zm4.47-.76a29.92,29.92,0,0,1,.68-6.52,16.57,16.57,0,0,1,2.13-5.24,10.21,10.21,0,0,1,3.71-3.48,9.85,9.85,0,0,1,5.31-1.29,14.39,14.39,0,0,1,4.25.6,12,12,0,0,1,3.26,1.75,12.27,12.27,0,0,1,2.35,2.5,13.14,13.14,0,0,1,1.59,3v18.58a14.12,14.12,0,0,1-1.74,3,9.91,9.91,0,0,1-2.43,2.28,11.9,11.9,0,0,1-3.26,1.59,13.72,13.72,0,0,1-4.1.53,10.33,10.33,0,0,1-8.94-4.78,16.51,16.51,0,0,1-2.13-5.23,29.46,29.46,0,0,1-.68-6.52Zm59.72,20.55a12.58,12.58,0,0,0,3.94-1.52,13,13,0,0,0,3-2.19,21.61,21.61,0,0,0,2.35-2.81l-2.81-2.05a13.13,13.13,0,0,1-4.93,4.1,13.94,13.94,0,0,1-6.29,1.29,12.55,12.55,0,0,1-5.61-1.22A13.51,13.51,0,0,1,383,148a15.35,15.35,0,0,1-2.8-5,18.54,18.54,0,0,1-1-6.21V136h28.59v-2.73a25.51,25.51,0,0,0-1.06-7.36,16.42,16.42,0,0,0-3-5.83,14.62,14.62,0,0,0-5-3.8,15.77,15.77,0,0,0-6.75-1.36,14.84,14.84,0,0,0-6.52,1.44,17.87,17.87,0,0,0-5.46,4.09,19.09,19.09,0,0,0-3.79,6.37,24.54,24.54,0,0,0-1.37,8.42v1.6a22,22,0,0,0,1.37,7.88,17.56,17.56,0,0,0,3.71,6.22,15.87,15.87,0,0,0,5.69,4,17.2,17.2,0,0,0,7.21,1.52,18.8,18.8,0,0,0,4.85-.61Zm-.76-36.1a12.39,12.39,0,0,1,3.57,2.88,13.8,13.8,0,0,1,2.12,4.17,17.56,17.56,0,0,1,.83,4.93v.46h-24a20.64,20.64,0,0,1,1.44-5.54,14,14,0,0,1,2.66-4.24,13,13,0,0,1,3.79-2.81,12,12,0,0,1,4.7-.91,11.25,11.25,0,0,1,4.93,1.06Z"></path><path class="cls-3" d="M85.54,902.63H588.92m61.46-599.48V822.52"></path><path d="M711.46,593.66v.85l5.87,15.69h5l-4.06-11h36.47v-5.51Zm17.81-43.09c-6.24.06-10.79,1.21-13.76,3.39S711,559.54,711,564.2s1.52,8.12,4.61,10.3,7.81,3.27,14.11,3.27h7.33c6.06-.06,10.6-1.21,13.69-3.45s4.54-5.58,4.54-10.18-1.57-8.12-4.66-10.3-7.88-3.27-14.3-3.27Zm8.54,5.45c4.48.06,7.81.79,9.87,2.06a7.35,7.35,0,0,1-.18,12.18c-2.24,1.33-5.63,2.06-10.3,2.06h-8.78c-4.36-.06-7.64-.73-9.76-2a6.59,6.59,0,0,1-3.15-6.12,6.66,6.66,0,0,1,3.22-6.18c2.12-1.33,5.45-2,10.11-2Zm-8.54-39.51c-6.24.06-10.79,1.21-13.76,3.39S711,525.47,711,530.14s1.52,8.12,4.61,10.3,7.81,3.27,14.11,3.27h7.33c6.06-.06,10.6-1.21,13.69-3.46s4.54-5.57,4.54-10.17-1.57-8.12-4.66-10.3-7.88-3.27-14.3-3.27Zm8.54,5.45c4.48.06,7.81.79,9.87,2.06a7.35,7.35,0,0,1-.18,12.18c-2.24,1.33-5.63,2.06-10.3,2.06h-8.78c-4.36-.07-7.64-.73-9.76-2a7.53,7.53,0,0,1,.07-12.3c2.12-1.33,5.45-2,10.11-2Z"></path><path d="M305.81,956.14H305L289.27,962v5l11-4.05v36.46h5.52Zm34.06,0H339L323.33,962v5l11-4.05v36.46h5.51ZM383,974c-.06-6.24-1.21-10.78-3.39-13.75s-5.58-4.48-10.24-4.48-8.12,1.51-10.3,4.6-3.27,7.82-3.27,14.12v7.33c.06,6.05,1.21,10.6,3.45,13.69s5.58,4.54,10.18,4.54,8.12-1.58,10.3-4.66S383,987.46,383,981Zm-5.45,8.54c-.06,4.49-.79,7.82-2.06,9.88a7.35,7.35,0,0,1-12.18-.18c-1.33-2.25-2.06-5.64-2.06-10.3V973.1c.06-4.36.73-7.63,2-9.75a6.59,6.59,0,0,1,6.12-3.15,6.67,6.67,0,0,1,6.18,3.21c1.33,2.12,2,5.45,2,10.12Z"></path><path class="cls-1" d="M440,651.89c.06-1.18.09-2.37.09-3.56l-.32-10c0-33.21-22.36-60.13-52.32-60.13-23.27,0-43.13,16.26-50.83,39.08,0,0-3.43,9.09-2.46,25.9"></path><path class="cls-4" d="M440,651.89c.06-1.18.09-2.37.09-3.56l-.32-10c0-33.21-22.36-60.13-52.32-60.13-23.27,0-43.13,16.26-50.83,39.08,0,0-3.43,9.09-2.46,25.9"></path><path class="cls-1" d="M439.44,658.68c-3.68,28.91-25.36,48.81-52.64,48.81-15.35,0-30.39-8.14-40.26-19.5V659Z"></path><path class="cls-4" d="M439.44,658.68c-3.68,28.91-25.36,48.81-52.64,48.81-15.35,0-30.39-8.14-40.26-19.5V659l92.9-.32Z"></path><path class="cls-1" d="M334.48,626.57h-8v17l-.21,40.84-.22,80h20.67L346.54,659l92-.32,43.26.85s49.77-1.18,46.08,44.08V766h5.93V703.61C537.69,652.53,487,653.5,487,653.5l-44.93-1H346.43v-8.72"></path><path class="cls-4" d="M334.48,626.57h-8v17l-.21,40.84-.22,80h20.67L346.54,659l92-.32,43.26.85s49.77-1.18,46.08,44.08V766h5.93V703.61C537.69,652.53,487,653.5,487,653.5l-44.93-1H346.43v-8.72"></path><path class="cls-1" d="M534.69,706.59c28.78,1.47,51.7,27.8,51.7,60.06v5.81c0,33.21-24.3,60.13-54.26,60.13s-54.26-26.92-54.26-60.13v-5.81c0-31.64,22.05-57.57,50-59.95"></path><path class="cls-4" d="M534.69,706.59c28.78,1.47,51.7,27.8,51.7,60.06v5.81c0,33.21-24.3,60.13-54.26,60.13s-54.26-26.92-54.26-60.13v-5.81c0-31.64,22.05-57.57,50-59.95m-50,59.95H586.39"></path><rect class="cls-1" x="334.04" y="337.36" width="5.18" height="288.17"></rect><path class="cls-4" d="M334.05,625.53h5.19V337.35h-5.19Zm2.56-8.27s-3.43,9.09-2.46,25.9"></path><path class="cls-1" d="M234.68,659l-43.85.86s-49.77.33-46,45.59h-6.67c-3.87-51.09,47.48-51.62,47.48-51.62l48.11-.76Z"></path><path class="cls-4" d="M234.68,659l-43.85.86s-49.77.33-46,45.59h-6.67c-3.87-51.09,47.48-51.62,47.48-51.62l48.11-.76,1,5.93Z"></path><path class="cls-1" d="M367.42,305.67c0,17.5-13.88,31.68-31,31.68s-31-14.18-31-31.68Z"></path><path class="cls-4" d="M367.42,305.67c0,17.5-13.88,31.68-31,31.68s-31-14.18-31-31.68Z"></path><path class="cls-1" d="M194,765.35c0-33.2-22.68-59.8-52.64-59.8s-53.29,27.57-53.29,60.77v5.5c0,33.2,22.68,59.8,52.64,59.8s53-26.27,53-59.48Z"></path><path class="cls-4" d="M194,765.35c0-33.2-22.68-59.8-52.64-59.8s-53.29,27.57-53.29,60.77v5.5c0,33.2,22.68,59.8,52.64,59.8s53-26.27,53-59.48l.32-6.79ZM87.41,768.91H194M334,755c0,2,1.22,3.71,2.7,3.71s2.69-1.66,2.69-3.71l-.1-.31V644m-5.18,24.35V755"></path><path class="cls-1" d="M336.61,617.26c-8.24-21.59-28.1-37.78-50.57-37.78-30,0-52,27.56-52,60.77l-.32,7.11c0,33.21,23,60.13,53,60.13s51.23-30.37,51.23-63.57"></path><path class="cls-4" d="M336.61,617.26c-8.24-21.59-28.1-37.78-50.57-37.78-30,0-52,27.56-52,60.77l-.32,7.11c0,33.21,23,60.13,53,60.13s51.23-30.37,51.23-63.57"></path><rect class="cls-1" x="327.34" y="626.57" width="7.96" height="17.02"></rect><path class="cls-4" d="M327.34,643.59h8v-17h-8Zm-93.41,0,102.81.22h102.7"></path><path class="cls-1" d="M387.44,578.18c-23.27,0-43.13,16.26-50.83,39.08,0,0-3.43,9.73-2.46,26.54h13.51"></path><path class="cls-4" d="M387.44,578.18c-23.27,0-43.13,16.26-50.83,39.08,0,0-3.43,9.73-2.46,26.54h13.51"></path><path class="cls-5" d="M440,651.89c.06-1.18.09-2.37.09-3.56l-.32-10"></path><path class="cls-4" d="M440,651.89c.06-1.18.09-2.37.09-3.56l-.32-10"></path></svg> 