<?xml version="1.0" encoding="UTF-8"?> <svg xmlns="http://www.w3.org/2000/svg" id="Livello_1" data-name="Livello 1" viewBox="0 0 804 1000"><defs><style>.cls-1{fill:#fff;}.cls-2{fill:#231f20;}.cls-3,.cls-4{fill:none;stroke-width:0.25px;}.cls-3{stroke:#000;}.cls-4{stroke:#231f20;}</style></defs><title>Elisabeth tavolo piccola</title><rect class="cls-1" width="804" height="1000"></rect><path class="cls-2" d="M189.65.67h-1.12L166.67,8.55V17l12.49-3.87V53.63h10.49Zm53.14.07H205.45V9.22H231.7L211.25,53.63h11.08l20.46-47ZM275,.67h-1.12L252,8.55V17l12.49-3.87V53.63H275Zm42.65,0h-1.12L294.62,8.55V17l12.49-3.87V53.63H317.6Zm38,26.11H335.18v8.4h20.46Zm43.55-4.17a34.37,34.37,0,0,0-1.34-10.26,18.3,18.3,0,0,0-3.64-7,13.7,13.7,0,0,0-5.65-4A19.09,19.09,0,0,0,381.27,0,19.31,19.31,0,0,0,374,1.34a13.42,13.42,0,0,0-5.58,4,18.31,18.31,0,0,0-3.65,7,34.4,34.4,0,0,0-1.33,10.26v9.15A34.32,34.32,0,0,0,364.75,42,19.92,19.92,0,0,0,368.4,49a13.63,13.63,0,0,0,5.65,4,19.31,19.31,0,0,0,7.29,1.34A19.05,19.05,0,0,0,388.63,53a13.63,13.63,0,0,0,5.65-4A19.92,19.92,0,0,0,397.93,42a37.36,37.36,0,0,0,1.26-10.19ZM388.7,33.17a26.66,26.66,0,0,1-.52,5.95,11.2,11.2,0,0,1-1.41,3.94,5.24,5.24,0,0,1-2.31,2.16,7.6,7.6,0,0,1-6.24,0,5.29,5.29,0,0,1-2.31-2.16,11.55,11.55,0,0,1-1.49-3.94,34.22,34.22,0,0,1-.44-5.95V21.05a33.36,33.36,0,0,1,.44-5.88,11,11,0,0,1,1.42-3.86,6.27,6.27,0,0,1,2.3-2.16,7.29,7.29,0,0,1,3.13-.6,6.83,6.83,0,0,1,3.12.6,5.9,5.9,0,0,1,2.38,2.16,10.8,10.8,0,0,1,1.41,3.86,26,26,0,0,1,.52,5.88Zm43-32.5h-1.12L408.74,8.55V17l12.5-3.87V53.63h10.49Z"></path><path class="cls-2" d="M243.13,145.33a7,7,0,0,1-1.93,2.31,13.82,13.82,0,0,1-3.2,1.56,15.83,15.83,0,0,1-4.39.52,16.08,16.08,0,0,1-3.72-.37A11.06,11.06,0,0,1,226.4,148a7.46,7.46,0,0,1-2.61-2.45,7.73,7.73,0,0,1-1.19-3.87h-4.38a10,10,0,0,0,1,4.39,11,11,0,0,0,3,3.79,14.39,14.39,0,0,0,4.76,2.6,22.43,22.43,0,0,0,6.62,1,21.55,21.55,0,0,0,6-.82,12.89,12.89,0,0,0,4.53-2.23,10.81,10.81,0,0,0,3-3.42,9.82,9.82,0,0,0,1-4.46,9.36,9.36,0,0,0-.82-4.17,8.44,8.44,0,0,0-2.46-3.2,18.31,18.31,0,0,0-4.31-2.45,40.44,40.44,0,0,0-6.1-1.78,42.69,42.69,0,0,1-5.36-1.57,11.21,11.21,0,0,1-3.19-1.71,3.94,3.94,0,0,1-1.57-2,6.27,6.27,0,0,1-.44-2.38,6,6,0,0,1,.59-2.45,5.84,5.84,0,0,1,1.64-2.23,9.78,9.78,0,0,1,3-1.56,12.28,12.28,0,0,1,4.32-.6,13,13,0,0,1,4.31.67,9.37,9.37,0,0,1,3.2,1.79,7.45,7.45,0,0,1,2,2.6,6.89,6.89,0,0,1,.67,3h4.31a10.89,10.89,0,0,0-1-4.68A11.54,11.54,0,0,0,244.1,116a14.37,14.37,0,0,0-4.61-2.45,20.78,20.78,0,0,0-11.83-.08,14.48,14.48,0,0,0-4.39,2.31,9.93,9.93,0,0,0-2.75,3.42,9,9,0,0,0-1,4.16,9.21,9.21,0,0,0,.9,4.17,8,8,0,0,0,2.67,3.05,15.93,15.93,0,0,0,4.32,2.23,47.63,47.63,0,0,0,5.8,1.56A30.77,30.77,0,0,1,238.6,136a10.55,10.55,0,0,1,3.19,2,6.67,6.67,0,0,1,1.57,2.23,7.24,7.24,0,0,1,.44,2.45,5.36,5.36,0,0,1-.67,2.6Zm14.47-31.9V152.7H262V125.77a19.46,19.46,0,0,1,1.41-3.49,15,15,0,0,1,2.31-3,12.56,12.56,0,0,1,3.34-2.08,11,11,0,0,1,4.32-.74,13.37,13.37,0,0,1,3.94.52,7.13,7.13,0,0,1,5,4.83,15.57,15.57,0,0,1,.67,4.91v26h4.39v-26a10.44,10.44,0,0,1,.89-3.5,14.21,14.21,0,0,1,2.23-3.27,12.69,12.69,0,0,1,3.57-2.46,10.69,10.69,0,0,1,4.76-1,15.72,15.72,0,0,1,3.87.44,6.63,6.63,0,0,1,3.05,1.71,7.93,7.93,0,0,1,2,3.28,16.66,16.66,0,0,1,.67,5.13V152.7h4.31V127.11a21,21,0,0,0-.82-6.54,10.77,10.77,0,0,0-2.53-4.47,9.37,9.37,0,0,0-4.09-2.6,17.36,17.36,0,0,0-5.43-.82,16.44,16.44,0,0,0-4.38.6,14.9,14.9,0,0,0-3.72,1.56,13.85,13.85,0,0,0-3.05,2.45,17.28,17.28,0,0,0-2.23,3,10.4,10.4,0,0,0-4.39-5.8,14.69,14.69,0,0,0-7.44-1.79,13.92,13.92,0,0,0-4,.52,13.18,13.18,0,0,0-3.49,1.42,10.68,10.68,0,0,0-2.9,2.23,15.34,15.34,0,0,0-2.31,3l-.15-6.39Zm95.51,39.27v-.45a12.68,12.68,0,0,1-.52-1.63c-.15-.6-.23-1.27-.38-1.94s-.14-1.34-.22-2.08-.07-1.41-.07-2.08v-19a14.24,14.24,0,0,0-1-5.58,11,11,0,0,0-3-4,12.82,12.82,0,0,0-4.46-2.38,20.53,20.53,0,0,0-12,.15,17.17,17.17,0,0,0-4.76,2.6,12.38,12.38,0,0,0-3.05,3.72,8.56,8.56,0,0,0-1,4.24l4.32.08a6.54,6.54,0,0,1,.81-3.13,8.73,8.73,0,0,1,2.16-2.53,10,10,0,0,1,3.35-1.63,12.43,12.43,0,0,1,4.16-.67q5,0,7.59,2.45a8.58,8.58,0,0,1,2.6,6.62v4.46h-8a32.7,32.7,0,0,0-7.51.82,17.38,17.38,0,0,0-5.65,2.53,10.31,10.31,0,0,0-4.76,9.07,10.67,10.67,0,0,0,.89,4.39,10.19,10.19,0,0,0,2.53,3.57,11.86,11.86,0,0,0,4,2.38,16.68,16.68,0,0,0,5.21.82,19.42,19.42,0,0,0,4.31-.52,23.81,23.81,0,0,0,3.72-1.34,13.79,13.79,0,0,0,3-2,11.23,11.23,0,0,0,2.3-2.38c.08,1.05.15,2,.3,3.05a9.84,9.84,0,0,0,.6,2.46ZM331.17,149a8.77,8.77,0,0,1-2.83-1.64,6.43,6.43,0,0,1-1.71-2.45,6.68,6.68,0,0,1-.67-3,7.32,7.32,0,0,1,1-3.64,7.68,7.68,0,0,1,2.82-2.75,13.46,13.46,0,0,1,4.47-1.71,23.81,23.81,0,0,1,5.95-.6h7.43v8.63a13.28,13.28,0,0,1-1.93,3,15.13,15.13,0,0,1-2.83,2.45A14.5,14.5,0,0,1,339.2,149a16.58,16.58,0,0,1-4.39.59,11,11,0,0,1-3.64-.59Zm37.22-52.06H364V152.7h4.39Zm16.64,0h-4.39V152.7H385Z"></path><path class="cls-3" d="M174.69,904.49H431M571.45,436.05v391"></path><path d="M631.54,637.29V643l29.29,18.89H664V642.64h9.8v-5.35H664v-5.88h-4.4v5.88Zm8.49,6-1.12-.65h20.67v13.19Zm-8.49-44v28.52h4.4V605l37.84,17.41v-5.64l-39.21-17.47Z"></path><path d="M281.29,980.1h4c2.85.06,5.05.71,6.54,2a7,7,0,0,1,2.25,5.64,7.76,7.76,0,0,1-2,5.82,9.65,9.65,0,0,1-11.82,0,6.82,6.82,0,0,1-2.14-5.28h-5.41a10.65,10.65,0,0,0,3.75,8.49,15.89,15.89,0,0,0,19.31-.12,11.53,11.53,0,0,0,3.74-9,10.38,10.38,0,0,0-1.9-6.24,10.69,10.69,0,0,0-5.41-3.62,10.86,10.86,0,0,0,4.87-3.86,9.3,9.3,0,0,0,1.79-5.35c0-3.8-1.13-6.71-3.39-8.85s-5.41-3.15-9.39-3.15a13.49,13.49,0,0,0-9.33,3.33,10.8,10.8,0,0,0-3.68,8.32h5.41a6.83,6.83,0,0,1,2-5.23,7.66,7.66,0,0,1,5.58-2c4.93,0,7.43,2.49,7.43,7.42a6.8,6.8,0,0,1-2.2,5.29,9,9,0,0,1-6,2h-4Zm52.12-5.65c-.06-6.12-1.19-10.57-3.33-13.48s-5.46-4.4-10-4.4-8,1.49-10.1,4.52-3.2,7.66-3.2,13.84v7.19c.06,5.94,1.18,10.39,3.38,13.42s5.47,4.46,10,4.46,8-1.54,10.1-4.57,3.21-7.73,3.21-14Zm-5.35,8.38c-.06,4.4-.77,7.66-2,9.68a7.2,7.2,0,0,1-11.94-.17c-1.3-2.2-2-5.53-2-10.1v-8.62c.06-4.28.72-7.48,2-9.56a7.39,7.39,0,0,1,12.06.06c1.31,2.08,2,5.34,2,9.92Z"></path><rect class="cls-1" x="297.05" y="529.8" width="9.55" height="139.06"></rect><rect class="cls-4" x="297.05" y="529.78" width="9.55" height="139.07"></rect><rect class="cls-1" x="263.66" y="668.85" width="76.32" height="156.98"></rect><rect class="cls-4" x="263.66" y="668.85" width="76.32" height="156.98"></rect><path class="cls-1" d="M306.82,515.66c.11,1.79.16,3.6.15,5.44-.12,41.55-29.29,75.15-65.13,75s-64.8-33.89-64.67-75.45c0-1.56.05-3.11.13-4.64Z"></path><path class="cls-4" d="M306.82,515.66c.11,1.79.16,3.6.15,5.44-.12,41.55-29.29,75.15-65.13,75s-64.8-33.89-64.67-75.45c0-1.56.05-3.11.13-4.64l129.52-.38Z"></path><path class="cls-1" d="M428.45,513.93c.09-1.79.12-3.6.1-5.44-.54-41.55-30-74.86-65.87-74.39s-64.45,34.53-63.93,76.09c0,1.55.08,3.1.18,4.63Z"></path><path class="cls-4" d="M428.45,513.93c.09-1.79.12-3.6.1-5.44-.54-41.55-30-74.86-65.87-74.39s-64.45,34.53-63.93,76.09c0,1.55.08,3.1.18,4.63l129.52-.89Z"></path></svg> 