<?xml version="1.0" encoding="UTF-8"?> <svg xmlns="http://www.w3.org/2000/svg" id="Livello_1" data-name="Livello 1" viewBox="0 0 804 1000"><defs><style>.cls-1{fill:#fff;}.cls-2{fill:#231f20;}.cls-3,.cls-4{fill:none;stroke-width:0.25px;}.cls-3{stroke:#000;}.cls-4{stroke:#231f20;}</style></defs><title>Elisabeth applique</title><rect class="cls-1" width="804" height="1000"></rect><path class="cls-2" d="M272.75.68h-1.14l-22.29,8v8.65l12.74-4V54.68h10.69Zm54.18.08H288.86V9.4h26.77L294.78,54.68h11.3L326.93,6.75Zm32.8-.08h-1.14l-22.3,8v8.65l12.75-4V54.68h10.69Zm43.49,0h-1.14l-22.3,8v8.65l12.74-4V54.68h10.7ZM442,27.3H421.15v8.57H442Zm19,4h5.69a14,14,0,0,1,3.71.46,11,11,0,0,1,2.81,1.44,7.24,7.24,0,0,1,1.74,2.5,10.89,10.89,0,0,1,.61,3.72,8,8,0,0,1-.61,3,5.13,5.13,0,0,1-1.59,2.27,5.74,5.74,0,0,1-2.58,1.52,9.43,9.43,0,0,1-3.41.53,8.33,8.33,0,0,1-3.11-.53,6.63,6.63,0,0,1-2.5-1.44,6.47,6.47,0,0,1-1.67-2.12,6.66,6.66,0,0,1-.61-2.81H448.8a14,14,0,0,0,1.59,6.9,14.43,14.43,0,0,0,4.17,4.86,18.22,18.22,0,0,0,5.84,2.88,25.72,25.72,0,0,0,6.75.91,27,27,0,0,0,7.58-1.06,17.79,17.79,0,0,0,6.07-3.11,14.16,14.16,0,0,0,4-4.93,16,16,0,0,0,1.44-6.75A13.34,13.34,0,0,0,484,31.85,13.17,13.17,0,0,0,477.24,27a18.75,18.75,0,0,0,3.49-2.2,17.84,17.84,0,0,0,2.57-2.73,14.08,14.08,0,0,0,1.6-3.26,13.51,13.51,0,0,0,.53-3.41,15.67,15.67,0,0,0-1.37-6.68,13.65,13.65,0,0,0-3.71-4.78A17.29,17.29,0,0,0,474.58,1a28.23,28.23,0,0,0-7.43-1,22.71,22.71,0,0,0-6.9,1.06,18.85,18.85,0,0,0-5.61,3,14.79,14.79,0,0,0-3.79,4.63,13.42,13.42,0,0,0-1.37,6.06h10.69a5.53,5.53,0,0,1,.61-2.5,5.44,5.44,0,0,1,1.52-1.9,6.33,6.33,0,0,1,2.35-1.21,8,8,0,0,1,2.73-.45,8.38,8.38,0,0,1,3.26.53,5.71,5.71,0,0,1,2.27,1.44,5.32,5.32,0,0,1,1.37,2.2,8,8,0,0,1,.45,2.73,7.45,7.45,0,0,1-2,5.38C471.4,22.3,469.43,23,466.7,23H461Zm68.89-8.27a35,35,0,0,0-1.36-10.46,18.82,18.82,0,0,0-3.72-7.13,13.8,13.8,0,0,0-5.76-4.09A19.36,19.36,0,0,0,511.63,0a19.67,19.67,0,0,0-7.44,1.37,13.65,13.65,0,0,0-5.69,4.09,18.67,18.67,0,0,0-3.71,7.13,35,35,0,0,0-1.37,10.46v9.33a34.84,34.84,0,0,0,1.37,10.39A20.25,20.25,0,0,0,498.5,50a14,14,0,0,0,5.77,4.09,19.62,19.62,0,0,0,7.43,1.37,19.36,19.36,0,0,0,7.43-1.37A14,14,0,0,0,524.9,50a20.25,20.25,0,0,0,3.71-7.21,37.49,37.49,0,0,0,1.29-10.39ZM519.21,33.82a27.69,27.69,0,0,1-.53,6.07,12.09,12.09,0,0,1-1.44,4,5.48,5.48,0,0,1-2.35,2.2,7.8,7.8,0,0,1-6.37,0,5.5,5.5,0,0,1-2.36-2.2,11.82,11.82,0,0,1-1.51-4,33.49,33.49,0,0,1-.46-6.07V21.46a32.55,32.55,0,0,1,.46-6,11.11,11.11,0,0,1,1.44-3.94,6.35,6.35,0,0,1,2.35-2.2,7.41,7.41,0,0,1,3.19-.61,7,7,0,0,1,3.18.61,6.06,6.06,0,0,1,2.43,2.2,11.51,11.51,0,0,1,1.44,3.94,26.92,26.92,0,0,1,.53,6Z"></path><path class="cls-3" d="M207.22,902.63H441.11M527.3,521.79V781.48"></path><path d="M612,662.4v-4.12c.06-2.91.73-5.15,2.06-6.66a7.1,7.1,0,0,1,5.76-2.31,8,8,0,0,1,5.93,2.06,8.4,8.4,0,0,1,2.06,6.12,8.32,8.32,0,0,1-2.06,5.94,7,7,0,0,1-5.39,2.18v5.51a10.87,10.87,0,0,0,8.66-3.81,16.18,16.18,0,0,0-.12-19.69,11.73,11.73,0,0,0-9.2-3.82,10.61,10.61,0,0,0-6.37,1.94,10.94,10.94,0,0,0-3.69,5.51,11.09,11.09,0,0,0-3.94-5,9.4,9.4,0,0,0-5.45-1.82c-3.88,0-6.85,1.15-9,3.45s-3.21,5.51-3.21,9.57a13.7,13.7,0,0,0,3.4,9.51,11,11,0,0,0,8.48,3.76v-5.51a7,7,0,0,1-5.33-2.06,7.82,7.82,0,0,1-2.06-5.7c0-5,2.54-7.57,7.57-7.57a7,7,0,0,1,5.39,2.24,9.22,9.22,0,0,1,2.06,6.12v4.12Zm-23.38-49.21V619l29.86,19.26h3.21V618.64h10v-5.45h-10v-6h-4.48v6Zm8.66,6.12-1.15-.67h21.08v13.45Z"></path><path d="M337,994.91H315.38l11.51-12.54c5.46-5.81,8.12-10.9,8.12-15.14a10.82,10.82,0,0,0-3.45-8.36c-2.37-2.12-5.52-3.15-9.51-3.15-4.3,0-7.7,1.21-10.24,3.69a12.47,12.47,0,0,0-3.88,9.57h5.51a9,9,0,0,1,2.25-6.48,8.62,8.62,0,0,1,6.36-2.3,7.22,7.22,0,0,1,5.45,2.18,7.71,7.71,0,0,1,2,5.51,10.53,10.53,0,0,1-1.21,4.85,34.43,34.43,0,0,1-4.61,6.12l-14.9,16.6v3.93H337Zm13.77-15.2h4.12c2.91.06,5.15.72,6.66,2.06a7.08,7.08,0,0,1,2.3,5.75,7.94,7.94,0,0,1-2.06,5.94,9.84,9.84,0,0,1-12.05,0,7,7,0,0,1-2.18-5.39h-5.51a10.88,10.88,0,0,0,3.81,8.66,16.22,16.22,0,0,0,19.69-.12,11.77,11.77,0,0,0,3.82-9.21,10.6,10.6,0,0,0-1.94-6.36,10.89,10.89,0,0,0-5.51-3.7,11.07,11.07,0,0,0,5-3.93,9.52,9.52,0,0,0,1.82-5.46c0-3.87-1.15-6.84-3.45-9s-5.52-3.21-9.57-3.21a13.74,13.74,0,0,0-9.51,3.39,11,11,0,0,0-3.76,8.48h5.51a7,7,0,0,1,2.06-5.33,7.86,7.86,0,0,1,5.7-2.06c5,0,7.57,2.54,7.57,7.57a7,7,0,0,1-2.24,5.39,9.17,9.17,0,0,1-6.12,2.06h-4.12Z"></path><path class="cls-1" d="M328.34,685l1.24-154.4h-7.4V778.07s2.22,4.48,5.43.5l.41-52.75Z"></path><path class="cls-4" d="M328.34,685l1.24-154.4h-7.4V778.07s2.22,4.48,5.43.5l.41-52.75.32-40.79Z"></path><path class="cls-1" d="M346.34,705.17c0,11.28-9.38,20.41-20.95,20.41s-21-9.13-21-20.41,9.38-20.39,21-20.39,20.95,9.13,20.95,20.39"></path><path class="cls-4" d="M346.34,705.17c0,11.28-9.38,20.41-20.95,20.41s-21-9.13-21-20.41,9.38-20.39,21-20.39,20.95,9.13,20.95,20.39Z"></path><path class="cls-1" d="M330.05,520.34c0,.59,0,1.17,0,1.76,0,37.5-26.94,67.9-60.17,67.9s-60.17-30.4-60.17-67.9c0-.92,0-1.84.05-2.74Z"></path><path class="cls-4" d="M330.05,520.34c0,.59,0,1.17,0,1.76,0,37.5-26.94,67.9-60.17,67.9s-60.17-30.4-60.17-67.9c0-.92,0-1.84.05-2.74l120.27,1Z"></path><path class="cls-1" d="M438.55,517.88c0-.59,0-1.18,0-1.76,0-37.5-26.94-67.91-60.17-67.91s-60.16,30.41-60.16,67.91c0,.92,0,1.84,0,2.73Z"></path><path class="cls-4" d="M438.55,517.88c0-.59,0-1.18,0-1.76,0-37.5-26.94-67.91-60.17-67.91s-60.16,30.41-60.16,67.91c0,.92,0,1.84,0,2.73l120.27-1Z"></path></svg> 