<?xml version="1.0" encoding="UTF-8"?> <svg xmlns="http://www.w3.org/2000/svg" id="Livello_1" data-name="Livello 1" viewBox="0 0 804 1000"><defs><style>.cls-1{fill:#fff;}.cls-2{fill:#231f20;}.cls-3,.cls-4{fill:none;stroke-width:0.25px;}.cls-3{stroke:#000;}.cls-4{stroke:#231f20;stroke-miterlimit:10;}</style></defs><title>Elisabeth sospensione piccola</title><rect class="cls-1" width="804" height="1000"></rect><path class="cls-2" d="M248.16.68H247l-22.29,8v8.65l12.74-4V54.68h10.69Zm54.18.08H264.27V9.4H291L270.19,54.68h11.3L302.34,6.75Zm32.8-.08H334l-22.3,8v8.65l12.74-4V54.68h10.7Zm43.48,0h-1.13l-22.3,8v8.65l12.74-4V54.68h10.69ZM417.41,27.3H396.55v8.57h20.86ZM462.5,46H439.3l9.48-10c1.82-1.89,3.49-3.64,4.93-5.38a37.15,37.15,0,0,0,3.79-5.08,24.57,24.57,0,0,0,2.35-5,15.11,15.11,0,0,0,.91-5.23,17.7,17.7,0,0,0-1.14-6.45,12.68,12.68,0,0,0-3.41-4.77,15.21,15.21,0,0,0-5.46-3A25.5,25.5,0,0,0,443.17,0a20.06,20.06,0,0,0-7.82,1.44,17.45,17.45,0,0,0-5.84,3.79,16.91,16.91,0,0,0-3.79,5.61,19.35,19.35,0,0,0-1.29,6.91H435.2a10.77,10.77,0,0,1,.53-3.64,8.9,8.9,0,0,1,1.44-2.89,6.89,6.89,0,0,1,2.51-1.89A7.38,7.38,0,0,1,443,8.65a6.59,6.59,0,0,1,5.16,2A8.29,8.29,0,0,1,450,16.38a6.91,6.91,0,0,1-.38,2.43,13,13,0,0,1-1.14,2.73,22.67,22.67,0,0,1-2.19,3.26,45.54,45.54,0,0,1-3.34,3.94L425.5,47.32v7.36h37ZM495,.68h-1.14l-22.3,8v8.65l12.74-4V54.68H495Z"></path><path class="cls-2" d="M302.69,148.19a7.1,7.1,0,0,1-2,2.35,14.56,14.56,0,0,1-3.26,1.6,16.41,16.41,0,0,1-4.47.53,16.58,16.58,0,0,1-3.79-.38,11.47,11.47,0,0,1-3.57-1.37,7.63,7.63,0,0,1-2.65-2.5,7.78,7.78,0,0,1-1.22-3.94h-4.47a10.23,10.23,0,0,0,1.06,4.47,11.31,11.31,0,0,0,3,3.87,14.78,14.78,0,0,0,4.86,2.65,22.83,22.83,0,0,0,6.75,1,21.91,21.91,0,0,0,6.14-.84,13.36,13.36,0,0,0,4.63-2.27,11.2,11.2,0,0,0,3-3.49,10.06,10.06,0,0,0,1-4.55,9.44,9.44,0,0,0-.84-4.25,8.56,8.56,0,0,0-2.5-3.26,18.87,18.87,0,0,0-4.4-2.5,41.3,41.3,0,0,0-6.22-1.82,42.33,42.33,0,0,1-5.46-1.59,11.56,11.56,0,0,1-3.26-1.75,4,4,0,0,1-1.59-2,6,6,0,0,1,.15-4.93,5.84,5.84,0,0,1,1.67-2.27,10.06,10.06,0,0,1,3-1.59,12.47,12.47,0,0,1,4.4-.61,13.2,13.2,0,0,1,4.4.68,9.62,9.62,0,0,1,3.26,1.82,7.66,7.66,0,0,1,2.05,2.66,7.13,7.13,0,0,1,.68,3h4.4a10.92,10.92,0,0,0-1-4.78,11.71,11.71,0,0,0-2.88-3.79,14.72,14.72,0,0,0-4.7-2.5,21.34,21.34,0,0,0-12.06-.08,14.89,14.89,0,0,0-4.47,2.35,10.21,10.21,0,0,0-2.81,3.49,9.25,9.25,0,0,0-1,4.25,9.59,9.59,0,0,0,.91,4.25,8.34,8.34,0,0,0,2.73,3.11,16.24,16.24,0,0,0,4.4,2.27,46.12,46.12,0,0,0,5.92,1.59,31.66,31.66,0,0,1,5.46,1.67,11.08,11.08,0,0,1,3.26,2,6.93,6.93,0,0,1,1.59,2.27,7.17,7.17,0,0,1,.46,2.51,5.46,5.46,0,0,1-.69,2.65Zm14.76-32.53v40h4.47V128.25a20.35,20.35,0,0,1,1.44-3.57,15.25,15.25,0,0,1,2.35-3,13.28,13.28,0,0,1,3.41-2.13,11.18,11.18,0,0,1,4.4-.75,13.53,13.53,0,0,1,4,.53,7.26,7.26,0,0,1,5.08,4.93,15.75,15.75,0,0,1,.69,5V155.7h4.47V129.16a10.87,10.87,0,0,1,.91-3.57,14.73,14.73,0,0,1,2.28-3.34,12.88,12.88,0,0,1,3.64-2.5,10.89,10.89,0,0,1,4.85-1,15.75,15.75,0,0,1,3.94.45,6.54,6.54,0,0,1,3.11,1.75,8,8,0,0,1,2.05,3.33,16.74,16.74,0,0,1,.68,5.24V155.7h4.4V129.61a21.85,21.85,0,0,0-.83-6.67,11,11,0,0,0-2.58-4.55,9.57,9.57,0,0,0-4.17-2.66,17.73,17.73,0,0,0-5.54-.83,17.13,17.13,0,0,0-4.47.6,15.32,15.32,0,0,0-3.79,1.6,13.83,13.83,0,0,0-3.11,2.5,17.55,17.55,0,0,0-2.28,3,10.57,10.57,0,0,0-4.47-5.91,14.94,14.94,0,0,0-7.59-1.82,14,14,0,0,0-4.09.53,13.29,13.29,0,0,0-3.57,1.44,11.09,11.09,0,0,0-2.95,2.28,15.29,15.29,0,0,0-2.36,3l-.15-6.52Zm97.38,40v-.46a14.35,14.35,0,0,1-.53-1.66c-.15-.61-.23-1.29-.38-2s-.15-1.36-.23-2.12-.07-1.44-.07-2.12V127.94a14.44,14.44,0,0,0-1.06-5.69,11.19,11.19,0,0,0-3-4.09,13.08,13.08,0,0,0-4.55-2.43,21.08,21.08,0,0,0-12.21.15,17.69,17.69,0,0,0-4.85,2.66,12.43,12.43,0,0,0-3.11,3.79,8.69,8.69,0,0,0-1.06,4.32l4.4.08a6.68,6.68,0,0,1,.83-3.19,8.48,8.48,0,0,1,2.2-2.57,10.15,10.15,0,0,1,3.41-1.67,12.67,12.67,0,0,1,4.25-.69q5.12,0,7.74,2.51a8.73,8.73,0,0,1,2.65,6.75v4.55H401a33.41,33.41,0,0,0-7.66.83,17.44,17.44,0,0,0-5.76,2.58,11.3,11.3,0,0,0-3.95,13.73,10.69,10.69,0,0,0,2.58,3.64,12.1,12.1,0,0,0,4.1,2.42,16.92,16.92,0,0,0,5.3.84,20.09,20.09,0,0,0,4.4-.53,24.33,24.33,0,0,0,3.79-1.37,13.74,13.74,0,0,0,3-2.05,11.67,11.67,0,0,0,2.35-2.42c.08,1.06.15,2,.3,3.11a10.16,10.16,0,0,0,.61,2.5Zm-22.37-3.79a9,9,0,0,1-2.88-1.67,6.51,6.51,0,0,1-1.75-2.5,6.94,6.94,0,0,1-.68-3,7.49,7.49,0,0,1,1-3.71,7.86,7.86,0,0,1,2.88-2.81,13.86,13.86,0,0,1,4.55-1.74,24.25,24.25,0,0,1,6.07-.61h7.58v8.8a13.82,13.82,0,0,1-2,3.11,16,16,0,0,1-2.88,2.5,15.3,15.3,0,0,1-3.72,1.67,16.77,16.77,0,0,1-4.47.6,11.2,11.2,0,0,1-3.72-.6Zm38-53.09h-4.47V155.7h4.47Zm17,0h-4.48V155.7h4.48Z"></path><path class="cls-3" d="M90.43,902.63H593.81m61.46-599.48V822.52"></path><path d="M716.35,593.66v.85l5.88,15.69h5l-4.06-11h36.47v-5.51Zm17.81-43.09c-6.23.06-10.78,1.21-13.75,3.39s-4.48,5.58-4.48,10.24,1.52,8.12,4.61,10.3,7.81,3.27,14.11,3.27H742c6.06-.06,10.6-1.21,13.69-3.45s4.54-5.58,4.54-10.18-1.57-8.12-4.66-10.3-7.88-3.27-14.3-3.27Zm8.55,5.45c4.48.06,7.81.79,9.87,2.06a7.35,7.35,0,0,1-.18,12.18c-2.24,1.33-5.63,2.06-10.3,2.06h-8.78c-4.36-.06-7.64-.73-9.76-2a6.59,6.59,0,0,1-3.15-6.12,6.67,6.67,0,0,1,3.21-6.18c2.12-1.33,5.46-2,10.12-2Zm-8.55-39.51c-6.23.06-10.78,1.21-13.75,3.39s-4.48,5.57-4.48,10.24,1.52,8.12,4.61,10.3,7.81,3.27,14.11,3.27H742c6.06-.06,10.6-1.21,13.69-3.46s4.54-5.57,4.54-10.17-1.57-8.12-4.66-10.3-7.88-3.27-14.3-3.27Zm8.55,5.45c4.48.06,7.81.79,9.87,2.06a7.35,7.35,0,0,1-.18,12.18c-2.24,1.33-5.63,2.06-10.3,2.06h-8.78c-4.36-.07-7.64-.73-9.76-2a7.54,7.54,0,0,1,.06-12.3c2.12-1.33,5.46-2,10.12-2Z"></path><path d="M310.71,956.14h-.85L294.17,962v5l11-4.05v36.46h5.52Zm34.06,0h-.85L328.23,962v5l11-4.05v36.46h5.51ZM387.86,974c-.06-6.24-1.21-10.78-3.39-13.75s-5.58-4.48-10.24-4.48-8.12,1.51-10.3,4.6-3.27,7.82-3.27,14.12v7.33c.06,6.05,1.21,10.6,3.45,13.69s5.57,4.54,10.18,4.54,8.12-1.58,10.3-4.66,3.27-7.88,3.27-14.3Zm-5.45,8.54c-.06,4.49-.79,7.82-2.06,9.88a7.35,7.35,0,0,1-12.18-.18c-1.33-2.25-2.06-5.64-2.06-10.3V973.1c.06-4.36.73-7.63,2-9.75a6.59,6.59,0,0,1,6.12-3.15,6.68,6.68,0,0,1,6.18,3.21c1.33,2.12,2,5.45,2,10.12Z"></path><rect class="cls-1" x="337.21" y="275.34" width="5.26" height="295.46"></rect><rect class="cls-4" x="337.21" y="275.34" width="5.27" height="295.46"></rect><path class="cls-1" d="M533.72,652.45c-58.33-6.58-50.44-63.22-50.44-63.22V587s-7.89-56.64,50.44-63.22h6.67C598.71,530.4,590.82,587,590.82,587v2.19s7.89,56.64-50.43,63.22"></path><path class="cls-4" d="M533.72,652.45c-58.33-6.58-50.44-63.22-50.44-63.22V587s-7.89-56.64,50.44-63.22h6.67C598.71,530.4,590.82,587,590.82,587v2.19s7.89,56.64-50.43,63.22"></path><path class="cls-1" d="M139,651.57c-58.33,6.59-50.45,63.22-50.45,63.22V717S80.63,773.63,139,780.21h6.66C204,773.63,196.06,717,196.06,717v-2.19s7.9-56.63-50.44-63.22"></path><path class="cls-4" d="M139,651.57c-58.33,6.59-50.45,63.22-50.45,63.22V717S80.63,773.63,139,780.21h6.66C204,773.63,196.06,717,196.06,717v-2.19s7.9-56.63-50.44-63.22"></path><path class="cls-1" d="M350.38,596.7H382.3s6.14,1.76,0,7.9H350.38"></path><path class="cls-4" d="M350.38,596.7H382.3s6.14,1.76,0,7.9H350.38"></path><path class="cls-1" d="M329.54,699.87H298.18s-6.14,1.75,0,7.9h31.58"></path><path class="cls-4" d="M329.54,699.87H298.18s-6.14,1.75,0,7.9h31.58"></path><path class="cls-1" d="M329.1,602.84l-136.45.88c-50.89-.43-46.5,43.46-46.5,43.46v68.27l-6.58-.21V647.18s-6.14-48.72,54.83-50H329.05"></path><path class="cls-4" d="M329.1,602.84l-136.45.88c-50.89-.43-46.5,43.46-46.5,43.46v68.27l-6.58-.21V647.18s-6.14-48.72,54.83-50H329.05"></path><path class="cls-1" d="M350.81,706.45H485.47c61-1.32,54.83-50.05,54.83-50.05V589.23h-6.79l.21,67.17s4.39,43.91-46.49,43.47l-136.85.88"></path><path class="cls-4" d="M350.81,706.45H485.47c61-1.32,54.83-50.05,54.83-50.05V589.23h-6.79l.21,67.17s4.39,43.91-46.49,43.47l-136.85.88"></path><rect class="cls-1" x="329.32" y="571.23" width="21.05" height="143.12"></rect><rect class="cls-4" x="329.32" y="571.23" width="21.05" height="143.12"></rect><path class="cls-1" d="M366.17,249.32c0,14.37-11.35,26-25.34,26s-25.32-11.65-25.32-26Z"></path><path class="cls-4" d="M366.17,249.32c0,14.37-11.35,26-25.34,26s-25.32-11.65-25.32-26ZM329.05,597.13v7.47M88.51,715.45H196.06M483.28,589.23H590.82"></path></svg> 