<?xml version="1.0" encoding="UTF-8"?> <svg xmlns="http://www.w3.org/2000/svg" id="Livello_1" data-name="Livello 1" viewBox="0 0 874.67 1000"><defs><style>.cls-1{fill:#fff;}.cls-2{fill:#231f20;}.cls-3,.cls-4{fill:none;stroke-width:0.25px;}.cls-3{stroke:#000;}.cls-4{stroke:#231f20;stroke-miterlimit:10;}</style></defs><title>Enoki</title><rect class="cls-1" width="874.67" height="1000"></rect><path class="cls-2" d="M130.61.76h-1.27l-24.9,9v9.65L118.67,15V61.05h11.94ZM191.1.85H148.6V10.5h29.89L155.2,61.05h12.62L191.1,7.54Zm48.13,24.89a39,39,0,0,0-1.52-11.68,20.78,20.78,0,0,0-4.15-8,15.64,15.64,0,0,0-6.43-4.58A21.76,21.76,0,0,0,218.83,0a22.05,22.05,0,0,0-8.3,1.52,15.33,15.33,0,0,0-6.35,4.58,20.78,20.78,0,0,0-4.15,8,39,39,0,0,0-1.52,11.68V36.16A38.85,38.85,0,0,0,200,47.76a22.58,22.58,0,0,0,4.15,8,15.53,15.53,0,0,0,6.43,4.57,21.86,21.86,0,0,0,8.3,1.53,21.57,21.57,0,0,0,8.3-1.53,15.49,15.49,0,0,0,6.44-4.57,22.57,22.57,0,0,0,4.14-8,41.84,41.84,0,0,0,1.44-11.6Zm-11.93,12a30.5,30.5,0,0,1-.6,6.77A13.15,13.15,0,0,1,225.09,49a6.07,6.07,0,0,1-2.62,2.45,8.69,8.69,0,0,1-7.11,0A6.09,6.09,0,0,1,212.73,49,13.09,13.09,0,0,1,211,44.54a38,38,0,0,1-.51-6.77V24a37,37,0,0,1,.51-6.69,12.6,12.6,0,0,1,1.61-4.4,7.14,7.14,0,0,1,2.62-2.45,8.32,8.32,0,0,1,3.56-.68,7.8,7.8,0,0,1,3.55.68,6.73,6.73,0,0,1,2.71,2.45,12.6,12.6,0,0,1,1.61,4.4,29.74,29.74,0,0,1,.6,6.69ZM285.08,9.65a13,13,0,0,0-4-5.25,17.13,17.13,0,0,0-6-3.3A26.64,26.64,0,0,0,267.47,0a27.66,27.66,0,0,0-7.71,1.1,18,18,0,0,0-6,3.3,14.84,14.84,0,0,0-4,5.25,17.39,17.39,0,0,0-1.35,7.2,14.16,14.16,0,0,0,2.11,7.79,15.48,15.48,0,0,0,6,5.42,16.89,16.89,0,0,0-6.85,5.76,14.54,14.54,0,0,0-2.63,8.72,16.24,16.24,0,0,0,1.61,7.54,15.76,15.76,0,0,0,4.23,5.41,19.75,19.75,0,0,0,6.52,3.31,30.3,30.3,0,0,0,16.18,0A20.09,20.09,0,0,0,282,57.49a15.67,15.67,0,0,0,4.24-5.41,17.46,17.46,0,0,0,1.52-7.54,15.32,15.32,0,0,0-2.54-8.72,17.71,17.71,0,0,0-6.94-5.76,15.48,15.48,0,0,0,6-5.42,14.22,14.22,0,0,0,2.2-7.79,17.38,17.38,0,0,0-1.44-7.2ZM273.56,50a8,8,0,0,1-6.09,2.28,8.91,8.91,0,0,1-3.47-.59A6.16,6.16,0,0,1,261.37,50a6.44,6.44,0,0,1-1.69-2.71,9.1,9.1,0,0,1-.6-3.56,9.83,9.83,0,0,1,.6-3.64,7.21,7.21,0,0,1,4.32-4.4,8.63,8.63,0,0,1,3.38-.59,9.1,9.1,0,0,1,3.47.59,7,7,0,0,1,2.63,1.69,8.16,8.16,0,0,1,1.69,2.71,9.83,9.83,0,0,1,.6,3.64A8.46,8.46,0,0,1,273.56,50Zm-.84-26.76a7.36,7.36,0,0,1-10.5,0,8.43,8.43,0,0,1-1.87-5.76,8.25,8.25,0,0,1,1.87-5.75,6.74,6.74,0,0,1,5.25-2,6.65,6.65,0,0,1,5.25,2.12,8.64,8.64,0,0,1,1.86,5.67,8.9,8.9,0,0,1-1.86,5.76Zm46.86,7.28H296.29v9.57h23.29ZM340.8,35h6.35a15.89,15.89,0,0,1,4.15.51,12,12,0,0,1,3.13,1.61,8.24,8.24,0,0,1,1.95,2.79,12.26,12.26,0,0,1,.68,4.15,9,9,0,0,1-.68,3.39A5.82,5.82,0,0,1,354.6,50a6.51,6.51,0,0,1-2.88,1.69,10.45,10.45,0,0,1-3.81.59,9.21,9.21,0,0,1-3.47-.59A7.53,7.53,0,0,1,341.65,50a7.18,7.18,0,0,1-1.87-2.37,7.45,7.45,0,0,1-.67-3.13H327.17a15.62,15.62,0,0,0,1.78,7.7,15.86,15.86,0,0,0,4.65,5.42,20.49,20.49,0,0,0,6.52,3.22,28.32,28.32,0,0,0,7.54,1,30.2,30.2,0,0,0,8.47-1.19,19.82,19.82,0,0,0,6.77-3.47,15.91,15.91,0,0,0,4.49-5.5A18,18,0,0,0,369,44.2a14.89,14.89,0,0,0-2.54-8.64,14.72,14.72,0,0,0-7.54-5.42,20.09,20.09,0,0,0,3.9-2.45,19.17,19.17,0,0,0,2.87-3.05A15.52,15.52,0,0,0,367.47,21a14.83,14.83,0,0,0,.6-3.81,17.4,17.4,0,0,0-1.53-7.45,15.18,15.18,0,0,0-4.15-5.34A19.27,19.27,0,0,0,356,1.1a31.62,31.62,0,0,0-8.3-1.1A25.1,25.1,0,0,0,340,1.19a20.85,20.85,0,0,0-6.26,3.3,16.69,16.69,0,0,0-4.24,5.16,15.13,15.13,0,0,0-1.52,6.78h11.94a6.13,6.13,0,0,1,.68-2.8,5.94,5.94,0,0,1,1.69-2.11,7,7,0,0,1,2.62-1.36,8.87,8.87,0,0,1,3.05-.51,9.23,9.23,0,0,1,3.64.6,6.42,6.42,0,0,1,2.54,1.6,6.06,6.06,0,0,1,1.53,2.46,8.83,8.83,0,0,1,.51,3,8.32,8.32,0,0,1-2.21,6c-1.52,1.52-3.72,2.29-6.77,2.29H340.8Zm76.92-9.23a39.27,39.27,0,0,0-1.52-11.68,20.78,20.78,0,0,0-4.15-8,15.61,15.61,0,0,0-6.44-4.58A21.72,21.72,0,0,0,397.31,0,22,22,0,0,0,389,1.52a15.27,15.27,0,0,0-6.35,4.58,20.78,20.78,0,0,0-4.15,8A38.93,38.93,0,0,0,377,25.74V36.16a38.83,38.83,0,0,0,1.53,11.6,22.42,22.42,0,0,0,4.15,8,15.46,15.46,0,0,0,6.43,4.57,21.86,21.86,0,0,0,8.3,1.53,21.57,21.57,0,0,0,8.3-1.53,15.53,15.53,0,0,0,6.43-4.57,22.42,22.42,0,0,0,4.15-8,42.22,42.22,0,0,0,1.44-11.6Zm-11.94,12a31.18,31.18,0,0,1-.59,6.77A13.15,13.15,0,0,1,403.58,49,6.12,6.12,0,0,1,401,51.48a8.72,8.72,0,0,1-7.12,0A6.12,6.12,0,0,1,391.22,49a13.3,13.3,0,0,1-1.7-4.49,39,39,0,0,1-.5-6.77V24a38.06,38.06,0,0,1,.5-6.69,12.8,12.8,0,0,1,1.61-4.4,7.17,7.17,0,0,1,2.63-2.45,8.27,8.27,0,0,1,3.55-.68,7.84,7.84,0,0,1,3.56.68,6.73,6.73,0,0,1,2.71,2.45,12.6,12.6,0,0,1,1.61,4.4,30.4,30.4,0,0,1,.59,6.69Z"></path><path class="cls-3" d="M35.38,892H464.94M687.42,337.26V785.81"></path><path d="M755.62,575.56v1L762.19,594h5.54l-4.53-12.31h40.72v-6.15Zm.21-49V559h5v-26l43.09,19.82v-6.43l-44.64-19.88Z"></path><path d="M234.08,951.71h-1l-17.52,6.56v5.54l12.31-4.53V1000h6.16Zm49,.2H250.6v5h26L256.76,1000h6.42l19.89-44.64Z"></path><path class="cls-1" d="M42.64,633.78S80.46,777.88,248.12,783h4.08c167.65-5.11,205.48-149.21,205.48-149.21Zm-4.1-1.53,423.23.13m.5,1-66.44-186C357,337,251.7,340.1,251.7,340.1h-3.07S143.33,337,104.48,447.39L38,633.4"></path><path class="cls-4" d="M42.64,633.78S80.46,777.88,248.12,783h4.08c167.65-5.11,205.48-149.21,205.48-149.21Zm-4.1-1.53,423.23.13m.5,1-66.44-186C357,337,251.7,340.1,251.7,340.1h-3.07S143.33,337,104.48,447.39L38,633.4"></path></svg> 