<?xml version="1.0" encoding="UTF-8"?> <svg xmlns="http://www.w3.org/2000/svg" id="Livello_1" data-name="Livello 1" viewBox="0 0 552 1000"><defs><style>.cls-1{fill:#fff;}.cls-2{fill:#231f20;}.cls-3,.cls-4{fill:none;stroke-width:0.25px;}.cls-3{stroke:#000;}.cls-4{stroke:#231f20;stroke-miterlimit:10;}</style></defs><title>Feel asta medium</title><rect class="cls-1" width="552" height="1000"></rect><path class="cls-2" d="M132.18.59h-1l-19.36,7v7.51l11.06-3.42V47.49h9.29ZM176.8,7.51a10,10,0,0,0-3.09-4.08A13.33,13.33,0,0,0,169,.86,20.64,20.64,0,0,0,163.1,0a21.44,21.44,0,0,0-6,.86,14,14,0,0,0-4.68,2.57,11.27,11.27,0,0,0-3.09,4.08,13.39,13.39,0,0,0-1.06,5.6,11,11,0,0,0,1.65,6.06,12,12,0,0,0,4.68,4.21,13.26,13.26,0,0,0-5.34,4.48,11.36,11.36,0,0,0-2,6.79,12.56,12.56,0,0,0,1.25,5.86,12.17,12.17,0,0,0,3.29,4.21,15.29,15.29,0,0,0,5.08,2.57,23.43,23.43,0,0,0,12.58,0,15.58,15.58,0,0,0,5-2.57,12.08,12.08,0,0,0,3.3-4.21,13.5,13.5,0,0,0,1.18-5.86,12,12,0,0,0-2-6.79,14,14,0,0,0-5.41-4.48,12,12,0,0,0,4.68-4.21,11.06,11.06,0,0,0,1.71-6.06,13.38,13.38,0,0,0-1.12-5.6Zm-9,31.35a6.21,6.21,0,0,1-4.75,1.78,7,7,0,0,1-2.7-.46,4.69,4.69,0,0,1-2-1.32A5.06,5.06,0,0,1,157,36.75a7.14,7.14,0,0,1-.46-2.76,7.68,7.68,0,0,1,.46-2.83,5.67,5.67,0,0,1,3.36-3.43,6.72,6.72,0,0,1,2.64-.46,7.06,7.06,0,0,1,2.7.46,5.54,5.54,0,0,1,2,1.32,6.38,6.38,0,0,1,1.32,2.11,7.68,7.68,0,0,1,.46,2.83,6.59,6.59,0,0,1-1.71,4.87Zm-.66-20.81a5.73,5.73,0,0,1-8.17,0,6.55,6.55,0,0,1-1.45-4.48A6.43,6.43,0,0,1,159,9.09a5.27,5.27,0,0,1,4.08-1.58,5.18,5.18,0,0,1,4.09,1.65,6.7,6.7,0,0,1,1.45,4.41,6.92,6.92,0,0,1-1.45,4.48Zm27.43,9.15h4.94a12.45,12.45,0,0,1,3.22.4,9.2,9.2,0,0,1,2.44,1.25A6.53,6.53,0,0,1,206.74,31a9.51,9.51,0,0,1,.52,3.23,7,7,0,0,1-.52,2.64,4.54,4.54,0,0,1-1.39,2,4.92,4.92,0,0,1-2.24,1.32,8.18,8.18,0,0,1-3,.46,7.23,7.23,0,0,1-2.7-.46,5.85,5.85,0,0,1-2.18-1.25,5.52,5.52,0,0,1-1.44-1.85,5.71,5.71,0,0,1-.53-2.43H184a12.25,12.25,0,0,0,1.38,6A12.57,12.57,0,0,0,189,44.86a15.81,15.81,0,0,0,5.07,2.5,22,22,0,0,0,5.86.79,23.53,23.53,0,0,0,6.59-.92,15.65,15.65,0,0,0,5.27-2.7,12.4,12.4,0,0,0,3.49-4.28,14,14,0,0,0,1.25-5.87,11.53,11.53,0,0,0-2-6.72,11.39,11.39,0,0,0-5.86-4.21,16,16,0,0,0,3-1.91A15.6,15.6,0,0,0,214,19.17a12.33,12.33,0,0,0,1.38-2.83,11.35,11.35,0,0,0,.47-3,13.66,13.66,0,0,0-1.19-5.8,11.65,11.65,0,0,0-3.23-4.14,14.88,14.88,0,0,0-5-2.57A24.62,24.62,0,0,0,200,0a19.72,19.72,0,0,0-6,.92,16.42,16.42,0,0,0-4.88,2.57,13.1,13.1,0,0,0-3.29,4,11.69,11.69,0,0,0-1.19,5.27h9.29a4.84,4.84,0,0,1,.53-2.18A4.69,4.69,0,0,1,195.74,9a5.51,5.51,0,0,1,2-1.06,6.93,6.93,0,0,1,2.37-.39A7.27,7.27,0,0,1,203,8a5,5,0,0,1,2,1.25,4.76,4.76,0,0,1,1.18,1.91,6.78,6.78,0,0,1,.4,2.37,6.49,6.49,0,0,1-1.71,4.68A7.07,7.07,0,0,1,199.56,20h-4.94ZM245.49.59h-1l-19.37,7v7.51l11.07-3.42V47.49h9.28Zm33.69,23.12H261.07v7.45h18.11ZM318.35,40H298.19l8.24-8.69c1.58-1.65,3-3.16,4.28-4.68A32.31,32.31,0,0,0,314,22.2a21.3,21.3,0,0,0,2-4.35,13.1,13.1,0,0,0,.79-4.54,15.32,15.32,0,0,0-1-5.6,11,11,0,0,0-3-4.15A13.21,13.21,0,0,0,308.14.92,22.22,22.22,0,0,0,301.55,0a17.39,17.39,0,0,0-6.78,1.25,15.11,15.11,0,0,0-5.08,3.29,14.65,14.65,0,0,0-3.29,4.88,16.81,16.81,0,0,0-1.12,6h9.35a9.38,9.38,0,0,1,.47-3.16,7.25,7.25,0,0,1,1.25-2.5,5.89,5.89,0,0,1,2.17-1.65,6.58,6.58,0,0,1,2.9-.59,5.71,5.71,0,0,1,4.48,1.78,7.18,7.18,0,0,1,1.58,4.94,6.22,6.22,0,0,1-.33,2.11,11.81,11.81,0,0,1-1,2.37,19.85,19.85,0,0,1-1.91,2.83,38,38,0,0,1-2.9,3.42L286.2,41.1v6.39h32.15Zm37.77,0H336l8.24-8.69c1.58-1.65,3-3.16,4.28-4.68a32.31,32.31,0,0,0,3.29-4.41,21.3,21.3,0,0,0,2-4.35,13.1,13.1,0,0,0,.79-4.54,15.53,15.53,0,0,0-1-5.6,11.16,11.16,0,0,0-3-4.15A13.21,13.21,0,0,0,345.91.92,22.22,22.22,0,0,0,339.32,0a17.39,17.39,0,0,0-6.78,1.25,15,15,0,0,0-5.07,3.29,14.53,14.53,0,0,0-3.3,4.88,16.81,16.81,0,0,0-1.12,6h9.36a9.38,9.38,0,0,1,.46-3.16,7.25,7.25,0,0,1,1.25-2.5,6,6,0,0,1,2.17-1.65,6.58,6.58,0,0,1,2.9-.59,5.69,5.69,0,0,1,4.48,1.78,7.18,7.18,0,0,1,1.58,4.94,6.22,6.22,0,0,1-.33,2.11,11.81,11.81,0,0,1-1,2.37A19.85,19.85,0,0,1,342,21.54a38,38,0,0,1-2.9,3.42L324,41.1v6.39h32.15Z"></path><path class="cls-2" d="M118.2,100.45v34.78h3.89V111.39a17.63,17.63,0,0,1,1.25-3.1,13.21,13.21,0,0,1,2-2.63,11.2,11.2,0,0,1,3-1.85,9.67,9.67,0,0,1,3.82-.66,11.79,11.79,0,0,1,3.49.46,6.33,6.33,0,0,1,4.41,4.29,13.67,13.67,0,0,1,.59,4.34v23h3.89v-23a9.45,9.45,0,0,1,.79-3.1,12.83,12.83,0,0,1,2-2.9,11.18,11.18,0,0,1,3.16-2.17,9.45,9.45,0,0,1,4.21-.86,13.35,13.35,0,0,1,3.43.4,5.82,5.82,0,0,1,2.7,1.51,7.06,7.06,0,0,1,1.78,2.9,14.82,14.82,0,0,1,.59,4.55v22.72H167V112.57a19,19,0,0,0-.72-5.79,9.73,9.73,0,0,0-2.24-4,8.41,8.41,0,0,0-3.63-2.3,15.36,15.36,0,0,0-4.8-.73,14.57,14.57,0,0,0-3.89.53,13.27,13.27,0,0,0-3.29,1.38,12.3,12.3,0,0,0-2.7,2.18,15.22,15.22,0,0,0-2,2.63,9.18,9.18,0,0,0-3.89-5.14,13,13,0,0,0-6.58-1.58,12.53,12.53,0,0,0-3.56.46,12,12,0,0,0-3.1,1.26,9.61,9.61,0,0,0-2.57,2,13.66,13.66,0,0,0-2,2.64l-.13-5.67Zm76.22,34.91a13.32,13.32,0,0,0,6.06-3.23,17.53,17.53,0,0,0,2-2.43l-2.44-1.78a11.4,11.4,0,0,1-4.28,3.56,12.1,12.1,0,0,1-5.46,1.12,11,11,0,0,1-4.88-1.06,11.58,11.58,0,0,1-3.75-3,13.17,13.17,0,0,1-2.44-4.35,16.34,16.34,0,0,1-.86-5.4v-.73h24.84v-2.37a21.83,21.83,0,0,0-.93-6.39,14.22,14.22,0,0,0-2.63-5.07,12.79,12.79,0,0,0-4.35-3.29,13.69,13.69,0,0,0-5.86-1.19,13,13,0,0,0-5.66,1.25,15.72,15.72,0,0,0-4.75,3.56,16.59,16.59,0,0,0-3.29,5.53,21.37,21.37,0,0,0-1.19,7.32v1.38a19.21,19.21,0,0,0,1.19,6.85,15.11,15.11,0,0,0,3.23,5.4,13.69,13.69,0,0,0,4.94,3.49,14.92,14.92,0,0,0,6.25,1.32,16.33,16.33,0,0,0,4.22-.53ZM193.76,104a10.63,10.63,0,0,1,3.1,2.5,11.79,11.79,0,0,1,1.84,3.62,15.61,15.61,0,0,1,.73,4.29v.39H178.55A17.23,17.23,0,0,1,179.8,110a12.12,12.12,0,0,1,2.3-3.69,11.54,11.54,0,0,1,3.3-2.43,10.41,10.41,0,0,1,4.08-.79,9.77,9.77,0,0,1,4.28.92Zm15.45,14.16a24.55,24.55,0,0,0,.92,7.18,17.58,17.58,0,0,0,2.63,5.6,13,13,0,0,0,4.22,3.62,12.08,12.08,0,0,0,5.6,1.32,13.93,13.93,0,0,0,6.45-1.38,13.22,13.22,0,0,0,4.42-3.89l.13,4.61h3.62V85.83h-3.82v19.5a13,13,0,0,0-4.41-4.09,12.82,12.82,0,0,0-6.33-1.45,11.92,11.92,0,0,0-5.59,1.25,12.51,12.51,0,0,0-4.29,3.56,17.58,17.58,0,0,0-2.63,5.6,25.18,25.18,0,0,0-.92,7.31Zm3.88-.66a25.46,25.46,0,0,1,.6-5.66,14.17,14.17,0,0,1,1.84-4.55,8.91,8.91,0,0,1,3.23-3,8.55,8.55,0,0,1,4.61-1.12,12.48,12.48,0,0,1,3.69.53,10.38,10.38,0,0,1,2.83,1.51,9.06,9.06,0,0,1,2,2.18,13.63,13.63,0,0,1,1.45,2.57v16.33a14.61,14.61,0,0,1-1.58,2.51,8.57,8.57,0,0,1-2.11,2,10.21,10.21,0,0,1-2.83,1.32,12.55,12.55,0,0,1-3.56.46,9,9,0,0,1-4.54-1.12,8.83,8.83,0,0,1-3.23-3,14.2,14.2,0,0,1-1.84-4.54,25.16,25.16,0,0,1-.6-5.67Zm38.57-17.06h-3.89v34.78h3.89Zm-3.89-8.23a2.81,2.81,0,0,0,2,.72,2.64,2.64,0,0,0,1.91-.72,2.46,2.46,0,0,0,.72-1.85,2.36,2.36,0,0,0-.72-1.84,2.42,2.42,0,0,0-1.91-.79,2.58,2.58,0,0,0-2,.79,2.54,2.54,0,0,0-.66,1.84,2.66,2.66,0,0,0,.66,1.85Zm36.74,43h3.75V100.45h-3.88v25.16a13.32,13.32,0,0,1-1.32,2.77,7.27,7.27,0,0,1-2.11,2.17,8.92,8.92,0,0,1-3.09,1.45,14.66,14.66,0,0,1-4.09.53,9.77,9.77,0,0,1-3.09-.46,6.37,6.37,0,0,1-2.57-1.65,7.86,7.86,0,0,1-1.71-3,15.49,15.49,0,0,1-.66-4.68V100.45h-3.82v22.27a18.26,18.26,0,0,0,.85,6.06,10.71,10.71,0,0,0,2.31,4.08,9.46,9.46,0,0,0,3.62,2.3,14.63,14.63,0,0,0,4.68.73,15,15,0,0,0,6.72-1.38,11.27,11.27,0,0,0,4.34-3.69ZM298,100.45v34.78h3.88V111.39a17.68,17.68,0,0,1,1.26-3.1,13.21,13.21,0,0,1,2-2.63,11,11,0,0,1,3-1.85,9.7,9.7,0,0,1,3.82-.66,11.74,11.74,0,0,1,3.49.46,6.32,6.32,0,0,1,4.42,4.29,14,14,0,0,1,.59,4.34v23h3.89v-23a9,9,0,0,1,.79-3.1,12.47,12.47,0,0,1,2-2.9,11.33,11.33,0,0,1,3.16-2.17,9.53,9.53,0,0,1,4.22-.86,13.22,13.22,0,0,1,3.42.4,5.73,5.73,0,0,1,2.7,1.51,7,7,0,0,1,1.78,2.9,14.49,14.49,0,0,1,.6,4.55v22.72h3.82V112.57a18.67,18.67,0,0,0-.73-5.79,9.62,9.62,0,0,0-2.24-4,8.37,8.37,0,0,0-3.62-2.3,15.38,15.38,0,0,0-4.81-.73,14.62,14.62,0,0,0-3.89.53,13.6,13.6,0,0,0-3.29,1.38,12.3,12.3,0,0,0-2.7,2.18,15.75,15.75,0,0,0-2,2.63,9.2,9.2,0,0,0-3.88-5.14,13.07,13.07,0,0,0-6.59-1.58,12.62,12.62,0,0,0-3.56.46,11.93,11.93,0,0,0-3.09,1.26,9.3,9.3,0,0,0-2.57,2,13.28,13.28,0,0,0-2,2.64l-.13-5.67Z"></path><path class="cls-3" d="M156.63,666h108.6M367.78,236.35V609.41"></path><path d="M445.08,418.17c1.94,2.11,3,5.11,3.05,9.05v1h4.05v-1c-.11-5.78-1.79-10.1-5.16-13S438.39,410,431.08,410h-1.37c-4.78,0-8.57,1.06-11.31,3.21a10.36,10.36,0,0,0-4.16,8.74,11.62,11.62,0,0,0,1.58,6.1,10.62,10.62,0,0,0,4.63,4.05,15.59,15.59,0,0,0,6.74,1.42,14.86,14.86,0,0,0,6.36-1.31,9.68,9.68,0,0,0,6.11-9.32,9.59,9.59,0,0,0-1.11-4.57,10.73,10.73,0,0,0-2.84-3.53c4.26.16,7.37,1.32,9.37,3.42ZM433.24,427a11.54,11.54,0,0,1-12.58,0,6.18,6.18,0,0,1-2.36-5.06,6,6,0,0,1,2.89-5.1,12.89,12.89,0,0,1,7.58-2.05h1.89a8.78,8.78,0,0,1,3.58,2.95,7.28,7.28,0,0,1,1.47,4.41,5.8,5.8,0,0,1-2.47,4.9Zm-18.47-47.74v25.26h3.89V384.27l33.52,15.42v-5l-34.73-15.47Z"></path><path d="M178.48,748.28l-2.57,5.21h3.2l1.9-3.84a13.22,13.22,0,0,0,4.89.89,12.63,12.63,0,0,0,6.58-1.73,12.34,12.34,0,0,0,4.47-5,16.62,16.62,0,0,0,1.58-7.32c0-5.47-1.68-9.57-5-12.2l2.63-5.27H193l-1.84,3.85a12.53,12.53,0,0,0-5.26-1.11,12.13,12.13,0,0,0-6.58,1.79,12,12,0,0,0-4.47,5,16.46,16.46,0,0,0-1.58,7.31c0,5.74,1.79,9.84,5.26,12.42Zm1.69-19.89a6.84,6.84,0,0,1,5.68-2.79,7,7,0,0,1,3.42.85l-8.79,17.83c-1.68-1.95-2.47-4.52-2.47-7.84,0-3.47.68-6.15,2.16-8.05Zm13.57,7.89a12.32,12.32,0,0,1-2.1,7.58,7,7,0,0,1-5.74,2.79,7.4,7.4,0,0,1-3.1-.63l8.73-17.68a12,12,0,0,1,2.21,7.52Zm25.69-23.83h-.73l-13.63,5.1v4.32l9.58-3.53V750h4.78ZM253,714.87a12.78,12.78,0,0,0-15.94,0,9.66,9.66,0,0,0-3.06,7.47,8.72,8.72,0,0,0,1.48,5,10.2,10.2,0,0,0,3.89,3.42,10,10,0,0,0-4.58,3.68,9.6,9.6,0,0,0-1.63,5.47,9.9,9.9,0,0,0,3.21,7.74,14.4,14.4,0,0,0,17.31,0,9.77,9.77,0,0,0,3.26-7.74,9.2,9.2,0,0,0-1.73-5.47,10.48,10.48,0,0,0-4.63-3.68,10.2,10.2,0,0,0,4-3.42,8.58,8.58,0,0,0,1.47-5,9.49,9.49,0,0,0-3-7.47Zm-2.74,29.94a8.37,8.37,0,0,1-10.47,0,6.64,6.64,0,0,1-1.89-5,7,7,0,0,1,1.94-5.16,6.85,6.85,0,0,1,5.16-1.94,7.22,7.22,0,0,1,5.21,2,6.89,6.89,0,0,1,2,5.1,6.68,6.68,0,0,1-1.95,5Zm-.74-27a6.32,6.32,0,0,1,1.79,4.69,6.39,6.39,0,0,1-1.73,4.63,6,6,0,0,1-4.53,1.73,6.19,6.19,0,0,1-4.57-1.73,7.26,7.26,0,0,1,.05-9.37,6.05,6.05,0,0,1,4.52-1.73,5.92,5.92,0,0,1,4.47,1.78Z"></path><rect class="cls-1" x="160.97" y="239.63" width="102.07" height="15.06"></rect><rect class="cls-4" x="160.97" y="239.63" width="102.07" height="15.06"></rect><rect class="cls-1" x="160.97" y="585.86" width="102.07" height="22.46"></rect><rect class="cls-4" x="160.97" y="585.86" width="102.07" height="22.46"></rect><rect class="cls-1" x="205.4" y="258.15" width="6.72" height="324.25"></rect><rect class="cls-4" x="205.4" y="258.15" width="6.72" height="324.24"></rect><line class="cls-4" x1="231.44" y1="578.08" x2="251.48" y2="558.03"></line><line class="cls-4" x1="231.44" y1="616.77" x2="251.48" y2="636.82"></line><line class="cls-4" x1="182.94" y1="578.08" x2="162.9" y2="558.03"></line><line class="cls-4" x1="182.94" y1="616.77" x2="162.9" y2="636.82"></line></svg> 