<?xml version="1.0" encoding="UTF-8"?> <svg xmlns="http://www.w3.org/2000/svg" id="Livello_1" data-name="Livello 1" viewBox="0 0 552 1000"><defs><style>.cls-1{fill:#fff;}.cls-2{fill:#231f20;}.cls-3,.cls-4{fill:none;stroke-width:0.25px;}.cls-3{stroke:#000;}.cls-4{stroke:#231f20;stroke-miterlimit:10;}</style></defs><title>Feel asta mini</title><rect class="cls-1" width="552" height="1000"></rect><path class="cls-2" d="M134.31.59h-1L114,7.57v7.51L125,11.66V47.49h9.29Zm44.62,6.92a10,10,0,0,0-3.1-4.08A13.28,13.28,0,0,0,171.16.86,20.7,20.7,0,0,0,165.23,0a21.52,21.52,0,0,0-6,.86,13.93,13.93,0,0,0-4.67,2.57,11.29,11.29,0,0,0-3.1,4.08,13.55,13.55,0,0,0-1.05,5.6,11,11,0,0,0,1.64,6.06,12,12,0,0,0,4.68,4.21,13.17,13.17,0,0,0-5.33,4.48,11.3,11.3,0,0,0-2.05,6.79,12.69,12.69,0,0,0,1.25,5.86,12.32,12.32,0,0,0,3.3,4.21A15.24,15.24,0,0,0,159,47.29a23.43,23.43,0,0,0,12.58,0,15.63,15.63,0,0,0,5-2.57,12.17,12.17,0,0,0,3.29-4.21A13.5,13.5,0,0,0,181,34.65a11.91,11.91,0,0,0-2-6.79,13.86,13.86,0,0,0-5.4-4.48,12.09,12.09,0,0,0,4.68-4.21,11.06,11.06,0,0,0,1.71-6.06,13.54,13.54,0,0,0-1.12-5.6Zm-9,31.35a6.19,6.19,0,0,1-4.74,1.78,7,7,0,0,1-2.7-.46,4.63,4.63,0,0,1-2-1.32,4.87,4.87,0,0,1-1.32-2.11,7.14,7.14,0,0,1-.46-2.76,7.68,7.68,0,0,1,.46-2.83,5.31,5.31,0,0,1,1.32-2.11,5.46,5.46,0,0,1,2-1.32,6.67,6.67,0,0,1,2.63-.46,7,7,0,0,1,2.7.46,5.46,5.46,0,0,1,2,1.32,6.23,6.23,0,0,1,1.32,2.11,7.68,7.68,0,0,1,.46,2.83A6.55,6.55,0,0,1,170,38.86Zm-.66-20.81a5.73,5.73,0,0,1-8.17,0,6.6,6.6,0,0,1-1.45-4.48,6.48,6.48,0,0,1,1.45-4.48,5.29,5.29,0,0,1,4.09-1.58,5.17,5.17,0,0,1,4.08,1.65,6.7,6.7,0,0,1,1.45,4.41,6.92,6.92,0,0,1-1.45,4.48Zm27.43,9.15h4.94a12.53,12.53,0,0,1,3.23.4,9.51,9.51,0,0,1,2.44,1.25A6.5,6.5,0,0,1,208.86,31a9.5,9.5,0,0,1,.53,3.23,7,7,0,0,1-.53,2.64,4.44,4.44,0,0,1-1.38,2,5,5,0,0,1-2.24,1.32,8.28,8.28,0,0,1-3,.46,7.3,7.3,0,0,1-2.7-.46,5.81,5.81,0,0,1-2.17-1.25,5.42,5.42,0,0,1-2-4.28h-9.28a12.25,12.25,0,0,0,1.38,6,12.54,12.54,0,0,0,3.62,4.22,15.81,15.81,0,0,0,5.07,2.5,22,22,0,0,0,5.87.79,23.46,23.46,0,0,0,6.58-.92,15.46,15.46,0,0,0,5.27-2.7,12.29,12.29,0,0,0,3.49-4.28,14,14,0,0,0,1.26-5.87,11,11,0,0,0-7.84-10.93,16.37,16.37,0,0,0,3-1.91,16.12,16.12,0,0,0,2.24-2.37,12.76,12.76,0,0,0,1.38-2.83,11.77,11.77,0,0,0,.46-3,13.52,13.52,0,0,0-1.19-5.8,11.74,11.74,0,0,0-3.22-4.14,15,15,0,0,0-5-2.57A24.48,24.48,0,0,0,202.08,0a19.84,19.84,0,0,0-6,.92,16.37,16.37,0,0,0-4.87,2.57,13,13,0,0,0-3.3,4,11.69,11.69,0,0,0-1.18,5.27H196a4.83,4.83,0,0,1,.52-2.18A4.69,4.69,0,0,1,197.86,9a5.51,5.51,0,0,1,2-1.06,7,7,0,0,1,2.37-.39,7.32,7.32,0,0,1,2.84.46,4.94,4.94,0,0,1,2,1.25,4.78,4.78,0,0,1,1.19,1.91,7,7,0,0,1,.39,2.37A6.49,6.49,0,0,1,207,18.18,7.07,7.07,0,0,1,201.68,20h-4.94ZM247.62.59h-1l-19.36,7v7.51l11.06-3.42V47.49h9.29Zm33.69,23.12H263.19v7.45h18.12ZM320.47,40H300.32l8.23-8.69c1.58-1.65,3-3.16,4.28-4.68a31.5,31.5,0,0,0,3.29-4.41,21.36,21.36,0,0,0,2.05-4.35,13.34,13.34,0,0,0,.79-4.54,15.32,15.32,0,0,0-1-5.6,11.25,11.25,0,0,0-3-4.15A13.25,13.25,0,0,0,310.26.92,22.15,22.15,0,0,0,303.68,0a17.4,17.4,0,0,0-6.79,1.25,15.07,15.07,0,0,0-5.07,3.29,14.5,14.5,0,0,0-3.29,4.88,16.59,16.59,0,0,0-1.12,6h9.35a9.38,9.38,0,0,1,.46-3.16,7.43,7.43,0,0,1,1.25-2.5,6,6,0,0,1,2.18-1.65,6.53,6.53,0,0,1,2.89-.59A5.69,5.69,0,0,1,308,9.29a7.13,7.13,0,0,1,1.58,4.94,6,6,0,0,1-.33,2.11,11.17,11.17,0,0,1-1,2.37,19.85,19.85,0,0,1-1.91,2.83,39.72,39.72,0,0,1-2.9,3.42L288.33,41.1v6.39h32.14ZM348.69.59h-1l-19.36,7v7.51l11.06-3.42V47.49h9.29Z"></path><path class="cls-2" d="M177.4,100.45v34.78h3.89V111.39a17.63,17.63,0,0,1,1.25-3.1,13.21,13.21,0,0,1,2-2.63,11.2,11.2,0,0,1,3-1.85,9.67,9.67,0,0,1,3.82-.66,11.79,11.79,0,0,1,3.49.46,6.52,6.52,0,0,1,2.63,1.45,6.61,6.61,0,0,1,1.78,2.84,14,14,0,0,1,.59,4.34v23h3.89v-23a9.21,9.21,0,0,1,.79-3.1,12.51,12.51,0,0,1,2-2.9,11.18,11.18,0,0,1,3.16-2.17,9.45,9.45,0,0,1,4.21-.86,13.35,13.35,0,0,1,3.43.4,5.82,5.82,0,0,1,2.7,1.51,7.06,7.06,0,0,1,1.78,2.9,14.82,14.82,0,0,1,.59,4.55v22.72h3.82V112.57a19,19,0,0,0-.72-5.79,9.73,9.73,0,0,0-2.24-4,8.41,8.41,0,0,0-3.63-2.3,15.38,15.38,0,0,0-4.81-.73,14.49,14.49,0,0,0-3.88.53,13.27,13.27,0,0,0-3.29,1.38,12.36,12.36,0,0,0-2.71,2.18,15.69,15.69,0,0,0-2,2.63,9.18,9.18,0,0,0-3.89-5.14,13,13,0,0,0-6.58-1.58,12.53,12.53,0,0,0-3.56.46,11.86,11.86,0,0,0-3.1,1.26,9.45,9.45,0,0,0-2.57,2,13.28,13.28,0,0,0-2,2.64l-.13-5.67Zm62.85,0h-3.89v34.78h3.89Zm-3.89-8.23a2.81,2.81,0,0,0,2,.72,2.64,2.64,0,0,0,1.91-.72,2.46,2.46,0,0,0,.72-1.85,2.36,2.36,0,0,0-.72-1.84,2.42,2.42,0,0,0-1.91-.79,2.58,2.58,0,0,0-2,.79,2.54,2.54,0,0,0-.66,1.84,2.66,2.66,0,0,0,.66,1.85Zm14.28,8.23v34.78h3.82V111.39a14.33,14.33,0,0,1,1.52-3,10.61,10.61,0,0,1,2.17-2.7,11.14,11.14,0,0,1,3-1.85,9.84,9.84,0,0,1,3.76-.66,11.28,11.28,0,0,1,3.42.46,5.67,5.67,0,0,1,2.57,1.52,7.73,7.73,0,0,1,1.65,2.9,15.07,15.07,0,0,1,.59,4.54v22.66h3.82V112.57a19.06,19.06,0,0,0-.79-5.86,10.9,10.9,0,0,0-2.17-3.95,8.15,8.15,0,0,0-3.49-2.24,14.75,14.75,0,0,0-8.24-.27,14.38,14.38,0,0,0-3.09,1.32,13.59,13.59,0,0,0-4.68,4.81l-.13-5.93Zm40.47,0h-3.88v34.78h3.88Zm-3.88-8.23a2.78,2.78,0,0,0,2,.72,2.64,2.64,0,0,0,1.91-.72,2.43,2.43,0,0,0,.73-1.85,2.33,2.33,0,0,0-.73-1.84,2.42,2.42,0,0,0-1.91-.79,2.49,2.49,0,0,0-2.63,2.63,2.66,2.66,0,0,0,.66,1.85Z"></path><path class="cls-3" d="M171.93,489.68H280.52m84.34-243.09V433.12"></path><path d="M431.48,349.05l-1-1.26a7.81,7.81,0,0,1-1.37-4.89,6.87,6.87,0,0,1,2.26-5.42,8.68,8.68,0,0,1,6.05-2.05,9.44,9.44,0,0,1,6.21,1.89,6.39,6.39,0,0,1,2.26,5.21,7,7,0,0,1-1.63,4.89,7.52,7.52,0,0,1-4.84,2.27v4.52a11,11,0,0,0,7.63-3.58,11.79,11.79,0,0,0,2.73-8.1c0-3.73-1.1-6.63-3.31-8.73s-5.26-3.11-9.1-3.11-6.89,1-9.16,3a10.31,10.31,0,0,0-3.36,8.1,11.83,11.83,0,0,0,1.63,6.27L416.28,347V331.8h-4.42V351l18.68,1.89Zm13.9-48.1v18.78l-10.9-10c-5.05-4.74-9.47-7.05-13.15-7.05a9.43,9.43,0,0,0-7.26,3,11.9,11.9,0,0,0-2.74,8.27,12.17,12.17,0,0,0,3.21,8.89,10.85,10.85,0,0,0,8.32,3.36v-4.78a7.77,7.77,0,0,1-5.63-1.95,7.47,7.47,0,0,1-2-5.52,6.27,6.27,0,0,1,1.89-4.74,6.69,6.69,0,0,1,4.79-1.74,9,9,0,0,1,4.21,1.06,28.9,28.9,0,0,1,5.31,4l14.42,13h3.42V301Z"></path><path d="M193.77,572l-2.58,5.2h3.21l1.89-3.84a13.31,13.31,0,0,0,4.9.9,12.48,12.48,0,0,0,6.57-1.74,12.3,12.3,0,0,0,4.48-5,16.61,16.61,0,0,0,1.58-7.31c0-5.47-1.69-9.58-5-12.21l2.63-5.26h-3.21l-1.84,3.84a12.52,12.52,0,0,0-5.26-1.1,12.1,12.1,0,0,0-6.58,1.78,11.94,11.94,0,0,0-4.47,5.06,16.26,16.26,0,0,0-1.58,7.31c0,5.73,1.79,9.84,5.26,12.42Zm1.68-19.89a6.85,6.85,0,0,1,5.69-2.79,7,7,0,0,1,3.42.84L195.77,568c-1.69-2-2.47-4.53-2.47-7.84,0-3.47.68-6.16,2.15-8ZM209,560a12.34,12.34,0,0,1-2.11,7.58,7,7,0,0,1-5.73,2.79,7.49,7.49,0,0,1-3.11-.64l8.74-17.67a11.94,11.94,0,0,1,2.21,7.52Zm25.69-23.83H234l-13.62,5.1v4.31l9.57-3.52v31.67h4.79Zm33.58,2.42a12.78,12.78,0,0,0-15.94,0,9.66,9.66,0,0,0-3.05,7.47,8.73,8.73,0,0,0,1.47,5,10.39,10.39,0,0,0,3.9,3.42,9.85,9.85,0,0,0-4.58,3.68,9.5,9.5,0,0,0-1.63,5.47,9.87,9.87,0,0,0,3.21,7.73,14.37,14.37,0,0,0,17.31,0,9.79,9.79,0,0,0,3.26-7.73,9.14,9.14,0,0,0-1.74-5.47,10.37,10.37,0,0,0-4.63-3.68,10.21,10.21,0,0,0,4-3.42,8.62,8.62,0,0,0,1.47-5,9.46,9.46,0,0,0-3.05-7.47Zm-2.73,29.93a8.33,8.33,0,0,1-10.47,0,6.59,6.59,0,0,1-1.9-5,7,7,0,0,1,2-5.16,6.81,6.81,0,0,1,5.16-2,7.23,7.23,0,0,1,5.2,2,6.89,6.89,0,0,1,2,5.11,6.65,6.65,0,0,1-1.94,5Zm-.74-27a7,7,0,0,1,.05,9.31,6,6,0,0,1-4.52,1.74,6.18,6.18,0,0,1-4.58-1.74,7.28,7.28,0,0,1,.05-9.36,6.07,6.07,0,0,1,4.53-1.74,6,6,0,0,1,4.47,1.79Z"></path><rect class="cls-1" x="174.87" y="409.57" width="102.04" height="22.45"></rect><rect class="cls-4" x="174.87" y="409.57" width="102.04" height="22.45"></rect><rect class="cls-1" x="173.01" y="237.45" width="100.19" height="15.05"></rect><rect class="cls-4" x="173.01" y="237.45" width="100.19" height="15.05"></rect><rect class="cls-1" x="221.14" y="255.95" width="9.49" height="148.31"></rect><rect class="cls-4" x="221.14" y="255.95" width="9.49" height="148.31"></rect><line class="cls-4" x1="250.63" y1="401.23" x2="270.67" y2="381.18"></line><line class="cls-4" x1="250.63" y1="439.92" x2="270.67" y2="459.97"></line><line class="cls-4" x1="202.13" y1="401.23" x2="182.09" y2="381.18"></line><line class="cls-4" x1="202.13" y1="439.92" x2="182.09" y2="459.97"></line></svg> 