<?xml version="1.0" encoding="UTF-8"?> <svg xmlns="http://www.w3.org/2000/svg" id="Livello_1" data-name="Livello 1" viewBox="0 0 552 1000"><defs><style>.cls-1{fill:#fff;}.cls-2{fill:#231f20;}.cls-3,.cls-4{fill:none;stroke-width:0.25px;}.cls-3{stroke:#000;}.cls-4{stroke:#231f20;stroke-miterlimit:10;}</style></defs><title>Feel asta medium cieca</title><rect class="cls-1" width="552" height="1000"></rect><path class="cls-2" d="M130.38.57h-.95L110.65,7.34v7.28l10.73-3.32V46h9Zm43.26,6.71a9.72,9.72,0,0,0-3-4A12.91,12.91,0,0,0,166.11.83,20.2,20.2,0,0,0,160.36,0a21,21,0,0,0-5.81.83A13.41,13.41,0,0,0,150,3.32a11.12,11.12,0,0,0-3,4,13.09,13.09,0,0,0-1,5.43,10.62,10.62,0,0,0,1.6,5.87,11.66,11.66,0,0,0,4.53,4.09A12.8,12.8,0,0,0,147,27a11,11,0,0,0-2,6.58,12.23,12.23,0,0,0,1.21,5.68,11.8,11.8,0,0,0,3.2,4.09,15,15,0,0,0,4.91,2.49,22.83,22.83,0,0,0,12.2,0,15.35,15.35,0,0,0,4.85-2.49,11.78,11.78,0,0,0,3.19-4.09,13,13,0,0,0,1.15-5.68A11.53,11.53,0,0,0,173.77,27a13.42,13.42,0,0,0-5.24-4.34,11.69,11.69,0,0,0,4.54-4.09,10.74,10.74,0,0,0,1.66-5.87,13.08,13.08,0,0,0-1.09-5.43ZM165,37.67a6,6,0,0,1-4.6,1.73,6.83,6.83,0,0,1-2.62-.45,4.51,4.51,0,0,1-2-1.28,4.9,4.9,0,0,1-1.28-2A6.92,6.92,0,0,1,154,33a7.53,7.53,0,0,1,.44-2.75,5.46,5.46,0,0,1,1.28-2,5.34,5.34,0,0,1,2-1.28,6.51,6.51,0,0,1,2.55-.44,6.8,6.8,0,0,1,2.62.44,5.34,5.34,0,0,1,2,1.28,6.18,6.18,0,0,1,1.28,2,7.53,7.53,0,0,1,.45,2.75A6.35,6.35,0,0,1,165,37.67Zm-.64-20.17a5.55,5.55,0,0,1-7.92,0A6.36,6.36,0,0,1,155,13.15a6.23,6.23,0,0,1,1.41-4.34,5.1,5.1,0,0,1,4-1.53,5,5,0,0,1,4,1.6,6.5,6.5,0,0,1,1.4,4.27,6.73,6.73,0,0,1-1.4,4.35Zm26.59,8.87h4.79a11.82,11.82,0,0,1,3.13.39A8.9,8.9,0,0,1,201.19,28a6.16,6.16,0,0,1,1.47,2.11,9.1,9.1,0,0,1,.51,3.12,6.76,6.76,0,0,1-.51,2.56,4.4,4.4,0,0,1-1.34,1.91A4.87,4.87,0,0,1,199.15,39a8,8,0,0,1-2.88.45,7,7,0,0,1-2.62-.45,5.58,5.58,0,0,1-2.1-1.21A5.44,5.44,0,0,1,190.14,36a5.57,5.57,0,0,1-.51-2.36h-9A11.91,11.91,0,0,0,182,39.4a12.09,12.09,0,0,0,3.51,4.09,15.49,15.49,0,0,0,4.92,2.42,21.43,21.43,0,0,0,5.68.77,22.53,22.53,0,0,0,6.39-.9,14.79,14.79,0,0,0,5.11-2.61A12.06,12.06,0,0,0,211,39a13.46,13.46,0,0,0,1.21-5.69,10.61,10.61,0,0,0-7.6-10.6,15.09,15.09,0,0,0,2.94-1.85,14.7,14.7,0,0,0,2.17-2.3A12,12,0,0,0,211,15.84a11.07,11.07,0,0,0,.45-2.88,13.16,13.16,0,0,0-1.15-5.62,11.57,11.57,0,0,0-3.13-4A14.36,14.36,0,0,0,202.34.83,24,24,0,0,0,196.08,0a19.26,19.26,0,0,0-5.81.89,16,16,0,0,0-4.72,2.49,12.58,12.58,0,0,0-3.2,3.9,11.41,11.41,0,0,0-1.15,5.11h9A4.9,4.9,0,0,1,192,8.68a5.48,5.48,0,0,1,2-1,6.85,6.85,0,0,1,2.3-.38,7.08,7.08,0,0,1,2.75.45,4.89,4.89,0,0,1,1.91,1.21,4.44,4.44,0,0,1,1.15,1.85,6.57,6.57,0,0,1,.39,2.3,6.29,6.29,0,0,1-1.66,4.53,6.87,6.87,0,0,1-5.11,1.73h-4.79ZM240.23.57h-.95L220.5,7.34v7.28l10.73-3.32V46h9ZM272.89,23H255.33V30.2h17.56Zm13.19,16v7.54h.71a26,26,0,0,0,10.15-1.79,18.89,18.89,0,0,0,7.21-5.05,20.65,20.65,0,0,0,4.35-7.79,34.17,34.17,0,0,0,1.4-10.15V18.52A23.82,23.82,0,0,0,308.82,11a17.25,17.25,0,0,0-3.07-5.87,14,14,0,0,0-4.85-3.77A14.82,14.82,0,0,0,294.58,0a15.35,15.35,0,0,0-6.33,1.28,14,14,0,0,0-4.78,3.51,14.3,14.3,0,0,0-3.07,5,18.51,18.51,0,0,0-1.09,6.26,20.67,20.67,0,0,0,.83,6.07A14.36,14.36,0,0,0,282.7,27a12.89,12.89,0,0,0,4.15,3.25,13.54,13.54,0,0,0,5.75,1.15,10.77,10.77,0,0,0,4.47-1,12.27,12.27,0,0,0,3.7-2.5,13.21,13.21,0,0,1-1.15,4.73,9,9,0,0,1-2.68,3.45,12.25,12.25,0,0,1-4.28,2.17,22.83,22.83,0,0,1-5.94.7Zm5.81-15.13a6.34,6.34,0,0,1-2-1.85,7.52,7.52,0,0,1-1.21-2.69,13.76,13.76,0,0,1-.38-3.32,13.52,13.52,0,0,1,.38-3.19A8.2,8.2,0,0,1,289.91,10a5.48,5.48,0,0,1,1.92-1.91,4.66,4.66,0,0,1,2.68-.77,6,6,0,0,1,2.56.57,7.92,7.92,0,0,1,2,1.79,9.75,9.75,0,0,1,1.34,3.07,16.36,16.36,0,0,1,.45,4.21v3.71a7.51,7.51,0,0,1-2.36,2.74,6.6,6.6,0,0,1-3.77,1.09,5.94,5.94,0,0,1-2.88-.64Zm53-16.54a9.72,9.72,0,0,0-3-4A12.87,12.87,0,0,0,337.32.83,20.13,20.13,0,0,0,331.58,0a20.9,20.9,0,0,0-5.81.83,13.41,13.41,0,0,0-4.54,2.49,11,11,0,0,0-3,4,13.09,13.09,0,0,0-1,5.43,10.7,10.7,0,0,0,1.59,5.87,11.69,11.69,0,0,0,4.54,4.09A12.73,12.73,0,0,0,318.17,27a11,11,0,0,0-2,6.58,12.23,12.23,0,0,0,1.21,5.68,11.89,11.89,0,0,0,3.19,4.09,15.1,15.1,0,0,0,4.92,2.49,22.83,22.83,0,0,0,12.2,0,15.46,15.46,0,0,0,4.85-2.49,11.78,11.78,0,0,0,3.19-4.09,13,13,0,0,0,1.15-5.68A11.6,11.6,0,0,0,345,27a13.49,13.49,0,0,0-5.24-4.34,11.59,11.59,0,0,0,4.53-4.09,10.66,10.66,0,0,0,1.66-5.87,13.08,13.08,0,0,0-1.08-5.43Zm-8.69,30.39a6,6,0,0,1-4.59,1.73A6.8,6.8,0,0,1,329,39a4.51,4.51,0,0,1-2-1.28,4.8,4.8,0,0,1-1.28-2,6.91,6.91,0,0,1-.45-2.68,7.53,7.53,0,0,1,.45-2.75A5.5,5.5,0,0,1,329,26.88a6.44,6.44,0,0,1,2.55-.44,6.83,6.83,0,0,1,2.62.44,5.34,5.34,0,0,1,2,1.28,6.35,6.35,0,0,1,1.28,2,7.53,7.53,0,0,1,.44,2.75,6.35,6.35,0,0,1-1.66,4.72Zm-.63-20.17a5.55,5.55,0,0,1-7.92,0,6.36,6.36,0,0,1-1.41-4.35,6.23,6.23,0,0,1,1.41-4.34,5.09,5.09,0,0,1,4-1.53,5,5,0,0,1,4,1.6,6.5,6.5,0,0,1,1.4,4.27,6.73,6.73,0,0,1-1.4,4.35Z"></path><path class="cls-2" d="M116.84,97.38V131.1h3.77V108a17.6,17.6,0,0,1,1.21-3,12.43,12.43,0,0,1,2-2.55,10.87,10.87,0,0,1,2.87-1.79,9.33,9.33,0,0,1,3.71-.64,11.38,11.38,0,0,1,3.38.45,6.13,6.13,0,0,1,2.55,1.4A6.27,6.27,0,0,1,138,104.6a13.52,13.52,0,0,1,.57,4.21V131.1h3.77V108.75a9.11,9.11,0,0,1,.77-3,12.33,12.33,0,0,1,1.91-2.81,11,11,0,0,1,3.07-2.11,9.22,9.22,0,0,1,4.09-.83,13.47,13.47,0,0,1,3.32.38,5.63,5.63,0,0,1,2.61,1.47,6.8,6.8,0,0,1,1.73,2.81,14.31,14.31,0,0,1,.57,4.41v22h3.71v-22a18.25,18.25,0,0,0-.71-5.62,9.3,9.3,0,0,0-2.17-3.83,8,8,0,0,0-3.51-2.23,14.81,14.81,0,0,0-4.66-.71,14.55,14.55,0,0,0-3.77.51,12.81,12.81,0,0,0-3.19,1.35,11.74,11.74,0,0,0-2.62,2.1,14.83,14.83,0,0,0-1.91,2.56,8.87,8.87,0,0,0-3.77-5,12.55,12.55,0,0,0-6.39-1.54,11.9,11.9,0,0,0-3.45.45,11.71,11.71,0,0,0-3,1.21,9.1,9.1,0,0,0-2.49,1.92,13.8,13.8,0,0,0-2,2.55l-.13-5.49Zm73.89,33.85a11.19,11.19,0,0,0,3.32-1.28,10.85,10.85,0,0,0,2.55-1.85,16.59,16.59,0,0,0,2-2.37L196.22,124a11,11,0,0,1-4.15,3.45,11.82,11.82,0,0,1-5.3,1.08,10.7,10.7,0,0,1-4.73-1,11.49,11.49,0,0,1-3.64-2.87,13,13,0,0,1-2.36-4.22,15.88,15.88,0,0,1-.83-5.23v-.7h24.07v-2.3a21.21,21.21,0,0,0-.89-6.2,13.74,13.74,0,0,0-2.55-4.91,12.28,12.28,0,0,0-4.22-3.2,13.36,13.36,0,0,0-5.68-1.15A12.51,12.51,0,0,0,180.45,98a14.91,14.91,0,0,0-4.6,3.45,15.75,15.75,0,0,0-3.19,5.36,20.56,20.56,0,0,0-1.15,7.09v1.34a18.52,18.52,0,0,0,1.15,6.64,14.76,14.76,0,0,0,3.13,5.24,13.48,13.48,0,0,0,4.78,3.38,14.6,14.6,0,0,0,6.07,1.28,15.94,15.94,0,0,0,4.09-.51Zm-.64-30.4a10.27,10.27,0,0,1,3,2.43,11.2,11.2,0,0,1,1.79,3.51,14.61,14.61,0,0,1,.7,4.15v.38H175.34a17.4,17.4,0,0,1,1.21-4.66,11.68,11.68,0,0,1,2.24-3.57A11,11,0,0,1,182,100.7a10.16,10.16,0,0,1,4-.76,9.53,9.53,0,0,1,4.15.89Zm15,13.73a23.85,23.85,0,0,0,.9,7,17.15,17.15,0,0,0,2.55,5.43,12.58,12.58,0,0,0,4.09,3.51,11.72,11.72,0,0,0,5.43,1.28,13.54,13.54,0,0,0,6.25-1.34,12.83,12.83,0,0,0,4.28-3.77l.13,4.47h3.51V83.21h-3.7v18.9a12.75,12.75,0,0,0-4.28-4,12.4,12.4,0,0,0-6.13-1.41A11.55,11.55,0,0,0,212.66,98a12,12,0,0,0-4.15,3.45,17.09,17.09,0,0,0-2.55,5.42,24.44,24.44,0,0,0-.9,7.09Zm3.77-.64a24.53,24.53,0,0,1,.58-5.49,14,14,0,0,1,1.78-4.41,8.6,8.6,0,0,1,3.13-2.93,8.29,8.29,0,0,1,4.47-1.09,12.07,12.07,0,0,1,3.58.51,10.15,10.15,0,0,1,2.74,1.47,8.71,8.71,0,0,1,2,2.11,13.7,13.7,0,0,1,1.41,2.49v15.83a15,15,0,0,1-1.53,2.43,8.29,8.29,0,0,1-2.05,1.92,10,10,0,0,1-2.74,1.27,12.18,12.18,0,0,1-3.45.45,8.75,8.75,0,0,1-7.54-4,13.94,13.94,0,0,1-1.78-4.41,24.15,24.15,0,0,1-.58-5.49Zm37.39-16.54h-3.77V131.1h3.77Zm-3.77-8a2.68,2.68,0,0,0,1.91.7,2.56,2.56,0,0,0,1.86-.7,2.36,2.36,0,0,0,.7-1.79,2.28,2.28,0,0,0-.7-1.79,2.38,2.38,0,0,0-1.86-.76,2.4,2.4,0,0,0-2.55,2.55,2.56,2.56,0,0,0,.64,1.79Zm35.62,41.7h3.63V97.38h-3.76v24.4a13.22,13.22,0,0,1-1.28,2.68,7,7,0,0,1-2,2.1,8.76,8.76,0,0,1-3,1.41,14.22,14.22,0,0,1-4,.51,9.4,9.4,0,0,1-3-.45,6.27,6.27,0,0,1-2.5-1.59,7.86,7.86,0,0,1-1.66-2.88,15.26,15.26,0,0,1-.63-4.53V97.38h-3.71V119a17.75,17.75,0,0,0,.83,5.87,10.29,10.29,0,0,0,2.24,4,9.21,9.21,0,0,0,3.51,2.23,14.25,14.25,0,0,0,4.53.71,14.52,14.52,0,0,0,6.52-1.34,10.92,10.92,0,0,0,4.21-3.58Zm13.05-33.72V131.1h3.77V108a17.6,17.6,0,0,1,1.21-3,12.79,12.79,0,0,1,2-2.55,10.87,10.87,0,0,1,2.87-1.79,9.36,9.36,0,0,1,3.71-.64,11.38,11.38,0,0,1,3.38.45,6.23,6.23,0,0,1,2.56,1.4,6.35,6.35,0,0,1,1.72,2.75,13.49,13.49,0,0,1,.58,4.21V131.1h3.76V108.75a9.11,9.11,0,0,1,.77-3,12.06,12.06,0,0,1,1.92-2.81,11,11,0,0,1,3.06-2.11,9.22,9.22,0,0,1,4.09-.83,13.47,13.47,0,0,1,3.32.38,5.72,5.72,0,0,1,2.62,1.47,6.89,6.89,0,0,1,1.72,2.81,14.31,14.31,0,0,1,.57,4.41v22h3.71v-22a18.28,18.28,0,0,0-.7-5.62,9.43,9.43,0,0,0-2.18-3.83,8,8,0,0,0-3.51-2.23,14.81,14.81,0,0,0-4.66-.71,14.55,14.55,0,0,0-3.77.51,12.81,12.81,0,0,0-3.19,1.35,11.74,11.74,0,0,0-2.62,2.1,14.83,14.83,0,0,0-1.91,2.56,8.87,8.87,0,0,0-3.77-5,12.55,12.55,0,0,0-6.39-1.54,11.79,11.79,0,0,0-3.44.45,11.64,11.64,0,0,0-3,1.21,9.42,9.42,0,0,0-2.49,1.92,13.8,13.8,0,0,0-2,2.55l-.12-5.49Z"></path><path class="cls-3" d="M167.15,645.61H272.43m99.41-416.48V590.79"></path><path d="M446.77,405.39c1.89,2,2.91,4.95,3,8.78v1h3.93v-.92c-.1-5.61-1.74-9.8-5-12.6s-8.37-4.18-15.46-4.18h-1.32c-4.64,0-8.32,1-11,3.11a10,10,0,0,0-4,8.46,11.22,11.22,0,0,0,1.53,5.92,10.29,10.29,0,0,0,4.49,3.93,15.09,15.09,0,0,0,6.53,1.38A14.32,14.32,0,0,0,435.6,419a9.9,9.9,0,0,0,4.39-3.57,9.77,9.77,0,0,0,1.53-5.46,9.36,9.36,0,0,0-1.07-4.43,10.45,10.45,0,0,0-2.76-3.42c4.13.15,7.14,1.27,9.08,3.31Zm-11.47,8.52a11.14,11.14,0,0,1-12.19-.05,6,6,0,0,1-2.3-4.9,5.81,5.81,0,0,1,2.81-4.94,12.44,12.44,0,0,1,7.34-2h1.84a8.6,8.6,0,0,1,3.47,2.85,7.17,7.17,0,0,1,1.42,4.29,5.61,5.61,0,0,1-2.39,4.74Zm-17.91-46.28v24.49h3.78V372.53l32.49,14.94v-4.84l-33.67-15Z"></path><path d="M188.33,725.41l-2.5,5.05h3.11l1.83-3.72a12.91,12.91,0,0,0,4.75.87,12.06,12.06,0,0,0,6.37-1.69,11.87,11.87,0,0,0,4.34-4.89,16.07,16.07,0,0,0,1.53-7.09c0-5.31-1.63-9.29-4.85-11.84l2.55-5.1h-3.11l-1.78,3.73a12.11,12.11,0,0,0-5.1-1.07,11.77,11.77,0,0,0-6.38,1.73,11.51,11.51,0,0,0-4.33,4.9,15.89,15.89,0,0,0-1.54,7.09c0,5.56,1.74,9.54,5.11,12ZM190,706.13a6.64,6.64,0,0,1,5.51-2.7,6.8,6.8,0,0,1,3.31.82l-8.52,17.29c-1.63-1.89-2.39-4.39-2.39-7.6,0-3.37.66-6,2.09-7.81Zm13.16,7.66a12,12,0,0,1-2,7.34,6.78,6.78,0,0,1-5.56,2.7,7.2,7.2,0,0,1-3-.61L201,706.08a11.66,11.66,0,0,1,2.14,7.3ZM228,690.68h-.71l-13.21,5v4.18l9.28-3.42V727.1H228ZM260.58,693a12.37,12.37,0,0,0-15.45,0,9.36,9.36,0,0,0-3,7.24,8.42,8.42,0,0,0,1.43,4.84,9.9,9.9,0,0,0,3.77,3.32,9.65,9.65,0,0,0-4.44,3.57,9.27,9.27,0,0,0-1.58,5.3,9.58,9.58,0,0,0,3.11,7.5,13.95,13.95,0,0,0,16.79,0,9.47,9.47,0,0,0,3.16-7.5,8.81,8.81,0,0,0-1.69-5.3,10.15,10.15,0,0,0-4.48-3.57,9.87,9.87,0,0,0,3.87-3.32,8.31,8.31,0,0,0,1.43-4.84,9.19,9.19,0,0,0-3-7.24Zm-2.65,29a8.12,8.12,0,0,1-10.15,0,6.46,6.46,0,0,1-1.84-4.85,6.8,6.8,0,0,1,1.89-5,6.63,6.63,0,0,1,5-1.88,7,7,0,0,1,5,1.93,6.72,6.72,0,0,1,1.94,5,6.49,6.49,0,0,1-1.89,4.85Zm-.71-26.22a6.83,6.83,0,0,1,0,9,5.81,5.81,0,0,1-4.39,1.68,6,6,0,0,1-4.44-1.68,7.05,7.05,0,0,1,.05-9.08,5.9,5.9,0,0,1,4.39-1.68,5.8,5.8,0,0,1,4.34,1.73Z"></path><rect class="cls-1" x="171.35" y="232.31" width="98.95" height="14.6"></rect><rect class="cls-4" x="171.35" y="232.31" width="98.95" height="14.6"></rect><rect class="cls-1" x="168.13" y="566.36" width="98.95" height="3.51"></rect><rect class="cls-4" x="168.13" y="566.36" width="98.95" height="3.51"></rect><rect class="cls-1" x="214.43" y="250.26" width="6.52" height="314.34"></rect><rect class="cls-4" x="214.43" y="250.26" width="6.52" height="314.33"></rect></svg> 