<?xml version="1.0" encoding="UTF-8"?> <svg xmlns="http://www.w3.org/2000/svg" id="Livello_1" data-name="Livello 1" viewBox="0 0 767.29 1000"><defs><style>.cls-1{fill:#fff;}.cls-2{fill:#231f20;}.cls-3,.cls-4{fill:none;stroke-width:0.25px;}.cls-3{stroke:#000;}.cls-4{stroke:#231f20;stroke-miterlimit:10;}</style></defs><title>Feel disco large</title><rect class="cls-1" width="767.29" height="1000"></rect><path class="cls-2" d="M272,.61h-1l-20,7.23v7.77l11.45-3.55V49.14H272Zm46.18,7.16a10.47,10.47,0,0,0-3.21-4.23A13.93,13.93,0,0,0,310.11.89,21.41,21.41,0,0,0,304,0a22.15,22.15,0,0,0-6.2.89,14.54,14.54,0,0,0-4.84,2.65,12,12,0,0,0-3.21,4.23,14,14,0,0,0-1.09,5.79,11.43,11.43,0,0,0,1.71,6.28,12.48,12.48,0,0,0,4.84,4.36,13.64,13.64,0,0,0-5.52,4.63,11.74,11.74,0,0,0-2.12,7,13,13,0,0,0,1.3,6.07,12.71,12.71,0,0,0,3.41,4.36,15.74,15.74,0,0,0,5.25,2.66,24.22,24.22,0,0,0,13,0,16.08,16.08,0,0,0,5.18-2.66,12.59,12.59,0,0,0,3.41-4.36,13.93,13.93,0,0,0,1.23-6.07,12.27,12.27,0,0,0-2.05-7,14.37,14.37,0,0,0-5.58-4.63,12.45,12.45,0,0,0,4.83-4.36,11.47,11.47,0,0,0,1.78-6.28,13.94,13.94,0,0,0-1.16-5.79Zm-9.27,32.45A6.46,6.46,0,0,1,304,42.06a7.27,7.27,0,0,1-2.79-.48,5,5,0,0,1-2.12-1.36A5.22,5.22,0,0,1,297.7,38a7.39,7.39,0,0,1-.48-2.86,8,8,0,0,1,.48-2.93,5.58,5.58,0,0,1,1.36-2.18,5.74,5.74,0,0,1,2.12-1.36,6.91,6.91,0,0,1,2.72-.48,7.35,7.35,0,0,1,2.8.48,5.78,5.78,0,0,1,2.11,1.36,6.53,6.53,0,0,1,1.36,2.18,8,8,0,0,1,.48,2.93,6.83,6.83,0,0,1-1.77,5Zm-.68-21.54a5.94,5.94,0,0,1-8.46,0,6.8,6.8,0,0,1-1.5-4.64,6.65,6.65,0,0,1,1.5-4.63A5.47,5.47,0,0,1,304,7.77a5.4,5.4,0,0,1,4.23,1.7A7,7,0,0,1,309.7,14a7.17,7.17,0,0,1-1.5,4.64Zm28.38,9.47h5.11a12.89,12.89,0,0,1,3.34.41,9.87,9.87,0,0,1,2.53,1.29,6.82,6.82,0,0,1,1.56,2.25,9.85,9.85,0,0,1,.55,3.34,7.23,7.23,0,0,1-.55,2.73,4.7,4.7,0,0,1-1.43,2,5.21,5.21,0,0,1-2.32,1.36,8.48,8.48,0,0,1-3.06.48,7.56,7.56,0,0,1-2.8-.48,6.11,6.11,0,0,1-2.25-1.3,5.88,5.88,0,0,1-1.5-1.9,6,6,0,0,1-.54-2.53h-9.61A12.61,12.61,0,0,0,327,42.06a12.87,12.87,0,0,0,3.75,4.36A16.52,16.52,0,0,0,336,49a23,23,0,0,0,6.06.82,24,24,0,0,0,6.82-1,16,16,0,0,0,5.45-2.79A12.73,12.73,0,0,0,358,41.65a14.42,14.42,0,0,0,1.3-6.07,11.35,11.35,0,0,0-8.11-11.31,16.3,16.3,0,0,0,3.13-2,15.73,15.73,0,0,0,2.32-2.45,13.08,13.08,0,0,0,1.43-2.94,12,12,0,0,0,.48-3.06,14,14,0,0,0-1.23-6A12.22,12.22,0,0,0,354,3.54,15.55,15.55,0,0,0,348.78.89,25.28,25.28,0,0,0,342.1,0a20.48,20.48,0,0,0-6.2,1,17,17,0,0,0-5,2.66,13.22,13.22,0,0,0-3.41,4.16,12.08,12.08,0,0,0-1.23,5.45h9.61a5.05,5.05,0,0,1,.55-2.25,4.81,4.81,0,0,1,1.36-1.7,5.51,5.51,0,0,1,2.11-1.09,7.21,7.21,0,0,1,2.46-.41,7.56,7.56,0,0,1,2.93.48,5.21,5.21,0,0,1,2,1.29,4.83,4.83,0,0,1,1.23,2,7.2,7.2,0,0,1,.41,2.45,6.72,6.72,0,0,1-1.77,4.84c-1.23,1.23-3,1.84-5.46,1.84h-5.11ZM389.23.61h-1l-20,7.23v7.77l11.45-3.55V49.14h9.61Zm34.86,23.93H405.35v7.7h18.74Zm14.08,17v8h.75a27.67,27.67,0,0,0,10.84-1.91,20.21,20.21,0,0,0,7.7-5.38A22,22,0,0,0,462.1,34a36.26,36.26,0,0,0,1.5-10.83V19.77a25.23,25.23,0,0,0-1.16-8,18.42,18.42,0,0,0-3.27-6.27,15.13,15.13,0,0,0-5.18-4A15.86,15.86,0,0,0,447.24,0a16.46,16.46,0,0,0-6.75,1.36,15.14,15.14,0,0,0-5.11,3.75,15.45,15.45,0,0,0-3.27,5.39A19.62,19.62,0,0,0,431,17.18a22,22,0,0,0,.88,6.47,15.34,15.34,0,0,0,2.73,5.11A13.88,13.88,0,0,0,439,32.24a14.47,14.47,0,0,0,6.14,1.23,11.35,11.35,0,0,0,4.77-1,13.15,13.15,0,0,0,4-2.66,13.93,13.93,0,0,1-1.23,5,9.52,9.52,0,0,1-2.86,3.68,13.21,13.21,0,0,1-4.57,2.32,24.31,24.31,0,0,1-6.33.75Zm6.21-16.16a6.42,6.42,0,0,1-2.12-2A7.84,7.84,0,0,1,441,20.58a14.51,14.51,0,0,1-.41-3.54,14.28,14.28,0,0,1,.41-3.41,8.56,8.56,0,0,1,1.29-3,6,6,0,0,1,2.05-2,5,5,0,0,1,2.86-.82,6.36,6.36,0,0,1,2.73.61,8.1,8.1,0,0,1,2.18,1.91,10.46,10.46,0,0,1,1.43,3.27,17.58,17.58,0,0,1,.48,4.5v4A8,8,0,0,1,451.47,25a7,7,0,0,1-4,1.16,6.31,6.31,0,0,1-3.06-.69Zm35.88,2.73h5.11a12.89,12.89,0,0,1,3.34.41,9.81,9.81,0,0,1,2.52,1.29,6.85,6.85,0,0,1,1.57,2.25,9.85,9.85,0,0,1,.55,3.34,7.23,7.23,0,0,1-.55,2.73,4.7,4.7,0,0,1-1.43,2,5.21,5.21,0,0,1-2.32,1.36,8.53,8.53,0,0,1-3.07.48,7.55,7.55,0,0,1-2.79-.48,6,6,0,0,1-2.25-1.3,5.88,5.88,0,0,1-1.5-1.9,6,6,0,0,1-.54-2.53h-9.61a12.61,12.61,0,0,0,1.43,6.21,12.87,12.87,0,0,0,3.75,4.36A16.47,16.47,0,0,0,479.71,49a23.13,23.13,0,0,0,6.07.82,24.07,24.07,0,0,0,6.82-1,16,16,0,0,0,5.45-2.79,12.73,12.73,0,0,0,3.61-4.43,14.42,14.42,0,0,0,1.3-6.07,11.35,11.35,0,0,0-8.11-11.31,16.62,16.62,0,0,0,3.13-2,15.73,15.73,0,0,0,2.32-2.45,13.08,13.08,0,0,0,1.43-2.94,12,12,0,0,0,.48-3.06,14,14,0,0,0-1.23-6,12.22,12.22,0,0,0-3.34-4.3A15.55,15.55,0,0,0,492.46.89,25.34,25.34,0,0,0,485.78,0a20.48,20.48,0,0,0-6.2,1,17.09,17.09,0,0,0-5.05,2.66,13.32,13.32,0,0,0-3.4,4.16,12.08,12.08,0,0,0-1.23,5.45h9.61a5,5,0,0,1,.54-2.25,4.94,4.94,0,0,1,1.37-1.7,5.51,5.51,0,0,1,2.11-1.09A7.2,7.2,0,0,1,486,7.77a7.61,7.61,0,0,1,2.94.48,5.28,5.28,0,0,1,2,1.29,4.94,4.94,0,0,1,1.23,2A7.2,7.2,0,0,1,492.6,14a6.69,6.69,0,0,1-1.78,4.84c-1.22,1.23-3,1.84-5.45,1.84h-5.11Z"></path><path class="cls-2" d="M320.4,88.82h-4v51.12h4Zm37.75,51.12v-.41a13.46,13.46,0,0,1-.48-1.5c-.13-.55-.2-1.16-.34-1.77s-.13-1.23-.2-1.91a18.07,18.07,0,0,1-.07-1.91V115a12.94,12.94,0,0,0-.95-5.11,10.05,10.05,0,0,0-2.73-3.68,11.56,11.56,0,0,0-4.09-2.18,18.89,18.89,0,0,0-11,.13,16,16,0,0,0-4.37,2.39,11,11,0,0,0-2.79,3.41,7.81,7.81,0,0,0-1,3.88l4,.07a5.92,5.92,0,0,1,.75-2.86,7.72,7.72,0,0,1,2-2.32,9.26,9.26,0,0,1,3.07-1.5,11.46,11.46,0,0,1,3.82-.61c3.07,0,5.38.75,7,2.25a7.83,7.83,0,0,1,2.39,6.06V119h-7.37a30.38,30.38,0,0,0-6.88.75,15.92,15.92,0,0,0-5.18,2.32,9.43,9.43,0,0,0-4.36,8.32,9.8,9.8,0,0,0,.82,4,9.55,9.55,0,0,0,2.31,3.27,11.05,11.05,0,0,0,3.68,2.18,15.21,15.21,0,0,0,4.78.75,17.51,17.51,0,0,0,3.95-.48,23.05,23.05,0,0,0,3.41-1.22,12.74,12.74,0,0,0,2.72-1.84,10.94,10.94,0,0,0,2.12-2.19c.06,1,.13,1.85.27,2.8a9.29,9.29,0,0,0,.54,2.25ZM338,136.53a8.16,8.16,0,0,1-2.59-1.5,5.9,5.9,0,0,1-1.57-2.25,6.26,6.26,0,0,1-.61-2.72,6.71,6.71,0,0,1,.89-3.34,7,7,0,0,1,2.59-2.53,12.48,12.48,0,0,1,4.09-1.56,21.94,21.94,0,0,1,5.45-.55h6.82V130a12.11,12.11,0,0,1-1.78,2.79,12.14,12.14,0,0,1-5.93,3.75,15.08,15.08,0,0,1-4,.55,10.16,10.16,0,0,1-3.34-.55Zm46.38-32.85a7.12,7.12,0,0,0-1.15-.28,12.84,12.84,0,0,0-1.5-.13,10.34,10.34,0,0,0-6.14,1.7,12.41,12.41,0,0,0-4,4.7l-.07-5.72h-3.88v36h3.95V115.2a18,18,0,0,1,1.36-3.28,9.57,9.57,0,0,1,2.12-2.52,8.56,8.56,0,0,1,2.86-1.7,10.4,10.4,0,0,1,3.68-.62,15.85,15.85,0,0,1,2.66.21Zm4.55,18.6a25.49,25.49,0,0,0,.95,7.43,17,17,0,0,0,2.73,5.8,13.56,13.56,0,0,0,4.36,3.75,12.41,12.41,0,0,0,5.8,1.36,14.38,14.38,0,0,0,6.61-1.43,12.48,12.48,0,0,0,4.5-3.89v4.16a15,15,0,0,1-.69,4.84,9.2,9.2,0,0,1-2.11,3.55,8.28,8.28,0,0,1-3.34,2.31,12.85,12.85,0,0,1-4.5.75,11.88,11.88,0,0,1-5.38-1.22,15.39,15.39,0,0,1-4.7-4L391,148.12a12.13,12.13,0,0,0,2.53,2.72,17.82,17.82,0,0,0,3.13,1.91,19.58,19.58,0,0,0,3.41,1.16,15.22,15.22,0,0,0,3.48.34,16.47,16.47,0,0,0,5.93-1,12.82,12.82,0,0,0,4.56-2.93,13.75,13.75,0,0,0,2.87-4.7,18.1,18.1,0,0,0,1.09-6.27V104h-3.75l-.21,5.18a13,13,0,0,0-4.56-4.29,14.36,14.36,0,0,0-12.48-.28,13.46,13.46,0,0,0-4.36,3.68,17,17,0,0,0-2.73,5.8,26.17,26.17,0,0,0-.95,7.56Zm4-.68a27.23,27.23,0,0,1,.61-5.86,14.69,14.69,0,0,1,1.91-4.7,9.2,9.2,0,0,1,3.34-3.14,8.84,8.84,0,0,1,4.77-1.16,12.88,12.88,0,0,1,3.82.55,10.7,10.7,0,0,1,2.93,1.57,10.94,10.94,0,0,1,2.12,2.25,11.64,11.64,0,0,1,1.43,2.72v16.7a13.11,13.11,0,0,1-1.57,2.66,8.83,8.83,0,0,1-2.18,2.05,10.79,10.79,0,0,1-2.93,1.43,12.39,12.39,0,0,1-3.68.47,9.26,9.26,0,0,1-8.05-4.29,14.78,14.78,0,0,1-1.91-4.7,26.86,26.86,0,0,1-.61-5.87Zm53.67,18.48a11.62,11.62,0,0,0,3.55-1.37,11.85,11.85,0,0,0,2.73-2,18.26,18.26,0,0,0,2.11-2.53l-2.52-1.84a11.8,11.8,0,0,1-4.43,3.68,12.55,12.55,0,0,1-5.66,1.16,11.41,11.41,0,0,1-5.05-1.09,12.14,12.14,0,0,1-3.88-3.07,13.64,13.64,0,0,1-2.52-4.49,16.75,16.75,0,0,1-.89-5.59v-.75h25.7v-2.46a22.61,22.61,0,0,0-1-6.61,14.89,14.89,0,0,0-2.72-5.25,13.23,13.23,0,0,0-4.5-3.41,14.3,14.3,0,0,0-6.07-1.22,13.47,13.47,0,0,0-5.86,1.29,16.19,16.19,0,0,0-4.91,3.68,17,17,0,0,0-3.4,5.73,22,22,0,0,0-1.23,7.56V123a19.85,19.85,0,0,0,1.23,7.09,15.51,15.51,0,0,0,3.34,5.58,14.23,14.23,0,0,0,5.11,3.62,15.58,15.58,0,0,0,6.47,1.36,16.94,16.94,0,0,0,4.36-.54ZM446,107.63a11,11,0,0,1,3.21,2.59A12.41,12.41,0,0,1,451.1,114a16.18,16.18,0,0,1,.75,4.43v.41H430.24a18.37,18.37,0,0,1,1.29-5,12.5,12.5,0,0,1,2.39-3.81,12,12,0,0,1,3.41-2.53,10.9,10.9,0,0,1,4.22-.81,10.1,10.1,0,0,1,4.43.95Z"></path><line class="cls-3" x1="54.58" y1="909.44" x2="698" y2="909.44"></line><path d="M315.84,994.61l-2.67,5.39h3.32l2-4a13.89,13.89,0,0,0,5.06.92,13,13,0,0,0,6.81-1.8,12.71,12.71,0,0,0,4.63-5.22,17.13,17.13,0,0,0,1.63-7.57c0-5.66-1.74-9.91-5.17-12.63l2.72-5.45h-3.32l-1.91,4a13,13,0,0,0-5.44-1.15,12.48,12.48,0,0,0-6.81,1.86,12.32,12.32,0,0,0-4.62,5.22,17,17,0,0,0-1.64,7.57c0,5.94,1.85,10.18,5.45,12.85ZM317.58,974a7.07,7.07,0,0,1,5.88-2.89A7.36,7.36,0,0,1,327,972l-9.09,18.46c-1.75-2-2.56-4.68-2.56-8.11,0-3.59.7-6.37,2.23-8.33Zm14.05,8.17a12.77,12.77,0,0,1-2.18,7.84,7.28,7.28,0,0,1-5.94,2.88,7.8,7.8,0,0,1-3.21-.65l9-18.3a12.42,12.42,0,0,1,2.29,7.79Zm26.58-24.67h-.76l-14.1,5.28v4.47l9.91-3.65v32.78h4.95Zm38.73,16c-.05-5.61-1.09-9.69-3.05-12.36s-5-4-9.2-4-7.3,1.36-9.26,4.14-2.94,7-2.94,12.68v6.59c.06,5.45,1.09,9.53,3.11,12.31s5,4.08,9.14,4.08,7.3-1.41,9.26-4.19,2.94-7.08,2.94-12.85Zm-4.9,7.68c-.05,4-.71,7-1.85,8.87a6.6,6.6,0,0,1-10.94-.16c-1.2-2-1.86-5.07-1.86-9.26v-7.89c.06-3.92.66-6.86,1.8-8.77a6.77,6.77,0,0,1,11.05.06c1.2,1.9,1.8,4.9,1.8,9.09Zm35.52-7.68c-.06-5.61-1.09-9.69-3.05-12.36s-5-4-9.2-4-7.3,1.36-9.26,4.14-2.94,7-2.94,12.68v6.59c.05,5.45,1.09,9.53,3.1,12.31s5,4.08,9.15,4.08,7.3-1.41,9.26-4.19,2.94-7.08,2.94-12.85Zm-4.9,7.68c-.06,4-.71,7-1.86,8.87a6.6,6.6,0,0,1-10.94-.16c-1.2-2-1.85-5.07-1.85-9.26v-7.89c.05-3.92.65-6.86,1.8-8.77a5.93,5.93,0,0,1,5.5-2.83,6,6,0,0,1,5.55,2.89c1.2,1.9,1.8,4.9,1.8,9.09Z"></path><path class="cls-1" d="M695.73,524.11c0,176.43-143,319.45-319.44,319.45S56.86,700.54,56.86,524.11s143-319.44,319.43-319.44,319.44,143,319.44,319.44m-12.77,0c0,169.37-137.3,306.67-306.67,306.67S69.63,693.48,69.63,524.11s137.3-306.66,306.66-306.66S683,354.75,683,524.11m-12.78,0C670.18,686.43,538.61,818,376.29,818S82.41,686.43,82.41,524.11,214,230.23,376.29,230.23,670.18,361.8,670.18,524.11m-12.78,0c0,155.25-125.86,281.11-281.11,281.11S95.19,679.36,95.19,524.11,221.05,243,376.29,243,657.4,368.87,657.4,524.11m-12.77,0c0,148.2-120.14,268.34-268.34,268.34S108,672.31,108,524.11,228.1,255.78,376.29,255.78,644.63,375.92,644.63,524.11m-12.79,0c0,141.14-114.41,255.55-255.55,255.55S120.74,665.25,120.74,524.11,235.16,268.57,376.29,268.57,631.84,383,631.84,524.11m-12.77,0c0,134.09-108.69,242.78-242.78,242.78S133.52,658.2,133.52,524.11,242.21,281.34,376.29,281.34,619.07,390,619.07,524.11m-12.78,0c0,127-103,230-230,230s-230-103-230-230,103-230,230-230,230,103,230,230m-12.78,0c0,120-97.25,217.22-217.22,217.22S159.07,644.08,159.07,524.11,256.33,306.9,376.29,306.9s217.22,97.25,217.22,217.21m-12.78,0c0,112.92-91.53,204.45-204.44,204.45S171.86,637,171.86,524.11s91.52-204.44,204.43-204.44S580.73,411.2,580.73,524.11m-12.77,0C568,630,482.15,715.78,376.29,715.78S184.63,630,184.63,524.11s85.81-191.66,191.66-191.66S568,418.26,568,524.11m-12.78,0A178.9,178.9,0,0,1,376.29,703c-98.79,0-178.89-80.1-178.89-178.9a178.89,178.89,0,1,1,357.78,0m-12.78,0A166.11,166.11,0,1,1,376.29,358,166.11,166.11,0,0,1,542.4,524.11m-12.77,0A153.34,153.34,0,1,1,376.29,370.78,153.34,153.34,0,0,1,529.63,524.11m-12.79,0A140.55,140.55,0,1,1,376.29,383.56,140.55,140.55,0,0,1,516.84,524.11m-12.77,0A127.78,127.78,0,1,1,376.29,396.34,127.78,127.78,0,0,1,504.07,524.11m-12.78,0a115,115,0,1,1-115-115,115,115,0,0,1,115,115m-12.77,0A102.23,102.23,0,1,1,376.29,421.89,102.23,102.23,0,0,1,478.52,524.11m-12.79,0a89.44,89.44,0,1,1-89.44-89.44,89.44,89.44,0,0,1,89.44,89.44m-12.77,0a76.67,76.67,0,1,1-76.67-76.66A76.67,76.67,0,0,1,453,524.11m-12.78,0a63.89,63.89,0,1,1-63.89-63.89,63.89,63.89,0,0,1,63.89,63.89m-12.78,0A51.11,51.11,0,1,1,376.29,473a51.11,51.11,0,0,1,51.11,51.1m-12.77,0a38.34,38.34,0,1,1-38.34-38.33,38.33,38.33,0,0,1,38.34,38.33"></path><path class="cls-4" d="M695.73,524.11c0,176.43-143,319.45-319.44,319.45S56.86,700.54,56.86,524.11s143-319.44,319.43-319.44,319.44,143,319.44,319.44Zm-12.77,0c0,169.37-137.3,306.67-306.67,306.67S69.63,693.48,69.63,524.11s137.3-306.66,306.66-306.66S683,354.75,683,524.11Zm-12.78,0C670.18,686.43,538.61,818,376.29,818S82.41,686.43,82.41,524.11,214,230.23,376.29,230.23,670.18,361.8,670.18,524.11Zm-12.78,0c0,155.25-125.86,281.11-281.11,281.11S95.19,679.36,95.19,524.11,221.05,243,376.29,243,657.4,368.87,657.4,524.11Zm-12.77,0c0,148.2-120.14,268.34-268.34,268.34S108,672.31,108,524.11,228.1,255.78,376.29,255.78,644.63,375.92,644.63,524.11Zm-12.79,0c0,141.14-114.41,255.55-255.55,255.55S120.74,665.25,120.74,524.11,235.16,268.57,376.29,268.57,631.84,383,631.84,524.11Zm-12.77,0c0,134.09-108.69,242.78-242.78,242.78S133.52,658.2,133.52,524.11,242.21,281.34,376.29,281.34,619.07,390,619.07,524.11Zm-12.78,0c0,127-103,230-230,230s-230-103-230-230,103-230,230-230,230,103,230,230Zm-12.78,0c0,120-97.25,217.22-217.22,217.22S159.07,644.08,159.07,524.11,256.33,306.9,376.29,306.9s217.22,97.25,217.22,217.21Zm-12.78,0c0,112.92-91.53,204.45-204.44,204.45S171.86,637,171.86,524.11s91.52-204.44,204.43-204.44S580.73,411.2,580.73,524.11Zm-12.77,0C568,630,482.15,715.78,376.29,715.78S184.63,630,184.63,524.11s85.81-191.66,191.66-191.66S568,418.26,568,524.11Zm-12.78,0A178.9,178.9,0,0,1,376.29,703c-98.79,0-178.89-80.1-178.89-178.9a178.89,178.89,0,1,1,357.78,0Zm-12.78,0A166.11,166.11,0,1,1,376.29,358,166.11,166.11,0,0,1,542.4,524.11Zm-12.77,0A153.34,153.34,0,1,1,376.29,370.78,153.34,153.34,0,0,1,529.63,524.11Zm-12.79,0A140.55,140.55,0,1,1,376.29,383.56,140.55,140.55,0,0,1,516.84,524.11Zm-12.77,0A127.78,127.78,0,1,1,376.29,396.34,127.78,127.78,0,0,1,504.07,524.11Zm-12.78,0a115,115,0,1,1-115-115,115,115,0,0,1,115,115Zm-12.77,0A102.23,102.23,0,1,1,376.29,421.89,102.23,102.23,0,0,1,478.52,524.11Zm-12.79,0a89.44,89.44,0,1,1-89.44-89.44,89.44,89.44,0,0,1,89.44,89.44Zm-12.77,0a76.67,76.67,0,1,1-76.67-76.66A76.67,76.67,0,0,1,453,524.11Zm-12.78,0a63.89,63.89,0,1,1-63.89-63.89,63.89,63.89,0,0,1,63.89,63.89Zm-12.78,0A51.11,51.11,0,1,1,376.29,473a51.11,51.11,0,0,1,51.11,51.1Zm-12.77,0a38.34,38.34,0,1,1-38.34-38.33,38.33,38.33,0,0,1,38.34,38.33Z"></path></svg> 