<?xml version="1.0" encoding="UTF-8"?> <svg xmlns="http://www.w3.org/2000/svg" id="Livello_1" data-name="Livello 1" viewBox="0 0 767.29 1000"><defs><style>.cls-1{fill:#fff;}.cls-2{fill:#231f20;}.cls-3,.cls-4{fill:none;stroke-width:0.25px;}.cls-3{stroke:#000;}.cls-4{stroke:#231f20;stroke-miterlimit:10;}</style></defs><title>feel disco mni</title><rect class="cls-1" width="767.29" height="1000"></rect><path class="cls-2" d="M241.24.61h-1l-20,7.23v7.77l11.45-3.55V49.14h9.61Zm46.18,7.16a10.56,10.56,0,0,0-3.21-4.23A13.88,13.88,0,0,0,279.37.89,21.28,21.28,0,0,0,273.24,0a22.1,22.1,0,0,0-6.2.89,14.54,14.54,0,0,0-4.84,2.65A11.88,11.88,0,0,0,259,7.77a14,14,0,0,0-1.09,5.79,11.43,11.43,0,0,0,1.71,6.28,12.48,12.48,0,0,0,4.84,4.36,13.73,13.73,0,0,0-5.53,4.63,11.73,11.73,0,0,0-2.11,7,13,13,0,0,0,1.3,6.07,12.57,12.57,0,0,0,3.4,4.36,15.84,15.84,0,0,0,5.25,2.66,24.25,24.25,0,0,0,13,0A16.08,16.08,0,0,0,285,46.28a12.71,12.71,0,0,0,3.41-4.36,13.93,13.93,0,0,0,1.23-6.07,12.27,12.27,0,0,0-2.05-7A14.33,14.33,0,0,0,282,24.2a12.48,12.48,0,0,0,4.84-4.36,11.47,11.47,0,0,0,1.78-6.28,13.94,13.94,0,0,0-1.16-5.79Zm-9.27,32.45a6.46,6.46,0,0,1-4.91,1.84,7.35,7.35,0,0,1-2.8-.48,5,5,0,0,1-2.11-1.36A5.22,5.22,0,0,1,267,38a7.39,7.39,0,0,1-.48-2.86,8,8,0,0,1,.48-2.93,5.58,5.58,0,0,1,1.36-2.18,5.78,5.78,0,0,1,2.11-1.36,7,7,0,0,1,2.73-.48,7.35,7.35,0,0,1,2.8.48,5.78,5.78,0,0,1,2.11,1.36,6.53,6.53,0,0,1,1.36,2.18,8,8,0,0,1,.48,2.93,6.87,6.87,0,0,1-1.77,5Zm-.69-21.54a5.93,5.93,0,0,1-8.45,0,6.8,6.8,0,0,1-1.5-4.64A6.65,6.65,0,0,1,269,9.41a5.47,5.47,0,0,1,4.23-1.64,5.37,5.37,0,0,1,4.22,1.7A6.92,6.92,0,0,1,279,14a7.12,7.12,0,0,1-1.5,4.64Zm28.39,9.47H311a12.89,12.89,0,0,1,3.34.41,9.81,9.81,0,0,1,2.52,1.29,6.7,6.7,0,0,1,1.57,2.25,9.85,9.85,0,0,1,.55,3.34,7.23,7.23,0,0,1-.55,2.73,4.7,4.7,0,0,1-1.43,2,5.21,5.21,0,0,1-2.32,1.36,8.51,8.51,0,0,1-3.06.48,7.56,7.56,0,0,1-2.8-.48,6,6,0,0,1-2.25-1.3,5.88,5.88,0,0,1-1.5-1.9,6,6,0,0,1-.54-2.53h-9.61a12.61,12.61,0,0,0,1.43,6.21,12.87,12.87,0,0,0,3.75,4.36A16.57,16.57,0,0,0,305.3,49a23.13,23.13,0,0,0,6.07.82,24.07,24.07,0,0,0,6.82-1,16,16,0,0,0,5.45-2.79,12.73,12.73,0,0,0,3.61-4.43,14.42,14.42,0,0,0,1.3-6.07,11.35,11.35,0,0,0-8.11-11.31,16.62,16.62,0,0,0,3.13-2,15.73,15.73,0,0,0,2.32-2.45,13.08,13.08,0,0,0,1.43-2.94,12,12,0,0,0,.48-3.06,14,14,0,0,0-1.23-6,12.22,12.22,0,0,0-3.34-4.3A15.55,15.55,0,0,0,318.05.89,25.34,25.34,0,0,0,311.37,0a20.48,20.48,0,0,0-6.2,1,17.21,17.21,0,0,0-5.05,2.66,13.32,13.32,0,0,0-3.4,4.16,12.08,12.08,0,0,0-1.23,5.45h9.61a4.92,4.92,0,0,1,.55-2.25A4.81,4.81,0,0,1,307,9.27a5.51,5.51,0,0,1,2.11-1.09,7.21,7.21,0,0,1,2.46-.41,7.59,7.59,0,0,1,2.93.48,5.28,5.28,0,0,1,2,1.29,4.83,4.83,0,0,1,1.23,2,7.2,7.2,0,0,1,.41,2.45,6.69,6.69,0,0,1-1.78,4.84c-1.22,1.23-3,1.84-5.45,1.84h-5.11ZM358.5.61h-1l-20,7.23v7.77l11.45-3.55V49.14h9.61Zm34.86,23.93H374.62v7.7h18.74Zm14.08,17v8h.75A27.67,27.67,0,0,0,419,47.71a20.21,20.21,0,0,0,7.7-5.38A22,22,0,0,0,431.37,34a36.26,36.26,0,0,0,1.5-10.83V19.77a25.23,25.23,0,0,0-1.16-8,18.42,18.42,0,0,0-3.27-6.27,15.13,15.13,0,0,0-5.18-4A15.86,15.86,0,0,0,416.51,0a16.46,16.46,0,0,0-6.75,1.36,15.14,15.14,0,0,0-5.11,3.75,15.45,15.45,0,0,0-3.27,5.39,19.62,19.62,0,0,0-1.16,6.68,22,22,0,0,0,.88,6.47,15.34,15.34,0,0,0,2.73,5.11,13.88,13.88,0,0,0,4.43,3.48,14.47,14.47,0,0,0,6.14,1.23,11.35,11.35,0,0,0,4.77-1,13.15,13.15,0,0,0,3.95-2.66,14.14,14.14,0,0,1-1.23,5A9.52,9.52,0,0,1,419,38.51a13.21,13.21,0,0,1-4.57,2.32,24.33,24.33,0,0,1-6.34.75Zm6.21-16.16a6.42,6.42,0,0,1-2.12-2,7.84,7.84,0,0,1-1.29-2.87,14,14,0,0,1-.41-3.54,13.78,13.78,0,0,1,.41-3.41,8.56,8.56,0,0,1,1.29-3,6,6,0,0,1,2.05-2,5,5,0,0,1,2.86-.82,6.39,6.39,0,0,1,2.73.61,8.26,8.26,0,0,1,2.18,1.91,10.46,10.46,0,0,1,1.43,3.27,17.58,17.58,0,0,1,.48,4.5v4A8,8,0,0,1,420.73,25a7,7,0,0,1-4,1.16,6.28,6.28,0,0,1-3.06-.69ZM463.09.61h-1L442,7.84v7.77l11.45-3.55V49.14h9.61Z"></path><path class="cls-2" d="M285.83,104v36h4V115.26a18.79,18.79,0,0,1,1.29-3.2,14.24,14.24,0,0,1,2.12-2.73,11.44,11.44,0,0,1,3.06-1.9,10,10,0,0,1,4-.69,12.22,12.22,0,0,1,3.61.48,6.7,6.7,0,0,1,2.73,1.5,6.82,6.82,0,0,1,1.84,2.93,14.36,14.36,0,0,1,.61,4.5v23.79h4V116.08a9.63,9.63,0,0,1,.82-3.2,13.46,13.46,0,0,1,2-3,11.47,11.47,0,0,1,3.28-2.25,9.79,9.79,0,0,1,4.36-.89,14.17,14.17,0,0,1,3.54.41,6.07,6.07,0,0,1,2.8,1.57,7.23,7.23,0,0,1,1.84,3,15.1,15.1,0,0,1,.61,4.7v23.52h4V116.49a19.66,19.66,0,0,0-.75-6,10.08,10.08,0,0,0-2.32-4.09,8.57,8.57,0,0,0-3.75-2.38,15.84,15.84,0,0,0-5-.75,15.14,15.14,0,0,0-4,.54,14,14,0,0,0-3.41,1.43,13.12,13.12,0,0,0-2.79,2.25,16.37,16.37,0,0,0-2.05,2.73,9.45,9.45,0,0,0-4-5.32,13.46,13.46,0,0,0-6.81-1.63,12.66,12.66,0,0,0-3.68.47,12.35,12.35,0,0,0-3.21,1.3,10.17,10.17,0,0,0-2.66,2,14.2,14.2,0,0,0-2.11,2.73l-.14-5.86Zm65,0h-4v36h4Zm-4-8.52a2.9,2.9,0,0,0,2.05.75,2.7,2.7,0,0,0,2-.75,2.51,2.51,0,0,0,.75-1.91,2.41,2.41,0,0,0-.75-1.91,2.53,2.53,0,0,0-2-.82,2.7,2.7,0,0,0-2.05.82,2.62,2.62,0,0,0-.68,1.91,2.74,2.74,0,0,0,.68,1.91ZM361.62,104v36h3.95V115.26a15,15,0,0,1,1.57-3.13,11.17,11.17,0,0,1,2.25-2.8,11.44,11.44,0,0,1,3.06-1.9,10.1,10.1,0,0,1,3.89-.69,11.75,11.75,0,0,1,3.54.48,5.83,5.83,0,0,1,2.66,1.57,8.06,8.06,0,0,1,1.71,3,15.36,15.36,0,0,1,.61,4.7v23.45h3.95V116.49a20,20,0,0,0-.81-6.07,11.44,11.44,0,0,0-2.25-4.09,8.47,8.47,0,0,0-3.62-2.31,13.27,13.27,0,0,0-4.84-.75,13,13,0,0,0-3.68.47,14.7,14.7,0,0,0-3.2,1.37,14.14,14.14,0,0,0-2.73,2.18,14.61,14.61,0,0,0-2.11,2.79l-.14-6.13Zm41.88,0h-4v36h4Zm-4-8.52a2.87,2.87,0,0,0,2,.75,2.72,2.72,0,0,0,2-.75,2.55,2.55,0,0,0,.75-1.91,2.45,2.45,0,0,0-.75-1.91,2.55,2.55,0,0,0-2-.82,2.68,2.68,0,0,0-2,.82,2.62,2.62,0,0,0-.68,1.91,2.74,2.74,0,0,0,.68,1.91Z"></path><line class="cls-3" x1="154.77" y1="909.44" x2="598.52" y2="909.44"></line><path d="M331.48,994.61l-2.66,5.39h3.32l2-4a13.89,13.89,0,0,0,5.06.92,13,13,0,0,0,6.81-1.8,12.69,12.69,0,0,0,4.62-5.22,17.13,17.13,0,0,0,1.64-7.57c0-5.66-1.74-9.91-5.18-12.63l2.73-5.45h-3.32l-1.91,4a13,13,0,0,0-5.44-1.15,12.3,12.3,0,0,0-11.44,7.08,17,17,0,0,0-1.63,7.57c0,5.94,1.85,10.18,5.44,12.85ZM333.23,974a7.07,7.07,0,0,1,5.88-2.89,7.3,7.3,0,0,1,3.53.87l-9.09,18.46c-1.74-2-2.56-4.68-2.56-8.11,0-3.59.71-6.37,2.24-8.33Zm14,8.17a12.77,12.77,0,0,1-2.18,7.84,7.24,7.24,0,0,1-5.93,2.88,7.77,7.77,0,0,1-3.21-.65l9-18.3a12.41,12.41,0,0,1,2.28,7.79Zm28.82-24.5c-6,.1-10.51,2-13.56,5.77S358,972.67,358,979.8v1.91a17.11,17.11,0,0,0,3.49,11,11,11,0,0,0,9,4.25,11.21,11.21,0,0,0,8.76-3.59c2.18-2.4,3.27-5.56,3.27-9.59a13.78,13.78,0,0,0-3-9.2,10.09,10.09,0,0,0-8.06-3.54,10.42,10.42,0,0,0-8.33,3.49,14,14,0,0,1,3.92-9.26,13,13,0,0,1,9.15-3.37H377V957.7Zm-.43,20a9.88,9.88,0,0,1,1.9,6.37,9.7,9.7,0,0,1-1.9,6.37,6.24,6.24,0,0,1-5.23,2.45,6.48,6.48,0,0,1-5.34-2.89,12.46,12.46,0,0,1-2.17-7.68v-1.79a7.55,7.55,0,0,1,2.94-3.76,7.9,7.9,0,0,1,4.68-1.52,6.21,6.21,0,0,1,5.12,2.45Zm36.93-4.14c-.06-5.61-1.09-9.69-3-12.36s-5-4-9.2-4-7.3,1.36-9.26,4.14-2.94,7-2.94,12.68v6.59c.06,5.45,1.09,9.53,3.1,12.31s5,4.08,9.15,4.08,7.3-1.41,9.26-4.19,2.94-7.08,2.94-12.85Zm-4.9,7.68c-.06,4-.71,7-1.85,8.87a6.61,6.61,0,0,1-10.95-.16c-1.2-2-1.85-5.07-1.85-9.26v-7.89c.06-3.92.65-6.86,1.8-8.77a6.77,6.77,0,0,1,11.05.06c1.2,1.9,1.8,4.9,1.8,9.09Z"></path><path class="cls-1" d="M596.25,624c0,121.28-98.32,219.61-219.6,219.61S157.05,745.23,157.05,624s98.32-219.6,219.6-219.6,219.6,98.32,219.6,219.6m-14.63,0c0,113.2-91.77,205-205,205s-205-91.77-205-205,91.77-205,205-205,205,91.77,205,205M567,624c0,105.11-85.21,190.32-190.32,190.32S186.33,729.06,186.33,624s85.21-190.32,190.32-190.32S567,518.84,567,624m-14.64,0A175.69,175.69,0,1,1,376.65,448.27,175.7,175.7,0,0,1,552.33,624m-14.64,0a161,161,0,1,1-161-161,161,161,0,0,1,161,161m-14.64,0a146.41,146.41,0,1,1-146.4-146.4A146.41,146.41,0,0,1,523.05,624m-14.64,0A131.76,131.76,0,1,1,376.65,492.19,131.76,131.76,0,0,1,508.41,624m-14.64,0A117.13,117.13,0,1,1,376.65,506.83,117.13,117.13,0,0,1,493.77,624m-14.64,0A102.48,102.48,0,1,1,376.65,521.47,102.48,102.48,0,0,1,479.13,624m-14.64,0a87.84,87.84,0,1,1-87.84-87.84A87.85,87.85,0,0,1,464.49,624m-14.64,0a73.2,73.2,0,1,1-73.2-73.2,73.2,73.2,0,0,1,73.2,73.2m-14.64,0a58.56,58.56,0,1,1-58.56-58.56A58.56,58.56,0,0,1,435.21,624m-14.64,0A43.92,43.92,0,1,1,376.65,580,43.92,43.92,0,0,1,420.57,624"></path><path class="cls-4" d="M596.25,624c0,121.28-98.32,219.61-219.6,219.61S157.05,745.23,157.05,624s98.32-219.6,219.6-219.6,219.6,98.32,219.6,219.6Zm-14.63,0c0,113.2-91.77,205-205,205s-205-91.77-205-205,91.77-205,205-205,205,91.77,205,205ZM567,624c0,105.11-85.21,190.32-190.32,190.32S186.33,729.06,186.33,624s85.21-190.32,190.32-190.32S567,518.84,567,624Zm-14.64,0A175.69,175.69,0,1,1,376.65,448.27,175.7,175.7,0,0,1,552.33,624Zm-14.64,0a161,161,0,1,1-161-161,161,161,0,0,1,161,161Zm-14.64,0a146.41,146.41,0,1,1-146.4-146.4A146.41,146.41,0,0,1,523.05,624Zm-14.64,0A131.76,131.76,0,1,1,376.65,492.19,131.76,131.76,0,0,1,508.41,624Zm-14.64,0A117.13,117.13,0,1,1,376.65,506.83,117.13,117.13,0,0,1,493.77,624Zm-14.64,0A102.48,102.48,0,1,1,376.65,521.47,102.48,102.48,0,0,1,479.13,624Zm-14.64,0a87.84,87.84,0,1,1-87.84-87.84A87.85,87.85,0,0,1,464.49,624Zm-14.64,0a73.2,73.2,0,1,1-73.2-73.2,73.2,73.2,0,0,1,73.2,73.2Zm-14.64,0a58.56,58.56,0,1,1-58.56-58.56A58.56,58.56,0,0,1,435.21,624Zm-14.64,0A43.92,43.92,0,1,1,376.65,580,43.91,43.91,0,0,1,420.57,624Z"></path></svg> 