<?xml version="1.0" encoding="UTF-8"?> <svg xmlns="http://www.w3.org/2000/svg" id="Livello_1" data-name="Livello 1" viewBox="0 0 552 1000"><defs><style>.cls-1{fill:#fff;}.cls-2{fill:#231f20;}.cls-3,.cls-4{fill:none;stroke-width:0.25px;}.cls-3{stroke:#000;}.cls-4{stroke:#231f20;stroke-miterlimit:10;}</style></defs><title>Feel asta mini cieca</title><rect class="cls-1" width="552" height="1000"></rect><path class="cls-2" d="M132.36.57h-1L112.63,7.34v7.28l10.73-3.32V46h9Zm43.26,6.71a9.72,9.72,0,0,0-3-4A12.87,12.87,0,0,0,168.08.83,20.13,20.13,0,0,0,162.34,0a20.9,20.9,0,0,0-5.81.83A13.41,13.41,0,0,0,152,3.32a11,11,0,0,0-3,4,13.09,13.09,0,0,0-1,5.43,10.62,10.62,0,0,0,1.6,5.87,11.59,11.59,0,0,0,4.53,4.09A12.73,12.73,0,0,0,148.93,27a11,11,0,0,0-2,6.58,12.23,12.23,0,0,0,1.21,5.68,11.89,11.89,0,0,0,3.19,4.09,15.1,15.1,0,0,0,4.92,2.49,22.83,22.83,0,0,0,12.2,0,15.35,15.35,0,0,0,4.85-2.49,11.78,11.78,0,0,0,3.19-4.09,13,13,0,0,0,1.15-5.68A11.6,11.6,0,0,0,175.75,27a13.42,13.42,0,0,0-5.24-4.34A11.59,11.59,0,0,0,175,18.58a10.66,10.66,0,0,0,1.66-5.87,13.08,13.08,0,0,0-1.08-5.43Zm-8.69,30.39a6,6,0,0,1-4.59,1.73,6.8,6.8,0,0,1-2.62-.45,4.51,4.51,0,0,1-2-1.28,4.8,4.8,0,0,1-1.28-2A6.92,6.92,0,0,1,156,33a7.53,7.53,0,0,1,.44-2.75,5.5,5.5,0,0,1,3.26-3.32,6.48,6.48,0,0,1,2.55-.44,6.83,6.83,0,0,1,2.62.44,5.34,5.34,0,0,1,2,1.28,6.18,6.18,0,0,1,1.28,2,7.53,7.53,0,0,1,.44,2.75,6.35,6.35,0,0,1-1.66,4.72ZM166.3,17.5a5.55,5.55,0,0,1-7.92,0A6.36,6.36,0,0,1,157,13.15a6.23,6.23,0,0,1,1.41-4.34,5.1,5.1,0,0,1,4-1.53,5,5,0,0,1,4,1.6,6.5,6.5,0,0,1,1.4,4.27,6.73,6.73,0,0,1-1.4,4.35Zm26.59,8.87h4.79a11.82,11.82,0,0,1,3.13.39A8.9,8.9,0,0,1,203.17,28a6.3,6.3,0,0,1,1.47,2.11,9.1,9.1,0,0,1,.51,3.12,6.76,6.76,0,0,1-.51,2.56,4.48,4.48,0,0,1-1.34,1.91A4.85,4.85,0,0,1,201.12,39a7.94,7.94,0,0,1-2.87.45,7,7,0,0,1-2.62-.45,5.58,5.58,0,0,1-2.1-1.21A5.44,5.44,0,0,1,192.12,36a5.57,5.57,0,0,1-.51-2.36h-9A11.8,11.8,0,0,0,184,39.4a12.09,12.09,0,0,0,3.51,4.09,15.28,15.28,0,0,0,4.92,2.42,21.37,21.37,0,0,0,5.68.77,22.53,22.53,0,0,0,6.39-.9,14.83,14.83,0,0,0,5.1-2.61A12,12,0,0,0,212.94,39a13.62,13.62,0,0,0,1.21-5.69,10.61,10.61,0,0,0-7.6-10.6,15.09,15.09,0,0,0,2.94-1.85,14.7,14.7,0,0,0,2.17-2.3A12,12,0,0,0,213,15.84a11.07,11.07,0,0,0,.45-2.88,13.16,13.16,0,0,0-1.15-5.62,11.57,11.57,0,0,0-3.13-4A14.36,14.36,0,0,0,204.32.83,24,24,0,0,0,198.06,0a19.26,19.26,0,0,0-5.81.89,16,16,0,0,0-4.73,2.49,12.69,12.69,0,0,0-3.19,3.9,11.28,11.28,0,0,0-1.15,5.11h9a4.67,4.67,0,0,1,.52-2.11A4.51,4.51,0,0,1,194,8.68a5.48,5.48,0,0,1,2-1,6.81,6.81,0,0,1,2.3-.38,7.08,7.08,0,0,1,2.75.45,4.89,4.89,0,0,1,1.91,1.21,4.55,4.55,0,0,1,1.15,1.85,6.57,6.57,0,0,1,.39,2.3,6.25,6.25,0,0,1-1.67,4.53,6.83,6.83,0,0,1-5.1,1.73h-4.79ZM242.21.57h-1L222.48,7.34v7.28l10.73-3.32V46h9ZM274.87,23H257.31V30.2h17.56Zm13.19,16v7.54h.7a26.09,26.09,0,0,0,10.16-1.79,19,19,0,0,0,7.21-5.05,20.65,20.65,0,0,0,4.35-7.79,34.17,34.17,0,0,0,1.4-10.15V18.52A23.54,23.54,0,0,0,310.79,11a17.06,17.06,0,0,0-3.06-5.87,14,14,0,0,0-4.85-3.77A14.87,14.87,0,0,0,296.55,0a15.3,15.3,0,0,0-6.32,1.28,14.14,14.14,0,0,0-4.79,3.51,14.43,14.43,0,0,0-3.06,5,18.51,18.51,0,0,0-1.09,6.26,20.67,20.67,0,0,0,.83,6.07A14.36,14.36,0,0,0,284.68,27a12.89,12.89,0,0,0,4.15,3.25,13.51,13.51,0,0,0,5.75,1.15,10.69,10.69,0,0,0,4.46-1,12.19,12.19,0,0,0,3.71-2.5,13.21,13.21,0,0,1-1.15,4.73,9,9,0,0,1-2.68,3.45,12.25,12.25,0,0,1-4.28,2.17,22.83,22.83,0,0,1-5.94.7Zm5.81-15.13a6.24,6.24,0,0,1-2-1.85,7.52,7.52,0,0,1-1.21-2.69A13.28,13.28,0,0,1,290.3,16a13,13,0,0,1,.38-3.19A8.2,8.2,0,0,1,291.89,10a5.4,5.4,0,0,1,1.92-1.91,4.66,4.66,0,0,1,2.68-.77,6,6,0,0,1,2.55.57,7.79,7.79,0,0,1,2,1.79,9.75,9.75,0,0,1,1.34,3.07,16.36,16.36,0,0,1,.45,4.21v3.71a7.45,7.45,0,0,1-2.37,2.74,6.56,6.56,0,0,1-3.76,1.09,5.94,5.94,0,0,1-2.88-.64ZM349.2.64H317.14V7.92h22.54L322.12,46h9.52L349.2,5.68Z"></path><path class="cls-2" d="M174.14,97.38V131.1h3.77V108a16.81,16.81,0,0,1,1.21-3,12.43,12.43,0,0,1,2-2.55,10.87,10.87,0,0,1,2.87-1.79,9.33,9.33,0,0,1,3.71-.64,11.38,11.38,0,0,1,3.38.45,6.13,6.13,0,0,1,2.55,1.4,6.36,6.36,0,0,1,1.73,2.75,13.52,13.52,0,0,1,.57,4.21V131.1h3.77V108.75a8.87,8.87,0,0,1,.77-3,12.33,12.33,0,0,1,1.91-2.81,10.9,10.9,0,0,1,3.07-2.11,9.21,9.21,0,0,1,4.08-.83,13.35,13.35,0,0,1,3.32.38,5.62,5.62,0,0,1,2.62,1.47,6.8,6.8,0,0,1,1.73,2.81,14.31,14.31,0,0,1,.57,4.41v22h3.71v-22a18.25,18.25,0,0,0-.71-5.62,9.3,9.3,0,0,0-2.17-3.83,8.08,8.08,0,0,0-3.51-2.23,14.81,14.81,0,0,0-4.66-.71,14.55,14.55,0,0,0-3.77.51,12.81,12.81,0,0,0-3.19,1.35,11.74,11.74,0,0,0-2.62,2.1,14.88,14.88,0,0,0-1.92,2.56,8.85,8.85,0,0,0-3.76-5,12.55,12.55,0,0,0-6.39-1.54,11.85,11.85,0,0,0-3.45.45,11.71,11.71,0,0,0-3,1.21,9.1,9.1,0,0,0-2.49,1.92,13.39,13.39,0,0,0-2,2.55l-.13-5.49Zm60.92,0H231.3V131.1h3.76Zm-3.76-8a2.68,2.68,0,0,0,1.91.7,2.52,2.52,0,0,0,1.85-.7,2.37,2.37,0,0,0,.71-1.79,2.29,2.29,0,0,0-.71-1.79,2.34,2.34,0,0,0-1.85-.76,2.4,2.4,0,0,0-2.55,2.55,2.56,2.56,0,0,0,.64,1.79Zm13.84,8V131.1h3.7V108a14.43,14.43,0,0,1,1.47-2.94,10.56,10.56,0,0,1,2.11-2.61,10.87,10.87,0,0,1,2.87-1.79,9.44,9.44,0,0,1,3.64-.64,10.93,10.93,0,0,1,3.32.45,5.37,5.37,0,0,1,2.49,1.47,7.34,7.34,0,0,1,1.6,2.81,14.51,14.51,0,0,1,.57,4.4v22h3.71v-22a18.53,18.53,0,0,0-.77-5.68,10.42,10.42,0,0,0-2.11-3.83,7.83,7.83,0,0,0-3.38-2.17,12.53,12.53,0,0,0-4.53-.71,12.09,12.09,0,0,0-3.45.45,13.35,13.35,0,0,0-3,1.28,13,13,0,0,0-2.56,2,14,14,0,0,0-2,2.62l-.12-5.75Zm39.24,0h-3.77V131.1h3.77Zm-3.77-8a2.68,2.68,0,0,0,1.91.7,2.56,2.56,0,0,0,1.86-.7,2.36,2.36,0,0,0,.7-1.79,2.28,2.28,0,0,0-.7-1.79,2.38,2.38,0,0,0-1.86-.76A2.4,2.4,0,0,0,280,87.61a2.56,2.56,0,0,0,.64,1.79Z"></path><path class="cls-3" d="M181.89,474.71H287.16m81.77-235.66V419.89"></path><path d="M433.51,338.39l-1-1.23a7.64,7.64,0,0,1-1.32-4.74,6.66,6.66,0,0,1,2.19-5.25,8.42,8.42,0,0,1,5.87-2,9.15,9.15,0,0,1,6,1.83,6.19,6.19,0,0,1,2.19,5.05,6.87,6.87,0,0,1-1.58,4.75,7.26,7.26,0,0,1-4.69,2.19v4.39a10.7,10.7,0,0,0,7.39-3.47,11.43,11.43,0,0,0,2.65-7.86c0-3.62-1.07-6.42-3.21-8.46s-5.1-3-8.82-3-6.69,1-8.88,2.9a10,10,0,0,0-3.26,7.86,11.48,11.48,0,0,0,1.58,6.07l-9.9-1.07V321.66h-4.28v18.56l18.11,1.84ZM447,291.75V310l-10.56-9.69c-4.9-4.59-9.18-6.83-12.75-6.83a9.15,9.15,0,0,0-7,2.9,11.5,11.5,0,0,0-2.65,8,11.77,11.77,0,0,0,3.11,8.62,10.47,10.47,0,0,0,8.06,3.27v-4.65a7.58,7.58,0,0,1-5.46-1.88,7.29,7.29,0,0,1-1.94-5.36,6,6,0,0,1,1.84-4.59,6.48,6.48,0,0,1,4.64-1.68,8.69,8.69,0,0,1,4.08,1,28.31,28.31,0,0,1,5.15,3.87l14,12.55h3.31V291.75Z"></path><path d="M203.06,554.51l-2.5,5h3.11l1.84-3.73a12.9,12.9,0,0,0,4.74.87,12.18,12.18,0,0,0,6.38-1.68,12,12,0,0,0,4.34-4.9A16.07,16.07,0,0,0,222.5,543c0-5.3-1.64-9.28-4.85-11.83l2.55-5.1h-3.11l-1.79,3.72a12.23,12.23,0,0,0-5.1-1.07,11.48,11.48,0,0,0-10.71,6.63,15.92,15.92,0,0,0-1.53,7.09c0,5.56,1.74,9.54,5.1,12Zm1.63-19.28a6.64,6.64,0,0,1,5.51-2.71,6.81,6.81,0,0,1,3.32.82L205,550.63a11.16,11.16,0,0,1-2.4-7.6c0-3.37.67-6,2.09-7.8Zm13.16,7.65a11.9,11.9,0,0,1-2,7.34,6.77,6.77,0,0,1-5.56,2.71,7.2,7.2,0,0,1-3-.62l8.47-17.13a11.55,11.55,0,0,1,2.14,7.29Zm24.91-23.11h-.71l-13.21,5v4.18l9.28-3.42v30.71h4.64Zm32.56,2.35a12.38,12.38,0,0,0-15.46,0,9.38,9.38,0,0,0-2.95,7.24,8.44,8.44,0,0,0,1.42,4.85,10,10,0,0,0,3.78,3.31,9.66,9.66,0,0,0-4.44,3.57,9.28,9.28,0,0,0-1.58,5.31,9.61,9.61,0,0,0,3.11,7.5,14,14,0,0,0,16.78,0,9.5,9.5,0,0,0,3.16-7.5,8.9,8.9,0,0,0-1.68-5.31,10.13,10.13,0,0,0-4.49-3.57,9.88,9.88,0,0,0,3.88-3.31,8.34,8.34,0,0,0,1.43-4.85,9.19,9.19,0,0,0-3-7.24Zm-2.65,29a8.09,8.09,0,0,1-10.15,0,6.38,6.38,0,0,1-1.84-4.84,6.73,6.73,0,0,1,1.89-5,6.58,6.58,0,0,1,5-1.89,7,7,0,0,1,5.05,1.94,6.68,6.68,0,0,1,1.93,4.95,6.44,6.44,0,0,1-1.88,4.84ZM272,524.92a6.8,6.8,0,0,1,.05,9,5.8,5.8,0,0,1-4.38,1.68,6,6,0,0,1-4.44-1.68,7.05,7.05,0,0,1,.05-9.08,5.89,5.89,0,0,1,4.39-1.68,5.76,5.76,0,0,1,4.33,1.73Z"></path><rect class="cls-1" x="184.74" y="393.72" width="98.92" height="3.22"></rect><rect class="cls-4" x="184.74" y="393.72" width="98.92" height="3.22"></rect><rect class="cls-1" x="182.95" y="230.19" width="97.13" height="14.59"></rect><rect class="cls-4" x="182.95" y="230.19" width="97.13" height="14.59"></rect><rect class="cls-1" x="229.6" y="248.13" width="9.2" height="143.77"></rect><rect class="cls-4" x="229.6" y="248.13" width="9.2" height="143.77"></rect></svg> 