<?xml version="1.0" encoding="UTF-8"?> <svg xmlns="http://www.w3.org/2000/svg" id="Livello_1" data-name="Livello 1" viewBox="0 0 1000 1000"><defs><style>.cls-1{fill:#fff;}.cls-2{font-size:83.07px;font-family:Roboto-Bold, Roboto;font-weight:700;}.cls-3{font-size:58.15px;}.cls-3,.cls-5{font-family:Roboto-Regular, Roboto;}.cls-4,.cls-6,.cls-7{fill:none;stroke-width:0.25px;}.cls-4{stroke:#000;}.cls-5{font-size:55.42px;}.cls-6,.cls-7{stroke:#231f20;}.cls-6{stroke-miterlimit:10;}.cls-7{stroke-linejoin:round;}</style></defs><title>Glifo_medium</title><rect class="cls-1" width="1000" height="1000"></rect><text class="cls-2" transform="translate(306.3 71.07)">1908-31</text><text class="cls-3" transform="translate(306.3 140.84)">MEDIUM</text><line class="cls-4" x1="534.2" y1="699.04" x2="684.29" y2="699.04"></line><line class="cls-4" x1="133.46" y1="910.58" x2="712.54" y2="910.58"></line><line class="cls-4" x1="765.91" y1="337.43" x2="765.91" y2="636.33"></line><text class="cls-5" transform="translate(932.3 505.95) rotate(-90)">67</text><text class="cls-5" transform="translate(578.79 777.61)">40</text><text class="cls-5" transform="translate(371.73 984.98)">123</text><path class="cls-6" d="M136.33,352.69h-5.25v58l.31,87h5.35l-.41-87.31M683.51,627.24l25.3,8.12a2.42,2.42,0,0,0,2.57-1.64s.72-1.23-.62-3.08L174.62,456.83s-22-10.06-27.89-26.37c0,0-4.74-9.75-4.94-24.22s0-53.55,0-53.55h-5.46v57.66s2.06,16,5.56,22.36,10.08,20.53,31.49,29.35S610.73,603.81,610.73,603.81m0,0L538,626.89s-.19.74,1.35,1.16a54.24,54.24,0,0,0,5.83.84l6.64.59,16.9.88,15.67.58,22.73.19h22.53l22.89-.42,13.58-.66,10.38-.69,4.29-.54s2.31-.42,2.69-1.58Z"></path><path class="cls-7" d="M135.65,338.08c2.54,0,4.59,2.44,4.59,5.45m0,0a7.68,7.68,0,0,1-.92,3.16,7.57,7.57,0,0,0-.51,3.55v2.42m-3.15-14.58c-2.54,0-4.59,2.44-4.59,5.45m0,0a7.68,7.68,0,0,0,.92,3.16,7.41,7.41,0,0,1,.51,3.55v2.42m.65,145.61.39,104.23m-2.93-104.7-1.06.47h-2.69l-.18-87.65h2.46l1.47.27-1.47.31.41,87.07"></path></svg> 