<?xml version="1.0" encoding="UTF-8"?> <svg xmlns="http://www.w3.org/2000/svg" id="Livello_1" data-name="Livello 1" viewBox="0 0 1000 1000"><defs><style>.cls-1{fill:#fff;}.cls-2{font-size:82.3px;font-family:Roboto-Bold, Roboto;font-weight:700;}.cls-3{font-size:57.61px;}.cls-3,.cls-6{font-family:Roboto-Regular, Roboto;}.cls-4{letter-spacing:0.01em;}.cls-5,.cls-7,.cls-8{fill:none;stroke-width:0.25px;}.cls-5{stroke:#000;}.cls-6{font-size:49.38px;}.cls-7,.cls-8{stroke:#231f20;}.cls-7{stroke-miterlimit:10;}.cls-8{stroke-linejoin:round;}</style></defs><title>Glifo_large</title><rect class="cls-1" width="1000" height="1000"></rect><text class="cls-2" transform="translate(308.73 70.41)">1908-33</text><text class="cls-3" transform="translate(308.74 136.95)"><tspan class="cls-4">L</tspan><tspan x="32.14" y="0">ARGE</tspan></text><line class="cls-5" x1="576.6" y1="757.25" x2="735.96" y2="757.25"></line><line class="cls-5" x1="151.12" y1="907.1" x2="765.95" y2="907.1"></line><line class="cls-5" x1="822.61" y1="373.31" x2="822.61" y2="690.67"></line><text class="cls-6" transform="translate(916.31 559.8) rotate(-90)">80</text><text class="cls-6" transform="translate(636.17 836.7)">40</text><text class="cls-6" transform="translate(416.82 986.62)">163</text><path class="cls-7" d="M154.17,389.51h-5.58v61.55l.33,92.38h5.68l-.43-92.71M735.13,681,762,689.63a2.56,2.56,0,0,0,2.73-1.73s.76-1.31-.66-3.28L194.81,500.08s-23.38-10.67-29.61-28c0,0-5-10.34-5.24-25.71s0-56.86,0-56.86h-5.79v61.22s2.19,17,5.9,23.75,10.7,21.79,33.43,31.16,464.36,150.5,464.36,150.5m0,0-77.19,24.51s-.2.78,1.43,1.22a57.09,57.09,0,0,0,6.19.9l7.05.62,17.94.94,16.64.61,24.13.2H678l24.31-.44,14.42-.7,11-.74,4.55-.57s2.46-.45,2.86-1.67Z"></path><path class="cls-8" d="M153.44,374c2.69,0,4.88,2.59,4.88,5.79m0,0a8.25,8.25,0,0,1-1,3.35,8,8,0,0,0-.54,3.78v2.56M153.45,374c-2.69,0-4.87,2.59-4.87,5.79m0,0a8.25,8.25,0,0,0,1,3.35,8,8,0,0,1,.54,3.78v2.56m.69,154.6.42,110.67m-3.12-111.17-1.12.5h-2.86L143.92,451h2.61l1.56.29-1.56.33.44,92.44"></path></svg> 