<?xml version="1.0" encoding="UTF-8"?> <svg xmlns="http://www.w3.org/2000/svg" id="Livello_1" data-name="Livello 1" viewBox="0 0 767.29 1000"><defs><style>.cls-1{fill:#fff;}.cls-2{fill:#231f20;}.cls-3,.cls-4{fill:none;stroke-width:0.25px;}.cls-3{stroke:#000;}.cls-4{stroke:#231f20;stroke-miterlimit:10;}</style></defs><title>Glo wall medium</title><rect class="cls-1" width="767.29" height="1000"></rect><path class="cls-2" d="M194.09,22.15a33.51,33.51,0,0,0-1.31-10.06,17.82,17.82,0,0,0-3.57-6.84,13.26,13.26,0,0,0-5.54-3.94A18.64,18.64,0,0,0,176.54,0a18.91,18.91,0,0,0-7.14,1.31,13,13,0,0,0-5.47,3.94,17.82,17.82,0,0,0-3.57,6.84,33.83,33.83,0,0,0-1.31,10.06v9a33.64,33.64,0,0,0,1.31,10A19.47,19.47,0,0,0,163.93,48a13.39,13.39,0,0,0,5.54,3.93,18.75,18.75,0,0,0,7.14,1.31,18.5,18.5,0,0,0,7.14-1.31A13.36,13.36,0,0,0,189.28,48a19.31,19.31,0,0,0,3.57-6.92,35.92,35.92,0,0,0,1.24-10ZM183.82,32.49a26.9,26.9,0,0,1-.51,5.83,11.38,11.38,0,0,1-1.38,3.86,5.23,5.23,0,0,1-2.26,2.11,7.42,7.42,0,0,1-6.12,0,5.12,5.12,0,0,1-2.26-2.11,11.33,11.33,0,0,1-1.46-3.86,33,33,0,0,1-.43-5.83V20.62a32.16,32.16,0,0,1,.43-5.76,10.75,10.75,0,0,1,1.39-3.79A6.19,6.19,0,0,1,173.48,9a7.08,7.08,0,0,1,3.06-.58A6.75,6.75,0,0,1,179.6,9a6,6,0,0,1,2.33,2.11,11,11,0,0,1,1.38,3.79,26.22,26.22,0,0,1,.51,5.76ZM233.54,8.31a11.06,11.06,0,0,0-3.43-4.52A14.61,14.61,0,0,0,224.94,1,22.72,22.72,0,0,0,218.38,0a23.64,23.64,0,0,0-6.63,1,15.44,15.44,0,0,0-5.17,2.84,12.4,12.4,0,0,0-3.42,4.52A14.9,14.9,0,0,0,202,14.5a12.16,12.16,0,0,0,1.82,6.7A13.3,13.3,0,0,0,209,25.86a14.6,14.6,0,0,0-5.91,5,12.51,12.51,0,0,0-2.25,7.5,13.88,13.88,0,0,0,1.38,6.48,13.49,13.49,0,0,0,3.64,4.67,17.33,17.33,0,0,0,5.61,2.84,26.24,26.24,0,0,0,13.92,0,17.54,17.54,0,0,0,5.53-2.84,13.63,13.63,0,0,0,3.65-4.67,15,15,0,0,0,1.31-6.48,13.12,13.12,0,0,0-2.19-7.5,15.26,15.26,0,0,0-6-5,13.35,13.35,0,0,0,5.17-4.66,12.21,12.21,0,0,0,1.9-6.7,14.89,14.89,0,0,0-1.24-6.19ZM223.63,43a6.88,6.88,0,0,1-5.25,2,7.84,7.84,0,0,1-3-.51A5.18,5.18,0,0,1,213.14,43a5.42,5.42,0,0,1-1.46-2.33,8,8,0,0,1-.51-3.06,8.68,8.68,0,0,1,.51-3.13,6.27,6.27,0,0,1,3.72-3.79,7.47,7.47,0,0,1,2.91-.51,7.92,7.92,0,0,1,3,.51,6,6,0,0,1,2.26,1.46A6.89,6.89,0,0,1,225,34.46a8.47,8.47,0,0,1,.51,3.13A7.28,7.28,0,0,1,223.63,43Zm-.73-23a6.31,6.31,0,0,1-9,0,7.2,7.2,0,0,1-1.61-5,7.09,7.09,0,0,1,1.61-5,5.82,5.82,0,0,1,4.51-1.74,5.71,5.71,0,0,1,4.52,1.82A7.4,7.4,0,0,1,224.5,15a7.61,7.61,0,0,1-1.6,5ZM267.74.66h-1.1L245.22,8.38v8.3l12.24-3.79V52.53h10.28Zm41.77,0h-1.09L287,8.38v8.3l12.24-3.79V52.53h10.27Zm37.26,25.57h-20v8.23h20ZM365,30.09h5.46a13.75,13.75,0,0,1,3.57.43,10.92,10.92,0,0,1,2.7,1.39,7.28,7.28,0,0,1,1.67,2.4,10.59,10.59,0,0,1,.58,3.57,7.84,7.84,0,0,1-.58,2.92A5,5,0,0,1,376.9,43a5.54,5.54,0,0,1-2.48,1.46,9.17,9.17,0,0,1-3.27.51,8.14,8.14,0,0,1-3-.51,6.56,6.56,0,0,1-2.41-1.38,6,6,0,0,1-2.18-4.74H353.3A13.51,13.51,0,0,0,354.83,45a13.89,13.89,0,0,0,4,4.66,17.73,17.73,0,0,0,5.61,2.77,24.58,24.58,0,0,0,6.49.87,25.72,25.72,0,0,0,7.28-1,16.93,16.93,0,0,0,5.83-3,13.7,13.7,0,0,0,3.86-4.74A15.3,15.3,0,0,0,389.29,38a12.12,12.12,0,0,0-8.67-12.09A18.13,18.13,0,0,0,384,23.82a16.48,16.48,0,0,0,2.47-2.62A13.53,13.53,0,0,0,388,18.07a12.51,12.51,0,0,0,.51-3.28,14.93,14.93,0,0,0-1.31-6.41,13,13,0,0,0-3.57-4.59A16.44,16.44,0,0,0,378.07,1,27,27,0,0,0,370.93,0a21.66,21.66,0,0,0-6.63,1,18.31,18.31,0,0,0-5.39,2.84,14.45,14.45,0,0,0-3.65,4.45A12.92,12.92,0,0,0,354,14.13h10.27a5.26,5.26,0,0,1,.59-2.4,5.09,5.09,0,0,1,1.45-1.82,6.16,6.16,0,0,1,2.26-1.17,7.68,7.68,0,0,1,2.63-.43,8,8,0,0,1,3.13.51,5.62,5.62,0,0,1,2.18,1.38,5.24,5.24,0,0,1,1.32,2.11,7.66,7.66,0,0,1,.43,2.62,7.17,7.17,0,0,1-1.89,5.18c-1.31,1.31-3.21,2-5.83,2H365ZM421.3.66h-1.09L398.79,8.38v8.3L411,12.89V52.53H421.3Z"></path><path class="cls-2" d="M170.73,97.77v51.8h4.37V126.91L174.73,104,194,149.57h3.35l19.3-45.68-.36,23v22.66h4.37V97.77H214.8l-19.16,45.68L176.48,97.77Zm81.53,51.94a14.78,14.78,0,0,0,6.7-3.57,19.31,19.31,0,0,0,2.26-2.69l-2.7-2a12.51,12.51,0,0,1-4.73,3.93,13.34,13.34,0,0,1-6,1.24,12.2,12.2,0,0,1-5.39-1.16,13,13,0,0,1-4.15-3.28,14.73,14.73,0,0,1-2.7-4.81,18.13,18.13,0,0,1-.94-6v-.81H262V128a24.13,24.13,0,0,0-1-7.06,15.68,15.68,0,0,0-2.91-5.61,14.16,14.16,0,0,0-4.81-3.65,15.21,15.21,0,0,0-6.48-1.31,14.28,14.28,0,0,0-6.27,1.39,16.75,16.75,0,0,0-5.24,3.93,18.42,18.42,0,0,0-3.65,6.12,23.63,23.63,0,0,0-1.31,8.09v1.53a21.3,21.3,0,0,0,1.31,7.57,17,17,0,0,0,3.57,6,15.34,15.34,0,0,0,5.47,3.86,16.67,16.67,0,0,0,6.92,1.45,17.83,17.83,0,0,0,4.66-.58ZM251.53,115A11.57,11.57,0,0,1,255,117.8a12.77,12.77,0,0,1,2,4,17.24,17.24,0,0,1,.81,4.74V127H234.7a19.68,19.68,0,0,1,1.39-5.32,13.42,13.42,0,0,1,2.55-4.08,12.72,12.72,0,0,1,3.64-2.69,11.64,11.64,0,0,1,4.52-.88,10.83,10.83,0,0,1,4.73,1Zm17.08,15.67a27.57,27.57,0,0,0,1,7.94,19.6,19.6,0,0,0,2.92,6.19,14.38,14.38,0,0,0,4.66,4,13.45,13.45,0,0,0,6.19,1.45,15.4,15.4,0,0,0,7.14-1.53,14.49,14.49,0,0,0,4.88-4.29l.15,5.1h4V94.93h-4.23v21.56a14.54,14.54,0,0,0-4.88-4.52,14.21,14.21,0,0,0-7-1.6,13.11,13.11,0,0,0-6.2,1.39,13.59,13.59,0,0,0-4.73,3.93,19.6,19.6,0,0,0-2.92,6.19,28.26,28.26,0,0,0-1,8.09Zm4.3-.73a28.38,28.38,0,0,1,.66-6.27,15.71,15.71,0,0,1,2-5,9.78,9.78,0,0,1,3.57-3.35,9.4,9.4,0,0,1,5.1-1.24,13.94,13.94,0,0,1,4.08.58,11.45,11.45,0,0,1,3.13,1.68,9.79,9.79,0,0,1,2.26,2.4,16.34,16.34,0,0,1,1.6,2.84v18.07a16.06,16.06,0,0,1-1.75,2.77,9.27,9.27,0,0,1-2.33,2.18,11.09,11.09,0,0,1-3.13,1.46,14,14,0,0,1-3.94.51,9.88,9.88,0,0,1-5-1.24,9.78,9.78,0,0,1-3.57-3.35,15.68,15.68,0,0,1-2-5,27.77,27.77,0,0,1-.66-6.26Zm42.65-18.87h-4.29v38.47h4.29ZM311.27,102a3.08,3.08,0,0,0,2.18.81,2.9,2.9,0,0,0,2.11-.81,2.65,2.65,0,0,0,.81-2,2.57,2.57,0,0,0-.81-2,2.69,2.69,0,0,0-2.11-.87,2.75,2.75,0,0,0-2.91,2.91,2.91,2.91,0,0,0,.73,2Zm40.63,47.58h4.15V111.1h-4.3v27.83A14.82,14.82,0,0,1,350.3,142a8.07,8.07,0,0,1-2.33,2.4,10.07,10.07,0,0,1-3.43,1.61,16.37,16.37,0,0,1-4.51.58,11,11,0,0,1-3.43-.51,7,7,0,0,1-2.84-1.82,8.89,8.89,0,0,1-1.89-3.28,17.19,17.19,0,0,1-.73-5.17V111.1h-4.23v24.62a20,20,0,0,0,.95,6.71,11.76,11.76,0,0,0,2.55,4.51,10.39,10.39,0,0,0,4,2.55,18.08,18.08,0,0,0,12.6-.73,12.43,12.43,0,0,0,4.81-4.07Zm14.9-38.47v38.47h4.29V123.19a20.61,20.61,0,0,1,1.39-3.42,14.35,14.35,0,0,1,2.26-2.91,12.21,12.21,0,0,1,3.27-2,10.74,10.74,0,0,1,4.23-.73,12.83,12.83,0,0,1,3.86.51,7,7,0,0,1,4.88,4.73,15.27,15.27,0,0,1,.66,4.81v25.43h4.3v-25.5a10.32,10.32,0,0,1,.87-3.43,13.76,13.76,0,0,1,2.19-3.2,12.35,12.35,0,0,1,3.49-2.41,10.56,10.56,0,0,1,4.67-.94,15.06,15.06,0,0,1,3.78.43,6.47,6.47,0,0,1,3,1.68,7.77,7.77,0,0,1,2,3.21,16.36,16.36,0,0,1,.65,5v25.14h4.23V124.51a21,21,0,0,0-.8-6.42,10.76,10.76,0,0,0-2.48-4.37,9.25,9.25,0,0,0-4-2.55,17,17,0,0,0-5.31-.8,15.9,15.9,0,0,0-4.3.59,15,15,0,0,0-3.65,1.52,13.53,13.53,0,0,0-3,2.41,16.67,16.67,0,0,0-2.19,2.91,10.13,10.13,0,0,0-4.3-5.68,14.42,14.42,0,0,0-7.28-1.75,13.71,13.71,0,0,0-3.94.51,12.79,12.79,0,0,0-3.42,1.39,10.58,10.58,0,0,0-2.84,2.18,15.17,15.17,0,0,0-2.26,2.92l-.14-6.27Z"></path><polygon points="308.87 958.63 280.94 958.63 280.94 962.93 303.28 962.93 286.23 1000 291.76 1000 308.87 961.59 308.87 958.63"></polygon><line class="cls-3" x1="255.58" y1="907.04" x2="341.63" y2="907.04"></line><line class="cls-3" x1="169.54" y1="362.52" x2="420.62" y2="362.52"></line><line class="cls-3" x1="494.84" y1="407.24" x2="494.84" y2="814.39"></line><path d="M553.68,618v5.58l28.69,18.51h3.09V623.22h9.6V618h-9.6v-5.77h-4.31V618Zm8.33,5.87-1.11-.64h20.25v12.92Zm8.61-42.38c-6,.06-10.36,1.16-13.21,3.26s-4.31,5.35-4.31,9.83,1.46,7.8,4.43,9.9,7.5,3.14,13.55,3.14h7c5.81-.06,10.18-1.16,13.15-3.32s4.36-5.35,4.36-9.77-1.51-7.8-4.48-9.9-7.56-3.14-13.73-3.14Zm8.2,5.24c4.31.06,7.51.75,9.49,2a7,7,0,0,1-.18,11.69c-2.15,1.28-5.41,2-9.89,2H569.8c-4.19-.06-7.33-.7-9.36-1.92a6.33,6.33,0,0,1-3-5.88,6.42,6.42,0,0,1,3.08-5.93c2-1.28,5.24-1.92,9.72-1.92Z"></path><path d="M254.27,326l-2.85,5.76H255l2.09-4.25a14.71,14.71,0,0,0,5.41,1,13.89,13.89,0,0,0,7.28-1.92,13.58,13.58,0,0,0,4.94-5.59,18.23,18.23,0,0,0,1.75-8.09c0-6.05-1.86-10.59-5.53-13.5l2.91-5.82h-3.55l-2,4.25a13.94,13.94,0,0,0-5.81-1.22,13.37,13.37,0,0,0-7.28,2,13.22,13.22,0,0,0-4.94,5.59,18,18,0,0,0-1.75,8.08c0,6.35,2,10.89,5.82,13.74Zm1.86-22a7.56,7.56,0,0,1,6.29-3.08,7.78,7.78,0,0,1,3.78.93l-9.72,19.72c-1.86-2.15-2.74-5-2.74-8.67,0-3.84.76-6.8,2.39-8.9Zm15,8.73c0,3.49-.75,6.28-2.32,8.38a7.75,7.75,0,0,1-6.35,3.08,8.15,8.15,0,0,1-3.43-.7l9.66-19.55a13.23,13.23,0,0,1,2.44,8.32Zm38.25,10.88H288.62l11.06-12c5.23-5.59,7.79-10.48,7.79-14.55a10.39,10.39,0,0,0-3.31-8c-2.27-2-5.3-3-9.14-3-4.13,0-7.39,1.16-9.83,3.55a12,12,0,0,0-3.73,9.19h5.3a8.64,8.64,0,0,1,2.15-6.22,8.26,8.26,0,0,1,6.11-2.21,7,7,0,0,1,5.24,2.09,7.41,7.41,0,0,1,1.92,5.3,10,10,0,0,1-1.17,4.65,31.76,31.76,0,0,1-4.42,5.88l-14.31,15.94v3.79h27.11Zm12.24-15.36,1.4-1.11a8.66,8.66,0,0,1,5.41-1.51,7.63,7.63,0,0,1,6,2.5,9.63,9.63,0,0,1,2.26,6.69,10.4,10.4,0,0,1-2.09,6.87,7.05,7.05,0,0,1-5.76,2.5,7.79,7.79,0,0,1-5.41-1.8,8.34,8.34,0,0,1-2.51-5.35h-5a12.19,12.19,0,0,0,4,8.43,13,13,0,0,0,9,3c4.13,0,7.33-1.22,9.66-3.67s3.43-5.82,3.43-10.06-1.1-7.63-3.31-10.13a11.42,11.42,0,0,0-9-3.72,13.09,13.09,0,0,0-6.92,1.8L324,291.41h16.76v-4.89H319.54l-2.1,20.66Z"></path><path class="cls-1" d="M228.49,409.26l8.61,124.1a14.93,14.93,0,0,0,14.71,14.12h91.06a13.82,13.82,0,0,0,13.6-13l9-125.21"></path><path class="cls-1" d="M285.42,723.41V659.63c0-19-17.18-26.94-17.18-26.94-100-28.52-96.06-119.63-96.06-119.63-3.91-62.59,47.63-103,47.63-103s149.64-.9,150.52,0c0,0,51.55,40.41,47.65,103,0,0,3.9,91.11-96.06,119.63,0,0-17.19,7.92-17.19,26.94v63.78m3.34,61.4H331.5v30.1h-75v-30.1H282.3m24.21,23.77H282.3V723h24.21Z"></path><path class="cls-4" d="M285.42,723.41V659.63c0-19-17.18-26.94-17.18-26.94-100-28.52-96.06-119.63-96.06-119.63-3.91-62.59,47.63-103,47.63-103s149.64-.9,150.52,0c0,0,51.55,40.41,47.65,103,0,0,3.9,91.11-96.06,119.63,0,0-17.19,7.92-17.19,26.94v63.78m3.34,61.4H331.5v30.1h-75v-30.1H282.3m24.21,23.77H282.3V723h24.21Zm56.7-368,2.25-31.3M320.11,547.48h22.76a13.82,13.82,0,0,0,13.6-13l2.25-31.31m-123.78-.82,2.16,31a14.93,14.93,0,0,0,14.71,14.12h22.76M228.49,409.26l2.15,31"></path></svg> 