<?xml version="1.0" encoding="UTF-8"?> <svg xmlns="http://www.w3.org/2000/svg" id="Livello_1" data-name="Livello 1" viewBox="0 0 767.29 1000"><defs><style>.cls-1{fill:#fff;}.cls-2{fill:#231f20;}.cls-3,.cls-4,.cls-5,.cls-6{fill:none;stroke-width:0.25px;}.cls-3{stroke:#000;}.cls-4,.cls-5,.cls-6{stroke:#231f20;stroke-miterlimit:10;}.cls-5{stroke-dasharray:2.48 2.48;}.cls-6{stroke-dasharray:2.73 2.73;}</style></defs><title>Glo wall mini</title><rect class="cls-1" width="767.29" height="1000"></rect><path class="cls-2" d="M201.44,22.15a33.51,33.51,0,0,0-1.31-10.06,17.82,17.82,0,0,0-3.57-6.84A13.29,13.29,0,0,0,191,1.31a20.11,20.11,0,0,0-14.28,0,13,13,0,0,0-5.47,3.94,18,18,0,0,0-3.57,6.84,33.83,33.83,0,0,0-1.31,10.06v9a33.64,33.64,0,0,0,1.31,10A19.47,19.47,0,0,0,171.28,48a13.39,13.39,0,0,0,5.54,3.93A18.79,18.79,0,0,0,184,53.25a18.5,18.5,0,0,0,7.14-1.31A13.39,13.39,0,0,0,196.64,48a19.47,19.47,0,0,0,3.57-6.92,36.33,36.33,0,0,0,1.23-10ZM191.17,32.49a26.29,26.29,0,0,1-.51,5.83,11.38,11.38,0,0,1-1.38,3.86A5.23,5.23,0,0,1,187,44.29a7.42,7.42,0,0,1-6.12,0,5.17,5.17,0,0,1-2.26-2.11,11.54,11.54,0,0,1-1.46-3.86,33,33,0,0,1-.43-5.83V20.62a32.16,32.16,0,0,1,.43-5.76,11.15,11.15,0,0,1,1.39-3.79A6.19,6.19,0,0,1,180.83,9a7.08,7.08,0,0,1,3.06-.58A6.75,6.75,0,0,1,187,9a6,6,0,0,1,2.33,2.11,11,11,0,0,1,1.38,3.79,25.62,25.62,0,0,1,.51,5.76ZM240.89,8.31a11.06,11.06,0,0,0-3.43-4.52A14.61,14.61,0,0,0,232.29,1,22.72,22.72,0,0,0,225.73,0a23.57,23.57,0,0,0-6.62,1,15.39,15.39,0,0,0-5.18,2.84,12.51,12.51,0,0,0-3.42,4.52,14.9,14.9,0,0,0-1.17,6.19,12.24,12.24,0,0,0,1.82,6.7,13.3,13.3,0,0,0,5.18,4.66,14.5,14.5,0,0,0-5.9,5,12.51,12.51,0,0,0-2.26,7.5,13.88,13.88,0,0,0,1.38,6.48,13.61,13.61,0,0,0,3.64,4.67,17.33,17.33,0,0,0,5.61,2.84,26.24,26.24,0,0,0,13.92,0,17.7,17.7,0,0,0,5.54-2.84,13.61,13.61,0,0,0,3.64-4.67,15,15,0,0,0,1.31-6.48,13.12,13.12,0,0,0-2.19-7.5,15.26,15.26,0,0,0-6-5,13.28,13.28,0,0,0,5.17-4.66,12.21,12.21,0,0,0,1.9-6.7,14.89,14.89,0,0,0-1.24-6.19ZM231,43a6.88,6.88,0,0,1-5.25,2,7.84,7.84,0,0,1-3-.51A5.18,5.18,0,0,1,220.49,43,5.42,5.42,0,0,1,219,40.65a8,8,0,0,1-.51-3.06,8.68,8.68,0,0,1,.51-3.13,6.27,6.27,0,0,1,3.72-3.79,7.47,7.47,0,0,1,2.91-.51,7.92,7.92,0,0,1,3,.51,6,6,0,0,1,2.26,1.46,6.89,6.89,0,0,1,1.45,2.33,8.47,8.47,0,0,1,.51,3.13A7.28,7.28,0,0,1,231,43Zm-.73-23a6.31,6.31,0,0,1-9,0,7.25,7.25,0,0,1-1.6-5,7.14,7.14,0,0,1,1.6-5,5.82,5.82,0,0,1,4.51-1.74,5.71,5.71,0,0,1,4.52,1.82,7.4,7.4,0,0,1,1.6,4.88,7.61,7.61,0,0,1-1.6,5ZM275.09.66H274L252.58,8.38v8.3l12.23-3.79V52.53h10.28Zm41.77,0h-1.09L294.35,8.38v8.3l12.24-3.79V52.53h10.27Zm37.26,25.57h-20v8.23h20Zm18.26,3.86h5.46a13.75,13.75,0,0,1,3.57.43,10.74,10.74,0,0,1,2.7,1.39,7,7,0,0,1,1.67,2.4,10.34,10.34,0,0,1,.59,3.57,7.65,7.65,0,0,1-.59,2.92A5,5,0,0,1,384.25,43a5.5,5.5,0,0,1-2.47,1.46,9.23,9.23,0,0,1-3.28.51,8.14,8.14,0,0,1-3-.51,6.44,6.44,0,0,1-2.4-1.38,6.36,6.36,0,0,1-1.61-2,6.48,6.48,0,0,1-.58-2.7H360.65A13.51,13.51,0,0,0,362.18,45a13.8,13.8,0,0,0,4,4.66,17.57,17.57,0,0,0,5.6,2.77,24.58,24.58,0,0,0,6.49.87,25.66,25.66,0,0,0,7.28-1,16.84,16.84,0,0,0,5.83-3,13.59,13.59,0,0,0,3.86-4.74A15.3,15.3,0,0,0,396.64,38,12.12,12.12,0,0,0,388,25.94a17.81,17.81,0,0,0,3.35-2.12,16.55,16.55,0,0,0,2.48-2.62,14.38,14.38,0,0,0,1.53-3.13,12.94,12.94,0,0,0,.51-3.28,14.93,14.93,0,0,0-1.32-6.41A13,13,0,0,0,391,3.79,16.44,16.44,0,0,0,385.42,1,27,27,0,0,0,378.28,0a21.66,21.66,0,0,0-6.63,1,18.31,18.31,0,0,0-5.39,2.84,14.28,14.28,0,0,0-3.64,4.45,12.8,12.8,0,0,0-1.32,5.82h10.28a5.25,5.25,0,0,1,.58-2.4,5,5,0,0,1,1.46-1.82,6,6,0,0,1,2.25-1.17,7.72,7.72,0,0,1,2.63-.43,7.93,7.93,0,0,1,3.13.51,5.73,5.73,0,0,1,2.19,1.38,5.22,5.22,0,0,1,1.31,2.11,7.66,7.66,0,0,1,.43,2.62,7.17,7.17,0,0,1-1.89,5.18c-1.31,1.31-3.21,2-5.83,2h-5.46Zm66.18-7.94a33.83,33.83,0,0,0-1.31-10.06,17.82,17.82,0,0,0-3.57-6.84,13.32,13.32,0,0,0-5.54-3.94A18.69,18.69,0,0,0,421,0a19,19,0,0,0-7.14,1.31,13.08,13.08,0,0,0-5.46,3.94,17.82,17.82,0,0,0-3.57,6.84,33.51,33.51,0,0,0-1.31,10.06v9a33.31,33.31,0,0,0,1.31,10A19.31,19.31,0,0,0,408.4,48a13.36,13.36,0,0,0,5.53,3.93,18.79,18.79,0,0,0,7.14,1.31,18.46,18.46,0,0,0,7.14-1.31A13.33,13.33,0,0,0,433.75,48a19.31,19.31,0,0,0,3.57-6.92,36.3,36.3,0,0,0,1.24-10ZM428.29,32.49a26.9,26.9,0,0,1-.51,5.83,11.59,11.59,0,0,1-1.39,3.86,5.12,5.12,0,0,1-2.26,2.11,7.42,7.42,0,0,1-6.12,0,5.15,5.15,0,0,1-2.25-2.11,11.12,11.12,0,0,1-1.46-3.86,32.91,32.91,0,0,1-.44-5.83V20.62a32.06,32.06,0,0,1,.44-5.76,11,11,0,0,1,1.38-3.79A6.35,6.35,0,0,1,417.94,9,7.14,7.14,0,0,1,421,8.38a6.7,6.7,0,0,1,3.06.58,5.86,5.86,0,0,1,2.33,2.11,11.15,11.15,0,0,1,1.39,3.79,26.22,26.22,0,0,1,.51,5.76Z"></path><path class="cls-2" d="M241.2,97.77v51.8h4.38V126.91L245.21,104l19.23,45.54h3.36l19.3-45.68-.36,23v22.66h4.37V97.77h-5.83l-19.16,45.68L247,97.77ZM308,111.1h-4.3v38.47H308Zm-4.3-9.11a3.09,3.09,0,0,0,2.18.81A2.93,2.93,0,0,0,308,102a2.68,2.68,0,0,0,.8-2,2.6,2.6,0,0,0-.8-2,2.71,2.71,0,0,0-2.12-.87,2.85,2.85,0,0,0-2.18.87,2.81,2.81,0,0,0-.73,2,2.91,2.91,0,0,0,.73,2Zm15.79,9.11v38.47h4.23V123.19a15.87,15.87,0,0,1,1.67-3.35,11.56,11.56,0,0,1,5.69-5,10.77,10.77,0,0,1,4.15-.73,12.41,12.41,0,0,1,3.79.51,6.28,6.28,0,0,1,2.84,1.67,8.73,8.73,0,0,1,1.82,3.21,16.43,16.43,0,0,1,.65,5v25.06h4.23V124.51a21.28,21.28,0,0,0-.87-6.49,12,12,0,0,0-2.41-4.37,9,9,0,0,0-3.86-2.48,14.37,14.37,0,0,0-5.17-.8,14,14,0,0,0-3.94.51,15.72,15.72,0,0,0-3.42,1.46,15,15,0,0,0-2.91,2.33,14.59,14.59,0,0,0-2.26,3l-.15-6.56Zm44.77,0h-4.3v38.47h4.3Zm-4.3-9.11a3.09,3.09,0,0,0,2.18.81,2.93,2.93,0,0,0,2.12-.81,2.68,2.68,0,0,0,.8-2,2.6,2.6,0,0,0-.8-2,2.71,2.71,0,0,0-2.12-.87,2.85,2.85,0,0,0-2.18.87,2.81,2.81,0,0,0-.73,2,2.91,2.91,0,0,0,.73,2Z"></path><polygon points="326.73 958.63 298.8 958.63 298.8 962.93 321.15 962.93 304.1 1000 309.62 1000 326.73 961.59 326.73 958.63"></polygon><path class="cls-3" d="M222,362.52H402.52m84.57,72.66V795.76"></path><path d="M583,617.7v20.77l-12-11.06c-5.59-5.23-10.47-7.79-14.55-7.79a10.42,10.42,0,0,0-8,3.31c-2,2.27-3,5.3-3,9.14,0,4.13,1.16,7.39,3.55,9.83a11.93,11.93,0,0,0,9.19,3.73v-5.3a8.66,8.66,0,0,1-6.23-2.15,8.28,8.28,0,0,1-2.21-6.11,6.93,6.93,0,0,1,2.1-5.24,7.4,7.4,0,0,1,5.29-1.92,10,10,0,0,1,4.66,1.17,32.58,32.58,0,0,1,5.88,4.42l15.94,14.31h3.78V617.7ZM546,589.92v5.59L574.64,614h3.08V595.16h9.6v-5.24h-9.6v-5.76h-4.31v5.76Zm8.32,5.88-1.11-.64h20.25v12.92Z"></path><path d="M272.14,326l-2.85,5.76h3.55l2.09-4.25a14.71,14.71,0,0,0,5.41,1,13.86,13.86,0,0,0,7.28-1.92,13.67,13.67,0,0,0,4.95-5.59,18.36,18.36,0,0,0,1.74-8.09c0-6.05-1.86-10.59-5.53-13.5l2.91-5.82h-3.55l-2,4.25a14,14,0,0,0-5.82-1.22,13.39,13.39,0,0,0-7.28,2,13.22,13.22,0,0,0-4.94,5.59,18,18,0,0,0-1.75,8.08c0,6.35,2,10.89,5.82,13.74ZM274,304a7.56,7.56,0,0,1,6.29-3.08,7.78,7.78,0,0,1,3.78.93l-9.72,19.72c-1.86-2.15-2.73-5-2.73-8.67,0-3.84.75-6.8,2.38-8.9Zm15,8.73a13.65,13.65,0,0,1-2.33,8.38,7.75,7.75,0,0,1-6.35,3.08,8.15,8.15,0,0,1-3.43-.7l9.66-19.55a13.23,13.23,0,0,1,2.45,8.32Zm28.41-26.36h-.81L301.54,292v4.77l10.59-3.89v35h5.3ZM340.49,309h4c2.79.06,4.95.7,6.4,2a6.85,6.85,0,0,1,2.21,5.53,7.62,7.62,0,0,1-2,5.7,9.45,9.45,0,0,1-11.58,0,6.71,6.71,0,0,1-2.09-5.17h-5.3a10.44,10.44,0,0,0,3.67,8.32,15.57,15.57,0,0,0,18.91-.12,11.27,11.27,0,0,0,3.67-8.84,10.08,10.08,0,0,0-1.87-6.11,10.39,10.39,0,0,0-5.29-3.55,10.69,10.69,0,0,0,4.77-3.79,9,9,0,0,0,1.75-5.23c0-3.73-1.11-6.58-3.32-8.68s-5.3-3.08-9.19-3.08a13.23,13.23,0,0,0-9.14,3.26,10.55,10.55,0,0,0-3.61,8.15h5.3a6.69,6.69,0,0,1,2-5.12,7.51,7.51,0,0,1,5.47-2c4.83,0,7.27,2.44,7.27,7.27a6.69,6.69,0,0,1-2.15,5.18,8.86,8.86,0,0,1-5.88,2h-4Z"></path><path class="cls-1" d="M330.27,780.76H295.71V693.07h34.56Zm1.38-26.18h25.58v32.53h-92V754.58h30.43m6.22-61.51v-75a19.59,19.59,0,0,0-1.28-6.1C295.56,598.49,277,589.83,277,589.83c-51.84-18.39-52.53-79.2-52.53-79.2-2.08-41.72,25.58-70,25.58-70H374.4s27.65,28.29,25.58,70c0,0-.69,60.81-52.54,79.2,0,0-18.53,8.66-23.62,22.19a19,19,0,0,0-1.26,6.1v75M251.18,446.74l.23,2.47"></path><path class="cls-4" d="M330.27,780.76H295.71V693.07h34.56Zm1.38-26.18h25.58v32.53h-92V754.58h30.43m6.22-61.51v-75a19.59,19.59,0,0,0-1.28-6.1C295.56,598.49,277,589.83,277,589.83c-51.84-18.39-52.53-79.2-52.53-79.2-2.08-41.72,25.58-70,25.58-70H374.4s27.65,28.29,25.58,70c0,0-.69,60.81-52.54,79.2,0,0-18.53,8.66-23.62,22.19a19,19,0,0,0-1.26,6.1v75M251.18,446.74l.23,2.47"></path><path class="cls-1" d="M253.17,450.3l8.9,96A17,17,0,0,0,278.8,562h67.55a17.38,17.38,0,0,0,17.08-16.19l8.72-105.69"></path><line class="cls-5" x1="256.51" y1="486.29" x2="259.85" y2="522.27"></line><line class="cls-6" x1="366.7" y1="506.13" x2="369.97" y2="466.49"></line><path class="cls-4" d="M253.17,450.3l1.12,12m6.67,72,1.11,12A17,17,0,0,0,278.8,562h16.89m33.78,0h16.88a17.38,17.38,0,0,0,17.08-16.19l1.09-13.2m6.55-79.27,1.08-13.21m0,2.06,2-6.21"></path><line class="cls-3" x1="273.44" y1="887.79" x2="359.49" y2="887.79"></line></svg> 