<?xml version="1.0" encoding="UTF-8"?> <svg xmlns="http://www.w3.org/2000/svg" id="Livello_1" data-name="Livello 1" viewBox="0 0 767.29 1000"><defs><style>.cls-1{fill:#fff;}.cls-2{fill:#231f20;}.cls-3,.cls-4,.cls-5{fill:none;stroke-width:0.25px;}.cls-3{stroke:#000;}.cls-4,.cls-5{stroke:#231f20;}.cls-4{stroke-miterlimit:10;}.cls-5{stroke-linecap:square;stroke-linejoin:round;}</style></defs><title>Glo sospensione medium</title><rect class="cls-1" width="767.29" height="1000"></rect><path class="cls-2" d="M220.42,19.17a29,29,0,0,0-1.14-8.7,15.36,15.36,0,0,0-3.09-5.93,11.45,11.45,0,0,0-4.79-3.4A16,16,0,0,0,205.22,0,16.27,16.27,0,0,0,199,1.14a11.27,11.27,0,0,0-4.73,3.4,15.5,15.5,0,0,0-3.09,5.93,29,29,0,0,0-1.14,8.7v7.76a28.9,28.9,0,0,0,1.14,8.64,16.92,16.92,0,0,0,3.09,6A11.57,11.57,0,0,0,199.1,45a16.5,16.5,0,0,0,6.18,1.13A16.2,16.2,0,0,0,211.46,45a11.66,11.66,0,0,0,4.8-3.41,16.92,16.92,0,0,0,3.09-6,31.55,31.55,0,0,0,1.07-8.64Zm-8.89,9a23.29,23.29,0,0,1-.44,5,10.08,10.08,0,0,1-1.2,3.35,4.48,4.48,0,0,1-2,1.82,6.42,6.42,0,0,1-5.29,0,4.43,4.43,0,0,1-2-1.82,9.62,9.62,0,0,1-1.26-3.35,28.45,28.45,0,0,1-.38-5V17.85a27.72,27.72,0,0,1,.38-5,9.24,9.24,0,0,1,1.2-3.28,5.36,5.36,0,0,1,1.95-1.83,6.18,6.18,0,0,1,2.65-.51,5.84,5.84,0,0,1,2.65.51,5.1,5.1,0,0,1,2,1.83,9.64,9.64,0,0,1,1.2,3.28,22.7,22.7,0,0,1,.44,5Zm43-20.94a9.65,9.65,0,0,0-3-3.91A12.85,12.85,0,0,0,247.12.82,20,20,0,0,0,241.45,0a20.82,20.82,0,0,0-5.74.82,13.51,13.51,0,0,0-4.48,2.46,10.81,10.81,0,0,0-3,3.91,12.79,12.79,0,0,0-1,5.36,10.53,10.53,0,0,0,1.57,5.8,11.62,11.62,0,0,0,4.48,4,12.72,12.72,0,0,0-5.11,4.29,10.85,10.85,0,0,0-1.95,6.49,12.1,12.1,0,0,0,1.2,5.62,11.66,11.66,0,0,0,3.15,4,14.73,14.73,0,0,0,4.86,2.46,22.51,22.51,0,0,0,12,0,15.13,15.13,0,0,0,4.8-2.46,11.78,11.78,0,0,0,3.15-4,12.9,12.9,0,0,0,1.13-5.62,11.38,11.38,0,0,0-1.89-6.49,13.24,13.24,0,0,0-5.17-4.29,11.54,11.54,0,0,0,4.48-4,10.58,10.58,0,0,0,1.64-5.8,12.94,12.94,0,0,0-1.07-5.36Zm-8.58,30a6,6,0,0,1-4.54,1.7,6.68,6.68,0,0,1-2.59-.44,4.52,4.52,0,0,1-2-1.26,4.75,4.75,0,0,1-1.26-2,6.79,6.79,0,0,1-.45-2.65,7.31,7.31,0,0,1,.45-2.71,5.15,5.15,0,0,1,1.26-2,5.26,5.26,0,0,1,2-1.26,6.56,6.56,0,0,1,2.53-.44,6.85,6.85,0,0,1,2.58.44,5.3,5.3,0,0,1,2,1.26,6.27,6.27,0,0,1,1.26,2,7.52,7.52,0,0,1,.44,2.71A6.33,6.33,0,0,1,246,37.21Zm-.63-19.93a5.48,5.48,0,0,1-7.82,0A6.24,6.24,0,0,1,236.15,13a6.16,6.16,0,0,1,1.39-4.29,5,5,0,0,1,3.91-1.51,4.93,4.93,0,0,1,3.91,1.58A6.43,6.43,0,0,1,246.75,13a6.61,6.61,0,0,1-1.39,4.29ZM284.17.57h-.94L264.68,7.25v7.19l10.6-3.28V45.47h8.89Zm36.17,0h-.95L300.85,7.25v7.19l10.59-3.28V45.47h8.9ZM352.59,22.7H335.25v7.13h17.34Zm37.5,15.58h-19.3L378.68,30c1.51-1.58,2.9-3,4.09-4.48a30.55,30.55,0,0,0,3.16-4.23,20.25,20.25,0,0,0,1.95-4.16,12.53,12.53,0,0,0,.76-4.35,14.72,14.72,0,0,0-.95-5.36,10.56,10.56,0,0,0-2.83-4A12.62,12.62,0,0,0,380.31.88,21.34,21.34,0,0,0,374,0a16.58,16.58,0,0,0-6.5,1.2,14.43,14.43,0,0,0-4.85,3.15A13.94,13.94,0,0,0,359.5,9a16.07,16.07,0,0,0-1.07,5.74h9a8.87,8.87,0,0,1,.44-3,7,7,0,0,1,1.2-2.4,5.68,5.68,0,0,1,2.08-1.57,6.16,6.16,0,0,1,2.77-.57,5.49,5.49,0,0,1,4.29,1.7,6.87,6.87,0,0,1,1.51,4.73,5.89,5.89,0,0,1-.31,2,11.17,11.17,0,0,1-.95,2.27,18,18,0,0,1-1.83,2.71,36.49,36.49,0,0,1-2.77,3.28L359.31,39.35v6.12h30.78Zm27-37.71h-.95L397.62,7.25v7.19l10.6-3.28V45.47h8.89Z"></path><path class="cls-2" d="M200.19,84.64v44.84H204V109.86l-.32-19.8,16.65,39.42h2.9l16.72-39.54-.32,19.92v19.62h3.78V84.64h-5l-16.59,39.54L205.18,84.64Zm70.59,45a12.86,12.86,0,0,0,5.8-3.09,16.85,16.85,0,0,0,1.95-2.33l-2.33-1.7a11,11,0,0,1-4.1,3.4,11.56,11.56,0,0,1-5.24,1.08,10.55,10.55,0,0,1-4.66-1,11.28,11.28,0,0,1-3.6-2.84,12.86,12.86,0,0,1-2.33-4.16,15.58,15.58,0,0,1-.82-5.18v-.69h23.78v-2.27a21,21,0,0,0-.89-6.12,13.41,13.41,0,0,0-2.52-4.85,12.07,12.07,0,0,0-4.16-3.16A13.24,13.24,0,0,0,266,95.55a12.36,12.36,0,0,0-5.42,1.2,14.78,14.78,0,0,0-4.54,3.4,15.75,15.75,0,0,0-3.15,5.3,20.27,20.27,0,0,0-1.14,7v1.32a18.26,18.26,0,0,0,1.14,6.56,14.65,14.65,0,0,0,3.09,5.18,13.19,13.19,0,0,0,4.73,3.34,14.34,14.34,0,0,0,6,1.26,15.54,15.54,0,0,0,4-.51Zm-.64-30a10.38,10.38,0,0,1,3,2.4,11,11,0,0,1,1.76,3.47,14.27,14.27,0,0,1,.7,4.1v.38h-20a17.3,17.3,0,0,1,1.19-4.61,11.85,11.85,0,0,1,2.21-3.53,11.19,11.19,0,0,1,3.15-2.33A10,10,0,0,1,266,98.7a9.41,9.41,0,0,1,4.1.88Zm14.79,13.56a23.6,23.6,0,0,0,.89,6.88,16.72,16.72,0,0,0,2.52,5.36,12.47,12.47,0,0,0,4,3.47,11.62,11.62,0,0,0,5.37,1.26,13.3,13.3,0,0,0,6.18-1.33,12.47,12.47,0,0,0,4.22-3.72l.13,4.42h3.47V82.18h-3.66v18.67a12.44,12.44,0,0,0-4.23-3.91,12.21,12.21,0,0,0-6.05-1.39,11.35,11.35,0,0,0-5.36,1.2,11.82,11.82,0,0,0-4.1,3.4,16.82,16.82,0,0,0-2.52,5.36,24.21,24.21,0,0,0-.89,7Zm3.72-.63a24.56,24.56,0,0,1,.57-5.42,13.67,13.67,0,0,1,1.77-4.35,8.49,8.49,0,0,1,3.09-2.9,8.16,8.16,0,0,1,4.41-1.08,11.68,11.68,0,0,1,3.53.51,10,10,0,0,1,2.72,1.45,8.46,8.46,0,0,1,1.95,2.08,13.69,13.69,0,0,1,1.39,2.46V120.9a13.41,13.41,0,0,1-1.52,2.4,8.18,8.18,0,0,1-2,1.89,9.54,9.54,0,0,1-2.72,1.26,11.79,11.79,0,0,1-3.4.44,8.6,8.6,0,0,1-4.35-1.07,8.49,8.49,0,0,1-3.09-2.9,13.67,13.67,0,0,1-1.77-4.35,24.2,24.2,0,0,1-.57-5.43Zm36.93-16.33h-3.72v33.3h3.72Zm-3.72-7.88a2.67,2.67,0,0,0,1.89.69,2.54,2.54,0,0,0,1.83-.69,2.36,2.36,0,0,0,.69-1.77,2.28,2.28,0,0,0-.69-1.77,2.35,2.35,0,0,0-1.83-.75,2.47,2.47,0,0,0-1.89.75,2.43,2.43,0,0,0-.63,1.77,2.52,2.52,0,0,0,.63,1.77ZM357,129.48h3.6V96.18h-3.72v24.09a13.18,13.18,0,0,1-1.26,2.65,7.14,7.14,0,0,1-2,2.08,8.67,8.67,0,0,1-3,1.39,14.19,14.19,0,0,1-3.91.5,9.24,9.24,0,0,1-3-.44,6,6,0,0,1-2.46-1.58,7.69,7.69,0,0,1-1.64-2.83,15,15,0,0,1-.63-4.48V96.18H335.4V117.5a17.33,17.33,0,0,0,.82,5.8,10.31,10.31,0,0,0,2.21,3.91,9.05,9.05,0,0,0,3.47,2.21,15.64,15.64,0,0,0,10.91-.64,10.72,10.72,0,0,0,4.16-3.53Zm12.9-33.3v33.3h3.72V106.65a16.49,16.49,0,0,1,1.2-3,13,13,0,0,1,1.95-2.52,10.87,10.87,0,0,1,2.84-1.76,9.11,9.11,0,0,1,3.66-.64,11.11,11.11,0,0,1,3.34.45,6.09,6.09,0,0,1,2.52,1.38,6.28,6.28,0,0,1,1.71,2.72,13.5,13.5,0,0,1,.56,4.16v22h3.72V107.4a9.18,9.18,0,0,1,.76-3,12.33,12.33,0,0,1,1.89-2.77,10.78,10.78,0,0,1,3-2.09,9.17,9.17,0,0,1,4-.82,13.13,13.13,0,0,1,3.28.38,5.59,5.59,0,0,1,2.58,1.45,6.71,6.71,0,0,1,1.7,2.78,13.9,13.9,0,0,1,.57,4.35v21.76h3.66v-21.7a18.21,18.21,0,0,0-.69-5.55,9.25,9.25,0,0,0-2.15-3.78,7.94,7.94,0,0,0-3.47-2.21,14.73,14.73,0,0,0-4.6-.69,14.17,14.17,0,0,0-3.72.5,12.7,12.7,0,0,0-3.15,1.33,11.49,11.49,0,0,0-2.59,2.08A14.81,14.81,0,0,0,394.4,102a8.81,8.81,0,0,0-3.72-4.92,12.46,12.46,0,0,0-6.31-1.51A11.59,11.59,0,0,0,381,96a10.94,10.94,0,0,0-3,1.2,8.87,8.87,0,0,0-2.46,1.89,12.66,12.66,0,0,0-2,2.52l-.13-5.42Z"></path><path d="M272.51,816.88l-2.46,5h3.07l1.81-3.67a12.79,12.79,0,0,0,4.69.85,11.94,11.94,0,0,0,6.29-1.66,11.75,11.75,0,0,0,4.29-4.84,15.94,15.94,0,0,0,1.51-7c0-5.24-1.61-9.17-4.79-11.69l2.52-5h-3.07l-1.77,3.67a12.09,12.09,0,0,0-5-1A11.34,11.34,0,0,0,269,798a15.73,15.73,0,0,0-1.51,7c0,5.49,1.71,9.42,5,11.89Zm1.62-19a6.55,6.55,0,0,1,5.44-2.67,6.74,6.74,0,0,1,3.27.81l-8.41,17.08a11,11,0,0,1-2.37-7.51c0-3.32.66-5.89,2.07-7.71Zm13,7.56a11.78,11.78,0,0,1-2,7.25,6.7,6.7,0,0,1-5.49,2.67,7.13,7.13,0,0,1-3-.6L285,797.78a11.48,11.48,0,0,1,2.11,7.21Zm33.12,9.42h-18l9.57-10.43c4.54-4.83,6.75-9.06,6.75-12.59a9,9,0,0,0-2.87-6.95,11.31,11.31,0,0,0-7.91-2.62,11.61,11.61,0,0,0-8.51,3.07,10.37,10.37,0,0,0-3.22,8h4.58a7.46,7.46,0,0,1,1.86-5.39,7.18,7.18,0,0,1,5.29-1.92,6,6,0,0,1,4.54,1.82,6.4,6.4,0,0,1,1.66,4.58,8.63,8.63,0,0,1-1,4,27.39,27.39,0,0,1-3.83,5.09l-12.39,13.8v3.28h23.48Zm10.59-13.3,1.21-1a7.55,7.55,0,0,1,4.68-1.31,6.59,6.59,0,0,1,5.19,2.17,8.33,8.33,0,0,1,2,5.79,9,9,0,0,1-1.82,5.95,6.09,6.09,0,0,1-5,2.16,6.75,6.75,0,0,1-4.69-1.56,7.17,7.17,0,0,1-2.16-4.63h-4.34a10.58,10.58,0,0,0,3.43,7.3,11.26,11.26,0,0,0,7.76,2.62c3.57,0,6.35-1.06,8.36-3.17s3-5,3-8.72-1-6.6-2.87-8.76a9.84,9.84,0,0,0-7.76-3.23,11.3,11.3,0,0,0-6,1.57l1.06-9.78h14.5v-4.23H329L327.2,800.6Z"></path><path class="cls-3" d="M188.18,738.07H415.06m64-398.45V659.36"></path><path d="M549.44,519.84v-3.43a8.46,8.46,0,0,1,1.71-5.54,5.91,5.91,0,0,1,4.79-1.91,6.63,6.63,0,0,1,4.94,1.71,8.21,8.21,0,0,1,0,10,5.85,5.85,0,0,1-4.49,1.81v4.58a9.05,9.05,0,0,0,7.21-3.17,12,12,0,0,0,2.72-8.16,11.9,11.9,0,0,0-2.83-8.21,9.75,9.75,0,0,0-7.65-3.18,8.77,8.77,0,0,0-5.29,1.62,9,9,0,0,0-3.07,4.58,9.32,9.32,0,0,0-3.28-4.13,7.86,7.86,0,0,0-4.53-1.51,9.77,9.77,0,0,0-7.51,2.87,11.34,11.34,0,0,0-2.67,8,11.46,11.46,0,0,0,2.82,7.91,9.16,9.16,0,0,0,7.05,3.12v-4.58a5.81,5.81,0,0,1-4.43-1.72,6.51,6.51,0,0,1-1.71-4.73c0-4.18,2.11-6.3,6.3-6.3a5.77,5.77,0,0,1,4.48,1.87,7.6,7.6,0,0,1,1.71,5.08v3.43Zm-17.28-40.52a12.24,12.24,0,0,0,0,15.26,9.24,9.24,0,0,0,7.15,2.93,8.39,8.39,0,0,0,4.79-1.41,9.81,9.81,0,0,0,3.27-3.73,9.59,9.59,0,0,0,3.53,4.38,9.14,9.14,0,0,0,5.24,1.56,9.48,9.48,0,0,0,7.41-3.07,13.78,13.78,0,0,0,0-16.57,9.38,9.38,0,0,0-7.41-3.13,8.83,8.83,0,0,0-5.24,1.66,10,10,0,0,0-3.53,4.44,9.71,9.71,0,0,0-3.27-3.83,8.21,8.21,0,0,0-4.79-1.41,9.1,9.1,0,0,0-7.15,2.92Zm28.66,2.62a8,8,0,0,1,0,10,6.35,6.35,0,0,1-4.78,1.81,6.69,6.69,0,0,1-4.94-1.87,6.51,6.51,0,0,1-1.86-4.93,6.91,6.91,0,0,1,1.91-5,6.6,6.6,0,0,1,4.89-1.91,6.35,6.35,0,0,1,4.78,1.86Zm-25.89.71a6.72,6.72,0,0,1,8.92,0,5.7,5.7,0,0,1,1.66,4.33,5.92,5.92,0,0,1-1.66,4.38,7,7,0,0,1-9-.05,5.8,5.8,0,0,1-1.66-4.33,5.66,5.66,0,0,1,1.71-4.28Z"></path><path class="cls-1" d="M249.59,658l9-103.52a10.68,10.68,0,0,1,10.67-9.72h76a11.05,11.05,0,0,1,11,10.17L364.15,658"></path><rect class="cls-1" x="304.06" y="279.83" width="4.31" height="60.84"></rect><rect class="cls-4" x="304.06" y="279.82" width="4.31" height="60.84"></rect><rect class="cls-1" x="282.41" y="465.36" width="48.95" height="115.35"></rect><path class="cls-1" d="M330.36,465.36s76.65,11.91,82.1,101.31c0,0,8.43,52.44-43.9,91.64H306.79M282.41,465.36s-76.65,11.91-82.1,101.31c0,0-8.44,52.44,43.9,91.64H306m-8-210.1s2.32,14.49-15.54,17.15h48.95c-18-3.49-15.72-17.15-15.72-17.15M298,340.66h17.69V448.21H298ZM272.48,247.1H340l-6.61,38.63H281.09Z"></path><path class="cls-1" d="M330.36,465.36s76.65,11.91,82.1,101.31c0,0,8.43,52.44-43.9,91.64H306.79"></path><path class="cls-4" d="M330.36,465.36s76.65,11.91,82.1,101.31c0,0,8.43,52.44-43.9,91.64H306.79"></path><path class="cls-1" d="M282.41,465.36s-76.65,11.91-82.1,101.31c0,0-8.44,52.44,43.9,91.64H306"></path><path class="cls-4" d="M282.41,465.36s-76.65,11.91-82.1,101.31c0,0-8.44,52.44,43.9,91.64H306"></path><path class="cls-1" d="M298,448.21s2.32,14.49-15.54,17.15h48.95c-18-3.49-15.72-17.15-15.72-17.15"></path><path class="cls-4" d="M298,448.21s2.32,14.49-15.54,17.15h48.95c-18-3.49-15.72-17.15-15.72-17.15"></path><rect class="cls-1" x="297.95" y="340.66" width="17.69" height="107.55"></rect><rect class="cls-4" x="297.95" y="340.66" width="17.69" height="107.55"></rect><polygon class="cls-1" points="272.48 247.1 339.95 247.1 333.34 285.73 281.09 285.73 272.48 247.1"></polygon><polygon class="cls-4" points="272.48 247.1 339.95 247.1 333.34 285.73 281.09 285.73 272.48 247.1 272.48 247.1"></polygon><path class="cls-5" d="M362.18,632.25l2,25.77m-37.9-113.24h19a11.05,11.05,0,0,1,11,10.17l2,25.76m-101.9-.32,2.25-25.89a10.68,10.68,0,0,1,10.67-9.72h19M249.59,658l2.25-25.88"></path></svg> 