<?xml version="1.0" encoding="UTF-8"?> <svg xmlns="http://www.w3.org/2000/svg" id="Livello_1" data-name="Livello 1" viewBox="0 0 767.29 1000"><defs><style>.cls-1{fill:#fff;}.cls-2,.cls-4,.cls-5,.cls-6{fill:none;stroke-width:0.25px;}.cls-2{stroke:#000;}.cls-3{fill:#231f20;}.cls-4,.cls-5,.cls-6{stroke:#231f20;stroke-miterlimit:10;}.cls-5{stroke-dasharray:2.03 2.03;}.cls-6{stroke-dasharray:2.01 2.01;}</style></defs><title>Glo terra</title><rect class="cls-1" width="767.29" height="1000"></rect><path class="cls-2" d="M221.82,948h175.5M477.91,98.76V907.92"></path><path d="M509.44,519.75v.43l3,8.1H515l-2.09-5.69h18.82v-2.84Zm1.44-20a7.6,7.6,0,0,0,0,9.48,5.75,5.75,0,0,0,4.43,1.81,5.11,5.11,0,0,0,3-.88,6,6,0,0,0,2-2.31,6,6,0,0,0,2.18,2.72,5.68,5.68,0,0,0,3.26,1,5.89,5.89,0,0,0,4.59-1.91,8.54,8.54,0,0,0,0-10.28,5.81,5.81,0,0,0-4.59-1.94,5.45,5.45,0,0,0-3.26,1,6.3,6.3,0,0,0-2.18,2.75,6,6,0,0,0-2-2.37,5,5,0,0,0-3-.88,5.62,5.62,0,0,0-4.43,1.81Zm17.78,1.63a4.95,4.95,0,0,1,0,6.22,3.94,3.94,0,0,1-3,1.13,4.15,4.15,0,0,1-3.06-1.16,4.05,4.05,0,0,1-1.16-3.06,4.31,4.31,0,0,1,1.19-3.1,4.1,4.1,0,0,1,3-1.19,4,4,0,0,1,3,1.16Zm-16.07.44a4.16,4.16,0,0,1,5.54,0,3.53,3.53,0,0,1,1,2.68,3.65,3.65,0,0,1-1,2.72,4.33,4.33,0,0,1-5.57,0,3.63,3.63,0,0,1-1-2.69,3.54,3.54,0,0,1,1.06-2.65Zm6-21.93c-3.22,0-5.57.63-7.1,1.75a6.13,6.13,0,0,0-2.31,5.29,6.06,6.06,0,0,0,2.37,5.31c1.6,1.13,4,1.69,7.29,1.69h3.78c3.13,0,5.47-.63,7.07-1.78a7.07,7.07,0,0,0-.07-10.57c-1.62-1.12-4.06-1.69-7.37-1.69Zm4.41,2.82a10.25,10.25,0,0,1,5.09,1.06,3.78,3.78,0,0,1-.09,6.28,10.58,10.58,0,0,1-5.32,1.07h-4.53a10.4,10.4,0,0,1-5-1,3.4,3.4,0,0,1-1.63-3.16,3.44,3.44,0,0,1,1.66-3.19,10,10,0,0,1,5.22-1Z"></path><path d="M287.65,996.91l-1.53,3.09H288l1.12-2.28a8,8,0,0,0,2.91.53,7.44,7.44,0,0,0,3.91-1,7.3,7.3,0,0,0,2.65-3,9.78,9.78,0,0,0,.94-4.35c0-3.25-1-5.69-3-7.25l1.56-3.13h-1.9l-1.1,2.29a7.43,7.43,0,0,0-3.12-.66,7,7,0,0,0-6.57,4.06,9.82,9.82,0,0,0-.93,4.35c0,3.41,1.06,5.84,3.12,7.38Zm1-11.82a4.06,4.06,0,0,1,3.38-1.66,4.21,4.21,0,0,1,2,.5l-5.22,10.6a6.84,6.84,0,0,1-1.47-4.66,7.66,7.66,0,0,1,1.28-4.78Zm8.07,4.69a7.36,7.36,0,0,1-1.25,4.5,4.18,4.18,0,0,1-3.41,1.66,4.47,4.47,0,0,1-1.85-.38l5.19-10.5a7.05,7.05,0,0,1,1.32,4.47Zm10.07-2h2.13a5.25,5.25,0,0,1,3.44,1.06,3.68,3.68,0,0,1,1.18,3,4.1,4.1,0,0,1-1.06,3.06,5.05,5.05,0,0,1-6.22,0,3.58,3.58,0,0,1-1.12-2.78h-2.85a5.6,5.6,0,0,0,2,4.47,8.36,8.36,0,0,0,10.16-.06,6.08,6.08,0,0,0,2-4.75,5.41,5.41,0,0,0-1-3.28,5.59,5.59,0,0,0-2.85-1.91,5.8,5.8,0,0,0,2.57-2,5,5,0,0,0,.94-2.82,6,6,0,0,0-1.79-4.65,8,8,0,0,0-9.84.09,5.64,5.64,0,0,0-1.94,4.38h2.84a3.62,3.62,0,0,1,1.07-2.76,4.07,4.07,0,0,1,2.93-1.06c2.6,0,3.91,1.31,3.91,3.91a3.57,3.57,0,0,1-1.15,2.78,4.75,4.75,0,0,1-3.16,1.06h-2.13Zm25.14-10.72a7.58,7.58,0,0,0-9.47,0,5.75,5.75,0,0,0-1.81,4.43,5.11,5.11,0,0,0,.88,3,6,6,0,0,0,2.31,2,5.83,5.83,0,0,0-2.72,2.18,5.67,5.67,0,0,0-1,3.25,5.86,5.86,0,0,0,1.91,4.6,8.54,8.54,0,0,0,10.28,0,5.83,5.83,0,0,0,1.94-4.6,5.44,5.44,0,0,0-1-3.25,6.23,6.23,0,0,0-2.75-2.18,6,6,0,0,0,2.37-2,5,5,0,0,0,.88-3,5.63,5.63,0,0,0-1.82-4.43Zm-1.62,17.78a4.95,4.95,0,0,1-6.22,0,3.94,3.94,0,0,1-1.13-3,4.15,4.15,0,0,1,1.16-3.06,4.05,4.05,0,0,1,3.06-1.16,4.31,4.31,0,0,1,3.1,1.19,4.1,4.1,0,0,1,1.19,3,4,4,0,0,1-1.16,3Zm-.44-16.07a4.19,4.19,0,0,1,0,5.54,3.53,3.53,0,0,1-2.69,1,3.68,3.68,0,0,1-2.72-1,4.31,4.31,0,0,1,0-5.57,3.61,3.61,0,0,1,2.68-1,3.56,3.56,0,0,1,2.66,1.06Z"></path><path class="cls-3" d="M247.17,11.9a18,18,0,0,0-.7-5.4,9.65,9.65,0,0,0-1.92-3.68,7.15,7.15,0,0,0-3-2.12,9.94,9.94,0,0,0-3.83-.7,10.17,10.17,0,0,0-3.84.7A7.07,7.07,0,0,0,231,2.82a9.65,9.65,0,0,0-1.92,3.68,18,18,0,0,0-.7,5.4v4.81a18,18,0,0,0,.7,5.36A10.44,10.44,0,0,0,231,25.79a7.16,7.16,0,0,0,3,2.11,10.17,10.17,0,0,0,3.84.71,9.94,9.94,0,0,0,3.83-.71,7.13,7.13,0,0,0,3-2.11,10.44,10.44,0,0,0,1.92-3.72,19.53,19.53,0,0,0,.66-5.36Zm-5.52,5.55a14.63,14.63,0,0,1-.27,3.13,6,6,0,0,1-.75,2.08,2.72,2.72,0,0,1-1.21,1.13,3.94,3.94,0,0,1-3.29,0,2.72,2.72,0,0,1-1.21-1.13,6,6,0,0,1-.78-2.08,17.17,17.17,0,0,1-.24-3.13V11.08a16.89,16.89,0,0,1,.24-3.1,6,6,0,0,1,.74-2,3.37,3.37,0,0,1,1.22-1.14,3.87,3.87,0,0,1,1.64-.31,3.67,3.67,0,0,1,1.64.31A3.16,3.16,0,0,1,240.63,6a5.75,5.75,0,0,1,.75,2,14.39,14.39,0,0,1,.27,3.1Zm26.71-13A6,6,0,0,0,266.52,2,7.94,7.94,0,0,0,263.74.51,12.46,12.46,0,0,0,260.22,0a12.91,12.91,0,0,0-3.56.51A8.31,8.31,0,0,0,253.88,2,6.84,6.84,0,0,0,252,4.46a8,8,0,0,0-.63,3.33,6.59,6.59,0,0,0,1,3.6,7.24,7.24,0,0,0,2.78,2.5A7.89,7.89,0,0,0,252,16.55a6.76,6.76,0,0,0-1.21,4,7.48,7.48,0,0,0,.74,3.49,7.2,7.2,0,0,0,2,2.5,9,9,0,0,0,3,1.53,14,14,0,0,0,7.48,0,9.19,9.19,0,0,0,3-1.53,7.2,7.2,0,0,0,2-2.5,8,8,0,0,0,.7-3.49,7.11,7.11,0,0,0-1.17-4,8.29,8.29,0,0,0-3.21-2.66,7.24,7.24,0,0,0,2.78-2.5,6.61,6.61,0,0,0,1-3.6,8,8,0,0,0-.66-3.33ZM263,23.09a3.72,3.72,0,0,1-2.82,1.06,4.13,4.13,0,0,1-1.61-.28,2.76,2.76,0,0,1-1.21-.78,3,3,0,0,1-.78-1.25,4.2,4.2,0,0,1-.28-1.65,4.53,4.53,0,0,1,.28-1.68,3.26,3.26,0,0,1,.78-1.25,3.16,3.16,0,0,1,1.21-.78,3.92,3.92,0,0,1,1.57-.28,4.07,4.07,0,0,1,1.6.28,3.28,3.28,0,0,1,1.22.78,3.83,3.83,0,0,1,.78,1.25,4.53,4.53,0,0,1,.27,1.68,3.93,3.93,0,0,1-1,2.9Zm-.39-12.37a3.4,3.4,0,0,1-4.86,0,3.9,3.9,0,0,1-.86-2.66,3.87,3.87,0,0,1,.86-2.66,3.12,3.12,0,0,1,2.43-.94,3.07,3.07,0,0,1,2.43,1,4,4,0,0,1,.86,2.62,4.12,4.12,0,0,1-.86,2.66ZM286.73.35h-.59L274.64,4.5V9l6.57-2V28.22h5.52Zm22.44,0h-.59L297.08,4.5V9l6.57-2V28.22h5.52Zm20,13.74H318.42v4.42h10.77ZM346.78.35h-.59L334.69,4.5V9l6.57-2V28.22h5.52ZM374.54,11.9a18,18,0,0,0-.7-5.4,9.65,9.65,0,0,0-1.92-3.68A7.19,7.19,0,0,0,369,.7a10.86,10.86,0,0,0-7.67,0,7,7,0,0,0-2.94,2.12,9.65,9.65,0,0,0-1.92,3.68,18,18,0,0,0-.7,5.4v4.81a18,18,0,0,0,.7,5.36,10.44,10.44,0,0,0,1.92,3.72,7.13,7.13,0,0,0,3,2.11,10.71,10.71,0,0,0,7.67,0,7.16,7.16,0,0,0,3-2.11,10.44,10.44,0,0,0,1.92-3.72,19.53,19.53,0,0,0,.66-5.36ZM369,17.45a14,14,0,0,1-.28,3.13,6,6,0,0,1-.74,2.08,2.79,2.79,0,0,1-1.22,1.13,3.51,3.51,0,0,1-1.64.36,3.57,3.57,0,0,1-1.64-.36,2.79,2.79,0,0,1-1.22-1.13,6.16,6.16,0,0,1-.78-2.08,18.23,18.23,0,0,1-.23-3.13V11.08a17.93,17.93,0,0,1,.23-3.1,5.75,5.75,0,0,1,.75-2,3.35,3.35,0,0,1,1.21-1.14,3.93,3.93,0,0,1,1.64-.31,3.71,3.71,0,0,1,1.65.31A3.23,3.23,0,0,1,368,6a5.76,5.76,0,0,1,.74,2,13.72,13.72,0,0,1,.28,3.1Z"></path><path class="cls-1" d="M263,99.19l6,84.47a9.86,9.86,0,0,0,9.83,9.16H340a10.81,10.81,0,0,0,10.79-10l5.91-83.59"></path><path class="cls-1" d="M292.46,252.9h34.23M311.52,100.06H260s-40.6,27.67-36.64,72.5c0,0-3.22,60.5,69.06,80.34,0,0,9.9,2.7,10.4,12.74h13.43c.49-10,10.39-12.74,10.39-12.74,72.28-19.84,69.06-80.34,69.06-80.34,4-44.83-36.63-72.5-36.63-72.5Z"></path><path class="cls-1" d="M292.46,252.9h34.23M311.52,100.06H260s-40.6,27.67-36.64,72.5c0,0-3.22,60.5,69.06,80.34,0,0,9.9,2.7,10.4,12.74h13.43c.49-10,10.39-12.74,10.39-12.74,72.28-19.84,69.06-80.34,69.06-80.34,4-44.83-36.63-72.5-36.63-72.5Z"></path><path class="cls-4" d="M292.46,252.9h34.23M311.52,100.06H260s-40.6,27.67-36.64,72.5c0,0-3.22,60.5,69.06,80.34,0,0,9.9,2.7,10.4,12.74h13.43c.49-10,10.39-12.74,10.39-12.74,72.28-19.84,69.06-80.34,69.06-80.34,4-44.83-36.63-72.5-36.63-72.5Z"></path><line class="cls-5" x1="265.23" y1="130.87" x2="267.47" y2="162.55"></line><line class="cls-6" x1="353.02" y1="151.43" x2="355.23" y2="120.09"></line><path class="cls-1" d="M356,109.64l.74-10.45m-32,93.63H340a10.81,10.81,0,0,0,10.79-10l.74-10.45m-83.32.77.75,10.56a9.86,9.86,0,0,0,9.83,9.16h15.3M263,99.19l.75,10.56"></path><path class="cls-4" d="M356,109.64l.74-10.45m-32,93.63H340a10.81,10.81,0,0,0,10.79-10l.74-10.45m-83.32.77.75,10.56a9.86,9.86,0,0,0,9.83,9.16h15.3M263,99.19l.75,10.56"></path><polyline class="cls-1" points="302.85 354.12 302.85 900.98 316.27 900.98 316.27 354.12"></polyline><path class="cls-4" d="M302.85,354.12V901h13.42V354.12m-16.08-1.23H319"></path><polyline class="cls-1" points="316.27 351.4 316.27 266.57 302.85 266.57 302.85 351.4"></polyline><polyline class="cls-4" points="316.27 351.4 316.27 266.57 302.85 266.57 302.85 351.4"></polyline><path class="cls-1" d="M394.25,901s2.73,2.22,0,4.45H224.46a3,3,0,0,1,0-4.45Z"></path><path class="cls-4" d="M394.25,901s2.73,2.22,0,4.45H224.46a3,3,0,0,1,0-4.45Z"></path></svg> 