<?xml version="1.0" encoding="UTF-8"?> <svg xmlns="http://www.w3.org/2000/svg" id="Livello_1" data-name="Livello 1" viewBox="0 0 767.29 1000"><defs><style>.cls-1{fill:#fff;}.cls-2,.cls-4,.cls-5{fill:none;stroke-width:0.25px;}.cls-2{stroke:#000;}.cls-3{fill:#231f20;}.cls-4,.cls-5{stroke:#231f20;}.cls-4{stroke-miterlimit:10;}</style></defs><title>Glo tavolo medium</title><rect class="cls-1" width="767.29" height="1000"></rect><line class="cls-2" x1="125.68" y1="895.68" x2="396.28" y2="895.68"></line><path d="M217.54,993.79l-3.07,6.21h3.82l2.26-4.58a15.84,15.84,0,0,0,5.83,1.07,14.93,14.93,0,0,0,7.84-2.07,14.59,14.59,0,0,0,5.33-6,19.68,19.68,0,0,0,1.88-8.72c0-6.52-2-11.42-6-14.55l3.13-6.27h-3.82l-2.2,4.58a14.93,14.93,0,0,0-6.27-1.32,14.44,14.44,0,0,0-7.84,2.13,14.23,14.23,0,0,0-5.33,6,19.5,19.5,0,0,0-1.88,8.72c0,6.84,2.13,11.73,6.27,14.8Zm2-23.71a8.15,8.15,0,0,1,6.77-3.32,8.38,8.38,0,0,1,4.08,1L219.92,989c-2-2.32-2.95-5.39-2.95-9.34,0-4.14.82-7.34,2.58-9.6Zm16.18,9.41c0,3.76-.82,6.77-2.51,9a8.36,8.36,0,0,1-6.84,3.33,8.75,8.75,0,0,1-3.7-.76L233.09,970a14.24,14.24,0,0,1,2.64,9ZM277,991.22H254.56l11.92-13c5.64-6,8.4-11.29,8.4-15.68a11.23,11.23,0,0,0-3.57-8.66c-2.45-2.19-5.71-3.26-9.85-3.26-4.45,0-8,1.26-10.6,3.83a12.89,12.89,0,0,0-4,9.91h5.7a9.28,9.28,0,0,1,2.33-6.71,8.89,8.89,0,0,1,6.58-2.39,7.51,7.51,0,0,1,5.65,2.26,8,8,0,0,1,2.06,5.71,10.72,10.72,0,0,1-1.25,5,34.77,34.77,0,0,1-4.77,6.34l-15.42,17.18v4.08H277Zm13.19-16.56,1.51-1.19a9.32,9.32,0,0,1,5.83-1.63,8.2,8.2,0,0,1,6.46,2.7,10.36,10.36,0,0,1,2.45,7.21,11.24,11.24,0,0,1-2.26,7.4,7.61,7.61,0,0,1-6.21,2.7,8.38,8.38,0,0,1-5.83-2,8.88,8.88,0,0,1-2.7-5.77H284a13.15,13.15,0,0,0,4.26,9.1,14.11,14.11,0,0,0,9.66,3.26c4.45,0,7.9-1.32,10.41-4s3.7-6.28,3.7-10.85-1.19-8.22-3.57-10.92a12.31,12.31,0,0,0-9.66-4,14.18,14.18,0,0,0-7.47,1.94l1.32-12.16h18.06v-5.27H287.88l-2.25,22.26Z"></path><path class="cls-3" d="M152.14,23.87A36.42,36.42,0,0,0,150.73,13a19.48,19.48,0,0,0-3.85-7.38,14.49,14.49,0,0,0-6-4.24A20.1,20.1,0,0,0,133.22,0a20.41,20.41,0,0,0-7.7,1.41,14.31,14.31,0,0,0-5.89,4.24A19.33,19.33,0,0,0,115.79,13a36.08,36.08,0,0,0-1.42,10.84v9.66a35.77,35.77,0,0,0,1.42,10.75,20.74,20.74,0,0,0,3.84,7.46,14.31,14.31,0,0,0,6,4.24,20.41,20.41,0,0,0,7.7,1.42A20.11,20.11,0,0,0,141,56a14.31,14.31,0,0,0,6-4.24,20.74,20.74,0,0,0,3.84-7.46,38.74,38.74,0,0,0,1.34-10.75ZM141.07,35a28.87,28.87,0,0,1-.55,6.28A12,12,0,0,1,139,45.46a5.59,5.59,0,0,1-2.44,2.28,8.11,8.11,0,0,1-6.59,0,5.65,5.65,0,0,1-2.44-2.28A12.39,12.39,0,0,1,126,41.3a35.77,35.77,0,0,1-.47-6.28V22.22A34.79,34.79,0,0,1,126,16a11.88,11.88,0,0,1,1.5-4.09,6.61,6.61,0,0,1,2.43-2.27,7.74,7.74,0,0,1,3.3-.63,7.28,7.28,0,0,1,3.29.63A6.27,6.27,0,0,1,139,11.93,11.69,11.69,0,0,1,140.52,16a28.1,28.1,0,0,1,.55,6.2ZM194.65,9A12,12,0,0,0,191,4.08,16.14,16.14,0,0,0,185.39,1a24.72,24.72,0,0,0-7.07-1,25.72,25.72,0,0,0-7.15,1,16.8,16.8,0,0,0-5.57,3.06A13.62,13.62,0,0,0,161.91,9a16.14,16.14,0,0,0-1.26,6.67,13.1,13.1,0,0,0,2,7.23,14.35,14.35,0,0,0,5.57,5,15.8,15.8,0,0,0-6.36,5.34,13.51,13.51,0,0,0-2.43,8.09,15.07,15.07,0,0,0,1.49,7,14.57,14.57,0,0,0,3.92,5,18.06,18.06,0,0,0,6.05,3.06,27.82,27.82,0,0,0,15,0,18.38,18.38,0,0,0,6-3.06,14.48,14.48,0,0,0,3.93-5,16.15,16.15,0,0,0,1.41-7,14.21,14.21,0,0,0-2.35-8.09,16.6,16.6,0,0,0-6.44-5.34,14.35,14.35,0,0,0,5.57-5A13.15,13.15,0,0,0,196,15.62,16.13,16.13,0,0,0,194.65,9ZM184,46.32a7.37,7.37,0,0,1-5.65,2.12,8.44,8.44,0,0,1-3.22-.54,5.68,5.68,0,0,1-2.43-1.58,5.84,5.84,0,0,1-1.57-2.51,8.4,8.4,0,0,1-.55-3.3,9.07,9.07,0,0,1,.55-3.37,6.73,6.73,0,0,1,4-4.08,7.85,7.85,0,0,1,3.14-.55,8.25,8.25,0,0,1,3.22.55,6.39,6.39,0,0,1,2.43,1.57,7.4,7.4,0,0,1,1.57,2.51,9.07,9.07,0,0,1,.55,3.37,7.81,7.81,0,0,1-2,5.81Zm-.78-24.81a6.83,6.83,0,0,1-9.74,0,7.79,7.79,0,0,1-1.73-5.34,7.64,7.64,0,0,1,1.73-5.33A6.27,6.27,0,0,1,178.32,9a6.19,6.19,0,0,1,4.87,2,8,8,0,0,1,1.72,5.26,8.2,8.2,0,0,1-1.72,5.34ZM231.51.71h-1.18L207.25,9v9l13.19-4.08V56.61h11.07Zm45,0h-1.18L252.27,9v9l13.19-4.08V56.61h11.07Zm40.16,27.56H295.1v8.87h21.59Zm46-4.4A36.08,36.08,0,0,0,361.25,13a19.33,19.33,0,0,0-3.84-7.38,14.49,14.49,0,0,0-6-4.24A20.1,20.1,0,0,0,343.75,0a20.41,20.41,0,0,0-7.7,1.41,14.25,14.25,0,0,0-5.89,4.24A19.48,19.48,0,0,0,326.31,13a36.42,36.42,0,0,0-1.41,10.84v9.66a36.11,36.11,0,0,0,1.41,10.75,20.91,20.91,0,0,0,3.85,7.46,14.31,14.31,0,0,0,6,4.24,20.36,20.36,0,0,0,7.69,1.42,20.12,20.12,0,0,0,7.7-1.42,14.31,14.31,0,0,0,6-4.24,20.9,20.9,0,0,0,3.84-7.46,38.74,38.74,0,0,0,1.34-10.75ZM351.6,35a28.87,28.87,0,0,1-.55,6.28,12.46,12.46,0,0,1-1.49,4.16,5.65,5.65,0,0,1-2.44,2.28,8.11,8.11,0,0,1-6.59,0,5.59,5.59,0,0,1-2.44-2.28,12.18,12.18,0,0,1-1.57-4.16,35.77,35.77,0,0,1-.47-6.28V22.22a34.79,34.79,0,0,1,.47-6.2A12.1,12.1,0,0,1,338,11.93a6.71,6.71,0,0,1,2.44-2.27,7.74,7.74,0,0,1,3.3-.63,7.28,7.28,0,0,1,3.29.63,6.33,6.33,0,0,1,2.52,2.27A12.1,12.1,0,0,1,351.05,16a28.1,28.1,0,0,1,.55,6.2ZM397,.71h-1.17L372.75,9v9l13.19-4.08V56.61H397Z"></path><path class="cls-3" d="M127,105.37V161.2h4.71V136.78l-.39-24.66L152,161.2h3.61L176.43,112,176,136.78V161.2h4.71V105.37h-6.28L153.82,154.6l-20.65-49.23Zm87.87,56a16,16,0,0,0,7.22-3.84,21,21,0,0,0,2.44-2.91l-2.91-2.12a13.57,13.57,0,0,1-5.1,4.24,14.49,14.49,0,0,1-6.52,1.34,13.17,13.17,0,0,1-5.81-1.26,13.8,13.8,0,0,1-4.47-3.53,15.89,15.89,0,0,1-2.91-5.19,19.3,19.3,0,0,1-1-6.43v-.87h29.6V138a26.17,26.17,0,0,0-1.1-7.62,17,17,0,0,0-3.14-6,15.17,15.17,0,0,0-5.18-3.92,16.37,16.37,0,0,0-7-1.41,15.43,15.43,0,0,0-6.75,1.49,18.25,18.25,0,0,0-5.65,4.24,19.52,19.52,0,0,0-3.93,6.59,25.44,25.44,0,0,0-1.41,8.72v1.65a22.89,22.89,0,0,0,1.41,8.16,18.28,18.28,0,0,0,3.85,6.44,16.34,16.34,0,0,0,5.89,4.16,17.85,17.85,0,0,0,7.46,1.57,19.19,19.19,0,0,0,5-.63ZM214.05,124a12.84,12.84,0,0,1,3.7,3,14.08,14.08,0,0,1,2.19,4.32,18.36,18.36,0,0,1,.87,5.11v.47H195.92a20.75,20.75,0,0,1,1.49-5.73,14.52,14.52,0,0,1,2.75-4.4,13.83,13.83,0,0,1,3.92-2.91,12.5,12.5,0,0,1,4.87-.94,11.57,11.57,0,0,1,5.1,1.1Zm18.42,16.88a29.2,29.2,0,0,0,1.1,8.56,20.69,20.69,0,0,0,3.14,6.67,15.45,15.45,0,0,0,5,4.32,14.43,14.43,0,0,0,6.68,1.57,16.6,16.6,0,0,0,7.69-1.65,15.61,15.61,0,0,0,5.26-4.63l.16,5.5h4.32V102.31h-4.56v23.24a15.59,15.59,0,0,0-5.26-4.87,15.25,15.25,0,0,0-7.54-1.72,14.15,14.15,0,0,0-6.67,1.49,14.7,14.7,0,0,0-5.1,4.24,20.69,20.69,0,0,0-3.14,6.67,30,30,0,0,0-1.1,8.72Zm4.63-.78a30.22,30.22,0,0,1,.71-6.76,17,17,0,0,1,2.19-5.41,10.66,10.66,0,0,1,3.85-3.62,10.23,10.23,0,0,1,5.5-1.33,14.52,14.52,0,0,1,4.39.63,12.55,12.55,0,0,1,3.38,1.8,10.72,10.72,0,0,1,2.43,2.59,17,17,0,0,1,1.73,3.07v19.47a17.49,17.49,0,0,1-1.88,3,10.39,10.39,0,0,1-2.51,2.36,12.31,12.31,0,0,1-3.38,1.57,15.08,15.08,0,0,1-4.24.55A10.75,10.75,0,0,1,240,153a17,17,0,0,1-2.19-5.42,29.63,29.63,0,0,1-.71-6.75Zm46-20.34h-4.64V161.2h4.64Zm-4.64-9.81a3.35,3.35,0,0,0,2.36.86,3.15,3.15,0,0,0,2.28-.86,2.9,2.9,0,0,0,.86-2.2,2.78,2.78,0,0,0-.86-2.2,2.91,2.91,0,0,0-2.28-.94,3,3,0,0,0-3.14,3.14,3.21,3.21,0,0,0,.78,2.2Zm43.8,51.27h4.48V119.74h-4.64v30a15.65,15.65,0,0,1-1.57,3.3,8.72,8.72,0,0,1-2.51,2.59,10.58,10.58,0,0,1-3.69,1.73,17.56,17.56,0,0,1-4.87.63,11.79,11.79,0,0,1-3.69-.55,7.54,7.54,0,0,1-3.06-2,9.69,9.69,0,0,1-2-3.54,18.64,18.64,0,0,1-.79-5.57V119.74H295.3v26.54a21.51,21.51,0,0,0,1,7.22,12.72,12.72,0,0,0,2.75,4.87,11.3,11.3,0,0,0,4.32,2.75,19.5,19.5,0,0,0,13.58-.79,13.39,13.39,0,0,0,5.18-4.39Zm16-41.46V161.2h4.64V132.77a21.27,21.27,0,0,1,1.49-3.69,16.26,16.26,0,0,1,2.43-3.14,13.58,13.58,0,0,1,3.53-2.2,11.56,11.56,0,0,1,4.56-.78,14.15,14.15,0,0,1,4.16.55,7.56,7.56,0,0,1,3.14,1.73,7.77,7.77,0,0,1,2.12,3.37,16.57,16.57,0,0,1,.71,5.18V161.2h4.63V133.72a11.1,11.1,0,0,1,.94-3.69,15,15,0,0,1,2.36-3.46,13.31,13.31,0,0,1,3.77-2.59,11.21,11.21,0,0,1,5-1,16.34,16.34,0,0,1,4.08.47,6.77,6.77,0,0,1,3.22,1.81,8.25,8.25,0,0,1,2.12,3.45,17.45,17.45,0,0,1,.71,5.42V161.2h4.55v-27a22.37,22.37,0,0,0-.86-6.91,11.32,11.32,0,0,0-2.67-4.71,9.94,9.94,0,0,0-4.32-2.75,18.31,18.31,0,0,0-5.73-.86,17.45,17.45,0,0,0-4.63.62,16.45,16.45,0,0,0-3.93,1.65,14.83,14.83,0,0,0-3.22,2.59,18.76,18.76,0,0,0-2.35,3.14,10.93,10.93,0,0,0-4.64-6.12,15.41,15.41,0,0,0-7.85-1.88,14.7,14.7,0,0,0-4.24.54,14.21,14.21,0,0,0-3.69,1.5,11.29,11.29,0,0,0-3.06,2.35,15.67,15.67,0,0,0-2.43,3.14l-.16-6.75Z"></path><line class="cls-2" x1="532.13" y1="358.71" x2="532.13" y2="815.24"></line><path d="M595.56,616.59v6l30.91,19.95h3.33V622.24h10.35v-5.65H629.8v-6.21h-4.64v6.21Zm9,6.34-1.19-.69h21.83v13.92Zm31-46.94v22.4l-13-11.92c-6-5.65-11.29-8.41-15.68-8.41a11.22,11.22,0,0,0-8.65,3.58c-2.2,2.45-3.26,5.71-3.26,9.85,0,4.45,1.25,8,3.82,10.6a12.94,12.94,0,0,0,9.91,4v-5.71a9.29,9.29,0,0,1-6.71-2.32,8.9,8.9,0,0,1-2.38-6.58,7.46,7.46,0,0,1,2.26-5.65,8,8,0,0,1,5.7-2.07,10.77,10.77,0,0,1,5,1.26,34.83,34.83,0,0,1,6.34,4.76l17.18,15.43h4.08V576Z"></path><path class="cls-1" d="M259.81,361.32h83.33s59.18,35.4,56.35,119.31c0,0-2.82,103.77-113.92,123.65,0,0-11.71,8.8-12.48,19.88-.82,11.53-.82,143.14-.82,143.14s-3.6,12.33,23,16.7,60.39,11.92,60.39,11.92,13.68,5.57,14.89,16.71H259.81m2.34-451.31H178.82s-59.18,35.4-56.37,119.31c0,0,2.83,103.77,113.93,123.65,0,0,10.63,8.93,12.48,19.88,1.69,9.94.8,143.14.8,143.14s3.62,12.33-22.94,16.7-60.38,11.92-60.38,11.92-13.69,5.57-14.89,16.71h110.7"></path><path class="cls-4" d="M259.81,361.32h83.33s59.18,35.4,56.35,119.31c0,0-2.82,103.78-113.92,123.66,0,0-11.71,8.8-12.48,19.87-.82,11.53-.82,143.15-.82,143.15s-3.6,12.32,23,16.69,60.39,11.93,60.39,11.93,13.68,5.56,14.89,16.7H259.81m2.34-451.31H178.82s-59.18,35.4-56.37,119.31c0,0,2.83,103.78,113.93,123.66,0,0,10.63,8.93,12.48,19.87,1.69,10,.8,143.15.8,143.15s3.62,12.32-22.94,16.69-60.38,11.93-60.38,11.93-13.69,5.56-14.89,16.7h110.7"></path><path class="cls-1" d="M184.44,359.81l9.68,134.35a16.52,16.52,0,0,0,16.53,15.28H313a15.27,15.27,0,0,0,15.28-14.09L338.4,359.81"></path><path class="cls-4" d="M184.44,359.81l2.42,33.58m4.84,67.18,2.42,33.59a16.52,16.52,0,0,0,16.53,15.28h25.59m51.18,0H313a15.27,15.27,0,0,0,15.28-14.09l2.53-33.88m5.06-67.78,2.52-33.88"></path><line class="cls-5" x1="183.14" y1="361.31" x2="339.71" y2="361.31"></line></svg> 