<?xml version="1.0" encoding="UTF-8"?> <svg xmlns="http://www.w3.org/2000/svg" id="Livello_1" data-name="Livello 1" viewBox="0 0 767.29 1000"><defs><style>.cls-1{fill:#fff;}.cls-2{fill:#231f20;}.cls-3,.cls-4,.cls-5{fill:none;stroke-width:0.25px;}.cls-3{stroke:#000;}.cls-4,.cls-5{stroke:#231f20;}.cls-4{stroke-miterlimit:10;}.cls-5{stroke-linecap:square;stroke-linejoin:round;}</style></defs><title>Glo sospensione mini</title><rect class="cls-1" width="767.29" height="1000"></rect><path class="cls-2" d="M229.82,19.17a29,29,0,0,0-1.14-8.7,15.36,15.36,0,0,0-3.09-5.93,11.45,11.45,0,0,0-4.79-3.4A16,16,0,0,0,214.62,0a16.27,16.27,0,0,0-6.18,1.14,11.27,11.27,0,0,0-4.73,3.4,15.36,15.36,0,0,0-3.09,5.93,29,29,0,0,0-1.14,8.7v7.76a28.9,28.9,0,0,0,1.14,8.64,16.76,16.76,0,0,0,3.09,6A11.57,11.57,0,0,0,208.5,45a16.46,16.46,0,0,0,6.18,1.13A16.24,16.24,0,0,0,220.86,45a11.66,11.66,0,0,0,4.8-3.41,16.92,16.92,0,0,0,3.09-6,31.55,31.55,0,0,0,1.07-8.64Zm-8.89,9a23.29,23.29,0,0,1-.44,5,10.08,10.08,0,0,1-1.2,3.35,4.48,4.48,0,0,1-2,1.82,6.45,6.45,0,0,1-5.3,0,4.46,4.46,0,0,1-1.95-1.82,9.62,9.62,0,0,1-1.26-3.35,28.45,28.45,0,0,1-.38-5V17.85a27.72,27.72,0,0,1,.38-5A9.24,9.24,0,0,1,210,9.59,5.28,5.28,0,0,1,212,7.76a6.18,6.18,0,0,1,2.65-.51,5.84,5.84,0,0,1,2.65.51,5.1,5.1,0,0,1,2,1.83,9.64,9.64,0,0,1,1.2,3.28,22.7,22.7,0,0,1,.44,5ZM264,7.19a9.65,9.65,0,0,0-3-3.91A12.85,12.85,0,0,0,256.52.82,20,20,0,0,0,250.85,0a20.82,20.82,0,0,0-5.74.82,13.51,13.51,0,0,0-4.48,2.46,10.81,10.81,0,0,0-3,3.91,12.79,12.79,0,0,0-1,5.36,10.53,10.53,0,0,0,1.57,5.8,11.62,11.62,0,0,0,4.48,4,12.65,12.65,0,0,0-5.11,4.29,10.85,10.85,0,0,0-1.95,6.49,12.1,12.1,0,0,0,1.2,5.62,11.66,11.66,0,0,0,3.15,4,14.73,14.73,0,0,0,4.86,2.46,22.51,22.51,0,0,0,12,0,15,15,0,0,0,4.79-2.46,11.69,11.69,0,0,0,3.16-4A12.9,12.9,0,0,0,266,33.17a11.38,11.38,0,0,0-1.89-6.49,13.24,13.24,0,0,0-5.17-4.29,11.54,11.54,0,0,0,4.48-4,10.58,10.58,0,0,0,1.64-5.8A12.94,12.94,0,0,0,264,7.19Zm-8.58,30a6,6,0,0,1-4.54,1.7,6.68,6.68,0,0,1-2.59-.44,4.46,4.46,0,0,1-1.95-1.26,4.75,4.75,0,0,1-1.26-2,6.79,6.79,0,0,1-.45-2.65,7.31,7.31,0,0,1,.45-2.71,5.39,5.39,0,0,1,3.21-3.28,6.54,6.54,0,0,1,2.52-.44,6.87,6.87,0,0,1,2.59.44,5.3,5.3,0,0,1,2,1.26,6.27,6.27,0,0,1,1.26,2,7.52,7.52,0,0,1,.44,2.71,6.33,6.33,0,0,1-1.64,4.67Zm-.63-19.93a5.48,5.48,0,0,1-7.82,0A6.24,6.24,0,0,1,245.55,13a6.16,6.16,0,0,1,1.39-4.29,5,5,0,0,1,3.91-1.51,4.93,4.93,0,0,1,3.91,1.58A6.43,6.43,0,0,1,256.15,13a6.61,6.61,0,0,1-1.39,4.29ZM293.57.57h-.95L274.08,7.25v7.19l10.6-3.28V45.47h8.89Zm36.17,0h-.95L310.25,7.25v7.19l10.59-3.28V45.47h8.9ZM362,22.7H344.65v7.13H362Zm37.5,15.58h-19.3L388.07,30c1.52-1.58,2.91-3,4.1-4.48a30.55,30.55,0,0,0,3.16-4.23,20.25,20.25,0,0,0,1.95-4.16,12.53,12.53,0,0,0,.76-4.35,14.72,14.72,0,0,0-1-5.36,10.56,10.56,0,0,0-2.83-4A12.62,12.62,0,0,0,389.71.88a21.34,21.34,0,0,0-6.3-.88,16.58,16.58,0,0,0-6.5,1.2,14.43,14.43,0,0,0-4.85,3.15A13.94,13.94,0,0,0,368.9,9a16.07,16.07,0,0,0-1.07,5.74h9a8.87,8.87,0,0,1,.44-3,7,7,0,0,1,1.2-2.4,5.68,5.68,0,0,1,2.08-1.57,6.16,6.16,0,0,1,2.77-.57,5.49,5.49,0,0,1,4.29,1.7,6.87,6.87,0,0,1,1.51,4.73,5.89,5.89,0,0,1-.31,2,11.17,11.17,0,0,1-.95,2.27A18,18,0,0,1,386,20.62a36.49,36.49,0,0,1-2.77,3.28L368.71,39.35v6.12h30.78Zm35.6-19.11a29,29,0,0,0-1.14-8.7,15.36,15.36,0,0,0-3.09-5.93,11.45,11.45,0,0,0-4.79-3.4A16,16,0,0,0,419.89,0a16.27,16.27,0,0,0-6.18,1.14A11.27,11.27,0,0,0,409,4.54a15.36,15.36,0,0,0-3.09,5.93,29,29,0,0,0-1.14,8.7v7.76a28.9,28.9,0,0,0,1.14,8.64,16.6,16.6,0,0,0,3.09,6A11.57,11.57,0,0,0,413.77,45,16.46,16.46,0,0,0,420,46.1,16.24,16.24,0,0,0,426.13,45a11.57,11.57,0,0,0,4.79-3.41,16.6,16.6,0,0,0,3.09-6,31.14,31.14,0,0,0,1.08-8.64Zm-8.9,9a22.67,22.67,0,0,1-.44,5,9.66,9.66,0,0,1-1.2,3.35,4.41,4.41,0,0,1-1.95,1.82,6.45,6.45,0,0,1-5.3,0,4.41,4.41,0,0,1-1.95-1.82,9.82,9.82,0,0,1-1.27-3.35,28.55,28.55,0,0,1-.37-5V17.85a27.83,27.83,0,0,1,.37-5,9.64,9.64,0,0,1,1.2-3.28,5.39,5.39,0,0,1,2-1.83,6.18,6.18,0,0,1,2.65-.51,5.84,5.84,0,0,1,2.65.51,5,5,0,0,1,2,1.83,9.24,9.24,0,0,1,1.2,3.28,22.1,22.1,0,0,1,.44,5Z"></path><path class="cls-2" d="M264.23,84.64v44.84H268V109.86l-.32-19.8,16.65,39.42h2.9L304,89.94l-.31,19.92v19.62h3.78V84.64h-5L285.8,124.18,269.21,84.64ZM322,96.18h-3.72v33.3H322Zm-3.72-7.88a2.67,2.67,0,0,0,1.89.69A2.52,2.52,0,0,0,322,88.3a2.36,2.36,0,0,0,.69-1.77,2.28,2.28,0,0,0-.69-1.77,2.34,2.34,0,0,0-1.83-.75,2.37,2.37,0,0,0-2.52,2.52,2.57,2.57,0,0,0,.63,1.77ZM332,96.18v33.3h3.66V106.65a13.79,13.79,0,0,1,1.45-2.9,10.53,10.53,0,0,1,2.08-2.59A10.87,10.87,0,0,1,342,99.4a9.18,9.18,0,0,1,3.59-.64,10.71,10.71,0,0,1,3.28.45,5.33,5.33,0,0,1,2.46,1.45,7.35,7.35,0,0,1,1.58,2.77,14.25,14.25,0,0,1,.57,4.35v21.7h3.65v-21.7a18.49,18.49,0,0,0-.75-5.61,10.44,10.44,0,0,0-2.08-3.78,7.84,7.84,0,0,0-3.35-2.15,12.42,12.42,0,0,0-4.47-.69,11.86,11.86,0,0,0-3.41.44,13.45,13.45,0,0,0-3,1.26,13.13,13.13,0,0,0-2.53,2,13.62,13.62,0,0,0-1.95,2.59l-.13-5.68Zm38.75,0H367v33.3h3.72ZM367,88.3a2.69,2.69,0,0,0,1.89.69,2.52,2.52,0,0,0,1.83-.69,2.34,2.34,0,0,0,.7-1.77,2.25,2.25,0,0,0-.7-1.77,2.34,2.34,0,0,0-1.83-.75,2.37,2.37,0,0,0-2.52,2.52A2.57,2.57,0,0,0,367,88.3Z"></path><path d="M281.91,691.3l-2.47,5h3.08l1.81-3.68a12.59,12.59,0,0,0,4.69.86,12.06,12.06,0,0,0,6.29-1.66A11.75,11.75,0,0,0,299.6,687a16,16,0,0,0,1.51-7c0-5.24-1.62-9.17-4.79-11.69l2.52-5h-3.07L294,666.92a11.94,11.94,0,0,0-5-1.06,11.65,11.65,0,0,0-6.3,1.71,11.43,11.43,0,0,0-4.28,4.84,15.68,15.68,0,0,0-1.51,7c0,5.49,1.71,9.42,5,11.89Zm1.62-19a6.55,6.55,0,0,1,5.44-2.67,6.66,6.66,0,0,1,3.27.81l-8.41,17.07a11,11,0,0,1-2.37-7.5c0-3.33.65-5.9,2.07-7.71Zm13,7.56a11.78,11.78,0,0,1-2,7.25,6.72,6.72,0,0,1-5.49,2.67,7.21,7.21,0,0,1-3-.6l8.37-16.93a11.43,11.43,0,0,1,2.11,7.2ZM321.12,657h-.7l-13.05,4.88V666l9.17-3.37V693h4.58Zm20,19.59h3.42a8.5,8.5,0,0,1,5.54,1.71,5.93,5.93,0,0,1,1.92,4.79,6.62,6.62,0,0,1-1.72,4.94,8.19,8.19,0,0,1-10,0,5.81,5.81,0,0,1-1.81-4.49h-4.59a9,9,0,0,0,3.18,7.21,13.48,13.48,0,0,0,16.37-.1,9.81,9.81,0,0,0,3.17-7.66,8.76,8.76,0,0,0-1.61-5.29,9,9,0,0,0-4.58-3.07,9.32,9.32,0,0,0,4.13-3.28,7.93,7.93,0,0,0,1.51-4.53,9.82,9.82,0,0,0-2.87-7.51,12.84,12.84,0,0,0-15.87.15,9.16,9.16,0,0,0-3.13,7.06h4.59a5.81,5.81,0,0,1,1.71-4.44,6.51,6.51,0,0,1,4.74-1.71c4.18,0,6.29,2.12,6.29,6.3a5.76,5.76,0,0,1-1.86,4.48,7.63,7.63,0,0,1-5.09,1.71h-3.42Z"></path><path class="cls-3" d="M232.53,612.49h149M468,318.65V533.78"></path><path d="M551,420.22v18l-10.43-9.57c-4.84-4.54-9.07-6.75-12.6-6.75a9,9,0,0,0-7,2.87,11.36,11.36,0,0,0-2.62,7.91,11.6,11.6,0,0,0,3.08,8.51,10.34,10.34,0,0,0,8,3.23v-4.59a7.48,7.48,0,0,1-5.4-1.86,7.21,7.21,0,0,1-1.91-5.29,6,6,0,0,1,1.81-4.54,6.45,6.45,0,0,1,4.59-1.66,8.63,8.63,0,0,1,4,1,27.72,27.72,0,0,1,5.09,3.83l13.8,12.39h3.27V420.22Zm-29.93-23.64a12.25,12.25,0,0,0,0,15.27,9.29,9.29,0,0,0,7.16,2.92,8.31,8.31,0,0,0,4.78-1.41,9.92,9.92,0,0,0,3.28-3.73,9.5,9.5,0,0,0,3.52,4.38,9.14,9.14,0,0,0,5.24,1.56,9.47,9.47,0,0,0,7.41-3.07,13.78,13.78,0,0,0,0-16.57,9.37,9.37,0,0,0-7.41-3.13,8.77,8.77,0,0,0-5.24,1.67,9.91,9.91,0,0,0-3.52,4.43,9.81,9.81,0,0,0-3.28-3.83,8.2,8.2,0,0,0-4.78-1.41,9.12,9.12,0,0,0-7.16,2.92Zm28.67,2.62a8,8,0,0,1,0,10A6.34,6.34,0,0,1,545,411a6.7,6.7,0,0,1-4.94-1.86,6.53,6.53,0,0,1-1.86-4.94,7,7,0,0,1,1.91-5,6.62,6.62,0,0,1,4.89-1.91,6.37,6.37,0,0,1,4.79,1.86Zm-25.9.71a6.72,6.72,0,0,1,8.92-.05,5.71,5.71,0,0,1,1.66,4.33,5.92,5.92,0,0,1-1.66,4.38,7,7,0,0,1-9-.05,5.8,5.8,0,0,1-1.66-4.33,5.69,5.69,0,0,1,1.71-4.28Z"></path><rect class="cls-1" x="306.01" y="273.83" width="2.91" height="40.92"></rect><rect class="cls-4" x="306.01" y="273.83" width="2.92" height="40.92"></rect><rect class="cls-1" x="289.7" y="398.35" width="34.27" height="54.84"></rect><path class="cls-1" d="M268.48,531.49l6.11-71.59a7.3,7.3,0,0,1,7.24-6.71h51.56a7.55,7.55,0,0,1,7.49,7l5.34,71.28"></path><path class="cls-1" d="M323.31,398.15s52.05,8.24,55.76,70.11c0,0,5.72,36.29-29.82,63.43H307.3M290.73,398.15s-52.06,8.24-55.76,70.11c0,0-5.73,36.29,29.81,63.43h42m-5.44-145.4s1.57,10-10.56,11.86H324c-12.23-2.42-10.66-11.86-10.66-11.86m-12-74.43h12v74.43h-12ZM284,247.1h45.83l-4.5,26.74H289.83Z"></path><path class="cls-1" d="M323.31,398.15s52.05,8.24,55.76,70.11c0,0,5.72,36.29-29.82,63.43H307.3"></path><path class="cls-4" d="M323.31,398.15s52.05,8.24,55.76,70.11c0,0,5.72,36.29-29.82,63.43H307.3"></path><path class="cls-1" d="M290.73,398.15s-52.06,8.24-55.76,70.11c0,0-5.73,36.29,29.81,63.43h42"></path><path class="cls-4" d="M290.73,398.15s-52.06,8.24-55.76,70.11c0,0-5.73,36.29,29.81,63.43h42m-5.44-145.4s1.57,10-10.56,11.86H324c-12.23-2.42-10.66-11.86-10.66-11.86m-12-74.43h12v74.43h-12ZM284,247.1h45.83l-4.5,26.74H289.83L284,247.1Z"></path><path class="cls-1" d="M344.89,513.67l1.33,17.82m-25.72-78.3h12.89a7.55,7.55,0,0,1,7.49,7L342.22,478m-69.16-.22,1.53-17.91a7.3,7.3,0,0,1,7.24-6.71h12.89m-26.24,78.3,1.53-17.9"></path><path class="cls-5" d="M344.89,513.67l1.33,17.82m-25.72-78.3h12.89a7.55,7.55,0,0,1,7.49,7L342.22,478m-69.16-.22,1.53-17.91a7.3,7.3,0,0,1,7.24-6.71h12.89m-26.24,78.3,1.53-17.9"></path></svg> 