<?xml version="1.0" encoding="UTF-8"?> <svg xmlns="http://www.w3.org/2000/svg" id="Livello_1" data-name="Livello 1" viewBox="0 0 767.29 1000"><defs><style>.cls-1{fill:#fff;}.cls-2,.cls-3{fill:none;stroke-width:0.25px;}.cls-2{stroke:#000;}.cls-3{stroke:#231f20;stroke-miterlimit:10;}.cls-4{fill:#231f20;}</style></defs><title>Glo tavolo mini</title><rect class="cls-1" width="767.29" height="1000"></rect><line class="cls-2" x1="223.59" y1="895.68" x2="379.41" y2="895.68"></line><path d="M258.07,993.79,255,1000h3.83l2.26-4.58a15.8,15.8,0,0,0,5.83,1.07,14.93,14.93,0,0,0,7.84-2.07,14.59,14.59,0,0,0,5.33-6,19.82,19.82,0,0,0,1.88-8.72c0-6.52-2-11.42-6-14.55l3.14-6.27h-3.83l-2.19,4.58a15,15,0,0,0-6.27-1.32,14.44,14.44,0,0,0-7.84,2.13,14.23,14.23,0,0,0-5.33,6,19.5,19.5,0,0,0-1.89,8.72c0,6.84,2.14,11.73,6.28,14.8Zm2-23.71a8.17,8.17,0,0,1,6.78-3.32,8.32,8.32,0,0,1,4.07,1L260.45,989c-2-2.32-2.95-5.39-2.95-9.34,0-4.14.82-7.34,2.57-9.6Zm16.18,9.41c0,3.76-.81,6.77-2.51,9a8.33,8.33,0,0,1-6.83,3.33,8.75,8.75,0,0,1-3.7-.76L273.62,970a14.24,14.24,0,0,1,2.63,9Zm30.63-28.41H306l-16.24,6.08v5.15l11.41-4.21v37.76h5.71Zm24.85,24.4H336c3,.06,5.33.75,6.9,2.13a7.37,7.37,0,0,1,2.38,6,8.24,8.24,0,0,1-2.13,6.14,8.7,8.7,0,0,1-6.34,2.14,8.59,8.59,0,0,1-6.14-2.14,7.21,7.21,0,0,1-2.26-5.58H322.7a11.28,11.28,0,0,0,3.95,9A16.79,16.79,0,0,0,347,993a12.2,12.2,0,0,0,3.95-9.54,10.91,10.91,0,0,0-2-6.58,11.24,11.24,0,0,0-5.71-3.83,11.53,11.53,0,0,0,5.15-4.08,9.82,9.82,0,0,0,1.88-5.64c0-4-1.19-7.09-3.58-9.34s-5.7-3.33-9.91-3.33a14.21,14.21,0,0,0-9.84,3.51,11.39,11.39,0,0,0-3.89,8.78h5.71a7.24,7.24,0,0,1,2.13-5.52,8.11,8.11,0,0,1,5.89-2.13c5.21,0,7.84,2.64,7.84,7.84a7.15,7.15,0,0,1-2.32,5.58,9.52,9.52,0,0,1-6.33,2.14h-4.27Z"></path><line class="cls-2" x1="489.74" y1="478.01" x2="489.74" y2="813.67"></line><path d="M593.12,609.68v22.39l-13-11.91c-6-5.65-11.29-8.41-15.68-8.41a11.18,11.18,0,0,0-8.65,3.58c-2.2,2.44-3.26,5.7-3.26,9.84,0,4.46,1.25,8,3.82,10.6a12.91,12.91,0,0,0,9.91,4v-5.71a9.29,9.29,0,0,1-6.71-2.32,8.91,8.91,0,0,1-2.38-6.59,7.44,7.44,0,0,1,2.26-5.64,8,8,0,0,1,5.7-2.07,10.88,10.88,0,0,1,5,1.25,35.47,35.47,0,0,1,6.34,4.77l17.18,15.43h4.08V609.68Zm-37.26-29.43a15.25,15.25,0,0,0,0,19,11.51,11.51,0,0,0,8.91,3.64,10.35,10.35,0,0,0,6-1.76,12.18,12.18,0,0,0,4.07-4.64,11.9,11.9,0,0,0,4.39,5.46,11.38,11.38,0,0,0,6.53,1.94,11.78,11.78,0,0,0,9.21-3.82c2.33-2.64,3.45-6,3.45-10.35s-1.12-7.65-3.45-10.29a11.65,11.65,0,0,0-9.21-3.89,10.94,10.94,0,0,0-6.53,2.07,12.53,12.53,0,0,0-4.39,5.52,12.13,12.13,0,0,0-4.07-4.76,10.27,10.27,0,0,0-6-1.76,11.31,11.31,0,0,0-8.91,3.64Zm35.69,3.26a10,10,0,0,1,0,12.48,7.88,7.88,0,0,1-6,2.26,8.33,8.33,0,0,1-6.15-2.32,8.18,8.18,0,0,1-2.32-6.15,8.61,8.61,0,0,1,2.39-6.21,8.19,8.19,0,0,1,6.08-2.38,7.91,7.91,0,0,1,6,2.32Zm-32.24.88a8.38,8.38,0,0,1,11.1-.06,7.11,7.11,0,0,1,2.07,5.39,7.38,7.38,0,0,1-2.07,5.46,8.67,8.67,0,0,1-11.16-.07,7.22,7.22,0,0,1-2.07-5.39,7.1,7.1,0,0,1,2.13-5.33Z"></path><path class="cls-1" d="M303.7,480.63h51.46s62.89,75.16-25.73,126.42H273.57C185,555.79,247.84,480.63,247.84,480.63H303.7Zm-50.14,0,.59,6.07"></path><path class="cls-3" d="M303.7,480.63h51.46s62.89,75.16-25.73,126.42H273.57C185,555.79,247.84,480.63,247.84,480.63H303.7Zm-50.14,0,.59,6.07"></path><path class="cls-1" d="M255.86,497.29l7.37,78.06a13,13,0,0,0,12.83,11.86h51.83A13.23,13.23,0,0,0,341,575l7-83.56"></path><path class="cls-3" d="M255.86,497.29l1.84,19.51m3.68,39,1.84,19.52a13,13,0,0,0,12.84,11.86h13m25.91,0h13A13.24,13.24,0,0,0,341,575l1.74-20.89m3.51-41.79L348,491.42"></path><path class="cls-1" d="M349,485.38l.52-6.2M273.63,608.1s16.27,2.6,18.55,24.37H311s.23-19.73,18.38-24.37m-37.21,24.37V773.88h19.4L311,632.47m1.08,141.4s0,22.94,38.52,23.81c0,0,20.54.59,20.54,16.25h-138c0-15.66,20.54-16.25,20.54-16.25,38.52-.87,38.52-23.81,38.52-23.81m-10,16.29h39.87m-79.29,10.05H361.5"></path><path class="cls-3" d="M349,485.38l.52-6.2M273.63,608.1s16.27,2.6,18.55,24.37H311s.23-19.73,18.38-24.37m-37.21,24.37V773.88h19.4L311,632.47m1.08,141.4s0,22.94,38.52,23.81c0,0,20.54.59,20.54,16.25h-138c0-15.66,20.54-16.25,20.54-16.25,38.52-.87,38.52-23.81,38.52-23.81m-10,16.29h39.87m-79.29,10.05H361.5"></path><path class="cls-4" d="M192.67,23.87A36.4,36.4,0,0,0,191.25,13a19.47,19.47,0,0,0-3.84-7.38,14.56,14.56,0,0,0-6-4.24A20.12,20.12,0,0,0,173.74,0a20.36,20.36,0,0,0-7.69,1.41,14.25,14.25,0,0,0-5.89,4.24A19.48,19.48,0,0,0,156.31,13a36.42,36.42,0,0,0-1.41,10.84v9.66a36.11,36.11,0,0,0,1.41,10.75,20.75,20.75,0,0,0,3.85,7.46,14.31,14.31,0,0,0,6,4.24,20.36,20.36,0,0,0,7.69,1.42,20.12,20.12,0,0,0,7.7-1.42,14.34,14.34,0,0,0,6-4.24,20.75,20.75,0,0,0,3.85-7.46,39.12,39.12,0,0,0,1.34-10.75ZM181.59,35a28.94,28.94,0,0,1-.54,6.28,12.23,12.23,0,0,1-1.5,4.16,5.57,5.57,0,0,1-2.43,2.28,8.13,8.13,0,0,1-6.6,0,5.63,5.63,0,0,1-2.43-2.28,12,12,0,0,1-1.57-4.16,35.77,35.77,0,0,1-.47-6.28V22.22a34.79,34.79,0,0,1,.47-6.2A11.69,11.69,0,0,1,168,11.93a6.63,6.63,0,0,1,2.44-2.27A7.73,7.73,0,0,1,173.74,9a7.29,7.29,0,0,1,3.3.63,6.24,6.24,0,0,1,2.51,2.27,11.88,11.88,0,0,1,1.5,4.09,28.16,28.16,0,0,1,.54,6.2ZM235.18,9a12.11,12.11,0,0,0-3.69-4.87A16.09,16.09,0,0,0,225.91,1a24.65,24.65,0,0,0-7.06-1,25.67,25.67,0,0,0-7.15,1,16.8,16.8,0,0,0-5.57,3.06A13.62,13.62,0,0,0,202.44,9a16,16,0,0,0-1.26,6.67,13.18,13.18,0,0,0,2,7.23,14.38,14.38,0,0,0,5.58,5,15.8,15.8,0,0,0-6.36,5.34,13.52,13.52,0,0,0-2.44,8.09,15.07,15.07,0,0,0,1.49,7,14.6,14.6,0,0,0,3.93,5,18.06,18.06,0,0,0,6,3.06,27.78,27.78,0,0,0,15,0,18.43,18.43,0,0,0,6-3.06,14.6,14.6,0,0,0,3.93-5,16.15,16.15,0,0,0,1.41-7,14.21,14.21,0,0,0-2.36-8.09,16.49,16.49,0,0,0-6.43-5.34,14.35,14.35,0,0,0,5.57-5,13.23,13.23,0,0,0,2-7.23A16.13,16.13,0,0,0,235.18,9ZM224.5,46.32a7.38,7.38,0,0,1-5.65,2.12,8.44,8.44,0,0,1-3.22-.54,5.71,5.71,0,0,1-2.44-1.58,6,6,0,0,1-1.57-2.51,8.59,8.59,0,0,1-.55-3.3,9.28,9.28,0,0,1,.55-3.37,6.58,6.58,0,0,1,1.57-2.51,6.42,6.42,0,0,1,2.44-1.57,7.85,7.85,0,0,1,3.14-.55,8.32,8.32,0,0,1,3.22.55,6.46,6.46,0,0,1,2.43,1.57A7.4,7.4,0,0,1,226,37.14a9.28,9.28,0,0,1,.55,3.37,7.85,7.85,0,0,1-2,5.81Zm-.79-24.81a6.82,6.82,0,0,1-9.73,0,7.79,7.79,0,0,1-1.73-5.34A7.64,7.64,0,0,1,214,10.84,6.27,6.27,0,0,1,218.85,9a6.15,6.15,0,0,1,4.86,2,8,8,0,0,1,1.73,5.26,8.2,8.2,0,0,1-1.73,5.34ZM272,.71h-1.17L247.77,9v9L261,13.9V56.61H272Zm45,0h-1.18L292.8,9v9L306,13.9V56.61h11.07Zm40.15,27.56H335.62v8.87h21.59Zm46-4.4A36.42,36.42,0,0,0,401.78,13a19.34,19.34,0,0,0-3.85-7.38,14.53,14.53,0,0,0-6-4.24A20.12,20.12,0,0,0,384.27,0a20.32,20.32,0,0,0-7.69,1.41,14.25,14.25,0,0,0-5.89,4.24A19.34,19.34,0,0,0,366.84,13a36.42,36.42,0,0,0-1.41,10.84v9.66a36.11,36.11,0,0,0,1.41,10.75,20.75,20.75,0,0,0,3.85,7.46,14.31,14.31,0,0,0,6,4.24,20.32,20.32,0,0,0,7.69,1.42A20,20,0,0,0,392,56a14.31,14.31,0,0,0,6-4.24,20.75,20.75,0,0,0,3.85-7.46,39.15,39.15,0,0,0,1.33-10.75ZM392.12,35a28.26,28.26,0,0,1-.55,6.28,12,12,0,0,1-1.49,4.16,5.63,5.63,0,0,1-2.43,2.28,8.13,8.13,0,0,1-6.6,0,5.63,5.63,0,0,1-2.43-2.28,12,12,0,0,1-1.57-4.16,34.83,34.83,0,0,1-.47-6.28V22.22a33.88,33.88,0,0,1,.47-6.2,11.69,11.69,0,0,1,1.49-4.09A6.69,6.69,0,0,1,381,9.66a7.74,7.74,0,0,1,3.3-.63,7.29,7.29,0,0,1,3.3.63,6.31,6.31,0,0,1,2.51,2.27A11.69,11.69,0,0,1,391.57,16a27.5,27.5,0,0,1,.55,6.2Zm56.1-11.15A36.08,36.08,0,0,0,446.8,13,19.33,19.33,0,0,0,443,5.65a14.49,14.49,0,0,0-6-4.24A20.12,20.12,0,0,0,429.29,0a20.4,20.4,0,0,0-7.69,1.41,14.25,14.25,0,0,0-5.89,4.24A19.48,19.48,0,0,0,411.86,13a36.42,36.42,0,0,0-1.41,10.84v9.66a36.11,36.11,0,0,0,1.41,10.75,20.91,20.91,0,0,0,3.85,7.46,14.31,14.31,0,0,0,6,4.24,20.36,20.36,0,0,0,7.69,1.42,20.12,20.12,0,0,0,7.7-1.42,14.31,14.31,0,0,0,6-4.24,20.9,20.9,0,0,0,3.84-7.46,38.74,38.74,0,0,0,1.34-10.75ZM437.15,35a28.87,28.87,0,0,1-.55,6.28,12.46,12.46,0,0,1-1.49,4.16,5.65,5.65,0,0,1-2.44,2.28,8.11,8.11,0,0,1-6.59,0,5.59,5.59,0,0,1-2.44-2.28,12.18,12.18,0,0,1-1.57-4.16A35.77,35.77,0,0,1,421.6,35V22.22a34.79,34.79,0,0,1,.47-6.2,12.1,12.1,0,0,1,1.49-4.09A6.63,6.63,0,0,1,426,9.66,7.73,7.73,0,0,1,429.29,9a7.29,7.29,0,0,1,3.3.63,6.33,6.33,0,0,1,2.52,2.27A12.1,12.1,0,0,1,436.6,16a28.1,28.1,0,0,1,.55,6.2Z"></path><path class="cls-4" d="M235.51,105.37V161.2h4.71V136.78l-.39-24.66,20.72,49.08h3.62L285,112l-.39,24.81V161.2h4.71V105.37H283L262.36,154.6l-20.65-49.23Zm71.93,14.37h-4.63V161.2h4.63Zm-4.63-9.81a3.32,3.32,0,0,0,2.35.86,3.13,3.13,0,0,0,2.28-.86,2.9,2.9,0,0,0,.86-2.2,2.78,2.78,0,0,0-.86-2.2,2.89,2.89,0,0,0-2.28-.94,3.06,3.06,0,0,0-2.35.94,3,3,0,0,0-.79,2.2,3.17,3.17,0,0,0,.79,2.2Zm17,9.81V161.2h4.55V132.77a17.18,17.18,0,0,1,1.81-3.61,13.33,13.33,0,0,1,2.59-3.22,13.58,13.58,0,0,1,3.53-2.2,11.68,11.68,0,0,1,4.48-.78,13.61,13.61,0,0,1,4.08.55,6.72,6.72,0,0,1,3.06,1.8,9.28,9.28,0,0,1,2,3.46,17.84,17.84,0,0,1,.7,5.42v27h4.56v-27a22.72,22.72,0,0,0-1-7,12.73,12.73,0,0,0-2.59-4.71,9.67,9.67,0,0,0-4.16-2.67,15.34,15.34,0,0,0-5.57-.86,15,15,0,0,0-4.24.54,17,17,0,0,0-3.69,1.58,16,16,0,0,0-3.14,2.51,16.24,16.24,0,0,0-2.44,3.22l-.15-7.07Zm48.24,0h-4.63V161.2h4.63Zm-4.63-9.81a3.35,3.35,0,0,0,2.36.86,3.12,3.12,0,0,0,2.27-.86,2.91,2.91,0,0,0,.87-2.2,2.78,2.78,0,0,0-.87-2.2,2.89,2.89,0,0,0-2.27-.94,3.08,3.08,0,0,0-2.36.94,3,3,0,0,0-.78,2.2,3.16,3.16,0,0,0,.78,2.2Z"></path></svg> 