<?xml version="1.0" encoding="UTF-8"?> <svg xmlns="http://www.w3.org/2000/svg" id="Livello_1" data-name="Livello 1" viewBox="0 0 767.29 1000"><defs><style>.cls-1{fill:#fff;}.cls-2{fill:#231f20;}.cls-3,.cls-4,.cls-5,.cls-6,.cls-7{fill:none;stroke-width:0.25px;}.cls-3{stroke:#000;}.cls-4,.cls-5,.cls-6,.cls-7{stroke:#231f20;}.cls-4{stroke-miterlimit:10;}.cls-5,.cls-6,.cls-7{stroke-linecap:square;stroke-linejoin:round;}.cls-5{stroke-dasharray:2.25 2.25;}.cls-6{stroke-dasharray:2.24 2.24;}</style></defs><title>Glo sospensione large</title><rect class="cls-1" width="767.29" height="1000"></rect><path class="cls-2" d="M186.37,19.17a29,29,0,0,0-1.14-8.7,15.36,15.36,0,0,0-3.09-5.93,11.45,11.45,0,0,0-4.79-3.4A16,16,0,0,0,171.17,0,16.27,16.27,0,0,0,165,1.14a11.27,11.27,0,0,0-4.73,3.4,15.36,15.36,0,0,0-3.09,5.93,29,29,0,0,0-1.14,8.7v7.76a28.9,28.9,0,0,0,1.14,8.64,16.6,16.6,0,0,0,3.09,6A11.57,11.57,0,0,0,165.05,45a16.46,16.46,0,0,0,6.18,1.13A16.24,16.24,0,0,0,177.41,45a11.57,11.57,0,0,0,4.79-3.41,16.6,16.6,0,0,0,3.09-6,31.14,31.14,0,0,0,1.08-8.64Zm-8.9,9a22.67,22.67,0,0,1-.44,5,9.66,9.66,0,0,1-1.2,3.35,4.41,4.41,0,0,1-2,1.82,6.45,6.45,0,0,1-5.3,0,4.41,4.41,0,0,1-2-1.82,9.82,9.82,0,0,1-1.27-3.35,28.55,28.55,0,0,1-.37-5V17.85a27.83,27.83,0,0,1,.37-5,9.64,9.64,0,0,1,1.2-3.28,5.39,5.39,0,0,1,2-1.83,6.18,6.18,0,0,1,2.65-.51,5.84,5.84,0,0,1,2.65.51,5,5,0,0,1,2,1.83,9.24,9.24,0,0,1,1.2,3.28,22.1,22.1,0,0,1,.44,5Zm43-20.94a9.63,9.63,0,0,0-3-3.91A12.85,12.85,0,0,0,213.07.82,20,20,0,0,0,207.39,0a20.75,20.75,0,0,0-5.73.82,13.41,13.41,0,0,0-4.48,2.46,11,11,0,0,0-3,3.91,13,13,0,0,0-1,5.36,10.54,10.54,0,0,0,1.58,5.8,11.54,11.54,0,0,0,4.48,4,12.58,12.58,0,0,0-5.11,4.29,10.85,10.85,0,0,0-2,6.49,12.1,12.1,0,0,0,1.19,5.62,11.69,11.69,0,0,0,3.16,4,14.68,14.68,0,0,0,4.85,2.46,22.54,22.54,0,0,0,12,0,15.08,15.08,0,0,0,4.79-2.46,11.69,11.69,0,0,0,3.16-4,13,13,0,0,0,1.13-5.62,11.38,11.38,0,0,0-1.89-6.49,13.32,13.32,0,0,0-5.17-4.29,11.52,11.52,0,0,0,4.47-4,10.49,10.49,0,0,0,1.64-5.8,12.78,12.78,0,0,0-1.07-5.36Zm-8.57,30a6,6,0,0,1-4.55,1.7,6.66,6.66,0,0,1-2.58-.44,4.55,4.55,0,0,1-2-1.26,4.85,4.85,0,0,1-1.26-2,7,7,0,0,1-.44-2.65,7.52,7.52,0,0,1,.44-2.71,5.38,5.38,0,0,1,3.22-3.28,6.54,6.54,0,0,1,2.52-.44,6.87,6.87,0,0,1,2.59.44,5.26,5.26,0,0,1,2,1.26,5.94,5.94,0,0,1,1.26,2,7.31,7.31,0,0,1,.44,2.71,6.33,6.33,0,0,1-1.63,4.67Zm-.64-19.93a5.48,5.48,0,0,1-7.82,0A6.29,6.29,0,0,1,202.1,13a6.2,6.2,0,0,1,1.38-4.29,5,5,0,0,1,3.91-1.51,4.92,4.92,0,0,1,3.91,1.58A6.38,6.38,0,0,1,212.69,13a6.55,6.55,0,0,1-1.39,4.29ZM250.12.57h-1L230.63,7.25v7.19l10.6-3.28V45.47h8.89Zm36.16,0h-.94L266.79,7.25v7.19l10.6-3.28V45.47h8.89ZM318.54,22.7H301.19v7.13h17.35ZM356,38.28h-19.3L344.62,30c1.51-1.58,2.9-3,4.1-4.48a30.45,30.45,0,0,0,3.15-4.23,20.31,20.31,0,0,0,2-4.16,12.76,12.76,0,0,0,.76-4.35,14.72,14.72,0,0,0-.95-5.36,10.59,10.59,0,0,0-2.84-4A12.57,12.57,0,0,0,346.26.88,21.41,21.41,0,0,0,340,0a16.53,16.53,0,0,0-6.49,1.2,14.57,14.57,0,0,0-4.86,3.15A13.91,13.91,0,0,0,325.45,9a16.07,16.07,0,0,0-1.07,5.74h8.95a9.12,9.12,0,0,1,.44-3,7.41,7.41,0,0,1,1.2-2.4,5.76,5.76,0,0,1,2.08-1.57,6.24,6.24,0,0,1,2.78-.57,5.49,5.49,0,0,1,4.29,1.7,6.87,6.87,0,0,1,1.51,4.73,5.67,5.67,0,0,1-.32,2,10.55,10.55,0,0,1-.94,2.27,18,18,0,0,1-1.83,2.71,36.75,36.75,0,0,1-2.78,3.28l-14.5,15.45v6.12H356Zm14.47-12.23h4.73a11.58,11.58,0,0,1,3.09.38,9,9,0,0,1,2.33,1.19,6.22,6.22,0,0,1,1.45,2.08,9,9,0,0,1,.5,3.09,6.6,6.6,0,0,1-.5,2.53,4.35,4.35,0,0,1-1.32,1.89,4.86,4.86,0,0,1-2.15,1.26,7.78,7.78,0,0,1-2.84.44,6.86,6.86,0,0,1-2.58-.44,5.47,5.47,0,0,1-2.08-1.2,5.27,5.27,0,0,1-1.39-1.76,5.47,5.47,0,0,1-.51-2.34h-8.89a11.6,11.6,0,0,0,1.33,5.74,11.88,11.88,0,0,0,3.46,4,15.34,15.34,0,0,0,4.86,2.4,21.3,21.3,0,0,0,5.61.75,22.32,22.32,0,0,0,6.31-.88A14.64,14.64,0,0,0,387,42.63a11.88,11.88,0,0,0,3.34-4.1,13.28,13.28,0,0,0,1.2-5.61,11,11,0,0,0-1.9-6.43,10.87,10.87,0,0,0-5.61-4,14.54,14.54,0,0,0,2.9-1.83,14.37,14.37,0,0,0,2.15-2.27,11.91,11.91,0,0,0,1.32-2.71,11.19,11.19,0,0,0,.44-2.84,13.13,13.13,0,0,0-1.13-5.55,11.4,11.4,0,0,0-3.09-4,14.52,14.52,0,0,0-4.8-2.46A23.81,23.81,0,0,0,375.61,0a19.16,19.16,0,0,0-5.74.88,15.67,15.67,0,0,0-4.66,2.46,12.41,12.41,0,0,0-3.16,3.85,11.27,11.27,0,0,0-1.13,5h8.89a4.57,4.57,0,0,1,.51-2.08,4.38,4.38,0,0,1,1.26-1.57,5.33,5.33,0,0,1,1.95-1,6.67,6.67,0,0,1,2.27-.38,7.12,7.12,0,0,1,2.72.44,4.86,4.86,0,0,1,1.89,1.2,4.48,4.48,0,0,1,1.13,1.83,6.63,6.63,0,0,1,.38,2.27,6.23,6.23,0,0,1-1.64,4.48,6.78,6.78,0,0,1-5,1.7h-4.73Z"></path><path class="cls-2" d="M205.73,84.64h-3.79v44.84h25.92v-3.22H205.73Zm53.51,44.84v-.38a10.52,10.52,0,0,1-.44-1.39c-.13-.5-.19-1.07-.32-1.64s-.12-1.13-.19-1.76-.06-1.2-.06-1.77V106.4a12.06,12.06,0,0,0-.88-4.73,9.15,9.15,0,0,0-2.53-3.41,10.9,10.9,0,0,0-3.78-2,15.57,15.57,0,0,0-4.92-.69,15.35,15.35,0,0,0-5.23.82,14.3,14.3,0,0,0-4,2.21,10.31,10.31,0,0,0-2.59,3.15,7.2,7.2,0,0,0-.88,3.59l3.66.07a5.54,5.54,0,0,1,.69-2.65,7.17,7.17,0,0,1,1.83-2.15,8.55,8.55,0,0,1,2.84-1.38,10.58,10.58,0,0,1,3.53-.57q4.26,0,6.43,2.08a7.27,7.27,0,0,1,2.21,5.61v3.79h-6.81a27.81,27.81,0,0,0-6.37.69A14.76,14.76,0,0,0,236.6,113a8.73,8.73,0,0,0-4,7.7,9.07,9.07,0,0,0,.76,3.72,8.76,8.76,0,0,0,2.14,3,10.32,10.32,0,0,0,3.41,2,14.11,14.11,0,0,0,4.41.69,16.68,16.68,0,0,0,3.66-.44,20.69,20.69,0,0,0,3.15-1.14,11.79,11.79,0,0,0,2.53-1.7,9.77,9.77,0,0,0,1.95-2c.06.88.13,1.7.25,2.59a8.67,8.67,0,0,0,.51,2.08Zm-18.61-3.16a7.31,7.31,0,0,1-2.39-1.38,5.36,5.36,0,0,1-1.45-2.08,5.69,5.69,0,0,1-.57-2.53,6.24,6.24,0,0,1,.82-3.09,6.56,6.56,0,0,1,2.4-2.33,11.39,11.39,0,0,1,3.78-1.45,20.26,20.26,0,0,1,5-.51h6.31v7.32a10.89,10.89,0,0,1-1.64,2.59,13.18,13.18,0,0,1-2.39,2.08,12.25,12.25,0,0,1-3.1,1.38,13.71,13.71,0,0,1-3.72.51,9.26,9.26,0,0,1-3.09-.51Zm42.92-30.39a6.67,6.67,0,0,0-1.07-.26,10.87,10.87,0,0,0-1.39-.12,9.61,9.61,0,0,0-5.68,1.57,11.6,11.6,0,0,0-3.72,4.36l-.06-5.3H268v33.3h3.66V106.59a16.36,16.36,0,0,1,1.26-3,8.88,8.88,0,0,1,2-2.34,8.1,8.1,0,0,1,2.65-1.57,9.58,9.58,0,0,1,3.4-.57,14.46,14.46,0,0,1,2.46.19Zm4.2,17.21a23.6,23.6,0,0,0,.89,6.88,15.36,15.36,0,0,0,2.52,5.36,12.4,12.4,0,0,0,4,3.47,11.37,11.37,0,0,0,5.36,1.26,13.14,13.14,0,0,0,6.11-1.33,11.52,11.52,0,0,0,4.17-3.59V129a14,14,0,0,1-.63,4.47,8.65,8.65,0,0,1-2,3.28,7.82,7.82,0,0,1-3.09,2.15,12,12,0,0,1-4.16.69,11,11,0,0,1-5-1.13,14.35,14.35,0,0,1-4.36-3.66l-2,2.21a11.18,11.18,0,0,0,2.33,2.52,16.73,16.73,0,0,0,2.9,1.76,18.59,18.59,0,0,0,3.15,1.08,14.12,14.12,0,0,0,3.22.31,15.2,15.2,0,0,0,5.49-.94,11.84,11.84,0,0,0,4.22-2.72,12.37,12.37,0,0,0,2.65-4.35,16.7,16.7,0,0,0,1-5.8V96.18h-3.47L311,101a12,12,0,0,0-4.22-4,11.73,11.73,0,0,0-6.12-1.45,11.59,11.59,0,0,0-5.42,1.2,12.19,12.19,0,0,0-4,3.4,15.45,15.45,0,0,0-2.52,5.36,24.21,24.21,0,0,0-.89,7Zm3.72-.63a24.56,24.56,0,0,1,.57-5.42,13.67,13.67,0,0,1,1.77-4.35,8.49,8.49,0,0,1,3.09-2.9,8.16,8.16,0,0,1,4.41-1.08,11.68,11.68,0,0,1,3.53.51,9.09,9.09,0,0,1,4.67,3.53,10.91,10.91,0,0,1,1.33,2.52v15.46a12.26,12.26,0,0,1-1.45,2.45,8.45,8.45,0,0,1-2,1.9,10,10,0,0,1-2.71,1.32,11.32,11.32,0,0,1-3.41.44,8.6,8.6,0,0,1-4.35-1.07,8.49,8.49,0,0,1-3.09-2.9,13.67,13.67,0,0,1-1.77-4.35,24.2,24.2,0,0,1-.57-5.43Zm49.67,17.09a10.76,10.76,0,0,0,3.28-1.26,10.53,10.53,0,0,0,2.52-1.83,15.55,15.55,0,0,0,1.95-2.33l-2.33-1.7a11,11,0,0,1-4.1,3.4,11.55,11.55,0,0,1-5.23,1.08,10.57,10.57,0,0,1-4.67-1,11.28,11.28,0,0,1-3.6-2.84,13,13,0,0,1-2.33-4.16,15.58,15.58,0,0,1-.82-5.18v-.69h23.78v-2.27a21,21,0,0,0-.89-6.12,13.41,13.41,0,0,0-2.52-4.85A12.07,12.07,0,0,0,342,96.68a13.22,13.22,0,0,0-5.61-1.13,12.41,12.41,0,0,0-5.43,1.2,14.9,14.9,0,0,0-4.54,3.4,15.91,15.91,0,0,0-3.15,5.3,20.27,20.27,0,0,0-1.14,7v1.32a18.26,18.26,0,0,0,1.14,6.56,14.65,14.65,0,0,0,3.09,5.18,13.19,13.19,0,0,0,4.73,3.34,14.34,14.34,0,0,0,6,1.26,15.54,15.54,0,0,0,4-.51Zm-.63-30a10.47,10.47,0,0,1,3,2.4,11.27,11.27,0,0,1,1.77,3.47,14.61,14.61,0,0,1,.69,4.1v.38h-20a16.94,16.94,0,0,1,1.2-4.61,11.64,11.64,0,0,1,2.2-3.53,11.09,11.09,0,0,1,3.16-2.33,9.91,9.91,0,0,1,3.91-.76,9.48,9.48,0,0,1,4.1.88Z"></path><path class="cls-3" d="M138.39,916.2H446.92M537,373.7V838.55"></path><path d="M606.75,682.33l-1-1.21a7.5,7.5,0,0,1-1.31-4.69,6.6,6.6,0,0,1,2.16-5.19,8.32,8.32,0,0,1,5.79-2,9,9,0,0,1,5.95,1.81,6.11,6.11,0,0,1,2.17,5,6.75,6.75,0,0,1-1.57,4.68,7.15,7.15,0,0,1-4.63,2.17v4.33a10.57,10.57,0,0,0,7.3-3.42,11.3,11.3,0,0,0,2.62-7.76c0-3.58-1-6.35-3.17-8.36s-5-3-8.72-3-6.59,1-8.76,2.88a9.83,9.83,0,0,0-3.23,7.75,11.31,11.31,0,0,0,1.57,6l-9.78-1.06V665.8H588v18.34L605.85,686Z"></path><polygon points="587.96 636.62 587.96 660.8 591.69 660.8 591.69 641.46 623.78 656.22 623.78 651.43 590.53 636.62 587.96 636.62"></polygon><path d="M238.47,995l-2.47,5h3.07l1.82-3.68a12.58,12.58,0,0,0,4.68.86,12.1,12.1,0,0,0,6.3-1.66,11.8,11.8,0,0,0,4.28-4.84,15.84,15.84,0,0,0,1.51-7c0-5.24-1.61-9.17-4.78-11.69l2.51-5h-3.07l-1.76,3.68a12.14,12.14,0,0,0-5-1.06,11.6,11.6,0,0,0-6.3,1.72,11.46,11.46,0,0,0-4.28,4.83,15.68,15.68,0,0,0-1.51,7c0,5.49,1.71,9.42,5,11.89Zm1.61-19a6.55,6.55,0,0,1,5.44-2.67,6.67,6.67,0,0,1,3.28.81l-8.42,17.07c-1.61-1.86-2.36-4.33-2.36-7.5,0-3.33.65-5.9,2.06-7.71Zm13,7.56a11.79,11.79,0,0,1-2,7.25,6.71,6.71,0,0,1-5.49,2.67,7.16,7.16,0,0,1-3-.6L251,975.92a11.44,11.44,0,0,1,2.12,7.2Zm16.23-3.23h3.43a8.44,8.44,0,0,1,5.54,1.72,5.9,5.9,0,0,1,1.92,4.78,6.62,6.62,0,0,1-1.72,4.94,8.19,8.19,0,0,1-10,0,5.82,5.82,0,0,1-1.82-4.49h-4.58a9.05,9.05,0,0,0,3.17,7.21,13.49,13.49,0,0,0,16.38-.1,9.81,9.81,0,0,0,3.17-7.66,8.79,8.79,0,0,0-1.61-5.29,9,9,0,0,0-4.59-3.07,9.22,9.22,0,0,0,4.13-3.28,7.87,7.87,0,0,0,1.52-4.53,9.8,9.8,0,0,0-2.88-7.51,12.83,12.83,0,0,0-15.86.15,9.16,9.16,0,0,0-3.13,7.06H267a5.81,5.81,0,0,1,1.71-4.44,6.55,6.55,0,0,1,4.73-1.71c4.19,0,6.3,2.12,6.3,6.3a5.76,5.76,0,0,1-1.86,4.48,7.63,7.63,0,0,1-5.09,1.71h-3.43ZM309.83,963a12.24,12.24,0,0,0-15.26,0,9.25,9.25,0,0,0-2.92,7.16,8.31,8.31,0,0,0,1.41,4.78,9.81,9.81,0,0,0,3.72,3.28,9.5,9.5,0,0,0-4.38,3.52,9.16,9.16,0,0,0-1.56,5.24,9.5,9.5,0,0,0,3.07,7.41,13.79,13.79,0,0,0,16.58,0,9.39,9.39,0,0,0,3.12-7.41,8.78,8.78,0,0,0-1.66-5.24,10,10,0,0,0-4.43-3.52,9.71,9.71,0,0,0,3.82-3.28,8.2,8.2,0,0,0,1.41-4.78,9.08,9.08,0,0,0-2.92-7.16Zm-2.62,28.67a8,8,0,0,1-10,0,6.35,6.35,0,0,1-1.82-4.79,6.66,6.66,0,0,1,1.87-4.93,6.53,6.53,0,0,1,4.94-1.87,6.91,6.91,0,0,1,5,1.92,6.58,6.58,0,0,1,1.92,4.88,6.38,6.38,0,0,1-1.87,4.79Zm-.7-25.9a6.75,6.75,0,0,1,.05,8.92,5.73,5.73,0,0,1-4.33,1.66,5.93,5.93,0,0,1-4.39-1.66,7,7,0,0,1,.05-9,5.85,5.85,0,0,1,4.34-1.66,5.73,5.73,0,0,1,4.28,1.71Z"></path><rect class="cls-4" x="290.18" y="302.45" width="6.14" height="85.69"></rect><path class="cls-1" d="M210.66,836.17l13-150.74a15.46,15.46,0,0,1,15.4-14.15H348.72a16,16,0,0,1,15.95,14.8L376,836.17"></path><rect class="cls-1" x="258.42" y="559.91" width="69.88" height="116.31"></rect><path class="cls-1" d="M244.26,247.1h96.32l-9.44,55.36H256.53Zm36.36,134.1h25.26V535.33H280.62Zm0,154.13s3.3,20.76-22.2,24.58H328.3c-25.73-5-22.42-24.58-22.42-24.58m-47.46,24.58S149,577,141.21,705.1c0,0-12,75.16,62.68,131.35h88.18m34.82-276.54S436.31,577,444.11,705.1c0,0,12,75.16-62.68,131.35H293.25"></path><path class="cls-4" d="M244.26,247.1h96.32l-9.44,55.36H256.53L244.26,247.1Zm36.36,134.1h25.26V535.33H280.62Zm0,154.13s3.3,20.76-22.2,24.58H328.3c-25.73-5-22.42-24.58-22.42-24.58m-47.46,24.58S149,577,141.21,705.1c0,0-12,75.16,62.68,131.35h88.18m34.82-276.54S436.31,577,444.11,705.1c0,0,12,75.16-62.68,131.35H293.25"></path><line class="cls-5" x1="215.53" y1="779.64" x2="220.4" y2="723.11"></line><line class="cls-6" x1="368.92" y1="742.36" x2="373.18" y2="798.65"></line><path class="cls-7" d="M210.66,836.17l1.62-18.84M222,704.27l1.63-18.84a15.46,15.46,0,0,1,15.4-14.15h27.42m54.84,0h27.41a16,16,0,0,1,15.95,14.8l1.42,18.75m8.52,112.58L376,836.17"></path></svg> 