<?xml version="1.0" encoding="UTF-8"?> <svg xmlns="http://www.w3.org/2000/svg" id="Livello_1" data-name="Livello 1" viewBox="0 0 1268.17 1000"><defs><style>.cls-1{fill:#fff;}.cls-2{fill:#231f20;}.cls-3,.cls-4{fill:none;stroke-width:0.25px;}.cls-3{stroke:#000;}.cls-4{stroke:#231f20;stroke-miterlimit:10;}</style></defs><title>jacqueline large</title><rect class="cls-1" width="1268.17" height="1000"></rect><path class="cls-2" d="M446.61.65h-1.09L424.21,8.34V16.6l12.18-3.77V52.26h10.22Zm51.78.07H462V9h25.58L467.66,52.26h10.8L498.39,6.45ZM539.59,22a33.52,33.52,0,0,0-1.3-10,17.94,17.94,0,0,0-3.55-6.81,13.36,13.36,0,0,0-5.51-3.92,18.48,18.48,0,0,0-7.1-1.3A18.82,18.82,0,0,0,515,1.3a13.12,13.12,0,0,0-5.43,3.92A17.67,17.67,0,0,0,506,12a33.5,33.5,0,0,0-1.31,10V31A33.33,33.33,0,0,0,506,40.88a18.93,18.93,0,0,0,3.55,6.88,13.21,13.21,0,0,0,5.51,3.92,18.73,18.73,0,0,0,7.1,1.3,18.48,18.48,0,0,0,7.1-1.3,13.27,13.27,0,0,0,5.51-3.92,19.24,19.24,0,0,0,3.55-6.88A36,36,0,0,0,539.59,31Zm-10.22,10.3a26.58,26.58,0,0,1-.5,5.79A11.32,11.32,0,0,1,527.49,42a5.24,5.24,0,0,1-2.25,2.1,7.46,7.46,0,0,1-6.09,0,5.22,5.22,0,0,1-2.24-2.1,11.07,11.07,0,0,1-1.45-3.85,32.42,32.42,0,0,1-.44-5.79V20.51a31.66,31.66,0,0,1,.44-5.72A10.76,10.76,0,0,1,516.83,11a6.12,6.12,0,0,1,2.25-2.1,7.07,7.07,0,0,1,3-.58,6.64,6.64,0,0,1,3,.58,5.73,5.73,0,0,1,2.32,2.1,10.76,10.76,0,0,1,1.38,3.77,26,26,0,0,1,.5,5.72Zm24.32,11.88v8.56h.79a29.66,29.66,0,0,0,11.53-2A21.84,21.84,0,0,0,574.2,45a23.48,23.48,0,0,0,4.93-8.84,38.78,38.78,0,0,0,1.59-11.53V21a26.78,26.78,0,0,0-1.23-8.55A19.49,19.49,0,0,0,576,5.8a16,16,0,0,0-5.51-4.28A16.79,16.79,0,0,0,563.33,0a17.39,17.39,0,0,0-7.18,1.45,16,16,0,0,0-5.44,4,16.3,16.3,0,0,0-3.47,5.72A20.87,20.87,0,0,0,546,18.27a23,23,0,0,0,1,6.88,16.36,16.36,0,0,0,2.89,5.44,14.64,14.64,0,0,0,4.72,3.69,15.39,15.39,0,0,0,6.52,1.31,11.94,11.94,0,0,0,5.07-1.09,13.86,13.86,0,0,0,4.21-2.83A15,15,0,0,1,569.05,37,10.2,10.2,0,0,1,566,41a13.92,13.92,0,0,1-4.86,2.47,26.36,26.36,0,0,1-6.74.79ZM560.28,27A6.93,6.93,0,0,1,558,24.93a8.21,8.21,0,0,1-1.38-3,15.35,15.35,0,0,1-.44-3.77,15,15,0,0,1,.44-3.62A8.86,8.86,0,0,1,558,11.31a6.21,6.21,0,0,1,2.17-2.18,5.34,5.34,0,0,1,3-.87,6.68,6.68,0,0,1,2.9.66,8.42,8.42,0,0,1,2.32,2A11.13,11.13,0,0,1,570,14.42a18.36,18.36,0,0,1,.51,4.79v4.2a8.48,8.48,0,0,1-2.68,3.12,7.42,7.42,0,0,1-4.28,1.23,6.84,6.84,0,0,1-3.26-.72Zm48.09-.95H588.44v8.19h19.93ZM650.81,22a33.52,33.52,0,0,0-1.3-10A17.94,17.94,0,0,0,646,5.22a13.43,13.43,0,0,0-5.51-3.92,18.52,18.52,0,0,0-7.1-1.3,18.82,18.82,0,0,0-7.11,1.3,13.12,13.12,0,0,0-5.43,3.92A17.81,17.81,0,0,0,617.25,12,33.52,33.52,0,0,0,616,22V31a33.36,33.36,0,0,0,1.3,9.93,19.1,19.1,0,0,0,3.56,6.88,13.24,13.24,0,0,0,5.5,3.92,18.82,18.82,0,0,0,7.11,1.3,18.48,18.48,0,0,0,7.1-1.3A13.27,13.27,0,0,0,646,47.76a19.24,19.24,0,0,0,3.55-6.88A36,36,0,0,0,650.81,31Zm-10.22,10.3a26.58,26.58,0,0,1-.5,5.79A11.32,11.32,0,0,1,638.71,42a5.24,5.24,0,0,1-2.25,2.1,7.46,7.46,0,0,1-6.09,0,5.22,5.22,0,0,1-2.24-2.1,11.07,11.07,0,0,1-1.45-3.85,32.42,32.42,0,0,1-.44-5.79V20.51a31.66,31.66,0,0,1,.44-5.72A10.76,10.76,0,0,1,628.05,11a6.12,6.12,0,0,1,2.25-2.1,7.07,7.07,0,0,1,3.05-.58,6.64,6.64,0,0,1,3,.58,5.73,5.73,0,0,1,2.32,2.1,10.76,10.76,0,0,1,1.38,3.77,26,26,0,0,1,.5,5.72Zm27.5-2.4h5.44a13.59,13.59,0,0,1,3.55.44,10.12,10.12,0,0,1,2.68,1.38,7,7,0,0,1,1.67,2.39,10.43,10.43,0,0,1,.58,3.55,7.73,7.73,0,0,1-.58,2.9,5,5,0,0,1-1.52,2.17,5.49,5.49,0,0,1-2.47,1.45,8.86,8.86,0,0,1-3.26.51,7.86,7.86,0,0,1-3-.51,6.27,6.27,0,0,1-4.57-6.09H656.43a13.39,13.39,0,0,0,1.52,6.6,13.67,13.67,0,0,0,4,4.64,17.53,17.53,0,0,0,5.58,2.75A24.35,24.35,0,0,0,674,53a25.8,25.8,0,0,0,7.24-1,16.85,16.85,0,0,0,5.8-3,13.61,13.61,0,0,0,3.84-4.71,15.35,15.35,0,0,0,1.38-6.46,12,12,0,0,0-8.62-12,17.38,17.38,0,0,0,3.33-2.1,16.79,16.79,0,0,0,2.46-2.61A13.81,13.81,0,0,0,690.93,18a12.78,12.78,0,0,0,.5-3.27,14.92,14.92,0,0,0-1.3-6.37,12.92,12.92,0,0,0-3.55-4.57A16.51,16.51,0,0,0,681.07.94,27.22,27.22,0,0,0,674,0a21.77,21.77,0,0,0-6.6,1A18.12,18.12,0,0,0,662,3.84a14.13,14.13,0,0,0-3.63,4.42,12.86,12.86,0,0,0-1.3,5.8H667.3a5.18,5.18,0,0,1,.58-2.39,5.05,5.05,0,0,1,1.45-1.81,6,6,0,0,1,2.24-1.16,7.6,7.6,0,0,1,2.61-.44,8.06,8.06,0,0,1,3.12.51,5.58,5.58,0,0,1,2.17,1.38,5.18,5.18,0,0,1,1.31,2.1,7.6,7.6,0,0,1,.43,2.61A7.12,7.12,0,0,1,679.33,20c-1.31,1.31-3.19,2-5.8,2h-5.44Z"></path><path class="cls-2" d="M256.22,94.44h-4.28V148.8h4.28Zm40.14,54.36v-.43a12,12,0,0,1-.51-1.59c-.15-.58-.22-1.24-.36-1.89s-.15-1.3-.22-2-.07-1.38-.07-2V122.28a13.78,13.78,0,0,0-1-5.44,10.49,10.49,0,0,0-2.9-3.91,12.29,12.29,0,0,0-4.35-2.32,20,20,0,0,0-11.67.14,16.4,16.4,0,0,0-4.63,2.54,11.89,11.89,0,0,0-3,3.62,8.39,8.39,0,0,0-1,4.13l4.2.08a6.37,6.37,0,0,1,.8-3.05,8.28,8.28,0,0,1,2.1-2.46A10,10,0,0,1,277,114a12.39,12.39,0,0,1,4.06-.65q4.89,0,7.4,2.39A8.39,8.39,0,0,1,291,122.2v4.35h-7.82a31.82,31.82,0,0,0-7.33.8,16.66,16.66,0,0,0-5.5,2.47,10.54,10.54,0,0,0-3.48,3.76,10.68,10.68,0,0,0-1.16,5.08,10.45,10.45,0,0,0,.87,4.27,10.11,10.11,0,0,0,2.46,3.48,11.58,11.58,0,0,0,3.92,2.32,16.09,16.09,0,0,0,5.07.8,19,19,0,0,0,4.2-.51,23,23,0,0,0,3.63-1.3,13.67,13.67,0,0,0,2.9-2,11.14,11.14,0,0,0,2.24-2.32c.08,1,.15,2,.29,3a9.73,9.73,0,0,0,.58,2.39ZM275,145.18a8.67,8.67,0,0,1-2.75-1.59,6.38,6.38,0,0,1-1.67-2.4,6.58,6.58,0,0,1-.65-2.89,7.23,7.23,0,0,1,.94-3.56,7.72,7.72,0,0,1,2.76-2.68,13.58,13.58,0,0,1,4.35-1.67,23.65,23.65,0,0,1,5.8-.57H291v8.4a12.4,12.4,0,0,1-1.88,3,15.11,15.11,0,0,1-2.76,2.4,14.12,14.12,0,0,1-3.55,1.59,16.08,16.08,0,0,1-4.27.58,10.84,10.84,0,0,1-3.56-.58Zm49.33-34.93a7,7,0,0,0-1.24-.29,10.57,10.57,0,0,0-1.59-.15,11,11,0,0,0-6.52,1.81,13.09,13.09,0,0,0-4.28,5l-.07-6.08h-4.13V148.8h4.2V122.49a18.12,18.12,0,0,1,1.45-3.47,10.11,10.11,0,0,1,2.25-2.69,9.37,9.37,0,0,1,3-1.81,11.17,11.17,0,0,1,3.91-.65,16.67,16.67,0,0,1,2.83.22ZM329.13,130a27.25,27.25,0,0,0,1,7.9,18.19,18.19,0,0,0,2.9,6.16,14.36,14.36,0,0,0,4.64,4,13.12,13.12,0,0,0,6.16,1.45,15.28,15.28,0,0,0,7-1.52,13.32,13.32,0,0,0,4.79-4.13v4.42a16,16,0,0,1-.73,5.14,9.81,9.81,0,0,1-2.25,3.77,8.91,8.91,0,0,1-3.55,2.47,13.91,13.91,0,0,1-4.78.79,12.57,12.57,0,0,1-5.73-1.3,16.56,16.56,0,0,1-5-4.2l-2.32,2.53a13,13,0,0,0,2.68,2.9,19.58,19.58,0,0,0,3.34,2,21.15,21.15,0,0,0,3.62,1.23,16,16,0,0,0,3.7.37,17.59,17.59,0,0,0,6.31-1.09,13.72,13.72,0,0,0,4.85-3.12,14.48,14.48,0,0,0,3.05-5,19.29,19.29,0,0,0,1.16-6.67V110.54h-4l-.22,5.5a13.89,13.89,0,0,0-4.85-4.56,15.23,15.23,0,0,0-13.27-.29A14.1,14.1,0,0,0,333,115.1a18.19,18.19,0,0,0-2.9,6.16,28,28,0,0,0-1,8Zm4.27-.72a28.1,28.1,0,0,1,.66-6.24,15.68,15.68,0,0,1,2-5,9.75,9.75,0,0,1,3.55-3.33,9.4,9.4,0,0,1,5.07-1.23,13.48,13.48,0,0,1,4.06.58,11.5,11.5,0,0,1,3.12,1.66,11.73,11.73,0,0,1,2.24,2.4,12.38,12.38,0,0,1,1.53,2.89V138.8a14,14,0,0,1-1.67,2.83,9.36,9.36,0,0,1-2.32,2.17,11.33,11.33,0,0,1-3.12,1.53,13.2,13.2,0,0,1-3.91.5,9.89,9.89,0,0,1-8.55-4.56,15.68,15.68,0,0,1-2-5,27.66,27.66,0,0,1-.66-6.24ZM390.48,149a14.72,14.72,0,0,0,6.67-3.55,19.06,19.06,0,0,0,2.24-2.68l-2.68-2a12.4,12.4,0,0,1-4.71,3.91,13.33,13.33,0,0,1-6,1.24,12.23,12.23,0,0,1-5.37-1.16,13,13,0,0,1-4.13-3.27,14.54,14.54,0,0,1-2.68-4.78,18,18,0,0,1-.94-5.94V130h27.32v-2.61a24.27,24.27,0,0,0-1-7,15.76,15.76,0,0,0-2.9-5.58,14,14,0,0,0-4.79-3.63,15.19,15.19,0,0,0-6.45-1.3,14.27,14.27,0,0,0-6.23,1.38,16.88,16.88,0,0,0-5.22,3.91,18.21,18.21,0,0,0-3.62,6.09,23.4,23.4,0,0,0-1.31,8.05v1.52A21.13,21.13,0,0,0,370,138.3a16.89,16.89,0,0,0,3.55,5.94,15.06,15.06,0,0,0,5.44,3.84,16.49,16.49,0,0,0,6.88,1.45,18.17,18.17,0,0,0,4.64-.58Zm-.73-34.5a11.6,11.6,0,0,1,3.41,2.75,12.85,12.85,0,0,1,2,4,16.66,16.66,0,0,1,.8,4.71v.44H373a19.8,19.8,0,0,1,1.38-5.3,13.13,13.13,0,0,1,2.54-4.05,12.83,12.83,0,0,1,3.62-2.69,11.55,11.55,0,0,1,4.49-.87,10.71,10.71,0,0,1,4.71,1Zm54.09-4.2a6.8,6.8,0,0,0-1.23-.29,10.82,10.82,0,0,0-1.59-.15,11,11,0,0,0-6.53,1.81,13.07,13.07,0,0,0-4.27,5l-.07-6.08H426V148.8h4.21V122.49a18.12,18.12,0,0,1,1.45-3.47,10.08,10.08,0,0,1,2.24-2.69,9.42,9.42,0,0,1,3-1.81,11.17,11.17,0,0,1,3.91-.65,16.67,16.67,0,0,1,2.83.22Zm26,38.7a14.72,14.72,0,0,0,6.67-3.55,19.86,19.86,0,0,0,2.25-2.68l-2.69-2a12.4,12.4,0,0,1-4.71,3.91,13.33,13.33,0,0,1-6,1.24,12.23,12.23,0,0,1-5.37-1.16,13,13,0,0,1-4.13-3.27,14.54,14.54,0,0,1-2.68-4.78,18,18,0,0,1-.94-5.94V130h27.32v-2.61a24.27,24.27,0,0,0-1-7,15.76,15.76,0,0,0-2.9-5.58,14.09,14.09,0,0,0-4.78-3.63,15.27,15.27,0,0,0-6.46-1.3,14.27,14.27,0,0,0-6.23,1.38A16.88,16.88,0,0,0,453,115.1a18.21,18.21,0,0,0-3.62,6.09,23.4,23.4,0,0,0-1.31,8.05v1.52a21.13,21.13,0,0,0,1.31,7.54,17,17,0,0,0,3.55,5.94,15.06,15.06,0,0,0,5.44,3.84,16.52,16.52,0,0,0,6.88,1.45,18.17,18.17,0,0,0,4.64-.58Zm-.72-34.5a11.68,11.68,0,0,1,3.4,2.75,12.85,12.85,0,0,1,2,4,16.66,16.66,0,0,1,.8,4.71v.44h-23a19.8,19.8,0,0,1,1.38-5.3,13.13,13.13,0,0,1,2.54-4.05,12.83,12.83,0,0,1,3.62-2.69,11.55,11.55,0,0,1,4.49-.87,10.79,10.79,0,0,1,4.72,1Zm27.21,30.22a12.3,12.3,0,0,1-3.77-3.4,15.63,15.63,0,0,1-2-5,26,26,0,0,1-.65-5.88V129a26.43,26.43,0,0,1,.65-5.88,13.72,13.72,0,0,1,2.11-4.92,10.61,10.61,0,0,1,3.69-3.48,11.94,11.94,0,0,1,5.58-1.24,12.39,12.39,0,0,1,4.06.66,11.12,11.12,0,0,1,3.34,2,10.05,10.05,0,0,1,2.32,3.11,10.81,10.81,0,0,1,.94,4.21h4.13a17,17,0,0,0-1.31-5.66,13.48,13.48,0,0,0-3.18-4.27,13.2,13.2,0,0,0-4.57-2.76,17.84,17.84,0,0,0-12.76.51,14.91,14.91,0,0,0-5.14,4.06,18.47,18.47,0,0,0-3.12,6.09,27.55,27.55,0,0,0-1,7.54v1.44a27.93,27.93,0,0,0,1,7.54,18.47,18.47,0,0,0,3.12,6.09,14.56,14.56,0,0,0,5.14,4,15.52,15.52,0,0,0,7,1.52,17.65,17.65,0,0,0,5.58-.94,15.48,15.48,0,0,0,4.57-2.61,12.4,12.4,0,0,0,3.26-4,12.87,12.87,0,0,0,1.38-5h-4.13a9.08,9.08,0,0,1-1,3.84,9.24,9.24,0,0,1-5.72,4.5,11.82,11.82,0,0,1-3.92.58,11.15,11.15,0,0,1-5.58-1.24Zm32.94-50.23h-4.2V148.8h4.2V122.57a16.55,16.55,0,0,1,1.67-3.34,12,12,0,0,1,2.39-3,12.54,12.54,0,0,1,3.26-2,10.75,10.75,0,0,1,4.14-.72,12.6,12.6,0,0,1,3.77.5,6.27,6.27,0,0,1,2.82,1.67,8.48,8.48,0,0,1,1.81,3.19,16.24,16.24,0,0,1,.66,5V148.8H554V123.87a21,21,0,0,0-.87-6.45,12,12,0,0,0-2.39-4.35,9,9,0,0,0-3.84-2.46,14.25,14.25,0,0,0-5.15-.8,13,13,0,0,0-3.84.51,12.84,12.84,0,0,0-3.41,1.45,14.85,14.85,0,0,0-2.9,2.24,15.86,15.86,0,0,0-2.32,3Zm64.26,54.36v-.43a12,12,0,0,1-.51-1.59c-.15-.58-.22-1.24-.36-1.89s-.15-1.3-.22-2-.07-1.38-.07-2V122.28a13.78,13.78,0,0,0-1-5.44,10.6,10.6,0,0,0-2.9-3.91,12.29,12.29,0,0,0-4.35-2.32,20,20,0,0,0-11.67.14,16.6,16.6,0,0,0-4.64,2.54,12,12,0,0,0-3,3.62,8.39,8.39,0,0,0-1,4.13l4.2.08a6.37,6.37,0,0,1,.8-3.05,8.28,8.28,0,0,1,2.1-2.46,10,10,0,0,1,3.26-1.6,12.39,12.39,0,0,1,4.06-.65c3.26,0,5.73.8,7.39,2.39a8.36,8.36,0,0,1,2.54,6.45v4.35h-7.83a31.79,31.79,0,0,0-7.32.8,16.81,16.81,0,0,0-5.51,2.47,10,10,0,0,0-4.63,8.84,10.45,10.45,0,0,0,.87,4.27,10.11,10.11,0,0,0,2.46,3.48,11.63,11.63,0,0,0,3.91,2.32,16.2,16.2,0,0,0,5.08.8,19,19,0,0,0,4.2-.51,23,23,0,0,0,3.63-1.3,13.36,13.36,0,0,0,2.89-2,11.19,11.19,0,0,0,2.25-2.32c.07,1,.15,2,.29,3a9.73,9.73,0,0,0,.58,2.39Zm-21.39-3.62a8.67,8.67,0,0,1-2.75-1.59,6.16,6.16,0,0,1-1.67-2.4,6.58,6.58,0,0,1-.65-2.89,7.23,7.23,0,0,1,.94-3.56,7.57,7.57,0,0,1,2.76-2.68,13.58,13.58,0,0,1,4.35-1.67,23.61,23.61,0,0,1,5.79-.57h7.25v8.4a13.06,13.06,0,0,1-1.88,3,15.11,15.11,0,0,1-2.76,2.4,14.12,14.12,0,0,1-3.55,1.59,16.08,16.08,0,0,1-4.27.58,10.84,10.84,0,0,1-3.56-.58Zm51,3.77a14.72,14.72,0,0,0,6.67-3.55,19.86,19.86,0,0,0,2.25-2.68l-2.68-2a12.5,12.5,0,0,1-4.72,3.91,13.33,13.33,0,0,1-6,1.24,12.23,12.23,0,0,1-5.37-1.16,13,13,0,0,1-4.13-3.27,14.54,14.54,0,0,1-2.68-4.78,18,18,0,0,1-.94-5.94V130h27.32v-2.61a24.27,24.27,0,0,0-1-7,15.76,15.76,0,0,0-2.9-5.58,14,14,0,0,0-4.78-3.63,15.25,15.25,0,0,0-6.45-1.3,14.28,14.28,0,0,0-6.24,1.38,17.11,17.11,0,0,0-5.22,3.91,18.21,18.21,0,0,0-3.62,6.09,23.4,23.4,0,0,0-1.3,8.05v1.52a21.13,21.13,0,0,0,1.3,7.54,17,17,0,0,0,3.55,5.94,15.14,15.14,0,0,0,5.44,3.84,16.52,16.52,0,0,0,6.88,1.45,18.17,18.17,0,0,0,4.64-.58Zm-.72-34.5a11.68,11.68,0,0,1,3.4,2.75,12.85,12.85,0,0,1,2,4,16.66,16.66,0,0,1,.8,4.71v.44h-23A19.8,19.8,0,0,1,607,121a13.13,13.13,0,0,1,2.54-4.05,13,13,0,0,1,3.62-2.69,11.57,11.57,0,0,1,4.5-.87,10.78,10.78,0,0,1,4.71,1Zm36.49-4.2a6.8,6.8,0,0,0-1.23-.29,10.82,10.82,0,0,0-1.6-.15,11,11,0,0,0-6.52,1.81,13.18,13.18,0,0,0-4.28,5l-.07-6.08h-4.13V148.8h4.2V122.49a18.78,18.78,0,0,1,1.45-3.47,10.11,10.11,0,0,1,2.25-2.69,9.42,9.42,0,0,1,3-1.81,11.13,11.13,0,0,1,3.91-.65,16.76,16.76,0,0,1,2.83.22ZM663.73,130a26.9,26.9,0,0,0,1,7.9,17.82,17.82,0,0,0,2.9,6.16,14.15,14.15,0,0,0,4.64,4,13.12,13.12,0,0,0,6.16,1.45,15.31,15.31,0,0,0,7-1.52,13.29,13.29,0,0,0,4.78-4.13v4.42a16.25,16.25,0,0,1-.72,5.14,9.93,9.93,0,0,1-2.25,3.77,8.91,8.91,0,0,1-3.55,2.47,14,14,0,0,1-4.79.79,12.53,12.53,0,0,1-5.72-1.3,16.44,16.44,0,0,1-5-4.2l-2.32,2.53a12.54,12.54,0,0,0,2.68,2.9,19.12,19.12,0,0,0,3.33,2,21.26,21.26,0,0,0,3.63,1.23,15.94,15.94,0,0,0,3.69.37,17.55,17.55,0,0,0,6.31-1.09,13.76,13.76,0,0,0,4.86-3.12,14.46,14.46,0,0,0,3-5,19.29,19.29,0,0,0,1.16-6.67V110.54h-4l-.21,5.5a13.92,13.92,0,0,0-4.86-4.56,15.21,15.21,0,0,0-13.26-.29,13.9,13.9,0,0,0-4.64,3.91,17.82,17.82,0,0,0-2.9,6.16,27.63,27.63,0,0,0-1,8Zm4.28-.72a28.72,28.72,0,0,1,.65-6.24,15.91,15.91,0,0,1,2-5,9.75,9.75,0,0,1,3.55-3.33,9.43,9.43,0,0,1,5.08-1.23,13.48,13.48,0,0,1,4.06.58,11.44,11.44,0,0,1,3.11,1.66,11.79,11.79,0,0,1,2.25,2.4,12.34,12.34,0,0,1,1.52,2.89V138.8a13.17,13.17,0,0,1-1.67,2.83,9.36,9.36,0,0,1-2.32,2.17,11.27,11.27,0,0,1-3.11,1.53,13.26,13.26,0,0,1-3.92.5,9.89,9.89,0,0,1-8.55-4.56,15.91,15.91,0,0,1-2-5A28.26,28.26,0,0,1,668,130ZM725.08,149a12.33,12.33,0,0,0,3.77-1.45,12.13,12.13,0,0,0,2.9-2.1,19.15,19.15,0,0,0,2.25-2.68l-2.68-2a12.47,12.47,0,0,1-4.71,3.91,13.35,13.35,0,0,1-6,1.24,12.15,12.15,0,0,1-5.36-1.16,12.84,12.84,0,0,1-4.13-3.27,14.74,14.74,0,0,1-2.69-4.78,18,18,0,0,1-.94-5.94V130H734.8v-2.61a24.26,24.26,0,0,0-1-7,15.6,15.6,0,0,0-2.9-5.58,14,14,0,0,0-4.78-3.63,15.25,15.25,0,0,0-6.45-1.3,14.21,14.21,0,0,0-6.23,1.38,16.88,16.88,0,0,0-5.22,3.91,18.07,18.07,0,0,0-3.63,6.09,23.4,23.4,0,0,0-1.3,8.05v1.52a21.13,21.13,0,0,0,1.3,7.54,17,17,0,0,0,3.55,5.94,15.23,15.23,0,0,0,5.44,3.84,16.53,16.53,0,0,0,6.89,1.45,18,18,0,0,0,4.63-.58Zm-.72-34.5a11.73,11.73,0,0,1,3.41,2.75,13.07,13.07,0,0,1,2,4,17,17,0,0,1,.79,4.71v.44h-23A19.43,19.43,0,0,1,709,121a13.51,13.51,0,0,1,2.54-4.05,13,13,0,0,1,3.62-2.69,11.57,11.57,0,0,1,4.5-.87,10.78,10.78,0,0,1,4.71,1Zm47.37,34.35v-.43a12,12,0,0,1-.51-1.59c-.15-.58-.22-1.24-.36-1.89s-.15-1.3-.22-2-.07-1.38-.07-2V122.28a13.78,13.78,0,0,0-1-5.44,10.6,10.6,0,0,0-2.9-3.91,12.29,12.29,0,0,0-4.35-2.32,20,20,0,0,0-11.67.14,16.6,16.6,0,0,0-4.64,2.54,12,12,0,0,0-3,3.62,8.39,8.39,0,0,0-1,4.13l4.2.08a6.37,6.37,0,0,1,.8-3.05,8.28,8.28,0,0,1,2.1-2.46,10,10,0,0,1,3.26-1.6,12.39,12.39,0,0,1,4.06-.65q4.89,0,7.4,2.39a8.39,8.39,0,0,1,2.53,6.45v4.35h-7.83a31.79,31.79,0,0,0-7.32.8,16.81,16.81,0,0,0-5.51,2.47,10,10,0,0,0-4.63,8.84,10.45,10.45,0,0,0,.87,4.27,10.11,10.11,0,0,0,2.46,3.48,11.63,11.63,0,0,0,3.91,2.32,16.2,16.2,0,0,0,5.08.8,19,19,0,0,0,4.2-.51,23,23,0,0,0,3.63-1.3,13.67,13.67,0,0,0,2.9-2,11.4,11.4,0,0,0,2.24-2.32c.07,1,.15,2,.29,3a9.73,9.73,0,0,0,.58,2.39Zm-21.39-3.62a8.67,8.67,0,0,1-2.75-1.59,6.16,6.16,0,0,1-1.67-2.4,6.58,6.58,0,0,1-.65-2.89,7.23,7.23,0,0,1,.94-3.56,7.57,7.57,0,0,1,2.76-2.68,13.58,13.58,0,0,1,4.35-1.67,23.61,23.61,0,0,1,5.79-.57h7.25v8.4a13.06,13.06,0,0,1-1.88,3,15.11,15.11,0,0,1-2.76,2.4,14.12,14.12,0,0,1-3.55,1.59,16.08,16.08,0,0,1-4.27.58,10.84,10.84,0,0,1-3.56-.58Zm62.3-15.87a30.78,30.78,0,0,0-.94-8,18.19,18.19,0,0,0-2.9-6.16,13.12,13.12,0,0,0-4.57-3.91,13.38,13.38,0,0,0-6.23-1.38,13.59,13.59,0,0,0-7.11,1.67A13.32,13.32,0,0,0,786,116V94.44h-4.21V148.8h3.92l.22-5.21a14.11,14.11,0,0,0,4.85,4.35,16,16,0,0,0,7.25,1.59,13.12,13.12,0,0,0,6.16-1.45,14.25,14.25,0,0,0,4.64-4,19.53,19.53,0,0,0,2.83-6.16,30,30,0,0,0,.94-7.9Zm-4.2.72a27.66,27.66,0,0,1-.66,6.24,15.68,15.68,0,0,1-2,5,9.65,9.65,0,0,1-8.48,4.56,13.27,13.27,0,0,1-4-.58,10.71,10.71,0,0,1-3.19-1.52,10.07,10.07,0,0,1-2.39-2.25,15.9,15.9,0,0,1-1.67-2.89V121.33a15.32,15.32,0,0,1,1.45-2.89,10.75,10.75,0,0,1,2.32-2.54,10.06,10.06,0,0,1,3.19-1.74,12.07,12.07,0,0,1,4.2-.65,9.37,9.37,0,0,1,5.07,1.23,9.86,9.86,0,0,1,3.56,3.33,15.63,15.63,0,0,1,1.95,5,28.1,28.1,0,0,1,.66,6.24Zm18.29-35.59h-4.27V148.8h4.27ZM857.67,149a12.53,12.53,0,0,0,3.77-1.45,12.27,12.27,0,0,0,2.89-2.1,19.15,19.15,0,0,0,2.25-2.68l-2.68-2a12.47,12.47,0,0,1-4.71,3.91,13.35,13.35,0,0,1-6,1.24,12.21,12.21,0,0,1-5.36-1.16,12.84,12.84,0,0,1-4.13-3.27A14.54,14.54,0,0,1,841,136.7a17.7,17.7,0,0,1-1-5.94V130h27.33v-2.61a23.93,23.93,0,0,0-1-7,15.6,15.6,0,0,0-2.9-5.58,13.89,13.89,0,0,0-4.78-3.63,15.22,15.22,0,0,0-6.45-1.3,14.24,14.24,0,0,0-6.23,1.38,16.88,16.88,0,0,0-5.22,3.91,18.23,18.23,0,0,0-3.63,6.09,23.4,23.4,0,0,0-1.3,8.05v1.52a21.13,21.13,0,0,0,1.3,7.54,16.91,16.91,0,0,0,3.56,5.94,15.11,15.11,0,0,0,5.43,3.84,16.53,16.53,0,0,0,6.89,1.45,18.17,18.17,0,0,0,4.64-.58Zm-.73-34.5a11.6,11.6,0,0,1,3.41,2.75,13.07,13.07,0,0,1,2,4,17,17,0,0,1,.79,4.71v.44h-23a19.43,19.43,0,0,1,1.38-5.3,13.3,13.3,0,0,1,2.53-4.05,12.87,12.87,0,0,1,3.63-2.69,11.52,11.52,0,0,1,4.49-.87,10.78,10.78,0,0,1,4.71,1Z"></path><path class="cls-3" d="M232.29,906.93H869.75M938.34,283v533.1"></path><path d="M1019.25,571.14V567.2c0-2.78.69-4.92,2-6.37a6.8,6.8,0,0,1,5.5-2.2,7.6,7.6,0,0,1,5.67,2,9.4,9.4,0,0,1,0,11.52,6.66,6.66,0,0,1-5.15,2.08v5.27a10.41,10.41,0,0,0,8.28-3.64,15.51,15.51,0,0,0-.12-18.82,11.25,11.25,0,0,0-8.8-3.65,10.15,10.15,0,0,0-6.08,1.85,10.45,10.45,0,0,0-3.53,5.27,10.67,10.67,0,0,0-3.76-4.74A9.07,9.07,0,0,0,1008,554c-3.7,0-6.54,1.1-8.62,3.3s-3.07,5.27-3.07,9.15a13.17,13.17,0,0,0,3.24,9.09,10.53,10.53,0,0,0,8.11,3.59v-5.27a6.71,6.71,0,0,1-5.1-2,7.51,7.51,0,0,1-2-5.44c0-4.81,2.44-7.24,7.24-7.24a6.62,6.62,0,0,1,5.15,2.14,8.77,8.77,0,0,1,2,5.85v3.94Zm-5.5-50.8c-6,.06-10.31,1.16-13.15,3.25s-4.28,5.32-4.28,9.78,1.45,7.76,4.4,9.84,7.47,3.13,13.49,3.13h7c5.78-.06,10.13-1.16,13.08-3.3s4.34-5.33,4.34-9.73-1.5-7.76-4.46-9.84-7.52-3.13-13.66-3.13Zm8.16,5.21c4.28.06,7.47.76,9.44,2a7,7,0,0,1-.18,11.64c-2.14,1.27-5.38,2-9.84,2h-8.39c-4.17-.06-7.3-.7-9.33-1.91a6.33,6.33,0,0,1-3-5.85,6.41,6.41,0,0,1,3.07-5.91c2-1.27,5.21-1.91,9.67-1.91Z"></path><path d="M529.5,980.6h3.93c2.78.06,4.93.7,6.37,2a6.79,6.79,0,0,1,2.2,5.5,7.58,7.58,0,0,1-2,5.68,9.4,9.4,0,0,1-11.52,0,6.68,6.68,0,0,1-2.08-5.16h-5.27a10.39,10.39,0,0,0,3.65,8.28,15.48,15.48,0,0,0,18.81-.11,11.21,11.21,0,0,0,3.65-8.8,10.13,10.13,0,0,0-1.85-6.08,10.41,10.41,0,0,0-5.27-3.53,10.65,10.65,0,0,0,4.75-3.77,9,9,0,0,0,1.73-5.21c0-3.7-1.1-6.54-3.3-8.62s-5.26-3.07-9.14-3.07a13.13,13.13,0,0,0-9.09,3.24,10.48,10.48,0,0,0-3.59,8.11h5.27a6.67,6.67,0,0,1,2-5.1,7.51,7.51,0,0,1,5.45-2c4.8,0,7.23,2.43,7.23,7.24a6.62,6.62,0,0,1-2.14,5.15,8.77,8.77,0,0,1-5.85,2H529.5ZM574,958.26c-6.37.11-11.18,2.14-14.42,6.13s-4.86,9.79-4.86,17.37v2a18.21,18.21,0,0,0,3.7,11.69A11.7,11.7,0,0,0,568,1000a11.93,11.93,0,0,0,9.32-3.82c2.31-2.55,3.47-5.91,3.47-10.19a14.68,14.68,0,0,0-3.24-9.79,10.76,10.76,0,0,0-8.57-3.76,11.06,11.06,0,0,0-8.86,3.71c.35-4.23,1.74-7.47,4.17-9.85a13.87,13.87,0,0,1,9.73-3.59h1v-4.45Zm-.47,21.24a10.51,10.51,0,0,1,2,6.78,10.26,10.26,0,0,1-2,6.77,6.59,6.59,0,0,1-5.55,2.61,6.88,6.88,0,0,1-5.68-3.07,13.27,13.27,0,0,1-2.31-8.16v-1.91a8,8,0,0,1,3.12-4,8.41,8.41,0,0,1,5-1.62,6.62,6.62,0,0,1,5.44,2.6Z"></path><path class="cls-1" d="M669.32,307.55H428.64a4.36,4.36,0,0,1-4.36-4.35V289.74a4.36,4.36,0,0,1,4.36-4.35H669.32a4.36,4.36,0,0,1,4.37,4.35V303.2a4.36,4.36,0,0,1-4.37,4.35"></path><path class="cls-1" d="M866.06,770.14,828.43,330.27c-2.13-36.43-38.81-39.09-38.81-39.09H673.69L423.8,291H310s-36.67,2.65-38.81,39.09L233.59,770s-3.8,39.2,39,41.11H552.48l274.61.16c42.76-1.91,39-41.11,39-41.11M269.17,735.38l23.52-230.56s-4-31.05,37.11-30.47H769.85c41.08-.58,37.1,30.47,37.1,30.47l23.52,230.56Z"></path><path class="cls-4" d="M830.47,735.38,807,504.82s4-31.05-37.1-30.47h-440c-41.08-.58-37.11,30.47-37.11,30.47L269.17,735.38m-25.39,0H854.4M669.32,307.55H428.64a4.36,4.36,0,0,1-4.36-4.35V289.74a4.36,4.36,0,0,1,4.36-4.35H669.32a4.36,4.36,0,0,1,4.37,4.35V303.2a4.36,4.36,0,0,1-4.37,4.35ZM555.61,804.22l264.18.17c42.12-1.86,38.39-39.94,38.39-39.94L821.11,336.93c-2.09-35.42-38.23-38-38.23-38H674.25m-.56-7.77H789.62s36.68,2.66,38.81,39.09l37.63,439.87s3.79,39.2-39,41.11l-274.61-.16H272.55c-42.76-1.91-39-41.11-39-41.11l37.62-439.87C273.35,293.67,310,291,310,291H423.8m.46,7.75H316.76s-36.14,2.58-38.23,38L241.47,764.27s-3.74,38.1,38.38,40H555.61"></path></svg> 