<?xml version="1.0" encoding="UTF-8"?> <svg xmlns="http://www.w3.org/2000/svg" id="Livello_1" data-name="Livello 1" viewBox="0 0 1268.17 1000"><defs><style>.cls-1{fill:#fff;}.cls-2{fill:#231f20;}.cls-3,.cls-4{fill:none;stroke-width:0.25px;}.cls-3{stroke:#000;}.cls-4{stroke:#231f20;stroke-miterlimit:10;}</style></defs><title>Jacqueline large filo</title><rect class="cls-1" width="1268.17" height="1000"></rect><path class="cls-2" d="M602.54.65h-1.09L580.14,8.34V16.6l12.18-3.77V52.26h10.22Zm51.78.07H617.94V9h25.58L623.59,52.26h10.8L654.32,6.45ZM695.52,22a33.52,33.52,0,0,0-1.3-10,17.81,17.81,0,0,0-3.56-6.81,13.33,13.33,0,0,0-5.5-3.92A20.07,20.07,0,0,0,671,1.3a13.22,13.22,0,0,0-5.44,3.92A17.94,17.94,0,0,0,662,12a33.52,33.52,0,0,0-1.3,10V31a33.36,33.36,0,0,0,1.3,9.93,19.24,19.24,0,0,0,3.55,6.88A13.34,13.34,0,0,0,671,51.68a18.82,18.82,0,0,0,7.11,1.3,18.48,18.48,0,0,0,7.1-1.3,13.27,13.27,0,0,0,5.51-3.92,19.24,19.24,0,0,0,3.55-6.88A36,36,0,0,0,695.52,31ZM685.3,32.33a25.9,25.9,0,0,1-.51,5.79A11.33,11.33,0,0,1,683.42,42a5.24,5.24,0,0,1-2.25,2.1,7.46,7.46,0,0,1-6.09,0,5.24,5.24,0,0,1-2.25-2.1,11.28,11.28,0,0,1-1.44-3.85,32.42,32.42,0,0,1-.44-5.79V20.51a31.66,31.66,0,0,1,.44-5.72A10.57,10.57,0,0,1,672.76,11,6,6,0,0,1,675,8.92a7,7,0,0,1,3-.58,6.68,6.68,0,0,1,3.05.58,5.79,5.79,0,0,1,2.32,2.1,10.76,10.76,0,0,1,1.37,3.77,25.3,25.3,0,0,1,.51,5.72Zm24.31,11.88v8.56h.8a29.7,29.7,0,0,0,11.53-2A21.84,21.84,0,0,0,730.13,45a23.47,23.47,0,0,0,4.92-8.84,38.45,38.45,0,0,0,1.6-11.53V21a26.78,26.78,0,0,0-1.23-8.55,19.49,19.49,0,0,0-3.48-6.67,16.06,16.06,0,0,0-5.51-4.28A16.86,16.86,0,0,0,719.25,0a17.38,17.38,0,0,0-7.17,1.45,15.91,15.91,0,0,0-5.44,4,16.47,16.47,0,0,0-3.48,5.72,21.11,21.11,0,0,0-1.23,7.11,23.31,23.31,0,0,0,.94,6.88,16.56,16.56,0,0,0,2.9,5.44,14.71,14.71,0,0,0,4.71,3.69A15.44,15.44,0,0,0,717,35.59a11.94,11.94,0,0,0,5.07-1.09,13.82,13.82,0,0,0,4.2-2.83A15,15,0,0,1,725,37a10.29,10.29,0,0,1-3,3.91,14,14,0,0,1-4.86,2.47,26.42,26.42,0,0,1-6.74.79ZM716.21,27A7,7,0,0,1,714,24.93a8.36,8.36,0,0,1-1.37-3,15.35,15.35,0,0,1-.44-3.77,15,15,0,0,1,.44-3.62A9,9,0,0,1,714,11.31a6.23,6.23,0,0,1,2.18-2.18,5.34,5.34,0,0,1,3-.87,6.68,6.68,0,0,1,2.9.66,8.56,8.56,0,0,1,2.32,2,11.13,11.13,0,0,1,1.52,3.48,18.8,18.8,0,0,1,.51,4.79v4.2a8.48,8.48,0,0,1-2.68,3.12,7.42,7.42,0,0,1-4.28,1.23,6.84,6.84,0,0,1-3.26-.72Zm48.09-.95H744.36v8.19H764.3ZM806.74,22a33.52,33.52,0,0,0-1.3-10,17.81,17.81,0,0,0-3.56-6.81,13.33,13.33,0,0,0-5.5-3.92,20.07,20.07,0,0,0-14.21,0,13.22,13.22,0,0,0-5.44,3.92A17.94,17.94,0,0,0,773.18,12a33.52,33.52,0,0,0-1.3,10V31a33.36,33.36,0,0,0,1.3,9.93,19.24,19.24,0,0,0,3.55,6.88,13.34,13.34,0,0,0,5.51,3.92,18.81,18.81,0,0,0,7.1,1.3,18.53,18.53,0,0,0,7.11-1.3A13.34,13.34,0,0,0,802,47.76a19.24,19.24,0,0,0,3.55-6.88A36,36,0,0,0,806.74,31Zm-10.22,10.3a25.9,25.9,0,0,1-.51,5.79A11.33,11.33,0,0,1,794.64,42a5.24,5.24,0,0,1-2.25,2.1,7.46,7.46,0,0,1-6.09,0,5.24,5.24,0,0,1-2.25-2.1,11.48,11.48,0,0,1-1.45-3.85,32.53,32.53,0,0,1-.43-5.79V20.51a31.76,31.76,0,0,1,.43-5.72A10.76,10.76,0,0,1,784,11a6,6,0,0,1,2.25-2.1,7,7,0,0,1,3-.58,6.68,6.68,0,0,1,3.05.58,5.79,5.79,0,0,1,2.32,2.1A10.76,10.76,0,0,1,796,14.79a25.3,25.3,0,0,1,.51,5.72ZM843.88.72H833.52L812.06,34.65l.44,6.45h21.16V52.26h10.22V41.1h5.8V32.83h-5.8ZM832.94,15.87l.72-1.23V32.83H822.21Z"></path><path class="cls-2" d="M645,94.44h-4.28V148.8H645Zm40.13,54.36v-.43a13.92,13.92,0,0,1-.5-1.59c-.15-.58-.22-1.24-.37-1.89s-.14-1.3-.21-2a17.83,17.83,0,0,1-.08-2V122.28a13.79,13.79,0,0,0-1-5.44,10.6,10.6,0,0,0-2.9-3.91,12.29,12.29,0,0,0-4.35-2.32,20,20,0,0,0-11.67.14,16.6,16.6,0,0,0-4.64,2.54,12,12,0,0,0-3,3.62,8.39,8.39,0,0,0-1,4.13l4.2.08a6.37,6.37,0,0,1,.8-3.05,8.28,8.28,0,0,1,2.1-2.46,10,10,0,0,1,3.26-1.6,12.34,12.34,0,0,1,4.06-.65c3.26,0,5.73.8,7.39,2.39a8.36,8.36,0,0,1,2.54,6.45v4.35H672a31.79,31.79,0,0,0-7.32.8,16.81,16.81,0,0,0-5.51,2.47,10,10,0,0,0-4.63,8.84,10.61,10.61,0,0,0,.86,4.27,10,10,0,0,0,2.47,3.48,11.63,11.63,0,0,0,3.91,2.32,16.15,16.15,0,0,0,5.08.8A19,19,0,0,0,671,149a22.55,22.55,0,0,0,3.62-1.3,13.42,13.42,0,0,0,2.9-2,11.19,11.19,0,0,0,2.25-2.32c.07,1,.15,2,.29,3a9.73,9.73,0,0,0,.58,2.39Zm-21.38-3.62a8.67,8.67,0,0,1-2.75-1.59,6.16,6.16,0,0,1-1.67-2.4,6.58,6.58,0,0,1-.65-2.89,7.23,7.23,0,0,1,.94-3.56,7.57,7.57,0,0,1,2.76-2.68,13.52,13.52,0,0,1,4.34-1.67,23.75,23.75,0,0,1,5.8-.57h7.25v8.4a13.06,13.06,0,0,1-1.88,3,15.11,15.11,0,0,1-2.76,2.4,14.29,14.29,0,0,1-3.55,1.59,16.1,16.1,0,0,1-4.28.58,10.82,10.82,0,0,1-3.55-.58Zm49.32-34.93a6.8,6.8,0,0,0-1.23-.29,10.82,10.82,0,0,0-1.59-.15,11,11,0,0,0-6.53,1.81,13.07,13.07,0,0,0-4.27,5l-.08-6.08h-4.13V148.8h4.21V122.49a18.12,18.12,0,0,1,1.45-3.47,10.08,10.08,0,0,1,2.24-2.69,9.42,9.42,0,0,1,3.05-1.81,11.17,11.17,0,0,1,3.91-.65,16.67,16.67,0,0,1,2.83.22ZM717.93,130a27.25,27.25,0,0,0,1,7.9,18,18,0,0,0,2.9,6.16,14.25,14.25,0,0,0,4.64,4,13.12,13.12,0,0,0,6.16,1.45,15.31,15.31,0,0,0,7-1.52,13.2,13.2,0,0,0,4.78-4.13v4.42a16,16,0,0,1-.72,5.14,9.81,9.81,0,0,1-2.25,3.77,8.91,8.91,0,0,1-3.55,2.47,14,14,0,0,1-4.78.79,12.57,12.57,0,0,1-5.73-1.3,16.44,16.44,0,0,1-5-4.2l-2.32,2.53a13,13,0,0,0,2.68,2.9,19.58,19.58,0,0,0,3.34,2,21.15,21.15,0,0,0,3.62,1.23,16,16,0,0,0,3.7.37,17.49,17.49,0,0,0,6.3-1.09,13.67,13.67,0,0,0,4.86-3.12,14.46,14.46,0,0,0,3-5,19.06,19.06,0,0,0,1.16-6.67V110.54h-4l-.22,5.5a13.92,13.92,0,0,0-4.86-4.56,15.21,15.21,0,0,0-13.26-.29,14,14,0,0,0-4.64,3.91,18,18,0,0,0-2.9,6.16,28,28,0,0,0-1,8Zm4.27-.72a28.72,28.72,0,0,1,.65-6.24,15.91,15.91,0,0,1,2-5,9.86,9.86,0,0,1,3.56-3.33,9.37,9.37,0,0,1,5.07-1.23,13.48,13.48,0,0,1,4.06.58,11.5,11.5,0,0,1,3.12,1.66,12,12,0,0,1,2.24,2.4,12.34,12.34,0,0,1,1.52,2.89V138.8a13.56,13.56,0,0,1-1.66,2.83,9.53,9.53,0,0,1-2.32,2.17,11.33,11.33,0,0,1-3.12,1.53,13.2,13.2,0,0,1-3.91.5,9.92,9.92,0,0,1-8.56-4.56,15.91,15.91,0,0,1-2-5,28.26,28.26,0,0,1-.65-6.24ZM779.28,149A14.72,14.72,0,0,0,786,145.4a19.06,19.06,0,0,0,2.24-2.68l-2.68-2a12.47,12.47,0,0,1-4.71,3.91,13.35,13.35,0,0,1-6,1.24,12.21,12.21,0,0,1-5.36-1.16,13,13,0,0,1-4.13-3.27,14.54,14.54,0,0,1-2.68-4.78,17.7,17.7,0,0,1-1-5.94V130H789v-2.61a24.27,24.27,0,0,0-1-7,15.93,15.93,0,0,0-2.9-5.58,14,14,0,0,0-4.79-3.63,15.19,15.19,0,0,0-6.45-1.3,14.27,14.27,0,0,0-6.23,1.38,16.88,16.88,0,0,0-5.22,3.91,18.21,18.21,0,0,0-3.62,6.09,23.4,23.4,0,0,0-1.31,8.05v1.52a21.13,21.13,0,0,0,1.31,7.54,16.74,16.74,0,0,0,3.55,5.94,15.11,15.11,0,0,0,5.43,3.84,16.57,16.57,0,0,0,6.89,1.45,18.17,18.17,0,0,0,4.64-.58Zm-.73-34.5A11.6,11.6,0,0,1,782,117.2a13.07,13.07,0,0,1,2,4,17,17,0,0,1,.8,4.71v.44h-23a19.43,19.43,0,0,1,1.38-5.3,13.3,13.3,0,0,1,2.53-4.05,12.87,12.87,0,0,1,3.63-2.69,11.52,11.52,0,0,1,4.49-.87,10.74,10.74,0,0,1,4.71,1Z"></path><line class="cls-3" x1="394.13" y1="906.93" x2="1031.59" y2="906.93"></line><path d="M1181.08,571.14V567.2c.06-2.78.7-4.92,2-6.37a6.81,6.81,0,0,1,5.5-2.2,7.64,7.64,0,0,1,5.68,2,9.44,9.44,0,0,1,0,11.52,6.7,6.7,0,0,1-5.16,2.08v5.27a10.38,10.38,0,0,0,8.28-3.64,15.49,15.49,0,0,0-.11-18.82,11.25,11.25,0,0,0-8.8-3.65,10.13,10.13,0,0,0-6.08,1.85,10.53,10.53,0,0,0-3.54,5.27,10.53,10.53,0,0,0-3.76-4.74,9,9,0,0,0-5.21-1.74c-3.7,0-6.54,1.1-8.63,3.3s-3.06,5.27-3.06,9.15a13.17,13.17,0,0,0,3.24,9.09,10.51,10.51,0,0,0,8.1,3.59v-5.27a6.67,6.67,0,0,1-5.09-2,7.51,7.51,0,0,1-2-5.44c0-4.81,2.43-7.24,7.24-7.24a6.62,6.62,0,0,1,5.15,2.14,8.82,8.82,0,0,1,2,5.85v3.94Zm-5.5-50.8c-6,.06-10.3,1.16-13.14,3.25s-4.28,5.32-4.28,9.78,1.44,7.76,4.4,9.84,7.46,3.13,13.49,3.13h7c5.79-.06,10.13-1.16,13.09-3.3s4.34-5.33,4.34-9.73-1.51-7.76-4.46-9.84-7.53-3.13-13.66-3.13Zm8.17,5.21c4.28.06,7.46.76,9.43,2a7,7,0,0,1-.17,11.64c-2.14,1.27-5.38,2-9.84,2h-8.4c-4.17-.06-7.29-.7-9.32-1.91a6.31,6.31,0,0,1-3-5.85,6.39,6.39,0,0,1,3.07-5.91c2-1.27,5.21-1.91,9.67-1.91Z"></path><path d="M691.33,980.6h3.94c2.78.06,4.92.7,6.37,2a6.82,6.82,0,0,1,2.2,5.5,7.62,7.62,0,0,1-2,5.68,9.4,9.4,0,0,1-11.52,0,6.69,6.69,0,0,1-2.09-5.16H683a10.38,10.38,0,0,0,3.64,8.28,15.49,15.49,0,0,0,18.82-.11,11.25,11.25,0,0,0,3.65-8.8,10.07,10.07,0,0,0-1.86-6.08,10.38,10.38,0,0,0-5.26-3.53,10.62,10.62,0,0,0,4.74-3.77,9,9,0,0,0,1.74-5.21c0-3.7-1.1-6.54-3.3-8.62s-5.27-3.07-9.15-3.07a13.15,13.15,0,0,0-9.09,3.24,10.51,10.51,0,0,0-3.59,8.11h5.27a6.68,6.68,0,0,1,2-5.1,7.49,7.49,0,0,1,5.44-2c4.81,0,7.24,2.43,7.24,7.24a6.62,6.62,0,0,1-2.14,5.15,8.77,8.77,0,0,1-5.85,2h-3.94Zm44.54-22.34c-6.37.11-11.17,2.14-14.41,6.13s-4.87,9.79-4.87,17.37v2a18.22,18.22,0,0,0,3.71,11.69,11.68,11.68,0,0,0,9.55,4.52,11.9,11.9,0,0,0,9.32-3.82c2.32-2.55,3.48-5.91,3.48-10.19a14.64,14.64,0,0,0-3.25-9.79,10.74,10.74,0,0,0-8.56-3.76,11,11,0,0,0-8.86,3.71c.34-4.23,1.73-7.47,4.17-9.85a13.86,13.86,0,0,1,9.72-3.59h1v-4.45Zm-.46,21.24a10.51,10.51,0,0,1,2,6.78,10.26,10.26,0,0,1-2,6.77,6.6,6.6,0,0,1-5.56,2.61,6.85,6.85,0,0,1-5.67-3.07,13.2,13.2,0,0,1-2.32-8.16v-1.91a8,8,0,0,1,3.13-4,8.37,8.37,0,0,1,5-1.62,6.62,6.62,0,0,1,5.44,2.6Z"></path><path class="cls-3" d="M1100.19,283v533.1m-1030-4.4s102.63-68.22,218.94,0c0,0,102.63,19,102.63-30.33"></path><path class="cls-1" d="M1029.11,770.66,991.48,330.8c-2.13-36.44-38.81-39.1-38.81-39.1H836.74l-249.88-.16H473.08s-36.68,2.65-38.82,39.09L396.64,770.5s-3.79,39.2,39,41.11H715.53l274.61.16c42.76-1.91,39-41.11,39-41.11M432.23,735.9l23.52-230.56s-4-31,37.1-30.47H932.9c41.08-.58,37.1,30.47,37.1,30.47L993.52,735.9Z"></path><path class="cls-1" d="M831.18,306.34H590.49a4.35,4.35,0,0,1-4.36-4.34V288.54a4.36,4.36,0,0,1,4.36-4.36H831.18a4.37,4.37,0,0,1,4.36,4.36V302a4.36,4.36,0,0,1-4.36,4.34"></path><path class="cls-4" d="M993.52,735.38,970,504.82s4-31.05-37.1-30.47h-440c-41.08-.58-37.1,30.47-37.1,30.47L432.23,735.38m-25.4,0h610.62M832.37,307.55H591.69a4.36,4.36,0,0,1-4.36-4.35V289.74a4.36,4.36,0,0,1,4.36-4.35H832.37a4.36,4.36,0,0,1,4.37,4.35V303.2a4.36,4.36,0,0,1-4.37,4.35ZM718.66,804.22l264.18.17c42.13-1.86,38.39-39.94,38.39-39.94L984.17,336.93c-2.1-35.42-38.24-38-38.24-38H837.3m-.56-7.77H952.67s36.68,2.66,38.81,39.09l37.63,439.87s3.79,39.2-39,41.11l-274.61-.16H435.61c-42.76-1.91-39-41.11-39-41.11l37.62-439.87C436.4,293.67,473.08,291,473.08,291H586.86m.45,7.75H479.81s-36.13,2.58-38.23,38L404.52,764.27s-3.74,38.1,38.38,40H718.66"></path></svg> 