<?xml version="1.0" encoding="UTF-8"?> <svg xmlns="http://www.w3.org/2000/svg" id="Livello_1" data-name="Livello 1" viewBox="0 0 1268.17 1000"><defs><style>.cls-1{fill:#fff;}.cls-2{fill:#231f20;}.cls-3,.cls-4{fill:none;stroke-width:0.25px;}.cls-3{stroke:#000;}.cls-4{stroke:#231f20;stroke-miterlimit:10;}</style></defs><title>Jacqueline small</title><rect class="cls-1" width="1268.17" height="1000"></rect><path class="cls-2" d="M466.08.65H465L443.68,8.34V16.6l12.18-3.77V52.26h10.22Zm51.78.07H481.48V9h25.58L487.13,52.26h10.8L517.86,6.45ZM559.06,22a33.52,33.52,0,0,0-1.3-10,17.94,17.94,0,0,0-3.55-6.81A13.43,13.43,0,0,0,548.7,1.3,18.53,18.53,0,0,0,541.59,0a18.81,18.81,0,0,0-7.1,1.3,13.12,13.12,0,0,0-5.43,3.92A17.81,17.81,0,0,0,525.5,12a33.52,33.52,0,0,0-1.3,10V31a33.36,33.36,0,0,0,1.3,9.93,19.1,19.1,0,0,0,3.56,6.88,13.24,13.24,0,0,0,5.5,3.92,18.82,18.82,0,0,0,7.11,1.3,18.48,18.48,0,0,0,7.1-1.3,13.27,13.27,0,0,0,5.51-3.92,19.24,19.24,0,0,0,3.55-6.88A36,36,0,0,0,559.06,31Zm-10.22,10.3a26.58,26.58,0,0,1-.5,5.79A11.32,11.32,0,0,1,547,42a5.24,5.24,0,0,1-2.25,2.1,7.46,7.46,0,0,1-6.09,0,5.22,5.22,0,0,1-2.24-2.1,11.07,11.07,0,0,1-1.45-3.85,32.42,32.42,0,0,1-.44-5.79V20.51a31.66,31.66,0,0,1,.44-5.72A10.76,10.76,0,0,1,536.3,11a6.12,6.12,0,0,1,2.25-2.1,7,7,0,0,1,3-.58,6.68,6.68,0,0,1,3,.58A5.73,5.73,0,0,1,547,11a10.76,10.76,0,0,1,1.38,3.77,26,26,0,0,1,.5,5.72Zm24.31,11.88v8.56h.8a29.66,29.66,0,0,0,11.53-2A21.84,21.84,0,0,0,593.67,45a23.62,23.62,0,0,0,4.93-8.84,38.78,38.78,0,0,0,1.59-11.53V21A26.78,26.78,0,0,0,599,12.47a19.49,19.49,0,0,0-3.48-6.67A16.06,16.06,0,0,0,590,1.52,16.83,16.83,0,0,0,582.79,0a17.38,17.38,0,0,0-7.17,1.45,15.91,15.91,0,0,0-5.44,4,16.47,16.47,0,0,0-3.48,5.72,21.11,21.11,0,0,0-1.23,7.11,23.31,23.31,0,0,0,.94,6.88,16.56,16.56,0,0,0,2.9,5.44A14.71,14.71,0,0,0,574,34.28a15.44,15.44,0,0,0,6.53,1.31,11.94,11.94,0,0,0,5.07-1.09,13.86,13.86,0,0,0,4.21-2.83A15,15,0,0,1,588.52,37a10.2,10.2,0,0,1-3,3.91,14,14,0,0,1-4.86,2.47,26.36,26.36,0,0,1-6.74.79ZM579.75,27a7,7,0,0,1-2.25-2.11,8.36,8.36,0,0,1-1.37-3,15.35,15.35,0,0,1-.44-3.77,15,15,0,0,1,.44-3.62,9,9,0,0,1,1.37-3.19,6.23,6.23,0,0,1,2.18-2.18,5.34,5.34,0,0,1,3-.87,6.68,6.68,0,0,1,2.9.66,8.42,8.42,0,0,1,2.32,2,11.13,11.13,0,0,1,1.52,3.48,18.36,18.36,0,0,1,.51,4.79v4.2a8.48,8.48,0,0,1-2.68,3.12A7.42,7.42,0,0,1,583,27.76a6.84,6.84,0,0,1-3.26-.72Zm48.09-.95H607.9v8.19h19.94ZM670.28,22A33.52,33.52,0,0,0,669,12a17.94,17.94,0,0,0-3.55-6.81,13.43,13.43,0,0,0-5.51-3.92A18.53,18.53,0,0,0,652.81,0a18.77,18.77,0,0,0-7.1,1.3,13.22,13.22,0,0,0-5.44,3.92A17.94,17.94,0,0,0,636.72,12a33.52,33.52,0,0,0-1.3,10V31a33.36,33.36,0,0,0,1.3,9.93,19.24,19.24,0,0,0,3.55,6.88,13.34,13.34,0,0,0,5.51,3.92,18.82,18.82,0,0,0,7.11,1.3,18.48,18.48,0,0,0,7.1-1.3,13.27,13.27,0,0,0,5.51-3.92,19.24,19.24,0,0,0,3.55-6.88A36,36,0,0,0,670.28,31Zm-10.22,10.3a25.9,25.9,0,0,1-.51,5.79A11.33,11.33,0,0,1,658.18,42a5.24,5.24,0,0,1-2.25,2.1,7.46,7.46,0,0,1-6.09,0A5.22,5.22,0,0,1,647.6,42a11.07,11.07,0,0,1-1.45-3.85,32.42,32.42,0,0,1-.44-5.79V20.51a31.66,31.66,0,0,1,.44-5.72A10.76,10.76,0,0,1,647.52,11a6.12,6.12,0,0,1,2.25-2.1,7,7,0,0,1,3-.58,6.68,6.68,0,0,1,3.05.58,5.73,5.73,0,0,1,2.32,2.1,10.76,10.76,0,0,1,1.37,3.77,25.3,25.3,0,0,1,.51,5.72ZM702,.65H700.9L679.59,8.34V16.6l12.18-3.77V52.26H702Z"></path><path class="cls-2" d="M285.32,141.63a7.08,7.08,0,0,1-1.89,2.25,14.08,14.08,0,0,1-3.11,1.52,15.46,15.46,0,0,1-4.28.51,15.73,15.73,0,0,1-3.62-.37,10.87,10.87,0,0,1-3.41-1.3,7.44,7.44,0,0,1-2.54-2.39,7.6,7.6,0,0,1-1.16-3.77H261a9.75,9.75,0,0,0,1,4.27,10.91,10.91,0,0,0,2.9,3.7,14.14,14.14,0,0,0,4.64,2.54,22,22,0,0,0,6.45.94,20.78,20.78,0,0,0,5.87-.8,12.51,12.51,0,0,0,4.42-2.17,10.39,10.39,0,0,0,2.9-3.34,9.44,9.44,0,0,0,.95-4.34,9,9,0,0,0-.8-4.06A8.3,8.3,0,0,0,287,131.7a17.67,17.67,0,0,0-4.21-2.39,39.77,39.77,0,0,0-5.94-1.74,41.15,41.15,0,0,1-5.22-1.52,11.25,11.25,0,0,1-3.12-1.67,3.87,3.87,0,0,1-1.52-2,6,6,0,0,1-.43-2.32,5.71,5.71,0,0,1,.58-2.39,5.61,5.61,0,0,1,1.59-2.17,10,10,0,0,1,2.9-1.53,12.14,12.14,0,0,1,4.2-.58,12.36,12.36,0,0,1,4.21.66,9,9,0,0,1,3.11,1.74,7.16,7.16,0,0,1,2,2.53,6.74,6.74,0,0,1,.65,2.9H290a10.52,10.52,0,0,0-.94-4.56,11.37,11.37,0,0,0-2.76-3.63,14,14,0,0,0-4.49-2.39,18.68,18.68,0,0,0-5.95-.87,18.45,18.45,0,0,0-5.58.8,14.14,14.14,0,0,0-4.27,2.24,9.88,9.88,0,0,0-2.69,3.34,8.8,8.8,0,0,0-.94,4.06,9,9,0,0,0,.87,4.06,7.86,7.86,0,0,0,2.61,3,15.27,15.27,0,0,0,4.21,2.17,44,44,0,0,0,5.65,1.52,30.84,30.84,0,0,1,5.22,1.6,10.34,10.34,0,0,1,3.11,2,6.57,6.57,0,0,1,1.53,2.17,7,7,0,0,1,.43,2.39,5.36,5.36,0,0,1-.65,2.54Zm14.1-31.09V148.8h4.27V122.57a20.46,20.46,0,0,1,1.38-3.41,14.61,14.61,0,0,1,2.25-2.9,12.38,12.38,0,0,1,3.26-2,10.59,10.59,0,0,1,4.2-.72,13,13,0,0,1,3.84.5,7,7,0,0,1,2.9,1.6,7.14,7.14,0,0,1,2,3.12,15,15,0,0,1,.65,4.78V148.8h4.28V123.44a10.16,10.16,0,0,1,.87-3.41,13.72,13.72,0,0,1,2.17-3.19,12.54,12.54,0,0,1,3.48-2.39,10.46,10.46,0,0,1,4.64-.94,15,15,0,0,1,3.77.43,6.35,6.35,0,0,1,3,1.67,7.74,7.74,0,0,1,2,3.19,16.22,16.22,0,0,1,.65,5v25h4.21V123.87a20.73,20.73,0,0,0-.8-6.38,10.56,10.56,0,0,0-2.47-4.35,9.08,9.08,0,0,0-4-2.53,16.89,16.89,0,0,0-5.29-.8,16.1,16.1,0,0,0-4.28.58,14.48,14.48,0,0,0-3.62,1.52,13.44,13.44,0,0,0-3,2.39,17.4,17.4,0,0,0-2.17,2.9,10.1,10.1,0,0,0-4.28-5.65,14.31,14.31,0,0,0-7.25-1.74,13.55,13.55,0,0,0-3.91.51,13,13,0,0,0-3.41,1.37,10.49,10.49,0,0,0-2.82,2.18,14.61,14.61,0,0,0-2.25,2.9l-.14-6.23Zm93.07,38.26v-.43a16,16,0,0,1-.51-1.59c-.14-.58-.21-1.24-.36-1.89l-.22-2c-.07-.72-.07-1.38-.07-2V122.28a13.79,13.79,0,0,0-1-5.44,10.71,10.71,0,0,0-2.9-3.91,12.29,12.29,0,0,0-4.35-2.32,20,20,0,0,0-11.67.14,16.46,16.46,0,0,0-4.64,2.54,11.85,11.85,0,0,0-3,3.62,8.29,8.29,0,0,0-1,4.13l4.21.08a6.37,6.37,0,0,1,.8-3.05,8,8,0,0,1,2.1-2.46,9.93,9.93,0,0,1,3.26-1.6,12.34,12.34,0,0,1,4.06-.65q4.89,0,7.39,2.39a8.36,8.36,0,0,1,2.54,6.45v4.35H379.3a31.73,31.73,0,0,0-7.32.8,16.63,16.63,0,0,0-5.51,2.47,10,10,0,0,0-4.64,8.84,10.45,10.45,0,0,0,.87,4.27,10,10,0,0,0,2.47,3.48,11.53,11.53,0,0,0,3.91,2.32,16.09,16.09,0,0,0,5.07.8,19.11,19.11,0,0,0,4.21-.51,23.27,23.27,0,0,0,3.62-1.3,13.42,13.42,0,0,0,2.9-2,11.19,11.19,0,0,0,2.25-2.32c.07,1,.14,2,.29,3a9.3,9.3,0,0,0,.58,2.39Zm-21.38-3.62a8.61,8.61,0,0,1-2.76-1.59,6.24,6.24,0,0,1-1.66-2.4,6.44,6.44,0,0,1-.65-2.89,7.23,7.23,0,0,1,.94-3.56,7.61,7.61,0,0,1,2.75-2.68,13.58,13.58,0,0,1,4.35-1.67,23.7,23.7,0,0,1,5.8-.57h7.25v8.4a12.76,12.76,0,0,1-1.89,3,14.71,14.71,0,0,1-2.75,2.4,14.45,14.45,0,0,1-3.55,1.59,16.21,16.21,0,0,1-4.28.58,10.78,10.78,0,0,1-3.55-.58Zm36.27-50.74h-4.27V148.8h4.27Zm16.22,0h-4.27V148.8h4.27Zm46.86,15.81a6.59,6.59,0,0,0-1.23-.29,10.57,10.57,0,0,0-1.59-.15,11,11,0,0,0-6.53,1.81,13.16,13.16,0,0,0-4.27,5l-.07-6.08h-4.14V148.8h4.21V122.49a18.12,18.12,0,0,1,1.45-3.47,10.11,10.11,0,0,1,2.25-2.69,9.27,9.27,0,0,1,3-1.81,11.17,11.17,0,0,1,3.91-.65,16.67,16.67,0,0,1,2.83.22Zm26,38.7a14.72,14.72,0,0,0,6.67-3.55,19.86,19.86,0,0,0,2.25-2.68l-2.68-2a12.5,12.5,0,0,1-4.72,3.91,13.33,13.33,0,0,1-6,1.24,12.23,12.23,0,0,1-5.37-1.16,13,13,0,0,1-4.13-3.27,14.54,14.54,0,0,1-2.68-4.78,18,18,0,0,1-.94-5.94V130h27.32v-2.61a24.27,24.27,0,0,0-1-7,15.76,15.76,0,0,0-2.9-5.58,14,14,0,0,0-4.78-3.63,15.25,15.25,0,0,0-6.45-1.3,14.28,14.28,0,0,0-6.24,1.38,17.11,17.11,0,0,0-5.22,3.91,18.21,18.21,0,0,0-3.62,6.09,23.4,23.4,0,0,0-1.3,8.05v1.52a21.13,21.13,0,0,0,1.3,7.54,17,17,0,0,0,3.55,5.94,15.14,15.14,0,0,0,5.44,3.84,16.52,16.52,0,0,0,6.88,1.45,18.17,18.17,0,0,0,4.64-.58Zm-.72-34.5a11.68,11.68,0,0,1,3.4,2.75,12.85,12.85,0,0,1,2,4,16.66,16.66,0,0,1,.8,4.71v.44H479a19.8,19.8,0,0,1,1.38-5.3,13.13,13.13,0,0,1,2.54-4.05,13,13,0,0,1,3.62-2.69,11.57,11.57,0,0,1,4.5-.87,10.78,10.78,0,0,1,4.71,1ZM523,144.67a12.3,12.3,0,0,1-3.77-3.4,15.63,15.63,0,0,1-2-5,26,26,0,0,1-.65-5.88V129a26.43,26.43,0,0,1,.65-5.88,13.72,13.72,0,0,1,2.11-4.92,10.61,10.61,0,0,1,3.69-3.48,11.94,11.94,0,0,1,5.58-1.24,12.39,12.39,0,0,1,4.06.66,11.12,11.12,0,0,1,3.34,2,10.05,10.05,0,0,1,2.32,3.11,10.81,10.81,0,0,1,.94,4.21h4.13a17,17,0,0,0-1.3-5.66,13.66,13.66,0,0,0-3.19-4.27,13.2,13.2,0,0,0-4.57-2.76,17.84,17.84,0,0,0-12.76.51,14.91,14.91,0,0,0-5.14,4.06,18.66,18.66,0,0,0-3.12,6.09,27.55,27.55,0,0,0-1,7.54v1.44a27.93,27.93,0,0,0,1,7.54,18.66,18.66,0,0,0,3.12,6.09,14.56,14.56,0,0,0,5.14,4,15.52,15.52,0,0,0,7,1.52,17.6,17.6,0,0,0,5.58-.94,15.48,15.48,0,0,0,4.57-2.61,12.28,12.28,0,0,0,3.26-4,12.7,12.7,0,0,0,1.38-5h-4.13a9.08,9.08,0,0,1-1,3.84,9.24,9.24,0,0,1-5.72,4.5,11.78,11.78,0,0,1-3.92.58,11.15,11.15,0,0,1-5.58-1.24ZM555.9,94.44h-4.21V148.8h4.21V122.57a16,16,0,0,1,1.66-3.34,12,12,0,0,1,2.39-3,12.44,12.44,0,0,1,3.27-2,10.67,10.67,0,0,1,4.13-.72,12.6,12.6,0,0,1,3.77.5,6.21,6.21,0,0,1,2.82,1.67,8.48,8.48,0,0,1,1.81,3.19,16.24,16.24,0,0,1,.66,5V148.8h4.2V123.87a21,21,0,0,0-.87-6.45,12,12,0,0,0-2.39-4.35,9,9,0,0,0-3.84-2.46,14.22,14.22,0,0,0-5.15-.8,13,13,0,0,0-3.84.51,12.84,12.84,0,0,0-3.41,1.45,14.85,14.85,0,0,0-2.9,2.24,15.41,15.41,0,0,0-2.31,3Zm64.25,54.36v-.43a12,12,0,0,1-.51-1.59c-.15-.58-.22-1.24-.36-1.89s-.15-1.3-.22-2-.07-1.38-.07-2V122.28a13.78,13.78,0,0,0-1-5.44,10.6,10.6,0,0,0-2.9-3.91,12.29,12.29,0,0,0-4.35-2.32,20,20,0,0,0-11.67.14,16.4,16.4,0,0,0-4.63,2.54,11.89,11.89,0,0,0-3,3.62,8.39,8.39,0,0,0-1,4.13l4.2.08a6.37,6.37,0,0,1,.8-3.05,8.28,8.28,0,0,1,2.1-2.46,10,10,0,0,1,3.26-1.6,12.39,12.39,0,0,1,4.06-.65q4.89,0,7.4,2.39a8.39,8.39,0,0,1,2.53,6.45v4.35H607a31.79,31.79,0,0,0-7.32.8,16.66,16.66,0,0,0-5.5,2.47,10.54,10.54,0,0,0-3.48,3.76,10.68,10.68,0,0,0-1.16,5.08,10.45,10.45,0,0,0,.87,4.27,10.11,10.11,0,0,0,2.46,3.48,11.58,11.58,0,0,0,3.92,2.32,16.09,16.09,0,0,0,5.07.8A19,19,0,0,0,606,149a23,23,0,0,0,3.63-1.3,13.67,13.67,0,0,0,2.9-2,11.14,11.14,0,0,0,2.24-2.32c.08,1,.15,2,.29,3a9.73,9.73,0,0,0,.58,2.39Zm-21.39-3.62a8.67,8.67,0,0,1-2.75-1.59,6.38,6.38,0,0,1-1.67-2.4,6.58,6.58,0,0,1-.65-2.89,7.23,7.23,0,0,1,.94-3.56,7.72,7.72,0,0,1,2.76-2.68,13.58,13.58,0,0,1,4.35-1.67,23.61,23.61,0,0,1,5.79-.57h7.25v8.4a12.4,12.4,0,0,1-1.88,3,15.11,15.11,0,0,1-2.76,2.4,14.12,14.12,0,0,1-3.55,1.59,16.08,16.08,0,0,1-4.27.58,10.84,10.84,0,0,1-3.56-.58Zm51,3.77a14.72,14.72,0,0,0,6.67-3.55,19.15,19.15,0,0,0,2.25-2.68l-2.68-2a12.5,12.5,0,0,1-4.72,3.91,13.27,13.27,0,0,1-6,1.24,12.15,12.15,0,0,1-5.36-1.16,12.88,12.88,0,0,1-4.14-3.27,14.54,14.54,0,0,1-2.68-4.78,18,18,0,0,1-.94-5.94V130h27.33v-2.61a24.26,24.26,0,0,0-1-7,15.6,15.6,0,0,0-2.9-5.58,14,14,0,0,0-4.78-3.63,15.25,15.25,0,0,0-6.45-1.3,14.28,14.28,0,0,0-6.24,1.38,17.11,17.11,0,0,0-5.22,3.91,18.21,18.21,0,0,0-3.62,6.09,23.4,23.4,0,0,0-1.3,8.05v1.52a21.13,21.13,0,0,0,1.3,7.54,17,17,0,0,0,3.55,5.94,15.14,15.14,0,0,0,5.44,3.84,16.52,16.52,0,0,0,6.88,1.45,18.11,18.11,0,0,0,4.64-.58Zm-.72-34.5a11.55,11.55,0,0,1,3.4,2.75,12.85,12.85,0,0,1,2,4,16.66,16.66,0,0,1,.8,4.71v.44h-23a19.8,19.8,0,0,1,1.38-5.3A13.13,13.13,0,0,1,636.2,117a13,13,0,0,1,3.62-2.69,11.57,11.57,0,0,1,4.5-.87,10.78,10.78,0,0,1,4.71,1Zm36.49-4.2a6.8,6.8,0,0,0-1.23-.29,10.82,10.82,0,0,0-1.6-.15,11,11,0,0,0-6.52,1.81,13.18,13.18,0,0,0-4.28,5l-.07-6.08h-4.13V148.8h4.2V122.49a18.78,18.78,0,0,1,1.45-3.47,10.11,10.11,0,0,1,2.25-2.69,9.42,9.42,0,0,1,3-1.81,11.17,11.17,0,0,1,3.91-.65,16.76,16.76,0,0,1,2.83.22ZM690.35,130a26.9,26.9,0,0,0,1,7.9,17.82,17.82,0,0,0,2.9,6.16,14.15,14.15,0,0,0,4.64,4,13.12,13.12,0,0,0,6.16,1.45,15.31,15.31,0,0,0,7-1.52,13.29,13.29,0,0,0,4.78-4.13v4.42a16.25,16.25,0,0,1-.72,5.14,9.93,9.93,0,0,1-2.25,3.77,8.91,8.91,0,0,1-3.55,2.47,14,14,0,0,1-4.79.79,12.53,12.53,0,0,1-5.72-1.3,16.44,16.44,0,0,1-5-4.2l-2.32,2.53a12.76,12.76,0,0,0,2.68,2.9,19.12,19.12,0,0,0,3.33,2,21.26,21.26,0,0,0,3.63,1.23,15.94,15.94,0,0,0,3.69.37,17.55,17.55,0,0,0,6.31-1.09,13.76,13.76,0,0,0,4.86-3.12,14.46,14.46,0,0,0,3-5,19.06,19.06,0,0,0,1.16-6.67V110.54h-4L717,116a13.92,13.92,0,0,0-4.86-4.56,15.21,15.21,0,0,0-13.26-.29,13.9,13.9,0,0,0-4.64,3.91,17.82,17.82,0,0,0-2.9,6.16,27.63,27.63,0,0,0-1,8Zm4.28-.72a28.72,28.72,0,0,1,.65-6.24,15.91,15.91,0,0,1,2-5,9.75,9.75,0,0,1,3.55-3.33,9.43,9.43,0,0,1,5.08-1.23,13.48,13.48,0,0,1,4.06.58,11.44,11.44,0,0,1,3.11,1.66,11.79,11.79,0,0,1,2.25,2.4,12.34,12.34,0,0,1,1.52,2.89V138.8a13.17,13.17,0,0,1-1.67,2.83,9.32,9.32,0,0,1-2.31,2.17,11.47,11.47,0,0,1-3.12,1.53,13.26,13.26,0,0,1-3.92.5,9.89,9.89,0,0,1-8.55-4.56,15.91,15.91,0,0,1-2-5,28.26,28.26,0,0,1-.65-6.24ZM751.71,149a12.37,12.37,0,0,0,3.76-1.45,12.13,12.13,0,0,0,2.9-2.1,19.15,19.15,0,0,0,2.25-2.68l-2.68-2a12.47,12.47,0,0,1-4.71,3.91,13.35,13.35,0,0,1-6,1.24,12.15,12.15,0,0,1-5.36-1.16,12.84,12.84,0,0,1-4.13-3.27A14.74,14.74,0,0,1,735,136.7a18,18,0,0,1-.94-5.94V130h27.33v-2.61a23.93,23.93,0,0,0-1-7,15.6,15.6,0,0,0-2.9-5.58,14,14,0,0,0-4.78-3.63,15.22,15.22,0,0,0-6.45-1.3,14.21,14.21,0,0,0-6.23,1.38,16.88,16.88,0,0,0-5.22,3.91,18.23,18.23,0,0,0-3.63,6.09,23.4,23.4,0,0,0-1.3,8.05v1.52a21.13,21.13,0,0,0,1.3,7.54,17,17,0,0,0,3.55,5.94,15.23,15.23,0,0,0,5.44,3.84,16.53,16.53,0,0,0,6.89,1.45,18.17,18.17,0,0,0,4.64-.58Zm-.73-34.5a11.73,11.73,0,0,1,3.41,2.75,13.07,13.07,0,0,1,2,4,17,17,0,0,1,.79,4.71v.44h-23a19.43,19.43,0,0,1,1.37-5.3,13.51,13.51,0,0,1,2.54-4.05,12.87,12.87,0,0,1,3.63-2.69,11.48,11.48,0,0,1,4.49-.87,10.78,10.78,0,0,1,4.71,1Zm47.37,34.35v-.43a12,12,0,0,1-.51-1.59c-.15-.58-.22-1.24-.36-1.89s-.15-1.3-.22-2-.07-1.38-.07-2V122.28a13.78,13.78,0,0,0-1-5.44,10.6,10.6,0,0,0-2.9-3.91,12.29,12.29,0,0,0-4.35-2.32,20,20,0,0,0-11.67.14,16.4,16.4,0,0,0-4.63,2.54,11.89,11.89,0,0,0-3,3.62,8.39,8.39,0,0,0-1,4.13l4.2.08a6.37,6.37,0,0,1,.8-3.05,8.28,8.28,0,0,1,2.1-2.46A10,10,0,0,1,779,114a12.39,12.39,0,0,1,4.06-.65q4.89,0,7.4,2.39A8.39,8.39,0,0,1,793,122.2v4.35h-7.83a31.79,31.79,0,0,0-7.32.8,16.66,16.66,0,0,0-5.5,2.47,10.54,10.54,0,0,0-3.48,3.76,10.68,10.68,0,0,0-1.16,5.08,10.45,10.45,0,0,0,.87,4.27,10.11,10.11,0,0,0,2.46,3.48,11.63,11.63,0,0,0,3.91,2.32,16.2,16.2,0,0,0,5.08.8,19,19,0,0,0,4.2-.51,23,23,0,0,0,3.63-1.3,13.67,13.67,0,0,0,2.9-2,11.14,11.14,0,0,0,2.24-2.32c.08,1,.15,2,.29,3a9.73,9.73,0,0,0,.58,2.39ZM777,145.18a8.67,8.67,0,0,1-2.75-1.59,6.38,6.38,0,0,1-1.67-2.4,6.58,6.58,0,0,1-.65-2.89,7.23,7.23,0,0,1,.94-3.56,7.72,7.72,0,0,1,2.76-2.68,13.58,13.58,0,0,1,4.35-1.67,23.61,23.61,0,0,1,5.79-.57H793v8.4a12.4,12.4,0,0,1-1.88,3,15.11,15.11,0,0,1-2.76,2.4,14.12,14.12,0,0,1-3.55,1.59,16.08,16.08,0,0,1-4.27.58,10.84,10.84,0,0,1-3.56-.58Zm62.3-15.87a30.78,30.78,0,0,0-.94-8,18,18,0,0,0-2.9-6.16,13.12,13.12,0,0,0-4.57-3.91,13.38,13.38,0,0,0-6.23-1.38,13.53,13.53,0,0,0-7.1,1.67,13.27,13.27,0,0,0-4.86,4.56V94.44h-4.2V148.8h3.91l.22-5.21a14.11,14.11,0,0,0,4.85,4.35,16,16,0,0,0,7.25,1.59,13.12,13.12,0,0,0,6.16-1.45,14.25,14.25,0,0,0,4.64-4,19.31,19.31,0,0,0,2.83-6.16,30,30,0,0,0,.94-7.9Zm-4.2.72a27.66,27.66,0,0,1-.66,6.24,15.68,15.68,0,0,1-2,5,9.65,9.65,0,0,1-8.48,4.56,13.27,13.27,0,0,1-4-.58,10.83,10.83,0,0,1-3.19-1.52,10.07,10.07,0,0,1-2.39-2.25,15.9,15.9,0,0,1-1.67-2.89V121.33a15.32,15.32,0,0,1,1.45-2.89,10.75,10.75,0,0,1,2.32-2.54,10.17,10.17,0,0,1,3.19-1.74,12.07,12.07,0,0,1,4.2-.65,9.37,9.37,0,0,1,5.07,1.23,9.86,9.86,0,0,1,3.56,3.33,15.63,15.63,0,0,1,1.95,5,28.1,28.1,0,0,1,.66,6.24Zm18.29-35.59h-4.27V148.8h4.27ZM884.29,149a12.53,12.53,0,0,0,3.77-1.45,12.27,12.27,0,0,0,2.89-2.1,19.15,19.15,0,0,0,2.25-2.68l-2.68-2a12.47,12.47,0,0,1-4.71,3.91,13.35,13.35,0,0,1-6,1.24,12.21,12.21,0,0,1-5.36-1.16,12.84,12.84,0,0,1-4.13-3.27,14.54,14.54,0,0,1-2.68-4.78,17.7,17.7,0,0,1-1-5.94V130H894v-2.61a23.93,23.93,0,0,0-1-7,15.75,15.75,0,0,0-2.89-5.58,14,14,0,0,0-4.79-3.63,15.22,15.22,0,0,0-6.45-1.3,14.24,14.24,0,0,0-6.23,1.38,16.88,16.88,0,0,0-5.22,3.91,18.23,18.23,0,0,0-3.63,6.09,23.4,23.4,0,0,0-1.3,8.05v1.52a21.13,21.13,0,0,0,1.3,7.54,16.91,16.91,0,0,0,3.56,5.94,15.11,15.11,0,0,0,5.43,3.84,16.53,16.53,0,0,0,6.89,1.45,18.17,18.17,0,0,0,4.64-.58Zm-.73-34.5A11.6,11.6,0,0,1,887,117.2a13.07,13.07,0,0,1,2,4,17,17,0,0,1,.8,4.71v.44h-23a19.43,19.43,0,0,1,1.38-5.3,13.3,13.3,0,0,1,2.53-4.05,12.87,12.87,0,0,1,3.63-2.69,11.52,11.52,0,0,1,4.49-.87,10.78,10.78,0,0,1,4.71,1Z"></path><path class="cls-3" d="M382.93,906.93H794.38M907.56,461.1v355"></path><path d="M1003,640.8v20.67l-12-11c-5.56-5.21-10.42-7.75-14.47-7.75a10.34,10.34,0,0,0-8,3.3c-2,2.25-3,5.26-3,9.09,0,4.11,1.15,7.35,3.53,9.78a11.9,11.9,0,0,0,9.14,3.71v-5.27a8.58,8.58,0,0,1-6.19-2.15,8.2,8.2,0,0,1-2.2-6.07,6.91,6.91,0,0,1,2.08-5.22,7.4,7.4,0,0,1,5.27-1.91,10,10,0,0,1,4.63,1.16,32.06,32.06,0,0,1,5.85,4.4l15.87,14.24h3.76v-27Zm-20-31.39c-6,.06-10.3,1.16-13.14,3.24s-4.28,5.33-4.28,9.78,1.44,7.76,4.4,9.85,7.46,3.12,13.49,3.12h7c5.79-.06,10.13-1.16,13.09-3.3s4.34-5.32,4.34-9.72-1.51-7.76-4.46-9.85-7.53-3.12-13.66-3.12Zm8.17,5.21c4.28.06,7.46.75,9.43,2a7,7,0,0,1-.17,11.63c-2.14,1.28-5.39,2-9.84,2h-8.4c-4.17-.06-7.29-.69-9.32-1.91a6.29,6.29,0,0,1-3-5.85,6.36,6.36,0,0,1,3.07-5.9c2-1.28,5.21-1.91,9.67-1.91Z"></path><path d="M563.49,995.14H542.82l11-12c5.21-5.56,7.75-10.42,7.75-14.47a10.34,10.34,0,0,0-3.3-8c-2.25-2-5.27-3-9.09-3-4.11,0-7.35,1.16-9.78,3.53a11.92,11.92,0,0,0-3.71,9.15H541a8.63,8.63,0,0,1,2.14-6.2,8.24,8.24,0,0,1,6.08-2.2,6.88,6.88,0,0,1,5.21,2.09,7.32,7.32,0,0,1,1.91,5.26,10,10,0,0,1-1.15,4.64,32.41,32.41,0,0,1-4.4,5.84l-14.25,15.87v3.76h27Zm13.16-14.54h3.94c2.78.06,4.92.7,6.37,2a6.82,6.82,0,0,1,2.2,5.5,7.62,7.62,0,0,1-2,5.68,9.4,9.4,0,0,1-11.52,0,6.68,6.68,0,0,1-2.08-5.16h-5.27a10.38,10.38,0,0,0,3.64,8.28,15.49,15.49,0,0,0,18.82-.11,11.25,11.25,0,0,0,3.65-8.8,10.13,10.13,0,0,0-1.85-6.08,10.41,10.41,0,0,0-5.27-3.53,10.62,10.62,0,0,0,4.74-3.77,9,9,0,0,0,1.74-5.21c0-3.7-1.1-6.54-3.3-8.62s-5.27-3.07-9.15-3.07a13.17,13.17,0,0,0-9.09,3.24,10.51,10.51,0,0,0-3.59,8.11h5.27a6.68,6.68,0,0,1,2-5.1,7.51,7.51,0,0,1,5.44-2c4.81,0,7.24,2.43,7.24,7.24a6.62,6.62,0,0,1-2.14,5.15,8.77,8.77,0,0,1-5.85,2h-3.94Z"></path><path class="cls-1" d="M791.91,784.07,767.73,493.2c-1.36-24.1-24.94-25.85-24.94-25.85H668.26l-160.6-.11H434.52S411,469,409.58,493.09L385.4,784s-2.44,25.92,25,27.18H590.37l176.5.11c27.48-1.26,25-27.18,25-27.18m-383.65-23,15.12-152.46s-2.56-20.54,23.86-20.15H730.07c26.41-.39,23.85,20.15,23.85,20.15L769,761.08Z"></path><path class="cls-4" d="M769,761.08,753.92,608.62s2.56-20.54-23.85-20.15H447.24c-26.42-.39-23.86,20.15-23.86,20.15L408.26,761.08m-16.31,0H784.42m-119-282.91H510.77a2.84,2.84,0,0,1-2.8-2.88v-8.9a2.84,2.84,0,0,1,2.8-2.88H665.46a2.84,2.84,0,0,1,2.8,2.88v8.9a2.84,2.84,0,0,1-2.8,2.88ZM592.38,806.61l169.8.1c27.08-1.22,24.67-26.41,24.67-26.41L763,497.59c-1.34-23.41-24.57-25.12-24.57-25.12H668.63m-.37-5.13h74.53s23.58,1.75,24.94,25.85l24.18,290.87s2.44,25.92-25,27.18l-176.5-.11H410.44c-27.48-1.26-25-27.18-25-27.18l24.18-290.87c1.37-24.1,24.94-25.85,24.94-25.85h73.14m.29,5.12H438.86s-23.23,1.71-24.58,25.12l-23.82,282.7s-2.4,25.2,24.67,26.43H592.38"></path></svg> 