<?xml version="1.0" encoding="UTF-8"?> <svg xmlns="http://www.w3.org/2000/svg" id="Livello_1" data-name="Livello 1" viewBox="0 0 789.33 1000.49"><defs><style>.cls-1{fill:#fff;}.cls-2{fill:#231f20;}.cls-3,.cls-4{fill:none;stroke-width:0.25px;}.cls-3{stroke:#000;}.cls-4{stroke:#231f20;stroke-miterlimit:10;}</style></defs><title>JeiJei wall small</title><rect class="cls-1" y="0.49" width="789.33" height="1000"></rect><path class="cls-2" d="M200.71,18a27.42,27.42,0,0,0-1.07-8.18,14.5,14.5,0,0,0-2.91-5.57,10.82,10.82,0,0,0-4.5-3.2A15.19,15.19,0,0,0,186.42,0a15.41,15.41,0,0,0-5.81,1.07,10.64,10.64,0,0,0-4.44,3.2,14.5,14.5,0,0,0-2.91,5.57A27.42,27.42,0,0,0,172.19,18v7.29a27.27,27.27,0,0,0,1.07,8.12,15.66,15.66,0,0,0,2.91,5.63,10.82,10.82,0,0,0,4.5,3.2,15.21,15.21,0,0,0,5.81,1.07,15,15,0,0,0,5.81-1.07,10.82,10.82,0,0,0,4.5-3.2,15.66,15.66,0,0,0,2.91-5.63,29.55,29.55,0,0,0,1-8.12Zm-8.36,8.42a21.41,21.41,0,0,1-.42,4.74,9.16,9.16,0,0,1-1.12,3.14A4.31,4.31,0,0,1,189,36a6.11,6.11,0,0,1-5,0,4.31,4.31,0,0,1-1.84-1.72A9.12,9.12,0,0,1,181,31.18a26.36,26.36,0,0,1-.36-4.74V16.78a25.77,25.77,0,0,1,.36-4.69A8.8,8.8,0,0,1,182.09,9a5.16,5.16,0,0,1,1.84-1.72,5.91,5.91,0,0,1,2.49-.47,5.57,5.57,0,0,1,2.49.47A4.86,4.86,0,0,1,190.81,9a8.8,8.8,0,0,1,1.12,3.08,20.93,20.93,0,0,1,.42,4.69Zm21.9-2.79c.29-.3.59-.53.94-.83a5.6,5.6,0,0,1,1.13-.77,9.66,9.66,0,0,1,1.54-.47,6.91,6.91,0,0,1,2-.24,8.21,8.21,0,0,1,3,.53A5.58,5.58,0,0,1,225,23.41a5.26,5.26,0,0,1,1.24,2.32,9.89,9.89,0,0,1,.42,3,16.25,16.25,0,0,1-.3,3.08,7.82,7.82,0,0,1-1.07,2.49A4.91,4.91,0,0,1,223.43,36a5.31,5.31,0,0,1-2.66.59,5.72,5.72,0,0,1-4.15-1.48A6,6,0,0,1,214.78,31h-8.3a12.2,12.2,0,0,0,1.31,5.22,11.93,11.93,0,0,0,3.2,3.85,13,13,0,0,0,4.5,2.43,17.66,17.66,0,0,0,5.28.83,15.64,15.64,0,0,0,6.28-1.18,12.47,12.47,0,0,0,7.11-7.59,17.16,17.16,0,0,0,.83-5.34,20.58,20.58,0,0,0-.83-6,12.61,12.61,0,0,0-2.55-4.45,11,11,0,0,0-4-2.79,14.26,14.26,0,0,0-5.45-.94c-.65,0-1.36.06-2,.11a16.35,16.35,0,0,0-1.83.42c-.54.18-1,.36-1.43.53a4.27,4.27,0,0,0-1.06.54l1-9.07h16.78v-7H210L207.55,22ZM268.69,18a27.42,27.42,0,0,0-1.07-8.18,14.63,14.63,0,0,0-2.9-5.57,10.92,10.92,0,0,0-4.51-3.2A15.15,15.15,0,0,0,254.4,0a15.41,15.41,0,0,0-5.81,1.07,10.64,10.64,0,0,0-4.44,3.2,14.5,14.5,0,0,0-2.91,5.57A27.44,27.44,0,0,0,240.18,18v7.29a27.3,27.3,0,0,0,1.06,8.12,15.66,15.66,0,0,0,2.91,5.63,10.82,10.82,0,0,0,4.5,3.2,15.21,15.21,0,0,0,5.81,1.07,15,15,0,0,0,5.81-1.07,10.92,10.92,0,0,0,4.51-3.2,15.81,15.81,0,0,0,2.9-5.63,29.55,29.55,0,0,0,1-8.12Zm-8.36,8.42a21.41,21.41,0,0,1-.42,4.74,9.16,9.16,0,0,1-1.12,3.14A4.31,4.31,0,0,1,257,36a6.11,6.11,0,0,1-5,0,4.31,4.31,0,0,1-1.84-1.72A9.12,9.12,0,0,1,249,31.18a26.36,26.36,0,0,1-.36-4.74V16.78a25.77,25.77,0,0,1,.36-4.69A9,9,0,0,1,250.07,9a5.16,5.16,0,0,1,1.84-1.72,5.91,5.91,0,0,1,2.49-.47,5.57,5.57,0,0,1,2.49.47A4.86,4.86,0,0,1,258.79,9a8.8,8.8,0,0,1,1.12,3.08,20.93,20.93,0,0,1,.42,4.69ZM294.62.53h-.89L276.3,6.82v6.75l10-3.08V42.74h8.36Zm30.31,20.81h-16.3V28h16.3Zm14.86,3.14h4.44a11,11,0,0,1,2.91.36A8.37,8.37,0,0,1,349.33,26a5.84,5.84,0,0,1,1.36,2,8.42,8.42,0,0,1,.48,2.9,6.19,6.19,0,0,1-.48,2.37A4,4,0,0,1,349.45,35a4.53,4.53,0,0,1-2,1.19,7.55,7.55,0,0,1-2.66.41,6.67,6.67,0,0,1-2.43-.41,5.26,5.26,0,0,1-2-1.13,5,5,0,0,1-1.3-1.66,5.11,5.11,0,0,1-.48-2.19h-8.36a11,11,0,0,0,1.25,5.39,11.32,11.32,0,0,0,3.26,3.8,14.3,14.3,0,0,0,4.56,2.25,20.06,20.06,0,0,0,5.28.71,21.24,21.24,0,0,0,5.93-.83,13.73,13.73,0,0,0,4.74-2.43,11.17,11.17,0,0,0,3.14-3.85,12.56,12.56,0,0,0,1.13-5.28,9.87,9.87,0,0,0-7.06-9.84,13.57,13.57,0,0,0,2.73-1.72,13.44,13.44,0,0,0,2-2.13,11.16,11.16,0,0,0,1.25-2.55,10.3,10.3,0,0,0,.41-2.67,12.25,12.25,0,0,0-1.06-5.21,10.52,10.52,0,0,0-2.91-3.74A13.31,13.31,0,0,0,350.4.77,22.43,22.43,0,0,0,344.59,0a17.85,17.85,0,0,0-5.4.83,14.62,14.62,0,0,0-4.38,2.31,11.72,11.72,0,0,0-3,3.62,10.51,10.51,0,0,0-1.06,4.74h8.36a4.33,4.33,0,0,1,.47-2,4.28,4.28,0,0,1,1.19-1.48,5,5,0,0,1,1.83-1,6.4,6.4,0,0,1,2.14-.35,6.75,6.75,0,0,1,2.55.41,4.49,4.49,0,0,1,1.77,1.13A4.2,4.2,0,0,1,350.16,10a6.1,6.1,0,0,1,.36,2.13A5.87,5.87,0,0,1,349,16.36a6.37,6.37,0,0,1-4.75,1.6h-4.44ZM393.64,18a27.42,27.42,0,0,0-1.07-8.18,14.5,14.5,0,0,0-2.91-5.57,10.82,10.82,0,0,0-4.5-3.2A15.19,15.19,0,0,0,379.35,0a15.41,15.41,0,0,0-5.81,1.07,10.64,10.64,0,0,0-4.44,3.2,14.5,14.5,0,0,0-2.91,5.57A27.42,27.42,0,0,0,365.12,18v7.29a27.27,27.27,0,0,0,1.07,8.12,15.66,15.66,0,0,0,2.91,5.63,10.82,10.82,0,0,0,4.5,3.2,15.21,15.21,0,0,0,5.81,1.07,15,15,0,0,0,5.81-1.07,10.82,10.82,0,0,0,4.5-3.2,15.66,15.66,0,0,0,2.91-5.63,29.55,29.55,0,0,0,1-8.12Zm-8.36,8.42a21.41,21.41,0,0,1-.42,4.74,9.16,9.16,0,0,1-1.12,3.14A4.31,4.31,0,0,1,381.9,36a6.11,6.11,0,0,1-5,0,4.31,4.31,0,0,1-1.84-1.72,9.12,9.12,0,0,1-1.18-3.14,26.36,26.36,0,0,1-.36-4.74V16.78a25.77,25.77,0,0,1,.36-4.69A8.8,8.8,0,0,1,375,9a5.16,5.16,0,0,1,1.84-1.72,5.91,5.91,0,0,1,2.49-.47,5.57,5.57,0,0,1,2.49.47A4.86,4.86,0,0,1,383.74,9a8.8,8.8,0,0,1,1.12,3.08,20.93,20.93,0,0,1,.42,4.69Z"></path><path class="cls-2" d="M235.27,115.83a5.71,5.71,0,0,1-1.54,1.83,11.22,11.22,0,0,1-2.55,1.25,12.46,12.46,0,0,1-3.5.41,12.69,12.69,0,0,1-3-.29,8.94,8.94,0,0,1-2.79-1.07,5.85,5.85,0,0,1-2.07-1.95,6.07,6.07,0,0,1-1-3.09h-3.5a8,8,0,0,0,.83,3.5,8.79,8.79,0,0,0,2.37,3,11.72,11.72,0,0,0,3.8,2.08,18.09,18.09,0,0,0,5.27.77,17.25,17.25,0,0,0,4.8-.65,10.39,10.39,0,0,0,3.62-1.78,8.57,8.57,0,0,0,2.37-2.73,7.88,7.88,0,0,0,.77-3.56,7.39,7.39,0,0,0-.65-3.31,6.74,6.74,0,0,0-2-2.55,14.37,14.37,0,0,0-3.44-2,31.93,31.93,0,0,0-4.86-1.42,32.47,32.47,0,0,1-4.26-1.25,9,9,0,0,1-2.55-1.36,3.16,3.16,0,0,1-1.25-1.6,5.06,5.06,0,0,1-.35-1.9,4.65,4.65,0,0,1,.47-2,4.57,4.57,0,0,1,1.3-1.78,8.11,8.11,0,0,1,2.38-1.25,9.91,9.91,0,0,1,3.43-.47,10.36,10.36,0,0,1,3.44.53,7.45,7.45,0,0,1,2.55,1.43,5.85,5.85,0,0,1,1.6,2.07,5.46,5.46,0,0,1,.53,2.37h3.44a8.48,8.48,0,0,0-.77-3.73,9.07,9.07,0,0,0-2.25-3,11.31,11.31,0,0,0-3.68-2,16.66,16.66,0,0,0-9.42-.06,11.47,11.47,0,0,0-3.5,1.83A8,8,0,0,0,217.25,95a7.26,7.26,0,0,0-.77,3.32,7.44,7.44,0,0,0,.71,3.32,6.42,6.42,0,0,0,2.13,2.43,12.78,12.78,0,0,0,3.44,1.78,37,37,0,0,0,4.63,1.24,24.63,24.63,0,0,1,4.26,1.31,8.47,8.47,0,0,1,2.55,1.6,5.43,5.43,0,0,1,1.25,1.78,5.82,5.82,0,0,1,.35,2,4.4,4.4,0,0,1-.53,2.08ZM246.8,90.4v31.3h3.5V100.24a15.94,15.94,0,0,1,1.12-2.79,12.31,12.31,0,0,1,1.84-2.37,10.29,10.29,0,0,1,2.67-1.66,8.79,8.79,0,0,1,3.44-.59,10.85,10.85,0,0,1,3.14.41,5.75,5.75,0,0,1,2.37,1.31,5.9,5.9,0,0,1,1.6,2.55A12.61,12.61,0,0,1,267,101V121.7h3.5V101a8.57,8.57,0,0,1,.71-2.79A11.37,11.37,0,0,1,273,95.55a10.05,10.05,0,0,1,2.84-2,8.6,8.6,0,0,1,3.8-.77,12.6,12.6,0,0,1,3.08.35,5.24,5.24,0,0,1,2.43,1.37,6.24,6.24,0,0,1,1.6,2.61,13,13,0,0,1,.53,4.09V121.7h3.44V101.3a17,17,0,0,0-.65-5.21,8.6,8.6,0,0,0-2-3.56,7.37,7.37,0,0,0-3.26-2.07,13.62,13.62,0,0,0-4.32-.65,13,13,0,0,0-3.5.47,12.24,12.24,0,0,0-3,1.24,11.18,11.18,0,0,0-2.43,2,13.12,13.12,0,0,0-1.78,2.37,8.27,8.27,0,0,0-3.5-4.62,11.7,11.7,0,0,0-5.93-1.42,10.92,10.92,0,0,0-3.2.41,10.4,10.4,0,0,0-2.78,1.13,8.65,8.65,0,0,0-2.32,1.77,12.24,12.24,0,0,0-1.83,2.38l-.12-5.1Zm76.12,31.3v-.36a11.82,11.82,0,0,1-.42-1.3c-.12-.48-.18-1-.29-1.55s-.12-1.06-.18-1.65a16,16,0,0,1-.06-1.66V100a11.32,11.32,0,0,0-.83-4.45,8.79,8.79,0,0,0-2.37-3.2,10.22,10.22,0,0,0-3.56-1.89,16.41,16.41,0,0,0-9.54.12,13.65,13.65,0,0,0-3.8,2.07,10,10,0,0,0-2.43,3,6.85,6.85,0,0,0-.83,3.38l3.44.06a5.25,5.25,0,0,1,.65-2.49,6.84,6.84,0,0,1,1.72-2,7.93,7.93,0,0,1,2.67-1.31,10.14,10.14,0,0,1,3.32-.53c2.67,0,4.68.65,6,2a6.82,6.82,0,0,1,2.07,5.27v3.56h-6.4a26.42,26.42,0,0,0-6,.65,13.5,13.5,0,0,0-4.5,2,8.82,8.82,0,0,0-3.09,10.72,8.33,8.33,0,0,0,2,2.85,9.71,9.71,0,0,0,3.2,1.9,13.42,13.42,0,0,0,4.15.65,15.5,15.5,0,0,0,3.44-.42,19.37,19.37,0,0,0,3-1.06,11.32,11.32,0,0,0,2.37-1.6,9.41,9.41,0,0,0,1.84-1.9c.06.83.12,1.6.24,2.43a7.94,7.94,0,0,0,.47,2Zm-17.49-3a6.92,6.92,0,0,1-2.25-1.3,5.12,5.12,0,0,1-1.37-2,5.41,5.41,0,0,1-.53-2.37,5.91,5.91,0,0,1,.77-2.9,6.25,6.25,0,0,1,2.25-2.2,11.07,11.07,0,0,1,3.56-1.36,18.93,18.93,0,0,1,4.74-.47h5.93V113a10.38,10.38,0,0,1-1.54,2.43,12,12,0,0,1-2.25,2,11.63,11.63,0,0,1-2.91,1.3,13,13,0,0,1-3.5.48,8.68,8.68,0,0,1-2.9-.48ZM335.1,77.24h-3.5V121.7h3.5Zm13.26,0h-3.5V121.7h3.5Z"></path><path class="cls-2" d="M212.7,158.21a21.93,21.93,0,0,0-8.89,1.66,17.17,17.17,0,0,0-6.28,4.86,21.45,21.45,0,0,0-3.74,7.53,35.59,35.59,0,0,0-1.24,9.78v3.74a17.65,17.65,0,0,0,.95,6,14.21,14.21,0,0,0,2.72,4.92,11.79,11.79,0,0,0,4.27,3.32,12.93,12.93,0,0,0,5.69,1.25,12.28,12.28,0,0,0,5.22-1.13,12.71,12.71,0,0,0,4-3,14.73,14.73,0,0,0,2.49-4.57,19.81,19.81,0,0,0,.83-5.69,17.28,17.28,0,0,0-.77-5.27,12.73,12.73,0,0,0-2.26-4.45,11.86,11.86,0,0,0-3.79-3,11.6,11.6,0,0,0-5.33-1.13,14.07,14.07,0,0,0-6,1.31,11,11,0,0,0-4.45,3.79,21.59,21.59,0,0,1,1.43-7,15.24,15.24,0,0,1,3.32-5.28,14.5,14.5,0,0,1,5.09-3.38,18.4,18.4,0,0,1,6.76-1.12h.53v-3Zm-2.61,18.61a8.13,8.13,0,0,1,2.85,2.44,10.84,10.84,0,0,1,1.78,3.49,16.35,16.35,0,0,1,.53,4.21,15.32,15.32,0,0,1-.59,4.39,11.49,11.49,0,0,1-1.78,3.61,9.4,9.4,0,0,1-2.91,2.43,7.69,7.69,0,0,1-3.79.89,9.8,9.8,0,0,1-4-.83A9.25,9.25,0,0,1,199,195a11.42,11.42,0,0,1-2.2-3.91,15.92,15.92,0,0,1-.77-5.22V183a7.73,7.73,0,0,1,1.37-2.79,10,10,0,0,1,2.31-2.19,10.67,10.67,0,0,1,3-1.48,10.5,10.5,0,0,1,3.32-.59,9,9,0,0,1,4.09.88Zm34.34-20.62h-3.5v44.45h3.5Zm13.26,13.16h-3.5v31.29h3.5Zm-3.5-7.41a2.55,2.55,0,0,0,1.78.65,2.39,2.39,0,0,0,1.72-.65,2.21,2.21,0,0,0,.65-1.66,2.1,2.1,0,0,0-.65-1.66,2.17,2.17,0,0,0-1.72-.71,2.31,2.31,0,0,0-1.78.71,2.29,2.29,0,0,0-.59,1.66,2.42,2.42,0,0,0,.59,1.66Zm11.49,23.35a22.22,22.22,0,0,0,.83,6.46,14.51,14.51,0,0,0,2.37,5,11.79,11.79,0,0,0,3.79,3.26,10.77,10.77,0,0,0,5,1.19,12.44,12.44,0,0,0,5.75-1.25,10.68,10.68,0,0,0,3.91-3.38v3.62a13,13,0,0,1-.59,4.21,8,8,0,0,1-1.84,3.08,7.33,7.33,0,0,1-2.9,2,11.39,11.39,0,0,1-3.91.65,10.26,10.26,0,0,1-4.68-1.07,13.48,13.48,0,0,1-4.1-3.44l-1.89,2.08a10.3,10.3,0,0,0,2.19,2.37,16.43,16.43,0,0,0,2.73,1.66,18.12,18.12,0,0,0,3,1,13.5,13.5,0,0,0,3,.29,14.11,14.11,0,0,0,5.16-.89,11,11,0,0,0,4-2.55,11.7,11.7,0,0,0,2.49-4.09,15.48,15.48,0,0,0,.95-5.45V169.36h-3.26l-.18,4.5a11.31,11.31,0,0,0-4-3.73,12.43,12.43,0,0,0-10.85-.24,11.6,11.6,0,0,0-3.79,3.2,14.51,14.51,0,0,0-2.37,5,22.79,22.79,0,0,0-.83,6.58Zm3.5-.59a22.94,22.94,0,0,1,.53-5.1,13,13,0,0,1,1.66-4.09,8.14,8.14,0,0,1,2.9-2.73,7.72,7.72,0,0,1,4.15-1,11,11,0,0,1,3.32.47,8.57,8.57,0,0,1,4.39,3.32,10,10,0,0,1,1.24,2.37v14.52a11,11,0,0,1-1.36,2.32,7.42,7.42,0,0,1-1.9,1.77,9.25,9.25,0,0,1-2.54,1.25,11,11,0,0,1-3.21.41,8,8,0,0,1-7-3.73,13,13,0,0,1-1.66-4.09,22.56,22.56,0,0,1-.53-5.1Zm34.17-28.51h-3.44v44.45h3.44V179.2a12.88,12.88,0,0,1,1.36-2.73,9.69,9.69,0,0,1,2-2.43,10.13,10.13,0,0,1,2.66-1.66,8.73,8.73,0,0,1,3.38-.59,10,10,0,0,1,3.08.41,5.22,5.22,0,0,1,2.32,1.36,7.21,7.21,0,0,1,1.48,2.61,13.63,13.63,0,0,1,.53,4.09v20.39h3.44V180.26a17.32,17.32,0,0,0-.71-5.27,9.78,9.78,0,0,0-2-3.56,7.26,7.26,0,0,0-3.14-2,11.49,11.49,0,0,0-4.21-.66,11.63,11.63,0,0,0-5.93,1.6,12.21,12.21,0,0,0-4.26,4.27Zm31,5.09v8.07h-5.75v2.84h5.75v20.87a12.36,12.36,0,0,0,.53,3.91,6.76,6.76,0,0,0,1.42,2.49,4.6,4.6,0,0,0,2.14,1.36,8.08,8.08,0,0,0,2.72.42c.71,0,1.37-.06,2.08-.12a9.76,9.76,0,0,0,1.66-.42l-.18-2.78c-.36.06-.83.12-1.3.17a11.89,11.89,0,0,1-1.49.06,7,7,0,0,1-1.54-.17,2.59,2.59,0,0,1-1.3-.71,3.51,3.51,0,0,1-.89-1.61,7.78,7.78,0,0,1-.36-2.6V172.2h6.46v-2.84h-6.46v-8.07Zm35.37,33.5a5.62,5.62,0,0,1-1.55,1.83,11.34,11.34,0,0,1-2.54,1.25,12.89,12.89,0,0,1-3.5.41,13.34,13.34,0,0,1-3-.29,9,9,0,0,1-2.78-1.07,6,6,0,0,1-2.08-2,6.13,6.13,0,0,1-.95-3.08h-3.49a7.9,7.9,0,0,0,.83,3.5,8.77,8.77,0,0,0,2.37,3,11.77,11.77,0,0,0,3.79,2.08,18.11,18.11,0,0,0,5.28.77,16.88,16.88,0,0,0,4.8-.66,10.15,10.15,0,0,0,3.61-1.77,8.73,8.73,0,0,0,2.38-2.73,7.88,7.88,0,0,0,.77-3.56,7.33,7.33,0,0,0-.66-3.32,6.76,6.76,0,0,0-1.95-2.55,14.56,14.56,0,0,0-3.44-1.95,30.83,30.83,0,0,0-4.86-1.42,32.68,32.68,0,0,1-4.27-1.25,9.29,9.29,0,0,1-2.55-1.36,3.18,3.18,0,0,1-1.24-1.6,4.91,4.91,0,0,1-.36-1.9,4.75,4.75,0,0,1,.48-2,4.51,4.51,0,0,1,1.3-1.77,7.92,7.92,0,0,1,2.37-1.25,10,10,0,0,1,3.44-.47,10.15,10.15,0,0,1,3.44.53,7.7,7.7,0,0,1,2.55,1.42,6.09,6.09,0,0,1,1.6,2.08,5.61,5.61,0,0,1,.53,2.37h3.44a8.7,8.7,0,0,0-.77-3.74,9.42,9.42,0,0,0-2.25-3,11.63,11.63,0,0,0-3.68-2,15.35,15.35,0,0,0-4.86-.71,14.91,14.91,0,0,0-4.56.66,11.36,11.36,0,0,0-3.5,1.83,7.88,7.88,0,0,0-2.19,2.73,7.11,7.11,0,0,0-.78,3.32,7.34,7.34,0,0,0,.72,3.32,6.33,6.33,0,0,0,2.13,2.43,12.63,12.63,0,0,0,3.44,1.78,36.41,36.41,0,0,0,4.62,1.24,24.78,24.78,0,0,1,4.27,1.31,8.28,8.28,0,0,1,2.55,1.6,5.31,5.31,0,0,1,1.24,1.77,5.69,5.69,0,0,1,.36,2,4.43,4.43,0,0,1-.53,2.08Z"></path><path class="cls-3" d="M110.19,784.91H464.38M597.12,449.6V709.48"></path><path d="M662.67,597.94l-.9-1.13a7.1,7.1,0,0,1-1.23-4.41,6.17,6.17,0,0,1,2-4.87,7.82,7.82,0,0,1,5.44-1.85,8.5,8.5,0,0,1,5.59,1.7,5.75,5.75,0,0,1,2,4.69,6.38,6.38,0,0,1-1.46,4.41,6.84,6.84,0,0,1-4.36,2v4.07a9.9,9.9,0,0,0,6.87-3.22,10.66,10.66,0,0,0,2.46-7.29,10.35,10.35,0,0,0-3-7.86,11.65,11.65,0,0,0-8.2-2.79,12,12,0,0,0-8.24,2.7,9.28,9.28,0,0,0-3,7.29,10.65,10.65,0,0,0,1.47,5.63l-9.18-1V582.41h-4v17.24l16.81,1.7Zm-3.88-42.34c-4.88,0-8.43.95-10.75,2.65s-3.5,4.36-3.5,8,1.18,6.35,3.59,8,6.11,2.56,11,2.56h5.73c4.73-.05,8.28-1,10.7-2.7s3.55-4.36,3.55-7.95-1.23-6.35-3.65-8.05-6.15-2.56-11.17-2.56Zm6.67,4.26c3.51,0,6.11.62,7.72,1.61A5.74,5.74,0,0,1,673,571c-1.75,1-4.4,1.61-8,1.61h-6.86c-3.41-.05-6-.57-7.63-1.57a5.14,5.14,0,0,1-2.46-4.78,5.23,5.23,0,0,1,2.51-4.83c1.66-1,4.26-1.56,7.91-1.56Z"></path><path d="M232.76,844.54l1.14-.9a7.09,7.09,0,0,1,4.4-1.23,6.17,6.17,0,0,1,4.88,2,7.82,7.82,0,0,1,1.85,5.44,8.45,8.45,0,0,1-1.71,5.59,5.74,5.74,0,0,1-4.69,2,6.37,6.37,0,0,1-4.4-1.46,6.74,6.74,0,0,1-2-4.36h-4.08a10,10,0,0,0,3.22,6.87,10.67,10.67,0,0,0,7.29,2.46,10.32,10.32,0,0,0,7.86-3,11.61,11.61,0,0,0,2.8-8.2,12,12,0,0,0-2.7-8.23,9.25,9.25,0,0,0-7.29-3,10.71,10.71,0,0,0-5.64,1.46l1-9.18h13.63v-4H231.06l-1.71,16.81ZM276.05,857h-16.9l9-9.8c4.26-4.55,6.34-8.52,6.34-11.84a8.46,8.46,0,0,0-2.7-6.53,10.65,10.65,0,0,0-7.43-2.46,10.93,10.93,0,0,0-8,2.88,9.75,9.75,0,0,0-3,7.49h4.31a7,7,0,0,1,1.75-5.07,6.74,6.74,0,0,1,5-1.8,5.66,5.66,0,0,1,4.26,1.7,6,6,0,0,1,1.56,4.31,8.21,8.21,0,0,1-.94,3.79,26.85,26.85,0,0,1-3.6,4.78l-11.65,13v3.07h22.06Zm7.93-21.5h-5l8.2,12.36-8.43,12.64h5l5.78-9.37,5.77,9.37h5l-8.47-12.64L300,835.54h-5l-5.54,9.14Zm26.33,9.62h3.22a7.85,7.85,0,0,1,5.21,1.61,5.54,5.54,0,0,1,1.8,4.49,6.19,6.19,0,0,1-1.61,4.64,7.69,7.69,0,0,1-9.42,0,5.44,5.44,0,0,1-1.71-4.21h-4.3a8.49,8.49,0,0,0,3,6.77,12.67,12.67,0,0,0,15.39-.09,9.19,9.19,0,0,0,3-7.2,8.22,8.22,0,0,0-1.52-5,8.5,8.5,0,0,0-4.3-2.89,8.7,8.7,0,0,0,3.88-3.08,7.37,7.37,0,0,0,1.42-4.26,9.18,9.18,0,0,0-2.7-7.05,12.06,12.06,0,0,0-14.91.14,8.57,8.57,0,0,0-2.94,6.63h4.31a5.45,5.45,0,0,1,1.61-4.17,6.1,6.1,0,0,1,4.45-1.61c3.93,0,5.92,2,5.92,5.92a5.43,5.43,0,0,1-1.75,4.21,7.18,7.18,0,0,1-4.79,1.61h-3.22Zm34.49-18.42h-.66l-12.27,4.59v3.88l8.62-3.17v28.5h4.31Z"></path><rect class="cls-1" x="242.39" y="573.74" width="95.12" height="26.97"></rect><rect class="cls-4" x="242.39" y="573.74" width="95.12" height="26.97"></rect><polygon class="cls-1" points="280.11 646.86 280.11 514.9 280.11 507.55 296.27 507.55 296.27 513.56 294.46 647.14 294.42 655.5 280.11 653.62 280.11 646.86"></polygon><polygon class="cls-4" points="280.11 646.86 280.11 514.9 280.11 507.55 296.27 507.55 296.27 513.56 294.46 647.14 294.42 655.5 280.11 653.62 280.11 646.86 280.11 646.86"></polygon><polygon class="cls-1" points="131.41 682.41 126.84 688.66 136.1 693.49 140.25 692.21 141.29 687.95 131.41 682.41"></polygon><path class="cls-1" d="M141.41,691.15V671.08c10.94.24,39-1,59.12-17.9,14-11.77,21.9-29.29,23.45-52.08V573.75c-4.56-67.06-63-82.29-82.68-85.53V468.31c20.24,3.05,97,20.18,102.48,104.43l0,28.65,0,.64c-1.87,28.57-12.16,50.88-30.59,66.28-20.28,17-45.63,21.38-62,22.29"></path><path class="cls-4" d="M141.41,691.15V671.08c10.94.24,39-1,59.12-17.9,14-11.77,21.9-29.29,23.45-52.08V573.75c-4.56-67.06-63-82.29-82.68-85.53V468.31c20.24,3.05,97,20.18,102.48,104.43l0,28.65,0,.64c-1.87,28.57-12.16,50.88-30.59,66.28-20.28,17-45.63,21.38-62,22.29"></path><path class="cls-1" d="M112.27,682V655.5h6.29s6.26,10.7,17.48,10.7l5.37,4.9v18.82"></path><path class="cls-4" d="M112.27,682V655.5h6.28s6.27,10.7,17.48,10.7l5.38,4.9v18.82"></path><path class="cls-1" d="M112.27,680.23v26.53h6.29s6.26-10.7,17.48-10.7l5.37-4.91"></path><path class="cls-4" d="M112.27,680.23v26.53h6.28s6.27-10.7,17.48-10.7l5.38-4.91"></path><path class="cls-1" d="M112.16,478.1V451.57h6.28s6.27,10.7,17.48,10.7l5.38,4.91V478.1"></path><path class="cls-4" d="M112.16,478.1V451.57h6.28s6.27,10.7,17.48,10.7l5.38,4.91V478.1"></path><path class="cls-1" d="M112.16,476.3v26.53h6.28s6.27-10.7,17.48-10.7l5.38-4.91V476.3"></path><path class="cls-4" d="M112.16,476.3v26.53h6.28s6.27-10.7,17.48-10.7l5.38-4.91V476.3"></path><path class="cls-1" d="M140.24,690.75c1.1,0,2.35,0,3.72,0,2.13,0,4.58,0,7.26-.2"></path><path class="cls-4" d="M140.24,690.75c1.1,0,2.35,0,3.72,0,2.13,0,4.58,0,7.26-.2"></path><polygon class="cls-1" points="443.16 682.41 447.73 688.66 438.47 693.49 434.32 692.21 433.27 687.95 443.16 682.41"></polygon><path class="cls-1" d="M423.34,690.6c-16.34-.91-41.69-5.33-62-22.29-18.43-15.4-28.72-37.71-30.59-66.28l0-.64,0-28.65c5.5-84.25,82.24-101.38,102.49-104.43v19.91c-19.7,3.24-78.13,18.47-82.69,85.53V601.1c1.55,22.79,9.44,40.31,23.45,52.08,20.15,16.92,48.18,18.14,59.13,17.9v20.07"></path><path class="cls-4" d="M423.34,690.6c-16.34-.91-41.69-5.33-62-22.29-18.43-15.4-28.72-37.71-30.59-66.28l0-.64,0-28.65c5.5-84.25,82.24-101.38,102.49-104.43v19.91c-19.7,3.24-78.13,18.47-82.69,85.53V601.1c1.55,22.79,9.44,40.31,23.45,52.08,20.15,16.92,48.18,18.14,59.13,17.9v20.07"></path><path class="cls-1" d="M433.16,689.92V671.1l5.38-4.9c11.21,0,17.48-10.7,17.48-10.7h6.27V682"></path><path class="cls-4" d="M433.16,689.92V671.1l5.37-4.9c11.21,0,17.48-10.7,17.48-10.7h6.28V682"></path><path class="cls-1" d="M433.16,691.15l5.38,4.91c11.21,0,17.48,10.7,17.48,10.7h6.27V680.23"></path><path class="cls-4" d="M433.16,691.15l5.37,4.91c11.21,0,17.48,10.7,17.48,10.7h6.28V680.23"></path><path class="cls-1" d="M433.27,478.1V467.18l5.37-4.91c11.21,0,17.48-10.7,17.48-10.7h6.28V478.1"></path><path class="cls-4" d="M433.27,478.1V467.18l5.37-4.91c11.21,0,17.48-10.7,17.48-10.7h6.28V478.1"></path><path class="cls-1" d="M433.27,476.3v10.92l5.37,4.91c11.21,0,17.48,10.7,17.48,10.7h6.28V476.3"></path><path class="cls-4" d="M433.27,476.3v10.92l5.37,4.91c11.21,0,17.48,10.7,17.48,10.7h6.28V476.3"></path><path class="cls-1" d="M423.34,690.6c2.69.15,5.13.2,7.26.2,1.37,0,2.62,0,3.72,0"></path><path class="cls-4" d="M423.34,690.6c2.69.15,5.13.2,7.26.2,1.37,0,2.62,0,3.72,0"></path><path class="cls-1" d="M317.77,677.18a30.48,30.48,0,1,1-30.48-30.32,30.39,30.39,0,0,1,30.48,30.32"></path><path class="cls-4" d="M317.77,677.18a30.49,30.49,0,1,1-30.49-30.32,30.4,30.4,0,0,1,30.49,30.32Z"></path><path class="cls-1" d="M317.77,484.58a30.48,30.48,0,1,1-30.48-30.32,30.39,30.39,0,0,1,30.48,30.32"></path><path class="cls-4" d="M317.77,484.58a30.49,30.49,0,1,1-30.49-30.32,30.4,30.4,0,0,1,30.49,30.32Z"></path></svg> 