<?xml version="1.0" encoding="UTF-8"?> <svg xmlns="http://www.w3.org/2000/svg" id="Livello_1" data-name="Livello 1" viewBox="0 0 789.33 1000.49"><defs><style>.cls-1{fill:#fff;}.cls-2{fill:#231f20;}.cls-3,.cls-4{fill:none;stroke-width:0.25px;}.cls-3{stroke:#000;}.cls-4{stroke:#231f20;stroke-miterlimit:10;}</style></defs><title>JeiJei small</title><rect class="cls-1" y="0.49" width="789.33" height="1000"></rect><path class="cls-2" d="M320.23,15a22.94,22.94,0,0,0-.89-6.82,12.28,12.28,0,0,0-2.42-4.64A9,9,0,0,0,313.16.89,12.65,12.65,0,0,0,308.32,0a12.83,12.83,0,0,0-4.84.89,8.8,8.8,0,0,0-3.7,2.67,12.16,12.16,0,0,0-2.43,4.64,23,23,0,0,0-.88,6.82v6.07a22.84,22.84,0,0,0,.88,6.77,13.14,13.14,0,0,0,2.43,4.69,9,9,0,0,0,3.75,2.67,12.83,12.83,0,0,0,4.84.89,12.65,12.65,0,0,0,4.84-.89A9,9,0,0,0,317,32.55a13.29,13.29,0,0,0,2.42-4.69,24.73,24.73,0,0,0,.84-6.77Zm-7,7a18.48,18.48,0,0,1-.34,3.95A7.8,7.8,0,0,1,312,28.6,3.54,3.54,0,0,1,310.45,30a4.58,4.58,0,0,1-2.08.45A4.51,4.51,0,0,1,306.3,30a3.5,3.5,0,0,1-1.54-1.43,7.56,7.56,0,0,1-1-2.62,21.9,21.9,0,0,1-.3-3.95V14a21.31,21.31,0,0,1,.3-3.9,7.1,7.1,0,0,1,.94-2.57,4.07,4.07,0,0,1,1.53-1.43,4.78,4.78,0,0,1,2.07-.4,4.58,4.58,0,0,1,2.08.4A4,4,0,0,1,312,7.51a7.49,7.49,0,0,1,.94,2.57,18,18,0,0,1,.34,3.9Zm18.25-2.32c.25-.25.49-.44.79-.69a4.09,4.09,0,0,1,.94-.64,7.73,7.73,0,0,1,1.28-.4,5.78,5.78,0,0,1,1.68-.2,6.66,6.66,0,0,1,2.52.45,4.48,4.48,0,0,1,1.73,1.28,4.31,4.31,0,0,1,1,1.93,8.3,8.3,0,0,1,.34,2.52,13.61,13.61,0,0,1-.24,2.57,6.71,6.71,0,0,1-.89,2.07A4.15,4.15,0,0,1,339.17,30a4.48,4.48,0,0,1-2.23.5,4.78,4.78,0,0,1-3.45-1.24,5,5,0,0,1-1.54-3.4H325a10.12,10.12,0,0,0,1.09,4.34,10,10,0,0,0,2.66,3.21,11.19,11.19,0,0,0,3.76,2,14.71,14.71,0,0,0,4.39.69,13.06,13.06,0,0,0,5.24-1,10.58,10.58,0,0,0,3.71-2.57,10.81,10.81,0,0,0,2.22-3.75,14.6,14.6,0,0,0,.69-4.45,17.65,17.65,0,0,0-.69-5,10.65,10.65,0,0,0-2.13-3.7,9,9,0,0,0-3.36-2.32,11.68,11.68,0,0,0-4.54-.79c-.54,0-1.14,0-1.63.1a11.81,11.81,0,0,0-1.53.34c-.45.15-.84.3-1.19.45a3.49,3.49,0,0,0-.89.44l.84-7.56h14V.49H328l-2,17.84ZM376.88,15A22.94,22.94,0,0,0,376,8.2a12,12,0,0,0-2.42-4.64A9,9,0,0,0,369.82.89,12.74,12.74,0,0,0,365,0a12.87,12.87,0,0,0-4.84.89,8.87,8.87,0,0,0-3.7,2.67A12,12,0,0,0,354,8.2a22.62,22.62,0,0,0-.89,6.82v6.07a22.5,22.5,0,0,0,.89,6.77,13,13,0,0,0,2.42,4.69,9,9,0,0,0,3.75,2.67,12.87,12.87,0,0,0,4.84.89,12.65,12.65,0,0,0,4.84-.89,9,9,0,0,0,3.76-2.67A13,13,0,0,0,376,27.86a24.73,24.73,0,0,0,.84-6.77Zm-7,7a17.86,17.86,0,0,1-.34,3.95,7.8,7.8,0,0,1-.94,2.62A3.54,3.54,0,0,1,367.1,30,5,5,0,0,1,363,30a3.48,3.48,0,0,1-1.53-1.43,7.55,7.55,0,0,1-1-2.62,21.9,21.9,0,0,1-.3-3.95V14a21.31,21.31,0,0,1,.3-3.9,7.29,7.29,0,0,1,.94-2.57,4.14,4.14,0,0,1,1.53-1.43,4.78,4.78,0,0,1,2.07-.4,4.55,4.55,0,0,1,2.08.4,4,4,0,0,1,1.58,1.43,7.49,7.49,0,0,1,.94,2.57,17.38,17.38,0,0,1,.34,3.9ZM398.49.44h-.74L383.22,5.68v5.63l8.3-2.57V35.62h7Zm25.26,17.34H410.17v5.59h13.58ZM453.12,30H438l6.17-6.52c1.19-1.23,2.27-2.37,3.21-3.5a24.27,24.27,0,0,0,2.47-3.31,15.68,15.68,0,0,0,1.53-3.26A9.83,9.83,0,0,0,452,10a11.62,11.62,0,0,0-.74-4.2A8.37,8.37,0,0,0,449,2.67a10,10,0,0,0-3.55-2A16.79,16.79,0,0,0,440.53,0a13,13,0,0,0-5.09.94,11.11,11.11,0,0,0-3.8,2.47,10.82,10.82,0,0,0-2.47,3.65,12.44,12.44,0,0,0-.84,4.5h7a7,7,0,0,1,.35-2.37,5.52,5.52,0,0,1,.93-1.88,4.49,4.49,0,0,1,1.63-1.23,4.87,4.87,0,0,1,2.18-.45A4.29,4.29,0,0,1,443.79,7a5.36,5.36,0,0,1,1.18,3.7,4.75,4.75,0,0,1-.24,1.58A8.54,8.54,0,0,1,444,14a13.62,13.62,0,0,1-1.43,2.12,28.36,28.36,0,0,1-2.17,2.57L429,30.82v4.8h24.1ZM474.29.44h-.74L459,5.68v5.63l8.3-2.57V35.62h7Z"></path><path class="cls-2" d="M349,96.53a4.89,4.89,0,0,1-1.28,1.53,9.6,9.6,0,0,1-2.13,1,10.37,10.37,0,0,1-2.91.35,10.62,10.62,0,0,1-2.47-.25,7,7,0,0,1-2.32-.89,4.74,4.74,0,0,1-1.73-1.63,5,5,0,0,1-.79-2.56h-2.92a6.73,6.73,0,0,0,.69,2.91,7.37,7.37,0,0,0,2,2.52,9.86,9.86,0,0,0,3.16,1.73,15.2,15.2,0,0,0,4.4.64,14.49,14.49,0,0,0,4-.54,8.57,8.57,0,0,0,3-1.49,7.27,7.27,0,0,0,2-2.27,6.56,6.56,0,0,0,.64-3,6.23,6.23,0,0,0-.54-2.77,5.61,5.61,0,0,0-1.63-2.12,12,12,0,0,0-2.87-1.63,26.91,26.91,0,0,0-4.05-1.19,27.58,27.58,0,0,1-3.56-1,7.87,7.87,0,0,1-2.12-1.14,2.67,2.67,0,0,1-1-1.33,4.09,4.09,0,0,1-.29-1.59,3.93,3.93,0,0,1,.39-1.63,3.87,3.87,0,0,1,1.09-1.48,6.8,6.8,0,0,1,2-1,8.37,8.37,0,0,1,2.87-.39,8.63,8.63,0,0,1,2.86.44,6.5,6.5,0,0,1,2.13,1.19,4.88,4.88,0,0,1,1.33,1.73,4.54,4.54,0,0,1,.45,2h2.86a7.25,7.25,0,0,0-.64-3.11,7.69,7.69,0,0,0-1.88-2.47,9.59,9.59,0,0,0-3.06-1.63,12.89,12.89,0,0,0-4.05-.59,12.76,12.76,0,0,0-3.8.54,9.71,9.71,0,0,0-2.92,1.53A6.81,6.81,0,0,0,334,79.19a6,6,0,0,0-.64,2.76,6.24,6.24,0,0,0,.59,2.77,5.36,5.36,0,0,0,1.78,2,10.33,10.33,0,0,0,2.87,1.49,30.36,30.36,0,0,0,3.85,1A21.67,21.67,0,0,1,346,90.35a7.23,7.23,0,0,1,2.12,1.33,4,4,0,0,1,1.33,3.12,3.59,3.59,0,0,1-.44,1.73Zm9.61-21.2v26.09h2.91V83.53a14.09,14.09,0,0,1,.94-2.32,10.27,10.27,0,0,1,1.53-2,8.4,8.4,0,0,1,2.23-1.39,7.32,7.32,0,0,1,2.86-.49,9.08,9.08,0,0,1,2.62.34A4.78,4.78,0,0,1,375,80.92a10.58,10.58,0,0,1,.44,3.26v17.24h2.92V84.13a6.9,6.9,0,0,1,.59-2.32,9.41,9.41,0,0,1,1.48-2.18A8.5,8.5,0,0,1,382.84,78a7.17,7.17,0,0,1,3.16-.64,10.08,10.08,0,0,1,2.57.3,4.29,4.29,0,0,1,2,1.13A5.28,5.28,0,0,1,391.93,81a10.76,10.76,0,0,1,.45,3.4v17h2.86v-17a14.21,14.21,0,0,0-.54-4.34,7.24,7.24,0,0,0-1.68-3,6.3,6.3,0,0,0-2.72-1.73,11.64,11.64,0,0,0-3.6-.54,10.84,10.84,0,0,0-2.92.4,9.89,9.89,0,0,0-2.47,1,9.32,9.32,0,0,0-2,1.63,11.8,11.8,0,0,0-1.49,2A6.86,6.86,0,0,0,374.89,76,9.74,9.74,0,0,0,370,74.84a9.08,9.08,0,0,0-2.67.35,8.67,8.67,0,0,0-2.32.93A7.27,7.27,0,0,0,363,77.61a10.27,10.27,0,0,0-1.53,2l-.1-4.25Zm63.43,26.09v-.3a8,8,0,0,1-.34-1.09c-.1-.39-.15-.84-.25-1.28s-.1-.89-.15-1.38a13.39,13.39,0,0,1-.05-1.39V83.34a9.45,9.45,0,0,0-.69-3.71,7.27,7.27,0,0,0-2-2.67,8.58,8.58,0,0,0-3-1.58,13.71,13.71,0,0,0-7.95.1,11.34,11.34,0,0,0-3.16,1.73,8,8,0,0,0-2,2.47,5.72,5.72,0,0,0-.69,2.82l2.86,0a4.31,4.31,0,0,1,.55-2.08,5.7,5.7,0,0,1,1.43-1.68,6.77,6.77,0,0,1,2.22-1.09,8.51,8.51,0,0,1,2.77-.44,7,7,0,0,1,5,1.63,5.72,5.72,0,0,1,1.73,4.4v3h-5.34a22,22,0,0,0-5,.54,11.45,11.45,0,0,0-3.75,1.68A7.32,7.32,0,0,0,402,91a7.23,7.23,0,0,0-.79,3.46,7,7,0,0,0,.59,2.91,6.94,6.94,0,0,0,1.68,2.38,8,8,0,0,0,2.67,1.58,11.14,11.14,0,0,0,3.45.54,12.89,12.89,0,0,0,2.87-.35,15.87,15.87,0,0,0,2.47-.88,9.49,9.49,0,0,0,2-1.34,7.65,7.65,0,0,0,1.54-1.58c.05.69.09,1.33.19,2a6.59,6.59,0,0,0,.4,1.63ZM407.5,99a6.11,6.11,0,0,1-1.88-1.09,4.24,4.24,0,0,1-1.13-1.63,4.43,4.43,0,0,1-.45-2,5,5,0,0,1,.64-2.42A5.14,5.14,0,0,1,406.56,90a9,9,0,0,1,3-1.14,15.83,15.83,0,0,1,4-.4h4.94V94.2a8.71,8.71,0,0,1-1.29,2,9.72,9.72,0,0,1-1.88,1.63A10,10,0,0,1,412.83,99a11.18,11.18,0,0,1-2.91.39A7.48,7.48,0,0,1,407.5,99Zm24.72-34.58h-2.91v37.05h2.91Zm11.06,0h-2.92v37.05h2.92Z"></path><path class="cls-2" d="M313.38,132h-.49l-12,4.39v2.72l9.54-3.56v31.67h2.91Zm30.5-.15a18.21,18.21,0,0,0-7.41,1.38,14.24,14.24,0,0,0-5.23,4.05,17.66,17.66,0,0,0-3.12,6.27,29.81,29.81,0,0,0-1,8.16v3.11a14.71,14.71,0,0,0,.79,5,11.8,11.8,0,0,0,2.27,4.1,9.76,9.76,0,0,0,3.56,2.76,10.77,10.77,0,0,0,4.74,1,9.91,9.91,0,0,0,7.65-3.46,12.15,12.15,0,0,0,2.08-3.8,16.55,16.55,0,0,0,.69-4.74,14.5,14.5,0,0,0-.64-4.4,10.52,10.52,0,0,0-1.88-3.7,9.9,9.9,0,0,0-3.16-2.52,9.57,9.57,0,0,0-4.45-.94,11.81,11.81,0,0,0-5,1.08,9.26,9.26,0,0,0-3.7,3.17,17.81,17.81,0,0,1,1.19-5.88,12.93,12.93,0,0,1,2.76-4.4,12.14,12.14,0,0,1,4.25-2.81,15.14,15.14,0,0,1,5.63-.94h.45v-2.52Zm-2.17,15.51a6.64,6.64,0,0,1,2.37,2,8.93,8.93,0,0,1,1.48,2.92,13.18,13.18,0,0,1,.45,3.51,12.43,12.43,0,0,1-.5,3.65,9.41,9.41,0,0,1-1.48,3,7.84,7.84,0,0,1-2.42,2,6.56,6.56,0,0,1-3.16.74,8.35,8.35,0,0,1-3.31-.69,7.85,7.85,0,0,1-2.67-2.08,9.54,9.54,0,0,1-1.83-3.26,13.25,13.25,0,0,1-.64-4.34V152.5a6.32,6.32,0,0,1,1.14-2.33,8.3,8.3,0,0,1,1.92-1.82,9.64,9.64,0,0,1,5.24-1.73,7.47,7.47,0,0,1,3.41.74Zm28.61-17.19h-2.91v37.05h2.91Zm11.05,11h-2.91v26.09h2.91ZM378.46,135a2.07,2.07,0,0,0,1.48.54,2,2,0,0,0,1.43-.54,1.82,1.82,0,0,0,.55-1.38,1.75,1.75,0,0,0-.55-1.39,1.83,1.83,0,0,0-1.43-.59,1.94,1.94,0,0,0-1.48.59,1.9,1.9,0,0,0-.49,1.39,2,2,0,0,0,.49,1.38ZM388,154.42a18.63,18.63,0,0,0,.69,5.39,12.37,12.37,0,0,0,2,4.2,9.85,9.85,0,0,0,3.16,2.71,9,9,0,0,0,4.2,1,10.38,10.38,0,0,0,4.79-1,9,9,0,0,0,3.26-2.81v3a11.15,11.15,0,0,1-.49,3.51,6.85,6.85,0,0,1-1.53,2.57,6.27,6.27,0,0,1-2.42,1.68,9.55,9.55,0,0,1-3.26.54,8.61,8.61,0,0,1-3.91-.89,11.32,11.32,0,0,1-3.41-2.86l-1.58,1.72a8.64,8.64,0,0,0,1.83,2,13.09,13.09,0,0,0,2.27,1.38,13.57,13.57,0,0,0,2.47.84,10.78,10.78,0,0,0,2.52.25,12,12,0,0,0,4.3-.74,9.2,9.2,0,0,0,3.31-2.13,9.88,9.88,0,0,0,2.08-3.4,13.22,13.22,0,0,0,.79-4.55V141.13h-2.72l-.15,3.76a9.45,9.45,0,0,0-3.31-3.11,10.37,10.37,0,0,0-9-.2,9.6,9.6,0,0,0-3.16,2.67,12.19,12.19,0,0,0-2,4.2,19,19,0,0,0-.69,5.48Zm2.92-.49a19.12,19.12,0,0,1,.44-4.25,10.92,10.92,0,0,1,1.38-3.41,6.73,6.73,0,0,1,2.42-2.27,6.46,6.46,0,0,1,3.46-.84,9.59,9.59,0,0,1,2.77.39,8,8,0,0,1,2.12,1.14,7.56,7.56,0,0,1,1.53,1.63,8.36,8.36,0,0,1,1,2v12.1a9.56,9.56,0,0,1-1.13,1.93,6.56,6.56,0,0,1-1.59,1.48,7.9,7.9,0,0,1-2.12,1,9.2,9.2,0,0,1-2.67.34,6.74,6.74,0,0,1-5.83-3.11,10.92,10.92,0,0,1-1.38-3.41,18.81,18.81,0,0,1-.44-4.25Zm28.47-23.76h-2.86v37.05h2.86V149.33a10.73,10.73,0,0,1,1.14-2.27,8,8,0,0,1,1.63-2,8.35,8.35,0,0,1,2.22-1.39,7.46,7.46,0,0,1,2.82-.49,8.41,8.41,0,0,1,2.57.35,4.18,4.18,0,0,1,1.92,1.13,5.83,5.83,0,0,1,1.24,2.17,11.44,11.44,0,0,1,.44,3.41v17h2.87v-17a14.11,14.11,0,0,0-.6-4.39,7.9,7.9,0,0,0-1.63-3,6.19,6.19,0,0,0-2.61-1.68,9.84,9.84,0,0,0-3.51-.54A9.7,9.7,0,0,0,423,142a10.3,10.3,0,0,0-2,1.54,10.85,10.85,0,0,0-1.58,2Zm25.81,4.25v6.71h-4.79v2.38h4.79v17.38a10.26,10.26,0,0,0,.45,3.26,5.62,5.62,0,0,0,1.18,2.08,3.76,3.76,0,0,0,1.78,1.13,6.75,6.75,0,0,0,2.27.35c.59,0,1.14-.05,1.73-.1a9,9,0,0,0,1.38-.34l-.14-2.33-1.09.15a9.88,9.88,0,0,1-1.24,0,5.28,5.28,0,0,1-1.28-.15,2.12,2.12,0,0,1-1.09-.59,3,3,0,0,1-.74-1.33,6.58,6.58,0,0,1-.3-2.18V143.51h5.39v-2.38h-5.39v-6.71Zm29.48,27.91a4.93,4.93,0,0,1-1.29,1.53,9.3,9.3,0,0,1-2.12,1,10.39,10.39,0,0,1-2.92.35,10.62,10.62,0,0,1-2.47-.25,7,7,0,0,1-2.32-.89,4.9,4.9,0,0,1-1.73-1.63,5.13,5.13,0,0,1-.79-2.56h-2.91a6.59,6.59,0,0,0,.69,2.91,7.34,7.34,0,0,0,2,2.52,9.81,9.81,0,0,0,3.17,1.73,15.08,15.08,0,0,0,4.39.64,14.44,14.44,0,0,0,4-.54,8.7,8.7,0,0,0,3-1.48,7.25,7.25,0,0,0,2-2.28,6.43,6.43,0,0,0,.65-3,6.1,6.1,0,0,0-.55-2.77,5.51,5.51,0,0,0-1.63-2.12,12.12,12.12,0,0,0-2.86-1.63,26.91,26.91,0,0,0-4.05-1.19,27.11,27.11,0,0,1-3.56-1,7.72,7.72,0,0,1-2.12-1.14,2.62,2.62,0,0,1-1-1.33,4.09,4.09,0,0,1-.3-1.59,4,4,0,0,1,.4-1.63,3.84,3.84,0,0,1,1.08-1.48,6.76,6.76,0,0,1,2-1,8.09,8.09,0,0,1,2.86-.4,8.7,8.7,0,0,1,2.87.44,6.35,6.35,0,0,1,2.12,1.19,4.91,4.91,0,0,1,1.34,1.73,4.69,4.69,0,0,1,.44,2h2.87a7.12,7.12,0,0,0-.65-3.12,7.52,7.52,0,0,0-1.87-2.47,9.7,9.7,0,0,0-3.06-1.63,14,14,0,0,0-7.86,0,9.65,9.65,0,0,0-2.91,1.53,6.69,6.69,0,0,0-1.83,2.28,5.92,5.92,0,0,0-.64,2.76,6.1,6.1,0,0,0,.59,2.77,5.38,5.38,0,0,0,1.78,2,10.67,10.67,0,0,0,2.86,1.48,30.54,30.54,0,0,0,3.86,1,21.51,21.51,0,0,1,3.55,1.09,7.43,7.43,0,0,1,2.13,1.33,4.46,4.46,0,0,1,1,1.49,4.65,4.65,0,0,1,.3,1.63,3.71,3.71,0,0,1-.44,1.73Z"></path><path class="cls-3" d="M251.44,747.24H507M657.23,524.9V696.64M137.43,263.28V696.64"></path><path d="M711.86,626.11l-.75-1a5.89,5.89,0,0,1-1-3.67,5.17,5.17,0,0,1,1.7-4.06,6.52,6.52,0,0,1,4.54-1.54,7.07,7.07,0,0,1,4.66,1.42,4.8,4.8,0,0,1,1.69,3.91,5.29,5.29,0,0,1-1.22,3.67,5.62,5.62,0,0,1-3.63,1.69V630a8.28,8.28,0,0,0,5.72-2.69,8.86,8.86,0,0,0,2.05-6.07,8.59,8.59,0,0,0-2.48-6.55,9.68,9.68,0,0,0-6.83-2.33,10,10,0,0,0-6.87,2.25,7.73,7.73,0,0,0-2.52,6.07,8.86,8.86,0,0,0,1.22,4.7l-7.65-.83V613.17h-3.32v14.36l14,1.42Zm-3.24-35.29c-4.06,0-7,.79-9,2.21s-2.92,3.63-2.92,6.67,1,5.29,3,6.71,5.09,2.13,9.19,2.13h4.77c3.95,0,6.91-.79,8.92-2.25s3-3.63,3-6.63-1-5.29-3-6.71-5.13-2.13-9.31-2.13Zm5.57,3.55a13.12,13.12,0,0,1,6.43,1.34,4.79,4.79,0,0,1-.12,7.94,13.45,13.45,0,0,1-6.71,1.34h-5.72a13.17,13.17,0,0,1-6.35-1.3,4.31,4.31,0,0,1-2.05-4,4.36,4.36,0,0,1,2.09-4c1.38-.86,3.55-1.3,6.59-1.3Z"></path><path d="M373.22,809l-1.94,3.91h2.41l1.42-2.88a10.07,10.07,0,0,0,3.67.67,9.38,9.38,0,0,0,4.93-1.3,9.25,9.25,0,0,0,3.36-3.79,12.41,12.41,0,0,0,1.18-5.48c0-4.11-1.26-7.19-3.75-9.16l2-3.94h-2.4l-1.38,2.88a9.36,9.36,0,0,0-3.95-.83,8.89,8.89,0,0,0-8.29,5.13,12.42,12.42,0,0,0-1.18,5.48c0,4.3,1.34,7.38,4,9.31Zm1.26-14.91a5.11,5.11,0,0,1,4.26-2.09,5.31,5.31,0,0,1,2.57.63L374.72,806a8.59,8.59,0,0,1-1.86-5.88,9.61,9.61,0,0,1,1.62-6ZM384.66,800a9.2,9.2,0,0,1-1.58,5.68,5.24,5.24,0,0,1-4.3,2.09,5.67,5.67,0,0,1-2.33-.47L383,794a8.92,8.92,0,0,1,1.66,5.64Zm12-3,.94-.75a5.89,5.89,0,0,1,3.67-1,5.19,5.19,0,0,1,4.07,1.7,6.55,6.55,0,0,1,1.54,4.54,7.08,7.08,0,0,1-1.42,4.65,4.78,4.78,0,0,1-3.91,1.7,5.29,5.29,0,0,1-3.67-1.22,5.63,5.63,0,0,1-1.7-3.63h-3.39a8.29,8.29,0,0,0,2.68,5.72,8.87,8.87,0,0,0,6.08,2,8.62,8.62,0,0,0,6.55-2.48,9.68,9.68,0,0,0,2.33-6.83,10,10,0,0,0-2.25-6.87,7.74,7.74,0,0,0-6.08-2.52,8.85,8.85,0,0,0-4.69,1.22l.82-7.65h11.37v-3.32H395.29l-1.42,14Zm22.18,0,.95-.75a5.89,5.89,0,0,1,3.67-1,5.16,5.16,0,0,1,4.06,1.7,6.51,6.51,0,0,1,1.54,4.54,7,7,0,0,1-1.42,4.65,4.76,4.76,0,0,1-3.9,1.7,5.27,5.27,0,0,1-3.67-1.22,5.63,5.63,0,0,1-1.7-3.63H415a8.25,8.25,0,0,0,2.68,5.72,8.87,8.87,0,0,0,6.08,2,8.62,8.62,0,0,0,6.55-2.48,9.68,9.68,0,0,0,2.32-6.83,10,10,0,0,0-2.24-6.87,7.76,7.76,0,0,0-6.08-2.52,8.86,8.86,0,0,0-4.7,1.22l.83-7.65h11.37v-3.32H417.47l-1.42,14Z"></path><path d="M86.47,609.49h20.84v-3.56H92.12a4.73,4.73,0,0,1-3-4.81c0-3,1.5-4.42,4.54-4.42h13.65v-3.59H93.5a4.94,4.94,0,0,1-3.2-1.54,4.69,4.69,0,0,1-1.18-3.27,4.44,4.44,0,0,1,1.1-3.44,4.89,4.89,0,0,1,3.36-1h13.73v-3.55h-14c-4.85.08-7.26,2.4-7.26,6.94a8.26,8.26,0,0,0,.91,3.95,8.64,8.64,0,0,0,2.44,2.72c-2.25,1.07-3.35,3-3.35,6A7.71,7.71,0,0,0,88.76,606l-2.29.12Zm0-38.49v3.59h20.84V571Zm-4.1,3.35a2,2,0,0,0,.59-1.58,2,2,0,0,0-.59-1.58,2.11,2.11,0,0,0-1.46-.55,2.2,2.2,0,0,0-1.46.55,2,2,0,0,0-.59,1.58,2.08,2.08,0,0,0,.59,1.58,2.17,2.17,0,0,0,1.46.51,2.08,2.08,0,0,0,1.46-.51Zm4.1-9h20.84v-3.59H92.47A6.29,6.29,0,0,1,90,559.67a5.18,5.18,0,0,1-.91-3,4.25,4.25,0,0,1,1.06-3.16,5.1,5.1,0,0,1,3.36-1h13.77v-3.55H93.54c-5,0-7.46,2.25-7.46,6.67a7.55,7.55,0,0,0,3,6.24l-2.61.11ZM79.25,516v18.94h2.92V519.76l25.14,11.56v-3.75l-26-11.6ZM94,507.39l-.75-.94a5.89,5.89,0,0,1-1-3.67,5.18,5.18,0,0,1,1.69-4.07,6.57,6.57,0,0,1,4.54-1.54,7.07,7.07,0,0,1,4.66,1.43,4.76,4.76,0,0,1,1.69,3.9,5.29,5.29,0,0,1-1.22,3.67,5.63,5.63,0,0,1-3.63,1.7v3.39a8.27,8.27,0,0,0,5.72-2.68,8.87,8.87,0,0,0,2-6.08,8.62,8.62,0,0,0-2.48-6.55,9.68,9.68,0,0,0-6.83-2.33,10,10,0,0,0-6.86,2.25A7.72,7.72,0,0,0,89,502a8.85,8.85,0,0,0,1.22,4.69l-7.65-.82V494.45H79.25v14.37l14,1.42Zm0-35.25v9.39h2.92v-9.39Zm-7.46-13.27h20.84v-3.55H92.12a4.74,4.74,0,0,1-3-4.81c0-3,1.5-4.42,4.54-4.42h13.65V442.5H93.5A4.94,4.94,0,0,1,90.3,441a4.7,4.7,0,0,1-1.18-3.28,4.43,4.43,0,0,1,1.1-3.43,4.89,4.89,0,0,1,3.36-1h13.73v-3.56h-14c-4.85.08-7.26,2.41-7.26,6.95a8.19,8.19,0,0,0,.91,3.94,8.57,8.57,0,0,0,2.44,2.73c-2.25,1.06-3.35,3-3.35,6a7.71,7.71,0,0,0,2.68,6.15l-2.29.12Zm20.84-51.19H107a12,12,0,0,1-4.57.71H92.83a6.47,6.47,0,0,0-4.93,2.13,8,8,0,0,0-1.82,5.64,9.81,9.81,0,0,0,.87,4.18,7.26,7.26,0,0,0,2.29,3,4.86,4.86,0,0,0,3,1.11v-3.59a2.87,2.87,0,0,1-2.33-1.31,5.11,5.11,0,0,1-1-3.19,4.46,4.46,0,0,1,1.11-3.28,4,4,0,0,1,3-1.1h1.66v3.43c0,3,.59,5.33,1.82,7a5.86,5.86,0,0,0,5,2.48,5.75,5.75,0,0,0,4.42-2,7.49,7.49,0,0,0,1.73-5.05,8,8,0,0,0-2.56-6,6.45,6.45,0,0,0,2.17-.51Zm-3.59,12.51a3.32,3.32,0,0,1-2.65,1.1c-2.56,0-3.86-2.17-3.86-6.55V412h4.3a5,5,0,0,1,2.29,2.17,6,6,0,0,1,.86,3.15,4.31,4.31,0,0,1-.94,2.89ZM86.47,400.37v4.14l10.3-6.83,10.54,7v-4.15l-7.81-4.81,7.81-4.81v-4.15l-10.54,7.07L86.47,387v4.14l7.62,4.62Zm-7.33-38.29v.55L83,372.85H86.2l-2.65-7.18h23.76v-3.59Zm0-22.19v.55L83,350.66H86.2l-2.65-7.18h23.76v-3.59Zm14.83-15-.75-.95a5.86,5.86,0,0,1-1-3.66,5.18,5.18,0,0,1,1.69-4.07,6.57,6.57,0,0,1,4.54-1.54,7.12,7.12,0,0,1,4.66,1.42,4.8,4.8,0,0,1,1.69,3.91,5.29,5.29,0,0,1-1.22,3.67,5.63,5.63,0,0,1-3.63,1.7v3.39a8.31,8.31,0,0,0,5.72-2.68,8.88,8.88,0,0,0,2-6.08,8.62,8.62,0,0,0-2.48-6.55,9.68,9.68,0,0,0-6.83-2.33,10,10,0,0,0-6.86,2.25A7.72,7.72,0,0,0,89,319.48a8.85,8.85,0,0,0,1.22,4.69l-7.65-.83V312H79.25v14.36l14,1.42Z"></path><rect class="cls-1" x="376.07" y="302.74" width="4.94" height="223.83"></rect><rect class="cls-4" x="376.08" y="302.74" width="4.94" height="223.83"></rect><rect class="cls-1" x="272.34" y="531.91" width="16.12" height="12.03"></rect><rect class="cls-4" x="272.34" y="531.91" width="16.12" height="12.03"></rect><rect class="cls-1" x="272.34" y="667.53" width="16.12" height="12.03"></rect><rect class="cls-4" x="272.34" y="667.53" width="16.12" height="12.03"></rect><rect class="cls-1" x="339.87" y="598.63" width="81.43" height="19.63"></rect><rect class="cls-4" x="339.87" y="598.63" width="81.43" height="19.63"></rect><path class="cls-1" d="M306.14,539.41,300.89,550s30.22,12.85,31.89,56c0,0,.18,33.43-23.26,50.82H330.2l.62-4.93h-1c13.68-11.55,14.06-45.89,14.06-45.89.74-47.52-29.85-62.32-29.85-62.32"></path><path class="cls-4" d="M306.14,539.41,300.89,550s30.22,12.85,31.89,56c0,0,.18,33.43-23.26,50.82H330.2l.62-4.93h-1c13.68-11.55,14.06-45.89,14.06-45.89.74-47.52-29.85-62.32-29.85-62.32"></path><path class="cls-1" d="M309.52,669.72s52.13,7,51.38-64.82c.75-71.82-52.55-73.32-52.55-73.32V542s42.93,8,41.45,62.88c1.48,54.92-41.45,53.18-41.45,53.18Z"></path><path class="cls-4" d="M309.52,669.72s52.13,7,51.38-64.82c.75-71.82-52.55-73.31-52.55-73.31V542s42.93,8,41.45,62.87c1.48,54.92-41.45,53.19-41.45,53.19l1.17,11.63Zm-37.19,10h12.84m-12.84-12.18h9.87"></path><path class="cls-1" d="M253.09,536.31v-19.5h4.69s2,6.45,10.61,7.94c0,0,4.68,1,4.68,3.48v16.16c0,2.49-4.68,3.48-4.68,3.48-8.64,1.49-10.61,8-10.61,8h-4.69Z"></path><path class="cls-4" d="M253.09,536.31v-19.5h4.69s2,6.46,10.61,8c0,0,4.68,1,4.68,3.48V544.4c0,2.48-4.68,3.48-4.68,3.48-8.64,1.48-10.61,7.94-10.61,7.94h-4.69V536.31Z"></path><path class="cls-1" d="M253.09,673V653.49h4.69s2,6.46,10.61,8c0,0,4.68,1,4.68,3.48v16.16c0,2.48-4.68,3.48-4.68,3.48-8.64,1.49-10.61,8-10.61,8h-4.69Z"></path><path class="cls-4" d="M253.09,673V653.49h4.69s2,6.47,10.61,8c0,0,4.68,1,4.68,3.48v16.16c0,2.48-4.68,3.48-4.68,3.48-8.64,1.49-10.61,8-10.61,8h-4.69V673Z"></path><rect class="cls-1" x="365.22" y="410.3" width="26.64" height="5.47"></rect><rect class="cls-4" x="365.22" y="410.31" width="26.64" height="5.47"></rect><path class="cls-1" d="M379.53,264.92h-45v8.19s17.77,8.95,21.47,23.62v8.69s.49,4,5.43,6h18.13"></path><path class="cls-4" d="M379.53,264.92h-45v8.2s17.77,8.95,21.47,23.62v8.69s.49,4,5.43,6h18.13"></path><path class="cls-1" d="M379.53,264.92h45v8.19s-17.77,8.95-21.47,23.62v8.69s-.49,4-5.43,6H379.53"></path><path class="cls-4" d="M379.53,264.92h45v8.2s-17.77,8.95-21.47,23.62v8.69s-.49,4-5.43,6H379.53"></path><rect class="cls-1" x="372" y="555.82" width="12.34" height="111.71"></rect><rect class="cls-4" x="372" y="555.82" width="12.34" height="111.71"></rect><path class="cls-1" d="M399.39,671.51a20.85,20.85,0,1,1-20.85-21,20.92,20.92,0,0,1,20.85,21"></path><path class="cls-4" d="M399.39,671.51a20.85,20.85,0,1,1-20.85-21,20.93,20.93,0,0,1,20.85,21Z"></path><path class="cls-1" d="M399.39,539.41a20.85,20.85,0,1,1-20.85-21,20.92,20.92,0,0,1,20.85,21"></path><path class="cls-4" d="M399.39,539.41a20.85,20.85,0,1,1-20.85-21,20.92,20.92,0,0,1,20.85,21Z"></path><polyline class="cls-1" points="295.67 647.73 309.09 657.34 309.09 670.51 295.89 680.14"></polyline><polyline class="cls-4" points="295.67 647.73 309.09 657.35 309.09 670.51 295.89 680.15"></polyline><polyline class="cls-1" points="296.38 521.4 309.09 530.09 309.09 543.76 295.37 553.28"></polyline><polyline class="cls-4" points="296.38 521.4 309.09 530.09 309.09 543.76 295.37 553.28"></polyline><path class="cls-1" d="M299,536.31c0,11.53-3.87,20.88-8.64,20.88s-8.63-9.35-8.63-20.88,3.86-20.87,8.63-20.87,8.64,9.34,8.64,20.87"></path><path class="cls-4" d="M299,536.31c0,11.54-3.87,20.88-8.64,20.88s-8.63-9.34-8.63-20.88,3.86-20.87,8.63-20.87,8.64,9.35,8.64,20.87Z"></path><path class="cls-1" d="M299,664.14c0,11.53-3.87,20.88-8.64,20.88s-8.63-9.35-8.63-20.88,3.86-20.87,8.63-20.87,8.64,9.34,8.64,20.87"></path><path class="cls-4" d="M299,664.14c0,11.54-3.87,20.88-8.64,20.88s-8.63-9.34-8.63-20.88,3.86-20.87,8.63-20.87,8.64,9.35,8.64,20.87Z"></path><rect class="cls-1" x="469.75" y="531.91" width="16.12" height="12.03"></rect><rect class="cls-4" x="469.75" y="531.91" width="16.12" height="12.03"></rect><rect class="cls-1" x="469.75" y="667.53" width="16.12" height="12.03"></rect><rect class="cls-4" x="469.75" y="667.53" width="16.12" height="12.03"></rect><path class="cls-1" d="M444.18,543.76s-30.6,14.8-29.86,62.33c0,0,.38,34.33,14.07,45.89h-1l.61,4.92h20.68c-23.44-17.39-23.25-50.81-23.25-50.81,1.66-43.2,31.88-56.06,31.88-56.06l-5.25-10.62"></path><path class="cls-4" d="M444.18,543.76s-30.6,14.8-29.86,62.33c0,0,.38,34.33,14.07,45.89h-1l.61,4.92h20.68c-23.44-17.38-23.25-50.81-23.25-50.81C427.09,562.9,457.31,550,457.31,550l-5.25-10.61"></path><path class="cls-1" d="M449.85,658.08s-42.93,1.74-41.45-53.18C406.92,550,449.85,542,449.85,542V531.58s-53.29,1.5-52.55,73.32c-.74,71.83,51.38,64.82,51.38,64.82Z"></path><path class="cls-4" d="M449.85,658.08s-42.93,1.74-41.45-53.18C406.92,550,449.85,542,449.85,542V531.59s-53.29,1.49-52.55,73.31c-.74,71.83,51.38,64.82,51.38,64.82l1.17-11.64ZM473,679.71h12.83M476,667.53h9.87"></path><path class="cls-1" d="M505.12,555.82h-4.7s-2-6.46-10.6-8c0,0-4.69-1-4.69-3.48V528.23c0-2.48,4.69-3.48,4.69-3.48,8.63-1.49,10.6-7.94,10.6-7.94h4.7v39Z"></path><path class="cls-4" d="M505.12,555.82h-4.7s-2-6.46-10.6-7.94c0,0-4.69-1-4.69-3.49V528.24c0-2.49,4.69-3.48,4.69-3.48,8.63-1.5,10.6-8,10.6-8h4.7v39Z"></path><path class="cls-1" d="M505.12,692.51h-4.7s-2-6.46-10.6-8c0,0-4.69-1-4.69-3.48V664.92c0-2.48,4.69-3.48,4.69-3.48,8.63-1.49,10.6-8,10.6-8h4.7v39Z"></path><path class="cls-4" d="M505.12,692.51h-4.7s-2-6.46-10.6-8c0,0-4.69-1-4.69-3.48V664.92c0-2.47,4.69-3.48,4.69-3.48,8.63-1.49,10.6-8,10.6-8h4.7v39Z"></path><polyline class="cls-1" points="462.31 680.14 449.11 670.51 449.11 657.34 462.54 647.73"></polyline><polyline class="cls-4" points="462.31 680.14 449.11 670.51 449.11 657.34 462.54 647.73"></polyline><polyline class="cls-1" points="462.83 553.28 449.11 543.76 449.11 530.09 461.82 521.4"></polyline><polyline class="cls-4" points="462.83 553.28 449.11 543.76 449.11 530.09 461.82 521.4"></polyline><path class="cls-1" d="M467.86,515.44c4.77,0,8.63,9.34,8.63,20.87s-3.86,20.88-8.63,20.88-8.63-9.35-8.63-20.88,3.86-20.87,8.63-20.87"></path><path class="cls-4" d="M467.86,515.44c4.77,0,8.63,9.35,8.63,20.87s-3.86,20.88-8.63,20.88-8.63-9.34-8.63-20.88,3.86-20.87,8.63-20.87Z"></path><path class="cls-1" d="M467.86,643.27c4.77,0,8.63,9.34,8.63,20.87S472.63,685,467.86,685s-8.63-9.35-8.63-20.88,3.86-20.87,8.63-20.87"></path><path class="cls-4" d="M467.86,643.27c4.77,0,8.63,9.35,8.63,20.87S472.63,685,467.86,685s-8.63-9.34-8.63-20.88,3.86-20.87,8.63-20.87Z"></path></svg> 