<?xml version="1.0" encoding="UTF-8"?> <svg xmlns="http://www.w3.org/2000/svg" id="Livello_1" data-name="Livello 1" viewBox="0 0 1000 1000.49"><defs><style>.cls-1{fill:#fff;}.cls-2{fill:#231f20;}.cls-3,.cls-4{fill:none;stroke-width:0.25px;}.cls-3{stroke:#000;}.cls-4{stroke:#231f20;stroke-miterlimit:10;}</style></defs><title>JeiJei maxi</title><rect class="cls-1" y="0.49" width="1000" height="1000"></rect><path class="cls-2" d="M430.61,14.88a22.52,22.52,0,0,0-.88-6.75,12,12,0,0,0-2.4-4.6A9,9,0,0,0,423.61.88a12.48,12.48,0,0,0-4.8-.88,12.66,12.66,0,0,0-4.8.88,8.82,8.82,0,0,0-3.67,2.65,12,12,0,0,0-2.4,4.6,22.52,22.52,0,0,0-.88,6.75v6a22.4,22.4,0,0,0,.88,6.7,13.13,13.13,0,0,0,2.4,4.66,9,9,0,0,0,3.72,2.64,12.66,12.66,0,0,0,4.8.88,12.48,12.48,0,0,0,4.8-.88,9,9,0,0,0,3.72-2.64,13.13,13.13,0,0,0,2.4-4.66,24.27,24.27,0,0,0,.83-6.7Zm-6.9,7a17.47,17.47,0,0,1-.35,3.91,7.35,7.35,0,0,1-.93,2.6,3.53,3.53,0,0,1-1.51,1.42,5,5,0,0,1-4.12,0,3.6,3.6,0,0,1-1.52-1.42,7.52,7.52,0,0,1-1-2.6,21.51,21.51,0,0,1-.3-3.91v-8a21,21,0,0,1,.3-3.87,7.06,7.06,0,0,1,.93-2.55A4.31,4.31,0,0,1,416.75,6a4.91,4.91,0,0,1,2.06-.39,4.62,4.62,0,0,1,2.06.39,4.05,4.05,0,0,1,1.56,1.42,7.06,7.06,0,0,1,.93,2.55,17.09,17.09,0,0,1,.35,3.87Zm18.08-2.3c.25-.25.49-.44.79-.69a4.75,4.75,0,0,1,.93-.64,8.7,8.7,0,0,1,1.27-.39,6,6,0,0,1,1.67-.19,6.5,6.5,0,0,1,2.49.44,4.42,4.42,0,0,1,1.72,1.27,4.21,4.21,0,0,1,1,1.91,8.17,8.17,0,0,1,.35,2.5,13.25,13.25,0,0,1-.25,2.54,6.41,6.41,0,0,1-.88,2.06,4,4,0,0,1-1.52,1.37,4.44,4.44,0,0,1-2.2.49A4.76,4.76,0,0,1,443.75,29a5,5,0,0,1-1.51-3.38h-6.86a10.2,10.2,0,0,0,1.08,4.31,9.78,9.78,0,0,0,2.64,3.18,11,11,0,0,0,3.72,2,14.5,14.5,0,0,0,4.36.68,12.85,12.85,0,0,0,5.19-1A10.48,10.48,0,0,0,456,32.27a10.64,10.64,0,0,0,2.21-3.73,14.28,14.28,0,0,0,.68-4.4,17.32,17.32,0,0,0-.68-4.95,10.48,10.48,0,0,0-2.11-3.67,9,9,0,0,0-3.33-2.3,11.7,11.7,0,0,0-4.5-.78c-.54,0-1.13.05-1.62.09a13.54,13.54,0,0,0-1.52.35,11.66,11.66,0,0,0-1.17.44,3.24,3.24,0,0,0-.88.44L444,6.27H457.8V.49H438.27l-2,17.67Zm45-4.66a22.52,22.52,0,0,0-.88-6.75,12,12,0,0,0-2.4-4.6A9,9,0,0,0,479.76.88,12.44,12.44,0,0,0,475,0a12.66,12.66,0,0,0-4.8.88,8.82,8.82,0,0,0-3.67,2.65,12,12,0,0,0-2.4,4.6,22.84,22.84,0,0,0-.88,6.75v6a22.72,22.72,0,0,0,.88,6.7,13.13,13.13,0,0,0,2.4,4.66,9,9,0,0,0,3.72,2.64,12.66,12.66,0,0,0,4.8.88,12.48,12.48,0,0,0,4.8-.88,9,9,0,0,0,3.72-2.64,13.13,13.13,0,0,0,2.4-4.66,24.27,24.27,0,0,0,.83-6.7Zm-6.9,7a18.15,18.15,0,0,1-.34,3.91,7.76,7.76,0,0,1-.93,2.6,3.55,3.55,0,0,1-1.52,1.42,5,5,0,0,1-4.11,0,3.49,3.49,0,0,1-1.52-1.42,7.52,7.52,0,0,1-1-2.6,21.51,21.51,0,0,1-.3-3.91v-8a21,21,0,0,1,.3-3.87,7.25,7.25,0,0,1,.93-2.55A4.26,4.26,0,0,1,472.91,6a4.84,4.84,0,0,1,2-.39A4.6,4.6,0,0,1,477,6a4,4,0,0,1,1.57,1.42,7.45,7.45,0,0,1,.93,2.55,17.75,17.75,0,0,1,.34,3.87ZM508.18.44h-.73l-14.4,5.19v5.58l8.23-2.54V35.3h6.9Zm25,17.19H519.76v5.53h13.46Zm29.11,12.09h-15l6.12-6.46c1.18-1.23,2.25-2.35,3.18-3.48a23.27,23.27,0,0,0,2.45-3.28,15.69,15.69,0,0,0,1.52-3.23,9.85,9.85,0,0,0,.59-3.38,11.4,11.4,0,0,0-.74-4.16,8.31,8.31,0,0,0-2.2-3.09A9.79,9.79,0,0,0,554.74.69,16.08,16.08,0,0,0,549.85,0a12.75,12.75,0,0,0-5,.93A11.08,11.08,0,0,0,541,3.38,10.65,10.65,0,0,0,538.59,7a12.4,12.4,0,0,0-.84,4.46h7a7.09,7.09,0,0,1,.34-2.35A5.51,5.51,0,0,1,546,7.25,4.48,4.48,0,0,1,547.6,6a4.85,4.85,0,0,1,2.15-.44,4.24,4.24,0,0,1,3.33,1.32,5.37,5.37,0,0,1,1.18,3.68,4.42,4.42,0,0,1-.25,1.56,8.87,8.87,0,0,1-.73,1.77,15.89,15.89,0,0,1-1.42,2.1,29.83,29.83,0,0,1-2.16,2.55l-11.26,12V35.3h23.89ZM587,.49h-7L565.49,23.4l.29,4.36h14.3V35.3H587V27.76h3.92V22.18H587Zm-7.39,10.23.49-.83V22.18h-7.74Z"></path><path class="cls-2" d="M449.9,74.67v25.85h2.89V82.8a12.73,12.73,0,0,1,.93-2.3,9.51,9.51,0,0,1,1.52-2,8.18,8.18,0,0,1,2.2-1.37,7,7,0,0,1,2.84-.49,8.55,8.55,0,0,1,2.59.34,4.71,4.71,0,0,1,3.28,3.18,10.1,10.1,0,0,1,.45,3.23v17.09h2.88V83.38a7.1,7.1,0,0,1,.59-2.3,9.1,9.1,0,0,1,1.47-2.15,8.3,8.3,0,0,1,2.35-1.62,7,7,0,0,1,3.13-.63,9.94,9.94,0,0,1,2.55.29,4.36,4.36,0,0,1,2,1.13,5.08,5.08,0,0,1,1.32,2.15,11,11,0,0,1,.44,3.38v16.89h2.84V83.68a14,14,0,0,0-.54-4.31A7.15,7.15,0,0,0,484,76.43a6.25,6.25,0,0,0-2.7-1.71,11.16,11.16,0,0,0-3.57-.54,11,11,0,0,0-2.89.39,10.3,10.3,0,0,0-2.45,1,9.12,9.12,0,0,0-2,1.61,11.53,11.53,0,0,0-1.47,2A6.88,6.88,0,0,0,466,75.35a9.71,9.71,0,0,0-4.9-1.17,9.22,9.22,0,0,0-2.64.34,8.87,8.87,0,0,0-2.3.93,7,7,0,0,0-1.91,1.47,9.78,9.78,0,0,0-1.52,2l-.1-4.21Zm62.87,25.85v-.29a10.09,10.09,0,0,1-.34-1.08c-.1-.39-.15-.83-.24-1.27s-.1-.88-.15-1.37a13.1,13.1,0,0,1,0-1.38V82.6a9.28,9.28,0,0,0-.69-3.67,7.24,7.24,0,0,0-1.95-2.65,8.63,8.63,0,0,0-2.94-1.56,12.09,12.09,0,0,0-3.82-.54,11.82,11.82,0,0,0-4.07.64,11.14,11.14,0,0,0-3.13,1.71,8,8,0,0,0-2,2.45,5.59,5.59,0,0,0-.68,2.79l2.84,0a4.22,4.22,0,0,1,.54-2.06,5.48,5.48,0,0,1,1.42-1.66A6.46,6.46,0,0,1,499.7,77a8.33,8.33,0,0,1,2.74-.44,7,7,0,0,1,5,1.61,5.67,5.67,0,0,1,1.71,4.36v2.94h-5.29a21.65,21.65,0,0,0-4.94.54,11.26,11.26,0,0,0-3.72,1.66,6.82,6.82,0,0,0-3.14,6,7.1,7.1,0,0,0,.59,2.88,6.81,6.81,0,0,0,1.66,2.35,7.86,7.86,0,0,0,2.65,1.57,11,11,0,0,0,3.43.54,13.39,13.39,0,0,0,2.84-.34,16.55,16.55,0,0,0,2.44-.88,9.38,9.38,0,0,0,2-1.33,7.71,7.71,0,0,0,1.52-1.56c.05.68.1,1.32.2,2a6,6,0,0,0,.39,1.62Zm-14.44-2.45A5.67,5.67,0,0,1,496.47,97a4.31,4.31,0,0,1-1.13-1.62,4.47,4.47,0,0,1-.44-2,4.91,4.91,0,0,1,.64-2.4,5.14,5.14,0,0,1,1.86-1.81,9,9,0,0,1,2.94-1.13,15.92,15.92,0,0,1,3.91-.39h4.9v5.68a8.51,8.51,0,0,1-1.27,2A10.16,10.16,0,0,1,506,97a9.65,9.65,0,0,1-2.4,1.07,10.63,10.63,0,0,1-2.89.39,7.1,7.1,0,0,1-2.4-.39Zm22.45-23.4H517.4l8.76,12.68L517,100.52h3.37l7.4-11,7.34,11h3.38l-9.16-13.17,8.77-12.68h-3.38l-7,10.48Zm25.82,0h-2.88v25.85h2.88Zm-2.88-6.12a2.08,2.08,0,0,0,1.46.54,2,2,0,0,0,1.42-.54,1.77,1.77,0,0,0,.54-1.37,1.71,1.71,0,0,0-.54-1.37,1.78,1.78,0,0,0-1.42-.59,1.88,1.88,0,0,0-1.46.59,1.85,1.85,0,0,0-.49,1.37,1.93,1.93,0,0,0,.49,1.37Z"></path><path class="cls-2" d="M416.87,149.24h2.89a13.79,13.79,0,0,1,3.58.39,7.6,7.6,0,0,1,2.79,1.27,5.94,5.94,0,0,1,1.81,2.26,7.9,7.9,0,0,1,.63,3.23,7.22,7.22,0,0,1-2.1,5.53,8.14,8.14,0,0,1-5.78,1.86,9.39,9.39,0,0,1-3.33-.54,7.87,7.87,0,0,1-2.59-1.52,6.8,6.8,0,0,1-1.72-2.39,7.68,7.68,0,0,1-.63-3h-2.84a9.37,9.37,0,0,0,.93,4.36,9.64,9.64,0,0,0,2.49,3.08,10.92,10.92,0,0,0,3.58,1.86,13.51,13.51,0,0,0,8.37-.05,10.07,10.07,0,0,0,3.43-1.91,10.52,10.52,0,0,0,2.25-3.13,10.37,10.37,0,0,0,.78-4.21,10.08,10.08,0,0,0-.39-2.74,7.15,7.15,0,0,0-1.17-2.4,8.79,8.79,0,0,0-2.06-2,9.63,9.63,0,0,0-3-1.27,10.11,10.11,0,0,0,2.6-1.42,8.63,8.63,0,0,0,1.86-1.86,8,8,0,0,0,1.13-2.21,7.66,7.66,0,0,0,.39-2.3A10.62,10.62,0,0,0,430,136a8.46,8.46,0,0,0-2.05-3,9,9,0,0,0-3.23-1.91,13.88,13.88,0,0,0-4.17-.63,11.44,11.44,0,0,0-4.16.73,9.88,9.88,0,0,0-3.33,2,9.64,9.64,0,0,0-2.2,3,9.42,9.42,0,0,0-.78,3.91H413a7.24,7.24,0,0,1,.58-3,6.32,6.32,0,0,1,1.62-2.26,7,7,0,0,1,2.4-1.46,9.67,9.67,0,0,1,3-.49,9.43,9.43,0,0,1,3.28.53,6.15,6.15,0,0,1,2.26,1.47,6.27,6.27,0,0,1,1.32,2.26,9,9,0,0,1,.44,2.88,6.82,6.82,0,0,1-.49,2.6,6,6,0,0,1-1.57,2.15,7.48,7.48,0,0,1-2.54,1.47,10.52,10.52,0,0,1-3.53.54h-2.89Zm42.52,14.1H441.13l9.69-11c.89-1,1.72-2.05,2.55-3.08a25.49,25.49,0,0,0,2.2-3.14,14,14,0,0,0,1.52-3.18,9.12,9.12,0,0,0,.59-3.18,10.79,10.79,0,0,0-.69-3.92,8,8,0,0,0-2.05-2.93,8.55,8.55,0,0,0-3.19-1.87,14.35,14.35,0,0,0-4.21-.63,11.69,11.69,0,0,0-4.5.83,10.38,10.38,0,0,0-3.38,2.3,10.2,10.2,0,0,0-2.1,3.33,11.29,11.29,0,0,0-.74,4.06h2.84a8.67,8.67,0,0,1,.59-3.23,7,7,0,0,1,1.57-2.54,6.08,6.08,0,0,1,2.44-1.67,7.87,7.87,0,0,1,3.28-.63,9,9,0,0,1,3.14.53,6.2,6.2,0,0,1,2.25,1.47,5.85,5.85,0,0,1,1.37,2.26,8,8,0,0,1,.49,2.88,8.83,8.83,0,0,1-.29,2.21,12.4,12.4,0,0,1-1,2.4,22.27,22.27,0,0,1-1.81,2.69c-.74,1-1.62,2.06-2.7,3.28L437.6,163.54v2.2h21.79ZM480.26,129h-2.89v36.72h2.89Zm11,10.87h-2.89v25.85h2.89Zm-2.89-6.12a2.09,2.09,0,0,0,1.47.54,2,2,0,0,0,1.42-.54,1.81,1.81,0,0,0,.54-1.37,1.74,1.74,0,0,0-.54-1.37,1.81,1.81,0,0,0-1.42-.59,1.85,1.85,0,0,0-2,2,2,2,0,0,0,.49,1.37Zm9.49,19.29a18.33,18.33,0,0,0,.68,5.34,12.22,12.22,0,0,0,2,4.16,9.8,9.8,0,0,0,3.13,2.69,8.85,8.85,0,0,0,4.17,1,10.2,10.2,0,0,0,4.74-1,8.85,8.85,0,0,0,3.24-2.79v3a10.85,10.85,0,0,1-.49,3.47,6.88,6.88,0,0,1-1.52,2.55,6.09,6.09,0,0,1-2.4,1.66,9.14,9.14,0,0,1-3.23.54,8.47,8.47,0,0,1-3.87-.88,11.3,11.3,0,0,1-3.38-2.84l-1.56,1.72a8.19,8.19,0,0,0,1.81,1.95,12.88,12.88,0,0,0,2.25,1.37,13.89,13.89,0,0,0,2.45.84,11.06,11.06,0,0,0,2.49.24,11.75,11.75,0,0,0,4.26-.73,9.17,9.17,0,0,0,3.28-2.11,9.6,9.6,0,0,0,2.06-3.38,12.93,12.93,0,0,0,.78-4.5V139.89H516l-.15,3.72a9.4,9.4,0,0,0-3.28-3.09,10.32,10.32,0,0,0-9-.19,9.52,9.52,0,0,0-3.13,2.64,12.22,12.22,0,0,0-2,4.16,18.8,18.8,0,0,0-.68,5.44Zm2.89-.49a18.76,18.76,0,0,1,.44-4.21,10.5,10.5,0,0,1,1.37-3.38,6.54,6.54,0,0,1,2.4-2.25,6.31,6.31,0,0,1,3.42-.83,9.17,9.17,0,0,1,2.75.39,7.06,7.06,0,0,1,3.62,2.74,8.57,8.57,0,0,1,1,2v12a9.61,9.61,0,0,1-1.13,1.91,6.25,6.25,0,0,1-1.57,1.47,7.75,7.75,0,0,1-2.1,1,9.11,9.11,0,0,1-2.65.34,6.68,6.68,0,0,1-5.77-3.08,10.5,10.5,0,0,1-1.37-3.38,18.45,18.45,0,0,1-.44-4.21ZM528.93,129h-2.84v36.72h2.84V148a10.61,10.61,0,0,1,1.13-2.26,7.87,7.87,0,0,1,1.61-2,8.63,8.63,0,0,1,2.2-1.38,7.39,7.39,0,0,1,2.8-.48,8.22,8.22,0,0,1,2.54.34,4.22,4.22,0,0,1,1.91,1.12,5.75,5.75,0,0,1,1.22,2.16,10.89,10.89,0,0,1,.45,3.38v16.84h2.84V148.9a14.23,14.23,0,0,0-.59-4.36,8,8,0,0,0-1.62-2.94,6,6,0,0,0-2.59-1.66,9.68,9.68,0,0,0-3.48-.54,8.87,8.87,0,0,0-2.59.34,9,9,0,0,0-2.31,1,9.72,9.72,0,0,0-2,1.52,10.34,10.34,0,0,0-1.57,2Zm25.58,4.21v6.66h-4.75v2.35h4.75v17.23a10.37,10.37,0,0,0,.44,3.23,5.45,5.45,0,0,0,1.18,2.06,3.77,3.77,0,0,0,1.76,1.13,6.89,6.89,0,0,0,2.25.34c.59,0,1.13,0,1.71-.1a8.19,8.19,0,0,0,1.38-.34l-.15-2.3c-.3,0-.69.1-1.08.14a9.56,9.56,0,0,1-1.22.05,5.91,5.91,0,0,1-1.28-.14,2.13,2.13,0,0,1-1.07-.59,2.85,2.85,0,0,1-.74-1.32,6.75,6.75,0,0,1-.29-2.16V142.24h5.34v-2.35H557.4v-6.66Zm29.21,27.66a4.59,4.59,0,0,1-1.27,1.52,9.78,9.78,0,0,1-2.1,1,10.66,10.66,0,0,1-2.89.34,10.94,10.94,0,0,1-2.45-.24,7.33,7.33,0,0,1-2.3-.88,4.91,4.91,0,0,1-2.5-4.17h-2.89a6.61,6.61,0,0,0,.69,2.89,7.34,7.34,0,0,0,2,2.5,9.67,9.67,0,0,0,3.13,1.71,14.87,14.87,0,0,0,4.36.64,14.15,14.15,0,0,0,4-.54,8.36,8.36,0,0,0,3-1.47,7.14,7.14,0,0,0,2-2.25A6.47,6.47,0,0,0,587,159a6.1,6.1,0,0,0-.54-2.74,5.63,5.63,0,0,0-1.62-2.11,12.09,12.09,0,0,0-2.84-1.61,27.94,27.94,0,0,0-4-1.18,27.14,27.14,0,0,1-3.53-1,7.72,7.72,0,0,1-2.1-1.13,2.54,2.54,0,0,1-1-1.32,4,4,0,0,1-.3-1.57,3.79,3.79,0,0,1,.4-1.61,3.71,3.71,0,0,1,1.07-1.47,6.4,6.4,0,0,1,2-1,8,8,0,0,1,2.84-.39,8.26,8.26,0,0,1,2.84.44,6.19,6.19,0,0,1,2.11,1.17,5.06,5.06,0,0,1,1.32,1.72,4.59,4.59,0,0,1,.44,1.95h2.84a7.11,7.11,0,0,0-.64-3.08,7.66,7.66,0,0,0-1.86-2.45,9.51,9.51,0,0,0-3-1.61,12.41,12.41,0,0,0-4-.59,12.29,12.29,0,0,0-3.77.54,9.63,9.63,0,0,0-2.89,1.51,6.58,6.58,0,0,0-1.81,2.26,5.93,5.93,0,0,0-.64,2.74,6.11,6.11,0,0,0,.59,2.74,5.35,5.35,0,0,0,1.76,2,10.39,10.39,0,0,0,2.84,1.47,32.08,32.08,0,0,0,3.82,1,20.49,20.49,0,0,1,3.53,1.07,7,7,0,0,1,2.1,1.32,4.39,4.39,0,0,1,1,1.47,4.64,4.64,0,0,1,.3,1.62,3.5,3.5,0,0,1-.45,1.71Z"></path><path class="cls-3" d="M275.87,778.32H704.68M752,367V728.17M236.8,261V728.17"></path><path d="M791.44,555.67v.55l3.79,10.13h3.21l-2.62-7.12h23.54v-3.56Zm25-28.6v14l-8.09-7.43c-3.76-3.52-7-5.24-9.78-5.24a7,7,0,0,0-5.4,2.23,8.82,8.82,0,0,0-2,6.14,9,9,0,0,0,2.38,6.61,8.06,8.06,0,0,0,6.18,2.5v-3.56a5.76,5.76,0,0,1-4.18-1.44,5.57,5.57,0,0,1-1.49-4.11,4.65,4.65,0,0,1,1.41-3.52,5,5,0,0,1,3.56-1.29,6.75,6.75,0,0,1,3.13.78,22.73,22.73,0,0,1,4,3l10.71,9.63h2.54V527.07Zm-13.53-21.21c-4,0-7,.78-8.88,2.19s-2.89,3.6-2.89,6.61,1,5.24,3,6.65,5,2.11,9.11,2.11H808c3.91,0,6.85-.78,8.84-2.23s2.94-3.6,2.94-6.57-1-5.24-3-6.65-5.08-2.11-9.23-2.11Zm5.51,3.52c2.9,0,5,.51,6.38,1.33a4.74,4.74,0,0,1-.12,7.86c-1.45.86-3.64,1.33-6.65,1.33h-5.67a13,13,0,0,1-6.3-1.29,4.87,4.87,0,0,1,0-7.94c1.37-.86,3.52-1.29,6.53-1.29Z"></path><path d="M459.51,839.5l-1.92,3.88H460l1.41-2.86a9.82,9.82,0,0,0,3.63.67,8.7,8.7,0,0,0,8.22-5.05,12.34,12.34,0,0,0,1.17-5.44c0-4.06-1.25-7.11-3.72-9.07l2-3.91h-2.39l-1.36,2.86a9.37,9.37,0,0,0-3.92-.83,8.81,8.81,0,0,0-8.21,5.09,12.2,12.2,0,0,0-1.17,5.43c0,4.27,1.33,7.32,3.91,9.23Zm1.25-14.78a5.08,5.08,0,0,1,4.22-2.07,5.26,5.26,0,0,1,2.55.62L461,836.53a8.48,8.48,0,0,1-1.84-5.83,9.58,9.58,0,0,1,1.6-6Zm10.09,5.87a9.21,9.21,0,0,1-1.56,5.63,5.22,5.22,0,0,1-4.27,2.07,5.38,5.38,0,0,1-2.3-.47l6.49-13.14a8.93,8.93,0,0,1,1.64,5.59ZM490,812.87h-.55l-10.13,3.79v3.21l7.12-2.62V840.8H490Zm28.6,25h-14l7.43-8.09c3.52-3.76,5.24-7,5.24-9.78a7,7,0,0,0-2.23-5.4,8.82,8.82,0,0,0-6.14-2,9,9,0,0,0-6.61,2.38,8.06,8.06,0,0,0-2.5,6.18h3.56a5.8,5.8,0,0,1,1.44-4.18,5.57,5.57,0,0,1,4.11-1.49,4.65,4.65,0,0,1,3.52,1.41,5,5,0,0,1,1.29,3.56,6.75,6.75,0,0,1-.78,3.13,22.73,22.73,0,0,1-3,3.95l-9.63,10.71v2.55h18.23Zm21.21-13.53c0-4-.78-7-2.19-8.88S534,812.6,531,812.6s-5.24,1-6.65,3-2.11,5-2.11,9.11v4.73c0,3.92.78,6.85,2.23,8.84s3.6,2.94,6.57,2.94,5.24-1,6.65-3,2.11-5.08,2.11-9.23Zm-3.52,5.51c0,2.9-.51,5-1.33,6.38a4.74,4.74,0,0,1-7.86-.12c-.86-1.45-1.33-3.64-1.33-6.65v-5.67a13,13,0,0,1,1.29-6.3,4.27,4.27,0,0,1,4-2,4.32,4.32,0,0,1,4,2.07c.86,1.37,1.29,3.52,1.29,6.54Z"></path><path d="M186.28,652.77h20.65v-3.52H191.88a4.71,4.71,0,0,1-3-4.77c0-2.93,1.49-4.38,4.5-4.38h13.53v-3.56H193.24a4.83,4.83,0,0,1-3.16-1.53,4.62,4.62,0,0,1-1.18-3.24,4.34,4.34,0,0,1,1.1-3.4,4.8,4.8,0,0,1,3.32-1h13.61v-3.52H193.09c-4.81.08-7.2,2.38-7.2,6.88a8.07,8.07,0,0,0,.9,3.91,8.43,8.43,0,0,0,2.43,2.7c-2.23,1.06-3.33,3-3.33,5.91a7.64,7.64,0,0,0,2.66,6.1l-2.27.12Zm0-38.15v3.56h20.65v-3.56Zm-4.06,3.32a2,2,0,0,0,.58-1.56,2,2,0,0,0-.58-1.56,2.08,2.08,0,0,0-1.45-.55,2.11,2.11,0,0,0-1.45.55,2,2,0,0,0-.59,1.56,2,2,0,0,0,.59,1.56,2.08,2.08,0,0,0,1.45.51,2,2,0,0,0,1.45-.51Zm4.06-9h20.65v-3.56h-14.7a6.13,6.13,0,0,1-2.43-2,5.22,5.22,0,0,1-.9-3,4.17,4.17,0,0,1,1.06-3.13,5.06,5.06,0,0,1,3.32-1h13.65v-3.52H193.28c-4.92,0-7.39,2.23-7.39,6.61a7.48,7.48,0,0,0,3,6.18l-2.58.12ZM179,566.42V567l3.79,10.13H186L183.39,570h23.54v-3.55Zm25-28.61v14l-8.1-7.43c-3.75-3.52-7-5.25-9.77-5.25a7,7,0,0,0-5.4,2.23,8.83,8.83,0,0,0-2,6.14,9,9,0,0,0,2.39,6.61,8,8,0,0,0,6.18,2.51V553a5.81,5.81,0,0,1-4.19-1.45,5.6,5.6,0,0,1-1.48-4.11A4.66,4.66,0,0,1,183,544a5,5,0,0,1,3.56-1.29,6.69,6.69,0,0,1,3.12.79,21.06,21.06,0,0,1,3.95,3L204.39,556h2.54V537.81Zm-10.33-8.22-.74-.94a5.86,5.86,0,0,1-1-3.64,5.11,5.11,0,0,1,1.69-4,6.48,6.48,0,0,1,4.49-1.52,7,7,0,0,1,4.62,1.41,4.75,4.75,0,0,1,1.68,3.87,5.27,5.27,0,0,1-1.21,3.64,5.61,5.61,0,0,1-3.6,1.68v3.36a8.18,8.18,0,0,0,5.67-2.66,8.76,8.76,0,0,0,2-6,8.51,8.51,0,0,0-2.46-6.49,9.56,9.56,0,0,0-6.77-2.31,9.88,9.88,0,0,0-6.8,2.23,7.66,7.66,0,0,0-2.5,6,8.83,8.83,0,0,0,1.21,4.66l-7.59-.83V516.76h-3.28V531L193,532.4Zm0-34.94V504h2.9v-9.31Zm-7.39-13.15h20.65V478H191.88a4.72,4.72,0,0,1-3-4.78c0-2.93,1.49-4.38,4.5-4.38h13.53v-3.55H193.24a4.88,4.88,0,0,1-3.16-1.53,4.64,4.64,0,0,1-1.18-3.25,4.37,4.37,0,0,1,1.1-3.4,4.85,4.85,0,0,1,3.32-1h13.61v-3.52H193.09c-4.81.08-7.2,2.39-7.2,6.89a8.12,8.12,0,0,0,.9,3.91,8.65,8.65,0,0,0,2.43,2.7c-2.23,1.05-3.33,3-3.33,5.9a7.61,7.61,0,0,0,2.66,6.1l-2.27.12Zm20.65-50.75h-.31a11.85,11.85,0,0,1-4.54.71h-9.5a6.38,6.38,0,0,0-4.89,2.11,8,8,0,0,0-1.8,5.59,9.85,9.85,0,0,0,.86,4.15,7.27,7.27,0,0,0,2.27,3,4.85,4.85,0,0,0,3,1.09v-3.56a2.83,2.83,0,0,1-2.3-1.29,5,5,0,0,1-.94-3.16,4.42,4.42,0,0,1,1.09-3.25,4,4,0,0,1,2.93-1.1h1.65v3.41c0,3,.58,5.28,1.8,6.92a5.79,5.79,0,0,0,5,2.46,5.67,5.67,0,0,0,4.38-1.95,7.38,7.38,0,0,0,1.72-5,8,8,0,0,0-2.54-5.9,6.24,6.24,0,0,0,2.15-.51Zm-3.56,12.4a3.25,3.25,0,0,1-2.62,1.09c-2.54,0-3.83-2.15-3.83-6.49V435h4.26a5,5,0,0,1,2.27,2.16,5.92,5.92,0,0,1,.86,3.12,4.23,4.23,0,0,1-.94,2.86Zm-17.09-19.64v4.1l10.21-6.76,10.44,7V423.7l-7.74-4.77,7.74-4.77v-4.11l-10.44,7-10.21-6.76v4.1l7.55,4.58Zm-7.27-38v.55l3.79,10.13H186l-2.62-7.12h23.54v-3.56Zm1.8-25a9.48,9.48,0,0,0,0,11.85,7.16,7.16,0,0,0,5.55,2.27,6.45,6.45,0,0,0,3.72-1.1,7.69,7.69,0,0,0,2.54-2.89,7.34,7.34,0,0,0,2.74,3.4,7.09,7.09,0,0,0,4.06,1.21,7.35,7.35,0,0,0,5.75-2.38,10.71,10.71,0,0,0,0-12.87,7.28,7.28,0,0,0-5.75-2.42,6.79,6.79,0,0,0-4.06,1.29,7.64,7.64,0,0,0-2.74,3.44,7.6,7.6,0,0,0-2.54-3,6.36,6.36,0,0,0-3.72-1.1,7,7,0,0,0-5.55,2.27Zm22.25,2a6.22,6.22,0,0,1,0,7.79,5,5,0,0,1-3.71,1.4,5.23,5.23,0,0,1-3.84-1.44,5.07,5.07,0,0,1-1.44-3.84,5.37,5.37,0,0,1,1.48-3.87,5.12,5.12,0,0,1,3.8-1.48,4.93,4.93,0,0,1,3.71,1.44Zm-20.1.55a5.22,5.22,0,0,1,6.92,0,4.46,4.46,0,0,1,1.29,3.37,4.61,4.61,0,0,1-1.29,3.4,5.4,5.4,0,0,1-7,0,4.51,4.51,0,0,1-1.29-3.36,4.43,4.43,0,0,1,1.33-3.33Zm10.75-14.44-.74-.94a5.86,5.86,0,0,1-1-3.64,5.11,5.11,0,0,1,1.69-4,6.48,6.48,0,0,1,4.49-1.52,7,7,0,0,1,4.62,1.41,4.74,4.74,0,0,1,1.68,3.87,5.27,5.27,0,0,1-1.21,3.64,5.66,5.66,0,0,1-3.6,1.68v3.36a8.18,8.18,0,0,0,5.67-2.66,8.76,8.76,0,0,0,2-6,8.51,8.51,0,0,0-2.46-6.49,9.56,9.56,0,0,0-6.77-2.31,9.88,9.88,0,0,0-6.8,2.23,7.65,7.65,0,0,0-2.5,6A8.77,8.77,0,0,0,190,348l-7.59-.82V335.9h-3.28v14.24l13.88,1.4Z"></path><polyline class="cls-1" points="462.26 513.06 462.26 507.96 473.02 517.15 473.02 588.16 465.27 587.13"></polyline><polyline class="cls-4" points="462.26 513.06 462.26 507.96 473.02 517.15 473.02 588.16 465.27 587.13"></polyline><polyline class="cls-1" points="518.73 552.65 518.07 506.48 516.1 508.45 508.56 515.99 510.53 587.13 521.01 589.43"></polyline><polyline class="cls-4" points="518.73 552.65 518.07 506.48 516.1 508.45 508.56 515.99 510.53 587.13 521.01 589.43"></polyline><path class="cls-1" d="M516.08,549.89l19-38.08,1.83-7.6,3.26-7.88-13,3.21-3,9.06s-7,31.63-7,40.33"></path><path class="cls-4" d="M516.08,549.89l19-38.08,1.83-7.6,3.26-7.88-13,3.21-3,9.06s-7,31.63-7,40.33"></path><polygon class="cls-1" points="538.01 601.49 547.8 592.32 552.45 589.43 552.45 605.62 550.36 613.46 547.49 613.46 538.01 608.57 538.01 601.49"></polygon><path class="cls-1" d="M457,593.45c2.42-1.17,6.79-42,6.79-42l-4.79.58L446.33,588.9l-2.5,8.12"></path><path class="cls-4" d="M457,593.45c2.42-1.17,6.79-42,6.79-42l-4.79.58L446.33,588.9l-2.5,8.12"></path><polygon class="cls-1" points="487.43 371.24 492.08 379.89 492.08 371.91 492.08 300.39 487.43 299.53 487.43 371.24"></polygon><polyline class="cls-4" points="492.08 300.39 492.08 371.91 492.08 379.89 487.43 371.24 487.43 299.53"></polyline><path class="cls-1" d="M560.68,498.31c3.78-2.55,16.7-1.9,16.7-1.9v9s-11.65-1.78-17.76,1"></path><path class="cls-4" d="M560.68,498.31c3.78-2.55,16.7-1.9,16.7-1.9v9s-11.65-1.78-17.76,1"></path><path class="cls-1" d="M538,492.1c38.51-88.34,144.75-94.24,144.75-94.24v-8.43s-120.63.39-154.93,105.08"></path><path class="cls-4" d="M538,492.1c38.51-88.34,144.75-94.24,144.75-94.24v-8.43s-120.63.39-154.93,105.08"></path><path class="cls-1" d="M518.53,499.21c4.66-79,42.15-102.51,42.15-102.51v-15S513,396.28,508.14,507.32"></path><path class="cls-4" d="M518.53,499.21c4.66-79,42.15-102.51,42.15-102.51v-15S513,396.28,508.14,507.32"></path><polyline class="cls-1" points="486.26 552.07 485.67 689.7 489.26 698.03 494.7 689.61 494.7 552.07"></polyline><polyline class="cls-4" points="486.26 552.07 485.67 689.7 489.26 698.03 494.7 689.61 494.7 552.07"></polyline><polyline class="cls-1" points="494.7 548.87 494.7 409.65 488.86 404.31 485.1 409.21 486.26 549.3"></polyline><polyline class="cls-4" points="494.7 548.87 494.7 409.65 488.86 404.31 485.1 409.21 486.26 549.3"></polyline><path class="cls-1" d="M508.56,390.78a18.85,18.85,0,1,1-18.84-18.87,18.86,18.86,0,0,1,18.84,18.87"></path><path class="cls-4" d="M508.56,390.78a18.85,18.85,0,1,1-18.84-18.87,18.86,18.86,0,0,1,18.84,18.87Z"></path><path class="cls-1" d="M419.58,716.46l-12.08,3.95a33.75,33.75,0,0,0,0-25.59l12.08,6.8"></path><path class="cls-4" d="M419.58,716.46l-12.08,3.95a33.75,33.75,0,0,0,0-25.59l12.08,6.8"></path><path class="cls-1" d="M410.28,707.61c0,10.68-5,19.35-11.11,19.35s-11.1-8.67-11.1-19.35,5-19.35,11.1-19.35,11.11,8.66,11.11,19.35"></path><path class="cls-4" d="M410.28,707.61c0,10.68-5,19.35-11.11,19.35s-11.1-8.67-11.1-19.35,5-19.35,11.1-19.35,11.11,8.66,11.11,19.35Z"></path><path class="cls-1" d="M463.05,601.63s-8.43,82.82-43.47,100v14.84C467.7,699.3,473,593,473,593"></path><path class="cls-4" d="M463.05,601.63s-8.43,82.82-43.47,100v14.84C467.7,699.3,473,593,473,593"></path><path class="cls-1" d="M454.51,605.62S419.1,710.06,297.76,712.1v-9.31c109.71-4.08,144.62-93.27,144.62-93.27"></path><path class="cls-4" d="M454.51,605.62S419.1,710.06,297.76,712.1v-9.31c109.71-4.08,144.62-93.27,144.62-93.27m19.88-96.46s2.85,61.57,3,74.07l-3-74.07Z"></path><path class="cls-1" d="M432.26,591.87l10.12,5.8c37.7-3.83,34.3-46.86,34.3-46.86h8.42s8.72,46.63-42.72,58.72v0l-10.12,5.39"></path><path class="cls-4" d="M432.26,591.87l10.12,5.8c37.7-3.83,34.3-46.86,34.3-46.86h8.42s8.72,46.63-42.72,58.72v0l-10.12,5.39"></path><path class="cls-1" d="M419.58,605.9S407.45,609,404.72,607l0-7.81c11.78-.87,15.58-3.07,15.58-3.07"></path><path class="cls-4" d="M419.58,605.9S407.45,609,404.72,607l0-7.81c11.78-.87,15.58-3.07,15.58-3.07"></path><path class="cls-1" d="M418.54,505.49c.58-3.22-13.8-2.51-13.8-2.51V495s9.77-2.47,14.84,3.27"></path><path class="cls-4" d="M418.54,505.49c.58-3.22-13.8-2.51-13.8-2.51V495s9.77-2.47,14.84,3.27"></path><path class="cls-1" d="M463.58,502.91c-10.17-94.48-45-101.84-45-101.84l1-15.72s50.51,20.08,53.51,126.57"></path><path class="cls-4" d="M463.58,502.91c-10.17-94.48-45-101.84-45-101.84l1-15.72s50.51,20.08,53.51,126.57"></path><path class="cls-1" d="M453.71,496.93C419.42,390.74,297.76,387.68,297.76,387.68v9s104.36,1.76,145.92,97.81"></path><path class="cls-4" d="M453.71,496.93C419.42,390.74,297.76,387.68,297.76,387.68v9s104.36,1.76,145.92,97.81"></path><path class="cls-1" d="M490.63,299.53h12.79c7.56.29,8.14-5.82,8.14-5.82v-7.27c.58-7,16-19.79,16-19.79V262H490.63"></path><path class="cls-4" d="M490.63,299.53h12.79c7.56.29,8.14-5.82,8.14-5.82v-7.27c.58-7,16-19.79,16-19.79V262H490.63"></path><path class="cls-1" d="M490.63,299.53H477.84c-7.56.29-8.14-5.82-8.14-5.82v-7.27c-.58-7-16-19.79-16-19.79V262h36.92"></path><path class="cls-4" d="M490.63,299.53H477.84c-7.56.29-8.14-5.82-8.14-5.82v-7.27c-.58-7-16-19.79-16-19.79V262h36.92"></path><path class="cls-1" d="M575.5,720.75,563,712.44c-48.46-14.81-52.45-120.12-52.45-120.12l10.37,9.19s2.62,73.54,42.08,96.89l13.73-5.27"></path><path class="cls-4" d="M575.5,720.75,563,712.44c-48.46-14.81-52.45-120.12-52.45-120.12l10.37,9.19s2.62,73.54,42.08,96.89l13.73-5.27M526.56,560.06l-7.83-7.41L521,589.43"></path><path class="cls-1" d="M535.86,590.84l2.85,8.57-10.89-4.11c-3.44-6.62-8.36-42.65-8.36-42.65"></path><path class="cls-4" d="M535.86,590.84l2.85,8.57-10.89-4.11c-3.44-6.62-8.36-42.65-8.36-42.65"></path><path class="cls-1" d="M529.72,606.4s35,104.74,155.42,106.48v-9.73c-110.86-2.91-140-90.67-140-90.67"></path><path class="cls-4" d="M529.72,606.4s35,104.74,155.42,106.48v-9.73c-110.86-2.91-140-90.67-140-90.67"></path><path class="cls-1" d="M542.29,596.65c-21.15-13.2-24.47-52.06-22.23-48.28l7.06.5s2.57,31,21,41.45"></path><path class="cls-4" d="M542.29,596.65c-21.15-13.2-24.47-52.06-22.23-48.28l7.06.5s2.57,31,21,41.45"></path><path class="cls-1" d="M563,608.18A141.42,141.42,0,0,0,579.69,610v-8.46c-12.19-.33-16.7-3.33-16.7-3.33"></path><path class="cls-4" d="M563,608.18A141.42,141.42,0,0,0,579.69,610v-8.46c-12.19-.33-16.7-3.33-16.7-3.33"></path><path class="cls-1" d="M434.4,603.06c0,8.8-3.32,15.93-7.41,15.93s-7.41-7.13-7.41-15.93,3.32-15.93,7.41-15.93,7.41,7.12,7.41,15.93"></path><path class="cls-4" d="M434.4,603.06c0,8.8-3.32,15.93-7.41,15.93s-7.41-7.13-7.41-15.93,3.32-15.93,7.41-15.93,7.41,7.12,7.41,15.93Z"></path><path class="cls-1" d="M508.14,708.48a18.85,18.85,0,1,1-18.85-18.87,18.86,18.86,0,0,1,18.85,18.87"></path><path class="cls-4" d="M508.14,708.48a18.85,18.85,0,1,1-18.85-18.87,18.86,18.86,0,0,1,18.85,18.87Z"></path><path class="cls-1" d="M577.42,499.93l.05-5.52c-.09-3.26,2.37-3.49,2.37-3.49l2.91,0c2.8-.22,8-6.82,8-6.82h1.86l-.13,15.93"></path><path class="cls-4" d="M577.42,499.93l.05-5.52c-.09-3.26,2.37-3.49,2.37-3.49l2.91,0c2.8-.22,8-6.82,8-6.82h1.86l-.13,15.93"></path><path class="cls-1" d="M577.42,499.93l0,5.52c-.14,3.26,2.31,3.52,2.31,3.52l2.92,0c2.79.27,7.88,7,7.88,7l1.87,0,.12-15.92"></path><path class="cls-4" d="M577.42,499.93l0,5.52c-.14,3.26,2.31,3.52,2.31,3.52l2.92,0c2.79.27,7.88,7,7.88,7l1.87,0,.12-15.92"></path><path class="cls-1" d="M682.82,393.45l.07-6.75c-.12-4,3.1-4.27,3.1-4.27l3.83,0c3.69-.27,10.49-8.34,10.49-8.34h2.46l-.17,19.49"></path><path class="cls-4" d="M682.82,393.45l.07-6.75c-.12-4,3.1-4.27,3.1-4.27l3.83,0c3.69-.27,10.49-8.34,10.49-8.34h2.46l-.17,19.49"></path><path class="cls-1" d="M682.82,393.45l-.05,6.75c-.18,4,3,4.32,3,4.32l3.83,0c3.68.34,10.35,8.53,10.35,8.53l2.45,0,.17-19.48"></path><path class="cls-4" d="M682.82,393.45l-.05,6.75c-.18,4,3,4.32,3,4.32l3.83,0c3.68.34,10.35,8.53,10.35,8.53l2.45,0,.17-19.48"></path><polyline class="cls-1" points="573.64 376.63 560.68 381.66 560.68 396.7 573.64 404.31"></polyline><polyline class="cls-4" points="573.64 376.63 560.68 381.66 560.68 396.7 573.64 404.31"></polyline><path class="cls-1" d="M592.65,390.73c0,10.69-5,19.35-11.1,19.35s-11.1-8.66-11.1-19.35,5-19.34,11.1-19.34,11.1,8.66,11.1,19.34"></path><path class="cls-4" d="M592.65,390.73c0,10.69-5,19.35-11.1,19.35s-11.1-8.66-11.1-19.35,5-19.34,11.1-19.34,11.1,8.66,11.1,19.34Z"></path><path class="cls-1" d="M577.45,604l0-5.52c-.09-3.26,2.36-3.49,2.36-3.49l2.93,0c2.8-.22,8-6.82,8-6.82l1.86,0-.12,15.92"></path><path class="cls-4" d="M577.45,604l0-5.52c-.09-3.26,2.36-3.49,2.36-3.49l2.93,0c2.8-.22,8-6.82,8-6.82l1.86,0-.12,15.92"></path><path class="cls-1" d="M577.45,604l0,5.52c-.14,3.26,2.3,3.53,2.3,3.53l2.92,0c2.8.27,7.88,7,7.88,7l1.87,0,.13-15.92"></path><path class="cls-4" d="M577.45,604l0,5.52c-.14,3.26,2.3,3.53,2.3,3.53l2.92,0c2.8.27,7.88,7,7.88,7l1.87,0,.13-15.92"></path><path class="cls-1" d="M683.09,707.61l.06-6.75c-.11-4,3.11-4.27,3.11-4.27l3.83,0c3.68-.27,10.49-8.34,10.49-8.34l2.45,0-.17,19.48"></path><path class="cls-4" d="M683.09,707.61l.06-6.75c-.11-4,3.11-4.27,3.11-4.27l3.83,0c3.68-.27,10.49-8.34,10.49-8.34l2.45,0-.17,19.48"></path><path class="cls-1" d="M683.09,707.61l-.05,6.75c-.19,4,3,4.32,3,4.32l3.84,0c3.67.34,10.34,8.53,10.34,8.53l2.45,0,.17-19.48"></path><path class="cls-4" d="M683.09,707.61l-.05,6.75c-.19,4,3,4.32,3,4.32l3.84,0c3.67.34,10.34,8.53,10.34,8.53l2.45,0,.17-19.48M540.35,610l10,4.81"></path><path class="cls-1" d="M297.46,707.68l-.07-6.75c.13-4-3.1-4.26-3.1-4.26l-3.83,0c-3.68-.27-10.5-8.35-10.5-8.35l-2.44,0,.16,19.48"></path><path class="cls-4" d="M297.46,707.68l-.07-6.75c.13-4-3.1-4.26-3.1-4.26l-3.83,0c-3.68-.27-10.5-8.35-10.5-8.35l-2.44,0,.16,19.48"></path><path class="cls-1" d="M297.46,707.68l.05,6.75c.19,4-3,4.33-3,4.33l-3.83,0c-3.67.34-10.35,8.52-10.35,8.52l-2.45,0-.17-19.49"></path><path class="cls-4" d="M297.46,707.68l.05,6.75c.19,4-3,4.33-3,4.33l-3.83,0c-3.67.34-10.35,8.52-10.35,8.52l-2.45,0-.17-19.49"></path><path class="cls-1" d="M404.7,497.46l-.06-5.51c.1-3.27-2.36-3.49-2.36-3.49l-2.91,0c-2.81-.23-8-6.82-8-6.82h-1.86l.13,15.93"></path><path class="cls-4" d="M404.7,497.46l-.06-5.51c.1-3.27-2.36-3.49-2.36-3.49l-2.91,0c-2.81-.23-8-6.82-8-6.82h-1.86l.13,15.93"></path><path class="cls-1" d="M404.7,497.46l0,5.51c.14,3.26-2.31,3.54-2.31,3.54l-2.92,0c-2.8.29-7.88,7-7.88,7l-1.87,0-.12-15.93"></path><path class="cls-4" d="M404.7,497.46l0,5.51c.14,3.26-2.31,3.54-2.31,3.54l-2.92,0c-2.8.29-7.88,7-7.88,7l-1.87,0-.12-15.93"></path><path class="cls-1" d="M297.7,391.24l-.06-6.75c.12-4-3.11-4.27-3.11-4.27l-3.82,0c-3.69-.28-10.5-8.35-10.5-8.35l-2.45,0,.17,19.48"></path><path class="cls-4" d="M297.7,391.24l-.06-6.75c.12-4-3.11-4.27-3.11-4.27l-3.82,0c-3.69-.28-10.5-8.35-10.5-8.35l-2.45,0,.17,19.48"></path><path class="cls-1" d="M297.7,391.24l.06,6.75c.19,4-3,4.33-3,4.33l-3.82,0c-3.68.34-10.35,8.52-10.35,8.52l-2.46,0-.16-19.48"></path><path class="cls-4" d="M297.7,391.24l.06,6.75c.19,4-3,4.33-3,4.33l-3.82,0c-3.68.34-10.35,8.52-10.35,8.52l-2.46,0-.16-19.48"></path><polyline class="cls-1" points="407.14 378.99 419.58 385.35 418.54 401.07 405.46 406.65"></polyline><polyline class="cls-4" points="407.14 378.99 419.58 385.35 418.54 401.07 405.46 406.65"></polyline><path class="cls-1" d="M409.74,391.41c0,10.69-5,19.35-11.11,19.35s-11.1-8.66-11.1-19.35,5-19.34,11.1-19.34,11.11,8.66,11.11,19.34"></path><path class="cls-4" d="M409.74,391.41c0,10.69-5,19.35-11.11,19.35s-11.1-8.66-11.1-19.35,5-19.34,11.1-19.34,11.11,8.66,11.11,19.34Z"></path><path class="cls-1" d="M404.67,601.49l-.05-5.51c.1-3.26-2.36-3.49-2.36-3.49l-2.92,0c-2.8-.22-8-6.82-8-6.82h-1.86l.12,15.93"></path><path class="cls-4" d="M404.67,601.49l-.05-5.51c.1-3.26-2.36-3.49-2.36-3.49l-2.92,0c-2.8-.22-8-6.82-8-6.82h-1.86l.12,15.93"></path><path class="cls-1" d="M404.67,601.49l0,5.52c.14,3.26-2.3,3.53-2.3,3.53l-2.92,0c-2.8.28-7.88,7-7.88,7l-1.87,0-.13-15.93"></path><path class="cls-4" d="M404.67,601.49l0,5.52c.14,3.26-2.3,3.53-2.3,3.53l-2.92,0c-2.8.28-7.88,7-7.88,7l-1.87,0-.13-15.93"></path><path class="cls-1" d="M592.63,707.61c0,10.68-5,19.35-11.1,19.35s-11.1-8.67-11.1-19.35,5-19.35,11.1-19.35,11.1,8.66,11.1,19.35"></path><path class="cls-4" d="M592.63,707.61c0,10.68-5,19.35-11.1,19.35s-11.1-8.67-11.1-19.35,5-19.35,11.1-19.35,11.1,8.66,11.1,19.35ZM563,698.4v14.05"></path><path class="cls-1" d="M446.34,503.48v7.69l0,4.82,13.54,14.84c1.18-12.8-1.68-21.33-1.68-21.33"></path><path class="cls-4" d="M446.34,503.48v7.69l0,4.82,13.54,14.84c1.18-12.8-1.68-21.33-1.68-21.33"></path><path class="cls-1" d="M432.26,510.75s18.55,11.06,21.45,38.41c0,0-1.89,26.56-22.31,41.11l7.78,5.86c26.74-24.32,23.25-47,23.25-47,3.2-22.69-22.45-44.69-22.45-44.69"></path><path class="cls-4" d="M432.26,510.75s18.55,11.06,21.45,38.41c0,0-1.89,26.56-22.31,41.11l7.78,5.86c26.74-24.32,23.25-47,23.25-47,3.2-22.69-22.45-44.69-22.45-44.69"></path><path class="cls-1" d="M476.76,548.87c-4.65-44.52-34.38-46-34.38-46v-8.4s41,3.09,43.29,55.47"></path><path class="cls-4" d="M476.76,548.87c-4.65-44.52-34.38-46-34.38-46v-8.4s41,3.09,43.29,55.47"></path><polyline class="cls-1" points="432.26 509.5 442.38 502.91 442.38 494.51 432.26 487.13"></polyline><polyline class="cls-4" points="432.26 509.5 442.38 502.91 442.38 494.51 432.26 487.13"></polyline><path class="cls-1" d="M434.4,498.31c0,8.81-3.32,15.93-7.41,15.93s-7.41-7.12-7.41-15.93,3.32-15.93,7.41-15.93,7.41,7.13,7.41,15.93"></path><path class="cls-4" d="M434.4,498.31c0,8.81-3.32,15.93-7.41,15.93s-7.41-7.12-7.41-15.93,3.32-15.93,7.41-15.93,7.41,7.13,7.41,15.93Z"></path><path class="cls-1" d="M527.33,550.75c-4.51-25.17,20.16-40,20.16-40l-6.81-5.07s-24.19,21.07-22.14,43.18"></path><path class="cls-4" d="M527.33,550.75c-4.51-25.17,20.16-40,20.16-40l-6.81-5.07s-24.19,21.07-22.14,43.18"></path><path class="cls-1" d="M493.75,548.87c.62-7.73.95-14.84.95-14.84C500.51,498.24,538,492.1,538,492.1v11.38s-32.56,3.2-34.59,45.39"></path><path class="cls-4" d="M493.75,548.87c.62-7.73.95-14.84.95-14.84C500.51,498.24,538,492.1,538,492.1v11.38s-32.56,3.2-34.59,45.39"></path><polyline class="cls-1" points="547.49 488.33 538.01 492.1 538.01 503.48 547.49 510.75"></polyline><polyline class="cls-4" points="547.49 488.33 538.01 492.1 538.01 503.48 547.49 510.75"></polyline><path class="cls-1" d="M560.68,498.31c0,8.81-3.32,15.93-7.42,15.93s-7.4-7.12-7.4-15.93,3.31-15.93,7.4-15.93,7.42,7.13,7.42,15.93"></path><path class="cls-4" d="M560.68,498.31c0,8.81-3.32,15.93-7.42,15.93s-7.4-7.12-7.4-15.93,3.31-15.93,7.4-15.93,7.42,7.13,7.42,15.93Zm-32.57,50.62-74.8,1.82"></path><path class="cls-1" d="M560.68,603.06c0,8.8-3.32,15.93-7.42,15.93s-7.4-7.13-7.4-15.93,3.31-15.93,7.4-15.93,7.42,7.12,7.42,15.93"></path><path class="cls-4" d="M560.68,603.06c0,8.8-3.32,15.93-7.42,15.93s-7.4-7.13-7.4-15.93,3.31-15.93,7.4-15.93,7.42,7.12,7.42,15.93Z"></path><path class="cls-1" d="M494.7,549.84a61.16,61.16,0,0,0,1.5,14.09s5,36.35,44.15,46.09v-10.3l8.48-9.4-8.48,9.4c-33.37-5.52-37-49.51-37-49.51"></path><path class="cls-4" d="M494.7,549.84a61.16,61.16,0,0,0,1.5,14.09s5,36.35,44.15,46.09v-10.3l8.48-9.4-8.48,9.4c-33.37-5.52-37-49.51-37-49.51"></path></svg> 