<?xml version="1.0" encoding="UTF-8"?> <svg xmlns="http://www.w3.org/2000/svg" id="Livello_1" data-name="Livello 1" viewBox="0 0 2236.33 1000.49"><defs><style>.cls-1{fill:#fff;}.cls-2{fill:#231f20;}.cls-3,.cls-4,.cls-5{fill:none;stroke-width:0.25px;}.cls-3,.cls-5{stroke:#000;}.cls-4{stroke:#231f20;}.cls-4,.cls-5{stroke-miterlimit:10;}</style></defs><title>JeiJei medium</title><rect class="cls-1" y="0.49" width="2236.33" height="1000"></rect><path class="cls-2" d="M417.52,14.67A22.23,22.23,0,0,0,416.65,8a11.9,11.9,0,0,0-2.36-4.54,8.94,8.94,0,0,0-3.67-2.6A12.3,12.3,0,0,0,405.89,0a12.52,12.52,0,0,0-4.73.87,8.76,8.76,0,0,0-3.61,2.6A11.78,11.78,0,0,0,395.18,8a22.23,22.23,0,0,0-.87,6.66V20.6a22.11,22.11,0,0,0,.87,6.61,12.69,12.69,0,0,0,2.37,4.58,8.78,8.78,0,0,0,3.66,2.61,12.48,12.48,0,0,0,4.73.86,12.3,12.3,0,0,0,4.73-.86,8.78,8.78,0,0,0,3.66-2.61,12.69,12.69,0,0,0,2.37-4.58,24,24,0,0,0,.82-6.61Zm-6.8,6.85a17.77,17.77,0,0,1-.34,3.86,7.33,7.33,0,0,1-.92,2.55,3.38,3.38,0,0,1-1.49,1.4,4.9,4.9,0,0,1-4.06,0,3.49,3.49,0,0,1-1.49-1.4,7.72,7.72,0,0,1-1-2.55,22.1,22.1,0,0,1-.29-3.86V13.65a21.41,21.41,0,0,1,.29-3.81,7.51,7.51,0,0,1,.92-2.51,4.22,4.22,0,0,1,1.5-1.4,4.7,4.7,0,0,1,2-.38,4.49,4.49,0,0,1,2,.38,3.88,3.88,0,0,1,1.54,1.4,7.1,7.1,0,0,1,.92,2.51,17.23,17.23,0,0,1,.34,3.81Zm17.82-2.27c.24-.24.48-.44.77-.68a4.23,4.23,0,0,1,.92-.62,7.37,7.37,0,0,1,1.25-.39,5.82,5.82,0,0,1,1.64-.19,6.54,6.54,0,0,1,2.46.43,4.3,4.3,0,0,1,1.69,1.26,4.13,4.13,0,0,1,1,1.88,8.22,8.22,0,0,1,.34,2.46,14,14,0,0,1-.24,2.51,6.27,6.27,0,0,1-.87,2A4,4,0,0,1,436,29.28a4.35,4.35,0,0,1-2.17.49,4.69,4.69,0,0,1-3.38-1.21,4.91,4.91,0,0,1-1.5-3.33h-6.75a10.06,10.06,0,0,0,1.06,4.25,9.74,9.74,0,0,0,2.61,3.13,10.62,10.62,0,0,0,3.66,2,14.42,14.42,0,0,0,4.3.67,12.69,12.69,0,0,0,5.11-1,10.15,10.15,0,0,0,5.79-6.18,14.19,14.19,0,0,0,.67-4.34,17.16,17.16,0,0,0-.67-4.87,10.28,10.28,0,0,0-2.08-3.62A8.79,8.79,0,0,0,439.39,13a11.39,11.39,0,0,0-4.44-.78c-.53,0-1.1.05-1.59.1a13,13,0,0,0-1.49.34c-.44.14-.82.29-1.16.43a3.46,3.46,0,0,0-.87.44l.82-7.39h13.65V.48H425.07l-2,17.42Zm44.31-4.58A22.23,22.23,0,0,0,472,8a11.78,11.78,0,0,0-2.37-4.54A8.85,8.85,0,0,0,466,.87,12.3,12.3,0,0,0,461.22,0a12.48,12.48,0,0,0-4.73.87,8.79,8.79,0,0,0-3.62,2.6A11.9,11.9,0,0,0,450.51,8a22.23,22.23,0,0,0-.87,6.66V20.6a22.11,22.11,0,0,0,.87,6.61,12.84,12.84,0,0,0,2.36,4.58,8.87,8.87,0,0,0,3.67,2.61,12.48,12.48,0,0,0,4.73.86A12.25,12.25,0,0,0,466,34.4a8.81,8.81,0,0,0,3.67-2.61A12.85,12.85,0,0,0,472,27.21a24,24,0,0,0,.82-6.61ZM466,21.52a17.84,17.84,0,0,1-.33,3.86,7.76,7.76,0,0,1-.92,2.55,3.45,3.45,0,0,1-1.5,1.4,4.88,4.88,0,0,1-4.05,0,3.38,3.38,0,0,1-1.49-1.4,7.31,7.31,0,0,1-1-2.55,22.1,22.1,0,0,1-.29-3.86V13.65a21.41,21.41,0,0,1,.29-3.81,7.1,7.1,0,0,1,.92-2.51,4.12,4.12,0,0,1,1.49-1.4,4.77,4.77,0,0,1,2-.38,4.49,4.49,0,0,1,2,.38,4,4,0,0,1,1.54,1.4,7.51,7.51,0,0,1,.92,2.51,17.29,17.29,0,0,1,.33,3.81ZM494,.43h-.73L479,5.55v5.5l8.11-2.51V34.78H494Zm24.67,16.94H505.35v5.45h13.27ZM547.3,29.28H532.54l6-6.37c1.16-1.2,2.22-2.31,3.14-3.42a23.31,23.31,0,0,0,2.41-3.23,15.82,15.82,0,0,0,1.5-3.19,9.8,9.8,0,0,0,.58-3.33,11.36,11.36,0,0,0-.73-4.1,8.1,8.1,0,0,0-2.17-3A9.5,9.5,0,0,0,539.83.68,16,16,0,0,0,535,0a12.65,12.65,0,0,0-5,.92,11.07,11.07,0,0,0-3.71,2.41,10.63,10.63,0,0,0-2.41,3.57,12.22,12.22,0,0,0-.82,4.39h6.85A6.7,6.7,0,0,1,530.28,9a5.51,5.51,0,0,1,.91-1.83,4.49,4.49,0,0,1,1.59-1.21,4.79,4.79,0,0,1,2.13-.43,4.17,4.17,0,0,1,3.28,1.3,5.28,5.28,0,0,1,1.15,3.62A4.29,4.29,0,0,1,539.1,12a8.06,8.06,0,0,1-.72,1.74,14.59,14.59,0,0,1-1.4,2.08,27.32,27.32,0,0,1-2.12,2.5L523.76,30.1v4.68H547.3Zm27.67,0H560.21l6-6.37c1.15-1.2,2.22-2.31,3.13-3.42a22.54,22.54,0,0,0,2.41-3.23,15.82,15.82,0,0,0,1.5-3.19,9.56,9.56,0,0,0,.58-3.33,11.15,11.15,0,0,0-.73-4.1,8.1,8.1,0,0,0-2.17-3A9.42,9.42,0,0,0,567.49.68,16,16,0,0,0,562.67,0a12.58,12.58,0,0,0-5,.92A11.12,11.12,0,0,0,554,3.33a10.63,10.63,0,0,0-2.41,3.57,12.22,12.22,0,0,0-.82,4.39h6.85A7,7,0,0,1,557.94,9a5.51,5.51,0,0,1,.91-1.83,4.44,4.44,0,0,1,1.6-1.21,4.74,4.74,0,0,1,2.12-.43,4.17,4.17,0,0,1,3.28,1.3A5.28,5.28,0,0,1,567,10.42a4.53,4.53,0,0,1-.24,1.54A8.68,8.68,0,0,1,566,13.7a13.79,13.79,0,0,1-1.4,2.08,25.81,25.81,0,0,1-2.12,2.5L551.43,30.1v4.68H575Z"></path><path class="cls-2" d="M400.73,73.57V99h2.84V81.58a12.7,12.7,0,0,1,.92-2.27A10.13,10.13,0,0,1,406,77.38,8.26,8.26,0,0,1,408.16,76a7,7,0,0,1,2.79-.48,8.35,8.35,0,0,1,2.56.34A4.63,4.63,0,0,1,415.44,77a4.74,4.74,0,0,1,1.3,2.07,10.15,10.15,0,0,1,.44,3.19V99H420V82.16a6.79,6.79,0,0,1,.58-2.27,9.15,9.15,0,0,1,1.45-2.12,8.39,8.39,0,0,1,2.31-1.6,7,7,0,0,1,3.09-.62,9.62,9.62,0,0,1,2.51.29,4.23,4.23,0,0,1,2,1.11,5.1,5.1,0,0,1,1.3,2.12,10.73,10.73,0,0,1,.43,3.33V99h2.8V82.45a13.7,13.7,0,0,0-.53-4.25,6.88,6.88,0,0,0-1.64-2.89,6,6,0,0,0-2.65-1.69,11.18,11.18,0,0,0-3.52-.53,10.73,10.73,0,0,0-2.85.38,9.45,9.45,0,0,0-2.41,1,8.87,8.87,0,0,0-2,1.59A11.33,11.33,0,0,0,419.44,78a6.7,6.7,0,0,0-2.84-3.76,9.47,9.47,0,0,0-4.83-1.16,8.66,8.66,0,0,0-2.6.34,8.77,8.77,0,0,0-2.27.91A7.1,7.1,0,0,0,405,75.79a10.17,10.17,0,0,0-1.5,1.93l-.09-4.15Zm55.82,25.57a8.15,8.15,0,0,0,2.51-1,8.38,8.38,0,0,0,1.93-1.4A12.34,12.34,0,0,0,462.48,95l-1.78-1.3a8.39,8.39,0,0,1-3.14,2.6,8.87,8.87,0,0,1-4,.82,8,8,0,0,1-3.57-.77,8.51,8.51,0,0,1-2.75-2.17A9.77,9.77,0,0,1,445.45,91a12.08,12.08,0,0,1-.63-4V86.5H463V84.76a16.28,16.28,0,0,0-.67-4.68,10.57,10.57,0,0,0-1.93-3.71A9.08,9.08,0,0,0,457.22,74a10,10,0,0,0-4.29-.87,9.55,9.55,0,0,0-4.15.91,11.37,11.37,0,0,0-3.47,2.61,12,12,0,0,0-2.42,4A15.82,15.82,0,0,0,442,86v1a14.3,14.3,0,0,0,.86,5,11.44,11.44,0,0,0,2.37,4,10.08,10.08,0,0,0,3.62,2.56,10.92,10.92,0,0,0,4.58,1,12.1,12.1,0,0,0,3.09-.38Zm-.49-23A7.65,7.65,0,0,1,458.33,78a8.62,8.62,0,0,1,1.35,2.65,10.88,10.88,0,0,1,.53,3.14v.29H444.92a13.05,13.05,0,0,1,.92-3.53,8.8,8.8,0,0,1,1.69-2.7,8.32,8.32,0,0,1,2.41-1.78,7.59,7.59,0,0,1,3-.58,7.14,7.14,0,0,1,3.13.67Zm11.32,10.38a18.17,18.17,0,0,0,.67,5.26,13.07,13.07,0,0,0,1.93,4.1,9.54,9.54,0,0,0,3.09,2.65,8.82,8.82,0,0,0,4.1,1,10.16,10.16,0,0,0,4.73-1,9.61,9.61,0,0,0,3.23-2.85l.1,3.38h2.65V62.86h-2.8V77.14a9.61,9.61,0,0,0-3.23-3,9.43,9.43,0,0,0-4.63-1.06,8.75,8.75,0,0,0-4.1.91A9.1,9.1,0,0,0,470,76.61a13.07,13.07,0,0,0-1.93,4.1,18.57,18.57,0,0,0-.67,5.35Zm2.84-.49a18.77,18.77,0,0,1,.44-4.14A10.32,10.32,0,0,1,472,78.59a6.5,6.5,0,0,1,2.36-2.22,6.28,6.28,0,0,1,3.38-.82,9.16,9.16,0,0,1,2.7.38A7.86,7.86,0,0,1,482.53,77a7,7,0,0,1,1.49,1.6,10.28,10.28,0,0,1,1.06,1.88v12a10.22,10.22,0,0,1-1.16,1.83,6,6,0,0,1-1.54,1.45,7.57,7.57,0,0,1-2.07,1,9.25,9.25,0,0,1-2.61.33,6.57,6.57,0,0,1-3.33-.82A6.5,6.5,0,0,1,472,94a10.35,10.35,0,0,1-1.35-3.32,18.6,18.6,0,0,1-.44-4.15Zm28.25-12.49h-2.85V99h2.85Zm-2.85-6a2,2,0,0,0,1.45.53,1.92,1.92,0,0,0,1.4-.53,1.81,1.81,0,0,0,.53-1.35,1.74,1.74,0,0,0-.53-1.35,1.78,1.78,0,0,0-1.4-.58,1.88,1.88,0,0,0-1.45.58,1.85,1.85,0,0,0-.48,1.35,1.93,1.93,0,0,0,.48,1.35ZM522.53,99h2.75V73.57h-2.85V92a9.88,9.88,0,0,1-1,2,5.49,5.49,0,0,1-1.55,1.6,6.56,6.56,0,0,1-2.26,1.06,10.82,10.82,0,0,1-3,.38,7.17,7.17,0,0,1-2.27-.33,4.71,4.71,0,0,1-1.88-1.21,5.87,5.87,0,0,1-1.26-2.17,11.52,11.52,0,0,1-.48-3.43V73.57H506V89.88a13.35,13.35,0,0,0,.63,4.43,7.75,7.75,0,0,0,1.69,3A6.77,6.77,0,0,0,511,99a12,12,0,0,0,8.35-.48,8.25,8.25,0,0,0,3.18-2.7Zm9.86-25.47V99h2.85V81.58a12.7,12.7,0,0,1,.92-2.27,9.74,9.74,0,0,1,1.49-1.93A8.37,8.37,0,0,1,539.82,76a7.05,7.05,0,0,1,2.8-.48,8.39,8.39,0,0,1,2.56.34A4.63,4.63,0,0,1,547.11,77a4.74,4.74,0,0,1,1.3,2.07,10.17,10.17,0,0,1,.43,3.19V99h2.85V82.16a6.79,6.79,0,0,1,.58-2.27,8.85,8.85,0,0,1,1.45-2.12,8.1,8.1,0,0,1,2.31-1.6,7,7,0,0,1,3.09-.62,9.72,9.72,0,0,1,2.51.29,4.19,4.19,0,0,1,2,1.11,5.12,5.12,0,0,1,1.31,2.12,10.73,10.73,0,0,1,.43,3.33V99h2.8V82.45a14,14,0,0,0-.53-4.25A7.1,7.1,0,0,0,566,75.31a6,6,0,0,0-2.65-1.69,11.24,11.24,0,0,0-3.53-.53,10.71,10.71,0,0,0-2.84.38,9.45,9.45,0,0,0-2.41,1,8.65,8.65,0,0,0-2,1.59A11.33,11.33,0,0,0,551.11,78a6.72,6.72,0,0,0-2.85-3.76,9.43,9.43,0,0,0-4.82-1.16,8.72,8.72,0,0,0-2.61.34,8.56,8.56,0,0,0-2.26.91,6.94,6.94,0,0,0-1.88,1.45,9.78,9.78,0,0,0-1.5,1.93l-.1-4.15Z"></path><path class="cls-2" d="M410.84,128.9h-.48l-11.68,4.3v2.65l9.31-3.47V163.3h2.85Zm29.79-.14a17.72,17.72,0,0,0-7.24,1.35,14,14,0,0,0-5.11,4,17.31,17.31,0,0,0-3,6.12,28.82,28.82,0,0,0-1,8v3a14.5,14.5,0,0,0,.78,4.87,11.45,11.45,0,0,0,2.22,4,9.49,9.49,0,0,0,3.47,2.7,10.44,10.44,0,0,0,4.63,1,10,10,0,0,0,4.25-.91,10.42,10.42,0,0,0,3.23-2.46,11.92,11.92,0,0,0,2-3.72,15.85,15.85,0,0,0,.68-4.63,13.84,13.84,0,0,0-.63-4.29,10.14,10.14,0,0,0-1.83-3.62,9.73,9.73,0,0,0-3.09-2.46,9.38,9.38,0,0,0-4.34-.92,11.48,11.48,0,0,0-4.87,1.06,9.06,9.06,0,0,0-3.62,3.09,17.58,17.58,0,0,1,1.16-5.74,12.32,12.32,0,0,1,2.7-4.29,11.68,11.68,0,0,1,4.15-2.75,14.86,14.86,0,0,1,5.5-.92h.43v-2.46Zm-2.13,15.15a6.56,6.56,0,0,1,2.32,2,8.75,8.75,0,0,1,1.45,2.84,13,13,0,0,1,.43,3.43,12.22,12.22,0,0,1-.48,3.57,9.29,9.29,0,0,1-1.45,2.94,7.7,7.7,0,0,1-2.36,2,6.38,6.38,0,0,1-3.09.72,8.12,8.12,0,0,1-3.23-.67,7.71,7.71,0,0,1-2.61-2,9.26,9.26,0,0,1-1.78-3.18,12.79,12.79,0,0,1-.63-4.25v-2.31a6.08,6.08,0,0,1,1.11-2.27,8.41,8.41,0,0,1,1.88-1.79,8.91,8.91,0,0,1,2.41-1.2,8.65,8.65,0,0,1,2.71-.49,7.34,7.34,0,0,1,3.32.73Zm27.95-16.79H463.6V163.3h2.85Zm10.79,10.71h-2.85V163.3h2.85Zm-2.85-6a2.07,2.07,0,0,0,1.45.53,1.92,1.92,0,0,0,1.4-.53,1.77,1.77,0,0,0,.53-1.35,1.7,1.7,0,0,0-.53-1.35,1.78,1.78,0,0,0-1.4-.58,1.82,1.82,0,0,0-1.93,1.93,2,2,0,0,0,.48,1.35Zm9.35,19a18,18,0,0,0,.68,5.25,11.84,11.84,0,0,0,1.93,4.11,9.66,9.66,0,0,0,3.09,2.65,8.65,8.65,0,0,0,4.1,1,10.12,10.12,0,0,0,4.68-1A8.73,8.73,0,0,0,501.4,160V163a10.89,10.89,0,0,1-.48,3.43,6.62,6.62,0,0,1-1.5,2.51,6.08,6.08,0,0,1-2.36,1.64,9.15,9.15,0,0,1-3.19.53,8.34,8.34,0,0,1-3.81-.87,11.09,11.09,0,0,1-3.33-2.8l-1.54,1.69A8.42,8.42,0,0,0,487,171a13.06,13.06,0,0,0,2.21,1.35,14.08,14.08,0,0,0,2.42.82,10.8,10.8,0,0,0,2.46.24,11.62,11.62,0,0,0,4.19-.72,9,9,0,0,0,3.24-2.08,9.64,9.64,0,0,0,2-3.32,12.87,12.87,0,0,0,.77-4.44v-25h-2.65l-.14,3.67a9.13,9.13,0,0,0-3.24-3,10.16,10.16,0,0,0-8.82-.2,9.41,9.41,0,0,0-3.09,2.61,11.87,11.87,0,0,0-1.93,4.1,18.56,18.56,0,0,0-.68,5.35Zm2.85-.49a18.79,18.79,0,0,1,.43-4.14,10.55,10.55,0,0,1,1.35-3.33,6.45,6.45,0,0,1,2.37-2.22,6.23,6.23,0,0,1,3.38-.82,9.21,9.21,0,0,1,2.7.38,7.79,7.79,0,0,1,2.07,1.11,8.28,8.28,0,0,1,1.5,1.59,8.5,8.5,0,0,1,1,1.93v11.82a9.38,9.38,0,0,1-1.11,1.89,6.19,6.19,0,0,1-1.54,1.44,7.75,7.75,0,0,1-2.08,1,8.77,8.77,0,0,1-2.6.33,6.52,6.52,0,0,1-3.33-.82,6.45,6.45,0,0,1-2.37-2.22A10.59,10.59,0,0,1,487,155a18.62,18.62,0,0,1-.43-4.15Zm27.81-23.2h-2.8V163.3h2.8V145.84a10.71,10.71,0,0,1,1.11-2.22,7.87,7.87,0,0,1,1.59-2,8.37,8.37,0,0,1,2.17-1.35,7.13,7.13,0,0,1,2.75-.48,8,8,0,0,1,2.51.34,4.13,4.13,0,0,1,1.88,1.1,5.74,5.74,0,0,1,1.21,2.13,10.9,10.9,0,0,1,.43,3.33V163.3h2.8V146.71a13.94,13.94,0,0,0-.58-4.3,8,8,0,0,0-1.59-2.89,6.1,6.1,0,0,0-2.56-1.64,9.35,9.35,0,0,0-3.42-.53,8.67,8.67,0,0,0-2.56.33,9.25,9.25,0,0,0-2.27,1,9.78,9.78,0,0,0-1.93,1.5,9.94,9.94,0,0,0-1.54,2Zm25.2,4.15v6.56h-4.68v2.32h4.68v17a10.13,10.13,0,0,0,.44,3.18,5.57,5.57,0,0,0,1.15,2,3.86,3.86,0,0,0,1.74,1.11,6.74,6.74,0,0,0,2.22.33c.58,0,1.11,0,1.69-.09a8.83,8.83,0,0,0,1.35-.34l-.14-2.27-1.07.15a11.54,11.54,0,0,1-1.2,0,5.12,5.12,0,0,1-1.26-.14,2.12,2.12,0,0,1-1.06-.58,2.8,2.8,0,0,1-.72-1.3,6.52,6.52,0,0,1-.29-2.12v-17h5.26v-2.32h-5.26v-6.56Zm28.79,27.26a4.69,4.69,0,0,1-1.26,1.49,9.07,9.07,0,0,1-2.07,1,10.31,10.31,0,0,1-2.85.34,10.65,10.65,0,0,1-2.41-.24,7,7,0,0,1-2.27-.87,4.84,4.84,0,0,1-1.69-1.59,5.06,5.06,0,0,1-.77-2.51h-2.84a6.59,6.59,0,0,0,.67,2.85,7.33,7.33,0,0,0,1.93,2.46,9.62,9.62,0,0,0,3.09,1.69,14.79,14.79,0,0,0,4.29.62,13.85,13.85,0,0,0,3.91-.53,8.33,8.33,0,0,0,2.94-1.44,7.15,7.15,0,0,0,1.93-2.22,6.33,6.33,0,0,0,.63-2.9,6,6,0,0,0-.53-2.7,5.44,5.44,0,0,0-1.59-2.07,12,12,0,0,0-2.8-1.6,25.82,25.82,0,0,0-4-1.15,26.81,26.81,0,0,1-3.47-1A7,7,0,0,1,557.2,147a2.58,2.58,0,0,1-1-1.3,4,4,0,0,1-.29-1.54,3.87,3.87,0,0,1,.39-1.59,3.65,3.65,0,0,1,1.06-1.45,6.2,6.2,0,0,1,1.93-1,8,8,0,0,1,2.8-.39,8.32,8.32,0,0,1,2.8.43,6.15,6.15,0,0,1,2.07,1.16,4.77,4.77,0,0,1,1.3,1.69,4.5,4.5,0,0,1,.44,1.93h2.8a7.07,7.07,0,0,0-.63-3,7.34,7.34,0,0,0-1.84-2.41,9.07,9.07,0,0,0-3-1.59,13.53,13.53,0,0,0-7.67-.05,9.31,9.31,0,0,0-2.84,1.49,6.61,6.61,0,0,0-1.79,2.22,5.91,5.91,0,0,0-.62,2.7,6.14,6.14,0,0,0,.57,2.71,5.27,5.27,0,0,0,1.74,2,10.23,10.23,0,0,0,2.8,1.45,29.37,29.37,0,0,0,3.76,1,21.06,21.06,0,0,1,3.48,1.06,7.17,7.17,0,0,1,2.07,1.31,4.37,4.37,0,0,1,1,1.44,4.55,4.55,0,0,1,.29,1.6,3.54,3.54,0,0,1-.43,1.69Z"></path><line class="cls-3" x1="226.56" y1="236.17" x2="226.56" y2="696.51"></line><path d="M176.79,622.22h20.35v-3.47H182.3a4.65,4.65,0,0,1-2.93-4.7c0-2.89,1.47-4.32,4.44-4.32h13.33v-3.5H183.65a4.83,4.83,0,0,1-3.12-1.51,4.57,4.57,0,0,1-1.16-3.19,4.36,4.36,0,0,1,1.08-3.36,4.8,4.8,0,0,1,3.28-1h13.41V593.7H183.5c-4.74.08-7.09,2.35-7.09,6.78a8.12,8.12,0,0,0,.88,3.86,8.5,8.5,0,0,0,2.39,2.66c-2.19,1-3.27,3-3.27,5.82a7.51,7.51,0,0,0,2.62,6l-2.24.11Zm0-37.59v3.51h20.35v-3.51Zm-4,3.27a2,2,0,0,0,.57-1.54,2,2,0,0,0-.57-1.54,2,2,0,0,0-1.43-.54,2.12,2.12,0,0,0-1.43.54,2,2,0,0,0-.57,1.54,2,2,0,0,0,.57,1.54,2.09,2.09,0,0,0,1.43.51,2,2,0,0,0,1.43-.51Zm4-8.83h20.35v-3.5H182.65a6,6,0,0,1-2.39-2,5.06,5.06,0,0,1-.89-3,4.14,4.14,0,0,1,1-3.09,5,5,0,0,1,3.27-1h13.45V563H183.69c-4.85,0-7.28,2.2-7.28,6.52a7.37,7.37,0,0,0,2.93,6.09l-2.55.11Zm-7.16-41.94v.54l3.73,10h3.16l-2.58-7h23.2v-3.51ZM181,509.72c-4,0-6.85.77-8.74,2.16s-2.85,3.55-2.85,6.51,1,5.17,2.92,6.55,5,2.09,9,2.09h4.67c3.85,0,6.74-.77,8.7-2.2s2.89-3.55,2.89-6.47-1-5.17-3-6.56-5-2.08-9.1-2.08Zm5.44,3.47a12.73,12.73,0,0,1,6.28,1.31,4.68,4.68,0,0,1-.12,7.75c-1.42.85-3.58,1.31-6.55,1.31h-5.58a12.79,12.79,0,0,1-6.21-1.27,4.2,4.2,0,0,1-2-3.9,4.24,4.24,0,0,1,2-3.93c1.35-.84,3.47-1.27,6.43-1.27Zm-2.28-12.34-.73-.93a5.75,5.75,0,0,1-1-3.58,5,5,0,0,1,1.66-4,6.36,6.36,0,0,1,4.43-1.5,6.87,6.87,0,0,1,4.55,1.39,4.67,4.67,0,0,1,1.65,3.81,5.15,5.15,0,0,1-1.19,3.58,5.48,5.48,0,0,1-3.55,1.66v3.32a8.14,8.14,0,0,0,5.59-2.62,8.67,8.67,0,0,0,2-5.94,8.4,8.4,0,0,0-2.42-6.4,9.47,9.47,0,0,0-6.67-2.27,9.72,9.72,0,0,0-6.7,2.2,7.53,7.53,0,0,0-2.47,5.93,8.66,8.66,0,0,0,1.19,4.59l-7.47-.81v-11.1h-3.24v14l13.68,1.38Zm0-34.43v9.17h2.85v-9.17Zm-7.29-13h20.35V450H182.3a4.66,4.66,0,0,1-2.93-4.71c0-2.89,1.47-4.31,4.44-4.31h13.33v-3.51H183.65a4.77,4.77,0,0,1-3.12-1.5,4.61,4.61,0,0,1-1.16-3.2,4.32,4.32,0,0,1,1.08-3.35,4.75,4.75,0,0,1,3.28-1h13.41V425H183.5c-4.74.08-7.09,2.35-7.09,6.78a8.11,8.11,0,0,0,.88,3.85,8.39,8.39,0,0,0,2.39,2.66c-2.19,1-3.27,3-3.27,5.82a7.48,7.48,0,0,0,2.62,6l-2.24.12Zm20.35-50h-.31a11.73,11.73,0,0,1-4.47.69H183a6.32,6.32,0,0,0-4.82,2.08,7.92,7.92,0,0,0-1.77,5.51,9.58,9.58,0,0,0,.85,4.09,7.09,7.09,0,0,0,2.23,2.92,4.71,4.71,0,0,0,2.93,1.08v-3.5a2.79,2.79,0,0,1-2.27-1.28,5,5,0,0,1-.93-3.12,4.34,4.34,0,0,1,1.08-3.19,3.87,3.87,0,0,1,2.89-1.08h1.62V411a11.34,11.34,0,0,0,1.77,6.82,5.71,5.71,0,0,0,4.93,2.43,5.61,5.61,0,0,0,4.32-1.93,7.28,7.28,0,0,0,1.69-4.93,7.82,7.82,0,0,0-2.5-5.82,6.21,6.21,0,0,0,2.12-.5Zm-3.51,12.21a3.21,3.21,0,0,1-2.58,1.08c-2.5,0-3.78-2.12-3.78-6.4v-2.69h4.2a4.86,4.86,0,0,1,2.24,2.12,5.87,5.87,0,0,1,.85,3.08,4.18,4.18,0,0,1-.93,2.81Zm-16.84-19.35v4l10.06-6.66,10.29,6.85v-4l-7.63-4.7,7.63-4.7v-4.05L186.85,390l-10.06-6.67v4.05l7.44,4.51Zm-7.16-37.4v.54l3.73,10h3.16l-2.58-7h23.2v-3.51Zm1.77-24.59a9.36,9.36,0,0,0,0,11.67,7.07,7.07,0,0,0,5.47,2.24,6.4,6.4,0,0,0,3.66-1.08,7.64,7.64,0,0,0,2.51-2.85,7.27,7.27,0,0,0,2.69,3.35,7,7,0,0,0,4,1.19,7.26,7.26,0,0,0,5.67-2.35,10.56,10.56,0,0,0,0-12.67,7.18,7.18,0,0,0-5.67-2.39,6.72,6.72,0,0,0-4,1.27,7.59,7.59,0,0,0-2.69,3.39,7.48,7.48,0,0,0-2.51-2.93,6.31,6.31,0,0,0-3.66-1.08,6.93,6.93,0,0,0-5.47,2.24Zm21.92,2a5.27,5.27,0,0,1,1.35,3.81,5.33,5.33,0,0,1-1.35,3.86,4.86,4.86,0,0,1-3.66,1.39,5.11,5.11,0,0,1-3.77-1.43,5,5,0,0,1-1.43-3.78,5.26,5.26,0,0,1,1.47-3.81,5,5,0,0,1,3.73-1.47,4.85,4.85,0,0,1,3.66,1.43Zm-19.8.54a4.62,4.62,0,0,1,3.43-1.31,4.69,4.69,0,0,1,3.39,1.27,4.38,4.38,0,0,1,1.27,3.31,4.54,4.54,0,0,1-1.27,3.36,5.33,5.33,0,0,1-6.86,0,4.45,4.45,0,0,1-1.27-3.32,4.33,4.33,0,0,1,1.31-3.27Zm10.59-14.23-.73-.93a5.75,5.75,0,0,1-1-3.58,5,5,0,0,1,1.66-4,6.36,6.36,0,0,1,4.43-1.5,6.87,6.87,0,0,1,4.55,1.39,4.67,4.67,0,0,1,1.65,3.81,5.15,5.15,0,0,1-1.19,3.58,5.48,5.48,0,0,1-3.55,1.66v3.31a8.05,8.05,0,0,0,5.59-2.62,8.62,8.62,0,0,0,2-5.93,8.38,8.38,0,0,0-2.42-6.4,9.47,9.47,0,0,0-6.67-2.27,9.72,9.72,0,0,0-6.7,2.2,7.51,7.51,0,0,0-2.47,5.93,8.68,8.68,0,0,0,1.19,4.59l-7.47-.81V310h-3.24v14l13.68,1.38Z"></path><path class="cls-3" d="M265.06,745.92h422.5m46.63-405.3V696.51"></path><path d="M773.16,520.31V538.8H776V524l24.55,11.3v-3.67l-25.43-11.32Zm14.38-8.38-.74-.92a5.81,5.81,0,0,1-1-3.59,5.06,5.06,0,0,1,1.66-4,6.37,6.37,0,0,1,4.43-1.5,6.87,6.87,0,0,1,4.55,1.39,4.65,4.65,0,0,1,1.65,3.81,5.17,5.17,0,0,1-1.19,3.59,5.5,5.5,0,0,1-3.54,1.65v3.32a8.09,8.09,0,0,0,5.58-2.62,8.66,8.66,0,0,0,2-5.94,8.38,8.38,0,0,0-2.43-6.39,9.42,9.42,0,0,0-6.67-2.28,9.76,9.76,0,0,0-6.7,2.2,7.53,7.53,0,0,0-2.47,5.93,8.66,8.66,0,0,0,1.2,4.59l-7.48-.81v-11.1h-3.24v14l13.68,1.39Z"></path><path d="M456.82,808.27l-1.89,3.82h2.35l1.39-2.81a9.79,9.79,0,0,0,3.58.65,9.13,9.13,0,0,0,4.82-1.27,9,9,0,0,0,3.28-3.7,12.15,12.15,0,0,0,1.15-5.36c0-4-1.23-7-3.66-8.94l1.93-3.85h-2.35l-1.35,2.81a9.23,9.23,0,0,0-3.85-.81,8.73,8.73,0,0,0-8.1,5,12.06,12.06,0,0,0-1.15,5.36c0,4.2,1.31,7.21,3.85,9.09Zm1.23-14.56a5,5,0,0,1,4.17-2,5.17,5.17,0,0,1,2.5.61l-6.43,13.07a8.41,8.41,0,0,1-1.82-5.75,9.47,9.47,0,0,1,1.58-5.89Zm9.95,5.78a9,9,0,0,1-1.55,5.55,5.1,5.1,0,0,1-4.2,2,5.42,5.42,0,0,1-2.27-.46l6.4-13a8.76,8.76,0,0,1,1.62,5.51Zm21.74-15.68a9.33,9.33,0,0,0-11.67,0,7.05,7.05,0,0,0-2.24,5.47,6.4,6.4,0,0,0,1.08,3.66,7.46,7.46,0,0,0,2.85,2.5,7.35,7.35,0,0,0-3.35,2.7,7,7,0,0,0-1.2,4,7.23,7.23,0,0,0,2.35,5.66,10.54,10.54,0,0,0,12.68,0,7.14,7.14,0,0,0,2.39-5.66,6.69,6.69,0,0,0-1.27-4,7.73,7.73,0,0,0-3.39-2.7,7.38,7.38,0,0,0,2.93-2.5,6.33,6.33,0,0,0,1.08-3.66,7,7,0,0,0-2.24-5.47Zm-2,21.92a6.12,6.12,0,0,1-7.67,0,4.82,4.82,0,0,1-1.39-3.66,5.11,5.11,0,0,1,1.43-3.78,5,5,0,0,1,3.77-1.42,5.3,5.3,0,0,1,3.82,1.46,5.08,5.08,0,0,1,1.46,3.74,4.88,4.88,0,0,1-1.42,3.66Zm-.54-19.81a4.69,4.69,0,0,1,1.31,3.43,4.74,4.74,0,0,1-1.27,3.4,4.42,4.42,0,0,1-3.32,1.27,4.57,4.57,0,0,1-3.35-1.27,5.33,5.33,0,0,1,0-6.86,4.44,4.44,0,0,1,3.31-1.28,4.39,4.39,0,0,1,3.28,1.31Zm27,7.44c0-4-.77-6.86-2.16-8.75s-3.54-2.85-6.51-2.85-5.16,1-6.55,2.93-2.08,5-2.08,9v4.66c0,3.86.77,6.75,2.2,8.71s3.54,2.89,6.47,2.89,5.16-1,6.55-3,2.08-5,2.08-9.09Zm-3.47,5.44a12.62,12.62,0,0,1-1.31,6.28,4.67,4.67,0,0,1-7.74-.12c-.85-1.42-1.31-3.58-1.31-6.55v-5.59a12.77,12.77,0,0,1,1.27-6.2,4.2,4.2,0,0,1,3.89-2,4.25,4.25,0,0,1,3.93,2c.85,1.35,1.27,3.47,1.27,6.43Z"></path><path class="cls-3" d="M980.34,745.92h422.5m46.63-405.3V696.51M941.84,236.17V696.51"></path><path d="M1488.44,531.7v18.5h2.85V535.4l24.55,11.29V543l-25.43-11.33Zm14.38-8.37-.74-.93a5.77,5.77,0,0,1-1-3.58,5,5,0,0,1,1.66-4,6.37,6.37,0,0,1,4.43-1.5,6.92,6.92,0,0,1,4.55,1.38,4.7,4.7,0,0,1,1.65,3.82,5.15,5.15,0,0,1-1.19,3.58,5.48,5.48,0,0,1-3.55,1.66v3.31a8.1,8.1,0,0,0,5.59-2.62,8.65,8.65,0,0,0,2-5.93,8.39,8.39,0,0,0-2.43-6.4,9.47,9.47,0,0,0-6.67-2.27,9.76,9.76,0,0,0-6.7,2.19A7.55,7.55,0,0,0,1498,518a8.74,8.74,0,0,0,1.19,4.58l-7.47-.81V510.69h-3.24v14l13.68,1.39Z"></path><path d="M1160.89,808.27l-1.89,3.82h2.35l1.39-2.81a9.79,9.79,0,0,0,3.58.65,9.18,9.18,0,0,0,4.82-1.27,9.06,9.06,0,0,0,3.27-3.7,12.15,12.15,0,0,0,1.16-5.36c0-4-1.23-7-3.66-8.94l1.92-3.85h-2.35l-1.34,2.81a9.24,9.24,0,0,0-3.86-.81,8.7,8.7,0,0,0-8.09,5,12.06,12.06,0,0,0-1.16,5.36c0,4.2,1.31,7.21,3.86,9.09Zm1.23-14.56a5,5,0,0,1,4.16-2,5.18,5.18,0,0,1,2.51.61l-6.44,13.07a8.46,8.46,0,0,1-1.81-5.75,9.4,9.4,0,0,1,1.58-5.89Zm9.94,5.78a9,9,0,0,1-1.54,5.55,5.13,5.13,0,0,1-4.2,2,5.39,5.39,0,0,1-2.27-.46l6.39-13a8.76,8.76,0,0,1,1.62,5.51Zm21.75-15.68a9.34,9.34,0,0,0-11.68,0,7.08,7.08,0,0,0-2.23,5.47,6.39,6.39,0,0,0,1.07,3.66,7.49,7.49,0,0,0,2.86,2.5,7.33,7.33,0,0,0-3.36,2.7,7,7,0,0,0-1.19,4,7.23,7.23,0,0,0,2.35,5.66,10.54,10.54,0,0,0,12.68,0,7.14,7.14,0,0,0,2.39-5.66,6.76,6.76,0,0,0-1.27-4,7.7,7.7,0,0,0-3.4-2.7,7.31,7.31,0,0,0,2.93-2.5,6.26,6.26,0,0,0,1.08-3.66,7,7,0,0,0-2.23-5.47Zm-2,21.92a5.26,5.26,0,0,1-3.81,1.35,5.33,5.33,0,0,1-3.86-1.35,4.85,4.85,0,0,1-1.38-3.66,5.14,5.14,0,0,1,1.42-3.78,5,5,0,0,1,3.78-1.42,5.29,5.29,0,0,1,3.81,1.46,5,5,0,0,1,1.47,3.74,4.85,4.85,0,0,1-1.43,3.66Zm-.54-19.81a4.65,4.65,0,0,1,1.31,3.43,4.7,4.7,0,0,1-1.27,3.4A4.4,4.4,0,0,1,1188,794a4.54,4.54,0,0,1-3.35-1.27,5.31,5.31,0,0,1,0-6.86,4.45,4.45,0,0,1,3.32-1.28,4.35,4.35,0,0,1,3.27,1.31Zm27,7.44c0-4-.77-6.86-2.16-8.75s-3.54-2.85-6.51-2.85-5.17,1-6.55,2.93-2.08,5-2.08,9v4.66c0,3.86.77,6.75,2.19,8.71s3.55,2.89,6.48,2.89,5.16-1,6.55-3,2.08-5,2.08-9.09Zm-3.47,5.44a12.73,12.73,0,0,1-1.31,6.28,4.68,4.68,0,0,1-7.75-.12,13.1,13.1,0,0,1-1.31-6.55v-5.59a12.76,12.76,0,0,1,1.28-6.2,4.2,4.2,0,0,1,3.89-2,4.25,4.25,0,0,1,3.93,2c.85,1.35,1.27,3.47,1.27,6.43Z"></path><path d="M892.07,611.7h20.35v-3.47H897.58a4.65,4.65,0,0,1-2.93-4.7c0-2.89,1.47-4.32,4.43-4.32h13.34v-3.5H898.93a4.83,4.83,0,0,1-3.12-1.51,4.57,4.57,0,0,1-1.16-3.19,4.36,4.36,0,0,1,1.08-3.36,4.78,4.78,0,0,1,3.28-1h13.41v-3.47H898.78c-4.74.08-7.09,2.35-7.09,6.79a8,8,0,0,0,.88,3.85,8.5,8.5,0,0,0,2.39,2.66c-2.19,1-3.27,3-3.27,5.82a7.51,7.51,0,0,0,2.62,6l-2.24.11Zm0-37.59v3.51h20.35v-3.51Zm-4,3.28a2,2,0,0,0,.58-1.55,1.94,1.94,0,0,0-.58-1.54,2,2,0,0,0-1.42-.54,2.17,2.17,0,0,0-1.43.54,2,2,0,0,0-.58,1.54,2,2,0,0,0,.58,1.55,2.13,2.13,0,0,0,1.43.5,2,2,0,0,0,1.42-.5Zm4-8.83h20.35v-3.51H897.93a6.09,6.09,0,0,1-2.39-2,5.11,5.11,0,0,1-.89-3,4.14,4.14,0,0,1,1-3.08,5,5,0,0,1,3.28-1h13.45v-3.46H899c-4.86,0-7.28,2.19-7.28,6.51a7.39,7.39,0,0,0,2.92,6.09l-2.54.11Zm20-21.9a2.13,2.13,0,0,0,.58-1.62,2.07,2.07,0,0,0-.58-1.62,2,2,0,0,0-1.46-.58,2,2,0,0,0-1.47.58,2,2,0,0,0-.61,1.62,2,2,0,0,0,.61,1.62,2.2,2.2,0,0,0,1.47.54,2.15,2.15,0,0,0,1.46-.54Zm-25.35-23.55a9.33,9.33,0,0,0,0,11.67,7.07,7.07,0,0,0,5.47,2.24,6.4,6.4,0,0,0,3.66-1.08,7.46,7.46,0,0,0,2.5-2.85,7.35,7.35,0,0,0,2.7,3.35,7,7,0,0,0,4,1.19,7.23,7.23,0,0,0,5.66-2.35,10.53,10.53,0,0,0,0-12.67,7.14,7.14,0,0,0-5.66-2.39,6.72,6.72,0,0,0-4,1.27,7.68,7.68,0,0,0-2.7,3.39,7.38,7.38,0,0,0-2.5-2.93,6.31,6.31,0,0,0-3.66-1.08,6.93,6.93,0,0,0-5.47,2.24Zm21.92,2a6.12,6.12,0,0,1,0,7.67,4.86,4.86,0,0,1-3.66,1.39,5.11,5.11,0,0,1-3.77-1.43,5,5,0,0,1-1.43-3.78,5.29,5.29,0,0,1,1.46-3.81,5.08,5.08,0,0,1,3.74-1.46,4.88,4.88,0,0,1,3.66,1.42Zm-19.8.54a4.62,4.62,0,0,1,3.43-1.31,4.69,4.69,0,0,1,3.39,1.27,4.42,4.42,0,0,1,1.27,3.32,4.57,4.57,0,0,1-1.27,3.35,5.33,5.33,0,0,1-6.86,0,4.44,4.44,0,0,1-1.27-3.31,4.36,4.36,0,0,1,1.31-3.28Zm7.43-27c-4,0-6.86.77-8.74,2.15s-2.86,3.55-2.86,6.52,1,5.16,2.93,6.55,5,2.08,9,2.08h4.66c3.86,0,6.75-.77,8.71-2.2s2.89-3.54,2.89-6.47-1-5.17-3-6.55-5-2.08-9.1-2.08Zm5.44,3.46A12.85,12.85,0,0,1,908,503.4a4.68,4.68,0,0,1-.12,7.75c-1.42.85-3.58,1.31-6.55,1.31h-5.59a12.77,12.77,0,0,1-6.2-1.27,4.19,4.19,0,0,1-2-3.89,4.24,4.24,0,0,1,2-3.93c1.35-.85,3.47-1.28,6.43-1.28ZM899.35,477v9.17h2.86V477Zm-7.28-13h20.35v-3.46H897.58a4.66,4.66,0,0,1-2.93-4.71c0-2.89,1.47-4.31,4.43-4.31h13.34V448H898.93a4.77,4.77,0,0,1-3.12-1.5,4.61,4.61,0,0,1-1.16-3.2,4.32,4.32,0,0,1,1.08-3.35,4.73,4.73,0,0,1,3.28-1h13.41v-3.47H898.78c-4.74.08-7.09,2.35-7.09,6.78a8,8,0,0,0,.88,3.85,8.39,8.39,0,0,0,2.39,2.66c-2.19,1-3.27,3-3.27,5.82a7.48,7.48,0,0,0,2.62,6l-2.24.12Zm20.35-50h-.31a11.73,11.73,0,0,1-4.47.69h-9.36a6.31,6.31,0,0,0-4.82,2.08,7.87,7.87,0,0,0-1.77,5.51,9.72,9.72,0,0,0,.84,4.09,7.19,7.19,0,0,0,2.24,2.92,4.71,4.71,0,0,0,2.93,1.08v-3.5a2.83,2.83,0,0,1-2.28-1.27,5.06,5.06,0,0,1-.92-3.13,4.34,4.34,0,0,1,1.08-3.19,3.85,3.85,0,0,1,2.89-1.08h1.62v3.35c0,2.93.57,5.2,1.77,6.82a5.71,5.71,0,0,0,4.93,2.43,5.61,5.61,0,0,0,4.32-1.93A7.33,7.33,0,0,0,912.8,424a7.84,7.84,0,0,0-2.5-5.82,6.21,6.21,0,0,0,2.12-.5Zm-3.51,12.21a3.22,3.22,0,0,1-2.58,1.08c-2.51,0-3.78-2.12-3.78-6.4v-2.69h4.2a4.86,4.86,0,0,1,2.24,2.12,5.87,5.87,0,0,1,.85,3.08,4.16,4.16,0,0,1-.93,2.81ZM892.07,406.9v4l10.06-6.66,10.29,6.86v-4.05l-7.63-4.7,7.63-4.7v-4.05l-10.29,6.9-10.06-6.67v4.05l7.44,4.51Zm-7.17-37.4V370l3.74,10h3.16l-2.58-7h23.2V369.5Zm0-21.66v.53l3.74,10h3.16l-2.58-7h23.2v-3.5Zm14.49-14.62-.73-.93a5.75,5.75,0,0,1-1-3.58,5,5,0,0,1,1.66-4,6.36,6.36,0,0,1,4.43-1.5,6.84,6.84,0,0,1,4.54,1.39,4.65,4.65,0,0,1,1.66,3.81,5.15,5.15,0,0,1-1.19,3.58,5.48,5.48,0,0,1-3.55,1.66V337a8.1,8.1,0,0,0,5.59-2.63,8.62,8.62,0,0,0,2-5.93,8.43,8.43,0,0,0-2.42-6.4,9.47,9.47,0,0,0-6.67-2.27A9.76,9.76,0,0,0,897,322a7.54,7.54,0,0,0-2.46,5.93,8.66,8.66,0,0,0,1.19,4.59l-7.47-.81v-11.1H885v14L898.7,336Z"></path><path class="cls-3" d="M1664.43,748h422.5m46.63-405.3V698.58M1625.93,238.23V698.58"></path><path d="M2172.42,540v.54l3.74,10h3.16l-2.58-7h23.19V540Zm11.33-27.41c-4,0-6.86.77-8.75,2.16s-2.85,3.54-2.85,6.51,1,5.17,2.93,6.55,5,2.08,9,2.08h4.66c3.85,0,6.74-.77,8.71-2.19s2.89-3.55,2.89-6.48-1-5.16-3-6.55-5-2.08-9.09-2.08Zm5.43,3.47a12.73,12.73,0,0,1,6.28,1.31,4.67,4.67,0,0,1-.11,7.75,13.16,13.16,0,0,1-6.55,1.31h-5.59a12.73,12.73,0,0,1-6.2-1.28,4.2,4.2,0,0,1-2-3.89,4.26,4.26,0,0,1,2-3.93c1.35-.85,3.47-1.27,6.44-1.27Zm-5.43-25.14c-4,0-6.86.77-8.75,2.16s-2.85,3.55-2.85,6.51,1,5.17,2.93,6.55,5,2.09,9,2.09h4.66c3.85,0,6.74-.78,8.71-2.2s2.89-3.55,2.89-6.48-1-5.16-3-6.55-5-2.08-9.09-2.08Zm5.43,3.47a12.73,12.73,0,0,1,6.28,1.31,4.67,4.67,0,0,1-.11,7.75,13.16,13.16,0,0,1-6.55,1.31h-5.59a12.86,12.86,0,0,1-6.2-1.27,4.2,4.2,0,0,1-2-3.9,4.26,4.26,0,0,1,2-3.93c1.35-.84,3.47-1.27,6.44-1.27Z"></path><path d="M1856.19,808.27l-1.88,3.82h2.35l1.38-2.81a9.84,9.84,0,0,0,3.59.65,9.12,9.12,0,0,0,4.81-1.27,9,9,0,0,0,3.28-3.7,12.15,12.15,0,0,0,1.16-5.36c0-4-1.24-7-3.66-8.94l1.92-3.85h-2.35l-1.35,2.81a9.16,9.16,0,0,0-3.85-.81,8.86,8.86,0,0,0-4.82,1.32,8.72,8.72,0,0,0-3.27,3.69,12.06,12.06,0,0,0-1.16,5.36c0,4.2,1.31,7.21,3.85,9.09Zm1.24-14.56a5,5,0,0,1,4.16-2,5.14,5.14,0,0,1,2.5.61l-6.43,13.07a8.46,8.46,0,0,1-1.81-5.75,9.4,9.4,0,0,1,1.58-5.89Zm9.94,5.78a9,9,0,0,1-1.54,5.55,5.13,5.13,0,0,1-4.2,2,5.47,5.47,0,0,1-2.28-.46l6.4-13a8.76,8.76,0,0,1,1.62,5.51Zm21.74-15.68a9.33,9.33,0,0,0-11.67,0,7.05,7.05,0,0,0-2.24,5.47,6.4,6.4,0,0,0,1.08,3.66,7.53,7.53,0,0,0,2.85,2.5,7.35,7.35,0,0,0-3.35,2.7,7,7,0,0,0-1.19,4,7.23,7.23,0,0,0,2.35,5.66,10.54,10.54,0,0,0,12.68,0,7.14,7.14,0,0,0,2.38-5.66,6.69,6.69,0,0,0-1.27-4,7.68,7.68,0,0,0-3.39-2.7,7.38,7.38,0,0,0,2.93-2.5,6.33,6.33,0,0,0,1.08-3.66,6.92,6.92,0,0,0-2.24-5.47Zm-2,21.92a5.27,5.27,0,0,1-3.81,1.35,5.33,5.33,0,0,1-3.86-1.35,4.86,4.86,0,0,1-1.39-3.66,5.15,5.15,0,0,1,1.43-3.78,5,5,0,0,1,3.78-1.42,5.29,5.29,0,0,1,3.81,1.46,5,5,0,0,1,1.47,3.74,4.85,4.85,0,0,1-1.43,3.66Zm-.54-19.81a4.65,4.65,0,0,1,1.31,3.43,4.7,4.7,0,0,1-1.27,3.4,4.41,4.41,0,0,1-3.31,1.27,4.58,4.58,0,0,1-3.36-1.27,4.71,4.71,0,0,1-1.23-3.4,4.65,4.65,0,0,1,1.27-3.46,4.45,4.45,0,0,1,3.32-1.28,4.37,4.37,0,0,1,3.27,1.31Zm27,7.44c0-4-.77-6.86-2.16-8.75s-3.55-2.85-6.51-2.85-5.17,1-6.56,2.93-2.08,5-2.08,9v4.66c0,3.86.77,6.75,2.2,8.71s3.55,2.89,6.47,2.89,5.17-1,6.55-3,2.09-5,2.09-9.09Zm-3.47,5.44a12.73,12.73,0,0,1-1.31,6.28,4.68,4.68,0,0,1-7.75-.12c-.85-1.42-1.31-3.58-1.31-6.55v-5.59a12.77,12.77,0,0,1,1.27-6.2,4.2,4.2,0,0,1,3.9-2,4.25,4.25,0,0,1,3.93,2c.84,1.35,1.27,3.47,1.27,6.43Z"></path><path d="M1576.17,624.29h20.34v-3.47h-14.83a4.64,4.64,0,0,1-2.93-4.7c0-2.89,1.46-4.32,4.43-4.32h13.33v-3.5H1583a4.83,4.83,0,0,1-3.12-1.51,4.57,4.57,0,0,1-1.15-3.2,4.3,4.3,0,0,1,1.08-3.35,4.77,4.77,0,0,1,3.27-1h13.41v-3.47h-13.64c-4.74.08-7.09,2.35-7.09,6.78a8,8,0,0,0,.89,3.86,8.27,8.27,0,0,0,2.39,2.66c-2.2,1-3.28,3-3.28,5.82a7.54,7.54,0,0,0,2.62,6l-2.23.11Zm0-37.59v3.5h20.34v-3.5Zm-4,3.27a2,2,0,0,0,.58-1.54,2,2,0,0,0-.58-1.54,2,2,0,0,0-1.43-.54,2.08,2.08,0,0,0-1.42.54,1.94,1.94,0,0,0-.58,1.54,2,2,0,0,0,.58,1.54,2,2,0,0,0,1.42.5,2,2,0,0,0,1.43-.5Zm4-8.83h20.34v-3.5H1582a6,6,0,0,1-2.39-2,5.12,5.12,0,0,1-.88-3,4.14,4.14,0,0,1,1-3.09,5,5,0,0,1,3.27-1h13.45v-3.47h-13.45c-4.85,0-7.28,2.2-7.28,6.52a7.34,7.34,0,0,0,2.93,6.08l-2.54.12ZM1569,539.2v.54l3.74,10h3.16l-2.59-7h23.2V539.2Zm11.33-27.41c-4,0-6.86.77-8.75,2.16s-2.85,3.55-2.85,6.51,1,5.17,2.93,6.55,5,2.08,9,2.08h4.66c3.85,0,6.74-.77,8.71-2.19s2.89-3.55,2.89-6.48-1-5.16-3-6.55-5-2.08-9.09-2.08Zm5.43,3.47a12.73,12.73,0,0,1,6.28,1.31,4.67,4.67,0,0,1-.11,7.75,13.16,13.16,0,0,1-6.55,1.31h-5.59a12.91,12.91,0,0,1-6.21-1.27,4.2,4.2,0,0,1-2-3.9,4.24,4.24,0,0,1,2-3.93c1.35-.85,3.47-1.27,6.44-1.27Zm-2.27-12.34-.74-.93a5.75,5.75,0,0,1-1-3.58,5,5,0,0,1,1.66-4,6.37,6.37,0,0,1,4.43-1.5,6.87,6.87,0,0,1,4.55,1.39,4.65,4.65,0,0,1,1.66,3.81,5.15,5.15,0,0,1-1.2,3.58,5.46,5.46,0,0,1-3.54,1.66v3.31a8.05,8.05,0,0,0,5.58-2.62,8.63,8.63,0,0,0,2-5.93,8.39,8.39,0,0,0-2.43-6.4,9.46,9.46,0,0,0-6.67-2.27,9.72,9.72,0,0,0-6.7,2.2,7.51,7.51,0,0,0-2.47,5.93,8.69,8.69,0,0,0,1.2,4.59l-7.48-.81v-11.1h-3.24v14l13.68,1.38Zm0-34.43v9.17h2.85v-9.17Zm-7.28-13h20.34v-3.47h-14.83a4.62,4.62,0,0,1-2.93-4.7c0-2.89,1.46-4.31,4.43-4.31h13.33v-3.51H1583a4.77,4.77,0,0,1-3.12-1.5,4.61,4.61,0,0,1-1.15-3.2,4.28,4.28,0,0,1,1.08-3.35,4.72,4.72,0,0,1,3.27-1h13.41V427h-13.64c-4.74.07-7.09,2.35-7.09,6.78a8,8,0,0,0,.89,3.85,8.16,8.16,0,0,0,2.39,2.66c-2.2,1-3.28,3-3.28,5.82a7.51,7.51,0,0,0,2.62,6l-2.23.12Zm20.34-50h-.31a11.73,11.73,0,0,1-4.47.69h-9.36a6.34,6.34,0,0,0-4.82,2.08,7.92,7.92,0,0,0-1.77,5.51,9.53,9.53,0,0,0,.85,4.08,7.14,7.14,0,0,0,2.23,2.93,4.73,4.73,0,0,0,2.93,1.08v-3.5a2.8,2.8,0,0,1-2.27-1.28,5,5,0,0,1-.93-3.12,4.38,4.38,0,0,1,1.08-3.2,3.9,3.9,0,0,1,2.89-1.07h1.62v3.35a11.34,11.34,0,0,0,1.77,6.82,5.73,5.73,0,0,0,4.94,2.43,5.59,5.59,0,0,0,4.31-1.93,7.29,7.29,0,0,0,1.7-4.93,7.83,7.83,0,0,0-2.51-5.82,6.14,6.14,0,0,0,2.12-.5ZM1593,417.75a3.21,3.21,0,0,1-2.58,1.08c-2.5,0-3.77-2.12-3.77-6.4v-2.69h4.2a4.89,4.89,0,0,1,2.23,2.12,5.87,5.87,0,0,1,.85,3.08,4.18,4.18,0,0,1-.93,2.81Zm-16.83-19.35v4l10-6.67,10.29,6.86v-4l-7.63-4.7,7.63-4.7v-4.05l-10.29,6.9-10-6.67v4.05l7.43,4.51ZM1569,361v.54l3.74,10h3.16l-2.59-7h23.2V361Zm.11-24.9v3.7l19,12.25h2V339.57h6.36V336.1h-6.36v-3.82h-2.85v3.82Zm5.51,3.89-.73-.42h13.41v8.55Zm5.71-28.07c-4,0-6.86.77-8.75,2.16s-2.85,3.55-2.85,6.51,1,5.17,2.93,6.56,5,2.08,9,2.08h4.66c3.85,0,6.74-.77,8.71-2.2s2.89-3.55,2.89-6.47-1-5.17-3-6.56-5-2.08-9.09-2.08Zm5.43,3.47a12.73,12.73,0,0,1,6.28,1.31,4.67,4.67,0,0,1-.11,7.75,13,13,0,0,1-6.55,1.31h-5.59a12.79,12.79,0,0,1-6.21-1.27,4.2,4.2,0,0,1-2-3.9,4.24,4.24,0,0,1,2-3.93c1.35-.84,3.47-1.27,6.44-1.27Z"></path><polygon class="cls-1" points="1906.42 568.78 1908.28 563.83 1914.36 568.25 1920.44 578.29 1924.67 590.33 1925.3 594.26 1917.4 587.26 1906.42 568.78"></polygon><path class="cls-1" d="M1926,591.43c-6.67-15.37-5.53-48.55-5.53-48.55,8.9-47,60.47-51.08,60.47-51.08l.14-8.73s-62.84.75-72.84,59.81l-1,22.1"></path><path class="cls-4" d="M1926,591.43c-6.67-15.37-5.53-48.55-5.53-48.55,8.9-47,60.47-51.08,60.47-51.08l.14-8.73s-62.84.75-72.84,59.81l-1,22.1"></path><rect class="cls-1" x="1851.22" y="537.76" width="44.78" height="16.26"></rect><rect class="cls-4" x="1851.22" y="537.76" width="44.78" height="16.26"></rect><polyline class="cls-1" points="1867.87 685.26 1867.87 504.77 1873.04 499.1 1879.73 505.81 1879.73 685.33"></polyline><polyline class="cls-4" points="1867.87 685.26 1867.87 504.77 1873.04 499.1 1879.73 505.81 1879.73 685.33"></polyline><path class="cls-1" d="M1841.15,534.65c-12.28-50.42-74.06-52.94-74.06-52.94v8.44s61.41,7.09,64.09,56.65c0,0-.85,36.62-8.21,45.12l13.2-5.87s10.93-20.07,5-51.4"></path><path class="cls-4" d="M1841.15,534.65c-12.28-50.42-74.06-52.94-74.06-52.94v8.44s61.41,7.09,64.09,56.65c0,0-.85,36.62-8.21,45.12l13.2-5.87s10.93-20.07,5-51.4Z"></path><path class="cls-1" d="M1873,468.14h-3.25V282.08h6.49V468.14Zm0-187.81,15.51,0c11.54.9,10.82-12.59,10.82-12.59,2.88-11.38,21.27-21.86,21.27-21.86v-6H1873m0,40.49-15.51,0c-11.54.9-10.82-12.59-10.82-12.59-2.88-11.38-21.27-21.86-21.27-21.86v-6H1873"></path><path class="cls-4" d="M1873,468.14h-3.25V282.08h6.49V468.14Zm0-187.81,15.51,0c11.54.9,10.82-12.59,10.82-12.59,2.88-11.38,21.27-21.86,21.27-21.86v-6H1873m0,40.49-15.51,0c-11.54.9-10.82-12.59-10.82-12.59-2.88-11.38-21.27-21.86-21.27-21.86v-6H1873"></path><rect class="cls-2" x="1858.68" y="325" width="27.96" height="4.88"></rect><path class="cls-4" d="M1908.28,546.8h12.16m-51.46,0h10.76m-48.56,0h10"></path><path class="cls-1" d="M1914.36,595c0,1.5,29.07,77.44,103.94,104.26l7.1-9.35c-60.78-23.5-93.83-82.72-93.83-82.72"></path><path class="cls-4" d="M1914.36,595c0,1.5,29.07,77.44,103.94,104.26l7.1-9.35c-60.78-23.5-93.83-82.72-93.83-82.72"></path><path class="cls-1" d="M1851.61,703.57l8.11-15.56s14.08-7.41,25.57-.33l10,15.89"></path><path class="cls-4" d="M1851.61,703.57l8.11-15.56s14.08-7.41,25.57-.33l10,15.89"></path><path class="cls-1" d="M1899,709.52c0,6.32-11.45,11.45-25.57,11.45s-25.58-5.13-25.58-11.45,11.45-11.45,25.58-11.45S1899,703.2,1899,709.52"></path><path class="cls-4" d="M1899,709.52c0,6.32-11.45,11.45-25.57,11.45s-25.58-5.13-25.58-11.45,11.45-11.45,25.58-11.45S1899,703.2,1899,709.52Z"></path><path class="cls-1" d="M1896.46,488.47c0,9.57-9.56,17.34-21.34,17.34s-21.33-7.77-21.33-17.34,9.55-17.35,21.33-17.35,21.34,7.77,21.34,17.35"></path><path class="cls-4" d="M1896.46,488.47c0,9.57-9.56,17.34-21.34,17.34s-21.33-7.77-21.33-17.34,9.55-17.35,21.33-17.35,21.34,7.77,21.34,17.35Z"></path><path class="cls-1" d="M1817.38,607.05s-38.6,65.74-93.45,82.43l7.82,10.51c79.7-31.64,104.42-105.73,104.42-105.73"></path><path class="cls-4" d="M1817.38,607.05s-38.6,65.74-93.45,82.43l7.82,10.51c79.7-31.64,104.42-105.73,104.42-105.73"></path><rect class="cls-1" x="1858.98" y="326.83" width="27.43" height="5.42"></rect><rect class="cls-4" x="1858.98" y="326.83" width="27.43" height="5.42"></rect><path class="cls-1" d="M1744.45,486.53l.19,17.47,2.37-.33s7.61-8.87,16.56-8.29a6.13,6.13,0,0,0,3.52-5.39l0-7.81a5.85,5.85,0,0,0-3.6-5.2c-8.93,1-16.65-7.46-16.65-7.46l-2.37-.2Z"></path><path class="cls-4" d="M1744.45,486.53l.19,17.47,2.37-.33s7.61-8.87,16.56-8.29a6.13,6.13,0,0,0,3.52-5.39l0-7.81a5.85,5.85,0,0,0-3.6-5.2c-8.93,1-16.65-7.46-16.65-7.46l-2.37-.2,0,17.21Z"></path><path class="cls-1" d="M1758.05,612.49l.19,17.47,2.36-.32s7.61-8.88,16.56-8.3a6.13,6.13,0,0,0,3.53-5.38l-.06-7.81A5.83,5.83,0,0,0,1777,603c-8.94,1-16.66-7.46-16.66-7.46l-2.37-.21Z"></path><path class="cls-4" d="M1758.05,612.49l.19,17.47,2.36-.32s7.61-8.88,16.56-8.3a6.13,6.13,0,0,0,3.53-5.38l-.06-7.81A5.83,5.83,0,0,0,1777,603c-8.94,1-16.66-7.46-16.66-7.46l-2.37-.21,0,17.21Z"></path><path class="cls-1" d="M1718.67,394.16l-11.91,17.5,2.58.82s13.74-5.13,22.28-.22a9,9,0,0,0,7.25-3.64l5.36-7.8a5.74,5.74,0,0,0,0-6.93c-9.63-3.33-11.46-15.53-11.46-15.53l-2.22-1.36Z"></path><path class="cls-4" d="M1718.67,394.16l-11.91,17.5,2.58.82s13.74-5.13,22.28-.22a9,9,0,0,0,7.25-3.64l5.36-7.8a5.74,5.74,0,0,0,0-6.93c-9.63-3.33-11.46-15.53-11.46-15.53l-2.22-1.36-11.89,17.16Z"></path><path class="cls-1" d="M1705.8,706l-11.9-17.5,2.58-.82s13.75,5.13,22.28.21a9,9,0,0,1,7.25,3.64l5.36,7.8a5.75,5.75,0,0,1,0,6.94c-9.63,3.32-11.46,15.53-11.46,15.53l-2.23,1.36Z"></path><path class="cls-4" d="M1705.8,706l-11.9-17.5,2.58-.82s13.75,5.13,22.28.21a9,9,0,0,1,7.25,3.64l5.36,7.8a5.75,5.75,0,0,1,0,6.94c-9.63,3.32-11.46,15.53-11.46,15.53l-2.23,1.36L1705.8,706Z"></path><path class="cls-1" d="M1780.69,617.31c83.68-11.15,73.1-72.32,73.1-72.32,1.48-98.23-108.4-144.79-108.4-144.79L1737.7,410s98.3,35.3,104.6,136.25c0,0,3.44,56.1-61.66,61.95"></path><path class="cls-4" d="M1780.69,617.31c83.68-11.15,73.1-72.32,73.1-72.32,1.48-98.23-108.4-144.79-108.4-144.79L1737.7,410s98.3,35.3,104.6,136.25c0,0,3.44,56.1-61.66,61.95"></path><path class="cls-1" d="M1992.28,614.3l-.19,17.47-2.37-.33s-7.61-8.87-16.56-8.3a6.13,6.13,0,0,1-3.53-5.38l.06-7.8a5.83,5.83,0,0,1,3.59-5.2c8.94,1,16.66-7.46,16.66-7.46l2.37-.21Z"></path><path class="cls-4" d="M1992.28,614.3l-.19,17.47-2.37-.33s-7.61-8.87-16.56-8.3a6.13,6.13,0,0,1-3.53-5.38l.06-7.8a5.83,5.83,0,0,1,3.59-5.2c8.94,1,16.66-7.46,16.66-7.46l2.37-.21,0,17.21Z"></path><path class="cls-1" d="M2003.62,488.34l-.2,17.47-2.36-.33s-7.61-8.87-16.56-8.3a6.11,6.11,0,0,1-3.52-5.38l0-7.81a5.85,5.85,0,0,1,3.6-5.2c8.93,1,16.65-7.46,16.65-7.46l2.37-.21Z"></path><path class="cls-4" d="M2003.62,488.34l-.2,17.47-2.36-.33s-7.61-8.87-16.56-8.3a6.11,6.11,0,0,1-3.52-5.38l0-7.81a5.85,5.85,0,0,1,3.6-5.2c8.93,1,16.65-7.46,16.65-7.46l2.37-.21,0,17.22Z"></path><path class="cls-1" d="M2030.47,393.92l12.1,17.24-2.56.78s-13.71-5.17-22.1-.45a9.23,9.23,0,0,1-7.24-3.64l-5.45-7.69c-2.64-3.87-.12-6.78-.12-6.78,9.5-3.15,11.11-15.08,11.11-15.08l2.18-1.3Z"></path><path class="cls-4" d="M2030.47,393.92l12.1,17.24-2.56.78s-13.71-5.17-22.1-.45a9.23,9.23,0,0,1-7.24-3.64l-5.45-7.69c-2.64-3.87-.12-6.78-.12-6.78,9.5-3.15,11.11-15.08,11.11-15.08l2.18-1.3,12.08,16.92Z"></path><path class="cls-1" d="M2045.09,706.16l-12.69,17.13-2.17-1.41s-1.39-12.24-10.9-15.8a5.73,5.73,0,0,1,.26-6.93l5.63-7.66a9.11,9.11,0,0,1,7.38-3.48c8.36,5.12,22.27.32,22.27.32l2.56.88Z"></path><path class="cls-4" d="M2045.09,706.16l-12.69,17.13-2.17-1.41s-1.39-12.24-10.9-15.8a5.73,5.73,0,0,1,.26-6.93l5.63-7.66a9.11,9.11,0,0,1,7.38-3.48c8.36,5.12,22.27.32,22.27.32l2.56.88-12.34,16.95Z"></path><path class="cls-1" d="M1969.69,608.14c-76.47-11.27-64.75-70.38-64.75-70.38,16.68-94.32,106.36-129.14,106.36-129.14l-6.48-9.12s-94,26.46-111,138.26c0,0-8,69.91,75.81,81.06"></path><path class="cls-4" d="M1969.69,608.14c-76.47-11.27-64.75-70.38-64.75-70.38,16.68-94.32,106.36-129.14,106.36-129.14l-6.48-9.12s-94,26.46-111,138.26c0,0-8,69.91,75.81,81.06"></path><rect class="cls-1" x="1166.01" y="618.16" width="41.92" height="16.07"></rect><rect class="cls-4" x="1166.01" y="618.16" width="41.92" height="16.07"></rect><rect class="cls-1" x="1186.5" y="264.97" width="5.47" height="182.15"></rect><rect class="cls-4" x="1186.51" y="264.97" width="5.46" height="182.15"></rect><path class="cls-1" d="M1247.72,683.69l8.14-7.24s-28.8-20.25-29.67-49.79c0,0-2.31-39.41,17.4-76.91,0,0,21.05-48.69,73.05-75.66l-5.7-10.61c-42.58,18.27-69.42,64.19-69.42,64.19-32.41,62.76-25,97.87-25,97.87,2.13,36.61,31.23,58.15,31.23,58.15"></path><path class="cls-4" d="M1247.72,683.69l8.14-7.24s-28.8-20.25-29.67-49.79c0,0-2.31-39.41,17.4-76.91,0,0,21.05-48.69,73.05-75.66l-5.7-10.61c-42.58,18.27-69.42,64.19-69.42,64.19-32.41,62.76-25,97.87-25,97.87,2.13,36.61,31.23,58.15,31.23,58.15Zm-17.45-48.46V617.44"></path><polygon class="cls-1" points="1145.72 616.65 1145.72 634.43 1148.74 634.43 1149.8 616.65 1145.72 616.65"></polygon><polyline class="cls-4" points="1148.74 634.44 1145.72 634.44 1145.72 616.65 1149.8 616.65"></polyline><polygon class="cls-1" points="1226.19 615.54 1227.24 635.23 1230.27 635.23 1230.27 615.54 1226.19 615.54"></polygon><path class="cls-4" d="M1227.24,635.23h3v-19.7h-4.08m21.53,68.16s-30-22.72-30.83-57.35"></path><path class="cls-1" d="M1205.45,625.54c-.68,69.36,42.29,66.3,41.47,66.89l.8-8.74c-1.47.17-37.19-6.46-33.62-58.15"></path><path class="cls-4" d="M1205.45,625.54c-.68,69.36,42.29,66.3,41.47,66.89l.8-8.74c-1.47.17-37.19-6.46-33.62-58.15"></path><polyline class="cls-1" points="1270.92 682.11 1280.14 683.06 1280.14 693.22 1270.92 692.43"></polyline><polyline class="cls-4" points="1270.92 682.11 1280.14 683.06 1280.14 693.22 1270.92 692.43"></polyline><polyline class="cls-1" points="1194.44 669.76 1194.44 626.1 1194.44 479.72 1184.03 479.65 1184.03 668.63"></polyline><polyline class="cls-4" points="1194.44 669.76 1194.44 626.1 1194.44 479.72 1184.03 479.65 1184.03 668.63"></polyline><path class="cls-1" d="M1169.37,686.15c0-9.67,8.29-17.52,18.52-17.52s18.53,7.85,18.53,17.52-8.29,17.52-18.53,17.52-18.52-7.84-18.52-17.52"></path><path class="cls-4" d="M1169.37,686.15c0-9.67,8.29-17.52,18.52-17.52s18.53,7.85,18.53,17.52-8.29,17.52-18.53,17.52-18.52-7.84-18.52-17.52Z"></path><path class="cls-1" d="M1213.9,625.78s3.26-78.68,9.08-100.34c0,0,8-45.24,24.29-53.2l-4.26-8.92c-21.13,5.58-31.54,55.43-31.54,55.43-4.73,21.34-6,107.58-6,107.58"></path><path class="cls-4" d="M1213.9,625.78s3.26-78.68,9.08-100.34c0,0,8-45.24,24.29-53.2l-4.26-8.92c-21.13,5.58-31.54,55.43-31.54,55.43-4.73,21.34-6,107.58-6,107.58m-11.8-2.67h-8.9"></path><path class="cls-1" d="M1127.59,681.46s29.67-19.22,30.59-54.39c0,0,3.42-60.05-22.39-96.59-.49-.68-.79-1.46-1.27-2.15-4.65-6.69-28.91-43.84-70.7-66.12l-5.12,9.56c44.12,26.26,64.93,61.89,64.93,61.89,30.59,45.35,24.56,92.61,24.56,92.61.8,26.73-27.57,48.35-27.57,48.35"></path><path class="cls-4" d="M1127.59,681.46s29.67-19.22,30.59-54.39c0,0,3.42-60.05-22.39-96.59-.49-.68-.79-1.46-1.27-2.15-4.65-6.69-28.91-43.84-70.7-66.12l-5.12,9.56c44.12,26.26,64.93,61.89,64.93,61.89,30.59,45.35,24.56,92.61,24.56,92.61.8,26.73-27.57,48.35-27.57,48.35"></path><polygon class="cls-1" points="1094.78 681.8 1103.34 681.8 1103.42 692.17 1094.46 692.17 1094.78 681.8"></polygon><polygon class="cls-4" points="1094.78 681.8 1103.34 681.8 1103.42 692.17 1094.46 692.17 1094.78 681.8 1094.78 681.8"></polygon><path class="cls-1" d="M1127.51,470.25c36.71,28.72,32.41,151.88,32.62,155.7,3,52.51-32.54,56.49-32.54,56.49v8.28s43.59.11,42.64-64.45c0,0-2.7-62.7-2.7-64.77-.32-1.29-3.81-77.44-36.26-100.35"></path><path class="cls-4" d="M1127.51,470.25c36.71,28.72,32.41,151.88,32.62,155.7,3,52.51-32.54,56.49-32.54,56.49v8.28s43.59.11,42.64-64.45c0,0-2.7-62.7-2.7-64.77-.32-1.29-3.81-77.44-36.26-100.35m27.87,162.51h-10m21.56,0h-10.53"></path><path class="cls-1" d="M1189.24,279l13,0c9.69.91,9.08-12.81,9.08-12.81,2.43-11.58,17.87-22.25,17.87-22.25v-6.09h-40"></path><path class="cls-4" d="M1189.24,279l13,0c9.69.91,9.08-12.81,9.08-12.81,2.43-11.58,17.87-22.25,17.87-22.25v-6.09h-40"></path><path class="cls-1" d="M1189.24,279l-13,0c-9.69.91-9.09-12.81-9.09-12.81-2.42-11.58-17.87-22.25-17.87-22.25v-6.09h40"></path><path class="cls-4" d="M1189.24,279l-13,0c-9.69.91-9.09-12.81-9.09-12.81-2.42-11.58-17.87-22.25-17.87-22.25v-6.09h40"></path><rect class="cls-1" x="1178.2" y="322.16" width="22.07" height="4.84"></rect><rect class="cls-5" x="1178.2" y="322.16" width="22.07" height="4.84"></rect><path class="cls-1" d="M1062.52,467.62s2-3.69,3.51-6.53a5.21,5.21,0,0,0-.39-5.39c-9.24-5-10.05-16.85-10.05-16.85l-2.71-1.46-10.44,19.44"></path><path class="cls-4" d="M1062.52,467.62s2-3.69,3.51-6.53a5.21,5.21,0,0,0-.39-5.39c-9.24-5-10.05-16.85-10.05-16.85l-2.71-1.46-10.44,19.44"></path><path class="cls-1" d="M1062.52,467.62s-1.88,3.5-3.33,6.22a5,5,0,0,1-4.61,2.46c-9.25-5-19.36.48-19.36.48l-2.71-1.46,9.93-18.49"></path><path class="cls-4" d="M1062.52,467.62s-1.88,3.5-3.33,6.22a5,5,0,0,1-4.61,2.46c-9.25-5-19.36.48-19.36.48l-2.71-1.46,9.93-18.49"></path><polyline class="cls-1" points="1117.75 700.18 1129.03 691.81 1129.03 681.77 1119.17 672.69"></polyline><polyline class="cls-4" points="1117.75 700.18 1129.03 691.81 1129.03 681.77 1119.17 672.69"></polyline><path class="cls-1" d="M1120.61,684.88c0-10.84-3.42-19.62-7.63-19.62s-7.63,8.78-7.63,19.62,3.42,19.61,7.63,19.61,7.63-8.78,7.63-19.61"></path><path class="cls-4" d="M1120.61,684.88c0-10.84-3.42-19.62-7.63-19.62s-7.63,8.78-7.63,19.62,3.42,19.61,7.63,19.61,7.63-8.78,7.63-19.61Z"></path><polyline class="cls-1" points="1114.98 474.13 1129.38 470.25 1133.13 461.14 1127.41 449.1"></polyline><polyline class="cls-4" points="1114.98 474.13 1129.38 470.25 1133.13 461.14 1127.41 449.1"></polyline><path class="cls-1" d="M1124.37,460.28c4.13-10.06,4.33-19.53.44-21.16s-10.39,5.19-14.52,15.25-4.33,19.53-.44,21.16,10.39-5.2,14.52-15.25"></path><path class="cls-4" d="M1124.37,460.28c4.13-10.06,4.33-19.53.44-21.16s-10.39,5.19-14.52,15.25-4.33,19.53-.44,21.16,10.39-5.2,14.52-15.25Z"></path><path class="cls-1" d="M1096.14,686.78v-6.51a4.59,4.59,0,0,0-2.32-4c-8.42,0-13.49-8.86-13.49-8.86h-2.47v19.38"></path><path class="cls-4" d="M1096.14,686.78v-6.51a4.59,4.59,0,0,0-2.32-4c-8.42,0-13.49-8.86-13.49-8.86h-2.47v19.38"></path><path class="cls-1" d="M1096.14,686.78V693a4.36,4.36,0,0,1-2.32,3.81c-8.42,0-13.49,8.42-13.49,8.42h-2.47V686.78"></path><path class="cls-4" d="M1096.14,686.78V693a4.36,4.36,0,0,1-2.32,3.81c-8.42,0-13.49,8.42-13.49,8.42h-2.47V686.78"></path><path class="cls-1" d="M1280.93,688.14v-6.51a4.61,4.61,0,0,1,2.54-4c9.22,0,14.77-8.85,14.77-8.85H1301v19.37"></path><path class="cls-4" d="M1280.93,688.14v-6.51a4.61,4.61,0,0,1,2.54-4c9.22,0,14.77-8.85,14.77-8.85H1301v19.37"></path><path class="cls-1" d="M1280.93,688.14v6.2a4.4,4.4,0,0,0,2.54,3.81c9.22,0,14.77,8.42,14.77,8.42H1301V688.14"></path><path class="cls-4" d="M1280.93,688.14v6.2a4.4,4.4,0,0,0,2.54,3.81c9.22,0,14.77,8.42,14.77,8.42H1301V688.14"></path><polyline class="cls-1" points="1260.49 475.08 1246.48 471.52 1242.73 462.42 1248.45 450.38"></polyline><polyline class="cls-4" points="1260.49 475.08 1246.48 471.52 1242.73 462.42 1248.45 450.38"></polyline><path class="cls-1" d="M1251.49,461.54c-4.13-10.05-4.33-19.52-.44-21.15s10.39,5.2,14.53,15.25,4.33,19.53.43,21.16-10.39-5.2-14.52-15.26"></path><path class="cls-4" d="M1251.49,461.54c-4.13-10.05-4.33-19.52-.44-21.15s10.39,5.2,14.53,15.25,4.33,19.53.43,21.16-10.39-5.2-14.52-15.26Z"></path><path class="cls-1" d="M1313.29,467.87s-2-3.69-3.5-6.53a5.24,5.24,0,0,1,.39-5.39c9.24-5,10-16.85,10-16.85l2.72-1.46,10.43,19.45"></path><path class="cls-4" d="M1313.29,467.87s-2-3.69-3.5-6.53a5.24,5.24,0,0,1,.39-5.39c9.24-5,10-16.85,10-16.85l2.72-1.46,10.43,19.45"></path><path class="cls-1" d="M1313.29,467.87l3.35,6.22a5,5,0,0,0,4.6,2.46c9.25-5,19.36.48,19.36.48l2.72-1.45-9.94-18.49"></path><path class="cls-4" d="M1313.29,467.87l3.35,6.22a5,5,0,0,0,4.6,2.46c9.25-5,19.36.48,19.36.48l2.72-1.45-9.94-18.49"></path><polyline class="cls-1" points="1259 701.35 1247.72 693.38 1247.72 683.69 1257.57 674.94"></polyline><polyline class="cls-4" points="1259 701.35 1247.72 693.38 1247.72 683.69 1257.57 674.94"></polyline><path class="cls-1" d="M1256.14,686.23c0-10.7,3.41-19.38,7.63-19.38s7.63,8.68,7.63,19.38-3.42,19.39-7.63,19.39-7.63-8.68-7.63-19.39"></path><path class="cls-4" d="M1256.14,686.23c0-10.7,3.41-19.38,7.63-19.38s7.63,8.68,7.63,19.38-3.42,19.39-7.63,19.39-7.63-8.68-7.63-19.39Z"></path><path class="cls-1" d="M1169,460.49l8,16.84c10.61,6.41,22,0,22,0l8.68-18.54"></path><path class="cls-4" d="M1169,460.49l8,16.84c10.61,6.41,22,0,22,0l8.68-18.54"></path><path class="cls-1" d="M1164.22,453c0-6.73,10.36-12.2,23.14-12.2s23.14,5.47,23.14,12.2-10.37,12.2-23.14,12.2-23.14-5.46-23.14-12.2"></path><path class="cls-4" d="M1164.22,453c0-6.73,10.36-12.2,23.14-12.2s23.14,5.47,23.14,12.2-10.37,12.2-23.14,12.2-23.14-5.46-23.14-12.2Zm61.89,170.62H1204.8"></path><polyline class="cls-1" points="456.89 514.79 494.8 514.79 495.16 531.64 454.37 531.64"></polyline><polyline class="cls-4" points="456.89 514.79 494.8 514.79 495.16 531.64 454.37 531.64"></polyline><path class="cls-1" d="M413.59,462.93c1.55-.17,39,6.78,35.25,61h9.08c.72-72.73-44.35-69.52-43.49-70.14"></path><path class="cls-4" d="M413.59,462.93c1.55-.17,39,6.78,35.25,61h9.08c.72-72.73-44.35-69.52-43.49-70.14"></path><polygon class="cls-1" points="520.58 513.75 519.1 534.41 524.84 534.41 524.84 513.75 520.58 513.75"></polygon><polygon class="cls-4" points="519.1 534.41 524.84 534.41 524.84 513.75 520.58 513.75 519.1 534.41 519.1 534.41"></polygon><polygon class="cls-1" points="431.89 513.75 431.89 534.41 437.64 534.41 436.16 513.75 431.89 513.75"></polygon><polygon class="cls-4" points="436.16 513.75 431.89 513.75 431.89 534.41 437.64 534.41 436.16 513.75 436.16 513.75"></polygon><path class="cls-1" d="M414,685.15c17-8.35,25.48-55.78,25.48-55.78,6.12-22.71,9.52-105.21,9.52-105.21h9s-1.5,89.84-6.46,112.23c0,0-10.91,52.27-33.08,58.11"></path><path class="cls-4" d="M414,685.15c17-8.35,25.48-55.78,25.48-55.78,6.12-22.71,9.52-105.21,9.52-105.21h9s-1.5,89.84-6.46,112.23c0,0-10.91,52.27-33.08,58.11"></path><polygon class="cls-1" points="477.31 279.36 474.54 279.36 474.54 437.77 480.07 437.77 480.07 279.36 477.31 279.36"></polygon><polygon class="cls-4" points="474.54 437.78 474.54 279.37 477.31 279.37 480.07 279.37 480.07 437.78 474.54 437.78 474.54 437.78"></polygon><polyline class="cls-1" points="469.46 477.54 469.46 523.32 469.46 676.8 480.38 676.88 480.38 478.73"></polyline><polyline class="cls-4" points="469.46 477.54 469.46 523.32 469.46 676.8 480.38 676.88 480.38 478.73"></polyline><path class="cls-1" d="M446.34,523.91s7.74,36.82-26.25,102.64c0,0-28.14,48.15-72.79,67.3l-6-11.12c54.52-28.29,76.6-79.34,76.6-79.34,20.66-39.32,18.24-80.64,18.24-80.64-.92-31-31.11-52.23-31.11-52.23l8.53-7.59s31.49,23.83,32.33,60.15"></path><path class="cls-4" d="M446.34,523.91s7.74,36.82-26.25,102.64c0,0-28.14,48.15-72.79,67.3l-6-11.12c54.52-28.29,76.6-79.34,76.6-79.34,20.66-39.32,18.24-80.64,18.24-80.64-.92-31-31.11-52.23-31.11-52.23l8.53-7.59s31.49,23.83,32.33,60.15"></path><polyline class="cls-1" points="389.26 464.6 379.6 463.6 379.6 452.93 389.26 453.77"></polyline><polyline class="cls-4" points="389.26 464.6 379.6 463.6 379.6 452.93 389.26 453.77"></polyline><path class="cls-1" d="M607.8,689.52l-3.69,6.85a5.51,5.51,0,0,0,.41,5.65c9.7,5.21,10.55,17.67,10.55,17.67l2.84,1.53,11-20.39"></path><path class="cls-4" d="M607.8,689.52l-3.69,6.85a5.51,5.51,0,0,0,.41,5.65c9.7,5.21,10.55,17.67,10.55,17.67l2.84,1.53,11-20.39"></path><path class="cls-1" d="M607.8,689.52l3.5-6.53a5.26,5.26,0,0,1,4.83-2.57c9.7,5.21,20.3-.51,20.3-.51l2.85,1.53-10.42,19.39"></path><path class="cls-4" d="M607.8,689.52l3.5-6.53a5.26,5.26,0,0,1,4.83-2.57c9.7,5.21,20.3-.51,20.3-.51l2.85,1.53-10.42,19.39"></path><path class="cls-1" d="M344.83,689.25l3.67,6.85a5.5,5.5,0,0,1-.4,5.66c-9.7,5.2-10.55,17.66-10.55,17.66L334.71,721l-10.95-20.39"></path><path class="cls-4" d="M344.83,689.25l3.67,6.85a5.5,5.5,0,0,1-.4,5.66c-9.7,5.2-10.55,17.66-10.55,17.66L334.71,721l-10.95-20.39"></path><path class="cls-1" d="M344.83,689.25l-3.5-6.52a5.29,5.29,0,0,0-4.84-2.58c-9.69,5.21-20.3-.5-20.3-.5l-2.84,1.53,10.41,19.38"></path><path class="cls-4" d="M344.83,689.25l-3.5-6.52a5.29,5.29,0,0,0-4.84-2.58c-9.69,5.21-20.3-.5-20.3-.5l-2.84,1.53,10.41,19.38M435.55,522.61h23.06"></path><path class="cls-1" d="M495.77,460.35c0,10.15-8.71,18.38-19.44,18.38s-19.44-8.23-19.44-18.38S465.59,442,476.33,442s19.44,8.22,19.44,18.36"></path><path class="cls-4" d="M495.77,460.35c0,10.15-8.71,18.38-19.44,18.38s-19.44-8.23-19.44-18.38S465.59,442,476.33,442s19.44,8.22,19.44,18.36Z"></path><polyline class="cls-1" points="552.8 682.67 537.7 686.74 533.77 696.28 539.76 708.91"></polyline><polyline class="cls-4" points="552.8 682.67 537.7 686.74 533.77 696.28 539.76 708.91"></polyline><path class="cls-1" d="M543,697.19c-4.34,10.55-4.55,20.48-.47,22.19s10.9-5.45,15.24-16,4.54-20.47.46-22.18-10.9,5.45-15.23,16"></path><path class="cls-4" d="M543,697.19c-4.34,10.55-4.55,20.48-.47,22.19s10.9-5.45,15.24-16,4.54-20.47.46-22.18-10.9,5.45-15.23,16Z"></path><polyline class="cls-1" points="400.19 681.67 414.88 685.4 418.8 694.95 412.81 707.57"></polyline><polyline class="cls-4" points="400.19 681.67 414.88 685.4 418.8 694.95 412.81 707.57"></polyline><path class="cls-1" d="M409.62,695.86c4.33,10.55,4.54,20.48.46,22.19s-10.9-5.45-15.23-16-4.55-20.47-.47-22.18,10.9,5.45,15.24,16"></path><path class="cls-4" d="M409.62,695.86c4.33,10.55,4.54,20.48.46,22.19s-10.9-5.45-15.23-16-4.55-20.47-.47-22.18,10.9,5.45,15.24,16Zm60.69-173.25h9.32"></path><path class="cls-1" d="M496.05,697l-8.41-17.65c-11.15-6.73-23.11,0-23.11,0l-9.11,19.43"></path><path class="cls-4" d="M496.05,697l-8.41-17.65c-11.15-6.73-23.11,0-23.11,0l-9.11,19.43"></path><path class="cls-1" d="M501.1,704.78c0,7.06-10.87,12.79-24.27,12.79s-24.27-5.73-24.27-12.79S463.42,692,476.83,692s24.27,5.73,24.27,12.8"></path><path class="cls-4" d="M501.1,704.78c0,7.06-10.87,12.79-24.27,12.79s-24.27-5.73-24.27-12.79S463.42,692,476.83,692s24.27,5.73,24.27,12.8Z"></path><path class="cls-1" d="M608.51,697.14c-43.83-23.36-69.27-62.32-74.15-69.33-.5-.72-.82-1.54-1.32-2.26C506,587.24,509.55,524.27,509.55,524.27c1-36.88,32.08-57,32.08-57l7.31,7.18s-29.75,22.67-28.92,50.7c0,0-6.31,49.56,25.76,97.11,0,0,21.82,37.36,68.09,64.9"></path><path class="cls-4" d="M608.51,697.14c-43.83-23.36-69.27-62.32-74.15-69.33-.5-.72-.82-1.54-1.32-2.26C506,587.24,509.55,524.27,509.55,524.27c1-36.88,32.08-57,32.08-57l7.31,7.18s-29.75,22.67-28.92,50.7c0,0-6.31,49.56,25.76,97.11,0,0,21.82,37.36,68.09,64.9"></path><path class="cls-1" d="M535.64,696.27c-34-24-37.68-103.87-38-105.23,0-2.17-2.82-67.91-2.82-67.91-1-67.69,44.71-67.58,44.71-67.58v8.68s-37.24,4.17-34.13,59.23c.22,4-4.29,133.16,34.2,163.27"></path><path class="cls-4" d="M535.64,696.27c-34-24-37.68-103.87-38-105.23,0-2.17-2.82-67.91-2.82-67.91-1-67.69,44.71-67.58,44.71-67.58v8.68s-37.24,4.17-34.13,59.23c.22,4-4.29,133.16,34.2,163.27m-45.2-164.12H520"></path><path class="cls-1" d="M477.3,279.12l13.22,0c9.84.91,9.22-12.85,9.22-12.85,2.46-11.63,18.14-22.34,18.14-22.34v-6.12H477.3"></path><path class="cls-4" d="M477.3,279.12l13.22,0c9.84.91,9.22-12.85,9.22-12.85,2.46-11.63,18.14-22.34,18.14-22.34v-6.12H477.3"></path><path class="cls-1" d="M477.3,279.12l-13.21,0c-9.83.91-9.22-12.85-9.22-12.85-2.46-11.63-18.13-22.34-18.13-22.34v-6.12H477.3"></path><path class="cls-4" d="M477.3,279.12l-13.21,0c-9.83.91-9.22-12.85-9.22-12.85-2.46-11.63-18.13-22.34-18.13-22.34v-6.12H477.3"></path><polyline class="cls-1" points="574.24 449.81 564.86 449.81 564.95 464.9 573.92 464.9"></polyline><polyline class="cls-4" points="574.24 449.81 564.86 449.81 564.95 464.9 573.92 464.9"></polyline><rect class="cls-2" x="466.07" y="323.33" width="22.46" height="4.99"></rect><rect class="cls-1" x="467.87" y="325.13" width="18.87" height="15.8"></rect><rect class="cls-4" x="467.87" y="325.13" width="18.87" height="15.8"></rect><rect class="cls-5" x="466.08" y="323.34" width="22.46" height="4.98"></rect><path class="cls-1" d="M378.77,458.27v6.83a4.83,4.83,0,0,1-2.67,4.2c-9.66,0-15.49,9.28-15.49,9.28h-2.84V458.27"></path><path class="cls-4" d="M378.77,458.27v6.83a4.83,4.83,0,0,1-2.67,4.2c-9.66,0-15.49,9.28-15.49,9.28h-2.84V458.27"></path><path class="cls-1" d="M378.77,458.27v-6.5a4.63,4.63,0,0,0-2.67-4c-9.66,0-15.49-8.83-15.49-8.83h-2.84v19.33"></path><path class="cls-4" d="M378.77,458.27v-6.5a4.63,4.63,0,0,0-2.67-4c-9.66,0-15.49-8.83-15.49-8.83h-2.84v19.33"></path><path class="cls-1" d="M572.55,459.69v6.83a4.83,4.83,0,0,0,2.43,4.21c8.83,0,14.15,9.28,14.15,9.28h2.58V459.69"></path><path class="cls-4" d="M572.55,459.69v6.83a4.83,4.83,0,0,0,2.43,4.21c8.83,0,14.15,9.28,14.15,9.28h2.58V459.69"></path><path class="cls-1" d="M572.55,459.69v-6.5a4.59,4.59,0,0,1,2.43-4c8.83,0,14.15-8.83,14.15-8.83h2.58v19.33"></path><path class="cls-4" d="M572.55,459.69v-6.5a4.59,4.59,0,0,1,2.43-4c8.83,0,14.15-8.83,14.15-8.83h2.58v19.33"></path><polyline class="cls-1" points="401.76 444.41 413.59 452.76 413.59 462.93 403.26 472.12"></polyline><polyline class="cls-4" points="401.76 444.41 413.59 452.76 413.59 462.93 403.26 472.12"></polyline><path class="cls-1" d="M404.76,460.26c0,11.23-3.58,20.34-8,20.34s-8-9.11-8-20.34,3.58-20.32,8-20.32,8,9.1,8,20.32"></path><path class="cls-4" d="M404.76,460.26c0,11.23-3.58,20.34-8,20.34s-8-9.11-8-20.34,3.58-20.32,8-20.32,8,9.1,8,20.32Z"></path><polyline class="cls-1" points="549.89 445.64 538.05 454.42 538.05 464.95 548.39 474.47"></polyline><polyline class="cls-4" points="549.89 445.64 538.05 454.42 538.05 464.95 548.39 474.47"></polyline><path class="cls-1" d="M546.89,461.69c0,11.36,3.58,20.57,8,20.57s8-9.21,8-20.57-3.57-20.57-8-20.57-8,9.21-8,20.57"></path><path class="cls-4" d="M546.89,461.69c0,11.36,3.58,20.57,8,20.57s8-9.21,8-20.57-3.57-20.57-8-20.57-8,9.21-8,20.57Z"></path></svg> 