<?xml version="1.0" encoding="UTF-8"?> <svg xmlns="http://www.w3.org/2000/svg" id="Livello_1" data-name="Livello 1" viewBox="0 0 789.33 1000.49"><defs><style>.cls-1{fill:#fff;}.cls-2,.cls-3,.cls-5{fill:none;stroke-width:0.25px;}.cls-2,.cls-5{stroke:#000;}.cls-3{stroke:#231f20;}.cls-3,.cls-5{stroke-miterlimit:10;}.cls-4{fill:#231f20;}</style></defs><title>JeSuis floor</title><rect class="cls-1" y="0.49" width="789.33" height="1000"></rect><path class="cls-2" d="M273.84,942.72h83.41M255.08,154.15H395m31,231.94V888.23"></path><path d="M454.15,653.09v.45l3.07,8.2h2.6L457.7,656h19.07v-2.89Zm11.91-12-.6-.76a4.73,4.73,0,0,1-.82-3,4.13,4.13,0,0,1,1.36-3.26,5.2,5.2,0,0,1,3.64-1.24,5.66,5.66,0,0,1,3.74,1.14,3.84,3.84,0,0,1,1.36,3.14,4.22,4.22,0,0,1-1,2.94,4.5,4.5,0,0,1-2.91,1.37v2.72a6.68,6.68,0,0,0,4.59-2.15,7.12,7.12,0,0,0,1.65-4.88,6.91,6.91,0,0,0-2-5.26,7.75,7.75,0,0,0-5.48-1.87,8,8,0,0,0-5.51,1.81,6.2,6.2,0,0,0-2,4.87,7.14,7.14,0,0,0,1,3.77l-6.14-.66v-9.13h-2.66v11.54l11.24,1.14Zm-10.45-26a7.7,7.7,0,0,0,0,9.6,5.84,5.84,0,0,0,4.5,1.83,5.26,5.26,0,0,0,3-.88,6.29,6.29,0,0,0,2.06-2.35,6,6,0,0,0,2.21,2.76,5.81,5.81,0,0,0,3.3,1,6,6,0,0,0,4.66-1.93,8.68,8.68,0,0,0,0-10.43,5.94,5.94,0,0,0-4.66-2,5.52,5.52,0,0,0-3.3,1.05,6.19,6.19,0,0,0-2.21,2.78,6.19,6.19,0,0,0-2.06-2.4,5.13,5.13,0,0,0-3-.89,5.71,5.71,0,0,0-4.5,1.84Zm18,1.64a5,5,0,0,1,0,6.31,4,4,0,0,1-3,1.14,4.21,4.21,0,0,1-3.1-1.17,4.12,4.12,0,0,1-1.17-3.11,4.33,4.33,0,0,1,1.2-3.13,4.13,4.13,0,0,1,3.07-1.21,4,4,0,0,1,3,1.17Zm-16.28.45a4.23,4.23,0,0,1,5.61,0,3.61,3.61,0,0,1,1,2.72,3.76,3.76,0,0,1-1,2.76,4.38,4.38,0,0,1-5.64,0,3.62,3.62,0,0,1-1.05-2.72,3.56,3.56,0,0,1,1.08-2.69Z"></path><path d="M291.58,992.28,290,995.42H292l1.14-2.31a8.19,8.19,0,0,0,2.95.53,7.51,7.51,0,0,0,4-1,7.37,7.37,0,0,0,2.69-3,10,10,0,0,0,.95-4.41c0-3.29-1-5.76-3-7.35l1.59-3.16h-1.94L299.18,977a7.43,7.43,0,0,0-3.16-.67,7.16,7.16,0,0,0-6.66,4.12,9.94,9.94,0,0,0-.95,4.4c0,3.46,1.08,5.93,3.17,7.48Zm1-12a4.13,4.13,0,0,1,3.43-1.68,4.35,4.35,0,0,1,2.06.5l-5.3,10.74a6.92,6.92,0,0,1-1.48-4.72,7.77,7.77,0,0,1,1.29-4.84Zm8.18,4.75a7.38,7.38,0,0,1-1.27,4.56,4.22,4.22,0,0,1-3.45,1.68,4.53,4.53,0,0,1-1.87-.38l5.26-10.65a7.26,7.26,0,0,1,1.33,4.53ZM321.59,991H310.28l6-6.56c2.85-3,4.25-5.7,4.25-7.92a5.69,5.69,0,0,0-1.81-4.37,7.12,7.12,0,0,0-5-1.65,7.32,7.32,0,0,0-5.36,1.94,6.5,6.5,0,0,0-2,5h2.88a4.72,4.72,0,0,1,1.17-3.39,4.51,4.51,0,0,1,3.33-1.2,3.77,3.77,0,0,1,2.85,1.14,4,4,0,0,1,1,2.88,5.49,5.49,0,0,1-.63,2.54,17.8,17.8,0,0,1-2.41,3.2l-7.79,8.68v2.06h14.76Zm6.67-8.36.76-.6a4.68,4.68,0,0,1,2.94-.83,4.14,4.14,0,0,1,3.26,1.37,5.18,5.18,0,0,1,1.24,3.64,5.68,5.68,0,0,1-1.14,3.74,3.84,3.84,0,0,1-3.14,1.36,4.26,4.26,0,0,1-2.94-1,4.55,4.55,0,0,1-1.37-2.92h-2.72a6.68,6.68,0,0,0,2.15,4.6,7.12,7.12,0,0,0,4.88,1.64,6.89,6.89,0,0,0,5.26-2,7.75,7.75,0,0,0,1.87-5.48,8.06,8.06,0,0,0-1.8-5.52,6.22,6.22,0,0,0-4.88-2,7.07,7.07,0,0,0-3.77,1l.66-6.15h9.13V970.8H327.11L326,982.05Z"></path><path d="M302.82,117.08l-1.55,3.14h1.93l1.14-2.31a8,8,0,0,0,2.94.54,7.51,7.51,0,0,0,4-1,7.39,7.39,0,0,0,2.7-3,10,10,0,0,0,.95-4.41c0-3.29-1-5.76-3-7.35l1.58-3.16h-1.93l-1.11,2.31a7.63,7.63,0,0,0-3.17-.67,7.29,7.29,0,0,0-4,1.08,7.19,7.19,0,0,0-2.69,3,10,10,0,0,0-1,4.41c0,3.45,1.08,5.92,3.17,7.47Zm1-12a4.13,4.13,0,0,1,3.42-1.68,4.19,4.19,0,0,1,2.06.51L304,114.68a7,7,0,0,1-1.49-4.73,7.7,7.7,0,0,1,1.3-4.84Zm8.18,4.75a7.45,7.45,0,0,1-1.27,4.56,4.23,4.23,0,0,1-3.46,1.68,4.51,4.51,0,0,1-1.86-.38l5.25-10.64a7.18,7.18,0,0,1,1.34,4.53ZM330.14,95.6h-3L317,111.22v1.68h10.27v5.23h2.85V112.9h3.13v-2.34h-3.13Zm-3.2,4.53.35-.6v11h-7ZM350,104.82c0-3.26-.63-5.64-1.77-7.19a6.21,6.21,0,0,0-5.36-2.34,6.14,6.14,0,0,0-5.38,2.4c-1.14,1.62-1.71,4.09-1.71,7.39v3.83c0,3.17.63,5.54,1.8,7.16A7.15,7.15,0,0,0,348.3,116c1.14-1.65,1.71-4.12,1.71-7.48Zm-2.85,4.47a10.36,10.36,0,0,1-1.08,5.16,3.84,3.84,0,0,1-6.37-.09,10.82,10.82,0,0,1-1.07-5.39v-4.59a10.55,10.55,0,0,1,1-5.1,3.94,3.94,0,0,1,6.43,0,10.17,10.17,0,0,1,1.05,5.29Z"></path><path d="M497.54,257h2.15a5.34,5.34,0,0,1,3.49,1.07,3.74,3.74,0,0,1,1.2,3,4.2,4.2,0,0,1-1.07,3.11,5.15,5.15,0,0,1-6.31,0,3.66,3.66,0,0,1-1.14-2.82H493a5.68,5.68,0,0,0,2,4.53,8.49,8.49,0,0,0,10.3-.06,6.17,6.17,0,0,0,2-4.82,5.51,5.51,0,0,0-1-3.33,5.68,5.68,0,0,0-2.88-1.93,5.81,5.81,0,0,0,2.6-2.06,5,5,0,0,0,.95-2.85,6.13,6.13,0,0,0-1.81-4.72,8.06,8.06,0,0,0-10,.1,5.73,5.73,0,0,0-2,4.43h2.88a3.66,3.66,0,0,1,1.08-2.79,4.09,4.09,0,0,1,3-1.07c2.63,0,4,1.33,4,4a3.65,3.65,0,0,1-1.18,2.82,4.81,4.81,0,0,1-3.2,1.07h-2.15Zm24.37-12.23c-3.48.06-6.11,1.17-7.89,3.36s-2.66,5.35-2.66,9.5v1.11a10,10,0,0,0,2,6.4,6.39,6.39,0,0,0,5.23,2.47,6.55,6.55,0,0,0,5.1-2.09,7.92,7.92,0,0,0,1.9-5.58,8,8,0,0,0-1.77-5.35,5.9,5.9,0,0,0-4.69-2.06,6.06,6.06,0,0,0-4.85,2,8.15,8.15,0,0,1,2.28-5.39,7.56,7.56,0,0,1,5.32-2h.54v-2.44Zm-.25,11.63a5.72,5.72,0,0,1,1.11,3.7,5.64,5.64,0,0,1-1.11,3.71,3.61,3.61,0,0,1-3,1.42,3.79,3.79,0,0,1-3.11-1.67,7.31,7.31,0,0,1-1.26-4.47V258a4.37,4.37,0,0,1,1.71-2.18,4.52,4.52,0,0,1,2.72-.89,3.59,3.59,0,0,1,3,1.43ZM543.15,254c0-3.27-.63-5.64-1.78-7.19a7.25,7.25,0,0,0-10.74.06c-1.14,1.62-1.71,4.09-1.71,7.38V258c0,3.17.64,5.55,1.81,7.16a7.15,7.15,0,0,0,10.71-.06c1.14-1.65,1.71-4.12,1.71-7.48Zm-2.85,4.46a10.41,10.41,0,0,1-1.08,5.17,3.83,3.83,0,0,1-6.37-.1,10.78,10.78,0,0,1-1.07-5.38v-4.6a10.55,10.55,0,0,1,1-5.1,3.45,3.45,0,0,1,3.2-1.64,3.48,3.48,0,0,1,3.23,1.68,10.15,10.15,0,0,1,1,5.29Zm7.83-7.19a3.76,3.76,0,0,0,2.79,1.18,3.65,3.65,0,0,0,2.76-1.18,3.82,3.82,0,0,0,1.14-2.78,3.94,3.94,0,0,0-1.14-2.82,3.79,3.79,0,0,0-5.55,0,4,4,0,0,0-1.17,2.82,3.85,3.85,0,0,0,1.17,2.78Zm1.36-1.39a1.85,1.85,0,0,1-.57-1.39,2,2,0,0,1,.57-1.43,2,2,0,0,1,2.82,0,2,2,0,0,1,.57,1.46,1.88,1.88,0,0,1-.57,1.42,2.07,2.07,0,0,1-2.82,0Z"></path><path class="cls-1" d="M355.57,298a63.94,63.94,0,0,0,25.79-51.52c0-35.16-28-63.65-62.48-63.65S256.4,211.34,256.4,246.5A63.93,63.93,0,0,0,282.21,298v0a61.59,61.59,0,0,0,73.35,0M282.21,486.87a64,64,0,0,1-25.81-51.54c0-35.14,28-63.64,62.48-63.64s62.48,28.5,62.48,63.64a63.91,63.91,0,0,1-25.79,51.52M357,878.25H278.11V486.87H357Z"></path><path class="cls-3" d="M355.57,298a63.94,63.94,0,0,0,25.79-51.52c0-35.16-28-63.65-62.48-63.65S256.4,211.34,256.4,246.5A63.93,63.93,0,0,0,282.21,298v0a61.59,61.59,0,0,0,73.35,0M282.21,486.87a64,64,0,0,1-25.81-51.54c0-35.14,28-63.64,62.48-63.64s62.48,28.5,62.48,63.64a63.91,63.91,0,0,1-25.79,51.52M357,878.25H278.11V486.87H357Z"></path><polygon class="cls-4" points="421.78 282.5 433.8 293.1 417.29 301.66 421.78 282.5"></polygon><polygon class="cls-5" points="421.78 282.5 433.8 293.1 417.29 301.66 421.78 282.5 421.78 282.5"></polygon><polygon class="cls-3" points="422.62 285.13 431.31 292.79 419.38 298.98 422.62 285.13 422.62 285.13"></polygon><polygon class="cls-4" points="419.65 216 431.52 205.22 412.98 198.65 419.65 216"></polygon><polygon class="cls-5" points="419.65 216 431.52 205.22 412.97 198.65 419.65 216 419.65 216"></polygon><path class="cls-3" d="M421.24,217.81l10.57-10.36-16.52-6.32,5.95,16.68Zm2.31-8.34c13.26,8.28,22.18,23.76,22.18,41.49,0,16.71-7.94,31.42-20,40"></path><path class="cls-4" d="M260.9.36h-.6l-11.66,4.2V9.08L255.3,7V28.6h5.6Zm14.45,15.47c.2-.2.4-.36.63-.56a3.63,3.63,0,0,1,.76-.52,7.44,7.44,0,0,1,1-.31,4.63,4.63,0,0,1,1.35-.16,5.35,5.35,0,0,1,2,.36,3.52,3.52,0,0,1,1.39,1,3.39,3.39,0,0,1,.83,1.54,6.73,6.73,0,0,1,.28,2,11,11,0,0,1-.2,2.06,5.44,5.44,0,0,1-.71,1.66,3.28,3.28,0,0,1-1.23,1.11,3.59,3.59,0,0,1-1.79.4,3.84,3.84,0,0,1-2.77-1,4,4,0,0,1-1.23-2.74h-5.56a8.18,8.18,0,0,0,.88,3.49,8,8,0,0,0,2.14,2.58,8.76,8.76,0,0,0,3,1.63,12,12,0,0,0,3.53.55,10.4,10.4,0,0,0,4.21-.79,8.54,8.54,0,0,0,3-2.06,8.77,8.77,0,0,0,1.79-3,11.81,11.81,0,0,0,.55-3.57,14.22,14.22,0,0,0-.55-4,8.68,8.68,0,0,0-1.71-3,7.25,7.25,0,0,0-2.7-1.86,9.44,9.44,0,0,0-3.65-.64c-.43,0-.91,0-1.3.08a10.59,10.59,0,0,0-1.23.28q-.54.18-1,.36a3.59,3.59,0,0,0-.71.35l.67-6.06h11.23V.4H272.49l-1.62,14.31Zm36.43-3.77a18.25,18.25,0,0,0-.72-5.48,9.72,9.72,0,0,0-1.94-3.72,7.26,7.26,0,0,0-3-2.15A10.2,10.2,0,0,0,302.22,0a10.4,10.4,0,0,0-3.89.71,7.11,7.11,0,0,0-3,2.15,9.73,9.73,0,0,0-1.95,3.72,18.6,18.6,0,0,0-.71,5.48v4.88a18.43,18.43,0,0,0,.71,5.43,10.48,10.48,0,0,0,1.95,3.77,7.29,7.29,0,0,0,3,2.14,10.4,10.4,0,0,0,3.89.71,10.2,10.2,0,0,0,3.88-.71,7.32,7.32,0,0,0,3-2.14,10.47,10.47,0,0,0,1.94-3.77,19.57,19.57,0,0,0,.68-5.43Zm-5.6,5.63a15,15,0,0,1-.27,3.17,6.09,6.09,0,0,1-.76,2.1,2.71,2.71,0,0,1-1.23,1.15,3.63,3.63,0,0,1-1.66.36,3.67,3.67,0,0,1-1.67-.36A2.81,2.81,0,0,1,299.36,23a6.28,6.28,0,0,1-.79-2.1,17.64,17.64,0,0,1-.24-3.17V11.22a17.17,17.17,0,0,1,.24-3.13A6.06,6.06,0,0,1,299.32,6a3.42,3.42,0,0,1,1.23-1.15,3.89,3.89,0,0,1,1.67-.32,3.62,3.62,0,0,1,1.66.32A3.1,3.1,0,0,1,305.15,6a5.85,5.85,0,0,1,.76,2.06,14.63,14.63,0,0,1,.27,3.13Zm28.7,6.38H322.74l5-5.23c.95-1,1.82-1.9,2.58-2.82a19.81,19.81,0,0,0,2-2.65,13.72,13.72,0,0,0,1.23-2.62A7.89,7.89,0,0,0,334,8a9.18,9.18,0,0,0-.59-3.37,6.75,6.75,0,0,0-1.79-2.5A7.86,7.86,0,0,0,328.73.56a13.21,13.21,0,0,0-4-.56,10.52,10.52,0,0,0-4.08.75,9.1,9.1,0,0,0-3.06,2,8.78,8.78,0,0,0-2,2.93A10,10,0,0,0,315,9.28h5.63a5.59,5.59,0,0,1,.28-1.9,4.28,4.28,0,0,1,.75-1.51,3.56,3.56,0,0,1,1.31-1,3.86,3.86,0,0,1,1.74-.36,3.45,3.45,0,0,1,2.7,1.07,4.37,4.37,0,0,1,.95,3,3.69,3.69,0,0,1-.2,1.27,6.73,6.73,0,0,1-.59,1.42A12.5,12.5,0,0,1,326.39,13,23.06,23.06,0,0,1,324.64,15l-9.12,9.72V28.6h19.36Zm14.53-9.79H338.5v4.48h10.91ZM367.24.36h-.59L355,4.56V9.08L361.65,7V28.6h5.59Zm28.14,11.7a18.25,18.25,0,0,0-.72-5.48,9.72,9.72,0,0,0-1.94-3.72,7.23,7.23,0,0,0-3-2.15A10.25,10.25,0,0,0,385.82,0a10.4,10.4,0,0,0-3.89.71,7.11,7.11,0,0,0-3,2.15A9.72,9.72,0,0,0,377,6.58a18.25,18.25,0,0,0-.72,5.48v4.88a18.09,18.09,0,0,0,.72,5.43A10.47,10.47,0,0,0,379,26.14a7.29,7.29,0,0,0,3,2.14,10.4,10.4,0,0,0,3.89.71,10.25,10.25,0,0,0,3.89-.71,7.29,7.29,0,0,0,3-2.14,10.47,10.47,0,0,0,1.94-3.77,19.57,19.57,0,0,0,.68-5.43Zm-5.59,5.63a14.33,14.33,0,0,1-.28,3.17,6.31,6.31,0,0,1-.75,2.1,2.81,2.81,0,0,1-1.23,1.15,4.05,4.05,0,0,1-3.34,0A2.81,2.81,0,0,1,383,23a6.28,6.28,0,0,1-.79-2.1,17.64,17.64,0,0,1-.24-3.17V11.22a17.17,17.17,0,0,1,.24-3.13A5.85,5.85,0,0,1,382.93,6a3.32,3.32,0,0,1,1.22-1.15,3.92,3.92,0,0,1,1.67-.32,3.69,3.69,0,0,1,1.67.32A3.23,3.23,0,0,1,388.76,6a6.06,6.06,0,0,1,.75,2.06,14,14,0,0,1,.28,3.13Z"></path></svg> 