<?xml version="1.0" encoding="UTF-8"?> <svg xmlns="http://www.w3.org/2000/svg" id="Livello_1" data-name="Livello 1" viewBox="0 0 789.33 1000.49"><defs><style>.cls-1{fill:#fff;}.cls-2,.cls-3,.cls-5{fill:none;stroke-width:0.25px;}.cls-2,.cls-5{stroke:#000;}.cls-3{stroke:#231f20;}.cls-3,.cls-5{stroke-miterlimit:10;}.cls-4{fill:#231f20;}</style></defs><title>JeSuis table</title><rect class="cls-1" y="0.49" width="789.33" height="1000"></rect><path class="cls-2" d="M285.46,947.05h77.72M251.94,378.53H392.5m21.41,255.54V883.62"></path><path d="M442.34,764.09q.09,5.26,3.37,7.93t9.55,2.67h1.11a10.05,10.05,0,0,0,6.43-2,6.43,6.43,0,0,0,2.49-5.26,6.55,6.55,0,0,0-2.1-5.12,8,8,0,0,0-5.61-1.91,8.13,8.13,0,0,0-5.38,1.78,5.93,5.93,0,0,0-2.06,4.71,6.05,6.05,0,0,0,2,4.87,8.16,8.16,0,0,1-5.41-2.29,7.62,7.62,0,0,1-2-5.35v-.54h-2.45Zm11.68.26a5.78,5.78,0,0,1,3.72-1.11,5.7,5.7,0,0,1,3.73,1.11,3.64,3.64,0,0,1,1.43,3,3.75,3.75,0,0,1-1.69,3.12,7.27,7.27,0,0,1-4.49,1.28h-1.05a4.43,4.43,0,0,1-2.19-1.72,4.57,4.57,0,0,1-.89-2.74,3.61,3.61,0,0,1,1.43-3Zm-2.42-21.59c-3.28,0-5.66.64-7.22,1.78a6.24,6.24,0,0,0-2.36,5.38,6.17,6.17,0,0,0,2.42,5.41c1.62,1.15,4.1,1.72,7.41,1.72h3.86c3.18,0,5.57-.64,7.19-1.81a7.19,7.19,0,0,0-.06-10.76c-1.66-1.15-4.14-1.72-7.52-1.72Zm4.49,2.87a10.52,10.52,0,0,1,5.19,1.08,3.85,3.85,0,0,1-.1,6.39,10.77,10.77,0,0,1-5.41,1.09h-4.62a10.59,10.59,0,0,1-5.12-1.05,4,4,0,0,1,0-6.46,10.29,10.29,0,0,1,5.32-1Z"></path><path d="M302,996.85l-1.56,3.15h1.94l1.15-2.32a8,8,0,0,0,3,.54,7.61,7.61,0,0,0,4-1.05,7.46,7.46,0,0,0,2.7-3.06,10,10,0,0,0,1-4.42c0-3.31-1-5.79-3-7.39l1.59-3.18h-1.94l-1.11,2.32a7.71,7.71,0,0,0-3.18-.66,7.18,7.18,0,0,0-6.69,4.13,10,10,0,0,0-.95,4.43c0,3.47,1.08,5.95,3.18,7.51Zm1-12a4.12,4.12,0,0,1,3.44-1.69,4.19,4.19,0,0,1,2.06.51l-5.31,10.79a7,7,0,0,1-1.5-4.74,7.78,7.78,0,0,1,1.31-4.87Zm8.21,4.77a7.48,7.48,0,0,1-1.27,4.59,4.25,4.25,0,0,1-3.47,1.68,4.42,4.42,0,0,1-1.88-.38l5.28-10.69a7.22,7.22,0,0,1,1.34,4.55Zm20.92,5.95H320.79l6-6.58c2.87-3.06,4.27-5.73,4.27-8a5.71,5.71,0,0,0-1.81-4.39,7.17,7.17,0,0,0-5-1.66,7.37,7.37,0,0,0-5.38,1.94,6.56,6.56,0,0,0-2,5h2.9a4.68,4.68,0,0,1,1.18-3.4,4.5,4.5,0,0,1,3.34-1.21,3.78,3.78,0,0,1,2.86,1.14,4.07,4.07,0,0,1,1.05,2.9,5.56,5.56,0,0,1-.63,2.55,18,18,0,0,1-2.42,3.21l-7.83,8.72v2.07h14.83Zm17.26-11c0-3.28-.64-5.66-1.78-7.22a6.24,6.24,0,0,0-5.38-2.36,6.17,6.17,0,0,0-5.41,2.42c-1.15,1.62-1.72,4.11-1.72,7.42v3.85c0,3.18.64,5.57,1.81,7.19a7.19,7.19,0,0,0,10.76-.06c1.15-1.66,1.72-4.14,1.72-7.51ZM346.55,989a10.59,10.59,0,0,1-1.09,5.19,3.85,3.85,0,0,1-6.39-.1A10.77,10.77,0,0,1,338,988.7v-4.61a10.79,10.79,0,0,1,1-5.13,4,4,0,0,1,6.46,0,10.28,10.28,0,0,1,1.06,5.32Z"></path><path d="M302,355.06l-1.56,3.15h1.94l1.15-2.32a8,8,0,0,0,3,.54,7.61,7.61,0,0,0,4-1.05,7.52,7.52,0,0,0,2.7-3.06,10,10,0,0,0,1-4.42c0-3.31-1-5.8-3-7.39l1.59-3.18h-1.94l-1.11,2.32a7.71,7.71,0,0,0-3.18-.66,7.18,7.18,0,0,0-6.69,4.13,10,10,0,0,0-.95,4.43c0,3.47,1.08,5.95,3.18,7.51Zm1-12a4.12,4.12,0,0,1,3.44-1.69,4.19,4.19,0,0,1,2.06.51l-5.31,10.79a7,7,0,0,1-1.5-4.74A7.78,7.78,0,0,1,303,343Zm8.21,4.77a7.43,7.43,0,0,1-1.27,4.58,4.23,4.23,0,0,1-3.47,1.69,4.57,4.57,0,0,1-1.88-.38L309.89,343a7.22,7.22,0,0,1,1.34,4.55Zm10.26-2h2.16a5.37,5.37,0,0,1,3.5,1.09,3.73,3.73,0,0,1,1.21,3,4.18,4.18,0,0,1-1.08,3.12,5.18,5.18,0,0,1-6.33,0,3.66,3.66,0,0,1-1.15-2.83h-2.9a5.72,5.72,0,0,0,2,4.55,7.62,7.62,0,0,0,5.16,1.72,7.51,7.51,0,0,0,5.18-1.79,6.15,6.15,0,0,0,2-4.83,5.52,5.52,0,0,0-1-3.34,5.71,5.71,0,0,0-2.9-2,5.69,5.69,0,0,0,2.61-2.07,4.94,4.94,0,0,0,1-2.86,6.17,6.17,0,0,0-1.82-4.74,7.12,7.12,0,0,0-5-1.69,7.25,7.25,0,0,0-5,1.78,5.77,5.77,0,0,0-2,4.46H320a3.67,3.67,0,0,1,1.08-2.8,4.14,4.14,0,0,1,3-1.08c2.64,0,4,1.33,4,4a3.67,3.67,0,0,1-1.17,2.84,4.84,4.84,0,0,1-3.22,1.08h-2.16Z"></path><path d="M338.84,345.35l.77-.6a4.74,4.74,0,0,1,3-.83,4.11,4.11,0,0,1,3.27,1.37,5.24,5.24,0,0,1,1.25,3.66,5.7,5.7,0,0,1-1.15,3.75,3.83,3.83,0,0,1-3.15,1.37,4.3,4.3,0,0,1-3-1,4.58,4.58,0,0,1-1.37-2.93h-2.74a6.72,6.72,0,0,0,2.17,4.61,7.1,7.1,0,0,0,4.9,1.66,6.91,6.91,0,0,0,5.28-2,7.79,7.79,0,0,0,1.88-5.5,8.05,8.05,0,0,0-1.81-5.54,6.23,6.23,0,0,0-4.9-2,7.12,7.12,0,0,0-3.79,1l.67-6.18h9.16v-2.67H337.7l-1.15,11.3Z"></path><path d="M495.52,486.28h2.17a5.34,5.34,0,0,1,3.5,1.08,3.73,3.73,0,0,1,1.21,3,4.18,4.18,0,0,1-1.08,3.12,5.19,5.19,0,0,1-6.34,0,3.67,3.67,0,0,1-1.14-2.83h-2.9a5.69,5.69,0,0,0,2,4.55,8.51,8.51,0,0,0,10.34-.06,6.16,6.16,0,0,0,2-4.84,5.6,5.6,0,0,0-1-3.34,5.73,5.73,0,0,0-2.9-1.94A5.93,5.93,0,0,0,504,483a5,5,0,0,0,.95-2.87,6.19,6.19,0,0,0-1.81-4.74,8.08,8.08,0,0,0-10,.1,5.74,5.74,0,0,0-2,4.45H494a3.68,3.68,0,0,1,1.08-2.8,4.12,4.12,0,0,1,3-1.08c2.64,0,4,1.34,4,4a3.62,3.62,0,0,1-1.18,2.83,4.79,4.79,0,0,1-3.21,1.08h-2.17ZM520,474c-3.5.07-6.14,1.18-7.93,3.38s-2.67,5.38-2.67,9.54V488a10,10,0,0,0,2,6.43,6.42,6.42,0,0,0,5.25,2.48,6.55,6.55,0,0,0,5.12-2.1,7.94,7.94,0,0,0,1.91-5.6,8,8,0,0,0-1.78-5.38,5.9,5.9,0,0,0-4.71-2.07,6.07,6.07,0,0,0-4.87,2,8.12,8.12,0,0,1,2.29-5.41,7.63,7.63,0,0,1,5.35-2h.54V474Zm-.26,11.68a5.76,5.76,0,0,1,1.12,3.73,5.6,5.6,0,0,1-1.12,3.72,3.61,3.61,0,0,1-3,1.43,3.79,3.79,0,0,1-3.12-1.68,7.31,7.31,0,0,1-1.27-4.49v-1.05a4.44,4.44,0,0,1,1.72-2.2,4.61,4.61,0,0,1,2.73-.89,3.64,3.64,0,0,1,3,1.43Zm21.59-2.42c0-3.27-.63-5.66-1.78-7.22a7.28,7.28,0,0,0-10.79.06c-1.15,1.63-1.72,4.11-1.72,7.42v3.85c0,3.18.64,5.57,1.82,7.19a7.18,7.18,0,0,0,10.75-.06c1.15-1.66,1.72-4.14,1.72-7.51Zm-2.86,4.49a10.58,10.58,0,0,1-1.08,5.19,3.86,3.86,0,0,1-6.4-.1,10.76,10.76,0,0,1-1.08-5.41v-4.61a10.55,10.55,0,0,1,1.05-5.13,4,4,0,0,1,6.46,0,10.23,10.23,0,0,1,1.05,5.31Zm7.87-7.22a3.81,3.81,0,0,0,2.8,1.17,3.71,3.71,0,0,0,2.77-1.17,3.87,3.87,0,0,0,1.14-2.8,4,4,0,0,0-1.14-2.84,3.81,3.81,0,0,0-5.57,0,4,4,0,0,0-1.18,2.84,3.9,3.9,0,0,0,1.18,2.8Zm1.37-1.4a1.89,1.89,0,0,1-.58-1.4,2.1,2.1,0,0,1,.58-1.44,2,2,0,0,1,2.83,0,2,2,0,0,1,.57,1.47,1.9,1.9,0,0,1-.57,1.43,2,2,0,0,1-1.4.54,1.94,1.94,0,0,1-1.43-.57Z"></path><path class="cls-1" d="M393.17,484c0,39.19-31.31,71-69.95,71s-70-31.76-70-71,31.32-70.95,70-70.95,69.95,31.77,69.95,70.95M284.11,766.73a71.13,71.13,0,0,1-30.84-58.83c0-39.19,31.32-70.95,70-70.95s69.95,31.76,69.95,70.95a71.13,71.13,0,0,1-31.8,59.48m0,.16V882.29H283.57V767.54m0-.16h77.79"></path><path class="cls-3" d="M393.17,484c0,39.19-31.31,71-69.95,71s-70-31.76-70-71,31.32-70.95,70-70.95,69.95,31.77,69.95,70.95ZM284.11,766.73a71.13,71.13,0,0,1-30.84-58.83c0-39.19,31.32-70.95,70-70.95s69.95,31.76,69.95,70.95a71.13,71.13,0,0,1-31.8,59.48m0,.16V882.29H283.57V767.54m0-.16h77.79"></path><polygon class="cls-4" points="425.08 523.87 441.04 537.93 419.12 549.3 425.08 523.87"></polygon><polygon class="cls-5" points="425.08 523.87 441.04 537.93 419.12 549.3 425.08 523.87 425.08 523.87"></polygon><polygon class="cls-3" points="426.12 527.12 437.96 537.56 421.7 545.99 426.12 527.12 426.12 527.12"></polygon><polygon class="cls-4" points="422.45 440.95 438.2 426.65 413.59 417.92 422.45 440.95"></polygon><polygon class="cls-5" points="422.45 440.95 438.2 426.65 413.59 417.92 422.45 440.95 422.45 440.95"></polygon><path class="cls-3" d="M424.19,442.22,437.88,429,416.47,421l7.72,21.27Zm3-10.63c17.18,10.55,28.74,30.28,28.74,52.87,0,21.31-10.28,40.06-25.86,51"></path><path class="cls-4" d="M262.76.36h-.6L250.44,4.58V9.12l6.7-2.07V28.73h5.62ZM277.28,15.9a7.13,7.13,0,0,1,.63-.56,3.63,3.63,0,0,1,.76-.52,6.39,6.39,0,0,1,1-.32,4.59,4.59,0,0,1,1.35-.16,5.37,5.37,0,0,1,2,.36,3.67,3.67,0,0,1,1.4,1,3.42,3.42,0,0,1,.83,1.55,6.78,6.78,0,0,1,.28,2,11.12,11.12,0,0,1-.2,2.08,5.36,5.36,0,0,1-.71,1.67,3.35,3.35,0,0,1-1.24,1.12,3.7,3.7,0,0,1-1.79.39,3.85,3.85,0,0,1-2.79-1,4.05,4.05,0,0,1-1.24-2.75h-5.57a8.22,8.22,0,0,0,.87,3.5,8,8,0,0,0,2.15,2.59,9,9,0,0,0,3,1.64,11.77,11.77,0,0,0,3.55.56,10.45,10.45,0,0,0,4.22-.8,8.35,8.35,0,0,0,4.78-5.1,11.64,11.64,0,0,0,.56-3.59,14,14,0,0,0-.56-4,8.47,8.47,0,0,0-1.71-3,7.31,7.31,0,0,0-2.71-1.87,9.52,9.52,0,0,0-3.66-.64c-.44,0-.92,0-1.32.08a10.59,10.59,0,0,0-1.23.28q-.54.18-1,.36a3,3,0,0,0-.72.36L279,5.1H290.3V.4H274.41l-1.64,14.38Zm36.59-3.79a18.39,18.39,0,0,0-.72-5.5,9.82,9.82,0,0,0-1.95-3.74,7.29,7.29,0,0,0-3-2.15,10.11,10.11,0,0,0-3.9-.72,10.31,10.31,0,0,0-3.91.72,7.23,7.23,0,0,0-3,2.15,10,10,0,0,0-1.95,3.74,18.39,18.39,0,0,0-.72,5.5V17a18.2,18.2,0,0,0,.72,5.46,10.74,10.74,0,0,0,1.95,3.79,7.44,7.44,0,0,0,3,2.15,10.31,10.31,0,0,0,3.91.72,10.11,10.11,0,0,0,3.9-.72,7.38,7.38,0,0,0,3-2.15,10.58,10.58,0,0,0,1.95-3.79,19.69,19.69,0,0,0,.68-5.46Zm-5.62,5.66A14.52,14.52,0,0,1,308,21a6.46,6.46,0,0,1-.75,2.11A2.86,2.86,0,0,1,306,24.23a4.18,4.18,0,0,1-3.35,0,2.89,2.89,0,0,1-1.23-1.16,6.2,6.2,0,0,1-.8-2.11,17.88,17.88,0,0,1-.24-3.19V11.28a17.33,17.33,0,0,1,.24-3.15,5.83,5.83,0,0,1,.76-2.07,3.46,3.46,0,0,1,1.23-1.16,3.93,3.93,0,0,1,1.68-.32,3.69,3.69,0,0,1,1.67.32,3.21,3.21,0,0,1,1.28,1.16A6,6,0,0,1,308,8.13a14.08,14.08,0,0,1,.28,3.15Zm28.83,6.42h-12.2l5-5.26c1-1,1.84-1.92,2.59-2.83a20,20,0,0,0,2-2.67,13.8,13.8,0,0,0,1.23-2.63,8,8,0,0,0,.48-2.75,9.29,9.29,0,0,0-.6-3.39,6.78,6.78,0,0,0-1.79-2.51A8,8,0,0,0,330.9.56a13.28,13.28,0,0,0-4-.56,10.45,10.45,0,0,0-4.11.76,9.15,9.15,0,0,0-3.07,2,8.89,8.89,0,0,0-2,3,10,10,0,0,0-.68,3.62h5.66A5.68,5.68,0,0,1,323,7.41a4.47,4.47,0,0,1,.76-1.51,3.67,3.67,0,0,1,1.31-1,4,4,0,0,1,1.76-.36,3.46,3.46,0,0,1,2.71,1.08,4.38,4.38,0,0,1,.95,3,3.69,3.69,0,0,1-.2,1.27,7.43,7.43,0,0,1-.59,1.44A12.34,12.34,0,0,1,328.55,13a24.86,24.86,0,0,1-1.75,2.07l-9.17,9.76v3.87h19.45Zm14.6-9.85h-11v4.51h11ZM375,12.11a18.39,18.39,0,0,0-.72-5.5,9.82,9.82,0,0,0-2-3.74,7.29,7.29,0,0,0-3-2.15,10.11,10.11,0,0,0-3.9-.72,10.31,10.31,0,0,0-3.91.72,7.23,7.23,0,0,0-3,2.15,10,10,0,0,0-1.95,3.74,18.39,18.39,0,0,0-.72,5.5V17a18.2,18.2,0,0,0,.72,5.46,10.74,10.74,0,0,0,1.95,3.79,7.44,7.44,0,0,0,3,2.15,10.31,10.31,0,0,0,3.91.72,10.11,10.11,0,0,0,3.9-.72,7.38,7.38,0,0,0,3-2.15,10.58,10.58,0,0,0,1.95-3.79A19.69,19.69,0,0,0,375,17Zm-5.62,5.66a14.52,14.52,0,0,1-.28,3.19,6.46,6.46,0,0,1-.75,2.11,2.86,2.86,0,0,1-1.24,1.16,4.18,4.18,0,0,1-3.35,0,2.89,2.89,0,0,1-1.23-1.16,6.2,6.2,0,0,1-.8-2.11,17.88,17.88,0,0,1-.24-3.19V11.28a17.33,17.33,0,0,1,.24-3.15,5.83,5.83,0,0,1,.76-2.07,3.46,3.46,0,0,1,1.23-1.16,3.93,3.93,0,0,1,1.68-.32,3.69,3.69,0,0,1,1.67.32,3.21,3.21,0,0,1,1.28,1.16,6,6,0,0,1,.75,2.07,14.08,14.08,0,0,1,.28,3.15Zm15.12-1.31h3a7.9,7.9,0,0,1,1.95.23,5.52,5.52,0,0,1,1.47.76,3.91,3.91,0,0,1,.92,1.32,5.64,5.64,0,0,1,.32,1.95,4.18,4.18,0,0,1-.32,1.59,2.74,2.74,0,0,1-.84,1.2,3,3,0,0,1-1.35.8,5.22,5.22,0,0,1-1.79.27,4.63,4.63,0,0,1-1.64-.27,3.53,3.53,0,0,1-1.31-.76,3.27,3.27,0,0,1-1.2-2.59h-5.62a7.34,7.34,0,0,0,.84,3.62,7.53,7.53,0,0,0,2.19,2.55,9.69,9.69,0,0,0,3.07,1.52,13.33,13.33,0,0,0,3.55.48,14.07,14.07,0,0,0,4-.56,9.28,9.28,0,0,0,3.19-1.64A7.35,7.35,0,0,0,397,24.34a8.36,8.36,0,0,0,.76-3.54A6.64,6.64,0,0,0,393,14.18,9.27,9.27,0,0,0,394.87,13a8.71,8.71,0,0,0,1.35-1.44,7.33,7.33,0,0,0,.84-1.71,7,7,0,0,0,.28-1.79,8.22,8.22,0,0,0-.72-3.51,7.19,7.19,0,0,0-1.95-2.51,9,9,0,0,0-3-1.55,14.83,14.83,0,0,0-3.9-.52,11.89,11.89,0,0,0-3.63.56,10,10,0,0,0-2.95,1.55,8.08,8.08,0,0,0-2,2.43,7.05,7.05,0,0,0-.72,3.19h5.62a3,3,0,0,1,1.12-2.31,3.28,3.28,0,0,1,1.23-.64,4.18,4.18,0,0,1,1.44-.24,4.41,4.41,0,0,1,1.71.28,3.09,3.09,0,0,1,1.2.76,3,3,0,0,1,.71,1.15,4.18,4.18,0,0,1,.24,1.44,4,4,0,0,1-1,2.83,4.33,4.33,0,0,1-3.19,1.07h-3Z"></path></svg> 