<?xml version="1.0" encoding="UTF-8"?> <svg xmlns="http://www.w3.org/2000/svg" id="Livello_1" data-name="Livello 1" viewBox="0 0 1086.23 1000"><defs><style>.cls-1{fill:#fff;}.cls-2{fill:#231f20;}.cls-3,.cls-4{fill:none;stroke-width:0.25px;}.cls-3{stroke:#000;}.cls-4{stroke:#231f20;stroke-miterlimit:10;}</style></defs><title>Klint</title><rect class="cls-1" width="1086.23" height="1000"></rect><path class="cls-2" d="M301.89,1.13h-1.08l-21.06,7.6V16.9l12-3.73v39h10.11Zm26.82,29h5.38a13.34,13.34,0,0,1,3.51.43,10.51,10.51,0,0,1,2.65,1.36,7.1,7.1,0,0,1,1.65,2.37,10.45,10.45,0,0,1,.57,3.51,7.72,7.72,0,0,1-.57,2.86,4.9,4.9,0,0,1-1.51,2.15A5.37,5.37,0,0,1,338,44.19a9,9,0,0,1-3.23.51,7.94,7.94,0,0,1-2.94-.51,7,7,0,0,1-3.94-3.36,6.4,6.4,0,0,1-.57-2.65h-10.1a13.36,13.36,0,0,0,1.5,6.52,13.76,13.76,0,0,0,3.94,4.58A17.16,17.16,0,0,0,328.14,52a23.76,23.76,0,0,0,6.38.86,25.23,25.23,0,0,0,7.16-1,16.64,16.64,0,0,0,5.73-2.94,13.4,13.4,0,0,0,3.8-4.65,15.2,15.2,0,0,0,1.36-6.38,12.57,12.57,0,0,0-2.15-7.31A12.43,12.43,0,0,0,344.05,26a17.48,17.48,0,0,0,3.29-2.08,16.94,16.94,0,0,0,2.44-2.58,13.9,13.9,0,0,0,1.5-3.08,12.48,12.48,0,0,0,.5-3.23,14.78,14.78,0,0,0-1.29-6.3A12.69,12.69,0,0,0,347,4.22a16.29,16.29,0,0,0-5.44-2.8,27,27,0,0,0-7-.93,21.51,21.51,0,0,0-6.52,1,17.9,17.9,0,0,0-5.31,2.8,14.06,14.06,0,0,0-3.58,4.37,12.69,12.69,0,0,0-1.29,5.73h10.1a5.49,5.49,0,0,1,2-4.16,5.93,5.93,0,0,1,2.22-1.14,7.43,7.43,0,0,1,2.58-.43,7.9,7.9,0,0,1,3.08.5A5.58,5.58,0,0,1,340,10.52a5.18,5.18,0,0,1,1.29,2.08,7.43,7.43,0,0,1,.43,2.58,7,7,0,0,1-1.86,5.08c-1.29,1.29-3.15,1.94-5.73,1.94h-5.38Zm65.09-7.81a33.15,33.15,0,0,0-1.29-9.89A17.74,17.74,0,0,0,389,5.65a13.22,13.22,0,0,0-5.45-3.87,18.26,18.26,0,0,0-7-1.29,18.55,18.55,0,0,0-7,1.29,12.91,12.91,0,0,0-5.37,3.87,17.46,17.46,0,0,0-3.51,6.73,33.15,33.15,0,0,0-1.29,9.89v8.81a32.93,32.93,0,0,0,1.29,9.82,19,19,0,0,0,3.51,6.8,12.94,12.94,0,0,0,5.44,3.87,18.55,18.55,0,0,0,7,1.29,18.34,18.34,0,0,0,7-1.29,13,13,0,0,0,5.44-3.87,19.13,19.13,0,0,0,3.51-6.8,35.57,35.57,0,0,0,1.22-9.82ZM383.7,32.44a26.78,26.78,0,0,1-.5,5.74A11,11,0,0,1,381.83,42a5.07,5.07,0,0,1-2.22,2.08,7.29,7.29,0,0,1-6,0A5.12,5.12,0,0,1,371.37,42a11.21,11.21,0,0,1-1.43-3.79,32,32,0,0,1-.43-5.74V20.77a31,31,0,0,1,.43-5.66,10.81,10.81,0,0,1,1.36-3.73,6.15,6.15,0,0,1,2.22-2.08,7.06,7.06,0,0,1,3-.57,6.64,6.64,0,0,1,3,.57,5.75,5.75,0,0,1,2.29,2.08,10.6,10.6,0,0,1,1.37,3.73,25.92,25.92,0,0,1,.5,5.66ZM425.14,1.13h-1.08L403,8.73V16.9l12-3.73v39h10.1Zm36.64,25.15h-19.7v8.1h19.7Zm42-4a33.15,33.15,0,0,0-1.29-9.89,17.74,17.74,0,0,0-3.51-6.73,13.22,13.22,0,0,0-5.45-3.87,18.29,18.29,0,0,0-7-1.29,18.55,18.55,0,0,0-7,1.29,12.91,12.91,0,0,0-5.37,3.87,17.46,17.46,0,0,0-3.51,6.73,33.15,33.15,0,0,0-1.29,9.89v8.81a32.93,32.93,0,0,0,1.29,9.82,19,19,0,0,0,3.51,6.8,12.94,12.94,0,0,0,5.44,3.87,18.55,18.55,0,0,0,7,1.29,18.26,18.26,0,0,0,7-1.29A13,13,0,0,0,499,47.7a19.13,19.13,0,0,0,3.51-6.8,35.57,35.57,0,0,0,1.22-9.82Zm-10.1,10.17a26.08,26.08,0,0,1-.51,5.74A10.84,10.84,0,0,1,491.77,42a5.07,5.07,0,0,1-2.22,2.08,7.29,7.29,0,0,1-6,0A5.12,5.12,0,0,1,481.31,42a11.21,11.21,0,0,1-1.43-3.79,32,32,0,0,1-.43-5.74V20.77a31,31,0,0,1,.43-5.66,10.81,10.81,0,0,1,1.36-3.73,6.15,6.15,0,0,1,2.22-2.08,7.06,7.06,0,0,1,3-.57,6.64,6.64,0,0,1,3,.57,5.75,5.75,0,0,1,2.29,2.08,10.41,10.41,0,0,1,1.36,3.73,25.25,25.25,0,0,1,.51,5.66Zm27.18-2.36h5.37a13.42,13.42,0,0,1,3.52.43,10.51,10.51,0,0,1,2.65,1.36A7.08,7.08,0,0,1,534,34.24a10.19,10.19,0,0,1,.58,3.51,7.53,7.53,0,0,1-.58,2.86,4.8,4.8,0,0,1-1.5,2.15,5.41,5.41,0,0,1-2.44,1.43,8.89,8.89,0,0,1-3.22.51,7.87,7.87,0,0,1-2.94-.51A7,7,0,0,1,520,40.83a6.25,6.25,0,0,1-.57-2.65h-10.1a13.36,13.36,0,0,0,1.5,6.52,13.54,13.54,0,0,0,3.94,4.58A17.16,17.16,0,0,0,520.25,52a23.69,23.69,0,0,0,6.37.86,25.3,25.3,0,0,0,7.17-1,16.64,16.64,0,0,0,5.73-2.94,13.4,13.4,0,0,0,3.8-4.65,15.2,15.2,0,0,0,1.36-6.38,12.57,12.57,0,0,0-2.15-7.31A12.42,12.42,0,0,0,536.15,26a17.25,17.25,0,0,0,3.3-2.08,16.39,16.39,0,0,0,2.43-2.58,13.52,13.52,0,0,0,1.51-3.08,12.48,12.48,0,0,0,.5-3.23,14.78,14.78,0,0,0-1.29-6.3,12.69,12.69,0,0,0-3.51-4.51,16.38,16.38,0,0,0-5.44-2.8,27.05,27.05,0,0,0-7-.93,21.6,21.6,0,0,0-6.52,1,18,18,0,0,0-5.3,2.8,14.06,14.06,0,0,0-3.58,4.37,12.69,12.69,0,0,0-1.29,5.73H520a5.25,5.25,0,0,1,.58-2.37A5.11,5.11,0,0,1,522,10.23a5.86,5.86,0,0,1,2.22-1.14,7.43,7.43,0,0,1,2.58-.43,7.9,7.9,0,0,1,3.08.5,5.58,5.58,0,0,1,2.15,1.36,5.18,5.18,0,0,1,1.29,2.08,7.43,7.43,0,0,1,.43,2.58,7.06,7.06,0,0,1-1.86,5.08c-1.29,1.29-3.16,1.94-5.74,1.94h-5.37Z" transform="translate(0 -0.49)"></path><path class="cls-3" d="M155.94,905.28H693.25M846.63,271.94V814" transform="translate(0 -0.49)"></path><path d="M926.6,588.14v-3.89c.06-2.75.69-4.87,1.95-6.3a6.7,6.7,0,0,1,5.43-2.17,7.53,7.53,0,0,1,5.61,1.94,8,8,0,0,1,1.95,5.78,7.86,7.86,0,0,1-1.95,5.61,6.57,6.57,0,0,1-5.09,2.06v5.21a10.26,10.26,0,0,0,8.18-3.61,15.32,15.32,0,0,0-.11-18.6,11.13,11.13,0,0,0-8.7-3.6,10,10,0,0,0-6,1.83,10.35,10.35,0,0,0-3.49,5.21,10.5,10.5,0,0,0-3.72-4.69,8.93,8.93,0,0,0-5.15-1.72c-3.67,0-6.47,1.09-8.53,3.26s-3,5.21-3,9a13,13,0,0,0,3.2,9,10.41,10.41,0,0,0,8,3.55v-5.21a6.58,6.58,0,0,1-5-2,7.37,7.37,0,0,1-2-5.38c0-4.75,2.41-7.15,7.16-7.15a6.54,6.54,0,0,1,5.09,2.12,8.69,8.69,0,0,1,2,5.78v3.89Zm-5.44-50.21c-5.89.06-10.18,1.15-13,3.21s-4.23,5.26-4.23,9.67,1.43,7.67,4.35,9.73,7.38,3.09,13.33,3.09h6.93c5.72-.06,10-1.15,12.93-3.27s4.29-5.26,4.29-9.61-1.49-7.67-4.4-9.73-7.44-3.09-13.51-3.09Zm8.07,5.15c4.24.06,7.39.75,9.33,1.95a6.93,6.93,0,0,1-.17,11.5c-2.12,1.26-5.32,2-9.73,2h-8.3c-4.12-.06-7.21-.69-9.21-1.89a7.11,7.11,0,0,1,.06-11.62c2-1.26,5.15-1.89,9.55-1.89Z" transform="translate(0 -0.49)"></path><path d="M361.24,994.82l-2.8,5.67h3.49l2.06-4.18a14.43,14.43,0,0,0,5.32,1,13.65,13.65,0,0,0,7.16-1.88,13.35,13.35,0,0,0,4.86-5.5,17.91,17.91,0,0,0,1.72-7.95c0-6-1.83-10.42-5.44-13.28l2.86-5.72H377l-2,4.17a13.7,13.7,0,0,0-5.72-1.2,13.16,13.16,0,0,0-7.16,2,13,13,0,0,0-4.86,5.49,17.8,17.8,0,0,0-1.72,8c0,6.24,2,10.7,5.72,13.5Zm1.83-21.63a7.46,7.46,0,0,1,6.19-3,7.64,7.64,0,0,1,3.72.91l-9.56,19.4c-1.83-2.11-2.69-4.92-2.69-8.52,0-3.78.74-6.7,2.34-8.76Zm14.77,8.59c0,3.43-.74,6.18-2.29,8.24a7.62,7.62,0,0,1-6.24,3,8,8,0,0,1-3.37-.69l9.5-19.23a13,13,0,0,1,2.4,8.19Zm18.45-3.67h3.89c2.74.06,4.86.69,6.29,1.95a6.72,6.72,0,0,1,2.18,5.44,7.47,7.47,0,0,1-1.95,5.6,9.29,9.29,0,0,1-11.39,0,6.6,6.6,0,0,1-2.06-5.09H388a10.27,10.27,0,0,0,3.61,8.18,15.32,15.32,0,0,0,18.6-.11,11.12,11.12,0,0,0,3.61-8.7,9.93,9.93,0,0,0-1.84-6,10.32,10.32,0,0,0-5.2-3.49,10.55,10.55,0,0,0,4.69-3.72,9,9,0,0,0,1.72-5.15c0-3.66-1.09-6.47-3.27-8.53s-5.2-3-9-3a13,13,0,0,0-9,3.2,10.39,10.39,0,0,0-3.55,8h5.21a6.62,6.62,0,0,1,1.94-5,7.4,7.4,0,0,1,5.38-2c4.75,0,7.15,2.41,7.15,7.16a6.56,6.56,0,0,1-2.11,5.09,8.69,8.69,0,0,1-5.78,2h-3.89Zm50.2-5.43c-.05-5.9-1.14-10.19-3.2-13s-5.27-4.23-9.67-4.23-7.67,1.43-9.73,4.35-3.09,7.38-3.09,13.33v6.93c.05,5.72,1.14,10,3.26,12.93s5.26,4.29,9.61,4.29,7.67-1.48,9.73-4.4,3.09-7.44,3.09-13.51Zm-5.15,8.07c0,4.23-.74,7.38-1.94,9.32a6.94,6.94,0,0,1-11.51-.17c-1.26-2.12-1.94-5.32-1.94-9.73v-8.3c.06-4.12.68-7.21,1.89-9.21a7.1,7.1,0,0,1,11.61.06c1.26,2,1.89,5.15,1.89,9.56Z" transform="translate(0 -0.49)"></path><path class="cls-1" d="M594.66,685.31q7.49,2.45,14.33,5.07m-48.15-14.31c5.8,1.31,11.42,2.72,16.85,4.19m-56-11.45q11.2,1.66,21.81,3.67m-41-6.16,2.59.3m-22.93-2.29,2.16.17m-41.47-2.29c7.74.2,15.39.53,22.91,1m-60.87-1q9.42-.23,19-.24h1.6m-60.1,2.36q11.07-.92,22.47-1.47m-59.76,5.59c6.36-.9,12.86-1.71,19.46-2.43m-22,2.8,2.57-.37M286,676.07q10.68-2.42,22.08-4.43m-56,13.58q8.36-2.69,17.44-5.11m-46.7,16.41c3.53-1.64,7.24-3.25,11.13-4.79m209.35,4.57a9.55,9.55,0,1,1-19.1,0l-.57-394.45c0-3.35,4.54-6.08,10.12-6.08s10.12,2.73,10.12,6.08Zm40.48,0a9.55,9.55,0,1,1-19.1,0l-.56-394.45c0-3.35,4.52-6.08,10.1-6.08s10.12,2.73,10.12,6.08Zm39.13,0a9.56,9.56,0,1,1-19.11,0l-3.95-397.49c0-3.35,4.52-6.06,10.12-6.06s10.1,2.71,10.1,6.06Zm39.31,1.51a9.55,9.55,0,1,1-19.1,0l-8.07-396c0-3.35,4.53-6.08,10.11-6.08s10.12,2.73,10.12,6.08Zm34,0a9.56,9.56,0,1,1-19.11,0l-8.06-396c0-3.35,3-6.08,8.52-6.08s10.12,2.73,10.12,6.08Zm30.61-.76a9.56,9.56,0,1,1-19.11,0l-11.5-395.2c0-3.35,2.93-6.08,8.52-6.08s10.11,2.73,10.11,6.08Zm25.42-1.9a9.56,9.56,0,1,1-19.11,0L621.63,300c0-3.36-.4-4.19,5.2-4.19s10.1,2.73,10.1,6.07Zm14.88,1.15c0,5.34,1,9.67-4.28,9.67s-9.06-4.13-9.06-9.49l-11.52-395.2c0-3.35-.65-7.2,4.92-7.2s10.12,2.71,10.12,6.07Zm23.72-.76a9.8,9.8,0,0,1-9.68,9.77c-5.27,0-9.06-4.15-9.06-9.49L660.59,300.61c0-3.35-.66-7.2,4.93-7.2s10.1,2.72,10.1,6.07Zm-304.1,0a9.55,9.55,0,1,0,19.1,0l.56-394.45c0-3.35-4.53-6.07-10.11-6.07s-10.11,2.72-10.11,6.07Zm-40.48,0a9.55,9.55,0,1,0,19.1,0l.56-394.45c0-3.35-4.52-6.07-10.11-6.07s-10.12,2.72-10.12,6.07Zm-39.12,0a9.55,9.55,0,1,0,19.09,0l4-397.48c0-3.35-4.54-6.07-10.12-6.07S310,294.71,310,298.06Zm-19.79-19.78L295,301.09c0-3.35-4.53-6.07-10.11-6.07s-10.11,2.72-10.11,6.07l-6.66,379.37m0,0-.28,16.59a9.55,9.55,0,1,0,19.09,0l.43-21.29m-53.52,21.29a9.55,9.55,0,1,0,19.1,0l8.07-396c0-3.35-2.94-6.07-8.53-6.07s-10.11,2.72-10.11,6.07Zm-30.6-.75a9.55,9.55,0,1,0,19.09,0l11.51-395.21c0-3.35-2.94-6.07-8.52-6.07s-10.11,2.72-10.11,6.07Zm-25.43-1.9a9.55,9.55,0,1,0,19.1,0l11.51-395.21c0-3.35.4-4.17-5.18-4.17s-10.12,2.72-10.12,6.07Zm-14.87,1.14c0,5.34-1,9.67,4.27,9.67s9.07-4.14,9.07-9.48l11.51-395.2c0-3.36.66-7.22-4.92-7.22s-10.11,2.72-10.11,6.07Zm24.37-397.48c-6.61,0-12-4.25-12-9.49s5.37-9.48,12-9.48h473.9c6.63,0,12,4.25,12,9.48s-5.35,9.49-12,9.49ZM682.62,772.15H166.55V697.81H682.62Zm8.23,22H158.32v-22H690.85Zm-391.35,0a17.42,17.42,0,1,1-34.83,0m175.27,1a16.29,16.29,0,1,1-32.58,0m178,0a16.29,16.29,0,1,1-32.58,0m118.25,0a16.29,16.29,0,1,1-32.58,0m-429,0a16.29,16.29,0,1,1-32.58,0M483.21,664.68c7.51.77,14.84,1.67,21.94,2.69" transform="translate(0 -0.49)"></path><path class="cls-4" d="M594.66,685.31q7.49,2.45,14.33,5.07m-48.15-14.31c5.8,1.31,11.42,2.72,16.85,4.19m-56-11.45q11.2,1.66,21.81,3.67m-41-6.16,2.59.3m-22.93-2.29,2.16.17m-41.47-2.29c7.74.2,15.39.53,22.91,1m-60.87-1q9.42-.23,19-.24h1.6m-60.1,2.36q11.07-.92,22.47-1.47m-59.76,5.59c6.36-.9,12.86-1.71,19.46-2.43m-22,2.8,2.57-.37M286,676.07q10.68-2.42,22.08-4.43m-56,13.58q8.36-2.69,17.44-5.11m-46.7,16.41c3.53-1.64,7.24-3.25,11.13-4.79m209.35,4.57a9.55,9.55,0,1,1-19.1,0l-.57-394.45c0-3.35,4.54-6.08,10.12-6.08s10.12,2.73,10.12,6.08l-.57,394.45Zm40.48,0a9.55,9.55,0,1,1-19.1,0l-.56-394.45c0-3.35,4.52-6.08,10.1-6.08s10.12,2.73,10.12,6.08l-.56,394.45Zm39.13,0a9.56,9.56,0,1,1-19.11,0l-3.95-397.49c0-3.35,4.52-6.06,10.12-6.06s10.1,2.71,10.1,6.06l2.84,397.49Zm39.31,1.51a9.55,9.55,0,1,1-19.1,0l-8.07-396c0-3.35,4.53-6.08,10.11-6.08s10.12,2.73,10.12,6.08l6.94,396Zm34,0a9.56,9.56,0,1,1-19.11,0l-8.06-396c0-3.35,3-6.08,8.52-6.08s10.12,2.73,10.12,6.08l8.53,396Zm30.61-.76a9.56,9.56,0,1,1-19.11,0l-11.5-395.2c0-3.35,2.93-6.08,8.52-6.08s10.11,2.73,10.11,6.08l12,395.2Zm25.42-1.9a9.56,9.56,0,1,1-19.11,0L621.63,300c0-3.36-.4-4.19,5.2-4.19s10.1,2.73,10.1,6.07l15.32,393.31Zm14.88,1.15c0,5.34,1,9.67-4.28,9.67s-9.06-4.13-9.06-9.49l-11.52-395.2c0-3.35-.65-7.2,4.92-7.2s10.12,2.71,10.12,6.07l9.82,396.15Zm23.72-.76a9.8,9.8,0,0,1-9.68,9.77c-5.27,0-9.06-4.15-9.06-9.49L660.59,300.61c0-3.35-.66-7.2,4.93-7.2s10.1,2.72,10.1,6.07l15.23,396.06Zm-304.1,0a9.55,9.55,0,1,0,19.1,0l.56-394.45c0-3.35-4.53-6.07-10.11-6.07s-10.11,2.72-10.11,6.07l.56,394.45Zm-40.48,0a9.55,9.55,0,1,0,19.1,0l.56-394.45c0-3.35-4.52-6.07-10.11-6.07s-10.12,2.72-10.12,6.07l.57,394.45Zm-39.12,0a9.55,9.55,0,1,0,19.09,0l4-397.48c0-3.35-4.54-6.07-10.12-6.07S310,294.71,310,298.06l-2.82,397.48Zm-19.79-19.78L295,301.09c0-3.35-4.53-6.07-10.11-6.07s-10.11,2.72-10.11,6.07l-6.66,379.37m0,0-.28,16.59a9.55,9.55,0,1,0,19.09,0l.43-21.29m-53.52,21.29a9.55,9.55,0,1,0,19.1,0l8.07-396c0-3.35-2.94-6.07-8.53-6.07s-10.11,2.72-10.11,6.07l-8.53,396Zm-30.6-.75a9.55,9.55,0,1,0,19.09,0l11.51-395.21c0-3.35-2.94-6.07-8.52-6.07s-10.11,2.72-10.11,6.07l-12,395.21Zm-25.43-1.9a9.55,9.55,0,1,0,19.1,0l11.51-395.21c0-3.35.4-4.17-5.18-4.17s-10.12,2.72-10.12,6.07L177.81,694.4Zm-14.87,1.14c0,5.34-1,9.67,4.27,9.67s9.07-4.14,9.07-9.48l11.51-395.2c0-3.36.66-7.22-4.92-7.22s-10.11,2.72-10.11,6.07l-9.82,396.16Zm24.37-397.48c-6.61,0-12-4.25-12-9.49s5.37-9.48,12-9.48h473.9c6.63,0,12,4.25,12,9.48s-5.35,9.49-12,9.49ZM682.62,772.15H166.55V697.81H682.62Zm8.23,22H158.32v-22H690.85Zm-391.35,0a17.42,17.42,0,1,1-34.83,0m175.27,1a16.29,16.29,0,1,1-32.58,0m178,0a16.29,16.29,0,1,1-32.58,0m118.25,0a16.29,16.29,0,1,1-32.58,0m-429,0a16.29,16.29,0,1,1-32.58,0M483.21,664.68c7.51.77,14.84,1.67,21.94,2.69" transform="translate(0 -0.49)"></path></svg> 