<?xml version="1.0" encoding="UTF-8"?> <svg xmlns="http://www.w3.org/2000/svg" id="Livello_1" data-name="Livello 1" viewBox="0 0 1086.23 1000.49"><defs><style>.cls-1{fill:#fff;}.cls-2{fill:#231f20;}.cls-3,.cls-4,.cls-5,.cls-6,.cls-7{fill:none;stroke-width:0.25px;}.cls-3,.cls-4,.cls-5,.cls-6{stroke:#231f20;}.cls-3{stroke-miterlimit:10;}.cls-4{stroke-dasharray:2.31 2.31;}.cls-5{stroke-dasharray:2.47 2.47;}.cls-7{stroke:#000;}</style></defs><title>Lit Medium</title><rect class="cls-1" y="0.49" width="1086.23" height="1000"></rect><path class="cls-2" d="M382.15.47h-.78L366.15,6v5.9l8.7-2.69V37.32h7.3Zm17.1,31.11v6.11h.57a21.13,21.13,0,0,0,8.23-1.45,15.54,15.54,0,0,0,5.85-4.09,16.79,16.79,0,0,0,3.52-6.32,27.39,27.39,0,0,0,1.14-8.23V15a19.25,19.25,0,0,0-.88-6.11,14.07,14.07,0,0,0-2.48-4.76,11.44,11.44,0,0,0-3.94-3A11.87,11.87,0,0,0,406.14,0,12.3,12.3,0,0,0,401,1a11.35,11.35,0,0,0-3.88,2.84A11.75,11.75,0,0,0,394.64,8a14.94,14.94,0,0,0-.88,5.08,16.42,16.42,0,0,0,.68,4.91,11.59,11.59,0,0,0,2.07,3.89,10.67,10.67,0,0,0,3.36,2.64,11,11,0,0,0,4.66.93,8.5,8.5,0,0,0,3.62-.78,10,10,0,0,0,3-2,10.94,10.94,0,0,1-.93,3.83,7.4,7.4,0,0,1-2.18,2.8A10.13,10.13,0,0,1,404.58,31a18.66,18.66,0,0,1-4.81.57ZM404,19.31a4.87,4.87,0,0,1-1.6-1.5,6,6,0,0,1-1-2.18,11.39,11.39,0,0,1,0-5.28,6.4,6.4,0,0,1,1-2.27,4.37,4.37,0,0,1,1.55-1.56,3.86,3.86,0,0,1,2.17-.62,4.82,4.82,0,0,1,2.07.47,6.08,6.08,0,0,1,1.66,1.45,7.75,7.75,0,0,1,1.09,2.48,13.24,13.24,0,0,1,.36,3.42v3A6.07,6.07,0,0,1,409.35,19a5.33,5.33,0,0,1-3.06.88,4.85,4.85,0,0,1-2.33-.52ZM441.51.47h-.77L425.52,6v5.9l8.7-2.69V37.32h7.29Zm37.2,31H462.86l6.48-6.83c1.24-1.3,2.38-2.49,3.36-3.68a25.73,25.73,0,0,0,2.59-3.46,17,17,0,0,0,1.6-3.42,10.24,10.24,0,0,0,.62-3.57,12,12,0,0,0-.77-4.4,8.77,8.77,0,0,0-2.33-3.26A10.45,10.45,0,0,0,470.68.72,17.56,17.56,0,0,0,465.5,0a13.68,13.68,0,0,0-5.33,1,11.67,11.67,0,0,0-4,2.59A11.39,11.39,0,0,0,453.6,7.4a13.13,13.13,0,0,0-.88,4.71h7.35a7.32,7.32,0,0,1,.36-2.48,5.79,5.79,0,0,1,1-2,4.61,4.61,0,0,1,1.7-1.29,5.12,5.12,0,0,1,2.28-.47,4.5,4.5,0,0,1,3.52,1.4,5.63,5.63,0,0,1,1.24,3.88,4.74,4.74,0,0,1-.26,1.66,8.66,8.66,0,0,1-.77,1.86,15.56,15.56,0,0,1-1.5,2.23,29.61,29.61,0,0,1-2.28,2.69L453.44,32.3v5h25.27Zm19-12.78H483.44v5.85h14.23Zm30.78,12.78H512.61l6.47-6.83c1.25-1.3,2.39-2.49,3.37-3.68A25.73,25.73,0,0,0,525,17.45a17,17,0,0,0,1.6-3.42,10.24,10.24,0,0,0,.62-3.57,12,12,0,0,0-.77-4.4,8.77,8.77,0,0,0-2.33-3.26A10.54,10.54,0,0,0,520.43.72,17.56,17.56,0,0,0,515.25,0a13.68,13.68,0,0,0-5.33,1,11.67,11.67,0,0,0-4,2.59,11.39,11.39,0,0,0-2.59,3.83,13.13,13.13,0,0,0-.88,4.71h7.35a7.32,7.32,0,0,1,.36-2.48,6,6,0,0,1,1-2,4.72,4.72,0,0,1,1.71-1.29,5.12,5.12,0,0,1,2.28-.47,4.5,4.5,0,0,1,3.52,1.4,5.63,5.63,0,0,1,1.24,3.88,4.74,4.74,0,0,1-.26,1.66,8.66,8.66,0,0,1-.77,1.86,15.56,15.56,0,0,1-1.5,2.23,29.61,29.61,0,0,1-2.28,2.69L503.19,32.3v5h25.26Zm29.69,0H542.3l6.47-6.83c1.24-1.3,2.38-2.49,3.36-3.68a24.9,24.9,0,0,0,2.59-3.46A17,17,0,0,0,556.33,14a10.47,10.47,0,0,0,.62-3.57,12,12,0,0,0-.78-4.4,8.66,8.66,0,0,0-2.33-3.26A10.49,10.49,0,0,0,550.12.72,17.61,17.61,0,0,0,544.94,0a13.61,13.61,0,0,0-5.33,1,11.72,11.72,0,0,0-4,2.59A11.39,11.39,0,0,0,533,7.4a13.13,13.13,0,0,0-.88,4.71h7.35a7.31,7.31,0,0,1,.37-2.48,5.6,5.6,0,0,1,1-2,4.56,4.56,0,0,1,1.71-1.29,5.12,5.12,0,0,1,2.28-.47,4.5,4.5,0,0,1,3.52,1.4,5.68,5.68,0,0,1,1.24,3.88,4.74,4.74,0,0,1-.26,1.66,9.29,9.29,0,0,1-.78,1.86,15.56,15.56,0,0,1-1.5,2.23,28.07,28.07,0,0,1-2.28,2.69L532.88,32.3v5h25.26Z"></path><path class="cls-2" d="M371.17,79v27.33h3.05V87.54a14.2,14.2,0,0,1,1-2.43A10.62,10.62,0,0,1,376.81,83a8.73,8.73,0,0,1,2.33-1.45,7.45,7.45,0,0,1,3-.52,9.18,9.18,0,0,1,2.74.36,5,5,0,0,1,3.47,3.37,10.88,10.88,0,0,1,.47,3.41v18.07h3.05V88.16a7.32,7.32,0,0,1,.62-2.43,10,10,0,0,1,1.56-2.28,8.93,8.93,0,0,1,2.48-1.71,7.5,7.5,0,0,1,3.31-.67,10.6,10.6,0,0,1,2.7.31,4.6,4.6,0,0,1,2.12,1.19,5.57,5.57,0,0,1,1.4,2.28,11.51,11.51,0,0,1,.46,3.57v17.86h3V88.47a14.89,14.89,0,0,0-.56-4.55,7.67,7.67,0,0,0-1.76-3.11A6.55,6.55,0,0,0,404.35,79a12.16,12.16,0,0,0-3.78-.57,11.36,11.36,0,0,0-3.05.41,10.19,10.19,0,0,0-2.59,1.09,9.7,9.7,0,0,0-2.13,1.71,12,12,0,0,0-1.55,2.07,7.21,7.21,0,0,0-3.05-4A10.21,10.21,0,0,0,383,78.43a10.76,10.76,0,0,0-5.23,1.34,7.79,7.79,0,0,0-2,1.56,10.21,10.21,0,0,0-1.6,2.07L374.06,79Zm59.9,27.43a9.12,9.12,0,0,0,2.69-1,9.48,9.48,0,0,0,2.07-1.5,14,14,0,0,0,1.6-1.92l-1.91-1.4a8.91,8.91,0,0,1-3.37,2.8,9.52,9.52,0,0,1-4.29.88,8.62,8.62,0,0,1-3.83-.83,9.15,9.15,0,0,1-2.95-2.33,10.44,10.44,0,0,1-1.92-3.42,12.64,12.64,0,0,1-.67-4.24v-.57H438V91a17.56,17.56,0,0,0-.72-5,11.34,11.34,0,0,0-2.07-4,9.88,9.88,0,0,0-3.42-2.59,10.81,10.81,0,0,0-4.61-.93,10.21,10.21,0,0,0-4.45,1,12.16,12.16,0,0,0-3.73,2.8,13,13,0,0,0-2.58,4.35,16.46,16.46,0,0,0-.94,5.74v1.09a14.83,14.83,0,0,0,.94,5.38A12.14,12.14,0,0,0,419,103a10.79,10.79,0,0,0,3.89,2.74,11.79,11.79,0,0,0,4.91,1,12.87,12.87,0,0,0,3.32-.42Zm-.52-24.64a8.28,8.28,0,0,1,2.43,2,9.24,9.24,0,0,1,1.45,2.85,12,12,0,0,1,.57,3.36v.31H418.59a14.34,14.34,0,0,1,1-3.78,9.56,9.56,0,0,1,1.82-2.9A8.82,8.82,0,0,1,424,81.64a8.16,8.16,0,0,1,3.21-.62,7.77,7.77,0,0,1,3.37.72Zm12.14,11.13a19.23,19.23,0,0,0,.72,5.64,13.89,13.89,0,0,0,2.07,4.4,10.16,10.16,0,0,0,3.32,2.85,9.52,9.52,0,0,0,4.4,1,11,11,0,0,0,5.07-1.09,10.31,10.31,0,0,0,3.47-3.06l.1,3.63h2.85V67.45h-3V82.78a10.32,10.32,0,0,0-3.47-3.21,10.06,10.06,0,0,0-5-1.14,9.35,9.35,0,0,0-4.4,1,9.7,9.7,0,0,0-3.37,2.8,13.89,13.89,0,0,0-2.07,4.4,19.74,19.74,0,0,0-.72,5.74Zm3.05-.52a20.32,20.32,0,0,1,.47-4.45,11.17,11.17,0,0,1,1.45-3.57A6.94,6.94,0,0,1,450.19,82a6.77,6.77,0,0,1,3.63-.88,9.8,9.8,0,0,1,2.9.41,8.32,8.32,0,0,1,2.22,1.19,7.38,7.38,0,0,1,1.61,1.71,11.58,11.58,0,0,1,1.14,2V99.24a12.28,12.28,0,0,1-1.25,2,6.74,6.74,0,0,1-1.65,1.55,8.27,8.27,0,0,1-2.23,1,9.79,9.79,0,0,1-2.79.37,7.06,7.06,0,0,1-3.58-.88,7,7,0,0,1-2.53-2.39,11.17,11.17,0,0,1-1.45-3.57,19.86,19.86,0,0,1-.47-4.45ZM476.05,79H473v27.33h3.06ZM473,72.47a2.18,2.18,0,0,0,1.56.57,2,2,0,0,0,1.5-.57,1.91,1.91,0,0,0,.57-1.44,1.85,1.85,0,0,0-.57-1.45,1.9,1.9,0,0,0-1.5-.63,2,2,0,0,0-1.56.63,2,2,0,0,0-.51,1.45,2.07,2.07,0,0,0,.51,1.44Zm28.88,33.81h2.95V79h-3.05V98.72a10.59,10.59,0,0,1-1,2.17,5.52,5.52,0,0,1-1.66,1.71,7,7,0,0,1-2.43,1.14,11.47,11.47,0,0,1-3.21.42,7.62,7.62,0,0,1-2.43-.37,5,5,0,0,1-2-1.29,6.42,6.42,0,0,1-1.35-2.33,12.36,12.36,0,0,1-.51-3.68V79h-3V96.44a14.2,14.2,0,0,0,.68,4.77,8.23,8.23,0,0,0,1.81,3.2,7.5,7.5,0,0,0,2.84,1.82,12.83,12.83,0,0,0,9-.52,8.84,8.84,0,0,0,3.42-2.9ZM512.45,79v27.33h3.06V87.54a14.2,14.2,0,0,1,1-2.43A10.25,10.25,0,0,1,518.1,83a8.67,8.67,0,0,1,2.32-1.45,7.5,7.5,0,0,1,3-.52,9.22,9.22,0,0,1,2.74.36,5,5,0,0,1,3.47,3.37,10.88,10.88,0,0,1,.47,3.41v18.07h3V88.16a7.32,7.32,0,0,1,.62-2.43,9.66,9.66,0,0,1,1.55-2.28,9,9,0,0,1,2.49-1.71,7.5,7.5,0,0,1,3.31-.67,10.47,10.47,0,0,1,2.69.31A4.58,4.58,0,0,1,546,82.57a5.46,5.46,0,0,1,1.39,2.28,11.48,11.48,0,0,1,.47,3.57v17.86h3V88.47a14.57,14.57,0,0,0-.57-4.55,7.45,7.45,0,0,0-1.76-3.11A6.52,6.52,0,0,0,545.64,79a12.2,12.2,0,0,0-3.78-.57,11.43,11.43,0,0,0-3.06.41,10.5,10.5,0,0,0-2.59,1.09,9.65,9.65,0,0,0-2.12,1.71,11.53,11.53,0,0,0-1.55,2.07,7.22,7.22,0,0,0-3.06-4,10.17,10.17,0,0,0-5.17-1.24,9.59,9.59,0,0,0-2.8.36,9.37,9.37,0,0,0-2.43,1,7.63,7.63,0,0,0-2,1.56,10.21,10.21,0,0,0-1.6,2.07L515.35,79Z"></path><path class="cls-1" d="M455.22,430V214.21m83.31,600.87H371.92a7.82,7.82,0,0,1-7.75-7.85V437.85a7.82,7.82,0,0,1,7.75-7.84H538.53a7.82,7.82,0,0,1,7.74,7.84V807.23a7.82,7.82,0,0,1-7.74,7.85"></path><path class="cls-3" d="M455.22,430V214.21m83.31,600.87H371.92a7.82,7.82,0,0,1-7.75-7.85V437.85a7.82,7.82,0,0,1,7.75-7.84H538.53a7.82,7.82,0,0,1,7.74,7.84V807.23a7.82,7.82,0,0,1-7.74,7.85Z"></path><path class="cls-4" d="M378.16,794.67c3.4-24.47,12.91-65.38,39.41-103.34"></path><line class="cls-5" x1="428.25" y1="653.21" x2="428.25" y2="500.01"></line><path class="cls-6" d="M448,486.68h6.57m-26.29,6.67v-6.67h6.57M421.94,685.34c1.49-2,3-3.94,4.6-5.83l1.71-6.29v-6.67m-52,150.33s0-2.73.34-7.43"></path><path class="cls-4" d="M532.29,794.67c-3.41-24.47-12.92-65.38-39.42-103.34"></path><line class="cls-5" x1="482.2" y1="653.21" x2="482.2" y2="500.01"></line><path class="cls-6" d="M462.48,486.68H455.9m26.3,6.67v-6.67h-6.57m12.88,198.66c-1.49-2-3-3.94-4.6-5.83l-1.71-6.29v-6.67m52,150.33s0-2.73-.34-7.43"></path><line class="cls-7" x1="363.31" y1="880.33" x2="547.13" y2="880.33"></line><path d="M451.08,916.86h-.58l-10.71,4v3.39l7.52-2.77v24.89h3.77ZM476,917c-4.55.08-8,1.53-10.29,4.38s-3.48,7-3.48,12.41v1.45a13,13,0,0,0,2.65,8.35,8.35,8.35,0,0,0,6.82,3.22,8.51,8.51,0,0,0,6.66-2.72,11.83,11.83,0,0,0,.17-14.27,7.67,7.67,0,0,0-6.12-2.69,7.89,7.89,0,0,0-6.33,2.65,10.59,10.59,0,0,1,3-7,9.87,9.87,0,0,1,6.94-2.56h.71V917Zm-.33,15.18a7.49,7.49,0,0,1,1.45,4.83,7.36,7.36,0,0,1-1.45,4.84,4.71,4.71,0,0,1-4,1.86,4.91,4.91,0,0,1-4.05-2.19,9.44,9.44,0,0,1-1.65-5.83v-1.36a5.76,5.76,0,0,1,2.23-2.86,6,6,0,0,1,3.56-1.15,4.71,4.71,0,0,1,3.88,1.86Z"></path><line class="cls-7" x1="666.11" y1="429.63" x2="666.11" y2="815.94"></line><path d="M723.88,652.51V649.7a6.92,6.92,0,0,1,1.41-4.55,4.83,4.83,0,0,1,3.93-1.57,5.42,5.42,0,0,1,4,1.4,6.71,6.71,0,0,1,0,8.23,4.78,4.78,0,0,1-3.68,1.49v3.76a7.43,7.43,0,0,0,5.91-2.6,11,11,0,0,0-.08-13.44,8,8,0,0,0-6.29-2.61,7.22,7.22,0,0,0-4.34,1.33,7.51,7.51,0,0,0-2.52,3.76,7.59,7.59,0,0,0-2.69-3.39,6.45,6.45,0,0,0-3.72-1.24,8,8,0,0,0-6.16,2.35,10.56,10.56,0,0,0,.12,13,7.49,7.49,0,0,0,5.79,2.56v-3.76A4.74,4.74,0,0,1,712,653a5.33,5.33,0,0,1-1.4-3.88c0-3.43,1.74-5.17,5.17-5.17a4.75,4.75,0,0,1,3.68,1.53,6.26,6.26,0,0,1,1.4,4.18v2.81Zm-16-33.59v4L728.31,636h2.19v-13.4h6.82v-3.72H730.5v-4.1h-3.06v4.1Zm5.92,4.17-.79-.45h14.39v9.18Z"></path></svg> 