<?xml version="1.0" encoding="UTF-8"?> <svg xmlns="http://www.w3.org/2000/svg" id="Livello_1" data-name="Livello 1" viewBox="0 0 1086.23 1000.49"><defs><style>.cls-1{fill:#fff;}.cls-2{fill:#231f20;}.cls-3,.cls-4,.cls-5,.cls-6,.cls-7{fill:none;}.cls-3{stroke:#000;}.cls-3,.cls-4{stroke-width:0.25px;}.cls-4,.cls-5,.cls-6,.cls-7{stroke:#231f20;}.cls-4{stroke-miterlimit:10;}.cls-5,.cls-6,.cls-7{stroke-width:0.17px;}.cls-5{stroke-dasharray:2.64 2.64;}.cls-6{stroke-dasharray:2.68 2.68;}</style></defs><title>Lit large</title><rect class="cls-1" y="0.49" width="1086.23" height="1000"></rect><path class="cls-2" d="M385.35.47h-.78L369.35,6v5.9l8.7-2.69V37.32h7.3Zm17.1,31.11v6.11H403a21.13,21.13,0,0,0,8.23-1.45,15.54,15.54,0,0,0,5.85-4.09,16.65,16.65,0,0,0,3.52-6.32,27.39,27.39,0,0,0,1.14-8.23V15a19.25,19.25,0,0,0-.88-6.11,14.07,14.07,0,0,0-2.48-4.76,11.44,11.44,0,0,0-3.94-3A11.87,11.87,0,0,0,409.34,0a12.3,12.3,0,0,0-5.13,1,11.35,11.35,0,0,0-3.88,2.84A11.75,11.75,0,0,0,397.84,8a14.94,14.94,0,0,0-.88,5.08,16.42,16.42,0,0,0,.68,4.91,11.59,11.59,0,0,0,2.07,3.89,10.67,10.67,0,0,0,3.36,2.64,11,11,0,0,0,4.66.93,8.58,8.58,0,0,0,3.63-.78,10,10,0,0,0,3-2,10.94,10.94,0,0,1-.93,3.83,7.4,7.4,0,0,1-2.18,2.8A10.13,10.13,0,0,1,407.78,31a18.66,18.66,0,0,1-4.81.57Zm4.71-12.27a4.87,4.87,0,0,1-1.6-1.5,6,6,0,0,1-1-2.18,11.39,11.39,0,0,1,0-5.28,6.4,6.4,0,0,1,1-2.27,4.37,4.37,0,0,1,1.55-1.56,3.86,3.86,0,0,1,2.17-.62,4.9,4.9,0,0,1,2.08.47A6.2,6.2,0,0,1,413,7.82a7.75,7.75,0,0,1,1.09,2.48,13.24,13.24,0,0,1,.36,3.42v3A6.07,6.07,0,0,1,412.55,19a5.33,5.33,0,0,1-3.06.88,4.88,4.88,0,0,1-2.33-.52ZM444.72.47h-.78L428.72,6v5.9l8.7-2.69V37.32h7.3Zm37.19,31H466.07l6.47-6.83c1.24-1.3,2.38-2.49,3.36-3.68a25.73,25.73,0,0,0,2.59-3.46,17,17,0,0,0,1.6-3.42,10.24,10.24,0,0,0,.63-3.57,12,12,0,0,0-.78-4.4,8.77,8.77,0,0,0-2.33-3.26A10.45,10.45,0,0,0,473.88.72,17.54,17.54,0,0,0,468.71,0a13.69,13.69,0,0,0-5.34,1,11.67,11.67,0,0,0-4,2.59A11.39,11.39,0,0,0,456.8,7.4a13.13,13.13,0,0,0-.88,4.71h7.35a7.32,7.32,0,0,1,.36-2.48,5.79,5.79,0,0,1,1-2,4.61,4.61,0,0,1,1.7-1.29,5.15,5.15,0,0,1,2.28-.47,4.5,4.5,0,0,1,3.52,1.4,5.63,5.63,0,0,1,1.24,3.88,5,5,0,0,1-.25,1.66,9.29,9.29,0,0,1-.78,1.86,15.56,15.56,0,0,1-1.5,2.23,29.61,29.61,0,0,1-2.28,2.69L456.64,32.3v5h25.27Zm19-12.78H486.64v5.85h14.23Zm30.79,12.78H515.81l6.48-6.83c1.24-1.3,2.38-2.49,3.36-3.68a25.73,25.73,0,0,0,2.59-3.46,17,17,0,0,0,1.6-3.42,10.24,10.24,0,0,0,.62-3.57,12,12,0,0,0-.77-4.4,8.77,8.77,0,0,0-2.33-3.26A10.54,10.54,0,0,0,523.63.72,17.56,17.56,0,0,0,518.45,0a13.68,13.68,0,0,0-5.33,1,11.67,11.67,0,0,0-4,2.59,11.39,11.39,0,0,0-2.59,3.83,13.13,13.13,0,0,0-.88,4.71H513a7.32,7.32,0,0,1,.36-2.48,5.79,5.79,0,0,1,1-2,4.61,4.61,0,0,1,1.7-1.29,5.12,5.12,0,0,1,2.28-.47,4.5,4.5,0,0,1,3.52,1.4,5.63,5.63,0,0,1,1.24,3.88,4.74,4.74,0,0,1-.26,1.66,8.66,8.66,0,0,1-.77,1.86,15.56,15.56,0,0,1-1.5,2.23,29.61,29.61,0,0,1-2.28,2.69L506.39,32.3v5h25.27Zm11.87-10h3.88a9.61,9.61,0,0,1,2.54.31,7.54,7.54,0,0,1,1.92,1,5.25,5.25,0,0,1,1.19,1.71,7.47,7.47,0,0,1,.41,2.54,5.46,5.46,0,0,1-.41,2.07A3.53,3.53,0,0,1,552,30.54a4,4,0,0,1-1.76,1,6.45,6.45,0,0,1-2.33.36,5.66,5.66,0,0,1-2.12-.36,4.59,4.59,0,0,1-1.71-1,4.35,4.35,0,0,1-1.14-1.45,4.47,4.47,0,0,1-.41-1.91h-7.3a9.64,9.64,0,0,0,1.08,4.71,9.83,9.83,0,0,0,2.85,3.31,12.62,12.62,0,0,0,4,2,17.47,17.47,0,0,0,4.6.62,18.58,18.58,0,0,0,5.18-.72A12,12,0,0,0,557,35a9.73,9.73,0,0,0,2.75-3.36,11,11,0,0,0,1-4.61,9.1,9.1,0,0,0-1.55-5.28,9,9,0,0,0-4.61-3.31,12.47,12.47,0,0,0,2.38-1.5,11.94,11.94,0,0,0,1.76-1.87,9.72,9.72,0,0,0,1.09-2.22,9,9,0,0,0,.36-2.33A10.74,10.74,0,0,0,559.27,6a9.26,9.26,0,0,0-2.54-3.26,11.79,11.79,0,0,0-3.93-2A19.58,19.58,0,0,0,547.72,0,15.69,15.69,0,0,0,543,.72a13.17,13.17,0,0,0-3.83,2A10.28,10.28,0,0,0,536.6,5.9a9.06,9.06,0,0,0-.94,4.14H543a4,4,0,0,1,1.45-3A4.48,4.48,0,0,1,546,6.21a5.34,5.34,0,0,1,1.86-.31,5.73,5.73,0,0,1,2.23.36,3.94,3.94,0,0,1,1.55,1,3.75,3.75,0,0,1,.93,1.5,5.34,5.34,0,0,1,.31,1.86,5.09,5.09,0,0,1-1.34,3.68,5.6,5.6,0,0,1-4.15,1.4h-3.88Z"></path><path class="cls-2" d="M415.69,67.45h-3.06v38.83h3.06Zm28.66,38.83V106c-.1-.31-.25-.68-.36-1.14s-.15-.88-.26-1.35-.1-.93-.15-1.45a14.44,14.44,0,0,1-.05-1.45V87.33a9.73,9.73,0,0,0-.73-3.88,7.68,7.68,0,0,0-2.07-2.8,9,9,0,0,0-3.1-1.65,12.58,12.58,0,0,0-4-.57,12.85,12.85,0,0,0-4.3.67A12.16,12.16,0,0,0,426,80.91a8.48,8.48,0,0,0-2.12,2.59,5.92,5.92,0,0,0-.73,3l3,0a4.56,4.56,0,0,1,.57-2.17,6,6,0,0,1,1.5-1.76,6.94,6.94,0,0,1,2.33-1.14,8.77,8.77,0,0,1,2.9-.47,7.36,7.36,0,0,1,5.28,1.71,6,6,0,0,1,1.81,4.61v3.11h-5.59a22.46,22.46,0,0,0-5.23.57,11.83,11.83,0,0,0-3.93,1.76A7.18,7.18,0,0,0,422.46,99a7.44,7.44,0,0,0,.62,3.06,7.08,7.08,0,0,0,1.76,2.48,8.62,8.62,0,0,0,2.79,1.66,11.65,11.65,0,0,0,3.63.57,13.39,13.39,0,0,0,3-.37,17.44,17.44,0,0,0,2.59-.93,9.41,9.41,0,0,0,2.07-1.4,7.78,7.78,0,0,0,1.6-1.65c.06.72.11,1.4.21,2.12a6.68,6.68,0,0,0,.42,1.71Zm-15.27-2.59a6.13,6.13,0,0,1-2-1.14,4.23,4.23,0,0,1-1.19-1.71,4.66,4.66,0,0,1-.47-2.07,5.15,5.15,0,0,1,.67-2.53,5.42,5.42,0,0,1,2-1.92,9.44,9.44,0,0,1,3.11-1.19,16.73,16.73,0,0,1,4.14-.41h5.17v6a8.92,8.92,0,0,1-1.34,2.12,10.67,10.67,0,0,1-2,1.71,10.1,10.1,0,0,1-2.54,1.14,11.36,11.36,0,0,1-3.05.41,7.69,7.69,0,0,1-2.54-.41Zm35.23-25a5.73,5.73,0,0,0-.88-.21,8.77,8.77,0,0,0-1.14-.1,7.86,7.86,0,0,0-4.66,1.29,9.35,9.35,0,0,0-3.05,3.57L454.53,79h-3v27.33h3V87.49a13.72,13.72,0,0,1,1-2.49,7.27,7.27,0,0,1,1.61-1.91,6.51,6.51,0,0,1,2.17-1.3,8,8,0,0,1,2.8-.46,12.86,12.86,0,0,1,2,.15Zm3.45,14.13a19.22,19.22,0,0,0,.73,5.64,12.53,12.53,0,0,0,2.07,4.4,10.23,10.23,0,0,0,3.31,2.85,9.37,9.37,0,0,0,4.4,1,11,11,0,0,0,5-1.09,9.5,9.5,0,0,0,3.42-2.95v3.16a11.54,11.54,0,0,1-.52,3.67,6.89,6.89,0,0,1-1.61,2.69,6.31,6.31,0,0,1-2.53,1.76,9.69,9.69,0,0,1-3.42.57,9,9,0,0,1-4.09-.93,11.85,11.85,0,0,1-3.57-3l-1.66,1.81a9,9,0,0,0,1.92,2.07,13.39,13.39,0,0,0,2.38,1.45,15.8,15.8,0,0,0,2.59.88,11.26,11.26,0,0,0,2.64.26,12.35,12.35,0,0,0,4.5-.78,9.61,9.61,0,0,0,3.47-2.22,10.37,10.37,0,0,0,2.17-3.57,13.7,13.7,0,0,0,.83-4.77V79H487l-.16,3.93a9.91,9.91,0,0,0-3.47-3.26,10.9,10.9,0,0,0-9.47-.21,10.07,10.07,0,0,0-3.31,2.8,12.53,12.53,0,0,0-2.07,4.4,19.73,19.73,0,0,0-.73,5.74Zm3.05-.52a20.32,20.32,0,0,1,.47-4.45,11.17,11.17,0,0,1,1.45-3.57A6.89,6.89,0,0,1,475.27,82a6.71,6.71,0,0,1,3.62-.88,9.76,9.76,0,0,1,2.9.41A8.55,8.55,0,0,1,484,82.67a8.28,8.28,0,0,1,1.6,1.71,8.76,8.76,0,0,1,1.09,2.07V99.13a9.93,9.93,0,0,1-1.19,2,7,7,0,0,1-1.66,1.56,8.24,8.24,0,0,1-2.23,1.08,9.29,9.29,0,0,1-2.79.37,7,7,0,0,1-3.57-.88,6.92,6.92,0,0,1-2.54-2.39,11.17,11.17,0,0,1-1.45-3.57,19.86,19.86,0,0,1-.47-4.45Zm40.77,14a9.12,9.12,0,0,0,2.69-1,9.25,9.25,0,0,0,2.07-1.5,14.9,14.9,0,0,0,1.61-1.92l-1.92-1.4a8.89,8.89,0,0,1-3.36,2.8,9.59,9.59,0,0,1-4.3.88,8.62,8.62,0,0,1-3.83-.83,9.26,9.26,0,0,1-3-2.33,10.44,10.44,0,0,1-1.92-3.42,12.9,12.9,0,0,1-.67-4.24v-.57h19.52V91a17.22,17.22,0,0,0-.73-5,11.34,11.34,0,0,0-2.07-4,9.88,9.88,0,0,0-3.42-2.59,10.73,10.73,0,0,0-4.6-.93,10.22,10.22,0,0,0-4.46,1,12.12,12.12,0,0,0-3.72,2.8,12.87,12.87,0,0,0-2.59,4.35A16.69,16.69,0,0,0,496,92.3v1.09a15,15,0,0,0,.93,5.38,12,12,0,0,0,2.54,4.25,10.76,10.76,0,0,0,3.88,2.74,11.81,11.81,0,0,0,4.92,1,12.85,12.85,0,0,0,3.31-.42Zm-.52-24.64a8.28,8.28,0,0,1,2.43,2,9,9,0,0,1,1.45,2.85,11.66,11.66,0,0,1,.57,3.36v.31H499.1a14,14,0,0,1,1-3.78,9.35,9.35,0,0,1,1.81-2.9,8.73,8.73,0,0,1,2.59-1.91A8.13,8.13,0,0,1,507.7,81a7.73,7.73,0,0,1,3.36.72Z"></path><path class="cls-3" d="M355.12,933.53h200.6M675.43,451.67V860.42"></path><path d="M717.24,654.24v4l20.39,13.15h2.19V658h6.82v-3.72h-6.82v-4.1h-3.06v4.1Zm5.91,4.17-.78-.45h14.39v9.18Zm20.43-30.94v14.76L735,634.38c-4-3.73-7.44-5.54-10.34-5.54a7.39,7.39,0,0,0-5.7,2.35,9.33,9.33,0,0,0-2.15,6.49,9.55,9.55,0,0,0,2.52,7,8.5,8.5,0,0,0,6.53,2.65v-3.76a6.13,6.13,0,0,1-4.42-1.53,5.91,5.91,0,0,1-1.57-4.35,4.89,4.89,0,0,1,1.49-3.72,5.25,5.25,0,0,1,3.76-1.36,7.12,7.12,0,0,1,3.31.83,22.59,22.59,0,0,1,4.17,3.14L744,646.74h2.69V627.47Z"></path><path d="M454.76,996.53H440l7.85-8.56c3.72-4,5.54-7.45,5.54-10.34a7.4,7.4,0,0,0-2.35-5.71,9.38,9.38,0,0,0-6.49-2.15,9.51,9.51,0,0,0-7,2.53,8.49,8.49,0,0,0-2.65,6.53h3.76a6.17,6.17,0,0,1,1.53-4.43,5.91,5.91,0,0,1,4.35-1.57,4.93,4.93,0,0,1,3.72,1.49,5.25,5.25,0,0,1,1.36,3.76,7.09,7.09,0,0,1-.83,3.31,22.59,22.59,0,0,1-3.14,4.18L435.49,996.9v2.69h19.27Zm22.42-14.31c0-4.26-.82-7.36-2.31-9.39s-3.81-3.06-7-3.06-5.54,1-7,3.15-2.23,5.33-2.23,9.63v5c0,4.14.82,7.24,2.35,9.35s3.81,3.1,6.95,3.1,5.54-1.08,7-3.18,2.23-5.38,2.23-9.76Zm-3.72,5.83c0,3.06-.54,5.33-1.4,6.74a5,5,0,0,1-8.32-.12c-.91-1.53-1.4-3.85-1.4-7v-6c0-3,.49-5.21,1.36-6.66a4.53,4.53,0,0,1,4.18-2.15A4.58,4.58,0,0,1,472.1,975c.91,1.45,1.36,3.73,1.36,6.91Z"></path><path class="cls-1" d="M546.71,865.56H365.85a8.49,8.49,0,0,1-8.41-8.51V456.64a8.48,8.48,0,0,1,8.41-8.5H546.71a8.47,8.47,0,0,1,8.41,8.5V857.05a8.48,8.48,0,0,1-8.41,8.51"></path><path class="cls-4" d="M546.71,865.56H365.85a8.49,8.49,0,0,1-8.41-8.51V456.64a8.48,8.48,0,0,1,8.41-8.5H546.71a8.47,8.47,0,0,1,8.4,8.5V857.05a8.48,8.48,0,0,1-8.4,8.51Z"></path><path class="cls-5" d="M372,847.2c3.27-26.28,13.4-74.31,44.91-118.12"></path><line class="cls-6" x1="426.98" y1="689.86" x2="426.98" y2="523.71"></line><path class="cls-7" d="M448.4,509.25h7.14M427,516.48v-7.23h7.15M420.94,723.66c1.35-1.8,2.74-3.54,4.17-5.27l1.86-6.85v-7.23m-56.49,163s0-2.33.28-6.7"></path><path class="cls-5" d="M540.54,847.2c-3.27-26.28-13.4-74.31-44.91-118.12"></path><line class="cls-6" x1="485.59" y1="689.86" x2="485.59" y2="523.71"></line><path class="cls-7" d="M464.16,509.25H457m28.57,7.23v-7.23h-7.15m13.18,214.41c-1.35-1.8-2.74-3.54-4.17-5.27l-1.86-6.85v-7.23m56.49,163s0-2.33-.28-6.7"></path><line class="cls-4" x1="456.28" y1="448.14" x2="456.28" y2="214.21"></line></svg> 