<?xml version="1.0" encoding="UTF-8"?> <svg xmlns="http://www.w3.org/2000/svg" id="Livello_1" data-name="Livello 1" viewBox="0 0 1086.23 1000.49"><defs><style>.cls-1{fill:#fff;}.cls-2{fill:#231f20;}.cls-3,.cls-4,.cls-5,.cls-6,.cls-7{fill:none;stroke-width:0.25px;}.cls-3,.cls-4,.cls-5,.cls-6{stroke:#231f20;}.cls-3{stroke-miterlimit:10;}.cls-4{stroke-dasharray:4.03 4.03;}.cls-5{stroke-dasharray:2.5 2.5;}.cls-7{stroke:#000;}</style></defs><title>Lit small</title><rect class="cls-1" y="0.49" width="1086.23" height="1000"></rect><path class="cls-2" d="M391.28.47h-.78L375.28,6v5.9L384,9.16V37.32h7.3Zm17.11,31.11v6.11H409a21.16,21.16,0,0,0,8.23-1.45A15.62,15.62,0,0,0,423,32.15a16.92,16.92,0,0,0,3.52-6.32,27.71,27.71,0,0,0,1.13-8.23V15a19,19,0,0,0-.88-6.11,13.73,13.73,0,0,0-2.48-4.76,11.4,11.4,0,0,0-3.93-3A12,12,0,0,0,415.27,0a12.29,12.29,0,0,0-5.12,1,11.39,11.39,0,0,0-3.89,2.84A11.88,11.88,0,0,0,403.78,8a14.94,14.94,0,0,0-.88,5.08,16.75,16.75,0,0,0,.67,4.91,11.77,11.77,0,0,0,2.07,3.89A10.6,10.6,0,0,0,409,24.49a11,11,0,0,0,4.66.93,8.57,8.57,0,0,0,3.62-.78,9.91,9.91,0,0,0,3-2,10.52,10.52,0,0,1-.93,3.83,7.38,7.38,0,0,1-2.17,2.8A10.31,10.31,0,0,1,413.72,31a18.74,18.74,0,0,1-4.82.57Zm4.71-12.27a5,5,0,0,1-1.61-1.5,6.12,6.12,0,0,1-1-2.18,10.74,10.74,0,0,1-.31-2.69,10.62,10.62,0,0,1,.31-2.59,6.57,6.57,0,0,1,1-2.27A4.45,4.45,0,0,1,413,6.52a3.89,3.89,0,0,1,2.18-.62,4.85,4.85,0,0,1,2.07.47A6.23,6.23,0,0,1,419,7.82,8,8,0,0,1,420,10.3a13.21,13.21,0,0,1,.37,3.42v3A6.1,6.1,0,0,1,418.48,19a5.3,5.3,0,0,1-3.05.88,4.85,4.85,0,0,1-2.33-.52ZM450.65.47h-.78L434.65,6v5.9l8.7-2.69V37.32h7.3Zm37.19,31H472l6.47-6.83c1.24-1.3,2.38-2.49,3.37-3.68a25.62,25.62,0,0,0,2.58-3.46A16.49,16.49,0,0,0,486,14a10.47,10.47,0,0,0,.62-3.57,12,12,0,0,0-.78-4.4,8.66,8.66,0,0,0-2.33-3.26A10.41,10.41,0,0,0,479.82.72,17.56,17.56,0,0,0,474.64,0a13.61,13.61,0,0,0-5.33,1,11.72,11.72,0,0,0-4,2.59,11.39,11.39,0,0,0-2.59,3.83,13.13,13.13,0,0,0-.88,4.71h7.35a7.31,7.31,0,0,1,.37-2.48,5.78,5.78,0,0,1,1-2,4.72,4.72,0,0,1,1.71-1.29,5.12,5.12,0,0,1,2.28-.47,4.5,4.5,0,0,1,3.52,1.4,5.68,5.68,0,0,1,1.24,3.88,4.74,4.74,0,0,1-.26,1.66,8.74,8.74,0,0,1-.78,1.86,15.56,15.56,0,0,1-1.5,2.23,28.07,28.07,0,0,1-2.28,2.69L462.58,32.3v5h25.26Zm19-12.78H492.57v5.85h14.24Zm30.78,12.78H521.75l6.47-6.83c1.24-1.3,2.38-2.49,3.36-3.68a24.9,24.9,0,0,0,2.59-3.46A16.49,16.49,0,0,0,535.78,14a10.47,10.47,0,0,0,.62-3.57,12,12,0,0,0-.78-4.4,8.66,8.66,0,0,0-2.33-3.26A10.41,10.41,0,0,0,529.57.72,17.61,17.61,0,0,0,524.39,0a13.61,13.61,0,0,0-5.33,1,11.72,11.72,0,0,0-4,2.59,11.39,11.39,0,0,0-2.59,3.83,13.13,13.13,0,0,0-.88,4.71H519a7.31,7.31,0,0,1,.37-2.48,5.78,5.78,0,0,1,1-2A4.72,4.72,0,0,1,522,6.37a5.12,5.12,0,0,1,2.28-.47,4.5,4.5,0,0,1,3.52,1.4,5.68,5.68,0,0,1,1.24,3.88,4.74,4.74,0,0,1-.26,1.66A8.74,8.74,0,0,1,528,14.7a15.56,15.56,0,0,1-1.5,2.23,28.07,28.07,0,0,1-2.28,2.69L512.33,32.3v5h25.26ZM559.77.47H559L543.77,6v5.9l8.7-2.69V37.32h7.3Z"></path><path class="cls-2" d="M428.51,101.15a5,5,0,0,1-1.35,1.61,10.53,10.53,0,0,1-2.23,1.09,11.3,11.3,0,0,1-3.05.36,11.11,11.11,0,0,1-2.59-.26,7.82,7.82,0,0,1-2.43-.93,5.2,5.2,0,0,1-1.81-1.71,5.31,5.31,0,0,1-.83-2.69h-3.06a6.91,6.91,0,0,0,.73,3,7.69,7.69,0,0,0,2.07,2.64,10,10,0,0,0,3.31,1.81,15.52,15.52,0,0,0,4.61.68,15,15,0,0,0,4.19-.57,9,9,0,0,0,3.16-1.56,7.58,7.58,0,0,0,2.07-2.38,6.75,6.75,0,0,0,.67-3.1,6.37,6.37,0,0,0-.57-2.9,5.86,5.86,0,0,0-1.7-2.23,13,13,0,0,0-3-1.71,28.44,28.44,0,0,0-4.24-1.24A27.11,27.11,0,0,1,418.72,90a7.64,7.64,0,0,1-2.22-1.19,2.71,2.71,0,0,1-1.09-1.39,4.27,4.27,0,0,1-.31-1.66,4.12,4.12,0,0,1,.41-1.71,4,4,0,0,1,1.14-1.55,6.88,6.88,0,0,1,2.07-1.09,8.6,8.6,0,0,1,3-.41,9,9,0,0,1,3,.46A6.66,6.66,0,0,1,427,82.72a5.18,5.18,0,0,1,1.4,1.82,4.82,4.82,0,0,1,.47,2.07h3a7.58,7.58,0,0,0-.67-3.26,7.93,7.93,0,0,0-2-2.59A9.84,9.84,0,0,0,426,79.05a13.44,13.44,0,0,0-4.25-.62,13.26,13.26,0,0,0-4,.57,10.06,10.06,0,0,0-3.06,1.6A7.06,7.06,0,0,0,412.77,83a6.26,6.26,0,0,0-.67,2.9,6.38,6.38,0,0,0,.62,2.9,5.53,5.53,0,0,0,1.86,2.12,11.13,11.13,0,0,0,3,1.56,33,33,0,0,0,4,1.08,22.86,22.86,0,0,1,3.73,1.14,7.44,7.44,0,0,1,2.22,1.4,4.85,4.85,0,0,1,1.09,1.55,4.91,4.91,0,0,1,.31,1.71,3.78,3.78,0,0,1-.46,1.81ZM438.57,79v27.33h3.06V87.54a14.2,14.2,0,0,1,1-2.43A10.62,10.62,0,0,1,444.22,83a8.73,8.73,0,0,1,2.33-1.45,7.42,7.42,0,0,1,3-.52,9.22,9.22,0,0,1,2.74.36,5,5,0,0,1,3.47,3.37,10.88,10.88,0,0,1,.47,3.41v18.07h3V88.16a7.32,7.32,0,0,1,.62-2.43,9.7,9.7,0,0,1,1.56-2.28,8.93,8.93,0,0,1,2.48-1.71,7.5,7.5,0,0,1,3.31-.67,10.47,10.47,0,0,1,2.69.31,4.58,4.58,0,0,1,2.13,1.19,5.57,5.57,0,0,1,1.4,2.28,11.51,11.51,0,0,1,.46,3.57v17.86h3V88.47a14.57,14.57,0,0,0-.57-4.55,7.45,7.45,0,0,0-1.76-3.11A6.46,6.46,0,0,0,471.76,79a12.16,12.16,0,0,0-3.78-.57,11.49,11.49,0,0,0-3.06.41,10.27,10.27,0,0,0-2.58,1.09,9.47,9.47,0,0,0-2.13,1.71,11.53,11.53,0,0,0-1.55,2.07,7.21,7.21,0,0,0-3.05-4,10.21,10.21,0,0,0-5.18-1.24,9.63,9.63,0,0,0-2.8.36,9.51,9.51,0,0,0-2.43,1,7.63,7.63,0,0,0-2,1.56,10.21,10.21,0,0,0-1.6,2.07L441.47,79Zm66.48,27.33V106a10.47,10.47,0,0,1-.36-1.14c-.11-.42-.16-.88-.26-1.35s-.11-.93-.16-1.45a14.44,14.44,0,0,1,0-1.45V87.33a9.91,9.91,0,0,0-.72-3.88,7.68,7.68,0,0,0-2.07-2.8A9,9,0,0,0,498.32,79a12.54,12.54,0,0,0-4-.57,12.89,12.89,0,0,0-4.3.67,12.16,12.16,0,0,0-3.31,1.81,8.63,8.63,0,0,0-2.12,2.59,5.92,5.92,0,0,0-.73,3l3,0a4.45,4.45,0,0,1,.57-2.17,5.83,5.83,0,0,1,1.5-1.76,6.94,6.94,0,0,1,2.33-1.14,8.73,8.73,0,0,1,2.9-.47,7.36,7.36,0,0,1,5.28,1.71,6,6,0,0,1,1.81,4.61v3.11h-5.59a22.33,22.33,0,0,0-5.23.57,11.89,11.89,0,0,0-3.94,1.76,7.72,7.72,0,0,0-2.69,9.37,7.35,7.35,0,0,0,1.76,2.48,8.56,8.56,0,0,0,2.8,1.66,11.64,11.64,0,0,0,3.62.57,13.39,13.39,0,0,0,3-.37,16.66,16.66,0,0,0,2.59-.93,9.41,9.41,0,0,0,2.07-1.4,8.09,8.09,0,0,0,1.61-1.65c0,.72.1,1.4.21,2.12a6.7,6.7,0,0,0,.41,1.71Zm-15.27-2.59a6.07,6.07,0,0,1-2-1.14,4.33,4.33,0,0,1-1.19-1.71,4.66,4.66,0,0,1-.47-2.07,5.05,5.05,0,0,1,.68-2.53,5.32,5.32,0,0,1,2-1.92,9.53,9.53,0,0,1,3.11-1.19,16.78,16.78,0,0,1,4.14-.41h5.18v6a9,9,0,0,1-1.35,2.12,10.94,10.94,0,0,1-2,1.71,10.26,10.26,0,0,1-2.54,1.14,11.43,11.43,0,0,1-3.06.41,7.58,7.58,0,0,1-2.53-.41Zm25.91-36.24h-3.06v38.83h3.06Zm11.58,0h-3v38.83h3Z"></path><path class="cls-1" d="M458.52,429.61V214.21m67.81,530H390.72a6.38,6.38,0,0,1-6.3-6.42V436a6.37,6.37,0,0,1,6.3-6.41H526.33a6.37,6.37,0,0,1,6.3,6.41V737.79a6.38,6.38,0,0,1-6.3,6.42"></path><path class="cls-3" d="M458.52,429.61V214.21m67.81,530H390.72a6.38,6.38,0,0,1-6.3-6.42V436a6.37,6.37,0,0,1,6.3-6.41H526.33a6.37,6.37,0,0,1,6.3,6.41V737.79a6.38,6.38,0,0,1-6.3,6.42Z"></path><path class="cls-4" d="M396.62,723.39c3.18-19.63,10.88-49.32,29.61-77.29"></path><line class="cls-5" x1="436.62" y1="609.74" x2="436.62" y2="489.19"></line><path class="cls-6" d="M452.63,476.46H458m-21.34,6.37v-6.37H442M430.59,639.89c1.48-2,3-4,4.63-6l1.4-5.15v-6.37M394.4,746s0-2.72.39-7.5"></path><path class="cls-4" d="M520.42,723.39c-3.18-19.63-10.88-49.32-29.61-77.29"></path><line class="cls-5" x1="480.42" y1="609.74" x2="480.42" y2="489.19"></line><path class="cls-6" d="M464.41,476.46h-5.34m21.35,6.37v-6.37h-5.33m11.36,163.43c-1.48-2-3-4-4.63-6l-1.4-5.15v-6.37M522.64,746s0-2.72-.39-7.5"></path><line class="cls-7" x1="383.56" y1="807.2" x2="533.48" y2="807.2"></line><path d="M452.45,843.73h-.58l-10.71,4v3.39l7.52-2.77v24.89h3.77Zm30.24,26.46H467.92l7.86-8.56c3.72-4,5.54-7.44,5.54-10.33a7.37,7.37,0,0,0-2.36-5.71,9.3,9.3,0,0,0-6.49-2.15,9.58,9.58,0,0,0-7,2.52,8.55,8.55,0,0,0-2.64,6.54h3.76a6.17,6.17,0,0,1,1.53-4.43,5.88,5.88,0,0,1,4.34-1.57,4.93,4.93,0,0,1,3.72,1.49,5.26,5.26,0,0,1,1.37,3.76,7.09,7.09,0,0,1-.83,3.31,23.06,23.06,0,0,1-3.14,4.18l-10.17,11.33v2.68h19.27Z"></path><line class="cls-7" x1="654.65" y1="427.68" x2="654.65" y2="745.97"></line><path d="M722.81,601.12v14.77L714.25,608c-4-3.72-7.44-5.54-10.33-5.54a7.4,7.4,0,0,0-5.71,2.35,9.34,9.34,0,0,0-2.15,6.5,9.58,9.58,0,0,0,2.52,7,8.55,8.55,0,0,0,6.54,2.64v-3.76a6.17,6.17,0,0,1-4.43-1.53,5.9,5.9,0,0,1-1.57-4.34,4.93,4.93,0,0,1,1.49-3.72,5.26,5.26,0,0,1,3.76-1.37,7.09,7.09,0,0,1,3.31.83,23.41,23.41,0,0,1,4.18,3.14l11.33,10.17h2.68V601.12Zm-26.34-18c.09,4.55,1.53,8,4.39,10.3s7,3.47,12.4,3.47h1.45a13.05,13.05,0,0,0,8.35-2.64,8.36,8.36,0,0,0,3.23-6.82,8.5,8.5,0,0,0-2.73-6.66,10.34,10.34,0,0,0-7.28-2.48,10.48,10.48,0,0,0-7,2.31,7.67,7.67,0,0,0-2.69,6.12,7.89,7.89,0,0,0,2.65,6.33,10.62,10.62,0,0,1-7-3,9.9,9.9,0,0,1-2.56-7v-.7h-3.19Zm15.18.34a7.45,7.45,0,0,1,4.84-1.45,7.32,7.32,0,0,1,4.84,1.45,4.71,4.71,0,0,1,1.86,4,4.92,4.92,0,0,1-2.2,4,9.48,9.48,0,0,1-5.83,1.65H713.8a5.75,5.75,0,0,1-2.85-2.23,6,6,0,0,1-1.16-3.56,4.71,4.71,0,0,1,1.86-3.88Z"></path></svg> 