<?xml version="1.0" encoding="UTF-8"?> <svg xmlns="http://www.w3.org/2000/svg" id="Livello_1" data-name="Livello 1" viewBox="0 0 461.33 1000"><defs><style>.cls-1{fill:#fff;}.cls-2{fill:#231f20;}.cls-3,.cls-4{fill:none;stroke:#000;stroke-width:0.25px;}.cls-4{stroke-miterlimit:10;}</style></defs><title>Lula floor</title><rect class="cls-1" width="461.33" height="1000"></rect><path class="cls-2" d="M118.64.84h-.59L106.55,5V9.45l6.57-2V28.69h5.52ZM132.89,16.1a6.89,6.89,0,0,1,.63-.55,3.45,3.45,0,0,1,.74-.51,6.16,6.16,0,0,1,1-.31,4.49,4.49,0,0,1,1.33-.16,5.43,5.43,0,0,1,2,.35,3.63,3.63,0,0,1,1.37,1,3.34,3.34,0,0,1,.82,1.53,6.47,6.47,0,0,1,.28,2,10.58,10.58,0,0,1-.2,2,5.37,5.37,0,0,1-.7,1.65A3.29,3.29,0,0,1,139,24.23a3.47,3.47,0,0,1-1.76.39,3.79,3.79,0,0,1-2.73-1,4,4,0,0,1-1.22-2.7h-5.47a8.13,8.13,0,0,0,.86,3.44,7.72,7.72,0,0,0,2.11,2.54,8.61,8.61,0,0,0,3,1.6,11.36,11.36,0,0,0,3.48.55,10.28,10.28,0,0,0,4.15-.78,8.4,8.4,0,0,0,2.93-2,8.29,8.29,0,0,0,1.76-3,11.19,11.19,0,0,0,.55-3.52,13.56,13.56,0,0,0-.55-3.95,8.39,8.39,0,0,0-1.68-2.93,7.17,7.17,0,0,0-2.66-1.84,9.37,9.37,0,0,0-3.6-.63c-.43,0-.9,0-1.29.08a10.72,10.72,0,0,0-1.21.28,9,9,0,0,0-.94.35,2.81,2.81,0,0,0-.7.35l.66-6h11.07V.88H130.07L128.47,15Zm35.92-3.72a18.11,18.11,0,0,0-.7-5.4,9.47,9.47,0,0,0-1.92-3.67,7.12,7.12,0,0,0-3-2.12,9.94,9.94,0,0,0-3.83-.7,10.17,10.17,0,0,0-3.84.7,7.07,7.07,0,0,0-2.93,2.12A9.61,9.61,0,0,0,150.7,7a18.44,18.44,0,0,0-.7,5.4v4.81a18.34,18.34,0,0,0,.7,5.36,10.44,10.44,0,0,0,1.92,3.72,7.25,7.25,0,0,0,3,2.11,10.17,10.17,0,0,0,3.84.7,9.94,9.94,0,0,0,3.83-.7,7.25,7.25,0,0,0,3-2.11,10.44,10.44,0,0,0,1.92-3.72,19.53,19.53,0,0,0,.66-5.36Zm-5.51,5.55a14.63,14.63,0,0,1-.27,3.13,6.05,6.05,0,0,1-.75,2.08,2.78,2.78,0,0,1-1.21,1.13,4,4,0,0,1-3.29,0,2.83,2.83,0,0,1-1.21-1.13,6.24,6.24,0,0,1-.78-2.08,17.17,17.17,0,0,1-.24-3.13V11.56a16.77,16.77,0,0,1,.24-3.09,5.88,5.88,0,0,1,.74-2,3.37,3.37,0,0,1,1.22-1.14A3.87,3.87,0,0,1,159.39,5,3.7,3.7,0,0,1,161,5.3a3.16,3.16,0,0,1,1.25,1.14,5.68,5.68,0,0,1,.75,2,14.29,14.29,0,0,1,.27,3.09Zm14.45-1.83a6.89,6.89,0,0,1,.63-.55,3.21,3.21,0,0,1,.74-.51,5.87,5.87,0,0,1,1-.31,4.49,4.49,0,0,1,1.33-.16,5.43,5.43,0,0,1,2,.35,3.63,3.63,0,0,1,1.37,1,3.43,3.43,0,0,1,.82,1.53,6.47,6.47,0,0,1,.27,2,10.61,10.61,0,0,1-.19,2,5.15,5.15,0,0,1-.71,1.65,3.18,3.18,0,0,1-1.21,1.09,3.47,3.47,0,0,1-1.76.39,3.83,3.83,0,0,1-2.74-1A4,4,0,0,1,178.1,21h-5.47a8,8,0,0,0,.86,3.44,7.72,7.72,0,0,0,2.11,2.54,8.61,8.61,0,0,0,3,1.6,11.36,11.36,0,0,0,3.48.55,10.31,10.31,0,0,0,4.15-.78,8.21,8.21,0,0,0,4.69-5,11.48,11.48,0,0,0,.55-3.52,13.91,13.91,0,0,0-.55-3.95,8.39,8.39,0,0,0-1.68-2.93,7.17,7.17,0,0,0-2.66-1.84,9.4,9.4,0,0,0-3.6-.63c-.43,0-.9,0-1.29.08a10.72,10.72,0,0,0-1.21.28,9,9,0,0,0-.94.35,2.81,2.81,0,0,0-.7.35l.66-6h11.07V.88H174.93L173.33,15Zm28.18-1.53H195.17V19h10.76ZM223.51.84h-.58L211.43,5V9.45l6.57-2V28.69h5.51Zm27.75,11.54a18.11,18.11,0,0,0-.7-5.4,9.61,9.61,0,0,0-1.92-3.67,7.19,7.19,0,0,0-3-2.12,9.94,9.94,0,0,0-3.83-.7,10.17,10.17,0,0,0-3.84.7,7.07,7.07,0,0,0-2.93,2.12A9.61,9.61,0,0,0,233.15,7a18.11,18.11,0,0,0-.7,5.4v4.81a18,18,0,0,0,.7,5.36,10.44,10.44,0,0,0,1.92,3.72,7.25,7.25,0,0,0,3,2.11,10.17,10.17,0,0,0,3.84.7,10,10,0,0,0,3.83-.7,7.25,7.25,0,0,0,3-2.11,10.44,10.44,0,0,0,1.92-3.72,19.53,19.53,0,0,0,.66-5.36Zm-5.51,5.55a14,14,0,0,1-.28,3.13,6.06,6.06,0,0,1-.74,2.08,2.78,2.78,0,0,1-1.21,1.13,4,4,0,0,1-3.29,0A2.78,2.78,0,0,1,239,23.14a6,6,0,0,1-.78-2.08,17.17,17.17,0,0,1-.24-3.13V11.56a16.77,16.77,0,0,1,.24-3.09,5.88,5.88,0,0,1,.74-2,3.35,3.35,0,0,1,1.21-1.14A4,4,0,0,1,241.84,5a3.7,3.7,0,0,1,1.64.31,3.16,3.16,0,0,1,1.25,1.14,5.68,5.68,0,0,1,.74,2,13.63,13.63,0,0,1,.28,3.09Z" transform="translate(0 -0.49)"></path><path class="cls-3" d="M101.76,948.51H252.39m97.51-822.3V895.69" transform="translate(0 -0.49)"></path><path d="M381.41,526.16v.44l3,8.09H387L384.91,529h18.81v-2.84Zm11.75-11.85-.59-.75a4.62,4.62,0,0,1-.82-2.91,4.1,4.1,0,0,1,1.35-3.22,5.15,5.15,0,0,1,3.59-1.21,5.61,5.61,0,0,1,3.69,1.12,3.8,3.8,0,0,1,1.34,3.09,4.18,4.18,0,0,1-1,2.91,4.42,4.42,0,0,1-2.87,1.34v2.69a6.6,6.6,0,0,0,4.53-2.13,7,7,0,0,0,1.62-4.81,6.76,6.76,0,0,0-2-5.18,7.64,7.64,0,0,0-5.4-1.85,8,8,0,0,0-5.44,1.78,6.15,6.15,0,0,0-2,4.82,7,7,0,0,0,1,3.71l-6.06-.65v-9H381.5v11.37l11.1,1.13Zm-2.56-27.94c-3.22,0-5.56.62-7.1,1.75a7.15,7.15,0,0,0,.07,10.59c1.59,1.12,4,1.68,7.28,1.68h3.78c3.12,0,5.46-.62,7.06-1.78a6,6,0,0,0,2.34-5.25,6.09,6.09,0,0,0-2.4-5.31c-1.63-1.12-4.07-1.68-7.38-1.68Zm4.4,2.81a10.25,10.25,0,0,1,5.09,1.06,3.78,3.78,0,0,1-.09,6.28,10.52,10.52,0,0,1-5.31,1.06h-4.53a10.28,10.28,0,0,1-5-1,3.41,3.41,0,0,1-1.63-3.15,3.45,3.45,0,0,1,1.66-3.19,10,10,0,0,1,5.22-1Z" transform="translate(0 -0.49)"></path><path d="M145.26,997.4l-1.53,3.09h1.91l1.12-2.28a8,8,0,0,0,2.91.53,7.4,7.4,0,0,0,3.9-1,7.32,7.32,0,0,0,2.66-3,9.9,9.9,0,0,0,.93-4.34c0-3.25-1-5.69-3-7.25l1.56-3.13h-1.91l-1.09,2.28a7.58,7.58,0,0,0-3.12-.65,7,7,0,0,0-6.57,4.06,9.81,9.81,0,0,0-.93,4.34c0,3.41,1.06,5.85,3.12,7.38Zm1-11.81a4,4,0,0,1,3.38-1.66,4.24,4.24,0,0,1,2,.5L146.45,995a6.81,6.81,0,0,1-1.47-4.65,7.64,7.64,0,0,1,1.28-4.78Zm8.06,4.68a7.26,7.26,0,0,1-1.25,4.5,4.14,4.14,0,0,1-3.4,1.66,4.47,4.47,0,0,1-1.85-.38L153,985.56a7.1,7.1,0,0,1,1.31,4.46Zm10.07-2h2.13a5.2,5.2,0,0,1,3.43,1.07,3.62,3.62,0,0,1,1.19,3,4.11,4.11,0,0,1-1.06,3.07,5.09,5.09,0,0,1-6.22,0,3.62,3.62,0,0,1-1.12-2.79h-2.85a5.6,5.6,0,0,0,2,4.47A8.36,8.36,0,0,0,172,997a6.07,6.07,0,0,0,2-4.75,5.43,5.43,0,0,0-1-3.28,5.64,5.64,0,0,0-2.84-1.91,5.64,5.64,0,0,0,2.56-2,4.83,4.83,0,0,0,.94-2.81,6,6,0,0,0-1.78-4.65,8,8,0,0,0-9.84.09,5.67,5.67,0,0,0-1.94,4.37h2.84a3.58,3.58,0,0,1,1.07-2.74,4,4,0,0,1,2.93-1.07c2.6,0,3.91,1.32,3.91,3.91a3.58,3.58,0,0,1-1.16,2.78,4.71,4.71,0,0,1-3.15,1.06h-2.13Zm27.41-3c0-3.22-.62-5.57-1.75-7.1a7.15,7.15,0,0,0-10.59.07c-1.12,1.59-1.69,4-1.69,7.28v3.78c0,3.12.63,5.46,1.78,7.06a7.07,7.07,0,0,0,10.57-.07c1.12-1.62,1.68-4.06,1.68-7.37Zm-2.81,4.4a10.36,10.36,0,0,1-1.06,5.09,3.78,3.78,0,0,1-6.28-.09,10.57,10.57,0,0,1-1.06-5.31v-4.53a10.28,10.28,0,0,1,1-5,3.39,3.39,0,0,1,3.15-1.63,3.46,3.46,0,0,1,3.19,1.66,10,10,0,0,1,1,5.22Z" transform="translate(0 -0.49)"></path><path class="cls-1" d="M210.22,201s23.91,16.68,23.13,24.9V902.14h8.79V225.92c1.51-11.82-27.42-34.24-27.42-34.24" transform="translate(0 -0.49)"></path><path class="cls-4" d="M210.22,201s23.91,16.68,23.13,24.9V902.14h8.79V225.92c1.51-11.82-27.42-34.24-27.42-34.24" transform="translate(0 -0.49)"></path><path class="cls-1" d="M234.24,152.37c2.06-3.86,1.61-8.21,1.61-12.83,0-15.81-13.61-28.63-30.4-28.63a31,31,0,0,0-24.79,12L158,159.4l-5.79,9.32,57.41,31.41Z" transform="translate(0 -0.49)"></path><path class="cls-4" d="M234.24,152.37c2.06-3.86,1.61-8.21,1.61-12.83,0-15.81-13.61-28.63-30.4-28.63a31,31,0,0,0-24.79,12L158,159.4l-5.79,9.32,57.41,31.41,24.6-47.76ZM157.7,159.9l57.24,30" transform="translate(0 -0.49)"></path><path class="cls-1" d="M151.41,169.15s13.85,24.41,58.27,31.13" transform="translate(0 -0.49)"></path><path class="cls-4" d="M151.41,169.15s13.85,24.41,58.27,31.13" transform="translate(0 -0.49)"></path><path class="cls-1" d="M181.25,193.71c0,2.78-2.24,5.5-5,5.5a5,5,0,0,1-5-5,8.21,8.21,0,0,1,1.83-4.61" transform="translate(0 -0.49)"></path><path class="cls-4" d="M181.25,193.71c0,2.78-2.24,5.5-5,5.5a5,5,0,0,1-5-5,8.21,8.21,0,0,1,1.83-4.61m-70,718.23H261.17V903H103.06Zm119.52,5.14H230v-4.29h-7.44Zm-97.4,0h7.39v-4.3h-7.39Z" transform="translate(0 -0.49)"></path></svg> 