<?xml version="1.0" encoding="UTF-8"?> <svg xmlns="http://www.w3.org/2000/svg" id="Livello_1" data-name="Livello 1" viewBox="0 0 1086.23 1000.49"><defs><style>.cls-1{fill:#fff;}.cls-2{fill:#231f20;}.cls-3,.cls-4{fill:none;stroke-width:0.25px;}.cls-3{stroke:#000;}.cls-4{stroke:#231f20;stroke-miterlimit:10;}</style></defs><title>Lula tavolo small</title><rect class="cls-1" y="0.49" width="1086.23" height="1000"></rect><path class="cls-2" d="M340,.59h-1l-19.27,7V15l11-3.41V47.26H340Zm23.89,25.57c.33-.33.66-.59,1.05-.92a6,6,0,0,1,1.24-.85,10.14,10.14,0,0,1,1.71-.53,7.59,7.59,0,0,1,2.23-.26,9,9,0,0,1,3.34.59,6,6,0,0,1,2.3,1.7,5.77,5.77,0,0,1,1.37,2.56,11.05,11.05,0,0,1,.46,3.34,17.93,17.93,0,0,1-.33,3.41A8.63,8.63,0,0,1,376.12,38a5.51,5.51,0,0,1-2,1.83,5.93,5.93,0,0,1-2.95.66,6.38,6.38,0,0,1-4.59-1.64,6.68,6.68,0,0,1-2-4.53h-9.18a13.55,13.55,0,0,0,1.45,5.77,13,13,0,0,0,3.54,4.26,14.61,14.61,0,0,0,5,2.69,19.37,19.37,0,0,0,5.83.92,17.34,17.34,0,0,0,6.95-1.31A14,14,0,0,0,383,43.2a14.22,14.22,0,0,0,2.95-5,19.18,19.18,0,0,0,.91-5.9A23,23,0,0,0,386,25.7a14.21,14.21,0,0,0-2.82-4.92,12.08,12.08,0,0,0-4.46-3.08,15.75,15.75,0,0,0-6-1.05c-.72,0-1.51.07-2.16.13a17.43,17.43,0,0,0-2,.46c-.59.2-1.11.39-1.57.59a4.92,4.92,0,0,0-1.18.59l1.11-10h18.56V.66H359.21l-2.69,23.66Zm60.21-6.23a30.53,30.53,0,0,0-1.18-9,16.07,16.07,0,0,0-3.22-6.16,12,12,0,0,0-5-3.54A16.65,16.65,0,0,0,408.34,0a17,17,0,0,0-6.43,1.18A11.76,11.76,0,0,0,397,4.72a16.06,16.06,0,0,0-3.21,6.16,30.2,30.2,0,0,0-1.18,9V28a30,30,0,0,0,1.18,9A17.27,17.27,0,0,0,397,43.2a12,12,0,0,0,5,3.54,16.91,16.91,0,0,0,6.42,1.18,16.7,16.7,0,0,0,6.43-1.18,12,12,0,0,0,5-3.54A17.27,17.27,0,0,0,423,37a32.59,32.59,0,0,0,1.12-9Zm-9.25,9.31a23.81,23.81,0,0,1-.46,5.24A10.34,10.34,0,0,1,413.19,38a4.84,4.84,0,0,1-2,1.9,6.73,6.73,0,0,1-5.51,0,4.72,4.72,0,0,1-2-1.9,10.3,10.3,0,0,1-1.31-3.48,29.64,29.64,0,0,1-.4-5.24V18.55a28.91,28.91,0,0,1,.4-5.18A9.91,9.91,0,0,1,403.55,10a5.64,5.64,0,0,1,2-1.9,6.46,6.46,0,0,1,2.75-.52,6.12,6.12,0,0,1,2.75.52,5.35,5.35,0,0,1,2.1,1.9,9.91,9.91,0,0,1,1.24,3.41,23.23,23.23,0,0,1,.46,5.18Zm24.22-3.08c.33-.33.66-.59,1.05-.92a5.83,5.83,0,0,1,1.25-.85,9.74,9.74,0,0,1,1.7-.53,7.63,7.63,0,0,1,2.23-.26,9,9,0,0,1,3.34.59,6,6,0,0,1,2.3,1.7,5.77,5.77,0,0,1,1.37,2.56,11.05,11.05,0,0,1,.46,3.34,17.93,17.93,0,0,1-.33,3.41A8.63,8.63,0,0,1,451.3,38a5.51,5.51,0,0,1-2,1.83,5.93,5.93,0,0,1-2.95.66,6.38,6.38,0,0,1-4.59-1.64,6.68,6.68,0,0,1-2-4.53h-9.18A13.55,13.55,0,0,0,432,40.05a13,13,0,0,0,3.54,4.26,14.61,14.61,0,0,0,5,2.69,19.37,19.37,0,0,0,5.83.92,17.34,17.34,0,0,0,6.95-1.31,14,14,0,0,0,4.92-3.41,14.22,14.22,0,0,0,2.95-5,19.18,19.18,0,0,0,.91-5.9,23,23,0,0,0-.91-6.62,14.21,14.21,0,0,0-2.82-4.92,12.08,12.08,0,0,0-4.46-3.08,15.75,15.75,0,0,0-6-1.05c-.72,0-1.51.07-2.16.13a17.9,17.9,0,0,0-2,.46c-.59.2-1.11.39-1.57.59a4.92,4.92,0,0,0-1.18.59l1.12-10h18.55V.66H434.39L431.7,24.32Zm47.23-2.56h-18V31h18Zm38.39-3.67a30.53,30.53,0,0,0-1.18-9,16.21,16.21,0,0,0-3.22-6.16,12,12,0,0,0-5-3.54A16.65,16.65,0,0,0,508.93,0a17,17,0,0,0-6.43,1.18,11.76,11.76,0,0,0-4.91,3.54,16.21,16.21,0,0,0-3.22,6.16,30.53,30.53,0,0,0-1.18,9V28a30.31,30.31,0,0,0,1.18,9,17.44,17.44,0,0,0,3.22,6.23,12,12,0,0,0,5,3.54A16.91,16.91,0,0,0,509,47.92a16.7,16.7,0,0,0,6.43-1.18,12,12,0,0,0,5-3.54A17.43,17.43,0,0,0,523.61,37a32.59,32.59,0,0,0,1.12-9Zm-9.25,9.31a23.81,23.81,0,0,1-.46,5.24A10.34,10.34,0,0,1,513.78,38a4.84,4.84,0,0,1-2,1.9,6.73,6.73,0,0,1-5.51,0,4.72,4.72,0,0,1-2-1.9,10.09,10.09,0,0,1-1.31-3.48,28.72,28.72,0,0,1-.4-5.24V18.55a28,28,0,0,1,.4-5.18A9.91,9.91,0,0,1,504.14,10a5.7,5.7,0,0,1,2-1.9,6.53,6.53,0,0,1,2.76-.52,6.12,6.12,0,0,1,2.75.52,5.35,5.35,0,0,1,2.1,1.9A9.91,9.91,0,0,1,515,13.37a23.23,23.23,0,0,1,.46,5.18Zm47.43,10.55H542.85L551,31.14c1.57-1.64,3-3.15,4.26-4.66a32.07,32.07,0,0,0,3.28-4.39,21.39,21.39,0,0,0,2-4.33,13,13,0,0,0,.79-4.52,15.2,15.2,0,0,0-1-5.57,10.93,10.93,0,0,0-2.95-4.13A13.15,13.15,0,0,0,552.74.92,21.94,21.94,0,0,0,546.19,0a17.06,17.06,0,0,0-6.75,1.25,14.93,14.93,0,0,0-5.05,3.27,14.6,14.6,0,0,0-3.28,4.85,16.69,16.69,0,0,0-1.11,6h9.31a9.32,9.32,0,0,1,.46-3.15A7.46,7.46,0,0,1,541,9.7a6,6,0,0,1,2.16-1.64,6.53,6.53,0,0,1,2.89-.59,5.69,5.69,0,0,1,4.46,1.77,7.19,7.19,0,0,1,1.57,4.92,6.12,6.12,0,0,1-.33,2.1,11.66,11.66,0,0,1-1,2.36,20.54,20.54,0,0,1-1.9,2.82,39.44,39.44,0,0,1-2.89,3.4L530.92,40.91v6.35h32Z"></path><line class="cls-3" x1="318.03" y1="912.89" x2="537.27" y2="912.89"></line><path d="M390.94,994.82l-2.56,5.18h3.19l1.88-3.82a13.36,13.36,0,0,0,4.87.89,12.52,12.52,0,0,0,6.55-1.73,12.25,12.25,0,0,0,4.45-5,16.41,16.41,0,0,0,1.57-7.28c0-5.44-1.67-9.53-5-12.14l2.61-5.24h-3.19l-1.83,3.82a12.59,12.59,0,0,0-5.24-1.1,12,12,0,0,0-6.54,1.78,11.87,11.87,0,0,0-4.45,5,16.32,16.32,0,0,0-1.58,7.28c0,5.71,1.78,9.79,5.24,12.36Zm1.68-19.8a6.8,6.8,0,0,1,5.65-2.77,7,7,0,0,1,3.41.84l-8.75,17.75c-1.68-1.94-2.46-4.51-2.46-7.81s.68-6.12,2.15-8Zm13.51,7.86a12.24,12.24,0,0,1-2.1,7.54,7,7,0,0,1-5.71,2.77,7.42,7.42,0,0,1-3.09-.63l8.7-17.59a12,12,0,0,1,2.2,7.49Zm25.56-23.72H431l-13.56,5.08v4.29l9.53-3.51v31.52h4.76Zm33.85.15h-5l-16.65,25.82v2.77h17v8.64h4.72V987.9h5.18V984h-5.18Zm-5.29,7.49.57-1V984H449.2Z"></path><line class="cls-3" x1="733.92" y1="182.99" x2="733.92" y2="855.47"></line><path d="M786.87,525.61v5l25.81,16.65h2.78v-17h8.64v-4.71h-8.64v-5.18h-3.88v5.18Zm7.49,5.29-1-.58h18.22V542Zm-7.49-34.73v5l25.81,16.65h2.78v-17h8.64v-4.71h-8.64V491h-3.88v5.19Zm7.49,5.28-1-.57h18.22V512.5Z"></path><path class="cls-1" d="M360.12,411.15c0,8.12-6.57,16-14.69,16a14.69,14.69,0,0,1-14.67-14.7c0-4.05,2.68-10.77,5.35-13.43"></path><rect class="cls-1" x="320.76" y="833.69" width="214.33" height="19.59"></rect><path class="cls-1" d="M277.05,343.88s37.83,67.59,159.2,86.21"></path><path class="cls-1" d="M503.78,299c5.65-10.59,4.4-22.55,4.4-35.21,0-43.43-37.34-78.62-83.43-78.62-28.07,0-52.91,13.07-68,33.1l-62.14,100-15.88,25.57,157.56,86.21Z"></path><path class="cls-4" d="M360.12,411.15c0,8.12-6.57,16-14.69,16a14.69,14.69,0,0,1-14.67-14.7c0-4.05,2.68-10.77,5.35-13.43M320.77,833.69H535.09v19.6H320.77Z"></path><path class="cls-1" d="M437.78,427.1s58.17,18.66,62.09,44.13,0,358.55,0,358.55H516.5V471.22c-1-40.15-67.18-62.74-67.18-62.74"></path><path class="cls-4" d="M437.78,427.1s58.17,18.66,62.09,44.13,0,358.55,0,358.55H516.5V471.22c-1-40.15-67.19-62.74-67.19-62.74m-172.26-64.6s37.83,67.59,159.2,86.21M294.57,318.31l156.31,83.37M503.78,299c5.65-10.59,4.4-22.55,4.4-35.21,0-43.43-37.34-78.62-83.43-78.62-28.07,0-52.91,13.07-68,33.1l-62.14,100-15.88,25.57,157.56,86.21L503.78,299Z"></path></svg> 