<?xml version="1.0" encoding="UTF-8"?> <svg xmlns="http://www.w3.org/2000/svg" id="Livello_1" data-name="Livello 1" viewBox="0 0 1086.23 1000.49"><defs><style>.cls-1{fill:#fff;}.cls-2{fill:#231f20;}.cls-3,.cls-4{fill:none;stroke-width:0.25px;}.cls-3{stroke:#000;}.cls-4{stroke:#231f20;stroke-miterlimit:10;}</style></defs><title>Lula tavolo large</title><rect class="cls-1" y="0.49" width="1086.23" height="1000"></rect><path class="cls-2" d="M350.58.59h-1l-19.28,7V15l11-3.41V47.26h9.24Zm23.89,25.57c.33-.33.65-.59,1-.92a5.76,5.76,0,0,1,1.24-.85,10.14,10.14,0,0,1,1.71-.53,7.55,7.55,0,0,1,2.23-.26,9,9,0,0,1,3.34.59,6,6,0,0,1,2.29,1.7,5.69,5.69,0,0,1,1.38,2.56,11.05,11.05,0,0,1,.46,3.34,17.93,17.93,0,0,1-.33,3.41A8.63,8.63,0,0,1,386.66,38a5.51,5.51,0,0,1-2,1.83,6,6,0,0,1-2.95.66,6.38,6.38,0,0,1-4.59-1.64,6.68,6.68,0,0,1-2-4.53h-9.18a13.69,13.69,0,0,0,1.44,5.77,13.2,13.2,0,0,0,3.54,4.26,14.75,14.75,0,0,0,5,2.69,19.37,19.37,0,0,0,5.83.92,17.34,17.34,0,0,0,6.95-1.31,13.8,13.8,0,0,0,7.87-8.39,19.18,19.18,0,0,0,.91-5.9,23,23,0,0,0-.91-6.62,14.21,14.21,0,0,0-2.82-4.92,12.08,12.08,0,0,0-4.46-3.08,15.75,15.75,0,0,0-6-1.05c-.72,0-1.51.07-2.17.13a17.72,17.72,0,0,0-2,.46c-.59.2-1.11.39-1.57.59a4.74,4.74,0,0,0-1.18.59l1.11-10h18.56V.66H369.75l-2.69,23.66Zm60.21-6.23a30.53,30.53,0,0,0-1.18-9,16.21,16.21,0,0,0-3.22-6.16,12,12,0,0,0-5-3.54A16.65,16.65,0,0,0,418.88,0a17,17,0,0,0-6.43,1.18,11.76,11.76,0,0,0-4.91,3.54,16.21,16.21,0,0,0-3.22,6.16,30.53,30.53,0,0,0-1.18,9V28a30.31,30.31,0,0,0,1.18,9,17.44,17.44,0,0,0,3.22,6.23,12,12,0,0,0,5,3.54,18.08,18.08,0,0,0,12.85,0,12,12,0,0,0,5-3.54A17.43,17.43,0,0,0,433.56,37a32.59,32.59,0,0,0,1.12-9Zm-9.25,9.31a23.81,23.81,0,0,1-.46,5.24A10.34,10.34,0,0,1,423.73,38a4.84,4.84,0,0,1-2,1.9,6.73,6.73,0,0,1-5.51,0,4.72,4.72,0,0,1-2-1.9,10.09,10.09,0,0,1-1.31-3.48,28.72,28.72,0,0,1-.4-5.24V18.55a28,28,0,0,1,.4-5.18A9.91,9.91,0,0,1,414.09,10a5.7,5.7,0,0,1,2-1.9,6.53,6.53,0,0,1,2.76-.52,6.12,6.12,0,0,1,2.75.52,5.35,5.35,0,0,1,2.1,1.9A9.91,9.91,0,0,1,425,13.37a23.23,23.23,0,0,1,.46,5.18Zm24.22-3.08c.33-.33.66-.59,1.05-.92a6,6,0,0,1,1.24-.85,10.14,10.14,0,0,1,1.71-.53,7.55,7.55,0,0,1,2.23-.26,9,9,0,0,1,3.34.59,6,6,0,0,1,2.29,1.7,5.69,5.69,0,0,1,1.38,2.56,11.05,11.05,0,0,1,.46,3.34A17.93,17.93,0,0,1,463,35.2,8.63,8.63,0,0,1,461.84,38a5.51,5.51,0,0,1-2,1.83,6,6,0,0,1-2.95.66,6.38,6.38,0,0,1-4.59-1.64,6.68,6.68,0,0,1-2-4.53h-9.18a13.69,13.69,0,0,0,1.44,5.77A13.2,13.2,0,0,0,446,44.31,14.75,14.75,0,0,0,451,47a19.37,19.37,0,0,0,5.83.92,17.34,17.34,0,0,0,6.95-1.31,13.8,13.8,0,0,0,7.87-8.39,19.18,19.18,0,0,0,.91-5.9,23,23,0,0,0-.91-6.62,14.21,14.21,0,0,0-2.82-4.92,12.08,12.08,0,0,0-4.46-3.08,15.75,15.75,0,0,0-6-1.05c-.72,0-1.51.07-2.17.13a17.72,17.72,0,0,0-2,.46c-.59.2-1.11.39-1.57.59a4.92,4.92,0,0,0-1.18.59l1.11-10h18.56V.66H444.93l-2.69,23.66Zm47.23-2.56h-18V31h18Zm38.38-3.67a30.2,30.2,0,0,0-1.18-9,16.06,16.06,0,0,0-3.21-6.16,12,12,0,0,0-5-3.54A16.65,16.65,0,0,0,519.47,0,17,17,0,0,0,513,1.18a11.76,11.76,0,0,0-4.91,3.54,16.07,16.07,0,0,0-3.22,6.16,30.53,30.53,0,0,0-1.18,9V28a30.31,30.31,0,0,0,1.18,9,17.44,17.44,0,0,0,3.22,6.23,12,12,0,0,0,5,3.54,18.08,18.08,0,0,0,12.85,0,12,12,0,0,0,5-3.54A17.59,17.59,0,0,0,534.15,37a32.62,32.62,0,0,0,1.11-9ZM526,29.24a23.81,23.81,0,0,1-.46,5.24A10.34,10.34,0,0,1,524.32,38a4.8,4.8,0,0,1-2,1.9,6.7,6.7,0,0,1-5.5,0,4.72,4.72,0,0,1-2-1.9,10.09,10.09,0,0,1-1.31-3.48,28.72,28.72,0,0,1-.4-5.24V18.55a28,28,0,0,1,.4-5.18A9.91,9.91,0,0,1,514.68,10a5.7,5.7,0,0,1,2-1.9,6.53,6.53,0,0,1,2.76-.52,6.14,6.14,0,0,1,2.75.52,5.35,5.35,0,0,1,2.1,1.9,9.91,9.91,0,0,1,1.24,3.41,23.23,23.23,0,0,1,.46,5.18Zm24.87-2.17h4.92a12,12,0,0,1,3.21.4,9.27,9.27,0,0,1,2.43,1.24A6.55,6.55,0,0,1,563,30.88a9.55,9.55,0,0,1,.52,3.21,7.07,7.07,0,0,1-.52,2.62,4.67,4.67,0,0,1-1.38,2A5,5,0,0,1,559.35,40a8.13,8.13,0,0,1-3,.46,7.25,7.25,0,0,1-2.69-.46,5.77,5.77,0,0,1-2.16-1.25,5.57,5.57,0,0,1-1.44-1.83,5.71,5.71,0,0,1-.53-2.43h-9.24a12.14,12.14,0,0,0,1.38,6,12.27,12.27,0,0,0,3.6,4.19,15.69,15.69,0,0,0,5,2.49,21.74,21.74,0,0,0,5.83.79,23.31,23.31,0,0,0,6.56-.92A15.21,15.21,0,0,0,568,44.31a12.1,12.1,0,0,0,3.48-4.26,13.94,13.94,0,0,0,1.24-5.83,10.87,10.87,0,0,0-7.8-10.88,15.92,15.92,0,0,0,3-1.9,16,16,0,0,0,2.23-2.36,12.22,12.22,0,0,0,1.37-2.82,11.25,11.25,0,0,0,.46-3,13.46,13.46,0,0,0-1.18-5.77,11.56,11.56,0,0,0-3.21-4.13,14.86,14.86,0,0,0-5-2.56A24.82,24.82,0,0,0,556.2,0a19.57,19.57,0,0,0-6,.92,16.32,16.32,0,0,0-4.85,2.55,13,13,0,0,0-3.28,4,11.63,11.63,0,0,0-1.18,5.25h9.24a4.8,4.8,0,0,1,.53-2.17A4.63,4.63,0,0,1,552,8.92a5.31,5.31,0,0,1,2-1,6.68,6.68,0,0,1,2.36-.4,7.22,7.22,0,0,1,2.82.46,5,5,0,0,1,2,1.25,4.76,4.76,0,0,1,1.18,1.9,6.91,6.91,0,0,1,.39,2.36,6.41,6.41,0,0,1-1.71,4.65,7,7,0,0,1-5.24,1.77h-4.92Z"></path><line class="cls-3" x1="252.11" y1="912.89" x2="631.94" y2="912.89"></line><path d="M394.75,994.82l-2.57,5.18h3.19l1.89-3.82a13.32,13.32,0,0,0,4.87.89,12.46,12.46,0,0,0,6.54-1.73,12.11,12.11,0,0,0,4.45-5A16.42,16.42,0,0,0,414.7,983c0-5.44-1.68-9.53-5-12.14l2.62-5.24h-3.19l-1.84,3.82a12.54,12.54,0,0,0-5.23-1.1,11.78,11.78,0,0,0-11,6.81,16.32,16.32,0,0,0-1.57,7.28c0,5.71,1.78,9.79,5.24,12.36Zm1.67-19.8a6.81,6.81,0,0,1,5.66-2.77,6.94,6.94,0,0,1,3.4.84l-8.74,17.75c-1.68-1.94-2.47-4.51-2.47-7.81s.68-6.12,2.15-8Zm13.51,7.86a12.3,12.3,0,0,1-2.09,7.54,7,7,0,0,1-5.71,2.77,7.39,7.39,0,0,1-3.09-.63L407.73,975a11.89,11.89,0,0,1,2.2,7.49Zm16.88-3.35h3.56a8.75,8.75,0,0,1,5.76,1.78,6.13,6.13,0,0,1,2,5,6.89,6.89,0,0,1-1.78,5.13,7.26,7.26,0,0,1-5.29,1.78,7.18,7.18,0,0,1-5.13-1.78,6,6,0,0,1-1.89-4.66h-4.76a9.39,9.39,0,0,0,3.3,7.49,14,14,0,0,0,17-.1,10.16,10.16,0,0,0,3.3-8,9.13,9.13,0,0,0-1.67-5.5,9.43,9.43,0,0,0-4.77-3.2,9.61,9.61,0,0,0,4.3-3.4,8.25,8.25,0,0,0,1.57-4.71,10.17,10.17,0,0,0-3-7.8c-2-1.84-4.76-2.78-8.27-2.78a11.9,11.9,0,0,0-8.22,2.93,9.5,9.5,0,0,0-3.25,7.33h4.77a6,6,0,0,1,1.78-4.6,6.74,6.74,0,0,1,4.92-1.78c4.34,0,6.54,2.19,6.54,6.54a6,6,0,0,1-1.93,4.66,8,8,0,0,1-5.29,1.78h-3.56Zm45.94-5c-.06-5.39-1.05-9.32-2.94-11.88s-4.81-3.88-8.85-3.88-7,1.31-8.9,4-2.83,6.75-2.83,12.2v6.34c.06,5.23,1,9.16,3,11.83s4.82,3.93,8.8,3.93,7-1.36,8.9-4,2.83-6.81,2.83-12.36ZM468,981.93c0,3.88-.68,6.76-1.78,8.54a6.34,6.34,0,0,1-10.52-.16c-1.15-1.93-1.78-4.87-1.78-8.9v-7.59c.05-3.77.63-6.6,1.73-8.43a5.69,5.69,0,0,1,5.28-2.72,5.76,5.76,0,0,1,5.34,2.77c1.16,1.83,1.73,4.71,1.73,8.75Z"></path><line class="cls-3" x1="759.28" y1="319.99" x2="759.28" y2="855.46"></line><path d="M812.24,639.08v5l25.82,16.65h2.77v-17h8.64v-4.71h-8.64V633.9H837v5.18Zm7.49,5.29-1-.58H837v11.63Zm-5.24-34.31a12.74,12.74,0,0,0,0,15.86,9.65,9.65,0,0,0,7.44,3,8.61,8.61,0,0,0,5-1.47,10.19,10.19,0,0,0,3.41-3.87,9.84,9.84,0,0,0,3.66,4.55,9.54,9.54,0,0,0,5.45,1.63,9.86,9.86,0,0,0,7.7-3.2,14.31,14.31,0,0,0,0-17.22,9.74,9.74,0,0,0-7.7-3.25,9.16,9.16,0,0,0-5.45,1.73,10.4,10.4,0,0,0-3.66,4.61,10,10,0,0,0-3.41-4,8.48,8.48,0,0,0-5-1.47,9.45,9.45,0,0,0-7.44,3Zm29.8,2.72a8.33,8.33,0,0,1,0,10.42,6.59,6.59,0,0,1-5,1.88,7,7,0,0,1-5.13-1.93,6.79,6.79,0,0,1-1.93-5.13,7.19,7.19,0,0,1,2-5.19,6.83,6.83,0,0,1,5.07-2,6.62,6.62,0,0,1,5,1.94Zm-26.92.73a7,7,0,0,1,9.27,0,6,6,0,0,1,1.73,4.5,6.17,6.17,0,0,1-1.73,4.56,6.32,6.32,0,0,1-4.6,1.67,6.39,6.39,0,0,1-4.72-1.72,6.07,6.07,0,0,1-1.73-4.51,5.93,5.93,0,0,1,1.78-4.45Z"></path><path class="cls-1" d="M521.17,719.56s53.39,26.81,52.78,48.57,0,64.66,0,64.66H602.3s.1-41.32,0-71.6c-.09-29.81-67.71-66.86-67.71-66.86Z"></path><path class="cls-4" d="M521.17,719.56s53.38,26.81,52.77,48.57,0,64.66,0,64.66H602.3s.1-41.32,0-71.6c-.1-29.81-67.71-66.86-67.71-66.86l-13.42,25.23Z"></path><path class="cls-1" d="M376.08,691.33c-1.21,2.95-5.47,5.4-8.75,5.4a8.09,8.09,0,0,1-7.95-8.22,12.48,12.48,0,0,1,1.37-5.69"></path><path class="cls-4" d="M376.08,691.33c-1.21,2.95-5.47,5.4-8.75,5.4a8.09,8.09,0,0,1-7.95-8.22,12.48,12.48,0,0,1,1.37-5.69"></path><path class="cls-1" d="M623,853.28H308.31a6.73,6.73,0,0,1-6.72-6.75v-4.16a6.74,6.74,0,0,1,6.72-6.75H623a6.75,6.75,0,0,1,6.74,6.75v4.16a6.74,6.74,0,0,1-6.74,6.75"></path><path class="cls-4" d="M623,853.28H308.31a6.73,6.73,0,0,1-6.72-6.75v-4.16a6.74,6.74,0,0,1,6.72-6.75H623a6.74,6.74,0,0,1,6.73,6.75v4.16a6.74,6.74,0,0,1-6.73,6.75Z"></path><path class="cls-1" d="M522.4,719.56c-7.74.52-16.87,0-24.81,0-114.24,0-222.54-90.21-242.8-147.44"></path><path class="cls-4" d="M522.4,719.56c-7.74.52-16.87,0-24.81,0-114.24,0-222.54-90.21-242.8-147.44"></path><polyline class="cls-1" points="271.08 547.99 255.23 571.96 521.17 719.56 534.59 694.33"></polyline><polyline class="cls-4" points="271.08 547.99 255.23 571.96 521.17 719.56 534.59 694.33"></polyline><path class="cls-1" d="M612.93,513.59a148.68,148.68,0,0,0,7.66-47.28c0-79.6-62.39-144.14-139.36-144.14-40.35,0-76.69,17.73-102.14,46.05L271.09,548l263.5,146.34Z"></path><path class="cls-4" d="M612.93,513.59a148.68,148.68,0,0,0,7.66-47.28c0-79.6-62.4-144.14-139.36-144.14-40.35,0-76.69,17.73-102.14,46.05L271.09,548l263.5,146.34,78.34-180.74Zm-37.47,250,26.84-2.36m-42.39-48.57-12.35,20.51"></path></svg> 