<?xml version="1.0" encoding="UTF-8"?> <svg xmlns="http://www.w3.org/2000/svg" id="Livello_1" data-name="Livello 1" viewBox="0 0 732.44 1000"><defs><style>.cls-1{fill:#fff;}.cls-2{fill:#231f20;}.cls-3,.cls-4,.cls-5,.cls-6{fill:none;stroke-width:0.25px;}.cls-3{stroke:#000;}.cls-4,.cls-5{stroke:#231f20;}.cls-4,.cls-6{stroke-miterlimit:10;}.cls-5{stroke-linejoin:round;}.cls-6{stroke:#4f647d;}</style></defs><title>Luxury semicone 100</title><rect class="cls-1" width="732.44" height="998.95"></rect><path class="cls-2" d="M225.39,17.69a26.83,26.83,0,0,0-1-8,14.4,14.4,0,0,0-2.85-5.47,10.68,10.68,0,0,0-4.42-3.14,14.86,14.86,0,0,0-5.71-1,15.06,15.06,0,0,0-5.7,1.05,10.5,10.5,0,0,0-4.36,3.14,14.27,14.27,0,0,0-2.86,5.47,27.18,27.18,0,0,0-1,8v7.16a27,27,0,0,0,1,8,15.35,15.35,0,0,0,2.86,5.53,10.62,10.62,0,0,0,4.42,3.15,15.22,15.22,0,0,0,5.7,1,15,15,0,0,0,5.71-1,10.68,10.68,0,0,0,4.42-3.15,15.5,15.5,0,0,0,2.85-5.53,28.9,28.9,0,0,0,1-8ZM217.18,26a21.34,21.34,0,0,1-.4,4.65,9.15,9.15,0,0,1-1.11,3.09,4.07,4.07,0,0,1-1.8,1.68,5.9,5.9,0,0,1-4.89,0,4.14,4.14,0,0,1-1.81-1.68A9.12,9.12,0,0,1,206,30.61a26.4,26.4,0,0,1-.35-4.65V16.47a25.79,25.79,0,0,1,.35-4.6,8.45,8.45,0,0,1,1.11-3,4.88,4.88,0,0,1,1.8-1.69,5.71,5.71,0,0,1,2.44-.47,5.39,5.39,0,0,1,2.45.47,4.61,4.61,0,0,1,1.86,1.69,8.65,8.65,0,0,1,1.11,3,20.85,20.85,0,0,1,.4,4.6ZM252,.17a21.74,21.74,0,0,0-8.9,1.69,18.85,18.85,0,0,0-6.64,4.66,21.59,21.59,0,0,0-4.13,7.21,28.45,28.45,0,0,0-1.4,9.14v3.2a20.42,20.42,0,0,0,1.05,6.7A15.71,15.71,0,0,0,234.9,38a13.31,13.31,0,0,0,4.6,3.37,14.22,14.22,0,0,0,6,1.22,15,15,0,0,0,5.77-1.1,13.37,13.37,0,0,0,4.42-3,13,13,0,0,0,2.79-4.48,16.15,16.15,0,0,0,1-5.59,20.08,20.08,0,0,0-.76-5.41,13.32,13.32,0,0,0-2.21-4.48,11,11,0,0,0-3.66-3,11.42,11.42,0,0,0-5.18-1.16,12.22,12.22,0,0,0-4.72.93,11.48,11.48,0,0,0-3.61,2.5,13.6,13.6,0,0,1,1.4-4.48,10,10,0,0,1,2.68-3.37,12.86,12.86,0,0,1,4.07-2.16,16.17,16.17,0,0,1,5.24-.75h.47V.17Zm-4.3,21.25A6.37,6.37,0,0,1,249.63,23a7.75,7.75,0,0,1,1.22,2.38,10.14,10.14,0,0,1,.41,3,10.05,10.05,0,0,1-.41,3,7.48,7.48,0,0,1-1.22,2.33,4.94,4.94,0,0,1-1.87,1.57,4.79,4.79,0,0,1-2.44.58,6,6,0,0,1-2.5-.53,5.74,5.74,0,0,1-2-1.62A8.94,8.94,0,0,1,239.62,31a14.73,14.73,0,0,1-.47-3.84v-2.5a5.46,5.46,0,0,1,.93-1.46A5.63,5.63,0,0,1,241.42,22a6.6,6.6,0,0,1,1.69-.82,6.8,6.8,0,0,1,4.6.24Zm44.37-3.73a26.83,26.83,0,0,0-1.05-8,14.4,14.4,0,0,0-2.85-5.47,10.75,10.75,0,0,0-4.42-3.14,14.86,14.86,0,0,0-5.71-1,15,15,0,0,0-5.7,1.05A10.59,10.59,0,0,0,268,4.19a14.4,14.4,0,0,0-2.85,5.47,26.83,26.83,0,0,0-1.05,8v7.16a26.64,26.64,0,0,0,1.05,8A15.5,15.5,0,0,0,268,38.35a10.71,10.71,0,0,0,4.43,3.15,15.22,15.22,0,0,0,5.7,1,15,15,0,0,0,5.7-1,10.65,10.65,0,0,0,4.43-3.15,15.5,15.5,0,0,0,2.85-5.53,28.9,28.9,0,0,0,1-8ZM283.87,26a20.67,20.67,0,0,1-.41,4.65,9.16,9.16,0,0,1-1.1,3.09,4.14,4.14,0,0,1-1.81,1.68,5.88,5.88,0,0,1-4.88,0,4.14,4.14,0,0,1-1.81-1.68,9.12,9.12,0,0,1-1.16-3.09,26.4,26.4,0,0,1-.35-4.65V16.47a25.79,25.79,0,0,1,.35-4.6,8.66,8.66,0,0,1,1.1-3,5,5,0,0,1,1.81-1.69,5.68,5.68,0,0,1,2.44-.47,5.42,5.42,0,0,1,2.45.47,4.68,4.68,0,0,1,1.86,1.69,8.66,8.66,0,0,1,1.1,3,20.2,20.2,0,0,1,.41,4.6ZM325.74.58H296.53V7.22h20.54L301.07,42h8.67l16-36.78ZM347.3,21h-16v6.58h16Zm34.61,14.38H364.1l7.27-7.69c1.4-1.45,2.68-2.79,3.79-4.13a29,29,0,0,0,2.91-3.9,19.52,19.52,0,0,0,1.8-3.84,11.79,11.79,0,0,0,.7-4,13.41,13.41,0,0,0-.88-4.95,9.84,9.84,0,0,0-2.61-3.67A11.9,11.9,0,0,0,372.89.81,19.66,19.66,0,0,0,367.07,0a15.24,15.24,0,0,0-6,1.11A13.06,13.06,0,0,0,356.59,4a12.79,12.79,0,0,0-2.91,4.3,14.8,14.8,0,0,0-1,5.3H361a8.38,8.38,0,0,1,.41-2.8,6.47,6.47,0,0,1,1.11-2.21,5.2,5.2,0,0,1,1.92-1.45A5.73,5.73,0,0,1,367,6.63a5,5,0,0,1,4,1.58,6.32,6.32,0,0,1,1.39,4.36,5.22,5.22,0,0,1-.29,1.86,9.79,9.79,0,0,1-.87,2.1,17,17,0,0,1-1.69,2.5,34.56,34.56,0,0,1-2.56,3L353.51,36.32V42h28.4Zm33.37,0H397.47l7.27-7.69c1.4-1.45,2.68-2.79,3.79-4.13a29,29,0,0,0,2.91-3.9,19.52,19.52,0,0,0,1.8-3.84,11.55,11.55,0,0,0,.7-4,13.62,13.62,0,0,0-.87-4.95,9.86,9.86,0,0,0-2.62-3.67A11.81,11.81,0,0,0,406.26.81,19.66,19.66,0,0,0,400.44,0a15.27,15.27,0,0,0-6,1.11A13.06,13.06,0,0,0,390,4a12.79,12.79,0,0,0-2.91,4.3,14.8,14.8,0,0,0-1,5.3h8.27a8.38,8.38,0,0,1,.4-2.8,6.65,6.65,0,0,1,1.11-2.21,5.2,5.2,0,0,1,1.92-1.45,5.73,5.73,0,0,1,2.56-.53,5,5,0,0,1,4,1.58,6.33,6.33,0,0,1,1.4,4.36,5.45,5.45,0,0,1-.29,1.86,10.41,10.41,0,0,1-.88,2.1,17,17,0,0,1-1.69,2.5,32.89,32.89,0,0,1-2.56,3L386.88,36.32V42h28.4Z"></path><path class="cls-2" d="M204.14,113.72a5.68,5.68,0,0,1-1.52,1.81,11.2,11.2,0,0,1-2.5,1.22,12.36,12.36,0,0,1-3.43.41,12.82,12.82,0,0,1-2.91-.29,9,9,0,0,1-2.74-1.05,5.91,5.91,0,0,1-2-1.92,6,6,0,0,1-.94-3h-3.43a7.86,7.86,0,0,0,.81,3.43,8.74,8.74,0,0,0,2.33,3,11.21,11.21,0,0,0,3.73,2,17.48,17.48,0,0,0,5.18.76,17.08,17.08,0,0,0,4.71-.64,10.08,10.08,0,0,0,3.55-1.75,8.51,8.51,0,0,0,2.33-2.68,7.71,7.71,0,0,0,.76-3.49,7.33,7.33,0,0,0-.64-3.26,6.65,6.65,0,0,0-1.92-2.5,14.26,14.26,0,0,0-3.38-1.92,32.57,32.57,0,0,0-4.77-1.4,31.58,31.58,0,0,1-4.19-1.22,9,9,0,0,1-2.51-1.34,3.08,3.08,0,0,1-1.22-1.57,4.85,4.85,0,0,1-.35-1.86,4.67,4.67,0,0,1,.47-1.92,4.49,4.49,0,0,1,1.28-1.75,8,8,0,0,1,2.33-1.22,9.59,9.59,0,0,1,3.37-.47,10,10,0,0,1,3.38.53,7.4,7.4,0,0,1,2.5,1.39A5.87,5.87,0,0,1,204,95a5.43,5.43,0,0,1,.53,2.33h3.37a8.38,8.38,0,0,0-.76-3.67,9.07,9.07,0,0,0-2.21-2.91,11.39,11.39,0,0,0-3.61-1.92,16.31,16.31,0,0,0-9.25-.06,11.26,11.26,0,0,0-3.43,1.81,7.92,7.92,0,0,0-2.16,2.67,7.69,7.69,0,0,0-.05,6.52,6.27,6.27,0,0,0,2.09,2.39,12.34,12.34,0,0,0,3.38,1.75,37.33,37.33,0,0,0,4.54,1.22,23.59,23.59,0,0,1,4.19,1.28,8.4,8.4,0,0,1,2.5,1.57,5.21,5.21,0,0,1,1.22,1.75,5.65,5.65,0,0,1,.35,1.92,4.23,4.23,0,0,1-.52,2Zm27.15,5.88a11.75,11.75,0,0,0,5.35-2.85,16.25,16.25,0,0,0,1.81-2.15L236.29,113a10,10,0,0,1-3.78,3.15,10.71,10.71,0,0,1-4.83,1,9.74,9.74,0,0,1-4.31-.93,10.54,10.54,0,0,1-3.32-2.62,11.77,11.77,0,0,1-2.15-3.84,14.55,14.55,0,0,1-.76-4.78v-.64h22v-2.09a19.62,19.62,0,0,0-.82-5.65,12.58,12.58,0,0,0-2.33-4.48,11.21,11.21,0,0,0-3.84-2.91,12.07,12.07,0,0,0-5.18-1,11.37,11.37,0,0,0-5,1.11,13.68,13.68,0,0,0-4.19,3.14,14.32,14.32,0,0,0-2.91,4.89,18.75,18.75,0,0,0-1,6.46V105a17,17,0,0,0,1,6.06,13.6,13.6,0,0,0,2.85,4.77A12.2,12.2,0,0,0,222,118.9a13.23,13.23,0,0,0,5.53,1.17,14.57,14.57,0,0,0,3.73-.47Zm-.59-27.7a9.35,9.35,0,0,1,2.74,2.21,10.4,10.4,0,0,1,1.63,3.2,13.49,13.49,0,0,1,.64,3.78v.35H217.26a15.67,15.67,0,0,1,1.11-4.25,10.64,10.64,0,0,1,2-3.25,10.38,10.38,0,0,1,2.91-2.16,9.4,9.4,0,0,1,3.61-.7,8.49,8.49,0,0,1,3.78.82Zm14.82-3.14v30.72H249V98.42a15.42,15.42,0,0,1,1.11-2.74,11.77,11.77,0,0,1,1.8-2.33,10.07,10.07,0,0,1,2.62-1.63,8.65,8.65,0,0,1,3.37-.58,10.46,10.46,0,0,1,3.09.41,5.59,5.59,0,0,1,3.9,3.78,12.25,12.25,0,0,1,.52,3.84v20.31h3.44V99.11a8.19,8.19,0,0,1,.69-2.73,11.27,11.27,0,0,1,1.75-2.56A9.86,9.86,0,0,1,274,91.9a8.29,8.29,0,0,1,3.73-.76,12.1,12.1,0,0,1,3,.35,5.06,5.06,0,0,1,2.39,1.34,6.17,6.17,0,0,1,1.57,2.56,12.92,12.92,0,0,1,.53,4v20.07h3.37v-20a16.54,16.54,0,0,0-.64-5.12,8.34,8.34,0,0,0-2-3.49,7.41,7.41,0,0,0-3.2-2,13.8,13.8,0,0,0-4.25-.64,12.92,12.92,0,0,0-3.43.47,11.83,11.83,0,0,0-2.91,1.22,11.32,11.32,0,0,0-2.39,1.92,13.09,13.09,0,0,0-1.74,2.33,8.11,8.11,0,0,0-3.44-4.54,11.5,11.5,0,0,0-5.82-1.4,10.85,10.85,0,0,0-3.14.41A10,10,0,0,0,253,89.69a8.17,8.17,0,0,0-2.27,1.74,12.21,12.21,0,0,0-1.81,2.33l-.11-5Zm55.52,0h-3.43v30.72H301Zm-3.43-7.28a2.47,2.47,0,0,0,1.75.64,2.28,2.28,0,0,0,1.68-.64,2.13,2.13,0,0,0,.64-1.63,2.06,2.06,0,0,0-.64-1.63,2.14,2.14,0,0,0-1.68-.7,2.31,2.31,0,0,0-1.75.7,2.24,2.24,0,0,0-.58,1.63,2.32,2.32,0,0,0,.58,1.63Zm19.48,34.69a9.68,9.68,0,0,1-3-2.74,12.29,12.29,0,0,1-1.63-4,20.57,20.57,0,0,1-.52-4.72v-1.16a21,21,0,0,1,.52-4.72,10.9,10.9,0,0,1,1.69-3.95,8.45,8.45,0,0,1,3-2.8,9.67,9.67,0,0,1,4.49-1,10.08,10.08,0,0,1,3.26.53,8.75,8.75,0,0,1,2.67,1.63,7.9,7.9,0,0,1,1.86,2.5,8.65,8.65,0,0,1,.76,3.37h3.32a13.75,13.75,0,0,0-1.05-4.53,10.79,10.79,0,0,0-2.56-3.44,10.6,10.6,0,0,0-3.67-2.21,14.23,14.23,0,0,0-10.24.41,12,12,0,0,0-4.13,3.26,14.68,14.68,0,0,0-2.5,4.89,21.8,21.8,0,0,0-.82,6.05v1.16a22.06,22.06,0,0,0,.82,6,14.68,14.68,0,0,0,2.5,4.89,11.65,11.65,0,0,0,4.13,3.2,12.34,12.34,0,0,0,5.65,1.23,14.08,14.08,0,0,0,4.48-.76,12.29,12.29,0,0,0,3.66-2.1,9.75,9.75,0,0,0,2.62-3.2,10.36,10.36,0,0,0,1.11-4h-3.32a7.41,7.41,0,0,1-.81,3.08,9.18,9.18,0,0,1-1.92,2.27,9,9,0,0,1-2.68,1.34,9.34,9.34,0,0,1-3.14.47,9,9,0,0,1-4.49-1Zm21.22-11.58a19.36,19.36,0,0,0,1,6.22,14.48,14.48,0,0,0,2.79,4.89,12.31,12.31,0,0,0,4.31,3.2,14.2,14.2,0,0,0,11.29,0,13.08,13.08,0,0,0,4.36-3.2,15.26,15.26,0,0,0,2.74-4.89,19.36,19.36,0,0,0,1-6.22v-.94a19,19,0,0,0-1-6.16,14.94,14.94,0,0,0-2.74-4.95,13.08,13.08,0,0,0-4.36-3.2A13.84,13.84,0,0,0,352,88.17a13.46,13.46,0,0,0-5.58,1.17,13.12,13.12,0,0,0-4.37,3.2,15.1,15.1,0,0,0-2.73,4.95,19,19,0,0,0-1,6.16Zm3.43-.94a16.5,16.5,0,0,1,.64-4.77,13.07,13.07,0,0,1,2-4,9.15,9.15,0,0,1,3.26-2.74,9,9,0,0,1,4.36-1,9.44,9.44,0,0,1,4.49,1,9.24,9.24,0,0,1,3.26,2.74,12.83,12.83,0,0,1,2,4,16.2,16.2,0,0,1,.7,4.77v.94a16.36,16.36,0,0,1-.7,4.83,12.83,12.83,0,0,1-2,4,10.69,10.69,0,0,1-3.26,2.74,9,9,0,0,1-4.43,1,9.14,9.14,0,0,1-4.42-1,10.57,10.57,0,0,1-3.26-2.74,13.07,13.07,0,0,1-2-4,16.67,16.67,0,0,1-.64-4.83Zm31-14.89v30.72h3.38V98.42a12.39,12.39,0,0,1,1.33-2.68,9.16,9.16,0,0,1,4.54-4,8.8,8.8,0,0,1,3.32-.58,10.05,10.05,0,0,1,3,.41,5,5,0,0,1,2.27,1.34,6.86,6.86,0,0,1,1.45,2.56,13.07,13.07,0,0,1,.53,4v20H396v-20a16.82,16.82,0,0,0-.7-5.18,9.5,9.5,0,0,0-1.92-3.49,7.25,7.25,0,0,0-3.08-2,11.52,11.52,0,0,0-4.13-.64,11.15,11.15,0,0,0-3.15.41,12.52,12.52,0,0,0-2.73,1.16A12.12,12.12,0,0,0,376.11,94L376,88.76ZM420.3,119.6a9.9,9.9,0,0,0,3-1.16,10.17,10.17,0,0,0,2.33-1.69,15.43,15.43,0,0,0,1.8-2.15L425.31,113a10.1,10.1,0,0,1-3.78,3.15,10.71,10.71,0,0,1-4.83,1,9.74,9.74,0,0,1-4.31-.93,10.43,10.43,0,0,1-3.32-2.62,11.77,11.77,0,0,1-2.15-3.84,14.55,14.55,0,0,1-.76-4.78v-.64H428.1v-2.09a19.62,19.62,0,0,0-.81-5.65A12.74,12.74,0,0,0,425,92.13a11.31,11.31,0,0,0-3.84-2.91,12.07,12.07,0,0,0-5.18-1,11.42,11.42,0,0,0-5,1.11,13.8,13.8,0,0,0-4.19,3.14,14.64,14.64,0,0,0-2.91,4.89,19,19,0,0,0-1,6.46V105a17.21,17.21,0,0,0,1,6.06,13.47,13.47,0,0,0,2.86,4.77,12.11,12.11,0,0,0,4.36,3.08,13.2,13.2,0,0,0,5.53,1.17,14.43,14.43,0,0,0,3.72-.47Zm-.58-27.7a9.35,9.35,0,0,1,2.74,2.21,10.4,10.4,0,0,1,1.63,3.2,13.49,13.49,0,0,1,.64,3.78v.35H406.28a15.67,15.67,0,0,1,1.1-4.25,10.85,10.85,0,0,1,2-3.25,10.11,10.11,0,0,1,2.91-2.16,9.4,9.4,0,0,1,3.61-.7,8.52,8.52,0,0,1,3.78.82Z"></path><line class="cls-3" x1="617.14" y1="573.22" x2="617.14" y2="841.31"></line><path d="M673.14,725.34l-.89-1.12A6.92,6.92,0,0,1,671,719.9a6.08,6.08,0,0,1,2-4.79,7.69,7.69,0,0,1,5.35-1.81,8.27,8.27,0,0,1,5.48,1.67,5.62,5.62,0,0,1,2,4.6,6.2,6.2,0,0,1-1.44,4.32,6.6,6.6,0,0,1-4.27,2v4a9.77,9.77,0,0,0,6.74-3.16,10.47,10.47,0,0,0,2.41-7.16,10.11,10.11,0,0,0-2.93-7.72,11.39,11.39,0,0,0-8-2.74,11.77,11.77,0,0,0-8.09,2.65,9.11,9.11,0,0,0-3,7.16,10.4,10.4,0,0,0,1.44,5.53l-9-1V710.09h-3.9V727l16.5,1.67Zm-3.82-41.58c-4.78,0-8.27.93-10.55,2.6s-3.44,4.28-3.44,7.86,1.16,6.23,3.53,7.9,6,2.51,10.84,2.51h5.62c4.65,0,8.14-.93,10.51-2.65s3.48-4.27,3.48-7.81-1.21-6.22-3.58-7.9-6-2.51-11-2.51Zm6.56,4.19c3.44,0,6,.6,7.58,1.58a5.64,5.64,0,0,1-.14,9.34c-1.72,1-4.33,1.58-7.91,1.58h-6.74c-3.34-.05-5.86-.56-7.48-1.53a5.07,5.07,0,0,1-2.42-4.7,5.14,5.14,0,0,1,2.46-4.74c1.63-1,4.19-1.53,7.77-1.53Z"></path><path d="M209.05,995.4l-2.28,4.6h2.84l1.67-3.39a11.74,11.74,0,0,0,4.32.79,11,11,0,0,0,5.82-1.54,10.86,10.86,0,0,0,4-4.46,14.65,14.65,0,0,0,1.39-6.46c0-4.84-1.49-8.46-4.42-10.79l2.33-4.65h-2.84l-1.62,3.4a11.14,11.14,0,0,0-4.65-1,10.67,10.67,0,0,0-5.81,1.58A10.48,10.48,0,0,0,205.8,978a14.54,14.54,0,0,0-1.4,6.47c0,5.06,1.58,8.69,4.65,11Zm1.49-17.57a6,6,0,0,1,5-2.47,6.1,6.1,0,0,1,3,.75l-7.76,15.75a10.1,10.1,0,0,1-2.19-6.92c0-3.07.61-5.44,1.91-7.11Zm12,7a10.84,10.84,0,0,1-1.86,6.69A6.18,6.18,0,0,1,215.6,994a6.61,6.61,0,0,1-2.74-.56l7.72-15.62a10.56,10.56,0,0,1,1.95,6.65Zm22.7-21.06h-.65l-12,4.51v3.81L241,969v28h4.23Zm33.07,13.67c-.05-4.79-.93-8.28-2.6-10.56s-4.28-3.44-7.86-3.44-6.23,1.17-7.9,3.54-2.51,6-2.51,10.83v5.62c0,4.65.93,8.14,2.65,10.51s4.27,3.49,7.81,3.49,6.22-1.21,7.9-3.58,2.51-6.05,2.51-11ZM274.11,984c0,3.44-.6,6-1.58,7.58a5.63,5.63,0,0,1-9.34-.14c-1-1.72-1.58-4.32-1.58-7.9v-6.74c.05-3.35.56-5.86,1.53-7.49a5.07,5.07,0,0,1,4.7-2.42,5.13,5.13,0,0,1,4.74,2.47c1,1.63,1.53,4.18,1.53,7.76Zm30.33-6.55c-.05-4.79-.93-8.28-2.6-10.56s-4.28-3.44-7.86-3.44-6.23,1.17-7.9,3.54-2.51,6-2.51,10.83v5.62c0,4.65.93,8.14,2.65,10.51s4.27,3.49,7.81,3.49,6.23-1.21,7.9-3.58,2.51-6.05,2.51-11ZM300.26,984c-.05,3.44-.61,6-1.59,7.58a5.63,5.63,0,0,1-9.34-.14c-1-1.72-1.58-4.32-1.58-7.9v-6.74c.05-3.35.56-5.86,1.53-7.49a5.07,5.07,0,0,1,4.7-2.42,5.13,5.13,0,0,1,4.74,2.47c1,1.63,1.54,4.18,1.54,7.76Zm12.89-11.57h-4.88l8,12.13L308,996.93h4.88l5.68-9.2,5.67,9.2h4.88l-8.32-12.41,8-12.13H324l-5.44,9ZM346,990.66c-1.86,1.72-4.51,2.65-8,2.69h-.88v3.58h.84c5.11-.09,8.92-1.58,11.48-4.55s3.81-7.63,3.81-14.09v-1.21c0-4.23-.93-7.58-2.83-10a9.15,9.15,0,0,0-7.72-3.68,10.21,10.21,0,0,0-5.39,1.4,9.26,9.26,0,0,0-3.58,4.09,13.76,13.76,0,0,0-1.26,6,13.13,13.13,0,0,0,1.16,5.63,9,9,0,0,0,3.26,4,8.9,8.9,0,0,0,5,1.4,8.57,8.57,0,0,0,4.05-1,9.5,9.5,0,0,0,3.11-2.51c-.14,3.77-1.16,6.51-3,8.28Zm-7.76-10.46a8.77,8.77,0,0,1-1.63-5.54,8.87,8.87,0,0,1,1.67-5.57,5.43,5.43,0,0,1,4.46-2.1,5.3,5.3,0,0,1,4.51,2.56,11.38,11.38,0,0,1,1.82,6.69v1.68a7.79,7.79,0,0,1-2.61,3.16,6.46,6.46,0,0,1-3.9,1.3,5.11,5.11,0,0,1-4.32-2.18Zm41.57-2.79c-.05-4.79-.93-8.28-2.6-10.56s-4.28-3.44-7.86-3.44-6.23,1.17-7.9,3.54-2.51,6-2.51,10.83v5.62c0,4.65.93,8.14,2.65,10.51s4.27,3.49,7.81,3.49,6.23-1.21,7.9-3.58,2.51-6.05,2.51-11ZM375.61,984c-.05,3.44-.61,6-1.58,7.58a5.64,5.64,0,0,1-9.35-.14c-1-1.72-1.58-4.32-1.58-7.9v-6.74c0-3.35.56-5.86,1.53-7.49a5.78,5.78,0,0,1,9.44.05c1,1.63,1.54,4.18,1.54,7.76Z"></path><line class="cls-3" x1="43.13" y1="915.17" x2="541.56" y2="915.17"></line><path class="cls-1" d="M501,572.07H91.54L45.43,839.37H546.19Zm-392.86,0-47,267.3m59.94-267.3L71.26,839.37M133,572.07,84.63,839.37m62.24-267.3-47,267.3m71.93-267.3-48.41,267.3m61.33-267.3-48.42,267.3m61.33-267.3-44.27,267.3m55.34-267.3-41.5,267.3M217,572.07l-32.27,267.3m42.42-267.3L197.6,839.37m37.81-267.3-23,267.3m33.19-267.3-18.44,267.3m27.67-267.3-13.84,267.3m25.82-267.3-12,267.3m24-267.3-5.53,267.3M288,572.07l-4.61,267.3m12.45-267.3v267.3m11.53-267.3L311,839.37m7.38-267.3,5.53,267.3m3.68-267.3,11.07,267.3m0-267.3,14.13,268.27m-7.21-268.27,25.81,267.3m-13.13-267.3,26.51,267.3m-16.59-267.3,31.35,267.3m-18.45-267.3,32.59,267.3m-24-267.3,37.5,267.3m-28-267.3,43.38,267.3m-31.36-267.3,44.89,267.3m-35.05-267.3,49.8,267.3m-37.2-267.3,48.88,267.3m-33.2-267.3,46.11,267.3m-32.58-267.3,46.72,267.3m-34.43-267.3,46.72,267.3m-33.19-267.3,45.5,267.3M158.86,572.07l-45.18,267.3"></path><path class="cls-4" d="M501,572.07H91.54L45.43,839.37H546.19L501,572.07Zm-392.86,0-47,267.3m59.94-267.3L71.26,839.37M133,572.07,84.63,839.37m62.24-267.3-47,267.3m71.93-267.3-48.41,267.3m61.33-267.3-48.42,267.3m61.33-267.3-44.27,267.3m55.34-267.3-41.5,267.3M217,572.07l-32.27,267.3m42.42-267.3L197.6,839.37m37.81-267.3-23,267.3m33.19-267.3-18.44,267.3m27.67-267.3-13.84,267.3m25.82-267.3-12,267.3m24-267.3-5.53,267.3M288,572.07l-4.61,267.3m12.45-267.3v267.3m11.53-267.3L311,839.37m7.38-267.3,5.53,267.3m3.68-267.3,11.07,267.3m0-267.3,14.13,268.27m-7.21-268.27,25.81,267.3m-13.13-267.3,26.51,267.3m-16.59-267.3,31.35,267.3m-18.45-267.3,32.59,267.3m-24-267.3,37.5,267.3m-28-267.3,43.38,267.3m-31.36-267.3,44.89,267.3m-35.05-267.3,49.8,267.3m-37.2-267.3,48.88,267.3m-33.2-267.3,46.11,267.3m-32.58-267.3,46.72,267.3m-34.43-267.3,46.72,267.3m-33.19-267.3,45.5,267.3M158.86,572.07l-45.18,267.3"></path><path class="cls-1" d="M345.52,197.6c-11.33,10.87-29.94,18-51,18-20.69,0-39-6.86-50.41-17.43Zm-17,.09H261.13V181.05h67.39Zm-33.7.18V569.65M327.93,209,438.73,572"></path><path class="cls-5" d="M345.52,197.6c-11.33,10.87-29.94,18-51,18-20.7,0-39-6.86-50.41-17.43l101.4-.53Zm-17,.09h-67.4V181.05h67.4Zm-33.7.18V569.65M327.93,209,438.72,572"></path><polygon class="cls-1" points="166.25 571.72 155.58 571.72 159.52 561.04 163.18 561.04 166.25 571.72"></polygon><polygon class="cls-6" points="166.25 571.72 155.58 571.72 159.52 561.04 163.18 561.04 166.25 571.72 166.25 571.72"></polygon><polygon class="cls-1" points="160.1 562.54 157.61 570.23 164.35 570.23 162.41 562.54 160.1 562.54"></polygon><polygon class="cls-4" points="164.35 570.22 157.6 570.22 160.1 562.53 162.41 562.53 164.35 570.22 164.35 570.22"></polygon><polygon class="cls-1" points="299.43 571.72 288.75 571.72 292.69 561.04 296.35 561.04 299.43 571.72"></polygon><polygon class="cls-6" points="299.43 571.72 288.75 571.72 292.69 561.04 296.35 561.04 299.43 571.72 299.43 571.72"></polygon><polygon class="cls-1" points="293.27 562.54 290.78 570.23 297.52 570.23 295.58 562.54 293.27 562.54"></polygon><polygon class="cls-4" points="297.53 570.22 290.78 570.22 293.27 562.53 295.58 562.53 297.53 570.22 297.53 570.22"></polygon><polygon class="cls-1" points="441.81 572.45 431.13 572.45 435.07 561.77 438.73 561.77 441.81 572.45"></polygon><polygon class="cls-6" points="441.81 572.45 431.13 572.45 435.07 561.77 438.73 561.77 441.81 572.45 441.81 572.45"></polygon><polygon class="cls-1" points="435.65 563.26 433.16 570.95 439.92 570.95 437.97 563.26 435.65 563.26"></polygon><polygon class="cls-4" points="439.91 570.95 433.15 570.95 435.65 563.26 437.96 563.26 439.91 570.95 439.91 570.95"></polygon><line class="cls-4" x1="260.14" y1="207.98" x2="158.86" y2="572.07"></line></svg> 