<?xml version="1.0" encoding="UTF-8"?> <svg xmlns="http://www.w3.org/2000/svg" id="Livello_1" data-name="Livello 1" viewBox="0 0 892.44 998.95"><defs><style>.cls-1{fill:#fff;}.cls-2{fill:#231f20;}.cls-3,.cls-4{fill:none;stroke-width:0.25px;}.cls-3{stroke:#000;}.cls-4{stroke:#231f20;stroke-miterlimit:10;}</style></defs><title>Luxury rectangular</title><rect class="cls-1" width="892.44" height="998.95"></rect><path class="cls-2" d="M309.7,17.62a26.62,26.62,0,0,0-1.05-8,14.15,14.15,0,0,0-2.84-5.45A10.6,10.6,0,0,0,301.41,1a14.89,14.89,0,0,0-5.68-1,15.11,15.11,0,0,0-5.68,1,10.51,10.51,0,0,0-4.35,3.13,14.28,14.28,0,0,0-2.83,5.45,26.62,26.62,0,0,0-1.05,8v7.13a26.52,26.52,0,0,0,1.05,7.94,15.41,15.41,0,0,0,2.83,5.5,10.69,10.69,0,0,0,4.41,3.13,14.92,14.92,0,0,0,5.68,1,14.74,14.74,0,0,0,5.68-1,10.6,10.6,0,0,0,4.4-3.13,15.27,15.27,0,0,0,2.84-5.5,28.77,28.77,0,0,0,1-7.94Zm-8.17,8.23a21.08,21.08,0,0,1-.41,4.63,9,9,0,0,1-1.1,3.07,4.1,4.1,0,0,1-1.8,1.69,5.44,5.44,0,0,1-2.43.52,5.51,5.51,0,0,1-2.44-.52,4.13,4.13,0,0,1-1.79-1.69,8.92,8.92,0,0,1-1.16-3.07,26.15,26.15,0,0,1-.35-4.63V16.4a25.55,25.55,0,0,1,.35-4.58,8.67,8.67,0,0,1,1.1-3,4.94,4.94,0,0,1,1.8-1.68,5.64,5.64,0,0,1,2.43-.47,5.31,5.31,0,0,1,2.43.47A4.66,4.66,0,0,1,300,8.81a8.67,8.67,0,0,1,1.1,3,20.59,20.59,0,0,1,.41,4.58ZM336.21.17a21.76,21.76,0,0,0-8.87,1.68,18.81,18.81,0,0,0-6.61,4.64,21.45,21.45,0,0,0-4.11,7.19,28.16,28.16,0,0,0-1.39,9.1V26a20.51,20.51,0,0,0,1,6.67,15.49,15.49,0,0,0,2.9,5.16,13.25,13.25,0,0,0,4.58,3.36,14.25,14.25,0,0,0,6,1.21,14.78,14.78,0,0,0,5.73-1.1,13.28,13.28,0,0,0,4.41-3,13,13,0,0,0,2.78-4.46,16,16,0,0,0,1-5.57,20.34,20.34,0,0,0-.75-5.39,13.48,13.48,0,0,0-2.2-4.46,10.88,10.88,0,0,0-3.65-3,11.21,11.21,0,0,0-5.16-1.16,12.07,12.07,0,0,0-4.69.93,11.25,11.25,0,0,0-3.6,2.49A13.48,13.48,0,0,1,325,13.16a10.13,10.13,0,0,1,2.67-3.37,13,13,0,0,1,4.06-2.14,15.94,15.94,0,0,1,5.21-.75h.47V.17Zm-4.29,21.16a6.18,6.18,0,0,1,1.91,1.56,7.75,7.75,0,0,1,1.22,2.38,9.92,9.92,0,0,1,.4,3,9.92,9.92,0,0,1-.4,3,7.32,7.32,0,0,1-1.22,2.32,5.29,5.29,0,0,1-4.29,2.15,6.1,6.1,0,0,1-2.49-.52,5.83,5.83,0,0,1-2-1.63,9.06,9.06,0,0,1-1.22-2.72,15.05,15.05,0,0,1-.46-3.83V24.57a5.57,5.57,0,0,1,.93-1.45,5.17,5.17,0,0,1,1.33-1.21,6.54,6.54,0,0,1,1.68-.82,6,6,0,0,1,2-.28,5.9,5.9,0,0,1,2.55.52Zm44.18-3.71a26.64,26.64,0,0,0-1-8,14.29,14.29,0,0,0-2.84-5.45A10.66,10.66,0,0,0,367.82,1a14.93,14.93,0,0,0-5.68-1,15.11,15.11,0,0,0-5.68,1,10.51,10.51,0,0,0-4.35,3.13,14.29,14.29,0,0,0-2.84,5.45,27,27,0,0,0-1,8v7.13a26.87,26.87,0,0,0,1,7.94,15.43,15.43,0,0,0,2.84,5.5,10.69,10.69,0,0,0,4.41,3.13,14.88,14.88,0,0,0,5.68,1,14.69,14.69,0,0,0,5.67-1,10.63,10.63,0,0,0,4.41-3.13,15.43,15.43,0,0,0,2.84-5.5,28.8,28.8,0,0,0,1-7.94Zm-8.17,8.23a21.14,21.14,0,0,1-.4,4.63,9,9,0,0,1-1.1,3.07,4.2,4.2,0,0,1-1.8,1.69,6,6,0,0,1-4.87,0,4.2,4.2,0,0,1-1.8-1.69,8.92,8.92,0,0,1-1.15-3.07,25.24,25.24,0,0,1-.35-4.63V16.4a24.65,24.65,0,0,1,.35-4.58,8.48,8.48,0,0,1,1.1-3,5,5,0,0,1,1.79-1.68,5.71,5.71,0,0,1,2.44-.47,5.33,5.33,0,0,1,2.43.47,4.79,4.79,0,0,1,1.86,1.68,8.67,8.67,0,0,1,1.1,3,20.66,20.66,0,0,1,.4,4.58ZM409.63.58h-29.1V7.19H401L385.05,41.78h8.64L409.63,5.16Zm21.46,20.28H415.16v6.55h15.93Zm34.46,14.32H447.82l7.24-7.65c1.39-1.45,2.67-2.78,3.77-4.12a27.34,27.34,0,0,0,2.9-3.88,18.76,18.76,0,0,0,1.79-3.82,11.5,11.5,0,0,0,.7-4,13.55,13.55,0,0,0-.87-4.93,9.77,9.77,0,0,0-2.61-3.65A11.55,11.55,0,0,0,456.57.81a19.48,19.48,0,0,0-5.8-.81,15.22,15.22,0,0,0-6,1.1A13.29,13.29,0,0,0,440.34,4a12.69,12.69,0,0,0-2.89,4.29,14.64,14.64,0,0,0-1,5.27h8.23a8.25,8.25,0,0,1,.41-2.78,6.32,6.32,0,0,1,1.1-2.2,5.25,5.25,0,0,1,1.91-1.45,5.66,5.66,0,0,1,2.55-.52,5,5,0,0,1,3.94,1.56A6.3,6.3,0,0,1,456,12.52a5.4,5.4,0,0,1-.29,1.85,9.52,9.52,0,0,1-.87,2.09A16.52,16.52,0,0,1,453.15,19a32.89,32.89,0,0,1-2.55,3l-13.33,14.2v5.62h28.28Zm26-35a21.79,21.79,0,0,0-8.87,1.68,18.77,18.77,0,0,0-6.6,4.64A21.47,21.47,0,0,0,472,13.68a28.16,28.16,0,0,0-1.39,9.1V26a20.51,20.51,0,0,0,1,6.67,15.67,15.67,0,0,0,2.9,5.16,13.34,13.34,0,0,0,4.58,3.36,14.32,14.32,0,0,0,6,1.21,14.83,14.83,0,0,0,5.74-1.1,13.24,13.24,0,0,0,4.4-3A12.83,12.83,0,0,0,498,33.79a16,16,0,0,0,1-5.57,19.94,19.94,0,0,0-.76-5.39,13.29,13.29,0,0,0-2.2-4.46,10.79,10.79,0,0,0-3.65-3,11.21,11.21,0,0,0-5.16-1.16,12.1,12.1,0,0,0-4.69.93,11.1,11.1,0,0,0-3.59,2.49,13.25,13.25,0,0,1,1.39-4.46A10,10,0,0,1,483,9.79,13.08,13.08,0,0,1,487,7.65a16,16,0,0,1,5.22-.75h.46V.17Zm-4.29,21.16a6.07,6.07,0,0,1,1.91,1.56,7.54,7.54,0,0,1,1.22,2.38,9.92,9.92,0,0,1,.41,3,9.92,9.92,0,0,1-.41,3,7.12,7.12,0,0,1-1.22,2.32,5.29,5.29,0,0,1-4.28,2.15,6.18,6.18,0,0,1-2.5-.52,5.83,5.83,0,0,1-2-1.63,9.05,9.05,0,0,1-1.21-2.72,15,15,0,0,1-.47-3.83V24.57a5.57,5.57,0,0,1,.93-1.45A5.34,5.34,0,0,1,481,21.91a6.54,6.54,0,0,1,1.68-.82,6,6,0,0,1,2-.28,5.84,5.84,0,0,1,2.55.52Z"></path><path class="cls-2" d="M264.92,88.15a5.29,5.29,0,0,0-1-.23,9.23,9.23,0,0,0-1.28-.12,8.75,8.75,0,0,0-5.21,1.45,10.47,10.47,0,0,0-3.42,4L254,88.38h-3.3V119H254v-21a14.55,14.55,0,0,1,1.16-2.78A8.07,8.07,0,0,1,257,93a7.39,7.39,0,0,1,2.44-1.45,8.82,8.82,0,0,1,3.13-.52,13.39,13.39,0,0,1,2.26.17Zm20.79,30.95a10.14,10.14,0,0,0,3-1.16,10.38,10.38,0,0,0,2.32-1.68,15.43,15.43,0,0,0,1.8-2.15l-2.15-1.56a10,10,0,0,1-3.76,3.13,10.75,10.75,0,0,1-4.81,1,9.62,9.62,0,0,1-4.29-.93,10.19,10.19,0,0,1-3.31-2.6,11.88,11.88,0,0,1-2.14-3.83,14.37,14.37,0,0,1-.75-4.75v-.64h21.85v-2.08a19.15,19.15,0,0,0-.82-5.63,12.69,12.69,0,0,0-2.31-4.46,11.24,11.24,0,0,0-3.83-2.9,12.16,12.16,0,0,0-5.16-1,11.39,11.39,0,0,0-5,1.1A13.61,13.61,0,0,0,272.21,92a14.37,14.37,0,0,0-2.9,4.87,18.61,18.61,0,0,0-1,6.43v1.22a16.82,16.82,0,0,0,1,6,13.49,13.49,0,0,0,2.84,4.75,12.17,12.17,0,0,0,4.35,3.07,13.21,13.21,0,0,0,5.5,1.16,14.43,14.43,0,0,0,3.71-.46Zm-.58-27.59a9.24,9.24,0,0,1,2.72,2.2,10.35,10.35,0,0,1,1.63,3.19,13.41,13.41,0,0,1,.63,3.77V101H271.74a16,16,0,0,1,1.1-4.23,10.91,10.91,0,0,1,2-3.24,10.36,10.36,0,0,1,2.9-2.15,9.3,9.3,0,0,1,3.59-.69,8.61,8.61,0,0,1,3.77.81Zm21.76,24.17a9.73,9.73,0,0,1-3-2.73,12,12,0,0,1-1.62-4,20.3,20.3,0,0,1-.53-4.69V103.1a20.62,20.62,0,0,1,.53-4.69,10.6,10.6,0,0,1,1.68-3.94,8.49,8.49,0,0,1,2.95-2.79,9.69,9.69,0,0,1,4.46-1,10,10,0,0,1,3.25.52,9.26,9.26,0,0,1,2.67,1.62,8.1,8.1,0,0,1,1.85,2.49,8.65,8.65,0,0,1,.75,3.37h3.31a13.69,13.69,0,0,0-1.05-4.52,10.43,10.43,0,0,0-2.55-3.42,10.67,10.67,0,0,0-3.65-2.21,13.1,13.1,0,0,0-4.58-.75A13.24,13.24,0,0,0,305.73,89a11.94,11.94,0,0,0-4.11,3.25,14.9,14.9,0,0,0-2.49,4.86,21.7,21.7,0,0,0-.82,6v1.16a22,22,0,0,0,.82,6,14.9,14.9,0,0,0,2.49,4.86,11.64,11.64,0,0,0,4.11,3.19,12.4,12.4,0,0,0,5.62,1.22,14.25,14.25,0,0,0,4.47-.75,12.79,12.79,0,0,0,3.65-2.09,9.91,9.91,0,0,0,2.61-3.19,10.48,10.48,0,0,0,1.1-4h-3.31a7,7,0,0,1-.81,3.07,7.41,7.41,0,0,1-4.58,3.6,9.2,9.2,0,0,1-3.13.46,9,9,0,0,1-4.46-1ZM331.72,80.5v7.88H326.1v2.78h5.62v20.4a12.16,12.16,0,0,0,.53,3.83,6.47,6.47,0,0,0,1.39,2.43,4.42,4.42,0,0,0,2.08,1.33,8,8,0,0,0,2.67.41c.69,0,1.33-.06,2-.12A9.35,9.35,0,0,0,342,119l-.17-2.73c-.35.06-.82.12-1.28.18a11.25,11.25,0,0,1-1.45.06,6,6,0,0,1-1.5-.18,2.5,2.5,0,0,1-1.28-.69,3.4,3.4,0,0,1-.87-1.57,7.79,7.79,0,0,1-.35-2.55V91.16h6.32V88.38h-6.32V80.5ZM371.4,119v-.35a11.48,11.48,0,0,1-.4-1.27c-.12-.47-.18-1-.29-1.51s-.12-1-.18-1.62,0-1.1,0-1.63V97.77a10.85,10.85,0,0,0-.82-4.35,8.47,8.47,0,0,0-2.31-3.13,10,10,0,0,0-3.48-1.85,14,14,0,0,0-4.52-.64,14.24,14.24,0,0,0-4.81.75,13.54,13.54,0,0,0-3.71,2,9.6,9.6,0,0,0-2.38,2.9,6.61,6.61,0,0,0-.81,3.3l3.36.06a5.12,5.12,0,0,1,.64-2.43,6.69,6.69,0,0,1,1.68-2,8,8,0,0,1,2.61-1.28,9.76,9.76,0,0,1,3.25-.52,8.29,8.29,0,0,1,5.91,1.91,6.7,6.7,0,0,1,2,5.16v3.48h-6.26a25.27,25.27,0,0,0-5.86.64,13.28,13.28,0,0,0-4.4,2,8.66,8.66,0,0,0-3,10.49,8.14,8.14,0,0,0,2,2.78,9.23,9.23,0,0,0,3.12,1.85,12.85,12.85,0,0,0,4.06.64,14.72,14.72,0,0,0,3.36-.41,18.23,18.23,0,0,0,2.9-1,11.09,11.09,0,0,0,2.32-1.56,9.29,9.29,0,0,0,1.8-1.86c.05.81.11,1.57.23,2.38a7.54,7.54,0,0,0,.46,1.91Zm-17.09-2.9a6.79,6.79,0,0,1-2.2-1.27,4.94,4.94,0,0,1-1.34-1.92,5.15,5.15,0,0,1-.52-2.31,5.77,5.77,0,0,1,.75-2.84,6.09,6.09,0,0,1,2.21-2.15,10.52,10.52,0,0,1,3.47-1.33,18.7,18.7,0,0,1,4.64-.46h5.8v6.72a10.23,10.23,0,0,1-1.51,2.37,11.8,11.8,0,0,1-2.2,1.92,11.6,11.6,0,0,1-2.84,1.27,12.9,12.9,0,0,1-3.42.47,8.53,8.53,0,0,1-2.84-.47Zm25.18-27.7V119h3.36V98a12.79,12.79,0,0,1,1.33-2.67A9.61,9.61,0,0,1,386.09,93a9.89,9.89,0,0,1,2.61-1.62,8.54,8.54,0,0,1,3.3-.58,10,10,0,0,1,3,.4,5.05,5.05,0,0,1,2.26,1.33A6.9,6.9,0,0,1,398.73,95a13.44,13.44,0,0,1,.52,4V119h3.36V99a16.57,16.57,0,0,0-.7-5.15A9.43,9.43,0,0,0,400,90.41a7.1,7.1,0,0,0-3.07-2,11.23,11.23,0,0,0-4.11-.64,11,11,0,0,0-3.13.41,11,11,0,0,0-5.05,3,12.46,12.46,0,0,0-1.79,2.38l-.12-5.22ZM409.94,104a21.7,21.7,0,0,0,.81,6.32,14.18,14.18,0,0,0,2.32,4.92,11.3,11.3,0,0,0,3.71,3.19,10.51,10.51,0,0,0,4.92,1.16,12.17,12.17,0,0,0,5.62-1.22,10.57,10.57,0,0,0,3.83-3.3v3.53a12.74,12.74,0,0,1-.58,4.12,7.94,7.94,0,0,1-1.8,3,7.08,7.08,0,0,1-2.84,2,10.88,10.88,0,0,1-3.82.64,10.11,10.11,0,0,1-4.58-1,13.39,13.39,0,0,1-4-3.36l-1.85,2a10.28,10.28,0,0,0,2.14,2.32,15.08,15.08,0,0,0,2.67,1.62,16.43,16.43,0,0,0,2.89,1,13,13,0,0,0,3,.29,13.92,13.92,0,0,0,5-.87,11,11,0,0,0,3.89-2.49,11.67,11.67,0,0,0,2.43-4,15.34,15.34,0,0,0,.93-5.33V88.38h-3.19l-.17,4.4a11.2,11.2,0,0,0-3.89-3.65,12.19,12.19,0,0,0-10.6-.23A11.35,11.35,0,0,0,413.07,92,14.15,14.15,0,0,0,410.75,97a22.15,22.15,0,0,0-.81,6.43Zm3.42-.58a22.45,22.45,0,0,1,.52-5,12.69,12.69,0,0,1,1.62-4,7.88,7.88,0,0,1,2.84-2.67,7.57,7.57,0,0,1,4.06-1,10.87,10.87,0,0,1,3.24.46,9.37,9.37,0,0,1,2.5,1.33,9.23,9.23,0,0,1,1.79,1.92,9.87,9.87,0,0,1,1.22,2.31V111a11.09,11.09,0,0,1-1.33,2.26A7.47,7.47,0,0,1,428,115a9,9,0,0,1-2.49,1.22,10.51,10.51,0,0,1-3.13.4A7.88,7.88,0,0,1,415.5,113a12.69,12.69,0,0,1-1.62-4,22.07,22.07,0,0,1-.52-5ZM463.17,119h3.3V88.38h-3.42v22.14a11.82,11.82,0,0,1-1.16,2.43,6.35,6.35,0,0,1-1.85,1.91,7.92,7.92,0,0,1-2.73,1.28,12.84,12.84,0,0,1-3.59.46,8.54,8.54,0,0,1-2.72-.4,5.62,5.62,0,0,1-2.26-1.45,7,7,0,0,1-1.51-2.61,13.68,13.68,0,0,1-.58-4.11V88.38h-3.36V108a16,16,0,0,0,.75,5.33,9.27,9.27,0,0,0,2,3.59,8.26,8.26,0,0,0,3.19,2,12.84,12.84,0,0,0,4.11.64,13.11,13.11,0,0,0,5.91-1.22,9.88,9.88,0,0,0,3.83-3.24ZM479,75.51h-3.42V119H479ZM511.11,119v-.35a11.28,11.28,0,0,1-.41-1.27c-.12-.47-.17-1-.29-1.51s-.11-1-.17-1.62a15.26,15.26,0,0,1-.06-1.63V97.77a11,11,0,0,0-.81-4.35,8.61,8.61,0,0,0-2.32-3.13,9.93,9.93,0,0,0-3.48-1.85,14,14,0,0,0-4.52-.64,14.24,14.24,0,0,0-4.81.75,13.68,13.68,0,0,0-3.71,2,9.57,9.57,0,0,0-2.37,2.9,6.61,6.61,0,0,0-.81,3.3l3.36.06a5.11,5.11,0,0,1,.63-2.43,6.59,6.59,0,0,1,1.69-2,7.8,7.8,0,0,1,2.6-1.28,9.76,9.76,0,0,1,3.25-.52q3.92,0,5.91,1.91a6.7,6.7,0,0,1,2,5.16v3.48h-6.26a25.18,25.18,0,0,0-5.85.64,13.34,13.34,0,0,0-4.41,2,8,8,0,0,0-3.71,7.07,8.34,8.34,0,0,0,.7,3.42,8.11,8.11,0,0,0,2,2.78,9.28,9.28,0,0,0,3.13,1.85,12.78,12.78,0,0,0,4.05.64,14.88,14.88,0,0,0,3.37-.41,18.46,18.46,0,0,0,2.89-1,10.83,10.83,0,0,0,2.32-1.56,9,9,0,0,0,1.8-1.86c.06.81.11,1.57.23,2.38a8,8,0,0,0,.46,1.91Zm-17.1-2.9a6.9,6.9,0,0,1-2.2-1.27,4.82,4.82,0,0,1-1.33-1.92,5.16,5.16,0,0,1-.53-2.31,5.68,5.68,0,0,1,.76-2.84,6,6,0,0,1,2.2-2.15,10.67,10.67,0,0,1,3.48-1.33,18.57,18.57,0,0,1,4.63-.46h5.8v6.72a10.23,10.23,0,0,1-1.51,2.37,11.8,11.8,0,0,1-2.2,1.92,11.6,11.6,0,0,1-2.84,1.27,12.79,12.79,0,0,1-3.42.47,8.58,8.58,0,0,1-2.84-.47Zm39.44-27.93a5.65,5.65,0,0,0-1-.23,9.24,9.24,0,0,0-1.27-.12A8.76,8.76,0,0,0,526,89.25a10.47,10.47,0,0,0-3.42,4l-.06-4.87h-3.3V119h3.36v-21a15.22,15.22,0,0,1,1.16-2.78,7.92,7.92,0,0,1,1.8-2.14,7.24,7.24,0,0,1,2.43-1.45,8.82,8.82,0,0,1,3.13-.52,13.39,13.39,0,0,1,2.26.17Z"></path><path d="M320.16,916.24h-.65l-12,4.49v3.8l8.43-3.11v27.87h4.21ZM354,945.87H337.49l8.79-9.59c4.17-4.44,6.21-8.33,6.21-11.57a8.28,8.28,0,0,0-2.64-6.39,10.44,10.44,0,0,0-7.27-2.4,10.65,10.65,0,0,0-7.82,2.82,9.52,9.52,0,0,0-3,7.31H336a6.84,6.84,0,0,1,1.71-4.95,6.58,6.58,0,0,1,4.86-1.76,5.54,5.54,0,0,1,4.17,1.67,5.91,5.91,0,0,1,1.52,4.21,8,8,0,0,1-.92,3.7,25.91,25.91,0,0,1-3.52,4.68l-11.39,12.68v3H354Zm25.11-16c-.05-4.77-.93-8.24-2.59-10.51s-4.26-3.42-7.83-3.42-6.2,1.15-7.87,3.51-2.5,6-2.5,10.79v5.6c.05,4.63.93,8.1,2.64,10.46s4.26,3.47,7.78,3.47,6.2-1.2,7.87-3.56,2.5-6,2.5-10.92ZM375,936.38c0,3.42-.6,6-1.57,7.54a5.61,5.61,0,0,1-9.31-.14c-1-1.71-1.57-4.3-1.57-7.87V929.2c.05-3.33.56-5.83,1.53-7.45a5,5,0,0,1,4.67-2.41,5.09,5.09,0,0,1,4.72,2.45c1,1.63,1.53,4.17,1.53,7.74Zm12.84-11.53h-4.86l8,12.08-8.24,12.36h4.86l5.65-9.16,5.64,9.16h4.86l-8.28-12.36,8-12.08h-4.86l-5.42,8.93Zm25.75,9.4h3.15a7.73,7.73,0,0,1,5.09,1.57,5.45,5.45,0,0,1,1.76,4.4,6.08,6.08,0,0,1-1.58,4.54,7.54,7.54,0,0,1-9.21,0,5.34,5.34,0,0,1-1.66-4.12h-4.22a8.33,8.33,0,0,0,2.92,6.62,11.06,11.06,0,0,0,7.5,2.49,10.92,10.92,0,0,0,7.54-2.59,9,9,0,0,0,2.92-7,8.08,8.08,0,0,0-1.48-4.86,8.36,8.36,0,0,0-4.21-2.83,8.38,8.38,0,0,0,3.79-3,7.2,7.2,0,0,0,1.39-4.16,9,9,0,0,0-2.64-6.9,11.81,11.81,0,0,0-14.58.14,8.39,8.39,0,0,0-2.87,6.48h4.21a5.3,5.3,0,0,1,1.58-4.07,6,6,0,0,1,4.35-1.58c3.84,0,5.79,1.95,5.79,5.79a5.31,5.31,0,0,1-1.72,4.12,7,7,0,0,1-4.67,1.57h-3.15Zm40.61-4.4c0-4.77-.92-8.24-2.59-10.51s-4.26-3.42-7.82-3.42-6.21,1.15-7.87,3.51-2.5,6-2.5,10.79v5.6c0,4.63.92,8.1,2.63,10.46s4.26,3.47,7.78,3.47,6.21-1.2,7.87-3.56,2.5-6,2.5-10.92ZM450,936.38c-.05,3.42-.61,6-1.58,7.54a5.6,5.6,0,0,1-9.3-.14c-1-1.71-1.58-4.3-1.58-7.87V929.2c.05-3.33.56-5.83,1.53-7.45a5,5,0,0,1,4.68-2.41,5.1,5.1,0,0,1,4.72,2.45c1,1.63,1.53,4.17,1.53,7.74Z"></path><line class="cls-3" x1="703.61" y1="592.7" x2="703.61" y2="794.32"></line><path d="M760,710.72v-3.14a7.85,7.85,0,0,1,1.57-5.1,5.44,5.44,0,0,1,4.4-1.75,6.11,6.11,0,0,1,4.54,1.57,7.54,7.54,0,0,1,0,9.21,5.35,5.35,0,0,1-4.12,1.67v4.21a8.3,8.3,0,0,0,6.62-2.92,12.36,12.36,0,0,0-.1-15,9,9,0,0,0-7-2.92A8.08,8.08,0,0,0,761,698a8.35,8.35,0,0,0-2.83,4.22,8.5,8.5,0,0,0-3-3.8A7.33,7.33,0,0,0,751,697a9,9,0,0,0-6.9,2.64,11.8,11.8,0,0,0,.14,14.58,8.39,8.39,0,0,0,6.48,2.87V712.9a5.35,5.35,0,0,1-4.07-1.57,6,6,0,0,1-1.58-4.35c0-3.85,2-5.79,5.79-5.79A5.3,5.3,0,0,1,755,702.9a7,7,0,0,1,1.57,4.68v3.14Zm-4.4-40.61c-4.77,0-8.24.93-10.51,2.6s-3.42,4.25-3.42,7.82,1.16,6.2,3.52,7.87,6,2.5,10.78,2.5h5.6c4.63,0,8.1-.93,10.47-2.64s3.47-4.26,3.47-7.78-1.21-6.2-3.57-7.87-6-2.5-10.92-2.5Zm6.53,4.17c3.42.05,6,.6,7.54,1.57a5.62,5.62,0,0,1-.13,9.31c-1.72,1-4.31,1.57-7.87,1.57h-6.72c-3.33,0-5.83-.55-7.45-1.53a5,5,0,0,1-2.41-4.67,5.1,5.1,0,0,1,2.46-4.72c1.62-1,4.16-1.53,7.73-1.53Z"></path><line class="cls-3" x1="74.31" y1="867.87" x2="670.79" y2="867.87"></line><path class="cls-1" d="M668.87,792.39H76.25V592.77H668.87ZM86.38,592.77V792.39m16.24-199.62V792.39m15.16-199.62V792.39M134,592.77V792.39m14.08-199.62V792.39M166.5,592.77V792.39m15.16-199.62V792.39m45.47-199.62V792.39m13-199.62V792.39m16.24-199.62v200.3m15.16-200.3V792.39m10.82-199.62v200.3m19.5-200.3V792.39m13-199.62V792.39m17.32-199.62V792.39m13-199.62V792.39m16.44-199.62V792.39m16.05-199.62V792.39M391.7,592.77V792.39m15.16-199.62V792.39m17.31-199.62V792.39m11.92-199.62V792.39m16.24-199.62V792.39m17.32-199.62V792.39m11.91-199.62V792.39m17.32-199.62V792.39m15.17-199.62V792.39M529.2,592.77V792.39m15.16-199.62V792.39M560.6,592.77V792.39m16.24-199.62V792.39m14.08-199.62V792.39M605,592.77V792.39m16.24-199.62V792.39m15.15-199.62V792.39m16.25-199.62V792.39M210.49,190.93V592.77M560.6,190.93V592.77M432.09,188.9c0,29.21-22.37,52.89-50,52.89s-50-23.68-50-52.89M198.92,592.77V792.39m15.72-199.62V792.39M332.15,188.9h99.94"></path><path class="cls-4" d="M668.87,792.39H76.25V592.77H668.87V792.39ZM86.38,592.77V792.39m16.24-199.62V792.39m15.16-199.62V792.39M134,592.77V792.39m14.08-199.62V792.39M166.5,592.77V792.39m15.16-199.62V792.39m45.47-199.62V792.39m13-199.62V792.39m16.24-199.62v200.3m15.16-200.3V792.39m10.82-199.62v200.3m19.5-200.3V792.39m13-199.62V792.39m17.32-199.62V792.39m13-199.62V792.39m16.44-199.62V792.39m16.05-199.62V792.39M391.7,592.77V792.39m15.16-199.62V792.39m17.31-199.62V792.39m11.92-199.62V792.39m16.24-199.62V792.39m17.32-199.62V792.39m11.91-199.62V792.39m17.32-199.62V792.39m15.17-199.62V792.39M529.2,592.77V792.39m15.16-199.62V792.39M560.6,592.77V792.39m16.24-199.62V792.39m14.08-199.62V792.39M605,592.77V792.39m16.24-199.62V792.39m15.15-199.62V792.39m16.25-199.62V792.39M210.49,190.93V592.77M560.6,190.93V592.77M432.09,188.9c0,29.21-22.37,52.89-50,52.89s-50-23.68-50-52.89M198.92,592.77V792.39m15.72-199.62V792.39M332.15,188.9h99.94m-50,52.88L377.63,313s-6.53,47.8,18.88,101.71,22.36,114.94,22.36,114.94-5.73,43.87-31.51,63.12"></path></svg> 