<?xml version="1.0" encoding="UTF-8"?> <svg xmlns="http://www.w3.org/2000/svg" id="Livello_1" data-name="Livello 1" viewBox="0 0 732.44 1000"><defs><style>.cls-1{fill:#fff;}.cls-2{fill:#231f20;}.cls-3,.cls-4,.cls-5,.cls-6{fill:none;stroke-width:0.25px;}.cls-3{stroke:#000;}.cls-4,.cls-5{stroke:#231f20;}.cls-4,.cls-6{stroke-miterlimit:10;}.cls-5{stroke-linejoin:round;}.cls-6{stroke:#4f647d;}</style></defs><title>Luxury cilindro 100</title><rect class="cls-1" width="732.44" height="998.95"></rect><path class="cls-2" d="M234.31,17.62a27,27,0,0,0-1-8,14.43,14.43,0,0,0-2.84-5.45A10.69,10.69,0,0,0,226,1a14.89,14.89,0,0,0-5.68-1,15.15,15.15,0,0,0-5.68,1,10.41,10.41,0,0,0-4.34,3.13,14.29,14.29,0,0,0-2.84,5.45,26.62,26.62,0,0,0-1,8v7.13a26.52,26.52,0,0,0,1,7.94,15.27,15.27,0,0,0,2.84,5.5,10.6,10.6,0,0,0,4.4,3.13,15,15,0,0,0,5.68,1,14.7,14.7,0,0,0,5.68-1,10.69,10.69,0,0,0,4.41-3.13,15.41,15.41,0,0,0,2.83-5.5,28.77,28.77,0,0,0,1-7.94Zm-8.17,8.23a21.08,21.08,0,0,1-.41,4.63,8.76,8.76,0,0,1-1.1,3.07,4.13,4.13,0,0,1-1.79,1.69,5.51,5.51,0,0,1-2.44.52,5.44,5.44,0,0,1-2.43-.52,4.1,4.1,0,0,1-1.8-1.69A8.92,8.92,0,0,1,215,30.48a26.15,26.15,0,0,1-.35-4.63V16.4a25.55,25.55,0,0,1,.35-4.58,8.67,8.67,0,0,1,1.1-3,4.94,4.94,0,0,1,1.8-1.68,5.64,5.64,0,0,1,2.43-.47,5.38,5.38,0,0,1,2.44.47,4.7,4.7,0,0,1,1.85,1.68,8.48,8.48,0,0,1,1.1,3,20.59,20.59,0,0,1,.41,4.58ZM260.82.17A21.79,21.79,0,0,0,252,1.85a18.68,18.68,0,0,0-6.6,4.64,21.47,21.47,0,0,0-4.12,7.19,28.16,28.16,0,0,0-1.39,9.1V26a20.51,20.51,0,0,0,1,6.67,15.67,15.67,0,0,0,2.9,5.16,13.34,13.34,0,0,0,4.58,3.36,14.32,14.32,0,0,0,6,1.21,14.83,14.83,0,0,0,5.74-1.1,13.34,13.34,0,0,0,4.4-3,13,13,0,0,0,2.78-4.46,16,16,0,0,0,1-5.57,19.94,19.94,0,0,0-.76-5.39,13.29,13.29,0,0,0-2.2-4.46,10.79,10.79,0,0,0-3.65-3,11.21,11.21,0,0,0-5.16-1.16,12.07,12.07,0,0,0-4.69.93,11.1,11.1,0,0,0-3.59,2.49,13.25,13.25,0,0,1,1.39-4.46,10,10,0,0,1,2.66-3.37,13,13,0,0,1,4.06-2.14,16,16,0,0,1,5.21-.75H262V.17Zm-4.29,21.16a6.18,6.18,0,0,1,1.91,1.56,7.75,7.75,0,0,1,1.22,2.38,9.92,9.92,0,0,1,.41,3,9.92,9.92,0,0,1-.41,3,7.32,7.32,0,0,1-1.22,2.32,5.29,5.29,0,0,1-4.29,2.15,6.17,6.17,0,0,1-2.49-.52,5.83,5.83,0,0,1-2-1.63,9.05,9.05,0,0,1-1.21-2.72,15,15,0,0,1-.47-3.83V24.57a5.57,5.57,0,0,1,.93-1.45,5.34,5.34,0,0,1,1.33-1.21,6.54,6.54,0,0,1,1.68-.82,6,6,0,0,1,2-.28,5.84,5.84,0,0,1,2.55.52Zm44.19-3.71a26.62,26.62,0,0,0-1.05-8,14.15,14.15,0,0,0-2.84-5.45A10.6,10.6,0,0,0,292.43,1a14.89,14.89,0,0,0-5.68-1,15.11,15.11,0,0,0-5.68,1,10.51,10.51,0,0,0-4.35,3.13,14.43,14.43,0,0,0-2.84,5.45,27,27,0,0,0-1,8v7.13a26.87,26.87,0,0,0,1,7.94,15.59,15.59,0,0,0,2.84,5.5,10.69,10.69,0,0,0,4.41,3.13,14.92,14.92,0,0,0,5.68,1,14.74,14.74,0,0,0,5.68-1,10.66,10.66,0,0,0,4.4-3.13,15.27,15.27,0,0,0,2.84-5.5,28.77,28.77,0,0,0,1-7.94Zm-8.17,8.23a21.08,21.08,0,0,1-.41,4.63,9,9,0,0,1-1.1,3.07,4.15,4.15,0,0,1-1.8,1.69,5.44,5.44,0,0,1-2.43.52,5.51,5.51,0,0,1-2.44-.52,4.13,4.13,0,0,1-1.79-1.69,8.92,8.92,0,0,1-1.16-3.07,26.15,26.15,0,0,1-.35-4.63V16.4a25.55,25.55,0,0,1,.35-4.58,8.67,8.67,0,0,1,1.1-3,4.94,4.94,0,0,1,1.8-1.68,5.64,5.64,0,0,1,2.43-.47,5.31,5.31,0,0,1,2.43.47A4.66,4.66,0,0,1,291,8.81a8.67,8.67,0,0,1,1.1,3,20.59,20.59,0,0,1,.41,4.58ZM334.24.58H305.15V7.19H325.6L309.67,41.78h8.63L334.24,5.16Zm21.47,20.28H339.77v6.55h15.94Zm34.46,14.32H372.43l7.25-7.65c1.39-1.45,2.66-2.78,3.76-4.12a27.34,27.34,0,0,0,2.9-3.88,19.37,19.37,0,0,0,1.8-3.82,11.72,11.72,0,0,0,.69-4A13.55,13.55,0,0,0,388,6.78a9.66,9.66,0,0,0-2.61-3.65A11.47,11.47,0,0,0,381.18.81,19.46,19.46,0,0,0,375.39,0a15.23,15.23,0,0,0-6,1.1A13.14,13.14,0,0,0,365,4a12.58,12.58,0,0,0-2.9,4.29,14.64,14.64,0,0,0-1,5.27h8.23a8.25,8.25,0,0,1,.41-2.78,6.49,6.49,0,0,1,1.1-2.2,5.25,5.25,0,0,1,1.91-1.45,5.72,5.72,0,0,1,2.55-.52,5,5,0,0,1,3.94,1.56,6.3,6.3,0,0,1,1.39,4.35,5.4,5.4,0,0,1-.29,1.85,9.52,9.52,0,0,1-.87,2.09A16.52,16.52,0,0,1,377.76,19a31.36,31.36,0,0,1-2.55,3l-13.33,14.2v5.62h28.29Zm12.71-12.06c.29-.29.58-.52.93-.81a5.06,5.06,0,0,1,1.1-.75,9,9,0,0,1,1.51-.47,6.92,6.92,0,0,1,2-.23,8,8,0,0,1,2.95.52,5.33,5.33,0,0,1,2,1.51,5,5,0,0,1,1.22,2.26,9.85,9.85,0,0,1,.4,3,15.61,15.61,0,0,1-.29,3,7.66,7.66,0,0,1-1,2.43,4.8,4.8,0,0,1-1.8,1.63,5.29,5.29,0,0,1-2.6.58,5.65,5.65,0,0,1-4.06-1.45,5.93,5.93,0,0,1-1.8-4h-8.11a12.15,12.15,0,0,0,1.27,5.1,11.92,11.92,0,0,0,3.13,3.77,13,13,0,0,0,4.41,2.37,17.18,17.18,0,0,0,5.16.81,15.18,15.18,0,0,0,6.14-1.16,12.32,12.32,0,0,0,4.35-3,12.58,12.58,0,0,0,2.6-4.4,16.74,16.74,0,0,0,.82-5.22,20.12,20.12,0,0,0-.82-5.85,12.44,12.44,0,0,0-2.49-4.35,10.5,10.5,0,0,0-3.94-2.72,13.82,13.82,0,0,0-5.33-.93c-.64,0-1.33.06-1.91.12a15.84,15.84,0,0,0-1.8.4c-.52.18-1,.35-1.39.52a4.73,4.73,0,0,0-1,.52l1-8.86h16.4V.58H398.71L396.33,21.5Z"></path><path class="cls-2" d="M227.55,115.68a9.88,9.88,0,0,1-3-2.73,12.45,12.45,0,0,1-1.62-4,20.31,20.31,0,0,1-.52-4.69V103.1a20.62,20.62,0,0,1,.52-4.69,10.93,10.93,0,0,1,1.68-3.94,8.6,8.6,0,0,1,3-2.79,9.66,9.66,0,0,1,4.46-1,10,10,0,0,1,3.25.52,9.08,9.08,0,0,1,2.66,1.62,8.13,8.13,0,0,1,1.86,2.49,8.83,8.83,0,0,1,.75,3.37h3.3a13.45,13.45,0,0,0-1-4.52,11.13,11.13,0,0,0-6.2-5.63,14.27,14.27,0,0,0-10.2.41,12.07,12.07,0,0,0-4.12,3.25,14.9,14.9,0,0,0-2.49,4.86,22.09,22.09,0,0,0-.81,6v1.16a22.42,22.42,0,0,0,.81,6,14.9,14.9,0,0,0,2.49,4.86,11.77,11.77,0,0,0,4.12,3.19,12.37,12.37,0,0,0,5.62,1.22,14.19,14.19,0,0,0,4.46-.75,12.65,12.65,0,0,0,3.65-2.09,9.78,9.78,0,0,0,2.61-3.19,10.13,10.13,0,0,0,1.1-4h-3.3a7.33,7.33,0,0,1-.81,3.07,7.41,7.41,0,0,1-4.58,3.6,9.24,9.24,0,0,1-3.13.46,9,9,0,0,1-4.46-1Zm23.21-27.3h-3.71l11.53,30.37-1.5,4a11.85,11.85,0,0,1-1.05,2.43,6.82,6.82,0,0,1-1.39,1.74,5,5,0,0,1-1.8,1,7.69,7.69,0,0,1-2.43.35,4.6,4.6,0,0,1-.81-.06c-.41-.06-.7-.06-.93-.11V131a1.56,1.56,0,0,1,.52.11c.24.06.47.06.7.12s.52.06.75.11h.64a7.65,7.65,0,0,0,3.59-.75,10,10,0,0,0,2.44-1.91,11.1,11.1,0,0,0,1.56-2.44,22.65,22.65,0,0,0,1-2.37l13-35.47h-3.65l-8.93,25.73Zm31.09-12.87h-3.42V119h3.42Zm13,12.87H291.4V119h3.42Zm-3.42-7.24a2.49,2.49,0,0,0,1.74.63,2.34,2.34,0,0,0,1.68-.63,2.18,2.18,0,0,0,.64-1.63,2.08,2.08,0,0,0-.64-1.62,2.15,2.15,0,0,0-1.68-.69,2.18,2.18,0,0,0-2.32,2.31,2.38,2.38,0,0,0,.58,1.63ZM304,88.38V119h3.37V98a12.32,12.32,0,0,1,1.33-2.67,9.12,9.12,0,0,1,4.52-4,8.51,8.51,0,0,1,3.3-.58,10,10,0,0,1,3,.4,5.11,5.11,0,0,1,2.26,1.33A6.88,6.88,0,0,1,323.2,95a13.09,13.09,0,0,1,.53,4V119h3.36V99a16.57,16.57,0,0,0-.7-5.15,9.43,9.43,0,0,0-1.91-3.48,7.1,7.1,0,0,0-3.07-2,11.25,11.25,0,0,0-4.12-.64,11.06,11.06,0,0,0-3.13.41,12.17,12.17,0,0,0-2.72,1.16,11.94,11.94,0,0,0-2.32,1.85,12.46,12.46,0,0,0-1.79,2.38l-.12-5.22ZM334.42,104a21.7,21.7,0,0,0,.81,6.32,15.35,15.35,0,0,0,2.32,4.92,11.37,11.37,0,0,0,3.7,3.19,10.7,10.7,0,0,0,4.93,1.16,12.28,12.28,0,0,0,5.68-1.22,11.59,11.59,0,0,0,3.88-3.42l.12,4.06h3.19V75.51h-3.37V92.67a10.68,10.68,0,0,0-9.44-4.87,10.5,10.5,0,0,0-4.93,1.1A11,11,0,0,0,337.55,92,15.3,15.3,0,0,0,335.23,97a22.15,22.15,0,0,0-.81,6.43Zm3.42-.58a22.45,22.45,0,0,1,.52-5,12.23,12.23,0,0,1,1.62-4,7.8,7.8,0,0,1,2.84-2.67,7.57,7.57,0,0,1,4.06-1,11,11,0,0,1,3.24.46,9.15,9.15,0,0,1,2.49,1.33,7.72,7.72,0,0,1,1.8,1.92,11.75,11.75,0,0,1,1.27,2.26V111.1a12.65,12.65,0,0,1-1.39,2.2,7.62,7.62,0,0,1-1.85,1.74A9,9,0,0,1,350,116.2a11.06,11.06,0,0,1-3.13.4A7.88,7.88,0,0,1,340,113a12.23,12.23,0,0,1-1.62-4,22.07,22.07,0,0,1-.52-5Zm45.69,15.71a10.14,10.14,0,0,0,3-1.16,10.38,10.38,0,0,0,2.32-1.68,15.43,15.43,0,0,0,1.8-2.15l-2.15-1.56a10,10,0,0,1-3.76,3.13,10.75,10.75,0,0,1-4.81,1,9.62,9.62,0,0,1-4.29-.93,10.19,10.19,0,0,1-3.31-2.6,11.88,11.88,0,0,1-2.14-3.83,14.37,14.37,0,0,1-.75-4.75v-.64h21.84v-2.08a19.49,19.49,0,0,0-.81-5.63,12.69,12.69,0,0,0-2.31-4.46,11.24,11.24,0,0,0-3.83-2.9,12.16,12.16,0,0,0-5.16-1,11.39,11.39,0,0,0-5,1.1A13.61,13.61,0,0,0,370,92a14.37,14.37,0,0,0-2.9,4.87,18.61,18.61,0,0,0-1,6.43v1.22a16.82,16.82,0,0,0,1,6,13.49,13.49,0,0,0,2.84,4.75,12.14,12.14,0,0,0,4.34,3.07,13.29,13.29,0,0,0,5.51,1.16,14.43,14.43,0,0,0,3.71-.46ZM383,91.51a9.24,9.24,0,0,1,2.72,2.2,10.35,10.35,0,0,1,1.63,3.19,13.41,13.41,0,0,1,.63,3.77V101H369.56a16,16,0,0,1,1.1-4.23,10.71,10.71,0,0,1,2-3.24,10.36,10.36,0,0,1,2.9-2.15,9.3,9.3,0,0,1,3.59-.69,8.61,8.61,0,0,1,3.77.81Zm29.18-3.36a5.23,5.23,0,0,0-1-.23,9.09,9.09,0,0,0-1.27-.12,8.76,8.76,0,0,0-5.22,1.45,10.47,10.47,0,0,0-3.42,4l-.05-4.87h-3.31V119h3.36v-21a15.22,15.22,0,0,1,1.16-2.78,8.1,8.1,0,0,1,1.8-2.14,7.34,7.34,0,0,1,2.43-1.45,8.82,8.82,0,0,1,3.13-.52,13.31,13.31,0,0,1,2.26.17Z"></path><line class="cls-3" x1="617.98" y1="575.02" x2="617.98" y2="841.98"></line><path d="M673.73,726.5l-.88-1.12a6.92,6.92,0,0,1-1.2-4.3,6.06,6.06,0,0,1,2-4.77,7.66,7.66,0,0,1,5.33-1.8,8.28,8.28,0,0,1,5.46,1.66,5.62,5.62,0,0,1,2,4.59,6.17,6.17,0,0,1-1.44,4.3,6.56,6.56,0,0,1-4.26,2v4a9.71,9.71,0,0,0,6.72-3.15,10.37,10.37,0,0,0,2.4-7.12,10.1,10.1,0,0,0-2.91-7.69,11.38,11.38,0,0,0-8-2.73,11.73,11.73,0,0,0-8.06,2.64,9.05,9.05,0,0,0-3,7.13,10.35,10.35,0,0,0,1.44,5.51l-9-1V711.31h-3.89v16.85l16.43,1.67Zm-3.79-41.4c-4.77,0-8.24.92-10.51,2.59S656,692,656,695.51s1.16,6.21,3.52,7.87,6,2.5,10.79,2.5h5.6c4.63,0,8.1-.92,10.46-2.64s3.47-4.26,3.47-7.77-1.2-6.21-3.56-7.87-6-2.5-10.93-2.5Zm6.53,4.16c3.42,0,6,.6,7.54,1.58a5.6,5.6,0,0,1-.14,9.3c-1.71,1-4.3,1.58-7.87,1.58h-6.71c-3.33-.05-5.83-.56-7.45-1.53a5,5,0,0,1-2.41-4.68,5.1,5.1,0,0,1,2.45-4.72c1.62-1,4.17-1.53,7.73-1.53Z"></path><path d="M249.09,995.42l-2.26,4.58h2.82l1.67-3.38a11.63,11.63,0,0,0,4.3.79,11,11,0,0,0,5.79-1.53,10.82,10.82,0,0,0,3.93-4.44,14.56,14.56,0,0,0,1.39-6.44c0-4.81-1.48-8.42-4.4-10.74l2.32-4.63h-2.83L260.2,973a11,11,0,0,0-4.62-1,10.68,10.68,0,0,0-5.79,1.57,10.56,10.56,0,0,0-3.94,4.45,14.53,14.53,0,0,0-1.38,6.43c0,5,1.57,8.66,4.62,10.93Zm1.49-17.5a6,6,0,0,1,5-2.45,6.12,6.12,0,0,1,3,.74l-7.73,15.69a10.11,10.11,0,0,1-2.17-6.9c0-3,.6-5.41,1.9-7.08Zm11.94,6.94a10.86,10.86,0,0,1-1.85,6.67,6.18,6.18,0,0,1-5.05,2.45,6.53,6.53,0,0,1-2.73-.55l7.68-15.56a10.51,10.51,0,0,1,1.95,6.62Zm22.6-21h-.64l-12,4.49v3.8l8.42-3.1v27.86h4.21Zm32.93,13.61c-.05-4.77-.92-8.24-2.59-10.51s-4.26-3.42-7.82-3.42-6.21,1.16-7.87,3.52-2.5,6-2.5,10.78v5.6c0,4.63.92,8.1,2.63,10.47s4.26,3.47,7.78,3.47,6.2-1.21,7.87-3.57,2.5-6,2.5-10.92ZM313.88,984c0,3.43-.6,6-1.57,7.54a5.61,5.61,0,0,1-9.3-.13c-1-1.72-1.58-4.31-1.58-7.87v-6.72c.05-3.33.56-5.83,1.53-7.45a5,5,0,0,1,4.68-2.41,5.11,5.11,0,0,1,4.72,2.46c1,1.62,1.52,4.16,1.52,7.73Zm30.2-6.53c-.05-4.77-.92-8.24-2.59-10.51s-4.26-3.42-7.82-3.42-6.21,1.16-7.87,3.52-2.5,6-2.5,10.78v5.6c0,4.63.92,8.1,2.63,10.47s4.26,3.47,7.78,3.47,6.2-1.21,7.87-3.57,2.5-6,2.5-10.92ZM339.91,984c0,3.43-.6,6-1.57,7.54a5.61,5.61,0,0,1-9.3-.13c-1-1.72-1.58-4.31-1.58-7.87v-6.72c.05-3.33.56-5.83,1.53-7.45a5,5,0,0,1,4.68-2.41,5.12,5.12,0,0,1,4.72,2.46c1,1.62,1.52,4.16,1.52,7.73Z"></path><line class="cls-3" x1="46.39" y1="915.53" x2="542.72" y2="915.53"></line><path class="cls-1" d="M560.68,844.44H42.6V584.21H560.68ZM51.45,584.21V844.44m14.2-260.23V844.44M78.91,584.21V844.44M93.1,584.21V844.44m12.31-260.23V844.44m16.08-260.23V844.44m13.26-260.23V844.44m10.41-260.23V844.44M174.5,584.21V844.44m11.36-260.23V844.44m14.2-260.23V845.33m13.25-261.12V844.44m9.46-260.23V845.33m17-261.12V844.44m11.36-260.23V844.44m15.14-260.23V844.44m11.37-260.23V844.44M292,584.21V844.44m14-260.23V844.44m12.3-260.23V844.44m13.26-260.23V844.44m15.14-260.23V844.44m10.41-260.23V844.44m14.2-260.23V844.44m15.14-260.23V844.44m10.41-260.23V844.44m15.15-260.23V844.44m13.25-260.23V844.44m13.25-260.23V844.44m13.25-260.23V844.44M466,584.21V844.44m14.2-260.23V844.44m12.3-260.23V844.44m12.31-260.23V844.44M519,584.21V844.44m13.26-260.23V844.44m14.2-260.23V844.44"></path><path class="cls-4" d="M560.68,844.44H42.6V584.21H560.68V844.44ZM51.45,584.21V844.44m14.2-260.23V844.44M78.91,584.21V844.44M93.1,584.21V844.44m12.31-260.23V844.44m16.08-260.23V844.44m13.26-260.23V844.44m10.41-260.23V844.44M174.5,584.21V844.44m11.36-260.23V844.44m14.2-260.23V845.33m13.25-261.12V844.44m9.46-260.23V845.33m17-261.12V844.44m11.36-260.23V844.44m15.14-260.23V844.44m11.37-260.23V844.44M292,584.21V844.44m14-260.23V844.44m12.3-260.23V844.44m13.26-260.23V844.44m15.14-260.23V844.44m10.41-260.23V844.44m14.2-260.23V844.44m15.14-260.23V844.44m10.41-260.23V844.44m15.15-260.23V844.44m13.25-260.23V844.44m13.25-260.23V844.44m13.25-260.23V844.44M466,584.21V844.44m14.2-260.23V844.44m12.3-260.23V844.44m12.31-260.23V844.44M519,584.21V844.44m13.26-260.23V844.44m14.2-260.23V844.44"></path><path class="cls-1" d="M347.31,204.58c-7.37,10.35-27.29,17.76-50.69,17.76-23.15,0-42.88-7.24-50.45-17.41Zm-19.28,0H262.18V188.9H328Z"></path><path class="cls-5" d="M347.31,204.58c-7.37,10.35-27.29,17.76-50.69,17.76-23.15,0-42.88-7.24-50.45-17.41l101.14-.35Zm-19.28,0H262.18V188.9H328Z"></path><line class="cls-6" x1="331.8" y1="217.2" x2="442.76" y2="582.17"></line><path class="cls-5" d="M332.55,217.19l108.8,364.58M296.53,204.69V577.78"></path><path class="cls-1" d="M258.88,217.58"></path><path class="cls-4" d="M258.88,217.58"></path><rect class="cls-1" x="154.73" y="574.36" width="8.57" height="8.57"></rect><rect class="cls-6" x="154.73" y="574.36" width="8.57" height="8.57"></rect><rect class="cls-1" x="156.2" y="575.83" width="5.63" height="5.63"></rect><rect class="cls-5" x="156.2" y="575.83" width="5.63" height="5.63"></rect><rect class="cls-1" x="289.19" y="574.35" width="10.53" height="7.67"></rect><rect class="cls-6" x="289.19" y="574.35" width="10.54" height="7.67"></rect><rect class="cls-1" x="290.66" y="575.83" width="7.6" height="4.72"></rect><rect class="cls-5" x="290.66" y="575.83" width="7.6" height="4.72"></rect><rect class="cls-1" x="434.57" y="572.44" width="9.58" height="9.58"></rect><rect class="cls-6" x="434.57" y="572.44" width="9.58" height="9.58"></rect><rect class="cls-1" x="436.04" y="573.91" width="6.63" height="6.64"></rect><rect class="cls-5" x="436.04" y="573.91" width="6.64" height="6.64"></rect><path class="cls-4" d="M159.07,582.9V846.36m99.81-628.78L159.06,582.9"></path></svg> 