<?xml version="1.0" encoding="UTF-8"?> <svg xmlns="http://www.w3.org/2000/svg" id="Livello_1" data-name="Livello 1" viewBox="0 0 732.44 998.95"><defs><style>.cls-1{fill:#fff;}.cls-2{fill:#231f20;}.cls-3,.cls-4{fill:none;stroke-width:0.25px;}.cls-3{stroke:#000;}.cls-4{stroke:#231f20;stroke-miterlimit:10;}</style></defs><title>Luxury semicone 80</title><rect class="cls-1" width="732.44" height="998.95"></rect><path class="cls-2" d="M221.74,17.69a26.83,26.83,0,0,0-1.05-8,14.26,14.26,0,0,0-2.85-5.47,10.68,10.68,0,0,0-4.42-3.14,14.84,14.84,0,0,0-5.7-1A15.08,15.08,0,0,0,202,1.05a10.56,10.56,0,0,0-4.36,3.14,14.4,14.4,0,0,0-2.85,5.47,26.83,26.83,0,0,0-1.05,8v7.16a26.64,26.64,0,0,0,1.05,8,15.34,15.34,0,0,0,2.85,5.53,10.62,10.62,0,0,0,4.42,3.15,15.25,15.25,0,0,0,5.7,1,15,15,0,0,0,5.71-1,10.62,10.62,0,0,0,4.42-3.15,15.5,15.5,0,0,0,2.85-5.53,28.9,28.9,0,0,0,1-8ZM213.54,26a21.27,21.27,0,0,1-.41,4.65A9,9,0,0,1,212,33.7a4.07,4.07,0,0,1-1.8,1.68,5.9,5.9,0,0,1-4.89,0,4.07,4.07,0,0,1-1.8-1.68,8.91,8.91,0,0,1-1.17-3.09A26.4,26.4,0,0,1,202,26V16.47a25.79,25.79,0,0,1,.35-4.6,8.65,8.65,0,0,1,1.11-3,4.88,4.88,0,0,1,1.8-1.69,5.73,5.73,0,0,1,2.45-.47,5.38,5.38,0,0,1,2.44.47A4.61,4.61,0,0,1,212,8.85a8.45,8.45,0,0,1,1.11,3,20.79,20.79,0,0,1,.41,4.6ZM248.36.17a21.77,21.77,0,0,0-8.9,1.69,18.72,18.72,0,0,0-6.63,4.66,21.44,21.44,0,0,0-4.14,7.21,28.46,28.46,0,0,0-1.39,9.14v3.2a20.69,20.69,0,0,0,1,6.7A15.71,15.71,0,0,0,231.25,38a13.31,13.31,0,0,0,4.6,3.37,14.27,14.27,0,0,0,6,1.22,14.93,14.93,0,0,0,5.76-1.1,13.37,13.37,0,0,0,4.42-3,13,13,0,0,0,2.79-4.48,16.15,16.15,0,0,0,1-5.59,20.49,20.49,0,0,0-.75-5.41,13.7,13.7,0,0,0-2.21-4.48,11,11,0,0,0-3.67-3A11.39,11.39,0,0,0,244,14.26a12.13,12.13,0,0,0-4.71.93,11.37,11.37,0,0,0-3.61,2.5,13.59,13.59,0,0,1,1.39-4.48,10.16,10.16,0,0,1,2.68-3.37,12.86,12.86,0,0,1,4.07-2.16,16.17,16.17,0,0,1,5.24-.75h.47V.17Zm-4.3,21.25A6.37,6.37,0,0,1,246,23a7.75,7.75,0,0,1,1.22,2.38,10.14,10.14,0,0,1,.41,3,10.05,10.05,0,0,1-.41,3A7.48,7.48,0,0,1,246,33.76a5,5,0,0,1-1.86,1.57,4.85,4.85,0,0,1-2.45.58,6,6,0,0,1-2.5-.53,5.74,5.74,0,0,1-2-1.62A9.19,9.19,0,0,1,236,31a15.17,15.17,0,0,1-.47-3.84v-2.5a6,6,0,0,1,.93-1.46A5.63,5.63,0,0,1,237.77,22a6.76,6.76,0,0,1,1.69-.82,6,6,0,0,1,2-.29,5.91,5.91,0,0,1,2.56.53Zm44.37-3.73a26.83,26.83,0,0,0-1.05-8,14.4,14.4,0,0,0-2.85-5.47,10.68,10.68,0,0,0-4.42-3.14,14.86,14.86,0,0,0-5.71-1,15.06,15.06,0,0,0-5.7,1.05,10.5,10.5,0,0,0-4.36,3.14,14.27,14.27,0,0,0-2.86,5.47,27.18,27.18,0,0,0-1,8v7.16a27,27,0,0,0,1,8,15.35,15.35,0,0,0,2.86,5.53,10.62,10.62,0,0,0,4.42,3.15,15.25,15.25,0,0,0,5.7,1,15,15,0,0,0,5.71-1,10.68,10.68,0,0,0,4.42-3.15,15.5,15.5,0,0,0,2.85-5.53,28.9,28.9,0,0,0,1-8ZM280.22,26a21.34,21.34,0,0,1-.4,4.65,9.15,9.15,0,0,1-1.11,3.09,4.07,4.07,0,0,1-1.8,1.68,5.9,5.9,0,0,1-4.89,0,4.14,4.14,0,0,1-1.81-1.68,9.12,9.12,0,0,1-1.16-3.09A26.4,26.4,0,0,1,268.7,26V16.47a25.79,25.79,0,0,1,.35-4.6,8.45,8.45,0,0,1,1.11-3A4.88,4.88,0,0,1,272,7.16a5.71,5.71,0,0,1,2.44-.47,5.39,5.39,0,0,1,2.45.47,4.61,4.61,0,0,1,1.86,1.69,8.65,8.65,0,0,1,1.11,3,20.85,20.85,0,0,1,.4,4.6ZM322.09.58H292.88V7.22h20.54L297.42,42h8.67l16-36.78ZM343.65,21h-16v6.58h16Zm34.61,14.38H360.45l7.27-7.69c1.4-1.45,2.68-2.79,3.79-4.13a29,29,0,0,0,2.91-3.9,19.52,19.52,0,0,0,1.8-3.84,11.55,11.55,0,0,0,.7-4,13.62,13.62,0,0,0-.87-4.95,9.86,9.86,0,0,0-2.62-3.67A11.81,11.81,0,0,0,369.24.81,19.66,19.66,0,0,0,363.42,0a15.27,15.27,0,0,0-6,1.11A13.06,13.06,0,0,0,352.94,4,12.79,12.79,0,0,0,350,8.32a14.8,14.8,0,0,0-1,5.3h8.27a8.38,8.38,0,0,1,.4-2.8,6.65,6.65,0,0,1,1.11-2.21,5.2,5.2,0,0,1,1.92-1.45,5.73,5.73,0,0,1,2.56-.53,5,5,0,0,1,4,1.58,6.33,6.33,0,0,1,1.4,4.36,5.24,5.24,0,0,1-.3,1.86,9.79,9.79,0,0,1-.87,2.1A17,17,0,0,1,365.8,19a32.89,32.89,0,0,1-2.56,3L349.86,36.32V42h28.4ZM403.19.52h-.87L385.21,6.69v6.64l9.78-3V42h8.2Z"></path><path class="cls-2" d="M200.48,113.72a5.65,5.65,0,0,1-1.51,1.81,11.42,11.42,0,0,1-2.5,1.22,12.44,12.44,0,0,1-3.44.41,12.82,12.82,0,0,1-2.91-.29,8.81,8.81,0,0,1-2.73-1.05,5.86,5.86,0,0,1-2-1.92,6.1,6.1,0,0,1-.93-3H181a7.87,7.87,0,0,0,.82,3.43,8.5,8.5,0,0,0,2.33,3,11.26,11.26,0,0,0,3.72,2,17.53,17.53,0,0,0,5.18.76,17.1,17.1,0,0,0,4.72-.64,10.17,10.17,0,0,0,3.55-1.75,8.47,8.47,0,0,0,2.32-2.68,7.58,7.58,0,0,0,.76-3.49,7.2,7.2,0,0,0-.64-3.26,6.65,6.65,0,0,0-1.92-2.5,14.06,14.06,0,0,0-3.38-1.92,32.21,32.21,0,0,0-4.77-1.4,32.52,32.52,0,0,1-4.19-1.22,8.92,8.92,0,0,1-2.5-1.34,3,3,0,0,1-1.22-1.57,4.63,4.63,0,0,1,.11-3.78,4.6,4.6,0,0,1,1.28-1.75,8.14,8.14,0,0,1,2.33-1.22,9.65,9.65,0,0,1,3.38-.47,10,10,0,0,1,3.37.53A7.45,7.45,0,0,1,198.74,93a6,6,0,0,1,1.57,2,5.42,5.42,0,0,1,.52,2.33h3.38a8.52,8.52,0,0,0-.76-3.67,9.07,9.07,0,0,0-2.21-2.91,11.39,11.39,0,0,0-3.61-1.92,16.31,16.31,0,0,0-9.25-.06,11.32,11.32,0,0,0-3.44,1.81,7.77,7.77,0,0,0-2.15,2.67,7.13,7.13,0,0,0-.76,3.26,7.31,7.31,0,0,0,.7,3.26,6.3,6.3,0,0,0,2.1,2.39A12.27,12.27,0,0,0,188.2,104a37.33,37.33,0,0,0,4.54,1.22,23.33,23.33,0,0,1,4.19,1.28,8.27,8.27,0,0,1,2.5,1.57,5.25,5.25,0,0,1,1.23,1.75,5.65,5.65,0,0,1,.35,1.92,4.24,4.24,0,0,1-.53,2Zm27.15,5.88a10,10,0,0,0,3-1.16,10.17,10.17,0,0,0,2.33-1.69,16.16,16.16,0,0,0,1.8-2.15L232.64,113a10.05,10.05,0,0,1-3.79,3.15,10.65,10.65,0,0,1-4.83,1,9.66,9.66,0,0,1-4.3-.93,10.43,10.43,0,0,1-3.32-2.62,11.77,11.77,0,0,1-2.15-3.84,14.3,14.3,0,0,1-.76-4.78v-.64h21.94v-2.09a19.62,19.62,0,0,0-.81-5.65,12.9,12.9,0,0,0-2.33-4.48,11.31,11.31,0,0,0-3.84-2.91,12.1,12.1,0,0,0-5.18-1,11.39,11.39,0,0,0-5,1.11,13.68,13.68,0,0,0-4.19,3.14,14.64,14.64,0,0,0-2.91,4.89,18.75,18.75,0,0,0-1,6.46V105a17,17,0,0,0,1,6.06,13.6,13.6,0,0,0,2.85,4.77,12.24,12.24,0,0,0,4.37,3.08,13.2,13.2,0,0,0,5.53,1.17,14.49,14.49,0,0,0,3.72-.47Zm-.58-27.7a9.18,9.18,0,0,1,2.73,2.21,10.19,10.19,0,0,1,1.63,3.2,13.13,13.13,0,0,1,.64,3.78v.35H213.61a15.67,15.67,0,0,1,1.1-4.25,10.66,10.66,0,0,1,2-3.25,10.11,10.11,0,0,1,2.91-2.16,9.37,9.37,0,0,1,3.61-.7,8.55,8.55,0,0,1,3.78.82Zm14.81-3.14v30.72h3.43V98.42a16.21,16.21,0,0,1,1.11-2.74,12.16,12.16,0,0,1,1.8-2.33,10.07,10.07,0,0,1,2.62-1.63,8.7,8.7,0,0,1,3.38-.58,10.43,10.43,0,0,1,3.08.41,5.66,5.66,0,0,1,2.33,1.28,5.73,5.73,0,0,1,1.57,2.5,12.23,12.23,0,0,1,.53,3.84v20.31h3.43V99.11a8.22,8.22,0,0,1,.7-2.73,11.23,11.23,0,0,1,1.74-2.56,9.77,9.77,0,0,1,2.8-1.92,8.28,8.28,0,0,1,3.72-.76,12.13,12.13,0,0,1,3,.35,5.1,5.1,0,0,1,2.39,1.34,6.27,6.27,0,0,1,1.57,2.56,13,13,0,0,1,.52,4v20.07H285v-20a16.84,16.84,0,0,0-.64-5.12,8.56,8.56,0,0,0-2-3.49,7.47,7.47,0,0,0-3.2-2,13.85,13.85,0,0,0-4.25-.64,13,13,0,0,0-3.44.47,12.16,12.16,0,0,0-2.91,1.22,11.27,11.27,0,0,0-2.38,1.92,13.65,13.65,0,0,0-1.75,2.33A8.1,8.1,0,0,0,261,89.57a11.5,11.5,0,0,0-5.82-1.4,10.8,10.8,0,0,0-3.14.41,10.1,10.1,0,0,0-2.74,1.11A8.31,8.31,0,0,0,247,91.43a11.77,11.77,0,0,0-1.8,2.33l-.12-5Zm55.53,0H294v30.72h3.43ZM294,81.48a2.43,2.43,0,0,0,1.74.64,2.32,2.32,0,0,0,1.69-.64,2.16,2.16,0,0,0,.64-1.63,2.09,2.09,0,0,0-.64-1.63,2.18,2.18,0,0,0-1.69-.7,2.27,2.27,0,0,0-1.74.7,2.24,2.24,0,0,0-.59,1.63,2.33,2.33,0,0,0,.59,1.63Zm19.48,34.69a9.83,9.83,0,0,1-3-2.74,12.52,12.52,0,0,1-1.63-4,20.57,20.57,0,0,1-.52-4.72v-1.16a21,21,0,0,1,.52-4.72,11.07,11.07,0,0,1,1.69-3.95,8.57,8.57,0,0,1,3-2.8,9.59,9.59,0,0,1,4.48-1,10.08,10.08,0,0,1,3.26.53,8.8,8.8,0,0,1,2.68,1.63,8.21,8.21,0,0,1,1.86,2.5,8.83,8.83,0,0,1,.76,3.37h3.31a13.51,13.51,0,0,0-1-4.53,10.82,10.82,0,0,0-2.57-3.44,10.46,10.46,0,0,0-3.66-2.21,13.26,13.26,0,0,0-4.6-.76,13.11,13.11,0,0,0-5.64,1.17,12.08,12.08,0,0,0-4.14,3.26,14.87,14.87,0,0,0-2.5,4.89,22.18,22.18,0,0,0-.81,6.05v1.16a22.46,22.46,0,0,0,.81,6,14.87,14.87,0,0,0,2.5,4.89,11.78,11.78,0,0,0,4.14,3.2,12.3,12.3,0,0,0,5.64,1.23,14,14,0,0,0,4.48-.76,12.34,12.34,0,0,0,3.67-2.1,9.87,9.87,0,0,0,2.62-3.2,10.18,10.18,0,0,0,1.1-4h-3.31a7.27,7.27,0,0,1-.82,3.08,8.77,8.77,0,0,1-1.92,2.27,8.87,8.87,0,0,1-2.68,1.34,9.3,9.3,0,0,1-3.14.47,8.91,8.91,0,0,1-4.48-1Zm21.21-11.58a19.36,19.36,0,0,0,1,6.22,14.33,14.33,0,0,0,2.8,4.89,12.27,12.27,0,0,0,4.3,3.2,14.2,14.2,0,0,0,11.29,0,13.12,13.12,0,0,0,4.37-3.2,15.43,15.43,0,0,0,2.73-4.89,19.36,19.36,0,0,0,1-6.22v-.94a19,19,0,0,0-1-6.16,15.1,15.1,0,0,0-2.73-4.95,13.12,13.12,0,0,0-4.37-3.2,13.79,13.79,0,0,0-5.7-1.17,13.48,13.48,0,0,0-5.59,1.17,13.08,13.08,0,0,0-4.36,3.2,14.94,14.94,0,0,0-2.74,4.95,19,19,0,0,0-1,6.16Zm3.44-.94a16.16,16.16,0,0,1,.64-4.77,12.64,12.64,0,0,1,2-4A9.12,9.12,0,0,1,344,92.13a9,9,0,0,1,4.37-1,9.4,9.4,0,0,1,4.48,1,9.15,9.15,0,0,1,3.26,2.74,13.07,13.07,0,0,1,2,4,16.53,16.53,0,0,1,.7,4.77v.94a16.69,16.69,0,0,1-.7,4.83,13.07,13.07,0,0,1-2,4,10.57,10.57,0,0,1-3.26,2.74,9,9,0,0,1-4.42,1,9.18,9.18,0,0,1-4.43-1,10.53,10.53,0,0,1-3.25-2.74,12.64,12.64,0,0,1-2-4,16.34,16.34,0,0,1-.64-4.83Zm31-14.89v30.72h3.38V98.42a12.91,12.91,0,0,1,1.34-2.68,9.52,9.52,0,0,1,1.92-2.39,10.07,10.07,0,0,1,2.62-1.63,8.77,8.77,0,0,1,3.32-.58,10,10,0,0,1,3,.41,5,5,0,0,1,2.27,1.34,6.88,6.88,0,0,1,1.46,2.56,13.1,13.1,0,0,1,.52,4v20h3.38v-20a17.12,17.12,0,0,0-.7-5.18,9.8,9.8,0,0,0-1.92-3.49,7.34,7.34,0,0,0-3.09-2,11.52,11.52,0,0,0-4.13-.64,11.08,11.08,0,0,0-3.14.41A11.65,11.65,0,0,0,372.45,94l-.12-5.23Zm47.58,30.84a10,10,0,0,0,3-1.16,10.11,10.11,0,0,0,2.32-1.69,16.25,16.25,0,0,0,1.81-2.15L421.65,113a10,10,0,0,1-3.78,3.15,10.68,10.68,0,0,1-4.83,1,9.74,9.74,0,0,1-4.31-.93,10.39,10.39,0,0,1-3.31-2.62,12,12,0,0,1-2.16-3.84,14.55,14.55,0,0,1-.75-4.78v-.64h21.94v-2.09a19.28,19.28,0,0,0-.82-5.65,12.72,12.72,0,0,0-2.32-4.48,11.25,11.25,0,0,0-3.85-2.91,12.07,12.07,0,0,0-5.18-1,11.37,11.37,0,0,0-5,1.11,13.68,13.68,0,0,0-4.19,3.14,14.64,14.64,0,0,0-2.91,4.89,18.75,18.75,0,0,0-1.05,6.46V105a17,17,0,0,0,1.05,6.06,13.6,13.6,0,0,0,2.85,4.77,12.15,12.15,0,0,0,4.37,3.08,13.15,13.15,0,0,0,5.52,1.17,14.57,14.57,0,0,0,3.73-.47Zm-.58-27.7a9.31,9.31,0,0,1,2.73,2.21,10.4,10.4,0,0,1,1.63,3.2,13.49,13.49,0,0,1,.64,3.78v.35H402.62a16,16,0,0,1,1.11-4.25,10.47,10.47,0,0,1,2-3.25,10.11,10.11,0,0,1,2.91-2.16,9.31,9.31,0,0,1,3.6-.7,8.56,8.56,0,0,1,3.79.82Z"></path><line class="cls-3" x1="552.53" y1="617.71" x2="552.53" y2="807.14"></line><path d="M591.18,726.61v4.47l22.92,14.78h2.47V730.8h7.67v-4.19h-7.67V722h-3.44v4.6Zm6.65,4.7-.88-.51h16.18v10.32Zm6.88-33.86c-4.79,0-8.27.93-10.55,2.61s-3.44,4.27-3.44,7.85,1.16,6.23,3.53,7.9,6,2.51,10.83,2.51h5.63c4.65,0,8.13-.93,10.51-2.64s3.48-4.28,3.48-7.81-1.21-6.23-3.58-7.91-6-2.51-11-2.51Zm6.56,4.19c3.44,0,6,.6,7.57,1.58a5.63,5.63,0,0,1-.14,9.34c-1.72,1-4.32,1.58-7.9,1.58h-6.74c-3.35,0-5.86-.56-7.48-1.53a5.07,5.07,0,0,1-2.42-4.7,5.14,5.14,0,0,1,2.46-4.74c1.63-1,4.19-1.53,7.77-1.53Z"></path><path d="M234.38,963.57l-2.28,4.6h2.84l1.67-3.39a11.74,11.74,0,0,0,4.32.79,11.12,11.12,0,0,0,5.82-1.54,10.92,10.92,0,0,0,3.95-4.46,14.65,14.65,0,0,0,1.39-6.46c0-4.84-1.49-8.46-4.41-10.79l2.32-4.65h-2.84l-1.62,3.4a11.14,11.14,0,0,0-4.65-1,10.67,10.67,0,0,0-5.81,1.58,10.54,10.54,0,0,0-4,4.46,14.54,14.54,0,0,0-1.4,6.47c0,5.06,1.58,8.69,4.65,11ZM235.87,946a6.05,6.05,0,0,1,5-2.46,6.19,6.19,0,0,1,3,.74L236.15,960a10.12,10.12,0,0,1-2.19-6.92c0-3.07.61-5.44,1.91-7.12Zm12,7a10.84,10.84,0,0,1-1.86,6.69,6.18,6.18,0,0,1-5.07,2.47,6.61,6.61,0,0,1-2.74-.56L245.91,946a10.56,10.56,0,0,1,2,6.65Zm26.23-18.92a11.27,11.27,0,0,0-14.08,0,8.52,8.52,0,0,0-2.7,6.6,7.71,7.71,0,0,0,1.3,4.41,9.13,9.13,0,0,0,3.44,3,8.74,8.74,0,0,0-4,3.25,8.41,8.41,0,0,0-1.44,4.83A8.77,8.77,0,0,0,259.4,963a12.71,12.71,0,0,0,15.3,0,8.63,8.63,0,0,0,2.88-6.84,8.1,8.1,0,0,0-1.53-4.83,9.21,9.21,0,0,0-4.09-3.25,9,9,0,0,0,3.53-3,7.6,7.6,0,0,0,1.3-4.41,8.35,8.35,0,0,0-2.7-6.6Zm-2.41,26.45a7.38,7.38,0,0,1-9.25,0,5.85,5.85,0,0,1-1.68-4.42,6.16,6.16,0,0,1,1.72-4.55,6,6,0,0,1,4.56-1.72,6.39,6.39,0,0,1,4.6,1.76,6.12,6.12,0,0,1,1.77,4.51,5.91,5.91,0,0,1-1.72,4.42ZM271,936.6a6.21,6.21,0,0,1,0,8.23,5.28,5.28,0,0,1-4,1.54,5.48,5.48,0,0,1-4.05-1.54,6.4,6.4,0,0,1,.05-8.27,5.33,5.33,0,0,1,4-1.54A5.26,5.26,0,0,1,271,936.6Zm32.6,9c-.05-4.79-.93-8.28-2.6-10.56s-4.28-3.44-7.86-3.44-6.23,1.16-7.9,3.54-2.51,6-2.51,10.83v5.62c0,4.65.93,8.14,2.65,10.51s4.27,3.49,7.81,3.49,6.22-1.21,7.9-3.58,2.51-6,2.51-11Zm-4.19,6.55c0,3.44-.6,6-1.58,7.58a5.63,5.63,0,0,1-9.34-.14c-1-1.72-1.58-4.32-1.58-7.9v-6.74c.05-3.35.56-5.86,1.53-7.49a5.07,5.07,0,0,1,4.7-2.42,5.13,5.13,0,0,1,4.74,2.47c1,1.62,1.53,4.18,1.53,7.76Zm12.9-11.58h-4.88l8,12.14-8.28,12.41h4.88l5.68-9.2,5.67,9.2h4.88L320,952.69l8-12.14h-4.88l-5.44,9Zm41.1-8.5H331.13v3.44H349L335.36,965.1h4.42l13.66-30.68ZM379,945.58c-.05-4.79-.93-8.28-2.6-10.56s-4.28-3.44-7.86-3.44-6.23,1.16-7.9,3.54-2.51,6-2.51,10.83v5.62c0,4.65.93,8.14,2.65,10.51s4.27,3.49,7.81,3.49,6.23-1.21,7.9-3.58,2.51-6,2.51-11Zm-4.18,6.55c-.05,3.44-.61,6-1.58,7.58a5.64,5.64,0,0,1-9.35-.14c-1-1.72-1.58-4.32-1.58-7.9v-6.74c0-3.35.56-5.86,1.53-7.49a5.78,5.78,0,0,1,9.44,0c1,1.62,1.54,4.18,1.54,7.76Z"></path><line class="cls-3" x1="107.74" y1="881.01" x2="498.56" y2="881.01"></line><path class="cls-1" d="M356.5,181.05c0,35.12-23.89,63.6-53.35,63.6s-53.35-28.48-53.35-63.6Zm0,0c0,35.12-23.89,63.6-53.35,63.6s-53.35-28.48-53.35-63.6ZM461.41,607.69H145.6L110,815.66H496.26Zm-303,0-36.27,208m46.24-208L130,815.66m47.66-208-37.35,208m48-208L152,815.66m45.53-208-34.85,208m44.8-208-37.34,208m47.3-208-37.34,208m47.3-208-34.14,208m42.67-208-32,208m38.42-208-24.9,208m32.72-208-22.76,208m29.16-208-17.78,208m25.6-208-14.22,208m21.34-208-10.67,208m19.91-208-9.24,208m18.49-208-4.26,208m11.38-208-3.56,208m9.6-208v208m8.9-208,2.84,208m5.69-208,4.26,208m2.85-208,8.53,208m0-208,10.9,208.72m-5.56-208.72,19.91,208m-10.13-208,20.45,208m-12.8-208,24.18,208M369,607.69l25.13,208m-18.5-208,28.93,208m-21.61-208,33.46,208m-24.18-208,34.61,208m-27-208,38.41,208m-28.69-208,37.7,208m-25.6-208,35.56,208M432,607.69l36,208m-26.56-208,36,208m-25.6-208,35.08,208"></path><path class="cls-4" d="M356.5,181.05c0,35.12-23.89,63.6-53.35,63.6s-53.35-28.48-53.35-63.6Zm0,0c0,35.12-23.89,63.6-53.35,63.6s-53.35-28.48-53.35-63.6ZM461.41,607.69H145.6L110,815.66H496.26l-34.85-208Zm-303,0-36.27,208m46.24-208L130,815.66m47.66-208-37.35,208m48-208L152,815.66m45.53-208-34.85,208m44.8-208-37.34,208m47.3-208-37.34,208m47.3-208-34.14,208m42.67-208-32,208m38.42-208-24.9,208m32.72-208-22.76,208m29.16-208-17.78,208m25.6-208-14.22,208m21.34-208-10.67,208m19.91-208-9.24,208m18.49-208-4.26,208m11.38-208-3.56,208m9.6-208v208m8.9-208,2.84,208m5.69-208,4.26,208m2.85-208,8.53,208m0-208,10.9,208.72m-5.56-208.72,19.91,208m-10.13-208,20.45,208m-12.8-208,24.18,208M369,607.69l25.13,208m-18.5-208,28.93,208m-21.61-208,33.46,208m-24.18-208,34.61,208m-27-208,38.41,208m-28.69-208,37.7,208m-25.6-208,35.56,208M432,607.69l36,208m-26.56-208,36,208m-25.6-208,35.08,208"></path><path class="cls-4" d="M284.25,241.56s-4.92,76.71,18.9,135.78,49.68,128.64,0,227.27"></path><line class="cls-4" x1="303.15" y1="604.61" x2="303.15" y2="244.65"></line></svg> 