<?xml version="1.0" encoding="UTF-8"?> <svg xmlns="http://www.w3.org/2000/svg" id="Livello_1" data-name="Livello 1" viewBox="0 0 808 1000"><defs><style>.cls-1{fill:#fff;}.cls-2,.cls-4{fill:none;stroke-width:0.25px;}.cls-2{stroke:#000;}.cls-3{fill:#231f20;}.cls-4{stroke:#231f20;stroke-miterlimit:10;}</style></defs><title>Mami tavolo</title><rect class="cls-1" width="808" height="1000"></rect><path class="cls-2" d="M239.22,907.75H427M149.36,278h351m134.87,48.65V832.92" transform="translate(0 -0.49)"></path><path d="M712,601.36,711,600a8.25,8.25,0,0,1-1.45-5.16,7.24,7.24,0,0,1,2.39-5.71,9.12,9.12,0,0,1,6.38-2.17,9.92,9.92,0,0,1,6.54,2,6.72,6.72,0,0,1,2.39,5.49,7.47,7.47,0,0,1-1.72,5.16,8,8,0,0,1-5.11,2.38v4.77a11.66,11.66,0,0,0,8.05-3.77,12.46,12.46,0,0,0,2.88-8.54c0-3.94-1.17-7-3.49-9.21s-5.55-3.27-9.6-3.27-7.26,1-9.65,3.16a10.87,10.87,0,0,0-3.55,8.54,12.5,12.5,0,0,0,1.72,6.6L696,599.14v-16h-4.66v20.18l19.69,2Zm-20.69-43.61q.17,9.15,5.88,13.81t16.64,4.66h1.94a17.46,17.46,0,0,0,11.2-3.55,11.19,11.19,0,0,0,4.33-9.15,11.41,11.41,0,0,0-3.66-8.93c-2.44-2.22-5.66-3.33-9.76-3.33a14,14,0,0,0-9.37,3.11,10.26,10.26,0,0,0-3.61,8.2,10.6,10.6,0,0,0,3.55,8.49,14.28,14.28,0,0,1-9.43-4,13.28,13.28,0,0,1-3.44-9.32v-.94h-4.27Zm20.36.44a10,10,0,0,1,6.49-1.94,9.82,9.82,0,0,1,6.48,1.94,6.33,6.33,0,0,1,2.5,5.33,6.58,6.58,0,0,1-2.94,5.43,12.68,12.68,0,0,1-7.82,2.22h-1.83a7.78,7.78,0,0,1-3.83-3,8,8,0,0,1-1.55-4.76,6.32,6.32,0,0,1,2.5-5.22Z" transform="translate(0 -0.49)"></path><path d="M294.22,994.51l-2.71,5.49h3.38l2-4a14.06,14.06,0,0,0,5.16.94,13.19,13.19,0,0,0,6.93-1.83,12.93,12.93,0,0,0,4.72-5.32,17.45,17.45,0,0,0,1.66-7.71c0-5.77-1.77-10.09-5.27-12.86l2.78-5.55h-3.39l-1.94,4A13.2,13.2,0,0,0,302,966.5a12.75,12.75,0,0,0-6.94,1.89,12.61,12.61,0,0,0-4.71,5.32,17.32,17.32,0,0,0-1.66,7.71c0,6.05,1.88,10.37,5.54,13.09Zm1.78-21a7.2,7.2,0,0,1,6-2.94,7.38,7.38,0,0,1,3.6.88l-9.26,18.8c-1.77-2-2.61-4.76-2.61-8.26,0-3.66.72-6.49,2.28-8.48Zm14.31,8.32a13,13,0,0,1-2.22,8,7.4,7.4,0,0,1-6,2.94,7.74,7.74,0,0,1-3.27-.67L308,973.49a12.63,12.63,0,0,1,2.33,7.93Zm36.45,10.37H327l10.54-11.48c5-5.33,7.43-10,7.43-13.87a9.9,9.9,0,0,0-3.16-7.65c-2.17-1.94-5-2.89-8.71-2.89-3.94,0-7,1.11-9.37,3.39a11.38,11.38,0,0,0-3.55,8.76h5.05a8.18,8.18,0,0,1,2.05-5.93,7.86,7.86,0,0,1,5.82-2.11,6.59,6.59,0,0,1,5,2,7.08,7.08,0,0,1,1.83,5,9.61,9.61,0,0,1-1.11,4.44,30.57,30.57,0,0,1-4.21,5.6l-13.64,15.2v3.6h25.84Zm11.66-14.65,1.33-1.05a8.29,8.29,0,0,1,5.16-1.44,7.26,7.26,0,0,1,5.71,2.38,9.19,9.19,0,0,1,2.17,6.38,10,10,0,0,1-2,6.55,6.74,6.74,0,0,1-5.49,2.38,7.42,7.42,0,0,1-5.16-1.72,7.89,7.89,0,0,1-2.38-5.1H353a11.61,11.61,0,0,0,3.77,8,12.46,12.46,0,0,0,8.54,2.88c3.94,0,7-1.16,9.21-3.49s3.27-5.55,3.27-9.59-1.06-7.27-3.16-9.65a10.85,10.85,0,0,0-8.54-3.55,12.41,12.41,0,0,0-6.6,1.72l1.16-10.76h16v-4.66H356.43l-2,19.69Z" transform="translate(0 -0.49)"></path><path d="M318.12,191.74h-5.33l-17.63,27.34V222h18v9.15h5V222h5.49v-4.1h-5.49Zm-5.6,7.93.61-1v19.3H300.82Zm40.39,8.21c-.06-5.71-1.11-9.87-3.11-12.59s-5.1-4.1-9.37-4.1S333,192.57,331,195.4s-3,7.16-3,12.93V215c.05,5.54,1.11,9.7,3.16,12.53s5.1,4.16,9.32,4.16,7.43-1.44,9.42-4.27,3-7.21,3-13.09Zm-5,7.82c-.06,4.1-.72,7.16-1.89,9a6.73,6.73,0,0,1-11.15-.17c-1.22-2-1.88-5.15-1.88-9.42V207.1c.05-4,.66-7,1.83-8.92a6,6,0,0,1,5.6-2.89,6.12,6.12,0,0,1,5.66,2.94c1.22,1.94,1.83,5,1.83,9.26Z" transform="translate(0 -0.49)"></path><path class="cls-3" d="M245.05,3.83H244l-20.41,7.36v7.92l11.67-3.61V53.27h9.79Zm26,28.05h5.21a12.92,12.92,0,0,1,3.4.42,9.89,9.89,0,0,1,2.57,1.32,6.88,6.88,0,0,1,1.6,2.29,10.13,10.13,0,0,1,.55,3.4,7.49,7.49,0,0,1-.55,2.78,4.8,4.8,0,0,1-1.46,2.08A5.36,5.36,0,0,1,280,45.56a8.65,8.65,0,0,1-3.13.49,7.57,7.57,0,0,1-2.84-.49,6.16,6.16,0,0,1-2.29-1.32,5.88,5.88,0,0,1-1.53-1.94,6.06,6.06,0,0,1-.56-2.57h-9.79a12.92,12.92,0,0,0,1.46,6.32,13.13,13.13,0,0,0,3.82,4.44,16.83,16.83,0,0,0,5.35,2.64,23.42,23.42,0,0,0,6.18.83,24.81,24.81,0,0,0,6.94-1,16.21,16.21,0,0,0,5.55-2.85,13,13,0,0,0,3.68-4.51,14.6,14.6,0,0,0,1.32-6.18,12.13,12.13,0,0,0-2.08-7.08,12,12,0,0,0-6.18-4.44,16.45,16.45,0,0,0,3.19-2,15.43,15.43,0,0,0,2.36-2.5,12.66,12.66,0,0,0,1.46-3,12.14,12.14,0,0,0,.49-3.13,14.41,14.41,0,0,0-1.25-6.11,12.51,12.51,0,0,0-3.4-4.37,16,16,0,0,0-5.28-2.71,26.2,26.2,0,0,0-6.8-.9,20.86,20.86,0,0,0-6.32,1,17.34,17.34,0,0,0-5.14,2.71,13.67,13.67,0,0,0-3.47,4.23,12.37,12.37,0,0,0-1.25,5.56h9.79a5.12,5.12,0,0,1,.55-2.29,5.05,5.05,0,0,1,1.39-1.74,5.79,5.79,0,0,1,2.15-1.11,7.25,7.25,0,0,1,2.5-.42,7.65,7.65,0,0,1,3,.49,5.3,5.3,0,0,1,2.08,1.32,4.91,4.91,0,0,1,1.25,2,7.25,7.25,0,0,1,.42,2.5,6.84,6.84,0,0,1-1.81,4.93c-1.25,1.25-3.05,1.88-5.55,1.88H271Zm63.07-7.57a31.9,31.9,0,0,0-1.25-9.58,17,17,0,0,0-3.4-6.52,12.69,12.69,0,0,0-5.27-3.75,19.15,19.15,0,0,0-13.61,0,12.44,12.44,0,0,0-5.21,3.75,17,17,0,0,0-3.4,6.52,31.9,31.9,0,0,0-1.25,9.58v8.54A31.76,31.76,0,0,0,302,42.37a18.37,18.37,0,0,0,3.4,6.59,12.65,12.65,0,0,0,5.28,3.75,18,18,0,0,0,6.8,1.25,17.76,17.76,0,0,0,6.8-1.25A12.65,12.65,0,0,0,329.53,49a18.37,18.37,0,0,0,3.4-6.59,34.37,34.37,0,0,0,1.18-9.52Zm-9.79,9.86a25.26,25.26,0,0,1-.48,5.56,10.9,10.9,0,0,1-1.32,3.68,5,5,0,0,1-2.15,2,7.08,7.08,0,0,1-5.84,0,5,5,0,0,1-2.15-2A10.85,10.85,0,0,1,311,39.73a32.09,32.09,0,0,1-.41-5.56V22.86a31.23,31.23,0,0,1,.41-5.49,10.47,10.47,0,0,1,1.32-3.61,5.87,5.87,0,0,1,2.16-2,6.75,6.75,0,0,1,2.91-.56,6.43,6.43,0,0,1,2.92.56,5.59,5.59,0,0,1,2.22,2,10.47,10.47,0,0,1,1.32,3.61,24.59,24.59,0,0,1,.48,5.49ZM374.27,3.9H339.42v7.92h24.51L344.84,53.27h10.34L374.27,9.39ZM400,28.2H380.9v7.85H400Zm40.66-3.89a32.23,32.23,0,0,0-1.25-9.58A17,17,0,0,0,436,8.21a12.65,12.65,0,0,0-5.28-3.75,17.76,17.76,0,0,0-6.8-1.25,18.1,18.1,0,0,0-6.81,1.25,12.41,12.41,0,0,0-5.2,3.75,17.16,17.16,0,0,0-3.41,6.52,32.23,32.23,0,0,0-1.25,9.58v8.54a32.08,32.08,0,0,0,1.25,9.52A18.54,18.54,0,0,0,411.91,49a12.62,12.62,0,0,0,5.27,3.75A18.1,18.1,0,0,0,424,54a17.76,17.76,0,0,0,6.8-1.25A12.72,12.72,0,0,0,436.07,49a18.37,18.37,0,0,0,3.4-6.59,34.75,34.75,0,0,0,1.18-9.52Zm-9.79,9.86a25.2,25.2,0,0,1-.49,5.56,10.7,10.7,0,0,1-1.31,3.68,5,5,0,0,1-2.16,2,7.06,7.06,0,0,1-5.83,0,5,5,0,0,1-2.15-2,10.64,10.64,0,0,1-1.39-3.68,31,31,0,0,1-.42-5.56V22.86a30.19,30.19,0,0,1,.42-5.49,10.27,10.27,0,0,1,1.32-3.61,5.84,5.84,0,0,1,2.15-2,6.8,6.8,0,0,1,2.92-.56,6.36,6.36,0,0,1,2.91.56,5.55,5.55,0,0,1,2.23,2,10.28,10.28,0,0,1,1.31,3.61,24.52,24.52,0,0,1,.49,5.49Zm26.34-2.29h5.21a12.92,12.92,0,0,1,3.4.42,9.89,9.89,0,0,1,2.57,1.32,6.74,6.74,0,0,1,1.6,2.29,9.89,9.89,0,0,1,.55,3.4,7.29,7.29,0,0,1-.55,2.78,4.8,4.8,0,0,1-1.46,2.08,5.3,5.3,0,0,1-2.36,1.39,8.59,8.59,0,0,1-3.12.49,7.59,7.59,0,0,1-2.85-.49,6.16,6.16,0,0,1-2.29-1.32,5.88,5.88,0,0,1-1.53-1.94,6.06,6.06,0,0,1-.55-2.57H446a12.92,12.92,0,0,0,1.45,6.32,13.35,13.35,0,0,0,3.82,4.44,16.83,16.83,0,0,0,5.35,2.64,23.42,23.42,0,0,0,6.18.83,24.81,24.81,0,0,0,6.94-1,16.21,16.21,0,0,0,5.55-2.85A13,13,0,0,0,479,45.63a14.6,14.6,0,0,0,1.32-6.18,12.13,12.13,0,0,0-2.08-7.08,12,12,0,0,0-6.18-4.44,16.84,16.84,0,0,0,3.2-2,16.36,16.36,0,0,0,2.36-2.5,13,13,0,0,0,1.45-3,12.14,12.14,0,0,0,.49-3.13,14.41,14.41,0,0,0-1.25-6.11,12.39,12.39,0,0,0-3.4-4.37,15.88,15.88,0,0,0-5.28-2.71,26.2,26.2,0,0,0-6.8-.9,20.91,20.91,0,0,0-6.32,1,17.47,17.47,0,0,0-5.14,2.71,13.67,13.67,0,0,0-3.47,4.23,12.37,12.37,0,0,0-1.25,5.56h9.79a5,5,0,0,1,.56-2.29,4.92,4.92,0,0,1,1.38-1.74,5.76,5.76,0,0,1,2.16-1.11,7.17,7.17,0,0,1,2.5-.42,7.6,7.6,0,0,1,3,.49,5.3,5.3,0,0,1,2.08,1.32,4.81,4.81,0,0,1,1.25,2,7.25,7.25,0,0,1,.42,2.5,6.83,6.83,0,0,1-1.8,4.93c-1.25,1.25-3.06,1.88-5.56,1.88H457.2Z" transform="translate(0 -0.49)"></path><polyline class="cls-1" points="219 664.63 169.12 378.67 143.94 382.96 142.04 368.17 377.67 327.6 379.58 340.45 363.43 343.35 363.96 345.73 352.35 348 351.55 345.73 184.32 376.76 232.83 662.24"></polyline><path class="cls-4" d="M219,665.12l-49.88-286-25.18,4.29L142,368.66l235.63-40.57,1.91,12.85-16.15,2.9.53,2.38-11.61,2.27-.8-2.27-167.23,31,48.51,285.48M398.32,344.35,321.7,358.52l-.77-4.23,76.62-14.16.77,4.22Z" transform="translate(0 -0.49)"></path><path class="cls-1" d="M497.57,356.41c1,5.58,1.43,12.95-8.25,19.47-20.75,14-68.27,27.68-118,37-47.74,8.94-90.69,10.7-115.62,6-13.17-2.52-21.31-6.86-22.43-12.91-1.15-6.21-.5-13.22,11.43-20.52,21.74-13.29,67.72-27.12,114.85-35.95,49.93-9.36,94.62-10.86,118.91-5.27,11.24,2.58,18.12,6.68,19.15,12.21" transform="translate(0 -0.49)"></path><path class="cls-4" d="M497.57,356.41c1,5.58,1.43,12.95-8.25,19.47-20.75,14-68.27,27.68-118,37-47.74,8.94-90.69,10.7-115.62,6-13.17-2.52-21.31-6.86-22.43-12.91-1.15-6.21-.5-13.22,11.43-20.52,21.74-13.29,67.72-27.12,114.85-35.95,49.93-9.36,94.62-10.86,118.91-5.27,11.24,2.58,18.12,6.68,19.15,12.21Z" transform="translate(0 -0.49)"></path><polyline class="cls-1" points="232.81 811.66 232.81 828.85 426.62 828.85 426.62 818.82"></polyline><polyline class="cls-4" points="232.81 811.66 232.81 828.85 426.62 828.85 426.62 818.82"></polyline><polygon class="cls-1" points="432.31 818.82 226.13 811.42 226.13 804.02 432.31 813.09 432.31 818.82"></polygon><polygon class="cls-4" points="432.31 818.82 226.13 811.42 226.13 804.02 432.31 813.09 432.31 818.82 432.31 818.82"></polygon><polyline class="cls-1" points="261.08 805.56 235.42 662.04 215.47 664.9 241.34 804.02"></polyline><polyline class="cls-4" points="261.08 805.56 235.42 662.04 215.47 664.9 241.34 804.02"></polyline></svg> 