<?xml version="1.0" encoding="UTF-8"?> <svg xmlns="http://www.w3.org/2000/svg" id="Livello_1" data-name="Livello 1" viewBox="0 0 1245.83 1000.49"><defs><style>.cls-1{fill:#fff;}.cls-2{fill:#231f20;}.cls-3,.cls-4{fill:none;stroke-width:0.25px;}.cls-3{stroke:#000;}.cls-4{stroke:#231f20;}</style></defs><title>mami wall 4luci</title><rect class="cls-1" y="0.49" width="1245.83" height="1000"></rect><path class="cls-2" d="M344.15.78h-1.3L317.48,9.93v9.84L332,15.28V62.23h12.17Zm32.32,34.87h6.47a16.51,16.51,0,0,1,4.23.51,12.63,12.63,0,0,1,3.19,1.64,8.59,8.59,0,0,1,2,2.85,12.45,12.45,0,0,1,.69,4.23,9.11,9.11,0,0,1-.69,3.45,5.92,5.92,0,0,1-1.82,2.59,6.51,6.51,0,0,1-2.93,1.73,10.83,10.83,0,0,1-3.88.6,9.55,9.55,0,0,1-3.54-.6A7.62,7.62,0,0,1,377.33,51a7.32,7.32,0,0,1-1.9-2.42,7.55,7.55,0,0,1-.69-3.19H362.57a16,16,0,0,0,1.81,7.85,16.31,16.31,0,0,0,4.75,5.53,20.83,20.83,0,0,0,6.64,3.28,29,29,0,0,0,7.69,1,31,31,0,0,0,8.63-1.2,20.22,20.22,0,0,0,6.9-3.54,16.22,16.22,0,0,0,4.58-5.61,18.39,18.39,0,0,0,1.64-7.69,15.16,15.16,0,0,0-2.59-8.8,15,15,0,0,0-7.68-5.52,20.87,20.87,0,0,0,4-2.51,19.89,19.89,0,0,0,2.93-3.1,16.31,16.31,0,0,0,1.81-3.71,15,15,0,0,0,.61-3.89,17.72,17.72,0,0,0-1.56-7.59,15.31,15.31,0,0,0-4.23-5.44,19.58,19.58,0,0,0-6.56-3.37A32.29,32.29,0,0,0,383.46,0a25.72,25.72,0,0,0-7.86,1.21,21.7,21.7,0,0,0-6.39,3.36,17.08,17.08,0,0,0-4.31,5.27,15.23,15.23,0,0,0-1.55,6.9h12.17a6.17,6.17,0,0,1,.69-2.84,6.1,6.1,0,0,1,1.72-2.16,7.12,7.12,0,0,1,2.68-1.38,8.9,8.9,0,0,1,3.11-.52,9.63,9.63,0,0,1,3.71.6A6.76,6.76,0,0,1,390,12.08a6.21,6.21,0,0,1,1.55,2.51,9.12,9.12,0,0,1,.52,3.1,8.48,8.48,0,0,1-2.25,6.13c-1.55,1.56-3.79,2.33-6.9,2.33h-6.47Zm78.4-9.41a39.75,39.75,0,0,0-1.55-11.91,21.4,21.4,0,0,0-4.23-8.12,15.92,15.92,0,0,0-6.56-4.66A22.14,22.14,0,0,0,434.07,0a22.5,22.5,0,0,0-8.46,1.55,15.65,15.65,0,0,0-6.47,4.66,21.4,21.4,0,0,0-4.23,8.12,40.08,40.08,0,0,0-1.55,11.91V36.86a39.86,39.86,0,0,0,1.55,11.82,23.06,23.06,0,0,0,4.23,8.2,15.83,15.83,0,0,0,6.56,4.66,22.27,22.27,0,0,0,8.46,1.55,22,22,0,0,0,8.46-1.55,15.89,15.89,0,0,0,6.56-4.66,23.06,23.06,0,0,0,4.23-8.2,42.92,42.92,0,0,0,1.46-11.82ZM442.7,38.5a31.64,31.64,0,0,1-.6,6.9A13.46,13.46,0,0,1,440.46,50a6.18,6.18,0,0,1-2.68,2.51,8.92,8.92,0,0,1-7.25,0A6.21,6.21,0,0,1,427.86,50a13.19,13.19,0,0,1-1.73-4.57,39.29,39.29,0,0,1-.52-6.9V24.43a38.24,38.24,0,0,1,.52-6.82,13,13,0,0,1,1.64-4.49,7.28,7.28,0,0,1,2.68-2.5,8.44,8.44,0,0,1,3.62-.69,8,8,0,0,1,3.63.69,6.92,6.92,0,0,1,2.76,2.5,13,13,0,0,1,1.64,4.49,30.8,30.8,0,0,1,.6,6.82ZM504.8.86H461.47V10.7h30.47L468.2,62.23h12.86L504.8,7.68Zm32,30.21H513v9.76h23.73ZM582.05.86H569.71l-25.55,40.4.52,7.68h25.2V62.23h12.17V48.94H589V39.1h-6.91Zm-13,18,.86-1.46V39.1H556.24ZM607.9,35.65h6.47a16.51,16.51,0,0,1,4.23.51,12.63,12.63,0,0,1,3.19,1.64,8.45,8.45,0,0,1,2,2.85,12.45,12.45,0,0,1,.69,4.23,9.11,9.11,0,0,1-.69,3.45A5.92,5.92,0,0,1,622,50.92,6.51,6.51,0,0,1,619,52.65a10.83,10.83,0,0,1-3.88.6,9.55,9.55,0,0,1-3.54-.6A7.7,7.7,0,0,1,608.76,51a7.32,7.32,0,0,1-1.9-2.42,7.55,7.55,0,0,1-.69-3.19H594a16,16,0,0,0,1.81,7.85,16.31,16.31,0,0,0,4.75,5.53,20.78,20.78,0,0,0,6.65,3.28,28.89,28.89,0,0,0,7.68,1,31,31,0,0,0,8.63-1.2,20.22,20.22,0,0,0,6.9-3.54A16.22,16.22,0,0,0,635,52.74a18.39,18.39,0,0,0,1.64-7.69,15.16,15.16,0,0,0-2.59-8.8,15,15,0,0,0-7.68-5.52,20.87,20.87,0,0,0,4-2.51,19.89,19.89,0,0,0,2.93-3.1,16.31,16.31,0,0,0,1.81-3.71,15,15,0,0,0,.61-3.89,17.72,17.72,0,0,0-1.56-7.59,15.4,15.4,0,0,0-4.22-5.44,19.77,19.77,0,0,0-6.56-3.37A32.42,32.42,0,0,0,614.89,0,25.77,25.77,0,0,0,607,1.21a21.52,21.52,0,0,0-6.38,3.36,17,17,0,0,0-4.32,5.27,15.23,15.23,0,0,0-1.55,6.9H607a6.3,6.3,0,0,1,.69-2.84,6.1,6.1,0,0,1,1.72-2.16A7.12,7.12,0,0,1,612,10.36a8.9,8.9,0,0,1,3.11-.52,9.63,9.63,0,0,1,3.71.6,6.76,6.76,0,0,1,2.59,1.64A6.11,6.11,0,0,1,623,14.59a8.89,8.89,0,0,1,.52,3.1,8.48,8.48,0,0,1-2.25,6.13c-1.55,1.56-3.79,2.33-6.9,2.33H607.9Z"></path><path class="cls-3" d="M214.49,889.87H835.43M966.72,289.46v503.3"></path><path d="M1036.44,552.48c.14,7.58,2.55,13.31,7.31,17.17s11.65,5.79,20.68,5.79h2.42c5.65,0,10.27-1.52,13.92-4.41a13.92,13.92,0,0,0,5.38-11.38c0-4.69-1.52-8.34-4.55-11.1s-7-4.14-12.13-4.14a17.49,17.49,0,0,0-11.66,3.86,12.81,12.81,0,0,0-4.48,10.21c0,4.48,1.45,8,4.42,10.55-5-.42-8.9-2.07-11.72-5s-4.21-6.75-4.28-11.58v-1.17h-5.31Zm25.3.55a12.53,12.53,0,0,1,8.07-2.41c3.38,0,6.07.76,8.07,2.41a7.87,7.87,0,0,1,3.1,6.62,8.2,8.2,0,0,1-3.65,6.76c-2.49,1.86-5.73,2.76-9.72,2.76h-2.28a9.68,9.68,0,0,1-4.76-3.73,10,10,0,0,1-1.93-5.93,7.9,7.9,0,0,1,3.1-6.48Zm-5.24-46.76c-7.1.07-12.27,1.38-15.65,3.86s-5.1,6.34-5.1,11.65,1.73,9.24,5.24,11.72,8.9,3.72,16.07,3.72h8.34c6.89-.07,12.06-1.38,15.58-3.93s5.17-6.34,5.17-11.58-1.79-9.24-5.31-11.72-9-3.72-16.27-3.72Zm9.73,6.2c5.1.07,8.89.9,11.23,2.35a8.34,8.34,0,0,1-.2,13.85c-2.55,1.52-6.41,2.35-11.72,2.35h-10c-5-.07-8.69-.83-11.1-2.28s-3.59-3.79-3.59-7,1.25-5.59,3.66-7,6.2-2.28,11.51-2.28Z"></path><path d="M522,951h-33.1v5.1h26.48L495.13,1000h6.55L522,954.5Zm33.39,0h-6.62L526.8,985v3.65h22.33V1000h6.21V988.62h6.82v-5.1h-6.82Zm-7,9.86.76-1.31v24h-15.3Z"></path><path class="cls-4" d="M397.45,557.7l12-10.44M597,579.08l12.46-11.93"></path><path class="cls-1" d="M466.39,567.15c-.16-1.69-.25-3.41-.25-5.14a47.7,47.7,0,0,1,.24-5L563,557c.16,1.67.25,3.35.25,5a48,48,0,0,1-.34,5.78"></path><path class="cls-4" d="M466.39,567.15a51.42,51.42,0,0,1-.26-5.14q0-2.5.24-5L563,557a49.78,49.78,0,0,1,.26,5,48,48,0,0,1-.34,5.78"></path><path class="cls-1" d="M560.39,578.36a48.63,48.63,0,0,1-91.37.18"></path><path class="cls-4" d="M560.39,578.36a48.63,48.63,0,0,1-91.37.18"></path><path class="cls-1" d="M468.13,547.26c6-20,24.55-33.64,46.56-33.64a48.5,48.5,0,0,1,46.41,34.2"></path><path class="cls-4" d="M468.13,547.26c6-20,24.54-33.64,46.55-33.64a48.53,48.53,0,0,1,46.42,34.2"></path><polyline class="cls-1" points="609.46 624.17 609.46 567.15 383.98 567.15 383.98 579.08 596.99 579.08 596.99 623.82"></polyline><polyline class="cls-4" points="609.46 624.17 609.46 567.15 383.98 567.15 383.98 579.08 596.99 579.08 596.99 623.82"></polyline><path class="cls-1" d="M601.72,623.82a83,83,0,1,1-83.29,83,83.16,83.16,0,0,1,83.29-83"></path><path class="cls-4" d="M601.72,623.82a83,83,0,1,1-83.3,83,83.18,83.18,0,0,1,83.3-83Z"></path><path class="cls-1" d="M300.67,489.42a83,83,0,1,1-83.31,83,83.16,83.16,0,0,1,83.31-83"></path><path class="cls-4" d="M300.67,489.42a83,83,0,1,1-83.31,83,83.17,83.17,0,0,1,83.31-83Z"></path><polyline class="cls-1" points="409.44 458.41 409.44 547.26 665.95 547.26 665.95 557.7 397.45 557.7 397.45 458.41"></polyline><polyline class="cls-4" points="409.44 458.41 409.44 547.26 665.95 547.26 665.95 557.7 397.44 557.7 397.44 458.41"></polyline><path class="cls-1" d="M402.18,292.33a83,83,0,1,1-83.31,83.05,83.19,83.19,0,0,1,83.31-83.05"></path><path class="cls-4" d="M402.18,292.33a83,83,0,1,1-83.31,83.05,83.19,83.19,0,0,1,83.31-83.05Z"></path><path class="cls-1" d="M749.25,468.1a83,83,0,1,1-83.3,83,83.16,83.16,0,0,1,83.3-83"></path><path class="cls-4" d="M749.25,468.1a83,83,0,1,1-83.3,83,83.18,83.18,0,0,1,83.3-83Z"></path></svg> 