<?xml version="1.0" encoding="UTF-8"?> <svg xmlns="http://www.w3.org/2000/svg" id="Livello_1" data-name="Livello 1" viewBox="0 0 912 1000.49"><defs><style>.cls-1{fill:#fff;}.cls-2{fill:#231f20;}.cls-3,.cls-4{fill:none;stroke-width:0.25px;}.cls-3{stroke:#000;}.cls-4{stroke:#231f20;stroke-miterlimit:10;}</style></defs><title>mami asta fissa medium</title><rect class="cls-1" y="0.49" width="912" height="1000"></rect><path class="cls-2" d="M294.61.59h-1l-19.36,7v7.51l11.06-3.42V47.49h9.29ZM319.27,27.2h4.94a12.11,12.11,0,0,1,3.23.4,9.51,9.51,0,0,1,2.44,1.25A6.36,6.36,0,0,1,331.39,31a9.46,9.46,0,0,1,.53,3.23,6.93,6.93,0,0,1-.53,2.63,4.47,4.47,0,0,1-1.38,2,5.16,5.16,0,0,1-2.24,1.32,8.22,8.22,0,0,1-3,.46,7.23,7.23,0,0,1-2.7-.46,6.05,6.05,0,0,1-2.18-1.25,5.37,5.37,0,0,1-2-4.28h-9.29a12.25,12.25,0,0,0,1.38,6,12.51,12.51,0,0,0,3.62,4.21,16.09,16.09,0,0,0,5.08,2.51,22.31,22.31,0,0,0,5.86.79,23.46,23.46,0,0,0,6.58-.92,15.3,15.3,0,0,0,5.27-2.71A12.11,12.11,0,0,0,340,40.24a13.74,13.74,0,0,0,1.26-5.86,11,11,0,0,0-7.84-10.93,16,16,0,0,0,3-1.91,16.12,16.12,0,0,0,2.24-2.37A12.82,12.82,0,0,0,340,16.33a11.62,11.62,0,0,0,.46-3,13.66,13.66,0,0,0-1.18-5.8,11.89,11.89,0,0,0-3.23-4.15,15.1,15.1,0,0,0-5-2.56A24.48,24.48,0,0,0,324.61,0a19.84,19.84,0,0,0-6,.92,16.37,16.37,0,0,0-4.87,2.57,13,13,0,0,0-3.29,4,11.69,11.69,0,0,0-1.19,5.27h9.29a4.84,4.84,0,0,1,.53-2.18A4.67,4.67,0,0,1,320.39,9a5.59,5.59,0,0,1,2-1.06,7,7,0,0,1,2.38-.39,7.27,7.27,0,0,1,2.83.46,4.94,4.94,0,0,1,2,1.25,4.67,4.67,0,0,1,1.19,1.91,7,7,0,0,1,.39,2.37,6.49,6.49,0,0,1-1.71,4.68A7.1,7.1,0,0,1,324.21,20h-4.94ZM379.11,20a30.5,30.5,0,0,0-1.19-9.09,16.08,16.08,0,0,0-3.23-6.19,12.05,12.05,0,0,0-5-3.55,18.1,18.1,0,0,0-12.91,0,11.87,11.87,0,0,0-4.94,3.55,16.36,16.36,0,0,0-3.23,6.19A30.53,30.53,0,0,0,347.43,20v8.1a30.29,30.29,0,0,0,1.18,9,17.6,17.6,0,0,0,3.23,6.26,12.05,12.05,0,0,0,5,3.55,17.12,17.12,0,0,0,6.46,1.19A16.81,16.81,0,0,0,369.75,47a12.09,12.09,0,0,0,5-3.55A17.6,17.6,0,0,0,378,37.15a32.92,32.92,0,0,0,1.12-9Zm-9.29,9.36a24.1,24.1,0,0,1-.46,5.27,10.4,10.4,0,0,1-1.25,3.49,4.77,4.77,0,0,1-2,1.91,6.8,6.8,0,0,1-5.54,0,4.77,4.77,0,0,1-2-1.91,10.35,10.35,0,0,1-1.32-3.49,30.11,30.11,0,0,1-.39-5.27V18.64a29.18,29.18,0,0,1,.39-5.2A9.94,9.94,0,0,1,358.43,10a5.67,5.67,0,0,1,2-1.91,6.54,6.54,0,0,1,2.76-.53A6.18,6.18,0,0,1,366,8.1,5.41,5.41,0,0,1,368.11,10a10,10,0,0,1,1.25,3.43,23.36,23.36,0,0,1,.46,5.2ZM417.21.66H384.14V8.17h23.25L389.28,47.49h9.81L417.21,5.86ZM441.6,23.71H423.49v7.44H441.6ZM480.77,40H460.61l8.24-8.69c1.58-1.65,3-3.17,4.28-4.68a32.31,32.31,0,0,0,3.29-4.41,21.3,21.3,0,0,0,2-4.35,13.12,13.12,0,0,0,.79-4.55,15.31,15.31,0,0,0-1-5.59,11,11,0,0,0-3-4.15A13.21,13.21,0,0,0,470.56.92,22.17,22.17,0,0,0,464,0a17.39,17.39,0,0,0-6.78,1.25,15,15,0,0,0-5.07,3.29,14.53,14.53,0,0,0-3.3,4.88,16.76,16.76,0,0,0-1.12,6h9.36a9.38,9.38,0,0,1,.46-3.16,7.25,7.25,0,0,1,1.25-2.5,6,6,0,0,1,2.17-1.65,6.58,6.58,0,0,1,2.9-.59,5.69,5.69,0,0,1,4.48,1.78,7.18,7.18,0,0,1,1.58,4.94,6.12,6.12,0,0,1-.33,2.1,11.64,11.64,0,0,1-1,2.38,19.85,19.85,0,0,1-1.91,2.83,38,38,0,0,1-2.9,3.42L448.63,41.1v6.39h32.14ZM515.84,7.51a10.2,10.2,0,0,0-3.1-4.09A13.47,13.47,0,0,0,508.06.86,20.57,20.57,0,0,0,502.14,0a21.52,21.52,0,0,0-6,.86,14,14,0,0,0-4.67,2.56,11.41,11.41,0,0,0-3.1,4.09,13.55,13.55,0,0,0-1.05,5.6A11,11,0,0,0,489,19.17a12,12,0,0,0,4.68,4.21,13.26,13.26,0,0,0-5.34,4.48,11.36,11.36,0,0,0-2,6.79,12.72,12.72,0,0,0,1.25,5.86,12.18,12.18,0,0,0,3.3,4.21,15.24,15.24,0,0,0,5.07,2.57,23.43,23.43,0,0,0,12.58,0,15.63,15.63,0,0,0,5-2.57,12.27,12.27,0,0,0,3.29-4.21,13.53,13.53,0,0,0,1.18-5.86,11.9,11.9,0,0,0-2-6.79,13.93,13.93,0,0,0-5.4-4.48,12.06,12.06,0,0,0,4.67-4.21A11.07,11.07,0,0,0,517,13.11a13.54,13.54,0,0,0-1.12-5.6Zm-9,31.35a6.19,6.19,0,0,1-4.74,1.78,7,7,0,0,1-2.7-.46,5.6,5.6,0,0,1-3.36-3.43,7.14,7.14,0,0,1-.46-2.76,7.77,7.77,0,0,1,.46-2.84,5.36,5.36,0,0,1,1.31-2.1,5.45,5.45,0,0,1,2.05-1.32,6.67,6.67,0,0,1,2.63-.46,7,7,0,0,1,2.7.46,5.34,5.34,0,0,1,2,1.32,6.18,6.18,0,0,1,1.32,2.1,7.77,7.77,0,0,1,.46,2.84,6.61,6.61,0,0,1-1.71,4.87Zm-.66-20.81a5.73,5.73,0,0,1-8.17,0,6.55,6.55,0,0,1-1.45-4.48,6.43,6.43,0,0,1,1.45-4.48,5.29,5.29,0,0,1,4.09-1.58,5.17,5.17,0,0,1,4.08,1.65,6.68,6.68,0,0,1,1.45,4.41,6.92,6.92,0,0,1-1.45,4.48Z"></path><path class="cls-2" d="M280.64,100.45v34.77h3.89V111.38a17.54,17.54,0,0,1,1.25-3.09,13.28,13.28,0,0,1,2-2.64,11.37,11.37,0,0,1,3-1.84,9.7,9.7,0,0,1,3.82-.66,11.7,11.7,0,0,1,3.49.46,6.44,6.44,0,0,1,2.64,1.45,6.52,6.52,0,0,1,1.78,2.83,14,14,0,0,1,.59,4.35v23H307v-23a9.16,9.16,0,0,1,.79-3.09,12.07,12.07,0,0,1,2-2.9,11.35,11.35,0,0,1,3.16-2.18,9.53,9.53,0,0,1,4.22-.85,13.69,13.69,0,0,1,3.42.39,5.82,5.82,0,0,1,2.71,1.52A6.91,6.91,0,0,1,325,108a14.42,14.42,0,0,1,.6,4.54v22.72h3.82V112.57a18.74,18.74,0,0,0-.73-5.8,9.47,9.47,0,0,0-2.24-4,8.3,8.3,0,0,0-3.62-2.31,15.39,15.39,0,0,0-4.81-.72,14.49,14.49,0,0,0-3.88.53,13.13,13.13,0,0,0-3.3,1.38,12.26,12.26,0,0,0-2.7,2.17,14.87,14.87,0,0,0-2,2.64,9.19,9.19,0,0,0-3.89-5.14,13,13,0,0,0-6.59-1.58,12.15,12.15,0,0,0-3.55.46,11.51,11.51,0,0,0-3.1,1.25,9.69,9.69,0,0,0-2.57,2,13.21,13.21,0,0,0-2,2.63l-.13-5.66Zm76.21,34.91a11.45,11.45,0,0,0,3.43-1.32,11.32,11.32,0,0,0,2.63-1.91,17.8,17.8,0,0,0,2-2.44l-2.44-1.78a11.31,11.31,0,0,1-4.28,3.56,12.14,12.14,0,0,1-5.47,1.12,11,11,0,0,1-4.87-1.05,11.9,11.9,0,0,1-3.76-3,13.23,13.23,0,0,1-2.43-4.35,16.09,16.09,0,0,1-.86-5.4v-.72h24.83v-2.37a22.12,22.12,0,0,0-.92-6.39,14.16,14.16,0,0,0-2.64-5.07,12.56,12.56,0,0,0-4.34-3.3,13.76,13.76,0,0,0-5.87-1.18,12.88,12.88,0,0,0-5.66,1.25,15.4,15.4,0,0,0-4.74,3.56,16.51,16.51,0,0,0-3.3,5.53,21.27,21.27,0,0,0-1.18,7.31v1.38a19.13,19.13,0,0,0,1.18,6.85,15.4,15.4,0,0,0,3.23,5.4,13.8,13.8,0,0,0,4.94,3.5,15.08,15.08,0,0,0,6.26,1.31,16.33,16.33,0,0,0,4.21-.52ZM356.2,104a10.48,10.48,0,0,1,3.09,2.51,11.8,11.8,0,0,1,1.85,3.62,15.53,15.53,0,0,1,.72,4.28v.4H341a18,18,0,0,1,1.25-4.81,12.34,12.34,0,0,1,2.31-3.69,11.87,11.87,0,0,1,3.29-2.44,10.63,10.63,0,0,1,4.08-.79,9.85,9.85,0,0,1,4.29.92Zm15.44,14.17a24.52,24.52,0,0,0,.92,7.17,17.7,17.7,0,0,0,2.64,5.6,13,13,0,0,0,4.21,3.63,12.19,12.19,0,0,0,5.6,1.31,14,14,0,0,0,6.46-1.38,13.19,13.19,0,0,0,4.41-3.89l.13,4.61h3.62V85.83h-3.82v19.49a13,13,0,0,0-4.41-4.08,12.8,12.8,0,0,0-6.32-1.45,11.84,11.84,0,0,0-5.6,1.25,12.36,12.36,0,0,0-4.28,3.56,17.7,17.7,0,0,0-2.64,5.6,25.18,25.18,0,0,0-.92,7.31Zm3.89-.66a25.5,25.5,0,0,1,.59-5.67A14.34,14.34,0,0,1,378,107.3a8.83,8.83,0,0,1,3.23-3,8.55,8.55,0,0,1,4.61-1.12,12.73,12.73,0,0,1,3.69.52,10.67,10.67,0,0,1,2.83,1.52,8.83,8.83,0,0,1,2,2.17,13.7,13.7,0,0,1,1.45,2.57v16.34a14.53,14.53,0,0,1-1.58,2.5,8.57,8.57,0,0,1-2.1,2,10.25,10.25,0,0,1-2.84,1.31,12.48,12.48,0,0,1-3.55.46,9,9,0,0,1-7.78-4.15,14.34,14.34,0,0,1-1.84-4.54,25,25,0,0,1-.59-5.66Zm38.56-17.06H410.2v34.77h3.89Zm-3.89-8.24a2.77,2.77,0,0,0,2,.73,2.6,2.6,0,0,0,1.91-.73,2.4,2.4,0,0,0,.72-1.84,2.32,2.32,0,0,0-.72-1.84,2.42,2.42,0,0,0-1.91-.79,2.58,2.58,0,0,0-2,.79,2.54,2.54,0,0,0-.66,1.84,2.64,2.64,0,0,0,.66,1.84Zm36.74,43h3.76V100.45h-3.89v25.16a13,13,0,0,1-1.32,2.76,7.18,7.18,0,0,1-2.11,2.18,8.92,8.92,0,0,1-3.09,1.45,14.64,14.64,0,0,1-4.09.52,9.77,9.77,0,0,1-3.09-.46,6.34,6.34,0,0,1-2.57-1.64,8.13,8.13,0,0,1-1.71-3,15.47,15.47,0,0,1-.66-4.67V100.45h-3.82v22.26a18,18,0,0,0,.86,6.06,10.5,10.5,0,0,0,2.3,4.08,9.48,9.48,0,0,0,3.62,2.31,16.42,16.42,0,0,0,11.4-.66,11.3,11.3,0,0,0,4.35-3.69Zm13.47-34.77v34.77h3.88V111.38a17.58,17.58,0,0,1,1.26-3.09,13.28,13.28,0,0,1,2-2.64,11.21,11.21,0,0,1,3-1.84,9.67,9.67,0,0,1,3.82-.66,11.74,11.74,0,0,1,3.49.46,6.44,6.44,0,0,1,2.64,1.45,6.52,6.52,0,0,1,1.78,2.83,14,14,0,0,1,.59,4.35v23h3.88v-23a9.4,9.4,0,0,1,.79-3.09,12.4,12.4,0,0,1,2-2.9,11.35,11.35,0,0,1,3.16-2.18,9.53,9.53,0,0,1,4.22-.85,13.74,13.74,0,0,1,3.42.39,5.74,5.74,0,0,1,2.7,1.52,6.93,6.93,0,0,1,1.78,2.9,14.45,14.45,0,0,1,.59,4.54v22.72h3.82V112.57a18.76,18.76,0,0,0-.72-5.8,9.58,9.58,0,0,0-2.24-4,8.3,8.3,0,0,0-3.62-2.31,15.44,15.44,0,0,0-4.81-.72,14.62,14.62,0,0,0-3.89.53,13.21,13.21,0,0,0-3.29,1.38,12.26,12.26,0,0,0-2.7,2.17,14.92,14.92,0,0,0-2,2.64,9.17,9.17,0,0,0-3.88-5.14,13.07,13.07,0,0,0-6.59-1.58,12.27,12.27,0,0,0-3.56.46,11.44,11.44,0,0,0-3.09,1.25,9.53,9.53,0,0,0-2.57,2,13.21,13.21,0,0,0-2,2.63l-.13-5.66Z"></path><path class="cls-3" d="M140.18,920.41H562.59M769.31,226.6V865"></path><path d="M822.36,571.38v.74l5.11,13.63h4.31l-3.53-9.58h31.68v-4.79Zm0-29.58v.73l5.11,13.63h4.31l-3.53-9.57h31.68V541.8Zm15.47-37.42c-5.42.05-9.36,1.05-11.94,2.94s-3.9,4.84-3.9,8.89,1.32,7,4,8.95,6.79,2.84,12.26,2.84h6.37c5.26,0,9.2-1,11.89-3s3.94-4.84,3.94-8.84-1.36-7-4.05-8.94-6.84-2.84-12.41-2.84Zm7.42,4.73c3.89.05,6.79.68,8.57,1.79a6.37,6.37,0,0,1-.15,10.57c-1.95,1.16-4.9,1.79-8.95,1.79h-7.63c-3.78,0-6.63-.63-8.47-1.73a6.55,6.55,0,0,1,.06-10.68c1.84-1.16,4.73-1.74,8.78-1.74Z"></path><path class="cls-1" d="M482.16,247H338.06c-4.35-3.87,0-6.72,0-6.72h144.1s5.85,2.68,0,6.72m-15.05-6.72H352.93V222.58H467.11ZM417,361.24H403.09V247H417Zm-2,137.89v46.32H405.6V361.23H415V491m1,6.42h55.5V489.3H416.13s-11.2,3.2-.17,8.08m-11,212.77V631.5h10V782.08h-10V719.56m-.67,0H233.41v-9.41H404.09s8.53,4,.17,9.41m74.56-198.32h-7.36V464.77h7.36ZM435.7,556.5H381.86V545.44H435.7ZM280.89,710.15H222.05v-9.6h58.84ZM415,744.73a25.22,25.22,0,1,1-9.56.12m-60-34.23a85.9,85.9,0,0,1,63.32-27.78c47.71,0,86.39,38.87,86.39,86.85s-38.68,86.85-86.39,86.85-86.37-38.9-86.37-86.85a86.7,86.7,0,0,1,16.31-50.8m71.82-162.38c45.87,0,83,16.78,83,37.49s-37.18,37.5-83,37.5-83-16.79-83-37.5,37.17-37.49,83-37.49m-155.77,62c62,0,112.33,18.36,112.33,41s-50.3,41-112.33,41-112.34-18.36-112.34-41,50.29-41,112.34-41M560.39,495.69c0,62.38-18.26,112.94-40.79,112.94s-40.78-50.56-40.78-112.94,18.26-112.95,40.78-112.95,40.79,50.57,40.79,113"></path><path class="cls-4" d="M482.16,247H338.06c-4.35-3.87,0-6.72,0-6.72h144.1s5.85,2.68,0,6.72Z"></path><rect class="cls-4" x="352.93" y="222.58" width="114.18" height="17.64"></rect><rect class="cls-4" x="403.09" y="246.95" width="13.87" height="114.29"></rect><polyline class="cls-4" points="414.95 499.13 414.95 545.45 405.6 545.45 405.6 361.23 414.95 361.23 414.95 490.96"></polyline><path class="cls-4" d="M416,497.38h55.5V489.3H416.13s-11.2,3.2-.17,8.08Z"></path><polyline class="cls-4" points="404.93 710.15 404.93 631.5 414.95 631.5 414.95 782.09 404.93 782.09 404.93 719.57"></polyline><path class="cls-4" d="M404.26,719.56H233.41v-9.41H404.09s8.53,4,.17,9.41Z"></path><rect class="cls-4" x="471.46" y="464.77" width="7.35" height="56.47"></rect><rect class="cls-4" x="381.86" y="545.44" width="53.84" height="11.06"></rect><rect class="cls-4" x="222.05" y="700.55" width="58.84" height="9.6"></rect><path class="cls-4" d="M415,744.73a25.22,25.22,0,1,1-9.56.12"></path><path class="cls-4" d="M345.4,710.62a85.9,85.9,0,0,1,63.32-27.78c47.71,0,86.39,38.87,86.39,86.85s-38.68,86.85-86.39,86.85-86.37-38.9-86.37-86.85a86.7,86.7,0,0,1,16.31-50.8"></path><path class="cls-4" d="M410.48,556.51c45.87,0,83,16.78,83,37.49s-37.18,37.5-83,37.5-83-16.79-83-37.5,37.17-37.49,83-37.49Z"></path><path class="cls-4" d="M254.71,618.54c62,0,112.33,18.36,112.33,41s-50.3,41-112.33,41-112.34-18.36-112.34-41,50.29-41,112.34-41Z"></path><path class="cls-4" d="M560.39,495.69c0,62.38-18.26,112.94-40.79,112.94s-40.78-50.56-40.78-112.94,18.26-112.95,40.78-112.95,40.79,50.57,40.79,113Z"></path><path d="M342,962.07c-5.78.1-10.15,1.94-13.1,5.57s-4.42,8.9-4.42,15.79v1.84a16.59,16.59,0,0,0,3.37,10.63,10.65,10.65,0,0,0,8.68,4.1,10.84,10.84,0,0,0,8.47-3.47c2.11-2.32,3.16-5.37,3.16-9.26a13.3,13.3,0,0,0-2.95-8.89,9.71,9.71,0,0,0-7.78-3.42,10,10,0,0,0-8,3.36,13.47,13.47,0,0,1,3.79-8.94,12.57,12.57,0,0,1,8.83-3.26h.9v-4Zm-.42,19.31a9.47,9.47,0,0,1,1.85,6.15,9.32,9.32,0,0,1-1.85,6.16,6,6,0,0,1-5.05,2.36,6.22,6.22,0,0,1-5.15-2.78,12.07,12.07,0,0,1-2.11-7.42v-1.74a7.45,7.45,0,0,1,2.84-3.63,7.63,7.63,0,0,1,4.53-1.47,6,6,0,0,1,4.94,2.37Zm18.22.31,1.27-1a7.84,7.84,0,0,1,4.89-1.37,6.88,6.88,0,0,1,5.42,2.27,8.66,8.66,0,0,1,2,6,9.39,9.39,0,0,1-1.89,6.2,6.38,6.38,0,0,1-5.21,2.27,7.11,7.11,0,0,1-4.9-1.63,7.56,7.56,0,0,1-2.26-4.84h-4.52a11,11,0,0,0,3.58,7.62,11.75,11.75,0,0,0,8.1,2.74c3.73,0,6.63-1.1,8.73-3.31s3.11-5.27,3.11-9.11-1-6.89-3-9.15a10.32,10.32,0,0,0-8.11-3.37,11.88,11.88,0,0,0-6.26,1.63l1.11-10.2h15.15v-4.42H357.94l-1.89,18.67Z"></path></svg> 