<?xml version="1.0" encoding="UTF-8"?> <svg xmlns="http://www.w3.org/2000/svg" id="Livello_1" data-name="Livello 1" viewBox="0 0 808 1000.49"><defs><style>.cls-1{fill:#fff;}.cls-2,.cls-3,.cls-4{fill:none;}.cls-2,.cls-3{stroke:#000;}.cls-2,.cls-4{stroke-width:0.25px;}.cls-3{stroke-width:0.5px;}.cls-4{stroke:#231f20;stroke-miterlimit:10;}.cls-5{fill:#231f20;}</style></defs><title>Mami terra</title><rect class="cls-1" y="0.49" width="808" height="1000"></rect><line class="cls-2" x1="176.49" y1="416.29" x2="358.43" y2="416.29"></line><line class="cls-3" x1="214.47" y1="960.93" x2="327.71" y2="960.93"></line><line class="cls-2" x1="401.02" y1="447.73" x2="401.02" y2="937.08"></line><path d="M424.7,679.49v.33L427,685.9h1.93l-1.58-4.27h14.14v-2.14Zm8.83-8.91-.44-.56a3.52,3.52,0,0,1-.61-2.19,3.06,3.06,0,0,1,1-2.42,3.87,3.87,0,0,1,2.7-.91,4.22,4.22,0,0,1,2.77.84,2.86,2.86,0,0,1,1,2.33,3.14,3.14,0,0,1-.73,2.18,3.31,3.31,0,0,1-2.16,1v2a4.94,4.94,0,0,0,3.41-1.59,5.29,5.29,0,0,0,1.22-3.62,5.14,5.14,0,0,0-1.48-3.9,5.76,5.76,0,0,0-4.07-1.39,6,6,0,0,0-4.08,1.34,4.62,4.62,0,0,0-1.51,3.62,5.34,5.34,0,0,0,.73,2.8l-4.56-.5v-6.76h-2v8.55l8.34.84Zm-1.92-21a9.16,9.16,0,0,0-5.33,1.31,4.58,4.58,0,0,0-1.74,4,4.53,4.53,0,0,0,1.78,4,9.52,9.52,0,0,0,5.47,1.27h2.85a9.12,9.12,0,0,0,5.31-1.34,4.53,4.53,0,0,0,1.76-3.94,4.58,4.58,0,0,0-1.81-4,9.8,9.8,0,0,0-5.54-1.26Zm3.31,2.11a7.76,7.76,0,0,1,3.83.8,2.85,2.85,0,0,1-.07,4.72,7.94,7.94,0,0,1-4,.8h-3.4a7.65,7.65,0,0,1-3.78-.78,2.54,2.54,0,0,1-1.22-2.37,2.58,2.58,0,0,1,1.24-2.39,7.51,7.51,0,0,1,3.92-.78Z"></path><path d="M260.42,388.5l.57-.44a3.49,3.49,0,0,1,2.18-.61,3,3,0,0,1,2.42,1,3.88,3.88,0,0,1,.92,2.7,4.17,4.17,0,0,1-.85,2.77,2.84,2.84,0,0,1-2.32,1,3.18,3.18,0,0,1-2.19-.73,3.36,3.36,0,0,1-1-2.16h-2a4.94,4.94,0,0,0,1.6,3.41,5.29,5.29,0,0,0,3.62,1.22,5.14,5.14,0,0,0,3.9-1.48,5.8,5.8,0,0,0,1.38-4.07,5.9,5.9,0,0,0-1.34-4.08,4.59,4.59,0,0,0-3.61-1.51,5.32,5.32,0,0,0-2.8.73l.49-4.56h6.77v-2h-8.55l-.85,8.34Zm21.48,6.2h-8.38l4.46-4.86c2.11-2.25,3.15-4.23,3.15-5.87a4.2,4.2,0,0,0-1.34-3.24,5.32,5.32,0,0,0-3.69-1.22,5.43,5.43,0,0,0-4,1.43,4.82,4.82,0,0,0-1.5,3.71h2.13a3.5,3.5,0,0,1,.87-2.51,3.34,3.34,0,0,1,2.47-.89,2.79,2.79,0,0,1,2.11.84,3,3,0,0,1,.78,2.14,4.12,4.12,0,0,1-.47,1.88,13.1,13.1,0,0,1-1.79,2.37L271,394.92v1.52H281.9Z"></path><path d="M247.17,997.67,246,1000h1.43l.85-1.71a6,6,0,0,0,2.18.39,5.59,5.59,0,0,0,2.94-.77,5.48,5.48,0,0,0,2-2.26,7.36,7.36,0,0,0,.71-3.26,6.56,6.56,0,0,0-2.23-5.45l1.17-2.35h-1.43l-.82,1.72a5.63,5.63,0,0,0-2.35-.5,5.3,5.3,0,0,0-4.94,3.06,7.3,7.3,0,0,0-.7,3.26c0,2.56.8,4.39,2.35,5.54Zm.75-8.87a3,3,0,0,1,2.54-1.25,3.09,3.09,0,0,1,1.52.38l-3.92,8a5.14,5.14,0,0,1-1.1-3.5,5.7,5.7,0,0,1,1-3.59Zm6.06,3.52a5.44,5.44,0,0,1-.94,3.38,3.14,3.14,0,0,1-2.56,1.25,3.32,3.32,0,0,1-1.39-.29l3.9-7.89a5.35,5.35,0,0,1,1,3.36Zm7.57-1.5h1.6a4,4,0,0,1,2.58.79,2.77,2.77,0,0,1,.89,2.24,3.08,3.08,0,0,1-.79,2.3,3.28,3.28,0,0,1-2.38.8,3.24,3.24,0,0,1-2.3-.8,2.72,2.72,0,0,1-.84-2.09h-2.14a4.22,4.22,0,0,0,1.48,3.36,5.6,5.6,0,0,0,3.8,1.26,5.55,5.55,0,0,0,3.83-1.31,4.55,4.55,0,0,0,1.48-3.57,4.13,4.13,0,0,0-.75-2.47,4.26,4.26,0,0,0-2.14-1.43,4.33,4.33,0,0,0,1.93-1.53,3.65,3.65,0,0,0,.7-2.11,4.54,4.54,0,0,0-1.34-3.5,6,6,0,0,0-7.39.07,4.24,4.24,0,0,0-1.46,3.29h2.14a2.72,2.72,0,0,1,.8-2.07,3,3,0,0,1,2.2-.8,2.61,2.61,0,0,1,2.94,2.94,2.71,2.71,0,0,1-.87,2.09,3.58,3.58,0,0,1-2.37.8h-1.6Zm12.81-.31.56-.45a3.59,3.59,0,0,1,2.19-.61,3.08,3.08,0,0,1,2.42,1,3.89,3.89,0,0,1,.91,2.7,4.23,4.23,0,0,1-.84,2.78,2.86,2.86,0,0,1-2.33,1,3.16,3.16,0,0,1-2.18-.73,3.36,3.36,0,0,1-1-2.16h-2a5,5,0,0,0,1.59,3.4,5.24,5.24,0,0,0,3.62,1.22,5.1,5.1,0,0,0,3.9-1.48,5.71,5.71,0,0,0,1.39-4.06,6,6,0,0,0-1.34-4.09,4.6,4.6,0,0,0-3.62-1.5,5.28,5.28,0,0,0-2.79.73l.49-4.56h6.76v-2h-8.55l-.84,8.34Z"></path><path class="cls-1" d="M228.66,478.05a15.5,15.5,0,0,0-3.92,2.61,6.93,6.93,0,0,0-2,5.93l.1.7a9.48,9.48,0,0,0,4.12,4.83l1.26.83c2.9,1.28,7.56,2.36,15,2.7,21.44,1,61,2.53,100.95-13.72a7,7,0,0,1,.77-.27,26.65,26.65,0,0,0,9.1-4.57,9.59,9.59,0,0,0,3.45-5.34V471a6.77,6.77,0,0,0-2.62-5.48,14.9,14.9,0,0,0-4.39-2.18,29.22,29.22,0,0,0-7.88-1.28c-42.8-6.27-81.05,4.87-101.7,11a51.59,51.59,0,0,0-12.09,5M273,464.05l29.63-3.9m-12.62,1.58v-3.42h-5.93v4.28m5-4.28V455.8l-3.63.42v2.09m-108,5.41,119.27-14.88v6L177.47,469.52Zm10,4.57,39.78,328.15h5.55L193.16,467.59m55.85,456-15-126.89h-8.22L241.5,923.15"></path><path class="cls-4" d="M228.66,478.05a15.5,15.5,0,0,0-3.92,2.61,6.93,6.93,0,0,0-2,5.93l.1.7a9.48,9.48,0,0,0,4.12,4.83l1.26.83c2.9,1.28,7.56,2.36,15,2.7,21.44,1,61,2.53,100.95-13.72a6.36,6.36,0,0,1,.77-.27,26.65,26.65,0,0,0,9.1-4.57,9.64,9.64,0,0,0,3.45-5.34V471a6.8,6.8,0,0,0-2.62-5.48,15,15,0,0,0-4.4-2.18,29.12,29.12,0,0,0-7.87-1.28c-42.8-6.27-81.05,4.87-101.7,11a51.59,51.59,0,0,0-12.09,5M273,464.05l29.63-3.9m-12.62,1.58v-3.42h-5.93v4.28m5-4.28V455.8l-3.63.42v2.09m-108,5.41,119.27-14.88v6L177.47,469.52v-5.8Zm10,4.57,39.78,328.15h5.55L193.16,467.59m55.85,456-15-126.89h-8.22L241.5,923.15"></path><polyline class="cls-1" points="237.44 924.16 237.44 936.1 335.59 936.1 335.59 927.79"></polyline><path class="cls-4" d="M237.44,924.16V936.1h98.15v-8.31M234.92,923.9l104.21,3.83"></path><path class="cls-5" d="M252.14.26h-.44l-8.65,3.12V6.73L248,5.2v16h4.15Zm11,11.88h2.2a5.41,5.41,0,0,1,1.44.18,4,4,0,0,1,1.09.56,2.83,2.83,0,0,1,.68,1,4.14,4.14,0,0,1,.23,1.44,3.1,3.1,0,0,1-.23,1.18,2,2,0,0,1-.62.88,2.32,2.32,0,0,1-1,.59,3.82,3.82,0,0,1-1.32.2,3.42,3.42,0,0,1-1.21-.2,2.81,2.81,0,0,1-1-.56,2.53,2.53,0,0,1-.64-.82,2.56,2.56,0,0,1-.24-1.09h-4.15a5.43,5.43,0,0,0,.62,2.67A5.5,5.5,0,0,0,260.65,20a7,7,0,0,0,2.26,1.11,9.74,9.74,0,0,0,2.62.36,10.24,10.24,0,0,0,2.94-.42,6.7,6.7,0,0,0,2.35-1.2A5.5,5.5,0,0,0,272.38,18a6.29,6.29,0,0,0,.56-2.62,4.88,4.88,0,0,0-3.5-4.88,7.36,7.36,0,0,0,1.35-.85,6.63,6.63,0,0,0,1-1.06,5.52,5.52,0,0,0,.62-1.27A5,5,0,0,0,272.62,6a6.15,6.15,0,0,0-.53-2.59,5.47,5.47,0,0,0-1.44-1.85A6.88,6.88,0,0,0,268.41.38,11.21,11.21,0,0,0,265.53,0a9,9,0,0,0-2.68.41,7.48,7.48,0,0,0-2.17,1.15,5.78,5.78,0,0,0-1.47,1.79,5.13,5.13,0,0,0-.53,2.35h4.14a2.23,2.23,0,0,1,.83-1.7,2.39,2.39,0,0,1,.91-.47,3,3,0,0,1,1.06-.18,3.17,3.17,0,0,1,1.26.21,2.15,2.15,0,0,1,.88.56,2,2,0,0,1,.53.85A3,3,0,0,1,268.47,6a2.9,2.9,0,0,1-.76,2.09,3.17,3.17,0,0,1-2.36.79h-2.2Zm26.71-3.2a13.7,13.7,0,0,0-.53-4.06,7.08,7.08,0,0,0-1.44-2.76A5.35,5.35,0,0,0,285.66.53a8.12,8.12,0,0,0-5.77,0,5.2,5.2,0,0,0-2.2,1.59,7.08,7.08,0,0,0-1.44,2.76,13.38,13.38,0,0,0-.53,4.06v3.62a13.23,13.23,0,0,0,.53,4,7.78,7.78,0,0,0,1.44,2.8A5.46,5.46,0,0,0,279.92,21a8.12,8.12,0,0,0,5.77,0,5.53,5.53,0,0,0,2.23-1.59,7.78,7.78,0,0,0,1.44-2.8,14.7,14.7,0,0,0,.5-4Zm-4.15,4.17a10.64,10.64,0,0,1-.2,2.36A4.64,4.64,0,0,1,285,17a2.17,2.17,0,0,1-.91.85,2.7,2.7,0,0,1-1.24.26,2.65,2.65,0,0,1-1.23-.26,2.11,2.11,0,0,1-.91-.85,4.62,4.62,0,0,1-.59-1.56,13,13,0,0,1-.18-2.36V8.32A12.63,12.63,0,0,1,280.07,6a4.3,4.3,0,0,1,.56-1.53,2.44,2.44,0,0,1,.91-.85,2.82,2.82,0,0,1,1.23-.24,2.7,2.7,0,0,1,1.24.24,2.31,2.31,0,0,1,.94.85A4.3,4.3,0,0,1,285.51,6a10.32,10.32,0,0,1,.2,2.32ZM306.87.29H292.11V3.65h10.38L294.4,21.2h4.38l8.09-18.58Zm10.89,10.3h-8.08v3.32h8.08ZM331,.26h-.44L321.9,3.38V6.73l4.94-1.53v16H331Zm20.86,8.68a13.72,13.72,0,0,0-.52-4.06,7.23,7.23,0,0,0-1.45-2.76A5.28,5.28,0,0,0,347.64.53,7.54,7.54,0,0,0,344.76,0a7.65,7.65,0,0,0-2.88.53,5.22,5.22,0,0,0-2.21,1.59,7.08,7.08,0,0,0-1.44,2.76,13.7,13.7,0,0,0-.53,4.06v3.62a13.55,13.55,0,0,0,.53,4,7.78,7.78,0,0,0,1.44,2.8A5.49,5.49,0,0,0,341.91,21a7.65,7.65,0,0,0,2.88.53,7.54,7.54,0,0,0,2.88-.53,5.46,5.46,0,0,0,2.23-1.59,7.78,7.78,0,0,0,1.44-2.8,14.32,14.32,0,0,0,.5-4Zm-4.14,4.17a10.58,10.58,0,0,1-.21,2.36,4.64,4.64,0,0,1-.56,1.56,2.06,2.06,0,0,1-.91.85,2.65,2.65,0,0,1-1.23.26,2.72,2.72,0,0,1-1.24-.26,2.17,2.17,0,0,1-.91-.85,4.85,4.85,0,0,1-.59-1.56,13.13,13.13,0,0,1-.17-2.36V8.32A12.73,12.73,0,0,1,342.05,6a4.51,4.51,0,0,1,.56-1.53,2.52,2.52,0,0,1,.91-.85,2.89,2.89,0,0,1,1.24-.24,2.65,2.65,0,0,1,1.23.24,2.25,2.25,0,0,1,.94.85A4.3,4.3,0,0,1,347.49,6a10.26,10.26,0,0,1,.21,2.32Z"></path></svg> 