<?xml version="1.0" encoding="UTF-8"?> <svg xmlns="http://www.w3.org/2000/svg" id="Livello_1" data-name="Livello 1" viewBox="0 0 1368 1000.49"><defs><style>.cls-1{fill:#fff;}.cls-2,.cls-7,.cls-8,.cls-9{fill:none;stroke-width:0.25px;}.cls-2,.cls-9{stroke:#000;}.cls-3{font-size:75.84px;font-family:Roboto-Regular, Roboto;}.cls-4,.cls-5{font-size:94.81px;fill:#231f20;}.cls-4{font-family:Roboto-Bold, Roboto;font-weight:700;}.cls-5{font-family:Roboto-Light, Roboto;font-weight:300;}.cls-6{letter-spacing:-0.01em;}.cls-7,.cls-8{stroke:#231f20;}.cls-8,.cls-9{stroke-miterlimit:10;}</style></defs><title>mami ceiling large</title><rect class="cls-1" y="0.49" width="1368" height="1000"></rect><line class="cls-2" x1="125.53" y1="767.22" x2="1013.09" y2="767.22"></line><line class="cls-2" x1="1130.24" y1="368.75" x2="1130.24" y2="671.37"></line><text class="cls-3" transform="translate(1260.8 562.76) rotate(-90)">30</text><text class="cls-3" transform="translate(505.26 888.31)">125</text><text class="cls-4" transform="translate(376.13 81.1)">1307-42</text><text class="cls-5" transform="translate(457.18 207.48)">la<tspan class="cls-6" x="72.49" y="0">r</tspan><tspan x="104" y="0">ge</tspan></text><path class="cls-1" d="M583.07,487h0a556.52,556.52,0,0,0-69.18,4l-25.9,71c26.29,4.94,58.63,7.89,93.63,8"></path><path class="cls-7" d="M583.07,487h0a556.52,556.52,0,0,0-69.18,4l-25.9,71c26.29,4.94,58.63,7.89,93.63,8"></path><polygon class="cls-1" points="583.3 621.22 569.8 573.77 581.53 573.77 583.3 621.22"></polygon><polygon class="cls-7" points="583.3 621.22 569.8 573.77 581.53 573.77 583.3 621.22"></polygon><path class="cls-1" d="M691.56,559.25a181,181,0,0,0,25.72-7.77l7.35-42.55c-12.52-6.18-29.32-11-51.69-14.87"></path><path class="cls-7" d="M691.56,559.25a181,181,0,0,0,25.72-7.77l7.35-42.55c-12.52-6.18-29.32-11-51.69-14.87"></path><path class="cls-1" d="M593.4,570c33-.53,63.22-3.62,87.87-8.48l-22.2-69.57a529.21,529.21,0,0,0-62.75-4.75"></path><path class="cls-7" d="M593.4,570c33-.53,63.22-3.62,87.87-8.48l-22.2-69.57a529.21,529.21,0,0,0-62.75-4.75"></path><path class="cls-1" d="M505.14,492.18c-46,6.56-78.31,17.37-82.82,31.56l18.82,24.35c9.93,4.89,22.43,8.86,38.75,12.35"></path><path class="cls-7" d="M505.14,492.18c-46,6.56-78.31,17.37-82.82,31.56l18.82,24.35c9.93,4.89,22.43,8.86,38.75,12.35"></path><rect class="cls-1" x="508.77" y="371.91" width="160.21" height="28.61"></rect><rect class="cls-7" x="508.77" y="371.91" width="160.21" height="25"></rect><path class="cls-1" d="M837,556.44c-77.5,6.91-139.16-1.68-141.66-20.79-2.71-20.77,65.52-46.09,152.38-56.56s159.47-2.15,162.17,18.62"></path><path class="cls-1" d="M1009.85,497.71c2.39,18.31-50.41,40.18-122.51,52.28"></path><path class="cls-7" d="M837,556.44c-77.5,6.91-139.16-1.68-141.66-20.79-2.71-20.77,65.52-46.09,152.38-56.56s159.47-2.15,162.17,18.62c2.39,18.31-50.41,40.18-122.51,52.28"></path><path class="cls-1" d="M441.51,546.7C437.93,567.34,365,572.84,278.68,559S125.24,517.15,128.83,496.5s76.47-26.14,162.81-12.27,153.45,41.83,149.87,62.47"></path><path class="cls-7" d="M254.82,554.71c-74.51-14.8-129.24-39.51-126-58.21,3.57-20.64,76.47-26.14,162.81-12.27s153.45,41.83,149.87,62.47c-3.37,19.42-68.12,25.44-147.7,14.54"></path><polygon class="cls-8" points="486.81 396.92 486.81 403.51 531.15 403.51 693.44 403.51 693.44 396.92 486.81 396.92"></polygon><path class="cls-1" d="M880.62,569.73l-203,43.78c-10.89-7-3.26-12.6-3.26-12.6L692.17,596,656.58,481.83,670.35,480,703.78,592.5l174.89-38.68"></path><path class="cls-7" d="M880.62,569.73l-203,43.78c-10.89-7-3.26-12.6-3.26-12.6L692.17,596,656.58,481.83,670.35,480,703.78,592.5l159.74-35.33"></path><path class="cls-1" d="M584.87,488.83l-3.08,119.78s8.53,3.51,13.79,0L598.32,489"></path><path class="cls-7" d="M584.87,488.83l-3.08,119.78s8.53,3.51,13.79,0L598.32,489"></path><polygon class="cls-1" points="585.05 481.83 584.87 488.82 598.32 488.97 598.48 481.83 585.05 481.83"></polygon><polyline class="cls-7" points="598.32 488.97 598.49 481.83 585.05 481.83 584.87 488.83"></polyline><path class="cls-1" d="M259.76,557.49l206.55,44.34,9.71,2.09,21.88,4.69c9.08,8.4-4.72,12.61-4.72,12.61l-236.74-49"></path><path class="cls-7" d="M255.71,556.62l210.6,45.21,9.71,2.09,21.88,4.69c9.08,8.4-4.72,12.61-4.72,12.61l-236.74-49"></path><path class="cls-1" d="M511.3,480l-45,120.92s2.62,9.63,10.75,2.1v1.13l42.27-121.59"></path><path class="cls-7" d="M511.3,480l-45,120.92s2.62,9.63,10.75,2.1v1.13l42.27-121.59"></path><polyline class="cls-1" points="633.34 408.29 656.58 481.83 671.11 479.02 649.32 408.29"></polyline><polyline class="cls-7" points="633.34 408.29 656.58 481.83 671.11 479.02 649.32 408.29"></polyline><polyline class="cls-1" points="585.05 408.29 585.05 481.83 598.49 481.83 598.49 408.29"></polyline><polyline class="cls-7" points="585.05 408.29 585.05 481.83 598.49 481.83 598.49 408.29"></polyline><polyline class="cls-1" points="532.4 408.29 506.98 479.02 522.96 482.55 549.1 408.29"></polyline><polyline class="cls-7" points="532.4 408.29 506.98 479.02 522.96 482.55 549.1 408.29"></polyline><polygon class="cls-1" points="489.55 401.98 489.55 408.29 532.4 408.29 689.26 408.29 689.26 401.98 489.55 401.98"></polygon><polygon class="cls-7" points="689.26 408.29 532.4 408.29 489.55 408.29 489.55 401.98 689.26 401.98 689.26 408.29"></polygon><path class="cls-8" d="M299.12,558.8c-.51,3-11.76,3.62-25.14,1.38s-23.82-6.47-23.33-9.47,11.76-3.6,25.15-1.38,23.82,6.47,23.32,9.47"></path><path class="cls-7" d="M884,562.77c0,3.73-2.51,6.75-5.6,6.75s-5.58-3-5.58-6.75,2.5-6.76,5.58-6.76S884,559,884,562.77Z"></path><line class="cls-7" x1="593.35" y1="615.99" x2="591.86" y2="611.16"></line><path class="cls-1" d="M594.83,619.81c0,3.45-3.12,6.24-7,6.24s-7-2.79-7-6.24,3.14-6.23,7-6.23,7,2.78,7,6.23"></path><path class="cls-7" d="M594.83,619.81c0,3.45-3.12,6.24-7,6.24s-7-2.79-7-6.24,3.14-6.23,7-6.23S594.83,616.36,594.83,619.81Z"></path><path class="cls-9" d="M887.9,550.1c.26,2.11-10.93,5.25-25,7s-25.67,1.47-25.93-.64,10.92-5.24,25-7,25.67-1.48,25.94.63"></path><path class="cls-1" d="M260.07,564.83c0,4.07-1.95,7.36-4.36,7.36s-4.35-3.29-4.35-7.36,1.94-7.36,4.35-7.36,4.36,3.3,4.36,7.36"></path><path class="cls-7" d="M260.07,564.83c0,4.07-1.95,7.36-4.36,7.36s-4.35-3.29-4.35-7.36,1.95-8.21,4.35-8.21S260.07,560.77,260.07,564.83Z"></path></svg> 