<?xml version="1.0" encoding="UTF-8"?> <svg xmlns="http://www.w3.org/2000/svg" xmlns:xlink="http://www.w3.org/1999/xlink" id="Livello_1" data-name="Livello 1" viewBox="0 0 912 1000.49"><defs><style>.cls-1,.cls-4,.cls-5,.cls-7{fill:none;}.cls-2{fill:#fff;}.cls-3{fill:#231f20;}.cls-4,.cls-7{stroke:#000;}.cls-4,.cls-5,.cls-7{stroke-width:0.25px;}.cls-5{stroke:#231f20;}.cls-6{clip-path:url(#clip-path);}.cls-7{stroke-miterlimit:10;}</style><clipPath id="clip-path"><rect class="cls-1" x="167.79" y="194.26" width="510.18" height="417.73"></rect></clipPath></defs><title>mami sospensione xl</title><rect class="cls-2" y="0.49" width="912" height="1000"></rect><path class="cls-3" d="M340.32.52h-.87L322.39,6.67v6.62l9.75-3V41.84h8.18ZM362.05,24h4.35a10.6,10.6,0,0,1,2.85.35,8.16,8.16,0,0,1,2.14,1.1,5.72,5.72,0,0,1,1.34,1.91,8.39,8.39,0,0,1,.46,2.85,6.15,6.15,0,0,1-.46,2.32,4,4,0,0,1-1.22,1.74,4.46,4.46,0,0,1-2,1.16,7.32,7.32,0,0,1-2.62.41,6.35,6.35,0,0,1-2.37-.41,5.17,5.17,0,0,1-1.92-1.1,4.74,4.74,0,0,1-1.74-3.78h-8.18a10.72,10.72,0,0,0,1.22,5.29,11,11,0,0,0,3.19,3.71,13.73,13.73,0,0,0,4.47,2.2,19.17,19.17,0,0,0,5.16.7,20.68,20.68,0,0,0,5.8-.81,13.64,13.64,0,0,0,4.65-2.38,10.91,10.91,0,0,0,3.07-3.77,12.22,12.22,0,0,0,1.1-5.17,10.2,10.2,0,0,0-1.74-5.92,10.05,10.05,0,0,0-5.16-3.71A14.38,14.38,0,0,0,377.14,19a13.84,13.84,0,0,0,2-2.09,11.32,11.32,0,0,0,1.22-2.5,10.28,10.28,0,0,0,.41-2.61,12,12,0,0,0-1.05-5.11A10.22,10.22,0,0,0,376.85,3,13.34,13.34,0,0,0,372.44.75,21.94,21.94,0,0,0,366.75,0a17.38,17.38,0,0,0-5.28.81,14.15,14.15,0,0,0-4.29,2.27,11.37,11.37,0,0,0-2.91,3.54,10.36,10.36,0,0,0-1,4.64h8.18a4.26,4.26,0,0,1,.47-1.92A4.09,4.09,0,0,1,363,7.89a5,5,0,0,1,1.8-.93,6.05,6.05,0,0,1,2.08-.34,6.46,6.46,0,0,1,2.5.4,4.43,4.43,0,0,1,1.74,1.1,4.22,4.22,0,0,1,1,1.69,6.11,6.11,0,0,1,.34,2.09A5.7,5.7,0,0,1,371,16a6.24,6.24,0,0,1-4.64,1.56h-4.35Zm52.72-6.33a26.74,26.74,0,0,0-1-8,14.29,14.29,0,0,0-2.84-5.45A10.71,10.71,0,0,0,406.47,1a14.94,14.94,0,0,0-5.69-1,15.2,15.2,0,0,0-5.69,1,10.53,10.53,0,0,0-4.35,3.14,14.29,14.29,0,0,0-2.84,5.45,26.74,26.74,0,0,0-1,8v7.14a26.59,26.59,0,0,0,1,7.95,15.48,15.48,0,0,0,2.84,5.51,10.71,10.71,0,0,0,4.41,3.14,15.16,15.16,0,0,0,5.69,1,15,15,0,0,0,5.69-1,10.71,10.71,0,0,0,4.41-3.14,15.48,15.48,0,0,0,2.84-5.51,28.85,28.85,0,0,0,1-7.95Zm-8.19,8.24a21.18,21.18,0,0,1-.4,4.64,9,9,0,0,1-1.1,3.08,4.24,4.24,0,0,1-1.8,1.68,5.88,5.88,0,0,1-4.88,0,4.24,4.24,0,0,1-1.8-1.68,9,9,0,0,1-1.16-3.08,26.2,26.2,0,0,1-.35-4.64V16.42a25.55,25.55,0,0,1,.35-4.58,8.53,8.53,0,0,1,1.11-3,5,5,0,0,1,1.79-1.68,5.71,5.71,0,0,1,2.44-.47,5.38,5.38,0,0,1,2.44.47,4.79,4.79,0,0,1,1.86,1.68,8.73,8.73,0,0,1,1.1,3,20.66,20.66,0,0,1,.4,4.58ZM448.33.58H419.2V7.2h20.49l-16,34.64h8.65L448.33,5.16Zm21.5,20.31h-16v6.56h16Zm34.51,14.33H486.58l7.25-7.66c1.4-1.45,2.67-2.78,3.77-4.12a28,28,0,0,0,2.91-3.88,19.09,19.09,0,0,0,1.79-3.83,11.51,11.51,0,0,0,.7-4,13.55,13.55,0,0,0-.87-4.93,9.88,9.88,0,0,0-2.61-3.66A11.66,11.66,0,0,0,495.34.81a19.53,19.53,0,0,0-5.8-.81,15.32,15.32,0,0,0-6,1.1A13.44,13.44,0,0,0,479.09,4a12.91,12.91,0,0,0-2.9,4.3,14.65,14.65,0,0,0-1,5.28h8.24a8.31,8.31,0,0,1,.41-2.79,6.59,6.59,0,0,1,1.1-2.2,5.28,5.28,0,0,1,1.92-1.45,5.72,5.72,0,0,1,2.55-.52,5.06,5.06,0,0,1,3.95,1.56,6.33,6.33,0,0,1,1.39,4.35,5.42,5.42,0,0,1-.29,1.86,9.52,9.52,0,0,1-.87,2.09,17.65,17.65,0,0,1-1.68,2.5,34.56,34.56,0,0,1-2.56,3L476,36.21v5.63h28.32Zm12.73-12.07c.29-.29.58-.52.93-.81a5.06,5.06,0,0,1,1.1-.75,9.27,9.27,0,0,1,1.51-.47,7,7,0,0,1,2-.23,8.05,8.05,0,0,1,3,.52,5.33,5.33,0,0,1,2,1.51,5,5,0,0,1,1.22,2.27,9.81,9.81,0,0,1,.41,3,16.44,16.44,0,0,1-.29,3,7.6,7.6,0,0,1-1,2.44,4.69,4.69,0,0,1-1.8,1.62,5.19,5.19,0,0,1-2.61.59,5.62,5.62,0,0,1-4.06-1.46,5.91,5.91,0,0,1-1.8-4h-8.12a12.16,12.16,0,0,0,1.27,5.11,11.82,11.82,0,0,0,3.14,3.77,13,13,0,0,0,4.41,2.38,17.18,17.18,0,0,0,5.16.81,15.37,15.37,0,0,0,6.15-1.16,12.2,12.2,0,0,0,7-7.43,17,17,0,0,0,.81-5.22,20.49,20.49,0,0,0-.81-5.86,12.22,12.22,0,0,0-2.5-4.35,10.72,10.72,0,0,0-3.94-2.73,13.91,13.91,0,0,0-5.34-.93c-.64,0-1.34.06-1.92.12a15.84,15.84,0,0,0-1.8.4c-.52.18-1,.35-1.39.52a4.29,4.29,0,0,0-1,.53l1-8.88h16.43V.58H512.89l-2.38,21Z"></path><path class="cls-3" d="M316,119.26a10,10,0,0,0,3-1.17,9.79,9.79,0,0,0,2.32-1.68,15,15,0,0,0,1.8-2.15L321,112.7a10,10,0,0,1-3.77,3.13,10.63,10.63,0,0,1-4.82,1,9.62,9.62,0,0,1-4.29-.93,10.36,10.36,0,0,1-3.31-2.61,11.72,11.72,0,0,1-2.15-3.83,14.43,14.43,0,0,1-.75-4.76v-.64h21.88V102a19.15,19.15,0,0,0-.82-5.63,12.51,12.51,0,0,0-2.32-4.47,11.27,11.27,0,0,0-3.83-2.9,12.16,12.16,0,0,0-5.16-1,11.43,11.43,0,0,0-5,1.1,13.77,13.77,0,0,0-4.18,3.13,14.41,14.41,0,0,0-2.9,4.88,18.63,18.63,0,0,0-1.05,6.44v1.22a16.79,16.79,0,0,0,1.05,6,13.44,13.44,0,0,0,2.84,4.76,12.16,12.16,0,0,0,4.35,3.08,13.3,13.3,0,0,0,5.52,1.16,14.43,14.43,0,0,0,3.71-.46Zm-.58-27.63a9.44,9.44,0,0,1,2.73,2.21A10.55,10.55,0,0,1,319.74,97a13.48,13.48,0,0,1,.64,3.77v.35H302a15.6,15.6,0,0,1,1.11-4.24,10.76,10.76,0,0,1,2-3.25,10.18,10.18,0,0,1,2.9-2.14,9.13,9.13,0,0,1,3.6-.7,8.61,8.61,0,0,1,3.77.81Zm16.33-3.13h-4l10.39,15-10.85,15.61h4l8.76-13,8.71,13h4l-10.85-15.61,10.39-15h-4L340,100.92Zm28.64-7.89V88.5h-5.62v2.78h5.62v20.43a12.12,12.12,0,0,0,.53,3.83,6.44,6.44,0,0,0,1.39,2.44,4.45,4.45,0,0,0,2.09,1.33,8,8,0,0,0,2.67.41c.69,0,1.33-.06,2-.12a9.12,9.12,0,0,0,1.62-.4l-.17-2.73c-.35.06-.81.12-1.28.17a11.25,11.25,0,0,1-1.45.06,6.72,6.72,0,0,1-1.51-.17,2.48,2.48,0,0,1-1.27-.7,3.35,3.35,0,0,1-.87-1.57,7.45,7.45,0,0,1-.35-2.55V91.28h6.32V88.5h-6.32V80.61Zm31,7.66a6,6,0,0,0-1-.24,11.05,11.05,0,0,0-1.28-.11,8.76,8.76,0,0,0-5.22,1.45,10.57,10.57,0,0,0-3.43,4l-.06-4.87h-3.3v30.64h3.36V98.07a15.22,15.22,0,0,1,1.16-2.78,8.34,8.34,0,0,1,1.8-2.15,7.39,7.39,0,0,1,2.44-1.45,8.82,8.82,0,0,1,3.13-.52,14.56,14.56,0,0,1,2.27.17Z"></path><path class="cls-3" d="M418.48,119.14v-.35a10.88,10.88,0,0,1-.41-1.28c-.11-.46-.17-1-.29-1.5s-.11-1.05-.17-1.63a15.17,15.17,0,0,1-.06-1.62V97.9a11,11,0,0,0-.81-4.35,8.53,8.53,0,0,0-2.32-3.14,10,10,0,0,0-3.48-1.85,14.11,14.11,0,0,0-4.53-.64,14.29,14.29,0,0,0-4.82.75,13.54,13.54,0,0,0-3.71,2,9.5,9.5,0,0,0-2.38,2.91,6.61,6.61,0,0,0-.81,3.3l3.36.06a5.19,5.19,0,0,1,.64-2.44,6.71,6.71,0,0,1,1.69-2A7.76,7.76,0,0,1,403,91.28a10,10,0,0,1,3.25-.52q3.92,0,5.92,1.92a6.7,6.7,0,0,1,2,5.16v3.48h-6.27a25.83,25.83,0,0,0-5.86.64,13.35,13.35,0,0,0-4.41,2,8.63,8.63,0,0,0-3,10.5,8,8,0,0,0,2,2.78,9.18,9.18,0,0,0,3.14,1.86,12.85,12.85,0,0,0,4.06.64,14.72,14.72,0,0,0,3.36-.41,19.4,19.4,0,0,0,2.91-1,11.12,11.12,0,0,0,2.32-1.57,9.29,9.29,0,0,0,1.8-1.86c.05.82.11,1.57.23,2.38a7.51,7.51,0,0,0,.46,1.92Zm-17.12-2.9a6.81,6.81,0,0,1-2.2-1.28,5,5,0,0,1-1.34-1.91,5.23,5.23,0,0,1-.52-2.33,5.8,5.8,0,0,1,.75-2.84,6.09,6.09,0,0,1,2.21-2.15,10.67,10.67,0,0,1,3.48-1.33,18.7,18.7,0,0,1,4.64-.46h5.81v6.73a10.51,10.51,0,0,1-1.51,2.38,12.21,12.21,0,0,1-2.21,1.91,11.62,11.62,0,0,1-2.84,1.28,12.91,12.91,0,0,1-3.42.46,8.6,8.6,0,0,1-2.85-.46Zm43.13-40.62h-3.42v43.52h3.42Zm32.14,43.52v-.35a10.88,10.88,0,0,1-.41-1.28c-.11-.46-.17-1-.29-1.5s-.11-1.05-.17-1.63a15.17,15.17,0,0,1-.06-1.62V97.9a11,11,0,0,0-.81-4.35,8.64,8.64,0,0,0-2.32-3.14,10,10,0,0,0-3.49-1.85,14,14,0,0,0-4.52-.64,14.29,14.29,0,0,0-4.82.75,13.54,13.54,0,0,0-3.71,2,9.5,9.5,0,0,0-2.38,2.91,6.61,6.61,0,0,0-.81,3.3l3.36.06a5.08,5.08,0,0,1,.64-2.44,6.82,6.82,0,0,1,1.68-2,8,8,0,0,1,2.61-1.28,10,10,0,0,1,3.25-.52q3.93,0,5.92,1.92a6.66,6.66,0,0,1,2,5.16v3.48h-6.26a25.83,25.83,0,0,0-5.86.64,13.17,13.17,0,0,0-4.41,2,8,8,0,0,0-3.72,7.07,8.35,8.35,0,0,0,.7,3.43,8,8,0,0,0,2,2.78,9.23,9.23,0,0,0,3.13,1.86,12.91,12.91,0,0,0,4.07.64,14.72,14.72,0,0,0,3.36-.41,19.27,19.27,0,0,0,2.9-1,11.19,11.19,0,0,0,2.33-1.57,9,9,0,0,0,1.79-1.86c.06.82.12,1.57.24,2.38a7.51,7.51,0,0,0,.46,1.92Zm-17.12-2.9A7,7,0,0,1,457.3,115a5,5,0,0,1-1.33-1.91,5.23,5.23,0,0,1-.52-2.33,5.8,5.8,0,0,1,.75-2.84,6,6,0,0,1,2.21-2.15,10.67,10.67,0,0,1,3.48-1.33,18.65,18.65,0,0,1,4.64-.46h5.8v6.73a10.46,10.46,0,0,1-1.5,2.38,12.21,12.21,0,0,1-2.21,1.91,11.62,11.62,0,0,1-2.84,1.28,12.92,12.92,0,0,1-3.43.46,8.58,8.58,0,0,1-2.84-.46Zm39.49-28a6,6,0,0,0-1-.24,10.87,10.87,0,0,0-1.28-.11,8.78,8.78,0,0,0-5.22,1.45,10.54,10.54,0,0,0-3.42,4L488,88.5h-3.31v30.64h3.37V98.07a14.55,14.55,0,0,1,1.16-2.78,8,8,0,0,1,1.8-2.15,7.29,7.29,0,0,1,2.44-1.45,8.78,8.78,0,0,1,3.13-.52,14.43,14.43,0,0,1,2.26.17Zm3.87,15.84a21.65,21.65,0,0,0,.81,6.32,14.47,14.47,0,0,0,2.32,4.94,11.64,11.64,0,0,0,3.71,3.19,10.59,10.59,0,0,0,4.94,1.16,12.27,12.27,0,0,0,5.63-1.22,10.58,10.58,0,0,0,3.83-3.31v3.54a13,13,0,0,1-.58,4.12,8,8,0,0,1-1.8,3,7.19,7.19,0,0,1-2.85,2,10.93,10.93,0,0,1-3.83.64,10.11,10.11,0,0,1-4.58-1,13.32,13.32,0,0,1-4-3.37l-1.85,2a9.9,9.9,0,0,0,2.15,2.32,16.06,16.06,0,0,0,2.66,1.63,17.5,17.5,0,0,0,2.91,1,12.87,12.87,0,0,0,3,.29,13.92,13.92,0,0,0,5-.87,11.07,11.07,0,0,0,3.89-2.5,11.53,11.53,0,0,0,2.44-4,15.4,15.4,0,0,0,.93-5.34V88.5H524.4l-.18,4.41a11.05,11.05,0,0,0-3.89-3.66A12.24,12.24,0,0,0,509.71,89,11.45,11.45,0,0,0,506,92.15a14.47,14.47,0,0,0-2.32,4.94,22.22,22.22,0,0,0-.81,6.44Zm3.42-.58a22.61,22.61,0,0,1,.52-5,12.62,12.62,0,0,1,1.63-4,7.8,7.8,0,0,1,2.84-2.67,7.59,7.59,0,0,1,4.06-1,11,11,0,0,1,3.25.46,9.11,9.11,0,0,1,2.5,1.34,9.5,9.5,0,0,1,1.8,1.91,10.14,10.14,0,0,1,1.22,2.32v14.22a11.13,11.13,0,0,1-1.34,2.26,7.53,7.53,0,0,1-1.86,1.75,9,9,0,0,1-2.49,1.21,10.5,10.5,0,0,1-3.13.41,7.86,7.86,0,0,1-4-1,7.72,7.72,0,0,1-2.84-2.67,12.46,12.46,0,0,1-1.63-4,22.23,22.23,0,0,1-.52-5ZM552,119.26a10.05,10.05,0,0,0,3-1.17,9.79,9.79,0,0,0,2.32-1.68,15.66,15.66,0,0,0,1.8-2.15L557,112.7a10,10,0,0,1-3.77,3.13,10.66,10.66,0,0,1-4.82,1,9.62,9.62,0,0,1-4.29-.93,10.36,10.36,0,0,1-3.31-2.61,11.72,11.72,0,0,1-2.15-3.83,14.43,14.43,0,0,1-.75-4.76v-.64h21.87V102a19.49,19.49,0,0,0-.81-5.63,12.67,12.67,0,0,0-2.32-4.47A11.27,11.27,0,0,0,552.8,89a12.16,12.16,0,0,0-5.16-1,11.47,11.47,0,0,0-5,1.1,13.73,13.73,0,0,0-4.17,3.13A14.6,14.6,0,0,0,535.56,97a18.87,18.87,0,0,0-1,6.44v1.22a17,17,0,0,0,1,6,13.47,13.47,0,0,0,2.85,4.76,12.16,12.16,0,0,0,4.35,3.08,13.26,13.26,0,0,0,5.51,1.16,14.51,14.51,0,0,0,3.72-.46Zm-.58-27.63a9.26,9.26,0,0,1,2.72,2.21A10.35,10.35,0,0,1,555.76,97a13.48,13.48,0,0,1,.64,3.77v.35H538a16,16,0,0,1,1.1-4.24,10.78,10.78,0,0,1,2-3.25,10.18,10.18,0,0,1,2.9-2.14,9.13,9.13,0,0,1,3.6-.7,8.64,8.64,0,0,1,3.77.81Z"></path><path class="cls-4" d="M162.13,679h523M758.56,193.3V616.43"></path><path d="M805.3,427.42v.65l4.5,12h3.8l-3.11-8.44H838.4v-4.22Zm13.63-33c-4.78.05-8.25.93-10.52,2.6s-3.43,4.26-3.43,7.83,1.15,6.21,3.52,7.88,6,2.5,10.8,2.5h5.61c4.63,0,8.11-.92,10.47-2.64s3.48-4.26,3.48-7.79-1.21-6.21-3.57-7.88-6-2.5-10.94-2.5Zm6.53,4.17c3.43.05,6,.61,7.56,1.58a5.62,5.62,0,0,1-.14,9.32c-1.71,1-4.31,1.57-7.88,1.57h-6.72c-3.34,0-5.84-.55-7.46-1.53a5,5,0,0,1-2.41-4.68,5.12,5.12,0,0,1,2.45-4.73c1.62-1,4.17-1.53,7.74-1.53Zm-2.73-14.84-.88-1.12a6.89,6.89,0,0,1-1.21-4.31,6,6,0,0,1,2-4.77,7.62,7.62,0,0,1,5.33-1.81,8.33,8.33,0,0,1,5.47,1.67,5.62,5.62,0,0,1,2,4.59,6.18,6.18,0,0,1-1.44,4.31,6.61,6.61,0,0,1-4.26,2v4a9.75,9.75,0,0,0,6.72-3.15,10.43,10.43,0,0,0,2.41-7.14,10.11,10.11,0,0,0-2.92-7.7,11.36,11.36,0,0,0-8-2.73,11.78,11.78,0,0,0-8.07,2.64,9.07,9.07,0,0,0-3,7.14,10.35,10.35,0,0,0,1.44,5.51l-9-1V368.57h-3.89v16.87l16.45,1.67Z"></path><path d="M401.06,719.93h-.65l-12,4.49v3.8l8.44-3.1V753h4.22Zm30,.13h-4.45l-14.74,22.86v2.45h15V753H431v-7.65h4.59v-3.43H431Zm-4.68,6.63.51-.88v16.13H416.56ZM445.49,738h3.16a7.76,7.76,0,0,1,5.1,1.57,5.47,5.47,0,0,1,1.76,4.41,6.08,6.08,0,0,1-1.58,4.54,7.55,7.55,0,0,1-9.22,0,5.32,5.32,0,0,1-1.67-4.13h-4.22a8.31,8.31,0,0,0,2.92,6.63,12.43,12.43,0,0,0,15.07-.09,9,9,0,0,0,2.92-7,8,8,0,0,0-1.49-4.86,8.29,8.29,0,0,0-4.22-2.83,8.48,8.48,0,0,0,3.8-3,7.28,7.28,0,0,0,1.4-4.18,9,9,0,0,0-2.65-6.9,10.38,10.38,0,0,0-7.32-2.46,10.5,10.5,0,0,0-7.28,2.6,8.4,8.4,0,0,0-2.87,6.49h4.22a5.36,5.36,0,0,1,1.57-4.08,6,6,0,0,1,4.36-1.58c3.85,0,5.79,2,5.79,5.8a5.3,5.3,0,0,1-1.71,4.12,7.05,7.05,0,0,1-4.68,1.58h-3.16Z"></path><polyline class="cls-2" points="450.96 248.38 524.27 521.14 517.42 523.3 444.08 250.67"></polyline><polyline class="cls-5" points="450.96 248.38 524.27 521.14 517.42 523.3 444.08 250.67"></polyline><polyline class="cls-2" points="434.27 251.37 461.65 523.6 467.1 524.21 440.11 251.37"></polyline><polyline class="cls-5" points="434.27 251.37 461.65 523.6 467.1 524.21 440.11 251.37"></polyline><polyline class="cls-2" points="416.61 249.28 406.38 521.68 413.43 522.03 421.76 249.41"></polyline><polyline class="cls-5" points="416.61 249.28 406.38 521.68 413.43 522.03 421.76 249.41"></polyline><polyline class="cls-2" points="406.38 250.67 380.13 522.99 386.43 522.36 413.09 251.37"></polyline><polyline class="cls-5" points="406.38 250.67 380.13 522.99 386.43 522.36 413.09 251.37"></polyline><polyline class="cls-2" points="398.25 248.9 323.58 519.96 329.87 522.99 402.85 252.69 404.14 250.67"></polyline><polyline class="cls-5" points="398.25 248.9 323.58 519.96 329.87 522.99 402.85 252.69 404.14 250.67"></polyline><polyline class="cls-2" points="426.02 250.34 434.63 523.6 440.36 522.98 432.2 250.67"></polyline><polyline class="cls-5" points="426.02 250.34 434.63 523.6 440.36 522.98 432.2 250.67"></polyline><path class="cls-2" d="M348.89,530.35S333.8,539,334.13,548.22c0,0-.53,13.28,14.76,21.25.33-.5,10.7-37.68,10.7-37.68Z"></path><path class="cls-2" d="M433.19,526.48l1.43-4.13H448l28.54,4.13,19.72,3.8,4.93,12.87-29,13.28s-26.7-6.27-28.08-7-10.89-22.95-10.89-22.95"></path><g class="cls-6"><path class="cls-2" d="M460.23,209.54H388V195.22h72.21ZM290.38,513.63c-10.63-8.43-25.72-16.45-43.25-22.31-37.78-12.64-72.58-10.51-77.73,4.77-4.32,12.81,13.61,30.81,41.81,43.73M553.7,514.26c11-9.35,28.33-18.23,48.72-24.14,38.28-11.09,73-7.53,77.47,7.95,4.46,15.23-22,36.36-59.41,47.57m-190-23.44c3.12-.36,6.32-.64,9.57-.82,23.45-1.31,44.54,2.64,58,9.78m0,0c9.15,4.87,14.77,11.22,15.18,18.42,1,17.76-30.16,33.93-69.57,36.12l-1.09.06m-5.52.17c-4.16.06-8.95-.19-12.9-.45m-75.21-55.13c-12.24-7.36-30.49-13.34-51.29-16-39.16-4.93-72.53,3.81-74.53,19.53s28.12,32.49,67.28,37.43c22.67,2.86,43.39,1.14,57.21-3.87m150-36c12.22-7.88,31.26-14.33,53.11-17.09,39.16-4.93,72.53,3.81,74.52,19.53S597,566.41,557.86,571.35c-22.17,2.81-42.49,1.21-56.3-3.55m-110.2,14.85c-33.48-4.86-58-19-57.23-34.43.94-17.73,35.07-30.34,76.25-28.21s73.81,18.24,72.88,36c-.79,15-26.05,26.21-58.44,28.1"></path><path class="cls-5" d="M460.23,209.54H388V195.22h72.21ZM290.38,513.63c-10.63-8.43-25.72-16.45-43.25-22.31-37.78-12.64-72.58-10.51-77.73,4.77-4.32,12.81,13.61,30.81,41.81,43.73M553.7,514.26c11-9.35,28.33-18.23,48.72-24.14,38.28-11.09,73-7.53,77.47,7.95,4.46,15.23-22,36.36-59.41,47.57m-190-23.44c3.12-.36,6.32-.64,9.57-.82,23.45-1.31,44.54,2.64,58,9.78m0,0c9.15,4.87,14.77,11.22,15.18,18.42,1,17.76-30.16,33.93-69.57,36.12l-1.09.06m-5.52.17c-4.16.06-8.95-.19-12.9-.45m-75.21-55.13c-12.24-7.36-30.49-13.34-51.29-16-39.16-4.93-72.53,3.81-74.53,19.53s28.12,32.49,67.28,37.43c22.67,2.86,43.39,1.14,57.21-3.87m150-36c12.22-7.88,31.26-14.33,53.11-17.09,39.16-4.93,72.53,3.81,74.52,19.53S597,566.41,557.86,571.35c-22.17,2.81-42.49,1.21-56.3-3.55m-110.2,14.85c-33.48-4.86-58-19-57.23-34.43.37-6.93,5.81-13.08,14.76-17.87,13.95-7.46,36.41-11.64,61.49-10.34,41.18,2.14,73.81,18.24,72.88,36-.79,15-26.05,26.21-58.44,28.1"></path></g><rect class="cls-2" x="377.28" y="206.6" width="92.94" height="3.86"></rect><rect class="cls-7" x="377.29" y="206.59" width="92.94" height="3.86"></rect><path class="cls-2" d="M409.55,213.64l-3.17,37,6.71.7,3.82-37.73-1.06,35.63,6.88.17,1-35.8,1.6,37h6.88l-1.72-37,3.79,37.73,7.06-.7-4.24-37,7,37,6.88-2.28-9.36-34.75m-35,0-10.07,34.75,7.58,2.28,3.66-18.08m61.07-19H378.66v-3.86h90.21Z"></path><path class="cls-5" d="M409.55,213.64l-3.17,37,6.71.7,3.82-37.73-1.06,35.63,6.88.17,1-35.8,1.6,37h6.88l-1.72-37,3.79,37.73,7.06-.7-4.24-37,7,37,6.88-2.28-9.36-34.75m-35,0-10.07,34.75,7.58,2.28,3.66-18.08m61.07-19H378.66v-3.86h90.21Z"></path><path class="cls-2" d="M217,552.21l-14.88-5.44,1.94-5.13a55.24,55.24,0,0,1,18.12,2.84l11.27,11.78c0,.17.26-.24.27-.07l-.6,1.91-16.46-6"></path><path class="cls-7" d="M217,552.21l-14.88-5.44,1.94-5.13a55.24,55.24,0,0,1,18.12,2.84l11.27,11.78c0,.17.26-.24.27-.07l-.6,1.91-16.46-6"></path><path class="cls-2" d="M210.19,557.22l55.16,15m-45.17-18.77L206.48,549l1.8-4.19A57,57,0,0,1,225,547.13l10.36,9.61c0,.14.24-.2.25,0l-.55,1.55-15.15-4.91"></path><path class="cls-5" d="M210.19,557.22l55.16,15m-45.17-18.77L206.48,549l1.8-4.19A57,57,0,0,1,225,547.13l10.36,9.61c0,.14.24-.2.25,0l-.55,1.55-15.15-4.91"></path><path class="cls-2" d="M214.18,549v3.45s3.16,5.31,4.4,1.41V550"></path><path class="cls-7" d="M214.18,549v3.45s3.16,5.31,4.4,1.41V550"></path><path class="cls-2" d="M466.31,588.09l5.76-.5m-6.17-3.84v8.8s3.49,5.92,6.78-.85l-.61-9.47m-37.85,2.16,1.08,27.78s3.8,4.91,6.23,0l-1-28.57m-37.82,4.9-.68,23.33s3.63,5.76,5.82.37l1-23.34M281.77,578.7c-.17,1,2.82,8.68,6.77.68m89.11,9.2-6-1m.75-6.71-1.17,10.59s4.34,7.48,6.68,1V581.94m-103.66,2,110.15,16.17s5.54-2.7,1-6.59l-7.53-1.11m-6.26-.92-82.22-12.15M268.1,569.27v7.88l20.44,2.23m-.38-.14,12.3,1.3.35-6.46M217.37,549v3.3s3.11,5.07,4.33,1.35V550"></path><path class="cls-5" d="M466.31,588.09l5.76-.5m-6.17-3.84v8.8s3.49,5.92,6.78-.85l-.61-9.47m-37.85,2.16,1.08,27.78s3.8,4.91,6.23,0l-1-28.57m-37.82,4.9-.68,23.33s3.63,5.76,5.82.37l1-23.34M281.77,578.7c-.17,1,2.82,8.68,6.77.68m89.11,9.2-6-1m.75-6.71-1.17,10.59s4.34,7.48,6.68,1V581.94m-103.66,2,110.15,16.17s5.54-2.7,1-6.59l-7.53-1.11m-6.26-.92-82.22-12.15M268.1,569.27v7.88l20.44,2.23m-.38-.14,12.3,1.3.35-6.46M217.37,549v3.3s3.11,5.07,4.33,1.35V550"></path><path class="cls-2" d="M566.53,580.18l.41-.07,15.44-1.43v-8.77l-16,3.43.74,7.66c-3.19,6.37-6.2.71-6.2.71v-7.55l-13.12,1.27v6.46l12.75-1.18"></path><path class="cls-7" d="M566.53,580.18l.41-.07,15.44-1.43v-8.77l-16,3.43.74,7.66c-3.19,6.37-6.2.71-6.2.71v-7.55l-13.12,1.27v6.46l12.75-1.18"></path><path class="cls-2" d="M566.26,578.84l.34,0,12.6-.75v-4.57l-13,1.79.61,4c-2.61,3.31-5.07.37-5.07.37v-3.93l-10.69.66v3.36l10.39-.62"></path><path class="cls-5" d="M566.26,578.84l.34,0,12.6-.75v-4.57l-13,1.79.61,4c-2.61,3.31-5.07.37-5.07.37v-3.93l-10.69.66v3.36l10.39-.62"></path><line class="cls-7" x1="475.43" y1="593.58" x2="561.46" y2="581.03"></line><path class="cls-2" d="M576,580.68c0,1.77-.72,3.21-1.61,3.21s-1.63-1.44-1.63-3.21.73-3.2,1.63-3.2,1.61,1.44,1.61,3.2m-33.11-2.52c0,2.11-1.23,3.82-2.74,3.82s-2.73-1.71-2.73-3.82,1.22-3.81,2.73-3.81,2.74,1.71,2.74,3.81m97.42-37.06,1.6,6.2-14.26,4.33m-4,1.23-13.27,4m10.8-8.56,2.08,4.72s3.92,5.8,4.9-1.46l-1.76-5.13m-45.4,27L635.4,556,633,550m-67.31,28.34.4,0m8.31,5.58L465,599.37c-5.63-2.15-1-6.47-1-6.47l8.24-1.17m5.78-.82,82.77-11.77"></path><path class="cls-5" d="M576,580.68c0,1.77-.72,3.21-1.61,3.21s-1.63-1.44-1.63-3.21.73-3.2,1.63-3.2,1.61,1.44,1.61,3.2Zm-33.11-2.52c0,2.11-1.23,3.82-2.74,3.82s-2.73-1.71-2.73-3.82,1.22-3.81,2.73-3.81,2.74,1.71,2.74,3.81Zm97.42-37.06,1.6,6.2-14.26,4.33m-4,1.23-13.27,4m10.8-8.56,2.08,4.72s3.92,5.8,4.9-1.46l-1.76-5.13m-45.4,27L635.4,556,633,550m-67.31,28.34.4,0m8.31,5.58L465,599.37c-5.63-2.15-1-6.47-1-6.47l8.24-1.17m5.78-.82,82.77-11.77"></path><path class="cls-2" d="M404.68,592c-8-.25-14.15-1.65-14.15-3.32,0-1.86,7.51-3.37,16.77-3.37s16.77,1.51,16.77,3.37c0,1.67-6.14,3.07-14.15,3.32"></path><path class="cls-7" d="M404.68,592c-8-.25-14.15-1.64-14.15-3.32,0-1.86,7.51-3.37,16.77-3.37s16.77,1.51,16.77,3.37c0,1.68-6.14,3.07-14.15,3.32"></path><path class="cls-2" d="M405.17,588.81c-6.49,0-11.46-.07-11.46-.16s6.08-.16,13.59-.16,13.59.09,13.59.16-5,.15-11.47.16"></path><path class="cls-5" d="M405.17,588.81c-6.49,0-11.46-.06-11.46-.16s6.08-.16,13.59-.16,13.59.09,13.59.16-5,.16-11.47.16"></path><path class="cls-2" d="M390.53,588.68V582.8a50.78,50.78,0,0,1,34.28.7l-.74,5.18"></path><path class="cls-7" d="M390.53,588.68V582.8a50.78,50.78,0,0,1,34.28.7l-.74,5.18"></path><path class="cls-2" d="M393.72,587.72v-3a61.29,61.29,0,0,1,27.26.36l-.58,2.65"></path><path class="cls-5" d="M393.72,587.72v-3a61.29,61.29,0,0,1,27.26.36l-.58,2.65"></path><path class="cls-2" d="M410.44,591.24a3.15,3.15,0,1,1-3.14-3.14,3.14,3.14,0,0,1,3.14,3.14"></path><path class="cls-7" d="M410.44,591.24a3.15,3.15,0,1,1-3.14-3.14,3.14,3.14,0,0,1,3.14,3.14"></path><path class="cls-2" d="M235.46,560l11.78,3.87m-35.38-8.31c0,1.86-1.16,3.37-2.59,3.37s-2.58-1.51-2.58-3.37,1.15-3.38,2.58-3.38,2.59,1.52,2.59,3.38M310.68,579a2.52,2.52,0,1,1-5,0c0-1.62,1.12-3.81,2.5-3.81s2.48,2.19,2.48,3.81m-35.76,2c0,1.56-.81,2.82-1.81,2.82s-1.8-1.26-1.8-2.82.81-2.82,1.8-2.82,1.81,1.26,1.81,2.82m132.35,7.49a3.1,3.1,0,1,1-3.08-2.72,2.92,2.92,0,0,1,3.08,2.72"></path><path class="cls-5" d="M235.46,560l11.77,3.87m-35.37-8.31c0,1.86-1.16,3.37-2.59,3.37s-2.58-1.51-2.58-3.37,1.15-3.38,2.58-3.38,2.59,1.52,2.59,3.38ZM310.68,579a2.52,2.52,0,1,1-5,0c0-1.62,1.12-3.81,2.49-3.81s2.49,2.19,2.49,3.81Zm-35.76,2c0,1.56-.81,2.82-1.81,2.82s-1.8-1.26-1.8-2.82.81-2.82,1.8-2.82,1.81,1.26,1.81,2.82Zm132.35,7.49a3.1,3.1,0,1,1-3.08-2.72,2.93,2.93,0,0,1,3.08,2.72Z"></path></svg> 