<?xml version="1.0" encoding="UTF-8"?> <svg xmlns="http://www.w3.org/2000/svg" id="Livello_1" data-name="Livello 1" viewBox="0 0 912 1000.49"><defs><style>.cls-1{fill:#fff;}.cls-2{fill:#231f20;}.cls-3,.cls-4{fill:none;stroke-width:0.25px;}.cls-3{stroke:#000;}.cls-4{stroke:#231f20;stroke-miterlimit:10;}</style></defs><title>mami asta fissa small</title><rect class="cls-1" y="0.49" width="912" height="1000"></rect><path class="cls-2" d="M268.3.59h-1L248,7.57v7.51L259,11.66V47.49h9.29ZM293,27.2h4.94a12.16,12.16,0,0,1,3.23.4,9.29,9.29,0,0,1,2.43,1.25A6.53,6.53,0,0,1,305.08,31a9.46,9.46,0,0,1,.53,3.23,6.93,6.93,0,0,1-.53,2.63,4.55,4.55,0,0,1-1.38,2,5.22,5.22,0,0,1-2.24,1.32,8.28,8.28,0,0,1-3,.46,7.27,7.27,0,0,1-2.7-.46,6.09,6.09,0,0,1-2.17-1.25,5.42,5.42,0,0,1-2-4.28h-9.28a12.25,12.25,0,0,0,1.38,6,12.51,12.51,0,0,0,3.62,4.21,16,16,0,0,0,5.07,2.51,22.37,22.37,0,0,0,5.86.79,23.48,23.48,0,0,0,6.59-.92,15.39,15.39,0,0,0,5.27-2.71,12.22,12.22,0,0,0,3.49-4.28,13.89,13.89,0,0,0,1.25-5.86,11.59,11.59,0,0,0-2-6.72,11.42,11.42,0,0,0-5.87-4.21,16,16,0,0,0,3-1.91,15.12,15.12,0,0,0,2.24-2.37,12.44,12.44,0,0,0,1.39-2.84,11.62,11.62,0,0,0,.46-3A13.66,13.66,0,0,0,313,7.57a11.86,11.86,0,0,0-3.22-4.15,15.2,15.2,0,0,0-5-2.56A24.56,24.56,0,0,0,298.29,0a19.82,19.82,0,0,0-6,.92,16.37,16.37,0,0,0-4.87,2.57,13,13,0,0,0-3.3,4A11.69,11.69,0,0,0,283,12.78h9.28a4.84,4.84,0,0,1,.53-2.18A4.69,4.69,0,0,1,294.08,9a5.51,5.51,0,0,1,2-1.06,7,7,0,0,1,2.37-.39,7.27,7.27,0,0,1,2.83.46,5,5,0,0,1,2,1.25,4.78,4.78,0,0,1,1.19,1.91,7,7,0,0,1,.39,2.37,6.49,6.49,0,0,1-1.71,4.68A7.11,7.11,0,0,1,297.9,20H293ZM352.79,20a30.53,30.53,0,0,0-1.18-9.09,16.36,16.36,0,0,0-3.23-6.19,12.09,12.09,0,0,0-5-3.55A16.81,16.81,0,0,0,336.92,0a17,17,0,0,0-6.45,1.19,11.87,11.87,0,0,0-4.94,3.55,16.08,16.08,0,0,0-3.23,6.19A30.5,30.5,0,0,0,321.11,20v8.1a30.27,30.27,0,0,0,1.19,9,17.44,17.44,0,0,0,3.23,6.26,12.05,12.05,0,0,0,5,3.55A17.08,17.08,0,0,0,337,48.15,16.81,16.81,0,0,0,343.44,47a12.15,12.15,0,0,0,5-3.55,17.59,17.59,0,0,0,3.22-6.26,32.54,32.54,0,0,0,1.12-9Zm-9.28,9.36a24.73,24.73,0,0,1-.46,5.27,10.39,10.39,0,0,1-1.26,3.49,4.71,4.71,0,0,1-2,1.91,6.77,6.77,0,0,1-5.53,0,4.71,4.71,0,0,1-2-1.91,10.14,10.14,0,0,1-1.32-3.49,30.11,30.11,0,0,1-.39-5.27V18.64a29.18,29.18,0,0,1,.39-5.2A9.75,9.75,0,0,1,332.11,10a5.67,5.67,0,0,1,2-1.91,6.58,6.58,0,0,1,2.77-.53,6.21,6.21,0,0,1,2.77.53,5.38,5.38,0,0,1,2.1,1.91,9.94,9.94,0,0,1,1.26,3.43,24,24,0,0,1,.46,5.2ZM390.89.66H357.83V8.17h23.25L363,47.49h9.81L390.89,5.86Zm24.4,23.05H397.18v7.44h18.11ZM454.45,40H434.3l8.23-8.69c1.58-1.65,3-3.17,4.28-4.68a31.6,31.6,0,0,0,3.3-4.41,21.84,21.84,0,0,0,2-4.35,13.12,13.12,0,0,0,.79-4.55,15.31,15.31,0,0,0-1-5.59,11,11,0,0,0-3-4.15A13.21,13.21,0,0,0,444.25.92,22.22,22.22,0,0,0,437.66,0a17.47,17.47,0,0,0-6.79,1.25,15.17,15.17,0,0,0-5.07,3.29,14.5,14.5,0,0,0-3.29,4.88,16.76,16.76,0,0,0-1.12,6h9.35a9.38,9.38,0,0,1,.46-3.16,7.44,7.44,0,0,1,1.26-2.5,5.89,5.89,0,0,1,2.17-1.65,6.58,6.58,0,0,1,2.9-.59A5.71,5.71,0,0,1,442,9.29a7.18,7.18,0,0,1,1.58,4.94,6.12,6.12,0,0,1-.33,2.1,11.64,11.64,0,0,1-1,2.38,19.85,19.85,0,0,1-1.91,2.83,38,38,0,0,1-2.9,3.42L422.31,41.1v6.39h32.14ZM484,.2a24.56,24.56,0,0,0-10.08,1.91,21.29,21.29,0,0,0-7.51,5.27,24.26,24.26,0,0,0-4.67,8.16,32,32,0,0,0-1.58,10.35v3.62a23.12,23.12,0,0,0,1.18,7.57,17.49,17.49,0,0,0,3.3,5.86,15,15,0,0,0,5.2,3.82,16.09,16.09,0,0,0,6.78,1.39,16.91,16.91,0,0,0,6.52-1.25,15,15,0,0,0,5-3.43,14.54,14.54,0,0,0,3.16-5.07,18.11,18.11,0,0,0,1.12-6.32,23.21,23.21,0,0,0-.85-6.13,15.33,15.33,0,0,0-2.51-5.07,12.34,12.34,0,0,0-4.15-3.43,12.87,12.87,0,0,0-5.86-1.31,13.69,13.69,0,0,0-5.33,1.05A13,13,0,0,0,469.63,20,15.45,15.45,0,0,1,471.21,15a11.66,11.66,0,0,1,3-3.82,14.9,14.9,0,0,1,4.61-2.44,18.26,18.26,0,0,1,5.93-.85h.53V.2Zm-4.87,24A7.1,7.1,0,0,1,481.29,26a8.71,8.71,0,0,1,1.38,2.7,11.28,11.28,0,0,1,.46,3.42,11.39,11.39,0,0,1-.46,3.43,8.33,8.33,0,0,1-1.38,2.63,6.06,6.06,0,0,1-4.87,2.44,6.94,6.94,0,0,1-2.84-.59,6.75,6.75,0,0,1-2.24-1.85A10.31,10.31,0,0,1,470,35.11a17.09,17.09,0,0,1-.53-4.35V27.93a6.52,6.52,0,0,1,1.06-1.65A5.9,5.9,0,0,1,472,24.9a7.34,7.34,0,0,1,1.91-.93,6.87,6.87,0,0,1,2.31-.32,6.65,6.65,0,0,1,2.9.59Z"></path><path class="cls-2" d="M315.64,128.7a6.4,6.4,0,0,1-1.71,2.05,13.09,13.09,0,0,1-2.83,1.38,14,14,0,0,1-3.89.46,14.52,14.52,0,0,1-3.29-.33,9.6,9.6,0,0,1-3.1-1.19,6.54,6.54,0,0,1-2.3-2.17,6.85,6.85,0,0,1-1.06-3.42h-3.88a8.89,8.89,0,0,0,.92,3.88,9.82,9.82,0,0,0,2.63,3.36,13,13,0,0,0,4.22,2.31,20.19,20.19,0,0,0,5.86.85,19.06,19.06,0,0,0,5.34-.72,11.32,11.32,0,0,0,4-2,9.55,9.55,0,0,0,2.64-3,8.71,8.71,0,0,0,.86-4,8.2,8.2,0,0,0-.73-3.69,7.43,7.43,0,0,0-2.17-2.83,16.27,16.27,0,0,0-3.82-2.17,35.39,35.39,0,0,0-5.4-1.58,38,38,0,0,1-4.75-1.39,10.3,10.3,0,0,1-2.83-1.51,3.52,3.52,0,0,1-1.38-1.78,5.55,5.55,0,0,1-.4-2.11,5.24,5.24,0,0,1,.53-2.17,5,5,0,0,1,1.45-2,8.94,8.94,0,0,1,2.63-1.38,10.85,10.85,0,0,1,3.82-.53,11.48,11.48,0,0,1,3.82.59,8.52,8.52,0,0,1,2.84,1.59,6.53,6.53,0,0,1,1.78,2.3,6.24,6.24,0,0,1,.59,2.64h3.82a9.58,9.58,0,0,0-.86-4.15,10.1,10.1,0,0,0-2.5-3.3,12.79,12.79,0,0,0-4.08-2.17,18.57,18.57,0,0,0-10.48-.07,12.74,12.74,0,0,0-3.88,2,8.83,8.83,0,0,0-2.44,3,8.06,8.06,0,0,0-.86,3.69,8.28,8.28,0,0,0,.79,3.69,7.05,7.05,0,0,0,2.38,2.7,13.85,13.85,0,0,0,3.82,2,39.29,39.29,0,0,0,5.13,1.38,27.34,27.34,0,0,1,4.75,1.45,9.64,9.64,0,0,1,2.83,1.78,6,6,0,0,1,1.38,2,6.45,6.45,0,0,1,.4,2.18,4.73,4.73,0,0,1-.6,2.3Zm12.81-28.25v34.77h3.89V111.38a17.54,17.54,0,0,1,1.25-3.09,13.28,13.28,0,0,1,2-2.64,11.43,11.43,0,0,1,3-1.84,9.67,9.67,0,0,1,3.82-.66,11.79,11.79,0,0,1,3.49.46,6.34,6.34,0,0,1,2.63,1.45,6.43,6.43,0,0,1,1.78,2.83,13.74,13.74,0,0,1,.59,4.35v23h3.89v-23a9.4,9.4,0,0,1,.79-3.09,12.4,12.4,0,0,1,2-2.9,11.2,11.2,0,0,1,3.16-2.18,9.45,9.45,0,0,1,4.21-.85,13.83,13.83,0,0,1,3.43.39,5.84,5.84,0,0,1,2.7,1.52,6.93,6.93,0,0,1,1.78,2.9,14.75,14.75,0,0,1,.59,4.54v22.72h3.82V112.57a19.06,19.06,0,0,0-.72-5.8,9.69,9.69,0,0,0-2.24-4,8.33,8.33,0,0,0-3.63-2.31,15.37,15.37,0,0,0-4.8-.72,14.57,14.57,0,0,0-3.89.53,12.91,12.91,0,0,0-3.29,1.38,12.26,12.26,0,0,0-2.7,2.17,14.92,14.92,0,0,0-2,2.64,9.14,9.14,0,0,0-3.89-5.14,13,13,0,0,0-6.58-1.58,12.22,12.22,0,0,0-3.56.46,11.64,11.64,0,0,0-3.1,1.25,9.64,9.64,0,0,0-2.56,2,13.64,13.64,0,0,0-2.05,2.63l-.13-5.66ZM413,135.22v-.39a13.33,13.33,0,0,1-.46-1.45c-.13-.53-.2-1.12-.33-1.71s-.13-1.19-.19-1.85A16.79,16.79,0,0,1,412,128V111.12a12.51,12.51,0,0,0-.92-4.94,9.68,9.68,0,0,0-2.64-3.56,11.36,11.36,0,0,0-3.95-2.11,16.35,16.35,0,0,0-5.14-.72,16.16,16.16,0,0,0-5.46.85,15.45,15.45,0,0,0-4.22,2.31,10.79,10.79,0,0,0-2.7,3.29A7.56,7.56,0,0,0,386,110l3.82.06a5.76,5.76,0,0,1,.72-2.76,7.64,7.64,0,0,1,1.91-2.24,9,9,0,0,1,3-1.45,11,11,0,0,1,3.69-.59q4.44,0,6.71,2.17a7.57,7.57,0,0,1,2.31,5.86v4h-7.11a29.07,29.07,0,0,0-6.66.73,15.23,15.23,0,0,0-5,2.24A9.81,9.81,0,0,0,386,129.89a9.3,9.3,0,0,0,2.24,3.16,10.78,10.78,0,0,0,3.56,2.11,14.7,14.7,0,0,0,4.61.72,17,17,0,0,0,3.82-.46,21.85,21.85,0,0,0,3.29-1.18,12.59,12.59,0,0,0,2.64-1.78,10.4,10.4,0,0,0,2-2.11c.06.92.13,1.78.26,2.7a8.72,8.72,0,0,0,.53,2.17Zm-19.43-3.29a7.79,7.79,0,0,1-2.5-1.45,5.53,5.53,0,0,1-1.51-2.17,5.88,5.88,0,0,1-.6-2.64,6.5,6.5,0,0,1,.86-3.22,6.82,6.82,0,0,1,2.5-2.44,12.11,12.11,0,0,1,3.95-1.52,21.63,21.63,0,0,1,5.27-.52h6.59v7.64a11.83,11.83,0,0,1-1.71,2.7,13.71,13.71,0,0,1-2.51,2.17,13.08,13.08,0,0,1-3.22,1.45,14.62,14.62,0,0,1-3.89.53,9.72,9.72,0,0,1-3.23-.53Zm33-46.1h-3.89v49.39h3.89Zm14.74,0h-3.89v49.39h3.89Z"></path><path class="cls-3" d="M140.79,915.42H537.93M773,221.49v633"></path><path d="M822.57,563.57v.74l5.1,13.63H832l-3.53-9.58h31.68v-4.79Zm0-29.58v.74l5.1,13.62H832l-3.53-9.57h31.68V534ZM838,496.57c-5.42.05-9.37,1.05-11.94,2.94s-3.9,4.84-3.9,8.89,1.32,7.05,4,9,6.79,2.84,12.26,2.84h6.37c5.26-.05,9.2-1.05,11.89-3s3.94-4.84,3.94-8.84-1.37-7.05-4-8.94-6.84-2.84-12.42-2.84Zm7.42,4.73c3.89.05,6.78.69,8.57,1.79a6.37,6.37,0,0,1-.16,10.58c-1.94,1.15-4.89,1.78-8.94,1.78H837.3c-3.79-.05-6.63-.63-8.47-1.73a6.55,6.55,0,0,1,0-10.68c1.85-1.16,4.74-1.74,8.79-1.74Z"></path><path d="M330.68,962.07c-5.79.1-10.15,1.94-13.1,5.57s-4.42,8.9-4.42,15.79v1.84a16.59,16.59,0,0,0,3.37,10.63,10.63,10.63,0,0,0,8.68,4.1,10.85,10.85,0,0,0,8.47-3.47c2.1-2.32,3.16-5.37,3.16-9.26a13.3,13.3,0,0,0-2.95-8.89A9.74,9.74,0,0,0,326.1,975a10,10,0,0,0-8.05,3.36,13.52,13.52,0,0,1,3.79-8.94,12.59,12.59,0,0,1,8.84-3.26h.89v-4Zm-.42,19.31a9.53,9.53,0,0,1,1.84,6.15,9.37,9.37,0,0,1-1.84,6.16,6,6,0,0,1-5.05,2.36,6.25,6.25,0,0,1-5.16-2.78,12.06,12.06,0,0,1-2.1-7.42v-1.74a7.34,7.34,0,0,1,2.84-3.63,7.6,7.6,0,0,1,4.52-1.47,6,6,0,0,1,4.95,2.37Zm18.22.31,1.26-1a7.88,7.88,0,0,1,4.89-1.37,6.85,6.85,0,0,1,5.42,2.27,8.67,8.67,0,0,1,2.06,6,9.39,9.39,0,0,1-1.9,6.2,6.37,6.37,0,0,1-5.21,2.27,7.07,7.07,0,0,1-4.89-1.63,7.52,7.52,0,0,1-2.26-4.84h-4.53a11.06,11.06,0,0,0,3.58,7.62A11.76,11.76,0,0,0,355,1000c3.74,0,6.63-1.1,8.74-3.31s3.1-5.27,3.1-9.11-1-6.89-3-9.15a10.3,10.3,0,0,0-8.1-3.37,11.86,11.86,0,0,0-6.26,1.63l1.1-10.2h15.16v-4.42H346.58l-1.89,18.67Z"></path><path class="cls-1" d="M446.53,274.35H331.23V254.73h115.3Zm-129.18,7h143c6-5,0-7,0-7h-143s-5.29,2.65,0,7m79,113.38H381.44V281.33h14.87Zm-2.32,133v45.88H383.75V394.71H394V519m-.33,9.23h53.53V518.4H393.66s-6.77,4.32,0,9.81m-9.58,210.3V662h9.58V808.67h-9.58V747.82m.33,0H214.27v-9.31H384.41s8.26,5,0,9.31M260.52,727.53v11h-56.4v-11m212-145.33H363.27v-8.6h52.86Zm42.05-31.6H448.5V496.79h9.68M393.66,770.46a27.5,27.5,0,1,1-8.94,0m-56.39-32c15.42-15.77,37.73-26.27,61.45-26.27,46.94,0,85,38.3,85,85.54s-38,85.53-85,85.53-85-38.29-85-85.53a85.51,85.51,0,0,1,15.59-49.39m-91.66-99c47.34,0,85.73,17.87,85.73,39.9s-38.39,39.91-85.73,39.91S143,711.34,143,689.3s38.4-39.9,85.75-39.9m160.47-67.2c47.35,0,85.74,17.86,85.74,39.89S436.54,662,389.19,662s-85.73-17.86-85.73-39.9,38.38-39.89,85.73-39.89m146.54-57c0,47.66-17.75,86.28-39.65,86.28s-39.65-38.62-39.65-86.28,17.75-86.27,39.65-86.27,39.65,38.63,39.65,86.27"></path><path class="cls-4" d="M446.53,274.35H331.23V254.73h115.3Zm-129.18,7h143c6-5,0-7,0-7h-143s-5.29,2.65,0,7Zm79,113.38H381.44V281.33h14.87Zm-2.32,133v45.88H383.75V394.71H394V519m-.33,9.23h53.53V518.4H393.66s-6.77,4.32,0,9.81Zm-9.58,210.3V662h9.58V808.67h-9.58V747.82m.33,0H214.27v-9.31H384.41s8.26,5,0,9.31ZM260.52,727.53v11h-56.4v-11m212-145.33H363.27v-8.6h52.86Zm42.05-31.6H448.5V496.79h9.68M393.66,770.46a27.5,27.5,0,1,1-8.94,0m-56.39-32c15.42-15.77,37.73-26.27,61.45-26.27,46.94,0,85,38.3,85,85.54s-38,85.53-85,85.53-85-38.29-85-85.53a85.51,85.51,0,0,1,15.59-49.39m-91.66-99c47.34,0,85.73,17.87,85.73,39.9s-38.39,39.91-85.73,39.91S143,711.34,143,689.3s38.4-39.9,85.75-39.9Zm160.47-67.2c47.35,0,85.74,17.86,85.74,39.89S436.54,662,389.19,662s-85.73-17.86-85.73-39.9,38.38-39.89,85.73-39.89Zm146.54-57c0,47.66-17.75,86.28-39.65,86.28s-39.65-38.62-39.65-86.28,17.75-86.27,39.65-86.27,39.65,38.63,39.65,86.27Z"></path></svg> 