<?xml version="1.0" encoding="UTF-8"?> <svg xmlns="http://www.w3.org/2000/svg" id="Livello_1" data-name="Livello 1" viewBox="0 0 1368 1000.49"><defs><style>.cls-1{fill:#fff;}.cls-2,.cls-6,.cls-7{fill:none;stroke-width:0.25px;}.cls-2,.cls-7{stroke:#000;}.cls-3{font-size:75.84px;font-family:Roboto-Regular, Roboto;}.cls-4,.cls-5{font-size:94.81px;fill:#231f20;}.cls-4{font-family:Roboto-Bold, Roboto;font-weight:700;}.cls-5{font-family:Roboto-Light, Roboto;font-weight:300;}.cls-6{stroke:#231f20;}.cls-7{stroke-miterlimit:10;}</style></defs><title>mami ceiling small</title><rect class="cls-1" y="0.49" width="1368" height="1000"></rect><line class="cls-2" x1="158.12" y1="740.35" x2="892.57" y2="740.35"></line><line class="cls-2" x1="1100.12" y1="341.88" x2="1100.12" y2="644.5"></line><text class="cls-3" transform="translate(1225.64 535.9) rotate(-90)">30</text><text class="cls-3" transform="translate(443.5 861.44)">114</text><text class="cls-4" transform="translate(347.55 81.1)">1307-41</text><text class="cls-5" transform="translate(418.17 207.48)">small</text><path class="cls-1" d="M536.72,468.59h0a464.1,464.1,0,0,0-57.16,3.27L458.16,530c21.73,4.06,48.45,6.47,77.36,6.53"></path><path class="cls-6" d="M536.72,468.59h0a464.1,464.1,0,0,0-57.16,3.27L458.16,530c21.73,4.06,48.45,6.47,77.36,6.53"></path><path class="cls-1" d="M545.27,536.47c27.21-.43,52.23-3,72.58-6.94l-18.34-56.95a440.63,440.63,0,0,0-51.84-3.88"></path><path class="cls-6" d="M545.27,536.47c27.21-.43,52.23-3,72.58-6.94l-18.34-56.95a440.63,440.63,0,0,0-51.84-3.88"></path><path class="cls-1" d="M626.36,527.71a149.4,149.4,0,0,0,21.25-6.36l6.08-34.84c-10.34-5.05-24.24-9-42.72-12.17"></path><path class="cls-6" d="M626.36,527.71a149.4,149.4,0,0,0,21.25-6.36l6.08-34.84c-10.34-5.05-24.24-9-42.72-12.17"></path><path class="cls-1" d="M472.33,472.81c-38,5.36-64.71,14.21-68.44,25.82l15.56,19.94c8.19,4,18.53,7.25,32,10.11"></path><path class="cls-6" d="M472.33,472.81c-38,5.36-64.71,14.21-68.44,25.82l15.56,19.94c8.19,4,18.53,7.25,32,10.11"></path><path class="cls-1" d="M889.35,477.32c2.24,17-54.13,37.73-125.9,46.32s-131.76,1.74-134-15.25,54.14-37.73,125.91-46.31,131.76-1.75,134,15.24"></path><path class="cls-6" d="M747.85,525.28c-64.66,5.88-116.32-1.14-118.4-16.89-2.23-17,54.14-37.73,125.91-46.31s131.76-1.75,134,15.24c2,15.07-42.07,33.07-102.08,42.94"></path><path class="cls-1" d="M419.76,517.43c-3,16.9-63.2,21.4-134.54,10.05s-126.79-34.24-123.83-51.15,63.19-21.38,134.54-10,126.78,34.25,123.83,51.14"></path><path class="cls-6" d="M262.45,523.37c-60-12.17-103.69-32-101.06-47,3-16.88,63.19-21.38,134.54-10s126.78,34.25,123.83,51.14c-2.76,15.77-55.38,20.74-120.37,12.12"></path><polygon class="cls-1" points="526.14 540.03 537.3 578.91 535.86 540.03 526.14 540.03"></polygon><polygon class="cls-6" points="537.3 578.91 526.14 536.54 535.85 536.54 537.3 578.91"></polygon><path class="cls-1" d="M783.08,536.73,615.29,572.59c-9-5.73-2.7-10.32-2.7-10.32l14.7-4-29.41-93.56,11.38-1.5,27.64,92.19,144.56-31.71"></path><path class="cls-6" d="M783.08,536.73,615.29,572.59c-9-5.73-2.7-10.32-2.7-10.32l14.7-4-29.41-93.56,11.38-1.5,27.64,92.19,144.57-30.86"></path><path class="cls-1" d="M269.86,526.68l-2.75,12.06,195.7,40.17s11.4-3.45,3.91-10.34l-18.09-3.84"></path><path class="cls-6" d="M269.86,526.68l-2.75,12.06,195.7,40.17s11.4-3.45,3.91-10.34l-18.09-3.84"></path><line class="cls-6" x1="440.6" y1="563.03" x2="269.86" y2="526.68"></line><path class="cls-1" d="M449.48,559.5c-6.72,6.18-8.88-1.72-8.88-1.72l37.19-99.08,6.63,2.1-34.93,99.64"></path><path class="cls-6" d="M449.48,559.5c-6.72,6.18-8.88-1.72-8.88-1.72l37.19-99.08,6.63,2.1-34.93,99.64"></path><path class="cls-7" d="M301.5,523.72c-.42,2.48-9.74,3-20.83,1.16s-19.74-5.38-19.32-7.85,9.73-3,20.82-1.16,19.75,5.38,19.33,7.85"></path><path class="cls-1" d="M785,531.8c0,3-2.06,5.43-4.62,5.43s-4.61-2.43-4.61-5.43,2.07-5.41,4.61-5.41,4.62,2.43,4.62,5.41"></path><path class="cls-6" d="M785,530.86c0,3.52-2.06,6.37-4.62,6.37s-4.61-2.85-4.61-6.37,2.07-6.34,4.61-6.34S785,527.36,785,530.86Z"></path><line class="cls-6" x1="545.19" y1="574.88" x2="543.97" y2="571"></line><path class="cls-1" d="M546.42,577.94c0,2.77-2.58,5-5.77,5s-5.77-2.23-5.77-5,2.59-5,5.77-5,5.77,2.23,5.77,5"></path><path class="cls-6" d="M546.42,577.94c0,2.77-2.58,5-5.77,5s-5.77-2.23-5.77-5,2.59-5,5.77-5S546.42,575.18,546.42,577.94Z"></path><path class="cls-7" d="M789.3,521c.21,1.74-9,4.35-20.71,5.81s-21.27,1.23-21.49-.53,9-4.34,20.71-5.8,21.27-1.22,21.49.52"></path><path class="cls-1" d="M270.12,532.71c0,3.33-1.62,6-3.61,6s-3.6-2.7-3.6-6,1.61-6,3.6-6,3.61,2.71,3.61,6"></path><ellipse class="cls-6" cx="266.51" cy="532.71" rx="3.6" ry="6.03"></ellipse><polyline class="cls-1" points="495.22 404.43 474.21 462.4 487.42 465.29 509.04 404.43"></polyline><polyline class="cls-6" points="495.22 404.43 474.21 462.4 487.42 465.29 509.04 404.43"></polyline><path class="cls-1" d="M549.86,464.69l-.14,5.87-2.27,98c-4.34,2.89-11.4,0-11.4,0l2.56-98.14.14-5.74"></path><path class="cls-6" d="M549.86,464.69l-.14,5.87-2.27,98c-4.34,2.89-11.4,0-11.4,0l2.56-98.14.14-5.74"></path><rect class="cls-1" x="538.75" y="404.44" width="11.11" height="60.25"></rect><polyline class="cls-6" points="538.75 404.43 538.75 464.69 549.86 464.69 549.86 404.43"></polyline><polyline class="cls-1" points="578.66 404.43 597.88 464.69 609.89 462.4 591.87 404.43"></polyline><polyline class="cls-6" points="578.66 404.43 597.88 464.69 609.89 462.4 591.87 404.43"></polyline><rect class="cls-1" x="475.33" y="374.36" width="132.37" height="23.41"></rect><rect class="cls-6" x="475.33" y="374.36" width="132.37" height="19.73"></rect><polygon class="cls-7" points="627.89 399.56 493.66 399.56 456.99 399.56 456.99 394.1 627.89 394.1 627.89 399.56"></polygon><polygon class="cls-1" points="459.8 399.26 459.8 404.44 495.22 404.44 624.89 404.44 624.89 399.26 459.8 399.26"></polygon><polygon class="cls-6" points="624.89 404.43 495.22 404.43 459.8 404.43 459.8 399.26 624.89 399.26 624.89 404.43"></polygon></svg> 