<?xml version="1.0" encoding="UTF-8"?> <svg xmlns="http://www.w3.org/2000/svg" id="Livello_1" data-name="Livello 1" viewBox="0 0 912 1000.49"><defs><style>.cls-1{fill:#fff;}.cls-2{fill:#231f20;}.cls-3,.cls-4,.cls-5{fill:none;stroke-width:0.25px;}.cls-3,.cls-5{stroke:#000;}.cls-4{stroke:#231f20;}.cls-4,.cls-5{stroke-miterlimit:10;}</style></defs><title>mami sospensione medium</title><rect class="cls-1" y="0.49" width="912" height="1000"></rect><path class="cls-2" d="M359.07.52h-.87L341.13,6.67v6.62l9.75-3V41.84h8.19ZM380.79,24h4.36a10.57,10.57,0,0,1,2.84.35,8.22,8.22,0,0,1,2.15,1.1,5.7,5.7,0,0,1,1.33,1.91,8.37,8.37,0,0,1,.47,2.85,6.16,6.16,0,0,1-.47,2.32,4,4,0,0,1-1.22,1.74,4.46,4.46,0,0,1-2,1.16,7.23,7.23,0,0,1-2.61.41,6.4,6.4,0,0,1-2.38-.41,5.34,5.34,0,0,1-1.92-1.1,4.82,4.82,0,0,1-1.74-3.78h-8.18a10.83,10.83,0,0,0,1.22,5.29,11.12,11.12,0,0,0,3.19,3.71,13.93,13.93,0,0,0,4.47,2.2,19.17,19.17,0,0,0,5.16.7,20.75,20.75,0,0,0,5.81-.81,13.5,13.5,0,0,0,4.64-2.38A10.93,10.93,0,0,0,399,35.46a12.38,12.38,0,0,0,1.1-5.17,10.2,10.2,0,0,0-1.74-5.92,10.08,10.08,0,0,0-5.17-3.71A14.38,14.38,0,0,0,395.88,19a13.43,13.43,0,0,0,2-2.09,11.28,11.28,0,0,0,1.21-2.5,9.86,9.86,0,0,0,.41-2.61,12.12,12.12,0,0,0-1-5.11A10.36,10.36,0,0,0,395.59,3,13.34,13.34,0,0,0,391.18.75,21.94,21.94,0,0,0,385.49,0a17.47,17.47,0,0,0-5.28.81,14.38,14.38,0,0,0-4.29,2.27A11.2,11.2,0,0,0,373,6.62a10.24,10.24,0,0,0-1,4.64h8.19a4.39,4.39,0,0,1,1.62-3.37,5,5,0,0,1,1.8-.93,6.11,6.11,0,0,1,2.09-.34,6.38,6.38,0,0,1,2.49.4,4.55,4.55,0,0,1,1.75,1.1,4.2,4.2,0,0,1,1,1.69,6.11,6.11,0,0,1,.35,2.09A5.7,5.7,0,0,1,389.79,16a6.26,6.26,0,0,1-4.64,1.56h-4.36Zm52.72-6.33a27.09,27.09,0,0,0-1-8,14.3,14.3,0,0,0-2.85-5.45A10.65,10.65,0,0,0,425.21,1a14.89,14.89,0,0,0-5.68-1,15.16,15.16,0,0,0-5.69,1,10.53,10.53,0,0,0-4.35,3.14,14.3,14.3,0,0,0-2.85,5.45,27.09,27.09,0,0,0-1,8v7.14a26.94,26.94,0,0,0,1,7.95,15.49,15.49,0,0,0,2.85,5.51,10.65,10.65,0,0,0,4.41,3.14,15.11,15.11,0,0,0,5.68,1,14.94,14.94,0,0,0,5.69-1,10.71,10.71,0,0,0,4.41-3.14,15.32,15.32,0,0,0,2.84-5.51,28.85,28.85,0,0,0,1-7.95Zm-8.18,8.24a21.11,21.11,0,0,1-.41,4.64,9,9,0,0,1-1.1,3.08,4.13,4.13,0,0,1-1.8,1.68,5.86,5.86,0,0,1-4.87,0,4.13,4.13,0,0,1-1.8-1.68,9,9,0,0,1-1.16-3.08,25.28,25.28,0,0,1-.35-4.64V16.42a24.65,24.65,0,0,1,.35-4.58,8.73,8.73,0,0,1,1.1-3,4.94,4.94,0,0,1,1.8-1.68,5.68,5.68,0,0,1,2.44-.47,5.33,5.33,0,0,1,2.43.47,4.66,4.66,0,0,1,1.86,1.68,8.73,8.73,0,0,1,1.1,3,20.59,20.59,0,0,1,.41,4.58ZM467.08.58H438V7.2h20.48l-16,34.64h8.65l16-36.68Zm21.49,20.31H472.62v6.56h15.95Zm34.51,14.33H505.32l7.26-7.66c1.39-1.45,2.67-2.78,3.77-4.12a27.92,27.92,0,0,0,2.9-3.88,19.71,19.71,0,0,0,1.8-3.83,11.75,11.75,0,0,0,.7-4,13.55,13.55,0,0,0-.87-4.93,9.91,9.91,0,0,0-2.62-3.66A11.7,11.7,0,0,0,514.09.81,19.6,19.6,0,0,0,508.28,0a15.27,15.27,0,0,0-6,1.1A13.34,13.34,0,0,0,497.84,4a12.62,12.62,0,0,0-2.9,4.3,14.65,14.65,0,0,0-1,5.28h8.24a8.31,8.31,0,0,1,.41-2.79,6.41,6.41,0,0,1,1.1-2.2,5.25,5.25,0,0,1,1.91-1.45,5.73,5.73,0,0,1,2.56-.52,5,5,0,0,1,3.94,1.56,6.33,6.33,0,0,1,1.4,4.35,5.42,5.42,0,0,1-.29,1.86,10.12,10.12,0,0,1-.88,2.09,16.08,16.08,0,0,1-1.68,2.5,34.29,34.29,0,0,1-2.55,3L494.76,36.21v5.63h28.32Zm33.28,0H538.6l7.25-7.66c1.4-1.45,2.67-2.78,3.78-4.12a28.74,28.74,0,0,0,2.9-3.88,19.71,19.71,0,0,0,1.8-3.83,11.74,11.74,0,0,0,.69-4,13.55,13.55,0,0,0-.87-4.93,9.88,9.88,0,0,0-2.61-3.66A11.66,11.66,0,0,0,547.36.81a19.53,19.53,0,0,0-5.8-.81,15.32,15.32,0,0,0-6,1.1A13.44,13.44,0,0,0,531.11,4a12.91,12.91,0,0,0-2.9,4.3,14.64,14.64,0,0,0-1,5.28h8.24a8.32,8.32,0,0,1,.4-2.79,6.59,6.59,0,0,1,1.1-2.2,5.37,5.37,0,0,1,1.92-1.45,5.72,5.72,0,0,1,2.55-.52,5,5,0,0,1,3.95,1.56,6.33,6.33,0,0,1,1.39,4.35,5.42,5.42,0,0,1-.29,1.86,9.52,9.52,0,0,1-.87,2.09,16.83,16.83,0,0,1-1.68,2.5,36.12,36.12,0,0,1-2.55,3L528,36.21v5.63h28.32Z"></path><path class="cls-2" d="M346.75,88.5v30.64h3.42v-21a15.33,15.33,0,0,1,1.11-2.73,12,12,0,0,1,1.79-2.32,9.79,9.79,0,0,1,2.62-1.62,8.42,8.42,0,0,1,3.36-.58,10.44,10.44,0,0,1,3.08.4,5.8,5.8,0,0,1,2.32,1.28,5.73,5.73,0,0,1,1.57,2.5,12.44,12.44,0,0,1,.52,3.83v20.25H370V98.83a8.22,8.22,0,0,1,.7-2.73,10.66,10.66,0,0,1,1.74-2.55,9.66,9.66,0,0,1,2.78-1.92,8.41,8.41,0,0,1,3.72-.75,11.65,11.65,0,0,1,3,.35,5.1,5.1,0,0,1,2.38,1.33,6.18,6.18,0,0,1,1.56,2.55,12.88,12.88,0,0,1,.52,4v20h3.37v-20a16.39,16.39,0,0,0-.64-5.11,8.39,8.39,0,0,0-2-3.48,7.32,7.32,0,0,0-3.19-2,13.45,13.45,0,0,0-4.24-.64,12.79,12.79,0,0,0-3.42.46,11.76,11.76,0,0,0-2.9,1.22A10.45,10.45,0,0,0,371,91.52a13,13,0,0,0-1.74,2.32,8.11,8.11,0,0,0-3.43-4.53,11.42,11.42,0,0,0-5.8-1.39,10.85,10.85,0,0,0-3.14.4,10.43,10.43,0,0,0-2.72,1.11,8.31,8.31,0,0,0-2.27,1.74,11.75,11.75,0,0,0-1.79,2.32l-.12-5Zm67.15,30.76a10,10,0,0,0,3-1.17,9.79,9.79,0,0,0,2.32-1.68,15.66,15.66,0,0,0,1.8-2.15l-2.15-1.56a10,10,0,0,1-3.77,3.13,10.66,10.66,0,0,1-4.82,1,9.62,9.62,0,0,1-4.29-.93,10.36,10.36,0,0,1-3.31-2.61,11.72,11.72,0,0,1-2.15-3.83,14.43,14.43,0,0,1-.75-4.76v-.64h21.87V102a19.49,19.49,0,0,0-.81-5.63,12.51,12.51,0,0,0-2.32-4.47,11.27,11.27,0,0,0-3.83-2.9,12.16,12.16,0,0,0-5.16-1,11.43,11.43,0,0,0-5,1.1,13.77,13.77,0,0,0-4.18,3.13,14.41,14.41,0,0,0-2.9,4.88,18.63,18.63,0,0,0-1.05,6.44v1.22a16.79,16.79,0,0,0,1.05,6,13.3,13.3,0,0,0,2.84,4.76,12.16,12.16,0,0,0,4.35,3.08,13.26,13.26,0,0,0,5.51,1.16,14.45,14.45,0,0,0,3.72-.46Zm-.58-27.63a9.44,9.44,0,0,1,2.73,2.21A10.55,10.55,0,0,1,417.67,97a13.48,13.48,0,0,1,.64,3.77v.35h-18.4A15.6,15.6,0,0,1,401,96.91a10.57,10.57,0,0,1,2-3.25,10.18,10.18,0,0,1,2.9-2.14,9.13,9.13,0,0,1,3.6-.7,8.61,8.61,0,0,1,3.77.81Zm13.61,12.48a21.65,21.65,0,0,0,.81,6.32,15.46,15.46,0,0,0,2.32,4.94,11.54,11.54,0,0,0,3.71,3.19,10.74,10.74,0,0,0,4.94,1.16,12.28,12.28,0,0,0,5.68-1.22,11.53,11.53,0,0,0,3.89-3.42l.12,4.06h3.19V75.62h-3.37V92.79a11.47,11.47,0,0,0-3.88-3.59,11.22,11.22,0,0,0-5.58-1.28,10.53,10.53,0,0,0-4.93,1.1,11,11,0,0,0-3.77,3.13,15.46,15.46,0,0,0-2.32,4.94,22.22,22.22,0,0,0-.81,6.44Zm3.42-.58a22.61,22.61,0,0,1,.52-5,12.62,12.62,0,0,1,1.63-4,7.8,7.8,0,0,1,2.84-2.67,7.59,7.59,0,0,1,4.06-1,11,11,0,0,1,3.25.46,9.11,9.11,0,0,1,2.5,1.34,8.27,8.27,0,0,1,1.8,1.91,12.13,12.13,0,0,1,1.27,2.27v14.39a12.29,12.29,0,0,1-1.39,2.2,7.31,7.31,0,0,1-1.86,1.74,8.62,8.62,0,0,1-2.49,1.16,11.08,11.08,0,0,1-3.14.41,7.85,7.85,0,0,1-4-1,7.72,7.72,0,0,1-2.84-2.67,12.46,12.46,0,0,1-1.63-4,22.23,22.23,0,0,1-.52-5Zm34-15H460.9v30.64h3.42Zm-3.42-7.26a2.45,2.45,0,0,0,1.74.64,2.28,2.28,0,0,0,1.68-.64,2.1,2.1,0,0,0,.64-1.62,2,2,0,0,0-.64-1.62,2.11,2.11,0,0,0-1.68-.7,2.25,2.25,0,0,0-1.74.7,2.2,2.2,0,0,0-.58,1.62,2.29,2.29,0,0,0,.58,1.62Zm32.37,37.9h3.31V88.5h-3.43v22.17A11.33,11.33,0,0,1,492,113.1a6.38,6.38,0,0,1-1.85,1.92,8,8,0,0,1-2.73,1.28,13,13,0,0,1-3.6.46,8.65,8.65,0,0,1-2.73-.41,5.58,5.58,0,0,1-2.26-1.45,7.1,7.1,0,0,1-1.51-2.61,13.7,13.7,0,0,1-.58-4.12V88.5h-3.37v19.61a16,16,0,0,0,.76,5.34,9.39,9.39,0,0,0,2,3.6,8.26,8.26,0,0,0,3.19,2,13,13,0,0,0,4.12.64,13.15,13.15,0,0,0,5.92-1.22,9.9,9.9,0,0,0,3.83-3.25ZM505.13,88.5v30.64h3.43v-21a16.07,16.07,0,0,1,1.1-2.73,11.71,11.71,0,0,1,1.8-2.32,9.58,9.58,0,0,1,2.61-1.62,8.47,8.47,0,0,1,3.37-.58,10.37,10.37,0,0,1,3.07.4,5.6,5.6,0,0,1,3.89,3.78,12.14,12.14,0,0,1,.52,3.83v20.25h3.43V98.83A8.19,8.19,0,0,1,529,96.1a11.27,11.27,0,0,1,1.74-2.55,9.86,9.86,0,0,1,2.79-1.92,8.34,8.34,0,0,1,3.71-.75,11.6,11.6,0,0,1,3,.35,5.05,5.05,0,0,1,2.38,1.33,6.19,6.19,0,0,1,1.57,2.55,12.88,12.88,0,0,1,.52,4v20h3.37v-20a16.69,16.69,0,0,0-.64-5.11,8.51,8.51,0,0,0-2-3.48,7.27,7.27,0,0,0-3.19-2,13.43,13.43,0,0,0-4.23-.64,12.92,12.92,0,0,0-3.43.46,11.92,11.92,0,0,0-2.9,1.22,10.67,10.67,0,0,0-2.38,1.92,13,13,0,0,0-1.74,2.32,8.14,8.14,0,0,0-3.42-4.53,11.46,11.46,0,0,0-5.81-1.39,10.78,10.78,0,0,0-3.13.4,10.36,10.36,0,0,0-2.73,1.11,8.27,8.27,0,0,0-2.26,1.74,11.43,11.43,0,0,0-1.8,2.32l-.12-5Z"></path><path class="cls-3" d="M129.78,682.91H722M790.9,193.3v431"></path><path d="M839.77,414.82a11.28,11.28,0,0,0,0,14,8.54,8.54,0,0,0,6.59,2.69,7.68,7.68,0,0,0,4.4-1.3,9,9,0,0,0,3-3.43,8.81,8.81,0,0,0,3.25,4,8.42,8.42,0,0,0,4.82,1.43,8.71,8.71,0,0,0,6.81-2.82,12.69,12.69,0,0,0,0-15.26,8.62,8.62,0,0,0-6.81-2.87,8,8,0,0,0-4.82,1.53,9.12,9.12,0,0,0-3.25,4.08,8.92,8.92,0,0,0-3-3.52,7.59,7.59,0,0,0-4.4-1.3,8.37,8.37,0,0,0-6.59,2.69Zm26.38,2.41a7.37,7.37,0,0,1,0,9.22,5.86,5.86,0,0,1-4.41,1.67,6.19,6.19,0,0,1-4.54-1.71,6,6,0,0,1-1.71-4.55,6.38,6.38,0,0,1,1.76-4.59,6.1,6.1,0,0,1,4.49-1.76,5.89,5.89,0,0,1,4.41,1.72Zm-23.83.65a6.2,6.2,0,0,1,8.21-.05,5.27,5.27,0,0,1,1.53,4,5.44,5.44,0,0,1-1.53,4,6.41,6.41,0,0,1-8.25-.05,5.33,5.33,0,0,1-1.53-4,5.25,5.25,0,0,1,1.57-3.94Zm12.75-17.12-.88-1.11a6.91,6.91,0,0,1-1.21-4.31,6.06,6.06,0,0,1,2-4.78,7.67,7.67,0,0,1,5.33-1.81,8.31,8.31,0,0,1,5.47,1.67,5.62,5.62,0,0,1,2,4.59,6.18,6.18,0,0,1-1.44,4.31,6.56,6.56,0,0,1-4.26,2v4a9.75,9.75,0,0,0,6.72-3.15A10.43,10.43,0,0,0,871.2,395a10.07,10.07,0,0,0-2.92-7.69,11.35,11.35,0,0,0-8-2.74,11.73,11.73,0,0,0-8.06,2.64,9,9,0,0,0-3,7.14,10.36,10.36,0,0,0,1.44,5.52l-9-1V385.55h-3.89v16.88l16.46,1.67Z"></path><path d="M403.33,723.87h-.65l-12,4.49v3.8l8.43-3.1V757h4.22Zm33.9,29.66H420.68l8.81-9.59c4.17-4.45,6.21-8.35,6.21-11.59a8.31,8.31,0,0,0-2.64-6.4,10.47,10.47,0,0,0-7.28-2.41,10.68,10.68,0,0,0-7.83,2.83,9.51,9.51,0,0,0-3,7.32h4.22a6.88,6.88,0,0,1,1.71-5,6.63,6.63,0,0,1,4.87-1.76,5.51,5.51,0,0,1,4.17,1.67,5.9,5.9,0,0,1,1.53,4.22,7.91,7.91,0,0,1-.93,3.71,25.31,25.31,0,0,1-3.52,4.68L415.63,754v3h21.6ZM447,741.3l1.11-.88a6.91,6.91,0,0,1,4.31-1.21,6.08,6.08,0,0,1,4.78,2,7.7,7.7,0,0,1,1.8,5.33,8.29,8.29,0,0,1-1.66,5.47,5.63,5.63,0,0,1-4.59,2,6.22,6.22,0,0,1-4.31-1.44,6.57,6.57,0,0,1-2-4.26h-4a9.69,9.69,0,0,0,3.15,6.72,10.41,10.41,0,0,0,7.14,2.41,10.11,10.11,0,0,0,7.69-2.92,11.37,11.37,0,0,0,2.74-8,11.72,11.72,0,0,0-2.65-8.07,9.07,9.07,0,0,0-7.13-3,10.45,10.45,0,0,0-5.52,1.43l1-9h13.35V724H445.31l-1.67,16.45Z"></path><path class="cls-1" d="M523.23,569.84a99.62,99.62,0,0,1-12.88,4.83L504.56,537l1.81-2.42c9.08,2.36,16.55,5.17,22,8.32"></path><path class="cls-4" d="M523.23,569.84a99.62,99.62,0,0,1-12.88,4.83L504.56,537l1.81-2.42c9.08,2.36,16.55,5.17,22,8.32"></path><path class="cls-1" d="M357.86,577a94.41,94.41,0,0,1-21-7.74l-9.14-17.85c4.39-6.65,17-12.58,34.92-16.94"></path><path class="cls-4" d="M357.86,577a94.41,94.41,0,0,1-21-7.74l-9.14-17.85c4.39-6.65,17-12.58,34.92-16.94"></path><polygon class="cls-1" points="433.97 619.74 437.63 584.52 424.5 584.69 433.97 619.74"></polygon><polygon class="cls-4" points="433.97 619.74 437.63 584.52 424.5 584.69 433.97 619.74 433.97 619.74"></polygon><path class="cls-1" d="M217,572.85v10l157.18,34.46a7.81,7.81,0,0,0,1.8-9.69l-14.26-3.12"></path><path class="cls-4" d="M217,572.85v10l157.18,34.46a7.81,7.81,0,0,0,1.8-9.69l-14.26-3.12"></path><path class="cls-1" d="M720,536.11c1.8,12.74-42.87,28.6-99.77,35.43s-104.47,2-106.27-10.71,42.87-28.6,99.77-35.42,104.48-2,106.27,10.7"></path><path class="cls-4" d="M720,536.11c1.8,12.74-42.87,28.6-99.77,35.43s-104.47,2-106.27-10.71,42.87-28.6,99.77-35.42,104.48-2,106.27,10.7Z"></path><path class="cls-2" d="M636.19,568c.21,1.69-6.92,4-16,5.17s-16.52.77-16.74-.91,6.92-4,16-5.18,16.52-.76,16.74.92"></path><path class="cls-5" d="M636.19,568c.21,1.69-6.92,4-16,5.17s-16.52.77-16.74-.91,6.92-4,16-5.18,16.52-.76,16.74.92"></path><path class="cls-1" d="M338.85,566.24c-2.41,14.16-50.69,17.82-107.86,8.19S129.41,545.5,131.8,531.34s50.68-17.82,107.86-8.18,101.58,28.92,99.19,43.08"></path><path class="cls-4" d="M338.85,566.24c-2.41,14.16-50.69,17.82-107.86,8.19S129.41,545.5,131.8,531.34s50.68-17.82,107.86-8.18,101.58,28.92,99.19,43.08Z"></path><path class="cls-1" d="M441.4,584.52l-8.22.17h-.89c-25.22.21-48.39-2-66.62-5.84l-4.6-17.55,4.6-13.53,5.12-15.09c17.24-3.47,38.28-5.59,61-5.78h1.39l8.22,0c21.78.35,41.67,2.51,57.67,5.94"></path><path class="cls-4" d="M441.4,584.52l-8.22.17h-.89c-25.22.21-48.39-2-66.62-5.84l-4.6-17.55,4.6-13.53,5.12-15.09c17.24-3.47,38.28-5.59,61-5.78h1.39l8.22,0c21.78.35,41.67,2.51,57.67,5.94M615,575.32v-5l4.13-.89v5M354.7,603,217,572.85"></path><path class="cls-1" d="M441.4,616.09c0,3.47-1.69,6.29-3.77,6.29s-3.78-2.82-3.78-6.29,1.69-6.27,3.78-6.27,3.77,2.81,3.77,6.27"></path><path class="cls-4" d="M441.4,616.09c0,3.47-1.69,6.29-3.77,6.29s-3.78-2.82-3.78-6.29,1.69-6.27,3.78-6.27,3.77,2.81,3.77,6.27Z"></path><path class="cls-1" d="M391.4,268.46l-37,333.82s1.8,5.74,9,1.79l37.77-335.61"></path><path class="cls-4" d="M391.4,268.46l-37,333.82s1.8,5.74,9,1.79l37.77-335.61"></path><polyline class="cls-1" points="397.52 219.64 391.4 268.46 401.11 268.46 408.3 219.64"></polyline><polyline class="cls-4" points="397.52 219.64 391.4 268.46 401.11 268.46 408.3 219.64"></polyline><rect class="cls-1" x="432.77" y="219.64" width="11.87" height="50.97"></rect><rect class="cls-4" x="432.77" y="219.64" width="11.87" height="50.97"></rect><rect class="cls-1" x="371.61" y="214.61" width="132.01" height="5.03"></rect><rect class="cls-4" x="371.62" y="214.62" width="132.01" height="5.03"></rect><rect class="cls-1" x="385.65" y="195.23" width="102.87" height="19.39"></rect><path class="cls-4" d="M385.65,214.62H488.52V195.23H385.65ZM633.17,565.79c.21,1.67-6.85,4-15.76,5.11s-16.32.75-16.54-.92,6.83-3.94,15.75-5.09,16.33-.76,16.55.9Z"></path><path class="cls-2" d="M248.12,575.17c-.38,2.28-8,2.9-16.94,1.39s-15.93-4.6-15.55-6.88,8-2.9,17-1.38,15.93,4.59,15.54,6.87"></path><path class="cls-5" d="M248.12,575.17c-.38,2.28-8,2.9-16.94,1.39s-15.93-4.6-15.55-6.88,8-2.9,17-1.38,15.93,4.59,15.54,6.87"></path><path class="cls-4" d="M228.92,574.06v-1.2h3v1.2m13.22-.57c-.31.9-6.49,1.14-13.79.54s-13-1.78-12.65-2.67,6.49-1.13,13.79-.53,13,1.78,12.65,2.66Z"></path><path class="cls-1" d="M220.19,577.87c0,3-1.46,5.39-3.23,5.39s-3.25-2.41-3.25-5.39,1.45-5.38,3.25-5.38,3.23,2.4,3.23,5.38"></path><path class="cls-4" d="M220.19,577.87c0,3-1.46,5.39-3.24,5.39s-3.24-2.41-3.24-5.39,1.44-5.38,3.24-5.38,3.24,2.4,3.24,5.38Z"></path><path class="cls-1" d="M633.84,575.72c0,3-1.45,5.38-3.25,5.38s-3.23-2.41-3.23-5.38,1.45-5.39,3.23-5.39,3.25,2.41,3.25,5.39"></path><path class="cls-4" d="M633.84,575.72c0,3-1.45,5.38-3.25,5.38s-3.23-2.41-3.23-5.38,1.45-5.39,3.23-5.39,3.25,2.41,3.25,5.39Z"></path><polyline class="cls-1" points="466.22 219.64 472.69 268.46 484.57 268.46 477.37 219.64"></polyline><polyline class="cls-4" points="466.22 219.64 472.69 268.46 484.57 268.46 477.37 219.64"></polyline><path class="cls-1" d="M498.53,532.76l4,44.08c-16.55,4.14-37.75,6.93-61.13,7.68"></path><path class="cls-4" d="M498.53,532.76l4,44.08c-16.55,4.14-37.75,6.93-61.13,7.68"></path><path class="cls-1" d="M511.18,597.26l115.47-24.41,3.94,8.25L495.71,612.33c-7.19-4-2.51-11.31-2.51-11.31l11.5-1.62-32-330.94h10.08L513,597.26"></path><path class="cls-4" d="M511.18,597.26l115.46-24.41,4,8.25L495.71,612.33c-7.19-4-2.52-11.31-2.52-11.31l11.51-1.62-32-330.94h10.08L513,597.26"></path><polyline class="cls-1" points="432.77 270.61 433.85 616.63 441.39 614.73 444.64 270.61"></polyline><polyline class="cls-4" points="432.77 270.61 433.85 616.63 441.39 614.73 444.64 270.61"></polyline></svg> 