<?xml version="1.0" encoding="UTF-8"?> <svg xmlns="http://www.w3.org/2000/svg" id="Livello_1" data-name="Livello 1" viewBox="0 0 912 1000.49"><defs><style>.cls-1{fill:#fff;}.cls-2{fill:#231f20;}.cls-3,.cls-4{fill:none;stroke-width:0.25px;}.cls-3{stroke:#000;}.cls-4{stroke:#231f20;stroke-miterlimit:10;}</style></defs><title>mami asta fissa large</title><rect class="cls-1" y="0.49" width="912" height="1000"></rect><path class="cls-2" d="M261.92.59h-1l-19.36,7v7.51l11.07-3.42V47.49h9.28ZM286.58,27.2h4.94a12.11,12.11,0,0,1,3.23.4,9.51,9.51,0,0,1,2.44,1.25A6.36,6.36,0,0,1,298.7,31a9.46,9.46,0,0,1,.53,3.23,6.93,6.93,0,0,1-.53,2.63,4.47,4.47,0,0,1-1.38,2,5.16,5.16,0,0,1-2.24,1.32,8.22,8.22,0,0,1-3,.46,7.23,7.23,0,0,1-2.7-.46,6.14,6.14,0,0,1-2.18-1.25,5.37,5.37,0,0,1-2-4.28H276a12.25,12.25,0,0,0,1.38,6A12.42,12.42,0,0,0,281,44.85a15.93,15.93,0,0,0,5.07,2.51,22.31,22.31,0,0,0,5.86.79,23.58,23.58,0,0,0,6.59-.92,15.35,15.35,0,0,0,5.26-2.71,12.24,12.24,0,0,0,3.5-4.28,13.89,13.89,0,0,0,1.25-5.86,11,11,0,0,0-7.84-10.93,16,16,0,0,0,3-1.91A15.6,15.6,0,0,0,306,19.17a12.82,12.82,0,0,0,1.38-2.84,11.2,11.2,0,0,0,.46-3,13.66,13.66,0,0,0-1.18-5.8,11.89,11.89,0,0,0-3.23-4.15,15.1,15.1,0,0,0-5-2.56A24.48,24.48,0,0,0,291.92,0a19.72,19.72,0,0,0-6,.92,16.3,16.3,0,0,0-4.88,2.57,13,13,0,0,0-3.29,4,11.69,11.69,0,0,0-1.19,5.27h9.29a4.84,4.84,0,0,1,.53-2.18A4.78,4.78,0,0,1,287.7,9a5.64,5.64,0,0,1,2.05-1.06,6.93,6.93,0,0,1,2.37-.39A7.27,7.27,0,0,1,295,8a4.94,4.94,0,0,1,2,1.25,4.67,4.67,0,0,1,1.19,1.91,7,7,0,0,1,.4,2.37,6.49,6.49,0,0,1-1.72,4.68A7.08,7.08,0,0,1,291.52,20h-4.94ZM346.42,20a30.5,30.5,0,0,0-1.19-9.09A16.21,16.21,0,0,0,342,4.74a12.15,12.15,0,0,0-5-3.55A16.82,16.82,0,0,0,330.54,0a17.06,17.06,0,0,0-6.45,1.19,11.87,11.87,0,0,0-4.94,3.55,16.36,16.36,0,0,0-3.23,6.19A30.53,30.53,0,0,0,314.74,20v8.1a30.29,30.29,0,0,0,1.18,9,17.6,17.6,0,0,0,3.23,6.26,12.09,12.09,0,0,0,5,3.55,18.1,18.1,0,0,0,12.91,0,12.05,12.05,0,0,0,5-3.55,17.6,17.6,0,0,0,3.23-6.26,32.92,32.92,0,0,0,1.12-9Zm-9.29,9.36a24.1,24.1,0,0,1-.46,5.27,10.18,10.18,0,0,1-1.25,3.49,4.77,4.77,0,0,1-2,1.91,6.8,6.8,0,0,1-5.54,0,4.77,4.77,0,0,1-2-1.91,10.35,10.35,0,0,1-1.32-3.49,30.11,30.11,0,0,1-.39-5.27V18.64a29.18,29.18,0,0,1,.39-5.2A9.94,9.94,0,0,1,325.74,10a5.67,5.67,0,0,1,2-1.91,6.54,6.54,0,0,1,2.76-.53,6.18,6.18,0,0,1,2.77.53A5.34,5.34,0,0,1,335.42,10a9.75,9.75,0,0,1,1.25,3.43,23.36,23.36,0,0,1,.46,5.2ZM384.52.66H351.45V8.17H374.7L356.59,47.49h9.81L384.52,5.86Zm24.39,23.05H390.8v7.44h18.11ZM448.08,40H427.92l8.24-8.69c1.58-1.65,3-3.17,4.28-4.68a31.5,31.5,0,0,0,3.29-4.41,21.3,21.3,0,0,0,2-4.35,13.12,13.12,0,0,0,.79-4.55,15.52,15.52,0,0,0-1-5.59,11.16,11.16,0,0,0-3-4.15A13.21,13.21,0,0,0,437.87.92,22.17,22.17,0,0,0,431.28,0a17.39,17.39,0,0,0-6.78,1.25,15,15,0,0,0-5.07,3.29,14.53,14.53,0,0,0-3.3,4.88,16.76,16.76,0,0,0-1.12,6h9.36a9.38,9.38,0,0,1,.46-3.16,7.25,7.25,0,0,1,1.25-2.5,6,6,0,0,1,2.17-1.65,6.58,6.58,0,0,1,2.9-.59,5.69,5.69,0,0,1,4.48,1.78,7.18,7.18,0,0,1,1.58,4.94,5.89,5.89,0,0,1-.33,2.1,11.64,11.64,0,0,1-1,2.38A19.85,19.85,0,0,1,434,21.54,39.44,39.44,0,0,1,431.09,25L415.94,41.1v6.39h32.14ZM485.58.66H452.52V8.17h23.25L457.66,47.49h9.81L485.58,5.86Z"></path><path class="cls-2" d="M300.53,85.83h-3.89v49.39h3.89ZM337,135.22v-.39a13.33,13.33,0,0,1-.46-1.45c-.13-.53-.2-1.12-.33-1.71s-.13-1.19-.19-1.85A16.79,16.79,0,0,1,336,128V111.12a12.51,12.51,0,0,0-.92-4.94,9.68,9.68,0,0,0-2.64-3.56,11.36,11.36,0,0,0-3.95-2.11,16.35,16.35,0,0,0-5.14-.72,16.16,16.16,0,0,0-5.46.85,15.45,15.45,0,0,0-4.22,2.31,10.79,10.79,0,0,0-2.7,3.29A7.56,7.56,0,0,0,310,110l3.82.06a5.76,5.76,0,0,1,.72-2.76,7.64,7.64,0,0,1,1.91-2.24,9,9,0,0,1,3-1.45,11,11,0,0,1,3.69-.59q4.44,0,6.71,2.17a7.57,7.57,0,0,1,2.31,5.86v4H325a29.07,29.07,0,0,0-6.66.73,15.23,15.23,0,0,0-5,2.24,9.81,9.81,0,0,0-3.43,11.92,9.3,9.3,0,0,0,2.24,3.16,10.78,10.78,0,0,0,3.56,2.11,14.7,14.7,0,0,0,4.61.72,17,17,0,0,0,3.82-.46,21.85,21.85,0,0,0,3.29-1.18,12.59,12.59,0,0,0,2.64-1.78,10.4,10.4,0,0,0,2-2.11c.06.92.13,1.78.26,2.7a8.72,8.72,0,0,0,.53,2.17Zm-19.43-3.29a7.79,7.79,0,0,1-2.5-1.45,5.66,5.66,0,0,1-1.52-2.17,6,6,0,0,1-.59-2.64,6.5,6.5,0,0,1,.86-3.22,6.82,6.82,0,0,1,2.5-2.44,12.11,12.11,0,0,1,3.95-1.52,21.63,21.63,0,0,1,5.27-.52h6.59v7.64a11.83,11.83,0,0,1-1.71,2.7,13.71,13.71,0,0,1-2.51,2.17,13.08,13.08,0,0,1-3.22,1.45,14.62,14.62,0,0,1-3.89.53,9.72,9.72,0,0,1-3.23-.53Zm44.82-31.75a8.34,8.34,0,0,0-1.12-.26,10.15,10.15,0,0,0-1.45-.13,10,10,0,0,0-5.92,1.65A11.92,11.92,0,0,0,350,106l-.07-5.53h-3.75v34.77H350v-23.9a16.8,16.8,0,0,1,1.32-3.17,9,9,0,0,1,2-2.43,8.29,8.29,0,0,1,2.77-1.65,9.9,9.9,0,0,1,3.55-.59,15.91,15.91,0,0,1,2.57.19Zm4.39,18a24.51,24.51,0,0,0,.93,7.17,16.12,16.12,0,0,0,2.63,5.6,13.05,13.05,0,0,0,4.22,3.63,12,12,0,0,0,5.59,1.31,13.88,13.88,0,0,0,6.39-1.38,12,12,0,0,0,4.35-3.75v4a14.62,14.62,0,0,1-.66,4.68,8.92,8.92,0,0,1-2,3.42A8.06,8.06,0,0,1,385,145.1a12.29,12.29,0,0,1-4.34.73,11.44,11.44,0,0,1-5.21-1.19,14.85,14.85,0,0,1-4.54-3.82l-2.11,2.31a11.31,11.31,0,0,0,2.44,2.63,17.29,17.29,0,0,0,3,1.85,19.93,19.93,0,0,0,3.29,1.12,14.73,14.73,0,0,0,3.36.33,15.8,15.8,0,0,0,5.73-1,12.42,12.42,0,0,0,4.41-2.83,13.21,13.21,0,0,0,2.77-4.55,17.41,17.41,0,0,0,1-6.06V100.45h-3.62l-.2,5a12.57,12.57,0,0,0-4.41-4.15,12.29,12.29,0,0,0-6.39-1.51,12.06,12.06,0,0,0-5.66,1.25,12.83,12.83,0,0,0-4.22,3.56,16.12,16.12,0,0,0-2.63,5.6,25.17,25.17,0,0,0-.93,7.31Zm3.89-.66a26.1,26.1,0,0,1,.59-5.67,14.34,14.34,0,0,1,1.85-4.54,8.8,8.8,0,0,1,3.22-3,8.59,8.59,0,0,1,4.61-1.12,12.73,12.73,0,0,1,3.69.52,10.9,10.9,0,0,1,2.84,1.52,10.67,10.67,0,0,1,2,2.17,11.5,11.5,0,0,1,1.38,2.64v16.13a12.22,12.22,0,0,1-1.51,2.57,8.79,8.79,0,0,1-2.11,2,10.48,10.48,0,0,1-2.83,1.38,12,12,0,0,1-3.56.46,8.92,8.92,0,0,1-4.55-1.12,8.8,8.8,0,0,1-3.22-3,14.34,14.34,0,0,1-1.85-4.54,25.62,25.62,0,0,1-.59-5.66Zm51.87,17.85A11.49,11.49,0,0,0,426,134a11.32,11.32,0,0,0,2.63-1.91,17.12,17.12,0,0,0,2.05-2.44l-2.44-1.78a11.31,11.31,0,0,1-4.28,3.56,12.14,12.14,0,0,1-5.47,1.12,11,11,0,0,1-4.87-1.05,11.9,11.9,0,0,1-3.76-3,13.23,13.23,0,0,1-2.43-4.35,16.09,16.09,0,0,1-.86-5.4v-.72h24.83v-2.37a22.12,22.12,0,0,0-.92-6.39,14.16,14.16,0,0,0-2.64-5.07,12.56,12.56,0,0,0-4.34-3.3,13.75,13.75,0,0,0-5.86-1.18,12.89,12.89,0,0,0-5.67,1.25,15.4,15.4,0,0,0-4.74,3.56,16.49,16.49,0,0,0-3.29,5.53,21.27,21.27,0,0,0-1.19,7.31v1.38a19.13,19.13,0,0,0,1.19,6.85,15.23,15.23,0,0,0,3.22,5.4,13.8,13.8,0,0,0,4.94,3.5,15.08,15.08,0,0,0,6.26,1.31,16.47,16.47,0,0,0,4.22-.52ZM421.88,104a10.48,10.48,0,0,1,3.09,2.51,11.8,11.8,0,0,1,1.85,3.62,15.17,15.17,0,0,1,.72,4.28v.4H406.66a18,18,0,0,1,1.25-4.81,12.34,12.34,0,0,1,2.31-3.69,11.87,11.87,0,0,1,3.29-2.44,10.65,10.65,0,0,1,4.09-.79,9.8,9.8,0,0,1,4.28.92Z"></path><path class="cls-3" d="M140.63,907.77H533M769.54,221.49V853"></path><path d="M822.59,562.86v.74l5.1,13.63H832l-3.52-9.58h31.67v-4.79Zm0-29.58V534l5.1,13.62H832l-3.52-9.57h31.67v-4.79Zm19.78-20-1-1.26a7.81,7.81,0,0,1-1.37-4.89,6.91,6.91,0,0,1,2.26-5.42,8.7,8.7,0,0,1,6-2.05,9.42,9.42,0,0,1,6.21,1.89,6.36,6.36,0,0,1,2.26,5.21,7,7,0,0,1-1.63,4.89,7.52,7.52,0,0,1-4.84,2.27v4.52a11,11,0,0,0,7.63-3.58,11.8,11.8,0,0,0,2.74-8.1c0-3.74-1.11-6.63-3.32-8.73s-5.26-3.11-9.1-3.11-6.89,1-9.15,3a10.28,10.28,0,0,0-3.37,8.1,11.77,11.77,0,0,0,1.63,6.26l-10.21-1.1V496.07h-4.42v19.15l18.68,1.89Z"></path><path d="M334.53,954.41H309.27v3.89h20.21l-15.42,33.51h5l15.47-34.72Zm28.9,15.31c-.06-5.42-1.06-9.37-2.95-12s-4.84-3.89-8.89-3.89-7,1.32-8.95,4-2.84,6.79-2.84,12.26v6.36c.06,5.27,1.06,9.21,3,11.9s4.84,3.94,8.84,3.94,7.05-1.37,8.95-4.05,2.84-6.84,2.84-12.42Zm-4.74,7.42c-.05,3.89-.68,6.78-1.79,8.57a6.36,6.36,0,0,1-10.57-.16c-1.16-1.94-1.79-4.89-1.79-8.94V969c0-3.79.63-6.63,1.73-8.47a5.75,5.75,0,0,1,5.32-2.74,5.82,5.82,0,0,1,5.37,2.79c1.15,1.84,1.73,4.74,1.73,8.79Z"></path><path class="cls-1" d="M382.11,706.69s7.6,5.49,0,9.31m61.47-473.12H329.88V224.25h113.7Zm10.58,4.33H316.66c-6.28-2.49,0-4.33,0-4.33h137.5s6.11,2,0,4.33M393.51,362.67H379.64V247.22h13.87Zm-1.64,133.19v44.3H381.28V362.67h10.59V487.76m.82,8.1h53.54v-8.1H392.69s-10.74,3.39,0,8.1M382.11,707.69V629.46h9.08v147.1h-9.08V716M320,716a84.93,84.93,0,0,0-16.54,50.5c0,46.91,37.77,84.91,84.35,84.91s84.36-38,84.36-84.91-37.77-84.9-84.36-84.9a83.85,83.85,0,0,0-59.87,25.09H212.22V716H382.11v-9.31H327.93m84.91,58.72A25.29,25.29,0,1,1,387.57,740a25.37,25.37,0,0,1,25.27,25.46M454.16,517.7h-7.93V463.8h7.93Zm-41.65,34.57h-51.9V541h51.9ZM257.17,706.69H200.32v-11h56.85Zm-30.06-88.2c46.55,0,84.28,17.28,84.28,38.6s-37.73,38.59-84.28,38.59-84.28-17.27-84.28-38.59,37.73-38.6,84.28-38.6m160.75-66.22c46.55,0,84.29,17.28,84.29,38.6s-37.74,38.59-84.29,38.59-84.28-17.28-84.28-38.59,37.73-38.6,84.28-38.6m143-58.85c0,46.86-17.15,84.84-38.33,84.84s-38.35-38-38.35-84.84,17.17-84.84,38.35-84.84,38.33,38,38.33,84.84"></path><path class="cls-4" d="M382.11,706.69s7.6,5.49,0,9.31m61.47-473.12H329.88V224.25h113.7Zm10.58,4.33H316.66c-6.28-2.49,0-4.33,0-4.33h137.5s6.11,2,0,4.33ZM393.51,362.67H379.63V247.22h13.88Zm-1.64,133.19v44.3H381.28V362.67h10.59V487.76m.81,8.1h53.55v-8.1H392.68s-10.74,3.39,0,8.1ZM382.11,707.69V629.46h9.08v147.1h-9.08V716M320,716a84.93,84.93,0,0,0-16.54,50.5c0,46.91,37.77,84.91,84.35,84.91s84.35-38,84.35-84.91-37.76-84.9-84.35-84.9a83.83,83.83,0,0,0-59.87,25.09H212.22V716H382.11v-9.31H327.93m84.91,58.72A25.29,25.29,0,1,1,387.56,740a25.37,25.37,0,0,1,25.28,25.46ZM454.16,517.7h-7.93V463.8h7.93Zm-41.65,34.57h-51.9V541h51.9ZM257.17,706.69H200.32v-11h56.85Zm-30.06-88.2c46.55,0,84.28,17.28,84.28,38.6s-37.73,38.59-84.28,38.59-84.28-17.27-84.28-38.59,37.73-38.6,84.28-38.6Zm160.75-66.22c46.55,0,84.28,17.28,84.28,38.6s-37.73,38.59-84.28,38.59-84.28-17.28-84.28-38.59,37.73-38.6,84.28-38.6Zm143-58.85c0,46.86-17.16,84.84-38.33,84.84s-38.35-38-38.35-84.84,17.17-84.84,38.35-84.84,38.33,38,38.33,84.84Z"></path></svg> 