<?xml version="1.0" encoding="UTF-8"?> <svg xmlns="http://www.w3.org/2000/svg" id="Livello_1" data-name="Livello 1" viewBox="0 0 912 1000.49"><defs><style>.cls-1{fill:#fff;}.cls-2{fill:#231f20;}.cls-3,.cls-4,.cls-5{fill:none;stroke-width:0.25px;}.cls-3,.cls-5{stroke:#000;}.cls-4{stroke:#231f20;}.cls-5{stroke-miterlimit:10;}</style></defs><title>mami sospensione small</title><rect class="cls-1" y="0.49" width="912" height="1000"></rect><path class="cls-2" d="M341.07.52h-.87L323.14,6.67v6.62l9.75-3V41.84h8.18ZM362.8,24h4.35a10.65,10.65,0,0,1,2.85.35,8.16,8.16,0,0,1,2.14,1.1,5.72,5.72,0,0,1,1.34,1.91,8.39,8.39,0,0,1,.46,2.85,6.15,6.15,0,0,1-.46,2.32,4.07,4.07,0,0,1-1.22,1.74,4.46,4.46,0,0,1-2,1.16,7.32,7.32,0,0,1-2.62.41,6.44,6.44,0,0,1-2.38-.41,5.21,5.21,0,0,1-1.91-1.1,4.74,4.74,0,0,1-1.74-3.78h-8.18a10.72,10.72,0,0,0,1.22,5.29,11,11,0,0,0,3.19,3.71,13.73,13.73,0,0,0,4.47,2.2,19.17,19.17,0,0,0,5.16.7,20.68,20.68,0,0,0,5.8-.81A13.64,13.64,0,0,0,378,39.23,10.91,10.91,0,0,0,381,35.46a12.22,12.22,0,0,0,1.1-5.17,10.2,10.2,0,0,0-1.74-5.92,10.05,10.05,0,0,0-5.16-3.71A14.72,14.72,0,0,0,377.89,19a13.84,13.84,0,0,0,2-2.09,11.32,11.32,0,0,0,1.22-2.5,10.28,10.28,0,0,0,.41-2.61,12,12,0,0,0-1.05-5.11A10.33,10.33,0,0,0,377.6,3,13.34,13.34,0,0,0,373.19.75,21.94,21.94,0,0,0,367.5,0a17.38,17.38,0,0,0-5.28.81,14.32,14.32,0,0,0-4.3,2.27A11.48,11.48,0,0,0,355,6.62a10.36,10.36,0,0,0-1,4.64h8.18a4.26,4.26,0,0,1,.47-1.92,4.09,4.09,0,0,1,1.16-1.45A5,5,0,0,1,365.58,7a6.15,6.15,0,0,1,2.09-.34,6.46,6.46,0,0,1,2.5.4,4.43,4.43,0,0,1,1.74,1.1,4.2,4.2,0,0,1,1,1.69,5.88,5.88,0,0,1,.35,2.09A5.7,5.7,0,0,1,371.79,16a6.24,6.24,0,0,1-4.64,1.56H362.8Zm52.72-6.33a26.74,26.74,0,0,0-1-8,14.29,14.29,0,0,0-2.84-5.45A10.71,10.71,0,0,0,407.22,1a14.94,14.94,0,0,0-5.69-1,15.16,15.16,0,0,0-5.69,1,10.53,10.53,0,0,0-4.35,3.14,14.29,14.29,0,0,0-2.84,5.45,26.74,26.74,0,0,0-1,8v7.14a26.59,26.59,0,0,0,1,7.95,15.32,15.32,0,0,0,2.84,5.51,10.71,10.71,0,0,0,4.41,3.14,15.16,15.16,0,0,0,5.69,1,15,15,0,0,0,5.69-1,10.71,10.71,0,0,0,4.41-3.14,15.48,15.48,0,0,0,2.84-5.51,28.85,28.85,0,0,0,1-7.95Zm-8.19,8.24a21.18,21.18,0,0,1-.4,4.64,9,9,0,0,1-1.1,3.08,4.24,4.24,0,0,1-1.8,1.68,5.88,5.88,0,0,1-4.88,0,4.24,4.24,0,0,1-1.8-1.68,9,9,0,0,1-1.16-3.08,26.2,26.2,0,0,1-.35-4.64V16.42a25.55,25.55,0,0,1,.35-4.58,8.73,8.73,0,0,1,1.1-3,5.1,5.1,0,0,1,1.8-1.68,5.71,5.71,0,0,1,2.44-.47,5.38,5.38,0,0,1,2.44.47,4.79,4.79,0,0,1,1.86,1.68,8.73,8.73,0,0,1,1.1,3,20.66,20.66,0,0,1,.4,4.58ZM449.08.58H420V7.2h20.49l-16,34.64h8.65L449.08,5.16Zm21.5,20.31h-16v6.56h16Zm34.51,14.33H487.33l7.25-7.66c1.4-1.45,2.67-2.78,3.77-4.12a28.85,28.85,0,0,0,2.91-3.88,19.09,19.09,0,0,0,1.79-3.83,11.51,11.51,0,0,0,.7-4,13.55,13.55,0,0,0-.87-4.93,9.88,9.88,0,0,0-2.61-3.66A11.66,11.66,0,0,0,496.09.81a19.53,19.53,0,0,0-5.8-.81,15.32,15.32,0,0,0-6,1.1A13.44,13.44,0,0,0,479.84,4a12.91,12.91,0,0,0-2.9,4.3,14.65,14.65,0,0,0-1,5.28h8.24a8.31,8.31,0,0,1,.41-2.79,6.59,6.59,0,0,1,1.1-2.2,5.28,5.28,0,0,1,1.92-1.45,5.69,5.69,0,0,1,2.55-.52,5.06,5.06,0,0,1,3.95,1.56,6.33,6.33,0,0,1,1.39,4.35,5.42,5.42,0,0,1-.29,1.86,9.52,9.52,0,0,1-.87,2.09,17.65,17.65,0,0,1-1.68,2.5,34.56,34.56,0,0,1-2.56,3L476.77,36.21v5.63h28.32ZM530,.52h-.87L512,6.67v6.62l9.75-3V41.84H530Z"></path><path class="cls-2" d="M382.8,113.39a5.51,5.51,0,0,1-1.51,1.8,11.11,11.11,0,0,1-2.49,1.22,12.36,12.36,0,0,1-3.43.41,12.74,12.74,0,0,1-2.9-.29,8.42,8.42,0,0,1-2.73-1,5.79,5.79,0,0,1-2-1.91,6,6,0,0,1-.93-3h-3.42a7.82,7.82,0,0,0,.81,3.42,8.56,8.56,0,0,0,2.32,3,11.63,11.63,0,0,0,3.72,2,17.73,17.73,0,0,0,5.16.75,16.59,16.59,0,0,0,4.7-.64,10.19,10.19,0,0,0,3.54-1.74,8.33,8.33,0,0,0,2.32-2.67,7.53,7.53,0,0,0,.76-3.48,7.29,7.29,0,0,0-.64-3.25,6.65,6.65,0,0,0-1.92-2.5,14.24,14.24,0,0,0-3.36-1.91,31.3,31.3,0,0,0-4.76-1.39,34,34,0,0,1-4.18-1.22,8.85,8.85,0,0,1-2.49-1.34A3,3,0,0,1,368.12,98a4.85,4.85,0,0,1-.35-1.86,4.66,4.66,0,0,1,.46-1.92,4.72,4.72,0,0,1,1.28-1.74,8.07,8.07,0,0,1,2.32-1.22,11.8,11.8,0,0,1,6.73.06,7.25,7.25,0,0,1,2.5,1.4,5.74,5.74,0,0,1,1.57,2,5.49,5.49,0,0,1,.52,2.32h3.36a8.44,8.44,0,0,0-.75-3.66,8.92,8.92,0,0,0-2.21-2.9A11.28,11.28,0,0,0,380,88.61a15.1,15.1,0,0,0-4.76-.69,14.69,14.69,0,0,0-4.47.64,10.86,10.86,0,0,0-3.42,1.8A7.68,7.68,0,0,0,365.16,93a7,7,0,0,0-.76,3.24,7.27,7.27,0,0,0,.7,3.25,6.17,6.17,0,0,0,2.09,2.38,12,12,0,0,0,3.37,1.74,33.67,33.67,0,0,0,4.52,1.22,24.93,24.93,0,0,1,4.18,1.28,8.53,8.53,0,0,1,2.5,1.57,5.24,5.24,0,0,1,1.21,1.74,5.37,5.37,0,0,1,.35,1.91,4.17,4.17,0,0,1-.52,2ZM394.09,88.5v30.64h3.42v-21a16.07,16.07,0,0,1,1.1-2.73,12.5,12.5,0,0,1,1.8-2.32A9.89,9.89,0,0,1,403,91.46a8.47,8.47,0,0,1,3.37-.58,10.44,10.44,0,0,1,3.08.4,5.8,5.8,0,0,1,2.32,1.28,5.72,5.72,0,0,1,1.56,2.5,12.12,12.12,0,0,1,.53,3.83v20.25h3.42V98.83a8.22,8.22,0,0,1,.7-2.73,10.66,10.66,0,0,1,1.74-2.55,9.66,9.66,0,0,1,2.78-1.92,8.38,8.38,0,0,1,3.72-.75,11.57,11.57,0,0,1,3,.35,5.05,5.05,0,0,1,2.38,1.33,6.19,6.19,0,0,1,1.57,2.55,12.88,12.88,0,0,1,.52,4v20h3.37v-20a16.69,16.69,0,0,0-.64-5.11,8.39,8.39,0,0,0-2-3.48,7.32,7.32,0,0,0-3.19-2,13.45,13.45,0,0,0-4.24-.64,12.92,12.92,0,0,0-3.43.46,11.92,11.92,0,0,0-2.9,1.22,10.67,10.67,0,0,0-2.38,1.92,14.05,14.05,0,0,0-1.74,2.32,8.09,8.09,0,0,0-3.42-4.53,11.45,11.45,0,0,0-5.8-1.39,10.81,10.81,0,0,0-3.14.4,10.43,10.43,0,0,0-2.72,1.11,8.17,8.17,0,0,0-2.27,1.74,12.18,12.18,0,0,0-1.8,2.32l-.11-5Zm74.52,30.64v-.35a10.88,10.88,0,0,1-.41-1.28c-.12-.46-.17-1-.29-1.5s-.12-1.05-.17-1.63a15.17,15.17,0,0,1-.06-1.62V97.9a11,11,0,0,0-.81-4.35,8.67,8.67,0,0,0-2.33-3.14,9.84,9.84,0,0,0-3.48-1.85,14,14,0,0,0-4.52-.64,14.25,14.25,0,0,0-4.82.75,13.54,13.54,0,0,0-3.71,2,9.5,9.5,0,0,0-2.38,2.91,6.62,6.62,0,0,0-.82,3.3l3.37.06a5.08,5.08,0,0,1,.64-2.44,6.67,6.67,0,0,1,1.68-2,8,8,0,0,1,2.61-1.28,10,10,0,0,1,3.25-.52c2.61,0,4.59.64,5.92,1.92a6.66,6.66,0,0,1,2,5.16v3.48H458a25.89,25.89,0,0,0-5.86.64,13.35,13.35,0,0,0-4.41,2,8,8,0,0,0-3.71,7.07,8.35,8.35,0,0,0,.7,3.43,8,8,0,0,0,2,2.78,9.14,9.14,0,0,0,3.13,1.86,12.85,12.85,0,0,0,4.06.64,14.81,14.81,0,0,0,3.37-.41,19.67,19.67,0,0,0,2.9-1,10.87,10.87,0,0,0,2.32-1.57,8.77,8.77,0,0,0,1.8-1.86c.06.82.12,1.57.23,2.38a7.93,7.93,0,0,0,.47,1.92Zm-17.12-2.9a7,7,0,0,1-2.21-1.28,5,5,0,0,1-1.33-1.91,5.24,5.24,0,0,1-.53-2.33,5.7,5.7,0,0,1,.76-2.84,6.06,6.06,0,0,1,2.2-2.15,10.64,10.64,0,0,1,3.49-1.33,18.65,18.65,0,0,1,4.64-.46h5.8v6.73a10.17,10.17,0,0,1-1.51,2.38,12.13,12.13,0,0,1-2.2,1.91,11.52,11.52,0,0,1-2.85,1.28,12.79,12.79,0,0,1-3.42.46,8.58,8.58,0,0,1-2.84-.46Zm29-40.62h-3.42v43.52h3.42Zm13,0h-3.43v43.52h3.43Z"></path><path class="cls-3" d="M150.42,630.52H706.14M769.93,193.3V571.91"></path><path d="M834.11,400.63l-.88-1.12A6.89,6.89,0,0,1,832,395.2a6.06,6.06,0,0,1,2-4.77,7.65,7.65,0,0,1,5.33-1.81,8.29,8.29,0,0,1,5.47,1.67,5.6,5.6,0,0,1,2,4.59,6.22,6.22,0,0,1-1.44,4.31,6.56,6.56,0,0,1-4.26,2v4a9.77,9.77,0,0,0,6.72-3.15,10.43,10.43,0,0,0,2.41-7.14,10.14,10.14,0,0,0-2.92-7.7,11.41,11.41,0,0,0-8-2.73,11.76,11.76,0,0,0-8.07,2.64,9.07,9.07,0,0,0-3,7.14,10.47,10.47,0,0,0,1.43,5.52l-9-1V385.42h-3.89V402.3L833.27,404Zm-15.3-38.07a11.25,11.25,0,0,0,0,14,8.52,8.52,0,0,0,6.58,2.69,7.66,7.66,0,0,0,4.4-1.3,8.92,8.92,0,0,0,3-3.43,8.71,8.71,0,0,0,3.24,4,8.38,8.38,0,0,0,4.82,1.44,8.74,8.74,0,0,0,6.82-2.83,12.68,12.68,0,0,0,0-15.25,8.62,8.62,0,0,0-6.82-2.87,8.09,8.09,0,0,0-4.82,1.53,9.17,9.17,0,0,0-3.24,4.08,9,9,0,0,0-3-3.53,7.54,7.54,0,0,0-4.4-1.29,8.35,8.35,0,0,0-6.58,2.69ZM845.18,365a7.33,7.33,0,0,1,0,9.22,5.82,5.82,0,0,1-4.4,1.67,6.15,6.15,0,0,1-4.54-1.72,6,6,0,0,1-1.72-4.54,6.42,6.42,0,0,1,1.76-4.59,6.09,6.09,0,0,1,4.5-1.76,5.81,5.81,0,0,1,4.4,1.72Zm-23.82.64a6.2,6.2,0,0,1,8.2,0,5.27,5.27,0,0,1,1.53,4,5.46,5.46,0,0,1-1.53,4,6.41,6.41,0,0,1-8.25,0,5.34,5.34,0,0,1-1.53-4,5.24,5.24,0,0,1,1.58-3.95Z"></path><path d="M394.84,671.47h-.65l-12,4.49v3.8l8.44-3.1v27.9h4.22Zm26.06,0h-.65l-12,4.49v3.8l8.43-3.1v27.9h4.22Zm33.9,29.66H438.25l8.81-9.59c4.17-4.45,6.21-8.35,6.21-11.59a8.3,8.3,0,0,0-2.64-6.4,10.47,10.47,0,0,0-7.28-2.41,10.68,10.68,0,0,0-7.83,2.83,9.51,9.51,0,0,0-3,7.32h4.22a6.88,6.88,0,0,1,1.71-5,6.59,6.59,0,0,1,4.87-1.76,5.51,5.51,0,0,1,4.17,1.67,5.9,5.9,0,0,1,1.53,4.22,7.91,7.91,0,0,1-.93,3.71,25.31,25.31,0,0,1-3.52,4.68l-11.4,12.7v3h21.6Z"></path><path class="cls-1" d="M378.16,506.67l-4.8,32.79,11.81,1.1-.53,10.54L216.21,516.68c-7.81-6.12,0-8.89,0-8.89l146.65,30.56,5.28-33.89"></path><path class="cls-4" d="M378.16,506.67l-4.8,32.79,11.81,1.1-.53,10.54L216.21,516.68c-7.81-6.12,0-8.89,0-8.89l146.65,30.56,5.28-33.89"></path><path class="cls-1" d="M390.47,546.73c-.28,2.61-1.91,4.59-3.65,4.42s-2.93-2.41-2.66-5,1.92-4.58,3.66-4.42,2.93,2.41,2.65,5"></path><path class="cls-4" d="M390.47,546.73c-.28,2.61-1.91,4.59-3.65,4.42s-2.93-2.41-2.66-5,1.92-4.58,3.66-4.42,2.93,2.41,2.65,5Z"></path><polyline class="cls-1" points="479.48 468.99 468.18 273.34 461.07 273.34 470.7 467.14"></polyline><polyline class="cls-4" points="479.48 468.99 468.18 273.34 461.07 273.34 470.7 467.14"></polyline><polyline class="cls-1" points="430.36 462.79 428.87 273.34 420.09 272.44 420.09 462.79"></polyline><polyline class="cls-4" points="430.36 462.79 428.87 273.34 420.09 272.44 420.09 462.79"></polyline><polyline class="cls-1" points="381.7 466.06 388.61 276.29 379.94 275.57 373.36 467.66"></polyline><polyline class="cls-4" points="381.7 466.06 388.61 276.29 379.94 275.57 373.36 467.66"></polyline><path class="cls-1" d="M315.85,500.35c-2,11.82-40.15,15.39-85.28,8s-80.11-23-78.14-34.84,40.16-15.38,85.29-8,80.1,23,78.13,34.83"></path><path class="cls-4" d="M315.85,500.35c-2,11.82-40.15,15.39-85.28,8s-80.11-23-78.14-34.84,40.16-15.38,85.29-8,80.1,23,78.13,34.83Z"></path><path class="cls-1" d="M704.12,468.24c2,11.81-32.92,27.51-78,35.07s-83.29,4.12-85.3-7.7,32.92-27.51,78-35.07,83.3-4.11,85.31,7.7"></path><path class="cls-4" d="M704.12,468.24c2,11.81-32.92,27.51-78,35.07s-83.29,4.12-85.3-7.7,32.92-27.51,78-35.07,83.3-4.11,85.31,7.7Z"></path><path class="cls-1" d="M507,486c0,13.18-37.31,23.87-83.33,23.87S340.29,499.16,340.29,486s37.31-23.86,83.33-23.86S507,472.8,507,486"></path><path class="cls-4" d="M507,486c0,13.18-37.31,23.87-83.33,23.87S340.29,499.16,340.29,486s37.31-23.86,83.33-23.86S507,472.8,507,486Z"></path><path class="cls-1" d="M474.94,505.46l7.25,31.77-16,3,4.26,10.45L641.11,515s10-11.24-2.78-12.78L490,536.12,484.17,503"></path><path class="cls-4" d="M474.94,505.46l7.25,31.77-16,3,4.26,10.45L641.11,515s10-11.24-2.78-12.78L490,536.12,484.17,503m-53.84,42V510.56"></path><path class="cls-1" d="M418.07,517.93c.55,1.66,2.79,27.09,2.79,27.09s4.46,12.77,9.47,0L427,515"></path><path class="cls-4" d="M418.07,517.93c.55,1.66,2.79,27.09,2.79,27.09s4.46,12.77,9.47,0L427,515"></path><path class="cls-2" d="M440.57,508.29c0,2.21-8,4-17.83,4s-17.83-1.78-17.83-4,8-4,17.83-4,17.83,1.79,17.83,4"></path><path class="cls-5" d="M440.57,508.29c0,2.21-8,4-17.83,4s-17.83-1.78-17.83-4,8-4,17.83-4,17.83,1.79,17.83,4"></path><path class="cls-1" d="M427.16,519a4.5,4.5,0,1,1-4.49-4.24,4.37,4.37,0,0,1,4.49,4.24"></path><path class="cls-4" d="M427.16,519a4.5,4.5,0,1,1-4.49-4.24,4.37,4.37,0,0,1,4.49,4.24Zm12.47-8.2c0,1.95-7.46,3.53-16.65,3.53s-16.66-1.58-16.66-3.53,7.46-3.52,16.66-3.52,16.65,1.57,16.65,3.52Z"></path><polyline class="cls-1" points="454.87 220.01 459.33 273.34 470.48 273.34 467.13 220.01"></polyline><polyline class="cls-4" points="454.87 220.01 459.33 273.34 470.48 273.34 467.13 220.01"></polyline><polyline class="cls-1" points="418.06 220.01 418.06 273.34 430.33 273.34 430.33 220.01"></polyline><polyline class="cls-4" points="418.06 220.01 418.06 273.34 430.33 273.34 430.33 220.01"></polyline><polyline class="cls-1" points="380.71 220.01 377.92 275.57 389.63 275.57 393.53 220.01"></polyline><polyline class="cls-4" points="380.71 220.01 377.92 275.57 389.63 275.57 393.53 220.01"></polyline><rect class="cls-1" x="367.13" y="195.23" width="115.21" height="18.38"></rect><rect class="cls-4" x="367.13" y="195.23" width="115.21" height="18.38"></rect><rect class="cls-2" x="350.08" y="212.02" width="148.69" height="5.09"></rect><rect class="cls-5" x="350.07" y="212.03" width="148.69" height="5.09"></rect><rect class="cls-1" x="351.15" y="215.02" width="146.66" height="5"></rect><rect class="cls-4" x="351.15" y="215.01" width="146.66" height="5"></rect><path class="cls-1" d="M468.48,546c.66,2.91-.25,5.56-2,5.91s-3.76-1.7-4.41-4.61.27-5.56,2-5.91,3.76,1.71,4.41,4.61"></path><path class="cls-4" d="M468.48,546c.66,2.91-.26,5.56-2,5.91s-3.76-1.7-4.41-4.61.26-5.56,2-5.91,3.76,1.71,4.41,4.61Z"></path></svg> 