<?xml version="1.0" encoding="UTF-8"?> <svg xmlns="http://www.w3.org/2000/svg" id="Livello_1" data-name="Livello 1" viewBox="0 0 912 1000.49"><defs><style>.cls-1{fill:#fff;}.cls-2,.cls-3,.cls-4{fill:none;stroke-width:0.25px;}.cls-2,.cls-4{stroke:#000;}.cls-3{stroke:#231f20;}.cls-3,.cls-4{stroke-miterlimit:10;}.cls-5{fill:#231f20;}</style></defs><title>mami sospensione maxi</title><rect class="cls-1" y="0.49" width="912" height="1000"></rect><path class="cls-2" d="M150.41,925.49H671.63M769.92,193.3v662"></path><path d="M816.66,546.83v.65l4.5,12H825l-3.11-8.44h27.91v-4.22Zm17.43-17.58-.88-1.11a6.9,6.9,0,0,1-1.2-4.31,6.07,6.07,0,0,1,2-4.78,7.66,7.66,0,0,1,5.33-1.8,8.24,8.24,0,0,1,5.47,1.67,5.62,5.62,0,0,1,2,4.58,6.26,6.26,0,0,1-1.43,4.32,6.66,6.66,0,0,1-4.27,2v4a9.65,9.65,0,0,0,6.72-3.15,10.41,10.41,0,0,0,2.41-7.14,10.07,10.07,0,0,0-2.92-7.69,11.33,11.33,0,0,0-8-2.74,11.74,11.74,0,0,0-8.06,2.65,9,9,0,0,0-3,7.14,10.35,10.35,0,0,0,1.44,5.51l-9-1V514.05h-3.9v16.87l16.46,1.67Zm9.41-33.8c1.72,1.85,2.64,4.49,2.69,8v.88h3.57v-.83c-.09-5.1-1.58-8.9-4.54-11.45s-7.61-3.81-14.05-3.81H830c-4.22,0-7.56.93-10,2.83a9.12,9.12,0,0,0-3.66,7.7,10.16,10.16,0,0,0,1.39,5.37,9.32,9.32,0,0,0,4.08,3.57,13.64,13.64,0,0,0,5.93,1.26,13.19,13.19,0,0,0,5.61-1.16,9,9,0,0,0,4-3.25,8.94,8.94,0,0,0,1.39-5,8.49,8.49,0,0,0-1-4,9.37,9.37,0,0,0-2.5-3.11c3.76.14,6.49,1.16,8.25,3Zm-10.43,7.74a8.75,8.75,0,0,1-5.51,1.62,8.85,8.85,0,0,1-5.57-1.67,5.41,5.41,0,0,1-2.08-4.45,5.3,5.3,0,0,1,2.55-4.5,11.38,11.38,0,0,1,6.67-1.8h1.67A7.65,7.65,0,0,1,834,495a6.48,6.48,0,0,1,1.3,3.9,5.12,5.12,0,0,1-2.18,4.31Z"></path><path d="M388.46,966.44h-.65l-12,4.5v3.8l8.44-3.11v27.91h4.22Zm33.9,29.67H405.81l8.81-9.6c4.17-4.45,6.21-8.34,6.21-11.59a8.25,8.25,0,0,0-2.65-6.39,10.38,10.38,0,0,0-7.27-2.41,10.71,10.71,0,0,0-7.84,2.82,9.56,9.56,0,0,0-3,7.33h4.21a6.85,6.85,0,0,1,1.72-5,6.59,6.59,0,0,1,4.87-1.76,5.53,5.53,0,0,1,4.17,1.66,5.92,5.92,0,0,1,1.53,4.22,8,8,0,0,1-.93,3.71,25.91,25.91,0,0,1-3.52,4.68l-11.4,12.7v3h21.6Zm9.75-12.24,1.11-.88a6.89,6.89,0,0,1,4.31-1.21,6,6,0,0,1,4.77,2,7.62,7.62,0,0,1,1.81,5.33,8.33,8.33,0,0,1-1.67,5.47,5.62,5.62,0,0,1-4.59,2,6.19,6.19,0,0,1-4.31-1.44,6.61,6.61,0,0,1-2-4.26h-4a9.75,9.75,0,0,0,3.15,6.72,10.43,10.43,0,0,0,7.14,2.41,10.11,10.11,0,0,0,7.7-2.92,11.36,11.36,0,0,0,2.73-8,11.73,11.73,0,0,0-2.64-8.06,9,9,0,0,0-7.14-3,10.35,10.35,0,0,0-5.51,1.44l1-9h13.35v-3.89H430.44L428.77,983Z"></path><path class="cls-1" d="M669.64,266c1.42,8.81-24,20.29-56.89,25.64s-60.63,2.52-62.07-6.29,24.05-20.27,56.89-25.62,60.64-2.54,62.07,6.27M361.87,520.07c-3.76,0-7.64-.2-11.61-.46-33.2-2.2-59.65-11.19-59.06-20.11s28-14.34,61.19-12.14c5.28.35,10.4.87,15.25,1.53m35.83,25.86c-7.57,3.09-20,5-34.74,5.31M374.68,490c13.41,2.34,24.3,5.79,30.66,9.68M315.39,615.43c-1.64,8.77-39.44,9.1-84.45.7s-80.17-22.31-78.54-31.08,39.43-9.09,84.44-.7,80.18,22.3,78.55,31.08m97.39,97c-.82,12.3-38.5,19.8-84.18,16.78s-82.06-15.44-81.25-27.73,38.5-19.79,84.18-16.77,82.05,15.44,81.25,27.72M572.39,823.07c-1.28.1-2.58.22-3.88.3-45.7,3.32-83.46-4-84.35-16.24s35.45-24.93,81.14-28.24,83.47,4,84.35,16.24c.83,11.44-30.65,23.21-71.93,27.43m31-431.2c.58,8.91-25.87,17.88-59.08,20.05s-60.6-3.31-61.17-12.22,25.88-17.88,59.08-20,60.6,3.31,61.17,12.21M493.42,209.77H408.74V195.23h84.68Zm10.48,5.66H398.25v-5.25H503.9Zm-88,0L408.74,253l8.68,1.61,6.93-39.19m7.14,0L427.71,253h8.06l3.78-37.58m22.27.3L466,253h6.86l-3.35-37.28m9.17,0,6.68,38.89,8.06-1.61-7.59-37.58M408.74,253,340.2,640.1l-123.39-21-1.6,5.66L357.13,651l1.22-6.87-11.29-2,70.36-387.52M427.71,253,386.87,694.16m6.37,2.21L435.77,253l-24.2,289.31m-4.28,6.42,5.5,1.46m-47-13.86,35.1,11M360.78,527.6l-19.37-5.88s-3.23,1.61-1.61,6.46l19.68,6.17M401.62,540l-34.7-10.55m47.58,13.37-6.58-1m-57.66-22.23-1.64,4.3m-120,91.77v5.42m5.27-4.43v4.43m150.57,106-1.18,22.61M391.59,726,389,751.63m-55.36-22.17,59.61,24.19s8.65,5.26-1.83,6.07L320,733.45m98.39-186.69a3.93,3.93,0,1,1-3.93-3.92,3.94,3.94,0,0,1,3.93,3.92"></path><path class="cls-3" d="M669.64,266c1.42,8.81-24,20.29-56.89,25.64s-60.63,2.52-62.06-6.28,24-20.28,56.88-25.63,60.64-2.54,62.07,6.27ZM361.87,520.07c-3.76,0-7.64-.2-11.61-.46-33.2-2.2-59.65-11.19-59.06-20.1s28-14.35,61.19-12.15c5.28.35,10.4.87,15.25,1.53m35.84,25.86c-7.58,3.09-20,5-34.75,5.32M374.68,490c13.41,2.35,24.31,5.79,30.67,9.68m-90,115.75c-1.64,8.77-39.44,9.1-84.45.7s-80.17-22.31-78.54-31.08,39.43-9.08,84.44-.7,80.18,22.31,78.55,31.08Zm97.39,97c-.81,12.3-38.5,19.81-84.18,16.78s-82.06-15.43-81.25-27.73,38.5-19.79,84.18-16.77,82.06,15.44,81.25,27.72ZM572.4,823.07c-1.28.1-2.58.22-3.88.3-45.71,3.32-83.47-4-84.36-16.23s35.45-24.94,81.15-28.25,83.46,4,84.34,16.24c.83,11.44-30.65,23.21-71.93,27.43m31-431.2c.58,8.91-25.87,17.89-59.08,20.05s-60.6-3.31-61.17-12.22,25.88-17.88,59.08-20,60.6,3.3,61.17,12.2ZM493.42,209.77H408.75V195.23h84.67Zm10.49,5.66H398.26v-5.25H503.91Zm-88,0L408.75,253l8.67,1.61,6.94-39.19m7.13,0L427.71,253h8.06l3.78-37.58m22.28.3L466,253h6.85l-3.34-37.28m9.16,0,6.68,38.89,8.06-1.61-7.58-37.58M408.75,253,340.2,640.1l-123.39-21-1.6,5.67L357.13,651l1.22-6.87-11.29-2,70.36-387.52M427.71,253,386.88,694.16m6.36,2.21L435.77,253l-24.2,289.32m-4.28,6.41,5.5,1.46m-47-13.86,35.11,11M360.78,527.6l-19.37-5.88s-3.23,1.61-1.61,6.46l19.68,6.18M401.62,540l-34.7-10.56m47.58,13.37-6.58-1m-57.66-22.24-1.64,4.3m-120,91.77v5.42m5.27-4.43v4.43m150.57,106-1.18,22.61M391.6,726,389,751.64m-55.36-22.18,59.61,24.2s8.65,5.25-1.83,6.06L320,733.45m98.4-186.69a3.93,3.93,0,1,1-3.94-3.92,3.94,3.94,0,0,1,3.94,3.92Z"></path><path class="cls-1" d="M338.91,727.16c-.13,2-6.1,3.27-13.33,2.8s-13-2.51-12.84-4.53,6.1-3.28,13.33-2.8,13,2.5,12.84,4.53"></path><path class="cls-4" d="M338.91,727.16c-.13,2-6.1,3.27-13.33,2.8s-13-2.51-12.84-4.53,6.1-3.28,13.33-2.8,13,2.5,12.84,4.53"></path><path class="cls-1" d="M335.78,726.44c-.1.34-4.64.55-10.14.47s-9.87-.43-9.76-.77,4.63-.55,10.13-.47,9.87.43,9.77.77"></path><path class="cls-3" d="M335.78,726.44c-.1.34-4.64.55-10.14.47s-9.87-.43-9.76-.77,4.63-.55,10.13-.47,9.87.43,9.77.77Z"></path><rect class="cls-1" x="325.16" y="727.21" width="2.55" height="2.71"></rect><rect class="cls-4" x="325.16" y="727.21" width="2.55" height="2.71"></rect><path class="cls-1" d="M328,729.73h2.49V727H328Zm-9,.46s2.56,11.31,7.06.65M466.76,250.71,510.2,791.33M473.56,250.71l43.56,538.52M486,252.34,496.56,313l-11.7,1.83v7l142.53-24.46V291l-124.23,21.1-9.33-60.61m117.55,38.89v3.34m4.71-4.65v3.36M482.87,439c0,2.54-1.48,4.58-3.3,4.58s-3.31-2-3.31-4.58,1.48-4.58,3.31-4.58,3.3,2,3.3,4.58m5.43-6.08,68.58-19.81s6.4,1,1,6.12l-69.13,20.29m58.42-28.8v4.73m5.91-4.73v3.49"></path><path class="cls-3" d="M328,729.73h2.49V727H328Zm-9,.46s2.56,11.31,7.06.65M466.76,250.71,510.2,791.33M473.56,250.71l43.56,538.52M486,252.34,496.56,313l-11.7,1.83v7l142.53-24.46V291l-124.23,21.1-9.33-60.61m117.55,38.89v3.34m4.71-4.65v3.36M482.87,439c0,2.54-1.48,4.58-3.3,4.58s-3.31-2-3.31-4.58,1.48-4.58,3.31-4.58,3.3,2,3.3,4.58Zm5.43-6.08,68.58-19.81s6.4,1,1,6.12l-69.13,20.29m58.42-28.8v4.73m5.91-4.73v3.49"></path><path class="cls-1" d="M584,817.92c.1,1.38-5.72,2.92-13,3.45s-13.26-.16-13.35-1.54,5.71-2.92,13-3.45,13.26.17,13.36,1.54"></path><path class="cls-4" d="M584,817.92c.1,1.38-5.72,2.92-13,3.45s-13.26-.16-13.35-1.54,5.71-2.92,13-3.45,13.26.17,13.36,1.54"></path><path class="cls-1" d="M580.84,820.78c.09,1.16-5.25,2.46-11.91,2.91s-12.15-.14-12.24-1.3,5.25-2.46,11.91-2.91,12.14.14,12.24,1.3M517,827.13l1.59,18.79m5.18-18.44.85,16.11m39.67-15.34-50.46,19.52s-4,4.64,2.14,5.5l59.12-22.83m2.43-2.94a3.21,3.21,0,1,1-3.2-3,3.08,3.08,0,0,1,3.2,3m-10.61-3.38v3.38m3.65-3.94v4.29"></path><path class="cls-3" d="M580.84,820.78c.09,1.16-5.25,2.46-11.91,2.91s-12.15-.14-12.24-1.3,5.25-2.46,11.91-2.91,12.14.14,12.24,1.3ZM517,827.13l1.59,18.79m5.18-18.44.85,16.11m39.67-15.34-50.46,19.52s-4,4.64,2.14,5.5l59.12-22.83m2.43-2.94a3.21,3.21,0,1,1-3.2-3,3.08,3.08,0,0,1,3.2,3Zm-10.61-3.38v3.38m3.65-3.94v4.29"></path><path class="cls-5" d="M322.69.52h-.87L304.76,6.67v6.62l9.74-3V41.84h8.19ZM344.42,24h4.35a10.57,10.57,0,0,1,2.84.35,8.22,8.22,0,0,1,2.15,1.1,5.7,5.7,0,0,1,1.33,1.91,8.37,8.37,0,0,1,.47,2.85,6.16,6.16,0,0,1-.47,2.32,4,4,0,0,1-1.22,1.74,4.46,4.46,0,0,1-2,1.16,7.23,7.23,0,0,1-2.61.41,6.44,6.44,0,0,1-2.38-.41A5.21,5.21,0,0,1,345,34.3a4.93,4.93,0,0,1-1.28-1.63,5.07,5.07,0,0,1-.47-2.15h-8.18a10.83,10.83,0,0,0,1.22,5.29,11.12,11.12,0,0,0,3.19,3.71,13.93,13.93,0,0,0,4.47,2.2,19.18,19.18,0,0,0,5.17.7,20.74,20.74,0,0,0,5.8-.81,13.5,13.5,0,0,0,4.64-2.38,10.93,10.93,0,0,0,3.08-3.77,12.38,12.38,0,0,0,1.1-5.17A10.2,10.2,0,0,0,362,24.37a10,10,0,0,0-5.17-3.71A14.38,14.38,0,0,0,359.5,19a13.43,13.43,0,0,0,2-2.09,11.78,11.78,0,0,0,1.22-2.5,10.26,10.26,0,0,0,.4-2.61,12.12,12.12,0,0,0-1-5.11A10.36,10.36,0,0,0,359.21,3,13.24,13.24,0,0,0,354.8.75,21.92,21.92,0,0,0,349.12,0a17.38,17.38,0,0,0-5.28.81,14.32,14.32,0,0,0-4.3,2.27,11.2,11.2,0,0,0-2.9,3.54,10.24,10.24,0,0,0-1.05,4.64h8.19a4.39,4.39,0,0,1,1.62-3.37A5,5,0,0,1,347.2,7a6.15,6.15,0,0,1,2.09-.34,6.46,6.46,0,0,1,2.5.4,4.58,4.58,0,0,1,1.74,1.1,4.2,4.2,0,0,1,1,1.69,6.11,6.11,0,0,1,.35,2.09A5.7,5.7,0,0,1,353.41,16a6.24,6.24,0,0,1-4.64,1.56h-4.35Zm52.71-6.33a27.09,27.09,0,0,0-1-8,14.3,14.3,0,0,0-2.85-5.45A10.59,10.59,0,0,0,388.83,1a14.89,14.89,0,0,0-5.68-1,15.16,15.16,0,0,0-5.69,1,10.53,10.53,0,0,0-4.35,3.14,14.3,14.3,0,0,0-2.85,5.45,27.09,27.09,0,0,0-1,8v7.14a26.94,26.94,0,0,0,1,7.95,15.49,15.49,0,0,0,2.85,5.51,10.71,10.71,0,0,0,4.41,3.14,15.16,15.16,0,0,0,5.69,1,14.93,14.93,0,0,0,5.68-1,10.71,10.71,0,0,0,4.41-3.14,15.49,15.49,0,0,0,2.85-5.51,29.26,29.26,0,0,0,1-7.95ZM389,25.88a21.11,21.11,0,0,1-.41,4.64,8.82,8.82,0,0,1-1.1,3.08,4.13,4.13,0,0,1-1.8,1.68,5.86,5.86,0,0,1-4.87,0A4.13,4.13,0,0,1,379,33.6a9,9,0,0,1-1.16-3.08,26.2,26.2,0,0,1-.35-4.64V16.42a25.55,25.55,0,0,1,.35-4.58,8.73,8.73,0,0,1,1.1-3,4.94,4.94,0,0,1,1.8-1.68,5.68,5.68,0,0,1,2.44-.47,5.31,5.31,0,0,1,2.43.47,4.66,4.66,0,0,1,1.86,1.68,8.53,8.53,0,0,1,1.1,3,20.59,20.59,0,0,1,.41,4.58ZM430.7.58H401.57V7.2h20.48l-16,34.64h8.65l16-36.68Zm21.5,20.31h-16v6.56h16Zm34.5,14.33H468.94l7.26-7.66c1.39-1.45,2.67-2.78,3.77-4.12a27.92,27.92,0,0,0,2.9-3.88,19.15,19.15,0,0,0,1.8-3.83,11.75,11.75,0,0,0,.7-4,13.55,13.55,0,0,0-.87-4.93,9.8,9.8,0,0,0-2.62-3.66A11.7,11.7,0,0,0,477.71.81,19.6,19.6,0,0,0,471.9,0a15.3,15.3,0,0,0-6,1.1A13.44,13.44,0,0,0,461.46,4a12.62,12.62,0,0,0-2.9,4.3,14.65,14.65,0,0,0-1,5.28h8.24a8.31,8.31,0,0,1,.41-2.79,6.41,6.41,0,0,1,1.1-2.2,5.25,5.25,0,0,1,1.91-1.45,5.73,5.73,0,0,1,2.56-.52,5,5,0,0,1,3.94,1.56,6.33,6.33,0,0,1,1.4,4.35,5.42,5.42,0,0,1-.29,1.86,10.61,10.61,0,0,1-.87,2.09,17,17,0,0,1-1.69,2.5,34.29,34.29,0,0,1-2.55,3L458.38,36.21v5.63H486.7ZM515.92.58h-8.3L490.44,27.74l.35,5.16h16.94v8.94h8.19V32.9h4.64V26.29h-4.64Zm-8.77,12.13.58-1V26.29h-9.17Z"></path><path class="cls-5" d="M353.45,88.5v30.64h3.42v-21A16.07,16.07,0,0,1,358,95.4a12.5,12.5,0,0,1,1.8-2.32,9.89,9.89,0,0,1,2.61-1.62,8.47,8.47,0,0,1,3.37-.58,10.33,10.33,0,0,1,3.07.4,5.55,5.55,0,0,1,3.89,3.78,12.12,12.12,0,0,1,.53,3.83v20.25h3.42V98.83a8.22,8.22,0,0,1,.7-2.73,10.66,10.66,0,0,1,1.74-2.55,9.66,9.66,0,0,1,2.78-1.92,8.38,8.38,0,0,1,3.72-.75,11.57,11.57,0,0,1,3,.35A5.05,5.05,0,0,1,391,92.56a6.19,6.19,0,0,1,1.57,2.55,12.88,12.88,0,0,1,.52,4v20h3.37v-20a16.69,16.69,0,0,0-.64-5.11,8.5,8.5,0,0,0-2-3.48,7.3,7.3,0,0,0-3.2-2,13.38,13.38,0,0,0-4.23-.64,12.92,12.92,0,0,0-3.43.46,11.92,11.92,0,0,0-2.9,1.22,10.67,10.67,0,0,0-2.38,1.92A14.05,14.05,0,0,0,376,93.84a8.09,8.09,0,0,0-3.42-4.53,11.45,11.45,0,0,0-5.8-1.39,10.81,10.81,0,0,0-3.14.4,10.64,10.64,0,0,0-2.73,1.11,8.27,8.27,0,0,0-2.26,1.74,11.43,11.43,0,0,0-1.8,2.32l-.11-5ZM428,119.14v-.35a10.88,10.88,0,0,1-.41-1.28c-.12-.46-.17-1-.29-1.5s-.12-1.05-.18-1.63,0-1.1,0-1.62V97.9a10.85,10.85,0,0,0-.82-4.35,8.53,8.53,0,0,0-2.32-3.14,9.84,9.84,0,0,0-3.48-1.85,14.07,14.07,0,0,0-4.53-.64,14.24,14.24,0,0,0-4.81.75,13.75,13.75,0,0,0-3.72,2A9.61,9.61,0,0,0,405,93.61a6.52,6.52,0,0,0-.82,3.3l3.37.06a5.08,5.08,0,0,1,.64-2.44,6.67,6.67,0,0,1,1.68-2,8,8,0,0,1,2.61-1.28,10,10,0,0,1,3.25-.52c2.61,0,4.59.64,5.92,1.92a6.7,6.7,0,0,1,2,5.16v3.48H417.4a25.89,25.89,0,0,0-5.86.64,13.35,13.35,0,0,0-4.41,2,8.67,8.67,0,0,0-3,10.5,8.18,8.18,0,0,0,2,2.78,9.14,9.14,0,0,0,3.13,1.86,12.85,12.85,0,0,0,4.06.64,14.88,14.88,0,0,0,3.37-.41,19.67,19.67,0,0,0,2.9-1,10.87,10.87,0,0,0,2.32-1.57,8.77,8.77,0,0,0,1.8-1.86c.06.82.12,1.57.23,2.38a7.93,7.93,0,0,0,.47,1.92Zm-17.12-2.9a7,7,0,0,1-2.21-1.28,5,5,0,0,1-1.33-1.91,5.24,5.24,0,0,1-.53-2.33,5.7,5.7,0,0,1,.76-2.84,6.06,6.06,0,0,1,2.2-2.15,10.64,10.64,0,0,1,3.49-1.33,18.65,18.65,0,0,1,4.64-.46h5.8v6.73a10.51,10.51,0,0,1-1.51,2.38A12.13,12.13,0,0,1,420,115a11.52,11.52,0,0,1-2.85,1.28,12.79,12.79,0,0,1-3.42.46,8.58,8.58,0,0,1-2.84-.46Zm26.6-27.74h-4l10.39,15L433,119.14h4l8.76-13,8.7,13h4l-10.85-15.61L458,88.5h-4l-8.3,12.42Zm30.61,0h-3.42v30.64h3.42Zm-3.42-7.26a2.45,2.45,0,0,0,1.74.64,2.28,2.28,0,0,0,1.68-.64,2.1,2.1,0,0,0,.64-1.62,2,2,0,0,0-.64-1.62,2.11,2.11,0,0,0-1.68-.7,2.25,2.25,0,0,0-1.74.7,2.2,2.2,0,0,0-.58,1.62,2.29,2.29,0,0,0,.58,1.62Z"></path></svg> 