<?xml version="1.0" encoding="UTF-8"?> <svg xmlns="http://www.w3.org/2000/svg" id="Livello_1" data-name="Livello 1" viewBox="0 0 912 1000.49"><defs><style>.cls-1{fill:#fff;}.cls-2{fill:#231f20;}.cls-3,.cls-4,.cls-5{fill:none;stroke-width:0.25px;}.cls-3,.cls-5{stroke:#000;}.cls-4{stroke:#231f20;}.cls-4,.cls-5{stroke-miterlimit:10;}</style></defs><title>mami sospensione large</title><rect class="cls-1" y="0.49" width="912" height="1000"></rect><path class="cls-2" d="M354.61.52h-.87L336.68,6.67v6.62l9.75-3V41.84h8.18ZM376.34,24h4.35a10.6,10.6,0,0,1,2.85.35,8,8,0,0,1,2.14,1.1A5.72,5.72,0,0,1,387,27.33a8.39,8.39,0,0,1,.46,2.85A6.15,6.15,0,0,1,387,32.5a4,4,0,0,1-1.22,1.74,4.46,4.46,0,0,1-2,1.16,7.3,7.3,0,0,1-2.61.41,6.4,6.4,0,0,1-2.38-.41,5.6,5.6,0,0,1-3.2-2.73,5.07,5.07,0,0,1-.46-2.15H367a10.72,10.72,0,0,0,1.22,5.29,11,11,0,0,0,3.19,3.71,13.83,13.83,0,0,0,4.47,2.2,19.17,19.17,0,0,0,5.16.7,20.63,20.63,0,0,0,5.8-.81,13.64,13.64,0,0,0,4.65-2.38,10.91,10.91,0,0,0,3.07-3.77,12.23,12.23,0,0,0,1.11-5.17,9.67,9.67,0,0,0-6.91-9.63A14.38,14.38,0,0,0,391.43,19a13.84,13.84,0,0,0,2-2.09,11.32,11.32,0,0,0,1.22-2.5,10.28,10.28,0,0,0,.41-2.61,12,12,0,0,0-1-5.11A10.22,10.22,0,0,0,391.14,3,13.34,13.34,0,0,0,386.73.75,21.94,21.94,0,0,0,381,0a17.42,17.42,0,0,0-5.28.81,14.38,14.38,0,0,0-4.29,2.27,11.2,11.2,0,0,0-2.9,3.54,10.24,10.24,0,0,0-1.05,4.64h8.18a4.26,4.26,0,0,1,.47-1.92,4.09,4.09,0,0,1,1.16-1.45,5,5,0,0,1,1.8-.93,6.11,6.11,0,0,1,2.09-.34,6.44,6.44,0,0,1,2.49.4,4.43,4.43,0,0,1,1.74,1.1,4.22,4.22,0,0,1,1.05,1.69,6.11,6.11,0,0,1,.34,2.09,5.74,5.74,0,0,1-1.5,4.12,6.28,6.28,0,0,1-4.65,1.56h-4.35Zm52.72-6.33a26.74,26.74,0,0,0-1.05-8,14.15,14.15,0,0,0-2.84-5.45A10.71,10.71,0,0,0,420.76,1a14.94,14.94,0,0,0-5.69-1,15.11,15.11,0,0,0-5.68,1A10.5,10.5,0,0,0,405,4.18a14.29,14.29,0,0,0-2.84,5.45,26.76,26.76,0,0,0-1,8v7.14a26.62,26.62,0,0,0,1,7.95A15.48,15.48,0,0,0,405,38.24a10.71,10.71,0,0,0,4.41,3.14,15.16,15.16,0,0,0,5.69,1,14.94,14.94,0,0,0,5.69-1,10.71,10.71,0,0,0,4.41-3.14,15.32,15.32,0,0,0,2.84-5.51,28.85,28.85,0,0,0,1-7.95Zm-8.18,8.24a21.11,21.11,0,0,1-.41,4.64,9,9,0,0,1-1.1,3.08,4.24,4.24,0,0,1-1.8,1.68,5.88,5.88,0,0,1-4.88,0,4.24,4.24,0,0,1-1.8-1.68,9,9,0,0,1-1.16-3.08,26.3,26.3,0,0,1-.34-4.64V16.42a25.65,25.65,0,0,1,.34-4.58,8.73,8.73,0,0,1,1.11-3,4.94,4.94,0,0,1,1.8-1.68,5.64,5.64,0,0,1,2.43-.47,5.38,5.38,0,0,1,2.44.47,4.72,4.72,0,0,1,1.86,1.68,8.73,8.73,0,0,1,1.1,3,20.59,20.59,0,0,1,.41,4.58ZM462.63.58H433.49V7.2H454L438,41.84h8.65l16-36.68Zm21.49,20.31h-16v6.56h16Zm34.51,14.33H500.87l7.25-7.66c1.4-1.45,2.67-2.78,3.78-4.12a27.92,27.92,0,0,0,2.9-3.88,19.71,19.71,0,0,0,1.8-3.83,11.74,11.74,0,0,0,.69-4,13.55,13.55,0,0,0-.87-4.93,9.88,9.88,0,0,0-2.61-3.66A11.66,11.66,0,0,0,509.63.81a19.53,19.53,0,0,0-5.8-.81,15.32,15.32,0,0,0-6,1.1A13.44,13.44,0,0,0,493.38,4a12.91,12.91,0,0,0-2.9,4.3,14.64,14.64,0,0,0-1,5.28h8.24a8.32,8.32,0,0,1,.4-2.79,6.42,6.42,0,0,1,1.11-2.2,5.25,5.25,0,0,1,1.91-1.45,5.72,5.72,0,0,1,2.55-.52,5,5,0,0,1,4,1.56,6.33,6.33,0,0,1,1.39,4.35,5.42,5.42,0,0,1-.29,1.86,9.52,9.52,0,0,1-.87,2.09,16.08,16.08,0,0,1-1.68,2.5,36.12,36.12,0,0,1-2.55,3L490.31,36.21v5.63h28.32ZM531.94,24h4.35a10.6,10.6,0,0,1,2.85.35,8,8,0,0,1,2.14,1.1,5.72,5.72,0,0,1,1.34,1.91,8.39,8.39,0,0,1,.46,2.85,6.15,6.15,0,0,1-.46,2.32,4,4,0,0,1-1.22,1.74,4.46,4.46,0,0,1-2,1.16,7.3,7.3,0,0,1-2.61.41,6.4,6.4,0,0,1-2.38-.41,5.17,5.17,0,0,1-1.92-1.1,5,5,0,0,1-1.27-1.63,4.93,4.93,0,0,1-.47-2.15H522.6a10.72,10.72,0,0,0,1.22,5.29A11,11,0,0,0,527,39.52a13.83,13.83,0,0,0,4.47,2.2,19.17,19.17,0,0,0,5.16.7,20.75,20.75,0,0,0,5.81-.81,13.69,13.69,0,0,0,4.64-2.38,10.91,10.91,0,0,0,3.07-3.77,12.23,12.23,0,0,0,1.11-5.17,9.67,9.67,0,0,0-6.91-9.63A14.38,14.38,0,0,0,547,19a13.84,13.84,0,0,0,2-2.09,11.32,11.32,0,0,0,1.22-2.5,10.28,10.28,0,0,0,.41-2.61,12,12,0,0,0-1-5.11A10.22,10.22,0,0,0,546.74,3,13.34,13.34,0,0,0,542.33.75,21.94,21.94,0,0,0,536.64,0a17.42,17.42,0,0,0-5.28.81,14.38,14.38,0,0,0-4.29,2.27,11.2,11.2,0,0,0-2.9,3.54,10.24,10.24,0,0,0-1,4.64h8.18a4.26,4.26,0,0,1,.47-1.92,4.09,4.09,0,0,1,1.16-1.45,5,5,0,0,1,1.8-.93,6.11,6.11,0,0,1,2.09-.34,6.41,6.41,0,0,1,2.49.4,4.43,4.43,0,0,1,1.74,1.1,4.22,4.22,0,0,1,1.05,1.69,6.11,6.11,0,0,1,.35,2.09A5.75,5.75,0,0,1,540.94,16a6.28,6.28,0,0,1-4.65,1.56h-4.35Z"></path><path class="cls-2" d="M388.63,75.62h-3.42v43.52h3.42Zm32.14,43.52v-.35a10.88,10.88,0,0,1-.41-1.28c-.12-.46-.17-1-.29-1.5s-.12-1.05-.17-1.63a15.17,15.17,0,0,1-.06-1.62V97.9a10.85,10.85,0,0,0-.82-4.35,8.53,8.53,0,0,0-2.32-3.14,9.84,9.84,0,0,0-3.48-1.85,14,14,0,0,0-4.52-.64,14.25,14.25,0,0,0-4.82.75,13.75,13.75,0,0,0-3.72,2,9.61,9.61,0,0,0-2.37,2.91,6.62,6.62,0,0,0-.82,3.3l3.37.06a5.08,5.08,0,0,1,.64-2.44,6.67,6.67,0,0,1,1.68-2,8,8,0,0,1,2.61-1.28,10,10,0,0,1,3.25-.52c2.61,0,4.59.64,5.92,1.92a6.66,6.66,0,0,1,2,5.16v3.48H410.2a25.89,25.89,0,0,0-5.86.64,13.35,13.35,0,0,0-4.41,2,8,8,0,0,0-3.71,7.07,8.35,8.35,0,0,0,.7,3.43,8,8,0,0,0,2,2.78,9.14,9.14,0,0,0,3.13,1.86,12.85,12.85,0,0,0,4.06.64,14.81,14.81,0,0,0,3.37-.41,19.67,19.67,0,0,0,2.9-1,10.87,10.87,0,0,0,2.32-1.57,8.77,8.77,0,0,0,1.8-1.86c.06.82.12,1.57.23,2.38a7.93,7.93,0,0,0,.47,1.92Zm-17.12-2.9a7,7,0,0,1-2.21-1.28,5,5,0,0,1-1.33-1.91,5.24,5.24,0,0,1-.53-2.33,5.7,5.7,0,0,1,.76-2.84,6.06,6.06,0,0,1,2.2-2.15A10.64,10.64,0,0,1,406,104.4a18.65,18.65,0,0,1,4.64-.46h5.8v6.73a10.17,10.17,0,0,1-1.51,2.38,12.13,12.13,0,0,1-2.2,1.91,11.52,11.52,0,0,1-2.85,1.28,12.79,12.79,0,0,1-3.42.46,8.58,8.58,0,0,1-2.84-.46Zm39.49-28a6.52,6.52,0,0,0-1-.24,11.05,11.05,0,0,0-1.28-.11,8.76,8.76,0,0,0-5.22,1.45,10.54,10.54,0,0,0-3.42,4l-.06-4.87h-3.31v30.64h3.37V98.07a14.55,14.55,0,0,1,1.16-2.78,8.11,8.11,0,0,1,1.79-2.15,7.39,7.39,0,0,1,2.44-1.45,8.88,8.88,0,0,1,3.14-.52,14.52,14.52,0,0,1,2.26.17ZM447,104.11a21.65,21.65,0,0,0,.82,6.32,14.28,14.28,0,0,0,2.32,4.94,11.54,11.54,0,0,0,3.71,3.19,10.55,10.55,0,0,0,4.93,1.16,12.21,12.21,0,0,0,5.63-1.22,10.42,10.42,0,0,0,3.83-3.31v3.54a12.74,12.74,0,0,1-.58,4.12,7.73,7.73,0,0,1-1.8,3,7.08,7.08,0,0,1-2.84,2,10.93,10.93,0,0,1-3.83.64,10.11,10.11,0,0,1-4.58-1,13.2,13.2,0,0,1-4-3.37l-1.85,2a10.07,10.07,0,0,0,2.14,2.32,15.75,15.75,0,0,0,2.67,1.63,17.71,17.71,0,0,0,2.9,1,13,13,0,0,0,3,.29,14,14,0,0,0,5.05-.87,11.07,11.07,0,0,0,3.89-2.5,11.69,11.69,0,0,0,2.44-4,15.4,15.4,0,0,0,.93-5.34V88.5h-3.2l-.17,4.41a11.05,11.05,0,0,0-3.89-3.66A12.24,12.24,0,0,0,453.85,89a11.35,11.35,0,0,0-3.71,3.13,14.28,14.28,0,0,0-2.32,4.94,22.21,22.21,0,0,0-.82,6.44Zm3.43-.58a22.61,22.61,0,0,1,.52-5,12.62,12.62,0,0,1,1.63-4,7.8,7.8,0,0,1,2.84-2.67,7.57,7.57,0,0,1,4.06-1,11,11,0,0,1,3.25.46,9.11,9.11,0,0,1,2.5,1.34A9.44,9.44,0,0,1,467,94.59a9.76,9.76,0,0,1,1.22,2.32v14.22a10.65,10.65,0,0,1-1.33,2.26,7.53,7.53,0,0,1-1.86,1.75,9,9,0,0,1-2.49,1.21,10.57,10.57,0,0,1-3.14.41,7.85,7.85,0,0,1-4-1,7.72,7.72,0,0,1-2.84-2.67,12.46,12.46,0,0,1-1.63-4,22.23,22.23,0,0,1-.52-5Zm45.69,15.73a9.85,9.85,0,0,0,3-1.17,9.59,9.59,0,0,0,2.32-1.68,14.36,14.36,0,0,0,1.8-2.15l-2.14-1.56a10.06,10.06,0,0,1-3.78,3.13,10.59,10.59,0,0,1-4.81,1,9.69,9.69,0,0,1-4.3-.93,10.47,10.47,0,0,1-3.31-2.61,11.88,11.88,0,0,1-2.14-3.83,14.43,14.43,0,0,1-.76-4.76v-.64H503.9V102a19.49,19.49,0,0,0-.81-5.63,12.67,12.67,0,0,0-2.32-4.47,11.37,11.37,0,0,0-3.83-2.9,12.17,12.17,0,0,0-5.17-1,11.46,11.46,0,0,0-5,1.1,13.77,13.77,0,0,0-4.18,3.13A14.58,14.58,0,0,0,479.7,97a18.87,18.87,0,0,0-1,6.44v1.22a17,17,0,0,0,1,6,13.47,13.47,0,0,0,2.85,4.76,12,12,0,0,0,4.35,3.08,13.26,13.26,0,0,0,5.51,1.16,14.43,14.43,0,0,0,3.71-.46Zm-.58-27.63a9.18,9.18,0,0,1,2.73,2.21A10.35,10.35,0,0,1,499.9,97a13.85,13.85,0,0,1,.64,3.77v.35h-18.4a15.6,15.6,0,0,1,1.1-4.24,10.76,10.76,0,0,1,2-3.25,10.32,10.32,0,0,1,2.9-2.14,9.2,9.2,0,0,1,3.6-.7,8.61,8.61,0,0,1,3.77.81Z"></path><path class="cls-3" d="M124.26,672.67H744.34m55-479.37v431"></path><path d="M845.1,404.57a11.25,11.25,0,0,0,0,14,8.52,8.52,0,0,0,6.58,2.69,7.66,7.66,0,0,0,4.4-1.3,8.92,8.92,0,0,0,3-3.43,8.79,8.79,0,0,0,3.24,4,8.44,8.44,0,0,0,4.82,1.43,8.73,8.73,0,0,0,6.82-2.82A12.69,12.69,0,0,0,874,404a8.62,8.62,0,0,0-6.82-2.87,8.09,8.09,0,0,0-4.82,1.53,9.17,9.17,0,0,0-3.24,4.08,8.94,8.94,0,0,0-3-3.52,7.55,7.55,0,0,0-4.4-1.3,8.35,8.35,0,0,0-6.58,2.69ZM871.47,407a7.33,7.33,0,0,1,0,9.22,5.83,5.83,0,0,1-4.4,1.67,6.19,6.19,0,0,1-4.54-1.71,6,6,0,0,1-1.72-4.55,6.42,6.42,0,0,1,1.76-4.59,6.13,6.13,0,0,1,4.5-1.76,5.86,5.86,0,0,1,4.4,1.72Zm-23.82.65a6.18,6.18,0,0,1,8.2-.05,5.27,5.27,0,0,1,1.53,4,5.44,5.44,0,0,1-1.53,4,6.41,6.41,0,0,1-8.25-.05,5.33,5.33,0,0,1-1.53-4,5.22,5.22,0,0,1,1.58-3.94Zm12.75-17.12-.88-1.11a6.92,6.92,0,0,1-1.21-4.32,6.08,6.08,0,0,1,2-4.77,7.65,7.65,0,0,1,5.33-1.81,8.29,8.29,0,0,1,5.47,1.67,5.6,5.6,0,0,1,2,4.59,6.22,6.22,0,0,1-1.44,4.31,6.56,6.56,0,0,1-4.26,2v4a9.77,9.77,0,0,0,6.72-3.15,10.43,10.43,0,0,0,2.41-7.14,10.11,10.11,0,0,0-2.92-7.69,11.37,11.37,0,0,0-8-2.74,11.76,11.76,0,0,0-8.07,2.64,9.07,9.07,0,0,0-3,7.14,10.47,10.47,0,0,0,1.43,5.52l-9-1V375.3h-3.89v16.88l16.45,1.67Z"></path><path d="M406.26,713.62h-.65l-12,4.49v3.8l8.43-3.1v27.9h4.22Zm33.9,29.66H423.61l8.81-9.59c4.17-4.45,6.21-8.35,6.21-11.59a8.31,8.31,0,0,0-2.64-6.4,10.47,10.47,0,0,0-7.28-2.41,10.68,10.68,0,0,0-7.83,2.83,9.51,9.51,0,0,0-3,7.32h4.22a6.88,6.88,0,0,1,1.71-5,6.63,6.63,0,0,1,4.87-1.76,5.52,5.52,0,0,1,4.17,1.67,5.9,5.9,0,0,1,1.53,4.22,7.91,7.91,0,0,1-.93,3.71A25.78,25.78,0,0,1,430,731l-11.4,12.7v3h21.6Zm9.75-12.23,1.11-.88a6.91,6.91,0,0,1,4.31-1.21,6.1,6.1,0,0,1,4.78,2,7.7,7.7,0,0,1,1.8,5.33,8.24,8.24,0,0,1-1.67,5.47,5.59,5.59,0,0,1-4.58,2,6.27,6.27,0,0,1-4.32-1.44,6.61,6.61,0,0,1-2-4.26h-4a9.74,9.74,0,0,0,3.16,6.72,10.4,10.4,0,0,0,7.14,2.41,10.11,10.11,0,0,0,7.69-2.92,11.36,11.36,0,0,0,2.73-8,11.76,11.76,0,0,0-2.64-8.07,9.07,9.07,0,0,0-7.14-3,10.43,10.43,0,0,0-5.51,1.43l1-9h13.35v-3.89H448.24l-1.67,16.45Z"></path><path class="cls-1" d="M482.36,588.44c-30.86-3.48-51.9-11.39-52.24-21.28s19.78-19.07,49.95-24.66"></path><path class="cls-4" d="M482.36,588.44c-30.86-3.48-51.9-11.39-52.24-21.28s19.78-19.07,49.95-24.66"></path><path class="cls-1" d="M377.5,442.09c-9.83,7.25-41.27,12.26-73.93,9.82-36.95-2.77-71.66-14.45-71.17-25.32s34.11-17,74.28-13.85c8.08.64,15.84,1.61,23.05,2.84"></path><path class="cls-4" d="M377.5,442.09c-9.83,7.25-41.27,12.26-73.93,9.82-36.95-2.77-71.66-14.45-71.17-25.32s34.11-17,74.28-13.85c8.08.64,15.84,1.61,23.05,2.84"></path><polyline class="cls-1" points="421.17 244.13 425.77 216.63 436.96 216.41"></polyline><polyline class="cls-4" points="421.17 244.13 425.77 216.63 436.96 216.41"></polyline><polyline class="cls-1" points="498.22 217 483.03 217 492.64 265.5 496.51 266.3"></polyline><path class="cls-4" d="M498.22,217H483l9.61,48.5,3.87.8m38.27,330.85s8-5.09,5.66-6.79m-50.64,20,35.93-18m-41.61,29.41,42.13-20.42m5,7.66-12,2.91s-8.06,6.56,1.94,8.76l110.81-32.1M525,576.44l.78,13.86m0,0,1.09,19.79m6.69-29.34,2,26.49"></path><polyline class="cls-1" points="506.45 265.74 542.88 472.29 686.75 449.32 686.75 456.61 523.84 486.89 521.27 478.13 533.73 475.94 497.89 266.3"></polyline><polyline class="cls-4" points="506.45 265.74 542.88 472.29 686.75 449.32 686.75 456.61 523.84 486.89 521.27 478.13 533.73 475.94 497.89 266.3"></polyline><polyline class="cls-1" points="528.84 555.58 493.91 266.49 486.17 266.49 518.8 537.84"></polyline><path class="cls-4" d="M528.83,555.58,493.91,266.49h-7.74L518.8,537.84m0,0,2.86,23.74"></path><polyline class="cls-1" points="489.8 611.98 473.41 266.49 465.73 266.49 483.03 613.34"></polyline><polyline class="cls-4" points="489.8 611.98 473.41 266.49 465.73 266.49 483.03 613.34"></polyline><polyline class="cls-1" points="441.76 411.34 448.3 266.3 439.65 266.49 433.55 409.43"></polyline><polyline class="cls-4" points="441.76 411.34 448.3 266.3 439.65 266.49 433.55 409.43"></polyline><polyline class="cls-1" points="420.21 266.3 403.94 405.18 411.62 405.93 429.21 266.3"></polyline><polyline class="cls-4" points="420.21 266.3 403.94 405.18 411.62 405.93 429.21 266.3"></polyline><polyline class="cls-1" points="416.58 265.5 391.64 404.4 384.47 403.68 408.34 263.86"></polyline><polyline class="cls-4" points="416.58 265.5 391.64 404.4 384.47 403.68 408.34 263.86"></polyline><polyline class="cls-1" points="498.22 217 507.86 265.74 495.16 265.74"></polyline><polyline class="cls-4" points="498.22 217 507.86 265.74 495.16 265.74"></polyline><polyline class="cls-1" points="436.96 216.41 430.12 265.74 420 265.74 421.17 244.13"></polyline><polyline class="cls-4" points="436.96 216.41 430.12 265.74 420 265.74 421.17 244.13"></polyline><path class="cls-1" d="M742.35,422c1.55,9.13-29.4,22-69.12,28.66s-73.19,4.7-74.74-4.44,29.4-22,69.12-28.66,73.19-4.7,74.74,4.44"></path><path class="cls-4" d="M742.35,422c1.55,9.13-29.4,22-69.12,28.66s-73.19,4.7-74.74-4.44,29.4-22,69.12-28.66,73.19-4.7,74.74,4.44Z"></path><path class="cls-1" d="M320.33,578.15c2.28-12.92-39.32-31-92.9-40.38s-98.87-6.49-101.15,6.44,39.32,31,92.9,40.36,98.87,6.5,101.15-6.42"></path><path class="cls-4" d="M320.33,578.15c2.28-12.92-39.32-31-92.9-40.38s-98.87-6.49-101.15,6.44,39.32,31,92.9,40.36,98.87,6.5,101.15-6.42Z"></path><path class="cls-1" d="M630,582.54c-2.58.34-5.17.66-7.8,1-55.42,6.21-101.66-.37-103.28-14.69s42-31,97.41-37.21S718,532,719.6,546.28c1.52,13.35-36.22,28.72-86.18,35.79"></path><path class="cls-4" d="M630,582.54c-2.58.34-5.17.66-7.8,1-55.42,6.21-101.66-.37-103.28-14.69s42-31,97.41-37.21S718,532,719.6,546.28c1.52,13.35-36.22,28.72-86.18,35.79m-56.78,3.79a348.91,348.91,0,0,1-42.91,4.21m-7.48.21a346.68,346.68,0,0,1-38-1.25m-2-47.6c10.26-1.66,21.51-2.91,33.39-3.64m6.67-.36,3.9-.15a350.14,350.14,0,0,1,45.26,1.24"></path><path class="cls-2" d="M624.68,583.16c-.23,0-.47,0-.71.06-8.58.61-15.64-.43-15.77-2.34s6.7-4,15.28-4.56,15.65.44,15.78,2.34c.11,1.62-4.81,3.34-11.57,4.19"></path><path class="cls-5" d="M624.68,583.16c-.23,0-.47,0-.71.06-8.58.61-15.64-.43-15.77-2.34s6.7-4,15.28-4.56,15.65.44,15.78,2.34c.11,1.62-4.81,3.34-11.57,4.19"></path><polyline class="cls-1" points="378.02 442.85 372.96 477.35 349.98 609.27 358.37 610.88 386.88 444.21"></polyline><polyline class="cls-4" points="378.02 442.85 372.96 477.35 349.98 609.27 358.37 610.88 386.88 444.21"></polyline><polygon class="cls-1" points="204.81 581.39 202.2 590.25 371.02 621.41 372.96 613.67 204.81 581.39"></polygon><polygon class="cls-4" points="204.81 581.39 202.2 590.25 371.02 621.41 372.96 613.67 204.81 581.39 204.81 581.39"></polygon><path class="cls-1" d="M485.26,617.55c0,2.66-1.74,4.83-3.88,4.83s-3.88-2.17-3.88-4.83,1.74-4.84,3.88-4.84,3.88,2.16,3.88,4.84"></path><path class="cls-4" d="M485.26,617.55c0,2.66-1.74,4.83-3.88,4.83s-3.88-2.17-3.88-4.83,1.74-4.84,3.88-4.84,3.88,2.16,3.88,4.84Z"></path><path class="cls-1" d="M634.43,584.8c0,2.33-1.52,4.22-3.39,4.22s-3.39-1.89-3.39-4.22,1.51-4.24,3.39-4.24,3.39,1.89,3.39,4.24"></path><path class="cls-4" d="M634.43,584.8c0,2.33-1.52,4.22-3.39,4.22s-3.39-1.89-3.39-4.22,1.51-4.24,3.39-4.24,3.39,1.89,3.39,4.24Z"></path><path class="cls-1" d="M621.79,580.87l-.7,0c-8.43.61-15.39-.42-15.52-2.29s6.6-3.87,15-4.47,15.39.42,15.52,2.29c.12,1.59-4.73,3.27-11.37,4.11"></path><path class="cls-4" d="M621.79,580.87l-.7,0c-8.43.61-15.39-.42-15.52-2.29s6.6-3.87,15-4.47,15.39.42,15.52,2.29c.12,1.59-4.73,3.27-11.37,4.11"></path><rect class="cls-2" x="213.45" y="566.81" width="5.78" height="31.6" transform="translate(-394.91 694.94) rotate(-80.04)"></rect><polygon class="cls-5" points="231.4 588.19 200.27 582.72 201.27 577.03 232.4 582.5 231.4 588.19 231.4 588.19"></polygon><polygon class="cls-1" points="429.12 448.13 429.12 473.77 434.86 484.09 436.54 447.57 429.12 448.13"></polygon><polyline class="cls-4" points="436.54 447.57 434.86 484.09 429.11 473.76 429.11 448.13"></polyline><path class="cls-1" d="M392.86,457.27l40.8,30.11s9.35.94,5.28-6.58l-42.67-30.55"></path><path class="cls-4" d="M392.86,457.27l40.8,30.11s9.35.94,5.28-6.58l-42.67-30.55m2.15,28.67,9.6,1.88m-4.56-16-2.39,14.1m-22.89,3.76L408,489.49m-12.7-30.07-2.4,19.5m-13.37-4.11,13.37,2.7"></path><path class="cls-1" d="M370.15,480.8l-80.53-18.56c-5-7.29,2.16-8,2.16-8l79.87,18.11"></path><path class="cls-4" d="M370.15,480.8l-80.53-18.56c-5-7.29,2.16-8,2.16-8l79.87,18.11M234.17,584.59l-30.27-5.21,1-5.43,30.27,5.21-1,5.43Z"></path><path class="cls-2" d="M414.56,442.21c-.13,1.49-7.15,2.15-15.7,1.48s-15.39-2.44-15.28-3.93,7.15-2.15,15.71-1.47,15.37,2.43,15.27,3.92"></path><path class="cls-4" d="M534,606.83l87.07-23.22-.35-4.71h4.68v4.21m-216-127.53.89-7.19"></path><path class="cls-1" d="M418,485.24c0,2.63-1.71,4.76-3.84,4.76s-3.85-2.13-3.85-4.76,1.73-4.75,3.85-4.75,3.84,2.12,3.84,4.75"></path><path class="cls-4" d="M418,485.24c0,2.63-1.72,4.76-3.84,4.76s-3.85-2.13-3.85-4.76,1.72-4.75,3.85-4.75,3.84,2.12,3.84,4.75Z"></path><polyline class="cls-1" points="415.51 216.63 407.79 263.31 417.56 265.74 420.43 248.56 425.77 216.63"></polyline><polyline class="cls-4" points="415.51 216.63 407.79 263.31 417.56 265.74 420.43 248.56 425.77 216.63"></polyline><path class="cls-1" d="M473.43,430.34c-.87,10.82-34.12,17-74.28,13.86s-72-14.5-71.17-25.31,34.11-17,74.28-13.85,72,14.49,71.17,25.3"></path><path class="cls-4" d="M473.43,430.34c-.87,10.82-34.12,17-74.28,13.86s-72-14.5-71.17-25.31,34.11-17,74.28-13.85,72,14.49,71.17,25.3Z"></path><path class="cls-5" d="M414.56,442.21c-.13,1.49-7.15,2.15-15.7,1.48s-15.39-2.44-15.28-3.93,7.15-2.15,15.71-1.47,15.37,2.43,15.27,3.92"></path><path class="cls-4" d="M416.89,445.19c-.12,1.43-7,2.07-15.3,1.42s-15-2.34-14.88-3.78,7-2.08,15.3-1.42,15,2.34,14.88,3.78Z"></path><polyline class="cls-1" points="442.07 217 439.52 265.74 448.79 265.74 451.34 217"></polyline><polyline class="cls-4" points="442.07 217 439.52 265.74 448.79 265.74 451.34 217"></polyline><path class="cls-1" d="M397.29,452.3a4.4,4.4,0,1,1-4.37-4.87,4.64,4.64,0,0,1,4.37,4.87"></path><path class="cls-4" d="M397.29,452.3a4.4,4.4,0,1,1-4.37-4.87,4.64,4.64,0,0,1,4.37,4.87Z"></path><polyline class="cls-1" points="462.35 217 464.9 265.74 474.18 265.74 472.22 217"></polyline><polyline class="cls-4" points="462.35 217 464.9 265.74 474.18 265.74 472.22 217"></polyline><polyline class="cls-1" points="477.31 217 483.94 265.74 495.16 265.74 485.99 217"></polyline><polyline class="cls-4" points="477.31 217 483.94 265.74 495.16 265.74 485.99 217"></polyline><rect class="cls-1" x="392.17" y="212.74" width="127.4" height="3.89"></rect><rect class="cls-4" x="392.17" y="212.75" width="127.4" height="3.89"></rect><rect class="cls-1" x="407.79" y="195.23" width="100.06" height="17.51"></rect><rect class="cls-4" x="407.79" y="195.23" width="100.06" height="17.51"></rect></svg> 