<?xml version="1.0" encoding="UTF-8"?> <svg xmlns="http://www.w3.org/2000/svg" id="Livello_1" data-name="Livello 1" viewBox="0 0 831.12 1000.49"><defs><style>.cls-1{fill:#fff;}.cls-2{fill:#231f20;}.cls-3,.cls-4{fill:none;stroke-width:0.25px;}.cls-3{stroke:#000;}.cls-4{stroke:#231f20;stroke-miterlimit:10;}</style></defs><title>MoM tall tavolo</title><rect class="cls-1" y="0.49" width="831.12" height="1000"></rect><path class="cls-2" d="M225.54.71h-1.2L201,9.13v9.06l13.35-4.13v43.2h11.2ZM272.67.24a29.56,29.56,0,0,0-12.15,2.3,25.55,25.55,0,0,0-9.06,6.36,29.33,29.33,0,0,0-5.64,9.84,38.84,38.84,0,0,0-1.9,12.47v4.37a27.73,27.73,0,0,0,1.43,9.14,21,21,0,0,0,4,7.06,18.08,18.08,0,0,0,6.27,4.61,19.58,19.58,0,0,0,8.18,1.67,20.52,20.52,0,0,0,7.87-1.51,18.07,18.07,0,0,0,6-4.13,17.64,17.64,0,0,0,3.81-6.12,21.81,21.81,0,0,0,1.35-7.62,27.54,27.54,0,0,0-1-7.39,18.2,18.2,0,0,0-3-6.11,14.74,14.74,0,0,0-5-4.13,15.35,15.35,0,0,0-7.07-1.59,16.64,16.64,0,0,0-6.43,1.27,15.68,15.68,0,0,0-4.93,3.41A18.54,18.54,0,0,1,257.26,18a13.73,13.73,0,0,1,3.65-4.61,17.87,17.87,0,0,1,5.56-2.94,22,22,0,0,1,7.15-1h.64V.24Zm-5.88,29a8.56,8.56,0,0,1,2.62,2.14,10.57,10.57,0,0,1,1.67,3.26,13.57,13.57,0,0,1,.56,4.13,13.57,13.57,0,0,1-.56,4.13,10.13,10.13,0,0,1-1.67,3.18,6.61,6.61,0,0,1-2.54,2.14,6.43,6.43,0,0,1-3.34.79,8.14,8.14,0,0,1-3.41-.71,8,8,0,0,1-2.7-2.22,12.46,12.46,0,0,1-1.67-3.74,20.44,20.44,0,0,1-.63-5.24V33.68a7.36,7.36,0,0,1,1.27-2A7.31,7.31,0,0,1,258.21,30a9.09,9.09,0,0,1,2.31-1.11,9.25,9.25,0,0,1,6.27.32Zm60.56-5.09a36.85,36.85,0,0,0-1.43-11A19.75,19.75,0,0,0,322,5.72a14.55,14.55,0,0,0-6-4.29A20.35,20.35,0,0,0,308.21,0a20.65,20.65,0,0,0-7.79,1.43,14.22,14.22,0,0,0-5.95,4.29,19.62,19.62,0,0,0-3.9,7.46,36.85,36.85,0,0,0-1.43,11v9.77a36.56,36.56,0,0,0,1.43,10.88,21.25,21.25,0,0,0,3.9,7.55,14.46,14.46,0,0,0,6,4.29,20.64,20.64,0,0,0,7.78,1.43,20.36,20.36,0,0,0,7.79-1.43,14.46,14.46,0,0,0,6-4.29,21.25,21.25,0,0,0,3.9-7.55,39.6,39.6,0,0,0,1.35-10.88Zm-11.2,11.28a28.91,28.91,0,0,1-.56,6.36A12.4,12.4,0,0,1,314.08,46a5.69,5.69,0,0,1-2.46,2.3,8.19,8.19,0,0,1-6.67,0,5.69,5.69,0,0,1-2.46-2.3,12.35,12.35,0,0,1-1.59-4.21,35.6,35.6,0,0,1-.48-6.36V22.48a34.57,34.57,0,0,1,.48-6.28,11.84,11.84,0,0,1,1.51-4.13,6.78,6.78,0,0,1,2.46-2.3,7.75,7.75,0,0,1,3.34-.64,7.29,7.29,0,0,1,3.33.64,6.4,6.4,0,0,1,2.54,2.3,11.84,11.84,0,0,1,1.51,4.13,28.08,28.08,0,0,1,.56,6.28Zm57.46,12.79H349.3l9.93-10.48c1.91-2,3.65-3.82,5.16-5.64a38.81,38.81,0,0,0,4-5.32,25.9,25.9,0,0,0,2.47-5.25,16,16,0,0,0,.95-5.48,18.66,18.66,0,0,0-1.19-6.75,13.53,13.53,0,0,0-3.58-5,16,16,0,0,0-5.72-3.18A26.75,26.75,0,0,0,353.35,0a20.88,20.88,0,0,0-8.18,1.51,18,18,0,0,0-6.11,4,17.54,17.54,0,0,0-4,5.88,20.18,20.18,0,0,0-1.35,7.23H345a11.29,11.29,0,0,1,.56-3.82,9,9,0,0,1,1.51-3,7.23,7.23,0,0,1,2.62-2,7.76,7.76,0,0,1,3.49-.72,6.87,6.87,0,0,1,5.4,2.15,8.66,8.66,0,0,1,1.91,6,7.34,7.34,0,0,1-.4,2.54,13.88,13.88,0,0,1-1.19,2.86,23.24,23.24,0,0,1-2.3,3.41,46.12,46.12,0,0,1-3.5,4.13L334.85,49.56v7.7h38.76Zm29.1-19.62H380.87v9h21.84Zm46.51-4.45a36.85,36.85,0,0,0-1.43-11,19.47,19.47,0,0,0-3.89-7.46,14.55,14.55,0,0,0-6-4.29A20.31,20.31,0,0,0,430.08,0a20.69,20.69,0,0,0-7.79,1.43,14.28,14.28,0,0,0-6,4.29,19.47,19.47,0,0,0-3.89,7.46,36.52,36.52,0,0,0-1.43,11v9.77a36.24,36.24,0,0,0,1.43,10.88,21.08,21.08,0,0,0,3.89,7.55,14.52,14.52,0,0,0,6,4.29,20.69,20.69,0,0,0,7.79,1.43,20.31,20.31,0,0,0,7.78-1.43,14.55,14.55,0,0,0,6-4.29,21.24,21.24,0,0,0,3.89-7.55,39.6,39.6,0,0,0,1.35-10.88ZM438,35.42a28.91,28.91,0,0,1-.56,6.36A12.41,12.41,0,0,1,436,46a5.71,5.71,0,0,1-2.47,2.3,8.19,8.19,0,0,1-6.67,0,5.69,5.69,0,0,1-2.46-2.3,12.35,12.35,0,0,1-1.59-4.21,35.6,35.6,0,0,1-.48-6.36V22.48a34.57,34.57,0,0,1,.48-6.28,11.84,11.84,0,0,1,1.51-4.13,6.78,6.78,0,0,1,2.46-2.3,7.78,7.78,0,0,1,3.34-.64,7.29,7.29,0,0,1,3.33.64,6.42,6.42,0,0,1,2.55,2.3,11.84,11.84,0,0,1,1.5,4.13,28.08,28.08,0,0,1,.56,6.28Zm57.46,12.79H471.17l9.93-10.48c1.91-2,3.66-3.82,5.16-5.64a39.76,39.76,0,0,0,4-5.32,26.39,26.39,0,0,0,2.46-5.25,16,16,0,0,0,.95-5.48,18.66,18.66,0,0,0-1.19-6.75,13.5,13.5,0,0,0-3.57-5,16.09,16.09,0,0,0-5.72-3.18A26.87,26.87,0,0,0,475.22,0,21,21,0,0,0,467,1.51a18,18,0,0,0-6.11,4,17.37,17.37,0,0,0-4,5.88,20,20,0,0,0-1.35,7.23h11.27a11.29,11.29,0,0,1,.56-3.82,9,9,0,0,1,1.51-3,7.23,7.23,0,0,1,2.62-2,7.8,7.8,0,0,1,3.5-.72,6.89,6.89,0,0,1,5.4,2.15,8.65,8.65,0,0,1,1.9,6A7.56,7.56,0,0,1,482,19.7a14,14,0,0,1-1.2,2.86,23.24,23.24,0,0,1-2.3,3.41A45.86,45.86,0,0,1,475,30.1L456.72,49.56v7.7h38.76Z"></path><path class="cls-2" d="M303.22,110.32v10.8h-7.71v3.82h7.71v27.95a16.6,16.6,0,0,0,.71,5.24,9,9,0,0,0,1.91,3.34,6.11,6.11,0,0,0,2.86,1.83,11.16,11.16,0,0,0,3.65.55c.95,0,1.83-.08,2.78-.16a12,12,0,0,0,2.22-.55l-.24-3.73-1.74.23a15.9,15.9,0,0,1-2,.08,8.55,8.55,0,0,1-2.06-.24,3.34,3.34,0,0,1-1.75-.95,4.67,4.67,0,0,1-1.19-2.14,10.57,10.57,0,0,1-.48-3.5V124.94h8.66v-3.82H307.9v-10.8Zm54.38,52.74v-.48a14.64,14.64,0,0,1-.56-1.75c-.16-.63-.24-1.35-.4-2.06s-.16-1.43-.24-2.22a21.53,21.53,0,0,1-.08-2.23V134a15,15,0,0,0-1.11-6,11.73,11.73,0,0,0-3.17-4.29,13.82,13.82,0,0,0-4.77-2.54,22,22,0,0,0-12.79.16,18.53,18.53,0,0,0-5.08,2.78,13.08,13.08,0,0,0-3.26,4,9.15,9.15,0,0,0-1.11,4.53l4.61.08a7.07,7.07,0,0,1,.87-3.34,9.18,9.18,0,0,1,2.31-2.7,10.62,10.62,0,0,1,3.57-1.74,13.31,13.31,0,0,1,4.45-.72q5.36,0,8.1,2.62a9.18,9.18,0,0,1,2.78,7.07v4.77h-8.58a34.68,34.68,0,0,0-8,.87,18.33,18.33,0,0,0-6,2.7A11.86,11.86,0,0,0,325,156.63a11.21,11.21,0,0,0,2.7,3.81,12.88,12.88,0,0,0,4.29,2.54,17.66,17.66,0,0,0,5.56.87,21.41,21.41,0,0,0,4.61-.55,26.7,26.7,0,0,0,4-1.43,15.05,15.05,0,0,0,3.18-2.15,12.54,12.54,0,0,0,2.46-2.54c.08,1.11.16,2.15.32,3.26a10.17,10.17,0,0,0,.63,2.62Zm-23.43-4a9.26,9.26,0,0,1-3-1.75,6.76,6.76,0,0,1-1.83-2.62,7.12,7.12,0,0,1-.71-3.18,7.83,7.83,0,0,1,1-3.89,8.28,8.28,0,0,1,3-2.94,14.51,14.51,0,0,1,4.76-1.82,25.53,25.53,0,0,1,6.36-.64h7.94v9.21a14,14,0,0,1-2.07,3.26,15.86,15.86,0,0,1-3,2.62,15.61,15.61,0,0,1-3.89,1.75,17.88,17.88,0,0,1-4.68.63,11.92,11.92,0,0,1-3.89-.63Zm39.74-55.6h-4.68v59.57h4.68Zm17.78,0H387v59.57h4.69Z"></path><line class="cls-3" x1="559.26" y1="254.56" x2="559.26" y2="818.77"></line><path d="M618.67,544.4v6.09L650,570.67h3.36V550.11h10.47V544.4H653.31v-6.28h-4.7v6.28Zm9.07,6.41-1.2-.7h22.07v14.08Zm-9.07-42.08v6.09L650,535h3.36V514.44h10.47v-5.71H653.31v-6.28h-4.7v6.28Zm9.07,6.4-1.2-.69h22.07v14.08Z"></path><line class="cls-3" x1="178.3" y1="898.01" x2="437.16" y2="898.01"></line><path d="M305.39,994.67H282.74l12.05-13.13c5.71-6.09,8.51-11.42,8.51-15.86a11.35,11.35,0,0,0-3.62-8.76c-2.47-2.22-5.77-3.3-10-3.3-4.51,0-8.06,1.27-10.72,3.87a13.06,13.06,0,0,0-4.06,10h5.77a9.39,9.39,0,0,1,2.35-6.79,9,9,0,0,1,6.66-2.41,7.55,7.55,0,0,1,5.71,2.28,8.11,8.11,0,0,1,2.09,5.78,10.86,10.86,0,0,1-1.27,5.07,34.78,34.78,0,0,1-4.82,6.41l-15.6,17.38v4.13h29.56Zm34.4-21.95c-.06-6.53-1.26-11.29-3.55-14.4s-5.84-4.7-10.72-4.7-8.5,1.59-10.79,4.83-3.42,8.18-3.42,14.78v7.67c.06,6.35,1.27,11.11,3.61,14.34s5.84,4.76,10.66,4.76,8.5-1.65,10.79-4.89,3.42-8.24,3.42-15Zm-5.71,8.95c-.06,4.69-.82,8.18-2.15,10.34a7.68,7.68,0,0,1-12.75-.19c-1.4-2.35-2.16-5.9-2.16-10.79v-9.2c.06-4.57.76-8,2.09-10.21s3.49-3.3,6.41-3.3a7,7,0,0,1,6.47,3.36c1.4,2.22,2.09,5.71,2.09,10.6Z"></path><path class="cls-1" d="M240.12,774.15h0l-58.5-182.79a14,14,0,0,1-.68-4.46L181.7,503a13.93,13.93,0,0,1,.52-3.69L212,392.05a11.7,11.7,0,0,1,8.11-8.17l54.47-15.19c13.59-2.42,15.2-21,15.2-21V260.45h36v87.24s1.6,18.58,15.19,21L395.83,384a10.86,10.86,0,0,1,7.54,7.6l29.89,107.84a13.72,13.72,0,0,1,.49,3.48l.76,84.3a11.93,11.93,0,0,1-.58,3.84l-58.6,183.09H240.12ZM423.6,814.81H190.53v-126H423.6ZM309.46,776H198.52V690.41H309.46Zm107.2,0H309.46V690.41h107.2ZM289.73,258.85h36m-33.88-3h31.48"></path><path class="cls-4" d="M240.12,774.15h0l-58.5-182.79a14,14,0,0,1-.68-4.46L181.7,503a13.93,13.93,0,0,1,.52-3.69L212,392.05a11.7,11.7,0,0,1,8.11-8.17l54.47-15.19c13.59-2.42,15.2-21,15.2-21V260.45h36v87.24s1.6,18.58,15.19,21L395.83,384a10.86,10.86,0,0,1,7.54,7.6l29.89,107.84a13.72,13.72,0,0,1,.49,3.48l.76,84.3a11.93,11.93,0,0,1-.58,3.84l-58.6,183.09H240.12ZM423.6,814.81H190.53v-126H423.6ZM309.46,776H198.52V690.41H309.46Zm107.2,0H309.46V690.41h107.2ZM289.73,258.85h36m-33.88-3h31.48"></path></svg> 