<?xml version="1.0" encoding="UTF-8"?> <svg xmlns="http://www.w3.org/2000/svg" id="Livello_1" data-name="Livello 1" viewBox="0 0 831.12 1000.49"><defs><style>.cls-1{fill:#fff;}.cls-2{fill:#231f20;}.cls-3,.cls-4{fill:none;stroke-width:0.25px;}.cls-3{stroke:#000;}.cls-4{stroke:#231f20;stroke-miterlimit:10;}</style></defs><title>MoM little tavolo</title><rect class="cls-1" y="0.49" width="831.12" height="1000"></rect><path class="cls-2" d="M199.93.71h-1.19L175.39,9.13v9.06l13.34-4.13v43.2h11.2ZM247.06.24a29.56,29.56,0,0,0-12.15,2.3,25.73,25.73,0,0,0-9.06,6.36,29.31,29.31,0,0,0-5.63,9.84,38.84,38.84,0,0,0-1.91,12.47v4.37a28,28,0,0,0,1.43,9.14,21,21,0,0,0,4,7.06A18.08,18.08,0,0,0,230,56.39a19.66,19.66,0,0,0,8.19,1.67A20.47,20.47,0,0,0,246,56.55a17.74,17.74,0,0,0,9.85-10.25,22,22,0,0,0,1.35-7.62,27.54,27.54,0,0,0-1-7.39,18.19,18.19,0,0,0-3-6.11,14.78,14.78,0,0,0-5-4.13,15.35,15.35,0,0,0-7.07-1.59,16.68,16.68,0,0,0-6.43,1.27,15.63,15.63,0,0,0-4.92,3.41,18.3,18.3,0,0,1,1.9-6.11,13.88,13.88,0,0,1,3.66-4.61,17.65,17.65,0,0,1,5.56-2.94,21.93,21.93,0,0,1,7.14-1h.64V.24Zm-5.88,29a8.44,8.44,0,0,1,2.62,2.14,10.35,10.35,0,0,1,1.67,3.26,13.57,13.57,0,0,1,.56,4.13,13.57,13.57,0,0,1-.56,4.13,9.93,9.93,0,0,1-1.67,3.18,6.53,6.53,0,0,1-2.54,2.14,6.42,6.42,0,0,1-3.33.79,8.19,8.19,0,0,1-3.42-.71,8.09,8.09,0,0,1-2.7-2.22,12.71,12.71,0,0,1-1.67-3.74,20.89,20.89,0,0,1-.63-5.24V33.68a7.61,7.61,0,0,1,1.27-2A7.36,7.36,0,0,1,232.61,30a8.87,8.87,0,0,1,2.3-1.11,9.25,9.25,0,0,1,6.27.32Zm60.56-5.09a36.85,36.85,0,0,0-1.43-11,19.47,19.47,0,0,0-3.89-7.46,14.55,14.55,0,0,0-6-4.29A20.31,20.31,0,0,0,282.6,0a20.69,20.69,0,0,0-7.79,1.43,14.28,14.28,0,0,0-5.95,4.29A19.47,19.47,0,0,0,265,13.18a36.52,36.52,0,0,0-1.43,11v9.77A36.24,36.24,0,0,0,265,44.79a21.08,21.08,0,0,0,3.89,7.55,14.52,14.52,0,0,0,6,4.29,20.69,20.69,0,0,0,7.79,1.43,20.31,20.31,0,0,0,7.78-1.43,14.55,14.55,0,0,0,6-4.29,21.08,21.08,0,0,0,3.89-7.55,39.6,39.6,0,0,0,1.35-10.88Zm-11.2,11.28a28.91,28.91,0,0,1-.56,6.36,12.41,12.41,0,0,1-1.5,4.21,5.71,5.71,0,0,1-2.47,2.3,8.19,8.19,0,0,1-6.67,0,5.74,5.74,0,0,1-2.46-2.3,12.35,12.35,0,0,1-1.59-4.21,35.6,35.6,0,0,1-.48-6.36V22.48a34.57,34.57,0,0,1,.48-6.28,11.84,11.84,0,0,1,1.51-4.13,6.86,6.86,0,0,1,2.46-2.3,7.78,7.78,0,0,1,3.34-.64,7.29,7.29,0,0,1,3.33.64,6.42,6.42,0,0,1,2.55,2.3A11.84,11.84,0,0,1,290,16.2a28.08,28.08,0,0,1,.56,6.28ZM348,48.21H323.69l9.93-10.48c1.91-2,3.66-3.82,5.16-5.64a39.76,39.76,0,0,0,4-5.32,26.39,26.39,0,0,0,2.46-5.25,16,16,0,0,0,.95-5.48A18.66,18.66,0,0,0,345,9.29a13.5,13.5,0,0,0-3.57-5,16.09,16.09,0,0,0-5.72-3.18A26.87,26.87,0,0,0,327.74,0a21,21,0,0,0-8.18,1.51,18,18,0,0,0-6.11,4,17.37,17.37,0,0,0-4,5.88,20,20,0,0,0-1.35,7.23h11.28a11.3,11.3,0,0,1,.55-3.82,9,9,0,0,1,1.51-3,7.31,7.31,0,0,1,2.62-2,7.8,7.8,0,0,1,3.5-.72A6.89,6.89,0,0,1,333,11.2a8.65,8.65,0,0,1,1.9,6,7.56,7.56,0,0,1-.39,2.54,14,14,0,0,1-1.2,2.86A23.24,23.24,0,0,1,331,26a45.86,45.86,0,0,1-3.49,4.13L309.24,49.56v7.7H348Zm29.1-19.62H355.26v9H377.1Zm46.51-4.45a36.52,36.52,0,0,0-1.43-11,19.47,19.47,0,0,0-3.89-7.46,14.49,14.49,0,0,0-6-4.29A20.31,20.31,0,0,0,404.47,0a20.6,20.6,0,0,0-7.78,1.43,14.25,14.25,0,0,0-6,4.29,19.47,19.47,0,0,0-3.89,7.46,36.85,36.85,0,0,0-1.43,11v9.77a36.56,36.56,0,0,0,1.43,10.88,21.08,21.08,0,0,0,3.89,7.55,14.49,14.49,0,0,0,6,4.29,20.6,20.6,0,0,0,7.78,1.43,20.31,20.31,0,0,0,7.78-1.43,14.49,14.49,0,0,0,6-4.29,21.08,21.08,0,0,0,3.89-7.55,39.22,39.22,0,0,0,1.35-10.88Zm-11.2,11.28a29.6,29.6,0,0,1-.55,6.36A12.62,12.62,0,0,1,410.35,46a5.74,5.74,0,0,1-2.46,2.3,8.21,8.21,0,0,1-6.68,0,5.74,5.74,0,0,1-2.46-2.3,12.56,12.56,0,0,1-1.59-4.21,36.67,36.67,0,0,1-.47-6.36V22.48a35.61,35.61,0,0,1,.47-6.28,12,12,0,0,1,1.51-4.13,6.86,6.86,0,0,1,2.46-2.3,7.81,7.81,0,0,1,3.34-.64,7.36,7.36,0,0,1,3.34.64,6.47,6.47,0,0,1,2.54,2.3,12,12,0,0,1,1.51,4.13,28.75,28.75,0,0,1,.55,6.28Zm29.34-3.73c.4-.4.8-.71,1.28-1.11a6.72,6.72,0,0,1,1.5-1,12.65,12.65,0,0,1,2.07-.64,9.26,9.26,0,0,1,2.7-.32,10.75,10.75,0,0,1,4.05.72,7.23,7.23,0,0,1,2.78,2.06,7,7,0,0,1,1.67,3.1,13.72,13.72,0,0,1,.55,4.05,22.82,22.82,0,0,1-.39,4.13A10.88,10.88,0,0,1,456.53,46a6.7,6.7,0,0,1-2.47,2.22,7.14,7.14,0,0,1-3.57.79,7.7,7.7,0,0,1-5.56-2,8.07,8.07,0,0,1-2.46-5.48H431.35a16.44,16.44,0,0,0,1.75,7,16,16,0,0,0,4.29,5.16,17.74,17.74,0,0,0,6,3.26,23.69,23.69,0,0,0,7.07,1.11,21,21,0,0,0,8.42-1.59,17,17,0,0,0,6-4.13,17.18,17.18,0,0,0,3.57-6,23,23,0,0,0,1.11-7.14,27.88,27.88,0,0,0-1.11-8A17,17,0,0,0,465,25.18a14.69,14.69,0,0,0-5.41-3.74,19.07,19.07,0,0,0-7.3-1.27c-.88,0-1.83.08-2.62.16a22.35,22.35,0,0,0-2.47.56c-.71.24-1.35.47-1.9.71a5.86,5.86,0,0,0-1.43.72l1.35-12.15h22.48V.79H436l-3.26,28.68Z"></path><path class="cls-2" d="M259.42,103.49h-4.68v59.57h4.68Zm17.78,17.63h-4.69v41.94h4.69Zm-4.69-9.92a3.4,3.4,0,0,0,2.38.87,3.21,3.21,0,0,0,2.31-.87,3,3,0,0,0,.87-2.23,2.83,2.83,0,0,0-.87-2.22,2.94,2.94,0,0,0-2.31-1,3.1,3.1,0,0,0-2.38,1,3.07,3.07,0,0,0-.79,2.22,3.23,3.23,0,0,0,.79,2.23Zm19.76-.88v10.8h-7.7v3.82h7.7v27.95a16.57,16.57,0,0,0,.72,5.24,8.94,8.94,0,0,0,1.9,3.34,6.21,6.21,0,0,0,2.86,1.83,11.16,11.16,0,0,0,3.65.55c1,0,1.83-.08,2.78-.16a12.11,12.11,0,0,0,2.23-.55l-.24-3.73-1.75.23a15.74,15.74,0,0,1-2,.08,8.64,8.64,0,0,1-2.07-.24,3.38,3.38,0,0,1-1.75-.95,4.76,4.76,0,0,1-1.19-2.14,10.87,10.87,0,0,1-.47-3.5V124.94h8.65v-3.82H297v-10.8Zm25.47,0v10.8H310v3.82h7.7v27.95a16.57,16.57,0,0,0,.72,5.24,8.94,8.94,0,0,0,1.9,3.34,6.21,6.21,0,0,0,2.86,1.83,11.16,11.16,0,0,0,3.65.55c1,0,1.83-.08,2.78-.16a12.11,12.11,0,0,0,2.23-.55l-.24-3.73-1.75.23a15.74,15.74,0,0,1-2,.08,8.64,8.64,0,0,1-2.07-.24,3.38,3.38,0,0,1-1.75-.95,4.76,4.76,0,0,1-1.19-2.14,10.87,10.87,0,0,1-.47-3.5V124.94h8.65v-3.82h-8.65v-10.8Zm28.17-6.83h-4.69v59.57h4.69Zm33.9,59.73a16.08,16.08,0,0,0,7.3-3.89,21.52,21.52,0,0,0,2.47-2.94l-2.94-2.15a13.7,13.7,0,0,1-5.16,4.29,14.68,14.68,0,0,1-6.6,1.35,13.27,13.27,0,0,1-5.87-1.27,14,14,0,0,1-4.53-3.57,16,16,0,0,1-2.94-5.24,19.79,19.79,0,0,1-1-6.52v-.87h29.94v-2.86a26.67,26.67,0,0,0-1.11-7.7,17.3,17.3,0,0,0-3.18-6.12,15.27,15.27,0,0,0-5.24-4,16.59,16.59,0,0,0-7.07-1.43,15.62,15.62,0,0,0-6.83,1.51,18.65,18.65,0,0,0-5.72,4.29,19.71,19.71,0,0,0-4,6.67,25.72,25.72,0,0,0-1.43,8.81v1.67a23.18,23.18,0,0,0,1.43,8.26,18.48,18.48,0,0,0,3.89,6.52,16.7,16.7,0,0,0,6,4.2,17.92,17.92,0,0,0,7.54,1.59,20.13,20.13,0,0,0,5.09-.63Zm-.8-37.81a13,13,0,0,1,3.74,3A14.3,14.3,0,0,1,385,132.8a18.35,18.35,0,0,1,.87,5.16v.48H360.67a20.91,20.91,0,0,1,1.51-5.8,14.34,14.34,0,0,1,2.78-4.45,14,14,0,0,1,4-2.94,12.72,12.72,0,0,1,4.92-1,11.8,11.8,0,0,1,5.16,1.11Z"></path><line class="cls-3" x1="557.83" y1="502.22" x2="557.83" y2="817.46"></line><path d="M662.4,687.39V710l-13.13-12c-6.09-5.71-11.42-8.5-15.87-8.5a11.34,11.34,0,0,0-8.75,3.61c-2.22,2.48-3.3,5.78-3.3,10,0,4.5,1.27,8.05,3.87,10.72a13.08,13.08,0,0,0,10,4.06v-5.78a9.42,9.42,0,0,1-6.78-2.34,9,9,0,0,1-2.41-6.66,7.54,7.54,0,0,1,2.28-5.71,8.06,8.06,0,0,1,5.77-2.1,11,11,0,0,1,5.08,1.27,35.6,35.6,0,0,1,6.41,4.82L663,717h4.12V687.39ZM646.47,673v-4.31c.07-3,.77-5.39,2.16-7a7.46,7.46,0,0,1,6-2.41c2.73,0,4.76.7,6.22,2.16S663,665,663,667.83a8.74,8.74,0,0,1-2.15,6.21,7.3,7.3,0,0,1-5.65,2.29v5.77a11.37,11.37,0,0,0,9.07-4,17,17,0,0,0-.13-20.62,12.31,12.31,0,0,0-9.64-4,11.08,11.08,0,0,0-6.66,2,11.36,11.36,0,0,0-3.87,5.77,11.63,11.63,0,0,0-4.12-5.2,9.93,9.93,0,0,0-5.71-1.9c-4.06,0-7.17,1.2-9.46,3.61s-3.36,5.77-3.36,10a14.45,14.45,0,0,0,3.55,10,11.52,11.52,0,0,0,8.89,3.93V676a7.33,7.33,0,0,1-5.59-2.16,8.19,8.19,0,0,1-2.15-6c0-5.27,2.66-7.93,7.93-7.93a7.25,7.25,0,0,1,5.64,2.34,9.59,9.59,0,0,1,2.16,6.41V673Z"></path><line class="cls-3" x1="172.8" y1="898.01" x2="451.69" y2="898.01"></line><path d="M314.86,994.67H292.21l12.06-13.13c5.71-6.09,8.5-11.42,8.5-15.86a11.35,11.35,0,0,0-3.62-8.76c-2.47-2.22-5.77-3.3-10-3.3-4.5,0-8.05,1.27-10.72,3.87a13.06,13.06,0,0,0-4.06,10h5.77a9.43,9.43,0,0,1,2.35-6.79,9,9,0,0,1,6.66-2.41,7.55,7.55,0,0,1,5.71,2.28,8.07,8.07,0,0,1,2.1,5.78,11,11,0,0,1-1.27,5.07,35.73,35.73,0,0,1-4.82,6.41L285.3,995.24v4.13h29.56Zm34.41-21.95c-.07-6.53-1.27-11.29-3.55-14.4s-5.84-4.7-10.73-4.7-8.5,1.59-10.78,4.83-3.43,8.18-3.43,14.78v7.67c.07,6.35,1.27,11.11,3.62,14.34s5.84,4.76,10.66,4.76,8.5-1.65,10.78-4.89,3.43-8.24,3.43-15Zm-5.71,8.95c-.07,4.69-.83,8.18-2.16,10.34a7.68,7.68,0,0,1-12.75-.19c-1.4-2.35-2.16-5.9-2.16-10.79v-9.2c.07-4.57.76-8,2.1-10.21s3.49-3.3,6.4-3.3a7,7,0,0,1,6.47,3.36c1.4,2.22,2.1,5.71,2.1,10.6Z"></path><path class="cls-1" d="M314.28,761.78h64.21L449,686.34l-.91-45.26-104-56.47c-12.21-5.17-10.4-19.4-10.4-19.4v-56h-43v56s1.81,14.23-10.4,19.4l-104,56.47-.89,45.26L246,761.78h68.28Zm131.13,53H178.63V709.19H445.41ZM311.57,765.23H187.67v-56h123.9Zm125.25,0H310.66V710.48H436.82ZM287.6,507h49.29m-44.77-2.16h40.25"></path><path class="cls-4" d="M314.28,761.78h64.21L449,686.34l-.91-45.26-104-56.47c-12.21-5.17-10.4-19.4-10.4-19.4v-56h-43v56s1.81,14.23-10.4,19.4l-104,56.47-.89,45.26L246,761.78h68.28Zm131.13,53H178.63V709.19H445.41ZM311.57,765.23H187.67v-56h123.9Zm125.25,0H310.66V710.48H436.82ZM287.6,507h49.29m-44.77-2.16h40.25"></path></svg> 