<?xml version="1.0" encoding="UTF-8"?> <svg xmlns="http://www.w3.org/2000/svg" id="Livello_1" data-name="Livello 1" viewBox="0 0 831.12 1000.49"><defs><style>.cls-1{fill:#fff;}.cls-2{fill:#231f20;}.cls-3,.cls-4{fill:none;stroke-width:0.25px;}.cls-3{stroke:#000;}.cls-4{stroke:#231f20;stroke-miterlimit:10;}</style></defs><title>MoM fatty tavolo</title><rect class="cls-1" y="0.49" width="831.12" height="1000"></rect><path class="cls-2" d="M202.26.71h-1.19L177.72,9.13v9.06l13.34-4.13v43.2h11.2ZM249.39.24a29.59,29.59,0,0,0-12.15,2.3,25.6,25.6,0,0,0-9.05,6.36,29.16,29.16,0,0,0-5.64,9.84,38.84,38.84,0,0,0-1.91,12.47v4.37a28,28,0,0,0,1.43,9.14,21,21,0,0,0,4,7.06,18,18,0,0,0,6.28,4.61,19.58,19.58,0,0,0,8.18,1.67,20.43,20.43,0,0,0,7.86-1.51,17.66,17.66,0,0,0,9.85-10.25,22,22,0,0,0,1.35-7.62,27.94,27.94,0,0,0-1-7.39,18.39,18.39,0,0,0-3-6.11,14.78,14.78,0,0,0-5-4.13,15.3,15.3,0,0,0-7.06-1.59A16.69,16.69,0,0,0,237,20.73a15.75,15.75,0,0,0-4.92,3.41A18.54,18.54,0,0,1,234,18a13.88,13.88,0,0,1,3.66-4.61,17.75,17.75,0,0,1,5.56-2.94,22,22,0,0,1,7.15-1H251V.24Zm-5.87,29a8.68,8.68,0,0,1,2.62,2.14,10.55,10.55,0,0,1,1.66,3.26,13.57,13.57,0,0,1,.56,4.13,13.57,13.57,0,0,1-.56,4.13,10.12,10.12,0,0,1-1.66,3.18,6.63,6.63,0,0,1-2.55,2.14,6.42,6.42,0,0,1-3.33.79,8.22,8.22,0,0,1-3.42-.71,8.09,8.09,0,0,1-2.7-2.22,12.45,12.45,0,0,1-1.66-3.74,20.42,20.42,0,0,1-.64-5.24V33.68a7.61,7.61,0,0,1,1.27-2A7.36,7.36,0,0,1,234.94,30a9,9,0,0,1,2.3-1.11,9.28,9.28,0,0,1,6.28.32Zm60.55-5.09a36.85,36.85,0,0,0-1.43-11,19.47,19.47,0,0,0-3.89-7.46,14.49,14.49,0,0,0-6-4.29A20.31,20.31,0,0,0,284.93,0a20.6,20.6,0,0,0-7.78,1.43,14.25,14.25,0,0,0-6,4.29,19.47,19.47,0,0,0-3.89,7.46,36.52,36.52,0,0,0-1.43,11v9.77a36.24,36.24,0,0,0,1.43,10.88,21.08,21.08,0,0,0,3.89,7.55,14.49,14.49,0,0,0,6,4.29A20.6,20.6,0,0,0,285,58.06a20.31,20.31,0,0,0,7.78-1.43,14.49,14.49,0,0,0,6-4.29,21.08,21.08,0,0,0,3.89-7.55,39.6,39.6,0,0,0,1.35-10.88Zm-11.2,11.28a29.6,29.6,0,0,1-.55,6.36A12.62,12.62,0,0,1,290.81,46a5.71,5.71,0,0,1-2.47,2.3,8.19,8.19,0,0,1-6.67,0,5.74,5.74,0,0,1-2.46-2.3,12.56,12.56,0,0,1-1.59-4.21,35.71,35.71,0,0,1-.47-6.36V22.48a34.67,34.67,0,0,1,.47-6.28,12,12,0,0,1,1.51-4.13,6.86,6.86,0,0,1,2.46-2.3,7.81,7.81,0,0,1,3.34-.64,7.36,7.36,0,0,1,3.34.64,6.47,6.47,0,0,1,2.54,2.3,12,12,0,0,1,1.51,4.13,28.75,28.75,0,0,1,.55,6.28Zm57.46,12.79H326L336,37.73c1.91-2,3.66-3.82,5.17-5.64a39.65,39.65,0,0,0,4-5.32,26.39,26.39,0,0,0,2.46-5.25A16,16,0,0,0,348.5,16a18.45,18.45,0,0,0-1.19-6.75,13.39,13.39,0,0,0-3.57-5A16.09,16.09,0,0,0,338,1.11,26.8,26.8,0,0,0,330.08,0a20.88,20.88,0,0,0-8.18,1.51,18,18,0,0,0-6.12,4,17.37,17.37,0,0,0-4,5.88,20.18,20.18,0,0,0-1.35,7.23h11.28a11.55,11.55,0,0,1,.55-3.82,9.21,9.21,0,0,1,1.51-3,7.31,7.31,0,0,1,2.62-2,7.83,7.83,0,0,1,3.5-.72,6.89,6.89,0,0,1,5.4,2.15,8.65,8.65,0,0,1,1.9,6,7.56,7.56,0,0,1-.39,2.54,14.46,14.46,0,0,1-1.19,2.86A23.37,23.37,0,0,1,333.33,26a45.86,45.86,0,0,1-3.49,4.13L311.57,49.56v7.7h38.76Zm29.1-19.62H357.59v9h21.84Zm46.51-4.45a36.52,36.52,0,0,0-1.43-11,19.47,19.47,0,0,0-3.89-7.46,14.52,14.52,0,0,0-6-4.29,21.91,21.91,0,0,0-15.57,0,14.31,14.31,0,0,0-6,4.29,19.47,19.47,0,0,0-3.89,7.46,36.85,36.85,0,0,0-1.43,11v9.77a36.56,36.56,0,0,0,1.43,10.88,21.08,21.08,0,0,0,3.89,7.55,14.49,14.49,0,0,0,6,4.29,20.6,20.6,0,0,0,7.78,1.43,20.31,20.31,0,0,0,7.78-1.43,14.49,14.49,0,0,0,6-4.29,21.08,21.08,0,0,0,3.89-7.55,39.22,39.22,0,0,0,1.35-10.88Zm-11.2,11.28a29,29,0,0,1-.55,6.36A12.62,12.62,0,0,1,412.68,46a5.74,5.74,0,0,1-2.46,2.3,8.19,8.19,0,0,1-6.67,0,5.71,5.71,0,0,1-2.47-2.3,12.56,12.56,0,0,1-1.59-4.21,36.67,36.67,0,0,1-.47-6.36V22.48a35.61,35.61,0,0,1,.47-6.28A12,12,0,0,1,401,12.07a6.8,6.8,0,0,1,2.47-2.3,7.73,7.73,0,0,1,3.33-.64,7.36,7.36,0,0,1,3.34.64,6.47,6.47,0,0,1,2.54,2.3,12,12,0,0,1,1.51,4.13,28.15,28.15,0,0,1,.55,6.28ZM466.64.79H455.28L431.77,38l.48,7.07h23.19V57.26h11.2V45H473V36h-6.36Zm-12,16.6.79-1.35V36H442.89Z"></path><path class="cls-2" d="M258.47,163.06V124.94h10v-3.82h-10v-5.24c0-2.94.72-5.16,2.15-6.75a7.59,7.59,0,0,1,5.95-2.38c.88,0,1.59.08,2.23.08a16.14,16.14,0,0,1,2,.39l.32-3.89a12.17,12.17,0,0,0-2.46-.47,12.31,12.31,0,0,0-2.46-.16,13.43,13.43,0,0,0-5.17.87,10.47,10.47,0,0,0-6.35,6.67,18.09,18.09,0,0,0-.87,5.64v5.24h-6.91v3.82h6.91v38.12Zm49.7,0v-.48a14.64,14.64,0,0,1-.56-1.75c-.16-.63-.24-1.35-.4-2.06s-.16-1.43-.24-2.22-.07-1.51-.07-2.23V134a15,15,0,0,0-1.12-6,11.73,11.73,0,0,0-3.17-4.29,13.82,13.82,0,0,0-4.77-2.54,22,22,0,0,0-12.79.16,18.53,18.53,0,0,0-5.08,2.78,13.08,13.08,0,0,0-3.26,4,9.15,9.15,0,0,0-1.11,4.53l4.61.08a7.07,7.07,0,0,1,.87-3.34,9.18,9.18,0,0,1,2.31-2.7,10.62,10.62,0,0,1,3.57-1.74,13.31,13.31,0,0,1,4.45-.72q5.35,0,8.1,2.62a9.14,9.14,0,0,1,2.78,7.07v4.77h-8.58a34.68,34.68,0,0,0-8,.87,18.33,18.33,0,0,0-6,2.7,11,11,0,0,0-5.08,9.69,11.6,11.6,0,0,0,.95,4.69,11.21,11.21,0,0,0,2.7,3.81,12.88,12.88,0,0,0,4.29,2.54,17.66,17.66,0,0,0,5.56.87,21.41,21.41,0,0,0,4.61-.55,26.7,26.7,0,0,0,4-1.43,15.05,15.05,0,0,0,3.18-2.15,12.54,12.54,0,0,0,2.46-2.54c.08,1.11.16,2.15.32,3.26a10.6,10.6,0,0,0,.63,2.62Zm-23.43-4a9.26,9.26,0,0,1-3-1.75,6.76,6.76,0,0,1-1.83-2.62,7.12,7.12,0,0,1-.71-3.18,7.83,7.83,0,0,1,1-3.89,8.28,8.28,0,0,1,3-2.94,14.51,14.51,0,0,1,4.76-1.82,25.53,25.53,0,0,1,6.36-.64h7.94v9.21a14,14,0,0,1-2.07,3.26,16.1,16.1,0,0,1-3,2.62,15.84,15.84,0,0,1-3.9,1.75,17.82,17.82,0,0,1-4.68.63,11.92,11.92,0,0,1-3.89-.63Zm37.05-48.77v10.8h-7.71v3.82h7.71v27.95a16.6,16.6,0,0,0,.71,5.24,9,9,0,0,0,1.91,3.34,6.11,6.11,0,0,0,2.86,1.83,11.16,11.16,0,0,0,3.65.55c.95,0,1.83-.08,2.78-.16a12,12,0,0,0,2.22-.55l-.24-3.73-1.74.23a15.9,15.9,0,0,1-2,.08,8.55,8.55,0,0,1-2.06-.24,3.34,3.34,0,0,1-1.75-.95,4.67,4.67,0,0,1-1.19-2.14,10.57,10.57,0,0,1-.48-3.5V124.94h8.66v-3.82h-8.66v-10.8Zm25.47,0v10.8h-7.71v3.82h7.71v27.95a16.6,16.6,0,0,0,.71,5.24,9,9,0,0,0,1.91,3.34,6.11,6.11,0,0,0,2.86,1.83,11.16,11.16,0,0,0,3.65.55c.95,0,1.83-.08,2.78-.16a12,12,0,0,0,2.22-.55l-.24-3.73-1.74.23a15.9,15.9,0,0,1-2,.08,8.55,8.55,0,0,1-2.06-.24,3.34,3.34,0,0,1-1.75-.95,4.67,4.67,0,0,1-1.19-2.14,10.57,10.57,0,0,1-.48-3.5V124.94h8.66v-3.82h-8.66v-10.8Zm23.24,10.8h-5.08l15.8,41.62-2.06,5.48a16.94,16.94,0,0,1-1.43,3.34,9.78,9.78,0,0,1-1.91,2.38,6.87,6.87,0,0,1-2.46,1.43,10.46,10.46,0,0,1-3.34.48,6.49,6.49,0,0,1-1.11-.08c-.55-.08-1-.08-1.27-.16v3.89a2.34,2.34,0,0,1,.72.16c.31.08.63.08.95.16s.71.08,1,.16h.88a10.42,10.42,0,0,0,4.92-1,13.64,13.64,0,0,0,3.34-2.62,15.1,15.1,0,0,0,2.14-3.33,31.83,31.83,0,0,0,1.35-3.26l17.79-48.61h-5l-12.23,35.27Z"></path><line class="cls-3" x1="578.57" y1="405.21" x2="578.57" y2="818.78"></line><path d="M642.37,635.59v-4.32c.07-3,.76-5.39,2.16-7a7.46,7.46,0,0,1,6-2.41c2.73,0,4.76.7,6.21,2.16s2.16,3.62,2.16,6.41a8.75,8.75,0,0,1-2.16,6.22,7.3,7.3,0,0,1-5.64,2.28v5.77a11.39,11.39,0,0,0,9.07-4,17,17,0,0,0-.13-20.62,12.29,12.29,0,0,0-9.64-4,11.08,11.08,0,0,0-6.66,2,11.41,11.41,0,0,0-3.87,5.77,11.63,11.63,0,0,0-4.12-5.2,9.93,9.93,0,0,0-5.71-1.9c-4.06,0-7.17,1.2-9.46,3.61s-3.36,5.78-3.36,10a14.44,14.44,0,0,0,3.55,10,11.52,11.52,0,0,0,8.89,3.93v-5.77a7.33,7.33,0,0,1-5.59-2.16,8.2,8.2,0,0,1-2.16-6c0-5.27,2.67-7.93,7.94-7.93a7.25,7.25,0,0,1,5.64,2.34,9.59,9.59,0,0,1,2.16,6.41v4.32Zm-24.68-46.21v.89l6.16,16.43h5.2l-4.25-11.55H663v-5.77Z"></path><line class="cls-3" x1="196.9" y1="898.01" x2="446.74" y2="898.01"></line><path d="M320.65,994.67H298l12.05-13.13c5.71-6.09,8.5-11.42,8.5-15.86a11.35,11.35,0,0,0-3.62-8.76c-2.47-2.22-5.77-3.3-10-3.3-4.5,0-8.05,1.27-10.72,3.87a13.06,13.06,0,0,0-4.06,10H296a9.42,9.42,0,0,1,2.34-6.79,9,9,0,0,1,6.66-2.41,7.55,7.55,0,0,1,5.71,2.28,8.07,8.07,0,0,1,2.1,5.78,11,11,0,0,1-1.27,5.07,35.73,35.73,0,0,1-4.82,6.41l-15.61,17.38v4.13h29.56Zm34.41-21.95c-.06-6.53-1.27-11.29-3.55-14.4s-5.84-4.7-10.73-4.7-8.5,1.59-10.78,4.83-3.43,8.18-3.43,14.78v7.67c.07,6.35,1.27,11.11,3.62,14.34S336,1000,340.85,1000s8.5-1.65,10.78-4.89,3.43-8.24,3.43-15Zm-5.71,8.95c-.06,4.69-.83,8.18-2.16,10.34a7.68,7.68,0,0,1-12.75-.19c-1.4-2.35-2.16-5.9-2.16-10.79v-9.2c.07-4.57.76-8,2.1-10.21s3.49-3.3,6.4-3.3a7,7,0,0,1,6.48,3.36c1.39,2.22,2.09,5.71,2.09,10.6Z"></path><path class="cls-1" d="M325.46,760.63h63.22L434,697.18a10.87,10.87,0,0,0,1.67-9L400.49,553.82a12.16,12.16,0,0,0-5.59-7.41l-38.38-22.59c-15.52-8.38-12.75-26.25-12.75-26.25v-84.9h-39.2v84.9s2.77,17.87-12.76,26.25l-38.38,22.59a12.2,12.2,0,0,0-5.59,7.41L212.7,688.13a10.83,10.83,0,0,0,1.66,9l45.29,63.45h65.81Zm120,54.18H200.87V711.48H445.41Zm-122-50.27H210.3V713.16H323.42Zm1.11,0H436V713.16H324.53ZM300.69,409.88h46m-41.59-3.36h35.49"></path><path class="cls-4" d="M325.46,760.63h63.22L434,697.18a10.87,10.87,0,0,0,1.67-9L400.49,553.82a12.16,12.16,0,0,0-5.59-7.41l-38.38-22.59c-15.52-8.38-12.75-26.25-12.75-26.25v-84.9h-39.2v84.9s2.77,17.87-12.76,26.25l-38.38,22.59a12.2,12.2,0,0,0-5.59,7.41L212.7,688.13a10.83,10.83,0,0,0,1.66,9l45.29,63.45h65.81Zm120,54.18H200.87V711.48H445.41Zm-122-50.27H210.3V713.16H323.42Zm1.11,0H436V713.16H324.53ZM300.69,409.88h46m-41.59-3.36h35.49"></path></svg> 