<?xml version="1.0" encoding="UTF-8"?> <svg xmlns="http://www.w3.org/2000/svg" id="Livello_1" data-name="Livello 1" viewBox="0 0 666.67 1007.99"><defs><style>.cls-1{fill:#fff;}.cls-2,.cls-3{font-size:64.28px;fill:#231f20;}.cls-2{font-family:Roboto-Bold, Roboto;font-weight:700;}.cls-3{font-family:Roboto-Light, Roboto;font-weight:300;}.cls-4,.cls-6{fill:none;stroke-width:0.25px;}.cls-4{stroke:#000;}.cls-5{font-size:51.42px;font-family:Roboto-Regular, Roboto;}.cls-6{stroke:#231f20;stroke-miterlimit:10;}</style></defs><title>MoM slim sospensione</title><rect class="cls-1" y="0.49" width="666.67" height="1000"></rect><text class="cls-2" transform="translate(154.72 54.99)">1602-23</text><text class="cls-3" transform="translate(219.9 140.66)">slim</text><line class="cls-4" x1="225.52" y1="911.96" x2="333.12" y2="911.96"></line><line class="cls-4" x1="486.24" y1="588.6" x2="486.24" y2="846.7"></line><text class="cls-5" transform="translate(554.62 787.93) rotate(-90)">31,9</text><text class="cls-5" transform="translate(235.76 994.05)">ø14</text><path class="cls-1" d="M279.87,591.29h6.61a4.09,4.09,0,0,1,3.92,4.24v49.69a22.74,22.74,0,0,0,8.52,14.7c5.73,4.45,12.33,9.27,15.48,11.55a5.49,5.49,0,0,1,2.2,3.72l14.31,96.46a6.41,6.41,0,0,1,.06,1.45l-3.25,45.82a7.47,7.47,0,0,1-.82,2.93l-10.52,20.42a5.37,5.37,0,0,1-4.76,3H247a5.4,5.4,0,0,1-4.77-3l-10.52-20.42a7.64,7.64,0,0,1-.82-2.93l-3.24-45.82a5.88,5.88,0,0,1,.06-1.45L242,675.19a5.54,5.54,0,0,1,2.21-3.72c3.14-2.28,9.74-7.1,15.48-11.55a22.79,22.79,0,0,0,8.52-14.7V595a3.6,3.6,0,0,1,3.45-3.73h8.17Zm1.82,0h-5.06V289.69h5.06Zm8-301.61H268.06V241.07h21.59Z"></path><path class="cls-6" d="M279.87,591.29h6.61a4.09,4.09,0,0,1,3.92,4.24v49.69a22.74,22.74,0,0,0,8.52,14.7c5.73,4.45,12.33,9.27,15.48,11.55a5.49,5.49,0,0,1,2.2,3.72l14.31,96.46a6.41,6.41,0,0,1,.06,1.45l-3.25,45.82a7.47,7.47,0,0,1-.82,2.93l-10.52,20.42a5.37,5.37,0,0,1-4.76,3H247a5.4,5.4,0,0,1-4.77-3l-10.52-20.42a7.64,7.64,0,0,1-.82-2.93l-3.24-45.82a5.88,5.88,0,0,1,.06-1.45L242,675.19a5.54,5.54,0,0,1,2.21-3.72c3.14-2.28,9.74-7.1,15.48-11.55a22.79,22.79,0,0,0,8.52-14.7V595a3.6,3.6,0,0,1,3.45-3.73h8.17Zm1.82,0h-5.06V289.69h5.06Zm8-301.61H268.06V241.07h21.59Z"></path></svg> 