<?xml version="1.0" encoding="UTF-8"?> <svg xmlns="http://www.w3.org/2000/svg" id="Livello_1" data-name="Livello 1" viewBox="0 0 666.67 1000.49"><defs><style>.cls-1{fill:#fff;}.cls-2,.cls-3{font-size:64.28px;fill:#231f20;}.cls-2{font-family:Roboto-Bold, Roboto;font-weight:700;}.cls-3{font-family:Roboto-Light, Roboto;font-weight:300;}.cls-4,.cls-7{fill:none;stroke-width:0.25px;}.cls-4{stroke:#000;}.cls-5{font-size:51.42px;}.cls-5,.cls-6{font-family:Roboto-Regular, Roboto;}.cls-6{font-size:49.05px;}.cls-7{stroke:#231f20;stroke-miterlimit:10;}</style></defs><title>MoM low sospensione</title><rect class="cls-1" y="0.49" width="666.67" height="1000"></rect><text class="cls-2" transform="translate(145.51 54.99)">1602-21</text><text class="cls-3" transform="translate(220.65 140.66)">low</text><line class="cls-4" x1="110.47" y1="900.52" x2="390.04" y2="900.52"></line><line class="cls-4" x1="517.78" y1="640.75" x2="517.78" y2="815.25"></line><text class="cls-5" transform="translate(606.29 776.49) rotate(-90)">21,4</text><text class="cls-6" transform="translate(271.83 983.2)">ø38</text><path class="cls-1" d="M250.26,793.14h63.06l84.1-54.49a4.78,4.78,0,0,0,2-5.31l-5.6-20a5.15,5.15,0,0,0-3.26-3.47c-14.95-5.14-91.76-31.5-109.82-36.11-20.05-5.1-18.64-17-18.64-17V626.67a4,4,0,0,0-4-4H242.41a4,4,0,0,0-4,4v30.18s1.41,11.86-18.63,17c-18.07,4.61-94.88,31-109.83,36.11a5.11,5.11,0,0,0-3.25,3.47l-5.61,20a4.78,4.78,0,0,0,2,5.31l84.1,54.49Zm2.42-170.51h-4.85V290.41h4.85Zm9.41-332.22H238.41V241.07h23.68Z"></path><path class="cls-7" d="M313.32,793.14h0l84.1-54.49a4.78,4.78,0,0,0,2-5.31l-5.6-20a5.15,5.15,0,0,0-3.26-3.47c-14.95-5.14-91.76-31.5-109.82-36.11-20.05-5.1-18.64-17-18.64-17V626.67a4,4,0,0,0-4-4H242.41a4,4,0,0,0-4,4v30.18s1.41,11.86-18.63,17c-18.07,4.61-94.88,31-109.83,36.11a5.11,5.11,0,0,0-3.25,3.47l-5.61,20a4.78,4.78,0,0,0,2,5.31l84.1,54.49ZM252.68,622.63h-4.85V290.41h4.85Zm9.41-332.22H238.41V241.07h23.68Z"></path></svg> 