<?xml version="1.0" encoding="UTF-8"?> <svg xmlns="http://www.w3.org/2000/svg" id="Livello_1" data-name="Livello 1" viewBox="0 0 831.12 1000.49"><defs><style>.cls-1{fill:#fff;}.cls-2{fill:#231f20;}.cls-3,.cls-4{fill:none;stroke-width:0.25px;}.cls-3{stroke:#000;}.cls-4{stroke:#231f20;stroke-miterlimit:10;}</style></defs><title>MoM slim wall</title><rect class="cls-1" y="0.49" width="831.12" height="1000"></rect><path class="cls-2" d="M171.9.72h-1.19L147.35,9.14V18.2l13.35-4.13V57.3h11.2ZM219.07.24a29.61,29.61,0,0,0-12.16,2.3,25.55,25.55,0,0,0-9.06,6.36,29.35,29.35,0,0,0-5.65,9.86,38.75,38.75,0,0,0-1.9,12.47V35.6a27.73,27.73,0,0,0,1.43,9.14,21.11,21.11,0,0,0,4,7.08A18.38,18.38,0,0,0,202,56.43a19.62,19.62,0,0,0,8.19,1.67A20.43,20.43,0,0,0,218,56.59a18.18,18.18,0,0,0,6-4.14,17.81,17.81,0,0,0,3.82-6.12,22.06,22.06,0,0,0,1.35-7.63,27.94,27.94,0,0,0-1-7.39,18.54,18.54,0,0,0-3-6.12,14.87,14.87,0,0,0-5-4.13,15.5,15.5,0,0,0-7.07-1.59,16.69,16.69,0,0,0-6.44,1.27,15.7,15.7,0,0,0-4.93,3.42A18.37,18.37,0,0,1,203.65,18a13.73,13.73,0,0,1,3.65-4.61,17.81,17.81,0,0,1,5.57-2.94,22,22,0,0,1,7.15-1h.64V.24Zm-5.88,29a8.68,8.68,0,0,1,2.62,2.14,10.79,10.79,0,0,1,1.67,3.26,13.9,13.9,0,0,1,.55,4.13,14,14,0,0,1-.55,4.14,10.18,10.18,0,0,1-1.67,3.17,6.58,6.58,0,0,1-2.55,2.15,6.42,6.42,0,0,1-3.33.8,8.16,8.16,0,0,1-3.42-.72,7.91,7.91,0,0,1-2.7-2.23,12.28,12.28,0,0,1-1.67-3.73,20.5,20.5,0,0,1-.64-5.25V33.7a7.88,7.88,0,0,1,1.27-2A7.54,7.54,0,0,1,204.6,30a8.77,8.77,0,0,1,2.31-1.11,9.28,9.28,0,0,1,6.28.32Zm60.59-5.09a36.87,36.87,0,0,0-1.43-11,19.67,19.67,0,0,0-3.9-7.47,14.52,14.52,0,0,0-6-4.29A20.31,20.31,0,0,0,254.63,0a20.62,20.62,0,0,0-7.79,1.43,14.34,14.34,0,0,0-6,4.29,19.67,19.67,0,0,0-3.9,7.47,36.87,36.87,0,0,0-1.43,11v9.78A36.61,36.61,0,0,0,237,44.82a21.17,21.17,0,0,0,3.9,7.55,14.49,14.49,0,0,0,6,4.29,20.43,20.43,0,0,0,7.79,1.44,20.12,20.12,0,0,0,7.78-1.44,14.49,14.49,0,0,0,6-4.29,21.17,21.17,0,0,0,3.9-7.55,39.65,39.65,0,0,0,1.35-10.88ZM262.57,35.45A29.5,29.5,0,0,1,262,41.8,12.6,12.6,0,0,1,260.51,46a5.71,5.71,0,0,1-2.47,2.3,8.08,8.08,0,0,1-6.67,0A5.71,5.71,0,0,1,248.9,46a12.54,12.54,0,0,1-1.59-4.22,36.55,36.55,0,0,1-.47-6.35v-13a35.69,35.69,0,0,1,.47-6.28,12,12,0,0,1,1.51-4.13,6.72,6.72,0,0,1,2.47-2.3,7.75,7.75,0,0,1,3.34-.64,7.29,7.29,0,0,1,3.33.64,6.35,6.35,0,0,1,2.55,2.3A12,12,0,0,1,262,16.21a28.81,28.81,0,0,1,.55,6.28Zm57.5,12.79H295.75l9.93-10.49c1.91-2,3.66-3.81,5.17-5.64a38.28,38.28,0,0,0,4-5.33,25.83,25.83,0,0,0,2.47-5.24,16.09,16.09,0,0,0,.95-5.49,18.62,18.62,0,0,0-1.19-6.75,13.48,13.48,0,0,0-3.58-5,16.09,16.09,0,0,0-5.72-3.18A26.87,26.87,0,0,0,299.8,0a20.88,20.88,0,0,0-8.18,1.51,18,18,0,0,0-6.12,4,17.64,17.64,0,0,0-4,5.88,20.27,20.27,0,0,0-1.35,7.24h11.29a11.55,11.55,0,0,1,.55-3.82,9.21,9.21,0,0,1,1.51-3,7.15,7.15,0,0,1,2.63-2,7.76,7.76,0,0,1,3.49-.72,6.9,6.9,0,0,1,5.41,2.15,8.65,8.65,0,0,1,1.9,6,7.53,7.53,0,0,1-.39,2.54,13.74,13.74,0,0,1-1.2,2.86,23.28,23.28,0,0,1-2.3,3.42,46.12,46.12,0,0,1-3.5,4.13L281.28,49.59V57.3h38.79Zm29.12-19.63H327.33v9h21.86Zm19.92,4.21h6a14.8,14.8,0,0,1,3.89.48,11.32,11.32,0,0,1,2.94,1.51,7.72,7.72,0,0,1,1.83,2.62,11.38,11.38,0,0,1,.63,3.9,8.39,8.39,0,0,1-.63,3.18,5.55,5.55,0,0,1-1.67,2.38,6.22,6.22,0,0,1-2.7,1.59,9.94,9.94,0,0,1-3.58.56,8.77,8.77,0,0,1-3.26-.56A7.27,7.27,0,0,1,369.9,47a6.77,6.77,0,0,1-1.75-2.23,6.87,6.87,0,0,1-.63-2.94H356.31A14.81,14.81,0,0,0,358,49a15,15,0,0,0,4.37,5.08,19,19,0,0,0,6.12,3,26.43,26.43,0,0,0,7.07,1A28.07,28.07,0,0,0,383.49,57a18.51,18.51,0,0,0,6.36-3.26,14.87,14.87,0,0,0,4.21-5.16,16.86,16.86,0,0,0,1.51-7.07,13.21,13.21,0,0,0-9.46-13.2,18.88,18.88,0,0,0,3.66-2.3,18.63,18.63,0,0,0,2.7-2.86,15.23,15.23,0,0,0,1.67-3.42,13.83,13.83,0,0,0,.56-3.58,16.47,16.47,0,0,0-1.43-7,14.27,14.27,0,0,0-3.9-5,18.16,18.16,0,0,0-6-3.1,30,30,0,0,0-7.79-1,24,24,0,0,0-7.23,1.11,20,20,0,0,0-5.88,3.1,15.57,15.57,0,0,0-4,4.85A14,14,0,0,0,357,15.42h11.2a5.73,5.73,0,0,1,.64-2.62,5.54,5.54,0,0,1,1.59-2,6.55,6.55,0,0,1,2.46-1.27,8.25,8.25,0,0,1,2.86-.48,8.79,8.79,0,0,1,3.42.56,6,6,0,0,1,2.38,1.51,5.52,5.52,0,0,1,1.43,2.3,8.29,8.29,0,0,1,.48,2.86,7.81,7.81,0,0,1-2.07,5.64c-1.43,1.44-3.49,2.15-6.35,2.15h-6Zm45.57,0h6a14.8,14.8,0,0,1,3.89.48,11.17,11.17,0,0,1,2.94,1.51,7.72,7.72,0,0,1,1.83,2.62,11.37,11.37,0,0,1,.64,3.9,8.39,8.39,0,0,1-.64,3.18,5.46,5.46,0,0,1-1.67,2.38,6.17,6.17,0,0,1-2.7,1.59,9.9,9.9,0,0,1-3.58.56,8.68,8.68,0,0,1-3.25-.56A7.23,7.23,0,0,1,415.47,47a6.91,6.91,0,0,1-1.75-2.23,7,7,0,0,1-.63-2.94H401.88A14.81,14.81,0,0,0,403.55,49a15,15,0,0,0,4.37,5.08,19.14,19.14,0,0,0,6.12,3,26.5,26.5,0,0,0,7.08,1A28,28,0,0,0,429.06,57a18.42,18.42,0,0,0,6.36-3.26,14.87,14.87,0,0,0,4.21-5.16,16.71,16.71,0,0,0,1.51-7.07,13.22,13.22,0,0,0-9.45-13.2,18.8,18.8,0,0,0,3.65-2.3,18.63,18.63,0,0,0,2.7-2.86,15.23,15.23,0,0,0,1.67-3.42,13.83,13.83,0,0,0,.56-3.58,16.47,16.47,0,0,0-1.43-7,14.27,14.27,0,0,0-3.9-5,18.16,18.16,0,0,0-6-3.1,30,30,0,0,0-7.78-1,24,24,0,0,0-7.24,1.11A20,20,0,0,0,408,4.21a15.57,15.57,0,0,0-4,4.85,14,14,0,0,0-1.43,6.36h11.2a5.73,5.73,0,0,1,.64-2.62,5.65,5.65,0,0,1,1.59-2,6.55,6.55,0,0,1,2.46-1.27,8.29,8.29,0,0,1,2.86-.48,8.76,8.76,0,0,1,3.42.56,6.07,6.07,0,0,1,2.39,1.51,5.73,5.73,0,0,1,1.43,2.3,8.54,8.54,0,0,1,.47,2.86A7.8,7.8,0,0,1,427,21.93c-1.43,1.44-3.5,2.15-6.36,2.15h-6Z"></path><path class="cls-2" d="M250.3,155.29a7.6,7.6,0,0,1-2.07,2.47,15.48,15.48,0,0,1-3.41,1.67,17.21,17.21,0,0,1-4.69.55,17.78,17.78,0,0,1-4-.39,11.9,11.9,0,0,1-3.73-1.43,8,8,0,0,1-2.78-2.63,8.14,8.14,0,0,1-1.28-4.13h-4.68a10.64,10.64,0,0,0,1.11,4.69,11.7,11.7,0,0,0,3.18,4,15.56,15.56,0,0,0,5.08,2.78,24,24,0,0,0,7.08,1,22.72,22.72,0,0,0,6.43-.88,13.75,13.75,0,0,0,4.85-2.38,11.57,11.57,0,0,0,3.18-3.66,10.43,10.43,0,0,0,1-4.77,9.89,9.89,0,0,0-.87-4.45,9,9,0,0,0-2.62-3.41,19.36,19.36,0,0,0-4.61-2.63,43.49,43.49,0,0,0-6.52-1.9,45.56,45.56,0,0,1-5.72-1.67,12.29,12.29,0,0,1-3.42-1.83,4.24,4.24,0,0,1-1.67-2.15,6.53,6.53,0,0,1-.47-2.54,7.19,7.19,0,0,1,2.38-5,10.93,10.93,0,0,1,3.18-1.67,13.35,13.35,0,0,1,4.61-.63,13.86,13.86,0,0,1,4.61.71,10.3,10.3,0,0,1,3.42,1.91,8.09,8.09,0,0,1,2.14,2.78,7.42,7.42,0,0,1,.72,3.18h4.61a11.43,11.43,0,0,0-1-5,12.22,12.22,0,0,0-3-4,15.29,15.29,0,0,0-4.92-2.62,20.39,20.39,0,0,0-6.52-1,20.17,20.17,0,0,0-6.12.87,15.52,15.52,0,0,0-4.69,2.46,10.84,10.84,0,0,0-2.94,3.66,9.57,9.57,0,0,0-1,4.45,9.84,9.84,0,0,0,.95,4.45,8.71,8.71,0,0,0,2.86,3.26,16.64,16.64,0,0,0,4.61,2.38,49.13,49.13,0,0,0,6.2,1.67,33.3,33.3,0,0,1,5.72,1.75,11.56,11.56,0,0,1,3.42,2.15,7.36,7.36,0,0,1,1.67,2.38,7.56,7.56,0,0,1,.47,2.62,5.72,5.72,0,0,1-.71,2.78Zm20.94-51.73h-4.69v59.6h4.69ZM289,121.2h-4.69v42H289Zm-4.69-9.93a3.39,3.39,0,0,0,2.38.87,3.23,3.23,0,0,0,2.31-.87,3,3,0,0,0,.87-2.23,2.83,2.83,0,0,0-.87-2.22,3,3,0,0,0-2.31-1,3.09,3.09,0,0,0-2.38,1,3,3,0,0,0-.8,2.22,3.21,3.21,0,0,0,.8,2.23Zm17,9.93v42H306V134.39a20.67,20.67,0,0,1,1.51-3.73,16.07,16.07,0,0,1,2.46-3.18,13.37,13.37,0,0,1,3.58-2.23,11.78,11.78,0,0,1,4.61-.79,14.44,14.44,0,0,1,4.21.55,7.62,7.62,0,0,1,5.32,5.17,16.64,16.64,0,0,1,.72,5.25v27.73h4.69V135.35a11.15,11.15,0,0,1,.95-3.74,15.56,15.56,0,0,1,2.38-3.5,13.8,13.8,0,0,1,3.82-2.62,11.49,11.49,0,0,1,5.09-1,16.27,16.27,0,0,1,4.13.48,7,7,0,0,1,3.26,1.82,8.47,8.47,0,0,1,2.14,3.5,17.53,17.53,0,0,1,.72,5.48v27.42h4.61V135.82a22.56,22.56,0,0,0-.88-7,11.49,11.49,0,0,0-2.7-4.77,10.11,10.11,0,0,0-4.37-2.78,18.46,18.46,0,0,0-5.8-.87,17.49,17.49,0,0,0-4.69.63,16,16,0,0,0-4,1.67,14.72,14.72,0,0,0-3.26,2.62,18.76,18.76,0,0,0-2.39,3.18,11,11,0,0,0-4.69-6.2,15.66,15.66,0,0,0-7.94-1.9,14.77,14.77,0,0,0-4.3.55,14.37,14.37,0,0,0-3.73,1.51,11.46,11.46,0,0,0-3.1,2.39,16,16,0,0,0-2.46,3.17l-.16-6.83Z"></path><path class="cls-3" d="M180.34,898.58H394M583.61,275.33V818"></path><path d="M672.31,570.26v-4.32c.06-3,.76-5.39,2.16-7a7.44,7.44,0,0,1,6-2.41c2.73,0,4.76.7,6.22,2.16s2.16,3.62,2.16,6.41a8.75,8.75,0,0,1-2.16,6.22,7.33,7.33,0,0,1-5.65,2.28v5.78a11.39,11.39,0,0,0,9.08-4,17,17,0,0,0-.13-20.63,12.31,12.31,0,0,0-9.65-4,11.08,11.08,0,0,0-6.66,2,11.47,11.47,0,0,0-3.88,5.78,11.66,11.66,0,0,0-4.12-5.21,9.94,9.94,0,0,0-5.72-1.9c-4.06,0-7.17,1.21-9.46,3.62s-3.36,5.78-3.36,10a14.42,14.42,0,0,0,3.56,10,11.5,11.5,0,0,0,8.88,3.93v-5.78a7.29,7.29,0,0,1-5.58-2.15,8.24,8.24,0,0,1-2.16-6c0-5.27,2.66-7.94,7.93-7.94a7.26,7.26,0,0,1,5.65,2.35,9.59,9.59,0,0,1,2.16,6.41v4.32Zm-24.5-51.57v6.1L679.1,545h3.37V524.41h10.47v-5.72H682.47v-6.28h-4.7v6.28Zm9.07,6.42-1.2-.7h22.09V538.5Z"></path><polygon points="279.79 954.67 278.9 954.67 262.46 960.83 262.46 966.04 274.02 961.78 274.02 1000 279.79 1000 279.79 954.67"></polygon><path d="M320.82,954.86h-6.09l-20.19,31.3v3.37h20.57V1000h5.71V989.53h6.29v-4.7h-6.29Zm-6.41,9.08.7-1.2v22.09H301Z"></path><path class="cls-1" d="M260.5,325.32H223.11V278H351.58v47.34H315.14m0,44.38H260.5V289.82h54.64Zm-5.61,2v44.39s1.93,19.72,19.18,27.6l28.59,22.06a18.9,18.9,0,0,1,7.09,12.11L392.54,660.9a23.14,23.14,0,0,1,.19,5.39L385.62,755a19.48,19.48,0,0,1-2.42,8L359.39,805.6h-143L192.58,763a19.48,19.48,0,0,1-2.42-8l-7.1-88.69a22.61,22.61,0,0,1,.19-5.39L211.4,477.83a18.9,18.9,0,0,1,7.09-12.11l28.58-22.06c17.26-7.88,19.17-27.6,19.17-27.6V371.67Z"></path><path class="cls-4" d="M260.5,325.32H223.11V278H351.58v47.34H315.14m0,44.38H260.5V289.82h54.64Zm-5.61,2v44.39s1.93,19.72,19.18,27.6l28.59,22.06a18.9,18.9,0,0,1,7.09,12.11L392.54,660.9a23.14,23.14,0,0,1,.19,5.39L385.62,755a19.48,19.48,0,0,1-2.42,8L359.39,805.6h-143L192.58,763a19.48,19.48,0,0,1-2.42-8l-7.1-88.69a22.61,22.61,0,0,1,.19-5.39L211.4,477.83a18.9,18.9,0,0,1,7.09-12.11l28.58-22.06c17.26-7.88,19.17-27.6,19.17-27.6V371.67Z"></path></svg> 