<?xml version="1.0" encoding="UTF-8"?> <svg xmlns="http://www.w3.org/2000/svg" id="Livello_1" data-name="Livello 1" viewBox="0 0 666.67 1000.49"><defs><style>.cls-1{fill:#fff;}.cls-2,.cls-3{font-size:64.28px;fill:#231f20;}.cls-2{font-family:Roboto-Bold, Roboto;font-weight:700;}.cls-3{font-family:Roboto-Light, Roboto;font-weight:300;}.cls-4,.cls-6{fill:none;stroke-width:0.25px;}.cls-4{stroke:#000;}.cls-5{font-size:51.42px;font-family:Roboto-Regular, Roboto;}.cls-6{stroke:#231f20;stroke-miterlimit:10;}</style></defs><title>MoM little sospensione</title><rect class="cls-1" y="0.49" width="666.67" height="1000"></rect><text class="cls-2" transform="translate(125.94 54.99)">1602-25</text><text class="cls-3" transform="translate(191.44 140.66)">little</text><line class="cls-4" x1="165.08" y1="875" x2="327.14" y2="875"></line><line class="cls-4" x1="494.33" y1="651.2" x2="494.33" y2="825.16"></line><text class="cls-5" transform="translate(582.84 767.13) rotate(-90)">19</text><text class="cls-5" transform="translate(202.55 957.09)">ø20</text><path class="cls-1" d="M251.65,659.72h8a4.1,4.1,0,0,1,4.06,4.16v32.71s-1.39,9.86,18.91,20L333,745.57a4.22,4.22,0,0,1,2.07,3.64v25.17A4.24,4.24,0,0,1,334,777.2l-40.16,44.48a4,4,0,0,1-3,1.34H211.44a4,4,0,0,1-3-1.34L168.3,777.2a4.24,4.24,0,0,1-1.08-2.82V749.21a4.18,4.18,0,0,1,2.08-3.64l50.3-28.93c20.3-10.19,18.9-20,18.9-20V663.88a4.11,4.11,0,0,1,4.06-4.16h9.09Zm2.4,0h-6.87V293.9h6.87Zm9.4-365.82H238.5V241.07h24.95Z"></path><path class="cls-6" d="M251.65,659.72h8a4.1,4.1,0,0,1,4.06,4.16v32.71s-1.39,9.86,18.91,20L333,745.57a4.22,4.22,0,0,1,2.07,3.64v25.17A4.24,4.24,0,0,1,334,777.2l-40.16,44.48a4,4,0,0,1-3,1.34H211.44a4,4,0,0,1-3-1.34L168.3,777.2a4.24,4.24,0,0,1-1.08-2.82V749.21a4.18,4.18,0,0,1,2.08-3.64l50.3-28.93c20.3-10.19,18.9-20,18.9-20V663.88a4.11,4.11,0,0,1,4.06-4.16h9.09Zm2.4,0h-6.87V293.9h6.87Zm9.4-365.82H238.5V241.07h24.95Z"></path></svg> 