<?xml version="1.0" encoding="UTF-8"?> <svg xmlns="http://www.w3.org/2000/svg" id="Livello_1" data-name="Livello 1" viewBox="0 0 831.12 1000.49"><defs><style>.cls-1{fill:#fff;}.cls-2{fill:#231f20;}.cls-3,.cls-4{fill:none;stroke-width:0.25px;}.cls-3{stroke:#000;}.cls-4{stroke:#231f20;stroke-miterlimit:10;}</style></defs><title>MoM fatty wall</title><rect class="cls-1" y="0.49" width="831.12" height="1000"></rect><path class="cls-2" d="M162,.72h-1.19L137.48,9.14V18.2l13.35-4.13V57.3H162ZM209.2.24A29.61,29.61,0,0,0,197,2.54,25.55,25.55,0,0,0,188,8.9a29.18,29.18,0,0,0-5.65,9.86,38.75,38.75,0,0,0-1.9,12.47V35.6a27.73,27.73,0,0,0,1.43,9.14,21.11,21.11,0,0,0,4,7.08,18.38,18.38,0,0,0,6.28,4.61,19.58,19.58,0,0,0,8.18,1.67,20.44,20.44,0,0,0,7.87-1.51,18.18,18.18,0,0,0,6-4.14A17.81,17.81,0,0,0,218,46.33a22.06,22.06,0,0,0,1.35-7.63,27.94,27.94,0,0,0-1-7.39,18.54,18.54,0,0,0-3-6.12,14.87,14.87,0,0,0-5-4.13,15.5,15.5,0,0,0-7.07-1.59,16.69,16.69,0,0,0-6.44,1.27,15.7,15.7,0,0,0-4.93,3.42A18.37,18.37,0,0,1,193.78,18a13.73,13.73,0,0,1,3.65-4.61A17.81,17.81,0,0,1,203,10.49a22,22,0,0,1,7.15-1h.64V.24Zm-5.89,29a8.6,8.6,0,0,1,2.63,2.14,10.79,10.79,0,0,1,1.67,3.26,13.9,13.9,0,0,1,.55,4.13,14,14,0,0,1-.55,4.14,10.18,10.18,0,0,1-1.67,3.17,6.58,6.58,0,0,1-2.55,2.15,6.42,6.42,0,0,1-3.33.8,8.16,8.16,0,0,1-3.42-.72,7.91,7.91,0,0,1-2.7-2.23,12.28,12.28,0,0,1-1.67-3.73,20.5,20.5,0,0,1-.64-5.25V33.7a7.88,7.88,0,0,1,1.27-2A7.54,7.54,0,0,1,194.73,30,8.77,8.77,0,0,1,197,28.93a9.25,9.25,0,0,1,6.27.32Zm60.6-5.09a36.87,36.87,0,0,0-1.43-11,19.67,19.67,0,0,0-3.9-7.47,14.58,14.58,0,0,0-6-4.29A20.31,20.31,0,0,0,244.76,0,20.62,20.62,0,0,0,237,1.43a14.34,14.34,0,0,0-6,4.29,19.67,19.67,0,0,0-3.9,7.47,36.87,36.87,0,0,0-1.43,11v9.78a36.61,36.61,0,0,0,1.43,10.88,21.17,21.17,0,0,0,3.9,7.55,14.49,14.49,0,0,0,6,4.29,20.41,20.41,0,0,0,7.78,1.44,20.14,20.14,0,0,0,7.79-1.44,14.49,14.49,0,0,0,6-4.29,21.17,21.17,0,0,0,3.9-7.55,39.65,39.65,0,0,0,1.35-10.88ZM252.7,35.45a29.5,29.5,0,0,1-.55,6.35A12.6,12.6,0,0,1,250.64,46a5.71,5.71,0,0,1-2.47,2.3,8.08,8.08,0,0,1-6.67,0A5.71,5.71,0,0,1,239,46a12.54,12.54,0,0,1-1.59-4.22,36.55,36.55,0,0,1-.47-6.35v-13a35.69,35.69,0,0,1,.47-6.28A12,12,0,0,1,239,12.08a6.72,6.72,0,0,1,2.47-2.3,7.75,7.75,0,0,1,3.34-.64,7.29,7.29,0,0,1,3.33.64,6.35,6.35,0,0,1,2.55,2.3,12,12,0,0,1,1.51,4.13,28.81,28.81,0,0,1,.55,6.28Zm57.5,12.79H285.88l9.93-10.49c1.91-2,3.66-3.81,5.17-5.64a38.28,38.28,0,0,0,4-5.33,26.37,26.37,0,0,0,2.47-5.24,16.09,16.09,0,0,0,.95-5.49,18.62,18.62,0,0,0-1.19-6.75,13.48,13.48,0,0,0-3.58-5,16.09,16.09,0,0,0-5.72-3.18A26.87,26.87,0,0,0,289.93,0a20.88,20.88,0,0,0-8.18,1.51,17.89,17.89,0,0,0-6.12,4,17.64,17.64,0,0,0-4,5.88,20.27,20.27,0,0,0-1.35,7.24h11.29a11.55,11.55,0,0,1,.55-3.82,9.21,9.21,0,0,1,1.51-3,7.15,7.15,0,0,1,2.63-2,7.76,7.76,0,0,1,3.49-.72,6.91,6.91,0,0,1,5.41,2.15,8.65,8.65,0,0,1,1.9,6,7.53,7.53,0,0,1-.39,2.54,13.74,13.74,0,0,1-1.2,2.86,23.28,23.28,0,0,1-2.3,3.42,46.12,46.12,0,0,1-3.5,4.13L271.41,49.59V57.3H310.2Zm29.12-19.63H317.46v9h21.86Zm19.91,4.21h6a14.8,14.8,0,0,1,3.89.48A11.32,11.32,0,0,1,372,34.81a7.86,7.86,0,0,1,1.83,2.62,11.38,11.38,0,0,1,.63,3.9,8.39,8.39,0,0,1-.63,3.18,5.55,5.55,0,0,1-1.67,2.38,6.22,6.22,0,0,1-2.7,1.59,9.94,9.94,0,0,1-3.58.56,8.77,8.77,0,0,1-3.26-.56A7.19,7.19,0,0,1,360,47a6.77,6.77,0,0,1-1.75-2.23,6.87,6.87,0,0,1-.63-2.94H346.44A14.81,14.81,0,0,0,348.11,49a15,15,0,0,0,4.37,5.08,19,19,0,0,0,6.12,3,26.43,26.43,0,0,0,7.07,1A28.07,28.07,0,0,0,373.62,57,18.51,18.51,0,0,0,380,53.72a14.87,14.87,0,0,0,4.21-5.16,16.86,16.86,0,0,0,1.51-7.07,14,14,0,0,0-2.38-8.11,13.81,13.81,0,0,0-7.08-5.09A18.88,18.88,0,0,0,379.9,26a18.63,18.63,0,0,0,2.7-2.86,15.23,15.23,0,0,0,1.67-3.42,13.83,13.83,0,0,0,.56-3.58,16.33,16.33,0,0,0-1.44-7,14.13,14.13,0,0,0-3.89-5,18.16,18.16,0,0,0-6-3.1,30,30,0,0,0-7.79-1,24,24,0,0,0-7.23,1.11,19.82,19.82,0,0,0-5.88,3.1,15.57,15.57,0,0,0-4,4.85,14,14,0,0,0-1.44,6.36h11.21A5.73,5.73,0,0,1,359,12.8a5.54,5.54,0,0,1,1.59-2,6.55,6.55,0,0,1,2.46-1.27,8.25,8.25,0,0,1,2.86-.48,8.79,8.79,0,0,1,3.42.56,6,6,0,0,1,2.38,1.51,5.63,5.63,0,0,1,1.43,2.3,8.29,8.29,0,0,1,.48,2.86,7.81,7.81,0,0,1-2.07,5.64c-1.43,1.44-3.49,2.15-6.35,2.15h-6Zm67.35-32H415.22L391.69,38l.48,7.07h23.21V57.3h11.2V45.06h6.36V36h-6.36Zm-12,16.61.8-1.35V36H402.82Z"></path><path class="cls-2" d="M218.28,163.16V125h10V121.2h-10V116c0-2.94.72-5.16,2.15-6.75a7.61,7.61,0,0,1,6-2.38c.87,0,1.59.07,2.22.07a14.29,14.29,0,0,1,2,.4l.32-3.89a19.47,19.47,0,0,0-4.93-.64,13.19,13.19,0,0,0-5.16.88,10.46,10.46,0,0,0-6.36,6.67,17.79,17.79,0,0,0-.88,5.64v5.25h-6.91V125h6.91v38.15Zm49.73,0v-.47a15.94,15.94,0,0,1-.56-1.75c-.16-.64-.24-1.35-.4-2.07s-.16-1.43-.23-2.22a21.53,21.53,0,0,1-.08-2.23V134.07a15,15,0,0,0-1.12-6,11.64,11.64,0,0,0-3.18-4.29,13.86,13.86,0,0,0-4.76-2.54,22.07,22.07,0,0,0-12.8.16,18.19,18.19,0,0,0-5.09,2.78,12.91,12.91,0,0,0-3.25,4,9.06,9.06,0,0,0-1.12,4.53l4.61.08a6.9,6.9,0,0,1,.88-3.33,9,9,0,0,1,2.3-2.71,11,11,0,0,1,3.58-1.75,13.57,13.57,0,0,1,4.45-.71c3.57,0,6.28.87,8.1,2.62a9.17,9.17,0,0,1,2.79,7.08v4.76h-8.59a34.66,34.66,0,0,0-8,.88,18.23,18.23,0,0,0-6,2.7,11,11,0,0,0-5.09,9.7,11.58,11.58,0,0,0,1,4.68,11,11,0,0,0,2.71,3.82,12.71,12.71,0,0,0,4.29,2.54,17.61,17.61,0,0,0,5.56.88,20.78,20.78,0,0,0,4.61-.56,25.62,25.62,0,0,0,4-1.43,14.56,14.56,0,0,0,3.18-2.15,12.33,12.33,0,0,0,2.47-2.54c.08,1.11.16,2.15.31,3.26a10.46,10.46,0,0,0,.64,2.62Zm-23.45-4a9.47,9.47,0,0,1-3-1.75,6.94,6.94,0,0,1-1.83-2.62,7.29,7.29,0,0,1-.71-3.18,8,8,0,0,1,1-3.9,8.36,8.36,0,0,1,3-2.94,14.48,14.48,0,0,1,4.77-1.82,25.53,25.53,0,0,1,6.36-.64h7.95v9.22a14.59,14.59,0,0,1-2.07,3.26,16.17,16.17,0,0,1-3,2.62,15.61,15.61,0,0,1-3.89,1.75,17.49,17.49,0,0,1-4.69.63,11.77,11.77,0,0,1-3.9-.63Zm37.07-48.8V121.2h-7.7V125h7.7v28a16.57,16.57,0,0,0,.72,5.24,8.87,8.87,0,0,0,1.91,3.34,6.09,6.09,0,0,0,2.86,1.83,10.91,10.91,0,0,0,3.65.56c1,0,1.83-.08,2.79-.16a12.79,12.79,0,0,0,2.22-.56l-.24-3.73c-.47.08-1.11.16-1.75.23a15.74,15.74,0,0,1-2,.08,9.18,9.18,0,0,1-2.07-.23,3.47,3.47,0,0,1-1.75-1,4.76,4.76,0,0,1-1.19-2.14,10.57,10.57,0,0,1-.48-3.5V125H295V121.2h-8.67V110.39Zm25.49,0V121.2h-7.71V125h7.71v28a16.57,16.57,0,0,0,.72,5.24,8.86,8.86,0,0,0,1.9,3.34,6.14,6.14,0,0,0,2.86,1.83,11,11,0,0,0,3.66.56c.95,0,1.83-.08,2.78-.16a12.92,12.92,0,0,0,2.23-.56l-.24-3.73c-.48.08-1.11.16-1.75.23a15.9,15.9,0,0,1-2,.08,9.09,9.09,0,0,1-2.06-.23,3.43,3.43,0,0,1-1.75-1,4.67,4.67,0,0,1-1.19-2.14,10.57,10.57,0,0,1-.48-3.5V125h8.66V121.2h-8.66V110.39Zm23.26,10.81H325.3l15.81,41.64L339,168.33a15.83,15.83,0,0,1-1.43,3.34,9.76,9.76,0,0,1-1.9,2.38,6.91,6.91,0,0,1-2.47,1.43,10.46,10.46,0,0,1-3.34.48,6.49,6.49,0,0,1-1.11-.08c-.55-.08-1-.08-1.27-.16v3.89a2.34,2.34,0,0,1,.72.16c.31.08.63.08.95.16s.71.08,1,.16h.88a10.55,10.55,0,0,0,4.92-1,13.31,13.31,0,0,0,3.34-2.63,14.79,14.79,0,0,0,2.15-3.33c.55-1.2,1-2.31,1.35-3.26l17.8-48.64h-5l-12.23,35.29Z"></path><path class="cls-3" d="M160.16,779.52H405.83M595.4,275.34V691.91"></path><path d="M700,486v22.67L686.9,496.57c-6.09-5.72-11.42-8.51-15.87-8.51a11.35,11.35,0,0,0-8.76,3.62c-2.22,2.47-3.3,5.77-3.3,10,0,4.51,1.27,8.07,3.87,10.73a13.08,13.08,0,0,0,10,4.07v-5.78a9.4,9.4,0,0,1-6.79-2.35,9,9,0,0,1-2.41-6.67,7.57,7.57,0,0,1,2.28-5.71,8.07,8.07,0,0,1,5.78-2.09,10.9,10.9,0,0,1,5.08,1.27,34.78,34.78,0,0,1,6.41,4.82l17.39,15.62h4.13V486ZM696.17,462c2.35,2.54,3.62,6.16,3.68,10.92v1.21h4.89V473c-.13-7-2.16-12.18-6.22-15.68s-10.41-5.2-19.24-5.2h-1.65c-5.77,0-10.34,1.27-13.65,3.87a12.51,12.51,0,0,0-5,10.54,14,14,0,0,0,1.9,7.36,12.75,12.75,0,0,0,5.59,4.89,18.85,18.85,0,0,0,8.13,1.72,17.9,17.9,0,0,0,7.68-1.59,12.3,12.3,0,0,0,5.46-4.45,12.13,12.13,0,0,0,1.9-6.79,11.6,11.6,0,0,0-1.33-5.52,13,13,0,0,0-3.43-4.25c5.14.19,8.89,1.58,11.3,4.12Zm-14.28,10.6a12,12,0,0,1-7.56,2.23,12.12,12.12,0,0,1-7.62-2.29,7.4,7.4,0,0,1-2.85-6.09,7.26,7.26,0,0,1,3.49-6.16,15.57,15.57,0,0,1,9.14-2.48h2.29a10.57,10.57,0,0,1,4.31,3.56,8.81,8.81,0,0,1,1.78,5.33,7,7,0,0,1-3,5.9Z"></path><polygon points="269.92 835.61 269.03 835.61 252.59 841.77 252.59 846.97 264.15 842.72 264.15 880.94 269.92 880.94 269.92 835.61"></polygon><polygon points="315.9 835.8 285.43 835.8 285.43 840.5 309.81 840.5 291.21 880.94 297.24 880.94 315.9 839.04 315.9 835.8"></polygon><path class="cls-1" d="M255.9,322.11H223.83V278H344.41v44.13H309.19m-52.84.91V290.27h52.38V364H256.35Zm48.32,41v48.22S303.77,424,316,431.75l44,25.76a9.57,9.57,0,0,1,4.42,5.85l38.49,146.92a9.59,9.59,0,0,1-1.48,8l-47.81,66.95a9.48,9.48,0,0,1-7.72,4H220.13a9.48,9.48,0,0,1-7.72-4l-47.82-66.95a9.66,9.66,0,0,1-1.48-8L201.6,463.36a9.55,9.55,0,0,1,4.43-5.85l44-25.76c12.2-7.72,11.3-19.56,11.3-19.56V364"></path><path class="cls-4" d="M255.9,322.11H223.83V278H344.41v44.13H309.19m-52.84.91V290.27h52.38V364H256.35V323Zm48.32,41v48.22S303.77,424,316,431.75l44,25.76a9.57,9.57,0,0,1,4.42,5.85l38.49,146.92a9.59,9.59,0,0,1-1.48,8l-47.81,66.95a9.48,9.48,0,0,1-7.72,4H220.13a9.48,9.48,0,0,1-7.72-4l-47.82-66.95a9.66,9.66,0,0,1-1.48-8L201.6,463.36a9.55,9.55,0,0,1,4.43-5.85l44-25.76c12.2-7.72,11.3-19.56,11.3-19.56V364"></path></svg> 