<?xml version="1.0" encoding="UTF-8"?> <svg xmlns="http://www.w3.org/2000/svg" id="Livello_1" data-name="Livello 1" viewBox="0 0 666.67 1009.06"><defs><style>.cls-1{fill:#fff;}.cls-2,.cls-3{font-size:64.28px;fill:#231f20;}.cls-2{font-family:Roboto-Bold, Roboto;font-weight:700;}.cls-3{font-family:Roboto-Light, Roboto;font-weight:300;}.cls-4,.cls-6{fill:none;stroke-width:0.25px;}.cls-4{stroke:#000;}.cls-5{font-size:51.42px;font-family:Roboto-Regular, Roboto;}.cls-6{stroke:#231f20;stroke-miterlimit:10;}</style></defs><title>MoM tall sospensione</title><rect class="cls-1" y="0.49" width="666.67" height="1000"></rect><text class="cls-2" transform="translate(163.38 54.99)">1602-22</text><text class="cls-3" transform="translate(245.78 140.66)">tall</text><line class="cls-4" x1="225" y1="913.03" x2="350.98" y2="913.03"></line><line class="cls-4" x1="460.41" y1="543.18" x2="460.41" y2="847.44"></line><text class="cls-5" transform="translate(545.07 769.45) rotate(-90)">40</text><text class="cls-5" transform="translate(224.88 995.12)">ø19,8</text><path class="cls-1" d="M288.24,845.29H323a5,5,0,0,0,4.71-3.54l32.46-104.49a6.66,6.66,0,0,0,.3-2V687.36a5.54,5.54,0,0,0-.18-1.4L342.79,618.9a4.32,4.32,0,0,0-2.85-3c-4.92-1.54-17.07-5.28-27.3-7.86-13.17-3.3-14.11-13.24-14.11-13.24V545.91a3.45,3.45,0,0,0-3.39-3.5h-14.3a3.44,3.44,0,0,0-3.38,3.5v48.85s-.95,9.94-14.12,13.24c-10.22,2.58-22.38,6.32-27.3,7.86a4.31,4.31,0,0,0-2.84,3L215.72,686a5.53,5.53,0,0,0-.17,1.4v47.91a6.66,6.66,0,0,0,.3,2l32.47,104.49a5,5,0,0,0,4.7,3.54h35.22ZM291,542.41h-6V286h6ZM299.09,286H276.51v-45h22.58Z"></path><path class="cls-6" d="M288.24,845.29H323a5,5,0,0,0,4.71-3.54l32.46-104.49a6.66,6.66,0,0,0,.3-2V687.36a5.54,5.54,0,0,0-.18-1.4L342.79,618.9a4.32,4.32,0,0,0-2.85-3c-4.92-1.54-17.07-5.28-27.3-7.86-13.17-3.3-14.11-13.24-14.11-13.24V545.91a3.45,3.45,0,0,0-3.39-3.5h-14.3a3.44,3.44,0,0,0-3.38,3.5v48.85s-.95,9.94-14.12,13.24c-10.22,2.58-22.38,6.32-27.3,7.86a4.31,4.31,0,0,0-2.84,3L215.72,686a5.53,5.53,0,0,0-.17,1.4v47.91a6.66,6.66,0,0,0,.3,2l32.47,104.49a5,5,0,0,0,4.7,3.54h35.22ZM291,542.41h-6V286h6ZM299.09,286H276.51v-45h22.58Z"></path></svg> 