<?xml version="1.0" encoding="UTF-8"?> <svg xmlns="http://www.w3.org/2000/svg" id="Livello_1" data-name="Livello 1" viewBox="0 0 666.67 1000.49"><defs><style>.cls-1{fill:#fff;}.cls-2,.cls-3{font-size:64.28px;fill:#231f20;}.cls-2{font-family:Roboto-Bold, Roboto;font-weight:700;}.cls-3{font-family:Roboto-Light, Roboto;font-weight:300;}.cls-4,.cls-6{fill:none;stroke-width:0.25px;}.cls-4{stroke:#000;}.cls-5{font-size:51.42px;font-family:Roboto-Regular, Roboto;}.cls-6{stroke:#231f20;stroke-miterlimit:10;}</style></defs><title>MoM fatty sospensione</title><rect class="cls-1" y="0.49" width="666.67" height="1000"></rect><text class="cls-2" transform="translate(151.71 54.99)">1602-24</text><text class="cls-3" transform="translate(212.32 140.66)">fatty</text><line class="cls-4" x1="182.99" y1="897.27" x2="337.62" y2="897.27"></line><line class="cls-4" x1="468.35" y1="609.84" x2="468.35" y2="847.44"></line><text class="cls-5" transform="translate(556.86 773.25) rotate(-90)">26,3</text><text class="cls-5" transform="translate(225.85 979.37)">ø17</text><path class="cls-1" d="M262.65,845.29h40a5,5,0,0,0,4.11-2.16l27.44-39.44a7.29,7.29,0,0,0,1.06-6.05l-23.42-87.12a5.42,5.42,0,0,0-2.47-3.26l-18.41-10.89C279.55,691,276.62,679,276.62,679V619.29H251.34V679s-2.92,12-14.29,17.42l-18.42,10.89a5.4,5.4,0,0,0-2.48,3.26l-23.4,87.12a7.28,7.28,0,0,0,1,6.05l27.44,39.44a5,5,0,0,0,4.13,2.16h40m2.92-226.82h-7.8V292.36h7.8Zm8.45-326.12h-26V241.07h26Z"></path><path class="cls-6" d="M262.65,845.29h40a5,5,0,0,0,4.11-2.16l27.44-39.44a7.29,7.29,0,0,0,1.06-6.05l-23.42-87.12a5.42,5.42,0,0,0-2.47-3.26l-18.41-10.89C279.55,691,276.62,679,276.62,679V619.29H251.34V679s-2.92,12-14.29,17.42l-18.42,10.89a5.4,5.4,0,0,0-2.48,3.26l-23.4,87.12a7.28,7.28,0,0,0,1,6.05l27.44,39.44a5,5,0,0,0,4.13,2.16h40m2.92-226.82h-7.8V292.36h7.8Zm8.45-326.12h-26V241.07h26Z"></path></svg> 