<?xml version="1.0" encoding="UTF-8"?> <svg xmlns="http://www.w3.org/2000/svg" id="Livello_1" data-name="Livello 1" viewBox="0 0 831.12 1000.49"><defs><style>.cls-1{fill:#fff;}.cls-2{fill:#231f20;}.cls-3,.cls-4{fill:none;stroke-width:0.25px;}.cls-3{stroke:#000;}.cls-4{stroke:#231f20;stroke-miterlimit:10;}</style></defs><title>MoM low tavolo</title><rect class="cls-1" y="0.49" width="831.12" height="1000"></rect><path class="cls-2" d="M197.09.71H195.9L172.55,9.13v9.06l13.34-4.13v43.2h11.2ZM244.22.24a29.56,29.56,0,0,0-12.15,2.3A25.73,25.73,0,0,0,223,8.9a29.31,29.31,0,0,0-5.63,9.84,38.84,38.84,0,0,0-1.91,12.47v4.37a28,28,0,0,0,1.43,9.14,21,21,0,0,0,4,7.06,18.08,18.08,0,0,0,6.27,4.61,19.66,19.66,0,0,0,8.19,1.67,20.47,20.47,0,0,0,7.86-1.51A17.74,17.74,0,0,0,253,46.3a22,22,0,0,0,1.35-7.62,27.54,27.54,0,0,0-1-7.39,18.19,18.19,0,0,0-3-6.11,14.78,14.78,0,0,0-5-4.13,15.35,15.35,0,0,0-7.07-1.59,16.68,16.68,0,0,0-6.43,1.27,15.63,15.63,0,0,0-4.92,3.41,18.3,18.3,0,0,1,1.9-6.11,13.88,13.88,0,0,1,3.66-4.61A17.65,17.65,0,0,1,238,10.48a21.93,21.93,0,0,1,7.14-1h.64V.24Zm-5.88,29A8.44,8.44,0,0,1,241,31.37a10.35,10.35,0,0,1,1.67,3.26,13.57,13.57,0,0,1,.56,4.13,13.57,13.57,0,0,1-.56,4.13A9.93,9.93,0,0,1,241,46.07a6.53,6.53,0,0,1-2.54,2.14,6.42,6.42,0,0,1-3.33.79,8.19,8.19,0,0,1-3.42-.71,8.09,8.09,0,0,1-2.7-2.22,12.71,12.71,0,0,1-1.67-3.74,20.89,20.89,0,0,1-.63-5.24V33.68a7.61,7.61,0,0,1,1.27-2A7.36,7.36,0,0,1,229.77,30a8.87,8.87,0,0,1,2.3-1.11,9.25,9.25,0,0,1,6.27.32Zm60.56-5.09a36.85,36.85,0,0,0-1.43-11,19.47,19.47,0,0,0-3.89-7.46,14.55,14.55,0,0,0-6-4.29A20.31,20.31,0,0,0,279.76,0,20.69,20.69,0,0,0,272,1.43a14.28,14.28,0,0,0-6,4.29,19.47,19.47,0,0,0-3.89,7.46,36.52,36.52,0,0,0-1.43,11v9.77a36.24,36.24,0,0,0,1.43,10.88A21.08,21.08,0,0,0,266,52.34a14.52,14.52,0,0,0,6,4.29,20.69,20.69,0,0,0,7.79,1.43,20.31,20.31,0,0,0,7.78-1.43,14.55,14.55,0,0,0,6-4.29,21.08,21.08,0,0,0,3.89-7.55,39.6,39.6,0,0,0,1.35-10.88ZM287.7,35.42a28.91,28.91,0,0,1-.56,6.36,12.41,12.41,0,0,1-1.5,4.21,5.71,5.71,0,0,1-2.47,2.3,8.19,8.19,0,0,1-6.67,0A5.69,5.69,0,0,1,274,46a12.35,12.35,0,0,1-1.59-4.21,35.6,35.6,0,0,1-.48-6.36V22.48a34.57,34.57,0,0,1,.48-6.28A11.84,11.84,0,0,1,274,12.07a6.78,6.78,0,0,1,2.46-2.3,7.78,7.78,0,0,1,3.34-.64,7.29,7.29,0,0,1,3.33.64,6.42,6.42,0,0,1,2.55,2.3,11.84,11.84,0,0,1,1.5,4.13,28.08,28.08,0,0,1,.56,6.28Zm57.46,12.79H320.85l9.93-10.48c1.91-2,3.66-3.82,5.16-5.64a39.76,39.76,0,0,0,4-5.32,26.39,26.39,0,0,0,2.46-5.25,16,16,0,0,0,.95-5.48,18.66,18.66,0,0,0-1.19-6.75,13.5,13.5,0,0,0-3.57-5,16.09,16.09,0,0,0-5.72-3.18,26.87,26.87,0,0,0-8-1.11,21,21,0,0,0-8.18,1.51,18,18,0,0,0-6.11,4,17.37,17.37,0,0,0-4,5.88,20,20,0,0,0-1.35,7.23h11.28a11.3,11.3,0,0,1,.55-3.82,9,9,0,0,1,1.51-3,7.31,7.31,0,0,1,2.62-2,7.8,7.8,0,0,1,3.5-.72,6.89,6.89,0,0,1,5.4,2.15,8.65,8.65,0,0,1,1.9,6,7.56,7.56,0,0,1-.39,2.54,14,14,0,0,1-1.2,2.86,23.24,23.24,0,0,1-2.3,3.41,45.86,45.86,0,0,1-3.49,4.13L306.4,49.56v7.7h38.76Zm29.1-19.62H352.42v9h21.84Zm46.51-4.45a36.85,36.85,0,0,0-1.43-11,19.47,19.47,0,0,0-3.89-7.46,14.49,14.49,0,0,0-6-4.29A20.31,20.31,0,0,0,401.63,0a20.6,20.6,0,0,0-7.78,1.43,14.25,14.25,0,0,0-6,4.29A19.47,19.47,0,0,0,384,13.18a36.85,36.85,0,0,0-1.43,11v9.77A36.56,36.56,0,0,0,384,44.79a21.08,21.08,0,0,0,3.89,7.55,14.49,14.49,0,0,0,6,4.29,20.6,20.6,0,0,0,7.78,1.43,20.31,20.31,0,0,0,7.78-1.43,14.49,14.49,0,0,0,6-4.29,21.08,21.08,0,0,0,3.89-7.55,39.6,39.6,0,0,0,1.35-10.88Zm-11.2,11.28a29.6,29.6,0,0,1-.55,6.36A12.62,12.62,0,0,1,407.51,46a5.74,5.74,0,0,1-2.46,2.3,8.21,8.21,0,0,1-6.68,0,5.74,5.74,0,0,1-2.46-2.3,12.56,12.56,0,0,1-1.59-4.21,36.67,36.67,0,0,1-.47-6.36V22.48a35.61,35.61,0,0,1,.47-6.28,12,12,0,0,1,1.51-4.13,6.86,6.86,0,0,1,2.46-2.3,7.81,7.81,0,0,1,3.34-.64,7.36,7.36,0,0,1,3.34.64,6.47,6.47,0,0,1,2.54,2.3A12,12,0,0,1,409,16.2a28.75,28.75,0,0,1,.55,6.28ZM455.51.71h-1.19L431,9.13v9.06l13.34-4.13v43.2h11.2Z"></path><path class="cls-2" d="M268.22,103.49h-4.68v59.57h4.68Zm10,39.24a26.56,26.56,0,0,0,1.35,8.49,20,20,0,0,0,3.81,6.68,17.09,17.09,0,0,0,5.88,4.36,19.46,19.46,0,0,0,15.41,0,18.19,18.19,0,0,0,6-4.36,20.91,20.91,0,0,0,3.73-6.68,26.56,26.56,0,0,0,1.35-8.49v-1.27a26.08,26.08,0,0,0-1.35-8.42,20.43,20.43,0,0,0-3.73-6.75,18.08,18.08,0,0,0-6-4.37,18.78,18.78,0,0,0-7.78-1.59,18.37,18.37,0,0,0-7.63,1.59,17.94,17.94,0,0,0-5.95,4.37,20.63,20.63,0,0,0-3.74,6.75,26.08,26.08,0,0,0-1.35,8.42Zm4.69-1.27a22.46,22.46,0,0,1,.87-6.52,17.87,17.87,0,0,1,2.7-5.48,12.5,12.5,0,0,1,4.45-3.73,12.27,12.27,0,0,1,6-1.43,12.87,12.87,0,0,1,6.11,1.43,12.5,12.5,0,0,1,4.45,3.73,17.65,17.65,0,0,1,2.7,5.48,22.17,22.17,0,0,1,.95,6.52v1.27a22.3,22.3,0,0,1-.95,6.59,17.65,17.65,0,0,1-2.7,5.48,14.39,14.39,0,0,1-4.45,3.73,12.31,12.31,0,0,1-6,1.35,12.56,12.56,0,0,1-6-1.35,14.39,14.39,0,0,1-4.45-3.73,17.87,17.87,0,0,1-2.7-5.48,22.61,22.61,0,0,1-.87-6.59Zm43.48-20.34h-4.77l12.16,41.94h4l10.56-33.2.56-2.38.47,2.3,10.8,33.28H364l12.23-41.94h-4.77l-8.66,32.17-.87,4.05L360.85,153l-9.93-31.85h-4l-10.09,32.09-.95,3.81-.64-3.65Z"></path><line class="cls-3" x1="623.66" y1="489.03" x2="623.66" y2="823.78"></line><path d="M712.32,680v-4.32c.06-3,.76-5.39,2.16-7a7.42,7.42,0,0,1,6-2.41c2.73,0,4.76.69,6.22,2.15s2.16,3.62,2.16,6.41a8.75,8.75,0,0,1-2.16,6.22,7.33,7.33,0,0,1-5.65,2.28v5.77a11.41,11.41,0,0,0,9.08-4c2.28-2.6,3.42-6.09,3.42-10.28A15,15,0,0,0,730,664.51a12.29,12.29,0,0,0-9.64-4,11.11,11.11,0,0,0-6.67,2,11.52,11.52,0,0,0-3.87,5.78,11.61,11.61,0,0,0-4.12-5.21,9.91,9.91,0,0,0-5.71-1.9c-4.06,0-7.17,1.21-9.45,3.62s-3.36,5.77-3.36,10a14.37,14.37,0,0,0,3.55,10,11.52,11.52,0,0,0,8.88,3.93V683a7.29,7.29,0,0,1-5.58-2.16,8.2,8.2,0,0,1-2.16-6c0-5.27,2.67-7.93,7.93-7.93a7.26,7.26,0,0,1,5.65,2.35,9.61,9.61,0,0,1,2.15,6.4V680Zm-6-55.66c-6.53.06-11.29,1.27-14.4,3.55s-4.69,5.84-4.69,10.73,1.58,8.5,4.82,10.78,8.18,3.43,14.78,3.43h7.68c6.34-.07,11.1-1.27,14.33-3.62s4.76-5.84,4.76-10.66-1.65-8.5-4.88-10.78-8.25-3.43-15-3.43Zm9,5.71c4.69.06,8.18.83,10.34,2.16a7.68,7.68,0,0,1-.19,12.75c-2.35,1.39-5.9,2.16-10.79,2.16h-9.2c-4.56-.07-8-.77-10.21-2.1s-3.3-3.49-3.3-6.4a7,7,0,0,1,3.36-6.48c2.22-1.39,5.71-2.09,10.6-2.09Z"></path><line class="cls-3" x1="107.75" y1="898.01" x2="518.64" y2="898.01"></line><path d="M307.19,978.75h4.31c3.05.06,5.39.76,7,2.15a7.46,7.46,0,0,1,2.41,6c0,2.73-.7,4.76-2.16,6.22s-3.61,2.16-6.41,2.16a8.7,8.7,0,0,1-6.21-2.16,7.3,7.3,0,0,1-2.29-5.65h-5.77a11.35,11.35,0,0,0,4,9.07,17,17,0,0,0,20.62-.12,12.33,12.33,0,0,0,4-9.65,11.08,11.08,0,0,0-2-6.66,11.43,11.43,0,0,0-5.77-3.87,11.63,11.63,0,0,0,5.2-4.12,9.91,9.91,0,0,0,1.9-5.71c0-4.06-1.2-7.17-3.61-9.45s-5.77-3.37-10-3.37a14.41,14.41,0,0,0-10,3.56,11.5,11.5,0,0,0-3.93,8.88h5.77a7.29,7.29,0,0,1,2.16-5.58,8.2,8.2,0,0,1,6-2.16c5.27,0,7.94,2.66,7.94,7.93a7.29,7.29,0,0,1-2.35,5.65,9.64,9.64,0,0,1-6.41,2.15h-4.31Zm51-21.76A15.39,15.39,0,0,0,339,957a11.66,11.66,0,0,0-3.68,9,10.44,10.44,0,0,0,1.78,6,12.32,12.32,0,0,0,4.69,4.13,11.93,11.93,0,0,0-5.52,4.44,11.49,11.49,0,0,0-2,6.59,11.91,11.91,0,0,0,3.87,9.33c2.66,2.35,6.09,3.49,10.46,3.49s7.74-1.14,10.41-3.49a11.79,11.79,0,0,0,3.93-9.33,11,11,0,0,0-2.09-6.59,12.51,12.51,0,0,0-5.59-4.44,12.33,12.33,0,0,0,4.83-4.13,10.37,10.37,0,0,0,1.77-6,11.43,11.43,0,0,0-3.68-9Zm-3.3,36.09a10,10,0,0,1-12.62,0,8,8,0,0,1-2.29-6,8.45,8.45,0,0,1,2.35-6.22,8.22,8.22,0,0,1,6.22-2.35,8.74,8.74,0,0,1,6.28,2.41,8.32,8.32,0,0,1,2.41,6.16,8,8,0,0,1-2.35,6Zm-.88-32.6a8.48,8.48,0,0,1,.06,11.22,7.2,7.2,0,0,1-5.46,2.1,7.46,7.46,0,0,1-5.52-2.1,8.75,8.75,0,0,1,.07-11.29,7.32,7.32,0,0,1,5.45-2.09,7.19,7.19,0,0,1,5.4,2.16Z"></path><path class="cls-1" d="M313.77,495.26h17.5V546s-3.28,9.27,16.94,15.27l154.35,51.14a7,7,0,0,1,4.59,4.93l8.72,34.32a4.47,4.47,0,0,1-1.61,4.65L400.15,744.46H226.25L112.14,656.29a4.46,4.46,0,0,1-1.6-4.65l8.71-34.32a7,7,0,0,1,4.59-4.93l154.35-51.14c20.23-6,16.95-15.27,16.95-15.27V495.26h18.63ZM469.54,814.82H155.73V707.39H469.54ZM312.08,761.11H163.93V708.48H312.08Zm149.26.26H314.82v-52.9H461.34ZM291.86,493.09h41.55M299,490.36h27.87"></path><path class="cls-4" d="M313.77,495.26h17.5V546s-3.28,9.27,16.94,15.27l154.35,51.14a7,7,0,0,1,4.59,4.93l8.72,34.32a4.47,4.47,0,0,1-1.61,4.65L400.15,744.46H226.25L112.14,656.29a4.46,4.46,0,0,1-1.6-4.65l8.71-34.32a7,7,0,0,1,4.59-4.93l154.35-51.14c20.23-6,16.95-15.27,16.95-15.27V495.26h18.63ZM469.54,814.82H155.73V707.39H469.54ZM312.08,761.11H163.93V708.48H312.08Zm149.26.26H314.82v-52.9H461.34ZM291.86,493.09h41.55M299,490.36h27.87"></path></svg> 