<?xml version="1.0" encoding="UTF-8"?> <svg xmlns="http://www.w3.org/2000/svg" id="Livello_1" data-name="Livello 1" viewBox="0 0 831.12 1000"><defs><style>.cls-1{fill:#fff;}.cls-2{fill:#231f20;}.cls-3,.cls-4{fill:none;stroke-width:0.25px;}.cls-3{stroke:#000;}.cls-4{stroke:#231f20;stroke-linejoin:round;}</style></defs><title>Narciso sospensione</title><rect class="cls-1" width="831.12" height="1000"></rect><path class="cls-2" d="M306.52.89h-.66l-13,4.68v5l7.42-2.3v24h6.23Zm31.58,0H315.92V6h15.6L319.36,32.36H326L338.1,4.42Zm19.12,0h-.66l-13,4.68v5L351,8.31v24h6.23Zm31.36,13a20.42,20.42,0,0,0-.8-6.1,10.79,10.79,0,0,0-2.16-4.16,8.11,8.11,0,0,0-3.36-2.38,11.1,11.1,0,0,0-4.33-.8,11.29,11.29,0,0,0-4.34.8,8,8,0,0,0-3.31,2.38,10.94,10.94,0,0,0-2.17,4.16,20.44,20.44,0,0,0-.79,6.1v5.43a20.34,20.34,0,0,0,.79,6.06,11.81,11.81,0,0,0,2.17,4.2A8.23,8.23,0,0,0,373.64,32a11.43,11.43,0,0,0,4.33.79A11.29,11.29,0,0,0,382.3,32a8.23,8.23,0,0,0,3.36-2.39,11.81,11.81,0,0,0,2.17-4.2,22.23,22.23,0,0,0,.75-6.06Zm-6.23,6.27a16.2,16.2,0,0,1-.31,3.54,7,7,0,0,1-.84,2.34,3.24,3.24,0,0,1-1.37,1.29,4.63,4.63,0,0,1-3.72,0,3.24,3.24,0,0,1-1.37-1.29,6.94,6.94,0,0,1-.88-2.34,19.54,19.54,0,0,1-.27-3.54V13a19,19,0,0,1,.27-3.49,6.65,6.65,0,0,1,.84-2.3,3.68,3.68,0,0,1,1.37-1.28,4.26,4.26,0,0,1,1.86-.36,4,4,0,0,1,1.85.36,3.46,3.46,0,0,1,1.42,1.28,6.65,6.65,0,0,1,.84,2.3,15.78,15.78,0,0,1,.31,3.49Zm22.82-3.8H393v5h12.15Zm26.29,10.92H417.93l5.53-5.83c1.06-1.11,2-2.13,2.87-3.14a21.85,21.85,0,0,0,2.21-3,15,15,0,0,0,1.37-2.92,8.93,8.93,0,0,0,.53-3.05,10.39,10.39,0,0,0-.66-3.76,7.58,7.58,0,0,0-2-2.78,9,9,0,0,0-3.18-1.77,14.79,14.79,0,0,0-4.42-.62,11.54,11.54,0,0,0-4.56.84,10.1,10.1,0,0,0-3.4,2.21A9.75,9.75,0,0,0,410,6.81a11.12,11.12,0,0,0-.75,4h6.27a6.35,6.35,0,0,1,.31-2.12A5.19,5.19,0,0,1,416.69,7a4.06,4.06,0,0,1,1.46-1.1,4.32,4.32,0,0,1,2-.4,3.83,3.83,0,0,1,3,1.19A4.81,4.81,0,0,1,424.16,10a4,4,0,0,1-.22,1.41,7.28,7.28,0,0,1-.66,1.59,12.68,12.68,0,0,1-1.28,1.9,24.78,24.78,0,0,1-1.95,2.3L409.89,28.07v4.29h21.57Zm25-13.39a20.42,20.42,0,0,0-.8-6.1,10.94,10.94,0,0,0-2.17-4.16,8,8,0,0,0-3.35-2.38,12.15,12.15,0,0,0-8.67,0,7.9,7.9,0,0,0-3.31,2.38,10.94,10.94,0,0,0-2.17,4.16,20.42,20.42,0,0,0-.8,6.1v5.43a20.32,20.32,0,0,0,.8,6.06,11.81,11.81,0,0,0,2.17,4.2A8.1,8.1,0,0,0,441.47,32a11.43,11.43,0,0,0,4.33.79,11.29,11.29,0,0,0,4.33-.79,8.23,8.23,0,0,0,3.36-2.39,11.8,11.8,0,0,0,2.16-4.2,21.82,21.82,0,0,0,.76-6.06Zm-6.24,6.27a15.61,15.61,0,0,1-.31,3.54,6.56,6.56,0,0,1-.84,2.34,3.19,3.19,0,0,1-1.37,1.29,4.61,4.61,0,0,1-3.71,0,3.19,3.19,0,0,1-1.37-1.29,6.74,6.74,0,0,1-.88-2.34,19.54,19.54,0,0,1-.27-3.54V13a19,19,0,0,1,.27-3.49,6.26,6.26,0,0,1,.84-2.3,3.61,3.61,0,0,1,1.37-1.28,4.25,4.25,0,0,1,1.85-.36,4,4,0,0,1,1.86.36A3.44,3.44,0,0,1,449,7.21a6.26,6.26,0,0,1,.84,2.3,15.2,15.2,0,0,1,.31,3.49Z" transform="translate(0 -0.49)"></path><path class="cls-3" d="M90.63,941.75H651.46m38-751.78V894.65" transform="translate(0 -0.49)"></path><path d="M725.05,559.49v.5l3.42,9.14h2.9L729,562.71h21.26v-3.22Zm13.73-14v-2.4a6,6,0,0,1,1.2-3.88,4.16,4.16,0,0,1,3.36-1.35,4.6,4.6,0,0,1,3.46,1.21,5.73,5.73,0,0,1,0,7,4.07,4.07,0,0,1-3.14,1.27v3.22a6.37,6.37,0,0,0,5.05-2.23,9.45,9.45,0,0,0-.08-11.47,6.81,6.81,0,0,0-5.36-2.23,6.17,6.17,0,0,0-3.71,1.13,6.35,6.35,0,0,0-2.15,3.21,6.49,6.49,0,0,0-2.3-2.89,5.48,5.48,0,0,0-3.18-1.06,6.86,6.86,0,0,0-5.26,2,9,9,0,0,0,.11,11.12,6.38,6.38,0,0,0,4.94,2.19v-3.21a4.1,4.1,0,0,1-3.11-1.2,4.58,4.58,0,0,1-1.2-3.32c0-2.93,1.49-4.41,4.42-4.41a4.07,4.07,0,0,1,3.14,1.3,5.33,5.33,0,0,1,1.2,3.57v2.4Zm-.46-19.25-.67-.85a5.27,5.27,0,0,1-.91-3.28,4.63,4.63,0,0,1,1.51-3.64,5.84,5.84,0,0,1,4.06-1.38,6.35,6.35,0,0,1,4.17,1.27,4.31,4.31,0,0,1,1.52,3.5,4.67,4.67,0,0,1-1.1,3.28,5.06,5.06,0,0,1-3.24,1.52v3a7.44,7.44,0,0,0,5.12-2.4,8,8,0,0,0,1.83-5.44,7.69,7.69,0,0,0-2.22-5.86,8.66,8.66,0,0,0-6.11-2.09,8.93,8.93,0,0,0-6.14,2,6.9,6.9,0,0,0-2.26,5.43,8,8,0,0,0,1.09,4.21l-6.85-.74V514.67h-3v12.85l12.54,1.27Z" transform="translate(0 -0.49)"></path><path d="M336.37,997l-1.73,3.5h2.16l1.27-2.58a8.87,8.87,0,0,0,3.28.6,8.44,8.44,0,0,0,4.41-1.16,8.21,8.21,0,0,0,3-3.39,11.22,11.22,0,0,0,1.05-4.91c0-3.67-1.13-6.43-3.35-8.19l1.77-3.53h-2.16l-1.23,2.57a8.52,8.52,0,0,0-3.53-.74,7.95,7.95,0,0,0-7.42,4.59,11,11,0,0,0-1.06,4.91c0,3.85,1.2,6.6,3.53,8.33Zm1.13-13.34a4.6,4.6,0,0,1,3.82-1.87,4.68,4.68,0,0,1,2.29.56l-5.9,12a7.72,7.72,0,0,1-1.66-5.26,8.61,8.61,0,0,1,1.45-5.4Zm9.11,5.29A8.3,8.3,0,0,1,345.2,994a4.72,4.72,0,0,1-3.85,1.87,5,5,0,0,1-2.08-.42l5.86-11.87a8,8,0,0,1,1.48,5Zm17.24-16h-.49l-9.15,3.42v2.9l6.43-2.37v21.26h3.21Zm19.86,0h-.5l-9.14,3.42v2.9l6.42-2.37v21.26h3.22Zm25.11,10.38c0-3.64-.7-6.29-2-8s-3.24-2.61-6-2.61-4.73.88-6,2.69-1.91,4.55-1.91,8.22v4.27c0,3.54.7,6.18,2,8s3.25,2.65,5.93,2.65,4.73-.92,6-2.72,1.9-4.59,1.9-8.33Zm-3.18,5a11.49,11.49,0,0,1-1.2,5.75,4.27,4.27,0,0,1-7.09-.1,11.94,11.94,0,0,1-1.2-6v-5.12a11.67,11.67,0,0,1,1.16-5.69,3.84,3.84,0,0,1,3.57-1.84,3.89,3.89,0,0,1,3.6,1.88c.78,1.23,1.16,3.17,1.16,5.89Z" transform="translate(0 -0.49)"></path><path class="cls-1" d="M371.57,227.64h7.86l79.36-36.2H284.35l79.36,36.2Zm-3.92,477.19V227.64h6.8V705.08m-6.8,82.38v68.73h6.8V787.46m-3.4,0h3.4L650,705.08H92.11l275.54,82.38Zm0,105.72h3.4l79.63-37H288l79.63,37Z" transform="translate(0 -0.49)"></path><path class="cls-4" d="M371.57,227.64h7.86l79.36-36.2H284.35l79.36,36.2Zm-3.92,477.19V227.64h6.8V705.08m-6.8,82.38v68.73h6.8V787.46m-3.4,0h3.4L650,705.08H92.11l275.54,82.38Zm0,105.72h3.4l79.63-37H288l79.63,37Z" transform="translate(0 -0.49)"></path></svg> 