<?xml version="1.0" encoding="UTF-8"?> <svg xmlns="http://www.w3.org/2000/svg" id="Livello_1" data-name="Livello 1" viewBox="0 0 831.12 1000.49"><defs><style>.cls-1{fill:#fff;}.cls-2{fill:#231f20;}.cls-3,.cls-4{fill:none;stroke-width:0.25px;}.cls-3{stroke:#000;}.cls-4{stroke:#231f20;stroke-linejoin:round;}</style></defs><title>Narciso tavolo large filo</title><rect class="cls-1" y="0.49" width="831.12" height="1000"></rect><path class="cls-2" d="M168.5.66h-1.1L145.8,8.45v8.37L158.14,13V53H168.5ZM221,.73H184.11V9.11H210L189.84,53h10.95L221,6.54ZM252.76.66h-1.1l-21.6,7.79v8.37L242.4,13V53h10.36Zm52.12,21.67a34,34,0,0,0-1.32-10.13A18.1,18.1,0,0,0,300,5.29a13.55,13.55,0,0,0-5.59-4A18.77,18.77,0,0,0,287.17,0,19.1,19.1,0,0,0,280,1.32a13.3,13.3,0,0,0-5.51,4,18.1,18.1,0,0,0-3.6,6.91,34,34,0,0,0-1.32,10.13v9a33.92,33.92,0,0,0,1.32,10.07,19.66,19.66,0,0,0,3.6,7,13.55,13.55,0,0,0,5.59,4,19,19,0,0,0,7.2,1.32,18.81,18.81,0,0,0,7.2-1.32,13.45,13.45,0,0,0,5.58-4,19.5,19.5,0,0,0,3.6-7,36.57,36.57,0,0,0,1.25-10.07ZM294.52,32.77a27.24,27.24,0,0,1-.51,5.87,11.53,11.53,0,0,1-1.4,3.9,5.27,5.27,0,0,1-2.28,2.13,7.54,7.54,0,0,1-6.17,0,5.27,5.27,0,0,1-2.28-2.13,11.48,11.48,0,0,1-1.47-3.9,33.31,33.31,0,0,1-.44-5.87v-12a32.46,32.46,0,0,1,.44-5.8,11,11,0,0,1,1.4-3.82A6.21,6.21,0,0,1,284.09,9a7.21,7.21,0,0,1,3.08-.59,6.83,6.83,0,0,1,3.09.59,5.88,5.88,0,0,1,2.35,2.13A11,11,0,0,1,294,15a26.55,26.55,0,0,1,.51,5.8Zm37.94-6.32h-20.2v8.3h20.2Zm43-4.12a34,34,0,0,0-1.32-10.13,18.1,18.1,0,0,0-3.6-6.91,13.45,13.45,0,0,0-5.58-4A18.81,18.81,0,0,0,357.78,0a19,19,0,0,0-7.2,1.32,13.24,13.24,0,0,0-5.51,4,18.1,18.1,0,0,0-3.6,6.91,34,34,0,0,0-1.32,10.13v9a33.92,33.92,0,0,0,1.32,10.07,19.5,19.5,0,0,0,3.6,7,13.45,13.45,0,0,0,5.58,4,19.1,19.1,0,0,0,7.2,1.32,18.77,18.77,0,0,0,7.2-1.32,13.45,13.45,0,0,0,5.58-4,19.35,19.35,0,0,0,3.6-7,36.57,36.57,0,0,0,1.25-10.07ZM365.12,32.77a26.61,26.61,0,0,1-.51,5.87,11.32,11.32,0,0,1-1.4,3.9,5.19,5.19,0,0,1-2.27,2.13,7.54,7.54,0,0,1-6.17,0,5.21,5.21,0,0,1-2.28-2.13,11.48,11.48,0,0,1-1.47-3.9,33.31,33.31,0,0,1-.44-5.87v-12A32.46,32.46,0,0,1,351,15a11,11,0,0,1,1.39-3.82A6.28,6.28,0,0,1,354.69,9a7.28,7.28,0,0,1,3.09-.59,6.81,6.81,0,0,1,3.08.59,5.82,5.82,0,0,1,2.35,2.13,10.77,10.77,0,0,1,1.4,3.82,25.94,25.94,0,0,1,.51,5.8ZM393,30.34h5.51a14,14,0,0,1,3.6.44,10.58,10.58,0,0,1,2.72,1.4,7.27,7.27,0,0,1,1.69,2.42,10.52,10.52,0,0,1,.59,3.6,7.71,7.71,0,0,1-.59,2.94A5.14,5.14,0,0,1,405,43.35a5.66,5.66,0,0,1-2.5,1.46,9.17,9.17,0,0,1-3.31.52,8,8,0,0,1-3-.52,6.53,6.53,0,0,1-2.43-1.39,6.33,6.33,0,0,1-1.61-2.06,6.39,6.39,0,0,1-.59-2.72H381.17a13.75,13.75,0,0,0,1.54,6.69,14,14,0,0,0,4.05,4.7,17.56,17.56,0,0,0,5.65,2.79,24.55,24.55,0,0,0,6.54.88,26.16,26.16,0,0,0,7.35-1,17,17,0,0,0,5.87-3,13.8,13.8,0,0,0,3.9-4.77,15.58,15.58,0,0,0,1.39-6.54,12.22,12.22,0,0,0-8.74-12.2A17.12,17.12,0,0,0,412.1,24a16.81,16.81,0,0,0,2.5-2.64,14.19,14.19,0,0,0,1.54-3.16,12.62,12.62,0,0,0,.52-3.31,15,15,0,0,0-1.33-6.46,13,13,0,0,0-3.6-4.63A16.64,16.64,0,0,0,406.15,1,27.38,27.38,0,0,0,399,0a21.94,21.94,0,0,0-6.68,1,18.28,18.28,0,0,0-5.44,2.86,14.41,14.41,0,0,0-3.67,4.49,12.89,12.89,0,0,0-1.33,5.87h10.36a5.31,5.31,0,0,1,.59-2.42A5.21,5.21,0,0,1,394.25,10a6.1,6.1,0,0,1,2.28-1.17,7.5,7.5,0,0,1,2.64-.44,8.09,8.09,0,0,1,3.16.51,5.55,5.55,0,0,1,2.2,1.4,5.2,5.2,0,0,1,1.33,2.13,7.74,7.74,0,0,1,.44,2.64,7.25,7.25,0,0,1-1.91,5.22c-1.32,1.32-3.24,2-5.88,2H393Z"></path><path class="cls-2" d="M211.56,95.73h-4.33v55.1h4.33Zm40.69,55.1v-.44a12.63,12.63,0,0,1-.51-1.62c-.15-.58-.23-1.25-.37-1.91s-.15-1.32-.22-2.05a18.44,18.44,0,0,1-.08-2.06V123.94a13.93,13.93,0,0,0-1-5.51,10.83,10.83,0,0,0-2.94-4,13,13,0,0,0-4.41-2.35,18.22,18.22,0,0,0-5.73-.81,18,18,0,0,0-6.1,1,16.74,16.74,0,0,0-4.7,2.57,12,12,0,0,0-3,3.67,8.39,8.39,0,0,0-1,4.19l4.26.08a6.39,6.39,0,0,1,.81-3.09,8.36,8.36,0,0,1,2.13-2.5,9.77,9.77,0,0,1,3.3-1.61,12.45,12.45,0,0,1,4.12-.67q5,0,7.49,2.43a8.46,8.46,0,0,1,2.57,6.54v4.41h-7.93a32.57,32.57,0,0,0-7.42.8,17.1,17.1,0,0,0-5.59,2.5,10.92,10.92,0,0,0-3.52,3.82,11.48,11.48,0,0,0-.3,9.48,10.28,10.28,0,0,0,2.5,3.53,12,12,0,0,0,4,2.35,16.53,16.53,0,0,0,5.14.8,19.5,19.5,0,0,0,4.26-.51,24.74,24.74,0,0,0,3.68-1.32,14.06,14.06,0,0,0,2.94-2,10.94,10.94,0,0,0,2.27-2.35c.08,1,.15,2,.3,3a9.66,9.66,0,0,0,.58,2.42Zm-21.67-3.67a8.61,8.61,0,0,1-2.79-1.62,6.17,6.17,0,0,1-1.69-2.42,6.54,6.54,0,0,1-.67-2.94,7.26,7.26,0,0,1,1-3.6,7.6,7.6,0,0,1,2.79-2.72,13.49,13.49,0,0,1,4.41-1.69,23.78,23.78,0,0,1,5.88-.59h7.34v8.52a12.82,12.82,0,0,1-1.91,3,15,15,0,0,1-2.79,2.42,14.71,14.71,0,0,1-3.6,1.62,16.54,16.54,0,0,1-4.33.58,11,11,0,0,1-3.6-.58Zm50-35.41a7.93,7.93,0,0,0-1.25-.3,12.51,12.51,0,0,0-1.62-.15,11.13,11.13,0,0,0-6.61,1.84,13.27,13.27,0,0,0-4.33,5.07l-.08-6.17H262.5v38.79h4.26V124.16a18,18,0,0,1,1.47-3.52,10,10,0,0,1,2.27-2.72,9.33,9.33,0,0,1,3.09-1.84,11.24,11.24,0,0,1,4-.66,17,17,0,0,1,2.86.22Zm4.9,20.05a27.27,27.27,0,0,0,1,8,18.19,18.19,0,0,0,2.93,6.24,14.68,14.68,0,0,0,4.71,4,13.3,13.3,0,0,0,6.24,1.46,15.46,15.46,0,0,0,7.13-1.54,13.4,13.4,0,0,0,4.85-4.19v4.49a16.07,16.07,0,0,1-.74,5.21,9.94,9.94,0,0,1-2.28,3.82,9.08,9.08,0,0,1-3.6,2.5,14,14,0,0,1-4.85.81,12.72,12.72,0,0,1-5.8-1.32,16.93,16.93,0,0,1-5.07-4.27l-2.35,2.58a12.87,12.87,0,0,0,2.72,2.93,19.69,19.69,0,0,0,3.38,2.06,20.62,20.62,0,0,0,3.67,1.25,16.45,16.45,0,0,0,3.75.37,17.78,17.78,0,0,0,6.39-1.1A13.92,13.92,0,0,0,312.5,162a14.73,14.73,0,0,0,3.09-5.07,19.58,19.58,0,0,0,1.17-6.76V112h-4l-.22,5.58a14.21,14.21,0,0,0-4.92-4.63,15.42,15.42,0,0,0-13.44-.29,14.43,14.43,0,0,0-4.71,4,18.19,18.19,0,0,0-2.93,6.24,28,28,0,0,0-1,8.16Zm4.33-.73a28.77,28.77,0,0,1,.66-6.32,16,16,0,0,1,2.06-5.07,9.87,9.87,0,0,1,3.6-3.38,9.56,9.56,0,0,1,5.14-1.25,13.83,13.83,0,0,1,4.12.59,11.81,11.81,0,0,1,3.16,1.69,11.47,11.47,0,0,1,2.27,2.42,12.78,12.78,0,0,1,1.55,2.94v18a14,14,0,0,1-1.69,2.87,9.79,9.79,0,0,1-2.35,2.2,11.45,11.45,0,0,1-3.16,1.54,13.26,13.26,0,0,1-4,.52,10,10,0,0,1-5.07-1.25,9.87,9.87,0,0,1-3.6-3.38,16,16,0,0,1-2.06-5.07,28.32,28.32,0,0,1-.66-6.32ZM347.65,151a12.66,12.66,0,0,0,3.82-1.47,12.46,12.46,0,0,0,2.94-2.13,19.69,19.69,0,0,0,2.28-2.72l-2.72-2a12.71,12.71,0,0,1-4.77,4,13.56,13.56,0,0,1-6.1,1.25,12.37,12.37,0,0,1-5.44-1.17,13.16,13.16,0,0,1-4.19-3.31,14.84,14.84,0,0,1-2.71-4.85,17.92,17.92,0,0,1-1-6v-.81h27.7v-2.65a24.54,24.54,0,0,0-1-7.12,16,16,0,0,0-2.94-5.66,14.14,14.14,0,0,0-4.85-3.67,15.3,15.3,0,0,0-6.54-1.33,14.54,14.54,0,0,0-6.32,1.4,17.31,17.31,0,0,0-5.28,4,18.19,18.19,0,0,0-3.68,6.17,23.74,23.74,0,0,0-1.32,8.15v1.55a21.43,21.43,0,0,0,1.32,7.64,17.16,17.16,0,0,0,3.6,6,15.47,15.47,0,0,0,5.51,3.9,16.8,16.8,0,0,0,7,1.46,18.59,18.59,0,0,0,4.7-.58Zm-.73-35a11.73,11.73,0,0,1,3.45,2.79,13.07,13.07,0,0,1,2.06,4,17.46,17.46,0,0,1,.81,4.77v.45H330a19.85,19.85,0,0,1,1.39-5.37,13.7,13.7,0,0,1,2.57-4.11,13,13,0,0,1,3.68-2.72,11.64,11.64,0,0,1,4.55-.88,10.92,10.92,0,0,1,4.78,1Z"></path><path class="cls-3" d="M63.86,902.38H450.75M680.5,483.17v344.7"></path><path d="M777.24,657.67v21l-12.15-11.15c-5.63-5.28-10.56-7.86-14.67-7.86a10.51,10.51,0,0,0-8.1,3.35c-2.05,2.28-3.05,5.34-3.05,9.21,0,4.17,1.18,7.45,3.58,9.92a12.09,12.09,0,0,0,9.27,3.75V680.5a8.66,8.66,0,0,1-6.27-2.17,8.33,8.33,0,0,1-2.23-6.16,7,7,0,0,1,2.11-5.28,7.48,7.48,0,0,1,5.34-1.94,10.12,10.12,0,0,1,4.69,1.17,33.18,33.18,0,0,1,5.93,4.46L777.77,685h3.81V657.67Zm-37.38-32.58v28.17h4.34V630.72l37.38,17.2v-5.58l-38.73-17.25Z"></path><path d="M216.15,994.19l-2.87,5.81h3.58l2.11-4.28a14.91,14.91,0,0,0,5.46,1,14,14,0,0,0,7.33-1.93,13.7,13.7,0,0,0,5-5.64,18.5,18.5,0,0,0,1.76-8.15c0-6.11-1.88-10.68-5.57-13.62l2.93-5.87h-3.58l-2,4.29a14.07,14.07,0,0,0-5.87-1.24A13.24,13.24,0,0,0,212,972.18a18.39,18.39,0,0,0-1.76,8.16c0,6.4,2,11,5.87,13.85ZM218,972a7.61,7.61,0,0,1,6.34-3.11,7.74,7.74,0,0,1,3.81.94l-9.8,19.89c-1.88-2.17-2.76-5.05-2.76-8.74,0-3.88.77-6.87,2.41-9Zm15.14,8.8c0,3.52-.76,6.34-2.35,8.45a7.81,7.81,0,0,1-6.39,3.11,8.34,8.34,0,0,1-3.47-.7L230.71,972a13.35,13.35,0,0,1,2.46,8.39Zm18.91-3.76h4c2.81.06,5,.71,6.45,2a6.87,6.87,0,0,1,2.23,5.57,7.76,7.76,0,0,1-2,5.76,8.16,8.16,0,0,1-5.93,2,8.05,8.05,0,0,1-5.75-2,6.8,6.8,0,0,1-2.12-5.23h-5.34a10.53,10.53,0,0,0,3.7,8.39,15.71,15.71,0,0,0,19.07-.11,11.38,11.38,0,0,0,3.7-8.92,10.17,10.17,0,0,0-1.88-6.16,10.48,10.48,0,0,0-5.34-3.58,10.74,10.74,0,0,0,4.81-3.82,9.14,9.14,0,0,0,1.77-5.28c0-3.76-1.12-6.63-3.35-8.74s-5.34-3.11-9.27-3.11a13.34,13.34,0,0,0-9.22,3.28,10.66,10.66,0,0,0-3.63,8.22h5.34a6.77,6.77,0,0,1,2-5.17,7.6,7.6,0,0,1,5.52-2c4.87,0,7.33,2.46,7.33,7.33a6.73,6.73,0,0,1-2.17,5.23,8.89,8.89,0,0,1-5.92,2h-4Zm52.66,14.73H283.79l11.15-12.14c5.28-5.64,7.87-10.57,7.87-14.67a10.49,10.49,0,0,0-3.35-8.1c-2.29-2.06-5.34-3-9.21-3-4.17,0-7.46,1.17-9.92,3.58a12.07,12.07,0,0,0-3.76,9.27h5.34a8.69,8.69,0,0,1,2.18-6.28,8.32,8.32,0,0,1,6.16-2.23,7,7,0,0,1,5.28,2.11,7.48,7.48,0,0,1,1.94,5.34,10.2,10.2,0,0,1-1.18,4.7,32.7,32.7,0,0,1-4.46,5.92L277.4,992.31v3.82h27.34Z"></path><path class="cls-1" d="M264.26,572.21h10.65l194.25-86.59H59.36l194.26,86.59Zm-169-70.58H433.24M277.57,746.7H257.62V572.21h19.95Zm-13.31,70.84h172.3L274.24,746.7H257.61L95.3,817.54H267.59m-135,7.87H111.26v-7.87h21.28Zm55.21,0H166.47v-7.87h21.28Zm88.82,0H255.29v-7.87h21.28Zm87.82,0H343.1v-7.87h21.29Zm57.21,0H400.31v-7.87H421.6Z"></path><path class="cls-4" d="M264.26,572.21h10.65l194.25-86.59H59.36l194.26,86.59Zm-169-70.58H433.24M277.57,746.7H257.62V572.21h19.95Zm-13.31,70.84h172.3L274.24,746.7H257.61L95.3,817.54H267.59m-135,7.87H111.26v-7.87h21.28Zm55.21,0H166.47v-7.87h21.28Zm88.82,0H255.29v-7.87h21.28Zm87.82,0H343.1v-7.87h21.29Zm57.21,0H400.31v-7.87H421.6Zm15-7.87h10s29.93-22.3,58.54-22.3,36.59,8.52,43.24,11.15,24.62,7.22,40.59,3.94a211.42,211.42,0,0,1,28.6-3.94"></path></svg> 