<?xml version="1.0" encoding="UTF-8"?> <svg xmlns="http://www.w3.org/2000/svg" id="Livello_1" data-name="Livello 1" viewBox="0 0 831.12 1000.49"><defs><style>.cls-1{fill:#fff;}.cls-2{fill:#231f20;}.cls-3,.cls-4{fill:none;stroke-width:0.25px;}.cls-3{stroke:#000;}.cls-4{stroke:#231f20;stroke-linejoin:round;}</style></defs><title>Narciso terra</title><rect class="cls-1" y="0.49" width="831.12" height="1000"></rect><path class="cls-2" d="M295.37.4h-.67l-13,4.68v5l7.43-2.3V31.87h6.23ZM327,.44H304.76v5h15.6L308.21,31.87h6.58L327,3.93Zm19.11,0h-.66l-13,4.68v5l7.43-2.3V31.87h6.23Zm31.36,13a20.44,20.44,0,0,0-.79-6.1,10.94,10.94,0,0,0-2.17-4.16A8.11,8.11,0,0,0,371.1.8a11.29,11.29,0,0,0-4.33-.8,11.43,11.43,0,0,0-4.33.8,7.93,7.93,0,0,0-3.32,2.38A10.79,10.79,0,0,0,357,7.34a20.1,20.1,0,0,0-.8,6.1v5.43a20,20,0,0,0,.8,6.06,11.8,11.8,0,0,0,2.16,4.2,8.23,8.23,0,0,0,3.36,2.39,11.47,11.47,0,0,0,4.33.79,11.29,11.29,0,0,0,4.33-.79,8.1,8.1,0,0,0,3.36-2.39,11.81,11.81,0,0,0,2.17-4.2,21.85,21.85,0,0,0,.75-6.06Zm-6.23,6.27a16.2,16.2,0,0,1-.31,3.54,7,7,0,0,1-.84,2.34,3.19,3.19,0,0,1-1.37,1.29,4.61,4.61,0,0,1-3.71,0,3.19,3.19,0,0,1-1.37-1.29,6.73,6.73,0,0,1-.89-2.34,19.64,19.64,0,0,1-.26-3.54v-7.2A19.12,19.12,0,0,1,362.7,9a6.65,6.65,0,0,1,.84-2.3,3.68,3.68,0,0,1,1.37-1.28,4.32,4.32,0,0,1,1.86-.36,4,4,0,0,1,1.85.36A3.46,3.46,0,0,1,370,6.72a6.65,6.65,0,0,1,.84,2.3,15.78,15.78,0,0,1,.31,3.49ZM394,15.91H381.86v5H394ZM413.89.4h-.66l-13,4.68v5l7.43-2.3V31.87h6.23Zm31.36,13a20.42,20.42,0,0,0-.8-6.1,10.79,10.79,0,0,0-2.16-4.16A8.11,8.11,0,0,0,438.93.8,11.29,11.29,0,0,0,434.6,0a11.52,11.52,0,0,0-4.34.8A8,8,0,0,0,427,3.18a10.94,10.94,0,0,0-2.17,4.16,20.44,20.44,0,0,0-.79,6.1v5.43a20.34,20.34,0,0,0,.79,6.06,11.81,11.81,0,0,0,2.17,4.2,8.23,8.23,0,0,0,3.36,2.39,11.43,11.43,0,0,0,4.33.79,11.29,11.29,0,0,0,4.33-.79,8.23,8.23,0,0,0,3.36-2.39,11.81,11.81,0,0,0,2.17-4.2,22.23,22.23,0,0,0,.75-6.06ZM439,19.71a16.2,16.2,0,0,1-.31,3.54,7,7,0,0,1-.84,2.34,3.24,3.24,0,0,1-1.37,1.29,4.63,4.63,0,0,1-3.72,0,3.24,3.24,0,0,1-1.37-1.29,6.94,6.94,0,0,1-.88-2.34,19.54,19.54,0,0,1-.27-3.54v-7.2A19,19,0,0,1,430.53,9a6.65,6.65,0,0,1,.84-2.3,3.68,3.68,0,0,1,1.37-1.28,4.26,4.26,0,0,1,1.86-.36,4,4,0,0,1,1.85.36,3.46,3.46,0,0,1,1.42,1.28,6.65,6.65,0,0,1,.84,2.3,15.78,15.78,0,0,1,.31,3.49Z"></path><path class="cls-2" d="M326.06,90.75V69.53h5.57V67.41h-5.57V64.49a5.41,5.41,0,0,1,1.19-3.75,4.22,4.22,0,0,1,3.32-1.33c.48,0,.88,0,1.23,0a8.69,8.69,0,0,1,1.11.23l.18-2.17a10.17,10.17,0,0,0-2.74-.35,7.51,7.51,0,0,0-2.88.48,5.54,5.54,0,0,0-2.16,1.42,5.7,5.7,0,0,0-1.37,2.3,9.83,9.83,0,0,0-.49,3.13v2.92H319.6v2.12h3.85V90.75ZM339.13,57.6h-2.61V90.75h2.61Zm5.56,21.83a14.57,14.57,0,0,0,.75,4.73,11,11,0,0,0,2.12,3.72,9.68,9.68,0,0,0,3.27,2.43,10.9,10.9,0,0,0,8.58,0,10.25,10.25,0,0,0,3.31-2.43,11.63,11.63,0,0,0,2.08-3.72,14.57,14.57,0,0,0,.75-4.73v-.7A14.41,14.41,0,0,0,364.8,74a11.52,11.52,0,0,0-2.08-3.76,10.25,10.25,0,0,0-3.31-2.43,10.6,10.6,0,0,0-4.33-.88,9.92,9.92,0,0,0-7.56,3.31A11.52,11.52,0,0,0,345.44,74a14.41,14.41,0,0,0-.75,4.69Zm2.61-.7a12.52,12.52,0,0,1,.48-3.63,10.1,10.1,0,0,1,1.5-3A7.2,7.2,0,0,1,351.76,70a6.82,6.82,0,0,1,3.32-.79,7.16,7.16,0,0,1,3.4.79A7.07,7.07,0,0,1,361,72.05a9.89,9.89,0,0,1,1.51,3,12.55,12.55,0,0,1,.53,3.63v.7a12.57,12.57,0,0,1-.53,3.67A9.78,9.78,0,0,1,361,86.15a8,8,0,0,1-2.47,2.08,6.85,6.85,0,0,1-3.36.75,7,7,0,0,1-3.36-.75,8.2,8.2,0,0,1-2.48-2.08,10,10,0,0,1-1.5-3.05,12.57,12.57,0,0,1-.48-3.67Zm22.12.7a14.57,14.57,0,0,0,.75,4.73,10.84,10.84,0,0,0,2.12,3.72,9.59,9.59,0,0,0,3.27,2.43,10.9,10.9,0,0,0,8.58,0,10.25,10.25,0,0,0,3.31-2.43,11.63,11.63,0,0,0,2.08-3.72,14.57,14.57,0,0,0,.75-4.73v-.7a14.41,14.41,0,0,0-.75-4.69,11.52,11.52,0,0,0-2.08-3.76,10.25,10.25,0,0,0-3.31-2.43A10.64,10.64,0,0,0,379.8,67a10.34,10.34,0,0,0-4.24.88,10.15,10.15,0,0,0-3.31,2.43A11.34,11.34,0,0,0,370.17,74a14.41,14.41,0,0,0-.75,4.69Zm2.61-.7a12.52,12.52,0,0,1,.48-3.63,10.1,10.1,0,0,1,1.5-3A7.2,7.2,0,0,1,376.49,70a6.81,6.81,0,0,1,3.31-.79,7.18,7.18,0,0,1,3.41.79,7.07,7.07,0,0,1,2.47,2.08,9.89,9.89,0,0,1,1.51,3,12.55,12.55,0,0,1,.53,3.63v.7a12.57,12.57,0,0,1-.53,3.67,9.78,9.78,0,0,1-1.51,3.05,8,8,0,0,1-2.47,2.08,6.85,6.85,0,0,1-3.36.75,7,7,0,0,1-3.36-.75A8.2,8.2,0,0,1,374,86.15a10,10,0,0,1-1.5-3.05,12.57,12.57,0,0,1-.48-3.67Zm34.41-11.5a5,5,0,0,0-.76-.17,6.36,6.36,0,0,0-1-.09,6.72,6.72,0,0,0-4,1.1,8.09,8.09,0,0,0-2.6,3.05l-.05-3.71h-2.52V90.75h2.57v-16a11.68,11.68,0,0,1,.88-2.12A6,6,0,0,1,400.38,71a5.61,5.61,0,0,1,1.86-1.11,6.82,6.82,0,0,1,2.38-.4,10.36,10.36,0,0,1,1.73.14Z"></path><line class="cls-3" x1="275.99" y1="941.26" x2="449.32" y2="941.26"></line><path d="M337.9,996.5l-1.73,3.5h2.15l1.27-2.58a8.92,8.92,0,0,0,3.29.6,8.49,8.49,0,0,0,4.41-1.16,8.25,8.25,0,0,0,3-3.39,11.09,11.09,0,0,0,1.06-4.91c0-3.67-1.13-6.43-3.35-8.19l1.76-3.53h-2.15l-1.24,2.58a8.34,8.34,0,0,0-3.53-.75,7.94,7.94,0,0,0-7.41,4.59,11,11,0,0,0-1.06,4.91c0,3.85,1.2,6.6,3.53,8.33ZM339,983.16a4.57,4.57,0,0,1,3.81-1.87,4.72,4.72,0,0,1,2.3.56l-5.9,12a7.72,7.72,0,0,1-1.66-5.26,8.61,8.61,0,0,1,1.45-5.4Zm9.11,5.29a8.24,8.24,0,0,1-1.42,5.09,4.7,4.7,0,0,1-3.84,1.87,5.07,5.07,0,0,1-2.09-.42l5.86-11.87a8,8,0,0,1,1.49,5Zm11.38-2.26h2.4a6,6,0,0,1,3.88,1.2,4.15,4.15,0,0,1,1.34,3.36,4.64,4.64,0,0,1-1.2,3.46,5.73,5.73,0,0,1-7,0,4.07,4.07,0,0,1-1.27-3.14h-3.22a6.34,6.34,0,0,0,2.23,5,9.47,9.47,0,0,0,11.47-.07,6.88,6.88,0,0,0,2.23-5.37,6.19,6.19,0,0,0-1.13-3.71,6.33,6.33,0,0,0-3.22-2.15,6.47,6.47,0,0,0,2.9-2.3,5.56,5.56,0,0,0,1.06-3.18,6.86,6.86,0,0,0-2-5.26,9,9,0,0,0-11.13.11,6.44,6.44,0,0,0-2.19,4.94h3.22a4.06,4.06,0,0,1,1.2-3.1,4.52,4.52,0,0,1,3.32-1.2c2.93,0,4.41,1.48,4.41,4.41a4,4,0,0,1-1.31,3.14,5.29,5.29,0,0,1-3.56,1.2h-2.4Zm31.68,8.87H378.59l6.71-7.31c3.18-3.39,4.73-6.36,4.73-8.83a6.31,6.31,0,0,0-2-4.87,7.94,7.94,0,0,0-5.54-1.84,8.14,8.14,0,0,0-6,2.16,7.24,7.24,0,0,0-2.26,5.57h3.21a5.23,5.23,0,0,1,1.31-3.77,5,5,0,0,1,3.71-1.34,4.22,4.22,0,0,1,3.18,1.27,4.5,4.5,0,0,1,1.16,3.21,6,6,0,0,1-.71,2.82,19.28,19.28,0,0,1-2.68,3.57l-8.68,9.67v2.3H391.2Z"></path><line class="cls-3" x1="504.62" y1="195.51" x2="504.62" y2="893.42"></line><path d="M562.82,545.77v12.61l-7.31-6.71c-3.39-3.18-6.35-4.73-8.82-4.73a6.33,6.33,0,0,0-4.88,2,8,8,0,0,0-1.83,5.54,8.13,8.13,0,0,0,2.15,6,7.27,7.27,0,0,0,5.58,2.26v-3.21a5.25,5.25,0,0,1-3.78-1.31,5,5,0,0,1-1.34-3.71,4.22,4.22,0,0,1,1.27-3.18,4.52,4.52,0,0,1,3.21-1.16,6.09,6.09,0,0,1,2.83.71,19.28,19.28,0,0,1,3.57,2.68l9.67,8.69h2.3V545.77Zm-22.49-19.61v17h2.61V529.55l22.5,10.35v-3.35l-23.31-10.39Z"></path><path class="cls-1" d="M361.66,233.87h5.68L447.85,197H277.46L358,233.87h5.68M293.43,204.3H430.12M367,855.07H359.4v-620H367Zm-3.81,32.27h70L367,856H359.4l-66.22,31.31Zm-67.64,1.45H430.86M308.19,892h-8.34v-3.16h8.34Zm21.67,0h-8.33v-3.16h8.33Zm37.52,0H359v-3.16h8.34Zm36.45,0h-8.34v-3.16h8.34Zm22.86,0h-8.34v-3.16h8.34Z"></path><path class="cls-4" d="M361.66,233.87h5.68L447.85,197H277.46L358,233.87h5.68M293.43,204.3H430.12M367,855.07H359.4v-620H367Zm-3.81,32.27h70L367,856H359.4l-66.22,31.31Zm-67.64,1.45H430.86M308.19,892h-8.34v-3.16h8.34Zm21.67,0h-8.33v-3.16h8.33Zm37.52,0H359v-3.16h8.34Zm36.45,0h-8.34v-3.16h8.34Zm22.86,0h-8.34v-3.16h8.34Z"></path></svg> 