<?xml version="1.0" encoding="UTF-8"?> <svg xmlns="http://www.w3.org/2000/svg" id="Livello_1" data-name="Livello 1" viewBox="0 0 741.33 1000.49"><defs><style>.cls-1{fill:#fff;}.cls-2{fill:#231f20;}.cls-3,.cls-4,.cls-5{fill:none;stroke-width:0.25px;}.cls-3{stroke:#000;}.cls-4,.cls-5{stroke:#231f20;}.cls-5{stroke-dasharray:5 5;}</style></defs><title>NC Bon ton terra</title><rect class="cls-1" y="0.49" width="741.33" height="1000"></rect><path class="cls-2" d="M243.42,14.53a22.14,22.14,0,0,0-.86-6.59,11.78,11.78,0,0,0-2.35-4.5A8.8,8.8,0,0,0,236.58.86,12.29,12.29,0,0,0,231.89,0a12.42,12.42,0,0,0-4.68.86,8.74,8.74,0,0,0-3.59,2.58,11.91,11.91,0,0,0-2.34,4.5,22.14,22.14,0,0,0-.86,6.59v5.89a22.13,22.13,0,0,0,.86,6.55,12.79,12.79,0,0,0,2.34,4.54,8.89,8.89,0,0,0,3.64,2.58,13.19,13.19,0,0,0,9.37,0,8.86,8.86,0,0,0,3.63-2.58A12.63,12.63,0,0,0,242.6,27a23.64,23.64,0,0,0,.82-6.55Zm-6.74,6.79a17.42,17.42,0,0,1-.34,3.83,7.22,7.22,0,0,1-.91,2.53A3.45,3.45,0,0,1,234,29.07a4.38,4.38,0,0,1-2,.43,4.44,4.44,0,0,1-2-.43,3.45,3.45,0,0,1-1.48-1.39,7.2,7.2,0,0,1-.95-2.53,20.74,20.74,0,0,1-.29-3.83V13.53a20.24,20.24,0,0,1,.29-3.78,7.13,7.13,0,0,1,.9-2.48,4.09,4.09,0,0,1,1.49-1.39,4.63,4.63,0,0,1,2-.38,4.38,4.38,0,0,1,2,.38,3.9,3.9,0,0,1,1.53,1.39,6.93,6.93,0,0,1,.91,2.48,17,17,0,0,1,.34,3.78ZM271.26,29H256.63l6-6.31c1.15-1.19,2.2-2.29,3.11-3.39a24.44,24.44,0,0,0,2.39-3.21A15.42,15.42,0,0,0,269.59,13a9.62,9.62,0,0,0,.57-3.3,11.19,11.19,0,0,0-.71-4.07,8.21,8.21,0,0,0-2.15-3A9.68,9.68,0,0,0,263.85.67,16,16,0,0,0,259.07,0a12.57,12.57,0,0,0-4.92.91,10.65,10.65,0,0,0-3.68,2.39,10.31,10.31,0,0,0-2.39,3.54,12,12,0,0,0-.82,4.35h6.79a6.83,6.83,0,0,1,.34-2.3,5.39,5.39,0,0,1,.9-1.81,4.43,4.43,0,0,1,1.58-1.2A4.7,4.7,0,0,1,259,5.45a4.16,4.16,0,0,1,3.25,1.29,5.24,5.24,0,0,1,1.14,3.59,4.45,4.45,0,0,1-.23,1.53,9.08,9.08,0,0,1-.72,1.72A13.78,13.78,0,0,1,261,15.63a26.81,26.81,0,0,1-2.1,2.49l-11,11.71v4.64h23.33Zm27-14.49a22.14,22.14,0,0,0-.86-6.59,11.91,11.91,0,0,0-2.34-4.5A8.89,8.89,0,0,0,291.41.86,12.23,12.23,0,0,0,286.73,0,12.51,12.51,0,0,0,282,.86a8.71,8.71,0,0,0-3.58,2.58,11.78,11.78,0,0,0-2.35,4.5,22.14,22.14,0,0,0-.86,6.59v5.89a22.13,22.13,0,0,0,.86,6.55,12.8,12.8,0,0,0,2.35,4.54,8.8,8.8,0,0,0,3.63,2.58,12.43,12.43,0,0,0,4.69.86,12.27,12.27,0,0,0,4.68-.86,8.8,8.8,0,0,0,3.63-2.58A12.8,12.8,0,0,0,297.44,27a24.06,24.06,0,0,0,.81-6.55Zm-6.74,6.79a17.42,17.42,0,0,1-.34,3.83,7.43,7.43,0,0,1-.9,2.53,3.47,3.47,0,0,1-1.49,1.39,4.89,4.89,0,0,1-4,0,3.47,3.47,0,0,1-1.49-1.39,7.4,7.4,0,0,1-.95-2.53,21.65,21.65,0,0,1-.29-3.83V13.53a21.13,21.13,0,0,1,.29-3.78,6.93,6.93,0,0,1,.91-2.48,4.14,4.14,0,0,1,1.48-1.39,4.65,4.65,0,0,1,2-.38,4.43,4.43,0,0,1,2,.38,3.9,3.9,0,0,1,1.53,1.39,7.13,7.13,0,0,1,.9,2.48,17,17,0,0,1,.34,3.78ZM322.75.48h-6.84L301.76,22.85l.29,4.26h14v7.36h6.74V27.11h3.82V21.66h-3.82Zm-7.22,10,.48-.81v12h-7.56Zm28.09,6.74H330.47v5.4h13.15ZM365.11.43h-.71L350.34,5.5V11l8-2.49v26h6.74ZM399,14.53a22.14,22.14,0,0,0-.86-6.59,11.91,11.91,0,0,0-2.34-4.5A8.89,8.89,0,0,0,392.19.86,12.23,12.23,0,0,0,387.51,0a12.51,12.51,0,0,0-4.69.86,8.71,8.71,0,0,0-3.58,2.58,11.78,11.78,0,0,0-2.35,4.5,22.14,22.14,0,0,0-.86,6.59v5.89a22.13,22.13,0,0,0,.86,6.55,12.8,12.8,0,0,0,2.35,4.54,8.8,8.8,0,0,0,3.63,2.58,12.47,12.47,0,0,0,4.69.86,12.23,12.23,0,0,0,4.68-.86,8.89,8.89,0,0,0,3.64-2.58A13,13,0,0,0,398.22,27a24.06,24.06,0,0,0,.81-6.55Zm-6.74,6.79a17.42,17.42,0,0,1-.34,3.83,7.43,7.43,0,0,1-.9,2.53,3.47,3.47,0,0,1-1.49,1.39,4.89,4.89,0,0,1-4,0,3.39,3.39,0,0,1-1.48-1.39,7.39,7.39,0,0,1-1-2.53,21.65,21.65,0,0,1-.29-3.83V13.53a21.13,21.13,0,0,1,.29-3.78A7.12,7.12,0,0,1,384,7.27a4.14,4.14,0,0,1,1.48-1.39,4.65,4.65,0,0,1,2-.38,4.43,4.43,0,0,1,2,.38,3.9,3.9,0,0,1,1.53,1.39,7.13,7.13,0,0,1,.9,2.48,17,17,0,0,1,.34,3.78Z"></path><path class="cls-2" d="M239.4,98.16a14.44,14.44,0,0,0,4.44-.62,10,10,0,0,0,3.45-1.82,8.33,8.33,0,0,0,2.2-3,10.28,10.28,0,0,0,.81-4.11,9,9,0,0,0-.48-2.82,8.7,8.7,0,0,0-1.34-2.4,9.84,9.84,0,0,0-2-1.86,10,10,0,0,0-2.73-1.1,7,7,0,0,0,2.25-1.1,7,7,0,0,0,1.67-1.67,7.33,7.33,0,0,0,1.1-2.11,8.59,8.59,0,0,0,.34-2.48,9.13,9.13,0,0,0-.77-4,7,7,0,0,0-2.2-2.77,9.48,9.48,0,0,0-3.49-1.63,19.93,19.93,0,0,0-4.64-.53h-10v34Zm.24-16.35a10.55,10.55,0,0,1,3.44.52,8.65,8.65,0,0,1,2.44,1.44A6.21,6.21,0,0,1,247,86a8,8,0,0,1,.48,2.67,7.35,7.35,0,0,1-.57,3,7,7,0,0,1-1.58,2.25,8,8,0,0,1-2.54,1.38,10.29,10.29,0,0,1-3.34.48h-8.61V81.81ZM230.79,66.6H238c2.73,0,4.78.53,6.17,1.58A5.68,5.68,0,0,1,246.19,73a5.76,5.76,0,0,1-2,4.73,8.94,8.94,0,0,1-5.55,1.68h-7.84ZM255,85.92a15.78,15.78,0,0,0,.82,5.11,11.9,11.9,0,0,0,2.29,4,10.22,10.22,0,0,0,3.54,2.63,11.67,11.67,0,0,0,9.27,0,10.8,10.8,0,0,0,3.59-2.63,12.71,12.71,0,0,0,2.25-4,16.05,16.05,0,0,0,.81-5.11v-.77a15.79,15.79,0,0,0-.81-5.06A12.44,12.44,0,0,0,274.51,76a10.8,10.8,0,0,0-3.59-2.63,11.37,11.37,0,0,0-4.68-1,11.08,11.08,0,0,0-4.59,1A10.91,10.91,0,0,0,258.06,76a12.42,12.42,0,0,0-2.24,4.07,15.52,15.52,0,0,0-.82,5.06Zm2.82-.77a13.49,13.49,0,0,1,.53-3.92,10.61,10.61,0,0,1,1.63-3.3,7.49,7.49,0,0,1,2.67-2.24,7.3,7.3,0,0,1,3.59-.86,7.86,7.86,0,0,1,6.36,3.1,10.81,10.81,0,0,1,1.62,3.3,13.19,13.19,0,0,1,.58,3.92v.77a13.28,13.28,0,0,1-.58,4,10.81,10.81,0,0,1-1.62,3.3,8.84,8.84,0,0,1-2.68,2.24,7.34,7.34,0,0,1-3.63.82,7.48,7.48,0,0,1-3.64-.82A8.68,8.68,0,0,1,260,93.19a10.61,10.61,0,0,1-1.63-3.3,13.6,13.6,0,0,1-.53-4Zm25.46-12.24V98.16h2.77V80.85a11.3,11.3,0,0,1,1.1-2.2,8,8,0,0,1,1.58-2,8.49,8.49,0,0,1,2.15-1.34,7.21,7.21,0,0,1,2.73-.48,8.13,8.13,0,0,1,2.48.34,4.1,4.1,0,0,1,1.87,1.1,5.58,5.58,0,0,1,1.19,2.1,10.74,10.74,0,0,1,.43,3.3V98.16h2.78V81.71a13.6,13.6,0,0,0-.58-4.25,7.73,7.73,0,0,0-1.57-2.87A6,6,0,0,0,297.67,73a9.4,9.4,0,0,0-3.39-.52,9,9,0,0,0-2.58.33,10.3,10.3,0,0,0-2.25,1,9.51,9.51,0,0,0-1.91,1.53,9.65,9.65,0,0,0-1.49,2L286,72.91Z"></path><path class="cls-2" d="M343.92,64.16H317.77V66.6h11.66V98.16h2.87V66.6h11.62Zm1,21.76a15.78,15.78,0,0,0,.81,5.11,11.9,11.9,0,0,0,2.29,4,10.22,10.22,0,0,0,3.54,2.63,11.69,11.69,0,0,0,9.28,0,10.87,10.87,0,0,0,3.58-2.63,12.71,12.71,0,0,0,2.25-4,15.78,15.78,0,0,0,.81-5.11v-.77a15.52,15.52,0,0,0-.81-5.06A12.44,12.44,0,0,0,364.4,76a10.87,10.87,0,0,0-3.58-2.63,11.45,11.45,0,0,0-4.69-1,11.15,11.15,0,0,0-4.59,1A10.76,10.76,0,0,0,348,76a12.26,12.26,0,0,0-2.25,4.07,15.52,15.52,0,0,0-.81,5.06Zm2.82-.77a13.49,13.49,0,0,1,.52-3.92,10.61,10.61,0,0,1,1.63-3.3,7.52,7.52,0,0,1,2.68-2.24,7.27,7.27,0,0,1,3.58-.86,7.86,7.86,0,0,1,6.36,3.1,10.83,10.83,0,0,1,1.63,3.3,13.52,13.52,0,0,1,.57,3.92v.77a13.61,13.61,0,0,1-.57,4,10.83,10.83,0,0,1-1.63,3.3,8.84,8.84,0,0,1-2.68,2.24,7.31,7.31,0,0,1-3.63.82,7.44,7.44,0,0,1-3.63-.82,8.72,8.72,0,0,1-2.68-2.24,10.61,10.61,0,0,1-1.63-3.3,13.6,13.6,0,0,1-.52-4Z"></path><path class="cls-2" d="M373.16,72.91V98.16h2.78V80.85a10.28,10.28,0,0,1,1.1-2.2,7.74,7.74,0,0,1,1.58-2,8.32,8.32,0,0,1,2.15-1.34,7.16,7.16,0,0,1,2.72-.48,8.24,8.24,0,0,1,2.49.34,4,4,0,0,1,1.86,1.1,5.59,5.59,0,0,1,1.2,2.1,11.06,11.06,0,0,1,.43,3.3V98.16h2.77V81.71a13.92,13.92,0,0,0-.57-4.25,7.74,7.74,0,0,0-1.58-2.87A6,6,0,0,0,387.56,73a9.49,9.49,0,0,0-3.4-.52,9,9,0,0,0-2.58.33,10.3,10.3,0,0,0-2.25,1,9.8,9.8,0,0,0-1.91,1.53,10,10,0,0,0-1.48,2l-.1-4.31Z"></path><line class="cls-3" x1="508.95" y1="347.77" x2="508.95" y2="981.45"></line><path d="M571.41,676.2v.53l3.7,9.89h3.13l-2.56-7h23V676.2Zm14.85-15.14v-2.59a6.4,6.4,0,0,1,1.3-4.2,4.46,4.46,0,0,1,3.63-1.46,5,5,0,0,1,3.74,1.3,5.31,5.31,0,0,1,1.3,3.86,5.23,5.23,0,0,1-1.3,3.74,4.39,4.39,0,0,1-3.4,1.38v3.47a6.84,6.84,0,0,0,5.46-2.4,10.21,10.21,0,0,0-.07-12.42,7.42,7.42,0,0,0-5.81-2.4,6.69,6.69,0,0,0-4,1.22,6.89,6.89,0,0,0-2.33,3.48,7,7,0,0,0-2.48-3.14,6,6,0,0,0-3.44-1.14,7.41,7.41,0,0,0-5.69,2.18,9.74,9.74,0,0,0,.12,12,6.92,6.92,0,0,0,5.34,2.36v-3.47a4.4,4.4,0,0,1-3.36-1.3A4.94,4.94,0,0,1,574,658c0-3.17,1.61-4.77,4.78-4.77a4.36,4.36,0,0,1,3.4,1.41,5.79,5.79,0,0,1,1.3,3.86v2.59Zm-3.63-33.5c-3.93,0-6.79.76-8.67,2.14s-2.82,3.51-2.82,6.45,1,5.12,2.9,6.49,4.93,2.07,8.9,2.07h4.62c3.82,0,6.68-.77,8.63-2.18s2.87-3.51,2.87-6.42-1-5.11-2.95-6.49-5-2.06-9-2.06ZM588,631a12.53,12.53,0,0,1,6.22,1.29,4.63,4.63,0,0,1-.11,7.68,12.91,12.91,0,0,1-6.49,1.3H582.1A12.71,12.71,0,0,1,576,640a4.15,4.15,0,0,1-2-3.86,4.2,4.2,0,0,1,2-3.89c1.34-.84,3.44-1.26,6.38-1.26Z"></path><rect class="cls-1" x="307.14" y="317.17" width="10.46" height="24.84"></rect><rect class="cls-4" x="307.14" y="317.17" width="10.46" height="24.84"></rect><path class="cls-1" d="M376.7,993.85H250v-3.28H376.7Zm-4.07,6.15H254.07v-6.15H372.63ZM314,350h13.19s-3.87,2.46-3.16,16.39l30.24,385.25,5.41,108.74s7,107.65-39,126.23H306c-46-18.58-39-126.23-39-126.23l5.41-108.74L302.7,366.39c.73-13.93-3.15-16.39-3.15-16.39H314Zm-3.72-6.15V350m5.82-6.15V350m-5.55,636.61v4m4.87-4v4.51"></path><path class="cls-4" d="M376.7,993.85H250v-3.28H376.7Zm-4.07,6.15H254.07v-6.15H372.63ZM314,350h13.19s-3.87,2.46-3.16,16.39l30.24,385.25,5.41,108.74s7,107.65-39,126.23H306c-46-18.58-39-126.23-39-126.23l5.41-108.74L302.7,366.39c.73-13.93-3.15-16.39-3.15-16.39H314Zm-3.72-6.15V350m5.82-6.15V350m-5.55,636.61v4m4.87-4v4.51"></path><line class="cls-5" x1="184.17" y1="195.64" x2="175.29" y2="309.87"></line><line class="cls-5" x1="184.17" y1="316.44" x2="443.73" y2="316.44"></line><line class="cls-5" x1="449.03" y1="306.59" x2="437.9" y2="191.85"></line><line class="cls-5" x1="427.8" y1="185.29" x2="191.24" y2="185.29"></line><path class="cls-5" d="M184.93,185.89l-.25,3.28m-9.64,124-.25,3.28h3.12m268.94,0H450l-.32-3.28M437.58,188.57l-.32-3.28h-3.15m-246,0h-3.16"></path></svg> 