<?xml version="1.0" encoding="UTF-8"?> <svg xmlns="http://www.w3.org/2000/svg" id="Livello_1" data-name="Livello 1" viewBox="0 0 741.33 1000.49"><defs><style>.cls-1,.cls-6{fill:#fff;}.cls-2{fill:#231f20;}.cls-3,.cls-4,.cls-5,.cls-7{fill:none;}.cls-3,.cls-5{stroke:#000;}.cls-3,.cls-4,.cls-5,.cls-6,.cls-7{stroke-width:0.25px;}.cls-4,.cls-6,.cls-7{stroke:#231f20;}.cls-4,.cls-5,.cls-6{stroke-miterlimit:10;}.cls-7{stroke-dasharray:5 5;}</style></defs><title>NC Bon ton tavolo</title><rect class="cls-1" y="0.49" width="741.33" height="1000"></rect><path class="cls-2" d="M216.22,18.22A27.7,27.7,0,0,0,215.14,10a14.73,14.73,0,0,0-2.94-5.63,11,11,0,0,0-4.55-3.24A15.32,15.32,0,0,0,201.77,0a15.49,15.49,0,0,0-5.87,1.08,10.83,10.83,0,0,0-4.5,3.24A14.73,14.73,0,0,0,188.46,10a27.7,27.7,0,0,0-1.08,8.27V25.6a27.51,27.51,0,0,0,1.08,8.21,16,16,0,0,0,2.94,5.7A11.08,11.08,0,0,0,196,42.74a15.49,15.49,0,0,0,5.87,1.08,15.32,15.32,0,0,0,5.88-1.08,11,11,0,0,0,4.55-3.23,16,16,0,0,0,2.94-5.7,29.77,29.77,0,0,0,1-8.21Zm-8.45,8.52a21.83,21.83,0,0,1-.42,4.79,9.31,9.31,0,0,1-1.14,3.18,4.29,4.29,0,0,1-1.86,1.74,6.15,6.15,0,0,1-5,0,4.22,4.22,0,0,1-1.85-1.74,9.27,9.27,0,0,1-1.2-3.18,26.89,26.89,0,0,1-.36-4.79V17a26.29,26.29,0,0,1,.36-4.74,9,9,0,0,1,1.14-3.12,5,5,0,0,1,1.85-1.74,5.9,5.9,0,0,1,2.52-.48,5.57,5.57,0,0,1,2.52.48,4.82,4.82,0,0,1,1.92,1.74,9,9,0,0,1,1.14,3.12,21.35,21.35,0,0,1,.42,4.74Zm43.36,9.65H232.79l7.49-7.91c1.44-1.5,2.76-2.88,3.9-4.26a29.09,29.09,0,0,0,3-4A19.81,19.81,0,0,0,249,16.25a12,12,0,0,0,.72-4.14,14,14,0,0,0-.9-5.1,10.19,10.19,0,0,0-2.7-3.77,12.05,12.05,0,0,0-4.32-2.4,20.05,20.05,0,0,0-6-.84,15.75,15.75,0,0,0-6.18,1.14,13.63,13.63,0,0,0-4.61,3,13.17,13.17,0,0,0-3,4.43A15.21,15.21,0,0,0,221,14h8.51a8.56,8.56,0,0,1,.42-2.88,6.78,6.78,0,0,1,1.14-2.28,5.43,5.43,0,0,1,2-1.5,5.92,5.92,0,0,1,2.64-.54,5.17,5.17,0,0,1,4.07,1.62,6.54,6.54,0,0,1,1.44,4.5,5.56,5.56,0,0,1-.3,1.92A10.4,10.4,0,0,1,240,17a18.1,18.1,0,0,1-1.73,2.57,35,35,0,0,1-2.64,3.12L221.88,37.41v5.81h29.25ZM285,18.22A27.7,27.7,0,0,0,283.89,10,14.73,14.73,0,0,0,281,4.32a10.92,10.92,0,0,0-4.55-3.24A15.32,15.32,0,0,0,270.52,0a15.53,15.53,0,0,0-5.87,1.08,10.83,10.83,0,0,0-4.5,3.24A14.59,14.59,0,0,0,257.22,10a27.7,27.7,0,0,0-1.08,8.27V25.6a27.51,27.51,0,0,0,1.08,8.21,15.79,15.79,0,0,0,2.93,5.7,11.08,11.08,0,0,0,4.56,3.23,15.53,15.53,0,0,0,5.87,1.08,15.32,15.32,0,0,0,5.88-1.08A11,11,0,0,0,281,39.51a16,16,0,0,0,2.94-5.7,29.77,29.77,0,0,0,1-8.21Zm-8.45,8.52a21.83,21.83,0,0,1-.42,4.79A9.31,9.31,0,0,1,275,34.71a4.29,4.29,0,0,1-1.86,1.74,6.13,6.13,0,0,1-5,0,4.29,4.29,0,0,1-1.86-1.74,9.27,9.27,0,0,1-1.2-3.18,26.89,26.89,0,0,1-.36-4.79V17a26.29,26.29,0,0,1,.36-4.74,9,9,0,0,1,1.14-3.12A5.1,5.1,0,0,1,268,7.37a5.86,5.86,0,0,1,2.51-.48,5.57,5.57,0,0,1,2.52.48A4.82,4.82,0,0,1,275,9.11a9,9,0,0,1,1.14,3.12,21.35,21.35,0,0,1,.42,4.74ZM315.69.6h-8.57L289.37,28.66l.36,5.33h17.51v9.23h8.45V34h4.8V27.16h-4.8Zm-9.05,12.53.6-1V27.16h-9.47Zm35.21,8.45H325.37v6.78h16.48ZM377,18.22A27.7,27.7,0,0,0,375.88,10a14.73,14.73,0,0,0-2.94-5.63,11,11,0,0,0-4.55-3.24A15.32,15.32,0,0,0,362.51,0a15.49,15.49,0,0,0-5.87,1.08,10.83,10.83,0,0,0-4.5,3.24A14.73,14.73,0,0,0,349.2,10a27.7,27.7,0,0,0-1.08,8.27V25.6a27.51,27.51,0,0,0,1.08,8.21,16,16,0,0,0,2.94,5.7,11.08,11.08,0,0,0,4.56,3.23,15.49,15.49,0,0,0,5.87,1.08,15.32,15.32,0,0,0,5.88-1.08A11,11,0,0,0,373,39.51a16,16,0,0,0,2.94-5.7,29.77,29.77,0,0,0,1-8.21Zm-8.45,8.52a21.83,21.83,0,0,1-.42,4.79A9.31,9.31,0,0,1,367,34.71a4.29,4.29,0,0,1-1.86,1.74,6.15,6.15,0,0,1-5,0,4.32,4.32,0,0,1-1.85-1.74,9.27,9.27,0,0,1-1.2-3.18,26.89,26.89,0,0,1-.36-4.79V17a26.29,26.29,0,0,1,.36-4.74,9,9,0,0,1,1.14-3.12A5.16,5.16,0,0,1,360,7.37a5.9,5.9,0,0,1,2.52-.48,5.57,5.57,0,0,1,2.52.48A4.82,4.82,0,0,1,367,9.11a9,9,0,0,1,1.14,3.12,21.35,21.35,0,0,1,.42,4.74Zm42.83-8.52A27.7,27.7,0,0,0,410.26,10a14.73,14.73,0,0,0-2.94-5.63,11,11,0,0,0-4.56-3.24A15.24,15.24,0,0,0,396.89,0,15.54,15.54,0,0,0,391,1.08a10.86,10.86,0,0,0-4.49,3.24A14.73,14.73,0,0,0,383.58,10a27.7,27.7,0,0,0-1.08,8.27V25.6a27.51,27.51,0,0,0,1.08,8.21,16,16,0,0,0,2.94,5.7,11.11,11.11,0,0,0,4.55,3.23A15.54,15.54,0,0,0,397,43.82a15.24,15.24,0,0,0,5.87-1.08,11.08,11.08,0,0,0,4.56-3.23,16,16,0,0,0,2.94-5.7,29.77,29.77,0,0,0,1-8.21Zm-8.46,8.52a21.83,21.83,0,0,1-.42,4.79,9.31,9.31,0,0,1-1.14,3.18,4.22,4.22,0,0,1-1.85,1.74,6.15,6.15,0,0,1-5,0,4.29,4.29,0,0,1-1.86-1.74,9.27,9.27,0,0,1-1.2-3.18,26.89,26.89,0,0,1-.36-4.79V17a26.29,26.29,0,0,1,.36-4.74,9,9,0,0,1,1.14-3.12,5.1,5.1,0,0,1,1.86-1.74,5.9,5.9,0,0,1,2.52-.48,5.57,5.57,0,0,1,2.52.48,4.73,4.73,0,0,1,1.91,1.74,9,9,0,0,1,1.14,3.12,21.35,21.35,0,0,1,.42,4.74Z"></path><path class="cls-2" d="M211.18,123.08a18.07,18.07,0,0,0,5.57-.78,12.37,12.37,0,0,0,4.32-2.28,10.29,10.29,0,0,0,2.76-3.78,12.75,12.75,0,0,0,1-5.15,11.53,11.53,0,0,0-.6-3.54,11.33,11.33,0,0,0-1.68-3,10.13,10.13,0,0,0-6-3.71,8.83,8.83,0,0,0,2.82-1.38,8.72,8.72,0,0,0,2.1-2.1,9.26,9.26,0,0,0,1.38-2.64,10.88,10.88,0,0,0,.42-3.12,11.48,11.48,0,0,0-1-5,8.81,8.81,0,0,0-2.76-3.48,11.86,11.86,0,0,0-4.37-2,24.64,24.64,0,0,0-5.82-.66H196.79v42.63Zm.3-20.51a13.08,13.08,0,0,1,4.32.66,10.93,10.93,0,0,1,3,1.8,7.86,7.86,0,0,1,1.8,2.76,10.13,10.13,0,0,1,.6,3.36,9.1,9.1,0,0,1-.72,3.71,8.56,8.56,0,0,1-2,2.82,10.17,10.17,0,0,1-3.17,1.74,13.16,13.16,0,0,1-4.2.6H200.39V102.57ZM200.39,83.51h9q5.13,0,7.73,2c1.68,1.26,2.58,3.3,2.58,6.05a7.25,7.25,0,0,1-2.52,5.94,11.12,11.12,0,0,1-6.95,2.1h-9.83Zm30.36,24.22a19.9,19.9,0,0,0,1,6.41,14.75,14.75,0,0,0,2.87,5,12.84,12.84,0,0,0,4.44,3.3,14.69,14.69,0,0,0,11.63,0,13.52,13.52,0,0,0,4.49-3.3,15.88,15.88,0,0,0,2.82-5,19.9,19.9,0,0,0,1-6.41v-1a19.53,19.53,0,0,0-1-6.35,15.55,15.55,0,0,0-2.82-5.1,13.52,13.52,0,0,0-4.49-3.3,14.3,14.3,0,0,0-5.88-1.2,13.92,13.92,0,0,0-5.75,1.2,13.66,13.66,0,0,0-4.5,3.3,15.35,15.35,0,0,0-2.81,5.1,19.53,19.53,0,0,0-1,6.35Zm3.53-1a16.8,16.8,0,0,1,.66-4.92,13.4,13.4,0,0,1,2-4.13,9.51,9.51,0,0,1,3.36-2.82,9.23,9.23,0,0,1,4.49-1.08,9.72,9.72,0,0,1,4.62,1.08,9.51,9.51,0,0,1,3.36,2.82,13.4,13.4,0,0,1,2,4.13,17.17,17.17,0,0,1,.71,4.92v1a17.28,17.28,0,0,1-.71,5,13.4,13.4,0,0,1-2,4.13,11,11,0,0,1-3.36,2.82,9.3,9.3,0,0,1-4.56,1,9.44,9.44,0,0,1-4.55-1,11,11,0,0,1-3.36-2.82,13.4,13.4,0,0,1-2-4.13,16.93,16.93,0,0,1-.66-5ZM266.2,91.42v31.66h3.48V101.37a13.36,13.36,0,0,1,1.38-2.75,9.91,9.91,0,0,1,2-2.46,10.36,10.36,0,0,1,2.69-1.68,8.9,8.9,0,0,1,3.42-.6,10.33,10.33,0,0,1,3.12.42,5.18,5.18,0,0,1,2.34,1.38,7.08,7.08,0,0,1,1.5,2.64,13.59,13.59,0,0,1,.53,4.13v20.63h3.48V102.45a17.4,17.4,0,0,0-.72-5.33,9.85,9.85,0,0,0-2-3.6,7.36,7.36,0,0,0-3.17-2,11.77,11.77,0,0,0-4.26-.66,11.42,11.42,0,0,0-3.24.42,12.78,12.78,0,0,0-2.81,1.2,12.49,12.49,0,0,0-2.4,1.92,12.62,12.62,0,0,0-1.86,2.46l-.12-5.4Z"></path><path class="cls-2" d="M342.23,80.45H309.44v3.06h14.63v39.57h3.6V83.51h14.56Zm1.23,27.28a19.9,19.9,0,0,0,1,6.41,14.94,14.94,0,0,0,2.88,5,12.71,12.71,0,0,0,4.43,3.3,14.69,14.69,0,0,0,11.63,0,13.66,13.66,0,0,0,4.5-3.3,15.67,15.67,0,0,0,2.81-5,19.9,19.9,0,0,0,1-6.41v-1a19.53,19.53,0,0,0-1-6.35,15.35,15.35,0,0,0-2.81-5.1,13.66,13.66,0,0,0-4.5-3.3,14.28,14.28,0,0,0-5.87-1.2,13.93,13.93,0,0,0-5.76,1.2,13.52,13.52,0,0,0-4.49,3.3,15.55,15.55,0,0,0-2.82,5.1,19.53,19.53,0,0,0-1,6.35Zm3.54-1a17.13,17.13,0,0,1,.65-4.92,13.4,13.4,0,0,1,2-4.13,9.51,9.51,0,0,1,3.36-2.82,9.24,9.24,0,0,1,4.5-1.08,9.71,9.71,0,0,1,4.61,1.08,9.51,9.51,0,0,1,3.36,2.82,13.4,13.4,0,0,1,2,4.13,16.83,16.83,0,0,1,.72,4.92v1a16.94,16.94,0,0,1-.72,5,13.4,13.4,0,0,1-2,4.13,11,11,0,0,1-3.36,2.82,9.28,9.28,0,0,1-4.55,1,9.45,9.45,0,0,1-4.56-1,11,11,0,0,1-3.36-2.82,13.4,13.4,0,0,1-2-4.13,17.27,17.27,0,0,1-.65-5Z"></path><path class="cls-2" d="M378.9,91.42v31.66h3.48V101.37a13.36,13.36,0,0,1,1.38-2.75,9.91,9.91,0,0,1,2-2.46,10.26,10.26,0,0,1,2.7-1.68,8.82,8.82,0,0,1,3.41-.6,10.33,10.33,0,0,1,3.12.42,5.18,5.18,0,0,1,2.34,1.38,7.08,7.08,0,0,1,1.5,2.64,13.57,13.57,0,0,1,.54,4.13v20.63h3.47V102.45a17.4,17.4,0,0,0-.72-5.33,10,10,0,0,0-2-3.6,7.45,7.45,0,0,0-3.18-2,11.77,11.77,0,0,0-4.26-.66,11.42,11.42,0,0,0-3.24.42,13,13,0,0,0-2.81,1.2,12.49,12.49,0,0,0-2.4,1.92,12.62,12.62,0,0,0-1.86,2.46l-.12-5.4Z"></path><line class="cls-3" x1="560.73" y1="484.99" x2="560.73" y2="999.99"></line><path d="M651.39,770.51l-.91-1.14a7.19,7.19,0,0,1-1.24-4.46,6.27,6.27,0,0,1,2-4.93,7.9,7.9,0,0,1,5.51-1.87,8.55,8.55,0,0,1,5.65,1.73,5.8,5.8,0,0,1,2.06,4.74A6.45,6.45,0,0,1,663,769a6.87,6.87,0,0,1-4.41,2.06v4.12a10,10,0,0,0,6.94-3.26,10.72,10.72,0,0,0,2.49-7.37c0-3.4-1-6-3-8a11.73,11.73,0,0,0-8.29-2.83,12.13,12.13,0,0,0-8.33,2.73,9.37,9.37,0,0,0-3.06,7.38,10.78,10.78,0,0,0,1.48,5.69l-9.29-1V754.81h-4v17.43l17,1.72Zm-17.86-37.65c.09,5.27,1.77,9.24,5.07,11.93s8.1,4,14.37,4h1.68a15.1,15.1,0,0,0,9.67-3.07,9.66,9.66,0,0,0,3.73-7.9,9.87,9.87,0,0,0-3.16-7.71,12,12,0,0,0-8.42-2.87,12.15,12.15,0,0,0-8.1,2.68,8.87,8.87,0,0,0-3.11,7.09,9.13,9.13,0,0,0,3.07,7.32,12.28,12.28,0,0,1-8.15-3.44,11.44,11.44,0,0,1-3-8v-.81h-3.69Zm17.57.38a8.75,8.75,0,0,1,5.61-1.67,8.56,8.56,0,0,1,5.6,1.67,5.5,5.5,0,0,1,2.15,4.6,5.66,5.66,0,0,1-2.54,4.69,10.9,10.9,0,0,1-6.75,1.92h-1.58a6.67,6.67,0,0,1-3.3-2.59,6.91,6.91,0,0,1-1.34-4.11,5.5,5.5,0,0,1,2.15-4.51Z"></path><path class="cls-1" d="M332.89,928.84H270.84v-6.06h62.05Zm-23.3,45.21H296.18V928.84h13.41Z"></path><path class="cls-4" d="M332.89,928.84H270.84v-6.06h62.05Zm-23.3,45.21H296.18V928.84h13.41Z"></path><rect class="cls-1" x="296.57" y="450.95" width="9.97" height="26.73"></rect><rect class="cls-4" x="296.57" y="450.95" width="9.97" height="26.73"></rect><rect class="cls-4" x="266.85" y="479.88" width="67.03" height="7.18"></rect><rect class="cls-5" x="266.85" y="479.88" width="67.04" height="7.18"></rect><rect class="cls-6" x="205.8" y="974.13" width="195.81" height="9.54"></rect><rect class="cls-6" x="214.06" y="983.68" width="179.29" height="11.32"></rect><path class="cls-6" d="M321.35,488.07s-10.77,16.1-1.33,34S364.25,692,364.25,692s47.19,196.74-58.39,230.72h-6.48C193.81,888.71,241,692,241,692s34.79-152,44.23-169.92-1.25-34-1.25-34"></path><rect class="cls-4" x="205.8" y="974.13" width="195.81" height="9.54"></rect><rect class="cls-4" x="214.06" y="983.68" width="179.29" height="11.32"></rect><path class="cls-4" d="M321.35,488.07s-10.77,16.1-1.33,34S364.25,692,364.25,692s47.19,196.74-58.39,230.72h-6.48C193.81,888.71,241,692,241,692s34.79-152,44.23-169.92-1.25-34-1.25-34"></path><line class="cls-7" x1="108.69" y1="304.12" x2="108.69" y2="441.74"></line><line class="cls-7" x1="120.89" y1="449.6" x2="490.84" y2="449.6"></line><line class="cls-7" x1="498.97" y1="437.87" x2="498.97" y2="300.25"></line><line class="cls-7" x1="486.78" y1="292.4" x2="116.83" y2="292.4"></line><path class="cls-7" d="M108.69,445.74v3.86h4.07m382.15,0H499v-3.86m0-149.48V292.4h-4.06m-382.15,0h-4.07v3.86"></path></svg> 