<?xml version="1.0" encoding="UTF-8"?> <svg xmlns="http://www.w3.org/2000/svg" id="Livello_1" data-name="Livello 1" viewBox="0 0 741.33 1000.49"><defs><style>.cls-1{fill:#fff;}.cls-2{fill:#231f20;}.cls-3,.cls-4,.cls-5,.cls-6{fill:none;stroke-width:0.25px;}.cls-3,.cls-5{stroke:#000;}.cls-4,.cls-6{stroke:#231f20;}.cls-4,.cls-5,.cls-6{stroke-miterlimit:10;}.cls-6{stroke-dasharray:5 5;}</style></defs><title>NC Desir tavolo</title><rect class="cls-1" y="0.49" width="741.33" height="1000"></rect><path class="cls-2" d="M229.18,18.22A28.05,28.05,0,0,0,228.11,10a14.73,14.73,0,0,0-2.94-5.63,11,11,0,0,0-4.56-3.24A15.27,15.27,0,0,0,214.74,0a15.54,15.54,0,0,0-5.88,1.08,10.74,10.74,0,0,0-4.49,3.24A14.73,14.73,0,0,0,201.43,10a27.7,27.7,0,0,0-1.08,8.27V25.6a27.51,27.51,0,0,0,1.08,8.21,16,16,0,0,0,2.94,5.7,11,11,0,0,0,4.55,3.23,15.54,15.54,0,0,0,5.88,1.08,15.27,15.27,0,0,0,5.87-1.08,11.08,11.08,0,0,0,4.56-3.23,16,16,0,0,0,2.94-5.7,30.19,30.19,0,0,0,1-8.21Zm-8.45,8.52a21.83,21.83,0,0,1-.42,4.79,9.31,9.31,0,0,1-1.14,3.18,4.29,4.29,0,0,1-1.86,1.74,5.49,5.49,0,0,1-2.51.54,5.57,5.57,0,0,1-2.52-.54,4.29,4.29,0,0,1-1.86-1.74,9.27,9.27,0,0,1-1.2-3.18,26.89,26.89,0,0,1-.36-4.79V17a26.29,26.29,0,0,1,.36-4.74,9,9,0,0,1,1.14-3.12,5.1,5.1,0,0,1,1.86-1.74,5.9,5.9,0,0,1,2.52-.48,5.5,5.5,0,0,1,2.51.48,4.82,4.82,0,0,1,1.92,1.74,9,9,0,0,1,1.14,3.12,21.35,21.35,0,0,1,.42,4.74Zm43.37,9.65H245.76l7.49-7.91c1.44-1.5,2.76-2.88,3.9-4.26a29,29,0,0,0,3-4A19.81,19.81,0,0,0,262,16.25a12,12,0,0,0,.72-4.14,14,14,0,0,0-.9-5.1,10.19,10.19,0,0,0-2.7-3.77,11.92,11.92,0,0,0-4.31-2.4,20.12,20.12,0,0,0-6-.84,15.74,15.74,0,0,0-6.17,1.14,13.67,13.67,0,0,0-4.62,3,13,13,0,0,0-3,4.43A15.21,15.21,0,0,0,234,14h8.51a8.56,8.56,0,0,1,.42-2.88,6.78,6.78,0,0,1,1.14-2.28,5.43,5.43,0,0,1,2-1.5,5.87,5.87,0,0,1,2.63-.54,5.2,5.2,0,0,1,4.08,1.62,6.54,6.54,0,0,1,1.44,4.5,5.56,5.56,0,0,1-.3,1.92A10.4,10.4,0,0,1,253,17a18.24,18.24,0,0,1-1.74,2.57,35,35,0,0,1-2.64,3.12L234.85,37.41v5.81H264.1Zm33.84-18.17A27.7,27.7,0,0,0,296.86,10a14.73,14.73,0,0,0-2.94-5.63,11,11,0,0,0-4.56-3.24A15.24,15.24,0,0,0,283.49,0a15.54,15.54,0,0,0-5.88,1.08,10.86,10.86,0,0,0-4.49,3.24A14.73,14.73,0,0,0,270.18,10a27.7,27.7,0,0,0-1.08,8.27V25.6a27.51,27.51,0,0,0,1.08,8.21,16,16,0,0,0,2.94,5.7,11.11,11.11,0,0,0,4.55,3.23,15.54,15.54,0,0,0,5.88,1.08,15.24,15.24,0,0,0,5.87-1.08A11.08,11.08,0,0,0,294,39.51a16,16,0,0,0,2.94-5.7,29.77,29.77,0,0,0,1-8.21Zm-8.46,8.52a21.83,21.83,0,0,1-.42,4.79,9.32,9.32,0,0,1-1.13,3.18,4.29,4.29,0,0,1-1.86,1.74,6.15,6.15,0,0,1-5,0,4.29,4.29,0,0,1-1.86-1.74,9.27,9.27,0,0,1-1.2-3.18,26.89,26.89,0,0,1-.36-4.79V17a26.29,26.29,0,0,1,.36-4.74,9,9,0,0,1,1.14-3.12A5.1,5.1,0,0,1,281,7.37a5.9,5.9,0,0,1,2.52-.48,5.57,5.57,0,0,1,2.52.48,4.82,4.82,0,0,1,1.92,1.74,9,9,0,0,1,1.13,3.12,21.35,21.35,0,0,1,.42,4.74Zm22.15-2.82c.3-.3.6-.54,1-.84a5.44,5.44,0,0,1,1.14-.78,9.58,9.58,0,0,1,1.56-.48,7.05,7.05,0,0,1,2-.24,8.17,8.17,0,0,1,3.05.54,5.51,5.51,0,0,1,2.1,1.56A5.21,5.21,0,0,1,323.74,26a10.18,10.18,0,0,1,.42,3.05,16.69,16.69,0,0,1-.3,3.12,8,8,0,0,1-1.08,2.52,5,5,0,0,1-1.86,1.68,5.43,5.43,0,0,1-2.69.6,5.82,5.82,0,0,1-4.2-1.5,6.09,6.09,0,0,1-1.86-4.14h-8.39a12.47,12.47,0,0,0,1.32,5.28,12.1,12.1,0,0,0,3.23,3.9A13.54,13.54,0,0,0,312.89,43a17.75,17.75,0,0,0,5.34.84,15.81,15.81,0,0,0,6.35-1.2A12.53,12.53,0,0,0,331.77,35a17.55,17.55,0,0,0,.84-5.4,21.11,21.11,0,0,0-.84-6.05A12.94,12.94,0,0,0,329.2,19a11,11,0,0,0-4.08-2.81,14.39,14.39,0,0,0-5.52-1c-.66,0-1.37.06-2,.12a16.9,16.9,0,0,0-1.86.42q-.81.27-1.44.54a4.47,4.47,0,0,0-1.08.54l1-9.18h17V.6H307.31l-2.45,21.64Zm43.19-2.34H338.33v6.78h16.49Zm35.11-3.36A27.7,27.7,0,0,0,388.85,10a14.73,14.73,0,0,0-2.94-5.63,11,11,0,0,0-4.56-3.24A15.27,15.27,0,0,0,375.48,0a15.54,15.54,0,0,0-5.88,1.08,10.8,10.8,0,0,0-4.49,3.24A14.73,14.73,0,0,0,362.17,10a27.7,27.7,0,0,0-1.08,8.27V25.6a27.51,27.51,0,0,0,1.08,8.21,16,16,0,0,0,2.94,5.7,11,11,0,0,0,4.55,3.23,15.54,15.54,0,0,0,5.88,1.08,15.27,15.27,0,0,0,5.87-1.08A11.08,11.08,0,0,0,386,39.51a16,16,0,0,0,2.94-5.7,29.77,29.77,0,0,0,1-8.21Zm-8.46,8.52a21.83,21.83,0,0,1-.42,4.79,9.31,9.31,0,0,1-1.14,3.18,4.27,4.27,0,0,1-1.85,1.74,6.15,6.15,0,0,1-5,0,4.29,4.29,0,0,1-1.86-1.74,9.27,9.27,0,0,1-1.2-3.18,26.89,26.89,0,0,1-.36-4.79V17a26.29,26.29,0,0,1,.36-4.74,9,9,0,0,1,1.14-3.12A5.1,5.1,0,0,1,373,7.37a5.9,5.9,0,0,1,2.52-.48,5.57,5.57,0,0,1,2.52.48,4.8,4.8,0,0,1,1.91,1.74,9,9,0,0,1,1.14,3.12,21.35,21.35,0,0,1,.42,4.74Zm42.83-8.52A27.7,27.7,0,0,0,423.22,10a14.86,14.86,0,0,0-2.93-5.63,11,11,0,0,0-4.56-3.24A15.32,15.32,0,0,0,409.85,0,15.53,15.53,0,0,0,404,1.08a10.83,10.83,0,0,0-4.5,3.24A14.59,14.59,0,0,0,396.55,10a27.7,27.7,0,0,0-1.08,8.27V25.6a27.51,27.51,0,0,0,1.08,8.21,15.79,15.79,0,0,0,2.93,5.7A11.08,11.08,0,0,0,404,42.74a15.53,15.53,0,0,0,5.87,1.08,15.32,15.32,0,0,0,5.88-1.08,11.08,11.08,0,0,0,4.56-3.23,16.11,16.11,0,0,0,2.93-5.7,29.77,29.77,0,0,0,1-8.21Zm-8.45,8.52a21.83,21.83,0,0,1-.42,4.79,9.31,9.31,0,0,1-1.14,3.18,4.29,4.29,0,0,1-1.86,1.74,6.13,6.13,0,0,1-5,0,4.29,4.29,0,0,1-1.86-1.74,9.27,9.27,0,0,1-1.2-3.18,26.89,26.89,0,0,1-.36-4.79V17a26.29,26.29,0,0,1,.36-4.74,9,9,0,0,1,1.14-3.12,5.1,5.1,0,0,1,1.86-1.74,5.86,5.86,0,0,1,2.51-.48,5.57,5.57,0,0,1,2.52.48,4.82,4.82,0,0,1,1.92,1.74,9,9,0,0,1,1.14,3.12,21.35,21.35,0,0,1,.42,4.74Z"></path><path class="cls-2" d="M262.34,123.08a20.25,20.25,0,0,0,7.49-1.38,16.84,16.84,0,0,0,5.82-3.9,17.63,17.63,0,0,0,3.78-6.11,22.5,22.5,0,0,0,1.32-8V99.82a22.5,22.5,0,0,0-1.32-8,18.82,18.82,0,0,0-3.78-6.11,16.6,16.6,0,0,0-5.76-3.9,19.3,19.3,0,0,0-7.31-1.38H250.65v42.63Zm.24-39.57a15.09,15.09,0,0,1,6,1.2A13.21,13.21,0,0,1,273.19,88,15.13,15.13,0,0,1,276.13,93a20,20,0,0,1,1.08,6.72v3.95a19.63,19.63,0,0,1-1.08,6.66,15,15,0,0,1-2.94,5.15,13.6,13.6,0,0,1-4.67,3.3,14.76,14.76,0,0,1-6.18,1.2h-8.09V83.51Zm42.59,39.69a12.19,12.19,0,0,0,5.51-2.94,15.87,15.87,0,0,0,1.86-2.22l-2.22-1.62a10.41,10.41,0,0,1-3.89,3.24,11,11,0,0,1-5,1,10,10,0,0,1-4.44-1,10.63,10.63,0,0,1-3.41-2.7,12.11,12.11,0,0,1-2.22-4,14.73,14.73,0,0,1-.78-4.91v-.66h22.6v-2.16a19.94,19.94,0,0,0-.84-5.81A13,13,0,0,0,310,94.9a11.61,11.61,0,0,0-3.95-3,12.48,12.48,0,0,0-5.34-1.08A11.78,11.78,0,0,0,295.51,92a14.17,14.17,0,0,0-4.31,3.24,15,15,0,0,0-3,5,19.29,19.29,0,0,0-1.08,6.65v1.26a17.38,17.38,0,0,0,1.08,6.23,14,14,0,0,0,2.94,4.92,12.61,12.61,0,0,0,4.49,3.18,13.65,13.65,0,0,0,5.7,1.2,14.93,14.93,0,0,0,3.84-.48Zm-.6-28.54a9.58,9.58,0,0,1,2.81,2.28,10.72,10.72,0,0,1,1.68,3.3,13.84,13.84,0,0,1,.66,3.89v.36h-19a16,16,0,0,1,1.14-4.37,11,11,0,0,1,2.1-3.36,10.48,10.48,0,0,1,3-2.22,9.56,9.56,0,0,1,3.72-.72,8.88,8.88,0,0,1,3.9.84Zm33.9,22.48a5.75,5.75,0,0,1-1.56,1.86,11.48,11.48,0,0,1-2.58,1.26,12.74,12.74,0,0,1-3.54.42,13,13,0,0,1-3-.3A8.88,8.88,0,0,1,325,119.3a6,6,0,0,1-2.1-2,6.19,6.19,0,0,1-1-3.12h-3.54a8.08,8.08,0,0,0,.84,3.54,8.9,8.9,0,0,0,2.4,3.06,11.77,11.77,0,0,0,3.84,2.1,18.16,18.16,0,0,0,5.33.78,17.31,17.31,0,0,0,4.86-.66,10.44,10.44,0,0,0,3.66-1.8,8.74,8.74,0,0,0,2.39-2.76,7.92,7.92,0,0,0,.78-3.6,7.43,7.43,0,0,0-.66-3.35,6.76,6.76,0,0,0-2-2.58,14.7,14.7,0,0,0-3.48-2,32.71,32.71,0,0,0-4.92-1.44,32.86,32.86,0,0,1-4.31-1.26,9.21,9.21,0,0,1-2.58-1.38,3.17,3.17,0,0,1-1.26-1.62,4.89,4.89,0,0,1-.36-1.91,4.8,4.8,0,0,1,.48-2,4.66,4.66,0,0,1,1.32-1.8,8.12,8.12,0,0,1,2.4-1.26,9.93,9.93,0,0,1,3.47-.48,10.34,10.34,0,0,1,3.48.54,7.61,7.61,0,0,1,2.58,1.44,6,6,0,0,1,1.62,2.1,5.6,5.6,0,0,1,.54,2.4h3.47a8.7,8.7,0,0,0-.78-3.78,9.24,9.24,0,0,0-2.27-3,11.57,11.57,0,0,0-3.72-2,16.8,16.8,0,0,0-9.53-.06,11.63,11.63,0,0,0-3.54,1.86,8.07,8.07,0,0,0-2.22,2.76,7.27,7.27,0,0,0-.78,3.36,7.44,7.44,0,0,0,.72,3.35,6.5,6.5,0,0,0,2.16,2.46,12.64,12.64,0,0,0,3.48,1.8,37.62,37.62,0,0,0,4.67,1.26,25.14,25.14,0,0,1,4.32,1.32,8.67,8.67,0,0,1,2.58,1.62,5.56,5.56,0,0,1,1.26,1.79,5.76,5.76,0,0,1,.36,2,4.38,4.38,0,0,1-.54,2.1Zm15.79-25.72h-3.53v31.66h3.53Zm-3.53-7.49a2.55,2.55,0,0,0,1.8.66,2.39,2.39,0,0,0,1.73-.66,2.21,2.21,0,0,0,.66-1.68,2.13,2.13,0,0,0-.66-1.68,2.21,2.21,0,0,0-1.73-.72,2.35,2.35,0,0,0-1.8.72,2.31,2.31,0,0,0-.6,1.68,2.41,2.41,0,0,0,.6,1.68Zm27.74,7.25a6.48,6.48,0,0,0-1-.24,9.81,9.81,0,0,0-1.32-.12,9.07,9.07,0,0,0-5.39,1.5,10.87,10.87,0,0,0-3.54,4.14l-.06-5h-3.42v31.66h3.48V101.31a15.51,15.51,0,0,1,1.2-2.87,8.33,8.33,0,0,1,1.86-2.22,7.66,7.66,0,0,1,2.51-1.5,9.17,9.17,0,0,1,3.24-.54,14.26,14.26,0,0,1,2.34.18Z"></path><line class="cls-3" x1="556.44" y1="610.91" x2="556.44" y2="1000"></line><path d="M647.72,847.61v-3.25a8,8,0,0,1,1.63-5.27,5.59,5.59,0,0,1,4.54-1.82,6.31,6.31,0,0,1,4.7,1.63,7.78,7.78,0,0,1,0,9.53,5.52,5.52,0,0,1-4.26,1.72v4.36a8.59,8.59,0,0,0,6.84-3,12.8,12.8,0,0,0-.09-15.56,9.31,9.31,0,0,0-7.28-3,8.41,8.41,0,0,0-5,1.53,8.61,8.61,0,0,0-2.92,4.36,8.76,8.76,0,0,0-3.11-3.92,7.5,7.5,0,0,0-4.31-1.44,9.32,9.32,0,0,0-7.14,2.73,12.18,12.18,0,0,0,.15,15.08,8.66,8.66,0,0,0,6.7,3v-4.36a5.51,5.51,0,0,1-4.21-1.62,6.18,6.18,0,0,1-1.63-4.51c0-4,2-6,6-6a5.51,5.51,0,0,1,4.27,1.77,7.25,7.25,0,0,1,1.62,4.84v3.25ZM631.29,809.1a11.63,11.63,0,0,0,0,14.51,8.81,8.81,0,0,0,6.8,2.77,7.92,7.92,0,0,0,4.55-1.34,9.32,9.32,0,0,0,3.11-3.54,9.08,9.08,0,0,0,3.36,4.17,8.72,8.72,0,0,0,5,1.48,9,9,0,0,0,7-2.92,13.07,13.07,0,0,0,0-15.75,8.87,8.87,0,0,0-7-3,8.28,8.28,0,0,0-5,1.58,9.46,9.46,0,0,0-3.36,4.21,9.21,9.21,0,0,0-3.11-3.64,7.81,7.81,0,0,0-4.55-1.34,8.64,8.64,0,0,0-6.8,2.78Zm27.25,2.49a7.6,7.6,0,0,1,0,9.53,6,6,0,0,1-4.55,1.72,6.32,6.32,0,0,1-4.69-1.77,6.2,6.2,0,0,1-1.77-4.69,6.55,6.55,0,0,1,1.82-4.74,6.24,6.24,0,0,1,4.64-1.82,6,6,0,0,1,4.55,1.77Zm-24.61.67a5.77,5.77,0,0,1,4.26-1.63,5.83,5.83,0,0,1,4.21,1.58,5.42,5.42,0,0,1,1.58,4.12,5.59,5.59,0,0,1-1.58,4.16,5.76,5.76,0,0,1-4.21,1.54,5.83,5.83,0,0,1-4.31-1.58,5.52,5.52,0,0,1-1.58-4.12,5.37,5.37,0,0,1,1.63-4.07Z"></path><rect class="cls-4" x="310.58" y="570.69" width="7.93" height="16.11"></rect><rect class="cls-4" x="280.67" y="588.98" width="67.74" height="7.27"></rect><rect class="cls-5" x="281.12" y="924.07" width="66.84" height="7.73"></rect><path class="cls-1" d="M411.93,989.71H217.13v-9.9h194.8Zm-91.83-9.9H309V930.34H320.1ZM405.94,996H223.14v-6.3h182.8Zm-58.71-73.32c38.65-8.54,64.7-55.23,64.7-93.2a97.09,97.09,0,0,0-65.36-91.66v-1.78L332.66,599.54H297.32L282.08,736.05l-.67,2.17a97.07,97.07,0,0,0-64.27,91.27c0,43.38,29.5,80.79,68.94,93.2"></path><path class="cls-4" d="M411.93,989.71H217.13v-9.9h194.8Zm-91.83-9.9H309V930.34H320.1ZM405.94,996H223.14v-6.3h182.8Zm-58.71-73.32c38.65-8.54,64.7-55.23,64.7-93.2a97.09,97.09,0,0,0-65.36-91.66v-1.78L332.66,599.54H297.32L282.08,736.05l-.67,2.17a97.07,97.07,0,0,0-64.27,91.27c0,43.38,29.5,80.79,68.94,93.2"></path><line class="cls-6" x1="497.82" y1="566.34" x2="115.79" y2="566.34"></line><line class="cls-6" x1="107.75" y1="554.29" x2="107.75" y2="413.68"></line><line class="cls-6" x1="119.81" y1="405.64" x2="501.84" y2="405.64"></line><line class="cls-6" x1="509.87" y1="417.69" x2="509.87" y2="558.31"></line><path class="cls-6" d="M111.77,566.34h-4v-4m0-152.66v-4h4m394.09,0h4v4m0,152.66v4h-4"></path></svg> 