<?xml version="1.0" encoding="UTF-8"?> <svg xmlns="http://www.w3.org/2000/svg" id="Livello_1" data-name="Livello 1" viewBox="0 0 741.33 1000.49"><defs><style>.cls-1{fill:#fff;}.cls-2{fill:#231f20;}.cls-3,.cls-4{fill:none;stroke-width:0.25px;}.cls-3{stroke:#000;}.cls-4{stroke:#231f20;stroke-miterlimit:10;}</style></defs><title>NC paralume semicono</title><rect class="cls-1" y="0.49" width="741.33" height="1000"></rect><path class="cls-2" d="M208.81,18.22A27.7,27.7,0,0,0,207.73,10a14.86,14.86,0,0,0-2.93-5.63,11,11,0,0,0-4.56-3.24A15.32,15.32,0,0,0,194.36,0a15.53,15.53,0,0,0-5.87,1.08A10.83,10.83,0,0,0,184,4.32,14.72,14.72,0,0,0,181.06,10,27.7,27.7,0,0,0,180,18.22V25.6a27.51,27.51,0,0,0,1.08,8.21,16,16,0,0,0,2.93,5.7,11.08,11.08,0,0,0,4.56,3.23,15.53,15.53,0,0,0,5.87,1.08,15.32,15.32,0,0,0,5.88-1.08,11.08,11.08,0,0,0,4.56-3.23,16.11,16.11,0,0,0,2.93-5.7,29.77,29.77,0,0,0,1-8.21Zm-8.45,8.52a21.83,21.83,0,0,1-.42,4.79,9.31,9.31,0,0,1-1.14,3.18,4.29,4.29,0,0,1-1.86,1.74,6.13,6.13,0,0,1-5,0,4.29,4.29,0,0,1-1.86-1.74,9.27,9.27,0,0,1-1.2-3.18,26.89,26.89,0,0,1-.36-4.79V17a26.29,26.29,0,0,1,.36-4.74A9,9,0,0,1,190,9.11a5.1,5.1,0,0,1,1.86-1.74,5.89,5.89,0,0,1,2.51-.48,5.57,5.57,0,0,1,2.52.48,4.82,4.82,0,0,1,1.92,1.74,9,9,0,0,1,1.14,3.12,21.35,21.35,0,0,1,.42,4.74Zm43.37,9.65H225.38l7.5-7.91c1.44-1.5,2.75-2.88,3.89-4.26a29.09,29.09,0,0,0,3-4,19.81,19.81,0,0,0,1.86-3.95,12,12,0,0,0,.72-4.14,14,14,0,0,0-.9-5.1,10.19,10.19,0,0,0-2.7-3.77,12.09,12.09,0,0,0-4.31-2.4,20.12,20.12,0,0,0-6-.84,15.67,15.67,0,0,0-6.17,1.14,13.67,13.67,0,0,0-4.62,3,13.17,13.17,0,0,0-3,4.43,15.21,15.21,0,0,0-1,5.46h8.52a8.56,8.56,0,0,1,.42-2.88,7,7,0,0,1,1.13-2.28,5.43,5.43,0,0,1,2-1.5,5.92,5.92,0,0,1,2.64-.54,5.2,5.2,0,0,1,4.08,1.62,6.54,6.54,0,0,1,1.44,4.5,5.56,5.56,0,0,1-.3,1.92,10.4,10.4,0,0,1-.9,2.16,18.24,18.24,0,0,1-1.74,2.57,35,35,0,0,1-2.64,3.12L214.47,37.41v5.81h29.26Zm33.83-18.17A28.05,28.05,0,0,0,276.49,10a14.73,14.73,0,0,0-2.94-5.63A11,11,0,0,0,269,1.08,15.31,15.31,0,0,0,263.12,0a15.54,15.54,0,0,0-5.88,1.08,10.74,10.74,0,0,0-4.49,3.24A14.73,14.73,0,0,0,249.81,10a27.7,27.7,0,0,0-1.08,8.27V25.6a27.51,27.51,0,0,0,1.08,8.21,16,16,0,0,0,2.94,5.7,11,11,0,0,0,4.55,3.23,15.54,15.54,0,0,0,5.88,1.08,15.31,15.31,0,0,0,5.87-1.08,11.08,11.08,0,0,0,4.56-3.23,16,16,0,0,0,2.94-5.7,30.19,30.19,0,0,0,1-8.21Zm-8.45,8.52a21.83,21.83,0,0,1-.42,4.79,9.31,9.31,0,0,1-1.14,3.18,4.29,4.29,0,0,1-1.86,1.74,5.49,5.49,0,0,1-2.51.54,5.57,5.57,0,0,1-2.52-.54,4.29,4.29,0,0,1-1.86-1.74,9.27,9.27,0,0,1-1.2-3.18,26.89,26.89,0,0,1-.36-4.79V17a26.29,26.29,0,0,1,.36-4.74,9,9,0,0,1,1.14-3.12,5.1,5.1,0,0,1,1.86-1.74,5.9,5.9,0,0,1,2.52-.48,5.5,5.5,0,0,1,2.51.48,4.82,4.82,0,0,1,1.92,1.74,9,9,0,0,1,1.14,3.12,21.35,21.35,0,0,1,.42,4.74Zm42.83-8.52A27.7,27.7,0,0,0,310.86,10a14.73,14.73,0,0,0-2.94-5.63,10.92,10.92,0,0,0-4.55-3.24A15.32,15.32,0,0,0,297.49,0a15.49,15.49,0,0,0-5.87,1.08,10.83,10.83,0,0,0-4.5,3.24A14.73,14.73,0,0,0,284.18,10a28.05,28.05,0,0,0-1.07,8.27V25.6a27.86,27.86,0,0,0,1.07,8.21,16,16,0,0,0,2.94,5.7,11.08,11.08,0,0,0,4.56,3.23,15.49,15.49,0,0,0,5.87,1.08,15.32,15.32,0,0,0,5.88-1.08A11,11,0,0,0,308,39.51a16,16,0,0,0,2.94-5.7,29.77,29.77,0,0,0,1-8.21Zm-8.45,8.52a21.83,21.83,0,0,1-.42,4.79,9.31,9.31,0,0,1-1.14,3.18,4.29,4.29,0,0,1-1.86,1.74,5.57,5.57,0,0,1-2.52.54,5.49,5.49,0,0,1-2.51-.54,4.29,4.29,0,0,1-1.86-1.74,9.27,9.27,0,0,1-1.2-3.18,26.89,26.89,0,0,1-.36-4.79V17a26.29,26.29,0,0,1,.36-4.74,9,9,0,0,1,1.14-3.12A5.1,5.1,0,0,1,295,7.37a5.83,5.83,0,0,1,2.51-.48,5.57,5.57,0,0,1,2.52.48,4.82,4.82,0,0,1,1.92,1.74,9,9,0,0,1,1.14,3.12,21.35,21.35,0,0,1,.42,4.74Zm31-5.16H318v6.78h16.49Zm12.38,15v7.07h.66A24.34,24.34,0,0,0,357,42a17.93,17.93,0,0,0,6.78-4.73,19.28,19.28,0,0,0,4.07-7.32,31.78,31.78,0,0,0,1.32-9.53v-3a22.2,22.2,0,0,0-1-7.08A15.94,15.94,0,0,0,365.3,4.8a13.19,13.19,0,0,0-4.56-3.54A13.86,13.86,0,0,0,354.81,0a14.38,14.38,0,0,0-5.94,1.2,13.28,13.28,0,0,0-4.5,3.3,13.59,13.59,0,0,0-2.87,4.73,17.3,17.3,0,0,0-1,5.88,19.19,19.19,0,0,0,.78,5.69,13.46,13.46,0,0,0,2.4,4.5,12,12,0,0,0,3.89,3.06,12.91,12.91,0,0,0,5.4,1.07,10,10,0,0,0,4.19-.89,11.46,11.46,0,0,0,3.48-2.34,12.33,12.33,0,0,1-1.08,4.43A8.46,8.46,0,0,1,357,33.87a11.49,11.49,0,0,1-4,2,21.56,21.56,0,0,1-5.58.66Zm5.46-14.21a5.72,5.72,0,0,1-1.86-1.74,6.92,6.92,0,0,1-1.14-2.52,12.58,12.58,0,0,1-.36-3.11,12.44,12.44,0,0,1,.36-3,7.5,7.5,0,0,1,1.14-2.64,5.17,5.17,0,0,1,1.8-1.8,4.44,4.44,0,0,1,2.52-.72,5.56,5.56,0,0,1,2.39.54,7.17,7.17,0,0,1,1.92,1.68,9.09,9.09,0,0,1,1.26,2.88,15.41,15.41,0,0,1,.42,4v3.47a7,7,0,0,1-2.22,2.58A6.15,6.15,0,0,1,355,23a5.6,5.6,0,0,1-2.7-.6Zm51.64-4.14A27.7,27.7,0,0,0,402.85,10a14.73,14.73,0,0,0-2.94-5.63,11,11,0,0,0-4.55-3.24A15.32,15.32,0,0,0,389.48,0a15.49,15.49,0,0,0-5.87,1.08,10.83,10.83,0,0,0-4.5,3.24A14.73,14.73,0,0,0,376.17,10a27.7,27.7,0,0,0-1.08,8.27V25.6a27.51,27.51,0,0,0,1.08,8.21,16,16,0,0,0,2.94,5.7,11.08,11.08,0,0,0,4.56,3.23,15.49,15.49,0,0,0,5.87,1.08,15.32,15.32,0,0,0,5.88-1.08A11,11,0,0,0,400,39.51a16,16,0,0,0,2.94-5.7,29.77,29.77,0,0,0,1-8.21Zm-8.45,8.52a21.83,21.83,0,0,1-.42,4.79,9.31,9.31,0,0,1-1.14,3.18,4.29,4.29,0,0,1-1.86,1.74,6.15,6.15,0,0,1-5,0,4.22,4.22,0,0,1-1.85-1.74,9.27,9.27,0,0,1-1.2-3.18,26.89,26.89,0,0,1-.36-4.79V17a26.29,26.29,0,0,1,.36-4.74,9,9,0,0,1,1.14-3.12A5,5,0,0,1,387,7.37a5.9,5.9,0,0,1,2.52-.48,5.57,5.57,0,0,1,2.52.48,4.82,4.82,0,0,1,1.92,1.74,9,9,0,0,1,1.14,3.12,21.35,21.35,0,0,1,.42,4.74Z"></path><path class="cls-2" d="M190.06,115.88a6.4,6.4,0,0,1-2.22,2.52,9.83,9.83,0,0,1-3.48,1.62,15.29,15.29,0,0,1-4.49.6,18.73,18.73,0,0,1-4.44-.54,11.37,11.37,0,0,1-4-1.62,9.63,9.63,0,0,1-2.82-3,8.4,8.4,0,0,1-1.14-4.55h-3.6a12.32,12.32,0,0,0,.66,4.07,10.7,10.7,0,0,0,1.8,3.24,10.32,10.32,0,0,0,2.64,2.46,17.29,17.29,0,0,0,3.29,1.68,19.93,19.93,0,0,0,3.72,1,20.32,20.32,0,0,0,3.84.36,20,20,0,0,0,5.81-.78,14.09,14.09,0,0,0,4.68-2.22,10.43,10.43,0,0,0,3-3.48,9.31,9.31,0,0,0,1.14-4.67,9.75,9.75,0,0,0-1-4.5,9.61,9.61,0,0,0-2.76-3.48,16.73,16.73,0,0,0-4.44-2.64,49.73,49.73,0,0,0-6-2,47.09,47.09,0,0,1-5.4-1.8,16,16,0,0,1-3.59-2,7.44,7.44,0,0,1-1.86-2.4,6.44,6.44,0,0,1-.6-2.82,7.53,7.53,0,0,1,.66-3,7.43,7.43,0,0,1,2-2.52A11.54,11.54,0,0,1,175,83.57a15.41,15.41,0,0,1,4.62-.6,13.84,13.84,0,0,1,4.67.72,10.35,10.35,0,0,1,3.48,2,9.8,9.8,0,0,1,2.16,3.06,10.39,10.39,0,0,1,.72,3.89h3.6a12.06,12.06,0,0,0-4-9.05,13.72,13.72,0,0,0-4.56-2.7,17.87,17.87,0,0,0-6.11-1,19.35,19.35,0,0,0-5.76.84,14.62,14.62,0,0,0-4.55,2.22,10.85,10.85,0,0,0-2.94,3.48,9.57,9.57,0,0,0-1.08,4.49,9.26,9.26,0,0,0,1,4.38,10.28,10.28,0,0,0,2.76,3.3,19.21,19.21,0,0,0,4.37,2.52,52.63,52.63,0,0,0,5.82,2,49.37,49.37,0,0,1,5.57,1.86,14.9,14.9,0,0,1,3.54,2.1,6.32,6.32,0,0,1,2,2.46,8.51,8.51,0,0,1,.54,3.12,6.69,6.69,0,0,1-.78,3.29Zm27.42,7.32a12.16,12.16,0,0,0,5.52-2.94,15.13,15.13,0,0,0,1.85-2.22l-2.21-1.62a10.36,10.36,0,0,1-3.9,3.24,11,11,0,0,1-5,1,10,10,0,0,1-4.43-1,10.66,10.66,0,0,1-3.42-2.7,12.11,12.11,0,0,1-2.22-4,14.73,14.73,0,0,1-.78-4.91v-.66h22.6v-2.16a19.94,19.94,0,0,0-.84-5.81,12.84,12.84,0,0,0-2.39-4.62,11.56,11.56,0,0,0-4-3A12.48,12.48,0,0,0,213,90.82,11.77,11.77,0,0,0,207.83,92a14.09,14.09,0,0,0-4.32,3.24,14.82,14.82,0,0,0-3,5,19.29,19.29,0,0,0-1.08,6.65v1.26a17.38,17.38,0,0,0,1.08,6.23,14,14,0,0,0,2.93,4.92,12.56,12.56,0,0,0,4.5,3.18,13.64,13.64,0,0,0,5.69,1.2,14.93,14.93,0,0,0,3.84-.48Zm-.6-28.54a9.62,9.62,0,0,1,2.82,2.28,10.72,10.72,0,0,1,1.68,3.3,13.84,13.84,0,0,1,.66,3.89v.36H203a16,16,0,0,1,1.14-4.37,11,11,0,0,1,2.1-3.36,10.52,10.52,0,0,1,3-2.22,9.55,9.55,0,0,1,3.71-.72,8.88,8.88,0,0,1,3.9.84Zm15.26-3.24v31.66h3.54V101.37a15.72,15.72,0,0,1,1.13-2.81,12.22,12.22,0,0,1,1.86-2.4,10.26,10.26,0,0,1,2.7-1.68,8.81,8.81,0,0,1,3.48-.6,10.62,10.62,0,0,1,3.17.42,5.88,5.88,0,0,1,2.4,1.32A6,6,0,0,1,252,98.2a12.61,12.61,0,0,1,.54,4v20.93h3.54v-21a8.45,8.45,0,0,1,.72-2.81,11.41,11.41,0,0,1,1.8-2.64,10,10,0,0,1,2.87-2,8.61,8.61,0,0,1,3.84-.78,12.38,12.38,0,0,1,3.12.36,5.18,5.18,0,0,1,2.45,1.38,6.38,6.38,0,0,1,1.62,2.64,13.3,13.3,0,0,1,.54,4.13v20.69h3.48V102.45a17.12,17.12,0,0,0-.66-5.27,8.73,8.73,0,0,0-2-3.6,7.64,7.64,0,0,0-3.29-2.1,14,14,0,0,0-4.38-.66,13.28,13.28,0,0,0-3.54.48,12.18,12.18,0,0,0-3,1.26,11.32,11.32,0,0,0-2.45,2,13.93,13.93,0,0,0-1.8,2.4,8.36,8.36,0,0,0-3.54-4.68,11.83,11.83,0,0,0-6-1.44,11.14,11.14,0,0,0-3.24.42,10.69,10.69,0,0,0-2.82,1.14,8.69,8.69,0,0,0-2.34,1.8,11.8,11.8,0,0,0-1.85,2.4l-.12-5.16Zm57.2,0H285.8v31.66h3.54Zm-3.54-7.49a2.55,2.55,0,0,0,1.8.66,2.4,2.4,0,0,0,1.74-.66,2.21,2.21,0,0,0,.66-1.68,2.13,2.13,0,0,0-.66-1.68,2.22,2.22,0,0,0-1.74-.72,2.35,2.35,0,0,0-1.8.72,2.31,2.31,0,0,0-.6,1.68,2.41,2.41,0,0,0,.6,1.68Zm20.07,35.73a10,10,0,0,1-3.12-2.82,12.81,12.81,0,0,1-1.68-4.13,21.17,21.17,0,0,1-.54-4.86v-1.2a21.55,21.55,0,0,1,.54-4.86,11.38,11.38,0,0,1,1.74-4.07,8.8,8.8,0,0,1,3.06-2.88,9.9,9.9,0,0,1,4.61-1,10.38,10.38,0,0,1,3.36.54A9.2,9.2,0,0,1,316.6,96a8.29,8.29,0,0,1,1.92,2.58,9,9,0,0,1,.78,3.47h3.41a14.35,14.35,0,0,0-1.07-4.67A11.17,11.17,0,0,0,319,93.88a11,11,0,0,0-3.78-2.28,14.72,14.72,0,0,0-10.55.42,12.48,12.48,0,0,0-4.26,3.36,15.38,15.38,0,0,0-2.57,5,22.62,22.62,0,0,0-.84,6.23v1.2a22.94,22.94,0,0,0,.84,6.23,15.38,15.38,0,0,0,2.57,5,12.17,12.17,0,0,0,4.26,3.3,12.78,12.78,0,0,0,5.81,1.26,14.63,14.63,0,0,0,4.62-.78,13,13,0,0,0,3.78-2.16,10.22,10.22,0,0,0,2.7-3.3,10.79,10.79,0,0,0,1.13-4.14H319.3a7.55,7.55,0,0,1-.84,3.18,9.32,9.32,0,0,1-2,2.34,9.16,9.16,0,0,1-2.76,1.38,9.64,9.64,0,0,1-3.24.48,9.21,9.21,0,0,1-4.61-1Zm21.85-11.93a19.9,19.9,0,0,0,1,6.41,14.94,14.94,0,0,0,2.88,5,12.8,12.8,0,0,0,4.43,3.3,14.69,14.69,0,0,0,11.63,0,13.66,13.66,0,0,0,4.5-3.3,15.88,15.88,0,0,0,2.82-5,19.9,19.9,0,0,0,1-6.41v-1a19.53,19.53,0,0,0-1-6.35,15.55,15.55,0,0,0-2.82-5.1,13.66,13.66,0,0,0-4.5-3.3,14.25,14.25,0,0,0-5.87-1.2,13.93,13.93,0,0,0-5.76,1.2,13.63,13.63,0,0,0-4.49,3.3,15.55,15.55,0,0,0-2.82,5.1,19.53,19.53,0,0,0-1,6.35Zm3.54-1a16.8,16.8,0,0,1,.66-4.92,13.61,13.61,0,0,1,2-4.13,9.51,9.51,0,0,1,3.36-2.82,9.24,9.24,0,0,1,4.5-1.08,9.68,9.68,0,0,1,4.61,1.08,9.51,9.51,0,0,1,3.36,2.82,13.4,13.4,0,0,1,2,4.13,16.83,16.83,0,0,1,.72,4.92v1a16.94,16.94,0,0,1-.72,5,13.4,13.4,0,0,1-2,4.13,11,11,0,0,1-3.36,2.82,9.26,9.26,0,0,1-4.55,1,9.45,9.45,0,0,1-4.56-1,11,11,0,0,1-3.36-2.82,13.61,13.61,0,0,1-2-4.13,16.93,16.93,0,0,1-.66-5Zm31.92-15.35v31.66h3.47V101.37A13.36,13.36,0,0,1,368,98.62a9.91,9.91,0,0,1,2-2.46,10.26,10.26,0,0,1,2.7-1.68,8.9,8.9,0,0,1,3.42-.6,10.31,10.31,0,0,1,3.11.42,5.18,5.18,0,0,1,2.34,1.38,7.08,7.08,0,0,1,1.5,2.64,13.57,13.57,0,0,1,.54,4.13v20.63h3.48V102.45a17.4,17.4,0,0,0-.72-5.33,9.85,9.85,0,0,0-2-3.6,7.45,7.45,0,0,0-3.18-2,11.77,11.77,0,0,0-4.26-.66,11.4,11.4,0,0,0-3.23.42,12.86,12.86,0,0,0-2.82,1.2,12.49,12.49,0,0,0-2.4,1.92,12.62,12.62,0,0,0-1.86,2.46l-.12-5.4Zm49,31.78a12.16,12.16,0,0,0,5.52-2.94,15.87,15.87,0,0,0,1.86-2.22l-2.22-1.62a10.36,10.36,0,0,1-3.9,3.24,11,11,0,0,1-5,1,10,10,0,0,1-4.43-1,10.66,10.66,0,0,1-3.42-2.7,12.11,12.11,0,0,1-2.22-4,14.73,14.73,0,0,1-.78-4.91v-.66h22.6v-2.16a20.28,20.28,0,0,0-.83-5.81A13,13,0,0,0,417,94.9a11.56,11.56,0,0,0-4-3,12.47,12.47,0,0,0-5.33-1.08A11.78,11.78,0,0,0,402.53,92a14.09,14.09,0,0,0-4.32,3.24,15,15,0,0,0-3,5,19.29,19.29,0,0,0-1.08,6.65v1.26a17.38,17.38,0,0,0,1.08,6.23,14,14,0,0,0,2.93,4.92,12.56,12.56,0,0,0,4.5,3.18,13.64,13.64,0,0,0,5.69,1.2,14.93,14.93,0,0,0,3.84-.48Zm-.6-28.54a9.62,9.62,0,0,1,2.82,2.28,10.72,10.72,0,0,1,1.68,3.3,13.84,13.84,0,0,1,.66,3.89v.36h-19a16,16,0,0,1,1.14-4.37,11,11,0,0,1,2.1-3.36,10.52,10.52,0,0,1,3-2.22,9.56,9.56,0,0,1,3.72-.72,8.87,8.87,0,0,1,3.89.84Z"></path><line class="cls-3" x1="576.06" y1="353.58" x2="576.06" y2="518.27"></line><line class="cls-3" x1="511.08" y1="598.31" x2="89.85" y2="598.31"></line><line class="cls-3" x1="426.35" y1="301.16" x2="144.47" y2="301.16"></line><path d="M679.36,437.69v17.09l-9.91-9.1c-4.6-4.31-8.62-6.41-12-6.41a8.57,8.57,0,0,0-6.61,2.73,10.76,10.76,0,0,0-2.49,7.52,11.05,11.05,0,0,0,2.92,8.09,9.85,9.85,0,0,0,7.57,3.06v-4.36a7.1,7.1,0,0,1-5.13-1.77,6.81,6.81,0,0,1-1.82-5,5.69,5.69,0,0,1,1.73-4.31,6,6,0,0,1,4.35-1.58,8.3,8.3,0,0,1,3.84.95,26.83,26.83,0,0,1,4.83,3.64L679.79,460h3.12V437.69Zm-16.57-26c-4.93,0-8.52,1-10.87,2.68s-3.54,4.41-3.54,8.09,1.2,6.42,3.64,8.14,6.18,2.59,11.16,2.59H669c4.79-.05,8.38-1,10.82-2.73s3.59-4.41,3.59-8-1.24-6.42-3.68-8.15-6.23-2.58-11.3-2.58Zm6.75,4.31c3.55.05,6.18.62,7.81,1.63a5.8,5.8,0,0,1-.14,9.62c-1.78,1.06-4.46,1.63-8.14,1.63h-7c-3.45-.05-6-.57-7.71-1.58a6,6,0,0,1,.05-9.72c1.68-1.05,4.31-1.58,8-1.58Z"></path><path d="M266.88,703.57l-2.34,4.74h2.92l1.72-3.5a12,12,0,0,0,4.45.82,11.45,11.45,0,0,0,6-1.58,11.25,11.25,0,0,0,4.07-4.6,15,15,0,0,0,1.44-6.65c0-5-1.54-8.72-4.55-11.11L283,676.9h-2.92l-1.68,3.49a11.41,11.41,0,0,0-4.78-1,10.8,10.8,0,0,0-10.06,6.22,14.94,14.94,0,0,0-1.44,6.66c0,5.22,1.63,9,4.79,11.3Zm1.53-18.1a6.23,6.23,0,0,1,5.18-2.54,6.35,6.35,0,0,1,3.11.77l-8,16.23a10.46,10.46,0,0,1-2.25-7.13c0-3.17.62-5.61,2-7.33Zm12.36,7.18a11.2,11.2,0,0,1-1.92,6.9,6.39,6.39,0,0,1-5.22,2.54,6.8,6.8,0,0,1-2.82-.58l7.95-16.09a10.88,10.88,0,0,1,2,6.85Zm27.4-21.55h-4.59l-15.23,23.61v2.54h15.51v7.9h4.31v-7.9h4.74v-3.54h-4.74ZM303.34,678l.52-.91v16.67H293.23Zm19,11,1.14-.91a7.19,7.19,0,0,1,4.46-1.24,6.26,6.26,0,0,1,4.93,2.06,7.94,7.94,0,0,1,1.87,5.51A8.57,8.57,0,0,1,333,700a5.83,5.83,0,0,1-4.74,2.06,6.41,6.41,0,0,1-4.45-1.49,6.82,6.82,0,0,1-2.06-4.4h-4.12a10.06,10.06,0,0,0,3.26,6.94,10.77,10.77,0,0,0,7.37,2.49,10.43,10.43,0,0,0,7.95-3,11.73,11.73,0,0,0,2.83-8.28A12.1,12.1,0,0,0,336.3,686a9.38,9.38,0,0,0-7.38-3.07,10.76,10.76,0,0,0-5.7,1.49l1-9.29H338v-4H320.59l-1.72,17Z"></path><path d="M251.84,260.94l-2.35,4.74h2.92l1.73-3.5a12,12,0,0,0,4.45.81,11.38,11.38,0,0,0,6-1.58,11.22,11.22,0,0,0,4.07-4.59,15.23,15.23,0,0,0,1.43-6.66c0-5-1.53-8.71-4.55-11.11l2.4-4.79H265l-1.68,3.5a11.43,11.43,0,0,0-4.79-1,11,11,0,0,0-6,1.63,10.81,10.81,0,0,0-4.07,4.6,14.87,14.87,0,0,0-1.44,6.65c0,5.22,1.63,9,4.79,11.31Zm1.53-18.11a6.23,6.23,0,0,1,5.17-2.53,6.42,6.42,0,0,1,3.11.76l-8,16.24a10.49,10.49,0,0,1-2.25-7.14c0-3.16.62-5.6,2-7.33ZM265.72,250a11.22,11.22,0,0,1-1.91,6.89,6.37,6.37,0,0,1-5.22,2.54,6.88,6.88,0,0,1-2.83-.57l7.95-16.09a10.86,10.86,0,0,1,2,6.84ZM281.16,247h3.25a8.08,8.08,0,0,1,5.27,1.63,5.61,5.61,0,0,1,1.82,4.55,6.28,6.28,0,0,1-1.63,4.69,7.78,7.78,0,0,1-9.53,0,5.54,5.54,0,0,1-1.72-4.26h-4.36a8.61,8.61,0,0,0,3,6.85,12.82,12.82,0,0,0,15.56-.1,9.29,9.29,0,0,0,3-7.28,8.36,8.36,0,0,0-1.53-5,8.69,8.69,0,0,0-4.36-2.93A8.72,8.72,0,0,0,293.9,242a7.53,7.53,0,0,0,1.43-4.31,9.3,9.3,0,0,0-2.73-7.13A10.75,10.75,0,0,0,285,228a10.87,10.87,0,0,0-7.52,2.68,8.7,8.7,0,0,0-3,6.71h4.36a5.49,5.49,0,0,1,1.63-4.22,6.2,6.2,0,0,1,4.5-1.63c4,0,6,2,6,6a5.47,5.47,0,0,1-1.77,4.26,7.31,7.31,0,0,1-4.84,1.63h-3.25Zm34.11,9.1c-1.92,1.77-4.65,2.73-8.24,2.78h-.91v3.69H307c5.27-.1,9.2-1.63,11.83-4.7s3.93-7.85,3.93-14.51v-1.24c0-4.36-1-7.81-2.92-10.3a9.43,9.43,0,0,0-7.95-3.78,10.54,10.54,0,0,0-5.56,1.44,9.55,9.55,0,0,0-3.68,4.21,14.09,14.09,0,0,0-1.3,6.13,13.51,13.51,0,0,0,1.2,5.79,9.32,9.32,0,0,0,3.35,4.12,9.17,9.17,0,0,0,5.13,1.44,8.76,8.76,0,0,0,4.16-1,9.74,9.74,0,0,0,3.21-2.58c-.14,3.88-1.2,6.7-3.11,8.52Zm-8-10.77a10.46,10.46,0,0,1,.05-11.45,5.6,5.6,0,0,1,4.6-2.15,5.47,5.47,0,0,1,4.64,2.63,11.7,11.7,0,0,1,1.87,6.9v1.72a8.18,8.18,0,0,1-2.68,3.26,6.68,6.68,0,0,1-4,1.34,5.29,5.29,0,0,1-4.45-2.25Z"></path><polygon class="cls-1" points="478.52 510.59 92.61 510.59 144.73 351.15 435.64 351.15 478.52 510.59"></polygon><polygon class="cls-4" points="478.52 510.59 92.61 510.59 144.73 351.15 435.64 351.15 478.52 510.59 478.52 510.59"></polygon></svg> 