<?xml version="1.0" encoding="UTF-8"?> <svg xmlns="http://www.w3.org/2000/svg" id="Livello_1" data-name="Livello 1" viewBox="0 0 741.33 1000.49"><defs><style>.cls-1{fill:#fff;}.cls-2{fill:#231f20;}.cls-3,.cls-4{fill:none;stroke-width:0.25px;}.cls-3{stroke:#000;}.cls-4{stroke:#231f20;}</style></defs><title>NC paralume high semicone</title><rect class="cls-1" y="0.49" width="741.33" height="1000"></rect><path class="cls-2" d="M282.51,14.53a22.14,22.14,0,0,0-.86-6.59,11.78,11.78,0,0,0-2.35-4.5A8.8,8.8,0,0,0,275.67.86,12.29,12.29,0,0,0,271,0a12.42,12.42,0,0,0-4.68.86,8.74,8.74,0,0,0-3.59,2.58,11.91,11.91,0,0,0-2.34,4.5,22.14,22.14,0,0,0-.86,6.59v5.89a22.13,22.13,0,0,0,.86,6.55,12.79,12.79,0,0,0,2.34,4.54,8.89,8.89,0,0,0,3.64,2.58,13.19,13.19,0,0,0,9.37,0,8.86,8.86,0,0,0,3.63-2.58A12.63,12.63,0,0,0,281.69,27a23.64,23.64,0,0,0,.82-6.55Zm-6.74,6.79a17.42,17.42,0,0,1-.34,3.83,7.22,7.22,0,0,1-.91,2.53A3.45,3.45,0,0,1,273,29.07a4.38,4.38,0,0,1-2,.43,4.44,4.44,0,0,1-2-.43,3.45,3.45,0,0,1-1.48-1.39,7.4,7.4,0,0,1-1-2.53,20.74,20.74,0,0,1-.29-3.83V13.53a20.24,20.24,0,0,1,.29-3.78,7.13,7.13,0,0,1,.9-2.48A4.09,4.09,0,0,1,269,5.88a4.63,4.63,0,0,1,2-.38,4.38,4.38,0,0,1,2,.38,3.9,3.9,0,0,1,1.53,1.39,6.93,6.93,0,0,1,.91,2.48,17,17,0,0,1,.34,3.78ZM310.35,29H295.72l6-6.31c1.15-1.19,2.2-2.29,3.11-3.39a24.44,24.44,0,0,0,2.39-3.21A15.42,15.42,0,0,0,308.68,13a9.62,9.62,0,0,0,.57-3.3,11.19,11.19,0,0,0-.71-4.07,8.21,8.21,0,0,0-2.15-3A9.68,9.68,0,0,0,302.94.67,16,16,0,0,0,298.16,0a12.57,12.57,0,0,0-4.92.91,10.65,10.65,0,0,0-3.68,2.39,10.31,10.31,0,0,0-2.39,3.54,12,12,0,0,0-.82,4.35h6.79a6.83,6.83,0,0,1,.34-2.3,5.23,5.23,0,0,1,.91-1.81A4.31,4.31,0,0,1,296,5.88a4.7,4.7,0,0,1,2.11-.43,4.16,4.16,0,0,1,3.25,1.29,5.25,5.25,0,0,1,1.15,3.59,4.47,4.47,0,0,1-.24,1.53,9.08,9.08,0,0,1-.72,1.72,13.78,13.78,0,0,1-1.39,2.05,26.81,26.81,0,0,1-2.1,2.49L287,29.83v4.64h23.33Zm27-14.49a22.14,22.14,0,0,0-.86-6.59,11.91,11.91,0,0,0-2.34-4.5A8.89,8.89,0,0,0,330.5.86,12.23,12.23,0,0,0,325.82,0a12.51,12.51,0,0,0-4.69.86,8.71,8.71,0,0,0-3.58,2.58,11.78,11.78,0,0,0-2.35,4.5,22.14,22.14,0,0,0-.86,6.59v5.89A22.13,22.13,0,0,0,315.2,27a12.8,12.8,0,0,0,2.35,4.54,8.8,8.8,0,0,0,3.63,2.58,12.43,12.43,0,0,0,4.69.86,12.27,12.27,0,0,0,4.68-.86,8.8,8.8,0,0,0,3.63-2.58A12.8,12.8,0,0,0,336.53,27a24.06,24.06,0,0,0,.81-6.55Zm-6.74,6.79a17.42,17.42,0,0,1-.34,3.83,7.43,7.43,0,0,1-.9,2.53,3.47,3.47,0,0,1-1.49,1.39,4.89,4.89,0,0,1-4,0,3.39,3.39,0,0,1-1.48-1.39,7.19,7.19,0,0,1-1-2.53,21.65,21.65,0,0,1-.29-3.83V13.53a21.13,21.13,0,0,1,.29-3.78,6.93,6.93,0,0,1,.91-2.48,4.14,4.14,0,0,1,1.48-1.39,4.65,4.65,0,0,1,2-.38,4.43,4.43,0,0,1,2,.38,3.9,3.9,0,0,1,1.53,1.39,7.13,7.13,0,0,1,.9,2.48,17,17,0,0,1,.34,3.78Zm34.16-6.79a22.14,22.14,0,0,0-.86-6.59,11.78,11.78,0,0,0-2.35-4.5A8.8,8.8,0,0,0,357.92.86,12.29,12.29,0,0,0,353.23,0a12.42,12.42,0,0,0-4.68.86A8.74,8.74,0,0,0,345,3.44a11.91,11.91,0,0,0-2.34,4.5,22.14,22.14,0,0,0-.86,6.59v5.89a22.13,22.13,0,0,0,.86,6.55A12.79,12.79,0,0,0,345,31.51a8.89,8.89,0,0,0,3.64,2.58,13.19,13.19,0,0,0,9.37,0,8.86,8.86,0,0,0,3.63-2.58A12.63,12.63,0,0,0,363.94,27a23.64,23.64,0,0,0,.82-6.55ZM358,21.32a17.42,17.42,0,0,1-.34,3.83,7.42,7.42,0,0,1-.91,2.53,3.45,3.45,0,0,1-1.48,1.39,4.38,4.38,0,0,1-2,.43,4.44,4.44,0,0,1-2-.43,3.45,3.45,0,0,1-1.48-1.39,7.2,7.2,0,0,1-1-2.53,20.74,20.74,0,0,1-.29-3.83V13.53a20.24,20.24,0,0,1,.29-3.78,7.13,7.13,0,0,1,.9-2.48,4.09,4.09,0,0,1,1.49-1.39,4.63,4.63,0,0,1,2-.38,4.38,4.38,0,0,1,2,.38,3.9,3.9,0,0,1,1.53,1.39,7.12,7.12,0,0,1,.91,2.48,17,17,0,0,1,.34,3.78Zm24.69-4.11H369.56v5.4h13.15Zm9.87,12v5.65h.53a19.4,19.4,0,0,0,7.6-1.34,14.34,14.34,0,0,0,5.41-3.78,15.55,15.55,0,0,0,3.25-5.83,25.67,25.67,0,0,0,1.05-7.6V13.87a17.83,17.83,0,0,0-.81-5.65,13.06,13.06,0,0,0-2.3-4.4A10.57,10.57,0,0,0,403.68,1a11.09,11.09,0,0,0-4.74-1,11.32,11.32,0,0,0-4.73,1,10.68,10.68,0,0,0-3.59,2.63,10.94,10.94,0,0,0-2.29,3.77,13.76,13.76,0,0,0-.81,4.69,15.38,15.38,0,0,0,.62,4.54,10.81,10.81,0,0,0,1.91,3.59,9.57,9.57,0,0,0,3.11,2.43,10.07,10.07,0,0,0,4.3.87,7.91,7.91,0,0,0,3.35-.72,9,9,0,0,0,2.77-1.87,9.7,9.7,0,0,1-.86,3.54,6.78,6.78,0,0,1-2,2.58,9.12,9.12,0,0,1-3.2,1.63,17.43,17.43,0,0,1-4.45.52Zm4.36-11.33a4.56,4.56,0,0,1-1.49-1.38,5.77,5.77,0,0,1-.91-2,10.26,10.26,0,0,1-.28-2.49,10,10,0,0,1,.28-2.39,6.14,6.14,0,0,1,.91-2.1A4.22,4.22,0,0,1,396.89,6a3.54,3.54,0,0,1,2-.57,4.4,4.4,0,0,1,1.91.43,6,6,0,0,1,1.53,1.34,7.31,7.31,0,0,1,1,2.29,12.28,12.28,0,0,1,.34,3.16v2.77a5.63,5.63,0,0,1-1.77,2.06,5,5,0,0,1-2.82.81,4.37,4.37,0,0,1-2.15-.48ZM435.2.48h-6.83L414.22,22.85l.28,4.26h14v7.36h6.74V27.11H439V21.66H435.2Zm-7.21,10,.47-.81v12h-7.55Z"></path><path class="cls-2" d="M221.79,64.16h-2.92V79.42H199.46V64.16h-2.87v34h2.87V81.85h19.41V98.16h2.92Zm11.1,8.75h-2.82V98.16h2.82Zm-2.82-6a2.06,2.06,0,0,0,1.44.52,1.91,1.91,0,0,0,1.38-.52,1.75,1.75,0,0,0,.53-1.34,1.67,1.67,0,0,0-.53-1.34,1.76,1.76,0,0,0-1.38-.57,1.89,1.89,0,0,0-1.44.57,1.85,1.85,0,0,0-.48,1.34,2,2,0,0,0,.48,1.34Zm9.27,18.84A17.82,17.82,0,0,0,240,91a11.91,11.91,0,0,0,1.91,4.06A9.38,9.38,0,0,0,245,97.68a8.63,8.63,0,0,0,4.06,1,10,10,0,0,0,4.64-1,8.87,8.87,0,0,0,3.16-2.72v2.91a10.78,10.78,0,0,1-.48,3.4,6.51,6.51,0,0,1-1.48,2.48,5.92,5.92,0,0,1-2.35,1.63,9.19,9.19,0,0,1-3.15.53,8.34,8.34,0,0,1-3.78-.86,10.83,10.83,0,0,1-3.3-2.78l-1.53,1.68a8.69,8.69,0,0,0,1.77,1.91,14,14,0,0,0,2.2,1.34,14.62,14.62,0,0,0,2.39.81,10.63,10.63,0,0,0,2.44.24,11.46,11.46,0,0,0,4.16-.72,9.15,9.15,0,0,0,3.2-2,9.62,9.62,0,0,0,2-3.3,12.64,12.64,0,0,0,.76-4.4V72.91h-2.62l-.15,3.64a9.1,9.1,0,0,0-3.2-3,10.1,10.1,0,0,0-8.75-.2,9.37,9.37,0,0,0-3.06,2.59A11.74,11.74,0,0,0,240,80a18.29,18.29,0,0,0-.67,5.31Zm2.82-.48a18.45,18.45,0,0,1,.43-4.11,10.14,10.14,0,0,1,1.34-3.3,6.32,6.32,0,0,1,2.34-2.2,6.17,6.17,0,0,1,3.35-.82,8.94,8.94,0,0,1,2.67.39,7.3,7.3,0,0,1,2.06,1.1,7.54,7.54,0,0,1,1.48,1.57,8.43,8.43,0,0,1,1,1.92V91.56a9.47,9.47,0,0,1-1.1,1.87,6.28,6.28,0,0,1-1.53,1.43,7.43,7.43,0,0,1-2.06,1,8.58,8.58,0,0,1-2.58.34,6.56,6.56,0,0,1-3.3-.81,6.48,6.48,0,0,1-2.34-2.2,10.32,10.32,0,0,1-1.34-3.3,18.26,18.26,0,0,1-.43-4.11Zm27.56-23H267V98.16h2.77V80.85a10.77,10.77,0,0,1,1.1-2.2,7.74,7.74,0,0,1,1.58-2,8.49,8.49,0,0,1,2.15-1.34,7.16,7.16,0,0,1,2.72-.48,8.24,8.24,0,0,1,2.49.34,4,4,0,0,1,1.86,1.1,5.59,5.59,0,0,1,1.2,2.1,10.74,10.74,0,0,1,.43,3.3V98.16H286V81.71a13.92,13.92,0,0,0-.57-4.25,7.74,7.74,0,0,0-1.58-2.87A6,6,0,0,0,281.34,73a9.49,9.49,0,0,0-3.4-.52,8.47,8.47,0,0,0-2.53.33,8.72,8.72,0,0,0-2.25,1,9.65,9.65,0,0,0-1.91,1.48,10.21,10.21,0,0,0-1.53,2ZM319.5,93.43a4.72,4.72,0,0,1-1.24,1.48,9.64,9.64,0,0,1-2.06,1,10.09,10.09,0,0,1-2.82.34A10.48,10.48,0,0,1,311,96a7.1,7.1,0,0,1-2.25-.86,4.8,4.8,0,0,1-2.43-4.07h-2.83a6.43,6.43,0,0,0,.67,2.82,7.14,7.14,0,0,0,1.92,2.44A9.24,9.24,0,0,0,309.13,98a14.17,14.17,0,0,0,4.25.63,13.51,13.51,0,0,0,3.87-.53,8.22,8.22,0,0,0,2.92-1.43,7.15,7.15,0,0,0,1.91-2.2,6.32,6.32,0,0,0,.62-2.87,6,6,0,0,0-.52-2.68,5.54,5.54,0,0,0-1.58-2.06,11.7,11.7,0,0,0-2.77-1.57,25.55,25.55,0,0,0-3.92-1.15,28.5,28.5,0,0,1-3.45-1,7.66,7.66,0,0,1-2-1.1,2.62,2.62,0,0,1-1-1.29,4,4,0,0,1-.28-1.53,3.78,3.78,0,0,1,.38-1.58,3.66,3.66,0,0,1,1.05-1.44,6.65,6.65,0,0,1,1.91-1,7.92,7.92,0,0,1,2.78-.38,8.14,8.14,0,0,1,2.77.43,6.16,6.16,0,0,1,2.06,1.14,4.92,4.92,0,0,1,1.29,1.68,4.55,4.55,0,0,1,.43,1.91h2.77a6.93,6.93,0,0,0-.62-3,7.31,7.31,0,0,0-1.82-2.39,9.09,9.09,0,0,0-3-1.58,13.53,13.53,0,0,0-7.6-.05,9.18,9.18,0,0,0-2.82,1.48,6.45,6.45,0,0,0-1.77,2.2,5.81,5.81,0,0,0-.63,2.68,6,6,0,0,0,.58,2.68,5.18,5.18,0,0,0,1.72,2,10,10,0,0,0,2.77,1.43,29.3,29.3,0,0,0,3.73,1,19.65,19.65,0,0,1,3.44,1,6.76,6.76,0,0,1,2.06,1.29,4.4,4.4,0,0,1,1,1.43,4.45,4.45,0,0,1,.29,1.58,3.47,3.47,0,0,1-.43,1.68Zm22.31,4.82a8.2,8.2,0,0,0,2.48-1,7.82,7.82,0,0,0,1.91-1.39,12.17,12.17,0,0,0,1.49-1.77l-1.77-1.29a8.15,8.15,0,0,1-3.11,2.58,8.74,8.74,0,0,1-4,.82,7.94,7.94,0,0,1-3.54-.77,8.47,8.47,0,0,1-2.72-2.15,9.53,9.53,0,0,1-1.77-3.16,11.8,11.8,0,0,1-.62-3.92v-.52h18V84a16,16,0,0,0-.67-4.64,10.31,10.31,0,0,0-1.91-3.68,9,9,0,0,0-3.16-2.39,9.81,9.81,0,0,0-4.25-.86,9.4,9.4,0,0,0-4.11.9,11.34,11.34,0,0,0-3.44,2.59,11.93,11.93,0,0,0-2.4,4,15.56,15.56,0,0,0-.86,5.31v1a14,14,0,0,0,.86,5,11.12,11.12,0,0,0,2.35,3.92,10,10,0,0,0,3.58,2.53,10.93,10.93,0,0,0,4.55,1,11.9,11.9,0,0,0,3.06-.39Zm-.48-22.75a7.56,7.56,0,0,1,2.24,1.81,8.39,8.39,0,0,1,1.34,2.63,11.08,11.08,0,0,1,.53,3.11v.29H330.28a13.13,13.13,0,0,1,.91-3.49,8.92,8.92,0,0,1,1.67-2.68,8.24,8.24,0,0,1,2.4-1.77,7.62,7.62,0,0,1,3-.57,7.12,7.12,0,0,1,3.11.67Zm12.17-2.59V98.16h2.82V80.85a12.73,12.73,0,0,1,.9-2.25,9.61,9.61,0,0,1,1.49-1.91,8.49,8.49,0,0,1,2.15-1.34,7.08,7.08,0,0,1,2.77-.48,8.58,8.58,0,0,1,2.54.34,4.71,4.71,0,0,1,1.91,1.05,4.84,4.84,0,0,1,1.29,2.06,10,10,0,0,1,.43,3.15V98.16h2.82V81.42a6.91,6.91,0,0,1,.57-2.24,9.27,9.27,0,0,1,1.44-2.11,8.06,8.06,0,0,1,2.29-1.57,6.86,6.86,0,0,1,3.06-.63,10,10,0,0,1,2.49.29,4.19,4.19,0,0,1,2,1.1,5.14,5.14,0,0,1,1.29,2.1,10.57,10.57,0,0,1,.43,3.3v16.5h2.77V81.71a13.8,13.8,0,0,0-.52-4.21,7,7,0,0,0-1.63-2.86A6.11,6.11,0,0,0,384.14,73a11.28,11.28,0,0,0-3.49-.52,10.56,10.56,0,0,0-2.82.38,9.8,9.8,0,0,0-2.39,1,8.77,8.77,0,0,0-2,1.58,10.58,10.58,0,0,0-1.43,1.91,6.73,6.73,0,0,0-2.83-3.73,9.45,9.45,0,0,0-4.78-1.14,8.9,8.9,0,0,0-2.58.33,8.63,8.63,0,0,0-2.25.91,7.1,7.1,0,0,0-1.86,1.43A10,10,0,0,0,356.27,77l-.1-4.12Zm45.61,0h-2.82V98.16h2.82Zm-2.82-6a2,2,0,0,0,1.44.52,1.91,1.91,0,0,0,1.38-.52,1.75,1.75,0,0,0,.53-1.34,1.67,1.67,0,0,0-.53-1.34,1.76,1.76,0,0,0-1.38-.57,1.88,1.88,0,0,0-1.44.57,1.85,1.85,0,0,0-.48,1.34,2,2,0,0,0,.48,1.34Zm16,28.49a8,8,0,0,1-2.49-2.24,10.35,10.35,0,0,1-1.34-3.3A17.34,17.34,0,0,1,408,86v-1a17.52,17.52,0,0,1,.43-3.87,9.12,9.12,0,0,1,1.39-3.26,7,7,0,0,1,2.44-2.29,7.84,7.84,0,0,1,3.68-.81,8.18,8.18,0,0,1,2.68.43,7.26,7.26,0,0,1,2.2,1.34,6.71,6.71,0,0,1,1.53,2.05,7.23,7.23,0,0,1,.62,2.77h2.72a11,11,0,0,0-.86-3.72,9.06,9.06,0,0,0-5.11-4.64,11.82,11.82,0,0,0-8.42.33A10,10,0,0,0,408,76.07a12.33,12.33,0,0,0-2.06,4,18.1,18.1,0,0,0-.67,5v1a18.44,18.44,0,0,0,.67,5A12.18,12.18,0,0,0,408,95a9.67,9.67,0,0,0,3.39,2.63,10.2,10.2,0,0,0,4.64,1,11.46,11.46,0,0,0,3.68-.63,10.19,10.19,0,0,0,3-1.72,7.91,7.91,0,0,0,2.15-2.63,8.27,8.27,0,0,0,.91-3.29H423a6.1,6.1,0,0,1-.67,2.53,6.12,6.12,0,0,1-3.78,3,7.58,7.58,0,0,1-2.58.39,7.28,7.28,0,0,1-3.68-.82Zm17.43-9.51a15.78,15.78,0,0,0,.81,5.11,11.9,11.9,0,0,0,2.29,4,10.22,10.22,0,0,0,3.54,2.63,11.69,11.69,0,0,0,9.28,0,10.87,10.87,0,0,0,3.58-2.63,12.71,12.71,0,0,0,2.25-4,15.78,15.78,0,0,0,.81-5.11v-.77a15.52,15.52,0,0,0-.81-5.06A12.44,12.44,0,0,0,449.23,76a10.87,10.87,0,0,0-3.58-2.63,11.45,11.45,0,0,0-4.69-1,11.15,11.15,0,0,0-4.59,1A10.76,10.76,0,0,0,432.79,76a12.26,12.26,0,0,0-2.25,4.07,15.52,15.52,0,0,0-.81,5.06Zm2.82-.77a13.49,13.49,0,0,1,.52-3.92,10.61,10.61,0,0,1,1.63-3.3,7.44,7.44,0,0,1,2.68-2.24,7.27,7.27,0,0,1,3.58-.86,7.86,7.86,0,0,1,6.36,3.1,10.83,10.83,0,0,1,1.63,3.3,13.52,13.52,0,0,1,.57,3.92v.77a13.61,13.61,0,0,1-.57,4,10.83,10.83,0,0,1-1.63,3.3,8.84,8.84,0,0,1-2.68,2.24,7.31,7.31,0,0,1-3.63.82,7.44,7.44,0,0,1-3.63-.82,8.6,8.6,0,0,1-2.68-2.24,10.61,10.61,0,0,1-1.63-3.3,13.6,13.6,0,0,1-.52-4ZM458,72.91V98.16h2.78V80.85a10.28,10.28,0,0,1,1.1-2.2,7.92,7.92,0,0,1,1.57-2,8.55,8.55,0,0,1,2.16-1.34,7.16,7.16,0,0,1,2.72-.48,8.24,8.24,0,0,1,2.49.34,4.07,4.07,0,0,1,1.86,1.1,5.59,5.59,0,0,1,1.2,2.1,11.06,11.06,0,0,1,.43,3.3V98.16h2.77V81.71a13.92,13.92,0,0,0-.57-4.25,7.88,7.88,0,0,0-1.58-2.87A6,6,0,0,0,472.39,73a9.4,9.4,0,0,0-3.39-.52,9,9,0,0,0-2.58.33,10.3,10.3,0,0,0-2.25,1,9.51,9.51,0,0,0-1.91,1.53,9.61,9.61,0,0,0-1.48,2l-.1-4.31Zm39.09,25.34a9.66,9.66,0,0,0,4.4-2.34A12.74,12.74,0,0,0,503,94.14l-1.77-1.29a8.15,8.15,0,0,1-3.11,2.58,8.74,8.74,0,0,1-4,.82,7.94,7.94,0,0,1-3.54-.77,8.47,8.47,0,0,1-2.72-2.15,9.53,9.53,0,0,1-1.77-3.16,11.8,11.8,0,0,1-.62-3.92v-.52h18V84a16,16,0,0,0-.67-4.64,10.31,10.31,0,0,0-1.91-3.68,9.09,9.09,0,0,0-3.15-2.39,9.88,9.88,0,0,0-4.26-.86,9.4,9.4,0,0,0-4.11.9A11.34,11.34,0,0,0,486,75.93a11.75,11.75,0,0,0-2.39,4,15.33,15.33,0,0,0-.86,5.31v1a13.82,13.82,0,0,0,.86,5,11.1,11.1,0,0,0,2.34,3.92,9.9,9.9,0,0,0,3.59,2.53,10.85,10.85,0,0,0,4.54,1,11.9,11.9,0,0,0,3.06-.39Zm-.48-22.75a7.73,7.73,0,0,1,2.25,1.81,8.58,8.58,0,0,1,1.33,2.63,11.08,11.08,0,0,1,.53,3.11v.29H485.56a13.13,13.13,0,0,1,.91-3.49,8.75,8.75,0,0,1,1.68-2.68,8.2,8.2,0,0,1,2.39-1.77,7.65,7.65,0,0,1,3-.57,7.08,7.08,0,0,1,3.11.67Z"></path><line class="cls-3" x1="490.78" y1="269.74" x2="490.78" y2="617.41"></line><line class="cls-3" x1="449.92" y1="662.13" x2="247.64" y2="662.13"></line><path d="M548.84,400.5q.1,6.3,4,9.51t11.46,3.21h1.34a12,12,0,0,0,7.71-2.45,7.69,7.69,0,0,0,3-6.3,7.87,7.87,0,0,0-2.52-6.15,9.54,9.54,0,0,0-6.72-2.29,9.67,9.67,0,0,0-6.45,2.14,7.05,7.05,0,0,0-2.49,5.65,7.26,7.26,0,0,0,2.45,5.84,9.8,9.8,0,0,1-6.5-2.75,9.15,9.15,0,0,1-2.36-6.41v-.65h-2.94Zm14,.3a7,7,0,0,1,4.47-1.33,6.83,6.83,0,0,1,4.47,1.33,4.38,4.38,0,0,1,1.72,3.67,4.52,4.52,0,0,1-2,3.74,8.73,8.73,0,0,1-5.38,1.53h-1.26a5.36,5.36,0,0,1-2.64-2.06,5.57,5.57,0,0,1-1.07-3.29,4.38,4.38,0,0,1,1.72-3.59Zm.23-13.22-.72-.92a5.68,5.68,0,0,1-1-3.55,5,5,0,0,1,1.64-3.93,6.29,6.29,0,0,1,4.4-1.49,6.78,6.78,0,0,1,4.5,1.37,4.64,4.64,0,0,1,1.65,3.78,5.12,5.12,0,0,1-1.19,3.55,5.44,5.44,0,0,1-3.51,1.65v3.28a8,8,0,0,0,5.54-2.6,8.58,8.58,0,0,0,2-5.88,8.34,8.34,0,0,0-2.4-6.34,9.37,9.37,0,0,0-6.61-2.25,9.66,9.66,0,0,0-6.65,2.18,7.47,7.47,0,0,0-2.44,5.88,8.56,8.56,0,0,0,1.18,4.54l-7.41-.8v-11h-3.2V389l13.55,1.38Z"></path><path d="M310.44,727l-1.87,3.79h2.33l1.37-2.79a9.68,9.68,0,0,0,3.56.65,8.49,8.49,0,0,0,8-4.93,12.09,12.09,0,0,0,1.14-5.31c0-4-1.22-7-3.63-8.86l1.91-3.82h-2.33l-1.33,2.79a9.24,9.24,0,0,0-3.82-.8A8.79,8.79,0,0,0,311,709a8.7,8.7,0,0,0-3.24,3.66,11.87,11.87,0,0,0-1.15,5.31c0,4.16,1.3,7.14,3.82,9Zm1.22-14.43a5,5,0,0,1,4.13-2,5.07,5.07,0,0,1,2.48.62l-6.38,12.94a8.34,8.34,0,0,1-1.79-5.69,9.31,9.31,0,0,1,1.56-5.84Zm9.86,5.73a9,9,0,0,1-1.53,5.5,5.11,5.11,0,0,1-4.16,2,5.37,5.37,0,0,1-2.26-.46l6.34-12.83a8.69,8.69,0,0,1,1.61,5.46Zm21.85-17.19h-3.66L327.56,719.9v2h12.38v6.31h3.43v-6.31h3.78V719.1h-3.78Zm-3.85,5.46.42-.72V719.1h-8.48Zm28.57,18.87H354.46l7.26-7.91c3.43-3.66,5.11-6.87,5.11-9.54a6.81,6.81,0,0,0-2.17-5.27,8.61,8.61,0,0,0-6-2,8.78,8.78,0,0,0-6.45,2.33,7.83,7.83,0,0,0-2.45,6h3.48a5.66,5.66,0,0,1,1.41-4.08,5.41,5.41,0,0,1,4-1.45,4.54,4.54,0,0,1,3.44,1.37,4.86,4.86,0,0,1,1.26,3.48,6.51,6.51,0,0,1-.77,3,21,21,0,0,1-2.9,3.86l-9.39,10.46v2.49h17.79Z"></path><line class="cls-3" x1="427.64" y1="228.96" x2="265.76" y2="228.96"></line><path d="M319.92,196.89l-1.87,3.78h2.33l1.37-2.79a9.63,9.63,0,0,0,3.55.65,9.13,9.13,0,0,0,4.78-1.26,8.88,8.88,0,0,0,3.24-3.66,12,12,0,0,0,1.15-5.31c0-4-1.22-7-3.63-8.86l1.91-3.82h-2.33l-1.34,2.79a9,9,0,0,0-3.82-.8,8.58,8.58,0,0,0-8,5,12,12,0,0,0-1.14,5.31c0,4.16,1.3,7.14,3.82,9Zm1.22-14.43a5,5,0,0,1,4.12-2,5.13,5.13,0,0,1,2.49.61l-6.38,13a8.34,8.34,0,0,1-1.8-5.69,9.31,9.31,0,0,1,1.57-5.84Zm9.85,5.72a8.93,8.93,0,0,1-1.52,5.5,5.09,5.09,0,0,1-4.17,2,5.33,5.33,0,0,1-2.25-.46l6.34-12.83a8.67,8.67,0,0,1,1.6,5.46Zm12.31-2.44h2.6a6.44,6.44,0,0,1,4.2,1.3,4.49,4.49,0,0,1,1.45,3.63,5,5,0,0,1-1.3,3.74,6.2,6.2,0,0,1-7.6,0,4.43,4.43,0,0,1-1.37-3.4H337.8a6.83,6.83,0,0,0,2.41,5.46,10.24,10.24,0,0,0,12.41-.07,7.46,7.46,0,0,0,2.41-5.81,6.61,6.61,0,0,0-1.23-4,6.86,6.86,0,0,0-3.47-2.33,6.93,6.93,0,0,0,3.13-2.48,6,6,0,0,0,1.15-3.44,7.44,7.44,0,0,0-2.18-5.69,9.74,9.74,0,0,0-12,.12A6.9,6.9,0,0,0,338,178.1h3.48a4.4,4.4,0,0,1,1.3-3.36,4.92,4.92,0,0,1,3.59-1.3c3.17,0,4.77,1.61,4.77,4.78a4.4,4.4,0,0,1-1.41,3.4,5.77,5.77,0,0,1-3.86,1.29h-2.6Zm20.83-.5.91-.72a5.71,5.71,0,0,1,3.56-1,5,5,0,0,1,3.93,1.64,6.31,6.31,0,0,1,1.49,4.39,6.83,6.83,0,0,1-1.38,4.51,4.63,4.63,0,0,1-3.78,1.64,5.09,5.09,0,0,1-3.55-1.19,5.41,5.41,0,0,1-1.64-3.51h-3.29a8,8,0,0,0,2.6,5.54,8.61,8.61,0,0,0,5.88,2,8.32,8.32,0,0,0,6.34-2.4,9.38,9.38,0,0,0,2.26-6.61,9.66,9.66,0,0,0-2.18-6.64,7.45,7.45,0,0,0-5.88-2.45,8.54,8.54,0,0,0-4.55,1.19l.81-7.41h11V171h-13.9l-1.37,13.56Z"></path><polygon class="cls-1" points="265.76 299.32 246.27 622.73 447.14 621.93 432.89 299.32 265.76 299.32"></polygon><polygon class="cls-4" points="265.76 299.32 246.27 622.73 447.14 621.93 432.89 299.32 265.76 299.32 265.76 299.32"></polygon></svg> 