<?xml version="1.0" encoding="UTF-8"?> <svg xmlns="http://www.w3.org/2000/svg" id="Livello_1" data-name="Livello 1" viewBox="0 0 741.33 1000.49"><defs><style>.cls-1{fill:#fff;}.cls-2{fill:#231f20;}.cls-3,.cls-4{fill:none;stroke-width:0.25px;}.cls-3{stroke:#000;}.cls-4{stroke:#231f20;}</style></defs><title>NC paralume low semicone</title><rect class="cls-1" y="0.49" width="741.33" height="1000"></rect><path class="cls-2" d="M240.57,14.53a22.14,22.14,0,0,0-.86-6.59,11.91,11.91,0,0,0-2.34-4.5A8.89,8.89,0,0,0,233.73.86,12.23,12.23,0,0,0,229.05,0a12.51,12.51,0,0,0-4.69.86,8.71,8.71,0,0,0-3.58,2.58,11.78,11.78,0,0,0-2.35,4.5,22.14,22.14,0,0,0-.86,6.59v5.89a22.13,22.13,0,0,0,.86,6.55,12.8,12.8,0,0,0,2.35,4.54,8.8,8.8,0,0,0,3.63,2.58,12.43,12.43,0,0,0,4.69.86,12.27,12.27,0,0,0,4.68-.86,8.8,8.8,0,0,0,3.63-2.58A12.8,12.8,0,0,0,239.76,27a24.06,24.06,0,0,0,.81-6.55Zm-6.74,6.79a17.42,17.42,0,0,1-.34,3.83,7.43,7.43,0,0,1-.9,2.53,3.47,3.47,0,0,1-1.49,1.39,4.89,4.89,0,0,1-4,0,3.39,3.39,0,0,1-1.48-1.39,7.19,7.19,0,0,1-1-2.53,21.65,21.65,0,0,1-.29-3.83V13.53a21.13,21.13,0,0,1,.29-3.78,6.93,6.93,0,0,1,.91-2.48A4.14,4.14,0,0,1,227,5.88a4.65,4.65,0,0,1,2-.38,4.43,4.43,0,0,1,2,.38,3.9,3.9,0,0,1,1.53,1.39,7.13,7.13,0,0,1,.9,2.48,17,17,0,0,1,.34,3.78ZM268.42,29H253.79l6-6.31c1.15-1.19,2.2-2.29,3.11-3.39a23.57,23.57,0,0,0,2.39-3.21A15.42,15.42,0,0,0,266.74,13a9.4,9.4,0,0,0,.58-3.3,11.19,11.19,0,0,0-.72-4.07,8.21,8.21,0,0,0-2.15-3A9.72,9.72,0,0,0,261,.67,16.1,16.1,0,0,0,256.22,0a12.57,12.57,0,0,0-4.92.91,10.75,10.75,0,0,0-3.68,2.39,10.45,10.45,0,0,0-2.39,3.54,12,12,0,0,0-.81,4.35h6.78a6.83,6.83,0,0,1,.34-2.3,5.41,5.41,0,0,1,.91-1.81A4.26,4.26,0,0,1,254,5.88a4.65,4.65,0,0,1,2.1-.43,4.13,4.13,0,0,1,3.25,1.29,5.2,5.2,0,0,1,1.15,3.59,4.47,4.47,0,0,1-.24,1.53,7.94,7.94,0,0,1-.72,1.72,13.65,13.65,0,0,1-1.38,2.05,28.74,28.74,0,0,1-2.11,2.49l-11,11.71v4.64h23.34Zm27-14.49a21.82,21.82,0,0,0-.86-6.59,11.77,11.77,0,0,0-2.34-4.5A8.86,8.86,0,0,0,288.57.86,12.32,12.32,0,0,0,283.88,0a12.51,12.51,0,0,0-4.69.86,8.71,8.71,0,0,0-3.58,2.58,11.63,11.63,0,0,0-2.34,4.5,21.82,21.82,0,0,0-.86,6.59v5.89a21.81,21.81,0,0,0,.86,6.55,12.63,12.63,0,0,0,2.34,4.54,8.86,8.86,0,0,0,3.63,2.58,12.51,12.51,0,0,0,4.69.86,12.23,12.23,0,0,0,4.68-.86,8.89,8.89,0,0,0,3.64-2.58A12.79,12.79,0,0,0,294.59,27a23.67,23.67,0,0,0,.81-6.55Zm-6.74,6.79a17.49,17.49,0,0,1-.33,3.83,7.42,7.42,0,0,1-.91,2.53,3.45,3.45,0,0,1-1.48,1.39,4.44,4.44,0,0,1-2,.43,4.38,4.38,0,0,1-2-.43,3.45,3.45,0,0,1-1.48-1.39,7.39,7.39,0,0,1-1-2.53,21.65,21.65,0,0,1-.29-3.83V13.53a21.13,21.13,0,0,1,.29-3.78,7.12,7.12,0,0,1,.91-2.48,4.14,4.14,0,0,1,1.48-1.39,4.65,4.65,0,0,1,2-.38,4.41,4.41,0,0,1,2,.38,3.9,3.9,0,0,1,1.53,1.39,7.12,7.12,0,0,1,.91,2.48,17.06,17.06,0,0,1,.33,3.78Zm34.16-6.79A22.14,22.14,0,0,0,322,7.94a11.91,11.91,0,0,0-2.34-4.5A8.89,8.89,0,0,0,316,.86,12.23,12.23,0,0,0,311.3,0a12.51,12.51,0,0,0-4.69.86A8.64,8.64,0,0,0,303,3.44a11.78,11.78,0,0,0-2.35,4.5,22.14,22.14,0,0,0-.86,6.59v5.89a22.13,22.13,0,0,0,.86,6.55A12.8,12.8,0,0,0,303,31.51a8.8,8.8,0,0,0,3.63,2.58,12.42,12.42,0,0,0,4.68.86,12.29,12.29,0,0,0,4.69-.86,8.8,8.8,0,0,0,3.63-2.58A12.8,12.8,0,0,0,322,27a24.06,24.06,0,0,0,.81-6.55Zm-6.74,6.79a17.42,17.42,0,0,1-.34,3.83,7.22,7.22,0,0,1-.91,2.53,3.39,3.39,0,0,1-1.48,1.39,4.89,4.89,0,0,1-4,0,3.47,3.47,0,0,1-1.49-1.39,7.4,7.4,0,0,1-1-2.53,21.65,21.65,0,0,1-.29-3.83V13.53a21.13,21.13,0,0,1,.29-3.78,6.93,6.93,0,0,1,.91-2.48,4.06,4.06,0,0,1,1.48-1.39,4.65,4.65,0,0,1,2-.38,4.36,4.36,0,0,1,2,.38,3.83,3.83,0,0,1,1.53,1.39,6.93,6.93,0,0,1,.91,2.48,17,17,0,0,1,.34,3.78Zm24.69-4.11H327.62v5.4h13.15Zm9.88,12v5.65h.52a19.4,19.4,0,0,0,7.6-1.34,14.34,14.34,0,0,0,5.41-3.78,15.55,15.55,0,0,0,3.25-5.83,25.35,25.35,0,0,0,1.05-7.6V13.87a17.83,17.83,0,0,0-.81-5.65,12.89,12.89,0,0,0-2.3-4.4A10.57,10.57,0,0,0,361.74,1,11,11,0,0,0,357,0a11.37,11.37,0,0,0-4.74,1,10.54,10.54,0,0,0-3.58,2.63,10.81,10.81,0,0,0-2.3,3.77,14,14,0,0,0-.81,4.69,15.38,15.38,0,0,0,.62,4.54,10.81,10.81,0,0,0,1.91,3.59,9.68,9.68,0,0,0,3.11,2.43,10.07,10.07,0,0,0,4.3.87,7.91,7.91,0,0,0,3.35-.72,9,9,0,0,0,2.77-1.87,9.7,9.7,0,0,1-.86,3.54,6.69,6.69,0,0,1-2,2.58,9.12,9.12,0,0,1-3.2,1.63,17.34,17.34,0,0,1-4.44.52ZM355,17.83a4.43,4.43,0,0,1-1.48-1.38,5.59,5.59,0,0,1-.91-2,10.25,10.25,0,0,1-.29-2.49,10,10,0,0,1,.29-2.39,6,6,0,0,1,.91-2.1A4.19,4.19,0,0,1,355,6a3.54,3.54,0,0,1,2-.57,4.4,4.4,0,0,1,1.91.43,6,6,0,0,1,1.53,1.34,7.08,7.08,0,0,1,1,2.29,12.28,12.28,0,0,1,.34,3.16v2.77A5.44,5.44,0,0,1,360,17.5a4.93,4.93,0,0,1-2.82.81,4.4,4.4,0,0,1-2.15-.48Zm25.17,1.92h3.58a9.12,9.12,0,0,1,2.35.28,6.8,6.8,0,0,1,1.76.91,4.58,4.58,0,0,1,1.1,1.58,6.82,6.82,0,0,1,.39,2.34,5,5,0,0,1-.39,1.91,3.22,3.22,0,0,1-1,1.44,3.67,3.67,0,0,1-1.63.95,5.92,5.92,0,0,1-2.15.34,5.28,5.28,0,0,1-2-.34,4.25,4.25,0,0,1-1.57-.9,3.88,3.88,0,0,1-1.44-3.11h-6.74a8.88,8.88,0,0,0,1,4.35,9.06,9.06,0,0,0,2.63,3.06,11.73,11.73,0,0,0,3.68,1.82A16.19,16.19,0,0,0,384,35a17,17,0,0,0,4.78-.67,11.2,11.2,0,0,0,3.83-2,8.88,8.88,0,0,0,2.53-3.11,10.12,10.12,0,0,0,.91-4.25,8.36,8.36,0,0,0-1.44-4.88A8.25,8.25,0,0,0,390.4,17a11.23,11.23,0,0,0,2.2-1.39,10.5,10.5,0,0,0,1.62-1.72,9.29,9.29,0,0,0,1-2.05,8.5,8.5,0,0,0,.33-2.15,9.78,9.78,0,0,0-.86-4.21,8.48,8.48,0,0,0-2.34-3A10.86,10.86,0,0,0,388.73.62,18.1,18.1,0,0,0,384,0a14.3,14.3,0,0,0-4.35.67,12,12,0,0,0-3.54,1.86,9.53,9.53,0,0,0-2.39,2.92,8.55,8.55,0,0,0-.86,3.83h6.74A3.63,3.63,0,0,1,381,6.5a4,4,0,0,1,1.48-.76,5,5,0,0,1,1.72-.29,5.26,5.26,0,0,1,2.06.34,3.68,3.68,0,0,1,1.43.9,3.41,3.41,0,0,1,.86,1.39,4.82,4.82,0,0,1,.29,1.72,4.72,4.72,0,0,1-1.24,3.4,5.15,5.15,0,0,1-3.83,1.29h-3.58Z"></path><path class="cls-2" d="M162.16,64.16H159.3v34H179V95.72H162.16Zm20.11,21.76a15.78,15.78,0,0,0,.81,5.11,11.92,11.92,0,0,0,2.3,4,10.18,10.18,0,0,0,3.53,2.63,11.69,11.69,0,0,0,9.28,0,10.76,10.76,0,0,0,3.58-2.63A12.52,12.52,0,0,0,204,91a15.78,15.78,0,0,0,.81-5.11v-.77a15.52,15.52,0,0,0-.81-5.06A12.26,12.26,0,0,0,201.77,76a10.76,10.76,0,0,0-3.58-2.63,11.45,11.45,0,0,0-4.69-1,11.15,11.15,0,0,0-4.59,1A10.87,10.87,0,0,0,185.33,76a12.44,12.44,0,0,0-2.25,4.07,15.52,15.52,0,0,0-.81,5.06Zm2.82-.77a13.49,13.49,0,0,1,.52-3.92,10.83,10.83,0,0,1,1.63-3.3,7.61,7.61,0,0,1,2.68-2.24,7.27,7.27,0,0,1,3.58-.86,7.63,7.63,0,0,1,3.68.86,7.44,7.44,0,0,1,2.68,2.24,10.61,10.61,0,0,1,1.63,3.3,13.52,13.52,0,0,1,.57,3.92v.77a13.61,13.61,0,0,1-.57,4,10.61,10.61,0,0,1-1.63,3.3,8.6,8.6,0,0,1-2.68,2.24,7.31,7.31,0,0,1-3.63.82,7.44,7.44,0,0,1-3.63-.82,8.84,8.84,0,0,1-2.68-2.24,10.83,10.83,0,0,1-1.63-3.3,13.6,13.6,0,0,1-.52-4Zm26.17-12.24h-2.87l7.32,25.25h2.39l6.36-20,.33-1.43.29,1.39,6.5,20h2.35l7.36-25.25h-2.87l-5.21,19.37-.53,2.44L232,92.09l-6-19.18h-2.39l-6.08,19.32L217,94.52l-.38-2.19Zm61.63,20.52a4.46,4.46,0,0,1-1.24,1.48,9.19,9.19,0,0,1-2.06,1,10.09,10.09,0,0,1-2.82.34,10.53,10.53,0,0,1-2.39-.24,7,7,0,0,1-2.24-.86,4.78,4.78,0,0,1-2.44-4.07h-2.82a6.43,6.43,0,0,0,.67,2.82,7.1,7.1,0,0,0,1.91,2.44A9.24,9.24,0,0,0,262.52,98a14.22,14.22,0,0,0,4.25.63,13.63,13.63,0,0,0,3.88-.53,8.25,8.25,0,0,0,2.91-1.43,7,7,0,0,0,1.91-2.2,6.33,6.33,0,0,0,.63-2.87,6,6,0,0,0-.53-2.68A5.44,5.44,0,0,0,274,86.87a11.7,11.7,0,0,0-2.77-1.57,25.55,25.55,0,0,0-3.92-1.15,27.73,27.73,0,0,1-3.44-1,7.59,7.59,0,0,1-2.06-1.1,2.54,2.54,0,0,1-1-1.29,4,4,0,0,1-.29-1.53,4.35,4.35,0,0,1,1.43-3,6.59,6.59,0,0,1,1.92-1,7.83,7.83,0,0,1,2.77-.38,8.14,8.14,0,0,1,2.77.43,6.07,6.07,0,0,1,2.06,1.14,4.92,4.92,0,0,1,1.29,1.68,4.4,4.4,0,0,1,.43,1.91H276a6.93,6.93,0,0,0-.62-3,7.31,7.31,0,0,0-1.82-2.39,9.09,9.09,0,0,0-3-1.58A13.53,13.53,0,0,0,263,73a9.18,9.18,0,0,0-2.82,1.48,6.45,6.45,0,0,0-1.77,2.2,5.8,5.8,0,0,0-.62,2.68,6,6,0,0,0,.57,2.68A5.26,5.26,0,0,0,260,84a10.15,10.15,0,0,0,2.77,1.43,29.3,29.3,0,0,0,3.73,1,19.79,19.79,0,0,1,3.45,1,6.82,6.82,0,0,1,2,1.29,4.6,4.6,0,0,1,1,1.43,4.66,4.66,0,0,1,.28,1.58,3.47,3.47,0,0,1-.43,1.68Zm22.31,4.82a9.66,9.66,0,0,0,4.4-2.34,12.74,12.74,0,0,0,1.48-1.77l-1.77-1.29a8.15,8.15,0,0,1-3.11,2.58,8.74,8.74,0,0,1-4,.82,7.94,7.94,0,0,1-3.54-.77A8.47,8.47,0,0,1,286,93.33a9.53,9.53,0,0,1-1.77-3.16,11.8,11.8,0,0,1-.62-3.92v-.52h18V84a16,16,0,0,0-.67-4.64A10.31,10.31,0,0,0,299,75.69a9.09,9.09,0,0,0-3.15-2.39,9.88,9.88,0,0,0-4.26-.86,9.4,9.4,0,0,0-4.11.9,11.34,11.34,0,0,0-3.44,2.59,11.75,11.75,0,0,0-2.39,4,15.33,15.33,0,0,0-.86,5.31v1a13.82,13.82,0,0,0,.86,5A11,11,0,0,0,284,95.15a10,10,0,0,0,3.58,2.53,10.93,10.93,0,0,0,4.55,1,11.9,11.9,0,0,0,3.06-.39Zm-.48-22.75A7.73,7.73,0,0,1,297,77.31a8.58,8.58,0,0,1,1.33,2.63,11.08,11.08,0,0,1,.53,3.11v.29H283.67a13.13,13.13,0,0,1,.91-3.49,8.75,8.75,0,0,1,1.68-2.68,8.2,8.2,0,0,1,2.39-1.77,7.65,7.65,0,0,1,3-.57,7.08,7.08,0,0,1,3.11.67Zm12.17-2.59V98.16h2.82V80.85a12.77,12.77,0,0,1,.91-2.25,9.56,9.56,0,0,1,1.48-1.91,8.49,8.49,0,0,1,2.15-1.34,7.08,7.08,0,0,1,2.77-.48,8.58,8.58,0,0,1,2.54.34,4.71,4.71,0,0,1,1.91,1.05,4.84,4.84,0,0,1,1.29,2.06,10,10,0,0,1,.43,3.15V98.16H326V81.42a6.91,6.91,0,0,1,.57-2.24A9.6,9.6,0,0,1,328,77.07a8.21,8.21,0,0,1,2.29-1.57,6.89,6.89,0,0,1,3.06-.63,10,10,0,0,1,2.49.29,4.14,4.14,0,0,1,2,1.1,5.14,5.14,0,0,1,1.29,2.1,10.57,10.57,0,0,1,.43,3.3v16.5h2.77V81.71a13.8,13.8,0,0,0-.52-4.21,6.86,6.86,0,0,0-1.63-2.86A6,6,0,0,0,337.53,73a11.28,11.28,0,0,0-3.49-.52,10.56,10.56,0,0,0-2.82.38,9.8,9.8,0,0,0-2.39,1,9,9,0,0,0-2,1.58,11.06,11.06,0,0,0-1.43,1.91,6.72,6.72,0,0,0-2.82-3.73,9.5,9.5,0,0,0-4.78-1.14,8.92,8.92,0,0,0-2.59.33,8.56,8.56,0,0,0-2.24.91,7,7,0,0,0-1.87,1.43A10,10,0,0,0,309.66,77l-.1-4.12Zm45.61,0h-2.82V98.16h2.82Zm-2.82-6a2.08,2.08,0,0,0,1.44.52,1.91,1.91,0,0,0,1.38-.52A1.75,1.75,0,0,0,353,65.6a1.67,1.67,0,0,0-.53-1.34,1.76,1.76,0,0,0-1.38-.57,1.91,1.91,0,0,0-1.44.57,1.85,1.85,0,0,0-.47,1.34,2,2,0,0,0,.47,1.34Zm16,28.49a8.11,8.11,0,0,1-2.49-2.24,10.35,10.35,0,0,1-1.34-3.3,17.34,17.34,0,0,1-.43-3.88v-1a17.52,17.52,0,0,1,.43-3.87,9.12,9.12,0,0,1,1.39-3.26,7,7,0,0,1,2.44-2.29,7.84,7.84,0,0,1,3.68-.81,8.18,8.18,0,0,1,2.68.43,7.14,7.14,0,0,1,2.2,1.34,6.56,6.56,0,0,1,1.53,2.05,7.23,7.23,0,0,1,.62,2.77h2.72a11,11,0,0,0-.86-3.72,8.9,8.9,0,0,0-2.1-2.83,8.74,8.74,0,0,0-3-1.81,11.82,11.82,0,0,0-8.42.33,10,10,0,0,0-3.39,2.68,12.33,12.33,0,0,0-2.06,4,18.1,18.1,0,0,0-.67,5v1a18.44,18.44,0,0,0,.67,5,12.18,12.18,0,0,0,2.06,4,9.67,9.67,0,0,0,3.39,2.63,10.2,10.2,0,0,0,4.64,1,11.41,11.41,0,0,0,3.68-.63,10.19,10.19,0,0,0,3-1.72,8.07,8.07,0,0,0,2.16-2.63,8.43,8.43,0,0,0,.9-3.29H376.4a6.1,6.1,0,0,1-.67,2.53,7.29,7.29,0,0,1-1.58,1.86,7.21,7.21,0,0,1-2.2,1.1,7.58,7.58,0,0,1-2.58.39,7.28,7.28,0,0,1-3.68-.82Zm17.43-9.51a15.78,15.78,0,0,0,.81,5.11,12.07,12.07,0,0,0,2.29,4,10.32,10.32,0,0,0,3.54,2.63,11.69,11.69,0,0,0,9.28,0,10.87,10.87,0,0,0,3.58-2.63,12.71,12.71,0,0,0,2.25-4,15.78,15.78,0,0,0,.81-5.11v-.77a15.52,15.52,0,0,0-.81-5.06A12.44,12.44,0,0,0,402.62,76,10.87,10.87,0,0,0,399,73.39a11.45,11.45,0,0,0-4.69-1,11.15,11.15,0,0,0-4.59,1A10.87,10.87,0,0,0,386.18,76a12.44,12.44,0,0,0-2.25,4.07,15.52,15.52,0,0,0-.81,5.06Zm2.82-.77a13.49,13.49,0,0,1,.52-3.92,10.83,10.83,0,0,1,1.63-3.3,7.52,7.52,0,0,1,2.68-2.24,7.27,7.27,0,0,1,3.58-.86,7.66,7.66,0,0,1,3.68.86,7.52,7.52,0,0,1,2.68,2.24,10.83,10.83,0,0,1,1.63,3.3,13.52,13.52,0,0,1,.57,3.92v.77a13.61,13.61,0,0,1-.57,4,10.83,10.83,0,0,1-1.63,3.3A8.72,8.72,0,0,1,398,95.43a7.31,7.31,0,0,1-3.63.82,7.44,7.44,0,0,1-3.63-.82,8.72,8.72,0,0,1-2.68-2.24,10.83,10.83,0,0,1-1.63-3.3,13.6,13.6,0,0,1-.52-4Zm25.45-12.24V98.16h2.78V80.85a10.28,10.28,0,0,1,1.1-2.2,7.74,7.74,0,0,1,1.58-2A8.32,8.32,0,0,1,419,75.35a7.16,7.16,0,0,1,2.72-.48,8.24,8.24,0,0,1,2.49.34,4,4,0,0,1,1.86,1.1,5.59,5.59,0,0,1,1.2,2.1,11.06,11.06,0,0,1,.43,3.3V98.16h2.77V81.71a13.92,13.92,0,0,0-.57-4.25,7.74,7.74,0,0,0-1.58-2.87A6,6,0,0,0,425.79,73a9.49,9.49,0,0,0-3.4-.52,9,9,0,0,0-2.58.33,10.3,10.3,0,0,0-2.25,1,9.8,9.8,0,0,0-1.91,1.53,10,10,0,0,0-1.48,2l-.1-4.31Zm39.09,25.34a9.66,9.66,0,0,0,4.4-2.34,12.74,12.74,0,0,0,1.48-1.77l-1.77-1.29a8.15,8.15,0,0,1-3.11,2.58,8.68,8.68,0,0,1-4,.82,7.9,7.9,0,0,1-3.53-.77,8.51,8.51,0,0,1-2.73-2.15,9.71,9.71,0,0,1-1.77-3.16,11.8,11.8,0,0,1-.62-3.92v-.52h18V84a16,16,0,0,0-.67-4.64,10.32,10.32,0,0,0-1.92-3.68,9.09,9.09,0,0,0-3.15-2.39,9.88,9.88,0,0,0-4.26-.86,9.4,9.4,0,0,0-4.11.9,11.34,11.34,0,0,0-3.44,2.59,11.75,11.75,0,0,0-2.39,4,15.33,15.33,0,0,0-.86,5.31v1a13.82,13.82,0,0,0,.86,5,11.1,11.1,0,0,0,2.34,3.92,9.9,9.9,0,0,0,3.59,2.53,10.89,10.89,0,0,0,4.54,1,11.84,11.84,0,0,0,3.06-.39ZM450,75.5a7.6,7.6,0,0,1,2.25,1.81,8.83,8.83,0,0,1,1.34,2.63,11.44,11.44,0,0,1,.52,3.11v.29H439a12.76,12.76,0,0,1,.9-3.49,8.75,8.75,0,0,1,1.68-2.68,8.2,8.2,0,0,1,2.39-1.77,7.65,7.65,0,0,1,3-.57,7.08,7.08,0,0,1,3.11.67Z"></path><line class="cls-3" x1="529.25" y1="468.18" x2="529.25" y2="605.21"></line><line class="cls-3" x1="449.83" y1="656.56" x2="165.63" y2="656.56"></line><path d="M602,547v-2.6a6.42,6.42,0,0,1,1.3-4.2A4.5,4.5,0,0,1,607,538.7a5,5,0,0,1,3.74,1.3,6.2,6.2,0,0,1,0,7.6,4.41,4.41,0,0,1-3.39,1.37v3.48a6.88,6.88,0,0,0,5.46-2.41,9.14,9.14,0,0,0,2.06-6.19,9.05,9.05,0,0,0-2.14-6.22,7.39,7.39,0,0,0-5.8-2.41,6.65,6.65,0,0,0-4,1.22,6.82,6.82,0,0,0-2.33,3.48,7,7,0,0,0-2.49-3.13,5.91,5.91,0,0,0-3.43-1.15,7.41,7.41,0,0,0-5.69,2.18,8.57,8.57,0,0,0-2,6,8.69,8.69,0,0,0,2.14,6,7,7,0,0,0,5.35,2.37v-3.48a4.39,4.39,0,0,1-3.36-1.3,4.92,4.92,0,0,1-1.3-3.59c0-3.17,1.6-4.77,4.77-4.77a4.4,4.4,0,0,1,3.4,1.41,5.83,5.83,0,0,1,1.3,3.86V547Zm-3.62-33.51c-3.94,0-6.8.77-8.67,2.14s-2.83,3.51-2.83,6.45,1,5.12,2.9,6.5,4.93,2.06,8.9,2.06h4.62c3.82,0,6.69-.76,8.63-2.18s2.87-3.51,2.87-6.41-1-5.12-2.94-6.5-5-2.06-9-2.06Zm5.38,3.44a12.67,12.67,0,0,1,6.23,1.3,4.63,4.63,0,0,1-.12,7.67,12.91,12.91,0,0,1-6.49,1.3h-5.54a12.71,12.71,0,0,1-6.15-1.26,4.75,4.75,0,0,1,0-7.75c1.34-.84,3.44-1.26,6.38-1.26Z"></path><path d="M286.38,727l-1.87,3.79h2.33l1.37-2.79a9.68,9.68,0,0,0,3.56.65,8.49,8.49,0,0,0,8-4.93,12.09,12.09,0,0,0,1.14-5.31c0-4-1.22-7-3.63-8.86l1.91-3.82h-2.33l-1.33,2.79a9.24,9.24,0,0,0-3.82-.8A8.79,8.79,0,0,0,287,709a8.7,8.7,0,0,0-3.24,3.66,11.87,11.87,0,0,0-1.15,5.31c0,4.16,1.3,7.14,3.82,9Zm1.22-14.43a5,5,0,0,1,4.13-2,5.07,5.07,0,0,1,2.48.62l-6.38,12.94a8.34,8.34,0,0,1-1.79-5.69,9.31,9.31,0,0,1,1.56-5.84Zm9.86,5.73a9,9,0,0,1-1.53,5.5,5.11,5.11,0,0,1-4.16,2,5.37,5.37,0,0,1-2.26-.46l6.34-12.83a8.69,8.69,0,0,1,1.61,5.46Zm20.21-17.19c-4.2.08-7.37,1.41-9.51,4S305,711.57,305,716.58v1.33a12,12,0,0,0,2.45,7.72,7.72,7.72,0,0,0,6.3,3,7.87,7.87,0,0,0,6.15-2.52,10.91,10.91,0,0,0,.15-13.18,7.07,7.07,0,0,0-5.65-2.48,7.32,7.32,0,0,0-5.85,2.44,9.82,9.82,0,0,1,2.75-6.49,9.15,9.15,0,0,1,6.42-2.37h.65v-2.94Zm-.31,14a6.88,6.88,0,0,1,1.34,4.47,6.73,6.73,0,0,1-1.34,4.46,4.33,4.33,0,0,1-3.66,1.72,4.51,4.51,0,0,1-3.74-2,8.7,8.7,0,0,1-1.53-5.39v-1.26a5.34,5.34,0,0,1,2.06-2.63,5.5,5.5,0,0,1,3.28-1.07,4.34,4.34,0,0,1,3.59,1.72Zm13.23.23.92-.73a5.68,5.68,0,0,1,3.55-1,5,5,0,0,1,3.93,1.64,6.28,6.28,0,0,1,1.49,4.39,6.88,6.88,0,0,1-1.37,4.51,4.63,4.63,0,0,1-3.78,1.64,5.16,5.16,0,0,1-3.56-1.18,5.48,5.48,0,0,1-1.64-3.52h-3.28a8.05,8.05,0,0,0,2.59,5.54,8.58,8.58,0,0,0,5.89,2,8.3,8.3,0,0,0,6.34-2.41,9.35,9.35,0,0,0,2.25-6.61,9.68,9.68,0,0,0-2.18-6.64,7.47,7.47,0,0,0-5.88-2.45,8.57,8.57,0,0,0-4.54,1.19l.8-7.41h11v-3.21h-13.9l-1.38,13.56Z"></path><line class="cls-3" x1="434.2" y1="389.45" x2="179.49" y2="389.45"></line><path d="M286.38,357.37l-1.87,3.78h2.33l1.37-2.79a9.68,9.68,0,0,0,3.56.65,8.49,8.49,0,0,0,8-4.93,12,12,0,0,0,1.14-5.3c0-4-1.22-7-3.63-8.86l1.91-3.82h-2.33l-1.33,2.78a9.24,9.24,0,0,0-3.82-.8,8.79,8.79,0,0,0-4.78,1.3,8.67,8.67,0,0,0-3.24,3.67,11.81,11.81,0,0,0-1.15,5.31c0,4.16,1.3,7.14,3.82,9Zm1.22-14.44a5,5,0,0,1,4.13-2,5.06,5.06,0,0,1,2.48.61l-6.38,13a8.37,8.37,0,0,1-1.79-5.69,9.34,9.34,0,0,1,1.56-5.85Zm9.86,5.73a9,9,0,0,1-1.53,5.5,5.08,5.08,0,0,1-4.16,2,5.53,5.53,0,0,1-2.26-.45l6.34-12.84a8.7,8.7,0,0,1,1.61,5.47Zm11.66-2.94L310,345a5.76,5.76,0,0,1,3.55-1,5,5,0,0,1,3.94,1.64A6.34,6.34,0,0,1,319,350a6.8,6.8,0,0,1-1.38,4.5,4.6,4.6,0,0,1-3.78,1.64A5.13,5.13,0,0,1,310.3,355a5.43,5.43,0,0,1-1.64-3.51h-3.29A8,8,0,0,0,308,357a8.57,8.57,0,0,0,5.88,2,8.3,8.3,0,0,0,6.34-2.41,9.33,9.33,0,0,0,2.25-6.6,9.68,9.68,0,0,0-2.17-6.65,7.48,7.48,0,0,0-5.88-2.44,8.62,8.62,0,0,0-4.55,1.18l.8-7.41h11v-3.21h-13.9L306.37,345ZM337,353.47a9.51,9.51,0,0,1-6.57,2.22h-.73v2.94h.69c4.2-.08,7.33-1.3,9.43-3.74s3.14-6.27,3.14-11.58v-1c0-3.47-.77-6.22-2.33-8.21a7.54,7.54,0,0,0-6.34-3,8.36,8.36,0,0,0-4.43,1.15,7.62,7.62,0,0,0-2.94,3.36,11.27,11.27,0,0,0-1,4.89,10.77,10.77,0,0,0,1,4.62,7.41,7.41,0,0,0,2.67,3.28,7.28,7.28,0,0,0,4.09,1.15,7,7,0,0,0,3.32-.8,7.85,7.85,0,0,0,2.56-2.07c-.11,3.1-.95,5.35-2.48,6.8Zm-6.38-8.59a7.18,7.18,0,0,1-1.34-4.54,7.27,7.27,0,0,1,1.38-4.59A4.48,4.48,0,0,1,334.3,334a4.38,4.38,0,0,1,3.7,2.1,9.41,9.41,0,0,1,1.49,5.5V343a6.39,6.39,0,0,1-2.14,2.6,5.33,5.33,0,0,1-3.21,1.06,4.22,4.22,0,0,1-3.55-1.79Z"></path><polygon class="cls-1" points="177.32 468.99 166.49 604.43 448.96 604.43 437.96 468.99 177.32 468.99"></polygon><polygon class="cls-4" points="177.32 468.99 166.49 604.43 448.96 604.43 437.96 468.99 177.32 468.99 177.32 468.99"></polygon></svg> 