<?xml version="1.0" encoding="UTF-8"?> <svg xmlns="http://www.w3.org/2000/svg" id="Livello_1" data-name="Livello 1" viewBox="0 0 741.33 1000.49"><defs><style>.cls-1{fill:#fff;}.cls-2{fill:#231f20;}.cls-3,.cls-4{fill:none;stroke-width:0.25px;}.cls-3{stroke:#000;}.cls-4{stroke:#231f20;stroke-miterlimit:10;}</style></defs><title>NC paralume high cylinder</title><rect class="cls-1" y="0.49" width="741.33" height="1000"></rect><path class="cls-2" d="M236.28,18.22A27.7,27.7,0,0,0,235.2,10a14.72,14.72,0,0,0-2.93-5.63,11,11,0,0,0-4.56-3.24A15.31,15.31,0,0,0,221.84,0,15.54,15.54,0,0,0,216,1.08a10.83,10.83,0,0,0-4.5,3.24A14.86,14.86,0,0,0,208.53,10a27.7,27.7,0,0,0-1.08,8.27V25.6a27.51,27.51,0,0,0,1.08,8.21,16.11,16.11,0,0,0,2.93,5.7A11.08,11.08,0,0,0,216,42.74a15.54,15.54,0,0,0,5.88,1.08,15.31,15.31,0,0,0,5.87-1.08,11.08,11.08,0,0,0,4.56-3.23,16,16,0,0,0,2.93-5.7,29.77,29.77,0,0,0,1-8.21Zm-8.45,8.52a21.83,21.83,0,0,1-.42,4.79,9.31,9.31,0,0,1-1.14,3.18,4.29,4.29,0,0,1-1.86,1.74,6.13,6.13,0,0,1-5,0,4.29,4.29,0,0,1-1.86-1.74,9.27,9.27,0,0,1-1.2-3.18,26.89,26.89,0,0,1-.36-4.79V17a26.29,26.29,0,0,1,.36-4.74,9,9,0,0,1,1.14-3.12,5.1,5.1,0,0,1,1.86-1.74,5.9,5.9,0,0,1,2.52-.48,5.55,5.55,0,0,1,2.51.48,4.82,4.82,0,0,1,1.92,1.74,9,9,0,0,1,1.14,3.12,21.35,21.35,0,0,1,.42,4.74Zm43.37,9.65H252.85l7.5-7.91c1.44-1.5,2.76-2.88,3.89-4.26a29.09,29.09,0,0,0,3-4,19.81,19.81,0,0,0,1.86-3.95,12,12,0,0,0,.72-4.14,14,14,0,0,0-.9-5.1,10.19,10.19,0,0,0-2.7-3.77,12,12,0,0,0-4.31-2.4,20.12,20.12,0,0,0-6-.84,15.7,15.7,0,0,0-6.17,1.14,13.67,13.67,0,0,0-4.62,3,13.17,13.17,0,0,0-3,4.43,15.21,15.21,0,0,0-1,5.46h8.52a8.56,8.56,0,0,1,.42-2.88,6.78,6.78,0,0,1,1.14-2.28,5.48,5.48,0,0,1,2-1.5,5.92,5.92,0,0,1,2.64-.54,5.2,5.2,0,0,1,4.08,1.62,6.54,6.54,0,0,1,1.44,4.5,5.56,5.56,0,0,1-.3,1.92,10.4,10.4,0,0,1-.9,2.16,18.24,18.24,0,0,1-1.74,2.57,35,35,0,0,1-2.64,3.12L241.94,37.41v5.81H271.2ZM305,18.22A27.7,27.7,0,0,0,304,10,14.73,14.73,0,0,0,301,4.32a11,11,0,0,0-4.56-3.24A15.27,15.27,0,0,0,290.59,0a15.54,15.54,0,0,0-5.88,1.08,10.8,10.8,0,0,0-4.49,3.24A14.73,14.73,0,0,0,277.28,10a27.7,27.7,0,0,0-1.08,8.27V25.6a27.51,27.51,0,0,0,1.08,8.21,16,16,0,0,0,2.94,5.7,11,11,0,0,0,4.55,3.23,15.54,15.54,0,0,0,5.88,1.08,15.27,15.27,0,0,0,5.87-1.08,11.08,11.08,0,0,0,4.56-3.23,16,16,0,0,0,2.94-5.7,29.77,29.77,0,0,0,1-8.21Zm-8.46,8.52a21.83,21.83,0,0,1-.42,4.79A9.31,9.31,0,0,1,295,34.71a4.27,4.27,0,0,1-1.85,1.74,6.15,6.15,0,0,1-5,0,4.29,4.29,0,0,1-1.86-1.74,9.27,9.27,0,0,1-1.2-3.18,26.89,26.89,0,0,1-.36-4.79V17a26.29,26.29,0,0,1,.36-4.74,9,9,0,0,1,1.14-3.12,5.1,5.1,0,0,1,1.86-1.74,5.9,5.9,0,0,1,2.52-.48,5.57,5.57,0,0,1,2.52.48A4.8,4.8,0,0,1,295,9.11a9,9,0,0,1,1.14,3.12,21.35,21.35,0,0,1,.42,4.74Zm42.83-8.52A27.7,27.7,0,0,0,338.33,10a14.86,14.86,0,0,0-2.93-5.63,11,11,0,0,0-4.56-3.24A15.32,15.32,0,0,0,325,0a15.53,15.53,0,0,0-5.87,1.08,10.83,10.83,0,0,0-4.5,3.24A14.72,14.72,0,0,0,311.66,10a27.7,27.7,0,0,0-1.08,8.27V25.6a27.51,27.51,0,0,0,1.08,8.21,16,16,0,0,0,2.93,5.7,11.08,11.08,0,0,0,4.56,3.23A15.53,15.53,0,0,0,325,43.82a15.32,15.32,0,0,0,5.88-1.08,11.08,11.08,0,0,0,4.56-3.23,16.11,16.11,0,0,0,2.93-5.7,29.77,29.77,0,0,0,1-8.21ZM331,26.74a21.83,21.83,0,0,1-.42,4.79,9.31,9.31,0,0,1-1.14,3.18,4.29,4.29,0,0,1-1.86,1.74,6.13,6.13,0,0,1-5,0,4.29,4.29,0,0,1-1.86-1.74,9.27,9.27,0,0,1-1.2-3.18,26.89,26.89,0,0,1-.36-4.79V17a26.29,26.29,0,0,1,.36-4.74,9,9,0,0,1,1.14-3.12,5.1,5.1,0,0,1,1.86-1.74A5.89,5.89,0,0,1,325,6.89a5.57,5.57,0,0,1,2.52.48,4.82,4.82,0,0,1,1.92,1.74,9,9,0,0,1,1.14,3.12A21.35,21.35,0,0,1,331,17Zm31-5.16H345.43v6.78h16.49Zm12.38,15v7.07H375A24.42,24.42,0,0,0,384.5,42a18,18,0,0,0,6.77-4.73,19.44,19.44,0,0,0,4.08-7.32,31.79,31.79,0,0,0,1.31-9.53v-3a22.49,22.49,0,0,0-1-7.08,16,16,0,0,0-2.88-5.51,13.19,13.19,0,0,0-4.56-3.54A13.83,13.83,0,0,0,382.28,0a14.38,14.38,0,0,0-5.94,1.2,13.24,13.24,0,0,0-4.49,3.3A13.46,13.46,0,0,0,369,9.23a17.3,17.3,0,0,0-1,5.88,19.19,19.19,0,0,0,.78,5.69,13.46,13.46,0,0,0,2.4,4.5A12.06,12.06,0,0,0,375,28.36a12.91,12.91,0,0,0,5.4,1.07,10.11,10.11,0,0,0,4.2-.89,11.54,11.54,0,0,0,3.47-2.34A12.33,12.33,0,0,1,387,30.63a8.54,8.54,0,0,1-2.51,3.24,11.54,11.54,0,0,1-4,2,21.56,21.56,0,0,1-5.58.66Zm5.46-14.21a5.72,5.72,0,0,1-1.86-1.74,6.92,6.92,0,0,1-1.14-2.52A12.58,12.58,0,0,1,376.4,15a12.44,12.44,0,0,1,.36-3,7.5,7.5,0,0,1,1.14-2.64,5.17,5.17,0,0,1,1.8-1.8,4.44,4.44,0,0,1,2.52-.72,5.6,5.6,0,0,1,2.4.54,7.29,7.29,0,0,1,1.91,1.68,9.09,9.09,0,0,1,1.26,2.88,15.41,15.41,0,0,1,.42,4v3.47A7,7,0,0,1,386,21.94a6.12,6.12,0,0,1-3.53,1,5.6,5.6,0,0,1-2.7-.6ZM423.25.54h-.9L404.72,6.89v6.84l10.07-3.12V43.22h8.46Z"></path><path class="cls-2" d="M186.44,80.45h-3.66V99.58H158.44V80.45h-3.6v42.63h3.6V102.63h24.34v20.45h3.66Zm13.92,11h-3.53v31.66h3.53Zm-3.53-7.49a2.51,2.51,0,0,0,1.79.66,2.4,2.4,0,0,0,1.74-.66,2.21,2.21,0,0,0,.66-1.68,2.13,2.13,0,0,0-.66-1.68,2.22,2.22,0,0,0-1.74-.72,2.26,2.26,0,0,0-2.39,2.4,2.41,2.41,0,0,0,.6,1.68Zm11.61,23.62a22.32,22.32,0,0,0,.84,6.53,14.86,14.86,0,0,0,2.4,5.1,11.86,11.86,0,0,0,3.84,3.3,10.78,10.78,0,0,0,5.09,1.2,12.61,12.61,0,0,0,5.82-1.26,10.91,10.91,0,0,0,3.95-3.42v3.66a13.22,13.22,0,0,1-.6,4.25,8.28,8.28,0,0,1-1.85,3.12,7.41,7.41,0,0,1-2.94,2,11.4,11.4,0,0,1-4,.66,10.32,10.32,0,0,1-4.73-1.08,13.62,13.62,0,0,1-4.14-3.48l-1.92,2.1a10.57,10.57,0,0,0,2.22,2.4,16.14,16.14,0,0,0,2.76,1.68,17.57,17.57,0,0,0,3,1,13.24,13.24,0,0,0,3.06.3,14.44,14.44,0,0,0,5.22-.9,11.25,11.25,0,0,0,4-2.58,12,12,0,0,0,2.52-4.14,15.86,15.86,0,0,0,1-5.51V91.42h-3.3L230.5,96a11.48,11.48,0,0,0-4-3.78,11.15,11.15,0,0,0-5.82-1.38A11,11,0,0,0,215.52,92a11.67,11.67,0,0,0-3.84,3.24,14.86,14.86,0,0,0-2.4,5.1,22.88,22.88,0,0,0-.84,6.65ZM212,107a23.48,23.48,0,0,1,.54-5.16,13,13,0,0,1,1.68-4.13,8.14,8.14,0,0,1,2.93-2.76,7.79,7.79,0,0,1,4.2-1,11.34,11.34,0,0,1,3.36.48,8.63,8.63,0,0,1,4.43,3.36,10.23,10.23,0,0,1,1.26,2.4V114.8a11.43,11.43,0,0,1-1.38,2.34,7.76,7.76,0,0,1-1.91,1.8,9.38,9.38,0,0,1-2.58,1.26,10.87,10.87,0,0,1-3.24.42,8.15,8.15,0,0,1-7.07-3.78,13,13,0,0,1-1.68-4.13,23.09,23.09,0,0,1-.54-5.16Zm34.56-28.84h-3.48v45h3.48V101.37a13.36,13.36,0,0,1,1.38-2.75,9.66,9.66,0,0,1,2-2.46,10.26,10.26,0,0,1,2.7-1.68,8.9,8.9,0,0,1,3.42-.6,10.33,10.33,0,0,1,3.12.42,5.2,5.2,0,0,1,2.33,1.38,7.08,7.08,0,0,1,1.5,2.64,13.57,13.57,0,0,1,.54,4.13v20.63H267V102.45a17.4,17.4,0,0,0-.72-5.33,9.85,9.85,0,0,0-2-3.6,7.45,7.45,0,0,0-3.18-2,11.72,11.72,0,0,0-4.25-.66,11.61,11.61,0,0,0-6,1.62,12.22,12.22,0,0,0-2.4,1.86,13.26,13.26,0,0,0-1.91,2.46Zm51,41.55a10,10,0,0,1-3.12-2.82,12.81,12.81,0,0,1-1.68-4.13,21.17,21.17,0,0,1-.54-4.86v-1.2a21.55,21.55,0,0,1,.54-4.86,11.38,11.38,0,0,1,1.74-4.07,8.8,8.8,0,0,1,3.06-2.88,9.84,9.84,0,0,1,4.61-1,10.38,10.38,0,0,1,3.36.54A9.2,9.2,0,0,1,308.3,96a8.26,8.26,0,0,1,1.91,2.58,9,9,0,0,1,.78,3.47h3.42a14.1,14.1,0,0,0-1.08-4.67,11.17,11.17,0,0,0-2.64-3.54,10.86,10.86,0,0,0-3.77-2.28,14.72,14.72,0,0,0-10.55.42,12.48,12.48,0,0,0-4.26,3.36,15.4,15.4,0,0,0-2.58,5,22.62,22.62,0,0,0-.84,6.23v1.2a22.94,22.94,0,0,0,.84,6.23,15.4,15.4,0,0,0,2.58,5,12.17,12.17,0,0,0,4.26,3.3,12.72,12.72,0,0,0,5.81,1.26,14.63,14.63,0,0,0,4.62-.78,12.76,12.76,0,0,0,3.77-2.16,10.22,10.22,0,0,0,2.7-3.3,10.63,10.63,0,0,0,1.14-4.14H311a7.55,7.55,0,0,1-.84,3.18,7.59,7.59,0,0,1-4.73,3.72,9.64,9.64,0,0,1-3.24.48,9.16,9.16,0,0,1-4.61-1Zm24-28.24h-3.83l11.93,31.42L328.11,127a12.24,12.24,0,0,1-1.08,2.52,7.31,7.31,0,0,1-1.44,1.8,5.23,5.23,0,0,1-1.86,1.08,8,8,0,0,1-2.52.36,4.8,4.8,0,0,1-.83-.06c-.42-.06-.72-.06-1-.12v2.94a1.75,1.75,0,0,1,.54.12c.24.06.48.06.72.12s.53.06.77.12h.66a7.92,7.92,0,0,0,3.72-.78,10.22,10.22,0,0,0,2.52-2,11.26,11.26,0,0,0,1.62-2.52,24.2,24.2,0,0,0,1-2.46l13.42-36.69h-3.77L331.41,118Zm32.17-13.31H350.2v45h3.54Zm13.41,13.31h-3.53v31.66h3.53Zm-3.53-7.49a2.55,2.55,0,0,0,1.8.66,2.39,2.39,0,0,0,1.73-.66,2.21,2.21,0,0,0,.66-1.68,2.13,2.13,0,0,0-.66-1.68,2.21,2.21,0,0,0-1.73-.72,2.35,2.35,0,0,0-1.8.72,2.31,2.31,0,0,0-.6,1.68,2.41,2.41,0,0,0,.6,1.68Zm13,7.49v31.66h3.48V101.37a13.36,13.36,0,0,1,1.38-2.75,9.91,9.91,0,0,1,2-2.46,10.36,10.36,0,0,1,2.69-1.68,8.9,8.9,0,0,1,3.42-.6,10.33,10.33,0,0,1,3.12.42A5.18,5.18,0,0,1,395,95.68a7.08,7.08,0,0,1,1.5,2.64,13.59,13.59,0,0,1,.53,4.13v20.63h3.48V102.45a17.4,17.4,0,0,0-.72-5.33,9.85,9.85,0,0,0-2-3.6,7.42,7.42,0,0,0-3.17-2,11.77,11.77,0,0,0-4.26-.66,11.42,11.42,0,0,0-3.24.42,12.78,12.78,0,0,0-2.81,1.2,12.49,12.49,0,0,0-2.4,1.92,12.62,12.62,0,0,0-1.86,2.46l-.12-5.4Zm31.5,16.13a22.32,22.32,0,0,0,.84,6.53,16,16,0,0,0,2.4,5.1,11.86,11.86,0,0,0,3.84,3.3,11,11,0,0,0,5.09,1.2,12.7,12.7,0,0,0,5.88-1.26,12,12,0,0,0,4-3.54l.12,4.2h3.3v-45h-3.48V95.86a11.88,11.88,0,0,0-4-3.72,11.67,11.67,0,0,0-5.76-1.32A10.78,10.78,0,0,0,415.25,92a11.3,11.3,0,0,0-3.9,3.24,16,16,0,0,0-2.4,5.1,22.88,22.88,0,0,0-.84,6.65Zm3.54-.6a23.48,23.48,0,0,1,.54-5.16,13,13,0,0,1,1.68-4.13,8.08,8.08,0,0,1,2.94-2.76,7.73,7.73,0,0,1,4.19-1,11.34,11.34,0,0,1,3.36.48,9.54,9.54,0,0,1,2.58,1.38,8.23,8.23,0,0,1,1.86,2,13.53,13.53,0,0,1,1.31,2.34v14.86a13.76,13.76,0,0,1-1.43,2.28,7.8,7.8,0,0,1-1.92,1.8,9.25,9.25,0,0,1-2.58,1.2,11.42,11.42,0,0,1-3.24.42,8.19,8.19,0,0,1-7.07-3.78,13,13,0,0,1-1.68-4.13,23.09,23.09,0,0,1-.54-5.16Zm47.27,16.25a12.19,12.19,0,0,0,5.51-2.94,15.87,15.87,0,0,0,1.86-2.22l-2.22-1.62a10.41,10.41,0,0,1-3.89,3.24,11,11,0,0,1-5,1,10,10,0,0,1-4.44-1,10.63,10.63,0,0,1-3.41-2.7,12.11,12.11,0,0,1-2.22-4,14.73,14.73,0,0,1-.78-4.91v-.66H467v-2.16a19.94,19.94,0,0,0-.84-5.81,13,13,0,0,0-2.4-4.62,11.61,11.61,0,0,0-3.95-3,12.48,12.48,0,0,0-5.34-1.08A11.7,11.7,0,0,0,449.27,92,14.09,14.09,0,0,0,445,95.2a15,15,0,0,0-3,5,19.29,19.29,0,0,0-1.08,6.65v1.26a17.38,17.38,0,0,0,1.08,6.23,14,14,0,0,0,2.94,4.92,12.61,12.61,0,0,0,4.49,3.18,13.65,13.65,0,0,0,5.7,1.2,14.93,14.93,0,0,0,3.84-.48Zm-.6-28.54a9.45,9.45,0,0,1,2.81,2.28,10.72,10.72,0,0,1,1.68,3.3,13.84,13.84,0,0,1,.66,3.89v.36h-19a16,16,0,0,1,1.14-4.37,11,11,0,0,1,2.1-3.36,10.48,10.48,0,0,1,3-2.22,9.56,9.56,0,0,1,3.72-.72,8.88,8.88,0,0,1,3.9.84Zm30.18-3.48a6.48,6.48,0,0,0-1-.24,9.81,9.81,0,0,0-1.32-.12,9.07,9.07,0,0,0-5.39,1.5,10.87,10.87,0,0,0-3.54,4.14l-.06-5h-3.42v31.66h3.48V101.31a15.51,15.51,0,0,1,1.2-2.87,8.33,8.33,0,0,1,1.86-2.22,7.6,7.6,0,0,1,2.52-1.5,9.12,9.12,0,0,1,3.23-.54,14.26,14.26,0,0,1,2.34.18Z"></path><line class="cls-3" x1="511.92" y1="196.44" x2="511.92" y2="527.28"></line><line class="cls-3" x1="436.74" y1="613" x2="202.02" y2="613"></line><path d="M584.71,367.69v4.59l23.6,15.23h2.54V372h7.9v-4.31h-7.9V363h-3.54v4.74Zm6.84,4.83-.91-.52h16.67v10.63Zm11-19-.91-1.15a7.13,7.13,0,0,1-1.25-4.46,6.26,6.26,0,0,1,2.06-4.93,7.94,7.94,0,0,1,5.51-1.87,8.57,8.57,0,0,1,5.65,1.73,5.8,5.8,0,0,1,2.06,4.74,6.41,6.41,0,0,1-1.49,4.45,6.82,6.82,0,0,1-4.4,2.06v4.12a10,10,0,0,0,6.94-3.26,10.72,10.72,0,0,0,2.49-7.37c0-3.4-1-6-3-7.95a11.75,11.75,0,0,0-8.29-2.83,12.13,12.13,0,0,0-8.33,2.73,9.38,9.38,0,0,0-3.07,7.38,10.76,10.76,0,0,0,1.49,5.7l-9.29-1V337.84h-4v17.43l17,1.72Z"></path><path d="M285.8,718.26,283.46,723h2.92l1.72-3.49a12.23,12.23,0,0,0,4.45.81,11.45,11.45,0,0,0,6-1.58,11.19,11.19,0,0,0,4.07-4.6,15,15,0,0,0,1.44-6.65c0-5-1.54-8.72-4.55-11.11l2.39-4.79H299l-1.68,3.5a11.41,11.41,0,0,0-4.78-1,11,11,0,0,0-6,1.63,10.88,10.88,0,0,0-4.07,4.6A14.87,14.87,0,0,0,281,707c0,5.22,1.63,9,4.79,11.3Zm1.53-18.1a6.26,6.26,0,0,1,5.18-2.54,6.35,6.35,0,0,1,3.11.77l-8,16.23a10.46,10.46,0,0,1-2.25-7.13c0-3.16.62-5.6,2-7.33Zm12.36,7.18a11.16,11.16,0,0,1-1.92,6.9,6.36,6.36,0,0,1-5.22,2.54,6.65,6.65,0,0,1-2.82-.58l7.95-16.09a10.91,10.91,0,0,1,2,6.85Zm15.43-3.06h3.26a8,8,0,0,1,5.27,1.63,5.62,5.62,0,0,1,1.82,4.55,6.28,6.28,0,0,1-1.63,4.69,7.78,7.78,0,0,1-9.53,0,5.52,5.52,0,0,1-1.73-4.26h-4.35a8.61,8.61,0,0,0,3,6.85,12.84,12.84,0,0,0,15.57-.1,9.29,9.29,0,0,0,3-7.28,8.34,8.34,0,0,0-1.53-5,8.63,8.63,0,0,0-4.36-2.92,8.79,8.79,0,0,0,3.93-3.11A7.5,7.5,0,0,0,329.3,695a9.34,9.34,0,0,0-2.73-7.14,12.23,12.23,0,0,0-15.09.15,8.69,8.69,0,0,0-3,6.7h4.36a5.51,5.51,0,0,1,1.63-4.21,6.2,6.2,0,0,1,4.5-1.63c4,0,6,2,6,6a5.49,5.49,0,0,1-1.78,4.26,7.26,7.26,0,0,1-4.83,1.63h-3.26Zm42-4.55c-.05-4.93-1-8.52-2.68-10.87s-4.4-3.54-8.09-3.54-6.42,1.19-8.14,3.64-2.59,6.17-2.59,11.15v5.8c.05,4.79,1,8.38,2.73,10.82s4.41,3.59,8.05,3.59,6.41-1.24,8.14-3.69,2.58-6.22,2.58-11.3Zm-4.31,6.75c-.05,3.55-.62,6.18-1.63,7.81a5.79,5.79,0,0,1-9.62-.15c-1.05-1.77-1.63-4.45-1.63-8.14v-6.94c.05-3.45.58-6,1.58-7.71a6,6,0,0,1,9.72,0c1.06,1.67,1.58,4.31,1.58,8Z"></path><rect class="cls-1" x="204.01" y="198.43" width="230.73" height="326.85"></rect><rect class="cls-4" x="204.01" y="198.43" width="230.73" height="326.85"></rect></svg> 