<?xml version="1.0" encoding="UTF-8"?> <svg xmlns="http://www.w3.org/2000/svg" id="Livello_1" data-name="Livello 1" viewBox="0 0 741.33 1000.49"><defs><style>.cls-1{fill:#fff;}.cls-2{fill:#231f20;}.cls-3,.cls-4{fill:none;stroke-width:0.25px;}.cls-3{stroke:#000;}.cls-4{stroke:#231f20;stroke-miterlimit:10;}</style></defs><title>NC paralume low cylinder</title><rect class="cls-1" y="0.49" width="741.33" height="1000"></rect><path class="cls-2" d="M220.42,18.22A27.7,27.7,0,0,0,219.34,10a14.73,14.73,0,0,0-2.94-5.63,11,11,0,0,0-4.55-3.24,16.52,16.52,0,0,0-11.75,0,10.83,10.83,0,0,0-4.5,3.24A14.73,14.73,0,0,0,192.66,10a27.7,27.7,0,0,0-1.08,8.27V25.6a27.51,27.51,0,0,0,1.08,8.21,16,16,0,0,0,2.94,5.7,11.08,11.08,0,0,0,4.56,3.23,16.52,16.52,0,0,0,11.75,0,11.11,11.11,0,0,0,4.55-3.23,16,16,0,0,0,2.94-5.7,29.77,29.77,0,0,0,1-8.21ZM212,26.74a21.83,21.83,0,0,1-.42,4.79,9.31,9.31,0,0,1-1.14,3.18,4.29,4.29,0,0,1-1.86,1.74,6.15,6.15,0,0,1-5,0,4.29,4.29,0,0,1-1.86-1.74,9.49,9.49,0,0,1-1.19-3.18,26.89,26.89,0,0,1-.36-4.79V17a26.29,26.29,0,0,1,.36-4.74,9.16,9.16,0,0,1,1.13-3.12,5.1,5.1,0,0,1,1.86-1.74A5.9,5.9,0,0,1,206,6.89a5.57,5.57,0,0,1,2.52.48,4.82,4.82,0,0,1,1.92,1.74,9,9,0,0,1,1.14,3.12A21.35,21.35,0,0,1,212,17Zm43.36,9.65H237l7.49-7.91c1.44-1.5,2.76-2.88,3.9-4.26a29.09,29.09,0,0,0,3-4,19.81,19.81,0,0,0,1.86-3.95,12,12,0,0,0,.72-4.14,14,14,0,0,0-.9-5.1,10.19,10.19,0,0,0-2.7-3.77A12.05,12.05,0,0,0,246,.84a20.05,20.05,0,0,0-6-.84,15.75,15.75,0,0,0-6.18,1.14,13.63,13.63,0,0,0-4.61,3,13.17,13.17,0,0,0-3,4.43,15.21,15.21,0,0,0-1,5.46h8.51a8.56,8.56,0,0,1,.42-2.88,6.78,6.78,0,0,1,1.14-2.28,5.43,5.43,0,0,1,2-1.5,5.92,5.92,0,0,1,2.64-.54A5.18,5.18,0,0,1,244,8.45a6.54,6.54,0,0,1,1.44,4.5,5.56,5.56,0,0,1-.3,1.92,10.4,10.4,0,0,1-.9,2.16,19,19,0,0,1-1.73,2.57,35,35,0,0,1-2.64,3.12L226.08,37.41v5.81h29.25Zm33.84-18.17A27.7,27.7,0,0,0,288.09,10a14.73,14.73,0,0,0-2.94-5.63,10.92,10.92,0,0,0-4.55-3.24A15.32,15.32,0,0,0,274.72,0a15.53,15.53,0,0,0-5.87,1.08,10.83,10.83,0,0,0-4.5,3.24A14.73,14.73,0,0,0,261.41,10a28.05,28.05,0,0,0-1.07,8.27V25.6a27.86,27.86,0,0,0,1.07,8.21,16,16,0,0,0,2.94,5.7,11.08,11.08,0,0,0,4.56,3.23,15.53,15.53,0,0,0,5.87,1.08,15.32,15.32,0,0,0,5.88-1.08,11,11,0,0,0,4.55-3.23,16,16,0,0,0,2.94-5.7,29.77,29.77,0,0,0,1-8.21Zm-8.45,8.52a21.83,21.83,0,0,1-.42,4.79,9.31,9.31,0,0,1-1.14,3.18,4.29,4.29,0,0,1-1.86,1.74,5.57,5.57,0,0,1-2.52.54,5.49,5.49,0,0,1-2.51-.54,4.29,4.29,0,0,1-1.86-1.74,9.27,9.27,0,0,1-1.2-3.18,26.89,26.89,0,0,1-.36-4.79V17a26.29,26.29,0,0,1,.36-4.74,9,9,0,0,1,1.14-3.12,5.1,5.1,0,0,1,1.86-1.74,5.83,5.83,0,0,1,2.51-.48,5.57,5.57,0,0,1,2.52.48,4.82,4.82,0,0,1,1.92,1.74,9,9,0,0,1,1.14,3.12,21.35,21.35,0,0,1,.42,4.74Zm42.83-8.52A27.7,27.7,0,0,0,322.47,10a14.73,14.73,0,0,0-2.94-5.63A11,11,0,0,0,315,1.08,15.24,15.24,0,0,0,309.1,0a15.54,15.54,0,0,0-5.88,1.08,10.86,10.86,0,0,0-4.49,3.24A14.73,14.73,0,0,0,295.79,10a27.7,27.7,0,0,0-1.08,8.27V25.6a27.51,27.51,0,0,0,1.08,8.21,16,16,0,0,0,2.94,5.7,11.11,11.11,0,0,0,4.55,3.23,15.54,15.54,0,0,0,5.88,1.08A15.24,15.24,0,0,0,315,42.74a11.08,11.08,0,0,0,4.56-3.23,16,16,0,0,0,2.94-5.7,29.77,29.77,0,0,0,1-8.21Zm-8.46,8.52a21.83,21.83,0,0,1-.42,4.79,9.12,9.12,0,0,1-1.13,3.18,4.29,4.29,0,0,1-1.86,1.74,6.15,6.15,0,0,1-5,0,4.29,4.29,0,0,1-1.86-1.74,9.27,9.27,0,0,1-1.2-3.18,26.89,26.89,0,0,1-.36-4.79V17a26.29,26.29,0,0,1,.36-4.74,9,9,0,0,1,1.14-3.12,5.1,5.1,0,0,1,1.86-1.74,5.9,5.9,0,0,1,2.52-.48,5.57,5.57,0,0,1,2.52.48,4.82,4.82,0,0,1,1.92,1.74,8.76,8.76,0,0,1,1.13,3.12,21.35,21.35,0,0,1,.42,4.74Zm31-5.16H329.57v6.78h16.48Zm12.39,15v7.07h.66A24.37,24.37,0,0,0,368.63,42a17.81,17.81,0,0,0,6.77-4.73,19.44,19.44,0,0,0,4.08-7.32,31.78,31.78,0,0,0,1.32-9.53v-3a22.2,22.2,0,0,0-1-7.08A16,16,0,0,0,376.9,4.8a13.15,13.15,0,0,0-4.55-3.54A13.87,13.87,0,0,0,366.41,0a14.33,14.33,0,0,0-5.93,1.2A13.28,13.28,0,0,0,356,4.5a13.46,13.46,0,0,0-2.88,4.73,17.29,17.29,0,0,0-1,5.88,19.19,19.19,0,0,0,.77,5.69,13.46,13.46,0,0,0,2.4,4.5,12.1,12.1,0,0,0,3.9,3.06,12.9,12.9,0,0,0,5.39,1.07,10.11,10.11,0,0,0,4.2-.89,11.46,11.46,0,0,0,3.48-2.34,12.33,12.33,0,0,1-1.08,4.43,8.46,8.46,0,0,1-2.52,3.24,11.54,11.54,0,0,1-4,2,21.43,21.43,0,0,1-5.57.66Zm5.45-14.21A5.79,5.79,0,0,1,362,20.62a6.92,6.92,0,0,1-1.14-2.52,12.58,12.58,0,0,1-.36-3.11,12.44,12.44,0,0,1,.36-3A7.5,7.5,0,0,1,362,9.35a5.23,5.23,0,0,1,1.79-1.8,4.44,4.44,0,0,1,2.52-.72,5.6,5.6,0,0,1,2.4.54,7.17,7.17,0,0,1,1.92,1.68,9.09,9.09,0,0,1,1.26,2.88,15.41,15.41,0,0,1,.42,4v3.47a7,7,0,0,1-2.22,2.58,6.16,6.16,0,0,1-3.54,1,5.6,5.6,0,0,1-2.7-.6Zm52.19,14H397.73l7.5-7.91c1.43-1.5,2.75-2.88,3.89-4.26a29.09,29.09,0,0,0,3-4A19.81,19.81,0,0,0,414,16.25a12,12,0,0,0,.72-4.14,14,14,0,0,0-.9-5.1,10.19,10.19,0,0,0-2.7-3.77,12.05,12.05,0,0,0-4.32-2.4,20,20,0,0,0-6-.84,15.75,15.75,0,0,0-6.18,1.14,13.73,13.73,0,0,0-4.61,3,13.17,13.17,0,0,0-3,4.43A15.21,15.21,0,0,0,386,14h8.51a8.56,8.56,0,0,1,.42-2.88,6.78,6.78,0,0,1,1.14-2.28,5.43,5.43,0,0,1,2-1.5,5.92,5.92,0,0,1,2.64-.54,5.2,5.2,0,0,1,4.08,1.62,6.59,6.59,0,0,1,1.43,4.5,5.56,5.56,0,0,1-.3,1.92A10.88,10.88,0,0,1,405,17a18.24,18.24,0,0,1-1.74,2.57,35,35,0,0,1-2.64,3.12L386.82,37.41v5.81h29.26Z"></path><path class="cls-2" d="M148.4,80.45h-3.6v42.63h24.64V120h-21Zm25.2,27.28a19.9,19.9,0,0,0,1,6.41,14.94,14.94,0,0,0,2.88,5,12.84,12.84,0,0,0,4.44,3.3,14.69,14.69,0,0,0,11.63,0,13.73,13.73,0,0,0,4.49-3.3,15.88,15.88,0,0,0,2.82-5,19.9,19.9,0,0,0,1-6.41v-1a19.53,19.53,0,0,0-1-6.35,15.55,15.55,0,0,0-2.82-5.1,13.73,13.73,0,0,0-4.49-3.3,14.3,14.3,0,0,0-5.88-1.2,13.85,13.85,0,0,0-5.75,1.2,13.66,13.66,0,0,0-4.5,3.3,15.55,15.55,0,0,0-2.82,5.1,19.53,19.53,0,0,0-1,6.35Zm3.54-1a16.8,16.8,0,0,1,.66-4.92,13.4,13.4,0,0,1,2-4.13,9.51,9.51,0,0,1,3.36-2.82,9.18,9.18,0,0,1,4.49-1.08,9.72,9.72,0,0,1,4.62,1.08,9.39,9.39,0,0,1,3.35,2.82,13.4,13.4,0,0,1,2,4.13,16.83,16.83,0,0,1,.72,4.92v1a16.94,16.94,0,0,1-.72,5,13.4,13.4,0,0,1-2,4.13,10.8,10.8,0,0,1-3.35,2.82,10.68,10.68,0,0,1-9.11,0,11,11,0,0,1-3.36-2.82,13.4,13.4,0,0,1-2-4.13,16.93,16.93,0,0,1-.66-5ZM210,91.42h-3.6l9.17,31.66h3l8-25.06.42-1.8.36,1.74,8.16,25.12h2.93l9.24-31.66H244l-6.53,24.28-.66,3.06-.84-3.3-7.5-24h-3l-7.62,24.22-.72,2.88-.48-2.76Zm65.88,28.24a10,10,0,0,1-3.11-2.82,12.81,12.81,0,0,1-1.68-4.13,21.17,21.17,0,0,1-.54-4.86v-1.2a21.55,21.55,0,0,1,.54-4.86,11.38,11.38,0,0,1,1.74-4.07,8.77,8.77,0,0,1,3-2.88,9.91,9.91,0,0,1,4.62-1,10.38,10.38,0,0,1,3.36.54A9.15,9.15,0,0,1,286.57,96a8.29,8.29,0,0,1,1.92,2.58,9,9,0,0,1,.78,3.47h3.42a14.1,14.1,0,0,0-1.08-4.67A11.17,11.17,0,0,0,289,93.88a11,11,0,0,0-3.77-2.28,14.75,14.75,0,0,0-10.56.42,12.54,12.54,0,0,0-4.25,3.36,15.4,15.4,0,0,0-2.58,5,22.62,22.62,0,0,0-.84,6.23v1.2a22.94,22.94,0,0,0,.84,6.23,15.4,15.4,0,0,0,2.58,5,12.23,12.23,0,0,0,4.25,3.3,12.79,12.79,0,0,0,5.82,1.26,14.63,14.63,0,0,0,4.62-.78,13,13,0,0,0,3.77-2.16,10.22,10.22,0,0,0,2.7-3.3,10.63,10.63,0,0,0,1.14-4.14h-3.42a7.55,7.55,0,0,1-.84,3.18,9.32,9.32,0,0,1-2,2.34,9.11,9.11,0,0,1-2.75,1.38,9.64,9.64,0,0,1-3.24.48,9.23,9.23,0,0,1-4.62-1Zm24-28.24H296L308,122.84,306.39,127a12.24,12.24,0,0,1-1.08,2.52,7.31,7.31,0,0,1-1.44,1.8,5.23,5.23,0,0,1-1.86,1.08,8,8,0,0,1-2.52.36,4.9,4.9,0,0,1-.84-.06c-.42-.06-.72-.06-1-.12v2.94a1.75,1.75,0,0,1,.54.12c.24.06.48.06.72.12s.54.06.78.12h.66a7.92,7.92,0,0,0,3.72-.78,10.22,10.22,0,0,0,2.52-2,11.26,11.26,0,0,0,1.62-2.52,26.42,26.42,0,0,0,1-2.46l13.43-36.69h-3.77L309.68,118ZM332,78.11h-3.54v45H332Zm13.41,13.31h-3.54v31.66h3.54Zm-3.54-7.49a2.55,2.55,0,0,0,1.8.66,2.4,2.4,0,0,0,1.74-.66,2.21,2.21,0,0,0,.66-1.68,2.13,2.13,0,0,0-.66-1.68,2.22,2.22,0,0,0-1.74-.72,2.25,2.25,0,0,0-2.39,2.4,2.45,2.45,0,0,0,.59,1.68Zm13,7.49v31.66h3.48V101.37a13.36,13.36,0,0,1,1.38-2.75,10.11,10.11,0,0,1,2-2.46,10.26,10.26,0,0,1,2.7-1.68,8.9,8.9,0,0,1,3.42-.6,10.33,10.33,0,0,1,3.12.42,5.09,5.09,0,0,1,2.33,1.38,7.08,7.08,0,0,1,1.5,2.64,13.57,13.57,0,0,1,.54,4.13v20.63h3.48V102.45a17.4,17.4,0,0,0-.72-5.33,9.85,9.85,0,0,0-2-3.6,7.45,7.45,0,0,0-3.18-2,11.68,11.68,0,0,0-4.25-.66,11.42,11.42,0,0,0-3.24.42,12.86,12.86,0,0,0-2.82,1.2,12.43,12.43,0,0,0-2.39,1.92,12.62,12.62,0,0,0-1.86,2.46l-.12-5.4Zm31.5,16.13a22.32,22.32,0,0,0,.84,6.53,16,16,0,0,0,2.4,5.1,11.93,11.93,0,0,0,3.83,3.3,11,11,0,0,0,5.1,1.2,12.7,12.7,0,0,0,5.88-1.26,12.06,12.06,0,0,0,4-3.54l.12,4.2h3.3v-45h-3.48V95.86a12,12,0,0,0-4-3.72,11.67,11.67,0,0,0-5.76-1.32,10.82,10.82,0,0,0-5.1,1.14,11.36,11.36,0,0,0-3.89,3.24,16,16,0,0,0-2.4,5.1,22.88,22.88,0,0,0-.84,6.65Zm3.54-.6a23.48,23.48,0,0,1,.54-5.16,13,13,0,0,1,1.68-4.13,8.06,8.06,0,0,1,2.93-2.76,7.79,7.79,0,0,1,4.2-1,11.34,11.34,0,0,1,3.36.48,9.33,9.33,0,0,1,2.57,1.38,8.23,8.23,0,0,1,1.86,2,13,13,0,0,1,1.32,2.34v14.86A13.19,13.19,0,0,1,407,117.2,7.8,7.8,0,0,1,405,119a9.06,9.06,0,0,1-2.57,1.2,11.42,11.42,0,0,1-3.24.42,8.14,8.14,0,0,1-4.14-1,8.06,8.06,0,0,1-2.93-2.76,13,13,0,0,1-1.68-4.13,23.09,23.09,0,0,1-.54-5.16Zm47.26,16.25a12.16,12.16,0,0,0,5.52-2.94,15.87,15.87,0,0,0,1.86-2.22l-2.22-1.62a10.36,10.36,0,0,1-3.9,3.24,11,11,0,0,1-5,1,10,10,0,0,1-4.44-1,10.66,10.66,0,0,1-3.42-2.7,12.28,12.28,0,0,1-2.21-4,14.73,14.73,0,0,1-.78-4.91v-.66h22.6v-2.16a19.94,19.94,0,0,0-.84-5.81A13,13,0,0,0,442,94.9a11.56,11.56,0,0,0-4-3,12.43,12.43,0,0,0-5.33-1.08A11.78,11.78,0,0,0,427.54,92a14.05,14.05,0,0,0-4.31,3.24,15,15,0,0,0-3,5,19.29,19.29,0,0,0-1.08,6.65v1.26a17.38,17.38,0,0,0,1.08,6.23,14,14,0,0,0,2.94,4.92,12.52,12.52,0,0,0,4.49,3.18,13.65,13.65,0,0,0,5.7,1.2,14.79,14.79,0,0,0,3.83-.48Zm-.6-28.54a9.62,9.62,0,0,1,2.82,2.28,10.72,10.72,0,0,1,1.68,3.3,13.84,13.84,0,0,1,.66,3.89v.36h-19a16,16,0,0,1,1.14-4.37A11,11,0,0,1,426,96.76a10.52,10.52,0,0,1,3-2.22,9.56,9.56,0,0,1,3.72-.72,8.81,8.81,0,0,1,3.89.84Zm30.19-3.48a6.48,6.48,0,0,0-1-.24,9.81,9.81,0,0,0-1.32-.12,9,9,0,0,0-5.39,1.5,10.87,10.87,0,0,0-3.54,4.14l-.06-5H452v31.66h3.48V101.31a15.51,15.51,0,0,1,1.2-2.87,8.33,8.33,0,0,1,1.86-2.22,7.46,7.46,0,0,1,2.51-1.5,9.17,9.17,0,0,1,3.24-.54,14.26,14.26,0,0,1,2.34.18Z"></path><line class="cls-3" x1="573.37" y1="349.4" x2="573.37" y2="514.09"></line><line class="cls-3" x1="513.04" y1="598.31" x2="91.82" y2="598.31"></line><polygon points="646.02 441.6 646.02 442.27 650.66 454.68 654.59 454.68 651.38 445.96 680.21 445.96 680.21 441.6 646.02 441.6"></polygon><path d="M648.22,411a11.63,11.63,0,0,0,0,14.51,8.81,8.81,0,0,0,6.8,2.77,7.92,7.92,0,0,0,4.55-1.34,9.32,9.32,0,0,0,3.11-3.54,9.08,9.08,0,0,0,3.36,4.17,8.72,8.72,0,0,0,5,1.48,9,9,0,0,0,7-2.92,13.07,13.07,0,0,0,0-15.75,8.87,8.87,0,0,0-7-3,8.28,8.28,0,0,0-5,1.58,9.46,9.46,0,0,0-3.36,4.21,9.21,9.21,0,0,0-3.11-3.64,7.81,7.81,0,0,0-4.55-1.34,8.64,8.64,0,0,0-6.8,2.78Zm27.25,2.49a7.63,7.63,0,0,1,0,9.53,6,6,0,0,1-4.55,1.72,6.32,6.32,0,0,1-4.69-1.77,6.2,6.2,0,0,1-1.77-4.69,6.58,6.58,0,0,1,1.81-4.74,6.28,6.28,0,0,1,4.65-1.82,6,6,0,0,1,4.55,1.77Zm-24.61.67a5.77,5.77,0,0,1,4.26-1.63,5.83,5.83,0,0,1,4.21,1.58,5.46,5.46,0,0,1,1.58,4.12,5.63,5.63,0,0,1-1.58,4.16,5.76,5.76,0,0,1-4.21,1.54,5.83,5.83,0,0,1-4.31-1.58,5.52,5.52,0,0,1-1.58-4.12,5.37,5.37,0,0,1,1.63-4.07Z"></path><path d="M268.85,703.57l-2.35,4.74h2.92l1.73-3.5a12,12,0,0,0,4.45.82,11.45,11.45,0,0,0,6-1.58,11.25,11.25,0,0,0,4.07-4.6,15,15,0,0,0,1.43-6.65c0-5-1.53-8.72-4.55-11.11l2.4-4.79H282l-1.68,3.49a11.42,11.42,0,0,0-4.79-1,10.8,10.8,0,0,0-10.05,6.22,14.94,14.94,0,0,0-1.44,6.66c0,5.22,1.63,9,4.79,11.3Zm1.53-18.1a6.23,6.23,0,0,1,5.17-2.54,6.36,6.36,0,0,1,3.12.77l-8,16.23a10.46,10.46,0,0,1-2.25-7.13c0-3.17.62-5.61,2-7.33Zm12.36,7.18a11.27,11.27,0,0,1-1.92,6.9,6.39,6.39,0,0,1-5.22,2.54,6.8,6.8,0,0,1-2.82-.58l8-16.09a10.88,10.88,0,0,1,2,6.85Zm27.4-21.55h-4.6l-15.22,23.61v2.54h15.51v7.9h4.31v-7.9h4.74v-3.54h-4.74ZM305.31,678l.52-.91v16.67H295.2Zm31.37-4.79a11.62,11.62,0,0,0-14.5,0,8.81,8.81,0,0,0-2.78,6.8,7.92,7.92,0,0,0,1.34,4.55,9.32,9.32,0,0,0,3.54,3.11,9,9,0,0,0-4.16,3.36,8.66,8.66,0,0,0-1.49,5,9,9,0,0,0,2.92,7,13.08,13.08,0,0,0,15.76,0,8.9,8.9,0,0,0,3-7,8.34,8.34,0,0,0-1.58-5,9.55,9.55,0,0,0-4.22-3.36,9.21,9.21,0,0,0,3.64-3.11,7.81,7.81,0,0,0,1.34-4.55,8.64,8.64,0,0,0-2.78-6.8Zm-2.49,27.25a7.58,7.58,0,0,1-9.52,0,6,6,0,0,1-1.73-4.55,6.36,6.36,0,0,1,1.77-4.69,6.2,6.2,0,0,1,4.7-1.77,6.58,6.58,0,0,1,4.74,1.82,6.28,6.28,0,0,1,1.82,4.64,6.05,6.05,0,0,1-1.78,4.55Zm-.67-24.61a5.73,5.73,0,0,1,1.63,4.26,5.79,5.79,0,0,1-1.58,4.21,5.41,5.41,0,0,1-4.12,1.58,5.59,5.59,0,0,1-4.16-1.58,6.61,6.61,0,0,1,0-8.52,5.48,5.48,0,0,1,4.11-1.58,5.37,5.37,0,0,1,4.07,1.63Z"></path><rect class="cls-1" x="93.82" y="351.4" width="402.12" height="160.7"></rect><rect class="cls-4" x="93.82" y="351.4" width="402.12" height="160.7"></rect></svg> 