<?xml version="1.0" encoding="UTF-8"?> <svg xmlns="http://www.w3.org/2000/svg" id="Livello_1" data-name="Livello 1" viewBox="0 0 741.33 1000.49"><defs><style>.cls-1{fill:#fff;}.cls-2{fill:#231f20;}.cls-3,.cls-4,.cls-5,.cls-6{fill:none;stroke-width:0.25px;}.cls-3,.cls-5{stroke:#000;}.cls-4,.cls-6{stroke:#231f20;}.cls-5,.cls-6{stroke-miterlimit:10;}.cls-6{stroke-dasharray:5 5;}</style></defs><title>NC Pascia tavolo</title><rect class="cls-1" y="0.49" width="741.33" height="1000"></rect><path class="cls-2" d="M234.91,18.22A28.05,28.05,0,0,0,233.84,10a14.73,14.73,0,0,0-2.94-5.63,11,11,0,0,0-4.56-3.24A15.27,15.27,0,0,0,220.47,0a15.54,15.54,0,0,0-5.88,1.08,10.74,10.74,0,0,0-4.49,3.24A14.73,14.73,0,0,0,207.16,10a27.7,27.7,0,0,0-1.08,8.27V25.6a27.51,27.51,0,0,0,1.08,8.21,16,16,0,0,0,2.94,5.7,11,11,0,0,0,4.55,3.23,15.54,15.54,0,0,0,5.88,1.08,15.27,15.27,0,0,0,5.87-1.08A11.08,11.08,0,0,0,231,39.51a16,16,0,0,0,2.94-5.7,30.19,30.19,0,0,0,1-8.21Zm-8.45,8.52a21.83,21.83,0,0,1-.42,4.79,9.31,9.31,0,0,1-1.14,3.18A4.29,4.29,0,0,1,223,36.45a5.49,5.49,0,0,1-2.51.54,5.57,5.57,0,0,1-2.52-.54,4.29,4.29,0,0,1-1.86-1.74,9.27,9.27,0,0,1-1.2-3.18,26.89,26.89,0,0,1-.36-4.79V17a26.29,26.29,0,0,1,.36-4.74,9,9,0,0,1,1.14-3.12A5.1,5.1,0,0,1,218,7.37a5.9,5.9,0,0,1,2.52-.48,5.5,5.5,0,0,1,2.51.48,4.82,4.82,0,0,1,1.92,1.74A9,9,0,0,1,226,12.23a21.35,21.35,0,0,1,.42,4.74Zm43.37,9.65H251.49L259,28.48c1.44-1.5,2.76-2.88,3.9-4.26a29,29,0,0,0,3-4,19.81,19.81,0,0,0,1.86-3.95,12,12,0,0,0,.72-4.14,14,14,0,0,0-.9-5.1,10.19,10.19,0,0,0-2.7-3.77,11.92,11.92,0,0,0-4.31-2.4,20.12,20.12,0,0,0-6-.84,15.74,15.74,0,0,0-6.17,1.14,13.67,13.67,0,0,0-4.62,3,13,13,0,0,0-3,4.43,15.21,15.21,0,0,0-1,5.46h8.51a8.56,8.56,0,0,1,.42-2.88,6.78,6.78,0,0,1,1.14-2.28,5.43,5.43,0,0,1,2-1.5,5.87,5.87,0,0,1,2.63-.54,5.2,5.2,0,0,1,4.08,1.62,6.54,6.54,0,0,1,1.44,4.5,5.56,5.56,0,0,1-.3,1.92,10.4,10.4,0,0,1-.9,2.16A18.24,18.24,0,0,1,257,19.6a35,35,0,0,1-2.64,3.12L240.58,37.41v5.81h29.25Zm33.84-18.17A27.7,27.7,0,0,0,302.59,10a14.73,14.73,0,0,0-2.94-5.63,11,11,0,0,0-4.56-3.24A15.24,15.24,0,0,0,289.22,0a15.54,15.54,0,0,0-5.88,1.08,10.86,10.86,0,0,0-4.49,3.24A14.73,14.73,0,0,0,275.91,10a27.7,27.7,0,0,0-1.08,8.27V25.6a27.51,27.51,0,0,0,1.08,8.21,16,16,0,0,0,2.94,5.7,11.11,11.11,0,0,0,4.55,3.23,15.54,15.54,0,0,0,5.88,1.08,15.24,15.24,0,0,0,5.87-1.08,11.08,11.08,0,0,0,4.56-3.23,16,16,0,0,0,2.94-5.7,29.77,29.77,0,0,0,1-8.21Zm-8.46,8.52a21.83,21.83,0,0,1-.42,4.79,9.32,9.32,0,0,1-1.13,3.18,4.29,4.29,0,0,1-1.86,1.74,6.15,6.15,0,0,1-5,0,4.29,4.29,0,0,1-1.86-1.74,9.27,9.27,0,0,1-1.2-3.18,26.89,26.89,0,0,1-.36-4.79V17a26.29,26.29,0,0,1,.36-4.74,9,9,0,0,1,1.14-3.12,5.1,5.1,0,0,1,1.86-1.74,5.9,5.9,0,0,1,2.52-.48,5.57,5.57,0,0,1,2.52.48,4.82,4.82,0,0,1,1.92,1.74,9,9,0,0,1,1.13,3.12,21.35,21.35,0,0,1,.42,4.74ZM331.09.18a22.29,22.29,0,0,0-9.17,1.74,19.42,19.42,0,0,0-6.84,4.79,22.12,22.12,0,0,0-4.25,7.44,29.21,29.21,0,0,0-1.44,9.41v3.3a21,21,0,0,0,1.08,6.89,16.17,16.17,0,0,0,3,5.34,13.67,13.67,0,0,0,4.74,3.47,14.78,14.78,0,0,0,6.18,1.26,15.4,15.4,0,0,0,5.93-1.14,13.82,13.82,0,0,0,4.56-3.11A13.54,13.54,0,0,0,337.74,35a16.61,16.61,0,0,0,1-5.76,20.87,20.87,0,0,0-.78-5.57A14,14,0,0,0,335.71,19a11.2,11.2,0,0,0-3.78-3.11,11.67,11.67,0,0,0-5.34-1.2,12.48,12.48,0,0,0-4.85,1A11.93,11.93,0,0,0,318,18.22a13.92,13.92,0,0,1,1.44-4.61,10.44,10.44,0,0,1,2.76-3.48,13.3,13.3,0,0,1,4.19-2.22,16.52,16.52,0,0,1,5.4-.78h.48V.18Zm-4.44,21.88a6.52,6.52,0,0,1,2,1.62,7.94,7.94,0,0,1,1.26,2.46,10.31,10.31,0,0,1,.42,3.11,10.33,10.33,0,0,1-.42,3.12,7.61,7.61,0,0,1-1.26,2.4,5,5,0,0,1-1.92,1.62,4.89,4.89,0,0,1-2.51.6,6.21,6.21,0,0,1-2.58-.54,6,6,0,0,1-2-1.68A9.36,9.36,0,0,1,318.32,32a15.53,15.53,0,0,1-.48-3.95V25.42a5.78,5.78,0,0,1,1-1.5,5.58,5.58,0,0,1,1.38-1.26,6.65,6.65,0,0,1,1.74-.84,7,7,0,0,1,4.73.24Zm33.84-.48H344v6.78h16.49Zm35.11-3.36A27.7,27.7,0,0,0,394.52,10a14.73,14.73,0,0,0-2.94-5.63A11,11,0,0,0,387,1.08,15.24,15.24,0,0,0,381.15,0a15.54,15.54,0,0,0-5.88,1.08,10.86,10.86,0,0,0-4.49,3.24A14.73,14.73,0,0,0,367.84,10a27.7,27.7,0,0,0-1.08,8.27V25.6a27.51,27.51,0,0,0,1.08,8.21,16,16,0,0,0,2.94,5.7,11.11,11.11,0,0,0,4.55,3.23,15.54,15.54,0,0,0,5.88,1.08,15.24,15.24,0,0,0,5.87-1.08,11.08,11.08,0,0,0,4.56-3.23,16,16,0,0,0,2.94-5.7,29.77,29.77,0,0,0,1-8.21Zm-8.46,8.52a21.83,21.83,0,0,1-.42,4.79,9.54,9.54,0,0,1-1.13,3.18,4.29,4.29,0,0,1-1.86,1.74,6.15,6.15,0,0,1-5,0,4.29,4.29,0,0,1-1.86-1.74,9.27,9.27,0,0,1-1.2-3.18,26.89,26.89,0,0,1-.36-4.79V17a26.29,26.29,0,0,1,.36-4.74,9,9,0,0,1,1.14-3.12,5.1,5.1,0,0,1,1.86-1.74,5.9,5.9,0,0,1,2.52-.48,5.57,5.57,0,0,1,2.52.48,4.82,4.82,0,0,1,1.92,1.74,9.16,9.16,0,0,1,1.13,3.12,21.35,21.35,0,0,1,.42,4.74ZM430,18.22A27.7,27.7,0,0,0,428.89,10,14.86,14.86,0,0,0,426,4.32a11,11,0,0,0-4.56-3.24A15.32,15.32,0,0,0,415.52,0a15.53,15.53,0,0,0-5.87,1.08,10.83,10.83,0,0,0-4.5,3.24A14.72,14.72,0,0,0,402.22,10a27.7,27.7,0,0,0-1.08,8.27V25.6a27.51,27.51,0,0,0,1.08,8.21,16,16,0,0,0,2.93,5.7,11.08,11.08,0,0,0,4.56,3.23,15.53,15.53,0,0,0,5.87,1.08,15.32,15.32,0,0,0,5.88-1.08A11.08,11.08,0,0,0,426,39.51a16.11,16.11,0,0,0,2.93-5.7,29.77,29.77,0,0,0,1-8.21Zm-8.45,8.52a21.83,21.83,0,0,1-.42,4.79A9.31,9.31,0,0,1,420,34.71a4.29,4.29,0,0,1-1.86,1.74,6.13,6.13,0,0,1-5,0,4.29,4.29,0,0,1-1.86-1.74,9.27,9.27,0,0,1-1.2-3.18,26.89,26.89,0,0,1-.36-4.79V17a26.29,26.29,0,0,1,.36-4.74,9,9,0,0,1,1.14-3.12A5.1,5.1,0,0,1,413,7.37a5.89,5.89,0,0,1,2.51-.48,5.57,5.57,0,0,1,2.52.48A4.82,4.82,0,0,1,420,9.11a9,9,0,0,1,1.14,3.12,21.35,21.35,0,0,1,.42,4.74Z"></path><path class="cls-2" d="M250.24,105.69a19.78,19.78,0,0,0,6.23-.84,12.58,12.58,0,0,0,4.5-2.46,10.34,10.34,0,0,0,2.7-3.89,14.87,14.87,0,0,0,.9-5.34,13.92,13.92,0,0,0-.9-5.09A10.7,10.7,0,0,0,260.91,84a12.66,12.66,0,0,0-4.5-2.58,17.5,17.5,0,0,0-6.17-1H235.73v42.63h3.6V105.69ZM239.33,83.51h10.91a14.74,14.74,0,0,1,4.91.78,10.06,10.06,0,0,1,3.3,2.1,8,8,0,0,1,1.92,3.12,11.14,11.14,0,0,1,.6,3.71,10.52,10.52,0,0,1-.6,3.72,7.18,7.18,0,0,1-1.92,3,8.32,8.32,0,0,1-3.3,2,14.83,14.83,0,0,1-4.91.72H239.33Zm56.19,39.57v-.36a11.63,11.63,0,0,1-.42-1.32c-.12-.48-.18-1-.3-1.56s-.12-1.08-.18-1.68a16.29,16.29,0,0,1-.06-1.68V101.13a11.53,11.53,0,0,0-.83-4.49,8.81,8.81,0,0,0-2.4-3.24,10.37,10.37,0,0,0-3.6-1.92,16.55,16.55,0,0,0-9.65.12,13.81,13.81,0,0,0-3.84,2.1,9.84,9.84,0,0,0-2.46,3,6.88,6.88,0,0,0-.84,3.42l3.48.06a5.26,5.26,0,0,1,.66-2.52,6.87,6.87,0,0,1,1.74-2,8.1,8.1,0,0,1,2.7-1.32,10.1,10.1,0,0,1,3.35-.54q4,0,6.12,2a6.91,6.91,0,0,1,2.1,5.34v3.59h-6.48a26.37,26.37,0,0,0-6.05.66,13.86,13.86,0,0,0-4.56,2,8.27,8.27,0,0,0-3.83,7.31,8.69,8.69,0,0,0,.72,3.54,8.21,8.21,0,0,0,2,2.88,9.67,9.67,0,0,0,3.24,1.92,13.4,13.4,0,0,0,4.2.66,15.7,15.7,0,0,0,3.47-.42,19.5,19.5,0,0,0,3-1.08,11.23,11.23,0,0,0,2.4-1.62,9.35,9.35,0,0,0,1.86-1.92c.06.84.12,1.62.24,2.46a8,8,0,0,0,.48,2Zm-17.68-3a7.11,7.11,0,0,1-2.28-1.32,5.14,5.14,0,0,1-1.38-2,5.41,5.41,0,0,1-.54-2.4,5.93,5.93,0,0,1,.78-2.93,6.24,6.24,0,0,1,2.28-2.22,11,11,0,0,1,3.6-1.38,19.32,19.32,0,0,1,4.79-.48h6v6.95a10.64,10.64,0,0,1-1.56,2.46,12.3,12.3,0,0,1-2.28,2,11.88,11.88,0,0,1-2.94,1.32,13.21,13.21,0,0,1-3.53.48,8.88,8.88,0,0,1-2.94-.48Zm44.51-2.94a5.75,5.75,0,0,1-1.56,1.86,11.48,11.48,0,0,1-2.58,1.26,12.71,12.71,0,0,1-3.53.42,13.05,13.05,0,0,1-3-.3,8.88,8.88,0,0,1-2.82-1.08,6,6,0,0,1-2.1-2,6.19,6.19,0,0,1-1-3.12h-3.53a8.08,8.08,0,0,0,.84,3.54,8.87,8.87,0,0,0,2.39,3.06,11.77,11.77,0,0,0,3.84,2.1,18.18,18.18,0,0,0,5.34.78,17.29,17.29,0,0,0,4.85-.66,10.44,10.44,0,0,0,3.66-1.8,8.77,8.77,0,0,0,2.4-2.76,7.92,7.92,0,0,0,.78-3.6,7.43,7.43,0,0,0-.66-3.35,6.79,6.79,0,0,0-2-2.58,14.7,14.7,0,0,0-3.48-2,32.91,32.91,0,0,0-4.91-1.44,33.08,33.08,0,0,1-4.32-1.26,9.21,9.21,0,0,1-2.58-1.38,3.17,3.17,0,0,1-1.26-1.62,4.89,4.89,0,0,1-.36-1.91,4.8,4.8,0,0,1,.48-2,4.66,4.66,0,0,1,1.32-1.8A8.12,8.12,0,0,1,311,94.3a10,10,0,0,1,3.48-.48,10.32,10.32,0,0,1,3.47.54,7.61,7.61,0,0,1,2.58,1.44,6,6,0,0,1,1.62,2.1,5.6,5.6,0,0,1,.54,2.4h3.48a8.7,8.7,0,0,0-.78-3.78,9.27,9.27,0,0,0-2.28-3,11.57,11.57,0,0,0-3.72-2,16.8,16.8,0,0,0-9.53-.06,11.63,11.63,0,0,0-3.54,1.86,8.07,8.07,0,0,0-2.22,2.76,7.39,7.39,0,0,0-.77,3.36,7.57,7.57,0,0,0,.71,3.35,6.5,6.5,0,0,0,2.16,2.46,12.64,12.64,0,0,0,3.48,1.8,37.33,37.33,0,0,0,4.68,1.26,25.27,25.27,0,0,1,4.31,1.32,8.67,8.67,0,0,1,2.58,1.62,5.56,5.56,0,0,1,1.26,1.79,5.76,5.76,0,0,1,.36,2,4.38,4.38,0,0,1-.54,2.1Zm18.91,2.52a9.9,9.9,0,0,1-3.11-2.82,12.81,12.81,0,0,1-1.68-4.13,21.17,21.17,0,0,1-.54-4.86v-1.2a21.55,21.55,0,0,1,.54-4.86,11.38,11.38,0,0,1,1.74-4.07,8.69,8.69,0,0,1,3.05-2.88,9.91,9.91,0,0,1,4.62-1,10.38,10.38,0,0,1,3.36.54A9.15,9.15,0,0,1,352,96a8.29,8.29,0,0,1,1.92,2.58,9,9,0,0,1,.78,3.47h3.42A14.1,14.1,0,0,0,357,97.42a11.17,11.17,0,0,0-2.64-3.54,11,11,0,0,0-3.78-2.28,13.46,13.46,0,0,0-4.73-.78,13.62,13.62,0,0,0-5.82,1.2,12.54,12.54,0,0,0-4.25,3.36,15.4,15.4,0,0,0-2.58,5,22.62,22.62,0,0,0-.84,6.23v1.2a22.94,22.94,0,0,0,.84,6.23,15.4,15.4,0,0,0,2.58,5,12.23,12.23,0,0,0,4.25,3.3,12.79,12.79,0,0,0,5.82,1.26,14.52,14.52,0,0,0,4.61-.78,13,13,0,0,0,3.78-2.16,10.22,10.22,0,0,0,2.7-3.3,10.63,10.63,0,0,0,1.14-4.14h-3.42a7.55,7.55,0,0,1-.84,3.18,9.32,9.32,0,0,1-2,2.34,9.11,9.11,0,0,1-2.75,1.38,9.64,9.64,0,0,1-3.24.48,9.23,9.23,0,0,1-4.62-1ZM369,91.42h-3.54v31.66H369Zm-3.54-7.49a2.55,2.55,0,0,0,1.8.66,2.4,2.4,0,0,0,1.74-.66,2.21,2.21,0,0,0,.66-1.68,2.13,2.13,0,0,0-.66-1.68,2.22,2.22,0,0,0-1.74-.72,2.35,2.35,0,0,0-1.8.72,2.31,2.31,0,0,0-.6,1.68,2.41,2.41,0,0,0,.6,1.68Zm36.74,39.15v-.36a11.63,11.63,0,0,1-.42-1.32c-.12-.48-.18-1-.3-1.56s-.12-1.08-.18-1.68a16.29,16.29,0,0,1-.06-1.68V101.13a11.35,11.35,0,0,0-.84-4.49A8.81,8.81,0,0,0,398,93.4a10.37,10.37,0,0,0-3.6-1.92,16.56,16.56,0,0,0-9.65.12,13.6,13.6,0,0,0-3.83,2.1,9.84,9.84,0,0,0-2.46,3,6.88,6.88,0,0,0-.84,3.42l3.48.06a5.37,5.37,0,0,1,.65-2.52,6.87,6.87,0,0,1,1.74-2,8.1,8.1,0,0,1,2.7-1.32,10.12,10.12,0,0,1,3.36-.54c2.7,0,4.73.66,6.11,2a6.91,6.91,0,0,1,2.1,5.34v3.59h-6.47a26.4,26.4,0,0,0-6.06.66,13.71,13.71,0,0,0-4.55,2,8.9,8.9,0,0,0-2.88,3.12,8.8,8.8,0,0,0-1,4.19,8.69,8.69,0,0,0,.72,3.54,8.36,8.36,0,0,0,2,2.88,9.63,9.63,0,0,0,3.23,1.92,13.4,13.4,0,0,0,4.2.66,15.79,15.79,0,0,0,3.48-.42,19,19,0,0,0,3-1.08,11.23,11.23,0,0,0,2.4-1.62,9.35,9.35,0,0,0,1.86-1.92c.06.84.12,1.62.24,2.46a8,8,0,0,0,.48,2Zm-17.69-3a7.11,7.11,0,0,1-2.28-1.32,5.11,5.11,0,0,1-1.37-2,5.41,5.41,0,0,1-.54-2.4,5.93,5.93,0,0,1,.78-2.93,6.13,6.13,0,0,1,2.27-2.22,11,11,0,0,1,3.6-1.38,19.4,19.4,0,0,1,4.8-.48h6v6.95a10.64,10.64,0,0,1-1.56,2.46,12.3,12.3,0,0,1-2.28,2,11.81,11.81,0,0,1-2.93,1.32,13.28,13.28,0,0,1-3.54.48,8.88,8.88,0,0,1-2.94-.48Zm2.94-41.61h-4.26l6.66,8.16H393Z"></path><line class="cls-3" x1="565.21" y1="578.77" x2="565.21" y2="1000"></line><path d="M638,795.22v4.6L661.61,815h2.54V799.53h7.9v-4.31h-7.9v-4.74h-3.54v4.74Zm6.85,4.84-.91-.53h16.67v10.63ZM638,768.29v4.6l23.61,15.23h2.54V772.6h7.9v-4.31h-7.9v-4.74h-3.54v4.74Zm6.85,4.84-.91-.53h16.67v10.63Z"></path><rect class="cls-1" x="311.4" y="521.14" width="12.36" height="32.05"></rect><rect class="cls-4" x="311.4" y="521.14" width="12.36" height="32.05"></rect><rect class="cls-5" x="278.78" y="555.22" width="80.07" height="9.18"></rect><rect class="cls-5" x="277.59" y="960.15" width="80.07" height="9.19"></rect><path class="cls-1" d="M432.24,985.74H208.18V977.9H432.24Zm-7.15,12.42H217.92V985.74H425.09Zm-88.15-434,12.34,238.56s2.59,50.32,61,62.08c0,0,78.59,13.73,71.44,42.49,0,0,15.92,51.63-167.39,51h4.7c-183.3.66-167.39-51-167.39-51-7.15-28.76,71.44-42.49,71.44-42.49,58.44-11.76,61-62.08,61-62.08L296.5,564.18"></path><path class="cls-4" d="M432.24,985.74H208.18V977.9H432.24Zm-7.15,12.42H217.92V985.74H425.09Zm-88.15-434,12.34,238.56s2.59,50.32,61,62.08c0,0,78.59,13.73,71.44,42.49,0,0,15.92,51.63-167.39,51h4.7c-183.3.66-167.39-51-167.39-51-7.15-28.76,71.44-42.49,71.44-42.49,58.44-11.76,61-62.08,61-62.08L296.5,564.18"></path><polygon class="cls-1" points="316.71 971.36 316.71 977.81 316.71 971.36 310.72 971.36 310.72 977.81 324.54 977.81 324.54 971.36 316.71 971.36"></polygon><path class="cls-4" d="M324.54,977.81H310.73v-6.45h13.81Zm0,0H310.73v-6.45h13.81Zm0,0H310.73v-6.45h13.81v6.45m-7.83-6.45v6.46"></path><line class="cls-6" x1="522.73" y1="519.04" x2="109.43" y2="519.04"></line><line class="cls-6" x1="101.4" y1="506.99" x2="101.4" y2="350.35"></line><line class="cls-6" x1="113.45" y1="342.32" x2="526.74" y2="342.32"></line><line class="cls-6" x1="534.77" y1="354.37" x2="534.77" y2="511.01"></line><path class="cls-6" d="M105.42,519h-4v-4m0-168.69v-4h4m425.33,0h4v4m0,168.69v4h-4"></path></svg> 