<?xml version="1.0" encoding="UTF-8"?> <svg xmlns="http://www.w3.org/2000/svg" id="Livello_1" data-name="Livello 1" viewBox="0 0 1245.33 1000.49"><defs><style>.cls-1{fill:#fff;}.cls-2{fill:#231f20;}.cls-3,.cls-4{fill:none;stroke-width:0.25px;}.cls-3{stroke:#000;}.cls-4{stroke:#231f20;}</style></defs><title>Polar tavolo</title><rect class="cls-1" y="0.49" width="1245.33" height="1000"></rect><path class="cls-2" d="M408.73.66h-1.09L386.19,8.39v8.32l12.25-3.8V52.6h10.29Zm41.83,0h-1.09L428,8.39v8.32l12.25-3.8V52.6h10.29Zm51.75,21.52A33.9,33.9,0,0,0,501,12.11a17.85,17.85,0,0,0-3.58-6.86,13.44,13.44,0,0,0-5.54-3.94A18.74,18.74,0,0,0,484.73,0a19,19,0,0,0-7.15,1.31,13.29,13.29,0,0,0-5.47,3.94,18,18,0,0,0-3.57,6.86,33.55,33.55,0,0,0-1.32,10.07v9a33.36,33.36,0,0,0,1.32,10,19.27,19.27,0,0,0,3.57,6.93A13.29,13.29,0,0,0,477.66,52a18.75,18.75,0,0,0,7.14,1.31A18.52,18.52,0,0,0,492,52a13.29,13.29,0,0,0,5.55-3.94,19.27,19.27,0,0,0,3.57-6.93,36.37,36.37,0,0,0,1.24-10ZM492,32.53a26.94,26.94,0,0,1-.51,5.84,11.57,11.57,0,0,1-1.39,3.87,5.23,5.23,0,0,1-2.26,2.11,7.45,7.45,0,0,1-6.13,0,5.18,5.18,0,0,1-2.26-2.11A11.1,11.1,0,0,1,478,38.37a33,33,0,0,1-.44-5.84V20.64a32.06,32.06,0,0,1,.44-5.76,10.75,10.75,0,0,1,1.39-3.79A6.13,6.13,0,0,1,481.67,9a7.14,7.14,0,0,1,3.06-.58A6.77,6.77,0,0,1,487.8,9a6,6,0,0,1,2.33,2.12,11.15,11.15,0,0,1,1.39,3.79,26.22,26.22,0,0,1,.51,5.76ZM535.68.22a27.33,27.33,0,0,0-11.16,2.11,23.57,23.57,0,0,0-8.32,5.84,26.85,26.85,0,0,0-5.18,9,35.73,35.73,0,0,0-1.75,11.45v4a25.5,25.5,0,0,0,1.32,8.39,19.41,19.41,0,0,0,3.64,6.49A16.64,16.64,0,0,0,520,51.79a18,18,0,0,0,7.51,1.53,18.81,18.81,0,0,0,7.22-1.38,16.83,16.83,0,0,0,5.55-3.79,16.63,16.63,0,0,0,3.5-5.62,20.25,20.25,0,0,0,1.24-7,25.6,25.6,0,0,0-.95-6.79,17,17,0,0,0-2.77-5.62,13.67,13.67,0,0,0-4.6-3.79,14.17,14.17,0,0,0-6.49-1.46A15.23,15.23,0,0,0,524.3,19a14.19,14.19,0,0,0-4.52,3.14,16.75,16.75,0,0,1,1.75-5.62,12.73,12.73,0,0,1,3.35-4.23A16.27,16.27,0,0,1,530,9.63a20,20,0,0,1,6.57-1h.58V.22Zm-5.4,26.62a8.14,8.14,0,0,1,2.41,2,9.54,9.54,0,0,1,1.53,3,12.33,12.33,0,0,1,.51,3.79,12.41,12.41,0,0,1-.51,3.79,9,9,0,0,1-1.53,2.92,6.06,6.06,0,0,1-2.34,2,5.93,5.93,0,0,1-3.06.73,7.56,7.56,0,0,1-3.14-.66,7.35,7.35,0,0,1-2.48-2,11.74,11.74,0,0,1-1.53-3.43,19.09,19.09,0,0,1-.58-4.81V30.93a6.88,6.88,0,0,1,1.17-1.82,6.68,6.68,0,0,1,1.67-1.54,8.44,8.44,0,0,1,2.12-1,8.65,8.65,0,0,1,5.76.29Zm41.18-.58H551.4V34.5h20.06Zm42.72-4.08a33.55,33.55,0,0,0-1.32-10.07,18,18,0,0,0-3.57-6.86,13.47,13.47,0,0,0-5.55-3.94A18.7,18.7,0,0,0,596.59,0a18.94,18.94,0,0,0-7.14,1.31A13.32,13.32,0,0,0,584,5.25a18,18,0,0,0-3.57,6.86,33.58,33.58,0,0,0-1.31,10.07v9a33.38,33.38,0,0,0,1.31,10A19.43,19.43,0,0,0,584,48.07,13.35,13.35,0,0,0,589.52,52a18.8,18.8,0,0,0,7.15,1.31A18.59,18.59,0,0,0,603.82,52a13.32,13.32,0,0,0,5.54-3.94,19.27,19.27,0,0,0,3.57-6.93,36,36,0,0,0,1.25-10ZM603.89,32.53a26.94,26.94,0,0,1-.51,5.84A11.15,11.15,0,0,1,602,42.24a5.18,5.18,0,0,1-2.26,2.11,7.45,7.45,0,0,1-6.13,0,5.29,5.29,0,0,1-2.26-2.11,11.51,11.51,0,0,1-1.46-3.87,33.06,33.06,0,0,1-.43-5.84V20.64a32.16,32.16,0,0,1,.43-5.76,11.15,11.15,0,0,1,1.39-3.79A6.29,6.29,0,0,1,593.53,9a7.14,7.14,0,0,1,3.06-.58,6.77,6.77,0,0,1,3.07.58A5.82,5.82,0,0,1,602,11.09a10.75,10.75,0,0,1,1.39,3.79,26.22,26.22,0,0,1,.51,5.76Zm27.68-2.4H637a13.33,13.33,0,0,1,3.57.44,10.4,10.4,0,0,1,2.7,1.38A7.2,7.2,0,0,1,645,34.36a10.59,10.59,0,0,1,.58,3.57,7.8,7.8,0,0,1-.58,2.92A5,5,0,0,1,643.46,43,5.59,5.59,0,0,1,641,44.5a9.23,9.23,0,0,1-3.28.51,8.19,8.19,0,0,1-3-.51,6.4,6.4,0,0,1-2.4-1.39,6.25,6.25,0,0,1-1.61-2,6.45,6.45,0,0,1-.58-2.7H619.82A13.44,13.44,0,0,0,621.36,45a13.74,13.74,0,0,0,4,4.67A17.62,17.62,0,0,0,631,52.45a24.65,24.65,0,0,0,6.5.87,25.79,25.79,0,0,0,7.29-1,16.82,16.82,0,0,0,5.84-3,13.59,13.59,0,0,0,3.86-4.74,15.34,15.34,0,0,0,1.39-6.49A12.14,12.14,0,0,0,647.18,26a16.85,16.85,0,0,0,3.35-2.12A16.55,16.55,0,0,0,653,21.23a13.85,13.85,0,0,0,1.54-3.14,12.87,12.87,0,0,0,.51-3.28,15,15,0,0,0-1.32-6.42,13.05,13.05,0,0,0-3.57-4.6A16.49,16.49,0,0,0,644.63,1,27.12,27.12,0,0,0,637.48,0a21.68,21.68,0,0,0-6.64,1,18.15,18.15,0,0,0-5.4,2.85,14.45,14.45,0,0,0-3.65,4.45,13,13,0,0,0-1.31,5.83h10.29a5.29,5.29,0,0,1,.58-2.41,5.18,5.18,0,0,1,1.46-1.82,6,6,0,0,1,2.26-1.17,7.68,7.68,0,0,1,2.63-.43,7.93,7.93,0,0,1,3.13.51A5.58,5.58,0,0,1,643,10.21a5.26,5.26,0,0,1,1.31,2.12,7.43,7.43,0,0,1,.44,2.62,7.17,7.17,0,0,1-1.9,5.18c-1.31,1.32-3.21,2-5.83,2h-5.47Z"></path><path class="cls-3" d="M152.61,906.33H359.35m160.4,0H919.47m110.45-684V841.8"></path><path d="M1088.84,541.66c.12,6.41,2.16,11.24,6.18,14.51s9.85,4.89,17.48,4.89h2a18.34,18.34,0,0,0,11.77-3.73,11.75,11.75,0,0,0,4.54-9.61,12,12,0,0,0-3.84-9.38c-2.56-2.33-5.94-3.5-10.26-3.5a14.76,14.76,0,0,0-9.84,3.26,10.81,10.81,0,0,0-3.79,8.63c0,3.79,1.22,6.76,3.73,8.91-4.26-.35-7.52-1.74-9.91-4.19a13.94,13.94,0,0,1-3.61-9.79v-1h-4.49Zm21.39.46a10.6,10.6,0,0,1,6.81-2,10.39,10.39,0,0,1,6.82,2,6.65,6.65,0,0,1,2.62,5.6,6.92,6.92,0,0,1-3.08,5.71,13.37,13.37,0,0,1-8.22,2.33h-1.92a8.12,8.12,0,0,1-4-3.15,8.4,8.4,0,0,1-1.63-5,6.66,6.66,0,0,1,2.62-5.48Zm-21.39-35.73V512l28.73,18.53h3.09V511.63h9.61v-5.24h-9.61v-5.77h-4.31v5.77Zm8.34,5.88-1.11-.64h20.28v12.94Z"></path><path d="M253.83,995.11H233L244.1,983c5.25-5.59,7.81-10.48,7.81-14.56a10.42,10.42,0,0,0-3.32-8c-2.27-2-5.3-3-9.15-3-4.14,0-7.4,1.16-9.85,3.55a12,12,0,0,0-3.73,9.21h5.31a8.67,8.67,0,0,1,2.15-6.24,8.28,8.28,0,0,1,6.12-2.21,6.94,6.94,0,0,1,5.24,2.09,7.41,7.41,0,0,1,1.93,5.31,10,10,0,0,1-1.17,4.66,31.91,31.91,0,0,1-4.43,5.88l-14.33,16v3.79h27.15Zm31.6-20.17c-.06-6-1.16-10.37-3.26-13.22s-5.36-4.31-9.85-4.31-7.81,1.45-9.9,4.42-3.15,7.52-3.15,13.58v7.05c.06,5.83,1.16,10.2,3.32,13.17s5.36,4.37,9.79,4.37,7.81-1.51,9.91-4.49,3.14-7.57,3.14-13.75Zm-5.24,8.22c-.06,4.31-.76,7.52-2,9.5a7.06,7.06,0,0,1-11.72-.18c-1.28-2.15-2-5.42-2-9.9v-8.45c.06-4.2.7-7.34,1.93-9.38a6.33,6.33,0,0,1,5.88-3,6.44,6.44,0,0,1,5.95,3.09c1.28,2,1.92,5.24,1.92,9.73Z"></path><path d="M712.51,958h-5.59l-18.53,28.72v3.09h18.88v9.62h5.24V989.8h5.77v-4.31h-5.77Zm-5.88,8.33.64-1.11v20.28H694.33Zm42.43,8.62c-.06-6-1.16-10.37-3.26-13.22s-5.36-4.31-9.85-4.31-7.81,1.45-9.9,4.42-3.15,7.52-3.15,13.58v7.05c.06,5.83,1.17,10.2,3.32,13.17s5.36,4.37,9.79,4.37,7.81-1.51,9.91-4.49,3.14-7.57,3.14-13.75Zm-5.24,8.22c-.06,4.31-.76,7.52-2,9.5a7.06,7.06,0,0,1-11.71-.18c-1.29-2.15-2-5.42-2-9.9v-8.45c.06-4.2.7-7.34,1.93-9.38a6.33,6.33,0,0,1,5.88-3,6.44,6.44,0,0,1,5.95,3.09c1.28,2,1.92,5.24,1.92,9.73Z"></path><path class="cls-1" d="M338.74,832.86H167.68V816.92H338.74Zm-79.69-16.15,71.1-.3c21.12,2.57,17-12.34,17-12.34L322.94,246.72S297,226.6,252.87,227.18h-1.21c-39.67,0-70.07,19.54-70.07,19.54L157.38,804.07s-4.13,14.91,17,12.34l71.11.3ZM907.3,832.86H544.58V816.92H907.3ZM577.81,816c-44.59,1.16-45.55-8.74-45.4-12.51.1-2.2.7-4.34.8-6.52l24-539.79a14.66,14.66,0,0,1,11.65-13.71c38-8.07,167.89-30.75,310.25.07A14.48,14.48,0,0,1,890.52,257l23.33,540.21c.31,2.17.62,3.16.7,4.76.21,4.15,1.43,14.56-26.83,14Z"></path><path class="cls-4" d="M338.74,832.86H167.68V816.92H338.74Zm-79.69-16.15,71.1-.3c21.12,2.57,17-12.34,17-12.34L322.94,246.72S297,226.6,252.87,227.18h-1.21c-39.67,0-70.07,19.54-70.07,19.54L157.38,804.07s-4.13,14.91,17,12.34l71.11.3ZM907.3,832.86H544.58V816.92H907.3ZM577.81,816c-44.59,1.16-45.55-8.74-45.4-12.51.1-2.2.7-4.34.8-6.52l24-539.79a14.66,14.66,0,0,1,11.65-13.71c38-8.07,167.89-30.75,310.25.07A14.48,14.48,0,0,1,890.52,257l23.33,540.21c.31,2.17.62,3.16.7,4.76.21,4.15,1.43,14.56-26.83,14Z"></path></svg> 