<?xml version="1.0" encoding="UTF-8"?> <svg xmlns="http://www.w3.org/2000/svg" id="Livello_1" data-name="Livello 1" viewBox="0 0 831.12 1000.49"><defs><style>.cls-1{fill:#fff;}.cls-2{fill:#231f20;}.cls-3,.cls-4{fill:none;stroke-width:0.25px;}.cls-3{stroke:#000;}.cls-4{stroke:#231f20;}</style></defs><title>Polar terra</title><rect class="cls-1" y="0.49" width="831.12" height="1000"></rect><path class="cls-2" d="M317.08.34h-.56l-11,4V8.53l6.26-1.93V26.87h5.26Zm21.36,0h-.56l-10.95,4V8.53l6.26-1.93V26.87h5.25Zm26.44,11a17.42,17.42,0,0,0-.67-5.14,9.27,9.27,0,0,0-1.83-3.51,6.83,6.83,0,0,0-2.83-2A9.46,9.46,0,0,0,355.9,0a9.56,9.56,0,0,0-3.65.67,6.68,6.68,0,0,0-2.8,2,9.12,9.12,0,0,0-1.82,3.51,17.07,17.07,0,0,0-.68,5.14v4.58a17,17,0,0,0,.68,5.11,9.8,9.8,0,0,0,1.82,3.53,6.77,6.77,0,0,0,2.83,2,9.8,9.8,0,0,0,3.65.67,9.66,9.66,0,0,0,3.66-.67,6.77,6.77,0,0,0,2.83-2A9.8,9.8,0,0,0,364.24,21a18.55,18.55,0,0,0,.64-5.11Zm-5.26,5.29a13.41,13.41,0,0,1-.26,3,5.7,5.7,0,0,1-.71,2,2.53,2.53,0,0,1-1.15,1.08,3.77,3.77,0,0,1-3.13,0,2.6,2.6,0,0,1-1.16-1.08,5.88,5.88,0,0,1-.74-2,16.73,16.73,0,0,1-.22-3V10.54a16.25,16.25,0,0,1,.22-2.94,5.59,5.59,0,0,1,.71-1.94,3.18,3.18,0,0,1,1.15-1.08,3.75,3.75,0,0,1,1.57-.29,3.51,3.51,0,0,1,1.56.29,3,3,0,0,1,1.19,1.08,5.59,5.59,0,0,1,.71,1.94,13,13,0,0,1,.26,2.94ZM381.92.11a14,14,0,0,0-5.7,1.08,12.13,12.13,0,0,0-4.25,3,13.91,13.91,0,0,0-2.64,4.62,18.09,18.09,0,0,0-.9,5.85v2.05A13.31,13.31,0,0,0,369.1,21,10,10,0,0,0,371,24.29a8.47,8.47,0,0,0,2.94,2.17,9.22,9.22,0,0,0,3.84.78,9.52,9.52,0,0,0,3.69-.71,8.49,8.49,0,0,0,2.83-1.94,8.37,8.37,0,0,0,1.79-2.87,10.27,10.27,0,0,0,.63-3.57,13.34,13.34,0,0,0-.48-3.47,8.76,8.76,0,0,0-1.42-2.87,7,7,0,0,0-2.35-1.94,7.3,7.3,0,0,0-3.31-.74,7.64,7.64,0,0,0-3,.6,7.07,7.07,0,0,0-2.31,1.6,8.85,8.85,0,0,1,.89-2.87,6.38,6.38,0,0,1,1.72-2.16A8.08,8.08,0,0,1,379,4.92a10.16,10.16,0,0,1,3.36-.49h.3V.11Zm-2.76,13.6a3.92,3.92,0,0,1,1.23,1,4.92,4.92,0,0,1,.79,1.53,6.58,6.58,0,0,1,.26,1.93,6.65,6.65,0,0,1-.26,1.94,4.71,4.71,0,0,1-.79,1.49A3.39,3.39,0,0,1,377.64,23a3.81,3.81,0,0,1-1.61-.34,3.64,3.64,0,0,1-1.26-1,5.75,5.75,0,0,1-.79-1.75,10,10,0,0,1-.29-2.46V15.8a3.56,3.56,0,0,1,.59-.93,3.63,3.63,0,0,1,.86-.79,4.13,4.13,0,0,1,1.08-.52,4.46,4.46,0,0,1,2.94.15Zm21-.3H390v4.21H400.2ZM417,.34h-.56l-11,4V8.53l6.26-1.93V26.87H417Zm26.43,11a17.1,17.1,0,0,0-.67-5.14,9.26,9.26,0,0,0-1.82-3.51,6.93,6.93,0,0,0-2.84-2A9.46,9.46,0,0,0,434.4,0a9.6,9.6,0,0,0-3.65.67,6.71,6.71,0,0,0-2.79,2,9.13,9.13,0,0,0-1.83,3.51,17.1,17.1,0,0,0-.67,5.14v4.58a17.07,17.07,0,0,0,.67,5.11A9.81,9.81,0,0,0,428,24.55a6.77,6.77,0,0,0,2.83,2,9.8,9.8,0,0,0,3.65.67,9.65,9.65,0,0,0,3.65-.67,6.77,6.77,0,0,0,2.83-2A9.81,9.81,0,0,0,442.75,21a18.57,18.57,0,0,0,.63-5.11Zm-5.25,5.29a14,14,0,0,1-.26,3,5.7,5.7,0,0,1-.71,2A2.6,2.6,0,0,1,436,22.65a3.32,3.32,0,0,1-1.56.34,3.39,3.39,0,0,1-1.57-.34,2.63,2.63,0,0,1-1.15-1.08,5.67,5.67,0,0,1-.75-2,17.72,17.72,0,0,1-.22-3V10.54A17.21,17.21,0,0,1,431,7.6a5.59,5.59,0,0,1,.71-1.94,3.29,3.29,0,0,1,1.16-1.08,3.68,3.68,0,0,1,1.56-.29,3.53,3.53,0,0,1,1.57.29,3.13,3.13,0,0,1,1.19,1.08,5.59,5.59,0,0,1,.71,1.94,13.63,13.63,0,0,1,.26,2.94Z"></path><path class="cls-3" d="M137.14,952.15H348m48.76,0H607.58m40.84-845.41V897.49"></path><path d="M678.44,527.89v.42l2.88,7.7h2.45l-2-5.41h17.92v-2.71ZM690,516.09v-2a5,5,0,0,1,1-3.27,3.47,3.47,0,0,1,2.83-1.14,3.88,3.88,0,0,1,2.91,1,4.84,4.84,0,0,1,0,5.92,3.44,3.44,0,0,1-2.65,1.07v2.71a5.35,5.35,0,0,0,4.26-1.88,7.95,7.95,0,0,0-.06-9.67A5.77,5.77,0,0,0,693.8,507a5.17,5.17,0,0,0-3.13,1,5.39,5.39,0,0,0-1.82,2.71,5.41,5.41,0,0,0-1.93-2.44,4.64,4.64,0,0,0-2.68-.9,5.79,5.79,0,0,0-4.43,1.7,7.58,7.58,0,0,0,.09,9.38,5.39,5.39,0,0,0,4.16,1.84v-2.71a3.42,3.42,0,0,1-2.62-1,3.87,3.87,0,0,1-1-2.8c0-2.47,1.25-3.72,3.72-3.72a3.42,3.42,0,0,1,2.65,1.1,4.51,4.51,0,0,1,1,3v2Zm-.39-16.23-.57-.71a4.49,4.49,0,0,1-.77-2.77,3.89,3.89,0,0,1,1.28-3.06,4.88,4.88,0,0,1,3.42-1.17,5.28,5.28,0,0,1,3.51,1.08,3.57,3.57,0,0,1,1.28,2.94,4,4,0,0,1-.92,2.77,4.22,4.22,0,0,1-2.74,1.28v2.56a6.25,6.25,0,0,0,4.32-2,6.7,6.7,0,0,0,1.55-4.59,6.49,6.49,0,0,0-1.88-4.94,7.3,7.3,0,0,0-5.15-1.75,7.55,7.55,0,0,0-5.18,1.69,5.83,5.83,0,0,0-1.9,4.59,6.72,6.72,0,0,0,.92,3.54l-5.77-.63V490.1h-2.5v10.84L689.09,502Zm11.93-15.33a6.63,6.63,0,0,0-2.94-.72H696.5v2.62h2.44a7,7,0,0,1,3.93,1.43l1-1.52a6.61,6.61,0,0,0-2.36-1.81Zm-11.93-7.24-.57-.71a4.49,4.49,0,0,1-.77-2.77,3.92,3.92,0,0,1,1.28-3.07,4.92,4.92,0,0,1,3.42-1.16,5.33,5.33,0,0,1,3.51,1.07,3.6,3.6,0,0,1,1.28,3,4,4,0,0,1-.92,2.77,4.27,4.27,0,0,1-2.74,1.28v2.56a6.26,6.26,0,0,0,4.32-2A6.67,6.67,0,0,0,700,473.6a6.49,6.49,0,0,0-1.88-4.94A7.31,7.31,0,0,0,693,466.9a7.55,7.55,0,0,0-5.18,1.7,5.82,5.82,0,0,0-1.9,4.58,6.78,6.78,0,0,0,.92,3.55L681,476.1v-8.57h-2.5v10.83l10.56,1.07Z"></path><path d="M236.44,978.45H236l-7.71,2.89v2.44l5.42-2V999.7h2.71Zm19,1.37a7.21,7.21,0,0,0-9,0,5.48,5.48,0,0,0-1.73,4.23,4.94,4.94,0,0,0,.83,2.82,5.8,5.8,0,0,0,2.21,1.94,5.59,5.59,0,0,0-2.59,2.08,5.41,5.41,0,0,0-.93,3.1,5.6,5.6,0,0,0,1.82,4.37,8.13,8.13,0,0,0,9.79,0,5.53,5.53,0,0,0,1.85-4.37,5.18,5.18,0,0,0-1-3.1,5.89,5.89,0,0,0-2.61-2.08,5.78,5.78,0,0,0,2.26-1.94,4.87,4.87,0,0,0,.83-2.82,5.34,5.34,0,0,0-1.73-4.23Zm-1.54,16.94a4.75,4.75,0,0,1-5.93,0,3.78,3.78,0,0,1-1.07-2.83A4,4,0,0,1,248,991a3.89,3.89,0,0,1,2.92-1.1,4.13,4.13,0,0,1,3,1.13,3.93,3.93,0,0,1,1.13,2.89,3.79,3.79,0,0,1-1.1,2.83Zm-.42-15.3a3.59,3.59,0,0,1,1,2.65,3.65,3.65,0,0,1-1,2.62,3.41,3.41,0,0,1-2.56,1,3.53,3.53,0,0,1-2.59-1,4.12,4.12,0,0,1,0-5.3,3.42,3.42,0,0,1,2.56-1,3.34,3.34,0,0,1,2.53,1Z"></path><path d="M491.09,990h2a5.05,5.05,0,0,1,3.28,1,3.52,3.52,0,0,1,1.13,2.83,3.94,3.94,0,0,1-1,2.92,4.86,4.86,0,0,1-5.93,0,3.46,3.46,0,0,1-1.07-2.65H486.8a5.34,5.34,0,0,0,1.88,4.25,7.95,7.95,0,0,0,9.67-.06,5.78,5.78,0,0,0,1.88-4.52,5.19,5.19,0,0,0-1-3.13,5.34,5.34,0,0,0-2.7-1.81,5.49,5.49,0,0,0,2.44-1.94,4.67,4.67,0,0,0,.89-2.67,5.79,5.79,0,0,0-1.7-4.44,7.57,7.57,0,0,0-9.37.09,5.4,5.4,0,0,0-1.85,4.17h2.71a3.44,3.44,0,0,1,1-2.62,3.84,3.84,0,0,1,2.8-1c2.47,0,3.72,1.25,3.72,3.72a3.4,3.4,0,0,1-1.1,2.64,4.51,4.51,0,0,1-3,1h-2Zm26.71,7.47H507.17l5.66-6.16c2.67-2.86,4-5.36,4-7.44a5.32,5.32,0,0,0-1.69-4.11,6.73,6.73,0,0,0-4.68-1.55,6.88,6.88,0,0,0-5,1.82,6.12,6.12,0,0,0-1.9,4.7h2.71a4.41,4.41,0,0,1,1.1-3.18,4.19,4.19,0,0,1,3.12-1.13,3.5,3.5,0,0,1,2.68,1.07,3.75,3.75,0,0,1,1,2.71,5.12,5.12,0,0,1-.6,2.38,16.91,16.91,0,0,1-2.26,3l-7.32,8.16v1.93H517.8Z"></path><path class="cls-1" d="M339.49,895H139.62V881.24H339.49Zm-48-39.11c-2.1-67-21.84-666.2-23.94-729.83a11.05,11.05,0,0,0-5.07-9c-18.95-12-38.33-4.77-47.59.14a10.8,10.8,0,0,0-5.76,9.26L187.6,854.69m.09-.75c-.1,3.13-.16,5.1-.17,5.8-.28,11.21,5.32,17,8.95,19.51a9.48,9.48,0,0,0,5.43,1.69l77.76.3s12.36-3,11.94-19.54c0-.7-.08-2.67-.18-5.8m314.43,38.56H407.62V880.69H605.85Zm-26.4-13.77h7.83s12.77-4.67,11.53-22c-.08-1.13-.24-5.24-.48-11.95m0,0c-3.15-90.38-19.19-651.31-21.15-719.81a9.47,9.47,0,0,0-6.86-8.85c-60.41-17.13-111.62-5-128.38.08a8.42,8.42,0,0,0-6,7.84L415.23,846.29l-.1.17c-.23,6.71-.39,10.83-.47,12-1.24,17.33,11.53,22,11.53,22H434l2.54.2c1.18,0,2.41.07,3.71.06H579.45"></path><path class="cls-4" d="M339.49,895H139.62V881.24H339.49Zm-48-39.11c-2.1-67-21.84-666.2-23.94-729.83a11.05,11.05,0,0,0-5.07-9c-18.95-12-38.33-4.77-47.59.14a10.8,10.8,0,0,0-5.76,9.26L187.6,854.69m.09-.75c-.1,3.13-.16,5.1-.17,5.8-.28,11.21,5.32,17,8.95,19.51a9.48,9.48,0,0,0,5.43,1.69l77.76.3s12.36-3,11.94-19.54c0-.7-.08-2.67-.18-5.8m314.43,38.56H407.62V880.69H605.85Zm-26.4-13.77h7.83s12.77-4.67,11.53-22c-.08-1.13-.24-5.24-.48-11.95m0,0c-3.15-90.38-19.19-651.31-21.15-719.81a9.47,9.47,0,0,0-6.86-8.85c-60.41-17.13-111.62-5-128.38.08a8.42,8.42,0,0,0-6,7.84L415.23,846.29l-.1.17c-.23,6.71-.39,10.83-.47,12-1.24,17.33,11.53,22,11.53,22H434l2.54.2c1.18,0,2.41.07,3.71.06H579.45"></path></svg> 