<?xml version="1.0" encoding="UTF-8"?> <svg xmlns="http://www.w3.org/2000/svg" id="Livello_1" data-name="Livello 1" viewBox="0 0 1245.33 1000"><defs><style>.cls-1{fill:#fff;}.cls-2{fill:#231f20;}.cls-3,.cls-4{fill:none;stroke-width:0.25px;}.cls-3{stroke:#000;}.cls-4{stroke:#231f20;stroke-linejoin:round;}</style></defs><title>Pop</title><rect class="cls-1" width="1245.33" height="1000"></rect><path class="cls-2" d="M421.36,1.73h-1.31L394.29,11V21L409,16.45V64.11h12.35Zm62.6.09H440v10H470.9l-24.09,52.3h13.05L484,8.74Zm49.8,25.76a40.55,40.55,0,0,0-1.57-12.09,21.67,21.67,0,0,0-4.3-8.24,16,16,0,0,0-6.66-4.73A22.38,22.38,0,0,0,512.65.94a22.73,22.73,0,0,0-8.59,1.58,15.79,15.79,0,0,0-6.57,4.73,21.52,21.52,0,0,0-4.29,8.24,40.2,40.2,0,0,0-1.58,12.09V38.35a40,40,0,0,0,1.58,12,23.32,23.32,0,0,0,4.29,8.32,16.06,16.06,0,0,0,6.66,4.73A22.73,22.73,0,0,0,512.74,65a22.38,22.38,0,0,0,8.58-1.58A16.06,16.06,0,0,0,528,58.68a23.32,23.32,0,0,0,4.29-8.32,43.37,43.37,0,0,0,1.49-12ZM521.41,40a32.6,32.6,0,0,1-.61,7,13.57,13.57,0,0,1-1.67,4.64,6.2,6.2,0,0,1-2.71,2.54,9,9,0,0,1-7.36,0,6.17,6.17,0,0,1-2.72-2.54A13.32,13.32,0,0,1,504.59,47a39.49,39.49,0,0,1-.53-7V25.74a38.33,38.33,0,0,1,.53-6.92,13.1,13.1,0,0,1,1.66-4.56A7.42,7.42,0,0,1,509,11.72a8.54,8.54,0,0,1,3.68-.7,8.07,8.07,0,0,1,3.68.7,7,7,0,0,1,2.8,2.54,13.09,13.09,0,0,1,1.67,4.56,31.65,31.65,0,0,1,.61,6.92Zm32.37-4.12c.44-.44.87-.79,1.4-1.23a8.8,8.8,0,0,1,1.66-1.14,15.36,15.36,0,0,1,2.28-.7,10.42,10.42,0,0,1,3-.35,12,12,0,0,1,4.47.79,8.13,8.13,0,0,1,3.07,2.28A7.66,7.66,0,0,1,571.48,39a15.14,15.14,0,0,1,.61,4.47,24.56,24.56,0,0,1-.44,4.55,11.48,11.48,0,0,1-1.58,3.68,7.39,7.39,0,0,1-2.71,2.46,8,8,0,0,1-3.94.87,8.51,8.51,0,0,1-6.14-2.19,8.9,8.9,0,0,1-2.71-6H542.3a18.25,18.25,0,0,0,1.93,7.71A17.66,17.66,0,0,0,549,60.17a19.55,19.55,0,0,0,6.66,3.59,25.86,25.86,0,0,0,7.8,1.23,23.07,23.07,0,0,0,9.28-1.75A18.5,18.5,0,0,0,583.22,52a25.55,25.55,0,0,0,1.22-7.88,30.78,30.78,0,0,0-1.22-8.85,18.84,18.84,0,0,0-3.77-6.57,16,16,0,0,0-6-4.12,20.86,20.86,0,0,0-8.06-1.4c-1,0-2,.08-2.89.17a27.11,27.11,0,0,0-2.72.61c-.78.27-1.49.53-2.1.79a7,7,0,0,0-1.58.79l1.49-13.4h24.8V1.82h-35l-3.59,31.63Zm63.12-3.42H592.81v9.9H616.9Zm22,4.65h6.57a16.43,16.43,0,0,1,4.29.52A12.54,12.54,0,0,1,653,39.32a8.59,8.59,0,0,1,2,2.89,12.56,12.56,0,0,1,.7,4.29A9.23,9.23,0,0,1,655,50a6.05,6.05,0,0,1-1.84,2.63,6.81,6.81,0,0,1-3,1.75,10.91,10.91,0,0,1-3.94.61,9.58,9.58,0,0,1-3.59-.61,7.89,7.89,0,0,1-2.9-1.67,7.49,7.49,0,0,1-1.92-2.45,7.63,7.63,0,0,1-.7-3.24H624.75a16.22,16.22,0,0,0,1.84,8,16.69,16.69,0,0,0,4.82,5.61,21.19,21.19,0,0,0,6.75,3.33,29.39,29.39,0,0,0,7.8,1,31.11,31.11,0,0,0,8.76-1.23,20.5,20.5,0,0,0,7-3.59,16.58,16.58,0,0,0,4.64-5.69,18.56,18.56,0,0,0,1.66-7.8,14.55,14.55,0,0,0-10.42-14.55,20.67,20.67,0,0,0,4-2.54,20.11,20.11,0,0,0,3-3.15,16.84,16.84,0,0,0,1.84-3.77,15.38,15.38,0,0,0,.61-3.94A18,18,0,0,0,665.49,11,15.66,15.66,0,0,0,661.2,5.5a20,20,0,0,0-6.66-3.42A32.85,32.85,0,0,0,646,.94a26.2,26.2,0,0,0-8,1.23,21.83,21.83,0,0,0-6.48,3.41,17.34,17.34,0,0,0-4.38,5.35,15.56,15.56,0,0,0-1.58,7h12.35a6.36,6.36,0,0,1,.71-2.89,6.09,6.09,0,0,1,1.75-2.19,7.14,7.14,0,0,1,2.71-1.4,9,9,0,0,1,3.16-.53,9.71,9.71,0,0,1,3.77.61,6.74,6.74,0,0,1,2.62,1.67,6.17,6.17,0,0,1,1.58,2.54,9.13,9.13,0,0,1,.53,3.15,8.6,8.6,0,0,1-2.28,6.22c-1.58,1.58-3.86,2.37-7,2.37h-6.57Zm79.59-9.55a40.55,40.55,0,0,0-1.57-12.09,21.67,21.67,0,0,0-4.3-8.24,16.06,16.06,0,0,0-6.66-4.73A22.38,22.38,0,0,0,697.34.94a22.73,22.73,0,0,0-8.59,1.58,15.79,15.79,0,0,0-6.57,4.73,21.52,21.52,0,0,0-4.29,8.24,40.2,40.2,0,0,0-1.58,12.09V38.35a40,40,0,0,0,1.58,12,23.32,23.32,0,0,0,4.29,8.32,16.06,16.06,0,0,0,6.66,4.73A22.71,22.71,0,0,0,697.42,65,22.4,22.4,0,0,0,706,63.41a16.06,16.06,0,0,0,6.66-4.73A23.32,23.32,0,0,0,717,50.36a43.37,43.37,0,0,0,1.49-12ZM706.1,40a32.6,32.6,0,0,1-.61,7,13.79,13.79,0,0,1-1.67,4.64,6.17,6.17,0,0,1-2.72,2.54,9,9,0,0,1-7.36,0A6.2,6.2,0,0,1,691,51.67,13.32,13.32,0,0,1,689.28,47a39.49,39.49,0,0,1-.53-7V25.74a38.33,38.33,0,0,1,.53-6.92,13.1,13.1,0,0,1,1.66-4.56,7.42,7.42,0,0,1,2.72-2.54,8.54,8.54,0,0,1,3.68-.7,8.07,8.07,0,0,1,3.68.7,7,7,0,0,1,2.8,2.54,13.29,13.29,0,0,1,1.67,4.56,31.65,31.65,0,0,1,.61,6.92Z" transform="translate(0 -0.49)"></path><path class="cls-3" d="M347.64,888.19H760.12m84.31-529.27V769.37" transform="translate(0 -0.49)"></path><path d="M959.8,566.72v25l-14.49-13.3c-6.71-6.3-12.59-9.38-17.49-9.38a12.51,12.51,0,0,0-9.66,4c-2.45,2.73-3.64,6.37-3.64,11,0,5,1.4,8.89,4.27,11.83a14.4,14.4,0,0,0,11.06,4.48V594a10.38,10.38,0,0,1-7.49-2.59A10,10,0,0,1,919.7,584a8.33,8.33,0,0,1,2.52-6.3,8.91,8.91,0,0,1,6.37-2.31,12.07,12.07,0,0,1,5.6,1.4,38.68,38.68,0,0,1,7.06,5.32l19.18,17.22H965V566.72ZM941.32,552,940,550.32a10.5,10.5,0,0,1-1.81-6.51,9.14,9.14,0,0,1,3-7.2,11.56,11.56,0,0,1,8.05-2.73c3.5,0,6.23.84,8.26,2.52a8.48,8.48,0,0,1,3,6.93,9.38,9.38,0,0,1-2.17,6.5,10,10,0,0,1-6.44,3v6c4.34-.42,7.7-2,10.15-4.76s3.64-6.37,3.64-10.77c0-5-1.47-8.82-4.41-11.62s-7-4.13-12.11-4.13-9.17,1.33-12.17,4-4.48,6.3-4.48,10.78a15.73,15.73,0,0,0,2.17,8.32L921.1,549.2V529.05h-5.88v25.47L940.06,557Z" transform="translate(0 -0.49)"></path><path d="M551.3,994.82h-25l13.3-14.49c6.3-6.72,9.38-12.59,9.38-17.49a12.51,12.51,0,0,0-4-9.66c-2.73-2.45-6.37-3.64-11-3.64-5,0-8.89,1.4-11.83,4.27a14.4,14.4,0,0,0-4.48,11.06h6.37a10.38,10.38,0,0,1,2.59-7.49,10,10,0,0,1,7.35-2.66,8.33,8.33,0,0,1,6.3,2.52,8.91,8.91,0,0,1,2.31,6.37,12.07,12.07,0,0,1-1.4,5.6,39,39,0,0,1-5.32,7.06l-17.22,19.18V1000H551.3Zm33.4-44.58H578l-22.25,34.5v3.71H578.4V1000h6.3V988.45h6.93v-5.18H584.7Zm-7.07,10,.77-1.33v24.35H562.87Z" transform="translate(0 -0.49)"></path><path class="cls-1" d="M553.87,361.84a210.87,210.87,0,0,0-138.75,51.47S376.18,446,375.75,487c0,0-4.79,30.07,32.7,52.32,0,0,38.38,30.07,36.63,68.66,0,0,5.14,41.8-41.54,48.88a12.16,12.16,0,0,1-3.19.08c-6.6-.69-28.38-6.16-46.87-47a3.21,3.21,0,0,0-2.93-1.91c20.62,90.67,103.82,158.49,203.32,158.49m0-404.61a210.9,210.9,0,0,1,138.76,51.47S731.57,446,732,487c0,0,4.81,30.07-32.7,52.32,0,0-38.36,30.07-36.61,68.66,0,0-5.21,42.18,42.15,49a6.49,6.49,0,0,0,1.39.08c4.67-.18,28.23-3.36,48-47.14A3.23,3.23,0,0,1,757.2,608c-20.62,90.67-103.82,158.49-203.33,158.49" transform="translate(0 -0.49)"></path><path class="cls-4" d="M553.87,361.84a210.87,210.87,0,0,0-138.75,51.47S376.18,446,375.75,487c0,0-4.79,30.07,32.7,52.32,0,0,38.38,30.07,36.63,68.66,0,0,5.14,41.8-41.54,48.88a12.16,12.16,0,0,1-3.19.08c-6.6-.69-28.38-6.16-46.87-47a3.21,3.21,0,0,0-2.93-1.91c20.62,90.67,103.82,158.49,203.32,158.49m0-404.61a210.9,210.9,0,0,1,138.76,51.47S731.56,446,732,487c0,0,4.8,30.07-32.7,52.32,0,0-38.37,30.07-36.62,68.66,0,0-5.2,42.18,42.15,49a6.62,6.62,0,0,0,1.4.08c4.67-.18,28.23-3.36,48-47.14a3.22,3.22,0,0,1,2.93-1.91c-20.61,90.67-103.81,158.49-203.32,158.49" transform="translate(0 -0.49)"></path></svg> 