<?xml version="1.0" encoding="UTF-8"?> <!-- Generator: Adobe Illustrator 23.0.3, SVG Export Plug-In . SVG Version: 6.00 Build 0) --> <svg xmlns="http://www.w3.org/2000/svg" xmlns:xlink="http://www.w3.org/1999/xlink" id="Livello_1" x="0px" y="0px" viewBox="0 0 392 1000.1" style="enable-background:new 0 0 392 1000.1;" xml:space="preserve"> <style type="text/css"> .st0{fill:#FFFFFF;} .st1{font-family:'Roboto-Bold';} .st2{font-size:58.02px;} .st3{font-family:'Roboto-Regular';} .st4{font-size:40.61px;} .st5{fill:none;stroke:#000000;} .st6{font-size:34.81px;} .st7{fill:none;stroke:#000000;stroke-miterlimit:10;} </style> <title>sop_medium</title> <rect y="0" class="st0" width="392" height="999.1"></rect> <text transform="matrix(1 0 0 1 48.08 49.77)" class="st1 st2">1913-22</text> <text transform="matrix(1 0 0 1 131.41 98.51)" class="st3 st4">medium</text> <line class="st5" x1="116.2" y1="935.1" x2="226.7" y2="935.1"></line> <line class="st5" x1="290.2" y1="440.9" x2="290.2" y2="883"></line> <text transform="matrix(6.123234e-17 -1 1 6.123234e-17 349.49 713.6703)" class="st3 st6">46</text> <text transform="matrix(1 0 0 1 140.9 990.7)" class="st3 st6">ø 10</text> <path class="st7" d="M217.6,562.6c0.2-4.2-2.3-8-6.1-9.7 M193.8,545.3l17.7,7.5 M187.7,535.8c0,4.1,2.4,7.7,6.1,9.4 M131.8,562.6 l8.4,265.1h69.1l8.3-265.1 M138,552.9c-3.8,1.7-6.2,5.5-6.1,9.7 M155.7,545.2l-17.7,7.6 M155.7,545.2c3.7-1.6,6.1-5.3,6.1-9.4h-0.1 v-94.9h25.9v94.9"></path> <line class="st7" x1="174.7" y1="438.6" x2="174.7" y2="250.1"></line> <path class="st7" d="M169,828v48.7c0,0,5.7,11.8,11.4,0V828H169z"></path> </svg> 