<?xml version="1.0" encoding="UTF-8"?> <!-- Generator: Adobe Illustrator 23.0.3, SVG Export Plug-In . SVG Version: 6.00 Build 0) --> <svg xmlns="http://www.w3.org/2000/svg" xmlns:xlink="http://www.w3.org/1999/xlink" id="Livello_1" x="0px" y="0px" viewBox="0 0 396 1005.5" style="enable-background:new 0 0 396 1005.5;" xml:space="preserve"> <style type="text/css"> .st0{fill:#FFFFFF;} .st1{font-family:'Roboto-Bold';} .st2{font-size:58.02px;} .st3{font-family:'Roboto-Regular';} .st4{font-size:40.61px;} .st5{fill:none;stroke:#000000;} .st6{font-size:34.81px;} .st7{fill:none;stroke:#000000;stroke-miterlimit:10;} </style> <title>sop_small</title> <rect y="0" class="st0" width="396" height="1005.5"></rect> <text transform="matrix(1 0 0 1 49.6467 55.15)" class="st1 st2">1913-20</text> <text transform="matrix(1 0 0 1 159.8467 103.89)" class="st3 st4">small</text> <line class="st5" x1="104.7" y1="940.5" x2="215.2" y2="940.5"></line> <line class="st5" x1="279.5" y1="542.4" x2="279.5" y2="888.4"></line> <text transform="matrix(6.123234e-17 -1 1 6.123234e-17 338.0266 760.1693)" class="st3 st6">40</text> <text transform="matrix(1 0 0 1 139.2167 996.09)" class="st3 st6">ø 8</text> <path class="st7" d="M195.5,634.3c0.1-3.1-1.7-6-4.6-7.3 M177.6,621.2l13.3,5.7 M173,614.1c0,3.1,1.8,5.8,4.6,7.1 M131,634.2 l6.3,200.1h51.9l6.2-200.1 M135.7,626.9c-2.9,1.3-4.7,4.2-4.6,7.3 M149,621.1l-13.3,5.8 M149,621.1c2.8-1.2,4.6-4,4.6-7.1h-0.1 v-71.6H173v71.7"></path> <line class="st7" x1="163.2" y1="540.5" x2="163.2" y2="398.1"></line> <path class="st7" d="M157.5,834.3v48.7c0,0,5.7,11.8,11.4,0v-48.7H157.5z"></path> </svg> 