<?xml version="1.0" encoding="UTF-8"?> <!-- Generator: Adobe Illustrator 23.0.3, SVG Export Plug-In . SVG Version: 6.00 Build 0) --> <svg xmlns="http://www.w3.org/2000/svg" xmlns:xlink="http://www.w3.org/1999/xlink" id="Livello_1" x="0px" y="0px" viewBox="0 0 412 1007.5" style="enable-background:new 0 0 412 1007.5;" xml:space="preserve"> <style type="text/css"> .st0{fill:#FFFFFF;} .st1{font-family:'Roboto-Bold';} .st2{font-size:58.46px;} .st3{font-family:'Roboto-Regular';} .st4{font-size:40.92px;} .st5{fill:none;stroke:#000000;} .st6{font-size:35.07px;} .st7{fill:none;stroke:#000000;stroke-miterlimit:10;} </style> <title>Sop_large</title> <rect y="0" class="st0" width="412" height="1007.5"></rect> <text transform="matrix(1 0 0 1 89.39 50.01)" class="st1 st2">1913-23</text> <text transform="matrix(1 0 0 1 201.97 99.11)" class="st3 st4">l</text> <text transform="matrix(1 0 0 1 212.61 99.11)" class="st3 st4">arge</text> <line class="st5" x1="145.7" y1="942" x2="257" y2="942"></line> <line class="st5" x1="322.6" y1="367" x2="322.6" y2="868.3"></line> <text transform="matrix(6.123234e-17 -1 1 6.123234e-17 380.72 637.3802)" class="st3 st6">52</text> <text transform="matrix(1 0 0 1 170.56 998.02)" class="st3 st6">ø 12</text> <path class="st7" d="M217.3,476.9c0,4.2,2.5,8.1,6.4,9.8 M255.4,507.6c0.1-4.4-2.4-8.4-6.4-10.1 M223.7,486.8l25.3,10.8 M179.1,486.6c3.9-1.7,6.4-5.5,6.4-9.8 M185.5,476.9V367h31.7v109.9 M147.2,507.7l8.8,306.2h90.7l8.7-306.2 M153.7,497.5 c-4,1.7-6.5,5.7-6.4,10.1 M179.1,486.8l-25.4,10.8"></path> <line class="st7" x1="201.3" y1="364.7" x2="201.3" y2="166.4"></line> <path class="st7" d="M195.6,813.9V863c0,0,5.7,11.9,11.5,0v-49.1H195.6z"></path> </svg> 