<?xml version="1.0" encoding="UTF-8"?> <svg xmlns="http://www.w3.org/2000/svg" id="Livello_1" data-name="Livello 1" viewBox="0 0 998.95 998.95"><defs><style>.cls-1{fill:#fff;}.cls-2{fill:#231f20;}.cls-3,.cls-4{fill:none;stroke:#000;stroke-width:0.25px;}.cls-4{stroke-miterlimit:10;}</style></defs><title>sosp. 60 cilindro</title><rect class="cls-1" width="998.95" height="998.95"></rect><path class="cls-2" d="M279.73,38.87v7.52h.7a25.94,25.94,0,0,0,10.13-1.78,19.13,19.13,0,0,0,7.2-5,20.7,20.7,0,0,0,4.34-7.77,34.08,34.08,0,0,0,1.4-10.13V18.48A23.41,23.41,0,0,0,302.41,11a17.17,17.17,0,0,0-3.05-5.86,14,14,0,0,0-4.85-3.76A14.75,14.75,0,0,0,288.2,0a15.37,15.37,0,0,0-6.3,1.27,14,14,0,0,0-4.78,3.51,14.38,14.38,0,0,0-3.06,5A18.44,18.44,0,0,0,273,16.06a20.58,20.58,0,0,0,.82,6.05,14.48,14.48,0,0,0,2.55,4.78,13,13,0,0,0,4.14,3.25,13.49,13.49,0,0,0,5.74,1.15,10.55,10.55,0,0,0,4.46-1,12.21,12.21,0,0,0,3.7-2.48,13.15,13.15,0,0,1-1.15,4.71A9,9,0,0,1,290.56,36a12.11,12.11,0,0,1-4.27,2.17,22.67,22.67,0,0,1-5.92.7Zm5.8-15.1a6,6,0,0,1-2-1.85,7.47,7.47,0,0,1-1.21-2.68,13.74,13.74,0,0,1-.38-3.31,13.52,13.52,0,0,1,.38-3.19,8.15,8.15,0,0,1,1.21-2.8A5.54,5.54,0,0,1,285.46,8a4.74,4.74,0,0,1,2.68-.77,6,6,0,0,1,2.55.58,7.69,7.69,0,0,1,2,1.78,9.79,9.79,0,0,1,1.34,3.06,16.34,16.34,0,0,1,.44,4.21v3.69a7.33,7.33,0,0,1-2.35,2.74,6.56,6.56,0,0,1-3.76,1.09,6,6,0,0,1-2.87-.64ZM341,38.68h-19.5l8-8.41c1.53-1.6,2.93-3.06,4.14-4.53a29.77,29.77,0,0,0,3.19-4.27,20.37,20.37,0,0,0,2-4.2,12.77,12.77,0,0,0,.77-4.4,14.79,14.79,0,0,0-1-5.41,10.65,10.65,0,0,0-2.87-4A12.94,12.94,0,0,0,331.12.89,21.51,21.51,0,0,0,324.74,0a16.71,16.71,0,0,0-6.56,1.21,14.63,14.63,0,0,0-4.91,3.19,13.91,13.91,0,0,0-3.18,4.71,16.18,16.18,0,0,0-1.08,5.8h9a9,9,0,0,1,.45-3.06,7.14,7.14,0,0,1,1.21-2.42,5.77,5.77,0,0,1,2.1-1.59,6.34,6.34,0,0,1,2.81-.58A5.54,5.54,0,0,1,329,9a7,7,0,0,1,1.53,4.78,5.78,5.78,0,0,1-.32,2,11.36,11.36,0,0,1-1,2.3,19.74,19.74,0,0,1-1.85,2.74,37.55,37.55,0,0,1-2.81,3.31L309.9,39.76v6.18H341Zm36.54,0H358l8-8.41c1.53-1.6,2.93-3.06,4.14-4.53a29.77,29.77,0,0,0,3.19-4.27,20.37,20.37,0,0,0,2-4.2,12.77,12.77,0,0,0,.77-4.4,14.79,14.79,0,0,0-1-5.41,10.73,10.73,0,0,0-2.86-4A13.08,13.08,0,0,0,367.66.89,21.51,21.51,0,0,0,361.28,0a16.71,16.71,0,0,0-6.56,1.21,14.63,14.63,0,0,0-4.91,3.19,13.91,13.91,0,0,0-3.18,4.71,16.18,16.18,0,0,0-1.08,5.8h9a9,9,0,0,1,.45-3.06,7.33,7.33,0,0,1,1.21-2.42,5.77,5.77,0,0,1,2.1-1.59,6.34,6.34,0,0,1,2.81-.58A5.54,5.54,0,0,1,365.49,9,7,7,0,0,1,367,13.76a5.78,5.78,0,0,1-.32,2,11.36,11.36,0,0,1-.95,2.3,19.74,19.74,0,0,1-1.85,2.74,37.55,37.55,0,0,1-2.81,3.31L346.44,39.76v6.18h31.09Zm11.82.19v7.52h.7a25.91,25.91,0,0,0,10.13-1.78,19.13,19.13,0,0,0,7.2-5,20.7,20.7,0,0,0,4.34-7.77,34.08,34.08,0,0,0,1.4-10.13V18.48A23.7,23.7,0,0,0,412,11,17.36,17.36,0,0,0,409,5.1a13.87,13.87,0,0,0-4.85-3.76A14.73,14.73,0,0,0,397.83,0a15.38,15.38,0,0,0-6.31,1.27,14,14,0,0,0-4.78,3.51,14.38,14.38,0,0,0-3.06,5,18.44,18.44,0,0,0-1.08,6.25,20.58,20.58,0,0,0,.82,6.05A14.48,14.48,0,0,0,386,26.89a13,13,0,0,0,4.14,3.25,13.49,13.49,0,0,0,5.74,1.15,10.55,10.55,0,0,0,4.46-1,12.21,12.21,0,0,0,3.7-2.48,13.15,13.15,0,0,1-1.15,4.71A9,9,0,0,1,400.18,36a12.11,12.11,0,0,1-4.27,2.17,22.67,22.67,0,0,1-5.92.7Zm5.8-15.1a6,6,0,0,1-2-1.85A7.47,7.47,0,0,1,392,19.24a13.74,13.74,0,0,1-.38-3.31,13.52,13.52,0,0,1,.38-3.19,8.15,8.15,0,0,1,1.21-2.8A5.48,5.48,0,0,1,395.09,8a4.68,4.68,0,0,1,2.67-.77,6,6,0,0,1,2.55.58,7.69,7.69,0,0,1,2,1.78,9.79,9.79,0,0,1,1.34,3.06,16.34,16.34,0,0,1,.44,4.21v3.69a7.33,7.33,0,0,1-2.35,2.74A6.56,6.56,0,0,1,398,24.41a6,6,0,0,1-2.87-.64Zm42.27-.83H419.9v7.2h17.52Zm37.89,15.74h-19.5l8-8.41c1.53-1.6,2.93-3.06,4.14-4.53a29.77,29.77,0,0,0,3.19-4.27,20.37,20.37,0,0,0,2-4.2,12.77,12.77,0,0,0,.77-4.4,14.79,14.79,0,0,0-1-5.41,10.65,10.65,0,0,0-2.87-4A12.94,12.94,0,0,0,465.44.89,21.51,21.51,0,0,0,459.06,0a16.71,16.71,0,0,0-6.56,1.21,14.63,14.63,0,0,0-4.91,3.19,13.91,13.91,0,0,0-3.18,4.71,16.19,16.19,0,0,0-1.09,5.8h9.05a9,9,0,0,1,.45-3.06A7.14,7.14,0,0,1,454,9.43a5.69,5.69,0,0,1,2.1-1.59,6.34,6.34,0,0,1,2.81-.58A5.55,5.55,0,0,1,463.27,9a7,7,0,0,1,1.53,4.78,5.78,5.78,0,0,1-.32,2,10.89,10.89,0,0,1-1,2.3,18.75,18.75,0,0,1-1.84,2.74,37.55,37.55,0,0,1-2.81,3.31L444.22,39.76v6.18h31.09Zm32.08-38h-9.11L479.42,30.46l.38,5.67h18.61v9.81h9V36.13h5.1V28.87h-5.1ZM497.77,14l.64-1.09v16H488.34Z"></path><path class="cls-2" d="M296.46,127.19a10.55,10.55,0,0,1-3.31-3,13.75,13.75,0,0,1-1.79-4.4,22.6,22.6,0,0,1-.57-5.16v-1.28a23.05,23.05,0,0,1,.57-5.16,12.24,12.24,0,0,1,1.85-4.33,9.35,9.35,0,0,1,3.25-3.06,10.57,10.57,0,0,1,4.91-1.08,11.12,11.12,0,0,1,3.57.57,10,10,0,0,1,2.93,1.78,8.89,8.89,0,0,1,2,2.74,9.72,9.72,0,0,1,.83,3.7h3.63a15,15,0,0,0-1.15-5,11.9,11.9,0,0,0-2.8-3.76,11.71,11.71,0,0,0-4-2.42,15.6,15.6,0,0,0-11.21.45,13.27,13.27,0,0,0-4.53,3.56,16.46,16.46,0,0,0-2.74,5.36,24.25,24.25,0,0,0-.89,6.62v1.28a24.65,24.65,0,0,0,.89,6.63,16.51,16.51,0,0,0,2.74,5.35,13,13,0,0,0,4.53,3.5,13.59,13.59,0,0,0,6.18,1.34,15.56,15.56,0,0,0,4.91-.83,13.93,13.93,0,0,0,4-2.29,10.9,10.9,0,0,0,2.87-3.51,11.29,11.29,0,0,0,1.21-4.39h-3.63a8.07,8.07,0,0,1-.9,3.37,9.72,9.72,0,0,1-2.1,2.49,9.47,9.47,0,0,1-2.93,1.46,10,10,0,0,1-3.44.51,9.77,9.77,0,0,1-4.91-1.08Zm25.52-30H317.9l12.69,33.39-1.66,4.4a12.69,12.69,0,0,1-1.15,2.67,7.39,7.39,0,0,1-1.53,1.91,5.47,5.47,0,0,1-2,1.15,8.38,8.38,0,0,1-2.68.38,5.49,5.49,0,0,1-.89-.06,9.81,9.81,0,0,1-1-.13V144a2,2,0,0,1,.57.13c.26.07.51.07.77.13s.57.06.83.13h.7a8.47,8.47,0,0,0,3.95-.83,11.07,11.07,0,0,0,2.67-2.1,12,12,0,0,0,1.72-2.68,27,27,0,0,0,1.09-2.61l14.27-39h-4l-9.82,28.29ZM356.17,83h-3.76v47.79h3.76Zm14.26,14.15h-3.76v33.64h3.76Zm-3.76-8a2.68,2.68,0,0,0,1.91.7,2.54,2.54,0,0,0,1.85-.7,2.34,2.34,0,0,0,.7-1.78,2.28,2.28,0,0,0-.7-1.79,2.36,2.36,0,0,0-1.85-.76A2.4,2.4,0,0,0,366,87.43a2.58,2.58,0,0,0,.64,1.78Zm13.81,8v33.64h3.7V107.76a13.93,13.93,0,0,1,1.47-2.94,10,10,0,0,1,5-4.39,9.35,9.35,0,0,1,3.63-.64,10.91,10.91,0,0,1,3.31.45,5.44,5.44,0,0,1,2.49,1.46,7.54,7.54,0,0,1,1.59,2.81,14.48,14.48,0,0,1,.57,4.39v21.92h3.7V108.9a18.48,18.48,0,0,0-.76-5.67A10.44,10.44,0,0,0,403,99.41a8,8,0,0,0-3.37-2.17,12.54,12.54,0,0,0-4.53-.7,12.06,12.06,0,0,0-3.44.45,13.71,13.71,0,0,0-3,1.27,13.27,13.27,0,0,0-4.53,4.65l-.13-5.73ZM414,114.32a23.79,23.79,0,0,0,.89,7,17,17,0,0,0,2.55,5.41,12.55,12.55,0,0,0,4.08,3.51,11.79,11.79,0,0,0,5.41,1.27,13.51,13.51,0,0,0,6.25-1.34,12.64,12.64,0,0,0,4.27-3.76l.13,4.46h3.5V83h-3.7v18.86a12.6,12.6,0,0,0-4.27-4,12.42,12.42,0,0,0-6.11-1.4,11.48,11.48,0,0,0-5.42,1.21,12.07,12.07,0,0,0-4.14,3.44,17.09,17.09,0,0,0-2.55,5.42,24.31,24.31,0,0,0-.89,7.07Zm3.76-.64a25.11,25.11,0,0,1,.57-5.48,13.6,13.6,0,0,1,1.79-4.39,8.52,8.52,0,0,1,3.12-2.94,8.31,8.31,0,0,1,4.46-1.08,12,12,0,0,1,3.57.51,10,10,0,0,1,2.74,1.47,8.45,8.45,0,0,1,2,2.1,13.31,13.31,0,0,1,1.4,2.48v15.81a13.62,13.62,0,0,1-1.53,2.42,8.35,8.35,0,0,1-2,1.91,9.68,9.68,0,0,1-2.74,1.27,12.13,12.13,0,0,1-3.45.45,8.63,8.63,0,0,1-4.39-1.08,8.5,8.5,0,0,1-3.12-2.93,13.66,13.66,0,0,1-1.79-4.4,24.72,24.72,0,0,1-.57-5.48ZM468,131a12.85,12.85,0,0,0,5.86-3.12,17.21,17.21,0,0,0,2-2.36l-2.36-1.72a11,11,0,0,1-4.14,3.44,11.68,11.68,0,0,1-5.29,1.08,10.68,10.68,0,0,1-4.72-1,11.49,11.49,0,0,1-3.63-2.87,13.07,13.07,0,0,1-2.36-4.21,15.81,15.81,0,0,1-.82-5.22v-.7h24V112a21.41,21.41,0,0,0-.89-6.18,14.15,14.15,0,0,0-2.55-4.91,12.32,12.32,0,0,0-4.21-3.18,13.14,13.14,0,0,0-5.67-1.15,12.49,12.49,0,0,0-5.48,1.21,15.12,15.12,0,0,0-4.59,3.44,15.83,15.83,0,0,0-3.18,5.36,20.44,20.44,0,0,0-1.15,7.07V115a18.41,18.41,0,0,0,1.15,6.62,14.84,14.84,0,0,0,3.12,5.23,13.48,13.48,0,0,0,4.78,3.38,14.62,14.62,0,0,0,6.05,1.27A15.8,15.8,0,0,0,468,131Zm-.64-30.33a10.24,10.24,0,0,1,3,2.42,11.39,11.39,0,0,1,1.78,3.51,14.48,14.48,0,0,1,.7,4.14v.38h-20.2a17.23,17.23,0,0,1,1.21-4.65,12,12,0,0,1,2.23-3.57,11.33,11.33,0,0,1,3.19-2.36,10.15,10.15,0,0,1,3.95-.76,9.48,9.48,0,0,1,4.14.89Zm32.09-3.7a7.27,7.27,0,0,0-1.09-.25,9.34,9.34,0,0,0-1.4-.13,9.68,9.68,0,0,0-5.73,1.59,11.48,11.48,0,0,0-3.76,4.4l-.07-5.35h-3.63v33.64h3.7V107.69a16.56,16.56,0,0,1,1.27-3.06,8.66,8.66,0,0,1,2-2.35,8.16,8.16,0,0,1,2.67-1.6,9.81,9.81,0,0,1,3.44-.57,14.91,14.91,0,0,1,2.49.19Z"></path><path d="M853.73,599.59v-3.46a8.53,8.53,0,0,1,1.73-5.6,6,6,0,0,1,4.84-1.94,6.68,6.68,0,0,1,5,1.73,8.28,8.28,0,0,1,0,10.13,5.86,5.86,0,0,1-4.53,1.83v4.64a9.12,9.12,0,0,0,7.28-3.21,13.61,13.61,0,0,0-.1-16.54,9.87,9.87,0,0,0-7.74-3.21,8.88,8.88,0,0,0-5.34,1.63,9.21,9.21,0,0,0-3.11,4.63,9.3,9.3,0,0,0-3.3-4.17,8,8,0,0,0-4.59-1.53,9.91,9.91,0,0,0-7.58,2.9,13,13,0,0,0,.15,16,9.25,9.25,0,0,0,7.13,3.16V602a5.88,5.88,0,0,1-4.48-1.73,6.59,6.59,0,0,1-1.73-4.79c0-4.22,2.14-6.36,6.36-6.36a5.82,5.82,0,0,1,4.53,1.88,7.75,7.75,0,0,1,1.73,5.15v3.46Zm-4.84-44.66c-5.24.05-9.06,1-11.55,2.85s-3.77,4.68-3.77,8.6,1.28,6.83,3.87,8.66,6.57,2.75,11.86,2.75h6.16c5.09-.06,8.91-1,11.5-2.91s3.82-4.68,3.82-8.55-1.32-6.82-3.92-8.65-6.62-2.75-12-2.75Zm7.18,4.58c3.77,0,6.57.66,8.3,1.73a6.17,6.17,0,0,1-.16,10.23c-1.88,1.12-4.73,1.74-8.65,1.74h-7.38c-3.66-.06-6.41-.62-8.19-1.69a5.53,5.53,0,0,1-2.65-5.14,5.61,5.61,0,0,1,2.7-5.19c1.78-1.12,4.58-1.68,8.5-1.68Z"></path><path class="cls-3" d="M128.17,795.32h544.7M759.63,445.5V715.82"></path><path d="M364.83,875l-2.5,5h3.11l1.83-3.72a12.81,12.81,0,0,0,4.73.87,12.11,12.11,0,0,0,6.36-1.68,11.85,11.85,0,0,0,4.33-4.89,16,16,0,0,0,1.53-7.07c0-5.3-1.63-9.27-4.84-11.81l2.55-5.09h-3.11L377,850.31a12.22,12.22,0,0,0-5.09-1.07,11.51,11.51,0,0,0-10.69,6.62,15.87,15.87,0,0,0-1.52,7.08c0,5.54,1.73,9.52,5.09,12Zm1.62-19.24A6.63,6.63,0,0,1,372,853a6.8,6.8,0,0,1,3.31.82l-8.5,17.25c-1.63-1.88-2.39-4.38-2.39-7.58,0-3.36.66-6,2.08-7.79Zm13.14,7.63a11.93,11.93,0,0,1-2,7.33,6.75,6.75,0,0,1-5.55,2.7,7.15,7.15,0,0,1-3-.61l8.45-17.1a11.58,11.58,0,0,1,2.14,7.28Zm26.94-22.9c-5.6.1-9.83,1.88-12.68,5.39s-4.27,8.61-4.27,15.27v1.79a16,16,0,0,0,3.26,10.28,10.27,10.27,0,0,0,8.39,4,10.49,10.49,0,0,0,8.2-3.36c2-2.24,3.05-5.19,3.05-9a12.85,12.85,0,0,0-2.85-8.6,9.42,9.42,0,0,0-7.53-3.31,9.72,9.72,0,0,0-7.79,3.26,13.09,13.09,0,0,1,3.67-8.66,12.16,12.16,0,0,1,8.55-3.15h.86v-3.92Zm-.41,18.68a9.23,9.23,0,0,1,1.78,6,9.05,9.05,0,0,1-1.78,6,5.8,5.8,0,0,1-4.89,2.29,6,6,0,0,1-5-2.7,11.59,11.59,0,0,1-2-7.17v-1.68a7.16,7.16,0,0,1,2.75-3.52,7.41,7.41,0,0,1,4.38-1.42,5.8,5.8,0,0,1,4.78,2.29Zm34.53-3.87c0-5.24-1-9.06-2.85-11.55s-4.69-3.77-8.61-3.77-6.82,1.27-8.65,3.87-2.75,6.56-2.75,11.86v6.16c0,5.09,1,8.9,2.9,11.5s4.69,3.82,8.55,3.82,6.83-1.33,8.66-3.92,2.75-6.62,2.75-12Zm-4.58,7.18c-.06,3.76-.67,6.56-1.74,8.29a6.16,6.16,0,0,1-10.23-.15c-1.12-1.88-1.73-4.73-1.73-8.65v-7.38c.05-3.67.61-6.42,1.68-8.2a5.54,5.54,0,0,1,5.14-2.64,5.61,5.61,0,0,1,5.2,2.69c1.12,1.79,1.68,4.59,1.68,8.5Z"></path><path class="cls-1" d="M470.36,228.21c0,49.17-32.13,89-71.77,89s-71.77-39.85-71.77-89ZM398.65,320.6V444.26M670.74,713.71H130.29V444.26H670.74Zm-540.45-255H670.74M130.29,699.26H670.74"></path><path class="cls-4" d="M470.36,228.21c0,49.18-32.13,89-71.77,89s-71.77-39.85-71.77-89Zm-71.71,92.4V444.26M670.74,713.71H130.29V444.26H670.74Zm-540.45-255H670.74M130.29,699.27H670.74"></path></svg> 