<?xml version="1.0" encoding="UTF-8"?> <svg xmlns="http://www.w3.org/2000/svg" id="Livello_1" data-name="Livello 1" viewBox="0 0 1006.67 1000"><defs><style>.cls-1{fill:#fff;}.cls-2{fill:#231f20;}.cls-3,.cls-4,.cls-5,.cls-6{fill:none;stroke-width:0.25px;}.cls-3,.cls-4{stroke:#000;}.cls-4{stroke-linejoin:round;}.cls-5,.cls-6{stroke:#010101;stroke-miterlimit:10;}.cls-5{stroke-dasharray:5 5;}.cls-6{stroke-dasharray:2.44 2.44;}</style></defs><title>sosp. square 60</title><rect class="cls-1" width="1006.67" height="998.95"></rect><path class="cls-2" d="M332.79.68h-1.13l-22.06,8v8.55l12.61-3.9V54.1h10.58ZM386,22.81a34.66,34.66,0,0,0-1.35-10.35A18.45,18.45,0,0,0,381,5.4a13.79,13.79,0,0,0-5.7-4.05A19.17,19.17,0,0,0,367.94,0a19.48,19.48,0,0,0-7.36,1.35A13.61,13.61,0,0,0,355,5.4a18.32,18.32,0,0,0-3.68,7.06,34.66,34.66,0,0,0-1.35,10.35V32a34.49,34.49,0,0,0,1.35,10.28A19.9,19.9,0,0,0,355,49.45a13.79,13.79,0,0,0,5.7,4A19.43,19.43,0,0,0,368,54.85a19.22,19.22,0,0,0,7.36-1.35,13.92,13.92,0,0,0,5.7-4,20.05,20.05,0,0,0,3.67-7.13A37.12,37.12,0,0,0,386,32ZM375.44,33.46a27.11,27.11,0,0,1-.53,6,11.58,11.58,0,0,1-1.42,4,5.39,5.39,0,0,1-2.33,2.18,7.64,7.64,0,0,1-6.3,0,5.39,5.39,0,0,1-2.33-2.18,11.73,11.73,0,0,1-1.5-4,33.8,33.8,0,0,1-.45-6V21.23a32.8,32.8,0,0,1,.45-5.92,11.15,11.15,0,0,1,1.43-3.9,6.33,6.33,0,0,1,2.33-2.18,7.35,7.35,0,0,1,3.15-.6,7,7,0,0,1,3.15.6,6.07,6.07,0,0,1,2.4,2.18,11.15,11.15,0,0,1,1.42,3.9,26.31,26.31,0,0,1,.53,5.92Zm53.61-10.65a34.66,34.66,0,0,0-1.35-10.35A18.59,18.59,0,0,0,424,5.4a13.92,13.92,0,0,0-5.7-4.05A19.22,19.22,0,0,0,411,0a19.43,19.43,0,0,0-7.35,1.35A13.64,13.64,0,0,0,398,5.4a18.44,18.44,0,0,0-3.67,7.06A34.66,34.66,0,0,0,393,22.81V32a34.49,34.49,0,0,0,1.35,10.28A20.05,20.05,0,0,0,398,49.45a13.89,13.89,0,0,0,5.71,4A19.43,19.43,0,0,0,411,54.85a19.14,19.14,0,0,0,7.35-1.35,13.79,13.79,0,0,0,5.7-4,19.9,19.9,0,0,0,3.68-7.13A37.12,37.12,0,0,0,429.05,32ZM418.47,33.46a27.11,27.11,0,0,1-.53,6,11.58,11.58,0,0,1-1.42,4,5.39,5.39,0,0,1-2.33,2.18,7.64,7.64,0,0,1-6.3,0,5.39,5.39,0,0,1-2.33-2.18,11.73,11.73,0,0,1-1.5-4,33.8,33.8,0,0,1-.45-6V21.23a32.8,32.8,0,0,1,.45-5.92,11.15,11.15,0,0,1,1.43-3.9,6.3,6.3,0,0,1,2.32-2.18,7.41,7.41,0,0,1,3.15-.6,7,7,0,0,1,3.15.6,6,6,0,0,1,2.41,2.18,11.15,11.15,0,0,1,1.42,3.9,26.31,26.31,0,0,1,.53,5.92Zm27.72-3.52a14.08,14.08,0,0,1,1.2-1.05,6.59,6.59,0,0,1,1.42-1,12.49,12.49,0,0,1,1.95-.6,9,9,0,0,1,2.55-.3,10.22,10.22,0,0,1,3.83.68,6.89,6.89,0,0,1,2.63,1.95,6.51,6.51,0,0,1,1.57,2.92,12.67,12.67,0,0,1,.53,3.83,20.39,20.39,0,0,1-.38,3.9,10,10,0,0,1-1.35,3.15,6.37,6.37,0,0,1-2.32,2.11,6.86,6.86,0,0,1-3.38.75,7.24,7.24,0,0,1-5.25-1.88,7.65,7.65,0,0,1-2.33-5.18h-10.5A15.51,15.51,0,0,0,438,45.85a15.09,15.09,0,0,0,4.05,4.87,16.88,16.88,0,0,0,5.7,3.08,22.37,22.37,0,0,0,6.68,1.05,19.85,19.85,0,0,0,7.95-1.5,15.78,15.78,0,0,0,9-9.61A22.09,22.09,0,0,0,472.45,37a26.65,26.65,0,0,0-1.05-7.58,15.92,15.92,0,0,0-3.23-5.62,13.69,13.69,0,0,0-5.1-3.53,17.93,17.93,0,0,0-6.9-1.2,24.3,24.3,0,0,0-2.48.15,22.16,22.16,0,0,0-2.33.52c-.67.23-1.27.45-1.8.68a5.6,5.6,0,0,0-1.35.67L449.49,9.6h21.23V.75H440.78l-3.07,27.09ZM500.24,27H479.61v8.48h20.63Zm44.62,18.54h-23l9.38-9.91c1.8-1.87,3.45-3.6,4.87-5.33a36.44,36.44,0,0,0,3.76-5,24.58,24.58,0,0,0,2.32-5,15,15,0,0,0,.9-5.17A17.52,17.52,0,0,0,542,8.78a12.77,12.77,0,0,0-3.38-4.73,15.26,15.26,0,0,0-5.4-3,25.36,25.36,0,0,0-7.51-1A19.56,19.56,0,0,0,518,1.43a16.9,16.9,0,0,0-5.78,3.75,16.46,16.46,0,0,0-3.75,5.55,19,19,0,0,0-1.28,6.83h10.66a10.83,10.83,0,0,1,.52-3.6,8.53,8.53,0,0,1,1.43-2.86,6.81,6.81,0,0,1,2.47-1.87,7.41,7.41,0,0,1,3.3-.68,6.52,6.52,0,0,1,5.11,2,8.19,8.19,0,0,1,1.8,5.63,7,7,0,0,1-.38,2.4,13.18,13.18,0,0,1-1.12,2.7,23.25,23.25,0,0,1-2.18,3.23,44.45,44.45,0,0,1-3.3,3.9L508.24,46.82V54.1h36.62Zm42.35-22.74a34.66,34.66,0,0,0-1.35-10.35,18.45,18.45,0,0,0-3.68-7.06,13.79,13.79,0,0,0-5.7-4.05A19.17,19.17,0,0,0,569.13,0a19.44,19.44,0,0,0-7.36,1.35,13.61,13.61,0,0,0-5.62,4.05,18.32,18.32,0,0,0-3.68,7.06,34.66,34.66,0,0,0-1.35,10.35V32a34.49,34.49,0,0,0,1.35,10.28,19.9,19.9,0,0,0,3.68,7.13,13.79,13.79,0,0,0,5.7,4,19.43,19.43,0,0,0,7.35,1.35,19.14,19.14,0,0,0,7.35-1.35,13.89,13.89,0,0,0,5.71-4,20.05,20.05,0,0,0,3.67-7.13A37.12,37.12,0,0,0,587.21,32ZM576.63,33.46a27.11,27.11,0,0,1-.53,6,11.58,11.58,0,0,1-1.42,4,5.39,5.39,0,0,1-2.33,2.18,7.64,7.64,0,0,1-6.3,0,5.39,5.39,0,0,1-2.33-2.18,11.73,11.73,0,0,1-1.5-4,33.8,33.8,0,0,1-.45-6V21.23a32.8,32.8,0,0,1,.45-5.92,11.15,11.15,0,0,1,1.43-3.9A6.3,6.3,0,0,1,566,9.23a7.42,7.42,0,0,1,3.16-.6,7,7,0,0,1,3.15.6,6.07,6.07,0,0,1,2.4,2.18,11.15,11.15,0,0,1,1.42,3.9,26.31,26.31,0,0,1,.53,5.92Z"></path><path class="cls-2" d="M363.65,146.62a7.18,7.18,0,0,1-1.95,2.32,14.29,14.29,0,0,1-3.23,1.58,15.66,15.66,0,0,1-4.42.53,16.44,16.44,0,0,1-3.76-.38,11.24,11.24,0,0,1-3.52-1.35,7.6,7.6,0,0,1-2.63-2.48,7.82,7.82,0,0,1-1.2-3.9h-4.43a10.19,10.19,0,0,0,1.05,4.43,11.2,11.2,0,0,0,3,3.83,14.61,14.61,0,0,0,4.8,2.62,22.73,22.73,0,0,0,6.68,1,21.41,21.41,0,0,0,6.07-.83,12.91,12.91,0,0,0,4.58-2.25,11,11,0,0,0,3-3.45,9.84,9.84,0,0,0,1-4.5,9.4,9.4,0,0,0-.83-4.21,8.45,8.45,0,0,0-2.47-3.22,18.19,18.19,0,0,0-4.36-2.48,41.91,41.91,0,0,0-6.15-1.8,41.45,41.45,0,0,1-5.4-1.57,11.61,11.61,0,0,1-3.23-1.73,4,4,0,0,1-1.57-2,6.22,6.22,0,0,1-.45-2.4,5.9,5.9,0,0,1,.6-2.47,5.75,5.75,0,0,1,1.65-2.25,10.09,10.09,0,0,1,3-1.58,12.42,12.42,0,0,1,4.35-.6,12.9,12.9,0,0,1,4.35.68,9.54,9.54,0,0,1,3.23,1.8,7.52,7.52,0,0,1,2,2.62,6.88,6.88,0,0,1,.68,3h4.35a10.93,10.93,0,0,0-1-4.72,11.75,11.75,0,0,0-2.85-3.76,14.56,14.56,0,0,0-4.66-2.47A21.13,21.13,0,0,0,348,114.5a14.46,14.46,0,0,0-4.42,2.33,10.2,10.2,0,0,0-2.78,3.45,9,9,0,0,0-1,4.2,9.41,9.41,0,0,0,.9,4.21,8.1,8.1,0,0,0,2.71,3.07,15.73,15.73,0,0,0,4.35,2.25,46.16,46.16,0,0,0,5.85,1.58,31,31,0,0,1,5.4,1.65,10.87,10.87,0,0,1,3.23,2,6.17,6.17,0,0,1,2,4.73,5.51,5.51,0,0,1-.68,2.63Zm13.09-12a28.05,28.05,0,0,0,1.05,8.18,18.47,18.47,0,0,0,3,6.38,14.79,14.79,0,0,0,4.8,4.13,13.91,13.91,0,0,0,6.45,1.5,16.45,16.45,0,0,0,7.13-1.5,14.37,14.37,0,0,0,5-4.13v20.11h4.42V114.43h-4.12l-.23,5.33a14.31,14.31,0,0,0-4.95-4.51,15.48,15.48,0,0,0-7.2-1.57,14.42,14.42,0,0,0-6.53,1.42,14.57,14.57,0,0,0-4.8,4.06,18.51,18.51,0,0,0-3,6.37,28.83,28.83,0,0,0-1.05,8.33Zm4.43-.75a29.41,29.41,0,0,1,.68-6.45,15.85,15.85,0,0,1,2.17-5.25,10.12,10.12,0,0,1,3.68-3.45,9.72,9.72,0,0,1,5.25-1.28,11.5,11.5,0,0,1,4.05.6,12.66,12.66,0,0,1,3.15,1.65,11.89,11.89,0,0,1,2.41,2.33,13.94,13.94,0,0,1,1.65,2.77v19.44A13.34,13.34,0,0,1,402.4,147a11.68,11.68,0,0,1-2.47,2.18,12,12,0,0,1-3.15,1.42,15.45,15.45,0,0,1-3.9.46,10.62,10.62,0,0,1-5.26-1.21,11.61,11.61,0,0,1-3.6-3.52,15.56,15.56,0,0,1-2.17-5.18,30.08,30.08,0,0,1-.68-6.53Zm64.71,20.19h4.28V114.43h-4.43v28.66a14.73,14.73,0,0,1-1.5,3.15,8.33,8.33,0,0,1-2.4,2.48,10.23,10.23,0,0,1-3.52,1.65,17,17,0,0,1-4.66.6,11,11,0,0,1-3.52-.53,7.16,7.16,0,0,1-2.93-1.87,9,9,0,0,1-1.95-3.38,17.77,17.77,0,0,1-.75-5.32V114.43h-4.35v25.36a20.79,20.79,0,0,0,1,6.9,12.19,12.19,0,0,0,2.63,4.66,10.73,10.73,0,0,0,4.13,2.62,16.68,16.68,0,0,0,5.32.83,17,17,0,0,0,7.66-1.58,12.84,12.84,0,0,0,4.95-4.2Zm45.28,0v-.45a15,15,0,0,1-.52-1.65c-.15-.6-.23-1.28-.38-2s-.15-1.35-.22-2.1a19.05,19.05,0,0,1-.08-2.1V126.58a14.09,14.09,0,0,0-1-5.62,11.07,11.07,0,0,0-3-4.06,13,13,0,0,0-4.5-2.4,20.86,20.86,0,0,0-12.08.15,17.32,17.32,0,0,0-4.8,2.63,12.3,12.3,0,0,0-3.08,3.75,8.61,8.61,0,0,0-1.05,4.28l4.35.07a6.56,6.56,0,0,1,.83-3.15,8.56,8.56,0,0,1,2.17-2.55,10.35,10.35,0,0,1,3.38-1.65,12.63,12.63,0,0,1,4.2-.67q5.07,0,7.65,2.47a8.64,8.64,0,0,1,2.63,6.68V131h-8.1a32.75,32.75,0,0,0-7.58.83,17.17,17.17,0,0,0-5.7,2.55,10.36,10.36,0,0,0-4.81,9.15,10.86,10.86,0,0,0,.9,4.43,10.58,10.58,0,0,0,2.56,3.6,12,12,0,0,0,4.05,2.4,16.56,16.56,0,0,0,5.25.83,19.7,19.7,0,0,0,4.35-.53,23.2,23.2,0,0,0,3.75-1.35,14.08,14.08,0,0,0,3-2,11.75,11.75,0,0,0,2.33-2.41c.08,1,.15,2,.3,3.08a10,10,0,0,0,.6,2.48ZM469,150.29a8.61,8.61,0,0,1-2.85-1.65,6.47,6.47,0,0,1-1.73-2.47,6.76,6.76,0,0,1-.67-3,7.47,7.47,0,0,1,1-3.68,7.85,7.85,0,0,1,2.85-2.78,13.64,13.64,0,0,1,4.5-1.72,24.36,24.36,0,0,1,6-.6h7.5v8.7a13,13,0,0,1-1.95,3.08,15.68,15.68,0,0,1-2.85,2.47,14.61,14.61,0,0,1-3.68,1.65,16.41,16.41,0,0,1-4.43.61,10.94,10.94,0,0,1-3.67-.61Zm51.06-36.16a7.18,7.18,0,0,0-1.28-.3,12.14,12.14,0,0,0-8.4,1.72,13.69,13.69,0,0,0-4.43,5.18l-.07-6.3h-4.28v39.62H506V126.81a19.21,19.21,0,0,1,1.5-3.6,10.46,10.46,0,0,1,2.33-2.78,9.58,9.58,0,0,1,3.15-1.87,11.47,11.47,0,0,1,4-.68,17.86,17.86,0,0,1,2.93.23Z"></path><path class="cls-2" d="M546.33,154.2a15.25,15.25,0,0,0,6.91-3.68,19.22,19.22,0,0,0,2.32-2.78l-2.77-2a13.1,13.1,0,0,1-4.88,4.05,13.81,13.81,0,0,1-6.23,1.28,12.43,12.43,0,0,1-5.55-1.21,13.33,13.33,0,0,1-4.28-3.37,15.3,15.3,0,0,1-2.78-4.95,18.75,18.75,0,0,1-1-6.16v-.82h28.29v-2.7a25.25,25.25,0,0,0-1-7.28,16.38,16.38,0,0,0-3-5.78,14.52,14.52,0,0,0-5-3.75,15.58,15.58,0,0,0-6.67-1.35,14.82,14.82,0,0,0-6.46,1.42,17.77,17.77,0,0,0-5.4,4.06,18.58,18.58,0,0,0-3.75,6.3,24.22,24.22,0,0,0-1.35,8.33v1.57a21.9,21.9,0,0,0,1.35,7.81,17.49,17.49,0,0,0,3.67,6.15,15.75,15.75,0,0,0,5.63,4,17.17,17.17,0,0,0,7.13,1.5,18.86,18.86,0,0,0,4.8-.6Zm-.75-35.72a12.13,12.13,0,0,1,3.53,2.85,13.42,13.42,0,0,1,2.1,4.13,17.45,17.45,0,0,1,.83,4.88v.45H528.25a19.84,19.84,0,0,1,1.43-5.48,13.64,13.64,0,0,1,2.62-4.2,13.33,13.33,0,0,1,3.75-2.78,12,12,0,0,1,4.66-.9,11.15,11.15,0,0,1,4.87,1Z"></path><path d="M934.57,672.52v-4.08c.06-2.87.72-5.09,2-6.59a7,7,0,0,1,5.7-2.28,7.87,7.87,0,0,1,5.87,2,9.74,9.74,0,0,1,0,11.93,6.92,6.92,0,0,1-5.34,2.16v5.45a10.77,10.77,0,0,0,8.58-3.78,16,16,0,0,0-.12-19.47,11.63,11.63,0,0,0-9.11-3.78,10.47,10.47,0,0,0-6.3,1.92,10.75,10.75,0,0,0-3.65,5.45,11,11,0,0,0-3.9-4.91,9.38,9.38,0,0,0-5.39-1.8c-3.84,0-6.78,1.14-8.93,3.41s-3.18,5.46-3.18,9.47a13.57,13.57,0,0,0,3.36,9.41,10.85,10.85,0,0,0,8.39,3.72v-5.45a6.92,6.92,0,0,1-5.28-2,7.76,7.76,0,0,1-2-5.64c0-5,2.52-7.49,7.5-7.49a6.86,6.86,0,0,1,5.33,2.22,9.09,9.09,0,0,1,2,6.05v4.08Zm-5.69-52.58c-6.17.06-10.67,1.2-13.61,3.35s-4.43,5.52-4.43,10.13,1.5,8,4.55,10.19,7.74,3.24,14,3.24h7.25c6-.06,10.49-1.2,13.55-3.42s4.49-5.51,4.49-10.07-1.56-8-4.61-10.19-7.79-3.23-14.15-3.23Zm8.45,5.39c4.44.06,7.73.78,9.77,2a7.26,7.26,0,0,1-.18,12c-2.22,1.32-5.57,2-10.19,2H928c-4.31-.07-7.55-.72-9.65-2a6.53,6.53,0,0,1-3.12-6.06,6.61,6.61,0,0,1,3.18-6.11c2.1-1.32,5.39-2,10-2Z"></path><path class="cls-3" d="M113.52,903.65H726.65M839.18,489.81V810.66"></path><path d="M371.08,956.79c-6.59.12-11.57,2.21-14.92,6.35s-5,10.13-5,18v2.1A18.89,18.89,0,0,0,355,995.33a12.12,12.12,0,0,0,9.89,4.67,12.35,12.35,0,0,0,9.65-4c2.39-2.63,3.59-6.11,3.59-10.54a15.2,15.2,0,0,0-3.35-10.13,11.12,11.12,0,0,0-8.87-3.9c-3.9,0-7,1.26-9.17,3.84.36-4.38,1.79-7.73,4.31-10.19a14.33,14.33,0,0,1,10.07-3.72h1v-4.61Zm-.48,22a10.87,10.87,0,0,1,2.1,7,10.64,10.64,0,0,1-2.1,7,6.84,6.84,0,0,1-5.75,2.7,7.12,7.12,0,0,1-5.88-3.18,13.78,13.78,0,0,1-2.39-8.45v-2a8.37,8.37,0,0,1,3.23-4.14,8.75,8.75,0,0,1,5.16-1.67,6.84,6.84,0,0,1,5.63,2.69Zm40.66-4.55c-.06-6.18-1.2-10.67-3.36-13.61s-5.51-4.43-10.13-4.43-8,1.5-10.19,4.55-3.24,7.73-3.24,14V982c.06,6,1.2,10.49,3.42,13.55s5.52,4.49,10.07,4.49,8-1.56,10.19-4.61,3.24-7.8,3.24-14.15Zm-5.4,8.45c-.06,4.43-.78,7.73-2,9.77a7.25,7.25,0,0,1-12-.18c-1.32-2.22-2-5.58-2-10.19v-8.69c.06-4.32.72-7.55,2-9.65a6.52,6.52,0,0,1,6-3.12,6.59,6.59,0,0,1,6.11,3.18c1.32,2.1,2,5.39,2,10Zm16.62-14.92h-6.29l10.37,15.64-10.67,16h6.29l7.31-11.87,7.32,11.87h6.29l-10.73-16,10.37-15.64h-6.29l-7,11.56Zm45.75-11c-6.59.12-11.57,2.21-14.93,6.35s-5,10.13-5,18v2.1a18.89,18.89,0,0,0,3.84,12.11A12.1,12.1,0,0,0,462,1000a12.31,12.31,0,0,0,9.64-4c2.4-2.63,3.6-6.11,3.6-10.54a15.15,15.15,0,0,0-3.36-10.13,11.09,11.09,0,0,0-8.87-3.9c-3.89,0-6.95,1.26-9.17,3.84.36-4.38,1.8-7.73,4.32-10.19a14.32,14.32,0,0,1,10.07-3.72h1v-4.61Zm-.48,22a10.87,10.87,0,0,1,2.1,7,10.64,10.64,0,0,1-2.1,7,6.84,6.84,0,0,1-5.75,2.7,7.12,7.12,0,0,1-5.88-3.18,13.72,13.72,0,0,1-2.4-8.45v-2a8.39,8.39,0,0,1,3.24-4.14,8.75,8.75,0,0,1,5.16-1.67,6.84,6.84,0,0,1,5.63,2.69Zm40.65-4.55c-.06-6.18-1.2-10.67-3.35-13.61s-5.52-4.43-10.13-4.43-8,1.5-10.19,4.55-3.24,7.73-3.24,14V982c.06,6,1.2,10.49,3.42,13.55S490.42,1000,495,1000s8-1.56,10.19-4.61,3.23-7.8,3.23-14.15ZM503,982.68c-.06,4.43-.78,7.73-2,9.77a7.26,7.26,0,0,1-12.05-.18c-1.31-2.22-2-5.58-2-10.19v-8.69c.06-4.32.72-7.55,2-9.65a6.53,6.53,0,0,1,6.06-3.12A6.61,6.61,0,0,1,501,963.8c1.32,2.1,2,5.39,2,10Z"></path><path class="cls-4" d="M499.58,285.79C486.4,302.94,455.52,315,419.53,315s-66.86-12-80-29.19Z"></path><rect class="cls-4" x="368.95" y="262.73" width="101.17" height="23.07"></rect><rect class="cls-4" x="116.02" y="501.7" width="608.14" height="306.46"></rect><polygon class="cls-4" points="540.5 532.47 302.97 532.47 266.68 501.7 308.47 501.7 574.59 501.7 540.5 532.47 540.5 532.47"></polygon><line class="cls-4" x1="308.47" y1="501.7" x2="339.49" y2="532.47"></line><line class="cls-4" x1="530.61" y1="501.7" x2="499.58" y2="532.47"></line><line class="cls-4" x1="191.9" y1="501.7" x2="191.9" y2="808.16"></line><line class="cls-4" x1="646.07" y1="501.7" x2="646.07" y2="808.16"></line><line class="cls-4" x1="421.12" y1="285.79" x2="421.12" y2="499.86"></line><line class="cls-4" x1="472.06" y1="305.25" x2="573.37" y2="499.86"></line><line class="cls-4" x1="365.83" y1="304.75" x2="267.93" y2="499.86"></line><line class="cls-5" x1="504.19" y1="638.57" x2="428.43" y2="541.39"></line><line class="cls-5" x1="338.88" y1="638.57" x2="408.93" y2="547.44"></line><line class="cls-6" x1="411.42" y1="544.34" x2="413.75" y2="541.39"></line><line class="cls-5" x1="421.02" y1="532.47" x2="421.02" y2="636.66"></line><polygon class="cls-5" points="337.08 640.21 323.45 642.75 311.6 659.14 329.67 670.88 341.53 653.65 337.08 640.21"></polygon><polygon class="cls-5" points="505.16 640.21 518.79 642.75 530.64 659.14 512.57 670.88 500.7 653.65 505.16 640.21"></polygon><polygon class="cls-5" points="420.41 642.08 410.65 651.93 410.25 672.15 431.79 671.51 431.72 650.58 420.41 642.08"></polygon></svg> 