<?xml version="1.0" encoding="UTF-8"?> <svg xmlns="http://www.w3.org/2000/svg" id="Livello_1" data-name="Livello 1" viewBox="0 0 1166.67 998.95"><defs><style>.cls-1{fill:#fff;}.cls-2{fill:#231f20;}.cls-3,.cls-4,.cls-5{fill:none;stroke:#000;stroke-width:0.25px;}.cls-4{stroke-miterlimit:10;}.cls-5{stroke-linejoin:round;}</style></defs><title>sosp. low cylinder 100</title><rect class="cls-1" width="1166.67" height="998.95"></rect><path class="cls-2" d="M394.09,25.16a38.36,38.36,0,0,0-1.49-11.42A20.43,20.43,0,0,0,388.54,6a15.19,15.19,0,0,0-6.29-4.47A21.19,21.19,0,0,0,374.14,0,21.48,21.48,0,0,0,366,1.49,15,15,0,0,0,359.82,6a20.43,20.43,0,0,0-4.06,7.78,38.36,38.36,0,0,0-1.49,11.42V35.34a38.23,38.23,0,0,0,1.49,11.35,22.16,22.16,0,0,0,4.06,7.86A15.19,15.19,0,0,0,366.11,59a22.84,22.84,0,0,0,16.23,0,15.19,15.19,0,0,0,6.29-4.47,22.15,22.15,0,0,0,4.05-7.86,41.27,41.27,0,0,0,1.41-11.35ZM382.42,36.92a30.46,30.46,0,0,1-.58,6.62,12.93,12.93,0,0,1-1.57,4.39,6,6,0,0,1-2.57,2.4,8.53,8.53,0,0,1-6.95,0,5.89,5.89,0,0,1-2.57-2.4,12.88,12.88,0,0,1-1.65-4.39,36.36,36.36,0,0,1-.5-6.62V23.43a35.35,35.35,0,0,1,.5-6.54,12.44,12.44,0,0,1,1.57-4.31,7.09,7.09,0,0,1,2.56-2.4,8.12,8.12,0,0,1,3.48-.66,7.68,7.68,0,0,1,3.48.66,6.8,6.8,0,0,1,2.65,2.4,12.44,12.44,0,0,1,1.57,4.31,29.62,29.62,0,0,1,.58,6.54ZM432,.25a30.75,30.75,0,0,0-12.66,2.4,26.67,26.67,0,0,0-9.44,6.62A30.74,30.74,0,0,0,404,19.53a40.57,40.57,0,0,0-2,13v4.55a28.85,28.85,0,0,0,1.49,9.52A22,22,0,0,0,407.62,54a18.85,18.85,0,0,0,6.54,4.8,20.34,20.34,0,0,0,8.52,1.74,21.36,21.36,0,0,0,8.2-1.57,19,19,0,0,0,6.29-4.31,18.6,18.6,0,0,0,4-6.37,23,23,0,0,0,1.41-7.95,28.93,28.93,0,0,0-1.08-7.7,19.17,19.17,0,0,0-3.14-6.37,15.46,15.46,0,0,0-5.22-4.3,16,16,0,0,0-7.37-1.66A17.43,17.43,0,0,0,419,21.6a16.14,16.14,0,0,0-5.13,3.56,19.18,19.18,0,0,1,2-6.37A14.43,14.43,0,0,1,419.7,14a18.22,18.22,0,0,1,5.8-3.06A22.62,22.62,0,0,1,433,9.85h.66V.25Zm-6.12,30.21a9.16,9.16,0,0,1,2.73,2.24,11.19,11.19,0,0,1,1.74,3.39,14.34,14.34,0,0,1,.58,4.3,14.4,14.4,0,0,1-.58,4.31A10.74,10.74,0,0,1,428.56,48a6.83,6.83,0,0,1-2.65,2.23,6.74,6.74,0,0,1-3.48.83,8.7,8.7,0,0,1-3.56-.74A8.43,8.43,0,0,1,416.06,48a13,13,0,0,1-1.74-3.89,21.6,21.6,0,0,1-.66-5.46V35.1a9.56,9.56,0,0,1,3.23-3.81,9,9,0,0,1,2.4-1.16,8.49,8.49,0,0,1,2.9-.41,8.39,8.39,0,0,1,3.64.74Zm63.11-5.3a38.36,38.36,0,0,0-1.49-11.42A20.43,20.43,0,0,0,483.39,6a15.19,15.19,0,0,0-6.29-4.47A21.19,21.19,0,0,0,469,0a21.48,21.48,0,0,0-8.11,1.49A15,15,0,0,0,454.67,6a20.43,20.43,0,0,0-4.06,7.78,38.36,38.36,0,0,0-1.49,11.42V35.34a38.23,38.23,0,0,0,1.49,11.35,22.16,22.16,0,0,0,4.06,7.86A15.19,15.19,0,0,0,461,59a21.48,21.48,0,0,0,8.11,1.49A21.19,21.19,0,0,0,477.18,59a15.22,15.22,0,0,0,6.3-4.47,22.15,22.15,0,0,0,4-7.86,41.27,41.27,0,0,0,1.41-11.35ZM477.27,36.92a30.46,30.46,0,0,1-.58,6.62,12.72,12.72,0,0,1-1.58,4.39,5.93,5.93,0,0,1-2.56,2.4,8.53,8.53,0,0,1-6.95,0,5.89,5.89,0,0,1-2.57-2.4,12.87,12.87,0,0,1-1.66-4.39,37.39,37.39,0,0,1-.49-6.62V23.43a36.35,36.35,0,0,1,.49-6.54A12.44,12.44,0,0,1,463,12.58a7.09,7.09,0,0,1,2.56-2.4A8.12,8.12,0,0,1,469,9.52a7.68,7.68,0,0,1,3.48.66,6.71,6.71,0,0,1,2.64,2.4,12.24,12.24,0,0,1,1.58,4.31,29.62,29.62,0,0,1,.58,6.54ZM531.35.83H519.52L495,39.57l.49,7.36h24.17V59.68h11.67V46.93H538V37.5h-6.63Zm-12.49,17.3.82-1.41V37.5H506.6ZM567.48,29.8H544.72v9.35h22.76ZM616.7,50.24H591.37l10.35-10.92c2-2.07,3.8-4,5.38-5.88a40.65,40.65,0,0,0,4.14-5.54,27.72,27.72,0,0,0,2.56-5.47,16.61,16.61,0,0,0,1-5.71,19.32,19.32,0,0,0-1.24-7,14.12,14.12,0,0,0-3.72-5.21,16.47,16.47,0,0,0-6-3.31A27.59,27.59,0,0,0,595.59,0a21.81,21.81,0,0,0-8.52,1.57,18.92,18.92,0,0,0-6.38,4.14,18.35,18.35,0,0,0-4.14,6.13,21,21,0,0,0-1.4,7.53H586.9a11.85,11.85,0,0,1,.58-4,9.31,9.31,0,0,1,1.57-3.15,7.62,7.62,0,0,1,2.73-2.07,8.17,8.17,0,0,1,3.65-.74,7.15,7.15,0,0,1,5.62,2.23,9,9,0,0,1,2,6.21,7.69,7.69,0,0,1-.41,2.65,15.07,15.07,0,0,1-1.24,3A24.34,24.34,0,0,1,599,27.07a47.89,47.89,0,0,1-3.64,4.3l-19,20.28v8h40.4Zm47.46,0H638.83l10.35-10.92c2-2.07,3.81-4,5.38-5.88a39.84,39.84,0,0,0,4.14-5.54,27.22,27.22,0,0,0,2.57-5.47,16.61,16.61,0,0,0,1-5.71,19.32,19.32,0,0,0-1.24-7,14,14,0,0,0-3.73-5.21,16.47,16.47,0,0,0-6-3.31A27.57,27.57,0,0,0,643.06,0a21.86,21.86,0,0,0-8.53,1.57,19,19,0,0,0-6.37,4.14A18.2,18.2,0,0,0,624,11.84a21,21,0,0,0-1.41,7.53h11.76a11.86,11.86,0,0,1,.57-4,9.51,9.51,0,0,1,1.58-3.15,7.45,7.45,0,0,1,2.73-2.07,8.09,8.09,0,0,1,3.64-.74,7.17,7.17,0,0,1,5.63,2.23,9,9,0,0,1,2,6.21,7.71,7.71,0,0,1-.42,2.65,14.49,14.49,0,0,1-1.24,3,25,25,0,0,1-2.4,3.56,47.89,47.89,0,0,1-3.64,4.3l-19,20.28v8h40.39Z"></path><path class="cls-2" d="M306.48,107.86H301.6v62.08h4.88Zm10.42,40.89a27.61,27.61,0,0,0,1.4,8.86,20.59,20.59,0,0,0,4,6.95,17.62,17.62,0,0,0,6.12,4.55,20.25,20.25,0,0,0,16.06,0,18.84,18.84,0,0,0,6.21-4.55,22,22,0,0,0,3.89-6.95,27.61,27.61,0,0,0,1.41-8.86v-1.32a27.12,27.12,0,0,0-1.41-8.78,21.47,21.47,0,0,0-3.89-7,18.87,18.87,0,0,0-6.21-4.56,19.81,19.81,0,0,0-8.11-1.65,19.32,19.32,0,0,0-8,1.65,18.87,18.87,0,0,0-6.21,4.56,21.47,21.47,0,0,0-3.89,7,27.12,27.12,0,0,0-1.4,8.78Zm4.88-1.32a23.24,23.24,0,0,1,.91-6.79,18.15,18.15,0,0,1,2.82-5.71,13,13,0,0,1,4.63-3.89,12.68,12.68,0,0,1,6.21-1.49,13.31,13.31,0,0,1,6.37,1.49,13.08,13.08,0,0,1,4.64,3.89,18.34,18.34,0,0,1,2.81,5.71,23.29,23.29,0,0,1,1,6.79v1.32a23.44,23.44,0,0,1-1,6.87,18.34,18.34,0,0,1-2.81,5.71,15.11,15.11,0,0,1-4.64,3.89,12.75,12.75,0,0,1-6.29,1.41,13,13,0,0,1-6.29-1.41,15.07,15.07,0,0,1-4.63-3.89,18.15,18.15,0,0,1-2.82-5.71,23.42,23.42,0,0,1-.91-6.87Zm45.32-21.2h-5l12.66,43.71h4.14l11-34.6.58-2.48.5,2.4,11.25,34.68h4.06l12.75-43.71h-5l-9,33.53-.91,4.22L403,159.43l-10.35-33.2h-4.14L378,159.68l-1,4-.66-3.81Zm91,39a13.87,13.87,0,0,1-4.31-3.89,17.8,17.8,0,0,1-2.32-5.71,29.59,29.59,0,0,1-.74-6.7v-1.66a30.2,30.2,0,0,1,.74-6.71,15.81,15.81,0,0,1,2.4-5.62,12.23,12.23,0,0,1,4.23-4,13.65,13.65,0,0,1,6.37-1.4,14.23,14.23,0,0,1,4.64.74,12.76,12.76,0,0,1,3.8,2.32,11.28,11.28,0,0,1,2.65,3.56,12.4,12.4,0,0,1,1.08,4.8h4.72a19.82,19.82,0,0,0-1.49-6.46,15.4,15.4,0,0,0-3.65-4.88,15.16,15.16,0,0,0-5.21-3.15,20.43,20.43,0,0,0-14.57.58,17.25,17.25,0,0,0-5.88,4.64,21.25,21.25,0,0,0-3.56,7,31.57,31.57,0,0,0-1.15,8.61v1.66a31.92,31.92,0,0,0,1.15,8.6,21.4,21.4,0,0,0,3.56,7,16.93,16.93,0,0,0,5.88,4.55,17.65,17.65,0,0,0,8,1.74,20.17,20.17,0,0,0,6.37-1.08,17.77,17.77,0,0,0,5.22-3,14.07,14.07,0,0,0,3.72-4.55,14.75,14.75,0,0,0,1.58-5.71h-4.72a10.39,10.39,0,0,1-1.16,4.38,12.94,12.94,0,0,1-2.73,3.23,12.74,12.74,0,0,1-3.81,1.91,13.49,13.49,0,0,1-4.47.66,12.63,12.63,0,0,1-6.37-1.41Zm33.15-39h-5.3l16.47,43.38-2.15,5.71a16.94,16.94,0,0,1-1.49,3.48,10,10,0,0,1-2,2.48,7.19,7.19,0,0,1-2.56,1.49,11.06,11.06,0,0,1-3.48.5,6.25,6.25,0,0,1-1.16-.09c-.58-.08-1-.08-1.32-.16v4a2.48,2.48,0,0,1,.74.17c.33.08.66.08,1,.17s.74.08,1.07.16H492a11,11,0,0,0,5.13-1.07,14,14,0,0,0,3.48-2.74,15.46,15.46,0,0,0,2.24-3.47,32.13,32.13,0,0,0,1.4-3.4l18.54-50.66h-5.21L504.79,163Zm44.41-18.37h-4.89v62.08h4.89Zm18.52,18.37h-4.88v43.71h4.88Zm-4.88-10.34a3.51,3.51,0,0,0,2.48.91,3.31,3.31,0,0,0,2.4-.91,3.07,3.07,0,0,0,.91-2.32,3,3,0,0,0-.91-2.32,3.07,3.07,0,0,0-2.4-1,3.25,3.25,0,0,0-2.48,1,3.2,3.2,0,0,0-.83,2.32,3.33,3.33,0,0,0,.83,2.32Zm17.94,10.34v43.71H572V140a18.12,18.12,0,0,1,1.91-3.81,13.52,13.52,0,0,1,2.73-3.4,14.15,14.15,0,0,1,3.72-2.31,12.29,12.29,0,0,1,4.72-.83,14.13,14.13,0,0,1,4.31.58,7.11,7.11,0,0,1,3.22,1.9,9.72,9.72,0,0,1,2.07,3.64,18.71,18.71,0,0,1,.75,5.72v28.47h4.8V141.47a24.12,24.12,0,0,0-1-7.37,13.68,13.68,0,0,0-2.74-5,10.28,10.28,0,0,0-4.38-2.81,16.29,16.29,0,0,0-5.88-.91,15.57,15.57,0,0,0-4.47.58,17.82,17.82,0,0,0-3.89,1.65,17.5,17.5,0,0,0-3.31,2.65,17.69,17.69,0,0,0-2.57,3.39l-.16-7.45Zm43.5,22.27a30.85,30.85,0,0,0,1.16,9,21.94,21.94,0,0,0,3.31,7,16.4,16.4,0,0,0,5.29,4.55,15.17,15.17,0,0,0,7,1.66,17.47,17.47,0,0,0,8.11-1.74,16.49,16.49,0,0,0,5.55-4.88l.16,5.79h4.56V107.86h-4.8v24.5a16.48,16.48,0,0,0-5.55-5.13,16.13,16.13,0,0,0-7.95-1.82,14.86,14.86,0,0,0-7,1.57,15.69,15.69,0,0,0-5.38,4.47,21.94,21.94,0,0,0-3.31,7,31.6,31.6,0,0,0-1.16,9.18Zm4.88-.83a32.26,32.26,0,0,1,.75-7.12,18,18,0,0,1,2.31-5.71,11.18,11.18,0,0,1,4.06-3.8,10.68,10.68,0,0,1,5.79-1.41,15.83,15.83,0,0,1,4.64.66,13.3,13.3,0,0,1,3.56,1.9,11.34,11.34,0,0,1,2.56,2.74,17.85,17.85,0,0,1,1.83,3.22v20.53a18.26,18.26,0,0,1-2,3.15,10.92,10.92,0,0,1-2.65,2.48,12.78,12.78,0,0,1-3.56,1.66,15.93,15.93,0,0,1-4.47.58,11.31,11.31,0,0,1-9.77-5.22,17.87,17.87,0,0,1-2.31-5.71,31.62,31.62,0,0,1-.75-7.12Zm65.27,22.44a16.84,16.84,0,0,0,7.61-4.06A22.67,22.67,0,0,0,691,163L688,160.75a14.24,14.24,0,0,1-5.38,4.47,15.11,15.11,0,0,1-6.87,1.41,13.67,13.67,0,0,1-6.12-1.33,14.7,14.7,0,0,1-4.72-3.72,16.68,16.68,0,0,1-3.06-5.46,20.39,20.39,0,0,1-1.08-6.79v-.91H692v-3a27.82,27.82,0,0,0-1.16-8,18,18,0,0,0-3.31-6.37A15.84,15.84,0,0,0,682,126.9a17.09,17.09,0,0,0-7.36-1.49,16.16,16.16,0,0,0-7.12,1.57,19.53,19.53,0,0,0-6,4.47,20.59,20.59,0,0,0-4.14,7,26.84,26.84,0,0,0-1.49,9.19v1.74a24.21,24.21,0,0,0,1.49,8.61,19.3,19.3,0,0,0,4.06,6.79,17.21,17.21,0,0,0,6.2,4.38,18.8,18.8,0,0,0,7.87,1.66,20.88,20.88,0,0,0,5.3-.66ZM680,130.7a13.43,13.43,0,0,1,3.89,3.15,14.94,14.94,0,0,1,2.32,4.55,19.56,19.56,0,0,1,.91,5.38v.5H660.91a22.11,22.11,0,0,1,1.57-6,15.14,15.14,0,0,1,2.9-4.64,14.47,14.47,0,0,1,4.14-3.06,13.21,13.21,0,0,1,5.13-1A12.31,12.31,0,0,1,680,130.7Zm41.67-4.8a10.17,10.17,0,0,0-1.4-.33,14,14,0,0,0-1.82-.16,12.52,12.52,0,0,0-7.45,2.07,14.94,14.94,0,0,0-4.89,5.71l-.08-7h-4.72v43.71h4.8V139.89a21.85,21.85,0,0,1,1.66-4,11.35,11.35,0,0,1,2.56-3.06,10.52,10.52,0,0,1,3.48-2.07,12.62,12.62,0,0,1,4.47-.75,20.27,20.27,0,0,1,3.23.25Z"></path><path class="cls-3" d="M57.35,819.94H927.72M980.6,545.82V737.64"></path><path d="M455.2,923.39,452,929.93h4l2.38-4.83a16.62,16.62,0,0,0,6.15,1.13,15.75,15.75,0,0,0,8.26-2.18,15.44,15.44,0,0,0,5.62-6.35,20.73,20.73,0,0,0,2-9.19c0-6.88-2.12-12-6.28-15.34l3.3-6.61h-4l-2.32,4.82a15.85,15.85,0,0,0-6.61-1.38,15.19,15.19,0,0,0-8.26,2.24,15,15,0,0,0-5.62,6.35,20.65,20.65,0,0,0-2,9.19c0,7.21,2.25,12.37,6.62,15.61Zm2.11-25a8.61,8.61,0,0,1,7.14-3.5,8.78,8.78,0,0,1,4.3,1.06l-11,22.41c-2.12-2.45-3.11-5.69-3.11-9.85,0-4.37.86-7.74,2.71-10.12Zm17.06,9.92c0,4-.86,7.14-2.64,9.52a8.82,8.82,0,0,1-7.21,3.51,9.31,9.31,0,0,1-3.9-.8l11-22.21c1.86,2.38,2.78,5.55,2.78,9.45Zm32.29-29.95h-.93l-17.12,6.41v5.42l12-4.43v39.81h6Zm47,19.44c-.07-6.81-1.32-11.77-3.7-15s-6.09-4.89-11.18-4.89-8.86,1.65-11.24,5S524,891.45,524,898.33v8c.07,6.61,1.32,11.57,3.77,14.94s6.08,5,11.11,5,8.86-1.72,11.24-5.09,3.57-8.6,3.57-15.61Zm-6,9.32c-.07,4.89-.86,8.53-2.25,10.78a8,8,0,0,1-13.29-.2c-1.46-2.45-2.25-6.15-2.25-11.24v-9.59c.07-4.76.79-8.33,2.18-10.64s3.64-3.44,6.68-3.44,5.36,1.19,6.75,3.5,2.18,6,2.18,11Zm43.13-9.32c-.07-6.81-1.33-11.77-3.71-15s-6.08-4.89-11.17-4.89-8.86,1.65-11.24,5-3.57,8.53-3.57,15.41v8c.07,6.61,1.32,11.57,3.77,14.94s6.08,5,11.11,5,8.86-1.72,11.24-5.09,3.57-8.6,3.57-15.61Zm-6,9.32c-.07,4.89-.86,8.53-2.25,10.78a8,8,0,0,1-13.29-.2c-1.46-2.45-2.25-6.15-2.25-11.24v-9.59c.07-4.76.79-8.33,2.18-10.64s3.64-3.44,6.68-3.44,5.36,1.19,6.74,3.5,2.19,6,2.19,11Z"></path><rect class="cls-1" x="449.12" y="371.26" width="85.64" height="16.63"></rect><rect class="cls-4" x="449.12" y="371.26" width="85.64" height="16.63"></rect><path class="cls-1" d="M491.91,395.83H425.48s24.08,16.35,66.43,13.92Zm-.68,0h66.44s-24.07,16.35-66.44,13.92Z"></path><path class="cls-5" d="M491.91,395.83H425.48s24.08,16.35,66.43,13.92V395.83Zm-.68,0h66.44s-24.07,16.35-66.44,13.92V395.83Z"></path><path class="cls-4" d="M537.64,408.5l53.47,144M451,410.59l-52.8,141.9"></path><rect class="cls-1" x="482.72" y="413.99" width="17.72" height="28.36"></rect><rect class="cls-4" x="482.72" y="413.99" width="17.72" height="28.36"></rect><rect class="cls-1" x="486.69" y="417.96" width="9.78" height="20.41"></rect><rect class="cls-4" x="486.69" y="417.96" width="9.78" height="20.41"></rect><rect class="cls-1" x="482.72" y="521.99" width="17.72" height="17.72"></rect><rect class="cls-4" x="482.72" y="521.99" width="17.72" height="17.72"></rect><rect class="cls-1" x="486.69" y="525.94" width="9.78" height="9.78"></rect><rect class="cls-4" x="486.69" y="525.94" width="9.78" height="9.78"></rect><path class="cls-1" d="M460.63,553.88s30.95-37.33,61.91,0"></path><path class="cls-4" d="M460.63,553.88s30.95-37.33,61.91,0"></path><path class="cls-1" d="M462.62,550.36s29-20.49,57.92,0"></path><path class="cls-4" d="M462.62,550.36s29-20.49,57.92,0"></path><line class="cls-4" x1="491.58" y1="446.12" x2="491.58" y2="521.97"></line><path class="cls-1" d="M491.86,446.12v74.77M923.61,720.36H60.1v-168H923.61ZM60.11,563.83h863.5M62.19,709.18H925.71"></path><path class="cls-4" d="M491.86,446.12v74.77M923.61,720.36H60.1v-168H923.61ZM60.11,563.83h863.5M62.19,709.18H925.71"></path><path d="M1103.76,639.75v23.61l-13.69-12.57c-6.35-5.95-11.9-8.86-16.53-8.86a11.81,11.81,0,0,0-9.12,3.77c-2.32,2.58-3.44,6-3.44,10.38,0,4.7,1.32,8.4,4,11.18a13.63,13.63,0,0,0,10.45,4.23v-6a9.78,9.78,0,0,1-7.08-2.45,9.39,9.39,0,0,1-2.51-6.94,7.9,7.9,0,0,1,2.38-6,8.43,8.43,0,0,1,6-2.18,11.39,11.39,0,0,1,5.29,1.32,36.91,36.91,0,0,1,6.68,5l18.11,16.26h4.3V639.75Zm-22.88-35.86c-6.81.07-11.77,1.33-15,3.71s-4.89,6.08-4.89,11.17,1.65,8.86,5,11.24,8.53,3.57,15.41,3.57h8c6.61-.06,11.57-1.32,14.94-3.77s5-6.08,5-11.11-1.72-8.86-5.09-11.24-8.59-3.57-15.6-3.57Zm9.32,6c4.9.07,8.53.86,10.78,2.25a8,8,0,0,1-.2,13.29c-2.44,1.46-6.15,2.25-11.24,2.25H1080c-4.76-.07-8.34-.79-10.65-2.18s-3.44-3.64-3.44-6.68,1.19-5.36,3.51-6.74,5.95-2.19,11-2.19Z"></path></svg> 