<?xml version="1.0" encoding="UTF-8"?> <svg xmlns="http://www.w3.org/2000/svg" id="Livello_1" data-name="Livello 1" viewBox="0 0 998.95 1000"><defs><style>.cls-1{fill:#fff;}.cls-2{fill:#231f20;}.cls-3,.cls-4{fill:none;stroke:#000;stroke-width:0.25px;}.cls-4{stroke-miterlimit:10;}</style></defs><title>sosp. double small</title><rect class="cls-1" width="998.95" height="998.95"></rect><polygon class="cls-1" points="799.35 770.06 64.42 770.06 64.42 413.01 64.42 399.55 799.35 399.55 799.35 770.06"></polygon><path class="cls-2" d="M332,37v7.15h.66a24.71,24.71,0,0,0,9.64-1.7,18.13,18.13,0,0,0,6.85-4.79,19.59,19.59,0,0,0,4.12-7.39,32.19,32.19,0,0,0,1.33-9.64v-3a22.36,22.36,0,0,0-1-7.15,16.3,16.3,0,0,0-2.91-5.57,13.32,13.32,0,0,0-4.6-3.58,14,14,0,0,0-6-1.27,14.47,14.47,0,0,0-6,1.21,13.45,13.45,0,0,0-4.55,3.33,13.88,13.88,0,0,0-2.91,4.79,17.65,17.65,0,0,0-1,5.94,19.66,19.66,0,0,0,.79,5.76,13.62,13.62,0,0,0,2.43,4.54,12,12,0,0,0,3.93,3.09,12.89,12.89,0,0,0,5.46,1.09,10.15,10.15,0,0,0,4.24-.9A11.86,11.86,0,0,0,346,26.48a12.66,12.66,0,0,1-1.1,4.49,8.51,8.51,0,0,1-2.54,3.27,11.77,11.77,0,0,1-4.06,2.06,22,22,0,0,1-5.64.67Zm5.51-14.37a5.81,5.81,0,0,1-1.88-1.75,7.07,7.07,0,0,1-1.15-2.55,13,13,0,0,1-.36-3.15,12.69,12.69,0,0,1,.36-3,7.67,7.67,0,0,1,1.15-2.67,5.25,5.25,0,0,1,1.82-1.81A4.46,4.46,0,0,1,340,6.91a5.72,5.72,0,0,1,2.42.54,7.33,7.33,0,0,1,1.94,1.7,9.27,9.27,0,0,1,1.27,2.91,15.22,15.22,0,0,1,.43,4v3.51a7.18,7.18,0,0,1-2.25,2.61,6.19,6.19,0,0,1-3.57,1,5.61,5.61,0,0,1-2.73-.61Zm52.75,14.18H371.73l7.57-8c1.45-1.51,2.79-2.9,3.94-4.3a29.68,29.68,0,0,0,3-4.06,19.78,19.78,0,0,0,1.88-4,12.21,12.21,0,0,0,.73-4.18A14.29,14.29,0,0,0,388,7.09a10.36,10.36,0,0,0-2.73-3.82A12.12,12.12,0,0,0,380.88.85,20.2,20.2,0,0,0,374.82,0a15.89,15.89,0,0,0-6.25,1.15,13.92,13.92,0,0,0-4.66,3,13.39,13.39,0,0,0-3,4.49,15.23,15.23,0,0,0-1,5.51h8.6a8.48,8.48,0,0,1,.43-2.91A6.72,6.72,0,0,1,370,9a5.46,5.46,0,0,1,2-1.52,6,6,0,0,1,2.67-.54,5.26,5.26,0,0,1,4.12,1.63,6.63,6.63,0,0,1,1.45,4.55A5.67,5.67,0,0,1,380,15a10.6,10.6,0,0,1-.91,2.18,18.15,18.15,0,0,1-1.76,2.61A34.14,34.14,0,0,1,374.63,23L360.7,37.81v5.88h29.57Zm34.75,0H406.47l7.58-8c1.45-1.51,2.79-2.9,3.94-4.3a29.68,29.68,0,0,0,3-4.06,19.78,19.78,0,0,0,1.88-4,12.2,12.2,0,0,0,.72-4.18,14.29,14.29,0,0,0-.9-5.15A10.36,10.36,0,0,0,420,3.27,12.12,12.12,0,0,0,415.63.85,20.2,20.2,0,0,0,409.57,0a15.89,15.89,0,0,0-6.25,1.15,13.92,13.92,0,0,0-4.66,3,13.1,13.1,0,0,0-3,4.49,15.23,15.23,0,0,0-1,5.51h8.6a8.48,8.48,0,0,1,.43-2.91A6.72,6.72,0,0,1,404.78,9a5.46,5.46,0,0,1,2-1.52,6,6,0,0,1,2.66-.54,5.27,5.27,0,0,1,4.13,1.63A6.68,6.68,0,0,1,415,13.09a5.67,5.67,0,0,1-.3,1.94,11.19,11.19,0,0,1-.91,2.18,18.15,18.15,0,0,1-1.76,2.61A35.79,35.79,0,0,1,409.38,23L395.45,37.81v5.88H425Zm11.24.19v7.15h.66a24.71,24.71,0,0,0,9.64-1.7,18.09,18.09,0,0,0,6.84-4.79,19.61,19.61,0,0,0,4.13-7.39,32.52,32.52,0,0,0,1.33-9.64v-3a22.36,22.36,0,0,0-1-7.15,16.3,16.3,0,0,0-2.91-5.57,13.27,13.27,0,0,0-4.61-3.58,13.94,13.94,0,0,0-6-1.27,14.43,14.43,0,0,0-6,1.21,13.45,13.45,0,0,0-4.55,3.33,13.88,13.88,0,0,0-2.91,4.79,17.65,17.65,0,0,0-1,5.94,19.33,19.33,0,0,0,.79,5.76A13.42,13.42,0,0,0,433,25.57,12.07,12.07,0,0,0,437,28.66a12.89,12.89,0,0,0,5.46,1.09,10.18,10.18,0,0,0,4.24-.9,11.68,11.68,0,0,0,3.51-2.37A12.45,12.45,0,0,1,449.1,31a8.51,8.51,0,0,1-2.54,3.27,11.77,11.77,0,0,1-4.06,2.06,22,22,0,0,1-5.64.67Zm5.51-14.37a5.81,5.81,0,0,1-1.88-1.75,7.07,7.07,0,0,1-1.15-2.55,13,13,0,0,1-.36-3.15,12.69,12.69,0,0,1,.36-3,7.67,7.67,0,0,1,1.15-2.67,5.25,5.25,0,0,1,1.82-1.81,4.43,4.43,0,0,1,2.54-.73,5.74,5.74,0,0,1,2.43.54,7.33,7.33,0,0,1,1.94,1.7,9.27,9.27,0,0,1,1.27,2.91,15.69,15.69,0,0,1,.42,4v3.51a7.06,7.06,0,0,1-2.24,2.61,6.19,6.19,0,0,1-3.57,1,5.61,5.61,0,0,1-2.73-.61Zm40.2-.78H465.31v6.84H482Zm36,15H499.46l7.58-8c1.45-1.51,2.78-2.9,3.94-4.3a29.68,29.68,0,0,0,3-4.06,19.72,19.72,0,0,0,1.87-4,12,12,0,0,0,.73-4.18,14.08,14.08,0,0,0-.91-5.15A10.23,10.23,0,0,0,513,3.27,12.16,12.16,0,0,0,508.61.85,20.1,20.1,0,0,0,502.55,0a15.88,15.88,0,0,0-6.24,1.15,14,14,0,0,0-4.67,3,13.22,13.22,0,0,0-3,4.49,15.24,15.24,0,0,0-1,5.51h8.61a8.74,8.74,0,0,1,.42-2.91A6.92,6.92,0,0,1,497.77,9a5.46,5.46,0,0,1,2-1.52,6,6,0,0,1,2.66-.54,5.25,5.25,0,0,1,4.12,1.63A6.63,6.63,0,0,1,508,13.09,5.46,5.46,0,0,1,507.7,15a10.07,10.07,0,0,1-.91,2.18A18,18,0,0,1,505,19.82,35.79,35.79,0,0,1,502.37,23L488.43,37.81v5.88H518ZM550.27,6.91a9.31,9.31,0,0,0-2.85-3.76,12.17,12.17,0,0,0-4.3-2.36A18.91,18.91,0,0,0,537.67,0a19.73,19.73,0,0,0-5.52.79,12.71,12.71,0,0,0-4.3,2.36A10.51,10.51,0,0,0,525,6.91a12.33,12.33,0,0,0-1,5.15,10.1,10.1,0,0,0,1.52,5.57,11.08,11.08,0,0,0,4.3,3.88,12.18,12.18,0,0,0-4.91,4.12,10.46,10.46,0,0,0-1.88,6.25,11.58,11.58,0,0,0,1.15,5.39,11.34,11.34,0,0,0,3,3.88,14.26,14.26,0,0,0,4.67,2.36,21.58,21.58,0,0,0,11.57,0,14.45,14.45,0,0,0,4.61-2.36,11.34,11.34,0,0,0,3-3.88,12.38,12.38,0,0,0,1.09-5.39,11,11,0,0,0-1.82-6.25,12.78,12.78,0,0,0-5-4.12,11.08,11.08,0,0,0,4.3-3.88,10.14,10.14,0,0,0,1.58-5.57,12.32,12.32,0,0,0-1-5.15ZM542,35.75a5.72,5.72,0,0,1-4.36,1.64,6.58,6.58,0,0,1-2.49-.42,4.45,4.45,0,0,1-1.88-1.22,4.58,4.58,0,0,1-1.21-1.94,6.6,6.6,0,0,1-.42-2.54,7.22,7.22,0,0,1,.42-2.61,5.12,5.12,0,0,1,1.21-1.94,5.21,5.21,0,0,1,1.88-1.21,6.27,6.27,0,0,1,2.43-.42,6.56,6.56,0,0,1,2.48.42A5.21,5.21,0,0,1,542,26.72a6,6,0,0,1,1.21,1.94,7.22,7.22,0,0,1,.42,2.61A6,6,0,0,1,542,35.75Zm-.61-19.15a5.25,5.25,0,0,1-7.51,0,6,6,0,0,1-1.33-4.12,5.92,5.92,0,0,1,1.33-4.12,4.84,4.84,0,0,1,3.76-1.45,4.75,4.75,0,0,1,3.75,1.51,6.18,6.18,0,0,1,1.34,4.06,6.33,6.33,0,0,1-1.34,4.12Z"></path><path class="cls-2" d="M347.92,121a10.25,10.25,0,0,1-3.15-2.85,13,13,0,0,1-1.7-4.18,21.61,21.61,0,0,1-.54-4.91v-1.21a21.93,21.93,0,0,1,.54-4.91,11.51,11.51,0,0,1,1.76-4.12,9,9,0,0,1,3.09-2.91,10,10,0,0,1,4.67-1,10.56,10.56,0,0,1,3.39.54,9.41,9.41,0,0,1,2.79,1.7,8.64,8.64,0,0,1,1.94,2.61,9.14,9.14,0,0,1,.78,3.51H365a14.4,14.4,0,0,0-1.09-4.73,11.38,11.38,0,0,0-2.67-3.57,11,11,0,0,0-3.82-2.3,14.88,14.88,0,0,0-10.66.42,12.61,12.61,0,0,0-4.3,3.39,15.62,15.62,0,0,0-2.61,5.09,22.82,22.82,0,0,0-.85,6.31V109a23.11,23.11,0,0,0,.85,6.3,15.42,15.42,0,0,0,2.61,5.09,12.08,12.08,0,0,0,4.3,3.33,12.86,12.86,0,0,0,5.88,1.28,14.89,14.89,0,0,0,4.66-.79,13.08,13.08,0,0,0,3.82-2.18,10.35,10.35,0,0,0,2.73-3.34,10.78,10.78,0,0,0,1.15-4.18h-3.46a7.69,7.69,0,0,1-.84,3.22,9.9,9.9,0,0,1-2,2.36,9.35,9.35,0,0,1-2.79,1.39,9.57,9.57,0,0,1-3.27.49,9.4,9.4,0,0,1-4.67-1Zm24.27-28.55h-3.88l12.06,31.76-1.58,4.18a12,12,0,0,1-1.09,2.55,7.39,7.39,0,0,1-1.45,1.81,5.19,5.19,0,0,1-1.88,1.09,7.81,7.81,0,0,1-2.54.37,5,5,0,0,1-.85-.06c-.43-.06-.73-.06-1-.12v3a1.77,1.77,0,0,1,.54.13c.25.06.49.06.73.12s.55.06.79.12h.66a7.94,7.94,0,0,0,3.76-.79,10.22,10.22,0,0,0,2.55-2,11.66,11.66,0,0,0,1.63-2.54,22.59,22.59,0,0,0,1-2.49l13.58-37.09h-3.82l-9.33,26.91ZM404.7,79h-3.57v45.45h3.57Zm13.56,13.45h-3.57v32h3.57Zm-3.57-7.57a2.59,2.59,0,0,0,1.82.67,2.43,2.43,0,0,0,1.75-.67,2.22,2.22,0,0,0,.67-1.7,2.13,2.13,0,0,0-.67-1.69,2.22,2.22,0,0,0-1.75-.73,2.35,2.35,0,0,0-1.82.73,2.3,2.3,0,0,0-.61,1.69,2.41,2.41,0,0,0,.61,1.7Zm13.13,7.57v32h3.52V102.47a13.38,13.38,0,0,1,1.39-2.78,10.14,10.14,0,0,1,2-2.49,10.46,10.46,0,0,1,2.73-1.69,8.87,8.87,0,0,1,3.45-.61,10.55,10.55,0,0,1,3.16.42,5.33,5.33,0,0,1,2.36,1.4,7.1,7.1,0,0,1,1.51,2.66,13.53,13.53,0,0,1,.55,4.18v20.85H452V103.56a17.76,17.76,0,0,0-.72-5.39,10.09,10.09,0,0,0-2-3.63,7.47,7.47,0,0,0-3.22-2.06,13.59,13.59,0,0,0-7.57-.25,13.63,13.63,0,0,0-2.85,1.21,12.8,12.8,0,0,0-2.42,1.94,12.52,12.52,0,0,0-1.88,2.49l-.12-5.46Zm31.85,16.31a22.85,22.85,0,0,0,.84,6.6,16.26,16.26,0,0,0,2.43,5.15,11.75,11.75,0,0,0,3.88,3.33A11.09,11.09,0,0,0,472,125a12.83,12.83,0,0,0,5.94-1.28,12.11,12.11,0,0,0,4.06-3.57l.12,4.24h3.33V79h-3.51V96.9a12,12,0,0,0-4.06-3.76A11.8,11.8,0,0,0,472,91.81,10.88,10.88,0,0,0,466.88,93a11.43,11.43,0,0,0-3.94,3.27,16.37,16.37,0,0,0-2.43,5.15,23.49,23.49,0,0,0-.84,6.73Zm3.57-.61a23.26,23.26,0,0,1,.55-5.21,13.16,13.16,0,0,1,1.69-4.18,8.25,8.25,0,0,1,3-2.79,7.86,7.86,0,0,1,4.25-1,11.55,11.55,0,0,1,3.39.48,9.55,9.55,0,0,1,2.6,1.4,8,8,0,0,1,1.88,2,13.22,13.22,0,0,1,1.34,2.36v15a13.09,13.09,0,0,1-1.46,2.3,7.61,7.61,0,0,1-1.94,1.82,9.11,9.11,0,0,1-2.6,1.21,11.31,11.31,0,0,1-3.28.43,8.26,8.26,0,0,1-7.15-3.82,13.25,13.25,0,0,1-1.69-4.18,23,23,0,0,1-.55-5.21ZM511,124.53a12.29,12.29,0,0,0,5.58-3,15.54,15.54,0,0,0,1.87-2.24l-2.24-1.64a10.43,10.43,0,0,1-3.94,3.28,11.23,11.23,0,0,1-5,1,10.19,10.19,0,0,1-4.48-1,10.87,10.87,0,0,1-3.45-2.73,12.27,12.27,0,0,1-2.25-4,15.09,15.09,0,0,1-.78-5v-.66h22.84v-2.19a20,20,0,0,0-.85-5.87,13,13,0,0,0-2.42-4.67,11.69,11.69,0,0,0-4-3,12.56,12.56,0,0,0-5.39-1.09A11.91,11.91,0,0,0,501.26,93a14.35,14.35,0,0,0-4.36,3.27,15.3,15.3,0,0,0-3,5.09,19.51,19.51,0,0,0-1.09,6.73v1.27a17.59,17.59,0,0,0,1.09,6.3,14.16,14.16,0,0,0,3,5,12.49,12.49,0,0,0,4.55,3.21,13.71,13.71,0,0,0,5.75,1.22,14.74,14.74,0,0,0,3.88-.49Zm-.6-28.84a9.48,9.48,0,0,1,2.84,2.3,10.7,10.7,0,0,1,1.7,3.33,14.33,14.33,0,0,1,.67,3.94v.37H496.42a16.08,16.08,0,0,1,1.15-4.43,11.05,11.05,0,0,1,2.12-3.39,10.53,10.53,0,0,1,3-2.24,9.55,9.55,0,0,1,3.76-.73,9,9,0,0,1,3.94.85Zm30.51-3.52a7,7,0,0,0-1-.24,10.11,10.11,0,0,0-1.34-.12,9.17,9.17,0,0,0-5.45,1.51,11,11,0,0,0-3.58,4.19l-.06-5.1H526v32h3.51v-22a15.66,15.66,0,0,1,1.22-2.91,8.62,8.62,0,0,1,1.87-2.24,7.77,7.77,0,0,1,2.55-1.51,9.12,9.12,0,0,1,3.27-.55,14.63,14.63,0,0,1,2.37.18Z"></path><path d="M800.51,582.33V579a8.1,8.1,0,0,1,1.65-5.32,5.67,5.67,0,0,1,4.6-1.84,6.36,6.36,0,0,1,4.74,1.64,7.85,7.85,0,0,1,0,9.63,5.56,5.56,0,0,1-4.31,1.75v4.4a8.68,8.68,0,0,0,6.92-3,12.94,12.94,0,0,0-.09-15.73,9.4,9.4,0,0,0-7.36-3,8.42,8.42,0,0,0-5.08,1.55,8.74,8.74,0,0,0-3,4.4,8.81,8.81,0,0,0-3.14-4,7.6,7.6,0,0,0-4.36-1.46,9.4,9.4,0,0,0-7.21,2.76,12.33,12.33,0,0,0,.14,15.25,8.82,8.82,0,0,0,6.78,3v-4.4a5.6,5.6,0,0,1-4.26-1.65,6.27,6.27,0,0,1-1.64-4.55c0-4,2-6,6.05-6a5.52,5.52,0,0,1,4.3,1.79,7.33,7.33,0,0,1,1.65,4.89v3.29ZM781.83,543v4.65l23.86,15.39h2.57V547.37h8V543h-8v-4.79h-3.58V543Zm6.92,4.89-.92-.53h16.85v10.74Z"></path><path d="M64.62,554.49l-.92-1.16a7.25,7.25,0,0,1-1.25-4.5,6.32,6.32,0,0,1,2.08-5A8,8,0,0,1,70.09,542a8.65,8.65,0,0,1,5.72,1.75,5.86,5.86,0,0,1,2.08,4.79,6.51,6.51,0,0,1-1.5,4.5,6.92,6.92,0,0,1-4.46,2.08v4.16a10.14,10.14,0,0,0,7-3.29,10.82,10.82,0,0,0,2.52-7.45,10.57,10.57,0,0,0-3-8,11.89,11.89,0,0,0-8.37-2.85,12.27,12.27,0,0,0-8.43,2.76,9.47,9.47,0,0,0-3.1,7.45A10.84,10.84,0,0,0,60,553.57l-9.4-1V538.61H46.57v17.62L63.75,558Zm-4-43.29c-5,.05-8.61,1-11,2.71s-3.59,4.46-3.59,8.18,1.21,6.49,3.68,8.23S56,532.94,61,532.94H66.9c4.84-.05,8.47-1,10.94-2.76s3.63-4.46,3.63-8.14-1.26-6.48-3.73-8.22-6.29-2.62-11.42-2.62Zm6.83,4.36c3.58.05,6.24.63,7.89,1.64a5.86,5.86,0,0,1-.15,9.73c-1.79,1.07-4.5,1.65-8.22,1.65H60c-3.49-.05-6.1-.58-7.8-1.6a6,6,0,0,1,0-9.82c1.7-1.07,4.36-1.6,8.09-1.6Z"></path><line class="cls-3" x1="323.99" y1="775.97" x2="529.79" y2="775.97"></line><line class="cls-3" x1="220.58" y1="919.48" x2="624.84" y2="919.48"></line><line class="cls-3" x1="723.47" y1="445.01" x2="723.47" y2="683.65"></line><line class="cls-3" x1="121.52" y1="393.4" x2="121.52" y2="734.03"></line><path d="M393,851.7l-2.38,4.79h3l1.74-3.53a12.26,12.26,0,0,0,4.5.82,11.47,11.47,0,0,0,6.05-1.6,11.31,11.31,0,0,0,4.12-4.65,15.34,15.34,0,0,0,1.45-6.72c0-5-1.55-8.81-4.6-11.23l2.42-4.85h-2.95l-1.7,3.54a11.51,11.51,0,0,0-4.84-1,10.91,10.91,0,0,0-10.16,6.29,15.12,15.12,0,0,0-1.45,6.73c0,5.28,1.64,9.05,4.84,11.43Zm1.55-18.3a6.28,6.28,0,0,1,5.22-2.57,6.48,6.48,0,0,1,3.15.78L394.79,848a10.57,10.57,0,0,1-2.28-7.21c0-3.2.63-5.67,2-7.41ZM407,840.66a11.38,11.38,0,0,1-1.93,7,6.47,6.47,0,0,1-5.28,2.57,6.94,6.94,0,0,1-2.85-.58l8-16.27a11,11,0,0,1,2,6.92Zm27.71-21.78H430l-15.39,23.86v2.57h15.68v8h4.36v-8h4.79v-3.58h-4.79Zm-4.89,6.92.53-.92v16.85H419.58ZM449,836.93l1.16-.92a7.25,7.25,0,0,1,4.5-1.26,6.32,6.32,0,0,1,5,2.09,8,8,0,0,1,1.89,5.56,8.6,8.6,0,0,1-1.75,5.71A5.84,5.84,0,0,1,455,850.2a6.51,6.51,0,0,1-4.5-1.5,6.92,6.92,0,0,1-2.08-4.46h-4.16a10.14,10.14,0,0,0,3.29,7,10.82,10.82,0,0,0,7.45,2.52,10.57,10.57,0,0,0,8-3c1.89-2,2.85-4.84,2.85-8.38a12.26,12.26,0,0,0-2.76-8.42,9.45,9.45,0,0,0-7.45-3.1,10.93,10.93,0,0,0-5.76,1.5l1-9.39h13.94v-4.06H447.24l-1.74,17.18Z"></path><path d="M388.76,995.21l-2.37,4.79h3l1.74-3.53a12.22,12.22,0,0,0,4.5.82,11.47,11.47,0,0,0,6.05-1.6,11.34,11.34,0,0,0,4.12-4.64,15.38,15.38,0,0,0,1.45-6.73c0-5-1.55-8.81-4.6-11.23l2.42-4.84h-2.95l-1.7,3.53a11.54,11.54,0,0,0-4.84-1,11.17,11.17,0,0,0-6.05,1.65,10.92,10.92,0,0,0-4.11,4.65,15,15,0,0,0-1.46,6.72c0,5.28,1.65,9.06,4.84,11.43Zm1.55-18.3a6.3,6.3,0,0,1,5.23-2.56,6.47,6.47,0,0,1,3.15.77l-8.09,16.41a10.6,10.6,0,0,1-2.27-7.21c0-3.2.63-5.67,2-7.41Zm12.49,7.26a11.36,11.36,0,0,1-1.93,7,6.44,6.44,0,0,1-5.28,2.57,7,7,0,0,1-2.86-.58l8-16.27a11,11,0,0,1,2,6.92Zm25.62-21.78c-5.32.1-9.34,1.79-12.05,5.13S412.3,975.7,412.3,982v1.7a15.23,15.23,0,0,0,3.1,9.77,9.79,9.79,0,0,0,8,3.78,10,10,0,0,0,7.79-3.2,12.09,12.09,0,0,0,2.91-8.51,12.29,12.29,0,0,0-2.71-8.19,9,9,0,0,0-7.17-3.14,9.21,9.21,0,0,0-7.4,3.1,12.41,12.41,0,0,1,3.48-8.23,11.5,11.5,0,0,1,8.13-3h.83v-3.73ZM428,980.15a8.8,8.8,0,0,1,1.69,5.67,8.59,8.59,0,0,1-1.69,5.66,5.55,5.55,0,0,1-4.65,2.18,5.72,5.72,0,0,1-4.74-2.57,11,11,0,0,1-1.94-6.82v-1.6a6.75,6.75,0,0,1,2.61-3.34,7,7,0,0,1,4.17-1.35,5.55,5.55,0,0,1,4.55,2.17Zm32.83-3.67c-.05-5-1-8.62-2.71-11s-4.45-3.59-8.18-3.59-6.49,1.22-8.23,3.68-2.61,6.25-2.61,11.28v5.86c0,4.84,1,8.47,2.75,10.94s4.46,3.63,8.14,3.63,6.48-1.26,8.23-3.73,2.61-6.29,2.61-11.42Zm-4.36,6.82c-.05,3.58-.63,6.24-1.64,7.89a5.87,5.87,0,0,1-9.73-.14c-1.07-1.8-1.65-4.51-1.65-8.23v-7c.05-3.49.58-6.1,1.6-7.8a5.28,5.28,0,0,1,4.89-2.51,5.35,5.35,0,0,1,4.94,2.56c1.06,1.7,1.59,4.36,1.59,8.09Z"></path><path class="cls-1" d="M479.47,249c0,37.81-24.34,68.46-54.36,68.46S370.75,286.84,370.75,249Zm0,0c0,37.81-24.34,68.46-54.36,68.46S370.75,286.84,370.75,249Zm-54.36,68.46v76.18M536.23,439H322.64V393.67H536.23Zm86.59,248.77H222.59V439H622.82ZM536.23,734H322.64V687.75H536.23ZM222.59,448.62H622.82M222.59,679.07H622.82"></path><path class="cls-4" d="M479.47,249c0,37.81-24.34,68.46-54.36,68.46S370.75,286.84,370.75,249Zm0,0c0,37.81-24.34,68.46-54.36,68.46S370.75,286.84,370.75,249Zm-54.36,68.46v76.18M536.23,439H322.64V393.67H536.23Zm86.59,248.77H222.59V439H622.82ZM536.23,734H322.64V687.75H536.23ZM222.59,448.62H622.82M222.59,679.07H622.82"></path></svg> 