<?xml version="1.0" encoding="UTF-8"?> <svg xmlns="http://www.w3.org/2000/svg" id="Livello_1" data-name="Livello 1" viewBox="0 0 998.95 998.95"><defs><style>.cls-1{fill:#fff;}.cls-2{fill:#231f20;}.cls-3,.cls-4,.cls-5{fill:none;stroke-width:0.25px;}.cls-3,.cls-4{stroke:#000;}.cls-4,.cls-5{stroke-miterlimit:10;}.cls-5{stroke:#010101;stroke-dasharray:5 5;}</style></defs><title>sosp. double large</title><rect class="cls-1" width="998.95" height="998.95"></rect><polygon class="cls-1" points="799.35 770.06 64.42 770.06 64.42 413.01 64.42 399.55 799.35 399.55 799.35 770.06"></polygon><path class="cls-2" d="M323.22,37v7.15h.66a24.71,24.71,0,0,0,9.64-1.7,18.13,18.13,0,0,0,6.85-4.79,19.59,19.59,0,0,0,4.12-7.39,32.19,32.19,0,0,0,1.33-9.64v-3a22.36,22.36,0,0,0-1-7.15,16.13,16.13,0,0,0-2.91-5.57,13.23,13.23,0,0,0-4.6-3.58,14,14,0,0,0-6-1.27,14.51,14.51,0,0,0-6,1.21,13.55,13.55,0,0,0-4.55,3.33,13.88,13.88,0,0,0-2.91,4.79,17.65,17.65,0,0,0-1,5.94,19.66,19.66,0,0,0,.79,5.76A13.62,13.62,0,0,0,320,25.57,12,12,0,0,0,324,28.66a12.81,12.81,0,0,0,5.45,1.09,10.15,10.15,0,0,0,4.24-.9,11.73,11.73,0,0,0,3.52-2.37A12.88,12.88,0,0,1,336.07,31a8.63,8.63,0,0,1-2.55,3.27,11.68,11.68,0,0,1-4.06,2.06,22,22,0,0,1-5.64.67Zm5.51-14.37a5.91,5.91,0,0,1-1.88-1.75,7.25,7.25,0,0,1-1.15-2.55,13,13,0,0,1-.36-3.15,12.69,12.69,0,0,1,.36-3,7.86,7.86,0,0,1,1.15-2.67,5.25,5.25,0,0,1,1.82-1.81,4.46,4.46,0,0,1,2.55-.73,5.69,5.69,0,0,1,2.42.54,7.33,7.33,0,0,1,1.94,1.7,9,9,0,0,1,1.27,2.91,15.22,15.22,0,0,1,.43,4v3.51A7.24,7.24,0,0,1,335,22.18a6.22,6.22,0,0,1-3.58,1,5.61,5.61,0,0,1-2.73-.61Zm52.75,14.18H362.94l7.57-8c1.46-1.51,2.79-2.9,3.94-4.3a29.68,29.68,0,0,0,3-4.06,19.78,19.78,0,0,0,1.88-4,12.21,12.21,0,0,0,.73-4.18,14.29,14.29,0,0,0-.91-5.15,10.36,10.36,0,0,0-2.73-3.82A12.12,12.12,0,0,0,372.09.85,20.2,20.2,0,0,0,366,0a15.81,15.81,0,0,0-6.24,1.15,13.86,13.86,0,0,0-4.67,3,13.39,13.39,0,0,0-3,4.49,15.23,15.23,0,0,0-1,5.51h8.6a8.73,8.73,0,0,1,.43-2.91A6.9,6.9,0,0,1,361.24,9a5.55,5.55,0,0,1,2-1.52,6.05,6.05,0,0,1,2.67-.54A5.26,5.26,0,0,1,370,8.54a6.63,6.63,0,0,1,1.45,4.55,5.67,5.67,0,0,1-.3,1.94,10.6,10.6,0,0,1-.91,2.18,18.15,18.15,0,0,1-1.76,2.61A35.52,35.52,0,0,1,365.85,23L351.91,37.81v5.88h29.57Zm34.75,0H397.69l7.57-8c1.46-1.51,2.79-2.9,3.94-4.3a29.68,29.68,0,0,0,3-4.06,19.78,19.78,0,0,0,1.88-4,12.21,12.21,0,0,0,.73-4.18,14.29,14.29,0,0,0-.91-5.15,10.36,10.36,0,0,0-2.73-3.82A12.12,12.12,0,0,0,406.84.85,20.2,20.2,0,0,0,400.78,0a15.89,15.89,0,0,0-6.25,1.15,13.92,13.92,0,0,0-4.66,3,13.39,13.39,0,0,0-3,4.49,15.23,15.23,0,0,0-1,5.51h8.6a8.48,8.48,0,0,1,.43-2.91A6.72,6.72,0,0,1,396,9a5.46,5.46,0,0,1,2-1.52,6.05,6.05,0,0,1,2.67-.54,5.26,5.26,0,0,1,4.12,1.63,6.63,6.63,0,0,1,1.45,4.55,5.67,5.67,0,0,1-.3,1.94,10.6,10.6,0,0,1-.91,2.18,18.15,18.15,0,0,1-1.76,2.61A34.14,34.14,0,0,1,400.59,23L386.66,37.81v5.88h29.57Zm11.24.19v7.15h.66a24.71,24.71,0,0,0,9.64-1.7,18.13,18.13,0,0,0,6.85-4.79,19.73,19.73,0,0,0,4.12-7.39,32.19,32.19,0,0,0,1.33-9.64v-3a22.36,22.36,0,0,0-1-7.15,16.3,16.3,0,0,0-2.91-5.57,13.27,13.27,0,0,0-4.61-3.58,13.92,13.92,0,0,0-6-1.27,14.44,14.44,0,0,0-6,1.21A13.45,13.45,0,0,0,425,4.54a13.88,13.88,0,0,0-2.91,4.79,17.65,17.65,0,0,0-1,5.94,19.33,19.33,0,0,0,.79,5.76,13.6,13.6,0,0,0,2.42,4.54,12.18,12.18,0,0,0,3.94,3.09,12.89,12.89,0,0,0,5.46,1.09,10.15,10.15,0,0,0,4.24-.9,11.68,11.68,0,0,0,3.51-2.37A12.45,12.45,0,0,1,440.31,31a8.51,8.51,0,0,1-2.54,3.27,11.77,11.77,0,0,1-4.06,2.06,22,22,0,0,1-5.64.67ZM433,22.6a5.81,5.81,0,0,1-1.88-1.75A7.07,7.07,0,0,1,430,18.3a13,13,0,0,1-.36-3.15,12.69,12.69,0,0,1,.36-3,7.67,7.67,0,0,1,1.15-2.67,5.25,5.25,0,0,1,1.82-1.81,4.46,4.46,0,0,1,2.55-.73,5.72,5.72,0,0,1,2.42.54,7.33,7.33,0,0,1,1.94,1.7,9.27,9.27,0,0,1,1.27,2.91,15.69,15.69,0,0,1,.42,4v3.51a7.06,7.06,0,0,1-2.24,2.61,6.19,6.19,0,0,1-3.57,1A5.61,5.61,0,0,1,433,22.6Zm40.2-.78H456.52v6.84h16.66Zm36,15H490.67l7.58-8c1.45-1.51,2.79-2.9,3.94-4.3a29.68,29.68,0,0,0,3-4.06,20.33,20.33,0,0,0,1.88-4,12.2,12.2,0,0,0,.72-4.18,14.08,14.08,0,0,0-.91-5.15,10.23,10.23,0,0,0-2.72-3.82A12.08,12.08,0,0,0,499.82.85,20.1,20.1,0,0,0,493.76,0a15.88,15.88,0,0,0-6.24,1.15,13.82,13.82,0,0,0-4.66,3,13.1,13.1,0,0,0-3,4.49,15.23,15.23,0,0,0-1,5.51h8.6a8.74,8.74,0,0,1,.42-2.91A6.92,6.92,0,0,1,489,9a5.46,5.46,0,0,1,2-1.52,6,6,0,0,1,2.66-.54,5.25,5.25,0,0,1,4.12,1.63,6.63,6.63,0,0,1,1.46,4.55,5.46,5.46,0,0,1-.31,1.94,10.52,10.52,0,0,1-.9,2.18,18.15,18.15,0,0,1-1.76,2.61A35.79,35.79,0,0,1,493.58,23L479.64,37.81v5.88h29.58Zm11.23.19v7.15h.67a24.63,24.63,0,0,0,9.63-1.7,18.13,18.13,0,0,0,6.85-4.79,19.59,19.59,0,0,0,4.12-7.39,32.19,32.19,0,0,0,1.34-9.64v-3a22.64,22.64,0,0,0-1-7.15,16.3,16.3,0,0,0-2.91-5.57,13.36,13.36,0,0,0-4.61-3.58,14,14,0,0,0-6-1.27,14.51,14.51,0,0,0-6,1.21A13.51,13.51,0,0,0,518,4.54a13.88,13.88,0,0,0-2.91,4.79,17.41,17.41,0,0,0-1,5.94,19.33,19.33,0,0,0,.79,5.76,13.42,13.42,0,0,0,2.42,4.54,12,12,0,0,0,3.94,3.09,12.84,12.84,0,0,0,5.45,1.09,10.19,10.19,0,0,0,4.25-.9,11.68,11.68,0,0,0,3.51-2.37A12.45,12.45,0,0,1,533.3,31a8.54,8.54,0,0,1-2.55,3.27,11.68,11.68,0,0,1-4.06,2.06,21.88,21.88,0,0,1-5.63.67ZM526,22.6a5.71,5.71,0,0,1-1.88-1.75,6.91,6.91,0,0,1-1.15-2.55,12.49,12.49,0,0,1-.37-3.15,12.21,12.21,0,0,1,.37-3,7.49,7.49,0,0,1,1.15-2.67,5.17,5.17,0,0,1,1.82-1.81,4.41,4.41,0,0,1,2.54-.73,5.74,5.74,0,0,1,2.43.54,7.29,7.29,0,0,1,1.93,1.7,9.28,9.28,0,0,1,1.28,2.91,15.69,15.69,0,0,1,.42,4v3.51a7.06,7.06,0,0,1-2.24,2.61,6.2,6.2,0,0,1-3.58,1A5.57,5.57,0,0,1,526,22.6Z"></path><path class="cls-2" d="M233.63,108.72a22.85,22.85,0,0,0,.84,6.6,16.26,16.26,0,0,0,2.43,5.15,11.75,11.75,0,0,0,3.88,3.33,11.09,11.09,0,0,0,5.15,1.22,12.83,12.83,0,0,0,5.94-1.28,12.11,12.11,0,0,0,4.06-3.57l.12,4.24h3.33V79h-3.51V96.9a12,12,0,0,0-4.06-3.76A11.8,11.8,0,0,0,246,91.81,10.88,10.88,0,0,0,240.84,93a11.43,11.43,0,0,0-3.94,3.27,16.37,16.37,0,0,0-2.43,5.15,23.49,23.49,0,0,0-.84,6.73Zm3.57-.61a23.26,23.26,0,0,1,.55-5.21,13.16,13.16,0,0,1,1.69-4.18,8.25,8.25,0,0,1,3-2.79,7.85,7.85,0,0,1,4.24-1,11.57,11.57,0,0,1,3.4.48,9.55,9.55,0,0,1,2.6,1.4,8,8,0,0,1,1.88,2,13.22,13.22,0,0,1,1.34,2.36v15a13.09,13.09,0,0,1-1.46,2.3,7.61,7.61,0,0,1-1.94,1.82,9.11,9.11,0,0,1-2.6,1.21,11.31,11.31,0,0,1-3.28.43,8.26,8.26,0,0,1-7.15-3.82,13.25,13.25,0,0,1-1.69-4.18,23,23,0,0,1-.55-5.21Zm29.54.79a20.1,20.1,0,0,0,1,6.48,15.14,15.14,0,0,0,2.91,5.09,12.82,12.82,0,0,0,4.48,3.33,14.78,14.78,0,0,0,11.76,0,13.53,13.53,0,0,0,4.54-3.33,15.71,15.71,0,0,0,2.85-5.09,20.1,20.1,0,0,0,1-6.48v-1a19.79,19.79,0,0,0-1-6.43,15.5,15.5,0,0,0-2.85-5.15A13.8,13.8,0,0,0,286.92,93,14.42,14.42,0,0,0,281,91.81,14.06,14.06,0,0,0,275.16,93a13.91,13.91,0,0,0-4.54,3.33,15.86,15.86,0,0,0-2.85,5.15,19.79,19.79,0,0,0-1,6.43Zm3.58-1a17.09,17.09,0,0,1,.66-5A13.49,13.49,0,0,1,273,98.78a9.64,9.64,0,0,1,3.4-2.85A9.27,9.27,0,0,1,281,94.84a9.81,9.81,0,0,1,4.67,1.09A9.69,9.69,0,0,1,289,98.78,13.28,13.28,0,0,1,291.1,103a16.79,16.79,0,0,1,.73,5v1a17,17,0,0,1-.73,5,13.38,13.38,0,0,1-2.06,4.18,11.16,11.16,0,0,1-3.39,2.85,9.5,9.5,0,0,1-4.61,1,9.62,9.62,0,0,1-4.6-1,11.08,11.08,0,0,1-3.4-2.85,13.6,13.6,0,0,1-2.06-4.18,17.27,17.27,0,0,1-.66-5Zm52.93,16.48h3.45v-32h-3.58v23.15a11.94,11.94,0,0,1-1.21,2.55,6.71,6.71,0,0,1-1.94,2,8.2,8.2,0,0,1-2.84,1.33,13.62,13.62,0,0,1-3.76.49,8.84,8.84,0,0,1-2.85-.43,5.82,5.82,0,0,1-2.36-1.51,7.45,7.45,0,0,1-1.58-2.73,14.55,14.55,0,0,1-.6-4.3V92.41h-3.52V112.9a16.54,16.54,0,0,0,.79,5.57,9.73,9.73,0,0,0,2.12,3.76,8.68,8.68,0,0,0,3.33,2.12,15,15,0,0,0,10.49-.61,10.28,10.28,0,0,0,4-3.39Zm38.32-16.3a25.48,25.48,0,0,0-.79-6.73,15,15,0,0,0-2.42-5.15,10.67,10.67,0,0,0-9-4.42,11.36,11.36,0,0,0-5.94,1.39A11.16,11.16,0,0,0,339.33,97V79h-3.51v45.45h3.27l.18-4.36a11.83,11.83,0,0,0,4.06,3.63,13.35,13.35,0,0,0,6.06,1.34,10.91,10.91,0,0,0,5.15-1.22,11.75,11.75,0,0,0,3.88-3.33,16,16,0,0,0,2.36-5.15,24.78,24.78,0,0,0,.79-6.6Zm-3.51.61a23,23,0,0,1-.55,5.21,13.25,13.25,0,0,1-1.69,4.18,8.07,8.07,0,0,1-7.09,3.82,11.44,11.44,0,0,1-3.34-.49,9,9,0,0,1-2.66-1.27,8.36,8.36,0,0,1-2-1.88,14.44,14.44,0,0,1-1.4-2.42V101.44A14,14,0,0,1,340.54,99a9.51,9.51,0,0,1,1.94-2.12,8.76,8.76,0,0,1,2.67-1.46,10.28,10.28,0,0,1,3.51-.54,7.86,7.86,0,0,1,4.25,1,8.25,8.25,0,0,1,3,2.79,13.13,13.13,0,0,1,1.63,4.18,23.26,23.26,0,0,1,.55,5.21ZM373.36,79h-3.58v45.45h3.58Zm25.86,45.57a10.17,10.17,0,0,0,3.15-1.21,10,10,0,0,0,2.42-1.76,15,15,0,0,0,1.88-2.24l-2.24-1.64a10.43,10.43,0,0,1-3.94,3.28,11.23,11.23,0,0,1-5,1,10.16,10.16,0,0,1-4.48-1,10.8,10.8,0,0,1-3.46-2.73,12.25,12.25,0,0,1-2.24-4,14.84,14.84,0,0,1-.79-5v-.66h22.85v-2.19a20,20,0,0,0-.85-5.87,13.21,13.21,0,0,0-2.42-4.67,11.79,11.79,0,0,0-4-3,12.61,12.61,0,0,0-5.4-1.09A11.89,11.89,0,0,0,389.46,93a14.35,14.35,0,0,0-4.36,3.27,15.3,15.3,0,0,0-3,5.09,19.51,19.51,0,0,0-1.09,6.73v1.27a17.59,17.59,0,0,0,1.09,6.3,14.16,14.16,0,0,0,3,5,12.54,12.54,0,0,0,4.54,3.21,13.79,13.79,0,0,0,5.76,1.22,14.8,14.8,0,0,0,3.88-.49Zm-.61-28.84a9.65,9.65,0,0,1,2.85,2.3,10.92,10.92,0,0,1,1.7,3.33,14.32,14.32,0,0,1,.66,3.94v.37H384.61a16.44,16.44,0,0,1,1.16-4.43,11.05,11.05,0,0,1,2.12-3.39,10.53,10.53,0,0,1,3-2.24,9.53,9.53,0,0,1,3.75-.73,8.89,8.89,0,0,1,3.94.85ZM436.08,121a10,10,0,0,1-3.15-2.85,12.8,12.8,0,0,1-1.7-4.18,21.6,21.6,0,0,1-.55-4.91v-1.21a21.93,21.93,0,0,1,.55-4.91A11.33,11.33,0,0,1,433,98.78a8.8,8.8,0,0,1,3.09-2.91,10,10,0,0,1,4.66-1,10.58,10.58,0,0,1,3.4.54,9.23,9.23,0,0,1,2.78,1.7,8.32,8.32,0,0,1,1.94,2.61,9,9,0,0,1,.79,3.51h3.46a14.4,14.4,0,0,0-1.1-4.73,11.2,11.2,0,0,0-2.66-3.57,11,11,0,0,0-3.82-2.3,14.88,14.88,0,0,0-10.66.42,12.65,12.65,0,0,0-4.31,3.39,15.6,15.6,0,0,0-2.6,5.09,22.82,22.82,0,0,0-.85,6.31V109a23.11,23.11,0,0,0,.85,6.3,15.4,15.4,0,0,0,2.6,5.09,12.11,12.11,0,0,0,4.31,3.33,12.85,12.85,0,0,0,5.87,1.28,14.9,14.9,0,0,0,4.67-.79,13.22,13.22,0,0,0,3.82-2.18,10.19,10.19,0,0,0,2.72-3.34,10.79,10.79,0,0,0,1.16-4.18h-3.46a7.55,7.55,0,0,1-.85,3.22,9.46,9.46,0,0,1-2,2.36A9.18,9.18,0,0,1,444,121.5a9.63,9.63,0,0,1-3.28.49,9.39,9.39,0,0,1-4.66-1Zm24.27-28.55h-3.88l12.06,31.76L467,128.35a12,12,0,0,1-1.09,2.55,7.39,7.39,0,0,1-1.45,1.81,5.19,5.19,0,0,1-1.88,1.09,7.88,7.88,0,0,1-2.55.37,4.9,4.9,0,0,1-.84-.06c-.43-.06-.73-.06-1-.12v3a1.77,1.77,0,0,1,.54.13c.24.06.49.06.73.12s.54.06.79.12h.66a7.94,7.94,0,0,0,3.76-.79,10,10,0,0,0,2.54-2,11.35,11.35,0,0,0,1.64-2.54,22.59,22.59,0,0,0,1-2.49l13.58-37.09h-3.82l-9.33,26.91ZM492.86,79h-3.58v45.45h3.58Zm13.56,13.45h-3.57v32h3.57Zm-3.57-7.57a2.58,2.58,0,0,0,1.81.67,2.44,2.44,0,0,0,1.76-.67,2.22,2.22,0,0,0,.67-1.7,2.13,2.13,0,0,0-.67-1.69,2.22,2.22,0,0,0-1.76-.73,2.34,2.34,0,0,0-1.81.73,2.3,2.3,0,0,0-.61,1.69,2.41,2.41,0,0,0,.61,1.7ZM516,92.41v32h3.52V102.47a12.9,12.9,0,0,1,1.39-2.78,10.14,10.14,0,0,1,2-2.49,10.46,10.46,0,0,1,2.73-1.69,8.87,8.87,0,0,1,3.45-.61,10.53,10.53,0,0,1,3.15.42,5.31,5.31,0,0,1,2.37,1.4,7.1,7.1,0,0,1,1.51,2.66,13.84,13.84,0,0,1,.55,4.18v20.85h3.51V103.56a17.44,17.44,0,0,0-.73-5.39,9.79,9.79,0,0,0-2-3.63,7.38,7.38,0,0,0-3.21-2.06,13.59,13.59,0,0,0-7.57-.25,13.63,13.63,0,0,0-2.85,1.21,12.8,12.8,0,0,0-2.42,1.94,12.52,12.52,0,0,0-1.88,2.49l-.12-5.46Zm31.84,16.31a22.84,22.84,0,0,0,.85,6.6,16.26,16.26,0,0,0,2.43,5.15A11.75,11.75,0,0,0,555,123.8a11.09,11.09,0,0,0,5.15,1.22,12.76,12.76,0,0,0,5.93-1.28,12,12,0,0,0,4.06-3.57l.13,4.24h3.33V79h-3.52V96.9A12,12,0,0,0,566,93.14a11.74,11.74,0,0,0-5.81-1.33A10.88,10.88,0,0,0,555,93a11.43,11.43,0,0,0-3.94,3.27,16.37,16.37,0,0,0-2.43,5.15,23.48,23.48,0,0,0-.85,6.73Zm3.58-.61a23.26,23.26,0,0,1,.55-5.21,12.93,12.93,0,0,1,1.69-4.18,8.25,8.25,0,0,1,3-2.79,7.85,7.85,0,0,1,4.24-1,11.57,11.57,0,0,1,3.4.48,9.55,9.55,0,0,1,2.6,1.4,8,8,0,0,1,1.88,2,12.58,12.58,0,0,1,1.33,2.36v15a12.48,12.48,0,0,1-1.45,2.3,7.78,7.78,0,0,1-1.94,1.82,9.17,9.17,0,0,1-2.61,1.21,11.28,11.28,0,0,1-3.27.43,8.26,8.26,0,0,1-7.15-3.82,13,13,0,0,1-1.69-4.18,23,23,0,0,1-.55-5.21Zm47.78,16.42a10.17,10.17,0,0,0,3.15-1.21,10,10,0,0,0,2.42-1.76,15,15,0,0,0,1.88-2.24l-2.24-1.64a10.43,10.43,0,0,1-3.94,3.28,11.23,11.23,0,0,1-5,1,10.19,10.19,0,0,1-4.48-1,10.8,10.8,0,0,1-3.46-2.73,12.25,12.25,0,0,1-2.24-4,15.09,15.09,0,0,1-.79-5v-.66H607.3v-2.19a20,20,0,0,0-.85-5.87A13,13,0,0,0,604,95.93a11.79,11.79,0,0,0-4-3,12.58,12.58,0,0,0-5.4-1.09A11.89,11.89,0,0,0,589.42,93a14.35,14.35,0,0,0-4.36,3.27,15.3,15.3,0,0,0-3,5.09,19.51,19.51,0,0,0-1.09,6.73v1.27a17.59,17.59,0,0,0,1.09,6.3,14.16,14.16,0,0,0,3,5,12.54,12.54,0,0,0,4.54,3.21A13.79,13.79,0,0,0,595.3,125a14.74,14.74,0,0,0,3.88-.49Zm-.61-28.84a9.65,9.65,0,0,1,2.85,2.3,10.92,10.92,0,0,1,1.7,3.33,14.71,14.71,0,0,1,.67,3.94v.37H584.58a16.08,16.08,0,0,1,1.15-4.43,11.05,11.05,0,0,1,2.12-3.39,10.53,10.53,0,0,1,3-2.24,9.53,9.53,0,0,1,3.75-.73,8.89,8.89,0,0,1,3.94.85Zm30.51-3.52a6.39,6.39,0,0,0-1-.24,9.81,9.81,0,0,0-1.33-.12,9.17,9.17,0,0,0-5.45,1.51,11,11,0,0,0-3.58,4.19l-.06-5.1h-3.45v32h3.51v-22a16.34,16.34,0,0,1,1.21-2.91,8.86,8.86,0,0,1,1.88-2.24,7.77,7.77,0,0,1,2.55-1.51,9.12,9.12,0,0,1,3.27-.55,14.42,14.42,0,0,1,2.36.18Z"></path><path d="M818.18,612.58v-3.29a8.11,8.11,0,0,1,1.65-5.33,5.67,5.67,0,0,1,4.6-1.84,6.32,6.32,0,0,1,4.74,1.65,7.85,7.85,0,0,1,0,9.63,5.58,5.58,0,0,1-4.31,1.74v4.41a8.72,8.72,0,0,0,6.93-3,13,13,0,0,0-.1-15.73,9.37,9.37,0,0,0-7.36-3,8.42,8.42,0,0,0-5.08,1.55,8.62,8.62,0,0,0-3,4.4,9,9,0,0,0-3.15-4,7.56,7.56,0,0,0-4.36-1.45,9.4,9.4,0,0,0-7.21,2.76,12.31,12.31,0,0,0,.15,15.25,8.78,8.78,0,0,0,6.77,3v-4.41a5.6,5.6,0,0,1-4.26-1.64,6.3,6.3,0,0,1-1.64-4.55c0-4,2-6,6-6A5.53,5.53,0,0,1,813,604.4a7.36,7.36,0,0,1,1.64,4.89v3.29ZM799.5,573.26v4.64l23.86,15.4h2.57V577.61h8v-4.35h-8v-4.8h-3.58v4.8Zm6.92,4.89-.92-.54h16.85v10.75Z"></path><path d="M46.41,613.4l-.91-1.16a7.19,7.19,0,0,1-1.26-4.5,6.31,6.31,0,0,1,2.08-5,8,8,0,0,1,5.56-1.89,8.65,8.65,0,0,1,5.72,1.75,5.86,5.86,0,0,1,2.08,4.79,6.51,6.51,0,0,1-1.5,4.5A6.92,6.92,0,0,1,53.72,614v4.16a10.12,10.12,0,0,0,7-3.29,10.82,10.82,0,0,0,2.52-7.45,10.57,10.57,0,0,0-3-8c-2-1.89-4.84-2.85-8.37-2.85a12.28,12.28,0,0,0-8.43,2.76,9.45,9.45,0,0,0-3.09,7.45,10.83,10.83,0,0,0,1.5,5.76l-9.39-1V597.52H28.36v17.62l17.18,1.74Zm-4-43.29c-5,0-8.62,1-11,2.71s-3.58,4.45-3.58,8.18,1.21,6.49,3.67,8.23,6.25,2.61,11.28,2.61h5.86c4.84,0,8.47-1,10.94-2.75s3.63-4.46,3.63-8.14-1.26-6.48-3.73-8.23-6.29-2.61-11.42-2.61Zm6.82,4.36c3.58,0,6.24.63,7.89,1.64a5.87,5.87,0,0,1-.14,9.73c-1.8,1.07-4.51,1.65-8.23,1.65h-7c-3.49,0-6.1-.58-7.8-1.6A5.28,5.28,0,0,1,31.46,581,5.35,5.35,0,0,1,34,576.06c1.7-1.06,4.36-1.59,8.09-1.59Z"></path><path class="cls-3" d="M262.37,785.78H593M159.45,905.18H700.9m40.24-466.63V697.66m-636-300.36V743.91"></path><path d="M396.24,861.5l-2.37,4.8h2.95l1.74-3.54a12.31,12.31,0,0,0,4.51.83,11.59,11.59,0,0,0,6.05-1.6,11.35,11.35,0,0,0,4.11-4.65,15.21,15.21,0,0,0,1.45-6.73c0-5-1.55-8.81-4.6-11.23l2.43-4.84h-3l-1.69,3.54a11.54,11.54,0,0,0-4.84-1,10.94,10.94,0,0,0-10.17,6.29,15.09,15.09,0,0,0-1.45,6.73c0,5.28,1.65,9,4.84,11.42Zm1.55-18.29a6.64,6.64,0,0,1,8.37-1.79l-8.08,16.41a10.6,10.6,0,0,1-2.27-7.22c0-3.19.62-5.66,2-7.4Zm12.49,7.26a11.32,11.32,0,0,1-1.94,7,6.44,6.44,0,0,1-5.27,2.56,6.8,6.8,0,0,1-2.86-.58l8-16.26a11,11,0,0,1,2,6.92Zm25.62-21.78c-5.32.09-9.34,1.79-12,5.13s-4.07,8.18-4.07,14.52V850a15.28,15.28,0,0,0,3.1,9.78,9.76,9.76,0,0,0,8,3.78,10,10,0,0,0,7.79-3.2,12.11,12.11,0,0,0,2.9-8.52,12.26,12.26,0,0,0-2.71-8.18,9,9,0,0,0-7.16-3.15,9.24,9.24,0,0,0-7.41,3.1,12.41,12.41,0,0,1,3.49-8.23,11.59,11.59,0,0,1,8.13-3h.82v-3.72Zm-.39,17.76a8.78,8.78,0,0,1,1.7,5.66,8.62,8.62,0,0,1-1.7,5.67,5.52,5.52,0,0,1-4.64,2.18,5.77,5.77,0,0,1-4.75-2.57,11.06,11.06,0,0,1-1.93-6.83V849a6.71,6.71,0,0,1,2.61-3.34,7,7,0,0,1,4.16-1.36,5.53,5.53,0,0,1,4.55,2.18Zm32.84-3.68c-.05-5-1-8.62-2.71-11s-4.46-3.58-8.19-3.58-6.48,1.21-8.22,3.68-2.62,6.24-2.62,11.28V849c.05,4.84,1,8.47,2.76,10.94s4.45,3.63,8.13,3.63,6.49-1.26,8.23-3.73,2.62-6.29,2.62-11.43ZM464,849.6c-.05,3.58-.63,6.24-1.65,7.89a5.87,5.87,0,0,1-9.73-.15c-1.06-1.79-1.64-4.5-1.64-8.23v-7c0-3.48.58-6.1,1.6-7.79a6,6,0,0,1,9.82.05c1.07,1.69,1.6,4.36,1.6,8.08Z"></path><path d="M396.24,980.9l-2.37,4.8h2.95l1.74-3.54a12.11,12.11,0,0,0,4.51.83,11.59,11.59,0,0,0,6.05-1.6,11.28,11.28,0,0,0,4.11-4.65,15.21,15.21,0,0,0,1.45-6.73c0-5-1.55-8.81-4.6-11.23l2.43-4.84h-3l-1.69,3.54a11.54,11.54,0,0,0-4.84-1,10.94,10.94,0,0,0-10.17,6.29,15.09,15.09,0,0,0-1.45,6.73c0,5.28,1.65,9,4.84,11.42Zm1.55-18.29a6.64,6.64,0,0,1,8.37-1.79l-8.08,16.41a10.6,10.6,0,0,1-2.27-7.22c0-3.19.62-5.66,2-7.4Zm12.49,7.26a11.32,11.32,0,0,1-1.94,7,6.44,6.44,0,0,1-5.27,2.56,6.8,6.8,0,0,1-2.86-.58l8-16.26a11,11,0,0,1,2,6.92Zm27.31-19.7a11.74,11.74,0,0,0-14.66,0,8.89,8.89,0,0,0-2.81,6.87,8,8,0,0,0,1.36,4.6,9.46,9.46,0,0,0,3.58,3.15,9.06,9.06,0,0,0-4.21,3.38,8.78,8.78,0,0,0-1.5,5,9.07,9.07,0,0,0,2.95,7.11,13.2,13.2,0,0,0,15.92,0,9,9,0,0,0,3-7.11,8.46,8.46,0,0,0-1.59-5,9.58,9.58,0,0,0-4.26-3.38,9.44,9.44,0,0,0,3.68-3.15,7.92,7.92,0,0,0,1.35-4.6,8.72,8.72,0,0,0-2.81-6.87Zm-2.51,27.54a7.72,7.72,0,0,1-9.64,0,6.09,6.09,0,0,1-1.74-4.6,6.42,6.42,0,0,1,1.79-4.74,6.28,6.28,0,0,1,4.75-1.79,6.66,6.66,0,0,1,4.79,1.84,6.34,6.34,0,0,1,1.84,4.69,6.12,6.12,0,0,1-1.79,4.6Zm-.68-24.88a5.85,5.85,0,0,1,1.64,4.31,5.92,5.92,0,0,1-1.59,4.26,5.53,5.53,0,0,1-4.17,1.59,5.72,5.72,0,0,1-4.21-1.59,6.69,6.69,0,0,1,.05-8.62,5.61,5.61,0,0,1,4.16-1.6,5.5,5.5,0,0,1,4.12,1.65Zm34,9.34c-.05-5-1-8.61-2.71-11s-4.46-3.58-8.19-3.58-6.48,1.21-8.22,3.68-2.62,6.24-2.62,11.28v5.86c.05,4.84,1,8.47,2.76,10.94s4.45,3.63,8.13,3.63,6.49-1.26,8.23-3.73,2.62-6.29,2.62-11.42ZM464,969c-.05,3.58-.63,6.24-1.65,7.89a5.87,5.87,0,0,1-9.73-.15c-1.06-1.79-1.64-4.5-1.64-8.23v-7c0-3.48.58-6.09,1.6-7.79a6,6,0,0,1,9.82,0c1.07,1.69,1.6,4.36,1.6,8.08Z"></path><path class="cls-1" d="M482.93,249c0,36.64-26.26,66.35-58.65,66.35S365.63,285.67,365.63,249Z"></path><path class="cls-1" d="M482.93,249c0,36.64-26.26,66.35-58.65,66.35S365.63,285.67,365.63,249Z"></path><line class="cls-1" x1="424.28" y1="315.38" x2="424.28" y2="395.73"></line><rect class="cls-1" x="260.87" y="395.73" width="343.05" height="42.75"></rect><rect class="cls-1" x="260.87" y="694.25" width="343.05" height="48.65"></rect><line class="cls-1" x1="163.49" y1="453.95" x2="696.87" y2="453.95"></line><line class="cls-1" x1="163.49" y1="678.77" x2="696.87" y2="678.77"></line><path class="cls-4" d="M482.93,249c0,36.64-26.26,66.35-58.65,66.35S365.63,285.67,365.63,249Zm0,0c0,36.64-26.26,66.35-58.65,66.35S365.63,285.67,365.63,249Zm-58.65,66.35v80.35m179.64,42.75h-343V395.73h343Zm93,255.77H163.5V438.48H696.88Zm-93,48.65h-343V694.25h343ZM163.49,454H696.87M163.49,678.77H696.87M423.2,459.7l-1.5-1.82,1.5,1.82Z"></path><line class="cls-5" x1="507.35" y1="561.69" x2="430.18" y2="455.59"></line><line class="cls-5" x1="342.04" y1="561.69" x2="421.7" y2="455.59"></line><line class="cls-5" x1="424.18" y1="455.59" x2="424.18" y2="559.78"></line><polygon class="cls-5" points="340.24 563.33 326.61 565.87 314.76 582.26 332.83 594 344.69 576.77 340.24 563.33"></polygon><polygon class="cls-5" points="508.32 563.33 521.95 565.87 533.8 582.26 515.73 594 503.86 576.77 508.32 563.33"></polygon><polygon class="cls-5" points="423.57 565.2 413.81 575.05 413.41 595.27 434.95 594.63 434.88 573.7 423.57 565.2"></polygon></svg> 