<?xml version="1.0" encoding="UTF-8"?> <svg xmlns="http://www.w3.org/2000/svg" id="Livello_1" data-name="Livello 1" viewBox="0 0 998.95 998.95"><defs><style>.cls-1{fill:#fff;}.cls-2{fill:#231f20;}.cls-3,.cls-4,.cls-5{fill:none;stroke-width:0.25px;}.cls-3,.cls-5{stroke:#000;}.cls-4{stroke:#231f20;}.cls-4,.cls-5{stroke-miterlimit:10;}</style></defs><title>sosp. 80 cilindro</title><rect class="cls-1" width="998.95" height="998.95"></rect><path class="cls-2" d="M312.07,37v7.15h.67a24.71,24.71,0,0,0,9.64-1.7,18.09,18.09,0,0,0,6.84-4.79,19.46,19.46,0,0,0,4.12-7.39,32.19,32.19,0,0,0,1.34-9.64v-3a22.64,22.64,0,0,0-1-7.15,16.3,16.3,0,0,0-2.91-5.57,13.27,13.27,0,0,0-4.61-3.58,13.94,13.94,0,0,0-6-1.27,14.51,14.51,0,0,0-6,1.21,13.51,13.51,0,0,0-4.54,3.33,13.88,13.88,0,0,0-2.91,4.79,17.41,17.41,0,0,0-1,5.94,19.33,19.33,0,0,0,.79,5.76,13.42,13.42,0,0,0,2.42,4.54,12.07,12.07,0,0,0,3.94,3.09,12.89,12.89,0,0,0,5.46,1.09,10.18,10.18,0,0,0,4.24-.9A11.68,11.68,0,0,0,326,26.48,12.45,12.45,0,0,1,324.92,31a8.51,8.51,0,0,1-2.54,3.27,11.77,11.77,0,0,1-4.06,2.06,22,22,0,0,1-5.64.67Zm5.52-14.37a5.81,5.81,0,0,1-1.88-1.75,7.07,7.07,0,0,1-1.15-2.55,13,13,0,0,1-.36-3.15,12.69,12.69,0,0,1,.36-3,7.67,7.67,0,0,1,1.15-2.67,5.25,5.25,0,0,1,1.82-1.81,4.43,4.43,0,0,1,2.54-.73,5.74,5.74,0,0,1,2.43.54,7.49,7.49,0,0,1,1.94,1.7,9.27,9.27,0,0,1,1.27,2.91,15.69,15.69,0,0,1,.42,4v3.51a7.06,7.06,0,0,1-2.24,2.61,6.19,6.19,0,0,1-3.57,1,5.61,5.61,0,0,1-2.73-.61Zm52.75,14.18H351.79l7.58-8c1.45-1.51,2.79-2.9,3.94-4.3a29.68,29.68,0,0,0,3-4.06,20.33,20.33,0,0,0,1.88-4,12.2,12.2,0,0,0,.72-4.18A14.08,14.08,0,0,0,368,7.09a10.23,10.23,0,0,0-2.72-3.82A12.16,12.16,0,0,0,360.94.85,20.1,20.1,0,0,0,354.88,0a15.88,15.88,0,0,0-6.24,1.15,13.82,13.82,0,0,0-4.66,3,13.1,13.1,0,0,0-3,4.49,15.23,15.23,0,0,0-1,5.51h8.6a8.74,8.74,0,0,1,.42-2.91A6.92,6.92,0,0,1,350.1,9a5.46,5.46,0,0,1,2-1.52,6,6,0,0,1,2.66-.54,5.25,5.25,0,0,1,4.12,1.63,6.63,6.63,0,0,1,1.46,4.55A5.46,5.46,0,0,1,360,15a10.52,10.52,0,0,1-.9,2.18,18.15,18.15,0,0,1-1.76,2.61A35.79,35.79,0,0,1,354.7,23L340.76,37.81v5.88h29.58Zm34.75,0H386.54l7.58-8c1.45-1.51,2.78-2.9,3.94-4.3a29.68,29.68,0,0,0,3-4.06,19.72,19.72,0,0,0,1.87-4,12,12,0,0,0,.73-4.18,14.08,14.08,0,0,0-.91-5.15,10.23,10.23,0,0,0-2.72-3.82A12.16,12.16,0,0,0,395.69.85,20.15,20.15,0,0,0,389.63,0a15.88,15.88,0,0,0-6.24,1.15,14,14,0,0,0-4.67,3,13.39,13.39,0,0,0-3,4.49,15.45,15.45,0,0,0-1,5.51h8.61a8.74,8.74,0,0,1,.42-2.91A6.92,6.92,0,0,1,384.85,9a5.51,5.51,0,0,1,2-1.52,6.05,6.05,0,0,1,2.67-.54,5.25,5.25,0,0,1,4.12,1.63,6.63,6.63,0,0,1,1.46,4.55,5.46,5.46,0,0,1-.31,1.94,10.07,10.07,0,0,1-.91,2.18,18,18,0,0,1-1.75,2.61A35.79,35.79,0,0,1,389.45,23L375.51,37.81v5.88h29.58Zm11.23.19v7.15H417a24.63,24.63,0,0,0,9.63-1.7,18.13,18.13,0,0,0,6.85-4.79,19.59,19.59,0,0,0,4.12-7.39,32.19,32.19,0,0,0,1.34-9.64v-3a22.64,22.64,0,0,0-1-7.15A16.3,16.3,0,0,0,435,4.85a13.36,13.36,0,0,0-4.61-3.58,14,14,0,0,0-6-1.27,14.51,14.51,0,0,0-6,1.21,13.41,13.41,0,0,0-4.54,3.33,13.73,13.73,0,0,0-2.91,4.79,17.41,17.41,0,0,0-1,5.94,19.33,19.33,0,0,0,.79,5.76,13.42,13.42,0,0,0,2.42,4.54,12,12,0,0,0,3.94,3.09,12.81,12.81,0,0,0,5.45,1.09,10.11,10.11,0,0,0,4.24-.9,11.61,11.61,0,0,0,3.52-2.37A12.66,12.66,0,0,1,429.17,31a8.63,8.63,0,0,1-2.55,3.27,11.68,11.68,0,0,1-4.06,2.06,21.88,21.88,0,0,1-5.63.67Zm5.52-14.37A5.71,5.71,0,0,1,420,20.85a6.91,6.91,0,0,1-1.15-2.55,12.49,12.49,0,0,1-.37-3.15,12.21,12.21,0,0,1,.37-3A7.49,7.49,0,0,1,420,9.45a5.17,5.17,0,0,1,1.82-1.81,4.41,4.41,0,0,1,2.54-.73,5.66,5.66,0,0,1,2.42.54,7.18,7.18,0,0,1,1.94,1.7A9.28,9.28,0,0,1,430,12.06a15.69,15.69,0,0,1,.42,4v3.51a7.06,7.06,0,0,1-2.24,2.61,6.2,6.2,0,0,1-3.58,1,5.54,5.54,0,0,1-2.72-.61Zm40.2-.78H445.37v6.84H462Zm36,15H479.53l7.57-8c1.46-1.51,2.79-2.9,3.94-4.3a29.68,29.68,0,0,0,3-4.06,19.25,19.25,0,0,0,1.88-4,12,12,0,0,0,.73-4.18,14.08,14.08,0,0,0-.91-5.15A10.36,10.36,0,0,0,493,3.27,12,12,0,0,0,488.68.85,20.2,20.2,0,0,0,482.62,0a15.88,15.88,0,0,0-6.24,1.15,13.86,13.86,0,0,0-4.67,3,13.39,13.39,0,0,0-3,4.49,15.23,15.23,0,0,0-1,5.51h8.61a8.74,8.74,0,0,1,.42-2.91A6.9,6.9,0,0,1,477.83,9a5.55,5.55,0,0,1,2-1.52,6.05,6.05,0,0,1,2.67-.54,5.25,5.25,0,0,1,4.12,1.63,6.63,6.63,0,0,1,1.45,4.55,5.67,5.67,0,0,1-.3,1.94,10.07,10.07,0,0,1-.91,2.18,17.35,17.35,0,0,1-1.76,2.61A33.89,33.89,0,0,1,482.44,23L468.5,37.81v5.88h29.57ZM525.25.18A22.66,22.66,0,0,0,516,1.94a19.45,19.45,0,0,0-6.9,4.85,22.31,22.31,0,0,0-4.31,7.51,29.58,29.58,0,0,0-1.45,9.52v3.33a21.23,21.23,0,0,0,1.09,7,16.22,16.22,0,0,0,3,5.39A13.77,13.77,0,0,0,512.22,43a15.06,15.06,0,0,0,6.24,1.27,15.72,15.72,0,0,0,6-1.15,13.84,13.84,0,0,0,4.6-3.15A13.4,13.4,0,0,0,532,35.33a16.73,16.73,0,0,0,1-5.82,21.21,21.21,0,0,0-.78-5.63,14.08,14.08,0,0,0-2.31-4.67,11.36,11.36,0,0,0-3.82-3.15,11.73,11.73,0,0,0-5.39-1.21,12.61,12.61,0,0,0-4.91,1,11.82,11.82,0,0,0-3.75,2.6,13.84,13.84,0,0,1,1.45-4.66,10.57,10.57,0,0,1,2.79-3.52A13.29,13.29,0,0,1,520.52,8,16.51,16.51,0,0,1,526,7.21h.49v-7ZM520.76,22.3a6.4,6.4,0,0,1,2,1.64A7.75,7.75,0,0,1,524,26.42a10.22,10.22,0,0,1,.43,3.15,10.22,10.22,0,0,1-.43,3.15,7.59,7.59,0,0,1-1.27,2.43,5,5,0,0,1-1.94,1.63,4.86,4.86,0,0,1-2.54.61,6.2,6.2,0,0,1-2.61-.55,6.1,6.1,0,0,1-2.06-1.69,9.55,9.55,0,0,1-1.27-2.85,15.86,15.86,0,0,1-.49-4V25.69a6.15,6.15,0,0,1,1-1.51,5.52,5.52,0,0,1,1.4-1.27,6.44,6.44,0,0,1,1.75-.85,6.32,6.32,0,0,1,2.13-.31,6.19,6.19,0,0,1,2.66.55Z"></path><path class="cls-2" d="M328,121a10.25,10.25,0,0,1-3.15-2.85,13,13,0,0,1-1.7-4.18,21.61,21.61,0,0,1-.54-4.91v-1.21a21.93,21.93,0,0,1,.54-4.91,11.51,11.51,0,0,1,1.76-4.12A9,9,0,0,1,328,95.87a10,10,0,0,1,4.67-1,10.56,10.56,0,0,1,3.39.54,9.41,9.41,0,0,1,2.79,1.7,8.48,8.48,0,0,1,1.94,2.61,9.15,9.15,0,0,1,.79,3.51H345a14.15,14.15,0,0,0-1.09-4.73,11.38,11.38,0,0,0-2.67-3.57,11,11,0,0,0-3.81-2.3,14.9,14.9,0,0,0-10.67.42,12.61,12.61,0,0,0-4.3,3.39,15.82,15.82,0,0,0-2.61,5.09,23.2,23.2,0,0,0-.85,6.31V109a23.51,23.51,0,0,0,.85,6.3,15.61,15.61,0,0,0,2.61,5.09,12.08,12.08,0,0,0,4.3,3.33,12.92,12.92,0,0,0,5.88,1.28,14.89,14.89,0,0,0,4.66-.79,13.08,13.08,0,0,0,3.82-2.18,10.35,10.35,0,0,0,2.73-3.34,10.61,10.61,0,0,0,1.15-4.18h-3.45a7.7,7.7,0,0,1-.85,3.22,9.68,9.68,0,0,1-2,2.36,9.35,9.35,0,0,1-2.79,1.39,9.57,9.57,0,0,1-3.27.49,9.4,9.4,0,0,1-4.67-1Zm24.27-28.55h-3.88l12.06,31.76-1.57,4.18a13.12,13.12,0,0,1-1.09,2.55,7.42,7.42,0,0,1-1.46,1.81,5.11,5.11,0,0,1-1.88,1.09,7.77,7.77,0,0,1-2.54.37,5,5,0,0,1-.85-.06c-.42-.06-.73-.06-1-.12v3a1.91,1.91,0,0,1,.55.13c.24.06.48.06.72.12s.55.06.79.12h.67a7.93,7.93,0,0,0,3.75-.79,10.22,10.22,0,0,0,2.55-2,11.71,11.71,0,0,0,1.64-2.54c.42-.91.78-1.76,1-2.49l13.57-37.09h-3.82l-9.33,26.91ZM384.75,79h-3.57v45.45h3.57Zm13.57,13.45h-3.58v32h3.58Zm-3.58-7.57a2.59,2.59,0,0,0,1.82.67,2.47,2.47,0,0,0,1.76-.67,2.24,2.24,0,0,0,.66-1.7,2.15,2.15,0,0,0-.66-1.69,2.25,2.25,0,0,0-1.76-.73,2.3,2.3,0,0,0-2.43,2.42,2.45,2.45,0,0,0,.61,1.7Zm13.14,7.57v32h3.51V102.47a13.38,13.38,0,0,1,1.39-2.78,9.47,9.47,0,0,1,4.73-4.18A8.89,8.89,0,0,1,421,94.9a10.53,10.53,0,0,1,3.15.42,5.28,5.28,0,0,1,2.36,1.4A7.12,7.12,0,0,1,428,99.38a13.87,13.87,0,0,1,.54,4.18v20.85h3.52V103.56a17.74,17.74,0,0,0-.73-5.39,9.94,9.94,0,0,0-2-3.63,7.5,7.5,0,0,0-3.21-2.06,11.83,11.83,0,0,0-4.31-.67,11.64,11.64,0,0,0-3.27.42,13.63,13.63,0,0,0-2.85,1.21,13.12,13.12,0,0,0-2.42,1.94,12.92,12.92,0,0,0-1.88,2.49l-.12-5.46Zm31.84,16.31a22.5,22.5,0,0,0,.85,6.6,16,16,0,0,0,2.42,5.15,11.75,11.75,0,0,0,3.88,3.33A11.09,11.09,0,0,0,452,125a12.83,12.83,0,0,0,5.94-1.28,12,12,0,0,0,4.06-3.57l.12,4.24h3.33V79H462V96.9a12,12,0,0,0-4.06-3.76,11.8,11.8,0,0,0-5.82-1.33A10.88,10.88,0,0,0,446.93,93,11.43,11.43,0,0,0,443,96.23a16.14,16.14,0,0,0-2.42,5.15,23.13,23.13,0,0,0-.85,6.73Zm3.57-.61a23.86,23.86,0,0,1,.55-5.21,12.94,12.94,0,0,1,1.7-4.18,8.1,8.1,0,0,1,3-2.79,7.83,7.83,0,0,1,4.24-1,11.55,11.55,0,0,1,3.39.48,9.77,9.77,0,0,1,2.61,1.4,8.41,8.41,0,0,1,1.88,2,13.81,13.81,0,0,1,1.33,2.36v15a13.09,13.09,0,0,1-1.46,2.3,7.61,7.61,0,0,1-1.94,1.82,9,9,0,0,1-2.6,1.21,11.28,11.28,0,0,1-3.27.43,8.27,8.27,0,0,1-4.18-1,8.1,8.1,0,0,1-3-2.79,13,13,0,0,1-1.7-4.18,23.59,23.59,0,0,1-.55-5.21Zm47.78,16.42a10,10,0,0,0,3.15-1.21,10.24,10.24,0,0,0,2.43-1.76,15.62,15.62,0,0,0,1.88-2.24l-2.24-1.64a10.58,10.58,0,0,1-3.94,3.28,11.26,11.26,0,0,1-5,1,10.24,10.24,0,0,1-4.49-1,10.87,10.87,0,0,1-3.45-2.73,12.07,12.07,0,0,1-2.24-4,14.84,14.84,0,0,1-.79-5v-.66h22.84v-2.19a20.35,20.35,0,0,0-.84-5.87,13.22,13.22,0,0,0-2.43-4.67,11.69,11.69,0,0,0-4-3,12.53,12.53,0,0,0-5.39-1.09A11.83,11.83,0,0,0,481.32,93,14.39,14.39,0,0,0,477,96.23a15.3,15.3,0,0,0-3,5.09,19.75,19.75,0,0,0-1.09,6.73v1.27a17.81,17.81,0,0,0,1.09,6.3,14.16,14.16,0,0,0,3,5,12.57,12.57,0,0,0,4.55,3.21A13.75,13.75,0,0,0,487.2,125a14.72,14.72,0,0,0,3.87-.49Zm-.6-28.84a9.65,9.65,0,0,1,2.85,2.3,10.9,10.9,0,0,1,1.69,3.33,14,14,0,0,1,.67,3.94v.37H476.47a16.44,16.44,0,0,1,1.15-4.43,11.24,11.24,0,0,1,2.12-3.39,10.53,10.53,0,0,1,3-2.24,9.58,9.58,0,0,1,3.76-.73,8.92,8.92,0,0,1,3.94.85ZM521,92.17a6.67,6.67,0,0,0-1-.24,10.11,10.11,0,0,0-1.33-.12,9.2,9.2,0,0,0-5.46,1.51,11,11,0,0,0-3.57,4.19l-.06-5.1h-3.46v32h3.52v-22a15,15,0,0,1,1.21-2.91,8.46,8.46,0,0,1,1.88-2.24,7.62,7.62,0,0,1,2.54-1.51,9.12,9.12,0,0,1,3.27-.55,14.63,14.63,0,0,1,2.37.18Z"></path><path class="cls-3" d="M104.84,822.51H737M798.21,425.9V761"></path><path d="M404.28,898.23,401.91,903h2.95l1.75-3.53a12.22,12.22,0,0,0,4.5.82,11.58,11.58,0,0,0,6.05-1.59,11.34,11.34,0,0,0,4.11-4.65,15.24,15.24,0,0,0,1.46-6.73c0-5-1.55-8.81-4.6-11.23l2.42-4.84h-3l-1.69,3.53a11.69,11.69,0,0,0-4.84-1,10.89,10.89,0,0,0-10.17,6.29,15.19,15.19,0,0,0-1.45,6.73c0,5.27,1.65,9.05,4.84,11.42Zm1.55-18.3a6.3,6.3,0,0,1,5.23-2.56,6.5,6.5,0,0,1,3.15.77l-8.09,16.41a10.55,10.55,0,0,1-2.27-7.21c0-3.19.63-5.66,2-7.41Zm12.49,7.26a11.35,11.35,0,0,1-1.94,7,6.43,6.43,0,0,1-5.27,2.56,6.8,6.8,0,0,1-2.86-.58l8-16.26a11,11,0,0,1,2,6.92Zm27.32-19.7a11.79,11.79,0,0,0-14.67,0,8.91,8.91,0,0,0-2.81,6.88,8,8,0,0,0,1.36,4.6,9.44,9.44,0,0,0,3.58,3.14,9.14,9.14,0,0,0-4.21,3.39,8.77,8.77,0,0,0-1.5,5,9.11,9.11,0,0,0,2.95,7.12,13.25,13.25,0,0,0,15.93,0,9,9,0,0,0,3-7.12,8.46,8.46,0,0,0-1.6-5,9.67,9.67,0,0,0-4.26-3.39,9.33,9.33,0,0,0,3.68-3.14,7.92,7.92,0,0,0,1.35-4.6,8.77,8.77,0,0,0-2.8-6.88ZM443.12,895a7.7,7.7,0,0,1-9.63,0,6.09,6.09,0,0,1-1.75-4.6,6.43,6.43,0,0,1,1.79-4.75,6.29,6.29,0,0,1,4.75-1.79,6.66,6.66,0,0,1,4.79,1.84,6.35,6.35,0,0,1,1.84,4.7,6.15,6.15,0,0,1-1.79,4.6Zm-.68-24.88a6.45,6.45,0,0,1,.05,8.56,5.49,5.49,0,0,1-4.16,1.6,5.65,5.65,0,0,1-4.21-1.6,5.82,5.82,0,0,1-1.55-4.26,5.88,5.88,0,0,1,1.59-4.35,5.58,5.58,0,0,1,4.17-1.6,5.44,5.44,0,0,1,4.11,1.65Zm33.95,9.34c-.05-5-1-8.62-2.71-11s-4.46-3.58-8.18-3.58-6.49,1.21-8.23,3.68-2.62,6.24-2.62,11.28v5.85c.05,4.84,1,8.47,2.76,10.94s4.46,3.63,8.14,3.63,6.48-1.26,8.22-3.72,2.62-6.3,2.62-11.43ZM472,886.32c0,3.59-.63,6.25-1.64,7.89a5.87,5.87,0,0,1-9.73-.14c-1.07-1.79-1.65-4.5-1.65-8.23v-7c.05-3.48.58-6.1,1.6-7.79a5.25,5.25,0,0,1,4.89-2.52,5.31,5.31,0,0,1,4.93,2.57c1.07,1.69,1.6,4.35,1.6,8.08Z"></path><path class="cls-1" d="M478.79,249c0,44.76-29.23,81-65.28,81s-65.29-36.28-65.29-81Z"></path><path class="cls-4" d="M478.79,249c0,44.76-29.23,81-65.28,81s-65.29-36.28-65.29-81Z"></path><path class="cls-1" d="M479.86,249c0,46-29.69,83.24-66.33,83.24S347.21,295,347.21,249Zm-66.33,83.24v98.54M735,750.18H106.86V430.8H735ZM106.86,443.84H735M106.86,738.29H735"></path><path class="cls-5" d="M479.86,249c0,46-29.69,83.24-66.33,83.24S347.21,295,347.21,249Zm-66.33,83.24v98.54M735,750.18H106.86V430.8H735ZM106.86,443.84H735M106.86,738.29H735"></path><path d="M878.94,601v-3.29a8.1,8.1,0,0,1,1.65-5.32,5.67,5.67,0,0,1,4.6-1.84,6.36,6.36,0,0,1,4.74,1.64,6.73,6.73,0,0,1,1.65,4.89,6.66,6.66,0,0,1-1.65,4.74,5.56,5.56,0,0,1-4.31,1.75V608a8.69,8.69,0,0,0,6.93-3,13,13,0,0,0-.1-15.73,9.4,9.4,0,0,0-7.36-3.05,8.42,8.42,0,0,0-5.08,1.55,8.69,8.69,0,0,0-3,4.41,8.87,8.87,0,0,0-3.15-4,7.58,7.58,0,0,0-4.36-1.46,9.41,9.41,0,0,0-7.21,2.76,12.35,12.35,0,0,0,.15,15.25,8.75,8.75,0,0,0,6.77,3v-4.4a5.6,5.6,0,0,1-4.26-1.65,6.27,6.27,0,0,1-1.64-4.55c0-4,2-6,6-6a5.56,5.56,0,0,1,4.31,1.79,7.38,7.38,0,0,1,1.64,4.89V601Zm-.63-26.39-.92-1.17a7.21,7.21,0,0,1-1.25-4.5,6.3,6.3,0,0,1,2.08-5,8,8,0,0,1,5.56-1.89,8.7,8.7,0,0,1,5.72,1.74,5.87,5.87,0,0,1,2.08,4.79,6.55,6.55,0,0,1-1.5,4.51,6.92,6.92,0,0,1-4.46,2.08v4.16a10.18,10.18,0,0,0,7-3.29,10.86,10.86,0,0,0,2.52-7.46,10.56,10.56,0,0,0-3-8,11.85,11.85,0,0,0-8.37-2.86,12.27,12.27,0,0,0-8.43,2.76,9.48,9.48,0,0,0-3.09,7.46,10.88,10.88,0,0,0,1.5,5.76l-9.39-1V558.77h-4.07v17.62l17.18,1.74Z"></path></svg> 