<?xml version="1.0" encoding="UTF-8"?> <svg xmlns="http://www.w3.org/2000/svg" id="Livello_1" data-name="Livello 1" viewBox="0 0 998.95 998.95"><defs><style>.cls-1{fill:#fff;}.cls-2{fill:#231f20;}.cls-3,.cls-4,.cls-5,.cls-6,.cls-7{fill:none;stroke:#000;stroke-width:0.25px;}.cls-4,.cls-5,.cls-6{stroke-miterlimit:10;}.cls-5{stroke-dasharray:5 5;}.cls-6{stroke-dasharray:2.44 2.44;}.cls-7{stroke-linecap:round;stroke-linejoin:round;}</style></defs><title>sosp. 100 cilindro</title><rect class="cls-1" width="998.95" height="998.95"></rect><path class="cls-2" d="M348.57,37v7.15h.66a24.71,24.71,0,0,0,9.64-1.7,18.13,18.13,0,0,0,6.85-4.79,19.73,19.73,0,0,0,4.12-7.39,32.19,32.19,0,0,0,1.33-9.64v-3a22.36,22.36,0,0,0-1-7.15,16.3,16.3,0,0,0-2.91-5.57,13.32,13.32,0,0,0-4.6-3.58,14,14,0,0,0-6-1.27,14.44,14.44,0,0,0-6,1.21,13.45,13.45,0,0,0-4.55,3.33,13.88,13.88,0,0,0-2.91,4.79,17.65,17.65,0,0,0-1,5.94,19.66,19.66,0,0,0,.79,5.76,13.44,13.44,0,0,0,2.43,4.54,12,12,0,0,0,3.93,3.09,12.89,12.89,0,0,0,5.46,1.09,10.15,10.15,0,0,0,4.24-.9,11.68,11.68,0,0,0,3.51-2.37A12.45,12.45,0,0,1,361.41,31a8.51,8.51,0,0,1-2.54,3.27,11.77,11.77,0,0,1-4.06,2.06,22,22,0,0,1-5.64.67Zm5.51-14.37a5.81,5.81,0,0,1-1.88-1.75,7.07,7.07,0,0,1-1.15-2.55,13,13,0,0,1-.36-3.15,12.69,12.69,0,0,1,.36-3,7.67,7.67,0,0,1,1.15-2.67A5.25,5.25,0,0,1,354,7.64a4.46,4.46,0,0,1,2.55-.73,5.72,5.72,0,0,1,2.42.54,7.33,7.33,0,0,1,1.94,1.7,9.27,9.27,0,0,1,1.27,2.91,15.65,15.65,0,0,1,.43,4v3.51a7.18,7.18,0,0,1-2.25,2.61,6.19,6.19,0,0,1-3.57,1,5.61,5.61,0,0,1-2.73-.61Zm52.75,14.18H388.29l7.57-8c1.45-1.51,2.79-2.9,3.94-4.3a29.68,29.68,0,0,0,3-4.06,19.78,19.78,0,0,0,1.88-4,12.2,12.2,0,0,0,.72-4.18,14.29,14.29,0,0,0-.9-5.15,10.36,10.36,0,0,0-2.73-3.82A12.12,12.12,0,0,0,397.44.85,20.2,20.2,0,0,0,391.38,0a15.89,15.89,0,0,0-6.25,1.15,13.92,13.92,0,0,0-4.66,3,13.25,13.25,0,0,0-3,4.49,15.23,15.23,0,0,0-1,5.51H385a8.48,8.48,0,0,1,.43-2.91A6.72,6.72,0,0,1,386.59,9a5.46,5.46,0,0,1,2-1.52,6,6,0,0,1,2.66-.54,5.27,5.27,0,0,1,4.13,1.63,6.68,6.68,0,0,1,1.45,4.55,5.67,5.67,0,0,1-.3,1.94,11.19,11.19,0,0,1-.91,2.18,18.15,18.15,0,0,1-1.76,2.61A35.79,35.79,0,0,1,391.19,23L377.26,37.81v5.88h29.57Zm34.75,0H423l7.58-8c1.45-1.51,2.79-2.9,3.94-4.3a29.68,29.68,0,0,0,3-4.06,19.78,19.78,0,0,0,1.88-4,12.2,12.2,0,0,0,.72-4.18,14.08,14.08,0,0,0-.91-5.15,10.23,10.23,0,0,0-2.72-3.82A12.08,12.08,0,0,0,432.18.85,20.1,20.1,0,0,0,426.12,0a15.88,15.88,0,0,0-6.24,1.15,13.92,13.92,0,0,0-4.66,3,13.1,13.1,0,0,0-3,4.49,15.23,15.23,0,0,0-1,5.51h8.6a8.48,8.48,0,0,1,.43-2.91A6.72,6.72,0,0,1,421.34,9a5.46,5.46,0,0,1,2-1.52A6,6,0,0,1,426,6.91a5.25,5.25,0,0,1,4.12,1.63,6.63,6.63,0,0,1,1.46,4.55,5.67,5.67,0,0,1-.3,1.94,11.19,11.19,0,0,1-.91,2.18,18.15,18.15,0,0,1-1.76,2.61A35.79,35.79,0,0,1,425.94,23L412,37.81v5.88h29.57Zm11.23.19v7.15h.67a24.71,24.71,0,0,0,9.64-1.7A18.09,18.09,0,0,0,470,37.63a19.46,19.46,0,0,0,4.12-7.39,32.19,32.19,0,0,0,1.34-9.64v-3a22.64,22.64,0,0,0-1-7.15,16.3,16.3,0,0,0-2.91-5.57,13.27,13.27,0,0,0-4.61-3.58,13.94,13.94,0,0,0-6-1.27,14.51,14.51,0,0,0-6,1.21,13.51,13.51,0,0,0-4.54,3.33,13.88,13.88,0,0,0-2.91,4.79,17.41,17.41,0,0,0-1,5.94,19.33,19.33,0,0,0,.79,5.76,13.42,13.42,0,0,0,2.42,4.54,12.07,12.07,0,0,0,3.94,3.09A12.89,12.89,0,0,0,459,29.75a10.18,10.18,0,0,0,4.24-.9,11.68,11.68,0,0,0,3.51-2.37A12.45,12.45,0,0,1,465.66,31a8.51,8.51,0,0,1-2.54,3.27,11.77,11.77,0,0,1-4.06,2.06,22,22,0,0,1-5.64.67Zm5.52-14.37a5.81,5.81,0,0,1-1.88-1.75,6.91,6.91,0,0,1-1.15-2.55,13,13,0,0,1-.36-3.15,12.69,12.69,0,0,1,.36-3,7.49,7.49,0,0,1,1.15-2.67,5.25,5.25,0,0,1,1.82-1.81,4.43,4.43,0,0,1,2.54-.73,5.74,5.74,0,0,1,2.43.54,7.49,7.49,0,0,1,1.94,1.7,9.27,9.27,0,0,1,1.27,2.91,15.69,15.69,0,0,1,.42,4v3.51a7.06,7.06,0,0,1-2.24,2.61,6.19,6.19,0,0,1-3.57,1,5.61,5.61,0,0,1-2.73-.61Zm40.2-.78H481.87v6.84h16.66Zm36,15H516l7.58-8c1.45-1.51,2.78-2.9,3.93-4.3a28.12,28.12,0,0,0,3-4.06,19.25,19.25,0,0,0,1.88-4,12,12,0,0,0,.73-4.18,14.08,14.08,0,0,0-.91-5.15,10.14,10.14,0,0,0-2.73-3.82A12,12,0,0,0,525.17.85,20.2,20.2,0,0,0,519.11,0a15.88,15.88,0,0,0-6.24,1.15,14,14,0,0,0-4.67,3,13.39,13.39,0,0,0-3,4.49,15.45,15.45,0,0,0-1,5.51h8.61a8.74,8.74,0,0,1,.42-2.91A7.09,7.09,0,0,1,514.32,9a5.64,5.64,0,0,1,2-1.52A6.05,6.05,0,0,1,519,6.91a5.25,5.25,0,0,1,4.12,1.63,6.63,6.63,0,0,1,1.46,4.55,5.69,5.69,0,0,1-.31,1.94,10.07,10.07,0,0,1-.91,2.18,18,18,0,0,1-1.75,2.61A35.79,35.79,0,0,1,518.93,23L505,37.81v5.88h29.57ZM569.07.61H538.65v6.9H560L543.38,43.69h9l16.66-38.3Z"></path><path class="cls-2" d="M364.48,121a10.25,10.25,0,0,1-3.15-2.85,13,13,0,0,1-1.7-4.18,21.61,21.61,0,0,1-.54-4.91v-1.21a21.93,21.93,0,0,1,.54-4.91,11.51,11.51,0,0,1,1.76-4.12,9,9,0,0,1,3.09-2.91,10,10,0,0,1,4.67-1,10.56,10.56,0,0,1,3.39.54,9.41,9.41,0,0,1,2.79,1.7,8.64,8.64,0,0,1,1.94,2.61,9.14,9.14,0,0,1,.78,3.51h3.46a14.4,14.4,0,0,0-1.09-4.73,11.38,11.38,0,0,0-2.67-3.57,11,11,0,0,0-3.82-2.3,14.88,14.88,0,0,0-10.66.42,12.61,12.61,0,0,0-4.3,3.39,15.62,15.62,0,0,0-2.61,5.09,22.82,22.82,0,0,0-.85,6.31V109a23.11,23.11,0,0,0,.85,6.3,15.42,15.42,0,0,0,2.61,5.09,12.08,12.08,0,0,0,4.3,3.33,12.86,12.86,0,0,0,5.88,1.28,14.89,14.89,0,0,0,4.66-.79,13.08,13.08,0,0,0,3.82-2.18,10.35,10.35,0,0,0,2.73-3.34,10.78,10.78,0,0,0,1.15-4.18h-3.46a7.69,7.69,0,0,1-.84,3.22,9.9,9.9,0,0,1-2,2.36,9.35,9.35,0,0,1-2.79,1.39,9.57,9.57,0,0,1-3.27.49,9.4,9.4,0,0,1-4.67-1Zm24.27-28.55h-3.88l12.06,31.76-1.58,4.18a12,12,0,0,1-1.09,2.55,7.39,7.39,0,0,1-1.45,1.81,5.19,5.19,0,0,1-1.88,1.09,7.81,7.81,0,0,1-2.54.37,5,5,0,0,1-.85-.06c-.43-.06-.73-.06-1-.12v3a1.77,1.77,0,0,1,.54.13c.25.06.49.06.73.12s.55.06.79.12h.66a7.94,7.94,0,0,0,3.76-.79,10.22,10.22,0,0,0,2.55-2,11.66,11.66,0,0,0,1.63-2.54,22.59,22.59,0,0,0,1-2.49l13.58-37.09H408l-9.33,26.91ZM421.26,79h-3.57v45.45h3.57Zm13.56,13.45h-3.57v32h3.57Zm-3.57-7.57a2.59,2.59,0,0,0,1.82.67,2.43,2.43,0,0,0,1.75-.67,2.22,2.22,0,0,0,.67-1.7,2.13,2.13,0,0,0-.67-1.69,2.22,2.22,0,0,0-1.75-.73,2.35,2.35,0,0,0-1.82.73,2.3,2.3,0,0,0-.61,1.69,2.41,2.41,0,0,0,.61,1.7Zm13.13,7.57v32h3.52V102.47a13.38,13.38,0,0,1,1.39-2.78,10.14,10.14,0,0,1,2-2.49A10.46,10.46,0,0,1,454,95.51a8.87,8.87,0,0,1,3.45-.61,10.49,10.49,0,0,1,3.15.42,5.31,5.31,0,0,1,2.37,1.4,7.1,7.1,0,0,1,1.51,2.66,13.53,13.53,0,0,1,.55,4.18v20.85h3.51V103.56a17.76,17.76,0,0,0-.72-5.39,10.09,10.09,0,0,0-2-3.63,7.47,7.47,0,0,0-3.22-2.06,13.59,13.59,0,0,0-7.57-.25,13.63,13.63,0,0,0-2.85,1.21,12.8,12.8,0,0,0-2.42,1.94,12.52,12.52,0,0,0-1.88,2.49l-.12-5.46Zm31.85,16.31a22.85,22.85,0,0,0,.84,6.6,16.26,16.26,0,0,0,2.43,5.15,11.75,11.75,0,0,0,3.88,3.33,11.09,11.09,0,0,0,5.15,1.22,12.83,12.83,0,0,0,5.94-1.28,12.11,12.11,0,0,0,4.06-3.57l.12,4.24H502V79h-3.51V96.9a12,12,0,0,0-4.06-3.76,11.8,11.8,0,0,0-5.82-1.33A10.88,10.88,0,0,0,483.44,93a11.43,11.43,0,0,0-3.94,3.27,16.37,16.37,0,0,0-2.43,5.15,23.49,23.49,0,0,0-.84,6.73Zm3.57-.61a23.26,23.26,0,0,1,.55-5.21A13.16,13.16,0,0,1,482,98.72a8.25,8.25,0,0,1,3-2.79,7.86,7.86,0,0,1,4.25-1,11.55,11.55,0,0,1,3.39.48,9.55,9.55,0,0,1,2.6,1.4,8,8,0,0,1,1.88,2,13.22,13.22,0,0,1,1.34,2.36v15a13.09,13.09,0,0,1-1.46,2.3,7.61,7.61,0,0,1-1.94,1.82,9.11,9.11,0,0,1-2.6,1.21,11.31,11.31,0,0,1-3.28.43,8.26,8.26,0,0,1-7.15-3.82,13.25,13.25,0,0,1-1.69-4.18,23,23,0,0,1-.55-5.21Zm47.78,16.42a12.29,12.29,0,0,0,5.58-3,16.3,16.3,0,0,0,1.88-2.24l-2.25-1.64a10.43,10.43,0,0,1-3.94,3.28,11.23,11.23,0,0,1-5,1,10.19,10.19,0,0,1-4.48-1,10.87,10.87,0,0,1-3.45-2.73,12.27,12.27,0,0,1-2.25-4,15.09,15.09,0,0,1-.78-5v-.66H535.7v-2.19a20,20,0,0,0-.85-5.87,13,13,0,0,0-2.42-4.67,11.69,11.69,0,0,0-4-3A12.56,12.56,0,0,0,523,91.81,11.83,11.83,0,0,0,517.83,93a14.27,14.27,0,0,0-4.37,3.27,15.3,15.3,0,0,0-3,5.09,19.51,19.51,0,0,0-1.09,6.73v1.27a17.59,17.59,0,0,0,1.09,6.3,14.16,14.16,0,0,0,3,5A12.49,12.49,0,0,0,518,123.8,13.71,13.71,0,0,0,523.7,125a14.74,14.74,0,0,0,3.88-.49ZM527,95.69a9.48,9.48,0,0,1,2.84,2.3,10.7,10.7,0,0,1,1.7,3.33,14.33,14.33,0,0,1,.67,3.94v.37H513a16.08,16.08,0,0,1,1.15-4.43,11.05,11.05,0,0,1,2.12-3.39,10.53,10.53,0,0,1,3-2.24,9.55,9.55,0,0,1,3.76-.73,9,9,0,0,1,3.94.85Zm30.51-3.52a7,7,0,0,0-1-.24,10.11,10.11,0,0,0-1.34-.12,9.17,9.17,0,0,0-5.45,1.51,11,11,0,0,0-3.58,4.19l-.06-5.1h-3.45v32h3.51v-22a15.66,15.66,0,0,1,1.22-2.91,8.62,8.62,0,0,1,1.87-2.24,7.77,7.77,0,0,1,2.55-1.51A9.12,9.12,0,0,1,555,95.2a14.63,14.63,0,0,1,2.37.18Z"></path><path d="M917,601.86l-.92-1.16a7.21,7.21,0,0,1-1.26-4.5,6.32,6.32,0,0,1,2.08-5,8,8,0,0,1,5.57-1.89,8.65,8.65,0,0,1,5.71,1.74,5.85,5.85,0,0,1,2.08,4.79,6.46,6.46,0,0,1-1.5,4.5,6.9,6.9,0,0,1-4.45,2.09v4.16a10.2,10.2,0,0,0,7-3.29,10.91,10.91,0,0,0,2.52-7.46,10.54,10.54,0,0,0-3.05-8,11.87,11.87,0,0,0-8.38-2.86,12.26,12.26,0,0,0-8.42,2.76,9.48,9.48,0,0,0-3.1,7.45,11,11,0,0,0,1.5,5.77l-9.39-1V586h-4.06v17.62l17.18,1.74Zm-4-43.28c-5,0-8.61,1-11,2.71s-3.58,4.45-3.58,8.18,1.21,6.48,3.68,8.23,6.24,2.61,11.28,2.61h5.86c4.84,0,8.47-1,10.94-2.76s3.63-4.45,3.63-8.13-1.26-6.49-3.73-8.23-6.29-2.61-11.43-2.61Zm6.83,4.35c3.58.05,6.24.63,7.89,1.65a5.87,5.87,0,0,1-.15,9.73c-1.79,1.06-4.5,1.64-8.23,1.64h-7c-3.48,0-6.1-.58-7.79-1.59a6,6,0,0,1,.05-9.83c1.69-1.07,4.36-1.6,8.08-1.6Z"></path><path class="cls-3" d="M68.29,841.89h739m55.18-439.06V763.27"></path><path d="M403.43,917.62l-2.37,4.79H404l1.74-3.53a12.3,12.3,0,0,0,4.5.82,11.47,11.47,0,0,0,6.05-1.6,11.27,11.27,0,0,0,4.12-4.64,15.24,15.24,0,0,0,1.45-6.73c0-5-1.55-8.81-4.6-11.23l2.42-4.84h-2.95l-1.7,3.53a11.5,11.5,0,0,0-4.84-1,11.16,11.16,0,0,0-6.05,1.64,11,11,0,0,0-4.11,4.65,15.06,15.06,0,0,0-1.45,6.73c0,5.27,1.64,9,4.84,11.42Zm1.55-18.3a6.29,6.29,0,0,1,5.22-2.56,6.47,6.47,0,0,1,3.15.77l-8.08,16.41a10.56,10.56,0,0,1-2.28-7.21c0-3.2.63-5.66,2-7.41Zm12.49,7.26a11.3,11.3,0,0,1-1.94,7,6.44,6.44,0,0,1-5.28,2.57,6.79,6.79,0,0,1-2.85-.58l8-16.27a11,11,0,0,1,2,6.93Zm23.63-21.92h-.68l-12.53,4.69v4l8.81-3.24v29.14h4.4Zm34.43,14.23c0-5-1-8.62-2.71-11s-4.45-3.58-8.18-3.58-6.48,1.21-8.23,3.68-2.61,6.24-2.61,11.27v5.86c.05,4.84,1,8.47,2.76,10.94s4.45,3.63,8.13,3.63,6.49-1.26,8.23-3.73,2.61-6.29,2.61-11.42Zm-4.35,6.82c-.05,3.58-.63,6.25-1.65,7.89a5.87,5.87,0,0,1-9.73-.14c-1.06-1.79-1.64-4.5-1.64-8.23v-7c0-3.49.58-6.1,1.59-7.79a5.26,5.26,0,0,1,4.89-2.52,5.34,5.34,0,0,1,4.94,2.56c1.06,1.7,1.6,4.36,1.6,8.09Zm31.57-6.82c-.05-5-1-8.62-2.71-11s-4.45-3.58-8.18-3.58-6.49,1.21-8.23,3.68S481,894.24,481,899.27v5.86c.05,4.84,1,8.47,2.76,10.94s4.45,3.63,8.13,3.63,6.48-1.26,8.23-3.73,2.61-6.29,2.61-11.42Zm-4.36,6.82c0,3.58-.62,6.25-1.64,7.89a5.87,5.87,0,0,1-9.73-.14c-1.07-1.79-1.65-4.5-1.65-8.23v-7c.05-3.49.58-6.1,1.6-7.79a5.26,5.26,0,0,1,4.89-2.52,5.35,5.35,0,0,1,4.94,2.56c1.06,1.7,1.59,4.36,1.59,8.09Z"></path><rect class="cls-1" x="424.45" y="285.37" width="14.85" height="14.85"></rect><rect class="cls-4" x="424.45" y="285.37" width="14.85" height="14.85"></rect><rect class="cls-1" x="427.18" y="288.09" width="9.4" height="9.4"></rect><rect class="cls-4" x="427.18" y="288.09" width="9.4" height="9.4"></rect><line class="cls-4" x1="388.68" y1="278.14" x2="349.32" y2="396.99"></line><line class="cls-4" x1="473.12" y1="278.14" x2="513.15" y2="396.99"></line><path class="cls-1" d="M431.88,385.06v0Z"></path><polygon class="cls-4" points="431.88 385.06 431.88 301.83 431.88 385.06 431.88 385.06"></polygon><line class="cls-4" x1="431.88" y1="301.83" x2="431.88" y2="385.05"></line><rect class="cls-1" x="424.01" y="372.9" width="14.85" height="14.85"></rect><rect class="cls-4" x="424.01" y="372.9" width="14.85" height="14.85"></rect><rect class="cls-1" x="426.74" y="375.63" width="9.4" height="9.4"></rect><rect class="cls-4" x="426.74" y="375.63" width="9.4" height="9.4"></rect><path class="cls-1" d="M409.56,398.79s19.48-30.91,44,0"></path><path class="cls-4" d="M409.56,398.79s19.48-30.91,44,0"></path><polygon class="cls-1" points="799.35 770.06 64.42 770.06 64.42 413.01 64.42 399.55 799.35 399.55 799.35 770.06"></polygon><line class="cls-1" x1="64.42" y1="413.01" x2="799.34" y2="413.01"></line><line class="cls-1" x1="64.42" y1="758.19" x2="799.34" y2="758.19"></line><polygon class="cls-4" points="801.11 770.06 66.18 770.06 66.18 413.01 66.18 399.55 801.11 399.55 801.11 770.06 801.11 770.06"></polygon><line class="cls-4" x1="66.18" y1="413.01" x2="801.1" y2="413.01"></line><line class="cls-4" x1="66.18" y1="758.19" x2="801.1" y2="758.19"></line><line class="cls-5" x1="514.63" y1="516.74" x2="438.87" y2="419.56"></line><line class="cls-5" x1="349.32" y1="516.74" x2="419.37" y2="425.61"></line><line class="cls-6" x1="421.86" y1="422.51" x2="424.19" y2="419.56"></line><line class="cls-5" x1="431.46" y1="410.64" x2="431.46" y2="514.83"></line><rect class="cls-1" x="394.82" y="249.03" width="73.24" height="13.01"></rect><rect class="cls-4" x="394.82" y="253.65" width="73.24" height="13.01"></rect><path class="cls-1" d="M433.1,267.5h57.58s-10,13.38-57.58,17h-3.32c-47.59-3.65-57.57-17-57.57-17H433.1Z"></path><path class="cls-7" d="M433.1,267.5h57.58s-10,13.38-57.58,17h-3.32c-47.59-3.65-57.57-17-57.57-17H433.1Z"></path><polygon class="cls-5" points="347.52 518.38 333.89 520.92 322.04 537.31 340.11 549.05 351.97 531.82 347.52 518.38"></polygon><polygon class="cls-5" points="515.6 518.38 529.23 520.92 541.08 537.31 523.01 549.05 511.14 531.82 515.6 518.38"></polygon><polygon class="cls-5" points="430.85 520.25 421.09 530.1 420.69 550.32 442.23 549.68 442.16 528.75 430.85 520.25"></polygon></svg> 