<?xml version="1.0" encoding="UTF-8"?> <svg xmlns="http://www.w3.org/2000/svg" id="Livello_1" data-name="Livello 1" viewBox="0 0 620 1000"><defs><style>.cls-1{fill:#fff;}.cls-2{fill:#231f20;}.cls-3,.cls-4,.cls-5,.cls-6,.cls-7,.cls-8{fill:none;stroke:#000;stroke-width:0.25px;}.cls-4,.cls-5,.cls-6,.cls-8{stroke-miterlimit:10;}.cls-5{stroke-dasharray:2.41 2.41;}.cls-6{stroke-dasharray:2.43 2.43;}.cls-7,.cls-8{stroke-linecap:round;}.cls-7{stroke-linejoin:round;}</style></defs><title>sosp. high cylinder contrappeso</title><rect class="cls-1" width="620" height="998.95"></rect><path class="cls-2" d="M153.86,17.93a27.16,27.16,0,0,0-1.06-8.14,14.48,14.48,0,0,0-2.89-5.54,10.8,10.8,0,0,0-4.48-3.19A15,15,0,0,0,139.65,0a15.25,15.25,0,0,0-5.78,1.06,10.62,10.62,0,0,0-4.42,3.19,14.48,14.48,0,0,0-2.89,5.54,27.49,27.49,0,0,0-1.06,8.14v7.25a27.39,27.39,0,0,0,1.06,8.08,15.74,15.74,0,0,0,2.89,5.6A10.87,10.87,0,0,0,133.93,42a15.25,15.25,0,0,0,5.78,1.06A15,15,0,0,0,145.49,42,10.87,10.87,0,0,0,150,38.86a15.74,15.74,0,0,0,2.89-5.6,29.32,29.32,0,0,0,1-8.08Zm-8.31,8.37a21.9,21.9,0,0,1-.41,4.72A9.33,9.33,0,0,1,144,34.14a4.2,4.2,0,0,1-1.83,1.71,6,6,0,0,1-4.95,0,4.15,4.15,0,0,1-1.83-1.71A9.08,9.08,0,0,1,134.23,31a26.12,26.12,0,0,1-.36-4.72V16.69a25.41,25.41,0,0,1,.36-4.66A8.74,8.74,0,0,1,135.35,9a5.11,5.11,0,0,1,1.83-1.71,5.82,5.82,0,0,1,2.47-.47,5.52,5.52,0,0,1,2.48.47A4.81,4.81,0,0,1,144,9,8.94,8.94,0,0,1,145.14,12a21.31,21.31,0,0,1,.41,4.66ZM180.84.18a22,22,0,0,0-9,1.71,19.06,19.06,0,0,0-6.72,4.71,21.77,21.77,0,0,0-4.18,7.32,28.54,28.54,0,0,0-1.42,9.25v3.25a20.69,20.69,0,0,0,1.06,6.78,15.86,15.86,0,0,0,2.95,5.25,13.58,13.58,0,0,0,4.66,3.42,14.6,14.6,0,0,0,6.07,1.23A15.12,15.12,0,0,0,180.07,42a13.45,13.45,0,0,0,4.48-3.06,13.2,13.2,0,0,0,2.83-4.54,16.32,16.32,0,0,0,1-5.66,20.62,20.62,0,0,0-.76-5.49,13.68,13.68,0,0,0-2.24-4.54,10.94,10.94,0,0,0-3.72-3.06,11.41,11.41,0,0,0-5.25-1.18,12.26,12.26,0,0,0-4.77.94A11.42,11.42,0,0,0,168,17.93a13.66,13.66,0,0,1,1.42-4.54A10.2,10.2,0,0,1,172.11,10a12.93,12.93,0,0,1,4.13-2.19,16.22,16.22,0,0,1,5.3-.76H182V.18ZM176.47,21.7a6.31,6.31,0,0,1,1.95,1.59,8,8,0,0,1,1.24,2.42,10.25,10.25,0,0,1,.41,3.06,10.27,10.27,0,0,1-.41,3.07,7.57,7.57,0,0,1-1.24,2.36,5.44,5.44,0,0,1-4.37,2.18,6.17,6.17,0,0,1-2.53-.53,5.81,5.81,0,0,1-2-1.65,9.13,9.13,0,0,1-1.23-2.77,15,15,0,0,1-.48-3.89V25a5.85,5.85,0,0,1,.95-1.47,5.37,5.37,0,0,1,1.35-1.24,6.44,6.44,0,0,1,1.71-.83,6.21,6.21,0,0,1,2.07-.29,6,6,0,0,1,2.59.53Zm45-3.77a27.16,27.16,0,0,0-1.06-8.14,14.48,14.48,0,0,0-2.89-5.54A10.8,10.8,0,0,0,213,1.06,15,15,0,0,0,207.22,0a15.25,15.25,0,0,0-5.78,1.06A10.62,10.62,0,0,0,197,4.25a14.48,14.48,0,0,0-2.89,5.54,27.16,27.16,0,0,0-1.06,8.14v7.25a27.06,27.06,0,0,0,1.06,8.08,15.74,15.74,0,0,0,2.89,5.6A10.87,10.87,0,0,0,201.5,42a15.25,15.25,0,0,0,5.78,1.06A15,15,0,0,0,213.06,42a10.87,10.87,0,0,0,4.48-3.18,15.74,15.74,0,0,0,2.89-5.6,29.32,29.32,0,0,0,1-8.08Zm-8.31,8.37A21.22,21.22,0,0,1,212.7,31a9.12,9.12,0,0,1-1.12,3.12,4.15,4.15,0,0,1-1.83,1.71,6,6,0,0,1-4.95,0A4.2,4.2,0,0,1,203,34.14,9.29,9.29,0,0,1,201.79,31a27.18,27.18,0,0,1-.35-4.72V16.69a26.44,26.44,0,0,1,.35-4.66A8.94,8.94,0,0,1,202.91,9a5.19,5.19,0,0,1,1.83-1.71,5.87,5.87,0,0,1,2.48-.47,5.55,5.55,0,0,1,2.48.47A4.86,4.86,0,0,1,211.58,9,8.74,8.74,0,0,1,212.7,12a20.65,20.65,0,0,1,.42,4.66Zm21.78-2.77c.29-.3.59-.53.94-.83a6,6,0,0,1,1.12-.77,10.42,10.42,0,0,1,1.54-.47,7.14,7.14,0,0,1,2-.23,8,8,0,0,1,3,.53,5.38,5.38,0,0,1,2.06,1.53,5.19,5.19,0,0,1,1.24,2.3,10.19,10.19,0,0,1,.41,3,16.92,16.92,0,0,1-.29,3.06,8,8,0,0,1-1.06,2.48A5,5,0,0,1,244,35.79a5.39,5.39,0,0,1-2.66.59,5.72,5.72,0,0,1-4.12-1.47,6,6,0,0,1-1.83-4.07h-8.26a12.43,12.43,0,0,0,1.3,5.19,12,12,0,0,0,3.19,3.83,13.1,13.1,0,0,0,4.48,2.42,17.44,17.44,0,0,0,5.24.82,15.54,15.54,0,0,0,6.26-1.18,12.58,12.58,0,0,0,4.42-3.06,12.74,12.74,0,0,0,2.65-4.48,17.27,17.27,0,0,0,.83-5.31,20.83,20.83,0,0,0-.83-6,12.59,12.59,0,0,0-2.53-4.42,11,11,0,0,0-4-2.77,14.19,14.19,0,0,0-5.43-.94c-.65,0-1.36.06-1.94.12a14.41,14.41,0,0,0-1.83.41c-.53.17-1,.35-1.42.53a4.49,4.49,0,0,0-1.06.53l1-9h16.69v-7H230.65l-2.41,21.29Zm42.48-2.3H261.16v6.66h16.22Zm35.06,14.56h-18L301.77,28c1.41-1.48,2.71-2.83,3.83-4.19a28.91,28.91,0,0,0,2.95-3.95A20.07,20.07,0,0,0,310.38,16a11.85,11.85,0,0,0,.7-4.07,13.73,13.73,0,0,0-.88-5,10.12,10.12,0,0,0-2.65-3.72A11.88,11.88,0,0,0,303.3.83,19.5,19.5,0,0,0,297.4,0a15.41,15.41,0,0,0-6.07,1.12,13.46,13.46,0,0,0-4.54,3,13,13,0,0,0-3,4.36,14.93,14.93,0,0,0-1,5.37h8.37a8.26,8.26,0,0,1,.42-2.83,6.37,6.37,0,0,1,1.12-2.24,5.35,5.35,0,0,1,1.94-1.48,5.88,5.88,0,0,1,2.6-.53,5.13,5.13,0,0,1,4,1.59,6.47,6.47,0,0,1,1.41,4.43,5.56,5.56,0,0,1-.29,1.88,10.69,10.69,0,0,1-.89,2.13,17.1,17.1,0,0,1-1.71,2.53,35.37,35.37,0,0,1-2.59,3.07L283.66,36.79v5.72h28.78Zm33.28-17.86a27.16,27.16,0,0,0-1.06-8.14,14.48,14.48,0,0,0-2.89-5.54,10.8,10.8,0,0,0-4.48-3.19A15,15,0,0,0,331.51,0a15.25,15.25,0,0,0-5.78,1.06,10.62,10.62,0,0,0-4.42,3.19,14.48,14.48,0,0,0-2.89,5.54,27.16,27.16,0,0,0-1.06,8.14v7.25a27.06,27.06,0,0,0,1.06,8.08,15.74,15.74,0,0,0,2.89,5.6A10.87,10.87,0,0,0,325.79,42a15.25,15.25,0,0,0,5.78,1.06A15,15,0,0,0,337.35,42a10.87,10.87,0,0,0,4.48-3.18,15.74,15.74,0,0,0,2.89-5.6,29.32,29.32,0,0,0,1-8.08Zm-8.31,8.37A21.22,21.22,0,0,1,337,31a8.92,8.92,0,0,1-1.12,3.12,4.18,4.18,0,0,1-1.82,1.71,6.07,6.07,0,0,1-5,0,4.18,4.18,0,0,1-1.82-1.71A8.89,8.89,0,0,1,326.09,31a26.12,26.12,0,0,1-.36-4.72V16.69a25.41,25.41,0,0,1,.36-4.66A8.55,8.55,0,0,1,327.21,9,5.16,5.16,0,0,1,329,7.25a5.9,5.9,0,0,1,2.48-.47,5.55,5.55,0,0,1,2.48.47A4.86,4.86,0,0,1,335.87,9,8.55,8.55,0,0,1,337,12a20.65,20.65,0,0,1,.42,4.66Z"></path><path class="cls-2" d="M81,76.83H77.6v44.23H81V99.71A12.74,12.74,0,0,1,82.38,97,9.21,9.21,0,0,1,87,92.93a8.78,8.78,0,0,1,3.36-.59,10.25,10.25,0,0,1,3.06.41,5.1,5.1,0,0,1,2.3,1.36,7,7,0,0,1,1.48,2.59,13.49,13.49,0,0,1,.53,4.07v20.29h3.42V100.77a17.23,17.23,0,0,0-.71-5.25,9.57,9.57,0,0,0-2-3.53,7.2,7.2,0,0,0-3.12-2,11.64,11.64,0,0,0-4.19-.65,10.33,10.33,0,0,0-3.12.42,10,10,0,0,0-2.77,1.18,11.86,11.86,0,0,0-2.36,1.82A12.8,12.8,0,0,0,81,95.17Zm32.81,13.09h-3.48v31.14h3.48Zm-3.48-7.37a2.47,2.47,0,0,0,1.77.65,2.32,2.32,0,0,0,1.71-.65,2.18,2.18,0,0,0,.65-1.65,2.09,2.09,0,0,0-.65-1.65,2.18,2.18,0,0,0-1.71-.71,2.31,2.31,0,0,0-1.77.71,2.28,2.28,0,0,0-.59,1.65,2.37,2.37,0,0,0,.59,1.65Zm11.43,23.23a22,22,0,0,0,.82,6.43,14.52,14.52,0,0,0,2.36,5,11.62,11.62,0,0,0,3.78,3.25,10.71,10.71,0,0,0,5,1.18,12.47,12.47,0,0,0,5.72-1.24,10.83,10.83,0,0,0,3.89-3.36v3.59a13.13,13.13,0,0,1-.59,4.19,8,8,0,0,1-1.83,3.07,7.25,7.25,0,0,1-2.89,2,11.23,11.23,0,0,1-3.89.65,10.2,10.2,0,0,1-4.66-1.06,13.56,13.56,0,0,1-4.07-3.42l-1.88,2.06a10.21,10.21,0,0,0,2.18,2.36,15.56,15.56,0,0,0,2.71,1.65,17.37,17.37,0,0,0,2.95,1,12.76,12.76,0,0,0,3,.3,14.24,14.24,0,0,0,5.13-.89,11,11,0,0,0,3.95-2.53A11.82,11.82,0,0,0,146,126a15.58,15.58,0,0,0,1-5.42V89.92h-3.25l-.17,4.48a11.28,11.28,0,0,0-3.95-3.71,12.38,12.38,0,0,0-10.79-.24A11.43,11.43,0,0,0,125,93.64a14.52,14.52,0,0,0-2.36,5,22.64,22.64,0,0,0-.82,6.55Zm3.48-.58a22.82,22.82,0,0,1,.53-5.08,12.6,12.6,0,0,1,1.65-4.06,8,8,0,0,1,2.89-2.72,7.72,7.72,0,0,1,4.13-1,11.37,11.37,0,0,1,3.3.47,8.66,8.66,0,0,1,4.36,3.3,10.09,10.09,0,0,1,1.24,2.36v14.45a11.32,11.32,0,0,1-1.36,2.3,7.68,7.68,0,0,1-1.88,1.77,9.52,9.52,0,0,1-2.54,1.24,10.8,10.8,0,0,1-3.18.41,8,8,0,0,1-7-3.72,12.6,12.6,0,0,1-1.65-4.06,22.45,22.45,0,0,1-.53-5.08Zm34-28.37h-3.42v44.23h3.42V99.71A12.69,12.69,0,0,1,160.6,97a9.78,9.78,0,0,1,2-2.42,10,10,0,0,1,2.65-1.65,8.85,8.85,0,0,1,3.36-.59,10.32,10.32,0,0,1,3.07.41,5.15,5.15,0,0,1,2.3,1.36,6.89,6.89,0,0,1,1.47,2.59,13.18,13.18,0,0,1,.53,4.07v20.29h3.42V100.77a17.25,17.25,0,0,0-.7-5.25,9.57,9.57,0,0,0-2-3.53,7.26,7.26,0,0,0-3.12-2,11.64,11.64,0,0,0-4.19-.65,10.44,10.44,0,0,0-3.13.42,10.24,10.24,0,0,0-2.77,1.18,12.46,12.46,0,0,0-2.36,1.82,13.17,13.17,0,0,0-1.88,2.42Zm50.19,40.87a10,10,0,0,1-3.07-2.78,12.83,12.83,0,0,1-1.65-4.06,21.09,21.09,0,0,1-.53-4.78V104.9a21.48,21.48,0,0,1,.53-4.78,11.4,11.4,0,0,1,1.71-4,8.78,8.78,0,0,1,3-2.83,9.85,9.85,0,0,1,4.54-1,10.28,10.28,0,0,1,3.3.53A9.29,9.29,0,0,1,220,94.46,8.15,8.15,0,0,1,221.88,97a8.86,8.86,0,0,1,.77,3.42H226a13.92,13.92,0,0,0-1.06-4.6,11,11,0,0,0-2.6-3.48,10.84,10.84,0,0,0-3.71-2.24,14.47,14.47,0,0,0-10.38.41,12.4,12.4,0,0,0-4.19,3.3,15.19,15.19,0,0,0-2.53,5,22.32,22.32,0,0,0-.83,6.13v1.18a22.7,22.7,0,0,0,.83,6.13,15,15,0,0,0,2.53,5,12,12,0,0,0,4.19,3.25,12.65,12.65,0,0,0,5.72,1.24,14.46,14.46,0,0,0,4.54-.77,12.7,12.7,0,0,0,3.71-2.12,10,10,0,0,0,2.66-3.25,10.39,10.39,0,0,0,1.12-4.06h-3.36a7.46,7.46,0,0,1-.83,3.12,9.37,9.37,0,0,1-1.94,2.3,9.13,9.13,0,0,1-2.72,1.36,9.53,9.53,0,0,1-3.18.47,9.15,9.15,0,0,1-4.54-1Zm23.61-27.78h-3.77L241,120.82l-1.53,4.07a12.09,12.09,0,0,1-1.06,2.48,7.18,7.18,0,0,1-1.41,1.76,5.26,5.26,0,0,1-1.83,1.07,8.07,8.07,0,0,1-2.48.35,4.64,4.64,0,0,1-.82-.06c-.42-.06-.71-.06-.95-.12v2.89a1.63,1.63,0,0,1,.53.12c.24.06.47.06.71.12s.53.06.77.12h.65a7.78,7.78,0,0,0,3.65-.77,10.09,10.09,0,0,0,2.48-1.95,10.83,10.83,0,0,0,1.59-2.47,23.33,23.33,0,0,0,1-2.42l13.21-36.09h-3.71l-9.09,26.18Zm31.64-13.09h-3.48v44.23h3.48Zm13.2,13.09h-3.48v31.14h3.48Zm-3.48-7.37a2.47,2.47,0,0,0,1.77.65,2.35,2.35,0,0,0,1.71-.65,2.17,2.17,0,0,0,.64-1.65,2.09,2.09,0,0,0-.64-1.65,2.21,2.21,0,0,0-1.71-.71,2.31,2.31,0,0,0-1.77.71,2.24,2.24,0,0,0-.59,1.65,2.33,2.33,0,0,0,.59,1.65Zm12.78,7.37v31.14h3.42V99.71A12.74,12.74,0,0,1,292,97a9.21,9.21,0,0,1,4.6-4.07,8.78,8.78,0,0,1,3.36-.59,10.25,10.25,0,0,1,3.06.41,5.1,5.1,0,0,1,2.3,1.36,7,7,0,0,1,1.48,2.59,13.49,13.49,0,0,1,.53,4.07v20.29h3.42V100.77a17.23,17.23,0,0,0-.71-5.25A9.57,9.57,0,0,0,308.06,92a7.2,7.2,0,0,0-3.12-2,11.64,11.64,0,0,0-4.19-.65,11,11,0,0,0-3.18.42,11.79,11.79,0,0,0-2.77,1.18,12,12,0,0,0-2.36,1.88,12.51,12.51,0,0,0-1.83,2.42l-.12-5.31Zm31,15.86a22,22,0,0,0,.83,6.43,15.7,15.7,0,0,0,2.36,5,11.69,11.69,0,0,0,3.77,3.25,11,11,0,0,0,5,1.18,12.55,12.55,0,0,0,5.78-1.24,11.91,11.91,0,0,0,3.95-3.48l.12,4.13h3.24V76.83h-3.42V94.29a10.85,10.85,0,0,0-9.61-5,10.71,10.71,0,0,0-5,1.12,11.12,11.12,0,0,0-3.83,3.19,15.7,15.7,0,0,0-2.36,5,22.63,22.63,0,0,0-.83,6.55Zm3.48-.58a23.43,23.43,0,0,1,.53-5.08,13.07,13.07,0,0,1,1.65-4.06,8,8,0,0,1,2.89-2.72,7.74,7.74,0,0,1,4.13-1,11.27,11.27,0,0,1,3.3.47,9.53,9.53,0,0,1,2.54,1.36,8.32,8.32,0,0,1,1.83,1.94,12.81,12.81,0,0,1,1.29,2.3V113a13.08,13.08,0,0,1-1.41,2.24,7.55,7.55,0,0,1-1.89,1.77,9.18,9.18,0,0,1-2.53,1.18,11.48,11.48,0,0,1-3.19.41,8,8,0,0,1-7-3.72,13.07,13.07,0,0,1-1.65-4.06,23,23,0,0,1-.53-5.08Zm46.49,16a9.9,9.9,0,0,0,3.07-1.17,10.75,10.75,0,0,0,2.36-1.71,15.4,15.4,0,0,0,1.83-2.19l-2.19-1.59a10.12,10.12,0,0,1-3.83,3.19,10.91,10.91,0,0,1-4.89,1,9.87,9.87,0,0,1-4.37-1,10.5,10.5,0,0,1-3.36-2.65,12,12,0,0,1-2.18-3.89,14.61,14.61,0,0,1-.76-4.84v-.64H376V103.6a19.76,19.76,0,0,0-.82-5.72,12.82,12.82,0,0,0-2.36-4.54,11.38,11.38,0,0,0-3.89-3,12.36,12.36,0,0,0-5.25-1.06,11.65,11.65,0,0,0-5.07,1.12,13.93,13.93,0,0,0-4.25,3.19,14.72,14.72,0,0,0-2.94,5,19,19,0,0,0-1.06,6.55v1.23a17.14,17.14,0,0,0,1.06,6.14,13.71,13.71,0,0,0,2.89,4.83,12.25,12.25,0,0,0,4.42,3.13,13.53,13.53,0,0,0,5.6,1.18,14.38,14.38,0,0,0,3.77-.48Zm-.59-28.06a9.46,9.46,0,0,1,2.78,2.24A10.77,10.77,0,0,1,372,98.59a13.91,13.91,0,0,1,.65,3.83v.36h-18.7a16.12,16.12,0,0,1,1.12-4.31,10.91,10.91,0,0,1,2.07-3.3A10.21,10.21,0,0,1,360.07,93a9.39,9.39,0,0,1,3.65-.71,8.71,8.71,0,0,1,3.83.83Zm29.69-3.42a6.12,6.12,0,0,0-1-.24,9.38,9.38,0,0,0-1.3-.12,8.94,8.94,0,0,0-5.3,1.48,10.59,10.59,0,0,0-3.48,4.07l-.06-5h-3.36v31.14h3.42V99.65a14.44,14.44,0,0,1,1.18-2.83,8.36,8.36,0,0,1,1.82-2.18,7.45,7.45,0,0,1,2.48-1.47,8.9,8.9,0,0,1,3.19-.53,13.68,13.68,0,0,1,2.29.17Z"></path><path d="M508.89,591.3V592l4.57,12.2h3.86l-3.16-8.57h28.36V591.3Zm13.84-33.5c-4.85.05-8.38.94-10.69,2.64s-3.48,4.33-3.48,8,1.17,6.31,3.58,8,6.07,2.54,11,2.54h5.7c4.71-.05,8.24-.94,10.64-2.69s3.54-4.33,3.54-7.91-1.23-6.31-3.63-8-6.12-2.54-11.12-2.54Zm6.64,4.24c3.49.05,6.08.61,7.68,1.6a5.71,5.71,0,0,1-.14,9.47c-1.74,1-4.38,1.6-8,1.6h-6.83c-3.39-.05-5.93-.57-7.58-1.55A5.13,5.13,0,0,1,512,568.4a5.21,5.21,0,0,1,2.5-4.81c1.65-1,4.24-1.55,7.86-1.55Zm-6.64-30.72c-4.85,0-8.38.94-10.69,2.63s-3.48,4.34-3.48,8,1.17,6.32,3.58,8,6.07,2.54,11,2.54h5.7c4.71,0,8.24-.94,10.64-2.68s3.54-4.33,3.54-7.91-1.23-6.31-3.63-8-6.12-2.54-11.12-2.54Zm6.64,4.24c3.49,0,6.08.61,7.68,1.6a5.7,5.7,0,0,1-.14,9.46c-1.74,1-4.38,1.61-8,1.61h-6.83c-3.39-.05-5.93-.57-7.58-1.56a5.13,5.13,0,0,1-2.45-4.76,5.19,5.19,0,0,1,2.5-4.8c1.65-1,4.24-1.55,7.86-1.55Z"></path><path class="cls-3" d="M162.92,921.66H310.76M452.25,355.81V780.94"></path><path d="M203.81,995.34,201.5,1000h2.88l1.69-3.44a11.86,11.86,0,0,0,4.38.8,11.26,11.26,0,0,0,5.89-1.55,11,11,0,0,0,4-4.52,14.75,14.75,0,0,0,1.42-6.55c0-4.9-1.51-8.57-4.48-10.93l2.36-4.71h-2.88l-1.65,3.44a11.23,11.23,0,0,0-4.71-1,10.62,10.62,0,0,0-9.89,6.12,14.76,14.76,0,0,0-1.41,6.55c0,5.14,1.6,8.81,4.71,11.12Zm1.51-17.81A6.11,6.11,0,0,1,210.4,975a6.28,6.28,0,0,1,3.07.75l-7.87,16a10.28,10.28,0,0,1-2.21-7c0-3.11.61-5.51,1.93-7.21Zm12.15,7.07a11,11,0,0,1-1.88,6.78,6.28,6.28,0,0,1-5.14,2.5,6.64,6.64,0,0,1-2.78-.57l7.82-15.82a10.67,10.67,0,0,1,2,6.73Zm15.18-3h3.2a7.89,7.89,0,0,1,5.18,1.61,5.49,5.49,0,0,1,1.79,4.47,6.17,6.17,0,0,1-1.6,4.62,7.66,7.66,0,0,1-9.37,0,5.45,5.45,0,0,1-1.7-4.2h-4.28a8.46,8.46,0,0,0,3,6.74,11.25,11.25,0,0,0,7.63,2.54,11.13,11.13,0,0,0,7.67-2.64,9.12,9.12,0,0,0,3-7.15,8.22,8.22,0,0,0-1.51-5,8.41,8.41,0,0,0-4.28-2.87,8.68,8.68,0,0,0,3.86-3.06,7.39,7.39,0,0,0,1.41-4.24,9.14,9.14,0,0,0-2.68-7,12,12,0,0,0-14.84.14,8.55,8.55,0,0,0-2.92,6.59h4.29A5.4,5.4,0,0,1,232,968a6.11,6.11,0,0,1,4.43-1.6c3.9,0,5.88,2,5.88,5.89a5.41,5.41,0,0,1-1.74,4.19,7.2,7.2,0,0,1-4.76,1.6h-3.2ZM274,977.11c-.05-4.85-.94-8.38-2.64-10.69s-4.33-3.49-8-3.49-6.31,1.18-8,3.58-2.55,6.08-2.55,11v5.7c.05,4.71,1,8.24,2.69,10.64s4.33,3.53,7.91,3.53,6.31-1.22,8-3.62,2.54-6.13,2.54-11.12Zm-4.24,6.64c0,3.49-.61,6.08-1.6,7.68a5.71,5.71,0,0,1-9.47-.14c-1-1.75-1.6-4.38-1.6-8v-6.83c.05-3.39.57-5.93,1.56-7.58a5.12,5.12,0,0,1,4.75-2.45,5.21,5.21,0,0,1,4.81,2.49c1,1.65,1.55,4.24,1.55,7.87Z"></path><path class="cls-1" d="M230.39,255.33V362.59M292.47,788H168.33V362.59H292.47ZM168.32,373H292.47M170.22,781.87H292m-121.77-3.69,1.33-3m119.08,0,1.36,3"></path><path class="cls-4" d="M230.39,255.33V362.59M292.47,788H168.33V362.59H292.47ZM168.32,373H292.47M170.22,781.87H292m-121.77-3.69,1.33-3m119.08,0,1.36,3"></path><line class="cls-5" x1="174.17" y1="771.12" x2="210.34" y2="683.44"></line><path class="cls-4" d="M209.73,681.14l3.75-7.35L222.1,676m6.83.52,2.48,2.46,3.84-4.18m-1.47,1.42,8.54-2.41,3.88,7.27"></path><line class="cls-6" x1="251.56" y1="686.36" x2="289.37" y2="773.99"></line><path class="cls-4" d="M235.14,675.65v2.4M225,676.85v-2.4m0-1.48v-2.4h2.12m2.54-3.69h6.27m.24.25h2.33v2.28M225,663.29v-3.85h2.33m2.33-3.59h6.27m1.1,3.6h1.47v5.49M234,792.78v74.7"></path><polygon class="cls-1" points="234.72 870.3 240.42 870.3 234.72 889.99 232.31 889.99 226.6 870.3 232.31 870.3 234.72 870.3"></polygon><polygon class="cls-7" points="234.72 870.3 240.42 870.3 234.72 889.99 232.31 889.99 226.6 870.3 232.31 870.3 234.72 870.3 234.72 870.3"></polygon><path class="cls-4" d="M90.88,854.67c3.55-11.88,13.3-24.06,56.42-26.43s50.21-36.83,50.21-36.83M90.88,854.67H95v7.06a5.76,5.76,0,0,0,2.87,5l3.34,1.92a4.12,4.12,0,0,1,2.06,3.57,3,3,0,0,1-3,3H80a3,3,0,0,1-2.95-3,4.12,4.12,0,0,1,2.06-3.57l3.34-1.92a5.74,5.74,0,0,0,2.87-5v-7.06h5.6Z"></path><path class="cls-8" d="M84.43,880.8v6.41M93,880.8v6.41"></path><path class="cls-4" d="M232,252.51h-3.18V246H232Zm.09-3.25H228.7"></path></svg> 