<?xml version="1.0" encoding="UTF-8"?> <svg xmlns="http://www.w3.org/2000/svg" id="Livello_1" data-name="Livello 1" viewBox="0 0 1166.67 1000"><defs><style>.cls-1{fill:#fff;}.cls-2{fill:#231f20;}.cls-3,.cls-4{fill:none;stroke:#000;stroke-width:0.25px;}.cls-4{stroke-miterlimit:10;}</style></defs><title>sosp. low cylinder 60</title><rect class="cls-1" width="1166.67" height="998.95"></rect><path class="cls-2" d="M349.09,25.16a38.36,38.36,0,0,0-1.49-11.42A20.43,20.43,0,0,0,343.54,6a15.19,15.19,0,0,0-6.29-4.47A21.19,21.19,0,0,0,329.14,0,21.48,21.48,0,0,0,321,1.49,15,15,0,0,0,314.82,6a20.43,20.43,0,0,0-4.06,7.78,38.36,38.36,0,0,0-1.49,11.42V35.34a38.23,38.23,0,0,0,1.49,11.35,22.16,22.16,0,0,0,4.06,7.86A15.19,15.19,0,0,0,321.11,59a21.48,21.48,0,0,0,8.11,1.49A21.19,21.19,0,0,0,337.33,59a15.13,15.13,0,0,0,6.29-4.47,22,22,0,0,0,4.06-7.86,41.27,41.27,0,0,0,1.41-11.35ZM337.42,36.92a30.46,30.46,0,0,1-.58,6.62,12.72,12.72,0,0,1-1.58,4.39,5.93,5.93,0,0,1-2.56,2.4,8.55,8.55,0,0,1-7,0,5.93,5.93,0,0,1-2.56-2.4,12.87,12.87,0,0,1-1.66-4.39,37.39,37.39,0,0,1-.49-6.62V23.43a36.35,36.35,0,0,1,.49-6.54,12.24,12.24,0,0,1,1.58-4.31,7.09,7.09,0,0,1,2.56-2.4,8.12,8.12,0,0,1,3.48-.66,7.61,7.61,0,0,1,3.47.66,6.67,6.67,0,0,1,2.65,2.4,12.24,12.24,0,0,1,1.58,4.31,29.62,29.62,0,0,1,.58,6.54ZM387,.25a30.75,30.75,0,0,0-12.66,2.4,26.67,26.67,0,0,0-9.44,6.62A30.57,30.57,0,0,0,359,19.53a40.57,40.57,0,0,0-2,13v4.55a28.85,28.85,0,0,0,1.49,9.52A22,22,0,0,0,362.61,54a19,19,0,0,0,6.54,4.8,20.39,20.39,0,0,0,8.53,1.74,21.31,21.31,0,0,0,8.19-1.57,19,19,0,0,0,6.3-4.31,18.6,18.6,0,0,0,4-6.37,23,23,0,0,0,1.41-7.95,28.93,28.93,0,0,0-1.08-7.7,19.19,19.19,0,0,0-3.15-6.37,15.33,15.33,0,0,0-5.21-4.3,16,16,0,0,0-7.37-1.66A17.4,17.4,0,0,0,374,21.6a16.14,16.14,0,0,0-5.13,3.56,19.18,19.18,0,0,1,2-6.37A14.43,14.43,0,0,1,374.7,14a18.28,18.28,0,0,1,5.79-3.06,22.7,22.7,0,0,1,7.45-1.08h.67V.25Zm-6.12,30.21a9.16,9.16,0,0,1,2.73,2.24,11.19,11.19,0,0,1,1.74,3.39,14.34,14.34,0,0,1,.57,4.3,14.41,14.41,0,0,1-.57,4.31A10.74,10.74,0,0,1,383.56,48a6.9,6.9,0,0,1-2.65,2.23,6.77,6.77,0,0,1-3.48.83,8.7,8.7,0,0,1-3.56-.74A8.43,8.43,0,0,1,371.06,48a12.74,12.74,0,0,1-1.74-3.89,21.6,21.6,0,0,1-.66-5.46V35.1a9.56,9.56,0,0,1,3.23-3.81,9,9,0,0,1,2.4-1.16,9.79,9.79,0,0,1,6.54.33Zm63.11-5.3a38.36,38.36,0,0,0-1.49-11.42A20.43,20.43,0,0,0,438.39,6a15.19,15.19,0,0,0-6.29-4.47A21.19,21.19,0,0,0,424,0a21.48,21.48,0,0,0-8.11,1.49A14.89,14.89,0,0,0,409.67,6a20.43,20.43,0,0,0-4.06,7.78,38.36,38.36,0,0,0-1.49,11.42V35.34a38.23,38.23,0,0,0,1.49,11.35,22,22,0,0,0,4.06,7.86A15.19,15.19,0,0,0,416,59a21.48,21.48,0,0,0,8.11,1.49A21.19,21.19,0,0,0,432.18,59a15.19,15.19,0,0,0,6.29-4.47,22,22,0,0,0,4.06-7.86,41.27,41.27,0,0,0,1.41-11.35ZM432.26,36.92a30.53,30.53,0,0,1-.57,6.62,13.14,13.14,0,0,1-1.58,4.39,5.93,5.93,0,0,1-2.56,2.4,8.55,8.55,0,0,1-7,0,5.93,5.93,0,0,1-2.56-2.4,12.87,12.87,0,0,1-1.66-4.39,37.39,37.39,0,0,1-.49-6.62V23.43a36.35,36.35,0,0,1,.49-6.54,12.44,12.44,0,0,1,1.57-4.31,7.2,7.2,0,0,1,2.57-2.4A8.12,8.12,0,0,1,424,9.52a7.61,7.61,0,0,1,3.47.66,6.67,6.67,0,0,1,2.65,2.4,12.64,12.64,0,0,1,1.58,4.31,29.68,29.68,0,0,1,.57,6.54ZM486.35.83H474.52L450,39.57l.5,7.36h24.17V59.68h11.67V46.93H493V37.5h-6.62Zm-12.5,17.3.83-1.41V37.5H461.6ZM522.48,29.8H499.71v9.35h22.77ZM571.7,50.24H546.37l10.34-10.92c2-2.07,3.81-4,5.38-5.88a39.84,39.84,0,0,0,4.14-5.54,27.22,27.22,0,0,0,2.57-5.47,16.61,16.61,0,0,0,1-5.71,19.32,19.32,0,0,0-1.24-7,14.12,14.12,0,0,0-3.72-5.21,16.64,16.64,0,0,0-6-3.31A27.63,27.63,0,0,0,550.59,0a21.86,21.86,0,0,0-8.53,1.57,19,19,0,0,0-6.37,4.14,18.2,18.2,0,0,0-4.14,6.13,21,21,0,0,0-1.41,7.53H541.9a11.6,11.6,0,0,1,.58-4,9.31,9.31,0,0,1,1.57-3.15,7.54,7.54,0,0,1,2.73-2.07,8.12,8.12,0,0,1,3.64-.74,7.17,7.17,0,0,1,5.63,2.23,9,9,0,0,1,2,6.21,7.47,7.47,0,0,1-.42,2.65,14,14,0,0,1-1.24,3,24.21,24.21,0,0,1-2.4,3.56,47.89,47.89,0,0,1-3.64,4.3l-19,20.28v8h40.4Zm46.72-25.08a38.36,38.36,0,0,0-1.49-11.42A20.43,20.43,0,0,0,612.87,6a15.19,15.19,0,0,0-6.29-4.47A21.19,21.19,0,0,0,598.47,0a21.48,21.48,0,0,0-8.11,1.49A15,15,0,0,0,584.15,6a20.43,20.43,0,0,0-4.06,7.78,38.36,38.36,0,0,0-1.49,11.42V35.34a38.23,38.23,0,0,0,1.49,11.35,22.16,22.16,0,0,0,4.06,7.86A15.19,15.19,0,0,0,590.44,59a21.48,21.48,0,0,0,8.11,1.49A21.19,21.19,0,0,0,606.66,59,15.13,15.13,0,0,0,613,54.55,22,22,0,0,0,617,46.69a41.27,41.27,0,0,0,1.41-11.35ZM606.75,36.92a30.46,30.46,0,0,1-.58,6.62,12.72,12.72,0,0,1-1.58,4.39,5.93,5.93,0,0,1-2.56,2.4,8.55,8.55,0,0,1-7,0,5.93,5.93,0,0,1-2.56-2.4,12.87,12.87,0,0,1-1.66-4.39,37.39,37.39,0,0,1-.49-6.62V23.43a36.35,36.35,0,0,1,.49-6.54,12.24,12.24,0,0,1,1.58-4.31,7.09,7.09,0,0,1,2.56-2.4,8.12,8.12,0,0,1,3.48-.66,7.61,7.61,0,0,1,3.47.66,6.67,6.67,0,0,1,2.65,2.4,12.24,12.24,0,0,1,1.58,4.31,29.62,29.62,0,0,1,.58,6.54Z"></path><path class="cls-2" d="M261.48,107.86h-4.89v62.08h4.89Zm10.41,40.89a27.61,27.61,0,0,0,1.41,8.86,20.57,20.57,0,0,0,4,6.95,17.62,17.62,0,0,0,6.12,4.55,20.25,20.25,0,0,0,16.06,0,18.84,18.84,0,0,0,6.21-4.55,21.82,21.82,0,0,0,3.89-6.95,27.61,27.61,0,0,0,1.41-8.86v-1.32a27.12,27.12,0,0,0-1.41-8.78,21.28,21.28,0,0,0-3.89-7,18.87,18.87,0,0,0-6.21-4.56,19.81,19.81,0,0,0-8.11-1.65,19.32,19.32,0,0,0-7.95,1.65,18.73,18.73,0,0,0-6.2,4.56,21.28,21.28,0,0,0-3.89,7,27.12,27.12,0,0,0-1.41,8.78Zm4.88-1.32a23.24,23.24,0,0,1,.91-6.79,18.36,18.36,0,0,1,2.82-5.71,13,13,0,0,1,4.63-3.89,12.68,12.68,0,0,1,6.21-1.49,13.31,13.31,0,0,1,6.37,1.49,13,13,0,0,1,4.64,3.89,18.34,18.34,0,0,1,2.81,5.71,23,23,0,0,1,1,6.79v1.32a23.11,23.11,0,0,1-1,6.87,18.34,18.34,0,0,1-2.81,5.71,15,15,0,0,1-4.64,3.89,12.75,12.75,0,0,1-6.29,1.41,13,13,0,0,1-6.29-1.41,15.07,15.07,0,0,1-4.63-3.89,18.36,18.36,0,0,1-2.82-5.71,23.42,23.42,0,0,1-.91-6.87Zm45.32-21.2h-5l12.67,43.71h4.13l11-34.6.58-2.48.5,2.4,11.26,34.68h4.05l12.75-43.71h-5l-9,33.53-.91,4.22L358,159.43l-10.35-33.2h-4.13L333,159.68l-1,4-.66-3.81Zm91,39a13.87,13.87,0,0,1-4.31-3.89,17.56,17.56,0,0,1-2.31-5.71,29,29,0,0,1-.75-6.7v-1.66a29.62,29.62,0,0,1,.75-6.71,15.46,15.46,0,0,1,2.4-5.62,12.11,12.11,0,0,1,4.22-4,13.68,13.68,0,0,1,6.37-1.4,14.23,14.23,0,0,1,4.64.74,12.81,12.81,0,0,1,3.81,2.32,11.4,11.4,0,0,1,2.64,3.56,12.23,12.23,0,0,1,1.08,4.8h4.72a19.56,19.56,0,0,0-1.49-6.46,15.37,15.37,0,0,0-3.64-4.88,15.2,15.2,0,0,0-5.22-3.15,20.43,20.43,0,0,0-14.57.58,17.12,17.12,0,0,0-5.87,4.64,20.87,20.87,0,0,0-3.56,7,31.18,31.18,0,0,0-1.16,8.61v1.66a31.53,31.53,0,0,0,1.16,8.6,21,21,0,0,0,3.56,7A16.9,16.9,0,0,0,411.4,169a17.65,17.65,0,0,0,8,1.74,20.28,20.28,0,0,0,6.38-1.08,17.85,17.85,0,0,0,5.21-3,14.1,14.1,0,0,0,3.73-4.55,14.74,14.74,0,0,0,1.57-5.71H431.6a10.39,10.39,0,0,1-1.16,4.38,12.53,12.53,0,0,1-2.73,3.23A12.74,12.74,0,0,1,423.9,166a13.41,13.41,0,0,1-4.47.66,12.66,12.66,0,0,1-6.37-1.41Zm33.15-39h-5.3l16.47,43.38-2.15,5.71a16.94,16.94,0,0,1-1.49,3.48,10.19,10.19,0,0,1-2,2.48,7.32,7.32,0,0,1-2.57,1.49,11,11,0,0,1-3.48.5,6.25,6.25,0,0,1-1.16-.09c-.57-.08-1-.08-1.32-.16v4a2.54,2.54,0,0,1,.75.17c.33.08.66.08,1,.17s.74.08,1.07.16H447a11,11,0,0,0,5.14-1.07,14.14,14.14,0,0,0,3.47-2.74,15.46,15.46,0,0,0,2.24-3.47,34.69,34.69,0,0,0,1.41-3.4l18.54-50.66h-5.22L459.79,163Zm44.41-18.37h-4.88v62.08h4.88Zm18.52,18.37h-4.88v43.71h4.88Zm-4.88-10.34a3.51,3.51,0,0,0,2.48.91,3.3,3.3,0,0,0,2.4-.91,3,3,0,0,0,.91-2.32,2.92,2.92,0,0,0-.91-2.32,3.06,3.06,0,0,0-2.4-1,3.25,3.25,0,0,0-2.48,1,3.2,3.2,0,0,0-.83,2.32,3.33,3.33,0,0,0,.83,2.32Zm17.94,10.34v43.71H527V140a17.6,17.6,0,0,1,1.9-3.81,13.52,13.52,0,0,1,2.73-3.4,14.2,14.2,0,0,1,3.73-2.31,12.23,12.23,0,0,1,4.71-.83,14.09,14.09,0,0,1,4.31.58,7.14,7.14,0,0,1,3.23,1.9,9.86,9.86,0,0,1,2.07,3.64,19.05,19.05,0,0,1,.74,5.72v28.47h4.8V141.47a24.12,24.12,0,0,0-1-7.37,13.52,13.52,0,0,0-2.73-5,10.31,10.31,0,0,0-4.39-2.81,16.29,16.29,0,0,0-5.88-.91,15.57,15.57,0,0,0-4.47.58,17.82,17.82,0,0,0-3.89,1.65,17.5,17.5,0,0,0-3.31,2.65,17.24,17.24,0,0,0-2.56,3.39l-.17-7.45Zm43.5,22.27a30.85,30.85,0,0,0,1.16,9,21.94,21.94,0,0,0,3.31,7,16.33,16.33,0,0,0,5.3,4.55,15.16,15.16,0,0,0,7,1.66,17.47,17.47,0,0,0,8.11-1.74,16.49,16.49,0,0,0,5.55-4.88l.17,5.79h4.55V107.86h-4.8v24.5a16.39,16.39,0,0,0-5.55-5.13,16.09,16.09,0,0,0-7.94-1.82,14.9,14.9,0,0,0-7,1.57,15.69,15.69,0,0,0-5.38,4.47,21.94,21.94,0,0,0-3.31,7,31.6,31.6,0,0,0-1.16,9.18Zm4.88-.83a32.26,32.26,0,0,1,.75-7.12,17.75,17.75,0,0,1,2.32-5.71,11.15,11.15,0,0,1,4.05-3.8,10.69,10.69,0,0,1,5.8-1.41,15.76,15.76,0,0,1,4.63.66,13.3,13.3,0,0,1,3.56,1.9,11.39,11.39,0,0,1,2.57,2.74,18.41,18.41,0,0,1,1.82,3.22v20.53a18.26,18.26,0,0,1-2,3.15,10.57,10.57,0,0,1-2.65,2.48,12.65,12.65,0,0,1-3.56,1.66,15.83,15.83,0,0,1-4.47.58,11.23,11.23,0,0,1-5.71-1.41,11.1,11.1,0,0,1-4.05-3.81,17.65,17.65,0,0,1-2.32-5.71,31.62,31.62,0,0,1-.75-7.12Zm65.27,22.44a16.84,16.84,0,0,0,7.61-4.06A22,22,0,0,0,646,163L643,160.75a14.39,14.39,0,0,1-5.38,4.47,15.17,15.17,0,0,1-6.87,1.41,13.68,13.68,0,0,1-6.13-1.33,14.81,14.81,0,0,1-4.72-3.72,16.68,16.68,0,0,1-3.06-5.46,20.39,20.39,0,0,1-1.08-6.79v-.91h31.21v-3a27.48,27.48,0,0,0-1.16-8,17.88,17.88,0,0,0-3.31-6.37A15.89,15.89,0,0,0,637,126.9a17.17,17.17,0,0,0-7.37-1.49,16.22,16.22,0,0,0-7.12,1.57,19.65,19.65,0,0,0-6,4.47,20.75,20.75,0,0,0-4.14,7,26.84,26.84,0,0,0-1.49,9.19v1.74a24.21,24.21,0,0,0,1.49,8.61,19.3,19.3,0,0,0,4.06,6.79,17.34,17.34,0,0,0,6.21,4.38,18.75,18.75,0,0,0,7.86,1.66,20.76,20.76,0,0,0,5.3-.66ZM635,130.7a13.43,13.43,0,0,1,3.89,3.15,14.94,14.94,0,0,1,2.32,4.55,19.19,19.19,0,0,1,.91,5.38v.5H615.9a22.47,22.47,0,0,1,1.57-6,15.34,15.34,0,0,1,2.9-4.64,14.47,14.47,0,0,1,4.14-3.06,13.21,13.21,0,0,1,5.13-1A12.31,12.31,0,0,1,635,130.7Zm41.68-4.8a10.39,10.39,0,0,0-1.41-.33,14,14,0,0,0-1.82-.16,12.54,12.54,0,0,0-7.45,2.07,14.92,14.92,0,0,0-4.88,5.71l-.09-7h-4.72v43.71h4.81V139.89a21.13,21.13,0,0,1,1.65-4,11.2,11.2,0,0,1,2.57-3.06,10.37,10.37,0,0,1,3.47-2.07,12.62,12.62,0,0,1,4.47-.75,20.27,20.27,0,0,1,3.23.25Z"></path><path d="M1062.19,691.19v23.6l-13.69-12.56c-6.34-6-11.9-8.86-16.53-8.86a11.79,11.79,0,0,0-9.12,3.77c-2.31,2.58-3.44,6-3.44,10.38,0,4.69,1.32,8.39,4,11.17a13.59,13.59,0,0,0,10.44,4.23v-6a9.81,9.81,0,0,1-7.07-2.45,9.37,9.37,0,0,1-2.52-6.94,7.86,7.86,0,0,1,2.39-5.95,8.38,8.38,0,0,1,6-2.18,11.39,11.39,0,0,1,5.29,1.32,36.76,36.76,0,0,1,6.68,5L1062.79,722h4.29V691.19Zm-22.88-35.86c-6.81.07-11.77,1.32-15,3.7s-4.89,6.08-4.89,11.18,1.66,8.86,5,11.24,8.53,3.57,15.4,3.57h8c6.62-.07,11.57-1.33,15-3.77s5-6.08,5-11.11-1.72-8.86-5.1-11.24-8.59-3.57-15.6-3.57Zm9.33,5.95c4.89.07,8.53.86,10.77,2.25a8,8,0,0,1-.19,13.29c-2.45,1.45-6.15,2.25-11.24,2.25h-9.59c-4.76-.07-8.33-.8-10.65-2.19s-3.44-3.63-3.44-6.67a7.31,7.31,0,0,1,3.51-6.75c2.31-1.45,6-2.18,11-2.18Z"></path><path class="cls-3" d="M127.16,890H767.5M923.36,571.45V806.06"></path><path d="M416.53,993.45l-3.24,6.55h4l2.38-4.83a16.62,16.62,0,0,0,6.15,1.13,15.78,15.78,0,0,0,8.26-2.18,15.5,15.5,0,0,0,5.62-6.35,20.86,20.86,0,0,0,2-9.19c0-6.88-2.12-12-6.29-15.34l3.31-6.61h-4l-2.32,4.82a15.89,15.89,0,0,0-6.61-1.39,15.17,15.17,0,0,0-8.26,2.25,15,15,0,0,0-5.62,6.35,20.51,20.51,0,0,0-2,9.19c0,7.21,2.25,12.36,6.61,15.6Zm2.12-25a8.61,8.61,0,0,1,7.14-3.5,8.88,8.88,0,0,1,4.3,1l-11,22.42c-2.12-2.45-3.11-5.69-3.11-9.85,0-4.37.86-7.74,2.71-10.12Zm17.06,9.92c0,4-.86,7.14-2.65,9.52a8.8,8.8,0,0,1-7.2,3.5,9.31,9.31,0,0,1-3.9-.79l11-22.21c1.85,2.38,2.78,5.55,2.78,9.45Zm35-29.75c-7.28.13-12.77,2.44-16.47,7s-5.55,11.18-5.55,19.84v2.31c0,5.43,1.45,9.86,4.23,13.36a13.35,13.35,0,0,0,10.91,5.16c4.5,0,8-1.46,10.64-4.37s4-6.74,4-11.63a16.73,16.73,0,0,0-3.7-11.18,12.28,12.28,0,0,0-9.79-4.3c-4.29,0-7.67,1.39-10.11,4.24.39-4.83,2-8.53,4.76-11.24s6.48-4,11.11-4.1h1.12v-5.09Zm-.53,24.26a12,12,0,0,1,2.31,7.74c0,3.24-.73,5.82-2.31,7.73a7.54,7.54,0,0,1-6.35,3,7.84,7.84,0,0,1-6.48-3.51c-1.79-2.38-2.64-5.48-2.64-9.32v-2.18a9.24,9.24,0,0,1,3.57-4.56,9.52,9.52,0,0,1,5.68-1.85,7.57,7.57,0,0,1,6.22,3Zm44.85-5c-.07-6.81-1.33-11.77-3.71-15s-6.08-4.9-11.17-4.9-8.86,1.66-11.24,5-3.57,8.53-3.57,15.41v8c.06,6.61,1.32,11.57,3.77,14.94s6.08,5,11.11,5,8.86-1.72,11.24-5.09,3.57-8.6,3.57-15.61Zm-5.95,9.32c-.07,4.89-.86,8.53-2.25,10.78a8,8,0,0,1-13.29-.2c-1.46-2.45-2.25-6.15-2.25-11.24v-9.59c.07-4.76.79-8.33,2.18-10.64s3.64-3.44,6.68-3.44a7.28,7.28,0,0,1,6.74,3.5c1.46,2.32,2.19,5.95,2.19,11Z"></path><path class="cls-1" d="M511.16,353.75c0,53.84-34.89,97.49-77.92,97.49s-77.92-43.65-77.92-97.49Zm0,0c0,53.84-34.89,97.49-77.92,97.49s-77.92-43.65-77.92-97.49Zm-77.92,97.49v139.6m303.33,198.3H129.92V590.84H736.57ZM130.28,610.78H736.94m-606.66,164H736.94"></path><path class="cls-4" d="M511.16,353.75c0,53.84-34.89,97.49-77.92,97.49s-77.92-43.65-77.92-97.49Zm0,0c0,53.84-34.89,97.49-77.92,97.49s-77.92-43.65-77.92-97.49Zm-77.92,97.49v139.6m303.33,198.3H129.92V590.84H736.57v198.3ZM130.28,610.78H736.94m-606.66,164H736.94"></path></svg> 