<?xml version="1.0" encoding="UTF-8"?> <svg xmlns="http://www.w3.org/2000/svg" id="Livello_1" data-name="Livello 1" viewBox="0 0 998.95 998.95"><defs><style>.cls-1{fill:#fff;}.cls-2{fill:#231f20;}.cls-3,.cls-4{fill:none;stroke:#000;stroke-width:0.25px;}.cls-4{stroke-miterlimit:10;}</style></defs><title>sosp. 50 cilindro</title><rect class="cls-1" width="998.95" height="998.95"></rect><path class="cls-2" d="M233.73,38.87v7.52h.7a26,26,0,0,0,10.13-1.78,19.13,19.13,0,0,0,7.2-5,20.68,20.68,0,0,0,4.33-7.77,33.76,33.76,0,0,0,1.4-10.13V18.48A23.42,23.42,0,0,0,256.41,11a17,17,0,0,0-3.06-5.86,13.92,13.92,0,0,0-4.84-3.76A14.78,14.78,0,0,0,242.2,0a15.41,15.41,0,0,0-6.31,1.27,14.23,14.23,0,0,0-4.78,3.51,14.53,14.53,0,0,0-3.06,5A18.44,18.44,0,0,0,227,16.06a20.58,20.58,0,0,0,.83,6.05,14.12,14.12,0,0,0,2.55,4.78,13,13,0,0,0,4.14,3.25,13.49,13.49,0,0,0,5.74,1.15,10.58,10.58,0,0,0,4.46-1,12,12,0,0,0,3.69-2.48,13.15,13.15,0,0,1-1.15,4.71A8.87,8.87,0,0,1,244.56,36a12.2,12.2,0,0,1-4.27,2.17,22.75,22.75,0,0,1-5.93.7Zm5.79-15.1a6.1,6.1,0,0,1-2-1.85,7.3,7.3,0,0,1-1.21-2.68,13.25,13.25,0,0,1-.38-3.31,13,13,0,0,1,.38-3.19,8,8,0,0,1,1.21-2.8A5.54,5.54,0,0,1,239.46,8a4.74,4.74,0,0,1,2.68-.77,6,6,0,0,1,2.55.58,7.5,7.5,0,0,1,2,1.78,9.57,9.57,0,0,1,1.34,3.06,16.31,16.31,0,0,1,.45,4.21v3.69a7.35,7.35,0,0,1-2.36,2.74,6.54,6.54,0,0,1-3.76,1.09,6,6,0,0,1-2.87-.64ZM295,38.68h-19.5l8-8.41c1.53-1.6,2.93-3.06,4.14-4.53a30.44,30.44,0,0,0,3.18-4.27,21,21,0,0,0,2-4.2,12.76,12.76,0,0,0,.76-4.4,14.78,14.78,0,0,0-.95-5.41,10.65,10.65,0,0,0-2.87-4A12.9,12.9,0,0,0,285.11.89,21.44,21.44,0,0,0,278.74,0a16.67,16.67,0,0,0-6.56,1.21,14.63,14.63,0,0,0-4.91,3.19,14.08,14.08,0,0,0-3.19,4.71,16.18,16.18,0,0,0-1.08,5.8h9.05a9,9,0,0,1,.45-3.06,7.14,7.14,0,0,1,1.21-2.42,5.69,5.69,0,0,1,2.1-1.59,6.3,6.3,0,0,1,2.8-.58A5.56,5.56,0,0,1,283,9a7,7,0,0,1,1.53,4.78,6,6,0,0,1-.32,2,10.89,10.89,0,0,1-1,2.3,18.11,18.11,0,0,1-1.85,2.74,35.66,35.66,0,0,1-2.8,3.31L263.89,39.76v6.18H295Zm36.54,0H312l8-8.41c1.53-1.6,2.93-3.06,4.14-4.53a30.44,30.44,0,0,0,3.18-4.27,21,21,0,0,0,2-4.2,12.76,12.76,0,0,0,.76-4.4,14.78,14.78,0,0,0-.95-5.41,10.65,10.65,0,0,0-2.87-4A12.9,12.9,0,0,0,321.65.89,21.44,21.44,0,0,0,315.28,0a16.67,16.67,0,0,0-6.56,1.21,14.63,14.63,0,0,0-4.91,3.19,14.08,14.08,0,0,0-3.19,4.71,16.18,16.18,0,0,0-1.08,5.8h9a9,9,0,0,1,.45-3.06,7.14,7.14,0,0,1,1.21-2.42,5.69,5.69,0,0,1,2.1-1.59,6.3,6.3,0,0,1,2.8-.58A5.56,5.56,0,0,1,319.49,9,7,7,0,0,1,321,13.76a6,6,0,0,1-.32,2,10.89,10.89,0,0,1-1,2.3,18.11,18.11,0,0,1-1.85,2.74,35.66,35.66,0,0,1-2.8,3.31L300.43,39.76v6.18h31.1Zm11.82.19v7.52h.7a26,26,0,0,0,10.13-1.78,19.13,19.13,0,0,0,7.2-5,20.68,20.68,0,0,0,4.33-7.77,33.76,33.76,0,0,0,1.4-10.13V18.48A23.42,23.42,0,0,0,366,11,17,17,0,0,0,363,5.1a13.92,13.92,0,0,0-4.84-3.76A14.75,14.75,0,0,0,351.82,0a15.41,15.41,0,0,0-6.31,1.27,14.23,14.23,0,0,0-4.78,3.51,14.69,14.69,0,0,0-3.06,5,18.44,18.44,0,0,0-1.08,6.25,20.58,20.58,0,0,0,.83,6.05A14.3,14.3,0,0,0,340,26.89a13,13,0,0,0,4.14,3.25,13.49,13.49,0,0,0,5.74,1.15,10.58,10.58,0,0,0,4.46-1A12,12,0,0,0,358,27.85a13.36,13.36,0,0,1-1.14,4.71A9,9,0,0,1,354.18,36a12.2,12.2,0,0,1-4.27,2.17,22.75,22.75,0,0,1-5.93.7Zm5.79-15.1a6.1,6.1,0,0,1-2-1.85A7.3,7.3,0,0,1,346,19.24a13.25,13.25,0,0,1-.38-3.31,13,13,0,0,1,.38-3.19,8,8,0,0,1,1.21-2.8A5.54,5.54,0,0,1,349.08,8a4.74,4.74,0,0,1,2.68-.77,6,6,0,0,1,2.55.58,7.69,7.69,0,0,1,2,1.78,9.56,9.56,0,0,1,1.33,3.06,16.31,16.31,0,0,1,.45,4.21v3.69a7.35,7.35,0,0,1-2.36,2.74A6.54,6.54,0,0,1,352,24.41a6,6,0,0,1-2.87-.64Zm42.28-.83H373.9v7.2h17.52Zm37.89,15.74h-19.5l8-8.41c1.53-1.6,2.93-3.06,4.14-4.53a30.44,30.44,0,0,0,3.18-4.27,21,21,0,0,0,2-4.2,12.76,12.76,0,0,0,.76-4.4,14.78,14.78,0,0,0-.95-5.41,10.65,10.65,0,0,0-2.87-4A12.9,12.9,0,0,0,419.43.89,21.49,21.49,0,0,0,413.06,0a16.67,16.67,0,0,0-6.56,1.21,14.63,14.63,0,0,0-4.91,3.19,14.08,14.08,0,0,0-3.19,4.71,16.18,16.18,0,0,0-1.08,5.8h9.05a9,9,0,0,1,.45-3.06A7.14,7.14,0,0,1,408,9.43a5.69,5.69,0,0,1,2.1-1.59,6.3,6.3,0,0,1,2.8-.58A5.56,5.56,0,0,1,417.27,9a7,7,0,0,1,1.53,4.78,6,6,0,0,1-.32,2,10.89,10.89,0,0,1-1,2.3,18.89,18.89,0,0,1-1.85,2.74,35.66,35.66,0,0,1-2.8,3.31L398.21,39.76v6.18h31.1Zm14.62-12.36h4.78a11.75,11.75,0,0,1,3.12.38,9.21,9.21,0,0,1,2.36,1.21,6.09,6.09,0,0,1,1.46,2.1,9.16,9.16,0,0,1,.51,3.13,6.65,6.65,0,0,1-.51,2.54,4.34,4.34,0,0,1-1.33,1.92,5,5,0,0,1-2.17,1.27,7.94,7.94,0,0,1-2.87.45,7,7,0,0,1-2.61-.45,5.58,5.58,0,0,1-2.1-1.21,5.4,5.4,0,0,1-1.41-1.78,5.76,5.76,0,0,1-.51-2.36h-9a11.87,11.87,0,0,0,1.34,5.8,12.1,12.1,0,0,0,3.5,4.07,15.35,15.35,0,0,0,4.91,2.43,21.34,21.34,0,0,0,5.67.76,22.75,22.75,0,0,0,6.37-.89,14.83,14.83,0,0,0,5.1-2.61,12.06,12.06,0,0,0,3.38-4.15,13.49,13.49,0,0,0,1.21-5.67,11.21,11.21,0,0,0-1.91-6.5,11.08,11.08,0,0,0-5.67-4.07,15.63,15.63,0,0,0,2.93-1.85,14.18,14.18,0,0,0,2.16-2.3A11.78,11.78,0,0,0,464,15.8a10.93,10.93,0,0,0,.45-2.86,13.05,13.05,0,0,0-1.15-5.61,11.34,11.34,0,0,0-3.12-4A14.57,14.57,0,0,0,455.34.83,24,24,0,0,0,449.09,0a19.19,19.19,0,0,0-5.8.89,15.89,15.89,0,0,0-4.71,2.49,12.5,12.5,0,0,0-3.19,3.88,11.37,11.37,0,0,0-1.15,5.1h9a4.65,4.65,0,0,1,.51-2.1A4.5,4.5,0,0,1,445,8.67a5.26,5.26,0,0,1,2-1,6.51,6.51,0,0,1,2.29-.39,7,7,0,0,1,2.74.45,4.93,4.93,0,0,1,1.91,1.21,4.48,4.48,0,0,1,1.15,1.85,6.51,6.51,0,0,1,.38,2.29,6.3,6.3,0,0,1-1.65,4.53,6.89,6.89,0,0,1-5.1,1.72h-4.78Z"></path><path class="cls-2" d="M250.46,127.19a10.7,10.7,0,0,1-3.32-3,13.74,13.74,0,0,1-1.78-4.4,22.6,22.6,0,0,1-.57-5.16v-1.28a23.05,23.05,0,0,1,.57-5.16,12.06,12.06,0,0,1,1.85-4.33,9.35,9.35,0,0,1,3.25-3.06,10.52,10.52,0,0,1,4.9-1.08,11,11,0,0,1,3.57.57,9.74,9.74,0,0,1,2.93,1.78,8.89,8.89,0,0,1,2,2.74,9.53,9.53,0,0,1,.83,3.7h3.63a15,15,0,0,0-1.14-5,11.78,11.78,0,0,0-2.81-3.76,11.58,11.58,0,0,0-4-2.42,15.63,15.63,0,0,0-11.22.45,13.33,13.33,0,0,0-4.52,3.56,16.46,16.46,0,0,0-2.74,5.36,24.25,24.25,0,0,0-.89,6.62v1.28a24.65,24.65,0,0,0,.89,6.63,16.51,16.51,0,0,0,2.74,5.35,13,13,0,0,0,4.52,3.5,13.65,13.65,0,0,0,6.18,1.34,15.51,15.51,0,0,0,4.91-.83,13.86,13.86,0,0,0,4-2.29,10.87,10.87,0,0,0,2.86-3.51,11.12,11.12,0,0,0,1.21-4.39h-3.63a7.92,7.92,0,0,1-.89,3.37,9.72,9.72,0,0,1-2.1,2.49,9.58,9.58,0,0,1-2.93,1.46,10.09,10.09,0,0,1-3.45.51,9.73,9.73,0,0,1-4.9-1.08Zm25.52-30H271.9l12.68,33.39-1.66,4.4a12.69,12.69,0,0,1-1.14,2.67,7.83,7.83,0,0,1-1.53,1.91,5.52,5.52,0,0,1-2,1.15,8.27,8.27,0,0,1-2.67.38,5.67,5.67,0,0,1-.9-.06c-.44-.06-.76-.06-1-.13V144a2,2,0,0,1,.58.13c.25.07.51.07.76.13s.58.06.83.13h.7a8.44,8.44,0,0,0,3.95-.83,11.33,11.33,0,0,0,2.68-2.1,12.33,12.33,0,0,0,1.72-2.68,24.45,24.45,0,0,0,1.08-2.61l14.28-39h-4l-9.81,28.29ZM310.17,83h-3.76v47.79h3.76Zm14.26,14.15h-3.76v33.64h3.76Zm-3.76-8a2.68,2.68,0,0,0,1.91.7,2.55,2.55,0,0,0,1.85-.7,2.34,2.34,0,0,0,.7-1.78,2.28,2.28,0,0,0-.7-1.79,2.37,2.37,0,0,0-1.85-.76A2.4,2.4,0,0,0,320,87.43a2.54,2.54,0,0,0,.64,1.78Zm13.81,8v33.64h3.7V107.76a14.38,14.38,0,0,1,1.46-2.94,10.94,10.94,0,0,1,2.11-2.61,10.63,10.63,0,0,1,2.86-1.78,9.44,9.44,0,0,1,3.64-.64,10.91,10.91,0,0,1,3.31.45A5.46,5.46,0,0,1,354,101.7a7.69,7.69,0,0,1,1.6,2.81,14.48,14.48,0,0,1,.57,4.39v21.92h3.7V108.9a18.46,18.46,0,0,0-.77-5.67,10.43,10.43,0,0,0-2.1-3.82,8,8,0,0,0-3.38-2.17,12.48,12.48,0,0,0-4.52-.7,12.06,12.06,0,0,0-3.44.45,11.93,11.93,0,0,0-5.55,3.31,13.75,13.75,0,0,0-2,2.61l-.13-5.73ZM368,114.32a23.78,23.78,0,0,0,.9,7,16.83,16.83,0,0,0,2.55,5.41,12.51,12.51,0,0,0,4.07,3.51,11.83,11.83,0,0,0,5.42,1.27,13.5,13.5,0,0,0,6.24-1.34,12.46,12.46,0,0,0,4.27-3.76l.13,4.46h3.51V83h-3.7v18.86a12.79,12.79,0,0,0-4.27-4,12.46,12.46,0,0,0-6.12-1.4,11.44,11.44,0,0,0-5.41,1.21,12,12,0,0,0-4.14,3.44,16.88,16.88,0,0,0-2.55,5.42,24.3,24.3,0,0,0-.9,7.07Zm3.76-.64a25.1,25.1,0,0,1,.58-5.48,13.82,13.82,0,0,1,1.78-4.39,8.68,8.68,0,0,1,3.12-2.94,8.31,8.31,0,0,1,4.46-1.08,12,12,0,0,1,3.57.51,9.74,9.74,0,0,1,2.74,1.47,8.5,8.5,0,0,1,2,2.1,13.9,13.9,0,0,1,1.4,2.48v15.81a14.22,14.22,0,0,1-1.53,2.42,8.22,8.22,0,0,1-2,1.91,9.68,9.68,0,0,1-2.74,1.27,12.06,12.06,0,0,1-3.44.45,8.68,8.68,0,0,1-7.52-4,13.88,13.88,0,0,1-1.78-4.4,24.7,24.7,0,0,1-.58-5.48ZM422,131a12.85,12.85,0,0,0,5.86-3.12,17.12,17.12,0,0,0,2-2.36l-2.35-1.72a11,11,0,0,1-4.15,3.44,11.6,11.6,0,0,1-5.28,1.08,10.68,10.68,0,0,1-4.72-1,11.49,11.49,0,0,1-3.63-2.87,12.88,12.88,0,0,1-2.36-4.21,15.82,15.82,0,0,1-.83-5.22v-.7h24V112a21.07,21.07,0,0,0-.9-6.18,13.82,13.82,0,0,0-2.55-4.91,12.18,12.18,0,0,0-4.2-3.18,13.2,13.2,0,0,0-5.67-1.15,12.49,12.49,0,0,0-5.48,1.21,15.12,15.12,0,0,0-4.59,3.44,16,16,0,0,0-3.19,5.36,20.68,20.68,0,0,0-1.14,7.07V115a18.63,18.63,0,0,0,1.14,6.62,14.86,14.86,0,0,0,3.13,5.23,13.44,13.44,0,0,0,4.77,3.38,14.67,14.67,0,0,0,6.06,1.27A15.8,15.8,0,0,0,422,131Zm-.64-30.33a10.07,10.07,0,0,1,3,2.42,11.2,11.2,0,0,1,1.79,3.51,14.84,14.84,0,0,1,.7,4.14v.38h-20.2a17.23,17.23,0,0,1,1.21-4.65,11.79,11.79,0,0,1,2.23-3.57,11.33,11.33,0,0,1,3.19-2.36,10.15,10.15,0,0,1,3.95-.76,9.48,9.48,0,0,1,4.14.89Zm32.08-3.7a6.79,6.79,0,0,0-1.08-.25,9.59,9.59,0,0,0-1.4-.13,9.69,9.69,0,0,0-5.74,1.59,11.66,11.66,0,0,0-3.76,4.4l-.06-5.35h-3.63v33.64h3.69V107.69a16.59,16.59,0,0,1,1.28-3.06,8.81,8.81,0,0,1,2-2.35,8.31,8.31,0,0,1,2.68-1.6,9.81,9.81,0,0,1,3.44-.57,15,15,0,0,1,2.49.19Z"></path><path d="M742.39,553.52v18.17L731.85,562c-4.89-4.58-9.16-6.82-12.72-6.82a9.11,9.11,0,0,0-7,2.9,11.52,11.52,0,0,0-2.65,8,11.74,11.74,0,0,0,3.11,8.6,10.47,10.47,0,0,0,8,3.26v-4.64a7.53,7.53,0,0,1-5.44-1.88,7.2,7.2,0,0,1-1.94-5.34,6.09,6.09,0,0,1,1.83-4.59,6.48,6.48,0,0,1,4.64-1.68,8.83,8.83,0,0,1,4.07,1,29.16,29.16,0,0,1,5.14,3.87l13.94,12.52h3.31V553.52ZM729,542.82l-1-1.22a7.64,7.64,0,0,1-1.32-4.74,6.63,6.63,0,0,1,2.19-5.24,8.41,8.41,0,0,1,5.85-2,9.12,9.12,0,0,1,6,1.83,6.18,6.18,0,0,1,2.19,5,6.82,6.82,0,0,1-1.58,4.73,7.3,7.3,0,0,1-4.68,2.19v4.38a10.75,10.75,0,0,0,7.38-3.46,11.45,11.45,0,0,0,2.64-7.84c0-3.62-1.07-6.42-3.2-8.45s-5.09-3-8.81-3-6.67,1-8.86,2.91a9.94,9.94,0,0,0-3.25,7.83,11.41,11.41,0,0,0,1.57,6.06l-9.87-1.07V526.12H710v18.53L728,546.48Z"></path><path class="cls-3" d="M131.27,728.64H562.84m72.67-285.39v216.8"></path><path d="M310,808.28l-2.5,5h3.11l1.83-3.72a12.81,12.81,0,0,0,4.73.87,12.11,12.11,0,0,0,6.36-1.68,11.85,11.85,0,0,0,4.33-4.89,16,16,0,0,0,1.53-7.08c0-5.29-1.63-9.26-4.84-11.8l2.55-5.09H324l-1.78,3.71a12.22,12.22,0,0,0-5.09-1.07,11.46,11.46,0,0,0-10.69,6.62,15.86,15.86,0,0,0-1.52,7.07c0,5.55,1.73,9.52,5.09,12ZM311.61,789a6.63,6.63,0,0,1,5.5-2.7,6.79,6.79,0,0,1,3.31.81l-8.5,17.26c-1.63-1.89-2.39-4.38-2.39-7.59,0-3.36.66-6,2.08-7.78Zm13.14,7.63a11.93,11.93,0,0,1-2,7.33,6.79,6.79,0,0,1-5.55,2.7,7.15,7.15,0,0,1-3-.61l8.45-17.1a11.57,11.57,0,0,1,2.14,7.27Zm15.54-3.92,1.22-1a7.56,7.56,0,0,1,4.73-1.33,6.63,6.63,0,0,1,5.24,2.19,8.38,8.38,0,0,1,2,5.85,9.12,9.12,0,0,1-1.83,6,6.16,6.16,0,0,1-5,2.19,6.84,6.84,0,0,1-4.74-1.58,7.25,7.25,0,0,1-2.18-4.68H335.3a10.65,10.65,0,0,0,3.46,7.38,11.44,11.44,0,0,0,7.84,2.65c3.61,0,6.41-1.07,8.45-3.21s3-5.09,3-8.81-1-6.66-2.9-8.85a10,10,0,0,0-7.84-3.26,11.44,11.44,0,0,0-6.06,1.58l1.07-9.88H357v-4.27H338.45l-1.83,18.07Zm45.52-4.17c-.05-5.24-1-9.06-2.85-11.56s-4.69-3.76-8.61-3.76-6.82,1.27-8.65,3.87S363,783.69,363,789v6.15c.05,5.09,1,8.91,2.9,11.51s4.69,3.82,8.55,3.82,6.83-1.33,8.66-3.92,2.75-6.62,2.75-12Zm-4.58,7.18c-.06,3.76-.67,6.56-1.74,8.29a6.16,6.16,0,0,1-10.23-.15c-1.12-1.88-1.73-4.73-1.73-8.65v-7.38c.05-3.67.61-6.42,1.68-8.2a5.55,5.55,0,0,1,5.14-2.65,5.62,5.62,0,0,1,5.2,2.7c1.12,1.78,1.68,4.58,1.68,8.5Z"></path><path class="cls-1" d="M409.63,228.21c0,44.39-29.67,80.37-66.26,80.37s-66.25-36-66.25-80.37Zm-66.26,80.37V439.87M561.78,658.28H132.34V439.87H561.78ZM132.34,453.37H561.78M132.34,643.55H561.78"></path><path class="cls-4" d="M409.63,228.21c0,44.39-29.67,80.37-66.26,80.37s-66.25-36-66.25-80.37Zm-66.26,80.37V439.87M561.78,658.28H132.34V439.87H561.78V658.28ZM132.34,453.37H561.78M132.34,643.55H561.78"></path></svg> 