<?xml version="1.0" encoding="UTF-8"?> <svg xmlns="http://www.w3.org/2000/svg" id="Livello_1" data-name="Livello 1" viewBox="0 0 620 999.02"><defs><style>.cls-1{fill:#fff;}.cls-2{fill:#231f20;}.cls-3,.cls-4{fill:none;stroke:#000;stroke-width:0.25px;}.cls-4{stroke-miterlimit:10;}</style></defs><title>sosp. high cylinder</title><rect class="cls-1" width="620" height="998.95"></rect><path class="cls-2" d="M184.82,17.93a27.16,27.16,0,0,0-1.06-8.14,14.48,14.48,0,0,0-2.89-5.54,10.8,10.8,0,0,0-4.48-3.19A15,15,0,0,0,170.61,0a15.25,15.25,0,0,0-5.78,1.06,10.62,10.62,0,0,0-4.42,3.19,14.48,14.48,0,0,0-2.89,5.54,27.16,27.16,0,0,0-1.06,8.14v7.25a27.06,27.06,0,0,0,1.06,8.08,15.74,15.74,0,0,0,2.89,5.6A10.87,10.87,0,0,0,164.89,42a15.25,15.25,0,0,0,5.78,1.06A15,15,0,0,0,176.45,42a10.87,10.87,0,0,0,4.48-3.18,15.74,15.74,0,0,0,2.89-5.6,29.32,29.32,0,0,0,1-8.08Zm-8.31,8.37A21.9,21.9,0,0,1,176.1,31,9.11,9.11,0,0,1,175,34.14a4.18,4.18,0,0,1-1.82,1.71,6.07,6.07,0,0,1-5,0,4.18,4.18,0,0,1-1.82-1.71A9.08,9.08,0,0,1,165.19,31a26.12,26.12,0,0,1-.36-4.72V16.69a25.41,25.41,0,0,1,.36-4.66A8.74,8.74,0,0,1,166.31,9a5.11,5.11,0,0,1,1.83-1.71,5.82,5.82,0,0,1,2.47-.47,5.55,5.55,0,0,1,2.48.47A4.86,4.86,0,0,1,175,9,8.74,8.74,0,0,1,176.1,12a21.31,21.31,0,0,1,.41,4.66ZM211.79.18a22,22,0,0,0-9,1.71,19.06,19.06,0,0,0-6.72,4.71,22,22,0,0,0-4.19,7.32,28.82,28.82,0,0,0-1.41,9.25v3.25a20.69,20.69,0,0,0,1.06,6.78,15.86,15.86,0,0,0,3,5.25,13.58,13.58,0,0,0,4.66,3.42,14.57,14.57,0,0,0,6.07,1.23A15.12,15.12,0,0,0,211,42a13.45,13.45,0,0,0,4.48-3.06,13.2,13.2,0,0,0,2.83-4.54,16.32,16.32,0,0,0,1-5.66,20.62,20.62,0,0,0-.76-5.49,13.69,13.69,0,0,0-2.25-4.54,10.91,10.91,0,0,0-3.71-3.06,11.41,11.41,0,0,0-5.25-1.18,12.26,12.26,0,0,0-4.77.94,11.42,11.42,0,0,0-3.66,2.54,13.66,13.66,0,0,1,1.42-4.54A10.08,10.08,0,0,1,203.07,10a13,13,0,0,1,4.12-2.19A16.33,16.33,0,0,1,212.5,7H213V.18ZM207.43,21.7a6.31,6.31,0,0,1,1.95,1.59,7.77,7.77,0,0,1,1.23,2.42,9.93,9.93,0,0,1,.42,3.06,10,10,0,0,1-.42,3.07,7.35,7.35,0,0,1-1.23,2.36A5.44,5.44,0,0,1,205,36.38a6.13,6.13,0,0,1-2.53-.53,5.81,5.81,0,0,1-2-1.65,9.39,9.39,0,0,1-1.24-2.77,15.52,15.52,0,0,1-.47-3.89V25a5.59,5.59,0,0,1,1-1.47,5.37,5.37,0,0,1,1.35-1.24,6.44,6.44,0,0,1,1.71-.83,6.21,6.21,0,0,1,2.07-.29,6.05,6.05,0,0,1,2.59.53ZM244.37.53h-.89L226.15,6.78V13.5l9.9-3.06V42.51h8.32Zm41.83,17.4a27.16,27.16,0,0,0-1.06-8.14,14.48,14.48,0,0,0-2.89-5.54,10.8,10.8,0,0,0-4.48-3.19A15,15,0,0,0,272,0a15.25,15.25,0,0,0-5.78,1.06,10.62,10.62,0,0,0-4.42,3.19,14.48,14.48,0,0,0-2.89,5.54,27.16,27.16,0,0,0-1.06,8.14v7.25a27.06,27.06,0,0,0,1.06,8.08,15.74,15.74,0,0,0,2.89,5.6A10.87,10.87,0,0,0,266.27,42a15.25,15.25,0,0,0,5.78,1.06A15,15,0,0,0,277.83,42a10.87,10.87,0,0,0,4.48-3.18,15.74,15.74,0,0,0,2.89-5.6,29.32,29.32,0,0,0,1-8.08Zm-8.31,8.37a21.22,21.22,0,0,1-.42,4.72,9.12,9.12,0,0,1-1.12,3.12,4.18,4.18,0,0,1-1.82,1.71,6.07,6.07,0,0,1-5,0,4.2,4.2,0,0,1-1.83-1.71A9.29,9.29,0,0,1,266.56,31a27.18,27.18,0,0,1-.35-4.72V16.69a26.44,26.44,0,0,1,.35-4.66A8.74,8.74,0,0,1,267.69,9a5.16,5.16,0,0,1,1.82-1.71A5.9,5.9,0,0,1,272,6.78a5.55,5.55,0,0,1,2.48.47A4.86,4.86,0,0,1,276.35,9,8.74,8.74,0,0,1,277.47,12a20.65,20.65,0,0,1,.42,4.66Zm30.45-5.07H292.12v6.66h16.22ZM343.4,35.79h-18L332.73,28c1.41-1.48,2.71-2.83,3.83-4.19a28.91,28.91,0,0,0,2.95-3.95A19.44,19.44,0,0,0,341.33,16a11.62,11.62,0,0,0,.71-4.07,13.73,13.73,0,0,0-.88-5,10,10,0,0,0-2.66-3.72A11.84,11.84,0,0,0,334.26.83a19.5,19.5,0,0,0-5.9-.83,15.41,15.41,0,0,0-6.07,1.12,13.46,13.46,0,0,0-4.54,3,13,13,0,0,0-2.95,4.36,14.93,14.93,0,0,0-1,5.37h8.37a8.52,8.52,0,0,1,.41-2.83,6.73,6.73,0,0,1,1.12-2.24,5.38,5.38,0,0,1,1.95-1.48,5.86,5.86,0,0,1,2.59-.53,5.11,5.11,0,0,1,4,1.59,6.43,6.43,0,0,1,1.42,4.43,5.34,5.34,0,0,1-.3,1.88,10,10,0,0,1-.88,2.13,17.1,17.1,0,0,1-1.71,2.53,35.37,35.37,0,0,1-2.59,3.07L314.62,36.79v5.72H343.4Zm33.28-17.86a27.16,27.16,0,0,0-1.06-8.14,14.48,14.48,0,0,0-2.89-5.54,10.8,10.8,0,0,0-4.48-3.19A15,15,0,0,0,362.47,0a15.25,15.25,0,0,0-5.78,1.06,10.62,10.62,0,0,0-4.42,3.19,14.48,14.48,0,0,0-2.89,5.54,27.16,27.16,0,0,0-1.06,8.14v7.25a27.06,27.06,0,0,0,1.06,8.08,15.74,15.74,0,0,0,2.89,5.6A10.87,10.87,0,0,0,356.75,42a15.25,15.25,0,0,0,5.78,1.06A15,15,0,0,0,368.31,42a10.87,10.87,0,0,0,4.48-3.18,15.74,15.74,0,0,0,2.89-5.6,29.32,29.32,0,0,0,1-8.08Zm-8.31,8.37A21.22,21.22,0,0,1,368,31a9.12,9.12,0,0,1-1.12,3.12A4.15,4.15,0,0,1,365,35.85a6,6,0,0,1-4.95,0,4.2,4.2,0,0,1-1.83-1.71A9.29,9.29,0,0,1,357,31a27.18,27.18,0,0,1-.35-4.72V16.69A26.44,26.44,0,0,1,357,12,8.94,8.94,0,0,1,358.16,9,5.27,5.27,0,0,1,360,7.25a5.87,5.87,0,0,1,2.48-.47,5.55,5.55,0,0,1,2.48.47A4.86,4.86,0,0,1,366.83,9,8.74,8.74,0,0,1,368,12a20.65,20.65,0,0,1,.42,4.66Z"></path><path class="cls-2" d="M112,76.83h-3.42v44.23H112V99.71A12.74,12.74,0,0,1,113.33,97a9.21,9.21,0,0,1,4.6-4.07,8.78,8.78,0,0,1,3.36-.59,10.25,10.25,0,0,1,3.06.41,5.1,5.1,0,0,1,2.3,1.36,7,7,0,0,1,1.48,2.59,13.49,13.49,0,0,1,.53,4.07v20.29h3.42V100.77a17.23,17.23,0,0,0-.71-5.25,9.57,9.57,0,0,0-2-3.53,7.2,7.2,0,0,0-3.12-2,11.64,11.64,0,0,0-4.19-.65,10.33,10.33,0,0,0-3.12.42,10,10,0,0,0-2.77,1.18,11.86,11.86,0,0,0-2.36,1.82A12.8,12.8,0,0,0,112,95.17Zm32.81,13.09H141.3v31.14h3.48Zm-3.48-7.37a2.48,2.48,0,0,0,1.77.65,2.32,2.32,0,0,0,1.71-.65,2.18,2.18,0,0,0,.65-1.65,2.09,2.09,0,0,0-.65-1.65,2.18,2.18,0,0,0-1.71-.71,2.33,2.33,0,0,0-1.77.71,2.28,2.28,0,0,0-.59,1.65,2.37,2.37,0,0,0,.59,1.65Zm11.43,23.23a22,22,0,0,0,.82,6.43,14.71,14.71,0,0,0,2.36,5,11.62,11.62,0,0,0,3.78,3.25,10.71,10.71,0,0,0,5,1.18,12.47,12.47,0,0,0,5.72-1.24,10.83,10.83,0,0,0,3.89-3.36v3.59a13.13,13.13,0,0,1-.59,4.19,8,8,0,0,1-1.83,3.07,7.25,7.25,0,0,1-2.89,2,11.23,11.23,0,0,1-3.89.65,10.2,10.2,0,0,1-4.66-1.06,13.56,13.56,0,0,1-4.07-3.42l-1.88,2.06a10.21,10.21,0,0,0,2.18,2.36,16,16,0,0,0,2.71,1.65,17.37,17.37,0,0,0,3,1,12.82,12.82,0,0,0,3,.3,14.24,14.24,0,0,0,5.13-.89,11,11,0,0,0,4-2.53A11.67,11.67,0,0,0,176.9,126a15.58,15.58,0,0,0,.95-5.42V89.92h-3.24l-.18,4.48a11.28,11.28,0,0,0-4-3.71,12.38,12.38,0,0,0-10.79-.24,11.43,11.43,0,0,0-3.78,3.19,14.71,14.71,0,0,0-2.36,5,22.64,22.64,0,0,0-.82,6.55Zm3.48-.58a22.82,22.82,0,0,1,.53-5.08,12.6,12.6,0,0,1,1.65-4.06,8,8,0,0,1,2.89-2.72,7.72,7.72,0,0,1,4.13-1,11.32,11.32,0,0,1,3.3.47,8.66,8.66,0,0,1,4.36,3.3,10.09,10.09,0,0,1,1.24,2.36v14.45a11.32,11.32,0,0,1-1.36,2.3,7.68,7.68,0,0,1-1.88,1.77,9.37,9.37,0,0,1-2.54,1.24,10.8,10.8,0,0,1-3.18.41,8,8,0,0,1-7-3.72,12.6,12.6,0,0,1-1.65-4.06,22.45,22.45,0,0,1-.53-5.08Zm34-28.37h-3.42v44.23h3.42V99.71A12.69,12.69,0,0,1,191.55,97a9.32,9.32,0,0,1,4.6-4.07,8.85,8.85,0,0,1,3.36-.59,10.27,10.27,0,0,1,3.07.41,5.1,5.1,0,0,1,2.3,1.36,6.89,6.89,0,0,1,1.47,2.59,13.15,13.15,0,0,1,.54,4.07v20.29h3.42V100.77a17.23,17.23,0,0,0-.71-5.25A9.57,9.57,0,0,0,207.65,92a7.2,7.2,0,0,0-3.12-2,11.64,11.64,0,0,0-4.19-.65,10.33,10.33,0,0,0-3.12.42,10.17,10.17,0,0,0-2.78,1.18,12.08,12.08,0,0,0-2.35,1.82,12.8,12.8,0,0,0-1.89,2.42Zm50.19,40.87a10,10,0,0,1-3.07-2.78,12.83,12.83,0,0,1-1.65-4.06,21.09,21.09,0,0,1-.53-4.78V104.9a21.48,21.48,0,0,1,.53-4.78,11.4,11.4,0,0,1,1.71-4,8.78,8.78,0,0,1,3-2.83,9.85,9.85,0,0,1,4.54-1,10.28,10.28,0,0,1,3.3.53,9.16,9.16,0,0,1,2.71,1.65A8.15,8.15,0,0,1,252.83,97a8.86,8.86,0,0,1,.77,3.42H257a13.92,13.92,0,0,0-1.06-4.6,11,11,0,0,0-2.6-3.48,10.84,10.84,0,0,0-3.71-2.24,14.47,14.47,0,0,0-10.38.41,12.4,12.4,0,0,0-4.19,3.3,15.19,15.19,0,0,0-2.53,5,22.32,22.32,0,0,0-.83,6.13v1.18a22.7,22.7,0,0,0,.83,6.13,15,15,0,0,0,2.53,5,12,12,0,0,0,4.19,3.25,12.65,12.65,0,0,0,5.72,1.24,14.41,14.41,0,0,0,4.54-.77,12.88,12.88,0,0,0,3.72-2.12,10.12,10.12,0,0,0,2.65-3.25,10.39,10.39,0,0,0,1.12-4.06H253.6a7.46,7.46,0,0,1-.83,3.12,9.37,9.37,0,0,1-1.94,2.3,9.13,9.13,0,0,1-2.72,1.36,9.53,9.53,0,0,1-3.18.47,9.15,9.15,0,0,1-4.54-1ZM264,89.92h-3.78L272,120.82l-1.54,4.07a12.09,12.09,0,0,1-1.06,2.48,7.18,7.18,0,0,1-1.41,1.76,5.08,5.08,0,0,1-1.83,1.07,8,8,0,0,1-2.48.35,4.64,4.64,0,0,1-.82-.06c-.42-.06-.71-.06-.95-.12v2.89a1.63,1.63,0,0,1,.53.12c.24.06.48.06.71.12s.53.06.77.12h.65a7.78,7.78,0,0,0,3.65-.77,9.91,9.91,0,0,0,2.48-1.95,10.83,10.83,0,0,0,1.59-2.47,23.33,23.33,0,0,0,1-2.42l13.21-36.09h-3.71l-9.08,26.18Zm31.63-13.09h-3.48v44.23h3.48Zm13.2,13.09h-3.48v31.14h3.48Zm-3.48-7.37a2.47,2.47,0,0,0,1.77.65,2.35,2.35,0,0,0,1.71-.65,2.18,2.18,0,0,0,.65-1.65,2.09,2.09,0,0,0-.65-1.65,2.21,2.21,0,0,0-1.71-.71,2.31,2.31,0,0,0-1.77.71,2.28,2.28,0,0,0-.59,1.65,2.37,2.37,0,0,0,.59,1.65Zm12.78,7.37v31.14h3.42V99.71A12.74,12.74,0,0,1,322.92,97a9.21,9.21,0,0,1,4.6-4.07,8.78,8.78,0,0,1,3.36-.59,10.25,10.25,0,0,1,3.06.41,5.1,5.1,0,0,1,2.3,1.36,7,7,0,0,1,1.48,2.59,13.49,13.49,0,0,1,.53,4.07v20.29h3.42V100.77a17.23,17.23,0,0,0-.71-5.25A9.57,9.57,0,0,0,339,92a7.2,7.2,0,0,0-3.12-2,11.64,11.64,0,0,0-4.19-.65,11,11,0,0,0-3.18.42,11.79,11.79,0,0,0-2.77,1.18,12,12,0,0,0-2.36,1.88,12.51,12.51,0,0,0-1.83,2.42l-.12-5.31Zm31,15.86a22,22,0,0,0,.83,6.43,15.7,15.7,0,0,0,2.36,5,11.69,11.69,0,0,0,3.77,3.25,11,11,0,0,0,5,1.18,12.55,12.55,0,0,0,5.78-1.24,11.91,11.91,0,0,0,3.95-3.48l.12,4.13h3.24V76.83h-3.42V94.29a10.85,10.85,0,0,0-9.61-5,10.74,10.74,0,0,0-5,1.12,11.12,11.12,0,0,0-3.83,3.19,15.7,15.7,0,0,0-2.36,5,22.63,22.63,0,0,0-.83,6.55Zm3.48-.58a23.43,23.43,0,0,1,.53-5.08,13.07,13.07,0,0,1,1.65-4.06,8,8,0,0,1,2.89-2.72,7.74,7.74,0,0,1,4.13-1,11.27,11.27,0,0,1,3.3.47,9.53,9.53,0,0,1,2.54,1.36,8.12,8.12,0,0,1,1.83,1.94,12.81,12.81,0,0,1,1.29,2.3V113a13.08,13.08,0,0,1-1.41,2.24,7.55,7.55,0,0,1-1.89,1.77,9.18,9.18,0,0,1-2.53,1.18,11.48,11.48,0,0,1-3.19.41,8,8,0,0,1-7-3.72,13.07,13.07,0,0,1-1.65-4.06,23,23,0,0,1-.53-5.08Zm46.49,16a9.9,9.9,0,0,0,3.07-1.17,10.51,10.51,0,0,0,2.36-1.71,15.4,15.4,0,0,0,1.83-2.19l-2.18-1.59a10.14,10.14,0,0,1-3.84,3.19,10.91,10.91,0,0,1-4.89,1,9.8,9.8,0,0,1-4.36-1,10.43,10.43,0,0,1-3.37-2.65,12,12,0,0,1-2.18-3.89,14.61,14.61,0,0,1-.76-4.84v-.64H407V103.6a19.76,19.76,0,0,0-.83-5.72,12.82,12.82,0,0,0-2.36-4.54,11.38,11.38,0,0,0-3.89-3,12.36,12.36,0,0,0-5.25-1.06,11.65,11.65,0,0,0-5.07,1.12,13.77,13.77,0,0,0-4.24,3.19,14.74,14.74,0,0,0-2.95,5,19,19,0,0,0-1.06,6.55v1.23a17.14,17.14,0,0,0,1.06,6.14,13.71,13.71,0,0,0,2.89,4.83,12.34,12.34,0,0,0,4.42,3.13,13.53,13.53,0,0,0,5.6,1.18,14.38,14.38,0,0,0,3.77-.48Zm-.59-28.06a9.33,9.33,0,0,1,2.78,2.24,10.77,10.77,0,0,1,1.65,3.24,13.91,13.91,0,0,1,.65,3.83v.36h-18.7A16.12,16.12,0,0,1,386,98.47a11.11,11.11,0,0,1,2.07-3.3A10.21,10.21,0,0,1,391,93a9.39,9.39,0,0,1,3.65-.71,8.71,8.71,0,0,1,3.83.83Zm29.69-3.42a6.12,6.12,0,0,0-1-.24,9.38,9.38,0,0,0-1.3-.12,8.94,8.94,0,0,0-5.3,1.48,10.59,10.59,0,0,0-3.48,4.07l-.06-5h-3.36v31.14h3.42V99.65a15.07,15.07,0,0,1,1.18-2.83,8.2,8.2,0,0,1,1.83-2.18,7.31,7.31,0,0,1,2.47-1.47,8.93,8.93,0,0,1,3.19-.53,13.88,13.88,0,0,1,2.3.17Z"></path><path d="M486,635v.66l4.57,12.19h3.86l-3.15-8.57h28.35V635Zm13.85-33.51c-4.85.05-8.38,1-10.69,2.64s-3.49,4.33-3.49,8,1.18,6.31,3.58,8,6.08,2.54,11,2.54h5.7c4.71,0,8.24-.94,10.64-2.68s3.53-4.34,3.53-7.92-1.22-6.31-3.62-8-6.13-2.55-11.12-2.55Zm6.64,4.24c3.49.05,6.08.62,7.68,1.6a5.71,5.71,0,0,1-.14,9.47c-1.74,1-4.38,1.6-8,1.6h-6.83c-3.39,0-5.93-.56-7.58-1.55a5.13,5.13,0,0,1-2.45-4.76,5.19,5.19,0,0,1,2.5-4.8c1.64-1,4.23-1.56,7.86-1.56Zm-6.64-30.72c-4.85.05-8.38.94-10.69,2.64s-3.49,4.33-3.49,8,1.18,6.31,3.58,8,6.08,2.55,11,2.55h5.7c4.71-.05,8.24-.94,10.64-2.69s3.53-4.33,3.53-7.91-1.22-6.31-3.62-8-6.13-2.54-11.12-2.54Zm6.64,4.24c3.49.05,6.08.61,7.68,1.6a5.71,5.71,0,0,1-.14,9.47c-1.74,1-4.38,1.6-8,1.6h-6.83c-3.39-.05-5.93-.57-7.58-1.56a5.12,5.12,0,0,1-2.45-4.75,5.19,5.19,0,0,1,2.5-4.81c1.64-1,4.23-1.55,7.86-1.55Z"></path><path class="cls-3" d="M173.08,920.67H326.74M429.32,372.82V851.41"></path><path d="M216.88,994.36l-2.3,4.66h2.87l1.7-3.44a11.78,11.78,0,0,0,4.38.8,11.25,11.25,0,0,0,5.88-1.55,11,11,0,0,0,4-4.53,14.84,14.84,0,0,0,1.41-6.54c0-4.9-1.51-8.57-4.47-10.93l2.35-4.71h-2.87l-1.65,3.44a11.27,11.27,0,0,0-4.71-1,10.87,10.87,0,0,0-5.89,1.6,10.7,10.7,0,0,0-4,4.52,14.73,14.73,0,0,0-1.42,6.55c0,5.13,1.61,8.81,4.71,11.12Zm1.51-17.81a6.12,6.12,0,0,1,5.09-2.49,6.25,6.25,0,0,1,3.06.75l-7.87,16a10.33,10.33,0,0,1-2.21-7c0-3.11.61-5.51,1.93-7.21Zm12.15,7.07a11.06,11.06,0,0,1-1.88,6.78,6.26,6.26,0,0,1-5.13,2.5,6.58,6.58,0,0,1-2.78-.57l7.82-15.83a10.78,10.78,0,0,1,2,6.74Zm15.18-3h3.21a8,8,0,0,1,5.18,1.6,5.56,5.56,0,0,1,1.79,4.48,6.19,6.19,0,0,1-1.6,4.61,7.63,7.63,0,0,1-9.38,0,5.42,5.42,0,0,1-1.69-4.19h-4.29a8.46,8.46,0,0,0,3,6.74,12.61,12.61,0,0,0,15.31-.1,9.12,9.12,0,0,0,3-7.16,8.18,8.18,0,0,0-1.5-4.94,8.44,8.44,0,0,0-4.29-2.87,8.64,8.64,0,0,0,3.86-3.07,7.31,7.31,0,0,0,1.42-4.24,9.14,9.14,0,0,0-2.69-7,10.59,10.59,0,0,0-7.44-2.5,10.73,10.73,0,0,0-7.4,2.64,8.53,8.53,0,0,0-2.92,6.59h4.29a5.42,5.42,0,0,1,1.6-4.14,6.06,6.06,0,0,1,4.43-1.6c3.91,0,5.89,2,5.89,5.88a5.42,5.42,0,0,1-1.75,4.2,7.17,7.17,0,0,1-4.75,1.6h-3.21Zm41.33-4.47c-.05-4.85-.95-8.39-2.64-10.69s-4.34-3.49-8-3.49-6.31,1.18-8,3.58-2.54,6.08-2.54,11v5.7c0,4.71.94,8.25,2.68,10.65s4.34,3.53,7.92,3.53,6.31-1.22,8-3.63,2.55-6.12,2.55-11.11Zm-4.24,6.64c-.05,3.48-.62,6.07-1.6,7.68a5.7,5.7,0,0,1-9.47-.15c-1-1.74-1.6-4.38-1.6-8v-6.83c0-3.39.56-5.94,1.55-7.58a5.13,5.13,0,0,1,4.76-2.45,5.18,5.18,0,0,1,4.8,2.49c1,1.65,1.56,4.24,1.56,7.87Z"></path><path class="cls-1" d="M321.42,849.44H175.05V361.11H321.42V849.44ZM175.05,368.62l146.37-1.08M175.44,843H321.81M283.93,246a49.5,49.5,0,0,1,.38,6.14c0,23.41-16.16,42.39-36.07,42.39s-36.07-19-36.07-42.39c0-1.67.08-3.32.24-4.94Zm0,0a49.5,49.5,0,0,1,.38,6.14c0,23.41-16.16,42.39-36.07,42.39s-36.07-19-36.07-42.39c0-1.67.08-3.32.24-4.94Zm-44.19,48.53V300a3.8,3.8,0,0,0,2.34,3.55m6.16,38.28s-15.77,8.84-14.48,18.6"></path><path class="cls-4" d="M321.42,849.44H175.05V361.11H321.42V849.44ZM175.05,368.62l146.37-1.08M175.44,843H321.81M283.93,246a49.5,49.5,0,0,1,.38,6.14c0,23.41-16.16,42.39-36.07,42.39s-36.07-19-36.07-42.39c0-1.67.08-3.32.24-4.94l71.52-1.2Zm0,0a49.5,49.5,0,0,1,.38,6.14c0,23.41-16.16,42.39-36.07,42.39s-36.07-19-36.07-42.39c0-1.67.08-3.32.24-4.94l71.52-1.2Zm-44.19,48.53V300a3.8,3.8,0,0,0,2.34,3.55m6.16,38.28s-15.77,8.84-14.48,18.6m14.48-64.76v64.76m-6.16-56.88c10.14,4.09,47.86,21.38,6.16,38.28"></path></svg> 