<?xml version="1.0" encoding="UTF-8"?> <svg xmlns="http://www.w3.org/2000/svg" id="Livello_1" data-name="Livello 1" viewBox="0 0 1006.67 998.95"><defs><style>.cls-1{fill:#fff;}.cls-2{fill:#231f20;}.cls-3,.cls-4,.cls-5,.cls-6,.cls-7{fill:none;stroke:#000;stroke-width:0.25px;}.cls-4,.cls-5,.cls-6{stroke-linejoin:round;}.cls-5{stroke-dasharray:2.42 2.42;}.cls-6{stroke-dasharray:3.38 3.38;}.cls-7{stroke-miterlimit:10;}</style></defs><title>sosp. square 80</title><rect class="cls-1" width="1006.67" height="998.95"></rect><path class="cls-2" d="M313.65.68h-1.12l-22.06,8v8.55l12.6-3.9V54.1h10.58Zm53.23,22.13a34.66,34.66,0,0,0-1.35-10.35,18.44,18.44,0,0,0-3.67-7.06,13.89,13.89,0,0,0-5.71-4.05A19.14,19.14,0,0,0,348.8,0a19.43,19.43,0,0,0-7.35,1.35,13.64,13.64,0,0,0-5.63,4.05,18.45,18.45,0,0,0-3.68,7.06,34.66,34.66,0,0,0-1.35,10.35V32a34.49,34.49,0,0,0,1.35,10.28,19.9,19.9,0,0,0,3.68,7.13,13.92,13.92,0,0,0,5.7,4,19.44,19.44,0,0,0,7.36,1.35,19.17,19.17,0,0,0,7.35-1.35,13.86,13.86,0,0,0,5.7-4,19.9,19.9,0,0,0,3.68-7.13A37.53,37.53,0,0,0,366.88,32ZM356.3,33.46a27.8,27.8,0,0,1-.52,6,11.57,11.57,0,0,1-1.43,4A5.37,5.37,0,0,1,352,45.62a7.66,7.66,0,0,1-6.31,0,5.37,5.37,0,0,1-2.32-2.18,11.32,11.32,0,0,1-1.5-4,33.8,33.8,0,0,1-.45-6V21.23a32.8,32.8,0,0,1,.45-5.92,11.15,11.15,0,0,1,1.42-3.9,6.4,6.4,0,0,1,2.33-2.18,7.35,7.35,0,0,1,3.15-.6,7,7,0,0,1,3.15.6,5.94,5.94,0,0,1,2.4,2.18,11.15,11.15,0,0,1,1.43,3.9,27,27,0,0,1,.52,5.92Zm53.61-10.65a34.66,34.66,0,0,0-1.35-10.35,18.45,18.45,0,0,0-3.68-7.06,13.79,13.79,0,0,0-5.7-4.05A19.17,19.17,0,0,0,391.83,0a19.48,19.48,0,0,0-7.36,1.35,13.61,13.61,0,0,0-5.62,4.05,18.32,18.32,0,0,0-3.68,7.06,34.66,34.66,0,0,0-1.35,10.35V32a34.49,34.49,0,0,0,1.35,10.28,19.9,19.9,0,0,0,3.68,7.13,13.79,13.79,0,0,0,5.7,4,19.43,19.43,0,0,0,7.35,1.35,19.22,19.22,0,0,0,7.36-1.35,13.92,13.92,0,0,0,5.7-4,20.05,20.05,0,0,0,3.67-7.13A37.12,37.12,0,0,0,409.91,32ZM399.33,33.46a27.11,27.11,0,0,1-.53,6,11.58,11.58,0,0,1-1.42,4,5.39,5.39,0,0,1-2.33,2.18,7.64,7.64,0,0,1-6.3,0,5.39,5.39,0,0,1-2.33-2.18,11.73,11.73,0,0,1-1.5-4,33.8,33.8,0,0,1-.45-6V21.23a32.8,32.8,0,0,1,.45-5.92,11.15,11.15,0,0,1,1.43-3.9,6.25,6.25,0,0,1,2.33-2.18,7.35,7.35,0,0,1,3.15-.6,7,7,0,0,1,3.15.6,6.07,6.07,0,0,1,2.4,2.18,11.15,11.15,0,0,1,1.42,3.9,26.31,26.31,0,0,1,.53,5.92Zm27.72-3.52a14.08,14.08,0,0,1,1.2-1.05,6.66,6.66,0,0,1,1.43-1,12.49,12.49,0,0,1,1.95-.6,9,9,0,0,1,2.55-.3,10.2,10.2,0,0,1,3.82.68,6.75,6.75,0,0,1,2.63,1.95,6.53,6.53,0,0,1,1.58,2.92,13,13,0,0,1,.52,3.83,21.26,21.26,0,0,1-.37,3.9A10,10,0,0,1,441,43.44a6.32,6.32,0,0,1-2.33,2.11,6.86,6.86,0,0,1-3.38.75,7.26,7.26,0,0,1-5.25-1.88,7.65,7.65,0,0,1-2.33-5.18h-10.5a15.81,15.81,0,0,0,1.65,6.61,15.09,15.09,0,0,0,4.05,4.87,16.83,16.83,0,0,0,5.71,3.08,22.31,22.31,0,0,0,6.67,1.05,19.9,19.9,0,0,0,8-1.5,15.8,15.8,0,0,0,9-9.61A21.79,21.79,0,0,0,453.31,37a26.3,26.3,0,0,0-1.05-7.58A15.92,15.92,0,0,0,449,23.79a13.61,13.61,0,0,0-5.1-3.53,17.86,17.86,0,0,0-6.9-1.2,24.3,24.3,0,0,0-2.48.15,22.54,22.54,0,0,0-2.32.52c-.68.23-1.28.45-1.8.68a5.6,5.6,0,0,0-1.35.67L430.35,9.6h21.24V.75H421.65l-3.08,27.09ZM481.11,27H460.47v8.48h20.64Zm44.61,18.54h-23l9.38-9.91c1.8-1.87,3.45-3.6,4.88-5.33a36.33,36.33,0,0,0,3.75-5,25.19,25.19,0,0,0,2.33-5,15,15,0,0,0,.9-5.17,17.53,17.53,0,0,0-1.13-6.38,12.77,12.77,0,0,0-3.38-4.73,15.17,15.17,0,0,0-5.4-3,25.29,25.29,0,0,0-7.5-1,19.64,19.64,0,0,0-7.73,1.43,17.09,17.09,0,0,0-5.78,3.75,16.46,16.46,0,0,0-3.75,5.55,19,19,0,0,0-1.28,6.83h10.66a10.83,10.83,0,0,1,.52-3.6,8.53,8.53,0,0,1,1.43-2.86,6.84,6.84,0,0,1,2.48-1.87,7.38,7.38,0,0,1,3.3-.68,6.51,6.51,0,0,1,5.1,2,8.19,8.19,0,0,1,1.8,5.63,7,7,0,0,1-.37,2.4,13.26,13.26,0,0,1-1.13,2.7,22.39,22.39,0,0,1-2.18,3.23,44.45,44.45,0,0,1-3.3,3.9L489.11,46.82V54.1h36.61Zm43,0h-23l9.38-9.91c1.8-1.87,3.45-3.6,4.87-5.33a36.44,36.44,0,0,0,3.76-5,24.58,24.58,0,0,0,2.32-5,15,15,0,0,0,.9-5.17,17.52,17.52,0,0,0-1.12-6.38,12.77,12.77,0,0,0-3.38-4.73,15.26,15.26,0,0,0-5.4-3,25.36,25.36,0,0,0-7.51-1,19.56,19.56,0,0,0-7.72,1.43,16.9,16.9,0,0,0-5.78,3.75,16.46,16.46,0,0,0-3.75,5.55,19,19,0,0,0-1.28,6.83h10.66a10.83,10.83,0,0,1,.52-3.6,8.53,8.53,0,0,1,1.43-2.86,6.81,6.81,0,0,1,2.47-1.87,7.41,7.41,0,0,1,3.3-.68,6.52,6.52,0,0,1,5.11,2,8.19,8.19,0,0,1,1.8,5.63,7,7,0,0,1-.38,2.4,13.18,13.18,0,0,1-1.12,2.7,23.25,23.25,0,0,1-2.18,3.23,44.45,44.45,0,0,1-3.3,3.9L532.13,46.82V54.1h36.62Z"></path><path class="cls-2" d="M344.51,146.62a7.18,7.18,0,0,1-1.95,2.32,14.29,14.29,0,0,1-3.23,1.58,15.66,15.66,0,0,1-4.42.53,16.44,16.44,0,0,1-3.76-.38,11.24,11.24,0,0,1-3.52-1.35,7.6,7.6,0,0,1-2.63-2.48,7.82,7.82,0,0,1-1.2-3.9h-4.43a10.19,10.19,0,0,0,1.05,4.43,11.33,11.33,0,0,0,3,3.83,14.61,14.61,0,0,0,4.8,2.62,22.73,22.73,0,0,0,6.68,1A21.41,21.41,0,0,0,341,154a12.91,12.91,0,0,0,4.58-2.25,11,11,0,0,0,3-3.45,9.84,9.84,0,0,0,1-4.5,9.4,9.4,0,0,0-.83-4.21,8.45,8.45,0,0,0-2.47-3.22,18.19,18.19,0,0,0-4.36-2.48,41.91,41.91,0,0,0-6.15-1.8,41.45,41.45,0,0,1-5.4-1.57,11.61,11.61,0,0,1-3.23-1.73,4,4,0,0,1-1.57-2,6.22,6.22,0,0,1-.45-2.4,5.9,5.9,0,0,1,.6-2.47,5.75,5.75,0,0,1,1.65-2.25,10.09,10.09,0,0,1,3-1.58,12.46,12.46,0,0,1,4.35-.6,12.9,12.9,0,0,1,4.35.68,9.54,9.54,0,0,1,3.23,1.8,7.55,7.55,0,0,1,2,2.62,7,7,0,0,1,.67,3h4.35a10.93,10.93,0,0,0-1-4.72,11.75,11.75,0,0,0-2.85-3.76,14.56,14.56,0,0,0-4.66-2.47,21.13,21.13,0,0,0-11.93-.08,14.46,14.46,0,0,0-4.42,2.33,10.2,10.2,0,0,0-2.78,3.45,9,9,0,0,0-1,4.2,9.28,9.28,0,0,0,.91,4.21,8.07,8.07,0,0,0,2.7,3.07,15.73,15.73,0,0,0,4.35,2.25,46.16,46.16,0,0,0,5.85,1.58,31,31,0,0,1,5.4,1.65,10.87,10.87,0,0,1,3.23,2,7,7,0,0,1,1.58,2.26,7.17,7.17,0,0,1,.45,2.47,5.51,5.51,0,0,1-.68,2.63Zm13.09-12a28.05,28.05,0,0,0,1,8.18,18.66,18.66,0,0,0,3,6.38,14.79,14.79,0,0,0,4.8,4.13,13.91,13.91,0,0,0,6.45,1.5,16.45,16.45,0,0,0,7.13-1.5,14.37,14.37,0,0,0,5-4.13v20.11h4.42V114.43h-4.12l-.23,5.33a14.31,14.31,0,0,0-4.95-4.51,15.48,15.48,0,0,0-7.2-1.57,14.42,14.42,0,0,0-6.53,1.42,14.57,14.57,0,0,0-4.8,4.06,18.69,18.69,0,0,0-3,6.37,28.83,28.83,0,0,0-1,8.33Zm4.43-.75a29.41,29.41,0,0,1,.68-6.45,15.85,15.85,0,0,1,2.17-5.25,10.12,10.12,0,0,1,3.68-3.45,9.74,9.74,0,0,1,5.25-1.28,11.5,11.5,0,0,1,4.05.6,12.66,12.66,0,0,1,3.15,1.65,11.89,11.89,0,0,1,2.41,2.33,13.94,13.94,0,0,1,1.65,2.77v19.44a13.71,13.71,0,0,1-1.8,2.77,11.4,11.4,0,0,1-5.63,3.6,15.45,15.45,0,0,1-3.9.46,10.62,10.62,0,0,1-5.26-1.21,11.61,11.61,0,0,1-3.6-3.52,15.56,15.56,0,0,1-2.17-5.18,30.08,30.08,0,0,1-.68-6.53Zm64.71,20.19H431V114.43h-4.43v28.66a14.73,14.73,0,0,1-1.5,3.15,8.33,8.33,0,0,1-2.4,2.48,10.23,10.23,0,0,1-3.52,1.65,17,17,0,0,1-4.66.6,11,11,0,0,1-3.52-.53,7.16,7.16,0,0,1-2.93-1.87,9.13,9.13,0,0,1-1.95-3.38,17.77,17.77,0,0,1-.75-5.32V114.43H401v25.36a20.79,20.79,0,0,0,1,6.9,12.19,12.19,0,0,0,2.63,4.66,10.73,10.73,0,0,0,4.13,2.62,16.68,16.68,0,0,0,5.32.83,17,17,0,0,0,7.66-1.58,12.84,12.84,0,0,0,4.95-4.2Zm45.28,0v-.45a15,15,0,0,1-.52-1.65c-.15-.6-.23-1.28-.38-2s-.15-1.35-.22-2.1a19.05,19.05,0,0,1-.08-2.1V126.58a14.09,14.09,0,0,0-1.05-5.62,11.07,11.07,0,0,0-3-4.06,13,13,0,0,0-4.5-2.4,20.86,20.86,0,0,0-12.08.15,17.32,17.32,0,0,0-4.8,2.63,12.3,12.3,0,0,0-3.08,3.75,8.61,8.61,0,0,0-1.05,4.28l4.35.07a6.56,6.56,0,0,1,.83-3.15,8.56,8.56,0,0,1,2.17-2.55A10.35,10.35,0,0,1,452,118a12.67,12.67,0,0,1,4.2-.67q5.07,0,7.65,2.47a8.64,8.64,0,0,1,2.63,6.68V131h-8.1a32.75,32.75,0,0,0-7.58.83,17.17,17.17,0,0,0-5.7,2.55,10.36,10.36,0,0,0-4.81,9.15,10.86,10.86,0,0,0,.9,4.43,10.71,10.71,0,0,0,2.56,3.6,12,12,0,0,0,4.05,2.4,16.56,16.56,0,0,0,5.25.83,19.7,19.7,0,0,0,4.35-.53,23.2,23.2,0,0,0,3.75-1.35,14.4,14.4,0,0,0,3-2,12,12,0,0,0,2.32-2.41c.08,1,.15,2,.3,3.08a10,10,0,0,0,.6,2.48Zm-22.13-3.76a8.61,8.61,0,0,1-2.85-1.65,6.47,6.47,0,0,1-1.73-2.47,6.76,6.76,0,0,1-.67-3,7.47,7.47,0,0,1,1-3.68,7.85,7.85,0,0,1,2.85-2.78A13.61,13.61,0,0,1,453,135a24.22,24.22,0,0,1,6-.6h7.5v8.7a13,13,0,0,1-2,3.08,15.68,15.68,0,0,1-2.85,2.47,14.61,14.61,0,0,1-3.68,1.65,16.39,16.39,0,0,1-4.42.61,11,11,0,0,1-3.68-.61ZM501,114.13a7.18,7.18,0,0,0-1.28-.3,12.14,12.14,0,0,0-8.4,1.72,13.69,13.69,0,0,0-4.43,5.18l-.07-6.3h-4.28v39.62h4.35V126.81a19.21,19.21,0,0,1,1.5-3.6,10.46,10.46,0,0,1,2.33-2.78,9.58,9.58,0,0,1,3.15-1.87,11.47,11.47,0,0,1,4.05-.68,17.86,17.86,0,0,1,2.93.23Z"></path><path class="cls-2" d="M527.19,154.2a15.25,15.25,0,0,0,6.91-3.68,19.22,19.22,0,0,0,2.32-2.78l-2.77-2a13.1,13.1,0,0,1-4.88,4.05,13.81,13.81,0,0,1-6.23,1.28,12.46,12.46,0,0,1-5.55-1.21,13.33,13.33,0,0,1-4.28-3.37,15.09,15.09,0,0,1-2.77-4.95,18.5,18.5,0,0,1-1-6.16v-.82h28.29v-2.7a25.25,25.25,0,0,0-1-7.28,16.38,16.38,0,0,0-3-5.78,14.42,14.42,0,0,0-5-3.75,15.58,15.58,0,0,0-6.67-1.35,14.82,14.82,0,0,0-6.46,1.42,17.77,17.77,0,0,0-5.4,4.06,18.58,18.58,0,0,0-3.75,6.3,24.22,24.22,0,0,0-1.35,8.33v1.57a21.9,21.9,0,0,0,1.35,7.81,17.37,17.37,0,0,0,3.68,6.15,15.63,15.63,0,0,0,5.62,4,17.17,17.17,0,0,0,7.13,1.5,18.86,18.86,0,0,0,4.8-.6Zm-.75-35.72a12.13,12.13,0,0,1,3.53,2.85,13.42,13.42,0,0,1,2.1,4.13,17.45,17.45,0,0,1,.83,4.88v.45H509.11a20.2,20.2,0,0,1,1.43-5.48,13.64,13.64,0,0,1,2.62-4.2,13.33,13.33,0,0,1,3.75-2.78,12,12,0,0,1,4.66-.9,11.15,11.15,0,0,1,4.87,1Z"></path><path d="M942.36,639.62v-4.08c.06-2.88.72-5.09,2-6.59a7,7,0,0,1,5.69-2.28,7.85,7.85,0,0,1,5.87,2,9.74,9.74,0,0,1,0,11.93,6.92,6.92,0,0,1-5.33,2.15v5.46a10.76,10.76,0,0,0,8.57-3.78,16,16,0,0,0-.12-19.48,11.65,11.65,0,0,0-9.11-3.77,10.42,10.42,0,0,0-6.29,1.92,10.72,10.72,0,0,0-3.66,5.45,11,11,0,0,0-3.9-4.92,9.4,9.4,0,0,0-5.39-1.79c-3.84,0-6.77,1.14-8.93,3.41s-3.18,5.46-3.18,9.47a13.57,13.57,0,0,0,3.36,9.41,10.87,10.87,0,0,0,8.39,3.72v-5.46a6.91,6.91,0,0,1-5.27-2,7.76,7.76,0,0,1-2-5.64c0-5,2.52-7.49,7.49-7.49a6.84,6.84,0,0,1,5.33,2.22,9.07,9.07,0,0,1,2,6v4.08ZM936.66,587c-6.17.06-10.66,1.19-13.6,3.35s-4.44,5.52-4.44,10.13,1.5,8,4.56,10.19,7.73,3.24,14,3.24h7.26c6-.06,10.48-1.2,13.54-3.42s4.5-5.51,4.5-10.07-1.56-8-4.62-10.19S950,587,943.68,587Zm8.45,5.39c4.44.06,7.74.78,9.77,2a7.25,7.25,0,0,1-.18,12c-2.21,1.32-5.57,2-10.18,2h-8.7c-4.31-.06-7.55-.72-9.65-2a6.52,6.52,0,0,1-3.11-6.05,6.61,6.61,0,0,1,3.17-6.11c2.1-1.32,5.4-2,10-2Z"></path><path class="cls-3" d="M44.23,816.84H768.6M847,483.61V751.06"></path><path d="M364.47,872.54a14.55,14.55,0,0,0-18.16,0,11,11,0,0,0-3.48,8.51,9.88,9.88,0,0,0,1.68,5.69,11.75,11.75,0,0,0,4.43,3.9,11.36,11.36,0,0,0-5.21,4.2,10.84,10.84,0,0,0-1.86,6.23,11.28,11.28,0,0,0,3.66,8.81c2.52,2.22,5.75,3.3,9.89,3.3a14.35,14.35,0,0,0,9.83-3.3,11.16,11.16,0,0,0,3.71-8.81,10.39,10.39,0,0,0-2-6.23,11.81,11.81,0,0,0-5.27-4.2,11.58,11.58,0,0,0,4.56-3.9,9.82,9.82,0,0,0,1.67-5.69,10.83,10.83,0,0,0-3.47-8.51Zm-3.12,34.1a9.52,9.52,0,0,1-11.93,0,7.56,7.56,0,0,1-2.15-5.69,8,8,0,0,1,2.21-5.87,7.78,7.78,0,0,1,5.88-2.22,8.24,8.24,0,0,1,5.93,2.28,7.83,7.83,0,0,1,2.28,5.81,7.57,7.57,0,0,1-2.22,5.69Zm-.84-30.8a8,8,0,0,1,.06,10.6,6.82,6.82,0,0,1-5.15,2,7.06,7.06,0,0,1-5.22-2,8.26,8.26,0,0,1,.06-10.66,6.92,6.92,0,0,1,5.16-2,6.76,6.76,0,0,1,5.09,2Zm42,11.56c-.06-6.17-1.19-10.66-3.35-13.6s-5.52-4.44-10.13-4.44-8,1.5-10.19,4.56-3.24,7.73-3.24,14v7.26c.06,6,1.2,10.48,3.42,13.54s5.51,4.5,10.07,4.5,8-1.56,10.19-4.62,3.23-7.79,3.23-14.14Zm-5.39,8.45c-.06,4.44-.78,7.74-2,9.77a7.25,7.25,0,0,1-12-.18c-1.32-2.21-2-5.57-2-10.18v-8.69c.06-4.32.72-7.56,2-9.66a6.52,6.52,0,0,1,6.05-3.11,6.6,6.6,0,0,1,6.11,3.18c1.32,2.09,2,5.39,2,10Zm16.62-14.92h-6.29l10.37,15.64-10.67,16h6.29l7.31-11.87,7.32,11.87h6.29l-10.73-16L434,880.93h-6.29l-7,11.57Zm47.85-8.39a14.57,14.57,0,0,0-18.17,0,11,11,0,0,0-3.47,8.51,9.88,9.88,0,0,0,1.68,5.69,11.67,11.67,0,0,0,4.43,3.9,11.31,11.31,0,0,0-5.21,4.2,10.84,10.84,0,0,0-1.86,6.23,11.28,11.28,0,0,0,3.66,8.81c2.51,2.22,5.75,3.3,9.88,3.3a14.31,14.31,0,0,0,9.83-3.3,11.14,11.14,0,0,0,3.72-8.81,10.39,10.39,0,0,0-2-6.23,11.86,11.86,0,0,0-5.27-4.2,11.55,11.55,0,0,0,4.55-3.9,9.75,9.75,0,0,0,1.68-5.69,10.83,10.83,0,0,0-3.47-8.51Zm-3.12,34.1a9.52,9.52,0,0,1-11.93,0,7.53,7.53,0,0,1-2.16-5.69,7.92,7.92,0,0,1,2.22-5.87,7.77,7.77,0,0,1,5.87-2.22,8.24,8.24,0,0,1,5.94,2.28,7.83,7.83,0,0,1,2.28,5.81,7.57,7.57,0,0,1-2.22,5.69Zm-.84-30.8a8,8,0,0,1,.06,10.6,6.83,6.83,0,0,1-5.16,2,7,7,0,0,1-5.21-2,8.26,8.26,0,0,1,.06-10.66,6.91,6.91,0,0,1,5.15-2,6.78,6.78,0,0,1,5.1,2Zm42,11.56c-.06-6.17-1.2-10.66-3.35-13.6s-5.52-4.44-10.13-4.44-8,1.5-10.19,4.56-3.24,7.73-3.24,14v7.26c.06,6,1.2,10.48,3.42,13.54s5.51,4.5,10.07,4.5,8-1.56,10.19-4.62,3.23-7.79,3.23-14.14Zm-5.39,8.45c-.06,4.44-.78,7.74-2,9.77a7.26,7.26,0,0,1-12.05-.18c-1.32-2.21-2-5.57-2-10.18v-8.69c.06-4.32.71-7.56,2-9.66a7.46,7.46,0,0,1,12.17.07c1.32,2.09,2,5.39,2,10Z"></path><path class="cls-1" d="M476.18,286c-15.58,13.53-41.41,22.39-70.63,22.39-29.74,0-56-9.17-71.45-23.12Zm-26.5-4.8H360.6V262.73h89.08ZM511.46,502H308.14l-33.89-20.39h268.2ZM315.89,481.59,338.16,502m166.53-20.39L476.6,502M766.1,748.56H46.73v-267H766.1Zm-645.79-267v267m574.15-267v267"></path><path class="cls-4" d="M476.18,286c-15.58,13.53-41.41,22.39-70.63,22.39-29.74,0-56-9.17-71.45-23.12l142.08.73Zm-26.5-4.8H360.6V262.73h89.08ZM511.46,502H308.14l-33.89-20.39h268.2l-31,20.39ZM315.89,481.59,338.16,502m166.53-20.39L476.6,502M766.1,748.56H46.73v-267H766.1v267Zm-645.79-267v267m574.15-267v267"></path><line class="cls-4" x1="403.99" y1="501.95" x2="403.99" y2="506.77"></line><line class="cls-5" x1="403.99" y1="516.45" x2="403.99" y2="589.09"></line><path class="cls-1" d="M405.68,593.93v4.8m8.69,9,2.74,3.19v4.8"></path><path class="cls-4" d="M405.68,593.93v4.8m8.69,9,2.74,3.19v4.8m1.64,8v12.06"></path><polygon class="cls-1" points="414.04 642.98 417.11 642.98 417.11 639.88 414.04 642.98"></polygon><polyline class="cls-4" points="417.11 639.88 417.11 642.99 414.04 642.99"></polyline><polygon class="cls-1" points="397.29 643.72 402.51 643.72 404.83 643.72 406.87 643.72 397.29 643.72"></polygon><line class="cls-4" x1="406.87" y1="643.72" x2="397.27" y2="643.72"></line><polygon class="cls-1" points="390.85 642.98 393.93 642.98 390.85 639.88 390.85 642.98"></polygon><path class="cls-4" d="M393.93,643h-3.08v-3.1m-1.62-8V619.77"></path><polygon class="cls-1" points="390.66 610.73 390.66 615.76 390.95 607.38 390.66 610.73"></polygon><polyline class="cls-4" points="390.66 615.76 390.66 610.73 390.95 607.38"></polyline><polygon class="cls-1" points="402.96 600.43 400.39 601.42 411.23 602.74 405.24 600.43 402.96 600.43"></polygon><path class="cls-4" d="M400.39,601.42l2.56-1h2.28l6,2.31m-2.41-99-9.45,0"></path><line class="cls-6" x1="395.24" y1="513.54" x2="329.15" y2="590.22"></line><path class="cls-1" d="M323.55,598.41l.89-3.59Zm.5,24.06.88-3.6-.17-4.74Z"></path><path class="cls-4" d="M324.44,594.82l-.89,3.6m1.23,15.71.16,4.74-.89,3.6m-7.29,7-5,7.32"></path><polygon class="cls-1" points="300.61 642.41 304.58 642.69 308.07 642.36 300.61 642.41"></polygon><polyline class="cls-4" points="308.06 642.37 304.57 642.69 300.6 642.41"></polyline><path class="cls-1" d="M293.4,634.12l-1-.58-3.35-1.91Zm.48.28,1.31.74-1.79-1Z"></path><line class="cls-4" x1="295.19" y1="635.14" x2="289.06" y2="631.63"></line><polygon class="cls-1" points="283.79 624.71 284.11 628.22 284.07 620.71 283.79 624.71"></polygon><path class="cls-4" d="M284.11,628.22l-.32-3.51.28-4m8-6.58,5-7.32"></path><polygon class="cls-1" points="303.95 600.94 300.57 600.94 309.1 600.94 303.95 600.94"></polygon><polyline class="cls-4" points="300.57 600.94 303.95 600.94 309.1 600.94"></polyline><polygon class="cls-1" points="318.91 600.84 323.76 609.1 322.98 602.12 321.63 600.8 318.91 600.84"></polygon><path class="cls-4" d="M318.91,600.83l2.71,0,1.36,1.31.78,7m77.49-105.33,9.45,0"></path><line class="cls-6" x1="414.81" y1="513.54" x2="480.89" y2="590.22"></line><path class="cls-1" d="M486.5,598.41l-.89-3.59Zm-1.39,20.46.89,3.6-.73-8.34Z"></path><path class="cls-4" d="M485.61,594.82l.89,3.6m-1.23,15.7-.16,4.75.89,3.6m7.28,7,5,7.32"></path><polygon class="cls-1" points="505.47 642.69 509.44 642.41 501.98 642.37 505.47 642.69"></polygon><polyline class="cls-4" points="501.98 642.37 505.47 642.69 509.44 642.41"></polyline><polygon class="cls-1" points="517.65 633.54 516.17 634.39 514.87 635.14 521 631.63 517.65 633.54"></polygon><line class="cls-4" x1="514.86" y1="635.14" x2="520.99" y2="631.63"></line><polygon class="cls-1" points="525.95 628.22 526.26 624.71 525.98 620.71 525.95 628.22"></polygon><path class="cls-4" d="M525.94,628.22l.32-3.51-.28-4m-8-6.58-5-7.32"></path><polygon class="cls-1" points="500.94 600.94 506.09 600.94 509.48 600.94 500.94 600.94"></polygon><polyline class="cls-4" points="509.48 600.94 506.09 600.94 500.94 600.94"></polyline><polygon class="cls-1" points="487.07 602.11 486.29 609.09 491.14 600.83 488.42 600.8 487.07 602.11"></polygon><polyline class="cls-4" points="491.13 600.83 488.42 600.8 487.06 602.11 486.28 609.09"></polyline><path class="cls-4" d="M405.17,284.05V480.67M450.68,299.4l90.88,181.27M362.19,299.4l-87,181.27"></path><rect class="cls-1" x="273.62" y="470.67" width="10.7" height="10.75"></rect><rect class="cls-7" x="273.62" y="470.67" width="10.7" height="10.75"></rect><rect class="cls-1" x="275.33" y="472.38" width="7.3" height="7.36"></rect><rect class="cls-7" x="275.33" y="472.38" width="7.3" height="7.36"></rect><rect class="cls-1" x="275.33" y="472.38" width="7.3" height="7.36"></rect><rect class="cls-4" x="275.33" y="472.38" width="7.3" height="7.36"></rect><rect class="cls-1" x="398.01" y="470.67" width="16.54" height="10.75"></rect><rect class="cls-7" x="398.01" y="470.67" width="16.54" height="10.75"></rect><rect class="cls-1" x="399.72" y="472.38" width="13.13" height="7.36"></rect><rect class="cls-7" x="399.72" y="472.38" width="13.13" height="7.36"></rect><rect class="cls-1" x="399.72" y="472.38" width="13.13" height="7.36"></rect><rect class="cls-4" x="399.72" y="472.38" width="13.13" height="7.36"></rect><rect class="cls-1" x="532.25" y="470.67" width="13.62" height="10.75"></rect><rect class="cls-7" x="532.25" y="470.67" width="13.62" height="10.75"></rect><rect class="cls-1" x="533.96" y="472.38" width="10.2" height="7.36"></rect><rect class="cls-7" x="533.96" y="472.38" width="10.21" height="7.36"></rect><rect class="cls-1" x="533.96" y="472.38" width="10.2" height="7.36"></rect><rect class="cls-4" x="533.96" y="472.38" width="10.21" height="7.36"></rect></svg> 