<?xml version="1.0" encoding="UTF-8"?> <svg xmlns="http://www.w3.org/2000/svg" id="Livello_1" data-name="Livello 1" viewBox="0 0 1312 998.95"><defs><style>.cls-1{fill:#fff;}.cls-2{fill:#231f20;}.cls-3,.cls-4,.cls-5,.cls-6,.cls-7{fill:none;stroke-width:0.25px;}.cls-3,.cls-4,.cls-5{stroke:#000;}.cls-4{stroke-linejoin:round;}.cls-5,.cls-6,.cls-7{stroke-miterlimit:10;}.cls-6,.cls-7{stroke:#010101;}.cls-6{stroke-dasharray:5 5;}.cls-7{stroke-dasharray:2.44 2.44;}</style></defs><title>sosp. square 100</title><rect class="cls-1" width="1312" height="998.95"></rect><path class="cls-2" d="M454.55.68h-1.12l-22.06,8v8.55l12.6-3.9V54.1h10.58Zm53.23,22.13a34.66,34.66,0,0,0-1.35-10.35,18.44,18.44,0,0,0-3.67-7.06,13.89,13.89,0,0,0-5.71-4.05A19.14,19.14,0,0,0,489.7,0a19.43,19.43,0,0,0-7.35,1.35,13.64,13.64,0,0,0-5.63,4.05A18.45,18.45,0,0,0,473,12.46a34.66,34.66,0,0,0-1.35,10.35V32A34.49,34.49,0,0,0,473,42.32a19.9,19.9,0,0,0,3.68,7.13,13.92,13.92,0,0,0,5.7,4,19.44,19.44,0,0,0,7.36,1.35,19.17,19.17,0,0,0,7.35-1.35,13.79,13.79,0,0,0,5.7-4,19.9,19.9,0,0,0,3.68-7.13A37.53,37.53,0,0,0,507.78,32ZM497.2,33.46a27.8,27.8,0,0,1-.52,6,11.57,11.57,0,0,1-1.43,4,5.37,5.37,0,0,1-2.32,2.18,7,7,0,0,1-3.15.68,7,7,0,0,1-3.16-.68,5.37,5.37,0,0,1-2.32-2.18,11.32,11.32,0,0,1-1.5-4,33.8,33.8,0,0,1-.45-6V21.23a32.8,32.8,0,0,1,.45-5.92,11.15,11.15,0,0,1,1.42-3.9,6.4,6.4,0,0,1,2.33-2.18,7.41,7.41,0,0,1,3.15-.6,7,7,0,0,1,3.15.6,5.94,5.94,0,0,1,2.4,2.18,11.15,11.15,0,0,1,1.43,3.9,27,27,0,0,1,.52,5.92Zm53.61-10.65a34.66,34.66,0,0,0-1.35-10.35,18.45,18.45,0,0,0-3.68-7.06,13.79,13.79,0,0,0-5.7-4.05A19.14,19.14,0,0,0,532.73,0a19.52,19.52,0,0,0-7.36,1.35,13.61,13.61,0,0,0-5.62,4.05,18.45,18.45,0,0,0-3.68,7.06,34.66,34.66,0,0,0-1.35,10.35V32a34.49,34.49,0,0,0,1.35,10.28,19.9,19.9,0,0,0,3.68,7.13,13.79,13.79,0,0,0,5.7,4,19.43,19.43,0,0,0,7.35,1.35,19.22,19.22,0,0,0,7.36-1.35,13.92,13.92,0,0,0,5.7-4,20.22,20.22,0,0,0,3.68-7.13A37.53,37.53,0,0,0,550.81,32ZM540.23,33.46a27.8,27.8,0,0,1-.52,6,11.57,11.57,0,0,1-1.43,4A5.39,5.39,0,0,1,536,45.62a7.64,7.64,0,0,1-6.3,0,5.37,5.37,0,0,1-2.32-2.18,11.52,11.52,0,0,1-1.51-4,33.8,33.8,0,0,1-.45-6V21.23a32.8,32.8,0,0,1,.45-5.92,11.15,11.15,0,0,1,1.43-3.9,6.4,6.4,0,0,1,2.33-2.18,7.35,7.35,0,0,1,3.15-.6,7,7,0,0,1,3.15.6,6.07,6.07,0,0,1,2.4,2.18,11.15,11.15,0,0,1,1.43,3.9,27,27,0,0,1,.52,5.92ZM568,29.94a15.81,15.81,0,0,1,1.2-1.05,6.66,6.66,0,0,1,1.43-1,12.49,12.49,0,0,1,1.95-.6,9,9,0,0,1,2.55-.3,10.29,10.29,0,0,1,3.83.68,6.78,6.78,0,0,1,2.62,1.95,6.53,6.53,0,0,1,1.58,2.92,13,13,0,0,1,.52,3.83,21.26,21.26,0,0,1-.37,3.9,10,10,0,0,1-1.35,3.15,6.32,6.32,0,0,1-2.33,2.11,6.86,6.86,0,0,1-3.38.75A7.26,7.26,0,0,1,571,44.42a7.6,7.6,0,0,1-2.32-5.18H558.12a15.81,15.81,0,0,0,1.65,6.61,15.09,15.09,0,0,0,4.05,4.87,16.83,16.83,0,0,0,5.71,3.08,22.31,22.31,0,0,0,6.67,1.05,19.9,19.9,0,0,0,8-1.5,15.73,15.73,0,0,0,9-9.61A21.79,21.79,0,0,0,594.21,37a26.3,26.3,0,0,0-1.05-7.58,16.06,16.06,0,0,0-3.22-5.62,13.65,13.65,0,0,0-5.11-3.53,17.86,17.86,0,0,0-6.9-1.2,24.3,24.3,0,0,0-2.48.15,22.54,22.54,0,0,0-2.32.52c-.68.23-1.28.45-1.8.68a5.6,5.6,0,0,0-1.35.67L571.25,9.6h21.24V.75H562.55l-3.08,27.09ZM622,27H601.37v8.48H622Zm44.61,18.54h-23L653,35.64c1.8-1.87,3.45-3.6,4.88-5.33a36.33,36.33,0,0,0,3.75-5,24.64,24.64,0,0,0,2.33-5,15,15,0,0,0,.9-5.17,17.53,17.53,0,0,0-1.13-6.38,12.63,12.63,0,0,0-3.37-4.73,15.31,15.31,0,0,0-5.41-3,25.29,25.29,0,0,0-7.5-1,19.64,19.64,0,0,0-7.73,1.43A17.09,17.09,0,0,0,634,5.18a16.46,16.46,0,0,0-3.75,5.55A19.16,19.16,0,0,0,629,17.56h10.65a10.57,10.57,0,0,1,.53-3.6,8.52,8.52,0,0,1,1.42-2.86A6.84,6.84,0,0,1,644,9.23a7.38,7.38,0,0,1,3.3-.68,6.5,6.5,0,0,1,5.1,2,8.19,8.19,0,0,1,1.8,5.63,7,7,0,0,1-.37,2.4,13.26,13.26,0,0,1-1.13,2.7,22.26,22.26,0,0,1-2.17,3.23,44.73,44.73,0,0,1-3.31,3.9L630,46.82V54.1h36.61ZM704.4.75H693.67L671.46,35.87l.45,6.67h21.91V54.1H704.4V42.54h6V34h-6ZM693.07,16.43l.75-1.27V34H682Z"></path><path class="cls-2" d="M485.41,146.62a7.06,7.06,0,0,1-2,2.32,14.29,14.29,0,0,1-3.23,1.58,15.66,15.66,0,0,1-4.42.53,16.3,16.3,0,0,1-3.75-.38,11.21,11.21,0,0,1-3.53-1.35,7.6,7.6,0,0,1-2.63-2.48,7.82,7.82,0,0,1-1.2-3.9h-4.43a10.06,10.06,0,0,0,1.06,4.43,11.17,11.17,0,0,0,3,3.83,14.61,14.61,0,0,0,4.8,2.62,22.73,22.73,0,0,0,6.68,1,21.41,21.41,0,0,0,6.07-.83,12.83,12.83,0,0,0,4.58-2.25,11,11,0,0,0,3-3.45,9.84,9.84,0,0,0,1-4.5,9.4,9.4,0,0,0-.83-4.21,8.45,8.45,0,0,0-2.47-3.22,18.19,18.19,0,0,0-4.36-2.48,41.91,41.91,0,0,0-6.15-1.8,41.45,41.45,0,0,1-5.4-1.57,11.61,11.61,0,0,1-3.23-1.73,4,4,0,0,1-1.57-2,6.22,6.22,0,0,1-.45-2.4,5.9,5.9,0,0,1,.6-2.47,5.75,5.75,0,0,1,1.65-2.25,10.09,10.09,0,0,1,3-1.58,12.46,12.46,0,0,1,4.35-.6,12.9,12.9,0,0,1,4.35.68,9.54,9.54,0,0,1,3.23,1.8,7.55,7.55,0,0,1,2,2.62,7,7,0,0,1,.67,3h4.35a10.93,10.93,0,0,0-1-4.72,11.75,11.75,0,0,0-2.85-3.76,14.46,14.46,0,0,0-4.66-2.47,21.13,21.13,0,0,0-11.93-.08,14.46,14.46,0,0,0-4.42,2.33,10.2,10.2,0,0,0-2.78,3.45,9.15,9.15,0,0,0-1,4.2,9.41,9.41,0,0,0,.9,4.21,8.07,8.07,0,0,0,2.7,3.07,15.73,15.73,0,0,0,4.35,2.25,46.63,46.63,0,0,0,5.85,1.58,31,31,0,0,1,5.4,1.65,10.87,10.87,0,0,1,3.23,2,7,7,0,0,1,1.58,2.26,7.17,7.17,0,0,1,.45,2.47,5.51,5.51,0,0,1-.68,2.63Zm13.09-12a28.05,28.05,0,0,0,1.05,8.18,18.66,18.66,0,0,0,3,6.38,14.79,14.79,0,0,0,4.8,4.13,13.91,13.91,0,0,0,6.45,1.5,16.45,16.45,0,0,0,7.13-1.5,14.28,14.28,0,0,0,5-4.13v20.11h4.42V114.43h-4.12l-.23,5.33a14.22,14.22,0,0,0-4.95-4.51,15.48,15.48,0,0,0-7.2-1.57,13.42,13.42,0,0,0-11.33,5.48,18.69,18.69,0,0,0-3,6.37,28.83,28.83,0,0,0-1.05,8.33Zm4.43-.75a29.41,29.41,0,0,1,.68-6.45,15.85,15.85,0,0,1,2.17-5.25,10.12,10.12,0,0,1,3.68-3.45,9.77,9.77,0,0,1,5.25-1.28,11.5,11.5,0,0,1,4,.6,12.66,12.66,0,0,1,3.15,1.65,11.89,11.89,0,0,1,2.41,2.33,13.94,13.94,0,0,1,1.65,2.77v19.44a13.71,13.71,0,0,1-1.8,2.77,11.74,11.74,0,0,1-2.48,2.18,12,12,0,0,1-3.15,1.42,15.45,15.45,0,0,1-3.9.46,10.65,10.65,0,0,1-5.26-1.21,11.61,11.61,0,0,1-3.6-3.52,15.56,15.56,0,0,1-2.17-5.18,30.08,30.08,0,0,1-.68-6.53Zm64.71,20.19h4.28V114.43h-4.43v28.66a14.73,14.73,0,0,1-1.5,3.15,8.33,8.33,0,0,1-2.4,2.48,10.23,10.23,0,0,1-3.52,1.65,17,17,0,0,1-4.66.6,11,11,0,0,1-3.52-.53,7.16,7.16,0,0,1-2.93-1.87,9.27,9.27,0,0,1-2-3.38,17.77,17.77,0,0,1-.75-5.32V114.43h-4.35v25.36a20.79,20.79,0,0,0,1,6.9,12.19,12.19,0,0,0,2.63,4.66,10.8,10.8,0,0,0,4.13,2.62,16.68,16.68,0,0,0,5.32.83,17,17,0,0,0,7.66-1.58,12.84,12.84,0,0,0,5-4.2Zm45.28,0v-.45a15,15,0,0,1-.52-1.65c-.15-.6-.23-1.28-.38-2s-.15-1.35-.22-2.1a19.05,19.05,0,0,1-.08-2.1V126.58a14.09,14.09,0,0,0-1.05-5.62,11.07,11.07,0,0,0-3-4.06,13,13,0,0,0-4.5-2.4,20.86,20.86,0,0,0-12.08.15,17.32,17.32,0,0,0-4.8,2.63,12.3,12.3,0,0,0-3.08,3.75,8.61,8.61,0,0,0-1.05,4.28l4.35.07a6.56,6.56,0,0,1,.83-3.15,8.56,8.56,0,0,1,2.17-2.55,10.35,10.35,0,0,1,3.38-1.65,12.67,12.67,0,0,1,4.2-.67q5.07,0,7.66,2.47a8.67,8.67,0,0,1,2.62,6.68V131h-8.1a32.75,32.75,0,0,0-7.58.83,17.17,17.17,0,0,0-5.7,2.55,10.38,10.38,0,0,0-4.8,9.15,10.86,10.86,0,0,0,.9,4.43,10.55,10.55,0,0,0,2.55,3.6,12,12,0,0,0,4.05,2.4,16.56,16.56,0,0,0,5.25.83,19.7,19.7,0,0,0,4.35-.53,23.2,23.2,0,0,0,3.75-1.35,14.15,14.15,0,0,0,3-2,12,12,0,0,0,2.32-2.41c.08,1,.15,2,.3,3.08a10,10,0,0,0,.6,2.48Zm-22.13-3.76a8.61,8.61,0,0,1-2.85-1.65,6.47,6.47,0,0,1-1.73-2.47,6.76,6.76,0,0,1-.67-3,7.47,7.47,0,0,1,1-3.68,7.85,7.85,0,0,1,2.85-2.78,13.61,13.61,0,0,1,4.51-1.72,24.22,24.22,0,0,1,6-.6h7.5v8.7a13,13,0,0,1-2,3.08,15,15,0,0,1-2.85,2.47,14.61,14.61,0,0,1-3.68,1.65,16.39,16.39,0,0,1-4.42.61,11,11,0,0,1-3.68-.61Zm51.06-36.16a7.18,7.18,0,0,0-1.28-.3,12.14,12.14,0,0,0-8.4,1.72,13.69,13.69,0,0,0-4.43,5.18l-.07-6.3h-4.28v39.62h4.35V126.81a19.21,19.21,0,0,1,1.5-3.6,10.46,10.46,0,0,1,2.33-2.78,9.58,9.58,0,0,1,3.15-1.87,11.47,11.47,0,0,1,4-.68,17.86,17.86,0,0,1,2.93.23Z"></path><path class="cls-2" d="M668.09,154.2a15.11,15.11,0,0,0,6.91-3.68,19.22,19.22,0,0,0,2.32-2.78l-2.77-2a13.1,13.1,0,0,1-4.88,4.05,13.81,13.81,0,0,1-6.23,1.28,12.46,12.46,0,0,1-5.55-1.21,13.33,13.33,0,0,1-4.28-3.37,15.09,15.09,0,0,1-2.77-4.95,18.5,18.5,0,0,1-1-6.16v-.82h28.29v-2.7a25.25,25.25,0,0,0-1-7.28,16.38,16.38,0,0,0-3-5.78,14.42,14.42,0,0,0-5-3.75,15.58,15.58,0,0,0-6.67-1.35A14.85,14.85,0,0,0,656,115.1a17.77,17.77,0,0,0-5.4,4.06,18.74,18.74,0,0,0-3.75,6.3,24.22,24.22,0,0,0-1.35,8.33v1.57a21.9,21.9,0,0,0,1.35,7.81,17.37,17.37,0,0,0,3.68,6.15,15.63,15.63,0,0,0,5.62,4,17.2,17.2,0,0,0,7.13,1.5,18.86,18.86,0,0,0,4.8-.6Zm-.75-35.72a12.13,12.13,0,0,1,3.53,2.85,13.42,13.42,0,0,1,2.1,4.13,17.45,17.45,0,0,1,.83,4.88v.45H650a20.2,20.2,0,0,1,1.43-5.48,13.64,13.64,0,0,1,2.62-4.2,13.33,13.33,0,0,1,3.75-2.78,12,12,0,0,1,4.66-.9,11.15,11.15,0,0,1,4.87,1Z"></path><path d="M1198.42,625.22v-4.07c.06-2.88.72-5.1,2-6.59a7,7,0,0,1,5.69-2.28,7.85,7.85,0,0,1,5.87,2,8.3,8.3,0,0,1,2,6,8.22,8.22,0,0,1-2,5.87,6.9,6.9,0,0,1-5.33,2.16v5.46a10.76,10.76,0,0,0,8.57-3.78,16,16,0,0,0-.12-19.48,11.61,11.61,0,0,0-9.11-3.77,10.41,10.41,0,0,0-6.29,1.91,10.79,10.79,0,0,0-3.66,5.46,11,11,0,0,0-3.9-4.92,9.34,9.34,0,0,0-5.39-1.8c-3.84,0-6.77,1.14-8.93,3.42s-3.18,5.45-3.18,9.47a13.59,13.59,0,0,0,3.36,9.41,10.87,10.87,0,0,0,8.39,3.72V628a6.88,6.88,0,0,1-5.27-2,7.72,7.72,0,0,1-2-5.63c0-5,2.52-7.49,7.49-7.49a6.84,6.84,0,0,1,5.33,2.22,9.05,9.05,0,0,1,2,6v4.07Zm-5.7-52.58c-6.17.06-10.66,1.2-13.6,3.36s-4.44,5.51-4.44,10.13,1.5,8,4.56,10.19,7.73,3.23,14,3.23h7.26c6-.06,10.48-1.19,13.54-3.41s4.5-5.52,4.5-10.07-1.56-8-4.62-10.19-7.79-3.24-14.14-3.24Zm8.45,5.4c4.44.06,7.74.78,9.77,2a7.25,7.25,0,0,1-.18,12c-2.21,1.32-5.57,2-10.18,2h-8.7c-4.31-.06-7.55-.72-9.65-2a6.53,6.53,0,0,1-3.11-6,6.6,6.6,0,0,1,3.17-6.11c2.1-1.32,5.4-2,10-2Z"></path><path class="cls-3" d="M134,816.84H993.19M1103,475.6V739.9"></path><path d="M474.22,869.78h-.84l-15.52,5.82v4.91l10.9-4v36.08h5.46Zm42.63,17.62c-.06-6.17-1.2-10.66-3.36-13.6s-5.51-4.44-10.13-4.44-8,1.5-10.18,4.56-3.24,7.73-3.24,14v7.26c.06,6,1.2,10.48,3.42,13.54s5.51,4.5,10.06,4.5,8-1.56,10.19-4.62,3.24-7.79,3.24-14.14Zm-5.39,8.45c-.06,4.44-.78,7.74-2,9.77a7.26,7.26,0,0,1-12.05-.18c-1.32-2.21-2-5.57-2-10.18v-8.69c.06-4.32.72-7.56,2-9.66a6.54,6.54,0,0,1,6.05-3.11,6.61,6.61,0,0,1,6.12,3.18c1.32,2.09,2,5.39,2,10Zm39.09-8.45c-.06-6.17-1.2-10.66-3.35-13.6s-5.52-4.44-10.13-4.44-8,1.5-10.19,4.56-3.24,7.73-3.24,14v7.26c.06,6,1.2,10.48,3.42,13.54s5.51,4.5,10.07,4.5,8-1.56,10.19-4.62,3.23-7.79,3.23-14.14Zm-5.39,8.45c-.06,4.44-.78,7.74-2,9.77a7.26,7.26,0,0,1-12-.18c-1.32-2.21-2-5.57-2-10.18v-8.69c.07-4.32.72-7.56,2-9.66a7.46,7.46,0,0,1,12.17.07c1.32,2.09,2,5.39,2,10Zm16.62-14.92h-6.3l10.37,15.64-10.66,16h6.29l7.31-11.87,7.31,11.87h6.3l-10.73-16L582,880.93h-6.3l-7,11.57Zm43.29-11.15h-.84L588.7,875.6v4.91l10.91-4v36.08h5.46ZM647.7,887.4c-.06-6.17-1.2-10.66-3.36-13.6s-5.51-4.44-10.13-4.44-8,1.5-10.19,4.56-3.23,7.73-3.23,14v7.26c.06,6,1.2,10.48,3.41,13.54s5.52,4.5,10.07,4.5,8-1.56,10.19-4.62,3.24-7.79,3.24-14.14Zm-5.4,8.45c0,4.44-.77,7.74-2,9.77a7.26,7.26,0,0,1-12-.18c-1.32-2.21-2-5.57-2-10.18v-8.69c.06-4.32.72-7.56,2-9.66a6.54,6.54,0,0,1,6.05-3.11,6.61,6.61,0,0,1,6.12,3.18c1.32,2.09,2,5.39,2,10Zm39.1-8.45c-.06-6.17-1.2-10.66-3.36-13.6s-5.51-4.44-10.12-4.44-8,1.5-10.19,4.56-3.24,7.73-3.24,14v7.26c.06,6,1.2,10.48,3.42,13.54s5.51,4.5,10.07,4.5,8-1.56,10.18-4.62,3.24-7.79,3.24-14.14ZM676,895.85c-.06,4.44-.78,7.74-2,9.77a7.26,7.26,0,0,1-12.05-.18c-1.32-2.21-2-5.57-2-10.18v-8.69c.06-4.32.72-7.56,2-9.66A7.46,7.46,0,0,1,674,877c1.32,2.09,2,5.39,2,10Z"></path><path class="cls-4" d="M633.55,287.47c-17,10.72-42,17.49-70,17.49-27.63,0-52.46-6.63-69.45-17.16l139.44-.33Zm-23.61,0H517.19V262.73h92.75Zm380.75,456.1H136.45V474.83H990.69ZM659.1,501.71h-192l-29.67-26.88H691.56L659.1,501.71Zm-192-26.88,27,26.88m160.35-26.88-27.82,26.88"></path><line class="cls-4" x1="563.57" y1="501.68" x2="563.57" y2="506.43"></line><path class="cls-4" d="M609.24,295.14,694.13,473M517.94,295.14,434.89,473M563.6,284.58V473"></path><rect class="cls-1" x="556.1" y="463.72" width="15.89" height="10.7"></rect><rect class="cls-5" x="556.1" y="463.72" width="15.89" height="10.7"></rect><rect class="cls-1" x="559.56" y="467.14" width="8.95" height="3.88"></rect><rect class="cls-4" x="559.57" y="467.14" width="8.94" height="3.88"></rect><line class="cls-5" x1="197.95" y1="474.43" x2="197.95" y2="746.97"></line><line class="cls-4" x1="200.91" y1="474.43" x2="200.91" y2="746.97"></line><line class="cls-5" x1="928.24" y1="474.43" x2="928.24" y2="746.97"></line><line class="cls-4" x1="925.3" y1="474.43" x2="925.3" y2="746.97"></line><line class="cls-6" x1="646.67" y1="608.74" x2="570.91" y2="511.56"></line><line class="cls-6" x1="481.36" y1="608.74" x2="551.41" y2="517.61"></line><line class="cls-7" x1="553.9" y1="514.51" x2="556.23" y2="511.56"></line><line class="cls-6" x1="563.5" y1="502.64" x2="563.5" y2="606.83"></line><polygon class="cls-6" points="479.56 610.38 465.93 612.92 454.08 629.31 472.15 641.05 484.01 623.82 479.56 610.38"></polygon><polygon class="cls-6" points="647.64 610.38 661.27 612.92 673.12 629.31 655.05 641.05 643.18 623.82 647.64 610.38"></polygon><polygon class="cls-6" points="562.89 612.25 553.13 622.1 552.73 642.32 574.27 641.68 574.2 620.75 562.89 612.25"></polygon></svg> 