<?xml version="1.0" encoding="UTF-8"?> <svg xmlns="http://www.w3.org/2000/svg" id="Livello_1" data-name="Livello 1" viewBox="0 0 1166.67 998.95"><defs><style>.cls-1{fill:#fff;}.cls-2{fill:#231f20;}.cls-3,.cls-4{fill:none;stroke:#000;stroke-width:0.25px;}.cls-4{stroke-miterlimit:10;}</style></defs><title>sosp. low cylinder 80</title><rect class="cls-1" width="1166.67" height="998.95"></rect><path class="cls-2" d="M356.2,25.16a38.36,38.36,0,0,0-1.49-11.42A20.43,20.43,0,0,0,350.65,6a15.19,15.19,0,0,0-6.29-4.47A21.19,21.19,0,0,0,336.25,0a21.48,21.48,0,0,0-8.11,1.49A15,15,0,0,0,321.93,6a20.43,20.43,0,0,0-4.06,7.78,38.36,38.36,0,0,0-1.49,11.42V35.34a38.23,38.23,0,0,0,1.49,11.35,22.16,22.16,0,0,0,4.06,7.86A15.19,15.19,0,0,0,328.22,59a21.48,21.48,0,0,0,8.11,1.49A21.19,21.19,0,0,0,344.44,59a15.22,15.22,0,0,0,6.3-4.47,22.15,22.15,0,0,0,4.05-7.86,41.27,41.27,0,0,0,1.41-11.35ZM344.53,36.92a30.46,30.46,0,0,1-.58,6.62,12.72,12.72,0,0,1-1.58,4.39,5.93,5.93,0,0,1-2.56,2.4,8.53,8.53,0,0,1-6.95,0,5.89,5.89,0,0,1-2.57-2.4,12.87,12.87,0,0,1-1.66-4.39,37.39,37.39,0,0,1-.49-6.62V23.43a36.35,36.35,0,0,1,.49-6.54,12.44,12.44,0,0,1,1.58-4.31,7.09,7.09,0,0,1,2.56-2.4,8.12,8.12,0,0,1,3.48-.66,7.68,7.68,0,0,1,3.48.66,6.71,6.71,0,0,1,2.64,2.4A12.24,12.24,0,0,1,344,16.89a29.62,29.62,0,0,1,.58,6.54ZM394.06.25a30.75,30.75,0,0,0-12.66,2.4A26.67,26.67,0,0,0,372,9.27a30.74,30.74,0,0,0-5.88,10.26,40.57,40.57,0,0,0-2,13v4.55a28.85,28.85,0,0,0,1.49,9.52A22,22,0,0,0,369.73,54a18.85,18.85,0,0,0,6.54,4.8,20.34,20.34,0,0,0,8.52,1.74,21.36,21.36,0,0,0,8.2-1.57,19,19,0,0,0,6.29-4.31,18.6,18.6,0,0,0,4-6.37,23,23,0,0,0,1.41-7.95,28.93,28.93,0,0,0-1.08-7.7,19.17,19.17,0,0,0-3.14-6.37,15.46,15.46,0,0,0-5.22-4.3,16,16,0,0,0-7.37-1.66,17.43,17.43,0,0,0-6.7,1.32A16.14,16.14,0,0,0,376,25.16a19.18,19.18,0,0,1,2-6.37,14.43,14.43,0,0,1,3.81-4.8,18.22,18.22,0,0,1,5.8-3.06,22.62,22.62,0,0,1,7.45-1.08h.66V.25Zm-6.12,30.21a9.16,9.16,0,0,1,2.73,2.24,11.19,11.19,0,0,1,1.74,3.39,14.34,14.34,0,0,1,.58,4.3,14.4,14.4,0,0,1-.58,4.31A10.74,10.74,0,0,1,390.67,48,6.83,6.83,0,0,1,388,50.24a6.74,6.74,0,0,1-3.48.83,8.7,8.7,0,0,1-3.56-.74A8.43,8.43,0,0,1,378.17,48a12.74,12.74,0,0,1-1.74-3.89,21.6,21.6,0,0,1-.66-5.46V35.1A9.56,9.56,0,0,1,379,31.29a9,9,0,0,1,2.4-1.16,9.79,9.79,0,0,1,6.54.33Zm63.11-5.3a38.36,38.36,0,0,0-1.49-11.42A20.43,20.43,0,0,0,445.5,6a15.19,15.19,0,0,0-6.29-4.47A21.19,21.19,0,0,0,431.1,0,21.48,21.48,0,0,0,423,1.49,15,15,0,0,0,416.78,6a20.43,20.43,0,0,0-4.06,7.78,38.36,38.36,0,0,0-1.49,11.42V35.34a38.23,38.23,0,0,0,1.49,11.35,22.16,22.16,0,0,0,4.06,7.86A15.19,15.19,0,0,0,423.07,59a21.48,21.48,0,0,0,8.11,1.49A21.19,21.19,0,0,0,439.29,59a15.13,15.13,0,0,0,6.29-4.47,22,22,0,0,0,4.06-7.86,41.27,41.27,0,0,0,1.41-11.35ZM439.38,36.92a30.46,30.46,0,0,1-.58,6.62,12.72,12.72,0,0,1-1.58,4.39,5.93,5.93,0,0,1-2.56,2.4,8.53,8.53,0,0,1-7,0,5.89,5.89,0,0,1-2.57-2.4,12.87,12.87,0,0,1-1.66-4.39,37.39,37.39,0,0,1-.49-6.62V23.43a36.35,36.35,0,0,1,.49-6.54,12.24,12.24,0,0,1,1.58-4.31,7.09,7.09,0,0,1,2.56-2.4,8.12,8.12,0,0,1,3.48-.66,7.68,7.68,0,0,1,3.48.66,6.71,6.71,0,0,1,2.64,2.4,12.24,12.24,0,0,1,1.58,4.31,29.62,29.62,0,0,1,.58,6.54ZM493.46.83H481.63l-24.5,38.74.49,7.36h24.17V59.68h11.67V46.93h6.63V37.5h-6.63ZM481,18.13l.83-1.41V37.5H468.71ZM529.59,29.8H506.83v9.35h22.76Zm49.22,20.44H553.48l10.35-10.92c2-2.07,3.8-4,5.38-5.88a39.74,39.74,0,0,0,4.13-5.54,27.22,27.22,0,0,0,2.57-5.47,16.61,16.61,0,0,0,1-5.71,19.32,19.32,0,0,0-1.24-7,14.12,14.12,0,0,0-3.72-5.21,16.55,16.55,0,0,0-6-3.31A27.59,27.59,0,0,0,557.7,0a21.86,21.86,0,0,0-8.53,1.57,19,19,0,0,0-6.37,4.14,18.35,18.35,0,0,0-4.14,6.13,21,21,0,0,0-1.41,7.53H549a11.6,11.6,0,0,1,.58-4,9.31,9.31,0,0,1,1.57-3.15,7.62,7.62,0,0,1,2.73-2.07,8.15,8.15,0,0,1,3.64-.74,7.16,7.16,0,0,1,5.63,2.23,9,9,0,0,1,2,6.21,7.69,7.69,0,0,1-.41,2.65,14.57,14.57,0,0,1-1.25,3,24.21,24.21,0,0,1-2.4,3.56,47.89,47.89,0,0,1-3.64,4.3l-19,20.28v8h40.4ZM614.27.74H613L588.69,9.52V19l13.91-4.31v45h11.67Z"></path><path class="cls-2" d="M268.58,107.86H263.7v62.08h4.88ZM279,148.75a27.61,27.61,0,0,0,1.41,8.86,20.74,20.74,0,0,0,4,6.95,17.75,17.75,0,0,0,6.13,4.55,20.25,20.25,0,0,0,16.06,0,18.84,18.84,0,0,0,6.21-4.55,22,22,0,0,0,3.89-6.95,27.61,27.61,0,0,0,1.4-8.86v-1.32a27.12,27.12,0,0,0-1.4-8.78,21.47,21.47,0,0,0-3.89-7,18.87,18.87,0,0,0-6.21-4.56,19.81,19.81,0,0,0-8.11-1.65,19.32,19.32,0,0,0-7.95,1.65,18.87,18.87,0,0,0-6.21,4.56,21.47,21.47,0,0,0-3.89,7,27.12,27.12,0,0,0-1.41,8.78Zm4.89-1.32a23.24,23.24,0,0,1,.91-6.79,18.34,18.34,0,0,1,2.81-5.71,13.08,13.08,0,0,1,4.64-3.89,12.68,12.68,0,0,1,6.21-1.49,13.31,13.31,0,0,1,6.37,1.49,13.16,13.16,0,0,1,4.64,3.89,18.34,18.34,0,0,1,2.81,5.71,23.29,23.29,0,0,1,1,6.79v1.32a23.43,23.43,0,0,1-1,6.87,18.34,18.34,0,0,1-2.81,5.71,15.23,15.23,0,0,1-4.64,3.89,12.75,12.75,0,0,1-6.29,1.41,13,13,0,0,1-6.29-1.41,15.11,15.11,0,0,1-4.64-3.89,18.34,18.34,0,0,1-2.81-5.71,23.42,23.42,0,0,1-.91-6.87Zm45.31-21.2h-5l12.66,43.71H341l11-34.6.58-2.48.5,2.4,11.25,34.68h4.06l12.75-43.71h-5l-9,33.53-.91,4.22-1.16-4.55-10.35-33.2h-4.14l-10.51,33.45-1,4-.67-3.81Zm91,39a14,14,0,0,1-4.3-3.89,17.57,17.57,0,0,1-2.32-5.71,29.59,29.59,0,0,1-.74-6.7v-1.66a30.2,30.2,0,0,1,.74-6.71,15.64,15.64,0,0,1,2.4-5.62,12.28,12.28,0,0,1,4.22-4,13.73,13.73,0,0,1,6.38-1.4,14.22,14.22,0,0,1,4.63.74,12.68,12.68,0,0,1,3.81,2.32,11.28,11.28,0,0,1,2.65,3.56,12.59,12.59,0,0,1,1.08,4.8h4.71a19.32,19.32,0,0,0-1.49-6.46,15.87,15.87,0,0,0-8.85-8,20.43,20.43,0,0,0-14.57.58,17.25,17.25,0,0,0-5.88,4.64,21.25,21.25,0,0,0-3.56,7,31.56,31.56,0,0,0-1.16,8.61v1.66a31.92,31.92,0,0,0,1.16,8.6,21.4,21.4,0,0,0,3.56,7,16.93,16.93,0,0,0,5.88,4.55,17.65,17.65,0,0,0,8,1.74,20.22,20.22,0,0,0,6.37-1.08,17.77,17.77,0,0,0,5.22-3,14.07,14.07,0,0,0,3.72-4.55,14.57,14.57,0,0,0,1.57-5.71h-4.71a10.54,10.54,0,0,1-1.16,4.38,12.94,12.94,0,0,1-2.73,3.23A12.74,12.74,0,0,1,431,166a13.49,13.49,0,0,1-4.47.66,12.7,12.7,0,0,1-6.38-1.41Zm33.16-39H448l16.47,43.38-2.15,5.71a17.51,17.51,0,0,1-1.49,3.48,10,10,0,0,1-2,2.48,7.19,7.19,0,0,1-2.56,1.49,11.1,11.1,0,0,1-3.48.5,6.25,6.25,0,0,1-1.16-.09c-.58-.08-1-.08-1.32-.16v4a2.55,2.55,0,0,1,.74.17c.33.08.66.08,1,.17s.75.08,1.08.16h.91a11,11,0,0,0,5.13-1.07,14,14,0,0,0,3.48-2.74,15.08,15.08,0,0,0,2.23-3.47,32.38,32.38,0,0,0,1.41-3.4l18.54-50.66h-5.21L466.89,163Zm44.41-18.37h-4.89v62.08h4.89Zm18.52,18.37h-4.88v43.71h4.88Zm-4.88-10.34a3.49,3.49,0,0,0,2.48.91,3.31,3.31,0,0,0,2.4-.91,3.07,3.07,0,0,0,.91-2.32,3,3,0,0,0-.91-2.32,3.07,3.07,0,0,0-2.4-1,3.23,3.23,0,0,0-2.48,1,3.2,3.2,0,0,0-.83,2.32,3.33,3.33,0,0,0,.83,2.32Zm17.94,10.34v43.71h4.8V140a18.12,18.12,0,0,1,1.91-3.81,13.52,13.52,0,0,1,2.73-3.4,14,14,0,0,1,3.72-2.31,12.29,12.29,0,0,1,4.72-.83,14,14,0,0,1,4.3.58,7.09,7.09,0,0,1,3.23,1.9,9.72,9.72,0,0,1,2.07,3.64,18.71,18.71,0,0,1,.75,5.72v28.47h4.8V141.47a23.79,23.79,0,0,0-1-7.37,13.52,13.52,0,0,0-2.73-5,10.34,10.34,0,0,0-4.38-2.81,16.33,16.33,0,0,0-5.88-.91,15.57,15.57,0,0,0-4.47.58,15.5,15.5,0,0,0-7.2,4.3,17.29,17.29,0,0,0-2.57,3.39l-.16-7.45Zm43.5,22.27a31.2,31.2,0,0,0,1.15,9,22.17,22.17,0,0,0,3.32,7,16.3,16.3,0,0,0,5.29,4.55,15.17,15.17,0,0,0,7,1.66,17.5,17.5,0,0,0,8.11-1.74,16.49,16.49,0,0,0,5.55-4.88l.16,5.79H608V107.86h-4.8v24.5a16.45,16.45,0,0,0-5.54-5.13,16.16,16.16,0,0,0-7.95-1.82,14.86,14.86,0,0,0-7,1.57,15.6,15.6,0,0,0-5.38,4.47,22.17,22.17,0,0,0-3.32,7,32,32,0,0,0-1.15,9.18Zm4.88-.83a32.89,32.89,0,0,1,.74-7.12,18.21,18.21,0,0,1,2.32-5.71,11.18,11.18,0,0,1,4.06-3.8,10.68,10.68,0,0,1,5.79-1.41,15.83,15.83,0,0,1,4.64.66,13.62,13.62,0,0,1,3.56,1.9,11.34,11.34,0,0,1,2.56,2.74,17.21,17.21,0,0,1,1.82,3.22v20.53a18.19,18.19,0,0,1-2,3.15,10.92,10.92,0,0,1-2.65,2.48A12.91,12.91,0,0,1,595,166a15.93,15.93,0,0,1-4.47.58,11.31,11.31,0,0,1-9.77-5.22,18.11,18.11,0,0,1-2.32-5.71,32.23,32.23,0,0,1-.74-7.12ZM643,170.11a16.81,16.81,0,0,0,7.62-4.06,22.67,22.67,0,0,0,2.57-3.06l-3.07-2.24a14.24,14.24,0,0,1-5.38,4.47,15.11,15.11,0,0,1-6.87,1.41,13.67,13.67,0,0,1-6.12-1.33,14.7,14.7,0,0,1-4.72-3.72,16.5,16.5,0,0,1-3.06-5.46,20.39,20.39,0,0,1-1.08-6.79v-.91h31.21v-3a27.82,27.82,0,0,0-1.16-8,18,18,0,0,0-3.31-6.37,15.93,15.93,0,0,0-5.47-4.14,17.09,17.09,0,0,0-7.36-1.49,16.16,16.16,0,0,0-7.12,1.57,19.53,19.53,0,0,0-6,4.47,20.59,20.59,0,0,0-4.14,7,26.84,26.84,0,0,0-1.49,9.19v1.74a24.21,24.21,0,0,0,1.49,8.61,19.43,19.43,0,0,0,4.05,6.79,17.34,17.34,0,0,0,6.21,4.38,18.8,18.8,0,0,0,7.87,1.66,20.74,20.74,0,0,0,5.29-.66Zm-.82-39.41a13.43,13.43,0,0,1,3.89,3.15,14.69,14.69,0,0,1,2.31,4.55,19.19,19.19,0,0,1,.91,5.38v.5H623a21.75,21.75,0,0,1,1.57-6,15.32,15.32,0,0,1,2.89-4.64,14.61,14.61,0,0,1,4.14-3.06,13.26,13.26,0,0,1,5.14-1,12.34,12.34,0,0,1,5.38,1.15Zm41.67-4.8a10.17,10.17,0,0,0-1.4-.33,14.13,14.13,0,0,0-1.83-.16,12.54,12.54,0,0,0-7.45,2.07,15,15,0,0,0-4.88,5.71l-.08-7h-4.72v43.71h4.8V139.89a21.16,21.16,0,0,1,1.66-4,11.35,11.35,0,0,1,2.56-3.06,10.42,10.42,0,0,1,3.48-2.07,12.55,12.55,0,0,1,4.47-.75,20.36,20.36,0,0,1,3.23.25Z"></path><path class="cls-3" d="M97.15,817.81H784.9M940.75,543.69V735.5"></path><path d="M433.93,921.25l-3.24,6.54h4l2.38-4.83a16.62,16.62,0,0,0,6.15,1.13,15.8,15.8,0,0,0,8.26-2.18,15.44,15.44,0,0,0,5.62-6.35,20.86,20.86,0,0,0,2-9.19c0-6.88-2.11-12-6.28-15.34l3.31-6.61h-4l-2.32,4.82a15.88,15.88,0,0,0-6.61-1.38,14.86,14.86,0,0,0-13.89,8.59,20.65,20.65,0,0,0-2,9.19c0,7.21,2.25,12.37,6.61,15.61Zm2.12-25a8.59,8.59,0,0,1,7.14-3.5,8.81,8.81,0,0,1,4.3,1.06l-11,22.41c-2.12-2.45-3.11-5.69-3.11-9.85,0-4.37.86-7.74,2.71-10.12Zm17.06,9.92c0,4-.86,7.14-2.65,9.52a8.78,8.78,0,0,1-7.2,3.51,9.36,9.36,0,0,1-3.91-.8l11-22.21c1.85,2.38,2.78,5.55,2.78,9.45Zm37.31-26.91a16.09,16.09,0,0,0-20,0,12.15,12.15,0,0,0-3.83,9.39,10.92,10.92,0,0,0,1.85,6.28,12.87,12.87,0,0,0,4.89,4.3,12.52,12.52,0,0,0-5.75,4.63,12,12,0,0,0-2.05,6.87,12.39,12.39,0,0,0,4,9.72c2.77,2.45,6.34,3.64,10.9,3.64s8.07-1.19,10.85-3.64a12.3,12.3,0,0,0,4.1-9.72,11.52,11.52,0,0,0-2.18-6.87,13.17,13.17,0,0,0-5.82-4.63,12.78,12.78,0,0,0,5-4.3,10.77,10.77,0,0,0,1.85-6.28c0-4-1.25-7.08-3.83-9.39ZM487,916.88a10.49,10.49,0,0,1-13.16,0,8.34,8.34,0,0,1-2.38-6.28,8.79,8.79,0,0,1,2.45-6.48,8.59,8.59,0,0,1,6.48-2.45,9,9,0,0,1,6.54,2.52,8.64,8.64,0,0,1,2.52,6.41,8.34,8.34,0,0,1-2.45,6.28Zm-.93-34a7.93,7.93,0,0,1,2.25,5.88,8,8,0,0,1-2.18,5.82,7.53,7.53,0,0,1-5.69,2.18,7.8,7.8,0,0,1-5.75-2.18,9.15,9.15,0,0,1,.07-11.77,7.62,7.62,0,0,1,5.68-2.18,7.47,7.47,0,0,1,5.62,2.25Zm46.37,12.76c-.06-6.81-1.32-11.77-3.7-15s-6.08-4.89-11.17-4.89-8.86,1.65-11.24,5-3.57,8.53-3.57,15.41v8c.06,6.61,1.32,11.57,3.77,14.94s6.08,5,11.1,5,8.86-1.72,11.24-5.09,3.57-8.6,3.57-15.61ZM526.47,905c-.06,4.89-.86,8.53-2.24,10.78a8,8,0,0,1-13.29-.2c-1.46-2.45-2.25-6.15-2.25-11.24v-9.59c.06-4.76.79-8.33,2.18-10.64s3.64-3.44,6.68-3.44a7.28,7.28,0,0,1,6.74,3.5c1.46,2.32,2.18,6,2.18,11Z"></path><path class="cls-1" d="M520.09,353.75c0,45.23-31.15,81.9-69.59,81.9s-69.61-36.67-69.61-81.9Zm0,0c0,45.23-31.15,81.9-69.59,81.9s-69.61-36.67-69.61-81.9ZM450.5,435.64v127M801.08,732.76H99.91V562.62H801.08ZM99.91,575.32H801.08M105.71,717.52H806.88"></path><path class="cls-4" d="M520.09,353.75c0,45.23-31.15,81.9-69.59,81.9s-69.61-36.67-69.61-81.9Zm0,0c0,45.23-31.15,81.9-69.59,81.9s-69.61-36.67-69.61-81.9ZM450.5,435.64v127M801.08,732.76H99.91V562.62H801.08V732.76ZM99.91,575.32H801.08M105.71,717.52H806.88"></path><path d="M1064,639.75v23.61l-13.69-12.57c-6.34-5.95-11.9-8.86-16.53-8.86a11.83,11.83,0,0,0-9.12,3.77c-2.31,2.58-3.44,6-3.44,10.38,0,4.7,1.32,8.4,4,11.18a13.63,13.63,0,0,0,10.45,4.23v-6a9.77,9.77,0,0,1-7.07-2.45,9.36,9.36,0,0,1-2.52-6.94,7.9,7.9,0,0,1,2.38-6,8.47,8.47,0,0,1,6-2.18,11.39,11.39,0,0,1,5.29,1.32,36.91,36.91,0,0,1,6.68,5l18.12,16.26h4.29V639.75Zm-22.88-35.86c-6.81.07-11.77,1.33-15,3.71s-4.89,6.08-4.89,11.17,1.65,8.86,5,11.24,8.53,3.57,15.4,3.57h8c6.61-.06,11.57-1.32,15-3.77s5-6.08,5-11.11-1.71-8.86-5.09-11.24-8.59-3.57-15.6-3.57Zm9.33,6c4.89.07,8.53.86,10.77,2.25a8,8,0,0,1-.19,13.29c-2.45,1.46-6.15,2.25-11.24,2.25h-9.59c-4.76-.07-8.33-.79-10.65-2.18s-3.44-3.64-3.44-6.68,1.19-5.36,3.51-6.74,6-2.19,11-2.19Z"></path></svg> 