<?xml version="1.0" encoding="UTF-8"?> <svg xmlns="http://www.w3.org/2000/svg" id="Livello_1" data-name="Livello 1" viewBox="0 0 998.95 998.95"><defs><style>.cls-1{fill:#fff;}.cls-2{fill:#231f20;}.cls-3,.cls-4{fill:none;stroke:#000;stroke-width:0.25px;}.cls-4{stroke-miterlimit:10;}</style></defs><title>sosp. 40 cilindro</title><rect class="cls-1" width="998.95" height="998.95"></rect><path class="cls-2" d="M255.73,38.87v7.52h.7a26,26,0,0,0,10.14-1.78,19.13,19.13,0,0,0,7.2-5,20.81,20.81,0,0,0,4.33-7.77,33.76,33.76,0,0,0,1.4-10.13V18.48A23.7,23.7,0,0,0,278.42,11a17,17,0,0,0-3.06-5.86,13.92,13.92,0,0,0-4.84-3.76A14.78,14.78,0,0,0,264.21,0a15.41,15.41,0,0,0-6.31,1.27,14.23,14.23,0,0,0-4.78,3.51,14.38,14.38,0,0,0-3.06,5A18.44,18.44,0,0,0,249,16.06a20.25,20.25,0,0,0,.83,6.05,14.12,14.12,0,0,0,2.55,4.78,12.85,12.85,0,0,0,4.14,3.25,13.48,13.48,0,0,0,5.73,1.15,10.51,10.51,0,0,0,4.46-1,12,12,0,0,0,3.7-2.48,13.15,13.15,0,0,1-1.15,4.71A9,9,0,0,1,266.57,36a12.28,12.28,0,0,1-4.27,2.17,22.75,22.75,0,0,1-5.93.7Zm5.8-15.1a6.1,6.1,0,0,1-2-1.85,7.14,7.14,0,0,1-1.21-2.68,13.24,13.24,0,0,1-.39-3.31,13,13,0,0,1,.39-3.19,7.78,7.78,0,0,1,1.21-2.8A5.46,5.46,0,0,1,261.47,8a4.71,4.71,0,0,1,2.68-.77,5.93,5.93,0,0,1,2.54.58,7.39,7.39,0,0,1,2,1.78,9.57,9.57,0,0,1,1.34,3.06,16.31,16.31,0,0,1,.45,4.21v3.69a7.35,7.35,0,0,1-2.36,2.74,6.54,6.54,0,0,1-3.76,1.09,6,6,0,0,1-2.87-.64ZM317,38.68H297.5l8-8.41c1.53-1.6,2.94-3.06,4.15-4.53a30.44,30.44,0,0,0,3.18-4.27,21,21,0,0,0,2-4.2,12.76,12.76,0,0,0,.76-4.4,15,15,0,0,0-.95-5.41,10.76,10.76,0,0,0-2.87-4A12.9,12.9,0,0,0,307.12.89,21.49,21.49,0,0,0,300.75,0a16.67,16.67,0,0,0-6.56,1.21,14.54,14.54,0,0,0-4.91,3.19,14.08,14.08,0,0,0-3.19,4.71,16.18,16.18,0,0,0-1.08,5.8h9.05a9.3,9.3,0,0,1,.44-3.06,7.53,7.53,0,0,1,1.21-2.42,5.81,5.81,0,0,1,2.11-1.59,6.3,6.3,0,0,1,2.8-.58A5.52,5.52,0,0,1,305,9a7,7,0,0,1,1.53,4.78,6,6,0,0,1-.31,2,11.45,11.45,0,0,1-1,2.3,18.89,18.89,0,0,1-1.85,2.74,37.29,37.29,0,0,1-2.8,3.31L285.9,39.76v6.18H317Zm36.54,0H334l8-8.41c1.53-1.6,2.94-3.06,4.15-4.53a30.44,30.44,0,0,0,3.18-4.27,21,21,0,0,0,2-4.2,12.76,12.76,0,0,0,.76-4.4,15,15,0,0,0-.95-5.41,10.76,10.76,0,0,0-2.87-4A12.9,12.9,0,0,0,343.66.89,21.49,21.49,0,0,0,337.29,0a16.67,16.67,0,0,0-6.56,1.21,14.54,14.54,0,0,0-4.91,3.19,14.08,14.08,0,0,0-3.19,4.71,16.18,16.18,0,0,0-1.08,5.8h9.05a9.3,9.3,0,0,1,.44-3.06,7.35,7.35,0,0,1,1.22-2.42,5.69,5.69,0,0,1,2.1-1.59,6.3,6.3,0,0,1,2.8-.58A5.52,5.52,0,0,1,341.49,9,7,7,0,0,1,343,13.76a6,6,0,0,1-.31,2,11.45,11.45,0,0,1-1,2.3,18.89,18.89,0,0,1-1.85,2.74,37.29,37.29,0,0,1-2.8,3.31L322.44,39.76v6.18h31.1Zm11.81.19v7.52h.71a26,26,0,0,0,10.13-1.78,19.13,19.13,0,0,0,7.2-5,20.81,20.81,0,0,0,4.33-7.77,33.76,33.76,0,0,0,1.4-10.13V18.48A23.7,23.7,0,0,0,388,11,17,17,0,0,0,385,5.1a13.92,13.92,0,0,0-4.84-3.76A14.78,14.78,0,0,0,373.83,0a15.41,15.41,0,0,0-6.31,1.27,14.23,14.23,0,0,0-4.78,3.51,14.38,14.38,0,0,0-3.06,5,18.44,18.44,0,0,0-1.08,6.25,20.25,20.25,0,0,0,.83,6.05A14.12,14.12,0,0,0,362,26.89a12.85,12.85,0,0,0,4.14,3.25,13.48,13.48,0,0,0,5.73,1.15,10.51,10.51,0,0,0,4.46-1,12,12,0,0,0,3.7-2.48,13.15,13.15,0,0,1-1.15,4.71A9,9,0,0,1,376.19,36a12.28,12.28,0,0,1-4.27,2.17,22.75,22.75,0,0,1-5.93.7Zm5.8-15.1a6.1,6.1,0,0,1-2-1.85A7.14,7.14,0,0,1,368,19.24a13.24,13.24,0,0,1-.39-3.31,13,13,0,0,1,.39-3.19,7.78,7.78,0,0,1,1.21-2.8A5.46,5.46,0,0,1,371.09,8a4.71,4.71,0,0,1,2.68-.77,5.93,5.93,0,0,1,2.54.58,7.39,7.39,0,0,1,2,1.78,9.57,9.57,0,0,1,1.34,3.06,16.31,16.31,0,0,1,.45,4.21v3.69a7.35,7.35,0,0,1-2.36,2.74A6.54,6.54,0,0,1,374,24.41a6,6,0,0,1-2.87-.64Zm42.28-.83H395.9v7.2h17.53Zm37.89,15.74h-19.5l8-8.41c1.53-1.6,2.93-3.06,4.15-4.53a30.44,30.44,0,0,0,3.18-4.27,21,21,0,0,0,2-4.2,12.76,12.76,0,0,0,.76-4.4,15,15,0,0,0-1-5.41,10.76,10.76,0,0,0-2.87-4A13,13,0,0,0,441.44.89,21.49,21.49,0,0,0,435.07,0a16.76,16.76,0,0,0-6.57,1.21,14.59,14.59,0,0,0-4.9,3.19,14.08,14.08,0,0,0-3.19,4.71,16.18,16.18,0,0,0-1.08,5.8h9.05a9,9,0,0,1,.44-3.06A7.33,7.33,0,0,1,430,9.43a5.81,5.81,0,0,1,2.11-1.59,6.3,6.3,0,0,1,2.8-.58A5.54,5.54,0,0,1,439.27,9a7,7,0,0,1,1.53,4.78,5.78,5.78,0,0,1-.32,2,11.36,11.36,0,0,1-1,2.3,18.89,18.89,0,0,1-1.85,2.74,37.29,37.29,0,0,1-2.8,3.31L420.22,39.76v6.18h31.1Zm36.54,0h-19.5l8-8.41c1.53-1.6,2.94-3.06,4.15-4.53a30.44,30.44,0,0,0,3.18-4.27,21,21,0,0,0,2-4.2,12.76,12.76,0,0,0,.76-4.4,15,15,0,0,0-.95-5.41,10.76,10.76,0,0,0-2.87-4A13,13,0,0,0,478,.89,21.49,21.49,0,0,0,471.61,0a16.67,16.67,0,0,0-6.56,1.21,14.54,14.54,0,0,0-4.91,3.19A14.08,14.08,0,0,0,457,9.11a16.18,16.18,0,0,0-1.08,5.8h9.05a9.3,9.3,0,0,1,.44-3.06,7.33,7.33,0,0,1,1.21-2.42,5.81,5.81,0,0,1,2.11-1.59,6.3,6.3,0,0,1,2.8-.58A5.54,5.54,0,0,1,475.81,9a7,7,0,0,1,1.53,4.78,5.78,5.78,0,0,1-.32,2,10.81,10.81,0,0,1-.95,2.3,18.89,18.89,0,0,1-1.85,2.74,37.29,37.29,0,0,1-2.8,3.31L456.76,39.76v6.18h31.1Z"></path><path class="cls-2" d="M272.47,127.19a10.7,10.7,0,0,1-3.32-3,13.51,13.51,0,0,1-1.78-4.4,22.6,22.6,0,0,1-.57-5.16v-1.28a23.05,23.05,0,0,1,.57-5.16,11.89,11.89,0,0,1,1.85-4.33,9.35,9.35,0,0,1,3.25-3.06,10.49,10.49,0,0,1,4.9-1.08,11.08,11.08,0,0,1,3.57.57,10,10,0,0,1,2.93,1.78,8.89,8.89,0,0,1,2,2.74,9.53,9.53,0,0,1,.83,3.7h3.63a15,15,0,0,0-1.14-5,11.92,11.92,0,0,0-2.81-3.76,11.67,11.67,0,0,0-4-2.42,15.63,15.63,0,0,0-11.22.45,13.23,13.23,0,0,0-4.52,3.56,16.46,16.46,0,0,0-2.74,5.36,23.87,23.87,0,0,0-.89,6.62v1.28a24.26,24.26,0,0,0,.89,6.63,16.51,16.51,0,0,0,2.74,5.35,13,13,0,0,0,4.52,3.5,13.65,13.65,0,0,0,6.18,1.34,15.56,15.56,0,0,0,4.91-.83,13.67,13.67,0,0,0,4-2.29,10.78,10.78,0,0,0,2.87-3.51,11.12,11.12,0,0,0,1.21-4.39h-3.63a7.92,7.92,0,0,1-.89,3.37,10.14,10.14,0,0,1-2.1,2.49,9.52,9.52,0,0,1-2.94,1.46,10,10,0,0,1-3.44.51,9.7,9.7,0,0,1-4.9-1.08Zm25.52-30h-4.08l12.68,33.39-1.66,4.4a13.23,13.23,0,0,1-1.14,2.67,7.83,7.83,0,0,1-1.53,1.91,5.52,5.52,0,0,1-2,1.15,8.33,8.33,0,0,1-2.68.38,5.49,5.49,0,0,1-.89-.06c-.44-.06-.76-.06-1-.13V144a2,2,0,0,1,.58.13c.25.07.51.07.76.13s.57.06.83.13h.7a8.44,8.44,0,0,0,3.95-.83,11.33,11.33,0,0,0,2.68-2.1,12.33,12.33,0,0,0,1.72-2.68,26.73,26.73,0,0,0,1.08-2.61l14.28-39h-4l-9.81,28.29ZM332.18,83h-3.76v47.79h3.76Zm14.26,14.15h-3.76v33.64h3.76Zm-3.76-8a2.68,2.68,0,0,0,1.91.7,2.55,2.55,0,0,0,1.85-.7,2.34,2.34,0,0,0,.7-1.78,2.28,2.28,0,0,0-.7-1.79,2.37,2.37,0,0,0-1.85-.76A2.4,2.4,0,0,0,342,87.43a2.54,2.54,0,0,0,.64,1.78Zm13.81,8v33.64h3.7V107.76a13.88,13.88,0,0,1,1.46-2.94,10,10,0,0,1,5-4.39,9.39,9.39,0,0,1,3.63-.64,11,11,0,0,1,3.32.45,5.46,5.46,0,0,1,2.48,1.46,7.69,7.69,0,0,1,1.6,2.81,14.48,14.48,0,0,1,.57,4.39v21.92h3.69V108.9a18.48,18.48,0,0,0-.76-5.67,10.43,10.43,0,0,0-2.1-3.82,8,8,0,0,0-3.38-2.17,12.48,12.48,0,0,0-4.52-.7,12.13,12.13,0,0,0-3.45.45,14.14,14.14,0,0,0-3,1.27,13.13,13.13,0,0,0-4.52,4.65l-.13-5.73ZM390,114.32a24.13,24.13,0,0,0,.89,7,17.25,17.25,0,0,0,2.55,5.41,12.65,12.65,0,0,0,4.08,3.51,11.83,11.83,0,0,0,5.42,1.27,13.5,13.5,0,0,0,6.24-1.34,12.55,12.55,0,0,0,4.27-3.76l.13,4.46h3.5V83h-3.69v18.86a12.79,12.79,0,0,0-4.27-4,12.46,12.46,0,0,0-6.12-1.4,11.44,11.44,0,0,0-5.41,1.21,12.1,12.1,0,0,0-4.15,3.44,17.31,17.31,0,0,0-2.55,5.42,24.65,24.65,0,0,0-.89,7.07Zm3.76-.64a24.5,24.5,0,0,1,.58-5.48,13.82,13.82,0,0,1,1.78-4.39,8.68,8.68,0,0,1,3.12-2.94,8.31,8.31,0,0,1,4.46-1.08,12,12,0,0,1,3.57.51,9.88,9.88,0,0,1,2.74,1.47,8.5,8.5,0,0,1,2,2.1,13.9,13.9,0,0,1,1.4,2.48v15.81a14.22,14.22,0,0,1-1.53,2.42,8.39,8.39,0,0,1-2,1.91,9.68,9.68,0,0,1-2.74,1.27,12.06,12.06,0,0,1-3.44.45,8.68,8.68,0,0,1-7.52-4,13.88,13.88,0,0,1-1.78-4.4,24.12,24.12,0,0,1-.58-5.48ZM444,131a10.82,10.82,0,0,0,3.32-1.27,11.06,11.06,0,0,0,2.55-1.85,17.12,17.12,0,0,0,2-2.36l-2.36-1.72a11,11,0,0,1-4.14,3.44,11.65,11.65,0,0,1-5.29,1.08,10.6,10.6,0,0,1-4.71-1,11.49,11.49,0,0,1-3.63-2.87,12.88,12.88,0,0,1-2.36-4.21,15.56,15.56,0,0,1-.83-5.22v-.7h24V112a21.41,21.41,0,0,0-.89-6.18,13.82,13.82,0,0,0-2.55-4.91,12.28,12.28,0,0,0-4.2-3.18,13.2,13.2,0,0,0-5.67-1.15,12.46,12.46,0,0,0-5.48,1.21,15,15,0,0,0-4.59,3.44,16,16,0,0,0-3.19,5.36,20.68,20.68,0,0,0-1.15,7.07V115a18.63,18.63,0,0,0,1.15,6.62,15,15,0,0,0,3.12,5.23,13.48,13.48,0,0,0,4.78,3.38,14.67,14.67,0,0,0,6.06,1.27A15.72,15.72,0,0,0,444,131Zm-.63-30.33a10.2,10.2,0,0,1,3,2.42,11.42,11.42,0,0,1,1.79,3.51,15.21,15.21,0,0,1,.7,4.14v.38h-20.2a16.87,16.87,0,0,1,1.21-4.65,11.79,11.79,0,0,1,2.23-3.57,11.29,11.29,0,0,1,3.18-2.36,10.2,10.2,0,0,1,4-.76,9.48,9.48,0,0,1,4.14.89Zm32.08-3.7a6.79,6.79,0,0,0-1.08-.25,9.59,9.59,0,0,0-1.4-.13,9.69,9.69,0,0,0-5.74,1.59,11.66,11.66,0,0,0-3.76,4.4l-.06-5.35h-3.63v33.64h3.69V107.69a16.59,16.59,0,0,1,1.28-3.06,8.81,8.81,0,0,1,2-2.35,8.31,8.31,0,0,1,2.68-1.6,9.77,9.77,0,0,1,3.44-.57,14.78,14.78,0,0,1,2.48.19Z"></path><path d="M677.69,566.56V563.1a8.55,8.55,0,0,1,1.73-5.6,6,6,0,0,1,4.84-1.94,6.64,6.64,0,0,1,5,1.74,8.26,8.26,0,0,1,0,10.12,5.84,5.84,0,0,1-4.53,1.84v4.63a9.12,9.12,0,0,0,7.28-3.21,13.61,13.61,0,0,0-.1-16.54,9.87,9.87,0,0,0-7.74-3.21,8.86,8.86,0,0,0-5.34,1.63,9.15,9.15,0,0,0-3.11,4.63,9.35,9.35,0,0,0-3.3-4.17,8,8,0,0,0-4.59-1.53,9.91,9.91,0,0,0-7.58,2.9,13,13,0,0,0,.15,16,9.27,9.27,0,0,0,7.13,3.15V569a5.88,5.88,0,0,1-4.48-1.73,6.58,6.58,0,0,1-1.73-4.78c0-4.23,2.14-6.37,6.36-6.37a5.83,5.83,0,0,1,4.53,1.89,7.71,7.71,0,0,1,1.73,5.14v3.46Zm-4.84-44.65c-5.24.05-9.06,1-11.55,2.85s-3.77,4.68-3.77,8.6,1.28,6.82,3.87,8.65,6.57,2.75,11.86,2.75h6.16c5.09,0,8.91-1,11.5-2.9s3.82-4.68,3.82-8.55-1.32-6.82-3.92-8.66-6.62-2.74-12-2.74Zm7.18,4.58c3.77,0,6.57.66,8.3,1.73a6.17,6.17,0,0,1-.16,10.23c-1.88,1.12-4.73,1.73-8.65,1.73h-7.38c-3.66,0-6.41-.61-8.19-1.68a5.53,5.53,0,0,1-2.65-5.14,5.6,5.6,0,0,1,2.7-5.19c1.78-1.12,4.58-1.68,8.5-1.68Z"></path><path class="cls-3" d="M183,742.16H518.47m65.12-324.43V677.54"></path><path d="M324.37,821.8l-2.49,5H325l1.83-3.72a12.9,12.9,0,0,0,4.74.87,12.11,12.11,0,0,0,6.36-1.68,11.92,11.92,0,0,0,4.33-4.89,16,16,0,0,0,1.52-7.07c0-5.3-1.62-9.27-4.83-11.81l2.54-5.09h-3.1l-1.78,3.71a12.22,12.22,0,0,0-5.09-1.07,11.7,11.7,0,0,0-6.36,1.73,11.54,11.54,0,0,0-4.33,4.89,15.87,15.87,0,0,0-1.53,7.08c0,5.54,1.73,9.51,5.09,12ZM326,802.56a6.62,6.62,0,0,1,5.5-2.7,6.79,6.79,0,0,1,3.31.81l-8.5,17.26a11.11,11.11,0,0,1-2.4-7.58c0-3.36.67-6,2.09-7.79Zm13.13,7.63a11.93,11.93,0,0,1-2,7.33,6.79,6.79,0,0,1-5.55,2.7,7.12,7.12,0,0,1-3-.61l8.44-17.1a11.52,11.52,0,0,1,2.14,7.28Zm29.13-22.9h-4.88l-16.19,25.09v2.7h16.49v8.4h4.58v-8.4h5v-3.77h-5Zm-5.14,7.28.56-1v17.71h-11.3Zm37.07,7.53c-.05-5.24-1-9.06-2.85-11.56s-4.68-3.76-8.6-3.76-6.82,1.27-8.65,3.87-2.75,6.56-2.75,11.86v6.16c.05,5.09,1,8.9,2.9,11.5s4.68,3.82,8.55,3.82,6.82-1.33,8.65-3.92,2.75-6.62,2.75-12Zm-4.58,7.18c-.05,3.76-.66,6.56-1.73,8.29a6.16,6.16,0,0,1-10.23-.15c-1.12-1.88-1.73-4.73-1.73-8.65v-7.38c.05-3.67.61-6.42,1.68-8.2a5.55,5.55,0,0,1,5.14-2.65,5.61,5.61,0,0,1,5.19,2.7c1.12,1.78,1.68,4.58,1.68,8.5Z"></path><path class="cls-1" d="M417.59,228.21c0,43.42-29.93,78.63-66.84,78.63s-66.84-35.21-66.84-78.63Zm-66.84,78.63V422.12m165.6,251.16H185.15V422.12h331.2ZM186,435h331.2M186,658.77h331.2"></path><path class="cls-4" d="M417.59,228.21c0,43.43-29.93,78.63-66.84,78.63s-66.84-35.2-66.84-78.63Zm-66.84,78.63V422.13m165.6,251.16H185.15V422.13h331.2ZM186,435h331.2M186,658.78h331.2"></path></svg> 