<?xml version="1.0" encoding="UTF-8"?> <svg xmlns="http://www.w3.org/2000/svg" id="Livello_1" data-name="Livello 1" viewBox="0 0 998.95 998.95"><defs><style>.cls-1{fill:#fff;}.cls-2{fill:#231f20;}.cls-3,.cls-4{fill:none;stroke:#000;stroke-width:0.25px;}.cls-4{stroke-miterlimit:10;}</style></defs><title>sosp. 30 cilindro</title><rect class="cls-1" width="998.95" height="998.95"></rect><path class="cls-2" d="M276.69,38.87v7.52h.7a25.94,25.94,0,0,0,10.13-1.78,19.13,19.13,0,0,0,7.2-5,20.54,20.54,0,0,0,4.33-7.77,33.75,33.75,0,0,0,1.41-10.13V18.48A23.41,23.41,0,0,0,299.37,11a17,17,0,0,0-3.06-5.86,13.83,13.83,0,0,0-4.84-3.76A14.75,14.75,0,0,0,285.16,0a15.45,15.45,0,0,0-6.31,1.27,14.09,14.09,0,0,0-4.77,3.51,14.38,14.38,0,0,0-3.06,5,18.45,18.45,0,0,0-1.09,6.25,20.58,20.58,0,0,0,.83,6.05,14.48,14.48,0,0,0,2.55,4.78,13,13,0,0,0,4.14,3.25,13.49,13.49,0,0,0,5.74,1.15,10.55,10.55,0,0,0,4.46-1,12,12,0,0,0,3.69-2.48,13.15,13.15,0,0,1-1.14,4.71A9,9,0,0,1,287.52,36a12.2,12.2,0,0,1-4.27,2.17,22.72,22.72,0,0,1-5.92.7Zm5.8-15.1a6,6,0,0,1-2-1.85,7.47,7.47,0,0,1-1.21-2.68,13.74,13.74,0,0,1-.38-3.31,13.52,13.52,0,0,1,.38-3.19,8.15,8.15,0,0,1,1.21-2.8A5.54,5.54,0,0,1,282.42,8a4.74,4.74,0,0,1,2.68-.77,6,6,0,0,1,2.55.58,7.69,7.69,0,0,1,2,1.78A9.79,9.79,0,0,1,291,12.68a16.8,16.8,0,0,1,.44,4.21v3.69a7.35,7.35,0,0,1-2.36,2.74,6.54,6.54,0,0,1-3.76,1.09,6,6,0,0,1-2.86-.64ZM338,38.68h-19.5l8-8.41c1.53-1.6,2.93-3.06,4.14-4.53a31.34,31.34,0,0,0,3.19-4.27,20.37,20.37,0,0,0,2-4.2,12.77,12.77,0,0,0,.77-4.4,14.79,14.79,0,0,0-1-5.41,10.65,10.65,0,0,0-2.87-4A12.94,12.94,0,0,0,328.08.89,21.55,21.55,0,0,0,321.7,0a16.71,16.71,0,0,0-6.56,1.21,14.63,14.63,0,0,0-4.91,3.19,13.91,13.91,0,0,0-3.18,4.71,16.19,16.19,0,0,0-1.09,5.8H315a9,9,0,0,1,.45-3.06,7.14,7.14,0,0,1,1.21-2.42,5.69,5.69,0,0,1,2.1-1.59,6.34,6.34,0,0,1,2.81-.58A5.55,5.55,0,0,1,325.91,9a7,7,0,0,1,1.53,4.78,6,6,0,0,1-.32,2,10.89,10.89,0,0,1-1,2.3,18.75,18.75,0,0,1-1.84,2.74,37.55,37.55,0,0,1-2.81,3.31L306.86,39.76v6.18H338Zm36.54,0H355l8-8.41c1.53-1.6,2.93-3.06,4.14-4.53a30.54,30.54,0,0,0,3.19-4.27,20.37,20.37,0,0,0,2-4.2,12.77,12.77,0,0,0,.77-4.4,14.79,14.79,0,0,0-1-5.41,10.65,10.65,0,0,0-2.87-4A12.94,12.94,0,0,0,364.62.89,21.55,21.55,0,0,0,358.24,0a16.71,16.71,0,0,0-6.56,1.21,14.63,14.63,0,0,0-4.91,3.19,13.91,13.91,0,0,0-3.18,4.71,16.19,16.19,0,0,0-1.09,5.8h9.05a9,9,0,0,1,.45-3.06,7.14,7.14,0,0,1,1.21-2.42,5.69,5.69,0,0,1,2.1-1.59,6.34,6.34,0,0,1,2.81-.58A5.55,5.55,0,0,1,362.45,9,7,7,0,0,1,364,13.76a6,6,0,0,1-.32,2,10.89,10.89,0,0,1-1,2.3,18.75,18.75,0,0,1-1.84,2.74,37.55,37.55,0,0,1-2.81,3.31L343.4,39.76v6.18h31.09Zm11.82.19v7.52h.7a25.94,25.94,0,0,0,10.13-1.78,19.13,19.13,0,0,0,7.2-5,20.54,20.54,0,0,0,4.33-7.77,33.75,33.75,0,0,0,1.41-10.13V18.48A23.41,23.41,0,0,0,409,11a17,17,0,0,0-3.06-5.86,13.83,13.83,0,0,0-4.84-3.76A14.75,14.75,0,0,0,394.78,0a15.45,15.45,0,0,0-6.31,1.27,14.09,14.09,0,0,0-4.77,3.51,14.38,14.38,0,0,0-3.06,5,18.45,18.45,0,0,0-1.09,6.25,20.58,20.58,0,0,0,.83,6.05,14.48,14.48,0,0,0,2.55,4.78,13,13,0,0,0,4.14,3.25,13.49,13.49,0,0,0,5.74,1.15,10.55,10.55,0,0,0,4.46-1A12,12,0,0,0,401,27.85a13.15,13.15,0,0,1-1.14,4.71A9,9,0,0,1,397.14,36a12.2,12.2,0,0,1-4.27,2.17,22.72,22.72,0,0,1-5.92.7Zm5.8-15.1a6,6,0,0,1-2-1.85,7.47,7.47,0,0,1-1.21-2.68,13.74,13.74,0,0,1-.38-3.31,13.52,13.52,0,0,1,.38-3.19,8.15,8.15,0,0,1,1.21-2.8A5.54,5.54,0,0,1,392,8a4.74,4.74,0,0,1,2.68-.77,6,6,0,0,1,2.55.58,7.69,7.69,0,0,1,2,1.78,9.79,9.79,0,0,1,1.34,3.06,16.8,16.8,0,0,1,.44,4.21v3.69a7.35,7.35,0,0,1-2.36,2.74A6.54,6.54,0,0,1,395,24.41a6,6,0,0,1-2.86-.64Zm42.27-.83H416.86v7.2h17.52Zm37.89,15.74h-19.5l8-8.41c1.53-1.6,2.93-3.06,4.14-4.53a31.34,31.34,0,0,0,3.19-4.27,20.9,20.9,0,0,0,2-4.2,12.77,12.77,0,0,0,.77-4.4,14.79,14.79,0,0,0-1-5.41,10.65,10.65,0,0,0-2.87-4A12.9,12.9,0,0,0,462.39.89,21.44,21.44,0,0,0,456,0a16.67,16.67,0,0,0-6.56,1.21,14.63,14.63,0,0,0-4.91,3.19,13.91,13.91,0,0,0-3.18,4.71,16.19,16.19,0,0,0-1.09,5.8h9.05a9,9,0,0,1,.45-3.06A7.14,7.14,0,0,1,451,9.43a5.69,5.69,0,0,1,2.1-1.59,6.34,6.34,0,0,1,2.81-.58A5.55,5.55,0,0,1,460.23,9a7,7,0,0,1,1.53,4.78,6,6,0,0,1-.32,2,10.89,10.89,0,0,1-1,2.3,18.75,18.75,0,0,1-1.84,2.74,37.55,37.55,0,0,1-2.81,3.31L441.18,39.76v6.18h31.09ZM499.57.57h-.95L479.88,7.33v7.26l10.71-3.31V45.94h9Z"></path><path class="cls-2" d="M293.42,127.19a10.55,10.55,0,0,1-3.31-3,13.75,13.75,0,0,1-1.79-4.4,22.6,22.6,0,0,1-.57-5.16v-1.28a23.05,23.05,0,0,1,.57-5.16,12.24,12.24,0,0,1,1.85-4.33,9.35,9.35,0,0,1,3.25-3.06,10.57,10.57,0,0,1,4.91-1.08,11.12,11.12,0,0,1,3.57.57,10,10,0,0,1,2.93,1.78,8.89,8.89,0,0,1,2,2.74,9.53,9.53,0,0,1,.82,3.7h3.64a15,15,0,0,0-1.15-5,11.9,11.9,0,0,0-2.8-3.76,11.71,11.71,0,0,0-4-2.42,15.6,15.6,0,0,0-11.21.45,13.27,13.27,0,0,0-4.53,3.56,16.46,16.46,0,0,0-2.74,5.36,24.25,24.25,0,0,0-.89,6.62v1.28a24.65,24.65,0,0,0,.89,6.63,16.51,16.51,0,0,0,2.74,5.35,13,13,0,0,0,4.53,3.5,13.59,13.59,0,0,0,6.18,1.34,15.5,15.5,0,0,0,4.9-.83,13.86,13.86,0,0,0,4-2.29,11,11,0,0,0,2.87-3.51,11.29,11.29,0,0,0,1.21-4.39h-3.64a7.92,7.92,0,0,1-.89,3.37,9.72,9.72,0,0,1-2.1,2.49,9.47,9.47,0,0,1-2.93,1.46,10.07,10.07,0,0,1-3.44.51,9.77,9.77,0,0,1-4.91-1.08Zm25.52-30h-4.08l12.68,33.39-1.65,4.4a12.69,12.69,0,0,1-1.15,2.67,7.83,7.83,0,0,1-1.53,1.91,5.47,5.47,0,0,1-2,1.15,8.38,8.38,0,0,1-2.68.38,5.49,5.49,0,0,1-.89-.06,9.81,9.81,0,0,1-1-.13V144a2,2,0,0,1,.57.13c.26.07.51.07.77.13s.57.06.82.13h.7a8.51,8.51,0,0,0,4-.83,11.27,11.27,0,0,0,2.67-2.1,12,12,0,0,0,1.72-2.68,27,27,0,0,0,1.09-2.61l14.27-39h-4l-9.81,28.29ZM353.13,83h-3.76v47.79h3.76Zm14.26,14.15h-3.76v33.64h3.76Zm-3.76-8a2.68,2.68,0,0,0,1.91.7,2.54,2.54,0,0,0,1.85-.7,2.34,2.34,0,0,0,.7-1.78,2.28,2.28,0,0,0-.7-1.79,2.36,2.36,0,0,0-1.85-.76A2.4,2.4,0,0,0,363,87.43a2.54,2.54,0,0,0,.64,1.78Zm13.81,8v33.64h3.7V107.76a13.93,13.93,0,0,1,1.47-2.94,10,10,0,0,1,5-4.39,9.35,9.35,0,0,1,3.63-.64,10.91,10.91,0,0,1,3.31.45A5.44,5.44,0,0,1,397,101.7a7.54,7.54,0,0,1,1.59,2.81,14.48,14.48,0,0,1,.57,4.39v21.92h3.7V108.9a18.46,18.46,0,0,0-.77-5.67,10.43,10.43,0,0,0-2.1-3.82,7.92,7.92,0,0,0-3.38-2.17,12.45,12.45,0,0,0-4.52-.7,12.06,12.06,0,0,0-3.44.45,11.93,11.93,0,0,0-5.55,3.31,13.75,13.75,0,0,0-2,2.61L381,97.18Zm33.49,17.14a23.79,23.79,0,0,0,.89,7,16.83,16.83,0,0,0,2.55,5.41,12.44,12.44,0,0,0,4.08,3.51,11.79,11.79,0,0,0,5.41,1.27,13.54,13.54,0,0,0,6.25-1.34,12.64,12.64,0,0,0,4.27-3.76l.12,4.46H438V83h-3.7v18.86a12.69,12.69,0,0,0-4.27-4,12.45,12.45,0,0,0-6.11-1.4,11.48,11.48,0,0,0-5.42,1.21,12,12,0,0,0-4.14,3.44,16.88,16.88,0,0,0-2.55,5.42,24.31,24.31,0,0,0-.89,7.07Zm3.76-.64a25.11,25.11,0,0,1,.57-5.48,13.82,13.82,0,0,1,1.78-4.39,8.63,8.63,0,0,1,3.13-2.94,8.31,8.31,0,0,1,4.46-1.08,12,12,0,0,1,3.57.51,10,10,0,0,1,2.74,1.47,8.64,8.64,0,0,1,2,2.1,13.9,13.9,0,0,1,1.4,2.48v15.81a13.62,13.62,0,0,1-1.53,2.42,8.22,8.22,0,0,1-2,1.91,9.56,9.56,0,0,1-2.74,1.27,12.06,12.06,0,0,1-3.44.45,8.71,8.71,0,0,1-7.52-4,13.88,13.88,0,0,1-1.78-4.4,24.72,24.72,0,0,1-.57-5.48ZM464.93,131a12.85,12.85,0,0,0,5.86-3.12,17.21,17.21,0,0,0,2-2.36l-2.36-1.72a11,11,0,0,1-4.14,3.44,11.68,11.68,0,0,1-5.29,1.08,10.68,10.68,0,0,1-4.72-1,11.49,11.49,0,0,1-3.63-2.87,13.07,13.07,0,0,1-2.36-4.21,15.82,15.82,0,0,1-.83-5.22v-.7h24V112a21.41,21.41,0,0,0-.89-6.18,14.15,14.15,0,0,0-2.55-4.91,12.32,12.32,0,0,0-4.21-3.18,13.17,13.17,0,0,0-5.67-1.15,12.49,12.49,0,0,0-5.48,1.21,15.12,15.12,0,0,0-4.59,3.44,15.83,15.83,0,0,0-3.18,5.36,20.44,20.44,0,0,0-1.15,7.07V115a18.41,18.41,0,0,0,1.15,6.62,14.84,14.84,0,0,0,3.12,5.23,13.48,13.48,0,0,0,4.78,3.38,14.59,14.59,0,0,0,6.05,1.27,15.8,15.8,0,0,0,4.08-.51Zm-.64-30.33a10.24,10.24,0,0,1,3,2.42,11.39,11.39,0,0,1,1.78,3.51,14.48,14.48,0,0,1,.7,4.14v.38h-20.2a17.23,17.23,0,0,1,1.21-4.65,12,12,0,0,1,2.23-3.57,11.33,11.33,0,0,1,3.19-2.36,10.15,10.15,0,0,1,3.95-.76,9.48,9.48,0,0,1,4.14.89Zm32.09-3.7a7.27,7.27,0,0,0-1.09-.25,9.34,9.34,0,0,0-1.4-.13,9.71,9.71,0,0,0-5.74,1.59,11.55,11.55,0,0,0-3.75,4.4l-.07-5.35H480.7v33.64h3.7V107.69a15.9,15.9,0,0,1,1.27-3.06,8.66,8.66,0,0,1,2-2.35,8.16,8.16,0,0,1,2.67-1.6,9.81,9.81,0,0,1,3.44-.57,15,15,0,0,1,2.49.19Z"></path><path d="M626,583.85v4.89l25.1,16.18h2.69V588.43h8.4v-4.58h-8.4v-5H650v5Zm7.28,5.14-1-.56H650v11.3Zm7.53-37.07c-5.24.05-9.06,1-11.55,2.85s-3.77,4.68-3.77,8.6,1.28,6.82,3.87,8.65,6.57,2.75,11.86,2.75h6.16c5.09,0,8.91-1,11.5-2.9s3.82-4.68,3.82-8.55-1.32-6.82-3.92-8.65-6.62-2.75-12-2.75ZM648,556.5c3.77,0,6.57.66,8.3,1.73a6.18,6.18,0,0,1-.15,10.23c-1.89,1.12-4.74,1.73-8.66,1.73h-7.38c-3.66-.05-6.41-.61-8.19-1.68a5.55,5.55,0,0,1-2.65-5.14,5.61,5.61,0,0,1,2.7-5.19c1.78-1.12,4.58-1.68,8.5-1.68Z"></path><path class="cls-3" d="M215.73,802h242m93.8-384.14v319.5"></path><path d="M310.35,881.66l-2.5,5H311l1.83-3.71a12.81,12.81,0,0,0,4.73.86,12.15,12.15,0,0,0,6.37-1.68,11.93,11.93,0,0,0,4.32-4.88,16,16,0,0,0,1.53-7.08c0-5.29-1.63-9.26-4.84-11.81l2.55-5.09h-3.11L322.56,857a12.07,12.07,0,0,0-5.09-1.07,11.46,11.46,0,0,0-10.69,6.62,15.93,15.93,0,0,0-1.52,7.07c0,5.55,1.73,9.52,5.09,12ZM312,862.42a6.59,6.59,0,0,1,5.49-2.69,6.79,6.79,0,0,1,3.31.81l-8.5,17.26c-1.63-1.89-2.39-4.38-2.39-7.59,0-3.36.66-6,2.09-7.79Zm13.13,7.64a11.89,11.89,0,0,1-2,7.33,6.78,6.78,0,0,1-5.55,2.7,7.15,7.15,0,0,1-3-.62l8.45-17.1a11.6,11.6,0,0,1,2.14,7.28Zm16.4-3.26H345a8.53,8.53,0,0,1,5.6,1.73,6,6,0,0,1,1.94,4.84,6.7,6.7,0,0,1-1.73,5,7.08,7.08,0,0,1-5.14,1.73,7,7,0,0,1-5-1.73,5.89,5.89,0,0,1-1.83-4.54h-4.64a9.12,9.12,0,0,0,3.21,7.28,13.61,13.61,0,0,0,16.54-.1,9.87,9.87,0,0,0,3.21-7.74,8.88,8.88,0,0,0-1.63-5.34,9.13,9.13,0,0,0-4.63-3.1,9.44,9.44,0,0,0,4.17-3.31,8,8,0,0,0,1.53-4.58,9.92,9.92,0,0,0-2.9-7.59,13,13,0,0,0-16,.15,9.27,9.27,0,0,0-3.15,7.13h4.63a5.88,5.88,0,0,1,1.73-4.48,6.59,6.59,0,0,1,4.79-1.73c4.22,0,6.36,2.14,6.36,6.36a5.8,5.8,0,0,1-1.89,4.53A7.71,7.71,0,0,1,345,863h-3.46ZM386.17,862c-.05-5.25-1-9.07-2.85-11.56s-4.69-3.77-8.6-3.77-6.83,1.28-8.66,3.87-2.75,6.57-2.75,11.86v6.16c.05,5.09,1,8.91,2.9,11.5s4.69,3.82,8.56,3.82,6.82-1.32,8.65-3.92,2.75-6.61,2.75-12Zm-4.58,7.17c0,3.77-.67,6.57-1.73,8.3a6.16,6.16,0,0,1-10.23-.15c-1.12-1.89-1.74-4.74-1.74-8.66v-7.38c.06-3.66.62-6.41,1.68-8.19a5.56,5.56,0,0,1,5.15-2.65,5.61,5.61,0,0,1,5.19,2.7c1.12,1.78,1.68,4.58,1.68,8.5Z"></path><path class="cls-1" d="M401.94,228.21c0,44.48-29.2,80.54-65.23,80.54s-65.21-36.06-65.21-80.54Z"></path><path class="cls-4" d="M401.94,228.21c0,44.49-29.2,80.55-65.23,80.55S271.5,272.7,271.5,228.21Z"></path><path class="cls-1" d="M400.43,231c0,44-28.52,79.63-63.71,79.63S273,275,273,231Zm-63.71,79.63V402.4m118.87,322H217.85v-322H455.59Zm-237.73-309H455.59M217.21,710.53H455"></path><path class="cls-4" d="M400.43,231c0,44-28.52,79.64-63.71,79.64S273,275,273,231Zm-63.71,79.64V402.4m118.87,322H217.85v-322H455.59Zm-237.73-309H455.59M217.21,710.53H455"></path></svg> 