<?xml version="1.0" encoding="UTF-8"?> <svg xmlns="http://www.w3.org/2000/svg" id="Livello_1" data-name="Livello 1" viewBox="0 0 998.95 998.95"><defs><style>.cls-1{fill:#fff;}.cls-2{fill:#231f20;}.cls-3,.cls-4,.cls-5{fill:none;stroke-width:0.25px;}.cls-3,.cls-5{stroke:#000;}.cls-4{stroke:#231f20;}.cls-4,.cls-5{stroke-miterlimit:10;}</style></defs><title>sosp. 70 cilindro</title><rect class="cls-1" width="998.95" height="998.95"></rect><path class="cls-2" d="M280.92,38.87v7.52h.7a25.91,25.91,0,0,0,10.13-1.78,19.13,19.13,0,0,0,7.2-5,20.7,20.7,0,0,0,4.34-7.77,34.08,34.08,0,0,0,1.4-10.13V18.48A23.7,23.7,0,0,0,303.61,11a17.36,17.36,0,0,0-3.06-5.86,13.87,13.87,0,0,0-4.85-3.76A14.73,14.73,0,0,0,289.4,0a15.38,15.38,0,0,0-6.31,1.27,14,14,0,0,0-4.78,3.51,14.38,14.38,0,0,0-3.06,5,18.44,18.44,0,0,0-1.08,6.25,20.58,20.58,0,0,0,.82,6.05,14.48,14.48,0,0,0,2.55,4.78,13,13,0,0,0,4.14,3.25,13.49,13.49,0,0,0,5.74,1.15,10.55,10.55,0,0,0,4.46-1,12.21,12.21,0,0,0,3.7-2.48,13.15,13.15,0,0,1-1.15,4.71A9,9,0,0,1,291.75,36a12.11,12.11,0,0,1-4.27,2.17,22.67,22.67,0,0,1-5.92.7Zm5.8-15.1a6,6,0,0,1-2-1.85,7.47,7.47,0,0,1-1.21-2.68,13.74,13.74,0,0,1-.38-3.31,13.52,13.52,0,0,1,.38-3.19,8.15,8.15,0,0,1,1.21-2.8A5.54,5.54,0,0,1,286.65,8a4.74,4.74,0,0,1,2.68-.77,6,6,0,0,1,2.55.58,7.69,7.69,0,0,1,2,1.78,9.79,9.79,0,0,1,1.34,3.06,16.34,16.34,0,0,1,.44,4.21v3.69a7.33,7.33,0,0,1-2.35,2.74,6.56,6.56,0,0,1-3.76,1.09,6,6,0,0,1-2.87-.64Zm55.46,14.91H322.69l8-8.41c1.53-1.6,2.93-3.06,4.14-4.53A29.77,29.77,0,0,0,338,21.47a20.37,20.37,0,0,0,2-4.2,12.77,12.77,0,0,0,.77-4.4,14.79,14.79,0,0,0-1-5.41,10.73,10.73,0,0,0-2.86-4A13.08,13.08,0,0,0,332.31.89,21.49,21.49,0,0,0,325.94,0a16.72,16.72,0,0,0-6.57,1.21,14.49,14.49,0,0,0-4.9,3.19,13.79,13.79,0,0,0-3.19,4.71,16.18,16.18,0,0,0-1.08,5.8h9a9,9,0,0,1,.45-3.06,7.33,7.33,0,0,1,1.21-2.42A5.77,5.77,0,0,1,323,7.84a6.34,6.34,0,0,1,2.81-.58A5.54,5.54,0,0,1,330.14,9a7,7,0,0,1,1.53,4.78,5.78,5.78,0,0,1-.32,2,11.36,11.36,0,0,1-1,2.3,19.74,19.74,0,0,1-1.85,2.74,37.55,37.55,0,0,1-2.81,3.31L311.09,39.76v6.18h31.09Zm36.54,0H359.23l8-8.41c1.53-1.6,2.93-3.06,4.14-4.53a29.77,29.77,0,0,0,3.19-4.27,20.37,20.37,0,0,0,2-4.2,12.77,12.77,0,0,0,.77-4.4,14.79,14.79,0,0,0-1-5.41,10.73,10.73,0,0,0-2.86-4A13.08,13.08,0,0,0,368.85.89,21.49,21.49,0,0,0,362.48,0a16.72,16.72,0,0,0-6.57,1.21A14.49,14.49,0,0,0,351,4.4a13.79,13.79,0,0,0-3.19,4.71,16.18,16.18,0,0,0-1.08,5.8h9a9,9,0,0,1,.45-3.06,7.33,7.33,0,0,1,1.21-2.42,5.77,5.77,0,0,1,2.1-1.59,6.34,6.34,0,0,1,2.81-.58A5.54,5.54,0,0,1,366.68,9a7,7,0,0,1,1.53,4.78,5.78,5.78,0,0,1-.32,2,11.36,11.36,0,0,1-.95,2.3,19.74,19.74,0,0,1-1.85,2.74,37.55,37.55,0,0,1-2.81,3.31L347.63,39.76v6.18h31.09Zm11.82.19v7.52h.7a25.91,25.91,0,0,0,10.13-1.78,19.13,19.13,0,0,0,7.2-5,20.7,20.7,0,0,0,4.34-7.77,34.08,34.08,0,0,0,1.4-10.13V18.48A23.7,23.7,0,0,0,413.23,11a17.19,17.19,0,0,0-3.06-5.86,13.87,13.87,0,0,0-4.85-3.76A14.73,14.73,0,0,0,399,0a15.41,15.41,0,0,0-6.31,1.27,14.14,14.14,0,0,0-4.78,3.51,14.38,14.38,0,0,0-3.06,5,18.44,18.44,0,0,0-1.08,6.25,20.58,20.58,0,0,0,.82,6.05,14.48,14.48,0,0,0,2.55,4.78,12.89,12.89,0,0,0,4.15,3.25A13.41,13.41,0,0,0,397,31.29a10.55,10.55,0,0,0,4.46-1,12.21,12.21,0,0,0,3.7-2.48,13.15,13.15,0,0,1-1.15,4.71A9,9,0,0,1,401.37,36a12.11,12.11,0,0,1-4.27,2.17,22.67,22.67,0,0,1-5.92.7Zm5.8-15.1a6,6,0,0,1-2-1.85,7.47,7.47,0,0,1-1.21-2.68,13.74,13.74,0,0,1-.38-3.31,13.52,13.52,0,0,1,.38-3.19,8.15,8.15,0,0,1,1.21-2.8A5.48,5.48,0,0,1,396.28,8,4.68,4.68,0,0,1,399,7.26a6,6,0,0,1,2.55.58,7.54,7.54,0,0,1,2,1.78,9.79,9.79,0,0,1,1.34,3.06,16.34,16.34,0,0,1,.44,4.21v3.69A7.33,7.33,0,0,1,403,23.32a6.56,6.56,0,0,1-3.76,1.09,6,6,0,0,1-2.87-.64Zm42.27-.83H421.09v7.2h17.52ZM476.5,38.68H457l8-8.41c1.53-1.6,2.93-3.06,4.14-4.53a29.77,29.77,0,0,0,3.19-4.27,20.37,20.37,0,0,0,2-4.2,12.77,12.77,0,0,0,.77-4.4,14.79,14.79,0,0,0-1-5.41,10.65,10.65,0,0,0-2.87-4A12.94,12.94,0,0,0,466.63.89,21.51,21.51,0,0,0,460.25,0a16.71,16.71,0,0,0-6.56,1.21,14.63,14.63,0,0,0-4.91,3.19,13.91,13.91,0,0,0-3.18,4.71,16.18,16.18,0,0,0-1.08,5.8h9a9,9,0,0,1,.45-3.06,7.14,7.14,0,0,1,1.21-2.42,5.77,5.77,0,0,1,2.1-1.59,6.34,6.34,0,0,1,2.81-.58A5.54,5.54,0,0,1,464.46,9,7,7,0,0,1,466,13.76a5.78,5.78,0,0,1-.32,2,11.36,11.36,0,0,1-.95,2.3,19.74,19.74,0,0,1-1.85,2.74,37.55,37.55,0,0,1-2.81,3.31L445.41,39.76v6.18H476.5Zm14-13.25a11.65,11.65,0,0,1,1-.9,5.59,5.59,0,0,1,1.21-.83,10.72,10.72,0,0,1,1.65-.51,7.57,7.57,0,0,1,2.17-.25,8.76,8.76,0,0,1,3.25.57A5.94,5.94,0,0,1,502,25.17a5.57,5.57,0,0,1,1.34,2.49,10.73,10.73,0,0,1,.44,3.25,17.82,17.82,0,0,1-.31,3.31,8.69,8.69,0,0,1-1.15,2.68,5.4,5.4,0,0,1-2,1.78,5.7,5.7,0,0,1-2.86.64,6.14,6.14,0,0,1-4.46-1.6,6.44,6.44,0,0,1-2-4.39h-8.92a13.12,13.12,0,0,0,1.4,5.6A12.94,12.94,0,0,0,487,43.08a14.31,14.31,0,0,0,4.84,2.61,19,19,0,0,0,5.68.89,16.93,16.93,0,0,0,6.75-1.27,13.46,13.46,0,0,0,7.65-8.16,18.75,18.75,0,0,0,.89-5.74A22.55,22.55,0,0,0,511.9,25a13.66,13.66,0,0,0-2.74-4.78,12,12,0,0,0-4.34-3,15.29,15.29,0,0,0-5.86-1c-.7,0-1.46.06-2.1.12a19.15,19.15,0,0,0-2,.45q-.86.28-1.53.57a4.25,4.25,0,0,0-1.14.58l1.08-9.75h18V.64H485.9l-2.61,23Z"></path><path class="cls-2" d="M297.65,127.19a10.55,10.55,0,0,1-3.31-3,13.51,13.51,0,0,1-1.78-4.4,22.05,22.05,0,0,1-.58-5.16v-1.28a22.49,22.49,0,0,1,.58-5.16,12,12,0,0,1,1.84-4.33,9.35,9.35,0,0,1,3.25-3.06,10.57,10.57,0,0,1,4.91-1.08,11.12,11.12,0,0,1,3.57.57,10,10,0,0,1,2.93,1.78,8.89,8.89,0,0,1,2,2.74,9.72,9.72,0,0,1,.83,3.7h3.63a15,15,0,0,0-1.15-5,12.14,12.14,0,0,0-6.82-6.18,15.6,15.6,0,0,0-11.21.45,13.27,13.27,0,0,0-4.53,3.56,16.46,16.46,0,0,0-2.74,5.36,24.25,24.25,0,0,0-.89,6.62v1.28a24.65,24.65,0,0,0,.89,6.63,16.51,16.51,0,0,0,2.74,5.35,13,13,0,0,0,4.53,3.5,13.59,13.59,0,0,0,6.18,1.34,15.56,15.56,0,0,0,4.91-.83,13.8,13.8,0,0,0,4-2.29,10.9,10.9,0,0,0,2.87-3.51,11.29,11.29,0,0,0,1.21-4.39h-3.63a8.07,8.07,0,0,1-.9,3.37,9.72,9.72,0,0,1-2.1,2.49,9.47,9.47,0,0,1-2.93,1.46,10,10,0,0,1-3.44.51,9.77,9.77,0,0,1-4.91-1.08Zm25.52-30H319.1l12.68,33.39-1.66,4.4a12.69,12.69,0,0,1-1.15,2.67,7.39,7.39,0,0,1-1.53,1.91,5.47,5.47,0,0,1-2,1.15,8.38,8.38,0,0,1-2.68.38,5.49,5.49,0,0,1-.89-.06,9.81,9.81,0,0,1-1-.13V144a2,2,0,0,1,.57.13c.26.07.51.07.77.13s.57.06.83.13h.7a8.47,8.47,0,0,0,3.95-.83,11.07,11.07,0,0,0,2.67-2.1,12,12,0,0,0,1.72-2.68,27,27,0,0,0,1.09-2.61l14.27-39h-4l-9.82,28.29ZM357.36,83H353.6v47.79h3.76Zm14.26,14.15h-3.76v33.64h3.76Zm-3.76-8a2.7,2.7,0,0,0,1.91.7,2.52,2.52,0,0,0,1.85-.7,2.34,2.34,0,0,0,.7-1.78,2.28,2.28,0,0,0-.7-1.79,2.34,2.34,0,0,0-1.85-.76,2.39,2.39,0,0,0-2.54,2.55,2.57,2.57,0,0,0,.63,1.78Zm13.82,8v33.64h3.69V107.76a13.93,13.93,0,0,1,1.47-2.94,10,10,0,0,1,5-4.39,9.35,9.35,0,0,1,3.63-.64,10.91,10.91,0,0,1,3.31.45,5.44,5.44,0,0,1,2.49,1.46,7.54,7.54,0,0,1,1.59,2.81,14.46,14.46,0,0,1,.58,4.39v21.92h3.69V108.9a18.48,18.48,0,0,0-.76-5.67,10.3,10.3,0,0,0-2.11-3.82,8,8,0,0,0-3.37-2.17,12.54,12.54,0,0,0-4.53-.7,12.06,12.06,0,0,0-3.44.45,13.71,13.71,0,0,0-3,1.27,13.44,13.44,0,0,0-2.55,2,13.8,13.8,0,0,0-2,2.61l-.13-5.73Zm33.48,17.14a23.79,23.79,0,0,0,.89,7,17,17,0,0,0,2.55,5.41,12.65,12.65,0,0,0,4.08,3.51,11.79,11.79,0,0,0,5.41,1.27,13.51,13.51,0,0,0,6.25-1.34,12.64,12.64,0,0,0,4.27-3.76l.13,4.46h3.5V83h-3.69v18.86a12.79,12.79,0,0,0-4.27-4,12.46,12.46,0,0,0-6.12-1.4,11.51,11.51,0,0,0-5.42,1.21,12.16,12.16,0,0,0-4.14,3.44,17.09,17.09,0,0,0-2.55,5.42,24.31,24.31,0,0,0-.89,7.07Zm3.76-.64a25.11,25.11,0,0,1,.57-5.48,13.6,13.6,0,0,1,1.79-4.39,8.52,8.52,0,0,1,3.12-2.94,8.31,8.31,0,0,1,4.46-1.08,12,12,0,0,1,3.57.51,10,10,0,0,1,2.74,1.47,8.45,8.45,0,0,1,2,2.1,14,14,0,0,1,1.41,2.48v15.81a14.87,14.87,0,0,1-1.53,2.42,8.58,8.58,0,0,1-2,1.91,9.68,9.68,0,0,1-2.74,1.27,12.11,12.11,0,0,1-3.44.45,8.66,8.66,0,0,1-4.4-1.08,8.5,8.5,0,0,1-3.12-2.93,13.66,13.66,0,0,1-1.79-4.4,24.72,24.72,0,0,1-.57-5.48ZM469.16,131a12.85,12.85,0,0,0,5.86-3.12,16.52,16.52,0,0,0,2-2.36l-2.36-1.72a11,11,0,0,1-4.14,3.44,11.65,11.65,0,0,1-5.29,1.08,10.68,10.68,0,0,1-4.72-1,11.49,11.49,0,0,1-3.63-2.87,13.07,13.07,0,0,1-2.36-4.21,15.81,15.81,0,0,1-.82-5.22v-.7h24V112a21.41,21.41,0,0,0-.89-6.18,14,14,0,0,0-2.55-4.91,12.32,12.32,0,0,0-4.21-3.18,13.14,13.14,0,0,0-5.67-1.15,12.49,12.49,0,0,0-5.48,1.21,15.12,15.12,0,0,0-4.59,3.44,16,16,0,0,0-3.18,5.36,20.44,20.44,0,0,0-1.15,7.07V115a18.41,18.41,0,0,0,1.15,6.62,14.84,14.84,0,0,0,3.12,5.23,13.48,13.48,0,0,0,4.78,3.38,14.62,14.62,0,0,0,6.05,1.27,15.8,15.8,0,0,0,4.08-.51Zm-.64-30.33a10.24,10.24,0,0,1,3,2.42,11.39,11.39,0,0,1,1.78,3.51,14.48,14.48,0,0,1,.7,4.14v.38H453.8a17.23,17.23,0,0,1,1.21-4.65,12,12,0,0,1,2.23-3.57,11.33,11.33,0,0,1,3.19-2.36,10.15,10.15,0,0,1,3.95-.76,9.48,9.48,0,0,1,4.14.89Zm32.09-3.7a7.27,7.27,0,0,0-1.09-.25,9.34,9.34,0,0,0-1.4-.13,9.68,9.68,0,0,0-5.73,1.59,11.48,11.48,0,0,0-3.76,4.4l-.07-5.35h-3.63v33.64h3.7V107.69a16.56,16.56,0,0,1,1.27-3.06,8.66,8.66,0,0,1,2-2.35,8.16,8.16,0,0,1,2.67-1.6,9.81,9.81,0,0,1,3.44-.57,14.82,14.82,0,0,1,2.49.19Z"></path><path d="M865.31,616.6v4.89l25.1,16.19h2.69v-16.5h8.4V616.6h-8.4v-5h-3.76v5Zm7.28,5.14-1-.56h17.72v11.3Zm7.53-37.07c-5.24.05-9.06,1-11.55,2.85s-3.77,4.69-3.77,8.61,1.27,6.82,3.87,8.65,6.57,2.75,11.86,2.75h6.16c5.09,0,8.91-1,11.5-2.9s3.82-4.69,3.82-8.55-1.32-6.83-3.92-8.66-6.62-2.75-12-2.75Zm7.18,4.58c3.77.06,6.57.67,8.3,1.74a6.17,6.17,0,0,1-.16,10.23c-1.88,1.12-4.73,1.73-8.65,1.73h-7.38c-3.66-.05-6.41-.61-8.19-1.68a5.53,5.53,0,0,1-2.65-5.14,5.62,5.62,0,0,1,2.7-5.2c1.78-1.12,4.58-1.68,8.5-1.68Z"></path><path class="cls-3" d="M133.45,854.81H696.26m94.6-442.3V790.18"></path><path d="M382.65,934.44l-2.49,5h3.1l1.84-3.71a12.81,12.81,0,0,0,4.73.86,12.11,12.11,0,0,0,6.36-1.68,11.92,11.92,0,0,0,4.33-4.89A16,16,0,0,0,402,923c0-5.29-1.62-9.26-4.83-11.81l2.54-5.09h-3.1l-1.78,3.72a12.07,12.07,0,0,0-5.09-1.07,11.7,11.7,0,0,0-6.36,1.73,11.58,11.58,0,0,0-4.33,4.88,15.87,15.87,0,0,0-1.53,7.08c0,5.55,1.73,9.52,5.09,12Zm1.63-19.24a6.63,6.63,0,0,1,5.5-2.7,6.8,6.8,0,0,1,3.31.82l-8.5,17.25c-1.63-1.88-2.4-4.37-2.4-7.58s.67-6,2.09-7.79Zm13.13,7.64a12,12,0,0,1-2,7.33,6.78,6.78,0,0,1-5.55,2.69,7.12,7.12,0,0,1-3-.61l8.45-17.1a11.6,11.6,0,0,1,2.13,7.28Zm33.1-22.91H406.08v3.77h19.55l-14.92,32.42h4.84l15-33.59Zm28,14.81c-.05-5.24-1-9.06-2.85-11.55s-4.68-3.77-8.6-3.77-6.82,1.28-8.65,3.87-2.75,6.57-2.75,11.86v6.16c.05,5.09,1,8.91,2.9,11.5s4.68,3.82,8.55,3.82,6.82-1.32,8.65-3.92,2.75-6.62,2.75-12Zm-4.58,7.18c-.05,3.77-.66,6.57-1.73,8.3a6.17,6.17,0,0,1-10.23-.16c-1.12-1.88-1.73-4.73-1.73-8.65V914c.05-3.66.61-6.41,1.68-8.19a5.55,5.55,0,0,1,5.14-2.65,5.61,5.61,0,0,1,5.19,2.7c1.12,1.78,1.68,4.58,1.68,8.5Z"></path><path class="cls-1" d="M478.29,228.22c0,40.75-29,73.79-64.74,73.79s-64.74-33-64.74-73.79Z"></path><path class="cls-4" d="M478.29,228.22c0,40.75-29,73.79-64.74,73.79s-64.74-33-64.74-73.79Z"></path><path class="cls-1" d="M480.43,228.22c0,43.4-29.95,78.59-66.88,78.59s-66.87-35.19-66.87-78.59Zm-66.88,78.59V413.55M696.31,777.16H130.78V413.54H696.31ZM130.79,425.28H696.31M131.38,765.44H696.91"></path><path class="cls-5" d="M480.43,228.22c0,43.4-29.95,78.59-66.88,78.59s-66.87-35.19-66.87-78.59Zm-66.88,78.59V413.55M696.31,777.16H130.78V413.54H696.31ZM130.79,425.28H696.31M131.38,765.44H696.91"></path></svg> 