<?xml version="1.0" encoding="UTF-8"?> <svg xmlns="http://www.w3.org/2000/svg" id="Livello_1" data-name="Livello 1" viewBox="0 0 509.33 1000"><defs><style>.cls-1{fill:#fff;}.cls-2{fill:#231f20;}.cls-3,.cls-4{fill:none;stroke-width:0.25px;}.cls-3{stroke:#000;}.cls-4{stroke:#231f20;stroke-miterlimit:10;}</style></defs><title>Spoon terra</title><rect class="cls-1" width="509.33" height="1000"></rect><path class="cls-2" d="M77.67.91H77L63.35,5.82V11.1l7.79-2.41V33.9h6.53Zm33.1,0H87.51V6.24h16.36L91.13,33.9H98L110.77,4.61Zm26.34,13.63a21.62,21.62,0,0,0-.83-6.4A11.3,11.3,0,0,0,134,3.83a8.45,8.45,0,0,0-3.52-2.51,11.92,11.92,0,0,0-4.54-.83,12.11,12.11,0,0,0-4.54.83,8.36,8.36,0,0,0-3.47,2.51,11.29,11.29,0,0,0-2.27,4.35,21.27,21.27,0,0,0-.84,6.4v5.69a21.15,21.15,0,0,0,.84,6.35,12,12,0,0,0,2.27,4.4,8.45,8.45,0,0,0,3.52,2.51,12.11,12.11,0,0,0,4.54.83,11.92,11.92,0,0,0,4.54-.83A8.51,8.51,0,0,0,134.05,31a12.17,12.17,0,0,0,2.27-4.4,23,23,0,0,0,.79-6.35Zm-6.53,6.57a17,17,0,0,1-.33,3.71,7.1,7.1,0,0,1-.88,2.46,3.29,3.29,0,0,1-1.44,1.34,4.23,4.23,0,0,1-1.94.42,4.31,4.31,0,0,1-1.95-.42,3.32,3.32,0,0,1-1.43-1.34,7.07,7.07,0,0,1-.93-2.46,20.39,20.39,0,0,1-.28-3.71V13.6a19.88,19.88,0,0,1,.28-3.66,7,7,0,0,1,.88-2.41A4,4,0,0,1,124,6.19a4.51,4.51,0,0,1,1.94-.37,4.3,4.3,0,0,1,2,.37,3.77,3.77,0,0,1,1.48,1.34,6.8,6.8,0,0,1,.88,2.41,16.57,16.57,0,0,1,.33,3.66ZM158.3.63A17.41,17.41,0,0,0,151.21,2a14.93,14.93,0,0,0-5.28,3.71,17.24,17.24,0,0,0-3.29,5.74,22.69,22.69,0,0,0-1.11,7.28v2.55a16.5,16.5,0,0,0,.83,5.33,12.49,12.49,0,0,0,2.32,4.12,10.64,10.64,0,0,0,3.66,2.69,11.39,11.39,0,0,0,4.77,1,11.81,11.81,0,0,0,4.59-.88,10.5,10.5,0,0,0,3.52-2.41,10.31,10.31,0,0,0,2.23-3.57,12.81,12.81,0,0,0,.78-4.45,16.12,16.12,0,0,0-.6-4.3,10.55,10.55,0,0,0-1.76-3.57A8.65,8.65,0,0,0,159,12.77a9,9,0,0,0-4.12-.93,9.72,9.72,0,0,0-3.75.74,9,9,0,0,0-2.88,2A10.91,10.91,0,0,1,149.31,11a8,8,0,0,1,2.14-2.69,10.11,10.11,0,0,1,3.24-1.71A12.63,12.63,0,0,1,158.86,6h.37V.63Zm-3.42,16.91a5,5,0,0,1,1.52,1.25,6.1,6.1,0,0,1,1,1.9,8,8,0,0,1,.32,2.41,8,8,0,0,1-.32,2.41,5.73,5.73,0,0,1-1,1.85A4.28,4.28,0,0,1,153,29.08a4.81,4.81,0,0,1-2-.42,4.6,4.6,0,0,1-1.57-1.3,7.34,7.34,0,0,1-1-2.17,12.09,12.09,0,0,1-.37-3.06v-2a4.42,4.42,0,0,1,.75-1.16,4.17,4.17,0,0,1,1.06-1,5.15,5.15,0,0,1,1.34-.64,4.67,4.67,0,0,1,1.63-.24,4.74,4.74,0,0,1,2,.42ZM181,17.17H168.29v5.24H181ZM201.86.91h-.69L187.54,5.82V11.1l7.79-2.41V33.9h6.53Zm32.87,13.67a21.62,21.62,0,0,0-.83-6.4,11.43,11.43,0,0,0-2.27-4.35,8.58,8.58,0,0,0-3.52-2.51,12,12,0,0,0-4.55-.83,12.14,12.14,0,0,0-4.54.83,8.36,8.36,0,0,0-3.47,2.51,11.43,11.43,0,0,0-2.27,4.35,21.27,21.27,0,0,0-.84,6.4v5.69a21.15,21.15,0,0,0,.84,6.35,12.17,12.17,0,0,0,2.27,4.4,8.51,8.51,0,0,0,3.52,2.51,12.11,12.11,0,0,0,4.54.83,11.92,11.92,0,0,0,4.54-.83A8.45,8.45,0,0,0,231.67,31a12,12,0,0,0,2.27-4.4,23,23,0,0,0,.79-6.35Zm-6.53,6.57a16.39,16.39,0,0,1-.33,3.71,7.1,7.1,0,0,1-.88,2.46,3.32,3.32,0,0,1-1.43,1.34,4.31,4.31,0,0,1-1.95.42,4.23,4.23,0,0,1-1.94-.42,3.29,3.29,0,0,1-1.44-1.34,7.07,7.07,0,0,1-.93-2.46,21.34,21.34,0,0,1-.28-3.71V13.6a20.8,20.8,0,0,1,.28-3.66,7,7,0,0,1,.88-2.41,4,4,0,0,1,1.44-1.34,4.51,4.51,0,0,1,1.94-.37,4.28,4.28,0,0,1,1.95.37A3.71,3.71,0,0,1,227,7.53a6.8,6.8,0,0,1,.88,2.41,16,16,0,0,1,.33,3.66Z" transform="translate(0 -0.49)"></path><path class="cls-3" d="M106.62,940.87h98.29M389,100.86V898.53" transform="translate(0 -0.49)"></path><path d="M426.3,517.71v.52l3.59,9.58h3l-2.48-6.73h22.28v-3.37ZM440.7,503v-2.52a6.22,6.22,0,0,1,1.26-4.07,4.34,4.34,0,0,1,3.51-1.4,4.83,4.83,0,0,1,3.63,1.26,6,6,0,0,1,0,7.36,4.24,4.24,0,0,1-3.29,1.33v3.37A6.65,6.65,0,0,0,451.1,506a9.89,9.89,0,0,0-.08-12,7.17,7.17,0,0,0-5.62-2.33,6.53,6.53,0,0,0-3.89,1.18,6.7,6.7,0,0,0-2.25,3.37,6.87,6.87,0,0,0-2.41-3,5.78,5.78,0,0,0-3.33-1.11A7.2,7.2,0,0,0,428,494.2a9.41,9.41,0,0,0,.12,11.65,6.68,6.68,0,0,0,5.18,2.3v-3.37a4.27,4.27,0,0,1-3.26-1.26,4.79,4.79,0,0,1-1.26-3.48c0-3.07,1.56-4.62,4.63-4.62a4.23,4.23,0,0,1,3.29,1.37,5.57,5.57,0,0,1,1.26,3.73V503Zm-.48-20.18-.71-.89a5.56,5.56,0,0,1-1-3.44,4.85,4.85,0,0,1,1.59-3.81,6.1,6.1,0,0,1,4.26-1.45,6.63,6.63,0,0,1,4.37,1.34,4.47,4.47,0,0,1,1.59,3.66,5,5,0,0,1-1.15,3.44,5.27,5.27,0,0,1-3.4,1.59v3.19a7.79,7.79,0,0,0,5.36-2.52,8.29,8.29,0,0,0,1.93-5.7,8.06,8.06,0,0,0-2.33-6.14,9.08,9.08,0,0,0-6.41-2.19,9.41,9.41,0,0,0-6.44,2.11,7.25,7.25,0,0,0-2.37,5.7,8.32,8.32,0,0,0,1.15,4.41l-7.18-.78V470.72h-3.11v13.47l13.14,1.33Z" transform="translate(0 -0.49)"></path><path d="M148.15,973.57h-.52L138,977.16v3l6.74-2.48V1000h3.37Zm20.81,0h-.52l-9.58,3.59v3l6.73-2.48V1000H169Z" transform="translate(0 -0.49)"></path><path d="M226.91,294.21h-3.56l-11.77,18.25v2h12v6.11h3.33v-6.11h3.66v-2.74h-3.66Zm-3.74,5.29.41-.7v12.88h-8.22ZM237.84,308l.88-.71a5.62,5.62,0,0,1,3.45-1,4.85,4.85,0,0,1,3.81,1.59,6.14,6.14,0,0,1,1.44,4.26,6.63,6.63,0,0,1-1.33,4.37,4.49,4.49,0,0,1-3.66,1.59A5,5,0,0,1,239,317a5.32,5.32,0,0,1-1.59-3.4h-3.18a7.75,7.75,0,0,0,2.52,5.36,8.27,8.27,0,0,0,5.7,1.93,8.08,8.08,0,0,0,6.14-2.33,9.12,9.12,0,0,0,2.18-6.41,9.36,9.36,0,0,0-2.11-6.44,7.24,7.24,0,0,0-5.7-2.37,8.28,8.28,0,0,0-4.4,1.15l.78-7.18H250v-3.11H236.5l-1.33,13.14ZM256,301.8a4.42,4.42,0,0,0,3.25,1.37,4.3,4.3,0,0,0,3.22-1.37,4.48,4.48,0,0,0,1.34-3.26,4.59,4.59,0,0,0-1.34-3.29,4.42,4.42,0,0,0-6.47,0,4.62,4.62,0,0,0-1.37,3.29A4.51,4.51,0,0,0,256,301.8Zm1.59-1.63a2.15,2.15,0,0,1-.67-1.63,2.34,2.34,0,0,1,.67-1.66,2.16,2.16,0,0,1,1.66-.71,2.19,2.19,0,0,1,1.63.67,2.32,2.32,0,0,1,.67,1.7,2.19,2.19,0,0,1-.67,1.67,2.27,2.27,0,0,1-1.63.63,2.23,2.23,0,0,1-1.66-.67Z" transform="translate(0 -0.49)"></path><path class="cls-4" d="M314.2,296.47c-7.12-43.9-52-78.45-108.18-82.91" transform="translate(0 -0.49)"></path><polygon class="cls-2" points="322.91 292.71 315.87 308.46 305.74 294.48 322.91 292.71"></polygon><polygon class="cls-4" points="322.91 292.71 315.87 308.46 305.74 294.48 322.91 292.71 322.91 292.71"></polygon><polygon class="cls-2" points="208.89 204.02 193.53 211.9 208.03 221.27 208.89 204.02"></polygon><polygon class="cls-4" points="208.89 204.02 193.53 211.9 208.03 221.27 208.89 204.02 208.89 204.02"></polygon><path class="cls-1" d="M105.69,904" transform="translate(0 -0.49)"></path><path class="cls-4" d="M105.69,904" transform="translate(0 -0.49)"></path><path class="cls-1" d="M142.22,163.93l-4.49-4.58,5-5,51.07-51.26,4.5,4.58Zm.54-9.62,4.36,4.41m51.2-51.09s-10.7,34.13-52.29,52.2m-8,1.47-9.67,9.77,3,3.05,10-10.14m-10,10.14a6.09,6.09,0,0,0-2.28,5.8l-4.92-.18c.54-6.08,4.19-8.67,4.19-8.67m-4.19,8.67.36,143.81h4.74V180M132,333.5H120.86v-9.95H132Zm-1.1,531.88h-8.76V333.5h8.76Zm1.83,30.23H120.31V865.38h12.41ZM203.37,903H107.06v-7.38h96.31Z" transform="translate(0 -0.49)"></path><path class="cls-4" d="M142.22,163.93l-4.49-4.58,5-5,51.07-51.26,4.5,4.58-56.1,56.3Zm.54-9.62,4.36,4.41m51.2-51.09s-10.7,34.13-52.29,52.2m-8,1.47-9.67,9.77,3,3.05,10-10.14m-10,10.14a6.09,6.09,0,0,0-2.28,5.8l-4.92-.18c.54-6.08,4.19-8.67,4.19-8.67m-4.19,8.67.36,143.81h4.74V180M132,333.5H120.86v-9.95H132v9.95Zm-1.1,531.88h-8.76V333.5h8.76Zm1.83,30.23H120.31V865.38h12.41ZM203.37,903H107.06v-7.38h96.31Z" transform="translate(0 -0.49)"></path></svg> 