<?xml version="1.0" encoding="UTF-8"?> <svg xmlns="http://www.w3.org/2000/svg" id="Livello_1" data-name="Livello 1" viewBox="0 0 509.33 1000"><defs><style>.cls-1{fill:#fff;}.cls-2{fill:#231f20;}.cls-3,.cls-4{fill:none;stroke-width:0.25px;}.cls-3{stroke:#000;}.cls-4{stroke:#231f20;stroke-miterlimit:10;}</style></defs><title>Spoon wall</title><rect class="cls-1" width="509.33" height="1000"></rect><path class="cls-2" d="M96.6.91h-.7L82.27,5.82v5.29l7.79-2.42V33.91H96.6Zm33.12,0H106.45V6.24h16.36L110.06,33.91H117L129.72,4.62Zm26.35,13.63a21.36,21.36,0,0,0-.84-6.4A11.43,11.43,0,0,0,153,3.83a8.51,8.51,0,0,0-3.52-2.51A12,12,0,0,0,144.9.49a12.16,12.16,0,0,0-4.55.83,8.36,8.36,0,0,0-3.47,2.51,11.3,11.3,0,0,0-2.28,4.35,21.71,21.71,0,0,0-.83,6.4v5.7a21.62,21.62,0,0,0,.83,6.36,12.35,12.35,0,0,0,2.28,4.4,8.42,8.42,0,0,0,3.52,2.5,11.92,11.92,0,0,0,4.54.84,11.74,11.74,0,0,0,4.54-.84A8.52,8.52,0,0,0,153,31a12.5,12.5,0,0,0,2.27-4.4,23.15,23.15,0,0,0,.79-6.36Zm-6.54,6.58a17.06,17.06,0,0,1-.32,3.71,7.31,7.31,0,0,1-.88,2.46,3.34,3.34,0,0,1-1.44,1.34,4.74,4.74,0,0,1-3.9,0,3.27,3.27,0,0,1-1.43-1.34,7.07,7.07,0,0,1-.93-2.46,20.39,20.39,0,0,1-.28-3.71V13.61a19.81,19.81,0,0,1,.28-3.66,7,7,0,0,1,.88-2.41A3.91,3.91,0,0,1,143,6.19a4.52,4.52,0,0,1,2-.37,4.23,4.23,0,0,1,1.94.37,3.75,3.75,0,0,1,1.49,1.35,7,7,0,0,1,.88,2.41,16.57,16.57,0,0,1,.32,3.66ZM177.27.63A17.41,17.41,0,0,0,170.18,2a14.88,14.88,0,0,0-5.28,3.71,17,17,0,0,0-3.3,5.75,22.69,22.69,0,0,0-1.11,7.28v2.55a16.19,16.19,0,0,0,.84,5.33,12.2,12.2,0,0,0,2.31,4.12,10.59,10.59,0,0,0,3.67,2.69,11.36,11.36,0,0,0,4.77,1,12,12,0,0,0,4.59-.88,10.64,10.64,0,0,0,3.52-2.41,10.4,10.4,0,0,0,2.23-3.57,12.86,12.86,0,0,0,.79-4.45,16.27,16.27,0,0,0-.61-4.32,10.55,10.55,0,0,0-1.76-3.57,8.88,8.88,0,0,0-2.92-2.41,9,9,0,0,0-4.12-.92,9.77,9.77,0,0,0-3.76.74,9.1,9.1,0,0,0-2.87,2A10.59,10.59,0,0,1,168.28,11a8.22,8.22,0,0,1,2.13-2.69,10.47,10.47,0,0,1,3.25-1.71,12.64,12.64,0,0,1,4.17-.6h.37V.63Zm-3.43,16.92a5,5,0,0,1,1.53,1.25,6.32,6.32,0,0,1,1,1.9,8,8,0,0,1,.32,2.41,8,8,0,0,1-.32,2.41,6,6,0,0,1-1,1.86,3.94,3.94,0,0,1-1.48,1.25,3.85,3.85,0,0,1-1.95.46,4.77,4.77,0,0,1-2-.42,4.69,4.69,0,0,1-1.58-1.29,7.25,7.25,0,0,1-1-2.18,12.09,12.09,0,0,1-.37-3.06v-2a4.14,4.14,0,0,1,.74-1.16,4.39,4.39,0,0,1,1.07-1,5,5,0,0,1,1.34-.65,4.89,4.89,0,0,1,1.62-.23,4.68,4.68,0,0,1,2,.42ZM200,17.18H187.26v5.24H200Zm11.62,2.46h3.47a8.89,8.89,0,0,1,2.27.27,7,7,0,0,1,1.72.88,4.51,4.51,0,0,1,1.06,1.53,6.47,6.47,0,0,1,.38,2.28,4.78,4.78,0,0,1-.38,1.85,3.07,3.07,0,0,1-1,1.39,3.64,3.64,0,0,1-1.57.93,5.89,5.89,0,0,1-2.09.32,5.13,5.13,0,0,1-1.9-.32,4.27,4.27,0,0,1-1.53-.88,3.9,3.9,0,0,1-1-1.3,4.1,4.1,0,0,1-.37-1.72h-6.54a8.58,8.58,0,0,0,1,4.22,8.71,8.71,0,0,0,2.54,3,11.24,11.24,0,0,0,3.57,1.76,15.63,15.63,0,0,0,4.13.56,16.41,16.41,0,0,0,4.64-.65,10.9,10.9,0,0,0,3.7-1.9,8.67,8.67,0,0,0,2.46-3,9.7,9.7,0,0,0,.88-4.12,7.72,7.72,0,0,0-5.51-7.7,11.28,11.28,0,0,0,2.13-1.34A10.73,10.73,0,0,0,225.25,14a8.75,8.75,0,0,0,1-2,8.41,8.41,0,0,0,.32-2.09,9.69,9.69,0,0,0-.83-4.08,8.38,8.38,0,0,0-2.27-2.92,10.62,10.62,0,0,0-3.53-1.81,17.38,17.38,0,0,0-4.54-.6,13.81,13.81,0,0,0-4.22.65A11.32,11.32,0,0,0,207.73,3a9.21,9.21,0,0,0-2.32,2.82,8.35,8.35,0,0,0-.83,3.71h6.54a3.55,3.55,0,0,1,1.29-2.69,3.94,3.94,0,0,1,1.44-.74,5,5,0,0,1,1.67-.28,5.12,5.12,0,0,1,2,.33A3.49,3.49,0,0,1,218.9,7a3.4,3.4,0,0,1,.84,1.34A5,5,0,0,1,220,10a4.55,4.55,0,0,1-1.21,3.29,5,5,0,0,1-3.71,1.26h-3.47Zm42.11-5.06a21.36,21.36,0,0,0-.84-6.4,11.29,11.29,0,0,0-2.27-4.35,8.51,8.51,0,0,0-3.52-2.51,12,12,0,0,0-4.54-.83,12.16,12.16,0,0,0-4.55.83,8.36,8.36,0,0,0-3.47,2.51,11.3,11.3,0,0,0-2.28,4.35,21.71,21.71,0,0,0-.83,6.4v5.7a21.62,21.62,0,0,0,.83,6.36,12.35,12.35,0,0,0,2.28,4.4,8.42,8.42,0,0,0,3.52,2.5,11.92,11.92,0,0,0,4.54.84,11.74,11.74,0,0,0,4.54-.84,8.52,8.52,0,0,0,3.53-2.5,12.5,12.5,0,0,0,2.27-4.4,23.15,23.15,0,0,0,.79-6.36Zm-6.54,6.58a17.06,17.06,0,0,1-.32,3.71,7.31,7.31,0,0,1-.88,2.46,3.23,3.23,0,0,1-1.44,1.34,4.74,4.74,0,0,1-3.9,0,3.27,3.27,0,0,1-1.43-1.34,7.07,7.07,0,0,1-.93-2.46,21.34,21.34,0,0,1-.28-3.71V13.61A20.72,20.72,0,0,1,238.3,10a7,7,0,0,1,.88-2.41,3.91,3.91,0,0,1,1.44-1.35,4.52,4.52,0,0,1,1.95-.37,4.23,4.23,0,0,1,1.94.37A3.69,3.69,0,0,1,246,7.54a7,7,0,0,1,.88,2.41,16.57,16.57,0,0,1,.32,3.66Z" transform="translate(0 -0.49)"></path><line class="cls-3" x1="89.09" y1="940.84" x2="187.42" y2="940.84"></line><path d="M130.63,974.05h-.52l-9.59,3.59v3l6.74-2.48v22.29h3.37Zm20.82,0h-.52l-9.59,3.59v3l6.74-2.48v22.29h3.37Z" transform="translate(0 -0.49)"></path><line class="cls-3" x1="364.66" y1="389.97" x2="364.66" y2="909.56"></line><path d="M402.11,656.36q.11,6.1,3.92,9.22t11.11,3.11h1.3a11.7,11.7,0,0,0,7.48-2.37,7.51,7.51,0,0,0,2.89-6.11,7.62,7.62,0,0,0-2.45-6,9.22,9.22,0,0,0-6.51-2.23,9.38,9.38,0,0,0-6.26,2.08,6.87,6.87,0,0,0-2.41,5.48,7.07,7.07,0,0,0,2.37,5.66,9.49,9.49,0,0,1-6.29-2.66,8.84,8.84,0,0,1-2.3-6.22v-.63h-2.85Zm13.59.29a6.69,6.69,0,0,1,4.33-1.29,6.54,6.54,0,0,1,4.33,1.29,4.24,4.24,0,0,1,1.67,3.56,4.43,4.43,0,0,1-2,3.63,8.5,8.5,0,0,1-5.22,1.48h-1.23a5.23,5.23,0,0,1-2.55-2,5.4,5.4,0,0,1-1-3.19,4.24,4.24,0,0,1,1.67-3.48Zm-2.82-25.12c-3.81,0-6.59.75-8.4,2.08s-2.74,3.41-2.74,6.26.92,5,2.81,6.29,4.78,2,8.63,2h4.48c3.7,0,6.48-.74,8.37-2.11s2.78-3.41,2.78-6.22-1-5-2.85-6.3-4.82-2-8.74-2Zm5.23,3.34a12.1,12.1,0,0,1,6,1.26,4.48,4.48,0,0,1-.11,7.44,12.57,12.57,0,0,1-6.29,1.26h-5.37a12.43,12.43,0,0,1-6-1.22,4,4,0,0,1-1.92-3.74,4.1,4.1,0,0,1,2-3.78c1.3-.82,3.33-1.22,6.18-1.22Z" transform="translate(0 -0.49)"></path><path class="cls-1" d="M117.33,475l-5.94-6.19L118,462l67.48-69.28,5.94,6.19Zm.7-13,5.78,6m67.64-69.07S177.32,445,122.36,469.42m-10.6,2L99,484.62l4,4.11L116.22,475M103,488.73a8.34,8.34,0,0,0-3,7.85l-6.51-.24c.72-8.23,5.54-11.72,5.54-11.72m-5.54,11.72.48,152.75h6.27V496.58m3.61,207.09H89.1V649.84h14.7ZM89.1,663.29h14.7m-14,38.38H78V665.29H89.83Zm-11.33,2.5H68.86V662.8H78.5Zm23.86,190.88H90.78V704.16h11.58Zm-.24,13.45H92v-13h10.13Z" transform="translate(0 -0.49)"></path><path class="cls-4" d="M117.33,475l-5.94-6.19L118,462l67.48-69.28,5.94,6.19L117.33,475Zm.7-13,5.78,6m67.64-69.07S177.32,445,122.36,469.42m-10.6,2L99,484.62l4,4.11L116.22,475M103,488.73a8.34,8.34,0,0,0-3,7.85l-6.51-.24c.72-8.23,5.54-11.72,5.54-11.72m-5.54,11.72.48,152.75h6.27V496.58m3.61,207.09H89.1V649.84h14.7v53.83ZM89.1,663.29h14.7m-14,38.38H78V665.29H89.83Zm-11.33,2.5H68.86V662.8H78.5Zm23.86,190.88H90.78V704.16h11.58Zm-.24,13.45H92v-13h10.13Z" transform="translate(0 -0.49)"></path></svg> 