<?xml version="1.0" encoding="UTF-8"?> <svg xmlns="http://www.w3.org/2000/svg" id="Livello_1" data-name="Livello 1" viewBox="0 0 509.33 1000.49"><defs><style>.cls-1{fill:#fff;}.cls-2{fill:#231f20;}.cls-3,.cls-4,.cls-5{fill:none;stroke:#231f20;stroke-width:0.25px;}.cls-4{stroke-linecap:round;stroke-linejoin:round;}.cls-5{stroke-miterlimit:10;}</style></defs><title>Storm large</title><rect class="cls-1" y="0.49" width="509.33" height="1000"></rect><path class="cls-2" d="M367.93,685.63v-4l-20.4-13.16h-2.2v13.41H338.5v3.72h6.83v4.1h3.07v-4.1ZM362,681.45l.78.46H348.4v-9.19Zm5.91,30.69V692.27h-3.06v15.89L338.5,696V700l27.32,12.17Z"></path><line class="cls-3" x1="316.39" y1="996.46" x2="316.39" y2="409.1"></line><path class="cls-2" d="M157.41.47h-.78L141.4,6v5.91l8.71-2.7V37.36h7.3Zm37,.05h-26V6.43h18.29L172.46,37.36h7.72L194.44,4.61Zm29.45,15.23A24,24,0,0,0,223,8.6a12.7,12.7,0,0,0-2.54-4.87,9.6,9.6,0,0,0-3.94-2.8A13.25,13.25,0,0,0,211.4,0a13.51,13.51,0,0,0-5.08.93,9.42,9.42,0,0,0-3.88,2.8A12.7,12.7,0,0,0,199.9,8.6a24,24,0,0,0-.93,7.15v6.38a23.93,23.93,0,0,0,.93,7.1,13.68,13.68,0,0,0,2.54,4.92,9.45,9.45,0,0,0,3.94,2.8,13.43,13.43,0,0,0,5.08.93,13.24,13.24,0,0,0,5.07-.93,9.45,9.45,0,0,0,3.94-2.8A13.68,13.68,0,0,0,223,29.23a25.82,25.82,0,0,0,.88-7.1Zm-7.3,7.36a18.87,18.87,0,0,1-.37,4.15,8.06,8.06,0,0,1-1,2.75,3.77,3.77,0,0,1-1.61,1.5,5.37,5.37,0,0,1-4.35,0,3.77,3.77,0,0,1-1.61-1.5,8,8,0,0,1-1-2.75,23,23,0,0,1-.32-4.15V14.67a22.42,22.42,0,0,1,.32-4.1,7.62,7.62,0,0,1,1-2.69,4.51,4.51,0,0,1,1.61-1.51A5.09,5.09,0,0,1,211.4,6a4.83,4.83,0,0,1,2.18.41,4.26,4.26,0,0,1,1.66,1.51,7.62,7.62,0,0,1,1,2.69,18.39,18.39,0,0,1,.37,4.1ZM250.45.52H243L227.7,24.77l.31,4.61h15.13v8h7.31v-8h4.14v-5.9h-4.14Zm-7.83,10.83.52-.88v13H235Zm30.44,7.31H258.81v5.85h14.25Zm30.82,12.8H288l6.48-6.84c1.24-1.3,2.38-2.49,3.37-3.68a26.09,26.09,0,0,0,2.59-3.48,17,17,0,0,0,1.6-3.42,10.24,10.24,0,0,0,.63-3.57,12.09,12.09,0,0,0-.78-4.41,8.85,8.85,0,0,0-2.33-3.26A10.37,10.37,0,0,0,295.85.73,17.34,17.34,0,0,0,290.66,0a13.61,13.61,0,0,0-5.33,1,11.79,11.79,0,0,0-4,2.6,11.46,11.46,0,0,0-2.6,3.83,13.14,13.14,0,0,0-.88,4.72h7.36a7.33,7.33,0,0,1,.37-2.49,5.78,5.78,0,0,1,1-2,4.87,4.87,0,0,1,1.71-1.3,5.12,5.12,0,0,1,2.28-.46,4.47,4.47,0,0,1,3.52,1.4,5.64,5.64,0,0,1,1.25,3.88,4.74,4.74,0,0,1-.26,1.66,9.61,9.61,0,0,1-.78,1.87,15.56,15.56,0,0,1-1.5,2.23,29.61,29.61,0,0,1-2.28,2.69l-11.92,12.7v5h25.29ZM315.77,21.4h3.88a10,10,0,0,1,2.54.31,7.25,7.25,0,0,1,1.92,1,4.91,4.91,0,0,1,1.19,1.71,7.38,7.38,0,0,1,.42,2.54A5.46,5.46,0,0,1,325.3,29a3.59,3.59,0,0,1-1.08,1.56,4.09,4.09,0,0,1-1.77,1,6.45,6.45,0,0,1-2.33.36,5.66,5.66,0,0,1-2.12-.36,4.62,4.62,0,0,1-1.71-1,4.45,4.45,0,0,1-1.14-1.45,4.55,4.55,0,0,1-.42-1.92h-7.31A9.64,9.64,0,0,0,308.51,32a9.86,9.86,0,0,0,2.85,3.32,12.62,12.62,0,0,0,4,2,17.61,17.61,0,0,0,4.62.62,18.68,18.68,0,0,0,5.18-.72A12.22,12.22,0,0,0,329.29,35,9.66,9.66,0,0,0,332,31.66a11,11,0,0,0,1-4.61,9,9,0,0,0-1.55-5.28,8.9,8.9,0,0,0-4.61-3.32,12.47,12.47,0,0,0,2.38-1.5A11.46,11.46,0,0,0,331,15.08a9.79,9.79,0,0,0,1.09-2.23,9,9,0,0,0,.36-2.33A10.74,10.74,0,0,0,331.52,6,9.29,9.29,0,0,0,329,2.69a11.84,11.84,0,0,0-3.94-2A19.56,19.56,0,0,0,320,0a15.4,15.4,0,0,0-4.72.73,12.76,12.76,0,0,0-3.84,2,10.33,10.33,0,0,0-2.59,3.16,9.19,9.19,0,0,0-.93,4.14h7.31a3.78,3.78,0,0,1,.41-1.71,3.7,3.7,0,0,1,1-1.29,4.25,4.25,0,0,1,1.61-.83,5.34,5.34,0,0,1,1.86-.31,5.73,5.73,0,0,1,2.23.36,3.94,3.94,0,0,1,1.55,1,3.66,3.66,0,0,1,.94,1.5,5.58,5.58,0,0,1,.31,1.86,5.09,5.09,0,0,1-1.35,3.68,5.54,5.54,0,0,1-4.15,1.4h-3.88Z"></path><path class="cls-2" d="M187.79,67.53h-3.06v38.86h3.06Zm28.69,38.86v-.31a9.81,9.81,0,0,1-.36-1.14c-.1-.41-.15-.88-.26-1.35s-.1-.93-.15-1.45a12,12,0,0,1-.06-1.45V87.43a9.75,9.75,0,0,0-.72-3.89,7.68,7.68,0,0,0-2.07-2.8,9.19,9.19,0,0,0-3.11-1.66,12.86,12.86,0,0,0-4-.57,12.65,12.65,0,0,0-4.31.68A11.64,11.64,0,0,0,198.09,81,8.66,8.66,0,0,0,196,83.59a5.91,5.91,0,0,0-.72,3l3,.06a4.57,4.57,0,0,1,.57-2.18,6,6,0,0,1,1.51-1.76,6.85,6.85,0,0,1,2.33-1.14,8.73,8.73,0,0,1,2.9-.47,7.4,7.4,0,0,1,5.29,1.71,6,6,0,0,1,1.81,4.61v3.11h-5.6a22.88,22.88,0,0,0-5.23.57,12,12,0,0,0-3.94,1.77,7.16,7.16,0,0,0-3.32,6.32,7.45,7.45,0,0,0,.63,3.06,7.08,7.08,0,0,0,1.76,2.48,8.13,8.13,0,0,0,2.8,1.66,11.59,11.59,0,0,0,3.62.57,13.49,13.49,0,0,0,3-.36,17.44,17.44,0,0,0,2.59-.93,9.77,9.77,0,0,0,2.07-1.4,8.4,8.4,0,0,0,1.61-1.66c0,.72.1,1.4.21,2.12a6.5,6.5,0,0,0,.41,1.71ZM201.2,103.8a6.07,6.07,0,0,1-2-1.14A4.23,4.23,0,0,1,198,101a4.56,4.56,0,0,1-.47-2.07,5.19,5.19,0,0,1,.67-2.54,5.42,5.42,0,0,1,2-1.92,9.53,9.53,0,0,1,3.11-1.19,16.81,16.81,0,0,1,4.15-.41h5.18v6A9.16,9.16,0,0,1,211.3,101a10.67,10.67,0,0,1-2,1.71,9.94,9.94,0,0,1-2.54,1.14,11.41,11.41,0,0,1-3,.42,7.59,7.59,0,0,1-2.54-.42Zm35.26-25a6,6,0,0,0-.88-.2,7.33,7.33,0,0,0-1.14-.11,7.84,7.84,0,0,0-4.66,1.3,9.29,9.29,0,0,0-3.06,3.57L226.67,79h-3v27.36h3V87.58a13.72,13.72,0,0,1,1-2.49,7.27,7.27,0,0,1,1.61-1.91,6.55,6.55,0,0,1,2.18-1.3,7.94,7.94,0,0,1,2.8-.47,12.82,12.82,0,0,1,2,.16ZM239.92,93a19.34,19.34,0,0,0,.72,5.65,12.89,12.89,0,0,0,2.07,4.4,10.14,10.14,0,0,0,3.32,2.85,9.32,9.32,0,0,0,4.41,1,10.83,10.83,0,0,0,5-1.09,9.41,9.41,0,0,0,3.42-2.95V106a11.28,11.28,0,0,1-.52,3.68,7,7,0,0,1-1.6,2.69,6.54,6.54,0,0,1-2.54,1.77,10,10,0,0,1-3.42.57,8.9,8.9,0,0,1-4.1-.94,11.7,11.7,0,0,1-3.57-3l-1.66,1.81a9,9,0,0,0,1.92,2.07,14.05,14.05,0,0,0,2.38,1.46,15.8,15.8,0,0,0,2.59.88,11.85,11.85,0,0,0,2.65.26,12.39,12.39,0,0,0,4.5-.78,9.9,9.9,0,0,0,3.48-2.23,10.38,10.38,0,0,0,2.17-3.58,13.64,13.64,0,0,0,.83-4.76V79h-2.85L259,83a10.05,10.05,0,0,0-3.48-3.27,9.69,9.69,0,0,0-5-1.19,9.51,9.51,0,0,0-4.46,1,10,10,0,0,0-3.32,2.8,12.89,12.89,0,0,0-2.07,4.4,19.81,19.81,0,0,0-.72,5.75Zm3.05-.52a20.32,20.32,0,0,1,.47-4.45,11.23,11.23,0,0,1,1.45-3.58A6.89,6.89,0,0,1,247.43,82a6.65,6.65,0,0,1,3.63-.88,9.76,9.76,0,0,1,2.9.41,8.39,8.39,0,0,1,2.23,1.19,8.28,8.28,0,0,1,1.6,1.71,9,9,0,0,1,1.09,2.07v12.7a9.5,9.5,0,0,1-1.19,2,7,7,0,0,1-1.66,1.56,8.26,8.26,0,0,1-2.23,1.09,9.68,9.68,0,0,1-2.79.36,7,7,0,0,1-3.58-.88,6.92,6.92,0,0,1-2.54-2.39,11.17,11.17,0,0,1-1.45-3.57A20,20,0,0,1,243,93Zm40.81,14a10.68,10.68,0,0,0,4.77-2.54,13.46,13.46,0,0,0,1.6-1.92l-1.91-1.4a9,9,0,0,1-3.37,2.8,9.59,9.59,0,0,1-4.3.88,8.66,8.66,0,0,1-3.84-.83,9.26,9.26,0,0,1-3-2.33,10.55,10.55,0,0,1-1.92-3.42,12.74,12.74,0,0,1-.67-4.25v-.57h19.53V91.05a17.15,17.15,0,0,0-.72-5,11.3,11.3,0,0,0-2.07-4,10.07,10.07,0,0,0-3.42-2.59,10.68,10.68,0,0,0-4.62-.94,10.08,10.08,0,0,0-4.45,1,11.89,11.89,0,0,0-3.73,2.8,13.05,13.05,0,0,0-2.6,4.35,16.79,16.79,0,0,0-.93,5.75v1.09a15.14,15.14,0,0,0,.93,5.39,12.16,12.16,0,0,0,2.54,4.25,10.88,10.88,0,0,0,3.89,2.74,11.69,11.69,0,0,0,4.92,1,12.83,12.83,0,0,0,3.32-.41Zm-.52-24.67a8.33,8.33,0,0,1,2.44,2,9.24,9.24,0,0,1,1.45,2.85,12.14,12.14,0,0,1,.57,3.37v.31H271.29a14.14,14.14,0,0,1,1-3.79,9.35,9.35,0,0,1,1.81-2.9,9,9,0,0,1,2.59-1.91,8.17,8.17,0,0,1,3.21-.63,7.6,7.6,0,0,1,3.37.73Z"></path><path class="cls-1" d="M220.86,959.64v-.42l.84-.84.83-.41.84-.83.41-.84.83-.83.83-.83.43-.84.4-.82.83-.84.42-1.25.42-.84.42-.83.42-1.24v-.84l.41-1.24V435.12l-.41-.41v-.84l-.42-.42V433l-.42-.84v-.4l-.42-.43v-.83l-.42-.42-.41-.4-.82-.85-.43-.84-.41-.4v-.84l-.42-.41-.42-.84v-.42l-.41-.83v-2.57s0-3.66,0-3.66l.41-.84v-.43l.42-.82.42-.83.41-.42.43-.84.41-.4.82-.84.42-.41.83-.42.43-.42.84-.41.4-.41.83-.43H240l.41.43.84.41.83.41.43.42.83.42.41.41.42.84.82.4.43.84.41.42.43.83.4.82v.43l.43.84s0,2.94,0,2.93v3.31l-.42.83v.4l-.42.84-.42.43-.41.83V428l-.42.84-.84.84-.41.4-.41.43v.82l-.43.42-.4.41V433l-.43.42v1.25l-.41.43V945.89l.41,1.26V948l.43,1.23.4.84.43.83.41,1.25.41.83.84.84.42.83.83.83.42.84.83.84.82.81.85.43.82.84"></path><path class="cls-4" d="M220.86,959.64v-.42l.84-.84.83-.41.84-.83.41-.84.83-.83.83-.83.43-.84.4-.82.83-.84.42-1.25.42-.84.42-.83.42-1.24v-.84l.41-1.24V435.12l-.41-.41v-.84l-.42-.42V433l-.42-.84v-.4l-.42-.43v-.83l-.42-.42-.41-.4-.82-.85-.43-.84-.41-.4v-.84l-.42-.41-.42-.84v-.42l-.41-.83v-2.57s0-3.66,0-3.66l.41-.84v-.43l.42-.82.42-.83.41-.42.43-.84.41-.4.82-.84.42-.41.83-.42.43-.42.84-.41.4-.41.83-.43H240l.41.43.84.41.83.41.43.42.83.42.41.41.42.84.82.4.43.84.41.42.43.83.4.82v.43l.43.84s0,2.94,0,2.93v3.31l-.42.83v.4l-.42.84-.42.43-.41.83V428l-.42.84-.84.84-.41.4-.41.43v.82l-.43.42-.4.41V433l-.43.42v1.25l-.41.43V945.89l.41,1.26V948l.43,1.23.4.84.43.83.41,1.25.41.83.84.84.42.83.83.83.42.84.83.84.82.81.85.43.82.84"></path><polygon class="cls-1" points="227.94 959.64 220.86 959.64 220.02 960.05 219.2 960.88 218.79 961.72 217.95 962.95 217.53 963.81 217.12 964.64 216.28 965.47 215.86 966.7 215.86 967.55 215.45 968.39 215.04 969.62 215.04 970.45 214.62 971.28 214.62 972.53 214.62 973.36 214.62 975.45 214.62 976.27 214.62 977.53 215.04 978.37 215.04 979.2 215.45 980.46 215.45 981.29 215.86 982.11 216.28 982.95 216.69 984.2 217.53 985.04 217.95 985.86 218.37 986.7 219.2 987.53 220.02 988.35 220.44 989.18 221.28 990.02 222.11 990.85 222.95 991.28 223.77 992.1 225.03 992.52 225.86 992.93 226.68 993.36 227.52 993.77 228.77 994.19 229.61 994.6 230.43 994.6 231.27 995.02 232.1 995.02 232.94 995.02 233.77 995.44 234.6 995.44 235.44 995.44 235.84 995.44 237.09 995.44 237.93 995.02 238.76 995.02 239.6 995.02 240.43 994.6 241.26 994.6 242.1 994.19 242.93 993.77 244.18 993.36 245.01 992.93 245.84 992.52 247.09 992.1 247.92 991.28 248.76 990.85 249.59 990.02 249.99 989.18 250.83 988.35 251.67 987.53 252.07 986.7 252.91 985.86 253.34 985.04 254.16 984.2 254.58 982.95 255 982.11 255 981.29 255.41 980.46 255.83 979.2 255.83 978.37 256.25 977.53 256.25 976.27 256.25 975.45 256.25 974.62 256.25 973.36 256.25 972.53 256.25 971.28 255.83 970.45 255.83 969.62 255.41 968.39 255 967.55 254.58 966.7 254.16 965.47 253.74 964.64 253.34 963.81 252.91 962.95 252.07 961.72 251.26 960.88 250.83 960.05 249.99 959.64 227.94 959.64"></polygon><polygon class="cls-4" points="227.94 959.64 220.86 959.64 220.02 960.05 219.2 960.88 218.79 961.72 217.95 962.95 217.53 963.81 217.12 964.64 216.28 965.47 215.86 966.7 215.86 967.55 215.45 968.39 215.04 969.62 215.04 970.45 214.62 971.28 214.62 972.53 214.62 973.36 214.62 975.45 214.62 976.27 214.62 977.53 215.04 978.37 215.04 979.2 215.45 980.46 215.45 981.29 215.86 982.11 216.28 982.95 216.69 984.2 217.53 985.04 217.95 985.86 218.37 986.7 219.2 987.53 220.02 988.35 220.44 989.18 221.28 990.02 222.11 990.85 222.95 991.28 223.77 992.1 225.03 992.52 225.86 992.93 226.68 993.36 227.52 993.77 228.77 994.19 229.61 994.6 230.43 994.6 231.27 995.02 232.1 995.02 232.94 995.02 233.77 995.44 234.6 995.44 235.44 995.44 235.84 995.44 237.09 995.44 237.93 995.02 238.76 995.02 239.6 995.02 240.43 994.6 241.26 994.6 242.1 994.19 242.93 993.77 244.18 993.36 245.01 992.93 245.84 992.52 247.09 992.1 247.92 991.28 248.76 990.85 249.59 990.02 249.99 989.18 250.83 988.35 251.67 987.53 252.07 986.7 252.91 985.86 253.34 985.04 254.16 984.2 254.58 982.95 255 982.11 255 981.29 255.41 980.46 255.83 979.2 255.83 978.37 256.25 977.53 256.25 976.27 256.25 975.45 256.25 974.62 256.25 973.36 256.25 972.53 256.25 971.28 255.83 970.45 255.83 969.62 255.41 968.39 255 967.55 254.58 966.7 254.16 965.47 253.74 964.64 253.34 963.81 252.91 962.95 252.07 961.72 251.26 960.88 250.83 960.05 249.99 959.64 227.94 959.64 227.94 959.64"></polygon><polygon class="cls-1" points="228.35 959.22 220.87 959.22 250 959.64 250 959.22 228.35 959.22"></polygon><polyline class="cls-4" points="250 959.64 250 959.22 228.35 959.22 220.86 959.22"></polyline><line class="cls-5" x1="235.43" y1="409.37" x2="235.43" y2="215.33"></line></svg> 