<?xml version="1.0" encoding="UTF-8"?> <svg xmlns="http://www.w3.org/2000/svg" id="Livello_1" data-name="Livello 1" viewBox="0 0 509.33 1000.49"><defs><style>.cls-1{fill:#fff;}.cls-2{fill:#231f20;}.cls-3,.cls-4,.cls-5{fill:none;stroke:#231f20;stroke-width:0.25px;}.cls-4{stroke-linecap:round;stroke-linejoin:round;}.cls-5{stroke-miterlimit:10;}</style></defs><title>Storm small</title><rect class="cls-1" y="0.49" width="509.33" height="1000"></rect><path class="cls-2" d="M355,604.16V607a6.92,6.92,0,0,1-1.4,4.55,4.86,4.86,0,0,1-3.94,1.57,5.42,5.42,0,0,1-4.05-1.4,5.77,5.77,0,0,1-1.41-4.18,5.7,5.7,0,0,1,1.41-4.06,4.78,4.78,0,0,1,3.68-1.49V598.2a7.43,7.43,0,0,0-5.92,2.61,11.1,11.1,0,0,0,.08,13.45,8.05,8.05,0,0,0,6.3,2.61,7.21,7.21,0,0,0,4.34-1.32,7.49,7.49,0,0,0,2.53-3.77,7.53,7.53,0,0,0,2.69,3.39,6.46,6.46,0,0,0,3.72,1.25,8.06,8.06,0,0,0,6.17-2.36,10.54,10.54,0,0,0-.12-13,7.51,7.51,0,0,0-5.8-2.57v3.77a4.78,4.78,0,0,1,3.65,1.41,5.34,5.34,0,0,1,1.4,3.89c0,3.43-1.74,5.17-5.17,5.17a4.78,4.78,0,0,1-3.69-1.53,6.28,6.28,0,0,1-1.4-4.18v-2.82Zm0,23.28v2.81a7,7,0,0,1-1.4,4.56,4.89,4.89,0,0,1-3.94,1.57,5.39,5.39,0,0,1-4.05-1.41,6.71,6.71,0,0,1,0-8.23,4.74,4.74,0,0,1,3.68-1.49v-3.77a7.43,7.43,0,0,0-5.92,2.61,11.1,11.1,0,0,0,.08,13.45,8.05,8.05,0,0,0,6.3,2.61,7.22,7.22,0,0,0,4.34-1.33,7.46,7.46,0,0,0,2.53-3.76,7.59,7.59,0,0,0,2.69,3.39,6.45,6.45,0,0,0,3.72,1.24,8,8,0,0,0,6.17-2.36,9.3,9.3,0,0,0,2.2-6.54,9.4,9.4,0,0,0-2.32-6.5,7.53,7.53,0,0,0-5.8-2.56v3.76A4.81,4.81,0,0,1,367,626.9a5.37,5.37,0,0,1,1.4,3.89c0,3.44-1.74,5.18-5.17,5.18a4.78,4.78,0,0,1-3.69-1.53,6.31,6.31,0,0,1-1.4-4.19v-2.81Z"></path><line class="cls-3" x1="319.47" y1="824.15" x2="319.47" y2="414.95"></line><path class="cls-2" d="M153.91.47h-.78L137.9,6v5.91l8.7-2.7V37.36h7.31Zm37,.05h-26V6.43h18.29L169,37.36h7.72L190.93,4.61Zm29.46,15.23a24,24,0,0,0-.93-7.15,12.7,12.7,0,0,0-2.54-4.87A9.6,9.6,0,0,0,213,.93,13.25,13.25,0,0,0,207.9,0a13.51,13.51,0,0,0-5.08.93,9.35,9.35,0,0,0-3.88,2.8A12.7,12.7,0,0,0,196.4,8.6a24,24,0,0,0-.94,7.15v6.38a23.9,23.9,0,0,0,.94,7.1,13.68,13.68,0,0,0,2.54,4.92,9.42,9.42,0,0,0,3.93,2.8,13.51,13.51,0,0,0,5.08.93A13.25,13.25,0,0,0,213,37a9.51,9.51,0,0,0,3.94-2.8,13.68,13.68,0,0,0,2.54-4.92,25.82,25.82,0,0,0,.88-7.1Zm-7.31,7.36a18.93,18.93,0,0,1-.36,4.15,8.28,8.28,0,0,1-1,2.75,3.77,3.77,0,0,1-1.61,1.5,5.37,5.37,0,0,1-4.35,0,3.72,3.72,0,0,1-1.61-1.5,8,8,0,0,1-1-2.75,24.08,24.08,0,0,1-.31-4.15V14.67a23.46,23.46,0,0,1,.31-4.1,7.62,7.62,0,0,1,1-2.69,4.35,4.35,0,0,1,1.61-1.51A5.06,5.06,0,0,1,207.9,6a4.83,4.83,0,0,1,2.18.41,4.26,4.26,0,0,1,1.66,1.51,7.82,7.82,0,0,1,1,2.69,18.45,18.45,0,0,1,.36,4.1ZM247,.52h-7.41L224.2,24.77l.31,4.61h15.13v8H247v-8h4.14v-5.9H247Zm-7.83,10.83.52-.88v13h-8.19Zm30.44,7.31H255.31v5.85h14.25Zm30.82,12.8H284.52L291,24.62c1.24-1.3,2.38-2.49,3.37-3.68A26.09,26.09,0,0,0,297,17.46a17,17,0,0,0,1.6-3.42,10.24,10.24,0,0,0,.62-3.57,12.09,12.09,0,0,0-.77-4.41,8.85,8.85,0,0,0-2.33-3.26A10.33,10.33,0,0,0,292.34.73,17.22,17.22,0,0,0,287.16,0a13.69,13.69,0,0,0-5.34,1,12,12,0,0,0-4,2.6,11.29,11.29,0,0,0-2.59,3.83,13.14,13.14,0,0,0-.88,4.72h7.36a7.34,7.34,0,0,1,.36-2.49,5.79,5.79,0,0,1,1-2,4.69,4.69,0,0,1,1.71-1.3,5.12,5.12,0,0,1,2.28-.46,4.47,4.47,0,0,1,3.52,1.4,5.64,5.64,0,0,1,1.25,3.88,5,5,0,0,1-.26,1.66,9.61,9.61,0,0,1-.78,1.87,15.56,15.56,0,0,1-1.5,2.23A31.32,31.32,0,0,1,287,19.64l-11.92,12.7v5h25.29Zm29.25-15.71a23.7,23.7,0,0,0-.94-7.15,12.7,12.7,0,0,0-2.54-4.87,9.5,9.5,0,0,0-3.93-2.8,14.34,14.34,0,0,0-10.16,0,9.45,9.45,0,0,0-3.89,2.8,12.7,12.7,0,0,0-2.54,4.87,24,24,0,0,0-.93,7.15v6.38a23.93,23.93,0,0,0,.93,7.1,13.68,13.68,0,0,0,2.54,4.92,9.51,9.51,0,0,0,3.94,2.8,13.47,13.47,0,0,0,5.08.93,13.29,13.29,0,0,0,5.08-.93,9.51,9.51,0,0,0,3.94-2.8,14,14,0,0,0,2.54-4.92,25.82,25.82,0,0,0,.88-7.1Zm-7.31,7.36a18.93,18.93,0,0,1-.36,4.15A8.06,8.06,0,0,1,321,30a3.7,3.7,0,0,1-1.6,1.5,5.4,5.4,0,0,1-4.36,0,3.7,3.7,0,0,1-1.6-1.5,8,8,0,0,1-1-2.75,23.12,23.12,0,0,1-.31-4.15V14.67a22.52,22.52,0,0,1,.31-4.1,7.82,7.82,0,0,1,1-2.69A4.51,4.51,0,0,1,315,6.37,5.11,5.11,0,0,1,317.14,6a4.78,4.78,0,0,1,2.17.41A4.13,4.13,0,0,1,321,7.88a7.62,7.62,0,0,1,1,2.69,18.45,18.45,0,0,1,.36,4.1Z"></path><path class="cls-2" d="M187.81,79v27.36h3.06V87.63a13.47,13.47,0,0,1,1-2.43,10.56,10.56,0,0,1,1.6-2.08,9.05,9.05,0,0,1,2.34-1.45,7.6,7.6,0,0,1,3-.51,9.25,9.25,0,0,1,2.75.36A5,5,0,0,1,205,84.89a10.9,10.9,0,0,1,.47,3.42v18.08h3V88.26a7.4,7.4,0,0,1,.63-2.44,9.66,9.66,0,0,1,1.55-2.28,8.84,8.84,0,0,1,2.49-1.71,7.36,7.36,0,0,1,3.31-.67,10.6,10.6,0,0,1,2.7.31,4.46,4.46,0,0,1,2.12,1.19,5.37,5.37,0,0,1,1.4,2.28,11.48,11.48,0,0,1,.47,3.57v17.88h3V88.57a14.9,14.9,0,0,0-.57-4.56,7.51,7.51,0,0,0-1.77-3.11A6.6,6.6,0,0,0,221,79.08a12.16,12.16,0,0,0-3.78-.57,11.48,11.48,0,0,0-3.06.42A10.5,10.5,0,0,0,211.6,80a9.15,9.15,0,0,0-2.12,1.71,12.08,12.08,0,0,0-1.56,2.07,7.14,7.14,0,0,0-3.06-4,10.21,10.21,0,0,0-5.18-1.25,9.63,9.63,0,0,0-2.8.37,9,9,0,0,0-2.43,1,7.39,7.39,0,0,0-2,1.55,11,11,0,0,0-1.61,2.08l-.1-4.46Zm49.45,0H234.2v27.36h3.06Zm-3.06-6.48a2.18,2.18,0,0,0,1.56.57,2,2,0,0,0,1.5-.57,1.92,1.92,0,0,0,.57-1.45,1.85,1.85,0,0,0-.57-1.45,1.92,1.92,0,0,0-1.5-.62,2.06,2.06,0,0,0-1.56.62,2,2,0,0,0-.52,1.45,2.09,2.09,0,0,0,.52,1.45ZM245.44,79v27.36h3V87.63a11.76,11.76,0,0,1,1.19-2.38,8.9,8.9,0,0,1,1.71-2.13,9.22,9.22,0,0,1,2.34-1.45,7.71,7.71,0,0,1,2.95-.51,8.84,8.84,0,0,1,2.69.36,4.51,4.51,0,0,1,2,1.19A6.1,6.1,0,0,1,262.64,85a11.72,11.72,0,0,1,.47,3.58v17.82h3V88.57a14.93,14.93,0,0,0-.62-4.62,8.43,8.43,0,0,0-1.71-3.11A6.61,6.61,0,0,0,261,79.08a10.22,10.22,0,0,0-3.67-.57,9.82,9.82,0,0,0-2.8.37,11,11,0,0,0-2.44,1,10.85,10.85,0,0,0-2.07,1.66,11.28,11.28,0,0,0-1.61,2.12l-.1-4.66Zm31.84,0h-3.06v27.36h3.06Zm-3.06-6.48a2.18,2.18,0,0,0,1.56.57,2,2,0,0,0,1.5-.57,1.92,1.92,0,0,0,.57-1.45,1.85,1.85,0,0,0-.57-1.45,1.92,1.92,0,0,0-1.5-.62,2.06,2.06,0,0,0-1.56.62,2,2,0,0,0-.52,1.45,2.09,2.09,0,0,0,.52,1.45Z"></path><path class="cls-1" d="M219.29,781.48v-.43l.84-.83.42-.41.82-.83.83-.84.84-.83.42-.84.84-.83.39-.83.43-.84.41-1.25.42-.83.41-.84.43-1.23.41-.85v-.83l.42-1.23V436.38l-.42-.44v-1.22l-.41-.43V433l-.43-.83-.41-.41v-.43l-.42-.41-.41-.82v-.43l-.82-.83-.42-.83-.42-.42-.42-.4-.42-.84V426l-.42-.84v-.42s-.41-3-.4-3v-2.83l.41-.82v-.43l.41-.84L223,416l.41-.82.43-.43.41-.84.41-.4.42-.84.83-.41.42-.42.83-.4.42-.44.83-.39.83-.44H238l.82.44.84.39.41.44.83.4.42.42.83.41.43.84.41.4.42.84.41.43.42.82.42.83.4.84v.43l.43,2.78-.43,3.45v.83l-.4.83v.43l-.42.84-.41.4-.42.42-.42.82-.84.83v.44l-.41.82-.42.41v.43l-.42.41V433l-.41.41v.84l-.41.43v1.66l-.42.83v329.7l.42,1.23V769l.42.84.41,1.23.41.84.42.83.41,1.25.42.84.42.83.84.83.41.84.82.83.84.84.83.83.43.41.82.84"></path><path class="cls-4" d="M219.29,781.48v-.43l.84-.83.42-.41.82-.83.83-.84.84-.83.42-.84.84-.83.39-.83.43-.84.41-1.25.42-.83.41-.84.43-1.23.41-.85v-.83l.42-1.23V436.38l-.42-.44v-1.22l-.41-.43V433l-.43-.83-.41-.41v-.43l-.42-.41-.41-.82v-.43l-.82-.83-.42-.83-.42-.42-.42-.4-.42-.84V426l-.42-.84v-.42s-.41-3-.4-3v-2.83l.41-.82v-.43l.41-.84L223,416l.41-.82.43-.43.41-.84.41-.4.42-.84.83-.41.42-.42.83-.4.42-.44.83-.39.83-.44H238l.82.44.84.39.41.44.83.4.42.42.83.41.43.84.41.4.42.84.41.43.42.82.42.83.4.84v.43l.43,2.78-.43,3.45v.83l-.4.83v.43l-.42.84-.41.4-.42.42-.42.82-.84.83v.44l-.41.82-.42.41v.43l-.42.41V433l-.41.41v.84l-.41.43v1.66l-.42.83v329.7l.42,1.23V769l.42.84.41,1.23.41.84.42.83.41,1.25.42.84.42.83.84.83.41.84.82.83.84.84.83.83.43.41.82.84"></path><polygon class="cls-1" points="219.3 781.06 248.01 781.47 248.01 781.06 219.3 781.06"></polygon><polyline class="cls-4" points="219.29 781.06 248.01 781.06 248.01 781.48"></polyline><polygon class="cls-1" points="233.87 817.27 233.04 817.27 232.21 817.27 231.38 816.85 230.54 816.85 229.29 816.85 228.45 816.44 227.63 816.44 226.79 816.01 225.96 815.61 225.12 815.18 223.88 814.77 223.05 814.35 222.21 813.95 221.37 813.1 220.54 812.69 219.71 811.86 218.88 811.02 218.06 810.19 217.63 809.36 216.79 808.52 216.39 807.69 215.55 806.86 215.13 806.02 214.72 804.77 214.31 803.93 213.88 803.11 213.47 802.28 213.47 801.02 213.04 800.2 213.04 799.36 213.04 798.12 212.64 797.28 212.64 796.44 212.64 795.21 213.04 794.37 213.04 793.13 213.04 792.29 213.47 791.46 213.47 790.21 213.88 789.39 214.31 788.54 214.72 787.29 215.13 786.46 215.55 785.64 216.39 784.8 216.79 783.55 217.63 782.7 218.48 781.88 219.3 781.46 226.37 781.46 248.01 781.46 248.85 781.88 249.69 782.7 250.52 783.55 250.94 784.8 251.78 785.64 252.18 786.46 252.6 787.29 253.01 788.54 253.43 789.39 253.85 790.21 253.85 791.46 254.27 792.29 254.27 793.13 254.27 794.37 254.68 795.21 254.68 797.28 254.27 798.12 254.27 799.36 254.27 800.2 253.85 801.02 253.85 802.28 253.43 803.11 253.01 803.93 252.6 804.77 252.18 806.02 251.78 806.86 250.94 807.69 250.52 808.52 249.69 809.36 249.26 810.19 248.43 811.02 247.61 811.86 246.77 812.69 245.94 813.1 245.1 813.95 244.28 814.35 243.44 814.77 242.19 815.18 241.35 815.61 240.53 816.01 239.7 816.44 238.86 816.44 238.03 816.85 237.18 816.85 235.95 816.85 235.12 817.27 234.28 817.27 233.87 817.27"></polygon><polygon class="cls-4" points="233.87 817.27 233.04 817.27 232.21 817.27 231.38 816.85 230.54 816.85 229.29 816.85 228.45 816.44 227.63 816.44 226.79 816.01 225.96 815.61 225.12 815.18 223.88 814.77 223.05 814.35 222.21 813.95 221.37 813.1 220.54 812.69 219.71 811.86 218.88 811.02 218.06 810.19 217.63 809.36 216.79 808.52 216.39 807.69 215.55 806.86 215.13 806.02 214.72 804.77 214.31 803.93 213.88 803.11 213.47 802.28 213.47 801.02 213.04 800.2 213.04 799.36 213.04 798.12 212.64 797.28 212.64 796.44 212.64 795.21 213.04 794.37 213.04 793.13 213.04 792.29 213.47 791.46 213.47 790.21 213.88 789.39 214.31 788.54 214.72 787.29 215.13 786.46 215.55 785.64 216.39 784.8 216.79 783.55 217.63 782.7 218.48 781.88 219.3 781.46 226.37 781.46 248.01 781.46 248.85 781.88 249.69 782.7 250.52 783.55 250.94 784.8 251.78 785.64 252.18 786.46 252.6 787.29 253.01 788.54 253.43 789.39 253.85 790.21 253.85 791.46 254.27 792.29 254.27 793.13 254.27 794.37 254.68 795.21 254.68 797.28 254.27 798.12 254.27 799.36 254.27 800.2 253.85 801.02 253.85 802.28 253.43 803.11 253.01 803.93 252.6 804.77 252.18 806.02 251.78 806.86 250.94 807.69 250.52 808.52 249.69 809.36 249.26 810.19 248.43 811.02 247.61 811.86 246.77 812.69 245.94 813.1 245.1 813.95 244.28 814.35 243.44 814.77 242.19 815.18 241.35 815.61 240.53 816.01 239.7 816.44 238.86 816.44 238.03 816.85 237.18 816.85 235.95 816.85 235.12 817.27 234.28 817.27 233.87 817.27 233.87 817.27"></polygon><line class="cls-5" x1="233.66" y1="409.37" x2="233.66" y2="215.33"></line></svg> 