<?xml version="1.0" encoding="UTF-8"?> <svg xmlns="http://www.w3.org/2000/svg" id="Livello_1" data-name="Livello 1" viewBox="0 0 509.33 1000.49"><defs><style>.cls-1{fill:#fff;}.cls-2{fill:#231f20;}.cls-3,.cls-4,.cls-5{fill:none;stroke:#231f20;stroke-width:0.25px;}.cls-4{stroke-linecap:round;stroke-linejoin:round;}.cls-5{stroke-miterlimit:10;}</style></defs><title>Storm medium</title><rect class="cls-1" y="0.49" width="509.33" height="1000"></rect><path class="cls-2" d="M369.38,667.46v-4L349,650.32h-2.2v13.41H340v3.73h6.83v4.1h3.06v-4.1Zm-5.92-4.18.79.45H349.84v-9.19Zm-20.45,31V679.47l8.57,7.87c4,3.72,7.45,5.55,10.35,5.55a7.39,7.39,0,0,0,5.71-2.36,9.35,9.35,0,0,0,2.16-6.5,9.55,9.55,0,0,0-2.53-7,8.51,8.51,0,0,0-6.54-2.65v3.77a6.17,6.17,0,0,1,4.43,1.53,5.88,5.88,0,0,1,1.57,4.35,4.89,4.89,0,0,1-1.49,3.72,5.26,5.26,0,0,1-3.76,1.37,7.16,7.16,0,0,1-3.32-.83,23.41,23.41,0,0,1-4.18-3.14L342.64,675H340v19.29Z"></path><line class="cls-3" x1="317.83" y1="929.2" x2="317.83" y2="409.28"></line><path class="cls-2" d="M155.55.47h-.78L139.54,6v5.91l8.7-2.7V37.36h7.31Zm37,.05h-26V6.43h18.29L170.6,37.36h7.72L192.57,4.61ZM222,15.75a24,24,0,0,0-.93-7.15,12.7,12.7,0,0,0-2.54-4.87,9.6,9.6,0,0,0-3.94-2.8A13.25,13.25,0,0,0,209.54,0a13.51,13.51,0,0,0-5.08.93,9.35,9.35,0,0,0-3.88,2.8A12.7,12.7,0,0,0,198,8.6a23.7,23.7,0,0,0-.94,7.15v6.38a23.58,23.58,0,0,0,.94,7.1,13.68,13.68,0,0,0,2.54,4.92,9.42,9.42,0,0,0,3.93,2.8,13.51,13.51,0,0,0,5.08.93,13.25,13.25,0,0,0,5.08-.93,9.51,9.51,0,0,0,3.94-2.8,13.68,13.68,0,0,0,2.54-4.92,25.82,25.82,0,0,0,.88-7.1Zm-7.31,7.36a18.93,18.93,0,0,1-.36,4.15,8.28,8.28,0,0,1-1,2.75,3.77,3.77,0,0,1-1.61,1.5,5.37,5.37,0,0,1-4.35,0,3.67,3.67,0,0,1-1.61-1.5,8,8,0,0,1-1-2.75,24.08,24.08,0,0,1-.31-4.15V14.67a23.46,23.46,0,0,1,.31-4.1,7.62,7.62,0,0,1,1-2.69,4.4,4.4,0,0,1,1.6-1.51A5.14,5.14,0,0,1,209.54,6a4.83,4.83,0,0,1,2.18.41,4.26,4.26,0,0,1,1.66,1.51,7.82,7.82,0,0,1,1,2.69,18.45,18.45,0,0,1,.36,4.1ZM248.59.52h-7.42L225.84,24.77l.31,4.61h15.13v8h7.31v-8h4.14v-5.9h-4.14Zm-7.83,10.83.52-.88v13h-8.19Zm30.44,7.31H257v5.85H271.2ZM302,31.46H286.16l6.48-6.84c1.24-1.3,2.38-2.49,3.36-3.68a25.35,25.35,0,0,0,2.6-3.48A17,17,0,0,0,300.2,14a10.24,10.24,0,0,0,.62-3.57,12.09,12.09,0,0,0-.77-4.41,8.76,8.76,0,0,0-2.34-3.26A10.29,10.29,0,0,0,294,.73,17.22,17.22,0,0,0,288.8,0a13.69,13.69,0,0,0-5.34,1,12,12,0,0,0-4,2.6,11.29,11.29,0,0,0-2.59,3.83,13.14,13.14,0,0,0-.88,4.72h7.36a7.34,7.34,0,0,1,.36-2.49,5.79,5.79,0,0,1,1-2,4.69,4.69,0,0,1,1.71-1.3,5.12,5.12,0,0,1,2.28-.46,4.47,4.47,0,0,1,3.52,1.4,5.64,5.64,0,0,1,1.25,3.88,5,5,0,0,1-.26,1.66,9.61,9.61,0,0,1-.78,1.87,15.56,15.56,0,0,1-1.5,2.23,31.32,31.32,0,0,1-2.28,2.69l-11.92,12.7v5H302Zm22.2-31h-.78L308.21,6v5.91l8.7-2.7V37.36h7.31Z"></path><path class="cls-2" d="M144.55,79v27.36h3.06V87.63a14.2,14.2,0,0,1,1-2.43,11,11,0,0,1,1.61-2.08,9,9,0,0,1,2.33-1.45,7.69,7.69,0,0,1,3-.51,9.22,9.22,0,0,1,2.74.36,5,5,0,0,1,3.48,3.37,10.92,10.92,0,0,1,.46,3.42v18.08h3.06V88.26a7.38,7.38,0,0,1,.62-2.44,9.7,9.7,0,0,1,1.56-2.28,8.93,8.93,0,0,1,2.48-1.71,7.44,7.44,0,0,1,3.32-.67,10.6,10.6,0,0,1,2.7.31,4.51,4.51,0,0,1,2.12,1.19,5.47,5.47,0,0,1,1.4,2.28,11.48,11.48,0,0,1,.47,3.57v17.88h3V88.57a14.59,14.59,0,0,0-.57-4.56,7.39,7.39,0,0,0-1.76-3.11,6.66,6.66,0,0,0-2.85-1.82,12.16,12.16,0,0,0-3.78-.57,11.43,11.43,0,0,0-3.06.42A10.34,10.34,0,0,0,168.34,80a9.2,9.2,0,0,0-2.13,1.71,11.53,11.53,0,0,0-1.55,2.07,7.19,7.19,0,0,0-3.06-4,10.21,10.21,0,0,0-5.18-1.25,9.58,9.58,0,0,0-2.8.37,9.23,9.23,0,0,0-2.44,1,7.55,7.55,0,0,0-2,1.55,10.56,10.56,0,0,0-1.6,2.08L147.45,79Zm60,27.47a8.87,8.87,0,0,0,2.69-1,8.66,8.66,0,0,0,2.07-1.5,13.55,13.55,0,0,0,1.61-1.92l-1.92-1.4a8.84,8.84,0,0,1-3.37,2.8,9.53,9.53,0,0,1-4.3.88,8.62,8.62,0,0,1-3.83-.83,9.3,9.3,0,0,1-3-2.33,10.35,10.35,0,0,1-1.91-3.42,12.75,12.75,0,0,1-.68-4.25v-.57h19.54V91.05a17.15,17.15,0,0,0-.73-5,11.14,11.14,0,0,0-2.07-4,9.88,9.88,0,0,0-3.42-2.59,10.66,10.66,0,0,0-4.61-.94,10.09,10.09,0,0,0-4.46,1,12,12,0,0,0-3.73,2.8,12.87,12.87,0,0,0-2.59,4.35,16.79,16.79,0,0,0-.93,5.75v1.09a15.14,15.14,0,0,0,.93,5.39,12,12,0,0,0,2.54,4.25,10.79,10.79,0,0,0,3.89,2.74,11.69,11.69,0,0,0,4.92,1,13,13,0,0,0,3.32-.41ZM204,81.83a8.28,8.28,0,0,1,2.43,2,9,9,0,0,1,1.45,2.85,11.78,11.78,0,0,1,.57,3.37v.31H192a13.77,13.77,0,0,1,1-3.79,9.56,9.56,0,0,1,1.82-2.9,8.73,8.73,0,0,1,2.59-1.91,8.13,8.13,0,0,1,3.21-.63,7.66,7.66,0,0,1,3.37.73ZM216.15,93a19.33,19.33,0,0,0,.73,5.65A13.68,13.68,0,0,0,219,103a10.11,10.11,0,0,0,3.31,2.85,9.47,9.47,0,0,0,4.41,1,10.92,10.92,0,0,0,5.08-1.09,10.28,10.28,0,0,0,3.47-3l.1,3.62h2.85V67.53h-3V82.87a9.52,9.52,0,0,0-8.45-4.36,9.23,9.23,0,0,0-4.4,1A9.59,9.59,0,0,0,219,82.3a13.68,13.68,0,0,0-2.07,4.4,19.8,19.8,0,0,0-.73,5.75Zm3.06-.52a20.33,20.33,0,0,1,.46-4.45,11.23,11.23,0,0,1,1.45-3.58A7,7,0,0,1,223.66,82a6.68,6.68,0,0,1,3.63-.88,9.76,9.76,0,0,1,2.9.41,8.39,8.39,0,0,1,2.23,1.19A7.17,7.17,0,0,1,234,84.47a12,12,0,0,1,1.14,2V99.35a11.16,11.16,0,0,1-1.25,2,6.6,6.6,0,0,1-1.65,1.56,8,8,0,0,1-2.23,1,10.24,10.24,0,0,1-2.8.36,7.06,7.06,0,0,1-6.12-3.27,11.17,11.17,0,0,1-1.45-3.57,20,20,0,0,1-.46-4.46ZM249.55,79h-3.06v27.36h3.06Zm-3.06-6.48a2.16,2.16,0,0,0,1.55.57,2.06,2.06,0,0,0,1.51-.57,1.92,1.92,0,0,0,.57-1.45,1.85,1.85,0,0,0-.57-1.45A2,2,0,0,0,248,69a2,2,0,0,0-1.55.62A2,2,0,0,0,246,71.1a2.09,2.09,0,0,0,.52,1.45Zm28.9,33.84h3V79h-3.06v19.8a10.33,10.33,0,0,1-1,2.17,5.6,5.6,0,0,1-1.65,1.71,7.14,7.14,0,0,1-2.44,1.14,11.47,11.47,0,0,1-3.21.42,8,8,0,0,1-2.44-.36,5,5,0,0,1-2-1.3,6.42,6.42,0,0,1-1.35-2.33,12.41,12.41,0,0,1-.51-3.68V79h-3V96.55a14.41,14.41,0,0,0,.67,4.76,8.46,8.46,0,0,0,1.82,3.22,7.32,7.32,0,0,0,2.85,1.81,12.83,12.83,0,0,0,9-.52,8.84,8.84,0,0,0,3.42-2.9ZM286,79v27.36h3.06V87.63a14.2,14.2,0,0,1,1-2.43,11,11,0,0,1,1.61-2.08A9,9,0,0,1,294,81.67a7.69,7.69,0,0,1,3-.51,9.22,9.22,0,0,1,2.74.36,5.1,5.1,0,0,1,2.08,1.14,5.2,5.2,0,0,1,1.4,2.23,10.92,10.92,0,0,1,.46,3.42v18.08h3.06V88.26a7.38,7.38,0,0,1,.62-2.44,9.7,9.7,0,0,1,1.56-2.28,8.93,8.93,0,0,1,2.48-1.71,7.44,7.44,0,0,1,3.32-.67,10.52,10.52,0,0,1,2.69.31,4.49,4.49,0,0,1,2.13,1.19,5.47,5.47,0,0,1,1.4,2.28,11.51,11.51,0,0,1,.46,3.57v17.88h3V88.57a14.59,14.59,0,0,0-.57-4.56,7.39,7.39,0,0,0-1.76-3.11,6.66,6.66,0,0,0-2.85-1.82,12.2,12.2,0,0,0-3.78-.57,11.43,11.43,0,0,0-3.06.42A10.34,10.34,0,0,0,309.78,80a9.2,9.2,0,0,0-2.13,1.71,11.53,11.53,0,0,0-1.55,2.07,7.19,7.19,0,0,0-3.06-4,10.21,10.21,0,0,0-5.18-1.25,9.58,9.58,0,0,0-2.8.37,9.23,9.23,0,0,0-2.44,1,7.55,7.55,0,0,0-2,1.55,10.56,10.56,0,0,0-1.6,2.08L288.89,79Z"></path><path class="cls-1" d="M219.2,892.2v-.42l.83-.84.84-.41.41-.82.84-.85L223,888l.42-.84.83-.83.42-.83.41-.84.83-1.24.41-.84v-.83l.43-1.23.41-.85v-1.25l.42-.82V438s0-.85,0-.85l-.42-.41v-2.09l-.42-.4v-.42l-.43-.85v-.4l-.4-.42v-.83l-.42-.42-.43-.41-.4-.43-.42-1.25-.41-.41-.42-.42-.42-.82-.42-.42V426l-.41-.42v-.82l-.42-3.5v-1.92l.42-.82v-.85l.41-.82.42-.42.42-.83.42-.83.41-.41.42-.84.4-.42.84-.42.41-.82.85-.43.42-.41h.83l.82-.4.42-.44h7.91l.42.44.84.4h.82l.42.41.83.43.41.82.84.42.42.42.41.84.42.41.84.83v.83l.41.42.42.82v.85s.41,3.23.4,3.23l-.4,3v.82l-.42.42v.83l-.41.43-.42.82-.42.42-.42.41-.41,1.26-.42.41-.43.42-.41.41v.84l-.41.42v.4l-.41.85v.41l-.42.42v2.08l-.42.41V877.63l.42.82v1.25l.42.85.41,1.23.41.84.42.83.42,1.25.42.84.4.83.85.83.42.83.83.83.82.84.83.82.84.43.41.83Z"></path><path class="cls-4" d="M219.2,892.2v-.42l.83-.84.84-.41.41-.82.84-.85L223,888l.42-.84.83-.83.42-.83.41-.84.83-1.24.41-.84v-.83l.43-1.23.41-.85v-1.25l.42-.82V438s0-.85,0-.85l-.42-.41v-2.09l-.42-.4v-.42l-.43-.85v-.4l-.4-.42v-.83l-.42-.42-.43-.41-.4-.43-.42-1.25-.41-.41-.42-.42-.42-.82-.42-.42V426l-.41-.42v-.82l-.42-3.5v-1.92l.42-.82v-.85l.41-.82.42-.42.42-.83.42-.83.41-.41.42-.84.4-.42.84-.42.41-.82.85-.43.42-.41h.83l.82-.4.42-.44h7.91l.42.44.84.4h.82l.42.41.83.43.41.82.84.42.42.42.41.84.42.41.84.83v.83l.41.42.42.82v.85s.41,3.23.4,3.23l-.4,3v.82l-.42.42v.83l-.41.43-.42.82-.42.42-.42.41-.41,1.26-.42.41-.43.42-.41.41v.84l-.41.42v.4l-.41.85v.41l-.42.42v2.08l-.42.41V877.63l.42.82v1.25l.42.85.41,1.23.41.84.42.83.42,1.25.42.84.4.83.85.83.42.83.83.83.82.84.83.82.84.43.41.83-28.72.42Z"></path><polygon class="cls-1" points="226.27 892.2 219.2 892.2 218.36 892.61 217.53 893.44 217.12 894.28 216.29 895.51 215.87 896.37 215.04 897.2 214.63 898.03 214.21 899.26 213.79 900.11 213.79 900.94 213.37 902.17 212.95 903.01 212.95 903.84 212.95 905.09 212.54 905.92 212.54 908.01 212.95 908.84 212.95 910.09 212.95 910.93 213.37 911.76 213.37 913.02 213.79 913.85 214.21 914.67 214.63 915.51 215.04 916.76 215.45 917.59 216.29 918.42 216.7 919.26 217.53 920.09 217.95 920.91 218.78 921.74 219.61 922.58 220.45 923.41 221.28 923.83 222.11 924.66 222.95 925.08 224.2 925.49 225.03 925.92 225.85 926.33 226.69 926.75 227.53 927.15 228.36 927.15 229.19 927.58 230.44 927.58 231.27 927.58 232.11 928 232.94 928 233.77 928 234.19 928 235.02 928 235.86 927.58 237.1 927.58 237.93 927.58 238.77 927.15 239.6 927.15 240.43 926.75 241.26 926.33 242.1 925.92 243.34 925.49 244.18 925.08 245.02 924.66 245.84 923.83 246.68 923.41 247.51 922.58 248.35 921.74 249.17 920.91 250.01 920.09 250.43 919.26 251.26 918.42 251.67 917.59 252.08 916.76 252.5 915.51 252.92 914.67 253.33 913.85 253.75 913.02 253.75 911.76 254.16 910.93 254.16 910.09 254.59 908.84 254.59 908.01 254.59 905.92 254.59 905.09 254.16 903.84 254.16 903.01 253.75 902.17 253.75 900.94 253.33 900.11 252.92 899.26 252.5 898.03 252.08 897.2 251.67 896.37 250.84 895.51 250.43 894.28 249.59 893.44 248.76 892.61 248.35 892.2 226.27 892.2"></polygon><polygon class="cls-4" points="226.27 892.2 219.2 892.2 218.36 892.61 217.53 893.44 217.12 894.28 216.29 895.51 215.87 896.37 215.04 897.2 214.63 898.03 214.21 899.26 213.79 900.11 213.79 900.94 213.37 902.17 212.95 903.01 212.95 903.84 212.95 905.09 212.54 905.92 212.54 908.01 212.95 908.84 212.95 910.09 212.95 910.93 213.37 911.76 213.37 913.02 213.79 913.85 214.21 914.67 214.63 915.51 215.04 916.76 215.45 917.59 216.29 918.42 216.7 919.26 217.53 920.09 217.95 920.91 218.78 921.74 219.61 922.58 220.45 923.41 221.28 923.83 222.11 924.66 222.95 925.08 224.2 925.49 225.03 925.92 225.85 926.33 226.69 926.75 227.53 927.15 228.36 927.15 229.19 927.58 230.44 927.58 231.27 927.58 232.11 928 232.94 928 233.77 928 234.19 928 235.02 928 235.86 927.58 237.1 927.58 237.93 927.58 238.77 927.15 239.6 927.15 240.43 926.75 241.26 926.33 242.1 925.92 243.34 925.49 244.18 925.08 245.02 924.66 245.84 923.83 246.68 923.41 247.51 922.58 248.35 921.74 249.17 920.91 250.01 920.09 250.43 919.26 251.26 918.42 251.67 917.59 252.08 916.76 252.5 915.51 252.92 914.67 253.33 913.85 253.75 913.02 253.75 911.76 254.16 910.93 254.16 910.09 254.59 908.84 254.59 908.01 254.59 905.92 254.59 905.09 254.16 903.84 254.16 903.01 253.75 902.17 253.75 900.94 253.33 900.11 252.92 899.26 252.5 898.03 252.08 897.2 251.67 896.37 250.84 895.51 250.43 894.28 249.59 893.44 248.76 892.61 248.35 892.2 226.27 892.2 226.27 892.2"></polygon><line class="cls-5" x1="233.57" y1="409.37" x2="233.57" y2="215.33"></line></svg> 