<?xml version="1.0" encoding="UTF-8"?> <svg xmlns="http://www.w3.org/2000/svg" id="Livello_1" data-name="Livello 1" viewBox="0 0 925.33 1000"><defs><style>.cls-1{fill:#fff;}.cls-2,.cls-4{fill:none;stroke-width:0.25px;}.cls-2{stroke:#000;}.cls-3{fill:#231f20;}.cls-4{stroke:#231f20;}</style></defs><title>Taaac 1</title><rect class="cls-1" width="925.33" height="1000"></rect><path class="cls-2" d="M197.46,952.12H404.75M197.46,167.5H827.57m-682.4,22.4V919.19" transform="translate(0 -0.49)"></path><path d="M124,578.63v10.28l-6-5.47c-2.76-2.59-5.18-3.86-7.2-3.86a5.16,5.16,0,0,0-4,1.64,6.48,6.48,0,0,0-1.5,4.52,6.66,6.66,0,0,0,1.76,4.87,6,6,0,0,0,4.55,1.84v-2.62a4.26,4.26,0,0,1-3.08-1.07,4.08,4.08,0,0,1-1.1-3,3.43,3.43,0,0,1,1-2.59,3.68,3.68,0,0,1,2.62-.95,4.88,4.88,0,0,1,2.3.58,16,16,0,0,1,2.91,2.18l7.89,7.08h1.87V578.63ZM105.6,567.31v.4l2.79,7.46h2.36l-1.93-5.24h17.33v-2.62Zm10.82-10.92-.55-.69a4.27,4.27,0,0,1-.75-2.68,3.79,3.79,0,0,1,1.24-3,4.76,4.76,0,0,1,3.31-1.12,5.17,5.17,0,0,1,3.4,1,3.5,3.5,0,0,1,1.24,2.85,3.83,3.83,0,0,1-.9,2.68,4.11,4.11,0,0,1-2.64,1.24v2.47a6,6,0,0,0,4.17-2,6.47,6.47,0,0,0,1.5-4.44,6.29,6.29,0,0,0-1.82-4.78,7.07,7.07,0,0,0-5-1.69,7.27,7.27,0,0,0-5,1.64,5.65,5.65,0,0,0-1.84,4.43,6.55,6.55,0,0,0,.89,3.43l-5.58-.61V547h-2.42v10.48l10.22,1Z" transform="translate(0 -0.49)"></path><path d="M277.36,997.15,276,1000h1.75l1-2.1a7.22,7.22,0,0,0,2.68.49,6.91,6.91,0,0,0,3.6-.95,6.66,6.66,0,0,0,2.44-2.77,9,9,0,0,0,.87-4c0-3-.92-5.23-2.74-6.67l1.44-2.88h-1.75l-1,2.1a6.92,6.92,0,0,0-2.88-.61,6.49,6.49,0,0,0-6.05,3.75,9,9,0,0,0-.86,4c0,3.13,1,5.38,2.88,6.79Zm.92-10.88a3.74,3.74,0,0,1,3.11-1.53,3.92,3.92,0,0,1,1.87.46L278.45,995a6.27,6.27,0,0,1-1.35-4.29,7,7,0,0,1,1.18-4.4Zm7.43,4.32a6.77,6.77,0,0,1-1.15,4.14,3.85,3.85,0,0,1-3.14,1.53,4.07,4.07,0,0,1-1.7-.35l4.78-9.67a6.59,6.59,0,0,1,1.21,4.12Zm15.93-2.22.69-.55a4.26,4.26,0,0,1,2.67-.74,3.79,3.79,0,0,1,3,1.23,4.76,4.76,0,0,1,1.12,3.31,5.15,5.15,0,0,1-1,3.4,3.5,3.5,0,0,1-2.85,1.24,3.87,3.87,0,0,1-2.68-.89,4.17,4.17,0,0,1-1.24-2.65h-2.47a6,6,0,0,0,1.95,4.17,6.46,6.46,0,0,0,4.44,1.5,6.25,6.25,0,0,0,4.77-1.82,7,7,0,0,0,1.7-5,7.24,7.24,0,0,0-1.64-5,5.62,5.62,0,0,0-4.43-1.85,6.44,6.44,0,0,0-3.43.9l.61-5.59h8.29v-2.42H300.6l-1,10.22ZM327.38,986c0-3-.58-5.12-1.61-6.53a6.6,6.6,0,0,0-9.76,0c-1,1.47-1.56,3.72-1.56,6.71v3.48c0,2.88.58,5,1.65,6.51a6.49,6.49,0,0,0,9.72-.06c1-1.5,1.56-3.74,1.56-6.79Zm-2.59,4.06a9.56,9.56,0,0,1-1,4.69,3.49,3.49,0,0,1-5.79-.09,9.76,9.76,0,0,1-1-4.89v-4.17A9.54,9.54,0,0,1,318,981a3.16,3.16,0,0,1,2.91-1.49,3.2,3.2,0,0,1,2.94,1.52,9.32,9.32,0,0,1,1,4.81Z" transform="translate(0 -0.49)"></path><path d="M498.51,130.18h-.4L490.65,133v2.36l5.24-1.93v17.33h2.62Zm15.73,16.66a7.18,7.18,0,0,1-4.95,1.67h-.55v2.22h.52c3.16-.06,5.52-1,7.11-2.82s2.36-4.72,2.36-8.72v-.75a9.78,9.78,0,0,0-1.76-6.19,5.65,5.65,0,0,0-4.78-2.28,6.32,6.32,0,0,0-3.34.87,5.77,5.77,0,0,0-2.21,2.53,8.53,8.53,0,0,0-.78,3.69,8.12,8.12,0,0,0,.72,3.48,5.57,5.57,0,0,0,2,2.47,5.5,5.5,0,0,0,3.08.87,5.21,5.21,0,0,0,2.51-.61,5.88,5.88,0,0,0,1.93-1.55,7.16,7.16,0,0,1-1.87,5.12Zm-4.81-6.47a6.29,6.29,0,0,1,0-6.88,3.34,3.34,0,0,1,2.76-1.3,3.3,3.3,0,0,1,2.79,1.58,7.07,7.07,0,0,1,1.13,4.15v1a4.9,4.9,0,0,1-1.62,1.95,4,4,0,0,1-2.41.81,3.17,3.17,0,0,1-2.68-1.35Zm25.74-1.73c0-3-.57-5.12-1.61-6.53a6.58,6.58,0,0,0-9.76,0c-1,1.47-1.55,3.72-1.55,6.71v3.48c0,2.88.57,5,1.64,6.51a5.55,5.55,0,0,0,4.83,2.16,5.61,5.61,0,0,0,4.9-2.22c1-1.5,1.55-3.74,1.55-6.79Zm-2.59,4.06a9.45,9.45,0,0,1-1,4.69,3.48,3.48,0,0,1-5.78-.09,9.64,9.64,0,0,1-1-4.89v-4.17a9.5,9.5,0,0,1,.95-4.64,3.11,3.11,0,0,1,2.9-1.49,3.16,3.16,0,0,1,2.94,1.52,9.32,9.32,0,0,1,1,4.81Z" transform="translate(0 -0.49)"></path><path class="cls-3" d="M462.54,11.44a16.42,16.42,0,0,0-.65-5,8.92,8.92,0,0,0-1.76-3.39,6.61,6.61,0,0,0-2.74-1.94,9.25,9.25,0,0,0-3.53-.65,9.36,9.36,0,0,0-3.53.65,6.45,6.45,0,0,0-2.71,1.94,8.92,8.92,0,0,0-1.76,3.39,16.74,16.74,0,0,0-.65,5v4.44a16.6,16.6,0,0,0,.65,4.93,9.64,9.64,0,0,0,1.76,3.43,6.61,6.61,0,0,0,2.74,1.94,9.94,9.94,0,0,0,7.07,0,6.51,6.51,0,0,0,2.73-1.94,9.49,9.49,0,0,0,1.77-3.43,17.75,17.75,0,0,0,.61-4.93Zm-5.08,5.12a13.17,13.17,0,0,1-.25,2.88,5.35,5.35,0,0,1-.69,1.91,2.53,2.53,0,0,1-1.11,1,3.75,3.75,0,0,1-3,0,2.61,2.61,0,0,1-1.12-1,5.53,5.53,0,0,1-.72-1.91,16.66,16.66,0,0,1-.21-2.88V10.69a16.29,16.29,0,0,1,.21-2.85A5.47,5.47,0,0,1,451.23,6a3.07,3.07,0,0,1,1.11-1,3.68,3.68,0,0,1,1.52-.29,3.42,3.42,0,0,1,1.51.29,2.88,2.88,0,0,1,1.15,1,5.27,5.27,0,0,1,.69,1.87,12.88,12.88,0,0,1,.25,2.85Zm24.59-12a5.47,5.47,0,0,0-1.69-2.24A7.28,7.28,0,0,0,477.8,1a11.26,11.26,0,0,0-3.24-.47,11.75,11.75,0,0,0-3.28.47,7.65,7.65,0,0,0-2.56,1.4A6.26,6.26,0,0,0,467,4.6a7.3,7.3,0,0,0-.58,3.06,6.08,6.08,0,0,0,.9,3.32,6.57,6.57,0,0,0,2.56,2.3A7.25,7.25,0,0,0,467,15.73a6.19,6.19,0,0,0-1.12,3.71,6.88,6.88,0,0,0,.69,3.21,6.69,6.69,0,0,0,1.8,2.31,8.31,8.31,0,0,0,2.77,1.4,12.86,12.86,0,0,0,6.89,0,8.65,8.65,0,0,0,2.74-1.4,6.94,6.94,0,0,0,1.8-2.31,7.41,7.41,0,0,0,.65-3.21,6.45,6.45,0,0,0-1.09-3.71,7.54,7.54,0,0,0-2.95-2.45,6.57,6.57,0,0,0,2.56-2.3,6.11,6.11,0,0,0,.94-3.32,7.29,7.29,0,0,0-.62-3.06Zm-4.9,17.15a3.39,3.39,0,0,1-2.59,1,3.87,3.87,0,0,1-1.48-.25,2.64,2.64,0,0,1-1.12-.72,2.78,2.78,0,0,1-.72-1.15,4,4,0,0,1-.25-1.52,4.28,4.28,0,0,1,.25-1.55,3.15,3.15,0,0,1,.72-1.15,3.09,3.09,0,0,1,1.12-.72,3.66,3.66,0,0,1,1.44-.25,3.87,3.87,0,0,1,1.48.25,3.09,3.09,0,0,1,1.12.72,3.61,3.61,0,0,1,.72,1.15,4.28,4.28,0,0,1,.25,1.55,3.6,3.6,0,0,1-.94,2.67Zm-.36-11.39a3.13,3.13,0,0,1-4.47,0,3.58,3.58,0,0,1-.79-2.45,3.54,3.54,0,0,1,.79-2.45,2.9,2.9,0,0,1,2.24-.86,2.84,2.84,0,0,1,2.23.9,3.62,3.62,0,0,1,.79,2.41,3.73,3.73,0,0,1-.79,2.45Zm27.08,1.08a16.74,16.74,0,0,0-.65-5,9.06,9.06,0,0,0-1.76-3.39,6.61,6.61,0,0,0-2.74-1.94,9.29,9.29,0,0,0-3.53-.65,9.41,9.41,0,0,0-3.54.65A6.49,6.49,0,0,0,489,3.08a8.78,8.78,0,0,0-1.76,3.39,16.42,16.42,0,0,0-.65,5v4.44a16.27,16.27,0,0,0,.65,4.93A9.48,9.48,0,0,0,489,24.24a6.54,6.54,0,0,0,2.74,1.94,9.17,9.17,0,0,0,3.53.65,9,9,0,0,0,3.53-.65,6.54,6.54,0,0,0,2.74-1.94,9.65,9.65,0,0,0,1.77-3.43,18.13,18.13,0,0,0,.61-4.93Zm-5.08,5.12a13.17,13.17,0,0,1-.25,2.88,5.55,5.55,0,0,1-.69,1.91,2.56,2.56,0,0,1-1.12,1,3.72,3.72,0,0,1-3,0,2.61,2.61,0,0,1-1.12-1,5.53,5.53,0,0,1-.72-1.91,16.55,16.55,0,0,1-.22-2.88V10.69a16.18,16.18,0,0,1,.22-2.85A5.47,5.47,0,0,1,492.55,6a3.17,3.17,0,0,1,1.12-1,3.65,3.65,0,0,1,1.52-.29,3.42,3.42,0,0,1,1.51.29,2.88,2.88,0,0,1,1.15,1,5.47,5.47,0,0,1,.69,1.87,12.88,12.88,0,0,1,.25,2.85Zm24.59-12a5.65,5.65,0,0,0-1.69-2.24A7.28,7.28,0,0,0,519.13,1a11.38,11.38,0,0,0-3.25-.47,11.68,11.68,0,0,0-3.27.47,7.55,7.55,0,0,0-2.56,1.4,6.4,6.4,0,0,0-1.7,2.24,7.46,7.46,0,0,0-.57,3.06,6.08,6.08,0,0,0,.9,3.32,6.57,6.57,0,0,0,2.56,2.3,7.25,7.25,0,0,0-2.92,2.45,6.19,6.19,0,0,0-1.12,3.71,7,7,0,0,0,.68,3.21A6.84,6.84,0,0,0,509.69,25a8.31,8.31,0,0,0,2.77,1.4,12.82,12.82,0,0,0,6.88,0,8.45,8.45,0,0,0,2.74-1.4,6.69,6.69,0,0,0,1.8-2.31,7.27,7.27,0,0,0,.65-3.21,6.52,6.52,0,0,0-1.08-3.71,7.61,7.61,0,0,0-3-2.45,6.64,6.64,0,0,0,2.56-2.3A6.1,6.1,0,0,0,524,7.66a7.29,7.29,0,0,0-.61-3.06Zm-4.9,17.15a3.39,3.39,0,0,1-2.6,1,3.81,3.81,0,0,1-1.47-.25,2.58,2.58,0,0,1-1.12-.72,2.69,2.69,0,0,1-.72-1.15,4,4,0,0,1-.25-1.52,4.28,4.28,0,0,1,.25-1.55,3.08,3.08,0,0,1,1.84-1.87,3.66,3.66,0,0,1,1.44-.25,3.9,3.9,0,0,1,1.48.25,3,3,0,0,1,1.11.72,3.44,3.44,0,0,1,.72,1.15,4.27,4.27,0,0,1,.26,1.55,3.6,3.6,0,0,1-.94,2.67Zm-.36-11.39a3.13,3.13,0,0,1-4.47,0,3.58,3.58,0,0,1-.79-2.45,3.54,3.54,0,0,1,.79-2.45,2.89,2.89,0,0,1,2.23-.86,2.85,2.85,0,0,1,2.24.9,3.67,3.67,0,0,1,.79,2.41,3.79,3.79,0,0,1-.79,2.45Zm19.94,3.1h-9.91v4.07h9.91ZM554.26.81h-.54L543.13,4.63V8.74l6-1.87v19.6h5.08Zm25.57,10.63a16.74,16.74,0,0,0-.65-5,8.93,8.93,0,0,0-1.77-3.39,6.48,6.48,0,0,0-2.74-1.94,9.21,9.21,0,0,0-3.53-.65,9.4,9.4,0,0,0-3.53.65,6.49,6.49,0,0,0-2.7,1.94,8.93,8.93,0,0,0-1.77,3.39,16.74,16.74,0,0,0-.65,5v4.44a16.6,16.6,0,0,0,.65,4.93,9.65,9.65,0,0,0,1.77,3.43,6.54,6.54,0,0,0,2.74,1.94,9.17,9.17,0,0,0,3.53.65,9,9,0,0,0,3.53-.65,6.54,6.54,0,0,0,2.74-1.94,9.65,9.65,0,0,0,1.77-3.43,18.13,18.13,0,0,0,.61-4.93Zm-5.08,5.12a13.11,13.11,0,0,1-.26,2.88,5.36,5.36,0,0,1-.68,1.91,2.56,2.56,0,0,1-1.12,1,3.72,3.72,0,0,1-3,0,2.56,2.56,0,0,1-1.12-1,5.33,5.33,0,0,1-.72-1.91,15.62,15.62,0,0,1-.22-2.88V10.69a15.27,15.27,0,0,1,.22-2.85A5.27,5.27,0,0,1,568.51,6a3.17,3.17,0,0,1,1.12-1,3.63,3.63,0,0,1,1.51-.29,3.47,3.47,0,0,1,1.52.29,2.88,2.88,0,0,1,1.15,1,5.27,5.27,0,0,1,.68,1.87,12.82,12.82,0,0,1,.26,2.85Z" transform="translate(0 -0.49)"></path><path class="cls-1" d="M735.43,203.33l85.6-11,.31,5.88S785.78,209.46,763.49,209c0,0-24.26-.95-28.78-4.71.23.1,0-1,0-1" transform="translate(0 -0.49)"></path><path class="cls-1" d="M729.78,201.79l5.86,3.1,1.45,11.35s-.14,8.54-10.62,9.07L453.29,263s-35.39,5.48-56.2,15.86c0,0-45.74,18-68.52,40.07.05-.05-35.06,29.49-38.57,39.6.05-.07-25,34.83-30.09,52.82-.12.28-14.55,36.25-17.23,63.71,0,.17-3.8,29.77-3.09,34,0-.11-20.47,330.9-20.47,330.9L218,858.3s-2.41,16.2,19.4,20.77l74.44.44s11.6.72,18.93,6.07c-.06,0,22.14,10.32,36.44,9.58.21-.07,0,3.4,0,3.4h34.18v4.67H360.89v3.53H350.76v-3.53H252.08v3.53H241.29v-4H236.9l-.25-10.13a38.86,38.86,0,0,1-23.81-13.59c.18.22-10-12.32-9.13-26.93,0,.19,6.37-104.51,6.37-104.51l15.78-258.57s.3-27.77,13.07-67.54c-.08.24,20.88-62.47,54.72-96.23-.16.18,38.49-41.45,76.21-57.5C370,267.7,398.38,251,455.23,240l274.55-38.25" transform="translate(0 -0.49)"></path><path class="cls-1" d="M734.05,203.52l1.38-.19,1.59,11.6a8.84,8.84,0,0,1-7.54,10L452.48,263c-.47.06-48,6.34-98,37.48-66.68,41.59-105,105.41-113.76,189.68L218,858.3a25,25,0,0,0,2.48,10.36c3,6,8.57,9.45,16.92,10.41l73.39.36s13.51.58,21.06,7l-94.83,3c-30.55-3-29.25-31.51-29.25-31.51l22.8-368.56c21.93-211.47,220.66-236.5,220.66-236.5l285.62-39.28-4.72-9.72" transform="translate(0 -0.49)"></path><path class="cls-4" d="M734.05,203.52l1.38-.19,1.59,11.6a8.84,8.84,0,0,1-7.54,10L452.48,263c-.47.06-48,6.34-98,37.48-66.68,41.59-105,105.41-113.76,189.68L218,858.3a25,25,0,0,0,2.48,10.36c3,6,8.57,9.45,16.92,10.41l73.39.36s13.51.58,21.06,7l-94.83,3c-30.55-3-29.25-31.51-29.25-31.51l22.8-368.56c21.93-211.47,220.66-236.5,220.66-236.5l285.62-39.28-4.72-9.72m3.32-.46,92-11.78m-590,687.52-.73,20.58m-13.08-26.59-14.34,14.81M218,858.3l-20.46-.91m41.36-337-20.44-1.29m1.88-30.43,20.43,1.49M449.82,242.61,452.48,263M726.91,204.5l2.57,20.39M694.34,209l2.09,20.46m124.91-39.55v8.36s-61.49,21.63-91.55,3.53L451.11,240.61c-2,.25-51.38,6.86-104,40.14-31,19.62-56.74,44.47-76.37,73.86-24.49,36.67-39.48,80.42-44.56,130l0,.43L203.75,851.43c-.59,13.13,6.53,38.8,37.72,41.92l.64.07L372.35,892m-40.79-5.9s11.11,7.26,36.82,9.08m-65.06-14.67v14.67m-62.63,11.6h11.39v-4H240.69Zm110.08,0h10.12v-4H350.77Zm-113.87-4H401.38v-4.23H236.9Z" transform="translate(0 -0.49)"></path></svg> 