<?xml version="1.0" encoding="UTF-8"?> <svg xmlns="http://www.w3.org/2000/svg" id="Livello_1" data-name="Livello 1" viewBox="0 0 929.69 1000"><defs><style>.cls-1{fill:#fff;}.cls-10,.cls-11,.cls-12,.cls-13,.cls-14,.cls-15,.cls-16,.cls-17,.cls-18,.cls-19,.cls-2,.cls-20,.cls-21,.cls-22,.cls-23,.cls-24,.cls-25,.cls-26,.cls-27,.cls-28,.cls-29,.cls-30,.cls-31,.cls-32,.cls-33,.cls-34,.cls-35,.cls-36,.cls-37,.cls-38,.cls-39,.cls-4,.cls-40,.cls-41,.cls-42,.cls-43,.cls-44,.cls-45,.cls-46,.cls-47,.cls-48,.cls-49,.cls-5,.cls-50,.cls-51,.cls-52,.cls-53,.cls-54,.cls-55,.cls-56,.cls-57,.cls-58,.cls-59,.cls-6,.cls-60,.cls-61,.cls-62,.cls-63,.cls-64,.cls-65,.cls-66,.cls-67,.cls-68,.cls-69,.cls-7,.cls-70,.cls-8,.cls-9{fill:none;stroke-width:0.25px;}.cls-2,.cls-70{stroke:#231f20;}.cls-10,.cls-12,.cls-13,.cls-14,.cls-15,.cls-16,.cls-17,.cls-18,.cls-19,.cls-2,.cls-20,.cls-21,.cls-22,.cls-23,.cls-24,.cls-25,.cls-26,.cls-27,.cls-28,.cls-29,.cls-30,.cls-31,.cls-32,.cls-33,.cls-34,.cls-35,.cls-36,.cls-37,.cls-38,.cls-39,.cls-4,.cls-40,.cls-41,.cls-42,.cls-43,.cls-44,.cls-45,.cls-46,.cls-47,.cls-48,.cls-49,.cls-5,.cls-50,.cls-51,.cls-52,.cls-53,.cls-54,.cls-55,.cls-56,.cls-57,.cls-58,.cls-59,.cls-6,.cls-60,.cls-61,.cls-62,.cls-63,.cls-64,.cls-65,.cls-66,.cls-67,.cls-68,.cls-69,.cls-7,.cls-8,.cls-9{stroke-miterlimit:10;}.cls-3{fill:#231f20;}.cls-4{stroke:#000;}.cls-10,.cls-11,.cls-12,.cls-13,.cls-15,.cls-16,.cls-17,.cls-18,.cls-19,.cls-20,.cls-21,.cls-22,.cls-23,.cls-24,.cls-25,.cls-26,.cls-27,.cls-28,.cls-29,.cls-30,.cls-31,.cls-32,.cls-33,.cls-34,.cls-35,.cls-36,.cls-37,.cls-38,.cls-39,.cls-40,.cls-41,.cls-42,.cls-43,.cls-44,.cls-45,.cls-46,.cls-47,.cls-48,.cls-49,.cls-5,.cls-50,.cls-51,.cls-52,.cls-53,.cls-54,.cls-55,.cls-56,.cls-57,.cls-58,.cls-59,.cls-6,.cls-60,.cls-61,.cls-62,.cls-63,.cls-64,.cls-65,.cls-66,.cls-67,.cls-68,.cls-69,.cls-7,.cls-8,.cls-9{stroke:#666766;}.cls-5{stroke-dasharray:3.91 3.91;}.cls-6{stroke-dasharray:3.89 3.89;}.cls-8{stroke-dasharray:2.57 2.57;}.cls-9{stroke-dasharray:5.27 5.27;}.cls-10{stroke-dasharray:2.04 2.04;}.cls-11,.cls-70{stroke-linecap:round;stroke-linejoin:round;}.cls-12{stroke-dasharray:5.78 5.78;}.cls-13{stroke-dasharray:6.07 6.07;}.cls-14{stroke:#d5d7d8;}.cls-15{stroke-dasharray:4.93 4.93;}.cls-16{stroke-dasharray:3.96 3.96;}.cls-17{stroke-dasharray:3.95 3.95;}.cls-18{stroke-dasharray:2.6 2.6;}.cls-19{stroke-dasharray:5.34 5.34;}.cls-20{stroke-dasharray:2.07 2.07;}.cls-21{stroke-dasharray:5.78 5.78;}.cls-22{stroke-dasharray:5.78 5.78;}.cls-23{stroke-dasharray:6.07 6.07;}.cls-24{stroke-dasharray:4.93 4.93;}.cls-25{stroke-dasharray:3.95 3.95;}.cls-26{stroke-dasharray:3.95 3.95;}.cls-27{stroke-dasharray:5.35 5.35;}.cls-28{stroke-dasharray:5.35 5.35;}.cls-29{stroke-dasharray:2.07 2.07;}.cls-30{stroke-dasharray:5.79 5.79;}.cls-31{stroke-dasharray:5.78 5.78;}.cls-32{stroke-dasharray:6.07 6.07;}.cls-33{stroke-dasharray:6.07 6.07;}.cls-34{stroke-dasharray:4.94 4.94;}.cls-35{stroke-dasharray:3.95 3.95;}.cls-36{stroke-dasharray:3.92 3.92;}.cls-37{stroke-dasharray:2.6 2.6;}.cls-38{stroke-dasharray:5.35 5.35;}.cls-39{stroke-dasharray:5.35 5.35;}.cls-40{stroke-dasharray:2.04 2.04;}.cls-41{stroke-dasharray:4.94 4.94;}.cls-42{stroke-dasharray:3.93 3.93;}.cls-43{stroke-dasharray:3.94 3.94;}.cls-44{stroke-dasharray:2.58 2.58;}.cls-45{stroke-dasharray:5.3 5.3;}.cls-46{stroke-dasharray:5.3 5.3;}.cls-47{stroke-dasharray:2.07 2.07;}.cls-48{stroke-dasharray:4.94 4.94;}.cls-49{stroke-dasharray:3.94 3.94;}.cls-50{stroke-dasharray:2.59 2.59;}.cls-51{stroke-dasharray:5.34 5.34;}.cls-52{stroke-dasharray:5.34 5.34;}.cls-53{stroke-dasharray:2.06 2.06;}.cls-54{stroke-dasharray:4.94 4.94;}.cls-55{stroke-dasharray:3.94 3.94;}.cls-56{stroke-dasharray:3.95 3.95;}.cls-57{stroke-dasharray:2.59 2.59;}.cls-58{stroke-dasharray:5.33 5.33;}.cls-59{stroke-dasharray:5.33 5.33;}.cls-60{stroke-dasharray:2.07 2.07;}.cls-61{stroke-dasharray:3.96 3.96;}.cls-62{stroke-dasharray:2.6 2.6;}.cls-63{stroke-dasharray:2.07 2.07;}.cls-64{stroke-dasharray:4.93 4.93;}.cls-65{stroke-dasharray:3.93 3.93;}.cls-66{stroke-dasharray:3.94 3.94;}.cls-67{stroke-dasharray:2.59 2.59;}.cls-68{stroke-dasharray:5.35 5.35;}.cls-69{stroke-dasharray:4.93 4.93;}</style></defs><title>Taaac 2</title><rect class="cls-1" x="4.15" width="925.33" height="1000"></rect><path d="M815.38,536.72h2.39a5.88,5.88,0,0,1,3.88,1.2,4.13,4.13,0,0,1,1.33,3.34,4.63,4.63,0,0,1-1.19,3.45,4.9,4.9,0,0,1-3.56,1.19,4.85,4.85,0,0,1-3.45-1.19,4.08,4.08,0,0,1-1.26-3.13h-3.2a6.31,6.31,0,0,0,2.21,5,9.42,9.42,0,0,0,11.44-.07,6.83,6.83,0,0,0,2.21-5.35,6.15,6.15,0,0,0-1.12-3.7,6.37,6.37,0,0,0-3.2-2.14,6.46,6.46,0,0,0,2.88-2.29,5.48,5.48,0,0,0,1.06-3.17,6.83,6.83,0,0,0-2-5.24,9,9,0,0,0-11.08.11,6.38,6.38,0,0,0-2.18,4.92h3.2a4.07,4.07,0,0,1,1.19-3.09,4.57,4.57,0,0,1,3.31-1.2c2.92,0,4.4,1.48,4.4,4.4a4,4,0,0,1-1.3,3.13,5.39,5.39,0,0,1-3.56,1.2h-2.39Zm27.07-13.58c-3.87.07-6.79,1.3-8.76,3.73s-3,5.94-3,10.55v1.23a11.07,11.07,0,0,0,2.26,7.11,7.09,7.09,0,0,0,5.8,2.75,7.26,7.26,0,0,0,5.67-2.33,10,10,0,0,0,.14-12.13,6.51,6.51,0,0,0-5.21-2.29A6.71,6.71,0,0,0,834,534a9,9,0,0,1,2.53-6,8.38,8.38,0,0,1,5.91-2.18h.6v-2.71Zm-.28,12.91a6.42,6.42,0,0,1,1.23,4.12,6.26,6.26,0,0,1-1.23,4.11,4,4,0,0,1-3.38,1.59,4.2,4.2,0,0,1-3.45-1.87,8,8,0,0,1-1.4-5v-1.16a4.94,4.94,0,0,1,1.9-2.43,5.06,5.06,0,0,1,3-1,4,4,0,0,1,3.31,1.58ZM866,533.38c0-3.63-.71-6.27-2-8s-3.24-2.6-6-2.6-4.72.88-6,2.67-1.9,4.54-1.9,8.2v4.26c0,3.51.7,6.15,2,8s3.24,2.64,5.91,2.64,4.72-.92,6-2.71,1.9-4.58,1.9-8.31Zm-3.17,5a11.62,11.62,0,0,1-1.2,5.73,4.26,4.26,0,0,1-7.07-.1,11.94,11.94,0,0,1-1.2-6v-5.11a11.67,11.67,0,0,1,1.17-5.66,3.82,3.82,0,0,1,3.55-1.83,3.88,3.88,0,0,1,3.59,1.86c.77,1.24,1.16,3.17,1.16,5.88Zm8.7-8a4.2,4.2,0,0,0,3.1,1.3,4.08,4.08,0,0,0,3.06-1.3,4.27,4.27,0,0,0,1.27-3.1,4.42,4.42,0,0,0-1.27-3.13,4.23,4.23,0,0,0-6.16,0,4.45,4.45,0,0,0-1.3,3.13,4.29,4.29,0,0,0,1.3,3.1Zm1.51-1.55a2.07,2.07,0,0,1-.63-1.55,2.28,2.28,0,0,1,.63-1.58,2.21,2.21,0,0,1,3.14,0,2.22,2.22,0,0,1,.63,1.61,2.11,2.11,0,0,1-.63,1.59,2.24,2.24,0,0,1-1.55.6,2.18,2.18,0,0,1-1.59-.64Z" transform="translate(4.15 -0.49)"></path><path class="cls-2" d="M917.05,525.28c-6.77-41.73-49.41-74.58-102.85-78.82" transform="translate(4.15 -0.49)"></path><polygon class="cls-3" points="929.48 521.68 922.78 536.66 913.16 523.37 929.48 521.68"></polygon><polygon class="cls-4" points="929.48 521.68 922.78 536.66 913.16 523.37 929.48 521.68 929.48 521.68"></polygon><polygon class="cls-3" points="821.08 437.37 806.48 444.86 820.26 453.77 821.08 437.37"></polygon><polygon class="cls-4" points="821.08 437.37 806.48 444.86 820.26 453.77 821.08 437.37 821.08 437.37"></polygon><path class="cls-5" d="M508,853.3a66.69,66.69,0,0,1-3.73,33.8" transform="translate(4.15 -0.49)"></path><path class="cls-6" d="M413.86,798.78a64.93,64.93,0,0,1,33.58-4.4" transform="translate(4.15 -0.49)"></path><path class="cls-7" d="M494.32,822.16a67.19,67.19,0,0,1,6.35,9.53m-1.41,65.74a71.29,71.29,0,0,1-6.55,9.38,68.45,68.45,0,0,1-12.07,11.49m-30.57,12.58a68.61,68.61,0,0,1-16.64.36s-2.54-.6-9.37,4.44m-15.35,14.38c-2.16,2.33-4.47,5-7,7.9,0,0-1.4,2.94-5.42,0L377.7,942.51l-4.08-3.38L355,923.71c-3.68-3.38-1.07-5.32-1.07-5.32,2.42-3,4.55-5.8,6.42-8.36m11.15-17.86c3.64-7.67,2.57-10,2.57-10a68.78,68.78,0,0,1-2.81-16.46m6.49-32.47a69,69,0,0,1,8.95-14.09,75.33,75.33,0,0,1,7.92-8.22m64-14a65.29,65.29,0,0,1,10.52,4.43m-18.74,21.92a52.84,52.84,0,0,0-16.11-4m-31.78,7.88a53.61,53.61,0,0,0-12.39,11.07,51.06,51.06,0,0,0-10.25,20.59,3.9,3.9,0,0,0-.11.67c-.07,1-.34,4.42-.91,8.7m-3.62,17.1c-1.09,3.24-2.42,6-4,7.68m105.42-48.25a54.83,54.83,0,0,1,6.93,15.25M482.19,893a51.25,51.25,0,0,1-28.12,29.17s-3.87,1-9,2.67M427.78,932c-3.4,1.93-6,4-6.86,6.17" transform="translate(4.15 -0.49)"></path><path class="cls-8" d="M387.86,841.05s-3.94,37-13.11,42.35" transform="translate(4.15 -0.49)"></path><path class="cls-9" d="M404.51,876.88l70.27-82.22m15.38,32.77-67.05,84.89" transform="translate(4.15 -0.49)"></path><path class="cls-7" d="M381.78,918.23l-7.39-6.11,10-11.75M484.82,782.91l10-11.74,6,5m12,9.94,6,5-9.58,12.12M413.53,924.45,404,936.58l-7.39-6.12" transform="translate(4.15 -0.49)"></path><line class="cls-10" x1="393.06" y1="839.28" x2="420.78" y2="862.21"></line><path class="cls-11" d="M445.33,887.46,452,893m13.37,11.06,6.68,5.53s-4.91,1.14-11.44,3.33M439,922.85a29.13,29.13,0,0,0-8.61,8.13" transform="translate(4.15 -0.49)"></path><path class="cls-7" d="M429.78,847.18s-14.55.37-19.78,9.65l-9.17,13.89m-18.36,27.76-9.18,13.88L352,921.54M457.33,870s3,10.38-5.84,21.16L439.66,902.8M416,926.19l-11.83,11.69-4.83,22.8M369.7,894.5l11.3,9.34m30.13,24.9,10.87,9M359.22,910.8l5.88,4.86m37.26,30.8,6.13,5.06" transform="translate(4.15 -0.49)"></path><path class="cls-12" d="M594.69,652.39,518.3,743.27m34.43,6.46,74.63-92.34" transform="translate(4.15 -0.49)"></path><path class="cls-7" d="M507.38,756.26l-10.91,13,6.07,5m12.14,10,6.07,5,10.66-13.19M638,644.2,648.67,631l-21.25-17.57-10.91,13" transform="translate(4.15 -0.49)"></path><path class="cls-13" d="M695.35,531l-67.93,82.47M717,548.87,648.68,631" transform="translate(4.15 -0.49)"></path><path class="cls-7" d="M707.27,538a45.32,45.32,0,0,0-14.09-7.71m-31.12,3a53.81,53.81,0,0,0-12.45,10.19,32.2,32.2,0,0,0-5.05,7.18m-4.42,16.88a38.49,38.49,0,0,0,.84,8.75s3,19.13-5.72,27.58m72-65.9a45.46,45.46,0,0,1,10.23,12.4m3,31.17a53.75,53.75,0,0,1-7.62,14.18,32.35,32.35,0,0,1-6.07,6.33m-15.7,7.56a38.77,38.77,0,0,1-8.74.84s-19.32.71-26,10.87m22.32-38.19-10.32-8.52,15.49-18.81,10.32,8.52L678.69,583.2m0,0-10.32-8.52,15.49-18.81,10.32,8.52L678.69,583.2l-10.32-8.52,15.49-18.81,10.32,8.52L678.69,583.2" transform="translate(4.15 -0.49)"></path><path class="cls-3" d="M701.25,551.63a3.54,3.54,0,1,1-.48-5,3.55,3.55,0,0,1,.48,5" transform="translate(4.15 -0.49)"></path><path class="cls-14" d="M701.25,551.63a3.54,3.54,0,1,1-.48-5,3.55,3.55,0,0,1,.48,5" transform="translate(4.15 -0.49)"></path><path class="cls-7" d="M699.86,550.49a1.75,1.75,0,1,1-.23-2.46,1.75,1.75,0,0,1,.23,2.46m0,0a1.75,1.75,0,1,1-.23-2.46,1.75,1.75,0,0,1,.23,2.46,1.75,1.75,0,1,1-.23-2.46,1.75,1.75,0,0,1,.23,2.46" transform="translate(4.15 -0.49)"></path><path class="cls-3" d="M669.89,589.66a3.55,3.55,0,1,1-.48-5,3.57,3.57,0,0,1,.48,5" transform="translate(4.15 -0.49)"></path><path class="cls-14" d="M669.89,589.66a3.55,3.55,0,1,1-.48-5,3.57,3.57,0,0,1,.48,5" transform="translate(4.15 -0.49)"></path><path class="cls-7" d="M668.1,591.39a3.51,3.51,0,1,1-.48-4.94,3.51,3.51,0,0,1,.48,4.94m0,0a3.51,3.51,0,1,1-.48-4.94,3.51,3.51,0,0,1,.48,4.94,3.51,3.51,0,1,1-.48-4.94,3.51,3.51,0,0,1,.48,4.94" transform="translate(4.15 -0.49)"></path><line class="cls-15" x1="641.9" y1="621.79" x2="513.24" y2="778.25"></line><path class="cls-16" d="M511.78,880.93a67.39,67.39,0,0,1-15.32,30.85" transform="translate(4.15 -0.49)"></path><path class="cls-17" d="M441.1,796.21a66,66,0,0,1,33.52,7.55" transform="translate(4.15 -0.49)"></path><path class="cls-7" d="M509.62,846.55a68.21,68.21,0,0,1,2.73,11.27m-24.21,62a74,74,0,0,1-9.52,6.63,68.49,68.49,0,0,1-15.5,6.71m-33.5,1.28a69.47,69.47,0,0,1-16-5.47s-2.2-1.45-10.46,1m-19.64,8.3q-4.29,2.21-9.38,5.09s-2.36,2.3-5.14-1.93l-12.39-21.17-2.72-4.64-12.39-21.17c-2.33-4.51.83-5.43.83-5.43,3.35-2,6.35-3.93,9-5.71m16.83-13.08c6.14-6,5.95-8.67,5.95-8.67a69.57,69.57,0,0,1,3.05-16.63m17.49-28.62a68.93,68.93,0,0,1,13.43-10.26A73.86,73.86,0,0,1,418.53,801m65.81,9.06a67.45,67.45,0,0,1,8.47,7.88m-25.49,14.31a54,54,0,0,0-13.93-9.47m-33-3.61a54,54,0,0,0-15.66,6.21,51.47,51.47,0,0,0-16.94,16,4.42,4.42,0,0,0-.34.6c-.43,1-1.86,4.08-3.9,8m-9.39,15c-2.17,2.71-4.4,4.87-6.52,5.89m117.24-9a55.73,55.73,0,0,1,1.3,16.92m-12.73,31a51.88,51.88,0,0,1-36.94,17.92s-4.05-.4-9.5-.59m-19,.78c-3.92.65-7.13,1.73-8.7,3.47" transform="translate(4.15 -0.49)"></path><path class="cls-18" d="M401.6,827.33S385,861.09,374.37,863" transform="translate(4.15 -0.49)"></path><path class="cls-19" d="M405,867.22l95.57-53.64m3.24,36.54-93.43,57.3" transform="translate(4.15 -0.49)"></path><path class="cls-7" d="M369,898.61l-4.92-8.4,13.65-7.66m136.54-76.64,13.66-7.66,4,6.83m8,13.65,4,6.82-13.35,8.19M397,915.61l-13.35,8.18-4.91-8.39" transform="translate(4.15 -0.49)"></path><line class="cls-20" x1="407.2" y1="826" x2="425.63" y2="857.48"></line><path class="cls-11" d="M438.7,892.4l4.41,7.36M452,914.49l4.42,7.37s-5-.61-12-.8m-23.88,1.82a29.69,29.69,0,0,0-11,4.59" transform="translate(4.15 -0.49)"></path><path class="cls-7" d="M437.84,848.94s-13.82-4.66-21.93,2.24L402.49,861m-26.85,19.67-13.42,9.83L339,891.79m117-12.1s-.71,10.75-12.79,17.79L428,904.36m-30.32,13.75L382.52,925l-12.4,19.67M365,872.59l7.42,12.61m19.8,33.63L399.35,931m-49.84-46.72,3.86,6.56m24.49,41.59,4,6.84" transform="translate(4.15 -0.49)"></path><line class="cls-21" x1="664.32" y1="722.84" x2="561.11" y2="781.64"></line><line class="cls-22" x1="591.31" y1="799.49" x2="693.37" y2="738.73"></line><path class="cls-7" d="M542.22,790.52l-14.75,8.4,4,6.78m8,13.55,4,6.77L558,817.34m145.79-86.8,14.58-8.69-14-23.72-14.74,8.4" transform="translate(4.15 -0.49)"></path><path class="cls-23" d="M796.76,644.29l-92.35,53.84M811,668.48l-92.62,53.37" transform="translate(4.15 -0.49)"></path><path class="cls-7" d="M805.55,655a45.34,45.34,0,0,0-10.64-12.06m-30.33-7.83a54.13,54.13,0,0,0-15.22,5.25,31.91,31.91,0,0,0-7.21,5m-10,14.27a38.29,38.29,0,0,0-2.22,8.49s-3.79,18.92-14.88,23.83M805.55,655a45,45,0,0,1,5.36,15.11m-8,30.19a53.54,53.54,0,0,1-12,10.62,32.2,32.2,0,0,1-7.91,3.85m-17.38,1.68a39.06,39.06,0,0,1-8.52-2.22s-18.43-6-28.17,1.27m34.16-28.07-6.79-11.51,21.07-12.28,6.78,11.51-21.06,12.28m0,0-6.79-11.51,21.07-12.28,6.78,11.51-21.06,12.28-6.79-11.51,21.07-12.28,6.78,11.51-21.06,12.28" transform="translate(4.15 -0.49)"></path><path class="cls-3" d="M794.8,665.14a3.55,3.55,0,1,1,1.27-4.85,3.54,3.54,0,0,1-1.27,4.85" transform="translate(4.15 -0.49)"></path><path class="cls-14" d="M794.8,665.14a3.55,3.55,0,1,1,1.27-4.85,3.54,3.54,0,0,1-1.27,4.85" transform="translate(4.15 -0.49)"></path><path class="cls-7" d="M793.89,663.59a1.75,1.75,0,1,1,.63-2.4,1.74,1.74,0,0,1-.63,2.4m0,0a1.75,1.75,0,1,1,.63-2.4,1.74,1.74,0,0,1-.63,2.4,1.75,1.75,0,1,1,.63-2.4,1.74,1.74,0,0,1-.63,2.4" transform="translate(4.15 -0.49)"></path><path class="cls-3" d="M752.28,690.05a3.55,3.55,0,1,1,1.27-4.85,3.54,3.54,0,0,1-1.27,4.85" transform="translate(4.15 -0.49)"></path><path class="cls-14" d="M752.28,690.05a3.55,3.55,0,1,1,1.27-4.85,3.54,3.54,0,0,1-1.27,4.85" transform="translate(4.15 -0.49)"></path><path class="cls-7" d="M750.5,691.76a3.54,3.54,0,0,1-4.82-1.25,3.51,3.51,0,1,1,4.82,1.25m0,0a3.54,3.54,0,0,1-4.82-1.25,3.51,3.51,0,1,1,4.82,1.25,3.54,3.54,0,0,1-4.82-1.25,3.51,3.51,0,1,1,4.82,1.25" transform="translate(4.15 -0.49)"></path><line class="cls-24" x1="715.46" y1="709.75" x2="540.49" y2="811.97"></line><path class="cls-25" d="M505.29,908.26a67.24,67.24,0,0,1-25.06,23.57" transform="translate(4.15 -0.49)"></path><path class="cls-26" d="M468,804.72a66.1,66.1,0,0,1,29,18.53" transform="translate(4.15 -0.49)"></path><path class="cls-7" d="M515.14,875.32a67,67,0,0,1-1.32,11.5m-44.18,49.69a73.16,73.16,0,0,1-11.21,2.93,69.46,69.46,0,0,1-16.89.95m-32-10.28a68.93,68.93,0,0,1-13.17-10.61s-1.58-2.12-10.18-2.7m-21.34,1c-3.2.4-6.72.9-10.58,1.54,0,0-3,1.35-4.17-3.57l-4.37-24-1-5.28-4.36-24c-.64-5,2.65-4.8,2.65-4.8,3.85-.74,7.32-1.49,10.45-2.24M373.9,849c7.87-3.54,8.6-6.08,8.6-6.08a69,69,0,0,1,8.61-14.52m26.33-20.76a69.47,69.47,0,0,1,16.14-5,74.87,74.87,0,0,1,11.53-1.17m58.8,31a66.56,66.56,0,0,1,5.28,10.3m-28.92,4.64a53.71,53.71,0,0,0-9.87-13.66m-29.83-14.68a54.76,54.76,0,0,0-16.86.43,52,52,0,0,0-21.45,9.15,4.32,4.32,0,0,0-.52.44c-.74.75-3.17,3.18-6.42,6.11m-14,10.8c-3,1.78-5.82,3-8.17,3.27M486.6,881A55.46,55.46,0,0,1,482,897.34M459.3,921.93A52.24,52.24,0,0,1,418.4,926s-3.67-1.77-8.73-3.82m-18.13-5.78c-3.9-.74-7.3-.83-9.37.27" transform="translate(4.15 -0.49)"></path><path class="cls-18" d="M420.12,820.28s-27.27,25.87-37.93,24" transform="translate(4.15 -0.49)"></path><line class="cls-27" x1="413.72" y1="858.26" x2="522.14" y2="840.89"></line><line class="cls-28" x1="512.61" y1="876.16" x2="404.94" y2="897.71"></line><path class="cls-7" d="M364.83,875.73l-1.73-9.54,15.49-2.48m154.89-24.82L549,836.41l1.4,7.75m2.81,15.51,1.41,7.75-15.38,3.07m-153.8,30.78L370,904.35l-1.73-9.54" transform="translate(4.15 -0.49)"></path><line class="cls-29" x1="425.92" y1="819.5" x2="432.42" y2="855.26"></line><path class="cls-11" d="M432.45,894.3l1.55,8.37m3.11,16.72,1.54,8.37s-4.52-2.27-11-4.77m-23.05-6.28a30.1,30.1,0,0,0-11.87.61" transform="translate(4.15 -0.49)"></path><path class="cls-7" d="M447.17,853.1s-11.36-9-21.37-5.35l-16,4.59m-32,9.16-16,4.59-22.24-6.69m113.94,28.36s-4.38,9.73-18.15,12.17l-16.61,1.26m-33.21,2.5L369,904.94,350.53,919m20.08-68.62,2.61,14.22m7,37.9,2.52,13.67M352.07,856l1.35,7.4m8.6,46.88,1.42,7.71" transform="translate(4.15 -0.49)"></path><line class="cls-30" x1="703.4" y1="811.3" x2="586.21" y2="830.93"></line><line class="cls-31" x1="608.38" y1="857.72" x2="725.17" y2="835.87"></line><path class="cls-7" d="M565.32,834.22,548.57,837l1.41,7.64m2.8,15.27,1.4,7.64,16.68-3.12M737.7,833.24l16.67-3.12-4.9-26.73-16.74,2.79" transform="translate(4.15 -0.49)"></path><line class="cls-32" x1="858.9" y1="784.19" x2="753.62" y2="802.9"></line><line class="cls-33" x1="863.9" y1="811.44" x2="758.53" y2="829.63"></line><path class="cls-7" d="M859.3,797.59a44.48,44.48,0,0,0-5.86-14.87m-25.8-17.47a54.77,54.77,0,0,0-16-.25,32.39,32.39,0,0,0-8.47,2.15M788.86,777a38.89,38.89,0,0,0-5.05,7.15s-10.09,16.27-22.2,17.08m97.69-3.64a44,44,0,0,1-.21,15.92m-18,25.27a54.19,54.19,0,0,1-14.89,5.74,32.53,32.53,0,0,1-8.73.9m-16.89-4.31a38.93,38.93,0,0,1-7.25-5s-15.24-11.77-26.88-8.37m41.76-14.48-2.38-13,24-4.26,2.38,13-24,4.26m0,0-2.38-13,24-4.26,2.38,13-24,4.26-2.38-13,24-4.26,2.38,13-24,4.26" transform="translate(4.15 -0.49)"></path><path class="cls-3" d="M845.29,803.21a3.55,3.55,0,1,1,2.86-4.12,3.55,3.55,0,0,1-2.86,4.12" transform="translate(4.15 -0.49)"></path><path class="cls-14" d="M845.29,803.21a3.55,3.55,0,1,1,2.86-4.12,3.55,3.55,0,0,1-2.86,4.12" transform="translate(4.15 -0.49)"></path><path class="cls-7" d="M845,801.44a1.75,1.75,0,1,1,1.4-2,1.74,1.74,0,0,1-1.4,2m0,0a1.75,1.75,0,1,1,1.4-2,1.74,1.74,0,0,1-1.4,2,1.75,1.75,0,1,1,1.4-2,1.74,1.74,0,0,1-1.4,2" transform="translate(4.15 -0.49)"></path><path class="cls-3" d="M796.79,812a3.55,3.55,0,1,1,2.86-4.12,3.55,3.55,0,0,1-2.86,4.12" transform="translate(4.15 -0.49)"></path><path class="cls-14" d="M796.79,812a3.55,3.55,0,1,1,2.86-4.12,3.55,3.55,0,0,1-2.86,4.12" transform="translate(4.15 -0.49)"></path><path class="cls-7" d="M795,813.59a3.52,3.52,0,0,1-4.09-2.79,3.47,3.47,0,0,1,2.84-4,3.51,3.51,0,0,1,4.08,2.79,3.46,3.46,0,0,1-2.83,4m0,0a3.52,3.52,0,0,1-4.09-2.79,3.47,3.47,0,0,1,2.84-4,3.51,3.51,0,0,1,4.08,2.79,3.46,3.46,0,0,1-2.83,4,3.52,3.52,0,0,1-4.09-2.79,3.47,3.47,0,0,1,2.84-4,3.51,3.51,0,0,1,4.08,2.79,3.46,3.46,0,0,1-2.83,4" transform="translate(4.15 -0.49)"></path><line class="cls-34" x1="755.94" y1="816.99" x2="556.13" y2="852.67"></line><path class="cls-35" d="M489.48,932.22a68.13,68.13,0,0,1-31.63,13.41" transform="translate(4.15 -0.49)"></path><path class="cls-36" d="M489.88,823.28a65.09,65.09,0,0,1,21,26.93" transform="translate(4.15 -0.49)"></path><path class="cls-7" d="M510.16,904.82a64.74,64.74,0,0,1-5.23,10.31m-58.62,31.29a75.76,75.76,0,0,1-11.52-1,70.21,70.21,0,0,1-16.14-4.74m-26.56-20.25a68.33,68.33,0,0,1-8.8-14.35s-.75-2.5-8.68-5.93m-20.41-6.2c-3.14-.7-6.62-1.41-10.47-2.12,0,0-3.29.25-2.7-4.71l4.15-23.81.91-5.23,4.15-23.8c1.12-4.88,4.14-3.57,4.14-3.57,3.88.6,7.4,1.07,10.61,1.43m21.35.82c8.62-.64,10.18-2.75,10.18-2.75a69.23,69.23,0,0,1,13.12-10.64m31.88-10.43a70.76,70.76,0,0,1,16.88.8,76,76,0,0,1,11.17,2.76m44.73,48.53a65.82,65.82,0,0,1,1.44,11.4m-28.8-5.39a52.2,52.2,0,0,0-4.63-16.09m-23.08-23.63a55.45,55.45,0,0,0-15.92-5.21A52.69,52.69,0,0,0,420,823.58a3.61,3.61,0,0,0-.65.24c-1,.45-4.07,1.89-8.13,3.52m-16.89,5.34c-3.41.66-6.51.87-8.8.3m95.82,67.57a54.35,54.35,0,0,1-10,13.66M441.58,929.4a52.83,52.83,0,0,1-39.83-9.95s-2.84-2.87-6.91-6.49M379.76,901.5c-3.42-2-6.57-3.19-8.89-2.88" transform="translate(4.15 -0.49)"></path><path class="cls-37" d="M439.67,821.79s-34.54,14.89-43.94,9.62" transform="translate(4.15 -0.49)"></path><line class="cls-38" x1="420.68" y1="853.51" x2="528.65" y2="873.75"></line><line class="cls-39" x1="507.57" y1="903.33" x2="398.88" y2="887.23"></line><path class="cls-7" d="M368.62,854.77l1.64-9.44,15.43,2.89m154.23,28.91L555.34,880,554,887.7m-2.67,15.35L550,910.73l-15.53-2.3m-155.26-23-15.53-2.3,1.65-9.44" transform="translate(4.15 -0.49)"></path><line class="cls-40" x1="445.47" y1="821.58" x2="439.3" y2="857"></line><path class="cls-11" d="M426.1,895l-1.47,8.38m-2.94,16.75-1.48,8.38s-3.47-3.64-8.66-8.15m-19.46-13.56a29.86,29.86,0,0,0-11.33-3.35" transform="translate(4.15 -0.49)"></path><path class="cls-7" d="M453.92,861.57s-7.56-12.26-18.23-12.19l-16.62-1.06m-33.25-2.12-16.63-1.06L350.61,831.4m97.27,64.86s-7.49,7.67-21.28,5.34l-16.05-4.39m-32.08-8.79-16-4.4-22.2,7m42.68-57.7-2.48,14.23m-6.61,37.93-2.38,13.69m-7.9-66.85-1.29,7.41m-8.17,46.91-1.35,7.72" transform="translate(4.15 -0.49)"></path><line class="cls-31" x1="709.34" y1="906.85" x2="592.38" y2="885.96"></line><line class="cls-30" x1="603.93" y1="918.57" x2="721.27" y2="937.23"></line><path class="cls-7" d="M571.52,883.47l-16.7-3-1.34,7.64m-2.66,15.29-1.33,7.64,16.76,2.67m167.63,26.65,16.77,2.67,4.66-26.76-16.71-3" transform="translate(4.15 -0.49)"></path><path class="cls-32" d="M860.75,934,755.31,916.29m100.69,45L750.65,943.05" transform="translate(4.15 -0.49)"></path><path class="cls-7" d="M860.55,947.69a44,44,0,0,0-.35-15.92M842,906.69a54,54,0,0,0-14.94-5.6,32.32,32.32,0,0,0-8.73-.82m-16.85,4.46a38.61,38.61,0,0,0-7.2,5s-15.13,11.9-26.8,8.59m93.09,29.36a44.27,44.27,0,0,1-5.73,14.91m-25.63,17.68a54.62,54.62,0,0,1-16,.4,32.44,32.44,0,0,1-8.5-2.08m-14.39-9.71a38.62,38.62,0,0,1-5.11-7.1S775,945.62,762.84,944.92m44.26.41,2.26-13,24,4-2.26,13-24-4m0,0,2.26-13,24,4-2.26,13-24-4,2.26-13,24,4-2.26,13-24-4" transform="translate(4.15 -0.49)"></path><path class="cls-3" d="M845.2,949.69a3.54,3.54,0,1,1,4.09-2.89,3.53,3.53,0,0,1-4.09,2.89" transform="translate(4.15 -0.49)"></path><path class="cls-14" d="M845.2,949.69a3.54,3.54,0,1,1,4.09-2.89,3.53,3.53,0,0,1-4.09,2.89" transform="translate(4.15 -0.49)"></path><path class="cls-7" d="M845.5,947.93a1.76,1.76,0,0,1-1.43-2,1.73,1.73,0,0,1,2-1.43,1.75,1.75,0,0,1-.59,3.45m0,0a1.76,1.76,0,0,1-1.43-2,1.73,1.73,0,0,1,2-1.43,1.75,1.75,0,1,1-2,1.43,1.73,1.73,0,0,1,2-1.43,1.75,1.75,0,0,1-.59,3.45" transform="translate(4.15 -0.49)"></path><path class="cls-3" d="M796.62,941.38a3.55,3.55,0,1,1,4.1-2.9,3.54,3.54,0,0,1-4.1,2.9" transform="translate(4.15 -0.49)"></path><path class="cls-14" d="M796.62,941.38a3.55,3.55,0,1,1,4.1-2.9,3.54,3.54,0,0,1-4.1,2.9" transform="translate(4.15 -0.49)"></path><path class="cls-7" d="M794.85,940.05a3.48,3.48,0,1,1,4.07-2.84,3.53,3.53,0,0,1-4.07,2.84m0,0a3.48,3.48,0,1,1,4.07-2.84,3.53,3.53,0,0,1-4.07,2.84,3.48,3.48,0,1,1,4.07-2.84,3.53,3.53,0,0,1-4.07,2.84" transform="translate(4.15 -0.49)"></path><line class="cls-41" x1="757.04" y1="928.66" x2="556.91" y2="894.99"></line><path class="cls-42" d="M496.91,827.08a66.06,66.06,0,0,1,7.95,33.28" transform="translate(4.15 -0.49)"></path><path class="cls-43" d="M388.32,807.25A66.54,66.54,0,0,1,419,791.84" transform="translate(4.15 -0.49)"></path><path class="cls-7" d="M473.29,802.33a67.69,67.69,0,0,1,9.28,6.83m21,62.65a72.12,72.12,0,0,1-3.1,11.1,68,68,0,0,1-7.7,15m-25.05,22.16A69.46,69.46,0,0,1,452,926s-2.63.3-7.45,7.34m-9.84,18.77c-1.28,2.94-2.61,6.21-4,9.84,0,0-.34,3.25-5.2,1.79l-23.1-8.29-5.07-1.82-23.1-8.3c-4.67-2-2.83-4.67-2.83-4.67,1.29-3.66,2.38-7,3.31-10.06m4.63-20.64c.87-8.49-1-10.38-1-10.38A68.14,68.14,0,0,1,370.09,885m-4.82-32.91a68,68,0,0,1,3.79-16.33,74,74,0,0,1,4.83-10.51m56.59-34.71a67.24,67.24,0,0,1,11.54.64M431.5,818.2a54.4,54.4,0,0,0-16.75,1.59M386.94,837.9a53.89,53.89,0,0,0-8.15,14.71A50.64,50.64,0,0,0,376,875.54a3.78,3.78,0,0,0,.13.67c.28,1,1.16,4.29,2.07,8.53m2.35,17.39c.06,3.43-.28,6.5-1.26,8.62M463.9,829.6a55.12,55.12,0,0,1,11.8,12m10,31.71a50.73,50.73,0,0,1-3.12,16.55,51.25,51.25,0,0,1-13.92,20.53s-3.37,2.25-7.7,5.54m-14.14,12.61c-2.61,3-4.41,5.86-4.5,8.17" transform="translate(4.15 -0.49)"></path><path class="cls-44" d="M377.65,856.08s8.78,36.26,1.83,44.46" transform="translate(4.15 -0.49)"></path><line class="cls-45" x1="409.94" y1="883.85" x2="449.37" y2="782.42"></line><line class="cls-46" x1="475.25" y1="808.22" x2="439.82" y2="911.09"></line><path class="cls-7" d="M398.05,931.1l-9.16-3.29,5.63-14.49m56.33-144.89,5.63-14.5,7.45,2.68M478.82,762l7.46,2.68-5.07,14.69m-50.61,147L425.55,941l-9.17-3.29" transform="translate(4.15 -0.49)"></path><line class="cls-47" x1="382.38" y1="854.03" x2="416.73" y2="866.36"></line><path class="cls-11" d="M447.51,881.09l8,3m15.89,6,7.95,3s-4.17,2.75-9.49,7.06m-16.63,16.71A29.8,29.8,0,0,0,448,927.31" transform="translate(4.15 -0.49)"></path><path class="cls-7" d="M419,848.18s-13.5,5.24-15.31,15.75l-4,16.18m-8,32.35-4,16.18-16.9,15.81m81.49-84.05s6.29,8.77,1.57,21.93l-7.19,15m-14.38,30-7.19,15,3.06,23.13M378.49,913l13.69,5m36.48,13.36,13.16,4.81m-67.73-4.3,7.13,2.61M426.34,951l7.42,2.71" transform="translate(4.15 -0.49)"></path><line class="cls-21" x1="512.85" y1="608.6" x2="471.53" y2="719.97"></line><line class="cls-31" x1="505.92" y1="714.49" x2="545.11" y2="602.33"></line><path class="cls-7" d="M461.47,736.37l-5.9,15.91,7.35,2.69m14.7,5.38,7.35,2.7,5.6-16m56-160.22,5.61-16-25.74-9.42-5.91,15.91" transform="translate(4.15 -0.49)"></path><path class="cls-32" d="M562.6,460.74,526.42,561.35m62.42-91L552.15,570.78" transform="translate(4.15 -0.49)"></path><path class="cls-7" d="M576.12,463.41a44.79,44.79,0,0,0-15.79-2.54m-28.14,13.36A54.06,54.06,0,0,0,524,488a32.51,32.51,0,0,0-2.35,8.47m1.47,17.4a40.05,40.05,0,0,0,3.69,8s9.15,17,3.82,27.93m45.53-86.34a44.94,44.94,0,0,1,13.74,8.29m13.08,28.41a54.41,54.41,0,0,1-2.42,15.9,32.29,32.29,0,0,1-3.57,8m-12.19,12.41a37.49,37.49,0,0,1-7.92,3.74s-17.85,7.16-20.68,19m8.2-43.51L551.87,511l8.25-22.94,12.5,4.57-8.26,22.95m0,0L551.87,511l8.25-22.94,12.5,4.57-8.26,22.95L551.87,511l8.25-22.94,12.5,4.57-8.26,22.95" transform="translate(4.15 -0.49)"></path><path class="cls-3" d="M575.43,478.66a3.54,3.54,0,1,1-2.12-4.54,3.53,3.53,0,0,1,2.12,4.54" transform="translate(4.15 -0.49)"></path><path class="cls-14" d="M575.43,478.66a3.54,3.54,0,1,1-2.12-4.54,3.53,3.53,0,0,1,2.12,4.54" transform="translate(4.15 -0.49)"></path><path class="cls-7" d="M573.75,478.05a1.75,1.75,0,1,1-1-2.24,1.75,1.75,0,0,1,1,2.24m0,0a1.75,1.75,0,1,1-1-2.24,1.75,1.75,0,0,1,1,2.24,1.75,1.75,0,1,1-1-2.24,1.75,1.75,0,0,1,1,2.24" transform="translate(4.15 -0.49)"></path><path class="cls-3" d="M558.62,525a3.54,3.54,0,1,1-2.12-4.54,3.54,3.54,0,0,1,2.12,4.54" transform="translate(4.15 -0.49)"></path><path class="cls-14" d="M558.62,525a3.54,3.54,0,1,1-2.12-4.54,3.54,3.54,0,0,1,2.12,4.54" transform="translate(4.15 -0.49)"></path><path class="cls-7" d="M556.83,526.75a3.49,3.49,0,0,1-4.47,2.11,3.54,3.54,0,0,1-2.08-4.51,3.48,3.48,0,0,1,4.46-2.11,3.53,3.53,0,0,1,2.09,4.51m0,0a3.49,3.49,0,0,1-4.47,2.11,3.54,3.54,0,0,1-2.08-4.51,3.48,3.48,0,0,1,4.46-2.11,3.53,3.53,0,0,1,2.09,4.51,3.49,3.49,0,0,1-4.47,2.11,3.54,3.54,0,0,1-2.08-4.51,3.48,3.48,0,0,1,4.46-2.11,3.53,3.53,0,0,1,2.09,4.51" transform="translate(4.15 -0.49)"></path><line class="cls-48" x1="542.85" y1="565.61" x2="474.44" y2="756.53"></line><path class="cls-49" d="M450.89,791.88a66.92,66.92,0,0,1,27.37,20.69" transform="translate(4.15 -0.49)"></path><path class="cls-26" d="M355.53,846.48a66.44,66.44,0,0,1,13.28-31.72" transform="translate(4.15 -0.49)"></path><path class="cls-7" d="M416.84,787.83a65.16,65.16,0,0,1,11.53-.67m56.27,35a74.93,74.93,0,0,1,4.76,10.52,70,70,0,0,1,3.8,16.49m-4.69,33.27a69.42,69.42,0,0,1-8.18,14.8s-1.82,1.92-.93,10.5M484,928.64c.94,3.09,2,6.47,3.31,10.18,0,0,1.83,2.73-2.8,4.73L461.67,952l-5,1.85-22.87,8.43c-4.81,1.49-5.15-1.79-5.15-1.79-1.39-3.66-2.71-7-4-9.91m-9.78-18.95c-4.81-7.15-7.42-7.44-7.42-7.44a68.27,68.27,0,0,1-15.75-6m-24.82-22.4a69.61,69.61,0,0,1-7.61-15,76.35,76.35,0,0,1-3.09-11.16m20.48-63.29a67.09,67.09,0,0,1,9.25-7M395.36,827a53.58,53.58,0,0,0-11.75,12.09M374.26,871a54.66,54.66,0,0,0,3.28,16.54,51.68,51.68,0,0,0,12.61,19.58,5.52,5.52,0,0,0,.53.43c.86.6,3.66,2.58,7.08,5.28m13,12c2.25,2.62,4,5.2,4.58,7.47m12-117.28a54.45,54.45,0,0,1,16.8,1.75m28,18.15A52.51,52.51,0,0,1,483,874.5s-1.11,3.91-2.27,9.25m-2.61,18.86c-.06,4,.44,7.35,1.85,9.2" transform="translate(4.15 -0.49)"></path><path class="cls-50" d="M378.91,891s30,22.44,30,33.26" transform="translate(4.15 -0.49)"></path><line class="cls-51" x1="422.61" y1="894.26" x2="387.19" y2="790.36"></line><line class="cls-52" x1="423.44" y1="793.7" x2="462.82" y2="896.13"></line><path class="cls-7" d="M442.71,935.94l-9.07,3.34-5.06-14.84M378,776l-5.05-14.84,7.37-2.72M395,753l7.38-2.72L408,764.92M464.3,911.26l5.62,14.64-9.07,3.34" transform="translate(4.15 -0.49)"></path><line class="cls-53" x1="382.48" y1="888.89" x2="416.5" y2="876.35"></line><path class="cls-11" d="M447.88,866.2l7.94-3m15.88-6,7.95-3s-1.48,4.86-2.86,11.66m-2.34,23.83A30.07,30.07,0,0,0,477,901.34" transform="translate(4.15 -0.49)"></path><path class="cls-7" d="M404.86,859.05s-7,12.77-1.69,22l7.26,15M425,926l7.26,15L429.35,964m8.85-117.27s10.41,2.64,15.16,15.79l4.07,16.15M465.54,911l4,16.15,17.08,15.73M415.13,935l13.68-5m36.46-13.45,13.16-4.85M423.8,952.32l7.12-2.62M476,933.07l7.42-2.73" transform="translate(4.15 -0.49)"></path><path class="cls-30" d="M321.13,617.7l39.34,112.13m22.85-26.52L341.84,592" transform="translate(4.15 -0.49)"></path><path class="cls-7" d="M366.1,745.85l5.61,16,7.35-2.72m14.68-5.41L401.1,751l-5.92-15.9M335.92,576.06,330,560.16l-25.72,9.48,5.61,16" transform="translate(4.15 -0.49)"></path><path class="cls-33" d="M267.86,469.09l36.41,100.55M294.08,459.42,330,560.15" transform="translate(4.15 -0.49)"></path><path class="cls-7" d="M279.91,462.37a45,45,0,0,0-13.73,8.33m-13,28.44A54.17,54.17,0,0,0,255.62,515a32,32,0,0,0,3.58,8m12.22,12.39a38.3,38.3,0,0,0,7.93,3.72s17.87,7.12,20.72,18.92m-20.16-95.68a44.58,44.58,0,0,1,15.79-2.57m28.16,13.3a53.48,53.48,0,0,1,8.26,13.72,32.46,32.46,0,0,1,2.37,8.46m-1.43,17.41a39.8,39.8,0,0,1-3.68,8s-9.1,17.07-3.75,28M304.17,510l-12.48,4.61-8.3-22.94,12.48-4.6,8.3,22.93m0,0-12.48,4.61-8.3-22.94,12.48-4.6,8.3,22.93-12.48,4.61-8.3-22.94,12.48-4.6,8.3,22.93" transform="translate(4.15 -0.49)"></path><path class="cls-3" d="M287.79,475.1a3.54,3.54,0,1,1-4.55-2.12,3.55,3.55,0,0,1,4.55,2.12" transform="translate(4.15 -0.49)"></path><path class="cls-14" d="M287.79,475.1a3.54,3.54,0,1,1-4.55-2.12,3.55,3.55,0,0,1,4.55,2.12" transform="translate(4.15 -0.49)"></path><path class="cls-7" d="M286.1,475.71a1.75,1.75,0,1,1-2.25-1,1.77,1.77,0,0,1,2.25,1m0,0a1.75,1.75,0,1,1-2.25-1,1.77,1.77,0,0,1,2.25,1,1.75,1.75,0,1,1-2.25-1,1.77,1.77,0,0,1,2.25,1" transform="translate(4.15 -0.49)"></path><path class="cls-3" d="M304.7,521.39a3.55,3.55,0,1,1-4.55-2.11,3.54,3.54,0,0,1,4.55,2.11" transform="translate(4.15 -0.49)"></path><path class="cls-14" d="M304.7,521.39a3.55,3.55,0,1,1-4.55-2.11,3.54,3.54,0,0,1,4.55,2.11" transform="translate(4.15 -0.49)"></path><path class="cls-7" d="M306.38,523.16a3.54,3.54,0,0,1-2.08,4.52,3.49,3.49,0,0,1-4.47-2.1,3.53,3.53,0,0,1,2.08-4.51,3.47,3.47,0,0,1,4.47,2.09m0,0a3.54,3.54,0,0,1-2.08,4.52,3.49,3.49,0,0,1-4.47-2.1,3.53,3.53,0,0,1,2.08-4.51,3.47,3.47,0,0,1,4.47,2.09,3.54,3.54,0,0,1-2.08,4.52,3.49,3.49,0,0,1-4.47-2.1,3.53,3.53,0,0,1,2.08-4.51,3.47,3.47,0,0,1,4.47,2.09" transform="translate(4.15 -0.49)"></path><line class="cls-54" x1="321.71" y1="564.58" x2="390.96" y2="755.18"></line><path class="cls-55" d="M421,790.13a66.38,66.38,0,0,1,32.71,10.19" transform="translate(4.15 -0.49)"></path><path class="cls-56" d="M349.37,873.81a66.67,66.67,0,0,1,2-34.36" transform="translate(4.15 -0.49)"></path><path class="cls-7" d="M387.65,797.85a66.64,66.64,0,0,1,10.6-4.53M463,807.23a72.47,72.47,0,0,1,8,8.31A68.81,68.81,0,0,1,480,829.81m6.63,32.93a69.53,69.53,0,0,1-2.78,16.68s-1.07,2.42,2.62,10.19m11.29,18.08c1.91,2.6,4.06,5.41,6.51,8.47,0,0,2.64,2-1.06,5.41L484.5,937.26l-4.11,3.45L461.65,956.4c-4,3-5.46.06-5.46.06-2.51-3-4.86-5.63-7-8m-15.52-14.53c-6.91-5.11-9.47-4.49-9.47-4.49a68,68,0,0,1-16.81-.32M376.5,916.45a68.65,68.65,0,0,1-12.18-11.6,74.77,74.77,0,0,1-6.64-9.49M356,828.81a67.29,67.29,0,0,1,6.37-9.68M380.44,842a54.08,54.08,0,0,0-7,15.33m1.77,33.24a54.86,54.86,0,0,0,8.62,14.51,51.23,51.23,0,0,0,18.39,14.15,3.91,3.91,0,0,0,.65.24c1,.27,4.3,1.18,8.42,2.57m16.21,6.86c3,1.71,5.47,3.56,6.81,5.49M406.52,819.89a54.85,54.85,0,0,1,16.39-4m32.42,7.6a51.91,51.91,0,0,1,23.46,33.61s.26,4.06.94,9.48m3.82,18.65c1.28,3.77,2.86,6.78,4.82,8" transform="translate(4.15 -0.49)"></path><path class="cls-57" d="M386.22,907.85s35.75,11,39.36,21.15" transform="translate(4.15 -0.49)"></path><line class="cls-58" x1="428.9" y1="897.52" x2="360.96" y2="811.67"></line><line class="cls-59" x1="396.22" y1="802.53" x2="467.41" y2="885.66"></line><path class="cls-7" d="M461.3,928.58l-7.44,6.22-9.7-12.26M347.1,799.89l-9.71-12.26,6-5.06m12.09-10.12,6-5.06,10.18,11.87M473.43,898l10.17,11.87-7.43,6.23" transform="translate(4.15 -0.49)"></path><line class="cls-60" x1="389.31" y1="906.07" x2="417.18" y2="882.72"></line><path class="cls-11" d="M443.28,861l6.64-5.57m13.28-11.13,6.64-5.57s.19,5.06,1.12,11.92m5.64,23.2a29.34,29.34,0,0,0,6.33,10.06" transform="translate(4.15 -0.49)"></path><path class="cls-7" d="M400.64,868.72s-2.36,14.38,5.77,21.26l11.9,11.63m23.79,23.25L454,936.49l5,22.69M428.13,845.86s10.75-1,19.66,9.71L457,869.4M475.56,897l9.25,13.83,21.45,9m-70.44,16.8,11.27-9.37m30.06-25,10.84-9m-38.15,56.74,5.87-4.88m37.17-30.91,6.11-5.08" transform="translate(4.15 -0.49)"></path><path class="cls-12" d="M240.48,670l74.83,92.17m12.77-32.68-76.59-90.7" transform="translate(4.15 -0.49)"></path><path class="cls-7" d="M326,775.34l10.69,13.16,6.06-5m12.11-10.07,6.05-5-10.94-13M240.55,625.83l-10.94-13L208.4,630.5l10.69,13.17" transform="translate(4.15 -0.49)"></path><path class="cls-13" d="M140.23,548.24,208.4,630.5M161.84,530.27l67.76,82.61" transform="translate(4.15 -0.49)"></path><path class="cls-7" d="M149.39,537.83a45.62,45.62,0,0,0-10.19,12.43m-2.86,31.18A53.59,53.59,0,0,0,144,595.59a32,32,0,0,0,6.09,6.32m15.73,7.51a38.69,38.69,0,0,0,8.73.81s19.33.66,26,10.79m-51.16-83.19a45.22,45.22,0,0,1,14.07-7.74M194.59,533a53.8,53.8,0,0,1,12.48,10.14,32.18,32.18,0,0,1,5.08,7.17m4.47,16.87a39.46,39.46,0,0,1-.81,8.74s-2.92,19.14,5.8,27.56m-33.27-29.09L178,583,162.49,564.2l10.3-8.56,15.55,18.77m0,0L178,583,162.49,564.2l10.3-8.56,15.55,18.77L178,583,162.49,564.2l10.3-8.56,15.55,18.77" transform="translate(4.15 -0.49)"></path><path class="cls-3" d="M161.33,546.53a3.55,3.55,0,1,1-5-.46,3.54,3.54,0,0,1,5,.46" transform="translate(4.15 -0.49)"></path><path class="cls-14" d="M161.33,546.53a3.55,3.55,0,1,1-5-.46,3.54,3.54,0,0,1,5,.46" transform="translate(4.15 -0.49)"></path><path class="cls-7" d="M160,547.68a1.75,1.75,0,1,1-2.47-.23,1.75,1.75,0,0,1,2.47.23m0,0a1.75,1.75,0,1,1-2.47-.23,1.75,1.75,0,0,1,2.47.23,1.75,1.75,0,1,1-2.47-.23,1.75,1.75,0,0,1,2.47.23" transform="translate(4.15 -0.49)"></path><path class="cls-3" d="M192.81,584.45a3.55,3.55,0,1,1-5-.46,3.55,3.55,0,0,1,5,.46" transform="translate(4.15 -0.49)"></path><path class="cls-14" d="M192.81,584.45a3.55,3.55,0,1,1-5-.46,3.55,3.55,0,0,1,5,.46" transform="translate(4.15 -0.49)"></path><path class="cls-7" d="M194.54,586.24a3.51,3.51,0,1,1-4.95-.46,3.51,3.51,0,0,1,4.95.46m0,0a3.51,3.51,0,1,1-4.95-.46,3.51,3.51,0,0,1,4.95.46,3.51,3.51,0,1,1-4.95-.46,3.51,3.51,0,0,1,4.95.46" transform="translate(4.15 -0.49)"></path><line class="cls-15" x1="223.32" y1="621.36" x2="352.81" y2="777.13"></line><path class="cls-61" d="M393,797.14a67.21,67.21,0,0,1,34.38-1.93" transform="translate(4.15 -0.49)"></path><path class="cls-26" d="M354.38,900.51a66,66,0,0,1-10-32.89" transform="translate(4.15 -0.49)"></path><path class="cls-7" d="M364.21,816a67.07,67.07,0,0,1,8.43-7.95m65.85-9.61a73.4,73.4,0,0,1,10.46,5,69.73,69.73,0,0,1,13.5,10.17m17.68,28.52a69.12,69.12,0,0,1,3.15,16.59s-.17,2.65,6,8.64m16.92,13c2.7,1.77,5.71,3.64,9.06,5.65,0,0,3.17.91.87,5.43l-12.25,21.24-2.69,4.66-12.25,21.25c-2.76,4.25-5.13,2-5.13,2-3.42-1.91-6.55-3.57-9.42-5m-19.69-8.18c-8.27-2.36-10.47-.9-10.47-.9A69.23,69.23,0,0,1,428.29,932M394.78,931a68.91,68.91,0,0,1-15.55-6.61,73.87,73.87,0,0,1-9.55-6.56M345,856.06a67.91,67.91,0,0,1,2.65-11.27m25,15.1a53.8,53.8,0,0,0-1.34,16.81m13.19,30.51a54.56,54.56,0,0,0,13.15,10.55A51.65,51.65,0,0,0,420,924.59a5.3,5.3,0,0,0,.69,0c1.05-.1,4.47-.39,8.83-.54m17.67.76c3.43.54,6.41,1.42,8.34,2.76m-65.84-97.51a55.49,55.49,0,0,1,14.05-9.5m33.21-4.24a51.79,51.79,0,0,1,33.82,23.27s1.65,3.71,4.17,8.55M485,864.25c2.5,3.09,5,5.35,7.31,5.85" transform="translate(4.15 -0.49)"></path><path class="cls-62" d="M400.93,919.48s37.54-2.23,44.47,6" transform="translate(4.15 -0.49)"></path><path class="cls-19" d="M433.89,896.81,340,840.19m30.13-20.89,96,52.94" transform="translate(4.15 -0.49)"></path><path class="cls-7" d="M479,912.65l-4.86,8.42L460.71,913M326.64,832.11,313.23,824l3.95-6.85m7.9-13.7,3.95-6.85,13.72,7.56m137.1,75.62,13.71,7.56-4.87,8.43" transform="translate(4.15 -0.49)"></path><line class="cls-63" x1="403.63" y1="918.16" x2="421.86" y2="886.56"></line><path class="cls-11" d="M438.58,855.4l4.36-7.43m8.73-14.87,4.36-7.43s2,4.62,5.21,10.66m13.44,19.48a29.4,29.4,0,0,0,9.45,7.06" transform="translate(4.15 -0.49)"></path><path class="cls-7" d="M401.54,877.49s2.78,14.26,12.82,17.87l15.22,6.74M460,915.59l15.22,6.74,12.6,19.46m-68.41-95.16s9.74-4.69,21.86,2.26l13.51,9.72m27,19.41,13.51,9.71,23.3,1m-60.41,40.08,7.35-12.65m19.58-33.76,7.07-12.17m-16.17,66.21,3.83-6.59m24.21-41.74,4-6.87" transform="translate(4.15 -0.49)"></path><path class="cls-21" d="M181.88,747.33l102.4,60.19m.65-34.95L181.39,714.36" transform="translate(4.15 -0.49)"></path><path class="cls-7" d="M298.91,816.11l14.62,8.6,4-6.8m7.89-13.6,3.94-6.8-14.79-8.31M166.6,706l-14.8-8.32L138,721.54l14.63,8.59" transform="translate(4.15 -0.49)"></path><path class="cls-23" d="M45.29,668.29,138,721.54M59.38,644l92.43,53.7" transform="translate(4.15 -0.49)"></path><path class="cls-7" d="M50.3,655.4A45.2,45.2,0,0,0,45,670.54m8.17,30.13a53.62,53.62,0,0,0,12.1,10.55A32,32,0,0,0,73.23,715m17.4,1.58a39.36,39.36,0,0,0,8.5-2.28s18.39-6.07,28.18,1.08m-77-60a45.45,45.45,0,0,1,10.56-12.13m30.27-8a53.91,53.91,0,0,1,15.26,5.16,32.13,32.13,0,0,1,7.25,4.92m10.08,14.2A39.2,39.2,0,0,1,126,668s3.91,18.89,15,23.74m-41.4-15.66-6.71,11.55L71.78,675.49l6.71-11.56,21.14,12.15m0,0-6.71,11.55L71.78,675.49l6.71-11.56,21.14,12.15-6.71,11.55L71.78,675.49l6.71-11.56,21.14,12.15" transform="translate(4.15 -0.49)"></path><path class="cls-3" d="M64.93,658.85a3.55,3.55,0,1,1-4.84,1.3,3.54,3.54,0,0,1,4.84-1.3" transform="translate(4.15 -0.49)"></path><path class="cls-14" d="M64.93,658.85a3.55,3.55,0,1,1-4.84,1.3,3.54,3.54,0,0,1,4.84-1.3" transform="translate(4.15 -0.49)"></path><path class="cls-7" d="M64,660.41a1.75,1.75,0,1,1-2.39.64,1.76,1.76,0,0,1,2.39-.64m0,0a1.75,1.75,0,1,1-2.39.64,1.76,1.76,0,0,1,2.39-.64,1.75,1.75,0,1,1-2.39.64,1.76,1.76,0,0,1,2.39-.64" transform="translate(4.15 -0.49)"></path><path class="cls-3" d="M107.61,683.49a3.55,3.55,0,1,1-4.84,1.3,3.54,3.54,0,0,1,4.84-1.3" transform="translate(4.15 -0.49)"></path><path class="cls-14" d="M107.61,683.49a3.55,3.55,0,1,1-4.84,1.3,3.54,3.54,0,0,1,4.84-1.3" transform="translate(4.15 -0.49)"></path><path class="cls-7" d="M109.37,685.28a3.5,3.5,0,1,1-4.81,1.28,3.53,3.53,0,0,1,4.81-1.28m0,0a3.5,3.5,0,1,1-4.81,1.28,3.53,3.53,0,0,1,4.81-1.28,3.5,3.5,0,1,1-4.81,1.28,3.53,3.53,0,0,1,4.81-1.28" transform="translate(4.15 -0.49)"></path><line class="cls-64" x1="149.05" y1="709.54" x2="324.89" y2="810.24"></line><path class="cls-16" d="M368.39,813.66a67.56,67.56,0,0,1,31.68-13.53" transform="translate(4.15 -0.49)"></path><path class="cls-35" d="M367.6,923.66a65.88,65.88,0,0,1-20.79-27.33" transform="translate(4.15 -0.49)"></path><path class="cls-7" d="M347.74,841.21A66.9,66.9,0,0,1,353,830.86m58.68-31.49a72.38,72.38,0,0,1,11.54,1.09,68.94,68.94,0,0,1,16.17,4.88M465.81,826a68.57,68.57,0,0,1,8.7,14.48s.75,2.53,8.63,6m20.39,6.34q4.7,1.1,10.46,2.18s3.29-.23,2.68,4.79l-4.23,24.06-.93,5.28-4.23,24.06c-1.14,4.93-4.15,3.59-4.15,3.59q-5.81-.91-10.59-1.47m-21.34-.91c-8.61.62-10.17,2.75-10.17,2.75a69.05,69.05,0,0,1-13.12,10.68M416,938.26a69.46,69.46,0,0,1-16.9-.86,73.77,73.77,0,0,1-11.2-2.86m-44.47-49.27a65.63,65.63,0,0,1-1.39-11.48m28.75,5.56a53.63,53.63,0,0,0,4.54,16.21m22.93,24a54.71,54.71,0,0,0,16,5.36,52.27,52.27,0,0,0,23.31-1.23,5,5,0,0,0,.64-.25c.95-.45,4.07-1.9,8.13-3.53m16.9-5.34c3.41-.65,6.51-.86,8.79-.27m-95.49-68.68a55.4,55.4,0,0,1,10-13.73m29.8-15.31a52.24,52.24,0,0,1,39.82,10.2s2.82,2.91,6.87,6.58M478,845c3.41,2,6.57,3.27,8.88,3" transform="translate(4.15 -0.49)"></path><path class="cls-37" d="M417.88,925.43s34.56-14.94,43.93-9.57" transform="translate(4.15 -0.49)"></path><line class="cls-28" x1="445.26" y1="892.45" x2="337.46" y2="871.61"></line><line class="cls-27" x1="358.63" y1="841.76" x2="467.16" y2="858.43"></line><path class="cls-7" d="M489,892.33l-1.68,9.54-15.4-3m-154-29.78-15.4-3,1.37-7.77m2.72-15.52,1.36-7.75,15.51,2.38m155,23.81L494,863.68l-1.68,9.55" transform="translate(4.15 -0.49)"></path><line class="cls-29" x1="420.38" y1="924.65" x2="426.67" y2="888.86"></line><path class="cls-11" d="M431.62,852.46l1.5-8.37m3-16.75,1.5-8.37s3.45,3.66,8.63,8.18m19.42,13.62a29.58,29.58,0,0,0,11.31,3.4" transform="translate(4.15 -0.49)"></path><path class="cls-7" d="M403.69,885.81s7.52,12.3,18.19,12.26l16.62,1.12m33.24,2.23,16.62,1.12,18.54,13.8m-97-65.21s7.53-7.65,21.31-5.28l16,4.45m32.05,8.9,16,4.46,22.22-6.94M474.61,914.3l2.52-14.23m6.75-37.92,2.43-13.68M494,915.36l1.31-7.41m8.35-46.9,1.36-7.71" transform="translate(4.15 -0.49)"></path><line class="cls-31" x1="156.74" y1="838.68" x2="273.62" y2="859.97"></line><line class="cls-30" x1="262.19" y1="827.32" x2="144.91" y2="808.25"></line><path class="cls-7" d="M286.17,863.5l16.7,3,1.35-7.64m2.72-15.28L308.3,836l-16.76-2.72M124,806l-16.75-2.72L102.49,830l16.7,3" transform="translate(4.15 -0.49)"></path><path class="cls-32" d="M-2.88,811.92,102.5,830M2,784.65l105.29,18.64" transform="translate(4.15 -0.49)"></path><path class="cls-7" d="M-2.63,798.27a43.85,43.85,0,0,0,.29,15.92m18.13,25.16A54.37,54.37,0,0,0,30.7,845a32.46,32.46,0,0,0,8.73.85m16.87-4.41a38.88,38.88,0,0,0,7.23-5S78.69,824.61,90.35,828m-93-29.68a44.22,44.22,0,0,1,5.78-14.9m25.69-17.59a54.48,54.48,0,0,1,16-.35,32.66,32.66,0,0,1,8.48,2.11m14.36,9.76a38.24,38.24,0,0,1,5.08,7.12s10.19,16.21,22.31,17m-44.27-.56-2.31,13-24-4.13,2.32-13,24,4.13m0,0-2.31,13-24-4.13,2.32-13,24,4.13-2.31,13-24-4.13,2.32-13,24,4.13" transform="translate(4.15 -0.49)"></path><path class="cls-3" d="M12.72,796.31a3.55,3.55,0,1,1-4.1,2.88,3.54,3.54,0,0,1,4.1-2.88" transform="translate(4.15 -0.49)"></path><path class="cls-14" d="M12.72,796.31a3.55,3.55,0,1,1-4.1,2.88,3.54,3.54,0,0,1,4.1-2.88" transform="translate(4.15 -0.49)"></path><path class="cls-7" d="M12.41,798.08a1.75,1.75,0,1,1-2,1.42,1.75,1.75,0,0,1,2-1.42m0,0a1.75,1.75,0,1,1-2,1.42,1.75,1.75,0,0,1,2-1.42,1.75,1.75,0,1,1-2,1.42,1.75,1.75,0,0,1,2-1.42" transform="translate(4.15 -0.49)"></path><path class="cls-3" d="M61.27,804.8a3.54,3.54,0,1,1-4.1,2.88,3.54,3.54,0,0,1,4.1-2.88" transform="translate(4.15 -0.49)"></path><path class="cls-14" d="M61.27,804.8a3.54,3.54,0,1,1-4.1,2.88,3.54,3.54,0,0,1,4.1-2.88" transform="translate(4.15 -0.49)"></path><path class="cls-7" d="M63,806.59a3.46,3.46,0,0,1,2.86,4,3.51,3.51,0,0,1-4.07,2.81,3.46,3.46,0,0,1-2.86-4A3.51,3.51,0,0,1,63,806.59m0,0a3.46,3.46,0,0,1,2.86,4,3.51,3.51,0,0,1-4.07,2.81,3.46,3.46,0,0,1-2.86-4A3.51,3.51,0,0,1,63,806.59a3.46,3.46,0,0,1,2.86,4,3.51,3.51,0,0,1-4.07,2.81,3.46,3.46,0,0,1-2.86-4A3.51,3.51,0,0,1,63,806.59" transform="translate(4.15 -0.49)"></path><line class="cls-34" x1="109.13" y1="817.08" x2="309.22" y2="851.22"></line><path class="cls-65" d="M350.67,838.89a67,67,0,0,1,25.14-23.18" transform="translate(4.15 -0.49)"></path><path class="cls-66" d="M387.94,941.44a66.34,66.34,0,0,1-29-18.3" transform="translate(4.15 -0.49)"></path><path class="cls-7" d="M340.69,871.57A66.24,66.24,0,0,1,342,860.13m44.34-49a74.45,74.45,0,0,1,11.16-2.86,70.8,70.8,0,0,1,16.87-.93m32,10.18a69.29,69.29,0,0,1,13.21,10.54s1.58,2.09,10.2,2.67m21.34-1c3.21-.38,6.73-.88,10.6-1.5,0,0,3-1.33,4.17,3.53l4.34,23.76.95,5.22,4.34,23.77c.63,5-2.67,4.74-2.67,4.74-3.84.73-7.31,1.46-10.44,2.2m-20.36,6.35c-7.91,3.49-8.64,6-8.64,6a68.05,68.05,0,0,1-8.69,14.4m-26.39,20.45a70.59,70.59,0,0,1-16.1,4.87,75.63,75.63,0,0,1-11.5,1.13M351.91,914a65.7,65.7,0,0,1-5.3-10.25m28.95-4.54a52.92,52.92,0,0,0,9.92,13.57m29.83,14.5a55.42,55.42,0,0,0,16.82-.41,52.47,52.47,0,0,0,21.48-9,3.67,3.67,0,0,0,.52-.44c.74-.74,3.18-3.14,6.44-6m14-10.66a21.67,21.67,0,0,1,8.16-3.21M369.26,866a54.41,54.41,0,0,1,4.68-16.19m22.77-24.24a52.92,52.92,0,0,1,40.87-3.93s3.67,1.75,8.74,3.79m18.13,5.74c3.91.73,7.31.81,9.38-.26" transform="translate(4.15 -0.49)"></path><path class="cls-67" d="M435.72,926.08s27.33-25.53,38-23.72" transform="translate(4.15 -0.49)"></path><line class="cls-39" x1="450.48" y1="887.58" x2="341.95" y2="904.62"></line><line class="cls-68" x1="351.53" y1="869.76" x2="459.32" y2="848.6"></line><path class="cls-7" d="M491.12,871.34l1.72,9.43-15.5,2.44m-155,24.34L306.79,910l-1.4-7.66M302.59,887l-1.4-7.67,15.4-3m154-30.23,15.4-3,1.72,9.44" transform="translate(4.15 -0.49)"></path><line class="cls-40" x1="438.22" y1="925.88" x2="431.76" y2="890.52"></line><path class="cls-11" d="M423.55,853.45,422,845.09m-3.08-16.73L417.39,820s4.52,2.27,11,4.78m23,6.31a30,30,0,0,0,11.88-.6" transform="translate(4.15 -0.49)"></path><path class="cls-7" d="M408.78,894.64s11.35,9,21.36,5.37l16-4.56m32-9.13,16-4.56,22.23,6.71M402.46,860s4.4-9.72,18.17-12.15l16.61-1.23m33.22-2.46,16.6-1.24,18.45-14m-20.18,68.58-2.59-14.22m-6.91-37.91-2.49-13.68m30.55,60.26-1.35-7.4M494,837.63l-1.41-7.71" transform="translate(4.15 -0.49)"></path><line class="cls-30" x1="160.8" y1="935.14" x2="278.01" y2="915.67"></line><line class="cls-31" x1="255.88" y1="888.85" x2="139.07" y2="910.55"></line><path class="cls-7" d="M290.61,913.37l16.74-2.78L306,903m-2.78-15.27-1.39-7.63-16.69,3.09m-166.87,31-16.69,3.09L106.42,944l16.74-2.78" transform="translate(4.15 -0.49)"></path><line class="cls-32" x1="5.27" y1="962.06" x2="110.57" y2="943.49"></line><line class="cls-33" x1="0.3" y1="934.8" x2="105.69" y2="916.75"></line><path class="cls-7" d="M-3.42,949.64a44.14,44.14,0,0,0,5.85,14.87M28.2,982a54.36,54.36,0,0,0,16,.27,32.58,32.58,0,0,0,8.47-2.14M67,970.31a39.14,39.14,0,0,0,5-7.14s10.11-16.26,22.23-17m-97.7,3.52a44.21,44.21,0,0,1,.22-15.93m18-25.25a54.15,54.15,0,0,1,14.9-5.71,32.69,32.69,0,0,1,8.72-.89m16.89,4.33a39.28,39.28,0,0,1,7.24,5s15.23,11.79,26.87,8.4M47.67,934,50,947l-24,4.23-2.36-13,24-4.23m0,0L50,947l-24,4.23-2.36-13,24-4.23L50,947l-24,4.23-2.36-13,24-4.23" transform="translate(4.15 -0.49)"></path><path class="cls-3" d="M10.59,944a3.55,3.55,0,1,1-2.86,4.12A3.55,3.55,0,0,1,10.59,944" transform="translate(4.15 -0.49)"></path><path class="cls-14" d="M10.59,944a3.55,3.55,0,1,1-2.86,4.12A3.55,3.55,0,0,1,10.59,944" transform="translate(4.15 -0.49)"></path><path class="cls-7" d="M10.91,945.8a1.75,1.75,0,1,1-1.41,2,1.75,1.75,0,0,1,1.41-2m0,0a1.75,1.75,0,1,1-1.41,2,1.75,1.75,0,0,1,1.41-2,1.75,1.75,0,1,1-1.41,2,1.75,1.75,0,0,1,1.41-2" transform="translate(4.15 -0.49)"></path><path class="cls-3" d="M59.11,935.34a3.55,3.55,0,1,1-2.87,4.11,3.54,3.54,0,0,1,2.87-4.11" transform="translate(4.15 -0.49)"></path><path class="cls-14" d="M59.11,935.34a3.55,3.55,0,1,1-2.87,4.11,3.54,3.54,0,0,1,2.87-4.11" transform="translate(4.15 -0.49)"></path><path class="cls-7" d="M60.88,934.07A3.5,3.5,0,0,1,65,936.72a3.3,3.3,0,0,1-2.84,3.8A3.5,3.5,0,0,1,58,937.87a3.3,3.3,0,0,1,2.84-3.8m0,0A3.5,3.5,0,0,1,65,936.72a3.3,3.3,0,0,1-2.84,3.8A3.5,3.5,0,0,1,58,937.87a3.3,3.3,0,0,1,2.84-3.8A3.5,3.5,0,0,1,65,936.72a3.3,3.3,0,0,1-2.84,3.8A3.5,3.5,0,0,1,58,937.87a3.3,3.3,0,0,1,2.84-3.8" transform="translate(4.15 -0.49)"></path><line class="cls-69" x1="108.23" y1="929.94" x2="307.96" y2="896.34"></line><path class="cls-2" d="M444.5,792.8c30,6.31,51.16,33,51.25,65.41a67.57,67.57,0,0,1-29.29,56.08s-6.78,3.43-7.19,40.37c0,0,.77,3.12-4.08,3.39l-23.52.06-5.16,0-23.51.06c-4.86-.25-4.1-3.37-4.1-3.37-.6-37-7.38-40.33-7.38-40.33a67.55,67.55,0,0,1-29.58-55.93c-.08-32.41,20.77-59.16,50.74-65.64m-.46,28.54c-21.59,6.6-36,26-35.93,49.47a51.08,51.08,0,0,0,5.07,22.15,3,3,0,0,0,.33.58c1.74,2.49,15,21.8,14.32,30.89m49.12-103.39A52.17,52.17,0,0,1,482,870.66a51.22,51.22,0,0,1-5.69,23.65S458.72,919,461.37,927.46m-84.95-53s19.93,30.61,16.42,40.52m54.84,22-37.32.1,2.95-183.43,30.33-.08,4,183.41Zm-71.26-64.12,35-.09" transform="translate(4.15 -0.49)"></path><path class="cls-70" d="M450.78,876.86l30.46-.08s-18,24.72-16.22,39.52" transform="translate(4.15 -0.49)"></path><path class="cls-2" d="M412.25,852.76s-10.08,9.54-8.34,20l6.56,65.9-9.71,20.6m44.32-106.57s8.23,6,8.26,19.94l-6.07,65.93,9.93,20.54m-59.74-31.83,13.47,0m35.9-.1,12.95,0m-60.19,19.33,7,0m44.4-.13,7.31,0m-17.79-398.4-25.32.07-1.41,202.7,28.93-.08-2.2-202.69ZM414.94,441.51l.26,106.4m25.56-106.48-.24,106.41m-13-108.51s-35.45-1-37.57,40.91c0,0-1.67,17.88,13.11,30.64,0,0,13.3,12.76,12.11,24.77m12.35-96.32S463,438.17,465.28,480c0,0,1.76,17.87-13,30.71,0,0-13.25,12.84-12,24.83m-6.58-43.44-12.29,0-.06-24.27,12.29,0,.06,24.27Z" transform="translate(4.15 -0.49)"></path><path class="cls-3" d="M431.37,452.47a3.55,3.55,0,1,1-3.56-3.54,3.56,3.56,0,0,1,3.56,3.54" transform="translate(4.15 -0.49)"></path><path class="cls-14" d="M431.37,452.47a3.55,3.55,0,1,1-3.56-3.54,3.56,3.56,0,0,1,3.56,3.54" transform="translate(4.15 -0.49)"></path><path class="cls-2" d="M447.16,470.85a19.31,19.31,0,1,1-19.36-19.26,19.31,19.31,0,0,1,19.36,19.26Z" transform="translate(4.15 -0.49)"></path><path class="cls-3" d="M431.49,501.76a3.55,3.55,0,1,1-3.56-3.54,3.55,3.55,0,0,1,3.56,3.54" transform="translate(4.15 -0.49)"></path><path class="cls-14" d="M431.49,501.76a3.55,3.55,0,1,1-3.56-3.54,3.55,3.55,0,0,1,3.56,3.54" transform="translate(4.15 -0.49)"></path><path class="cls-2" d="M447.29,505.3c0,1.93-8.6,3.49-19.27,3.5s-19.33-1.55-19.36-3.48,8.6-3.5,19.26-3.51,19.34,1.56,19.37,3.49Zm-20.17,42.95,4.08,201.69" transform="translate(4.15 -0.49)"></path><polygon class="cls-3" points="364.25 947.92 357.22 988.88 418.22 977.39 364.25 947.92"></polygon><polygon class="cls-14" points="364.25 947.92 357.22 988.88 418.22 977.39 364.25 947.92 364.25 947.92"></polygon><polygon class="cls-2" points="365.6 950.7 359.43 986.63 412.94 976.55 365.6 950.7 365.6 950.7"></polygon><polygon class="cls-3" points="295.93 938.47 336.91 931.56 305.9 877.79 295.93 938.47"></polygon><polygon class="cls-14" points="295.93 938.47 336.9 931.56 305.89 877.79 295.93 938.47 295.93 938.47"></polygon><path class="cls-2" d="M294,939.34,333.24,933l-29.72-49.63-9.54,56Zm25.17-4.09s9.79,20.22,37.38,29.13" transform="translate(4.15 -0.49)"></path><polygon class="cls-3" points="532.39 919.35 573.25 926.97 562.63 865.81 532.39 919.35"></polygon><polygon class="cls-14" points="532.39 919.35 573.25 926.97 562.63 865.81 532.39 919.35 532.39 919.35"></polygon><polygon class="cls-2" points="535.19 918.04 571.03 924.73 561.71 871.07 535.19 918.04 535.19 918.04"></polygon><polygon class="cls-3" points="521.97 987.53 515.65 946.46 461.44 976.71 521.97 987.53"></polygon><polygon class="cls-14" points="521.97 987.53 515.65 946.46 461.44 976.71 521.97 987.53 521.97 987.53"></polygon><path class="cls-2" d="M518.26,985.8l-5.84-39.3-50,28.94,55.89,10.36Zm-3.74-25.2s20.36-9.48,29.65-36.9" transform="translate(4.15 -0.49)"></path><polygon class="cls-3" points="507.56 779.66 514.21 738.63 453.32 750.7 507.56 779.66"></polygon><polygon class="cls-14" points="507.56 779.66 514.21 738.63 453.32 750.7 507.56 779.66 507.56 779.66"></polygon><polygon class="cls-2" points="506.19 776.89 512.02 740.9 458.61 751.48 506.19 776.89 506.19 776.89"></polygon><polygon class="cls-3" points="575.98 788.47 535.06 795.75 566.58 849.23 575.98 788.47"></polygon><polygon class="cls-14" points="575.98 788.47 535.06 795.75 566.58 849.23 575.98 788.47 575.98 788.47"></polygon><path class="cls-2" d="M569.66,788.62l-39.23,6.73,30.22,49.33,9-56.06Zm-25.16,4.31s-10-20.12-37.68-28.77" transform="translate(4.15 -0.49)"></path><polygon class="cls-3" points="338.62 809.82 297.57 803.34 309.89 864.18 338.62 809.82"></polygon><polygon class="cls-14" points="338.62 809.82 297.57 803.34 309.89 864.18 338.62 809.82 338.62 809.82"></polygon><polygon class="cls-2" points="335.87 811.2 299.85 805.52 310.66 858.9 335.87 811.2 335.87 811.2"></polygon><polygon class="cls-3" points="347.15 741.37 354.61 782.25 407.96 750.51 347.15 741.37"></polygon><polygon class="cls-14" points="347.15 741.37 354.61 782.25 407.96 750.51 347.15 741.37 347.15 741.37"></polygon><path class="cls-2" d="M342.68,744l6.89,39.21,49.2-30.44L342.68,744Zm4.42,25.15S327,779.25,318.49,807" transform="translate(4.15 -0.49)"></path></svg> 