<?xml version="1.0" encoding="UTF-8"?> <svg xmlns="http://www.w3.org/2000/svg" id="Livello_1" data-name="Livello 1" viewBox="0 0 741.33 1000.49"><defs><style>.cls-1{fill:#fff;}.cls-2{fill:#231f20;}.cls-3,.cls-4,.cls-5{fill:none;stroke-width:0.25px;}.cls-3,.cls-5{stroke:#000;}.cls-4{stroke:#231f20;}.cls-5{stroke-dasharray:5 5;}</style></defs><title>Tic glass shade</title><rect class="cls-1" y="0.49" width="741.33" height="1000"></rect><path class="cls-2" d="M270.9.37h-.62L258.05,4.78V9.53l7-2.17V30h5.86Zm15.58,16.81h3.12a7.7,7.7,0,0,1,2,.25,6.21,6.21,0,0,1,1.54.79,4.2,4.2,0,0,1,.95,1.37,6,6,0,0,1,.34,2,4.37,4.37,0,0,1-.34,1.67,2.77,2.77,0,0,1-.87,1.24,3.2,3.2,0,0,1-1.42.84,5.36,5.36,0,0,1-1.87.29,4.74,4.74,0,0,1-1.7-.29,3.9,3.9,0,0,1-1.38-.79,3.7,3.7,0,0,1-.91-1.17,3.63,3.63,0,0,1-.33-1.54h-5.87a7.75,7.75,0,0,0,.87,3.79,8.08,8.08,0,0,0,2.29,2.66,9.93,9.93,0,0,0,3.21,1.58,14,14,0,0,0,3.7.5,14.93,14.93,0,0,0,4.16-.58,9.82,9.82,0,0,0,3.33-1.71,7.77,7.77,0,0,0,2.2-2.7,8.77,8.77,0,0,0,.79-3.7,6.92,6.92,0,0,0-4.95-6.91,9.53,9.53,0,0,0,1.91-1.21,9.07,9.07,0,0,0,1.42-1.49,8.44,8.44,0,0,0,.87-1.79,7.2,7.2,0,0,0,.29-1.87,8.63,8.63,0,0,0-.75-3.67,7.38,7.38,0,0,0-2-2.62A9.78,9.78,0,0,0,293.92.54,15.59,15.59,0,0,0,289.85,0a12.63,12.63,0,0,0-3.79.58A10.74,10.74,0,0,0,283,2.2a8.27,8.27,0,0,0-2.08,2.54,7.37,7.37,0,0,0-.75,3.33H286a3.11,3.11,0,0,1,.33-1.37,2.9,2.9,0,0,1,.84-1A3.52,3.52,0,0,1,288.48,5,4.43,4.43,0,0,1,290,4.74a4.76,4.76,0,0,1,1.79.29,3.26,3.26,0,0,1,1.25.79A3.11,3.11,0,0,1,293.76,7a4.54,4.54,0,0,1,.25,1.5,4.11,4.11,0,0,1-1.08,3,4.47,4.47,0,0,1-3.33,1.13h-3.12Zm37.79-4.53a19.17,19.17,0,0,0-.75-5.74,10.07,10.07,0,0,0-2-3.91A7.61,7.61,0,0,0,318.32.75,10.63,10.63,0,0,0,314.24,0a10.76,10.76,0,0,0-4.07.75A7.49,7.49,0,0,0,307.05,3a10.07,10.07,0,0,0-2,3.91,19.17,19.17,0,0,0-.75,5.74v5.11a19.07,19.07,0,0,0,.75,5.7,11,11,0,0,0,2,4,7.59,7.59,0,0,0,3.16,2.24,10.78,10.78,0,0,0,4.08.75,10.58,10.58,0,0,0,4.07-.75,7.59,7.59,0,0,0,3.16-2.24,11,11,0,0,0,2-4,20.57,20.57,0,0,0,.71-5.7Zm-5.87,5.9a15,15,0,0,1-.29,3.33,6.17,6.17,0,0,1-.79,2.21,3,3,0,0,1-1.29,1.2,4.2,4.2,0,0,1-3.49,0,3,3,0,0,1-1.29-1.2,6.15,6.15,0,0,1-.83-2.21,18.31,18.31,0,0,1-.25-3.33V11.77a17.79,17.79,0,0,1,.25-3.28,6,6,0,0,1,.79-2.17,3.49,3.49,0,0,1,1.29-1.2,4.07,4.07,0,0,1,1.74-.34,3.86,3.86,0,0,1,1.75.34,3.31,3.31,0,0,1,1.33,1.2,6,6,0,0,1,.79,2.17,14.61,14.61,0,0,1,.29,3.28Zm15.79-1.37h3.12a7.7,7.7,0,0,1,2,.25,6.21,6.21,0,0,1,1.54.79,4.2,4.2,0,0,1,.95,1.37,6,6,0,0,1,.34,2,4.37,4.37,0,0,1-.34,1.67,2.77,2.77,0,0,1-.87,1.24,3.17,3.17,0,0,1-1.41.84,5.46,5.46,0,0,1-1.88.29,4.74,4.74,0,0,1-1.7-.29,3.9,3.9,0,0,1-1.38-.79,3.7,3.7,0,0,1-.91-1.17,3.63,3.63,0,0,1-.33-1.54h-5.87a7.75,7.75,0,0,0,.87,3.79,8.08,8.08,0,0,0,2.29,2.66,9.93,9.93,0,0,0,3.21,1.58,14,14,0,0,0,3.7.5,14.93,14.93,0,0,0,4.16-.58,9.82,9.82,0,0,0,3.33-1.71,7.77,7.77,0,0,0,2.2-2.7,8.77,8.77,0,0,0,.79-3.7,6.92,6.92,0,0,0-5-6.91A9.9,9.9,0,0,0,345,13.6a9.44,9.44,0,0,0,1.41-1.49,8,8,0,0,0,.87-1.79,7.2,7.2,0,0,0,.29-1.87,8.78,8.78,0,0,0-.74-3.67,7.52,7.52,0,0,0-2-2.62A9.83,9.83,0,0,0,341.64.54,15.73,15.73,0,0,0,337.56,0a12.63,12.63,0,0,0-3.79.58,10.74,10.74,0,0,0-3.08,1.62,8.41,8.41,0,0,0-2.08,2.54,7.5,7.5,0,0,0-.74,3.33h5.86a3.11,3.11,0,0,1,.33-1.37,2.9,2.9,0,0,1,.84-1A3.52,3.52,0,0,1,336.19,5a4.43,4.43,0,0,1,1.49-.25,4.76,4.76,0,0,1,1.79.29,3.26,3.26,0,0,1,1.25.79A3.11,3.11,0,0,1,341.47,7a4.29,4.29,0,0,1,.25,1.5,4.11,4.11,0,0,1-1.08,3,4.47,4.47,0,0,1-3.33,1.13h-3.12ZM363.74,15H352.3v4.7h11.44Zm8.6,10.4v4.91h.46a16.93,16.93,0,0,0,6.61-1.17,12.43,12.43,0,0,0,4.7-3.29,13.4,13.4,0,0,0,2.83-5.07,22.26,22.26,0,0,0,.92-6.62V12.06a15.32,15.32,0,0,0-.71-4.9,11.08,11.08,0,0,0-2-3.83A9.19,9.19,0,0,0,382,.87,9.66,9.66,0,0,0,377.87,0a10,10,0,0,0-4.12.83,9.29,9.29,0,0,0-3.12,2.29,9.39,9.39,0,0,0-2,3.29,11.93,11.93,0,0,0-.71,4.07,13.54,13.54,0,0,0,.54,4,9.5,9.5,0,0,0,1.66,3.12,8.48,8.48,0,0,0,2.71,2.12,8.82,8.82,0,0,0,3.74.75,6.83,6.83,0,0,0,2.91-.63,7.79,7.79,0,0,0,2.42-1.62,8.93,8.93,0,0,1-.75,3.08,5.9,5.9,0,0,1-1.75,2.24,7.82,7.82,0,0,1-2.79,1.42,15,15,0,0,1-3.87.46Zm3.78-9.86a4.12,4.12,0,0,1-1.29-1.21,4.92,4.92,0,0,1-.79-1.75,9.08,9.08,0,0,1-.25-2.16A9,9,0,0,1,374,8.32a5.32,5.32,0,0,1,.79-1.83,3.64,3.64,0,0,1,1.25-1.25,3.1,3.1,0,0,1,1.75-.5,3.87,3.87,0,0,1,1.66.38,5,5,0,0,1,1.34,1.16,6.46,6.46,0,0,1,.87,2A10.56,10.56,0,0,1,382,11v2.42a4.86,4.86,0,0,1-1.54,1.79,4.31,4.31,0,0,1-2.45.7,3.94,3.94,0,0,1-1.88-.41ZM412,12.65a19.17,19.17,0,0,0-.75-5.74,10.07,10.07,0,0,0-2-3.91A7.61,7.61,0,0,0,406,.75,10.58,10.58,0,0,0,401.94,0a10.78,10.78,0,0,0-4.08.75A7.49,7.49,0,0,0,394.74,3a10.07,10.07,0,0,0-2,3.91,19.17,19.17,0,0,0-.75,5.74v5.11a19.07,19.07,0,0,0,.75,5.7,11,11,0,0,0,2,4,7.59,7.59,0,0,0,3.16,2.24,10.78,10.78,0,0,0,4.08.75,10.58,10.58,0,0,0,4.07-.75,7.69,7.69,0,0,0,3.17-2.24,11.1,11.1,0,0,0,2-4,20.57,20.57,0,0,0,.71-5.7Zm-5.86,5.9a15,15,0,0,1-.3,3.33,6.17,6.17,0,0,1-.79,2.21,3,3,0,0,1-1.29,1.2,4.2,4.2,0,0,1-3.49,0,3,3,0,0,1-1.29-1.2,6.55,6.55,0,0,1-.83-2.21,18.31,18.31,0,0,1-.25-3.33V11.77a17.79,17.79,0,0,1,.25-3.28,6.13,6.13,0,0,1,.79-2.17,3.49,3.49,0,0,1,1.29-1.2,4.08,4.08,0,0,1,1.75-.34,3.84,3.84,0,0,1,1.74.34A3.31,3.31,0,0,1,405,6.32a6,6,0,0,1,.79,2.17,14.54,14.54,0,0,1,.3,3.28Z"></path><path class="cls-2" d="M247.88,71.39H237.44v2.08h7.94v7.65a5.23,5.23,0,0,1-.95.84,5.82,5.82,0,0,1-1.58.83,9.53,9.53,0,0,1-2.25.66,15.79,15.79,0,0,1-3,.25,8.75,8.75,0,0,1-3.82-.83,7.94,7.94,0,0,1-3-2.29A10.14,10.14,0,0,1,228.91,77a15.1,15.1,0,0,1-.67-4.71V68.69a17.17,17.17,0,0,1,.59-4.58,9.21,9.21,0,0,1,1.74-3.5,8.21,8.21,0,0,1,2.79-2.24,8.81,8.81,0,0,1,3.87-.79,10.18,10.18,0,0,1,3.41.5,7.47,7.47,0,0,1,2.41,1.45,6.86,6.86,0,0,1,1.54,2.12,8.4,8.4,0,0,1,.75,2.5h2.54a10.81,10.81,0,0,0-1-3.45,8.68,8.68,0,0,0-2.08-2.79,9.71,9.71,0,0,0-3.2-1.83,13.88,13.88,0,0,0-4.37-.67,11.94,11.94,0,0,0-4.79,1A10.25,10.25,0,0,0,228.83,59a11.87,11.87,0,0,0-2.29,4.16,17.87,17.87,0,0,0-.79,5.54V72.3a17,17,0,0,0,.87,5.62,11.7,11.7,0,0,0,2.46,4.24,10.53,10.53,0,0,0,3.74,2.71,12.06,12.06,0,0,0,4.78.95,19.52,19.52,0,0,0,4.08-.41,14.62,14.62,0,0,0,3-1,8.62,8.62,0,0,0,2-1.29,10.27,10.27,0,0,0,1.16-1.21Zm9.25-17.18h-2.46v31.2h2.46Zm23,31.2v-.25a6.33,6.33,0,0,1-.29-.92c-.09-.33-.13-.7-.21-1.08s-.09-.75-.13-1.16,0-.79,0-1.17V70.18a8,8,0,0,0-.58-3.12,6.13,6.13,0,0,0-1.67-2.24,7.11,7.11,0,0,0-2.49-1.34,10.3,10.3,0,0,0-3.25-.45,10.07,10.07,0,0,0-3.45.54A9.51,9.51,0,0,0,265.4,65a7,7,0,0,0-1.71,2.08,4.85,4.85,0,0,0-.58,2.38l2.41,0a3.65,3.65,0,0,1,.46-1.75,4.67,4.67,0,0,1,1.21-1.41,5.54,5.54,0,0,1,1.87-.92,7,7,0,0,1,2.33-.37,5.88,5.88,0,0,1,4.24,1.37,4.77,4.77,0,0,1,1.46,3.7v2.5H272.6a18.42,18.42,0,0,0-4.21.45,10,10,0,0,0-3.16,1.42A6.2,6.2,0,0,0,263.07,82a5.79,5.79,0,0,0,1.41,2,7,7,0,0,0,2.25,1.33,9.3,9.3,0,0,0,2.91.45,10.61,10.61,0,0,0,2.41-.29,11.81,11.81,0,0,0,2.08-.75,7.5,7.5,0,0,0,1.67-1.12,6.23,6.23,0,0,0,1.29-1.33c0,.58.08,1.12.16,1.71a5.71,5.71,0,0,0,.34,1.37Zm-12.28-2.08a4.94,4.94,0,0,1-1.58-.92,3.49,3.49,0,0,1-.95-1.37,3.74,3.74,0,0,1-.38-1.66,4.16,4.16,0,0,1,.54-2,4.33,4.33,0,0,1,1.58-1.54,7.63,7.63,0,0,1,2.5-1,13.46,13.46,0,0,1,3.33-.33h4.16v4.83A7.63,7.63,0,0,1,276,81a8.46,8.46,0,0,1-1.58,1.37,8.21,8.21,0,0,1-2,.92,9.14,9.14,0,0,1-2.46.33,6.14,6.14,0,0,1-2-.33Zm30.89-2a3.9,3.9,0,0,1-1.08,1.29,8.07,8.07,0,0,1-1.79.87,8.76,8.76,0,0,1-2.45.29,9.33,9.33,0,0,1-2.08-.2,6.34,6.34,0,0,1-2-.75A4.13,4.13,0,0,1,288,81.42a4.25,4.25,0,0,1-.67-2.17h-2.45a5.53,5.53,0,0,0,.58,2.46,6.14,6.14,0,0,0,1.66,2.12,8.16,8.16,0,0,0,2.66,1.45,12.43,12.43,0,0,0,3.71.54,12.06,12.06,0,0,0,3.37-.45,7.14,7.14,0,0,0,2.53-1.25A6.2,6.2,0,0,0,301,82.21a5.59,5.59,0,0,0,.54-2.5,5.25,5.25,0,0,0-.46-2.33,4.7,4.7,0,0,0-1.37-1.79,10.21,10.21,0,0,0-2.41-1.37,21.85,21.85,0,0,0-3.42-1,23.33,23.33,0,0,1-3-.87,6.78,6.78,0,0,1-1.79-1,2.16,2.16,0,0,1-.87-1.12,3.44,3.44,0,0,1-.25-1.34,3.31,3.31,0,0,1,.33-1.37,3.27,3.27,0,0,1,.92-1.25,5.57,5.57,0,0,1,1.66-.87,6.92,6.92,0,0,1,2.41-.33,7.2,7.2,0,0,1,2.42.37,5.17,5.17,0,0,1,1.78,1,4.24,4.24,0,0,1,1.13,1.46A3.86,3.86,0,0,1,299,69.6h2.41A5.94,5.94,0,0,0,300.9,67a6.28,6.28,0,0,0-1.58-2.08,7.93,7.93,0,0,0-2.58-1.37,10.46,10.46,0,0,0-3.41-.5,10.65,10.65,0,0,0-3.2.45,8.29,8.29,0,0,0-2.46,1.29,5.68,5.68,0,0,0-1.53,1.92,5,5,0,0,0-.55,2.33,5.25,5.25,0,0,0,.5,2.33,4.59,4.59,0,0,0,1.5,1.7A8.81,8.81,0,0,0,290,74.3a24.86,24.86,0,0,0,3.25.87,18.05,18.05,0,0,1,3,.92A6,6,0,0,1,298,77.21a3.94,3.94,0,0,1,.88,1.25,4.18,4.18,0,0,1,.25,1.37,3.06,3.06,0,0,1-.38,1.46Zm21,0a3.9,3.9,0,0,1-1.08,1.29,8.07,8.07,0,0,1-1.79.87,8.76,8.76,0,0,1-2.45.29,9.33,9.33,0,0,1-2.08-.2,6.34,6.34,0,0,1-2-.75A4.13,4.13,0,0,1,309,81.42a4.25,4.25,0,0,1-.67-2.17h-2.45a5.53,5.53,0,0,0,.58,2.46,6.14,6.14,0,0,0,1.66,2.12,8.16,8.16,0,0,0,2.66,1.45,12.43,12.43,0,0,0,3.71.54,12.11,12.11,0,0,0,3.37-.45,7.22,7.22,0,0,0,2.53-1.25,6.2,6.2,0,0,0,1.67-1.91,5.59,5.59,0,0,0,.54-2.5,5.25,5.25,0,0,0-.46-2.33,4.7,4.7,0,0,0-1.37-1.79,10.21,10.21,0,0,0-2.41-1.37,21.85,21.85,0,0,0-3.42-1,23.33,23.33,0,0,1-3-.87,6.78,6.78,0,0,1-1.79-1,2.16,2.16,0,0,1-.87-1.12,3.44,3.44,0,0,1-.25-1.34,3.31,3.31,0,0,1,.33-1.37,3.27,3.27,0,0,1,.92-1.25,5.57,5.57,0,0,1,1.66-.87,6.88,6.88,0,0,1,2.41-.33,7.1,7.1,0,0,1,2.41.37,5.13,5.13,0,0,1,1.79,1,4.24,4.24,0,0,1,1.13,1.46,3.86,3.86,0,0,1,.37,1.66h2.41a5.94,5.94,0,0,0-.54-2.62,6.28,6.28,0,0,0-1.58-2.08,7.93,7.93,0,0,0-2.58-1.37,10.5,10.5,0,0,0-3.41-.5,10.65,10.65,0,0,0-3.2.45,8.29,8.29,0,0,0-2.46,1.29,5.68,5.68,0,0,0-1.53,1.92,5,5,0,0,0-.55,2.33,5.25,5.25,0,0,0,.5,2.33,4.59,4.59,0,0,0,1.5,1.7A8.81,8.81,0,0,0,311,74.3a24.86,24.86,0,0,0,3.25.87,18.05,18.05,0,0,1,3,.92,6,6,0,0,1,1.79,1.12,3.94,3.94,0,0,1,.88,1.25,4.18,4.18,0,0,1,.25,1.37,3.06,3.06,0,0,1-.38,1.46Zm31.13,0a3.9,3.9,0,0,1-1.08,1.29,8.07,8.07,0,0,1-1.79.87,8.76,8.76,0,0,1-2.45.29,9.33,9.33,0,0,1-2.08-.2,6.34,6.34,0,0,1-2-.75,4.25,4.25,0,0,1-1.46-1.37,4.35,4.35,0,0,1-.66-2.17H337a5.54,5.54,0,0,0,.59,2.46,6.14,6.14,0,0,0,1.66,2.12,8.16,8.16,0,0,0,2.66,1.45,12.38,12.38,0,0,0,3.71.54,12.11,12.11,0,0,0,3.37-.45,7.22,7.22,0,0,0,2.53-1.25,6.2,6.2,0,0,0,1.67-1.91,5.59,5.59,0,0,0,.54-2.5,5.25,5.25,0,0,0-.46-2.33,4.7,4.7,0,0,0-1.37-1.79,10.09,10.09,0,0,0-2.42-1.37,21.7,21.7,0,0,0-3.41-1,23.33,23.33,0,0,1-3-.87,6.62,6.62,0,0,1-1.79-1,2.16,2.16,0,0,1-.87-1.12,3.44,3.44,0,0,1-.25-1.34,3.31,3.31,0,0,1,.33-1.37,3.24,3.24,0,0,1,.91-1.25,5.76,5.76,0,0,1,1.67-.87,6.85,6.85,0,0,1,2.41-.33,7.1,7.1,0,0,1,2.41.37,5.22,5.22,0,0,1,1.79,1,4.24,4.24,0,0,1,1.13,1.46,3.86,3.86,0,0,1,.37,1.66h2.41a5.94,5.94,0,0,0-.54-2.62,6.28,6.28,0,0,0-1.58-2.08,8,8,0,0,0-2.58-1.37,11.74,11.74,0,0,0-6.61-.05,8.29,8.29,0,0,0-2.46,1.29,5.84,5.84,0,0,0-1.54,1.92,5.11,5.11,0,0,0-.54,2.33,5.25,5.25,0,0,0,.5,2.33,4.42,4.42,0,0,0,1.5,1.7,8.81,8.81,0,0,0,2.41,1.25,24.86,24.86,0,0,0,3.25.87,18.36,18.36,0,0,1,3,.92,6,6,0,0,1,1.79,1.12,3.94,3.94,0,0,1,.88,1.25,4.16,4.16,0,0,1,.24,1.37,3,3,0,0,1-.37,1.46Zm10.63-27.08h-2.41v31.2h2.41V70.35a8.77,8.77,0,0,1,1-1.91,6.74,6.74,0,0,1,1.37-1.71,6.94,6.94,0,0,1,1.87-1.16,6,6,0,0,1,2.37-.42,7.17,7.17,0,0,1,2.17.29,3.63,3.63,0,0,1,1.62,1,4.87,4.87,0,0,1,1,1.83,9.39,9.39,0,0,1,.37,2.87V85.41h2.42V71.1a12.13,12.13,0,0,0-.5-3.7,6.81,6.81,0,0,0-1.38-2.5,5.2,5.2,0,0,0-2.2-1.42,8.2,8.2,0,0,0-2.95-.45,7.39,7.39,0,0,0-2.21.29,7.81,7.81,0,0,0-2,.83,8.39,8.39,0,0,0-1.66,1.29,8.61,8.61,0,0,0-1.33,1.71Zm36.88,31.2v-.25a6.33,6.33,0,0,1-.29-.92c-.09-.33-.13-.7-.21-1.08s-.08-.75-.13-1.16,0-.79,0-1.17V70.18a8,8,0,0,0-.58-3.12,6.22,6.22,0,0,0-1.66-2.24,7.24,7.24,0,0,0-2.5-1.34,10.3,10.3,0,0,0-3.25-.45,10.07,10.07,0,0,0-3.45.54A9.51,9.51,0,0,0,383.68,65,7,7,0,0,0,382,67.1a4.85,4.85,0,0,0-.58,2.38l2.41,0a3.65,3.65,0,0,1,.46-1.75,4.67,4.67,0,0,1,1.21-1.41,5.54,5.54,0,0,1,1.87-.92,7,7,0,0,1,2.33-.37,5.88,5.88,0,0,1,4.24,1.37,4.77,4.77,0,0,1,1.46,3.7v2.5h-4.49a18.49,18.49,0,0,0-4.21.45,10,10,0,0,0-3.16,1.42A6.2,6.2,0,0,0,381.35,82a5.79,5.79,0,0,0,1.41,2A7,7,0,0,0,385,85.37a9.3,9.3,0,0,0,2.91.45,10.77,10.77,0,0,0,2.42-.29,12.42,12.42,0,0,0,2.08-.75,7.68,7.68,0,0,0,1.66-1.12,6.23,6.23,0,0,0,1.29-1.33c0,.58.08,1.12.17,1.71a5.29,5.29,0,0,0,.33,1.37Zm-12.27-2.08a4.88,4.88,0,0,1-1.59-.92,3.6,3.6,0,0,1-.95-1.37,3.74,3.74,0,0,1-.38-1.66,4.16,4.16,0,0,1,.54-2,4.33,4.33,0,0,1,1.58-1.54,7.63,7.63,0,0,1,2.5-1,13.46,13.46,0,0,1,3.33-.33h4.16v4.83a7.63,7.63,0,0,1-1.08,1.7,8.46,8.46,0,0,1-1.58,1.37,8.21,8.21,0,0,1-2,.92,9.14,9.14,0,0,1-2.46.33,6,6,0,0,1-2-.33Zm17.11-8.7a15.41,15.41,0,0,0,.59,4.54,10.88,10.88,0,0,0,1.66,3.53A8.19,8.19,0,0,0,408.2,85a7.67,7.67,0,0,0,3.54.83,8.8,8.8,0,0,0,4.07-.87,8.22,8.22,0,0,0,2.79-2.45l.09,2.91H421V54.21h-2.41V66.52a8.29,8.29,0,0,0-2.79-2.58,8.11,8.11,0,0,0-4-.91,7.53,7.53,0,0,0-3.54.79,7.89,7.89,0,0,0-2.7,2.24,11,11,0,0,0-1.66,3.54,15.78,15.78,0,0,0-.59,4.62Zm2.46-.41a16.26,16.26,0,0,1,.37-3.58,9,9,0,0,1,1.17-2.87,5.49,5.49,0,0,1,2-1.91,5.37,5.37,0,0,1,2.91-.71,7.84,7.84,0,0,1,2.33.33,6.6,6.6,0,0,1,1.79,1,5.73,5.73,0,0,1,1.29,1.37,9.29,9.29,0,0,1,.91,1.62V79.75a8.9,8.9,0,0,1-1,1.58,5.26,5.26,0,0,1-1.33,1.25,6.53,6.53,0,0,1-1.79.83,7.82,7.82,0,0,1-2.24.29,5.7,5.7,0,0,1-2.87-.7,5.6,5.6,0,0,1-2-1.92,8.94,8.94,0,0,1-1.17-2.87,16,16,0,0,1-.37-3.58Zm32.8,11.27a8.44,8.44,0,0,0,3.83-2,11.57,11.57,0,0,0,1.29-1.54l-1.54-1.12A7.22,7.22,0,0,1,439.42,83a7.63,7.63,0,0,1-3.45.7,6.93,6.93,0,0,1-3.08-.66,7.42,7.42,0,0,1-2.37-1.87A8.28,8.28,0,0,1,429,78.46a10.37,10.37,0,0,1-.54-3.41v-.46h15.68v-1.5a14.06,14.06,0,0,0-.58-4,8.86,8.86,0,0,0-1.66-3.2,8,8,0,0,0-2.75-2.08,8.64,8.64,0,0,0-3.7-.75,8.17,8.17,0,0,0-3.58.79,9.82,9.82,0,0,0-3,2.24,10.24,10.24,0,0,0-2.08,3.5,13.41,13.41,0,0,0-.75,4.62v.87a12.12,12.12,0,0,0,.75,4.33,9.64,9.64,0,0,0,2,3.41,8.9,8.9,0,0,0,3.12,2.2,9.51,9.51,0,0,0,4,.83,10.3,10.3,0,0,0,2.66-.33Zm-.42-19.8a6.81,6.81,0,0,1,2,1.58,7.49,7.49,0,0,1,1.16,2.29,9.67,9.67,0,0,1,.46,2.7v.25H428.52a11.5,11.5,0,0,1,.79-3,7.71,7.71,0,0,1,1.46-2.33,7.07,7.07,0,0,1,2.08-1.54,6.49,6.49,0,0,1,2.58-.5,6.2,6.2,0,0,1,2.7.58Z"></path><line class="cls-3" x1="253.85" y1="199.55" x2="414.6" y2="199.55"></line><line class="cls-3" x1="253.85" y1="594.05" x2="414.6" y2="594.05"></line><line class="cls-3" x1="462.79" y1="231.52" x2="462.79" y2="539.58"></line><path d="M310.92,167.09l-1.63,3.29h2l1.2-2.43a8.29,8.29,0,0,0,3.09.57,7.92,7.92,0,0,0,4.15-1.1,7.77,7.77,0,0,0,2.83-3.19,10.51,10.51,0,0,0,1-4.62c0-3.45-1.06-6-3.15-7.71l1.66-3.32h-2L318.9,151a7.89,7.89,0,0,0-3.33-.7,7.59,7.59,0,0,0-4.15,1.13,7.45,7.45,0,0,0-2.82,3.19,10.29,10.29,0,0,0-1,4.62c0,3.62,1.13,6.21,3.32,7.84ZM312,154.53a4.57,4.57,0,0,1,5.74-1.23l-5.54,11.26a7.21,7.21,0,0,1-1.57-4.95,8.12,8.12,0,0,1,1.37-5.08Zm8.57,5a7.78,7.78,0,0,1-1.33,4.79,4.43,4.43,0,0,1-3.62,1.76,4.64,4.64,0,0,1-2-.4l5.51-11.16a7.54,7.54,0,0,1,1.4,4.75Zm21.84,6.22H330.54l6.31-6.88c3-3.19,4.46-6,4.46-8.31a5.94,5.94,0,0,0-1.9-4.58,7.45,7.45,0,0,0-5.22-1.73,7.65,7.65,0,0,0-5.61,2,6.84,6.84,0,0,0-2.13,5.25h3A4.91,4.91,0,0,1,330.7,148a4.75,4.75,0,0,1,3.49-1.26,4,4,0,0,1,3,1.19,4.22,4.22,0,0,1,1.1,3,5.79,5.79,0,0,1-.66,2.66,18.86,18.86,0,0,1-2.53,3.35L326.92,166v2.16H342.4Zm18.69,0H349.22l6.32-6.88c3-3.19,4.45-6,4.45-8.31A5.94,5.94,0,0,0,358.1,146a7.48,7.48,0,0,0-5.22-1.73,7.69,7.69,0,0,0-5.62,2,6.83,6.83,0,0,0-2.12,5.25h3a4.92,4.92,0,0,1,1.23-3.55,4.72,4.72,0,0,1,3.49-1.26,4,4,0,0,1,3,1.19,4.26,4.26,0,0,1,1.1,3,5.8,5.8,0,0,1-.67,2.66,18.23,18.23,0,0,1-2.52,3.35L345.6,166v2.16h15.49Z"></path><path d="M310.92,655.1l-1.63,3.29h2l1.2-2.43a8.29,8.29,0,0,0,3.09.56,7.38,7.38,0,0,0,7-4.28,10.54,10.54,0,0,0,1-4.62c0-3.46-1.06-6-3.15-7.71l1.66-3.32h-2L318.9,639a8,8,0,0,0-3.33-.7,7.67,7.67,0,0,0-4.15,1.13,7.56,7.56,0,0,0-2.82,3.19,10.35,10.35,0,0,0-1,4.62c0,3.63,1.13,6.22,3.32,7.85ZM312,642.53a4.31,4.31,0,0,1,3.58-1.76,4.36,4.36,0,0,1,2.16.54l-5.54,11.26a7.23,7.23,0,0,1-1.57-5,8.15,8.15,0,0,1,1.37-5.09Zm8.57,5a7.74,7.74,0,0,1-1.33,4.78,4.42,4.42,0,0,1-3.62,1.77,4.8,4.8,0,0,1-2-.4l5.51-11.17a7.56,7.56,0,0,1,1.4,4.75Zm21.84,6.21H330.54l6.31-6.88c3-3.19,4.46-6,4.46-8.3a6,6,0,0,0-1.9-4.59,7.49,7.49,0,0,0-5.22-1.73,7.65,7.65,0,0,0-5.61,2,6.84,6.84,0,0,0-2.13,5.25h3A4.91,4.91,0,0,1,330.7,636a4.72,4.72,0,0,1,3.49-1.27,3.94,3.94,0,0,1,3,1.2,4.18,4.18,0,0,1,1.1,3,5.75,5.75,0,0,1-.66,2.66,18.51,18.51,0,0,1-2.53,3.36l-8.17,9.1v2.16H342.4ZM358,634a8.08,8.08,0,0,0-10.07,0,6.14,6.14,0,0,0-1.93,4.72,5.51,5.51,0,0,0,.93,3.16,6.46,6.46,0,0,0,2.46,2.16,6.3,6.3,0,0,0-2.89,2.33,6,6,0,0,0-1,3.45,6.23,6.23,0,0,0,2,4.89,9.11,9.11,0,0,0,10.93,0,6.2,6.2,0,0,0,2.06-4.89,5.79,5.79,0,0,0-1.1-3.45,6.58,6.58,0,0,0-2.92-2.33,6.4,6.4,0,0,0,2.52-2.16,5.37,5.37,0,0,0,.93-3.16A6,6,0,0,0,358,634Zm-1.73,18.91a5.25,5.25,0,0,1-6.61,0,4.15,4.15,0,0,1-1.2-3.15,4.42,4.42,0,0,1,1.23-3.26,4.31,4.31,0,0,1,3.26-1.23,4.58,4.58,0,0,1,3.29,1.26,4.37,4.37,0,0,1,1.26,3.23,4.17,4.17,0,0,1-1.23,3.15Zm-.47-17.08a4.45,4.45,0,0,1,0,5.88,3.75,3.75,0,0,1-2.86,1.1,3.87,3.87,0,0,1-2.89-1.1,4,4,0,0,1-1.07-2.92,4,4,0,0,1,1.1-3,3.84,3.84,0,0,1,2.86-1.1,3.76,3.76,0,0,1,2.82,1.13Z"></path><path d="M513.31,396.1v3.19l16.38,10.57h1.76V399.09h5.48v-3h-5.48v-3.29H529v3.29Zm4.75,3.36-.63-.37H529v7.38Zm-3.33-21.78a8.08,8.08,0,0,0,0,10.07,6.14,6.14,0,0,0,4.72,1.93,5.51,5.51,0,0,0,3.16-.93,6.46,6.46,0,0,0,2.16-2.46,6.3,6.3,0,0,0,2.33,2.89,6,6,0,0,0,3.45,1,6.23,6.23,0,0,0,4.89-2,9.11,9.11,0,0,0,0-10.93,6.2,6.2,0,0,0-4.89-2.06,5.79,5.79,0,0,0-3.45,1.1,6.53,6.53,0,0,0-2.33,2.92,6.4,6.4,0,0,0-2.16-2.52,5.37,5.37,0,0,0-3.16-.93,6,6,0,0,0-4.72,1.92Zm18.91,1.73a5.25,5.25,0,0,1,0,6.61,4.15,4.15,0,0,1-3.15,1.2,4.42,4.42,0,0,1-3.26-1.23,4.31,4.31,0,0,1-1.23-3.26,4.58,4.58,0,0,1,1.26-3.29,4.37,4.37,0,0,1,3.23-1.26,4.17,4.17,0,0,1,3.15,1.23Zm-17.08.47a4.45,4.45,0,0,1,5.88,0,3.75,3.75,0,0,1,1.1,2.86,3.87,3.87,0,0,1-1.1,2.89,4,4,0,0,1-2.92,1.07,4,4,0,0,1-3-1.1,3.84,3.84,0,0,1-1.1-2.86,3.76,3.76,0,0,1,1.13-2.82Z"></path><path d="M214.66,737.28a10.62,10.62,0,0,0,1.93,6.55,6.51,6.51,0,0,0,10,.29l.14,1.87h2.75V721.06h-3v9.14a6.53,6.53,0,0,0-9.9.37,10.41,10.41,0,0,0-1.93,6.51Zm4.26-4.92a4,4,0,0,1,3.42-1.69,4.42,4.42,0,0,1,4.15,2.49v8a4.37,4.37,0,0,1-4.18,2.56,4,4,0,0,1-3.39-1.7,7.65,7.65,0,0,1-1.23-4.65,8.54,8.54,0,0,1,1.23-5Zm18.52-3.92h-3V746h3ZM234.61,725a1.71,1.71,0,0,0,1.33.5,1.66,1.66,0,0,0,1.33-.5,1.76,1.76,0,0,0,.47-1.23,1.81,1.81,0,0,0-.47-1.22,1.66,1.66,0,0,0-1.33-.5,1.71,1.71,0,0,0-1.33.5,1.77,1.77,0,0,0-.43,1.22,1.73,1.73,0,0,0,.43,1.23Zm12.1,21V730.77h3.76v-2.33h-3.76v-1.86a3.42,3.42,0,0,1,.8-2.43,3,3,0,0,1,2.26-.86,8.75,8.75,0,0,1,1.63.13l.16-2.42a8.7,8.7,0,0,0-2.06-.27,5.66,5.66,0,0,0-4.28,1.53,6,6,0,0,0-1.5,4.39v1.79h-2.79v2.33h2.79V746Zm11.54,0V730.77H262v-2.33h-3.75v-1.86a3.42,3.42,0,0,1,.8-2.43,3,3,0,0,1,2.26-.86,8.64,8.64,0,0,1,1.62.13l.17-2.42a8.77,8.77,0,0,0-2.06-.27,5.7,5.7,0,0,0-4.29,1.53,6.08,6.08,0,0,0-1.49,4.39v1.79h-2.79v2.33h2.79V746Zm17.95,0h2.86V728.44h-3V741.2c-.77,1.7-2.3,2.56-4.59,2.56s-3.22-1.33-3.22-4V728.44h-3v11.43a7.11,7.11,0,0,0,1.5,4.82,5.38,5.38,0,0,0,4.29,1.63,6.34,6.34,0,0,0,5.11-2.06Zm16.62-2.83a5.52,5.52,0,0,1-5.71-.2,3.11,3.11,0,0,1-1.2-2.36h-3a5.08,5.08,0,0,0,.9,2.89,6.13,6.13,0,0,0,2.56,2.1,9.34,9.34,0,0,0,3.72.73,7.83,7.83,0,0,0,4.88-1.43,4.43,4.43,0,0,0,1.9-3.76,4,4,0,0,0-.7-2.42,5.28,5.28,0,0,0-2.06-1.66,15.9,15.9,0,0,0-3.65-1.2,10.5,10.5,0,0,1-3.1-1.06,1.87,1.87,0,0,1-.86-1.63,2.31,2.31,0,0,1,.93-1.9,4.15,4.15,0,0,1,2.56-.69,3.93,3.93,0,0,1,2.63.89,2.75,2.75,0,0,1,1.06,2.13h3a5,5,0,0,0-1.86-4,7.38,7.38,0,0,0-4.85-1.53,7.07,7.07,0,0,0-4.65,1.49,4.56,4.56,0,0,0-1.83,3.66,3.86,3.86,0,0,0,.63,2.23,5.21,5.21,0,0,0,2,1.62,14.69,14.69,0,0,0,3.58,1.17,9.63,9.63,0,0,1,3.23,1.16,2.26,2.26,0,0,1,.89,1.89,2.07,2.07,0,0,1-1,1.83Zm7.16-5.91a9.45,9.45,0,0,0,2.22,6.58,7.35,7.35,0,0,0,5.79,2.49,7.5,7.5,0,0,0,7-4.32,10.8,10.8,0,0,0,1-4.59v-.2a9.62,9.62,0,0,0-2.19-6.61,8.06,8.06,0,0,0-9.94-1.36,7.21,7.21,0,0,0-2.82,3.15,10.19,10.19,0,0,0-1,4.66Zm4.38-4.92a4.34,4.34,0,0,1,3.59-1.76,4.4,4.4,0,0,1,3.66,1.79,7.61,7.61,0,0,1,1.36,4.69,8.13,8.13,0,0,1-1.36,5,4.27,4.27,0,0,1-3.62,1.8,4.36,4.36,0,0,1-3.63-1.76,7.68,7.68,0,0,1-1.36-4.69,8.37,8.37,0,0,1,1.36-5.08Zm23.87-4a2.92,2.92,0,0,0-1.33-.23,4.65,4.65,0,0,0-4.18,2.36l-.07-2h-2.92V746h3V733.52a3.92,3.92,0,0,1,4-2.52,10,10,0,0,1,1.49.1Zm16.66,14.59-1.83-1.43a7.18,7.18,0,0,1-1.93,1.73,5.3,5.3,0,0,1-2.69.63,4.76,4.76,0,0,1-3.69-1.6,6.08,6.08,0,0,1-1.53-4.18h11.9v-1.27c0-2.79-.63-4.95-1.89-6.44a6.64,6.64,0,0,0-5.35-2.26,7,7,0,0,0-3.86,1.16,7.72,7.72,0,0,0-2.79,3.22,10.63,10.63,0,0,0-1,4.66v.56a8.7,8.7,0,0,0,2.23,6.25,7.7,7.7,0,0,0,5.82,2.36,7.37,7.37,0,0,0,6.61-3.39Zm-4-11.1a5.67,5.67,0,0,1,1.23,3.56v.23h-8.78a6.45,6.45,0,0,1,1.53-3.72,3.89,3.89,0,0,1,3-1.33,3.79,3.79,0,0,1,3,1.26Zm19.25-3.39h-3V746h3ZM357.3,725a1.7,1.7,0,0,0,1.33.5A1.67,1.67,0,0,0,360,725a1.8,1.8,0,0,0,.46-1.23,1.85,1.85,0,0,0-.46-1.22,1.67,1.67,0,0,0-1.33-.5,1.7,1.7,0,0,0-1.33.5,1.77,1.77,0,0,0-.43,1.22,1.73,1.73,0,0,0,.43,1.23Zm7.61,3.46V746h3v-12.5a5.13,5.13,0,0,1,1.72-2.06,4.4,4.4,0,0,1,2.56-.76,3.6,3.6,0,0,1,2.66.89,4.27,4.27,0,0,1,.86,2.83V746h3v-11.6c0-4.19-1.9-6.28-5.62-6.28a6.36,6.36,0,0,0-5.25,2.52l-.1-2.19Zm27.93,0h-3.06L396.13,746h2.29l6.31-17.55h-3.09l-4.35,13.49Zm28.68,14.49-1.82-1.43a7.33,7.33,0,0,1-1.93,1.73,5.3,5.3,0,0,1-2.69.63,4.73,4.73,0,0,1-3.69-1.6,6,6,0,0,1-1.53-4.18h11.9v-1.27c0-2.79-.63-4.95-1.9-6.44a6.62,6.62,0,0,0-5.35-2.26,7,7,0,0,0-3.85,1.16,7.58,7.58,0,0,0-2.79,3.22,10.49,10.49,0,0,0-1,4.66v.56A8.65,8.65,0,0,0,409.1,744a7.68,7.68,0,0,0,5.81,2.36,7.36,7.36,0,0,0,6.61-3.39Zm-4-11.1a5.55,5.55,0,0,1,1.23,3.56v.23H410a6.45,6.45,0,0,1,1.53-3.72,3.88,3.88,0,0,1,3-1.33,3.78,3.78,0,0,1,3,1.26Zm8.82-7.64v4.25h-3.19v2.33h3.19v10.86a5.11,5.11,0,0,0,1,3.46,3.61,3.61,0,0,0,3,1.23,8.3,8.3,0,0,0,2.3-.33v-2.43a7.17,7.17,0,0,1-1.43.2,1.85,1.85,0,0,1-1.5-.53,2.31,2.31,0,0,1-.43-1.56v-10.9h3.29v-2.33h-3.29v-4.25Zm18.28,4.15a2.92,2.92,0,0,0-1.33-.23,4.65,4.65,0,0,0-4.18,2.36l-.07-2H436.1V746h3V733.52a3.92,3.92,0,0,1,4-2.52,10,10,0,0,1,1.49.1Z"></path><path d="M445.67,737.25a9.45,9.45,0,0,0,2.22,6.58,7.33,7.33,0,0,0,5.78,2.49,7.5,7.5,0,0,0,7-4.32,10.8,10.8,0,0,0,1-4.59v-.2a9.62,9.62,0,0,0-2.19-6.61,8.06,8.06,0,0,0-9.94-1.36,7.21,7.21,0,0,0-2.82,3.15,10.19,10.19,0,0,0-1,4.66Zm4.38-4.92a4.34,4.34,0,0,1,3.59-1.76,4.4,4.4,0,0,1,3.66,1.79,7.68,7.68,0,0,1,1.36,4.69,8.2,8.2,0,0,1-1.36,5,4.29,4.29,0,0,1-3.63,1.8,4.36,4.36,0,0,1-3.62-1.76,7.61,7.61,0,0,1-1.36-4.69,8.3,8.3,0,0,1,1.36-5.08Z"></path><path d="M252.91,776.17a12.16,12.16,0,0,0,.47,3.62,8.23,8.23,0,0,0,1.33,2.83,6.47,6.47,0,0,0,2.12,1.82,5.92,5.92,0,0,0,2.83.67,6.92,6.92,0,0,0,3.22-.7,6,6,0,0,0,2.19-1.89v2a7.44,7.44,0,0,1-.33,2.36,4.37,4.37,0,0,1-1,1.73,4.08,4.08,0,0,1-1.63,1.13,6.35,6.35,0,0,1-2.19.37,5.78,5.78,0,0,1-2.63-.6A7.7,7.7,0,0,1,255,787.6l-1.06,1.16a5.57,5.57,0,0,0,1.23,1.33,7.91,7.91,0,0,0,1.53.93,8.8,8.8,0,0,0,1.66.57,7.45,7.45,0,0,0,1.69.16,8,8,0,0,0,2.89-.49,6.33,6.33,0,0,0,2.23-1.43,6.73,6.73,0,0,0,1.4-2.3,8.78,8.78,0,0,0,.53-3V767.23h-1.83l-.1,2.53a6.39,6.39,0,0,0-2.23-2.1,7,7,0,0,0-6.08-.13,6.38,6.38,0,0,0-2.12,1.79,8.23,8.23,0,0,0-1.33,2.83,12.46,12.46,0,0,0-.47,3.69Zm2-.33a13,13,0,0,1,.3-2.86,7.13,7.13,0,0,1,.93-2.29,4.56,4.56,0,0,1,4-2.1,6.22,6.22,0,0,1,1.86.27,5.37,5.37,0,0,1,1.43.76,5.91,5.91,0,0,1,1,1.1,5.62,5.62,0,0,1,.69,1.33v8.14a6.24,6.24,0,0,1-.76,1.3,4.31,4.31,0,0,1-1.06,1,5.43,5.43,0,0,1-1.43.7,5.91,5.91,0,0,1-1.8.23,4.57,4.57,0,0,1-2.29-.56,4.5,4.5,0,0,1-1.63-1.53,7.23,7.23,0,0,1-.93-2.29,12.81,12.81,0,0,1-.3-2.86Zm19.45-16h-2v24.93h2Zm18.41,24.93v-.2c-.06-.2-.16-.44-.23-.73s-.1-.57-.16-.87-.07-.6-.1-.93a7.47,7.47,0,0,1,0-.93v-8.51a6.29,6.29,0,0,0-.46-2.49,4.86,4.86,0,0,0-1.33-1.79,5.82,5.82,0,0,0-2-1.07,8.28,8.28,0,0,0-2.59-.36,8.19,8.19,0,0,0-2.76.43,7.8,7.8,0,0,0-2.12,1.16,5.4,5.4,0,0,0-1.36,1.66,3.75,3.75,0,0,0-.47,1.9l1.93,0a2.91,2.91,0,0,1,.36-1.39,3.78,3.78,0,0,1,1-1.13,4.32,4.32,0,0,1,1.49-.73,5.62,5.62,0,0,1,1.86-.3,4.72,4.72,0,0,1,3.39,1.09,3.83,3.83,0,0,1,1.17,3v2h-3.59a14.76,14.76,0,0,0-3.36.37,7.59,7.59,0,0,0-2.52,1.13,4.59,4.59,0,0,0-2.13,4,4.71,4.71,0,0,0,.4,2,4.42,4.42,0,0,0,1.13,1.6,5.31,5.31,0,0,0,1.79,1.06,7.25,7.25,0,0,0,2.33.37,8.78,8.78,0,0,0,1.92-.23,11.63,11.63,0,0,0,1.67-.6,6.48,6.48,0,0,0,1.33-.9,5.42,5.42,0,0,0,1-1.06c0,.46.06.89.13,1.36a4.81,4.81,0,0,0,.26,1.1Zm-9.8-1.67a3.73,3.73,0,0,1-1.26-.73,2.92,2.92,0,0,1-.77-1.09,3.15,3.15,0,0,1-.29-1.33,3.24,3.24,0,0,1,.43-1.63,3.46,3.46,0,0,1,1.26-1.23,6,6,0,0,1,2-.76,10.78,10.78,0,0,1,2.66-.27h3.33v3.85a6.21,6.21,0,0,1-.87,1.37,6.42,6.42,0,0,1-1.26,1.09,6.34,6.34,0,0,1-1.63.73,7.2,7.2,0,0,1-2,.27,4.84,4.84,0,0,1-1.63-.27Zm24.7-1.62a3.25,3.25,0,0,1-.86,1,6.8,6.8,0,0,1-1.43.69,6.92,6.92,0,0,1-2,.24,7.37,7.37,0,0,1-1.66-.17,4.88,4.88,0,0,1-1.57-.6,3.36,3.36,0,0,1-1.16-1.09,3.4,3.4,0,0,1-.53-1.73h-2a4.58,4.58,0,0,0,.46,2,5.05,5.05,0,0,0,1.33,1.69,6.6,6.6,0,0,0,2.13,1.17,10.25,10.25,0,0,0,3,.43,9.3,9.3,0,0,0,2.69-.37,5.74,5.74,0,0,0,2-1,5.11,5.11,0,0,0,1.33-1.53,4.41,4.41,0,0,0,.43-2,4.1,4.1,0,0,0-.37-1.86,3.83,3.83,0,0,0-1.09-1.43,8.4,8.4,0,0,0-1.93-1.09,17.74,17.74,0,0,0-2.73-.8,18.64,18.64,0,0,1-2.39-.7,5.19,5.19,0,0,1-1.43-.76,1.83,1.83,0,0,1-.7-.9,2.78,2.78,0,0,1-.19-1.06,2.6,2.6,0,0,1,.26-1.1,2.55,2.55,0,0,1,.73-1,4.45,4.45,0,0,1,1.33-.69,5.48,5.48,0,0,1,1.93-.27,5.75,5.75,0,0,1,1.93.3,4.05,4.05,0,0,1,1.42.8,3.32,3.32,0,0,1,.9,1.16,3.08,3.08,0,0,1,.3,1.33h1.93a4.77,4.77,0,0,0-.43-2.09,5,5,0,0,0-1.27-1.67A6.31,6.31,0,0,0,306,767.3a8.37,8.37,0,0,0-2.72-.4,8.55,8.55,0,0,0-2.56.36,6.61,6.61,0,0,0-2,1,4.67,4.67,0,0,0-1.23,1.53,4,4,0,0,0-.43,1.86,4.07,4.07,0,0,0,.4,1.86,3.54,3.54,0,0,0,1.19,1.37,6.86,6.86,0,0,0,1.93,1,20,20,0,0,0,2.59.7,13.86,13.86,0,0,1,2.39.73,4.89,4.89,0,0,1,1.43.9,2.81,2.81,0,0,1,.7,1,3.22,3.22,0,0,1,.2,1.09,2.45,2.45,0,0,1-.3,1.17Zm16.83,0a3.15,3.15,0,0,1-.87,1,6.57,6.57,0,0,1-1.43.69,6.88,6.88,0,0,1-2,.24,7.43,7.43,0,0,1-1.66-.17,4.82,4.82,0,0,1-1.56-.6,3.19,3.19,0,0,1-1.16-1.09,3.5,3.5,0,0,1-.54-1.73h-2a4.45,4.45,0,0,0,.47,2,4.93,4.93,0,0,0,1.33,1.69,6.44,6.44,0,0,0,2.12,1.17,10.35,10.35,0,0,0,3,.43,9.25,9.25,0,0,0,2.69-.37,5.74,5.74,0,0,0,2-1,4.84,4.84,0,0,0,1.33-1.53,4.41,4.41,0,0,0,.43-2,4.23,4.23,0,0,0-.36-1.86,3.85,3.85,0,0,0-1.1-1.43,8,8,0,0,0-1.93-1.09,17.59,17.59,0,0,0-2.72-.8,18.38,18.38,0,0,1-2.4-.7,5.11,5.11,0,0,1-1.42-.76,1.77,1.77,0,0,1-.7-.9,2.66,2.66,0,0,1,.06-2.16,2.58,2.58,0,0,1,.74-1,4.39,4.39,0,0,1,1.32-.69,5.55,5.55,0,0,1,1.93-.27,5.75,5.75,0,0,1,1.93.3,4.2,4.2,0,0,1,1.43.8,3.32,3.32,0,0,1,.9,1.16,3.07,3.07,0,0,1,.29,1.33h1.93a4.77,4.77,0,0,0-.43-2.09,5.15,5.15,0,0,0-1.26-1.67,6.52,6.52,0,0,0-2.06-1.09,8.48,8.48,0,0,0-2.73-.4,8.6,8.6,0,0,0-2.56.36,6.61,6.61,0,0,0-2,1,4.67,4.67,0,0,0-1.23,1.53,4,4,0,0,0-.43,1.86,4.07,4.07,0,0,0,.4,1.86,3.57,3.57,0,0,0,1.2,1.37,6.8,6.8,0,0,0,1.92,1,20.18,20.18,0,0,0,2.6.7,14.45,14.45,0,0,1,2.39.73,5,5,0,0,1,1.43.9,3.1,3.1,0,0,1,.7,1,3.21,3.21,0,0,1,.19,1.09,2.56,2.56,0,0,1-.29,1.17Zm24.9,0a3.15,3.15,0,0,1-.87,1,6.48,6.48,0,0,1-1.42.69,7,7,0,0,1-2,.24,7.43,7.43,0,0,1-1.66-.17,4.91,4.91,0,0,1-1.56-.6,3.36,3.36,0,0,1-1.16-1.09,3.4,3.4,0,0,1-.53-1.73h-2a4.44,4.44,0,0,0,.46,2,4.93,4.93,0,0,0,1.33,1.69,6.6,6.6,0,0,0,2.13,1.17,10.23,10.23,0,0,0,3,.43,9.37,9.37,0,0,0,2.7-.37,5.78,5.78,0,0,0,2-1,4.84,4.84,0,0,0,1.33-1.53,4.41,4.41,0,0,0,.43-2,4.1,4.1,0,0,0-.36-1.86,3.75,3.75,0,0,0-1.1-1.43,8.12,8.12,0,0,0-1.92-1.09,18.08,18.08,0,0,0-2.73-.8,18.16,18.16,0,0,1-2.39-.7,5.19,5.19,0,0,1-1.43-.76,1.77,1.77,0,0,1-.7-.9,2.78,2.78,0,0,1-.2-1.06,2.62,2.62,0,0,1,.27-1.1,2.55,2.55,0,0,1,.73-1,4.33,4.33,0,0,1,1.33-.69,5.48,5.48,0,0,1,1.93-.27,5.65,5.65,0,0,1,1.92.3,4,4,0,0,1,1.43.8,3.32,3.32,0,0,1,.9,1.16,3.08,3.08,0,0,1,.3,1.33h1.93a4.77,4.77,0,0,0-.44-2.09,5.15,5.15,0,0,0-1.26-1.67,6.31,6.31,0,0,0-2.06-1.09,8.42,8.42,0,0,0-2.72-.4,8.55,8.55,0,0,0-2.56.36,6.49,6.49,0,0,0-2,1,4.43,4.43,0,0,0-1.23,1.53,4,4,0,0,0-.44,1.86,4.21,4.21,0,0,0,.4,1.86,3.65,3.65,0,0,0,1.2,1.37,6.73,6.73,0,0,0,1.93,1,19.58,19.58,0,0,0,2.59.7,14.15,14.15,0,0,1,2.39.73,4.89,4.89,0,0,1,1.43.9,3,3,0,0,1,.7,1,3.22,3.22,0,0,1,.2,1.09,2.45,2.45,0,0,1-.3,1.17Zm8.51-21.64H356v24.93h1.92v-12a7.57,7.57,0,0,1,.77-1.53,5.22,5.22,0,0,1,1.1-1.36,5.52,5.52,0,0,1,1.49-.93,4.82,4.82,0,0,1,1.89-.34,5.57,5.57,0,0,1,1.73.24,2.82,2.82,0,0,1,1.3.76,4,4,0,0,1,.83,1.46,7.48,7.48,0,0,1,.3,2.29v11.44h1.93V773.34a9.79,9.79,0,0,0-.4-3,5.47,5.47,0,0,0-1.1-2,4.21,4.21,0,0,0-1.76-1.13,6.65,6.65,0,0,0-2.36-.36,5.81,5.81,0,0,0-1.76.23,5.93,5.93,0,0,0-1.56.67,6.39,6.39,0,0,0-1.33,1,6.84,6.84,0,0,0-1.07,1.36Zm29.49,24.93v-.2a5.31,5.31,0,0,1-.23-.73c-.07-.27-.1-.57-.17-.87s-.07-.6-.1-.93,0-.63,0-.93v-8.51a6.28,6.28,0,0,0-.47-2.49,4.75,4.75,0,0,0-1.33-1.79,5.78,5.78,0,0,0-2-1.07,8.32,8.32,0,0,0-2.59-.36,8.11,8.11,0,0,0-2.76.43,7.86,7.86,0,0,0-2.13,1.16,5.55,5.55,0,0,0-1.36,1.66,3.84,3.84,0,0,0-.46,1.9l1.92,0a2.92,2.92,0,0,1,.37-1.39,3.74,3.74,0,0,1,1-1.13,4.37,4.37,0,0,1,1.5-.73,5.54,5.54,0,0,1,1.86-.3,4.75,4.75,0,0,1,3.39,1.09,3.85,3.85,0,0,1,1.16,3v2h-3.59a14.67,14.67,0,0,0-3.35.37,7.74,7.74,0,0,0-2.53,1.13,4.88,4.88,0,0,0-1.6,1.73,5,5,0,0,0-.53,2.32,4.87,4.87,0,0,0,.4,2,4.68,4.68,0,0,0,1.13,1.6,5.36,5.36,0,0,0,1.8,1.06,7.14,7.14,0,0,0,2.32.37,9,9,0,0,0,1.93-.23,11.49,11.49,0,0,0,1.66-.6,6.22,6.22,0,0,0,1.33-.9,5.15,5.15,0,0,0,1-1.06c0,.46.07.89.13,1.36a4.78,4.78,0,0,0,.27,1.1Zm-9.8-1.67a3.88,3.88,0,0,1-1.27-.73,2.9,2.9,0,0,1-.76-1.09,3,3,0,0,1-.3-1.33,3.35,3.35,0,0,1,.43-1.63,3.42,3.42,0,0,1,1.27-1.23,6,6,0,0,1,2-.76,10.68,10.68,0,0,1,2.66-.27h3.32v3.85a6.17,6.17,0,0,1-.86,1.37,6.8,6.8,0,0,1-1.27,1.09,6.27,6.27,0,0,1-1.62.73,7.27,7.27,0,0,1-2,.27,4.78,4.78,0,0,1-1.62-.27Zm13.7-6.94a12.5,12.5,0,0,0,.46,3.62,9,9,0,0,0,1.33,2.83,6.61,6.61,0,0,0,2.13,1.82,6,6,0,0,0,2.82.67,7,7,0,0,0,3.26-.7,6.67,6.67,0,0,0,2.23-2l.06,2.33h1.83V759.85h-1.93v9.84a6.72,6.72,0,0,0-2.22-2.06,6.45,6.45,0,0,0-3.19-.73,6,6,0,0,0-2.83.63,6.32,6.32,0,0,0-2.16,1.79,9,9,0,0,0-1.33,2.83,12.81,12.81,0,0,0-.46,3.69Zm2-.33a13,13,0,0,1,.3-2.86,7.13,7.13,0,0,1,.93-2.29,4.34,4.34,0,0,1,1.63-1.53,4.27,4.27,0,0,1,2.32-.57,6.13,6.13,0,0,1,1.86.27,5.22,5.22,0,0,1,1.43.76,4.61,4.61,0,0,1,1,1.1,7,7,0,0,1,.73,1.3v8.24a7.34,7.34,0,0,1-.79,1.26,4.41,4.41,0,0,1-1.07,1,5.2,5.2,0,0,1-1.43.66,6.15,6.15,0,0,1-1.79.23,4.52,4.52,0,0,1-3.92-2.09,7.23,7.23,0,0,1-.93-2.29,12.81,12.81,0,0,1-.3-2.86Zm26.23,9a5.45,5.45,0,0,0,1.72-.66,5.56,5.56,0,0,0,1.33-1,7.91,7.91,0,0,0,1-1.23l-1.23-.89a5.65,5.65,0,0,1-2.16,1.79,6,6,0,0,1-2.75.57,5.6,5.6,0,0,1-2.46-.53,6,6,0,0,1-1.9-1.5,6.77,6.77,0,0,1-1.23-2.19,8.22,8.22,0,0,1-.43-2.73v-.36H423.9v-1.2a11,11,0,0,0-.47-3.22,7.15,7.15,0,0,0-1.32-2.56,6.37,6.37,0,0,0-2.2-1.66,6.89,6.89,0,0,0-3-.6,6.52,6.52,0,0,0-2.85.63,7.85,7.85,0,0,0-2.4,1.79,8.52,8.52,0,0,0-1.66,2.8,10.64,10.64,0,0,0-.6,3.68v.7A9.71,9.71,0,0,0,410,780a7.74,7.74,0,0,0,1.63,2.72,6.82,6.82,0,0,0,2.49,1.76,7.49,7.49,0,0,0,3.16.67,8.1,8.1,0,0,0,2.13-.27ZM419.11,769a5.48,5.48,0,0,1,1.57,1.27,6.08,6.08,0,0,1,.93,1.83,7.63,7.63,0,0,1,.36,2.16v.19H411.44a9,9,0,0,1,.63-2.42,6.26,6.26,0,0,1,1.16-1.86,6,6,0,0,1,1.66-1.23,5.25,5.25,0,0,1,2.06-.4,5,5,0,0,1,2.16.46Z"></path><polygon class="cls-4" points="397.47 247.3 280.12 247.3 259.71 549.82 416.6 549.82 397.47 247.3 397.47 247.3"></polygon><path d="M559.46,248.16"></path><line class="cls-5" x1="366.44" y1="484.58" x2="304.96" y2="484.58"></line><line class="cls-5" x1="280.61" y1="250.59" x2="304.95" y2="484.59"></line><line class="cls-5" x1="396.38" y1="248.16" x2="366.44" y2="481.81"></line></svg> 