<?xml version="1.0" encoding="UTF-8"?> <svg xmlns="http://www.w3.org/2000/svg" id="Livello_1" data-name="Livello 1" viewBox="0 0 741.33 1000.49"><defs><style>.cls-1{fill:#fff;}.cls-2{fill:#231f20;}.cls-3,.cls-4{fill:none;stroke-width:0.25px;}.cls-3{stroke:#000;}.cls-4{stroke:#231f20;}</style></defs><title>Tic fabric shade</title><rect class="cls-1" y="0.49" width="741.33" height="1000"></rect><path class="cls-2" d="M321.44.37h-.62L308.59,4.78V9.53l7-2.17V30h5.86ZM337,17.18h3.12a7.7,7.7,0,0,1,2,.25,6.21,6.21,0,0,1,1.54.79,4.2,4.2,0,0,1,.95,1.37,6,6,0,0,1,.34,2,4.37,4.37,0,0,1-.34,1.67,2.85,2.85,0,0,1-.87,1.24,3.2,3.2,0,0,1-1.42.84,5.36,5.36,0,0,1-1.87.29,4.74,4.74,0,0,1-1.7-.29,3.9,3.9,0,0,1-1.38-.79,3.7,3.7,0,0,1-.91-1.17,3.63,3.63,0,0,1-.33-1.54h-5.87a7.75,7.75,0,0,0,.87,3.79,8,8,0,0,0,2.29,2.66,9.93,9.93,0,0,0,3.21,1.58,14,14,0,0,0,3.7.5,14.93,14.93,0,0,0,4.16-.58,9.82,9.82,0,0,0,3.33-1.71,7.77,7.77,0,0,0,2.2-2.7,8.77,8.77,0,0,0,.79-3.7,6.92,6.92,0,0,0-4.95-6.91,9.53,9.53,0,0,0,1.91-1.21,9.51,9.51,0,0,0,1.42-1.49,8.44,8.44,0,0,0,.87-1.79,7.2,7.2,0,0,0,.29-1.87,8.63,8.63,0,0,0-.75-3.67,7.38,7.38,0,0,0-2-2.62A9.78,9.78,0,0,0,344.46.54,15.59,15.59,0,0,0,340.39,0a12.63,12.63,0,0,0-3.79.58,10.74,10.74,0,0,0-3.08,1.62,8.27,8.27,0,0,0-2.08,2.54,7.37,7.37,0,0,0-.75,3.33h5.87a3.11,3.11,0,0,1,.33-1.37,2.9,2.9,0,0,1,.84-1A3.56,3.56,0,0,1,339,5a4.54,4.54,0,0,1,1.5-.25A4.76,4.76,0,0,1,342.3,5a3.26,3.26,0,0,1,1.25.79A3.11,3.11,0,0,1,344.3,7a4.54,4.54,0,0,1,.25,1.5,4.11,4.11,0,0,1-1.08,3,4.47,4.47,0,0,1-3.33,1.13H337Zm37.79-4.53a19.17,19.17,0,0,0-.75-5.74A10.07,10.07,0,0,0,372,3,7.61,7.61,0,0,0,368.86.75a11.45,11.45,0,0,0-8.15,0A7.49,7.49,0,0,0,357.59,3a10.07,10.07,0,0,0-2,3.91,19.17,19.17,0,0,0-.75,5.74v5.11a19.07,19.07,0,0,0,.75,5.7,11,11,0,0,0,2,4,7.59,7.59,0,0,0,3.16,2.24,10.78,10.78,0,0,0,4.08.75,10.58,10.58,0,0,0,4.07-.75,7.59,7.59,0,0,0,3.16-2.24,11,11,0,0,0,2-4,20.57,20.57,0,0,0,.71-5.7Zm-5.87,5.9a15,15,0,0,1-.29,3.33,6.17,6.17,0,0,1-.79,2.21,3,3,0,0,1-1.29,1.2,4.2,4.2,0,0,1-3.49,0,3,3,0,0,1-1.29-1.2,6.15,6.15,0,0,1-.83-2.21,18.31,18.31,0,0,1-.25-3.33V11.77A17.79,17.79,0,0,1,361,8.49a6,6,0,0,1,.79-2.17A3.49,3.49,0,0,1,363,5.12a4.07,4.07,0,0,1,1.74-.34,3.86,3.86,0,0,1,1.75.34,3.31,3.31,0,0,1,1.33,1.2,6,6,0,0,1,.79,2.17,14.61,14.61,0,0,1,.29,3.28Zm15.79-1.37h3.12a7.7,7.7,0,0,1,2,.25,6.21,6.21,0,0,1,1.54.79,4.2,4.2,0,0,1,.95,1.37,6,6,0,0,1,.34,2,4.37,4.37,0,0,1-.34,1.67,2.77,2.77,0,0,1-.87,1.24,3.17,3.17,0,0,1-1.41.84,5.46,5.46,0,0,1-1.88.29,4.74,4.74,0,0,1-1.7-.29,3.9,3.9,0,0,1-1.38-.79,3.7,3.7,0,0,1-.91-1.17,3.63,3.63,0,0,1-.33-1.54H378a7.75,7.75,0,0,0,.87,3.79,8.08,8.08,0,0,0,2.29,2.66,9.93,9.93,0,0,0,3.21,1.58,14,14,0,0,0,3.7.5,14.93,14.93,0,0,0,4.16-.58,9.82,9.82,0,0,0,3.33-1.71,7.77,7.77,0,0,0,2.2-2.7,8.77,8.77,0,0,0,.79-3.7,6.92,6.92,0,0,0-4.95-6.91,9.53,9.53,0,0,0,1.91-1.21A9.07,9.07,0,0,0,397,12.11a8,8,0,0,0,.87-1.79,7.2,7.2,0,0,0,.29-1.87,8.78,8.78,0,0,0-.74-3.67,7.52,7.52,0,0,0-2-2.62A9.83,9.83,0,0,0,392.18.54,15.73,15.73,0,0,0,388.1,0a12.63,12.63,0,0,0-3.79.58,10.74,10.74,0,0,0-3.08,1.62,8.27,8.27,0,0,0-2.08,2.54,7.37,7.37,0,0,0-.74,3.33h5.86a3.11,3.11,0,0,1,.33-1.37,2.9,2.9,0,0,1,.84-1A3.52,3.52,0,0,1,386.73,5a4.43,4.43,0,0,1,1.49-.25A4.76,4.76,0,0,1,390,5a3.26,3.26,0,0,1,1.25.79A3.11,3.11,0,0,1,392,7a4.29,4.29,0,0,1,.25,1.5,4.11,4.11,0,0,1-1.08,3,4.47,4.47,0,0,1-3.33,1.13h-3.12ZM414.28,15H402.84v4.7h11.44Zm8.6,10.4v4.91h.46A16.93,16.93,0,0,0,430,29.12a12.43,12.43,0,0,0,4.7-3.29,13.4,13.4,0,0,0,2.83-5.07,22.26,22.26,0,0,0,.92-6.62V12.06a15.32,15.32,0,0,0-.71-4.9,11.08,11.08,0,0,0-2-3.83A9.19,9.19,0,0,0,432.53.87,9.66,9.66,0,0,0,428.41,0a10,10,0,0,0-4.12.83,9.1,9.1,0,0,0-3.12,2.29,9.39,9.39,0,0,0-2,3.29,11.93,11.93,0,0,0-.71,4.07,13.54,13.54,0,0,0,.54,4,9.5,9.5,0,0,0,1.66,3.12,8.48,8.48,0,0,0,2.71,2.12,8.82,8.82,0,0,0,3.74.75A6.83,6.83,0,0,0,430,19.8a7.79,7.79,0,0,0,2.42-1.62,8.93,8.93,0,0,1-.75,3.08A5.9,5.9,0,0,1,430,23.5a7.9,7.9,0,0,1-2.79,1.42,15,15,0,0,1-3.87.46Zm3.78-9.86a4,4,0,0,1-1.29-1.21,4.92,4.92,0,0,1-.79-1.75,9.08,9.08,0,0,1-.25-2.16,9,9,0,0,1,.25-2.08,5.32,5.32,0,0,1,.79-1.83,3.64,3.64,0,0,1,1.25-1.25,3.1,3.1,0,0,1,1.75-.5,3.87,3.87,0,0,1,1.66.38,5,5,0,0,1,1.34,1.16,6.46,6.46,0,0,1,.87,2,10.56,10.56,0,0,1,.29,2.74v2.42A4.86,4.86,0,0,1,431,15.23a4.31,4.31,0,0,1-2.45.7,3.92,3.92,0,0,1-1.88-.41ZM456.84.37h-.62L444,4.78V9.53l7-2.17V30h5.86Z"></path><polygon class="cls-2" points="286.25 69.48 272.48 69.48 272.48 57.95 288.29 57.95 288.29 55.83 269.99 55.83 269.99 85.41 272.48 85.41 272.48 71.6 286.25 71.6 286.25 69.48"></polygon><path class="cls-2" d="M308.56,85.41v-.25c-.08-.25-.2-.54-.29-.92s-.12-.7-.2-1.08-.09-.75-.13-1.16,0-.79,0-1.17V70.18a8,8,0,0,0-.58-3.12,6.13,6.13,0,0,0-1.67-2.24,7.2,7.2,0,0,0-2.49-1.34,10.3,10.3,0,0,0-3.25-.45,10,10,0,0,0-3.45.54A9.51,9.51,0,0,0,293.8,65a7,7,0,0,0-1.71,2.08,4.74,4.74,0,0,0-.58,2.38l2.41,0a3.65,3.65,0,0,1,.46-1.75,4.54,4.54,0,0,1,1.21-1.41,5.45,5.45,0,0,1,1.87-.92,6.94,6.94,0,0,1,2.33-.37A5.89,5.89,0,0,1,304,66.44a4.77,4.77,0,0,1,1.46,3.7v2.5H301a18.39,18.39,0,0,0-4.2.45,9.78,9.78,0,0,0-3.16,1.42A5.72,5.72,0,0,0,291,79.58a5.92,5.92,0,0,0,.5,2.46,5.79,5.79,0,0,0,1.41,2,6.88,6.88,0,0,0,2.25,1.33,9.3,9.3,0,0,0,2.91.45,10.75,10.75,0,0,0,2.41-.29,11.81,11.81,0,0,0,2.08-.75,7.5,7.5,0,0,0,1.67-1.12,6.48,6.48,0,0,0,1.29-1.33c0,.58.08,1.12.16,1.71a5.71,5.71,0,0,0,.34,1.37Zm-12.27-2.08a4.94,4.94,0,0,1-1.58-.92,3.62,3.62,0,0,1-1-1.37,3.88,3.88,0,0,1-.37-1.66,4.16,4.16,0,0,1,.54-2,4.25,4.25,0,0,1,1.58-1.54,7.63,7.63,0,0,1,2.5-1,13.41,13.41,0,0,1,3.33-.33h4.16v4.83A7.33,7.33,0,0,1,304.4,81a7.87,7.87,0,0,1-1.58,1.37,8.14,8.14,0,0,1-2,.92,9.2,9.2,0,0,1-2.46.33,6.1,6.1,0,0,1-2-.33Zm35.76-9.11a17.76,17.76,0,0,0-.54-4.62,10.45,10.45,0,0,0-1.67-3.54,7.54,7.54,0,0,0-2.62-2.24,7.67,7.67,0,0,0-3.58-.79,7.81,7.81,0,0,0-4.07.95,7.64,7.64,0,0,0-2.79,2.63V54.21h-2.41v31.2h2.24l.13-3a8,8,0,0,0,2.79,2.5,9.16,9.16,0,0,0,4.16.91,7.51,7.51,0,0,0,3.53-.83,8.08,8.08,0,0,0,2.66-2.29,11,11,0,0,0,1.63-3.53,17.34,17.34,0,0,0,.54-4.54Zm-2.42.41a16,16,0,0,1-.37,3.58,9.17,9.17,0,0,1-1.16,2.87,5.51,5.51,0,0,1-4.87,2.62,7.77,7.77,0,0,1-2.29-.33,6.33,6.33,0,0,1-1.83-.87,5.83,5.83,0,0,1-1.37-1.29,9,9,0,0,1-1-1.67v-9.9a9.19,9.19,0,0,1,.83-1.66,6.57,6.57,0,0,1,1.33-1.46,6.17,6.17,0,0,1,1.83-1,7,7,0,0,1,2.42-.37,5.4,5.4,0,0,1,2.91.71,5.56,5.56,0,0,1,2,1.91,9,9,0,0,1,1.12,2.87,16.26,16.26,0,0,1,.37,3.58Zm18-11.35a4.65,4.65,0,0,0-.71-.17A7.14,7.14,0,0,0,346,63a6.28,6.28,0,0,0-3.74,1,7.52,7.52,0,0,0-2.46,2.87l0-3.5h-2.37v22h2.41V70.31a10.17,10.17,0,0,1,.84-2,5.82,5.82,0,0,1,1.29-1.54,5.17,5.17,0,0,1,1.74-1,6.4,6.4,0,0,1,2.25-.37,10.27,10.27,0,0,1,1.62.12Zm6.47.16h-2.45v22h2.45Zm-2.45-5.2a1.75,1.75,0,0,0,1.24.46,1.68,1.68,0,0,0,1.21-.46,1.53,1.53,0,0,0,.46-1.16,1.5,1.5,0,0,0-.46-1.17,1.55,1.55,0,0,0-1.21-.5,1.58,1.58,0,0,0-1.66,1.67,1.66,1.66,0,0,0,.42,1.16ZM365.57,83a7,7,0,0,1-2.16-2,8.87,8.87,0,0,1-1.16-2.87,14.62,14.62,0,0,1-.38-3.37V74a14.94,14.94,0,0,1,.38-3.37,7.92,7.92,0,0,1,1.2-2.83,6.16,6.16,0,0,1,2.12-2,7,7,0,0,1,3.21-.7,7.2,7.2,0,0,1,2.33.37A6.42,6.42,0,0,1,373,66.65a5.7,5.7,0,0,1,1.33,1.79,6.19,6.19,0,0,1,.54,2.41h2.37a9.87,9.87,0,0,0-.74-3.25,7.78,7.78,0,0,0-1.84-2.45,7.41,7.41,0,0,0-2.62-1.58,9.22,9.22,0,0,0-3.28-.54,9.49,9.49,0,0,0-4,.83,8.63,8.63,0,0,0-2.95,2.33A10.77,10.77,0,0,0,360,69.68a16,16,0,0,0-.58,4.33v.83a16.18,16.18,0,0,0,.58,4.33,10.77,10.77,0,0,0,1.79,3.49A8.43,8.43,0,0,0,364.74,85a8.93,8.93,0,0,0,4,.87,10,10,0,0,0,3.2-.54,8.94,8.94,0,0,0,2.62-1.49,7.1,7.1,0,0,0,1.87-2.29,7.3,7.3,0,0,0,.79-2.87h-2.37a5.22,5.22,0,0,1-.58,2.2,6.35,6.35,0,0,1-1.37,1.63,6.5,6.5,0,0,1-1.92,1,6.61,6.61,0,0,1-2.24.33,6.43,6.43,0,0,1-3.21-.7Zm43.36-2.62a4.36,4.36,0,0,1-1.54,1.74A6.73,6.73,0,0,1,405,83.29a10.75,10.75,0,0,1-3.12.41,13,13,0,0,1-3.08-.37A8,8,0,0,1,396,82.21a6.83,6.83,0,0,1-2-2.08,5.9,5.9,0,0,1-.79-3.17h-2.5a8.61,8.61,0,0,0,.46,2.83A7.51,7.51,0,0,0,392.5,82a7.06,7.06,0,0,0,1.83,1.7,11.77,11.77,0,0,0,2.29,1.17,14.18,14.18,0,0,0,2.58.67,14.62,14.62,0,0,0,2.66.24,13.76,13.76,0,0,0,4-.54,9.63,9.63,0,0,0,3.24-1.54,7.18,7.18,0,0,0,2.08-2.41,6.45,6.45,0,0,0,.79-3.24,6.85,6.85,0,0,0-2.58-5.54,11.73,11.73,0,0,0-3.08-1.83,34.73,34.73,0,0,0-4.16-1.41,33.14,33.14,0,0,1-3.74-1.25,11.58,11.58,0,0,1-2.5-1.41A5.13,5.13,0,0,1,394.66,65a4.46,4.46,0,0,1-.41-2,4.8,4.8,0,0,1,1.87-3.87A7.94,7.94,0,0,1,398.45,58a10.72,10.72,0,0,1,3.2-.41,9.53,9.53,0,0,1,3.25.5,7.16,7.16,0,0,1,2.41,1.37,6.77,6.77,0,0,1,1.5,2.12,7.33,7.33,0,0,1,.5,2.71h2.49a7.91,7.91,0,0,0-.7-3.46,8.12,8.12,0,0,0-2-2.83,9.7,9.7,0,0,0-3.16-1.87,12.42,12.42,0,0,0-4.25-.71,13.26,13.26,0,0,0-4,.59,9.9,9.9,0,0,0-3.16,1.54,7.34,7.34,0,0,0-2,2.41,6.65,6.65,0,0,0-.75,3.12,6.44,6.44,0,0,0,.71,3,7.12,7.12,0,0,0,1.91,2.28,13,13,0,0,0,3,1.75,33.79,33.79,0,0,0,4,1.37,37.06,37.06,0,0,1,3.87,1.29,10.58,10.58,0,0,1,2.46,1.46A4.39,4.39,0,0,1,409.1,76a5.86,5.86,0,0,1,.37,2.16,4.61,4.61,0,0,1-.54,2.29Zm10.25-26.21h-2.41v31.2h2.41V70.35a9.24,9.24,0,0,1,1-1.91,6.46,6.46,0,0,1,3.25-2.87,6,6,0,0,1,2.37-.42,7.06,7.06,0,0,1,2.16.29,3.58,3.58,0,0,1,1.62,1,4.87,4.87,0,0,1,1,1.83A9.37,9.37,0,0,1,431,71.1V85.41h2.41V71.1a12.13,12.13,0,0,0-.5-3.7,6.8,6.8,0,0,0-1.37-2.5,5.24,5.24,0,0,0-2.21-1.42,8.2,8.2,0,0,0-3-.45,7.32,7.32,0,0,0-2.2.29,7.66,7.66,0,0,0-2,.83,8.11,8.11,0,0,0-1.66,1.29,9,9,0,0,0-1.34,1.71Zm36.88,31.2v-.25a7.87,7.87,0,0,1-.29-.92c-.08-.33-.12-.7-.21-1.08s-.08-.75-.12-1.16,0-.79,0-1.17V70.18a7.82,7.82,0,0,0-.59-3.12,6,6,0,0,0-1.66-2.24,7.24,7.24,0,0,0-2.5-1.34,10.24,10.24,0,0,0-3.24-.45,10,10,0,0,0-3.45.54A9.58,9.58,0,0,0,441.29,65a6.92,6.92,0,0,0-1.7,2.08,4.74,4.74,0,0,0-.58,2.38l2.41,0a3.65,3.65,0,0,1,.46-1.75,4.63,4.63,0,0,1,1.2-1.41,5.64,5.64,0,0,1,1.87-.92,7,7,0,0,1,2.33-.37,5.9,5.9,0,0,1,4.25,1.37,4.8,4.8,0,0,1,1.45,3.7v2.5h-4.49a18.39,18.39,0,0,0-4.2.45,9.78,9.78,0,0,0-3.16,1.42A6.23,6.23,0,0,0,439,82a6,6,0,0,0,1.42,2,6.78,6.78,0,0,0,2.25,1.33,9.3,9.3,0,0,0,2.91.45,10.75,10.75,0,0,0,2.41-.29,11.81,11.81,0,0,0,2.08-.75,7.44,7.44,0,0,0,1.66-1.12A6.23,6.23,0,0,0,453,82.33c0,.58.09,1.12.17,1.71a5.74,5.74,0,0,0,.33,1.37Zm-12.27-2.08a4.94,4.94,0,0,1-1.58-.92,3.51,3.51,0,0,1-1-1.37,3.74,3.74,0,0,1-.37-1.66A4,4,0,0,1,443,75.8a7.63,7.63,0,0,1,2.5-1,13.38,13.38,0,0,1,3.32-.33H453v4.83A7.29,7.29,0,0,1,451.9,81a8.16,8.16,0,0,1-1.58,1.37,8,8,0,0,1-2,.92,9.12,9.12,0,0,1-2.45.33,6.1,6.1,0,0,1-2-.33Zm17.12-8.7a15.42,15.42,0,0,0,.58,4.54,11.09,11.09,0,0,0,1.66,3.53A8.22,8.22,0,0,0,465.82,85a7.62,7.62,0,0,0,3.53.83,8.84,8.84,0,0,0,4.08-.87,8.32,8.32,0,0,0,2.79-2.45l.08,2.91h2.29V54.21h-2.41V66.52a8.39,8.39,0,0,0-2.79-2.58,8.18,8.18,0,0,0-4-.91,7.49,7.49,0,0,0-3.53.79,7.93,7.93,0,0,0-2.71,2.24,11.25,11.25,0,0,0-1.66,3.54,15.8,15.8,0,0,0-.58,4.62Zm2.45-.41a16.24,16.24,0,0,1,.38-3.58,9,9,0,0,1,1.16-2.87,5.56,5.56,0,0,1,2-1.91,5.4,5.4,0,0,1,2.91-.71,7.75,7.75,0,0,1,2.33.33,6.46,6.46,0,0,1,1.79,1,5.54,5.54,0,0,1,1.29,1.37,9.34,9.34,0,0,1,.92,1.62V79.75a10.21,10.21,0,0,1-1,1.58,5.61,5.61,0,0,1-1.33,1.25,6.81,6.81,0,0,1-1.79.83,7.89,7.89,0,0,1-2.25.29,5.64,5.64,0,0,1-4.91-2.62,8.93,8.93,0,0,1-1.16-2.87,16,16,0,0,1-.38-3.58Zm32.8,11.27a8.3,8.3,0,0,0,3.83-2,10.23,10.23,0,0,0,1.29-1.54l-1.54-1.12A7.19,7.19,0,0,1,497,83a7.68,7.68,0,0,1-3.46.7,6.86,6.86,0,0,1-3.07-.66,7.45,7.45,0,0,1-2.38-1.87,8.64,8.64,0,0,1-1.54-2.75,10.37,10.37,0,0,1-.54-3.41v-.46h15.69v-1.5a14.06,14.06,0,0,0-.58-4,9,9,0,0,0-1.67-3.2,8,8,0,0,0-2.74-2.08A8.68,8.68,0,0,0,493,63a8.16,8.16,0,0,0-3.57.79,9.74,9.74,0,0,0-3,2.24,10.56,10.56,0,0,0-2.08,3.5,13.41,13.41,0,0,0-.75,4.62v.87a12.12,12.12,0,0,0,.75,4.33,9.66,9.66,0,0,0,2,3.41,8.72,8.72,0,0,0,3.12,2.2,9.47,9.47,0,0,0,3.95.83,10.24,10.24,0,0,0,2.66-.33Zm-.41-19.8a6.77,6.77,0,0,1,1.95,1.58,7.52,7.52,0,0,1,1.17,2.29,9.66,9.66,0,0,1,.45,2.7v.25H486.14a10.78,10.78,0,0,1,.79-3,7.51,7.51,0,0,1,1.45-2.33,7.2,7.2,0,0,1,2.08-1.54,6.52,6.52,0,0,1,2.58-.5,6.25,6.25,0,0,1,2.71.58Z"></path><line class="cls-3" x1="305.58" y1="199.55" x2="466.33" y2="199.55"></line><line class="cls-3" x1="305.58" y1="592.67" x2="466.33" y2="592.67"></line><path d="M362.65,167.09,361,170.38h2l1.2-2.43a8.29,8.29,0,0,0,3.09.57,7.92,7.92,0,0,0,4.15-1.1,7.77,7.77,0,0,0,2.83-3.19,10.51,10.51,0,0,0,1-4.62c0-3.45-1.06-6-3.15-7.71l1.66-3.32h-2L370.63,151a7.88,7.88,0,0,0-3.32-.7,7.6,7.6,0,0,0-4.16,1.13,7.51,7.51,0,0,0-2.82,3.19,10.29,10.29,0,0,0-1,4.62c0,3.62,1.13,6.21,3.32,7.84Zm1.07-12.56a4.31,4.31,0,0,1,3.59-1.76,4.4,4.4,0,0,1,2.16.53l-5.55,11.26a7.21,7.21,0,0,1-1.57-4.95,8.12,8.12,0,0,1,1.37-5.08Zm8.57,5A7.78,7.78,0,0,1,371,164.3a4.43,4.43,0,0,1-3.62,1.76,4.64,4.64,0,0,1-2-.4l5.51-11.16a7.48,7.48,0,0,1,1.4,4.75Zm21.84,6.22H382.27l6.31-6.88c3-3.19,4.46-6,4.46-8.31a5.94,5.94,0,0,0-1.9-4.58,7.45,7.45,0,0,0-5.22-1.73,7.66,7.66,0,0,0-5.61,2,6.84,6.84,0,0,0-2.13,5.25h3a4.88,4.88,0,0,1,1.23-3.55,4.71,4.71,0,0,1,3.48-1.26,4,4,0,0,1,3,1.19,4.25,4.25,0,0,1,1.09,3,5.79,5.79,0,0,1-.66,2.66,18.86,18.86,0,0,1-2.53,3.35L378.65,166v2.16h15.48Zm18-11.5c0-3.42-.66-5.92-1.86-7.54s-3.05-2.46-5.61-2.46-4.46.83-5.65,2.52-1.8,4.29-1.8,7.75v4c0,3.32.67,5.81,1.9,7.51a6.4,6.4,0,0,0,5.58,2.49,6.48,6.48,0,0,0,5.65-2.56c1.2-1.73,1.79-4.32,1.79-7.84Zm-3,4.69a10.91,10.91,0,0,1-1.13,5.41,4,4,0,0,1-6.68-.1,11.26,11.26,0,0,1-1.13-5.65v-4.82a11.08,11.08,0,0,1,1.1-5.35,4.14,4.14,0,0,1,6.75,0c.73,1.16,1.09,3,1.09,5.55Z"></path><path d="M361.46,655.1l-1.63,3.29h2l1.2-2.43a8.29,8.29,0,0,0,3.09.56,7.38,7.38,0,0,0,7-4.28,10.54,10.54,0,0,0,1-4.62c0-3.46-1.06-6-3.15-7.71l1.66-3.32h-2L369.44,639a8,8,0,0,0-3.33-.7,7.67,7.67,0,0,0-4.15,1.13,7.56,7.56,0,0,0-2.82,3.19,10.35,10.35,0,0,0-1,4.62c0,3.63,1.13,6.22,3.32,7.85Zm1.07-12.57a4.31,4.31,0,0,1,3.58-1.76,4.36,4.36,0,0,1,2.16.54l-5.54,11.26a7.23,7.23,0,0,1-1.57-5,8.15,8.15,0,0,1,1.37-5.09Zm8.57,5a7.74,7.74,0,0,1-1.33,4.78,4.42,4.42,0,0,1-3.62,1.77,4.8,4.8,0,0,1-2-.4l5.51-11.17a7.56,7.56,0,0,1,1.4,4.75Zm21.84,6.21H381.08l6.31-6.88c3-3.19,4.45-6,4.45-8.3A5.94,5.94,0,0,0,390,634a7.51,7.51,0,0,0-5.22-1.73,7.65,7.65,0,0,0-5.61,2,6.84,6.84,0,0,0-2.13,5.25h3a4.92,4.92,0,0,1,1.23-3.55,4.72,4.72,0,0,1,3.49-1.27,3.94,3.94,0,0,1,3,1.2,4.18,4.18,0,0,1,1.1,3,5.75,5.75,0,0,1-.66,2.66,18.51,18.51,0,0,1-2.53,3.36l-8.17,9.1v2.16h15.48ZM408.54,634a8.08,8.08,0,0,0-10.07,0,6.14,6.14,0,0,0-1.93,4.72,5.51,5.51,0,0,0,.93,3.16,6.46,6.46,0,0,0,2.46,2.16,6.3,6.3,0,0,0-2.89,2.33,6,6,0,0,0-1,3.45,6.23,6.23,0,0,0,2,4.89,9.11,9.11,0,0,0,10.93,0,6.2,6.2,0,0,0,2.06-4.89,5.79,5.79,0,0,0-1.1-3.45A6.58,6.58,0,0,0,407,644a6.4,6.4,0,0,0,2.52-2.16,5.44,5.44,0,0,0,.93-3.16,6,6,0,0,0-1.92-4.72Zm-1.73,18.91a5.25,5.25,0,0,1-6.61,0,4.15,4.15,0,0,1-1.2-3.15,4.42,4.42,0,0,1,1.23-3.26,4.31,4.31,0,0,1,3.26-1.23,4.59,4.59,0,0,1,3.29,1.26,4.37,4.37,0,0,1,1.26,3.23,4.17,4.17,0,0,1-1.23,3.15Zm-.47-17.08a4.45,4.45,0,0,1,0,5.88,3.75,3.75,0,0,1-2.86,1.1,3.87,3.87,0,0,1-2.89-1.1,4,4,0,0,1-1.07-2.92,4,4,0,0,1,1.1-3,3.84,3.84,0,0,1,2.86-1.1,3.76,3.76,0,0,1,2.82,1.13Z"></path><polygon class="cls-1" points="444.08 247.3 326.73 247.3 306.32 549.82 463.2 549.82 444.08 247.3"></polygon><polygon class="cls-4" points="444.08 247.3 326.73 247.3 306.32 549.82 463.2 549.82 444.08 247.3 444.08 247.3"></polygon></svg> 