<?xml version="1.0" encoding="UTF-8"?> <svg xmlns="http://www.w3.org/2000/svg" id="Livello_1" data-name="Livello 1" viewBox="0 0 741.33 1001.49"><defs><style>.cls-1{fill:#fff;}.cls-2{fill:#231f20;}.cls-3,.cls-4,.cls-5{fill:none;stroke-width:0.25px;}.cls-3{stroke:#000;}.cls-4,.cls-5{stroke:#231f20;}.cls-5{stroke-dasharray:5 5;}</style></defs><title>Tic</title><rect class="cls-1" y="1.49" width="741.33" height="1000"></rect><path class="cls-2" d="M248.57-.63H248L235.72,3.78V8.53l7-2.17V29h5.86Zm15.58,16.81h3.12a7.65,7.65,0,0,1,2,.25,6.21,6.21,0,0,1,1.54.79,4.08,4.08,0,0,1,1,1.37,6.23,6.23,0,0,1,.33,2,4.56,4.56,0,0,1-.33,1.67,2.87,2.87,0,0,1-.88,1.24,3.17,3.17,0,0,1-1.41.84,5.4,5.4,0,0,1-1.87.29,4.76,4.76,0,0,1-1.71-.29,3.77,3.77,0,0,1-1.37-.79,3.39,3.39,0,0,1-1.25-2.71h-5.87a7.64,7.64,0,0,0,.88,3.79,7.86,7.86,0,0,0,2.29,2.66,9.78,9.78,0,0,0,3.2,1.58,14,14,0,0,0,3.7.5,14.93,14.93,0,0,0,4.16-.58A9.82,9.82,0,0,0,275,27.12a7.77,7.77,0,0,0,2.2-2.7,8.77,8.77,0,0,0,.79-3.7,7.31,7.31,0,0,0-1.24-4.25,7.22,7.22,0,0,0-3.71-2.66A9.61,9.61,0,0,0,275,12.6a9,9,0,0,0,1.41-1.49,8,8,0,0,0,.88-1.79,7.65,7.65,0,0,0,.29-1.87,8.63,8.63,0,0,0-.75-3.67,7.52,7.52,0,0,0-2-2.62A9.73,9.73,0,0,0,271.6-.46,15.73,15.73,0,0,0,267.52-1a12.52,12.52,0,0,0-3.78.58,10.48,10.48,0,0,0-3.08,1.62,8.12,8.12,0,0,0-2.08,2.54,7.37,7.37,0,0,0-.75,3.33h5.86A3,3,0,0,1,264,5.7a2.88,2.88,0,0,1,.83-1A3.52,3.52,0,0,1,266.15,4a4.54,4.54,0,0,1,1.5-.25,4.71,4.71,0,0,1,1.78.29,3.26,3.26,0,0,1,1.25.79A2.89,2.89,0,0,1,271.43,6a4.29,4.29,0,0,1,.25,1.5,4.07,4.07,0,0,1-1.08,3,4.47,4.47,0,0,1-3.33,1.13h-3.12Zm37.79-4.53a19.17,19.17,0,0,0-.75-5.74,10.05,10.05,0,0,0-2-3.91A7.71,7.71,0,0,0,296-.25,10.58,10.58,0,0,0,291.92-1a10.78,10.78,0,0,0-4.08.75A7.49,7.49,0,0,0,284.72,2a10.2,10.2,0,0,0-2,3.91,19.17,19.17,0,0,0-.75,5.74v5.11a19.07,19.07,0,0,0,.75,5.7,11.11,11.11,0,0,0,2,4,7.65,7.65,0,0,0,3.16,2.24,10.78,10.78,0,0,0,4.08.75,10.63,10.63,0,0,0,4.08-.75,7.72,7.72,0,0,0,3.16-2.24,11.11,11.11,0,0,0,2-4,21,21,0,0,0,.7-5.7Zm-5.86,5.9a15.66,15.66,0,0,1-.29,3.33,6.58,6.58,0,0,1-.79,2.21,3,3,0,0,1-1.29,1.2,4.22,4.22,0,0,1-3.5,0,3,3,0,0,1-1.29-1.2,6.55,6.55,0,0,1-.83-2.21,18.31,18.31,0,0,1-.25-3.33V10.77a17.79,17.79,0,0,1,.25-3.28,6.33,6.33,0,0,1,.79-2.17,3.49,3.49,0,0,1,1.29-1.2,4.08,4.08,0,0,1,1.75-.34,3.81,3.81,0,0,1,1.74.34A3.33,3.33,0,0,1,295,5.32a6.33,6.33,0,0,1,.79,2.17,15.22,15.22,0,0,1,.29,3.28Zm15.78-1.37H315a7.65,7.65,0,0,1,2,.25,6.21,6.21,0,0,1,1.54.79,4.08,4.08,0,0,1,1,1.37,6.23,6.23,0,0,1,.33,2,4.56,4.56,0,0,1-.33,1.67,2.87,2.87,0,0,1-.88,1.24,3.17,3.17,0,0,1-1.41.84,5.4,5.4,0,0,1-1.87.29,4.76,4.76,0,0,1-1.71-.29,3.77,3.77,0,0,1-1.37-.79,3.59,3.59,0,0,1-.92-1.17,3.78,3.78,0,0,1-.33-1.54h-5.87a7.75,7.75,0,0,0,.88,3.79,7.86,7.86,0,0,0,2.29,2.66,9.78,9.78,0,0,0,3.2,1.58,14,14,0,0,0,3.7.5,14.93,14.93,0,0,0,4.16-.58,9.82,9.82,0,0,0,3.33-1.71,7.8,7.8,0,0,0,2.21-2.7,8.93,8.93,0,0,0,.79-3.7,7.32,7.32,0,0,0-1.25-4.25,7.22,7.22,0,0,0-3.71-2.66,9.61,9.61,0,0,0,1.92-1.21,9,9,0,0,0,1.41-1.49A8,8,0,0,0,325,9.32a7.65,7.65,0,0,0,.29-1.87,8.63,8.63,0,0,0-.75-3.67,7.52,7.52,0,0,0-2-2.62,9.63,9.63,0,0,0-3.16-1.62A15.73,15.73,0,0,0,315.23-1a12.52,12.52,0,0,0-3.78.58,10.48,10.48,0,0,0-3.08,1.62,8.12,8.12,0,0,0-2.08,2.54,7.37,7.37,0,0,0-.75,3.33h5.86a3,3,0,0,1,.34-1.37,3,3,0,0,1,.83-1A3.52,3.52,0,0,1,313.86,4a4.54,4.54,0,0,1,1.5-.25,4.8,4.8,0,0,1,1.79.29,3.3,3.3,0,0,1,1.24.79A2.89,2.89,0,0,1,319.14,6a4.29,4.29,0,0,1,.25,1.5,4.07,4.07,0,0,1-1.08,3A4.47,4.47,0,0,1,315,11.61h-3.12ZM341.42,14H330v4.7h11.44Zm24.36-2.33A19.17,19.17,0,0,0,365,5.91,10.07,10.07,0,0,0,363,2a7.61,7.61,0,0,0-3.16-2.25,11.45,11.45,0,0,0-8.15,0A7.49,7.49,0,0,0,348.56,2a10.07,10.07,0,0,0-2,3.91,19.17,19.17,0,0,0-.75,5.74v5.11a19.07,19.07,0,0,0,.75,5.7,11,11,0,0,0,2,4,7.59,7.59,0,0,0,3.16,2.24,10.76,10.76,0,0,0,4.07.75,10.59,10.59,0,0,0,4.08-.75A7.59,7.59,0,0,0,363,26.42a11,11,0,0,0,2-4,20.57,20.57,0,0,0,.71-5.7Zm-5.87,5.9a15,15,0,0,1-.29,3.33,6.37,6.37,0,0,1-.79,2.21,3,3,0,0,1-1.29,1.2,4.2,4.2,0,0,1-3.49,0,3,3,0,0,1-1.29-1.2,6.15,6.15,0,0,1-.83-2.21,18.31,18.31,0,0,1-.25-3.33V10.77a17.79,17.79,0,0,1,.25-3.28,6,6,0,0,1,.79-2.17A3.49,3.49,0,0,1,354,4.12a4.07,4.07,0,0,1,1.74-.34,3.86,3.86,0,0,1,1.75.34,3.31,3.31,0,0,1,1.33,1.2,6.13,6.13,0,0,1,.79,2.17,14.61,14.61,0,0,1,.29,3.28Zm29.72-5.9a19.52,19.52,0,0,0-.74-5.74,10.2,10.2,0,0,0-2-3.91,7.74,7.74,0,0,0-3.16-2.25A10.63,10.63,0,0,0,379.61-1a10.78,10.78,0,0,0-4.08.75A7.62,7.62,0,0,0,372.41,2a10.2,10.2,0,0,0-2,3.91,19.17,19.17,0,0,0-.75,5.74v5.11a19.07,19.07,0,0,0,.75,5.7,11.11,11.11,0,0,0,2,4,7.72,7.72,0,0,0,3.16,2.24,10.78,10.78,0,0,0,4.08.75,10.63,10.63,0,0,0,4.08-.75,7.65,7.65,0,0,0,3.16-2.24,11.11,11.11,0,0,0,2-4,21,21,0,0,0,.7-5.7Zm-5.86,5.9a15,15,0,0,1-.29,3.33,6.58,6.58,0,0,1-.79,2.21,3,3,0,0,1-1.29,1.2,4.22,4.22,0,0,1-3.5,0,3,3,0,0,1-1.29-1.2,6.55,6.55,0,0,1-.83-2.21,18.31,18.31,0,0,1-.25-3.33V10.77a17.79,17.79,0,0,1,.25-3.28,6.33,6.33,0,0,1,.79-2.17,3.57,3.57,0,0,1,1.29-1.2,4.08,4.08,0,0,1,1.75-.34,3.88,3.88,0,0,1,1.75.34,3.37,3.37,0,0,1,1.33,1.2,6.33,6.33,0,0,1,.79,2.17,14.61,14.61,0,0,1,.29,3.28Z" transform="translate(0 1)"></path><path class="cls-2" d="M307.92,54.83H285.17V57h10.15V84.41h2.49V57h10.11Zm6.93,7.61h-2.46v22h2.46Zm-2.46-5.2a1.78,1.78,0,0,0,1.25.46,1.69,1.69,0,0,0,1.21-.46,1.52,1.52,0,0,0,.45-1.16,1.49,1.49,0,0,0-.45-1.17,1.57,1.57,0,0,0-1.21-.5,1.64,1.64,0,0,0-1.25.5,1.61,1.61,0,0,0-.41,1.17,1.65,1.65,0,0,0,.41,1.16ZM326.32,82a7,7,0,0,1-2.16-2A8.67,8.67,0,0,1,323,77.21a14.63,14.63,0,0,1-.37-3.37V73a14.94,14.94,0,0,1,.37-3.37,7.76,7.76,0,0,1,1.21-2.83,6.16,6.16,0,0,1,2.12-2,6.94,6.94,0,0,1,3.2-.7,7.2,7.2,0,0,1,2.33.37,6.47,6.47,0,0,1,1.92,1.17,5.85,5.85,0,0,1,1.33,1.79,6.19,6.19,0,0,1,.54,2.41H338a9.63,9.63,0,0,0-.75-3.25,7.75,7.75,0,0,0-1.83-2.45,7.5,7.5,0,0,0-2.62-1.58,9.28,9.28,0,0,0-3.29-.54,9.41,9.41,0,0,0-4,.83,8.57,8.57,0,0,0-3,2.33,10.77,10.77,0,0,0-1.79,3.49,16,16,0,0,0-.58,4.33v.83a16.18,16.18,0,0,0,.58,4.33,10.77,10.77,0,0,0,1.79,3.49,8.37,8.37,0,0,0,3,2.29,8.86,8.86,0,0,0,4,.87,10,10,0,0,0,3.21-.54,9.07,9.07,0,0,0,2.62-1.49A7.18,7.18,0,0,0,338,77.63h-2.37a5.22,5.22,0,0,1-.58,2.2,6.6,6.6,0,0,1-1.38,1.63,6.45,6.45,0,0,1-1.91,1,6.7,6.7,0,0,1-2.25.33,6.36,6.36,0,0,1-3.2-.7Z" transform="translate(0 1)"></path><line class="cls-3" x1="467.1" y1="585.84" x2="467.1" y2="1000"></line><line class="cls-3" x1="467.1" y1="231.52" x2="467.1" y2="539.58"></line><line class="cls-3" x1="233.18" y1="199.55" x2="393.92" y2="199.55"></line><path d="M519,796.24a8.07,8.07,0,0,0,0,10.06,6.1,6.1,0,0,0,4.72,1.93,5.51,5.51,0,0,0,3.16-.93,6.46,6.46,0,0,0,2.16-2.46,6.25,6.25,0,0,0,2.33,2.89,6,6,0,0,0,3.45,1,6.26,6.26,0,0,0,4.89-2,9.09,9.09,0,0,0,0-10.94,6.2,6.2,0,0,0-4.89-2.06,5.79,5.79,0,0,0-3.45,1.1,6.58,6.58,0,0,0-2.33,2.92,6.4,6.4,0,0,0-2.16-2.52,5.44,5.44,0,0,0-3.16-.93,6,6,0,0,0-4.72,1.93ZM538,798a5.27,5.27,0,0,1,0,6.62,4.18,4.18,0,0,1-3.15,1.19,4.42,4.42,0,0,1-3.26-1.23,4.29,4.29,0,0,1-1.23-3.25,4.56,4.56,0,0,1,1.26-3.29,4.38,4.38,0,0,1,3.23-1.27A4.21,4.21,0,0,1,538,798Zm-17.08.47a4.43,4.43,0,0,1,5.88,0,3.73,3.73,0,0,1,1.1,2.85,3.87,3.87,0,0,1-1.1,2.89,4,4,0,0,1-2.92,1.07,4,4,0,0,1-3-1.1,3.84,3.84,0,0,1-1.1-2.86,3.76,3.76,0,0,1,1.13-2.82Zm6.42-23.31c-3.43,0-5.92.67-7.55,1.87s-2.46,3-2.46,5.61.83,4.45,2.53,5.65,4.29,1.79,7.74,1.79h4c3.33,0,5.82-.66,7.51-1.89a7.5,7.5,0,0,0-.06-11.23c-1.73-1.2-4.32-1.8-7.85-1.8Zm4.68,3a11.05,11.05,0,0,1,5.42,1.12,4,4,0,0,1-.1,6.68,11.16,11.16,0,0,1-5.65,1.13h-4.82a11,11,0,0,1-5.35-1.09,3.63,3.63,0,0,1-1.73-3.36,3.67,3.67,0,0,1,1.76-3.39c1.17-.73,3-1.09,5.55-1.09Z" transform="translate(0 1)"></path><path d="M530,404l-.63-.8a4.92,4.92,0,0,1-.86-3.09,4.37,4.37,0,0,1,1.42-3.43,5.53,5.53,0,0,1,3.83-1.29,6,6,0,0,1,3.92,1.19,4.05,4.05,0,0,1,1.43,3.29,4.47,4.47,0,0,1-1,3.09,4.7,4.7,0,0,1-3.06,1.43v2.86a7,7,0,0,0,4.82-2.26,7.47,7.47,0,0,0,1.73-5.12,7.23,7.23,0,0,0-2.1-5.51,8.11,8.11,0,0,0-5.75-2,8.44,8.44,0,0,0-5.78,1.89,6.5,6.5,0,0,0-2.13,5.12,7.53,7.53,0,0,0,1,3.95l-6.44-.69v-9.57h-2.79v12.09l11.79,1.2Zm-12.39-26.13q.09,5.47,3.52,8.27t10,2.79h1.16a10.43,10.43,0,0,0,6.71-2.13,6.7,6.7,0,0,0,2.6-5.48,6.86,6.86,0,0,0-2.2-5.35,9.49,9.49,0,0,0-11.46-.13,6.16,6.16,0,0,0-2.16,4.92,6.36,6.36,0,0,0,2.12,5.08,8.54,8.54,0,0,1-5.64-2.39,8,8,0,0,1-2.07-5.58v-.57h-2.55Zm12.19.26A6,6,0,0,1,533.7,377a5.9,5.9,0,0,1,3.89,1.16,3.82,3.82,0,0,1,1.49,3.19,4,4,0,0,1-1.76,3.26,7.57,7.57,0,0,1-4.68,1.33h-1.1a4.57,4.57,0,0,1-2.29-1.8,4.78,4.78,0,0,1-.93-2.85,3.79,3.79,0,0,1,1.49-3.13Z" transform="translate(0 1)"></path><path d="M264.73,166.09l-1.63,3.29h2l1.2-2.43a8.29,8.29,0,0,0,3.09.57,7.92,7.92,0,0,0,4.15-1.1,7.68,7.68,0,0,0,2.82-3.19,10.38,10.38,0,0,0,1-4.62c0-3.45-1.06-6-3.16-7.71l1.67-3.32h-2L272.71,150a7.89,7.89,0,0,0-3.33-.7,7.5,7.5,0,0,0-7,4.32,10.42,10.42,0,0,0-1,4.62c0,3.62,1.13,6.21,3.32,7.84Zm1.06-12.56a4.58,4.58,0,0,1,5.75-1.23L266,163.56a7.26,7.26,0,0,1-1.56-4.95,8.12,8.12,0,0,1,1.36-5.08Zm8.58,5A7.84,7.84,0,0,1,273,163.3a4.43,4.43,0,0,1-3.62,1.76,4.66,4.66,0,0,1-2-.4L273,153.5a7.54,7.54,0,0,1,1.4,4.75Zm21.84,6.22H284.35l6.31-6.88c3-3.19,4.45-6,4.45-8.31a5.94,5.94,0,0,0-1.89-4.58,7.48,7.48,0,0,0-5.22-1.73,7.65,7.65,0,0,0-5.61,2,6.84,6.84,0,0,0-2.13,5.25h3a4.92,4.92,0,0,1,1.23-3.55,4.74,4.74,0,0,1,3.49-1.26,4,4,0,0,1,3,1.19,4.26,4.26,0,0,1,1.1,3,5.67,5.67,0,0,1-.67,2.66,18.23,18.23,0,0,1-2.52,3.35L280.72,165v2.16h15.49Zm18-11.5c0-3.42-.66-5.92-1.86-7.54a6.51,6.51,0,0,0-5.62-2.46c-2.56,0-4.45.83-5.65,2.52s-1.79,4.29-1.79,7.75v4c0,3.32.66,5.81,1.89,7.51a7.52,7.52,0,0,0,11.24-.07c1.19-1.73,1.79-4.32,1.79-7.84Zm-3,4.69a10.91,10.91,0,0,1-1.13,5.41,4,4,0,0,1-6.68-.1,11.26,11.26,0,0,1-1.13-5.65v-4.82a11,11,0,0,1,1.1-5.35,4.13,4.13,0,0,1,6.74,0c.73,1.16,1.1,3,1.1,5.55Zm17.62-14.36H326.3l-9.87,25.65H319Zm18.42,21.17H335.42l6.31-6.88c3-3.19,4.45-6,4.45-8.31a5.94,5.94,0,0,0-1.89-4.58,7.48,7.48,0,0,0-5.22-1.73,7.69,7.69,0,0,0-5.62,2,6.86,6.86,0,0,0-2.12,5.25h3a4.92,4.92,0,0,1,1.23-3.55,4.74,4.74,0,0,1,3.49-1.26,4,4,0,0,1,3,1.19,4.26,4.26,0,0,1,1.1,3,5.67,5.67,0,0,1-.67,2.66,18.23,18.23,0,0,1-2.52,3.35L331.79,165v2.16h15.49ZM362.87,145a7.15,7.15,0,0,0-5-1.76A7.23,7.23,0,0,0,352.8,145a6.1,6.1,0,0,0-1.92,4.72,5.5,5.5,0,0,0,.93,3.15,6.46,6.46,0,0,0,2.46,2.16,6.25,6.25,0,0,0-2.89,2.33,6,6,0,0,0-1,3.46,6.25,6.25,0,0,0,2,4.88,9.09,9.09,0,0,0,10.94,0,6.18,6.18,0,0,0,2.06-4.88,5.8,5.8,0,0,0-1.1-3.46,6.71,6.71,0,0,0-2.92-2.33,6.4,6.4,0,0,0,2.52-2.16,5.43,5.43,0,0,0,.93-3.15,6,6,0,0,0-1.93-4.72Zm-1.72,18.91a5.3,5.3,0,0,1-6.62,0,4.22,4.22,0,0,1-1.19-3.16,4.42,4.42,0,0,1,1.23-3.26,4.29,4.29,0,0,1,3.25-1.23,4.57,4.57,0,0,1,3.29,1.27,4.35,4.35,0,0,1,1.27,3.22,4.25,4.25,0,0,1-1.23,3.16Zm-.47-17.08a4,4,0,0,1,1.13,3,4.06,4.06,0,0,1-1.1,2.93,3.76,3.76,0,0,1-2.85,1.09,3.94,3.94,0,0,1-2.9-1.09,4.6,4.6,0,0,1,0-5.92,3.83,3.83,0,0,1,2.86-1.09,3.72,3.72,0,0,1,2.82,1.13Z" transform="translate(0 1)"></path><path class="cls-1" d="M321.18,969c23.59.8,42,4.43,42,8.79,0,4.93-23.73,9-51.79,9s-50.81-4-50.81-9c0-4.41,18.08-8.08,41.89-8.82m60.71,8.81v7.14s-16.94,6.92-50.81,5.61h-1c-33.87,1.31-50.81-5.61-50.81-5.61v-7.14m6.43,9v3.95s10.75,6.43,45.11,5.78m44.62-9.12v3.34s-10.75,6.44-45.1,5.78M302,964.38v14.3s7.82,3.46,19.79,0v-14.3m13.13-10.19s4.14.62,4,2.23v5.38c.69-1.75.34,2-6,2.47H290.65c-5.86.74-6-2.47-6-2.47v-5.38c-.18-1.61,4.26-2.23,4.26-2.23m33.24-411.32h0l2.34,97.7s-2.72,29.27,30.1,83.9L334.54,958.59s-7.41,2.39-21.42,2.72a102,102,0,0,1-23.87-3.22L269.19,724c32.83-54.63,30.1-83.9,30.1-83.9l2.34-97.7,10,.24Z" transform="translate(0 1)"></path><path class="cls-4" d="M321.18,969c23.59.8,42,4.43,42,8.79,0,4.93-23.73,9-51.79,9s-50.81-4-50.81-9c0-4.41,18.08-8.08,41.89-8.82m60.71,8.81v7.14s-16.94,6.92-50.81,5.61h-1c-33.87,1.31-50.81-5.61-50.81-5.61v-7.14m6.43,9v3.95s10.75,6.43,45.11,5.78m44.62-9.12v3.34s-10.75,6.44-45.1,5.78M302,964.38v14.3s7.82,3.46,19.79,0v-14.3m13.13-10.19s4.14.62,4,2.23v5.38c.69-1.75.34,2-6,2.47H290.65c-5.86.74-6-2.47-6-2.47v-5.38c-.18-1.61,4.26-2.23,4.26-2.23m33.24-411.32h0l2.34,97.7s-2.72,29.27,30.1,83.9L334.54,958.59s-7.41,2.39-21.42,2.72a102,102,0,0,1-23.87-3.22L269.19,724c32.83-54.63,30.1-83.9,30.1-83.9l2.34-97.7,10,.24,10.51.26Z" transform="translate(0 1)"></path><polygon class="cls-5" points="244.78 541.63 231.36 541.63 232.23 528.77 233.1 515.91 249.69 271.5 251.43 245.77 252.31 232.91 267.37 232.91 282.43 232.91 327.62 232.91 357.74 232.91 372.8 232.91 373.62 245.77 374.44 258.63 389.99 503.05 391.63 528.77 392.44 541.63 379.02 541.63 365.6 541.63 271.63 541.63 244.78 541.63"></polygon></svg> 