<?xml version="1.0" encoding="UTF-8"?> <svg xmlns="http://www.w3.org/2000/svg" id="Livello_1" data-name="Livello 1" viewBox="0 0 741.33 1000.49"><defs><style>.cls-1{fill:#fff;}.cls-2{fill:#231f20;}.cls-3,.cls-4{fill:none;stroke:#000;stroke-width:0.25px;}.cls-4{stroke-miterlimit:10;}</style></defs><title>Toc shade</title><rect class="cls-1" y="0.49" width="741.33" height="1000"></rect><path class="cls-2" d="M262.59.38H262L249.71,4.79V9.54l7-2.16V30.05h5.88ZM278.2,17.21h3.12a8.08,8.08,0,0,1,2,.25,6.11,6.11,0,0,1,1.55.79,4.25,4.25,0,0,1,.95,1.38,5.92,5.92,0,0,1,.34,2,4.37,4.37,0,0,1-.34,1.67,2.74,2.74,0,0,1-.87,1.25,3.19,3.19,0,0,1-1.42.83,5.14,5.14,0,0,1-1.87.29,4.55,4.55,0,0,1-1.71-.29,3.75,3.75,0,0,1-1.38-.79,3.46,3.46,0,0,1-.91-1.17,3.56,3.56,0,0,1-.34-1.54h-5.87a7.75,7.75,0,0,0,.87,3.79,7.91,7.91,0,0,0,2.29,2.67A10.15,10.15,0,0,0,277.86,30a14.12,14.12,0,0,0,3.71.5,14.64,14.64,0,0,0,4.17-.59,9.55,9.55,0,0,0,3.33-1.71,7.72,7.72,0,0,0,2.21-2.71,8.77,8.77,0,0,0,.79-3.7,6.91,6.91,0,0,0-5-6.92A10.08,10.08,0,0,0,289,13.63a10,10,0,0,0,1.42-1.5,8,8,0,0,0,.87-1.79,7.23,7.23,0,0,0,.3-1.88,8.66,8.66,0,0,0-.75-3.67,7.43,7.43,0,0,0-2.05-2.62A9.55,9.55,0,0,0,285.66.54,15.81,15.81,0,0,0,281.57,0a12.63,12.63,0,0,0-3.79.58,10.27,10.27,0,0,0-3.08,1.63,8.16,8.16,0,0,0-2.09,2.54,7.41,7.41,0,0,0-.75,3.34h5.88a3.05,3.05,0,0,1,.33-1.38,3,3,0,0,1,.83-1A3.65,3.65,0,0,1,280.2,5a4.29,4.29,0,0,1,1.5-.25,4.57,4.57,0,0,1,1.79.29,3.26,3.26,0,0,1,1.25.79A3.11,3.11,0,0,1,285.49,7a4.29,4.29,0,0,1,.25,1.5,4.14,4.14,0,0,1-1.08,3,4.5,4.5,0,0,1-3.34,1.13H278.2Zm37.86-4.54a19.24,19.24,0,0,0-.75-5.75A10.19,10.19,0,0,0,313.26,3,7.61,7.61,0,0,0,310.1.75a11.5,11.5,0,0,0-8.17,0A7.59,7.59,0,0,0,298.8,3a10.32,10.32,0,0,0-2,3.92,19.24,19.24,0,0,0-.75,5.75V17.8a19.23,19.23,0,0,0,.75,5.71,11.15,11.15,0,0,0,2,3.95A7.64,7.64,0,0,0,302,29.72a11.5,11.5,0,0,0,8.17,0,7.64,7.64,0,0,0,3.17-2.26,11.15,11.15,0,0,0,2-3.95,20.75,20.75,0,0,0,.71-5.71Zm-5.88,5.92a15.09,15.09,0,0,1-.29,3.33,6.58,6.58,0,0,1-.79,2.21,3.06,3.06,0,0,1-1.3,1.21,4.32,4.32,0,0,1-3.5,0A3,3,0,0,1,303,24.13a6.55,6.55,0,0,1-.83-2.21,18.38,18.38,0,0,1-.25-3.33v-6.8a18,18,0,0,1,.25-3.29A6.29,6.29,0,0,1,303,6.33a3.57,3.57,0,0,1,1.29-1.2A4.11,4.11,0,0,1,306,4.79a3.86,3.86,0,0,1,1.75.34,3.4,3.4,0,0,1,1.34,1.2,6.5,6.5,0,0,1,.79,2.17,14.76,14.76,0,0,1,.29,3.29ZM337.41.42h-6l-12.33,19.5.25,3.71h12.17v6.42h5.87V23.63h3.34V18.88h-3.34Zm-6.29,8.71.42-.71V18.88H325ZM355.6,15H344.14v4.71H355.6Zm8.61,10.42v4.92h.46a16.86,16.86,0,0,0,6.63-1.17A12.46,12.46,0,0,0,376,25.88a13.44,13.44,0,0,0,2.83-5.08,22,22,0,0,0,.92-6.63V12.09a15.4,15.4,0,0,0-.71-4.92,11.39,11.39,0,0,0-2-3.84A9.18,9.18,0,0,0,373.88.88,9.52,9.52,0,0,0,369.76,0a10,10,0,0,0-4.13.83,9.39,9.39,0,0,0-3.13,2.3,9.47,9.47,0,0,0-2,3.29,11.94,11.94,0,0,0-.71,4.08,13.21,13.21,0,0,0,.55,4A9.45,9.45,0,0,0,362,17.59a8.48,8.48,0,0,0,2.71,2.12,8.9,8.9,0,0,0,3.75.75,7,7,0,0,0,2.92-.62,8,8,0,0,0,2.42-1.63,8.93,8.93,0,0,1-.75,3.09,6,6,0,0,1-1.75,2.25A8.05,8.05,0,0,1,368.51,25a14.69,14.69,0,0,1-3.88.46Zm3.8-9.87a4.16,4.16,0,0,1-1.3-1.21,5,5,0,0,1-.79-1.75,8.73,8.73,0,0,1-.25-2.17,8.4,8.4,0,0,1,.25-2.08,5.37,5.37,0,0,1,.79-1.84A3.64,3.64,0,0,1,368,5.25a3.12,3.12,0,0,1,1.75-.5,3.88,3.88,0,0,1,1.67.38,4.81,4.81,0,0,1,1.33,1.16,6.24,6.24,0,0,1,.88,2,10.64,10.64,0,0,1,.29,2.75v2.42a4.78,4.78,0,0,1-1.54,1.79,4.27,4.27,0,0,1-2.46.71,3.88,3.88,0,0,1-1.87-.41ZM398.24.38h-.63L385.36,4.79V9.54l7-2.16V30.05h5.88Z"></path><polygon class="cls-2" points="227.34 69.6 213.55 69.6 213.55 58.06 229.38 58.06 229.38 55.93 211.05 55.93 211.05 85.56 213.55 85.56 213.55 71.73 227.34 71.73 227.34 69.6"></polygon><path class="cls-2" d="M249.7,85.56v-.25a6.57,6.57,0,0,1-.29-.91c-.09-.34-.13-.71-.21-1.09s-.09-.75-.13-1.16,0-.8,0-1.17V70.31a8,8,0,0,0-.58-3.13,6.25,6.25,0,0,0-1.67-2.25,7.22,7.22,0,0,0-2.5-1.33,11.52,11.52,0,0,0-6.71.08,9.86,9.86,0,0,0-2.67,1.46,6.87,6.87,0,0,0-1.71,2.09,4.83,4.83,0,0,0-.58,2.37l2.42,0a3.57,3.57,0,0,1,.46-1.75,4.63,4.63,0,0,1,1.2-1.41,5.59,5.59,0,0,1,1.88-.92,7,7,0,0,1,2.33-.38,5.89,5.89,0,0,1,4.25,1.38,4.78,4.78,0,0,1,1.46,3.71v2.5h-4.5a18.46,18.46,0,0,0-4.21.46,9.72,9.72,0,0,0-3.17,1.41,6.34,6.34,0,0,0-2,2.17,6.27,6.27,0,0,0-.66,2.92,6,6,0,0,0,.5,2.46,5.79,5.79,0,0,0,1.41,2,6.76,6.76,0,0,0,2.26,1.33,9.29,9.29,0,0,0,2.91.46,10.77,10.77,0,0,0,2.42-.29,13.66,13.66,0,0,0,2.08-.75,7.9,7.9,0,0,0,1.67-1.13,6.23,6.23,0,0,0,1.29-1.33c0,.58.09,1.12.17,1.71a5.62,5.62,0,0,0,.33,1.37Zm-12.3-2.08a4.94,4.94,0,0,1-1.58-.92,3.51,3.51,0,0,1-1-1.37,3.79,3.79,0,0,1-.38-1.67,4.06,4.06,0,0,1,.55-2,4.18,4.18,0,0,1,1.58-1.54,7.63,7.63,0,0,1,2.5-1,13.46,13.46,0,0,1,3.34-.34h4.16v4.84a7.35,7.35,0,0,1-1.08,1.71A8.46,8.46,0,0,1,244,82.56a8.28,8.28,0,0,1-2,.92,9.14,9.14,0,0,1-2.46.33,6.14,6.14,0,0,1-2-.33Zm35.82-9.13a17.34,17.34,0,0,0-.54-4.62A10.23,10.23,0,0,0,271,66.18a8.28,8.28,0,0,0-10.29-2.08,7.64,7.64,0,0,0-2.79,2.63V54.31h-2.42V85.56h2.25l.13-3a7.91,7.91,0,0,0,2.79,2.5,9.07,9.07,0,0,0,4.17.92,7.55,7.55,0,0,0,3.54-.83,8.34,8.34,0,0,0,2.66-2.3,10.89,10.89,0,0,0,1.63-3.54,16.93,16.93,0,0,0,.54-4.54Zm-2.42.42a16,16,0,0,1-.37,3.58,9,9,0,0,1-1.17,2.88,5.51,5.51,0,0,1-4.87,2.62,7.78,7.78,0,0,1-2.3-.33,6.45,6.45,0,0,1-1.83-.87,5.86,5.86,0,0,1-1.37-1.3,9.27,9.27,0,0,1-1-1.66V69.77a9,9,0,0,1,.83-1.67,6.57,6.57,0,0,1,1.33-1.46,6.11,6.11,0,0,1,1.84-1,7,7,0,0,1,2.41-.37,5.41,5.41,0,0,1,2.92.71,5.49,5.49,0,0,1,2,1.91,9,9,0,0,1,1.13,2.88,16.26,16.26,0,0,1,.37,3.58Zm18-11.38a6.29,6.29,0,0,0-.71-.17,7.14,7.14,0,0,0-.92-.08,6.31,6.31,0,0,0-3.75,1A7.63,7.63,0,0,0,281,67.06l0-3.5h-2.37v22H281V70.43a10.7,10.7,0,0,1,.84-2,5.82,5.82,0,0,1,1.29-1.54,5.22,5.22,0,0,1,1.75-1,6.4,6.4,0,0,1,2.25-.37,10.27,10.27,0,0,1,1.62.12Zm6.49.17h-2.46v22h2.46Zm-2.46-5.21a1.76,1.76,0,0,0,1.25.46,1.69,1.69,0,0,0,1.21-.46,1.54,1.54,0,0,0,.45-1.17,1.5,1.5,0,0,0-.45-1.17,1.57,1.57,0,0,0-1.21-.5,1.63,1.63,0,0,0-1.25.5,1.59,1.59,0,0,0-.42,1.17,1.64,1.64,0,0,0,.42,1.17Zm13.95,24.84a7,7,0,0,1-2.17-2,8.85,8.85,0,0,1-1.17-2.88A14.69,14.69,0,0,1,303.1,75v-.84a14.94,14.94,0,0,1,.37-3.37,8,8,0,0,1,1.21-2.84,6.19,6.19,0,0,1,2.13-2,7,7,0,0,1,3.21-.7,7.2,7.2,0,0,1,2.33.37,6.34,6.34,0,0,1,1.92,1.17,5.7,5.7,0,0,1,1.33,1.79,6.11,6.11,0,0,1,.54,2.42h2.38a9.57,9.57,0,0,0-.75-3.25,8,8,0,0,0-4.46-4.05A10.27,10.27,0,0,0,306,64a8.72,8.72,0,0,0-3,2.34,10.65,10.65,0,0,0-1.8,3.5,16,16,0,0,0-.58,4.33V75a16.18,16.18,0,0,0,.58,4.33,10.55,10.55,0,0,0,1.8,3.5,8.37,8.37,0,0,0,3,2.29,8.78,8.78,0,0,0,4,.88,10.29,10.29,0,0,0,3.21-.54,9.19,9.19,0,0,0,2.62-1.5,7.26,7.26,0,0,0,1.88-2.29,7.35,7.35,0,0,0,.79-2.88h-2.38a5.31,5.31,0,0,1-.58,2.21,6.31,6.31,0,0,1-1.37,1.62,6.41,6.41,0,0,1-1.92,1,6.71,6.71,0,0,1-2.25.34,6.4,6.4,0,0,1-3.21-.71Zm43.44-2.63a4.49,4.49,0,0,1-1.55,1.75,6.73,6.73,0,0,1-2.41,1.13,10.78,10.78,0,0,1-3.13.41,13,13,0,0,1-3.08-.37,7.84,7.84,0,0,1-2.75-1.13,6.6,6.6,0,0,1-2-2.08,5.88,5.88,0,0,1-.79-3.17h-2.5a8.68,8.68,0,0,0,.45,2.84,7.73,7.73,0,0,0,1.25,2.25,7.32,7.32,0,0,0,1.84,1.71,12.31,12.31,0,0,0,2.29,1.16,12.89,12.89,0,0,0,2.58.67,13.89,13.89,0,0,0,2.67.25,14.1,14.1,0,0,0,4-.54,10,10,0,0,0,3.25-1.54,7.23,7.23,0,0,0,2.09-2.42,6.49,6.49,0,0,0,.79-3.25,6.77,6.77,0,0,0-.67-3.13,6.6,6.6,0,0,0-1.91-2.41,11.71,11.71,0,0,0-3.09-1.84,34.85,34.85,0,0,0-4.17-1.42,30.86,30.86,0,0,1-3.75-1.25,11.17,11.17,0,0,1-2.5-1.41A5.23,5.23,0,0,1,336,65.1a4.48,4.48,0,0,1-.42-2A5.24,5.24,0,0,1,336,61a5.16,5.16,0,0,1,1.42-1.75,8.2,8.2,0,0,1,2.33-1.17,10.77,10.77,0,0,1,3.21-.42,9.73,9.73,0,0,1,3.25.5,7.23,7.23,0,0,1,2.42,1.38,6.62,6.62,0,0,1,1.5,2.12,7.37,7.37,0,0,1,.5,2.71h2.5a7.91,7.91,0,0,0-.71-3.46,7.79,7.79,0,0,0-2-2.83,9.56,9.56,0,0,0-3.17-1.88,12.38,12.38,0,0,0-4.25-.71,13.27,13.27,0,0,0-4,.59,10.06,10.06,0,0,0-3.17,1.54,7.6,7.6,0,0,0-2,2.42,6.65,6.65,0,0,0-.75,3.12,6.45,6.45,0,0,0,.71,3.05,7.17,7.17,0,0,0,1.92,2.29,13.33,13.33,0,0,0,3,1.75,34,34,0,0,0,4,1.37,34.21,34.21,0,0,1,3.88,1.3A10.24,10.24,0,0,1,349,74.39a4.46,4.46,0,0,1,1.37,1.71,6,6,0,0,1,.38,2.17,4.69,4.69,0,0,1-.54,2.29Zm10.27-26.25H358.1V85.56h2.42V70.48a9.27,9.27,0,0,1,1-1.92,7,7,0,0,1,1.38-1.71,7.28,7.28,0,0,1,1.88-1.17,6.18,6.18,0,0,1,2.37-.41,7.17,7.17,0,0,1,2.17.29,3.58,3.58,0,0,1,1.62,1,4.89,4.89,0,0,1,1.05,1.83,9.46,9.46,0,0,1,.37,2.88V85.56h2.42V71.23a12.2,12.2,0,0,0-.5-3.71,6.81,6.81,0,0,0-1.38-2.5,5.08,5.08,0,0,0-2.21-1.42,8.22,8.22,0,0,0-3-.46,8,8,0,0,0-4.16,1.13,8.17,8.17,0,0,0-1.67,1.29,8.61,8.61,0,0,0-1.33,1.71Zm36.94,31.25v-.25a8.28,8.28,0,0,1-.29-.91c-.08-.34-.13-.71-.21-1.09s-.08-.75-.12-1.16a9.56,9.56,0,0,1,0-1.17V70.31a7.84,7.84,0,0,0-.58-3.13,6.25,6.25,0,0,0-1.67-2.25A7.14,7.14,0,0,0,392,63.6a11.52,11.52,0,0,0-6.71.08,9.79,9.79,0,0,0-2.66,1.46A6.72,6.72,0,0,0,381,67.23a4.74,4.74,0,0,0-.59,2.37l2.42,0a3.68,3.68,0,0,1,.46-1.75,4.67,4.67,0,0,1,1.21-1.41,5.54,5.54,0,0,1,1.87-.92,7,7,0,0,1,2.34-.38,5.92,5.92,0,0,1,4.25,1.38,4.78,4.78,0,0,1,1.46,3.71v2.5h-4.5a18.39,18.39,0,0,0-4.21.46,9.62,9.62,0,0,0-3.17,1.41,6.24,6.24,0,0,0-2,2.17,6.51,6.51,0,0,0-.17,5.38,6,6,0,0,0,1.42,2A6.61,6.61,0,0,0,384,85.52a9.31,9.31,0,0,0,2.92.46,10.75,10.75,0,0,0,2.41-.29,14.2,14.2,0,0,0,2.09-.75,8.09,8.09,0,0,0,1.66-1.13,6.28,6.28,0,0,0,1.3-1.33c0,.58.08,1.12.16,1.71a5.59,5.59,0,0,0,.34,1.37Zm-12.29-2.08a4.88,4.88,0,0,1-1.59-.92,3.62,3.62,0,0,1-1-1.37,3.78,3.78,0,0,1-.37-1.67,4.16,4.16,0,0,1,.54-2,4.33,4.33,0,0,1,1.58-1.54,7.6,7.6,0,0,1,2.51-1,13.38,13.38,0,0,1,3.33-.34h4.17v4.84a7.39,7.39,0,0,1-1.09,1.71,8.46,8.46,0,0,1-1.58,1.37,8.21,8.21,0,0,1-2,.92,9.2,9.2,0,0,1-2.46.33,6.1,6.1,0,0,1-2-.33Zm17.15-8.71a15.42,15.42,0,0,0,.58,4.54,11,11,0,0,0,1.67,3.54,8.34,8.34,0,0,0,2.66,2.3,7.68,7.68,0,0,0,3.55.83,8.75,8.75,0,0,0,4.08-.88,8.22,8.22,0,0,0,2.79-2.45l.09,2.91H420V54.31h-2.42V66.64a8.28,8.28,0,0,0-2.79-2.58,8.07,8.07,0,0,0-4-.92,7.57,7.57,0,0,0-3.55.79,8,8,0,0,0-2.7,2.25,11,11,0,0,0-1.67,3.55,15.8,15.8,0,0,0-.58,4.62Zm2.45-.42a16.24,16.24,0,0,1,.38-3.58,9,9,0,0,1,1.17-2.88,5.49,5.49,0,0,1,2-1.91,5.41,5.41,0,0,1,2.92-.71,7.84,7.84,0,0,1,2.33.33,6.46,6.46,0,0,1,1.79,1,5.71,5.71,0,0,1,1.29,1.37,9.15,9.15,0,0,1,.92,1.63V79.9a8.9,8.9,0,0,1-1,1.58,5.26,5.26,0,0,1-1.33,1.25,6.73,6.73,0,0,1-1.8.83,7.8,7.8,0,0,1-2.25.29,5.72,5.72,0,0,1-2.87-.7,5.6,5.6,0,0,1-2-1.92,9,9,0,0,1-1.17-2.88,16,16,0,0,1-.38-3.58Zm32.86,11.3a8.54,8.54,0,0,0,3.84-2.05,10.75,10.75,0,0,0,1.29-1.54l-1.54-1.12a7.22,7.22,0,0,1-2.71,2.25,7.68,7.68,0,0,1-3.46.71,6.91,6.91,0,0,1-3.08-.67,7.35,7.35,0,0,1-2.38-1.88,8.18,8.18,0,0,1-1.54-2.75,10.15,10.15,0,0,1-.54-3.41v-.46h15.71v-1.5a14.15,14.15,0,0,0-.58-4A9,9,0,0,0,441,66a8,8,0,0,0-2.75-2.09,8.68,8.68,0,0,0-3.71-.75,8.25,8.25,0,0,0-3.59.79,10.19,10.19,0,0,0-3,2.25,10.56,10.56,0,0,0-2.08,3.5,13.5,13.5,0,0,0-.75,4.63v.88a12.12,12.12,0,0,0,.75,4.33,9.86,9.86,0,0,0,2,3.42A8.75,8.75,0,0,0,431,85.15a9.51,9.51,0,0,0,4,.83,10.24,10.24,0,0,0,2.66-.33Zm-.41-19.84a7,7,0,0,1,2,1.58,7.49,7.49,0,0,1,1.16,2.29,9.8,9.8,0,0,1,.46,2.71v.25H427.59a11.68,11.68,0,0,1,.79-3,7.71,7.71,0,0,1,1.46-2.33,7.2,7.2,0,0,1,2.08-1.54,6.57,6.57,0,0,1,2.59-.5,6.11,6.11,0,0,1,2.71.58Z"></path><path class="cls-3" d="M559.91,454V644.89M138.49,396.26H519.57M138.49,676.53H519.57"></path><path d="M623.37,561.8v-2.26a5.57,5.57,0,0,1,1.13-3.66,3.89,3.89,0,0,1,3.16-1.27,4.35,4.35,0,0,1,3.26,1.14,5.37,5.37,0,0,1,0,6.62,3.83,3.83,0,0,1-3,1.2v3a6,6,0,0,0,4.76-2.1,8.91,8.91,0,0,0-.06-10.82,6.46,6.46,0,0,0-5.06-2.1,5.82,5.82,0,0,0-3.5,1.07,6,6,0,0,0-2,3,6.14,6.14,0,0,0-2.16-2.73,5.21,5.21,0,0,0-3-1,6.46,6.46,0,0,0-5,1.9,8.45,8.45,0,0,0,.1,10.48,6,6,0,0,0,4.66,2.07v-3a3.86,3.86,0,0,1-2.93-1.13,4.29,4.29,0,0,1-1.13-3.13c0-2.77,1.4-4.16,4.16-4.16a3.81,3.81,0,0,1,3,1.23,5,5,0,0,1,1.13,3.36v2.26Z"></path><path d="M620.2,532.6c-3.42,0-5.92.66-7.55,1.86a6.53,6.53,0,0,0-2.47,5.63c0,2.56.84,4.46,2.53,5.66s4.3,1.8,7.76,1.8h4c3.33,0,5.83-.67,7.52-1.9A7.52,7.52,0,0,0,632,534.4c-1.73-1.2-4.33-1.8-7.86-1.8Zm4.7,3a11.1,11.1,0,0,1,5.43,1.14,4,4,0,0,1-.1,6.69,11.33,11.33,0,0,1-5.66,1.13h-4.83a11,11,0,0,1-5.36-1.1,3.61,3.61,0,0,1-1.73-3.36,3.68,3.68,0,0,1,1.76-3.4,10.77,10.77,0,0,1,5.56-1.1Z"></path><path d="M302.69,363.75,301.06,367h2l1.2-2.43a8.29,8.29,0,0,0,3.09.57,7.93,7.93,0,0,0,4.16-1.1,7.73,7.73,0,0,0,2.83-3.2,10.38,10.38,0,0,0,1-4.62c0-3.47-1.06-6.06-3.16-7.73l1.67-3.33h-2l-1.16,2.43a8,8,0,0,0-3.33-.69,7.5,7.5,0,0,0-7,4.32,10.36,10.36,0,0,0-1,4.63c0,3.63,1.13,6.23,3.33,7.86Zm1.07-12.59a4.31,4.31,0,0,1,3.59-1.76,4.46,4.46,0,0,1,2.16.53L304,361.22a7.3,7.3,0,0,1-1.56-5,8.1,8.1,0,0,1,1.37-5.1Zm8.58,5A7.8,7.8,0,0,1,311,361a4.42,4.42,0,0,1-3.63,1.77,4.8,4.8,0,0,1-2-.4L311,351.13a7.58,7.58,0,0,1,1.39,4.76Zm10.17-2.57.8-.63a5,5,0,0,1,3.09-.86,4.34,4.34,0,0,1,3.43,1.43,5.47,5.47,0,0,1,1.3,3.83,5.92,5.92,0,0,1-1.2,3.92,4,4,0,0,1-3.29,1.44,4.47,4.47,0,0,1-3.1-1,4.73,4.73,0,0,1-1.43-3.06h-2.86a7,7,0,0,0,2.26,4.83,7.5,7.5,0,0,0,5.13,1.73,7.23,7.23,0,0,0,5.52-2.1,8.16,8.16,0,0,0,2-5.76,8.45,8.45,0,0,0-1.9-5.79,6.53,6.53,0,0,0-5.13-2.13,7.48,7.48,0,0,0-4,1l.7-6.46h9.59v-2.79H321.31L320.11,353Zm29.77-2.73c0-3.42-.67-5.92-1.86-7.55a6.53,6.53,0,0,0-5.63-2.47c-2.56,0-4.46.84-5.66,2.53s-1.8,4.3-1.8,7.76v4c0,3.33.67,5.82,1.9,7.52a6.41,6.41,0,0,0,5.59,2.5,6.48,6.48,0,0,0,5.66-2.56c1.2-1.74,1.8-4.33,1.8-7.86Zm-3,4.7a10.93,10.93,0,0,1-1.13,5.42,4,4,0,0,1-6.69-.1,11.26,11.26,0,0,1-1.13-5.65V350.4a11,11,0,0,1,1.1-5.36,3.61,3.61,0,0,1,3.36-1.73,3.69,3.69,0,0,1,3.4,1.76c.73,1.17,1.09,3,1.09,5.56Z"></path><path d="M320.54,711.18q-5.49.09-8.28,3.52t-2.8,10v1.17a10.46,10.46,0,0,0,2.13,6.72,6.73,6.73,0,0,0,5.49,2.6,6.83,6.83,0,0,0,5.36-2.2,9.5,9.5,0,0,0,.14-11.48,6.17,6.17,0,0,0-4.93-2.17,6.37,6.37,0,0,0-5.1,2.13,8.55,8.55,0,0,1,2.4-5.66,7.94,7.94,0,0,1,5.59-2.06h.57v-2.56Zm-.26,12.21a6,6,0,0,1,1.16,3.9,5.88,5.88,0,0,1-1.16,3.89,3.8,3.8,0,0,1-3.2,1.5,4,4,0,0,1-3.26-1.76,7.63,7.63,0,0,1-1.33-4.7v-1.1a4.62,4.62,0,0,1,1.8-2.29,4.75,4.75,0,0,1,2.86-.93,3.79,3.79,0,0,1,3.13,1.49Zm22.58-2.53c0-3.43-.67-5.92-1.87-7.55a6.5,6.5,0,0,0-5.62-2.47c-2.56,0-4.46.84-5.66,2.53s-1.8,4.3-1.8,7.76v4c0,3.33.67,5.82,1.9,7.52a7.51,7.51,0,0,0,11.25-.07c1.2-1.73,1.8-4.32,1.8-7.85Zm-3,4.7a10.93,10.93,0,0,1-1.13,5.42,4,4,0,0,1-6.69-.1,11.28,11.28,0,0,1-1.13-5.66V720.4A11,11,0,0,1,332,715a3.61,3.61,0,0,1,3.36-1.73,3.66,3.66,0,0,1,3.39,1.76c.74,1.17,1.1,3,1.1,5.56Z"></path><polygon class="cls-1" points="484.41 456.74 174.16 456.74 141.8 642.11 516.28 642.11 484.41 456.74"></polygon><polygon class="cls-4" points="484.41 456.74 174.16 456.74 141.8 642.11 516.28 642.11 484.41 456.74 484.41 456.74"></polygon></svg> 