<?xml version="1.0" encoding="UTF-8"?> <svg xmlns="http://www.w3.org/2000/svg" id="Livello_1" data-name="Livello 1" viewBox="0 0 741.33 1000.49"><defs><style>.cls-1{fill:#fff;}.cls-2{fill:#231f20;}.cls-3,.cls-4,.cls-5{fill:none;stroke-width:0.25px;}.cls-3{stroke:#000;}.cls-4,.cls-5{stroke:#231f20;}.cls-4{stroke-miterlimit:10;stroke-dasharray:5 5;}</style></defs><title>Toc</title><rect class="cls-1" y="0.49" width="741.33" height="1000"></rect><path class="cls-2" d="M266.73.38h-.62L253.85,4.79V9.54l7-2.16V30.05h5.87Zm15.61,16.83h3.12a8.22,8.22,0,0,1,2.05.25,6.21,6.21,0,0,1,1.54.79,4.27,4.27,0,0,1,1,1.38,6.18,6.18,0,0,1,.33,2,4.56,4.56,0,0,1-.33,1.67,2.84,2.84,0,0,1-.88,1.25,3.14,3.14,0,0,1-1.42.83,5.14,5.14,0,0,1-1.87.29,4.55,4.55,0,0,1-1.71-.29,3.75,3.75,0,0,1-1.38-.79,3.48,3.48,0,0,1-1.25-2.71h-5.87a7.75,7.75,0,0,0,.87,3.79,8,8,0,0,0,2.29,2.67A10.26,10.26,0,0,0,282,30a14.12,14.12,0,0,0,3.71.5,14.64,14.64,0,0,0,4.17-.59,9.55,9.55,0,0,0,3.33-1.71,7.72,7.72,0,0,0,2.21-2.71,8.78,8.78,0,0,0,.8-3.7,6.91,6.91,0,0,0-5-6.92,10.32,10.32,0,0,0,1.91-1.21,10,10,0,0,0,1.42-1.5,8,8,0,0,0,.88-1.79,7.66,7.66,0,0,0,.29-1.88A8.66,8.66,0,0,0,295,4.79,7.43,7.43,0,0,0,293,2.17,9.46,9.46,0,0,0,289.8.54,15.81,15.81,0,0,0,285.71,0a12.63,12.63,0,0,0-3.79.58,10.27,10.27,0,0,0-3.08,1.63,8.16,8.16,0,0,0-2.09,2.54A7.41,7.41,0,0,0,276,8.09h5.88a3.05,3.05,0,0,1,.33-1.38,2.9,2.9,0,0,1,.84-1A3.52,3.52,0,0,1,284.34,5a4.29,4.29,0,0,1,1.5-.25,4.57,4.57,0,0,1,1.79.29,3.26,3.26,0,0,1,1.25.79A3.11,3.11,0,0,1,289.63,7a4.29,4.29,0,0,1,.25,1.5,4.09,4.09,0,0,1-1.08,3,4.5,4.5,0,0,1-3.34,1.13h-3.12Zm37.86-4.54a19.24,19.24,0,0,0-.75-5.75,10.32,10.32,0,0,0-2-3.92A7.71,7.71,0,0,0,314.24.75a11.5,11.5,0,0,0-8.17,0A7.59,7.59,0,0,0,302.94,3a10.32,10.32,0,0,0-2,3.92,19.24,19.24,0,0,0-.75,5.75V17.8a19.23,19.23,0,0,0,.75,5.71,11.15,11.15,0,0,0,2,3.95,7.64,7.64,0,0,0,3.17,2.26,10.79,10.79,0,0,0,4.09.75,10.63,10.63,0,0,0,4.08-.75,7.64,7.64,0,0,0,3.17-2.26,11.15,11.15,0,0,0,2-3.95,20.75,20.75,0,0,0,.71-5.71Zm-5.88,5.92a15.09,15.09,0,0,1-.29,3.33,6.58,6.58,0,0,1-.79,2.21A3,3,0,0,1,312,25.34a4.35,4.35,0,0,1-3.51,0,3,3,0,0,1-1.29-1.21,6.55,6.55,0,0,1-.83-2.21,18.38,18.38,0,0,1-.25-3.33v-6.8a18,18,0,0,1,.25-3.29,6.5,6.5,0,0,1,.79-2.17,3.57,3.57,0,0,1,1.29-1.2,4.11,4.11,0,0,1,1.75-.34,3.86,3.86,0,0,1,1.75.34,3.33,3.33,0,0,1,1.34,1.2A6.5,6.5,0,0,1,314,8.5a14.76,14.76,0,0,1,.29,3.29ZM341.55.42h-6l-12.33,19.5.25,3.71h12.17v6.42h5.87V23.63h3.34V18.88h-3.34Zm-6.29,8.71.42-.71V18.88h-6.59ZM359.74,15H348.28v4.71h11.46Zm24.41-2.33a19.24,19.24,0,0,0-.75-5.75,10.32,10.32,0,0,0-2-3.92A7.71,7.71,0,0,0,378.19.75,10.65,10.65,0,0,0,374.1,0,10.78,10.78,0,0,0,370,.75,7.59,7.59,0,0,0,366.89,3a10.32,10.32,0,0,0-2,3.92,19.24,19.24,0,0,0-.75,5.75V17.8a19.23,19.23,0,0,0,.75,5.71,11.15,11.15,0,0,0,2,3.95,7.64,7.64,0,0,0,3.17,2.26,10.83,10.83,0,0,0,4.09.75,10.63,10.63,0,0,0,4.08-.75,7.64,7.64,0,0,0,3.17-2.26,11.15,11.15,0,0,0,2-3.95,20.75,20.75,0,0,0,.71-5.71Zm-5.88,5.92a15.09,15.09,0,0,1-.29,3.33,6.58,6.58,0,0,1-.79,2.21,3,3,0,0,1-1.29,1.21,4.32,4.32,0,0,1-3.5,0,3.06,3.06,0,0,1-1.3-1.21,6.55,6.55,0,0,1-.83-2.21,18.38,18.38,0,0,1-.25-3.33v-6.8a18,18,0,0,1,.25-3.29,6.5,6.5,0,0,1,.79-2.17,3.57,3.57,0,0,1,1.29-1.2,4.14,4.14,0,0,1,1.75-.34,3.9,3.9,0,0,1,1.76.34,3.37,3.37,0,0,1,1.33,1.2A6.5,6.5,0,0,1,378,8.5a14.76,14.76,0,0,1,.29,3.29Zm29.78-5.92a19.24,19.24,0,0,0-.75-5.75,10.32,10.32,0,0,0-2-3.92A7.71,7.71,0,0,0,402.09.75a11.5,11.5,0,0,0-8.17,0A7.59,7.59,0,0,0,390.79,3a10.32,10.32,0,0,0-2,3.92,19.24,19.24,0,0,0-.75,5.75V17.8a19.23,19.23,0,0,0,.75,5.71,11.15,11.15,0,0,0,2,3.95A7.64,7.64,0,0,0,394,29.72a10.79,10.79,0,0,0,4.09.75,10.63,10.63,0,0,0,4.08-.75,7.64,7.64,0,0,0,3.17-2.26,11.15,11.15,0,0,0,2-3.95,20.75,20.75,0,0,0,.71-5.71Zm-5.88,5.92a15.09,15.09,0,0,1-.29,3.33,6.58,6.58,0,0,1-.79,2.21,3,3,0,0,1-1.29,1.21,4.35,4.35,0,0,1-3.51,0A3,3,0,0,1,395,24.13a6.55,6.55,0,0,1-.83-2.21,18.38,18.38,0,0,1-.25-3.33v-6.8a18,18,0,0,1,.25-3.29A6.5,6.5,0,0,1,395,6.33a3.57,3.57,0,0,1,1.29-1.2A4.11,4.11,0,0,1,398,4.79a3.86,3.86,0,0,1,1.75.34,3.33,3.33,0,0,1,1.34,1.2,6.5,6.5,0,0,1,.79,2.17,14.76,14.76,0,0,1,.29,3.29Z"></path><path class="cls-2" d="M320.2,55.93H297.4v2.13h10.17v27.5h2.5V58.06H320.2Zm.85,19a13.81,13.81,0,0,0,.71,4.46,10.25,10.25,0,0,0,2,3.5,9,9,0,0,0,3.08,2.3,10.27,10.27,0,0,0,8.09,0,9.52,9.52,0,0,0,3.12-2.3,10.87,10.87,0,0,0,2-3.5,13.81,13.81,0,0,0,.71-4.46v-.66a13.56,13.56,0,0,0-.71-4.42,10.66,10.66,0,0,0-2-3.54,9.52,9.52,0,0,0-3.12-2.3,10,10,0,0,0-4.09-.83,9.74,9.74,0,0,0-4,.83,9.52,9.52,0,0,0-3.12,2.3,10.66,10.66,0,0,0-2,3.54,13.56,13.56,0,0,0-.71,4.42Zm2.46-.66a11.44,11.44,0,0,1,.46-3.42,9.43,9.43,0,0,1,1.41-2.88,6.57,6.57,0,0,1,2.34-2,6.43,6.43,0,0,1,3.12-.75,6.76,6.76,0,0,1,3.21.75,6.57,6.57,0,0,1,2.34,2,9.43,9.43,0,0,1,1.41,2.88,11.46,11.46,0,0,1,.5,3.42v.66a11.54,11.54,0,0,1-.5,3.46,9.21,9.21,0,0,1-1.41,2.88,7.68,7.68,0,0,1-2.34,2,6.43,6.43,0,0,1-3.16.71,6.58,6.58,0,0,1-3.17-.71,7.68,7.68,0,0,1-2.34-2A9.21,9.21,0,0,1,324,78.35a11.53,11.53,0,0,1-.46-3.46Z"></path><path class="cls-2" d="M350.62,83.19a6.92,6.92,0,0,1-2.17-2,8.85,8.85,0,0,1-1.17-2.88,14.69,14.69,0,0,1-.37-3.37v-.84a14.94,14.94,0,0,1,.37-3.37,8,8,0,0,1,1.21-2.84,6.1,6.1,0,0,1,2.13-2,7,7,0,0,1,3.21-.7,7.2,7.2,0,0,1,2.33.37,6.34,6.34,0,0,1,1.92,1.17,5.7,5.7,0,0,1,1.33,1.79A6.11,6.11,0,0,1,360,71h2.38a9.57,9.57,0,0,0-.75-3.25,8,8,0,0,0-4.46-4.05,10.29,10.29,0,0,0-7.34.29,8.78,8.78,0,0,0-2.95,2.34,10.65,10.65,0,0,0-1.8,3.5,16,16,0,0,0-.58,4.33V75a16.18,16.18,0,0,0,.58,4.33,10.55,10.55,0,0,0,1.8,3.5,8.43,8.43,0,0,0,2.95,2.29,8.85,8.85,0,0,0,4.05.88,10.29,10.29,0,0,0,3.21-.54,9.19,9.19,0,0,0,2.62-1.5,7.26,7.26,0,0,0,1.88-2.29,7.35,7.35,0,0,0,.79-2.88H360a5.31,5.31,0,0,1-.58,2.21A6.15,6.15,0,0,1,358,82.6a6.24,6.24,0,0,1-1.91,1,6.71,6.71,0,0,1-2.25.34,6.4,6.4,0,0,1-3.21-.71Z"></path><path class="cls-3" d="M557.27,665.63V1000m1.38-543.95V647M137.24,398.34H518.32"></path><path d="M620.29,845.76l-.63-.8a4.92,4.92,0,0,1-.87-3.09,4.33,4.33,0,0,1,1.44-3.43,5.46,5.46,0,0,1,3.82-1.3,5.93,5.93,0,0,1,3.93,1.2,4,4,0,0,1,1.43,3.29,4.47,4.47,0,0,1-1,3.1,4.75,4.75,0,0,1-3.06,1.43V849a7,7,0,0,0,4.83-2.26,7.5,7.5,0,0,0,1.73-5.13,7.23,7.23,0,0,0-2.1-5.52,8.16,8.16,0,0,0-5.76-2,8.45,8.45,0,0,0-5.79,1.9,6.53,6.53,0,0,0-2.13,5.13,7.48,7.48,0,0,0,1,4l-6.46-.7v-9.59h-2.8V847l11.82,1.2Zm8.79-30.44v11.89l-6.89-6.33c-3.2-3-6-4.46-8.32-4.46a6,6,0,0,0-4.6,1.9,7.54,7.54,0,0,0-1.73,5.23,7.69,7.69,0,0,0,2,5.62,6.86,6.86,0,0,0,5.26,2.13v-3a4.94,4.94,0,0,1-3.56-1.23,4.74,4.74,0,0,1-1.26-3.49,4,4,0,0,1,1.19-3,4.26,4.26,0,0,1,3-1.1,5.68,5.68,0,0,1,2.67.67,18.72,18.72,0,0,1,3.36,2.53l9.12,8.19h2.16V815.32Z"></path><path d="M622.11,563.89v-2.27a5.63,5.63,0,0,1,1.13-3.66,3.94,3.94,0,0,1,3.17-1.26,4.36,4.36,0,0,1,3.26,1.13,5.41,5.41,0,0,1,0,6.62,3.83,3.83,0,0,1-3,1.2v3a6,6,0,0,0,4.76-2.1,8.89,8.89,0,0,0-.07-10.82,6.47,6.47,0,0,0-5.06-2.09,5.78,5.78,0,0,0-3.49,1.06,5.94,5.94,0,0,0-2,3,6.06,6.06,0,0,0-2.16-2.73,5.23,5.23,0,0,0-3-1,6.46,6.46,0,0,0-5,1.9,8.5,8.5,0,0,0,.1,10.49,6.08,6.08,0,0,0,4.67,2.06v-3a3.84,3.84,0,0,1-2.93-1.13,4.29,4.29,0,0,1-1.14-3.13c0-2.76,1.4-4.16,4.16-4.16a3.81,3.81,0,0,1,3,1.23,5,5,0,0,1,1.13,3.36v2.27Z"></path><path d="M619,534.68c-3.43,0-5.93.67-7.56,1.86s-2.46,3.07-2.46,5.63.83,4.46,2.53,5.66,4.29,1.8,7.76,1.8h4c3.33,0,5.83-.67,7.53-1.9a7.51,7.51,0,0,0-.07-11.25c-1.73-1.2-4.33-1.8-7.85-1.8Zm4.69,3a10.94,10.94,0,0,1,5.43,1.13,4,4,0,0,1-.1,6.69,11.31,11.31,0,0,1-5.66,1.13h-4.83a11,11,0,0,1-5.36-1.1,4.13,4.13,0,0,1,0-6.75c1.16-.74,3-1.1,5.56-1.1Z"></path><path d="M275.87,365.83l-1.63,3.3h2l1.2-2.44a8.29,8.29,0,0,0,3.09.57,8,8,0,0,0,4.17-1.1,7.85,7.85,0,0,0,2.83-3.19,10.58,10.58,0,0,0,1-4.63c0-3.46-1.06-6.06-3.16-7.72l1.67-3.33h-2l-1.17,2.43a7.89,7.89,0,0,0-3.33-.7,7.49,7.49,0,0,0-7,4.33,10.29,10.29,0,0,0-1,4.62c0,3.63,1.13,6.23,3.33,7.86Zm1.07-12.58a4.31,4.31,0,0,1,3.59-1.77,4.52,4.52,0,0,1,2.17.53l-5.56,11.29a7.24,7.24,0,0,1-1.57-5,8.05,8.05,0,0,1,1.37-5.09Zm8.59,5a7.78,7.78,0,0,1-1.34,4.79,4.42,4.42,0,0,1-3.63,1.77,4.8,4.8,0,0,1-2-.4l5.53-11.19a7.59,7.59,0,0,1,1.4,4.76Zm10.16-2.56.8-.64a5,5,0,0,1,3.09-.86,4.32,4.32,0,0,1,3.43,1.43,5.47,5.47,0,0,1,1.3,3.83,6,6,0,0,1-1.2,3.93,4,4,0,0,1-3.29,1.43,4.52,4.52,0,0,1-3.1-1,4.8,4.8,0,0,1-1.43-3.07h-2.86a7,7,0,0,0,2.26,4.83,7.5,7.5,0,0,0,5.13,1.73,7.23,7.23,0,0,0,5.52-2.1,8.14,8.14,0,0,0,2-5.76,8.45,8.45,0,0,0-1.9-5.79,6.53,6.53,0,0,0-5.13-2.13,7.48,7.48,0,0,0-4,1l.7-6.46h9.59v-2.79H294.49l-1.2,11.82ZM325.46,353c0-3.43-.67-5.93-1.86-7.56s-3.07-2.46-5.63-2.46-4.46.83-5.66,2.53-1.8,4.29-1.8,7.75v4c0,3.33.67,5.83,1.9,7.52a7.52,7.52,0,0,0,11.25-.06c1.2-1.73,1.8-4.33,1.8-7.86Zm-3,4.69a11,11,0,0,1-1.13,5.43,4,4,0,0,1-6.69-.1,11.33,11.33,0,0,1-1.13-5.66v-4.83a11,11,0,0,1,1.1-5.36,3.61,3.61,0,0,1,3.36-1.73,3.68,3.68,0,0,1,3.4,1.76c.73,1.17,1.09,3,1.09,5.56Zm17.66-14.38h-2.56L327.67,369h2.56Zm14.19,0c-3.66.06-6.43,1.23-8.29,3.53s-2.8,5.62-2.8,10v1.17a10.46,10.46,0,0,0,2.13,6.72,6.71,6.71,0,0,0,5.5,2.6,6.86,6.86,0,0,0,5.36-2.2,8.33,8.33,0,0,0,2-5.86,8.43,8.43,0,0,0-1.86-5.62,6.18,6.18,0,0,0-4.93-2.17,6.33,6.33,0,0,0-5.09,2.14,8.55,8.55,0,0,1,2.39-5.66,8,8,0,0,1,5.6-2.07h.56v-2.56ZM354,355.48a6,6,0,0,1,1.17,3.89,5.93,5.93,0,0,1-1.17,3.9,3.8,3.8,0,0,1-3.19,1.49,4,4,0,0,1-3.27-1.76,7.6,7.6,0,0,1-1.33-4.69v-1.1a4.6,4.6,0,0,1,1.8-2.3,4.83,4.83,0,0,1,2.86-.93,3.8,3.8,0,0,1,3.13,1.5ZM376.62,353c0-3.43-.66-5.93-1.86-7.56s-3.06-2.46-5.63-2.46-4.46.83-5.66,2.53-1.8,4.29-1.8,7.75v4c0,3.33.67,5.83,1.9,7.52a7.52,7.52,0,0,0,11.25-.06c1.2-1.73,1.8-4.33,1.8-7.86Zm-3,4.69a11.1,11.1,0,0,1-1.14,5.43,4,4,0,0,1-6.69-.1,11.33,11.33,0,0,1-1.13-5.66v-4.83a11,11,0,0,1,1.1-5.36,3.61,3.61,0,0,1,3.36-1.73,3.68,3.68,0,0,1,3.4,1.76,10.77,10.77,0,0,1,1.1,5.56Z"></path><polygon class="cls-4" points="470.23 458.82 483.15 458.82 485.81 474.27 488.47 489.72 507.06 597.85 512.37 628.75 515.02 644.2 501.65 644.2 488.28 644.2 180.67 644.2 153.92 644.2 140.54 644.2 143.24 628.75 145.94 613.3 164.82 505.17 170.22 474.27 172.91 458.82 185.84 458.82 198.76 458.82 444.37 458.82 470.23 458.82"></polygon><polygon class="cls-1" points="338.53 977.27 316.51 976.73 316.51 963.18 339.04 959.52 338.53 977.27"></polygon><polygon class="cls-1" points="332.75 953.33 322.78 953.33 295.91 656.35 359.64 656.35 332.75 953.33"></polygon><path class="cls-1" d="M359.65,656.35l2.53,48.92c-.31,10.67,9.84,14.64,9.84,14.64a123.19,123.19,0,0,1,74.76,110.51c1.64,68-51.76,124.46-119.28,126.12m.42-295.38c31.19-.19,31.64-6.54,31.64-6.54l-.21-7.2s2.46,7.15-31.57,8c-34-.83-31.57-8-31.57-8l-.21,7.2s.45,6.35,31.64,6.54Zm-32-4.81-2.54,48.92c.32,10.67-9.84,14.64-9.84,14.64a123.18,123.18,0,0,0-74.75,110.51c-1.64,68,51.75,124.46,119.28,126.12m-11-.83-.51,21s9.29,6.28,22,.54l.51-21m37.27,32.57-.09,4.48s-7.65,5.88-48.84,5.28l-2.28-.05c-41.19-1.17-48.57-7.38-48.57-7.38l.09-4.47m112.53-8.38-.17,7.49s-9.68,6.71-60,5.62l-2.86-.06c-50.33-1.08-59.73-8.2-59.73-8.2l.17-7.49m72.24-10.47c28.74,1.52,50.5,6.47,50.39,11.86-.12,6.05-27.68,10.36-61.53,9.63s-61.21-6.22-61.08-12.27c.11-5.4,22.12-9.41,51-9.68"></path><path class="cls-1" d="M359.65,656.35l2.53,48.92c-.31,10.67,9.84,14.64,9.84,14.64a123.19,123.19,0,0,1,74.76,110.51c1.64,68-51.76,124.46-119.28,126.12m.42-295.38c31.19-.19,31.64-6.54,31.64-6.54l-.21-7.2s2.46,7.15-31.57,8c-34-.83-31.57-8-31.57-8l-.21,7.2s.45,6.35,31.64,6.54Zm.14,295.38c-67.53-1.66-120.92-58.13-119.28-126.12a123.18,123.18,0,0,1,74.75-110.51s10.16-4,9.84-14.64l2.54-48.92M317,955.71l-.51,21s9.29,6.28,22,.54l.51-21m37.27,32.57-.09,4.48s-7.65,5.88-48.84,5.28l-2.28-.05c-41.19-1.17-48.57-7.38-48.57-7.38l.09-4.47m112.53-8.38-.17,7.49s-9.68,6.71-60,5.62l-2.86-.06c-50.33-1.08-59.73-8.2-59.73-8.2l.17-7.49m72.24-10.47c28.74,1.52,50.5,6.47,50.39,11.86-.12,6.05-27.68,10.36-61.53,9.63s-61.21-6.22-61.08-12.27c.11-5.4,22.12-9.41,51-9.68"></path><path class="cls-5" d="M359.65,656.35l2.53,48.92c-.31,10.67,9.84,14.64,9.84,14.64a123.19,123.19,0,0,1,74.76,110.51c1.64,68-51.76,124.46-119.28,126.12m.42-295.38c31.19-.19,31.64-6.54,31.64-6.54l-.21-7.2s2.46,7.15-31.57,8c-34-.83-31.57-8-31.57-8l-.21,7.2s.45,6.35,31.64,6.54Zm.14,295.38c-67.53-1.66-120.92-58.13-119.28-126.12a123.18,123.18,0,0,1,74.75-110.51s10.16-4,9.84-14.64l2.54-48.92M317,955.71l-.51,21s9.29,6.28,22,.54l.51-21m37.27,32.57-.09,4.48s-7.65,5.88-48.84,5.28l-2.28-.05c-41.19-1.17-48.57-7.38-48.57-7.38l.09-4.47m112.53-8.38-.17,7.49s-9.68,6.71-60,5.62l-2.86-.06c-50.33-1.08-59.73-8.2-59.73-8.2l.17-7.49m72.24-10.47c28.74,1.52,50.5,6.47,50.39,11.86-.12,6.05-27.68,10.36-61.53,9.63s-61.21-6.22-61.08-12.27c.11-5.4,22.12-9.41,51-9.68"></path></svg> 