<?xml version="1.0" encoding="UTF-8"?> <svg xmlns="http://www.w3.org/2000/svg" id="Livello_1" data-name="Livello 1" viewBox="0 0 1022.67 1000.49"><defs><style>.cls-1{fill:#fff;}.cls-2{fill:#231f20;}.cls-3,.cls-4{fill:none;stroke-width:0.25px;}.cls-3{stroke:#000;}.cls-4{stroke:#231f20;stroke-miterlimit:10;}</style></defs><title>Tosca shade floor</title><rect class="cls-1" y="0.49" width="1022.67" height="1000"></rect><path class="cls-2" d="M521.83,14.93A23.06,23.06,0,0,0,521,8.15a12.07,12.07,0,0,0-2.41-4.61A9,9,0,0,0,514.81.88,12.56,12.56,0,0,0,510,0a12.76,12.76,0,0,0-4.82.88,8.87,8.87,0,0,0-3.68,2.66,12.06,12.06,0,0,0-2.4,4.61,22.7,22.7,0,0,0-.89,6.78v6a22.47,22.47,0,0,0,.89,6.72,12.93,12.93,0,0,0,2.4,4.67A9,9,0,0,0,505.23,35a12.75,12.75,0,0,0,4.81.88,12.58,12.58,0,0,0,4.82-.88,9,9,0,0,0,3.73-2.65,12.93,12.93,0,0,0,2.4-4.67,24.34,24.34,0,0,0,.84-6.72Zm-6.92,7a17.66,17.66,0,0,1-.35,3.93,7.55,7.55,0,0,1-.93,2.6,3.44,3.44,0,0,1-1.52,1.42,5,5,0,0,1-4.13,0,3.44,3.44,0,0,1-1.52-1.42,7.52,7.52,0,0,1-1-2.6,21.74,21.74,0,0,1-.3-3.93v-8a21.08,21.08,0,0,1,.3-3.88,7.31,7.31,0,0,1,.93-2.56A4.17,4.17,0,0,1,507.93,6,4.78,4.78,0,0,1,510,5.65a4.49,4.49,0,0,1,2.06.39,3.94,3.94,0,0,1,1.57,1.42,7.31,7.31,0,0,1,.93,2.56,17.12,17.12,0,0,1,.35,3.88ZM544.29.15a18.33,18.33,0,0,0-7.51,1.42,15.75,15.75,0,0,0-5.6,3.93,18.24,18.24,0,0,0-3.49,6.09,24.13,24.13,0,0,0-1.17,7.71V22a17.15,17.15,0,0,0,.88,5.64A13,13,0,0,0,529.85,32a11.11,11.11,0,0,0,3.88,2.85,12.08,12.08,0,0,0,5.06,1,12.57,12.57,0,0,0,4.86-.93,11.24,11.24,0,0,0,3.73-2.55,10.88,10.88,0,0,0,2.36-3.78,13.66,13.66,0,0,0,.84-4.72,17.14,17.14,0,0,0-.64-4.56,11.15,11.15,0,0,0-1.87-3.78A9.15,9.15,0,0,0,545,13a9.54,9.54,0,0,0-4.37-1,10.09,10.09,0,0,0-4,.79,9.46,9.46,0,0,0-3,2.11,11.39,11.39,0,0,1,1.17-3.78A8.53,8.53,0,0,1,537,8.3a10.86,10.86,0,0,1,3.44-1.82,13.58,13.58,0,0,1,4.42-.64h.39V.15Zm-3.63,17.92a5.37,5.37,0,0,1,1.62,1.33,6.46,6.46,0,0,1,1,2,8.6,8.6,0,0,1,.34,2.55,8.71,8.71,0,0,1-.34,2.56,6.41,6.41,0,0,1-1,2,4.17,4.17,0,0,1-1.57,1.33,4.07,4.07,0,0,1-2.07.49,5,5,0,0,1-2.11-.45,4.81,4.81,0,0,1-1.67-1.37,7.78,7.78,0,0,1-1-2.31,13,13,0,0,1-.39-3.24V20.82a5.62,5.62,0,0,1,1.91-2.26,5.88,5.88,0,0,1,1.43-.69,5.19,5.19,0,0,1,1.72-.24,4.93,4.93,0,0,1,2.16.44Zm37.43-3.14a22.73,22.73,0,0,0-.88-6.78,11.93,11.93,0,0,0-2.41-4.61A9,9,0,0,0,571.07.88,12.49,12.49,0,0,0,566.26,0a12.67,12.67,0,0,0-4.81.88,8.81,8.81,0,0,0-3.68,2.66,11.93,11.93,0,0,0-2.41,4.61,22.73,22.73,0,0,0-.88,6.78v6a22.49,22.49,0,0,0,.88,6.72,12.94,12.94,0,0,0,2.41,4.67A8.93,8.93,0,0,0,561.5,35a12.67,12.67,0,0,0,4.81.88,12.49,12.49,0,0,0,4.81-.88,8.93,8.93,0,0,0,3.73-2.65,13.1,13.1,0,0,0,2.41-4.67,24.37,24.37,0,0,0,.83-6.72Zm-6.92,7a18.34,18.34,0,0,1-.34,3.93,7.54,7.54,0,0,1-.94,2.6,3.44,3.44,0,0,1-1.52,1.42,4.94,4.94,0,0,1-4.12,0,3.44,3.44,0,0,1-1.52-1.42,7.51,7.51,0,0,1-1-2.6,22.81,22.81,0,0,1-.29-3.93v-8a22.1,22.1,0,0,1,.29-3.88,7.3,7.3,0,0,1,.94-2.56A4.17,4.17,0,0,1,564.2,6a4.73,4.73,0,0,1,2.06-.39,4.47,4.47,0,0,1,2.06.39,3.94,3.94,0,0,1,1.57,1.42,7.3,7.3,0,0,1,.94,2.56,17.79,17.79,0,0,1,.34,3.88ZM599.57.44h-.73L584.4,5.65v5.59l8.25-2.55V35.4h6.92Zm25.12,17.24H611.18v5.55h13.51ZM634.83,30v5.8h.54a20,20,0,0,0,7.81-1.38,14.7,14.7,0,0,0,5.55-3.88,15.82,15.82,0,0,0,3.33-6,26,26,0,0,0,1.09-7.81V14.24a18.09,18.09,0,0,0-.84-5.79A13.13,13.13,0,0,0,650,3.93,10.82,10.82,0,0,0,646.22,1a11.29,11.29,0,0,0-4.86-1,11.71,11.71,0,0,0-4.86,1,10.89,10.89,0,0,0-3.68,2.7,11.18,11.18,0,0,0-2.36,3.88,14.17,14.17,0,0,0-.83,4.81,15.89,15.89,0,0,0,.63,4.67,11.09,11.09,0,0,0,2,3.68,9.87,9.87,0,0,0,3.19,2.51,10.6,10.6,0,0,0,4.42.88,8.18,8.18,0,0,0,3.44-.74,9.34,9.34,0,0,0,2.84-1.91,10,10,0,0,1-.88,3.63,6.89,6.89,0,0,1-2.06,2.65,9.45,9.45,0,0,1-3.29,1.67,17.41,17.41,0,0,1-4.57.54Zm4.47-11.63a4.71,4.71,0,0,1-1.52-1.43,5.63,5.63,0,0,1-.94-2.06,10.76,10.76,0,0,1-.29-2.55,10.55,10.55,0,0,1,.29-2.46,6.12,6.12,0,0,1,.94-2.16,4.14,4.14,0,0,1,1.47-1.47,3.58,3.58,0,0,1,2.06-.59,4.53,4.53,0,0,1,2,.44,6.07,6.07,0,0,1,1.57,1.37,7.65,7.65,0,0,1,1,2.36,12.89,12.89,0,0,1,.34,3.24v2.85A5.71,5.71,0,0,1,644.4,18a5,5,0,0,1-2.89.84,4.62,4.62,0,0,1-2.21-.49ZM682,29.81H667l6.14-6.49c1.18-1.22,2.26-2.35,3.19-3.48a24.24,24.24,0,0,0,2.46-3.29,15.76,15.76,0,0,0,1.52-3.24,9.91,9.91,0,0,0,.59-3.39,11.55,11.55,0,0,0-.74-4.18A8.42,8.42,0,0,0,678,2.65a9.89,9.89,0,0,0-3.53-2A16.58,16.58,0,0,0,669.52,0a12.85,12.85,0,0,0-5.06.93,11.25,11.25,0,0,0-3.78,2.46A10.86,10.86,0,0,0,658.22,7a12.49,12.49,0,0,0-.83,4.47h7a6.93,6.93,0,0,1,.35-2.36,5.51,5.51,0,0,1,.93-1.86A4.37,4.37,0,0,1,667.26,6a4.76,4.76,0,0,1,2.16-.44,4.28,4.28,0,0,1,3.34,1.32,5.4,5.4,0,0,1,1.18,3.69,4.47,4.47,0,0,1-.25,1.57A8.4,8.4,0,0,1,673,14a14.73,14.73,0,0,1-1.42,2.11,29.83,29.83,0,0,1-2.16,2.55l-11.29,12V35.4h24Z"></path><line class="cls-3" x1="419.14" y1="220.23" x2="419.14" y2="370.99"></line><line class="cls-3" x1="465.75" y1="179.96" x2="714.01" y2="179.96"></line><path d="M366.56,310.19v-2.67a6.6,6.6,0,0,1,1.33-4.31,4.62,4.62,0,0,1,3.73-1.49,5.14,5.14,0,0,1,3.84,1.33,6.36,6.36,0,0,1,0,7.81,4.52,4.52,0,0,1-3.49,1.41v3.57a7.05,7.05,0,0,0,5.61-2.47A9.38,9.38,0,0,0,379.7,307a9.26,9.26,0,0,0-2.2-6.39,7.6,7.6,0,0,0-6-2.47,6.87,6.87,0,0,0-4.12,1.25A7.13,7.13,0,0,0,365,303a7.17,7.17,0,0,0-2.55-3.21,6.1,6.1,0,0,0-3.53-1.18,7.58,7.58,0,0,0-5.84,2.24A8.78,8.78,0,0,0,351,307a8.87,8.87,0,0,0,2.2,6.16,7.1,7.1,0,0,0,5.49,2.43V312a4.52,4.52,0,0,1-3.45-1.33,5,5,0,0,1-1.34-3.69c0-3.25,1.65-4.9,4.9-4.9a4.53,4.53,0,0,1,3.5,1.45,6,6,0,0,1,1.33,4v2.67Zm-3.73-34.41c-4,0-7,.78-8.9,2.2s-2.9,3.6-2.9,6.62,1,5.26,3,6.67,5.06,2.12,9.14,2.12h4.74c3.93,0,6.87-.78,8.87-2.24s2.94-3.6,2.94-6.58-1-5.26-3-6.67-5.1-2.12-9.26-2.12Zm5.54,3.53a13,13,0,0,1,6.39,1.33,4.76,4.76,0,0,1-.12,7.89c-1.45.86-3.65,1.33-6.67,1.33h-5.68a13,13,0,0,1-6.32-1.29,4.29,4.29,0,0,1-2-4,4.34,4.34,0,0,1,2.08-4c1.37-.86,3.53-1.29,6.55-1.29Z"></path><path d="M542.87,129.69l.94-.75a5.85,5.85,0,0,1,3.65-1,5.12,5.12,0,0,1,4,1.69,6.47,6.47,0,0,1,1.53,4.51,7,7,0,0,1-1.41,4.63,4.78,4.78,0,0,1-3.89,1.68,5.25,5.25,0,0,1-3.64-1.21,5.59,5.59,0,0,1-1.69-3.61H539a8.27,8.27,0,0,0,2.66,5.69,8.82,8.82,0,0,0,6,2,8.55,8.55,0,0,0,6.52-2.48,9.64,9.64,0,0,0,2.31-6.78,10,10,0,0,0-2.24-6.83,7.7,7.7,0,0,0-6-2.51,8.83,8.83,0,0,0-4.66,1.22l.82-7.61h11.3v-3.29H541.46L540.05,129ZM578,126.47c0-4-.79-7-2.2-8.9s-3.61-2.91-6.63-2.91-5.25,1-6.67,3-2.11,5.06-2.11,9.14v4.75c0,3.92.78,6.86,2.23,8.86s3.61,3,6.59,3,5.26-1,6.67-3,2.12-5.09,2.12-9.25ZM574.42,132c0,2.9-.51,5.06-1.34,6.39a4.75,4.75,0,0,1-7.88-.11,13.35,13.35,0,0,1-1.33-6.67v-5.69a13,13,0,0,1,1.29-6.31,4.26,4.26,0,0,1,4-2,4.31,4.31,0,0,1,4,2.07c.87,1.38,1.3,3.53,1.3,6.56Zm10.87-9.77h-4.11L588,132.47l-7,10.47h4.12l4.78-7.76,4.79,7.76h4.12l-7-10.47,6.78-10.24h-4.12l-4.59,7.57Zm35,17.81h-14l7.45-8.12c3.53-3.76,5.26-7.06,5.26-9.8a7,7,0,0,0-2.24-5.42,8.86,8.86,0,0,0-6.16-2,9.06,9.06,0,0,0-6.63,2.4,8.08,8.08,0,0,0-2.51,6.19H605a5.81,5.81,0,0,1,1.45-4.19,5.61,5.61,0,0,1,4.12-1.49,4.67,4.67,0,0,1,3.53,1.41,5,5,0,0,1,1.3,3.57,6.8,6.8,0,0,1-.79,3.14,22.37,22.37,0,0,1-3,4L602,140.39v2.55h18.28Zm21.27-13.57c0-4-.78-7-2.2-8.9s-3.6-2.91-6.62-2.91-5.26,1-6.67,3-2.12,5.06-2.12,9.14v4.75c0,3.92.78,6.86,2.24,8.86s3.6,3,6.58,3,5.26-1,6.67-3,2.12-5.09,2.12-9.25ZM638,132c0,2.9-.51,5.06-1.33,6.39a4.76,4.76,0,0,1-7.89-.11,13.35,13.35,0,0,1-1.33-6.67v-5.69a13,13,0,0,1,1.29-6.31,4.27,4.27,0,0,1,4-2,4.33,4.33,0,0,1,4,2.07c.86,1.38,1.29,3.53,1.29,6.56Z"></path><path class="cls-1" d="M709.38,370.16h-239a3.79,3.79,0,0,1-3.81-3.77V225.64a3.8,3.8,0,0,1,3.81-3.78h239a3.8,3.8,0,0,1,3.81,3.78V366.39a3.79,3.79,0,0,1-3.81,3.77m2.42-145.53H468a1.39,1.39,0,1,1,0-2.77H711.8a1.39,1.39,0,1,1,0,2.77m.38,1.24v143a1.26,1.26,0,0,1-1.26,1.25h-.28a1.26,1.26,0,0,1-1.26-1.25v-143a1.26,1.26,0,0,1,1.26-1.24h.28a1.26,1.26,0,0,1,1.26,1.24m-241.3.11V368.81a1.37,1.37,0,0,1-1.37,1.35H469a1.36,1.36,0,0,1-1.36-1.35V226a1.36,1.36,0,0,1,1.36-1.35h.56a1.37,1.37,0,0,1,1.37,1.35"></path><path class="cls-4" d="M709.38,370.16h-239a3.79,3.79,0,0,1-3.81-3.77V225.64a3.8,3.8,0,0,1,3.81-3.78h239a3.8,3.8,0,0,1,3.81,3.78V366.39a3.79,3.79,0,0,1-3.81,3.77Zm2.42-145.53H468a1.39,1.39,0,1,1,0-2.77H711.8a1.39,1.39,0,1,1,0,2.77Zm.38,1.24v143a1.26,1.26,0,0,1-1.26,1.25h-.28a1.26,1.26,0,0,1-1.26-1.25v-143a1.26,1.26,0,0,1,1.26-1.24h.28a1.26,1.26,0,0,1,1.26,1.24Zm-241.3.11V368.81a1.37,1.37,0,0,1-1.37,1.35H469a1.36,1.36,0,0,1-1.36-1.35V226a1.36,1.36,0,0,1,1.36-1.35h.56a1.37,1.37,0,0,1,1.37,1.35Z"></path></svg> 