<?xml version="1.0" encoding="UTF-8"?> <svg xmlns="http://www.w3.org/2000/svg" id="Livello_1" data-name="Livello 1" viewBox="0 0 1022.67 1000.49"><defs><style>.cls-1{fill:#fff;}.cls-2{fill:#231f20;}.cls-3,.cls-4{fill:none;stroke-width:0.25px;}.cls-3{stroke:#000;}.cls-4{stroke:#231f20;stroke-miterlimit:10;}</style></defs><title>Tosca tavolo grande</title><rect class="cls-1" y="0.49" width="1022.67" height="1000"></rect><path class="cls-2" d="M253.08,25.72a38.86,38.86,0,0,0-1.53-11.67,20.77,20.77,0,0,0-4.14-8A15.62,15.62,0,0,0,241,1.52,21.74,21.74,0,0,0,232.69,0a22.05,22.05,0,0,0-8.3,1.52,15.34,15.34,0,0,0-6.34,4.57,20.78,20.78,0,0,0-4.15,8,39.2,39.2,0,0,0-1.52,11.67V36.13a39.06,39.06,0,0,0,1.52,11.59,22.58,22.58,0,0,0,4.15,8,15.62,15.62,0,0,0,6.43,4.57,22,22,0,0,0,8.29,1.52,21.67,21.67,0,0,0,8.29-1.52,15.49,15.49,0,0,0,6.43-4.57,22.58,22.58,0,0,0,4.15-8,42.1,42.1,0,0,0,1.44-11.59Zm-11.93,12a30.56,30.56,0,0,1-.6,6.77A13.09,13.09,0,0,1,239,49a6,6,0,0,1-2.63,2.45,8.67,8.67,0,0,1-7.1,0A6,6,0,0,1,226.59,49a13,13,0,0,1-1.69-4.48,38.05,38.05,0,0,1-.51-6.77V23.94a36.9,36.9,0,0,1,.51-6.68,12.6,12.6,0,0,1,1.61-4.4,7.14,7.14,0,0,1,2.62-2.45,8.32,8.32,0,0,1,3.56-.68,7.82,7.82,0,0,1,3.55.68A6.73,6.73,0,0,1,239,12.86a12.61,12.61,0,0,1,1.6,4.4,29.64,29.64,0,0,1,.6,6.68ZM291.78.25a31.55,31.55,0,0,0-12.94,2.46,27.2,27.2,0,0,0-9.65,6.77,31.3,31.3,0,0,0-6,10.49,41.35,41.35,0,0,0-2,13.28v4.66a29.9,29.9,0,0,0,1.52,9.73,22.65,22.65,0,0,0,4.24,7.53,19.3,19.3,0,0,0,6.68,4.9,20.74,20.74,0,0,0,8.71,1.78,21.66,21.66,0,0,0,8.38-1.61,19.35,19.35,0,0,0,6.43-4.4,18.83,18.83,0,0,0,4.06-6.51,23.47,23.47,0,0,0,1.44-8.12,29.28,29.28,0,0,0-1.1-7.87,19.68,19.68,0,0,0-3.21-6.52,15.91,15.91,0,0,0-5.33-4.4,16.49,16.49,0,0,0-7.54-1.69,17.8,17.8,0,0,0-6.85,1.35,16.56,16.56,0,0,0-5.24,3.64,19.26,19.26,0,0,1,2-6.51,14.61,14.61,0,0,1,3.89-4.91,18.88,18.88,0,0,1,5.92-3.13,23.35,23.35,0,0,1,7.62-1.1h.67V.25Zm-6.26,30.89a9.13,9.13,0,0,1,2.79,2.28,11.27,11.27,0,0,1,1.78,3.47,14.64,14.64,0,0,1,.59,4.4,14.64,14.64,0,0,1-.59,4.4,10.67,10.67,0,0,1-1.78,3.38,7,7,0,0,1-2.71,2.29,6.91,6.91,0,0,1-3.55.84,8.73,8.73,0,0,1-3.64-.76,8.25,8.25,0,0,1-2.87-2.37,12.92,12.92,0,0,1-1.78-4,22.1,22.1,0,0,1-.68-5.59V35.87a8.07,8.07,0,0,1,1.36-2.11A7.73,7.73,0,0,1,276.38,32a9.44,9.44,0,0,1,2.46-1.18,10,10,0,0,1,6.68.34ZM350,25.72a39.2,39.2,0,0,0-1.52-11.67,20.78,20.78,0,0,0-4.15-8,15.62,15.62,0,0,0-6.43-4.57A21.71,21.71,0,0,0,329.64,0a22,22,0,0,0-8.29,1.52A15.31,15.31,0,0,0,315,6.09a20.77,20.77,0,0,0-4.14,8,38.86,38.86,0,0,0-1.53,11.67V36.13a38.71,38.71,0,0,0,1.53,11.59,22.41,22.41,0,0,0,4.14,8,15.62,15.62,0,0,0,6.43,4.57,22,22,0,0,0,8.29,1.52,21.76,21.76,0,0,0,8.3-1.52,15.62,15.62,0,0,0,6.43-4.57,22.57,22.57,0,0,0,4.14-8A42.1,42.1,0,0,0,350,36.13Zm-11.93,12a31.24,31.24,0,0,1-.59,6.77A13.09,13.09,0,0,1,335.9,49a6.06,6.06,0,0,1-2.62,2.45,8.69,8.69,0,0,1-7.11,0A6,6,0,0,1,323.55,49a13.23,13.23,0,0,1-1.7-4.48,39.13,39.13,0,0,1-.5-6.77V23.94a37.94,37.94,0,0,1,.5-6.68,12.8,12.8,0,0,1,1.61-4.4,7.09,7.09,0,0,1,2.63-2.45,8.27,8.27,0,0,1,3.55-.68,7.8,7.8,0,0,1,3.55.68,6.73,6.73,0,0,1,2.71,2.45,12.6,12.6,0,0,1,1.61,4.4,30.3,30.3,0,0,1,.59,6.68ZM387,.76h-1.27l-24.87,9v9.65L375.11,15V61H387Zm43.27,29.7H407.05V40h23.26Zm49.55-4.74a39.2,39.2,0,0,0-1.52-11.67,20.78,20.78,0,0,0-4.15-8,15.49,15.49,0,0,0-6.43-4.57A21.67,21.67,0,0,0,459.47,0a22,22,0,0,0-8.29,1.52,15.37,15.37,0,0,0-6.35,4.57,20.91,20.91,0,0,0-4.14,8,38.86,38.86,0,0,0-1.53,11.67V36.13a38.71,38.71,0,0,0,1.53,11.59,22.57,22.57,0,0,0,4.14,8,15.62,15.62,0,0,0,6.43,4.57,22.05,22.05,0,0,0,8.3,1.52,21.74,21.74,0,0,0,8.29-1.52,15.62,15.62,0,0,0,6.43-4.57,22.57,22.57,0,0,0,4.14-8,42.1,42.1,0,0,0,1.44-11.59Zm-11.93,12a31.24,31.24,0,0,1-.59,6.77A13.09,13.09,0,0,1,465.73,49a6,6,0,0,1-2.62,2.45,8.69,8.69,0,0,1-7.11,0A6.06,6.06,0,0,1,453.38,49a13,13,0,0,1-1.69-4.48,38.05,38.05,0,0,1-.51-6.77V23.94a36.9,36.9,0,0,1,.51-6.68,12.81,12.81,0,0,1,1.6-4.4,7.17,7.17,0,0,1,2.63-2.45,8.27,8.27,0,0,1,3.55-.68,7.8,7.8,0,0,1,3.55.68,6.73,6.73,0,0,1,2.71,2.45,12.6,12.6,0,0,1,1.61,4.4,30.3,30.3,0,0,1,.59,6.68ZM500,34.94h6.34a15.89,15.89,0,0,1,4.15.51,12,12,0,0,1,3.13,1.61,8.22,8.22,0,0,1,1.94,2.79,12,12,0,0,1,.68,4.15,8.79,8.79,0,0,1-.68,3.38,5.79,5.79,0,0,1-1.77,2.54A6.51,6.51,0,0,1,511,51.61a10.45,10.45,0,0,1-3.81.59,9.21,9.21,0,0,1-3.47-.59A7.53,7.53,0,0,1,500.88,50,7.11,7.11,0,0,1,499,47.64a7.46,7.46,0,0,1-.68-3.13H486.41a15.69,15.69,0,0,0,1.78,7.69,16.06,16.06,0,0,0,4.65,5.42,20.7,20.7,0,0,0,6.52,3.22,28.59,28.59,0,0,0,7.53,1,30.08,30.08,0,0,0,8.46-1.18,20,20,0,0,0,6.77-3.47,15.89,15.89,0,0,0,4.48-5.5,17.82,17.82,0,0,0,1.61-7.53,14.08,14.08,0,0,0-10.07-14A20.18,20.18,0,0,0,522,27.67a19.24,19.24,0,0,0,2.88-3.05A15.93,15.93,0,0,0,526.69,21a14.73,14.73,0,0,0,.59-3.8,17.55,17.55,0,0,0-1.52-7.45,15.14,15.14,0,0,0-4.15-5.33,19.27,19.27,0,0,0-6.43-3.3A31.55,31.55,0,0,0,506.89,0a25.34,25.34,0,0,0-7.7,1.18,21.31,21.31,0,0,0-6.26,3.3,16.58,16.58,0,0,0-4.23,5.17,14.92,14.92,0,0,0-1.53,6.76h11.94a6.24,6.24,0,0,1,.67-2.79,6.16,6.16,0,0,1,1.69-2.11,7.09,7.09,0,0,1,2.63-1.36,8.78,8.78,0,0,1,3-.5,9.23,9.23,0,0,1,3.64.59,6.51,6.51,0,0,1,2.54,1.61,5.94,5.94,0,0,1,1.52,2.45,8.83,8.83,0,0,1,.51,3.05,8.31,8.31,0,0,1-2.2,6c-1.52,1.53-3.72,2.29-6.77,2.29H500Z"></path><path class="cls-2" d="M291.14,110.25h-5v63.46h5ZM338,173.71v-.51a16.66,16.66,0,0,1-.59-1.86c-.17-.68-.26-1.44-.43-2.2l-.25-2.37c-.08-.85-.08-1.61-.08-2.37V142.74a16,16,0,0,0-1.19-6.34,12.22,12.22,0,0,0-3.38-4.57,14.5,14.5,0,0,0-5.08-2.71,23.39,23.39,0,0,0-13.62.17,19.35,19.35,0,0,0-5.42,3,13.83,13.83,0,0,0-3.47,4.23,9.75,9.75,0,0,0-1.18,4.82l4.91.09a7.47,7.47,0,0,1,.93-3.56A9.6,9.6,0,0,1,311.6,135a11.48,11.48,0,0,1,3.81-1.86,14.19,14.19,0,0,1,4.74-.77q5.7,0,8.63,2.8a9.75,9.75,0,0,1,3,7.53v5.07H322.6a37.44,37.44,0,0,0-8.55.93,19.7,19.7,0,0,0-6.43,2.88,12.66,12.66,0,0,0-4.06,4.4,13.29,13.29,0,0,0-.34,10.92,12,12,0,0,0,2.88,4.06,13.57,13.57,0,0,0,4.57,2.7,18.69,18.69,0,0,0,5.92.93,22.16,22.16,0,0,0,4.91-.59,27.56,27.56,0,0,0,4.23-1.52,16.1,16.1,0,0,0,3.39-2.28,13.65,13.65,0,0,0,2.62-2.71c.08,1.18.17,2.28.34,3.47a11.66,11.66,0,0,0,.67,2.79Zm-25-4.23a10.11,10.11,0,0,1-3.22-1.86,7.28,7.28,0,0,1-1.94-2.8,7.58,7.58,0,0,1-.76-3.38,8.42,8.42,0,0,1,1.1-4.15,8.86,8.86,0,0,1,3.21-3.13,15.66,15.66,0,0,1,5.08-1.94,27.21,27.21,0,0,1,6.77-.68h8.46v9.82a15.1,15.1,0,0,1-2.2,3.46,17.33,17.33,0,0,1-3.22,2.8,16.72,16.72,0,0,1-4.14,1.86,18.92,18.92,0,0,1-5,.68,12.57,12.57,0,0,1-4.15-.68Zm57.57-40.78a7.94,7.94,0,0,0-1.43-.34,13.12,13.12,0,0,0-1.86-.17,12.83,12.83,0,0,0-7.62,2.11,15.34,15.34,0,0,0-5,5.84l-.09-7.11H349.8v44.68h4.91V143a21.44,21.44,0,0,1,1.69-4.06A12,12,0,0,1,359,135.8a10.78,10.78,0,0,1,3.56-2.11,12.85,12.85,0,0,1,4.57-.76,20.12,20.12,0,0,1,3.3.25Zm5.65,23.09a31.57,31.57,0,0,0,1.18,9.23,21,21,0,0,0,3.38,7.19,16.71,16.71,0,0,0,5.42,4.65,15.29,15.29,0,0,0,7.19,1.69,17.88,17.88,0,0,0,8.21-1.77,15.43,15.43,0,0,0,5.58-4.82v5.16a18.75,18.75,0,0,1-.84,6,11.35,11.35,0,0,1-2.63,4.4,10.47,10.47,0,0,1-4.14,2.88,16.16,16.16,0,0,1-5.59.93,14.71,14.71,0,0,1-6.68-1.52,19.28,19.28,0,0,1-5.84-4.91l-2.71,3a15.09,15.09,0,0,0,3.13,3.39,23,23,0,0,0,3.9,2.37,24.21,24.21,0,0,0,4.23,1.43,18.55,18.55,0,0,0,4.31.43,20.48,20.48,0,0,0,7.36-1.27,15.88,15.88,0,0,0,5.67-3.64,16.85,16.85,0,0,0,3.56-5.84A22.52,22.52,0,0,0,412.3,173V129h-4.65l-.26,6.43a16.21,16.21,0,0,0-5.67-5.33,17.8,17.8,0,0,0-15.48-.33,16.54,16.54,0,0,0-5.42,4.56,21,21,0,0,0-3.38,7.2,32.28,32.28,0,0,0-1.18,9.39Zm5-.84a33.05,33.05,0,0,1,.76-7.28,18.36,18.36,0,0,1,2.37-5.84,11.41,11.41,0,0,1,4.14-3.89,11.06,11.06,0,0,1,5.93-1.44,16.17,16.17,0,0,1,4.74.68,12.41,12.41,0,0,1,6.26,4.74,14.4,14.4,0,0,1,1.77,3.38V162a15.55,15.55,0,0,1-1.94,3.3,10.88,10.88,0,0,1-2.71,2.54,13.4,13.4,0,0,1-3.64,1.78,15.44,15.44,0,0,1-4.57.59,11.54,11.54,0,0,1-10-5.33,18.27,18.27,0,0,1-2.37-5.84,32.42,32.42,0,0,1-.76-7.28Zm66.62,22.93a14.39,14.39,0,0,0,4.4-1.69,14.61,14.61,0,0,0,3.39-2.46,22.3,22.3,0,0,0,2.62-3.13l-3.13-2.28a14.69,14.69,0,0,1-5.5,4.57,15.63,15.63,0,0,1-7,1.43,14.09,14.09,0,0,1-6.26-1.35,15.11,15.11,0,0,1-4.83-3.81,17.31,17.31,0,0,1-3.13-5.58,21,21,0,0,1-1.1-6.94v-.93h31.9v-3.05a28.25,28.25,0,0,0-1.18-8.2,18.23,18.23,0,0,0-3.39-6.52,16.27,16.27,0,0,0-5.58-4.23,17.67,17.67,0,0,0-7.53-1.52,16.64,16.64,0,0,0-7.28,1.61,20,20,0,0,0-6.09,4.56,21.26,21.26,0,0,0-4.23,7.11,27.2,27.2,0,0,0-1.52,9.39v1.78a24.53,24.53,0,0,0,1.52,8.8,19.67,19.67,0,0,0,4.15,6.94,17.66,17.66,0,0,0,6.34,4.48,19.29,19.29,0,0,0,8,1.69,21.12,21.12,0,0,0,5.41-.67ZM447,133.6a13.61,13.61,0,0,1,4,3.22,15,15,0,0,1,2.36,4.65,19.69,19.69,0,0,1,.94,5.5v.51H427.48a23,23,0,0,1,1.61-6.18,15.67,15.67,0,0,1,3-4.74,15.12,15.12,0,0,1,4.23-3.13,13.64,13.64,0,0,1,5.25-1,12.57,12.57,0,0,1,5.5,1.18Z"></path><line class="cls-3" x1="800.17" y1="480.46" x2="800.17" y2="1000"></line><path d="M902.91,748.46V755l33.32,21.49h3.58v-21.9H951v-6.08H939.81v-6.69h-5v6.69Zm9.66,6.83-1.28-.75h23.52v15Zm-9.87-39.16v1l6.56,17.5h5.54l-4.53-12.3H951v-6.15Z"></path><path class="cls-1" d="M599.39,787.7h-476a7.66,7.66,0,0,1-7.57-7.74V491a7.66,7.66,0,0,1,7.57-7.75h476A7.66,7.66,0,0,1,607,491V780a7.67,7.67,0,0,1-7.58,7.74M604.19,489H118.64a2.84,2.84,0,0,1,0-5.68H604.19a2.84,2.84,0,0,1,0,5.68m.76,2.56V785.14a2.54,2.54,0,0,1-2.51,2.56h-.55a2.54,2.54,0,0,1-2.5-2.56V491.51a2.54,2.54,0,0,1,2.5-2.56h.55a2.54,2.54,0,0,1,2.51,2.56m-480.53.22v293.2a2.74,2.74,0,0,1-2.71,2.77H120.6a2.74,2.74,0,0,1-2.71-2.77V491.73A2.75,2.75,0,0,1,120.6,489h1.11a2.75,2.75,0,0,1,2.71,2.78m228.91,296V983.76M370.51,787.7V983.76M605,997.18H115.86V983.77H605Z"></path><path class="cls-4" d="M599.39,787.7h-476a7.66,7.66,0,0,1-7.57-7.74V491a7.66,7.66,0,0,1,7.57-7.75h476A7.66,7.66,0,0,1,607,491V780a7.67,7.67,0,0,1-7.58,7.74ZM604.19,489H118.64a2.84,2.84,0,0,1,0-5.68H604.19a2.84,2.84,0,0,1,0,5.68Zm.76,2.56V785.14a2.54,2.54,0,0,1-2.51,2.56h-.55a2.54,2.54,0,0,1-2.5-2.56V491.51a2.54,2.54,0,0,1,2.5-2.56h.55a2.54,2.54,0,0,1,2.51,2.56Zm-480.53.22v293.2a2.74,2.74,0,0,1-2.71,2.77H120.6a2.74,2.74,0,0,1-2.71-2.77V491.73A2.75,2.75,0,0,1,120.6,489h1.11a2.75,2.75,0,0,1,2.71,2.78Zm228.91,296V983.76M370.51,787.7V983.76M605,997.18H115.86V983.77H605Z"></path></svg> 