<?xml version="1.0" encoding="UTF-8"?> <svg xmlns="http://www.w3.org/2000/svg" id="Livello_1" data-name="Livello 1" viewBox="0 0 1022.67 1000.49"><defs><style>.cls-1{fill:#fff;}.cls-2{fill:#231f20;}.cls-3,.cls-4{fill:none;stroke-width:0.25px;}.cls-3{stroke:#000;}.cls-4{stroke:#231f20;stroke-miterlimit:10;}</style></defs><title>Tosca floor</title><rect class="cls-1" y="0.49" width="1022.67" height="1000"></rect><path class="cls-2" d="M359,14.93a22.73,22.73,0,0,0-.88-6.78,12.07,12.07,0,0,0-2.41-4.61A9,9,0,0,0,351.94.88,12.49,12.49,0,0,0,347.13,0a12.67,12.67,0,0,0-4.81.88,8.9,8.9,0,0,0-3.69,2.66,12.06,12.06,0,0,0-2.4,4.61,22.7,22.7,0,0,0-.89,6.78v6a22.47,22.47,0,0,0,.89,6.72,13.09,13.09,0,0,0,2.4,4.67A9,9,0,0,0,342.37,35a12.67,12.67,0,0,0,4.81.88A12.49,12.49,0,0,0,352,35a9,9,0,0,0,3.73-2.65,13.1,13.1,0,0,0,2.41-4.67A24.37,24.37,0,0,0,359,21Zm-6.92,7a18.34,18.34,0,0,1-.34,3.93,7.54,7.54,0,0,1-.94,2.6,3.44,3.44,0,0,1-1.52,1.42,4.94,4.94,0,0,1-4.12,0,3.51,3.51,0,0,1-1.53-1.42,7.73,7.73,0,0,1-1-2.6,22.81,22.81,0,0,1-.29-3.93v-8a22.1,22.1,0,0,1,.29-3.88,7.51,7.51,0,0,1,.93-2.56A4.27,4.27,0,0,1,345.07,6a4.73,4.73,0,0,1,2.06-.39,4.49,4.49,0,0,1,2.06.39,3.94,3.94,0,0,1,1.57,1.42A7.3,7.3,0,0,1,351.7,10,17.79,17.79,0,0,1,352,13.9ZM381.42.15a18.33,18.33,0,0,0-7.51,1.42,15.84,15.84,0,0,0-5.6,3.93,18.05,18.05,0,0,0-3.48,6.09,23.85,23.85,0,0,0-1.18,7.71V22a17.15,17.15,0,0,0,.88,5.64A13.06,13.06,0,0,0,367,32a11,11,0,0,0,3.88,2.85,12,12,0,0,0,5.05,1,12.66,12.66,0,0,0,4.87-.93,11.24,11.24,0,0,0,3.73-2.55,11,11,0,0,0,2.35-3.78,13.66,13.66,0,0,0,.84-4.72,17.14,17.14,0,0,0-.64-4.56,11.15,11.15,0,0,0-1.87-3.78A9.15,9.15,0,0,0,382.11,13a9.54,9.54,0,0,0-4.37-1,10.13,10.13,0,0,0-4,.79,9.57,9.57,0,0,0-3,2.11,11.4,11.4,0,0,1,1.18-3.78,8.41,8.41,0,0,1,2.26-2.85,10.81,10.81,0,0,1,3.43-1.82A13.58,13.58,0,0,1,382,5.84h.4V.15Zm-3.63,17.92a5.25,5.25,0,0,1,1.62,1.33,6.26,6.26,0,0,1,1,2,8.28,8.28,0,0,1,.35,2.55,8.39,8.39,0,0,1-.35,2.56,6.2,6.2,0,0,1-1,2,4.49,4.49,0,0,1-3.63,1.82,5,5,0,0,1-2.11-.45A4.81,4.81,0,0,1,372,28.48a7.55,7.55,0,0,1-1-2.31,13,13,0,0,1-.39-3.24V20.82a4.68,4.68,0,0,1,.79-1.23,4.5,4.5,0,0,1,1.13-1,5.65,5.65,0,0,1,1.42-.69,5.19,5.19,0,0,1,1.72-.24,4.93,4.93,0,0,1,2.16.44Zm37.44-3.14a22.7,22.7,0,0,0-.89-6.78,12.06,12.06,0,0,0-2.4-4.61A9,9,0,0,0,408.21.88,12.58,12.58,0,0,0,403.39,0a12.71,12.71,0,0,0-4.81.88,8.87,8.87,0,0,0-3.68,2.66,12.07,12.07,0,0,0-2.41,4.61,22.73,22.73,0,0,0-.88,6.78v6a22.49,22.49,0,0,0,.88,6.72,13.1,13.1,0,0,0,2.41,4.67A9,9,0,0,0,398.63,35a12.71,12.71,0,0,0,4.81.88,12.49,12.49,0,0,0,4.81-.88A9,9,0,0,0,412,32.36a13.09,13.09,0,0,0,2.4-4.67,24.34,24.34,0,0,0,.84-6.72Zm-6.93,7a17.72,17.72,0,0,1-.34,3.93,7.76,7.76,0,0,1-.93,2.6,3.54,3.54,0,0,1-1.52,1.42,5,5,0,0,1-4.13,0,3.44,3.44,0,0,1-1.52-1.42,7.52,7.52,0,0,1-1-2.6,21.74,21.74,0,0,1-.3-3.93v-8a21.08,21.08,0,0,1,.3-3.88,7.31,7.31,0,0,1,.93-2.56A4.17,4.17,0,0,1,401.33,6a4.76,4.76,0,0,1,2.06-.39,4.51,4.51,0,0,1,2.07.39A4,4,0,0,1,407,7.46,7.51,7.51,0,0,1,408,10a17.19,17.19,0,0,1,.34,3.88ZM436.71.44H436L421.53,5.65v5.59l8.25-2.55V35.4h6.93Zm25.11,17.24h-13.5v5.55h13.5ZM483.9.44h-.74L468.72,5.65v5.59L477,8.69V35.4h6.93Zm34.83,14.49a23.06,23.06,0,0,0-.88-6.78,12.07,12.07,0,0,0-2.41-4.61A9,9,0,0,0,511.71.88,12.56,12.56,0,0,0,506.9,0a12.76,12.76,0,0,0-4.82.88,8.87,8.87,0,0,0-3.68,2.66A12.06,12.06,0,0,0,496,8.15a22.7,22.7,0,0,0-.89,6.78v6a22.47,22.47,0,0,0,.89,6.72,12.93,12.93,0,0,0,2.4,4.67A9,9,0,0,0,502.13,35a12.75,12.75,0,0,0,4.81.88,12.58,12.58,0,0,0,4.82-.88,9,9,0,0,0,3.73-2.65,12.93,12.93,0,0,0,2.4-4.67,24.34,24.34,0,0,0,.84-6.72Zm-6.92,7a17.66,17.66,0,0,1-.35,3.93,7.55,7.55,0,0,1-.93,2.6A3.44,3.44,0,0,1,509,29.85a5,5,0,0,1-4.13,0,3.44,3.44,0,0,1-1.52-1.42,7.52,7.52,0,0,1-1-2.6,21.74,21.74,0,0,1-.3-3.93v-8a21.08,21.08,0,0,1,.3-3.88,7.31,7.31,0,0,1,.93-2.56A4.17,4.17,0,0,1,504.83,6a4.78,4.78,0,0,1,2.07-.39A4.49,4.49,0,0,1,509,6a3.94,3.94,0,0,1,1.57,1.42,7.31,7.31,0,0,1,.93,2.56,17.12,17.12,0,0,1,.35,3.88Z"></path><line class="cls-3" x1="677.94" y1="220.23" x2="677.94" y2="994.5"></line><path d="M737.44,626.46V627l3.8,10.16h3.22L741.83,630h23.61v-3.57Zm.12-23.67c.08,4.32,1.45,7.57,4.15,9.77s6.63,3.29,11.77,3.29h1.37a12.36,12.36,0,0,0,7.93-2.51,7.9,7.9,0,0,0,3.06-6.47,8.1,8.1,0,0,0-2.59-6.31,11.18,11.18,0,0,0-13.53-.16,7.26,7.26,0,0,0-2.55,5.81,7.48,7.48,0,0,0,2.51,6,10.07,10.07,0,0,1-6.67-2.83,9.35,9.35,0,0,1-2.43-6.59v-.66h-3Zm14.39.32a7.13,7.13,0,0,1,4.59-1.38,7,7,0,0,1,4.59,1.38,4.45,4.45,0,0,1,1.76,3.76,4.67,4.67,0,0,1-2.07,3.85,9.06,9.06,0,0,1-5.53,1.56H754a5.47,5.47,0,0,1-2.71-2.11,5.72,5.72,0,0,1-1.09-3.38,4.45,4.45,0,0,1,1.76-3.68Zm10.59-27.39v14l-8.12-7.45c-3.76-3.53-7.06-5.26-9.8-5.26a7,7,0,0,0-5.42,2.24,8.86,8.86,0,0,0-2,6.16,9,9,0,0,0,2.4,6.62,8,8,0,0,0,6.19,2.51V591a5.81,5.81,0,0,1-4.19-1.46,5.57,5.57,0,0,1-1.49-4.11,4.65,4.65,0,0,1,1.41-3.53,5,5,0,0,1,3.57-1.3,6.77,6.77,0,0,1,3.14.79,22,22,0,0,1,4,3L762.89,594h2.55V575.72Z"></path><path class="cls-1" d="M534.55,366.92H305.44a1.56,1.56,0,0,1-1.53-1.59V223.46a1.56,1.56,0,0,1,1.53-1.6H534.55a1.56,1.56,0,0,1,1.54,1.6V365.33a1.56,1.56,0,0,1-1.54,1.59m.53-142.08H304.92a1,1,0,0,1-1-1.05v-.88a1,1,0,0,1,1-1H535.08a1,1,0,0,1,1,1v.88a1,1,0,0,1-1,1.05m.6.75V366.18a.73.73,0,0,1-.72.74h-1a.73.73,0,0,1-.72-.74V225.59a.74.74,0,0,1,.72-.75h1a.74.74,0,0,1,.72.75m-228.1,0V366.18a.73.73,0,0,1-.72.74h-1a.73.73,0,0,1-.72-.74V225.59a.74.74,0,0,1,.72-.75h1a.74.74,0,0,1,.72.75M418,366.92V993.83m6.75-626.91V993.83M545.9,1000H298.79v-6.18H545.9Z"></path><path class="cls-4" d="M534.55,366.92H305.44a1.56,1.56,0,0,1-1.53-1.59V223.46a1.56,1.56,0,0,1,1.53-1.6H534.55a1.56,1.56,0,0,1,1.54,1.6V365.33a1.56,1.56,0,0,1-1.54,1.59Zm.53-142.08H304.92a1,1,0,0,1-1-1.05v-.88a1,1,0,0,1,1-1H535.08a1,1,0,0,1,1,1v.88a1,1,0,0,1-1,1.05Zm.6.75V366.18a.73.73,0,0,1-.72.74h-1a.73.73,0,0,1-.72-.74V225.59a.74.74,0,0,1,.72-.75h1a.74.74,0,0,1,.72.75Zm-228.1,0V366.18a.73.73,0,0,1-.72.74h-1a.73.73,0,0,1-.72-.74V225.59a.74.74,0,0,1,.72-.75h1a.74.74,0,0,1,.72.75ZM418,366.92V993.83m6.75-626.91V993.83M545.9,1000H298.79v-6.18H545.9Z"></path></svg> 