<?xml version="1.0" encoding="UTF-8"?> <svg xmlns="http://www.w3.org/2000/svg" id="Livello_1" data-name="Livello 1" viewBox="0 0 1022.67 1000.49"><defs><style>.cls-1{fill:#fff;}.cls-2{fill:#231f20;}.cls-3,.cls-4{fill:none;stroke-width:0.25px;}.cls-3{stroke:#000;}.cls-4{stroke:#231f20;stroke-miterlimit:10;}</style></defs><title>Tosca shade small</title><rect class="cls-1" y="0.49" width="1022.67" height="1000"></rect><path class="cls-2" d="M506.74,25.76a39.37,39.37,0,0,0-1.51-11.69,20.91,20.91,0,0,0-4.1-8,15.44,15.44,0,0,0-6.38-4.57A21.16,21.16,0,0,0,486.53,0a21.43,21.43,0,0,0-8.21,1.53A15,15,0,0,0,472,6.1a20.92,20.92,0,0,0-4.11,8,39.37,39.37,0,0,0-1.51,11.69V36.18a39.22,39.22,0,0,0,1.51,11.61A22.59,22.59,0,0,0,472,55.84a15.34,15.34,0,0,0,6.37,4.57,21.49,21.49,0,0,0,8.22,1.53,21.2,21.2,0,0,0,8.22-1.53,15.34,15.34,0,0,0,6.37-4.57,22.76,22.76,0,0,0,4.11-8.05,42.69,42.69,0,0,0,1.42-11.61Zm-11.82,12a31.28,31.28,0,0,1-.59,6.78,13.16,13.16,0,0,1-1.59,4.49,6,6,0,0,1-2.6,2.46,8.53,8.53,0,0,1-7,0,6,6,0,0,1-2.6-2.46,13.1,13.1,0,0,1-1.68-4.49,38.2,38.2,0,0,1-.5-6.78V24a37,37,0,0,1,.5-6.69,12.6,12.6,0,0,1,1.59-4.41,7.29,7.29,0,0,1,2.6-2.46,8.17,8.17,0,0,1,3.52-.68,7.71,7.71,0,0,1,3.53.68,6.76,6.76,0,0,1,2.68,2.46,12.6,12.6,0,0,1,1.59,4.41,30.28,30.28,0,0,1,.59,6.69ZM545.1.25a31.08,31.08,0,0,0-12.83,2.46,27,27,0,0,0-9.56,6.78,31.44,31.44,0,0,0-6,10.51,41.76,41.76,0,0,0-2,13.3V38a29.88,29.88,0,0,0,1.51,9.74,22.4,22.4,0,0,0,4.19,7.54,19.13,19.13,0,0,0,6.62,4.92,20.42,20.42,0,0,0,8.64,1.78,21.28,21.28,0,0,0,8.3-1.61,18.77,18.77,0,0,0,10.4-10.93,23.77,23.77,0,0,0,1.43-8.14,29.87,29.87,0,0,0-1.09-7.88,19.65,19.65,0,0,0-3.19-6.52,15.88,15.88,0,0,0-5.28-4.41,16.19,16.19,0,0,0-7.47-1.69A17.49,17.49,0,0,0,532,22.11a16.63,16.63,0,0,0-5.2,3.65,19.82,19.82,0,0,1,2-6.53,14.83,14.83,0,0,1,3.85-4.91,18.75,18.75,0,0,1,5.87-3.14,23,23,0,0,1,7.55-1.1h.67V.25Zm-6.2,30.93a9.2,9.2,0,0,1,2.77,2.29,11.45,11.45,0,0,1,1.76,3.47,14.76,14.76,0,0,1,.58,4.41,14.65,14.65,0,0,1-.58,4.4,10.78,10.78,0,0,1-1.76,3.39A7,7,0,0,1,539,51.43a6.8,6.8,0,0,1-3.52.85,8.75,8.75,0,0,1-3.61-.76A8.43,8.43,0,0,1,529,49.14a13.33,13.33,0,0,1-1.76-4,22.13,22.13,0,0,1-.67-5.59V35.93a8.4,8.4,0,0,1,1.34-2.12A8,8,0,0,1,529.84,32a9.44,9.44,0,0,1,2.43-1.19,9.81,9.81,0,0,1,6.63.34Zm63.94-5.42a39.7,39.7,0,0,0-1.51-11.69,21.07,21.07,0,0,0-4.11-8,15.31,15.31,0,0,0-6.38-4.57A21.15,21.15,0,0,0,582.63,0a21.45,21.45,0,0,0-8.22,1.53,15.1,15.1,0,0,0-6.29,4.57,20.92,20.92,0,0,0-4.11,8,39.37,39.37,0,0,0-1.51,11.69V36.18A39.22,39.22,0,0,0,564,47.79a22.76,22.76,0,0,0,4.11,8.05,15.34,15.34,0,0,0,6.37,4.57,21.49,21.49,0,0,0,8.22,1.53,21.16,21.16,0,0,0,8.22-1.53,15.34,15.34,0,0,0,6.37-4.57,22.76,22.76,0,0,0,4.11-8.05,42.67,42.67,0,0,0,1.43-11.61ZM591,37.79a31.28,31.28,0,0,1-.59,6.78,13.16,13.16,0,0,1-1.59,4.49,6,6,0,0,1-2.6,2.46,8.53,8.53,0,0,1-7,0,6,6,0,0,1-2.6-2.46,13.1,13.1,0,0,1-1.68-4.49,38.2,38.2,0,0,1-.5-6.78V24a37,37,0,0,1,.5-6.69,12.8,12.8,0,0,1,1.59-4.41,7.29,7.29,0,0,1,2.6-2.46,8.18,8.18,0,0,1,3.53-.68,7.69,7.69,0,0,1,3.52.68,6.76,6.76,0,0,1,2.68,2.46,12.6,12.6,0,0,1,1.59,4.41A30.28,30.28,0,0,1,591,24Zm48.51-37h-1.26l-24.65,9V19.4L627.69,15V61.09h11.83ZM682.41,30.5H659.34v9.58h23.07Zm17.32,21.19v10h.92A33.86,33.86,0,0,0,714,59.31a25.08,25.08,0,0,0,9.47-6.69,27.59,27.59,0,0,0,5.71-10.34A45.76,45.76,0,0,0,731,28.81V24.57a31.57,31.57,0,0,0-1.43-10,22.73,22.73,0,0,0-4-7.79,18.52,18.52,0,0,0-6.37-5A19.21,19.21,0,0,0,710.88,0a19.94,19.94,0,0,0-8.3,1.69,18.82,18.82,0,0,0-6.29,4.66,19.3,19.3,0,0,0-4,6.7,24.74,24.74,0,0,0-1.43,8.3,27.64,27.64,0,0,0,1.09,8,19.1,19.1,0,0,0,3.36,6.36,16.94,16.94,0,0,0,5.45,4.32,17.75,17.75,0,0,0,7.54,1.52,13.74,13.74,0,0,0,5.87-1.27A16.07,16.07,0,0,0,719,37a17.67,17.67,0,0,1-1.51,6.27A11.9,11.9,0,0,1,714,47.87a16,16,0,0,1-5.62,2.88,29.53,29.53,0,0,1-7.8.94Zm7.63-20.09a8.1,8.1,0,0,1-2.6-2.45,9.87,9.87,0,0,1-1.59-3.56,18,18,0,0,1-.5-4.41,17.43,17.43,0,0,1,.5-4.23,10.64,10.64,0,0,1,1.59-3.73,7.21,7.21,0,0,1,2.52-2.54,6.12,6.12,0,0,1,3.52-1,7.73,7.73,0,0,1,3.35.76,10.27,10.27,0,0,1,2.69,2.37,13.13,13.13,0,0,1,1.76,4.07,22,22,0,0,1,.59,5.59v4.92A9.82,9.82,0,0,1,716.08,31a8.55,8.55,0,0,1-4.94,1.44,7.69,7.69,0,0,1-3.78-.85ZM768.2.76h-1.26l-24.66,9V19.4L756.37,15V61.09H768.2Z"></path><path class="cls-2" d="M555.62,165.57a8.11,8.11,0,0,1-2.18,2.62,16,16,0,0,1-3.61,1.78,17.32,17.32,0,0,1-4.94.6,18.05,18.05,0,0,1-4.2-.43,12.52,12.52,0,0,1-3.94-1.52,8.43,8.43,0,0,1-2.93-2.8,8.83,8.83,0,0,1-1.35-4.4h-4.94a11.56,11.56,0,0,0,1.17,5,12.74,12.74,0,0,0,3.36,4.33,16.34,16.34,0,0,0,5.36,3,25.13,25.13,0,0,0,7.47,1.1,24.07,24.07,0,0,0,6.79-.93,14.49,14.49,0,0,0,5.11-2.54,12.27,12.27,0,0,0,3.36-3.9,11.33,11.33,0,0,0,1.09-5.08,10.7,10.7,0,0,0-.92-4.75,9.65,9.65,0,0,0-2.77-3.64,20.63,20.63,0,0,0-4.87-2.8,45,45,0,0,0-6.87-2,45.73,45.73,0,0,1-6-1.78,12.8,12.8,0,0,1-3.61-1.95,4.48,4.48,0,0,1-1.76-2.29,7.15,7.15,0,0,1-.5-2.71,6.79,6.79,0,0,1,.67-2.79,6.64,6.64,0,0,1,1.85-2.55,11.33,11.33,0,0,1,3.35-1.78,14,14,0,0,1,4.86-.67,14.31,14.31,0,0,1,4.87.76,10.76,10.76,0,0,1,3.6,2,8.58,8.58,0,0,1,2.27,3,8,8,0,0,1,.75,3.39H561a12.48,12.48,0,0,0-1.09-5.34,13.24,13.24,0,0,0-3.19-4.24,16.16,16.16,0,0,0-5.2-2.79,23.28,23.28,0,0,0-13.33-.09,16.26,16.26,0,0,0-4.95,2.63,11.37,11.37,0,0,0-3.1,3.9,10.27,10.27,0,0,0-1.09,4.74,10.7,10.7,0,0,0,1,4.75,9.17,9.17,0,0,0,3,3.47,17.57,17.57,0,0,0,4.87,2.54,50.87,50.87,0,0,0,6.54,1.78,34.42,34.42,0,0,1,6,1.87,12.13,12.13,0,0,1,3.61,2.28,7.67,7.67,0,0,1,1.76,2.55,8.06,8.06,0,0,1,.5,2.79,6.3,6.3,0,0,1-.75,3Zm16.31-36.35V174h5V143.28a23.43,23.43,0,0,1,1.59-4,17.42,17.42,0,0,1,2.6-3.39,14.34,14.34,0,0,1,3.77-2.37,12.29,12.29,0,0,1,4.87-.85,15,15,0,0,1,4.44.59,8.25,8.25,0,0,1,3.36,1.87,8.44,8.44,0,0,1,2.26,3.64,18.11,18.11,0,0,1,.76,5.59V174h4.94V144.3a12.16,12.16,0,0,1,1-4,15.89,15.89,0,0,1,2.52-3.73,14.46,14.46,0,0,1,4-2.8,12,12,0,0,1,5.37-1.1,17.11,17.11,0,0,1,4.36.51,7.42,7.42,0,0,1,3.44,2,9.11,9.11,0,0,1,2.26,3.73,19,19,0,0,1,.76,5.84V174h4.86V144.81a24.54,24.54,0,0,0-.92-7.46,12.4,12.4,0,0,0-2.85-5.08,10.67,10.67,0,0,0-4.62-3,19.43,19.43,0,0,0-6.12-.93,18.16,18.16,0,0,0-4.95.68,16.53,16.53,0,0,0-4.19,1.78,15.59,15.59,0,0,0-3.44,2.79,20.08,20.08,0,0,0-2.51,3.39,11.82,11.82,0,0,0-5-6.61,16.5,16.5,0,0,0-8.39-2,15.5,15.5,0,0,0-4.52.59,15.23,15.23,0,0,0-4,1.61,12.59,12.59,0,0,0-3.27,2.54,17.82,17.82,0,0,0-2.6,3.39l-.16-7.28ZM679.61,174v-.51a18.78,18.78,0,0,1-.58-1.87c-.17-.67-.25-1.44-.42-2.2s-.17-1.53-.25-2.37a21.76,21.76,0,0,1-.09-2.38V142.94a16.28,16.28,0,0,0-1.17-6.35,12.41,12.41,0,0,0-3.36-4.58,14.59,14.59,0,0,0-5-2.71,23,23,0,0,0-13.5.17,19.2,19.2,0,0,0-5.37,3,13.84,13.84,0,0,0-3.43,4.23,9.81,9.81,0,0,0-1.18,4.83l4.87.09A7.46,7.46,0,0,1,651,138a9.7,9.7,0,0,1,2.43-2.88,11.56,11.56,0,0,1,3.77-1.87,14.25,14.25,0,0,1,4.7-.76c3.77,0,6.63.93,8.55,2.8a9.81,9.81,0,0,1,2.94,7.54v5.08h-9.06a36.78,36.78,0,0,0-8.47.93,19.17,19.17,0,0,0-6.37,2.89,11.73,11.73,0,0,0-5.37,10.33,12.38,12.38,0,0,0,1,5,11.85,11.85,0,0,0,2.85,4.07,13.5,13.5,0,0,0,4.53,2.71,18.62,18.62,0,0,0,5.87.93,21.78,21.78,0,0,0,4.86-.59,26.18,26.18,0,0,0,4.2-1.53,15.7,15.7,0,0,0,3.35-2.28,13.26,13.26,0,0,0,2.6-2.71c.08,1.18.17,2.28.33,3.47a11.37,11.37,0,0,0,.68,2.8Zm-24.73-4.24a9.7,9.7,0,0,1-3.19-1.87,7.22,7.22,0,0,1-1.93-2.79,7.75,7.75,0,0,1-.75-3.39,8.46,8.46,0,0,1,1.09-4.15,8.79,8.79,0,0,1,3.18-3.14,15.59,15.59,0,0,1,5-1.95,27.31,27.31,0,0,1,6.71-.67h8.39v9.82a15.05,15.05,0,0,1-2.18,3.48,16.72,16.72,0,0,1-3.19,2.79,16.18,16.18,0,0,1-4.11,1.87,18.48,18.48,0,0,1-4.94.68,12.37,12.37,0,0,1-4.11-.68Zm42-59.31h-5V174h5Zm18.76,0h-5V174h5Z"></path><line class="cls-3" x1="343.04" y1="611.52" x2="343.04" y2="825.74"></line><line class="cls-3" x1="449.97" y1="524.89" x2="795.95" y2="524.89"></line><path d="M227.19,732.55v.94L233.68,751h5.5l-4.49-12.31H275v-6.16Zm3.08-43.21a14.68,14.68,0,0,0-3.55,10.22c0,4.27,1.2,7.72,3.55,10.29a12.25,12.25,0,0,0,9.51,3.93,11,11,0,0,0,6.36-1.9,13.15,13.15,0,0,0,4.36-5,12.68,12.68,0,0,0,4.69,5.89,12.06,12.06,0,0,0,7,2.1,12.52,12.52,0,0,0,9.85-4.13c2.48-2.84,3.68-6.5,3.68-11.17s-1.2-8.25-3.68-11.1a12.4,12.4,0,0,0-9.85-4.19,11.54,11.54,0,0,0-7,2.23,13.33,13.33,0,0,0-4.69,6,13,13,0,0,0-4.36-5.15,10.88,10.88,0,0,0-6.36-1.89,12,12,0,0,0-9.51,3.92Zm38.11,3.52a10.83,10.83,0,0,1,0,13.47,8.36,8.36,0,0,1-6.36,2.44,8.55,8.55,0,0,1-9-9.14,9.38,9.38,0,0,1,2.54-6.7,8.75,8.75,0,0,1,6.5-2.57,8.43,8.43,0,0,1,6.36,2.5Zm-34.43.95a8.9,8.9,0,0,1,11.86-.07,7.78,7.78,0,0,1,2.21,5.82,7.55,7.55,0,0,1-8.11,8.06,8.11,8.11,0,0,1-6-2.23,7.85,7.85,0,0,1-2.22-5.83,7.69,7.69,0,0,1,2.28-5.75Z"></path><path d="M548.43,439H553c3.21.07,5.69.81,7.37,2.3s2.54,3.65,2.54,6.43-.74,5.08-2.28,6.63-3.82,2.3-6.76,2.3a9.16,9.16,0,0,1-6.57-2.3,7.87,7.87,0,0,1-2.41-6h-6.09A12.2,12.2,0,0,0,543,458c2.74,2.43,6.43,3.65,10.85,3.65a15.77,15.77,0,0,0,10.92-3.79A13.2,13.2,0,0,0,569,447.61a11.86,11.86,0,0,0-2.15-7.1,12,12,0,0,0-6.09-4.13,12.39,12.39,0,0,0,5.49-4.4,10.65,10.65,0,0,0,2-6.09c0-4.33-1.27-7.65-3.82-10.09s-6.09-3.58-10.58-3.58A15.09,15.09,0,0,0,543.34,416a12.3,12.3,0,0,0-4.15,9.47h6.09a7.84,7.84,0,0,1,2.28-6,8.62,8.62,0,0,1,6.3-2.31c5.56,0,8.37,2.85,8.37,8.47a7.78,7.78,0,0,1-2.48,6A10.08,10.08,0,0,1,553,434h-4.56Zm58.77-6.43c-.07-7-1.34-12-3.75-15.37s-6.17-5-11.32-5-9,1.69-11.39,5.14-3.62,8.73-3.62,15.77v8.19c.07,6.77,1.34,11.84,3.82,15.3s6.16,5.07,11.25,5.07,9-1.76,11.39-5.21,3.62-8.8,3.62-16Zm-6,9.54c-.07,5-.87,8.73-2.28,11a8.07,8.07,0,0,1-13.46-.2c-1.48-2.5-2.28-6.29-2.28-11.51v-9.81c.07-4.87.8-8.53,2.21-10.9s3.69-3.52,6.77-3.52a7.37,7.37,0,0,1,6.83,3.59c1.47,2.37,2.21,6.09,2.21,11.3Zm18.57-16.85h-7l11.59,17.66L612.38,461h7l8.17-13.4,8.17,13.4h7l-12-18.07,11.59-17.66h-7l-7.84,13.06Zm48.38-12.59h-.93l-17.35,6.57v5.55L662,420.27V461h6.09Zm47.65,19.9c-.07-7-1.34-12-3.75-15.37s-6.16-5-11.32-5-9,1.69-11.39,5.14-3.61,8.73-3.61,15.77v8.19c.06,6.77,1.33,11.84,3.81,15.3s6.17,5.07,11.26,5.07,9-1.76,11.38-5.21,3.62-8.8,3.62-16Zm-6,9.54c-.06,5-.87,8.73-2.27,11A8.08,8.08,0,0,1,694,453c-1.47-2.5-2.28-6.29-2.28-11.51v-9.81c.07-4.87.81-8.53,2.21-10.9s3.69-3.52,6.77-3.52a7.35,7.35,0,0,1,6.83,3.59c1.48,2.37,2.21,6.09,2.21,11.3Z"></path><path class="cls-1" d="M789.26,824.83H456.66a5.29,5.29,0,0,1-5.29-5.28V622.43a5.29,5.29,0,0,1,5.29-5.27h332.6a5.28,5.28,0,0,1,5.29,5.27V819.55a5.28,5.28,0,0,1-5.29,5.28M792.61,621H453.31a1.94,1.94,0,1,1,0-3.87h339.3a1.94,1.94,0,1,1,0,3.87m.54,1.74V823.1a1.76,1.76,0,0,1-1.76,1.73H791a1.75,1.75,0,0,1-1.75-1.73V622.77A1.75,1.75,0,0,1,791,621h.38a1.77,1.77,0,0,1,1.76,1.75m-335.79.15v200a1.89,1.89,0,0,1-1.9,1.89h-.77a1.89,1.89,0,0,1-1.9-1.89v-200a1.9,1.9,0,0,1,1.9-1.89h.77a1.9,1.9,0,0,1,1.9,1.89"></path><path class="cls-4" d="M789.26,824.83H456.66a5.29,5.29,0,0,1-5.29-5.28V622.43a5.29,5.29,0,0,1,5.29-5.27h332.6a5.28,5.28,0,0,1,5.29,5.27V819.55a5.28,5.28,0,0,1-5.29,5.28ZM792.61,621H453.31a1.94,1.94,0,1,1,0-3.87h339.3a1.94,1.94,0,1,1,0,3.87Zm.54,1.74V823.1a1.76,1.76,0,0,1-1.76,1.73H791a1.75,1.75,0,0,1-1.75-1.73V622.77A1.75,1.75,0,0,1,791,621h.38a1.77,1.77,0,0,1,1.76,1.75Zm-335.79.15v200a1.89,1.89,0,0,1-1.9,1.89h-.77a1.89,1.89,0,0,1-1.9-1.89v-200a1.9,1.9,0,0,1,1.9-1.89h.77a1.9,1.9,0,0,1,1.9,1.89Z"></path></svg> 