<?xml version="1.0" encoding="UTF-8"?> <svg xmlns="http://www.w3.org/2000/svg" id="Livello_1" data-name="Livello 1" viewBox="0 0 1022.67 1000.49"><defs><style>.cls-1{fill:#fff;}.cls-2{fill:#231f20;}.cls-3,.cls-4{fill:none;stroke-width:0.25px;}.cls-3{stroke:#000;}.cls-4{stroke:#231f20;stroke-miterlimit:10;}</style></defs><title>Tosca tavolo piccola</title><rect class="cls-1" y="0.49" width="1022.67" height="1000"></rect><path class="cls-2" d="M273.24,25.76a39.7,39.7,0,0,0-1.51-11.69,21.07,21.07,0,0,0-4.11-8,15.31,15.31,0,0,0-6.38-4.57A21.11,21.11,0,0,0,253,0a21.45,21.45,0,0,0-8.22,1.53,15.1,15.1,0,0,0-6.29,4.57,20.92,20.92,0,0,0-4.11,8,39.37,39.37,0,0,0-1.51,11.69V36.18a39.22,39.22,0,0,0,1.51,11.61,22.76,22.76,0,0,0,4.11,8.05,15.34,15.34,0,0,0,6.37,4.57,21.49,21.49,0,0,0,8.22,1.53,21.16,21.16,0,0,0,8.22-1.53,15.34,15.34,0,0,0,6.37-4.57,22.76,22.76,0,0,0,4.11-8.05,42.67,42.67,0,0,0,1.43-11.61Zm-11.83,12a32,32,0,0,1-.58,6.78,13.37,13.37,0,0,1-1.6,4.49,6,6,0,0,1-2.6,2.46,8.53,8.53,0,0,1-7,0,6,6,0,0,1-2.6-2.46,13.1,13.1,0,0,1-1.68-4.49,39.17,39.17,0,0,1-.5-6.78V24a37.9,37.9,0,0,1,.5-6.69,12.8,12.8,0,0,1,1.59-4.41,7.29,7.29,0,0,1,2.6-2.46A8.18,8.18,0,0,1,253,9.74a7.69,7.69,0,0,1,3.52.68,6.76,6.76,0,0,1,2.68,2.46,12.79,12.79,0,0,1,1.6,4.41,31,31,0,0,1,.58,6.69ZM311.6.25a31.05,31.05,0,0,0-12.83,2.46,27,27,0,0,0-9.56,6.78,31.46,31.46,0,0,0-6,10.51,41.76,41.76,0,0,0-2,13.3V38a29.88,29.88,0,0,0,1.51,9.74,22.58,22.58,0,0,0,4.19,7.54,19.26,19.26,0,0,0,6.63,4.92,20.4,20.4,0,0,0,8.63,1.78,21.33,21.33,0,0,0,8.31-1.61A18.8,18.8,0,0,0,320.9,49.4a23.53,23.53,0,0,0,1.43-8.14,29.87,29.87,0,0,0-1.09-7.88,19.65,19.65,0,0,0-3.19-6.52,15.78,15.78,0,0,0-5.28-4.41,16.18,16.18,0,0,0-7.46-1.69,17.54,17.54,0,0,0-6.8,1.35,16.63,16.63,0,0,0-5.2,3.65,19.82,19.82,0,0,1,2-6.53,14.83,14.83,0,0,1,3.85-4.91,18.75,18.75,0,0,1,5.87-3.14,23,23,0,0,1,7.55-1.1h.67V.25Zm-6.21,30.93a9.2,9.2,0,0,1,2.77,2.29,11.45,11.45,0,0,1,1.76,3.47,14.75,14.75,0,0,1,.59,4.41,14.64,14.64,0,0,1-.59,4.4,10.78,10.78,0,0,1-1.76,3.39,7,7,0,0,1-2.69,2.29,6.8,6.8,0,0,1-3.52.85,8.7,8.7,0,0,1-3.6-.76,8.46,8.46,0,0,1-2.86-2.38,13.33,13.33,0,0,1-1.76-4,22.13,22.13,0,0,1-.67-5.59V35.93a8.4,8.4,0,0,1,1.34-2.12A8,8,0,0,1,296.33,32a9.5,9.5,0,0,1,2.44-1.19,9.79,9.79,0,0,1,6.62.34Zm63.94-5.42a39.7,39.7,0,0,0-1.51-11.69,20.92,20.92,0,0,0-4.11-8,15.34,15.34,0,0,0-6.37-4.57A21.2,21.2,0,0,0,349.12,0a21.49,21.49,0,0,0-8.22,1.53,15.1,15.1,0,0,0-6.29,4.57,20.92,20.92,0,0,0-4.11,8A39.37,39.37,0,0,0,329,25.76V36.18a39.22,39.22,0,0,0,1.51,11.61,22.76,22.76,0,0,0,4.11,8.05A15.34,15.34,0,0,0,341,60.41a21.49,21.49,0,0,0,8.22,1.53,21.16,21.16,0,0,0,8.22-1.53,15.34,15.34,0,0,0,6.37-4.57,22.59,22.59,0,0,0,4.11-8.05,42.67,42.67,0,0,0,1.43-11.61Zm-11.83,12a31.34,31.34,0,0,1-.58,6.78,13.37,13.37,0,0,1-1.6,4.49,6,6,0,0,1-2.6,2.46,8.53,8.53,0,0,1-7,0,6,6,0,0,1-2.6-2.46,13.1,13.1,0,0,1-1.68-4.49,39.17,39.17,0,0,1-.5-6.78V24a37.9,37.9,0,0,1,.5-6.69,12.59,12.59,0,0,1,1.6-4.41,7.13,7.13,0,0,1,2.6-2.46,8.14,8.14,0,0,1,3.52-.68,7.69,7.69,0,0,1,3.52.68,6.76,6.76,0,0,1,2.68,2.46,12.79,12.79,0,0,1,1.6,4.41A30.34,30.34,0,0,1,357.5,24ZM406,.76h-1.26l-24.65,9V19.4L394.19,15V61.09H406ZM448.9,30.5H425.84v9.58H448.9ZM498,25.76a39.7,39.7,0,0,0-1.51-11.69,21.07,21.07,0,0,0-4.11-8A15.31,15.31,0,0,0,486,1.53,21.15,21.15,0,0,0,477.8,0a21.45,21.45,0,0,0-8.22,1.53,15.1,15.1,0,0,0-6.29,4.57,20.92,20.92,0,0,0-4.11,8,39.37,39.37,0,0,0-1.51,11.69V36.18a39.22,39.22,0,0,0,1.51,11.61,22.76,22.76,0,0,0,4.11,8.05,15.34,15.34,0,0,0,6.37,4.57,21.49,21.49,0,0,0,8.22,1.53,21.16,21.16,0,0,0,8.22-1.53,15.34,15.34,0,0,0,6.37-4.57,22.76,22.76,0,0,0,4.11-8.05A42.67,42.67,0,0,0,498,36.18Zm-11.83,12a31.28,31.28,0,0,1-.59,6.78A13.16,13.16,0,0,1,484,49.06a6,6,0,0,1-2.6,2.46,8.53,8.53,0,0,1-7,0,6,6,0,0,1-2.6-2.46,13.1,13.1,0,0,1-1.68-4.49,39.17,39.17,0,0,1-.5-6.78V24a37.9,37.9,0,0,1,.5-6.69,12.8,12.8,0,0,1,1.59-4.41,7.29,7.29,0,0,1,2.6-2.46,8.18,8.18,0,0,1,3.53-.68,7.69,7.69,0,0,1,3.52.68A6.76,6.76,0,0,1,484,12.88a12.6,12.6,0,0,1,1.59,4.41,30.28,30.28,0,0,1,.59,6.69Zm48.51-37h-1.26l-24.65,9V19.4L522.86,15V61.09h11.83Z"></path><path class="cls-2" d="M322.12,165.57a8.24,8.24,0,0,1-2.18,2.62,16,16,0,0,1-3.61,1.78,17.35,17.35,0,0,1-4.95.6,18,18,0,0,1-4.19-.43,12.43,12.43,0,0,1-3.94-1.52,8.55,8.55,0,0,1-2.94-2.8,8.93,8.93,0,0,1-1.34-4.4H294a11.42,11.42,0,0,0,1.17,5,12.58,12.58,0,0,0,3.35,4.33,16.39,16.39,0,0,0,5.37,3,25.11,25.11,0,0,0,7.46,1.1,24.14,24.14,0,0,0,6.8-.93,14.49,14.49,0,0,0,5.11-2.54,12.27,12.27,0,0,0,3.36-3.9,11.33,11.33,0,0,0,1.09-5.08,10.56,10.56,0,0,0-.93-4.75,9.62,9.62,0,0,0-2.76-3.64,20.63,20.63,0,0,0-4.87-2.8,45.39,45.39,0,0,0-6.87-2,45.73,45.73,0,0,1-6-1.78,12.8,12.8,0,0,1-3.61-1.95,4.48,4.48,0,0,1-1.76-2.29,7.15,7.15,0,0,1-.5-2.71,6.79,6.79,0,0,1,.67-2.79,6.72,6.72,0,0,1,1.84-2.55,11.53,11.53,0,0,1,3.36-1.78,14,14,0,0,1,4.86-.67,14.31,14.31,0,0,1,4.87.76,10.76,10.76,0,0,1,3.6,2,8.58,8.58,0,0,1,2.27,3,8,8,0,0,1,.75,3.39h4.87a12.33,12.33,0,0,0-1.1-5.34,13.07,13.07,0,0,0-3.18-4.24,16.16,16.16,0,0,0-5.2-2.79,23.28,23.28,0,0,0-13.33-.09,16.26,16.26,0,0,0-4.95,2.63,11.37,11.37,0,0,0-3.1,3.9,10.28,10.28,0,0,0-1.1,4.74,10.71,10.71,0,0,0,1,4.75,9.17,9.17,0,0,0,3,3.47,17.65,17.65,0,0,0,4.86,2.54,51.78,51.78,0,0,0,6.54,1.78,34.29,34.29,0,0,1,6,1.87,12.13,12.13,0,0,1,3.61,2.28,7.82,7.82,0,0,1,1.76,2.55,8.06,8.06,0,0,1,.5,2.79,6.3,6.3,0,0,1-.75,3Zm16.31-36.35V174h4.95V143.28a23.43,23.43,0,0,1,1.59-4,17,17,0,0,1,2.6-3.39,14.34,14.34,0,0,1,3.77-2.37,12.26,12.26,0,0,1,4.87-.85,15,15,0,0,1,4.44.59,8.25,8.25,0,0,1,3.36,1.87,8.44,8.44,0,0,1,2.26,3.64,18.13,18.13,0,0,1,.75,5.59V174h5V144.3a12.16,12.16,0,0,1,1-4,16.16,16.16,0,0,1,2.51-3.73,14.52,14.52,0,0,1,4-2.8,12,12,0,0,1,5.37-1.1,17.11,17.11,0,0,1,4.36.51,7.42,7.42,0,0,1,3.44,2,9.11,9.11,0,0,1,2.26,3.73,19.05,19.05,0,0,1,.75,5.84V174h4.87V144.81a24.54,24.54,0,0,0-.92-7.46,12.41,12.41,0,0,0-2.86-5.08,10.58,10.58,0,0,0-4.61-3,19.48,19.48,0,0,0-6.12-.93,18.16,18.16,0,0,0-4.95.68,16.53,16.53,0,0,0-4.19,1.78,15.59,15.59,0,0,0-3.44,2.79A20.08,20.08,0,0,0,371,137a11.82,11.82,0,0,0-5-6.61,16.5,16.5,0,0,0-8.39-2,15.62,15.62,0,0,0-4.53.59,15.31,15.31,0,0,0-3.94,1.61,12.27,12.27,0,0,0-3.27,2.54,17.82,17.82,0,0,0-2.6,3.39l-.17-7.28ZM446.11,174v-.51a16.45,16.45,0,0,1-.58-1.87c-.17-.67-.25-1.44-.42-2.2s-.17-1.53-.25-2.37a21.76,21.76,0,0,1-.09-2.38V142.94a16.28,16.28,0,0,0-1.17-6.35,12.41,12.41,0,0,0-3.36-4.58,14.59,14.59,0,0,0-5-2.71,23,23,0,0,0-13.5.17,19.06,19.06,0,0,0-5.37,3,13.7,13.7,0,0,0-3.43,4.23,9.81,9.81,0,0,0-1.18,4.83l4.87.09a7.46,7.46,0,0,1,.92-3.56,9.56,9.56,0,0,1,2.43-2.88,11.47,11.47,0,0,1,3.77-1.87,14.25,14.25,0,0,1,4.7-.76q5.65,0,8.55,2.8a9.81,9.81,0,0,1,2.94,7.54v5.08h-9.06a36.71,36.71,0,0,0-8.47.93,19.17,19.17,0,0,0-6.37,2.89,11.73,11.73,0,0,0-5.37,10.33,12.38,12.38,0,0,0,1,5,11.71,11.71,0,0,0,2.85,4.07,13.5,13.5,0,0,0,4.53,2.71,18.62,18.62,0,0,0,5.87.93,21.78,21.78,0,0,0,4.86-.59,25.71,25.71,0,0,0,4.19-1.53,15.52,15.52,0,0,0,3.36-2.28,13.53,13.53,0,0,0,2.6-2.71c.08,1.18.17,2.28.33,3.47a11.87,11.87,0,0,0,.67,2.8Zm-24.73-4.24a9.7,9.7,0,0,1-3.19-1.87,7.22,7.22,0,0,1-1.93-2.79,7.75,7.75,0,0,1-.75-3.39,8.35,8.35,0,0,1,1.09-4.15,8.79,8.79,0,0,1,3.18-3.14,15.59,15.59,0,0,1,5-1.95,27.31,27.31,0,0,1,6.71-.67h8.39v9.82a15.05,15.05,0,0,1-2.18,3.48,16.72,16.72,0,0,1-3.19,2.79,16.18,16.18,0,0,1-4.11,1.87,18.5,18.5,0,0,1-4.95.68,12.31,12.31,0,0,1-4.1-.68Zm42-59.31H458.4V174h4.94Zm18.77,0h-4.95V174h4.95Z"></path><line class="cls-3" x1="723.75" y1="611.51" x2="723.75" y2="1000"></line><path d="M851.43,830.92v-4.6c.07-3.25.81-5.75,2.28-7.44a7.84,7.84,0,0,1,6.37-2.57c2.88,0,5,.74,6.56,2.3s2.28,3.85,2.28,6.83a9.4,9.4,0,0,1-2.28,6.64,7.68,7.68,0,0,1-6,2.43v6.16a12,12,0,0,0,9.58-4.26c2.41-2.78,3.61-6.5,3.61-11a16.15,16.15,0,0,0-3.75-11,12.92,12.92,0,0,0-10.18-4.26,11.61,11.61,0,0,0-7,2.16,12.2,12.2,0,0,0-4.09,6.16,12.36,12.36,0,0,0-4.35-5.55,10.43,10.43,0,0,0-6-2c-4.29,0-7.57,1.29-10,3.86s-3.55,6.16-3.55,10.69a15.45,15.45,0,0,0,3.75,10.63,12.12,12.12,0,0,0,9.38,4.19v-6.15a7.69,7.69,0,0,1-5.9-2.31,8.79,8.79,0,0,1-2.27-6.36c0-5.62,2.81-8.46,8.37-8.46a7.62,7.62,0,0,1,6,2.51,10.35,10.35,0,0,1,2.28,6.83v4.6Zm-26-49.29v1l6.49,17.53h5.5l-4.49-12.32H873.2v-6.16Z"></path><path class="cls-1" d="M556.36,841.12H198.07a5.74,5.74,0,0,1-5.71-5.77V620.1a5.75,5.75,0,0,1,5.71-5.77H556.36a5.74,5.74,0,0,1,5.71,5.77V835.35a5.73,5.73,0,0,1-5.71,5.77M560,618.56H194.45a2.12,2.12,0,0,1,0-4.23H560a2.12,2.12,0,0,1,0,4.23m.58,1.91V839.21a1.91,1.91,0,0,1-1.89,1.91h-.41a1.91,1.91,0,0,1-1.89-1.91V620.47a1.91,1.91,0,0,1,1.89-1.91h.41a1.91,1.91,0,0,1,1.89,1.91m-361.74.16V839.05a2.06,2.06,0,0,1-2,2.07h-.84a2.06,2.06,0,0,1-2.05-2.07V620.63a2.07,2.07,0,0,1,2.05-2.07h.84a2.06,2.06,0,0,1,2,2.07M371.14,841.12V987.19m12.93-146.07V987.19m176.48,10H192.38v-10H560.55Z"></path><path class="cls-4" d="M556.36,841.12H198.07a5.74,5.74,0,0,1-5.71-5.77V620.1a5.75,5.75,0,0,1,5.71-5.77H556.36a5.74,5.74,0,0,1,5.71,5.77V835.35a5.73,5.73,0,0,1-5.71,5.77ZM560,618.56H194.45a2.12,2.12,0,0,1,0-4.23H560a2.12,2.12,0,0,1,0,4.23Zm.58,1.91V839.21a1.91,1.91,0,0,1-1.89,1.91h-.41a1.91,1.91,0,0,1-1.89-1.91V620.47a1.91,1.91,0,0,1,1.89-1.91h.41a1.91,1.91,0,0,1,1.89,1.91Zm-361.74.16V839.05a2.06,2.06,0,0,1-2,2.07h-.84a2.06,2.06,0,0,1-2.05-2.07V620.63a2.07,2.07,0,0,1,2.05-2.07h.84a2.06,2.06,0,0,1,2,2.07ZM371.14,841.12V987.19m12.93-146.07V987.19m176.48,10H192.38v-10H560.55Z"></path></svg> 