<?xml version="1.0" encoding="UTF-8"?> <svg xmlns="http://www.w3.org/2000/svg" id="Livello_1" data-name="Livello 1" viewBox="0 0 1022.67 1000.49"><defs><style>.cls-1{fill:#fff;}.cls-2{fill:#231f20;}.cls-3,.cls-4{fill:none;stroke-width:0.25px;}.cls-3{stroke:#000;}.cls-4{stroke:#231f20;stroke-miterlimit:10;}</style></defs><title>Tosca shade large</title><rect class="cls-1" y="0.49" width="1022.67" height="1000"></rect><path class="cls-2" d="M497.73,25.72a39.2,39.2,0,0,0-1.52-11.67,20.78,20.78,0,0,0-4.15-8,15.49,15.49,0,0,0-6.43-4.57A21.67,21.67,0,0,0,477.34,0a22,22,0,0,0-8.29,1.52,15.37,15.37,0,0,0-6.35,4.57,20.91,20.91,0,0,0-4.14,8A38.86,38.86,0,0,0,457,25.72V36.13a38.71,38.71,0,0,0,1.53,11.59,22.57,22.57,0,0,0,4.14,8,15.62,15.62,0,0,0,6.43,4.57,22.05,22.05,0,0,0,8.3,1.52,21.74,21.74,0,0,0,8.29-1.52,15.62,15.62,0,0,0,6.43-4.57,22.57,22.57,0,0,0,4.14-8,42.1,42.1,0,0,0,1.44-11.59Zm-11.93,12a31.24,31.24,0,0,1-.59,6.77A13.09,13.09,0,0,1,483.6,49,6,6,0,0,1,481,51.44a8.69,8.69,0,0,1-7.11,0A6.06,6.06,0,0,1,471.25,49a13,13,0,0,1-1.69-4.48,38.05,38.05,0,0,1-.51-6.77V23.94a36.9,36.9,0,0,1,.51-6.68,12.81,12.81,0,0,1,1.6-4.4,7.17,7.17,0,0,1,2.63-2.45,8.27,8.27,0,0,1,3.55-.68,7.8,7.8,0,0,1,3.55.68,6.73,6.73,0,0,1,2.71,2.45,12.6,12.6,0,0,1,1.61,4.4,30.3,30.3,0,0,1,.59,6.68ZM536.44.25a31.6,31.6,0,0,0-13,2.46,27.29,27.29,0,0,0-9.65,6.77,31.28,31.28,0,0,0-6,10.49,41.07,41.07,0,0,0-2,13.28v4.66a29.64,29.64,0,0,0,1.52,9.73,22.63,22.63,0,0,0,4.23,7.53,19.3,19.3,0,0,0,6.68,4.9A20.79,20.79,0,0,0,527,61.85a21.69,21.69,0,0,0,8.38-1.61,19.45,19.45,0,0,0,6.43-4.4,18.83,18.83,0,0,0,4.06-6.51,23.47,23.47,0,0,0,1.44-8.12,29.68,29.68,0,0,0-1.1-7.87A19.69,19.69,0,0,0,543,26.82a15.82,15.82,0,0,0-5.33-4.4,16.45,16.45,0,0,0-7.53-1.69,17.76,17.76,0,0,0-6.85,1.35A16.72,16.72,0,0,0,518,25.72a19.71,19.71,0,0,1,2-6.51,14.74,14.74,0,0,1,3.89-4.91,18.94,18.94,0,0,1,5.93-3.13,23.29,23.29,0,0,1,7.61-1.1h.68V.25Zm-6.27,30.89a9.3,9.3,0,0,1,2.8,2.28,11.25,11.25,0,0,1,1.77,3.47,14.32,14.32,0,0,1,.6,4.4,14.32,14.32,0,0,1-.6,4.4A10.65,10.65,0,0,1,533,49.07a7.08,7.08,0,0,1-2.71,2.29,6.94,6.94,0,0,1-3.55.84,8.73,8.73,0,0,1-3.64-.76,8.37,8.37,0,0,1-2.88-2.37,13.41,13.41,0,0,1-1.78-4,22.13,22.13,0,0,1-.67-5.59V35.87a8,8,0,0,1,1.35-2.11A7.78,7.78,0,0,1,521,32a9.38,9.38,0,0,1,2.45-1.18,10,10,0,0,1,6.68.34Zm64.51-5.42a38.88,38.88,0,0,0-1.52-11.67,20.91,20.91,0,0,0-4.14-8,15.62,15.62,0,0,0-6.43-4.57A21.76,21.76,0,0,0,574.29,0,22,22,0,0,0,566,1.52a15.28,15.28,0,0,0-6.34,4.57,20.78,20.78,0,0,0-4.15,8A38.88,38.88,0,0,0,554,25.72V36.13a38.73,38.73,0,0,0,1.52,11.59,22.58,22.58,0,0,0,4.15,8,15.49,15.49,0,0,0,6.43,4.57,22,22,0,0,0,8.29,1.52,21.71,21.71,0,0,0,8.29-1.52,15.62,15.62,0,0,0,6.43-4.57,22.58,22.58,0,0,0,4.15-8,42.12,42.12,0,0,0,1.43-11.59Zm-11.93,12a30.62,30.62,0,0,1-.59,6.77A13.09,13.09,0,0,1,580.55,49a6,6,0,0,1-2.62,2.45,8.69,8.69,0,0,1-7.11,0A6.06,6.06,0,0,1,568.2,49a13,13,0,0,1-1.69-4.48,38.05,38.05,0,0,1-.51-6.77V23.94a36.9,36.9,0,0,1,.51-6.68,12.6,12.6,0,0,1,1.61-4.4,7.07,7.07,0,0,1,2.62-2.45,8.27,8.27,0,0,1,3.55-.68,7.84,7.84,0,0,1,3.56.68,6.71,6.71,0,0,1,2.7,2.45,12.6,12.6,0,0,1,1.61,4.4,29.7,29.7,0,0,1,.59,6.68Zm49-37h-1.27l-24.88,9v9.65L619.77,15V61H631.7ZM675,30.46H651.7V40H675Zm17.48,21.15v10h.93a34.36,34.36,0,0,0,13.45-2.37,25.18,25.18,0,0,0,9.56-6.69,27.25,27.25,0,0,0,5.76-10.32A44.91,44.91,0,0,0,724,28.77V24.54a31.22,31.22,0,0,0-1.44-10,22.67,22.67,0,0,0-4.06-7.78,18.5,18.5,0,0,0-6.43-5A19.49,19.49,0,0,0,703.7,0a20.24,20.24,0,0,0-8.37,1.69A18.74,18.74,0,0,0,689,6.35,19.07,19.07,0,0,0,684.92,13a24.39,24.39,0,0,0-1.44,8.29,27.19,27.19,0,0,0,1.1,8A19,19,0,0,0,688,35.71,17.06,17.06,0,0,0,693.46,40a17.93,17.93,0,0,0,7.62,1.52A14,14,0,0,0,707,40.27a16.07,16.07,0,0,0,4.91-3.3,17.67,17.67,0,0,1-1.52,6.27,12,12,0,0,1-3.56,4.57,16.45,16.45,0,0,1-5.67,2.87,30.47,30.47,0,0,1-7.86.93Zm7.7-20a8,8,0,0,1-2.62-2.45,9.66,9.66,0,0,1-1.61-3.56,17.83,17.83,0,0,1-.51-4.4,17.5,17.5,0,0,1,.51-4.23,10.43,10.43,0,0,1,1.61-3.72,7.24,7.24,0,0,1,2.53-2.54,6.25,6.25,0,0,1,3.56-1,7.86,7.86,0,0,1,3.38.76,10,10,0,0,1,2.71,2.37,13,13,0,0,1,1.78,4.06,21.85,21.85,0,0,1,.59,5.58v4.91A10,10,0,0,1,709,31a8.71,8.71,0,0,1-5,1.44,7.93,7.93,0,0,1-3.81-.85ZM773,25.72a38.86,38.86,0,0,0-1.53-11.67,20.91,20.91,0,0,0-4.14-8,15.62,15.62,0,0,0-6.43-4.57A21.76,21.76,0,0,0,752.64,0a22,22,0,0,0-8.29,1.52A15.28,15.28,0,0,0,738,6.09a20.78,20.78,0,0,0-4.15,8,39.2,39.2,0,0,0-1.52,11.67V36.13a39.06,39.06,0,0,0,1.52,11.59,22.58,22.58,0,0,0,4.15,8,15.49,15.49,0,0,0,6.43,4.57,22,22,0,0,0,8.29,1.52A21.71,21.71,0,0,0,761,60.33a15.62,15.62,0,0,0,6.43-4.57,22.58,22.58,0,0,0,4.15-8A42.1,42.1,0,0,0,773,36.13Zm-11.93,12a30.56,30.56,0,0,1-.6,6.77,13.31,13.31,0,0,1-1.6,4.48,6,6,0,0,1-2.63,2.45,8.67,8.67,0,0,1-7.1,0A6,6,0,0,1,746.55,49a13,13,0,0,1-1.69-4.48,38.05,38.05,0,0,1-.51-6.77V23.94a36.9,36.9,0,0,1,.51-6.68,12.6,12.6,0,0,1,1.61-4.4,7.14,7.14,0,0,1,2.62-2.45,8.27,8.27,0,0,1,3.55-.68,7.84,7.84,0,0,1,3.56.68,6.79,6.79,0,0,1,2.71,2.45,12.81,12.81,0,0,1,1.6,4.4,29.64,29.64,0,0,1,.6,6.68Z"></path><path class="cls-2" d="M535.8,110.25h-5v63.46h5Zm46.86,63.46v-.51a16.47,16.47,0,0,1-.6-1.86c-.17-.68-.25-1.44-.42-2.2s-.17-1.52-.25-2.37a21.67,21.67,0,0,1-.09-2.37V142.74a16,16,0,0,0-1.18-6.34,12.35,12.35,0,0,0-3.39-4.57,14.54,14.54,0,0,0-5.07-2.71,23.43,23.43,0,0,0-13.63.17,19.29,19.29,0,0,0-5.41,3,13.83,13.83,0,0,0-3.47,4.23A9.64,9.64,0,0,0,548,141.3l4.9.09a7.47,7.47,0,0,1,.93-3.56,9.79,9.79,0,0,1,2.46-2.87,11.33,11.33,0,0,1,3.8-1.86,14.24,14.24,0,0,1,4.74-.77q5.72,0,8.63,2.8a9.71,9.71,0,0,1,3,7.53v5.07h-9.13a37.37,37.37,0,0,0-8.55.93,19.6,19.6,0,0,0-6.43,2.88,11.7,11.7,0,0,0-5.41,10.32,12.24,12.24,0,0,0,1,5,11.84,11.84,0,0,0,2.88,4.06,13.57,13.57,0,0,0,4.57,2.7,18.6,18.6,0,0,0,5.92.93,22.24,22.24,0,0,0,4.91-.59,27.56,27.56,0,0,0,4.23-1.52,15.78,15.78,0,0,0,3.38-2.28,13.11,13.11,0,0,0,2.62-2.71c.09,1.18.17,2.28.34,3.47a11.17,11.17,0,0,0,.68,2.79Zm-25-4.23a10,10,0,0,1-3.22-1.86,7.3,7.3,0,0,1-2-2.8,7.72,7.72,0,0,1-.76-3.38,8.52,8.52,0,0,1,1.1-4.15,8.89,8.89,0,0,1,3.22-3.13,15.51,15.51,0,0,1,5.07-1.94,27.26,27.26,0,0,1,6.77-.68h8.46v9.82a14.77,14.77,0,0,1-2.2,3.46,17.26,17.26,0,0,1-3.21,2.8,16.62,16.62,0,0,1-4.15,1.86,18.8,18.8,0,0,1-5,.68,12.56,12.56,0,0,1-4.14-.68Zm57.57-40.78a8.09,8.09,0,0,0-1.44-.34,13,13,0,0,0-1.86-.17,12.79,12.79,0,0,0-7.61,2.11,15.36,15.36,0,0,0-5,5.84l-.08-7.11h-4.82v44.68h4.9V143a22.14,22.14,0,0,1,1.7-4.06,11.66,11.66,0,0,1,2.62-3.13,10.73,10.73,0,0,1,3.55-2.11,12.92,12.92,0,0,1,4.57-.76,19.94,19.94,0,0,1,3.3.25Zm5.64,23.09A31.56,31.56,0,0,0,622.1,161a21,21,0,0,0,3.38,7.19,16.6,16.6,0,0,0,5.42,4.65,15.26,15.26,0,0,0,7.19,1.69,17.8,17.8,0,0,0,8.2-1.77,15.47,15.47,0,0,0,5.59-4.82v5.16a18.47,18.47,0,0,1-.85,6,11.45,11.45,0,0,1-2.62,4.4,10.44,10.44,0,0,1-4.15,2.88,16.06,16.06,0,0,1-5.58.93,14.71,14.71,0,0,1-6.68-1.52,19.16,19.16,0,0,1-5.84-4.91l-2.71,3a15.09,15.09,0,0,0,3.13,3.39,23.36,23.36,0,0,0,3.89,2.37,24.49,24.49,0,0,0,4.23,1.43,18.63,18.63,0,0,0,4.32.43,20.48,20.48,0,0,0,7.36-1.27,16,16,0,0,0,5.67-3.64,16.83,16.83,0,0,0,3.55-5.84A22.28,22.28,0,0,0,657,173V129H652.3l-.25,6.43a16.3,16.3,0,0,0-5.67-5.33,15.77,15.77,0,0,0-8.21-1.94,15.56,15.56,0,0,0-7.27,1.61,16.44,16.44,0,0,0-5.42,4.56,21,21,0,0,0-3.38,7.2,32.26,32.26,0,0,0-1.19,9.39Zm5-.84a33,33,0,0,1,.77-7.28,18.36,18.36,0,0,1,2.36-5.84,11.44,11.44,0,0,1,4.15-3.89,11,11,0,0,1,5.92-1.44,16.07,16.07,0,0,1,4.74.68,12.3,12.3,0,0,1,6.26,4.74,14.45,14.45,0,0,1,1.78,3.38V162a16,16,0,0,1-2,3.3,11,11,0,0,1-2.7,2.54,13.54,13.54,0,0,1-3.64,1.78,15.48,15.48,0,0,1-4.57.59,11.57,11.57,0,0,1-10-5.33,18.26,18.26,0,0,1-2.36-5.84,32.39,32.39,0,0,1-.77-7.28Zm66.63,22.93a17,17,0,0,0,7.78-4.15,21.72,21.72,0,0,0,2.63-3.13l-3.13-2.28a14.69,14.69,0,0,1-5.5,4.57,15.65,15.65,0,0,1-7,1.43A14.15,14.15,0,0,1,681,169a15,15,0,0,1-4.82-3.81,17.13,17.13,0,0,1-3.13-5.58,21,21,0,0,1-1.1-6.94v-.93h31.9v-3.05a27.91,27.91,0,0,0-1.19-8.2,18.38,18.38,0,0,0-3.38-6.52,16.36,16.36,0,0,0-5.58-4.23,17.71,17.71,0,0,0-7.54-1.52,16.6,16.6,0,0,0-7.27,1.61,19.79,19.79,0,0,0-6.09,4.56,21.09,21.09,0,0,0-4.23,7.11,27.2,27.2,0,0,0-1.53,9.39v1.78a24.53,24.53,0,0,0,1.53,8.8,19.65,19.65,0,0,0,4.14,6.94,17.69,17.69,0,0,0,6.35,4.48,19.22,19.22,0,0,0,8,1.69,21.18,21.18,0,0,0,5.41-.67Zm-.85-40.28a13.61,13.61,0,0,1,4,3.22,15,15,0,0,1,2.37,4.65A19.68,19.68,0,0,1,699,147v.51H672.14a22.67,22.67,0,0,1,1.61-6.18,15.48,15.48,0,0,1,3-4.74,15.12,15.12,0,0,1,4.23-3.13,13.59,13.59,0,0,1,5.24-1,12.51,12.51,0,0,1,5.5,1.18Z"></path><line class="cls-3" x1="272.07" y1="480.46" x2="272.07" y2="796.24"></line><line class="cls-3" x1="351.23" y1="411.06" x2="867.96" y2="411.06"></line><path d="M198.43,640.84V665l-14-12.84c-6.49-6.08-12.16-9.06-16.89-9.06a12.08,12.08,0,0,0-9.33,3.86c-2.37,2.63-3.51,6.15-3.51,10.61,0,4.79,1.35,8.58,4.12,11.42a13.91,13.91,0,0,0,10.68,4.32v-6.15a10,10,0,0,1-7.24-2.5,9.63,9.63,0,0,1-2.56-7.09,8.07,8.07,0,0,1,2.43-6.09,8.62,8.62,0,0,1,6.15-2.23,11.78,11.78,0,0,1,5.41,1.35,38.17,38.17,0,0,1,6.82,5.14L199,672.34h4.39v-31.5Zm-43.05-32.26v6.49l33.32,21.49h3.58V614.67h11.15v-6.09H192.28v-6.69h-5v6.69Zm9.67,6.83-1.29-.74h23.52v15Z"></path><path d="M523.48,299.23H517L495.5,332.55v3.58h21.89v11.15h6.09V336.13h6.69v-5h-6.69Zm-6.83,9.67.74-1.29v23.52h-15Zm49.22,10c-.07-7-1.35-12-3.78-15.34s-6.22-5-11.42-5-9.06,1.69-11.49,5.14-3.65,8.72-3.65,15.75v8.18c.06,6.76,1.35,11.82,3.85,15.27S545.6,348,550.73,348s9.06-1.76,11.49-5.2,3.65-8.79,3.65-15.95Zm-6.08,9.53c-.07,5-.88,8.72-2.3,11a8.18,8.18,0,0,1-13.58-.2c-1.49-2.5-2.3-6.28-2.3-11.49V318c.07-4.86.81-8.51,2.23-10.88s3.72-3.51,6.83-3.51,5.47,1.21,6.89,3.58,2.23,6.08,2.23,11.29Zm18.74-16.83h-7.1l11.7,17.64-12,18h7.09l8.25-13.38,8.24,13.38h7.1l-12.1-18,11.7-17.64h-7.1l-7.91,13ZM627.35,299h-1l-17.51,6.55v5.55l12.31-4.53v40.68h6.15Zm26.78,26.29h4.6c3.24.07,5.74.81,7.43,2.3s2.57,3.65,2.57,6.42-.74,5.07-2.3,6.62-3.85,2.3-6.83,2.3a9.27,9.27,0,0,1-6.62-2.3,7.79,7.79,0,0,1-2.43-6H644.4a12.13,12.13,0,0,0,4.26,9.66c2.77,2.43,6.48,3.65,10.94,3.65a16,16,0,0,0,11-3.78,13.12,13.12,0,0,0,4.26-10.28,11.77,11.77,0,0,0-2.16-7.09,12.15,12.15,0,0,0-6.15-4.13,12.39,12.39,0,0,0,5.54-4.39,10.6,10.6,0,0,0,2-6.08c0-4.33-1.29-7.64-3.86-10.07s-6.15-3.59-10.68-3.59A15.35,15.35,0,0,0,649,302.34a12.27,12.27,0,0,0-4.19,9.46H651a7.82,7.82,0,0,1,2.3-5.95,8.76,8.76,0,0,1,6.35-2.29c5.61,0,8.45,2.83,8.45,8.44a7.76,7.76,0,0,1-2.5,6,10.24,10.24,0,0,1-6.82,2.3h-4.6Zm33.68,26.22a15.23,15.23,0,0,0,1.62-6.69v-4.8h-5.95v5.54a15.72,15.72,0,0,1-3.24,8.93l3.45,2.36a15,15,0,0,0,4.12-5.34Zm16.43-27.1,1.62-1.28a10.08,10.08,0,0,1,6.29-1.76,8.85,8.85,0,0,1,7,2.91,11.18,11.18,0,0,1,2.63,7.77,12.08,12.08,0,0,1-2.43,8,8.19,8.19,0,0,1-6.69,2.91,9.08,9.08,0,0,1-6.29-2.1,9.65,9.65,0,0,1-2.9-6.21h-5.81c.4,4.19,1.89,7.43,4.59,9.8A15.19,15.19,0,0,0,712.62,348c4.8,0,8.52-1.42,11.22-4.26s4-6.76,4-11.69-1.29-8.85-3.86-11.76a13.2,13.2,0,0,0-10.4-4.33,15.21,15.21,0,0,0-8.05,2.1l1.42-13.11h19.47v-5.68h-24.6l-2.44,24Z"></path><path class="cls-1" d="M858.74,790.6H368.32a7.79,7.79,0,0,1-7.8-7.75v-289a7.76,7.76,0,0,1,7.8-7.73H858.74a7.76,7.76,0,0,1,7.81,7.73v289a7.78,7.78,0,0,1-7.81,7.75m5-298.84H363.38a2.83,2.83,0,1,1,0-5.66H863.69a2.83,2.83,0,1,1,0,5.66m.78,2.56V788a2.58,2.58,0,0,1-2.58,2.56h-.57a2.58,2.58,0,0,1-2.58-2.56V494.32a2.58,2.58,0,0,1,2.58-2.56h.57a2.58,2.58,0,0,1,2.58,2.56m-495.12.24V787.82a2.81,2.81,0,0,1-2.81,2.78H365.4a2.8,2.8,0,0,1-2.79-2.78V494.56a2.78,2.78,0,0,1,2.79-2.79h1.14a2.8,2.8,0,0,1,2.81,2.79"></path><path class="cls-4" d="M858.74,790.6H368.32a7.79,7.79,0,0,1-7.8-7.75v-289a7.77,7.77,0,0,1,7.8-7.75H858.74a7.77,7.77,0,0,1,7.81,7.75v289a7.78,7.78,0,0,1-7.81,7.75Zm5-298.84H363.38a2.83,2.83,0,1,1,0-5.66H863.69a2.83,2.83,0,1,1,0,5.66Zm.78,2.56V788a2.58,2.58,0,0,1-2.58,2.56h-.57a2.58,2.58,0,0,1-2.58-2.56V494.32a2.59,2.59,0,0,1,2.58-2.56h.57a2.59,2.59,0,0,1,2.58,2.56Zm-495.12.24V787.82a2.81,2.81,0,0,1-2.81,2.78H365.4a2.8,2.8,0,0,1-2.79-2.78V494.56a2.79,2.79,0,0,1,2.79-2.79h1.14a2.81,2.81,0,0,1,2.81,2.79Z"></path></svg> 