<?xml version="1.0" encoding="UTF-8"?> <svg xmlns="http://www.w3.org/2000/svg" id="Livello_1" data-name="Livello 1" viewBox="0 0 1164.44 998.95"><defs><style>.cls-1{fill:#fff;}.cls-2{fill:#231f20;}.cls-3,.cls-4{fill:none;stroke-width:0.25px;}.cls-3{stroke:#000;}.cls-4{stroke:#231f20;stroke-linejoin:round;}</style></defs><title>Vanity small rectangular</title><rect class="cls-1" width="1164.44" height="998.95"></rect><path class="cls-2" d="M378.85,58.27V69.54h1a39,39,0,0,0,15.19-2.67,28.58,28.58,0,0,0,10.79-7.55,30.93,30.93,0,0,0,6.5-11.65,50.9,50.9,0,0,0,2.1-15.19V27.7a35.5,35.5,0,0,0-1.62-11.27,25.61,25.61,0,0,0-4.59-8.79A20.78,20.78,0,0,0,401,2a22,22,0,0,0-9.46-2,22.9,22.9,0,0,0-9.45,1.91,21.23,21.23,0,0,0-7.17,5.25,21.77,21.77,0,0,0-4.58,7.55,27.56,27.56,0,0,0-1.63,9.36A30.67,30.67,0,0,0,370,33.15a21.34,21.34,0,0,0,3.82,7.16A19.25,19.25,0,0,0,380,45.18a20.24,20.24,0,0,0,8.59,1.72,16,16,0,0,0,6.69-1.43,18.2,18.2,0,0,0,5.54-3.73,19.54,19.54,0,0,1-1.72,7.07,13.45,13.45,0,0,1-4,5.16,18.56,18.56,0,0,1-6.4,3.25,34.27,34.27,0,0,1-8.88,1.05Zm8.69-22.64a9.19,9.19,0,0,1-3-2.77,11,11,0,0,1-1.81-4,19.88,19.88,0,0,1-.58-5,19.49,19.49,0,0,1,.58-4.78,11.9,11.9,0,0,1,1.81-4.2A8.18,8.18,0,0,1,387.45,12a7,7,0,0,1,4-1.15,9,9,0,0,1,3.82.86,11.55,11.55,0,0,1,3.06,2.67,14.35,14.35,0,0,1,2,4.59,24.43,24.43,0,0,1,.67,6.3v5.54A11,11,0,0,1,397.48,35a9.82,9.82,0,0,1-5.64,1.63,8.91,8.91,0,0,1-4.3-1Zm49.33,2.48c.48-.47,1-.86,1.53-1.33a9,9,0,0,1,1.82-1.25,15.82,15.82,0,0,1,2.48-.76,11.16,11.16,0,0,1,3.25-.38,12.89,12.89,0,0,1,4.87.86,8.71,8.71,0,0,1,3.34,2.48,8.24,8.24,0,0,1,2,3.73,16.15,16.15,0,0,1,.67,4.87,26.36,26.36,0,0,1-.48,5,12.67,12.67,0,0,1-1.72,4,8,8,0,0,1-3,2.67,8.65,8.65,0,0,1-4.3,1,9.29,9.29,0,0,1-6.69-2.39,9.76,9.76,0,0,1-3-6.59H424.36a19.92,19.92,0,0,0,2.1,8.4,19.26,19.26,0,0,0,5.16,6.21,21.3,21.3,0,0,0,7.26,3.92,28.24,28.24,0,0,0,8.5,1.34,25.25,25.25,0,0,0,10.13-1.91A20.13,20.13,0,0,0,469,55.69a27.91,27.91,0,0,0,1.34-8.6A33.56,33.56,0,0,0,469,37.45a20.37,20.37,0,0,0-4.11-7.17,17.57,17.57,0,0,0-6.49-4.49,23,23,0,0,0-8.79-1.53c-1.05,0-2.2.1-3.15.19a28.73,28.73,0,0,0-3,.67c-.85.29-1.62.58-2.29.86a7.55,7.55,0,0,0-1.72.86l1.63-14.61h27V1H430l-3.92,34.48ZM518.78,1H505.12l-28.28,44.7.58,8.5h27.89V68.87h13.47V54.16h7.64V43.27h-7.64Zm-14.43,20,1-1.62v24H490.22Zm75,8.12a44,44,0,0,0-1.72-13.18,23.45,23.45,0,0,0-4.68-9,17.54,17.54,0,0,0-7.26-5.16A24.31,24.31,0,0,0,556.36,0,24.64,24.64,0,0,0,547,1.72a17.27,17.27,0,0,0-7.17,5.16,23.59,23.59,0,0,0-4.68,9A44.32,44.32,0,0,0,533.43,29V40.79a44,44,0,0,0,1.72,13.08A25.57,25.57,0,0,0,539.83,63a17.54,17.54,0,0,0,7.26,5.16,24.91,24.91,0,0,0,9.36,1.72,24.56,24.56,0,0,0,9.37-1.72A17.54,17.54,0,0,0,573.08,63a25.57,25.57,0,0,0,4.68-9.08,47.47,47.47,0,0,0,1.62-13.08ZM565.91,42.6a34.87,34.87,0,0,1-.67,7.65,14.86,14.86,0,0,1-1.81,5.06,6.92,6.92,0,0,1-3,2.77,9.8,9.8,0,0,1-8,0,6.92,6.92,0,0,1-3-2.77,14.79,14.79,0,0,1-1.91-5.06A43.37,43.37,0,0,1,547,42.6V27a42,42,0,0,1,.57-7.54,14.1,14.1,0,0,1,1.82-5,8.08,8.08,0,0,1,3-2.77,9.44,9.44,0,0,1,4-.76,8.87,8.87,0,0,1,4,.76,7.69,7.69,0,0,1,3.06,2.77,14.31,14.31,0,0,1,1.81,5,33.75,33.75,0,0,1,.67,7.54Zm49.33-8.21H589V45.18h26.27Zm23.94,5.06h7.17A18.13,18.13,0,0,1,651,40a13.68,13.68,0,0,1,3.53,1.82,9.4,9.4,0,0,1,2.2,3.15,13.7,13.7,0,0,1,.76,4.68,10,10,0,0,1-.76,3.82,6.55,6.55,0,0,1-2,2.87,7.32,7.32,0,0,1-3.25,1.91,11.86,11.86,0,0,1-4.29.67,10.49,10.49,0,0,1-3.92-.67,8.45,8.45,0,0,1-3.15-1.82A8.17,8.17,0,0,1,638,53.78a8.47,8.47,0,0,1-.76-3.53H623.8a17.69,17.69,0,0,0,2,8.69,18.06,18.06,0,0,0,5.25,6.11,22.92,22.92,0,0,0,7.36,3.63,31.73,31.73,0,0,0,8.5,1.15,33.9,33.9,0,0,0,9.55-1.34,22.21,22.21,0,0,0,7.64-3.92,18,18,0,0,0,5.07-6.21,20.24,20.24,0,0,0,1.81-8.5A15.89,15.89,0,0,0,659.62,34a23.09,23.09,0,0,0,4.4-2.77,21.87,21.87,0,0,0,3.24-3.44,18.39,18.39,0,0,0,2-4.11,16.88,16.88,0,0,0,.67-4.3,19.64,19.64,0,0,0-1.72-8.4,17,17,0,0,0-4.68-6,21.69,21.69,0,0,0-7.26-3.73A36,36,0,0,0,646.92,0a28.5,28.5,0,0,0-8.69,1.34,23.54,23.54,0,0,0-7.07,3.72,18.88,18.88,0,0,0-4.78,5.83,16.88,16.88,0,0,0-1.72,7.64h13.47a7.07,7.07,0,0,1,.76-3.15A6.74,6.74,0,0,1,640.81,13a7.87,7.87,0,0,1,3-1.53,10,10,0,0,1,3.44-.57,10.49,10.49,0,0,1,4.1.67,7.42,7.42,0,0,1,2.87,1.81,6.93,6.93,0,0,1,1.72,2.77,10.05,10.05,0,0,1,.57,3.44A9.4,9.4,0,0,1,654,26.36c-1.72,1.72-4.21,2.58-7.64,2.58h-7.17ZM726,29a44.32,44.32,0,0,0-1.72-13.18,23.59,23.59,0,0,0-4.68-9,17.54,17.54,0,0,0-7.26-5.16A24.35,24.35,0,0,0,702.94,0a24.73,24.73,0,0,0-9.37,1.72,17.24,17.24,0,0,0-7.16,5.16,23.45,23.45,0,0,0-4.68,9A44,44,0,0,0,680,29V40.79a43.71,43.71,0,0,0,1.72,13.08A25.41,25.41,0,0,0,686.41,63a17.54,17.54,0,0,0,7.26,5.16A24.87,24.87,0,0,0,703,69.83a24.5,24.5,0,0,0,9.36-1.72A17.48,17.48,0,0,0,719.65,63a25.25,25.25,0,0,0,4.68-9.08A47.44,47.44,0,0,0,726,40.79ZM712.49,42.6a34.87,34.87,0,0,1-.67,7.65A14.64,14.64,0,0,1,710,55.31a6.81,6.81,0,0,1-3,2.77,9.78,9.78,0,0,1-8,0,6.81,6.81,0,0,1-3-2.77,14.79,14.79,0,0,1-1.91-5.06,43.26,43.26,0,0,1-.58-7.65V27a41.86,41.86,0,0,1,.58-7.54,14.31,14.31,0,0,1,1.81-5,8.16,8.16,0,0,1,3-2.77,9.48,9.48,0,0,1,4-.76,8.93,8.93,0,0,1,4,.76,7.66,7.66,0,0,1,3,2.77,14.1,14.1,0,0,1,1.82,5,33.75,33.75,0,0,1,.67,7.54Z"></path><path class="cls-2" d="M222.23,186.66a9.34,9.34,0,0,1-2.49,3,18.21,18.21,0,0,1-4.1,2,24.06,24.06,0,0,1-10.42.19,14.15,14.15,0,0,1-4.49-1.72,9.58,9.58,0,0,1-3.34-3.15,9.86,9.86,0,0,1-1.53-5h-5.63a12.83,12.83,0,0,0,1.33,5.63,14.11,14.11,0,0,0,3.83,4.87,18.55,18.55,0,0,0,6.11,3.35,29.07,29.07,0,0,0,8.5,1.24,27.49,27.49,0,0,0,7.74-1,16.6,16.6,0,0,0,5.82-2.87,13.94,13.94,0,0,0,3.83-4.39,12.61,12.61,0,0,0,1.24-5.73,12,12,0,0,0-1-5.35,10.79,10.79,0,0,0-3.16-4.11,23.06,23.06,0,0,0-5.54-3.15,51.74,51.74,0,0,0-7.83-2.3,51.58,51.58,0,0,1-6.88-2,14.49,14.49,0,0,1-4.1-2.2,5,5,0,0,1-2-2.58,7.93,7.93,0,0,1-.57-3.05,7.59,7.59,0,0,1,.76-3.16,7.43,7.43,0,0,1,2.1-2.86,12.82,12.82,0,0,1,3.82-2,16,16,0,0,1,5.54-.76,16.24,16.24,0,0,1,5.54.86,11.93,11.93,0,0,1,4.11,2.29,9.45,9.45,0,0,1,2.58,3.34,9,9,0,0,1,.86,3.82h5.54a13.82,13.82,0,0,0-1.24-6,14.73,14.73,0,0,0-3.63-4.78,18.26,18.26,0,0,0-5.92-3.15,26.78,26.78,0,0,0-15.19-.1,18.69,18.69,0,0,0-5.64,3,12.71,12.71,0,0,0-3.53,4.4,11.58,11.58,0,0,0-1.24,5.35,12,12,0,0,0,1.14,5.35,10.42,10.42,0,0,0,3.44,3.91,20.17,20.17,0,0,0,5.54,2.87,59.79,59.79,0,0,0,7.45,2,39.47,39.47,0,0,1,6.88,2.11,13.9,13.9,0,0,1,4.11,2.57,8.87,8.87,0,0,1,2,2.87,9,9,0,0,1,.58,3.15,7,7,0,0,1-.86,3.35Zm18.58-41v50.43h5.63V161.53a25.92,25.92,0,0,1,1.82-4.49,19.5,19.5,0,0,1,3-3.82,16.25,16.25,0,0,1,4.3-2.67,14,14,0,0,1,5.54-1,17,17,0,0,1,5.06.67,9.17,9.17,0,0,1,6.4,6.21,20.21,20.21,0,0,1,.86,6.31v33.33H279V162.68a13.39,13.39,0,0,1,1.14-4.49A18.16,18.16,0,0,1,283,154a16.32,16.32,0,0,1,4.58-3.16,13.72,13.72,0,0,1,6.12-1.24,19.3,19.3,0,0,1,5,.58,8.36,8.36,0,0,1,3.92,2.19,10.13,10.13,0,0,1,2.58,4.21,21.28,21.28,0,0,1,.86,6.59v33h5.54V163.25a27.36,27.36,0,0,0-1-8.4,14,14,0,0,0-3.25-5.73,12.11,12.11,0,0,0-5.25-3.35,22.31,22.31,0,0,0-7-1.05,21,21,0,0,0-5.63.77,19.06,19.06,0,0,0-4.78,2,17.68,17.68,0,0,0-3.91,3.15,21.93,21.93,0,0,0-2.87,3.82,13.33,13.33,0,0,0-5.64-7.45,18.91,18.91,0,0,0-9.55-2.29,17.7,17.7,0,0,0-5.16.67A17.17,17.17,0,0,0,253,147.2a13.9,13.9,0,0,0-3.72,2.87,19.5,19.5,0,0,0-3,3.82l-.19-8.21Zm122.66,50.43v-.57a18.23,18.23,0,0,1-.67-2.1c-.19-.77-.29-1.63-.48-2.49s-.19-1.72-.28-2.67a24.83,24.83,0,0,1-.1-2.67V161.15A18,18,0,0,0,360.6,154a13.94,13.94,0,0,0-3.82-5.16,16.43,16.43,0,0,0-5.73-3.06,26.44,26.44,0,0,0-15.38.19,21.89,21.89,0,0,0-6.11,3.35,15.75,15.75,0,0,0-3.92,4.77,11,11,0,0,0-1.33,5.45l5.54.09a8.36,8.36,0,0,1,1-4,10.85,10.85,0,0,1,2.77-3.25,12.88,12.88,0,0,1,4.3-2.1,16.12,16.12,0,0,1,5.34-.86q6.45,0,9.75,3.15a11.05,11.05,0,0,1,3.34,8.51v5.73H346.08a41.84,41.84,0,0,0-9.64,1.05,21.74,21.74,0,0,0-7.26,3.25,13.2,13.2,0,0,0-6.12,11.65,13.91,13.91,0,0,0,1.15,5.64,13.24,13.24,0,0,0,3.25,4.58,15.4,15.4,0,0,0,5.16,3.06,21.21,21.21,0,0,0,6.68,1,25.24,25.24,0,0,0,5.54-.67,31.08,31.08,0,0,0,4.78-1.72,17.91,17.91,0,0,0,3.82-2.58,14.48,14.48,0,0,0,3-3.06c.1,1.34.19,2.58.38,3.92a12.74,12.74,0,0,0,.77,3.15Zm-28.18-4.77a11.4,11.4,0,0,1-3.63-2.11,8.2,8.2,0,0,1-2.2-3.15,8.63,8.63,0,0,1-.86-3.82,9.44,9.44,0,0,1,1.25-4.68,9.86,9.86,0,0,1,3.63-3.53,17.31,17.31,0,0,1,5.73-2.2,31,31,0,0,1,7.64-.76h9.55v11.08a17,17,0,0,1-2.48,3.91,17.13,17.13,0,0,1-8.31,5.26,21.47,21.47,0,0,1-5.64.76,14.34,14.34,0,0,1-4.68-.76Zm47.81-66.87h-5.64v71.64h5.64Zm21.37,0h-5.63v71.64h5.63Zm61.76,20.82a11.66,11.66,0,0,0-1.62-.38,16.55,16.55,0,0,0-2.1-.19,14.52,14.52,0,0,0-8.6,2.39,17.33,17.33,0,0,0-5.64,6.59l-.09-8h-5.45v50.43h5.54V161.44a24.91,24.91,0,0,1,1.91-4.59,13.35,13.35,0,0,1,3-3.53,12,12,0,0,1,4-2.39,14.7,14.7,0,0,1,5.16-.86,22.74,22.74,0,0,1,3.72.29Zm34.26,51a19.33,19.33,0,0,0,8.79-4.68,24.74,24.74,0,0,0,3-3.53l-3.53-2.58a16.54,16.54,0,0,1-6.21,5.16,17.66,17.66,0,0,1-7.93,1.62,16,16,0,0,1-7.07-1.53,16.92,16.92,0,0,1-5.44-4.3,19.14,19.14,0,0,1-3.54-6.3,23.58,23.58,0,0,1-1.24-7.83v-1.05h36v-3.44a31.94,31.94,0,0,0-1.33-9.27,20.73,20.73,0,0,0-3.82-7.35,18.47,18.47,0,0,0-6.31-4.78,19.79,19.79,0,0,0-8.5-1.72,18.65,18.65,0,0,0-8.22,1.82,22.5,22.5,0,0,0-6.87,5.15,24,24,0,0,0-4.78,8,30.73,30.73,0,0,0-1.72,10.6v2a27.69,27.69,0,0,0,1.72,9.93,22.21,22.21,0,0,0,4.68,7.83,20.08,20.08,0,0,0,7.17,5.07,21.76,21.76,0,0,0,9.07,1.91,23.61,23.61,0,0,0,6.11-.77Zm-.95-45.47a15.48,15.48,0,0,1,4.49,3.63,17.18,17.18,0,0,1,2.67,5.26,22,22,0,0,1,1.05,6.21v.57H477.47a25.81,25.81,0,0,1,1.82-7,17.52,17.52,0,0,1,3.34-5.35,16.71,16.71,0,0,1,4.78-3.54,15.27,15.27,0,0,1,5.92-1.14,14.15,14.15,0,0,1,6.21,1.33Zm35.87,39.84a16.1,16.1,0,0,1-5-4.49,20.32,20.32,0,0,1-2.67-6.59,33.38,33.38,0,0,1-.86-7.74v-1.91a33.94,33.94,0,0,1,.86-7.74,18,18,0,0,1,2.77-6.49,14,14,0,0,1,4.87-4.59,15.77,15.77,0,0,1,7.35-1.62,16.35,16.35,0,0,1,5.35.86,14.85,14.85,0,0,1,4.4,2.67,13.24,13.24,0,0,1,3,4.11,14.1,14.1,0,0,1,1.24,5.54h5.45a22.56,22.56,0,0,0-1.72-7.45A18.23,18.23,0,0,0,550.31,146a23.49,23.49,0,0,0-16.81.67,20,20,0,0,0-6.79,5.35,24.52,24.52,0,0,0-4.1,8,36.25,36.25,0,0,0-1.34,9.94v1.91a36.66,36.66,0,0,0,1.34,9.93,24.47,24.47,0,0,0,4.1,8,19.34,19.34,0,0,0,6.79,5.25,20.3,20.3,0,0,0,9.26,2,23.47,23.47,0,0,0,7.36-1.24,20.74,20.74,0,0,0,6-3.44,16.36,16.36,0,0,0,4.29-5.26,16.87,16.87,0,0,0,1.82-6.59H556.8a12.06,12.06,0,0,1-1.33,5.07,14.72,14.72,0,0,1-3.16,3.72,14.48,14.48,0,0,1-4.39,2.2,15.4,15.4,0,0,1-5.16.76,14.74,14.74,0,0,1-7.35-1.62Zm40.93-58v13h-9.27v4.58h9.27v33.63a19.9,19.9,0,0,0,.86,6.3,10.81,10.81,0,0,0,2.29,4,7.37,7.37,0,0,0,3.44,2.2,13.15,13.15,0,0,0,4.39.67c1.15,0,2.2-.1,3.35-.19a16,16,0,0,0,2.67-.67l-.29-4.49c-.57.09-1.33.19-2.1.29a20.26,20.26,0,0,1-2.38.09,10.05,10.05,0,0,1-2.49-.29,4.12,4.12,0,0,1-2.1-1.14,5.61,5.61,0,0,1-1.43-2.58,12.74,12.74,0,0,1-.58-4.2V150.26h10.42v-4.58H582v-13Zm65.4,63.42v-.57a18.23,18.23,0,0,1-.67-2.1c-.19-.77-.28-1.63-.48-2.49s-.19-1.72-.28-2.67a24.83,24.83,0,0,1-.1-2.67V161.15a18,18,0,0,0-1.33-7.16,14.07,14.07,0,0,0-3.83-5.16,16.43,16.43,0,0,0-5.73-3.06,26.44,26.44,0,0,0-15.38.19,22,22,0,0,0-6.11,3.35,15.75,15.75,0,0,0-3.92,4.77,11,11,0,0,0-1.33,5.45l5.54.09a8.36,8.36,0,0,1,1-4,11,11,0,0,1,2.77-3.25,12.88,12.88,0,0,1,4.3-2.1,16.18,16.18,0,0,1,5.35-.86q6.43,0,9.74,3.15c2.2,2,3.34,4.88,3.34,8.51v5.73H624.36a41.93,41.93,0,0,0-9.65,1.05,21.74,21.74,0,0,0-7.26,3.25,13.16,13.16,0,0,0-6.11,11.65,13.9,13.9,0,0,0,1.14,5.64,13.37,13.37,0,0,0,3.25,4.58,15.4,15.4,0,0,0,5.16,3.06,21.26,21.26,0,0,0,6.68,1,25.24,25.24,0,0,0,5.54-.67,31.08,31.08,0,0,0,4.78-1.72,17.66,17.66,0,0,0,3.82-2.58,14.48,14.48,0,0,0,3-3.06c.1,1.34.19,2.58.38,3.92a13.2,13.2,0,0,0,.77,3.15Zm-28.18-4.77a11.4,11.4,0,0,1-3.63-2.11,8.07,8.07,0,0,1-2.19-3.15,8.49,8.49,0,0,1-.86-3.82,9.44,9.44,0,0,1,1.24-4.68,9.86,9.86,0,0,1,3.63-3.53,17.49,17.49,0,0,1,5.73-2.2,31,31,0,0,1,7.64-.76h9.55v11.08a17,17,0,0,1-2.48,3.91,19.31,19.31,0,0,1-3.63,3.15,19,19,0,0,1-4.68,2.11,21.47,21.47,0,0,1-5.64.76,14.34,14.34,0,0,1-4.68-.76Zm41.5-45.66v50.43h5.54V161.53a21.47,21.47,0,0,1,2.2-4.39,15.88,15.88,0,0,1,3.15-3.92,16.58,16.58,0,0,1,4.3-2.67,14.18,14.18,0,0,1,5.45-1,16.31,16.31,0,0,1,5,.67,8.21,8.21,0,0,1,3.73,2.2,11.31,11.31,0,0,1,2.39,4.2,21.77,21.77,0,0,1,.86,6.59v32.86h5.54V163.25a27.56,27.56,0,0,0-1.15-8.5,15.58,15.58,0,0,0-3.15-5.73,11.88,11.88,0,0,0-5.06-3.25,18.89,18.89,0,0,0-6.79-1.05,18.05,18.05,0,0,0-5.15.67,20.48,20.48,0,0,0-4.49,1.91,19.37,19.37,0,0,0-3.82,3.06,19.85,19.85,0,0,0-3,3.91l-.19-8.59Zm50.2,25.69a35.88,35.88,0,0,0,1.33,10.41,23.57,23.57,0,0,0,3.83,8.12,18.82,18.82,0,0,0,6.11,5.26,17.29,17.29,0,0,0,8.12,1.91,20,20,0,0,0,9.26-2,17.52,17.52,0,0,0,6.31-5.44v5.82a21.18,21.18,0,0,1-1,6.79,12.9,12.9,0,0,1-3,5,11.68,11.68,0,0,1-4.68,3.25,18.07,18.07,0,0,1-6.3,1.05,16.5,16.5,0,0,1-7.55-1.72,21.51,21.51,0,0,1-6.59-5.54l-3.06,3.35a16.94,16.94,0,0,0,3.54,3.82,25.09,25.09,0,0,0,4.39,2.67,27.74,27.74,0,0,0,4.78,1.62,20.64,20.64,0,0,0,4.87.48,23.07,23.07,0,0,0,8.31-1.43,18.05,18.05,0,0,0,6.4-4.11,18.93,18.93,0,0,0,4-6.59,25.17,25.17,0,0,0,1.53-8.79V145.68H740.7l-.29,7.26a18.3,18.3,0,0,0-6.4-6,17.76,17.76,0,0,0-9.27-2.2,17.53,17.53,0,0,0-8.21,1.82,18.59,18.59,0,0,0-6.11,5.15,23.75,23.75,0,0,0-3.83,8.12,36.87,36.87,0,0,0-1.33,10.61Zm5.63-1a37.63,37.63,0,0,1,.86-8.22,20.82,20.82,0,0,1,2.68-6.59,12.84,12.84,0,0,1,4.68-4.39,12.36,12.36,0,0,1,6.68-1.63,17.91,17.91,0,0,1,5.35.77,14.92,14.92,0,0,1,4.11,2.19,15.15,15.15,0,0,1,3,3.16,16.29,16.29,0,0,1,2,3.82v23.4a18.11,18.11,0,0,1-2.2,3.73,12.52,12.52,0,0,1-3,2.86,15.11,15.11,0,0,1-4.11,2,17.26,17.26,0,0,1-5.16.67,13.06,13.06,0,0,1-11.27-6,20.82,20.82,0,0,1-2.68-6.59,37,37,0,0,1-.86-8.22ZM793,196.11h5.45V145.68H792.8v36.49a19.72,19.72,0,0,1-1.91,4,10.79,10.79,0,0,1-3.06,3.15,12.94,12.94,0,0,1-4.49,2.1,21.11,21.11,0,0,1-5.92.77,14.13,14.13,0,0,1-4.49-.67,9.18,9.18,0,0,1-3.72-2.39,11.46,11.46,0,0,1-2.49-4.3,22.81,22.81,0,0,1-1-6.78V145.68h-5.54V178a26.34,26.34,0,0,0,1.24,8.79,15.39,15.39,0,0,0,3.34,5.92,13.79,13.79,0,0,0,5.26,3.35,23.67,23.67,0,0,0,16.52-1,16.3,16.3,0,0,0,6.31-5.35Zm26.12-71.64h-5.63v71.64h5.63ZM872,196.11v-.57a18.23,18.23,0,0,1-.67-2.1c-.19-.77-.28-1.63-.48-2.49s-.19-1.72-.28-2.67a24.83,24.83,0,0,1-.1-2.67V161.15a18,18,0,0,0-1.33-7.16,14.07,14.07,0,0,0-3.83-5.16,16.43,16.43,0,0,0-5.73-3.06,26.44,26.44,0,0,0-15.38.19,22,22,0,0,0-6.11,3.35,15.75,15.75,0,0,0-3.92,4.77,11,11,0,0,0-1.33,5.45l5.54.09a8.36,8.36,0,0,1,1.05-4,11,11,0,0,1,2.77-3.25,12.88,12.88,0,0,1,4.3-2.1,16.18,16.18,0,0,1,5.35-.86q6.43,0,9.74,3.15c2.2,2,3.34,4.88,3.34,8.51v5.73H854.63a41.93,41.93,0,0,0-9.65,1.05,21.74,21.74,0,0,0-7.26,3.25,13.2,13.2,0,0,0-6.12,11.65,13.91,13.91,0,0,0,1.15,5.64A13.37,13.37,0,0,0,836,193a15.4,15.4,0,0,0,5.16,3.06,21.26,21.26,0,0,0,6.68,1,25.24,25.24,0,0,0,5.54-.67,31.08,31.08,0,0,0,4.78-1.72A17.91,17.91,0,0,0,862,192.1a14.48,14.48,0,0,0,3-3.06c.1,1.34.19,2.58.38,3.92a13.2,13.2,0,0,0,.77,3.15Zm-28.18-4.77a11.4,11.4,0,0,1-3.63-2.11,8.2,8.2,0,0,1-2.2-3.15,8.62,8.62,0,0,1-.85-3.82,9.44,9.44,0,0,1,1.24-4.68,9.86,9.86,0,0,1,3.63-3.53,17.49,17.49,0,0,1,5.73-2.2,31,31,0,0,1,7.64-.76h9.55v11.08a17,17,0,0,1-2.48,3.91,19.31,19.31,0,0,1-3.63,3.15,19,19,0,0,1-4.68,2.11,21.47,21.47,0,0,1-5.64.76,14.34,14.34,0,0,1-4.68-.76Zm65-46.05a11.66,11.66,0,0,0-1.62-.38,16.55,16.55,0,0,0-2.1-.19,14.52,14.52,0,0,0-8.6,2.39,17.33,17.33,0,0,0-5.64,6.59l-.09-8h-5.45v50.43h5.54V161.44a24.91,24.91,0,0,1,1.91-4.59,13.35,13.35,0,0,1,3-3.53,12,12,0,0,1,4-2.39,14.7,14.7,0,0,1,5.16-.86,22.74,22.74,0,0,1,3.72.29Z"></path><line class="cls-3" x1="868.15" y1="399.2" x2="868.15" y2="703.43"></line><path d="M1032.74,502.86V530.1l-15.8-14.5c-7.32-6.87-13.73-10.22-19.07-10.22a13.64,13.64,0,0,0-10.53,4.35c-2.67,3-4,6.94-4,12,0,5.41,1.53,9.69,4.65,12.89s7.1,4.88,12.06,4.88v-6.94c-3.43,0-6.18-.92-8.16-2.82a10.85,10.85,0,0,1-2.9-8,9.07,9.07,0,0,1,2.74-6.87,9.72,9.72,0,0,1,7-2.52,13.07,13.07,0,0,1,6.1,1.53,42,42,0,0,1,7.71,5.8l20.9,18.77h5V502.86Zm0-42.91v27.24l-15.8-14.49c-7.32-6.87-13.73-10.23-19.07-10.23a13.64,13.64,0,0,0-10.53,4.35c-2.67,3-4,6.94-4,12,0,5.42,1.53,9.69,4.65,12.89s7.1,4.89,12.06,4.89v-6.95c-3.43,0-6.18-.91-8.16-2.82a10.85,10.85,0,0,1-2.9-8,9.1,9.1,0,0,1,2.74-6.87,9.72,9.72,0,0,1,7-2.52,13.19,13.19,0,0,1,6.1,1.53,43,43,0,0,1,7.71,5.8l20.9,18.77h5V460Z"></path><path d="M419.3,914.88H392.06l14.5-15.79c6.87-7.33,10.22-13.74,10.22-19.08a13.64,13.64,0,0,0-4.35-10.53c-3-2.67-6.94-4-12-4-5.42,0-9.69,1.53-12.9,4.66s-4.88,7.09-4.88,12.05h6.94c0-3.43.92-6.18,2.82-8.16s4.58-2.9,8-2.9a9,9,0,0,1,6.86,2.75,9.69,9.69,0,0,1,2.52,6.94,13,13,0,0,1-1.53,6.1,42,42,0,0,1-5.79,7.71l-18.77,20.91v5H419.3Zm36.42-48.6H448.4l-24.27,37.61v4.05h24.72v12.59h6.87V907.94h7.56v-5.65h-7.56ZM448,877.19l.84-1.45v26.55H431.92Zm27,3h-8l13.2,19.91-13.58,20.38h8l9.31-15.11,9.31,15.11h8l-13.66-20.38,13.2-19.91h-8L483.82,895Zm55.11-14.19H529l-19.76,7.4v6.25l13.89-5.11v45.94h6.94Zm55.8,48.83H558.64l14.5-15.79c6.87-7.33,10.22-13.74,10.22-19.08A13.67,13.67,0,0,0,579,869.48c-3-2.67-6.95-4-12-4-5.42,0-9.69,1.53-12.9,4.66s-4.88,7.09-4.88,12.05h6.94c0-3.43.92-6.18,2.82-8.16s4.58-2.9,8-2.9a9,9,0,0,1,6.86,2.75,9.69,9.69,0,0,1,2.52,6.94,13,13,0,0,1-1.53,6.1,42,42,0,0,1-5.79,7.71l-18.77,20.91v5h35.55Z"></path><line class="cls-3" x1="348.11" y1="786.33" x2="746.64" y2="786.33"></line><path class="cls-1" d="M352.08,362.22l-2.22,5.3L351,372.9l12.95,10.27H372s6,.15,8.35,0a34.65,34.65,0,0,1,4.78.06l-.09-10.5L367.47,354.2Z"></path><path class="cls-1" d="M349.88,388.58s3.24,11.87,20,10.78H700.23s18.92-1.61,27-18.36V666s-5.41,22.14-32.45,20l-344.94-1.08"></path><path class="cls-1" d="M349.88,367.52V684.93s-2.17,15.12,15.14,15.12H702.39s29.21,1.61,39.49-37.26V349.17s-23.8,36.69-46.51,34-331.45,0-331.45,0S320.67,365.35,385,344.84v34"></path><path class="cls-4" d="M349.88,388.58s3.23,11.87,20,10.78H700.23s18.92-1.61,27-18.36V666s-5.41,22.14-32.45,20l-344.94-1.08m0-317.41V684.93S347.7,700.05,365,700.05H702.39s29.21,1.61,39.49-37.26V349.17s-23.81,36.69-46.51,34-331.45,0-331.45,0S320.66,365.35,385,344.84v34"></path></svg> 