<?xml version="1.0" encoding="UTF-8"?> <svg xmlns="http://www.w3.org/2000/svg" id="Livello_1" data-name="Livello 1" viewBox="0 0 1164.44 1000"><defs><style>.cls-1{fill:#fff;}.cls-2{fill:#231f20;}.cls-3,.cls-4,.cls-5{fill:none;stroke:#000;stroke-width:0.25px;}.cls-4{stroke-linejoin:round;}.cls-5{stroke-miterlimit:10;}</style></defs><title>Vanity large rectangular</title><rect class="cls-1" width="1164.44" height="998.95"></rect><path class="cls-2" d="M327.59,58.27V69.54h1.05a39,39,0,0,0,15.19-2.67,28.66,28.66,0,0,0,10.79-7.55,31.06,31.06,0,0,0,6.5-11.65,50.9,50.9,0,0,0,2.1-15.19V27.7a35.22,35.22,0,0,0-1.63-11.27A25.77,25.77,0,0,0,357,7.64,21,21,0,0,0,349.75,2a22.07,22.07,0,0,0-9.46-2,22.9,22.9,0,0,0-9.45,1.91,21.23,21.23,0,0,0-7.17,5.25,21.62,21.62,0,0,0-4.58,7.55,27.32,27.32,0,0,0-1.63,9.36,30.67,30.67,0,0,0,1.24,9.08,21.52,21.52,0,0,0,3.82,7.16,19.35,19.35,0,0,0,6.21,4.87,20.28,20.28,0,0,0,8.6,1.72A16,16,0,0,0,344,45.47a18.32,18.32,0,0,0,5.54-3.73,19.75,19.75,0,0,1-1.72,7.07,13.55,13.55,0,0,1-4,5.16,18.56,18.56,0,0,1-6.4,3.25,34.35,34.35,0,0,1-8.89,1.05Zm8.69-22.64a9,9,0,0,1-3-2.77,11.15,11.15,0,0,1-1.82-4,20.37,20.37,0,0,1-.57-5,20,20,0,0,1,.57-4.78,12.09,12.09,0,0,1,1.82-4.2A8.16,8.16,0,0,1,336.18,12a7.05,7.05,0,0,1,4-1.15,9,9,0,0,1,3.82.86,11.52,11.52,0,0,1,3.05,2.67,14.58,14.58,0,0,1,2,4.59,24.43,24.43,0,0,1,.67,6.3v5.54A11.12,11.12,0,0,1,346.21,35a9.77,9.77,0,0,1-5.63,1.63,8.88,8.88,0,0,1-4.3-1Zm49.33,2.48c.48-.47,1-.86,1.53-1.33A9.17,9.17,0,0,1,389,35.53a16,16,0,0,1,2.49-.76,11.07,11.07,0,0,1,3.25-.38,12.93,12.93,0,0,1,4.87.86,8.79,8.79,0,0,1,3.34,2.48,8.33,8.33,0,0,1,2,3.73,16.47,16.47,0,0,1,.66,4.87,27.24,27.24,0,0,1-.47,5,12.9,12.9,0,0,1-1.72,4,8.1,8.1,0,0,1-3,2.67,8.67,8.67,0,0,1-4.3,1,9.29,9.29,0,0,1-6.69-2.39,9.72,9.72,0,0,1-3-6.59H373.1a19.77,19.77,0,0,0,2.1,8.4,19.26,19.26,0,0,0,5.16,6.21,21.3,21.3,0,0,0,7.26,3.92,28.24,28.24,0,0,0,8.5,1.34,25.2,25.2,0,0,0,10.12-1.91,20.46,20.46,0,0,0,7.17-5,20.7,20.7,0,0,0,4.3-7.26,27.91,27.91,0,0,0,1.33-8.6,33.57,33.57,0,0,0-1.33-9.64,20.52,20.52,0,0,0-4.11-7.17,17.61,17.61,0,0,0-6.5-4.49,22.9,22.9,0,0,0-8.78-1.53c-1.06,0-2.2.1-3.16.19a28.53,28.53,0,0,0-3,.67c-.86.29-1.62.58-2.29.86a7.55,7.55,0,0,0-1.72.86l1.62-14.61h27V1H378.73l-3.91,34.48ZM467.51,1H453.86l-28.28,44.7.57,8.5h27.9V68.87h13.46V54.16h7.65V43.27h-7.65Zm-14.42,20,1-1.62v24H439Zm75,8.12a44.32,44.32,0,0,0-1.72-13.18,23.59,23.59,0,0,0-4.68-9,17.54,17.54,0,0,0-7.26-5.16A24.31,24.31,0,0,0,505.1,0a24.64,24.64,0,0,0-9.36,1.72,17.2,17.2,0,0,0-7.17,5.16,23.45,23.45,0,0,0-4.68,9A44,44,0,0,0,482.17,29V40.79a43.71,43.71,0,0,0,1.72,13.08A25.41,25.41,0,0,0,488.57,63a17.54,17.54,0,0,0,7.26,5.16,24.87,24.87,0,0,0,9.36,1.72,24.5,24.5,0,0,0,9.36-1.72A17.48,17.48,0,0,0,521.81,63a25.25,25.25,0,0,0,4.68-9.08,47.44,47.44,0,0,0,1.63-13.08ZM514.65,42.6a34.87,34.87,0,0,1-.67,7.65,14.86,14.86,0,0,1-1.81,5.06,6.89,6.89,0,0,1-3,2.77,9.78,9.78,0,0,1-8,0,6.81,6.81,0,0,1-3-2.77,14.79,14.79,0,0,1-1.91-5.06,43.37,43.37,0,0,1-.57-7.65V27a42,42,0,0,1,.57-7.54,14.31,14.31,0,0,1,1.81-5,8.16,8.16,0,0,1,3-2.77,9.48,9.48,0,0,1,4-.76,8.93,8.93,0,0,1,4,.76,7.69,7.69,0,0,1,3.06,2.77,14.31,14.31,0,0,1,1.81,5,33.75,33.75,0,0,1,.67,7.54ZM564,34.39H537.71V45.18H564Zm23.94,5.06h7.16a18,18,0,0,1,4.68.57,13.59,13.59,0,0,1,3.54,1.82A9.37,9.37,0,0,1,605.49,45a13.69,13.69,0,0,1,.77,4.68,10,10,0,0,1-.77,3.82,6.61,6.61,0,0,1-2,2.87,7.32,7.32,0,0,1-3.25,1.91,11.88,11.88,0,0,1-4.3.67,10.47,10.47,0,0,1-3.91-.67,8.42,8.42,0,0,1-3.16-1.82,8.14,8.14,0,0,1-2.1-2.67,8.32,8.32,0,0,1-.76-3.53H572.54a17.8,17.8,0,0,0,2,8.69,18.09,18.09,0,0,0,5.26,6.11,22.87,22.87,0,0,0,7.35,3.63,31.8,31.8,0,0,0,8.51,1.15,34,34,0,0,0,9.55-1.34,22.3,22.3,0,0,0,7.64-3.92,17.81,17.81,0,0,0,5.06-6.21,20.09,20.09,0,0,0,1.82-8.5,16.74,16.74,0,0,0-2.87-9.74,16.52,16.52,0,0,0-8.5-6.11,23,23,0,0,0,4.39-2.77A21.48,21.48,0,0,0,616,27.8a18.39,18.39,0,0,0,2-4.11,16.88,16.88,0,0,0,.67-4.3A19.79,19.79,0,0,0,617,11a17.16,17.16,0,0,0-4.68-6A21.69,21.69,0,0,0,605,1.24,36,36,0,0,0,595.66,0,28.61,28.61,0,0,0,587,1.34a23.79,23.79,0,0,0-7.07,3.72,19,19,0,0,0-4.77,5.83,16.88,16.88,0,0,0-1.72,7.64h13.47a6.94,6.94,0,0,1,.76-3.15A6.83,6.83,0,0,1,589.54,13a8,8,0,0,1,3-1.53,10.05,10.05,0,0,1,3.44-.57,10.54,10.54,0,0,1,4.11.67,7.42,7.42,0,0,1,2.87,1.81,6.92,6.92,0,0,1,1.71,2.77,9.82,9.82,0,0,1,.58,3.44,9.36,9.36,0,0,1-2.49,6.78c-1.72,1.72-4.2,2.58-7.64,2.58h-7.16ZM661.7.86h-1.43L632.19,11V21.87l16-5v52H661.7Z"></path><path class="cls-2" d="M158.27,124.47h-5.64v71.64h5.64Zm52.89,71.64v-.57a18.43,18.43,0,0,1-.66-2.1c-.2-.77-.29-1.63-.48-2.49s-.19-1.72-.29-2.67-.09-1.82-.09-2.67V161.15A18,18,0,0,0,208.3,154a14.16,14.16,0,0,0-3.82-5.16,16.61,16.61,0,0,0-5.73-3.06,23.6,23.6,0,0,0-7.45-1.05,23.35,23.35,0,0,0-7.93,1.24,22,22,0,0,0-6.12,3.35,15.57,15.57,0,0,0-3.91,4.77,10.92,10.92,0,0,0-1.34,5.45l5.54.09a8.36,8.36,0,0,1,1.05-4,11,11,0,0,1,2.77-3.25,13,13,0,0,1,4.3-2.1,16.18,16.18,0,0,1,5.35-.86q6.45,0,9.74,3.15a11,11,0,0,1,3.35,8.51v5.73H193.78a42,42,0,0,0-9.65,1.05,21.92,21.92,0,0,0-7.26,3.25,13.22,13.22,0,0,0-6.11,11.65,13.9,13.9,0,0,0,1.14,5.64,13.37,13.37,0,0,0,3.25,4.58,15.4,15.4,0,0,0,5.16,3.06,21.32,21.32,0,0,0,6.69,1,25.32,25.32,0,0,0,5.54-.67,31,31,0,0,0,4.77-1.72,17.42,17.42,0,0,0,3.82-2.58,14.78,14.78,0,0,0,3-3.06c.09,1.34.19,2.58.38,3.92a12.76,12.76,0,0,0,.76,3.15ZM183,191.34a11.51,11.51,0,0,1-3.63-2.11,8.18,8.18,0,0,1-2.19-3.15,8.49,8.49,0,0,1-.86-3.82,9.54,9.54,0,0,1,1.24-4.68,9.93,9.93,0,0,1,3.63-3.53,17.49,17.49,0,0,1,5.73-2.2,31.08,31.08,0,0,1,7.64-.76h9.56v11.08a17,17,0,0,1-2.49,3.91,19.31,19.31,0,0,1-3.63,3.15,19,19,0,0,1-4.68,2.11,21.46,21.46,0,0,1-5.63.76,14.41,14.41,0,0,1-4.69-.76Zm65-46.05a11.88,11.88,0,0,0-1.63-.38,16.55,16.55,0,0,0-2.1-.19,14.54,14.54,0,0,0-8.6,2.39A17.22,17.22,0,0,0,230,153.7l-.1-8h-5.44v50.43H230V161.44a23.6,23.6,0,0,1,1.91-4.59,13.13,13.13,0,0,1,3-3.53,12.08,12.08,0,0,1,4-2.39,14.7,14.7,0,0,1,5.16-.86,22.65,22.65,0,0,1,3.72.29Zm6.36,26.08a35.87,35.87,0,0,0,1.34,10.41,23.56,23.56,0,0,0,3.82,8.12,18.85,18.85,0,0,0,6.12,5.26,17.26,17.26,0,0,0,8.12,1.91,20,20,0,0,0,9.26-2,17.52,17.52,0,0,0,6.31-5.44v5.82a21.18,21.18,0,0,1-1,6.79,12.9,12.9,0,0,1-3,5,11.68,11.68,0,0,1-4.68,3.25,18.17,18.17,0,0,1-6.31,1.05,16.46,16.46,0,0,1-7.54-1.72,21.4,21.4,0,0,1-6.59-5.54l-3.06,3.35a16.89,16.89,0,0,0,3.53,3.82,25.55,25.55,0,0,0,4.4,2.67,27.93,27.93,0,0,0,4.77,1.62,20.72,20.72,0,0,0,4.88.48,23.15,23.15,0,0,0,8.31-1.43,18.05,18.05,0,0,0,6.4-4.11,19.08,19.08,0,0,0,4-6.59,25.41,25.41,0,0,0,1.53-8.79V145.68h-5.26l-.28,7.26a18.3,18.3,0,0,0-6.4-6,17.76,17.76,0,0,0-9.27-2.2,17.47,17.47,0,0,0-8.21,1.82,18.63,18.63,0,0,0-6.12,5.15,23.73,23.73,0,0,0-3.82,8.12,36.86,36.86,0,0,0-1.34,10.61Zm5.64-1a37.63,37.63,0,0,1,.86-8.22,20.81,20.81,0,0,1,2.67-6.59,12.92,12.92,0,0,1,4.68-4.39,12.4,12.4,0,0,1,6.69-1.63,18,18,0,0,1,5.35.77,15.22,15.22,0,0,1,4.11,2.19,15.42,15.42,0,0,1,3,3.16,16.29,16.29,0,0,1,2,3.82v23.4a18.57,18.57,0,0,1-2.2,3.73,12.38,12.38,0,0,1-3.06,2.86,15,15,0,0,1-4.11,2,17.14,17.14,0,0,1-5.15.67,13.06,13.06,0,0,1-11.28-6,20.81,20.81,0,0,1-2.67-6.59,37,37,0,0,1-.86-8.22Zm75.22,25.88a19.33,19.33,0,0,0,8.79-4.68,25.42,25.42,0,0,0,3-3.53l-3.54-2.58a16.44,16.44,0,0,1-6.2,5.16,17.69,17.69,0,0,1-7.93,1.62,16,16,0,0,1-7.07-1.53,17,17,0,0,1-5.45-4.3,19.3,19.3,0,0,1-3.53-6.3,23.58,23.58,0,0,1-1.24-7.83v-1.05h36v-3.44a31.94,31.94,0,0,0-1.34-9.27,20.73,20.73,0,0,0-3.82-7.35,18.43,18.43,0,0,0-6.3-4.78,19.85,19.85,0,0,0-8.5-1.72,18.65,18.65,0,0,0-8.22,1.82,22.54,22.54,0,0,0-6.88,5.15,24,24,0,0,0-4.77,8,30.73,30.73,0,0,0-1.72,10.6v2a27.69,27.69,0,0,0,1.72,9.93,22.06,22.06,0,0,0,4.68,7.83,20,20,0,0,0,7.16,5.07,21.77,21.77,0,0,0,9.08,1.91,23.67,23.67,0,0,0,6.11-.77Zm-1-45.47a15.35,15.35,0,0,1,4.49,3.63,17,17,0,0,1,2.68,5.26,22.32,22.32,0,0,1,1.05,6.21v.57H312.19a25.81,25.81,0,0,1,1.81-7,17.54,17.54,0,0,1,3.35-5.35,16.67,16.67,0,0,1,4.77-3.54,15.32,15.32,0,0,1,5.93-1.14,14.11,14.11,0,0,1,6.2,1.33Zm71.29-5.54a11.52,11.52,0,0,0-1.63-.38,16.39,16.39,0,0,0-2.1-.19,14.49,14.49,0,0,0-8.59,2.39,17.25,17.25,0,0,0-5.64,6.59l-.1-8H382v50.43h5.54V161.44a24.91,24.91,0,0,1,1.91-4.59,13.31,13.31,0,0,1,3-3.53,12.18,12.18,0,0,1,4-2.39,14.7,14.7,0,0,1,5.16-.86,22.86,22.86,0,0,1,3.73.29Zm34.26,51a19.33,19.33,0,0,0,8.79-4.68,25.42,25.42,0,0,0,3-3.53L448,185.51a16.44,16.44,0,0,1-6.2,5.16,17.69,17.69,0,0,1-7.93,1.62,16,16,0,0,1-7.07-1.53,17,17,0,0,1-5.45-4.3,19.3,19.3,0,0,1-3.53-6.3,23.58,23.58,0,0,1-1.24-7.83v-1.05h36v-3.44a31.94,31.94,0,0,0-1.34-9.27,20.73,20.73,0,0,0-3.82-7.35,18.43,18.43,0,0,0-6.3-4.78,19.85,19.85,0,0,0-8.5-1.72,18.65,18.65,0,0,0-8.22,1.82,22.54,22.54,0,0,0-6.88,5.15,24,24,0,0,0-4.77,8,30.73,30.73,0,0,0-1.72,10.6v2a27.69,27.69,0,0,0,1.72,9.93,22.06,22.06,0,0,0,4.68,7.83,20,20,0,0,0,7.16,5.07,21.77,21.77,0,0,0,9.08,1.91,23.67,23.67,0,0,0,6.11-.77Zm-1-45.47a15.35,15.35,0,0,1,4.49,3.63,17,17,0,0,1,2.68,5.26,22.32,22.32,0,0,1,1.05,6.21v.57H416.78a25.81,25.81,0,0,1,1.81-7,17.54,17.54,0,0,1,3.35-5.35,16.67,16.67,0,0,1,4.77-3.54,15.32,15.32,0,0,1,5.93-1.14,14.11,14.11,0,0,1,6.2,1.33Zm35.87,39.84a16.07,16.07,0,0,1-5-4.49,20.12,20.12,0,0,1-2.68-6.59,33.94,33.94,0,0,1-.86-7.74v-1.91a34.52,34.52,0,0,1,.86-7.74,18,18,0,0,1,2.77-6.49,14.1,14.1,0,0,1,4.87-4.59,15.81,15.81,0,0,1,7.36-1.62,16.35,16.35,0,0,1,5.35.86,14.8,14.8,0,0,1,4.39,2.67,13.43,13.43,0,0,1,3.06,4.11,14.46,14.46,0,0,1,1.24,5.54h5.44a22.56,22.56,0,0,0-1.71-7.45,17.93,17.93,0,0,0-4.21-5.64,17.51,17.51,0,0,0-6-3.63,23.49,23.49,0,0,0-16.81.67A19.91,19.91,0,0,0,466,152a24.73,24.73,0,0,0-4.11,8,36.26,36.26,0,0,0-1.33,9.94v1.91a36.67,36.67,0,0,0,1.33,9.93,24.68,24.68,0,0,0,4.11,8,19.4,19.4,0,0,0,6.78,5.25,20.35,20.35,0,0,0,9.27,2,23.36,23.36,0,0,0,7.35-1.24,20.61,20.61,0,0,0,6-3.44,16.26,16.26,0,0,0,4.3-5.26,16.86,16.86,0,0,0,1.81-6.59h-5.44a12.06,12.06,0,0,1-1.34,5.07,14.89,14.89,0,0,1-3.15,3.72,14.6,14.6,0,0,1-4.39,2.2,15.47,15.47,0,0,1-5.16.76,14.78,14.78,0,0,1-7.36-1.62Zm40.93-58v13h-9.26v4.58h9.26v33.63a20.19,20.19,0,0,0,.86,6.3,10.83,10.83,0,0,0,2.3,4,7.32,7.32,0,0,0,3.44,2.2,13.11,13.11,0,0,0,4.39.67c1.15,0,2.2-.1,3.34-.19a16.34,16.34,0,0,0,2.68-.67l-.29-4.49c-.57.09-1.34.19-2.1.29a20.43,20.43,0,0,1-2.39.09,9.92,9.92,0,0,1-2.48-.29,4.12,4.12,0,0,1-2.1-1.14,5.72,5.72,0,0,1-1.44-2.58,12.77,12.77,0,0,1-.57-4.2V150.26h10.41v-4.58H521.28v-13Zm65.41,63.42v-.57a18.23,18.23,0,0,1-.67-2.1c-.19-.77-.29-1.63-.48-2.49s-.19-1.72-.29-2.67-.09-1.82-.09-2.67V161.15a18,18,0,0,0-1.34-7.16,14,14,0,0,0-3.82-5.16,16.43,16.43,0,0,0-5.73-3.06,26.44,26.44,0,0,0-15.38.19,21.89,21.89,0,0,0-6.11,3.35,15.6,15.6,0,0,0-3.92,4.77,10.92,10.92,0,0,0-1.34,5.45l5.54.09a8.47,8.47,0,0,1,1.05-4,11,11,0,0,1,2.77-3.25,13,13,0,0,1,4.3-2.1,16.22,16.22,0,0,1,5.35-.86q6.45,0,9.75,3.15a11.05,11.05,0,0,1,3.34,8.51v5.73H563.66a42,42,0,0,0-9.65,1.05,21.92,21.92,0,0,0-7.26,3.25,13.22,13.22,0,0,0-6.11,11.65,13.74,13.74,0,0,0,1.15,5.64A13.24,13.24,0,0,0,545,193a15.45,15.45,0,0,0,5.15,3.06,21.32,21.32,0,0,0,6.69,1,25.24,25.24,0,0,0,5.54-.67,31.47,31.47,0,0,0,4.78-1.72A17.91,17.91,0,0,0,571,192.1a15,15,0,0,0,3-3.06c.09,1.34.19,2.58.38,3.92a12.76,12.76,0,0,0,.76,3.15Zm-28.18-4.77a11.4,11.4,0,0,1-3.63-2.11,8.09,8.09,0,0,1-2.2-3.15,8.63,8.63,0,0,1-.86-3.82,9.54,9.54,0,0,1,1.24-4.68,9.93,9.93,0,0,1,3.63-3.53,17.49,17.49,0,0,1,5.73-2.2,31.11,31.11,0,0,1,7.65-.76H574v11.08a17,17,0,0,1-2.48,3.91,19.63,19.63,0,0,1-3.63,3.15,19.19,19.19,0,0,1-4.69,2.11,21.4,21.4,0,0,1-5.63.76,14.34,14.34,0,0,1-4.68-.76Zm41.5-45.66v50.43h5.54V161.53a20.5,20.5,0,0,1,2.2-4.39,15.88,15.88,0,0,1,3.15-3.92,16.25,16.25,0,0,1,4.3-2.67,14.13,14.13,0,0,1,5.44-1,16.37,16.37,0,0,1,5,.67,8.31,8.31,0,0,1,3.73,2.2,11.15,11.15,0,0,1,2.38,4.2,21.46,21.46,0,0,1,.86,6.59v32.86h5.54V163.25a27.89,27.89,0,0,0-1.14-8.5,15.87,15.87,0,0,0-3.15-5.73,11.91,11.91,0,0,0-5.07-3.25,18.79,18.79,0,0,0-6.78-1.05,18.17,18.17,0,0,0-5.16.67,20.69,20.69,0,0,0-4.49,1.91,20,20,0,0,0-3.82,3.06,20.2,20.2,0,0,0-3,3.91l-.19-8.59Zm50.19,25.69a35.87,35.87,0,0,0,1.34,10.41,23.56,23.56,0,0,0,3.82,8.12,18.85,18.85,0,0,0,6.12,5.26,17.24,17.24,0,0,0,8.11,1.91,20.05,20.05,0,0,0,9.27-2,17.4,17.4,0,0,0,6.3-5.44v5.82a21.19,21.19,0,0,1-.95,6.79,12.9,12.9,0,0,1-3,5,11.68,11.68,0,0,1-4.68,3.25,18.17,18.17,0,0,1-6.31,1.05,16.46,16.46,0,0,1-7.54-1.72,21.4,21.4,0,0,1-6.59-5.54l-3.06,3.35A16.89,16.89,0,0,0,651,211.4a25.55,25.55,0,0,0,4.4,2.67,27.93,27.93,0,0,0,4.77,1.62,20.72,20.72,0,0,0,4.88.48,23.15,23.15,0,0,0,8.31-1.43,18.05,18.05,0,0,0,6.4-4.11,19.08,19.08,0,0,0,4-6.59,25.41,25.41,0,0,0,1.53-8.79V145.68H680l-.28,7.26a18.3,18.3,0,0,0-6.4-6,17.76,17.76,0,0,0-9.27-2.2,17.47,17.47,0,0,0-8.21,1.82,18.63,18.63,0,0,0-6.12,5.15,23.73,23.73,0,0,0-3.82,8.12,36.86,36.86,0,0,0-1.34,10.61Zm5.64-1a37.63,37.63,0,0,1,.86-8.22,20.81,20.81,0,0,1,2.67-6.59,12.92,12.92,0,0,1,4.68-4.39,12.4,12.4,0,0,1,6.69-1.63,18,18,0,0,1,5.35.77,15.22,15.22,0,0,1,4.11,2.19,15.69,15.69,0,0,1,3,3.16,15.88,15.88,0,0,1,2,3.82v23.4a18.07,18.07,0,0,1-2.19,3.73,12.38,12.38,0,0,1-3.06,2.86,15,15,0,0,1-4.11,2,17.14,17.14,0,0,1-5.15.67,13.06,13.06,0,0,1-11.28-6,20.81,20.81,0,0,1-2.67-6.59,37,37,0,0,1-.86-8.22Zm82.1,25.69h5.44V145.68h-5.63v36.49a19.72,19.72,0,0,1-1.91,4,10.79,10.79,0,0,1-3.06,3.15,12.94,12.94,0,0,1-4.49,2.1,21.11,21.11,0,0,1-5.92.77,14.13,14.13,0,0,1-4.49-.67,9.21,9.21,0,0,1-3.73-2.39,11.58,11.58,0,0,1-2.48-4.3,22.47,22.47,0,0,1-1-6.78V145.68h-5.54V178a26.34,26.34,0,0,0,1.24,8.79,15.4,15.4,0,0,0,3.35,5.92,13.82,13.82,0,0,0,5.25,3.35,23.69,23.69,0,0,0,16.53-1,16.2,16.2,0,0,0,6.3-5.35Zm26.12-71.64h-5.64v71.64h5.64Zm52.9,71.64v-.57a18.23,18.23,0,0,1-.67-2.1c-.19-.77-.29-1.63-.48-2.49s-.19-1.72-.29-2.67-.09-1.82-.09-2.67V161.15a18,18,0,0,0-1.34-7.16,14,14,0,0,0-3.82-5.16,16.43,16.43,0,0,0-5.73-3.06,26.44,26.44,0,0,0-15.38.19,21.89,21.89,0,0,0-6.11,3.35,15.6,15.6,0,0,0-3.92,4.77,10.92,10.92,0,0,0-1.34,5.45l5.54.09a8.47,8.47,0,0,1,1-4,11,11,0,0,1,2.77-3.25,13,13,0,0,1,4.3-2.1,16.22,16.22,0,0,1,5.35-.86q6.45,0,9.75,3.15a11.05,11.05,0,0,1,3.34,8.51v5.73H793.93a42,42,0,0,0-9.65,1.05,21.92,21.92,0,0,0-7.26,3.25,13.22,13.22,0,0,0-6.11,11.65,13.74,13.74,0,0,0,1.15,5.64A13.35,13.35,0,0,0,775.3,193a15.6,15.6,0,0,0,5.16,3.06,21.32,21.32,0,0,0,6.69,1,25.24,25.24,0,0,0,5.54-.67,31.47,31.47,0,0,0,4.78-1.72,17.91,17.91,0,0,0,3.82-2.58,15,15,0,0,0,3-3.06c.09,1.34.19,2.58.38,3.92a12.76,12.76,0,0,0,.76,3.15Zm-28.18-4.77a11.4,11.4,0,0,1-3.63-2.11,8.09,8.09,0,0,1-2.2-3.15,8.63,8.63,0,0,1-.86-3.82,9.54,9.54,0,0,1,1.24-4.68,9.93,9.93,0,0,1,3.63-3.53,17.49,17.49,0,0,1,5.73-2.2,31.11,31.11,0,0,1,7.65-.76h9.55v11.08a16.7,16.7,0,0,1-2.49,3.91,17.13,17.13,0,0,1-8.31,5.26,21.46,21.46,0,0,1-5.63.76,14.34,14.34,0,0,1-4.68-.76Zm65-46.05a11.52,11.52,0,0,0-1.63-.38,16.39,16.39,0,0,0-2.1-.19,14.49,14.49,0,0,0-8.59,2.39,17.25,17.25,0,0,0-5.64,6.59l-.1-8h-5.44v50.43h5.54V161.44a24.91,24.91,0,0,1,1.91-4.59,13.31,13.31,0,0,1,3-3.53,12.18,12.18,0,0,1,4-2.39,14.7,14.7,0,0,1,5.16-.86,22.86,22.86,0,0,1,3.73.29Z"></path><line class="cls-3" x1="907.14" y1="375.39" x2="907.14" y2="782.13"></line><path d="M1052.59,607.13v-5.19c.07-3.66.91-6.48,2.59-8.39s4.12-2.9,7.25-2.9,5.72.84,7.48,2.59,2.59,4.35,2.59,7.71a10.53,10.53,0,0,1-2.59,7.48,8.8,8.8,0,0,1-6.79,2.74v7a13.69,13.69,0,0,0,10.91-4.81c2.75-3.13,4.12-7.32,4.12-12.36s-1.45-9.23-4.27-12.44-6.72-4.8-11.6-4.8a13.25,13.25,0,0,0-8,2.44,13.72,13.72,0,0,0-4.66,6.94,14,14,0,0,0-5-6.26,12,12,0,0,0-6.86-2.29c-4.89,0-8.63,1.45-11.37,4.35s-4.05,7-4.05,12.06a17.28,17.28,0,0,0,4.28,12,13.82,13.82,0,0,0,10.68,4.73v-6.94a8.79,8.79,0,0,1-6.72-2.6A9.87,9.87,0,0,1,1028,601c0-6.33,3.2-9.54,9.54-9.54a8.71,8.71,0,0,1,6.79,2.83,11.5,11.5,0,0,1,2.59,7.7v5.19Zm0-42.9V559c.07-3.67.91-6.49,2.59-8.4s4.12-2.9,7.25-2.9,5.72.84,7.48,2.6,2.59,4.35,2.59,7.7a10.53,10.53,0,0,1-2.59,7.48,8.81,8.81,0,0,1-6.79,2.75v6.94a13.71,13.71,0,0,0,10.91-4.8c2.75-3.13,4.12-7.33,4.12-12.37s-1.45-9.23-4.27-12.43-6.72-4.81-11.6-4.81a13.31,13.31,0,0,0-8,2.44,13.74,13.74,0,0,0-4.66,7,13.91,13.91,0,0,0-5-6.26,11.9,11.9,0,0,0-6.86-2.29c-4.89,0-8.63,1.45-11.37,4.35s-4.05,6.94-4.05,12a17.27,17.27,0,0,0,4.28,12,13.82,13.82,0,0,0,10.68,4.73v-6.94a8.82,8.82,0,0,1-6.72-2.59A9.9,9.9,0,0,1,1028,558c0-6.33,3.2-9.53,9.54-9.53a8.74,8.74,0,0,1,6.79,2.82,11.55,11.55,0,0,1,2.59,7.71v5.19Z"></path><path d="M361.64,945h-7.33L330.05,982.6v4h24.72v12.59h6.87V986.65h7.55V981h-7.55Zm-7.71,10.91.84-1.45V981H337.83Zm55.57,11.29c-.07-7.86-1.52-13.58-4.27-17.32s-7-5.65-12.9-5.65-10.22,1.91-13,5.8-4.12,9.85-4.12,17.78V977c.08,7.63,1.53,13.36,4.35,17.25s7,5.72,12.82,5.72,10.22-2,13-5.88,4.12-9.91,4.12-18ZM402.63,978c-.07,5.64-1,9.84-2.59,12.44a9.26,9.26,0,0,1-15.34-.23c-1.67-2.83-2.59-7.1-2.59-13V966.12c.08-5.49.92-9.61,2.52-12.28s4.19-4,7.7-4,6.18,1.37,7.79,4,2.51,6.87,2.51,12.75Zm21.16-19h-8L429,978.86,415.4,999.24h8l9.31-15.11L442,999.24h8l-13.66-20.38L449.58,959h-8l-8.93,14.73Zm55.11-14.19h-1.06l-19.77,7.4v6.26L472,953.3v45.94h6.94Zm41.69,44.18c-3.05,2.82-7.4,4.35-13.13,4.42H506v5.88h1.38c8.39-.16,14.65-2.6,18.84-7.48s6.26-12.51,6.26-23.12v-2c0-6.95-1.53-12.44-4.65-16.41a15,15,0,0,0-12.67-6,16.86,16.86,0,0,0-8.85,2.29,15.42,15.42,0,0,0-5.88,6.72,22.66,22.66,0,0,0-2.06,9.76,21.5,21.5,0,0,0,1.91,9.24,14,14,0,0,0,13.51,8.85,14,14,0,0,0,6.64-1.61,15.58,15.58,0,0,0,5.11-4.12c-.23,6.18-1.91,10.69-5,13.59Zm-12.74-17.17a14.38,14.38,0,0,1-2.68-9.08,14.55,14.55,0,0,1,2.75-9.16,8.9,8.9,0,0,1,7.33-3.43c3,0,5.41,1.37,7.4,4.19s3,6.49,3,11V968a12.73,12.73,0,0,1-4.27,5.19,10.59,10.59,0,0,1-6.41,2.13,8.41,8.41,0,0,1-7.09-3.58Z"></path><line class="cls-3" x1="230.39" y1="865.02" x2="762.02" y2="865.02"></line><path class="cls-1" d="M237.36,345.14v420s4.63,15.72,19.48,13.88H741.09s36.18-4.63,47.31-45.34V324.78s-22.27,41.63-49.17,42.56H255.91s-17.62-3.7-18.55-22.2"></path><path class="cls-4" d="M237.36,345.14v420s4.63,15.72,19.48,13.88H741.09s36.18-4.63,47.31-45.34V324.78s-22.27,41.63-49.17,42.56H255.91s-17.62-3.7-18.55-22.2Z"></path><path class="cls-1" d="M237.11,343.66s8-18.76,38.27-23V360.7"></path><path class="cls-5" d="M237.11,343.66s8-18.76,38.27-23V360.7"></path><path class="cls-4" d="M236,366.75s7.44,13.9,23.25,13.9H732.76s21.39,3.7,33.49-11.12l23.26-22.23m-552.59,401s9.32,22.23,26.05,19.45l477.23-1.85a58.34,58.34,0,0,0,39.08-28.72V353.79"></path></svg> 