<?xml version="1.0" encoding="UTF-8"?> <svg xmlns="http://www.w3.org/2000/svg" id="Livello_1" data-name="Livello 1" viewBox="0 0 925.33 1000.49"><defs><style>.cls-1{fill:#fff;}.cls-2{fill:#231f20;}.cls-3,.cls-4{fill:none;stroke-width:0.25px;}.cls-3{stroke:#000;}.cls-4{stroke:#231f20;stroke-miterlimit:10;}</style></defs><title>Wonder large</title><rect class="cls-1" y="0.49" width="925.33" height="1000"></rect><path class="cls-2" d="M266,.58h-1L246.18,7.37v7.31L257,11.35V46.23h9Zm23.37,25a11.64,11.64,0,0,1,1-.9,6,6,0,0,1,1.22-.84,10.52,10.52,0,0,1,1.66-.51,7.62,7.62,0,0,1,2.18-.26,8.83,8.83,0,0,1,3.27.58A5.93,5.93,0,0,1,301,25.33a5.51,5.51,0,0,1,1.34,2.5,11,11,0,0,1,.45,3.27,17.92,17.92,0,0,1-.32,3.33,8.47,8.47,0,0,1-1.15,2.7,5.37,5.37,0,0,1-2,1.79,5.8,5.8,0,0,1-2.89.64,6.2,6.2,0,0,1-4.48-1.6,6.46,6.46,0,0,1-2-4.42h-9a13.49,13.49,0,0,0,1.41,5.64,13,13,0,0,0,3.46,4.17A14.55,14.55,0,0,0,290.71,46a19.18,19.18,0,0,0,5.7.89,16.8,16.8,0,0,0,6.8-1.28A13.62,13.62,0,0,0,308,42.26a13.89,13.89,0,0,0,2.89-4.88,19,19,0,0,0,.89-5.77,22.79,22.79,0,0,0-.89-6.47,13.59,13.59,0,0,0-2.76-4.81,11.76,11.76,0,0,0-4.36-3,15.5,15.5,0,0,0-5.9-1,20.28,20.28,0,0,0-2.12.13,16.87,16.87,0,0,0-2,.44c-.58.2-1.09.39-1.54.58a4.76,4.76,0,0,0-1.16.58l1.09-9.81h18.15V.64H284.74l-2.62,23.15Zm58.89-6.1a29.66,29.66,0,0,0-1.15-8.85,16,16,0,0,0-3.14-6,11.81,11.81,0,0,0-4.88-3.47A16.31,16.31,0,0,0,332.8,0a16.56,16.56,0,0,0-6.28,1.15,11.53,11.53,0,0,0-4.81,3.47,15.7,15.7,0,0,0-3.14,6,29.63,29.63,0,0,0-1.16,8.85v7.89a29.49,29.49,0,0,0,1.16,8.79,16.91,16.91,0,0,0,3.14,6.09,11.78,11.78,0,0,0,4.87,3.46,16.59,16.59,0,0,0,6.28,1.15,16.39,16.39,0,0,0,6.29-1.15A11.78,11.78,0,0,0,344,42.26a17.07,17.07,0,0,0,3.14-6.09,31.77,31.77,0,0,0,1.09-8.79Zm-9,9.11a23.48,23.48,0,0,1-.45,5.13,10,10,0,0,1-1.21,3.4,4.65,4.65,0,0,1-2,1.86,6.66,6.66,0,0,1-5.39,0,4.65,4.65,0,0,1-2-1.86,10.12,10.12,0,0,1-1.28-3.4,28.6,28.6,0,0,1-.38-5.13V18.15a27.88,27.88,0,0,1,.38-5.07,9.65,9.65,0,0,1,1.22-3.33,5.39,5.39,0,0,1,2-1.86,6.21,6.21,0,0,1,2.69-.52,5.86,5.86,0,0,1,2.69.52,5.07,5.07,0,0,1,2.06,1.86,9.45,9.45,0,0,1,1.21,3.33,22.89,22.89,0,0,1,.45,5.07Zm41.9-28h-9.17l-19,30,.39,5.71h18.72v9.87h9V36.36h5.13V29.05h-5.13ZM371.43,14l.64-1.09v16.1H361.94Zm37.67,9H391.46v7.25H409.1Zm38.13,15.84H427.6l8-8.46c1.54-1.6,2.95-3.08,4.17-4.55a30.64,30.64,0,0,0,3.2-4.3,20.69,20.69,0,0,0,2-4.23,12.71,12.71,0,0,0,.77-4.43,15,15,0,0,0-1-5.45,10.85,10.85,0,0,0-2.89-4A12.71,12.71,0,0,0,437.29.9a21.42,21.42,0,0,0-6.41-.9,16.74,16.74,0,0,0-6.61,1.22,14.79,14.79,0,0,0-4.94,3.2,14.13,14.13,0,0,0-3.2,4.75A16.14,16.14,0,0,0,415,15h9.1a9.1,9.1,0,0,1,.45-3.07,7.45,7.45,0,0,1,1.22-2.44,5.68,5.68,0,0,1,2.12-1.6,6.25,6.25,0,0,1,2.82-.58A5.58,5.58,0,0,1,435.11,9a7,7,0,0,1,1.54,4.81,6.07,6.07,0,0,1-.32,2.05,11.36,11.36,0,0,1-1,2.31A18.33,18.33,0,0,1,433.5,21a37.55,37.55,0,0,1-2.82,3.33L415.93,40v6.22h31.3Zm14.71-12.44h4.81a11.89,11.89,0,0,1,3.14.39,8.84,8.84,0,0,1,2.37,1.22,6.32,6.32,0,0,1,1.48,2.11,9.26,9.26,0,0,1,.51,3.14,6.81,6.81,0,0,1-.51,2.57,4.45,4.45,0,0,1-1.35,1.92,5,5,0,0,1-2.18,1.29,8,8,0,0,1-2.89.44,7,7,0,0,1-2.62-.44,5.82,5.82,0,0,1-2.12-1.22,5.47,5.47,0,0,1-1.41-1.8,5.58,5.58,0,0,1-.51-2.37h-9.05A11.85,11.85,0,0,0,453,39.56a12.12,12.12,0,0,0,3.53,4.11,15.3,15.3,0,0,0,4.94,2.43,21.17,21.17,0,0,0,5.7.77,23,23,0,0,0,6.41-.89,15,15,0,0,0,5.13-2.63,11.87,11.87,0,0,0,3.4-4.17,13.56,13.56,0,0,0,1.22-5.71,10.64,10.64,0,0,0-7.63-10.64A15.52,15.52,0,0,0,478.61,21a15.29,15.29,0,0,0,2.18-2.31,12.15,12.15,0,0,0,1.35-2.76,11.51,11.51,0,0,0,.45-2.88,13.27,13.27,0,0,0-1.16-5.65,11.46,11.46,0,0,0-3.14-4,14.66,14.66,0,0,0-4.87-2.5A24.23,24.23,0,0,0,467.13,0a19,19,0,0,0-5.83.9,15.68,15.68,0,0,0-4.75,2.5,12.65,12.65,0,0,0-3.2,3.91,11.37,11.37,0,0,0-1.16,5.13h9a4.74,4.74,0,0,1,.52-2.12A4.65,4.65,0,0,1,463,8.72a5.47,5.47,0,0,1,2-1,6.81,6.81,0,0,1,2.3-.38,7.1,7.1,0,0,1,2.76.45A5,5,0,0,1,472,9a4.62,4.62,0,0,1,1.15,1.86,6.59,6.59,0,0,1,.38,2.31,6.31,6.31,0,0,1-1.66,4.55,6.92,6.92,0,0,1-5.13,1.73h-4.81Z"></path><path class="cls-2" d="M303.58,83.56h-3.79v48.09h3.79Zm35.51,48.09v-.39a11.91,11.91,0,0,1-.45-1.41c-.13-.51-.19-1.09-.32-1.66s-.13-1.16-.19-1.8a16,16,0,0,1-.07-1.8V108.18a12.1,12.1,0,0,0-.9-4.81,9.32,9.32,0,0,0-2.56-3.46,11,11,0,0,0-3.85-2.06,17.82,17.82,0,0,0-10.32.13,15,15,0,0,0-4.11,2.25,10.57,10.57,0,0,0-2.62,3.2,7.3,7.3,0,0,0-.9,3.66l3.72.06a5.59,5.59,0,0,1,.7-2.69,7.39,7.39,0,0,1,1.86-2.18,8.57,8.57,0,0,1,2.89-1.41,10.69,10.69,0,0,1,3.59-.58q4.32,0,6.54,2.12a7.39,7.39,0,0,1,2.24,5.7V112h-6.92a28.12,28.12,0,0,0-6.48.71,14.74,14.74,0,0,0-4.87,2.18,9.55,9.55,0,0,0-3.08,3.33,9.4,9.4,0,0,0-1,4.49,9.29,9.29,0,0,0,.77,3.78,9.1,9.1,0,0,0,2.18,3.08,10.33,10.33,0,0,0,3.47,2.05,14.21,14.21,0,0,0,4.48.71,16.62,16.62,0,0,0,3.72-.45,21.49,21.49,0,0,0,3.21-1.15,12.22,12.22,0,0,0,2.57-1.74,10.07,10.07,0,0,0,2-2c.07.9.13,1.73.26,2.63a8.91,8.91,0,0,0,.51,2.12Zm-18.92-3.21a7.62,7.62,0,0,1-2.44-1.41,5.51,5.51,0,0,1-1.47-2.11,5.87,5.87,0,0,1-.58-2.57,6.31,6.31,0,0,1,.84-3.14,6.59,6.59,0,0,1,2.43-2.37,11.59,11.59,0,0,1,3.85-1.48,21,21,0,0,1,5.13-.51h6.41v7.44a11.76,11.76,0,0,1-1.66,2.63,13.68,13.68,0,0,1-2.44,2.11,12.59,12.59,0,0,1-3.14,1.41,14.29,14.29,0,0,1-3.79.51,9.52,9.52,0,0,1-3.14-.51Zm43.64-30.91a7.27,7.27,0,0,0-1.09-.25,10.36,10.36,0,0,0-7.19,1.47,11.64,11.64,0,0,0-3.78,4.43l-.06-5.39H348v33.86h3.72V108.37a16.78,16.78,0,0,1,1.28-3.08,9.13,9.13,0,0,1,2-2.37,8.18,8.18,0,0,1,2.69-1.6,9.71,9.71,0,0,1,3.47-.58,15.11,15.11,0,0,1,2.5.19ZM368.08,115a24.06,24.06,0,0,0,.9,7,16,16,0,0,0,2.56,5.45,12.83,12.83,0,0,0,4.11,3.53,11.63,11.63,0,0,0,5.45,1.28,13.46,13.46,0,0,0,6.22-1.35,11.7,11.7,0,0,0,4.23-3.65v3.91a14.13,14.13,0,0,1-.64,4.55,8.78,8.78,0,0,1-2,3.34,8,8,0,0,1-3.14,2.18,12.17,12.17,0,0,1-4.23.7,11.11,11.11,0,0,1-5.07-1.15,14.5,14.5,0,0,1-4.42-3.72L370,139.34a11.64,11.64,0,0,0,2.38,2.57,17.31,17.31,0,0,0,2.95,1.79,18,18,0,0,0,3.2,1.09,14,14,0,0,0,3.27.32,15.41,15.41,0,0,0,5.58-1,12,12,0,0,0,4.3-2.76,12.76,12.76,0,0,0,2.69-4.42,17,17,0,0,0,1-5.9V97.79h-3.53l-.19,4.87a12.46,12.46,0,0,0-4.3-4,12,12,0,0,0-6.22-1.47,11.73,11.73,0,0,0-5.51,1.22,12.49,12.49,0,0,0-4.11,3.46,16,16,0,0,0-2.56,5.45,24.65,24.65,0,0,0-.9,7.12Zm3.78-.64a25.47,25.47,0,0,1,.58-5.52,14,14,0,0,1,1.8-4.42,8.69,8.69,0,0,1,3.14-2.95,8.34,8.34,0,0,1,4.49-1.09,12.19,12.19,0,0,1,3.59.51,10.3,10.3,0,0,1,2.76,1.48,10.07,10.07,0,0,1,2,2.11,10.93,10.93,0,0,1,1.35,2.57V122.8a12.25,12.25,0,0,1-1.47,2.5,8.33,8.33,0,0,1-2.06,1.92,9.92,9.92,0,0,1-2.75,1.35,11.68,11.68,0,0,1-3.47.45,8.74,8.74,0,0,1-7.56-4,14,14,0,0,1-1.8-4.43,24.85,24.85,0,0,1-.58-5.51Zm50.5,17.38a13.16,13.16,0,0,0,5.9-3.15,16.79,16.79,0,0,0,2-2.37l-2.38-1.73a11.11,11.11,0,0,1-4.16,3.46,11.82,11.82,0,0,1-5.33,1.09,10.74,10.74,0,0,1-4.74-1,11.52,11.52,0,0,1-3.66-2.89,13.08,13.08,0,0,1-2.37-4.23,15.8,15.8,0,0,1-.83-5.26V115H431v-2.31a21.29,21.29,0,0,0-.9-6.22,13.81,13.81,0,0,0-2.56-4.94,12.44,12.44,0,0,0-4.23-3.21,13.35,13.35,0,0,0-5.71-1.15A12.56,12.56,0,0,0,412,98.37a15,15,0,0,0-4.61,3.46,16,16,0,0,0-3.21,5.39,20.67,20.67,0,0,0-1.15,7.11v1.35a18.65,18.65,0,0,0,1.15,6.67,15.16,15.16,0,0,0,3.14,5.26,13.52,13.52,0,0,0,4.81,3.4,14.66,14.66,0,0,0,6.09,1.28,16,16,0,0,0,4.11-.51Zm-.64-30.53a10.22,10.22,0,0,1,3,2.44,11.55,11.55,0,0,1,1.8,3.53,14.68,14.68,0,0,1,.7,4.16v.39H406.9a17.83,17.83,0,0,1,1.22-4.68,11.81,11.81,0,0,1,2.25-3.59,11,11,0,0,1,3.2-2.37,10.12,10.12,0,0,1,4-.77,9.62,9.62,0,0,1,4.17.89Z"></path><line class="cls-3" x1="573.21" y1="393.27" x2="573.21" y2="864.19"></line><path d="M648.89,637.18c.11,5.63,1.9,9.88,5.43,12.75s8.66,4.3,15.37,4.3h1.79A16.16,16.16,0,0,0,681.83,651a10.37,10.37,0,0,0,4-8.46,10.52,10.52,0,0,0-3.38-8.24,12.81,12.81,0,0,0-9-3.08,13,13,0,0,0-8.66,2.87,9.52,9.52,0,0,0-3.33,7.58,9.78,9.78,0,0,0,3.28,7.84,13.17,13.17,0,0,1-8.71-3.69,12.22,12.22,0,0,1-3.17-8.6v-.87h-4Zm18.8.41a9.29,9.29,0,0,1,6-1.8,9.12,9.12,0,0,1,6,1.8,5.85,5.85,0,0,1,2.3,4.91,6.08,6.08,0,0,1-2.71,5,11.69,11.69,0,0,1-7.23,2.05h-1.69a7.15,7.15,0,0,1-3.53-2.76,7.46,7.46,0,0,1-1.43-4.41,5.83,5.83,0,0,1,2.3-4.81Zm.31-17.74-1-1.23a7.57,7.57,0,0,1-1.34-4.76,6.69,6.69,0,0,1,2.21-5.28,8.46,8.46,0,0,1,5.89-2,9.14,9.14,0,0,1,6,1.85,6.19,6.19,0,0,1,2.2,5.07,6.88,6.88,0,0,1-1.58,4.76,7.3,7.3,0,0,1-4.72,2.2v4.41a10.75,10.75,0,0,0,7.43-3.48,11.51,11.51,0,0,0,2.66-7.89c0-3.64-1.07-6.46-3.22-8.5s-5.13-3-8.86-3-6.71,1-8.92,2.92a10,10,0,0,0-3.28,7.89,11.59,11.59,0,0,0,1.59,6.1l-9.93-1.08V603.05h-4.31v18.64l18.19,1.85Z"></path><path d="M365.19,995.7H346.9l9.73-10.61c4.61-4.91,6.87-9.21,6.87-12.8a9.18,9.18,0,0,0-2.92-7.07,11.56,11.56,0,0,0-8-2.66c-3.64,0-6.51,1-8.66,3.12a10.57,10.57,0,0,0-3.28,8.1h4.66a7.63,7.63,0,0,1,1.9-5.49,7.28,7.28,0,0,1,5.38-1.94,6.1,6.1,0,0,1,4.61,1.84,6.56,6.56,0,0,1,1.69,4.66,8.78,8.78,0,0,1-1,4.1,29,29,0,0,1-3.89,5.17l-12.6,14v3.33h23.87Zm22.24-32.63q-8.44.15-12.75,5.43t-4.3,15.37v1.79A16.11,16.11,0,0,0,373.65,996a10.35,10.35,0,0,0,8.46,4,10.55,10.55,0,0,0,8.24-3.38,12.83,12.83,0,0,0,3.08-9,13,13,0,0,0-2.87-8.65,9.52,9.52,0,0,0-7.58-3.33,9.75,9.75,0,0,0-7.84,3.28,13.17,13.17,0,0,1,3.69-8.71,12.27,12.27,0,0,1,8.6-3.18h.87v-3.94Zm-.41,18.8a9.26,9.26,0,0,1,1.8,6,9.07,9.07,0,0,1-1.8,6,5.83,5.83,0,0,1-4.91,2.31,6.06,6.06,0,0,1-5-2.72,11.66,11.66,0,0,1-2-7.22v-1.69A7.15,7.15,0,0,1,377.8,981a7.4,7.4,0,0,1,4.41-1.44,5.84,5.84,0,0,1,4.81,2.31Z"></path><path class="cls-1" d="M372.12,257.89V389.16m1.69,2.44h25.36V597.13s-3.62,75.77,86.24,81H258.83c89.86-5.25,86.24-81,86.24-81V391.6h28.74Zm25.36,476.51v-103s-3.62-75.76,86.24-81H258.84c89.85,5.25,86.23,81,86.23,81v103ZM261.51,684.32c-4.08,0-7.38-1.38-7.38-3.09s3.3-3.08,7.38-3.08M483.13,678c4.08,0,7.38,1.38,7.38,3.1s-3.3,3.09-7.38,3.09"></path><path class="cls-4" d="M372.12,257.89V389.16m1.69,2.44h25.36V597.13s-3.62,75.77,86.24,81H258.83c89.86-5.25,86.24-81,86.24-81V391.6h28.74Zm25.36,476.51v-103s-3.62-75.76,86.24-81H258.84c89.85,5.25,86.23,81,86.23,81v103ZM261.51,684.32c-4.08,0-7.38-1.38-7.38-3.09s3.3-3.08,7.38-3.08M483.13,678c4.08,0,7.38,1.38,7.38,3.1s-3.3,3.09-7.38,3.09"></path><line class="cls-3" x1="251.99" y1="922.63" x2="492.64" y2="922.63"></line></svg> 