<?xml version="1.0" encoding="UTF-8"?> <svg xmlns="http://www.w3.org/2000/svg" id="Livello_1" data-name="Livello 1" viewBox="0 0 925.33 1000.49"><defs><style>.cls-1{fill:#fff;}.cls-2{fill:#231f20;}.cls-3,.cls-4{fill:none;stroke-width:0.25px;}.cls-3{stroke:#000;}.cls-4{stroke:#231f20;stroke-miterlimit:10;}</style></defs><title>Wonder medium</title><rect class="cls-1" y="0.49" width="925.33" height="1000"></rect><path class="cls-2" d="M263.67.58h-1L243.85,7.37v7.31l10.77-3.33V46.23h9.05Zm23.36,25c.33-.33.65-.58,1-.9a6,6,0,0,1,1.22-.84,10.33,10.33,0,0,1,1.67-.51,7.58,7.58,0,0,1,2.18-.26,8.9,8.9,0,0,1,3.27.58,6,6,0,0,1,2.24,1.67,5.62,5.62,0,0,1,1.35,2.5,11,11,0,0,1,.45,3.27,17.92,17.92,0,0,1-.32,3.33,8.71,8.71,0,0,1-1.16,2.7,5.29,5.29,0,0,1-2,1.79,5.78,5.78,0,0,1-2.88.64A6.21,6.21,0,0,1,289.6,38a6.5,6.5,0,0,1-2-4.42h-9a13.35,13.35,0,0,0,1.42,5.64,12.84,12.84,0,0,0,3.46,4.17A14.4,14.4,0,0,0,288.38,46a19.2,19.2,0,0,0,5.71.89,16.84,16.84,0,0,0,6.8-1.28,13.5,13.5,0,0,0,7.69-8.21,18.65,18.65,0,0,0,.9-5.77,22.43,22.43,0,0,0-.9-6.47,13.59,13.59,0,0,0-2.76-4.81,11.76,11.76,0,0,0-4.36-3,15.46,15.46,0,0,0-5.9-1,20.26,20.26,0,0,0-2.11.13,16.6,16.6,0,0,0-2,.44c-.58.2-1.09.39-1.54.58a4.66,4.66,0,0,0-1.15.58l1.09-9.81H308V.64H282.42l-2.63,23.15Zm58.9-6.1a29.63,29.63,0,0,0-1.16-8.85,15.7,15.7,0,0,0-3.14-6,11.78,11.78,0,0,0-4.87-3.47A16.39,16.39,0,0,0,330.47,0a16.59,16.59,0,0,0-6.28,1.15,11.59,11.59,0,0,0-4.81,3.47,15.7,15.7,0,0,0-3.14,6,29.63,29.63,0,0,0-1.16,8.85v7.89a29.49,29.49,0,0,0,1.16,8.79,17.07,17.07,0,0,0,3.14,6.09,11.84,11.84,0,0,0,4.87,3.46,16.65,16.65,0,0,0,6.29,1.15,16.34,16.34,0,0,0,6.28-1.15,11.87,11.87,0,0,0,4.88-3.46,17.23,17.23,0,0,0,3.14-6.09,32.15,32.15,0,0,0,1.09-8.79Zm-9,9.11a23.48,23.48,0,0,1-.45,5.13,10.16,10.16,0,0,1-1.22,3.4,4.59,4.59,0,0,1-2,1.86,6.66,6.66,0,0,1-5.39,0,4.62,4.62,0,0,1-2-1.86,10.11,10.11,0,0,1-1.29-3.4,29.55,29.55,0,0,1-.38-5.13V18.15a28.81,28.81,0,0,1,.38-5.07,9.65,9.65,0,0,1,1.22-3.33,5.39,5.39,0,0,1,2-1.86,6.21,6.21,0,0,1,2.69-.52,5.9,5.9,0,0,1,2.7.52,5.11,5.11,0,0,1,2.05,1.86,9.65,9.65,0,0,1,1.22,3.33,22.89,22.89,0,0,1,.45,5.07Zm41.9-28h-9.17l-19,30,.38,5.71h18.72v9.87h9.05V36.36h5.13V29.05h-5.13ZM369.1,14l.64-1.09v16.1H359.61Zm37.67,9H389.14v7.25h17.63ZM444.9,38.92H425.28l8-8.46c1.54-1.6,2.95-3.08,4.17-4.55a31.55,31.55,0,0,0,3.21-4.3,21.23,21.23,0,0,0,2-4.23,12.94,12.94,0,0,0,.77-4.43,15,15,0,0,0-1-5.45,10.82,10.82,0,0,0-2.88-4A12.76,12.76,0,0,0,435,.9a21.38,21.38,0,0,0-6.41-.9,16.74,16.74,0,0,0-6.61,1.22A14.65,14.65,0,0,0,417,4.42a14.15,14.15,0,0,0-3.21,4.75A16.14,16.14,0,0,0,412.71,15h9.11a9.11,9.11,0,0,1,.44-3.07,7.45,7.45,0,0,1,1.22-2.44,5.76,5.76,0,0,1,2.12-1.6,6.25,6.25,0,0,1,2.82-.58A5.58,5.58,0,0,1,432.78,9a7,7,0,0,1,1.54,4.81A5.83,5.83,0,0,1,434,15.9a10.74,10.74,0,0,1-1,2.31A19.12,19.12,0,0,1,431.18,21a39.33,39.33,0,0,1-2.82,3.33L413.61,40v6.22H444.9ZM472.37.58h-1L452.56,7.37v7.31l10.77-3.33V46.23h9Z"></path><path class="cls-2" d="M250.07,97.79v33.86h3.78V108.44a16.75,16.75,0,0,1,1.22-3,12.82,12.82,0,0,1,2-2.56,10.79,10.79,0,0,1,2.88-1.8,9.41,9.41,0,0,1,3.72-.64,11.51,11.51,0,0,1,3.4.45,6.16,6.16,0,0,1,4.29,4.17,13.29,13.29,0,0,1,.58,4.23v22.38h3.78V109.2a9.48,9.48,0,0,1,.77-3,12.25,12.25,0,0,1,1.93-2.82,11,11,0,0,1,3.08-2.12,9.27,9.27,0,0,1,4.1-.83,13.49,13.49,0,0,1,3.33.38,5.58,5.58,0,0,1,2.63,1.48,6.67,6.67,0,0,1,1.73,2.82,14.12,14.12,0,0,1,.58,4.43v22.12h3.72V109.59a18.41,18.41,0,0,0-.7-5.64,9.38,9.38,0,0,0-2.18-3.85,8.19,8.19,0,0,0-3.53-2.25,15.25,15.25,0,0,0-4.68-.7,14.29,14.29,0,0,0-3.79.51A12.88,12.88,0,0,0,279.5,99a11.89,11.89,0,0,0-2.63,2.12,14,14,0,0,0-1.92,2.56,8.93,8.93,0,0,0-3.79-5,12.6,12.6,0,0,0-6.41-1.54,11.88,11.88,0,0,0-3.46.45,11.06,11.06,0,0,0-3,1.22,9.31,9.31,0,0,0-2.5,1.92,13,13,0,0,0-2,2.57l-.12-5.52Zm74.19,34a11,11,0,0,0,3.34-1.29,10.66,10.66,0,0,0,2.56-1.86,16.79,16.79,0,0,0,2-2.37l-2.37-1.73a11.06,11.06,0,0,1-4.17,3.46,11.78,11.78,0,0,1-5.32,1.09,10.81,10.81,0,0,1-4.75-1,11.38,11.38,0,0,1-3.65-2.89,12.72,12.72,0,0,1-2.37-4.23,15.8,15.8,0,0,1-.84-5.26V115h24.18v-2.31a21.29,21.29,0,0,0-.9-6.22,13.83,13.83,0,0,0-2.57-4.94,12.25,12.25,0,0,0-4.23-3.21,13.31,13.31,0,0,0-5.7-1.15,12.5,12.5,0,0,0-5.52,1.22,15.14,15.14,0,0,0-4.62,3.46,16.17,16.17,0,0,0-3.2,5.39,20.67,20.67,0,0,0-1.16,7.11v1.35a18.65,18.65,0,0,0,1.16,6.67,14.87,14.87,0,0,0,3.14,5.26,13.52,13.52,0,0,0,4.81,3.4,14.66,14.66,0,0,0,6.09,1.28,15.91,15.91,0,0,0,4.1-.51Zm-.64-30.53a10.39,10.39,0,0,1,3,2.44,11.31,11.31,0,0,1,1.79,3.53,15,15,0,0,1,.71,4.16v.39H308.81a17.09,17.09,0,0,1,1.22-4.68,12,12,0,0,1,2.24-3.59,11.21,11.21,0,0,1,3.21-2.37,10.09,10.09,0,0,1,4-.77,9.57,9.57,0,0,1,4.16.89Zm15,13.79a24.06,24.06,0,0,0,.9,7,17,17,0,0,0,2.56,5.45,12.83,12.83,0,0,0,4.11,3.53,11.81,11.81,0,0,0,5.45,1.28,13.54,13.54,0,0,0,6.28-1.35,12.91,12.91,0,0,0,4.3-3.78l.13,4.49h3.52V83.56h-3.72v19a12.65,12.65,0,0,0-4.29-4,12.52,12.52,0,0,0-6.16-1.41,11.48,11.48,0,0,0-5.45,1.22,12.11,12.11,0,0,0-4.17,3.46,17,17,0,0,0-2.56,5.45,24.65,24.65,0,0,0-.9,7.12Zm3.78-.64a25.47,25.47,0,0,1,.58-5.52,13.78,13.78,0,0,1,1.8-4.42,8.69,8.69,0,0,1,3.14-2.95,8.31,8.31,0,0,1,4.49-1.09,12.19,12.19,0,0,1,3.59.51,10.08,10.08,0,0,1,2.75,1.48,8.57,8.57,0,0,1,2,2.11,13.85,13.85,0,0,1,1.41,2.5v15.91a13.76,13.76,0,0,1-1.54,2.43,8.34,8.34,0,0,1-2,1.93,10,10,0,0,1-2.76,1.28,12.2,12.2,0,0,1-3.46.45,8.74,8.74,0,0,1-7.56-4,13.75,13.75,0,0,1-1.8-4.43,24.85,24.85,0,0,1-.58-5.51ZM380,97.79H376.2v33.86H380Zm-3.78-8a2.76,2.76,0,0,0,1.93.7,2.58,2.58,0,0,0,1.85-.7,2.36,2.36,0,0,0,.71-1.8,2.26,2.26,0,0,0-.71-1.8,2.36,2.36,0,0,0-1.85-.77,2.52,2.52,0,0,0-1.93.77,2.47,2.47,0,0,0-.64,1.8,2.59,2.59,0,0,0,.64,1.8ZM412,131.65h3.65V97.79h-3.78v24.5a13,13,0,0,1-1.28,2.69,7.38,7.38,0,0,1-2.05,2.12,8.78,8.78,0,0,1-3,1.41,14.24,14.24,0,0,1-4,.51,9.57,9.57,0,0,1-3-.45A6.19,6.19,0,0,1,396,127a7.92,7.92,0,0,1-1.67-2.89,15.42,15.42,0,0,1-.64-4.55V97.79H390v21.67a17.58,17.58,0,0,0,.84,5.9,10.38,10.38,0,0,0,2.24,4,9.11,9.11,0,0,0,3.53,2.24,15.84,15.84,0,0,0,11.09-.64,10.92,10.92,0,0,0,4.23-3.59Zm13.11-33.86v33.86h3.78V108.44a17.51,17.51,0,0,1,1.22-3,13.19,13.19,0,0,1,2-2.56,10.79,10.79,0,0,1,2.88-1.8,9.41,9.41,0,0,1,3.72-.64,11.47,11.47,0,0,1,3.4.45,6.14,6.14,0,0,1,4.3,4.17,13.59,13.59,0,0,1,.58,4.23v22.38h3.78V109.2a9,9,0,0,1,.77-3,11.91,11.91,0,0,1,1.92-2.82,11.13,11.13,0,0,1,3.08-2.12,9.27,9.27,0,0,1,4.1-.83,13.58,13.58,0,0,1,3.34.38,5.68,5.68,0,0,1,2.63,1.48,6.78,6.78,0,0,1,1.73,2.82,14.42,14.42,0,0,1,.58,4.43v22.12h3.71V109.59a18.41,18.41,0,0,0-.7-5.64,9.27,9.27,0,0,0-2.18-3.85,8.13,8.13,0,0,0-3.53-2.25,15.2,15.2,0,0,0-4.68-.7,14.15,14.15,0,0,0-3.78.51A12.8,12.8,0,0,0,454.51,99a11.89,11.89,0,0,0-2.63,2.12,14.51,14.51,0,0,0-1.92,2.56,9,9,0,0,0-3.78-5,12.66,12.66,0,0,0-6.42-1.54,11.92,11.92,0,0,0-3.46.45,10.86,10.86,0,0,0-3,1.22,9,9,0,0,0-2.5,1.92,13,13,0,0,0-2,2.57l-.13-5.52Z"></path><line class="cls-3" x1="574.11" y1="399.31" x2="574.11" y2="844.44"></line><path d="M668.9,628.89l-1-1.22a7.67,7.67,0,0,1-1.33-4.77,6.7,6.7,0,0,1,2.2-5.27,8.46,8.46,0,0,1,5.9-2,9.16,9.16,0,0,1,6,1.84,6.22,6.22,0,0,1,2.2,5.07,6.86,6.86,0,0,1-1.59,4.77,7.29,7.29,0,0,1-4.71,2.2v4.4a10.71,10.71,0,0,0,7.43-3.48,11.51,11.51,0,0,0,2.66-7.89c0-3.63-1.07-6.45-3.22-8.5s-5.13-3-8.87-3-6.71,1-8.91,2.92a10,10,0,0,0-3.28,7.89,11.55,11.55,0,0,0,1.59,6.09l-9.94-1.07V612.09h-4.3v18.65L668,632.58Zm-19.11-46.47V607h3.79V587.34l32.63,15v-4.87L652.4,582.42Z"></path><path d="M366.09,995.7H347.8l9.73-10.61c4.61-4.91,6.87-9.21,6.87-12.8a9.18,9.18,0,0,0-2.92-7.07,11.57,11.57,0,0,0-8.05-2.66,11.81,11.81,0,0,0-8.65,3.12,10.57,10.57,0,0,0-3.28,8.1h4.66a7.63,7.63,0,0,1,1.9-5.49,7.27,7.27,0,0,1,5.37-1.94,6.07,6.07,0,0,1,4.61,1.84,6.51,6.51,0,0,1,1.69,4.66,8.77,8.77,0,0,1-1,4.1,29,29,0,0,1-3.89,5.17l-12.6,14v3.33h23.87Zm20.14-32.78h-.72l-13.26,5v4.2l9.32-3.43v30.84h4.66Z"></path><line class="cls-3" x1="270.24" y1="922.63" x2="464.01" y2="922.63"></line><path class="cls-1" d="M367.13,688.57h94.75c-73,0-73.7-65.48-73.7-65.48V388.23H346.07V623.09s-.7,65.48-73.69,65.48ZM388.18,843v-81.5s.71-65.47,73.7-65.47H272.38c73,0,73.69,65.47,73.69,65.47v81.85ZM273.69,688.83v0Zm186.69,7.22v-7.48"></path><path class="cls-4" d="M367.13,688.57h94.75c-73,0-73.7-65.48-73.7-65.48V388.23H346.07V623.09s-.7,65.48-73.69,65.48ZM388.18,843v-81.5s.71-65.47,73.7-65.47H272.38c73,0,73.69,65.47,73.69,65.47v81.85l42.11-.35ZM273.69,688.83v0Zm186.69,7.22v-7.48M367.13,258V389.54"></path></svg> 