<?xml version="1.0" encoding="UTF-8"?> <svg xmlns="http://www.w3.org/2000/svg" id="Livello_1" data-name="Livello 1" viewBox="0 0 925.33 1000.49"><defs><style>.cls-1{fill:#fff;}.cls-2{fill:#231f20;}.cls-3,.cls-4{fill:none;stroke-width:0.25px;}.cls-3{stroke:#000;}.cls-4{stroke:#231f20;stroke-miterlimit:10;}</style></defs><title>Wonder small</title><rect class="cls-1" y="0.49" width="925.33" height="1000"></rect><path class="cls-2" d="M267.44.58h-1L247.62,7.37v7.31l10.78-3.33V46.23h9Zm23.37,25a13.07,13.07,0,0,1,1-.9,6,6,0,0,1,1.22-.84,10.65,10.65,0,0,1,1.67-.51,7.58,7.58,0,0,1,2.18-.26,8.83,8.83,0,0,1,3.27.58,6,6,0,0,1,2.24,1.67,5.62,5.62,0,0,1,1.35,2.5,11,11,0,0,1,.45,3.27,17.92,17.92,0,0,1-.32,3.33,8.48,8.48,0,0,1-1.16,2.7,5.29,5.29,0,0,1-2,1.79,5.78,5.78,0,0,1-2.88.64,6.21,6.21,0,0,1-4.49-1.6,6.5,6.5,0,0,1-2-4.42h-9a13.35,13.35,0,0,0,1.42,5.64,12.84,12.84,0,0,0,3.46,4.17A14.4,14.4,0,0,0,292.15,46a19.2,19.2,0,0,0,5.71.89,16.84,16.84,0,0,0,6.8-1.28,13.43,13.43,0,0,0,7.69-8.21,18.65,18.65,0,0,0,.9-5.77,22.43,22.43,0,0,0-.9-6.47,13.59,13.59,0,0,0-2.76-4.81,11.76,11.76,0,0,0-4.36-3,15.46,15.46,0,0,0-5.9-1,20.26,20.26,0,0,0-2.11.13,16.6,16.6,0,0,0-2,.44c-.58.2-1.09.39-1.54.58a4.66,4.66,0,0,0-1.15.58l1.09-9.81h18.14V.64H286.19l-2.63,23.15Zm58.89-6.1a29.63,29.63,0,0,0-1.16-8.85,15.7,15.7,0,0,0-3.14-6,11.71,11.71,0,0,0-4.87-3.47A16.39,16.39,0,0,0,334.24,0,16.59,16.59,0,0,0,328,1.15a11.59,11.59,0,0,0-4.81,3.47,15.7,15.7,0,0,0-3.14,6,29.63,29.63,0,0,0-1.16,8.85v7.89A29.49,29.49,0,0,0,320,36.17a17.07,17.07,0,0,0,3.14,6.09A11.84,11.84,0,0,0,328,45.72a16.65,16.65,0,0,0,6.29,1.15,16.34,16.34,0,0,0,6.28-1.15,11.87,11.87,0,0,0,4.88-3.46,17.23,17.23,0,0,0,3.14-6.09,32.15,32.15,0,0,0,1.09-8.79Zm-9,9.11a23.48,23.48,0,0,1-.45,5.13,10.16,10.16,0,0,1-1.22,3.4A4.59,4.59,0,0,1,337,39a6.63,6.63,0,0,1-5.38,0,4.59,4.59,0,0,1-2-1.86,10.11,10.11,0,0,1-1.29-3.4A29.55,29.55,0,0,1,328,28.6V18.15a28.81,28.81,0,0,1,.38-5.07,9.65,9.65,0,0,1,1.22-3.33,5.39,5.39,0,0,1,2-1.86,6.21,6.21,0,0,1,2.69-.52,5.9,5.9,0,0,1,2.7.52A5.11,5.11,0,0,1,339,9.75a9.65,9.65,0,0,1,1.22,3.33,22.89,22.89,0,0,1,.45,5.07Zm41.9-28h-9.17l-19,30,.38,5.71h18.73v9.87h9V36.36h5.13V29.05h-5.13ZM372.87,14l.65-1.09v16.1H363.38Zm37.67,9H392.91v7.25h17.63Zm38.13,15.84H429.05l8-8.46c1.54-1.6,2.95-3.08,4.17-4.55a31.55,31.55,0,0,0,3.21-4.3,21.23,21.23,0,0,0,2-4.23A12.94,12.94,0,0,0,447.2,13a14.83,14.83,0,0,0-1-5.45,10.82,10.82,0,0,0-2.88-4A12.76,12.76,0,0,0,438.73.9a21.38,21.38,0,0,0-6.41-.9,16.74,16.74,0,0,0-6.61,1.22,14.65,14.65,0,0,0-4.93,3.2,14.15,14.15,0,0,0-3.21,4.75A16.35,16.35,0,0,0,416.48,15h9.11a9.11,9.11,0,0,1,.44-3.07,7.45,7.45,0,0,1,1.22-2.44,5.76,5.76,0,0,1,2.12-1.6,6.25,6.25,0,0,1,2.82-.58A5.56,5.56,0,0,1,436.55,9a7,7,0,0,1,1.54,4.81,5.83,5.83,0,0,1-.32,2.05,10.74,10.74,0,0,1-1,2.31A19.12,19.12,0,0,1,435,21a39.33,39.33,0,0,1-2.82,3.33L417.38,40v6.22h31.29Zm36.19-19.43a29.66,29.66,0,0,0-1.15-8.85,16,16,0,0,0-3.14-6,11.81,11.81,0,0,0-4.88-3.47A16.34,16.34,0,0,0,469.41,0a16.56,16.56,0,0,0-6.28,1.15,11.53,11.53,0,0,0-4.81,3.47,15.85,15.85,0,0,0-3.15,6A30,30,0,0,0,454,19.49v7.89a29.84,29.84,0,0,0,1.15,8.79,17.08,17.08,0,0,0,3.15,6.09,11.78,11.78,0,0,0,4.87,3.46,16.59,16.59,0,0,0,6.28,1.15,16.39,16.39,0,0,0,6.29-1.15,11.78,11.78,0,0,0,4.87-3.46,17.07,17.07,0,0,0,3.14-6.09,31.77,31.77,0,0,0,1.09-8.79Zm-9,9.11a23.48,23.48,0,0,1-.45,5.13,10,10,0,0,1-1.21,3.4,4.65,4.65,0,0,1-2,1.86,6.66,6.66,0,0,1-5.39,0,4.65,4.65,0,0,1-2-1.86,10.12,10.12,0,0,1-1.28-3.4,28.6,28.6,0,0,1-.38-5.13V18.15a27.88,27.88,0,0,1,.38-5.07,9.65,9.65,0,0,1,1.22-3.33,5.39,5.39,0,0,1,2-1.86,6.21,6.21,0,0,1,2.69-.52,5.86,5.86,0,0,1,2.69.52,5.07,5.07,0,0,1,2.06,1.86,9.45,9.45,0,0,1,1.21,3.33,22.89,22.89,0,0,1,.45,5.07Z"></path><path class="cls-2" d="M309.38,97.79v33.86h3.78V108.44a17.51,17.51,0,0,1,1.22-3,13.19,13.19,0,0,1,2-2.56,10.85,10.85,0,0,1,2.89-1.8,9.35,9.35,0,0,1,3.72-.64,11.44,11.44,0,0,1,3.39.45,6.34,6.34,0,0,1,2.57,1.41,6.25,6.25,0,0,1,1.73,2.76,13.59,13.59,0,0,1,.58,4.23v22.38H335V109.2a9,9,0,0,1,.77-3,11.91,11.91,0,0,1,1.92-2.82,11.13,11.13,0,0,1,3.08-2.12,9.34,9.34,0,0,1,4.11-.83,13.55,13.55,0,0,1,3.33.38,5.63,5.63,0,0,1,2.63,1.48,6.78,6.78,0,0,1,1.73,2.82,14.42,14.42,0,0,1,.58,4.43v22.12h3.72V109.59a18.39,18.39,0,0,0-.71-5.64A9.27,9.27,0,0,0,354,100.1a8.13,8.13,0,0,0-3.53-2.25,15.2,15.2,0,0,0-4.68-.7,14.21,14.21,0,0,0-3.78.51A13.12,13.12,0,0,0,338.81,99a11.89,11.89,0,0,0-2.63,2.12,14.51,14.51,0,0,0-1.92,2.56,9,9,0,0,0-3.78-5,12.62,12.62,0,0,0-6.41-1.54,12,12,0,0,0-3.47.45,11,11,0,0,0-3,1.22,9.15,9.15,0,0,0-2.5,1.92,13,13,0,0,0-2,2.57L313,97.79Zm61.18,0h-3.78v33.86h3.78Zm-3.78-8a2.75,2.75,0,0,0,1.92.7,2.6,2.6,0,0,0,1.86-.7,2.36,2.36,0,0,0,.71-1.8,2.26,2.26,0,0,0-.71-1.8,2.38,2.38,0,0,0-1.86-.77,2.52,2.52,0,0,0-1.92.77,2.47,2.47,0,0,0-.64,1.8,2.59,2.59,0,0,0,.64,1.8Zm13.9,8v33.86h3.72V108.44a13.77,13.77,0,0,1,1.47-3,10.7,10.7,0,0,1,2.12-2.63,10.85,10.85,0,0,1,2.89-1.8,9.46,9.46,0,0,1,3.65-.64,11.11,11.11,0,0,1,3.34.45,5.64,5.64,0,0,1,2.5,1.47,7.74,7.74,0,0,1,1.6,2.82,14.69,14.69,0,0,1,.58,4.43v22.06h3.72V109.59a18.78,18.78,0,0,0-.77-5.71,10.55,10.55,0,0,0-2.12-3.84,7.93,7.93,0,0,0-3.4-2.19,12.65,12.65,0,0,0-4.55-.7,12.2,12.2,0,0,0-3.46.45,12,12,0,0,0-5.58,3.33,13.67,13.67,0,0,0-2,2.63l-.13-5.77Zm39.4,0H416.3v33.86h3.78Zm-3.78-8a2.75,2.75,0,0,0,1.92.7,2.6,2.6,0,0,0,1.86-.7,2.4,2.4,0,0,0,.71-1.8,2.3,2.3,0,0,0-.71-1.8,2.38,2.38,0,0,0-1.86-.77,2.52,2.52,0,0,0-1.92.77,2.47,2.47,0,0,0-.64,1.8,2.59,2.59,0,0,0,.64,1.8Z"></path><line class="cls-3" x1="571.19" y1="393.39" x2="571.19" y2="807.87"></line><path d="M646.86,585.47v4.92l25.25,16.28h2.71V590.08h8.46v-4.61h-8.46V580.4H671v5.07Zm7.32,5.17-1-.56H671v11.37Zm-7.32-34v4.91l25.25,16.29h2.71V561.28h8.46v-4.61h-8.46V551.6H671v5.07Zm7.32,5.17-1-.56H671v11.37Z"></path><path d="M354.5,962.92h-.72l-13.27,5v4.2l9.32-3.43v30.84h4.67Zm30.9.15q-8.46.15-12.76,5.43t-4.3,15.37v1.79A16.12,16.12,0,0,0,371.62,996a10.33,10.33,0,0,0,8.45,4,10.57,10.57,0,0,0,8.25-3.38c2.05-2.25,3.07-5.23,3.07-9a12.93,12.93,0,0,0-2.87-8.65,9.49,9.49,0,0,0-7.58-3.33,9.76,9.76,0,0,0-7.84,3.28,13.17,13.17,0,0,1,3.69-8.71A12.28,12.28,0,0,1,385.4,967h.87v-3.94Zm-.41,18.8a9.25,9.25,0,0,1,1.79,6,9.07,9.07,0,0,1-1.79,6,5.85,5.85,0,0,1-4.92,2.31,6.06,6.06,0,0,1-5-2.72,11.73,11.73,0,0,1-2.05-7.22v-1.69a7.17,7.17,0,0,1,2.77-3.53,7.35,7.35,0,0,1,4.4-1.44,5.85,5.85,0,0,1,4.82,2.31Z"></path><line class="cls-3" x1="301.13" y1="922.63" x2="428.95" y2="922.63"></line><path class="cls-1" d="M370.28,707.6h61.17c-46.2-.65-46.85-41.91-46.85-41.91V391.64H356V665.69s-.65,41.26-46.85,41.91Zm14.32,99.19V754s.65-41.27,46.85-41.91H309.12C355.32,712.75,356,754,356,754v52.45Z"></path><path class="cls-4" d="M370.28,707.6h61.17c-46.2-.65-46.85-41.91-46.85-41.91V391.64H356V665.69s-.65,41.26-46.85,41.91Zm14.32,99.19V754s.65-41.27,46.85-41.91H309.12C355.32,712.75,356,754,356,754v52.45l28.63.32Zm-72.24-98.15v4.61m115.93-4.61v4.6m-58-454.09V390.74"></path></svg> 