<?xml version="1.0" encoding="UTF-8"?> <svg xmlns="http://www.w3.org/2000/svg" id="Livello_1" data-name="Livello 1" viewBox="0 0 1290.67 1000.49"><defs><style>.cls-1{fill:#fff;}.cls-2{fill:#231f20;}.cls-3,.cls-4,.cls-5{fill:none;stroke-width:0.25px;}.cls-3{stroke:#000;}.cls-4,.cls-5{stroke:#231f20;}.cls-4{stroke-miterlimit:10;}.cls-5{stroke-linecap:round;stroke-linejoin:round;}</style></defs><title>Woody large</title><rect class="cls-1" y="0.49" width="1290.67" height="1000"></rect><path class="cls-2" d="M454.39.63h-1.05L432.83,8v8l11.72-3.63V50.3h9.84ZM499.63.7h-10L469,33.35l.42,6.21h20.37V50.3h9.84V39.56h5.58v-8h-5.58ZM489.09,15.28l.7-1.19V31.61h-11Zm54.8,5.93a32.14,32.14,0,0,0-1.26-9.63A17.2,17.2,0,0,0,539.22,5a12.77,12.77,0,0,0-5.31-3.76A17.72,17.72,0,0,0,527.08,0a18,18,0,0,0-6.84,1.26A12.47,12.47,0,0,0,515,5a17.08,17.08,0,0,0-3.42,6.56,32.14,32.14,0,0,0-1.26,9.63v8.58a32,32,0,0,0,1.26,9.56A18.44,18.44,0,0,0,515,46a12.79,12.79,0,0,0,5.3,3.77A18.18,18.18,0,0,0,527.15,51,17.91,17.91,0,0,0,534,49.75a12.79,12.79,0,0,0,5.3-3.77,18.44,18.44,0,0,0,3.42-6.63,34.59,34.59,0,0,0,1.19-9.56Zm-9.84,9.91a25.45,25.45,0,0,1-.49,5.58,10.89,10.89,0,0,1-1.32,3.7,5.07,5.07,0,0,1-2.16,2,7.15,7.15,0,0,1-5.87,0,5.07,5.07,0,0,1-2.16-2,10.85,10.85,0,0,1-1.39-3.7,31.34,31.34,0,0,1-.42-5.58V19.74a30.5,30.5,0,0,1,.42-5.51A10.47,10.47,0,0,1,522,10.6a6.06,6.06,0,0,1,2.16-2A6.89,6.89,0,0,1,527.08,8a6.48,6.48,0,0,1,2.93.56,5.72,5.72,0,0,1,2.23,2,10.47,10.47,0,0,1,1.32,3.63,24.77,24.77,0,0,1,.49,5.51ZM575.8.21a26.11,26.11,0,0,0-10.67,2,22.5,22.5,0,0,0-8,5.58,25.81,25.81,0,0,0-5,8.66,34.14,34.14,0,0,0-1.67,11v3.84a24.66,24.66,0,0,0,1.25,8,18.75,18.75,0,0,0,3.49,6.21,16.1,16.1,0,0,0,5.51,4A17.33,17.33,0,0,0,568,51a18.1,18.1,0,0,0,6.91-1.32,16.12,16.12,0,0,0,5.3-3.63,15.78,15.78,0,0,0,3.35-5.37,19.31,19.31,0,0,0,1.18-6.7,24.22,24.22,0,0,0-.9-6.49,16.25,16.25,0,0,0-2.65-5.37,13.13,13.13,0,0,0-4.4-3.63,13.53,13.53,0,0,0-6.21-1.4,14.52,14.52,0,0,0-5.65,1.12,13.8,13.8,0,0,0-4.33,3,16.1,16.1,0,0,1,1.68-5.37,12.12,12.12,0,0,1,3.21-4.05,15.45,15.45,0,0,1,4.88-2.58,19.19,19.19,0,0,1,6.28-.91h.56V.21Zm-5.16,25.46a7.45,7.45,0,0,1,2.3,1.89,9.21,9.21,0,0,1,1.47,2.86,12,12,0,0,1,.49,3.63,12,12,0,0,1-.49,3.63,8.94,8.94,0,0,1-1.47,2.79,5.76,5.76,0,0,1-2.23,1.88,5.68,5.68,0,0,1-2.93.7,7.2,7.2,0,0,1-3-.63,7.06,7.06,0,0,1-2.37-2,11,11,0,0,1-1.47-3.28,18.07,18.07,0,0,1-.56-4.61v-3a6.69,6.69,0,0,1,1.12-1.74,6.51,6.51,0,0,1,1.61-1.47,7.52,7.52,0,0,1,2-1,7.11,7.11,0,0,1,2.44-.35,7.22,7.22,0,0,1,3.07.62ZM610,25.12H590.83V33H610Zm41.49,17.23H630.16l8.72-9.21c1.67-1.74,3.21-3.35,4.53-4.95a33.77,33.77,0,0,0,3.49-4.68,22.17,22.17,0,0,0,2.16-4.6,14,14,0,0,0,.84-4.82,16.28,16.28,0,0,0-1-5.93,11.72,11.72,0,0,0-3.13-4.39,13.85,13.85,0,0,0-5-2.79,23.27,23.27,0,0,0-7-1,18.24,18.24,0,0,0-7.19,1.33,15.82,15.82,0,0,0-5.37,3.48A15.34,15.34,0,0,0,617.67,10a17.6,17.6,0,0,0-1.19,6.35h9.91a9.89,9.89,0,0,1,.49-3.35,7.94,7.94,0,0,1,1.32-2.65,6.33,6.33,0,0,1,2.31-1.75A6.83,6.83,0,0,1,633.58,8a6,6,0,0,1,4.74,1.89A7.57,7.57,0,0,1,640,15.07a6.62,6.62,0,0,1-.34,2.23,11.85,11.85,0,0,1-1,2.51,20.78,20.78,0,0,1-2,3,40.82,40.82,0,0,1-3.07,3.63l-16,17.1V50.3h34Zm16-13.54h5.24a13,13,0,0,1,3.41.42,10,10,0,0,1,2.59,1.33,6.93,6.93,0,0,1,1.6,2.3,10,10,0,0,1,.56,3.42,7.35,7.35,0,0,1-.56,2.79,4.77,4.77,0,0,1-1.46,2.09,5.39,5.39,0,0,1-2.38,1.4,8.67,8.67,0,0,1-3.14.49,7.72,7.72,0,0,1-2.86-.49,6.3,6.3,0,0,1-2.3-1.33,5.69,5.69,0,0,1-1.53-1.95,6.07,6.07,0,0,1-.56-2.58h-9.84a12.93,12.93,0,0,0,1.47,6.35,13.13,13.13,0,0,0,3.83,4.46A16.6,16.6,0,0,0,667,50.16a23.23,23.23,0,0,0,6.2.84,24.68,24.68,0,0,0,7-1,16,16,0,0,0,5.58-2.86,13,13,0,0,0,3.7-4.53,14.74,14.74,0,0,0,1.33-6.21,12.22,12.22,0,0,0-2.1-7.12,12.05,12.05,0,0,0-6.21-4.46,16.35,16.35,0,0,0,3.21-2A15.65,15.65,0,0,0,688,20.3a13.41,13.41,0,0,0,1.46-3,12.15,12.15,0,0,0,.49-3.14A14.4,14.4,0,0,0,688.72,8a12.32,12.32,0,0,0-3.42-4.39A15.54,15.54,0,0,0,680,.91,26,26,0,0,0,673.16,0a20.73,20.73,0,0,0-6.34,1,17.08,17.08,0,0,0-5.17,2.72A13.83,13.83,0,0,0,658.16,8a12.5,12.5,0,0,0-1.25,5.59h9.84a5.24,5.24,0,0,1,.55-2.31,5.05,5.05,0,0,1,1.4-1.74,5.78,5.78,0,0,1,2.16-1.12A7.31,7.31,0,0,1,673.37,8a7.67,7.67,0,0,1,3,.49,5.4,5.4,0,0,1,2.1,1.33,5,5,0,0,1,1.25,2,7.31,7.31,0,0,1,.42,2.51,6.9,6.9,0,0,1-1.81,5,7.53,7.53,0,0,1-5.58,1.88h-5.24Z"></path><path class="cls-2" d="M495.26,90.91h-4.11v52.33h4.11Zm38.64,52.33v-.42a13.57,13.57,0,0,1-.49-1.54c-.14-.55-.21-1.18-.35-1.81s-.14-1.26-.21-1.95-.06-1.33-.06-2V117.7a13.19,13.19,0,0,0-1-5.23A10.41,10.41,0,0,0,529,108.7a12.2,12.2,0,0,0-4.19-2.23,19.22,19.22,0,0,0-11.23.14,16,16,0,0,0-4.47,2.44,11.55,11.55,0,0,0-2.86,3.49,8.08,8.08,0,0,0-1,4l4,.07a6.07,6.07,0,0,1,.77-2.93,8.12,8.12,0,0,1,2-2.38,9.68,9.68,0,0,1,3.14-1.53,11.74,11.74,0,0,1,3.91-.63q4.71,0,7.12,2.3a8.06,8.06,0,0,1,2.44,6.21v4.19H521.2a30.53,30.53,0,0,0-7,.77,15.9,15.9,0,0,0-5.31,2.37,9.7,9.7,0,0,0-4.46,8.51,10.09,10.09,0,0,0,.84,4.12,9.66,9.66,0,0,0,2.37,3.35,11.38,11.38,0,0,0,3.77,2.23,15.5,15.5,0,0,0,4.88.77,18.33,18.33,0,0,0,4-.49,23,23,0,0,0,3.49-1.26,13.25,13.25,0,0,0,2.79-1.88,11.34,11.34,0,0,0,2.16-2.23c.07,1,.14,1.88.28,2.86a9.33,9.33,0,0,0,.56,2.3Zm-20.58-3.49a8.25,8.25,0,0,1-2.65-1.54,5.88,5.88,0,0,1-1.61-2.3,6.37,6.37,0,0,1-.62-2.79,6.94,6.94,0,0,1,.9-3.42,7.38,7.38,0,0,1,2.65-2.58,12.86,12.86,0,0,1,4.19-1.6,22.46,22.46,0,0,1,5.58-.56h7v8.09a12.15,12.15,0,0,1-1.82,2.86,12.49,12.49,0,0,1-6.07,3.84,15.35,15.35,0,0,1-4.11.56,10.3,10.3,0,0,1-3.42-.56Zm47.48-33.63a7.56,7.56,0,0,0-1.19-.28,11.45,11.45,0,0,0-1.54-.14,10.52,10.52,0,0,0-6.27,1.75,12.6,12.6,0,0,0-4.12,4.81l-.07-5.86h-4v36.84h4V117.91a18.74,18.74,0,0,1,1.39-3.35,9.83,9.83,0,0,1,2.17-2.58,8.7,8.7,0,0,1,2.93-1.74,10.59,10.59,0,0,1,3.76-.63,16.63,16.63,0,0,1,2.73.21Zm4.65,19a26.31,26.31,0,0,0,1,7.6,17.31,17.31,0,0,0,2.79,5.93,13.88,13.88,0,0,0,4.47,3.84,12.57,12.57,0,0,0,5.93,1.4,14.66,14.66,0,0,0,6.77-1.47,12.68,12.68,0,0,0,4.6-4v4.26a15.38,15.38,0,0,1-.7,4.95,9.35,9.35,0,0,1-2.16,3.63,8.49,8.49,0,0,1-3.42,2.37,13.19,13.19,0,0,1-4.6.77,12,12,0,0,1-5.51-1.26,15.78,15.78,0,0,1-4.82-4l-2.23,2.44a12.24,12.24,0,0,0,2.58,2.79,18.08,18.08,0,0,0,3.21,1.95,20.52,20.52,0,0,0,3.49,1.19,15.36,15.36,0,0,0,3.56.35,16.77,16.77,0,0,0,6.07-1,12.93,12.93,0,0,0,4.67-3,13.88,13.88,0,0,0,2.93-4.81,18.41,18.41,0,0,0,1.12-6.42V106.4h-3.84l-.21,5.3a13.32,13.32,0,0,0-4.67-4.39,14.63,14.63,0,0,0-12.77-.28,13.53,13.53,0,0,0-4.47,3.77,17.31,17.31,0,0,0-2.79,5.93,27,27,0,0,0-1,7.74Zm4.11-.7a27.21,27.21,0,0,1,.63-6,15.28,15.28,0,0,1,1.95-4.81,9.37,9.37,0,0,1,3.42-3.21,9.06,9.06,0,0,1,4.89-1.19,13.09,13.09,0,0,1,3.9.56,10.1,10.1,0,0,1,5.17,3.91,11.64,11.64,0,0,1,1.46,2.79v17.09a13.22,13.22,0,0,1-1.6,2.72,9,9,0,0,1-2.23,2.09,10.94,10.94,0,0,1-3,1.47,12.55,12.55,0,0,1-3.76.49,9.54,9.54,0,0,1-8.24-4.4,15.28,15.28,0,0,1-1.95-4.81,26.82,26.82,0,0,1-.63-6Zm54.94,18.91a14.22,14.22,0,0,0,6.42-3.42,18.24,18.24,0,0,0,2.16-2.58l-2.58-1.89a12,12,0,0,1-4.53,3.77,12.82,12.82,0,0,1-5.79,1.19,11.64,11.64,0,0,1-5.17-1.12,12.34,12.34,0,0,1-4-3.14,13.84,13.84,0,0,1-2.58-4.6,17.23,17.23,0,0,1-.91-5.72v-.77h26.3v-2.51a23.56,23.56,0,0,0-1-6.77,15.1,15.1,0,0,0-2.8-5.37,13.38,13.38,0,0,0-4.6-3.49,14.47,14.47,0,0,0-6.21-1.26,13.66,13.66,0,0,0-6,1.33,16.17,16.17,0,0,0-5,3.77,17.3,17.3,0,0,0-3.49,5.86,22.44,22.44,0,0,0-1.26,7.74v1.47a20.22,20.22,0,0,0,1.26,7.25,16.19,16.19,0,0,0,3.42,5.72,14.55,14.55,0,0,0,5.23,3.7,15.84,15.84,0,0,0,6.63,1.4,17.26,17.26,0,0,0,4.46-.56Zm-.69-33.21a11.11,11.11,0,0,1,3.27,2.65,12.45,12.45,0,0,1,2,3.84,16.17,16.17,0,0,1,.77,4.53v.42H607.69a19.08,19.08,0,0,1,1.32-5.09,12.83,12.83,0,0,1,2.45-3.91,12.15,12.15,0,0,1,3.48-2.58,11.14,11.14,0,0,1,4.33-.84,10.35,10.35,0,0,1,4.54,1Z"></path><path d="M1156.31,721.61h29.43v-5h-21.46c-2.84-1.22-4.23-3.45-4.23-6.8,0-4.18,2.12-6.24,6.41-6.24h19.28v-5.07h-19.51a7,7,0,0,1-4.51-2.17,6.64,6.64,0,0,1-1.67-4.63c0-2.28.5-3.9,1.56-4.85a6.92,6.92,0,0,1,4.74-1.45h19.39v-5H1166c-6.85.11-10.25,3.4-10.25,9.81a11.55,11.55,0,0,0,1.28,5.57,12,12,0,0,0,3.45,3.84c-3.17,1.51-4.73,4.3-4.73,8.42a10.85,10.85,0,0,0,3.79,8.69l-3.24.17Zm0-54.37v5.08h29.43v-5.08Zm-5.79,4.74a2.88,2.88,0,0,0,.83-2.23,2.83,2.83,0,0,0-.83-2.23,3,3,0,0,0-2.06-.78,3.09,3.09,0,0,0-2.07.78,2.86,2.86,0,0,0-.83,2.23,2.92,2.92,0,0,0,.83,2.23,3,3,0,0,0,2.07.73,2.94,2.94,0,0,0,2.06-.73Zm5.79-12.77h29.43v-5.07h-21a8.73,8.73,0,0,1-3.45-2.9,7.32,7.32,0,0,1-1.28-4.29,6,6,0,0,1,1.5-4.46,7.24,7.24,0,0,1,4.74-1.45h19.45v-5h-19.45q-10.53.08-10.53,9.42a10.64,10.64,0,0,0,4.23,8.8l-3.68.17Zm25.31-70.07V609l-11.54-10.59c-5.35-5-10-7.46-13.93-7.46a9.94,9.94,0,0,0-7.69,3.17c-2,2.18-2.9,5.07-2.9,8.75,0,4,1.11,7.08,3.4,9.42a11.45,11.45,0,0,0,8.8,3.57v-5.07a8.23,8.23,0,0,1-6-2.07,7.93,7.93,0,0,1-2.12-5.85,6.61,6.61,0,0,1,2-5,7.07,7.07,0,0,1,5.07-1.84,9.69,9.69,0,0,1,4.46,1.11,31.37,31.37,0,0,1,5.63,4.24l15.27,13.71h3.62v-26Zm-19.29-30.23c-5.74.06-9.92,1.12-12.65,3.13s-4.12,5.12-4.12,9.41,1.39,7.47,4.23,9.48,7.19,3,13,3h6.74c5.57-.06,9.75-1.12,12.6-3.18s4.18-5.13,4.18-9.36-1.45-7.47-4.29-9.48-7.25-3-13.16-3Zm7.86,5c4.12.06,7.19.72,9.08,1.89a6.76,6.76,0,0,1-.16,11.21c-2.06,1.22-5.19,1.89-9.48,1.89h-8.08c-4,0-7-.67-9-1.84a6.92,6.92,0,0,1,.06-11.31c1.95-1.23,5-1.84,9.3-1.84Zm-3.34-36.3v13.26H1171V527.63Zm-10.54-18.74h29.43v-5h-21.46c-2.84-1.23-4.23-3.45-4.23-6.8,0-4.18,2.12-6.24,6.41-6.24h19.28v-5.07h-19.51a6.92,6.92,0,0,1-4.51-2.18,6.6,6.6,0,0,1-1.67-4.62c0-2.29.5-3.9,1.56-4.85a6.87,6.87,0,0,1,4.74-1.45h19.39v-5H1166c-6.85.11-10.25,3.4-10.25,9.8A11.56,11.56,0,0,0,1157,483a12,12,0,0,0,3.45,3.84c-3.17,1.51-4.73,4.29-4.73,8.42a10.87,10.87,0,0,0,3.79,8.69l-3.24.17Zm29.43-72.31h-.45a16.85,16.85,0,0,1-6.46,1h-13.54a9.13,9.13,0,0,0-7,3c-1.73,1.9-2.56,4.57-2.56,8a14,14,0,0,0,1.22,5.91,10.41,10.41,0,0,0,3.23,4.23,6.89,6.89,0,0,0,4.24,1.56v-5.07a4.05,4.05,0,0,1-3.29-1.84,7.24,7.24,0,0,1-1.34-4.51,6.29,6.29,0,0,1,1.57-4.63,5.6,5.6,0,0,1,4.17-1.56h2.35v4.85c0,4.24.83,7.52,2.56,9.87a8.26,8.26,0,0,0,7.13,3.51,8.08,8.08,0,0,0,6.24-2.79,10.56,10.56,0,0,0,2.46-7.13,11.35,11.35,0,0,0-3.63-8.42,9,9,0,0,0,3.07-.72Zm-5.07,17.66a4.65,4.65,0,0,1-3.74,1.56c-3.62,0-5.46-3.06-5.46-9.25v-3.9h6.08a7.22,7.22,0,0,1,3.23,3.07,8.5,8.5,0,0,1,1.23,4.46,6,6,0,0,1-1.34,4.06Zm-24.36-28v5.85l14.55-9.64,14.88,9.92v-5.85l-11-6.8,11-6.8v-5.85l-14.88,10-14.55-9.64v5.85l10.76,6.52Zm25.31-63.5v19.9l-11.54-10.59c-5.35-5-10-7.47-13.93-7.47a10,10,0,0,0-7.69,3.18c-2,2.17-2.9,5.07-2.9,8.75,0,4,1.11,7.08,3.4,9.42a11.48,11.48,0,0,0,8.8,3.56v-5.07a8.26,8.26,0,0,1-6-2.06,7.93,7.93,0,0,1-2.12-5.85,6.65,6.65,0,0,1,2-5,7.12,7.12,0,0,1,5.07-1.84,9.58,9.58,0,0,1,4.46,1.12,31.22,31.22,0,0,1,5.63,4.23l15.27,13.71h3.62v-26Zm-19.29-30.22c-5.74.06-9.92,1.12-12.65,3.12s-4.12,5.13-4.12,9.42,1.39,7.47,4.23,9.47,7.19,3,13,3h6.74c5.57-.05,9.75-1.11,12.6-3.17s4.18-5.13,4.18-9.37-1.45-7.46-4.29-9.47-7.25-3-13.16-3Zm7.86,5c4.12.05,7.19.72,9.08,1.89a6.75,6.75,0,0,1-.16,11.2c-2.06,1.23-5.19,1.9-9.48,1.9h-8.08c-4-.06-7-.67-9-1.84a6.92,6.92,0,0,1,.06-11.31c1.95-1.23,5-1.84,9.3-1.84Zm-7.86-36.36c-5.74.06-9.92,1.12-12.65,3.12s-4.12,5.13-4.12,9.42,1.39,7.47,4.23,9.48,7.19,3,13,3h6.74c5.57-.06,9.75-1.12,12.6-3.18s4.18-5.13,4.18-9.36-1.45-7.47-4.29-9.48-7.25-3-13.16-3Zm7.86,5c4.12.06,7.19.72,9.08,1.89a6.76,6.76,0,0,1-.16,11.21c-2.06,1.22-5.19,1.89-9.48,1.89h-8.08c-4-.05-7-.67-9-1.84a6.92,6.92,0,0,1,.06-11.31c1.95-1.23,5-1.84,9.3-1.84Z"></path><path class="cls-3" d="M112.47,910.41h917.2m60.09-645.61v494"></path><path d="M543.94,959.65h-.78l-14.43,5.41v4.57l10.14-3.74v33.55h5.07ZM583.58,976c-.05-5.74-1.11-9.92-3.12-12.65s-5.13-4.13-9.42-4.13-7.46,1.39-9.47,4.24-3,7.19-3,13v6.75c.06,5.57,1.11,9.75,3.18,12.59s5.12,4.18,9.36,4.18,7.47-1.45,9.47-4.29,3-7.25,3-13.15Zm-5,7.85c-.06,4.13-.73,7.19-1.9,9.09a6.75,6.75,0,0,1-11.2-.17c-1.23-2.06-1.89-5.18-1.89-9.47v-8.08c0-4,.66-7,1.83-9a6.08,6.08,0,0,1,5.63-2.89,6.15,6.15,0,0,1,5.69,3c1.22,1.95,1.84,5,1.84,9.31Zm30.33-24.07c-6.13.11-10.75,2.06-13.88,5.91s-4.68,9.41-4.68,16.72v1.95a17.53,17.53,0,0,0,3.57,11.25,11.26,11.26,0,0,0,9.2,4.35,11.5,11.5,0,0,0,9-3.68c2.23-2.45,3.34-5.68,3.34-9.81a14.15,14.15,0,0,0-3.12-9.42,10.34,10.34,0,0,0-8.25-3.62,10.61,10.61,0,0,0-8.52,3.57c.33-4.07,1.67-7.19,4-9.47a13.33,13.33,0,0,1,9.36-3.46h1v-4.29Zm-.44,20.45a10.15,10.15,0,0,1,1.95,6.52,9.92,9.92,0,0,1-1.95,6.52,6.38,6.38,0,0,1-5.35,2.51,6.62,6.62,0,0,1-5.47-3,12.8,12.8,0,0,1-2.23-7.86v-1.84a7.91,7.91,0,0,1,3-3.85,8.16,8.16,0,0,1,4.8-1.56,6.38,6.38,0,0,1,5.24,2.51Z"></path><rect class="cls-1" x="461.52" y="267.12" width="222.88" height="20.23"></rect><rect class="cls-4" x="461.52" y="267.12" width="222.88" height="20.23"></rect><path class="cls-1" d="M710.69,293H435.23a1.38,1.38,0,1,1,0-2.75H710.69a1.38,1.38,0,0,1,0,2.75"></path><path class="cls-4" d="M710.69,293H435.23a1.38,1.38,0,1,1,0-2.75H710.69a1.38,1.38,0,0,1,0,2.75"></path><path class="cls-1" d="M709.13,299.66H436.77c-.74,0-1.36-1.86-1.36-4.13s.62-4.13,1.36-4.13H709.13c.75,0,1.36,1.86,1.36,4.13s-.61,4.13-1.36,4.13"></path><path class="cls-4" d="M709.13,299.66H436.77c-.74,0-1.36-1.86-1.36-4.13s.62-4.13,1.36-4.13H709.13c.75,0,1.36,1.86,1.36,4.13s-.61,4.13-1.36,4.13Z"></path><rect class="cls-1" x="462.88" y="293.03" width="12.37" height="7.65"></rect><rect class="cls-4" x="462.88" y="293.04" width="12.36" height="7.64"></rect><rect class="cls-1" x="464.44" y="294.6" width="9.25" height="4.52"></rect><rect class="cls-4" x="464.44" y="294.6" width="9.24" height="4.52"></rect><rect class="cls-1" x="465.71" y="300.68" width="7.73" height="6.18"></rect><rect class="cls-4" x="465.7" y="300.68" width="7.73" height="6.18"></rect><rect class="cls-1" x="467.27" y="302.24" width="4.6" height="3.06"></rect><rect class="cls-4" x="467.26" y="302.24" width="4.61" height="3.06"></rect><rect class="cls-1" x="670.24" y="294.4" width="12.36" height="7.65"></rect><rect class="cls-4" x="670.24" y="294.41" width="12.36" height="7.64"></rect><rect class="cls-1" x="671.8" y="295.97" width="9.24" height="4.52"></rect><rect class="cls-4" x="671.8" y="295.98" width="9.24" height="4.52"></rect><rect class="cls-1" x="673.08" y="302.05" width="7.73" height="6.18"></rect><rect class="cls-4" x="673.08" y="302.05" width="7.73" height="6.18"></rect><rect class="cls-1" x="674.64" y="303.61" width="4.61" height="3.06"></rect><path class="cls-4" d="M674.64,306.67h4.61v-3.06h-4.61Zm-205.58,1.56V727.85m.35-419.62V727.85M676.94,308.23V727.85m-.36-419.62V727.85"></path><path class="cls-1" d="M1012.28,753.79H130.54l-15.75-27.3h912.55Zm-13.35,2.73H143.2v-30H998.93Zm-554,0H234.77a5.12,5.12,0,1,1,0-10.24H444.93a5.12,5.12,0,1,1,0,10.24m466.89,0H701.65a5.12,5.12,0,1,1,0-10.24H911.82a5.12,5.12,0,0,1,0,10.24M578.25,724.28,575,721h-5.3l-3.08,3.24ZM566.44,296V309.7l3.09,5.54h8.21l3.59-5.54V296Z"></path><path class="cls-5" d="M1012.28,753.79H130.54l-15.75-27.3h912.55l-15.06,27.3Zm-13.35,2.73H143.2v-30H998.93Zm-554,0H234.77a5.12,5.12,0,1,1,0-10.24H444.93a5.12,5.12,0,1,1,0,10.24Zm466.89,0H701.65a5.12,5.12,0,1,1,0-10.24H911.82a5.12,5.12,0,0,1,0,10.24ZM578.25,724.28,575,721h-5.3l-3.08,3.24ZM566.44,296V309.7l3.09,5.54h8.21l3.59-5.54V296Z"></path></svg> 