<?xml version="1.0" encoding="UTF-8"?> <svg xmlns="http://www.w3.org/2000/svg" id="Livello_1" data-name="Livello 1" viewBox="0 0 1290.67 1000.49"><defs><style>.cls-1{fill:#fff;}.cls-2{fill:#231f20;}.cls-3,.cls-4,.cls-5{fill:none;stroke-width:0.25px;}.cls-3{stroke:#000;}.cls-4,.cls-5{stroke:#231f20;}.cls-4{stroke-linecap:round;stroke-linejoin:round;}.cls-5{stroke-miterlimit:10;}</style></defs><title>Woody small</title><rect class="cls-1" y="0.49" width="1290.67" height="1000"></rect><path class="cls-2" d="M392.39.63h-1.05L370.83,8v8l11.72-3.63V50.3h9.84ZM437.63.7h-10L407,33.35l.42,6.21h20.37V50.3h9.84V39.56h5.58v-8h-5.58ZM427.09,15.28l.7-1.19V31.61h-11Zm54.8,5.93a32.14,32.14,0,0,0-1.26-9.63A17.2,17.2,0,0,0,477.22,5a12.77,12.77,0,0,0-5.31-3.76A17.72,17.72,0,0,0,465.08,0a18,18,0,0,0-6.84,1.26A12.53,12.53,0,0,0,453,5a17.21,17.21,0,0,0-3.42,6.56,32.14,32.14,0,0,0-1.26,9.63v8.58a32,32,0,0,0,1.26,9.56A18.44,18.44,0,0,0,453,46a12.85,12.85,0,0,0,5.3,3.77A18.18,18.18,0,0,0,465.15,51,17.91,17.91,0,0,0,472,49.75,12.88,12.88,0,0,0,477.29,46a18.58,18.58,0,0,0,3.41-6.63,34.59,34.59,0,0,0,1.19-9.56Zm-9.84,9.91a25.45,25.45,0,0,1-.49,5.58,10.68,10.68,0,0,1-1.32,3.7,5.07,5.07,0,0,1-2.16,2,7.13,7.13,0,0,1-5.86,0,5,5,0,0,1-2.17-2,11.06,11.06,0,0,1-1.39-3.7,31.34,31.34,0,0,1-.42-5.58V19.74a30.5,30.5,0,0,1,.42-5.51A10.67,10.67,0,0,1,460,10.6a6,6,0,0,1,2.17-2A6.81,6.81,0,0,1,465.08,8a6.48,6.48,0,0,1,2.93.56,5.72,5.72,0,0,1,2.23,2,10.27,10.27,0,0,1,1.32,3.63,24.77,24.77,0,0,1,.49,5.51ZM513.81.21a26.12,26.12,0,0,0-10.68,2,22.5,22.5,0,0,0-7.95,5.58,25.81,25.81,0,0,0-5,8.66,34.14,34.14,0,0,0-1.67,11v3.84a24.66,24.66,0,0,0,1.25,8,18.75,18.75,0,0,0,3.49,6.21,16.1,16.1,0,0,0,5.51,4A17.33,17.33,0,0,0,506,51a18.1,18.1,0,0,0,6.91-1.32,16,16,0,0,0,5.3-3.63,15.63,15.63,0,0,0,3.35-5.37,19.31,19.31,0,0,0,1.19-6.7,24.22,24.22,0,0,0-.91-6.49,16.25,16.25,0,0,0-2.65-5.37,13,13,0,0,0-4.4-3.63,13.53,13.53,0,0,0-6.21-1.4,14.56,14.56,0,0,0-5.65,1.12,13.64,13.64,0,0,0-4.32,3,15.87,15.87,0,0,1,1.67-5.37,12.12,12.12,0,0,1,3.21-4.05,15.45,15.45,0,0,1,4.88-2.58,19.19,19.19,0,0,1,6.28-.91h.56V.21Zm-5.17,25.46a7.45,7.45,0,0,1,2.3,1.89,9.21,9.21,0,0,1,1.47,2.86,12,12,0,0,1,.49,3.63,12,12,0,0,1-.49,3.63,8.94,8.94,0,0,1-1.47,2.79,5.76,5.76,0,0,1-2.23,1.88,5.68,5.68,0,0,1-2.93.7,7.24,7.24,0,0,1-3-.63,7.06,7.06,0,0,1-2.37-2,11,11,0,0,1-1.47-3.28,18.55,18.55,0,0,1-.55-4.61v-3a6.65,6.65,0,0,1,1.11-1.74,6.51,6.51,0,0,1,1.61-1.47,7.66,7.66,0,0,1,2-1,8.23,8.23,0,0,1,5.51.27ZM548,25.12H528.84V33H548Zm41.49,17.23H568.16l8.72-9.21c1.67-1.74,3.21-3.35,4.53-4.95a33,33,0,0,0,3.49-4.68,22.76,22.76,0,0,0,2.17-4.6,14.2,14.2,0,0,0,.83-4.82,16.49,16.49,0,0,0-1-5.93,11.85,11.85,0,0,0-3.14-4.39,13.85,13.85,0,0,0-5-2.79,23.27,23.27,0,0,0-7-1,18.28,18.28,0,0,0-7.19,1.33,15.82,15.82,0,0,0-5.37,3.48A15.34,15.34,0,0,0,555.67,10a17.6,17.6,0,0,0-1.19,6.35h9.91a9.89,9.89,0,0,1,.49-3.35,7.94,7.94,0,0,1,1.32-2.65,6.33,6.33,0,0,1,2.31-1.75A6.83,6.83,0,0,1,571.58,8a6,6,0,0,1,4.74,1.89A7.57,7.57,0,0,1,578,15.07a6.4,6.4,0,0,1-.35,2.23,11.85,11.85,0,0,1-1,2.51,20.78,20.78,0,0,1-2,3,40.82,40.82,0,0,1-3.07,3.63l-16,17.1V50.3h34ZM619.4.63h-1L597.84,8v8l11.72-3.63V50.3h9.84Z"></path><path class="cls-2" d="M442.54,136.33a6.57,6.57,0,0,1-1.82,2.16,13.1,13.1,0,0,1-3,1.47,14.71,14.71,0,0,1-4.11.49,15.14,15.14,0,0,1-3.49-.35,10.31,10.31,0,0,1-3.28-1.26,7,7,0,0,1-2.44-2.3,7.18,7.18,0,0,1-1.12-3.63h-4.11a9.37,9.37,0,0,0,1,4.12,10.53,10.53,0,0,0,2.79,3.56A13.85,13.85,0,0,0,427.4,143a21.07,21.07,0,0,0,6.21.91,20.1,20.1,0,0,0,5.65-.77,12.38,12.38,0,0,0,4.26-2.09,10.41,10.41,0,0,0,2.79-3.21,9.35,9.35,0,0,0,.9-4.19,8.81,8.81,0,0,0-.76-3.91,8,8,0,0,0-2.31-3,17.34,17.34,0,0,0-4-2.3,37.13,37.13,0,0,0-5.72-1.67,38.38,38.38,0,0,1-5-1.47,11.1,11.1,0,0,1-3-1.6,3.68,3.68,0,0,1-1.46-1.89,5.75,5.75,0,0,1-.42-2.23,5.52,5.52,0,0,1,.56-2.3,5.41,5.41,0,0,1,1.53-2.1,9.78,9.78,0,0,1,2.79-1.46,11.55,11.55,0,0,1,4-.56,12,12,0,0,1,4.05.63,9.09,9.09,0,0,1,3,1.67,7.1,7.1,0,0,1,1.88,2.45,6.46,6.46,0,0,1,.63,2.79h4a10.25,10.25,0,0,0-.9-4.4,10.89,10.89,0,0,0-2.65-3.49,13.74,13.74,0,0,0-4.33-2.3,19.51,19.51,0,0,0-11.09-.07,13.72,13.72,0,0,0-4.12,2.16,9.44,9.44,0,0,0-2.58,3.21,8.45,8.45,0,0,0-.91,3.91,8.72,8.72,0,0,0,.84,3.91,7.6,7.6,0,0,0,2.51,2.86,15,15,0,0,0,4.05,2.09,41.63,41.63,0,0,0,5.44,1.46,29,29,0,0,1,5,1.54,10.25,10.25,0,0,1,3,1.88,6.4,6.4,0,0,1,1.47,2.1,6.62,6.62,0,0,1,.42,2.3,5.07,5.07,0,0,1-.63,2.44Zm13.57-29.93v36.84h4.11V118a19.27,19.27,0,0,1,1.33-3.28,14.84,14.84,0,0,1,2.16-2.79,12,12,0,0,1,3.14-2,10.22,10.22,0,0,1,4-.7,12.45,12.45,0,0,1,3.7.49,6.67,6.67,0,0,1,4.67,4.53,14.67,14.67,0,0,1,.63,4.61v24.35H484V118.82a9.84,9.84,0,0,1,.83-3.28,13.25,13.25,0,0,1,2.1-3.07,11.68,11.68,0,0,1,3.35-2.3,10,10,0,0,1,4.46-.91,14.37,14.37,0,0,1,3.63.42,6.23,6.23,0,0,1,2.86,1.6,7.46,7.46,0,0,1,1.88,3.07,15.48,15.48,0,0,1,.63,4.82v24.07h4.05v-24a19.87,19.87,0,0,0-.77-6.14,10.24,10.24,0,0,0-2.37-4.19,8.92,8.92,0,0,0-3.84-2.44,16.2,16.2,0,0,0-5.09-.77,15.42,15.42,0,0,0-4.12.56,14.3,14.3,0,0,0-3.49,1.47,12.85,12.85,0,0,0-2.86,2.3,16.12,16.12,0,0,0-2.09,2.79,9.69,9.69,0,0,0-4.12-5.44,13.7,13.7,0,0,0-7-1.68,12.89,12.89,0,0,0-3.77.49,12.4,12.4,0,0,0-3.28,1.33,9.87,9.87,0,0,0-2.72,2.09,13.77,13.77,0,0,0-2.16,2.79l-.14-6Zm89.59,36.84v-.42a13.57,13.57,0,0,1-.49-1.54c-.14-.55-.21-1.18-.35-1.81s-.14-1.26-.21-1.95a19,19,0,0,1-.07-2V117.7a13.19,13.19,0,0,0-1-5.23,10.41,10.41,0,0,0-2.79-3.77,12.2,12.2,0,0,0-4.19-2.23,19.22,19.22,0,0,0-11.23.14,16,16,0,0,0-4.47,2.44,11.55,11.55,0,0,0-2.86,3.49,8,8,0,0,0-1,4l4,.07a6.07,6.07,0,0,1,.77-2.93,8.12,8.12,0,0,1,2-2.38,9.68,9.68,0,0,1,3.14-1.53,11.74,11.74,0,0,1,3.91-.63q4.71,0,7.12,2.3a8.06,8.06,0,0,1,2.44,6.21v4.19H533a30.53,30.53,0,0,0-7,.77,15.9,15.9,0,0,0-5.31,2.37,9.64,9.64,0,0,0-4.46,8.51,10.09,10.09,0,0,0,.84,4.12,9.66,9.66,0,0,0,2.37,3.35,11.34,11.34,0,0,0,3.76,2.23,15.57,15.57,0,0,0,4.89.77,18.41,18.41,0,0,0,4.05-.49,22.5,22.5,0,0,0,3.48-1.26,12.75,12.75,0,0,0,2.79-1.88,11.13,11.13,0,0,0,2.17-2.23c.07,1,.14,1.88.28,2.86a9.83,9.83,0,0,0,.55,2.3Zm-20.58-3.49a8.14,8.14,0,0,1-2.65-1.54,5.88,5.88,0,0,1-1.61-2.3,6.24,6.24,0,0,1-.63-2.79,7,7,0,0,1,.91-3.42,7.38,7.38,0,0,1,2.65-2.58,12.77,12.77,0,0,1,4.19-1.6,22.46,22.46,0,0,1,5.58-.56h7v8.09a12.15,12.15,0,0,1-1.82,2.86,12.49,12.49,0,0,1-6.07,3.84,15.35,15.35,0,0,1-4.11.56,10.3,10.3,0,0,1-3.42-.56ZM560,90.91h-4.12v52.33H560Zm15.61,0h-4.12v52.33h4.12Z"></path><line class="cls-3" x1="189.89" y1="910.41" x2="797.07" y2="910.41"></line><path d="M487.49,980.61l1.34-1.06A8.27,8.27,0,0,1,494,978.1a7.32,7.32,0,0,1,5.74,2.39,9.22,9.22,0,0,1,2.17,6.41,10,10,0,0,1-2,6.58,6.76,6.76,0,0,1-5.52,2.4,7.44,7.44,0,0,1-5.18-1.73,7.91,7.91,0,0,1-2.4-5.13H482a11.66,11.66,0,0,0,3.79,8.08,12.49,12.49,0,0,0,8.58,2.9c4,0,7-1.17,9.25-3.51s3.29-5.57,3.29-9.64-1.06-7.3-3.18-9.7a10.91,10.91,0,0,0-8.58-3.57,12.52,12.52,0,0,0-6.63,1.73l1.17-10.81h16v-4.68H485.48l-2,19.78Z"></path><path d="M518.82,980.61l1.34-1.06a8.32,8.32,0,0,1,5.19-1.45,7.32,7.32,0,0,1,5.74,2.39,9.27,9.27,0,0,1,2.17,6.41,10,10,0,0,1-2,6.58,6.74,6.74,0,0,1-5.51,2.4,7.49,7.49,0,0,1-5.19-1.73,7.91,7.91,0,0,1-2.39-5.13h-4.8a11.7,11.7,0,0,0,3.79,8.08,12.52,12.52,0,0,0,8.59,2.9c4,0,7-1.17,9.25-3.51s3.28-5.57,3.28-9.64-1-7.3-3.17-9.7a10.91,10.91,0,0,0-8.58-3.57,12.55,12.55,0,0,0-6.64,1.73l1.17-10.81H537.1v-4.68H516.82l-2,19.78Z"></path><path d="M1078.72,721h29.43v-5h-21.46c-2.84-1.23-4.24-3.46-4.24-6.8,0-4.18,2.12-6.25,6.41-6.25h19.29V697.9h-19.51a6.91,6.91,0,0,1-4.51-2.17,6.64,6.64,0,0,1-1.68-4.63c0-2.28.51-3.9,1.56-4.84a6.87,6.87,0,0,1,4.74-1.45h19.4v-5h-19.73c-6.86.11-10.26,3.4-10.26,9.81a11.66,11.66,0,0,0,1.28,5.57,12.34,12.34,0,0,0,3.46,3.85c-3.18,1.5-4.74,4.29-4.74,8.41a10.87,10.87,0,0,0,3.79,8.7l-3.23.16Zm0-54.36v5.07h29.43v-5.07Zm-5.8,4.74a2.92,2.92,0,0,0,.84-2.23,2.8,2.8,0,0,0-.84-2.23,2.94,2.94,0,0,0-2.06-.78,3.07,3.07,0,0,0-2.06.78,2.8,2.8,0,0,0-.84,2.23,2.92,2.92,0,0,0,.84,2.23,3,3,0,0,0,2.06.72,2.9,2.9,0,0,0,2.06-.72Zm5.8-12.77h29.43v-5.08h-21a8.63,8.63,0,0,1-3.45-2.89,7.35,7.35,0,0,1-1.29-4.29,6,6,0,0,1,1.51-4.46,7.13,7.13,0,0,1,4.74-1.45h19.45v-5H1088.7c-7,.06-10.54,3.18-10.54,9.42a10.67,10.67,0,0,0,4.24,8.81l-3.68.16Zm25.3-70.08v19.9l-11.53-10.59c-5.35-5-10-7.47-13.94-7.47a10,10,0,0,0-7.69,3.18c-1.95,2.17-2.9,5.07-2.9,8.75,0,3.95,1.12,7.07,3.4,9.41a11.47,11.47,0,0,0,8.81,3.57v-5.07a8.25,8.25,0,0,1-6-2.06,7.92,7.92,0,0,1-2.12-5.85,6.65,6.65,0,0,1,2-5,7.1,7.1,0,0,1,5.08-1.84,9.51,9.51,0,0,1,4.45,1.12,30.87,30.87,0,0,1,5.63,4.23l15.27,13.71h3.63v-26Zm-19.28-30.22c-5.74,0-9.92,1.11-12.65,3.12s-4.13,5.13-4.13,9.42,1.4,7.46,4.24,9.47,7.19,3,13,3h6.75c5.57-.06,9.75-1.11,12.59-3.18s4.18-5.12,4.18-9.36-1.45-7.47-4.29-9.47-7.24-3-13.15-3Zm7.86,5c4.12.06,7.19.73,9.08,1.9a6.75,6.75,0,0,1-.17,11.2c-2.06,1.23-5.18,1.89-9.47,1.89H1084c-4-.05-7-.66-9-1.83a6.08,6.08,0,0,1-2.9-5.63,6.15,6.15,0,0,1,3-5.69c2-1.22,5-1.84,9.31-1.84Zm-3.35-36.3v13.26h4.13V527.05Zm-10.53-18.74h29.43v-5h-21.46c-2.84-1.22-4.24-3.45-4.24-6.8,0-4.17,2.12-6.24,6.41-6.24h19.29v-5.07h-19.51a7,7,0,0,1-4.51-2.17,6.64,6.64,0,0,1-1.68-4.63c0-2.28.51-3.9,1.56-4.85a6.92,6.92,0,0,1,4.74-1.44h19.4v-5h-19.73c-6.86.11-10.26,3.4-10.26,9.81a11.66,11.66,0,0,0,1.28,5.57,12.34,12.34,0,0,0,3.46,3.85c-3.18,1.5-4.74,4.29-4.74,8.41a10.89,10.89,0,0,0,3.79,8.7l-3.23.16ZM1108.15,436h-.45a16.85,16.85,0,0,1-6.46,1h-13.55a9.16,9.16,0,0,0-7,3c-1.73,1.9-2.57,4.57-2.57,8a13.78,13.78,0,0,0,1.23,5.91,10.44,10.44,0,0,0,3.23,4.24,6.87,6.87,0,0,0,4.24,1.56v-5.07a4.08,4.08,0,0,1-3.29-1.84,7.27,7.27,0,0,1-1.34-4.52,6.28,6.28,0,0,1,1.56-4.62,5.63,5.63,0,0,1,4.18-1.56h2.34v4.84c0,4.24.84,7.53,2.57,9.87a8.25,8.25,0,0,0,7.13,3.51,8.08,8.08,0,0,0,6.24-2.79,10.52,10.52,0,0,0,2.45-7.13,11.35,11.35,0,0,0-3.62-8.42,8.72,8.72,0,0,0,3.07-.72Zm-5.08,17.67a4.63,4.63,0,0,1-3.73,1.56c-3.62,0-5.46-3.07-5.46-9.25v-3.9H1100a7.11,7.11,0,0,1,3.24,3.06,8.59,8.59,0,0,1,1.22,4.46,6,6,0,0,1-1.34,4.07Zm-24.35-28v5.85l14.55-9.64,14.88,9.92V426l-11-6.8,11-6.79V406.5l-14.88,10-14.55-9.64v5.85l10.76,6.52Zm25.3-63.5v19.89l-11.53-10.59c-5.35-5-10-7.46-13.94-7.46a10,10,0,0,0-7.69,3.17c-1.95,2.18-2.9,5.07-2.9,8.75,0,4,1.12,7.08,3.4,9.42a11.47,11.47,0,0,0,8.81,3.57v-5.07a8.21,8.21,0,0,1-6-2.07,7.89,7.89,0,0,1-2.12-5.85,6.64,6.64,0,0,1,2-5,7.1,7.1,0,0,1,5.08-1.84,9.62,9.62,0,0,1,4.45,1.11,31,31,0,0,1,5.63,4.24l15.27,13.71h3.63v-26ZM1084.74,332c-5.74.06-9.92,1.12-12.65,3.13s-4.13,5.12-4.13,9.41,1.4,7.47,4.24,9.48,7.19,3,13,3h6.75c5.57-.06,9.75-1.12,12.59-3.18s4.18-5.13,4.18-9.36-1.45-7.47-4.29-9.48-7.24-3-13.15-3Zm7.86,5c4.12.06,7.19.72,9.08,1.9a6.75,6.75,0,0,1-.17,11.2c-2.06,1.22-5.18,1.89-9.47,1.89H1084c-4,0-7-.67-9-1.84a6.07,6.07,0,0,1-2.9-5.63,6.13,6.13,0,0,1,3-5.68c2-1.23,5-1.84,9.31-1.84Zm-7.86-36.35c-5.74.05-9.92,1.11-12.65,3.12s-4.13,5.13-4.13,9.42,1.4,7.46,4.24,9.47,7.19,3,13,3h6.75c5.57-.06,9.75-1.11,12.59-3.18s4.18-5.12,4.18-9.36-1.45-7.47-4.29-9.47-7.24-3-13.15-3Zm7.86,5c4.12.06,7.19.73,9.08,1.9a6.75,6.75,0,0,1-.17,11.2c-2.06,1.23-5.18,1.89-9.47,1.89H1084c-4-.05-7-.66-9-1.83a6.08,6.08,0,0,1-2.9-5.63,6.15,6.15,0,0,1,3-5.69c2-1.22,5-1.84,9.31-1.84Z"></path><line class="cls-3" x1="1012.16" y1="264.8" x2="1012.16" y2="757.68"></line><path class="cls-1" d="M784.79,753.79H202.6l-10.4-15.7H794.73ZM776,755.36H211V738.09H776Zm-365.78,0H271.42a3,3,0,1,1,0-5.89H410.19a3,3,0,1,1,0,5.89m308.26,0H579.69a3,3,0,1,1,0-5.89H718.45a3,3,0,1,1,0,5.89"></path><path class="cls-4" d="M784.79,753.79H202.6l-10.4-15.7H794.73l-9.94,15.7ZM776,755.36H211V738.09H776Zm-365.78,0H271.42a3,3,0,1,1,0-5.89H410.19a3,3,0,1,1,0,5.89Zm308.26,0H579.69a3,3,0,1,1,0-5.89H718.45a3,3,0,1,1,0,5.89Z"></path><rect class="cls-1" x="350.88" y="256.39" width="285.19" height="27.04"></rect><rect class="cls-5" x="350.88" y="256.39" width="285.19" height="27.04"></rect><path class="cls-1" d="M668.92,290.05H318a1.76,1.76,0,1,1,0-3.51H668.92a1.76,1.76,0,0,1,0,3.51"></path><path class="cls-5" d="M668.92,290.05H318a1.76,1.76,0,1,1,0-3.51H668.92a1.76,1.76,0,0,1,0,3.51"></path><path class="cls-1" d="M667.58,297.63H319.36c-.95,0-1.73-2.3-1.73-5.11s.78-5.11,1.73-5.11H667.58c1,0,1.74,2.29,1.74,5.11s-.78,5.11-1.74,5.11"></path><path class="cls-5" d="M667.58,297.63H319.36c-.95,0-1.73-2.3-1.73-5.11s.78-5.11,1.73-5.11H667.58c1,0,1.74,2.29,1.74,5.11s-.78,5.11-1.74,5.11Z"></path><rect class="cls-1" x="353.25" y="290.04" width="15.75" height="9.74"></rect><rect class="cls-5" x="353.25" y="290.04" width="15.75" height="9.74"></rect><rect class="cls-1" x="354.61" y="291.39" width="13.05" height="7.04"></rect><rect class="cls-5" x="354.6" y="291.4" width="13.05" height="7.03"></rect><rect class="cls-1" x="356.85" y="299.78" width="9.85" height="7.88"></rect><rect class="cls-5" x="356.85" y="299.78" width="9.84" height="7.87"></rect><rect class="cls-1" x="358.21" y="301.13" width="7.15" height="5.17"></rect><rect class="cls-5" x="358.21" y="301.13" width="7.14" height="5.17"></rect><rect class="cls-1" x="617.41" y="291.79" width="15.75" height="9.74"></rect><rect class="cls-5" x="617.41" y="291.79" width="15.75" height="9.74"></rect><rect class="cls-1" x="618.75" y="293.14" width="13.05" height="7.03"></rect><rect class="cls-5" x="618.75" y="293.14" width="13.05" height="7.03"></rect><rect class="cls-1" x="621.01" y="301.52" width="9.84" height="7.88"></rect><rect class="cls-5" x="621.02" y="301.52" width="9.84" height="7.88"></rect><rect class="cls-1" x="622.37" y="302.88" width="7.14" height="5.17"></rect><path class="cls-5" d="M622.37,308.05h7.14v-5.17h-7.14Zm-260.65,1.34V732.85M625.34,309.39V732.85"></path><polygon class="cls-1" points="486.52 293.14 486.52 308.83 489.9 315.16 498.9 315.16 502.85 308.83 502.85 293.14 486.52 293.14"></polygon><polygon class="cls-4" points="486.52 293.14 486.52 308.83 489.9 315.16 498.9 315.16 502.85 308.83 502.85 293.14 486.52 293.14 486.52 293.14"></polygon></svg> 