<?xml version="1.0" encoding="UTF-8"?> <svg xmlns="http://www.w3.org/2000/svg" id="Livello_1" data-name="Livello 1" viewBox="0 0 1312 1000"><defs><style>.cls-1{fill:#fff;}.cls-2{fill:#231f20;}.cls-3,.cls-4,.cls-5,.cls-6,.cls-7{fill:none;stroke-width:0.25px;}.cls-3{stroke:#000;}.cls-4,.cls-5,.cls-6,.cls-7{stroke:#231f20;stroke-miterlimit:10;}.cls-5{stroke-dasharray:2.57 2.57;}.cls-6{stroke-dasharray:2.65 2.65;}.cls-7{stroke-dasharray:2.58 2.58;}</style></defs><title>XL sosp 120 cilindro</title><rect class="cls-1" width="1312" height="998.95"></rect><path class="cls-2" d="M479.56.6h-1l-19.52,7V15.2l11.15-3.45V47.87h9.36Zm47.1,19.58a30.56,30.56,0,0,0-1.2-9.16,16.26,16.26,0,0,0-3.25-6.24,12.16,12.16,0,0,0-5-3.58A16.93,16.93,0,0,0,510.66,0a17.18,17.18,0,0,0-6.51,1.2,12,12,0,0,0-5,3.58A16.4,16.4,0,0,0,495.92,11a30.58,30.58,0,0,0-1.19,9.16v8.17a30.37,30.37,0,0,0,1.19,9.09,17.79,17.79,0,0,0,3.25,6.31,12.21,12.21,0,0,0,5.05,3.59,17.34,17.34,0,0,0,6.51,1.19,17,17,0,0,0,6.5-1.19,12.21,12.21,0,0,0,5-3.59,17.79,17.79,0,0,0,3.25-6.31,33,33,0,0,0,1.13-9.09Zm-9.36,9.43a23.76,23.76,0,0,1-.47,5.31,10.2,10.2,0,0,1-1.26,3.52,4.66,4.66,0,0,1-2.06,1.92,6.76,6.76,0,0,1-5.57,0,4.66,4.66,0,0,1-2.06-1.92,10.16,10.16,0,0,1-1.33-3.52,30.42,30.42,0,0,1-.4-5.31V18.79a29.68,29.68,0,0,1,.4-5.25,10,10,0,0,1,1.26-3.45,5.58,5.58,0,0,1,2.06-1.92,6.5,6.5,0,0,1,2.79-.54,6.16,6.16,0,0,1,2.79.54,5.24,5.24,0,0,1,2.12,1.92,9.78,9.78,0,0,1,1.26,3.45,23.19,23.19,0,0,1,.47,5.25Zm48,10.69H545l8.3-8.76c1.59-1.66,3.05-3.19,4.32-4.72A32.9,32.9,0,0,0,561,22.37,21.57,21.57,0,0,0,563,18a13.34,13.34,0,0,0,.8-4.58,15.33,15.33,0,0,0-1-5.64,11.21,11.21,0,0,0-3-4.18A13.34,13.34,0,0,0,555,.93,22.22,22.22,0,0,0,548.4,0a17.48,17.48,0,0,0-6.84,1.26,15.21,15.21,0,0,0-5.11,3.32,14.56,14.56,0,0,0-3.32,4.91,16.88,16.88,0,0,0-1.13,6h9.43a9.53,9.53,0,0,1,.46-3.19,7.55,7.55,0,0,1,1.26-2.52,6,6,0,0,1,2.19-1.66,6.56,6.56,0,0,1,2.92-.6,5.77,5.77,0,0,1,4.52,1.79,7.26,7.26,0,0,1,1.59,5,6,6,0,0,1-.33,2.12,11.7,11.7,0,0,1-1,2.39,19.72,19.72,0,0,1-1.93,2.86,40.27,40.27,0,0,1-2.92,3.45L532.93,41.43v6.44h32.4Zm14.56-13.81c.34-.33.67-.6,1.07-.93a5.69,5.69,0,0,1,1.26-.86,10.27,10.27,0,0,1,1.72-.53,7.83,7.83,0,0,1,2.26-.27,9.06,9.06,0,0,1,3.39.6,6.11,6.11,0,0,1,2.32,1.72,5.82,5.82,0,0,1,1.4,2.59,11.39,11.39,0,0,1,.46,3.39,18.37,18.37,0,0,1-.33,3.45,9.06,9.06,0,0,1-1.2,2.79,5.57,5.57,0,0,1-2,1.86,6.09,6.09,0,0,1-3,.66,6.44,6.44,0,0,1-4.65-1.66,6.76,6.76,0,0,1-2.06-4.58H571.2a13.72,13.72,0,0,0,1.46,5.84,13.41,13.41,0,0,0,3.58,4.32,14.91,14.91,0,0,0,5,2.72,19.53,19.53,0,0,0,5.91.93,17.44,17.44,0,0,0,7-1.33,14.1,14.1,0,0,0,5-3.45,14.27,14.27,0,0,0,3-5,19.4,19.4,0,0,0,.93-6A23.35,23.35,0,0,0,602.2,26a14.09,14.09,0,0,0-2.85-5,12.2,12.2,0,0,0-4.52-3.12,15.72,15.72,0,0,0-6.11-1.07,21.79,21.79,0,0,0-2.19.14,17.6,17.6,0,0,0-2,.46c-.6.2-1.13.4-1.6.6a4.8,4.8,0,0,0-1.19.6L582.82,8.5H601.6V.66H575.11l-2.72,24Zm47.83-2.59H609.47v7.5h18.25ZM667.2,40.3H646.88l8.3-8.76c1.6-1.66,3.06-3.19,4.32-4.72a32.08,32.08,0,0,0,3.32-4.45A22.18,22.18,0,0,0,664.88,18a13.33,13.33,0,0,0,.79-4.58,15.54,15.54,0,0,0-1-5.64,11.12,11.12,0,0,0-3-4.18A13.34,13.34,0,0,0,656.91.93,22.22,22.22,0,0,0,650.27,0a17.51,17.51,0,0,0-6.84,1.26,15.21,15.21,0,0,0-5.11,3.32A14.71,14.71,0,0,0,635,9.49a16.88,16.88,0,0,0-1.13,6h9.43a9.53,9.53,0,0,1,.46-3.19A7.38,7.38,0,0,1,645,9.83a5.8,5.8,0,0,1,2.19-1.66,6.5,6.5,0,0,1,2.92-.6,5.77,5.77,0,0,1,4.51,1.79,7.27,7.27,0,0,1,1.6,5,6.05,6.05,0,0,1-.34,2.12,11.7,11.7,0,0,1-1,2.39A19.72,19.72,0,0,1,653,21.71a36.92,36.92,0,0,1-2.92,3.45L634.8,41.43v6.44h32.4Zm37.47-20.12A30.91,30.91,0,0,0,703.48,11a16.27,16.27,0,0,0-3.26-6.24,12.16,12.16,0,0,0-5-3.58,18.23,18.23,0,0,0-13,0,11.91,11.91,0,0,0-5,3.58A16.27,16.27,0,0,0,673.93,11a30.91,30.91,0,0,0-1.19,9.16v8.17a30.69,30.69,0,0,0,1.19,9.09,17.64,17.64,0,0,0,3.26,6.31,12.18,12.18,0,0,0,5,3.59,17.34,17.34,0,0,0,6.51,1.19,17,17,0,0,0,6.5-1.19,12.15,12.15,0,0,0,5-3.59,17.63,17.63,0,0,0,3.25-6.31,33,33,0,0,0,1.13-9.09Zm-9.36,9.43a24.43,24.43,0,0,1-.46,5.31,10.2,10.2,0,0,1-1.27,3.52,4.7,4.7,0,0,1-2.05,1.92,6.79,6.79,0,0,1-5.58,0,4.66,4.66,0,0,1-2.06-1.92,10.36,10.36,0,0,1-1.33-3.52,30.52,30.52,0,0,1-.39-5.31V18.79a29.79,29.79,0,0,1,.39-5.25,9.78,9.78,0,0,1,1.27-3.45,5.56,5.56,0,0,1,2-1.92,6.56,6.56,0,0,1,2.79-.54,6.16,6.16,0,0,1,2.79.54,5.24,5.24,0,0,1,2.12,1.92,9.78,9.78,0,0,1,1.27,3.45,23.84,23.84,0,0,1,.46,5.25Z"></path><path class="cls-2" d="M480.86,132.52a11.22,11.22,0,0,1-3.45-3.12,14.28,14.28,0,0,1-1.86-4.59,23.25,23.25,0,0,1-.6-5.37v-1.33a23.79,23.79,0,0,1,.6-5.38,12.56,12.56,0,0,1,1.93-4.51,9.75,9.75,0,0,1,3.38-3.19A11,11,0,0,1,486,103.9a11.42,11.42,0,0,1,3.72.6,10.12,10.12,0,0,1,3.06,1.86,9.08,9.08,0,0,1,2.12,2.85,9.86,9.86,0,0,1,.86,3.85h3.79a15.69,15.69,0,0,0-1.2-5.18A12.3,12.3,0,0,0,495.4,104a12,12,0,0,0-4.18-2.52,16.27,16.27,0,0,0-11.69.46,13.81,13.81,0,0,0-4.71,3.72A17,17,0,0,0,472,111.2a25.15,25.15,0,0,0-.93,6.91v1.33a25.4,25.4,0,0,0,.93,6.9,17,17,0,0,0,2.85,5.58,13.36,13.36,0,0,0,4.71,3.65A14.17,14.17,0,0,0,486,137a16.27,16.27,0,0,0,5.12-.86,14.38,14.38,0,0,0,4.18-2.39,11.42,11.42,0,0,0,3-3.65,11.91,11.91,0,0,0,1.26-4.58h-3.79a8.29,8.29,0,0,1-.93,3.52,8.42,8.42,0,0,1-5.24,4.11,10.66,10.66,0,0,1-3.59.53,10.29,10.29,0,0,1-5.11-1.12Zm26.59-31.27H503.2L516.41,136l-1.72,4.59a13.51,13.51,0,0,1-1.2,2.78,8.06,8.06,0,0,1-1.59,2,5.86,5.86,0,0,1-2.06,1.19,8.73,8.73,0,0,1-2.79.4,5.16,5.16,0,0,1-.93-.07c-.46-.06-.79-.06-1.06-.13V150a1.87,1.87,0,0,1,.6.14c.26.06.53.06.79.13s.6.06.87.13h.73a8.7,8.7,0,0,0,4.11-.86,11.18,11.18,0,0,0,2.79-2.19,12.59,12.59,0,0,0,1.79-2.79,25.41,25.41,0,0,0,1.13-2.72l14.87-40.63h-4.18l-10.22,29.47Zm35.62-14.74h-3.92V136.3h3.92Zm14.86,14.74H554V136.3h3.92ZM554,93a2.84,2.84,0,0,0,2,.73,2.69,2.69,0,0,0,1.93-.73,2.46,2.46,0,0,0,.73-1.86,2.36,2.36,0,0,0-.73-1.86,2.47,2.47,0,0,0-1.93-.8,2.61,2.61,0,0,0-2,.8,2.57,2.57,0,0,0-.66,1.86A2.69,2.69,0,0,0,554,93Zm14.39,8.3V136.3h3.85v-24a14.83,14.83,0,0,1,1.53-3.06,11.19,11.19,0,0,1,2.19-2.72,11.44,11.44,0,0,1,3-1.86,9.94,9.94,0,0,1,3.78-.66,11.48,11.48,0,0,1,3.45.46,5.76,5.76,0,0,1,2.59,1.53,7.92,7.92,0,0,1,1.66,2.92,15,15,0,0,1,.6,4.58V136.3h3.85V113.46a19,19,0,0,0-.8-5.91,10.92,10.92,0,0,0-2.19-4,8.29,8.29,0,0,0-3.51-2.26,13.11,13.11,0,0,0-4.72-.73,12.34,12.34,0,0,0-3.58.47,14.19,14.19,0,0,0-3.12,1.32,13.82,13.82,0,0,0-2.66,2.13,14.21,14.21,0,0,0-2.06,2.72l-.13-6Zm34.89,17.85a24.62,24.62,0,0,0,.93,7.24,17.52,17.52,0,0,0,2.65,5.64,13.25,13.25,0,0,0,4.25,3.66,12.24,12.24,0,0,0,5.64,1.32,14,14,0,0,0,6.51-1.39,13.41,13.41,0,0,0,4.45-3.92l.13,4.65h3.65V86.51h-3.85v19.65A13.08,13.08,0,0,0,623.2,102a13,13,0,0,0-6.37-1.46,12,12,0,0,0-5.64,1.26,12.58,12.58,0,0,0-4.32,3.59,17.52,17.52,0,0,0-2.65,5.64,25.25,25.25,0,0,0-.93,7.37Zm3.91-.66a25.85,25.85,0,0,1,.6-5.71,14.36,14.36,0,0,1,1.86-4.58,8.94,8.94,0,0,1,3.25-3.05,8.61,8.61,0,0,1,4.65-1.13,12.64,12.64,0,0,1,3.72.53,10.39,10.39,0,0,1,2.85,1.53,8.83,8.83,0,0,1,2.06,2.19,14.16,14.16,0,0,1,1.46,2.59v16.46a14.37,14.37,0,0,1-1.59,2.52,8.78,8.78,0,0,1-2.13,2,10.33,10.33,0,0,1-2.85,1.32,12.36,12.36,0,0,1-3.59.47,9.06,9.06,0,0,1-7.83-4.18,14.42,14.42,0,0,1-1.86-4.59,25.4,25.4,0,0,1-.6-5.71Zm52.35,18A11.07,11.07,0,0,0,663,135.1a11.26,11.26,0,0,0,2.66-1.92,18,18,0,0,0,2.06-2.46l-2.46-1.79a11.43,11.43,0,0,1-4.32,3.59,12.29,12.29,0,0,1-5.51,1.12,11.09,11.09,0,0,1-4.91-1.06,11.65,11.65,0,0,1-3.78-3,13.26,13.26,0,0,1-2.46-4.38,16.32,16.32,0,0,1-.86-5.44V119h25v-2.39a22.41,22.41,0,0,0-.93-6.44,14.38,14.38,0,0,0-2.66-5.11,12.55,12.55,0,0,0-4.38-3.32,13.77,13.77,0,0,0-5.91-1.2,13.07,13.07,0,0,0-5.71,1.26,15.65,15.65,0,0,0-4.78,3.59,16.68,16.68,0,0,0-3.32,5.58,21.32,21.32,0,0,0-1.19,7.36v1.4a19.23,19.23,0,0,0,1.19,6.9,15.51,15.51,0,0,0,3.25,5.45,14.13,14.13,0,0,0,5,3.52A15.2,15.2,0,0,0,655.3,137a16.63,16.63,0,0,0,4.25-.53Zm-.66-31.6a10.78,10.78,0,0,1,3.12,2.52,11.91,11.91,0,0,1,1.85,3.66,15.33,15.33,0,0,1,.74,4.31v.4H643.55a17.87,17.87,0,0,1,1.26-4.85,12.52,12.52,0,0,1,2.32-3.72,11.84,11.84,0,0,1,3.32-2.45,10.65,10.65,0,0,1,4.12-.8,9.84,9.84,0,0,1,4.32.93ZM692.31,101a7,7,0,0,0-1.13-.27,11.82,11.82,0,0,0-1.46-.13,10,10,0,0,0-6,1.66,12.12,12.12,0,0,0-3.92,4.58l-.07-5.57H676V136.3h3.85V112.2a17,17,0,0,1,1.33-3.19,9,9,0,0,1,2.06-2.45A8.31,8.31,0,0,1,686,104.9a10.07,10.07,0,0,1,3.58-.6,16.12,16.12,0,0,1,2.59.2Z"></path><line class="cls-3" x1="1057.8" y1="449.93" x2="1057.8" y2="816.03"></line><path d="M1130.85,653.6l-1-1.28a7.9,7.9,0,0,1-1.37-4.93,6.93,6.93,0,0,1,2.28-5.46,8.73,8.73,0,0,1,6.09-2.07,9.5,9.5,0,0,1,6.26,1.91,6.41,6.41,0,0,1,2.28,5.25,7.11,7.11,0,0,1-1.64,4.93,7.54,7.54,0,0,1-4.88,2.28v4.56a11.1,11.1,0,0,0,7.69-3.6,11.89,11.89,0,0,0,2.76-8.17c0-3.76-1.12-6.68-3.34-8.8s-5.31-3.13-9.18-3.13-7,1-9.23,3a10.38,10.38,0,0,0-3.39,8.17,12,12,0,0,0,1.64,6.31l-10.28-1.11V636.2h-4.46v19.31l18.83,1.9Zm-4.35-47.43c-5.46.05-9.44,1.06-12,3s-3.93,4.88-3.93,9,1.33,7.11,4,9,6.84,2.86,12.36,2.86h6.41c5.31-.05,9.29-1.06,12-3s4-4.88,4-8.91-1.38-7.11-4.09-9-6.89-2.86-12.51-2.86Zm7.48,4.77c3.93.06,6.84.69,8.65,1.81a6.44,6.44,0,0,1-.16,10.66c-2,1.16-4.94,1.8-9,1.8h-7.69c-3.82-.05-6.68-.64-8.54-1.75a5.78,5.78,0,0,1-2.75-5.36,5.85,5.85,0,0,1,2.81-5.41c1.85-1.16,4.77-1.75,8.85-1.75Z"></path><path d="M525.11,994.75l-2.6,5.25h3.23l1.91-3.87a13.47,13.47,0,0,0,4.93.9,12.58,12.58,0,0,0,6.63-1.75,12.41,12.41,0,0,0,4.51-5.09,16.71,16.71,0,0,0,1.59-7.37c0-5.52-1.7-9.65-5-12.31l2.65-5.3h-3.23l-1.86,3.87a12.68,12.68,0,0,0-5.3-1.11,11.94,11.94,0,0,0-11.14,6.89,16.59,16.59,0,0,0-1.59,7.37c0,5.79,1.81,9.92,5.31,12.52Zm1.69-20a6.91,6.91,0,0,1,5.73-2.81,7.11,7.11,0,0,1,3.45.85l-8.86,18c-1.7-2-2.49-4.56-2.49-7.9,0-3.5.69-6.21,2.17-8.12Zm13.68,8a12.38,12.38,0,0,1-2.12,7.64,7.06,7.06,0,0,1-5.78,2.81,7.61,7.61,0,0,1-3.13-.64l8.81-17.82a12.09,12.09,0,0,1,2.22,7.58Zm25.9-24h-.74l-13.74,5.14v4.35l9.65-3.55V996.5h4.83Zm38.78,33.94H586.23l10.08-11c4.77-5.09,7.1-9.55,7.1-13.26a9.51,9.51,0,0,0-3-7.32,12,12,0,0,0-8.33-2.76,12.26,12.26,0,0,0-9,3.24,10.91,10.91,0,0,0-3.39,8.38h4.82a7.9,7.9,0,0,1,2-5.68,7.58,7.58,0,0,1,5.57-2,6.34,6.34,0,0,1,4.78,1.91,6.77,6.77,0,0,1,1.75,4.82,9.17,9.17,0,0,1-1.07,4.25,28.89,28.89,0,0,1-4,5.35l-13,14.53v3.45h24.71Zm28.76-18.35c0-5.47-1.06-9.44-3-12s-4.88-3.93-9-3.93-7.11,1.33-9,4-2.86,6.84-2.86,12.35v6.42c0,5.3,1.06,9.28,3,12s4.88,4,8.91,4,7.11-1.38,9-4.08,2.86-6.9,2.86-12.52Zm-4.77,7.47c-.06,3.93-.69,6.85-1.81,8.65a6.41,6.41,0,0,1-10.65-.16c-1.17-2-1.81-4.93-1.81-9v-7.69c.06-3.81.64-6.68,1.75-8.53a5.78,5.78,0,0,1,5.36-2.76A5.85,5.85,0,0,1,627.4,965c1.16,1.86,1.75,4.77,1.75,8.86Z"></path><line class="cls-3" x1="162.69" y1="909.49" x2="991.68" y2="909.49"></line><path class="cls-1" d="M989.47,821.07H164.9V447.82H989.47ZM231.21,274.44V447.82M926.78,274.44V447.82m-343.56,0H563.93V436.58h19.29Zm-9.65-114V436.58m9.65-101.93H563.93V315.39h19.29ZM613,297.72H534.19V274.44H613Zm-36.57,0h58.67s-13.66,18.46-58.67,17.66h-5.62c-45,.8-58.67-17.66-58.67-17.66h64.29Zm5.63,163H563.92V447.82H582Zm-8.24,0,4.9,5.3"></path><path class="cls-4" d="M989.47,821.07H164.9V447.82H989.47ZM231.21,274.44V447.82M926.78,274.44V447.82m-343.56,0H563.93V436.58h19.29Zm-9.65-114V436.58m9.65-101.93H563.93V315.39h19.29ZM613,297.72H534.19V274.44H613Zm-36.57,0h58.67s-13.66,18.46-58.67,17.66h-5.62c-45,.8-58.67-17.66-58.67-17.66h64.29Zm5.63,163H563.92V447.82H582v12.85Zm-8.24,0,4.9,5.3"></path><line class="cls-5" x1="588.08" y1="475.74" x2="634.25" y2="526.03"></line><path class="cls-1" d="M638.86,530.54l4.81,5.26,7.09,0m4.13,0,7.08,0,4.81,5.26m9.71,10.62L681.3,557l-5.19,4.85m-9.29,8.64-5.21,4.85-4.81-5.26m-9.71-10.62-4.81-5.26.54-7.15m.31-4.15.54-7.13m-70-73.64,0,7.16"></path><path class="cls-4" d="M638.86,530.54l4.81,5.26,7.09,0m4.13,0,7.08,0,4.81,5.26m9.71,10.62L681.3,557l-5.19,4.85m-9.29,8.64-5.21,4.85-4.81-5.26m-9.71-10.62-4.81-5.26.54-7.15m.31-4.15.54-7.13m-70-73.64,0,7.16"></path><line class="cls-6" x1="572.99" y1="482.18" x2="572.99" y2="552.45"></line><path class="cls-1" d="M573.19,558.36l0,7.17,4.93,4.86m2.87,2.82,5,4.87,0,7.17m.08,14.48,0,7.18-6.69,0m-12,.06-6.72,0,0-7.17m-.07-14.48,0-7.17,4.89-4.92m2.85-2.84,4.9-4.92M571,462.73l-4.2,5.61"></path><path class="cls-4" d="M573.19,558.36l0,7.17,4.93,4.86m2.87,2.82,5,4.87,0,7.17m.08,14.48,0,7.18-6.69,0m-12,.06-6.72,0,0-7.17m-.07-14.48,0-7.17,4.89-4.92m2.85-2.84,4.9-4.92M571,462.73l-4.2,5.61"></path><line class="cls-7" x1="557.56" y1="478.44" x2="515.39" y2="532.18"></line><path class="cls-1" d="M509.82,538.41l-4.28,5.43,1,6.85m.58,4,1,6.85L503.9,567m-8.64,11L491,583.35,485.62,579m-9.56-7.69L470.68,567l4.28-5.43m8.65-11,4.26-5.42,6.85-.54m4-.31,6.84-.53"></path><path class="cls-4" d="M509.82,538.41l-4.28,5.43,1,6.85m.59,4,1,6.85L503.89,567m-8.64,11L491,583.35,485.62,579m-9.56-7.69L470.68,567l4.28-5.43m8.64-11,4.27-5.42,6.85-.54m4-.31,6.85-.53"></path></svg> 