<?xml version="1.0" encoding="UTF-8"?> <svg xmlns="http://www.w3.org/2000/svg" id="Livello_1" data-name="Livello 1" viewBox="0 0 1312 998.95"><defs><style>.cls-1{fill:#fff;}.cls-2{fill:#231f20;}.cls-3,.cls-4{fill:none;stroke-width:0.25px;}.cls-3{stroke:#000;}.cls-4{stroke:#231f20;stroke-miterlimit:10;}</style></defs><title>XL sosp 250 rectangular</title><rect class="cls-1" width="1312" height="998.95"></rect><path class="cls-2" d="M505.52.59h-1l-19.34,7v7.5l11.05-3.43V47.43h9.27ZM552.2,20A30.39,30.39,0,0,0,551,10.92a16.16,16.16,0,0,0-3.22-6.18,12.08,12.08,0,0,0-5-3.56A16.81,16.81,0,0,0,536.34,0a17.06,17.06,0,0,0-6.45,1.18A11.93,11.93,0,0,0,525,4.74a16.16,16.16,0,0,0-3.22,6.18A30.39,30.39,0,0,0,520.55,20v8.09a30.18,30.18,0,0,0,1.19,9A17.45,17.45,0,0,0,525,43.35a12.08,12.08,0,0,0,5,3.56,17,17,0,0,0,6.45,1.18,16.81,16.81,0,0,0,6.45-1.18,12.11,12.11,0,0,0,5-3.56,17.31,17.31,0,0,0,3.23-6.25,32.82,32.82,0,0,0,1.12-9Zm-9.28,9.34a23.88,23.88,0,0,1-.46,5.26,10,10,0,0,1-1.25,3.49,4.77,4.77,0,0,1-2,1.91,6.77,6.77,0,0,1-5.53,0,4.75,4.75,0,0,1-2-1.91,10,10,0,0,1-1.32-3.49,29.72,29.72,0,0,1-.4-5.26V18.62a29.07,29.07,0,0,1,.4-5.2A9.69,9.69,0,0,1,531.54,10a5.59,5.59,0,0,1,2-1.91,6.53,6.53,0,0,1,2.76-.52,6.21,6.21,0,0,1,2.77.52,5.3,5.3,0,0,1,2.1,1.91,9.69,9.69,0,0,1,1.25,3.42,23.36,23.36,0,0,1,.46,5.2Zm25-2.17h4.94a12.08,12.08,0,0,1,3.22.4,9.21,9.21,0,0,1,2.44,1.25A6.55,6.55,0,0,1,580,31a9.41,9.41,0,0,1,.52,3.22,6.93,6.93,0,0,1-.52,2.63,4.55,4.55,0,0,1-1.38,2,5.11,5.11,0,0,1-2.24,1.31,8.22,8.22,0,0,1-3,.46,7.27,7.27,0,0,1-2.7-.46,5.81,5.81,0,0,1-2.17-1.25,5.33,5.33,0,0,1-2-4.28h-9.28a12.19,12.19,0,0,0,1.38,6,12.51,12.51,0,0,0,3.62,4.21,15.81,15.81,0,0,0,5.07,2.5,21.83,21.83,0,0,0,5.85.79,23.46,23.46,0,0,0,6.58-.92,15.16,15.16,0,0,0,5.26-2.7,12.25,12.25,0,0,0,3.49-4.27,13.92,13.92,0,0,0,1.25-5.86,11.58,11.58,0,0,0-2-6.71A11.43,11.43,0,0,0,582,23.42a15.55,15.55,0,0,0,3-1.91,14.66,14.66,0,0,0,2.23-2.37,12.31,12.31,0,0,0,1.39-2.82,11.76,11.76,0,0,0,.46-3,13.55,13.55,0,0,0-1.19-5.79,11.77,11.77,0,0,0-3.22-4.15,14.87,14.87,0,0,0-5-2.56A24.48,24.48,0,0,0,573.21,0a19.7,19.7,0,0,0-6,.92,16,16,0,0,0-4.87,2.57,12.92,12.92,0,0,0-3.29,4,11.68,11.68,0,0,0-1.19,5.26h9.28a4.8,4.8,0,0,1,.53-2.17A4.58,4.58,0,0,1,569,9a5.51,5.51,0,0,1,2-1.06,6.93,6.93,0,0,1,2.37-.39,7.27,7.27,0,0,1,2.83.46,4.94,4.94,0,0,1,2,1.25,4.78,4.78,0,0,1,1.19,1.91,6.93,6.93,0,0,1,.39,2.37,6.48,6.48,0,0,1-1.71,4.67,7.07,7.07,0,0,1-5.26,1.77h-4.94ZM623.63.66h-9.4L594.75,31.45l.4,5.85h19.21V47.43h9.27V37.3h5.27V29.8h-5.27ZM613.7,14.41l.66-1.12V29.8H604Zm38.65,9.27h-18.1v7.44h18.1Zm39.12,16.25H671.33l8.23-8.68c1.58-1.65,3-3.16,4.27-4.67a31.5,31.5,0,0,0,3.29-4.41,21.23,21.23,0,0,0,2-4.34,13.1,13.1,0,0,0,.79-4.54,15.52,15.52,0,0,0-1-5.59,11.16,11.16,0,0,0-3-4.15A13.14,13.14,0,0,0,681.27.92,22.15,22.15,0,0,0,674.69,0a17.21,17.21,0,0,0-6.78,1.25,15,15,0,0,0-5.06,3.29,14.46,14.46,0,0,0-3.29,4.87,16.54,16.54,0,0,0-1.12,6h9.34a9.32,9.32,0,0,1,.46-3.15,7.43,7.43,0,0,1,1.25-2.5,6,6,0,0,1,2.17-1.65,6.58,6.58,0,0,1,2.9-.59A5.67,5.67,0,0,1,679,9.28a7.17,7.17,0,0,1,1.58,4.93,6.22,6.22,0,0,1-.33,2.11,11.51,11.51,0,0,1-1,2.36,18.67,18.67,0,0,1-1.9,2.83,36.65,36.65,0,0,1-2.9,3.42L659.36,41.05v6.38h32.11ZM728.6,20a30.39,30.39,0,0,0-1.19-9.08,16.16,16.16,0,0,0-3.22-6.18,12.08,12.08,0,0,0-5-3.56,18.19,18.19,0,0,0-12.89,0,11.9,11.9,0,0,0-4.94,3.56,16.16,16.16,0,0,0-3.22,6.18A30.39,30.39,0,0,0,697,20v8.09a30.18,30.18,0,0,0,1.19,9,17.45,17.45,0,0,0,3.22,6.25,12.08,12.08,0,0,0,5,3.56,17.06,17.06,0,0,0,6.45,1.18,16.81,16.81,0,0,0,6.45-1.18,12.21,12.21,0,0,0,5-3.56,17.45,17.45,0,0,0,3.22-6.25,32.82,32.82,0,0,0,1.12-9Zm-9.28,9.34a23.88,23.88,0,0,1-.46,5.26,10,10,0,0,1-1.25,3.49,4.77,4.77,0,0,1-2,1.91,6.75,6.75,0,0,1-5.52,0,4.71,4.71,0,0,1-2-1.91,10,10,0,0,1-1.32-3.49,29.83,29.83,0,0,1-.39-5.26V18.62a29.18,29.18,0,0,1,.39-5.2A9.69,9.69,0,0,1,707.94,10a5.59,5.59,0,0,1,2-1.91,6.56,6.56,0,0,1,2.76-.52,6.18,6.18,0,0,1,2.77.52,5.3,5.3,0,0,1,2.1,1.91,9.69,9.69,0,0,1,1.25,3.42,23.36,23.36,0,0,1,.46,5.2Z"></path><path class="cls-2" d="M463.67,100.07a6.8,6.8,0,0,0-1.12-.27,11.67,11.67,0,0,0-1.44-.13,10,10,0,0,0-5.93,1.65,12,12,0,0,0-3.88,4.54l-.06-5.53h-3.75v34.74h3.81V111.19a16.43,16.43,0,0,1,1.32-3.16,9.27,9.27,0,0,1,2-2.44,8.33,8.33,0,0,1,2.76-1.64,9.94,9.94,0,0,1,3.55-.59,15.82,15.82,0,0,1,2.57.19Zm23.6,35.13a11.49,11.49,0,0,0,3.42-1.32,10.77,10.77,0,0,0,2.63-1.91,17,17,0,0,0,2-2.43l-2.43-1.78a11.4,11.4,0,0,1-4.28,3.56,12.1,12.1,0,0,1-5.46,1.11,10.88,10.88,0,0,1-4.87-1.05,11.58,11.58,0,0,1-3.75-3,13.28,13.28,0,0,1-2.43-4.34,16.07,16.07,0,0,1-.86-5.39V118h24.8v-2.37a22.1,22.1,0,0,0-.92-6.38,14.09,14.09,0,0,0-2.63-5.06,12.53,12.53,0,0,0-4.34-3.29,13.69,13.69,0,0,0-5.86-1.19,13,13,0,0,0-5.65,1.25,15.52,15.52,0,0,0-4.74,3.55,16.59,16.59,0,0,0-3.29,5.53,21.25,21.25,0,0,0-1.18,7.3v1.39a19.19,19.19,0,0,0,1.18,6.84,15.27,15.27,0,0,0,3.22,5.39,13.9,13.9,0,0,0,4.94,3.49,15,15,0,0,0,6.25,1.31,16.33,16.33,0,0,0,4.21-.52Zm-.66-31.32a10.61,10.61,0,0,1,3.09,2.5,11.79,11.79,0,0,1,1.84,3.62,15.48,15.48,0,0,1,.73,4.28v.39H471.41a18,18,0,0,1,1.25-4.8,12,12,0,0,1,2.31-3.68,11.22,11.22,0,0,1,3.29-2.44,10.4,10.4,0,0,1,4.07-.79,9.77,9.77,0,0,1,4.28.92Zm24.7,27.44a11.05,11.05,0,0,1-3.42-3.1,13.88,13.88,0,0,1-1.84-4.54,23.38,23.38,0,0,1-.59-5.32V117a23.92,23.92,0,0,1,.59-5.33,12.33,12.33,0,0,1,1.91-4.47,9.58,9.58,0,0,1,3.35-3.16,10.94,10.94,0,0,1,5.07-1.12,11.49,11.49,0,0,1,3.68.59,10.15,10.15,0,0,1,3,1.85,9.12,9.12,0,0,1,2.1,2.82,9.89,9.89,0,0,1,.86,3.82h3.75a15.57,15.57,0,0,0-1.18-5.13,12.27,12.27,0,0,0-2.9-3.88,11.93,11.93,0,0,0-4.14-2.5A16.11,16.11,0,0,0,510,101a13.67,13.67,0,0,0-4.67,3.68,16.91,16.91,0,0,0-2.83,5.53,25,25,0,0,0-.92,6.84v1.32a25.41,25.41,0,0,0,.92,6.84,16.86,16.86,0,0,0,2.83,5.52,13.23,13.23,0,0,0,4.67,3.62,14,14,0,0,0,6.38,1.38,15.84,15.84,0,0,0,5.06-.85,14,14,0,0,0,4.15-2.37,11.21,11.21,0,0,0,3-3.62,11.66,11.66,0,0,0,1.25-4.54h-3.75a8.29,8.29,0,0,1-.92,3.49A10.36,10.36,0,0,1,523,130.4a10.24,10.24,0,0,1-3,1.51,10.68,10.68,0,0,1-3.55.52,10.13,10.13,0,0,1-5.07-1.11ZM539.5,91.38v9h-6.38v3.16h6.38v23.16a13.69,13.69,0,0,0,.6,4.34,7.47,7.47,0,0,0,1.57,2.76,5.09,5.09,0,0,0,2.37,1.51,9.12,9.12,0,0,0,3,.46c.79,0,1.51-.06,2.3-.13a10.06,10.06,0,0,0,1.84-.46L551,132c-.4.07-.92.13-1.45.2a14.54,14.54,0,0,1-1.65.06,7.29,7.29,0,0,1-1.71-.19,2.91,2.91,0,0,1-1.44-.79,4,4,0,0,1-1-1.78,8.84,8.84,0,0,1-.39-2.89V103.49h7.17v-3.16h-7.17v-9Zm45,43.69v-.4a12,12,0,0,1-.46-1.45c-.13-.52-.2-1.11-.33-1.71s-.13-1.18-.2-1.84-.06-1.25-.06-1.84V111a12.37,12.37,0,0,0-.93-4.94,9.59,9.59,0,0,0-2.63-3.55,11.38,11.38,0,0,0-3.94-2.1,18.09,18.09,0,0,0-10.6.13,15.25,15.25,0,0,0-4.21,2.3,10.62,10.62,0,0,0-2.69,3.29,7.51,7.51,0,0,0-.93,3.75l3.82.07a5.8,5.8,0,0,1,.72-2.77,7.48,7.48,0,0,1,1.91-2.23,8.8,8.8,0,0,1,3-1.45,11,11,0,0,1,3.69-.59c3,0,5.19.72,6.71,2.17a7.57,7.57,0,0,1,2.3,5.85v4h-7.11a28.92,28.92,0,0,0-6.64.72,15.23,15.23,0,0,0-5,2.24,9.87,9.87,0,0,0-3.16,3.42,9.75,9.75,0,0,0-1,4.61,9.48,9.48,0,0,0,.79,3.88,9.16,9.16,0,0,0,2.24,3.16,10.61,10.61,0,0,0,3.55,2.1,14.69,14.69,0,0,0,4.6.72,17,17,0,0,0,3.82-.46,21.85,21.85,0,0,0,3.29-1.18,12.15,12.15,0,0,0,2.63-1.78,10.11,10.11,0,0,0,2-2.1c.07.92.13,1.77.26,2.7a9,9,0,0,0,.53,2.17Zm-19.41-3.29a7.79,7.79,0,0,1-2.5-1.45,5.63,5.63,0,0,1-1.51-2.17,5.86,5.86,0,0,1-.59-2.63,6.5,6.5,0,0,1,.85-3.23,6.87,6.87,0,0,1,2.5-2.43,12,12,0,0,1,4-1.51,21,21,0,0,1,5.26-.53h6.58v7.63a11.83,11.83,0,0,1-1.71,2.7,11.77,11.77,0,0,1-5.72,3.62,14.57,14.57,0,0,1-3.89.52,9.7,9.7,0,0,1-3.22-.52Zm28.58-31.45v34.74h3.82V111.25a14.28,14.28,0,0,1,1.51-3,11,11,0,0,1,2.17-2.69,11.27,11.27,0,0,1,3-1.84,9.6,9.6,0,0,1,3.75-.66,11.28,11.28,0,0,1,3.42.46,5.65,5.65,0,0,1,2.57,1.51,7.87,7.87,0,0,1,1.65,2.9,15,15,0,0,1,.59,4.54v22.63H620V112.44a19,19,0,0,0-.79-5.86,10.76,10.76,0,0,0-2.17-4,8.12,8.12,0,0,0-3.48-2.23,12.87,12.87,0,0,0-4.67-.73,12.55,12.55,0,0,0-3.56.46,14.38,14.38,0,0,0-3.09,1.32,13.48,13.48,0,0,0-2.63,2.1,13.68,13.68,0,0,0-2,2.7l-.13-5.92ZM628.29,118a24.86,24.86,0,0,0,.92,7.17,16.35,16.35,0,0,0,2.64,5.59,13,13,0,0,0,4.21,3.62,11.92,11.92,0,0,0,5.59,1.31,13.86,13.86,0,0,0,6.38-1.38,12,12,0,0,0,4.34-3.75v4a14.6,14.6,0,0,1-.66,4.67,8.87,8.87,0,0,1-2,3.42,8,8,0,0,1-3.22,2.23,12.29,12.29,0,0,1-4.34.73,11.4,11.4,0,0,1-5.2-1.19,15,15,0,0,1-4.54-3.81l-2.1,2.3a11.27,11.27,0,0,0,2.43,2.63,16.66,16.66,0,0,0,3,1.84,18.23,18.23,0,0,0,3.29,1.12,14.06,14.06,0,0,0,3.35.33,16.06,16.06,0,0,0,5.73-1,12.38,12.38,0,0,0,4.4-2.83,13.16,13.16,0,0,0,2.77-4.54,17.64,17.64,0,0,0,1.05-6.06V100.33H652.7l-.2,5a12.51,12.51,0,0,0-4.4-4.14,13.81,13.81,0,0,0-12-.27,12.79,12.79,0,0,0-4.21,3.55,16.4,16.4,0,0,0-2.64,5.6,25.46,25.46,0,0,0-.92,7.3Zm3.88-.66a25.46,25.46,0,0,1,.6-5.66,14.2,14.2,0,0,1,1.84-4.54,8.86,8.86,0,0,1,3.22-3,8.55,8.55,0,0,1,4.61-1.12,12.38,12.38,0,0,1,3.68.52,9.61,9.61,0,0,1,4.87,3.69,11.24,11.24,0,0,1,1.38,2.63V126a12.4,12.4,0,0,1-1.51,2.56,8.61,8.61,0,0,1-2.11,2,10.2,10.2,0,0,1-2.83,1.38,11.84,11.84,0,0,1-3.55.46,9,9,0,0,1-4.54-1.12,8.8,8.8,0,0,1-3.22-3,14.11,14.11,0,0,1-1.84-4.54,24.92,24.92,0,0,1-.6-5.65Zm56.55,17.7h3.75V100.33h-3.88v25.13a13,13,0,0,1-1.32,2.76,7.42,7.42,0,0,1-2.11,2.18,9,9,0,0,1-3.09,1.44,14.59,14.59,0,0,1-4.08.53,9.77,9.77,0,0,1-3.09-.46,6.27,6.27,0,0,1-2.56-1.65,8,8,0,0,1-1.72-3,15.82,15.82,0,0,1-.65-4.67v-22.3h-3.82v22.24a18,18,0,0,0,.86,6.05,10.57,10.57,0,0,0,2.3,4.08,9.58,9.58,0,0,0,3.62,2.3,16.36,16.36,0,0,0,11.38-.66,11.16,11.16,0,0,0,4.34-3.68Zm18-49.35h-3.88v49.35h3.88Zm36.43,49.35v-.4a12,12,0,0,1-.46-1.45c-.13-.52-.2-1.11-.33-1.71s-.13-1.18-.2-1.84-.06-1.25-.06-1.84V111a12.55,12.55,0,0,0-.92-4.94,9.72,9.72,0,0,0-2.64-3.55,11.29,11.29,0,0,0-3.94-2.1,18.06,18.06,0,0,0-10.59.13,15.17,15.17,0,0,0-4.22,2.3,10.91,10.91,0,0,0-2.69,3.29,7.5,7.5,0,0,0-.92,3.75l3.81.07a5.81,5.81,0,0,1,.73-2.77,7.44,7.44,0,0,1,1.9-2.23,8.8,8.8,0,0,1,3-1.45,11,11,0,0,1,3.69-.59q4.44,0,6.71,2.17a7.57,7.57,0,0,1,2.3,5.85v4h-7.1a29.07,29.07,0,0,0-6.65.72,15.23,15.23,0,0,0-5,2.24,9.87,9.87,0,0,0-3.16,3.42,9.75,9.75,0,0,0-1.05,4.61,9.48,9.48,0,0,0,.79,3.88,9.3,9.3,0,0,0,2.24,3.16,10.61,10.61,0,0,0,3.55,2.1,14.7,14.7,0,0,0,4.61.72,16.85,16.85,0,0,0,3.81-.46,21.46,21.46,0,0,0,3.29-1.18,12.15,12.15,0,0,0,2.63-1.78,9.86,9.86,0,0,0,2-2.1c.07.92.13,1.77.26,2.7a9.44,9.44,0,0,0,.53,2.17Zm-19.41-3.29a8,8,0,0,1-2.5-1.45,5.63,5.63,0,0,1-1.51-2.17,5.86,5.86,0,0,1-.59-2.63,6.61,6.61,0,0,1,.85-3.23,6.87,6.87,0,0,1,2.5-2.43,12,12,0,0,1,3.95-1.51,21,21,0,0,1,5.26-.53h6.58v7.63a11.83,11.83,0,0,1-1.71,2.7,11.77,11.77,0,0,1-5.72,3.62,14.55,14.55,0,0,1-3.88.52,9.72,9.72,0,0,1-3.23-.52Zm44.77-31.71a6.8,6.8,0,0,0-1.12-.27,11.83,11.83,0,0,0-1.45-.13,10,10,0,0,0-5.92,1.65,12,12,0,0,0-3.88,4.54l-.06-5.53h-3.75v34.74h3.81V111.19a16.43,16.43,0,0,1,1.32-3.16,9.09,9.09,0,0,1,2-2.44,8.33,8.33,0,0,1,2.76-1.64,9.94,9.94,0,0,1,3.55-.59,15.91,15.91,0,0,1,2.57.19Z"></path><line class="cls-3" x1="1150.72" y1="413.18" x2="1150.72" y2="757.86"></line><path d="M1223.8,612.43v-3.57c.06-2.52.63-4.47,1.79-5.78a6.16,6.16,0,0,1,5-2,6.9,6.9,0,0,1,5.15,1.79,8.53,8.53,0,0,1,0,10.46,6,6,0,0,1-4.67,1.89V620a9.41,9.41,0,0,0,7.51-3.31,14.06,14.06,0,0,0-.1-17.08,10.2,10.2,0,0,0-8-3.31A9.18,9.18,0,0,0,1225,598a9.58,9.58,0,0,0-3.21,4.78,9.63,9.63,0,0,0-3.41-4.3,8.18,8.18,0,0,0-4.73-1.58,10.24,10.24,0,0,0-7.83,3c-1.84,2-2.79,4.79-2.79,8.31a11.91,11.91,0,0,0,3,8.25,9.53,9.53,0,0,0,7.35,3.26V614.9a6.05,6.05,0,0,1-4.62-1.78,6.79,6.79,0,0,1-1.79-4.94c0-4.36,2.21-6.57,6.57-6.57a6,6,0,0,1,4.68,1.94,8.06,8.06,0,0,1,1.79,5.31v3.57Zm-5-46.1c-5.41,0-9.35,1-11.93,2.94s-3.89,4.84-3.89,8.88,1.32,7.05,4,8.94,6.78,2.84,12.24,2.84h6.36c5.26-.06,9.2-1,11.88-3s3.94-4.83,3.94-8.83-1.37-7-4.05-8.93-6.83-2.84-12.4-2.84Zm7.41,4.73c3.89.05,6.78.68,8.57,1.79a6.37,6.37,0,0,1-.16,10.56c-1.94,1.16-4.89,1.79-8.93,1.79h-7.62c-3.79-.06-6.63-.63-8.46-1.74a5.72,5.72,0,0,1-2.74-5.31,5.8,5.8,0,0,1,2.79-5.36c1.84-1.15,4.73-1.73,8.77-1.73Z"></path><path d="M469,943H450.2l10-10.87c4.73-5,7-9.46,7-13.14a9.38,9.38,0,0,0-3-7.25A11.85,11.85,0,0,0,456,909a12.15,12.15,0,0,0-8.88,3.21,10.81,10.81,0,0,0-3.36,8.3h4.78a7.77,7.77,0,0,1,2-5.62,7.47,7.47,0,0,1,5.51-2,6.25,6.25,0,0,1,4.73,1.89,6.69,6.69,0,0,1,1.74,4.79,9.08,9.08,0,0,1-1.05,4.2,29.39,29.39,0,0,1-4,5.31l-12.92,14.4v3.41H469ZM480,929.15l1.26-1a7.83,7.83,0,0,1,4.88-1.36,6.87,6.87,0,0,1,5.42,2.26,8.7,8.7,0,0,1,2.05,6,9.34,9.34,0,0,1-1.9,6.2,6.37,6.37,0,0,1-5.2,2.26,7.09,7.09,0,0,1-4.89-1.63,7.56,7.56,0,0,1-2.26-4.83h-4.51a11,11,0,0,0,3.57,7.62,11.78,11.78,0,0,0,8.09,2.73c3.73,0,6.62-1.1,8.72-3.31s3.11-5.26,3.11-9.09-1-6.89-3-9.15a10.28,10.28,0,0,0-8.09-3.36,11.86,11.86,0,0,0-6.26,1.63l1.11-10.2h15.13v-4.41H478.12l-1.89,18.66Zm47-4.31c0-5.41-1-9.35-2.94-11.93s-4.84-3.89-8.88-3.89-7,1.32-8.94,4-2.83,6.78-2.83,12.24v6.36c.05,5.26,1.05,9.2,3,11.88s4.84,3.94,8.83,3.94,7-1.37,8.93-4.05S527,936.56,527,931Zm-4.73,7.41c0,3.89-.68,6.78-1.78,8.57a6.38,6.38,0,0,1-10.57-.16c-1.15-1.94-1.78-4.89-1.78-8.93v-7.62c.05-3.79.63-6.62,1.73-8.46a5.72,5.72,0,0,1,5.31-2.74,5.8,5.8,0,0,1,5.36,2.79c1.15,1.84,1.73,4.73,1.73,8.77Zm15.26-22.7h-5.78l11.82,18.55-12.09,18.81h5.84l9.19-14.55,9.2,14.55h5.89L549.52,928.1l11.77-18.55h-5.78l-9,14.29ZM573,929.83h3.57a8.9,8.9,0,0,1,5.78,1.79,6.16,6.16,0,0,1,2,5,6.88,6.88,0,0,1-1.79,5.15,8.53,8.53,0,0,1-10.46,0,6,6,0,0,1-1.89-4.67h-4.78a9.41,9.41,0,0,0,3.31,7.51,14.06,14.06,0,0,0,17.08-.1,10.23,10.23,0,0,0,3.31-8,9.18,9.18,0,0,0-1.68-5.52,9.49,9.49,0,0,0-4.79-3.2,9.69,9.69,0,0,0,4.31-3.42,8.23,8.23,0,0,0,1.58-4.73,10.21,10.21,0,0,0-3-7.83c-2-1.84-4.78-2.79-8.3-2.79a11.91,11.91,0,0,0-8.25,3,9.53,9.53,0,0,0-3.26,7.35h4.79a6.05,6.05,0,0,1,1.78-4.62,6.79,6.79,0,0,1,4.94-1.79c4.36,0,6.57,2.21,6.57,6.57a6,6,0,0,1-1.94,4.68,8,8,0,0,1-5.31,1.79H573Zm46.1-5c-.05-5.41-1.05-9.35-2.94-11.93S611.3,909,607.25,909s-7,1.32-8.93,4-2.84,6.78-2.84,12.24v6.36c.06,5.26,1,9.2,3,11.88s4.83,3.94,8.83,3.94,7-1.37,8.93-4.05,2.84-6.83,2.84-12.4Zm-4.73,7.41c-.05,3.89-.68,6.78-1.79,8.57a6.37,6.37,0,0,1-10.56-.16c-1.16-1.94-1.79-4.89-1.79-8.93v-7.62c.06-3.79.63-6.62,1.74-8.46a5.72,5.72,0,0,1,5.3-2.74,5.79,5.79,0,0,1,5.36,2.79c1.16,1.84,1.74,4.73,1.74,8.77Z"></path><line class="cls-3" x1="84.95" y1="854.48" x2="1090.46" y2="854.48"></line><path class="cls-1" d="M1088.27,755.66H70.59v-327H1088.27ZM274.34,276.74V428.65M884.52,276.74V428.65m-301.38,0H566.22V418.8h16.92Zm-8.47-99.86v90m8.47-89.31H566.22V312.61h16.92Zm26.08-32.35H540.13V276.75h69.09Zm-32.08,0h51.47s-12,16.17-51.47,15.47h-4.93c-39.49.7-51.47-15.47-51.47-15.47h56.4Z"></path><path class="cls-4" d="M1088.27,755.66H70.59v-327H1088.27ZM274.34,276.74V428.65M884.52,276.74V428.65m-301.38,0H566.22V418.8h16.92Zm-8.47-99.86v90m8.47-89.31H566.22V312.61h16.92Zm26.08-32.35H540.13V276.75h69.09Zm-32.08,0h51.47s-12,16.17-51.47,15.47h-4.93c-39.49.7-51.47-15.47-51.47-15.47h56.4Z"></path></svg> 