<?xml version="1.0" encoding="UTF-8"?> <svg xmlns="http://www.w3.org/2000/svg" id="Livello_1" data-name="Livello 1" viewBox="0 0 1312 1000"><defs><style>.cls-1{fill:#fff;}.cls-2{fill:#231f20;}.cls-3,.cls-4,.cls-5,.cls-6,.cls-7,.cls-8,.cls-9{fill:none;stroke-width:0.25px;}.cls-3{stroke:#000;}.cls-4,.cls-5,.cls-6,.cls-7,.cls-8,.cls-9{stroke:#231f20;stroke-miterlimit:10;}.cls-5{stroke-dasharray:2.61 2.61;}.cls-6{stroke-dasharray:2.65 2.65;}.cls-7{stroke-dasharray:2.68 2.68;}.cls-8{stroke-dasharray:2.61 2.61;}.cls-9{stroke-dasharray:2.65 2.65;}</style></defs><title>XL sosp 150 cilindro</title><rect class="cls-1" width="1312" height="998.95"></rect><path class="cls-2" d="M466.57.6h-1l-19.52,7V15.2l11.16-3.45V47.87h9.36Zm47.09,19.58A30.58,30.58,0,0,0,512.47,11a16.4,16.4,0,0,0-3.25-6.24,12.19,12.19,0,0,0-5.05-3.58,16.84,16.84,0,0,0-6.5-1.2,17.11,17.11,0,0,0-6.51,1.2,11.91,11.91,0,0,0-5,3.58A16.4,16.4,0,0,0,482.93,11a30.56,30.56,0,0,0-1.2,9.16v8.17a30.34,30.34,0,0,0,1.2,9.09,17.63,17.63,0,0,0,3.25,6.31,12.15,12.15,0,0,0,5.05,3.59,18.37,18.37,0,0,0,13,0,12.18,12.18,0,0,0,5-3.59,17.64,17.64,0,0,0,3.26-6.31,33,33,0,0,0,1.12-9.09Zm-9.36,9.43a24.43,24.43,0,0,1-.46,5.31,10.41,10.41,0,0,1-1.26,3.52,4.66,4.66,0,0,1-2.06,1.92,6.79,6.79,0,0,1-5.58,0,4.77,4.77,0,0,1-2.06-1.92,10.37,10.37,0,0,1-1.32-3.52,29.47,29.47,0,0,1-.4-5.31V18.79a28.76,28.76,0,0,1,.4-5.25,9.78,9.78,0,0,1,1.26-3.45,5.58,5.58,0,0,1,2.06-1.92,6.5,6.5,0,0,1,2.79-.54,6.09,6.09,0,0,1,2.78.54,5.27,5.27,0,0,1,2.13,1.92,10,10,0,0,1,1.26,3.45,23.84,23.84,0,0,1,.46,5.25Zm25.19-2.19h5a12.34,12.34,0,0,1,3.26.4,9.44,9.44,0,0,1,2.45,1.26,6.49,6.49,0,0,1,1.53,2.19,9.58,9.58,0,0,1,.53,3.25,7.09,7.09,0,0,1-.53,2.66,4.6,4.6,0,0,1-1.39,2,5.15,5.15,0,0,1-2.26,1.33,8.35,8.35,0,0,1-3,.46,7.37,7.37,0,0,1-2.72-.46,6.06,6.06,0,0,1-2.19-1.26,5.61,5.61,0,0,1-1.46-1.86,5.85,5.85,0,0,1-.53-2.46h-9.36a12.31,12.31,0,0,0,1.39,6,12.52,12.52,0,0,0,3.65,4.25A15.85,15.85,0,0,0,529,47.73a21.93,21.93,0,0,0,5.91.8,23.52,23.52,0,0,0,6.64-.93,15.52,15.52,0,0,0,5.31-2.72,12.42,12.42,0,0,0,3.52-4.32,13.93,13.93,0,0,0,1.26-5.9,11.65,11.65,0,0,0-2-6.78,11.49,11.49,0,0,0-5.91-4.25,15.83,15.83,0,0,0,3.06-1.92A15.34,15.34,0,0,0,549,19.32a12.42,12.42,0,0,0,1.4-2.86,11.84,11.84,0,0,0,.46-3,13.86,13.86,0,0,0-1.19-5.85,12,12,0,0,0-3.26-4.18,15.12,15.12,0,0,0-5-2.59A25,25,0,0,0,534.87,0a19.79,19.79,0,0,0-6,.93,16.51,16.51,0,0,0-4.91,2.59,13,13,0,0,0-3.32,4.05,11.71,11.71,0,0,0-1.2,5.31h9.36a4.73,4.73,0,0,1,.54-2.19A4.68,4.68,0,0,1,530.62,9,5.46,5.46,0,0,1,532.68,8a6.85,6.85,0,0,1,2.39-.4,7.43,7.43,0,0,1,2.86.46,5.22,5.22,0,0,1,2,1.26,4.74,4.74,0,0,1,1.19,1.93,6.85,6.85,0,0,1,.4,2.39,6.51,6.51,0,0,1-1.73,4.71,7.11,7.11,0,0,1-5.31,1.8h-5Zm60.31-7.24A30.58,30.58,0,0,0,588.61,11a16.4,16.4,0,0,0-3.25-6.24,12.19,12.19,0,0,0-5.05-3.58A16.89,16.89,0,0,0,573.8,0a17.1,17.1,0,0,0-6.5,1.2,11.91,11.91,0,0,0-5,3.58A16.4,16.4,0,0,0,559.07,11a30.56,30.56,0,0,0-1.2,9.16v8.17a30.34,30.34,0,0,0,1.2,9.09,17.63,17.63,0,0,0,3.25,6.31,12.15,12.15,0,0,0,5,3.59,18.37,18.37,0,0,0,13,0,12.18,12.18,0,0,0,5-3.59,17.64,17.64,0,0,0,3.26-6.31,33,33,0,0,0,1.12-9.09Zm-9.36,9.43a24.43,24.43,0,0,1-.46,5.31,10.41,10.41,0,0,1-1.26,3.52,4.66,4.66,0,0,1-2.06,1.92,6.79,6.79,0,0,1-5.58,0A4.77,4.77,0,0,1,569,38.44a10.37,10.37,0,0,1-1.32-3.52,29.47,29.47,0,0,1-.4-5.31V18.79a28.76,28.76,0,0,1,.4-5.25A9.78,9.78,0,0,1,569,10.09,5.58,5.58,0,0,1,571,8.17a6.48,6.48,0,0,1,2.78-.54,6.1,6.1,0,0,1,2.79.54,5.27,5.27,0,0,1,2.13,1.92A10,10,0,0,1,580,13.54a23.84,23.84,0,0,1,.46,5.25Zm34.29-5.71H596.47v7.5h18.26Zm39.48,16.4H633.89l8.3-8.76c1.59-1.66,3-3.19,4.31-4.72a32.08,32.08,0,0,0,3.32-4.45A21.1,21.1,0,0,0,651.88,18a13.34,13.34,0,0,0,.8-4.58,15.33,15.33,0,0,0-1-5.64,11.12,11.12,0,0,0-3-4.18A13.34,13.34,0,0,0,643.91.93,22.11,22.11,0,0,0,637.28,0a17.48,17.48,0,0,0-6.84,1.26,15.21,15.21,0,0,0-5.11,3.32A14.56,14.56,0,0,0,622,9.49a16.88,16.88,0,0,0-1.13,6h9.43a9.53,9.53,0,0,1,.46-3.19A7.55,7.55,0,0,1,632,9.83a6,6,0,0,1,2.19-1.66,6.53,6.53,0,0,1,2.92-.6,5.77,5.77,0,0,1,4.52,1.79,7.26,7.26,0,0,1,1.59,5,6.27,6.27,0,0,1-.33,2.12,11.24,11.24,0,0,1-1,2.39A19.59,19.59,0,0,1,640,21.71a40.27,40.27,0,0,1-2.92,3.45L621.81,41.43v6.44h32.4Zm37.47-20.12a30.56,30.56,0,0,0-1.2-9.16,16.4,16.4,0,0,0-3.25-6.24,12.13,12.13,0,0,0-5.05-3.58,16.84,16.84,0,0,0-6.5-1.2,17.15,17.15,0,0,0-6.51,1.2,12,12,0,0,0-5,3.58A16.4,16.4,0,0,0,660.94,11a30.56,30.56,0,0,0-1.2,9.16v8.17a30.34,30.34,0,0,0,1.2,9.09,17.79,17.79,0,0,0,3.25,6.31,12.21,12.21,0,0,0,5,3.59,18.37,18.37,0,0,0,13,0,12.21,12.21,0,0,0,5-3.59,17.79,17.79,0,0,0,3.25-6.31,33,33,0,0,0,1.13-9.09Zm-9.36,9.43a24.36,24.36,0,0,1-.47,5.31,10.2,10.2,0,0,1-1.26,3.52,4.66,4.66,0,0,1-2.06,1.92,6.76,6.76,0,0,1-5.57,0,4.66,4.66,0,0,1-2.06-1.92,10.16,10.16,0,0,1-1.33-3.52,29.47,29.47,0,0,1-.4-5.31V18.79a28.76,28.76,0,0,1,.4-5.25,10,10,0,0,1,1.26-3.45,5.58,5.58,0,0,1,2.06-1.92,6.5,6.5,0,0,1,2.79-.54,6.16,6.16,0,0,1,2.79.54,5.31,5.31,0,0,1,2.12,1.92,9.78,9.78,0,0,1,1.26,3.45,23.78,23.78,0,0,1,.47,5.25Z"></path><path class="cls-2" d="M467.87,132.52a11.15,11.15,0,0,1-3.46-3.12,14,14,0,0,1-1.85-4.59,23.25,23.25,0,0,1-.6-5.37v-1.33a23.79,23.79,0,0,1,.6-5.38,12.37,12.37,0,0,1,1.92-4.51,9.69,9.69,0,0,1,3.39-3.19A11,11,0,0,1,473,103.9a11.46,11.46,0,0,1,3.72.6,10,10,0,0,1,3.05,1.86,9.26,9.26,0,0,1,2.13,2.85,10,10,0,0,1,.86,3.85h3.78a15.69,15.69,0,0,0-1.19-5.18,12.45,12.45,0,0,0-2.92-3.91,12,12,0,0,0-4.19-2.52,14.9,14.9,0,0,0-5.24-.87,15.11,15.11,0,0,0-6.44,1.33,13.71,13.71,0,0,0-4.71,3.72A16.79,16.79,0,0,0,459,111.2a25.15,25.15,0,0,0-.93,6.91v1.33a25.4,25.4,0,0,0,.93,6.9,16.84,16.84,0,0,0,2.86,5.58,13.36,13.36,0,0,0,4.71,3.65A14.14,14.14,0,0,0,473,137a16.2,16.2,0,0,0,5.11-.86,14.25,14.25,0,0,0,4.18-2.39,11.42,11.42,0,0,0,3-3.65,11.74,11.74,0,0,0,1.26-4.58h-3.78a8.44,8.44,0,0,1-.93,3.52,10.53,10.53,0,0,1-2.19,2.59,10.19,10.19,0,0,1-3.06,1.52,10.57,10.57,0,0,1-3.58.53,10.27,10.27,0,0,1-5.11-1.12Zm26.59-31.27h-4.25L503.42,136l-1.73,4.59a13.51,13.51,0,0,1-1.19,2.78,8.32,8.32,0,0,1-1.6,2,5.82,5.82,0,0,1-2,1.19,8.73,8.73,0,0,1-2.79.4,5.16,5.16,0,0,1-.93-.07,10.49,10.49,0,0,1-1.06-.13V150a1.87,1.87,0,0,1,.59.14c.27.06.53.06.8.13s.6.06.86.13h.73a8.74,8.74,0,0,0,4.12-.86,11.55,11.55,0,0,0,2.79-2.19,12.59,12.59,0,0,0,1.79-2.79c.46-1,.86-1.93,1.13-2.72l14.87-40.63h-4.18l-10.23,29.47Zm35.62-14.74h-3.92V136.3h3.92Zm14.85,14.74H541V136.3h3.91ZM541,93a2.82,2.82,0,0,0,2,.73,2.67,2.67,0,0,0,1.92-.73,2.46,2.46,0,0,0,.73-1.86,2.36,2.36,0,0,0-.73-1.86,2.45,2.45,0,0,0-1.92-.8,2.59,2.59,0,0,0-2,.8,2.54,2.54,0,0,0-.67,1.86A2.65,2.65,0,0,0,541,93Zm14.39,8.3V136.3h3.85v-24a14.79,14.79,0,0,1,1.52-3.06,11,11,0,0,1,2.2-2.72,11.38,11.38,0,0,1,3-1.86,10,10,0,0,1,3.79-.66,11.48,11.48,0,0,1,3.45.46,5.76,5.76,0,0,1,2.59,1.53,7.92,7.92,0,0,1,1.66,2.92,15,15,0,0,1,.6,4.58V136.3h3.85V113.46a19.33,19.33,0,0,0-.8-5.91,10.92,10.92,0,0,0-2.19-4,8.38,8.38,0,0,0-3.52-2.26,13,13,0,0,0-4.71-.73,12.41,12.41,0,0,0-3.59.47,14.6,14.6,0,0,0-3.12,1.32,13.76,13.76,0,0,0-2.65,2.13,14.21,14.21,0,0,0-2.06,2.72l-.13-6Zm34.88,17.85a25,25,0,0,0,.93,7.24,17.74,17.74,0,0,0,2.66,5.64,13.15,13.15,0,0,0,4.25,3.66,12.21,12.21,0,0,0,5.64,1.32,14.09,14.09,0,0,0,6.51-1.39,13.28,13.28,0,0,0,4.44-3.92l.14,4.65h3.65V86.51h-3.85v19.65a13.27,13.27,0,0,0-4.45-4.12,13,13,0,0,0-6.37-1.46,12,12,0,0,0-5.65,1.26,12.55,12.55,0,0,0-4.31,3.59,17.74,17.74,0,0,0-2.66,5.64,25.59,25.59,0,0,0-.93,7.37Zm3.92-.66a25.85,25.85,0,0,1,.6-5.71,14.36,14.36,0,0,1,1.86-4.58,8.86,8.86,0,0,1,3.25-3.05,8.58,8.58,0,0,1,4.65-1.13,12.57,12.57,0,0,1,3.71.53,10.6,10.6,0,0,1,2.86,1.53,9,9,0,0,1,2.06,2.19,14.78,14.78,0,0,1,1.46,2.59v16.46a14.43,14.43,0,0,1-1.6,2.52,8.56,8.56,0,0,1-2.12,2,10.26,10.26,0,0,1-2.86,1.32,12.29,12.29,0,0,1-3.58.47,9.06,9.06,0,0,1-7.83-4.18,14.42,14.42,0,0,1-1.86-4.59,25.4,25.4,0,0,1-.6-5.71Zm52.35,18A11.16,11.16,0,0,0,650,135.1a11.4,11.4,0,0,0,2.65-1.92,17.34,17.34,0,0,0,2.06-2.46l-2.46-1.79a11.48,11.48,0,0,1-4.31,3.59,12.29,12.29,0,0,1-5.51,1.12,11.06,11.06,0,0,1-4.91-1.06,11.69,11.69,0,0,1-3.79-3,13.24,13.24,0,0,1-2.45-4.38,16.33,16.33,0,0,1-.87-5.44V119h25v-2.39a22.07,22.07,0,0,0-.93-6.44,14.52,14.52,0,0,0-2.65-5.11,12.68,12.68,0,0,0-4.39-3.32,13.72,13.72,0,0,0-5.9-1.2,13,13,0,0,0-5.71,1.26,15.54,15.54,0,0,0-4.78,3.59,16.36,16.36,0,0,0-3.32,5.58,21.32,21.32,0,0,0-1.2,7.36v1.4a19.23,19.23,0,0,0,1.2,6.9,15.51,15.51,0,0,0,3.25,5.45,14,14,0,0,0,5,3.52,15.13,15.13,0,0,0,6.31,1.32,16.69,16.69,0,0,0,4.25-.53Zm-.67-31.6a10.64,10.64,0,0,1,3.12,2.52,11.93,11.93,0,0,1,1.86,3.66,15.32,15.32,0,0,1,.73,4.31v.4h-21a17.52,17.52,0,0,1,1.26-4.85,12.13,12.13,0,0,1,2.32-3.72,11.69,11.69,0,0,1,3.32-2.45,10.62,10.62,0,0,1,4.12-.8,9.77,9.77,0,0,1,4.31.93ZM679.32,101a7.26,7.26,0,0,0-1.13-.27,12.17,12.17,0,0,0-1.46-.13,10.09,10.09,0,0,0-6,1.66,12,12,0,0,0-3.91,4.58l-.07-5.57H663V136.3h3.85V112.2a17,17,0,0,1,1.32-3.19,9.42,9.42,0,0,1,2.06-2.45A8.51,8.51,0,0,1,673,104.9a10.12,10.12,0,0,1,3.59-.6,16.12,16.12,0,0,1,2.59.2Z"></path><line class="cls-3" x1="1059.53" y1="464.1" x2="1059.53" y2="830.2"></line><path d="M1132.59,667.77l-1-1.27a7.92,7.92,0,0,1-1.38-4.93,7,7,0,0,1,2.28-5.46,8.77,8.77,0,0,1,6.1-2.07,9.46,9.46,0,0,1,6.26,1.91,6.41,6.41,0,0,1,2.28,5.25,7.13,7.13,0,0,1-1.64,4.93,7.61,7.61,0,0,1-4.88,2.28V673a11.15,11.15,0,0,0,7.69-3.61,11.92,11.92,0,0,0,2.76-8.16c0-3.77-1.12-6.69-3.35-8.81s-5.3-3.13-9.17-3.13-7,1-9.23,3a10.36,10.36,0,0,0-3.39,8.16,11.93,11.93,0,0,0,1.64,6.31l-10.29-1.11V650.38h-4.45v19.3l18.83,1.91Zm-4.35-47.42c-5.46,0-9.44,1.06-12,3s-3.92,4.88-3.92,9,1.33,7.11,4,9,6.84,2.87,12.36,2.87h6.41c5.31-.06,9.28-1.06,12-3s4-4.88,4-8.91-1.38-7.11-4.09-9-6.89-2.86-12.51-2.86Zm7.48,4.77c3.92,0,6.84.69,8.64,1.8a6.42,6.42,0,0,1-.16,10.66c-2,1.17-4.93,1.81-9,1.81h-7.69c-3.82-.06-6.68-.64-8.54-1.76a5.77,5.77,0,0,1-2.76-5.35,5.86,5.86,0,0,1,2.81-5.41c1.86-1.17,4.78-1.75,8.86-1.75Z"></path><path d="M526.84,994.75l-2.59,5.25h3.23l1.91-3.87a13.43,13.43,0,0,0,4.93.9,12.61,12.61,0,0,0,6.63-1.75,12.41,12.41,0,0,0,4.51-5.09,16.71,16.71,0,0,0,1.59-7.37c0-5.52-1.7-9.65-5-12.31l2.65-5.3h-3.23l-1.86,3.87a12.68,12.68,0,0,0-5.3-1.11,11.94,11.94,0,0,0-11.14,6.89,16.59,16.59,0,0,0-1.59,7.37c0,5.79,1.8,9.92,5.3,12.52Zm1.7-20a6.91,6.91,0,0,1,5.73-2.81,7.07,7.07,0,0,1,3.44.85l-8.85,18c-1.7-2-2.49-4.56-2.49-7.9,0-3.5.69-6.21,2.17-8.12Zm13.68,8a12.45,12.45,0,0,1-2.12,7.64,7.06,7.06,0,0,1-5.78,2.81,7.58,7.58,0,0,1-3.13-.64L540,974.65a12.09,12.09,0,0,1,2.22,7.58Zm25.9-24h-.74l-13.74,5.14v4.35l9.65-3.55V996.5h4.83Zm20.11,19.94,1.28-1a7.9,7.9,0,0,1,4.93-1.38,6.93,6.93,0,0,1,5.46,2.28,8.76,8.76,0,0,1,2.07,6.1,9.51,9.51,0,0,1-1.91,6.26,6.44,6.44,0,0,1-5.25,2.28,7.07,7.07,0,0,1-4.93-1.65,7.52,7.52,0,0,1-2.28-4.88H583a11.08,11.08,0,0,0,3.6,7.69,11.89,11.89,0,0,0,8.17,2.76c3.76,0,6.68-1.11,8.8-3.34s3.13-5.3,3.13-9.18-1-6.94-3-9.22a10.39,10.39,0,0,0-8.17-3.4,11.87,11.87,0,0,0-6.31,1.65l1.11-10.29h15.28v-4.46H586.32l-1.91,18.83Zm47.43-4.35c0-5.47-1.06-9.44-3-12s-4.88-3.93-9-3.93-7.11,1.33-9,4-2.86,6.84-2.86,12.35v6.42c0,5.3,1.06,9.28,3,12s4.88,4,8.91,4,7.11-1.38,9-4.08,2.87-6.9,2.87-12.52Zm-4.77,7.47c-.06,3.93-.69,6.85-1.81,8.65a6.42,6.42,0,0,1-10.66-.16c-1.16-2-1.8-4.93-1.8-9v-7.69c0-3.81.64-6.68,1.75-8.53a5.77,5.77,0,0,1,5.36-2.76,5.85,5.85,0,0,1,5.41,2.81c1.16,1.86,1.75,4.77,1.75,8.86Z"></path><line class="cls-3" x1="164.43" y1="909.49" x2="993.42" y2="909.49"></line><path class="cls-1" d="M996.89,828.63H161V450.22H996.89ZM228.17,274.44V450.22M933.34,274.44V450.22m-348.3,0H565.48V438.83H585Zm-9.78-115.56V438.82M585,335.48H565.48V316H585ZM615.18,298H535.34v-23.6h79.84Zm-37.07,0h59.47s-13.84,18.72-59.47,17.9h-5.7c-45.63.82-59.48-17.9-59.48-17.9h65.18Zm5.71,165.2H565.48v-13h18.34Zm-8.36,0,5,5.38"></path><path class="cls-4" d="M996.89,828.63H161V450.22H996.89ZM228.17,274.44V450.22M933.34,274.44V450.22m-348.3,0H565.48V438.83H585Zm-9.78-115.56V438.82M585,335.48H565.48V316H585ZM615.18,298H535.34v-23.6h79.84Zm-37.07,0h59.47s-13.84,18.72-59.47,17.9h-5.7c-45.63.82-59.48-17.9-59.48-17.9h65.18Zm5.71,165.2H565.48v-13h18.34v13Zm-8.36,0,5,5.38"></path><line class="cls-5" x1="589.94" y1="478.51" x2="636.79" y2="529.54"></line><path class="cls-1" d="M641.15,534.5l4.91,5.3,7.24,0m4.21,0,7.23,0,4.92,5.3m9.91,10.69,4.91,5.29L679.17,566m-9.48,8.7-5.32,4.89-4.91-5.3m-9.91-10.69-4.91-5.3.55-7.18m.32-4.16.55-7.18m-72.57-74.09,7,2"></path><path class="cls-4" d="M641.15,534.5l4.91,5.3,7.24,0m4.21,0,7.23,0,4.92,5.3m9.91,10.69,4.91,5.29L679.17,566m-9.48,8.7-5.32,4.89-4.91-5.3m-9.91-10.69-4.91-5.3.55-7.18m.32-4.16.55-7.18m-72.57-74.09,7,2"></path><line class="cls-6" x1="592.97" y1="471.24" x2="661.08" y2="488.67"></line><path class="cls-1" d="M667.1,490.79l7,2,6.18-3.73m3.59-2.17,6.19-3.73,7,1.95M711.06,489l7,2-2,6.89m-3.5,12.31-2,6.92-7-2m-14.06-3.94-7-2-3.31-6.38m-1.92-3.72-3.31-6.38m-98.69-28,0,7.18"></path><path class="cls-4" d="M667.1,490.79l7,2,6.18-3.73m3.59-2.17,6.19-3.73,7,1.95M711.06,489l7,2-2,6.89m-3.5,12.31-2,6.92-7-2m-14.06-3.94-7-2-3.31-6.38m-1.92-3.72-3.31-6.38m-98.69-28,0,7.18"></path><line class="cls-7" x1="574.62" y1="485.05" x2="574.71" y2="556.29"></line><path class="cls-1" d="M574.87,562.29l0,7.27,5,4.94m2.91,2.86,5,4.93,0,7.28m.07,14.68,0,7.27-6.81,0m-12.16.06-6.83,0,0-7.28m-.07-14.68,0-7.28,5-5m2.89-2.89,5-5m-2.24-104.23L568.4,471"></path><path class="cls-4" d="M574.87,562.29l0,7.27,5,4.94m2.91,2.86,5,4.93,0,7.28m.07,14.68,0,7.27-6.81,0m-12.16.06-6.83,0,0-7.28m-.07-14.68,0-7.28,5-5m2.89-2.89,5-5m-2.24-104.23L568.4,471"></path><line class="cls-8" x1="559.06" y1="481.24" x2="516.25" y2="535.76"></line><path class="cls-1" d="M512.16,540.94l-4.5,5.65,1.07,7.12m.62,4.15,1.07,7.13-4.5,5.64m-9.1,11.4-4.51,5.64-5.64-4.48m-10.07-8-5.66-4.49,4.5-5.64m9.1-11.4L489,548l7.22-.57m4.18-.32,7.22-.55m65.59-80.1-6.94,2"></path><path class="cls-4" d="M512.16,540.94l-4.5,5.65,1.07,7.12m.62,4.15,1.07,7.13-4.5,5.64m-9.1,11.4-4.51,5.64-5.64-4.48m-10.07-8-5.66-4.49,4.5-5.64m9.1-11.4L489,548l7.22-.57m4.18-.32,7.22-.55m65.59-80.1-6.94,2"></path><line class="cls-9" x1="553.81" y1="472.19" x2="485.89" y2="490.21"></line><path class="cls-1" d="M479.18,493.54l-6.85,1.93-3.2,6.14m-1.87,3.57-3.2,6.15-6.85,1.92m-13.83,3.89-6.86,1.93s-1-3.36-2-6.58M431,500.73l-2-6.6,6.84-1.93m13.84-3.89,6.85-1.93,6.14,3.53m3.55,2,6.13,3.52"></path><path class="cls-4" d="M479.18,493.54l-6.85,1.93-3.2,6.14m-1.87,3.57-3.2,6.15-6.85,1.92m-13.83,3.89-6.86,1.93s-1-3.36-2-6.58M431,500.73l-2-6.6,6.84-1.93m13.84-3.89,6.85-1.93,6.14,3.53m3.55,2,6.13,3.52"></path></svg> 