<?xml version="1.0" encoding="UTF-8"?> <svg xmlns="http://www.w3.org/2000/svg" id="Livello_1" data-name="Livello 1" viewBox="0 0 1312 1000"><defs><style>.cls-1{fill:#fff;}.cls-2{fill:#231f20;}.cls-3,.cls-4,.cls-5{fill:none;stroke-width:0.25px;}.cls-3{stroke:#000;}.cls-4,.cls-5{stroke:#231f20;stroke-miterlimit:10;}.cls-5{stroke-dasharray:2.71 2.71;}</style></defs><title>XL sosp 200 cilindro</title><rect class="cls-1" width="1312" height="998.95"></rect><path class="cls-2" d="M512.54.59h-1l-19.34,7v7.5l11-3.43V47.43h9.27ZM559.22,20A30.39,30.39,0,0,0,558,10.92a16.16,16.16,0,0,0-3.22-6.18,12.08,12.08,0,0,0-5-3.56A16.81,16.81,0,0,0,543.36,0a17.06,17.06,0,0,0-6.45,1.18A11.93,11.93,0,0,0,532,4.74a16.16,16.16,0,0,0-3.22,6.18A30.39,30.39,0,0,0,527.57,20v8.09a30.18,30.18,0,0,0,1.19,9A17.45,17.45,0,0,0,532,43.35a12.08,12.08,0,0,0,5,3.56,17,17,0,0,0,6.45,1.18,16.72,16.72,0,0,0,6.44-1.18,12.08,12.08,0,0,0,5-3.56,17.31,17.31,0,0,0,3.23-6.25,32.82,32.82,0,0,0,1.12-9Zm-9.28,9.34a23.88,23.88,0,0,1-.46,5.26,10,10,0,0,1-1.25,3.49,4.77,4.77,0,0,1-2,1.91,6.77,6.77,0,0,1-5.53,0,4.77,4.77,0,0,1-2-1.91,10.19,10.19,0,0,1-1.31-3.49,29.72,29.72,0,0,1-.4-5.26V18.62a29.07,29.07,0,0,1,.4-5.2A9.69,9.69,0,0,1,538.56,10a5.59,5.59,0,0,1,2-1.91,6.5,6.5,0,0,1,2.76-.52,6.13,6.13,0,0,1,2.76.52A5.26,5.26,0,0,1,548.23,10a9.69,9.69,0,0,1,1.25,3.42,23.36,23.36,0,0,1,.46,5.2Zm25-2.17h4.94a12.08,12.08,0,0,1,3.22.4,9,9,0,0,1,2.43,1.25A6.43,6.43,0,0,1,587,31a9.41,9.41,0,0,1,.52,3.22,6.93,6.93,0,0,1-.52,2.63,4.64,4.64,0,0,1-1.38,2,5.11,5.11,0,0,1-2.24,1.31,8.22,8.22,0,0,1-3,.46,7.27,7.27,0,0,1-2.7-.46,5.81,5.81,0,0,1-2.17-1.25,5.33,5.33,0,0,1-2-4.28h-9.28a12.19,12.19,0,0,0,1.38,6,12.51,12.51,0,0,0,3.62,4.21,15.81,15.81,0,0,0,5.07,2.5,21.83,21.83,0,0,0,5.85.79,23.46,23.46,0,0,0,6.58-.92,15.16,15.16,0,0,0,5.26-2.7,12.25,12.25,0,0,0,3.49-4.27,13.92,13.92,0,0,0,1.25-5.86,11.58,11.58,0,0,0-2-6.71A11.43,11.43,0,0,0,589,23.42a15.55,15.55,0,0,0,3-1.91,14.66,14.66,0,0,0,2.23-2.37,12.31,12.31,0,0,0,1.39-2.82,11.76,11.76,0,0,0,.46-3,13.55,13.55,0,0,0-1.19-5.79,11.77,11.77,0,0,0-3.22-4.15,14.87,14.87,0,0,0-5-2.56A24.48,24.48,0,0,0,580.23,0a19.82,19.82,0,0,0-6,.92,16.09,16.09,0,0,0-4.86,2.57,12.78,12.78,0,0,0-3.29,4,11.68,11.68,0,0,0-1.19,5.26h9.28a4.8,4.8,0,0,1,.53-2.17A4.47,4.47,0,0,1,576,9a5.51,5.51,0,0,1,2-1.06,6.93,6.93,0,0,1,2.37-.39,7.27,7.27,0,0,1,2.83.46,4.94,4.94,0,0,1,2,1.25,4.78,4.78,0,0,1,1.19,1.91,6.93,6.93,0,0,1,.39,2.37,6.48,6.48,0,0,1-1.71,4.67,7.07,7.07,0,0,1-5.26,1.77H574.9Zm60.36,12.76H615.13l8.22-8.68c1.58-1.65,3-3.16,4.28-4.67a32.31,32.31,0,0,0,3.29-4.41,21.77,21.77,0,0,0,2-4.34,13.34,13.34,0,0,0,.79-4.54,15.31,15.31,0,0,0-1-5.59,11.14,11.14,0,0,0-3-4.15A13.19,13.19,0,0,0,625.06.92,22.15,22.15,0,0,0,618.48,0a17.16,17.16,0,0,0-6.77,1.25,15,15,0,0,0-5.07,3.29,14.46,14.46,0,0,0-3.29,4.87,16.75,16.75,0,0,0-1.12,6h9.35a9.32,9.32,0,0,1,.46-3.15,7.25,7.25,0,0,1,1.25-2.5,5.89,5.89,0,0,1,2.17-1.65,6.53,6.53,0,0,1,2.89-.59,5.71,5.71,0,0,1,4.48,1.78,7.17,7.17,0,0,1,1.57,4.93,6.19,6.19,0,0,1-.32,2.11,11.51,11.51,0,0,1-1,2.36,18.79,18.79,0,0,1-1.91,2.83,38,38,0,0,1-2.89,3.42L603.15,41.05v6.38h32.11Zm24.11-16.25h-18.1v7.44h18.1Zm39.11,16.25H678.35l8.23-8.68c1.58-1.65,3-3.16,4.27-4.67a31.5,31.5,0,0,0,3.29-4.41,21.23,21.23,0,0,0,2-4.34,13.1,13.1,0,0,0,.79-4.54,15.31,15.31,0,0,0-1-5.59,11,11,0,0,0-3-4.15A13.14,13.14,0,0,0,688.29.92,22.15,22.15,0,0,0,681.71,0a17.21,17.21,0,0,0-6.78,1.25,15,15,0,0,0-5.06,3.29,14.46,14.46,0,0,0-3.29,4.87,16.54,16.54,0,0,0-1.12,6h9.34a9.32,9.32,0,0,1,.46-3.15,7.25,7.25,0,0,1,1.25-2.5,6,6,0,0,1,2.17-1.65,6.58,6.58,0,0,1,2.9-.59,5.69,5.69,0,0,1,4.47,1.78,7.17,7.17,0,0,1,1.58,4.93,6.22,6.22,0,0,1-.33,2.11,11.51,11.51,0,0,1-1,2.36,18.67,18.67,0,0,1-1.9,2.83,36.65,36.65,0,0,1-2.9,3.42L666.38,41.05v6.38h32.1ZM735.62,20a30.39,30.39,0,0,0-1.19-9.08,16.16,16.16,0,0,0-3.22-6.18,12.08,12.08,0,0,0-5-3.56,18.19,18.19,0,0,0-12.89,0,11.9,11.9,0,0,0-4.94,3.56,16.16,16.16,0,0,0-3.22,6.18A30.39,30.39,0,0,0,704,20v8.09a30.18,30.18,0,0,0,1.19,9,17.45,17.45,0,0,0,3.22,6.25,12.08,12.08,0,0,0,5,3.56,17,17,0,0,0,6.45,1.18,16.81,16.81,0,0,0,6.45-1.18,12.21,12.21,0,0,0,5-3.56,17.45,17.45,0,0,0,3.22-6.25,32.82,32.82,0,0,0,1.12-9Zm-9.28,9.34a23.88,23.88,0,0,1-.46,5.26,10,10,0,0,1-1.25,3.49,4.77,4.77,0,0,1-2,1.91,6.75,6.75,0,0,1-5.52,0,4.71,4.71,0,0,1-2-1.91,10,10,0,0,1-1.32-3.49,29.83,29.83,0,0,1-.39-5.26V18.62a29.18,29.18,0,0,1,.39-5.2A9.69,9.69,0,0,1,715,10a5.59,5.59,0,0,1,2-1.91,6.53,6.53,0,0,1,2.76-.52,6.18,6.18,0,0,1,2.77.52,5.3,5.3,0,0,1,2.1,1.91,9.69,9.69,0,0,1,1.25,3.42,23.36,23.36,0,0,1,.46,5.2Z"></path><path class="cls-2" d="M513.83,131.32a11.05,11.05,0,0,1-3.42-3.1,13.88,13.88,0,0,1-1.84-4.54,23.38,23.38,0,0,1-.59-5.32V117a23.92,23.92,0,0,1,.59-5.33,12.33,12.33,0,0,1,1.91-4.47,9.58,9.58,0,0,1,3.35-3.16A10.94,10.94,0,0,1,518.9,103a11.49,11.49,0,0,1,3.68.59,10.15,10.15,0,0,1,3,1.85,9.12,9.12,0,0,1,2.1,2.82,9.89,9.89,0,0,1,.86,3.82h3.75a15.57,15.57,0,0,0-1.18-5.13,12.42,12.42,0,0,0-2.9-3.88,12,12,0,0,0-4.14-2.5,16.11,16.11,0,0,0-11.58.46,13.67,13.67,0,0,0-4.67,3.68A16.91,16.91,0,0,0,505,110.2a25,25,0,0,0-.92,6.84v1.32a25.41,25.41,0,0,0,.92,6.84,16.86,16.86,0,0,0,2.83,5.52,13.23,13.23,0,0,0,4.67,3.62,14,14,0,0,0,6.38,1.38,15.84,15.84,0,0,0,5.06-.85,14.17,14.17,0,0,0,4.15-2.37,11.21,11.21,0,0,0,3-3.62,11.66,11.66,0,0,0,1.25-4.54h-3.75a8.44,8.44,0,0,1-.92,3.49,10.36,10.36,0,0,1-2.17,2.57,10.24,10.24,0,0,1-3,1.51,10.68,10.68,0,0,1-3.55.52,10.13,10.13,0,0,1-5.07-1.11Zm26.35-31H536l13.09,34.47-1.71,4.54a13.42,13.42,0,0,1-1.18,2.77,8.09,8.09,0,0,1-1.58,2,5.61,5.61,0,0,1-2,1.18,8.54,8.54,0,0,1-2.76.4,5,5,0,0,1-.92-.07c-.47-.06-.79-.06-1.06-.13v3.22a1.75,1.75,0,0,1,.59.14c.27.06.53.06.79.13s.6.06.86.13h.72a8.6,8.6,0,0,0,4.08-.86,11.14,11.14,0,0,0,2.77-2.17,12.23,12.23,0,0,0,1.77-2.76,26.25,26.25,0,0,0,1.12-2.7l14.74-40.26H561.1L551,129.54Zm35.3-14.61H571.6v49.35h3.88Zm14.72,14.61h-3.88v34.74h3.88Zm-3.88-8.22a2.8,2.8,0,0,0,2,.72,2.64,2.64,0,0,0,1.91-.72,2.43,2.43,0,0,0,.72-1.85,2.32,2.32,0,0,0-.72-1.84,2.46,2.46,0,0,0-1.91-.79,2.61,2.61,0,0,0-2,.79,2.54,2.54,0,0,0-.66,1.84,2.66,2.66,0,0,0,.66,1.85Zm14.26,8.22v34.74h3.82V111.25a14.28,14.28,0,0,1,1.51-3,11,11,0,0,1,2.17-2.69,11.11,11.11,0,0,1,3-1.84,9.6,9.6,0,0,1,3.75-.66,11.28,11.28,0,0,1,3.42.46,5.7,5.7,0,0,1,2.57,1.51,7.72,7.72,0,0,1,1.64,2.9,14.71,14.71,0,0,1,.59,4.54v22.63h3.82V112.44a19,19,0,0,0-.79-5.86,10.9,10.9,0,0,0-2.17-4,8.22,8.22,0,0,0-3.49-2.23,12.8,12.8,0,0,0-4.67-.73,12.48,12.48,0,0,0-3.55.46,14.17,14.17,0,0,0-3.09,1.32,13.48,13.48,0,0,0-2.63,2.1,13.68,13.68,0,0,0-2,2.7l-.13-5.92ZM635.15,118a24.52,24.52,0,0,0,.92,7.17,17.52,17.52,0,0,0,2.63,5.59,13.22,13.22,0,0,0,4.21,3.62,12.19,12.19,0,0,0,5.6,1.31,13.89,13.89,0,0,0,6.44-1.38,13,13,0,0,0,4.41-3.88l.13,4.61h3.62V85.72h-3.82V105.2a13.09,13.09,0,0,0-4.4-4.08,12.78,12.78,0,0,0-6.32-1.45,11.92,11.92,0,0,0-5.59,1.25,12.54,12.54,0,0,0-4.28,3.55,17.58,17.58,0,0,0-2.63,5.6,25.11,25.11,0,0,0-.92,7.3Zm3.88-.66a26.08,26.08,0,0,1,.59-5.66,14.44,14.44,0,0,1,1.85-4.54,8.78,8.78,0,0,1,3.22-3,8.54,8.54,0,0,1,4.6-1.12,12.4,12.4,0,0,1,3.69.52,10.39,10.39,0,0,1,2.83,1.52,9,9,0,0,1,2,2.17,13.82,13.82,0,0,1,1.44,2.56v16.32a15.1,15.1,0,0,1-1.57,2.5,8.55,8.55,0,0,1-2.11,2,10.21,10.21,0,0,1-2.83,1.32,12.48,12.48,0,0,1-3.55.46,9,9,0,0,1-4.54-1.12,8.73,8.73,0,0,1-3.22-3,14.34,14.34,0,0,1-1.85-4.54A25.52,25.52,0,0,1,639,118ZM690.9,135.2a11.38,11.38,0,0,0,3.42-1.32A11,11,0,0,0,697,132a17.64,17.64,0,0,0,2-2.43l-2.44-1.78a11.4,11.4,0,0,1-4.28,3.56,12.07,12.07,0,0,1-5.46,1.11,10.87,10.87,0,0,1-4.86-1.05,11.58,11.58,0,0,1-3.75-3,13.12,13.12,0,0,1-2.44-4.34,16.32,16.32,0,0,1-.85-5.39V118h24.8v-2.37a22.1,22.1,0,0,0-.92-6.38,14.25,14.25,0,0,0-2.63-5.06,12.66,12.66,0,0,0-4.35-3.29A13.64,13.64,0,0,0,686,99.67a13,13,0,0,0-5.66,1.25,15.77,15.77,0,0,0-4.74,3.55,16.4,16.4,0,0,0-3.28,5.53,21.25,21.25,0,0,0-1.19,7.3v1.39a19.2,19.2,0,0,0,1.19,6.84,15.27,15.27,0,0,0,3.22,5.39,13.86,13.86,0,0,0,4.93,3.49,15.07,15.07,0,0,0,6.25,1.31,16.33,16.33,0,0,0,4.21-.52Zm-.65-31.32a10.75,10.75,0,0,1,3.09,2.5,12,12,0,0,1,1.84,3.62,15.11,15.11,0,0,1,.72,4.28v.39H675.05a18,18,0,0,1,1.25-4.8,12,12,0,0,1,2.3-3.68,11.48,11.48,0,0,1,3.29-2.44A10.41,10.41,0,0,1,686,103a9.8,9.8,0,0,1,4.28.92Zm33.12-3.81a6.8,6.8,0,0,0-1.12-.27,11.83,11.83,0,0,0-1.45-.13,10,10,0,0,0-5.92,1.65,12,12,0,0,0-3.88,4.54l-.06-5.53h-3.75v34.74H711V111.19a16.43,16.43,0,0,1,1.32-3.16,9.09,9.09,0,0,1,2-2.44,8.33,8.33,0,0,1,2.76-1.64,9.94,9.94,0,0,1,3.55-.59,15.91,15.91,0,0,1,2.57.19Z"></path><line class="cls-3" x1="1083.85" y1="461.11" x2="1083.85" y2="823.9"></line><path d="M1156.25,662.94l-1-1.26a7.83,7.83,0,0,1-1.37-4.88,6.91,6.91,0,0,1,2.26-5.42,8.73,8.73,0,0,1,6-2,9.38,9.38,0,0,1,6.2,1.9,6.37,6.37,0,0,1,2.26,5.2,7.09,7.09,0,0,1-1.63,4.89,7.59,7.59,0,0,1-4.84,2.26v4.52a11.06,11.06,0,0,0,7.62-3.58,11.79,11.79,0,0,0,2.74-8.09c0-3.73-1.11-6.62-3.31-8.72s-5.26-3.11-9.1-3.11-6.88,1-9.14,3a10.28,10.28,0,0,0-3.36,8.09,11.77,11.77,0,0,0,1.63,6.26l-10.2-1.11V645.71h-4.41v19.13l18.65,1.89Zm-4.31-47c-5.41,0-9.35,1-11.93,2.94s-3.89,4.84-3.89,8.88,1.32,7,4,8.94,6.77,2.83,12.24,2.83h6.36c5.25,0,9.19-1,11.87-3s4-4.84,4-8.83-1.37-7-4-8.93-6.83-2.84-12.4-2.84Zm7.41,4.73c3.89.05,6.78.68,8.56,1.78a6.37,6.37,0,0,1-.15,10.57c-2,1.15-4.89,1.78-8.94,1.78h-7.62c-3.78,0-6.62-.63-8.46-1.73a5.72,5.72,0,0,1-2.73-5.31,5.8,5.8,0,0,1,2.79-5.36c1.83-1.15,4.72-1.73,8.77-1.73Z"></path><path d="M556,994.8l-2.58,5.2h3.21l1.89-3.84a13.22,13.22,0,0,0,4.89.9,12.5,12.5,0,0,0,6.57-1.74,12.29,12.29,0,0,0,4.46-5A16.61,16.61,0,0,0,576,983c0-5.46-1.68-9.56-5-12.19l2.62-5.25h-3.2l-1.84,3.83a12.65,12.65,0,0,0-5.26-1.1,12.09,12.09,0,0,0-6.57,1.79,11.87,11.87,0,0,0-4.46,5,16.43,16.43,0,0,0-1.58,7.31c0,5.72,1.79,9.82,5.26,12.4Zm1.68-19.87a6.82,6.82,0,0,1,5.67-2.78,7,7,0,0,1,3.42.84L558,990.8c-1.68-1.94-2.47-4.52-2.47-7.83,0-3.46.69-6.15,2.16-8Zm13.56,7.89a12.28,12.28,0,0,1-2.11,7.56,7,7,0,0,1-5.72,2.79,7.4,7.4,0,0,1-3.1-.63L569,974.88a12,12,0,0,1,2.21,7.52Zm34.54,9.82H587l10-10.87c4.73-5,7-9.46,7-13.14a9.36,9.36,0,0,0-3-7.25,11.85,11.85,0,0,0-8.25-2.74c-3.73,0-6.68,1.05-8.88,3.21a10.82,10.82,0,0,0-3.37,8.3h4.79a7.79,7.79,0,0,1,1.94-5.62,7.44,7.44,0,0,1,5.52-2,6.27,6.27,0,0,1,4.73,1.89,6.72,6.72,0,0,1,1.73,4.79,9.08,9.08,0,0,1-1,4.2,29.24,29.24,0,0,1-4,5.31l-12.93,14.4v3.41h24.49Zm28.5-18.18c-.06-5.41-1-9.35-3-11.93s-4.83-3.89-8.88-3.89-7,1.32-8.93,4-2.84,6.78-2.84,12.24v6.36c.05,5.25,1.05,9.2,3,11.88s4.83,3.94,8.83,3.94,7-1.37,8.93-4,2.84-6.83,2.84-12.4Zm-4.73,7.41c-.06,3.89-.69,6.78-1.79,8.57a6.37,6.37,0,0,1-10.56-.16c-1.16-1.95-1.79-4.89-1.79-8.94v-7.62c.05-3.78.63-6.62,1.74-8.46a5.71,5.71,0,0,1,5.3-2.73,5.79,5.79,0,0,1,5.36,2.79c1.16,1.84,1.74,4.73,1.74,8.77Zm34.28-7.41c-.06-5.41-1-9.35-2.95-11.93s-4.83-3.89-8.88-3.89-7,1.32-8.93,4-2.84,6.78-2.84,12.24v6.36c0,5.25,1,9.2,3,11.88s4.83,3.94,8.82,3.94,7.05-1.37,8.94-4,2.84-6.83,2.84-12.4Zm-4.73,7.41c-.06,3.89-.69,6.78-1.79,8.57a6.37,6.37,0,0,1-10.56-.16c-1.16-1.95-1.79-4.89-1.79-8.94v-7.62c0-3.78.63-6.62,1.73-8.46a5.73,5.73,0,0,1,5.31-2.73,5.79,5.79,0,0,1,5.36,2.79c1.16,1.84,1.74,4.73,1.74,8.77Z"></path><line class="cls-3" x1="196.85" y1="904.09" x2="1018.33" y2="904.09"></line><path class="cls-1" d="M1042.25,831.62H137.46V452.74h904.79Zm-810-554.88v176m715.16-176v176m-353.24,0H574.37V441.33H594.2ZM584.29,337V441.33m9.91-103.47H574.37V318.3H594.2Zm30.57-37.48h-81V276.75h81Zm-37.59,0H647.5s-14,18.73-60.32,17.92h-5.79c-46.27.81-60.32-17.92-60.32-17.92h66.11Zm306.34,155.7,0,7.34"></path><path class="cls-4" d="M1042.25,831.62H137.46V452.74h904.79Zm-810-554.88v176m715.16-176v176m-353.24,0H574.37V441.33H594.2ZM584.29,337V441.33m9.91-103.47H574.37V318.3H594.2Zm30.57-37.48h-81V276.75h81Zm-37.59,0H647.5s-14,18.73-60.32,17.92h-5.79c-46.27.81-60.32-17.92-60.32-17.92h66.11Zm306.34,155.7,0,7.34"></path><line class="cls-5" x1="893.81" y1="476.06" x2="894.07" y2="547.38"></line><path class="cls-1" d="M894.09,553.22l0,7.3,5.39,5m3.13,2.87,5.38,4.94,0,7.31m.1,14.77,0,7.31-7.29,0m-13,.09-7.32,0,0-7.31m-.1-14.76,0-7.31,5.31-5m3.1-2.91,5.32-5M807.9,455.65l0,7.31"></path><path class="cls-4" d="M894.09,553.22l0,7.3,5.39,5m3.13,2.87,5.38,4.94,0,7.31m.1,14.77,0,7.31-7.29,0m-13,.09-7.32,0,0-7.31m-.1-14.76,0-7.31,5.31-5m3.1-2.91,5.32-5M807.9,455.65l0,7.31"></path><line class="cls-5" x1="806.77" y1="475.98" x2="807.02" y2="547.28"></line><path class="cls-1" d="M806.89,553.13l0,7.31,5.39,4.95m3.13,2.87,5.38,4.94,0,7.31m.09,14.77,0,7.31-7.29,0m-13,.09-7.31,0,0-7.31m-.09-14.76,0-7.31,5.32-5m3.1-2.92,5.31-5M720.69,455.57l0,7.3"></path><path class="cls-4" d="M806.89,553.13l0,7.31,5.39,4.95m3.13,2.87,5.38,4.94,0,7.31m.09,14.77,0,7.31-7.29,0m-13,.09-7.31,0,0-7.31m-.09-14.76,0-7.31,5.32-5m3.1-2.92,5.31-5M720.69,455.57l0,7.3"></path><line class="cls-5" x1="719.73" y1="475.89" x2="719.99" y2="547.19"></line><path class="cls-1" d="M719.69,553l0,7.31,5.39,4.95m3.13,2.88,5.38,4.94,0,7.31m.1,14.76,0,7.31-7.29,0m-13,.09-7.32,0,0-7.31m-.1-14.77,0-7.31,5.32-5m3.09-2.92,5.32-5M633.49,455.47l0,7.31"></path><path class="cls-4" d="M719.69,553l0,7.31,5.39,4.95m3.13,2.88,5.38,4.94,0,7.31m.1,14.76,0,7.31-7.29,0m-13,.09-7.32,0,0-7.31m-.1-14.77,0-7.31,5.32-5m3.09-2.92,5.32-5M633.49,455.47l0,7.31"></path><line class="cls-5" x1="632.69" y1="475.79" x2="632.95" y2="547.1"></line><path class="cls-1" d="M632.48,552.94l0,7.31,5.39,5m3.13,2.88,5.38,4.94,0,7.31m.1,14.76,0,7.31-7.29.05m-13,.08-7.32.05,0-7.31m-.1-14.77,0-7.3,5.31-5m3.1-2.92,5.32-5M546.29,455.38l0,7.31"></path><path class="cls-4" d="M632.48,552.94l0,7.31,5.39,5m3.13,2.88,5.38,4.94,0,7.31m.1,14.76,0,7.31-7.29.05m-13,.08-7.32.05,0-7.31m-.1-14.77,0-7.3,5.31-5m3.1-2.92,5.32-5M546.29,455.38l0,7.31"></path><line class="cls-5" x1="545.66" y1="475.7" x2="545.91" y2="547"></line><path class="cls-1" d="M545.28,552.85l0,7.31,5.39,5m3.13,2.87,5.38,4.94,0,7.31m.09,14.77,0,7.31-7.29,0m-13,.09-7.31,0,0-7.31m-.09-14.76,0-7.31,5.32-5m3.1-2.92,5.31-5M459.09,455.29l0,7.3"></path><path class="cls-4" d="M545.28,552.85l0,7.31,5.39,5m3.13,2.87,5.38,4.94,0,7.31m.09,14.77,0,7.31-7.29,0m-13,.09-7.31,0,0-7.31m-.09-14.76,0-7.31,5.32-5m3.1-2.92,5.31-5M459.09,455.29l0,7.3"></path><line class="cls-5" x1="458.61" y1="475.61" x2="458.87" y2="546.91"></line><path class="cls-1" d="M458.09,552.76l0,7.31,5.39,4.95m3.13,2.87,5.38,5,0,7.3m.1,14.77,0,7.31-7.29,0m-13,.08-7.32,0,0-7.3m-.1-14.77,0-7.31,5.32-5m3.09-2.92,5.32-5M371.89,455.2l0,7.31"></path><path class="cls-4" d="M458.09,552.76l0,7.31,5.39,4.95m3.13,2.87,5.38,5,0,7.3m.1,14.77,0,7.31-7.29,0m-13,.08-7.32,0,0-7.3m-.1-14.77,0-7.31,5.32-5m3.09-2.92,5.32-5M371.89,455.2l0,7.31"></path><line class="cls-5" x1="371.58" y1="475.51" x2="371.84" y2="546.82"></line><path class="cls-1" d="M370.88,552.66l0,7.31,5.39,4.95m3.12,2.88,5.39,4.94.05,7.31m.09,14.76.05,7.31-7.29,0m-13,.08-7.31,0-.05-7.31m-.09-14.77-.05-7.3,5.32-5M365.6,565l5.32-5M284.68,455.1l.05,7.31"></path><path class="cls-4" d="M370.88,552.66l0,7.31,5.39,4.95m3.12,2.88,5.39,4.94.05,7.31m.09,14.76.05,7.31-7.29,0m-13,.08-7.31,0-.05-7.31m-.09-14.77-.05-7.3,5.32-5M365.6,565l5.32-5M284.68,455.1l.05,7.31"></path><line class="cls-5" x1="284.54" y1="475.42" x2="284.79" y2="546.73"></line><path class="cls-1" d="M284.38,553.22l0,7.21,5.12,4.88m3,2.84,5.12,4.88,0,7.22m.09,14.56,0,7.22-6.93.05m-12.37.08-6.95,0L271.5,595m-.08-14.57-.05-7.22,5.06-5m2.94-2.87,5.05-5"></path><path class="cls-4" d="M284.38,553.22l0,7.21,5.12,4.88m3,2.84,5.12,4.88,0,7.22m.09,14.56,0,7.22-6.93.05m-12.37.08-6.95,0L271.5,595m-.08-14.57-.05-7.22,5.06-5m2.94-2.87,5.05-5"></path></svg> 