<?xml version="1.0" encoding="UTF-8"?> <svg xmlns="http://www.w3.org/2000/svg" id="Livello_1" data-name="Livello 1" viewBox="0 0 1312 998.95"><defs><style>.cls-1{fill:#fff;}.cls-2{fill:#231f20;}.cls-3,.cls-4{fill:none;stroke-width:0.25px;}.cls-3{stroke:#000;}.cls-4{stroke:#231f20;stroke-miterlimit:10;}</style></defs><title>XL sosp 200 rectangular</title><rect class="cls-1" width="1312" height="998.95"></rect><path class="cls-2" d="M486.2.59h-1l-19.34,7v7.5l11.05-3.43V47.43h9.28ZM532.87,20a30.74,30.74,0,0,0-1.18-9.08,16.31,16.31,0,0,0-3.23-6.18,12.08,12.08,0,0,0-5-3.56A16.81,16.81,0,0,0,517,0a17,17,0,0,0-6.44,1.18,11.9,11.9,0,0,0-4.94,3.56,16.16,16.16,0,0,0-3.22,6.18A30.41,30.41,0,0,0,501.23,20v8.09a30.2,30.2,0,0,0,1.18,9,17.45,17.45,0,0,0,3.22,6.25,12.14,12.14,0,0,0,5,3.56,17.06,17.06,0,0,0,6.45,1.18,16.81,16.81,0,0,0,6.45-1.18,12.08,12.08,0,0,0,5-3.56,17.45,17.45,0,0,0,3.22-6.25,32.82,32.82,0,0,0,1.12-9Zm-9.28,9.34a23.88,23.88,0,0,1-.46,5.26,10,10,0,0,1-1.25,3.49,4.71,4.71,0,0,1-2,1.91,6.75,6.75,0,0,1-5.52,0,4.71,4.71,0,0,1-2-1.91A10.19,10.19,0,0,1,511,34.6a29.83,29.83,0,0,1-.39-5.26V18.62a29.18,29.18,0,0,1,.39-5.2A10.1,10.1,0,0,1,512.21,10a5.59,5.59,0,0,1,2-1.91A6.56,6.56,0,0,1,517,7.57a6.18,6.18,0,0,1,2.77.52,5.3,5.3,0,0,1,2.1,1.91,9.69,9.69,0,0,1,1.25,3.42,23.36,23.36,0,0,1,.46,5.2Zm25-2.17h4.93a12,12,0,0,1,3.22.4,9.21,9.21,0,0,1,2.44,1.25A6.27,6.27,0,0,1,560.66,31a9.4,9.4,0,0,1,.53,3.22,6.93,6.93,0,0,1-.53,2.63,4.47,4.47,0,0,1-1.38,2A5.05,5.05,0,0,1,557,40.13a8.18,8.18,0,0,1-3,.46,7.3,7.3,0,0,1-2.7-.46,5.89,5.89,0,0,1-2.17-1.25,5.41,5.41,0,0,1-2-4.28H538a12.08,12.08,0,0,0,1.39,6A12.48,12.48,0,0,0,543,44.8,15.81,15.81,0,0,0,548,47.3a21.88,21.88,0,0,0,5.85.79,23.46,23.46,0,0,0,6.58-.92,15.29,15.29,0,0,0,5.27-2.7,12.34,12.34,0,0,0,3.48-4.27,13.92,13.92,0,0,0,1.25-5.86,11.51,11.51,0,0,0-2-6.71,11.39,11.39,0,0,0-5.86-4.21,15.55,15.55,0,0,0,3-1.91,14.72,14.72,0,0,0,2.24-2.37,12.69,12.69,0,0,0,1.38-2.82,11.76,11.76,0,0,0,.46-3,13.55,13.55,0,0,0-1.18-5.79,11.8,11.8,0,0,0-3.23-4.15,14.87,14.87,0,0,0-5-2.56A24.48,24.48,0,0,0,553.88,0a19.7,19.7,0,0,0-6,.92A16.14,16.14,0,0,0,543,3.49a13.06,13.06,0,0,0-3.29,4,11.67,11.67,0,0,0-1.18,5.26h9.27a4.8,4.8,0,0,1,.53-2.17A4.69,4.69,0,0,1,549.67,9a5.59,5.59,0,0,1,2-1.06,7,7,0,0,1,2.37-.39,7.27,7.27,0,0,1,2.83.46,4.94,4.94,0,0,1,2,1.25,4.67,4.67,0,0,1,1.19,1.91,6.93,6.93,0,0,1,.39,2.37,6.48,6.48,0,0,1-1.71,4.67,7.07,7.07,0,0,1-5.26,1.77h-4.93Zm37.72,0h4.94a12.08,12.08,0,0,1,3.22.4,9,9,0,0,1,2.43,1.25A6.43,6.43,0,0,1,598.39,31a9.41,9.41,0,0,1,.52,3.22,6.93,6.93,0,0,1-.52,2.63,4.57,4.57,0,0,1-1.39,2,5,5,0,0,1-2.23,1.31,8.22,8.22,0,0,1-3,.46,7.27,7.27,0,0,1-2.7-.46A5.68,5.68,0,0,1,585,34.6h-9.28a12.19,12.19,0,0,0,1.38,6,12.51,12.51,0,0,0,3.62,4.21,15.86,15.86,0,0,0,5.06,2.5,22,22,0,0,0,5.86.79,23.46,23.46,0,0,0,6.58-.92,15.16,15.16,0,0,0,5.26-2.7,12.37,12.37,0,0,0,3.49-4.27,13.92,13.92,0,0,0,1.25-5.86,11.58,11.58,0,0,0-2-6.71,11.43,11.43,0,0,0-5.86-4.21,15.55,15.55,0,0,0,3-1.91,14.66,14.66,0,0,0,2.23-2.37A11.87,11.87,0,0,0,607,16.32a11.34,11.34,0,0,0,.47-3,13.55,13.55,0,0,0-1.19-5.79,11.77,11.77,0,0,0-3.22-4.15,14.87,14.87,0,0,0-5-2.56A24.54,24.54,0,0,0,591.61,0a19.77,19.77,0,0,0-6,.92,16.26,16.26,0,0,0-4.87,2.57,12.88,12.88,0,0,0-3.28,4,11.68,11.68,0,0,0-1.19,5.26h9.28a4.79,4.79,0,0,1,.52-2.17A4.6,4.6,0,0,1,587.4,9a5.51,5.51,0,0,1,2-1.06,6.93,6.93,0,0,1,2.37-.39,7.27,7.27,0,0,1,2.83.46,5,5,0,0,1,2,1.25,4.65,4.65,0,0,1,1.18,1.91,6.7,6.7,0,0,1,.4,2.37,6.48,6.48,0,0,1-1.71,4.67,7.1,7.1,0,0,1-5.26,1.77h-4.94ZM633,23.68H614.93v7.44H633Zm39.12,16.25H652l8.22-8.68c1.58-1.65,3-3.16,4.28-4.67a33.16,33.16,0,0,0,3.29-4.41,22.34,22.34,0,0,0,2-4.34,13.33,13.33,0,0,0,.78-4.54,15.3,15.3,0,0,0-1-5.59,11.25,11.25,0,0,0-3-4.15A13.19,13.19,0,0,0,661.94.92,22.15,22.15,0,0,0,655.36,0a17.12,17.12,0,0,0-6.77,1.25,15,15,0,0,0-5.07,3.29,14.46,14.46,0,0,0-3.29,4.87,16.75,16.75,0,0,0-1.12,6h9.34a9.58,9.58,0,0,1,.46-3.15,7.62,7.62,0,0,1,1.25-2.5,6,6,0,0,1,2.18-1.65,6.5,6.5,0,0,1,2.89-.59,5.67,5.67,0,0,1,4.47,1.78,7.12,7.12,0,0,1,1.58,4.93,6,6,0,0,1-.33,2.11,10.9,10.9,0,0,1-1,2.36,18.79,18.79,0,0,1-1.91,2.83,36.65,36.65,0,0,1-2.9,3.42L640,41.05v6.38h32.11ZM709.27,20a30.41,30.41,0,0,0-1.18-9.08,16.31,16.31,0,0,0-3.23-6.18,12.08,12.08,0,0,0-5-3.56A16.76,16.76,0,0,0,693.42,0,17,17,0,0,0,687,1.18,12,12,0,0,0,682,4.74a16.16,16.16,0,0,0-3.22,6.18A30.41,30.41,0,0,0,677.63,20v8.09a30.2,30.2,0,0,0,1.18,9A17.45,17.45,0,0,0,682,43.35a12.21,12.21,0,0,0,5,3.56,17.06,17.06,0,0,0,6.45,1.18,16.81,16.81,0,0,0,6.45-1.18,12.08,12.08,0,0,0,5-3.56,17.45,17.45,0,0,0,3.22-6.25,32.44,32.44,0,0,0,1.12-9ZM700,29.34a23.88,23.88,0,0,1-.46,5.26,10,10,0,0,1-1.25,3.49,4.71,4.71,0,0,1-2,1.91,6.75,6.75,0,0,1-5.52,0,4.77,4.77,0,0,1-2-1.91,10.19,10.19,0,0,1-1.32-3.49,29.83,29.83,0,0,1-.39-5.26V18.62a29.18,29.18,0,0,1,.39-5.2A10.1,10.1,0,0,1,688.61,10a5.67,5.67,0,0,1,2-1.91,6.58,6.58,0,0,1,2.77-.52,6.16,6.16,0,0,1,2.76.52,5.3,5.3,0,0,1,2.1,1.91,9.69,9.69,0,0,1,1.25,3.42,23.36,23.36,0,0,1,.46,5.2Z"></path><path class="cls-2" d="M444.35,100.07a6.8,6.8,0,0,0-1.12-.27,11.67,11.67,0,0,0-1.44-.13,10,10,0,0,0-5.92,1.65,11.92,11.92,0,0,0-3.89,4.54l-.06-5.53h-3.75v34.74H432V111.19A16.43,16.43,0,0,1,433.3,108a9.27,9.27,0,0,1,2-2.44A8.33,8.33,0,0,1,438.1,104a10,10,0,0,1,3.56-.59,15.78,15.78,0,0,1,2.56.19ZM468,135.2a11.49,11.49,0,0,0,3.42-1.32A10.77,10.77,0,0,0,474,132a17,17,0,0,0,2-2.43l-2.43-1.78a11.4,11.4,0,0,1-4.28,3.56,12.1,12.1,0,0,1-5.46,1.11,10.91,10.91,0,0,1-4.87-1.05,11.58,11.58,0,0,1-3.75-3,13.28,13.28,0,0,1-2.43-4.34,16.32,16.32,0,0,1-.86-5.39V118h24.81v-2.37a21.76,21.76,0,0,0-.93-6.38,14.09,14.09,0,0,0-2.63-5.06,12.53,12.53,0,0,0-4.34-3.29A13.67,13.67,0,0,0,463,99.67a13,13,0,0,0-5.66,1.25,15.52,15.52,0,0,0-4.74,3.55,16.59,16.59,0,0,0-3.29,5.53,21.25,21.25,0,0,0-1.18,7.3v1.39a19.19,19.19,0,0,0,1.18,6.84,15.3,15.3,0,0,0,3.23,5.39,13.77,13.77,0,0,0,4.93,3.49,15.07,15.07,0,0,0,6.25,1.31,16.33,16.33,0,0,0,4.21-.52Zm-.66-31.32a10.61,10.61,0,0,1,3.09,2.5,12,12,0,0,1,1.85,3.62,15.47,15.47,0,0,1,.72,4.28v.39H452.09a18,18,0,0,1,1.25-4.8,12.16,12.16,0,0,1,2.31-3.68,11.22,11.22,0,0,1,3.29-2.44A10.41,10.41,0,0,1,463,103a9.76,9.76,0,0,1,4.27.92ZM492,131.32a11.09,11.09,0,0,1-3.43-3.1,14.1,14.1,0,0,1-1.84-4.54,23.38,23.38,0,0,1-.59-5.32V117a23.92,23.92,0,0,1,.59-5.33,12.51,12.51,0,0,1,1.91-4.47,9.61,9.61,0,0,1,3.36-3.16,10.9,10.9,0,0,1,5.06-1.12,11.55,11.55,0,0,1,3.69.59,10.1,10.1,0,0,1,3,1.85,9.15,9.15,0,0,1,2.11,2.82,9.88,9.88,0,0,1,.85,3.82h3.75a15.33,15.33,0,0,0-1.18-5.13,12.27,12.27,0,0,0-2.9-3.88,11.93,11.93,0,0,0-4.14-2.5,16.11,16.11,0,0,0-11.58.46,13.67,13.67,0,0,0-4.67,3.68,16.91,16.91,0,0,0-2.83,5.53,25,25,0,0,0-.92,6.84v1.32a25.41,25.41,0,0,0,.92,6.84,16.86,16.86,0,0,0,2.83,5.52,13.23,13.23,0,0,0,4.67,3.62,14,14,0,0,0,6.38,1.38,16,16,0,0,0,5.07-.85,14,14,0,0,0,4.14-2.37,11.21,11.21,0,0,0,3-3.62,11.49,11.49,0,0,0,1.25-4.54h-3.75a8.15,8.15,0,0,1-.92,3.49,10.36,10.36,0,0,1-2.17,2.57,10.24,10.24,0,0,1-3,1.51,10.64,10.64,0,0,1-3.55.52,10.1,10.1,0,0,1-5.06-1.11Zm28.19-39.94v9H513.8v3.16h6.39v23.16a13.71,13.71,0,0,0,.59,4.34,7.34,7.34,0,0,0,1.58,2.76,5,5,0,0,0,2.36,1.51,9.16,9.16,0,0,0,3,.46c.79,0,1.51-.06,2.3-.13a10.4,10.4,0,0,0,1.85-.46l-.2-3.09c-.4.07-.92.13-1.45.2a14.45,14.45,0,0,1-1.64.06,7.17,7.17,0,0,1-1.71-.19,2.9,2.9,0,0,1-1.45-.79,4,4,0,0,1-1-1.78,8.84,8.84,0,0,1-.39-2.89V103.49h7.17v-3.16h-7.17v-9Zm45,43.69v-.4a12,12,0,0,1-.46-1.45c-.13-.52-.2-1.11-.33-1.71s-.13-1.18-.2-1.84-.06-1.25-.06-1.84V111a12.55,12.55,0,0,0-.92-4.94,9.72,9.72,0,0,0-2.64-3.55,11.29,11.29,0,0,0-3.94-2.1,18.06,18.06,0,0,0-10.59.13,15.17,15.17,0,0,0-4.22,2.3,10.91,10.91,0,0,0-2.69,3.29,7.5,7.5,0,0,0-.92,3.75l3.81.07a5.81,5.81,0,0,1,.73-2.77,7.44,7.44,0,0,1,1.9-2.23,8.8,8.8,0,0,1,3-1.45,11,11,0,0,1,3.69-.59q4.44,0,6.71,2.17a7.57,7.57,0,0,1,2.3,5.85v4h-7.1a29.07,29.07,0,0,0-6.65.72,15.23,15.23,0,0,0-5,2.24,9.87,9.87,0,0,0-3.16,3.42,9.75,9.75,0,0,0-1.05,4.61,9.48,9.48,0,0,0,.79,3.88,9.3,9.3,0,0,0,2.24,3.16A10.61,10.61,0,0,0,544,135a14.7,14.7,0,0,0,4.61.72,16.85,16.85,0,0,0,3.81-.46,21.46,21.46,0,0,0,3.29-1.18,12.15,12.15,0,0,0,2.63-1.78,9.86,9.86,0,0,0,2-2.1c.07.92.13,1.77.26,2.7a9.44,9.44,0,0,0,.53,2.17Zm-19.41-3.29a8,8,0,0,1-2.5-1.45,5.63,5.63,0,0,1-1.51-2.17,5.86,5.86,0,0,1-.59-2.63,6.61,6.61,0,0,1,.85-3.23,6.87,6.87,0,0,1,2.5-2.43,12,12,0,0,1,3.95-1.51,21,21,0,0,1,5.26-.53h6.58v7.63a11.83,11.83,0,0,1-1.71,2.7,11.77,11.77,0,0,1-5.72,3.62,14.55,14.55,0,0,1-3.88.52,9.72,9.72,0,0,1-3.23-.52Zm28.59-31.45v34.74h3.81V111.25a15.29,15.29,0,0,1,1.51-3,10.46,10.46,0,0,1,5.14-4.53,9.53,9.53,0,0,1,3.75-.66,11.32,11.32,0,0,1,3.42.46A5.67,5.67,0,0,1,594.6,105a7.73,7.73,0,0,1,1.65,2.9,15,15,0,0,1,.59,4.54v22.63h3.82V112.44a19.27,19.27,0,0,0-.79-5.86,10.77,10.77,0,0,0-2.18-4,8.12,8.12,0,0,0-3.48-2.23,12.84,12.84,0,0,0-4.67-.73,12.55,12.55,0,0,0-3.56.46,14.38,14.38,0,0,0-3.09,1.32,13.54,13.54,0,0,0-4.67,4.8l-.13-5.92ZM609,118a24.51,24.51,0,0,0,.93,7.17,16.15,16.15,0,0,0,2.63,5.59,13,13,0,0,0,4.21,3.62,11.92,11.92,0,0,0,5.59,1.31,13.83,13.83,0,0,0,6.38-1.38,12,12,0,0,0,4.34-3.75v4a14.61,14.61,0,0,1-.65,4.67,9.12,9.12,0,0,1-2,3.42,8.14,8.14,0,0,1-3.23,2.23,12.25,12.25,0,0,1-4.34.73,11.4,11.4,0,0,1-5.2-1.19,15,15,0,0,1-4.54-3.81L611,143a11.49,11.49,0,0,0,2.43,2.63,17,17,0,0,0,3,1.84,18.23,18.23,0,0,0,3.29,1.12,14.16,14.16,0,0,0,3.35.33,16,16,0,0,0,5.73-1,12.38,12.38,0,0,0,4.4-2.83,13.16,13.16,0,0,0,2.77-4.54,17.41,17.41,0,0,0,1-6.06V100.33h-3.62l-.2,5a12.51,12.51,0,0,0-4.4-4.14,13.81,13.81,0,0,0-12-.27,12.79,12.79,0,0,0-4.21,3.55,16.2,16.2,0,0,0-2.63,5.6,25.1,25.1,0,0,0-.93,7.3Zm3.89-.66a25.47,25.47,0,0,1,.59-5.66,14.2,14.2,0,0,1,1.84-4.54,8.94,8.94,0,0,1,3.22-3,8.55,8.55,0,0,1,4.61-1.12,12.38,12.38,0,0,1,3.68.52,10.39,10.39,0,0,1,2.83,1.52,10.16,10.16,0,0,1,2,2.17,11.24,11.24,0,0,1,1.38,2.63V126a12.4,12.4,0,0,1-1.51,2.56,8.61,8.61,0,0,1-2.11,2,10.28,10.28,0,0,1-2.82,1.38,12,12,0,0,1-3.56.46,9,9,0,0,1-4.54-1.12,8.88,8.88,0,0,1-3.22-3,14.11,14.11,0,0,1-1.84-4.54,24.94,24.94,0,0,1-.59-5.65Zm56.54,17.7h3.75V100.33h-3.88v25.13a13,13,0,0,1-1.32,2.76,7.51,7.51,0,0,1-2.1,2.18,9.14,9.14,0,0,1-3.1,1.44,14.54,14.54,0,0,1-4.08.53,9.77,9.77,0,0,1-3.09-.46,6.4,6.4,0,0,1-2.56-1.65,7.86,7.86,0,0,1-1.71-3,15.47,15.47,0,0,1-.66-4.67v-22.3h-3.82v22.24a18.22,18.22,0,0,0,.86,6.05,10.57,10.57,0,0,0,2.3,4.08,9.58,9.58,0,0,0,3.62,2.3,16.36,16.36,0,0,0,11.38-.66,11.16,11.16,0,0,0,4.34-3.68Zm18-49.35h-3.88v49.35h3.88Zm36.43,49.35v-.4a12,12,0,0,1-.46-1.45c-.13-.52-.2-1.11-.33-1.71s-.13-1.18-.2-1.84-.06-1.25-.06-1.84V111a12.55,12.55,0,0,0-.92-4.94,9.81,9.81,0,0,0-2.63-3.55,11.43,11.43,0,0,0-4-2.1,18.06,18.06,0,0,0-10.59.13,15,15,0,0,0-4.21,2.3,10.79,10.79,0,0,0-2.7,3.29,7.5,7.5,0,0,0-.92,3.75l3.81.07a5.81,5.81,0,0,1,.73-2.77,7.34,7.34,0,0,1,1.91-2.23,8.62,8.62,0,0,1,3-1.45,10.88,10.88,0,0,1,3.68-.59q4.44,0,6.71,2.17a7.57,7.57,0,0,1,2.3,5.85v4h-7.1a29.07,29.07,0,0,0-6.65.72,15.23,15.23,0,0,0-5,2.24,9.75,9.75,0,0,0-3.15,3.42,10.26,10.26,0,0,0-.27,8.49A9.3,9.3,0,0,0,699,132.9a10.71,10.71,0,0,0,3.55,2.1,14.7,14.7,0,0,0,4.61.72,16.85,16.85,0,0,0,3.81-.46,21.08,21.08,0,0,0,3.29-1.18,12.15,12.15,0,0,0,2.63-1.78,9.86,9.86,0,0,0,2-2.1c.07.92.13,1.77.27,2.7a9,9,0,0,0,.52,2.17Zm-19.41-3.29a8,8,0,0,1-2.5-1.45,5.74,5.74,0,0,1-1.51-2.17,6,6,0,0,1-.59-2.63,6.61,6.61,0,0,1,.85-3.23,7,7,0,0,1,2.5-2.43,12.11,12.11,0,0,1,4-1.51,21,21,0,0,1,5.26-.53H719v7.63a11.49,11.49,0,0,1-1.71,2.7,13.32,13.32,0,0,1-2.5,2.17,13.08,13.08,0,0,1-3.22,1.45,14.55,14.55,0,0,1-3.88.52,9.72,9.72,0,0,1-3.23-.52Zm44.77-31.71a6.8,6.8,0,0,0-1.12-.27,11.67,11.67,0,0,0-1.44-.13,10,10,0,0,0-5.93,1.65,12,12,0,0,0-3.88,4.54l-.06-5.53H733v34.74h3.81V111.19a16.43,16.43,0,0,1,1.32-3.16,9.09,9.09,0,0,1,2-2.44,8.33,8.33,0,0,1,2.76-1.64,9.94,9.94,0,0,1,3.55-.59,15.91,15.91,0,0,1,2.57.19Z"></path><line class="cls-3" x1="1073.57" y1="446.02" x2="1073.57" y2="808.81"></line><path d="M1146.66,647v-3.57a8.84,8.84,0,0,1,1.78-5.78,6.17,6.17,0,0,1,5-2,6.9,6.9,0,0,1,5.15,1.79,8.57,8.57,0,0,1,0,10.46,6.08,6.08,0,0,1-4.68,1.89v4.78a9.41,9.41,0,0,0,7.51-3.31,14.06,14.06,0,0,0-.1-17.08,10.2,10.2,0,0,0-8-3.31,9.22,9.22,0,0,0-5.52,1.68,9.46,9.46,0,0,0-3.2,4.78,9.68,9.68,0,0,0-3.42-4.31,8.21,8.21,0,0,0-4.73-1.57,10.24,10.24,0,0,0-7.83,3c-1.84,2-2.78,4.78-2.78,8.31a11.9,11.9,0,0,0,2.94,8.25,9.53,9.53,0,0,0,7.36,3.25v-4.78a6.1,6.1,0,0,1-4.63-1.78,6.8,6.8,0,0,1-1.78-4.94c0-4.37,2.2-6.57,6.56-6.57a6,6,0,0,1,4.68,1.94,8,8,0,0,1,1.79,5.31V647Zm-5-46.1c-5.41,0-9.35,1-11.92,2.94s-3.89,4.84-3.89,8.88,1.31,7.05,4,8.94,6.78,2.83,12.24,2.83h6.36c5.26-.05,9.2-1.05,11.88-3s3.94-4.84,3.94-8.83-1.37-7-4-8.93-6.83-2.84-12.4-2.84Zm7.41,4.73c3.89,0,6.78.68,8.57,1.79a6.37,6.37,0,0,1-.16,10.56c-1.94,1.15-4.89,1.79-8.93,1.79h-7.62c-3.79-.06-6.62-.64-8.46-1.74a5.72,5.72,0,0,1-2.73-5.31,5.79,5.79,0,0,1,2.78-5.36c1.84-1.15,4.73-1.73,8.78-1.73Z"></path><path d="M515.19,992.64H496.43l10-10.87c4.73-5,7-9.46,7-13.14a9.36,9.36,0,0,0-3-7.25c-2-1.84-4.78-2.74-8.25-2.74-3.73,0-6.67,1.05-8.88,3.21a10.81,10.81,0,0,0-3.36,8.3h4.78a7.76,7.76,0,0,1,1.95-5.62,7.43,7.43,0,0,1,5.51-2,6.24,6.24,0,0,1,4.73,1.89,6.69,6.69,0,0,1,1.74,4.79,9.08,9.08,0,0,1-1.05,4.2,29.39,29.39,0,0,1-4,5.31l-12.92,14.4v3.41h24.48Zm28.5-18.18c-.05-5.41-1.05-9.35-2.94-11.93s-4.83-3.89-8.88-3.89-7,1.32-8.93,4-2.84,6.78-2.84,12.24v6.36c0,5.25,1,9.2,3,11.88s4.84,3.94,8.83,3.94,7-1.37,8.94-4,2.83-6.83,2.83-12.4ZM539,981.87c-.05,3.89-.68,6.78-1.78,8.57a6.38,6.38,0,0,1-10.57-.16c-1.15-1.95-1.78-4.89-1.78-8.94v-7.62c0-3.78.63-6.62,1.73-8.46a5.72,5.72,0,0,1,5.31-2.73,5.79,5.79,0,0,1,5.36,2.79c1.16,1.84,1.73,4.73,1.73,8.77Zm34.28-7.41c0-5.41-1-9.35-2.94-11.93s-4.83-3.89-8.88-3.89-7,1.32-8.94,4-2.83,6.78-2.83,12.24v6.36c.05,5.25,1.05,9.2,3,11.88s4.84,3.94,8.83,3.94,7-1.37,8.93-4,2.84-6.83,2.84-12.4Zm-4.73,7.41c0,3.89-.68,6.78-1.78,8.57a6.38,6.38,0,0,1-10.57-.16c-1.15-1.95-1.78-4.89-1.78-8.94v-7.62c0-3.78.63-6.62,1.73-8.46a5.72,5.72,0,0,1,5.31-2.73,5.79,5.79,0,0,1,5.36,2.79c1.15,1.84,1.73,4.73,1.73,8.77Zm15.26-22.7H578l11.82,18.55-12.08,18.81h5.83L592.75,982l9.2,14.55h5.89l-12.09-18.81,11.77-18.55h-5.78l-9,14.29Zm35.44,20.28h3.57c2.52.06,4.47.63,5.78,1.79a6.16,6.16,0,0,1,2,5,6.9,6.9,0,0,1-1.79,5.15,8.53,8.53,0,0,1-10.46,0,6.05,6.05,0,0,1-1.89-4.68h-4.78a9.42,9.42,0,0,0,3.31,7.52,14,14,0,0,0,17.08-.11,10.16,10.16,0,0,0,3.31-8,9.18,9.18,0,0,0-1.68-5.52,9.51,9.51,0,0,0-4.78-3.21,9.7,9.7,0,0,0,4.3-3.41,8.18,8.18,0,0,0,1.58-4.73,10.22,10.22,0,0,0-3-7.83c-2-1.84-4.79-2.79-8.31-2.79a11.91,11.91,0,0,0-8.25,3,9.53,9.53,0,0,0-3.26,7.35h4.79a6,6,0,0,1,1.78-4.62,6.79,6.79,0,0,1,4.94-1.79c4.36,0,6.57,2.21,6.57,6.57a6,6,0,0,1-1.94,4.68,8,8,0,0,1-5.31,1.78h-3.57Zm46.1-5c0-5.41-1-9.35-2.94-11.93s-4.84-3.89-8.88-3.89-7,1.32-8.94,4-2.84,6.78-2.84,12.24v6.36c.06,5.25,1,9.2,3,11.88s4.83,3.94,8.83,3.94,7-1.37,8.93-4,2.84-6.83,2.84-12.4Zm-4.73,7.41c-.05,3.89-.68,6.78-1.79,8.57a6.37,6.37,0,0,1-10.56-.16c-1.16-1.95-1.79-4.89-1.79-8.94v-7.62c.06-3.78.63-6.62,1.74-8.46a5.72,5.72,0,0,1,5.31-2.73,5.8,5.8,0,0,1,5.36,2.79c1.15,1.84,1.73,4.73,1.73,8.77Z"></path><line class="cls-3" x1="147.74" y1="904.11" x2="1008.06" y2="904.11"></line><path class="cls-1" d="M1015.43,831.62H149.93V452.74h865.5ZM240.63,276.74v176m684.1-176v176m-337.9,0h-19V441.33h19ZM577.35,337V441.33m9.48-103.47h-19V318.3h19Zm29.24-37.48H538.62V276.75h77.45Zm-36,0h57.71s-13.45,18.73-57.71,17.92h-5.53c-44.26.81-57.7-17.92-57.7-17.92h63.23Z"></path><path class="cls-4" d="M1015.43,831.62H149.93V452.74h865.5ZM240.63,276.74v176m684.1-176v176m-337.9,0h-19V441.33h19ZM577.35,337V441.33m9.48-103.47h-19V318.3h19Zm29.24-37.48H538.62V276.75h77.45Zm-36,0h57.71s-13.45,18.73-57.71,17.92h-5.53c-44.26.81-57.7-17.92-57.7-17.92h63.23Z"></path></svg> 