<?xml version="1.0" encoding="UTF-8"?> <svg xmlns="http://www.w3.org/2000/svg" id="Livello_1" data-name="Livello 1" viewBox="0 0 1312 1000"><defs><style>.cls-1{fill:#fff;}.cls-2{fill:#231f20;}.cls-3,.cls-4,.cls-5{fill:none;stroke-width:0.25px;}.cls-3{stroke:#000;}.cls-4,.cls-5{stroke:#231f20;stroke-miterlimit:10;}.cls-5{stroke-dasharray:2.71 2.71;}</style></defs><title>XL sosp 180 cilindro</title><rect class="cls-1" width="1312" height="998.95"></rect><path class="cls-2" d="M509.36.6h-1l-19.52,7V15.2L500,11.75V47.87h9.36Zm47.1,19.58a30.56,30.56,0,0,0-1.2-9.16A16.4,16.4,0,0,0,552,4.78a12.13,12.13,0,0,0-5-3.58,16.84,16.84,0,0,0-6.5-1.2A17.15,17.15,0,0,0,534,1.2a12,12,0,0,0-5,3.58A16.4,16.4,0,0,0,525.72,11a30.56,30.56,0,0,0-1.2,9.16v8.17a30.34,30.34,0,0,0,1.2,9.09A17.79,17.79,0,0,0,529,43.75a12.21,12.21,0,0,0,5,3.59,18.37,18.37,0,0,0,13,0,12.21,12.21,0,0,0,5.05-3.59,17.79,17.79,0,0,0,3.25-6.31,33,33,0,0,0,1.13-9.09Zm-9.36,9.43a24.36,24.36,0,0,1-.47,5.31,10.2,10.2,0,0,1-1.26,3.52,4.66,4.66,0,0,1-2.06,1.92,6.76,6.76,0,0,1-5.57,0,4.66,4.66,0,0,1-2.06-1.92,10.16,10.16,0,0,1-1.33-3.52,29.47,29.47,0,0,1-.4-5.31V18.79a28.76,28.76,0,0,1,.4-5.25,10,10,0,0,1,1.26-3.45,5.58,5.58,0,0,1,2.06-1.92,6.5,6.5,0,0,1,2.79-.54,6.16,6.16,0,0,1,2.79.54,5.31,5.31,0,0,1,2.12,1.92,9.78,9.78,0,0,1,1.26,3.45,23.78,23.78,0,0,1,.47,5.25Zm25.19-2.19h5a12.31,12.31,0,0,1,3.25.4A9.5,9.5,0,0,1,583,29.08a6.61,6.61,0,0,1,1.52,2.19,9.58,9.58,0,0,1,.53,3.25,7.09,7.09,0,0,1-.53,2.66,4.52,4.52,0,0,1-1.39,2,5.15,5.15,0,0,1-2.26,1.33,8.35,8.35,0,0,1-3,.46,7.37,7.37,0,0,1-2.72-.46A6.06,6.06,0,0,1,573,39.24a5.61,5.61,0,0,1-1.46-1.86,5.85,5.85,0,0,1-.53-2.46H561.6A12.31,12.31,0,0,0,563,41a12.63,12.63,0,0,0,3.65,4.25,15.81,15.81,0,0,0,5.12,2.52,21.8,21.8,0,0,0,5.9.8,23.47,23.47,0,0,0,6.64-.93,15.52,15.52,0,0,0,5.31-2.72,12.31,12.31,0,0,0,3.52-4.32,13.93,13.93,0,0,0,1.26-5.9,11.65,11.65,0,0,0-2-6.78,11.49,11.49,0,0,0-5.91-4.25,15.83,15.83,0,0,0,3.06-1.92,15.9,15.9,0,0,0,2.26-2.39,12.79,12.79,0,0,0,1.39-2.86,11.41,11.41,0,0,0,.46-3,13.71,13.71,0,0,0-1.19-5.85,12.05,12.05,0,0,0-3.25-4.18A15.17,15.17,0,0,0,584.17.86,25,25,0,0,0,577.66,0a19.79,19.79,0,0,0-6,.93,16.51,16.51,0,0,0-4.91,2.59,13.16,13.16,0,0,0-3.32,4.05,11.7,11.7,0,0,0-1.19,5.31h9.36a4.85,4.85,0,0,1,.53-2.19A4.59,4.59,0,0,1,573.42,9,5.41,5.41,0,0,1,575.47,8a6.85,6.85,0,0,1,2.39-.4,7.43,7.43,0,0,1,2.86.46,5.14,5.14,0,0,1,2,1.26,4.87,4.87,0,0,1,1.2,1.93,7.09,7.09,0,0,1,.39,2.39,6.51,6.51,0,0,1-1.72,4.71,7.12,7.12,0,0,1-5.31,1.8h-5ZM623.57.6h-1l-19.52,7V15.2l11.16-3.45V47.87h9.36Zm33.95,23.3H639.27v7.5h18.25ZM697,40.3H676.68l8.3-8.76c1.59-1.66,3.06-3.19,4.32-4.72a32.9,32.9,0,0,0,3.32-4.45,21.57,21.57,0,0,0,2-4.38,13.1,13.1,0,0,0,.8-4.58,15.54,15.54,0,0,0-1-5.64,11.23,11.23,0,0,0-3-4.18A13.34,13.34,0,0,0,686.71.93,22.22,22.22,0,0,0,680.07,0a17.51,17.51,0,0,0-6.84,1.26,15.21,15.21,0,0,0-5.11,3.32,14.71,14.71,0,0,0-3.32,4.91,16.88,16.88,0,0,0-1.13,6h9.43a9.53,9.53,0,0,1,.46-3.19,7.55,7.55,0,0,1,1.26-2.52A6,6,0,0,1,677,8.17a6.57,6.57,0,0,1,2.93-.6,5.77,5.77,0,0,1,4.51,1.79,7.26,7.26,0,0,1,1.59,5,6,6,0,0,1-.33,2.12,11.7,11.7,0,0,1-1,2.39,19.72,19.72,0,0,1-1.93,2.86,40.27,40.27,0,0,1-2.92,3.45L664.6,41.43v6.44H697Zm37.47-20.12A30.91,30.91,0,0,0,733.28,11,16.41,16.41,0,0,0,730,4.78a12.16,12.16,0,0,0-5-3.58A16.93,16.93,0,0,0,718.47,0,17.18,17.18,0,0,0,712,1.2a12,12,0,0,0-5,3.58A16.4,16.4,0,0,0,703.73,11a30.58,30.58,0,0,0-1.19,9.16v8.17a30.37,30.37,0,0,0,1.19,9.09A17.79,17.79,0,0,0,707,43.75a12.28,12.28,0,0,0,5,3.59,17.34,17.34,0,0,0,6.51,1.19,17,17,0,0,0,6.5-1.19,12.21,12.21,0,0,0,5.05-3.59,17.79,17.79,0,0,0,3.25-6.31,33,33,0,0,0,1.13-9.09Zm-9.36,9.43a23.76,23.76,0,0,1-.47,5.31,10.2,10.2,0,0,1-1.26,3.52,4.66,4.66,0,0,1-2.06,1.92,6.76,6.76,0,0,1-5.57,0,4.66,4.66,0,0,1-2.06-1.92,10.16,10.16,0,0,1-1.33-3.52,30.42,30.42,0,0,1-.4-5.31V18.79a29.68,29.68,0,0,1,.4-5.25,10,10,0,0,1,1.26-3.45,5.66,5.66,0,0,1,2.06-1.92,6.5,6.5,0,0,1,2.79-.54,6.16,6.16,0,0,1,2.79.54,5.24,5.24,0,0,1,2.12,1.92,9.78,9.78,0,0,1,1.26,3.45,23.19,23.19,0,0,1,.47,5.25Z"></path><path class="cls-2" d="M510.66,132.52a11.22,11.22,0,0,1-3.45-3.12,14.05,14.05,0,0,1-1.86-4.59,23.25,23.25,0,0,1-.6-5.37v-1.33a23.79,23.79,0,0,1,.6-5.38,12.54,12.54,0,0,1,1.92-4.51,9.87,9.87,0,0,1,3.39-3.19,11,11,0,0,1,5.11-1.13,11.46,11.46,0,0,1,3.72.6,10,10,0,0,1,3,1.86,9,9,0,0,1,2.13,2.85,10,10,0,0,1,.86,3.85h3.78a15.69,15.69,0,0,0-1.19-5.18A12.45,12.45,0,0,0,525.2,104a12.09,12.09,0,0,0-4.18-2.52,16.27,16.27,0,0,0-11.69.46,13.81,13.81,0,0,0-4.71,3.72,17.17,17.17,0,0,0-2.86,5.57,25.54,25.54,0,0,0-.93,6.91v1.33a25.8,25.8,0,0,0,.93,6.9,17.22,17.22,0,0,0,2.86,5.58,13.36,13.36,0,0,0,4.71,3.65,14.14,14.14,0,0,0,6.44,1.39,16.2,16.2,0,0,0,5.11-.86,14.31,14.31,0,0,0,4.19-2.39,11.38,11.38,0,0,0,3-3.65,11.74,11.74,0,0,0,1.26-4.58h-3.78a8.44,8.44,0,0,1-.93,3.52,10.53,10.53,0,0,1-2.19,2.59,10.26,10.26,0,0,1-3,1.52,10.66,10.66,0,0,1-3.59.53,10.27,10.27,0,0,1-5.11-1.12Zm26.59-31.27H533L546.21,136l-1.73,4.59a13.51,13.51,0,0,1-1.19,2.78,8.54,8.54,0,0,1-1.59,2,6,6,0,0,1-2.06,1.19,8.73,8.73,0,0,1-2.79.4,5.16,5.16,0,0,1-.93-.07c-.46-.06-.8-.06-1.06-.13V150a1.87,1.87,0,0,1,.6.14c.26.06.53.06.79.13s.6.06.87.13h.73a8.72,8.72,0,0,0,4.11-.86,11.55,11.55,0,0,0,2.79-2.19,12.59,12.59,0,0,0,1.79-2.79,25.41,25.41,0,0,0,1.13-2.72l14.87-40.63h-4.18l-10.22,29.47Zm35.62-14.74H569V136.3h3.92Zm14.85,14.74h-3.91V136.3h3.91ZM583.81,93a2.84,2.84,0,0,0,2,.73,2.65,2.65,0,0,0,1.92-.73,2.42,2.42,0,0,0,.73-1.86,2.33,2.33,0,0,0-.73-1.86,2.44,2.44,0,0,0-1.92-.8,2.61,2.61,0,0,0-2,.8,2.54,2.54,0,0,0-.67,1.86,2.65,2.65,0,0,0,.67,1.86Zm14.39,8.3V136.3h3.85v-24a14.35,14.35,0,0,1,1.53-3.06,10.74,10.74,0,0,1,2.19-2.72,11.44,11.44,0,0,1,3-1.86,9.9,9.9,0,0,1,3.78-.66,11.48,11.48,0,0,1,3.45.46,5.76,5.76,0,0,1,2.59,1.53,7.92,7.92,0,0,1,1.66,2.92,15,15,0,0,1,.6,4.58V136.3h3.85V113.46a19.33,19.33,0,0,0-.8-5.91,10.92,10.92,0,0,0-2.19-4,8.26,8.26,0,0,0-3.52-2.26,13,13,0,0,0-4.71-.73,12.41,12.41,0,0,0-3.59.47,14.6,14.6,0,0,0-3.12,1.32,13.76,13.76,0,0,0-2.65,2.13,14.21,14.21,0,0,0-2.06,2.72l-.13-6Zm34.88,17.85a25,25,0,0,0,.93,7.24,17.74,17.74,0,0,0,2.66,5.64,13.15,13.15,0,0,0,4.25,3.66,12.21,12.21,0,0,0,5.64,1.32,14.06,14.06,0,0,0,6.51-1.39,13.41,13.41,0,0,0,4.45-3.92l.13,4.65h3.65V86.51h-3.85v19.65A13.27,13.27,0,0,0,653,102a13,13,0,0,0-6.37-1.46,12,12,0,0,0-5.65,1.26,12.55,12.55,0,0,0-4.31,3.59,17.74,17.74,0,0,0-2.66,5.64,25.59,25.59,0,0,0-.93,7.37Zm3.92-.66a25.85,25.85,0,0,1,.6-5.71,14.36,14.36,0,0,1,1.86-4.58,8.86,8.86,0,0,1,3.25-3.05,8.61,8.61,0,0,1,4.65-1.13,12.69,12.69,0,0,1,3.72.53,10.69,10.69,0,0,1,2.85,1.53,9,9,0,0,1,2.06,2.19,14.16,14.16,0,0,1,1.46,2.59v16.46a15,15,0,0,1-1.59,2.52,8.78,8.78,0,0,1-2.13,2,10.33,10.33,0,0,1-2.85,1.32,12.41,12.41,0,0,1-3.59.47,9.06,9.06,0,0,1-7.83-4.18,14.42,14.42,0,0,1-1.86-4.59,25.4,25.4,0,0,1-.6-5.71Zm52.35,18a11.16,11.16,0,0,0,3.45-1.33,11.47,11.47,0,0,0,2.66-1.92,17.26,17.26,0,0,0,2-2.46l-2.45-1.79a11.51,11.51,0,0,1-4.32,3.59,12.29,12.29,0,0,1-5.51,1.12,11.09,11.09,0,0,1-4.91-1.06,11.8,11.8,0,0,1-3.79-3,13.42,13.42,0,0,1-2.45-4.38,16.33,16.33,0,0,1-.87-5.44V119h25v-2.39a22.07,22.07,0,0,0-.93-6.44,14.36,14.36,0,0,0-2.65-5.11,12.73,12.73,0,0,0-4.38-3.32,13.77,13.77,0,0,0-5.91-1.2,13.07,13.07,0,0,0-5.71,1.26,15.65,15.65,0,0,0-4.78,3.59,16.52,16.52,0,0,0-3.32,5.58,21.32,21.32,0,0,0-1.2,7.36v1.4a19.23,19.23,0,0,0,1.2,6.9,15.51,15.51,0,0,0,3.25,5.45,14.13,14.13,0,0,0,5,3.52A15.16,15.16,0,0,0,685.1,137a16.63,16.63,0,0,0,4.25-.53Zm-.67-31.6a10.64,10.64,0,0,1,3.12,2.52,11.93,11.93,0,0,1,1.86,3.66,15,15,0,0,1,.73,4.31v.4h-21a17.87,17.87,0,0,1,1.26-4.85,12.32,12.32,0,0,1,2.32-3.72,11.84,11.84,0,0,1,3.32-2.45,10.62,10.62,0,0,1,4.12-.8,9.77,9.77,0,0,1,4.31.93ZM722.11,101a7.26,7.26,0,0,0-1.13-.27,11.82,11.82,0,0,0-1.46-.13,10,10,0,0,0-6,1.66,12,12,0,0,0-3.92,4.58l-.07-5.57h-3.78V136.3h3.85V112.2A17,17,0,0,1,711,109a9.2,9.2,0,0,1,2-2.45,8.51,8.51,0,0,1,2.79-1.66,10.16,10.16,0,0,1,3.59-.6,16.12,16.12,0,0,1,2.59.2Z"></path><line class="cls-3" x1="1091.99" y1="468.06" x2="1091.99" y2="834.16"></line><path d="M1165.05,671.73l-1-1.28a7.9,7.9,0,0,1-1.38-4.93,6.93,6.93,0,0,1,2.28-5.46,8.76,8.76,0,0,1,6.1-2.07,9.47,9.47,0,0,1,6.25,1.91,6.41,6.41,0,0,1,2.28,5.25,7.11,7.11,0,0,1-1.64,4.93,7.52,7.52,0,0,1-4.88,2.28v4.56a11.12,11.12,0,0,0,7.69-3.6,11.91,11.91,0,0,0,2.76-8.17c0-3.77-1.11-6.68-3.34-8.8s-5.3-3.13-9.18-3.13-6.94,1-9.22,3a10.38,10.38,0,0,0-3.4,8.17,11.89,11.89,0,0,0,1.65,6.31l-10.29-1.12V654.33h-4.46v19.3l18.83,1.91Zm-4.34-47.43c-5.47.05-9.44,1.06-12,3s-3.93,4.88-3.93,9,1.33,7.11,4,9,6.84,2.86,12.36,2.86h6.42c5.3-.05,9.28-1.06,12-3s4-4.88,4-8.91-1.38-7.11-4.08-9-6.9-2.86-12.52-2.86Zm7.47,4.77c3.93,0,6.84.69,8.65,1.8a6.44,6.44,0,0,1-.16,10.66c-2,1.17-4.93,1.81-9,1.81H1160c-3.81-.06-6.68-.64-8.53-1.75a5.78,5.78,0,0,1-2.76-5.36,5.85,5.85,0,0,1,2.81-5.41c1.85-1.16,4.77-1.75,8.85-1.75Z"></path><path d="M553,994.75l-2.6,5.25h3.23l1.91-3.87a13.47,13.47,0,0,0,4.93.9,12.58,12.58,0,0,0,6.63-1.75,12.41,12.41,0,0,0,4.51-5.09,16.71,16.71,0,0,0,1.59-7.37c0-5.52-1.69-9.65-5-12.31l2.66-5.3h-3.24l-1.85,3.87a12.76,12.76,0,0,0-5.31-1.11,12.22,12.22,0,0,0-6.63,1.8,12.08,12.08,0,0,0-4.5,5.09,16.45,16.45,0,0,0-1.6,7.37c0,5.79,1.81,9.92,5.31,12.52Zm1.69-20a6.93,6.93,0,0,1,5.73-2.81,7.11,7.11,0,0,1,3.45.85l-8.86,18c-1.69-2-2.49-4.56-2.49-7.9,0-3.5.69-6.21,2.17-8.12Zm13.69,8a12.45,12.45,0,0,1-2.12,7.64,7.1,7.1,0,0,1-5.79,2.81,7.53,7.53,0,0,1-3.12-.64l8.8-17.82a12.09,12.09,0,0,1,2.23,7.58Zm25.89-24h-.74l-13.74,5.14v4.35l9.66-3.55V996.5h4.82Zm33.85,2.44a12.86,12.86,0,0,0-16.07,0,9.74,9.74,0,0,0-3.07,7.53,8.74,8.74,0,0,0,1.48,5,10.31,10.31,0,0,0,3.93,3.45,10.08,10.08,0,0,0-4.62,3.71,9.67,9.67,0,0,0-1.64,5.52,10,10,0,0,0,3.23,7.79,14.5,14.5,0,0,0,17.45,0,9.83,9.83,0,0,0,3.29-7.79,9.23,9.23,0,0,0-1.75-5.52,10.55,10.55,0,0,0-4.67-3.71,10.14,10.14,0,0,0,4-3.45,8.64,8.64,0,0,0,1.49-5,9.54,9.54,0,0,0-3.08-7.53Zm-2.76,30.17a8.41,8.41,0,0,1-10.55,0,6.69,6.69,0,0,1-1.91-5,7.08,7.08,0,0,1,2-5.2,6.92,6.92,0,0,1,5.2-2,7.28,7.28,0,0,1,5.25,2,6.92,6.92,0,0,1,2,5.14,6.69,6.69,0,0,1-2,5ZM624.66,964a7.1,7.1,0,0,1,.05,9.39,6,6,0,0,1-4.56,1.75,6.22,6.22,0,0,1-4.61-1.75,6.41,6.41,0,0,1-1.7-4.67,6.48,6.48,0,0,1,1.75-4.77,6.1,6.1,0,0,1,4.56-1.75,6,6,0,0,1,4.51,1.8Zm37.19,10.24c-.05-5.47-1.06-9.44-3-12s-4.88-3.93-9-3.93-7.11,1.33-9,4S638,969.14,638,974.65v6.42c.05,5.3,1.06,9.28,3,12s4.88,4,8.91,4,7.11-1.38,9-4.08,2.86-6.9,2.86-12.52Zm-4.77,7.47c-.05,3.93-.69,6.85-1.8,8.65a6.42,6.42,0,0,1-10.66-.16c-1.17-2-1.81-4.93-1.81-9v-7.69c.06-3.81.64-6.68,1.75-8.53a6.6,6.6,0,0,1,10.77,0c1.17,1.86,1.75,4.77,1.75,8.86Z"></path><line class="cls-3" x1="128.49" y1="909.49" x2="1019.61" y2="909.49"></line><path class="cls-1" d="M1043.75,834.39H130.69V452h913.06ZM226.38,274.44V452.05M948.07,274.44V452.05m-356.46,0h-20V440.54h20Zm-10-116.77V440.54m10-104.43h-20V316.38h20Zm30.84-37.83H540.74V274.44h81.71Zm-37.93,0h60.86s-14.17,18.92-60.86,18.1h-5.84c-46.69.82-60.87-18.1-60.87-18.1h66.71ZM893.65,455.42l.05,7.4"></path><path class="cls-4" d="M1043.75,834.39H130.69V452h913.06ZM226.38,274.44V452.05M948.07,274.44V452.05m-356.46,0h-20V440.54h20Zm-10-116.77V440.54m10-104.43h-20V316.38h20Zm30.84-37.83H540.74V274.44h81.71Zm-37.93,0h60.86s-14.17,18.92-60.86,18.1h-5.84c-46.69.82-60.87-18.1-60.87-18.1h66.71ZM893.65,455.42l.05,7.4"></path><line class="cls-5" x1="893.95" y1="475.58" x2="894.21" y2="547.54"></line><path class="cls-1" d="M894.24,553.44l0,7.38,5.44,5m3.16,2.9,5.42,5,.05,7.38m.1,14.9,0,7.37-7.36,0m-13.14.09-7.38,0-.05-7.38m-.09-14.9-.05-7.37,5.37-5.06m3.12-3,5.37-5M807.25,455l0,7.37"></path><path class="cls-4" d="M894.24,553.44l0,7.38,5.44,5m3.16,2.9,5.42,5,.05,7.38m.1,14.9,0,7.37-7.36,0m-13.14.09-7.38,0-.05-7.38m-.09-14.9-.05-7.37,5.37-5.06m3.12-3,5.37-5M807.25,455l0,7.37"></path><line class="cls-5" x1="806.12" y1="475.49" x2="806.38" y2="547.45"></line><path class="cls-1" d="M806.24,553.34l0,7.38,5.44,5m3.15,2.91,5.43,5,.05,7.38m.1,14.9,0,7.38-7.36,0m-13.14.09-7.38,0-.05-7.37m-.09-14.9-.05-7.38,5.37-5.06m3.12-2.94,5.37-5.06m-87-105.83,0,7.38"></path><path class="cls-4" d="M806.24,553.34l0,7.38,5.44,5m3.15,2.91,5.43,5,.05,7.38m.1,14.9,0,7.38-7.36,0m-13.14.09-7.38,0-.05-7.37m-.09-14.9-.05-7.38,5.37-5.06m3.12-2.94,5.37-5.06m-87-105.83,0,7.38"></path><line class="cls-5" x1="718.29" y1="475.4" x2="718.54" y2="547.36"></line><path class="cls-1" d="M718.24,553.25l0,7.38,5.43,5m3.15,2.9,5.44,5,.05,7.38m.09,14.9,0,7.38-7.36,0M712,603.3l-7.39,0,0-7.37m-.1-14.9-.05-7.38,5.38-5.06m3.12-2.94,5.37-5.06m-87-105.83,0,7.38"></path><path class="cls-4" d="M718.24,553.25l0,7.38,5.44,5m3.15,2.9,5.43,5,.05,7.38m.1,14.9,0,7.38-7.36,0M712,603.3l-7.38,0-.05-7.37m-.09-14.9-.05-7.38,5.37-5.06m3.12-2.94,5.37-5.06m-87-105.83,0,7.38"></path><line class="cls-5" x1="630.45" y1="475.3" x2="630.7" y2="547.27"></line><path class="cls-1" d="M630.24,553.16l0,7.37,5.44,5m3.15,2.9,5.43,5,.05,7.37m.1,14.9,0,7.38-7.36,0M624,603.2l-7.38,0,0-7.38m-.1-14.9,0-7.38,5.37-5.05m3.12-2.95,5.37-5.06m-87-105.83,0,7.38"></path><path class="cls-4" d="M630.24,553.16l0,7.37,5.44,5m3.15,2.9,5.43,5,.05,7.37m.1,14.9,0,7.38-7.36,0M624,603.2l-7.38,0,0-7.38m-.1-14.9,0-7.38,5.37-5.05m3.12-2.95,5.37-5.06m-87-105.83,0,7.38"></path><line class="cls-5" x1="542.62" y1="475.21" x2="542.87" y2="547.17"></line><path class="cls-1" d="M542.24,553.07l0,7.37,5.44,5m3.15,2.9,5.43,5,.05,7.37m.09,14.91,0,7.37-7.36,0m-13.14.08-7.38,0,0-7.38m-.1-14.9,0-7.37,5.37-5.06m3.12-3,5.37-5.06m-87-105.82,0,7.37"></path><path class="cls-4" d="M542.24,553.07l0,7.37,5.44,5m3.15,2.9,5.43,5,.05,7.37m.09,14.91,0,7.37-7.36,0m-13.14.08-7.38,0,0-7.38m-.1-14.9,0-7.37,5.37-5.06m3.12-3,5.37-5.06m-87-105.82,0,7.37"></path><line class="cls-5" x1="454.78" y1="475.11" x2="455.04" y2="547.07"></line><path class="cls-1" d="M454.24,553l.05,7.38,5.44,5m3.15,2.9,5.43,5,.05,7.38m.1,14.9,0,7.37-7.36,0M448,603l-7.38,0-.05-7.38m-.1-14.9,0-7.37,5.37-5.06m3.12-2.94,5.37-5.06m-87-105.83.05,7.37"></path><path class="cls-4" d="M454.24,553l.05,7.38,5.44,5m3.15,2.9,5.43,5,.05,7.38m.1,14.9,0,7.37-7.36,0M448,603l-7.38,0-.05-7.38m-.1-14.9,0-7.37,5.37-5.06m3.12-2.94,5.37-5.06m-87-105.83.05,7.37"></path><line class="cls-5" x1="366.95" y1="475.03" x2="367.21" y2="546.98"></line><path class="cls-1" d="M366.24,552.87l.05,7.39,5.44,5m3.14,2.9,5.44,5,.05,7.38m.1,14.9,0,7.39-7.36,0m-13.14.08-7.38,0-.05-7.37m-.1-14.9,0-7.37,5.37-5.07m3.12-2.94,5.37-5m-87-105.84.05,7.38"></path><path class="cls-4" d="M366.24,552.87l.05,7.39,5.44,5m3.14,2.91,5.44,5,.05,7.38m.1,14.91,0,7.38-7.36,0m-13.14.09-7.38,0-.05-7.37m-.1-14.9,0-7.37,5.37-5.07m3.12-2.94,5.37-5m-87-105.84.05,7.39"></path><line class="cls-5" x1="279.11" y1="474.93" x2="279.37" y2="546.89"></line><path class="cls-1" d="M279,553.44l.05,7.28,5.16,4.92m3,2.87,5.16,4.92.05,7.29m.09,14.7,0,7.28-7,0m-12.48.08-7,0,0-7.27m-.09-14.71,0-7.28,5.1-5m3-2.91,5.11-5"></path><path class="cls-4" d="M279,553.44l.05,7.28,5.16,4.92m3,2.87,5.16,4.92.05,7.29m.09,14.7,0,7.28-7,0m-12.48.08-7,0,0-7.27m-.09-14.71,0-7.28,5.1-5m3-2.91,5.11-5"></path></svg> 